tick,type,time,meta,track,program,channel,pitch,tempo,note,velocity
0,copyright,0,1,0,,,,,,
0,program_change,0,0,0,6,0,,,,
0,pitchwheel,0,0,0,,0,0,,,
0,program_change,0,0,0,6,1,,,,
0,pitchwheel,0,0,0,,1,-590,,,
0,program_change,0,0,0,6,2,,,,
0,pitchwheel,0,0,0,,2,-272,,,
0,program_change,0,0,0,6,3,,,,
0,pitchwheel,0,0,0,,3,-353,,,
0,program_change,0,0,0,6,4,,,,
0,pitchwheel,0,0,0,,4,-560,,,
0,program_change,0,0,0,6,5,,,,
0,pitchwheel,0,0,0,,5,-80,,,
0,program_change,0,0,0,6,6,,,,
0,pitchwheel,0,0,0,,6,-625,,,
0,program_change,0,0,0,6,7,,,,
0,pitchwheel,0,0,0,,7,-130,,,
0,program_change,0,0,0,6,8,,,,
0,pitchwheel,0,0,0,,8,-512,,,
0,program_change,0,0,0,6,10,,,,
0,pitchwheel,0,0,0,,10,-464,,,
0,program_change,0,0,0,6,11,,,,
0,pitchwheel,0,0,0,,11,-208,,,
0,program_change,0,0,0,6,12,,,,
0,pitchwheel,0,0,0,,12,-553,,,
0,set_tempo,0,1,0,,,,500000,,
96,note_on,96,0,0,,5,,,77,127
160,note_on,64,0,0,,3,,,75,127
190,note_off,30,0,0,,5,,,77,127
224,note_on,34,0,0,,5,,,77,127
254,note_off,30,0,0,,3,,,75,127
288,note_on,34,0,0,,3,,,75,127
318,note_off,30,0,0,,5,,,77,127
352,note_on,34,0,0,,2,,,74,127
382,note_off,30,0,0,,3,,,75,127
416,note_on,34,0,0,,3,,,75,127
446,note_off,30,0,0,,2,,,74,127
480,note_on,34,0,0,,5,,,77,127
510,note_off,30,0,0,,3,,,75,127
671,note_off,161,0,0,,5,,,77,127
672,note_on,1,0,0,,12,,,71,127
863,note_off,191,0,0,,12,,,71,127
864,note_on,1,0,0,,2,,,74,127
928,note_on,64,0,0,,0,,,72,127
958,note_off,30,0,0,,2,,,74,127
992,note_on,34,0,0,,2,,,74,127
1022,note_off,30,0,0,,0,,,72,127
1056,note_on,34,0,0,,0,,,72,127
1086,note_off,30,0,0,,2,,,74,127
1120,note_on,34,0,0,,12,,,71,127
1150,note_off,30,0,0,,0,,,72,127
1184,note_on,34,0,0,,0,,,72,127
1214,note_off,30,0,0,,12,,,71,127
1248,note_on,34,0,0,,2,,,74,127
1278,note_off,30,0,0,,0,,,72,127
1439,note_off,161,0,0,,2,,,74,127
1440,note_on,1,0,0,,7,,,67,127
1631,note_off,191,0,0,,7,,,67,127
1632,note_on,1,0,0,,5,,,65,127
1632,note_on,0,0,0,,0,,,72,127
1696,note_on,64,0,0,,3,,,63,127
1726,note_off,30,0,0,,5,,,65,127
1760,note_on,34,0,0,,5,,,65,127
1790,note_off,30,0,0,,3,,,63,127
1824,note_on,34,0,0,,3,,,63,127
1854,note_off,30,0,0,,5,,,65,127
1888,note_on,34,0,0,,2,,,62,127
1918,note_off,30,0,0,,3,,,63,127
1952,note_on,34,0,0,,3,,,63,127
1982,note_off,30,0,0,,2,,,62,127
2016,note_on,34,0,0,,5,,,65,127
2046,note_off,30,0,0,,3,,,63,127
2207,note_off,161,0,0,,5,,,65,127
2207,note_off,0,0,0,,0,,,72,127
2208,note_on,1,0,0,,12,,,59,127
2208,note_on,0,0,0,,2,,,74,127
2399,note_off,191,0,0,,2,,,74,127
2399,note_off,0,0,0,,12,,,59,127
2400,note_on,1,0,0,,2,,,62,127
2400,note_on,0,0,0,,3,,,75,127
2464,note_on,64,0,0,,0,,,60,127
2494,note_off,30,0,0,,2,,,62,127
2528,note_on,34,0,0,,2,,,62,127
2558,note_off,30,0,0,,0,,,60,127
2592,note_on,34,0,0,,0,,,60,127
2622,note_off,30,0,0,,2,,,62,127
2656,note_on,34,0,0,,12,,,59,127
2686,note_off,30,0,0,,0,,,60,127
2720,note_on,34,0,0,,0,,,60,127
2750,note_off,30,0,0,,12,,,59,127
2784,note_on,34,0,0,,2,,,62,127
2814,note_off,30,0,0,,0,,,60,127
2975,note_off,161,0,0,,2,,,62,127
2975,note_off,0,0,0,,3,,,75,127
2976,note_on,1,0,0,,7,,,55,127
2976,note_on,0,0,0,,5,,,77,127
3167,note_off,191,0,0,,5,,,77,127
3167,note_off,0,0,0,,7,,,55,127
3168,note_on,1,0,0,,3,,,63,127
3168,note_on,0,0,0,,7,,,79,127
3359,note_off,191,0,0,,7,,,79,127
3359,note_off,0,0,0,,3,,,63,127
3360,note_on,1,0,0,,5,,,65,127
3360,note_on,0,0,0,,5,,,77,127
3455,note_off,95,0,0,,5,,,77,127
3456,note_on,1,0,0,,3,,,75,127
3551,note_off,95,0,0,,3,,,75,127
3551,note_off,0,0,0,,5,,,65,127
3552,note_on,1,0,0,,7,,,67,127
3552,note_on,0,0,0,,2,,,74,127
3743,note_off,191,0,0,,2,,,74,127
3743,note_off,0,0,0,,7,,,67,127
3744,note_on,1,0,0,,8,,,68,127
3744,note_on,0,0,0,,0,,,72,127
3935,note_off,191,0,0,,0,,,72,127
3935,note_off,0,0,0,,8,,,68,127
3936,note_on,1,0,0,,7,,,67,127
3936,note_on,0,0,0,,12,,,71,127
4080,note_off,144,0,0,,12,,,71,127
4127,note_off,47,0,0,,7,,,67,127
4128,note_on,1,0,0,,7,,,67,127
4128,note_on,0,0,0,,7,,,79,127
4319,note_off,191,0,0,,7,,,79,127
4319,note_off,0,0,0,,7,,,67,127
4320,note_on,1,0,0,,5,,,65,127
4320,note_on,0,0,0,,12,,,71,127
4511,note_off,191,0,0,,12,,,71,127
4511,note_off,0,0,0,,5,,,65,127
4512,note_on,1,0,0,,3,,,63,127
4512,note_on,0,0,0,,0,,,72,127
4703,note_off,191,0,0,,0,,,72,127
4703,note_off,0,0,0,,3,,,63,127
4704,note_on,1,0,0,,2,,,62,127
4704,note_on,0,0,0,,0,,,72,127
4895,note_off,191,0,0,,2,,,62,127
4896,note_on,1,0,0,,0,,,60,127
5087,note_off,191,0,0,,0,,,60,127
5087,note_off,0,0,0,,0,,,72,127
5088,note_on,1,0,0,,12,,,59,127
5088,note_on,0,0,0,,2,,,74,127
5279,note_off,191,0,0,,2,,,74,127
5279,note_off,0,0,0,,12,,,59,127
5280,note_on,1,0,0,,7,,,55,127
5280,note_on,0,0,0,,3,,,75,127
5375,note_off,95,0,0,,3,,,75,127
5376,note_on,1,0,0,,5,,,77,127
5471,note_off,95,0,0,,5,,,77,127
5471,note_off,0,0,0,,7,,,55,127
5472,note_on,1,0,0,,0,,,60,127
5472,note_on,0,0,0,,3,,,75,127
5663,note_off,191,0,0,,3,,,75,127
5663,note_off,0,0,0,,0,,,60,127
5664,note_on,1,0,0,,7,,,67,127
5664,note_on,0,0,0,,7,,,79,127
5855,note_off,191,0,0,,7,,,79,127
5855,note_off,0,0,0,,7,,,67,127
5856,note_on,1,0,0,,5,,,65,127
5856,note_on,0,0,0,,12,,,71,127
6047,note_off,191,0,0,,12,,,71,127
6047,note_off,0,0,0,,5,,,65,127
6048,note_on,1,0,0,,3,,,63,127
6048,note_on,0,0,0,,0,,,72,127
6239,note_off,191,0,0,,0,,,72,127
6239,note_off,0,0,0,,3,,,63,127
6240,note_on,1,0,0,,2,,,62,127
6240,note_on,0,0,0,,0,,,72,127
6431,note_off,191,0,0,,2,,,62,127
6432,note_on,1,0,0,,0,,,60,127
6623,note_off,191,0,0,,0,,,60,127
6623,note_off,0,0,0,,0,,,72,127
6624,note_on,1,0,0,,12,,,59,127
6624,note_on,0,0,0,,2,,,74,127
6815,note_off,191,0,0,,2,,,74,127
6815,note_off,0,0,0,,12,,,59,127
6816,note_on,1,0,0,,7,,,55,127
6816,note_on,0,0,0,,3,,,75,127
6911,note_off,95,0,0,,3,,,75,127
6912,note_on,1,0,0,,5,,,77,127
7007,note_off,95,0,0,,5,,,77,127
7007,note_off,0,0,0,,7,,,55,127
7008,note_on,1,0,0,,0,,,60,127
7008,note_on,0,0,0,,3,,,75,127
7199,note_off,191,0,0,,3,,,75,127
7200,note_on,1,0,0,,4,,,76,127
7263,note_off,63,0,0,,0,,,60,127
7264,note_on,1,0,0,,11,,,58,127
7391,note_off,127,0,0,,11,,,58,127
7391,note_off,0,0,0,,4,,,76,127
7392,note_on,1,0,0,,8,,,56,127
7392,note_on,0,0,0,,5,,,77,127
7583,note_off,191,0,0,,5,,,77,127
7584,note_on,1,0,0,,7,,,79,127
7647,note_off,63,0,0,,8,,,56,127
7648,note_on,1,0,0,,7,,,55,127
7775,note_off,127,0,0,,7,,,55,127
7775,note_off,0,0,0,,7,,,79,127
7776,note_on,1,0,0,,5,,,53,127
7776,note_on,0,0,0,,8,,,80,127
7967,note_off,191,0,0,,8,,,80,127
7968,note_on,1,0,0,,7,,,79,127
8031,note_off,63,0,0,,5,,,53,127
8032,note_on,1,0,0,,7,,,55,127
8159,note_off,127,0,0,,7,,,55,127
8159,note_off,0,0,0,,7,,,79,127
8160,note_on,1,0,0,,8,,,56,127
8160,note_on,0,0,0,,5,,,77,127
8351,note_off,191,0,0,,5,,,77,127
8352,note_on,1,0,0,,3,,,75,127
8415,note_off,63,0,0,,8,,,56,127
8416,note_on,1,0,0,,10,,,57,127
8543,note_off,127,0,0,,10,,,57,127
8543,note_off,0,0,0,,3,,,75,127
8544,note_on,1,0,0,,11,,,58,127
8544,note_on,0,0,0,,2,,,74,127
8735,note_off,191,0,0,,2,,,74,127
8736,note_on,1,0,0,,0,,,72,127
8799,note_off,63,0,0,,11,,,58,127
8800,note_on,1,0,0,,0,,,60,127
8927,note_off,127,0,0,,0,,,60,127
8927,note_off,0,0,0,,0,,,72,127
8928,note_on,1,0,0,,2,,,62,127
8928,note_on,0,0,0,,11,,,70,127
9119,note_off,191,0,0,,11,,,70,127
9120,note_on,1,0,0,,8,,,68,127
9183,note_off,63,0,0,,2,,,62,127
9184,note_on,1,0,0,,11,,,58,127
9311,note_off,127,0,0,,11,,,58,127
9311,note_off,0,0,0,,8,,,68,127
9312,note_on,1,0,0,,3,,,63,127
9312,note_on,0,0,0,,7,,,67,127
9503,note_off,191,0,0,,7,,,67,127
9504,note_on,1,0,0,,7,,,67,127
9567,note_off,63,0,0,,3,,,63,127
9568,note_on,1,0,0,,2,,,62,127
9695,note_off,127,0,0,,2,,,62,127
9695,note_off,0,0,0,,7,,,67,127
9696,note_on,1,0,0,,0,,,60,127
9696,note_on,0,0,0,,8,,,68,127
9887,note_off,191,0,0,,8,,,68,127
9888,note_on,1,0,0,,11,,,70,127
9951,note_off,63,0,0,,0,,,60,127
9952,note_on,1,0,0,,11,,,58,127
10079,note_off,127,0,0,,11,,,58,127
10079,note_off,0,0,0,,11,,,70,127
10080,note_on,1,0,0,,8,,,56,127
10080,note_on,0,0,0,,0,,,72,127
10271,note_off,191,0,0,,0,,,72,127
10272,note_on,1,0,0,,0,,,72,127
10335,note_off,63,0,0,,8,,,56,127
10336,note_on,1,0,0,,7,,,55,127
10463,note_off,127,0,0,,7,,,55,127
10463,note_off,0,0,0,,0,,,72,127
10464,note_on,1,0,0,,5,,,53,127
10464,note_on,0,0,0,,2,,,74,127
10655,note_off,191,0,0,,2,,,74,127
10656,note_on,1,0,0,,3,,,75,127
10719,note_off,63,0,0,,5,,,53,127
10720,note_on,1,0,0,,3,,,51,127
10847,note_off,127,0,0,,3,,,51,127
10847,note_off,0,0,0,,3,,,75,127
10848,note_on,1,0,0,,11,,,58,127
10848,note_on,0,0,0,,2,,,74,127
11039,note_off,191,0,0,,2,,,74,127
11040,note_on,1,0,0,,2,,,74,127
11103,note_off,63,0,0,,11,,,58,127
11104,note_on,1,0,0,,8,,,56,127
11231,note_off,127,0,0,,8,,,56,127
11231,note_off,0,0,0,,2,,,74,127
11232,note_on,1,0,0,,7,,,55,127
11232,note_on,0,0,0,,3,,,75,127
11423,note_off,191,0,0,,3,,,75,127
11424,note_on,1,0,0,,5,,,77,127
11487,note_off,63,0,0,,7,,,55,127
11488,note_on,1,0,0,,5,,,53,127
11615,note_off,127,0,0,,5,,,53,127
11615,note_off,0,0,0,,5,,,77,127
11616,note_on,1,0,0,,3,,,51,127
11616,note_on,0,0,0,,7,,,79,127
11807,note_off,191,0,0,,7,,,79,127
11808,note_on,1,0,0,,5,,,77,127
11871,note_off,63,0,0,,3,,,51,127
11872,note_on,1,0,0,,2,,,50,127
11999,note_off,127,0,0,,2,,,50,127
11999,note_off,0,0,0,,5,,,77,127
12000,note_on,1,0,0,,0,,,48,127
12000,note_on,0,0,0,,7,,,79,127
12191,note_off,191,0,0,,7,,,79,127
12192,note_on,1,0,0,,10,,,81,127
12383,note_off,191,0,0,,10,,,81,127
12383,note_off,0,0,0,,0,,,48,127
12384,note_on,1,0,0,,11,,,46,127
12384,note_on,0,0,0,,10,,,81,127
12767,note_off,383,0,0,,10,,,81,127
12768,note_on,1,0,0,,11,,,82,127
12912,note_off,144,0,0,,11,,,82,127
12959,note_off,47,0,0,,11,,,46,127
12960,note_on,1,0,0,,11,,,82,127
13151,note_off,191,0,0,,11,,,82,127
13152,note_on,1,0,0,,11,,,82,127
13343,note_off,191,0,0,,11,,,82,127
13344,note_on,1,0,0,,8,,,80,127
13535,note_off,191,0,0,,8,,,80,127
13536,note_on,1,0,0,,7,,,79,127
13727,note_off,191,0,0,,7,,,79,127
13728,note_on,1,0,0,,11,,,70,127
13728,note_on,0,0,0,,5,,,77,127
13919,note_off,191,0,0,,5,,,77,127
13919,note_off,0,0,0,,11,,,70,127
13920,note_on,1,0,0,,11,,,70,127
13920,note_on,0,0,0,,4,,,76,127
14111,note_off,191,0,0,,4,,,76,127
14111,note_off,0,0,0,,11,,,70,127
14112,note_on,1,0,0,,8,,,68,127
14112,note_on,0,0,0,,1,,,73,127
14303,note_off,191,0,0,,8,,,68,127
14304,note_on,1,0,0,,7,,,67,127
14495,note_off,191,0,0,,7,,,67,127
14495,note_off,0,0,0,,1,,,73,127
14496,note_on,1,0,0,,5,,,65,127
14496,note_on,0,0,0,,0,,,72,127
14687,note_off,191,0,0,,5,,,65,127
14688,note_on,1,0,0,,4,,,64,127
14879,note_off,191,0,0,,4,,,64,127
14879,note_off,0,0,0,,0,,,72,127
14880,note_on,1,0,0,,2,,,62,127
14880,note_on,0,0,0,,11,,,70,127
15071,note_off,191,0,0,,2,,,62,127
15072,note_on,1,0,0,,0,,,60,127
15263,note_off,191,0,0,,0,,,60,127
15263,note_off,0,0,0,,11,,,70,127
15264,note_on,1,0,0,,4,,,64,127
15264,note_on,0,0,0,,8,,,68,127
15359,note_off,95,0,0,,8,,,68,127
15360,note_on,1,0,0,,7,,,67,127
15455,note_off,95,0,0,,7,,,67,127
15455,note_off,0,0,0,,4,,,64,127
15456,note_on,1,0,0,,5,,,65,127
15456,note_on,0,0,0,,11,,,70,127
15520,note_on,64,0,0,,8,,,68,127
15550,note_off,30,0,0,,11,,,70,127
15584,note_on,34,0,0,,11,,,70,127
15614,note_off,30,0,0,,8,,,68,127
15648,note_on,34,0,0,,0,,,60,127
15648,note_on,0,0,0,,8,,,68,127
15678,note_off,30,0,0,,11,,,70,127
15743,note_off,65,0,0,,8,,,68,127
15744,note_off,1,0,0,,5,,,65,127
15744,note_on,0,0,0,,7,,,67,127
15839,note_off,95,0,0,,7,,,67,127
15839,note_off,0,0,0,,0,,,60,127
15840,note_on,1,0,0,,5,,,53,127
15840,note_on,0,0,0,,5,,,65,127
16031,note_off,191,0,0,,5,,,65,127
16032,note_on,1,0,0,,0,,,84,127
16220,note_off,188,0,0,,5,,,53,127
16223,note_off,3,0,0,,0,,,84,127
16224,note_on,1,0,0,,0,,,84,127
16415,note_off,191,0,0,,0,,,84,127
16416,note_on,1,0,0,,11,,,82,127
16607,note_off,191,0,0,,11,,,82,127
16608,note_on,1,0,0,,10,,,81,127
16799,note_off,191,0,0,,10,,,81,127
16800,note_on,1,0,0,,0,,,72,127
16800,note_on,0,0,0,,7,,,79,127
16991,note_off,191,0,0,,7,,,79,127
16991,note_off,0,0,0,,0,,,72,127
16992,note_on,1,0,0,,0,,,72,127
16992,note_on,0,0,0,,6,,,78,127
17183,note_off,191,0,0,,6,,,78,127
17183,note_off,0,0,0,,0,,,72,127
17184,note_on,1,0,0,,11,,,70,127
17184,note_on,0,0,0,,3,,,75,127
17375,note_off,191,0,0,,11,,,70,127
17376,note_on,1,0,0,,10,,,69,127
17567,note_off,191,0,0,,10,,,69,127
17567,note_off,0,0,0,,3,,,75,127
17568,note_on,1,0,0,,7,,,67,127
17568,note_on,0,0,0,,2,,,74,127
17759,note_off,191,0,0,,7,,,67,127
17760,note_on,1,0,0,,6,,,66,127
17951,note_off,191,0,0,,6,,,66,127
17951,note_off,0,0,0,,2,,,74,127
17952,note_on,1,0,0,,4,,,64,127
17952,note_on,0,0,0,,0,,,72,127
18143,note_off,191,0,0,,4,,,64,127
18144,note_on,1,0,0,,2,,,62,127
18335,note_off,191,0,0,,2,,,62,127
18335,note_off,0,0,0,,0,,,72,127
18336,note_on,1,0,0,,6,,,66,127
18336,note_on,0,0,0,,11,,,70,127
18431,note_off,95,0,0,,11,,,70,127
18432,note_on,1,0,0,,10,,,69,127
18527,note_off,95,0,0,,10,,,69,127
18527,note_off,0,0,0,,6,,,66,127
18528,note_on,1,0,0,,7,,,67,127
18528,note_on,0,0,0,,11,,,70,127
18700,note_off,172,0,0,,11,,,70,127
18719,note_off,19,0,0,,7,,,67,127
18720,note_on,1,0,0,,2,,,62,127
18720,note_on,0,0,0,,2,,,74,127
18911,note_off,191,0,0,,2,,,74,127
18911,note_off,0,0,0,,2,,,62,127
18912,note_on,1,0,0,,0,,,60,127
18912,note_on,0,0,0,,6,,,66,127
19103,note_off,191,0,0,,6,,,66,127
19103,note_off,0,0,0,,0,,,60,127
19104,note_on,1,0,0,,11,,,58,127
19104,note_on,0,0,0,,7,,,67,127
19295,note_off,191,0,0,,7,,,67,127
19295,note_off,0,0,0,,11,,,58,127
19296,note_on,1,0,0,,10,,,57,127
19296,note_on,0,0,0,,10,,,69,127
19487,note_off,191,0,0,,10,,,57,127
19488,note_on,1,0,0,,7,,,55,127
19679,note_off,191,0,0,,7,,,55,127
19680,note_on,1,0,0,,6,,,54,127
19871,note_off,191,0,0,,6,,,54,127
19871,note_off,0,0,0,,10,,,69,127
19872,note_on,1,0,0,,2,,,50,127
19872,note_on,0,0,0,,11,,,70,127
19967,note_off,95,0,0,,11,,,70,127
19968,note_on,1,0,0,,0,,,72,127
20063,note_off,95,0,0,,0,,,72,127
20063,note_off,0,0,0,,2,,,50,127
20064,note_on,1,0,0,,7,,,55,127
20064,note_on,0,0,0,,11,,,70,127
20255,note_off,191,0,0,,11,,,70,127
20255,note_off,0,0,0,,7,,,55,127
20256,note_on,1,0,0,,2,,,62,127
20256,note_on,0,0,0,,2,,,74,127
20447,note_off,191,0,0,,2,,,74,127
20447,note_off,0,0,0,,2,,,62,127
20448,note_on,1,0,0,,0,,,60,127
20448,note_on,0,0,0,,6,,,66,127
20639,note_off,191,0,0,,6,,,66,127
20639,note_off,0,0,0,,0,,,60,127
20640,note_on,1,0,0,,11,,,58,127
20640,note_on,0,0,0,,7,,,67,127
20831,note_off,191,0,0,,7,,,67,127
20831,note_off,0,0,0,,11,,,58,127
20832,note_on,1,0,0,,10,,,57,127
20832,note_on,0,0,0,,10,,,69,127
21023,note_off,191,0,0,,10,,,57,127
21024,note_on,1,0,0,,7,,,55,127
21215,note_off,191,0,0,,7,,,55,127
21216,note_on,1,0,0,,6,,,54,127
21407,note_off,191,0,0,,6,,,54,127
21407,note_off,0,0,0,,10,,,69,127
21408,note_on,1,0,0,,2,,,50,127
21408,note_on,0,0,0,,11,,,70,127
21503,note_off,95,0,0,,11,,,70,127
21504,note_on,1,0,0,,0,,,72,127
21599,note_off,95,0,0,,0,,,72,127
21599,note_off,0,0,0,,2,,,50,127
21600,note_on,1,0,0,,7,,,55,127
21600,note_on,0,0,0,,11,,,70,127
21791,note_off,191,0,0,,11,,,70,127
21792,note_on,1,0,0,,12,,,71,127
21855,note_off,63,0,0,,7,,,55,127
21856,note_on,1,0,0,,5,,,53,127
21983,note_off,127,0,0,,5,,,53,127
21983,note_off,0,0,0,,12,,,71,127
21984,note_on,1,0,0,,3,,,51,127
21984,note_on,0,0,0,,0,,,72,127
22175,note_off,191,0,0,,0,,,72,127
22176,note_on,1,0,0,,2,,,74,127
22239,note_off,63,0,0,,3,,,51,127
22240,note_on,1,0,0,,2,,,50,127
22367,note_off,127,0,0,,2,,,50,127
22367,note_off,0,0,0,,2,,,74,127
22368,note_on,1,0,0,,0,,,48,127
22368,note_on,0,0,0,,3,,,75,127
22559,note_off,191,0,0,,3,,,75,127
22560,note_on,1,0,0,,4,,,76,127
22623,note_off,63,0,0,,0,,,48,127
22624,note_on,1,0,0,,11,,,46,127
22751,note_off,127,0,0,,11,,,46,127
22751,note_off,0,0,0,,4,,,76,127
22752,note_on,1,0,0,,10,,,45,127
22752,note_on,0,0,0,,6,,,78,127
22943,note_off,191,0,0,,6,,,78,127
22944,note_on,1,0,0,,7,,,79,127
23007,note_off,63,0,0,,10,,,45,127
23008,note_on,1,0,0,,7,,,43,127
23135,note_off,127,0,0,,7,,,43,127
23135,note_off,0,0,0,,7,,,79,127
23136,note_on,1,0,0,,6,,,42,127
23136,note_on,0,0,0,,10,,,81,127
23327,note_off,191,0,0,,10,,,81,127
23328,note_on,1,0,0,,11,,,82,127
23391,note_off,63,0,0,,6,,,42,127
23392,note_on,1,0,0,,4,,,40,127
23519,note_off,127,0,0,,4,,,40,127
23519,note_off,0,0,0,,11,,,82,127
23520,note_on,1,0,0,,2,,,38,127
23520,note_on,0,0,0,,0,,,84,127
23692,note_off,172,0,0,,0,,,84,127
23712,note_on,20,0,0,,2,,,86,127
23900,note_off,188,0,0,,2,,,38,127
23903,note_off,3,0,0,,2,,,86,127
23904,note_on,1,0,0,,7,,,43,127
23904,note_on,0,0,0,,0,,,84,127
23999,note_off,95,0,0,,0,,,84,127
24000,note_on,1,0,0,,11,,,82,127
24095,note_off,95,0,0,,11,,,82,127
24095,note_off,0,0,0,,7,,,43,127
24096,note_on,1,0,0,,11,,,46,127
24096,note_on,0,0,0,,10,,,81,127
24191,note_off,95,0,0,,10,,,81,127
24192,note_on,1,0,0,,7,,,79,127
24287,note_off,95,0,0,,7,,,79,127
24287,note_off,0,0,0,,11,,,46,127
24288,note_on,1,0,0,,0,,,48,127
24288,note_on,0,0,0,,11,,,82,127
24383,note_off,95,0,0,,11,,,82,127
24384,note_on,1,0,0,,10,,,81,127
24479,note_off,95,0,0,,10,,,81,127
24479,note_off,0,0,0,,0,,,48,127
24480,note_on,1,0,0,,2,,,50,127
24480,note_on,0,0,0,,7,,,79,127
24575,note_off,95,0,0,,7,,,79,127
24576,note_on,1,0,0,,6,,,78,127
24671,note_off,95,0,0,,6,,,78,127
24671,note_off,0,0,0,,2,,,50,127
24672,note_on,1,0,0,,7,,,55,127
24672,note_on,0,0,0,,7,,,79,127
24863,note_off,191,0,0,,7,,,55,127
24864,note_on,1,0,0,,7,,,67,127
25055,note_off,191,0,0,,7,,,67,127
25056,note_on,1,0,0,,0,,,72,127
25151,note_off,95,0,0,,7,,,79,127
25152,note_on,1,0,0,,5,,,77,127
25247,note_off,95,0,0,,5,,,77,127
25248,note_on,1,0,0,,3,,,75,127
25343,note_off,95,0,0,,0,,,72,127
25344,note_on,1,0,0,,11,,,70,127
25439,note_off,95,0,0,,11,,,70,127
25440,note_on,1,0,0,,10,,,69,127
25535,note_off,95,0,0,,3,,,75,127
25536,note_on,1,0,0,,2,,,74,127
25631,note_off,95,0,0,,2,,,74,127
25632,note_on,1,0,0,,0,,,72,127
25727,note_off,95,0,0,,10,,,69,127
25728,note_on,1,0,0,,7,,,67,127
25823,note_off,95,0,0,,7,,,67,127
25824,note_on,1,0,0,,6,,,66,127
25919,note_off,95,0,0,,0,,,72,127
25920,note_on,1,0,0,,11,,,70,127
26015,note_off,95,0,0,,11,,,70,127
26016,note_on,1,0,0,,10,,,69,127
26111,note_off,95,0,0,,6,,,66,127
26112,note_on,1,0,0,,3,,,63,127
26207,note_off,95,0,0,,3,,,63,127
26208,note_on,1,0,0,,2,,,62,127
26303,note_off,95,0,0,,10,,,69,127
26304,note_on,1,0,0,,7,,,67,127
26399,note_off,95,0,0,,7,,,67,127
26400,note_on,1,0,0,,6,,,66,127
26495,note_off,95,0,0,,2,,,62,127
26496,note_on,1,0,0,,0,,,60,127
26591,note_off,95,0,0,,0,,,60,127
26592,note_on,1,0,0,,11,,,58,127
26687,note_off,95,0,0,,6,,,66,127
26688,note_on,1,0,0,,6,,,66,127
26783,note_off,95,0,0,,6,,,66,127
26784,note_on,1,0,0,,7,,,67,127
26879,note_off,95,0,0,,11,,,58,127
26880,note_on,1,0,0,,10,,,57,127
26975,note_off,95,0,0,,10,,,57,127
26976,note_on,1,0,0,,7,,,55,127
27071,note_off,95,0,0,,7,,,67,127
27072,note_on,1,0,0,,10,,,69,127
27167,note_off,95,0,0,,10,,,69,127
27168,note_on,1,0,0,,11,,,70,127
27263,note_off,95,0,0,,7,,,55,127
27264,note_on,1,0,0,,5,,,53,127
27359,note_off,95,0,0,,5,,,53,127
27360,note_on,1,0,0,,3,,,51,127
27455,note_off,95,0,0,,11,,,70,127
27456,note_on,1,0,0,,12,,,71,127
27551,note_off,95,0,0,,12,,,71,127
27552,note_on,1,0,0,,0,,,72,127
27647,note_off,95,0,0,,3,,,51,127
27648,note_on,1,0,0,,2,,,50,127
27743,note_off,95,0,0,,2,,,50,127
27744,note_on,1,0,0,,0,,,48,127
27839,note_off,95,0,0,,0,,,72,127
27840,note_on,1,0,0,,2,,,74,127
27935,note_off,95,0,0,,2,,,74,127
27936,note_on,1,0,0,,3,,,75,127
28031,note_off,95,0,0,,0,,,48,127
28032,note_on,1,0,0,,11,,,46,127
28127,note_off,95,0,0,,11,,,46,127
28128,note_on,1,0,0,,10,,,45,127
28223,note_off,95,0,0,,3,,,75,127
28224,note_on,1,0,0,,4,,,76,127
28319,note_off,95,0,0,,4,,,76,127
28320,note_on,1,0,0,,6,,,78,127
28415,note_off,95,0,0,,10,,,45,127
28416,note_on,1,0,0,,7,,,43,127
28511,note_off,95,0,0,,7,,,43,127
28512,note_on,1,0,0,,6,,,42,127
28607,note_off,95,0,0,,6,,,78,127
28608,note_on,1,0,0,,7,,,79,127
28703,note_off,95,0,0,,7,,,79,127
28704,note_on,1,0,0,,10,,,81,127
28799,note_off,95,0,0,,6,,,42,127
28800,note_on,1,0,0,,4,,,40,127
28895,note_off,95,0,0,,4,,,40,127
28896,note_on,1,0,0,,2,,,38,127
28991,note_off,95,0,0,,10,,,81,127
28992,note_on,1,0,0,,11,,,82,127
29087,note_off,95,0,0,,11,,,82,127
29088,note_on,1,0,0,,0,,,84,127
29183,note_off,95,0,0,,0,,,84,127
29184,note_on,1,0,0,,10,,,81,127
29276,note_off,92,0,0,,2,,,38,127
29279,note_off,3,0,0,,10,,,81,127
29280,note_on,1,0,0,,7,,,43,127
29280,note_on,0,0,0,,0,,,84,127
29375,note_off,95,0,0,,0,,,84,127
29376,note_on,1,0,0,,11,,,82,127
29471,note_off,95,0,0,,11,,,82,127
29471,note_off,0,0,0,,7,,,43,127
29472,note_on,1,0,0,,11,,,46,127
29472,note_on,0,0,0,,10,,,81,127
29567,note_off,95,0,0,,10,,,81,127
29568,note_on,1,0,0,,7,,,79,127
29663,note_off,95,0,0,,7,,,79,127
29663,note_off,0,0,0,,11,,,46,127
29664,note_on,1,0,0,,0,,,48,127
29664,note_on,0,0,0,,11,,,82,127
29759,note_off,95,0,0,,11,,,82,127
29760,note_on,1,0,0,,10,,,81,127
29855,note_off,95,0,0,,10,,,81,127
29855,note_off,0,0,0,,0,,,48,127
29856,note_on,1,0,0,,2,,,50,127
29856,note_on,0,0,0,,7,,,79,127
29951,note_off,95,0,0,,7,,,79,127
29952,note_on,1,0,0,,6,,,78,127
30047,note_off,95,0,0,,6,,,78,127
30047,note_off,0,0,0,,2,,,50,127
30048,note_on,1,0,0,,7,,,55,127
30048,note_on,0,0,0,,7,,,79,127
30239,note_off,191,0,0,,7,,,55,127
30240,note_on,1,0,0,,7,,,67,127
30431,note_off,191,0,0,,7,,,67,127
30432,note_on,1,0,0,,0,,,72,127
30527,note_off,95,0,0,,7,,,79,127
30528,note_on,1,0,0,,5,,,77,127
30623,note_off,95,0,0,,5,,,77,127
30624,note_on,1,0,0,,3,,,75,127
30719,note_off,95,0,0,,0,,,72,127
30720,note_on,1,0,0,,11,,,70,127
30815,note_off,95,0,0,,11,,,70,127
30816,note_on,1,0,0,,10,,,69,127
30883,note_off,67,0,0,,3,,,75,127
30912,note_on,29,0,0,,2,,,74,127
31007,note_off,95,0,0,,2,,,74,127
31008,note_on,1,0,0,,0,,,72,127
31103,note_off,95,0,0,,10,,,69,127
31104,note_on,1,0,0,,7,,,67,127
31199,note_off,95,0,0,,7,,,67,127
31200,note_on,1,0,0,,6,,,66,127
31267,note_off,67,0,0,,0,,,72,127
31296,note_on,29,0,0,,11,,,70,127
31391,note_off,95,0,0,,11,,,70,127
31392,note_on,1,0,0,,10,,,69,127
31487,note_off,95,0,0,,6,,,66,127
31488,note_on,1,0,0,,3,,,63,127
31583,note_off,95,0,0,,3,,,63,127
31584,note_on,1,0,0,,2,,,62,127
31651,note_off,67,0,0,,10,,,69,127
31680,note_on,29,0,0,,7,,,67,127
31775,note_off,95,0,0,,7,,,67,127
31776,note_on,1,0,0,,6,,,66,127
31871,note_off,95,0,0,,2,,,62,127
31872,note_on,1,0,0,,0,,,60,127
31967,note_off,95,0,0,,0,,,60,127
31968,note_on,1,0,0,,11,,,58,127
32035,note_off,67,0,0,,6,,,66,127
32064,note_on,29,0,0,,6,,,66,127
32159,note_off,95,0,0,,6,,,66,127
32160,note_on,1,0,0,,7,,,67,127
32255,note_off,95,0,0,,11,,,58,127
32256,note_on,1,0,0,,10,,,57,127
32351,note_off,95,0,0,,10,,,57,127
32352,note_on,1,0,0,,7,,,55,127
32419,note_off,67,0,0,,7,,,67,127
32448,note_on,29,0,0,,10,,,69,127
32543,note_off,95,0,0,,10,,,69,127
32544,note_on,1,0,0,,11,,,70,127
32639,note_off,95,0,0,,7,,,55,127
32640,note_on,1,0,0,,5,,,53,127
32735,note_off,95,0,0,,5,,,53,127
32736,note_on,1,0,0,,3,,,51,127
32803,note_off,67,0,0,,11,,,70,127
32832,note_on,29,0,0,,12,,,71,127
32927,note_off,95,0,0,,12,,,71,127
32928,note_on,1,0,0,,0,,,72,127
33023,note_off,95,0,0,,3,,,51,127
33024,note_on,1,0,0,,2,,,50,127
33119,note_off,95,0,0,,2,,,50,127
33120,note_on,1,0,0,,0,,,48,127
33187,note_off,67,0,0,,0,,,72,127
33216,note_on,29,0,0,,2,,,74,127
33311,note_off,95,0,0,,2,,,74,127
33312,note_on,1,0,0,,3,,,75,127
33407,note_off,95,0,0,,0,,,48,127
33408,note_on,1,0,0,,11,,,46,127
33503,note_off,95,0,0,,11,,,46,127
33504,note_on,1,0,0,,10,,,45,127
33571,note_off,67,0,0,,3,,,75,127
33600,note_on,29,0,0,,4,,,76,127
33695,note_off,95,0,0,,4,,,76,127
33696,note_on,1,0,0,,6,,,78,127
33791,note_off,95,0,0,,10,,,45,127
33792,note_on,1,0,0,,7,,,43,127
33887,note_off,95,0,0,,7,,,43,127
33888,note_on,1,0,0,,6,,,42,127
33955,note_off,67,0,0,,6,,,78,127
33984,note_on,29,0,0,,7,,,79,127
34079,note_off,95,0,0,,7,,,79,127
34080,note_on,1,0,0,,10,,,81,127
34175,note_off,95,0,0,,6,,,42,127
34176,note_on,1,0,0,,4,,,40,127
34271,note_off,95,0,0,,4,,,40,127
34272,note_on,1,0,0,,2,,,38,127
34339,note_off,67,0,0,,10,,,81,127
34368,note_on,29,0,0,,11,,,82,127
34463,note_off,95,0,0,,11,,,82,127
34464,note_on,1,0,0,,0,,,84,127
34559,note_off,95,0,0,,0,,,84,127
34560,note_on,1,0,0,,10,,,81,127
34655,note_off,95,0,0,,10,,,81,127
34655,note_off,0,0,0,,2,,,38,127
34656,note_on,1,0,0,,7,,,43,127
34656,note_on,0,0,0,,0,,,84,127
34751,note_off,95,0,0,,0,,,84,127
34752,note_on,1,0,0,,11,,,82,127
34847,note_off,95,0,0,,11,,,82,127
34847,note_off,0,0,0,,7,,,43,127
34848,note_on,1,0,0,,11,,,46,127
34848,note_on,0,0,0,,10,,,81,127
34943,note_off,95,0,0,,10,,,81,127
34944,note_on,1,0,0,,7,,,79,127
35039,note_off,95,0,0,,7,,,79,127
35039,note_off,0,0,0,,11,,,46,127
35040,note_on,1,0,0,,0,,,48,127
35040,note_on,0,0,0,,11,,,82,127
35135,note_off,95,0,0,,11,,,82,127
35136,note_on,1,0,0,,10,,,81,127
35231,note_off,95,0,0,,10,,,81,127
35231,note_off,0,0,0,,0,,,48,127
35232,note_on,1,0,0,,2,,,50,127
35232,note_on,0,0,0,,7,,,79,127
35327,note_off,95,0,0,,7,,,79,127
35328,note_on,1,0,0,,6,,,78,127
35398,note_off,70,0,0,,6,,,78,127
35422,note_off,24,0,0,,2,,,50,127
35424,note_on,2,0,0,,7,,,79,127
35519,note_off,95,0,0,,7,,,79,127
35520,note_on,1,0,0,,5,,,77,127
35615,note_off,95,0,0,,5,,,77,127
35616,note_on,1,0,0,,7,,,55,127
35616,note_on,0,0,0,,3,,,75,127
35807,note_off,191,0,0,,7,,,55,127
35808,note_on,1,0,0,,6,,,54,127
35999,note_off,191,0,0,,6,,,54,127
35999,note_off,0,0,0,,3,,,75,127
36000,note_on,1,0,0,,2,,,50,127
36000,note_on,0,0,0,,2,,,74,127
36095,note_off,95,0,0,,2,,,74,127
36096,note_on,1,0,0,,0,,,72,127
36190,note_off,94,0,0,,2,,,50,127
36191,note_off,1,0,0,,0,,,72,127
36192,note_on,1,0,0,,7,,,79,127
36287,note_off,95,0,0,,7,,,79,127
36288,note_on,1,0,0,,5,,,77,127
36383,note_off,95,0,0,,5,,,77,127
36384,note_on,1,0,0,,7,,,55,127
36384,note_on,0,0,0,,3,,,75,127
36575,note_off,191,0,0,,7,,,55,127
36576,note_on,1,0,0,,6,,,54,127
36767,note_off,191,0,0,,6,,,54,127
36767,note_off,0,0,0,,3,,,75,127
36768,note_on,1,0,0,,2,,,50,127
36768,note_on,0,0,0,,2,,,74,127
36863,note_off,95,0,0,,2,,,74,127
36864,note_on,1,0,0,,0,,,72,127
36959,note_off,95,0,0,,0,,,72,127
36959,note_off,0,0,0,,2,,,50,127
36960,note_on,1,0,0,,7,,,55,127
36960,note_on,0,0,0,,11,,,70,127
37151,note_off,191,0,0,,11,,,70,127
37151,note_off,0,0,0,,7,,,55,127
37152,note_on,1,0,0,,3,,,51,127
37152,note_on,0,0,0,,10,,,69,127
37247,note_off,95,0,0,,10,,,69,127
37248,note_on,1,0,0,,11,,,70,127
37343,note_off,95,0,0,,11,,,70,127
37343,note_off,0,0,0,,3,,,51,127
37344,note_on,1,0,0,,0,,,48,127
37344,note_on,0,0,0,,2,,,74,127
37439,note_off,95,0,0,,2,,,74,127
37440,note_on,1,0,0,,0,,,72,127
37535,note_off,95,0,0,,0,,,72,127
37535,note_off,0,0,0,,0,,,48,127
37536,note_on,1,0,0,,2,,,50,127
37536,note_on,0,0,0,,11,,,70,127
37631,note_off,95,0,0,,11,,,70,127
37632,note_on,1,0,0,,10,,,69,127
37727,note_off,95,0,0,,10,,,69,127
37727,note_off,0,0,0,,2,,,50,127
37728,note_on,1,0,0,,7,,,55,127
37728,note_on,0,0,0,,11,,,70,127
37919,note_off,191,0,0,,11,,,70,127
37919,note_off,0,0,0,,7,,,55,127
37920,note_on,1,0,0,,3,,,51,127
37920,note_on,0,0,0,,10,,,69,127
38015,note_off,95,0,0,,10,,,69,127
38016,note_on,1,0,0,,11,,,70,127
38111,note_off,95,0,0,,11,,,70,127
38111,note_off,0,0,0,,3,,,51,127
38112,note_on,1,0,0,,0,,,48,127
38112,note_on,0,0,0,,0,,,72,127
38303,note_off,191,0,0,,0,,,72,127
38303,note_off,0,0,0,,0,,,48,127
38304,note_on,1,0,0,,2,,,50,127
38304,note_on,0,0,0,,11,,,70,127
38399,note_off,95,0,0,,11,,,70,127
38400,note_on,1,0,0,,10,,,69,127
38495,note_off,95,0,0,,10,,,69,127
38495,note_off,0,0,0,,2,,,50,127
38496,note_on,1,0,0,,7,,,43,127
38496,note_on,0,0,0,,7,,,55,127
38496,note_on,0,0,0,,7,,,67,127
39176,note_off,680,0,0,,7,,,43,127
39263,note_off,87,0,0,,7,,,67,127
39263,note_off,0,0,0,,7,,,55,127
39264,note_on,1,0,0,,3,,,75,127
39328,note_on,64,0,0,,2,,,74,127
39358,note_off,30,0,0,,3,,,75,127
39392,note_on,34,0,0,,3,,,75,127
39422,note_off,30,0,0,,2,,,74,127
39456,note_on,34,0,0,,2,,,74,127
39486,note_off,30,0,0,,3,,,75,127
39520,note_on,34,0,0,,0,,,72,127
39550,note_off,30,0,0,,2,,,74,127
39584,note_on,34,0,0,,2,,,74,127
39614,note_off,30,0,0,,0,,,72,127
39648,note_on,34,0,0,,3,,,75,127
39678,note_off,30,0,0,,2,,,74,127
39839,note_off,161,0,0,,3,,,75,127
39840,note_on,1,0,0,,5,,,77,127
40031,note_off,191,0,0,,5,,,77,127
40032,note_on,1,0,0,,8,,,80,127
40096,note_on,64,0,0,,7,,,79,127
40126,note_off,30,0,0,,8,,,80,127
40160,note_on,34,0,0,,8,,,80,127
40190,note_off,30,0,0,,7,,,79,127
40224,note_on,34,0,0,,7,,,79,127
40254,note_off,30,0,0,,8,,,80,127
40288,note_on,34,0,0,,5,,,77,127
40318,note_off,30,0,0,,7,,,79,127
40352,note_on,34,0,0,,7,,,79,127
40382,note_off,30,0,0,,5,,,77,127
40416,note_on,34,0,0,,8,,,80,127
40446,note_off,30,0,0,,7,,,79,127
40607,note_off,161,0,0,,8,,,80,127
40608,note_on,1,0,0,,0,,,72,127
40799,note_off,191,0,0,,0,,,72,127
40800,note_on,1,0,0,,3,,,63,127
40800,note_on,0,0,0,,12,,,71,127
40864,note_on,64,0,0,,2,,,62,127
40894,note_off,30,0,0,,3,,,63,127
40928,note_on,34,0,0,,3,,,63,127
40958,note_off,30,0,0,,2,,,62,127
40992,note_on,34,0,0,,2,,,62,127
41022,note_off,30,0,0,,3,,,63,127
41056,note_on,34,0,0,,0,,,60,127
41086,note_off,30,0,0,,2,,,62,127
41120,note_on,34,0,0,,2,,,62,127
41150,note_off,30,0,0,,0,,,60,127
41183,note_off,33,0,0,,12,,,71,127
41184,note_on,1,0,0,,3,,,63,127
41184,note_on,0,0,0,,0,,,72,127
41214,note_off,30,0,0,,2,,,62,127
41375,note_off,161,0,0,,0,,,72,127
41375,note_off,0,0,0,,3,,,63,127
41376,note_on,1,0,0,,5,,,65,127
41376,note_on,0,0,0,,2,,,74,127
41567,note_off,191,0,0,,2,,,74,127
41567,note_off,0,0,0,,5,,,65,127
41568,note_on,1,0,0,,8,,,68,127
41568,note_on,0,0,0,,12,,,71,127
41632,note_on,64,0,0,,7,,,67,127
41662,note_off,30,0,0,,8,,,68,127
41696,note_on,34,0,0,,8,,,68,127
41726,note_off,30,0,0,,7,,,67,127
41760,note_on,34,0,0,,7,,,67,127
41790,note_off,30,0,0,,8,,,68,127
41824,note_on,34,0,0,,5,,,65,127
41854,note_off,30,0,0,,7,,,67,127
41888,note_on,34,0,0,,7,,,67,127
41918,note_off,30,0,0,,5,,,65,127
41952,note_on,34,0,0,,8,,,68,127
41982,note_off,30,0,0,,7,,,67,127
42143,note_off,161,0,0,,8,,,68,127
42143,note_off,0,0,0,,12,,,71,127
42144,note_on,1,0,0,,0,,,60,127
42144,note_on,0,0,0,,0,,,72,127
42335,note_off,191,0,0,,0,,,72,127
42335,note_off,0,0,0,,0,,,60,127
42336,note_on,1,0,0,,12,,,59,127
42336,note_on,0,0,0,,2,,,74,127
42527,note_off,191,0,0,,12,,,59,127
42528,note_on,1,0,0,,10,,,57,127
42719,note_off,191,0,0,,10,,,57,127
42720,note_on,1,0,0,,7,,,55,127
42911,note_off,191,0,0,,7,,,55,127
42911,note_off,0,0,0,,2,,,74,127
42912,note_on,1,0,0,,12,,,59,127
42912,note_on,0,0,0,,3,,,75,127
43007,note_off,95,0,0,,3,,,75,127
43008,note_on,1,0,0,,5,,,77,127
43103,note_off,95,0,0,,5,,,77,127
43103,note_off,0,0,0,,12,,,59,127
43104,note_on,1,0,0,,0,,,60,127
43104,note_on,0,0,0,,3,,,75,127
43295,note_off,191,0,0,,3,,,75,127
43296,note_on,1,0,0,,1,,,73,127
43487,note_off,191,0,0,,1,,,73,127
43488,note_on,1,0,0,,0,,,72,127
43584,note_off,96,0,0,,0,,,60,127
43679,note_off,95,0,0,,0,,,72,127
43680,note_on,1,0,0,,1,,,61,127
43680,note_on,0,0,0,,11,,,70,127
43775,note_off,95,0,0,,1,,,61,127
43776,note_on,1,0,0,,3,,,63,127
43871,note_off,95,0,0,,3,,,63,127
43871,note_off,0,0,0,,11,,,70,127
43872,note_on,1,0,0,,5,,,65,127
43872,note_on,0,0,0,,11,,,70,127
44063,note_off,191,0,0,,5,,,65,127
44064,note_on,1,0,0,,3,,,63,127
44255,note_off,191,0,0,,3,,,63,127
44255,note_off,0,0,0,,11,,,70,127
44256,note_on,1,0,0,,1,,,61,127
44256,note_on,0,0,0,,8,,,68,127
44447,note_off,191,0,0,,8,,,68,127
44447,note_off,0,0,0,,1,,,61,127
44448,note_on,1,0,0,,0,,,60,127
44448,note_on,0,0,0,,11,,,70,127
44543,note_off,95,0,0,,11,,,70,127
44544,note_on,1,0,0,,0,,,72,127
44639,note_off,95,0,0,,0,,,72,127
44639,note_off,0,0,0,,0,,,60,127
44640,note_on,1,0,0,,11,,,58,127
44640,note_on,0,0,0,,1,,,73,127
44831,note_off,191,0,0,,1,,,73,127
44832,note_on,1,0,0,,0,,,72,127
45023,note_off,191,0,0,,0,,,72,127
45024,note_on,1,0,0,,11,,,70,127
45120,note_off,96,0,0,,11,,,58,127
45215,note_off,95,0,0,,11,,,70,127
45216,note_on,1,0,0,,0,,,60,127
45216,note_on,0,0,0,,8,,,68,127
45311,note_off,95,0,0,,0,,,60,127
45312,note_on,1,0,0,,1,,,61,127
45407,note_off,95,0,0,,1,,,61,127
45407,note_off,0,0,0,,8,,,68,127
45408,note_on,1,0,0,,3,,,63,127
45408,note_on,0,0,0,,8,,,68,127
45599,note_off,191,0,0,,3,,,63,127
45600,note_on,1,0,0,,1,,,61,127
45791,note_off,191,0,0,,1,,,61,127
45791,note_off,0,0,0,,8,,,68,127
45792,note_on,1,0,0,,0,,,60,127
45792,note_on,0,0,0,,7,,,67,127
45983,note_off,191,0,0,,7,,,67,127
45983,note_off,0,0,0,,0,,,60,127
45984,note_on,1,0,0,,11,,,58,127
45984,note_on,0,0,0,,8,,,68,127
46079,note_off,95,0,0,,8,,,68,127
46080,note_on,1,0,0,,11,,,70,127
46175,note_off,95,0,0,,11,,,70,127
46175,note_off,0,0,0,,11,,,58,127
46176,note_on,1,0,0,,8,,,56,127
46176,note_on,0,0,0,,0,,,72,127
46367,note_off,191,0,0,,0,,,72,127
46368,note_on,1,0,0,,0,,,72,127
46431,note_off,63,0,0,,8,,,56,127
46432,note_on,1,0,0,,7,,,55,127
46559,note_off,127,0,0,,7,,,55,127
46559,note_off,0,0,0,,0,,,72,127
46560,note_on,1,0,0,,5,,,53,127
46560,note_on,0,0,0,,1,,,73,127
46751,note_off,191,0,0,,1,,,73,127
46752,note_on,1,0,0,,3,,,75,127
46815,note_off,63,0,0,,5,,,53,127
46816,note_on,1,0,0,,3,,,51,127
46943,note_off,127,0,0,,3,,,51,127
46943,note_off,0,0,0,,3,,,75,127
46944,note_on,1,0,0,,1,,,49,127
46944,note_on,0,0,0,,5,,,77,127
47135,note_off,191,0,0,,5,,,77,127
47136,note_on,1,0,0,,5,,,77,127
47199,note_off,63,0,0,,1,,,49,127
47200,note_on,1,0,0,,0,,,48,127
47327,note_off,127,0,0,,0,,,48,127
47327,note_off,0,0,0,,5,,,77,127
47328,note_on,1,0,0,,11,,,46,127
47328,note_on,0,0,0,,7,,,79,127
47519,note_off,191,0,0,,7,,,79,127
47520,note_on,1,0,0,,8,,,80,127
47583,note_off,63,0,0,,11,,,46,127
47584,note_on,1,0,0,,8,,,44,127
47711,note_off,127,0,0,,8,,,44,127
47711,note_off,0,0,0,,8,,,80,127
47712,note_on,1,0,0,,3,,,39,127
47712,note_on,0,0,0,,11,,,82,127
47882,note_off,170,0,0,,11,,,82,127
47904,note_on,22,0,0,,3,,,75,127
48092,note_off,188,0,0,,3,,,39,127
48095,note_off,3,0,0,,3,,,75,127
48096,note_on,1,0,0,,3,,,75,127
48160,note_on,64,0,0,,1,,,73,127
48190,note_off,30,0,0,,3,,,75,127
48224,note_on,34,0,0,,3,,,75,127
48254,note_off,30,0,0,,1,,,73,127
48288,note_on,34,0,0,,7,,,67,127
48288,note_on,0,0,0,,1,,,73,127
48318,note_off,30,0,0,,3,,,75,127
48352,note_on,34,0,0,,0,,,72,127
48382,note_off,30,0,0,,1,,,73,127
48416,note_on,34,0,0,,1,,,73,127
48446,note_off,30,0,0,,0,,,72,127
48479,note_off,33,0,0,,7,,,67,127
48480,note_on,1,0,0,,8,,,68,127
48480,note_on,0,0,0,,0,,,72,127
48510,note_off,30,0,0,,1,,,73,127
48671,note_off,161,0,0,,0,,,72,127
48672,note_on,1,0,0,,3,,,75,127
48863,note_off,191,0,0,,3,,,75,127
48864,note_on,1,0,0,,3,,,75,127
48900,note_off,36,0,0,,8,,,68,127
48928,note_on,28,0,0,,1,,,73,127
48958,note_off,30,0,0,,3,,,75,127
48992,note_on,34,0,0,,3,,,75,127
49022,note_off,30,0,0,,1,,,73,127
49056,note_on,34,0,0,,7,,,67,127
49056,note_on,0,0,0,,11,,,70,127
49056,note_on,0,0,0,,1,,,73,127
49086,note_off,30,0,0,,3,,,75,127
49120,note_on,34,0,0,,0,,,72,127
49150,note_off,30,0,0,,1,,,73,127
49184,note_on,34,0,0,,1,,,73,127
49214,note_off,30,0,0,,0,,,72,127
49247,note_off,33,0,0,,11,,,70,127
49247,note_off,0,0,0,,7,,,67,127
49248,note_on,1,0,0,,8,,,68,127
49248,note_on,0,0,0,,0,,,72,127
49278,note_off,30,0,0,,1,,,73,127
49439,note_off,161,0,0,,0,,,72,127
49440,note_on,1,0,0,,8,,,80,127
49631,note_off,191,0,0,,8,,,80,127
49632,note_on,1,0,0,,11,,,70,127
49668,note_off,36,0,0,,8,,,68,127
49824,note_on,156,0,0,,7,,,67,127
49888,note_on,64,0,0,,0,,,72,127
49952,note_on,64,0,0,,1,,,73,127
49982,note_off,30,0,0,,0,,,72,127
50015,note_off,33,0,0,,7,,,67,127
50015,note_off,0,0,0,,11,,,70,127
50016,note_on,1,0,0,,8,,,68,127
50016,note_on,0,0,0,,0,,,72,127
50046,note_off,30,0,0,,1,,,73,127
50207,note_off,161,0,0,,0,,,72,127
50208,note_on,1,0,0,,8,,,80,127
50399,note_off,191,0,0,,8,,,80,127
50400,note_on,1,0,0,,11,,,70,127
50436,note_off,36,0,0,,8,,,68,127
50592,note_on,156,0,0,,7,,,67,127
50656,note_on,64,0,0,,0,,,72,127
50720,note_on,64,0,0,,1,,,73,127
50750,note_off,30,0,0,,0,,,72,127
50783,note_off,33,0,0,,7,,,67,127
50783,note_off,0,0,0,,11,,,70,127
50784,note_on,1,0,0,,8,,,68,127
50784,note_on,0,0,0,,0,,,72,127
50814,note_off,30,0,0,,1,,,73,127
50975,note_off,161,0,0,,0,,,72,127
50976,note_on,1,0,0,,0,,,72,127
51039,note_off,63,0,0,,8,,,68,127
51040,note_on,1,0,0,,7,,,67,127
51167,note_off,127,0,0,,7,,,67,127
51167,note_off,0,0,0,,0,,,72,127
51168,note_on,1,0,0,,5,,,65,127
51168,note_on,0,0,0,,1,,,73,127
51359,note_off,191,0,0,,1,,,73,127
51360,note_on,1,0,0,,3,,,75,127
51423,note_off,63,0,0,,5,,,65,127
51424,note_on,1,0,0,,3,,,63,127
51551,note_off,127,0,0,,3,,,63,127
51551,note_off,0,0,0,,3,,,75,127
51552,note_on,1,0,0,,1,,,61,127
51552,note_on,0,0,0,,5,,,77,127
51743,note_off,191,0,0,,5,,,77,127
51744,note_on,1,0,0,,3,,,75,127
51807,note_off,63,0,0,,1,,,61,127
51808,note_on,1,0,0,,0,,,60,127
51935,note_off,127,0,0,,0,,,60,127
51935,note_off,0,0,0,,3,,,75,127
51936,note_on,1,0,0,,11,,,58,127
51936,note_on,0,0,0,,1,,,73,127
52127,note_off,191,0,0,,1,,,73,127
52128,note_on,1,0,0,,0,,,72,127
52191,note_off,63,0,0,,11,,,58,127
52192,note_on,1,0,0,,8,,,56,127
52319,note_off,127,0,0,,8,,,56,127
52319,note_off,0,0,0,,0,,,72,127
52320,note_on,1,0,0,,3,,,51,127
52320,note_on,0,0,0,,0,,,72,127
52703,note_off,383,0,0,,0,,,72,127
52704,note_on,1,0,0,,11,,,70,127
52848,note_off,144,0,0,,11,,,70,127
52895,note_off,47,0,0,,3,,,51,127
52896,note_on,1,0,0,,3,,,75,127
53087,note_off,191,0,0,,3,,,75,127
53088,note_on,1,0,0,,3,,,75,127
53279,note_off,191,0,0,,3,,,75,127
53280,note_on,1,0,0,,1,,,73,127
53471,note_off,191,0,0,,1,,,73,127
53472,note_on,1,0,0,,0,,,72,127
53663,note_off,191,0,0,,0,,,72,127
53664,note_on,1,0,0,,3,,,63,127
53664,note_on,0,0,0,,11,,,70,127
53855,note_off,191,0,0,,11,,,70,127
53855,note_off,0,0,0,,3,,,63,127
53856,note_on,1,0,0,,3,,,63,127
53856,note_on,0,0,0,,10,,,69,127
54047,note_off,191,0,0,,10,,,69,127
54047,note_off,0,0,0,,3,,,63,127
54048,note_on,1,0,0,,1,,,61,127
54048,note_on,0,0,0,,6,,,66,127
54239,note_off,191,0,0,,1,,,61,127
54240,note_on,1,0,0,,0,,,60,127
54431,note_off,191,0,0,,0,,,60,127
54431,note_off,0,0,0,,6,,,66,127
54432,note_on,1,0,0,,11,,,58,127
54432,note_on,0,0,0,,5,,,65,127
54623,note_off,191,0,0,,11,,,58,127
54624,note_on,1,0,0,,10,,,57,127
54815,note_off,191,0,0,,10,,,57,127
54815,note_off,0,0,0,,5,,,65,127
54816,note_on,1,0,0,,7,,,55,127
54816,note_on,0,0,0,,3,,,75,127
55007,note_off,191,0,0,,7,,,55,127
55008,note_on,1,0,0,,5,,,53,127
55199,note_off,191,0,0,,5,,,53,127
55199,note_off,0,0,0,,3,,,75,127
55200,note_on,1,0,0,,10,,,57,127
55200,note_on,0,0,0,,1,,,73,127
55295,note_off,95,0,0,,1,,,73,127
55296,note_on,1,0,0,,0,,,72,127
55391,note_off,95,0,0,,0,,,72,127
55391,note_off,0,0,0,,10,,,57,127
55392,note_on,1,0,0,,11,,,58,127
55392,note_on,0,0,0,,3,,,75,127
55456,note_on,64,0,0,,1,,,73,127
55486,note_off,30,0,0,,3,,,75,127
55520,note_on,34,0,0,,3,,,75,127
55550,note_off,30,0,0,,1,,,73,127
55584,note_on,34,0,0,,5,,,53,127
55584,note_on,0,0,0,,1,,,73,127
55614,note_off,30,0,0,,3,,,75,127
55679,note_off,65,0,0,,1,,,73,127
55680,note_on,1,0,0,,0,,,72,127
55775,note_off,95,0,0,,0,,,72,127
55775,note_off,0,0,0,,5,,,53,127
55776,note_on,1,0,0,,11,,,46,127
55776,note_on,0,0,0,,11,,,70,127
55967,note_off,191,0,0,,11,,,70,127
55967,note_off,0,0,0,,11,,,58,127
55968,note_on,1,0,0,,5,,,77,127
56156,note_off,188,0,0,,11,,,46,127
56159,note_off,3,0,0,,5,,,77,127
56160,note_on,1,0,0,,5,,,77,127
56351,note_off,191,0,0,,5,,,77,127
56352,note_on,1,0,0,,3,,,75,127
56543,note_off,191,0,0,,3,,,75,127
56544,note_on,1,0,0,,2,,,74,127
56735,note_off,191,0,0,,2,,,74,127
56736,note_on,1,0,0,,5,,,65,127
56736,note_on,0,0,0,,0,,,72,127
56927,note_off,191,0,0,,0,,,72,127
56927,note_off,0,0,0,,5,,,65,127
56928,note_on,1,0,0,,5,,,65,127
56928,note_on,0,0,0,,12,,,71,127
57119,note_off,191,0,0,,12,,,71,127
57119,note_off,0,0,0,,5,,,65,127
57120,note_on,1,0,0,,3,,,63,127
57120,note_on,0,0,0,,8,,,68,127
57311,note_off,191,0,0,,3,,,63,127
57312,note_on,1,0,0,,2,,,62,127
57503,note_off,191,0,0,,2,,,62,127
57503,note_off,0,0,0,,8,,,68,127
57504,note_on,1,0,0,,0,,,60,127
57504,note_on,0,0,0,,7,,,67,127
57695,note_off,191,0,0,,0,,,60,127
57696,note_on,1,0,0,,12,,,59,127
57887,note_off,191,0,0,,12,,,59,127
57887,note_off,0,0,0,,7,,,67,127
57888,note_on,1,0,0,,10,,,57,127
57888,note_on,0,0,0,,5,,,77,127
58079,note_off,191,0,0,,10,,,57,127
58080,note_on,1,0,0,,7,,,55,127
58271,note_off,191,0,0,,7,,,55,127
58271,note_off,0,0,0,,5,,,77,127
58272,note_on,1,0,0,,12,,,59,127
58272,note_on,0,0,0,,3,,,75,127
58367,note_off,95,0,0,,3,,,75,127
58368,note_on,1,0,0,,2,,,74,127
58463,note_off,95,0,0,,2,,,74,127
58463,note_off,0,0,0,,12,,,59,127
58464,note_on,1,0,0,,0,,,60,127
58464,note_on,0,0,0,,3,,,75,127
58634,note_off,170,0,0,,3,,,75,127
58655,note_off,21,0,0,,0,,,60,127
58656,note_on,1,0,0,,7,,,67,127
58656,note_on,0,0,0,,7,,,79,127
58847,note_off,191,0,0,,7,,,79,127
58847,note_off,0,0,0,,7,,,67,127
58848,note_on,1,0,0,,5,,,65,127
58848,note_on,0,0,0,,12,,,71,127
59039,note_off,191,0,0,,12,,,71,127
59039,note_off,0,0,0,,5,,,65,127
59040,note_on,1,0,0,,3,,,63,127
59040,note_on,0,0,0,,0,,,72,127
59231,note_off,191,0,0,,0,,,72,127
59231,note_off,0,0,0,,3,,,63,127
59232,note_on,1,0,0,,2,,,62,127
59232,note_on,0,0,0,,2,,,74,127
59423,note_off,191,0,0,,2,,,62,127
59424,note_on,1,0,0,,0,,,60,127
59615,note_off,191,0,0,,0,,,60,127
59616,note_on,1,0,0,,12,,,59,127
59807,note_off,191,0,0,,12,,,59,127
59807,note_off,0,0,0,,2,,,74,127
59808,note_on,1,0,0,,7,,,55,127
59808,note_on,0,0,0,,3,,,75,127
59903,note_off,95,0,0,,3,,,75,127
59904,note_on,1,0,0,,5,,,77,127
59999,note_off,95,0,0,,5,,,77,127
59999,note_off,0,0,0,,7,,,55,127
60000,note_on,1,0,0,,0,,,60,127
60000,note_on,0,0,0,,3,,,75,127
60191,note_off,191,0,0,,3,,,75,127
60191,note_off,0,0,0,,0,,,60,127
60192,note_on,1,0,0,,7,,,67,127
60192,note_on,0,0,0,,7,,,79,127
60383,note_off,191,0,0,,7,,,79,127
60383,note_off,0,0,0,,7,,,67,127
60384,note_on,1,0,0,,5,,,65,127
60384,note_on,0,0,0,,12,,,71,127
60575,note_off,191,0,0,,12,,,71,127
60575,note_off,0,0,0,,5,,,65,127
60576,note_on,1,0,0,,3,,,63,127
60576,note_on,0,0,0,,0,,,72,127
60767,note_off,191,0,0,,0,,,72,127
60767,note_off,0,0,0,,3,,,63,127
60768,note_on,1,0,0,,2,,,62,127
60768,note_on,0,0,0,,2,,,74,127
60959,note_off,191,0,0,,2,,,62,127
60960,note_on,1,0,0,,0,,,60,127
61151,note_off,191,0,0,,0,,,60,127
61152,note_on,1,0,0,,12,,,59,127
61343,note_off,191,0,0,,12,,,59,127
61343,note_off,0,0,0,,2,,,74,127
61344,note_on,1,0,0,,7,,,55,127
61344,note_on,0,0,0,,3,,,75,127
61439,note_off,95,0,0,,3,,,75,127
61440,note_on,1,0,0,,5,,,77,127
61535,note_off,95,0,0,,5,,,77,127
61535,note_off,0,0,0,,7,,,55,127
61536,note_on,1,0,0,,0,,,60,127
61536,note_on,0,0,0,,3,,,75,127
61727,note_off,191,0,0,,3,,,75,127
61728,note_on,1,0,0,,4,,,76,127
61791,note_off,63,0,0,,0,,,60,127
61792,note_on,1,0,0,,11,,,58,127
61919,note_off,127,0,0,,11,,,58,127
61919,note_off,0,0,0,,4,,,76,127
61920,note_on,1,0,0,,8,,,56,127
61920,note_on,0,0,0,,5,,,77,127
62111,note_off,191,0,0,,5,,,77,127
62112,note_on,1,0,0,,7,,,79,127
62175,note_off,63,0,0,,8,,,56,127
62176,note_on,1,0,0,,7,,,55,127
62303,note_off,127,0,0,,7,,,55,127
62303,note_off,0,0,0,,7,,,79,127
62304,note_on,1,0,0,,5,,,53,127
62304,note_on,0,0,0,,8,,,80,127
62495,note_off,191,0,0,,8,,,80,127
62496,note_on,1,0,0,,10,,,81,127
62559,note_off,63,0,0,,5,,,53,127
62560,note_on,1,0,0,,3,,,51,127
62687,note_off,127,0,0,,3,,,51,127
62687,note_off,0,0,0,,10,,,81,127
62688,note_on,1,0,0,,2,,,50,127
62688,note_on,0,0,0,,12,,,83,127
62879,note_off,191,0,0,,12,,,83,127
62880,note_on,1,0,0,,0,,,84,127
62943,note_off,63,0,0,,2,,,50,127
62944,note_on,1,0,0,,0,,,48,127
63071,note_off,127,0,0,,0,,,48,127
63071,note_off,0,0,0,,0,,,84,127
63072,note_on,1,0,0,,7,,,43,127
63072,note_on,0,0,0,,2,,,86,127
63216,note_off,144,0,0,,2,,,86,127
63264,note_on,48,0,0,,5,,,77,127
63455,note_off,191,0,0,,7,,,43,127
63456,note_on,1,0,0,,12,,,47,127
63647,note_off,191,0,0,,12,,,47,127
63647,note_off,0,0,0,,5,,,77,127
63648,note_on,1,0,0,,7,,,43,127
63648,note_on,0,0,0,,3,,,75,127
63743,note_off,95,0,0,,3,,,75,127
63744,note_on,1,0,0,,2,,,74,127
63839,note_off,95,0,0,,2,,,74,127
63839,note_off,0,0,0,,7,,,43,127
63840,note_on,1,0,0,,0,,,48,127
63840,note_on,0,0,0,,5,,,77,127
63935,note_off,95,0,0,,5,,,77,127
63936,note_on,1,0,0,,3,,,75,127
64031,note_off,95,0,0,,3,,,75,127
64031,note_off,0,0,0,,0,,,48,127
64032,note_on,1,0,0,,3,,,51,127
64032,note_on,0,0,0,,2,,,74,127
64127,note_off,95,0,0,,2,,,74,127
64128,note_on,1,0,0,,0,,,72,127
64223,note_off,95,0,0,,0,,,72,127
64223,note_off,0,0,0,,3,,,51,127
64224,note_on,1,0,0,,5,,,53,127
64224,note_on,0,0,0,,3,,,75,127
64319,note_off,95,0,0,,3,,,75,127
64320,note_on,1,0,0,,2,,,74,127
64415,note_off,95,0,0,,2,,,74,127
64415,note_off,0,0,0,,5,,,53,127
64416,note_on,1,0,0,,7,,,55,127
64416,note_on,0,0,0,,0,,,72,127
64511,note_off,95,0,0,,0,,,72,127
64512,note_on,1,0,0,,12,,,71,127
64607,note_off,95,0,0,,12,,,71,127
64607,note_off,0,0,0,,7,,,55,127
64608,note_on,1,0,0,,0,,,48,127
64608,note_on,0,0,0,,0,,,72,127
64799,note_off,191,0,0,,0,,,48,127
64800,note_on,1,0,0,,0,,,60,127
64991,note_off,191,0,0,,0,,,60,127
64992,note_on,1,0,0,,5,,,65,127
65087,note_off,95,0,0,,0,,,72,127
65088,note_on,1,0,0,,11,,,70,127
65183,note_off,95,0,0,,11,,,70,127
65184,note_on,1,0,0,,8,,,68,127
65279,note_off,95,0,0,,5,,,65,127
65280,note_on,1,0,0,,3,,,63,127
65375,note_off,95,0,0,,3,,,63,127
65376,note_on,1,0,0,,2,,,62,127
65471,note_off,95,0,0,,8,,,68,127
65472,note_on,1,0,0,,7,,,67,127
65567,note_off,95,0,0,,7,,,67,127
65568,note_on,1,0,0,,5,,,65,127
65663,note_off,95,0,0,,2,,,62,127
65664,note_on,1,0,0,,0,,,60,127
65759,note_off,95,0,0,,0,,,60,127
65760,note_on,1,0,0,,12,,,59,127
65855,note_off,95,0,0,,5,,,65,127
65856,note_on,1,0,0,,0,,,72,127
65951,note_off,95,0,0,,0,,,72,127
65952,note_on,1,0,0,,2,,,74,127
66047,note_off,95,0,0,,12,,,59,127
66048,note_on,1,0,0,,10,,,57,127
66143,note_off,95,0,0,,10,,,57,127
66144,note_on,1,0,0,,7,,,55,127
66239,note_off,95,0,0,,2,,,74,127
66240,note_on,1,0,0,,0,,,72,127
66335,note_off,95,0,0,,0,,,72,127
66336,note_on,1,0,0,,12,,,71,127
66431,note_off,95,0,0,,7,,,55,127
66432,note_on,1,0,0,,5,,,53,127
66527,note_off,95,0,0,,5,,,53,127
66528,note_on,1,0,0,,3,,,51,127
66623,note_off,95,0,0,,12,,,71,127
66624,note_on,1,0,0,,5,,,77,127
66719,note_off,95,0,0,,5,,,77,127
66720,note_on,1,0,0,,7,,,79,127
66815,note_off,95,0,0,,3,,,51,127
66816,note_on,1,0,0,,2,,,50,127
66911,note_off,95,0,0,,2,,,50,127
66912,note_on,1,0,0,,0,,,48,127
67007,note_off,95,0,0,,7,,,79,127
67008,note_on,1,0,0,,5,,,77,127
67103,note_off,95,0,0,,5,,,77,127
67104,note_on,1,0,0,,3,,,75,127
67199,note_off,95,0,0,,3,,,75,127
67199,note_off,0,0,0,,0,,,48,127
67200,note_on,1,0,0,,11,,,46,127
67200,note_on,0,0,0,,2,,,74,127
67295,note_off,95,0,0,,2,,,74,127
67295,note_off,0,0,0,,11,,,46,127
67296,note_on,1,0,0,,8,,,44,127
67296,note_on,0,0,0,,0,,,72,127
67391,note_off,95,0,0,,0,,,72,127
67392,note_on,1,0,0,,12,,,83,127
67487,note_off,95,0,0,,12,,,83,127
67487,note_off,0,0,0,,8,,,44,127
67488,note_on,1,0,0,,5,,,41,127
67488,note_on,0,0,0,,0,,,84,127
67584,note_on,96,0,0,,0,,,72,127
67678,note_off,94,0,0,,0,,,84,127
67679,note_off,1,0,0,,0,,,72,127
67679,note_off,0,0,0,,5,,,41,127
67680,note_on,1,0,0,,7,,,43,127
67680,note_on,0,0,0,,0,,,72,127
67872,note_on,192,0,0,,7,,,55,127
67920,note_off,48,0,0,,0,,,72,127
67920,note_off,0,0,0,,7,,,43,127
67920,note_on,0,0,0,,12,,,71,127
67968,note_on,48,0,0,,0,,,72,127
68014,note_off,46,0,0,,12,,,71,127
68016,note_on,2,0,0,,12,,,71,127
68062,note_off,46,0,0,,0,,,72,127
68063,note_off,1,0,0,,7,,,55,127
68064,note_on,1,0,0,,0,,,48,127
68064,note_on,0,0,0,,0,,,72,127
68110,note_off,46,0,0,,12,,,71,127
68255,note_off,145,0,0,,0,,,48,127
68256,note_on,1,0,0,,0,,,60,127
68447,note_off,191,0,0,,0,,,60,127
68448,note_on,1,0,0,,5,,,65,127
68543,note_off,95,0,0,,0,,,72,127
68544,note_on,1,0,0,,11,,,70,127
68639,note_off,95,0,0,,11,,,70,127
68640,note_on,1,0,0,,8,,,68,127
68735,note_off,95,0,0,,5,,,65,127
68736,note_on,1,0,0,,3,,,63,127
68831,note_off,95,0,0,,3,,,63,127
68832,note_on,1,0,0,,2,,,62,127
68927,note_off,95,0,0,,8,,,68,127
68928,note_on,1,0,0,,7,,,67,127
69023,note_off,95,0,0,,7,,,67,127
69024,note_on,1,0,0,,5,,,65,127
69119,note_off,95,0,0,,2,,,62,127
69120,note_on,1,0,0,,0,,,60,127
69215,note_off,95,0,0,,0,,,60,127
69216,note_on,1,0,0,,12,,,59,127
69311,note_off,95,0,0,,5,,,65,127
69312,note_on,1,0,0,,0,,,72,127
69407,note_off,95,0,0,,0,,,72,127
69408,note_on,1,0,0,,2,,,74,127
69503,note_off,95,0,0,,12,,,59,127
69504,note_on,1,0,0,,10,,,57,127
69599,note_off,95,0,0,,10,,,57,127
69600,note_on,1,0,0,,7,,,55,127
69695,note_off,95,0,0,,2,,,74,127
69696,note_on,1,0,0,,0,,,72,127
69791,note_off,95,0,0,,0,,,72,127
69792,note_on,1,0,0,,12,,,71,127
69887,note_off,95,0,0,,7,,,55,127
69888,note_on,1,0,0,,5,,,53,127
69983,note_off,95,0,0,,5,,,53,127
69984,note_on,1,0,0,,3,,,51,127
70079,note_off,95,0,0,,12,,,71,127
70080,note_on,1,0,0,,5,,,77,127
70175,note_off,95,0,0,,5,,,77,127
70176,note_on,1,0,0,,7,,,79,127
70271,note_off,95,0,0,,3,,,51,127
70272,note_on,1,0,0,,2,,,50,127
70367,note_off,95,0,0,,2,,,50,127
70368,note_on,1,0,0,,0,,,48,127
70463,note_off,95,0,0,,7,,,79,127
70464,note_on,1,0,0,,5,,,77,127
70559,note_off,95,0,0,,5,,,77,127
70560,note_on,1,0,0,,3,,,75,127
70655,note_off,95,0,0,,3,,,75,127
70655,note_off,0,0,0,,0,,,48,127
70656,note_on,1,0,0,,11,,,46,127
70656,note_on,0,0,0,,2,,,74,127
70751,note_off,95,0,0,,2,,,74,127
70751,note_off,0,0,0,,11,,,46,127
70752,note_on,1,0,0,,8,,,44,127
70752,note_on,0,0,0,,0,,,72,127
70848,note_on,96,0,0,,12,,,83,127
70943,note_off,95,0,0,,12,,,83,127
70943,note_off,0,0,0,,8,,,44,127
70944,note_on,1,0,0,,5,,,41,127
70944,note_on,0,0,0,,0,,,84,127
71039,note_off,95,0,0,,0,,,72,127
71040,note_on,1,0,0,,0,,,72,127
71135,note_off,95,0,0,,0,,,72,127
71135,note_off,0,0,0,,5,,,41,127
71136,note_on,1,0,0,,7,,,43,127
71136,note_on,0,0,0,,0,,,72,127
71324,note_off,188,0,0,,0,,,84,127
71327,note_off,3,0,0,,7,,,43,127
71328,note_on,1,0,0,,7,,,55,127
71376,note_off,48,0,0,,0,,,72,127
71376,note_on,0,0,0,,12,,,71,127
71424,note_on,48,0,0,,0,,,72,127
71470,note_off,46,0,0,,12,,,71,127
71472,note_on,2,0,0,,12,,,71,127
71518,note_off,46,0,0,,0,,,72,127
71519,note_off,1,0,0,,7,,,55,127
71520,note_on,1,0,0,,0,,,48,127
71520,note_on,0,0,0,,0,,,72,127
71526,note_off,6,0,0,,12,,,71,127
71664,note_off,138,0,0,,0,,,72,127
71712,note_on,48,0,0,,3,,,75,127
71712,note_on,0,0,0,,7,,,67,127
71900,note_off,188,0,0,,0,,,48,127
71903,note_off,3,0,0,,7,,,67,127
71903,note_off,0,0,0,,3,,,75,127
71904,note_on,1,0,0,,5,,,77,127
71904,note_on,0,0,0,,8,,,68,127
72096,note_on,192,0,0,,3,,,63,127
72096,note_on,0,0,0,,7,,,55,127
72287,note_off,191,0,0,,7,,,55,127
72287,note_off,0,0,0,,3,,,63,127
72288,note_on,1,0,0,,8,,,56,127
72288,note_on,0,0,0,,5,,,65,127
72479,note_off,191,0,0,,8,,,68,127
72479,note_off,0,0,0,,5,,,77,127
72480,note_on,1,0,0,,7,,,79,127
72480,note_on,0,0,0,,12,,,71,127
72668,note_off,188,0,0,,5,,,65,127
72668,note_off,0,0,0,,8,,,56,127
72671,note_off,3,0,0,,12,,,71,127
72671,note_off,0,0,0,,7,,,79,127
72672,note_on,1,0,0,,0,,,72,127
72672,note_on,0,0,0,,8,,,80,127
72864,note_on,192,0,0,,7,,,67,127
72864,note_on,0,0,0,,12,,,59,127
73055,note_off,191,0,0,,12,,,59,127
73055,note_off,0,0,0,,7,,,67,127
73056,note_on,1,0,0,,0,,,60,127
73056,note_on,0,0,0,,8,,,68,127
73247,note_off,191,0,0,,8,,,80,127
73247,note_off,0,0,0,,0,,,72,127
73248,note_on,1,0,0,,2,,,74,127
73248,note_on,0,0,0,,12,,,83,127
73436,note_off,188,0,0,,8,,,68,127
73436,note_off,0,0,0,,0,,,60,127
73439,note_off,3,0,0,,12,,,83,127
73439,note_off,0,0,0,,2,,,74,127
73440,note_on,1,0,0,,3,,,75,127
73440,note_on,0,0,0,,0,,,84,127
73632,note_on,192,0,0,,2,,,62,127
73632,note_on,0,0,0,,12,,,71,127
73823,note_off,191,0,0,,12,,,71,127
73823,note_off,0,0,0,,2,,,62,127
73824,note_on,1,0,0,,3,,,63,127
73824,note_on,0,0,0,,0,,,72,127
74015,note_off,191,0,0,,0,,,84,127
74015,note_off,0,0,0,,3,,,75,127
74016,note_on,1,0,0,,7,,,79,127
74207,note_off,191,0,0,,7,,,79,127
74208,note_on,1,0,0,,0,,,84,127
74399,note_off,191,0,0,,0,,,84,127
74399,note_off,0,0,0,,0,,,72,127
74399,note_off,0,0,0,,3,,,63,127
74400,note_on,1,0,0,,0,,,60,127
74400,note_on,0,0,0,,11,,,82,127
74591,note_off,191,0,0,,11,,,82,127
74591,note_off,0,0,0,,0,,,60,127
74592,note_on,1,0,0,,5,,,65,127
74592,note_on,0,0,0,,8,,,80,127
74783,note_off,191,0,0,,8,,,80,127
74784,note_on,1,0,0,,5,,,53,127
74784,note_on,0,0,0,,7,,,79,127
74879,note_off,95,0,0,,7,,,79,127
74880,note_on,1,0,0,,5,,,77,127
74975,note_off,95,0,0,,5,,,77,127
74975,note_off,0,0,0,,5,,,53,127
74975,note_off,0,0,0,,5,,,65,127
74976,note_on,1,0,0,,7,,,67,127
74976,note_on,0,0,0,,3,,,75,127
75071,note_off,95,0,0,,3,,,75,127
75072,note_on,1,0,0,,2,,,74,127
75167,note_off,95,0,0,,2,,,74,127
75168,note_on,1,0,0,,7,,,55,127
75168,note_on,0,0,0,,0,,,72,127
75263,note_off,95,0,0,,0,,,72,127
75264,note_on,1,0,0,,12,,,71,127
75359,note_off,95,0,0,,12,,,71,127
75359,note_off,0,0,0,,7,,,67,127
75360,note_on,1,0,0,,8,,,80,127
75456,note_off,96,0,0,,7,,,55,127
75551,note_off,95,0,0,,8,,,80,127
75552,note_on,1,0,0,,5,,,53,127
75552,note_on,0,0,0,,5,,,65,127
75552,note_on,0,0,0,,7,,,79,127
75647,note_off,95,0,0,,7,,,79,127
75648,note_on,1,0,0,,5,,,77,127
75743,note_off,95,0,0,,5,,,77,127
75743,note_off,0,0,0,,5,,,65,127
75743,note_off,0,0,0,,5,,,53,127
75744,note_on,1,0,0,,7,,,55,127
75744,note_on,0,0,0,,7,,,67,127
75744,note_on,0,0,0,,3,,,75,127
75839,note_off,95,0,0,,3,,,75,127
75840,note_on,1,0,0,,2,,,74,127
75935,note_off,95,0,0,,2,,,74,127
75936,note_on,1,0,0,,0,,,72,127
76031,note_off,95,0,0,,0,,,72,127
76032,note_on,1,0,0,,12,,,71,127
76127,note_off,95,0,0,,12,,,71,127
76128,note_on,1,0,0,,8,,,80,127
76224,note_off,96,0,0,,7,,,67,127
76224,note_off,0,0,0,,7,,,55,127
76319,note_off,95,0,0,,8,,,80,127
76320,note_on,1,0,0,,5,,,53,127
76320,note_on,0,0,0,,7,,,79,127
76415,note_off,95,0,0,,7,,,79,127
76416,note_on,1,0,0,,5,,,77,127
76511,note_off,95,0,0,,5,,,77,127
76511,note_off,0,0,0,,5,,,53,127
76512,note_on,1,0,0,,7,,,55,127
76512,note_on,0,0,0,,3,,,75,127
76607,note_off,95,0,0,,3,,,75,127
76608,note_on,1,0,0,,2,,,74,127
76703,note_off,95,0,0,,2,,,74,127
76704,note_on,1,0,0,,7,,,43,127
76704,note_on,0,0,0,,0,,,72,127
76799,note_off,95,0,0,,0,,,72,127
76800,note_on,1,0,0,,12,,,71,127
76895,note_off,95,0,0,,12,,,71,127
76895,note_off,0,0,0,,7,,,43,127
76895,note_off,0,0,0,,7,,,55,127
76896,note_on,1,0,0,,0,,,36,127
76896,note_on,0,0,0,,0,,,48,127
76896,note_on,0,0,0,,12,,,71,127
77760,note_off,864,0,0,,12,,,71,127
77760,note_on,0,0,0,,0,,,72,127
79680,note_off,1920,0,0,,0,,,72,127
79680,note_off,0,0,0,,0,,,48,127
79680,note_off,0,0,0,,0,,,36,127
81408,end_of_track,1728,1,0,,,,,,
