tick,type,time,meta,track,program,channel,pitch,tempo,note,velocity
0,copyright,0,1,0,,,,,,
0,program_change,0,0,0,6,0,,,,
0,pitchwheel,0,0,0,,0,0,,,
0,program_change,0,0,0,6,1,,,,
0,pitchwheel,0,0,0,,1,-590,,,
0,program_change,0,0,0,6,2,,,,
0,pitchwheel,0,0,0,,2,-272,,,
0,program_change,0,0,0,6,3,,,,
0,pitchwheel,0,0,0,,3,-353,,,
0,program_change,0,0,0,6,4,,,,
0,pitchwheel,0,0,0,,4,-560,,,
0,program_change,0,0,0,6,5,,,,
0,pitchwheel,0,0,0,,5,-80,,,
0,program_change,0,0,0,6,6,,,,
0,pitchwheel,0,0,0,,6,-625,,,
0,program_change,0,0,0,6,7,,,,
0,pitchwheel,0,0,0,,7,-130,,,
0,program_change,0,0,0,6,8,,,,
0,pitchwheel,0,0,0,,8,-512,,,
0,program_change,0,0,0,6,10,,,,
0,pitchwheel,0,0,0,,10,-464,,,
0,program_change,0,0,0,6,11,,,,
0,pitchwheel,0,0,0,,11,-208,,,
0,program_change,0,0,0,6,12,,,,
0,pitchwheel,0,0,0,,12,-553,,,
0,set_tempo,0,1,0,,,,500000,,
92,note_on,92,0,0,,7,,,79,127
92,note_on,0,0,0,,0,,,60,127
274,note_off,182,0,0,,0,,,60,127
276,note_on,2,0,0,,2,,,62,127
458,note_off,182,0,0,,2,,,62,127
460,note_on,2,0,0,,4,,,64,127
610,note_off,150,0,0,,7,,,79,127
643,note_off,33,0,0,,4,,,64,127
645,note_on,2,0,0,,10,,,81,127
645,note_on,0,0,0,,5,,,65,127
827,note_off,182,0,0,,5,,,65,127
829,note_on,2,0,0,,7,,,67,127
1011,note_off,182,0,0,,7,,,67,127
1013,note_on,2,0,0,,10,,,69,127
1153,note_off,140,0,0,,10,,,81,127
1195,note_off,42,0,0,,10,,,69,127
1197,note_on,2,0,0,,2,,,74,127
1197,note_on,0,0,0,,12,,,59,127
1379,note_off,182,0,0,,12,,,59,127
1381,note_on,2,0,0,,0,,,60,127
1563,note_off,182,0,0,,0,,,60,127
1565,note_on,2,0,0,,2,,,62,127
1747,note_off,182,0,0,,2,,,62,127
1749,note_on,2,0,0,,7,,,55,127
1839,note_off,90,0,0,,2,,,74,127
1841,note_on,2,0,0,,7,,,79,127
1931,note_off,90,0,0,,7,,,79,127
1933,note_on,2,0,0,,5,,,77,127
2023,note_off,90,0,0,,5,,,77,127
2025,note_on,2,0,0,,4,,,76,127
2115,note_off,90,0,0,,4,,,76,127
2117,note_on,2,0,0,,2,,,74,127
2207,note_off,90,0,0,,2,,,74,127
2209,note_on,2,0,0,,0,,,72,127
2299,note_off,90,0,0,,0,,,72,127
2301,note_on,2,0,0,,12,,,71,127
2391,note_off,90,0,0,,7,,,55,127
2393,note_on,2,0,0,,12,,,59,127
2483,note_off,90,0,0,,12,,,59,127
2483,note_off,0,0,0,,12,,,71,127
2485,note_on,2,0,0,,0,,,72,127
2485,note_on,0,0,0,,10,,,57,127
2575,note_off,90,0,0,,10,,,57,127
2577,note_on,2,0,0,,0,,,60,127
2667,note_off,90,0,0,,0,,,60,127
2667,note_off,0,0,0,,0,,,72,127
2669,note_on,2,0,0,,2,,,74,127
2669,note_on,0,0,0,,12,,,59,127
2759,note_off,90,0,0,,12,,,59,127
2761,note_on,2,0,0,,2,,,62,127
2851,note_off,90,0,0,,2,,,62,127
2851,note_off,0,0,0,,2,,,74,127
2853,note_on,2,0,0,,4,,,76,127
2853,note_on,0,0,0,,0,,,60,127
2943,note_off,90,0,0,,4,,,76,127
2945,note_on,2,0,0,,7,,,79,127
3035,note_off,90,0,0,,7,,,79,127
3037,note_on,2,0,0,,5,,,77,127
3127,note_off,90,0,0,,5,,,77,127
3129,note_on,2,0,0,,4,,,76,127
3219,note_off,90,0,0,,4,,,76,127
3221,note_on,2,0,0,,2,,,74,127
3311,note_off,90,0,0,,2,,,74,127
3313,note_off,2,0,0,,0,,,60,127
3313,note_on,0,0,0,,0,,,72,127
3403,note_off,90,0,0,,0,,,72,127
3405,note_on,2,0,0,,2,,,74,127
3405,note_on,0,0,0,,5,,,53,127
3495,note_off,90,0,0,,2,,,74,127
3497,note_on,2,0,0,,5,,,77,127
3587,note_off,90,0,0,,5,,,77,127
3587,note_off,0,0,0,,5,,,53,127
3589,note_on,2,0,0,,4,,,76,127
3589,note_on,0,0,0,,7,,,55,127
3679,note_off,90,0,0,,4,,,76,127
3681,note_on,2,0,0,,2,,,74,127
3771,note_off,90,0,0,,2,,,74,127
3773,note_on,2,0,0,,0,,,72,127
3863,note_off,90,0,0,,0,,,72,127
3865,note_on,2,0,0,,12,,,71,127
3955,note_off,90,0,0,,12,,,71,127
3955,note_off,0,0,0,,7,,,55,127
3957,note_on,2,0,0,,12,,,71,127
3957,note_on,0,0,0,,0,,,48,127
4324,note_off,367,0,0,,12,,,71,127
4326,note_on,2,0,0,,0,,,72,127
4508,note_off,182,0,0,,0,,,48,127
4533,note_off,25,0,0,,0,,,72,127
4541,note_on,8,0,0,,0,,,60,127
4725,note_on,184,0,0,,4,,,76,127
4725,note_on,0,0,0,,0,,,72,127
4909,note_on,184,0,0,,0,,,84,127
5089,note_off,180,0,0,,0,,,72,127
5089,note_off,0,0,0,,4,,,76,127
5091,note_off,2,0,0,,0,,,84,127
5091,note_off,0,0,0,,0,,,60,127
5093,note_on,2,0,0,,2,,,62,127
5093,note_on,0,0,0,,5,,,65,127
5277,note_on,184,0,0,,2,,,74,127
5277,note_on,0,0,0,,5,,,77,127
5459,note_off,182,0,0,,5,,,65,127
5459,note_off,0,0,0,,2,,,62,127
5461,note_on,2,0,0,,12,,,59,127
5461,note_on,0,0,0,,2,,,86,127
5641,note_off,180,0,0,,5,,,77,127
5641,note_off,0,0,0,,2,,,74,127
5643,note_off,2,0,0,,2,,,86,127
5643,note_off,0,0,0,,12,,,59,127
5645,note_on,2,0,0,,0,,,60,127
5829,note_on,184,0,0,,0,,,72,127
5829,note_on,0,0,0,,4,,,76,127
6011,note_off,182,0,0,,0,,,60,127
6013,note_on,2,0,0,,10,,,57,127
6013,note_on,0,0,0,,0,,,84,127
6193,note_off,180,0,0,,4,,,76,127
6193,note_off,0,0,0,,0,,,72,127
6195,note_off,2,0,0,,10,,,57,127
6197,note_on,2,0,0,,7,,,55,127
6379,note_off,182,0,0,,0,,,84,127
6381,note_on,2,0,0,,12,,,83,127
6471,note_off,90,0,0,,12,,,83,127
6473,note_on,2,0,0,,10,,,81,127
6563,note_off,90,0,0,,10,,,81,127
6565,note_on,2,0,0,,7,,,79,127
6747,note_off,182,0,0,,7,,,79,127
6747,note_off,0,0,0,,7,,,55,127
6764,note_on,17,0,0,,4,,,64,127
6764,note_on,0,0,0,,0,,,60,127
6948,note_on,184,0,0,,4,,,76,127
6948,note_on,0,0,0,,0,,,72,127
7130,note_off,182,0,0,,4,,,76,127
7130,note_off,0,0,0,,0,,,60,127
7130,note_off,0,0,0,,4,,,64,127
7132,note_on,2,0,0,,0,,,84,127
7132,note_on,0,0,0,,10,,,57,127
7312,note_off,180,0,0,,0,,,72,127
7314,note_off,2,0,0,,10,,,57,127
7314,note_off,0,0,0,,0,,,84,127
7316,note_on,2,0,0,,2,,,62,127
7316,note_on,0,0,0,,12,,,59,127
7500,note_on,184,0,0,,2,,,74,127
7500,note_on,0,0,0,,12,,,71,127
7682,note_off,182,0,0,,2,,,74,127
7682,note_off,0,0,0,,12,,,59,127
7682,note_off,0,0,0,,2,,,62,127
7684,note_on,2,0,0,,12,,,83,127
7684,note_on,0,0,0,,7,,,55,127
7864,note_off,180,0,0,,12,,,71,127
7866,note_off,2,0,0,,7,,,55,127
7866,note_off,0,0,0,,12,,,83,127
7868,note_on,2,0,0,,0,,,60,127
7868,note_on,0,0,0,,10,,,57,127
8052,note_on,184,0,0,,10,,,69,127
8052,note_on,0,0,0,,0,,,72,127
8234,note_off,182,0,0,,0,,,72,127
8234,note_off,0,0,0,,10,,,57,127
8234,note_off,0,0,0,,0,,,60,127
8236,note_on,2,0,0,,10,,,81,127
8236,note_on,0,0,0,,6,,,54,127
8416,note_off,180,0,0,,10,,,69,127
8418,note_off,2,0,0,,6,,,54,127
8418,note_off,0,0,0,,10,,,81,127
8420,note_on,2,0,0,,7,,,55,127
8604,note_on,184,0,0,,7,,,67,127
8604,note_on,0,0,0,,12,,,71,127
8786,note_off,182,0,0,,12,,,71,127
8788,note_on,2,0,0,,7,,,79,127
8968,note_off,180,0,0,,7,,,67,127
8970,note_off,2,0,0,,7,,,55,127
8987,note_on,17,0,0,,0,,,48,127
8987,note_on,0,0,0,,7,,,55,127
9064,note_off,77,0,0,,7,,,79,127
9172,note_on,108,0,0,,4,,,76,127
9172,note_on,0,0,0,,4,,,64,127
9356,note_on,184,0,0,,7,,,67,127
9440,note_off,84,0,0,,4,,,76,127
9536,note_off,96,0,0,,4,,,64,127
9538,note_off,2,0,0,,7,,,67,127
9538,note_off,0,0,0,,7,,,55,127
9538,note_off,0,0,0,,0,,,48,127
9540,note_on,2,0,0,,12,,,47,127
9540,note_on,0,0,0,,7,,,55,127
9724,note_on,184,0,0,,2,,,62,127
9724,note_on,0,0,0,,2,,,74,127
9908,note_on,184,0,0,,5,,,65,127
9992,note_off,84,0,0,,2,,,74,127
10088,note_off,96,0,0,,2,,,62,127
10090,note_off,2,0,0,,5,,,65,127
10090,note_off,0,0,0,,7,,,55,127
10090,note_off,0,0,0,,12,,,47,127
10100,note_on,10,0,0,,7,,,55,127
10100,note_on,0,0,0,,0,,,48,127
10284,note_on,184,0,0,,4,,,64,127
10284,note_on,0,0,0,,4,,,76,127
10466,note_off,182,0,0,,4,,,76,127
10468,note_on,2,0,0,,7,,,67,127
10648,note_off,180,0,0,,4,,,64,127
10650,note_off,2,0,0,,7,,,67,127
10650,note_off,0,0,0,,0,,,48,127
10650,note_off,0,0,0,,7,,,55,127
10652,note_on,2,0,0,,7,,,55,127
10652,note_on,0,0,0,,12,,,47,127
10836,note_on,184,0,0,,2,,,62,127
10836,note_on,0,0,0,,2,,,74,127
11018,note_off,182,0,0,,2,,,74,127
11020,note_on,2,0,0,,5,,,65,127
11202,note_off,182,0,0,,5,,,65,127
11202,note_off,0,0,0,,12,,,47,127
11202,note_off,0,0,0,,7,,,55,127
11219,note_on,17,0,0,,0,,,60,127
11219,note_on,0,0,0,,6,,,54,127
11233,note_off,14,0,0,,2,,,62,127
11403,note_on,170,0,0,,2,,,62,127
11403,note_on,0,0,0,,2,,,74,127
11587,note_on,184,0,0,,10,,,69,127
11671,note_off,84,0,0,,2,,,74,127
11769,note_off,98,0,0,,10,,,69,127
11769,note_off,0,0,0,,6,,,54,127
11769,note_off,0,0,0,,0,,,60,127
11771,note_on,2,0,0,,7,,,55,127
11771,note_on,0,0,0,,12,,,59,127
11954,note_off,183,0,0,,2,,,62,127
11955,note_on,1,0,0,,2,,,74,127
11955,note_on,0,0,0,,2,,,62,127
12139,note_on,184,0,0,,7,,,67,127
12223,note_off,84,0,0,,2,,,74,127
12321,note_off,98,0,0,,7,,,67,127
12321,note_off,0,0,0,,12,,,59,127
12321,note_off,0,0,0,,7,,,55,127
12331,note_on,10,0,0,,0,,,60,127
12331,note_on,0,0,0,,6,,,54,127
12507,note_off,176,0,0,,2,,,62,127
12516,note_on,9,0,0,,2,,,62,127
12516,note_on,0,0,0,,2,,,74,127
12698,note_off,182,0,0,,2,,,74,127
12700,note_on,2,0,0,,10,,,69,127
12882,note_off,182,0,0,,10,,,69,127
12882,note_off,0,0,0,,6,,,54,127
12882,note_off,0,0,0,,0,,,60,127
12884,note_on,2,0,0,,7,,,55,127
12884,note_on,0,0,0,,12,,,59,127
13067,note_off,183,0,0,,2,,,62,127
13068,note_on,1,0,0,,2,,,74,127
13068,note_on,0,0,0,,2,,,62,127
13250,note_off,182,0,0,,2,,,74,127
13252,note_on,2,0,0,,7,,,67,127
13444,note_off,192,0,0,,12,,,59,127
13444,note_off,0,0,0,,7,,,55,127
13452,note_off,8,0,0,,7,,,67,127
13452,note_off,0,0,0,,2,,,62,127
13456,note_on,4,0,0,,4,,,64,127
13456,note_on,0,0,0,,0,,,60,127
13640,note_on,184,0,0,,7,,,67,127
13640,note_on,0,0,0,,7,,,79,127
13824,note_on,184,0,0,,4,,,76,127
13908,note_off,84,0,0,,7,,,79,127
14006,note_off,98,0,0,,4,,,76,127
14006,note_off,0,0,0,,0,,,60,127
14006,note_off,0,0,0,,4,,,64,127
14008,note_on,2,0,0,,2,,,62,127
14008,note_on,0,0,0,,12,,,59,127
14191,note_off,183,0,0,,7,,,67,127
14192,note_on,1,0,0,,7,,,67,127
14192,note_on,0,0,0,,7,,,79,127
14376,note_on,184,0,0,,2,,,74,127
14460,note_off,84,0,0,,7,,,79,127
14558,note_off,98,0,0,,2,,,74,127
14558,note_off,0,0,0,,12,,,59,127
14558,note_off,0,0,0,,2,,,62,127
14560,note_on,2,0,0,,4,,,64,127
14560,note_on,0,0,0,,0,,,60,127
14743,note_off,183,0,0,,7,,,67,127
14744,note_on,1,0,0,,7,,,79,127
14744,note_on,0,0,0,,7,,,67,127
14928,note_on,184,0,0,,0,,,72,127
15012,note_off,84,0,0,,7,,,79,127
15110,note_off,98,0,0,,0,,,72,127
15110,note_off,0,0,0,,0,,,60,127
15110,note_off,0,0,0,,4,,,64,127
15112,note_on,2,0,0,,2,,,62,127
15112,note_on,0,0,0,,7,,,55,127
15295,note_off,183,0,0,,7,,,67,127
15296,note_on,1,0,0,,7,,,67,127
15296,note_on,0,0,0,,7,,,79,127
15478,note_off,182,0,0,,7,,,79,127
15480,note_on,2,0,0,,12,,,71,127
15662,note_off,182,0,0,,7,,,55,127
15662,note_off,0,0,0,,2,,,62,127
15675,note_on,13,0,0,,0,,,60,127
15675,note_on,0,0,0,,4,,,64,127
15677,note_off,2,0,0,,12,,,71,127
15842,note_off,165,0,0,,7,,,67,127
15859,note_on,17,0,0,,7,,,79,127
15859,note_on,0,0,0,,7,,,67,127
16032,note_off,173,0,0,,7,,,79,127
16044,note_on,12,0,0,,4,,,76,127
16217,note_off,173,0,0,,4,,,76,127
16227,note_off,10,0,0,,4,,,64,127
16227,note_off,0,0,0,,0,,,60,127
16229,note_on,2,0,0,,12,,,59,127
16229,note_on,0,0,0,,2,,,62,127
16412,note_off,183,0,0,,7,,,67,127
16413,note_on,1,0,0,,7,,,67,127
16413,note_on,0,0,0,,7,,,79,127
16586,note_off,173,0,0,,7,,,79,127
16598,note_on,12,0,0,,2,,,74,127
16771,note_off,173,0,0,,2,,,74,127
16781,note_off,10,0,0,,2,,,62,127
16781,note_off,0,0,0,,12,,,59,127
16783,note_on,2,0,0,,0,,,60,127
16783,note_on,0,0,0,,4,,,64,127
16965,note_off,182,0,0,,7,,,67,127
16967,note_on,2,0,0,,7,,,79,127
16967,note_on,0,0,0,,7,,,67,127
17140,note_off,173,0,0,,7,,,79,127
17152,note_on,12,0,0,,0,,,72,127
17325,note_off,173,0,0,,0,,,72,127
17335,note_off,10,0,0,,4,,,64,127
17335,note_off,0,0,0,,0,,,60,127
17337,note_on,2,0,0,,7,,,55,127
17337,note_on,0,0,0,,2,,,62,127
17519,note_off,182,0,0,,7,,,67,127
17521,note_on,2,0,0,,7,,,67,127
17521,note_on,0,0,0,,7,,,79,127
17694,note_off,173,0,0,,7,,,79,127
17706,note_on,12,0,0,,12,,,71,127
17879,note_off,173,0,0,,12,,,71,127
17898,note_off,19,0,0,,7,,,67,127
17898,note_off,0,0,0,,2,,,62,127
17898,note_off,0,0,0,,7,,,55,127
17906,note_on,8,0,0,,12,,,71,127
17906,note_on,0,0,0,,7,,,67,127
17906,note_on,0,0,0,,7,,,55,127
18088,note_off,182,0,0,,7,,,67,127
18088,note_off,0,0,0,,12,,,71,127
18090,note_on,2,0,0,,0,,,72,127
18090,note_on,0,0,0,,10,,,69,127
18272,note_off,182,0,0,,10,,,69,127
18272,note_off,0,0,0,,0,,,72,127
18274,note_on,2,0,0,,2,,,74,127
18274,note_on,0,0,0,,12,,,71,127
18456,note_off,182,0,0,,12,,,71,127
18456,note_off,0,0,0,,2,,,74,127
18456,note_off,0,0,0,,7,,,55,127
18458,note_on,2,0,0,,12,,,71,127
18458,note_on,0,0,0,,2,,,74,127
18458,note_on,0,0,0,,12,,,47,127
18640,note_off,182,0,0,,2,,,74,127
18640,note_off,0,0,0,,12,,,71,127
18642,note_on,2,0,0,,4,,,76,127
18642,note_on,0,0,0,,0,,,72,127
18824,note_off,182,0,0,,0,,,72,127
18824,note_off,0,0,0,,4,,,76,127
18826,note_on,2,0,0,,12,,,71,127
18826,note_on,0,0,0,,2,,,74,127
19008,note_off,182,0,0,,12,,,47,127
19010,note_on,2,0,0,,0,,,48,127
19192,note_off,182,0,0,,2,,,74,127
19192,note_off,0,0,0,,12,,,71,127
19194,note_on,2,0,0,,10,,,69,127
19194,note_on,0,0,0,,0,,,72,127
19376,note_off,182,0,0,,0,,,72,127
19376,note_off,0,0,0,,10,,,69,127
19376,note_off,0,0,0,,0,,,48,127
19378,note_on,2,0,0,,12,,,71,127
19378,note_on,0,0,0,,7,,,67,127
19378,note_on,0,0,0,,1,,,49,127
19560,note_off,182,0,0,,1,,,49,127
19562,note_on,2,0,0,,2,,,50,127
19744,note_off,182,0,0,,7,,,67,127
19744,note_off,0,0,0,,12,,,71,127
19751,note_on,7,0,0,,10,,,69,127
19863,note_on,112,0,0,,7,,,67,127
19864,note_off,1,0,0,,10,,,69,127
19976,note_off,112,0,0,,7,,,67,127
19989,note_on,13,0,0,,10,,,69,127
19989,note_on,0,0,0,,6,,,66,127
19989,note_on,0,0,0,,2,,,38,127
20209,note_off,220,0,0,,2,,,50,127
20354,note_off,145,0,0,,2,,,38,127
20500,note_off,146,0,0,,10,,,69,127
20518,note_off,18,0,0,,6,,,66,127
20953,note_on,435,0,0,,6,,,66,127
21143,note_on,190,0,0,,10,,,69,127
21143,note_on,0,0,0,,2,,,74,127
21143,note_on,0,0,0,,0,,,72,127
21320,note_off,177,0,0,,6,,,66,127
21326,note_off,6,0,0,,0,,,72,127
21326,note_off,0,0,0,,10,,,69,127
21328,note_on,2,0,0,,7,,,67,127
21328,note_on,0,0,0,,11,,,70,127
21508,note_off,180,0,0,,2,,,74,127
21510,note_off,2,0,0,,11,,,70,127
21510,note_off,0,0,0,,7,,,67,127
21512,note_on,2,0,0,,6,,,66,127
21696,note_on,184,0,0,,10,,,69,127
21696,note_on,0,0,0,,2,,,74,127
21696,note_on,0,0,0,,0,,,72,127
21878,note_off,182,0,0,,0,,,72,127
21878,note_off,0,0,0,,10,,,69,127
21878,note_off,0,0,0,,6,,,66,127
21880,note_on,2,0,0,,7,,,67,127
21880,note_on,0,0,0,,11,,,70,127
22060,note_off,180,0,0,,2,,,74,127
22062,note_off,2,0,0,,11,,,70,127
22062,note_off,0,0,0,,7,,,67,127
22068,note_on,6,0,0,,2,,,62,127
22068,note_on,0,0,0,,5,,,65,127
22252,note_on,184,0,0,,2,,,74,127
22252,note_on,0,0,0,,12,,,71,127
22434,note_off,182,0,0,,12,,,71,127
22434,note_off,0,0,0,,2,,,74,127
22434,note_off,0,0,0,,5,,,65,127
22434,note_off,0,0,0,,2,,,62,127
22436,note_on,2,0,0,,3,,,75,127
22436,note_on,0,0,0,,0,,,72,127
22436,note_on,0,0,0,,0,,,60,127
22436,note_on,0,0,0,,3,,,63,127
22618,note_off,182,0,0,,3,,,63,127
22618,note_off,0,0,0,,0,,,60,127
22618,note_off,0,0,0,,0,,,72,127
22618,note_off,0,0,0,,3,,,75,127
22620,note_on,2,0,0,,5,,,65,127
22620,note_on,0,0,0,,2,,,62,127
22804,note_on,184,0,0,,2,,,74,127
22804,note_on,0,0,0,,12,,,71,127
22986,note_off,182,0,0,,12,,,71,127
22986,note_off,0,0,0,,2,,,74,127
22986,note_off,0,0,0,,2,,,62,127
22986,note_off,0,0,0,,5,,,65,127
22988,note_on,2,0,0,,3,,,75,127
22988,note_on,0,0,0,,0,,,72,127
22988,note_on,0,0,0,,0,,,60,127
22988,note_on,0,0,0,,3,,,63,127
23170,note_off,182,0,0,,3,,,63,127
23170,note_off,0,0,0,,0,,,60,127
23170,note_off,0,0,0,,0,,,72,127
23170,note_off,0,0,0,,3,,,75,127
23176,note_on,6,0,0,,12,,,59,127
23176,note_on,0,0,0,,5,,,65,127
23360,note_on,184,0,0,,5,,,77,127
23360,note_on,0,0,0,,2,,,74,127
23542,note_off,182,0,0,,2,,,74,127
23542,note_off,0,0,0,,5,,,77,127
23542,note_off,0,0,0,,5,,,65,127
23542,note_off,0,0,0,,12,,,59,127
23544,note_on,2,0,0,,0,,,60,127
23544,note_on,0,0,0,,7,,,67,127
23544,note_on,0,0,0,,0,,,72,127
23544,note_on,0,0,0,,3,,,75,127
23726,note_off,182,0,0,,3,,,75,127
23726,note_off,0,0,0,,0,,,72,127
23726,note_off,0,0,0,,7,,,67,127
23726,note_off,0,0,0,,0,,,60,127
23728,note_on,2,0,0,,12,,,59,127
23728,note_on,0,0,0,,5,,,65,127
23912,note_on,184,0,0,,5,,,77,127
23912,note_on,0,0,0,,2,,,74,127
24094,note_off,182,0,0,,2,,,74,127
24094,note_off,0,0,0,,5,,,77,127
24094,note_off,0,0,0,,5,,,65,127
24094,note_off,0,0,0,,12,,,59,127
24096,note_on,2,0,0,,7,,,67,127
24096,note_on,0,0,0,,0,,,60,127
24096,note_on,0,0,0,,3,,,75,127
24096,note_on,0,0,0,,0,,,72,127
24278,note_off,182,0,0,,0,,,72,127
24278,note_off,0,0,0,,3,,,75,127
24278,note_off,0,0,0,,0,,,60,127
24278,note_off,0,0,0,,7,,,67,127
24288,note_on,10,0,0,,10,,,57,127
24288,note_on,0,0,0,,0,,,60,127
24472,note_on,184,0,0,,3,,,75,127
24472,note_on,0,0,0,,6,,,78,127
24472,note_on,0,0,0,,0,,,72,127
24654,note_off,182,0,0,,0,,,72,127
24654,note_off,0,0,0,,6,,,78,127
24654,note_off,0,0,0,,3,,,75,127
24654,note_off,0,0,0,,0,,,60,127
24654,note_off,0,0,0,,10,,,57,127
24656,note_on,2,0,0,,11,,,58,127
24656,note_on,0,0,0,,2,,,62,127
24656,note_on,0,0,0,,11,,,70,127
24656,note_on,0,0,0,,7,,,79,127
24656,note_on,0,0,0,,2,,,74,127
24838,note_off,182,0,0,,2,,,74,127
24838,note_off,0,0,0,,7,,,79,127
24838,note_off,0,0,0,,11,,,70,127
24838,note_off,0,0,0,,2,,,62,127
24838,note_off,0,0,0,,11,,,58,127
24840,note_on,2,0,0,,0,,,60,127
24840,note_on,0,0,0,,10,,,57,127
25024,note_on,184,0,0,,3,,,75,127
25024,note_on,0,0,0,,0,,,72,127
25024,note_on,0,0,0,,6,,,78,127
25206,note_off,182,0,0,,6,,,78,127
25206,note_off,0,0,0,,0,,,72,127
25206,note_off,0,0,0,,3,,,75,127
25206,note_off,0,0,0,,10,,,57,127
25206,note_off,0,0,0,,0,,,60,127
25208,note_on,2,0,0,,11,,,58,127
25208,note_on,0,0,0,,2,,,62,127
25208,note_on,0,0,0,,11,,,70,127
25208,note_on,0,0,0,,2,,,74,127
25208,note_on,0,0,0,,7,,,79,127
25390,note_off,182,0,0,,7,,,79,127
25390,note_off,0,0,0,,2,,,74,127
25390,note_off,0,0,0,,11,,,70,127
25390,note_off,0,0,0,,2,,,62,127
25390,note_off,0,0,0,,11,,,58,127
25392,note_on,2,0,0,,6,,,54,127
25392,note_on,0,0,0,,2,,,62,127
25576,note_on,184,0,0,,6,,,78,127
25576,note_on,0,0,0,,2,,,74,127
25576,note_on,0,0,0,,10,,,81,127
25758,note_off,182,0,0,,10,,,81,127
25758,note_off,0,0,0,,6,,,78,127
25758,note_off,0,0,0,,2,,,62,127
25758,note_off,0,0,0,,6,,,54,127
25760,note_on,2,0,0,,7,,,55,127
25760,note_on,0,0,0,,11,,,82,127
25760,note_on,0,0,0,,7,,,79,127
25940,note_off,180,0,0,,2,,,74,127
25942,note_off,2,0,0,,7,,,79,127
25942,note_off,0,0,0,,11,,,82,127
25942,note_off,0,0,0,,7,,,55,127
25944,note_on,2,0,0,,6,,,54,127
25944,note_on,0,0,0,,2,,,62,127
26128,note_on,184,0,0,,2,,,74,127
26128,note_on,0,0,0,,6,,,78,127
26128,note_on,0,0,0,,10,,,81,127
26310,note_off,182,0,0,,10,,,81,127
26310,note_off,0,0,0,,6,,,78,127
26310,note_off,0,0,0,,2,,,62,127
26310,note_off,0,0,0,,6,,,54,127
26312,note_on,2,0,0,,7,,,55,127
26312,note_on,0,0,0,,7,,,79,127
26312,note_on,0,0,0,,11,,,82,127
26492,note_off,180,0,0,,2,,,74,127
26494,note_off,2,0,0,,11,,,82,127
26494,note_off,0,0,0,,7,,,79,127
26494,note_off,0,0,0,,7,,,55,127
26504,note_on,10,0,0,,6,,,54,127
26688,note_on,184,0,0,,3,,,75,127
26688,note_on,0,0,0,,0,,,84,127
26688,note_on,0,0,0,,10,,,81,127
26870,note_off,182,0,0,,10,,,81,127
26870,note_off,0,0,0,,0,,,84,127
26870,note_off,0,0,0,,3,,,75,127
26870,note_off,0,0,0,,6,,,54,127
26872,note_on,2,0,0,,7,,,55,127
26872,note_on,0,0,0,,7,,,79,127
26872,note_on,0,0,0,,2,,,74,127
26872,note_on,0,0,0,,11,,,82,127
27054,note_off,182,0,0,,11,,,82,127
27054,note_off,0,0,0,,2,,,74,127
27054,note_off,0,0,0,,7,,,79,127
27054,note_off,0,0,0,,7,,,55,127
27056,note_on,2,0,0,,2,,,50,127
27056,note_on,0,0,0,,11,,,82,127
27056,note_on,0,0,0,,2,,,74,127
27238,note_off,182,0,0,,2,,,74,127
27238,note_off,0,0,0,,11,,,82,127
27240,note_on,2,0,0,,10,,,81,127
27240,note_on,0,0,0,,0,,,72,127
27422,note_off,182,0,0,,0,,,72,127
27422,note_off,0,0,0,,10,,,81,127
27422,note_off,0,0,0,,2,,,50,127
27424,note_on,2,0,0,,3,,,51,127
27424,note_on,0,0,0,,7,,,79,127
27424,note_on,0,0,0,,11,,,70,127
27606,note_off,182,0,0,,11,,,70,127
27606,note_off,0,0,0,,7,,,79,127
27606,note_off,0,0,0,,3,,,51,127
27608,note_on,2,0,0,,0,,,48,127
27608,note_on,0,0,0,,10,,,81,127
27608,note_on,0,0,0,,0,,,72,127
27790,note_off,182,0,0,,0,,,72,127
27790,note_off,0,0,0,,10,,,81,127
27790,note_off,0,0,0,,0,,,48,127
27792,note_on,2,0,0,,2,,,50,127
27792,note_on,0,0,0,,11,,,70,127
27792,note_on,0,0,0,,7,,,79,127
27974,note_off,182,0,0,,7,,,79,127
27974,note_off,0,0,0,,11,,,70,127
27974,note_off,0,0,0,,2,,,50,127
27976,note_on,2,0,0,,2,,,38,127
27976,note_on,0,0,0,,6,,,78,127
27976,note_on,0,0,0,,10,,,69,127
28158,note_off,182,0,0,,10,,,69,127
28158,note_off,0,0,0,,6,,,78,127
28158,note_off,0,0,0,,2,,,38,127
28160,note_on,2,0,0,,7,,,43,127
28160,note_on,0,0,0,,7,,,55,127
28160,note_on,0,0,0,,10,,,69,127
28160,note_on,0,0,0,,6,,,78,127
28527,note_off,367,0,0,,6,,,78,127
28527,note_off,0,0,0,,10,,,69,127
28529,note_on,2,0,0,,7,,,67,127
28529,note_on,0,0,0,,7,,,79,127
28711,note_off,182,0,0,,7,,,55,127
28711,note_off,0,0,0,,7,,,43,127
28749,note_off,38,0,0,,7,,,79,127
28749,note_off,0,0,0,,7,,,67,127
28751,note_on,2,0,0,,6,,,66,127
28935,note_on,184,0,0,,0,,,72,127
28935,note_on,0,0,0,,10,,,69,127
28935,note_on,0,0,0,,2,,,74,127
29117,note_off,182,0,0,,10,,,69,127
29117,note_off,0,0,0,,0,,,72,127
29117,note_off,0,0,0,,6,,,66,127
29119,note_on,2,0,0,,7,,,67,127
29119,note_on,0,0,0,,11,,,70,127
29299,note_off,180,0,0,,2,,,74,127
29301,note_off,2,0,0,,11,,,70,127
29301,note_off,0,0,0,,7,,,67,127
29303,note_on,2,0,0,,6,,,66,127
29487,note_on,184,0,0,,0,,,72,127
29487,note_on,0,0,0,,10,,,69,127
29487,note_on,0,0,0,,2,,,74,127
29669,note_off,182,0,0,,10,,,69,127
29669,note_off,0,0,0,,0,,,72,127
29669,note_off,0,0,0,,6,,,66,127
29671,note_on,2,0,0,,7,,,67,127
29671,note_on,0,0,0,,11,,,70,127
29851,note_off,180,0,0,,2,,,74,127
29853,note_off,2,0,0,,11,,,70,127
29853,note_off,0,0,0,,7,,,67,127
29863,note_on,10,0,0,,5,,,65,127
29863,note_on,0,0,0,,2,,,62,127
30047,note_on,184,0,0,,12,,,71,127
30047,note_on,0,0,0,,2,,,74,127
30229,note_off,182,0,0,,2,,,74,127
30229,note_off,0,0,0,,12,,,71,127
30229,note_off,0,0,0,,2,,,62,127
30229,note_off,0,0,0,,5,,,65,127
30231,note_on,2,0,0,,3,,,63,127
30231,note_on,0,0,0,,0,,,60,127
30231,note_on,0,0,0,,3,,,75,127
30231,note_on,0,0,0,,0,,,72,127
30413,note_off,182,0,0,,0,,,72,127
30413,note_off,0,0,0,,3,,,75,127
30413,note_off,0,0,0,,0,,,60,127
30413,note_off,0,0,0,,3,,,63,127
30415,note_on,2,0,0,,2,,,62,127
30415,note_on,0,0,0,,5,,,65,127
30599,note_on,184,0,0,,12,,,71,127
30599,note_on,0,0,0,,2,,,74,127
30781,note_off,182,0,0,,2,,,74,127
30781,note_off,0,0,0,,12,,,71,127
30781,note_off,0,0,0,,5,,,65,127
30781,note_off,0,0,0,,2,,,62,127
30783,note_on,2,0,0,,3,,,63,127
30783,note_on,0,0,0,,0,,,60,127
30783,note_on,0,0,0,,3,,,75,127
30783,note_on,0,0,0,,0,,,72,127
30965,note_off,182,0,0,,0,,,72,127
30965,note_off,0,0,0,,3,,,75,127
30965,note_off,0,0,0,,0,,,60,127
30965,note_off,0,0,0,,3,,,63,127
30975,note_on,10,0,0,,12,,,59,127
30975,note_on,0,0,0,,5,,,65,127
31159,note_on,184,0,0,,2,,,74,127
31159,note_on,0,0,0,,5,,,77,127
31341,note_off,182,0,0,,5,,,77,127
31341,note_off,0,0,0,,2,,,74,127
31341,note_off,0,0,0,,5,,,65,127
31341,note_off,0,0,0,,12,,,59,127
31343,note_on,2,0,0,,0,,,60,127
31343,note_on,0,0,0,,7,,,67,127
31343,note_on,0,0,0,,3,,,75,127
31343,note_on,0,0,0,,0,,,72,127
31525,note_off,182,0,0,,0,,,72,127
31525,note_off,0,0,0,,3,,,75,127
31525,note_off,0,0,0,,7,,,67,127
31525,note_off,0,0,0,,0,,,60,127
31527,note_on,2,0,0,,5,,,65,127
31527,note_on,0,0,0,,12,,,59,127
31711,note_on,184,0,0,,5,,,77,127
31711,note_on,0,0,0,,2,,,74,127
31893,note_off,182,0,0,,2,,,74,127
31893,note_off,0,0,0,,5,,,77,127
31893,note_off,0,0,0,,12,,,59,127
31893,note_off,0,0,0,,5,,,65,127
31895,note_on,2,0,0,,0,,,60,127
31895,note_on,0,0,0,,7,,,67,127
31895,note_on,0,0,0,,3,,,75,127
31895,note_on,0,0,0,,0,,,72,127
32077,note_off,182,0,0,,0,,,72,127
32077,note_off,0,0,0,,3,,,75,127
32077,note_off,0,0,0,,7,,,67,127
32077,note_off,0,0,0,,0,,,60,127
32087,note_on,10,0,0,,0,,,60,127
32087,note_on,0,0,0,,10,,,57,127
32271,note_on,184,0,0,,0,,,72,127
32271,note_on,0,0,0,,3,,,75,127
32271,note_on,0,0,0,,6,,,78,127
32453,note_off,182,0,0,,6,,,78,127
32453,note_off,0,0,0,,3,,,75,127
32453,note_off,0,0,0,,0,,,72,127
32453,note_off,0,0,0,,10,,,57,127
32453,note_off,0,0,0,,0,,,60,127
32455,note_on,2,0,0,,2,,,62,127
32455,note_on,0,0,0,,11,,,58,127
32455,note_on,0,0,0,,2,,,74,127
32455,note_on,0,0,0,,11,,,70,127
32455,note_on,0,0,0,,7,,,79,127
32637,note_off,182,0,0,,7,,,79,127
32637,note_off,0,0,0,,11,,,70,127
32637,note_off,0,0,0,,2,,,74,127
32637,note_off,0,0,0,,11,,,58,127
32637,note_off,0,0,0,,2,,,62,127
32639,note_on,2,0,0,,0,,,60,127
32639,note_on,0,0,0,,10,,,57,127
32823,note_on,184,0,0,,3,,,75,127
32823,note_on,0,0,0,,0,,,72,127
32823,note_on,0,0,0,,6,,,78,127
33005,note_off,182,0,0,,6,,,78,127
33005,note_off,0,0,0,,0,,,72,127
33005,note_off,0,0,0,,3,,,75,127
33005,note_off,0,0,0,,10,,,57,127
33005,note_off,0,0,0,,0,,,60,127
33007,note_on,2,0,0,,11,,,58,127
33007,note_on,0,0,0,,2,,,62,127
33007,note_on,0,0,0,,11,,,70,127
33007,note_on,0,0,0,,7,,,79,127
33007,note_on,0,0,0,,2,,,74,127
33189,note_off,182,0,0,,2,,,74,127
33189,note_off,0,0,0,,7,,,79,127
33189,note_off,0,0,0,,11,,,70,127
33189,note_off,0,0,0,,2,,,62,127
33189,note_off,0,0,0,,11,,,58,127
33199,note_on,10,0,0,,6,,,54,127
33199,note_on,0,0,0,,2,,,62,127
33383,note_on,184,0,0,,6,,,78,127
33383,note_on,0,0,0,,2,,,74,127
33383,note_on,0,0,0,,10,,,81,127
33565,note_off,182,0,0,,10,,,81,127
33565,note_off,0,0,0,,6,,,78,127
33565,note_off,0,0,0,,2,,,62,127
33565,note_off,0,0,0,,6,,,54,127
33567,note_on,2,0,0,,7,,,55,127
33567,note_on,0,0,0,,11,,,82,127
33567,note_on,0,0,0,,7,,,79,127
33747,note_off,180,0,0,,2,,,74,127
33749,note_off,2,0,0,,7,,,79,127
33749,note_off,0,0,0,,11,,,82,127
33749,note_off,0,0,0,,7,,,55,127
33751,note_on,2,0,0,,6,,,54,127
33751,note_on,0,0,0,,2,,,62,127
33935,note_on,184,0,0,,6,,,78,127
33935,note_on,0,0,0,,10,,,81,127
33935,note_on,0,0,0,,2,,,74,127
34117,note_off,182,0,0,,10,,,81,127
34117,note_off,0,0,0,,6,,,78,127
34117,note_off,0,0,0,,2,,,62,127
34117,note_off,0,0,0,,6,,,54,127
34119,note_on,2,0,0,,7,,,55,127
34119,note_on,0,0,0,,11,,,82,127
34119,note_on,0,0,0,,7,,,79,127
34299,note_off,180,0,0,,2,,,74,127
34301,note_off,2,0,0,,7,,,79,127
34301,note_off,0,0,0,,11,,,82,127
34301,note_off,0,0,0,,7,,,55,127
34311,note_on,10,0,0,,6,,,54,127
34495,note_on,184,0,0,,10,,,81,127
34495,note_on,0,0,0,,3,,,75,127
34495,note_on,0,0,0,,0,,,84,127
34677,note_off,182,0,0,,0,,,84,127
34677,note_off,0,0,0,,3,,,75,127
34677,note_off,0,0,0,,10,,,81,127
34677,note_off,0,0,0,,6,,,54,127
34679,note_on,2,0,0,,7,,,55,127
34679,note_on,0,0,0,,7,,,79,127
34679,note_on,0,0,0,,2,,,74,127
34679,note_on,0,0,0,,11,,,82,127
34861,note_off,182,0,0,,11,,,82,127
34861,note_off,0,0,0,,2,,,74,127
34861,note_off,0,0,0,,7,,,79,127
34861,note_off,0,0,0,,7,,,55,127
34863,note_on,2,0,0,,2,,,50,127
34863,note_on,0,0,0,,2,,,74,127
34863,note_on,0,0,0,,11,,,82,127
35045,note_off,182,0,0,,11,,,82,127
35045,note_off,0,0,0,,2,,,74,127
35047,note_on,2,0,0,,10,,,81,127
35047,note_on,0,0,0,,0,,,72,127
35229,note_off,182,0,0,,0,,,72,127
35229,note_off,0,0,0,,10,,,81,127
35229,note_off,0,0,0,,2,,,50,127
35231,note_on,2,0,0,,3,,,51,127
35231,note_on,0,0,0,,11,,,70,127
35231,note_on,0,0,0,,7,,,79,127
35413,note_off,182,0,0,,7,,,79,127
35413,note_off,0,0,0,,11,,,70,127
35413,note_off,0,0,0,,3,,,51,127
35415,note_on,2,0,0,,0,,,48,127
35415,note_on,0,0,0,,10,,,81,127
35415,note_on,0,0,0,,0,,,72,127
35597,note_off,182,0,0,,0,,,72,127
35597,note_off,0,0,0,,10,,,81,127
35597,note_off,0,0,0,,0,,,48,127
35599,note_on,2,0,0,,2,,,50,127
35599,note_on,0,0,0,,7,,,79,127
35599,note_on,0,0,0,,11,,,70,127
35781,note_off,182,0,0,,11,,,70,127
35781,note_off,0,0,0,,7,,,79,127
35783,note_on,2,0,0,,2,,,38,127
35783,note_on,0,0,0,,10,,,69,127
35783,note_on,0,0,0,,6,,,78,127
35963,note_off,180,0,0,,2,,,50,127
35965,note_off,2,0,0,,6,,,78,127
35965,note_off,0,0,0,,10,,,69,127
35965,note_off,0,0,0,,2,,,38,127
35967,note_on,2,0,0,,7,,,55,127
35967,note_on,0,0,0,,6,,,78,127
35967,note_on,0,0,0,,10,,,69,127
36149,note_off,182,0,0,,7,,,55,127
36158,note_off,9,0,0,,10,,,69,127
36158,note_off,0,0,0,,6,,,78,127
36167,note_on,9,0,0,,7,,,79,127
36167,note_on,0,0,0,,7,,,67,127
36167,note_on,0,0,0,,10,,,57,127
36349,note_off,182,0,0,,10,,,57,127
36349,note_off,0,0,0,,7,,,67,127
36349,note_off,0,0,0,,7,,,79,127
36359,note_on,10,0,0,,12,,,59,127
36541,note_off,182,0,0,,12,,,59,127
36543,note_on,2,0,0,,0,,,60,127
36725,note_off,182,0,0,,0,,,60,127
36727,note_on,2,0,0,,6,,,78,127
36727,note_on,0,0,0,,7,,,67,127
36727,note_on,0,0,0,,2,,,62,127
36817,note_off,90,0,0,,6,,,78,127
36819,note_on,2,0,0,,7,,,79,127
36909,note_off,90,0,0,,7,,,79,127
36911,note_on,2,0,0,,2,,,74,127
36911,note_on,0,0,0,,6,,,54,127
36938,note_off,27,0,0,,2,,,62,127
37092,note_off,154,0,0,,7,,,67,127
37094,note_off,2,0,0,,6,,,54,127
37096,note_on,2,0,0,,7,,,55,127
37188,note_off,92,0,0,,2,,,74,127
37278,note_off,90,0,0,,7,,,55,127
37280,note_on,2,0,0,,10,,,57,127
37462,note_off,182,0,0,,10,,,57,127
37464,note_on,2,0,0,,12,,,59,127
37646,note_off,182,0,0,,12,,,59,127
37648,note_on,2,0,0,,0,,,60,127
37830,note_off,182,0,0,,0,,,60,127
37832,note_on,2,0,0,,6,,,78,127
37832,note_on,0,0,0,,7,,,67,127
37832,note_on,0,0,0,,2,,,62,127
37922,note_off,90,0,0,,6,,,78,127
37924,note_on,2,0,0,,7,,,79,127
38014,note_off,90,0,0,,7,,,79,127
38016,note_on,2,0,0,,2,,,74,127
38016,note_on,0,0,0,,6,,,54,127
38043,note_off,27,0,0,,2,,,62,127
38197,note_off,154,0,0,,7,,,67,127
38199,note_off,2,0,0,,6,,,54,127
38201,note_on,2,0,0,,7,,,55,127
38293,note_off,92,0,0,,2,,,74,127
38383,note_off,90,0,0,,7,,,55,127
38385,note_on,2,0,0,,10,,,57,127
38567,note_off,182,0,0,,10,,,57,127
38569,note_on,2,0,0,,12,,,59,127
38751,note_off,182,0,0,,12,,,59,127
38753,note_on,2,0,0,,0,,,60,127
38935,note_off,182,0,0,,0,,,60,127
38937,note_on,2,0,0,,6,,,78,127
38937,note_on,0,0,0,,7,,,67,127
38937,note_on,0,0,0,,2,,,62,127
39027,note_off,90,0,0,,6,,,78,127
39029,note_on,2,0,0,,7,,,79,127
39119,note_off,90,0,0,,7,,,79,127
39121,note_on,2,0,0,,2,,,74,127
39121,note_on,0,0,0,,6,,,54,127
39148,note_off,27,0,0,,2,,,62,127
39302,note_off,154,0,0,,7,,,67,127
39304,note_off,2,0,0,,6,,,54,127
39306,note_on,2,0,0,,7,,,55,127
39488,note_off,182,0,0,,7,,,55,127
39488,note_off,0,0,0,,2,,,74,127
39490,note_on,2,0,0,,0,,,72,127
39490,note_on,0,0,0,,10,,,57,127
39672,note_off,182,0,0,,10,,,57,127
39672,note_off,0,0,0,,0,,,72,127
39674,note_on,2,0,0,,12,,,71,127
39674,note_on,0,0,0,,12,,,59,127
39856,note_off,182,0,0,,12,,,59,127
39856,note_off,0,0,0,,12,,,71,127
39858,note_on,2,0,0,,12,,,71,127
39858,note_on,0,0,0,,0,,,60,127
39948,note_off,90,0,0,,12,,,71,127
39950,note_on,2,0,0,,10,,,69,127
40040,note_off,90,0,0,,10,,,69,127
40040,note_off,0,0,0,,0,,,60,127
40042,note_on,2,0,0,,7,,,67,127
40042,note_on,0,0,0,,2,,,62,127
40224,note_off,182,0,0,,2,,,62,127
40224,note_off,0,0,0,,7,,,67,127
40226,note_on,2,0,0,,6,,,66,127
40226,note_on,0,0,0,,2,,,50,127
40408,note_off,182,0,0,,2,,,50,127
40408,note_off,0,0,0,,6,,,66,127
40410,note_on,2,0,0,,7,,,67,127
40410,note_on,0,0,0,,7,,,55,127
40592,note_off,182,0,0,,7,,,55,127
40600,note_on,8,0,0,,10,,,57,127
40782,note_off,182,0,0,,10,,,57,127
40794,note_on,12,0,0,,12,,,59,127
40976,note_off,182,0,0,,12,,,59,127
40978,note_on,2,0,0,,0,,,60,127
41082,note_off,104,0,0,,7,,,67,127
41161,note_off,79,0,0,,0,,,60,127
41163,note_on,2,0,0,,2,,,62,127
41163,note_on,0,0,0,,7,,,67,127
41163,note_on,0,0,0,,6,,,78,127
41253,note_off,90,0,0,,6,,,78,127
41255,note_on,2,0,0,,7,,,79,127
41345,note_off,90,0,0,,7,,,79,127
41347,note_on,2,0,0,,6,,,54,127
41347,note_on,0,0,0,,2,,,74,127
41393,note_off,46,0,0,,2,,,62,127
41527,note_off,134,0,0,,7,,,67,127
41529,note_off,2,0,0,,6,,,54,127
41531,note_on,2,0,0,,7,,,55,127
41623,note_off,92,0,0,,2,,,74,127
41713,note_off,90,0,0,,7,,,55,127
41715,note_on,2,0,0,,10,,,57,127
41897,note_off,182,0,0,,10,,,57,127
41899,note_on,2,0,0,,12,,,59,127
42081,note_off,182,0,0,,12,,,59,127
42083,note_on,2,0,0,,0,,,60,127
42265,note_off,182,0,0,,0,,,60,127
42267,note_on,2,0,0,,2,,,62,127
42267,note_on,0,0,0,,7,,,67,127
42267,note_on,0,0,0,,6,,,78,127
42357,note_off,90,0,0,,6,,,78,127
42359,note_on,2,0,0,,7,,,79,127
42449,note_off,90,0,0,,7,,,79,127
42451,note_on,2,0,0,,6,,,54,127
42451,note_on,0,0,0,,2,,,74,127
42497,note_off,46,0,0,,2,,,62,127
42631,note_off,134,0,0,,7,,,67,127
42633,note_off,2,0,0,,6,,,54,127
42635,note_on,2,0,0,,7,,,55,127
42727,note_off,92,0,0,,2,,,74,127
42817,note_off,90,0,0,,7,,,55,127
42819,note_on,2,0,0,,10,,,57,127
43001,note_off,182,0,0,,10,,,57,127
43003,note_on,2,0,0,,12,,,59,127
43185,note_off,182,0,0,,12,,,59,127
43187,note_on,2,0,0,,0,,,60,127
43369,note_off,182,0,0,,0,,,60,127
43371,note_on,2,0,0,,2,,,62,127
43371,note_on,0,0,0,,6,,,78,127
43371,note_on,0,0,0,,7,,,67,127
43461,note_off,90,0,0,,6,,,78,127
43463,note_on,2,0,0,,7,,,79,127
43553,note_off,90,0,0,,7,,,79,127
43555,note_on,2,0,0,,6,,,54,127
43555,note_on,0,0,0,,2,,,74,127
43601,note_off,46,0,0,,2,,,62,127
43735,note_off,134,0,0,,7,,,67,127
43737,note_off,2,0,0,,6,,,54,127
43739,note_on,2,0,0,,7,,,55,127
43921,note_off,182,0,0,,7,,,55,127
43921,note_off,0,0,0,,2,,,74,127
43923,note_on,2,0,0,,10,,,57,127
43923,note_on,0,0,0,,0,,,72,127
44105,note_off,182,0,0,,0,,,72,127
44105,note_off,0,0,0,,10,,,57,127
44107,note_on,2,0,0,,12,,,59,127
44107,note_on,0,0,0,,12,,,71,127
44289,note_off,182,0,0,,12,,,71,127
44289,note_off,0,0,0,,12,,,59,127
44291,note_on,2,0,0,,0,,,60,127
44291,note_on,0,0,0,,12,,,71,127
44381,note_off,90,0,0,,12,,,71,127
44383,note_on,2,0,0,,10,,,69,127
44473,note_off,90,0,0,,10,,,69,127
44473,note_off,0,0,0,,0,,,60,127
44475,note_on,2,0,0,,2,,,62,127
44475,note_on,0,0,0,,7,,,67,127
44657,note_off,182,0,0,,7,,,67,127
44659,note_on,2,0,0,,2,,,50,127
44659,note_on,0,0,0,,6,,,66,127
44839,note_off,180,0,0,,2,,,62,127
44841,note_off,2,0,0,,6,,,66,127
44841,note_off,0,0,0,,2,,,50,127
44843,note_on,2,0,0,,7,,,55,127
44843,note_on,0,0,0,,6,,,66,127
45053,note_on,210,0,0,,7,,,43,127
45150,note_off,97,0,0,,6,,,66,127
45259,note_on,109,0,0,,7,,,67,127
45303,note_off,44,0,0,,7,,,55,127
45404,note_off,101,0,0,,7,,,43,127
45451,note_off,47,0,0,,7,,,67,127
45472,note_on,21,0,0,,7,,,67,127
45656,note_on,184,0,0,,7,,,79,127
45836,note_off,180,0,0,,7,,,67,127
45838,note_off,2,0,0,,7,,,79,127
45840,note_on,2,0,0,,2,,,74,127
46022,note_off,182,0,0,,2,,,74,127
46024,note_on,2,0,0,,7,,,55,127
46024,note_on,0,0,0,,0,,,72,127
46206,note_off,182,0,0,,0,,,72,127
46208,note_on,2,0,0,,7,,,67,127
46208,note_on,0,0,0,,12,,,71,127
46390,note_off,182,0,0,,12,,,71,127
46390,note_off,0,0,0,,7,,,67,127
46392,note_on,2,0,0,,2,,,62,127
46392,note_on,0,0,0,,0,,,72,127
46574,note_off,182,0,0,,0,,,72,127
46574,note_off,0,0,0,,2,,,62,127
46575,note_off,1,0,0,,7,,,55,127
46576,note_on,1,0,0,,12,,,59,127
46576,note_on,0,0,0,,7,,,55,127
46576,note_on,0,0,0,,2,,,74,127
46760,note_on,184,0,0,,7,,,67,127
46940,note_off,180,0,0,,2,,,74,127
46942,note_off,2,0,0,,7,,,67,127
46942,note_off,0,0,0,,12,,,59,127
46944,note_on,2,0,0,,0,,,60,127
46944,note_on,0,0,0,,4,,,76,127
47126,note_off,182,0,0,,4,,,76,127
47126,note_off,0,0,0,,0,,,60,127
47127,note_off,1,0,0,,7,,,55,127
47128,note_on,1,0,0,,2,,,62,127
47128,note_on,0,0,0,,7,,,55,127
47128,note_on,0,0,0,,7,,,79,127
47310,note_off,182,0,0,,7,,,79,127
47312,note_on,2,0,0,,5,,,77,127
47494,note_off,182,0,0,,5,,,77,127
47494,note_off,0,0,0,,2,,,62,127
47496,note_on,2,0,0,,0,,,60,127
47496,note_on,0,0,0,,4,,,76,127
47678,note_off,182,0,0,,4,,,76,127
47678,note_off,0,0,0,,0,,,60,127
47679,note_off,1,0,0,,7,,,55,127
47680,note_on,1,0,0,,12,,,59,127
47680,note_on,0,0,0,,7,,,55,127
47680,note_on,0,0,0,,4,,,76,127
47862,note_off,182,0,0,,4,,,76,127
47864,note_on,2,0,0,,2,,,74,127
48046,note_off,182,0,0,,2,,,74,127
48046,note_off,0,0,0,,12,,,59,127
48048,note_on,2,0,0,,0,,,60,127
48048,note_on,0,0,0,,0,,,72,127
48230,note_off,182,0,0,,0,,,72,127
48230,note_off,0,0,0,,0,,,60,127
48231,note_off,1,0,0,,7,,,55,127
48232,note_on,1,0,0,,2,,,62,127
48232,note_on,0,0,0,,7,,,55,127
48232,note_on,0,0,0,,12,,,71,127
48414,note_off,182,0,0,,12,,,71,127
48414,note_off,0,0,0,,2,,,62,127
48416,note_on,2,0,0,,4,,,64,127
48416,note_on,0,0,0,,2,,,74,127
48506,note_off,90,0,0,,2,,,74,127
48508,note_on,2,0,0,,0,,,72,127
48598,note_off,90,0,0,,0,,,72,127
48598,note_off,0,0,0,,4,,,64,127
48600,note_on,2,0,0,,0,,,60,127
48600,note_on,0,0,0,,12,,,71,127
48690,note_off,90,0,0,,12,,,71,127
48692,note_on,2,0,0,,0,,,72,127
48782,note_off,90,0,0,,0,,,72,127
48782,note_off,0,0,0,,0,,,60,127
48783,note_off,1,0,0,,7,,,55,127
48784,note_on,1,0,0,,7,,,55,127
48784,note_on,0,0,0,,0,,,72,127
48994,note_on,210,0,0,,7,,,43,127
49177,note_off,183,0,0,,0,,,72,127
49210,note_on,33,0,0,,2,,,74,127
49245,note_off,35,0,0,,7,,,55,127
49512,note_off,267,0,0,,7,,,43,127
49585,note_off,73,0,0,,2,,,74,127
49929,note_on,344,0,0,,0,,,60,127
49929,note_on,0,0,0,,4,,,64,127
50113,note_on,184,0,0,,7,,,67,127
50113,note_on,0,0,0,,7,,,79,127
50295,note_off,182,0,0,,7,,,79,127
50297,note_on,2,0,0,,4,,,76,127
50479,note_off,182,0,0,,4,,,76,127
50479,note_off,0,0,0,,4,,,64,127
50479,note_off,0,0,0,,0,,,60,127
50481,note_on,2,0,0,,11,,,58,127
50481,note_on,0,0,0,,2,,,62,127
50664,note_off,183,0,0,,7,,,67,127
50665,note_on,1,0,0,,7,,,67,127
50665,note_on,0,0,0,,7,,,79,127
50847,note_off,182,0,0,,7,,,79,127
50849,note_on,2,0,0,,2,,,74,127
51031,note_off,182,0,0,,2,,,74,127
51031,note_off,0,0,0,,2,,,62,127
51031,note_off,0,0,0,,11,,,58,127
51033,note_on,2,0,0,,10,,,57,127
51033,note_on,0,0,0,,4,,,64,127
51216,note_off,183,0,0,,7,,,67,127
51217,note_on,1,0,0,,7,,,79,127
51217,note_on,0,0,0,,7,,,67,127
51399,note_off,182,0,0,,7,,,79,127
51401,note_on,2,0,0,,1,,,73,127
51581,note_off,180,0,0,,7,,,67,127
51583,note_off,2,0,0,,1,,,73,127
51583,note_off,0,0,0,,4,,,64,127
51583,note_off,0,0,0,,10,,,57,127
51585,note_on,2,0,0,,2,,,50,127
51585,note_on,0,0,0,,2,,,62,127
51585,note_on,0,0,0,,7,,,79,127
51675,note_off,90,0,0,,7,,,79,127
51677,note_on,2,0,0,,5,,,77,127
51767,note_off,90,0,0,,5,,,77,127
51769,note_on,2,0,0,,4,,,76,127
51951,note_off,182,0,0,,4,,,76,127
51953,note_on,2,0,0,,2,,,74,127
52135,note_off,182,0,0,,2,,,62,127
52135,note_off,0,0,0,,2,,,50,127
52164,note_on,29,0,0,,5,,,65,127
52164,note_on,0,0,0,,2,,,62,127
52320,note_off,156,0,0,,2,,,74,127
52353,note_on,33,0,0,,10,,,81,127
52353,note_on,0,0,0,,10,,,69,127
52535,note_off,182,0,0,,10,,,81,127
52537,note_on,2,0,0,,5,,,77,127
52716,note_off,179,0,0,,2,,,62,127
52716,note_off,0,0,0,,5,,,65,127
52720,note_off,4,0,0,,5,,,77,127
52722,note_on,2,0,0,,4,,,64,127
52722,note_on,0,0,0,,0,,,60,127
52905,note_off,183,0,0,,10,,,69,127
52906,note_on,1,0,0,,10,,,69,127
52906,note_on,0,0,0,,10,,,81,127
53088,note_off,182,0,0,,10,,,81,127
53090,note_on,2,0,0,,4,,,76,127
53272,note_off,182,0,0,,4,,,76,127
53272,note_off,0,0,0,,0,,,60,127
53272,note_off,0,0,0,,4,,,64,127
53274,note_on,2,0,0,,12,,,59,127
53274,note_on,0,0,0,,6,,,66,127
53457,note_off,183,0,0,,10,,,69,127
53458,note_on,1,0,0,,10,,,81,127
53458,note_on,0,0,0,,10,,,69,127
53640,note_off,182,0,0,,10,,,81,127
53642,note_on,2,0,0,,3,,,75,127
53822,note_off,180,0,0,,10,,,69,127
53824,note_off,2,0,0,,3,,,75,127
53824,note_off,0,0,0,,6,,,66,127
53824,note_off,0,0,0,,12,,,59,127
53826,note_on,2,0,0,,4,,,52,127
53826,note_on,0,0,0,,4,,,64,127
53826,note_on,0,0,0,,10,,,81,127
53916,note_off,90,0,0,,10,,,81,127
53918,note_on,2,0,0,,8,,,80,127
54008,note_off,90,0,0,,8,,,80,127
54010,note_on,2,0,0,,6,,,78,127
54192,note_off,182,0,0,,6,,,78,127
54194,note_on,2,0,0,,4,,,76,127
54376,note_off,182,0,0,,4,,,64,127
54376,note_off,0,0,0,,4,,,52,127
54405,note_on,29,0,0,,4,,,64,127
54405,note_on,0,0,0,,8,,,68,127
54470,note_off,65,0,0,,4,,,76,127
54593,note_on,123,0,0,,2,,,74,127
54593,note_on,0,0,0,,12,,,71,127
54775,note_off,182,0,0,,2,,,74,127
54777,note_on,2,0,0,,12,,,83,127
54956,note_off,179,0,0,,8,,,68,127
54956,note_off,0,0,0,,4,,,64,127
54958,note_off,2,0,0,,12,,,71,127
54960,note_off,2,0,0,,12,,,83,127
54962,note_on,2,0,0,,10,,,69,127
55146,note_on,184,0,0,,0,,,72,127
55146,note_on,0,0,0,,4,,,76,127
55328,note_off,182,0,0,,4,,,76,127
55330,note_on,2,0,0,,0,,,84,127
55510,note_off,180,0,0,,0,,,72,127
55512,note_off,2,0,0,,0,,,84,127
55512,note_off,0,0,0,,10,,,69,127
55514,note_on,2,0,0,,4,,,64,127
55514,note_on,0,0,0,,8,,,68,127
55698,note_on,184,0,0,,2,,,74,127
55698,note_on,0,0,0,,12,,,71,127
55880,note_off,182,0,0,,2,,,74,127
55882,note_on,2,0,0,,12,,,83,127
56062,note_off,180,0,0,,12,,,71,127
56064,note_off,2,0,0,,12,,,83,127
56064,note_off,0,0,0,,8,,,68,127
56064,note_off,0,0,0,,4,,,64,127
56066,note_on,2,0,0,,10,,,69,127
56250,note_on,184,0,0,,4,,,76,127
56250,note_on,0,0,0,,0,,,72,127
56432,note_off,182,0,0,,4,,,76,127
56434,note_on,2,0,0,,0,,,84,127
56614,note_off,180,0,0,,0,,,72,127
56616,note_off,2,0,0,,0,,,84,127
56616,note_off,0,0,0,,10,,,69,127
56633,note_on,17,0,0,,5,,,65,127
56817,note_on,184,0,0,,10,,,69,127
56817,note_on,0,0,0,,0,,,72,127
56999,note_off,182,0,0,,0,,,72,127
57001,note_on,2,0,0,,10,,,81,127
57183,note_off,182,0,0,,5,,,65,127
57185,note_on,2,0,0,,2,,,62,127
57367,note_off,182,0,0,,10,,,81,127
57368,note_off,1,0,0,,10,,,69,127
57369,note_on,1,0,0,,10,,,69,127
57369,note_on,0,0,0,,5,,,65,127
57551,note_off,182,0,0,,10,,,69,127
57553,note_on,2,0,0,,5,,,77,127
57735,note_off,182,0,0,,2,,,62,127
57737,note_on,2,0,0,,12,,,59,127
57919,note_off,182,0,0,,5,,,77,127
57920,note_off,1,0,0,,5,,,65,127
57921,note_on,1,0,0,,2,,,62,127
57921,note_on,0,0,0,,5,,,65,127
58103,note_off,182,0,0,,5,,,65,127
58105,note_on,2,0,0,,2,,,74,127
58285,note_off,180,0,0,,2,,,62,127
58287,note_off,2,0,0,,12,,,59,127
58289,note_on,2,0,0,,8,,,56,127
58489,note_off,200,0,0,,2,,,74,127
58489,note_on,0,0,0,,8,,,68,127
58489,note_on,0,0,0,,4,,,64,127
58489,note_on,0,0,0,,2,,,74,127
58489,note_on,0,0,0,,12,,,71,127
58656,note_off,167,0,0,,8,,,56,127
58671,note_off,15,0,0,,12,,,71,127
58671,note_off,0,0,0,,2,,,74,127
58671,note_off,0,0,0,,8,,,68,127
58673,note_on,2,0,0,,10,,,57,127
58673,note_on,0,0,0,,0,,,72,127
58853,note_off,180,0,0,,4,,,64,127
58855,note_off,2,0,0,,0,,,72,127
58855,note_off,0,0,0,,10,,,57,127
58857,note_on,2,0,0,,4,,,52,127
58857,note_on,0,0,0,,0,,,72,127
59039,note_off,182,0,0,,0,,,72,127
59041,note_on,2,0,0,,12,,,71,127
59223,note_off,182,0,0,,12,,,71,127
59223,note_off,0,0,0,,4,,,52,127
59225,note_on,2,0,0,,5,,,53,127
59225,note_on,0,0,0,,10,,,69,127
59407,note_off,182,0,0,,10,,,69,127
59407,note_off,0,0,0,,5,,,53,127
59409,note_on,2,0,0,,2,,,50,127
59409,note_on,0,0,0,,12,,,71,127
59591,note_off,182,0,0,,12,,,71,127
59591,note_off,0,0,0,,2,,,50,127
59593,note_on,2,0,0,,4,,,52,127
59593,note_on,0,0,0,,10,,,69,127
59775,note_off,182,0,0,,10,,,69,127
59777,note_on,2,0,0,,4,,,40,127
59777,note_on,0,0,0,,8,,,68,127
59957,note_off,180,0,0,,4,,,52,127
59959,note_off,2,0,0,,8,,,68,127
59959,note_off,0,0,0,,4,,,40,127
59967,note_on,8,0,0,,10,,,69,127
59967,note_on,0,0,0,,10,,,45,127
60169,note_on,202,0,0,,4,,,76,127
60169,note_on,0,0,0,,1,,,73,127
60332,note_off,163,0,0,,10,,,69,127
60334,note_off,2,0,0,,10,,,45,127
60351,note_off,17,0,0,,1,,,73,127
60351,note_off,0,0,0,,4,,,76,127
60353,note_on,2,0,0,,2,,,74,127
60353,note_on,0,0,0,,5,,,77,127
60353,note_on,0,0,0,,2,,,62,127
60535,note_off,182,0,0,,2,,,62,127
60535,note_off,0,0,0,,5,,,77,127
60535,note_off,0,0,0,,2,,,74,127
60537,note_on,2,0,0,,1,,,61,127
60721,note_on,184,0,0,,4,,,76,127
60721,note_on,0,0,0,,7,,,79,127
60721,note_on,0,0,0,,10,,,69,127
60721,note_on,0,0,0,,1,,,73,127
60903,note_off,182,0,0,,1,,,73,127
60903,note_off,0,0,0,,7,,,79,127
60903,note_off,0,0,0,,4,,,76,127
60903,note_off,0,0,0,,1,,,61,127
60905,note_on,2,0,0,,2,,,74,127
60905,note_on,0,0,0,,5,,,77,127
60905,note_on,0,0,0,,2,,,62,127
61085,note_off,180,0,0,,10,,,69,127
61087,note_off,2,0,0,,2,,,62,127
61087,note_off,0,0,0,,5,,,77,127
61087,note_off,0,0,0,,2,,,74,127
61089,note_on,2,0,0,,1,,,61,127
61273,note_on,184,0,0,,7,,,79,127
61273,note_on,0,0,0,,1,,,73,127
61273,note_on,0,0,0,,4,,,76,127
61273,note_on,0,0,0,,10,,,69,127
61455,note_off,182,0,0,,4,,,76,127
61455,note_off,0,0,0,,1,,,73,127
61455,note_off,0,0,0,,7,,,79,127
61455,note_off,0,0,0,,1,,,61,127
61457,note_on,2,0,0,,5,,,77,127
61457,note_on,0,0,0,,2,,,62,127
61637,note_off,180,0,0,,10,,,69,127
61639,note_off,2,0,0,,2,,,62,127
61639,note_off,0,0,0,,5,,,77,127
61641,note_on,2,0,0,,5,,,77,127
61641,note_on,0,0,0,,10,,,57,127
61823,note_off,182,0,0,,5,,,77,127
61825,note_on,2,0,0,,4,,,76,127
62007,note_off,182,0,0,,4,,,76,127
62007,note_off,0,0,0,,10,,,57,127
62009,note_on,2,0,0,,2,,,74,127
62009,note_on,0,0,0,,11,,,58,127
62191,note_off,182,0,0,,11,,,58,127
62191,note_off,0,0,0,,2,,,74,127
62193,note_on,2,0,0,,4,,,76,127
62193,note_on,0,0,0,,7,,,55,127
62375,note_off,182,0,0,,7,,,55,127
62375,note_off,0,0,0,,4,,,76,127
62377,note_on,2,0,0,,2,,,74,127
62377,note_on,0,0,0,,10,,,57,127
62559,note_off,182,0,0,,2,,,74,127
62561,note_on,2,0,0,,1,,,73,127
62561,note_on,0,0,0,,10,,,45,127
62741,note_off,180,0,0,,10,,,57,127
62743,note_off,2,0,0,,10,,,45,127
62743,note_off,0,0,0,,1,,,73,127
62745,note_on,2,0,0,,2,,,74,127
62745,note_on,0,0,0,,2,,,50,127
62933,note_off,188,0,0,,2,,,50,127
62933,note_on,0,0,0,,4,,,52,127
62933,note_on,0,0,0,,10,,,81,127
62976,note_off,43,0,0,,2,,,74,127
63121,note_off,145,0,0,,10,,,81,127
63121,note_off,0,0,0,,4,,,52,127
63121,note_on,0,0,0,,5,,,77,127
63121,note_on,0,0,0,,5,,,53,127
63303,note_off,182,0,0,,5,,,53,127
63303,note_off,0,0,0,,5,,,77,127
63305,note_on,2,0,0,,2,,,74,127
63305,note_on,0,0,0,,7,,,55,127
63487,note_off,182,0,0,,7,,,55,127
63487,note_off,0,0,0,,2,,,74,127
63489,note_on,2,0,0,,12,,,71,127
63489,note_on,0,0,0,,10,,,57,127
63671,note_off,182,0,0,,10,,,57,127
63671,note_off,0,0,0,,12,,,71,127
63673,note_on,2,0,0,,5,,,65,127
63673,note_on,0,0,0,,12,,,59,127
63855,note_off,182,0,0,,12,,,59,127
63855,note_off,0,0,0,,5,,,65,127
63857,note_on,2,0,0,,4,,,64,127
63857,note_on,0,0,0,,0,,,60,127
64039,note_off,182,0,0,,4,,,64,127
64056,note_on,17,0,0,,7,,,79,127
64238,note_off,182,0,0,,7,,,79,127
64240,note_on,2,0,0,,0,,,48,127
64240,note_on,0,0,0,,4,,,76,127
64408,note_off,168,0,0,,0,,,60,127
64422,note_off,14,0,0,,4,,,76,127
64422,note_off,0,0,0,,0,,,48,127
64424,note_on,2,0,0,,2,,,50,127
64424,note_on,0,0,0,,0,,,72,127
64606,note_off,182,0,0,,0,,,72,127
64606,note_off,0,0,0,,2,,,50,127
64608,note_on,2,0,0,,4,,,52,127
64608,note_on,0,0,0,,0,,,72,127
64698,note_off,90,0,0,,0,,,72,127
64700,note_on,2,0,0,,11,,,70,127
64790,note_off,90,0,0,,11,,,70,127
64790,note_off,0,0,0,,4,,,52,127
64792,note_on,2,0,0,,0,,,48,127
64792,note_on,0,0,0,,10,,,69,127
64882,note_off,90,0,0,,10,,,69,127
64884,note_on,2,0,0,,11,,,70,127
64974,note_off,90,0,0,,11,,,70,127
64974,note_off,0,0,0,,0,,,48,127
64976,note_on,2,0,0,,5,,,53,127
64976,note_on,0,0,0,,10,,,69,127
65158,note_off,182,0,0,,10,,,69,127
65158,note_off,0,0,0,,5,,,53,127
65164,note_on,6,0,0,,11,,,70,127
65164,note_on,0,0,0,,7,,,55,127
65346,note_off,182,0,0,,7,,,55,127
65346,note_off,0,0,0,,11,,,70,127
65356,note_on,10,0,0,,0,,,72,127
65356,note_on,0,0,0,,10,,,57,127
65538,note_off,182,0,0,,10,,,57,127
65538,note_off,0,0,0,,0,,,72,127
65544,note_on,6,0,0,,2,,,74,127
65544,note_on,0,0,0,,11,,,58,127
65728,note_on,184,0,0,,5,,,65,127
65889,note_off,161,0,0,,2,,,74,127
65910,note_off,21,0,0,,5,,,65,127
65910,note_off,0,0,0,,11,,,58,127
65912,note_on,2,0,0,,4,,,76,127
65912,note_on,0,0,0,,7,,,55,127
66094,note_off,182,0,0,,7,,,55,127
66094,note_off,0,0,0,,4,,,76,127
66096,note_on,2,0,0,,5,,,77,127
66096,note_on,0,0,0,,10,,,57,127
66280,note_on,184,0,0,,0,,,72,127
66384,note_off,104,0,0,,5,,,77,127
66463,note_off,79,0,0,,0,,,72,127
66463,note_off,0,0,0,,10,,,57,127
66465,note_on,2,0,0,,7,,,79,127
66465,note_on,0,0,0,,4,,,52,127
66647,note_off,182,0,0,,4,,,52,127
66647,note_off,0,0,0,,7,,,79,127
66649,note_on,2,0,0,,10,,,81,127
66649,note_on,0,0,0,,5,,,53,127
66833,note_on,184,0,0,,0,,,72,127
66975,note_off,142,0,0,,10,,,81,127
67015,note_off,40,0,0,,0,,,72,127
67015,note_off,0,0,0,,5,,,53,127
67017,note_on,2,0,0,,0,,,84,127
67017,note_on,0,0,0,,2,,,50,127
67061,note_off,44,0,0,,0,,,84,127
67063,note_on,2,0,0,,12,,,83,127
67107,note_off,44,0,0,,12,,,83,127
67109,note_on,2,0,0,,10,,,81,127
67153,note_off,44,0,0,,10,,,81,127
67155,note_on,2,0,0,,12,,,83,127
67199,note_off,44,0,0,,12,,,83,127
67199,note_off,0,0,0,,2,,,50,127
67201,note_on,2,0,0,,0,,,84,127
67201,note_on,0,0,0,,4,,,52,127
67385,note_on,184,0,0,,0,,,72,127
67565,note_off,180,0,0,,0,,,84,127
67584,note_off,19,0,0,,4,,,52,127
67584,note_on,0,0,0,,0,,,48,127
67584,note_on,0,0,0,,7,,,79,127
67586,note_off,2,0,0,,0,,,72,127
67766,note_off,180,0,0,,7,,,79,127
67766,note_off,0,0,0,,0,,,48,127
67768,note_on,2,0,0,,5,,,53,127
67768,note_on,0,0,0,,10,,,81,127
67952,note_on,184,0,0,,5,,,77,127
67958,note_off,6,0,0,,10,,,81,127
68135,note_off,177,0,0,,5,,,77,127
68135,note_off,0,0,0,,5,,,53,127
68137,note_on,2,0,0,,2,,,50,127
68137,note_on,0,0,0,,0,,,84,127
68181,note_off,44,0,0,,0,,,84,127
68183,note_on,2,0,0,,12,,,83,127
68227,note_off,44,0,0,,12,,,83,127
68229,note_on,2,0,0,,10,,,81,127
68273,note_off,44,0,0,,10,,,81,127
68275,note_on,2,0,0,,12,,,83,127
68319,note_off,44,0,0,,12,,,83,127
68319,note_off,0,0,0,,2,,,50,127
68321,note_on,2,0,0,,0,,,48,127
68321,note_on,0,0,0,,12,,,83,127
68701,note_on,380,0,0,,0,,,84,127
68704,note_off,3,0,0,,12,,,83,127
68897,note_off,193,0,0,,0,,,48,127
68935,note_on,38,0,0,,4,,,64,127
68935,note_on,0,0,0,,7,,,67,127
68938,note_off,3,0,0,,0,,,84,127
69119,note_on,181,0,0,,0,,,72,127
69119,note_on,0,0,0,,11,,,82,127
69301,note_off,182,0,0,,11,,,82,127
69301,note_off,0,0,0,,7,,,67,127
69301,note_off,0,0,0,,4,,,64,127
69303,note_on,2,0,0,,5,,,65,127
69303,note_on,0,0,0,,8,,,80,127
69483,note_off,180,0,0,,0,,,72,127
69485,note_off,2,0,0,,8,,,80,127
69485,note_off,0,0,0,,5,,,65,127
69487,note_on,2,0,0,,4,,,64,127
69487,note_on,0,0,0,,7,,,67,127
69671,note_on,184,0,0,,11,,,82,127
69671,note_on,0,0,0,,0,,,72,127
69853,note_off,182,0,0,,11,,,82,127
69853,note_off,0,0,0,,7,,,67,127
69853,note_off,0,0,0,,4,,,64,127
69855,note_on,2,0,0,,5,,,65,127
69855,note_on,0,0,0,,8,,,80,127
70035,note_off,180,0,0,,0,,,72,127
70037,note_off,2,0,0,,8,,,80,127
70037,note_off,0,0,0,,5,,,65,127
70047,note_on,10,0,0,,2,,,62,127
70047,note_on,0,0,0,,5,,,65,127
70231,note_on,184,0,0,,8,,,80,127
70231,note_on,0,0,0,,12,,,71,127
70413,note_off,182,0,0,,12,,,71,127
70413,note_off,0,0,0,,8,,,80,127
70413,note_off,0,0,0,,5,,,65,127
70413,note_off,0,0,0,,2,,,62,127
70415,note_on,2,0,0,,3,,,63,127
70415,note_on,0,0,0,,7,,,67,127
70415,note_on,0,0,0,,7,,,79,127
70415,note_on,0,0,0,,0,,,72,127
70597,note_off,182,0,0,,0,,,72,127
70597,note_off,0,0,0,,7,,,79,127
70597,note_off,0,0,0,,7,,,67,127
70597,note_off,0,0,0,,3,,,63,127
70599,note_on,2,0,0,,5,,,65,127
70599,note_on,0,0,0,,2,,,62,127
70783,note_on,184,0,0,,8,,,80,127
70783,note_on,0,0,0,,12,,,71,127
70965,note_off,182,0,0,,12,,,71,127
70965,note_off,0,0,0,,8,,,80,127
70965,note_off,0,0,0,,2,,,62,127
70965,note_off,0,0,0,,5,,,65,127
70967,note_on,2,0,0,,3,,,63,127
70967,note_on,0,0,0,,7,,,67,127
70967,note_on,0,0,0,,0,,,72,127
70967,note_on,0,0,0,,7,,,79,127
71149,note_off,182,0,0,,7,,,79,127
71149,note_off,0,0,0,,0,,,72,127
71149,note_off,0,0,0,,7,,,67,127
71149,note_off,0,0,0,,3,,,63,127
71166,note_on,17,0,0,,12,,,59,127
71350,note_on,184,0,0,,5,,,77,127
71350,note_on,0,0,0,,2,,,74,127
71532,note_off,182,0,0,,2,,,74,127
71532,note_off,0,0,0,,5,,,77,127
71532,note_off,0,0,0,,12,,,59,127
71534,note_on,2,0,0,,3,,,75,127
71534,note_on,0,0,0,,0,,,72,127
71534,note_on,0,0,0,,0,,,60,127
71716,note_off,182,0,0,,0,,,60,127
71716,note_off,0,0,0,,0,,,72,127
71716,note_off,0,0,0,,3,,,75,127
71718,note_on,2,0,0,,12,,,59,127
71902,note_on,184,0,0,,2,,,74,127
71902,note_on,0,0,0,,5,,,77,127
72084,note_off,182,0,0,,5,,,77,127
72084,note_off,0,0,0,,2,,,74,127
72084,note_off,0,0,0,,12,,,59,127
72086,note_on,2,0,0,,3,,,75,127
72086,note_on,0,0,0,,0,,,72,127
72086,note_on,0,0,0,,0,,,60,127
72268,note_off,182,0,0,,0,,,60,127
72268,note_off,0,0,0,,0,,,72,127
72268,note_off,0,0,0,,3,,,75,127
72270,note_on,2,0,0,,12,,,59,127
72454,note_on,184,0,0,,12,,,71,127
72454,note_on,0,0,0,,7,,,67,127
72454,note_on,0,0,0,,2,,,74,127
72454,note_on,0,0,0,,5,,,77,127
72636,note_off,182,0,0,,5,,,77,127
72636,note_off,0,0,0,,2,,,74,127
72636,note_off,0,0,0,,12,,,59,127
72638,note_on,2,0,0,,3,,,75,127
72638,note_on,0,0,0,,0,,,60,127
72646,note_off,8,0,0,,12,,,71,127
72819,note_off,173,0,0,,7,,,67,127
72821,note_off,2,0,0,,0,,,60,127
72821,note_off,0,0,0,,3,,,75,127
72823,note_on,2,0,0,,3,,,75,127
72823,note_on,0,0,0,,7,,,55,127
73005,note_off,182,0,0,,3,,,75,127
73007,note_on,2,0,0,,2,,,74,127
73189,note_off,182,0,0,,2,,,74,127
73189,note_off,0,0,0,,7,,,55,127
73191,note_on,2,0,0,,0,,,72,127
73191,note_on,0,0,0,,8,,,56,127
73373,note_off,182,0,0,,8,,,56,127
73373,note_off,0,0,0,,0,,,72,127
73375,note_on,2,0,0,,2,,,74,127
73375,note_on,0,0,0,,5,,,53,127
73557,note_off,182,0,0,,5,,,53,127
73557,note_off,0,0,0,,2,,,74,127
73559,note_on,2,0,0,,0,,,72,127
73559,note_on,0,0,0,,7,,,55,127
73741,note_off,182,0,0,,7,,,55,127
73741,note_off,0,0,0,,0,,,72,127
73743,note_on,2,0,0,,12,,,71,127
73743,note_on,0,0,0,,7,,,43,127
73925,note_off,182,0,0,,7,,,43,127
73925,note_off,0,0,0,,12,,,71,127
73927,note_on,2,0,0,,12,,,71,127
73927,note_on,0,0,0,,0,,,48,127
74294,note_off,367,0,0,,12,,,71,127
74296,note_on,2,0,0,,0,,,72,127
74478,note_off,182,0,0,,0,,,48,127
74495,note_on,17,0,0,,4,,,64,127
74572,note_off,77,0,0,,0,,,72,127
74680,note_on,108,0,0,,7,,,67,127
74680,note_on,0,0,0,,11,,,70,127
74680,note_on,0,0,0,,0,,,72,127
74862,note_off,182,0,0,,11,,,70,127
74862,note_off,0,0,0,,7,,,67,127
74862,note_off,0,0,0,,4,,,64,127
74864,note_on,2,0,0,,5,,,65,127
74864,note_on,0,0,0,,8,,,68,127
75044,note_off,180,0,0,,0,,,72,127
75046,note_off,2,0,0,,8,,,68,127
75046,note_off,0,0,0,,5,,,65,127
75048,note_on,2,0,0,,4,,,64,127
75232,note_on,184,0,0,,7,,,67,127
75232,note_on,0,0,0,,0,,,72,127
75232,note_on,0,0,0,,11,,,70,127
75414,note_off,182,0,0,,11,,,70,127
75414,note_off,0,0,0,,7,,,67,127
75414,note_off,0,0,0,,4,,,64,127
75416,note_on,2,0,0,,5,,,65,127
75416,note_on,0,0,0,,8,,,68,127
75596,note_off,180,0,0,,0,,,72,127
75598,note_off,2,0,0,,8,,,68,127
75598,note_off,0,0,0,,5,,,65,127
75600,note_on,2,0,0,,5,,,65,127
75600,note_on,0,0,0,,2,,,62,127
75784,note_on,184,0,0,,8,,,68,127
75784,note_on,0,0,0,,12,,,71,127
75966,note_off,182,0,0,,12,,,71,127
75966,note_off,0,0,0,,8,,,68,127
75966,note_off,0,0,0,,2,,,62,127
75966,note_off,0,0,0,,5,,,65,127
75968,note_on,2,0,0,,3,,,63,127
75968,note_on,0,0,0,,0,,,72,127
75968,note_on,0,0,0,,7,,,67,127
76150,note_off,182,0,0,,7,,,67,127
76150,note_off,0,0,0,,0,,,72,127
76150,note_off,0,0,0,,3,,,63,127
76152,note_on,2,0,0,,5,,,65,127
76152,note_on,0,0,0,,2,,,62,127
76336,note_on,184,0,0,,12,,,71,127
76336,note_on,0,0,0,,8,,,68,127
76518,note_off,182,0,0,,8,,,68,127
76518,note_off,0,0,0,,12,,,71,127
76518,note_off,0,0,0,,2,,,62,127
76518,note_off,0,0,0,,5,,,65,127
76520,note_on,2,0,0,,3,,,63,127
76520,note_on,0,0,0,,7,,,67,127
76520,note_on,0,0,0,,0,,,72,127
76702,note_off,182,0,0,,0,,,72,127
76702,note_off,0,0,0,,7,,,67,127
76702,note_off,0,0,0,,3,,,63,127
76704,note_on,2,0,0,,12,,,59,127
76704,note_on,0,0,0,,2,,,62,127
76888,note_on,184,0,0,,7,,,67,127
76888,note_on,0,0,0,,12,,,71,127
76888,note_on,0,0,0,,2,,,74,127
77070,note_off,182,0,0,,2,,,74,127
77070,note_off,0,0,0,,12,,,71,127
77070,note_off,0,0,0,,2,,,62,127
77070,note_off,0,0,0,,12,,,59,127
77072,note_on,2,0,0,,0,,,60,127
77072,note_on,0,0,0,,3,,,75,127
77072,note_on,0,0,0,,0,,,72,127
77252,note_off,180,0,0,,7,,,67,127
77254,note_off,2,0,0,,0,,,72,127
77254,note_off,0,0,0,,3,,,75,127
77254,note_off,0,0,0,,0,,,60,127
77256,note_on,2,0,0,,12,,,59,127
77256,note_on,0,0,0,,2,,,62,127
77440,note_on,184,0,0,,12,,,71,127
77440,note_on,0,0,0,,7,,,67,127
77440,note_on,0,0,0,,2,,,74,127
77622,note_off,182,0,0,,2,,,74,127
77622,note_off,0,0,0,,12,,,71,127
77622,note_off,0,0,0,,2,,,62,127
77622,note_off,0,0,0,,12,,,59,127
77624,note_on,2,0,0,,0,,,60,127
77624,note_on,0,0,0,,0,,,72,127
77624,note_on,0,0,0,,3,,,75,127
77804,note_off,180,0,0,,7,,,67,127
77806,note_off,2,0,0,,3,,,75,127
77806,note_off,0,0,0,,0,,,72,127
77806,note_off,0,0,0,,0,,,60,127
77808,note_on,2,0,0,,12,,,59,127
77992,note_on,184,0,0,,7,,,67,127
77992,note_on,0,0,0,,5,,,77,127
77992,note_on,0,0,0,,2,,,74,127
77992,note_on,0,0,0,,12,,,71,127
78174,note_off,182,0,0,,12,,,71,127
78174,note_off,0,0,0,,2,,,74,127
78174,note_off,0,0,0,,5,,,77,127
78174,note_off,0,0,0,,12,,,59,127
78176,note_on,2,0,0,,0,,,60,127
78176,note_on,0,0,0,,3,,,75,127
78356,note_off,180,0,0,,7,,,67,127
78358,note_off,2,0,0,,3,,,75,127
78358,note_off,0,0,0,,0,,,60,127
78360,note_on,2,0,0,,7,,,55,127
78360,note_on,0,0,0,,3,,,75,127
78542,note_off,182,0,0,,3,,,75,127
78544,note_on,2,0,0,,2,,,74,127
78726,note_off,182,0,0,,2,,,74,127
78726,note_off,0,0,0,,7,,,55,127
78728,note_on,2,0,0,,8,,,56,127
78728,note_on,0,0,0,,0,,,72,127
78910,note_off,182,0,0,,0,,,72,127
78910,note_off,0,0,0,,8,,,56,127
78912,note_on,2,0,0,,5,,,53,127
78912,note_on,0,0,0,,2,,,74,127
79094,note_off,182,0,0,,2,,,74,127
79094,note_off,0,0,0,,5,,,53,127
79096,note_on,2,0,0,,7,,,55,127
79096,note_on,0,0,0,,0,,,72,127
79278,note_off,182,0,0,,0,,,72,127
79280,note_on,2,0,0,,7,,,43,127
79280,note_on,0,0,0,,12,,,71,127
79460,note_off,180,0,0,,7,,,55,127
79462,note_off,2,0,0,,12,,,71,127
79462,note_off,0,0,0,,7,,,43,127
79464,note_on,2,0,0,,0,,,60,127
79464,note_on,0,0,0,,12,,,71,127
79656,note_off,192,0,0,,12,,,71,127
79656,note_off,0,0,0,,0,,,60,127
79656,note_on,0,0,0,,2,,,62,127
79656,note_on,0,0,0,,0,,,72,127
79838,note_off,182,0,0,,2,,,62,127
79848,note_on,10,0,0,,4,,,64,127
80023,note_off,175,0,0,,0,,,72,127
80031,note_off,8,0,0,,4,,,64,127
80033,note_on,2,0,0,,5,,,65,127
80215,note_off,182,0,0,,5,,,65,127
80217,note_on,2,0,0,,12,,,83,127
80217,note_on,0,0,0,,0,,,72,127
80217,note_on,0,0,0,,7,,,67,127
80307,note_off,90,0,0,,12,,,83,127
80309,note_on,2,0,0,,0,,,84,127
80399,note_off,90,0,0,,0,,,84,127
80401,note_on,2,0,0,,7,,,79,127
80401,note_on,0,0,0,,7,,,55,127
80581,note_off,180,0,0,,7,,,67,127
80581,note_off,0,0,0,,0,,,72,127
80583,note_off,2,0,0,,7,,,55,127
80585,note_on,2,0,0,,0,,,60,127
80677,note_off,92,0,0,,7,,,79,127
80767,note_off,90,0,0,,0,,,60,127
80769,note_on,2,0,0,,2,,,62,127
80951,note_off,182,0,0,,2,,,62,127
80953,note_on,2,0,0,,4,,,64,127
81135,note_off,182,0,0,,4,,,64,127
81137,note_on,2,0,0,,5,,,65,127
81319,note_off,182,0,0,,5,,,65,127
81321,note_on,2,0,0,,0,,,72,127
81321,note_on,0,0,0,,12,,,83,127
81321,note_on,0,0,0,,7,,,67,127
81411,note_off,90,0,0,,12,,,83,127
81413,note_on,2,0,0,,0,,,84,127
81503,note_off,90,0,0,,0,,,84,127
81505,note_on,2,0,0,,7,,,79,127
81505,note_on,0,0,0,,7,,,55,127
81685,note_off,180,0,0,,7,,,67,127
81685,note_off,0,0,0,,0,,,72,127
81687,note_off,2,0,0,,7,,,55,127
81689,note_on,2,0,0,,0,,,60,127
81781,note_off,92,0,0,,7,,,79,127
81871,note_off,90,0,0,,0,,,60,127
81873,note_on,2,0,0,,2,,,62,127
82055,note_off,182,0,0,,2,,,62,127
82057,note_on,2,0,0,,4,,,64,127
82239,note_off,182,0,0,,4,,,64,127
82241,note_on,2,0,0,,5,,,65,127
82423,note_off,182,0,0,,5,,,65,127
82425,note_on,2,0,0,,12,,,83,127
82425,note_on,0,0,0,,0,,,72,127
82425,note_on,0,0,0,,7,,,67,127
82515,note_off,90,0,0,,12,,,83,127
82517,note_on,2,0,0,,0,,,84,127
82607,note_off,90,0,0,,0,,,84,127
82609,note_on,2,0,0,,7,,,79,127
82609,note_on,0,0,0,,7,,,55,127
82789,note_off,180,0,0,,7,,,67,127
82789,note_off,0,0,0,,0,,,72,127
82791,note_off,2,0,0,,7,,,55,127
82793,note_on,2,0,0,,0,,,60,127
82975,note_off,182,0,0,,0,,,60,127
82975,note_off,0,0,0,,7,,,79,127
82977,note_on,2,0,0,,5,,,77,127
82977,note_on,0,0,0,,2,,,62,127
83159,note_off,182,0,0,,2,,,62,127
83159,note_off,0,0,0,,5,,,77,127
83161,note_on,2,0,0,,4,,,76,127
83161,note_on,0,0,0,,4,,,64,127
83343,note_off,182,0,0,,4,,,64,127
83343,note_off,0,0,0,,4,,,76,127
83345,note_on,2,0,0,,4,,,76,127
83345,note_on,0,0,0,,5,,,65,127
83435,note_off,90,0,0,,4,,,76,127
83437,note_on,2,0,0,,2,,,74,127
83527,note_off,90,0,0,,2,,,74,127
83527,note_off,0,0,0,,5,,,65,127
83529,note_on,2,0,0,,0,,,72,127
83529,note_on,0,0,0,,7,,,67,127
83711,note_off,182,0,0,,7,,,67,127
83711,note_off,0,0,0,,0,,,72,127
83713,note_on,2,0,0,,12,,,71,127
83713,note_on,0,0,0,,7,,,55,127
83895,note_off,182,0,0,,7,,,55,127
83895,note_off,0,0,0,,12,,,71,127
83897,note_on,2,0,0,,12,,,71,127
83897,note_on,0,0,0,,0,,,48,127
84089,note_off,192,0,0,,0,,,48,127
84090,note_off,1,0,0,,12,,,71,127
84091,note_on,1,0,0,,2,,,50,127
84091,note_on,0,0,0,,0,,,72,127
84273,note_off,182,0,0,,0,,,72,127
84281,note_on,8,0,0,,4,,,52,127
84283,note_off,2,0,0,,2,,,50,127
84463,note_off,180,0,0,,4,,,52,127
84465,note_on,2,0,0,,5,,,53,127
84647,note_off,182,0,0,,5,,,53,127
84649,note_on,2,0,0,,7,,,55,127
84649,note_on,0,0,0,,7,,,79,127
84649,note_on,0,0,0,,12,,,71,127
84739,note_off,90,0,0,,12,,,71,127
84741,note_on,2,0,0,,0,,,72,127
84831,note_off,90,0,0,,0,,,72,127
84833,note_on,2,0,0,,7,,,43,127
84833,note_on,0,0,0,,7,,,67,127
85013,note_off,180,0,0,,7,,,79,127
85013,note_off,0,0,0,,7,,,55,127
85015,note_off,2,0,0,,7,,,43,127
85017,note_on,2,0,0,,0,,,48,127
85109,note_off,92,0,0,,7,,,67,127
85199,note_off,90,0,0,,0,,,48,127
85201,note_on,2,0,0,,2,,,50,127
85383,note_off,182,0,0,,2,,,50,127
85385,note_on,2,0,0,,4,,,52,127
85567,note_off,182,0,0,,4,,,52,127
85569,note_on,2,0,0,,5,,,53,127
85751,note_off,182,0,0,,5,,,53,127
85753,note_on,2,0,0,,7,,,55,127
85753,note_on,0,0,0,,7,,,79,127
85753,note_on,0,0,0,,12,,,71,127
85843,note_off,90,0,0,,12,,,71,127
85845,note_on,2,0,0,,0,,,72,127
85935,note_off,90,0,0,,0,,,72,127
85937,note_on,2,0,0,,7,,,43,127
85937,note_on,0,0,0,,7,,,67,127
86117,note_off,180,0,0,,7,,,79,127
86117,note_off,0,0,0,,7,,,55,127
86119,note_off,2,0,0,,7,,,43,127
86121,note_on,2,0,0,,0,,,48,127
86213,note_off,92,0,0,,7,,,67,127
86303,note_off,90,0,0,,0,,,48,127
86305,note_on,2,0,0,,2,,,50,127
86487,note_off,182,0,0,,2,,,50,127
86489,note_on,2,0,0,,4,,,52,127
86671,note_off,182,0,0,,4,,,52,127
86673,note_on,2,0,0,,5,,,53,127
86855,note_off,182,0,0,,5,,,53,127
86857,note_on,2,0,0,,7,,,55,127
86857,note_on,0,0,0,,7,,,79,127
86857,note_on,0,0,0,,12,,,71,127
86947,note_off,90,0,0,,12,,,71,127
86949,note_on,2,0,0,,0,,,72,127
87039,note_off,90,0,0,,0,,,72,127
87045,note_on,6,0,0,,7,,,67,127
87047,note_on,2,0,0,,7,,,43,127
87222,note_off,175,0,0,,7,,,79,127
87222,note_off,0,0,0,,7,,,55,127
87237,note_off,15,0,0,,7,,,67,127
87239,note_off,2,0,0,,7,,,43,127
87256,note_on,17,0,0,,0,,,48,127
87256,note_on,0,0,0,,4,,,76,127
87256,note_on,0,0,0,,7,,,79,127
87438,note_off,182,0,0,,7,,,79,127
87438,note_off,0,0,0,,4,,,76,127
87438,note_off,0,0,0,,0,,,48,127
87444,note_on,6,0,0,,5,,,77,127
87444,note_on,0,0,0,,2,,,74,127
87444,note_on,0,0,0,,2,,,50,127
87629,note_off,185,0,0,,2,,,50,127
87629,note_off,0,0,0,,2,,,74,127
87629,note_off,0,0,0,,5,,,77,127
87634,note_on,5,0,0,,4,,,76,127
87634,note_on,0,0,0,,0,,,72,127
87634,note_on,0,0,0,,4,,,52,127
87819,note_off,185,0,0,,4,,,52,127
87819,note_off,0,0,0,,0,,,72,127
87819,note_off,0,0,0,,4,,,76,127
87823,note_on,4,0,0,,5,,,77,127
87823,note_on,0,0,0,,5,,,53,127
87883,note_off,60,0,0,,5,,,77,127
87886,note_on,3,0,0,,4,,,76,127
87946,note_off,60,0,0,,4,,,76,127
87949,note_on,3,0,0,,2,,,74,127
88008,note_off,59,0,0,,5,,,53,127
88010,note_off,2,0,0,,2,,,74,127
88013,note_on,3,0,0,,4,,,76,127
88013,note_on,0,0,0,,0,,,72,127
88013,note_on,0,0,0,,7,,,55,127
88198,note_off,185,0,0,,0,,,72,127
88198,note_off,0,0,0,,4,,,76,127
88203,note_on,5,0,0,,2,,,74,127
88203,note_on,0,0,0,,12,,,71,127
88203,note_on,0,0,0,,7,,,43,127
88294,note_off,91,0,0,,7,,,55,127
88388,note_off,94,0,0,,7,,,43,127
88388,note_off,0,0,0,,12,,,71,127
88388,note_off,0,0,0,,2,,,74,127
88408,note_on,20,0,0,,0,,,36,127
88408,note_on,0,0,0,,0,,,48,127
88408,note_on,0,0,0,,12,,,71,127
88408,note_on,0,0,0,,2,,,74,127
89006,note_off,598,0,0,,2,,,74,127
89006,note_off,0,0,0,,12,,,71,127
89006,note_on,0,0,0,,0,,,72,127
90941,note_off,1935,0,0,,0,,,72,127
90941,note_off,0,0,0,,0,,,48,127
90941,note_off,0,0,0,,0,,,36,127
95232,end_of_track,4291,1,0,,,,,,
