tick,type,time,meta,track,program,channel,pitch,tempo,note,velocity
0,copyright,0,1,0,,,,,,
0,program_change,0,0,0,6,0,,,,
0,pitchwheel,0,0,0,,0,0,,,
0,program_change,0,0,0,6,1,,,,
0,pitchwheel,0,0,0,,1,-590,,,
0,program_change,0,0,0,6,2,,,,
0,pitchwheel,0,0,0,,2,-272,,,
0,program_change,0,0,0,6,3,,,,
0,pitchwheel,0,0,0,,3,-353,,,
0,program_change,0,0,0,6,4,,,,
0,pitchwheel,0,0,0,,4,-560,,,
0,program_change,0,0,0,6,5,,,,
0,pitchwheel,0,0,0,,5,-80,,,
0,program_change,0,0,0,6,6,,,,
0,pitchwheel,0,0,0,,6,-625,,,
0,program_change,0,0,0,6,7,,,,
0,pitchwheel,0,0,0,,7,-130,,,
0,program_change,0,0,0,6,8,,,,
0,pitchwheel,0,0,0,,8,-512,,,
0,program_change,0,0,0,6,10,,,,
0,pitchwheel,0,0,0,,10,-464,,,
0,program_change,0,0,0,6,11,,,,
0,pitchwheel,0,0,0,,11,-208,,,
0,program_change,0,0,0,6,12,,,,
0,pitchwheel,0,0,0,,12,-553,,,
0,set_tempo,0,1,0,,,,500000,,
140,note_on,140,0,0,,7,,,67,127
196,note_on,56,0,0,,5,,,65,127
206,note_off,10,0,0,,7,,,67,127
251,note_on,45,0,0,,7,,,67,127
261,note_off,10,0,0,,5,,,65,127
306,note_on,45,0,0,,5,,,65,127
316,note_off,10,0,0,,7,,,67,127
363,note_on,47,0,0,,4,,,64,127
372,note_off,9,0,0,,5,,,65,127
416,note_off,44,0,0,,4,,,64,127
420,note_on,4,0,0,,5,,,65,127
626,note_off,206,0,0,,5,,,65,127
630,note_on,4,0,0,,7,,,67,127
696,note_off,66,0,0,,7,,,67,127
700,note_on,4,0,0,,10,,,69,127
700,note_on,0,0,0,,5,,,65,127
977,note_off,277,0,0,,5,,,65,127
977,note_off,0,0,0,,10,,,69,127
981,note_on,4,0,0,,2,,,62,127
981,note_on,0,0,0,,11,,,70,127
1258,note_off,277,0,0,,11,,,70,127
1258,note_off,0,0,0,,2,,,62,127
1262,note_on,4,0,0,,0,,,72,127
1262,note_on,0,0,0,,4,,,64,127
1539,note_off,277,0,0,,4,,,64,127
1539,note_off,0,0,0,,0,,,72,127
1543,note_on,4,0,0,,11,,,70,127
1543,note_on,0,0,0,,0,,,60,127
1820,note_off,277,0,0,,0,,,60,127
1820,note_off,0,0,0,,11,,,70,127
1824,note_on,4,0,0,,5,,,65,127
1824,note_on,0,0,0,,11,,,70,127
1875,note_off,51,0,0,,11,,,70,127
1879,note_on,4,0,0,,10,,,69,127
1930,note_off,51,0,0,,10,,,69,127
1934,note_on,4,0,0,,11,,,70,127
1985,note_off,51,0,0,,11,,,70,127
1989,note_on,4,0,0,,10,,,69,127
2042,note_off,53,0,0,,10,,,69,127
2046,note_on,4,0,0,,7,,,67,127
2099,note_off,53,0,0,,7,,,67,127
2103,note_on,4,0,0,,10,,,69,127
2309,note_off,206,0,0,,10,,,69,127
2309,note_off,0,0,0,,5,,,65,127
2313,note_on,4,0,0,,7,,,67,127
2313,note_on,0,0,0,,11,,,70,127
2379,note_off,66,0,0,,11,,,70,127
2379,note_off,0,0,0,,7,,,67,127
2383,note_on,4,0,0,,10,,,69,127
2383,note_on,0,0,0,,0,,,72,127
2660,note_off,277,0,0,,0,,,72,127
2660,note_off,0,0,0,,10,,,69,127
2664,note_on,4,0,0,,2,,,74,127
2664,note_on,0,0,0,,11,,,70,127
2941,note_off,277,0,0,,11,,,70,127
2941,note_off,0,0,0,,2,,,74,127
2945,note_on,4,0,0,,10,,,69,127
2945,note_on,0,0,0,,0,,,72,127
3222,note_off,277,0,0,,0,,,72,127
3222,note_off,0,0,0,,10,,,69,127
3226,note_on,4,0,0,,11,,,70,127
3226,note_on,0,0,0,,7,,,67,127
3503,note_off,277,0,0,,7,,,67,127
3503,note_off,0,0,0,,11,,,70,127
3507,note_on,4,0,0,,10,,,69,127
3507,note_on,0,0,0,,5,,,65,127
3784,note_off,277,0,0,,5,,,65,127
3784,note_off,0,0,0,,10,,,69,127
3788,note_on,4,0,0,,0,,,60,127
3788,note_on,0,0,0,,7,,,67,127
4065,note_off,277,0,0,,7,,,67,127
4065,note_off,0,0,0,,0,,,60,127
4069,note_on,4,0,0,,10,,,57,127
4069,note_on,0,0,0,,5,,,65,127
4346,note_off,277,0,0,,5,,,65,127
4346,note_off,0,0,0,,10,,,57,127
4350,note_on,4,0,0,,7,,,67,127
4350,note_on,0,0,0,,0,,,60,127
4627,note_off,277,0,0,,0,,,60,127
4627,note_off,0,0,0,,7,,,67,127
4631,note_on,4,0,0,,10,,,69,127
4631,note_on,0,0,0,,5,,,65,127
4908,note_off,277,0,0,,5,,,65,127
4908,note_off,0,0,0,,10,,,69,127
4912,note_on,4,0,0,,7,,,67,127
4912,note_on,0,0,0,,0,,,60,127
5189,note_off,277,0,0,,0,,,60,127
5189,note_off,0,0,0,,7,,,67,127
5193,note_on,4,0,0,,7,,,55,127
5193,note_on,0,0,0,,10,,,69,127
5193,note_on,0,0,0,,5,,,65,127
5244,note_off,51,0,0,,7,,,55,127
5248,note_on,4,0,0,,5,,,53,127
5299,note_off,51,0,0,,5,,,53,127
5303,note_on,4,0,0,,7,,,55,127
5354,note_off,51,0,0,,7,,,55,127
5358,note_on,4,0,0,,5,,,53,127
5411,note_off,53,0,0,,5,,,53,127
5415,note_on,4,0,0,,4,,,52,127
5468,note_off,53,0,0,,4,,,52,127
5472,note_on,4,0,0,,5,,,53,127
5678,note_off,206,0,0,,5,,,53,127
5682,note_on,4,0,0,,7,,,55,127
5748,note_off,66,0,0,,7,,,55,127
5752,note_on,4,0,0,,10,,,57,127
5752,note_on,0,0,0,,5,,,53,127
6029,note_off,277,0,0,,5,,,53,127
6029,note_off,0,0,0,,10,,,57,127
6029,note_off,0,0,0,,5,,,65,127
6029,note_off,0,0,0,,10,,,69,127
6033,note_on,4,0,0,,11,,,58,127
6033,note_on,0,0,0,,2,,,50,127
6033,note_on,0,0,0,,5,,,65,127
6310,note_off,277,0,0,,5,,,65,127
6310,note_off,0,0,0,,2,,,50,127
6310,note_off,0,0,0,,11,,,58,127
6314,note_on,4,0,0,,4,,,52,127
6314,note_on,0,0,0,,0,,,60,127
6314,note_on,0,0,0,,7,,,67,127
6591,note_off,277,0,0,,7,,,67,127
6591,note_off,0,0,0,,0,,,60,127
6591,note_off,0,0,0,,4,,,52,127
6595,note_on,4,0,0,,11,,,58,127
6595,note_on,0,0,0,,0,,,48,127
6595,note_on,0,0,0,,4,,,64,127
6872,note_off,277,0,0,,4,,,64,127
6872,note_off,0,0,0,,0,,,48,127
6872,note_off,0,0,0,,11,,,58,127
6876,note_on,4,0,0,,11,,,58,127
6876,note_on,0,0,0,,5,,,53,127
6876,note_on,0,0,0,,5,,,65,127
6927,note_off,51,0,0,,11,,,58,127
6931,note_on,4,0,0,,10,,,57,127
6982,note_off,51,0,0,,10,,,57,127
6986,note_on,4,0,0,,11,,,58,127
7037,note_off,51,0,0,,11,,,58,127
7041,note_on,4,0,0,,10,,,57,127
7094,note_off,53,0,0,,10,,,57,127
7098,note_on,4,0,0,,7,,,55,127
7151,note_off,53,0,0,,7,,,55,127
7155,note_on,4,0,0,,10,,,57,127
7361,note_off,206,0,0,,10,,,57,127
7361,note_off,0,0,0,,5,,,53,127
7365,note_on,4,0,0,,7,,,55,127
7365,note_on,0,0,0,,11,,,58,127
7431,note_off,66,0,0,,11,,,58,127
7431,note_off,0,0,0,,7,,,55,127
7435,note_on,4,0,0,,0,,,60,127
7435,note_on,0,0,0,,10,,,57,127
7712,note_off,277,0,0,,10,,,57,127
7712,note_off,0,0,0,,0,,,60,127
7716,note_on,4,0,0,,2,,,62,127
7716,note_on,0,0,0,,11,,,58,127
7993,note_off,277,0,0,,11,,,58,127
7993,note_off,0,0,0,,2,,,62,127
7993,note_off,0,0,0,,5,,,65,127
7997,note_on,4,0,0,,0,,,60,127
7997,note_on,0,0,0,,10,,,57,127
7997,note_on,0,0,0,,7,,,67,127
8072,note_off,75,0,0,,7,,,67,127
8076,note_on,4,0,0,,5,,,65,127
8152,note_off,76,0,0,,5,,,65,127
8156,note_on,4,0,0,,7,,,67,127
8232,note_off,76,0,0,,7,,,67,127
8236,note_on,4,0,0,,5,,,65,127
8273,note_off,37,0,0,,10,,,57,127
8273,note_off,0,0,0,,0,,,60,127
8277,note_on,4,0,0,,11,,,58,127
8277,note_on,0,0,0,,7,,,55,127
8311,note_off,34,0,0,,5,,,65,127
8315,note_on,4,0,0,,4,,,64,127
8391,note_off,76,0,0,,4,,,64,127
8395,note_on,4,0,0,,5,,,65,127
8471,note_off,76,0,0,,5,,,65,127
8475,note_on,4,0,0,,7,,,67,127
8553,note_off,78,0,0,,7,,,67,127
8553,note_off,0,0,0,,7,,,55,127
8553,note_off,0,0,0,,11,,,58,127
8557,note_on,4,0,0,,10,,,57,127
8557,note_on,0,0,0,,5,,,53,127
8557,note_on,0,0,0,,10,,,69,127
8834,note_off,277,0,0,,10,,,69,127
8834,note_off,0,0,0,,5,,,53,127
8834,note_off,0,0,0,,10,,,57,127
8838,note_on,4,0,0,,7,,,55,127
8838,note_on,0,0,0,,0,,,48,127
8838,note_on,0,0,0,,0,,,72,127
9115,note_off,277,0,0,,0,,,72,127
9115,note_off,0,0,0,,0,,,48,127
9115,note_off,0,0,0,,7,,,55,127
9119,note_on,4,0,0,,10,,,45,127
9119,note_on,0,0,0,,5,,,53,127
9119,note_on,0,0,0,,7,,,79,127
9185,note_off,66,0,0,,7,,,79,127
9189,note_on,4,0,0,,5,,,77,127
9255,note_off,66,0,0,,5,,,77,127
9259,note_on,4,0,0,,7,,,79,127
9325,note_off,66,0,0,,7,,,79,127
9329,note_on,4,0,0,,5,,,77,127
9395,note_off,66,0,0,,5,,,77,127
9395,note_off,0,0,0,,5,,,53,127
9395,note_off,0,0,0,,10,,,45,127
9399,note_on,4,0,0,,0,,,48,127
9399,note_on,0,0,0,,7,,,55,127
9399,note_on,0,0,0,,7,,,79,127
9465,note_off,66,0,0,,7,,,79,127
9469,note_on,4,0,0,,5,,,77,127
9535,note_off,66,0,0,,5,,,77,127
9539,note_on,4,0,0,,4,,,76,127
9605,note_off,66,0,0,,4,,,76,127
9609,note_on,4,0,0,,2,,,74,127
9675,note_off,66,0,0,,2,,,74,127
9675,note_off,0,0,0,,7,,,55,127
9675,note_off,0,0,0,,0,,,48,127
9679,note_on,4,0,0,,5,,,53,127
9679,note_on,0,0,0,,10,,,57,127
9679,note_on,0,0,0,,0,,,72,127
9956,note_off,277,0,0,,0,,,72,127
9956,note_off,0,0,0,,10,,,57,127
9956,note_off,0,0,0,,5,,,53,127
9960,note_on,4,0,0,,7,,,55,127
9960,note_on,0,0,0,,0,,,48,127
9960,note_on,0,0,0,,0,,,72,127
10237,note_off,277,0,0,,0,,,72,127
10237,note_off,0,0,0,,0,,,48,127
10237,note_off,0,0,0,,7,,,55,127
10241,note_on,4,0,0,,10,,,57,127
10241,note_on,0,0,0,,5,,,53,127
10241,note_on,0,0,0,,7,,,79,127
10307,note_off,66,0,0,,7,,,79,127
10311,note_on,4,0,0,,5,,,77,127
10377,note_off,66,0,0,,5,,,77,127
10381,note_on,4,0,0,,7,,,79,127
10447,note_off,66,0,0,,7,,,79,127
10451,note_on,4,0,0,,5,,,77,127
10517,note_off,66,0,0,,5,,,77,127
10517,note_off,0,0,0,,5,,,53,127
10517,note_off,0,0,0,,10,,,57,127
10521,note_on,4,0,0,,7,,,55,127
10521,note_on,0,0,0,,0,,,48,127
10521,note_on,0,0,0,,7,,,79,127
10587,note_off,66,0,0,,7,,,79,127
10591,note_on,4,0,0,,5,,,77,127
10657,note_off,66,0,0,,5,,,77,127
10661,note_on,4,0,0,,4,,,76,127
10727,note_off,66,0,0,,4,,,76,127
10731,note_on,4,0,0,,2,,,74,127
10797,note_off,66,0,0,,2,,,74,127
10797,note_off,0,0,0,,0,,,48,127
10797,note_off,0,0,0,,7,,,55,127
10801,note_on,4,0,0,,10,,,45,127
10801,note_on,0,0,0,,5,,,53,127
10801,note_on,0,0,0,,0,,,72,127
11007,note_off,206,0,0,,0,,,72,127
11011,note_on,4,0,0,,2,,,74,127
11077,note_off,66,0,0,,2,,,74,127
11077,note_off,0,0,0,,5,,,53,127
11077,note_off,0,0,0,,10,,,45,127
11081,note_on,4,0,0,,0,,,48,127
11081,note_on,0,0,0,,7,,,55,127
11081,note_on,0,0,0,,0,,,72,127
11287,note_off,206,0,0,,0,,,72,127
11291,note_on,4,0,0,,11,,,70,127
11357,note_off,66,0,0,,11,,,70,127
11357,note_off,0,0,0,,7,,,55,127
11357,note_off,0,0,0,,0,,,48,127
11361,note_on,4,0,0,,5,,,53,127
11361,note_on,0,0,0,,10,,,57,127
11361,note_on,0,0,0,,10,,,69,127
11567,note_off,206,0,0,,10,,,69,127
11571,note_on,4,0,0,,11,,,70,127
11637,note_off,66,0,0,,11,,,70,127
11637,note_off,0,0,0,,10,,,57,127
11637,note_off,0,0,0,,5,,,53,127
11641,note_on,4,0,0,,11,,,58,127
11641,note_on,0,0,0,,7,,,55,127
11641,note_on,0,0,0,,10,,,69,127
11847,note_off,206,0,0,,10,,,69,127
11851,note_on,4,0,0,,7,,,67,127
11917,note_off,66,0,0,,7,,,67,127
11917,note_off,0,0,0,,7,,,55,127
11917,note_off,0,0,0,,11,,,58,127
11921,note_on,4,0,0,,10,,,57,127
11921,note_on,0,0,0,,0,,,60,127
11921,note_on,0,0,0,,5,,,65,127
12127,note_off,206,0,0,,5,,,65,127
12131,note_on,4,0,0,,7,,,79,127
12197,note_off,66,0,0,,7,,,79,127
12197,note_off,0,0,0,,0,,,60,127
12197,note_off,0,0,0,,10,,,57,127
12201,note_on,4,0,0,,11,,,58,127
12201,note_on,0,0,0,,7,,,55,127
12201,note_on,0,0,0,,5,,,77,127
12407,note_off,206,0,0,,5,,,77,127
12411,note_on,4,0,0,,4,,,76,127
12477,note_off,66,0,0,,4,,,76,127
12477,note_off,0,0,0,,7,,,55,127
12477,note_off,0,0,0,,11,,,58,127
12481,note_on,4,0,0,,0,,,60,127
12481,note_on,0,0,0,,10,,,57,127
12481,note_on,0,0,0,,4,,,76,127
12687,note_off,206,0,0,,4,,,76,127
12691,note_on,4,0,0,,2,,,74,127
12757,note_off,66,0,0,,2,,,74,127
12757,note_off,0,0,0,,10,,,57,127
12757,note_off,0,0,0,,0,,,60,127
12761,note_on,4,0,0,,5,,,53,127
12761,note_on,0,0,0,,10,,,57,127
12761,note_on,0,0,0,,2,,,74,127
12967,note_off,206,0,0,,2,,,74,127
12971,note_on,4,0,0,,0,,,72,127
13037,note_off,66,0,0,,10,,,57,127
13037,note_off,0,0,0,,5,,,53,127
13041,note_on,4,0,0,,7,,,55,127
13107,note_off,66,0,0,,0,,,72,127
13111,note_on,4,0,0,,11,,,70,127
13177,note_off,66,0,0,,11,,,70,127
13181,note_on,4,0,0,,0,,,72,127
13247,note_off,66,0,0,,0,,,72,127
13251,note_on,4,0,0,,11,,,70,127
13317,note_off,66,0,0,,11,,,70,127
13317,note_off,0,0,0,,7,,,55,127
13321,note_on,4,0,0,,0,,,48,127
13321,note_on,0,0,0,,0,,,72,127
13387,note_off,66,0,0,,0,,,72,127
13391,note_on,4,0,0,,11,,,70,127
13457,note_off,66,0,0,,11,,,70,127
13461,note_on,4,0,0,,10,,,69,127
13527,note_off,66,0,0,,10,,,69,127
13531,note_on,4,0,0,,11,,,70,127
13595,note_off,64,0,0,,11,,,70,127
13596,note_off,1,0,0,,0,,,48,127
13600,note_on,4,0,0,,5,,,53,127
13600,note_on,0,0,0,,11,,,70,127
13875,note_off,275,0,0,,11,,,70,127
13881,note_on,6,0,0,,10,,,69,127
14162,note_on,281,0,0,,5,,,41,127
14439,note_off,277,0,0,,10,,,69,127
14701,note_off,262,0,0,,5,,,41,127
14720,note_off,19,0,0,,5,,,53,127
14724,note_on,4,0,0,,7,,,55,127
14775,note_off,51,0,0,,7,,,55,127
14779,note_on,4,0,0,,5,,,53,127
14830,note_off,51,0,0,,5,,,53,127
14834,note_on,4,0,0,,7,,,55,127
14885,note_off,51,0,0,,7,,,55,127
14889,note_on,4,0,0,,5,,,53,127
14942,note_off,53,0,0,,5,,,53,127
14946,note_on,4,0,0,,4,,,52,127
14999,note_off,53,0,0,,4,,,52,127
15003,note_on,4,0,0,,5,,,53,127
15209,note_off,206,0,0,,5,,,53,127
15213,note_on,4,0,0,,7,,,55,127
15279,note_off,66,0,0,,7,,,55,127
15283,note_on,4,0,0,,10,,,57,127
15283,note_on,0,0,0,,7,,,67,127
15334,note_off,51,0,0,,7,,,67,127
15338,note_on,4,0,0,,5,,,65,127
15389,note_off,51,0,0,,5,,,65,127
15393,note_on,4,0,0,,7,,,67,127
15444,note_off,51,0,0,,7,,,67,127
15448,note_on,4,0,0,,5,,,65,127
15501,note_off,53,0,0,,5,,,65,127
15505,note_on,4,0,0,,4,,,64,127
15558,note_off,53,0,0,,4,,,64,127
15558,note_off,0,0,0,,10,,,57,127
15562,note_on,4,0,0,,12,,,59,127
15562,note_on,0,0,0,,5,,,65,127
15768,note_off,206,0,0,,5,,,65,127
15772,note_on,4,0,0,,2,,,62,127
15838,note_off,66,0,0,,2,,,62,127
15838,note_off,0,0,0,,12,,,59,127
15842,note_on,4,0,0,,0,,,60,127
15842,note_on,0,0,0,,5,,,65,127
15893,note_off,51,0,0,,5,,,65,127
15897,note_on,4,0,0,,4,,,64,127
15948,note_off,51,0,0,,4,,,64,127
15952,note_on,4,0,0,,5,,,65,127
16003,note_off,51,0,0,,5,,,65,127
16007,note_on,4,0,0,,4,,,64,127
16060,note_off,53,0,0,,4,,,64,127
16064,note_on,4,0,0,,2,,,62,127
16117,note_off,53,0,0,,2,,,62,127
16117,note_off,0,0,0,,0,,,60,127
16121,note_on,4,0,0,,0,,,48,127
16121,note_on,0,0,0,,4,,,64,127
16327,note_off,206,0,0,,4,,,64,127
16331,note_on,4,0,0,,6,,,66,127
16397,note_off,66,0,0,,6,,,66,127
16397,note_off,0,0,0,,0,,,48,127
16401,note_on,4,0,0,,10,,,57,127
16401,note_on,0,0,0,,6,,,66,127
16452,note_off,51,0,0,,10,,,57,127
16456,note_on,4,0,0,,7,,,55,127
16507,note_off,51,0,0,,7,,,55,127
16511,note_on,4,0,0,,10,,,57,127
16562,note_off,51,0,0,,10,,,57,127
16566,note_on,4,0,0,,7,,,55,127
16619,note_off,53,0,0,,7,,,55,127
16623,note_on,4,0,0,,6,,,54,127
16676,note_off,53,0,0,,6,,,54,127
16676,note_off,0,0,0,,6,,,66,127
16680,note_on,4,0,0,,7,,,55,127
16680,note_on,0,0,0,,7,,,67,127
16886,note_off,206,0,0,,7,,,55,127
16890,note_on,4,0,0,,10,,,57,127
16956,note_off,66,0,0,,10,,,57,127
16956,note_off,0,0,0,,7,,,67,127
16960,note_on,4,0,0,,11,,,58,127
16960,note_on,0,0,0,,10,,,69,127
17011,note_off,51,0,0,,10,,,69,127
17015,note_on,4,0,0,,7,,,67,127
17066,note_off,51,0,0,,7,,,67,127
17070,note_on,4,0,0,,10,,,69,127
17121,note_off,51,0,0,,10,,,69,127
17125,note_on,4,0,0,,7,,,67,127
17178,note_off,53,0,0,,7,,,67,127
17182,note_on,4,0,0,,5,,,65,127
17235,note_off,53,0,0,,5,,,65,127
17235,note_off,0,0,0,,11,,,58,127
17239,note_on,4,0,0,,1,,,61,127
17239,note_on,0,0,0,,7,,,67,127
17445,note_off,206,0,0,,7,,,67,127
17449,note_on,4,0,0,,4,,,64,127
17515,note_off,66,0,0,,4,,,64,127
17515,note_off,0,0,0,,1,,,61,127
17519,note_on,4,0,0,,2,,,62,127
17519,note_on,0,0,0,,7,,,67,127
17570,note_off,51,0,0,,7,,,67,127
17574,note_on,4,0,0,,5,,,65,127
17625,note_off,51,0,0,,5,,,65,127
17629,note_on,4,0,0,,7,,,67,127
17680,note_off,51,0,0,,7,,,67,127
17684,note_on,4,0,0,,5,,,65,127
17737,note_off,53,0,0,,5,,,65,127
17741,note_on,4,0,0,,4,,,64,127
17794,note_off,53,0,0,,4,,,64,127
17794,note_off,0,0,0,,2,,,62,127
17798,note_on,4,0,0,,2,,,50,127
17798,note_on,0,0,0,,5,,,65,127
18004,note_off,206,0,0,,5,,,65,127
18008,note_on,4,0,0,,8,,,68,127
18074,note_off,66,0,0,,8,,,68,127
18074,note_off,0,0,0,,2,,,50,127
18078,note_on,4,0,0,,12,,,59,127
18078,note_on,0,0,0,,8,,,68,127
18129,note_off,51,0,0,,12,,,59,127
18133,note_on,4,0,0,,10,,,57,127
18184,note_off,51,0,0,,10,,,57,127
18188,note_on,4,0,0,,12,,,59,127
18239,note_off,51,0,0,,12,,,59,127
18243,note_on,4,0,0,,10,,,57,127
18296,note_off,53,0,0,,10,,,57,127
18300,note_on,4,0,0,,8,,,56,127
18353,note_off,53,0,0,,8,,,56,127
18353,note_off,0,0,0,,8,,,68,127
18357,note_on,4,0,0,,10,,,57,127
18357,note_on,0,0,0,,10,,,69,127
18563,note_off,206,0,0,,10,,,57,127
18567,note_on,4,0,0,,12,,,59,127
18633,note_off,66,0,0,,12,,,59,127
18633,note_off,0,0,0,,10,,,69,127
18637,note_on,4,0,0,,0,,,60,127
18637,note_on,0,0,0,,12,,,71,127
18688,note_off,51,0,0,,12,,,71,127
18692,note_on,4,0,0,,10,,,69,127
18743,note_off,51,0,0,,10,,,69,127
18747,note_on,4,0,0,,12,,,71,127
18798,note_off,51,0,0,,12,,,71,127
18802,note_on,4,0,0,,10,,,69,127
18855,note_off,53,0,0,,10,,,69,127
18859,note_on,4,0,0,,7,,,67,127
18912,note_off,53,0,0,,7,,,67,127
18912,note_off,0,0,0,,0,,,60,127
18916,note_on,4,0,0,,2,,,62,127
18916,note_on,0,0,0,,10,,,69,127
19122,note_off,206,0,0,,10,,,69,127
19126,note_on,4,0,0,,5,,,65,127
19192,note_off,66,0,0,,5,,,65,127
19192,note_off,0,0,0,,2,,,62,127
19196,note_on,4,0,0,,4,,,64,127
19196,note_on,0,0,0,,10,,,69,127
19247,note_off,51,0,0,,10,,,69,127
19251,note_on,4,0,0,,7,,,67,127
19302,note_off,51,0,0,,7,,,67,127
19306,note_on,4,0,0,,10,,,69,127
19357,note_off,51,0,0,,10,,,69,127
19361,note_on,4,0,0,,7,,,67,127
19414,note_off,53,0,0,,7,,,67,127
19418,note_on,4,0,0,,5,,,65,127
19471,note_off,53,0,0,,5,,,65,127
19471,note_off,0,0,0,,4,,,64,127
19475,note_on,4,0,0,,0,,,60,127
19475,note_on,0,0,0,,7,,,67,127
19681,note_off,206,0,0,,7,,,67,127
19685,note_on,4,0,0,,10,,,69,127
19751,note_off,66,0,0,,10,,,69,127
19751,note_off,0,0,0,,0,,,60,127
19755,note_on,4,0,0,,2,,,62,127
19755,note_on,0,0,0,,11,,,70,127
19821,note_off,66,0,0,,11,,,70,127
19825,note_on,4,0,0,,0,,,72,127
19891,note_off,66,0,0,,0,,,72,127
19895,note_on,4,0,0,,2,,,74,127
20031,note_off,136,0,0,,2,,,62,127
20035,note_on,4,0,0,,4,,,64,127
20171,note_off,136,0,0,,2,,,74,127
20175,note_on,4,0,0,,0,,,72,127
20241,note_off,66,0,0,,0,,,72,127
20245,note_on,4,0,0,,11,,,70,127
20311,note_off,66,0,0,,11,,,70,127
20311,note_off,0,0,0,,4,,,64,127
20315,note_on,4,0,0,,5,,,65,127
20315,note_on,0,0,0,,10,,,69,127
20381,note_off,66,0,0,,10,,,69,127
20385,note_on,4,0,0,,11,,,70,127
20451,note_off,66,0,0,,11,,,70,127
20455,note_on,4,0,0,,0,,,72,127
20591,note_off,136,0,0,,5,,,65,127
20595,note_on,4,0,0,,10,,,57,127
20731,note_off,136,0,0,,0,,,72,127
20735,note_on,4,0,0,,11,,,70,127
20801,note_off,66,0,0,,11,,,70,127
20805,note_on,4,0,0,,10,,,69,127
20871,note_off,66,0,0,,10,,,69,127
20871,note_off,0,0,0,,10,,,57,127
20875,note_on,4,0,0,,11,,,58,127
20875,note_on,0,0,0,,7,,,67,127
20941,note_off,66,0,0,,7,,,67,127
20945,note_on,4,0,0,,10,,,69,127
21011,note_off,66,0,0,,10,,,69,127
21015,note_on,4,0,0,,11,,,70,127
21081,note_off,66,0,0,,11,,,70,127
21085,note_on,4,0,0,,0,,,72,127
21151,note_off,66,0,0,,0,,,72,127
21151,note_off,0,0,0,,11,,,58,127
21155,note_on,4,0,0,,12,,,59,127
21155,note_on,0,0,0,,11,,,70,127
21361,note_off,206,0,0,,11,,,70,127
21365,note_on,4,0,0,,10,,,69,127
21431,note_off,66,0,0,,10,,,69,127
21431,note_off,0,0,0,,12,,,59,127
21435,note_on,4,0,0,,0,,,60,127
21435,note_on,0,0,0,,10,,,69,127
21435,note_on,0,0,0,,5,,,65,127
21782,note_off,347,0,0,,5,,,65,127
21782,note_off,0,0,0,,10,,,69,127
21786,note_on,4,0,0,,12,,,71,127
21997,note_on,211,0,0,,0,,,48,127
22274,note_off,277,0,0,,0,,,60,127
22414,note_off,140,0,0,,12,,,71,127
22418,note_on,4,0,0,,0,,,72,127
22484,note_off,66,0,0,,0,,,72,127
22488,note_on,4,0,0,,10,,,69,127
22554,note_off,66,0,0,,10,,,69,127
22558,note_on,4,0,0,,0,,,36,127
22558,note_on,0,0,0,,4,,,64,127
22558,note_on,0,0,0,,7,,,67,127
22835,note_off,277,0,0,,0,,,48,127
23116,note_off,281,0,0,,7,,,67,127
23116,note_off,0,0,0,,4,,,64,127
23120,note_on,4,0,0,,2,,,74,127
23171,note_off,51,0,0,,2,,,74,127
23175,note_on,4,0,0,,0,,,72,127
23226,note_off,51,0,0,,0,,,72,127
23230,note_on,4,0,0,,2,,,74,127
23256,note_off,26,0,0,,0,,,36,127
23281,note_off,25,0,0,,2,,,74,127
23285,note_on,4,0,0,,0,,,72,127
23338,note_off,53,0,0,,0,,,72,127
23342,note_on,4,0,0,,12,,,71,127
23395,note_off,53,0,0,,12,,,71,127
23399,note_on,4,0,0,,0,,,72,127
23605,note_off,206,0,0,,0,,,72,127
23609,note_on,4,0,0,,2,,,74,127
23675,note_off,66,0,0,,2,,,74,127
23679,note_on,4,0,0,,0,,,72,127
23679,note_on,0,0,0,,4,,,76,127
23956,note_off,277,0,0,,4,,,76,127
23956,note_off,0,0,0,,0,,,72,127
23960,note_on,4,0,0,,10,,,69,127
23960,note_on,0,0,0,,5,,,77,127
24237,note_off,277,0,0,,5,,,77,127
24237,note_off,0,0,0,,10,,,69,127
24241,note_on,4,0,0,,7,,,79,127
24241,note_on,0,0,0,,12,,,71,127
24518,note_off,277,0,0,,12,,,71,127
24518,note_off,0,0,0,,7,,,79,127
24522,note_on,4,0,0,,5,,,77,127
24522,note_on,0,0,0,,7,,,67,127
24799,note_off,277,0,0,,7,,,67,127
24799,note_off,0,0,0,,5,,,77,127
24803,note_on,4,0,0,,2,,,62,127
24803,note_on,0,0,0,,4,,,76,127
24803,note_on,0,0,0,,0,,,72,127
24854,note_off,51,0,0,,2,,,62,127
24858,note_on,4,0,0,,0,,,60,127
24909,note_off,51,0,0,,0,,,60,127
24913,note_on,4,0,0,,2,,,62,127
24964,note_off,51,0,0,,2,,,62,127
24968,note_on,4,0,0,,0,,,60,127
25021,note_off,53,0,0,,0,,,60,127
25025,note_on,4,0,0,,12,,,59,127
25078,note_off,53,0,0,,12,,,59,127
25082,note_on,4,0,0,,0,,,60,127
25288,note_off,206,0,0,,0,,,60,127
25292,note_on,4,0,0,,2,,,62,127
25358,note_off,66,0,0,,2,,,62,127
25362,note_on,4,0,0,,4,,,64,127
25362,note_on,0,0,0,,0,,,60,127
25639,note_off,277,0,0,,0,,,60,127
25639,note_off,0,0,0,,4,,,64,127
25639,note_off,0,0,0,,0,,,72,127
25639,note_off,0,0,0,,4,,,76,127
25643,note_on,4,0,0,,5,,,65,127
25643,note_on,0,0,0,,10,,,57,127
25643,note_on,0,0,0,,0,,,72,127
25920,note_off,277,0,0,,0,,,72,127
25920,note_off,0,0,0,,10,,,57,127
25920,note_off,0,0,0,,5,,,65,127
25924,note_on,4,0,0,,12,,,59,127
25924,note_on,0,0,0,,7,,,67,127
25924,note_on,0,0,0,,2,,,74,127
26201,note_off,277,0,0,,2,,,74,127
26201,note_off,0,0,0,,7,,,67,127
26201,note_off,0,0,0,,12,,,59,127
26205,note_on,4,0,0,,5,,,65,127
26205,note_on,0,0,0,,7,,,55,127
26205,note_on,0,0,0,,12,,,71,127
26482,note_off,277,0,0,,12,,,71,127
26482,note_off,0,0,0,,7,,,55,127
26482,note_off,0,0,0,,5,,,65,127
26486,note_on,4,0,0,,0,,,60,127
26486,note_on,0,0,0,,4,,,64,127
26486,note_on,0,0,0,,0,,,72,127
26763,note_off,277,0,0,,0,,,72,127
26763,note_off,0,0,0,,4,,,64,127
26763,note_off,0,0,0,,0,,,60,127
26767,note_on,4,0,0,,2,,,62,127
26767,note_on,0,0,0,,7,,,55,127
26767,note_on,0,0,0,,7,,,79,127
27044,note_off,277,0,0,,7,,,79,127
27044,note_off,0,0,0,,7,,,55,127
27044,note_off,0,0,0,,2,,,62,127
27048,note_on,4,0,0,,4,,,52,127
27048,note_on,0,0,0,,0,,,60,127
27048,note_on,0,0,0,,2,,,86,127
27114,note_off,66,0,0,,2,,,86,127
27118,note_on,4,0,0,,0,,,84,127
27184,note_off,66,0,0,,0,,,84,127
27188,note_on,4,0,0,,2,,,86,127
27254,note_off,66,0,0,,2,,,86,127
27258,note_on,4,0,0,,0,,,84,127
27324,note_off,66,0,0,,0,,,84,127
27324,note_off,0,0,0,,0,,,60,127
27324,note_off,0,0,0,,4,,,52,127
27328,note_on,4,0,0,,7,,,55,127
27328,note_on,0,0,0,,2,,,62,127
27328,note_on,0,0,0,,2,,,86,127
27394,note_off,66,0,0,,2,,,86,127
27398,note_on,4,0,0,,0,,,84,127
27464,note_off,66,0,0,,0,,,84,127
27468,note_on,4,0,0,,12,,,83,127
27534,note_off,66,0,0,,12,,,83,127
27538,note_on,4,0,0,,10,,,81,127
27604,note_off,66,0,0,,10,,,81,127
27604,note_off,0,0,0,,2,,,62,127
27604,note_off,0,0,0,,7,,,55,127
27608,note_on,4,0,0,,4,,,64,127
27608,note_on,0,0,0,,0,,,60,127
27608,note_on,0,0,0,,7,,,79,127
27885,note_off,277,0,0,,7,,,79,127
27885,note_off,0,0,0,,0,,,60,127
27885,note_off,0,0,0,,4,,,64,127
27889,note_on,4,0,0,,2,,,62,127
27889,note_on,0,0,0,,7,,,55,127
27889,note_on,0,0,0,,7,,,79,127
28166,note_off,277,0,0,,7,,,79,127
28166,note_off,0,0,0,,7,,,55,127
28166,note_off,0,0,0,,2,,,62,127
28170,note_on,4,0,0,,0,,,60,127
28170,note_on,0,0,0,,4,,,52,127
28170,note_on,0,0,0,,2,,,86,127
28236,note_off,66,0,0,,2,,,86,127
28240,note_on,4,0,0,,0,,,84,127
28306,note_off,66,0,0,,0,,,84,127
28310,note_on,4,0,0,,2,,,86,127
28376,note_off,66,0,0,,2,,,86,127
28380,note_on,4,0,0,,0,,,84,127
28446,note_off,66,0,0,,0,,,84,127
28446,note_off,0,0,0,,4,,,52,127
28446,note_off,0,0,0,,0,,,60,127
28450,note_on,4,0,0,,2,,,62,127
28450,note_on,0,0,0,,7,,,55,127
28450,note_on,0,0,0,,2,,,86,127
28516,note_off,66,0,0,,2,,,86,127
28520,note_on,4,0,0,,0,,,84,127
28586,note_off,66,0,0,,0,,,84,127
28590,note_on,4,0,0,,12,,,83,127
28656,note_off,66,0,0,,12,,,83,127
28660,note_on,4,0,0,,10,,,81,127
28726,note_off,66,0,0,,10,,,81,127
28726,note_off,0,0,0,,7,,,55,127
28726,note_off,0,0,0,,2,,,62,127
28730,note_on,4,0,0,,4,,,64,127
28730,note_on,0,0,0,,0,,,60,127
28730,note_on,0,0,0,,7,,,79,127
28936,note_off,206,0,0,,7,,,79,127
28940,note_on,4,0,0,,10,,,81,127
29006,note_off,66,0,0,,10,,,81,127
29006,note_off,0,0,0,,0,,,60,127
29006,note_off,0,0,0,,4,,,64,127
29010,note_on,4,0,0,,5,,,65,127
29010,note_on,0,0,0,,2,,,62,127
29010,note_on,0,0,0,,7,,,79,127
29216,note_off,206,0,0,,7,,,79,127
29220,note_on,4,0,0,,5,,,77,127
29286,note_off,66,0,0,,5,,,77,127
29286,note_off,0,0,0,,2,,,62,127
29286,note_off,0,0,0,,5,,,65,127
29290,note_on,4,0,0,,4,,,64,127
29290,note_on,0,0,0,,7,,,67,127
29290,note_on,0,0,0,,4,,,76,127
29496,note_off,206,0,0,,4,,,76,127
29500,note_on,4,0,0,,5,,,77,127
29566,note_off,66,0,0,,5,,,77,127
29566,note_off,0,0,0,,7,,,67,127
29566,note_off,0,0,0,,4,,,64,127
29570,note_on,4,0,0,,5,,,65,127
29570,note_on,0,0,0,,10,,,69,127
29570,note_on,0,0,0,,4,,,76,127
29776,note_off,206,0,0,,4,,,76,127
29780,note_on,4,0,0,,2,,,74,127
29846,note_off,66,0,0,,2,,,74,127
29846,note_off,0,0,0,,10,,,69,127
29846,note_off,0,0,0,,5,,,65,127
29850,note_on,4,0,0,,4,,,64,127
29850,note_on,0,0,0,,7,,,67,127
29850,note_on,0,0,0,,0,,,72,127
30056,note_off,206,0,0,,0,,,72,127
30060,note_on,4,0,0,,2,,,74,127
30126,note_off,66,0,0,,2,,,74,127
30126,note_off,0,0,0,,7,,,67,127
30126,note_off,0,0,0,,4,,,64,127
30130,note_on,4,0,0,,0,,,60,127
30130,note_on,0,0,0,,0,,,72,127
30336,note_off,206,0,0,,0,,,72,127
30340,note_on,4,0,0,,12,,,71,127
30406,note_off,66,0,0,,12,,,71,127
30406,note_off,0,0,0,,0,,,60,127
30410,note_on,4,0,0,,5,,,65,127
30410,note_on,0,0,0,,10,,,69,127
30616,note_off,206,0,0,,10,,,69,127
30620,note_on,4,0,0,,10,,,81,127
30686,note_off,66,0,0,,10,,,81,127
30686,note_off,0,0,0,,5,,,65,127
30690,note_on,4,0,0,,5,,,53,127
30690,note_on,0,0,0,,5,,,77,127
30896,note_off,206,0,0,,5,,,77,127
30900,note_on,4,0,0,,2,,,74,127
30966,note_off,66,0,0,,2,,,74,127
30966,note_off,0,0,0,,5,,,53,127
30970,note_on,4,0,0,,7,,,55,127
30970,note_on,0,0,0,,0,,,72,127
31247,note_off,277,0,0,,0,,,72,127
31251,note_on,4,0,0,,12,,,71,127
31517,note_off,266,0,0,,7,,,55,127
31527,note_off,10,0,0,,12,,,71,127
31531,note_on,4,0,0,,0,,,48,127
31531,note_on,0,0,0,,0,,,60,127
31531,note_on,0,0,0,,0,,,72,127
31808,note_off,277,0,0,,0,,,72,127
31812,note_on,4,0,0,,2,,,74,127
32089,note_off,277,0,0,,2,,,74,127
32093,note_on,4,0,0,,4,,,76,127
32370,note_off,277,0,0,,4,,,76,127
32370,note_off,0,0,0,,0,,,60,127
32370,note_off,0,0,0,,0,,,48,127
32374,note_on,4,0,0,,5,,,77,127
32651,note_off,277,0,0,,5,,,77,127
32655,note_on,4,0,0,,7,,,79,127
32932,note_off,277,0,0,,7,,,79,127
32936,note_on,4,0,0,,8,,,80,127
33217,note_on,281,0,0,,5,,,53,127
33353,note_off,136,0,0,,8,,,80,127
33357,note_on,4,0,0,,10,,,81,127
33493,note_off,136,0,0,,10,,,81,127
33497,note_on,4,0,0,,10,,,69,127
33774,note_off,277,0,0,,5,,,53,127
33778,note_on,4,0,0,,7,,,55,127
33914,note_off,136,0,0,,10,,,69,127
33918,note_on,4,0,0,,12,,,71,127
34054,note_off,136,0,0,,12,,,71,127
34058,note_on,4,0,0,,0,,,72,127
34194,note_off,136,0,0,,0,,,72,127
34198,note_on,4,0,0,,2,,,74,127
34334,note_off,136,0,0,,2,,,74,127
34338,note_on,4,0,0,,7,,,43,127
34338,note_on,0,0,0,,0,,,72,127
34404,note_off,66,0,0,,0,,,72,127
34408,note_on,4,0,0,,2,,,74,127
34474,note_off,66,0,0,,2,,,74,127
34478,note_on,4,0,0,,4,,,76,127
34544,note_off,66,0,0,,4,,,76,127
34548,note_on,4,0,0,,2,,,74,127
34614,note_off,66,0,0,,2,,,74,127
34618,note_on,4,0,0,,4,,,76,127
34684,note_off,66,0,0,,4,,,76,127
34688,note_on,4,0,0,,2,,,74,127
34754,note_off,66,0,0,,2,,,74,127
34758,note_on,4,0,0,,0,,,72,127
34824,note_off,66,0,0,,0,,,72,127
34828,note_on,4,0,0,,2,,,74,127
34894,note_off,66,0,0,,2,,,74,127
34894,note_off,0,0,0,,7,,,43,127
34894,note_off,0,0,0,,7,,,55,127
34898,note_on,4,0,0,,0,,,48,127
34898,note_on,0,0,0,,0,,,36,127
34898,note_on,0,0,0,,0,,,72,127
35175,note_off,277,0,0,,0,,,72,127
35179,note_on,4,0,0,,4,,,76,127
35315,note_off,136,0,0,,4,,,76,127
35319,note_on,4,0,0,,7,,,67,127
35455,note_off,136,0,0,,7,,,67,127
35459,note_on,4,0,0,,4,,,64,127
35595,note_off,136,0,0,,4,,,64,127
35599,note_on,4,0,0,,0,,,60,127
35735,note_off,136,0,0,,0,,,60,127
35739,note_on,4,0,0,,7,,,55,127
35875,note_off,136,0,0,,7,,,55,127
35879,note_on,4,0,0,,4,,,52,127
36015,note_off,136,0,0,,4,,,52,127
36015,note_off,0,0,0,,0,,,36,127
36019,note_on,4,0,0,,0,,,36,127
36575,note_off,556,0,0,,0,,,48,127
37138,note_off,563,0,0,,0,,,36,127
37142,note_on,4,0,0,,2,,,74,127
37193,note_off,51,0,0,,2,,,74,127
37197,note_on,4,0,0,,0,,,72,127
37248,note_off,51,0,0,,0,,,72,127
37252,note_on,4,0,0,,2,,,74,127
37303,note_off,51,0,0,,2,,,74,127
37307,note_on,4,0,0,,0,,,72,127
37360,note_off,53,0,0,,0,,,72,127
37364,note_on,4,0,0,,12,,,71,127
37417,note_off,53,0,0,,12,,,71,127
37421,note_on,4,0,0,,0,,,72,127
37627,note_off,206,0,0,,0,,,72,127
37631,note_on,4,0,0,,2,,,74,127
37697,note_off,66,0,0,,2,,,74,127
37701,note_on,4,0,0,,4,,,76,127
37978,note_off,277,0,0,,4,,,76,127
37982,note_on,4,0,0,,4,,,76,127
38259,note_off,277,0,0,,4,,,76,127
38263,note_on,4,0,0,,4,,,76,127
38263,note_on,0,0,0,,10,,,69,127
38314,note_off,51,0,0,,10,,,69,127
38318,note_on,4,0,0,,7,,,67,127
38369,note_off,51,0,0,,7,,,67,127
38373,note_on,4,0,0,,10,,,69,127
38424,note_off,51,0,0,,10,,,69,127
38428,note_on,4,0,0,,7,,,67,127
38481,note_off,53,0,0,,7,,,67,127
38485,note_on,4,0,0,,5,,,65,127
38538,note_off,53,0,0,,5,,,65,127
38542,note_on,4,0,0,,7,,,67,127
38748,note_off,206,0,0,,7,,,67,127
38752,note_on,4,0,0,,10,,,69,127
38818,note_off,66,0,0,,10,,,69,127
38822,note_on,4,0,0,,7,,,43,127
38822,note_on,0,0,0,,11,,,70,127
39099,note_off,277,0,0,,4,,,76,127
39103,note_on,4,0,0,,7,,,79,127
39380,note_off,277,0,0,,7,,,79,127
39384,note_on,4,0,0,,1,,,73,127
39661,note_off,277,0,0,,1,,,73,127
39665,note_on,4,0,0,,2,,,74,127
39942,note_off,277,0,0,,2,,,74,127
39942,note_off,0,0,0,,11,,,70,127
39942,note_off,0,0,0,,7,,,43,127
39946,note_on,4,0,0,,11,,,46,127
39946,note_on,0,0,0,,4,,,76,127
39997,note_off,51,0,0,,4,,,76,127
40001,note_on,4,0,0,,2,,,74,127
40052,note_off,51,0,0,,2,,,74,127
40056,note_on,4,0,0,,4,,,76,127
40107,note_off,51,0,0,,4,,,76,127
40111,note_on,4,0,0,,2,,,74,127
40164,note_off,53,0,0,,2,,,74,127
40168,note_on,4,0,0,,1,,,73,127
40221,note_off,53,0,0,,1,,,73,127
40225,note_on,4,0,0,,2,,,74,127
40431,note_off,206,0,0,,2,,,74,127
40435,note_on,4,0,0,,4,,,76,127
40501,note_off,66,0,0,,4,,,76,127
40501,note_off,0,0,0,,11,,,46,127
40505,note_on,4,0,0,,10,,,45,127
40505,note_on,0,0,0,,2,,,50,127
40505,note_on,0,0,0,,5,,,53,127
40505,note_on,0,0,0,,10,,,69,127
40505,note_on,0,0,0,,5,,,77,127
40711,note_off,206,0,0,,5,,,77,127
40715,note_on,4,0,0,,7,,,79,127
40781,note_off,66,0,0,,7,,,79,127
40785,note_on,4,0,0,,10,,,81,127
40991,note_off,206,0,0,,10,,,81,127
40995,note_on,4,0,0,,11,,,82,127
41061,note_off,66,0,0,,11,,,82,127
41061,note_off,0,0,0,,10,,,69,127
41065,note_on,4,0,0,,2,,,74,127
41342,note_off,277,0,0,,2,,,74,127
41346,note_on,4,0,0,,10,,,69,127
41486,note_on,140,0,0,,2,,,74,127
41622,note_off,136,0,0,,2,,,74,127
41622,note_off,0,0,0,,10,,,69,127
41622,note_off,0,0,0,,5,,,53,127
41622,note_off,0,0,0,,2,,,50,127
41622,note_off,0,0,0,,10,,,45,127
41626,note_on,4,0,0,,4,,,52,127
41626,note_on,0,0,0,,10,,,45,127
41626,note_on,0,0,0,,2,,,74,127
41762,note_off,136,0,0,,2,,,74,127
41766,note_on,4,0,0,,1,,,73,127
41902,note_off,136,0,0,,1,,,73,127
41906,note_on,4,0,0,,7,,,67,127
42046,note_on,140,0,0,,1,,,73,127
42182,note_off,136,0,0,,7,,,67,127
42182,note_off,0,0,0,,10,,,45,127
42182,note_off,0,0,0,,4,,,52,127
42186,note_on,4,0,0,,2,,,38,127
42186,note_on,0,0,0,,2,,,50,127
42186,note_on,0,0,0,,5,,,65,127
42463,note_off,277,0,0,,1,,,73,127
42467,note_on,4,0,0,,2,,,74,127
42603,note_off,136,0,0,,2,,,74,127
42607,note_on,4,0,0,,2,,,74,127
42743,note_off,136,0,0,,2,,,74,127
42743,note_off,0,0,0,,5,,,65,127
42747,note_on,4,0,0,,5,,,65,127
42887,note_on,140,0,0,,2,,,74,127
43023,note_off,136,0,0,,2,,,74,127
43023,note_off,0,0,0,,5,,,65,127
43027,note_on,4,0,0,,4,,,64,127
43167,note_on,140,0,0,,1,,,73,127
43303,note_off,136,0,0,,1,,,73,127
43303,note_off,0,0,0,,4,,,64,127
43303,note_off,0,0,0,,2,,,50,127
43303,note_off,0,0,0,,2,,,38,127
43307,note_on,4,0,0,,2,,,62,127
43307,note_on,0,0,0,,2,,,74,127
43865,note_off,558,0,0,,2,,,74,127
43865,note_off,0,0,0,,2,,,62,127
43869,note_on,4,0,0,,4,,,76,127
43920,note_off,51,0,0,,4,,,76,127
43924,note_on,4,0,0,,2,,,74,127
43975,note_off,51,0,0,,2,,,74,127
43979,note_on,4,0,0,,4,,,76,127
44030,note_off,51,0,0,,4,,,76,127
44034,note_on,4,0,0,,2,,,74,127
44087,note_off,53,0,0,,2,,,74,127
44091,note_on,4,0,0,,1,,,73,127
44144,note_off,53,0,0,,1,,,73,127
44148,note_on,4,0,0,,2,,,74,127
44354,note_off,206,0,0,,2,,,74,127
44358,note_on,4,0,0,,4,,,76,127
44424,note_off,66,0,0,,4,,,76,127
44428,note_on,4,0,0,,5,,,77,127
44705,note_off,277,0,0,,5,,,77,127
44709,note_on,4,0,0,,5,,,77,127
44986,note_off,277,0,0,,5,,,77,127
44990,note_on,4,0,0,,5,,,77,127
44990,note_on,0,0,0,,12,,,71,127
45041,note_off,51,0,0,,12,,,71,127
45045,note_on,4,0,0,,10,,,69,127
45096,note_off,51,0,0,,10,,,69,127
45100,note_on,4,0,0,,12,,,71,127
45151,note_off,51,0,0,,12,,,71,127
45155,note_on,4,0,0,,10,,,69,127
45208,note_off,53,0,0,,10,,,69,127
45212,note_on,4,0,0,,8,,,68,127
45265,note_off,53,0,0,,8,,,68,127
45269,note_on,4,0,0,,10,,,69,127
45475,note_off,206,0,0,,10,,,69,127
45479,note_on,4,0,0,,12,,,71,127
45545,note_off,66,0,0,,12,,,71,127
45549,note_on,4,0,0,,10,,,45,127
45549,note_on,0,0,0,,0,,,72,127
45826,note_off,277,0,0,,5,,,77,127
45830,note_on,4,0,0,,10,,,81,127
46107,note_off,277,0,0,,10,,,81,127
46111,note_on,4,0,0,,3,,,75,127
46388,note_off,277,0,0,,3,,,75,127
46392,note_on,4,0,0,,4,,,76,127
46669,note_off,277,0,0,,4,,,76,127
46669,note_off,0,0,0,,0,,,72,127
46669,note_off,0,0,0,,10,,,45,127
46673,note_on,4,0,0,,0,,,48,127
46673,note_on,0,0,0,,6,,,78,127
46724,note_off,51,0,0,,6,,,78,127
46728,note_on,4,0,0,,4,,,76,127
46779,note_off,51,0,0,,4,,,76,127
46783,note_on,4,0,0,,6,,,78,127
46834,note_off,51,0,0,,6,,,78,127
46838,note_on,4,0,0,,4,,,76,127
46891,note_off,53,0,0,,4,,,76,127
46895,note_on,4,0,0,,3,,,75,127
46948,note_off,53,0,0,,3,,,75,127
46952,note_on,4,0,0,,4,,,76,127
47158,note_off,206,0,0,,4,,,76,127
47162,note_on,4,0,0,,6,,,78,127
47228,note_off,66,0,0,,6,,,78,127
47228,note_off,0,0,0,,0,,,48,127
47232,note_on,4,0,0,,7,,,55,127
47232,note_on,0,0,0,,4,,,52,127
47232,note_on,0,0,0,,12,,,47,127
47232,note_on,0,0,0,,12,,,71,127
47232,note_on,0,0,0,,7,,,79,127
47438,note_off,206,0,0,,7,,,79,127
47442,note_on,4,0,0,,10,,,81,127
47508,note_off,66,0,0,,10,,,81,127
47512,note_on,4,0,0,,12,,,83,127
47718,note_off,206,0,0,,12,,,83,127
47722,note_on,4,0,0,,0,,,84,127
47788,note_off,66,0,0,,0,,,84,127
47788,note_off,0,0,0,,12,,,71,127
47792,note_on,4,0,0,,4,,,76,127
48069,note_off,277,0,0,,4,,,76,127
48073,note_on,4,0,0,,12,,,71,127
48213,note_on,140,0,0,,4,,,76,127
48349,note_off,136,0,0,,12,,,71,127
48349,note_off,0,0,0,,12,,,47,127
48349,note_off,0,0,0,,4,,,52,127
48349,note_off,0,0,0,,7,,,55,127
48353,note_on,4,0,0,,6,,,54,127
48353,note_on,0,0,0,,12,,,47,127
48489,note_off,136,0,0,,4,,,76,127
48493,note_on,4,0,0,,3,,,75,127
48629,note_off,136,0,0,,3,,,75,127
48633,note_on,4,0,0,,10,,,69,127
48773,note_on,140,0,0,,3,,,75,127
48909,note_off,136,0,0,,3,,,75,127
48909,note_off,0,0,0,,10,,,69,127
48909,note_off,0,0,0,,12,,,47,127
48909,note_off,0,0,0,,6,,,54,127
48913,note_on,4,0,0,,4,,,40,127
48913,note_on,0,0,0,,4,,,52,127
48913,note_on,0,0,0,,7,,,67,127
48913,note_on,0,0,0,,3,,,75,127
49190,note_off,277,0,0,,3,,,75,127
49194,note_on,4,0,0,,4,,,76,127
49330,note_off,136,0,0,,4,,,76,127
49331,note_off,1,0,0,,7,,,67,127
49334,note_on,3,0,0,,4,,,76,127
49470,note_off,136,0,0,,4,,,76,127
49470,note_off,0,0,0,,4,,,52,127
49470,note_off,0,0,0,,4,,,40,127
49474,note_on,4,0,0,,8,,,68,127
49680,note_off,206,0,0,,8,,,68,127
49684,note_on,4,0,0,,12,,,71,127
49750,note_off,66,0,0,,12,,,71,127
49754,note_on,4,0,0,,10,,,69,127
49960,note_off,206,0,0,,10,,,69,127
49964,note_on,4,0,0,,0,,,72,127
50030,note_off,66,0,0,,0,,,72,127
50034,note_on,4,0,0,,0,,,72,127
50311,note_off,277,0,0,,0,,,72,127
50315,note_on,4,0,0,,12,,,71,127
50592,note_off,277,0,0,,12,,,71,127
50596,note_on,4,0,0,,0,,,60,127
50596,note_on,0,0,0,,4,,,52,127
50596,note_on,0,0,0,,10,,,69,127
50647,note_off,51,0,0,,10,,,69,127
50647,note_off,0,0,0,,0,,,60,127
50651,note_on,4,0,0,,12,,,59,127
50651,note_on,0,0,0,,8,,,68,127
50702,note_off,51,0,0,,8,,,68,127
50702,note_off,0,0,0,,12,,,59,127
50706,note_on,4,0,0,,0,,,60,127
50706,note_on,0,0,0,,10,,,69,127
50757,note_off,51,0,0,,10,,,69,127
50757,note_off,0,0,0,,0,,,60,127
50761,note_on,4,0,0,,12,,,59,127
50761,note_on,0,0,0,,8,,,68,127
50814,note_off,53,0,0,,8,,,68,127
50814,note_off,0,0,0,,12,,,59,127
50818,note_on,4,0,0,,10,,,57,127
50818,note_on,0,0,0,,6,,,66,127
50871,note_off,53,0,0,,6,,,66,127
50871,note_off,0,0,0,,10,,,57,127
50875,note_on,4,0,0,,12,,,59,127
50875,note_on,0,0,0,,8,,,68,127
51081,note_off,206,0,0,,8,,,68,127
51081,note_off,0,0,0,,12,,,59,127
51085,note_on,4,0,0,,0,,,60,127
51085,note_on,0,0,0,,10,,,69,127
51151,note_off,66,0,0,,10,,,69,127
51151,note_off,0,0,0,,0,,,60,127
51155,note_on,4,0,0,,2,,,62,127
51155,note_on,0,0,0,,12,,,71,127
51432,note_off,277,0,0,,12,,,71,127
51432,note_off,0,0,0,,2,,,62,127
51436,note_on,4,0,0,,0,,,60,127
51436,note_on,0,0,0,,0,,,72,127
51713,note_off,277,0,0,,0,,,72,127
51713,note_off,0,0,0,,0,,,60,127
51717,note_on,4,0,0,,12,,,59,127
51717,note_on,0,0,0,,2,,,74,127
51994,note_off,277,0,0,,2,,,74,127
51994,note_off,0,0,0,,12,,,59,127
51998,note_on,4,0,0,,10,,,57,127
51998,note_on,0,0,0,,4,,,76,127
52229,note_off,231,0,0,,4,,,76,127
52274,note_off,45,0,0,,10,,,57,127
52274,note_off,0,0,0,,4,,,52,127
52278,note_on,4,0,0,,10,,,57,127
52278,note_on,0,0,0,,2,,,50,127
52278,note_on,0,0,0,,0,,,72,127
52329,note_off,51,0,0,,0,,,72,127
52329,note_off,0,0,0,,10,,,57,127
52333,note_on,4,0,0,,8,,,56,127
52333,note_on,0,0,0,,12,,,71,127
52384,note_off,51,0,0,,12,,,71,127
52384,note_off,0,0,0,,8,,,56,127
52388,note_on,4,0,0,,10,,,57,127
52388,note_on,0,0,0,,0,,,72,127
52439,note_off,51,0,0,,0,,,72,127
52439,note_off,0,0,0,,10,,,57,127
52443,note_on,4,0,0,,8,,,56,127
52443,note_on,0,0,0,,12,,,71,127
52496,note_off,53,0,0,,12,,,71,127
52496,note_off,0,0,0,,8,,,56,127
52500,note_on,4,0,0,,6,,,54,127
52500,note_on,0,0,0,,10,,,69,127
52553,note_off,53,0,0,,10,,,69,127
52553,note_off,0,0,0,,6,,,54,127
52557,note_on,4,0,0,,8,,,56,127
52557,note_on,0,0,0,,12,,,71,127
52763,note_off,206,0,0,,12,,,71,127
52763,note_off,0,0,0,,8,,,56,127
52767,note_on,4,0,0,,10,,,57,127
52767,note_on,0,0,0,,0,,,72,127
52833,note_off,66,0,0,,0,,,72,127
52833,note_off,0,0,0,,10,,,57,127
52837,note_on,4,0,0,,12,,,59,127
52837,note_on,0,0,0,,2,,,74,127
53114,note_off,277,0,0,,2,,,74,127
53114,note_off,0,0,0,,12,,,59,127
53118,note_on,4,0,0,,0,,,60,127
53118,note_on,0,0,0,,0,,,72,127
53395,note_off,277,0,0,,0,,,72,127
53395,note_off,0,0,0,,0,,,60,127
53399,note_on,4,0,0,,2,,,62,127
53399,note_on,0,0,0,,12,,,71,127
53676,note_off,277,0,0,,12,,,71,127
53676,note_off,0,0,0,,2,,,62,127
53680,note_on,4,0,0,,0,,,60,127
53680,note_on,0,0,0,,10,,,69,127
53911,note_off,231,0,0,,10,,,69,127
53956,note_off,45,0,0,,0,,,60,127
53956,note_off,0,0,0,,2,,,50,127
53960,note_on,4,0,0,,0,,,60,127
53960,note_on,0,0,0,,4,,,52,127
53960,note_on,0,0,0,,10,,,69,127
54011,note_off,51,0,0,,10,,,69,127
54011,note_off,0,0,0,,0,,,60,127
54015,note_on,4,0,0,,12,,,59,127
54015,note_on,0,0,0,,8,,,68,127
54066,note_off,51,0,0,,8,,,68,127
54066,note_off,0,0,0,,12,,,59,127
54070,note_on,4,0,0,,0,,,60,127
54070,note_on,0,0,0,,10,,,69,127
54121,note_off,51,0,0,,10,,,69,127
54121,note_off,0,0,0,,0,,,60,127
54125,note_on,4,0,0,,12,,,59,127
54125,note_on,0,0,0,,8,,,68,127
54178,note_off,53,0,0,,8,,,68,127
54178,note_off,0,0,0,,12,,,59,127
54182,note_on,4,0,0,,10,,,57,127
54182,note_on,0,0,0,,6,,,66,127
54235,note_off,53,0,0,,6,,,66,127
54235,note_off,0,0,0,,10,,,57,127
54239,note_on,4,0,0,,12,,,59,127
54239,note_on,0,0,0,,8,,,68,127
54445,note_off,206,0,0,,8,,,68,127
54445,note_off,0,0,0,,12,,,59,127
54449,note_on,4,0,0,,0,,,60,127
54449,note_on,0,0,0,,10,,,69,127
54515,note_off,66,0,0,,10,,,69,127
54515,note_off,0,0,0,,0,,,60,127
54519,note_on,4,0,0,,2,,,62,127
54519,note_on,0,0,0,,12,,,71,127
54796,note_off,277,0,0,,12,,,71,127
54796,note_off,0,0,0,,2,,,62,127
54800,note_on,4,0,0,,0,,,60,127
54800,note_on,0,0,0,,0,,,72,127
55077,note_off,277,0,0,,0,,,72,127
55077,note_off,0,0,0,,0,,,60,127
55081,note_on,4,0,0,,12,,,59,127
55081,note_on,0,0,0,,2,,,74,127
55358,note_off,277,0,0,,2,,,74,127
55358,note_off,0,0,0,,12,,,59,127
55362,note_on,4,0,0,,10,,,57,127
55362,note_on,0,0,0,,4,,,76,127
55608,note_off,246,0,0,,4,,,76,127
55639,note_off,31,0,0,,10,,,57,127
55639,note_off,0,0,0,,4,,,52,127
55643,note_on,4,0,0,,10,,,57,127
55643,note_on,0,0,0,,2,,,50,127
55643,note_on,0,0,0,,0,,,72,127
55694,note_off,51,0,0,,0,,,72,127
55694,note_off,0,0,0,,10,,,57,127
55698,note_on,4,0,0,,8,,,56,127
55698,note_on,0,0,0,,12,,,71,127
55749,note_off,51,0,0,,12,,,71,127
55749,note_off,0,0,0,,8,,,56,127
55753,note_on,4,0,0,,10,,,57,127
55753,note_on,0,0,0,,0,,,72,127
55804,note_off,51,0,0,,0,,,72,127
55804,note_off,0,0,0,,10,,,57,127
55808,note_on,4,0,0,,8,,,56,127
55808,note_on,0,0,0,,12,,,71,127
55861,note_off,53,0,0,,12,,,71,127
55861,note_off,0,0,0,,8,,,56,127
55865,note_on,4,0,0,,6,,,54,127
55865,note_on,0,0,0,,10,,,69,127
55918,note_off,53,0,0,,10,,,69,127
55918,note_off,0,0,0,,6,,,54,127
55922,note_on,4,0,0,,8,,,56,127
55922,note_on,0,0,0,,12,,,71,127
56128,note_off,206,0,0,,12,,,71,127
56128,note_off,0,0,0,,8,,,56,127
56132,note_on,4,0,0,,10,,,57,127
56132,note_on,0,0,0,,0,,,72,127
56198,note_off,66,0,0,,0,,,72,127
56198,note_off,0,0,0,,10,,,57,127
56202,note_on,4,0,0,,12,,,59,127
56202,note_on,0,0,0,,2,,,74,127
56479,note_off,277,0,0,,2,,,74,127
56479,note_off,0,0,0,,12,,,59,127
56483,note_on,4,0,0,,0,,,60,127
56483,note_on,0,0,0,,0,,,72,127
56760,note_off,277,0,0,,0,,,72,127
56760,note_off,0,0,0,,0,,,60,127
56764,note_on,4,0,0,,12,,,59,127
56764,note_on,0,0,0,,12,,,71,127
57041,note_off,277,0,0,,12,,,71,127
57041,note_off,0,0,0,,12,,,59,127
57041,note_off,0,0,0,,2,,,50,127
57045,note_on,4,0,0,,3,,,51,127
57045,note_on,0,0,0,,10,,,57,127
57045,note_on,0,0,0,,0,,,72,127
57322,note_off,277,0,0,,0,,,72,127
57322,note_off,0,0,0,,10,,,57,127
57322,note_off,0,0,0,,3,,,51,127
57326,note_on,4,0,0,,4,,,52,127
57326,note_on,0,0,0,,0,,,72,127
57392,note_off,66,0,0,,0,,,72,127
57396,note_on,4,0,0,,2,,,74,127
57462,note_off,66,0,0,,2,,,74,127
57466,note_on,4,0,0,,4,,,76,127
57743,note_off,277,0,0,,4,,,76,127
57747,note_on,4,0,0,,2,,,74,127
57813,note_off,66,0,0,,2,,,74,127
57817,note_on,4,0,0,,0,,,72,127
57883,note_off,66,0,0,,0,,,72,127
57887,note_on,4,0,0,,12,,,71,127
58164,note_off,277,0,0,,12,,,71,127
58164,note_off,0,0,0,,4,,,52,127
58168,note_on,4,0,0,,12,,,59,127
58168,note_on,0,0,0,,2,,,50,127
58168,note_on,0,0,0,,8,,,68,127
58168,note_on,0,0,0,,5,,,77,127
58445,note_off,277,0,0,,5,,,77,127
58445,note_off,0,0,0,,8,,,68,127
58445,note_off,0,0,0,,2,,,50,127
58445,note_off,0,0,0,,12,,,59,127
58449,note_on,4,0,0,,0,,,48,127
58449,note_on,0,0,0,,10,,,57,127
58449,note_on,0,0,0,,10,,,69,127
58449,note_on,0,0,0,,4,,,76,127
58726,note_off,277,0,0,,4,,,76,127
58726,note_off,0,0,0,,10,,,69,127
58726,note_off,0,0,0,,10,,,57,127
58726,note_off,0,0,0,,0,,,48,127
58730,note_on,4,0,0,,12,,,47,127
58730,note_on,0,0,0,,8,,,56,127
58730,note_on,0,0,0,,2,,,74,127
58730,note_on,0,0,0,,12,,,71,127
59007,note_off,277,0,0,,12,,,71,127
59007,note_off,0,0,0,,2,,,74,127
59007,note_off,0,0,0,,8,,,56,127
59007,note_off,0,0,0,,12,,,47,127
59011,note_on,4,0,0,,0,,,48,127
59011,note_on,0,0,0,,10,,,57,127
59011,note_on,0,0,0,,2,,,74,127
59147,note_off,136,0,0,,2,,,74,127
59151,note_on,4,0,0,,0,,,72,127
59287,note_off,136,0,0,,0,,,72,127
59287,note_off,0,0,0,,10,,,57,127
59287,note_off,0,0,0,,0,,,48,127
59291,note_on,4,0,0,,2,,,50,127
59291,note_on,0,0,0,,12,,,59,127
59291,note_on,0,0,0,,12,,,71,127
59427,note_off,136,0,0,,12,,,71,127
59431,note_on,4,0,0,,10,,,69,127
59567,note_off,136,0,0,,10,,,69,127
59567,note_off,0,0,0,,12,,,59,127
59567,note_off,0,0,0,,2,,,50,127
59571,note_on,4,0,0,,0,,,60,127
59571,note_on,0,0,0,,4,,,52,127
59571,note_on,0,0,0,,10,,,69,127
59571,note_on,0,0,0,,4,,,64,127
60129,note_off,558,0,0,,4,,,64,127
60129,note_off,0,0,0,,0,,,60,127
60133,note_on,4,0,0,,12,,,59,127
60133,note_on,0,0,0,,2,,,62,127
60197,note_off,64,0,0,,10,,,69,127
60203,note_on,6,0,0,,8,,,68,127
60269,note_off,66,0,0,,8,,,68,127
60273,note_on,4,0,0,,10,,,69,127
60339,note_off,66,0,0,,10,,,69,127
60343,note_on,4,0,0,,8,,,68,127
60409,note_off,66,0,0,,8,,,68,127
60413,note_on,4,0,0,,10,,,69,127
60479,note_off,66,0,0,,10,,,69,127
60483,note_on,4,0,0,,8,,,68,127
60549,note_off,66,0,0,,8,,,68,127
60553,note_on,4,0,0,,6,,,66,127
60619,note_off,66,0,0,,6,,,66,127
60623,note_on,4,0,0,,8,,,68,127
60689,note_off,66,0,0,,8,,,68,127
60689,note_off,0,0,0,,2,,,62,127
60689,note_off,0,0,0,,12,,,59,127
60689,note_off,0,0,0,,4,,,52,127
60693,note_on,4,0,0,,12,,,47,127
60693,note_on,0,0,0,,10,,,69,127
60744,note_off,51,0,0,,12,,,47,127
60748,note_on,4,0,0,,10,,,45,127
60799,note_off,51,0,0,,10,,,45,127
60803,note_on,4,0,0,,12,,,47,127
60854,note_off,51,0,0,,12,,,47,127
60858,note_on,4,0,0,,10,,,45,127
60911,note_off,53,0,0,,10,,,45,127
60915,note_on,4,0,0,,8,,,44,127
60968,note_off,53,0,0,,8,,,44,127
60972,note_on,4,0,0,,10,,,45,127
61178,note_off,206,0,0,,10,,,45,127
61182,note_on,4,0,0,,12,,,47,127
61248,note_off,66,0,0,,12,,,47,127
61252,note_on,4,0,0,,1,,,49,127
61529,note_off,277,0,0,,1,,,49,127
61529,note_off,0,0,0,,10,,,69,127
61533,note_on,4,0,0,,1,,,49,127
61533,note_on,0,0,0,,7,,,67,127
61533,note_on,0,0,0,,4,,,64,127
61810,note_off,277,0,0,,4,,,64,127
61810,note_off,0,0,0,,7,,,67,127
61810,note_off,0,0,0,,1,,,49,127
61814,note_on,4,0,0,,2,,,50,127
61814,note_on,0,0,0,,10,,,69,127
61814,note_on,0,0,0,,5,,,65,127
62091,note_off,277,0,0,,5,,,65,127
62091,note_off,0,0,0,,10,,,69,127
62091,note_off,0,0,0,,2,,,50,127
62095,note_on,4,0,0,,4,,,52,127
62095,note_on,0,0,0,,8,,,68,127
62095,note_on,0,0,0,,4,,,64,127
62372,note_off,277,0,0,,4,,,64,127
62372,note_off,0,0,0,,8,,,68,127
62372,note_off,0,0,0,,4,,,52,127
62376,note_on,4,0,0,,5,,,53,127
62376,note_on,0,0,0,,10,,,69,127
62516,note_on,140,0,0,,2,,,62,127
62652,note_off,136,0,0,,2,,,62,127
62652,note_off,0,0,0,,5,,,53,127
62656,note_on,4,0,0,,4,,,52,127
62656,note_on,0,0,0,,0,,,60,127
62792,note_off,136,0,0,,0,,,60,127
62792,note_off,0,0,0,,4,,,52,127
62796,note_on,4,0,0,,2,,,50,127
62796,note_on,0,0,0,,12,,,59,127
62932,note_off,136,0,0,,12,,,59,127
62932,note_off,0,0,0,,2,,,50,127
62932,note_off,0,0,0,,10,,,69,127
62936,note_on,4,0,0,,4,,,52,127
62936,note_on,0,0,0,,0,,,60,127
63217,note_on,281,0,0,,10,,,69,127
63355,note_off,138,0,0,,0,,,60,127
63494,note_off,139,0,0,,4,,,52,127
63498,note_on,4,0,0,,4,,,40,127
63498,note_on,0,0,0,,12,,,59,127
63682,note_off,184,0,0,,10,,,69,127
63779,note_on,97,0,0,,8,,,68,127
63917,note_off,138,0,0,,12,,,59,127
64056,note_off,139,0,0,,8,,,68,127
64056,note_off,0,0,0,,4,,,40,127
64060,note_on,4,0,0,,12,,,47,127
64060,note_on,0,0,0,,10,,,69,127
64111,note_off,51,0,0,,12,,,47,127
64115,note_on,4,0,0,,10,,,45,127
64166,note_off,51,0,0,,10,,,45,127
64170,note_on,4,0,0,,12,,,47,127
64221,note_off,51,0,0,,12,,,47,127
64225,note_on,4,0,0,,10,,,45,127
64278,note_off,53,0,0,,10,,,45,127
64282,note_on,4,0,0,,8,,,44,127
64335,note_off,53,0,0,,8,,,44,127
64335,note_off,0,0,0,,10,,,69,127
64339,note_on,4,0,0,,10,,,45,127
64339,note_on,0,0,0,,4,,,76,127
64545,note_off,206,0,0,,10,,,45,127
64549,note_on,4,0,0,,12,,,47,127
64615,note_off,66,0,0,,12,,,47,127
64615,note_off,0,0,0,,4,,,76,127
64619,note_on,4,0,0,,0,,,48,127
64619,note_on,0,0,0,,10,,,81,127
64896,note_off,277,0,0,,10,,,81,127
64896,note_off,0,0,0,,0,,,48,127
64900,note_on,4,0,0,,1,,,49,127
64900,note_on,0,0,0,,7,,,79,127
65177,note_off,277,0,0,,7,,,79,127
65177,note_off,0,0,0,,1,,,49,127
65181,note_on,4,0,0,,2,,,50,127
65181,note_on,0,0,0,,5,,,77,127
65458,note_off,277,0,0,,5,,,77,127
65458,note_off,0,0,0,,2,,,50,127
65462,note_on,4,0,0,,4,,,52,127
65462,note_on,0,0,0,,8,,,68,127
65462,note_on,0,0,0,,4,,,76,127
65739,note_off,277,0,0,,8,,,68,127
65739,note_off,0,0,0,,4,,,52,127
65743,note_on,4,0,0,,5,,,53,127
65743,note_on,0,0,0,,10,,,69,127
65879,note_off,136,0,0,,4,,,76,127
65883,note_on,4,0,0,,2,,,74,127
66019,note_off,136,0,0,,2,,,74,127
66019,note_off,0,0,0,,5,,,53,127
66023,note_on,4,0,0,,4,,,52,127
66023,note_on,0,0,0,,0,,,72,127
66159,note_off,136,0,0,,0,,,72,127
66159,note_off,0,0,0,,4,,,52,127
66163,note_on,4,0,0,,2,,,50,127
66163,note_on,0,0,0,,12,,,71,127
66299,note_off,136,0,0,,12,,,71,127
66299,note_off,0,0,0,,2,,,50,127
66299,note_off,0,0,0,,10,,,69,127
66303,note_on,4,0,0,,4,,,52,127
66303,note_on,0,0,0,,4,,,64,127
66303,note_on,0,0,0,,2,,,74,127
66439,note_off,136,0,0,,2,,,74,127
66443,note_on,4,0,0,,0,,,72,127
66579,note_off,136,0,0,,0,,,72,127
66583,note_on,4,0,0,,12,,,71,127
66719,note_off,136,0,0,,12,,,71,127
66723,note_on,4,0,0,,10,,,69,127
66859,note_off,136,0,0,,10,,,69,127
66859,note_off,0,0,0,,4,,,64,127
66863,note_on,4,0,0,,4,,,40,127
66863,note_on,0,0,0,,2,,,62,127
66863,note_on,0,0,0,,0,,,72,127
66999,note_off,136,0,0,,0,,,72,127
67003,note_on,4,0,0,,12,,,71,127
67139,note_off,136,0,0,,12,,,71,127
67143,note_on,4,0,0,,10,,,69,127
67279,note_off,136,0,0,,10,,,69,127
67283,note_on,4,0,0,,8,,,68,127
67419,note_off,136,0,0,,8,,,68,127
67419,note_off,0,0,0,,4,,,40,127
67419,note_off,0,0,0,,4,,,52,127
67423,note_on,4,0,0,,10,,,45,127
67423,note_on,0,0,0,,8,,,68,127
67840,note_off,417,0,0,,8,,,68,127
67844,note_on,4,0,0,,10,,,69,127
67980,note_off,136,0,0,,10,,,69,127
67980,note_off,0,0,0,,2,,,62,127
67984,note_on,4,0,0,,0,,,60,127
68190,note_off,206,0,0,,0,,,60,127
68194,note_on,4,0,0,,10,,,69,127
68264,note_on,70,0,0,,12,,,59,127
68400,note_off,136,0,0,,10,,,69,127
68470,note_off,70,0,0,,12,,,59,127
68474,note_on,4,0,0,,8,,,68,127
68540,note_off,66,0,0,,8,,,68,127
68544,note_on,4,0,0,,10,,,69,127
68954,note_off,410,0,0,,10,,,45,127
69102,note_off,148,0,0,,10,,,69,127
69106,note_on,4,0,0,,5,,,65,127
69106,note_on,0,0,0,,10,,,57,127
69106,note_on,0,0,0,,2,,,74,127
69157,note_off,51,0,0,,2,,,74,127
69157,note_off,0,0,0,,5,,,65,127
69161,note_on,4,0,0,,4,,,64,127
69161,note_on,0,0,0,,1,,,73,127
69212,note_off,51,0,0,,1,,,73,127
69212,note_off,0,0,0,,4,,,64,127
69216,note_on,4,0,0,,5,,,65,127
69216,note_on,0,0,0,,2,,,74,127
69267,note_off,51,0,0,,2,,,74,127
69267,note_off,0,0,0,,5,,,65,127
69271,note_on,4,0,0,,4,,,64,127
69271,note_on,0,0,0,,1,,,73,127
69324,note_off,53,0,0,,1,,,73,127
69324,note_off,0,0,0,,4,,,64,127
69328,note_on,4,0,0,,2,,,62,127
69328,note_on,0,0,0,,12,,,71,127
69381,note_off,53,0,0,,12,,,71,127
69381,note_off,0,0,0,,2,,,62,127
69385,note_on,4,0,0,,4,,,64,127
69385,note_on,0,0,0,,1,,,73,127
69591,note_off,206,0,0,,1,,,73,127
69591,note_off,0,0,0,,4,,,64,127
69595,note_on,4,0,0,,5,,,65,127
69595,note_on,0,0,0,,2,,,74,127
69661,note_off,66,0,0,,2,,,74,127
69661,note_off,0,0,0,,5,,,65,127
69665,note_on,4,0,0,,7,,,67,127
69665,note_on,0,0,0,,4,,,76,127
69942,note_off,277,0,0,,4,,,76,127
69942,note_off,0,0,0,,7,,,67,127
69946,note_on,4,0,0,,5,,,65,127
69946,note_on,0,0,0,,5,,,77,127
70223,note_off,277,0,0,,5,,,77,127
70223,note_off,0,0,0,,5,,,65,127
70227,note_on,4,0,0,,4,,,64,127
70227,note_on,0,0,0,,7,,,79,127
70504,note_off,277,0,0,,7,,,79,127
70504,note_off,0,0,0,,4,,,64,127
70508,note_on,4,0,0,,2,,,62,127
70508,note_on,0,0,0,,10,,,81,127
70739,note_off,231,0,0,,10,,,81,127
70784,note_off,45,0,0,,2,,,62,127
70784,note_off,0,0,0,,10,,,57,127
70788,note_on,4,0,0,,2,,,62,127
70788,note_on,0,0,0,,7,,,55,127
70788,note_on,0,0,0,,5,,,77,127
70839,note_off,51,0,0,,5,,,77,127
70839,note_off,0,0,0,,2,,,62,127
70843,note_on,4,0,0,,1,,,61,127
70843,note_on,0,0,0,,4,,,76,127
70894,note_off,51,0,0,,4,,,76,127
70894,note_off,0,0,0,,1,,,61,127
70898,note_on,4,0,0,,2,,,62,127
70898,note_on,0,0,0,,5,,,77,127
70949,note_off,51,0,0,,5,,,77,127
70949,note_off,0,0,0,,2,,,62,127
70953,note_on,4,0,0,,1,,,61,127
70953,note_on,0,0,0,,4,,,76,127
71006,note_off,53,0,0,,4,,,76,127
71006,note_off,0,0,0,,1,,,61,127
71010,note_on,4,0,0,,12,,,59,127
71010,note_on,0,0,0,,2,,,74,127
71063,note_off,53,0,0,,2,,,74,127
71063,note_off,0,0,0,,12,,,59,127
71067,note_on,4,0,0,,1,,,61,127
71067,note_on,0,0,0,,4,,,76,127
71273,note_off,206,0,0,,4,,,76,127
71273,note_off,0,0,0,,1,,,61,127
71277,note_on,4,0,0,,2,,,62,127
71277,note_on,0,0,0,,5,,,77,127
71343,note_off,66,0,0,,5,,,77,127
71343,note_off,0,0,0,,2,,,62,127
71347,note_on,4,0,0,,4,,,64,127
71347,note_on,0,0,0,,7,,,79,127
71624,note_off,277,0,0,,7,,,79,127
71624,note_off,0,0,0,,4,,,64,127
71628,note_on,4,0,0,,5,,,65,127
71628,note_on,0,0,0,,5,,,77,127
71905,note_off,277,0,0,,5,,,77,127
71905,note_off,0,0,0,,5,,,65,127
71909,note_on,4,0,0,,7,,,67,127
71909,note_on,0,0,0,,4,,,76,127
72186,note_off,277,0,0,,4,,,76,127
72186,note_off,0,0,0,,7,,,67,127
72190,note_on,4,0,0,,5,,,65,127
72190,note_on,0,0,0,,2,,,74,127
72421,note_off,231,0,0,,2,,,74,127
72466,note_off,45,0,0,,5,,,65,127
72466,note_off,0,0,0,,7,,,55,127
72470,note_on,4,0,0,,10,,,57,127
72470,note_on,0,0,0,,5,,,65,127
72470,note_on,0,0,0,,2,,,74,127
72521,note_off,51,0,0,,2,,,74,127
72521,note_off,0,0,0,,5,,,65,127
72525,note_on,4,0,0,,4,,,64,127
72525,note_on,0,0,0,,1,,,73,127
72576,note_off,51,0,0,,1,,,73,127
72576,note_off,0,0,0,,4,,,64,127
72580,note_on,4,0,0,,5,,,65,127
72580,note_on,0,0,0,,2,,,74,127
72631,note_off,51,0,0,,2,,,74,127
72631,note_off,0,0,0,,5,,,65,127
72635,note_on,4,0,0,,4,,,64,127
72635,note_on,0,0,0,,1,,,73,127
72688,note_off,53,0,0,,1,,,73,127
72688,note_off,0,0,0,,4,,,64,127
72692,note_on,4,0,0,,2,,,62,127
72692,note_on,0,0,0,,12,,,71,127
72745,note_off,53,0,0,,12,,,71,127
72745,note_off,0,0,0,,2,,,62,127
72749,note_on,4,0,0,,4,,,64,127
72749,note_on,0,0,0,,1,,,73,127
72955,note_off,206,0,0,,1,,,73,127
72955,note_off,0,0,0,,4,,,64,127
72959,note_on,4,0,0,,5,,,65,127
72959,note_on,0,0,0,,2,,,74,127
73025,note_off,66,0,0,,2,,,74,127
73025,note_off,0,0,0,,5,,,65,127
73029,note_on,4,0,0,,7,,,67,127
73029,note_on,0,0,0,,4,,,76,127
73306,note_off,277,0,0,,4,,,76,127
73306,note_off,0,0,0,,7,,,67,127
73310,note_on,4,0,0,,5,,,65,127
73310,note_on,0,0,0,,5,,,77,127
73587,note_off,277,0,0,,5,,,77,127
73587,note_off,0,0,0,,5,,,65,127
73591,note_on,4,0,0,,4,,,64,127
73591,note_on,0,0,0,,7,,,79,127
73868,note_off,277,0,0,,7,,,79,127
73868,note_off,0,0,0,,4,,,64,127
73872,note_on,4,0,0,,2,,,62,127
73872,note_on,0,0,0,,10,,,81,127
74118,note_off,246,0,0,,10,,,81,127
74149,note_off,31,0,0,,2,,,62,127
74149,note_off,0,0,0,,10,,,57,127
74153,note_on,4,0,0,,7,,,55,127
74153,note_on,0,0,0,,2,,,62,127
74153,note_on,0,0,0,,5,,,77,127
74204,note_off,51,0,0,,5,,,77,127
74204,note_off,0,0,0,,2,,,62,127
74208,note_on,4,0,0,,1,,,61,127
74208,note_on,0,0,0,,4,,,76,127
74259,note_off,51,0,0,,4,,,76,127
74259,note_off,0,0,0,,1,,,61,127
74263,note_on,4,0,0,,2,,,62,127
74263,note_on,0,0,0,,5,,,77,127
74314,note_off,51,0,0,,5,,,77,127
74314,note_off,0,0,0,,2,,,62,127
74318,note_on,4,0,0,,1,,,61,127
74318,note_on,0,0,0,,4,,,76,127
74371,note_off,53,0,0,,4,,,76,127
74371,note_off,0,0,0,,1,,,61,127
74375,note_on,4,0,0,,12,,,59,127
74375,note_on,0,0,0,,2,,,74,127
74428,note_off,53,0,0,,2,,,74,127
74428,note_off,0,0,0,,12,,,59,127
74432,note_on,4,0,0,,1,,,61,127
74432,note_on,0,0,0,,4,,,76,127
74638,note_off,206,0,0,,4,,,76,127
74638,note_off,0,0,0,,1,,,61,127
74642,note_on,4,0,0,,2,,,62,127
74642,note_on,0,0,0,,5,,,77,127
74708,note_off,66,0,0,,5,,,77,127
74708,note_off,0,0,0,,2,,,62,127
74712,note_on,4,0,0,,4,,,64,127
74712,note_on,0,0,0,,7,,,79,127
74989,note_off,277,0,0,,7,,,79,127
74989,note_off,0,0,0,,4,,,64,127
74993,note_on,4,0,0,,5,,,65,127
74993,note_on,0,0,0,,5,,,77,127
75270,note_off,277,0,0,,5,,,77,127
75270,note_off,0,0,0,,5,,,65,127
75274,note_on,4,0,0,,7,,,67,127
75274,note_on,0,0,0,,4,,,76,127
75551,note_off,277,0,0,,4,,,76,127
75551,note_off,0,0,0,,7,,,67,127
75551,note_off,0,0,0,,7,,,55,127
75555,note_on,4,0,0,,5,,,65,127
75555,note_on,0,0,0,,8,,,56,127
75555,note_on,0,0,0,,5,,,77,127
75832,note_off,277,0,0,,5,,,77,127
75832,note_off,0,0,0,,8,,,56,127
75832,note_off,0,0,0,,5,,,65,127
75836,note_on,4,0,0,,10,,,57,127
75836,note_on,0,0,0,,5,,,77,127
75902,note_off,66,0,0,,5,,,77,127
75906,note_on,4,0,0,,7,,,79,127
75972,note_off,66,0,0,,7,,,79,127
75976,note_on,4,0,0,,10,,,81,127
76393,note_off,417,0,0,,10,,,57,127
76397,note_on,4,0,0,,10,,,45,127
76674,note_off,277,0,0,,10,,,81,127
76678,note_on,4,0,0,,7,,,79,127
76814,note_off,136,0,0,,7,,,79,127
76818,note_on,4,0,0,,5,,,77,127
76954,note_off,136,0,0,,5,,,77,127
76958,note_on,4,0,0,,4,,,76,127
77447,note_off,489,0,0,,10,,,45,127
77516,note_off,69,0,0,,4,,,76,127
77520,note_on,4,0,0,,4,,,76,127
77571,note_off,51,0,0,,4,,,76,127
77575,note_on,4,0,0,,2,,,74,127
77626,note_off,51,0,0,,2,,,74,127
77630,note_on,4,0,0,,4,,,76,127
77681,note_off,51,0,0,,4,,,76,127
77685,note_on,4,0,0,,2,,,74,127
77738,note_off,53,0,0,,2,,,74,127
77742,note_on,4,0,0,,1,,,73,127
77795,note_off,53,0,0,,1,,,73,127
77799,note_on,4,0,0,,2,,,74,127
78005,note_off,206,0,0,,2,,,74,127
78009,note_on,4,0,0,,4,,,76,127
78075,note_off,66,0,0,,4,,,76,127
78079,note_on,4,0,0,,2,,,74,127
78079,note_on,0,0,0,,5,,,77,127
78356,note_off,277,0,0,,5,,,77,127
78356,note_off,0,0,0,,2,,,74,127
78360,note_on,4,0,0,,4,,,76,127
78360,note_on,0,0,0,,10,,,69,127
78637,note_off,277,0,0,,10,,,69,127
78637,note_off,0,0,0,,4,,,76,127
78641,note_on,4,0,0,,2,,,74,127
78641,note_on,0,0,0,,5,,,65,127
78918,note_off,277,0,0,,5,,,65,127
78918,note_off,0,0,0,,2,,,74,127
78922,note_on,4,0,0,,10,,,69,127
78922,note_on,0,0,0,,4,,,76,127
79199,note_off,277,0,0,,4,,,76,127
79199,note_off,0,0,0,,10,,,69,127
79203,note_on,4,0,0,,4,,,64,127
79203,note_on,0,0,0,,2,,,74,127
79203,note_on,0,0,0,,5,,,77,127
79254,note_off,51,0,0,,4,,,64,127
79258,note_on,4,0,0,,2,,,62,127
79309,note_off,51,0,0,,2,,,62,127
79313,note_on,4,0,0,,4,,,64,127
79364,note_off,51,0,0,,4,,,64,127
79368,note_on,4,0,0,,2,,,62,127
79421,note_off,53,0,0,,2,,,62,127
79425,note_on,4,0,0,,1,,,61,127
79478,note_off,53,0,0,,1,,,61,127
79482,note_on,4,0,0,,2,,,62,127
79688,note_off,206,0,0,,2,,,62,127
79692,note_on,4,0,0,,4,,,64,127
79758,note_off,66,0,0,,4,,,64,127
79762,note_on,4,0,0,,2,,,62,127
79762,note_on,0,0,0,,5,,,65,127
80039,note_off,277,0,0,,5,,,65,127
80039,note_off,0,0,0,,2,,,62,127
80043,note_on,4,0,0,,10,,,57,127
80043,note_on,0,0,0,,4,,,64,127
80320,note_off,277,0,0,,4,,,64,127
80320,note_off,0,0,0,,10,,,57,127
80320,note_off,0,0,0,,5,,,77,127
80320,note_off,0,0,0,,2,,,74,127
80324,note_on,4,0,0,,2,,,62,127
80324,note_on,0,0,0,,5,,,53,127
80601,note_off,277,0,0,,5,,,53,127
80601,note_off,0,0,0,,2,,,62,127
80605,note_on,4,0,0,,4,,,64,127
80605,note_on,0,0,0,,10,,,57,127
80605,note_on,0,0,0,,10,,,81,127
80882,note_off,277,0,0,,10,,,81,127
80882,note_off,0,0,0,,10,,,57,127
80882,note_off,0,0,0,,4,,,64,127
80886,note_on,4,0,0,,5,,,65,127
80886,note_on,0,0,0,,2,,,62,127
80886,note_on,0,0,0,,4,,,88,127
80952,note_off,66,0,0,,4,,,88,127
80956,note_on,4,0,0,,2,,,86,127
81022,note_off,66,0,0,,2,,,86,127
81026,note_on,4,0,0,,4,,,88,127
81092,note_off,66,0,0,,4,,,88,127
81096,note_on,4,0,0,,2,,,86,127
81162,note_off,66,0,0,,2,,,86,127
81162,note_off,0,0,0,,2,,,62,127
81162,note_off,0,0,0,,5,,,65,127
81166,note_on,4,0,0,,10,,,57,127
81166,note_on,0,0,0,,4,,,64,127
81166,note_on,0,0,0,,4,,,88,127
81232,note_off,66,0,0,,4,,,88,127
81236,note_on,4,0,0,,2,,,86,127
81302,note_off,66,0,0,,2,,,86,127
81306,note_on,4,0,0,,0,,,84,127
81372,note_off,66,0,0,,0,,,84,127
81376,note_on,4,0,0,,11,,,82,127
81442,note_off,66,0,0,,11,,,82,127
81442,note_off,0,0,0,,4,,,64,127
81442,note_off,0,0,0,,10,,,57,127
81446,note_on,4,0,0,,2,,,62,127
81446,note_on,0,0,0,,5,,,53,127
81446,note_on,0,0,0,,10,,,81,127
81723,note_off,277,0,0,,10,,,81,127
81723,note_off,0,0,0,,5,,,53,127
81723,note_off,0,0,0,,2,,,62,127
81727,note_on,4,0,0,,4,,,64,127
81727,note_on,0,0,0,,10,,,57,127
81727,note_on,0,0,0,,10,,,81,127
82004,note_off,277,0,0,,10,,,81,127
82004,note_off,0,0,0,,10,,,57,127
82004,note_off,0,0,0,,4,,,64,127
82008,note_on,4,0,0,,2,,,62,127
82008,note_on,0,0,0,,5,,,65,127
82008,note_on,0,0,0,,4,,,88,127
82074,note_off,66,0,0,,4,,,88,127
82078,note_on,4,0,0,,2,,,86,127
82144,note_off,66,0,0,,2,,,86,127
82148,note_on,4,0,0,,4,,,88,127
82214,note_off,66,0,0,,4,,,88,127
82218,note_on,4,0,0,,2,,,86,127
82284,note_off,66,0,0,,2,,,86,127
82284,note_off,0,0,0,,5,,,65,127
82284,note_off,0,0,0,,2,,,62,127
82288,note_on,4,0,0,,10,,,57,127
82288,note_on,0,0,0,,4,,,64,127
82288,note_on,0,0,0,,4,,,88,127
82354,note_off,66,0,0,,4,,,88,127
82358,note_on,4,0,0,,2,,,86,127
82424,note_off,66,0,0,,2,,,86,127
82428,note_on,4,0,0,,0,,,84,127
82494,note_off,66,0,0,,0,,,84,127
82498,note_on,4,0,0,,11,,,82,127
82564,note_off,66,0,0,,11,,,82,127
82564,note_off,0,0,0,,4,,,64,127
82564,note_off,0,0,0,,10,,,57,127
82568,note_on,4,0,0,,2,,,62,127
82568,note_on,0,0,0,,5,,,65,127
82568,note_on,0,0,0,,10,,,81,127
82774,note_off,206,0,0,,10,,,81,127
82778,note_on,4,0,0,,11,,,82,127
82844,note_off,66,0,0,,11,,,82,127
82844,note_off,0,0,0,,5,,,65,127
82844,note_off,0,0,0,,2,,,62,127
82848,note_on,4,0,0,,4,,,64,127
82848,note_on,0,0,0,,7,,,67,127
82848,note_on,0,0,0,,10,,,81,127
83054,note_off,206,0,0,,10,,,81,127
83058,note_on,4,0,0,,7,,,79,127
83124,note_off,66,0,0,,7,,,79,127
83124,note_off,0,0,0,,7,,,67,127
83124,note_off,0,0,0,,4,,,64,127
83128,note_on,4,0,0,,10,,,69,127
83128,note_on,0,0,0,,5,,,65,127
83128,note_on,0,0,0,,10,,,81,127
83334,note_off,206,0,0,,10,,,81,127
83338,note_on,4,0,0,,7,,,79,127
83404,note_off,66,0,0,,7,,,79,127
83404,note_off,0,0,0,,5,,,65,127
83404,note_off,0,0,0,,10,,,69,127
83408,note_on,4,0,0,,7,,,67,127
83408,note_on,0,0,0,,4,,,64,127
83408,note_on,0,0,0,,5,,,77,127
83614,note_off,206,0,0,,5,,,77,127
83618,note_on,4,0,0,,4,,,76,127
83684,note_off,66,0,0,,4,,,76,127
83684,note_off,0,0,0,,4,,,64,127
83684,note_off,0,0,0,,7,,,67,127
83688,note_on,4,0,0,,5,,,65,127
83688,note_on,0,0,0,,2,,,62,127
83688,note_on,0,0,0,,5,,,77,127
83894,note_off,206,0,0,,5,,,77,127
83898,note_on,4,0,0,,4,,,76,127
83964,note_off,66,0,0,,4,,,76,127
83964,note_off,0,0,0,,2,,,62,127
83964,note_off,0,0,0,,5,,,65,127
83968,note_on,4,0,0,,10,,,57,127
83968,note_on,0,0,0,,2,,,74,127
84174,note_off,206,0,0,,2,,,74,127
84178,note_on,4,0,0,,1,,,73,127
84244,note_off,66,0,0,,1,,,73,127
84244,note_off,0,0,0,,10,,,57,127
84248,note_on,4,0,0,,11,,,58,127
84248,note_on,0,0,0,,2,,,74,127
84454,note_off,206,0,0,,2,,,74,127
84458,note_on,4,0,0,,7,,,79,127
84524,note_off,66,0,0,,7,,,79,127
84524,note_off,0,0,0,,11,,,58,127
84528,note_on,4,0,0,,7,,,55,127
84528,note_on,0,0,0,,5,,,77,127
84664,note_off,136,0,0,,5,,,77,127
84668,note_on,4,0,0,,4,,,76,127
84804,note_off,136,0,0,,7,,,55,127
84808,note_on,4,0,0,,10,,,57,127
84944,note_off,136,0,0,,4,,,76,127
84948,note_on,4,0,0,,5,,,77,127
85084,note_off,136,0,0,,5,,,77,127
85088,note_on,4,0,0,,4,,,76,127
85224,note_off,136,0,0,,4,,,76,127
85228,note_on,4,0,0,,2,,,74,127
85368,note_on,140,0,0,,10,,,45,127
85504,note_off,136,0,0,,2,,,74,127
85508,note_on,4,0,0,,4,,,76,127
85644,note_off,136,0,0,,4,,,76,127
85644,note_off,0,0,0,,10,,,57,127
85648,note_on,4,0,0,,2,,,74,127
85784,note_off,136,0,0,,2,,,74,127
85788,note_on,4,0,0,,0,,,72,127
85788,note_on,0,0,0,,10,,,81,127
85924,note_off,136,0,0,,10,,,81,127
85924,note_off,0,0,0,,10,,,45,127
85928,note_on,4,0,0,,2,,,50,127
85928,note_on,0,0,0,,7,,,79,127
86064,note_off,136,0,0,,7,,,79,127
86068,note_on,4,0,0,,6,,,78,127
86204,note_off,136,0,0,,0,,,72,127
86208,note_on,4,0,0,,3,,,75,127
86485,note_off,277,0,0,,2,,,50,127
86486,note_off,1,0,0,,6,,,78,127
86489,note_on,3,0,0,,2,,,50,127
86766,note_off,277,0,0,,3,,,75,127
86770,note_on,4,0,0,,2,,,74,127
86906,note_off,136,0,0,,2,,,74,127
86910,note_on,4,0,0,,0,,,72,127
87046,note_off,136,0,0,,2,,,50,127
87050,note_on,4,0,0,,7,,,55,127
87186,note_off,136,0,0,,0,,,72,127
87190,note_on,4,0,0,,11,,,70,127
87326,note_off,136,0,0,,11,,,70,127
87330,note_on,4,0,0,,11,,,70,127
87470,note_on,140,0,0,,7,,,79,127
87606,note_off,136,0,0,,7,,,79,127
87606,note_off,0,0,0,,11,,,70,127
87606,note_off,0,0,0,,7,,,55,127
87610,note_on,4,0,0,,0,,,48,127
87610,note_on,0,0,0,,5,,,77,127
87610,note_on,0,0,0,,11,,,70,127
87746,note_off,136,0,0,,5,,,77,127
87750,note_on,4,0,0,,4,,,76,127
87886,note_off,136,0,0,,11,,,70,127
87890,note_on,4,0,0,,2,,,74,127
88167,note_off,277,0,0,,0,,,48,127
88168,note_off,1,0,0,,4,,,76,127
88171,note_on,3,0,0,,0,,,48,127
88448,note_off,277,0,0,,2,,,74,127
88452,note_on,4,0,0,,0,,,72,127
88588,note_off,136,0,0,,0,,,72,127
88592,note_on,4,0,0,,11,,,70,127
88728,note_off,136,0,0,,0,,,48,127
88732,note_on,4,0,0,,5,,,53,127
88868,note_off,136,0,0,,11,,,70,127
88872,note_on,4,0,0,,10,,,69,127
89008,note_off,136,0,0,,10,,,69,127
89012,note_on,4,0,0,,10,,,69,127
89148,note_off,136,0,0,,10,,,69,127
89152,note_on,4,0,0,,5,,,77,127
89288,note_off,136,0,0,,5,,,53,127
89292,note_on,4,0,0,,11,,,58,127
89498,note_off,206,0,0,,5,,,77,127
89502,note_on,4,0,0,,4,,,76,127
89568,note_off,66,0,0,,4,,,76,127
89572,note_on,4,0,0,,2,,,74,127
89778,note_off,206,0,0,,2,,,74,127
89782,note_on,4,0,0,,0,,,72,127
89848,note_off,66,0,0,,0,,,72,127
89848,note_off,0,0,0,,11,,,58,127
89852,note_on,4,0,0,,11,,,58,127
89852,note_on,0,0,0,,2,,,74,127
90058,note_off,206,0,0,,2,,,74,127
90062,note_on,4,0,0,,0,,,72,127
90128,note_off,66,0,0,,0,,,72,127
90132,note_on,4,0,0,,11,,,70,127
90338,note_off,206,0,0,,11,,,70,127
90342,note_on,4,0,0,,10,,,69,127
90408,note_off,66,0,0,,10,,,69,127
90408,note_off,0,0,0,,11,,,58,127
90412,note_on,4,0,0,,12,,,59,127
90412,note_on,0,0,0,,7,,,67,127
90618,note_off,206,0,0,,7,,,67,127
90622,note_on,4,0,0,,10,,,69,127
90688,note_off,66,0,0,,10,,,69,127
90692,note_on,4,0,0,,7,,,67,127
90898,note_off,206,0,0,,7,,,67,127
90902,note_on,4,0,0,,5,,,65,127
90968,note_off,66,0,0,,5,,,65,127
90968,note_off,0,0,0,,12,,,59,127
90972,note_on,4,0,0,,0,,,60,127
90972,note_on,0,0,0,,10,,,69,127
90972,note_on,0,0,0,,5,,,65,127
91249,note_off,277,0,0,,10,,,69,127
91253,note_on,4,0,0,,12,,,71,127
91530,note_off,277,0,0,,0,,,60,127
91534,note_on,4,0,0,,0,,,48,127
91926,note_on,392,0,0,,0,,,72,127
91936,note_off,10,0,0,,12,,,71,127
92011,note_on,75,0,0,,10,,,69,127
92015,note_off,4,0,0,,0,,,72,127
92091,note_off,76,0,0,,5,,,65,127
92092,note_off,1,0,0,,10,,,69,127
92095,note_on,3,0,0,,0,,,36,127
92095,note_on,0,0,0,,7,,,67,127
92095,note_on,0,0,0,,4,,,64,127
92619,note_off,524,0,0,,7,,,67,127
92637,note_off,18,0,0,,4,,,64,127
92653,note_off,16,0,0,,0,,,36,127
92653,note_off,0,0,0,,0,,,48,127
92657,note_on,4,0,0,,7,,,79,127
92708,note_off,51,0,0,,7,,,79,127
92712,note_on,4,0,0,,5,,,77,127
92763,note_off,51,0,0,,5,,,77,127
92767,note_on,4,0,0,,7,,,79,127
92818,note_off,51,0,0,,7,,,79,127
92822,note_on,4,0,0,,5,,,77,127
92875,note_off,53,0,0,,5,,,77,127
92879,note_on,4,0,0,,4,,,76,127
92932,note_off,53,0,0,,4,,,76,127
92936,note_on,4,0,0,,5,,,77,127
93142,note_off,206,0,0,,5,,,77,127
93146,note_on,4,0,0,,7,,,79,127
93212,note_off,66,0,0,,7,,,79,127
93216,note_on,4,0,0,,5,,,77,127
93216,note_on,0,0,0,,10,,,81,127
93493,note_off,277,0,0,,10,,,81,127
93493,note_off,0,0,0,,5,,,77,127
93497,note_on,4,0,0,,2,,,74,127
93497,note_on,0,0,0,,11,,,82,127
93774,note_off,277,0,0,,11,,,82,127
93774,note_off,0,0,0,,2,,,74,127
93778,note_on,4,0,0,,4,,,76,127
93778,note_on,0,0,0,,0,,,84,127
94055,note_off,277,0,0,,0,,,84,127
94055,note_off,0,0,0,,4,,,76,127
94059,note_on,4,0,0,,11,,,82,127
94059,note_on,0,0,0,,0,,,72,127
94336,note_off,277,0,0,,0,,,72,127
94336,note_off,0,0,0,,11,,,82,127
94340,note_on,4,0,0,,7,,,67,127
94340,note_on,0,0,0,,5,,,77,127
94340,note_on,0,0,0,,10,,,81,127
94391,note_off,51,0,0,,7,,,67,127
94395,note_on,4,0,0,,5,,,65,127
94446,note_off,51,0,0,,5,,,65,127
94450,note_on,4,0,0,,7,,,67,127
94501,note_off,51,0,0,,7,,,67,127
94505,note_on,4,0,0,,5,,,65,127
94558,note_off,53,0,0,,5,,,65,127
94562,note_on,4,0,0,,4,,,64,127
94615,note_off,53,0,0,,4,,,64,127
94619,note_on,4,0,0,,5,,,65,127
94825,note_off,206,0,0,,5,,,65,127
94829,note_on,4,0,0,,7,,,67,127
94895,note_off,66,0,0,,7,,,67,127
94899,note_on,4,0,0,,10,,,69,127
94899,note_on,0,0,0,,5,,,65,127
95176,note_off,277,0,0,,5,,,65,127
95176,note_off,0,0,0,,10,,,69,127
95180,note_on,4,0,0,,2,,,62,127
95180,note_on,0,0,0,,11,,,70,127
95457,note_off,277,0,0,,11,,,70,127
95457,note_off,0,0,0,,2,,,62,127
95457,note_off,0,0,0,,10,,,81,127
95457,note_off,0,0,0,,5,,,77,127
95461,note_on,4,0,0,,4,,,64,127
95461,note_on,0,0,0,,0,,,72,127
95736,note_off,275,0,0,,0,,,72,127
95737,note_off,1,0,0,,4,,,64,127
95741,note_on,4,0,0,,11,,,70,127
95741,note_on,0,0,0,,0,,,60,127
95741,note_on,0,0,0,,0,,,84,127
96018,note_off,277,0,0,,0,,,84,127
96018,note_off,0,0,0,,0,,,60,127
96018,note_off,0,0,0,,11,,,70,127
96022,note_on,4,0,0,,5,,,65,127
96022,note_on,0,0,0,,10,,,69,127
96022,note_on,0,0,0,,7,,,79,127
96088,note_off,66,0,0,,7,,,79,127
96092,note_on,4,0,0,,5,,,77,127
96158,note_off,66,0,0,,5,,,77,127
96162,note_on,4,0,0,,7,,,79,127
96228,note_off,66,0,0,,7,,,79,127
96232,note_on,4,0,0,,5,,,77,127
96298,note_off,66,0,0,,5,,,77,127
96298,note_off,0,0,0,,10,,,69,127
96298,note_off,0,0,0,,5,,,65,127
96302,note_on,4,0,0,,0,,,60,127
96302,note_on,0,0,0,,7,,,67,127
96302,note_on,0,0,0,,7,,,79,127
96368,note_off,66,0,0,,7,,,79,127
96372,note_on,4,0,0,,5,,,77,127
96438,note_off,66,0,0,,5,,,77,127
96442,note_on,4,0,0,,4,,,76,127
96508,note_off,66,0,0,,4,,,76,127
96512,note_on,4,0,0,,2,,,74,127
96578,note_off,66,0,0,,2,,,74,127
96578,note_off,0,0,0,,7,,,67,127
96578,note_off,0,0,0,,0,,,60,127
96582,note_on,4,0,0,,10,,,57,127
96582,note_on,0,0,0,,5,,,65,127
96582,note_on,0,0,0,,0,,,72,127
96859,note_off,277,0,0,,5,,,65,127
96859,note_off,0,0,0,,10,,,57,127
96863,note_on,4,0,0,,7,,,67,127
96863,note_on,0,0,0,,0,,,60,127
96863,note_on,0,0,0,,0,,,84,127
97135,note_off,272,0,0,,0,,,72,127
97139,note_off,4,0,0,,0,,,84,127
97139,note_off,0,0,0,,0,,,60,127
97139,note_off,0,0,0,,7,,,67,127
97143,note_on,4,0,0,,10,,,69,127
97143,note_on,0,0,0,,5,,,65,127
97143,note_on,0,0,0,,7,,,79,127
97209,note_off,66,0,0,,7,,,79,127
97213,note_on,4,0,0,,5,,,77,127
97279,note_off,66,0,0,,5,,,77,127
97283,note_on,4,0,0,,7,,,79,127
97349,note_off,66,0,0,,7,,,79,127
97353,note_on,4,0,0,,5,,,77,127
97419,note_off,66,0,0,,5,,,77,127
97419,note_off,0,0,0,,5,,,65,127
97419,note_off,0,0,0,,10,,,69,127
97423,note_on,4,0,0,,0,,,60,127
97423,note_on,0,0,0,,7,,,67,127
97423,note_on,0,0,0,,7,,,79,127
97489,note_off,66,0,0,,7,,,79,127
97493,note_on,4,0,0,,5,,,77,127
97559,note_off,66,0,0,,5,,,77,127
97563,note_on,4,0,0,,4,,,76,127
97629,note_off,66,0,0,,4,,,76,127
97633,note_on,4,0,0,,2,,,74,127
97699,note_off,66,0,0,,2,,,74,127
97699,note_off,0,0,0,,7,,,67,127
97699,note_off,0,0,0,,0,,,60,127
97703,note_on,4,0,0,,10,,,69,127
97703,note_on,0,0,0,,5,,,65,127
97703,note_on,0,0,0,,0,,,72,127
97980,note_off,277,0,0,,0,,,72,127
97984,note_on,4,0,0,,10,,,81,127
98190,note_off,206,0,0,,10,,,81,127
98194,note_on,4,0,0,,11,,,82,127
98260,note_off,66,0,0,,11,,,82,127
98260,note_off,0,0,0,,5,,,65,127
98260,note_off,0,0,0,,10,,,69,127
98264,note_on,4,0,0,,10,,,57,127
98264,note_on,0,0,0,,5,,,53,127
98264,note_on,0,0,0,,0,,,84,127
98470,note_off,206,0,0,,0,,,84,127
98474,note_on,4,0,0,,11,,,82,127
98540,note_off,66,0,0,,11,,,82,127
98540,note_off,0,0,0,,5,,,53,127
98540,note_off,0,0,0,,10,,,57,127
98544,note_on,4,0,0,,11,,,58,127
98544,note_on,0,0,0,,7,,,55,127
98544,note_on,0,0,0,,10,,,81,127
98750,note_off,206,0,0,,10,,,81,127
98754,note_on,4,0,0,,7,,,79,127
98820,note_off,66,0,0,,7,,,79,127
98820,note_off,0,0,0,,7,,,55,127
98820,note_off,0,0,0,,11,,,58,127
98824,note_on,4,0,0,,0,,,60,127
98824,note_on,0,0,0,,10,,,57,127
98824,note_on,0,0,0,,5,,,77,127
99030,note_off,206,0,0,,5,,,77,127
99034,note_on,4,0,0,,4,,,76,127
99100,note_off,66,0,0,,4,,,76,127
99100,note_off,0,0,0,,10,,,57,127
99100,note_off,0,0,0,,0,,,60,127
99104,note_on,4,0,0,,10,,,57,127
99104,note_on,0,0,0,,5,,,53,127
99104,note_on,0,0,0,,2,,,74,127
99310,note_off,206,0,0,,2,,,74,127
99314,note_on,4,0,0,,0,,,72,127
99380,note_off,66,0,0,,0,,,72,127
99380,note_off,0,0,0,,5,,,53,127
99380,note_off,0,0,0,,10,,,57,127
99384,note_on,4,0,0,,11,,,58,127
99384,note_on,0,0,0,,0,,,72,127
99520,note_off,136,0,0,,0,,,72,127
99524,note_on,4,0,0,,11,,,70,127
99660,note_off,136,0,0,,11,,,70,127
99660,note_off,0,0,0,,11,,,58,127
99664,note_on,4,0,0,,2,,,62,127
99664,note_on,0,0,0,,10,,,69,127
99800,note_off,136,0,0,,10,,,69,127
99804,note_on,4,0,0,,7,,,67,127
99940,note_off,136,0,0,,7,,,67,127
99940,note_off,0,0,0,,2,,,62,127
99944,note_on,4,0,0,,0,,,60,127
99944,note_on,0,0,0,,5,,,65,127
100150,note_off,206,0,0,,5,,,65,127
100154,note_on,4,0,0,,7,,,67,127
100220,note_off,66,0,0,,7,,,67,127
100224,note_on,4,0,0,,5,,,65,127
100290,note_off,66,0,0,,5,,,65,127
100294,note_on,4,0,0,,4,,,64,127
100360,note_off,66,0,0,,4,,,64,127
100364,note_on,4,0,0,,5,,,65,127
100430,note_off,66,0,0,,5,,,65,127
100434,note_on,4,0,0,,7,,,67,127
100500,note_off,66,0,0,,7,,,67,127
100504,note_on,4,0,0,,0,,,48,127
100504,note_on,0,0,0,,10,,,69,127
100570,note_off,66,0,0,,10,,,69,127
100574,note_on,4,0,0,,7,,,67,127
100640,note_off,66,0,0,,7,,,67,127
100644,note_on,4,0,0,,10,,,69,127
100710,note_off,66,0,0,,10,,,69,127
100714,note_on,4,0,0,,7,,,67,127
100780,note_off,66,0,0,,7,,,67,127
100784,note_on,4,0,0,,10,,,69,127
100850,note_off,66,0,0,,10,,,69,127
100854,note_on,4,0,0,,7,,,67,127
100920,note_off,66,0,0,,7,,,67,127
100924,note_on,4,0,0,,5,,,65,127
100990,note_off,66,0,0,,5,,,65,127
100994,note_on,4,0,0,,7,,,67,127
101060,note_off,66,0,0,,7,,,67,127
101060,note_off,0,0,0,,0,,,48,127
101060,note_off,0,0,0,,0,,,60,127
101064,note_on,4,0,0,,5,,,53,127
101064,note_on,0,0,0,,5,,,65,127
101345,note_on,281,0,0,,5,,,77,127
101617,note_off,272,0,0,,5,,,65,127
101621,note_off,4,0,0,,5,,,77,127
101625,note_on,4,0,0,,5,,,77,127
101625,note_on,0,0,0,,7,,,79,127
101763,note_off,138,0,0,,5,,,53,127
101902,note_off,139,0,0,,7,,,79,127
101902,note_off,0,0,0,,5,,,77,127
101906,note_on,4,0,0,,3,,,75,127
101906,note_on,0,0,0,,10,,,81,127
102183,note_off,277,0,0,,10,,,81,127
102183,note_off,0,0,0,,3,,,75,127
102187,note_on,4,0,0,,5,,,41,127
102187,note_on,0,0,0,,2,,,74,127
102187,note_on,0,0,0,,11,,,82,127
102464,note_off,277,0,0,,11,,,82,127
102464,note_off,0,0,0,,2,,,74,127
102468,note_on,4,0,0,,0,,,72,127
102468,note_on,0,0,0,,0,,,84,127
102745,note_off,277,0,0,,0,,,84,127
102745,note_off,0,0,0,,0,,,72,127
102745,note_off,0,0,0,,5,,,41,127
102749,note_on,4,0,0,,11,,,46,127
102749,note_on,0,0,0,,2,,,74,127
102749,note_on,0,0,0,,2,,,86,127
103026,note_off,277,0,0,,2,,,86,127
103026,note_off,0,0,0,,2,,,74,127
103030,note_on,4,0,0,,2,,,74,127
103307,note_off,277,0,0,,2,,,74,127
103311,note_on,4,0,0,,2,,,74,127
103311,note_on,0,0,0,,4,,,76,127
103588,note_off,277,0,0,,4,,,76,127
103588,note_off,0,0,0,,2,,,74,127
103588,note_off,0,0,0,,11,,,46,127
103592,note_on,4,0,0,,0,,,72,127
103592,note_on,0,0,0,,5,,,77,127
103869,note_off,277,0,0,,5,,,77,127
103869,note_off,0,0,0,,0,,,72,127
103873,note_on,4,0,0,,11,,,46,127
103873,note_on,0,0,0,,7,,,79,127
103873,note_on,0,0,0,,11,,,70,127
104150,note_off,277,0,0,,11,,,70,127
104150,note_off,0,0,0,,7,,,79,127
104154,note_on,4,0,0,,10,,,69,127
104154,note_on,0,0,0,,10,,,81,127
104431,note_off,277,0,0,,10,,,81,127
104431,note_off,0,0,0,,10,,,69,127
104431,note_off,0,0,0,,11,,,46,127
104435,note_on,4,0,0,,0,,,48,127
104435,note_on,0,0,0,,11,,,70,127
104435,note_on,0,0,0,,0,,,72,127
104712,note_off,277,0,0,,0,,,72,127
104712,note_off,0,0,0,,11,,,70,127
104716,note_on,4,0,0,,7,,,67,127
104993,note_off,277,0,0,,7,,,67,127
104997,note_on,4,0,0,,4,,,64,127
105133,note_off,136,0,0,,4,,,64,127
105137,note_on,4,0,0,,11,,,70,127
105273,note_off,136,0,0,,11,,,70,127
105277,note_on,4,0,0,,10,,,69,127
105413,note_off,136,0,0,,10,,,69,127
105417,note_on,4,0,0,,7,,,67,127
105553,note_off,136,0,0,,7,,,67,127
105553,note_off,0,0,0,,0,,,48,127
105557,note_on,4,0,0,,5,,,53,127
105557,note_on,0,0,0,,10,,,69,127
105693,note_off,136,0,0,,10,,,69,127
105697,note_on,4,0,0,,11,,,70,127
105833,note_off,136,0,0,,11,,,70,127
105837,note_on,4,0,0,,12,,,71,127
105973,note_off,136,0,0,,12,,,71,127
105977,note_on,4,0,0,,0,,,72,127
106113,note_off,136,0,0,,0,,,72,127
106113,note_off,0,0,0,,5,,,53,127
106117,note_on,4,0,0,,11,,,58,127
106117,note_on,0,0,0,,1,,,73,127
106253,note_off,136,0,0,,1,,,73,127
106257,note_on,4,0,0,,2,,,74,127
106393,note_off,136,0,0,,2,,,74,127
106397,note_on,4,0,0,,11,,,70,127
106533,note_off,136,0,0,,11,,,70,127
106537,note_on,4,0,0,,7,,,67,127
106673,note_off,136,0,0,,7,,,67,127
106673,note_off,0,0,0,,11,,,58,127
106677,note_on,4,0,0,,0,,,60,127
106677,note_on,0,0,0,,5,,,65,127
106883,note_off,206,0,0,,5,,,65,127
106887,note_on,4,0,0,,7,,,67,127
106953,note_off,66,0,0,,7,,,67,127
106957,note_on,4,0,0,,5,,,65,127
107023,note_off,66,0,0,,5,,,65,127
107027,note_on,4,0,0,,4,,,64,127
107093,note_off,66,0,0,,4,,,64,127
107097,note_on,4,0,0,,5,,,65,127
107163,note_off,66,0,0,,5,,,65,127
107167,note_on,4,0,0,,7,,,67,127
107233,note_off,66,0,0,,7,,,67,127
107237,note_on,4,0,0,,0,,,48,127
107237,note_on,0,0,0,,10,,,69,127
107303,note_off,66,0,0,,10,,,69,127
107307,note_on,4,0,0,,7,,,67,127
107373,note_off,66,0,0,,7,,,67,127
107377,note_on,4,0,0,,10,,,69,127
107443,note_off,66,0,0,,10,,,69,127
107447,note_on,4,0,0,,7,,,67,127
107513,note_off,66,0,0,,7,,,67,127
107517,note_on,4,0,0,,10,,,69,127
107583,note_off,66,0,0,,10,,,69,127
107587,note_on,4,0,0,,7,,,67,127
107653,note_off,66,0,0,,7,,,67,127
107657,note_on,4,0,0,,5,,,65,127
107723,note_off,66,0,0,,5,,,65,127
107727,note_on,4,0,0,,4,,,64,127
107793,note_off,66,0,0,,4,,,64,127
107793,note_off,0,0,0,,0,,,48,127
107793,note_off,0,0,0,,0,,,60,127
107797,note_on,4,0,0,,5,,,53,127
107797,note_on,0,0,0,,5,,,65,127
108078,note_on,281,0,0,,5,,,77,127
108350,note_off,272,0,0,,5,,,65,127
108354,note_off,4,0,0,,5,,,77,127
108358,note_on,4,0,0,,7,,,79,127
108358,note_on,0,0,0,,5,,,77,127
108635,note_off,277,0,0,,5,,,77,127
108635,note_off,0,0,0,,7,,,79,127
108639,note_on,4,0,0,,10,,,81,127
108639,note_on,0,0,0,,3,,,75,127
108916,note_off,277,0,0,,3,,,75,127
108916,note_off,0,0,0,,10,,,81,127
108920,note_on,4,0,0,,5,,,41,127
108920,note_on,0,0,0,,2,,,74,127
108920,note_on,0,0,0,,11,,,82,127
109197,note_off,277,0,0,,11,,,82,127
109197,note_off,0,0,0,,2,,,74,127
109201,note_on,4,0,0,,0,,,72,127
109201,note_on,0,0,0,,0,,,84,127
109476,note_off,275,0,0,,5,,,53,127
109477,note_off,1,0,0,,0,,,84,127
109477,note_off,0,0,0,,0,,,72,127
109477,note_off,0,0,0,,5,,,41,127
109481,note_on,4,0,0,,11,,,46,127
109481,note_on,0,0,0,,2,,,74,127
109481,note_on,0,0,0,,2,,,86,127
109758,note_off,277,0,0,,2,,,86,127
109758,note_off,0,0,0,,2,,,74,127
109762,note_on,4,0,0,,2,,,74,127
110039,note_off,277,0,0,,2,,,74,127
110043,note_on,4,0,0,,2,,,74,127
110043,note_on,0,0,0,,4,,,76,127
110320,note_off,277,0,0,,4,,,76,127
110320,note_off,0,0,0,,2,,,74,127
110324,note_on,4,0,0,,0,,,72,127
110324,note_on,0,0,0,,5,,,77,127
110601,note_off,277,0,0,,5,,,77,127
110601,note_off,0,0,0,,0,,,72,127
110601,note_off,0,0,0,,11,,,46,127
110605,note_on,4,0,0,,11,,,46,127
110605,note_on,0,0,0,,11,,,70,127
110605,note_on,0,0,0,,7,,,79,127
110882,note_off,277,0,0,,7,,,79,127
110882,note_off,0,0,0,,11,,,70,127
110886,note_on,4,0,0,,10,,,69,127
110886,note_on,0,0,0,,10,,,81,127
111163,note_off,277,0,0,,10,,,81,127
111163,note_off,0,0,0,,10,,,69,127
111163,note_off,0,0,0,,11,,,46,127
111167,note_on,4,0,0,,0,,,48,127
111167,note_on,0,0,0,,11,,,70,127
111167,note_on,0,0,0,,0,,,72,127
111444,note_off,277,0,0,,11,,,70,127
111448,note_on,4,0,0,,7,,,67,127
111725,note_off,277,0,0,,7,,,67,127
111729,note_on,4,0,0,,4,,,64,127
111859,note_off,130,0,0,,0,,,72,127
111865,note_off,6,0,0,,4,,,64,127
111869,note_on,4,0,0,,11,,,70,127
112005,note_off,136,0,0,,11,,,70,127
112005,note_off,0,0,0,,0,,,48,127
112009,note_on,4,0,0,,10,,,69,127
112145,note_off,136,0,0,,10,,,69,127
112149,note_on,4,0,0,,7,,,67,127
112285,note_off,136,0,0,,7,,,67,127
112289,note_on,4,0,0,,5,,,53,127
112289,note_on,0,0,0,,10,,,69,127
112425,note_off,136,0,0,,10,,,69,127
112429,note_on,4,0,0,,11,,,70,127
112565,note_off,136,0,0,,11,,,70,127
112569,note_on,4,0,0,,12,,,71,127
112705,note_off,136,0,0,,12,,,71,127
112709,note_on,4,0,0,,0,,,72,127
112845,note_off,136,0,0,,0,,,72,127
112845,note_off,0,0,0,,5,,,53,127
112849,note_on,4,0,0,,11,,,58,127
112849,note_on,0,0,0,,1,,,73,127
112985,note_off,136,0,0,,1,,,73,127
112989,note_on,4,0,0,,2,,,74,127
113125,note_off,136,0,0,,2,,,74,127
113129,note_on,4,0,0,,11,,,70,127
113265,note_off,136,0,0,,11,,,70,127
113269,note_on,4,0,0,,7,,,67,127
113405,note_off,136,0,0,,7,,,67,127
113405,note_off,0,0,0,,11,,,58,127
113409,note_on,4,0,0,,0,,,60,127
113409,note_on,0,0,0,,5,,,65,127
113615,note_off,206,0,0,,5,,,65,127
113619,note_on,4,0,0,,7,,,67,127
113685,note_off,66,0,0,,7,,,67,127
113689,note_on,4,0,0,,5,,,65,127
113755,note_off,66,0,0,,5,,,65,127
113759,note_on,4,0,0,,4,,,64,127
113825,note_off,66,0,0,,4,,,64,127
113829,note_on,4,0,0,,5,,,65,127
113895,note_off,66,0,0,,5,,,65,127
113899,note_on,4,0,0,,7,,,67,127
113965,note_off,66,0,0,,7,,,67,127
113969,note_on,4,0,0,,0,,,48,127
113969,note_on,0,0,0,,10,,,69,127
114035,note_off,66,0,0,,10,,,69,127
114039,note_on,4,0,0,,7,,,67,127
114105,note_off,66,0,0,,7,,,67,127
114109,note_on,4,0,0,,10,,,69,127
114175,note_off,66,0,0,,10,,,69,127
114179,note_on,4,0,0,,7,,,67,127
114245,note_off,66,0,0,,7,,,67,127
114249,note_on,4,0,0,,10,,,69,127
114315,note_off,66,0,0,,10,,,69,127
114319,note_on,4,0,0,,7,,,67,127
114385,note_off,66,0,0,,7,,,67,127
114389,note_on,4,0,0,,5,,,65,127
114455,note_off,66,0,0,,5,,,65,127
114459,note_on,4,0,0,,7,,,67,127
114525,note_off,66,0,0,,7,,,67,127
114525,note_off,0,0,0,,0,,,48,127
114525,note_off,0,0,0,,0,,,60,127
114529,note_on,4,0,0,,5,,,53,127
114529,note_on,0,0,0,,5,,,41,127
114529,note_on,0,0,0,,5,,,65,127
114806,note_off,277,0,0,,5,,,65,127
114810,note_on,4,0,0,,5,,,77,127
114810,note_on,0,0,0,,10,,,69,127
114946,note_off,136,0,0,,10,,,69,127
114946,note_off,0,0,0,,5,,,77,127
114950,note_on,4,0,0,,7,,,79,127
114950,note_on,0,0,0,,11,,,70,127
115086,note_off,136,0,0,,11,,,70,127
115086,note_off,0,0,0,,7,,,79,127
115086,note_off,0,0,0,,5,,,41,127
115086,note_off,0,0,0,,5,,,53,127
115090,note_on,4,0,0,,5,,,53,127
115090,note_on,0,0,0,,5,,,77,127
115090,note_on,0,0,0,,10,,,69,127
115367,note_off,277,0,0,,10,,,69,127
115367,note_off,0,0,0,,5,,,77,127
115371,note_on,4,0,0,,5,,,65,127
115371,note_on,0,0,0,,0,,,72,127
115648,note_off,277,0,0,,5,,,65,127
115648,note_off,0,0,0,,5,,,53,127
115652,note_on,4,0,0,,4,,,52,127
115652,note_on,0,0,0,,0,,,60,127
115929,note_off,277,0,0,,0,,,72,127
115933,note_on,4,0,0,,11,,,70,127
116210,note_off,277,0,0,,11,,,70,127
116210,note_off,0,0,0,,0,,,60,127
116210,note_off,0,0,0,,4,,,52,127
116214,note_on,4,0,0,,5,,,41,127
116214,note_on,0,0,0,,5,,,53,127
116214,note_on,0,0,0,,5,,,65,127
116214,note_on,0,0,0,,10,,,69,127
116491,note_off,277,0,0,,10,,,69,127
116491,note_off,0,0,0,,5,,,65,127
116495,note_on,4,0,0,,10,,,69,127
116495,note_on,0,0,0,,5,,,77,127
116631,note_off,136,0,0,,5,,,77,127
116631,note_off,0,0,0,,10,,,69,127
116635,note_on,4,0,0,,7,,,79,127
116635,note_on,0,0,0,,11,,,70,127
116771,note_off,136,0,0,,11,,,70,127
116771,note_off,0,0,0,,7,,,79,127
116771,note_off,0,0,0,,5,,,53,127
116771,note_off,0,0,0,,5,,,41,127
116775,note_on,4,0,0,,5,,,53,127
116775,note_on,0,0,0,,10,,,69,127
116775,note_on,0,0,0,,5,,,77,127
117052,note_off,277,0,0,,5,,,77,127
117052,note_off,0,0,0,,10,,,69,127
117056,note_on,4,0,0,,5,,,65,127
117056,note_on,0,0,0,,0,,,72,127
117333,note_off,277,0,0,,5,,,65,127
117333,note_off,0,0,0,,5,,,53,127
117337,note_on,4,0,0,,4,,,52,127
117337,note_on,0,0,0,,0,,,60,127
117614,note_off,277,0,0,,0,,,72,127
117618,note_on,4,0,0,,11,,,70,127
117895,note_off,277,0,0,,11,,,70,127
117895,note_off,0,0,0,,0,,,60,127
117895,note_off,0,0,0,,4,,,52,127
117899,note_on,4,0,0,,5,,,53,127
117899,note_on,0,0,0,,10,,,69,127
117988,note_off,89,0,0,,10,,,69,127
117992,note_on,4,0,0,,11,,,70,127
118081,note_off,89,0,0,,11,,,70,127
118085,note_on,4,0,0,,0,,,72,127
118174,note_off,89,0,0,,0,,,72,127
118174,note_off,0,0,0,,5,,,53,127
118178,note_on,4,0,0,,11,,,46,127
118178,note_on,0,0,0,,11,,,70,127
118267,note_off,89,0,0,,11,,,70,127
118271,note_on,4,0,0,,10,,,69,127
118360,note_off,89,0,0,,10,,,69,127
118364,note_on,4,0,0,,7,,,67,127
118453,note_off,89,0,0,,7,,,67,127
118453,note_off,0,0,0,,11,,,46,127
118457,note_on,4,0,0,,0,,,48,127
118457,note_on,0,0,0,,5,,,65,127
118663,note_off,206,0,0,,5,,,65,127
118667,note_on,4,0,0,,7,,,67,127
118733,note_off,66,0,0,,7,,,67,127
118737,note_on,4,0,0,,5,,,65,127
118803,note_off,66,0,0,,5,,,65,127
118807,note_on,4,0,0,,4,,,64,127
118873,note_off,66,0,0,,4,,,64,127
118877,note_on,4,0,0,,5,,,65,127
118943,note_off,66,0,0,,5,,,65,127
118947,note_on,4,0,0,,7,,,67,127
119013,note_off,66,0,0,,7,,,67,127
119017,note_on,4,0,0,,0,,,36,127
119017,note_on,0,0,0,,10,,,69,127
119083,note_off,66,0,0,,10,,,69,127
119087,note_on,4,0,0,,7,,,67,127
119153,note_off,66,0,0,,7,,,67,127
119157,note_on,4,0,0,,10,,,69,127
119223,note_off,66,0,0,,10,,,69,127
119227,note_on,4,0,0,,7,,,67,127
119293,note_off,66,0,0,,7,,,67,127
119297,note_on,4,0,0,,10,,,69,127
119363,note_off,66,0,0,,10,,,69,127
119367,note_on,4,0,0,,7,,,67,127
119433,note_off,66,0,0,,7,,,67,127
119437,note_on,4,0,0,,5,,,65,127
119503,note_off,66,0,0,,5,,,65,127
119507,note_on,4,0,0,,7,,,67,127
119573,note_off,66,0,0,,7,,,67,127
119573,note_off,0,0,0,,0,,,36,127
119573,note_off,0,0,0,,0,,,48,127
119577,note_on,4,0,0,,5,,,41,127
119577,note_on,0,0,0,,5,,,65,127
119854,note_off,277,0,0,,5,,,65,127
119858,note_on,4,0,0,,10,,,69,127
119858,note_on,0,0,0,,5,,,77,127
119994,note_off,136,0,0,,5,,,77,127
119994,note_off,0,0,0,,10,,,69,127
119995,note_off,1,0,0,,5,,,41,127
119998,note_on,3,0,0,,7,,,79,127
119998,note_on,0,0,0,,11,,,70,127
120134,note_off,136,0,0,,11,,,70,127
120134,note_off,0,0,0,,7,,,79,127
120138,note_on,4,0,0,,5,,,53,127
120138,note_on,0,0,0,,5,,,77,127
120138,note_on,0,0,0,,10,,,69,127
120415,note_off,277,0,0,,10,,,69,127
120415,note_off,0,0,0,,5,,,77,127
120419,note_on,4,0,0,,0,,,72,127
120419,note_on,0,0,0,,5,,,65,127
120696,note_off,277,0,0,,5,,,65,127
120696,note_off,0,0,0,,5,,,53,127
120700,note_on,4,0,0,,4,,,52,127
120700,note_on,0,0,0,,0,,,60,127
120977,note_off,277,0,0,,0,,,72,127
120981,note_on,4,0,0,,11,,,70,127
121258,note_off,277,0,0,,11,,,70,127
121258,note_off,0,0,0,,0,,,60,127
121258,note_off,0,0,0,,4,,,52,127
121262,note_on,4,0,0,,5,,,41,127
121262,note_on,0,0,0,,5,,,65,127
121262,note_on,0,0,0,,10,,,69,127
121539,note_off,277,0,0,,10,,,69,127
121539,note_off,0,0,0,,5,,,65,127
121543,note_on,4,0,0,,5,,,77,127
121543,note_on,0,0,0,,10,,,69,127
121679,note_off,136,0,0,,10,,,69,127
121679,note_off,0,0,0,,5,,,77,127
121680,note_off,1,0,0,,5,,,41,127
121683,note_on,3,0,0,,7,,,79,127
121683,note_on,0,0,0,,11,,,70,127
121819,note_off,136,0,0,,11,,,70,127
121819,note_off,0,0,0,,7,,,79,127
121823,note_on,4,0,0,,5,,,53,127
121823,note_on,0,0,0,,5,,,77,127
121823,note_on,0,0,0,,10,,,69,127
122100,note_off,277,0,0,,10,,,69,127
122100,note_off,0,0,0,,5,,,77,127
122104,note_on,4,0,0,,5,,,65,127
122104,note_on,0,0,0,,0,,,72,127
122381,note_off,277,0,0,,5,,,65,127
122381,note_off,0,0,0,,5,,,53,127
122385,note_on,4,0,0,,4,,,52,127
122385,note_on,0,0,0,,0,,,60,127
122662,note_off,277,0,0,,0,,,72,127
122666,note_on,4,0,0,,11,,,70,127
122943,note_off,277,0,0,,11,,,70,127
122943,note_off,0,0,0,,0,,,60,127
122943,note_off,0,0,0,,4,,,52,127
122947,note_on,4,0,0,,5,,,53,127
122947,note_on,0,0,0,,10,,,69,127
123036,note_off,89,0,0,,10,,,69,127
123040,note_on,4,0,0,,11,,,70,127
123129,note_off,89,0,0,,11,,,70,127
123133,note_on,4,0,0,,0,,,72,127
123222,note_off,89,0,0,,0,,,72,127
123222,note_off,0,0,0,,5,,,53,127
123226,note_on,4,0,0,,11,,,46,127
123226,note_on,0,0,0,,11,,,70,127
123315,note_off,89,0,0,,11,,,70,127
123319,note_on,4,0,0,,10,,,69,127
123408,note_off,89,0,0,,10,,,69,127
123412,note_on,4,0,0,,7,,,67,127
123501,note_off,89,0,0,,7,,,67,127
123501,note_off,0,0,0,,11,,,46,127
123505,note_on,4,0,0,,0,,,48,127
123505,note_on,0,0,0,,5,,,65,127
123711,note_off,206,0,0,,5,,,65,127
123715,note_on,4,0,0,,7,,,67,127
123781,note_off,66,0,0,,7,,,67,127
123785,note_on,4,0,0,,5,,,65,127
123851,note_off,66,0,0,,5,,,65,127
123855,note_on,4,0,0,,4,,,64,127
123921,note_off,66,0,0,,4,,,64,127
123925,note_on,4,0,0,,5,,,65,127
123991,note_off,66,0,0,,5,,,65,127
123995,note_on,4,0,0,,7,,,67,127
124061,note_off,66,0,0,,7,,,67,127
124065,note_on,4,0,0,,0,,,36,127
124065,note_on,0,0,0,,10,,,69,127
124131,note_off,66,0,0,,10,,,69,127
124135,note_on,4,0,0,,7,,,67,127
124201,note_off,66,0,0,,7,,,67,127
124205,note_on,4,0,0,,10,,,69,127
124271,note_off,66,0,0,,10,,,69,127
124275,note_on,4,0,0,,7,,,67,127
124341,note_off,66,0,0,,7,,,67,127
124345,note_on,4,0,0,,10,,,69,127
124411,note_off,66,0,0,,10,,,69,127
124415,note_on,4,0,0,,7,,,67,127
124481,note_off,66,0,0,,7,,,67,127
124485,note_on,4,0,0,,5,,,65,127
124551,note_off,66,0,0,,5,,,65,127
124555,note_on,4,0,0,,7,,,67,127
124621,note_off,66,0,0,,7,,,67,127
124621,note_off,0,0,0,,0,,,36,127
124621,note_off,0,0,0,,0,,,48,127
124625,note_on,4,0,0,,5,,,53,127
124625,note_on,0,0,0,,5,,,65,127
124902,note_off,277,0,0,,5,,,65,127
124902,note_off,0,0,0,,5,,,53,127
124906,note_on,4,0,0,,0,,,60,127
124906,note_on,0,0,0,,10,,,57,127
124906,note_on,0,0,0,,5,,,77,127
124906,note_on,0,0,0,,5,,,65,127
125042,note_off,136,0,0,,10,,,57,127
125042,note_off,0,0,0,,0,,,60,127
125046,note_on,4,0,0,,2,,,62,127
125046,note_on,0,0,0,,11,,,58,127
125182,note_off,136,0,0,,11,,,58,127
125182,note_off,0,0,0,,2,,,62,127
125186,note_on,4,0,0,,10,,,57,127
125186,note_on,0,0,0,,0,,,60,127
125463,note_off,277,0,0,,0,,,60,127
125463,note_off,0,0,0,,10,,,57,127
125463,note_off,0,0,0,,5,,,65,127
125463,note_off,0,0,0,,5,,,77,127
125467,note_on,4,0,0,,7,,,55,127
125467,note_on,0,0,0,,11,,,58,127
125467,note_on,0,0,0,,7,,,67,127
125467,note_on,0,0,0,,7,,,79,127
125744,note_off,277,0,0,,7,,,79,127
125744,note_off,0,0,0,,7,,,67,127
125744,note_off,0,0,0,,11,,,58,127
125744,note_off,0,0,0,,7,,,55,127
125748,note_on,4,0,0,,5,,,53,127
125748,note_on,0,0,0,,10,,,57,127
125748,note_on,0,0,0,,10,,,81,127
125748,note_on,0,0,0,,10,,,69,127
126025,note_off,277,0,0,,10,,,69,127
126025,note_off,0,0,0,,10,,,81,127
126025,note_off,0,0,0,,10,,,57,127
126025,note_off,0,0,0,,5,,,53,127
126029,note_on,4,0,0,,4,,,52,127
126029,note_on,0,0,0,,7,,,55,127
126029,note_on,0,0,0,,11,,,82,127
126029,note_on,0,0,0,,11,,,70,127
126306,note_off,277,0,0,,11,,,70,127
126306,note_off,0,0,0,,11,,,82,127
126306,note_off,0,0,0,,7,,,55,127
126306,note_off,0,0,0,,4,,,52,127
126310,note_on,4,0,0,,5,,,53,127
126310,note_on,0,0,0,,10,,,81,127
126310,note_on,0,0,0,,10,,,69,127
126541,note_off,231,0,0,,10,,,69,127
126541,note_off,0,0,0,,10,,,81,127
126586,note_off,45,0,0,,5,,,53,127
126590,note_on,4,0,0,,0,,,60,127
126590,note_on,0,0,0,,10,,,57,127
126590,note_on,0,0,0,,5,,,65,127
126590,note_on,0,0,0,,5,,,77,127
126726,note_off,136,0,0,,10,,,57,127
126726,note_off,0,0,0,,0,,,60,127
126730,note_on,4,0,0,,2,,,62,127
126730,note_on,0,0,0,,11,,,58,127
126866,note_off,136,0,0,,11,,,58,127
126866,note_off,0,0,0,,2,,,62,127
126870,note_on,4,0,0,,10,,,57,127
126870,note_on,0,0,0,,0,,,60,127
127147,note_off,277,0,0,,0,,,60,127
127147,note_off,0,0,0,,10,,,57,127
127147,note_off,0,0,0,,5,,,77,127
127147,note_off,0,0,0,,5,,,65,127
127151,note_on,4,0,0,,7,,,55,127
127151,note_on,0,0,0,,11,,,58,127
127151,note_on,0,0,0,,7,,,67,127
127291,note_on,140,0,0,,7,,,79,127
127358,note_off,67,0,0,,7,,,67,127
127427,note_off,69,0,0,,11,,,58,127
127427,note_off,0,0,0,,7,,,55,127
127431,note_on,4,0,0,,5,,,53,127
127431,note_on,0,0,0,,10,,,57,127
127431,note_on,0,0,0,,10,,,69,127
127498,note_off,67,0,0,,7,,,79,127
127571,note_on,73,0,0,,10,,,81,127
127638,note_off,67,0,0,,10,,,69,127
127707,note_off,69,0,0,,10,,,57,127
127707,note_off,0,0,0,,5,,,53,127
127711,note_on,4,0,0,,4,,,52,127
127711,note_on,0,0,0,,7,,,55,127
127711,note_on,0,0,0,,11,,,70,127
127778,note_off,67,0,0,,10,,,81,127
127851,note_on,73,0,0,,11,,,82,127
127918,note_off,67,0,0,,11,,,70,127
127987,note_off,69,0,0,,11,,,82,127
127987,note_off,0,0,0,,7,,,55,127
127987,note_off,0,0,0,,4,,,52,127
127991,note_on,4,0,0,,5,,,53,127
127991,note_on,0,0,0,,12,,,83,127
128127,note_off,136,0,0,,12,,,83,127
128131,note_on,4,0,0,,0,,,84,127
128267,note_off,136,0,0,,0,,,84,127
128267,note_off,0,0,0,,5,,,53,127
128271,note_on,4,0,0,,11,,,46,127
128271,note_on,0,0,0,,1,,,85,127
128407,note_off,136,0,0,,1,,,85,127
128411,note_on,4,0,0,,2,,,86,127
128547,note_off,136,0,0,,2,,,86,127
128547,note_off,0,0,0,,11,,,46,127
128551,note_on,4,0,0,,10,,,57,127
128551,note_on,0,0,0,,0,,,48,127
128551,note_on,0,0,0,,5,,,53,127
128551,note_on,0,0,0,,5,,,77,127
128757,note_off,206,0,0,,5,,,77,127
128761,note_on,4,0,0,,7,,,79,127
128827,note_off,66,0,0,,7,,,79,127
128831,note_on,4,0,0,,5,,,77,127
128897,note_off,66,0,0,,5,,,77,127
128901,note_on,4,0,0,,4,,,76,127
128967,note_off,66,0,0,,4,,,76,127
128971,note_on,4,0,0,,5,,,77,127
129037,note_off,66,0,0,,5,,,77,127
129041,note_on,4,0,0,,7,,,79,127
129107,note_off,66,0,0,,7,,,79,127
129107,note_off,0,0,0,,5,,,53,127
129107,note_off,0,0,0,,0,,,48,127
129107,note_off,0,0,0,,10,,,57,127
129111,note_on,4,0,0,,7,,,55,127
129111,note_on,0,0,0,,0,,,48,127
129111,note_on,0,0,0,,11,,,58,127
129111,note_on,0,0,0,,5,,,77,127
129177,note_off,66,0,0,,5,,,77,127
129181,note_on,4,0,0,,7,,,79,127
129247,note_off,66,0,0,,7,,,79,127
129251,note_on,4,0,0,,10,,,81,127
129317,note_off,66,0,0,,10,,,81,127
129321,note_on,4,0,0,,7,,,79,127
129387,note_off,66,0,0,,7,,,79,127
129391,note_on,4,0,0,,10,,,81,127
129457,note_off,66,0,0,,10,,,81,127
129461,note_on,4,0,0,,7,,,79,127
129527,note_off,66,0,0,,7,,,79,127
129531,note_on,4,0,0,,5,,,77,127
129597,note_off,66,0,0,,5,,,77,127
129601,note_on,4,0,0,,7,,,79,127
129667,note_off,66,0,0,,7,,,79,127
129667,note_off,0,0,0,,11,,,58,127
129667,note_off,0,0,0,,0,,,48,127
129667,note_off,0,0,0,,7,,,55,127
129671,note_on,4,0,0,,5,,,53,127
129671,note_on,0,0,0,,5,,,41,127
129671,note_on,0,0,0,,5,,,77,127
131909,note_off,2238,0,0,,5,,,53,127
131910,note_off,1,0,0,,5,,,77,127
131910,note_off,0,0,0,,5,,,41,127
133632,end_of_track,1722,1,0,,,,,,
