tick,type,time,meta,track,program,channel,pitch,tempo,note,velocity
0,copyright,0,1,0,,,,,,
0,program_change,0,0,0,6,0,,,,
0,pitchwheel,0,0,0,,0,0,,,
0,program_change,0,0,0,6,1,,,,
0,pitchwheel,0,0,0,,1,-590,,,
0,program_change,0,0,0,6,2,,,,
0,pitchwheel,0,0,0,,2,-272,,,
0,program_change,0,0,0,6,3,,,,
0,pitchwheel,0,0,0,,3,-353,,,
0,program_change,0,0,0,6,4,,,,
0,pitchwheel,0,0,0,,4,-560,,,
0,program_change,0,0,0,6,5,,,,
0,pitchwheel,0,0,0,,5,-80,,,
0,program_change,0,0,0,6,6,,,,
0,pitchwheel,0,0,0,,6,-625,,,
0,program_change,0,0,0,6,7,,,,
0,pitchwheel,0,0,0,,7,-130,,,
0,program_change,0,0,0,6,8,,,,
0,pitchwheel,0,0,0,,8,-512,,,
0,program_change,0,0,0,6,10,,,,
0,pitchwheel,0,0,0,,10,-464,,,
0,program_change,0,0,0,6,11,,,,
0,pitchwheel,0,0,0,,11,-208,,,
0,program_change,0,0,0,6,12,,,,
0,pitchwheel,0,0,0,,12,-553,,,
0,set_tempo,0,1,0,,,,500000,,
125,note_on,125,0,0,,5,,,65,127
375,note_on,250,0,0,,5,,,77,127
622,note_off,247,0,0,,5,,,65,127
625,note_off,3,0,0,,5,,,77,127
626,note_on,1,0,0,,5,,,65,127
687,note_off,61,0,0,,5,,,65,127
688,note_on,1,0,0,,4,,,64,127
749,note_off,61,0,0,,4,,,64,127
750,note_on,1,0,0,,5,,,65,127
811,note_off,61,0,0,,5,,,65,127
812,note_on,1,0,0,,4,,,64,127
873,note_off,61,0,0,,4,,,64,127
874,note_on,1,0,0,,5,,,65,127
935,note_off,61,0,0,,5,,,65,127
936,note_on,1,0,0,,4,,,64,127
997,note_off,61,0,0,,4,,,64,127
998,note_on,1,0,0,,2,,,62,127
1059,note_off,61,0,0,,2,,,62,127
1060,note_on,1,0,0,,4,,,64,127
1121,note_off,61,0,0,,4,,,64,127
1122,note_on,1,0,0,,5,,,65,127
1122,note_on,0,0,0,,5,,,53,127
1246,note_off,124,0,0,,5,,,65,127
1247,note_on,1,0,0,,7,,,67,127
1371,note_off,124,0,0,,7,,,67,127
1372,note_on,1,0,0,,10,,,69,127
1372,note_on,0,0,0,,5,,,65,127
1496,note_off,124,0,0,,10,,,69,127
1497,note_on,1,0,0,,11,,,70,127
1618,note_off,121,0,0,,5,,,53,127
1621,note_off,3,0,0,,11,,,70,127
1621,note_off,0,0,0,,5,,,65,127
1622,note_on,1,0,0,,0,,,72,127
1622,note_on,0,0,0,,5,,,53,127
1683,note_off,61,0,0,,5,,,53,127
1684,note_on,1,0,0,,4,,,52,127
1745,note_off,61,0,0,,4,,,52,127
1745,note_off,0,0,0,,0,,,72,127
1746,note_on,1,0,0,,4,,,76,127
1746,note_on,0,0,0,,5,,,53,127
1807,note_off,61,0,0,,5,,,53,127
1808,note_on,1,0,0,,4,,,52,127
1869,note_off,61,0,0,,4,,,52,127
1869,note_off,0,0,0,,4,,,76,127
1870,note_on,1,0,0,,7,,,79,127
1870,note_on,0,0,0,,5,,,53,127
1931,note_off,61,0,0,,5,,,53,127
1932,note_on,1,0,0,,4,,,52,127
1993,note_off,61,0,0,,4,,,52,127
1993,note_off,0,0,0,,7,,,79,127
1994,note_on,1,0,0,,11,,,70,127
1994,note_on,0,0,0,,2,,,50,127
2055,note_off,61,0,0,,2,,,50,127
2056,note_on,1,0,0,,4,,,52,127
2117,note_off,61,0,0,,4,,,52,127
2117,note_off,0,0,0,,11,,,70,127
2118,note_on,1,0,0,,11,,,70,127
2118,note_on,0,0,0,,5,,,53,127
2179,note_off,61,0,0,,11,,,70,127
2180,note_on,1,0,0,,10,,,69,127
2241,note_off,61,0,0,,10,,,69,127
2241,note_off,0,0,0,,5,,,53,127
2242,note_on,1,0,0,,11,,,70,127
2242,note_on,0,0,0,,7,,,55,127
2303,note_off,61,0,0,,11,,,70,127
2304,note_on,1,0,0,,10,,,69,127
2365,note_off,61,0,0,,10,,,69,127
2365,note_off,0,0,0,,7,,,55,127
2366,note_on,1,0,0,,11,,,70,127
2366,note_on,0,0,0,,10,,,57,127
2427,note_off,61,0,0,,11,,,70,127
2428,note_on,1,0,0,,10,,,69,127
2489,note_off,61,0,0,,10,,,69,127
2489,note_off,0,0,0,,10,,,57,127
2490,note_on,1,0,0,,11,,,70,127
2490,note_on,0,0,0,,11,,,58,127
2551,note_off,61,0,0,,11,,,70,127
2552,note_on,1,0,0,,10,,,69,127
2613,note_off,61,0,0,,10,,,69,127
2613,note_off,0,0,0,,11,,,58,127
2614,note_on,1,0,0,,7,,,67,127
2614,note_on,0,0,0,,0,,,60,127
2738,note_off,124,0,0,,0,,,60,127
2739,note_on,1,0,0,,4,,,64,127
2863,note_off,124,0,0,,4,,,64,127
2863,note_off,0,0,0,,7,,,67,127
2864,note_on,1,0,0,,7,,,67,127
2988,note_off,124,0,0,,7,,,67,127
2989,note_on,1,0,0,,11,,,58,127
3113,note_off,124,0,0,,11,,,58,127
3114,note_on,1,0,0,,10,,,57,127
3239,note_on,125,0,0,,0,,,72,127
3363,note_off,124,0,0,,0,,,72,127
3364,note_on,1,0,0,,11,,,70,127
3488,note_off,124,0,0,,11,,,70,127
3489,note_on,1,0,0,,0,,,72,127
3613,note_off,124,0,0,,0,,,72,127
3613,note_off,0,0,0,,10,,,57,127
3614,note_on,1,0,0,,2,,,74,127
3614,note_on,0,0,0,,11,,,58,127
3614,note_on,0,0,0,,5,,,65,127
3738,note_off,124,0,0,,2,,,74,127
3739,note_on,1,0,0,,4,,,76,127
3863,note_off,124,0,0,,4,,,76,127
3863,note_off,0,0,0,,11,,,58,127
3864,note_on,1,0,0,,5,,,77,127
3864,note_on,0,0,0,,10,,,57,127
3988,note_off,124,0,0,,5,,,77,127
3989,note_on,1,0,0,,0,,,72,127
4113,note_off,124,0,0,,0,,,72,127
4113,note_off,0,0,0,,10,,,57,127
4114,note_on,1,0,0,,11,,,70,127
4114,note_on,0,0,0,,7,,,55,127
4238,note_off,124,0,0,,11,,,70,127
4239,note_on,1,0,0,,11,,,70,127
4363,note_off,124,0,0,,11,,,70,127
4364,note_off,1,0,0,,5,,,65,127
4364,note_on,0,0,0,,10,,,69,127
4364,note_on,0,0,0,,4,,,64,127
4488,note_off,124,0,0,,10,,,69,127
4489,note_on,1,0,0,,11,,,70,127
4610,note_off,121,0,0,,7,,,55,127
4613,note_off,3,0,0,,11,,,70,127
4613,note_off,0,0,0,,4,,,64,127
4614,note_on,1,0,0,,0,,,72,127
4614,note_on,0,0,0,,10,,,57,127
4614,note_on,0,0,0,,5,,,65,127
4738,note_off,124,0,0,,0,,,72,127
4739,note_on,1,0,0,,2,,,74,127
4863,note_off,124,0,0,,2,,,74,127
4863,note_off,0,0,0,,10,,,57,127
4864,note_on,1,0,0,,4,,,76,127
4864,note_on,0,0,0,,7,,,55,127
4988,note_off,124,0,0,,4,,,76,127
4989,note_on,1,0,0,,11,,,70,127
5113,note_off,124,0,0,,11,,,70,127
5113,note_off,0,0,0,,7,,,55,127
5114,note_on,1,0,0,,10,,,69,127
5114,note_on,0,0,0,,5,,,53,127
5238,note_off,124,0,0,,10,,,69,127
5239,note_on,1,0,0,,0,,,72,127
5363,note_off,124,0,0,,0,,,72,127
5364,note_off,1,0,0,,5,,,65,127
5364,note_on,0,0,0,,12,,,71,127
5364,note_on,0,0,0,,5,,,65,127
5488,note_off,124,0,0,,12,,,71,127
5489,note_on,1,0,0,,2,,,74,127
5610,note_off,121,0,0,,5,,,53,127
5613,note_off,3,0,0,,2,,,74,127
5613,note_off,0,0,0,,5,,,65,127
5614,note_on,1,0,0,,0,,,72,127
5614,note_on,0,0,0,,4,,,64,127
5738,note_off,124,0,0,,0,,,72,127
5739,note_on,1,0,0,,4,,,76,127
5863,note_off,124,0,0,,4,,,76,127
5863,note_off,0,0,0,,4,,,64,127
5864,note_on,1,0,0,,2,,,74,127
5864,note_on,0,0,0,,0,,,60,127
5988,note_off,124,0,0,,2,,,74,127
5989,note_on,1,0,0,,0,,,72,127
6113,note_off,124,0,0,,0,,,72,127
6113,note_off,0,0,0,,0,,,60,127
6114,note_on,1,0,0,,5,,,77,127
6114,note_on,0,0,0,,2,,,62,127
6238,note_off,124,0,0,,5,,,77,127
6239,note_on,1,0,0,,4,,,76,127
6363,note_off,124,0,0,,4,,,76,127
6364,note_on,1,0,0,,2,,,74,127
6488,note_off,124,0,0,,2,,,74,127
6489,note_on,1,0,0,,0,,,72,127
6613,note_off,124,0,0,,0,,,72,127
6613,note_off,0,0,0,,2,,,62,127
6614,note_on,1,0,0,,12,,,71,127
6614,note_on,0,0,0,,7,,,55,127
6738,note_off,124,0,0,,12,,,71,127
6739,note_on,1,0,0,,10,,,69,127
6863,note_off,124,0,0,,10,,,69,127
6864,note_on,1,0,0,,7,,,67,127
6988,note_off,124,0,0,,7,,,67,127
6989,note_on,1,0,0,,5,,,65,127
7113,note_off,124,0,0,,5,,,65,127
7113,note_off,0,0,0,,7,,,55,127
7114,note_on,1,0,0,,0,,,72,127
7114,note_on,0,0,0,,0,,,48,127
7114,note_on,0,0,0,,0,,,60,127
7364,note_on,250,0,0,,0,,,84,127
7611,note_off,247,0,0,,0,,,72,127
7614,note_off,3,0,0,,0,,,84,127
7615,note_on,1,0,0,,0,,,72,127
7676,note_off,61,0,0,,0,,,72,127
7677,note_on,1,0,0,,12,,,71,127
7738,note_off,61,0,0,,12,,,71,127
7739,note_on,1,0,0,,0,,,72,127
7800,note_off,61,0,0,,0,,,72,127
7801,note_on,1,0,0,,12,,,71,127
7862,note_off,61,0,0,,12,,,71,127
7863,note_on,1,0,0,,0,,,72,127
7924,note_off,61,0,0,,0,,,72,127
7925,note_on,1,0,0,,12,,,71,127
7986,note_off,61,0,0,,12,,,71,127
7987,note_on,1,0,0,,10,,,69,127
8048,note_off,61,0,0,,10,,,69,127
8049,note_on,1,0,0,,12,,,71,127
8110,note_off,61,0,0,,12,,,71,127
8110,note_off,0,0,0,,0,,,60,127
8110,note_off,0,0,0,,0,,,48,127
8111,note_on,1,0,0,,0,,,72,127
8111,note_on,0,0,0,,0,,,60,127
8235,note_off,124,0,0,,0,,,72,127
8236,note_on,1,0,0,,2,,,74,127
8360,note_off,124,0,0,,2,,,74,127
8361,note_on,1,0,0,,4,,,76,127
8361,note_on,0,0,0,,0,,,72,127
8485,note_off,124,0,0,,4,,,76,127
8486,note_on,1,0,0,,5,,,77,127
8607,note_off,121,0,0,,0,,,60,127
8610,note_off,3,0,0,,5,,,77,127
8610,note_off,0,0,0,,0,,,72,127
8611,note_on,1,0,0,,7,,,79,127
8611,note_on,0,0,0,,0,,,60,127
8672,note_off,61,0,0,,0,,,60,127
8673,note_on,1,0,0,,12,,,59,127
8734,note_off,61,0,0,,12,,,59,127
8734,note_off,0,0,0,,7,,,79,127
8735,note_on,1,0,0,,12,,,83,127
8735,note_on,0,0,0,,0,,,60,127
8796,note_off,61,0,0,,0,,,60,127
8797,note_on,1,0,0,,12,,,59,127
8858,note_off,61,0,0,,12,,,59,127
8858,note_off,0,0,0,,12,,,83,127
8859,note_on,1,0,0,,2,,,86,127
8859,note_on,0,0,0,,0,,,60,127
8920,note_off,61,0,0,,0,,,60,127
8921,note_on,1,0,0,,12,,,59,127
8982,note_off,61,0,0,,12,,,59,127
8982,note_off,0,0,0,,2,,,86,127
8983,note_on,1,0,0,,5,,,77,127
8983,note_on,0,0,0,,10,,,57,127
9044,note_off,61,0,0,,10,,,57,127
9045,note_on,1,0,0,,12,,,59,127
9106,note_off,61,0,0,,12,,,59,127
9106,note_off,0,0,0,,5,,,77,127
9107,note_on,1,0,0,,5,,,77,127
9107,note_on,0,0,0,,0,,,60,127
9168,note_off,61,0,0,,5,,,77,127
9169,note_on,1,0,0,,4,,,76,127
9230,note_off,61,0,0,,4,,,76,127
9230,note_off,0,0,0,,0,,,60,127
9231,note_on,1,0,0,,5,,,77,127
9231,note_on,0,0,0,,2,,,62,127
9292,note_off,61,0,0,,5,,,77,127
9293,note_on,1,0,0,,4,,,76,127
9354,note_off,61,0,0,,4,,,76,127
9354,note_off,0,0,0,,2,,,62,127
9355,note_on,1,0,0,,5,,,77,127
9355,note_on,0,0,0,,4,,,64,127
9416,note_off,61,0,0,,5,,,77,127
9417,note_on,1,0,0,,4,,,76,127
9478,note_off,61,0,0,,4,,,76,127
9478,note_off,0,0,0,,4,,,64,127
9479,note_on,1,0,0,,5,,,77,127
9479,note_on,0,0,0,,5,,,65,127
9540,note_off,61,0,0,,5,,,77,127
9541,note_on,1,0,0,,4,,,76,127
9602,note_off,61,0,0,,4,,,76,127
9602,note_off,0,0,0,,5,,,65,127
9603,note_on,1,0,0,,2,,,74,127
9603,note_on,0,0,0,,7,,,67,127
9727,note_off,124,0,0,,7,,,67,127
9728,note_on,1,0,0,,12,,,71,127
9852,note_off,124,0,0,,12,,,71,127
9852,note_off,0,0,0,,2,,,74,127
9853,note_on,1,0,0,,2,,,74,127
9977,note_off,124,0,0,,2,,,74,127
9978,note_on,1,0,0,,5,,,65,127
10102,note_off,124,0,0,,5,,,65,127
10103,note_on,1,0,0,,4,,,64,127
10228,note_on,125,0,0,,7,,,79,127
10352,note_off,124,0,0,,7,,,79,127
10353,note_on,1,0,0,,5,,,77,127
10477,note_off,124,0,0,,5,,,77,127
10478,note_on,1,0,0,,7,,,79,127
10602,note_off,124,0,0,,7,,,79,127
10602,note_off,0,0,0,,4,,,64,127
10603,note_on,1,0,0,,10,,,81,127
10603,note_on,0,0,0,,5,,,65,127
10603,note_on,0,0,0,,0,,,72,127
10727,note_off,124,0,0,,10,,,81,127
10728,note_on,1,0,0,,5,,,77,127
10852,note_off,124,0,0,,5,,,77,127
10852,note_off,0,0,0,,5,,,65,127
10853,note_on,1,0,0,,7,,,79,127
10853,note_on,0,0,0,,4,,,64,127
10977,note_off,124,0,0,,7,,,79,127
10978,note_on,1,0,0,,4,,,76,127
11102,note_off,124,0,0,,4,,,76,127
11102,note_off,0,0,0,,4,,,64,127
11103,note_on,1,0,0,,5,,,77,127
11103,note_on,0,0,0,,2,,,62,127
11227,note_off,124,0,0,,5,,,77,127
11228,note_on,1,0,0,,5,,,77,127
11352,note_off,124,0,0,,5,,,77,127
11353,note_off,1,0,0,,0,,,72,127
11353,note_on,0,0,0,,4,,,76,127
11353,note_on,0,0,0,,12,,,71,127
11477,note_off,124,0,0,,4,,,76,127
11478,note_on,1,0,0,,5,,,77,127
11599,note_off,121,0,0,,2,,,62,127
11602,note_off,3,0,0,,5,,,77,127
11602,note_off,0,0,0,,12,,,71,127
11603,note_on,1,0,0,,7,,,79,127
11603,note_on,0,0,0,,4,,,64,127
11603,note_on,0,0,0,,0,,,72,127
11727,note_off,124,0,0,,7,,,79,127
11728,note_on,1,0,0,,4,,,76,127
11852,note_off,124,0,0,,4,,,76,127
11852,note_off,0,0,0,,4,,,64,127
11853,note_on,1,0,0,,5,,,77,127
11853,note_on,0,0,0,,2,,,62,127
11977,note_off,124,0,0,,5,,,77,127
11978,note_on,1,0,0,,2,,,74,127
12099,note_off,121,0,0,,0,,,72,127
12102,note_off,3,0,0,,2,,,74,127
12102,note_off,0,0,0,,2,,,62,127
12103,note_on,1,0,0,,4,,,76,127
12103,note_on,0,0,0,,0,,,60,127
12227,note_off,124,0,0,,4,,,76,127
12228,note_on,1,0,0,,7,,,79,127
12352,note_off,124,0,0,,7,,,79,127
12353,note_on,1,0,0,,5,,,77,127
12477,note_off,124,0,0,,5,,,77,127
12478,note_on,1,0,0,,4,,,76,127
12602,note_off,124,0,0,,4,,,76,127
12602,note_off,0,0,0,,0,,,60,127
12603,note_on,1,0,0,,10,,,81,127
12603,note_on,0,0,0,,5,,,65,127
12728,note_on,125,0,0,,2,,,74,127
12852,note_off,124,0,0,,2,,,74,127
12852,note_off,0,0,0,,5,,,65,127
12853,note_on,1,0,0,,0,,,72,127
12853,note_on,0,0,0,,4,,,64,127
12977,note_off,124,0,0,,10,,,81,127
12978,note_on,1,0,0,,7,,,79,127
13102,note_off,124,0,0,,7,,,79,127
13102,note_off,0,0,0,,4,,,64,127
13102,note_off,0,0,0,,0,,,72,127
13103,note_on,1,0,0,,12,,,71,127
13103,note_on,0,0,0,,2,,,62,127
13103,note_on,0,0,0,,5,,,65,127
13228,note_on,125,0,0,,5,,,77,127
13352,note_off,124,0,0,,5,,,77,127
13353,note_on,1,0,0,,4,,,76,127
13477,note_off,124,0,0,,4,,,76,127
13478,note_on,1,0,0,,2,,,74,127
13599,note_off,121,0,0,,12,,,71,127
13602,note_off,3,0,0,,2,,,74,127
13602,note_off,0,0,0,,5,,,65,127
13602,note_off,0,0,0,,2,,,62,127
13603,note_on,1,0,0,,7,,,79,127
13603,note_on,0,0,0,,4,,,64,127
13603,note_on,0,0,0,,7,,,67,127
13728,note_on,125,0,0,,0,,,72,127
13852,note_off,124,0,0,,0,,,72,127
13852,note_off,0,0,0,,7,,,67,127
13852,note_off,0,0,0,,4,,,64,127
13853,note_on,1,0,0,,12,,,71,127
13853,note_on,0,0,0,,5,,,65,127
13853,note_on,0,0,0,,2,,,62,127
13977,note_off,124,0,0,,7,,,79,127
13978,note_on,1,0,0,,5,,,77,127
14102,note_off,124,0,0,,5,,,77,127
14102,note_off,0,0,0,,2,,,62,127
14102,note_off,0,0,0,,5,,,65,127
14102,note_off,0,0,0,,12,,,71,127
14103,note_on,1,0,0,,4,,,76,127
14103,note_on,0,0,0,,0,,,60,127
14227,note_off,124,0,0,,0,,,60,127
14228,note_on,1,0,0,,7,,,67,127
14352,note_off,124,0,0,,7,,,67,127
14353,note_on,1,0,0,,5,,,65,127
14477,note_off,124,0,0,,5,,,65,127
14477,note_off,0,0,0,,4,,,76,127
14478,note_on,1,0,0,,7,,,79,127
14478,note_on,0,0,0,,4,,,64,127
14602,note_off,124,0,0,,4,,,64,127
14602,note_off,0,0,0,,7,,,79,127
14603,note_on,1,0,0,,5,,,77,127
14603,note_on,0,0,0,,10,,,57,127
14727,note_off,124,0,0,,10,,,57,127
14728,note_on,1,0,0,,10,,,69,127
14852,note_off,124,0,0,,10,,,69,127
14852,note_off,0,0,0,,5,,,77,127
14853,note_on,1,0,0,,4,,,76,127
14853,note_on,0,0,0,,7,,,55,127
14977,note_off,124,0,0,,7,,,55,127
14978,note_on,1,0,0,,7,,,67,127
15102,note_off,124,0,0,,7,,,67,127
15102,note_off,0,0,0,,4,,,76,127
15103,note_on,1,0,0,,2,,,74,127
15103,note_on,0,0,0,,5,,,53,127
15227,note_off,124,0,0,,5,,,53,127
15228,note_on,1,0,0,,5,,,65,127
15352,note_off,124,0,0,,5,,,65,127
15353,note_on,1,0,0,,4,,,64,127
15477,note_off,124,0,0,,4,,,64,127
15477,note_off,0,0,0,,2,,,74,127
15478,note_on,1,0,0,,4,,,76,127
15478,note_on,0,0,0,,2,,,62,127
15539,note_off,61,0,0,,4,,,76,127
15540,note_on,1,0,0,,5,,,77,127
15601,note_off,61,0,0,,5,,,77,127
15601,note_off,0,0,0,,2,,,62,127
15602,note_on,1,0,0,,4,,,76,127
15602,note_on,0,0,0,,7,,,55,127
15726,note_off,124,0,0,,7,,,55,127
15727,note_on,1,0,0,,7,,,67,127
15851,note_off,124,0,0,,7,,,67,127
15851,note_off,0,0,0,,4,,,76,127
15852,note_on,1,0,0,,2,,,74,127
15852,note_on,0,0,0,,5,,,53,127
15976,note_off,124,0,0,,5,,,53,127
15977,note_on,1,0,0,,5,,,65,127
16101,note_off,124,0,0,,5,,,65,127
16101,note_off,0,0,0,,2,,,74,127
16102,note_on,1,0,0,,0,,,72,127
16102,note_on,0,0,0,,4,,,52,127
16226,note_off,124,0,0,,4,,,52,127
16227,note_on,1,0,0,,4,,,64,127
16351,note_off,124,0,0,,4,,,64,127
16352,note_on,1,0,0,,2,,,62,127
16476,note_off,124,0,0,,2,,,62,127
16476,note_off,0,0,0,,0,,,72,127
16477,note_on,1,0,0,,2,,,74,127
16477,note_on,0,0,0,,0,,,60,127
16538,note_off,61,0,0,,2,,,74,127
16539,note_on,1,0,0,,4,,,76,127
16600,note_off,61,0,0,,4,,,76,127
16600,note_off,0,0,0,,0,,,60,127
16601,note_on,1,0,0,,2,,,74,127
16601,note_on,0,0,0,,5,,,53,127
16725,note_off,124,0,0,,5,,,53,127
16726,note_on,1,0,0,,5,,,65,127
16850,note_off,124,0,0,,5,,,65,127
16850,note_off,0,0,0,,2,,,74,127
16851,note_on,1,0,0,,0,,,72,127
16851,note_on,0,0,0,,4,,,52,127
16975,note_off,124,0,0,,4,,,52,127
16976,note_on,1,0,0,,4,,,64,127
17100,note_off,124,0,0,,4,,,64,127
17100,note_off,0,0,0,,0,,,72,127
17101,note_on,1,0,0,,12,,,71,127
17101,note_on,0,0,0,,2,,,62,127
17226,note_on,125,0,0,,5,,,77,127
17290,note_off,64,0,0,,12,,,71,127
17350,note_off,60,0,0,,5,,,77,127
17350,note_off,0,0,0,,2,,,62,127
17351,note_on,1,0,0,,4,,,76,127
17351,note_on,0,0,0,,0,,,60,127
17475,note_off,124,0,0,,4,,,76,127
17476,note_on,1,0,0,,2,,,74,127
17600,note_off,124,0,0,,2,,,74,127
17600,note_off,0,0,0,,0,,,60,127
17601,note_on,1,0,0,,4,,,76,127
17601,note_on,0,0,0,,7,,,55,127
17726,note_on,125,0,0,,0,,,72,127
17734,note_off,8,0,0,,4,,,76,127
17850,note_off,116,0,0,,0,,,72,127
17851,note_on,1,0,0,,2,,,74,127
17976,note_on,125,0,0,,12,,,71,127
17984,note_off,8,0,0,,2,,,74,127
18100,note_off,116,0,0,,12,,,71,127
18100,note_off,0,0,0,,7,,,55,127
18101,note_on,1,0,0,,0,,,72,127
18101,note_on,0,0,0,,0,,,60,127
18226,note_on,125,0,0,,7,,,79,127
18350,note_off,124,0,0,,7,,,79,127
18351,note_on,1,0,0,,5,,,77,127
18475,note_off,124,0,0,,5,,,77,127
18476,note_on,1,0,0,,3,,,75,127
18597,note_off,121,0,0,,0,,,72,127
18600,note_off,3,0,0,,3,,,75,127
18600,note_off,0,0,0,,0,,,60,127
18601,note_on,1,0,0,,8,,,80,127
18601,note_on,0,0,0,,5,,,65,127
18726,note_on,125,0,0,,2,,,74,127
18850,note_off,124,0,0,,2,,,74,127
18850,note_off,0,0,0,,5,,,65,127
18851,note_on,1,0,0,,0,,,72,127
18851,note_on,0,0,0,,3,,,63,127
18975,note_off,124,0,0,,8,,,80,127
18976,note_on,1,0,0,,7,,,79,127
19100,note_off,124,0,0,,7,,,79,127
19100,note_off,0,0,0,,3,,,63,127
19100,note_off,0,0,0,,0,,,72,127
19101,note_on,1,0,0,,12,,,71,127
19101,note_on,0,0,0,,5,,,65,127
19101,note_on,0,0,0,,2,,,62,127
19226,note_on,125,0,0,,5,,,77,127
19350,note_off,124,0,0,,5,,,77,127
19351,note_on,1,0,0,,3,,,75,127
19475,note_off,124,0,0,,3,,,75,127
19476,note_on,1,0,0,,2,,,74,127
19597,note_off,121,0,0,,12,,,71,127
19600,note_off,3,0,0,,2,,,74,127
19600,note_off,0,0,0,,2,,,62,127
19600,note_off,0,0,0,,5,,,65,127
19601,note_on,1,0,0,,7,,,79,127
19601,note_on,0,0,0,,3,,,63,127
19601,note_on,0,0,0,,7,,,67,127
19726,note_on,125,0,0,,0,,,72,127
19850,note_off,124,0,0,,0,,,72,127
19850,note_off,0,0,0,,7,,,67,127
19850,note_off,0,0,0,,3,,,63,127
19851,note_on,1,0,0,,12,,,71,127
19851,note_on,0,0,0,,2,,,62,127
19851,note_on,0,0,0,,5,,,65,127
19975,note_off,124,0,0,,7,,,79,127
19976,note_on,1,0,0,,5,,,77,127
20100,note_off,124,0,0,,5,,,77,127
20100,note_off,0,0,0,,5,,,65,127
20100,note_off,0,0,0,,2,,,62,127
20100,note_off,0,0,0,,12,,,71,127
20101,note_on,1,0,0,,3,,,75,127
20101,note_on,0,0,0,,0,,,60,127
20101,note_on,0,0,0,,7,,,67,127
20225,note_off,124,0,0,,3,,,75,127
20226,note_on,1,0,0,,7,,,79,127
20350,note_off,124,0,0,,7,,,79,127
20351,note_on,1,0,0,,5,,,77,127
20475,note_off,124,0,0,,5,,,77,127
20476,note_on,1,0,0,,3,,,75,127
20600,note_off,124,0,0,,3,,,75,127
20600,note_off,0,0,0,,7,,,67,127
20600,note_off,0,0,0,,0,,,60,127
20601,note_on,1,0,0,,8,,,80,127
20601,note_on,0,0,0,,5,,,65,127
20726,note_on,125,0,0,,2,,,74,127
20850,note_off,124,0,0,,2,,,74,127
20850,note_off,0,0,0,,5,,,65,127
20851,note_on,1,0,0,,0,,,72,127
20851,note_on,0,0,0,,3,,,63,127
20975,note_off,124,0,0,,8,,,80,127
20976,note_on,1,0,0,,7,,,79,127
21100,note_off,124,0,0,,7,,,79,127
21100,note_off,0,0,0,,3,,,63,127
21100,note_off,0,0,0,,0,,,72,127
21101,note_on,1,0,0,,12,,,71,127
21101,note_on,0,0,0,,5,,,65,127
21101,note_on,0,0,0,,2,,,62,127
21226,note_on,125,0,0,,5,,,77,127
21350,note_off,124,0,0,,5,,,77,127
21351,note_on,1,0,0,,3,,,75,127
21475,note_off,124,0,0,,3,,,75,127
21476,note_on,1,0,0,,2,,,74,127
21597,note_off,121,0,0,,12,,,71,127
21600,note_off,3,0,0,,2,,,74,127
21600,note_off,0,0,0,,2,,,62,127
21600,note_off,0,0,0,,5,,,65,127
21601,note_on,1,0,0,,7,,,79,127
21601,note_on,0,0,0,,3,,,63,127
21601,note_on,0,0,0,,7,,,67,127
21726,note_on,125,0,0,,0,,,72,127
21850,note_off,124,0,0,,0,,,72,127
21850,note_off,0,0,0,,7,,,67,127
21850,note_off,0,0,0,,3,,,63,127
21851,note_on,1,0,0,,12,,,71,127
21851,note_on,0,0,0,,5,,,65,127
21851,note_on,0,0,0,,2,,,62,127
21975,note_off,124,0,0,,7,,,79,127
21976,note_on,1,0,0,,5,,,77,127
22100,note_off,124,0,0,,5,,,77,127
22100,note_off,0,0,0,,2,,,62,127
22100,note_off,0,0,0,,5,,,65,127
22100,note_off,0,0,0,,12,,,71,127
22101,note_on,1,0,0,,3,,,75,127
22101,note_on,0,0,0,,0,,,60,127
22225,note_off,124,0,0,,0,,,60,127
22226,note_on,1,0,0,,0,,,72,127
22350,note_off,124,0,0,,0,,,72,127
22350,note_off,0,0,0,,3,,,75,127
22351,note_on,1,0,0,,7,,,79,127
22351,note_on,0,0,0,,11,,,58,127
22475,note_off,124,0,0,,11,,,58,127
22476,note_on,1,0,0,,11,,,70,127
22600,note_off,124,0,0,,11,,,70,127
22600,note_off,0,0,0,,7,,,79,127
22601,note_on,1,0,0,,5,,,77,127
22601,note_on,0,0,0,,8,,,56,127
22725,note_off,124,0,0,,8,,,56,127
22726,note_on,1,0,0,,8,,,68,127
22850,note_off,124,0,0,,8,,,68,127
22850,note_off,0,0,0,,5,,,77,127
22851,note_on,1,0,0,,3,,,75,127
22851,note_on,0,0,0,,7,,,55,127
22975,note_off,124,0,0,,7,,,55,127
22976,note_on,1,0,0,,7,,,67,127
23100,note_off,124,0,0,,7,,,67,127
23100,note_off,0,0,0,,3,,,75,127
23101,note_on,1,0,0,,2,,,74,127
23101,note_on,0,0,0,,5,,,53,127
23225,note_off,124,0,0,,5,,,53,127
23226,note_on,1,0,0,,5,,,65,127
23350,note_off,124,0,0,,5,,,65,127
23350,note_off,0,0,0,,2,,,74,127
23351,note_on,1,0,0,,0,,,72,127
23351,note_on,0,0,0,,3,,,51,127
23475,note_off,124,0,0,,3,,,51,127
23476,note_on,1,0,0,,3,,,63,127
23600,note_off,124,0,0,,3,,,63,127
23600,note_off,0,0,0,,0,,,72,127
23601,note_on,1,0,0,,12,,,71,127
23601,note_on,0,0,0,,2,,,50,127
23725,note_off,124,0,0,,2,,,50,127
23726,note_on,1,0,0,,2,,,62,127
23850,note_off,124,0,0,,2,,,62,127
23850,note_off,0,0,0,,12,,,71,127
23851,note_on,1,0,0,,0,,,72,127
23851,note_on,0,0,0,,0,,,48,127
23975,note_off,124,0,0,,0,,,48,127
23976,note_on,1,0,0,,0,,,60,127
24100,note_off,124,0,0,,0,,,60,127
24100,note_off,0,0,0,,0,,,72,127
24101,note_on,1,0,0,,2,,,74,127
24101,note_on,0,0,0,,7,,,55,127
24225,note_off,124,0,0,,7,,,55,127
24226,note_on,1,0,0,,7,,,67,127
24350,note_off,124,0,0,,7,,,67,127
24350,note_off,0,0,0,,2,,,74,127
24351,note_on,1,0,0,,5,,,65,127
24475,note_off,124,0,0,,5,,,65,127
24476,note_on,1,0,0,,7,,,79,127
24476,note_on,0,0,0,,4,,,64,127
24600,note_off,124,0,0,,4,,,64,127
24600,note_off,0,0,0,,7,,,79,127
24601,note_on,1,0,0,,5,,,77,127
24601,note_on,0,0,0,,10,,,57,127
24725,note_off,124,0,0,,10,,,57,127
24726,note_on,1,0,0,,10,,,69,127
24850,note_off,124,0,0,,10,,,69,127
24850,note_off,0,0,0,,5,,,77,127
24851,note_on,1,0,0,,4,,,76,127
24851,note_on,0,0,0,,7,,,55,127
24975,note_off,124,0,0,,7,,,55,127
24976,note_on,1,0,0,,7,,,67,127
25100,note_off,124,0,0,,7,,,67,127
25100,note_off,0,0,0,,4,,,76,127
25101,note_on,1,0,0,,2,,,74,127
25101,note_on,0,0,0,,5,,,53,127
25225,note_off,124,0,0,,5,,,53,127
25226,note_on,1,0,0,,5,,,65,127
25350,note_off,124,0,0,,5,,,65,127
25351,note_on,1,0,0,,4,,,64,127
25475,note_off,124,0,0,,4,,,64,127
25475,note_off,0,0,0,,2,,,74,127
25476,note_on,1,0,0,,4,,,76,127
25476,note_on,0,0,0,,2,,,62,127
25537,note_off,61,0,0,,4,,,76,127
25538,note_on,1,0,0,,5,,,77,127
25599,note_off,61,0,0,,5,,,77,127
25599,note_off,0,0,0,,2,,,62,127
25600,note_on,1,0,0,,4,,,76,127
25600,note_on,0,0,0,,7,,,55,127
25724,note_off,124,0,0,,7,,,55,127
25725,note_on,1,0,0,,7,,,67,127
25849,note_off,124,0,0,,7,,,67,127
25849,note_off,0,0,0,,4,,,76,127
25850,note_on,1,0,0,,2,,,74,127
25850,note_on,0,0,0,,5,,,53,127
25974,note_off,124,0,0,,5,,,53,127
25975,note_on,1,0,0,,5,,,65,127
26099,note_off,124,0,0,,5,,,65,127
26099,note_off,0,0,0,,2,,,74,127
26100,note_on,1,0,0,,0,,,72,127
26100,note_on,0,0,0,,4,,,52,127
26224,note_off,124,0,0,,4,,,52,127
26225,note_on,1,0,0,,4,,,64,127
26349,note_off,124,0,0,,4,,,64,127
26350,note_on,1,0,0,,2,,,62,127
26474,note_off,124,0,0,,2,,,62,127
26474,note_off,0,0,0,,0,,,72,127
26475,note_on,1,0,0,,2,,,74,127
26475,note_on,0,0,0,,0,,,60,127
26536,note_off,61,0,0,,2,,,74,127
26537,note_on,1,0,0,,4,,,76,127
26598,note_off,61,0,0,,4,,,76,127
26598,note_off,0,0,0,,0,,,60,127
26599,note_on,1,0,0,,2,,,74,127
26599,note_on,0,0,0,,5,,,53,127
26723,note_off,124,0,0,,5,,,53,127
26724,note_on,1,0,0,,5,,,65,127
26848,note_off,124,0,0,,5,,,65,127
26848,note_off,0,0,0,,2,,,74,127
26849,note_on,1,0,0,,0,,,72,127
26849,note_on,0,0,0,,4,,,52,127
26973,note_off,124,0,0,,4,,,52,127
26974,note_on,1,0,0,,4,,,64,127
27098,note_off,124,0,0,,4,,,64,127
27098,note_off,0,0,0,,0,,,72,127
27099,note_on,1,0,0,,12,,,71,127
27099,note_on,0,0,0,,2,,,62,127
27223,note_off,124,0,0,,12,,,71,127
27224,note_on,1,0,0,,5,,,77,127
27348,note_off,124,0,0,,5,,,77,127
27348,note_off,0,0,0,,2,,,62,127
27349,note_on,1,0,0,,4,,,76,127
27349,note_on,0,0,0,,0,,,60,127
27473,note_off,124,0,0,,4,,,76,127
27474,note_on,1,0,0,,2,,,74,127
27598,note_off,124,0,0,,2,,,74,127
27598,note_off,0,0,0,,0,,,60,127
27599,note_on,1,0,0,,4,,,76,127
27599,note_on,0,0,0,,7,,,55,127
27723,note_off,124,0,0,,4,,,76,127
27724,note_on,1,0,0,,0,,,72,127
27848,note_off,124,0,0,,0,,,72,127
27849,note_on,1,0,0,,2,,,74,127
27973,note_off,124,0,0,,2,,,74,127
27974,note_on,1,0,0,,12,,,71,127
28098,note_off,124,0,0,,12,,,71,127
28098,note_off,0,0,0,,7,,,55,127
28099,note_on,1,0,0,,0,,,72,127
28099,note_on,0,0,0,,0,,,36,127
28223,note_off,124,0,0,,0,,,36,127
28224,note_on,1,0,0,,4,,,52,127
28348,note_off,124,0,0,,4,,,52,127
28349,note_on,1,0,0,,2,,,50,127
28473,note_off,124,0,0,,2,,,50,127
28473,note_off,0,0,0,,0,,,72,127
28474,note_on,1,0,0,,7,,,79,127
28474,note_on,0,0,0,,0,,,48,127
28598,note_off,124,0,0,,0,,,48,127
28598,note_off,0,0,0,,7,,,79,127
28599,note_on,1,0,0,,10,,,81,127
28599,note_on,0,0,0,,5,,,41,127
28723,note_off,124,0,0,,5,,,41,127
28724,note_on,1,0,0,,5,,,53,127
28848,note_off,124,0,0,,5,,,53,127
28848,note_off,0,0,0,,10,,,81,127
28849,note_on,1,0,0,,7,,,79,127
28849,note_on,0,0,0,,4,,,40,127
28973,note_off,124,0,0,,4,,,40,127
28974,note_on,1,0,0,,4,,,52,127
29098,note_off,124,0,0,,4,,,52,127
29098,note_off,0,0,0,,7,,,79,127
29099,note_on,1,0,0,,7,,,79,127
29099,note_on,0,0,0,,2,,,38,127
29160,note_off,61,0,0,,7,,,79,127
29161,note_on,1,0,0,,5,,,77,127
29222,note_off,61,0,0,,5,,,77,127
29222,note_off,0,0,0,,2,,,38,127
29223,note_on,1,0,0,,7,,,79,127
29223,note_on,0,0,0,,2,,,50,127
29284,note_off,61,0,0,,7,,,79,127
29285,note_on,1,0,0,,5,,,77,127
29346,note_off,61,0,0,,5,,,77,127
29346,note_off,0,0,0,,2,,,50,127
29347,note_on,1,0,0,,7,,,79,127
29347,note_on,0,0,0,,0,,,48,127
29408,note_off,61,0,0,,7,,,79,127
29409,note_on,1,0,0,,5,,,77,127
29470,note_off,61,0,0,,5,,,77,127
29470,note_off,0,0,0,,0,,,48,127
29471,note_on,1,0,0,,4,,,76,127
29471,note_on,0,0,0,,12,,,47,127
29532,note_off,61,0,0,,4,,,76,127
29533,note_on,1,0,0,,2,,,74,127
29594,note_off,61,0,0,,2,,,74,127
29594,note_off,0,0,0,,12,,,47,127
29595,note_on,1,0,0,,7,,,79,127
29595,note_on,0,0,0,,4,,,40,127
29719,note_off,124,0,0,,4,,,40,127
29720,note_on,1,0,0,,4,,,52,127
29844,note_off,124,0,0,,4,,,52,127
29844,note_off,0,0,0,,7,,,79,127
29845,note_on,1,0,0,,5,,,77,127
29845,note_on,0,0,0,,2,,,38,127
29969,note_off,124,0,0,,2,,,38,127
29970,note_on,1,0,0,,2,,,50,127
30094,note_off,124,0,0,,2,,,50,127
30094,note_off,0,0,0,,5,,,77,127
30095,note_on,1,0,0,,5,,,77,127
30095,note_on,0,0,0,,0,,,36,127
30156,note_off,61,0,0,,5,,,77,127
30157,note_on,1,0,0,,4,,,76,127
30218,note_off,61,0,0,,4,,,76,127
30218,note_off,0,0,0,,0,,,36,127
30219,note_on,1,0,0,,5,,,77,127
30219,note_on,0,0,0,,0,,,48,127
30280,note_off,61,0,0,,5,,,77,127
30281,note_on,1,0,0,,4,,,76,127
30342,note_off,61,0,0,,4,,,76,127
30342,note_off,0,0,0,,0,,,48,127
30343,note_on,1,0,0,,5,,,77,127
30343,note_on,0,0,0,,12,,,47,127
30404,note_off,61,0,0,,5,,,77,127
30405,note_on,1,0,0,,4,,,76,127
30466,note_off,61,0,0,,4,,,76,127
30466,note_off,0,0,0,,12,,,47,127
30467,note_on,1,0,0,,2,,,74,127
30467,note_on,0,0,0,,10,,,45,127
30528,note_off,61,0,0,,2,,,74,127
30529,note_on,1,0,0,,0,,,72,127
30590,note_off,61,0,0,,0,,,72,127
30590,note_off,0,0,0,,10,,,45,127
30591,note_on,1,0,0,,5,,,77,127
30591,note_on,0,0,0,,2,,,38,127
30715,note_off,124,0,0,,2,,,38,127
30716,note_on,1,0,0,,2,,,50,127
30840,note_off,124,0,0,,2,,,50,127
30840,note_off,0,0,0,,5,,,77,127
30841,note_on,1,0,0,,4,,,76,127
30841,note_on,0,0,0,,0,,,36,127
30965,note_off,124,0,0,,0,,,36,127
30966,note_on,1,0,0,,0,,,48,127
31090,note_off,124,0,0,,0,,,48,127
31090,note_off,0,0,0,,4,,,76,127
31091,note_on,1,0,0,,2,,,74,127
31091,note_on,0,0,0,,5,,,41,127
31215,note_off,124,0,0,,2,,,74,127
31216,note_on,1,0,0,,2,,,74,127
31340,note_off,124,0,0,,2,,,74,127
31341,note_on,1,0,0,,4,,,76,127
31465,note_off,124,0,0,,4,,,76,127
31466,note_on,1,0,0,,5,,,77,127
31590,note_off,124,0,0,,5,,,77,127
31590,note_off,0,0,0,,5,,,41,127
31591,note_on,1,0,0,,4,,,76,127
31591,note_on,0,0,0,,7,,,43,127
31715,note_off,124,0,0,,4,,,76,127
31716,note_on,1,0,0,,2,,,74,127
31840,note_off,124,0,0,,2,,,74,127
31841,note_on,1,0,0,,0,,,72,127
31965,note_off,124,0,0,,0,,,72,127
31966,note_on,1,0,0,,12,,,71,127
32090,note_off,124,0,0,,12,,,71,127
32090,note_off,0,0,0,,7,,,43,127
32091,note_on,1,0,0,,0,,,72,127
32091,note_on,0,0,0,,0,,,48,127
32215,note_off,124,0,0,,0,,,72,127
32216,note_on,1,0,0,,7,,,79,127
32340,note_off,124,0,0,,7,,,79,127
32340,note_off,0,0,0,,0,,,48,127
32341,note_on,1,0,0,,5,,,77,127
32341,note_on,0,0,0,,4,,,52,127
32465,note_off,124,0,0,,5,,,77,127
32466,note_on,1,0,0,,7,,,79,127
32590,note_off,124,0,0,,7,,,79,127
32590,note_off,0,0,0,,4,,,52,127
32591,note_on,1,0,0,,10,,,81,127
32591,note_on,0,0,0,,5,,,53,127
32715,note_off,124,0,0,,10,,,81,127
32716,note_on,1,0,0,,5,,,77,127
32840,note_off,124,0,0,,5,,,77,127
32840,note_off,0,0,0,,5,,,53,127
32841,note_on,1,0,0,,12,,,83,127
32841,note_on,0,0,0,,2,,,50,127
32965,note_off,124,0,0,,12,,,83,127
32966,note_on,1,0,0,,7,,,79,127
33090,note_off,124,0,0,,7,,,79,127
33090,note_off,0,0,0,,2,,,50,127
33091,note_on,1,0,0,,0,,,84,127
33091,note_on,0,0,0,,4,,,52,127
33215,note_off,124,0,0,,0,,,84,127
33216,note_on,1,0,0,,7,,,79,127
33340,note_off,124,0,0,,7,,,79,127
33340,note_off,0,0,0,,4,,,52,127
33341,note_on,1,0,0,,10,,,81,127
33341,note_on,0,0,0,,5,,,53,127
33465,note_off,124,0,0,,10,,,81,127
33466,note_on,1,0,0,,5,,,77,127
33590,note_off,124,0,0,,5,,,77,127
33590,note_off,0,0,0,,5,,,53,127
33591,note_on,1,0,0,,4,,,76,127
33591,note_on,0,0,0,,7,,,55,127
33715,note_off,124,0,0,,4,,,76,127
33716,note_on,1,0,0,,2,,,74,127
33840,note_off,124,0,0,,2,,,74,127
33841,note_on,1,0,0,,0,,,72,127
33841,note_on,0,0,0,,7,,,43,127
33965,note_off,124,0,0,,0,,,72,127
33966,note_on,1,0,0,,12,,,71,127
34087,note_off,121,0,0,,7,,,55,127
34090,note_off,3,0,0,,12,,,71,127
34090,note_off,0,0,0,,7,,,43,127
34091,note_on,1,0,0,,0,,,72,127
34091,note_on,0,0,0,,0,,,48,127
34215,note_off,124,0,0,,0,,,72,127
34216,note_on,1,0,0,,7,,,67,127
34340,note_off,124,0,0,,7,,,67,127
34340,note_off,0,0,0,,0,,,48,127
34341,note_on,1,0,0,,5,,,65,127
34341,note_on,0,0,0,,4,,,52,127
34465,note_off,124,0,0,,5,,,65,127
34466,note_on,1,0,0,,7,,,67,127
34590,note_off,124,0,0,,7,,,67,127
34590,note_off,0,0,0,,4,,,52,127
34591,note_on,1,0,0,,10,,,69,127
34591,note_on,0,0,0,,5,,,53,127
34715,note_off,124,0,0,,10,,,69,127
34716,note_on,1,0,0,,5,,,65,127
34840,note_off,124,0,0,,5,,,65,127
34840,note_off,0,0,0,,5,,,53,127
34841,note_on,1,0,0,,12,,,71,127
34841,note_on,0,0,0,,2,,,50,127
34965,note_off,124,0,0,,12,,,71,127
34966,note_on,1,0,0,,7,,,67,127
35090,note_off,124,0,0,,7,,,67,127
35090,note_off,0,0,0,,2,,,50,127
35091,note_on,1,0,0,,0,,,72,127
35091,note_on,0,0,0,,4,,,52,127
35215,note_off,124,0,0,,0,,,72,127
35216,note_on,1,0,0,,7,,,67,127
35340,note_off,124,0,0,,7,,,67,127
35340,note_off,0,0,0,,4,,,52,127
35341,note_on,1,0,0,,10,,,69,127
35341,note_on,0,0,0,,5,,,53,127
35465,note_off,124,0,0,,10,,,69,127
35466,note_on,1,0,0,,5,,,65,127
35590,note_off,124,0,0,,5,,,65,127
35590,note_off,0,0,0,,5,,,53,127
35591,note_on,1,0,0,,4,,,64,127
35591,note_on,0,0,0,,7,,,55,127
35715,note_off,124,0,0,,4,,,64,127
35716,note_on,1,0,0,,2,,,62,127
35840,note_off,124,0,0,,2,,,62,127
35841,note_on,1,0,0,,0,,,60,127
35841,note_on,0,0,0,,7,,,43,127
35965,note_off,124,0,0,,0,,,60,127
35966,note_on,1,0,0,,12,,,59,127
36087,note_off,121,0,0,,7,,,55,127
36090,note_off,3,0,0,,12,,,59,127
36090,note_off,0,0,0,,7,,,43,127
36091,note_on,1,0,0,,0,,,60,127
36091,note_on,0,0,0,,0,,,36,127
36091,note_on,0,0,0,,0,,,48,127
36875,note_off,784,0,0,,0,,,60,127
37092,note_off,217,0,0,,0,,,48,127
37092,note_off,0,0,0,,0,,,36,127
37093,note_on,1,0,0,,0,,,60,127
37093,note_on,0,0,0,,0,,,48,127
37217,note_off,124,0,0,,0,,,48,127
37217,note_off,0,0,0,,0,,,60,127
37218,note_on,1,0,0,,0,,,60,127
37343,note_on,125,0,0,,11,,,58,127
37467,note_off,124,0,0,,11,,,58,127
37467,note_off,0,0,0,,0,,,60,127
37468,note_on,1,0,0,,0,,,72,127
37468,note_on,0,0,0,,10,,,57,127
37592,note_off,124,0,0,,10,,,57,127
37592,note_off,0,0,0,,0,,,72,127
37593,note_on,1,0,0,,11,,,70,127
37593,note_on,0,0,0,,2,,,50,127
37717,note_off,124,0,0,,2,,,50,127
37718,note_on,1,0,0,,2,,,62,127
37842,note_off,124,0,0,,2,,,62,127
37842,note_off,0,0,0,,11,,,70,127
37843,note_on,1,0,0,,10,,,69,127
37843,note_on,0,0,0,,0,,,48,127
37967,note_off,124,0,0,,0,,,48,127
37968,note_on,1,0,0,,0,,,60,127
38092,note_off,124,0,0,,0,,,60,127
38092,note_off,0,0,0,,10,,,69,127
38093,note_on,1,0,0,,7,,,67,127
38093,note_on,0,0,0,,11,,,46,127
38217,note_off,124,0,0,,11,,,46,127
38218,note_on,1,0,0,,11,,,58,127
38342,note_off,124,0,0,,11,,,58,127
38342,note_off,0,0,0,,7,,,67,127
38343,note_on,1,0,0,,5,,,65,127
38343,note_on,0,0,0,,10,,,45,127
38467,note_off,124,0,0,,10,,,45,127
38468,note_on,1,0,0,,10,,,57,127
38592,note_off,124,0,0,,10,,,57,127
38592,note_off,0,0,0,,5,,,65,127
38593,note_on,1,0,0,,4,,,64,127
38593,note_on,0,0,0,,7,,,43,127
38717,note_off,124,0,0,,7,,,43,127
38718,note_on,1,0,0,,7,,,55,127
38842,note_off,124,0,0,,7,,,55,127
38842,note_off,0,0,0,,4,,,64,127
38843,note_on,1,0,0,,5,,,65,127
38843,note_on,0,0,0,,5,,,41,127
38967,note_off,124,0,0,,5,,,41,127
38968,note_on,1,0,0,,5,,,53,127
39092,note_off,124,0,0,,5,,,53,127
39092,note_off,0,0,0,,5,,,65,127
39093,note_on,1,0,0,,7,,,67,127
39093,note_on,0,0,0,,0,,,48,127
39217,note_off,124,0,0,,0,,,48,127
39218,note_on,1,0,0,,0,,,60,127
39342,note_off,124,0,0,,0,,,60,127
39343,note_on,1,0,0,,11,,,58,127
39467,note_off,124,0,0,,11,,,58,127
39467,note_off,0,0,0,,7,,,67,127
39468,note_on,1,0,0,,0,,,72,127
39468,note_on,0,0,0,,10,,,57,127
39592,note_off,124,0,0,,10,,,57,127
39592,note_off,0,0,0,,0,,,72,127
39593,note_on,1,0,0,,11,,,70,127
39593,note_on,0,0,0,,2,,,50,127
39717,note_off,124,0,0,,2,,,50,127
39718,note_on,1,0,0,,2,,,62,127
39842,note_off,124,0,0,,2,,,62,127
39842,note_off,0,0,0,,11,,,70,127
39843,note_on,1,0,0,,10,,,69,127
39843,note_on,0,0,0,,0,,,48,127
39967,note_off,124,0,0,,0,,,48,127
39968,note_on,1,0,0,,0,,,60,127
40092,note_off,124,0,0,,0,,,60,127
40092,note_off,0,0,0,,10,,,69,127
40093,note_on,1,0,0,,7,,,67,127
40093,note_on,0,0,0,,11,,,46,127
40217,note_off,124,0,0,,11,,,46,127
40218,note_on,1,0,0,,11,,,58,127
40342,note_off,124,0,0,,11,,,58,127
40343,note_on,1,0,0,,10,,,57,127
40467,note_off,124,0,0,,10,,,57,127
40467,note_off,0,0,0,,7,,,67,127
40468,note_on,1,0,0,,10,,,69,127
40468,note_on,0,0,0,,7,,,55,127
40529,note_off,61,0,0,,10,,,69,127
40530,note_on,1,0,0,,11,,,70,127
40591,note_off,61,0,0,,11,,,70,127
40591,note_off,0,0,0,,7,,,55,127
40592,note_on,1,0,0,,10,,,69,127
40592,note_on,0,0,0,,0,,,48,127
40716,note_off,124,0,0,,0,,,48,127
40717,note_on,1,0,0,,0,,,60,127
40841,note_off,124,0,0,,0,,,60,127
40841,note_off,0,0,0,,10,,,69,127
40842,note_on,1,0,0,,7,,,67,127
40842,note_on,0,0,0,,11,,,46,127
40966,note_off,124,0,0,,11,,,46,127
40967,note_on,1,0,0,,11,,,58,127
41091,note_off,124,0,0,,11,,,58,127
41091,note_off,0,0,0,,7,,,67,127
41092,note_on,1,0,0,,5,,,65,127
41092,note_on,0,0,0,,10,,,45,127
41216,note_off,124,0,0,,5,,,65,127
41217,note_on,1,0,0,,0,,,72,127
41341,note_off,124,0,0,,0,,,72,127
41342,note_on,1,0,0,,11,,,70,127
41466,note_off,124,0,0,,11,,,70,127
41467,note_on,1,0,0,,10,,,69,127
41591,note_off,124,0,0,,10,,,69,127
41591,note_off,0,0,0,,10,,,45,127
41592,note_on,1,0,0,,2,,,74,127
41592,note_on,0,0,0,,2,,,62,127
41592,note_on,0,0,0,,11,,,58,127
41717,note_on,125,0,0,,7,,,67,127
41841,note_off,124,0,0,,7,,,67,127
41841,note_off,0,0,0,,11,,,58,127
41841,note_off,0,0,0,,2,,,62,127
41842,note_on,1,0,0,,5,,,65,127
41842,note_on,0,0,0,,0,,,60,127
41842,note_on,0,0,0,,10,,,57,127
41966,note_off,124,0,0,,2,,,74,127
41967,note_on,1,0,0,,0,,,72,127
42091,note_off,124,0,0,,10,,,57,127
42091,note_off,0,0,0,,0,,,60,127
42091,note_off,0,0,0,,5,,,65,127
42092,note_on,1,0,0,,4,,,64,127
42092,note_on,0,0,0,,7,,,55,127
42092,note_on,0,0,0,,11,,,58,127
42216,note_off,124,0,0,,0,,,72,127
42217,note_on,1,0,0,,11,,,70,127
42341,note_off,124,0,0,,11,,,70,127
42341,note_off,0,0,0,,4,,,64,127
42342,note_on,1,0,0,,10,,,69,127
42466,note_off,124,0,0,,10,,,69,127
42467,note_on,1,0,0,,7,,,67,127
42591,note_off,124,0,0,,7,,,67,127
42591,note_off,0,0,0,,11,,,58,127
42591,note_off,0,0,0,,7,,,55,127
42592,note_on,1,0,0,,0,,,72,127
42592,note_on,0,0,0,,0,,,60,127
42592,note_on,0,0,0,,10,,,57,127
42717,note_on,125,0,0,,5,,,65,127
42841,note_off,124,0,0,,5,,,65,127
42841,note_off,0,0,0,,10,,,57,127
42841,note_off,0,0,0,,0,,,60,127
42842,note_on,1,0,0,,4,,,64,127
42842,note_on,0,0,0,,7,,,55,127
42842,note_on,0,0,0,,11,,,58,127
42966,note_off,124,0,0,,0,,,72,127
42967,note_on,1,0,0,,11,,,70,127
43091,note_off,124,0,0,,11,,,70,127
43091,note_off,0,0,0,,11,,,58,127
43091,note_off,0,0,0,,7,,,55,127
43091,note_off,0,0,0,,4,,,64,127
43092,note_on,1,0,0,,10,,,69,127
43092,note_on,0,0,0,,5,,,53,127
43092,note_on,0,0,0,,0,,,60,127
43217,note_on,125,0,0,,10,,,81,127
43341,note_off,124,0,0,,10,,,81,127
43341,note_off,0,0,0,,10,,,69,127
43342,note_on,1,0,0,,7,,,79,127
43466,note_off,124,0,0,,7,,,79,127
43467,note_on,1,0,0,,5,,,77,127
43591,note_off,124,0,0,,5,,,77,127
43591,note_off,0,0,0,,0,,,60,127
43591,note_off,0,0,0,,5,,,53,127
43592,note_on,1,0,0,,11,,,82,127
43592,note_on,0,0,0,,11,,,58,127
43592,note_on,0,0,0,,7,,,55,127
43717,note_on,125,0,0,,4,,,76,127
43841,note_off,124,0,0,,4,,,76,127
43841,note_off,0,0,0,,7,,,55,127
43841,note_off,0,0,0,,11,,,58,127
43841,note_off,0,0,0,,11,,,82,127
43842,note_on,1,0,0,,2,,,74,127
43842,note_on,0,0,0,,5,,,53,127
43842,note_on,0,0,0,,10,,,57,127
43967,note_on,125,0,0,,10,,,81,127
44091,note_off,124,0,0,,10,,,57,127
44091,note_off,0,0,0,,5,,,53,127
44091,note_off,0,0,0,,2,,,74,127
44092,note_on,1,0,0,,1,,,73,127
44092,note_on,0,0,0,,4,,,52,127
44092,note_on,0,0,0,,7,,,55,127
44216,note_off,124,0,0,,10,,,81,127
44217,note_on,1,0,0,,7,,,79,127
44341,note_off,124,0,0,,7,,,79,127
44341,note_off,0,0,0,,1,,,73,127
44342,note_on,1,0,0,,5,,,77,127
44466,note_off,124,0,0,,5,,,77,127
44467,note_on,1,0,0,,4,,,76,127
44591,note_off,124,0,0,,4,,,76,127
44591,note_off,0,0,0,,7,,,55,127
44591,note_off,0,0,0,,4,,,52,127
44592,note_on,1,0,0,,10,,,81,127
44592,note_on,0,0,0,,5,,,53,127
44592,note_on,0,0,0,,10,,,57,127
44717,note_on,125,0,0,,2,,,74,127
44841,note_off,124,0,0,,2,,,74,127
44841,note_off,0,0,0,,10,,,57,127
44841,note_off,0,0,0,,5,,,53,127
44841,note_off,0,0,0,,10,,,81,127
44842,note_on,1,0,0,,1,,,73,127
44842,note_on,0,0,0,,7,,,55,127
44842,note_on,0,0,0,,4,,,52,127
44967,note_on,125,0,0,,7,,,79,127
45091,note_off,124,0,0,,7,,,79,127
45091,note_off,0,0,0,,4,,,52,127
45091,note_off,0,0,0,,7,,,55,127
45091,note_off,0,0,0,,1,,,73,127
45092,note_on,1,0,0,,5,,,77,127
45092,note_on,0,0,0,,2,,,50,127
45092,note_on,0,0,0,,10,,,57,127
45217,note_on,125,0,0,,10,,,81,127
45341,note_off,124,0,0,,10,,,81,127
45341,note_off,0,0,0,,5,,,77,127
45342,note_on,1,0,0,,7,,,79,127
45466,note_off,124,0,0,,7,,,79,127
45467,note_on,1,0,0,,5,,,77,127
45591,note_off,124,0,0,,5,,,77,127
45591,note_off,0,0,0,,10,,,57,127
45591,note_off,0,0,0,,2,,,50,127
45592,note_on,1,0,0,,11,,,82,127
45592,note_on,0,0,0,,7,,,55,127
45592,note_on,0,0,0,,11,,,58,127
45717,note_on,125,0,0,,4,,,76,127
45841,note_off,124,0,0,,4,,,76,127
45841,note_off,0,0,0,,11,,,58,127
45841,note_off,0,0,0,,7,,,55,127
45841,note_off,0,0,0,,11,,,82,127
45842,note_on,1,0,0,,2,,,74,127
45842,note_on,0,0,0,,5,,,53,127
45842,note_on,0,0,0,,10,,,57,127
45967,note_on,125,0,0,,10,,,81,127
46091,note_off,124,0,0,,10,,,57,127
46091,note_off,0,0,0,,5,,,53,127
46091,note_off,0,0,0,,2,,,74,127
46092,note_on,1,0,0,,1,,,73,127
46092,note_on,0,0,0,,4,,,52,127
46092,note_on,0,0,0,,7,,,55,127
46216,note_off,124,0,0,,10,,,81,127
46217,note_on,1,0,0,,7,,,79,127
46341,note_off,124,0,0,,7,,,79,127
46341,note_off,0,0,0,,1,,,73,127
46342,note_on,1,0,0,,5,,,77,127
46466,note_off,124,0,0,,5,,,77,127
46467,note_on,1,0,0,,4,,,76,127
46591,note_off,124,0,0,,4,,,76,127
46591,note_off,0,0,0,,7,,,55,127
46591,note_off,0,0,0,,4,,,52,127
46592,note_on,1,0,0,,10,,,81,127
46592,note_on,0,0,0,,10,,,57,127
46592,note_on,0,0,0,,5,,,53,127
46717,note_on,125,0,0,,2,,,74,127
46841,note_off,124,0,0,,2,,,74,127
46841,note_off,0,0,0,,5,,,53,127
46841,note_off,0,0,0,,10,,,57,127
46841,note_off,0,0,0,,10,,,81,127
46842,note_on,1,0,0,,1,,,73,127
46842,note_on,0,0,0,,7,,,55,127
46842,note_on,0,0,0,,4,,,52,127
46967,note_on,125,0,0,,7,,,79,127
47091,note_off,124,0,0,,7,,,79,127
47091,note_off,0,0,0,,4,,,52,127
47091,note_off,0,0,0,,7,,,55,127
47091,note_off,0,0,0,,1,,,73,127
47092,note_on,1,0,0,,5,,,77,127
47092,note_on,0,0,0,,2,,,50,127
47216,note_off,124,0,0,,2,,,50,127
47217,note_on,1,0,0,,10,,,69,127
47341,note_off,124,0,0,,10,,,69,127
47342,note_on,1,0,0,,7,,,67,127
47466,note_off,124,0,0,,7,,,67,127
47466,note_off,0,0,0,,5,,,77,127
47467,note_on,1,0,0,,10,,,81,127
47467,note_on,0,0,0,,5,,,65,127
47591,note_off,124,0,0,,5,,,65,127
47591,note_off,0,0,0,,10,,,81,127
47592,note_on,1,0,0,,7,,,79,127
47592,note_on,0,0,0,,11,,,58,127
47716,note_off,124,0,0,,11,,,58,127
47717,note_on,1,0,0,,11,,,70,127
47841,note_off,124,0,0,,11,,,70,127
47841,note_off,0,0,0,,7,,,79,127
47842,note_on,1,0,0,,5,,,77,127
47842,note_on,0,0,0,,10,,,57,127
47966,note_off,124,0,0,,10,,,57,127
47967,note_on,1,0,0,,10,,,69,127
48091,note_off,124,0,0,,10,,,69,127
48091,note_off,0,0,0,,5,,,77,127
48092,note_on,1,0,0,,4,,,76,127
48092,note_on,0,0,0,,7,,,55,127
48216,note_off,124,0,0,,7,,,55,127
48217,note_on,1,0,0,,7,,,67,127
48341,note_off,124,0,0,,7,,,67,127
48342,note_on,1,0,0,,5,,,65,127
48466,note_off,124,0,0,,5,,,65,127
48466,note_off,0,0,0,,4,,,76,127
48467,note_on,1,0,0,,5,,,77,127
48467,note_on,0,0,0,,4,,,64,127
48528,note_off,61,0,0,,5,,,77,127
48529,note_on,1,0,0,,7,,,79,127
48590,note_off,61,0,0,,7,,,79,127
48590,note_off,0,0,0,,4,,,64,127
48591,note_on,1,0,0,,5,,,77,127
48591,note_on,0,0,0,,10,,,57,127
48715,note_off,124,0,0,,10,,,57,127
48716,note_on,1,0,0,,10,,,69,127
48840,note_off,124,0,0,,10,,,69,127
48840,note_off,0,0,0,,5,,,77,127
48841,note_on,1,0,0,,4,,,76,127
48841,note_on,0,0,0,,7,,,55,127
48965,note_off,124,0,0,,7,,,55,127
48966,note_on,1,0,0,,7,,,67,127
49090,note_off,124,0,0,,7,,,67,127
49090,note_off,0,0,0,,4,,,76,127
49091,note_on,1,0,0,,2,,,74,127
49091,note_on,0,0,0,,5,,,53,127
49215,note_off,124,0,0,,5,,,53,127
49216,note_on,1,0,0,,5,,,65,127
49340,note_off,124,0,0,,5,,,65,127
49341,note_on,1,0,0,,4,,,64,127
49465,note_off,124,0,0,,4,,,64,127
49465,note_off,0,0,0,,2,,,74,127
49466,note_on,1,0,0,,4,,,76,127
49466,note_on,0,0,0,,2,,,62,127
49527,note_off,61,0,0,,4,,,76,127
49528,note_on,1,0,0,,5,,,77,127
49589,note_off,61,0,0,,5,,,77,127
49589,note_off,0,0,0,,2,,,62,127
49590,note_on,1,0,0,,4,,,76,127
49590,note_on,0,0,0,,7,,,55,127
49714,note_off,124,0,0,,7,,,55,127
49715,note_on,1,0,0,,7,,,67,127
49839,note_off,124,0,0,,7,,,67,127
49839,note_off,0,0,0,,4,,,76,127
49840,note_on,1,0,0,,2,,,74,127
49840,note_on,0,0,0,,5,,,53,127
49964,note_off,124,0,0,,5,,,53,127
49965,note_on,1,0,0,,5,,,65,127
50089,note_off,124,0,0,,5,,,65,127
50089,note_off,0,0,0,,2,,,74,127
50090,note_on,1,0,0,,1,,,73,127
50090,note_on,0,0,0,,4,,,64,127
50215,note_on,125,0,0,,7,,,79,127
50279,note_off,64,0,0,,1,,,73,127
50339,note_off,60,0,0,,7,,,79,127
50339,note_off,0,0,0,,4,,,64,127
50340,note_on,1,0,0,,5,,,77,127
50340,note_on,0,0,0,,1,,,61,127
50464,note_off,124,0,0,,5,,,77,127
50465,note_on,1,0,0,,4,,,76,127
50589,note_off,124,0,0,,4,,,76,127
50589,note_off,0,0,0,,1,,,61,127
50590,note_on,1,0,0,,5,,,77,127
50590,note_on,0,0,0,,2,,,62,127
50839,note_off,249,0,0,,2,,,62,127
50839,note_off,0,0,0,,5,,,77,127
50840,note_on,1,0,0,,10,,,81,127
50840,note_on,0,0,0,,11,,,58,127
50901,note_off,61,0,0,,10,,,81,127
50902,note_on,1,0,0,,7,,,79,127
50963,note_off,61,0,0,,7,,,79,127
50964,note_on,1,0,0,,5,,,77,127
51025,note_off,61,0,0,,5,,,77,127
51026,note_on,1,0,0,,7,,,79,127
51087,note_off,61,0,0,,7,,,79,127
51087,note_off,0,0,0,,11,,,58,127
51088,note_on,1,0,0,,10,,,81,127
51088,note_on,0,0,0,,10,,,57,127
51212,note_off,124,0,0,,10,,,57,127
51213,note_on,1,0,0,,10,,,69,127
51337,note_off,124,0,0,,10,,,69,127
51338,note_on,1,0,0,,7,,,67,127
51462,note_off,124,0,0,,7,,,67,127
51463,note_on,1,0,0,,10,,,69,127
51587,note_off,124,0,0,,10,,,69,127
51588,note_on,1,0,0,,6,,,66,127
51712,note_off,124,0,0,,6,,,66,127
51713,note_on,1,0,0,,10,,,69,127
51837,note_off,124,0,0,,10,,,69,127
51837,note_off,0,0,0,,10,,,81,127
51838,note_on,1,0,0,,7,,,79,127
51838,note_on,0,0,0,,3,,,63,127
51962,note_off,124,0,0,,3,,,63,127
51963,note_on,1,0,0,,7,,,67,127
52087,note_off,124,0,0,,7,,,67,127
52087,note_off,0,0,0,,7,,,79,127
52088,note_on,1,0,0,,6,,,78,127
52088,note_on,0,0,0,,2,,,62,127
52212,note_off,124,0,0,,2,,,62,127
52213,note_on,1,0,0,,10,,,69,127
52337,note_off,124,0,0,,10,,,69,127
52337,note_off,0,0,0,,6,,,78,127
52338,note_on,1,0,0,,3,,,75,127
52338,note_on,0,0,0,,0,,,60,127
52462,note_off,124,0,0,,0,,,60,127
52463,note_on,1,0,0,,10,,,69,127
52587,note_off,124,0,0,,10,,,69,127
52587,note_off,0,0,0,,3,,,75,127
52588,note_on,1,0,0,,2,,,74,127
52588,note_on,0,0,0,,11,,,58,127
52712,note_off,124,0,0,,11,,,58,127
52713,note_on,1,0,0,,7,,,67,127
52837,note_off,124,0,0,,7,,,67,127
52837,note_off,0,0,0,,2,,,74,127
52838,note_on,1,0,0,,0,,,72,127
52838,note_on,0,0,0,,8,,,56,127
52962,note_off,124,0,0,,8,,,56,127
52963,note_on,1,0,0,,5,,,65,127
53087,note_off,124,0,0,,5,,,65,127
53087,note_off,0,0,0,,0,,,72,127
53088,note_on,1,0,0,,12,,,71,127
53088,note_on,0,0,0,,7,,,55,127
53212,note_off,124,0,0,,7,,,55,127
53213,note_on,1,0,0,,7,,,67,127
53337,note_off,124,0,0,,7,,,67,127
53337,note_off,0,0,0,,12,,,71,127
53338,note_on,1,0,0,,8,,,80,127
53338,note_on,0,0,0,,5,,,65,127
53462,note_off,124,0,0,,5,,,65,127
53463,note_on,1,0,0,,7,,,67,127
53587,note_off,124,0,0,,7,,,67,127
53587,note_off,0,0,0,,8,,,80,127
53588,note_on,1,0,0,,7,,,79,127
53588,note_on,0,0,0,,3,,,63,127
53712,note_off,124,0,0,,3,,,63,127
53713,note_on,1,0,0,,7,,,67,127
53837,note_off,124,0,0,,7,,,67,127
53837,note_off,0,0,0,,7,,,79,127
53838,note_on,1,0,0,,5,,,77,127
53838,note_on,0,0,0,,1,,,61,127
53962,note_off,124,0,0,,1,,,61,127
53963,note_on,1,0,0,,5,,,65,127
54087,note_off,124,0,0,,5,,,65,127
54087,note_off,0,0,0,,5,,,77,127
54088,note_on,1,0,0,,4,,,76,127
54088,note_on,0,0,0,,0,,,60,127
54212,note_off,124,0,0,,0,,,60,127
54213,note_on,1,0,0,,7,,,67,127
54337,note_off,124,0,0,,7,,,67,127
54337,note_off,0,0,0,,4,,,76,127
54338,note_on,1,0,0,,1,,,73,127
54338,note_on,0,0,0,,11,,,58,127
54462,note_off,124,0,0,,11,,,58,127
54463,note_on,1,0,0,,7,,,67,127
54587,note_off,124,0,0,,7,,,67,127
54587,note_off,0,0,0,,1,,,73,127
54588,note_on,1,0,0,,0,,,72,127
54588,note_on,0,0,0,,8,,,56,127
54712,note_off,124,0,0,,8,,,56,127
54713,note_on,1,0,0,,5,,,65,127
54837,note_off,124,0,0,,5,,,65,127
54837,note_off,0,0,0,,0,,,72,127
54838,note_on,1,0,0,,11,,,70,127
54838,note_on,0,0,0,,6,,,54,127
54962,note_off,124,0,0,,6,,,54,127
54963,note_on,1,0,0,,3,,,63,127
55087,note_off,124,0,0,,3,,,63,127
55087,note_off,0,0,0,,11,,,70,127
55088,note_on,1,0,0,,10,,,69,127
55088,note_on,0,0,0,,5,,,53,127
55212,note_off,124,0,0,,5,,,53,127
55213,note_on,1,0,0,,5,,,65,127
55337,note_off,124,0,0,,5,,,65,127
55337,note_off,0,0,0,,10,,,69,127
55338,note_on,1,0,0,,6,,,78,127
55338,note_on,0,0,0,,3,,,63,127
55462,note_off,124,0,0,,3,,,63,127
55463,note_on,1,0,0,,5,,,65,127
55587,note_off,124,0,0,,5,,,65,127
55587,note_off,0,0,0,,6,,,78,127
55588,note_on,1,0,0,,5,,,77,127
55588,note_on,0,0,0,,1,,,61,127
55712,note_off,124,0,0,,1,,,61,127
55713,note_on,1,0,0,,5,,,65,127
55837,note_off,124,0,0,,5,,,65,127
55837,note_off,0,0,0,,5,,,77,127
55838,note_on,1,0,0,,3,,,75,127
55838,note_on,0,0,0,,0,,,60,127
55962,note_off,124,0,0,,0,,,60,127
55963,note_on,1,0,0,,3,,,63,127
56087,note_off,124,0,0,,3,,,63,127
56087,note_off,0,0,0,,3,,,75,127
56088,note_on,1,0,0,,1,,,73,127
56088,note_on,0,0,0,,11,,,58,127
56212,note_off,124,0,0,,11,,,58,127
56213,note_on,1,0,0,,1,,,61,127
56337,note_off,124,0,0,,1,,,61,127
56337,note_off,0,0,0,,1,,,73,127
56338,note_on,1,0,0,,0,,,72,127
56338,note_on,0,0,0,,8,,,56,127
56462,note_off,124,0,0,,8,,,56,127
56463,note_on,1,0,0,,0,,,60,127
56587,note_off,124,0,0,,0,,,60,127
56587,note_off,0,0,0,,0,,,72,127
56588,note_on,1,0,0,,11,,,70,127
56588,note_on,0,0,0,,7,,,55,127
56712,note_off,124,0,0,,7,,,55,127
56713,note_on,1,0,0,,11,,,58,127
56837,note_off,124,0,0,,11,,,58,127
56837,note_off,0,0,0,,11,,,70,127
56838,note_on,1,0,0,,8,,,68,127
56838,note_on,0,0,0,,5,,,53,127
56962,note_off,124,0,0,,5,,,53,127
56963,note_on,1,0,0,,8,,,56,127
57087,note_off,124,0,0,,8,,,56,127
57087,note_off,0,0,0,,8,,,68,127
57088,note_on,1,0,0,,7,,,67,127
57088,note_on,0,0,0,,4,,,52,127
57212,note_off,124,0,0,,4,,,52,127
57213,note_on,1,0,0,,7,,,55,127
57337,note_off,124,0,0,,7,,,55,127
57337,note_off,0,0,0,,7,,,67,127
57338,note_on,1,0,0,,8,,,68,127
57338,note_on,0,0,0,,5,,,53,127
57462,note_off,124,0,0,,5,,,53,127
57463,note_on,1,0,0,,8,,,56,127
57587,note_off,124,0,0,,8,,,56,127
57587,note_off,0,0,0,,8,,,68,127
57588,note_on,1,0,0,,7,,,67,127
57588,note_on,0,0,0,,0,,,48,127
57712,note_off,124,0,0,,0,,,48,127
57713,note_on,1,0,0,,0,,,60,127
57837,note_off,124,0,0,,0,,,60,127
57837,note_off,0,0,0,,7,,,67,127
57838,note_on,1,0,0,,5,,,65,127
57838,note_on,0,0,0,,1,,,49,127
57962,note_off,124,0,0,,1,,,49,127
57963,note_on,1,0,0,,11,,,58,127
58087,note_off,124,0,0,,11,,,58,127
58087,note_off,0,0,0,,5,,,65,127
58088,note_on,1,0,0,,4,,,64,127
58088,note_on,0,0,0,,0,,,48,127
58212,note_off,124,0,0,,0,,,48,127
58213,note_on,1,0,0,,0,,,60,127
58337,note_off,124,0,0,,0,,,60,127
58337,note_off,0,0,0,,4,,,64,127
58338,note_on,1,0,0,,5,,,65,127
58338,note_on,0,0,0,,1,,,49,127
58462,note_off,124,0,0,,1,,,49,127
58463,note_on,1,0,0,,11,,,58,127
58587,note_off,124,0,0,,11,,,58,127
58587,note_off,0,0,0,,5,,,65,127
58588,note_on,1,0,0,,4,,,64,127
58588,note_on,0,0,0,,0,,,48,127
58712,note_off,124,0,0,,0,,,48,127
58713,note_on,1,0,0,,0,,,60,127
58837,note_off,124,0,0,,0,,,60,127
58837,note_off,0,0,0,,4,,,64,127
58838,note_on,1,0,0,,5,,,65,127
58838,note_on,0,0,0,,1,,,49,127
58962,note_off,124,0,0,,1,,,49,127
58963,note_on,1,0,0,,11,,,58,127
59087,note_off,124,0,0,,11,,,58,127
59087,note_off,0,0,0,,5,,,65,127
59088,note_on,1,0,0,,7,,,67,127
59088,note_on,0,0,0,,0,,,48,127
59186,note_off,98,0,0,,7,,,67,127
59213,note_on,27,0,0,,0,,,84,127
59337,note_off,124,0,0,,0,,,84,127
59338,note_on,1,0,0,,11,,,82,127
59462,note_off,124,0,0,,11,,,82,127
59463,note_on,1,0,0,,8,,,80,127
59587,note_off,124,0,0,,8,,,80,127
59587,note_off,0,0,0,,0,,,48,127
59588,note_on,1,0,0,,1,,,85,127
59588,note_on,0,0,0,,11,,,70,127
59588,note_on,0,0,0,,1,,,73,127
59713,note_on,125,0,0,,7,,,79,127
59837,note_off,124,0,0,,7,,,79,127
59837,note_off,0,0,0,,1,,,73,127
59837,note_off,0,0,0,,11,,,70,127
59838,note_on,1,0,0,,5,,,77,127
59838,note_on,0,0,0,,8,,,68,127
59838,note_on,0,0,0,,0,,,72,127
59954,note_off,116,0,0,,1,,,85,127
59962,note_off,8,0,0,,5,,,77,127
59963,note_on,1,0,0,,0,,,84,127
60087,note_off,124,0,0,,0,,,72,127
60087,note_off,0,0,0,,8,,,68,127
60088,note_on,1,0,0,,4,,,76,127
60088,note_on,0,0,0,,11,,,70,127
60088,note_on,0,0,0,,7,,,67,127
60212,note_off,124,0,0,,4,,,76,127
60212,note_off,0,0,0,,0,,,84,127
60213,note_on,1,0,0,,11,,,82,127
60337,note_off,124,0,0,,11,,,82,127
60338,note_on,1,0,0,,8,,,80,127
60462,note_off,124,0,0,,8,,,80,127
60463,note_on,1,0,0,,7,,,79,127
60587,note_off,124,0,0,,7,,,79,127
60587,note_off,0,0,0,,7,,,67,127
60587,note_off,0,0,0,,11,,,70,127
60588,note_on,1,0,0,,0,,,84,127
60588,note_on,0,0,0,,8,,,68,127
60588,note_on,0,0,0,,0,,,72,127
60713,note_on,125,0,0,,5,,,77,127
60837,note_off,124,0,0,,5,,,77,127
60837,note_off,0,0,0,,0,,,72,127
60837,note_off,0,0,0,,8,,,68,127
60838,note_on,1,0,0,,4,,,76,127
60838,note_on,0,0,0,,11,,,70,127
60838,note_on,0,0,0,,7,,,67,127
60962,note_off,124,0,0,,4,,,76,127
60962,note_off,0,0,0,,0,,,84,127
60963,note_on,1,0,0,,11,,,82,127
61087,note_off,124,0,0,,11,,,82,127
61087,note_off,0,0,0,,7,,,67,127
61087,note_off,0,0,0,,11,,,70,127
61088,note_on,1,0,0,,8,,,80,127
61088,note_on,0,0,0,,5,,,65,127
61088,note_on,0,0,0,,0,,,72,127
61212,note_off,124,0,0,,8,,,80,127
61213,note_on,1,0,0,,0,,,84,127
61337,note_off,124,0,0,,0,,,84,127
61338,note_on,1,0,0,,11,,,82,127
61462,note_off,124,0,0,,11,,,82,127
61463,note_on,1,0,0,,8,,,80,127
61587,note_off,124,0,0,,8,,,80,127
61587,note_off,0,0,0,,0,,,72,127
61587,note_off,0,0,0,,5,,,65,127
61588,note_on,1,0,0,,1,,,85,127
61588,note_on,0,0,0,,1,,,73,127
61588,note_on,0,0,0,,11,,,70,127
61713,note_on,125,0,0,,7,,,79,127
61837,note_off,124,0,0,,7,,,79,127
61837,note_off,0,0,0,,11,,,70,127
61837,note_off,0,0,0,,1,,,73,127
61838,note_on,1,0,0,,5,,,77,127
61838,note_on,0,0,0,,0,,,72,127
61838,note_on,0,0,0,,8,,,68,127
61962,note_off,124,0,0,,5,,,77,127
61962,note_off,0,0,0,,1,,,85,127
61963,note_on,1,0,0,,0,,,84,127
62087,note_off,124,0,0,,8,,,68,127
62087,note_off,0,0,0,,0,,,72,127
62088,note_on,1,0,0,,4,,,76,127
62088,note_on,0,0,0,,7,,,67,127
62088,note_on,0,0,0,,11,,,70,127
62212,note_off,124,0,0,,4,,,76,127
62212,note_off,0,0,0,,0,,,84,127
62213,note_on,1,0,0,,11,,,82,127
62337,note_off,124,0,0,,11,,,82,127
62338,note_on,1,0,0,,8,,,80,127
62462,note_off,124,0,0,,8,,,80,127
62463,note_on,1,0,0,,7,,,79,127
62587,note_off,124,0,0,,7,,,79,127
62587,note_off,0,0,0,,11,,,70,127
62587,note_off,0,0,0,,7,,,67,127
62588,note_on,1,0,0,,0,,,84,127
62588,note_on,0,0,0,,8,,,68,127
62588,note_on,0,0,0,,0,,,72,127
62713,note_on,125,0,0,,5,,,77,127
62837,note_off,124,0,0,,5,,,77,127
62837,note_off,0,0,0,,0,,,72,127
62837,note_off,0,0,0,,8,,,68,127
62837,note_off,0,0,0,,0,,,84,127
62838,note_on,1,0,0,,4,,,76,127
62838,note_on,0,0,0,,7,,,67,127
62838,note_on,0,0,0,,11,,,70,127
62962,note_off,124,0,0,,4,,,76,127
62963,note_on,1,0,0,,11,,,82,127
63087,note_off,124,0,0,,11,,,82,127
63087,note_off,0,0,0,,11,,,70,127
63087,note_off,0,0,0,,7,,,67,127
63088,note_on,1,0,0,,8,,,80,127
63088,note_on,0,0,0,,5,,,65,127
63212,note_off,124,0,0,,5,,,65,127
63213,note_on,1,0,0,,5,,,77,127
63337,note_off,124,0,0,,5,,,77,127
63337,note_off,0,0,0,,8,,,80,127
63338,note_on,1,0,0,,0,,,84,127
63338,note_on,0,0,0,,3,,,63,127
63462,note_off,124,0,0,,3,,,63,127
63463,note_on,1,0,0,,3,,,75,127
63587,note_off,124,0,0,,3,,,75,127
63587,note_off,0,0,0,,0,,,84,127
63588,note_on,1,0,0,,11,,,82,127
63588,note_on,0,0,0,,1,,,61,127
63712,note_off,124,0,0,,1,,,61,127
63713,note_on,1,0,0,,1,,,73,127
63837,note_off,124,0,0,,1,,,73,127
63837,note_off,0,0,0,,11,,,82,127
63838,note_on,1,0,0,,8,,,80,127
63838,note_on,0,0,0,,0,,,60,127
63962,note_off,124,0,0,,0,,,60,127
63963,note_on,1,0,0,,0,,,72,127
64087,note_off,124,0,0,,0,,,72,127
64087,note_off,0,0,0,,8,,,80,127
64088,note_on,1,0,0,,7,,,79,127
64088,note_on,0,0,0,,11,,,58,127
64212,note_off,124,0,0,,11,,,58,127
64213,note_on,1,0,0,,11,,,70,127
64337,note_off,124,0,0,,11,,,70,127
64337,note_off,0,0,0,,7,,,79,127
64338,note_on,1,0,0,,5,,,77,127
64338,note_on,0,0,0,,8,,,56,127
64462,note_off,124,0,0,,8,,,56,127
64463,note_on,1,0,0,,8,,,68,127
64587,note_off,124,0,0,,8,,,68,127
64587,note_off,0,0,0,,5,,,77,127
64588,note_on,1,0,0,,4,,,76,127
64588,note_on,0,0,0,,7,,,55,127
64712,note_off,124,0,0,,7,,,55,127
64713,note_on,1,0,0,,7,,,67,127
64837,note_off,124,0,0,,7,,,67,127
64837,note_off,0,0,0,,4,,,76,127
64838,note_on,1,0,0,,5,,,77,127
64838,note_on,0,0,0,,5,,,53,127
64962,note_off,124,0,0,,5,,,53,127
64963,note_on,1,0,0,,5,,,65,127
65087,note_off,124,0,0,,5,,,65,127
65087,note_off,0,0,0,,5,,,77,127
65088,note_on,1,0,0,,7,,,79,127
65088,note_on,0,0,0,,0,,,48,127
65212,note_off,124,0,0,,0,,,48,127
65213,note_on,1,0,0,,0,,,60,127
65337,note_off,124,0,0,,0,,,60,127
65337,note_off,0,0,0,,7,,,79,127
65338,note_on,1,0,0,,11,,,58,127
65462,note_off,124,0,0,,11,,,58,127
65463,note_on,1,0,0,,4,,,76,127
65463,note_on,0,0,0,,10,,,57,127
65587,note_off,124,0,0,,10,,,57,127
65587,note_off,0,0,0,,4,,,76,127
65588,note_on,1,0,0,,5,,,77,127
65588,note_on,0,0,0,,2,,,50,127
65712,note_off,124,0,0,,2,,,50,127
65713,note_on,1,0,0,,2,,,62,127
65837,note_off,124,0,0,,2,,,62,127
65837,note_off,0,0,0,,5,,,77,127
65838,note_on,1,0,0,,4,,,76,127
65838,note_on,0,0,0,,0,,,48,127
65962,note_off,124,0,0,,0,,,48,127
65963,note_on,1,0,0,,0,,,60,127
66087,note_off,124,0,0,,0,,,60,127
66087,note_off,0,0,0,,4,,,76,127
66088,note_on,1,0,0,,2,,,74,127
66088,note_on,0,0,0,,11,,,46,127
66212,note_off,124,0,0,,11,,,46,127
66213,note_on,1,0,0,,11,,,58,127
66337,note_off,124,0,0,,11,,,58,127
66338,note_on,1,0,0,,10,,,57,127
66462,note_off,124,0,0,,10,,,57,127
66462,note_off,0,0,0,,2,,,74,127
66463,note_on,1,0,0,,4,,,76,127
66463,note_on,0,0,0,,7,,,55,127
66524,note_off,61,0,0,,4,,,76,127
66525,note_on,1,0,0,,5,,,77,127
66586,note_off,61,0,0,,5,,,77,127
66586,note_off,0,0,0,,7,,,55,127
66587,note_on,1,0,0,,4,,,76,127
66587,note_on,0,0,0,,0,,,48,127
66711,note_off,124,0,0,,0,,,48,127
66712,note_on,1,0,0,,0,,,60,127
66836,note_off,124,0,0,,0,,,60,127
66836,note_off,0,0,0,,4,,,76,127
66837,note_on,1,0,0,,2,,,74,127
66837,note_on,0,0,0,,11,,,46,127
66961,note_off,124,0,0,,11,,,46,127
66962,note_on,1,0,0,,11,,,58,127
67086,note_off,124,0,0,,11,,,58,127
67086,note_off,0,0,0,,2,,,74,127
67087,note_on,1,0,0,,0,,,72,127
67087,note_on,0,0,0,,10,,,45,127
67211,note_off,124,0,0,,10,,,45,127
67212,note_on,1,0,0,,10,,,57,127
67336,note_off,124,0,0,,10,,,57,127
67337,note_on,1,0,0,,7,,,55,127
67461,note_off,124,0,0,,7,,,55,127
67461,note_off,0,0,0,,0,,,72,127
67462,note_on,1,0,0,,2,,,74,127
67462,note_on,0,0,0,,5,,,53,127
67523,note_off,61,0,0,,2,,,74,127
67524,note_on,1,0,0,,4,,,76,127
67585,note_off,61,0,0,,4,,,76,127
67585,note_off,0,0,0,,5,,,53,127
67586,note_on,1,0,0,,2,,,74,127
67586,note_on,0,0,0,,11,,,46,127
67710,note_off,124,0,0,,11,,,46,127
67711,note_on,1,0,0,,11,,,58,127
67835,note_off,124,0,0,,11,,,58,127
67835,note_off,0,0,0,,2,,,74,127
67836,note_on,1,0,0,,0,,,72,127
67836,note_on,0,0,0,,10,,,45,127
67960,note_off,124,0,0,,10,,,45,127
67961,note_on,1,0,0,,10,,,57,127
68085,note_off,124,0,0,,10,,,57,127
68086,note_on,1,0,0,,7,,,55,127
68210,note_off,124,0,0,,0,,,72,127
68211,note_on,1,0,0,,11,,,70,127
68335,note_off,124,0,0,,11,,,70,127
68335,note_off,0,0,0,,7,,,55,127
68336,note_on,1,0,0,,10,,,69,127
68336,note_on,0,0,0,,5,,,53,127
68460,note_off,124,0,0,,10,,,69,127
68461,note_on,1,0,0,,7,,,67,127
68585,note_off,124,0,0,,7,,,67,127
68585,note_off,0,0,0,,5,,,53,127
68586,note_on,1,0,0,,10,,,69,127
68586,note_on,0,0,0,,0,,,48,127
68710,note_off,124,0,0,,10,,,69,127
68711,note_on,1,0,0,,5,,,65,127
68835,note_off,124,0,0,,5,,,65,127
68836,note_on,1,0,0,,7,,,67,127
68960,note_off,124,0,0,,7,,,67,127
68961,note_on,1,0,0,,4,,,64,127
69085,note_off,124,0,0,,4,,,64,127
69085,note_off,0,0,0,,0,,,48,127
69086,note_on,1,0,0,,5,,,65,127
69086,note_on,0,0,0,,5,,,41,127
69210,note_off,124,0,0,,5,,,41,127
69211,note_on,1,0,0,,10,,,57,127
69335,note_off,124,0,0,,10,,,57,127
69336,note_on,1,0,0,,7,,,55,127
69460,note_off,124,0,0,,7,,,55,127
69460,note_off,0,0,0,,5,,,65,127
69461,note_on,1,0,0,,0,,,72,127
69461,note_on,0,0,0,,5,,,53,127
69585,note_off,124,0,0,,5,,,53,127
69585,note_off,0,0,0,,0,,,72,127
69586,note_on,1,0,0,,2,,,74,127
69586,note_on,0,0,0,,11,,,46,127
69710,note_off,124,0,0,,11,,,46,127
69711,note_on,1,0,0,,11,,,58,127
69835,note_off,124,0,0,,11,,,58,127
69835,note_off,0,0,0,,2,,,74,127
69836,note_on,1,0,0,,0,,,72,127
69836,note_on,0,0,0,,10,,,45,127
69960,note_off,124,0,0,,10,,,45,127
69961,note_on,1,0,0,,10,,,57,127
70085,note_off,124,0,0,,10,,,57,127
70085,note_off,0,0,0,,0,,,72,127
70086,note_on,1,0,0,,0,,,72,127
70086,note_on,0,0,0,,7,,,43,127
70147,note_off,61,0,0,,0,,,72,127
70148,note_on,1,0,0,,11,,,70,127
70209,note_off,61,0,0,,11,,,70,127
70209,note_off,0,0,0,,7,,,43,127
70210,note_on,1,0,0,,0,,,72,127
70210,note_on,0,0,0,,7,,,55,127
70271,note_off,61,0,0,,0,,,72,127
70272,note_on,1,0,0,,11,,,70,127
70333,note_off,61,0,0,,11,,,70,127
70333,note_off,0,0,0,,7,,,55,127
70334,note_on,1,0,0,,0,,,72,127
70334,note_on,0,0,0,,5,,,53,127
70395,note_off,61,0,0,,0,,,72,127
70396,note_on,1,0,0,,11,,,70,127
70457,note_off,61,0,0,,11,,,70,127
70457,note_off,0,0,0,,5,,,53,127
70458,note_on,1,0,0,,10,,,69,127
70458,note_on,0,0,0,,4,,,52,127
70519,note_off,61,0,0,,10,,,69,127
70520,note_on,1,0,0,,7,,,67,127
70581,note_off,61,0,0,,7,,,67,127
70581,note_off,0,0,0,,4,,,52,127
70582,note_on,1,0,0,,0,,,72,127
70582,note_on,0,0,0,,10,,,45,127
70706,note_off,124,0,0,,10,,,45,127
70707,note_on,1,0,0,,10,,,57,127
70831,note_off,124,0,0,,10,,,57,127
70831,note_off,0,0,0,,0,,,72,127
70832,note_on,1,0,0,,11,,,70,127
70832,note_on,0,0,0,,7,,,43,127
70956,note_off,124,0,0,,7,,,43,127
70957,note_on,1,0,0,,7,,,55,127
71081,note_off,124,0,0,,7,,,55,127
71081,note_off,0,0,0,,11,,,70,127
71082,note_on,1,0,0,,11,,,70,127
71082,note_on,0,0,0,,5,,,41,127
71143,note_off,61,0,0,,11,,,70,127
71144,note_on,1,0,0,,10,,,69,127
71205,note_off,61,0,0,,10,,,69,127
71205,note_off,0,0,0,,5,,,41,127
71206,note_on,1,0,0,,11,,,70,127
71206,note_on,0,0,0,,5,,,53,127
71267,note_off,61,0,0,,11,,,70,127
71268,note_on,1,0,0,,10,,,69,127
71329,note_off,61,0,0,,10,,,69,127
71329,note_off,0,0,0,,5,,,53,127
71330,note_on,1,0,0,,11,,,70,127
71330,note_on,0,0,0,,4,,,52,127
71391,note_off,61,0,0,,11,,,70,127
71392,note_on,1,0,0,,10,,,69,127
71453,note_off,61,0,0,,10,,,69,127
71453,note_off,0,0,0,,4,,,52,127
71454,note_on,1,0,0,,7,,,67,127
71454,note_on,0,0,0,,2,,,50,127
71515,note_off,61,0,0,,7,,,67,127
71516,note_on,1,0,0,,5,,,65,127
71577,note_off,61,0,0,,5,,,65,127
71577,note_off,0,0,0,,2,,,50,127
71578,note_on,1,0,0,,11,,,70,127
71578,note_on,0,0,0,,7,,,43,127
71702,note_off,124,0,0,,7,,,43,127
71703,note_on,1,0,0,,7,,,55,127
71827,note_off,124,0,0,,7,,,55,127
71827,note_off,0,0,0,,11,,,70,127
71828,note_on,1,0,0,,10,,,69,127
71828,note_on,0,0,0,,5,,,41,127
71952,note_off,124,0,0,,5,,,41,127
71953,note_on,1,0,0,,5,,,53,127
72077,note_off,124,0,0,,5,,,53,127
72078,note_on,1,0,0,,11,,,46,127
72202,note_off,124,0,0,,10,,,69,127
72203,note_on,1,0,0,,7,,,67,127
72327,note_off,124,0,0,,7,,,67,127
72328,note_on,1,0,0,,10,,,69,127
72452,note_off,124,0,0,,10,,,69,127
72453,note_on,1,0,0,,11,,,70,127
72577,note_off,124,0,0,,11,,,70,127
72577,note_off,0,0,0,,11,,,46,127
72578,note_on,1,0,0,,10,,,69,127
72578,note_on,0,0,0,,0,,,48,127
72702,note_off,124,0,0,,10,,,69,127
72703,note_on,1,0,0,,5,,,65,127
72827,note_off,124,0,0,,5,,,65,127
72828,note_on,1,0,0,,7,,,67,127
72952,note_off,124,0,0,,7,,,67,127
72953,note_on,1,0,0,,4,,,64,127
73077,note_off,124,0,0,,4,,,64,127
73077,note_off,0,0,0,,0,,,48,127
73078,note_on,1,0,0,,5,,,65,127
73078,note_on,0,0,0,,5,,,41,127
73202,note_off,124,0,0,,5,,,41,127
73203,note_on,1,0,0,,10,,,57,127
73327,note_off,124,0,0,,10,,,57,127
73328,note_on,1,0,0,,7,,,55,127
73452,note_off,124,0,0,,7,,,55,127
73452,note_off,0,0,0,,5,,,65,127
73453,note_on,1,0,0,,5,,,77,127
73453,note_on,0,0,0,,5,,,53,127
73577,note_off,124,0,0,,5,,,53,127
73577,note_off,0,0,0,,5,,,77,127
73578,note_on,1,0,0,,2,,,74,127
73578,note_on,0,0,0,,11,,,46,127
73702,note_off,124,0,0,,11,,,46,127
73702,note_off,0,0,0,,2,,,74,127
73703,note_on,1,0,0,,5,,,77,127
73703,note_on,0,0,0,,11,,,58,127
73827,note_off,124,0,0,,11,,,58,127
73827,note_off,0,0,0,,5,,,77,127
73828,note_on,1,0,0,,0,,,72,127
73828,note_on,0,0,0,,10,,,45,127
73952,note_off,124,0,0,,10,,,45,127
73952,note_off,0,0,0,,0,,,72,127
73953,note_on,1,0,0,,5,,,77,127
73953,note_on,0,0,0,,10,,,57,127
74077,note_off,124,0,0,,10,,,57,127
74077,note_off,0,0,0,,5,,,77,127
74078,note_on,1,0,0,,11,,,70,127
74078,note_on,0,0,0,,7,,,43,127
74202,note_off,124,0,0,,7,,,43,127
74203,note_on,1,0,0,,7,,,55,127
74327,note_off,124,0,0,,7,,,55,127
74328,note_on,1,0,0,,5,,,53,127
74452,note_off,124,0,0,,5,,,53,127
74452,note_off,0,0,0,,11,,,70,127
74453,note_on,1,0,0,,5,,,77,127
74453,note_on,0,0,0,,4,,,52,127
74577,note_off,124,0,0,,4,,,52,127
74577,note_off,0,0,0,,5,,,77,127
74578,note_on,1,0,0,,0,,,72,127
74578,note_on,0,0,0,,10,,,45,127
74702,note_off,124,0,0,,10,,,45,127
74702,note_off,0,0,0,,0,,,72,127
74703,note_on,1,0,0,,5,,,77,127
74703,note_on,0,0,0,,10,,,57,127
74827,note_off,124,0,0,,10,,,57,127
74827,note_off,0,0,0,,5,,,77,127
74828,note_on,1,0,0,,11,,,70,127
74828,note_on,0,0,0,,7,,,43,127
74952,note_off,124,0,0,,7,,,43,127
74952,note_off,0,0,0,,11,,,70,127
74953,note_on,1,0,0,,5,,,77,127
74953,note_on,0,0,0,,7,,,55,127
75077,note_off,124,0,0,,7,,,55,127
75077,note_off,0,0,0,,5,,,77,127
75078,note_on,1,0,0,,10,,,69,127
75078,note_on,0,0,0,,5,,,41,127
75202,note_off,124,0,0,,5,,,41,127
75203,note_on,1,0,0,,5,,,53,127
75327,note_off,124,0,0,,5,,,53,127
75328,note_on,1,0,0,,4,,,52,127
75452,note_off,124,0,0,,4,,,52,127
75452,note_off,0,0,0,,10,,,69,127
75453,note_on,1,0,0,,5,,,77,127
75453,note_on,0,0,0,,2,,,50,127
75577,note_off,124,0,0,,2,,,50,127
75577,note_off,0,0,0,,5,,,77,127
75578,note_on,1,0,0,,11,,,70,127
75578,note_on,0,0,0,,7,,,43,127
75702,note_off,124,0,0,,7,,,43,127
75703,note_on,1,0,0,,7,,,55,127
75827,note_off,124,0,0,,7,,,55,127
75827,note_off,0,0,0,,11,,,70,127
75828,note_on,1,0,0,,10,,,69,127
75828,note_on,0,0,0,,5,,,41,127
75952,note_off,124,0,0,,5,,,41,127
75953,note_on,1,0,0,,5,,,53,127
76077,note_off,124,0,0,,5,,,53,127
76078,note_on,1,0,0,,0,,,36,127
76202,note_off,124,0,0,,10,,,69,127
76203,note_on,1,0,0,,7,,,67,127
76327,note_off,124,0,0,,7,,,67,127
76328,note_on,1,0,0,,10,,,69,127
76452,note_off,124,0,0,,10,,,69,127
76453,note_on,1,0,0,,11,,,70,127
76577,note_off,124,0,0,,11,,,70,127
76578,note_on,1,0,0,,10,,,69,127
76578,note_on,0,0,0,,0,,,48,127
76702,note_off,124,0,0,,10,,,69,127
76703,note_on,1,0,0,,7,,,67,127
76827,note_off,124,0,0,,7,,,67,127
76828,note_off,1,0,0,,0,,,36,127
76828,note_on,0,0,0,,5,,,65,127
76952,note_off,124,0,0,,5,,,65,127
76953,note_on,1,0,0,,4,,,64,127
77077,note_off,124,0,0,,4,,,64,127
77077,note_off,0,0,0,,0,,,48,127
77078,note_on,1,0,0,,5,,,65,127
77078,note_on,0,0,0,,5,,,53,127
77202,note_off,124,0,0,,5,,,65,127
77203,note_on,1,0,0,,0,,,72,127
77327,note_off,124,0,0,,0,,,72,127
77327,note_off,0,0,0,,5,,,53,127
77328,note_on,1,0,0,,11,,,70,127
77328,note_on,0,0,0,,10,,,57,127
77452,note_off,124,0,0,,11,,,70,127
77453,note_on,1,0,0,,0,,,72,127
77577,note_off,124,0,0,,0,,,72,127
77577,note_off,0,0,0,,10,,,57,127
77578,note_on,1,0,0,,2,,,74,127
77578,note_on,0,0,0,,11,,,58,127
77702,note_off,124,0,0,,2,,,74,127
77703,note_on,1,0,0,,11,,,70,127
77827,note_off,124,0,0,,11,,,70,127
77827,note_off,0,0,0,,11,,,58,127
77828,note_on,1,0,0,,4,,,76,127
77828,note_on,0,0,0,,7,,,55,127
77952,note_off,124,0,0,,4,,,76,127
77953,note_on,1,0,0,,0,,,72,127
78077,note_off,124,0,0,,0,,,72,127
78077,note_off,0,0,0,,7,,,55,127
78078,note_on,1,0,0,,5,,,77,127
78078,note_on,0,0,0,,10,,,57,127
78202,note_off,124,0,0,,5,,,77,127
78203,note_on,1,0,0,,7,,,79,127
78327,note_off,124,0,0,,7,,,79,127
78327,note_off,0,0,0,,10,,,57,127
78328,note_on,1,0,0,,10,,,81,127
78328,note_on,0,0,0,,11,,,58,127
78452,note_off,124,0,0,,10,,,81,127
78453,note_on,1,0,0,,11,,,82,127
78577,note_off,124,0,0,,11,,,82,127
78577,note_off,0,0,0,,11,,,58,127
78578,note_on,1,0,0,,10,,,81,127
78578,note_on,0,0,0,,0,,,60,127
78702,note_off,124,0,0,,10,,,81,127
78703,note_on,1,0,0,,7,,,79,127
78827,note_off,124,0,0,,7,,,79,127
78828,note_on,1,0,0,,5,,,77,127
78828,note_on,0,0,0,,0,,,48,127
78952,note_off,124,0,0,,5,,,77,127
78953,note_on,1,0,0,,4,,,76,127
79074,note_off,121,0,0,,0,,,60,127
79077,note_off,3,0,0,,4,,,76,127
79077,note_off,0,0,0,,0,,,48,127
79078,note_on,1,0,0,,5,,,77,127
79078,note_on,0,0,0,,5,,,53,127
79202,note_off,124,0,0,,5,,,77,127
79203,note_on,1,0,0,,0,,,72,127
79327,note_off,124,0,0,,0,,,72,127
79327,note_off,0,0,0,,5,,,53,127
79328,note_on,1,0,0,,11,,,70,127
79328,note_on,0,0,0,,10,,,45,127
79452,note_off,124,0,0,,11,,,70,127
79453,note_on,1,0,0,,0,,,72,127
79577,note_off,124,0,0,,0,,,72,127
79577,note_off,0,0,0,,10,,,45,127
79578,note_on,1,0,0,,2,,,74,127
79578,note_on,0,0,0,,11,,,46,127
79702,note_off,124,0,0,,2,,,74,127
79703,note_on,1,0,0,,11,,,70,127
79827,note_off,124,0,0,,11,,,70,127
79827,note_off,0,0,0,,11,,,46,127
79828,note_on,1,0,0,,4,,,76,127
79828,note_on,0,0,0,,7,,,43,127
79952,note_off,124,0,0,,4,,,76,127
79953,note_on,1,0,0,,0,,,72,127
80077,note_off,124,0,0,,0,,,72,127
80077,note_off,0,0,0,,7,,,43,127
80078,note_on,1,0,0,,5,,,77,127
80078,note_on,0,0,0,,10,,,45,127
80203,note_on,125,0,0,,5,,,65,127
80327,note_off,124,0,0,,5,,,65,127
80327,note_off,0,0,0,,10,,,45,127
80327,note_off,0,0,0,,5,,,77,127
80328,note_on,1,0,0,,11,,,70,127
80328,note_on,0,0,0,,11,,,46,127
80452,note_off,124,0,0,,11,,,70,127
80453,note_on,1,0,0,,7,,,67,127
80577,note_off,124,0,0,,7,,,67,127
80577,note_off,0,0,0,,11,,,46,127
80578,note_on,1,0,0,,10,,,69,127
80578,note_on,0,0,0,,5,,,65,127
80578,note_on,0,0,0,,0,,,48,127
80827,note_off,249,0,0,,5,,,65,127
80827,note_off,0,0,0,,10,,,69,127
80852,note_on,25,0,0,,7,,,67,127
80852,note_on,0,0,0,,4,,,64,127
80852,note_on,0,0,0,,0,,,36,127
81075,note_off,223,0,0,,0,,,48,127
81127,note_off,52,0,0,,0,,,36,127
81127,note_off,0,0,0,,4,,,64,127
81127,note_off,0,0,0,,7,,,67,127
81149,note_on,22,0,0,,5,,,65,127
81149,note_on,0,0,0,,5,,,41,127
81149,note_on,0,0,0,,5,,,53,127
83096,note_off,1947,0,0,,5,,,53,127
83096,note_off,0,0,0,,5,,,41,127
83096,note_off,0,0,0,,5,,,65,127
89088,end_of_track,5992,1,0,,,,,,
