tick,type,time,meta,track,program,channel,pitch,tempo,note,velocity
0,copyright,0,1,0,,,,,,
0,program_change,0,0,0,6,0,,,,
0,pitchwheel,0,0,0,,0,0,,,
0,program_change,0,0,0,6,1,,,,
0,pitchwheel,0,0,0,,1,-590,,,
0,program_change,0,0,0,6,2,,,,
0,pitchwheel,0,0,0,,2,-272,,,
0,program_change,0,0,0,6,3,,,,
0,pitchwheel,0,0,0,,3,-353,,,
0,program_change,0,0,0,6,4,,,,
0,pitchwheel,0,0,0,,4,-560,,,
0,program_change,0,0,0,6,5,,,,
0,pitchwheel,0,0,0,,5,-80,,,
0,program_change,0,0,0,6,6,,,,
0,pitchwheel,0,0,0,,6,-625,,,
0,program_change,0,0,0,6,7,,,,
0,pitchwheel,0,0,0,,7,-130,,,
0,program_change,0,0,0,6,8,,,,
0,pitchwheel,0,0,0,,8,-512,,,
0,program_change,0,0,0,6,10,,,,
0,pitchwheel,0,0,0,,10,-464,,,
0,program_change,0,0,0,6,11,,,,
0,pitchwheel,0,0,0,,11,-208,,,
0,program_change,0,0,0,6,12,,,,
0,pitchwheel,0,0,0,,12,-553,,,
0,set_tempo,0,1,0,,,,500000,,
110,note_on,110,0,0,,2,,,74,127
110,note_on,0,0,0,,2,,,38,127
327,note_off,217,0,0,,2,,,74,127
329,note_on,2,0,0,,10,,,69,127
546,note_off,217,0,0,,10,,,69,127
548,note_on,2,0,0,,6,,,66,127
765,note_off,217,0,0,,6,,,66,127
767,note_on,2,0,0,,2,,,62,127
984,note_off,217,0,0,,2,,,62,127
984,note_off,0,0,0,,2,,,38,127
986,note_on,2,0,0,,7,,,79,127
986,note_on,0,0,0,,2,,,62,127
1093,note_off,107,0,0,,7,,,79,127
1095,note_on,2,0,0,,6,,,78,127
1202,note_off,107,0,0,,6,,,78,127
1204,note_on,2,0,0,,4,,,76,127
1311,note_off,107,0,0,,4,,,76,127
1313,note_on,2,0,0,,2,,,74,127
1420,note_off,107,0,0,,2,,,74,127
1422,note_on,2,0,0,,4,,,64,127
1639,note_off,217,0,0,,2,,,62,127
1641,note_on,2,0,0,,2,,,62,127
1858,note_off,217,0,0,,2,,,62,127
1860,note_on,2,0,0,,2,,,62,127
1967,note_off,107,0,0,,2,,,62,127
1969,note_on,2,0,0,,1,,,61,127
2076,note_off,107,0,0,,1,,,61,127
2078,note_on,2,0,0,,12,,,59,127
2295,note_off,217,0,0,,12,,,59,127
2297,note_on,2,0,0,,1,,,61,127
2514,note_off,217,0,0,,1,,,61,127
2516,note_on,2,0,0,,2,,,62,127
2733,note_off,217,0,0,,2,,,62,127
2733,note_off,0,0,0,,4,,,64,127
2735,note_on,2,0,0,,4,,,76,127
2735,note_on,0,0,0,,4,,,52,127
2952,note_off,217,0,0,,4,,,76,127
2954,note_on,2,0,0,,1,,,73,127
3171,note_off,217,0,0,,1,,,73,127
3173,note_on,2,0,0,,7,,,67,127
3390,note_off,217,0,0,,7,,,67,127
3392,note_on,2,0,0,,4,,,64,127
3609,note_off,217,0,0,,4,,,64,127
3609,note_off,0,0,0,,4,,,52,127
3611,note_on,2,0,0,,10,,,81,127
3611,note_on,0,0,0,,4,,,64,127
3718,note_off,107,0,0,,10,,,81,127
3720,note_on,2,0,0,,7,,,79,127
3827,note_off,107,0,0,,7,,,79,127
3829,note_on,2,0,0,,6,,,78,127
3936,note_off,107,0,0,,6,,,78,127
3938,note_on,2,0,0,,4,,,76,127
4045,note_off,107,0,0,,4,,,76,127
4047,note_on,2,0,0,,6,,,66,127
4264,note_off,217,0,0,,4,,,64,127
4266,note_on,2,0,0,,4,,,64,127
4483,note_off,217,0,0,,4,,,64,127
4485,note_on,2,0,0,,4,,,64,127
4592,note_off,107,0,0,,4,,,64,127
4594,note_on,2,0,0,,2,,,62,127
4701,note_off,107,0,0,,2,,,62,127
4703,note_on,2,0,0,,1,,,61,127
4920,note_off,217,0,0,,1,,,61,127
4922,note_on,2,0,0,,2,,,62,127
5139,note_off,217,0,0,,2,,,62,127
5141,note_on,2,0,0,,4,,,64,127
5358,note_off,217,0,0,,4,,,64,127
5358,note_off,0,0,0,,6,,,66,127
5360,note_on,2,0,0,,6,,,78,127
5360,note_on,0,0,0,,6,,,54,127
5577,note_off,217,0,0,,6,,,78,127
5579,note_on,2,0,0,,2,,,74,127
5796,note_off,217,0,0,,2,,,74,127
5798,note_on,2,0,0,,10,,,69,127
6015,note_off,217,0,0,,10,,,69,127
6017,note_on,2,0,0,,6,,,66,127
6234,note_off,217,0,0,,6,,,66,127
6234,note_off,0,0,0,,6,,,54,127
6236,note_on,2,0,0,,12,,,83,127
6236,note_on,0,0,0,,6,,,66,127
6343,note_off,107,0,0,,12,,,83,127
6345,note_on,2,0,0,,10,,,81,127
6452,note_off,107,0,0,,10,,,81,127
6454,note_on,2,0,0,,7,,,79,127
6561,note_off,107,0,0,,7,,,79,127
6563,note_on,2,0,0,,6,,,78,127
6670,note_off,107,0,0,,6,,,78,127
6672,note_on,2,0,0,,7,,,67,127
6889,note_off,217,0,0,,6,,,66,127
6891,note_on,2,0,0,,6,,,66,127
7108,note_off,217,0,0,,6,,,66,127
7110,note_on,2,0,0,,6,,,66,127
7217,note_off,107,0,0,,6,,,66,127
7219,note_on,2,0,0,,4,,,64,127
7326,note_off,107,0,0,,4,,,64,127
7328,note_on,2,0,0,,3,,,63,127
7545,note_off,217,0,0,,3,,,63,127
7547,note_on,2,0,0,,4,,,64,127
7764,note_off,217,0,0,,4,,,64,127
7766,note_on,2,0,0,,6,,,66,127
7983,note_off,217,0,0,,6,,,66,127
7983,note_off,0,0,0,,7,,,67,127
7985,note_on,2,0,0,,7,,,79,127
7985,note_on,0,0,0,,7,,,55,127
8202,note_off,217,0,0,,7,,,79,127
8204,note_on,2,0,0,,2,,,74,127
8421,note_off,217,0,0,,2,,,74,127
8423,note_on,2,0,0,,12,,,71,127
8640,note_off,217,0,0,,12,,,71,127
8642,note_on,2,0,0,,7,,,67,127
8859,note_off,217,0,0,,7,,,67,127
8859,note_off,0,0,0,,7,,,55,127
8861,note_on,2,0,0,,1,,,85,127
8861,note_on,0,0,0,,7,,,67,127
8968,note_off,107,0,0,,1,,,85,127
8970,note_on,2,0,0,,12,,,83,127
9077,note_off,107,0,0,,12,,,83,127
9079,note_on,2,0,0,,10,,,81,127
9186,note_off,107,0,0,,10,,,81,127
9188,note_on,2,0,0,,7,,,79,127
9295,note_off,107,0,0,,7,,,79,127
9297,note_on,2,0,0,,10,,,81,127
9514,note_off,217,0,0,,10,,,81,127
9514,note_off,0,0,0,,7,,,67,127
9516,note_on,2,0,0,,1,,,73,127
9516,note_on,0,0,0,,6,,,66,127
9623,note_off,107,0,0,,6,,,66,127
9625,note_on,2,0,0,,4,,,64,127
9732,note_off,107,0,0,,4,,,64,127
9732,note_off,0,0,0,,1,,,73,127
9734,note_on,2,0,0,,2,,,74,127
9734,note_on,0,0,0,,6,,,66,127
9951,note_off,217,0,0,,6,,,66,127
9951,note_off,0,0,0,,2,,,74,127
9953,note_on,2,0,0,,4,,,76,127
9953,note_on,0,0,0,,4,,,64,127
10060,note_off,107,0,0,,4,,,64,127
10060,note_off,0,0,0,,4,,,76,127
10062,note_on,2,0,0,,6,,,78,127
10062,note_on,0,0,0,,2,,,62,127
10169,note_off,107,0,0,,2,,,62,127
10169,note_off,0,0,0,,6,,,78,127
10171,note_on,2,0,0,,10,,,81,127
10171,note_on,0,0,0,,4,,,64,127
10278,note_off,107,0,0,,10,,,81,127
10280,note_on,2,0,0,,7,,,79,127
10387,note_off,107,0,0,,7,,,79,127
10387,note_off,0,0,0,,4,,,64,127
10389,note_on,2,0,0,,6,,,78,127
10389,note_on,0,0,0,,2,,,62,127
10496,note_off,107,0,0,,2,,,62,127
10496,note_off,0,0,0,,6,,,78,127
10498,note_on,2,0,0,,4,,,76,127
10498,note_on,0,0,0,,1,,,61,127
10605,note_off,107,0,0,,1,,,61,127
10605,note_off,0,0,0,,4,,,76,127
10607,note_on,2,0,0,,6,,,78,127
10607,note_on,0,0,0,,2,,,62,127
10824,note_off,217,0,0,,2,,,62,127
10826,note_on,2,0,0,,10,,,57,127
10936,note_off,110,0,0,,6,,,78,127
11043,note_off,107,0,0,,10,,,57,127
11045,note_on,2,0,0,,10,,,69,127
11045,note_on,0,0,0,,6,,,54,127
11262,note_off,217,0,0,,6,,,54,127
11264,note_on,2,0,0,,2,,,50,127
11481,note_off,217,0,0,,2,,,50,127
11481,note_off,0,0,0,,10,,,69,127
11483,note_on,2,0,0,,2,,,74,127
11483,note_on,0,0,0,,4,,,64,127
11590,note_off,107,0,0,,4,,,64,127
11592,note_on,2,0,0,,2,,,62,127
11699,note_off,107,0,0,,2,,,62,127
11701,note_on,2,0,0,,1,,,61,127
11808,note_off,107,0,0,,1,,,61,127
11810,note_on,2,0,0,,12,,,59,127
11917,note_off,107,0,0,,12,,,59,127
11919,note_on,2,0,0,,4,,,40,127
12136,note_off,217,0,0,,2,,,74,127
12138,note_on,2,0,0,,4,,,76,127
12353,note_off,215,0,0,,4,,,40,127
12355,note_off,2,0,0,,4,,,76,127
12357,note_on,2,0,0,,1,,,73,127
12357,note_on,0,0,0,,7,,,67,127
12574,note_off,217,0,0,,1,,,73,127
12576,note_on,2,0,0,,2,,,74,127
12793,note_off,217,0,0,,2,,,74,127
12795,note_on,2,0,0,,4,,,76,127
13012,note_off,217,0,0,,4,,,76,127
13014,note_on,2,0,0,,6,,,78,127
13231,note_off,217,0,0,,6,,,78,127
13232,note_off,1,0,0,,7,,,67,127
13233,note_on,1,0,0,,7,,,79,127
13233,note_on,0,0,0,,4,,,64,127
13450,note_off,217,0,0,,4,,,64,127
13450,note_off,0,0,0,,7,,,79,127
13452,note_on,2,0,0,,4,,,76,127
13452,note_on,0,0,0,,1,,,61,127
13669,note_off,217,0,0,,1,,,61,127
13669,note_off,0,0,0,,4,,,76,127
13671,note_on,2,0,0,,1,,,73,127
13671,note_on,0,0,0,,7,,,55,127
13888,note_off,217,0,0,,7,,,55,127
13888,note_off,0,0,0,,1,,,73,127
13890,note_on,2,0,0,,2,,,74,127
13890,note_on,0,0,0,,4,,,52,127
14107,note_off,217,0,0,,4,,,52,127
14107,note_off,0,0,0,,2,,,74,127
14109,note_on,2,0,0,,4,,,76,127
14109,note_on,0,0,0,,10,,,69,127
14216,note_off,107,0,0,,10,,,69,127
14218,note_on,2,0,0,,7,,,67,127
14325,note_off,107,0,0,,7,,,67,127
14327,note_on,2,0,0,,6,,,66,127
14434,note_off,107,0,0,,6,,,66,127
14436,note_on,2,0,0,,4,,,64,127
14543,note_off,107,0,0,,4,,,64,127
14545,note_on,2,0,0,,6,,,42,127
14655,note_off,110,0,0,,4,,,76,127
14765,note_on,110,0,0,,6,,,78,127
14980,note_off,215,0,0,,6,,,42,127
14982,note_off,2,0,0,,6,,,78,127
14984,note_on,2,0,0,,10,,,69,127
14984,note_on,0,0,0,,2,,,74,127
15201,note_off,217,0,0,,2,,,74,127
15203,note_on,2,0,0,,4,,,76,127
15420,note_off,217,0,0,,4,,,76,127
15422,note_on,2,0,0,,6,,,78,127
15639,note_off,217,0,0,,6,,,78,127
15641,note_on,2,0,0,,7,,,79,127
15858,note_off,217,0,0,,7,,,79,127
15859,note_off,1,0,0,,10,,,69,127
15860,note_on,1,0,0,,10,,,81,127
15860,note_on,0,0,0,,6,,,66,127
16077,note_off,217,0,0,,6,,,66,127
16077,note_off,0,0,0,,10,,,81,127
16079,note_on,2,0,0,,6,,,78,127
16079,note_on,0,0,0,,2,,,62,127
16296,note_off,217,0,0,,2,,,62,127
16296,note_off,0,0,0,,6,,,78,127
16298,note_on,2,0,0,,2,,,74,127
16298,note_on,0,0,0,,10,,,57,127
16515,note_off,217,0,0,,10,,,57,127
16515,note_off,0,0,0,,2,,,74,127
16517,note_on,2,0,0,,4,,,76,127
16517,note_on,0,0,0,,6,,,54,127
16734,note_off,217,0,0,,6,,,54,127
16734,note_off,0,0,0,,4,,,76,127
16736,note_on,2,0,0,,6,,,78,127
16736,note_on,0,0,0,,12,,,71,127
16843,note_off,107,0,0,,12,,,71,127
16845,note_on,2,0,0,,10,,,69,127
16952,note_off,107,0,0,,10,,,69,127
16954,note_on,2,0,0,,7,,,67,127
17061,note_off,107,0,0,,7,,,67,127
17063,note_on,2,0,0,,6,,,66,127
17170,note_off,107,0,0,,6,,,66,127
17172,note_on,2,0,0,,7,,,43,127
17282,note_off,110,0,0,,6,,,78,127
17392,note_on,110,0,0,,7,,,79,127
17607,note_off,215,0,0,,7,,,43,127
17609,note_off,2,0,0,,7,,,79,127
17611,note_on,2,0,0,,4,,,76,127
17611,note_on,0,0,0,,12,,,71,127
17828,note_off,217,0,0,,4,,,76,127
17830,note_on,2,0,0,,6,,,78,127
18047,note_off,217,0,0,,6,,,78,127
18049,note_on,2,0,0,,7,,,79,127
18266,note_off,217,0,0,,7,,,79,127
18268,note_on,2,0,0,,10,,,81,127
18485,note_off,217,0,0,,10,,,81,127
18486,note_off,1,0,0,,12,,,71,127
18487,note_on,1,0,0,,12,,,83,127
18487,note_on,0,0,0,,7,,,67,127
18704,note_off,217,0,0,,7,,,67,127
18704,note_off,0,0,0,,12,,,83,127
18706,note_on,2,0,0,,7,,,79,127
18706,note_on,0,0,0,,2,,,62,127
18923,note_off,217,0,0,,2,,,62,127
18925,note_on,2,0,0,,12,,,59,127
19142,note_off,217,0,0,,12,,,59,127
19142,note_off,0,0,0,,7,,,79,127
19144,note_on,2,0,0,,6,,,78,127
19144,note_on,0,0,0,,7,,,55,127
19361,note_off,217,0,0,,7,,,55,127
19361,note_off,0,0,0,,6,,,78,127
19363,note_on,2,0,0,,4,,,76,127
19363,note_on,0,0,0,,12,,,71,127
19470,note_off,107,0,0,,12,,,71,127
19472,note_on,2,0,0,,10,,,69,127
19579,note_off,107,0,0,,10,,,69,127
19579,note_off,0,0,0,,4,,,76,127
19581,note_on,2,0,0,,2,,,74,127
19581,note_on,0,0,0,,7,,,67,127
19688,note_off,107,0,0,,7,,,67,127
19690,note_on,2,0,0,,6,,,66,127
19797,note_off,107,0,0,,6,,,66,127
19797,note_off,0,0,0,,2,,,74,127
19799,note_on,2,0,0,,2,,,74,127
19799,note_on,0,0,0,,10,,,45,127
20016,note_off,217,0,0,,2,,,74,127
20018,note_on,2,0,0,,1,,,73,127
20235,note_off,217,0,0,,1,,,73,127
20237,note_on,2,0,0,,10,,,81,127
20454,note_off,217,0,0,,10,,,45,127
20456,note_on,2,0,0,,7,,,67,127
20673,note_off,217,0,0,,7,,,67,127
20675,note_on,2,0,0,,6,,,66,127
20892,note_off,217,0,0,,6,,,66,127
20892,note_off,0,0,0,,10,,,81,127
20894,note_on,2,0,0,,7,,,79,127
20894,note_on,0,0,0,,4,,,64,127
21111,note_off,217,0,0,,4,,,64,127
21111,note_off,0,0,0,,7,,,79,127
21113,note_on,2,0,0,,6,,,78,127
21113,note_on,0,0,0,,2,,,62,127
21330,note_off,217,0,0,,2,,,62,127
21330,note_off,0,0,0,,6,,,78,127
21332,note_on,2,0,0,,4,,,76,127
21332,note_on,0,0,0,,4,,,64,127
21549,note_off,217,0,0,,4,,,64,127
21549,note_off,0,0,0,,4,,,76,127
21551,note_on,2,0,0,,2,,,74,127
21551,note_on,0,0,0,,6,,,66,127
21768,note_off,217,0,0,,6,,,66,127
21768,note_off,0,0,0,,2,,,74,127
21770,note_on,2,0,0,,1,,,73,127
21770,note_on,0,0,0,,2,,,62,127
21987,note_off,217,0,0,,2,,,62,127
21987,note_off,0,0,0,,1,,,73,127
21989,note_on,2,0,0,,12,,,71,127
21989,note_on,0,0,0,,7,,,67,127
22206,note_off,217,0,0,,7,,,67,127
22208,note_on,2,0,0,,6,,,66,127
22315,note_off,107,0,0,,6,,,66,127
22317,note_on,2,0,0,,4,,,64,127
22424,note_off,107,0,0,,4,,,64,127
22424,note_off,0,0,0,,12,,,71,127
22426,note_on,2,0,0,,10,,,69,127
22426,note_on,0,0,0,,6,,,66,127
22645,note_on,219,0,0,,2,,,74,127
22860,note_off,215,0,0,,10,,,69,127
22862,note_off,2,0,0,,2,,,74,127
22862,note_off,0,0,0,,6,,,66,127
22864,note_on,2,0,0,,10,,,69,127
22864,note_on,0,0,0,,4,,,64,127
22971,note_off,107,0,0,,10,,,69,127
22973,note_on,2,0,0,,7,,,67,127
23080,note_off,107,0,0,,7,,,67,127
23082,note_on,2,0,0,,10,,,69,127
23189,note_off,107,0,0,,10,,,69,127
23191,note_on,2,0,0,,7,,,67,127
23298,note_off,107,0,0,,7,,,67,127
23298,note_off,0,0,0,,4,,,64,127
23300,note_on,2,0,0,,10,,,69,127
23300,note_on,0,0,0,,10,,,57,127
23407,note_off,107,0,0,,10,,,69,127
23409,note_on,2,0,0,,7,,,67,127
23516,note_off,107,0,0,,7,,,67,127
23518,note_on,2,0,0,,10,,,69,127
23625,note_off,107,0,0,,10,,,69,127
23627,note_on,2,0,0,,7,,,67,127
23734,note_off,107,0,0,,7,,,67,127
23734,note_off,0,0,0,,10,,,57,127
23736,note_on,2,0,0,,6,,,66,127
23736,note_on,0,0,0,,2,,,62,127
23953,note_off,217,0,0,,6,,,66,127
23955,note_on,2,0,0,,2,,,74,127
23955,note_on,0,0,0,,2,,,50,127
24170,note_off,215,0,0,,2,,,62,127
24172,note_off,2,0,0,,2,,,50,127
24172,note_off,0,0,0,,2,,,74,127
24174,note_on,2,0,0,,1,,,73,127
24174,note_on,0,0,0,,10,,,69,127
24174,note_on,0,0,0,,10,,,57,127
24281,note_off,107,0,0,,10,,,69,127
24283,note_on,2,0,0,,7,,,67,127
24390,note_off,107,0,0,,7,,,67,127
24392,note_on,2,0,0,,10,,,69,127
24392,note_on,0,0,0,,10,,,45,127
24499,note_off,107,0,0,,10,,,69,127
24501,note_on,2,0,0,,7,,,67,127
24606,note_off,105,0,0,,10,,,57,127
24606,note_off,0,0,0,,1,,,73,127
24608,note_off,2,0,0,,7,,,67,127
24608,note_off,0,0,0,,10,,,45,127
24610,note_on,2,0,0,,6,,,66,127
24610,note_on,0,0,0,,2,,,62,127
24829,note_on,219,0,0,,2,,,74,127
24829,note_on,0,0,0,,2,,,50,127
25044,note_off,215,0,0,,2,,,62,127
25044,note_off,0,0,0,,6,,,66,127
25046,note_off,2,0,0,,2,,,50,127
25046,note_off,0,0,0,,2,,,74,127
25048,note_on,2,0,0,,10,,,69,127
25048,note_on,0,0,0,,1,,,73,127
25048,note_on,0,0,0,,10,,,57,127
25155,note_off,107,0,0,,10,,,69,127
25157,note_on,2,0,0,,7,,,67,127
25264,note_off,107,0,0,,7,,,67,127
25266,note_on,2,0,0,,10,,,69,127
25266,note_on,0,0,0,,10,,,45,127
25373,note_off,107,0,0,,10,,,69,127
25375,note_on,2,0,0,,7,,,67,127
25480,note_off,105,0,0,,10,,,57,127
25480,note_off,0,0,0,,1,,,73,127
25482,note_off,2,0,0,,7,,,67,127
25482,note_off,0,0,0,,10,,,45,127
25484,note_on,2,0,0,,6,,,66,127
25484,note_on,0,0,0,,2,,,74,127
25484,note_on,0,0,0,,2,,,62,127
25701,note_off,217,0,0,,2,,,74,127
25701,note_off,0,0,0,,6,,,66,127
25703,note_on,2,0,0,,6,,,66,127
25703,note_on,0,0,0,,2,,,74,127
25703,note_on,0,0,0,,2,,,50,127
25918,note_off,215,0,0,,2,,,62,127
25920,note_off,2,0,0,,2,,,50,127
25920,note_off,0,0,0,,2,,,74,127
25920,note_off,0,0,0,,6,,,66,127
25922,note_on,2,0,0,,10,,,69,127
25922,note_on,0,0,0,,2,,,74,127
25922,note_on,0,0,0,,4,,,64,127
26029,note_off,107,0,0,,10,,,69,127
26031,note_on,2,0,0,,8,,,68,127
26138,note_off,107,0,0,,8,,,68,127
26140,note_on,2,0,0,,10,,,69,127
26140,note_on,0,0,0,,4,,,52,127
26247,note_off,107,0,0,,10,,,69,127
26249,note_on,2,0,0,,8,,,68,127
26354,note_off,105,0,0,,4,,,64,127
26354,note_off,0,0,0,,2,,,74,127
26356,note_off,2,0,0,,8,,,68,127
26356,note_off,0,0,0,,4,,,52,127
26358,note_on,2,0,0,,10,,,69,127
26358,note_on,0,0,0,,1,,,73,127
26358,note_on,0,0,0,,10,,,57,127
26575,note_off,217,0,0,,1,,,73,127
26577,note_on,2,0,0,,4,,,76,127
26577,note_on,0,0,0,,10,,,45,127
26792,note_off,215,0,0,,10,,,57,127
26792,note_off,0,0,0,,10,,,69,127
26794,note_off,2,0,0,,10,,,45,127
26794,note_off,0,0,0,,4,,,76,127
26796,note_on,2,0,0,,2,,,74,127
26796,note_on,0,0,0,,10,,,69,127
26796,note_on,0,0,0,,4,,,64,127
26903,note_off,107,0,0,,10,,,69,127
26905,note_on,2,0,0,,8,,,68,127
27012,note_off,107,0,0,,8,,,68,127
27014,note_on,2,0,0,,10,,,69,127
27014,note_on,0,0,0,,4,,,52,127
27121,note_off,107,0,0,,10,,,69,127
27123,note_on,2,0,0,,8,,,68,127
27228,note_off,105,0,0,,4,,,64,127
27228,note_off,0,0,0,,2,,,74,127
27230,note_off,2,0,0,,8,,,68,127
27230,note_off,0,0,0,,4,,,52,127
27232,note_on,2,0,0,,1,,,73,127
27232,note_on,0,0,0,,10,,,69,127
27232,note_on,0,0,0,,10,,,57,127
27449,note_off,217,0,0,,1,,,73,127
27451,note_on,2,0,0,,2,,,74,127
27451,note_on,0,0,0,,10,,,45,127
27666,note_off,215,0,0,,10,,,57,127
27666,note_off,0,0,0,,10,,,69,127
27668,note_off,2,0,0,,10,,,45,127
27668,note_off,0,0,0,,2,,,74,127
27670,note_on,2,0,0,,4,,,76,127
27670,note_on,0,0,0,,12,,,71,127
27670,note_on,0,0,0,,6,,,54,127
27777,note_off,107,0,0,,12,,,71,127
27779,note_on,2,0,0,,11,,,70,127
27886,note_off,107,0,0,,11,,,70,127
27888,note_on,2,0,0,,12,,,71,127
27888,note_on,0,0,0,,6,,,42,127
27995,note_off,107,0,0,,12,,,71,127
27997,note_on,2,0,0,,11,,,70,127
28102,note_off,105,0,0,,6,,,54,127
28102,note_off,0,0,0,,4,,,76,127
28104,note_off,2,0,0,,11,,,70,127
28104,note_off,0,0,0,,6,,,42,127
28106,note_on,2,0,0,,12,,,71,127
28106,note_on,0,0,0,,2,,,74,127
28106,note_on,0,0,0,,12,,,59,127
28323,note_off,217,0,0,,2,,,74,127
28325,note_on,2,0,0,,6,,,78,127
28325,note_on,0,0,0,,12,,,47,127
28540,note_off,215,0,0,,12,,,59,127
28540,note_off,0,0,0,,12,,,71,127
28542,note_off,2,0,0,,12,,,47,127
28542,note_off,0,0,0,,6,,,78,127
28544,note_on,2,0,0,,12,,,71,127
28544,note_on,0,0,0,,4,,,76,127
28544,note_on,0,0,0,,6,,,54,127
28651,note_off,107,0,0,,12,,,71,127
28653,note_on,2,0,0,,11,,,70,127
28760,note_off,107,0,0,,11,,,70,127
28762,note_on,2,0,0,,12,,,71,127
28762,note_on,0,0,0,,6,,,42,127
28869,note_off,107,0,0,,12,,,71,127
28871,note_on,2,0,0,,11,,,70,127
28976,note_off,105,0,0,,6,,,54,127
28976,note_off,0,0,0,,4,,,76,127
28978,note_off,2,0,0,,11,,,70,127
28978,note_off,0,0,0,,6,,,42,127
28980,note_on,2,0,0,,12,,,71,127
28980,note_on,0,0,0,,2,,,74,127
28980,note_on,0,0,0,,12,,,59,127
29197,note_off,217,0,0,,2,,,74,127
29199,note_on,2,0,0,,6,,,78,127
29199,note_on,0,0,0,,12,,,47,127
29414,note_off,215,0,0,,12,,,59,127
29414,note_off,0,0,0,,12,,,71,127
29416,note_off,2,0,0,,12,,,47,127
29416,note_off,0,0,0,,6,,,78,127
29418,note_on,2,0,0,,2,,,74,127
29418,note_on,0,0,0,,7,,,79,127
29418,note_on,0,0,0,,10,,,57,127
29525,note_off,107,0,0,,2,,,74,127
29527,note_on,2,0,0,,1,,,73,127
29634,note_off,107,0,0,,1,,,73,127
29636,note_on,2,0,0,,2,,,74,127
29636,note_on,0,0,0,,10,,,45,127
29743,note_off,107,0,0,,2,,,74,127
29745,note_on,2,0,0,,1,,,73,127
29850,note_off,105,0,0,,10,,,57,127
29850,note_off,0,0,0,,7,,,79,127
29852,note_off,2,0,0,,1,,,73,127
29852,note_off,0,0,0,,10,,,45,127
29854,note_on,2,0,0,,6,,,78,127
29854,note_on,0,0,0,,2,,,74,127
29854,note_on,0,0,0,,2,,,62,127
30071,note_off,217,0,0,,6,,,78,127
30073,note_on,2,0,0,,10,,,81,127
30073,note_on,0,0,0,,2,,,50,127
30288,note_off,215,0,0,,2,,,62,127
30288,note_off,0,0,0,,2,,,74,127
30290,note_off,2,0,0,,2,,,50,127
30290,note_off,0,0,0,,10,,,81,127
30292,note_on,2,0,0,,7,,,79,127
30292,note_on,0,0,0,,2,,,74,127
30292,note_on,0,0,0,,10,,,57,127
30399,note_off,107,0,0,,2,,,74,127
30401,note_on,2,0,0,,1,,,73,127
30508,note_off,107,0,0,,1,,,73,127
30510,note_on,2,0,0,,2,,,74,127
30510,note_on,0,0,0,,10,,,45,127
30617,note_off,107,0,0,,2,,,74,127
30619,note_on,2,0,0,,1,,,73,127
30724,note_off,105,0,0,,10,,,57,127
30724,note_off,0,0,0,,7,,,79,127
30726,note_off,2,0,0,,1,,,73,127
30726,note_off,0,0,0,,10,,,45,127
30728,note_on,2,0,0,,6,,,78,127
30728,note_on,0,0,0,,2,,,74,127
30728,note_on,0,0,0,,2,,,62,127
30945,note_off,217,0,0,,6,,,78,127
30947,note_on,2,0,0,,6,,,78,127
30947,note_on,0,0,0,,2,,,50,127
31162,note_off,215,0,0,,2,,,62,127
31162,note_off,0,0,0,,2,,,74,127
31164,note_off,2,0,0,,2,,,50,127
31164,note_off,0,0,0,,6,,,78,127
31166,note_on,2,0,0,,4,,,76,127
31166,note_on,0,0,0,,8,,,80,127
31166,note_on,0,0,0,,4,,,64,127
31273,note_off,107,0,0,,4,,,76,127
31275,note_on,2,0,0,,2,,,74,127
31382,note_off,107,0,0,,2,,,74,127
31384,note_on,2,0,0,,4,,,76,127
31384,note_on,0,0,0,,4,,,52,127
31491,note_off,107,0,0,,4,,,76,127
31493,note_on,2,0,0,,2,,,74,127
31598,note_off,105,0,0,,4,,,64,127
31598,note_off,0,0,0,,8,,,80,127
31600,note_off,2,0,0,,2,,,74,127
31600,note_off,0,0,0,,4,,,52,127
31602,note_on,2,0,0,,1,,,73,127
31602,note_on,0,0,0,,10,,,81,127
31602,note_on,0,0,0,,10,,,57,127
31819,note_off,217,0,0,,10,,,81,127
31821,note_on,2,0,0,,10,,,81,127
31821,note_on,0,0,0,,10,,,45,127
32036,note_off,215,0,0,,10,,,57,127
32036,note_off,0,0,0,,1,,,73,127
32038,note_off,2,0,0,,10,,,45,127
32038,note_off,0,0,0,,10,,,81,127
32040,note_on,2,0,0,,4,,,76,127
32040,note_on,0,0,0,,8,,,80,127
32040,note_on,0,0,0,,4,,,64,127
32147,note_off,107,0,0,,4,,,76,127
32149,note_on,2,0,0,,2,,,74,127
32256,note_off,107,0,0,,2,,,74,127
32258,note_on,2,0,0,,4,,,76,127
32258,note_on,0,0,0,,4,,,52,127
32365,note_off,107,0,0,,4,,,76,127
32367,note_on,2,0,0,,2,,,74,127
32472,note_off,105,0,0,,4,,,64,127
32472,note_off,0,0,0,,8,,,80,127
32474,note_off,2,0,0,,2,,,74,127
32474,note_off,0,0,0,,4,,,52,127
32476,note_on,2,0,0,,1,,,73,127
32476,note_on,0,0,0,,10,,,81,127
32476,note_on,0,0,0,,10,,,57,127
32583,note_off,107,0,0,,10,,,81,127
32585,note_on,2,0,0,,7,,,79,127
32692,note_off,107,0,0,,7,,,79,127
32692,note_off,0,0,0,,1,,,73,127
32694,note_on,2,0,0,,6,,,78,127
32801,note_off,107,0,0,,6,,,78,127
32803,note_on,2,0,0,,4,,,76,127
32908,note_off,105,0,0,,10,,,57,127
32910,note_off,2,0,0,,4,,,76,127
32912,note_on,2,0,0,,2,,,74,127
33019,note_off,107,0,0,,2,,,74,127
33021,note_on,2,0,0,,1,,,73,127
33128,note_off,107,0,0,,1,,,73,127
33130,note_on,2,0,0,,12,,,71,127
33237,note_off,107,0,0,,12,,,71,127
33239,note_on,2,0,0,,10,,,69,127
33346,note_off,107,0,0,,10,,,69,127
33348,note_on,2,0,0,,8,,,68,127
33455,note_off,107,0,0,,8,,,68,127
33457,note_on,2,0,0,,6,,,66,127
33564,note_off,107,0,0,,6,,,66,127
33566,note_on,2,0,0,,4,,,64,127
33673,note_off,107,0,0,,4,,,64,127
33675,note_on,2,0,0,,2,,,62,127
33782,note_off,107,0,0,,2,,,62,127
33784,note_on,2,0,0,,1,,,61,127
33891,note_off,107,0,0,,1,,,61,127
33893,note_on,2,0,0,,2,,,62,127
34000,note_off,107,0,0,,2,,,62,127
34002,note_on,2,0,0,,4,,,64,127
34109,note_off,107,0,0,,4,,,64,127
34111,note_on,2,0,0,,2,,,62,127
34218,note_off,107,0,0,,2,,,62,127
34220,note_on,2,0,0,,1,,,61,127
34327,note_off,107,0,0,,1,,,61,127
34329,note_on,2,0,0,,12,,,59,127
34436,note_off,107,0,0,,12,,,59,127
34438,note_on,2,0,0,,10,,,57,127
34545,note_off,107,0,0,,10,,,57,127
34547,note_on,2,0,0,,8,,,56,127
34654,note_off,107,0,0,,8,,,56,127
34656,note_on,2,0,0,,6,,,54,127
34763,note_off,107,0,0,,6,,,54,127
34765,note_on,2,0,0,,4,,,52,127
34872,note_off,107,0,0,,4,,,52,127
34874,note_on,2,0,0,,2,,,50,127
34981,note_off,107,0,0,,2,,,50,127
34983,note_on,2,0,0,,1,,,49,127
35090,note_off,107,0,0,,1,,,49,127
35092,note_on,2,0,0,,12,,,47,127
35199,note_off,107,0,0,,12,,,47,127
35201,note_on,2,0,0,,10,,,45,127
35308,note_off,107,0,0,,10,,,45,127
35310,note_on,2,0,0,,8,,,44,127
35417,note_off,107,0,0,,8,,,44,127
35419,note_on,2,0,0,,6,,,42,127
35526,note_off,107,0,0,,6,,,42,127
35528,note_on,2,0,0,,4,,,40,127
35638,note_on,110,0,0,,4,,,64,127
35745,note_off,107,0,0,,4,,,64,127
35747,note_on,2,0,0,,6,,,66,127
35854,note_off,107,0,0,,6,,,66,127
35856,note_on,2,0,0,,4,,,64,127
35963,note_off,107,0,0,,4,,,64,127
35965,note_on,2,0,0,,6,,,66,127
36072,note_off,107,0,0,,6,,,66,127
36074,note_on,2,0,0,,10,,,69,127
36181,note_off,107,0,0,,10,,,69,127
36183,note_on,2,0,0,,8,,,68,127
36290,note_off,107,0,0,,8,,,68,127
36292,note_on,2,0,0,,10,,,69,127
36399,note_off,107,0,0,,10,,,69,127
36399,note_off,0,0,0,,4,,,40,127
36401,note_on,2,0,0,,8,,,68,127
36401,note_on,0,0,0,,4,,,52,127
36508,note_off,107,0,0,,8,,,68,127
36510,note_on,2,0,0,,12,,,71,127
36617,note_off,107,0,0,,12,,,71,127
36619,note_on,2,0,0,,10,,,69,127
36726,note_off,107,0,0,,10,,,69,127
36728,note_on,2,0,0,,12,,,71,127
36835,note_off,107,0,0,,12,,,71,127
36835,note_off,0,0,0,,4,,,52,127
36837,note_on,2,0,0,,10,,,69,127
36837,note_on,0,0,0,,6,,,54,127
36944,note_off,107,0,0,,10,,,69,127
36946,note_on,2,0,0,,1,,,73,127
37053,note_off,107,0,0,,1,,,73,127
37055,note_on,2,0,0,,12,,,71,127
37162,note_off,107,0,0,,12,,,71,127
37164,note_on,2,0,0,,1,,,73,127
37271,note_off,107,0,0,,1,,,73,127
37271,note_off,0,0,0,,6,,,54,127
37273,note_on,2,0,0,,12,,,71,127
37273,note_on,0,0,0,,8,,,56,127
37380,note_off,107,0,0,,12,,,71,127
37382,note_on,2,0,0,,2,,,74,127
37489,note_off,107,0,0,,2,,,74,127
37491,note_on,2,0,0,,1,,,73,127
37598,note_off,107,0,0,,1,,,73,127
37600,note_on,2,0,0,,2,,,74,127
37707,note_off,107,0,0,,2,,,74,127
37707,note_off,0,0,0,,8,,,56,127
37709,note_on,2,0,0,,2,,,74,127
37709,note_on,0,0,0,,10,,,57,127
37816,note_off,107,0,0,,2,,,74,127
37818,note_on,2,0,0,,1,,,73,127
37925,note_off,107,0,0,,1,,,73,127
37927,note_on,2,0,0,,12,,,71,127
38034,note_off,107,0,0,,12,,,71,127
38036,note_on,2,0,0,,10,,,69,127
38141,note_off,105,0,0,,10,,,57,127
38143,note_off,2,0,0,,10,,,69,127
38145,note_on,2,0,0,,4,,,76,127
38255,note_on,110,0,0,,4,,,52,127
38362,note_off,107,0,0,,4,,,52,127
38364,note_on,2,0,0,,6,,,54,127
38471,note_off,107,0,0,,6,,,54,127
38473,note_on,2,0,0,,4,,,52,127
38580,note_off,107,0,0,,4,,,52,127
38580,note_off,0,0,0,,4,,,76,127
38582,note_on,2,0,0,,2,,,74,127
38582,note_on,0,0,0,,6,,,54,127
38689,note_off,107,0,0,,6,,,54,127
38691,note_on,2,0,0,,10,,,57,127
38798,note_off,107,0,0,,10,,,57,127
38800,note_on,2,0,0,,8,,,56,127
38907,note_off,107,0,0,,8,,,56,127
38909,note_on,2,0,0,,10,,,57,127
39016,note_off,107,0,0,,10,,,57,127
39016,note_off,0,0,0,,2,,,74,127
39018,note_on,2,0,0,,12,,,71,127
39018,note_on,0,0,0,,8,,,56,127
39125,note_off,107,0,0,,8,,,56,127
39127,note_on,2,0,0,,12,,,59,127
39234,note_off,107,0,0,,12,,,59,127
39236,note_on,2,0,0,,10,,,57,127
39343,note_off,107,0,0,,10,,,57,127
39345,note_on,2,0,0,,12,,,59,127
39452,note_off,107,0,0,,12,,,59,127
39452,note_off,0,0,0,,12,,,71,127
39454,note_on,2,0,0,,1,,,73,127
39454,note_on,0,0,0,,10,,,57,127
39561,note_off,107,0,0,,10,,,57,127
39563,note_on,2,0,0,,1,,,61,127
39670,note_off,107,0,0,,1,,,61,127
39672,note_on,2,0,0,,12,,,59,127
39779,note_off,107,0,0,,12,,,59,127
39781,note_on,2,0,0,,1,,,61,127
39888,note_off,107,0,0,,1,,,61,127
39888,note_off,0,0,0,,1,,,73,127
39890,note_on,2,0,0,,12,,,71,127
39890,note_on,0,0,0,,12,,,59,127
39997,note_off,107,0,0,,12,,,59,127
39999,note_on,2,0,0,,2,,,62,127
40106,note_off,107,0,0,,2,,,62,127
40108,note_on,2,0,0,,1,,,61,127
40215,note_off,107,0,0,,1,,,61,127
40217,note_on,2,0,0,,2,,,62,127
40324,note_off,107,0,0,,2,,,62,127
40324,note_off,0,0,0,,12,,,71,127
40326,note_on,2,0,0,,6,,,78,127
40326,note_on,0,0,0,,2,,,62,127
40433,note_off,107,0,0,,2,,,62,127
40433,note_off,0,0,0,,6,,,78,127
40435,note_on,2,0,0,,4,,,76,127
40435,note_on,0,0,0,,1,,,61,127
40542,note_off,107,0,0,,1,,,61,127
40542,note_off,0,0,0,,4,,,76,127
40544,note_on,2,0,0,,2,,,74,127
40544,note_on,0,0,0,,12,,,59,127
40651,note_off,107,0,0,,12,,,59,127
40651,note_off,0,0,0,,2,,,74,127
40653,note_on,2,0,0,,1,,,73,127
40653,note_on,0,0,0,,10,,,57,127
40726,note_off,73,0,0,,1,,,73,127
40760,note_off,34,0,0,,10,,,57,127
40762,note_on,2,0,0,,4,,,64,127
40872,note_on,110,0,0,,12,,,71,127
40979,note_off,107,0,0,,12,,,71,127
40981,note_on,2,0,0,,0,,,72,127
41088,note_off,107,0,0,,0,,,72,127
41090,note_on,2,0,0,,3,,,75,127
41195,note_off,105,0,0,,4,,,64,127
41197,note_off,2,0,0,,3,,,75,127
41199,note_on,2,0,0,,4,,,76,127
41309,note_on,110,0,0,,4,,,64,127
41416,note_off,107,0,0,,4,,,64,127
41416,note_off,0,0,0,,4,,,76,127
41418,note_on,2,0,0,,6,,,66,127
41418,note_on,0,0,0,,2,,,74,127
41525,note_off,107,0,0,,6,,,66,127
41527,note_on,2,0,0,,8,,,68,127
41634,note_off,107,0,0,,8,,,68,127
41634,note_off,0,0,0,,2,,,74,127
41636,note_on,2,0,0,,10,,,69,127
41636,note_on,0,0,0,,0,,,72,127
41746,note_on,110,0,0,,10,,,57,127
41853,note_off,107,0,0,,10,,,57,127
41855,note_on,2,0,0,,0,,,60,127
41962,note_off,107,0,0,,0,,,60,127
41964,note_on,2,0,0,,3,,,63,127
42069,note_off,105,0,0,,0,,,72,127
42069,note_off,0,0,0,,10,,,69,127
42071,note_off,2,0,0,,3,,,63,127
42073,note_on,2,0,0,,4,,,64,127
42183,note_on,110,0,0,,12,,,71,127
42290,note_off,107,0,0,,12,,,71,127
42292,note_on,2,0,0,,0,,,72,127
42399,note_off,107,0,0,,0,,,72,127
42401,note_on,2,0,0,,3,,,75,127
42506,note_off,105,0,0,,4,,,64,127
42508,note_off,2,0,0,,3,,,75,127
42510,note_on,2,0,0,,4,,,76,127
42620,note_on,110,0,0,,4,,,64,127
42727,note_off,107,0,0,,4,,,64,127
42727,note_off,0,0,0,,4,,,76,127
42729,note_on,2,0,0,,2,,,74,127
42729,note_on,0,0,0,,5,,,65,127
42836,note_off,107,0,0,,5,,,65,127
42838,note_on,2,0,0,,8,,,68,127
42945,note_off,107,0,0,,8,,,68,127
42945,note_off,0,0,0,,2,,,74,127
42947,note_on,2,0,0,,10,,,69,127
42947,note_on,0,0,0,,0,,,72,127
43057,note_on,110,0,0,,10,,,57,127
43164,note_off,107,0,0,,10,,,57,127
43166,note_on,2,0,0,,0,,,60,127
43273,note_off,107,0,0,,0,,,60,127
43275,note_on,2,0,0,,3,,,63,127
43380,note_off,105,0,0,,0,,,72,127
43380,note_off,0,0,0,,10,,,69,127
43382,note_off,2,0,0,,3,,,63,127
43384,note_on,2,0,0,,4,,,64,127
43494,note_on,110,0,0,,12,,,71,127
43601,note_off,107,0,0,,12,,,71,127
43603,note_on,2,0,0,,0,,,72,127
43710,note_off,107,0,0,,0,,,72,127
43712,note_on,2,0,0,,3,,,75,127
43819,note_off,107,0,0,,3,,,75,127
43821,note_on,2,0,0,,4,,,76,127
43928,note_off,107,0,0,,4,,,76,127
43930,note_on,2,0,0,,4,,,76,127
44037,note_off,107,0,0,,4,,,76,127
44037,note_off,0,0,0,,4,,,64,127
44039,note_on,2,0,0,,6,,,78,127
44039,note_on,0,0,0,,2,,,62,127
44146,note_off,107,0,0,,6,,,78,127
44148,note_on,2,0,0,,8,,,80,127
44255,note_off,107,0,0,,8,,,80,127
44255,note_off,0,0,0,,2,,,62,127
44257,note_on,2,0,0,,10,,,81,127
44257,note_on,0,0,0,,0,,,60,127
44367,note_on,110,0,0,,10,,,69,127
44474,note_off,107,0,0,,10,,,69,127
44474,note_off,0,0,0,,10,,,81,127
44476,note_on,2,0,0,,0,,,72,127
44583,note_off,107,0,0,,0,,,72,127
44585,note_on,2,0,0,,4,,,76,127
44692,note_off,107,0,0,,4,,,76,127
44692,note_off,0,0,0,,0,,,60,127
44694,note_on,2,0,0,,5,,,77,127
44694,note_on,0,0,0,,2,,,62,127
44801,note_off,107,0,0,,5,,,77,127
44803,note_on,2,0,0,,8,,,68,127
44910,note_off,107,0,0,,8,,,68,127
44912,note_on,2,0,0,,12,,,71,127
45019,note_off,107,0,0,,12,,,71,127
45021,note_on,2,0,0,,3,,,75,127
45128,note_off,107,0,0,,3,,,75,127
45128,note_off,0,0,0,,2,,,62,127
45130,note_on,2,0,0,,4,,,76,127
45130,note_on,0,0,0,,4,,,64,127
45237,note_off,107,0,0,,4,,,76,127
45239,note_on,2,0,0,,0,,,72,127
45346,note_off,107,0,0,,0,,,72,127
45348,note_on,2,0,0,,2,,,74,127
45455,note_off,107,0,0,,2,,,74,127
45457,note_on,2,0,0,,12,,,71,127
45564,note_off,107,0,0,,12,,,71,127
45566,note_on,2,0,0,,0,,,72,127
45566,note_on,0,0,0,,4,,,52,127
45673,note_off,107,0,0,,0,,,72,127
45675,note_on,2,0,0,,10,,,69,127
45782,note_off,107,0,0,,10,,,69,127
45783,note_off,1,0,0,,4,,,64,127
45784,note_on,1,0,0,,12,,,71,127
45891,note_off,107,0,0,,12,,,71,127
45893,note_on,2,0,0,,8,,,68,127
46000,note_off,107,0,0,,8,,,68,127
46000,note_off,0,0,0,,4,,,52,127
46002,note_on,2,0,0,,10,,,69,127
46002,note_on,0,0,0,,10,,,45,127
46109,note_off,107,0,0,,10,,,69,127
46111,note_on,2,0,0,,12,,,71,127
46218,note_off,107,0,0,,12,,,71,127
46220,note_on,2,0,0,,0,,,72,127
46327,note_off,107,0,0,,0,,,72,127
46329,note_on,2,0,0,,3,,,75,127
46434,note_off,105,0,0,,10,,,45,127
46436,note_off,2,0,0,,3,,,75,127
46438,note_on,2,0,0,,4,,,76,127
46548,note_on,110,0,0,,4,,,64,127
46655,note_off,107,0,0,,4,,,64,127
46655,note_off,0,0,0,,4,,,76,127
46657,note_on,2,0,0,,5,,,65,127
46657,note_on,0,0,0,,2,,,74,127
46764,note_off,107,0,0,,5,,,65,127
46766,note_on,2,0,0,,8,,,68,127
46873,note_off,107,0,0,,8,,,68,127
46873,note_off,0,0,0,,2,,,74,127
46875,note_on,2,0,0,,10,,,69,127
46875,note_on,0,0,0,,0,,,72,127
46985,note_on,110,0,0,,10,,,57,127
47092,note_off,107,0,0,,10,,,57,127
47094,note_on,2,0,0,,0,,,60,127
47201,note_off,107,0,0,,0,,,60,127
47203,note_on,2,0,0,,3,,,63,127
47308,note_off,105,0,0,,0,,,72,127
47310,note_off,2,0,0,,3,,,63,127
47312,note_on,2,0,0,,4,,,64,127
47419,note_off,107,0,0,,10,,,69,127
47421,note_on,2,0,0,,12,,,71,127
47528,note_off,107,0,0,,12,,,71,127
47530,note_on,2,0,0,,0,,,72,127
47637,note_off,107,0,0,,0,,,72,127
47639,note_on,2,0,0,,3,,,75,127
47744,note_off,105,0,0,,4,,,64,127
47746,note_off,2,0,0,,3,,,75,127
47748,note_on,2,0,0,,4,,,76,127
47858,note_on,110,0,0,,4,,,64,127
47965,note_off,107,0,0,,4,,,64,127
47965,note_off,0,0,0,,4,,,76,127
47967,note_on,2,0,0,,5,,,65,127
47967,note_on,0,0,0,,2,,,74,127
48074,note_off,107,0,0,,5,,,65,127
48076,note_on,2,0,0,,8,,,68,127
48183,note_off,107,0,0,,8,,,68,127
48183,note_off,0,0,0,,2,,,74,127
48185,note_on,2,0,0,,10,,,69,127
48185,note_on,0,0,0,,0,,,72,127
48295,note_on,110,0,0,,10,,,57,127
48402,note_off,107,0,0,,10,,,57,127
48404,note_on,2,0,0,,0,,,60,127
48511,note_off,107,0,0,,0,,,60,127
48513,note_on,2,0,0,,3,,,63,127
48618,note_off,105,0,0,,0,,,72,127
48620,note_off,2,0,0,,3,,,63,127
48622,note_on,2,0,0,,4,,,64,127
48729,note_off,107,0,0,,10,,,69,127
48731,note_on,2,0,0,,12,,,71,127
48838,note_off,107,0,0,,12,,,71,127
48840,note_on,2,0,0,,0,,,72,127
48947,note_off,107,0,0,,0,,,72,127
48949,note_on,2,0,0,,3,,,75,127
49056,note_off,107,0,0,,3,,,75,127
49058,note_on,2,0,0,,4,,,76,127
49165,note_off,107,0,0,,4,,,76,127
49167,note_on,2,0,0,,4,,,76,127
49274,note_off,107,0,0,,4,,,76,127
49274,note_off,0,0,0,,4,,,64,127
49276,note_on,2,0,0,,5,,,77,127
49276,note_on,0,0,0,,2,,,62,127
49383,note_off,107,0,0,,5,,,77,127
49385,note_on,2,0,0,,8,,,80,127
49492,note_off,107,0,0,,8,,,80,127
49492,note_off,0,0,0,,2,,,62,127
49494,note_on,2,0,0,,10,,,81,127
49494,note_on,0,0,0,,0,,,60,127
49604,note_on,110,0,0,,10,,,69,127
49711,note_off,107,0,0,,10,,,69,127
49711,note_off,0,0,0,,10,,,81,127
49713,note_on,2,0,0,,0,,,72,127
49820,note_off,107,0,0,,0,,,72,127
49822,note_on,2,0,0,,4,,,76,127
49929,note_off,107,0,0,,4,,,76,127
49929,note_off,0,0,0,,0,,,60,127
49931,note_on,2,0,0,,5,,,77,127
49931,note_on,0,0,0,,2,,,62,127
50038,note_off,107,0,0,,5,,,77,127
50040,note_on,2,0,0,,8,,,68,127
50147,note_off,107,0,0,,8,,,68,127
50149,note_on,2,0,0,,12,,,71,127
50256,note_off,107,0,0,,12,,,71,127
50258,note_on,2,0,0,,3,,,75,127
50365,note_off,107,0,0,,3,,,75,127
50365,note_off,0,0,0,,2,,,62,127
50367,note_on,2,0,0,,4,,,76,127
50367,note_on,0,0,0,,4,,,64,127
50474,note_off,107,0,0,,4,,,76,127
50476,note_on,2,0,0,,0,,,72,127
50583,note_off,107,0,0,,0,,,72,127
50585,note_on,2,0,0,,2,,,74,127
50692,note_off,107,0,0,,2,,,74,127
50694,note_on,2,0,0,,12,,,71,127
50801,note_off,107,0,0,,12,,,71,127
50803,note_on,2,0,0,,0,,,72,127
50803,note_on,0,0,0,,4,,,52,127
50910,note_off,107,0,0,,0,,,72,127
50912,note_on,2,0,0,,10,,,69,127
51019,note_off,107,0,0,,10,,,69,127
51021,note_on,2,0,0,,12,,,71,127
51128,note_off,107,0,0,,12,,,71,127
51130,note_on,2,0,0,,8,,,68,127
51237,note_off,107,0,0,,8,,,68,127
51237,note_off,0,0,0,,4,,,52,127
51238,note_off,1,0,0,,4,,,64,127
51239,note_on,1,0,0,,10,,,69,127
51239,note_on,0,0,0,,10,,,57,127
51458,note_on,219,0,0,,10,,,81,127
51565,note_off,107,0,0,,10,,,81,127
51567,note_off,2,0,0,,10,,,69,127
51567,note_on,0,0,0,,8,,,80,127
51674,note_off,107,0,0,,8,,,80,127
51674,note_off,0,0,0,,10,,,57,127
51676,note_on,2,0,0,,10,,,81,127
51676,note_on,0,0,0,,10,,,69,127
51783,note_off,107,0,0,,10,,,81,127
51785,note_on,2,0,0,,4,,,76,127
51892,note_off,107,0,0,,4,,,76,127
51894,note_on,2,0,0,,6,,,78,127
52001,note_off,107,0,0,,6,,,78,127
52003,note_on,2,0,0,,2,,,74,127
52110,note_off,107,0,0,,2,,,74,127
52110,note_off,0,0,0,,10,,,69,127
52112,note_on,2,0,0,,4,,,76,127
52112,note_on,0,0,0,,8,,,68,127
52219,note_off,107,0,0,,4,,,76,127
52221,note_on,2,0,0,,1,,,73,127
52328,note_off,107,0,0,,1,,,73,127
52330,note_on,2,0,0,,2,,,74,127
52437,note_off,107,0,0,,2,,,74,127
52439,note_on,2,0,0,,12,,,71,127
52544,note_off,105,0,0,,8,,,68,127
52546,note_off,2,0,0,,12,,,71,127
52548,note_on,2,0,0,,1,,,73,127
52767,note_on,219,0,0,,10,,,69,127
52874,note_off,107,0,0,,10,,,69,127
52876,note_on,2,0,0,,8,,,68,127
52983,note_off,107,0,0,,8,,,68,127
52985,note_on,2,0,0,,10,,,69,127
53092,note_off,107,0,0,,10,,,69,127
53094,note_on,2,0,0,,4,,,64,127
53201,note_off,107,0,0,,4,,,64,127
53201,note_off,0,0,0,,1,,,73,127
53203,note_on,2,0,0,,2,,,74,127
53203,note_on,0,0,0,,6,,,66,127
53310,note_off,107,0,0,,6,,,66,127
53312,note_on,2,0,0,,2,,,62,127
53419,note_off,107,0,0,,2,,,62,127
53419,note_off,0,0,0,,2,,,74,127
53421,note_on,2,0,0,,4,,,76,127
53421,note_on,0,0,0,,4,,,64,127
53528,note_off,107,0,0,,4,,,64,127
53530,note_on,2,0,0,,1,,,61,127
53637,note_off,107,0,0,,1,,,61,127
53637,note_off,0,0,0,,4,,,76,127
53639,note_on,2,0,0,,6,,,78,127
53639,note_on,0,0,0,,2,,,62,127
53746,note_off,107,0,0,,2,,,62,127
53748,note_on,2,0,0,,12,,,59,127
53855,note_off,107,0,0,,12,,,59,127
53855,note_off,0,0,0,,6,,,78,127
53857,note_on,2,0,0,,4,,,76,127
53857,note_on,0,0,0,,1,,,61,127
54074,note_off,217,0,0,,4,,,76,127
54076,note_on,2,0,0,,10,,,81,127
54177,note_off,101,0,0,,1,,,61,127
54184,note_off,7,0,0,,10,,,81,127
54186,note_on,2,0,0,,8,,,80,127
54293,note_off,107,0,0,,8,,,80,127
54295,note_on,2,0,0,,10,,,81,127
54295,note_on,0,0,0,,10,,,69,127
54402,note_off,107,0,0,,10,,,81,127
54404,note_on,2,0,0,,4,,,76,127
54511,note_off,107,0,0,,4,,,76,127
54513,note_on,2,0,0,,6,,,78,127
54620,note_off,107,0,0,,6,,,78,127
54622,note_on,2,0,0,,2,,,74,127
54729,note_off,107,0,0,,2,,,74,127
54729,note_off,0,0,0,,10,,,69,127
54731,note_on,2,0,0,,4,,,76,127
54731,note_on,0,0,0,,8,,,68,127
54838,note_off,107,0,0,,4,,,76,127
54840,note_on,2,0,0,,1,,,73,127
54947,note_off,107,0,0,,1,,,73,127
54949,note_on,2,0,0,,2,,,74,127
55056,note_off,107,0,0,,2,,,74,127
55058,note_on,2,0,0,,12,,,71,127
55163,note_off,105,0,0,,8,,,68,127
55165,note_off,2,0,0,,12,,,71,127
55167,note_on,2,0,0,,1,,,73,127
55386,note_on,219,0,0,,10,,,69,127
55493,note_off,107,0,0,,10,,,69,127
55495,note_on,2,0,0,,8,,,68,127
55602,note_off,107,0,0,,8,,,68,127
55604,note_on,2,0,0,,10,,,69,127
55711,note_off,107,0,0,,10,,,69,127
55713,note_on,2,0,0,,4,,,64,127
55820,note_off,107,0,0,,4,,,64,127
55820,note_off,0,0,0,,1,,,73,127
55822,note_on,2,0,0,,2,,,74,127
55822,note_on,0,0,0,,6,,,66,127
55929,note_off,107,0,0,,6,,,66,127
55931,note_on,2,0,0,,2,,,62,127
56038,note_off,107,0,0,,2,,,62,127
56038,note_off,0,0,0,,2,,,74,127
56040,note_on,2,0,0,,4,,,76,127
56040,note_on,0,0,0,,4,,,64,127
56147,note_off,107,0,0,,4,,,64,127
56149,note_on,2,0,0,,1,,,61,127
56256,note_off,107,0,0,,1,,,61,127
56256,note_off,0,0,0,,4,,,76,127
56258,note_on,2,0,0,,6,,,78,127
56258,note_on,0,0,0,,2,,,62,127
56365,note_off,107,0,0,,2,,,62,127
56367,note_on,2,0,0,,12,,,59,127
56474,note_off,107,0,0,,12,,,59,127
56474,note_off,0,0,0,,6,,,78,127
56476,note_on,2,0,0,,4,,,76,127
56476,note_on,0,0,0,,1,,,61,127
56583,note_off,107,0,0,,1,,,61,127
56585,note_on,2,0,0,,10,,,57,127
56692,note_off,107,0,0,,10,,,57,127
56692,note_off,0,0,0,,4,,,76,127
56694,note_on,2,0,0,,2,,,74,127
56694,note_on,0,0,0,,12,,,59,127
56801,note_off,107,0,0,,12,,,59,127
56803,note_on,2,0,0,,8,,,56,127
56910,note_off,107,0,0,,8,,,56,127
56910,note_off,0,0,0,,2,,,74,127
56912,note_on,2,0,0,,1,,,73,127
56912,note_on,0,0,0,,10,,,57,127
57019,note_off,107,0,0,,10,,,57,127
57021,note_on,2,0,0,,4,,,52,127
57128,note_off,107,0,0,,4,,,52,127
57128,note_off,0,0,0,,1,,,73,127
57130,note_on,2,0,0,,12,,,71,127
57130,note_on,0,0,0,,6,,,54,127
57237,note_off,107,0,0,,6,,,54,127
57239,note_on,2,0,0,,2,,,50,127
57346,note_off,107,0,0,,2,,,50,127
57346,note_off,0,0,0,,12,,,71,127
57348,note_on,2,0,0,,10,,,69,127
57348,note_on,0,0,0,,4,,,52,127
57455,note_off,107,0,0,,4,,,52,127
57457,note_on,2,0,0,,1,,,49,127
57564,note_off,107,0,0,,1,,,49,127
57564,note_off,0,0,0,,10,,,69,127
57566,note_on,2,0,0,,8,,,68,127
57566,note_on,0,0,0,,2,,,50,127
57673,note_off,107,0,0,,2,,,50,127
57675,note_on,2,0,0,,12,,,47,127
57782,note_off,107,0,0,,12,,,47,127
57782,note_off,0,0,0,,8,,,68,127
57784,note_on,2,0,0,,10,,,69,127
57784,note_on,0,0,0,,1,,,49,127
57891,note_off,107,0,0,,10,,,69,127
57893,note_on,2,0,0,,12,,,71,127
58000,note_off,107,0,0,,12,,,71,127
58000,note_off,0,0,0,,1,,,49,127
58002,note_on,2,0,0,,1,,,73,127
58002,note_on,0,0,0,,2,,,50,127
58109,note_off,107,0,0,,1,,,73,127
58111,note_on,2,0,0,,2,,,74,127
58218,note_off,107,0,0,,2,,,74,127
58218,note_off,0,0,0,,2,,,50,127
58220,note_on,2,0,0,,1,,,73,127
58220,note_on,0,0,0,,4,,,52,127
58327,note_off,107,0,0,,1,,,73,127
58329,note_on,2,0,0,,2,,,74,127
58436,note_off,107,0,0,,2,,,74,127
58438,note_on,2,0,0,,4,,,76,127
58545,note_off,107,0,0,,4,,,76,127
58547,note_on,2,0,0,,2,,,74,127
58654,note_off,107,0,0,,2,,,74,127
58656,note_on,2,0,0,,1,,,73,127
58656,note_on,0,0,0,,4,,,40,127
58763,note_off,107,0,0,,1,,,73,127
58765,note_on,2,0,0,,12,,,71,127
58872,note_off,107,0,0,,12,,,71,127
58874,note_on,2,0,0,,10,,,69,127
58981,note_off,107,0,0,,10,,,69,127
58983,note_on,2,0,0,,8,,,68,127
59090,note_off,107,0,0,,8,,,68,127
59090,note_off,0,0,0,,4,,,40,127
59091,note_off,1,0,0,,4,,,52,127
59092,note_on,1,0,0,,10,,,69,127
59092,note_on,0,0,0,,10,,,45,127
59309,note_off,217,0,0,,10,,,69,127
59311,note_on,2,0,0,,10,,,81,127
59418,note_off,107,0,0,,10,,,81,127
59420,note_on,2,0,0,,8,,,80,127
59527,note_off,107,0,0,,8,,,80,127
59527,note_off,0,0,0,,10,,,45,127
59529,note_on,2,0,0,,10,,,81,127
59529,note_on,0,0,0,,10,,,57,127
59636,note_off,107,0,0,,10,,,81,127
59638,note_on,2,0,0,,4,,,76,127
59745,note_off,107,0,0,,4,,,76,127
59747,note_on,2,0,0,,6,,,78,127
59854,note_off,107,0,0,,6,,,78,127
59856,note_on,2,0,0,,2,,,74,127
59963,note_off,107,0,0,,2,,,74,127
59963,note_off,0,0,0,,10,,,57,127
59965,note_on,2,0,0,,4,,,76,127
59965,note_on,0,0,0,,8,,,56,127
60072,note_off,107,0,0,,4,,,76,127
60074,note_on,2,0,0,,1,,,73,127
60181,note_off,107,0,0,,1,,,73,127
60183,note_on,2,0,0,,2,,,74,127
60290,note_off,107,0,0,,2,,,74,127
60292,note_on,2,0,0,,12,,,71,127
60399,note_off,107,0,0,,12,,,71,127
60399,note_off,0,0,0,,8,,,56,127
60401,note_on,2,0,0,,1,,,73,127
60401,note_on,0,0,0,,10,,,57,127
60508,note_off,107,0,0,,1,,,73,127
60510,note_on,2,0,0,,10,,,69,127
60617,note_off,107,0,0,,10,,,69,127
60619,note_on,2,0,0,,12,,,71,127
60726,note_off,107,0,0,,12,,,71,127
60728,note_on,2,0,0,,8,,,68,127
60835,note_off,107,0,0,,8,,,68,127
60835,note_off,0,0,0,,10,,,57,127
60837,note_on,2,0,0,,10,,,69,127
60837,note_on,0,0,0,,2,,,50,127
60944,note_off,107,0,0,,10,,,69,127
60946,note_on,2,0,0,,4,,,64,127
61053,note_off,107,0,0,,4,,,64,127
61055,note_on,2,0,0,,6,,,66,127
61162,note_off,107,0,0,,6,,,66,127
61164,note_on,2,0,0,,2,,,62,127
61271,note_off,107,0,0,,2,,,62,127
61271,note_off,0,0,0,,2,,,50,127
61273,note_on,2,0,0,,1,,,61,127
61273,note_on,0,0,0,,4,,,52,127
61380,note_off,107,0,0,,1,,,61,127
61382,note_on,2,0,0,,10,,,69,127
61489,note_off,107,0,0,,10,,,69,127
61491,note_on,2,0,0,,12,,,59,127
61598,note_off,107,0,0,,12,,,59,127
61600,note_on,2,0,0,,8,,,68,127
61707,note_off,107,0,0,,8,,,68,127
61707,note_off,0,0,0,,4,,,52,127
61709,note_on,2,0,0,,8,,,68,127
61709,note_on,0,0,0,,10,,,57,127
61709,note_on,0,0,0,,10,,,45,127
62146,note_off,437,0,0,,8,,,68,127
62148,note_on,2,0,0,,10,,,69,127
62879,note_off,731,0,0,,10,,,69,127
63023,note_off,144,0,0,,10,,,45,127
63023,note_off,0,0,0,,10,,,57,127
63025,note_on,2,0,0,,10,,,57,127
63135,note_on,110,0,0,,10,,,69,127
63242,note_off,107,0,0,,10,,,69,127
63244,note_on,2,0,0,,1,,,73,127
63351,note_off,107,0,0,,1,,,73,127
63353,note_on,2,0,0,,2,,,74,127
63460,note_off,107,0,0,,2,,,74,127
63462,note_on,2,0,0,,4,,,76,127
63572,note_on,110,0,0,,4,,,64,127
63679,note_off,107,0,0,,4,,,64,127
63681,note_on,2,0,0,,7,,,67,127
63788,note_off,107,0,0,,7,,,67,127
63790,note_on,2,0,0,,10,,,69,127
63895,note_off,105,0,0,,4,,,76,127
63897,note_off,2,0,0,,10,,,69,127
63898,note_off,1,0,0,,10,,,57,127
63899,note_on,1,0,0,,11,,,70,127
63899,note_on,0,0,0,,7,,,55,127
64009,note_on,110,0,0,,1,,,61,127
64116,note_off,107,0,0,,1,,,61,127
64118,note_on,2,0,0,,2,,,62,127
64225,note_off,107,0,0,,2,,,62,127
64227,note_on,2,0,0,,4,,,64,127
64332,note_off,105,0,0,,7,,,55,127
64332,note_off,0,0,0,,11,,,70,127
64334,note_off,2,0,0,,4,,,64,127
64336,note_on,2,0,0,,5,,,65,127
64336,note_on,0,0,0,,2,,,62,127
64446,note_on,110,0,0,,10,,,69,127
64553,note_off,107,0,0,,10,,,69,127
64555,note_on,2,0,0,,1,,,73,127
64662,note_off,107,0,0,,1,,,73,127
64664,note_on,2,0,0,,2,,,74,127
64771,note_off,107,0,0,,2,,,74,127
64771,note_off,0,0,0,,2,,,62,127
64771,note_off,0,0,0,,5,,,65,127
64773,note_on,2,0,0,,4,,,76,127
64773,note_on,0,0,0,,10,,,57,127
64883,note_on,110,0,0,,4,,,64,127
64990,note_off,107,0,0,,4,,,64,127
64992,note_on,2,0,0,,7,,,67,127
65099,note_off,107,0,0,,7,,,67,127
65101,note_on,2,0,0,,10,,,69,127
65206,note_off,105,0,0,,10,,,57,127
65206,note_off,0,0,0,,4,,,76,127
65208,note_off,2,0,0,,10,,,69,127
65210,note_on,2,0,0,,11,,,70,127
65210,note_on,0,0,0,,7,,,55,127
65320,note_on,110,0,0,,1,,,61,127
65427,note_off,107,0,0,,1,,,61,127
65429,note_on,2,0,0,,2,,,62,127
65536,note_off,107,0,0,,2,,,62,127
65538,note_on,2,0,0,,4,,,64,127
65643,note_off,105,0,0,,7,,,55,127
65643,note_off,0,0,0,,11,,,70,127
65645,note_off,2,0,0,,4,,,64,127
65647,note_on,2,0,0,,2,,,62,127
65647,note_on,0,0,0,,10,,,57,127
65647,note_on,0,0,0,,5,,,65,127
65757,note_on,110,0,0,,10,,,69,127
65864,note_off,107,0,0,,10,,,69,127
65866,note_on,2,0,0,,1,,,73,127
65973,note_off,107,0,0,,1,,,73,127
65975,note_on,2,0,0,,2,,,74,127
66082,note_off,107,0,0,,2,,,74,127
66082,note_off,0,0,0,,5,,,65,127
66082,note_off,0,0,0,,2,,,62,127
66084,note_on,2,0,0,,4,,,76,127
66084,note_on,0,0,0,,4,,,64,127
66084,note_on,0,0,0,,7,,,67,127
66191,note_off,107,0,0,,4,,,76,127
66193,note_on,2,0,0,,5,,,77,127
66300,note_off,107,0,0,,5,,,77,127
66302,note_on,2,0,0,,7,,,79,127
66409,note_off,107,0,0,,7,,,79,127
66411,note_on,2,0,0,,4,,,76,127
66518,note_off,107,0,0,,4,,,76,127
66518,note_off,0,0,0,,7,,,67,127
66518,note_off,0,0,0,,4,,,64,127
66519,note_off,1,0,0,,10,,,57,127
66520,note_on,1,0,0,,7,,,79,127
66520,note_on,0,0,0,,10,,,57,127
66520,note_on,0,0,0,,5,,,65,127
66520,note_on,0,0,0,,2,,,62,127
66627,note_off,107,0,0,,7,,,79,127
66629,note_on,2,0,0,,5,,,77,127
66736,note_off,107,0,0,,5,,,77,127
66738,note_on,2,0,0,,4,,,76,127
66845,note_off,107,0,0,,4,,,76,127
66847,note_on,2,0,0,,2,,,74,127
66954,note_off,107,0,0,,2,,,74,127
66954,note_off,0,0,0,,2,,,62,127
66954,note_off,0,0,0,,5,,,65,127
66954,note_off,0,0,0,,10,,,57,127
66956,note_on,2,0,0,,10,,,81,127
66956,note_on,0,0,0,,10,,,57,127
66956,note_on,0,0,0,,4,,,64,127
67066,note_on,110,0,0,,10,,,69,127
67173,note_off,107,0,0,,10,,,69,127
67173,note_off,0,0,0,,10,,,81,127
67175,note_on,2,0,0,,4,,,76,127
67282,note_off,107,0,0,,4,,,76,127
67284,note_on,2,0,0,,5,,,77,127
67391,note_off,107,0,0,,5,,,77,127
67391,note_off,0,0,0,,4,,,64,127
67391,note_off,0,0,0,,10,,,57,127
67393,note_on,2,0,0,,7,,,79,127
67393,note_on,0,0,0,,2,,,62,127
67393,note_on,0,0,0,,11,,,58,127
67503,note_on,110,0,0,,7,,,67,127
67610,note_off,107,0,0,,7,,,67,127
67610,note_off,0,0,0,,7,,,79,127
67612,note_on,2,0,0,,2,,,74,127
67719,note_off,107,0,0,,2,,,74,127
67721,note_on,2,0,0,,4,,,76,127
67828,note_off,107,0,0,,4,,,76,127
67828,note_off,0,0,0,,11,,,58,127
67828,note_off,0,0,0,,2,,,62,127
67830,note_on,2,0,0,,5,,,77,127
67830,note_on,0,0,0,,0,,,60,127
67830,note_on,0,0,0,,10,,,57,127
67940,note_on,110,0,0,,5,,,65,127
68047,note_off,107,0,0,,5,,,65,127
68047,note_off,0,0,0,,5,,,77,127
68049,note_on,2,0,0,,0,,,72,127
68156,note_off,107,0,0,,0,,,72,127
68158,note_on,2,0,0,,2,,,74,127
68265,note_off,107,0,0,,2,,,74,127
68265,note_off,0,0,0,,10,,,57,127
68265,note_off,0,0,0,,0,,,60,127
68267,note_on,2,0,0,,4,,,76,127
68267,note_on,0,0,0,,11,,,58,127
68267,note_on,0,0,0,,7,,,55,127
68377,note_on,110,0,0,,4,,,64,127
68484,note_off,107,0,0,,4,,,64,127
68484,note_off,0,0,0,,4,,,76,127
68486,note_on,2,0,0,,11,,,70,127
68593,note_off,107,0,0,,11,,,70,127
68595,note_on,2,0,0,,0,,,72,127
68702,note_off,107,0,0,,0,,,72,127
68702,note_off,0,0,0,,7,,,55,127
68702,note_off,0,0,0,,11,,,58,127
68704,note_on,2,0,0,,2,,,74,127
68704,note_on,0,0,0,,5,,,53,127
68704,note_on,0,0,0,,10,,,57,127
68814,note_on,110,0,0,,2,,,62,127
68921,note_off,107,0,0,,2,,,62,127
68921,note_off,0,0,0,,2,,,74,127
68923,note_on,2,0,0,,10,,,69,127
69030,note_off,107,0,0,,10,,,69,127
69032,note_on,2,0,0,,11,,,70,127
69139,note_off,107,0,0,,11,,,70,127
69139,note_off,0,0,0,,10,,,57,127
69139,note_off,0,0,0,,5,,,53,127
69141,note_on,2,0,0,,0,,,72,127
69141,note_on,0,0,0,,4,,,52,127
69141,note_on,0,0,0,,7,,,55,127
69251,note_on,110,0,0,,0,,,60,127
69358,note_off,107,0,0,,0,,,60,127
69358,note_off,0,0,0,,0,,,72,127
69360,note_on,2,0,0,,7,,,67,127
69467,note_off,107,0,0,,7,,,67,127
69469,note_on,2,0,0,,10,,,69,127
69576,note_off,107,0,0,,10,,,69,127
69576,note_off,0,0,0,,7,,,55,127
69576,note_off,0,0,0,,4,,,52,127
69578,note_on,2,0,0,,11,,,70,127
69578,note_on,0,0,0,,2,,,50,127
69578,note_on,0,0,0,,5,,,53,127
69685,note_off,107,0,0,,11,,,70,127
69687,note_on,2,0,0,,2,,,74,127
69794,note_off,107,0,0,,2,,,74,127
69796,note_on,2,0,0,,0,,,72,127
69903,note_off,107,0,0,,0,,,72,127
69905,note_on,2,0,0,,11,,,70,127
70012,note_off,107,0,0,,11,,,70,127
70012,note_off,0,0,0,,5,,,53,127
70012,note_off,0,0,0,,2,,,50,127
70014,note_on,2,0,0,,0,,,72,127
70014,note_on,0,0,0,,7,,,55,127
70014,note_on,0,0,0,,4,,,52,127
70121,note_off,107,0,0,,0,,,72,127
70123,note_on,2,0,0,,2,,,74,127
70230,note_off,107,0,0,,2,,,74,127
70232,note_on,2,0,0,,4,,,76,127
70339,note_off,107,0,0,,4,,,76,127
70341,note_on,2,0,0,,5,,,77,127
70448,note_off,107,0,0,,5,,,77,127
70448,note_off,0,0,0,,4,,,52,127
70448,note_off,0,0,0,,7,,,55,127
70450,note_on,2,0,0,,7,,,79,127
70450,note_on,0,0,0,,0,,,48,127
70450,note_on,0,0,0,,4,,,52,127
70557,note_off,107,0,0,,7,,,79,127
70559,note_on,2,0,0,,11,,,70,127
70666,note_off,107,0,0,,11,,,70,127
70668,note_on,2,0,0,,10,,,69,127
70775,note_off,107,0,0,,10,,,69,127
70777,note_on,2,0,0,,7,,,67,127
70884,note_off,107,0,0,,7,,,67,127
70884,note_off,0,0,0,,4,,,52,127
70884,note_off,0,0,0,,0,,,48,127
70886,note_on,2,0,0,,10,,,69,127
70886,note_on,0,0,0,,5,,,53,127
70886,note_on,0,0,0,,10,,,57,127
70993,note_off,107,0,0,,10,,,69,127
70995,note_on,2,0,0,,7,,,67,127
71102,note_off,107,0,0,,7,,,67,127
71104,note_on,2,0,0,,5,,,65,127
71211,note_off,107,0,0,,5,,,65,127
71213,note_on,2,0,0,,4,,,64,127
71320,note_off,107,0,0,,4,,,64,127
71320,note_off,0,0,0,,10,,,57,127
71320,note_off,0,0,0,,5,,,53,127
71322,note_on,2,0,0,,5,,,65,127
71322,note_on,0,0,0,,4,,,52,127
71322,note_on,0,0,0,,7,,,55,127
71429,note_off,107,0,0,,5,,,65,127
71431,note_on,2,0,0,,4,,,64,127
71538,note_off,107,0,0,,4,,,64,127
71540,note_on,2,0,0,,5,,,65,127
71647,note_off,107,0,0,,5,,,65,127
71649,note_on,2,0,0,,7,,,67,127
71756,note_off,107,0,0,,7,,,67,127
71756,note_off,0,0,0,,7,,,55,127
71756,note_off,0,0,0,,4,,,52,127
71758,note_on,2,0,0,,10,,,69,127
71758,note_on,0,0,0,,2,,,50,127
71758,note_on,0,0,0,,5,,,53,127
71865,note_off,107,0,0,,10,,,69,127
71867,note_on,2,0,0,,7,,,67,127
71974,note_off,107,0,0,,7,,,67,127
71976,note_on,2,0,0,,10,,,69,127
72083,note_off,107,0,0,,10,,,69,127
72085,note_on,2,0,0,,12,,,71,127
72190,note_off,105,0,0,,5,,,53,127
72190,note_off,0,0,0,,2,,,50,127
72192,note_off,2,0,0,,12,,,71,127
72194,note_on,2,0,0,,0,,,72,127
72304,note_on,110,0,0,,0,,,48,127
72411,note_off,107,0,0,,0,,,48,127
72413,note_on,2,0,0,,2,,,50,127
72520,note_off,107,0,0,,2,,,50,127
72522,note_on,2,0,0,,0,,,48,127
72629,note_off,107,0,0,,0,,,48,127
72629,note_off,0,0,0,,0,,,72,127
72631,note_on,2,0,0,,0,,,72,127
72631,note_on,0,0,0,,2,,,50,127
72738,note_off,107,0,0,,2,,,50,127
72740,note_on,2,0,0,,5,,,53,127
72847,note_off,107,0,0,,5,,,53,127
72849,note_on,2,0,0,,4,,,52,127
72956,note_off,107,0,0,,4,,,52,127
72958,note_on,2,0,0,,5,,,53,127
73065,note_off,107,0,0,,5,,,53,127
73065,note_off,0,0,0,,0,,,72,127
73067,note_on,2,0,0,,0,,,72,127
73067,note_on,0,0,0,,4,,,52,127
73174,note_off,107,0,0,,4,,,52,127
73176,note_on,2,0,0,,7,,,55,127
73283,note_off,107,0,0,,7,,,55,127
73285,note_on,2,0,0,,5,,,53,127
73392,note_off,107,0,0,,5,,,53,127
73394,note_on,2,0,0,,7,,,55,127
73501,note_off,107,0,0,,7,,,55,127
73501,note_off,0,0,0,,0,,,72,127
73503,note_on,2,0,0,,0,,,72,127
73503,note_on,0,0,0,,5,,,53,127
73610,note_off,107,0,0,,5,,,53,127
73612,note_on,2,0,0,,10,,,57,127
73719,note_off,107,0,0,,10,,,57,127
73721,note_on,2,0,0,,7,,,55,127
73828,note_off,107,0,0,,7,,,55,127
73830,note_on,2,0,0,,10,,,57,127
73937,note_off,107,0,0,,10,,,57,127
73937,note_off,0,0,0,,0,,,72,127
73939,note_on,2,0,0,,0,,,72,127
73939,note_on,0,0,0,,7,,,55,127
74046,note_off,107,0,0,,7,,,55,127
74048,note_on,2,0,0,,11,,,58,127
74155,note_off,107,0,0,,11,,,58,127
74157,note_on,2,0,0,,10,,,57,127
74264,note_off,107,0,0,,10,,,57,127
74266,note_on,2,0,0,,7,,,55,127
74373,note_off,107,0,0,,7,,,55,127
74373,note_off,0,0,0,,0,,,72,127
74375,note_on,2,0,0,,0,,,72,127
74375,note_on,0,0,0,,11,,,58,127
74482,note_off,107,0,0,,11,,,58,127
74484,note_on,2,0,0,,10,,,57,127
74591,note_off,107,0,0,,10,,,57,127
74593,note_on,2,0,0,,7,,,55,127
74700,note_off,107,0,0,,7,,,55,127
74702,note_on,2,0,0,,5,,,53,127
74809,note_off,107,0,0,,5,,,53,127
74811,note_on,2,0,0,,0,,,60,127
74918,note_off,107,0,0,,0,,,72,127
74920,note_on,2,0,0,,0,,,72,127
75027,note_off,107,0,0,,0,,,72,127
75029,note_on,2,0,0,,11,,,70,127
75136,note_off,107,0,0,,11,,,70,127
75138,note_on,2,0,0,,10,,,69,127
75245,note_off,107,0,0,,10,,,69,127
75247,note_on,2,0,0,,7,,,67,127
75247,note_on,0,0,0,,0,,,48,127
75354,note_off,107,0,0,,7,,,67,127
75356,note_on,2,0,0,,6,,,66,127
75463,note_off,107,0,0,,6,,,66,127
75465,note_on,2,0,0,,7,,,67,127
75572,note_off,107,0,0,,7,,,67,127
75574,note_on,2,0,0,,10,,,69,127
75681,note_off,107,0,0,,10,,,69,127
75681,note_off,0,0,0,,0,,,48,127
75682,note_off,1,0,0,,0,,,60,127
75683,note_on,1,0,0,,11,,,70,127
75683,note_on,0,0,0,,3,,,51,127
75790,note_off,107,0,0,,11,,,70,127
75792,note_on,2,0,0,,0,,,72,127
75899,note_off,107,0,0,,0,,,72,127
75901,note_on,2,0,0,,2,,,74,127
76008,note_off,107,0,0,,2,,,74,127
76010,note_on,2,0,0,,3,,,75,127
76115,note_off,105,0,0,,3,,,51,127
76117,note_off,2,0,0,,3,,,75,127
76119,note_on,2,0,0,,2,,,74,127
76229,note_on,110,0,0,,2,,,50,127
76336,note_off,107,0,0,,2,,,50,127
76338,note_on,2,0,0,,4,,,52,127
76445,note_off,107,0,0,,4,,,52,127
76447,note_on,2,0,0,,2,,,50,127
76554,note_off,107,0,0,,2,,,50,127
76554,note_off,0,0,0,,2,,,74,127
76556,note_on,2,0,0,,2,,,74,127
76556,note_on,0,0,0,,4,,,52,127
76663,note_off,107,0,0,,4,,,52,127
76665,note_on,2,0,0,,7,,,55,127
76772,note_off,107,0,0,,7,,,55,127
76774,note_on,2,0,0,,6,,,54,127
76881,note_off,107,0,0,,6,,,54,127
76883,note_on,2,0,0,,7,,,55,127
76990,note_off,107,0,0,,7,,,55,127
76990,note_off,0,0,0,,2,,,74,127
76992,note_on,2,0,0,,2,,,74,127
76992,note_on,0,0,0,,6,,,54,127
77099,note_off,107,0,0,,6,,,54,127
77101,note_on,2,0,0,,10,,,57,127
77208,note_off,107,0,0,,10,,,57,127
77210,note_on,2,0,0,,7,,,55,127
77317,note_off,107,0,0,,7,,,55,127
77319,note_on,2,0,0,,10,,,57,127
77426,note_off,107,0,0,,10,,,57,127
77426,note_off,0,0,0,,2,,,74,127
77428,note_on,2,0,0,,2,,,74,127
77428,note_on,0,0,0,,7,,,55,127
77535,note_off,107,0,0,,7,,,55,127
77537,note_on,2,0,0,,11,,,58,127
77644,note_off,107,0,0,,11,,,58,127
77646,note_on,2,0,0,,10,,,57,127
77753,note_off,107,0,0,,10,,,57,127
77755,note_on,2,0,0,,11,,,58,127
77862,note_off,107,0,0,,11,,,58,127
77862,note_off,0,0,0,,2,,,74,127
77864,note_on,2,0,0,,2,,,74,127
77864,note_on,0,0,0,,10,,,57,127
77971,note_off,107,0,0,,10,,,57,127
77973,note_on,2,0,0,,0,,,60,127
78080,note_off,107,0,0,,0,,,60,127
78082,note_on,2,0,0,,11,,,58,127
78189,note_off,107,0,0,,11,,,58,127
78191,note_on,2,0,0,,0,,,60,127
78298,note_off,107,0,0,,0,,,60,127
78298,note_off,0,0,0,,2,,,74,127
78300,note_on,2,0,0,,2,,,74,127
78300,note_on,0,0,0,,0,,,60,127
78407,note_off,107,0,0,,0,,,60,127
78409,note_on,2,0,0,,11,,,58,127
78516,note_off,107,0,0,,11,,,58,127
78518,note_on,2,0,0,,10,,,57,127
78625,note_off,107,0,0,,10,,,57,127
78627,note_on,2,0,0,,7,,,55,127
78734,note_off,107,0,0,,7,,,55,127
78736,note_on,2,0,0,,2,,,62,127
78843,note_off,107,0,0,,2,,,74,127
78845,note_on,2,0,0,,2,,,74,127
78952,note_off,107,0,0,,2,,,74,127
78954,note_on,2,0,0,,0,,,72,127
79061,note_off,107,0,0,,0,,,72,127
79063,note_on,2,0,0,,12,,,71,127
79170,note_off,107,0,0,,12,,,71,127
79172,note_on,2,0,0,,10,,,69,127
79172,note_on,0,0,0,,2,,,50,127
79279,note_off,107,0,0,,10,,,69,127
79281,note_on,2,0,0,,8,,,68,127
79388,note_off,107,0,0,,8,,,68,127
79390,note_on,2,0,0,,10,,,69,127
79497,note_off,107,0,0,,10,,,69,127
79499,note_on,2,0,0,,12,,,71,127
79606,note_off,107,0,0,,12,,,71,127
79606,note_off,0,0,0,,2,,,50,127
79607,note_off,1,0,0,,2,,,62,127
79608,note_on,1,0,0,,0,,,72,127
79608,note_on,0,0,0,,5,,,53,127
79715,note_off,107,0,0,,0,,,72,127
79717,note_on,2,0,0,,2,,,74,127
79824,note_off,107,0,0,,2,,,74,127
79826,note_on,2,0,0,,4,,,76,127
79933,note_off,107,0,0,,4,,,76,127
79935,note_on,2,0,0,,5,,,77,127
80040,note_off,105,0,0,,5,,,53,127
80042,note_off,2,0,0,,5,,,77,127
80044,note_on,2,0,0,,4,,,76,127
80154,note_on,110,0,0,,4,,,52,127
80261,note_off,107,0,0,,4,,,52,127
80263,note_on,2,0,0,,6,,,54,127
80370,note_off,107,0,0,,6,,,54,127
80372,note_on,2,0,0,,4,,,52,127
80479,note_off,107,0,0,,4,,,52,127
80479,note_off,0,0,0,,4,,,76,127
80481,note_on,2,0,0,,4,,,76,127
80481,note_on,0,0,0,,6,,,54,127
80588,note_off,107,0,0,,6,,,54,127
80590,note_on,2,0,0,,10,,,57,127
80697,note_off,107,0,0,,10,,,57,127
80699,note_on,2,0,0,,8,,,56,127
80806,note_off,107,0,0,,8,,,56,127
80808,note_on,2,0,0,,10,,,57,127
80915,note_off,107,0,0,,10,,,57,127
80915,note_off,0,0,0,,4,,,76,127
80917,note_on,2,0,0,,4,,,76,127
80917,note_on,0,0,0,,8,,,56,127
81024,note_off,107,0,0,,8,,,56,127
81026,note_on,2,0,0,,12,,,59,127
81133,note_off,107,0,0,,12,,,59,127
81135,note_on,2,0,0,,10,,,57,127
81242,note_off,107,0,0,,10,,,57,127
81244,note_on,2,0,0,,12,,,59,127
81351,note_off,107,0,0,,12,,,59,127
81351,note_off,0,0,0,,4,,,76,127
81353,note_on,2,0,0,,4,,,76,127
81353,note_on,0,0,0,,10,,,57,127
81460,note_off,107,0,0,,10,,,57,127
81462,note_on,2,0,0,,0,,,60,127
81569,note_off,107,0,0,,0,,,60,127
81571,note_on,2,0,0,,12,,,59,127
81678,note_off,107,0,0,,12,,,59,127
81680,note_on,2,0,0,,0,,,60,127
81787,note_off,107,0,0,,0,,,60,127
81787,note_off,0,0,0,,4,,,76,127
81789,note_on,2,0,0,,4,,,76,127
81789,note_on,0,0,0,,12,,,59,127
81896,note_off,107,0,0,,12,,,59,127
81898,note_on,2,0,0,,2,,,62,127
82005,note_off,107,0,0,,2,,,62,127
82007,note_on,2,0,0,,0,,,60,127
82114,note_off,107,0,0,,0,,,60,127
82116,note_on,2,0,0,,2,,,62,127
82223,note_off,107,0,0,,2,,,62,127
82223,note_off,0,0,0,,4,,,76,127
82225,note_on,2,0,0,,4,,,76,127
82225,note_on,0,0,0,,2,,,62,127
82332,note_off,107,0,0,,2,,,62,127
82334,note_on,2,0,0,,0,,,60,127
82441,note_off,107,0,0,,0,,,60,127
82443,note_on,2,0,0,,12,,,59,127
82550,note_off,107,0,0,,12,,,59,127
82552,note_on,2,0,0,,10,,,57,127
82659,note_off,107,0,0,,10,,,57,127
82661,note_on,2,0,0,,4,,,64,127
82768,note_off,107,0,0,,4,,,76,127
82770,note_on,2,0,0,,12,,,71,127
82877,note_off,107,0,0,,12,,,71,127
82879,note_on,2,0,0,,0,,,72,127
82986,note_off,107,0,0,,0,,,72,127
82988,note_on,2,0,0,,3,,,75,127
83095,note_off,107,0,0,,3,,,75,127
83097,note_on,2,0,0,,4,,,76,127
83204,note_off,107,0,0,,4,,,64,127
83206,note_on,2,0,0,,4,,,64,127
83313,note_off,107,0,0,,4,,,64,127
83313,note_off,0,0,0,,4,,,76,127
83315,note_on,2,0,0,,2,,,74,127
83315,note_on,0,0,0,,5,,,65,127
83422,note_off,107,0,0,,5,,,65,127
83424,note_on,2,0,0,,8,,,68,127
83531,note_off,107,0,0,,8,,,68,127
83531,note_off,0,0,0,,2,,,74,127
83533,note_on,2,0,0,,0,,,72,127
83533,note_on,0,0,0,,10,,,69,127
83640,note_off,107,0,0,,0,,,72,127
83642,note_on,2,0,0,,4,,,76,127
83749,note_off,107,0,0,,4,,,76,127
83751,note_on,2,0,0,,5,,,77,127
83858,note_off,107,0,0,,5,,,77,127
83860,note_on,2,0,0,,8,,,80,127
83967,note_off,107,0,0,,8,,,80,127
83969,note_on,2,0,0,,10,,,81,127
84076,note_off,107,0,0,,10,,,69,127
84078,note_on,2,0,0,,10,,,69,127
84185,note_off,107,0,0,,10,,,69,127
84185,note_off,0,0,0,,10,,,81,127
84187,note_on,2,0,0,,7,,,79,127
84187,note_on,0,0,0,,11,,,70,127
84294,note_off,107,0,0,,11,,,70,127
84296,note_on,2,0,0,,1,,,73,127
84403,note_off,107,0,0,,1,,,73,127
84403,note_off,0,0,0,,7,,,79,127
84405,note_on,2,0,0,,5,,,77,127
84405,note_on,0,0,0,,2,,,86,127
84405,note_on,0,0,0,,2,,,74,127
84512,note_off,107,0,0,,2,,,86,127
84514,note_on,2,0,0,,0,,,84,127
84621,note_off,107,0,0,,0,,,84,127
84623,note_on,2,0,0,,11,,,82,127
84730,note_off,107,0,0,,11,,,82,127
84732,note_on,2,0,0,,10,,,81,127
84837,note_off,105,0,0,,5,,,77,127
84839,note_off,2,0,0,,10,,,81,127
84839,note_off,0,0,0,,2,,,74,127
84841,note_on,2,0,0,,7,,,79,127
84841,note_on,0,0,0,,7,,,67,127
84951,note_on,110,0,0,,5,,,77,127
85058,note_off,107,0,0,,5,,,77,127
85060,note_on,2,0,0,,4,,,76,127
85167,note_off,107,0,0,,4,,,76,127
85169,note_on,2,0,0,,2,,,74,127
85274,note_off,105,0,0,,7,,,79,127
85276,note_off,2,0,0,,2,,,74,127
85276,note_off,0,0,0,,7,,,67,127
85278,note_on,2,0,0,,1,,,73,127
85278,note_on,0,0,0,,4,,,76,127
85278,note_on,0,0,0,,10,,,69,127
85385,note_off,107,0,0,,1,,,73,127
85387,note_on,2,0,0,,11,,,70,127
85494,note_off,107,0,0,,11,,,70,127
85494,note_off,0,0,0,,10,,,69,127
85496,note_on,2,0,0,,10,,,69,127
85603,note_off,107,0,0,,10,,,69,127
85605,note_on,2,0,0,,7,,,67,127
85710,note_off,105,0,0,,4,,,76,127
85712,note_off,2,0,0,,7,,,67,127
85714,note_on,2,0,0,,5,,,65,127
85714,note_on,0,0,0,,2,,,74,127
85714,note_on,0,0,0,,2,,,62,127
85821,note_off,107,0,0,,2,,,74,127
85823,note_on,2,0,0,,0,,,72,127
85930,note_off,107,0,0,,0,,,72,127
85932,note_on,2,0,0,,11,,,70,127
86039,note_off,107,0,0,,11,,,70,127
86041,note_on,2,0,0,,10,,,69,127
86146,note_off,105,0,0,,5,,,65,127
86148,note_off,2,0,0,,10,,,69,127
86148,note_off,0,0,0,,2,,,62,127
86150,note_on,2,0,0,,7,,,67,127
86150,note_on,0,0,0,,7,,,55,127
86260,note_on,110,0,0,,5,,,65,127
86367,note_off,107,0,0,,5,,,65,127
86369,note_on,2,0,0,,4,,,64,127
86476,note_off,107,0,0,,4,,,64,127
86478,note_on,2,0,0,,2,,,62,127
86583,note_off,105,0,0,,7,,,67,127
86585,note_off,2,0,0,,2,,,62,127
86585,note_off,0,0,0,,7,,,55,127
86587,note_on,2,0,0,,4,,,64,127
86587,note_on,0,0,0,,1,,,61,127
86587,note_on,0,0,0,,10,,,57,127
86694,note_off,107,0,0,,1,,,61,127
86696,note_on,2,0,0,,11,,,58,127
86803,note_off,107,0,0,,11,,,58,127
86803,note_off,0,0,0,,10,,,57,127
86805,note_on,2,0,0,,10,,,57,127
86912,note_off,107,0,0,,10,,,57,127
86914,note_on,2,0,0,,7,,,55,127
87019,note_off,105,0,0,,4,,,64,127
87021,note_off,2,0,0,,7,,,55,127
87023,note_on,2,0,0,,5,,,53,127
87023,note_on,0,0,0,,2,,,62,127
87023,note_on,0,0,0,,2,,,50,127
87130,note_off,107,0,0,,2,,,62,127
87132,note_on,2,0,0,,0,,,60,127
87239,note_off,107,0,0,,0,,,60,127
87241,note_on,2,0,0,,11,,,58,127
87348,note_off,107,0,0,,11,,,58,127
87350,note_on,2,0,0,,10,,,57,127
87455,note_off,105,0,0,,5,,,53,127
87457,note_off,2,0,0,,10,,,57,127
87457,note_off,0,0,0,,2,,,50,127
87459,note_on,2,0,0,,7,,,55,127
87459,note_on,0,0,0,,11,,,46,127
87459,note_on,0,0,0,,11,,,34,127
87893,note_off,434,0,0,,7,,,55,127
87895,note_off,2,0,0,,11,,,34,127
87895,note_off,0,0,0,,11,,,46,127
87897,note_on,2,0,0,,10,,,45,127
87897,note_on,0,0,0,,10,,,33,127
88554,note_off,657,0,0,,10,,,45,127
88773,note_off,219,0,0,,10,,,33,127
88884,note_on,111,0,0,,4,,,76,127
88991,note_off,107,0,0,,4,,,76,127
88993,note_on,2,0,0,,5,,,77,127
89100,note_off,107,0,0,,5,,,77,127
89102,note_on,2,0,0,,8,,,80,127
89209,note_off,107,0,0,,8,,,80,127
89211,note_on,2,0,0,,10,,,81,127
89321,note_on,110,0,0,,10,,,69,127
89428,note_off,107,0,0,,10,,,69,127
89428,note_off,0,0,0,,10,,,81,127
89430,note_on,2,0,0,,7,,,79,127
89430,note_on,0,0,0,,11,,,70,127
89537,note_off,107,0,0,,11,,,70,127
89539,note_on,2,0,0,,1,,,73,127
89646,note_off,107,0,0,,1,,,73,127
89646,note_off,0,0,0,,7,,,79,127
89648,note_on,2,0,0,,5,,,77,127
89648,note_on,0,0,0,,2,,,74,127
89758,note_on,110,0,0,,2,,,62,127
89865,note_off,107,0,0,,2,,,62,127
89867,note_on,2,0,0,,5,,,65,127
89974,note_off,107,0,0,,5,,,65,127
89976,note_on,2,0,0,,8,,,68,127
90083,note_off,107,0,0,,8,,,68,127
90085,note_on,2,0,0,,10,,,69,127
90192,note_off,107,0,0,,2,,,74,127
90192,note_off,0,0,0,,5,,,77,127
90194,note_on,2,0,0,,4,,,76,127
90301,note_off,107,0,0,,4,,,76,127
90303,note_on,2,0,0,,5,,,77,127
90410,note_off,107,0,0,,5,,,77,127
90412,note_on,2,0,0,,8,,,80,127
90517,note_off,105,0,0,,10,,,69,127
90519,note_off,2,0,0,,8,,,80,127
90521,note_on,2,0,0,,10,,,81,127
90631,note_on,110,0,0,,10,,,69,127
90738,note_off,107,0,0,,10,,,69,127
90738,note_off,0,0,0,,10,,,81,127
90740,note_on,2,0,0,,7,,,79,127
90740,note_on,0,0,0,,11,,,70,127
90847,note_off,107,0,0,,11,,,70,127
90849,note_on,2,0,0,,1,,,73,127
90956,note_off,107,0,0,,1,,,73,127
90956,note_off,0,0,0,,7,,,79,127
90958,note_on,2,0,0,,2,,,74,127
90958,note_on,0,0,0,,5,,,77,127
91068,note_on,110,0,0,,2,,,62,127
91175,note_off,107,0,0,,2,,,62,127
91177,note_on,2,0,0,,5,,,65,127
91284,note_off,107,0,0,,5,,,65,127
91286,note_on,2,0,0,,8,,,68,127
91393,note_off,107,0,0,,8,,,68,127
91395,note_on,2,0,0,,10,,,69,127
91502,note_off,107,0,0,,5,,,77,127
91502,note_off,0,0,0,,2,,,74,127
91504,note_on,2,0,0,,4,,,76,127
91611,note_off,107,0,0,,4,,,76,127
91613,note_on,2,0,0,,5,,,77,127
91720,note_off,107,0,0,,5,,,77,127
91722,note_on,2,0,0,,8,,,80,127
91829,note_off,107,0,0,,8,,,80,127
91831,note_on,2,0,0,,10,,,81,127
91938,note_off,107,0,0,,10,,,81,127
91940,note_on,2,0,0,,10,,,81,127
92047,note_off,107,0,0,,10,,,81,127
92047,note_off,0,0,0,,10,,,69,127
92049,note_on,2,0,0,,11,,,82,127
92049,note_on,0,0,0,,7,,,67,127
92156,note_off,107,0,0,,11,,,82,127
92158,note_on,2,0,0,,1,,,85,127
92265,note_off,107,0,0,,1,,,85,127
92265,note_off,0,0,0,,7,,,67,127
92267,note_on,2,0,0,,2,,,86,127
92267,note_on,0,0,0,,5,,,65,127
92377,note_on,110,0,0,,2,,,74,127
92484,note_off,107,0,0,,2,,,74,127
92484,note_off,0,0,0,,2,,,86,127
92486,note_on,2,0,0,,5,,,77,127
92593,note_off,107,0,0,,5,,,77,127
92595,note_on,2,0,0,,10,,,81,127
92702,note_off,107,0,0,,10,,,81,127
92702,note_off,0,0,0,,5,,,65,127
92704,note_on,2,0,0,,11,,,82,127
92704,note_on,0,0,0,,7,,,67,127
92811,note_off,107,0,0,,11,,,82,127
92813,note_on,2,0,0,,1,,,73,127
92920,note_off,107,0,0,,1,,,73,127
92922,note_on,2,0,0,,4,,,76,127
93029,note_off,107,0,0,,4,,,76,127
93031,note_on,2,0,0,,8,,,80,127
93138,note_off,107,0,0,,8,,,80,127
93138,note_off,0,0,0,,7,,,67,127
93140,note_on,2,0,0,,10,,,81,127
93140,note_on,0,0,0,,10,,,69,127
93247,note_off,107,0,0,,10,,,81,127
93249,note_on,2,0,0,,5,,,77,127
93356,note_off,107,0,0,,5,,,77,127
93358,note_on,2,0,0,,7,,,79,127
93465,note_off,107,0,0,,7,,,79,127
93467,note_on,2,0,0,,4,,,76,127
93574,note_off,107,0,0,,4,,,76,127
93576,note_on,2,0,0,,5,,,77,127
93576,note_on,0,0,0,,10,,,57,127
93683,note_off,107,0,0,,5,,,77,127
93685,note_on,2,0,0,,2,,,74,127
93792,note_off,107,0,0,,2,,,74,127
93794,note_on,2,0,0,,4,,,76,127
93901,note_off,107,0,0,,4,,,76,127
93903,note_on,2,0,0,,1,,,73,127
94010,note_off,107,0,0,,1,,,73,127
94010,note_off,0,0,0,,10,,,57,127
94011,note_off,1,0,0,,10,,,69,127
94012,note_on,1,0,0,,2,,,74,127
94012,note_on,0,0,0,,2,,,62,127
94119,note_off,107,0,0,,2,,,74,127
94121,note_on,2,0,0,,4,,,76,127
94228,note_off,107,0,0,,4,,,76,127
94230,note_on,2,0,0,,5,,,77,127
94337,note_off,107,0,0,,5,,,77,127
94339,note_off,2,0,0,,2,,,62,127
94339,note_on,0,0,0,,8,,,80,127
94446,note_off,107,0,0,,8,,,80,127
94448,note_on,2,0,0,,10,,,81,127
94558,note_on,110,0,0,,10,,,69,127
94665,note_off,107,0,0,,10,,,69,127
94665,note_off,0,0,0,,10,,,81,127
94667,note_on,2,0,0,,7,,,79,127
94667,note_on,0,0,0,,11,,,70,127
94774,note_off,107,0,0,,11,,,70,127
94776,note_on,2,0,0,,1,,,73,127
94883,note_off,107,0,0,,1,,,73,127
94883,note_off,0,0,0,,7,,,79,127
94885,note_on,2,0,0,,5,,,77,127
94885,note_on,0,0,0,,2,,,74,127
94995,note_on,110,0,0,,2,,,62,127
95102,note_off,107,0,0,,2,,,62,127
95104,note_on,2,0,0,,5,,,65,127
95211,note_off,107,0,0,,5,,,65,127
95213,note_on,2,0,0,,8,,,68,127
95320,note_off,107,0,0,,8,,,68,127
95322,note_on,2,0,0,,10,,,69,127
95429,note_off,107,0,0,,2,,,74,127
95429,note_off,0,0,0,,5,,,77,127
95431,note_on,2,0,0,,4,,,76,127
95538,note_off,107,0,0,,4,,,76,127
95540,note_on,2,0,0,,5,,,77,127
95647,note_off,107,0,0,,5,,,77,127
95649,note_on,2,0,0,,8,,,80,127
95754,note_off,105,0,0,,10,,,69,127
95756,note_off,2,0,0,,8,,,80,127
95758,note_on,2,0,0,,10,,,81,127
95868,note_on,110,0,0,,10,,,69,127
95975,note_off,107,0,0,,10,,,69,127
95975,note_off,0,0,0,,10,,,81,127
95977,note_on,2,0,0,,11,,,70,127
95977,note_on,0,0,0,,7,,,79,127
96084,note_off,107,0,0,,11,,,70,127
96086,note_on,2,0,0,,1,,,73,127
96193,note_off,107,0,0,,1,,,73,127
96193,note_off,0,0,0,,7,,,79,127
96195,note_on,2,0,0,,2,,,74,127
96195,note_on,0,0,0,,5,,,77,127
96305,note_on,110,0,0,,2,,,62,127
96412,note_off,107,0,0,,2,,,62,127
96414,note_on,2,0,0,,5,,,65,127
96521,note_off,107,0,0,,5,,,65,127
96523,note_on,2,0,0,,8,,,68,127
96630,note_off,107,0,0,,8,,,68,127
96632,note_on,2,0,0,,10,,,69,127
96739,note_off,107,0,0,,5,,,77,127
96739,note_off,0,0,0,,2,,,74,127
96741,note_on,2,0,0,,4,,,76,127
96848,note_off,107,0,0,,4,,,76,127
96850,note_on,2,0,0,,5,,,77,127
96957,note_off,107,0,0,,5,,,77,127
96959,note_on,2,0,0,,8,,,80,127
97066,note_off,107,0,0,,8,,,80,127
97068,note_on,2,0,0,,10,,,81,127
97175,note_off,107,0,0,,10,,,81,127
97177,note_on,2,0,0,,10,,,81,127
97284,note_off,107,0,0,,10,,,81,127
97284,note_off,0,0,0,,10,,,69,127
97286,note_on,2,0,0,,11,,,82,127
97286,note_on,0,0,0,,7,,,67,127
97393,note_off,107,0,0,,11,,,82,127
97395,note_on,2,0,0,,1,,,85,127
97502,note_off,107,0,0,,1,,,85,127
97502,note_off,0,0,0,,7,,,67,127
97504,note_on,2,0,0,,2,,,86,127
97504,note_on,0,0,0,,5,,,65,127
97614,note_on,110,0,0,,2,,,74,127
97721,note_off,107,0,0,,2,,,74,127
97721,note_off,0,0,0,,2,,,86,127
97723,note_on,2,0,0,,5,,,77,127
97830,note_off,107,0,0,,5,,,77,127
97832,note_on,2,0,0,,10,,,81,127
97939,note_off,107,0,0,,10,,,81,127
97939,note_off,0,0,0,,5,,,65,127
97941,note_on,2,0,0,,11,,,82,127
97941,note_on,0,0,0,,7,,,67,127
98048,note_off,107,0,0,,11,,,82,127
98050,note_on,2,0,0,,1,,,73,127
98157,note_off,107,0,0,,1,,,73,127
98159,note_on,2,0,0,,4,,,76,127
98266,note_off,107,0,0,,4,,,76,127
98268,note_on,2,0,0,,8,,,80,127
98375,note_off,107,0,0,,8,,,80,127
98375,note_off,0,0,0,,7,,,67,127
98377,note_on,2,0,0,,10,,,81,127
98377,note_on,0,0,0,,10,,,69,127
98484,note_off,107,0,0,,10,,,81,127
98486,note_on,2,0,0,,5,,,77,127
98593,note_off,107,0,0,,5,,,77,127
98595,note_on,2,0,0,,7,,,79,127
98702,note_off,107,0,0,,7,,,79,127
98704,note_on,2,0,0,,4,,,76,127
98811,note_off,107,0,0,,4,,,76,127
98811,note_off,0,0,0,,10,,,69,127
98813,note_on,2,0,0,,5,,,77,127
98813,note_on,0,0,0,,10,,,57,127
98920,note_off,107,0,0,,5,,,77,127
98922,note_on,2,0,0,,2,,,74,127
99029,note_off,107,0,0,,2,,,74,127
99031,note_on,2,0,0,,4,,,76,127
99138,note_off,107,0,0,,4,,,76,127
99140,note_on,2,0,0,,1,,,73,127
99247,note_off,107,0,0,,1,,,73,127
99247,note_off,0,0,0,,10,,,57,127
99249,note_on,2,0,0,,2,,,74,127
99249,note_on,0,0,0,,2,,,62,127
99468,note_on,219,0,0,,2,,,86,127
99575,note_off,107,0,0,,2,,,86,127
99577,note_off,2,0,0,,2,,,74,127
99577,note_on,0,0,0,,1,,,85,127
99684,note_off,107,0,0,,1,,,85,127
99684,note_off,0,0,0,,2,,,62,127
99686,note_on,2,0,0,,2,,,86,127
99686,note_on,0,0,0,,2,,,74,127
99793,note_off,107,0,0,,2,,,86,127
99795,note_on,2,0,0,,10,,,81,127
99902,note_off,107,0,0,,10,,,81,127
99904,note_on,2,0,0,,12,,,83,127
100011,note_off,107,0,0,,12,,,83,127
100013,note_on,2,0,0,,7,,,79,127
100120,note_off,107,0,0,,7,,,79,127
100120,note_off,0,0,0,,2,,,74,127
100122,note_on,2,0,0,,10,,,81,127
100122,note_on,0,0,0,,1,,,73,127
100229,note_off,107,0,0,,10,,,81,127
100231,note_on,2,0,0,,6,,,78,127
100338,note_off,107,0,0,,6,,,78,127
100340,note_on,2,0,0,,7,,,79,127
100447,note_off,107,0,0,,7,,,79,127
100449,note_on,2,0,0,,4,,,76,127
100554,note_off,105,0,0,,1,,,73,127
100556,note_off,2,0,0,,4,,,76,127
100558,note_on,2,0,0,,6,,,78,127
100777,note_on,219,0,0,,2,,,74,127
100884,note_off,107,0,0,,2,,,74,127
100886,note_on,2,0,0,,1,,,73,127
100993,note_off,107,0,0,,1,,,73,127
100995,note_on,2,0,0,,2,,,74,127
101102,note_off,107,0,0,,2,,,74,127
101104,note_on,2,0,0,,10,,,69,127
101211,note_off,107,0,0,,10,,,69,127
101211,note_off,0,0,0,,6,,,78,127
101213,note_on,2,0,0,,7,,,79,127
101213,note_on,0,0,0,,12,,,71,127
101320,note_off,107,0,0,,12,,,71,127
101322,note_on,2,0,0,,7,,,67,127
101429,note_off,107,0,0,,7,,,67,127
101429,note_off,0,0,0,,7,,,79,127
101431,note_on,2,0,0,,10,,,81,127
101431,note_on,0,0,0,,10,,,69,127
101538,note_off,107,0,0,,10,,,69,127
101540,note_on,2,0,0,,6,,,66,127
101647,note_off,107,0,0,,6,,,66,127
101647,note_off,0,0,0,,10,,,81,127
101649,note_on,2,0,0,,12,,,83,127
101649,note_on,0,0,0,,7,,,67,127
101756,note_off,107,0,0,,7,,,67,127
101758,note_on,2,0,0,,4,,,64,127
101865,note_off,107,0,0,,4,,,64,127
101865,note_off,0,0,0,,12,,,83,127
101867,note_on,2,0,0,,10,,,81,127
101867,note_on,0,0,0,,6,,,66,127
102084,note_off,217,0,0,,10,,,81,127
102086,note_on,2,0,0,,2,,,86,127
102193,note_off,107,0,0,,2,,,86,127
102195,note_on,2,0,0,,1,,,85,127
102302,note_off,107,0,0,,1,,,85,127
102302,note_off,0,0,0,,6,,,66,127
102304,note_on,2,0,0,,2,,,86,127
102304,note_on,0,0,0,,2,,,74,127
102411,note_off,107,0,0,,2,,,86,127
102413,note_on,2,0,0,,10,,,81,127
102520,note_off,107,0,0,,10,,,81,127
102522,note_on,2,0,0,,12,,,83,127
102629,note_off,107,0,0,,12,,,83,127
102631,note_on,2,0,0,,7,,,79,127
102738,note_off,107,0,0,,7,,,79,127
102738,note_off,0,0,0,,2,,,74,127
102740,note_on,2,0,0,,10,,,81,127
102740,note_on,0,0,0,,1,,,73,127
102847,note_off,107,0,0,,10,,,81,127
102849,note_on,2,0,0,,6,,,78,127
102956,note_off,107,0,0,,6,,,78,127
102958,note_on,2,0,0,,7,,,79,127
103065,note_off,107,0,0,,7,,,79,127
103067,note_on,2,0,0,,4,,,76,127
103172,note_off,105,0,0,,1,,,73,127
103174,note_off,2,0,0,,4,,,76,127
103176,note_on,2,0,0,,6,,,78,127
103395,note_on,219,0,0,,2,,,74,127
103502,note_off,107,0,0,,2,,,74,127
103504,note_on,2,0,0,,1,,,73,127
103611,note_off,107,0,0,,1,,,73,127
103613,note_on,2,0,0,,2,,,74,127
103720,note_off,107,0,0,,2,,,74,127
103722,note_on,2,0,0,,10,,,69,127
103829,note_off,107,0,0,,10,,,69,127
103829,note_off,0,0,0,,6,,,78,127
103831,note_on,2,0,0,,7,,,79,127
103831,note_on,0,0,0,,12,,,71,127
103938,note_off,107,0,0,,12,,,71,127
103940,note_on,2,0,0,,7,,,67,127
104047,note_off,107,0,0,,7,,,67,127
104047,note_off,0,0,0,,7,,,79,127
104049,note_on,2,0,0,,10,,,81,127
104049,note_on,0,0,0,,10,,,69,127
104156,note_off,107,0,0,,10,,,69,127
104158,note_on,2,0,0,,6,,,66,127
104265,note_off,107,0,0,,6,,,66,127
104265,note_off,0,0,0,,10,,,81,127
104267,note_on,2,0,0,,12,,,83,127
104267,note_on,0,0,0,,7,,,67,127
104374,note_off,107,0,0,,7,,,67,127
104376,note_on,2,0,0,,4,,,64,127
104483,note_off,107,0,0,,4,,,64,127
104483,note_off,0,0,0,,12,,,83,127
104485,note_on,2,0,0,,10,,,81,127
104485,note_on,0,0,0,,6,,,66,127
104592,note_off,107,0,0,,6,,,66,127
104594,note_on,2,0,0,,2,,,62,127
104701,note_off,107,0,0,,2,,,62,127
104701,note_off,0,0,0,,10,,,81,127
104703,note_on,2,0,0,,7,,,79,127
104703,note_on,0,0,0,,4,,,64,127
104810,note_off,107,0,0,,4,,,64,127
104812,note_on,2,0,0,,1,,,61,127
104919,note_off,107,0,0,,1,,,61,127
104919,note_off,0,0,0,,7,,,79,127
104921,note_on,2,0,0,,6,,,78,127
104921,note_on,0,0,0,,2,,,62,127
105028,note_off,107,0,0,,2,,,62,127
105030,note_on,2,0,0,,10,,,57,127
105137,note_off,107,0,0,,10,,,57,127
105137,note_off,0,0,0,,6,,,78,127
105139,note_on,2,0,0,,4,,,76,127
105139,note_on,0,0,0,,12,,,59,127
105246,note_off,107,0,0,,12,,,59,127
105248,note_on,2,0,0,,7,,,55,127
105355,note_off,107,0,0,,7,,,55,127
105355,note_off,0,0,0,,4,,,76,127
105357,note_on,2,0,0,,2,,,74,127
105357,note_on,0,0,0,,10,,,57,127
105464,note_off,107,0,0,,10,,,57,127
105466,note_on,2,0,0,,6,,,54,127
105573,note_off,107,0,0,,6,,,54,127
105573,note_off,0,0,0,,2,,,74,127
105575,note_on,2,0,0,,1,,,73,127
105575,note_on,0,0,0,,7,,,55,127
105682,note_off,107,0,0,,7,,,55,127
105684,note_on,2,0,0,,4,,,52,127
105791,note_off,107,0,0,,4,,,52,127
105791,note_off,0,0,0,,1,,,73,127
105793,note_on,2,0,0,,2,,,74,127
105793,note_on,0,0,0,,6,,,54,127
105900,note_off,107,0,0,,2,,,74,127
105902,note_on,2,0,0,,4,,,76,127
106009,note_off,107,0,0,,4,,,76,127
106009,note_off,0,0,0,,6,,,54,127
106011,note_on,2,0,0,,6,,,78,127
106011,note_on,0,0,0,,7,,,55,127
106118,note_off,107,0,0,,6,,,78,127
106120,note_on,2,0,0,,7,,,79,127
106227,note_off,107,0,0,,7,,,79,127
106227,note_off,0,0,0,,7,,,55,127
106229,note_on,2,0,0,,6,,,78,127
106229,note_on,0,0,0,,10,,,57,127
106336,note_off,107,0,0,,6,,,78,127
106338,note_on,2,0,0,,7,,,79,127
106445,note_off,107,0,0,,7,,,79,127
106447,note_on,2,0,0,,10,,,81,127
106554,note_off,107,0,0,,10,,,81,127
106556,note_on,2,0,0,,7,,,79,127
106663,note_off,107,0,0,,7,,,79,127
106665,note_on,2,0,0,,6,,,78,127
106665,note_on,0,0,0,,10,,,45,127
106772,note_off,107,0,0,,6,,,78,127
106774,note_on,2,0,0,,4,,,76,127
106881,note_off,107,0,0,,4,,,76,127
106883,note_on,2,0,0,,2,,,74,127
106990,note_off,107,0,0,,2,,,74,127
106992,note_on,2,0,0,,1,,,73,127
107099,note_off,107,0,0,,1,,,73,127
107099,note_off,0,0,0,,10,,,45,127
107100,note_off,1,0,0,,10,,,57,127
107101,note_on,1,0,0,,2,,,74,127
107101,note_on,0,0,0,,2,,,50,127
107318,note_off,217,0,0,,2,,,74,127
107320,note_on,2,0,0,,2,,,86,127
107427,note_off,107,0,0,,2,,,86,127
107429,note_on,2,0,0,,1,,,85,127
107536,note_off,107,0,0,,1,,,85,127
107538,note_on,2,0,0,,2,,,86,127
107538,note_on,0,0,0,,2,,,62,127
107645,note_off,107,0,0,,2,,,86,127
107647,note_on,2,0,0,,10,,,81,127
107656,note_off,9,0,0,,2,,,50,127
107754,note_off,98,0,0,,10,,,81,127
107756,note_on,2,0,0,,12,,,83,127
107863,note_off,107,0,0,,12,,,83,127
107865,note_on,2,0,0,,7,,,79,127
107972,note_off,107,0,0,,7,,,79,127
107972,note_off,0,0,0,,2,,,62,127
107974,note_on,2,0,0,,10,,,81,127
107974,note_on,0,0,0,,1,,,61,127
108081,note_off,107,0,0,,10,,,81,127
108083,note_on,2,0,0,,6,,,78,127
108190,note_off,107,0,0,,6,,,78,127
108192,note_on,2,0,0,,7,,,79,127
108299,note_off,107,0,0,,7,,,79,127
108301,note_on,2,0,0,,4,,,76,127
108408,note_off,107,0,0,,4,,,76,127
108408,note_off,0,0,0,,1,,,61,127
108410,note_on,2,0,0,,6,,,78,127
108410,note_on,0,0,0,,2,,,62,127
108517,note_off,107,0,0,,6,,,78,127
108519,note_on,2,0,0,,2,,,74,127
108626,note_off,107,0,0,,2,,,74,127
108628,note_on,2,0,0,,4,,,76,127
108735,note_off,107,0,0,,4,,,76,127
108737,note_on,2,0,0,,1,,,73,127
108844,note_off,107,0,0,,1,,,73,127
108844,note_off,0,0,0,,2,,,62,127
108846,note_on,2,0,0,,2,,,74,127
108846,note_on,0,0,0,,7,,,55,127
108953,note_off,107,0,0,,2,,,74,127
108955,note_on,2,0,0,,10,,,69,127
109062,note_off,107,0,0,,10,,,69,127
109064,note_on,2,0,0,,12,,,71,127
109171,note_off,107,0,0,,12,,,71,127
109173,note_on,2,0,0,,7,,,67,127
109280,note_off,107,0,0,,7,,,67,127
109280,note_off,0,0,0,,7,,,55,127
109282,note_on,2,0,0,,6,,,66,127
109282,note_on,0,0,0,,10,,,57,127
109389,note_off,107,0,0,,6,,,66,127
109391,note_on,2,0,0,,2,,,74,127
109498,note_off,107,0,0,,2,,,74,127
109500,note_on,2,0,0,,4,,,64,127
109607,note_off,107,0,0,,4,,,64,127
109609,note_on,2,0,0,,1,,,73,127
109716,note_off,107,0,0,,1,,,73,127
109716,note_off,0,0,0,,10,,,57,127
109718,note_on,2,0,0,,2,,,74,127
109718,note_on,0,0,0,,2,,,38,127
109935,note_off,217,0,0,,2,,,74,127
109937,note_on,2,0,0,,2,,,74,127
110044,note_off,107,0,0,,2,,,74,127
110046,note_on,2,0,0,,1,,,73,127
110153,note_off,107,0,0,,1,,,73,127
110153,note_off,0,0,0,,2,,,38,127
110155,note_on,2,0,0,,2,,,74,127
110155,note_on,0,0,0,,2,,,50,127
110262,note_off,107,0,0,,2,,,74,127
110264,note_on,2,0,0,,10,,,69,127
110371,note_off,107,0,0,,10,,,69,127
110373,note_on,2,0,0,,12,,,71,127
110480,note_off,107,0,0,,12,,,71,127
110482,note_on,2,0,0,,7,,,67,127
110589,note_off,107,0,0,,7,,,67,127
110589,note_off,0,0,0,,2,,,50,127
110591,note_on,2,0,0,,10,,,69,127
110591,note_on,0,0,0,,1,,,49,127
110698,note_off,107,0,0,,10,,,69,127
110700,note_on,2,0,0,,6,,,66,127
110807,note_off,107,0,0,,6,,,66,127
110809,note_on,2,0,0,,7,,,67,127
110916,note_off,107,0,0,,7,,,67,127
110918,note_on,2,0,0,,4,,,64,127
111025,note_off,107,0,0,,4,,,64,127
111025,note_off,0,0,0,,1,,,49,127
111027,note_on,2,0,0,,6,,,66,127
111027,note_on,0,0,0,,2,,,50,127
111134,note_off,107,0,0,,6,,,66,127
111136,note_on,2,0,0,,2,,,62,127
111243,note_off,107,0,0,,2,,,62,127
111245,note_on,2,0,0,,4,,,64,127
111352,note_off,107,0,0,,4,,,64,127
111354,note_on,2,0,0,,1,,,61,127
111461,note_off,107,0,0,,1,,,61,127
111461,note_off,0,0,0,,2,,,50,127
111463,note_on,2,0,0,,2,,,62,127
111463,note_on,0,0,0,,7,,,43,127
111570,note_off,107,0,0,,2,,,62,127
111572,note_on,2,0,0,,10,,,57,127
111679,note_off,107,0,0,,10,,,57,127
111681,note_on,2,0,0,,12,,,59,127
111788,note_off,107,0,0,,12,,,59,127
111790,note_on,2,0,0,,7,,,55,127
111897,note_off,107,0,0,,7,,,55,127
111897,note_off,0,0,0,,7,,,43,127
111899,note_on,2,0,0,,6,,,54,127
111899,note_on,0,0,0,,10,,,45,127
112006,note_off,107,0,0,,6,,,54,127
112008,note_on,2,0,0,,2,,,62,127
112115,note_off,107,0,0,,2,,,62,127
112117,note_on,2,0,0,,4,,,52,127
112224,note_off,107,0,0,,4,,,52,127
112226,note_on,2,0,0,,1,,,61,127
112333,note_off,107,0,0,,1,,,61,127
112333,note_off,0,0,0,,10,,,45,127
112335,note_on,2,0,0,,1,,,61,127
112335,note_on,0,0,0,,2,,,38,127
112335,note_on,0,0,0,,2,,,50,127
112884,note_off,549,0,0,,1,,,61,127
112884,note_on,0,0,0,,2,,,62,127
114859,note_off,1975,0,0,,2,,,62,127
114859,note_off,0,0,0,,2,,,50,127
114859,note_off,0,0,0,,2,,,38,127
119808,end_of_track,4949,1,0,,,,,,
