tick,type,time,meta,track,program,channel,pitch,tempo,note,velocity
0,copyright,0,1,0,,,,,,
0,program_change,0,0,0,6,0,,,,
0,pitchwheel,0,0,0,,0,0,,,
0,program_change,0,0,0,6,1,,,,
0,pitchwheel,0,0,0,,1,-590,,,
0,program_change,0,0,0,6,2,,,,
0,pitchwheel,0,0,0,,2,-272,,,
0,program_change,0,0,0,6,3,,,,
0,pitchwheel,0,0,0,,3,-353,,,
0,program_change,0,0,0,6,4,,,,
0,pitchwheel,0,0,0,,4,-560,,,
0,program_change,0,0,0,6,5,,,,
0,pitchwheel,0,0,0,,5,-80,,,
0,program_change,0,0,0,6,6,,,,
0,pitchwheel,0,0,0,,6,-625,,,
0,program_change,0,0,0,6,7,,,,
0,pitchwheel,0,0,0,,7,-130,,,
0,program_change,0,0,0,6,8,,,,
0,pitchwheel,0,0,0,,8,-512,,,
0,program_change,0,0,0,6,10,,,,
0,pitchwheel,0,0,0,,10,-464,,,
0,program_change,0,0,0,6,11,,,,
0,pitchwheel,0,0,0,,11,-208,,,
0,program_change,0,0,0,6,12,,,,
0,pitchwheel,0,0,0,,12,-553,,,
0,set_tempo,0,1,0,,,,500000,,
140,note_on,140,0,0,,10,,,81,127
141,note_on,1,0,0,,7,,,79,127
279,note_off,138,0,0,,10,,,81,127
280,note_off,1,0,0,,7,,,79,127
280,note_on,0,0,0,,6,,,78,127
419,note_off,139,0,0,,6,,,78,127
420,note_on,1,0,0,,7,,,79,127
559,note_off,139,0,0,,7,,,79,127
560,note_on,1,0,0,,10,,,81,127
699,note_off,139,0,0,,10,,,81,127
700,note_on,1,0,0,,2,,,74,127
981,note_on,281,0,0,,7,,,67,127
1261,note_off,280,0,0,,7,,,67,127
1262,note_on,1,0,0,,10,,,69,127
1542,note_off,280,0,0,,10,,,69,127
1542,note_off,0,0,0,,2,,,74,127
1543,note_on,1,0,0,,12,,,71,127
1543,note_on,0,0,0,,3,,,75,127
1823,note_off,280,0,0,,3,,,75,127
1823,note_off,0,0,0,,12,,,71,127
1824,note_on,1,0,0,,0,,,72,127
1824,note_on,0,0,0,,6,,,78,127
1825,note_on,1,0,0,,4,,,76,127
1963,note_off,138,0,0,,6,,,78,127
1964,note_off,1,0,0,,4,,,76,127
1964,note_on,0,0,0,,3,,,75,127
2103,note_off,139,0,0,,3,,,75,127
2104,note_on,1,0,0,,4,,,76,127
2243,note_off,139,0,0,,4,,,76,127
2244,note_on,1,0,0,,6,,,78,127
2383,note_off,139,0,0,,6,,,78,127
2383,note_off,0,0,0,,0,,,72,127
2384,note_on,1,0,0,,10,,,69,127
2665,note_on,281,0,0,,12,,,71,127
2945,note_off,280,0,0,,12,,,71,127
2945,note_off,0,0,0,,10,,,69,127
2946,note_on,1,0,0,,10,,,69,127
3226,note_off,280,0,0,,10,,,69,127
3227,note_on,1,0,0,,7,,,67,127
3227,note_on,0,0,0,,12,,,71,127
3507,note_off,280,0,0,,12,,,71,127
3507,note_off,0,0,0,,7,,,67,127
3508,note_on,1,0,0,,6,,,66,127
3508,note_on,0,0,0,,2,,,74,127
3509,note_on,1,0,0,,0,,,72,127
3647,note_off,138,0,0,,2,,,74,127
3648,note_off,1,0,0,,0,,,72,127
3648,note_on,0,0,0,,12,,,71,127
3787,note_off,139,0,0,,12,,,71,127
3787,note_off,0,0,0,,6,,,66,127
3788,note_on,1,0,0,,4,,,64,127
3788,note_on,0,0,0,,0,,,72,127
3927,note_off,139,0,0,,0,,,72,127
3928,note_on,1,0,0,,2,,,74,127
4067,note_off,139,0,0,,2,,,74,127
4067,note_off,0,0,0,,4,,,64,127
4068,note_on,1,0,0,,2,,,62,127
4068,note_on,0,0,0,,7,,,67,127
4348,note_off,280,0,0,,7,,,67,127
4348,note_off,0,0,0,,2,,,62,127
4349,note_on,1,0,0,,0,,,60,127
4349,note_on,0,0,0,,6,,,66,127
4629,note_off,280,0,0,,6,,,66,127
4629,note_off,0,0,0,,0,,,60,127
4630,note_on,1,0,0,,12,,,59,127
4630,note_on,0,0,0,,7,,,67,127
4910,note_off,280,0,0,,7,,,67,127
4910,note_off,0,0,0,,12,,,59,127
4911,note_on,1,0,0,,10,,,57,127
4911,note_on,0,0,0,,10,,,69,127
5191,note_off,280,0,0,,10,,,69,127
5191,note_off,0,0,0,,10,,,57,127
5192,note_on,1,0,0,,7,,,55,127
5192,note_on,0,0,0,,12,,,71,127
5331,note_off,139,0,0,,12,,,71,127
5332,note_on,1,0,0,,7,,,67,127
5471,note_off,139,0,0,,7,,,67,127
5472,note_on,1,0,0,,0,,,72,127
5611,note_off,139,0,0,,0,,,72,127
5612,note_on,1,0,0,,10,,,69,127
5751,note_off,139,0,0,,10,,,69,127
5752,note_on,1,0,0,,2,,,74,127
5891,note_off,139,0,0,,2,,,74,127
5892,note_on,1,0,0,,12,,,71,127
6031,note_off,139,0,0,,12,,,71,127
6032,note_on,1,0,0,,0,,,72,127
6171,note_off,139,0,0,,0,,,72,127
6172,note_on,1,0,0,,10,,,69,127
6311,note_off,139,0,0,,10,,,69,127
6312,note_off,1,0,0,,7,,,55,127
6312,note_on,0,0,0,,10,,,69,127
6359,note_on,47,0,0,,7,,,67,127
6381,note_off,22,0,0,,10,,,69,127
6406,note_on,25,0,0,,10,,,69,127
6428,note_off,22,0,0,,7,,,67,127
6453,note_on,25,0,0,,7,,,67,127
6475,note_off,22,0,0,,10,,,69,127
6886,note_off,411,0,0,,7,,,67,127
6898,note_on,12,0,0,,2,,,74,127
6898,note_on,0,0,0,,10,,,69,127
6899,note_on,1,0,0,,7,,,67,127
7037,note_off,138,0,0,,10,,,69,127
7038,note_off,1,0,0,,7,,,67,127
7038,note_on,0,0,0,,6,,,66,127
7177,note_off,139,0,0,,6,,,66,127
7178,note_on,1,0,0,,7,,,67,127
7317,note_off,139,0,0,,7,,,67,127
7318,note_on,1,0,0,,10,,,69,127
7457,note_off,139,0,0,,10,,,69,127
7458,note_on,1,0,0,,2,,,62,127
7738,note_off,280,0,0,,2,,,74,127
7739,note_on,1,0,0,,0,,,72,127
8019,note_off,280,0,0,,0,,,72,127
8020,note_on,1,0,0,,12,,,71,127
8300,note_off,280,0,0,,12,,,71,127
8300,note_off,0,0,0,,2,,,62,127
8301,note_on,1,0,0,,10,,,69,127
8301,note_on,0,0,0,,3,,,63,127
8581,note_off,280,0,0,,3,,,63,127
8581,note_off,0,0,0,,10,,,69,127
8582,note_on,1,0,0,,7,,,67,127
8582,note_on,0,0,0,,6,,,66,127
8583,note_on,1,0,0,,4,,,64,127
8675,note_off,92,0,0,,6,,,66,127
8722,note_off,47,0,0,,4,,,64,127
8722,note_on,0,0,0,,3,,,63,127
8861,note_off,139,0,0,,3,,,63,127
8862,note_on,1,0,0,,4,,,64,127
9001,note_off,139,0,0,,4,,,64,127
9002,note_on,1,0,0,,6,,,66,127
9141,note_off,139,0,0,,6,,,66,127
9142,note_on,1,0,0,,10,,,57,127
9422,note_off,280,0,0,,7,,,67,127
9423,note_on,1,0,0,,6,,,66,127
9703,note_off,280,0,0,,6,,,66,127
9704,note_on,1,0,0,,7,,,67,127
9984,note_off,280,0,0,,7,,,67,127
9984,note_off,0,0,0,,10,,,57,127
9985,note_on,1,0,0,,10,,,69,127
9985,note_on,0,0,0,,0,,,60,127
10265,note_off,280,0,0,,0,,,60,127
10265,note_off,0,0,0,,10,,,69,127
10266,note_on,1,0,0,,2,,,62,127
10266,note_on,0,0,0,,0,,,60,127
10267,note_on,1,0,0,,12,,,59,127
10359,note_off,92,0,0,,0,,,60,127
10406,note_off,47,0,0,,12,,,59,127
10406,note_on,0,0,0,,10,,,57,127
10545,note_off,139,0,0,,10,,,57,127
10546,note_on,1,0,0,,12,,,59,127
10685,note_off,139,0,0,,12,,,59,127
10686,note_on,1,0,0,,0,,,60,127
10825,note_off,139,0,0,,0,,,60,127
10825,note_off,0,0,0,,2,,,62,127
10826,note_on,1,0,0,,2,,,74,127
10826,note_on,0,0,0,,2,,,62,127
11106,note_off,280,0,0,,2,,,62,127
11106,note_off,0,0,0,,2,,,74,127
11107,note_on,1,0,0,,4,,,76,127
11107,note_on,0,0,0,,0,,,60,127
11387,note_off,280,0,0,,0,,,60,127
11387,note_off,0,0,0,,4,,,76,127
11388,note_on,1,0,0,,2,,,74,127
11388,note_on,0,0,0,,12,,,59,127
11668,note_off,280,0,0,,12,,,59,127
11668,note_off,0,0,0,,2,,,74,127
11669,note_on,1,0,0,,0,,,72,127
11669,note_on,0,0,0,,10,,,57,127
11949,note_off,280,0,0,,10,,,57,127
11949,note_off,0,0,0,,0,,,72,127
11950,note_on,1,0,0,,12,,,71,127
11950,note_on,0,0,0,,7,,,55,127
12089,note_off,139,0,0,,12,,,71,127
12090,note_on,1,0,0,,7,,,67,127
12229,note_off,139,0,0,,7,,,67,127
12230,note_on,1,0,0,,0,,,72,127
12369,note_off,139,0,0,,0,,,72,127
12370,note_on,1,0,0,,10,,,69,127
12509,note_off,139,0,0,,10,,,69,127
12510,note_on,1,0,0,,2,,,74,127
12649,note_off,139,0,0,,2,,,74,127
12650,note_on,1,0,0,,12,,,71,127
12789,note_off,139,0,0,,12,,,71,127
12790,note_on,1,0,0,,0,,,72,127
12929,note_off,139,0,0,,0,,,72,127
12930,note_on,1,0,0,,10,,,69,127
13069,note_off,139,0,0,,10,,,69,127
13070,note_off,1,0,0,,7,,,55,127
13070,note_on,0,0,0,,10,,,69,127
13117,note_on,47,0,0,,7,,,67,127
13139,note_off,22,0,0,,10,,,69,127
13164,note_on,25,0,0,,10,,,69,127
13186,note_off,22,0,0,,7,,,67,127
13211,note_on,25,0,0,,7,,,67,127
13233,note_off,22,0,0,,10,,,69,127
13687,note_off,454,0,0,,7,,,67,127
13703,note_on,16,0,0,,2,,,74,127
13983,note_off,280,0,0,,2,,,74,127
13984,note_on,1,0,0,,4,,,76,127
13984,note_on,0,0,0,,0,,,72,127
14264,note_off,280,0,0,,0,,,72,127
14264,note_off,0,0,0,,4,,,76,127
14265,note_on,1,0,0,,5,,,77,127
14265,note_on,0,0,0,,12,,,71,127
14545,note_off,280,0,0,,12,,,71,127
14546,note_on,1,0,0,,10,,,69,127
14826,note_off,280,0,0,,10,,,69,127
14827,note_off,1,0,0,,5,,,77,127
14827,note_on,0,0,0,,8,,,68,127
14827,note_on,0,0,0,,4,,,76,127
15107,note_off,280,0,0,,4,,,76,127
15107,note_off,0,0,0,,8,,,68,127
15108,note_on,1,0,0,,5,,,65,127
15108,note_on,0,0,0,,2,,,74,127
15388,note_off,280,0,0,,5,,,65,127
15389,note_on,1,0,0,,4,,,40,127
15389,note_on,0,0,0,,4,,,64,127
15669,note_off,280,0,0,,4,,,64,127
15670,note_off,1,0,0,,2,,,74,127
15670,note_on,0,0,0,,8,,,68,127
15670,note_on,0,0,0,,12,,,71,127
15950,note_off,280,0,0,,12,,,71,127
15950,note_off,0,0,0,,8,,,68,127
15950,note_off,0,0,0,,4,,,40,127
15951,note_on,1,0,0,,4,,,40,127
15951,note_on,0,0,0,,10,,,69,127
15951,note_on,0,0,0,,0,,,72,127
16231,note_off,280,0,0,,0,,,72,127
16231,note_off,0,0,0,,10,,,69,127
16232,note_on,1,0,0,,5,,,65,127
16232,note_on,0,0,0,,2,,,74,127
16512,note_off,280,0,0,,2,,,74,127
16512,note_off,0,0,0,,5,,,65,127
16512,note_off,0,0,0,,4,,,40,127
16513,note_on,1,0,0,,4,,,40,127
16513,note_on,0,0,0,,4,,,64,127
16513,note_on,0,0,0,,4,,,76,127
16793,note_off,280,0,0,,4,,,76,127
16793,note_off,0,0,0,,4,,,64,127
16794,note_on,1,0,0,,8,,,68,127
16794,note_on,0,0,0,,12,,,71,127
17074,note_off,280,0,0,,12,,,71,127
17074,note_off,0,0,0,,8,,,68,127
17074,note_off,0,0,0,,4,,,40,127
17075,note_on,1,0,0,,4,,,40,127
17075,note_on,0,0,0,,10,,,69,127
17075,note_on,0,0,0,,0,,,72,127
17355,note_off,280,0,0,,0,,,72,127
17355,note_off,0,0,0,,10,,,69,127
17356,note_on,1,0,0,,2,,,74,127
17356,note_on,0,0,0,,5,,,65,127
17636,note_off,280,0,0,,5,,,65,127
17636,note_off,0,0,0,,2,,,74,127
17636,note_off,0,0,0,,4,,,40,127
17637,note_on,1,0,0,,4,,,40,127
17637,note_on,0,0,0,,4,,,64,127
17637,note_on,0,0,0,,4,,,76,127
17917,note_off,280,0,0,,4,,,76,127
17917,note_off,0,0,0,,4,,,64,127
17918,note_on,1,0,0,,12,,,71,127
17918,note_on,0,0,0,,8,,,68,127
18198,note_off,280,0,0,,8,,,68,127
18198,note_off,0,0,0,,12,,,71,127
18198,note_off,0,0,0,,4,,,40,127
18199,note_on,1,0,0,,4,,,40,127
18199,note_on,0,0,0,,10,,,69,127
18199,note_on,0,0,0,,0,,,72,127
18479,note_off,280,0,0,,0,,,72,127
18479,note_off,0,0,0,,10,,,69,127
18480,note_on,1,0,0,,3,,,75,127
18480,note_on,0,0,0,,6,,,66,127
18760,note_off,280,0,0,,6,,,66,127
18760,note_off,0,0,0,,3,,,75,127
18760,note_off,0,0,0,,4,,,40,127
18761,note_on,1,0,0,,4,,,40,127
18761,note_on,0,0,0,,4,,,76,127
18901,note_on,140,0,0,,12,,,71,127
19040,note_off,139,0,0,,12,,,71,127
19041,note_on,1,0,0,,0,,,72,127
19180,note_off,139,0,0,,0,,,72,127
19181,note_on,1,0,0,,10,,,69,127
19316,note_off,135,0,0,,4,,,76,127
19320,note_off,4,0,0,,10,,,69,127
19321,note_on,1,0,0,,12,,,71,127
19461,note_on,140,0,0,,8,,,68,127
19599,note_off,138,0,0,,12,,,71,127
19600,note_off,1,0,0,,8,,,68,127
19601,note_on,1,0,0,,10,,,69,127
19741,note_on,140,0,0,,6,,,66,127
19879,note_off,138,0,0,,10,,,69,127
19882,note_off,3,0,0,,4,,,40,127
19929,note_on,47,0,0,,4,,,64,127
19947,note_off,18,0,0,,6,,,66,127
19976,note_on,29,0,0,,6,,,66,127
19998,note_off,22,0,0,,4,,,64,127
20023,note_on,25,0,0,,4,,,64,127
20045,note_off,22,0,0,,6,,,66,127
20480,note_on,435,0,0,,4,,,76,127
20481,note_off,1,0,0,,4,,,64,127
20759,note_off,278,0,0,,4,,,76,127
20760,note_on,1,0,0,,6,,,78,127
20760,note_on,0,0,0,,2,,,74,127
21040,note_off,280,0,0,,2,,,74,127
21040,note_off,0,0,0,,6,,,78,127
21041,note_on,1,0,0,,0,,,72,127
21041,note_on,0,0,0,,7,,,79,127
21321,note_off,280,0,0,,0,,,72,127
21322,note_on,1,0,0,,12,,,71,127
21602,note_off,280,0,0,,12,,,71,127
21603,note_off,1,0,0,,7,,,79,127
21603,note_on,0,0,0,,6,,,78,127
21603,note_on,0,0,0,,11,,,70,127
21883,note_off,280,0,0,,11,,,70,127
21883,note_off,0,0,0,,6,,,78,127
21884,note_on,1,0,0,,7,,,67,127
21884,note_on,0,0,0,,4,,,76,127
22164,note_off,280,0,0,,7,,,67,127
22165,note_on,1,0,0,,6,,,66,127
22165,note_on,0,0,0,,6,,,42,127
22445,note_off,280,0,0,,6,,,66,127
22446,note_off,1,0,0,,4,,,76,127
22446,note_on,0,0,0,,1,,,73,127
22446,note_on,0,0,0,,11,,,70,127
22726,note_off,280,0,0,,11,,,70,127
22726,note_off,0,0,0,,1,,,73,127
22726,note_off,0,0,0,,6,,,42,127
22727,note_on,1,0,0,,12,,,71,127
22727,note_on,0,0,0,,2,,,74,127
22727,note_on,0,0,0,,6,,,42,127
23007,note_off,280,0,0,,2,,,74,127
23007,note_off,0,0,0,,12,,,71,127
23008,note_on,1,0,0,,7,,,67,127
23008,note_on,0,0,0,,4,,,76,127
23288,note_off,280,0,0,,4,,,76,127
23288,note_off,0,0,0,,7,,,67,127
23288,note_off,0,0,0,,6,,,42,127
23289,note_on,1,0,0,,6,,,66,127
23289,note_on,0,0,0,,6,,,78,127
23289,note_on,0,0,0,,6,,,42,127
23569,note_off,280,0,0,,6,,,78,127
23569,note_off,0,0,0,,6,,,66,127
23570,note_on,1,0,0,,11,,,70,127
23570,note_on,0,0,0,,1,,,73,127
23850,note_off,280,0,0,,1,,,73,127
23850,note_off,0,0,0,,11,,,70,127
23850,note_off,0,0,0,,6,,,42,127
23851,note_on,1,0,0,,2,,,74,127
23851,note_on,0,0,0,,12,,,71,127
23851,note_on,0,0,0,,6,,,42,127
24131,note_off,280,0,0,,12,,,71,127
24131,note_off,0,0,0,,2,,,74,127
24132,note_on,1,0,0,,4,,,76,127
24132,note_on,0,0,0,,7,,,67,127
24412,note_off,280,0,0,,7,,,67,127
24412,note_off,0,0,0,,4,,,76,127
24412,note_off,0,0,0,,6,,,42,127
24413,note_on,1,0,0,,6,,,66,127
24413,note_on,0,0,0,,6,,,78,127
24413,note_on,0,0,0,,6,,,42,127
24693,note_off,280,0,0,,6,,,78,127
24693,note_off,0,0,0,,6,,,66,127
24694,note_on,1,0,0,,1,,,73,127
24694,note_on,0,0,0,,11,,,70,127
24974,note_off,280,0,0,,11,,,70,127
24974,note_off,0,0,0,,1,,,73,127
24974,note_off,0,0,0,,6,,,42,127
24975,note_on,1,0,0,,2,,,74,127
24975,note_on,0,0,0,,12,,,71,127
24975,note_on,0,0,0,,6,,,42,127
25255,note_off,280,0,0,,12,,,71,127
25255,note_off,0,0,0,,2,,,74,127
25256,note_on,1,0,0,,5,,,77,127
25256,note_on,0,0,0,,8,,,68,127
25536,note_off,280,0,0,,8,,,68,127
25536,note_off,0,0,0,,5,,,77,127
25536,note_off,0,0,0,,6,,,42,127
25537,note_on,1,0,0,,6,,,78,127
25537,note_on,0,0,0,,6,,,42,127
25677,note_on,140,0,0,,1,,,73,127
25816,note_off,139,0,0,,1,,,73,127
25817,note_on,1,0,0,,2,,,74,127
25956,note_off,139,0,0,,2,,,74,127
25957,note_on,1,0,0,,12,,,71,127
26092,note_off,135,0,0,,6,,,78,127
26096,note_off,4,0,0,,12,,,71,127
26097,note_on,1,0,0,,1,,,73,127
26237,note_on,140,0,0,,11,,,70,127
26375,note_off,138,0,0,,1,,,73,127
26376,note_off,1,0,0,,11,,,70,127
26377,note_on,1,0,0,,12,,,71,127
26517,note_on,140,0,0,,8,,,68,127
26655,note_off,138,0,0,,12,,,71,127
26705,note_on,50,0,0,,6,,,66,127
26723,note_off,18,0,0,,8,,,68,127
26752,note_on,29,0,0,,8,,,68,127
26774,note_off,22,0,0,,6,,,66,127
26799,note_on,25,0,0,,6,,,66,127
26821,note_off,22,0,0,,8,,,68,127
27219,note_off,398,0,0,,6,,,42,127
27254,note_off,35,0,0,,6,,,66,127
27279,note_on,25,0,0,,12,,,71,127
27419,note_on,140,0,0,,2,,,74,127
27558,note_off,139,0,0,,2,,,74,127
27559,note_on,1,0,0,,1,,,73,127
27698,note_off,139,0,0,,1,,,73,127
27699,note_on,1,0,0,,2,,,74,127
27838,note_off,139,0,0,,2,,,74,127
27839,note_on,1,0,0,,4,,,76,127
27978,note_off,139,0,0,,4,,,76,127
27979,note_on,1,0,0,,3,,,75,127
28118,note_off,139,0,0,,3,,,75,127
28118,note_off,0,0,0,,12,,,71,127
28119,note_on,1,0,0,,6,,,78,127
28119,note_on,0,0,0,,10,,,69,127
28258,note_off,139,0,0,,6,,,78,127
28259,note_on,1,0,0,,4,,,76,127
28398,note_off,139,0,0,,4,,,76,127
28398,note_off,0,0,0,,10,,,69,127
28399,note_on,1,0,0,,7,,,79,127
28399,note_on,0,0,0,,7,,,67,127
28538,note_off,139,0,0,,7,,,79,127
28539,note_on,1,0,0,,6,,,78,127
28678,note_off,139,0,0,,6,,,78,127
28678,note_off,0,0,0,,7,,,67,127
28679,note_on,1,0,0,,10,,,81,127
28679,note_on,0,0,0,,6,,,66,127
28818,note_off,139,0,0,,10,,,81,127
28819,note_on,1,0,0,,7,,,79,127
28958,note_off,139,0,0,,7,,,79,127
28958,note_off,0,0,0,,6,,,66,127
28959,note_on,1,0,0,,12,,,83,127
28959,note_on,0,0,0,,7,,,67,127
29099,note_on,140,0,0,,12,,,71,127
29169,note_off,70,0,0,,12,,,83,127
29238,note_off,69,0,0,,12,,,71,127
29239,note_on,1,0,0,,11,,,70,127
29378,note_off,139,0,0,,11,,,70,127
29379,note_on,1,0,0,,12,,,71,127
29518,note_off,139,0,0,,12,,,71,127
29519,note_on,1,0,0,,1,,,73,127
29658,note_off,139,0,0,,1,,,73,127
29659,note_on,1,0,0,,12,,,71,127
29798,note_off,139,0,0,,12,,,71,127
29798,note_off,0,0,0,,7,,,67,127
29799,note_on,1,0,0,,3,,,75,127
29799,note_on,0,0,0,,6,,,66,127
29938,note_off,139,0,0,,3,,,75,127
29939,note_on,1,0,0,,1,,,73,127
30078,note_off,139,0,0,,1,,,73,127
30078,note_off,0,0,0,,6,,,66,127
30079,note_on,1,0,0,,4,,,76,127
30079,note_on,0,0,0,,4,,,64,127
30218,note_off,139,0,0,,4,,,76,127
30219,note_on,1,0,0,,3,,,75,127
30358,note_off,139,0,0,,3,,,75,127
30358,note_off,0,0,0,,4,,,64,127
30359,note_on,1,0,0,,6,,,78,127
30359,note_on,0,0,0,,3,,,63,127
30498,note_off,139,0,0,,6,,,78,127
30499,note_on,1,0,0,,4,,,76,127
30638,note_off,139,0,0,,4,,,76,127
30638,note_off,0,0,0,,3,,,63,127
30639,note_on,1,0,0,,7,,,79,127
30639,note_on,0,0,0,,4,,,64,127
30779,note_on,140,0,0,,7,,,67,127
30849,note_off,70,0,0,,7,,,79,127
30918,note_off,69,0,0,,7,,,67,127
30919,note_on,1,0,0,,6,,,66,127
31058,note_off,139,0,0,,6,,,66,127
31059,note_on,1,0,0,,7,,,67,127
31198,note_off,139,0,0,,7,,,67,127
31199,note_on,1,0,0,,10,,,69,127
31338,note_off,139,0,0,,10,,,69,127
31339,note_on,1,0,0,,8,,,68,127
31478,note_off,139,0,0,,8,,,68,127
31478,note_off,0,0,0,,4,,,64,127
31479,note_on,1,0,0,,12,,,71,127
31479,note_on,0,0,0,,2,,,62,127
31618,note_off,139,0,0,,12,,,71,127
31619,note_on,1,0,0,,10,,,69,127
31758,note_off,139,0,0,,10,,,69,127
31758,note_off,0,0,0,,2,,,62,127
31759,note_on,1,0,0,,1,,,73,127
31759,note_on,0,0,0,,1,,,61,127
31898,note_off,139,0,0,,1,,,73,127
31899,note_on,1,0,0,,12,,,71,127
32038,note_off,139,0,0,,12,,,71,127
32038,note_off,0,0,0,,1,,,61,127
32039,note_on,1,0,0,,2,,,74,127
32039,note_on,0,0,0,,12,,,59,127
32178,note_off,139,0,0,,2,,,74,127
32179,note_on,1,0,0,,1,,,73,127
32318,note_off,139,0,0,,1,,,73,127
32318,note_off,0,0,0,,12,,,59,127
32319,note_on,1,0,0,,4,,,76,127
32319,note_on,0,0,0,,1,,,61,127
32459,note_on,140,0,0,,4,,,64,127
32529,note_off,70,0,0,,4,,,76,127
32598,note_off,69,0,0,,4,,,64,127
32599,note_on,1,0,0,,3,,,63,127
32738,note_off,139,0,0,,3,,,63,127
32739,note_on,1,0,0,,4,,,64,127
32878,note_off,139,0,0,,4,,,64,127
32879,note_on,1,0,0,,6,,,66,127
33018,note_off,139,0,0,,6,,,66,127
33019,note_on,1,0,0,,4,,,64,127
33158,note_off,139,0,0,,4,,,64,127
33158,note_off,0,0,0,,1,,,61,127
33159,note_on,1,0,0,,8,,,68,127
33159,note_on,0,0,0,,12,,,59,127
33298,note_off,139,0,0,,8,,,68,127
33299,note_on,1,0,0,,6,,,66,127
33438,note_off,139,0,0,,6,,,66,127
33438,note_off,0,0,0,,12,,,59,127
33439,note_on,1,0,0,,10,,,69,127
33439,note_on,0,0,0,,10,,,57,127
33578,note_off,139,0,0,,10,,,69,127
33579,note_on,1,0,0,,8,,,68,127
33718,note_off,139,0,0,,8,,,68,127
33718,note_off,0,0,0,,10,,,57,127
33719,note_on,1,0,0,,12,,,71,127
33719,note_on,0,0,0,,8,,,56,127
33858,note_off,139,0,0,,12,,,71,127
33859,note_on,1,0,0,,10,,,69,127
33998,note_off,139,0,0,,10,,,69,127
33998,note_off,0,0,0,,8,,,56,127
33999,note_on,1,0,0,,1,,,73,127
33999,note_on,0,0,0,,10,,,57,127
34138,note_off,139,0,0,,1,,,73,127
34139,note_on,1,0,0,,10,,,69,127
34278,note_off,139,0,0,,10,,,69,127
34279,note_on,1,0,0,,12,,,71,127
34418,note_off,139,0,0,,12,,,71,127
34419,note_on,1,0,0,,1,,,73,127
34558,note_off,139,0,0,,1,,,73,127
34558,note_off,0,0,0,,10,,,57,127
34559,note_on,1,0,0,,2,,,74,127
34559,note_on,0,0,0,,6,,,54,127
34698,note_off,139,0,0,,2,,,74,127
34699,note_on,1,0,0,,4,,,76,127
34838,note_off,139,0,0,,4,,,76,127
34839,note_on,1,0,0,,6,,,78,127
34978,note_off,139,0,0,,6,,,78,127
34979,note_on,1,0,0,,7,,,79,127
35118,note_off,139,0,0,,7,,,79,127
35118,note_off,0,0,0,,6,,,54,127
35119,note_on,1,0,0,,10,,,81,127
35119,note_on,0,0,0,,2,,,50,127
35258,note_off,139,0,0,,10,,,81,127
35259,note_on,1,0,0,,6,,,78,127
35398,note_off,139,0,0,,6,,,78,127
35399,note_on,1,0,0,,4,,,76,127
35538,note_off,139,0,0,,4,,,76,127
35539,note_on,1,0,0,,2,,,74,127
35678,note_off,139,0,0,,2,,,74,127
35678,note_off,0,0,0,,2,,,50,127
35679,note_on,1,0,0,,4,,,76,127
35679,note_on,0,0,0,,10,,,45,127
35818,note_off,139,0,0,,4,,,76,127
35819,note_on,1,0,0,,2,,,74,127
35958,note_off,139,0,0,,2,,,74,127
35959,note_on,1,0,0,,4,,,76,127
36098,note_off,139,0,0,,4,,,76,127
36099,note_on,1,0,0,,6,,,78,127
36238,note_off,139,0,0,,6,,,78,127
36239,note_on,1,0,0,,4,,,76,127
36378,note_off,139,0,0,,4,,,76,127
36379,note_on,1,0,0,,2,,,74,127
36518,note_off,139,0,0,,2,,,74,127
36519,note_on,1,0,0,,1,,,73,127
36658,note_off,139,0,0,,1,,,73,127
36659,note_on,1,0,0,,12,,,71,127
36798,note_off,139,0,0,,12,,,71,127
36798,note_off,0,0,0,,10,,,45,127
36799,note_on,1,0,0,,10,,,69,127
36939,note_on,140,0,0,,7,,,67,127
37078,note_off,139,0,0,,7,,,67,127
37079,note_on,1,0,0,,6,,,66,127
37218,note_off,139,0,0,,6,,,66,127
37219,note_on,1,0,0,,4,,,64,127
37354,note_off,135,0,0,,10,,,69,127
37358,note_off,4,0,0,,4,,,64,127
37359,note_on,1,0,0,,2,,,62,127
37499,note_on,140,0,0,,6,,,78,127
37638,note_off,139,0,0,,6,,,78,127
37639,note_on,1,0,0,,4,,,76,127
37778,note_off,139,0,0,,4,,,76,127
37779,note_on,1,0,0,,2,,,74,127
37918,note_off,139,0,0,,2,,,74,127
37919,note_on,1,0,0,,10,,,69,127
38059,note_on,140,0,0,,6,,,78,127
38198,note_off,139,0,0,,6,,,78,127
38199,note_off,1,0,0,,10,,,69,127
38199,note_on,0,0,0,,4,,,76,127
38338,note_off,139,0,0,,4,,,76,127
38339,note_on,1,0,0,,2,,,74,127
38478,note_off,139,0,0,,2,,,74,127
38478,note_off,0,0,0,,2,,,62,127
38479,note_on,1,0,0,,12,,,71,127
38479,note_on,0,0,0,,7,,,67,127
38619,note_on,140,0,0,,6,,,78,127
38758,note_off,139,0,0,,6,,,78,127
38759,note_off,1,0,0,,12,,,71,127
38759,note_on,0,0,0,,4,,,76,127
38898,note_off,139,0,0,,4,,,76,127
38899,note_on,1,0,0,,2,,,74,127
39038,note_off,139,0,0,,2,,,74,127
39038,note_off,0,0,0,,7,,,67,127
39039,note_on,1,0,0,,10,,,69,127
39039,note_on,0,0,0,,6,,,66,127
39179,note_on,140,0,0,,10,,,81,127
39318,note_off,139,0,0,,10,,,81,127
39319,note_off,1,0,0,,10,,,69,127
39319,note_on,0,0,0,,7,,,79,127
39458,note_off,139,0,0,,7,,,79,127
39459,note_on,1,0,0,,6,,,78,127
39598,note_off,139,0,0,,6,,,78,127
39599,note_on,1,0,0,,10,,,69,127
39739,note_off,140,0,0,,10,,,69,127
39739,note_on,0,0,0,,10,,,81,127
39878,note_off,139,0,0,,10,,,81,127
39879,note_on,1,0,0,,7,,,79,127
40018,note_off,139,0,0,,7,,,79,127
40019,note_on,1,0,0,,6,,,78,127
40158,note_off,139,0,0,,6,,,78,127
40158,note_off,0,0,0,,6,,,66,127
40159,note_on,1,0,0,,12,,,71,127
40159,note_on,0,0,0,,4,,,64,127
40299,note_on,140,0,0,,10,,,81,127
40438,note_off,139,0,0,,10,,,81,127
40439,note_off,1,0,0,,12,,,71,127
40439,note_on,0,0,0,,7,,,79,127
40578,note_off,139,0,0,,7,,,79,127
40579,note_on,1,0,0,,6,,,78,127
40718,note_off,139,0,0,,6,,,78,127
40718,note_off,0,0,0,,4,,,64,127
40719,note_on,1,0,0,,10,,,69,127
40719,note_on,0,0,0,,6,,,66,127
40859,note_on,140,0,0,,6,,,78,127
40998,note_off,139,0,0,,6,,,78,127
40999,note_off,1,0,0,,10,,,69,127
40999,note_on,0,0,0,,4,,,76,127
41138,note_off,139,0,0,,4,,,76,127
41139,note_on,1,0,0,,2,,,74,127
41278,note_off,139,0,0,,2,,,74,127
41279,note_on,1,0,0,,10,,,69,127
41419,note_off,140,0,0,,10,,,69,127
41419,note_on,0,0,0,,6,,,78,127
41558,note_off,139,0,0,,6,,,78,127
41559,note_on,1,0,0,,4,,,76,127
41698,note_off,139,0,0,,4,,,76,127
41699,note_on,1,0,0,,2,,,74,127
41838,note_off,139,0,0,,2,,,74,127
41838,note_off,0,0,0,,6,,,66,127
41839,note_on,1,0,0,,12,,,71,127
41839,note_on,0,0,0,,7,,,67,127
41979,note_on,140,0,0,,6,,,78,127
42118,note_off,139,0,0,,6,,,78,127
42119,note_off,1,0,0,,12,,,71,127
42119,note_on,0,0,0,,4,,,76,127
42258,note_off,139,0,0,,4,,,76,127
42259,note_on,1,0,0,,2,,,74,127
42398,note_off,139,0,0,,2,,,74,127
42398,note_off,0,0,0,,7,,,67,127
42399,note_on,1,0,0,,10,,,69,127
42399,note_on,0,0,0,,6,,,66,127
42539,note_on,140,0,0,,6,,,78,127
42678,note_off,139,0,0,,6,,,78,127
42679,note_off,1,0,0,,10,,,69,127
42679,note_on,0,0,0,,4,,,76,127
42818,note_off,139,0,0,,4,,,76,127
42819,note_on,1,0,0,,2,,,74,127
42958,note_off,139,0,0,,2,,,74,127
42958,note_off,0,0,0,,6,,,66,127
42959,note_on,1,0,0,,7,,,67,127
42959,note_on,0,0,0,,4,,,64,127
43099,note_on,140,0,0,,6,,,78,127
43238,note_off,139,0,0,,6,,,78,127
43239,note_off,1,0,0,,7,,,67,127
43239,note_on,0,0,0,,4,,,76,127
43378,note_off,139,0,0,,4,,,76,127
43379,note_on,1,0,0,,2,,,74,127
43518,note_off,139,0,0,,2,,,74,127
43518,note_off,0,0,0,,4,,,64,127
43519,note_on,1,0,0,,6,,,66,127
43519,note_on,0,0,0,,2,,,62,127
43659,note_on,140,0,0,,6,,,78,127
43798,note_off,139,0,0,,6,,,78,127
43799,note_off,1,0,0,,6,,,66,127
43799,note_on,0,0,0,,4,,,76,127
43938,note_off,139,0,0,,4,,,76,127
43939,note_on,1,0,0,,2,,,74,127
44078,note_off,139,0,0,,2,,,74,127
44078,note_off,0,0,0,,2,,,62,127
44079,note_on,1,0,0,,12,,,71,127
44079,note_on,0,0,0,,7,,,55,127
44219,note_on,140,0,0,,7,,,79,127
44358,note_off,139,0,0,,7,,,79,127
44359,note_off,1,0,0,,12,,,71,127
44359,note_on,0,0,0,,6,,,78,127
44498,note_off,139,0,0,,6,,,78,127
44499,note_on,1,0,0,,4,,,76,127
44638,note_off,139,0,0,,4,,,76,127
44638,note_off,0,0,0,,7,,,55,127
44639,note_on,1,0,0,,6,,,78,127
44639,note_on,0,0,0,,10,,,57,127
44778,note_off,139,0,0,,6,,,78,127
44779,note_on,1,0,0,,7,,,79,127
44918,note_off,139,0,0,,7,,,79,127
44919,note_on,1,0,0,,10,,,81,127
45058,note_off,139,0,0,,10,,,81,127
45059,note_on,1,0,0,,7,,,79,127
45198,note_off,139,0,0,,7,,,79,127
45199,note_on,1,0,0,,6,,,78,127
45199,note_on,0,0,0,,10,,,45,127
45338,note_off,139,0,0,,6,,,78,127
45339,note_on,1,0,0,,4,,,76,127
45478,note_off,139,0,0,,4,,,76,127
45479,note_on,1,0,0,,2,,,74,127
45618,note_off,139,0,0,,2,,,74,127
45619,note_on,1,0,0,,1,,,73,127
45758,note_off,139,0,0,,1,,,73,127
45759,note_off,1,0,0,,10,,,45,127
45759,note_off,0,0,0,,10,,,57,127
45759,note_on,0,0,0,,2,,,74,127
45899,note_on,140,0,0,,6,,,66,127
46038,note_off,139,0,0,,6,,,66,127
46039,note_on,1,0,0,,4,,,64,127
46178,note_off,139,0,0,,4,,,64,127
46179,note_on,1,0,0,,2,,,62,127
46318,note_off,139,0,0,,2,,,62,127
46319,note_on,1,0,0,,10,,,57,127
46459,note_on,140,0,0,,6,,,66,127
46598,note_off,139,0,0,,6,,,66,127
46599,note_off,1,0,0,,10,,,57,127
46599,note_on,0,0,0,,4,,,64,127
46738,note_off,139,0,0,,4,,,64,127
46739,note_on,1,0,0,,2,,,62,127
46878,note_off,139,0,0,,2,,,62,127
46878,note_off,0,0,0,,2,,,74,127
46879,note_on,1,0,0,,4,,,76,127
46879,note_on,0,0,0,,7,,,55,127
47019,note_on,140,0,0,,6,,,66,127
47158,note_off,139,0,0,,6,,,66,127
47159,note_off,1,0,0,,7,,,55,127
47159,note_on,0,0,0,,4,,,64,127
47298,note_off,139,0,0,,4,,,64,127
47299,note_on,1,0,0,,2,,,62,127
47438,note_off,139,0,0,,2,,,62,127
47438,note_off,0,0,0,,4,,,76,127
47439,note_on,1,0,0,,6,,,78,127
47439,note_on,0,0,0,,6,,,54,127
47579,note_on,140,0,0,,6,,,66,127
47718,note_off,139,0,0,,6,,,66,127
47719,note_off,1,0,0,,6,,,54,127
47719,note_on,0,0,0,,4,,,64,127
47858,note_off,139,0,0,,4,,,64,127
47859,note_on,1,0,0,,2,,,62,127
47998,note_off,139,0,0,,2,,,62,127
47998,note_off,0,0,0,,6,,,78,127
47999,note_on,1,0,0,,7,,,79,127
47999,note_on,0,0,0,,4,,,52,127
48139,note_on,140,0,0,,6,,,66,127
48278,note_off,139,0,0,,6,,,66,127
48279,note_off,1,0,0,,4,,,52,127
48279,note_on,0,0,0,,4,,,64,127
48418,note_off,139,0,0,,4,,,64,127
48419,note_on,1,0,0,,2,,,62,127
48558,note_off,139,0,0,,2,,,62,127
48558,note_off,0,0,0,,7,,,79,127
48559,note_on,1,0,0,,6,,,78,127
48559,note_on,0,0,0,,2,,,50,127
48698,note_off,139,0,0,,6,,,78,127
48699,note_on,1,0,0,,4,,,76,127
48838,note_off,139,0,0,,4,,,76,127
48839,note_on,1,0,0,,2,,,74,127
48978,note_off,139,0,0,,2,,,74,127
48979,note_on,1,0,0,,1,,,73,127
49118,note_off,139,0,0,,1,,,73,127
49118,note_off,0,0,0,,2,,,50,127
49119,note_on,1,0,0,,12,,,71,127
49119,note_on,0,0,0,,7,,,55,127
49258,note_off,139,0,0,,12,,,71,127
49259,note_on,1,0,0,,7,,,79,127
49398,note_off,139,0,0,,7,,,79,127
49399,note_on,1,0,0,,6,,,78,127
49538,note_off,139,0,0,,6,,,78,127
49539,note_on,1,0,0,,4,,,76,127
49678,note_off,139,0,0,,4,,,76,127
49678,note_off,0,0,0,,7,,,55,127
49679,note_on,1,0,0,,6,,,78,127
49679,note_on,0,0,0,,10,,,57,127
49818,note_off,139,0,0,,6,,,78,127
49819,note_on,1,0,0,,7,,,79,127
49958,note_off,139,0,0,,7,,,79,127
49959,note_on,1,0,0,,10,,,81,127
50098,note_off,139,0,0,,10,,,81,127
50099,note_on,1,0,0,,7,,,79,127
50238,note_off,139,0,0,,7,,,79,127
50239,note_on,1,0,0,,6,,,78,127
50239,note_on,0,0,0,,10,,,45,127
50378,note_off,139,0,0,,6,,,78,127
50379,note_on,1,0,0,,4,,,76,127
50518,note_off,139,0,0,,4,,,76,127
50519,note_on,1,0,0,,2,,,74,127
50658,note_off,139,0,0,,2,,,74,127
50659,note_on,1,0,0,,1,,,73,127
50805,note_on,146,0,0,,2,,,74,127
50806,note_off,1,0,0,,1,,,73,127
50813,note_off,7,0,0,,10,,,57,127
50814,note_off,1,0,0,,10,,,45,127
50962,note_on,148,0,0,,6,,,66,127
51101,note_off,139,0,0,,6,,,66,127
51102,note_on,1,0,0,,4,,,64,127
51241,note_off,139,0,0,,4,,,64,127
51242,note_on,1,0,0,,2,,,62,127
51381,note_off,139,0,0,,2,,,62,127
51382,note_on,1,0,0,,10,,,57,127
51522,note_on,140,0,0,,6,,,66,127
51661,note_off,139,0,0,,6,,,66,127
51662,note_off,1,0,0,,10,,,57,127
51662,note_on,0,0,0,,4,,,64,127
51801,note_off,139,0,0,,4,,,64,127
51802,note_on,1,0,0,,2,,,62,127
51923,note_off,121,0,0,,2,,,74,127
51941,note_off,18,0,0,,2,,,62,127
51942,note_on,1,0,0,,7,,,55,127
51942,note_on,0,0,0,,4,,,76,127
52082,note_on,140,0,0,,6,,,66,127
52221,note_off,139,0,0,,6,,,66,127
52222,note_off,1,0,0,,7,,,55,127
52222,note_on,0,0,0,,4,,,64,127
52361,note_off,139,0,0,,4,,,64,127
52362,note_on,1,0,0,,2,,,62,127
52501,note_off,139,0,0,,2,,,62,127
52501,note_off,0,0,0,,4,,,76,127
52502,note_on,1,0,0,,6,,,54,127
52502,note_on,0,0,0,,6,,,78,127
52642,note_on,140,0,0,,6,,,66,127
52781,note_off,139,0,0,,6,,,66,127
52782,note_off,1,0,0,,6,,,54,127
52782,note_on,0,0,0,,4,,,64,127
52921,note_off,139,0,0,,4,,,64,127
52922,note_on,1,0,0,,2,,,62,127
53061,note_off,139,0,0,,2,,,62,127
53061,note_off,0,0,0,,6,,,78,127
53062,note_on,1,0,0,,4,,,52,127
53062,note_on,0,0,0,,7,,,79,127
53202,note_on,140,0,0,,6,,,66,127
53341,note_off,139,0,0,,6,,,66,127
53342,note_off,1,0,0,,4,,,52,127
53342,note_on,0,0,0,,4,,,64,127
53481,note_off,139,0,0,,4,,,64,127
53482,note_on,1,0,0,,2,,,62,127
53621,note_off,139,0,0,,2,,,62,127
53621,note_off,0,0,0,,7,,,79,127
53622,note_on,1,0,0,,2,,,50,127
53622,note_on,0,0,0,,6,,,78,127
53761,note_off,139,0,0,,6,,,78,127
53762,note_on,1,0,0,,4,,,76,127
53901,note_off,139,0,0,,4,,,76,127
53902,note_on,1,0,0,,2,,,74,127
54041,note_off,139,0,0,,2,,,74,127
54042,note_on,1,0,0,,1,,,73,127
54181,note_off,139,0,0,,1,,,73,127
54181,note_off,0,0,0,,2,,,50,127
54182,note_on,1,0,0,,7,,,55,127
54182,note_on,0,0,0,,12,,,71,127
54321,note_off,139,0,0,,12,,,71,127
54322,note_on,1,0,0,,7,,,79,127
54461,note_off,139,0,0,,7,,,79,127
54462,note_on,1,0,0,,6,,,78,127
54601,note_off,139,0,0,,6,,,78,127
54602,note_on,1,0,0,,4,,,76,127
54741,note_off,139,0,0,,4,,,76,127
54741,note_off,0,0,0,,7,,,55,127
54742,note_on,1,0,0,,10,,,57,127
54742,note_on,0,0,0,,6,,,78,127
54881,note_off,139,0,0,,6,,,78,127
54882,note_on,1,0,0,,7,,,79,127
55021,note_off,139,0,0,,7,,,79,127
55022,note_on,1,0,0,,10,,,81,127
55161,note_off,139,0,0,,10,,,81,127
55162,note_on,1,0,0,,7,,,79,127
55301,note_off,139,0,0,,7,,,79,127
55302,note_on,1,0,0,,10,,,45,127
55302,note_on,0,0,0,,6,,,78,127
55441,note_off,139,0,0,,6,,,78,127
55442,note_on,1,0,0,,4,,,76,127
55581,note_off,139,0,0,,4,,,76,127
55582,note_on,1,0,0,,2,,,74,127
55721,note_off,139,0,0,,2,,,74,127
55722,note_on,1,0,0,,1,,,73,127
55816,note_off,94,0,0,,1,,,73,127
55861,note_off,45,0,0,,10,,,45,127
55861,note_off,0,0,0,,10,,,57,127
55862,note_on,1,0,0,,2,,,50,127
55862,note_on,0,0,0,,6,,,66,127
56001,note_off,139,0,0,,6,,,66,127
56002,note_on,1,0,0,,2,,,62,127
56141,note_off,139,0,0,,2,,,62,127
56142,note_on,1,0,0,,10,,,69,127
56281,note_off,139,0,0,,10,,,69,127
56282,note_on,1,0,0,,6,,,66,127
56421,note_off,139,0,0,,6,,,66,127
56422,note_on,1,0,0,,2,,,74,127
56561,note_off,139,0,0,,2,,,74,127
56562,note_on,1,0,0,,10,,,69,127
56701,note_off,139,0,0,,10,,,69,127
56702,note_on,1,0,0,,6,,,78,127
56841,note_off,139,0,0,,6,,,78,127
56842,note_on,1,0,0,,2,,,74,127
56981,note_off,139,0,0,,2,,,74,127
56981,note_off,0,0,0,,2,,,50,127
56982,note_on,1,0,0,,6,,,54,127
56982,note_on,0,0,0,,10,,,81,127
57121,note_off,139,0,0,,10,,,81,127
57122,note_on,1,0,0,,6,,,78,127
57261,note_off,139,0,0,,6,,,78,127
57262,note_on,1,0,0,,2,,,86,127
57401,note_off,139,0,0,,2,,,86,127
57402,note_on,1,0,0,,10,,,81,127
57541,note_off,139,0,0,,6,,,54,127
57542,note_on,1,0,0,,7,,,55,127
57681,note_off,139,0,0,,10,,,81,127
57682,note_on,1,0,0,,12,,,83,127
57821,note_off,139,0,0,,12,,,83,127
57822,note_on,1,0,0,,12,,,83,127
57961,note_off,139,0,0,,12,,,83,127
57962,note_on,1,0,0,,7,,,79,127
58101,note_off,139,0,0,,7,,,79,127
58101,note_off,0,0,0,,7,,,55,127
58102,note_on,1,0,0,,10,,,57,127
58102,note_on,0,0,0,,7,,,79,127
58241,note_off,139,0,0,,7,,,79,127
58242,note_on,1,0,0,,6,,,78,127
58381,note_off,139,0,0,,6,,,78,127
58382,note_on,1,0,0,,6,,,78,127
58521,note_off,139,0,0,,6,,,78,127
58522,note_on,1,0,0,,4,,,76,127
58661,note_off,139,0,0,,4,,,76,127
58662,note_on,1,0,0,,10,,,45,127
58662,note_on,0,0,0,,4,,,76,127
58801,note_off,139,0,0,,4,,,76,127
58802,note_on,1,0,0,,2,,,74,127
58941,note_off,139,0,0,,2,,,74,127
58942,note_on,1,0,0,,2,,,74,127
59081,note_off,139,0,0,,2,,,74,127
59082,note_on,1,0,0,,1,,,73,127
59176,note_off,94,0,0,,1,,,73,127
59221,note_off,45,0,0,,10,,,45,127
59221,note_off,0,0,0,,10,,,57,127
59222,note_on,1,0,0,,2,,,50,127
59222,note_on,0,0,0,,6,,,66,127
59361,note_off,139,0,0,,6,,,66,127
59362,note_on,1,0,0,,2,,,62,127
59501,note_off,139,0,0,,2,,,62,127
59502,note_on,1,0,0,,10,,,69,127
59641,note_off,139,0,0,,10,,,69,127
59642,note_on,1,0,0,,6,,,66,127
59781,note_off,139,0,0,,6,,,66,127
59782,note_on,1,0,0,,2,,,74,127
59921,note_off,139,0,0,,2,,,74,127
59922,note_on,1,0,0,,10,,,69,127
60061,note_off,139,0,0,,10,,,69,127
60062,note_on,1,0,0,,6,,,78,127
60201,note_off,139,0,0,,6,,,78,127
60202,note_on,1,0,0,,2,,,74,127
60341,note_off,139,0,0,,2,,,74,127
60341,note_off,0,0,0,,2,,,50,127
60342,note_on,1,0,0,,6,,,54,127
60342,note_on,0,0,0,,10,,,81,127
60481,note_off,139,0,0,,10,,,81,127
60482,note_on,1,0,0,,6,,,78,127
60621,note_off,139,0,0,,6,,,78,127
60622,note_on,1,0,0,,2,,,86,127
60761,note_off,139,0,0,,2,,,86,127
60762,note_on,1,0,0,,10,,,81,127
60901,note_off,139,0,0,,6,,,54,127
60902,note_on,1,0,0,,7,,,55,127
61041,note_off,139,0,0,,10,,,81,127
61042,note_on,1,0,0,,12,,,83,127
61181,note_off,139,0,0,,12,,,83,127
61182,note_on,1,0,0,,12,,,83,127
61321,note_off,139,0,0,,12,,,83,127
61322,note_on,1,0,0,,7,,,79,127
61461,note_off,139,0,0,,7,,,79,127
61461,note_off,0,0,0,,7,,,55,127
61462,note_on,1,0,0,,10,,,57,127
61462,note_on,0,0,0,,7,,,79,127
61601,note_off,139,0,0,,7,,,79,127
61602,note_on,1,0,0,,6,,,78,127
61741,note_off,139,0,0,,6,,,78,127
61742,note_on,1,0,0,,6,,,78,127
61881,note_off,139,0,0,,6,,,78,127
61882,note_on,1,0,0,,4,,,76,127
62021,note_off,139,0,0,,4,,,76,127
62022,note_on,1,0,0,,10,,,45,127
62022,note_on,0,0,0,,4,,,76,127
62161,note_off,139,0,0,,4,,,76,127
62162,note_on,1,0,0,,2,,,74,127
62301,note_off,139,0,0,,2,,,74,127
62301,note_off,0,0,0,,10,,,57,127
62302,note_on,1,0,0,,2,,,74,127
62441,note_off,139,0,0,,2,,,74,127
62442,note_on,1,0,0,,1,,,73,127
62581,note_off,139,0,0,,1,,,73,127
62581,note_off,0,0,0,,10,,,45,127
62582,note_on,1,0,0,,2,,,38,127
62582,note_on,0,0,0,,2,,,50,127
62582,note_on,0,0,0,,1,,,73,127
63138,note_off,556,0,0,,1,,,73,127
63144,note_on,6,0,0,,2,,,74,127
63985,note_off,841,0,0,,2,,,74,127
64118,note_off,133,0,0,,2,,,38,127
64267,note_off,149,0,0,,2,,,50,127
64267,note_on,0,0,0,,10,,,81,127
64547,note_off,280,0,0,,10,,,81,127
64548,note_on,1,0,0,,12,,,83,127
64548,note_on,0,0,0,,7,,,79,127
64828,note_off,280,0,0,,7,,,79,127
64828,note_off,0,0,0,,12,,,83,127
64829,note_on,1,0,0,,0,,,84,127
64829,note_on,0,0,0,,6,,,78,127
65109,note_off,280,0,0,,6,,,78,127
65110,note_on,1,0,0,,3,,,75,127
65390,note_off,280,0,0,,3,,,75,127
65391,note_off,1,0,0,,0,,,84,127
65391,note_on,0,0,0,,2,,,74,127
65391,note_on,0,0,0,,11,,,82,127
65671,note_off,280,0,0,,11,,,82,127
65671,note_off,0,0,0,,2,,,74,127
65672,note_on,1,0,0,,10,,,81,127
65672,note_on,0,0,0,,0,,,72,127
65952,note_off,280,0,0,,0,,,72,127
65952,note_off,0,0,0,,10,,,81,127
65953,note_on,1,0,0,,11,,,70,127
65953,note_on,0,0,0,,7,,,79,127
66233,note_off,280,0,0,,7,,,79,127
66233,note_off,0,0,0,,11,,,70,127
66234,note_on,1,0,0,,5,,,77,127
66234,note_on,0,0,0,,10,,,69,127
66514,note_off,280,0,0,,10,,,69,127
66514,note_off,0,0,0,,5,,,77,127
66515,note_on,1,0,0,,3,,,75,127
66515,note_on,0,0,0,,7,,,67,127
66795,note_off,280,0,0,,7,,,67,127
66795,note_off,0,0,0,,3,,,75,127
66796,note_on,1,0,0,,2,,,74,127
66796,note_on,0,0,0,,5,,,65,127
67076,note_off,280,0,0,,5,,,65,127
67077,note_on,1,0,0,,3,,,63,127
67358,note_off,281,0,0,,2,,,74,127
67358,note_on,0,0,0,,0,,,72,127
67638,note_off,280,0,0,,0,,,72,127
67639,note_off,1,0,0,,3,,,63,127
67639,note_on,0,0,0,,2,,,38,127
67639,note_on,0,0,0,,11,,,70,127
67639,note_on,0,0,0,,2,,,62,127
67919,note_off,280,0,0,,2,,,62,127
67919,note_off,0,0,0,,11,,,70,127
67920,note_on,1,0,0,,6,,,66,127
67920,note_on,0,0,0,,10,,,69,127
68200,note_off,280,0,0,,10,,,69,127
68200,note_off,0,0,0,,6,,,66,127
68200,note_off,0,0,0,,2,,,38,127
68201,note_on,1,0,0,,2,,,38,127
68201,note_on,0,0,0,,11,,,70,127
68201,note_on,0,0,0,,7,,,67,127
68481,note_off,280,0,0,,7,,,67,127
68481,note_off,0,0,0,,11,,,70,127
68482,note_on,1,0,0,,3,,,63,127
68482,note_on,0,0,0,,0,,,72,127
68762,note_off,280,0,0,,0,,,72,127
68762,note_off,0,0,0,,3,,,63,127
68762,note_off,0,0,0,,2,,,38,127
68763,note_on,1,0,0,,2,,,38,127
68763,note_on,0,0,0,,2,,,74,127
68763,note_on,0,0,0,,2,,,62,127
69043,note_off,280,0,0,,2,,,62,127
69043,note_off,0,0,0,,2,,,74,127
69044,note_on,1,0,0,,10,,,69,127
69044,note_on,0,0,0,,6,,,66,127
69324,note_off,280,0,0,,6,,,66,127
69324,note_off,0,0,0,,10,,,69,127
69324,note_off,0,0,0,,2,,,38,127
69325,note_on,1,0,0,,2,,,38,127
69325,note_on,0,0,0,,7,,,67,127
69325,note_on,0,0,0,,11,,,70,127
69605,note_off,280,0,0,,11,,,70,127
69605,note_off,0,0,0,,7,,,67,127
69606,note_on,1,0,0,,0,,,72,127
69606,note_on,0,0,0,,3,,,63,127
69886,note_off,280,0,0,,3,,,63,127
69886,note_off,0,0,0,,0,,,72,127
69886,note_off,0,0,0,,2,,,38,127
69887,note_on,1,0,0,,2,,,38,127
69887,note_on,0,0,0,,2,,,74,127
69887,note_on,0,0,0,,2,,,62,127
70167,note_off,280,0,0,,2,,,62,127
70167,note_off,0,0,0,,2,,,74,127
70168,note_on,1,0,0,,6,,,66,127
70168,note_on,0,0,0,,10,,,69,127
70448,note_off,280,0,0,,10,,,69,127
70448,note_off,0,0,0,,6,,,66,127
70448,note_off,0,0,0,,2,,,38,127
70449,note_on,1,0,0,,2,,,38,127
70449,note_on,0,0,0,,7,,,67,127
70449,note_on,0,0,0,,11,,,70,127
70729,note_off,280,0,0,,11,,,70,127
70729,note_off,0,0,0,,7,,,67,127
70730,note_on,1,0,0,,1,,,73,127
70730,note_on,0,0,0,,4,,,64,127
71010,note_off,280,0,0,,4,,,64,127
71010,note_off,0,0,0,,1,,,73,127
71010,note_off,0,0,0,,2,,,38,127
71011,note_on,1,0,0,,2,,,38,127
71011,note_on,0,0,0,,2,,,62,127
71011,note_on,0,0,0,,2,,,74,127
71151,note_on,140,0,0,,10,,,69,127
71290,note_off,139,0,0,,10,,,69,127
71291,note_on,1,0,0,,11,,,70,127
71430,note_off,139,0,0,,11,,,70,127
71431,note_on,1,0,0,,7,,,67,127
71566,note_off,135,0,0,,2,,,74,127
71566,note_off,0,0,0,,2,,,62,127
71570,note_off,4,0,0,,7,,,67,127
71571,note_on,1,0,0,,10,,,69,127
71711,note_on,140,0,0,,6,,,66,127
71849,note_off,138,0,0,,10,,,69,127
71850,note_off,1,0,0,,6,,,66,127
71851,note_on,1,0,0,,7,,,67,127
71991,note_on,140,0,0,,4,,,64,127
72129,note_off,138,0,0,,7,,,67,127
72132,note_off,3,0,0,,2,,,38,127
72179,note_on,47,0,0,,2,,,62,127
72197,note_off,18,0,0,,4,,,64,127
72226,note_on,29,0,0,,4,,,64,127
72248,note_off,22,0,0,,2,,,62,127
72273,note_on,25,0,0,,2,,,62,127
72295,note_off,22,0,0,,4,,,64,127
72721,note_off,426,0,0,,2,,,62,127
72730,note_on,9,0,0,,5,,,77,127
73010,note_off,280,0,0,,5,,,77,127
73011,note_on,1,0,0,,3,,,75,127
73011,note_on,0,0,0,,7,,,79,127
73291,note_off,280,0,0,,7,,,79,127
73291,note_off,0,0,0,,3,,,75,127
73292,note_on,1,0,0,,2,,,74,127
73292,note_on,0,0,0,,8,,,80,127
73572,note_off,280,0,0,,2,,,74,127
73573,note_on,1,0,0,,0,,,72,127
73853,note_off,280,0,0,,0,,,72,127
73854,note_off,1,0,0,,8,,,80,127
73854,note_on,0,0,0,,12,,,71,127
73854,note_on,0,0,0,,7,,,79,127
74134,note_off,280,0,0,,7,,,79,127
74134,note_off,0,0,0,,12,,,71,127
74135,note_on,1,0,0,,5,,,77,127
74135,note_on,0,0,0,,8,,,68,127
74415,note_off,280,0,0,,8,,,68,127
74416,note_on,1,0,0,,7,,,67,127
74416,note_on,0,0,0,,7,,,43,127
74696,note_off,280,0,0,,7,,,67,127
74697,note_off,1,0,0,,5,,,77,127
74697,note_on,0,0,0,,2,,,74,127
74697,note_on,0,0,0,,12,,,71,127
74977,note_off,280,0,0,,12,,,71,127
74977,note_off,0,0,0,,2,,,74,127
74977,note_off,0,0,0,,7,,,43,127
74978,note_on,1,0,0,,0,,,72,127
74978,note_on,0,0,0,,3,,,75,127
74978,note_on,0,0,0,,7,,,43,127
75258,note_off,280,0,0,,3,,,75,127
75258,note_off,0,0,0,,0,,,72,127
75259,note_on,1,0,0,,5,,,77,127
75259,note_on,0,0,0,,8,,,68,127
75539,note_off,280,0,0,,8,,,68,127
75539,note_off,0,0,0,,5,,,77,127
75539,note_off,0,0,0,,7,,,43,127
75540,note_on,1,0,0,,7,,,79,127
75540,note_on,0,0,0,,7,,,67,127
75540,note_on,0,0,0,,7,,,43,127
75820,note_off,280,0,0,,7,,,67,127
75820,note_off,0,0,0,,7,,,79,127
75821,note_on,1,0,0,,2,,,74,127
75821,note_on,0,0,0,,12,,,71,127
76101,note_off,280,0,0,,12,,,71,127
76101,note_off,0,0,0,,2,,,74,127
76101,note_off,0,0,0,,7,,,43,127
76102,note_on,1,0,0,,0,,,72,127
76102,note_on,0,0,0,,3,,,75,127
76102,note_on,0,0,0,,7,,,43,127
76382,note_off,280,0,0,,3,,,75,127
76382,note_off,0,0,0,,0,,,72,127
76383,note_on,1,0,0,,8,,,68,127
76383,note_on,0,0,0,,5,,,77,127
76663,note_off,280,0,0,,5,,,77,127
76663,note_off,0,0,0,,8,,,68,127
76663,note_off,0,0,0,,7,,,43,127
76664,note_on,1,0,0,,7,,,67,127
76664,note_on,0,0,0,,7,,,79,127
76664,note_on,0,0,0,,7,,,43,127
76944,note_off,280,0,0,,7,,,79,127
76944,note_off,0,0,0,,7,,,67,127
76945,note_on,1,0,0,,12,,,71,127
76945,note_on,0,0,0,,2,,,74,127
77225,note_off,280,0,0,,2,,,74,127
77225,note_off,0,0,0,,12,,,71,127
77225,note_off,0,0,0,,7,,,43,127
77226,note_on,1,0,0,,3,,,75,127
77226,note_on,0,0,0,,0,,,72,127
77226,note_on,0,0,0,,7,,,43,127
77506,note_off,280,0,0,,0,,,72,127
77506,note_off,0,0,0,,3,,,75,127
77507,note_on,1,0,0,,10,,,69,127
77507,note_on,0,0,0,,6,,,78,127
77787,note_off,280,0,0,,6,,,78,127
77787,note_off,0,0,0,,10,,,69,127
77787,note_off,0,0,0,,7,,,43,127
77788,note_on,1,0,0,,7,,,67,127
77788,note_on,0,0,0,,7,,,79,127
77788,note_on,0,0,0,,7,,,43,127
77928,note_on,140,0,0,,2,,,74,127
78067,note_off,139,0,0,,2,,,74,127
78068,note_on,1,0,0,,3,,,75,127
78207,note_off,139,0,0,,3,,,75,127
78208,note_on,1,0,0,,0,,,72,127
78343,note_off,135,0,0,,7,,,79,127
78343,note_off,0,0,0,,7,,,67,127
78347,note_off,4,0,0,,0,,,72,127
78348,note_on,1,0,0,,2,,,74,127
78488,note_on,140,0,0,,12,,,71,127
78626,note_off,138,0,0,,2,,,74,127
78627,note_off,1,0,0,,12,,,71,127
78628,note_on,1,0,0,,0,,,72,127
78768,note_on,140,0,0,,10,,,69,127
78906,note_off,138,0,0,,0,,,72,127
78956,note_on,50,0,0,,7,,,67,127
78974,note_off,18,0,0,,10,,,69,127
79003,note_on,29,0,0,,10,,,69,127
79025,note_off,22,0,0,,7,,,67,127
79050,note_on,25,0,0,,7,,,67,127
79072,note_off,22,0,0,,10,,,69,127
79470,note_off,398,0,0,,7,,,43,127
79523,note_off,53,0,0,,7,,,67,127
79542,note_on,19,0,0,,7,,,67,127
79682,note_on,140,0,0,,12,,,71,127
79821,note_off,139,0,0,,12,,,71,127
79822,note_on,1,0,0,,10,,,69,127
79961,note_off,139,0,0,,10,,,69,127
79962,note_on,1,0,0,,12,,,71,127
80101,note_off,139,0,0,,12,,,71,127
80102,note_on,1,0,0,,0,,,72,127
80241,note_off,139,0,0,,0,,,72,127
80242,note_on,1,0,0,,12,,,71,127
80381,note_off,139,0,0,,12,,,71,127
80381,note_off,0,0,0,,7,,,67,127
80382,note_on,1,0,0,,2,,,74,127
80382,note_on,0,0,0,,6,,,66,127
80521,note_off,139,0,0,,2,,,74,127
80522,note_on,1,0,0,,0,,,72,127
80661,note_off,139,0,0,,0,,,72,127
80661,note_off,0,0,0,,6,,,66,127
80662,note_on,1,0,0,,4,,,76,127
80662,note_on,0,0,0,,4,,,64,127
80801,note_off,139,0,0,,4,,,76,127
80802,note_on,1,0,0,,3,,,75,127
80941,note_off,139,0,0,,3,,,75,127
80941,note_off,0,0,0,,4,,,64,127
80942,note_on,1,0,0,,6,,,78,127
80942,note_on,0,0,0,,3,,,63,127
81081,note_off,139,0,0,,6,,,78,127
81082,note_on,1,0,0,,4,,,76,127
81221,note_off,139,0,0,,4,,,76,127
81221,note_off,0,0,0,,3,,,63,127
81222,note_on,1,0,0,,7,,,79,127
81222,note_on,0,0,0,,4,,,64,127
81362,note_on,140,0,0,,7,,,67,127
81432,note_off,70,0,0,,7,,,79,127
81501,note_off,69,0,0,,7,,,67,127
81502,note_on,1,0,0,,6,,,66,127
81641,note_off,139,0,0,,6,,,66,127
81642,note_on,1,0,0,,7,,,67,127
81781,note_off,139,0,0,,7,,,67,127
81782,note_on,1,0,0,,10,,,69,127
81921,note_off,139,0,0,,10,,,69,127
81922,note_on,1,0,0,,8,,,68,127
82061,note_off,139,0,0,,8,,,68,127
82061,note_off,0,0,0,,4,,,64,127
82062,note_on,1,0,0,,12,,,71,127
82062,note_on,0,0,0,,2,,,62,127
82201,note_off,139,0,0,,12,,,71,127
82202,note_on,1,0,0,,10,,,69,127
82341,note_off,139,0,0,,10,,,69,127
82341,note_off,0,0,0,,2,,,62,127
82342,note_on,1,0,0,,0,,,72,127
82342,note_on,0,0,0,,0,,,60,127
82481,note_off,139,0,0,,0,,,72,127
82482,note_on,1,0,0,,12,,,71,127
82621,note_off,139,0,0,,12,,,71,127
82621,note_off,0,0,0,,0,,,60,127
82622,note_on,1,0,0,,2,,,74,127
82622,note_on,0,0,0,,12,,,59,127
82761,note_off,139,0,0,,2,,,74,127
82762,note_on,1,0,0,,0,,,72,127
82901,note_off,139,0,0,,0,,,72,127
82901,note_off,0,0,0,,12,,,59,127
82902,note_on,1,0,0,,4,,,76,127
82902,note_on,0,0,0,,0,,,60,127
83042,note_on,140,0,0,,4,,,64,127
83112,note_off,70,0,0,,4,,,76,127
83181,note_off,69,0,0,,4,,,64,127
83182,note_on,1,0,0,,3,,,63,127
83321,note_off,139,0,0,,3,,,63,127
83322,note_on,1,0,0,,4,,,64,127
83461,note_off,139,0,0,,4,,,64,127
83462,note_on,1,0,0,,6,,,66,127
83601,note_off,139,0,0,,6,,,66,127
83602,note_on,1,0,0,,4,,,64,127
83741,note_off,139,0,0,,4,,,64,127
83741,note_off,0,0,0,,0,,,60,127
83742,note_on,1,0,0,,8,,,68,127
83742,note_on,0,0,0,,12,,,59,127
83881,note_off,139,0,0,,8,,,68,127
83882,note_on,1,0,0,,6,,,66,127
84021,note_off,139,0,0,,6,,,66,127
84021,note_off,0,0,0,,12,,,59,127
84022,note_on,1,0,0,,10,,,69,127
84022,note_on,0,0,0,,10,,,57,127
84161,note_off,139,0,0,,10,,,69,127
84162,note_on,1,0,0,,8,,,68,127
84301,note_off,139,0,0,,8,,,68,127
84301,note_off,0,0,0,,10,,,57,127
84302,note_on,1,0,0,,12,,,71,127
84302,note_on,0,0,0,,8,,,56,127
84441,note_off,139,0,0,,12,,,71,127
84442,note_on,1,0,0,,10,,,69,127
84581,note_off,139,0,0,,10,,,69,127
84581,note_off,0,0,0,,8,,,56,127
84582,note_on,1,0,0,,0,,,72,127
84582,note_on,0,0,0,,10,,,57,127
84722,note_on,140,0,0,,0,,,60,127
84792,note_off,70,0,0,,0,,,72,127
84861,note_off,69,0,0,,0,,,60,127
84862,note_on,1,0,0,,12,,,59,127
85001,note_off,139,0,0,,12,,,59,127
85002,note_on,1,0,0,,0,,,60,127
85141,note_off,139,0,0,,0,,,60,127
85142,note_on,1,0,0,,2,,,62,127
85281,note_off,139,0,0,,2,,,62,127
85282,note_on,1,0,0,,1,,,61,127
85421,note_off,139,0,0,,1,,,61,127
85421,note_off,0,0,0,,10,,,57,127
85422,note_on,1,0,0,,4,,,64,127
85422,note_on,0,0,0,,7,,,55,127
85561,note_off,139,0,0,,4,,,64,127
85562,note_on,1,0,0,,2,,,62,127
85701,note_off,139,0,0,,2,,,62,127
85701,note_off,0,0,0,,7,,,55,127
85702,note_on,1,0,0,,6,,,66,127
85702,note_on,0,0,0,,6,,,54,127
85841,note_off,139,0,0,,6,,,66,127
85842,note_on,1,0,0,,4,,,64,127
85981,note_off,139,0,0,,4,,,64,127
85981,note_off,0,0,0,,6,,,54,127
85982,note_on,1,0,0,,7,,,67,127
85982,note_on,0,0,0,,4,,,52,127
86121,note_off,139,0,0,,7,,,67,127
86122,note_on,1,0,0,,6,,,66,127
86261,note_off,139,0,0,,6,,,66,127
86261,note_off,0,0,0,,4,,,52,127
86262,note_on,1,0,0,,10,,,69,127
86262,note_on,0,0,0,,2,,,50,127
86401,note_off,139,0,0,,10,,,69,127
86402,note_on,1,0,0,,2,,,62,127
86541,note_off,139,0,0,,2,,,62,127
86542,note_on,1,0,0,,4,,,64,127
86681,note_off,139,0,0,,4,,,64,127
86682,note_on,1,0,0,,6,,,66,127
86821,note_off,139,0,0,,6,,,66,127
86821,note_off,0,0,0,,2,,,50,127
86822,note_on,1,0,0,,7,,,67,127
86822,note_on,0,0,0,,12,,,47,127
86961,note_off,139,0,0,,7,,,67,127
86962,note_on,1,0,0,,10,,,69,127
87101,note_off,139,0,0,,10,,,69,127
87102,note_on,1,0,0,,12,,,71,127
87241,note_off,139,0,0,,12,,,71,127
87242,note_on,1,0,0,,0,,,72,127
87381,note_off,139,0,0,,0,,,72,127
87381,note_off,0,0,0,,12,,,47,127
87382,note_on,1,0,0,,2,,,74,127
87382,note_on,0,0,0,,7,,,43,127
87521,note_off,139,0,0,,2,,,74,127
87522,note_on,1,0,0,,12,,,71,127
87661,note_off,139,0,0,,12,,,71,127
87662,note_on,1,0,0,,10,,,69,127
87801,note_off,139,0,0,,10,,,69,127
87802,note_on,1,0,0,,7,,,67,127
87941,note_off,139,0,0,,7,,,67,127
87941,note_off,0,0,0,,7,,,43,127
87942,note_on,1,0,0,,10,,,69,127
87942,note_on,0,0,0,,2,,,50,127
88081,note_off,139,0,0,,10,,,69,127
88082,note_on,1,0,0,,7,,,67,127
88221,note_off,139,0,0,,7,,,67,127
88222,note_on,1,0,0,,10,,,69,127
88361,note_off,139,0,0,,10,,,69,127
88362,note_on,1,0,0,,12,,,71,127
88501,note_off,139,0,0,,12,,,71,127
88502,note_on,1,0,0,,10,,,69,127
88641,note_off,139,0,0,,10,,,69,127
88642,note_on,1,0,0,,7,,,67,127
88781,note_off,139,0,0,,7,,,67,127
88782,note_on,1,0,0,,6,,,66,127
88921,note_off,139,0,0,,6,,,66,127
88922,note_on,1,0,0,,4,,,64,127
89061,note_off,139,0,0,,4,,,64,127
89062,note_on,1,0,0,,2,,,62,127
89201,note_off,139,0,0,,2,,,50,127
89202,note_on,1,0,0,,0,,,60,127
89341,note_off,139,0,0,,0,,,60,127
89342,note_on,1,0,0,,12,,,59,127
89481,note_off,139,0,0,,12,,,59,127
89482,note_on,1,0,0,,10,,,57,127
89617,note_off,135,0,0,,2,,,62,127
89621,note_off,4,0,0,,10,,,57,127
89622,note_on,1,0,0,,7,,,55,127
89762,note_on,140,0,0,,12,,,83,127
89901,note_off,139,0,0,,12,,,83,127
89902,note_on,1,0,0,,10,,,81,127
90041,note_off,139,0,0,,10,,,81,127
90042,note_on,1,0,0,,7,,,79,127
90181,note_off,139,0,0,,7,,,79,127
90182,note_on,1,0,0,,2,,,74,127
90322,note_on,140,0,0,,12,,,83,127
90461,note_off,139,0,0,,12,,,83,127
90462,note_off,1,0,0,,2,,,74,127
90462,note_on,0,0,0,,10,,,81,127
90601,note_off,139,0,0,,10,,,81,127
90602,note_on,1,0,0,,7,,,79,127
90741,note_off,139,0,0,,7,,,79,127
90741,note_off,0,0,0,,7,,,55,127
90742,note_on,1,0,0,,4,,,76,127
90742,note_on,0,0,0,,0,,,72,127
90882,note_on,140,0,0,,12,,,83,127
91021,note_off,139,0,0,,12,,,83,127
91022,note_off,1,0,0,,4,,,76,127
91022,note_on,0,0,0,,10,,,81,127
91161,note_off,139,0,0,,10,,,81,127
91162,note_on,1,0,0,,7,,,79,127
91301,note_off,139,0,0,,7,,,79,127
91301,note_off,0,0,0,,0,,,72,127
91302,note_on,1,0,0,,2,,,74,127
91302,note_on,0,0,0,,12,,,71,127
91442,note_on,140,0,0,,2,,,86,127
91581,note_off,139,0,0,,2,,,86,127
91582,note_off,1,0,0,,2,,,74,127
91582,note_on,0,0,0,,0,,,84,127
91721,note_off,139,0,0,,0,,,84,127
91722,note_on,1,0,0,,12,,,83,127
91861,note_off,139,0,0,,12,,,83,127
91862,note_on,1,0,0,,2,,,74,127
92001,note_off,139,0,0,,2,,,74,127
92002,note_on,1,0,0,,2,,,86,127
92141,note_off,139,0,0,,2,,,86,127
92142,note_on,1,0,0,,0,,,84,127
92281,note_off,139,0,0,,0,,,84,127
92282,note_on,1,0,0,,12,,,83,127
92421,note_off,139,0,0,,12,,,83,127
92421,note_off,0,0,0,,12,,,71,127
92422,note_on,1,0,0,,4,,,76,127
92422,note_on,0,0,0,,0,,,72,127
92562,note_on,140,0,0,,2,,,86,127
92701,note_off,139,0,0,,2,,,86,127
92702,note_off,1,0,0,,4,,,76,127
92702,note_on,0,0,0,,0,,,84,127
92841,note_off,139,0,0,,0,,,84,127
92842,note_on,1,0,0,,12,,,83,127
92981,note_off,139,0,0,,12,,,83,127
92981,note_off,0,0,0,,0,,,72,127
92982,note_on,1,0,0,,2,,,74,127
92982,note_on,0,0,0,,12,,,71,127
93122,note_on,140,0,0,,12,,,83,127
93261,note_off,139,0,0,,12,,,83,127
93262,note_off,1,0,0,,2,,,74,127
93262,note_on,0,0,0,,10,,,81,127
93401,note_off,139,0,0,,10,,,81,127
93402,note_on,1,0,0,,7,,,79,127
93541,note_off,139,0,0,,7,,,79,127
93542,note_on,1,0,0,,2,,,74,127
93681,note_off,139,0,0,,2,,,74,127
93682,note_on,1,0,0,,12,,,83,127
93821,note_off,139,0,0,,12,,,83,127
93822,note_on,1,0,0,,10,,,81,127
93961,note_off,139,0,0,,10,,,81,127
93962,note_on,1,0,0,,7,,,79,127
94101,note_off,139,0,0,,7,,,79,127
94101,note_off,0,0,0,,12,,,71,127
94102,note_on,1,0,0,,4,,,76,127
94102,note_on,0,0,0,,0,,,72,127
94242,note_on,140,0,0,,12,,,83,127
94381,note_off,139,0,0,,12,,,83,127
94382,note_off,1,0,0,,4,,,76,127
94382,note_on,0,0,0,,10,,,81,127
94521,note_off,139,0,0,,10,,,81,127
94522,note_on,1,0,0,,7,,,79,127
94661,note_off,139,0,0,,7,,,79,127
94661,note_off,0,0,0,,0,,,72,127
94662,note_on,1,0,0,,2,,,74,127
94662,note_on,0,0,0,,12,,,71,127
94802,note_on,140,0,0,,12,,,83,127
94941,note_off,139,0,0,,12,,,83,127
94942,note_off,1,0,0,,2,,,74,127
94942,note_on,0,0,0,,10,,,81,127
95081,note_off,139,0,0,,10,,,81,127
95082,note_on,1,0,0,,7,,,79,127
95221,note_off,139,0,0,,7,,,79,127
95221,note_off,0,0,0,,12,,,71,127
95222,note_on,1,0,0,,0,,,72,127
95222,note_on,0,0,0,,10,,,69,127
95362,note_on,140,0,0,,12,,,83,127
95501,note_off,139,0,0,,12,,,83,127
95502,note_off,1,0,0,,0,,,72,127
95502,note_on,0,0,0,,10,,,81,127
95641,note_off,139,0,0,,10,,,81,127
95642,note_on,1,0,0,,7,,,79,127
95781,note_off,139,0,0,,7,,,79,127
95781,note_off,0,0,0,,10,,,69,127
95782,note_on,1,0,0,,12,,,71,127
95782,note_on,0,0,0,,7,,,67,127
95922,note_on,140,0,0,,12,,,83,127
96061,note_off,139,0,0,,12,,,83,127
96062,note_off,1,0,0,,12,,,71,127
96062,note_on,0,0,0,,10,,,81,127
96201,note_off,139,0,0,,10,,,81,127
96202,note_on,1,0,0,,7,,,79,127
96341,note_off,139,0,0,,7,,,79,127
96341,note_off,0,0,0,,7,,,67,127
96342,note_on,1,0,0,,4,,,76,127
96342,note_on,0,0,0,,0,,,60,127
96481,note_off,139,0,0,,4,,,76,127
96482,note_on,1,0,0,,0,,,84,127
96621,note_off,139,0,0,,0,,,84,127
96622,note_on,1,0,0,,12,,,83,127
96761,note_off,139,0,0,,12,,,83,127
96762,note_on,1,0,0,,10,,,81,127
96901,note_off,139,0,0,,10,,,81,127
96901,note_off,0,0,0,,0,,,60,127
96902,note_on,1,0,0,,12,,,83,127
96902,note_on,0,0,0,,2,,,62,127
97041,note_off,139,0,0,,12,,,83,127
97042,note_on,1,0,0,,0,,,84,127
97181,note_off,139,0,0,,0,,,84,127
97182,note_on,1,0,0,,2,,,86,127
97321,note_off,139,0,0,,2,,,86,127
97322,note_on,1,0,0,,0,,,84,127
97461,note_off,139,0,0,,0,,,84,127
97462,note_on,1,0,0,,12,,,83,127
97462,note_on,0,0,0,,2,,,50,127
97601,note_off,139,0,0,,12,,,83,127
97602,note_on,1,0,0,,10,,,81,127
97741,note_off,139,0,0,,10,,,81,127
97742,note_on,1,0,0,,7,,,79,127
97881,note_off,139,0,0,,7,,,79,127
97882,note_on,1,0,0,,6,,,78,127
98021,note_off,139,0,0,,6,,,78,127
98021,note_off,0,0,0,,2,,,62,127
98022,note_off,1,0,0,,2,,,50,127
98022,note_on,0,0,0,,7,,,79,127
98162,note_on,140,0,0,,12,,,71,127
98301,note_off,139,0,0,,12,,,71,127
98302,note_on,1,0,0,,10,,,69,127
98441,note_off,139,0,0,,10,,,69,127
98442,note_on,1,0,0,,7,,,67,127
98581,note_off,139,0,0,,7,,,67,127
98582,note_on,1,0,0,,2,,,62,127
98722,note_on,140,0,0,,12,,,71,127
98861,note_off,139,0,0,,12,,,71,127
98862,note_off,1,0,0,,2,,,62,127
98862,note_on,0,0,0,,10,,,69,127
99001,note_off,139,0,0,,10,,,69,127
99002,note_on,1,0,0,,7,,,67,127
99141,note_off,139,0,0,,7,,,67,127
99141,note_off,0,0,0,,7,,,79,127
99142,note_on,1,0,0,,10,,,81,127
99142,note_on,0,0,0,,0,,,60,127
99282,note_on,140,0,0,,12,,,71,127
99421,note_off,139,0,0,,12,,,71,127
99422,note_off,1,0,0,,0,,,60,127
99422,note_on,0,0,0,,10,,,69,127
99561,note_off,139,0,0,,10,,,69,127
99562,note_on,1,0,0,,7,,,67,127
99701,note_off,139,0,0,,7,,,67,127
99701,note_off,0,0,0,,10,,,81,127
99702,note_on,1,0,0,,12,,,83,127
99702,note_on,0,0,0,,12,,,59,127
99842,note_on,140,0,0,,12,,,71,127
99981,note_off,139,0,0,,12,,,71,127
99982,note_off,1,0,0,,12,,,59,127
99982,note_on,0,0,0,,10,,,69,127
100121,note_off,139,0,0,,10,,,69,127
100122,note_on,1,0,0,,7,,,67,127
100261,note_off,139,0,0,,7,,,67,127
100261,note_off,0,0,0,,12,,,83,127
100262,note_on,1,0,0,,0,,,84,127
100262,note_on,0,0,0,,10,,,57,127
100402,note_on,140,0,0,,12,,,71,127
100541,note_off,139,0,0,,12,,,71,127
100542,note_off,1,0,0,,10,,,57,127
100542,note_on,0,0,0,,10,,,69,127
100681,note_off,139,0,0,,10,,,69,127
100682,note_on,1,0,0,,7,,,67,127
100821,note_off,139,0,0,,7,,,67,127
100821,note_off,0,0,0,,0,,,84,127
100822,note_on,1,0,0,,12,,,83,127
100822,note_on,0,0,0,,7,,,55,127
100961,note_off,139,0,0,,12,,,83,127
100962,note_on,1,0,0,,10,,,81,127
101101,note_off,139,0,0,,10,,,81,127
101102,note_on,1,0,0,,7,,,79,127
101241,note_off,139,0,0,,7,,,79,127
101242,note_on,1,0,0,,6,,,78,127
101381,note_off,139,0,0,,6,,,78,127
101381,note_off,0,0,0,,7,,,55,127
101382,note_on,1,0,0,,4,,,76,127
101382,note_on,0,0,0,,0,,,60,127
101521,note_off,139,0,0,,4,,,76,127
101522,note_on,1,0,0,,6,,,78,127
101661,note_off,139,0,0,,6,,,78,127
101662,note_on,1,0,0,,7,,,79,127
101801,note_off,139,0,0,,7,,,79,127
101802,note_on,1,0,0,,10,,,81,127
101941,note_off,139,0,0,,0,,,60,127
101942,note_on,1,0,0,,12,,,71,127
101942,note_on,0,0,0,,2,,,62,127
102080,note_off,138,0,0,,10,,,81,127
102083,note_on,3,0,0,,7,,,79,127
102153,note_off,70,0,0,,12,,,71,127
102222,note_off,69,0,0,,7,,,79,127
102223,note_on,1,0,0,,6,,,78,127
102362,note_off,139,0,0,,6,,,78,127
102363,note_on,1,0,0,,7,,,79,127
102503,note_on,140,0,0,,10,,,69,127
102503,note_on,0,0,0,,2,,,50,127
102573,note_off,70,0,0,,7,,,79,127
102643,note_on,70,0,0,,7,,,79,127
102713,note_off,70,0,0,,10,,,69,127
102783,note_on,70,0,0,,10,,,69,127
102853,note_off,70,0,0,,7,,,79,127
102923,note_on,70,0,0,,6,,,78,127
102993,note_off,70,0,0,,10,,,69,127
103062,note_off,69,0,0,,6,,,78,127
103062,note_off,0,0,0,,2,,,62,127
103063,note_off,1,0,0,,2,,,50,127
103063,note_on,0,0,0,,7,,,67,127
103203,note_on,140,0,0,,12,,,59,127
103342,note_off,139,0,0,,12,,,59,127
103343,note_on,1,0,0,,10,,,57,127
103482,note_off,139,0,0,,10,,,57,127
103483,note_on,1,0,0,,7,,,55,127
103622,note_off,139,0,0,,7,,,55,127
103623,note_on,1,0,0,,2,,,50,127
103763,note_on,140,0,0,,12,,,59,127
103833,note_off,70,0,0,,2,,,50,127
103902,note_off,69,0,0,,12,,,59,127
103903,note_on,1,0,0,,10,,,57,127
104042,note_off,139,0,0,,10,,,57,127
104043,note_on,1,0,0,,7,,,55,127
104182,note_off,139,0,0,,7,,,55,127
104182,note_off,0,0,0,,7,,,67,127
104183,note_on,1,0,0,,10,,,69,127
104183,note_on,0,0,0,,0,,,48,127
104323,note_on,140,0,0,,12,,,59,127
104393,note_off,70,0,0,,0,,,48,127
104462,note_off,69,0,0,,12,,,59,127
104463,note_on,1,0,0,,10,,,57,127
104602,note_off,139,0,0,,10,,,57,127
104603,note_on,1,0,0,,7,,,55,127
104742,note_off,139,0,0,,7,,,55,127
104742,note_off,0,0,0,,10,,,69,127
104743,note_on,1,0,0,,12,,,71,127
104743,note_on,0,0,0,,12,,,47,127
104883,note_on,140,0,0,,12,,,59,127
104953,note_off,70,0,0,,12,,,47,127
105022,note_off,69,0,0,,12,,,59,127
105023,note_on,1,0,0,,10,,,57,127
105162,note_off,139,0,0,,10,,,57,127
105163,note_on,1,0,0,,7,,,55,127
105302,note_off,139,0,0,,7,,,55,127
105302,note_off,0,0,0,,12,,,71,127
105303,note_on,1,0,0,,0,,,72,127
105303,note_on,0,0,0,,10,,,45,127
105443,note_on,140,0,0,,12,,,59,127
105513,note_off,70,0,0,,10,,,45,127
105582,note_off,69,0,0,,12,,,59,127
105583,note_on,1,0,0,,10,,,57,127
105722,note_off,139,0,0,,10,,,57,127
105723,note_on,1,0,0,,7,,,55,127
105862,note_off,139,0,0,,7,,,55,127
105862,note_off,0,0,0,,0,,,72,127
105863,note_on,1,0,0,,12,,,71,127
105863,note_on,0,0,0,,7,,,43,127
106002,note_off,139,0,0,,12,,,71,127
106003,note_on,1,0,0,,10,,,69,127
106142,note_off,139,0,0,,10,,,69,127
106143,note_on,1,0,0,,7,,,67,127
106282,note_off,139,0,0,,7,,,67,127
106283,note_on,1,0,0,,6,,,66,127
106422,note_off,139,0,0,,6,,,66,127
106422,note_off,0,0,0,,7,,,43,127
106423,note_on,1,0,0,,4,,,64,127
106423,note_on,0,0,0,,0,,,48,127
106562,note_off,139,0,0,,4,,,64,127
106563,note_on,1,0,0,,0,,,72,127
106702,note_off,139,0,0,,0,,,72,127
106703,note_on,1,0,0,,12,,,71,127
106842,note_off,139,0,0,,12,,,71,127
106843,note_on,1,0,0,,10,,,69,127
106982,note_off,139,0,0,,10,,,69,127
106982,note_off,0,0,0,,0,,,48,127
106983,note_on,1,0,0,,12,,,71,127
106983,note_on,0,0,0,,2,,,50,127
107122,note_off,139,0,0,,12,,,71,127
107123,note_on,1,0,0,,0,,,72,127
107262,note_off,139,0,0,,0,,,72,127
107263,note_on,1,0,0,,2,,,74,127
107402,note_off,139,0,0,,2,,,74,127
107403,note_on,1,0,0,,0,,,72,127
107542,note_off,139,0,0,,0,,,72,127
107543,note_on,1,0,0,,12,,,71,127
107543,note_on,0,0,0,,2,,,38,127
107682,note_off,139,0,0,,12,,,71,127
107683,note_on,1,0,0,,10,,,69,127
107822,note_off,139,0,0,,10,,,69,127
107823,note_on,1,0,0,,7,,,67,127
107962,note_off,139,0,0,,7,,,67,127
107963,note_on,1,0,0,,6,,,66,127
108102,note_off,139,0,0,,6,,,66,127
108102,note_off,0,0,0,,2,,,38,127
108102,note_off,0,0,0,,2,,,50,127
108103,note_on,1,0,0,,7,,,67,127
108103,note_on,0,0,0,,7,,,43,127
108242,note_off,139,0,0,,7,,,67,127
108243,note_on,1,0,0,,2,,,62,127
108382,note_off,139,0,0,,2,,,62,127
108383,note_on,1,0,0,,12,,,71,127
108522,note_off,139,0,0,,12,,,71,127
108523,note_on,1,0,0,,7,,,67,127
108662,note_off,139,0,0,,7,,,67,127
108663,note_on,1,0,0,,2,,,74,127
108802,note_off,139,0,0,,2,,,74,127
108803,note_on,1,0,0,,12,,,71,127
108942,note_off,139,0,0,,12,,,71,127
108943,note_on,1,0,0,,7,,,79,127
109082,note_off,139,0,0,,7,,,79,127
109083,note_on,1,0,0,,2,,,74,127
109095,note_off,12,0,0,,7,,,43,127
109222,note_off,127,0,0,,2,,,74,127
109223,note_on,1,0,0,,12,,,83,127
109223,note_on,0,0,0,,12,,,59,127
109362,note_off,139,0,0,,12,,,83,127
109363,note_on,1,0,0,,7,,,79,127
109502,note_off,139,0,0,,7,,,79,127
109503,note_on,1,0,0,,7,,,79,127
109642,note_off,139,0,0,,7,,,79,127
109643,note_on,1,0,0,,2,,,74,127
109782,note_off,139,0,0,,12,,,59,127
109783,note_on,1,0,0,,0,,,60,127
109921,note_off,138,0,0,,2,,,74,127
109924,note_on,3,0,0,,4,,,76,127
110063,note_off,139,0,0,,4,,,76,127
110064,note_on,1,0,0,,4,,,76,127
110203,note_off,139,0,0,,4,,,76,127
110204,note_on,1,0,0,,0,,,72,127
110343,note_off,139,0,0,,0,,,72,127
110343,note_off,0,0,0,,0,,,60,127
110344,note_on,1,0,0,,0,,,72,127
110344,note_on,0,0,0,,2,,,62,127
110483,note_off,139,0,0,,0,,,72,127
110484,note_on,1,0,0,,12,,,71,127
110623,note_off,139,0,0,,12,,,71,127
110624,note_on,1,0,0,,12,,,71,127
110763,note_off,139,0,0,,12,,,71,127
110764,note_on,1,0,0,,10,,,69,127
110903,note_off,139,0,0,,10,,,69,127
110904,note_on,1,0,0,,10,,,69,127
110904,note_on,0,0,0,,2,,,50,127
111043,note_off,139,0,0,,10,,,69,127
111044,note_on,1,0,0,,7,,,67,127
111183,note_off,139,0,0,,7,,,67,127
111183,note_off,0,0,0,,2,,,62,127
111184,note_on,1,0,0,,7,,,67,127
111323,note_off,139,0,0,,7,,,67,127
111324,note_on,1,0,0,,6,,,66,127
111463,note_off,139,0,0,,6,,,66,127
111463,note_off,0,0,0,,2,,,50,127
111464,note_on,1,0,0,,7,,,67,127
111464,note_on,0,0,0,,7,,,43,127
111603,note_off,139,0,0,,7,,,67,127
111604,note_on,1,0,0,,2,,,62,127
111743,note_off,139,0,0,,2,,,62,127
111744,note_on,1,0,0,,12,,,71,127
111883,note_off,139,0,0,,12,,,71,127
111884,note_on,1,0,0,,7,,,67,127
112023,note_off,139,0,0,,7,,,67,127
112024,note_on,1,0,0,,2,,,74,127
112163,note_off,139,0,0,,2,,,74,127
112164,note_on,1,0,0,,12,,,71,127
112303,note_off,139,0,0,,12,,,71,127
112304,note_on,1,0,0,,7,,,79,127
112443,note_off,139,0,0,,7,,,79,127
112444,note_on,1,0,0,,2,,,74,127
112456,note_off,12,0,0,,7,,,43,127
112583,note_off,127,0,0,,2,,,74,127
112584,note_on,1,0,0,,12,,,83,127
112584,note_on,0,0,0,,12,,,47,127
112723,note_off,139,0,0,,12,,,83,127
112724,note_on,1,0,0,,7,,,79,127
112863,note_off,139,0,0,,7,,,79,127
112864,note_on,1,0,0,,7,,,79,127
113003,note_off,139,0,0,,7,,,79,127
113004,note_on,1,0,0,,2,,,74,127
113143,note_off,139,0,0,,2,,,74,127
113143,note_off,0,0,0,,12,,,47,127
113144,note_on,1,0,0,,2,,,74,127
113144,note_on,0,0,0,,0,,,48,127
113283,note_off,139,0,0,,2,,,74,127
113284,note_on,1,0,0,,4,,,76,127
113423,note_off,139,0,0,,4,,,76,127
113424,note_on,1,0,0,,4,,,76,127
113563,note_off,139,0,0,,4,,,76,127
113564,note_on,1,0,0,,0,,,72,127
113703,note_off,139,0,0,,0,,,72,127
113703,note_off,0,0,0,,0,,,48,127
113704,note_on,1,0,0,,0,,,72,127
113704,note_on,0,0,0,,2,,,50,127
113843,note_off,139,0,0,,0,,,72,127
113844,note_on,1,0,0,,12,,,71,127
113983,note_off,139,0,0,,12,,,71,127
113984,note_on,1,0,0,,12,,,71,127
114123,note_off,139,0,0,,12,,,71,127
114124,note_on,1,0,0,,10,,,69,127
114263,note_off,139,0,0,,10,,,69,127
114264,note_on,1,0,0,,10,,,69,127
114264,note_on,0,0,0,,2,,,38,127
114403,note_off,139,0,0,,10,,,69,127
114404,note_on,1,0,0,,7,,,67,127
114543,note_off,139,0,0,,7,,,67,127
114544,note_on,1,0,0,,7,,,67,127
114683,note_off,139,0,0,,7,,,67,127
114684,note_on,1,0,0,,6,,,66,127
114823,note_off,139,0,0,,6,,,66,127
114823,note_off,0,0,0,,2,,,38,127
114823,note_off,0,0,0,,2,,,50,127
114824,note_on,1,0,0,,7,,,67,127
114824,note_on,0,0,0,,7,,,43,127
114824,note_on,0,0,0,,7,,,55,127
116791,note_off,1967,0,0,,7,,,55,127
116791,note_off,0,0,0,,7,,,43,127
116791,note_off,0,0,0,,7,,,67,127
118272,end_of_track,1481,1,0,,,,,,
