tick,type,time,meta,track,program,channel,pitch,tempo,note,velocity
0,copyright,0,1,0,,,,,,
0,program_change,0,0,0,6,0,,,,
0,pitchwheel,0,0,0,,0,0,,,
0,program_change,0,0,0,6,1,,,,
0,pitchwheel,0,0,0,,1,-590,,,
0,program_change,0,0,0,6,2,,,,
0,pitchwheel,0,0,0,,2,-272,,,
0,program_change,0,0,0,6,3,,,,
0,pitchwheel,0,0,0,,3,-353,,,
0,program_change,0,0,0,6,4,,,,
0,pitchwheel,0,0,0,,4,-560,,,
0,program_change,0,0,0,6,5,,,,
0,pitchwheel,0,0,0,,5,-80,,,
0,program_change,0,0,0,6,6,,,,
0,pitchwheel,0,0,0,,6,-625,,,
0,program_change,0,0,0,6,7,,,,
0,pitchwheel,0,0,0,,7,-130,,,
0,program_change,0,0,0,6,8,,,,
0,pitchwheel,0,0,0,,8,-512,,,
0,program_change,0,0,0,6,10,,,,
0,pitchwheel,0,0,0,,10,-464,,,
0,program_change,0,0,0,6,11,,,,
0,pitchwheel,0,0,0,,11,-208,,,
0,program_change,0,0,0,6,12,,,,
0,pitchwheel,0,0,0,,12,-553,,,
0,set_tempo,0,1,0,,,,500000,,
148,note_on,148,0,0,,7,,,67,127
296,note_on,148,0,0,,12,,,71,127
333,note_off,37,0,0,,7,,,67,127
439,note_off,106,0,0,,12,,,71,127
444,note_on,5,0,0,,2,,,74,127
587,note_off,143,0,0,,2,,,74,127
592,note_on,5,0,0,,7,,,79,127
735,note_off,143,0,0,,7,,,79,127
740,note_on,5,0,0,,12,,,83,127
883,note_off,143,0,0,,12,,,83,127
888,note_on,5,0,0,,2,,,86,127
1031,note_off,143,0,0,,2,,,86,127
1036,note_on,5,0,0,,7,,,55,127
1036,note_on,0,0,0,,7,,,79,127
1184,note_on,148,0,0,,12,,,59,127
1221,note_off,37,0,0,,7,,,55,127
1327,note_off,106,0,0,,12,,,59,127
1332,note_on,5,0,0,,2,,,62,127
1475,note_off,143,0,0,,2,,,62,127
1480,note_on,5,0,0,,7,,,67,127
1623,note_off,143,0,0,,7,,,67,127
1628,note_on,5,0,0,,12,,,71,127
1771,note_off,143,0,0,,12,,,71,127
1776,note_on,5,0,0,,2,,,74,127
1919,note_off,143,0,0,,2,,,74,127
1924,note_on,5,0,0,,2,,,50,127
2067,note_off,143,0,0,,7,,,79,127
2072,note_on,5,0,0,,10,,,81,127
2215,note_off,143,0,0,,10,,,81,127
2220,note_on,5,0,0,,2,,,74,127
2363,note_off,143,0,0,,2,,,74,127
2368,note_on,5,0,0,,12,,,71,127
2511,note_off,143,0,0,,12,,,71,127
2516,note_on,5,0,0,,0,,,72,127
2659,note_off,143,0,0,,2,,,50,127
2664,note_on,5,0,0,,6,,,54,127
2807,note_off,143,0,0,,6,,,54,127
2812,note_on,5,0,0,,7,,,55,127
2955,note_off,143,0,0,,0,,,72,127
2960,note_on,5,0,0,,4,,,76,127
3103,note_off,143,0,0,,4,,,76,127
3108,note_on,5,0,0,,0,,,72,127
3251,note_off,143,0,0,,0,,,72,127
3256,note_on,5,0,0,,10,,,69,127
3399,note_off,143,0,0,,10,,,69,127
3399,note_off,0,0,0,,7,,,55,127
3404,note_on,5,0,0,,7,,,43,127
3404,note_on,0,0,0,,12,,,71,127
3547,note_off,143,0,0,,12,,,71,127
3552,note_on,5,0,0,,2,,,74,127
3695,note_off,143,0,0,,2,,,74,127
3695,note_off,0,0,0,,7,,,43,127
3700,note_on,5,0,0,,0,,,48,127
3700,note_on,0,0,0,,12,,,71,127
3843,note_off,143,0,0,,12,,,71,127
3848,note_on,5,0,0,,7,,,67,127
3991,note_off,143,0,0,,7,,,67,127
3991,note_off,0,0,0,,0,,,48,127
3996,note_on,5,0,0,,2,,,50,127
3996,note_on,0,0,0,,10,,,69,127
4139,note_off,143,0,0,,10,,,69,127
4144,note_on,5,0,0,,0,,,72,127
4287,note_off,143,0,0,,0,,,72,127
4287,note_off,0,0,0,,2,,,50,127
4292,note_on,5,0,0,,2,,,38,127
4292,note_on,0,0,0,,4,,,64,127
4435,note_off,143,0,0,,4,,,64,127
4440,note_on,5,0,0,,6,,,66,127
4583,note_off,143,0,0,,6,,,66,127
4583,note_off,0,0,0,,2,,,38,127
4588,note_on,5,0,0,,7,,,55,127
4588,note_on,0,0,0,,7,,,67,127
4731,note_off,143,0,0,,7,,,55,127
4736,note_on,5,0,0,,12,,,59,127
4879,note_off,143,0,0,,12,,,59,127
4884,note_on,5,0,0,,2,,,62,127
5027,note_off,143,0,0,,2,,,62,127
5030,note_off,3,0,0,,7,,,67,127
5032,note_on,2,0,0,,7,,,67,127
5180,note_on,148,0,0,,12,,,71,127
5180,note_on,0,0,0,,12,,,83,127
5323,note_off,143,0,0,,12,,,71,127
5326,note_off,3,0,0,,7,,,67,127
5328,note_on,2,0,0,,2,,,74,127
5471,note_off,143,0,0,,2,,,74,127
5476,note_on,5,0,0,,2,,,50,127
5619,note_off,143,0,0,,12,,,83,127
5624,note_on,5,0,0,,10,,,81,127
5767,note_off,143,0,0,,10,,,81,127
5772,note_on,5,0,0,,2,,,74,127
5915,note_off,143,0,0,,2,,,74,127
5920,note_on,5,0,0,,0,,,72,127
6063,note_off,143,0,0,,0,,,72,127
6068,note_on,5,0,0,,12,,,71,127
6211,note_off,143,0,0,,12,,,71,127
6216,note_on,5,0,0,,10,,,69,127
6359,note_off,143,0,0,,10,,,69,127
6359,note_off,0,0,0,,2,,,50,127
6364,note_on,5,0,0,,7,,,55,127
6364,note_on,0,0,0,,10,,,69,127
6507,note_off,143,0,0,,10,,,69,127
6507,note_off,0,0,0,,7,,,55,127
6512,note_on,5,0,0,,12,,,59,127
6512,note_on,0,0,0,,12,,,71,127
6655,note_off,143,0,0,,12,,,59,127
6660,note_on,5,0,0,,2,,,62,127
6803,note_off,143,0,0,,2,,,62,127
6808,note_on,5,0,0,,7,,,67,127
6951,note_off,143,0,0,,7,,,67,127
6951,note_off,0,0,0,,12,,,71,127
6956,note_on,5,0,0,,12,,,71,127
6956,note_on,0,0,0,,12,,,83,127
7099,note_off,143,0,0,,12,,,71,127
7104,note_on,5,0,0,,2,,,74,127
7247,note_off,143,0,0,,2,,,74,127
7252,note_on,5,0,0,,2,,,50,127
7395,note_off,143,0,0,,12,,,83,127
7400,note_on,5,0,0,,10,,,81,127
7543,note_off,143,0,0,,10,,,81,127
7548,note_on,5,0,0,,2,,,74,127
7691,note_off,143,0,0,,2,,,74,127
7696,note_on,5,0,0,,0,,,72,127
7839,note_off,143,0,0,,0,,,72,127
7844,note_on,5,0,0,,12,,,71,127
7987,note_off,143,0,0,,12,,,71,127
7992,note_on,5,0,0,,10,,,69,127
8135,note_off,143,0,0,,10,,,69,127
8135,note_off,0,0,0,,2,,,50,127
8140,note_on,5,0,0,,7,,,55,127
8140,note_on,0,0,0,,10,,,69,127
8283,note_off,143,0,0,,10,,,69,127
8283,note_off,0,0,0,,7,,,55,127
8288,note_on,5,0,0,,12,,,59,127
8288,note_on,0,0,0,,12,,,71,127
8431,note_off,143,0,0,,12,,,59,127
8436,note_on,5,0,0,,2,,,62,127
8579,note_off,143,0,0,,2,,,62,127
8584,note_on,5,0,0,,7,,,67,127
8727,note_off,143,0,0,,7,,,67,127
8727,note_off,0,0,0,,12,,,71,127
8732,note_on,5,0,0,,12,,,71,127
8732,note_on,0,0,0,,12,,,83,127
8875,note_off,143,0,0,,12,,,71,127
8880,note_on,5,0,0,,2,,,74,127
9023,note_off,143,0,0,,2,,,74,127
9028,note_on,5,0,0,,4,,,52,127
9171,note_off,143,0,0,,12,,,83,127
9176,note_on,5,0,0,,7,,,79,127
9319,note_off,143,0,0,,7,,,79,127
9324,note_on,5,0,0,,4,,,76,127
9467,note_off,143,0,0,,4,,,76,127
9472,note_on,5,0,0,,2,,,74,127
9615,note_off,143,0,0,,2,,,74,127
9620,note_on,5,0,0,,2,,,74,127
9763,note_off,143,0,0,,2,,,74,127
9768,note_on,5,0,0,,1,,,73,127
9911,note_off,143,0,0,,1,,,73,127
9911,note_off,0,0,0,,4,,,52,127
9916,note_on,5,0,0,,6,,,54,127
9916,note_on,0,0,0,,1,,,73,127
10059,note_off,143,0,0,,1,,,73,127
10059,note_off,0,0,0,,6,,,54,127
10064,note_on,5,0,0,,10,,,57,127
10064,note_on,0,0,0,,2,,,74,127
10207,note_off,143,0,0,,10,,,57,127
10212,note_on,5,0,0,,2,,,62,127
10355,note_off,143,0,0,,2,,,62,127
10360,note_on,5,0,0,,6,,,66,127
10503,note_off,143,0,0,,6,,,66,127
10503,note_off,0,0,0,,2,,,74,127
10508,note_on,5,0,0,,10,,,69,127
10508,note_on,0,0,0,,10,,,81,127
10651,note_off,143,0,0,,10,,,69,127
10656,note_on,5,0,0,,2,,,74,127
10799,note_off,143,0,0,,2,,,74,127
10804,note_on,5,0,0,,10,,,45,127
10947,note_off,143,0,0,,10,,,81,127
10952,note_on,5,0,0,,4,,,76,127
11095,note_off,143,0,0,,4,,,76,127
11100,note_on,5,0,0,,10,,,69,127
11243,note_off,143,0,0,,10,,,69,127
11248,note_on,5,0,0,,7,,,79,127
11391,note_off,143,0,0,,7,,,79,127
11396,note_on,5,0,0,,6,,,78,127
11539,note_off,143,0,0,,6,,,78,127
11544,note_on,5,0,0,,4,,,76,127
11687,note_off,143,0,0,,4,,,76,127
11687,note_off,0,0,0,,10,,,45,127
11692,note_on,5,0,0,,2,,,50,127
11692,note_on,0,0,0,,4,,,76,127
11835,note_off,143,0,0,,4,,,76,127
11835,note_off,0,0,0,,2,,,50,127
11840,note_on,5,0,0,,6,,,54,127
11840,note_on,0,0,0,,6,,,78,127
11983,note_off,143,0,0,,6,,,54,127
11988,note_on,5,0,0,,10,,,57,127
12131,note_off,143,0,0,,10,,,57,127
12136,note_on,5,0,0,,2,,,62,127
12279,note_off,143,0,0,,2,,,62,127
12279,note_off,0,0,0,,6,,,78,127
12284,note_on,5,0,0,,6,,,66,127
12284,note_on,0,0,0,,10,,,81,127
12427,note_off,143,0,0,,6,,,66,127
12432,note_on,5,0,0,,10,,,69,127
12575,note_off,143,0,0,,10,,,69,127
12580,note_on,5,0,0,,12,,,47,127
12723,note_off,143,0,0,,10,,,81,127
12728,note_on,5,0,0,,10,,,81,127
12871,note_off,143,0,0,,10,,,81,127
12876,note_on,5,0,0,,2,,,86,127
13019,note_off,143,0,0,,2,,,86,127
13024,note_on,5,0,0,,12,,,83,127
13167,note_off,143,0,0,,12,,,83,127
13172,note_on,5,0,0,,10,,,81,127
13315,note_off,143,0,0,,10,,,81,127
13320,note_on,5,0,0,,8,,,80,127
13463,note_off,143,0,0,,8,,,80,127
13463,note_off,0,0,0,,12,,,47,127
13468,note_on,5,0,0,,1,,,49,127
13468,note_on,0,0,0,,8,,,80,127
13611,note_off,143,0,0,,8,,,80,127
13611,note_off,0,0,0,,1,,,49,127
13616,note_on,5,0,0,,4,,,52,127
13616,note_on,0,0,0,,10,,,81,127
13759,note_off,143,0,0,,4,,,52,127
13764,note_on,5,0,0,,10,,,57,127
13907,note_off,143,0,0,,10,,,57,127
13912,note_on,5,0,0,,1,,,61,127
14055,note_off,143,0,0,,1,,,61,127
14060,note_on,5,0,0,,4,,,64,127
14203,note_off,143,0,0,,4,,,64,127
14208,note_on,5,0,0,,10,,,69,127
14351,note_off,143,0,0,,10,,,69,127
14356,note_on,5,0,0,,12,,,47,127
14499,note_off,143,0,0,,10,,,81,127
14504,note_on,5,0,0,,12,,,83,127
14647,note_off,143,0,0,,12,,,83,127
14652,note_on,5,0,0,,2,,,74,127
14795,note_off,143,0,0,,2,,,74,127
14800,note_on,5,0,0,,4,,,76,127
14943,note_off,143,0,0,,4,,,76,127
14948,note_on,5,0,0,,6,,,78,127
15091,note_off,143,0,0,,6,,,78,127
15096,note_on,5,0,0,,8,,,80,127
15239,note_off,143,0,0,,8,,,80,127
15239,note_off,0,0,0,,12,,,47,127
15244,note_on,5,0,0,,10,,,45,127
15244,note_on,0,0,0,,10,,,81,127
15387,note_off,143,0,0,,10,,,81,127
15392,note_on,5,0,0,,4,,,76,127
15535,note_off,143,0,0,,4,,,76,127
15540,note_on,5,0,0,,1,,,73,127
15683,note_off,143,0,0,,1,,,73,127
15688,note_on,5,0,0,,2,,,74,127
15831,note_off,143,0,0,,2,,,74,127
15836,note_on,5,0,0,,4,,,76,127
15979,note_off,143,0,0,,4,,,76,127
15984,note_on,5,0,0,,10,,,69,127
16127,note_off,143,0,0,,10,,,45,127
16132,note_on,5,0,0,,12,,,47,127
16275,note_off,143,0,0,,10,,,69,127
16280,note_on,5,0,0,,12,,,71,127
16423,note_off,143,0,0,,12,,,71,127
16428,note_on,5,0,0,,2,,,62,127
16571,note_off,143,0,0,,2,,,62,127
16576,note_on,5,0,0,,4,,,64,127
16719,note_off,143,0,0,,4,,,64,127
16724,note_on,5,0,0,,6,,,66,127
16867,note_off,143,0,0,,6,,,66,127
16872,note_on,5,0,0,,8,,,68,127
17015,note_off,143,0,0,,8,,,68,127
17015,note_off,0,0,0,,12,,,47,127
17020,note_on,5,0,0,,10,,,45,127
17020,note_on,0,0,0,,10,,,69,127
17168,note_on,148,0,0,,10,,,57,127
17236,note_off,68,0,0,,10,,,69,127
17316,note_on,80,0,0,,10,,,69,127
17384,note_off,68,0,0,,10,,,57,127
17464,note_on,80,0,0,,10,,,57,127
17532,note_off,68,0,0,,10,,,69,127
17612,note_on,80,0,0,,10,,,69,127
17680,note_off,68,0,0,,10,,,57,127
17760,note_on,80,0,0,,10,,,57,127
17828,note_off,68,0,0,,10,,,69,127
17903,note_off,75,0,0,,10,,,45,127
17906,note_off,3,0,0,,10,,,57,127
17908,note_on,2,0,0,,10,,,57,127
17908,note_on,0,0,0,,10,,,69,127
17977,note_off,69,0,0,,10,,,57,127
17982,note_on,5,0,0,,7,,,55,127
18051,note_off,69,0,0,,7,,,55,127
18056,note_on,5,0,0,,10,,,57,127
18124,note_off,68,0,0,,10,,,69,127
18130,note_on,6,0,0,,7,,,55,127
18199,note_off,69,0,0,,7,,,55,127
18201,note_off,2,0,0,,10,,,57,127
18204,note_on,3,0,0,,10,,,57,127
18204,note_on,0,0,0,,10,,,69,127
18273,note_off,69,0,0,,10,,,57,127
18278,note_on,5,0,0,,7,,,55,127
18347,note_off,69,0,0,,7,,,55,127
18352,note_on,5,0,0,,10,,,57,127
18420,note_off,68,0,0,,10,,,69,127
18426,note_on,6,0,0,,7,,,55,127
18495,note_off,69,0,0,,7,,,55,127
18497,note_off,2,0,0,,10,,,57,127
18500,note_on,3,0,0,,10,,,57,127
18500,note_on,0,0,0,,10,,,69,127
18569,note_off,69,0,0,,10,,,57,127
18574,note_on,5,0,0,,7,,,55,127
18643,note_off,69,0,0,,7,,,55,127
18648,note_on,5,0,0,,10,,,57,127
18716,note_off,68,0,0,,10,,,69,127
18722,note_on,6,0,0,,7,,,55,127
18791,note_off,69,0,0,,7,,,55,127
18794,note_off,3,0,0,,10,,,57,127
18820,note_on,26,0,0,,8,,,80,127
18820,note_on,0,0,0,,5,,,53,127
18968,note_on,148,0,0,,8,,,68,127
19036,note_off,68,0,0,,8,,,80,127
19116,note_on,80,0,0,,8,,,80,127
19184,note_off,68,0,0,,8,,,68,127
19264,note_on,80,0,0,,8,,,68,127
19332,note_off,68,0,0,,8,,,80,127
19412,note_on,80,0,0,,8,,,80,127
19480,note_off,68,0,0,,8,,,68,127
19560,note_on,80,0,0,,11,,,82,127
19628,note_off,68,0,0,,8,,,80,127
19703,note_off,75,0,0,,5,,,53,127
19708,note_on,5,0,0,,0,,,84,127
19708,note_on,0,0,0,,5,,,53,127
19776,note_off,68,0,0,,11,,,82,127
19851,note_off,75,0,0,,0,,,84,127
19856,note_on,5,0,0,,11,,,82,127
19999,note_off,143,0,0,,11,,,82,127
20004,note_on,5,0,0,,8,,,80,127
20147,note_off,143,0,0,,8,,,80,127
20152,note_on,5,0,0,,6,,,78,127
20295,note_off,143,0,0,,6,,,78,127
20300,note_on,5,0,0,,5,,,77,127
20443,note_off,143,0,0,,5,,,77,127
20448,note_on,5,0,0,,3,,,75,127
20591,note_off,143,0,0,,3,,,75,127
20591,note_off,0,0,0,,5,,,53,127
20596,note_on,5,0,0,,1,,,73,127
20596,note_on,0,0,0,,5,,,53,127
20739,note_off,143,0,0,,1,,,73,127
20744,note_on,5,0,0,,0,,,72,127
20887,note_off,143,0,0,,0,,,72,127
20892,note_on,5,0,0,,11,,,70,127
21035,note_off,143,0,0,,11,,,70,127
21040,note_on,5,0,0,,8,,,68,127
21183,note_off,143,0,0,,8,,,68,127
21188,note_on,5,0,0,,6,,,66,127
21331,note_off,143,0,0,,6,,,66,127
21336,note_on,5,0,0,,5,,,65,127
21479,note_off,143,0,0,,5,,,65,127
21479,note_off,0,0,0,,5,,,53,127
21484,note_on,5,0,0,,3,,,63,127
21484,note_on,0,0,0,,5,,,53,127
21484,note_on,0,0,0,,6,,,54,127
21484,note_on,0,0,0,,11,,,58,127
21632,note_on,148,0,0,,3,,,75,127
21700,note_off,68,0,0,,3,,,63,127
21780,note_on,80,0,0,,3,,,63,127
21848,note_off,68,0,0,,3,,,75,127
21928,note_on,80,0,0,,3,,,75,127
21996,note_off,68,0,0,,3,,,63,127
22076,note_on,80,0,0,,3,,,63,127
22144,note_off,68,0,0,,3,,,75,127
22224,note_on,80,0,0,,3,,,75,127
22292,note_off,68,0,0,,3,,,63,127
22367,note_off,75,0,0,,11,,,58,127
22367,note_off,0,0,0,,6,,,54,127
22367,note_off,0,0,0,,5,,,53,127
22372,note_on,5,0,0,,3,,,63,127
22372,note_on,0,0,0,,8,,,56,127
22372,note_on,0,0,0,,5,,,53,127
22372,note_on,0,0,0,,12,,,59,127
22440,note_off,68,0,0,,3,,,75,127
22520,note_on,80,0,0,,3,,,75,127
22588,note_off,68,0,0,,3,,,63,127
22668,note_on,80,0,0,,3,,,63,127
22736,note_off,68,0,0,,3,,,75,127
22816,note_on,80,0,0,,3,,,75,127
22884,note_off,68,0,0,,3,,,63,127
22964,note_on,80,0,0,,3,,,63,127
23032,note_off,68,0,0,,3,,,75,127
23112,note_on,80,0,0,,3,,,75,127
23180,note_off,68,0,0,,3,,,63,127
23255,note_off,75,0,0,,12,,,59,127
23255,note_off,0,0,0,,5,,,53,127
23255,note_off,0,0,0,,8,,,56,127
23260,note_on,5,0,0,,3,,,63,127
23260,note_on,0,0,0,,8,,,56,127
23260,note_on,0,0,0,,12,,,59,127
23260,note_on,0,0,0,,3,,,51,127
23328,note_off,68,0,0,,3,,,75,127
23408,note_on,80,0,0,,3,,,75,127
23476,note_off,68,0,0,,3,,,63,127
23556,note_on,80,0,0,,3,,,63,127
23624,note_off,68,0,0,,3,,,75,127
23704,note_on,80,0,0,,3,,,75,127
23772,note_off,68,0,0,,3,,,63,127
23852,note_on,80,0,0,,3,,,63,127
23920,note_off,68,0,0,,3,,,75,127
24000,note_on,80,0,0,,3,,,75,127
24068,note_off,68,0,0,,3,,,63,127
24143,note_off,75,0,0,,3,,,51,127
24143,note_off,0,0,0,,12,,,59,127
24143,note_off,0,0,0,,8,,,56,127
24148,note_on,5,0,0,,5,,,65,127
24148,note_on,0,0,0,,2,,,50,127
24148,note_on,0,0,0,,5,,,53,127
24148,note_on,0,0,0,,11,,,58,127
24216,note_off,68,0,0,,3,,,75,127
24296,note_on,80,0,0,,5,,,77,127
24364,note_off,68,0,0,,5,,,65,127
24444,note_on,80,0,0,,5,,,65,127
24512,note_off,68,0,0,,5,,,77,127
24592,note_on,80,0,0,,5,,,77,127
24660,note_off,68,0,0,,5,,,65,127
24740,note_on,80,0,0,,5,,,65,127
24808,note_off,68,0,0,,5,,,77,127
24888,note_on,80,0,0,,5,,,77,127
24956,note_off,68,0,0,,5,,,65,127
25031,note_off,75,0,0,,11,,,58,127
25031,note_off,0,0,0,,5,,,53,127
25031,note_off,0,0,0,,2,,,50,127
25036,note_on,5,0,0,,5,,,65,127
25036,note_on,0,0,0,,1,,,49,127
25036,note_on,0,0,0,,11,,,58,127
25036,note_on,0,0,0,,5,,,53,127
25104,note_off,68,0,0,,5,,,77,127
25184,note_on,80,0,0,,5,,,77,127
25252,note_off,68,0,0,,5,,,65,127
25332,note_on,80,0,0,,5,,,65,127
25400,note_off,68,0,0,,5,,,77,127
25480,note_on,80,0,0,,5,,,77,127
25548,note_off,68,0,0,,5,,,65,127
25628,note_on,80,0,0,,5,,,65,127
25696,note_off,68,0,0,,5,,,77,127
25776,note_on,80,0,0,,5,,,77,127
25844,note_off,68,0,0,,5,,,65,127
25919,note_off,75,0,0,,5,,,53,127
25919,note_off,0,0,0,,11,,,58,127
25919,note_off,0,0,0,,1,,,49,127
25924,note_on,5,0,0,,6,,,66,127
25924,note_on,0,0,0,,3,,,51,127
25924,note_on,0,0,0,,12,,,47,127
25924,note_on,0,0,0,,11,,,58,127
25992,note_off,68,0,0,,5,,,77,127
26072,note_on,80,0,0,,6,,,78,127
26140,note_off,68,0,0,,6,,,66,127
26220,note_on,80,0,0,,6,,,66,127
26288,note_off,68,0,0,,6,,,78,127
26368,note_on,80,0,0,,6,,,78,127
26436,note_off,68,0,0,,6,,,66,127
26516,note_on,80,0,0,,6,,,66,127
26584,note_off,68,0,0,,6,,,78,127
26664,note_on,80,0,0,,6,,,78,127
26732,note_off,68,0,0,,6,,,66,127
26807,note_off,75,0,0,,11,,,58,127
26807,note_off,0,0,0,,12,,,47,127
26807,note_off,0,0,0,,3,,,51,127
26812,note_on,5,0,0,,6,,,66,127
26812,note_on,0,0,0,,12,,,47,127
26812,note_on,0,0,0,,8,,,56,127
26812,note_on,0,0,0,,3,,,51,127
26880,note_off,68,0,0,,6,,,78,127
26960,note_on,80,0,0,,3,,,75,127
27028,note_off,68,0,0,,6,,,66,127
27108,note_on,80,0,0,,6,,,66,127
27176,note_off,68,0,0,,3,,,75,127
27256,note_on,80,0,0,,3,,,75,127
27324,note_off,68,0,0,,6,,,66,127
27404,note_on,80,0,0,,8,,,68,127
27472,note_off,68,0,0,,3,,,75,127
27552,note_on,80,0,0,,3,,,75,127
27620,note_off,68,0,0,,8,,,68,127
27695,note_off,75,0,0,,3,,,51,127
27695,note_off,0,0,0,,8,,,56,127
27695,note_off,0,0,0,,12,,,47,127
27700,note_on,5,0,0,,11,,,70,127
27700,note_on,0,0,0,,11,,,46,127
27700,note_on,0,0,0,,3,,,51,127
27700,note_on,0,0,0,,8,,,56,127
27768,note_off,68,0,0,,3,,,75,127
27848,note_on,80,0,0,,3,,,75,127
27916,note_off,68,0,0,,11,,,70,127
27996,note_on,80,0,0,,6,,,66,127
28064,note_off,68,0,0,,3,,,75,127
28144,note_on,80,0,0,,3,,,75,127
28212,note_off,68,0,0,,6,,,66,127
28292,note_on,80,0,0,,11,,,70,127
28360,note_off,68,0,0,,3,,,75,127
28440,note_on,80,0,0,,3,,,75,127
28508,note_off,68,0,0,,11,,,70,127
28583,note_off,75,0,0,,8,,,56,127
28583,note_off,0,0,0,,3,,,51,127
28583,note_off,0,0,0,,11,,,46,127
28588,note_on,5,0,0,,6,,,66,127
28588,note_on,0,0,0,,3,,,51,127
28588,note_on,0,0,0,,11,,,46,127
28588,note_on,0,0,0,,8,,,56,127
28656,note_off,68,0,0,,3,,,75,127
28736,note_on,80,0,0,,3,,,75,127
28804,note_off,68,0,0,,6,,,66,127
28884,note_on,80,0,0,,11,,,70,127
28952,note_off,68,0,0,,3,,,75,127
29032,note_on,80,0,0,,3,,,75,127
29100,note_off,68,0,0,,11,,,70,127
29180,note_on,80,0,0,,6,,,66,127
29248,note_off,68,0,0,,3,,,75,127
29328,note_on,80,0,0,,3,,,75,127
29396,note_off,68,0,0,,6,,,66,127
29471,note_off,75,0,0,,8,,,56,127
29471,note_off,0,0,0,,11,,,46,127
29471,note_off,0,0,0,,3,,,51,127
29476,note_on,5,0,0,,5,,,65,127
29476,note_on,0,0,0,,10,,,45,127
29476,note_on,0,0,0,,5,,,53,127
29476,note_on,0,0,0,,10,,,57,127
29544,note_off,68,0,0,,3,,,75,127
29624,note_on,80,0,0,,3,,,75,127
29692,note_off,68,0,0,,5,,,65,127
29772,note_on,80,0,0,,0,,,72,127
29840,note_off,68,0,0,,3,,,75,127
29920,note_on,80,0,0,,3,,,75,127
29988,note_off,68,0,0,,0,,,72,127
30068,note_on,80,0,0,,5,,,65,127
30136,note_off,68,0,0,,3,,,75,127
30216,note_on,80,0,0,,3,,,75,127
30284,note_off,68,0,0,,5,,,65,127
30359,note_off,75,0,0,,10,,,57,127
30359,note_off,0,0,0,,5,,,53,127
30359,note_off,0,0,0,,10,,,45,127
30364,note_on,5,0,0,,0,,,72,127
30364,note_on,0,0,0,,10,,,45,127
30364,note_on,0,0,0,,5,,,53,127
30364,note_on,0,0,0,,10,,,57,127
30432,note_off,68,0,0,,3,,,75,127
30512,note_on,80,0,0,,3,,,75,127
30580,note_off,68,0,0,,0,,,72,127
30660,note_on,80,0,0,,5,,,65,127
30728,note_off,68,0,0,,3,,,75,127
30808,note_on,80,0,0,,3,,,75,127
30876,note_off,68,0,0,,5,,,65,127
30956,note_on,80,0,0,,0,,,72,127
31024,note_off,68,0,0,,3,,,75,127
31104,note_on,80,0,0,,3,,,75,127
31172,note_off,68,0,0,,0,,,72,127
31247,note_off,75,0,0,,10,,,57,127
31247,note_off,0,0,0,,5,,,53,127
31247,note_off,0,0,0,,10,,,45,127
31252,note_on,5,0,0,,5,,,65,127
31252,note_on,0,0,0,,12,,,47,127
31252,note_on,0,0,0,,5,,,53,127
31252,note_on,0,0,0,,7,,,55,127
31320,note_off,68,0,0,,3,,,75,127
31400,note_on,80,0,0,,2,,,74,127
31468,note_off,68,0,0,,5,,,65,127
31548,note_on,80,0,0,,7,,,67,127
31616,note_off,68,0,0,,2,,,74,127
31696,note_on,80,0,0,,2,,,74,127
31764,note_off,68,0,0,,7,,,67,127
31844,note_on,80,0,0,,5,,,65,127
31912,note_off,68,0,0,,2,,,74,127
31992,note_on,80,0,0,,2,,,74,127
32060,note_off,68,0,0,,5,,,65,127
32135,note_off,75,0,0,,7,,,55,127
32135,note_off,0,0,0,,5,,,53,127
32135,note_off,0,0,0,,12,,,47,127
32140,note_on,5,0,0,,7,,,67,127
32140,note_on,0,0,0,,12,,,47,127
32140,note_on,0,0,0,,5,,,53,127
32140,note_on,0,0,0,,7,,,55,127
32208,note_off,68,0,0,,2,,,74,127
32288,note_on,80,0,0,,2,,,74,127
32356,note_off,68,0,0,,7,,,67,127
32436,note_on,80,0,0,,5,,,65,127
32504,note_off,68,0,0,,2,,,74,127
32584,note_on,80,0,0,,2,,,74,127
32652,note_off,68,0,0,,5,,,65,127
32732,note_on,80,0,0,,7,,,67,127
32800,note_off,68,0,0,,2,,,74,127
32880,note_on,80,0,0,,2,,,74,127
32948,note_off,68,0,0,,7,,,67,127
33023,note_off,75,0,0,,7,,,55,127
33023,note_off,0,0,0,,5,,,53,127
33023,note_off,0,0,0,,12,,,47,127
33028,note_on,5,0,0,,4,,,64,127
33028,note_on,0,0,0,,0,,,48,127
33028,note_on,0,0,0,,7,,,55,127
33028,note_on,0,0,0,,0,,,60,127
33096,note_off,68,0,0,,2,,,74,127
33176,note_on,80,0,0,,2,,,74,127
33244,note_off,68,0,0,,4,,,64,127
33324,note_on,80,0,0,,7,,,67,127
33392,note_off,68,0,0,,2,,,74,127
33472,note_on,80,0,0,,2,,,74,127
33540,note_off,68,0,0,,7,,,67,127
33620,note_on,80,0,0,,4,,,64,127
33688,note_off,68,0,0,,2,,,74,127
33768,note_on,80,0,0,,2,,,74,127
33836,note_off,68,0,0,,4,,,64,127
33911,note_off,75,0,0,,0,,,60,127
33911,note_off,0,0,0,,7,,,55,127
33911,note_off,0,0,0,,0,,,48,127
33916,note_on,5,0,0,,4,,,64,127
33916,note_on,0,0,0,,0,,,48,127
33916,note_on,0,0,0,,7,,,55,127
33916,note_on,0,0,0,,0,,,60,127
33984,note_off,68,0,0,,2,,,74,127
34064,note_on,80,0,0,,0,,,72,127
34132,note_off,68,0,0,,4,,,64,127
34212,note_on,80,0,0,,7,,,67,127
34280,note_off,68,0,0,,0,,,72,127
34360,note_on,80,0,0,,0,,,72,127
34428,note_off,68,0,0,,7,,,67,127
34508,note_on,80,0,0,,4,,,64,127
34576,note_off,68,0,0,,0,,,72,127
34656,note_on,80,0,0,,11,,,70,127
34724,note_off,68,0,0,,4,,,64,127
34799,note_off,75,0,0,,0,,,60,127
34799,note_off,0,0,0,,7,,,55,127
34799,note_off,0,0,0,,0,,,48,127
34804,note_on,5,0,0,,4,,,64,127
34804,note_on,0,0,0,,1,,,49,127
34804,note_on,0,0,0,,7,,,55,127
34804,note_on,0,0,0,,10,,,57,127
34872,note_off,68,0,0,,11,,,70,127
34952,note_on,80,0,0,,4,,,76,127
35020,note_off,68,0,0,,4,,,64,127
35100,note_on,80,0,0,,10,,,69,127
35168,note_off,68,0,0,,4,,,76,127
35248,note_on,80,0,0,,4,,,76,127
35316,note_off,68,0,0,,10,,,69,127
35396,note_on,80,0,0,,7,,,67,127
35464,note_off,68,0,0,,4,,,76,127
35544,note_on,80,0,0,,4,,,76,127
35612,note_off,68,0,0,,7,,,67,127
35687,note_off,75,0,0,,10,,,57,127
35687,note_off,0,0,0,,7,,,55,127
35687,note_off,0,0,0,,1,,,49,127
35692,note_on,5,0,0,,4,,,64,127
35692,note_on,0,0,0,,1,,,49,127
35692,note_on,0,0,0,,7,,,55,127
35692,note_on,0,0,0,,10,,,57,127
35760,note_off,68,0,0,,4,,,76,127
35840,note_on,80,0,0,,4,,,76,127
35908,note_off,68,0,0,,4,,,64,127
35988,note_on,80,0,0,,10,,,69,127
36056,note_off,68,0,0,,4,,,76,127
36136,note_on,80,0,0,,4,,,76,127
36204,note_off,68,0,0,,10,,,69,127
36284,note_on,80,0,0,,7,,,67,127
36352,note_off,68,0,0,,4,,,76,127
36432,note_on,80,0,0,,4,,,76,127
36500,note_off,68,0,0,,7,,,67,127
36575,note_off,75,0,0,,10,,,57,127
36575,note_off,0,0,0,,7,,,55,127
36575,note_off,0,0,0,,1,,,49,127
36580,note_on,5,0,0,,6,,,66,127
36580,note_on,0,0,0,,2,,,50,127
36648,note_off,68,0,0,,4,,,76,127
36728,note_on,80,0,0,,4,,,76,127
36796,note_off,68,0,0,,6,,,66,127
36871,note_off,75,0,0,,4,,,76,127
36876,note_on,5,0,0,,2,,,74,127
37019,note_off,143,0,0,,2,,,74,127
37024,note_on,5,0,0,,1,,,73,127
37167,note_off,143,0,0,,1,,,73,127
37172,note_on,5,0,0,,2,,,74,127
37315,note_off,143,0,0,,2,,,74,127
37320,note_on,5,0,0,,4,,,76,127
37463,note_off,143,0,0,,4,,,76,127
37463,note_off,0,0,0,,2,,,50,127
37468,note_on,5,0,0,,6,,,78,127
37468,note_on,0,0,0,,2,,,62,127
37611,note_off,143,0,0,,6,,,78,127
37616,note_on,5,0,0,,4,,,76,127
37759,note_off,143,0,0,,4,,,76,127
37764,note_on,5,0,0,,2,,,74,127
37907,note_off,143,0,0,,2,,,74,127
37912,note_on,5,0,0,,1,,,73,127
38055,note_off,143,0,0,,1,,,73,127
38060,note_on,5,0,0,,12,,,71,127
38203,note_off,143,0,0,,12,,,71,127
38208,note_on,5,0,0,,10,,,69,127
38351,note_off,143,0,0,,10,,,69,127
38351,note_off,0,0,0,,2,,,62,127
38356,note_on,5,0,0,,12,,,71,127
38356,note_on,0,0,0,,7,,,55,127
38499,note_off,143,0,0,,12,,,71,127
38504,note_on,5,0,0,,1,,,73,127
38647,note_off,143,0,0,,1,,,73,127
38652,note_on,5,0,0,,2,,,74,127
38795,note_off,143,0,0,,2,,,74,127
38800,note_on,5,0,0,,1,,,73,127
38943,note_off,143,0,0,,1,,,73,127
38948,note_on,5,0,0,,12,,,71,127
39091,note_off,143,0,0,,12,,,71,127
39096,note_on,5,0,0,,10,,,69,127
39239,note_off,143,0,0,,10,,,69,127
39239,note_off,0,0,0,,7,,,55,127
39244,note_on,5,0,0,,7,,,67,127
39244,note_on,0,0,0,,7,,,43,127
39387,note_off,143,0,0,,7,,,67,127
39392,note_on,5,0,0,,6,,,66,127
39535,note_off,143,0,0,,6,,,66,127
39540,note_on,5,0,0,,4,,,64,127
39683,note_off,143,0,0,,4,,,64,127
39688,note_on,5,0,0,,2,,,62,127
39831,note_off,143,0,0,,2,,,62,127
39836,note_on,5,0,0,,1,,,61,127
39979,note_off,143,0,0,,1,,,61,127
39984,note_on,5,0,0,,2,,,62,127
40127,note_off,143,0,0,,2,,,62,127
40127,note_off,0,0,0,,7,,,43,127
40132,note_on,5,0,0,,1,,,61,127
40132,note_on,0,0,0,,10,,,45,127
40275,note_off,143,0,0,,1,,,61,127
40280,note_on,5,0,0,,12,,,59,127
40423,note_off,143,0,0,,12,,,59,127
40428,note_on,5,0,0,,10,,,57,127
40571,note_off,143,0,0,,10,,,45,127
40576,note_on,5,0,0,,7,,,55,127
40719,note_off,143,0,0,,7,,,55,127
40724,note_on,5,0,0,,6,,,54,127
40867,note_off,143,0,0,,6,,,54,127
40872,note_on,5,0,0,,4,,,52,127
41014,note_off,142,0,0,,10,,,57,127
41016,note_off,2,0,0,,4,,,52,127
41021,note_on,5,0,0,,2,,,50,127
41169,note_on,148,0,0,,2,,,62,127
41312,note_off,143,0,0,,2,,,62,127
41317,note_on,5,0,0,,10,,,57,127
41460,note_off,143,0,0,,10,,,57,127
41465,note_on,5,0,0,,6,,,66,127
41608,note_off,143,0,0,,6,,,66,127
41613,note_on,5,0,0,,2,,,62,127
41756,note_off,143,0,0,,2,,,62,127
41761,note_on,5,0,0,,10,,,69,127
41904,note_off,143,0,0,,10,,,69,127
41904,note_off,0,0,0,,2,,,50,127
41909,note_on,5,0,0,,6,,,66,127
41909,note_on,0,0,0,,6,,,54,127
42052,note_off,143,0,0,,6,,,66,127
42057,note_on,5,0,0,,2,,,74,127
42200,note_off,143,0,0,,2,,,74,127
42205,note_on,5,0,0,,10,,,69,127
42348,note_off,143,0,0,,10,,,69,127
42353,note_on,5,0,0,,6,,,78,127
42496,note_off,143,0,0,,6,,,78,127
42501,note_on,5,0,0,,2,,,74,127
42644,note_off,143,0,0,,2,,,74,127
42649,note_on,5,0,0,,10,,,69,127
42792,note_off,143,0,0,,10,,,69,127
42792,note_off,0,0,0,,6,,,54,127
42797,note_on,5,0,0,,12,,,71,127
42797,note_on,0,0,0,,7,,,55,127
43088,note_off,291,0,0,,7,,,55,127
43088,note_off,0,0,0,,12,,,71,127
43093,note_on,5,0,0,,2,,,74,127
43093,note_on,0,0,0,,10,,,57,127
43162,note_off,69,0,0,,2,,,74,127
43167,note_on,5,0,0,,1,,,73,127
43236,note_off,69,0,0,,1,,,73,127
43241,note_on,5,0,0,,2,,,74,127
43310,note_off,69,0,0,,2,,,74,127
43315,note_on,5,0,0,,1,,,73,127
43384,note_off,69,0,0,,1,,,73,127
43389,note_on,5,0,0,,2,,,74,127
43458,note_off,69,0,0,,2,,,74,127
43463,note_on,5,0,0,,1,,,73,127
43532,note_off,69,0,0,,1,,,73,127
43537,note_on,5,0,0,,12,,,71,127
43606,note_off,69,0,0,,12,,,71,127
43611,note_on,5,0,0,,1,,,73,127
43679,note_off,68,0,0,,10,,,57,127
43681,note_off,2,0,0,,1,,,73,127
43686,note_on,5,0,0,,2,,,74,127
43834,note_on,148,0,0,,2,,,50,127
43908,note_off,74,0,0,,2,,,74,127
43977,note_off,69,0,0,,2,,,50,127
43982,note_on,5,0,0,,10,,,45,127
44125,note_off,143,0,0,,10,,,45,127
44130,note_on,5,0,0,,6,,,54,127
44273,note_off,143,0,0,,6,,,54,127
44278,note_on,5,0,0,,2,,,50,127
44421,note_off,143,0,0,,2,,,50,127
44426,note_on,5,0,0,,10,,,57,127
44569,note_off,143,0,0,,10,,,57,127
44574,note_on,5,0,0,,6,,,54,127
44717,note_off,143,0,0,,6,,,54,127
44722,note_on,5,0,0,,2,,,62,127
44865,note_off,143,0,0,,2,,,62,127
44870,note_on,5,0,0,,10,,,57,127
45013,note_off,143,0,0,,10,,,57,127
45018,note_on,5,0,0,,10,,,69,127
45161,note_off,143,0,0,,10,,,69,127
45166,note_on,5,0,0,,6,,,66,127
45309,note_off,143,0,0,,6,,,66,127
45314,note_on,5,0,0,,2,,,62,127
45457,note_off,143,0,0,,2,,,62,127
45462,note_on,5,0,0,,12,,,71,127
45462,note_on,0,0,0,,7,,,55,127
45753,note_off,291,0,0,,7,,,55,127
45753,note_off,0,0,0,,12,,,71,127
45758,note_on,5,0,0,,2,,,74,127
45758,note_on,0,0,0,,10,,,57,127
45827,note_off,69,0,0,,2,,,74,127
45832,note_on,5,0,0,,1,,,73,127
45901,note_off,69,0,0,,1,,,73,127
45906,note_on,5,0,0,,2,,,74,127
45975,note_off,69,0,0,,2,,,74,127
45980,note_on,5,0,0,,1,,,73,127
46049,note_off,69,0,0,,1,,,73,127
46054,note_on,5,0,0,,2,,,74,127
46054,note_on,0,0,0,,10,,,45,127
46123,note_off,69,0,0,,2,,,74,127
46128,note_on,5,0,0,,1,,,73,127
46197,note_off,69,0,0,,1,,,73,127
46202,note_on,5,0,0,,12,,,71,127
46271,note_off,69,0,0,,12,,,71,127
46276,note_on,5,0,0,,1,,,73,127
46344,note_off,68,0,0,,10,,,57,127
46346,note_off,2,0,0,,1,,,73,127
46346,note_off,0,0,0,,10,,,45,127
46351,note_on,5,0,0,,2,,,74,127
46351,note_on,0,0,0,,2,,,50,127
46494,note_off,143,0,0,,2,,,74,127
46499,note_on,5,0,0,,6,,,66,127
46642,note_off,143,0,0,,6,,,66,127
46647,note_on,5,0,0,,7,,,67,127
46790,note_off,143,0,0,,7,,,67,127
46795,note_on,5,0,0,,8,,,68,127
46937,note_off,142,0,0,,2,,,50,127
46939,note_off,2,0,0,,8,,,68,127
46944,note_on,5,0,0,,10,,,69,127
47087,note_off,143,0,0,,10,,,69,127
47092,note_on,5,0,0,,11,,,70,127
47235,note_off,143,0,0,,11,,,70,127
47240,note_on,5,0,0,,12,,,71,127
47240,note_on,0,0,0,,7,,,55,127
47383,note_off,143,0,0,,12,,,71,127
47388,note_on,5,0,0,,1,,,73,127
47531,note_off,143,0,0,,1,,,73,127
47536,note_on,5,0,0,,2,,,74,127
47679,note_off,143,0,0,,2,,,74,127
47684,note_on,5,0,0,,4,,,76,127
47827,note_off,143,0,0,,4,,,76,127
47832,note_on,5,0,0,,6,,,78,127
47975,note_off,143,0,0,,6,,,78,127
47980,note_on,5,0,0,,7,,,79,127
48123,note_off,143,0,0,,7,,,79,127
48123,note_off,0,0,0,,7,,,55,127
48128,note_on,5,0,0,,8,,,80,127
48128,note_on,0,0,0,,6,,,54,127
48271,note_off,143,0,0,,8,,,80,127
48276,note_on,5,0,0,,10,,,81,127
48419,note_off,143,0,0,,10,,,81,127
48424,note_on,5,0,0,,7,,,79,127
48567,note_off,143,0,0,,7,,,79,127
48572,note_on,5,0,0,,6,,,78,127
48715,note_off,143,0,0,,6,,,78,127
48720,note_on,5,0,0,,4,,,76,127
48863,note_off,143,0,0,,4,,,76,127
48868,note_on,5,0,0,,2,,,74,127
49011,note_off,143,0,0,,2,,,74,127
49011,note_off,0,0,0,,6,,,54,127
49016,note_on,5,0,0,,4,,,76,127
49016,note_on,0,0,0,,7,,,55,127
49159,note_off,143,0,0,,4,,,76,127
49164,note_on,5,0,0,,6,,,78,127
49233,note_off,69,0,0,,6,,,78,127
49238,note_on,5,0,0,,7,,,79,127
49307,note_off,69,0,0,,7,,,79,127
49307,note_off,0,0,0,,7,,,55,127
49312,note_on,5,0,0,,6,,,78,127
49312,note_on,0,0,0,,10,,,57,127
49455,note_off,143,0,0,,6,,,78,127
49460,note_on,5,0,0,,4,,,76,127
49603,note_off,143,0,0,,4,,,76,127
49608,note_on,5,0,0,,2,,,74,127
49608,note_on,0,0,0,,10,,,45,127
49751,note_off,143,0,0,,2,,,74,127
49756,note_on,5,0,0,,1,,,73,127
49898,note_off,142,0,0,,10,,,57,127
49900,note_off,2,0,0,,1,,,73,127
49900,note_off,0,0,0,,10,,,45,127
49905,note_on,5,0,0,,2,,,74,127
49905,note_on,0,0,0,,2,,,50,127
50003,note_off,98,0,0,,2,,,74,127
50052,note_on,49,0,0,,6,,,66,127
50195,note_off,143,0,0,,6,,,66,127
50200,note_on,5,0,0,,7,,,67,127
50343,note_off,143,0,0,,7,,,67,127
50348,note_on,5,0,0,,8,,,68,127
50491,note_off,143,0,0,,8,,,68,127
50496,note_on,5,0,0,,10,,,69,127
50639,note_off,143,0,0,,10,,,69,127
50644,note_on,5,0,0,,11,,,70,127
50706,note_off,62,0,0,,2,,,50,127
50788,note_off,82,0,0,,11,,,70,127
50793,note_on,5,0,0,,12,,,71,127
50793,note_on,0,0,0,,7,,,55,127
50936,note_off,143,0,0,,12,,,71,127
50941,note_on,5,0,0,,1,,,73,127
51084,note_off,143,0,0,,1,,,73,127
51089,note_on,5,0,0,,2,,,74,127
51232,note_off,143,0,0,,2,,,74,127
51237,note_on,5,0,0,,4,,,76,127
51380,note_off,143,0,0,,4,,,76,127
51385,note_on,5,0,0,,6,,,78,127
51528,note_off,143,0,0,,6,,,78,127
51533,note_on,5,0,0,,7,,,79,127
51676,note_off,143,0,0,,7,,,79,127
51676,note_off,0,0,0,,7,,,55,127
51681,note_on,5,0,0,,8,,,80,127
51681,note_on,0,0,0,,6,,,54,127
51824,note_off,143,0,0,,8,,,80,127
51829,note_on,5,0,0,,10,,,81,127
51972,note_off,143,0,0,,10,,,81,127
51977,note_on,5,0,0,,7,,,79,127
52120,note_off,143,0,0,,7,,,79,127
52125,note_on,5,0,0,,6,,,78,127
52268,note_off,143,0,0,,6,,,78,127
52273,note_on,5,0,0,,4,,,76,127
52416,note_off,143,0,0,,4,,,76,127
52421,note_on,5,0,0,,2,,,74,127
52564,note_off,143,0,0,,2,,,74,127
52564,note_off,0,0,0,,6,,,54,127
52569,note_on,5,0,0,,4,,,76,127
52569,note_on,0,0,0,,7,,,55,127
52712,note_off,143,0,0,,4,,,76,127
52717,note_on,5,0,0,,6,,,78,127
52786,note_off,69,0,0,,6,,,78,127
52791,note_on,5,0,0,,7,,,79,127
52860,note_off,69,0,0,,7,,,79,127
52860,note_off,0,0,0,,7,,,55,127
52865,note_on,5,0,0,,6,,,78,127
52865,note_on,0,0,0,,10,,,57,127
53008,note_off,143,0,0,,6,,,78,127
53013,note_on,5,0,0,,4,,,76,127
53156,note_off,143,0,0,,4,,,76,127
53161,note_on,5,0,0,,2,,,74,127
53161,note_on,0,0,0,,10,,,45,127
53304,note_off,143,0,0,,2,,,74,127
53309,note_on,5,0,0,,1,,,73,127
53407,note_off,98,0,0,,10,,,45,127
53435,note_off,28,0,0,,10,,,57,127
53452,note_off,17,0,0,,1,,,73,127
53481,note_on,29,0,0,,2,,,62,127
53481,note_on,0,0,0,,2,,,86,127
53629,note_on,148,0,0,,2,,,74,127
53697,note_off,68,0,0,,2,,,86,127
53777,note_on,80,0,0,,2,,,86,127
53845,note_off,68,0,0,,2,,,74,127
53925,note_on,80,0,0,,2,,,74,127
53993,note_off,68,0,0,,2,,,86,127
54073,note_on,80,0,0,,2,,,86,127
54141,note_off,68,0,0,,2,,,74,127
54221,note_on,80,0,0,,2,,,74,127
54289,note_off,68,0,0,,2,,,86,127
54364,note_off,75,0,0,,2,,,62,127
54369,note_on,5,0,0,,2,,,62,127
54369,note_on,0,0,0,,2,,,86,127
54437,note_off,68,0,0,,2,,,74,127
54439,note_off,2,0,0,,2,,,62,127
54444,note_on,5,0,0,,0,,,60,127
54513,note_off,69,0,0,,0,,,60,127
54518,note_on,5,0,0,,2,,,62,127
54518,note_on,0,0,0,,2,,,74,127
54586,note_off,68,0,0,,2,,,86,127
54588,note_off,2,0,0,,2,,,62,127
54593,note_on,5,0,0,,0,,,60,127
54662,note_off,69,0,0,,0,,,60,127
54667,note_on,5,0,0,,2,,,62,127
54667,note_on,0,0,0,,2,,,86,127
54735,note_off,68,0,0,,2,,,74,127
54737,note_off,2,0,0,,2,,,62,127
54742,note_on,5,0,0,,0,,,60,127
54811,note_off,69,0,0,,0,,,60,127
54816,note_on,5,0,0,,2,,,62,127
54816,note_on,0,0,0,,2,,,74,127
54884,note_off,68,0,0,,2,,,86,127
54886,note_off,2,0,0,,2,,,62,127
54891,note_on,5,0,0,,0,,,60,127
54960,note_off,69,0,0,,0,,,60,127
54965,note_on,5,0,0,,2,,,62,127
54965,note_on,0,0,0,,2,,,86,127
55033,note_off,68,0,0,,2,,,74,127
55035,note_off,2,0,0,,2,,,62,127
55040,note_on,5,0,0,,0,,,60,127
55109,note_off,69,0,0,,0,,,60,127
55114,note_on,5,0,0,,2,,,62,127
55114,note_on,0,0,0,,2,,,74,127
55182,note_off,68,0,0,,2,,,86,127
55184,note_off,2,0,0,,2,,,62,127
55189,note_on,5,0,0,,0,,,60,127
55258,note_off,69,0,0,,0,,,60,127
55263,note_on,5,0,0,,11,,,58,127
55263,note_on,0,0,0,,2,,,86,127
55331,note_off,68,0,0,,2,,,74,127
55411,note_on,80,0,0,,0,,,60,127
55411,note_on,0,0,0,,2,,,74,127
55479,note_off,68,0,0,,2,,,86,127
55554,note_off,75,0,0,,0,,,60,127
55559,note_on,5,0,0,,2,,,62,127
55559,note_on,0,0,0,,2,,,86,127
55627,note_off,68,0,0,,2,,,74,127
55702,note_off,75,0,0,,2,,,62,127
55707,note_on,5,0,0,,3,,,63,127
55707,note_on,0,0,0,,2,,,74,127
55775,note_off,68,0,0,,2,,,86,127
55850,note_off,75,0,0,,3,,,63,127
55855,note_on,5,0,0,,5,,,65,127
55855,note_on,0,0,0,,2,,,86,127
55923,note_off,68,0,0,,2,,,74,127
55998,note_off,75,0,0,,5,,,65,127
56003,note_on,5,0,0,,7,,,67,127
56003,note_on,0,0,0,,2,,,74,127
56071,note_off,68,0,0,,2,,,86,127
56146,note_off,75,0,0,,7,,,67,127
56146,note_off,0,0,0,,11,,,58,127
56151,note_on,5,0,0,,8,,,68,127
56151,note_on,0,0,0,,11,,,58,127
56151,note_on,0,0,0,,2,,,86,127
56219,note_off,68,0,0,,2,,,74,127
56299,note_on,80,0,0,,2,,,74,127
56367,note_off,68,0,0,,2,,,86,127
56447,note_on,80,0,0,,2,,,86,127
56515,note_off,68,0,0,,2,,,74,127
56595,note_on,80,0,0,,2,,,74,127
56663,note_off,68,0,0,,2,,,86,127
56743,note_on,80,0,0,,2,,,86,127
56811,note_off,68,0,0,,2,,,74,127
56891,note_on,80,0,0,,2,,,74,127
56959,note_off,68,0,0,,2,,,86,127
57034,note_off,75,0,0,,11,,,58,127
57034,note_off,0,0,0,,8,,,68,127
57039,note_on,5,0,0,,5,,,65,127
57039,note_on,0,0,0,,8,,,68,127
57039,note_on,0,0,0,,12,,,59,127
57039,note_on,0,0,0,,2,,,86,127
57107,note_off,68,0,0,,2,,,74,127
57187,note_on,80,0,0,,2,,,74,127
57255,note_off,68,0,0,,2,,,86,127
57335,note_on,80,0,0,,2,,,86,127
57403,note_off,68,0,0,,2,,,74,127
57483,note_on,80,0,0,,2,,,74,127
57551,note_off,68,0,0,,2,,,86,127
57631,note_on,80,0,0,,2,,,86,127
57699,note_off,68,0,0,,2,,,74,127
57779,note_on,80,0,0,,2,,,74,127
57847,note_off,68,0,0,,2,,,86,127
57922,note_off,75,0,0,,12,,,59,127
57922,note_off,0,0,0,,8,,,68,127
57922,note_off,0,0,0,,5,,,65,127
57927,note_on,5,0,0,,8,,,68,127
57927,note_on,0,0,0,,12,,,59,127
57927,note_on,0,0,0,,5,,,65,127
57927,note_on,0,0,0,,2,,,86,127
57995,note_off,68,0,0,,2,,,74,127
58075,note_on,80,0,0,,2,,,74,127
58143,note_off,68,0,0,,2,,,86,127
58223,note_on,80,0,0,,2,,,86,127
58291,note_off,68,0,0,,2,,,74,127
58371,note_on,80,0,0,,2,,,74,127
58439,note_off,68,0,0,,2,,,86,127
58519,note_on,80,0,0,,2,,,86,127
58587,note_off,68,0,0,,2,,,74,127
58667,note_on,80,0,0,,2,,,74,127
58735,note_off,68,0,0,,2,,,86,127
58810,note_off,75,0,0,,5,,,65,127
58810,note_off,0,0,0,,12,,,59,127
58810,note_off,0,0,0,,8,,,68,127
58815,note_on,5,0,0,,8,,,68,127
58815,note_on,0,0,0,,0,,,60,127
58815,note_on,0,0,0,,5,,,65,127
58815,note_on,0,0,0,,2,,,86,127
58883,note_off,68,0,0,,2,,,74,127
58963,note_on,80,0,0,,2,,,74,127
59031,note_off,68,0,0,,2,,,86,127
59111,note_on,80,0,0,,2,,,86,127
59179,note_off,68,0,0,,2,,,74,127
59259,note_on,80,0,0,,2,,,74,127
59327,note_off,68,0,0,,2,,,86,127
59407,note_on,80,0,0,,2,,,86,127
59475,note_off,68,0,0,,2,,,74,127
59555,note_on,80,0,0,,2,,,74,127
59623,note_off,68,0,0,,2,,,86,127
59698,note_off,75,0,0,,5,,,65,127
59698,note_off,0,0,0,,0,,,60,127
59698,note_off,0,0,0,,8,,,68,127
59703,note_on,5,0,0,,5,,,65,127
59703,note_on,0,0,0,,8,,,68,127
59703,note_on,0,0,0,,0,,,60,127
59703,note_on,0,0,0,,2,,,86,127
59771,note_off,68,0,0,,2,,,74,127
59851,note_on,80,0,0,,2,,,74,127
59919,note_off,68,0,0,,2,,,86,127
59999,note_on,80,0,0,,2,,,86,127
60067,note_off,68,0,0,,2,,,74,127
60147,note_on,80,0,0,,2,,,74,127
60215,note_off,68,0,0,,2,,,86,127
60295,note_on,80,0,0,,2,,,86,127
60363,note_off,68,0,0,,2,,,74,127
60443,note_on,80,0,0,,2,,,74,127
60511,note_off,68,0,0,,2,,,86,127
60586,note_off,75,0,0,,0,,,60,127
60586,note_off,0,0,0,,8,,,68,127
60586,note_off,0,0,0,,5,,,65,127
60591,note_on,5,0,0,,12,,,71,127
60591,note_on,0,0,0,,5,,,65,127
60591,note_on,0,0,0,,8,,,68,127
60591,note_on,0,0,0,,2,,,62,127
60591,note_on,0,0,0,,2,,,86,127
60659,note_off,68,0,0,,2,,,74,127
60739,note_on,80,0,0,,2,,,74,127
60807,note_off,68,0,0,,2,,,86,127
60887,note_on,80,0,0,,2,,,86,127
60955,note_off,68,0,0,,2,,,74,127
61035,note_on,80,0,0,,2,,,74,127
61103,note_off,68,0,0,,2,,,86,127
61183,note_on,80,0,0,,2,,,86,127
61251,note_off,68,0,0,,2,,,74,127
61331,note_on,80,0,0,,2,,,74,127
61399,note_off,68,0,0,,2,,,86,127
61474,note_off,75,0,0,,2,,,62,127
61474,note_off,0,0,0,,8,,,68,127
61474,note_off,0,0,0,,5,,,65,127
61474,note_off,0,0,0,,12,,,71,127
61479,note_on,5,0,0,,12,,,71,127
61479,note_on,0,0,0,,5,,,65,127
61479,note_on,0,0,0,,2,,,62,127
61479,note_on,0,0,0,,8,,,68,127
61479,note_on,0,0,0,,2,,,86,127
61547,note_off,68,0,0,,2,,,74,127
61627,note_on,80,0,0,,2,,,74,127
61695,note_off,68,0,0,,2,,,86,127
61775,note_on,80,0,0,,2,,,86,127
61843,note_off,68,0,0,,2,,,74,127
61923,note_on,80,0,0,,2,,,74,127
61991,note_off,68,0,0,,2,,,86,127
62071,note_on,80,0,0,,2,,,86,127
62139,note_off,68,0,0,,2,,,74,127
62219,note_on,80,0,0,,2,,,74,127
62287,note_off,68,0,0,,2,,,86,127
62362,note_off,75,0,0,,8,,,68,127
62362,note_off,0,0,0,,2,,,62,127
62362,note_off,0,0,0,,5,,,65,127
62362,note_off,0,0,0,,12,,,71,127
62367,note_on,5,0,0,,12,,,71,127
62367,note_on,0,0,0,,8,,,68,127
62367,note_on,0,0,0,,4,,,64,127
62367,note_on,0,0,0,,2,,,86,127
62435,note_off,68,0,0,,2,,,74,127
62515,note_on,80,0,0,,4,,,76,127
62583,note_off,68,0,0,,2,,,86,127
62663,note_on,80,0,0,,2,,,86,127
62731,note_off,68,0,0,,4,,,76,127
62811,note_on,80,0,0,,4,,,76,127
62879,note_off,68,0,0,,2,,,86,127
62959,note_on,80,0,0,,2,,,86,127
63027,note_off,68,0,0,,4,,,76,127
63107,note_on,80,0,0,,4,,,76,127
63175,note_off,68,0,0,,2,,,86,127
63250,note_off,75,0,0,,4,,,64,127
63250,note_off,0,0,0,,8,,,68,127
63250,note_off,0,0,0,,12,,,71,127
63255,note_on,5,0,0,,0,,,72,127
63255,note_on,0,0,0,,10,,,69,127
63255,note_on,0,0,0,,4,,,64,127
63255,note_on,0,0,0,,0,,,84,127
63255,note_on,0,0,0,,2,,,86,127
63323,note_off,68,0,0,,4,,,76,127
63328,note_off,5,0,0,,2,,,86,127
63399,note_off,71,0,0,,0,,,84,127
63404,note_on,5,0,0,,12,,,83,127
63547,note_off,143,0,0,,12,,,83,127
63552,note_on,5,0,0,,10,,,81,127
63695,note_off,143,0,0,,10,,,81,127
63700,note_on,5,0,0,,8,,,80,127
63843,note_off,143,0,0,,8,,,80,127
63848,note_on,5,0,0,,10,,,81,127
63991,note_off,143,0,0,,10,,,81,127
63996,note_on,5,0,0,,12,,,83,127
64139,note_off,143,0,0,,12,,,83,127
64139,note_off,0,0,0,,4,,,64,127
64139,note_off,0,0,0,,10,,,69,127
64139,note_off,0,0,0,,0,,,72,127
64144,note_on,5,0,0,,12,,,71,127
64144,note_on,0,0,0,,4,,,64,127
64144,note_on,0,0,0,,8,,,68,127
64144,note_on,0,0,0,,8,,,80,127
64287,note_off,143,0,0,,8,,,80,127
64292,note_on,5,0,0,,5,,,77,127
64435,note_off,143,0,0,,5,,,77,127
64440,note_on,5,0,0,,4,,,76,127
64583,note_off,143,0,0,,4,,,76,127
64588,note_on,5,0,0,,2,,,74,127
64730,note_off,142,0,0,,12,,,71,127
64732,note_off,2,0,0,,2,,,74,127
64737,note_on,5,0,0,,1,,,73,127
64880,note_off,143,0,0,,1,,,73,127
64885,note_on,5,0,0,,12,,,71,127
65028,note_off,143,0,0,,12,,,71,127
65028,note_off,0,0,0,,8,,,68,127
65028,note_off,0,0,0,,4,,,64,127
65033,note_on,5,0,0,,10,,,69,127
65033,note_on,0,0,0,,10,,,57,127
65033,note_on,0,0,0,,1,,,73,127
65176,note_off,143,0,0,,1,,,73,127
65181,note_on,5,0,0,,2,,,74,127
65324,note_off,143,0,0,,2,,,74,127
65329,note_on,5,0,0,,4,,,76,127
65472,note_off,143,0,0,,4,,,76,127
65477,note_on,5,0,0,,7,,,67,127
65620,note_off,143,0,0,,7,,,67,127
65625,note_on,5,0,0,,5,,,65,127
65768,note_off,143,0,0,,5,,,65,127
65773,note_on,5,0,0,,4,,,64,127
65916,note_off,143,0,0,,4,,,64,127
65916,note_off,0,0,0,,10,,,57,127
65916,note_off,0,0,0,,10,,,69,127
65921,note_on,5,0,0,,2,,,50,127
65921,note_on,0,0,0,,5,,,65,127
66064,note_off,143,0,0,,5,,,65,127
66069,note_on,5,0,0,,7,,,67,127
66212,note_off,143,0,0,,7,,,67,127
66217,note_on,5,0,0,,10,,,69,127
66365,note_on,148,0,0,,0,,,60,127
66508,note_off,143,0,0,,0,,,60,127
66510,note_off,2,0,0,,10,,,69,127
66513,note_on,3,0,0,,11,,,58,127
66656,note_off,143,0,0,,11,,,58,127
66661,note_on,5,0,0,,10,,,57,127
66804,note_off,143,0,0,,10,,,57,127
66804,note_off,0,0,0,,2,,,50,127
66809,note_on,5,0,0,,7,,,43,127
66809,note_on,0,0,0,,11,,,58,127
66952,note_off,143,0,0,,11,,,58,127
66957,note_on,5,0,0,,10,,,69,127
67100,note_off,143,0,0,,10,,,69,127
67105,note_on,5,0,0,,7,,,67,127
67248,note_off,143,0,0,,7,,,67,127
67253,note_on,5,0,0,,5,,,65,127
67396,note_off,143,0,0,,5,,,65,127
67396,note_off,0,0,0,,7,,,43,127
67401,note_on,5,0,0,,7,,,55,127
67401,note_on,0,0,0,,4,,,64,127
67544,note_off,143,0,0,,4,,,64,127
67549,note_on,5,0,0,,2,,,62,127
67692,note_off,143,0,0,,2,,,62,127
67692,note_off,0,0,0,,7,,,55,127
67697,note_on,5,0,0,,10,,,57,127
67697,note_on,0,0,0,,1,,,61,127
67840,note_off,143,0,0,,1,,,61,127
67851,note_on,11,0,0,,12,,,59,127
67988,note_off,137,0,0,,10,,,57,127
67994,note_off,6,0,0,,12,,,59,127
68008,note_on,14,0,0,,10,,,57,127
68008,note_on,0,0,0,,10,,,45,127
68470,note_off,462,0,0,,10,,,45,127
68501,note_off,31,0,0,,10,,,57,127
68732,note_on,231,0,0,,6,,,54,127
68875,note_off,143,0,0,,6,,,54,127
68880,note_on,5,0,0,,7,,,55,127
69023,note_off,143,0,0,,7,,,55,127
69028,note_on,5,0,0,,8,,,56,127
69171,note_off,143,0,0,,8,,,56,127
69176,note_on,5,0,0,,10,,,57,127
69319,note_off,143,0,0,,10,,,57,127
69324,note_on,5,0,0,,11,,,58,127
69467,note_off,143,0,0,,11,,,58,127
69472,note_on,5,0,0,,12,,,59,127
69615,note_off,143,0,0,,12,,,59,127
69620,note_on,5,0,0,,1,,,61,127
69763,note_off,143,0,0,,1,,,61,127
69768,note_on,5,0,0,,2,,,62,127
69916,note_on,148,0,0,,6,,,66,127
70059,note_off,143,0,0,,6,,,66,127
70064,note_on,5,0,0,,7,,,67,127
70207,note_off,143,0,0,,7,,,67,127
70212,note_on,5,0,0,,8,,,68,127
70355,note_off,143,0,0,,8,,,68,127
70360,note_on,5,0,0,,10,,,69,127
70503,note_off,143,0,0,,10,,,69,127
70508,note_on,5,0,0,,11,,,70,127
70651,note_off,143,0,0,,11,,,70,127
70651,note_off,0,0,0,,2,,,62,127
70656,note_on,5,0,0,,7,,,55,127
70656,note_on,0,0,0,,12,,,71,127
70799,note_off,143,0,0,,12,,,71,127
70804,note_on,5,0,0,,1,,,73,127
70947,note_off,143,0,0,,1,,,73,127
70952,note_on,5,0,0,,2,,,74,127
71095,note_off,143,0,0,,2,,,74,127
71100,note_on,5,0,0,,6,,,78,127
71243,note_off,143,0,0,,6,,,78,127
71248,note_on,5,0,0,,7,,,79,127
71391,note_off,143,0,0,,7,,,79,127
71396,note_on,5,0,0,,8,,,80,127
71539,note_off,143,0,0,,8,,,80,127
71539,note_off,0,0,0,,7,,,55,127
71544,note_on,5,0,0,,6,,,54,127
71544,note_on,0,0,0,,10,,,81,127
71687,note_off,143,0,0,,10,,,81,127
71692,note_on,5,0,0,,11,,,82,127
71835,note_off,143,0,0,,11,,,82,127
71840,note_on,5,0,0,,12,,,83,127
71983,note_off,143,0,0,,12,,,83,127
71988,note_on,5,0,0,,1,,,85,127
72131,note_off,143,0,0,,1,,,85,127
72136,note_on,5,0,0,,2,,,86,127
72284,note_on,148,0,0,,2,,,74,127
72427,note_off,143,0,0,,2,,,74,127
72427,note_off,0,0,0,,6,,,54,127
72430,note_off,3,0,0,,2,,,86,127
72432,note_on,2,0,0,,7,,,55,127
72432,note_on,0,0,0,,2,,,74,127
72501,note_off,69,0,0,,2,,,74,127
72506,note_on,5,0,0,,4,,,76,127
72575,note_off,69,0,0,,4,,,76,127
72580,note_on,5,0,0,,6,,,78,127
72649,note_off,69,0,0,,6,,,78,127
72654,note_on,5,0,0,,4,,,76,127
72723,note_off,69,0,0,,4,,,76,127
72723,note_off,0,0,0,,7,,,55,127
72728,note_on,5,0,0,,10,,,57,127
72728,note_on,0,0,0,,6,,,78,127
72797,note_off,69,0,0,,6,,,78,127
72802,note_on,5,0,0,,4,,,76,127
72871,note_off,69,0,0,,4,,,76,127
72876,note_on,5,0,0,,6,,,78,127
72945,note_off,69,0,0,,6,,,78,127
72950,note_on,5,0,0,,4,,,76,127
73019,note_off,69,0,0,,4,,,76,127
73019,note_off,0,0,0,,10,,,57,127
73024,note_on,5,0,0,,10,,,45,127
73024,note_on,0,0,0,,6,,,78,127
73093,note_off,69,0,0,,6,,,78,127
73098,note_on,5,0,0,,4,,,76,127
73167,note_off,69,0,0,,4,,,76,127
73172,note_on,5,0,0,,2,,,74,127
73241,note_off,69,0,0,,2,,,74,127
73246,note_on,5,0,0,,1,,,73,127
73315,note_off,69,0,0,,1,,,73,127
73317,note_off,2,0,0,,10,,,45,127
73320,note_on,3,0,0,,2,,,74,127
73468,note_on,148,0,0,,6,,,54,127
73611,note_off,143,0,0,,6,,,54,127
73616,note_off,5,0,0,,2,,,74,127
73616,note_on,0,0,0,,7,,,55,127
73759,note_off,143,0,0,,7,,,55,127
73764,note_on,5,0,0,,10,,,57,127
73907,note_off,143,0,0,,10,,,57,127
73912,note_on,5,0,0,,12,,,59,127
74055,note_off,143,0,0,,12,,,59,127
74060,note_on,5,0,0,,1,,,61,127
74203,note_off,143,0,0,,1,,,61,127
74208,note_on,5,0,0,,2,,,62,127
74356,note_on,148,0,0,,6,,,66,127
74499,note_off,143,0,0,,6,,,66,127
74504,note_on,5,0,0,,7,,,67,127
74647,note_off,143,0,0,,7,,,67,127
74652,note_on,5,0,0,,8,,,68,127
74795,note_off,143,0,0,,8,,,68,127
74800,note_on,5,0,0,,10,,,69,127
74943,note_off,143,0,0,,10,,,69,127
74948,note_on,5,0,0,,11,,,70,127
75091,note_off,143,0,0,,11,,,70,127
75091,note_off,0,0,0,,2,,,62,127
75096,note_on,5,0,0,,7,,,55,127
75096,note_on,0,0,0,,12,,,71,127
75239,note_off,143,0,0,,12,,,71,127
75244,note_on,5,0,0,,1,,,73,127
75387,note_off,143,0,0,,1,,,73,127
75392,note_on,5,0,0,,2,,,74,127
75535,note_off,143,0,0,,2,,,74,127
75540,note_on,5,0,0,,6,,,78,127
75683,note_off,143,0,0,,6,,,78,127
75688,note_on,5,0,0,,7,,,79,127
75831,note_off,143,0,0,,7,,,79,127
75836,note_on,5,0,0,,8,,,80,127
75979,note_off,143,0,0,,8,,,80,127
75979,note_off,0,0,0,,7,,,55,127
75984,note_on,5,0,0,,6,,,54,127
75984,note_on,0,0,0,,10,,,81,127
76127,note_off,143,0,0,,10,,,81,127
76132,note_on,5,0,0,,11,,,82,127
76275,note_off,143,0,0,,11,,,82,127
76280,note_on,5,0,0,,12,,,83,127
76423,note_off,143,0,0,,12,,,83,127
76428,note_on,5,0,0,,1,,,85,127
76571,note_off,143,0,0,,1,,,85,127
76576,note_on,5,0,0,,2,,,86,127
76724,note_on,148,0,0,,2,,,74,127
76867,note_off,143,0,0,,2,,,74,127
76867,note_off,0,0,0,,6,,,54,127
76870,note_off,3,0,0,,2,,,86,127
76872,note_on,2,0,0,,7,,,55,127
76872,note_on,0,0,0,,2,,,74,127
76941,note_off,69,0,0,,2,,,74,127
76946,note_on,5,0,0,,4,,,76,127
77015,note_off,69,0,0,,4,,,76,127
77020,note_on,5,0,0,,6,,,78,127
77089,note_off,69,0,0,,6,,,78,127
77094,note_on,5,0,0,,4,,,76,127
77163,note_off,69,0,0,,4,,,76,127
77163,note_off,0,0,0,,7,,,55,127
77168,note_on,5,0,0,,10,,,57,127
77168,note_on,0,0,0,,6,,,78,127
77237,note_off,69,0,0,,6,,,78,127
77242,note_on,5,0,0,,4,,,76,127
77311,note_off,69,0,0,,4,,,76,127
77316,note_on,5,0,0,,6,,,78,127
77385,note_off,69,0,0,,6,,,78,127
77390,note_on,5,0,0,,4,,,76,127
77459,note_off,69,0,0,,4,,,76,127
77464,note_on,5,0,0,,10,,,45,127
77464,note_on,0,0,0,,6,,,78,127
77533,note_off,69,0,0,,6,,,78,127
77538,note_on,5,0,0,,4,,,76,127
77607,note_off,69,0,0,,4,,,76,127
77612,note_on,5,0,0,,2,,,74,127
77681,note_off,69,0,0,,2,,,74,127
77686,note_on,5,0,0,,1,,,73,127
77754,note_off,68,0,0,,10,,,57,127
77756,note_off,2,0,0,,1,,,73,127
77756,note_off,0,0,0,,10,,,45,127
77761,note_on,5,0,0,,2,,,50,127
77761,note_on,0,0,0,,2,,,74,127
77904,note_off,143,0,0,,2,,,74,127
77909,note_on,5,0,0,,10,,,81,127
78052,note_off,143,0,0,,10,,,81,127
78057,note_on,5,0,0,,7,,,79,127
78200,note_off,143,0,0,,7,,,79,127
78205,note_on,5,0,0,,6,,,78,127
78348,note_off,143,0,0,,6,,,78,127
78353,note_on,5,0,0,,7,,,79,127
78496,note_off,143,0,0,,7,,,79,127
78501,note_on,5,0,0,,10,,,81,127
78563,note_off,62,0,0,,2,,,50,127
78645,note_off,82,0,0,,10,,,81,127
78650,note_on,5,0,0,,4,,,64,127
78650,note_on,0,0,0,,2,,,62,127
78650,note_on,0,0,0,,7,,,55,127
78650,note_on,0,0,0,,11,,,82,127
78793,note_off,143,0,0,,11,,,82,127
78798,note_on,5,0,0,,12,,,83,127
78941,note_off,143,0,0,,12,,,83,127
78946,note_on,5,0,0,,10,,,81,127
79089,note_off,143,0,0,,10,,,81,127
79094,note_on,5,0,0,,7,,,79,127
79237,note_off,143,0,0,,7,,,79,127
79242,note_on,5,0,0,,6,,,78,127
79385,note_off,143,0,0,,6,,,78,127
79390,note_on,5,0,0,,7,,,79,127
79533,note_off,143,0,0,,7,,,79,127
79533,note_off,0,0,0,,7,,,55,127
79533,note_off,0,0,0,,2,,,62,127
79533,note_off,0,0,0,,4,,,64,127
79538,note_on,5,0,0,,10,,,57,127
79538,note_on,0,0,0,,2,,,62,127
79538,note_on,0,0,0,,6,,,54,127
79538,note_on,0,0,0,,8,,,80,127
79681,note_off,143,0,0,,8,,,80,127
79686,note_on,5,0,0,,10,,,81,127
79829,note_off,143,0,0,,10,,,81,127
79834,note_on,5,0,0,,7,,,79,127
79977,note_off,143,0,0,,7,,,79,127
79982,note_on,5,0,0,,6,,,78,127
80125,note_off,143,0,0,,6,,,78,127
80130,note_on,5,0,0,,4,,,76,127
80273,note_off,143,0,0,,4,,,76,127
80278,note_on,5,0,0,,2,,,74,127
80421,note_off,143,0,0,,2,,,74,127
80421,note_off,0,0,0,,6,,,54,127
80421,note_off,0,0,0,,2,,,62,127
80421,note_off,0,0,0,,10,,,57,127
80426,note_on,5,0,0,,7,,,55,127
80426,note_on,0,0,0,,4,,,76,127
80569,note_off,143,0,0,,4,,,76,127
80574,note_on,5,0,0,,6,,,78,127
80643,note_off,69,0,0,,6,,,78,127
80648,note_on,5,0,0,,7,,,79,127
80717,note_off,69,0,0,,7,,,79,127
80717,note_off,0,0,0,,7,,,55,127
80722,note_on,5,0,0,,10,,,57,127
80722,note_on,0,0,0,,6,,,78,127
80865,note_off,143,0,0,,6,,,78,127
80870,note_on,5,0,0,,4,,,76,127
81013,note_off,143,0,0,,4,,,76,127
81018,note_on,5,0,0,,10,,,45,127
81018,note_on,0,0,0,,2,,,74,127
81161,note_off,143,0,0,,2,,,74,127
81166,note_on,5,0,0,,1,,,73,127
81308,note_off,142,0,0,,10,,,57,127
81310,note_off,2,0,0,,1,,,73,127
81310,note_off,0,0,0,,10,,,45,127
81315,note_on,5,0,0,,2,,,50,127
81315,note_on,0,0,0,,2,,,74,127
81458,note_off,143,0,0,,2,,,74,127
81463,note_on,5,0,0,,10,,,69,127
81606,note_off,143,0,0,,10,,,69,127
81611,note_on,5,0,0,,7,,,67,127
81754,note_off,143,0,0,,7,,,67,127
81759,note_on,5,0,0,,6,,,66,127
81901,note_off,142,0,0,,2,,,50,127
81903,note_off,2,0,0,,6,,,66,127
81908,note_on,5,0,0,,7,,,67,127
82051,note_off,143,0,0,,7,,,67,127
82056,note_on,5,0,0,,10,,,69,127
82199,note_off,143,0,0,,10,,,69,127
82204,note_on,5,0,0,,7,,,55,127
82204,note_on,0,0,0,,11,,,70,127
82347,note_off,143,0,0,,11,,,70,127
82352,note_on,5,0,0,,12,,,71,127
82495,note_off,143,0,0,,12,,,71,127
82500,note_on,5,0,0,,10,,,69,127
82643,note_off,143,0,0,,10,,,69,127
82648,note_on,5,0,0,,7,,,67,127
82791,note_off,143,0,0,,7,,,67,127
82796,note_on,5,0,0,,6,,,66,127
82939,note_off,143,0,0,,6,,,66,127
82944,note_on,5,0,0,,7,,,67,127
83087,note_off,143,0,0,,7,,,67,127
83087,note_off,0,0,0,,7,,,55,127
83092,note_on,5,0,0,,6,,,54,127
83092,note_on,0,0,0,,8,,,68,127
83235,note_off,143,0,0,,8,,,68,127
83240,note_on,5,0,0,,10,,,69,127
83383,note_off,143,0,0,,10,,,69,127
83388,note_on,5,0,0,,7,,,67,127
83531,note_off,143,0,0,,7,,,67,127
83536,note_on,5,0,0,,6,,,66,127
83679,note_off,143,0,0,,6,,,66,127
83684,note_on,5,0,0,,4,,,64,127
83827,note_off,143,0,0,,4,,,64,127
83832,note_on,5,0,0,,2,,,62,127
83975,note_off,143,0,0,,2,,,62,127
83975,note_off,0,0,0,,6,,,54,127
83980,note_on,5,0,0,,7,,,55,127
83980,note_on,0,0,0,,4,,,64,127
84123,note_off,143,0,0,,4,,,64,127
84128,note_on,5,0,0,,6,,,66,127
84197,note_off,69,0,0,,6,,,66,127
84202,note_on,5,0,0,,7,,,67,127
84271,note_off,69,0,0,,7,,,67,127
84271,note_off,0,0,0,,7,,,55,127
84276,note_on,5,0,0,,10,,,57,127
84276,note_on,0,0,0,,6,,,66,127
84419,note_off,143,0,0,,6,,,66,127
84424,note_on,5,0,0,,4,,,64,127
84567,note_off,143,0,0,,4,,,64,127
84572,note_on,5,0,0,,10,,,45,127
84572,note_on,0,0,0,,2,,,62,127
84715,note_off,143,0,0,,2,,,62,127
84720,note_on,5,0,0,,1,,,61,127
84862,note_off,142,0,0,,10,,,57,127
84864,note_off,2,0,0,,1,,,61,127
84864,note_off,0,0,0,,10,,,45,127
84869,note_on,5,0,0,,2,,,50,127
84869,note_on,0,0,0,,2,,,38,127
84869,note_on,0,0,0,,2,,,62,127
85751,note_off,882,0,0,,2,,,62,127
85751,note_off,0,0,0,,2,,,38,127
85751,note_off,0,0,0,,2,,,50,127
85756,note_on,5,0,0,,2,,,50,127
85756,note_on,0,0,0,,2,,,62,127
85899,note_off,143,0,0,,2,,,50,127
85904,note_on,5,0,0,,6,,,54,127
86047,note_off,143,0,0,,6,,,54,127
86052,note_on,5,0,0,,10,,,57,127
86195,note_off,143,0,0,,10,,,57,127
86198,note_off,3,0,0,,2,,,62,127
86200,note_on,2,0,0,,2,,,62,127
86348,note_on,148,0,0,,6,,,66,127
86491,note_off,143,0,0,,6,,,66,127
86494,note_off,3,0,0,,2,,,62,127
86496,note_on,2,0,0,,10,,,69,127
86639,note_off,143,0,0,,10,,,69,127
86644,note_on,5,0,0,,2,,,50,127
86644,note_on,0,0,0,,10,,,81,127
86787,note_off,143,0,0,,10,,,81,127
86792,note_on,5,0,0,,6,,,78,127
86935,note_off,143,0,0,,6,,,78,127
86940,note_on,5,0,0,,2,,,74,127
87083,note_off,143,0,0,,2,,,74,127
87088,note_on,5,0,0,,10,,,69,127
87231,note_off,143,0,0,,10,,,69,127
87236,note_on,5,0,0,,6,,,66,127
87379,note_off,143,0,0,,6,,,66,127
87384,note_on,5,0,0,,2,,,62,127
87527,note_off,143,0,0,,2,,,62,127
87527,note_off,0,0,0,,2,,,50,127
87532,note_on,5,0,0,,0,,,48,127
87532,note_on,0,0,0,,2,,,74,127
87606,note_off,74,0,0,,2,,,74,127
87606,note_on,0,0,0,,0,,,72,127
87675,note_off,69,0,0,,0,,,48,127
87680,note_off,5,0,0,,0,,,72,127
87680,note_on,0,0,0,,6,,,54,127
87680,note_on,0,0,0,,2,,,74,127
87754,note_off,74,0,0,,2,,,74,127
87754,note_on,0,0,0,,0,,,72,127
87823,note_off,69,0,0,,6,,,54,127
87828,note_off,5,0,0,,0,,,72,127
87828,note_on,0,0,0,,10,,,57,127
87828,note_on,0,0,0,,2,,,74,127
87902,note_off,74,0,0,,2,,,74,127
87902,note_on,0,0,0,,0,,,72,127
87971,note_off,69,0,0,,10,,,57,127
87976,note_off,5,0,0,,0,,,72,127
87976,note_on,0,0,0,,2,,,62,127
87976,note_on,0,0,0,,2,,,74,127
88050,note_off,74,0,0,,2,,,74,127
88050,note_on,0,0,0,,0,,,72,127
88119,note_off,69,0,0,,2,,,62,127
88124,note_off,5,0,0,,0,,,72,127
88124,note_on,0,0,0,,6,,,66,127
88124,note_on,0,0,0,,2,,,74,127
88198,note_off,74,0,0,,2,,,74,127
88198,note_on,0,0,0,,0,,,72,127
88267,note_off,69,0,0,,6,,,66,127
88272,note_off,5,0,0,,0,,,72,127
88272,note_on,0,0,0,,10,,,69,127
88272,note_on,0,0,0,,2,,,74,127
88346,note_off,74,0,0,,2,,,74,127
88346,note_on,0,0,0,,0,,,72,127
88415,note_off,69,0,0,,10,,,69,127
88420,note_off,5,0,0,,0,,,72,127
88420,note_on,0,0,0,,0,,,48,127
88420,note_on,0,0,0,,10,,,81,127
88563,note_off,143,0,0,,10,,,81,127
88568,note_on,5,0,0,,6,,,78,127
88711,note_off,143,0,0,,6,,,78,127
88716,note_on,5,0,0,,0,,,72,127
88859,note_off,143,0,0,,0,,,72,127
88864,note_on,5,0,0,,10,,,69,127
89007,note_off,143,0,0,,10,,,69,127
89012,note_on,5,0,0,,6,,,66,127
89155,note_off,143,0,0,,6,,,66,127
89160,note_on,5,0,0,,0,,,60,127
89303,note_off,143,0,0,,0,,,60,127
89303,note_off,0,0,0,,0,,,48,127
89308,note_on,5,0,0,,12,,,47,127
89308,note_on,0,0,0,,4,,,76,127
89382,note_off,74,0,0,,4,,,76,127
89382,note_on,0,0,0,,2,,,74,127
89451,note_off,69,0,0,,12,,,47,127
89456,note_off,5,0,0,,2,,,74,127
89456,note_on,0,0,0,,2,,,50,127
89456,note_on,0,0,0,,4,,,76,127
89530,note_off,74,0,0,,4,,,76,127
89530,note_on,0,0,0,,2,,,74,127
89599,note_off,69,0,0,,2,,,50,127
89604,note_off,5,0,0,,2,,,74,127
89604,note_on,0,0,0,,7,,,55,127
89604,note_on,0,0,0,,4,,,76,127
89678,note_off,74,0,0,,4,,,76,127
89678,note_on,0,0,0,,2,,,74,127
89747,note_off,69,0,0,,7,,,55,127
89752,note_off,5,0,0,,2,,,74,127
89752,note_on,0,0,0,,12,,,59,127
89752,note_on,0,0,0,,4,,,76,127
89826,note_off,74,0,0,,4,,,76,127
89826,note_on,0,0,0,,2,,,74,127
89895,note_off,69,0,0,,12,,,59,127
89900,note_off,5,0,0,,2,,,74,127
89900,note_on,0,0,0,,2,,,62,127
89900,note_on,0,0,0,,4,,,76,127
89974,note_off,74,0,0,,4,,,76,127
89974,note_on,0,0,0,,2,,,74,127
90043,note_off,69,0,0,,2,,,62,127
90048,note_off,5,0,0,,2,,,74,127
90048,note_on,0,0,0,,7,,,67,127
90048,note_on,0,0,0,,4,,,76,127
90122,note_off,74,0,0,,4,,,76,127
90122,note_on,0,0,0,,2,,,74,127
90191,note_off,69,0,0,,7,,,67,127
90196,note_off,5,0,0,,2,,,74,127
90196,note_on,0,0,0,,12,,,47,127
90196,note_on,0,0,0,,12,,,83,127
90339,note_off,143,0,0,,12,,,83,127
90344,note_on,5,0,0,,7,,,79,127
90487,note_off,143,0,0,,7,,,79,127
90492,note_on,5,0,0,,2,,,74,127
90635,note_off,143,0,0,,2,,,74,127
90640,note_on,5,0,0,,12,,,71,127
90783,note_off,143,0,0,,12,,,71,127
90788,note_on,5,0,0,,7,,,67,127
90931,note_off,143,0,0,,7,,,67,127
90936,note_on,5,0,0,,2,,,62,127
91079,note_off,143,0,0,,2,,,62,127
91079,note_off,0,0,0,,12,,,47,127
91084,note_on,5,0,0,,10,,,45,127
91084,note_on,0,0,0,,2,,,74,127
91158,note_off,74,0,0,,2,,,74,127
91158,note_on,0,0,0,,0,,,72,127
91227,note_off,69,0,0,,10,,,45,127
91232,note_off,5,0,0,,0,,,72,127
91232,note_on,0,0,0,,0,,,48,127
91232,note_on,0,0,0,,2,,,74,127
91306,note_off,74,0,0,,2,,,74,127
91306,note_on,0,0,0,,0,,,72,127
91375,note_off,69,0,0,,0,,,48,127
91380,note_off,5,0,0,,0,,,72,127
91380,note_on,0,0,0,,6,,,54,127
91380,note_on,0,0,0,,2,,,74,127
91454,note_off,74,0,0,,2,,,74,127
91454,note_on,0,0,0,,0,,,72,127
91523,note_off,69,0,0,,6,,,54,127
91528,note_off,5,0,0,,0,,,72,127
91528,note_on,0,0,0,,10,,,57,127
91528,note_on,0,0,0,,2,,,74,127
91602,note_off,74,0,0,,2,,,74,127
91602,note_on,0,0,0,,0,,,72,127
91671,note_off,69,0,0,,10,,,57,127
91676,note_off,5,0,0,,0,,,72,127
91676,note_on,0,0,0,,0,,,60,127
91676,note_on,0,0,0,,2,,,74,127
91750,note_off,74,0,0,,2,,,74,127
91750,note_on,0,0,0,,0,,,72,127
91819,note_off,69,0,0,,0,,,60,127
91824,note_off,5,0,0,,0,,,72,127
91824,note_on,0,0,0,,6,,,66,127
91824,note_on,0,0,0,,2,,,74,127
91898,note_off,74,0,0,,2,,,74,127
91898,note_on,0,0,0,,0,,,72,127
91967,note_off,69,0,0,,6,,,66,127
91972,note_off,5,0,0,,0,,,72,127
91972,note_on,0,0,0,,10,,,45,127
91972,note_on,0,0,0,,10,,,81,127
92115,note_off,143,0,0,,10,,,81,127
92120,note_on,5,0,0,,6,,,78,127
92263,note_off,143,0,0,,6,,,78,127
92268,note_on,5,0,0,,0,,,72,127
92411,note_off,143,0,0,,0,,,72,127
92416,note_on,5,0,0,,10,,,69,127
92559,note_off,143,0,0,,10,,,69,127
92564,note_on,5,0,0,,6,,,66,127
92707,note_off,143,0,0,,6,,,66,127
92712,note_on,5,0,0,,0,,,60,127
92855,note_off,143,0,0,,0,,,60,127
92855,note_off,0,0,0,,10,,,45,127
92860,note_on,5,0,0,,7,,,43,127
92860,note_on,0,0,0,,0,,,72,127
92934,note_off,74,0,0,,0,,,72,127
92934,note_on,0,0,0,,12,,,71,127
93003,note_off,69,0,0,,7,,,43,127
93008,note_off,5,0,0,,12,,,71,127
93008,note_on,0,0,0,,12,,,47,127
93008,note_on,0,0,0,,0,,,72,127
93082,note_off,74,0,0,,0,,,72,127
93082,note_on,0,0,0,,12,,,71,127
93151,note_off,69,0,0,,12,,,47,127
93156,note_off,5,0,0,,12,,,71,127
93156,note_on,0,0,0,,2,,,50,127
93156,note_on,0,0,0,,0,,,72,127
93230,note_off,74,0,0,,0,,,72,127
93230,note_on,0,0,0,,12,,,71,127
93299,note_off,69,0,0,,2,,,50,127
93304,note_off,5,0,0,,12,,,71,127
93304,note_on,0,0,0,,7,,,55,127
93304,note_on,0,0,0,,0,,,72,127
93378,note_off,74,0,0,,0,,,72,127
93378,note_on,0,0,0,,12,,,71,127
93447,note_off,69,0,0,,7,,,55,127
93452,note_off,5,0,0,,12,,,71,127
93452,note_on,0,0,0,,12,,,59,127
93452,note_on,0,0,0,,0,,,72,127
93526,note_off,74,0,0,,0,,,72,127
93526,note_on,0,0,0,,12,,,71,127
93595,note_off,69,0,0,,12,,,59,127
93600,note_off,5,0,0,,12,,,71,127
93600,note_on,0,0,0,,2,,,62,127
93600,note_on,0,0,0,,0,,,72,127
93674,note_off,74,0,0,,0,,,72,127
93674,note_on,0,0,0,,12,,,71,127
93743,note_off,69,0,0,,2,,,62,127
93748,note_off,5,0,0,,12,,,71,127
93748,note_on,0,0,0,,7,,,43,127
93896,note_on,148,0,0,,2,,,74,127
94039,note_off,143,0,0,,2,,,74,127
94044,note_on,5,0,0,,7,,,67,127
94187,note_off,143,0,0,,7,,,67,127
94192,note_on,5,0,0,,10,,,69,127
94335,note_off,143,0,0,,10,,,69,127
94340,note_on,5,0,0,,12,,,71,127
94483,note_off,143,0,0,,12,,,71,127
94488,note_off,5,0,0,,7,,,43,127
94488,note_on,0,0,0,,0,,,72,127
94631,note_off,143,0,0,,0,,,72,127
94636,note_on,5,0,0,,5,,,65,127
94636,note_on,0,0,0,,2,,,62,127
94636,note_on,0,0,0,,7,,,55,127
94636,note_on,0,0,0,,2,,,74,127
94784,note_on,148,0,0,,7,,,67,127
94856,note_off,72,0,0,,2,,,74,127
94931,note_on,75,0,0,,12,,,71,127
95003,note_off,72,0,0,,7,,,67,127
95078,note_on,75,0,0,,7,,,67,127
95150,note_off,72,0,0,,12,,,71,127
95225,note_on,75,0,0,,2,,,74,127
95297,note_off,72,0,0,,7,,,67,127
95372,note_on,75,0,0,,7,,,67,127
95444,note_off,72,0,0,,2,,,74,127
95515,note_off,71,0,0,,7,,,55,127
95515,note_off,0,0,0,,2,,,62,127
95515,note_off,0,0,0,,5,,,65,127
95520,note_on,5,0,0,,5,,,65,127
95520,note_on,0,0,0,,2,,,62,127
95520,note_on,0,0,0,,7,,,55,127
95520,note_on,0,0,0,,5,,,77,127
95592,note_off,72,0,0,,7,,,67,127
95667,note_on,75,0,0,,7,,,67,127
95739,note_off,72,0,0,,5,,,77,127
95814,note_on,75,0,0,,2,,,74,127
95886,note_off,72,0,0,,7,,,67,127
95961,note_on,75,0,0,,7,,,67,127
96033,note_off,72,0,0,,2,,,74,127
96108,note_on,75,0,0,,12,,,71,127
96180,note_off,72,0,0,,7,,,67,127
96255,note_on,75,0,0,,7,,,67,127
96327,note_off,72,0,0,,12,,,71,127
96398,note_off,71,0,0,,7,,,55,127
96398,note_off,0,0,0,,2,,,62,127
96398,note_off,0,0,0,,5,,,65,127
96403,note_on,5,0,0,,5,,,65,127
96403,note_on,0,0,0,,2,,,62,127
96403,note_on,0,0,0,,7,,,55,127
96403,note_on,0,0,0,,5,,,77,127
96475,note_off,72,0,0,,7,,,67,127
96550,note_on,75,0,0,,7,,,67,127
96622,note_off,72,0,0,,5,,,77,127
96697,note_on,75,0,0,,2,,,74,127
96769,note_off,72,0,0,,7,,,67,127
96844,note_on,75,0,0,,7,,,67,127
96916,note_off,72,0,0,,2,,,74,127
96991,note_on,75,0,0,,12,,,71,127
97063,note_off,72,0,0,,7,,,67,127
97138,note_on,75,0,0,,7,,,67,127
97210,note_off,72,0,0,,12,,,71,127
97281,note_off,71,0,0,,7,,,55,127
97281,note_off,0,0,0,,2,,,62,127
97281,note_off,0,0,0,,5,,,65,127
97286,note_on,5,0,0,,4,,,64,127
97286,note_on,0,0,0,,0,,,60,127
97286,note_on,0,0,0,,7,,,55,127
97286,note_on,0,0,0,,0,,,72,127
97358,note_off,72,0,0,,7,,,67,127
97433,note_on,75,0,0,,7,,,67,127
97505,note_off,72,0,0,,0,,,72,127
97580,note_on,75,0,0,,4,,,76,127
97652,note_off,72,0,0,,7,,,67,127
97727,note_on,75,0,0,,7,,,67,127
97799,note_off,72,0,0,,4,,,76,127
97874,note_on,75,0,0,,0,,,72,127
97946,note_off,72,0,0,,7,,,67,127
98021,note_on,75,0,0,,7,,,67,127
98093,note_off,72,0,0,,0,,,72,127
98164,note_off,71,0,0,,7,,,55,127
98164,note_off,0,0,0,,0,,,60,127
98164,note_off,0,0,0,,4,,,64,127
98169,note_on,5,0,0,,4,,,64,127
98169,note_on,0,0,0,,7,,,55,127
98169,note_on,0,0,0,,0,,,60,127
98169,note_on,0,0,0,,7,,,79,127
98241,note_off,72,0,0,,7,,,67,127
98316,note_on,75,0,0,,7,,,67,127
98388,note_off,72,0,0,,7,,,79,127
98463,note_on,75,0,0,,4,,,76,127
98535,note_off,72,0,0,,7,,,67,127
98610,note_on,75,0,0,,7,,,67,127
98682,note_off,72,0,0,,4,,,76,127
98757,note_on,75,0,0,,0,,,72,127
98829,note_off,72,0,0,,7,,,67,127
98904,note_on,75,0,0,,7,,,67,127
98976,note_off,72,0,0,,0,,,72,127
99047,note_off,71,0,0,,0,,,60,127
99047,note_off,0,0,0,,7,,,55,127
99047,note_off,0,0,0,,4,,,64,127
99052,note_on,5,0,0,,7,,,55,127
99052,note_on,0,0,0,,0,,,60,127
99052,note_on,0,0,0,,4,,,64,127
99052,note_on,0,0,0,,7,,,79,127
99124,note_off,72,0,0,,7,,,67,127
99199,note_on,75,0,0,,7,,,67,127
99271,note_off,72,0,0,,7,,,79,127
99346,note_on,75,0,0,,4,,,76,127
99418,note_off,72,0,0,,7,,,67,127
99493,note_on,75,0,0,,7,,,67,127
99565,note_off,72,0,0,,4,,,76,127
99640,note_on,75,0,0,,0,,,72,127
99712,note_off,72,0,0,,7,,,67,127
99787,note_on,75,0,0,,7,,,67,127
99859,note_off,72,0,0,,0,,,72,127
99930,note_off,71,0,0,,4,,,64,127
99930,note_off,0,0,0,,0,,,60,127
99930,note_off,0,0,0,,7,,,55,127
99935,note_on,5,0,0,,4,,,64,127
99935,note_on,0,0,0,,0,,,60,127
99935,note_on,0,0,0,,11,,,58,127
99935,note_on,0,0,0,,7,,,55,127
99935,note_on,0,0,0,,11,,,70,127
100007,note_off,72,0,0,,7,,,67,127
100082,note_on,75,0,0,,7,,,67,127
100154,note_off,72,0,0,,11,,,70,127
100229,note_on,75,0,0,,7,,,79,127
100301,note_off,72,0,0,,7,,,67,127
100376,note_on,75,0,0,,7,,,67,127
100448,note_off,72,0,0,,7,,,79,127
100523,note_on,75,0,0,,4,,,76,127
100595,note_off,72,0,0,,7,,,67,127
100670,note_on,75,0,0,,7,,,67,127
100742,note_off,72,0,0,,4,,,76,127
100813,note_off,71,0,0,,7,,,55,127
100813,note_off,0,0,0,,11,,,58,127
100813,note_off,0,0,0,,0,,,60,127
100813,note_off,0,0,0,,4,,,64,127
100818,note_on,5,0,0,,4,,,64,127
100818,note_on,0,0,0,,11,,,58,127
100818,note_on,0,0,0,,0,,,60,127
100818,note_on,0,0,0,,7,,,55,127
100818,note_on,0,0,0,,11,,,70,127
100890,note_off,72,0,0,,7,,,67,127
100965,note_on,75,0,0,,7,,,67,127
101037,note_off,72,0,0,,11,,,70,127
101112,note_on,75,0,0,,7,,,79,127
101184,note_off,72,0,0,,7,,,67,127
101259,note_on,75,0,0,,7,,,67,127
101331,note_off,72,0,0,,7,,,79,127
101406,note_on,75,0,0,,4,,,76,127
101478,note_off,72,0,0,,7,,,67,127
101553,note_on,75,0,0,,7,,,67,127
101625,note_off,72,0,0,,4,,,76,127
101696,note_off,71,0,0,,7,,,55,127
101696,note_off,0,0,0,,0,,,60,127
101696,note_off,0,0,0,,11,,,58,127
101696,note_off,0,0,0,,4,,,64,127
101701,note_on,5,0,0,,4,,,64,127
101701,note_on,0,0,0,,0,,,60,127
101701,note_on,0,0,0,,7,,,55,127
101701,note_on,0,0,0,,11,,,58,127
101701,note_on,0,0,0,,7,,,79,127
101773,note_off,72,0,0,,7,,,67,127
101848,note_on,75,0,0,,7,,,67,127
101920,note_off,72,0,0,,7,,,79,127
101995,note_on,75,0,0,,11,,,70,127
102067,note_off,72,0,0,,7,,,67,127
102142,note_on,75,0,0,,7,,,67,127
102214,note_off,72,0,0,,11,,,70,127
102289,note_on,75,0,0,,0,,,72,127
102361,note_off,72,0,0,,7,,,67,127
102436,note_on,75,0,0,,7,,,67,127
102508,note_off,72,0,0,,0,,,72,127
102579,note_off,71,0,0,,11,,,58,127
102579,note_off,0,0,0,,7,,,55,127
102579,note_off,0,0,0,,0,,,60,127
102579,note_off,0,0,0,,4,,,64,127
102584,note_on,5,0,0,,1,,,61,127
102584,note_on,0,0,0,,5,,,53,127
102584,note_on,0,0,0,,11,,,58,127
102584,note_on,0,0,0,,1,,,73,127
102656,note_off,72,0,0,,7,,,67,127
102731,note_on,75,0,0,,5,,,65,127
102803,note_off,72,0,0,,1,,,73,127
102878,note_on,75,0,0,,11,,,70,127
102950,note_off,72,0,0,,5,,,65,127
103025,note_on,75,0,0,,5,,,65,127
103097,note_off,72,0,0,,11,,,70,127
103172,note_on,75,0,0,,0,,,72,127
103244,note_off,72,0,0,,5,,,65,127
103319,note_on,75,0,0,,5,,,65,127
103391,note_off,72,0,0,,0,,,72,127
103462,note_off,71,0,0,,11,,,58,127
103462,note_off,0,0,0,,5,,,53,127
103462,note_off,0,0,0,,1,,,61,127
103467,note_on,5,0,0,,11,,,58,127
103467,note_on,0,0,0,,1,,,61,127
103467,note_on,0,0,0,,5,,,53,127
103467,note_on,0,0,0,,1,,,73,127
103539,note_off,72,0,0,,5,,,65,127
103614,note_on,75,0,0,,5,,,65,127
103686,note_off,72,0,0,,1,,,73,127
103761,note_on,75,0,0,,11,,,70,127
103833,note_off,72,0,0,,5,,,65,127
103908,note_on,75,0,0,,5,,,65,127
103980,note_off,72,0,0,,11,,,70,127
104055,note_on,75,0,0,,0,,,72,127
104127,note_off,72,0,0,,5,,,65,127
104202,note_on,75,0,0,,5,,,65,127
104274,note_off,72,0,0,,0,,,72,127
104345,note_off,71,0,0,,5,,,53,127
104345,note_off,0,0,0,,1,,,61,127
104345,note_off,0,0,0,,11,,,58,127
104350,note_on,5,0,0,,11,,,58,127
104350,note_on,0,0,0,,1,,,61,127
104350,note_on,0,0,0,,5,,,53,127
104350,note_on,0,0,0,,1,,,73,127
104422,note_off,72,0,0,,5,,,65,127
104497,note_on,75,0,0,,5,,,65,127
104569,note_off,72,0,0,,1,,,73,127
104644,note_on,75,0,0,,0,,,72,127
104716,note_off,72,0,0,,5,,,65,127
104791,note_on,75,0,0,,5,,,65,127
104863,note_off,72,0,0,,0,,,72,127
104938,note_on,75,0,0,,1,,,73,127
105010,note_off,72,0,0,,5,,,65,127
105085,note_on,75,0,0,,5,,,65,127
105157,note_off,72,0,0,,1,,,73,127
105228,note_off,71,0,0,,5,,,53,127
105228,note_off,0,0,0,,1,,,61,127
105228,note_off,0,0,0,,11,,,58,127
105233,note_on,5,0,0,,1,,,61,127
105233,note_on,0,0,0,,11,,,58,127
105233,note_on,0,0,0,,3,,,51,127
105233,note_on,0,0,0,,7,,,79,127
105305,note_off,72,0,0,,5,,,65,127
105380,note_on,75,0,0,,11,,,70,127
105452,note_off,72,0,0,,7,,,79,127
105527,note_on,75,0,0,,1,,,73,127
105599,note_off,72,0,0,,11,,,70,127
105674,note_on,75,0,0,,11,,,70,127
105746,note_off,72,0,0,,1,,,73,127
105821,note_on,75,0,0,,7,,,79,127
105893,note_off,72,0,0,,11,,,70,127
105968,note_on,75,0,0,,11,,,70,127
106040,note_off,72,0,0,,7,,,79,127
106111,note_off,71,0,0,,3,,,51,127
106111,note_off,0,0,0,,11,,,58,127
106111,note_off,0,0,0,,1,,,61,127
106116,note_on,5,0,0,,1,,,61,127
106116,note_on,0,0,0,,11,,,58,127
106116,note_on,0,0,0,,3,,,51,127
106116,note_on,0,0,0,,1,,,73,127
106188,note_off,72,0,0,,11,,,70,127
106263,note_on,75,0,0,,11,,,70,127
106335,note_off,72,0,0,,1,,,73,127
106410,note_on,75,0,0,,7,,,79,127
106482,note_off,72,0,0,,11,,,70,127
106557,note_on,75,0,0,,11,,,70,127
106629,note_off,72,0,0,,7,,,79,127
106704,note_on,75,0,0,,1,,,73,127
106776,note_off,72,0,0,,11,,,70,127
106851,note_on,75,0,0,,11,,,70,127
106923,note_off,72,0,0,,1,,,73,127
106994,note_off,71,0,0,,3,,,51,127
106994,note_off,0,0,0,,11,,,58,127
106994,note_off,0,0,0,,1,,,61,127
106999,note_on,5,0,0,,1,,,61,127
106999,note_on,0,0,0,,11,,,58,127
106999,note_on,0,0,0,,3,,,51,127
106999,note_on,0,0,0,,7,,,79,127
107071,note_off,72,0,0,,11,,,70,127
107146,note_on,75,0,0,,11,,,70,127
107218,note_off,72,0,0,,7,,,79,127
107293,note_on,75,0,0,,1,,,73,127
107365,note_off,72,0,0,,11,,,70,127
107440,note_on,75,0,0,,11,,,70,127
107512,note_off,72,0,0,,1,,,73,127
107587,note_on,75,0,0,,7,,,79,127
107659,note_off,72,0,0,,11,,,70,127
107734,note_on,75,0,0,,11,,,70,127
107806,note_off,72,0,0,,7,,,79,127
107877,note_off,71,0,0,,3,,,51,127
107877,note_off,0,0,0,,11,,,58,127
107877,note_off,0,0,0,,1,,,61,127
107882,note_on,5,0,0,,0,,,60,127
107882,note_on,0,0,0,,8,,,56,127
107882,note_on,0,0,0,,3,,,51,127
107882,note_on,0,0,0,,8,,,80,127
107954,note_off,72,0,0,,11,,,70,127
108029,note_on,75,0,0,,3,,,75,127
108177,note_on,148,0,0,,0,,,72,127
108180,note_off,3,0,0,,8,,,80,127
108249,note_off,69,0,0,,3,,,75,127
108324,note_on,75,0,0,,8,,,68,127
108396,note_off,72,0,0,,0,,,72,127
108471,note_on,75,0,0,,0,,,72,127
108543,note_off,72,0,0,,8,,,68,127
108618,note_on,75,0,0,,3,,,75,127
108690,note_off,72,0,0,,0,,,72,127
108761,note_off,71,0,0,,3,,,51,127
108761,note_off,0,0,0,,8,,,56,127
108761,note_off,0,0,0,,0,,,60,127
108766,note_on,5,0,0,,0,,,60,127
108766,note_on,0,0,0,,8,,,56,127
108766,note_on,0,0,0,,3,,,51,127
108766,note_on,0,0,0,,8,,,80,127
108838,note_off,72,0,0,,3,,,75,127
108913,note_on,75,0,0,,3,,,75,127
109061,note_on,148,0,0,,0,,,72,127
109064,note_off,3,0,0,,8,,,80,127
109133,note_off,69,0,0,,3,,,75,127
109208,note_on,75,0,0,,8,,,68,127
109280,note_off,72,0,0,,0,,,72,127
109355,note_on,75,0,0,,0,,,72,127
109427,note_off,72,0,0,,8,,,68,127
109502,note_on,75,0,0,,3,,,75,127
109574,note_off,72,0,0,,0,,,72,127
109645,note_off,71,0,0,,3,,,51,127
109645,note_off,0,0,0,,8,,,56,127
109645,note_off,0,0,0,,0,,,60,127
109650,note_on,5,0,0,,5,,,53,127
109650,note_on,0,0,0,,0,,,60,127
109650,note_on,0,0,0,,1,,,49,127
109650,note_on,0,0,0,,8,,,80,127
109722,note_off,72,0,0,,3,,,75,127
109797,note_on,75,0,0,,0,,,72,127
109945,note_on,148,0,0,,1,,,73,127
110017,note_off,72,0,0,,0,,,72,127
110022,note_off,5,0,0,,8,,,80,127
110093,note_on,71,0,0,,0,,,72,127
110165,note_off,72,0,0,,1,,,73,127
110240,note_on,75,0,0,,7,,,79,127
110312,note_off,72,0,0,,0,,,72,127
110387,note_on,75,0,0,,0,,,72,127
110459,note_off,72,0,0,,7,,,79,127
110530,note_off,71,0,0,,1,,,49,127
110530,note_off,0,0,0,,0,,,60,127
110530,note_off,0,0,0,,5,,,53,127
110535,note_on,5,0,0,,11,,,58,127
110535,note_on,0,0,0,,5,,,53,127
110535,note_on,0,0,0,,1,,,49,127
110535,note_on,0,0,0,,5,,,77,127
110607,note_off,72,0,0,,0,,,72,127
110682,note_on,75,0,0,,0,,,72,127
110830,note_on,148,0,0,,1,,,73,127
110902,note_off,72,0,0,,0,,,72,127
110907,note_off,5,0,0,,5,,,77,127
110978,note_on,71,0,0,,0,,,72,127
111050,note_off,72,0,0,,1,,,73,127
111125,note_on,75,0,0,,11,,,70,127
111197,note_off,72,0,0,,0,,,72,127
111272,note_on,75,0,0,,0,,,72,127
111344,note_off,72,0,0,,11,,,70,127
111415,note_off,71,0,0,,1,,,49,127
111415,note_off,0,0,0,,5,,,53,127
111415,note_off,0,0,0,,11,,,58,127
111420,note_on,5,0,0,,11,,,58,127
111420,note_on,0,0,0,,5,,,53,127
111420,note_on,0,0,0,,1,,,49,127
111420,note_on,0,0,0,,4,,,76,127
111492,note_off,72,0,0,,0,,,72,127
111567,note_on,75,0,0,,0,,,72,127
111715,note_on,148,0,0,,1,,,73,127
111718,note_off,3,0,0,,4,,,76,127
111787,note_off,69,0,0,,0,,,72,127
111862,note_on,75,0,0,,0,,,72,127
111934,note_off,72,0,0,,1,,,73,127
112009,note_on,75,0,0,,11,,,70,127
112081,note_off,72,0,0,,0,,,72,127
112156,note_on,75,0,0,,0,,,72,127
112228,note_off,72,0,0,,11,,,70,127
112299,note_off,71,0,0,,1,,,49,127
112299,note_off,0,0,0,,5,,,53,127
112299,note_off,0,0,0,,11,,,58,127
112304,note_on,5,0,0,,11,,,58,127
112304,note_on,0,0,0,,5,,,53,127
112304,note_on,0,0,0,,1,,,49,127
112304,note_on,0,0,0,,4,,,76,127
112376,note_off,72,0,0,,0,,,72,127
112451,note_on,75,0,0,,0,,,72,127
112599,note_on,148,0,0,,1,,,73,127
112602,note_off,3,0,0,,4,,,76,127
112671,note_off,69,0,0,,0,,,72,127
112746,note_on,75,0,0,,0,,,72,127
112818,note_off,72,0,0,,1,,,73,127
112893,note_on,75,0,0,,5,,,77,127
112965,note_off,72,0,0,,0,,,72,127
113040,note_on,75,0,0,,11,,,70,127
113112,note_off,72,0,0,,5,,,77,127
113183,note_off,71,0,0,,1,,,49,127
113183,note_off,0,0,0,,5,,,53,127
113183,note_off,0,0,0,,11,,,58,127
113188,note_on,5,0,0,,7,,,55,127
113188,note_on,0,0,0,,11,,,58,127
113188,note_on,0,0,0,,0,,,48,127
113188,note_on,0,0,0,,4,,,76,127
113260,note_off,72,0,0,,11,,,70,127
113335,note_on,75,0,0,,11,,,70,127
113407,note_off,72,0,0,,4,,,76,127
113482,note_on,75,0,0,,7,,,79,127
113554,note_off,72,0,0,,11,,,70,127
113629,note_on,75,0,0,,7,,,67,127
113701,note_off,72,0,0,,7,,,79,127
113776,note_on,75,0,0,,11,,,70,127
113848,note_off,72,0,0,,7,,,67,127
113923,note_on,75,0,0,,7,,,67,127
113995,note_off,72,0,0,,11,,,70,127
114066,note_off,71,0,0,,0,,,48,127
114066,note_off,0,0,0,,11,,,58,127
114066,note_off,0,0,0,,7,,,55,127
114071,note_on,5,0,0,,7,,,55,127
114071,note_on,0,0,0,,11,,,58,127
114071,note_on,0,0,0,,0,,,48,127
114071,note_on,0,0,0,,1,,,73,127
114143,note_off,72,0,0,,7,,,67,127
114218,note_on,75,0,0,,7,,,67,127
114290,note_off,72,0,0,,1,,,73,127
114365,note_on,75,0,0,,7,,,79,127
114437,note_off,72,0,0,,7,,,67,127
114512,note_on,75,0,0,,7,,,67,127
114584,note_off,72,0,0,,7,,,79,127
114659,note_on,75,0,0,,11,,,70,127
114731,note_off,72,0,0,,7,,,67,127
114806,note_on,75,0,0,,7,,,67,127
114878,note_off,72,0,0,,11,,,70,127
114949,note_off,71,0,0,,0,,,48,127
114949,note_off,0,0,0,,11,,,58,127
114949,note_off,0,0,0,,7,,,55,127
114954,note_on,5,0,0,,7,,,55,127
114954,note_on,0,0,0,,11,,,58,127
114954,note_on,0,0,0,,0,,,48,127
114954,note_on,0,0,0,,1,,,73,127
115026,note_off,72,0,0,,7,,,67,127
115101,note_on,75,0,0,,7,,,67,127
115173,note_off,72,0,0,,1,,,73,127
115248,note_on,75,0,0,,7,,,79,127
115320,note_off,72,0,0,,7,,,67,127
115395,note_on,75,0,0,,7,,,67,127
115467,note_off,72,0,0,,7,,,79,127
115542,note_on,75,0,0,,1,,,73,127
115614,note_off,72,0,0,,7,,,67,127
115689,note_on,75,0,0,,7,,,67,127
115761,note_off,72,0,0,,1,,,73,127
115832,note_off,71,0,0,,0,,,48,127
115832,note_off,0,0,0,,11,,,58,127
115832,note_off,0,0,0,,7,,,55,127
115837,note_on,5,0,0,,7,,,55,127
115837,note_on,0,0,0,,1,,,49,127
115837,note_on,0,0,0,,11,,,46,127
115837,note_on,0,0,0,,7,,,79,127
115909,note_off,72,0,0,,7,,,67,127
115984,note_on,75,0,0,,11,,,70,127
116056,note_off,72,0,0,,7,,,79,127
116131,note_on,75,0,0,,1,,,73,127
116203,note_off,72,0,0,,11,,,70,127
116278,note_on,75,0,0,,11,,,70,127
116350,note_off,72,0,0,,1,,,73,127
116425,note_on,75,0,0,,4,,,76,127
116497,note_off,72,0,0,,11,,,70,127
116572,note_on,75,0,0,,11,,,70,127
116644,note_off,72,0,0,,4,,,76,127
116715,note_off,71,0,0,,11,,,46,127
116715,note_off,0,0,0,,1,,,49,127
116715,note_off,0,0,0,,7,,,55,127
116720,note_on,5,0,0,,7,,,55,127
116720,note_on,0,0,0,,1,,,49,127
116720,note_on,0,0,0,,11,,,46,127
116720,note_on,0,0,0,,7,,,79,127
116792,note_off,72,0,0,,11,,,70,127
116867,note_on,75,0,0,,11,,,70,127
116939,note_off,72,0,0,,7,,,79,127
117014,note_on,75,0,0,,1,,,73,127
117086,note_off,72,0,0,,11,,,70,127
117161,note_on,75,0,0,,11,,,70,127
117233,note_off,72,0,0,,1,,,73,127
117308,note_on,75,0,0,,4,,,76,127
117380,note_off,72,0,0,,11,,,70,127
117455,note_on,75,0,0,,11,,,70,127
117527,note_off,72,0,0,,4,,,76,127
117598,note_off,71,0,0,,11,,,46,127
117598,note_off,0,0,0,,1,,,49,127
117598,note_off,0,0,0,,7,,,55,127
117603,note_on,5,0,0,,7,,,55,127
117603,note_on,0,0,0,,1,,,49,127
117603,note_on,0,0,0,,11,,,46,127
117603,note_on,0,0,0,,7,,,79,127
117675,note_off,72,0,0,,11,,,70,127
117746,note_off,71,0,0,,7,,,79,127
117751,note_on,5,0,0,,11,,,70,127
117894,note_off,143,0,0,,11,,,70,127
117899,note_on,5,0,0,,11,,,82,127
118042,note_off,143,0,0,,11,,,82,127
118047,note_on,5,0,0,,11,,,70,127
118190,note_off,143,0,0,,11,,,70,127
118195,note_on,5,0,0,,8,,,80,127
118338,note_off,143,0,0,,8,,,80,127
118343,note_on,5,0,0,,11,,,70,127
118486,note_off,143,0,0,,11,,,70,127
118486,note_off,0,0,0,,11,,,46,127
118486,note_off,0,0,0,,1,,,49,127
118486,note_off,0,0,0,,7,,,55,127
118491,note_on,5,0,0,,7,,,55,127
118491,note_on,0,0,0,,1,,,49,127
118491,note_on,0,0,0,,11,,,46,127
118491,note_on,0,0,0,,8,,,80,127
118634,note_off,143,0,0,,8,,,80,127
118639,note_on,5,0,0,,11,,,70,127
118782,note_off,143,0,0,,11,,,70,127
118787,note_on,5,0,0,,7,,,79,127
118930,note_off,143,0,0,,7,,,79,127
118935,note_on,5,0,0,,11,,,70,127
119078,note_off,143,0,0,,11,,,70,127
119083,note_on,5,0,0,,5,,,77,127
119226,note_off,143,0,0,,5,,,77,127
119231,note_on,5,0,0,,11,,,70,127
119374,note_off,143,0,0,,11,,,70,127
119374,note_off,0,0,0,,11,,,46,127
119374,note_off,0,0,0,,1,,,49,127
119374,note_off,0,0,0,,7,,,55,127
119379,note_on,5,0,0,,7,,,55,127
119379,note_on,0,0,0,,1,,,49,127
119379,note_on,0,0,0,,11,,,46,127
119379,note_on,0,0,0,,5,,,77,127
119522,note_off,143,0,0,,5,,,77,127
119527,note_on,5,0,0,,11,,,70,127
119670,note_off,143,0,0,,11,,,70,127
119675,note_on,5,0,0,,4,,,76,127
119818,note_off,143,0,0,,4,,,76,127
119823,note_on,5,0,0,,11,,,70,127
119966,note_off,143,0,0,,11,,,70,127
119971,note_on,5,0,0,,2,,,74,127
120114,note_off,143,0,0,,2,,,74,127
120119,note_on,5,0,0,,11,,,70,127
120262,note_off,143,0,0,,11,,,70,127
120262,note_off,0,0,0,,11,,,46,127
120262,note_off,0,0,0,,1,,,49,127
120262,note_off,0,0,0,,7,,,55,127
120267,note_on,5,0,0,,10,,,57,127
120267,note_on,0,0,0,,4,,,52,127
120267,note_on,0,0,0,,10,,,45,127
120270,note_on,3,0,0,,1,,,73,127
120413,note_off,143,0,0,,1,,,73,127
120424,note_on,11,0,0,,10,,,69,127
120587,note_on,163,0,0,,10,,,81,127
120716,note_off,129,0,0,,10,,,69,127
120730,note_off,14,0,0,,10,,,81,127
120735,note_on,5,0,0,,7,,,79,127
120878,note_off,143,0,0,,7,,,79,127
120883,note_on,5,0,0,,5,,,77,127
121026,note_off,143,0,0,,5,,,77,127
121031,note_on,5,0,0,,4,,,76,127
121068,note_off,37,0,0,,10,,,45,127
121150,note_off,82,0,0,,4,,,52,127
121150,note_off,0,0,0,,10,,,57,127
121175,note_off,25,0,0,,4,,,76,127
121180,note_on,5,0,0,,6,,,78,127
121180,note_on,0,0,0,,2,,,50,127
121323,note_off,143,0,0,,6,,,78,127
121328,note_on,5,0,0,,7,,,79,127
121471,note_off,143,0,0,,7,,,79,127
121476,note_on,5,0,0,,10,,,81,127
121624,note_on,148,0,0,,0,,,72,127
121661,note_off,37,0,0,,10,,,81,127
121767,note_off,106,0,0,,0,,,72,127
121772,note_on,5,0,0,,11,,,70,127
121915,note_off,143,0,0,,11,,,70,127
121920,note_on,5,0,0,,10,,,69,127
122063,note_off,143,0,0,,10,,,69,127
122063,note_off,0,0,0,,2,,,50,127
122068,note_on,5,0,0,,11,,,70,127
122068,note_on,0,0,0,,7,,,55,127
122211,note_off,143,0,0,,11,,,70,127
122216,note_on,5,0,0,,0,,,72,127
122359,note_off,143,0,0,,0,,,72,127
122364,note_on,5,0,0,,2,,,74,127
122512,note_on,148,0,0,,5,,,65,127
122549,note_off,37,0,0,,2,,,74,127
122655,note_off,106,0,0,,5,,,65,127
122660,note_on,5,0,0,,3,,,63,127
122803,note_off,143,0,0,,3,,,63,127
122808,note_on,5,0,0,,2,,,62,127
122951,note_off,143,0,0,,2,,,62,127
122951,note_off,0,0,0,,7,,,55,127
122956,note_on,5,0,0,,3,,,63,127
122956,note_on,0,0,0,,0,,,48,127
123099,note_off,143,0,0,,3,,,63,127
123104,note_on,5,0,0,,2,,,74,127
123247,note_off,143,0,0,,2,,,74,127
123252,note_on,5,0,0,,0,,,72,127
123395,note_off,143,0,0,,0,,,72,127
123400,note_on,5,0,0,,11,,,70,127
123543,note_off,143,0,0,,11,,,70,127
123548,note_on,5,0,0,,10,,,69,127
123691,note_off,143,0,0,,10,,,69,127
123696,note_on,5,0,0,,7,,,67,127
123839,note_off,143,0,0,,7,,,67,127
123839,note_off,0,0,0,,0,,,48,127
123844,note_on,5,0,0,,6,,,66,127
123844,note_on,0,0,0,,2,,,50,127
123987,note_off,143,0,0,,6,,,66,127
123992,note_on,5,0,0,,4,,,64,127
124135,note_off,143,0,0,,4,,,64,127
124140,note_on,5,0,0,,2,,,62,127
124283,note_off,143,0,0,,2,,,50,127
124288,note_off,5,0,0,,2,,,62,127
124288,note_on,0,0,0,,0,,,60,127
124431,note_off,143,0,0,,0,,,60,127
124436,note_on,5,0,0,,12,,,59,127
124579,note_off,143,0,0,,12,,,59,127
124584,note_on,5,0,0,,10,,,57,127
124727,note_off,143,0,0,,10,,,57,127
124732,note_on,5,0,0,,7,,,55,127
124880,note_on,148,0,0,,12,,,59,127
125023,note_off,143,0,0,,12,,,59,127
125026,note_off,3,0,0,,7,,,55,127
125028,note_on,2,0,0,,7,,,55,127
125176,note_on,148,0,0,,2,,,62,127
125319,note_off,143,0,0,,2,,,62,127
125322,note_off,3,0,0,,7,,,55,127
125324,note_on,2,0,0,,12,,,59,127
125467,note_off,143,0,0,,12,,,59,127
125472,note_on,5,0,0,,7,,,67,127
125615,note_off,143,0,0,,7,,,67,127
125620,note_on,5,0,0,,2,,,62,127
125620,note_on,0,0,0,,12,,,47,127
125763,note_off,143,0,0,,2,,,62,127
125768,note_on,5,0,0,,12,,,71,127
125911,note_off,143,0,0,,12,,,71,127
125916,note_on,5,0,0,,7,,,67,127
126059,note_off,143,0,0,,7,,,67,127
126064,note_on,5,0,0,,2,,,74,127
126207,note_off,143,0,0,,2,,,74,127
126212,note_on,5,0,0,,7,,,67,127
126355,note_off,143,0,0,,7,,,67,127
126360,note_on,5,0,0,,2,,,62,127
126503,note_off,143,0,0,,2,,,62,127
126503,note_off,0,0,0,,12,,,47,127
126508,note_on,5,0,0,,4,,,64,127
126508,note_on,0,0,0,,0,,,48,127
126799,note_off,291,0,0,,0,,,48,127
126799,note_off,0,0,0,,4,,,64,127
126804,note_on,5,0,0,,7,,,67,127
126804,note_on,0,0,0,,2,,,50,127
126873,note_off,69,0,0,,7,,,67,127
126878,note_on,5,0,0,,6,,,66,127
126947,note_off,69,0,0,,6,,,66,127
126952,note_on,5,0,0,,7,,,67,127
127021,note_off,69,0,0,,7,,,67,127
127026,note_on,5,0,0,,6,,,66,127
127095,note_off,69,0,0,,6,,,66,127
127100,note_on,5,0,0,,7,,,67,127
127169,note_off,69,0,0,,7,,,67,127
127174,note_on,5,0,0,,6,,,66,127
127243,note_off,69,0,0,,6,,,66,127
127248,note_on,5,0,0,,4,,,64,127
127317,note_off,69,0,0,,4,,,64,127
127322,note_on,5,0,0,,6,,,66,127
127328,note_off,6,0,0,,2,,,50,127
127391,note_off,63,0,0,,6,,,66,127
127396,note_on,5,0,0,,7,,,67,127
127544,note_on,148,0,0,,2,,,50,127
127618,note_off,74,0,0,,7,,,67,127
127687,note_off,69,0,0,,2,,,50,127
127692,note_on,5,0,0,,12,,,47,127
127835,note_off,143,0,0,,12,,,47,127
127840,note_on,5,0,0,,7,,,55,127
127983,note_off,143,0,0,,7,,,55,127
127988,note_on,5,0,0,,2,,,50,127
128131,note_off,143,0,0,,2,,,50,127
128136,note_on,5,0,0,,12,,,59,127
128279,note_off,143,0,0,,12,,,59,127
128284,note_on,5,0,0,,7,,,55,127
128427,note_off,143,0,0,,7,,,55,127
128432,note_on,5,0,0,,2,,,62,127
128575,note_off,143,0,0,,2,,,62,127
128580,note_on,5,0,0,,12,,,59,127
128723,note_off,143,0,0,,12,,,59,127
128728,note_on,5,0,0,,7,,,67,127
128871,note_off,143,0,0,,7,,,67,127
128876,note_on,5,0,0,,2,,,62,127
129019,note_off,143,0,0,,2,,,62,127
129024,note_on,5,0,0,,12,,,59,127
129167,note_off,143,0,0,,12,,,59,127
129172,note_on,5,0,0,,4,,,64,127
129172,note_on,0,0,0,,0,,,60,127
129463,note_off,291,0,0,,0,,,60,127
129463,note_off,0,0,0,,4,,,64,127
129468,note_on,5,0,0,,7,,,67,127
129468,note_on,0,0,0,,2,,,62,127
129537,note_off,69,0,0,,7,,,67,127
129542,note_on,5,0,0,,6,,,66,127
129611,note_off,69,0,0,,6,,,66,127
129616,note_on,5,0,0,,7,,,67,127
129685,note_off,69,0,0,,7,,,67,127
129690,note_on,5,0,0,,6,,,66,127
129759,note_off,69,0,0,,6,,,66,127
129764,note_on,5,0,0,,7,,,67,127
129833,note_off,69,0,0,,7,,,67,127
129838,note_on,5,0,0,,6,,,66,127
129907,note_off,69,0,0,,6,,,66,127
129912,note_on,5,0,0,,4,,,64,127
129981,note_off,69,0,0,,4,,,64,127
129986,note_on,5,0,0,,6,,,66,127
130055,note_off,69,0,0,,6,,,66,127
130055,note_off,0,0,0,,2,,,62,127
130060,note_on,5,0,0,,7,,,67,127
130060,note_on,0,0,0,,7,,,55,127
130203,note_off,143,0,0,,7,,,67,127
130208,note_on,5,0,0,,2,,,62,127
130351,note_off,143,0,0,,2,,,62,127
130356,note_on,5,0,0,,3,,,63,127
130499,note_off,143,0,0,,3,,,63,127
130504,note_on,5,0,0,,4,,,64,127
130647,note_off,143,0,0,,4,,,64,127
130652,note_on,5,0,0,,5,,,65,127
130795,note_off,143,0,0,,5,,,65,127
130800,note_off,5,0,0,,7,,,55,127
130800,note_on,0,0,0,,6,,,66,127
130943,note_off,143,0,0,,6,,,66,127
130948,note_on,5,0,0,,7,,,67,127
130948,note_on,0,0,0,,0,,,60,127
131091,note_off,143,0,0,,7,,,67,127
131096,note_on,5,0,0,,10,,,69,127
131239,note_off,143,0,0,,10,,,69,127
131244,note_on,5,0,0,,11,,,70,127
131387,note_off,143,0,0,,11,,,70,127
131392,note_on,5,0,0,,12,,,71,127
131535,note_off,143,0,0,,12,,,71,127
131540,note_on,5,0,0,,0,,,72,127
131683,note_off,143,0,0,,0,,,72,127
131688,note_on,5,0,0,,1,,,73,127
131831,note_off,143,0,0,,1,,,73,127
131831,note_off,0,0,0,,0,,,60,127
131836,note_on,5,0,0,,2,,,74,127
131836,note_on,0,0,0,,12,,,59,127
131979,note_off,143,0,0,,2,,,74,127
131984,note_on,5,0,0,,0,,,72,127
132127,note_off,143,0,0,,0,,,72,127
132132,note_on,5,0,0,,12,,,71,127
132275,note_off,143,0,0,,12,,,71,127
132280,note_on,5,0,0,,10,,,69,127
132423,note_off,143,0,0,,10,,,69,127
132428,note_on,5,0,0,,7,,,67,127
132571,note_off,143,0,0,,7,,,67,127
132576,note_on,5,0,0,,12,,,71,127
132719,note_off,143,0,0,,12,,,71,127
132719,note_off,0,0,0,,12,,,59,127
132724,note_on,5,0,0,,10,,,69,127
132724,note_on,0,0,0,,0,,,60,127
132867,note_off,143,0,0,,10,,,69,127
132872,note_on,5,0,0,,0,,,72,127
133015,note_off,143,0,0,,0,,,72,127
133015,note_off,0,0,0,,0,,,60,127
133020,note_on,5,0,0,,12,,,71,127
133020,note_on,0,0,0,,2,,,62,127
133163,note_off,143,0,0,,12,,,71,127
133168,note_on,5,0,0,,10,,,69,127
133311,note_off,143,0,0,,10,,,69,127
133316,note_on,5,0,0,,7,,,67,127
133316,note_on,0,0,0,,2,,,50,127
133459,note_off,143,0,0,,7,,,67,127
133464,note_on,5,0,0,,6,,,66,127
133606,note_off,142,0,0,,2,,,62,127
133608,note_off,2,0,0,,6,,,66,127
133608,note_off,0,0,0,,2,,,50,127
133613,note_on,5,0,0,,7,,,67,127
133613,note_on,0,0,0,,7,,,55,127
133756,note_off,143,0,0,,7,,,67,127
133761,note_on,5,0,0,,2,,,74,127
133904,note_off,143,0,0,,2,,,74,127
133909,note_on,5,0,0,,3,,,75,127
134052,note_off,143,0,0,,3,,,75,127
134057,note_on,5,0,0,,4,,,76,127
134200,note_off,143,0,0,,4,,,76,127
134205,note_on,5,0,0,,5,,,77,127
134348,note_off,143,0,0,,5,,,77,127
134353,note_on,5,0,0,,6,,,78,127
134496,note_off,143,0,0,,6,,,78,127
134496,note_off,0,0,0,,7,,,55,127
134501,note_on,5,0,0,,7,,,79,127
134501,note_on,0,0,0,,0,,,60,127
134644,note_off,143,0,0,,7,,,79,127
134649,note_on,5,0,0,,10,,,81,127
134792,note_off,143,0,0,,10,,,81,127
134797,note_on,5,0,0,,11,,,82,127
134940,note_off,143,0,0,,11,,,82,127
134945,note_on,5,0,0,,12,,,83,127
135088,note_off,143,0,0,,12,,,83,127
135093,note_on,5,0,0,,0,,,84,127
135236,note_off,143,0,0,,0,,,84,127
135241,note_on,5,0,0,,1,,,85,127
135384,note_off,143,0,0,,1,,,85,127
135384,note_off,0,0,0,,0,,,60,127
135389,note_on,5,0,0,,2,,,86,127
135389,note_on,0,0,0,,12,,,59,127
135532,note_off,143,0,0,,2,,,86,127
135537,note_on,5,0,0,,0,,,84,127
135680,note_off,143,0,0,,0,,,84,127
135685,note_on,5,0,0,,12,,,83,127
135828,note_off,143,0,0,,12,,,83,127
135833,note_on,5,0,0,,10,,,81,127
135976,note_off,143,0,0,,10,,,81,127
135981,note_on,5,0,0,,7,,,79,127
136124,note_off,143,0,0,,7,,,79,127
136129,note_on,5,0,0,,12,,,83,127
136272,note_off,143,0,0,,12,,,83,127
136272,note_off,0,0,0,,12,,,59,127
136277,note_on,5,0,0,,10,,,81,127
136277,note_on,0,0,0,,0,,,60,127
136420,note_off,143,0,0,,10,,,81,127
136425,note_on,5,0,0,,0,,,84,127
136568,note_off,143,0,0,,0,,,84,127
136568,note_off,0,0,0,,0,,,60,127
136573,note_on,5,0,0,,12,,,83,127
136573,note_on,0,0,0,,2,,,62,127
136716,note_off,143,0,0,,12,,,83,127
136721,note_on,5,0,0,,10,,,81,127
136864,note_off,143,0,0,,10,,,81,127
136869,note_on,5,0,0,,7,,,79,127
136869,note_on,0,0,0,,2,,,50,127
137012,note_off,143,0,0,,7,,,79,127
137017,note_on,5,0,0,,6,,,78,127
137159,note_off,142,0,0,,2,,,62,127
137161,note_off,2,0,0,,6,,,78,127
137161,note_off,0,0,0,,2,,,50,127
137166,note_on,5,0,0,,7,,,79,127
137166,note_on,0,0,0,,7,,,55,127
137314,note_on,148,0,0,,7,,,67,127
137382,note_off,68,0,0,,7,,,79,127
137462,note_on,80,0,0,,7,,,79,127
137530,note_off,68,0,0,,7,,,67,127
137610,note_on,80,0,0,,7,,,67,127
137678,note_off,68,0,0,,7,,,79,127
137758,note_on,80,0,0,,7,,,79,127
137826,note_off,68,0,0,,7,,,67,127
137906,note_on,80,0,0,,7,,,67,127
137974,note_off,68,0,0,,7,,,79,127
138049,note_off,75,0,0,,7,,,55,127
138054,note_on,5,0,0,,7,,,79,127
138054,note_on,0,0,0,,7,,,55,127
138054,note_on,0,0,0,,5,,,65,127
138122,note_off,68,0,0,,7,,,67,127
138202,note_on,80,0,0,,7,,,67,127
138270,note_off,68,0,0,,7,,,79,127
138350,note_on,80,0,0,,7,,,79,127
138418,note_off,68,0,0,,7,,,67,127
138498,note_on,80,0,0,,7,,,67,127
138566,note_off,68,0,0,,7,,,79,127
138646,note_on,80,0,0,,7,,,79,127
138714,note_off,68,0,0,,7,,,67,127
138794,note_on,80,0,0,,7,,,67,127
138862,note_off,68,0,0,,7,,,79,127
138937,note_off,75,0,0,,5,,,65,127
138937,note_off,0,0,0,,7,,,55,127
138942,note_on,5,0,0,,7,,,79,127
138942,note_on,0,0,0,,7,,,55,127
138942,note_on,0,0,0,,3,,,63,127
139010,note_off,68,0,0,,7,,,67,127
139090,note_on,80,0,0,,7,,,67,127
139158,note_off,68,0,0,,7,,,79,127
139238,note_on,80,0,0,,7,,,79,127
139306,note_off,68,0,0,,7,,,67,127
139386,note_on,80,0,0,,7,,,67,127
139454,note_off,68,0,0,,7,,,79,127
139534,note_on,80,0,0,,7,,,79,127
139602,note_off,68,0,0,,7,,,67,127
139682,note_on,80,0,0,,7,,,67,127
139750,note_off,68,0,0,,7,,,79,127
139825,note_off,75,0,0,,3,,,63,127
139825,note_off,0,0,0,,7,,,55,127
139830,note_on,5,0,0,,7,,,79,127
139830,note_on,0,0,0,,7,,,55,127
139830,note_on,0,0,0,,0,,,60,127
139830,note_on,0,0,0,,3,,,63,127
139898,note_off,68,0,0,,7,,,67,127
139978,note_on,80,0,0,,7,,,67,127
140046,note_off,68,0,0,,7,,,79,127
140126,note_on,80,0,0,,7,,,79,127
140194,note_off,68,0,0,,7,,,67,127
140274,note_on,80,0,0,,7,,,67,127
140342,note_off,68,0,0,,7,,,79,127
140422,note_on,80,0,0,,7,,,79,127
140490,note_off,68,0,0,,7,,,67,127
140570,note_on,80,0,0,,7,,,67,127
140638,note_off,68,0,0,,7,,,79,127
140713,note_off,75,0,0,,3,,,63,127
140713,note_off,0,0,0,,0,,,60,127
140713,note_off,0,0,0,,7,,,55,127
140718,note_on,5,0,0,,7,,,79,127
140718,note_on,0,0,0,,5,,,53,127
140718,note_on,0,0,0,,3,,,63,127
140718,note_on,0,0,0,,0,,,60,127
140786,note_off,68,0,0,,7,,,67,127
140866,note_on,80,0,0,,8,,,68,127
140934,note_off,68,0,0,,7,,,79,127
141014,note_on,80,0,0,,7,,,79,127
141082,note_off,68,0,0,,8,,,68,127
141162,note_on,80,0,0,,8,,,68,127
141230,note_off,68,0,0,,7,,,79,127
141310,note_on,80,0,0,,7,,,79,127
141378,note_off,68,0,0,,8,,,68,127
141458,note_on,80,0,0,,8,,,68,127
141526,note_off,68,0,0,,7,,,79,127
141601,note_off,75,0,0,,0,,,60,127
141601,note_off,0,0,0,,3,,,63,127
141601,note_off,0,0,0,,5,,,53,127
141606,note_on,5,0,0,,5,,,77,127
141606,note_on,0,0,0,,5,,,53,127
141606,note_on,0,0,0,,2,,,62,127
141606,note_on,0,0,0,,5,,,65,127
141674,note_off,68,0,0,,8,,,68,127
141754,note_on,80,0,0,,8,,,68,127
141822,note_off,68,0,0,,5,,,77,127
141902,note_on,80,0,0,,5,,,77,127
141970,note_off,68,0,0,,8,,,68,127
142050,note_on,80,0,0,,8,,,68,127
142118,note_off,68,0,0,,5,,,77,127
142198,note_on,80,0,0,,5,,,77,127
142266,note_off,68,0,0,,8,,,68,127
142346,note_on,80,0,0,,8,,,68,127
142414,note_off,68,0,0,,5,,,77,127
142489,note_off,75,0,0,,5,,,65,127
142489,note_off,0,0,0,,2,,,62,127
142489,note_off,0,0,0,,5,,,53,127
142494,note_on,5,0,0,,5,,,77,127
142494,note_on,0,0,0,,5,,,53,127
142494,note_on,0,0,0,,2,,,62,127
142494,note_on,0,0,0,,0,,,60,127
142494,note_on,0,0,0,,5,,,65,127
142562,note_off,68,0,0,,8,,,68,127
142642,note_on,80,0,0,,8,,,68,127
142710,note_off,68,0,0,,5,,,77,127
142790,note_on,80,0,0,,7,,,79,127
142858,note_off,68,0,0,,8,,,68,127
142938,note_on,80,0,0,,12,,,71,127
143006,note_off,68,0,0,,7,,,79,127
143086,note_on,80,0,0,,8,,,80,127
143154,note_off,68,0,0,,12,,,71,127
143234,note_on,80,0,0,,0,,,72,127
143302,note_off,68,0,0,,8,,,80,127
143377,note_off,75,0,0,,5,,,65,127
143377,note_off,0,0,0,,0,,,60,127
143377,note_off,0,0,0,,2,,,62,127
143377,note_off,0,0,0,,5,,,53,127
143382,note_on,5,0,0,,7,,,79,127
143382,note_on,0,0,0,,5,,,53,127
143382,note_on,0,0,0,,12,,,59,127
143382,note_on,0,0,0,,2,,,62,127
143450,note_off,68,0,0,,0,,,72,127
143530,note_on,80,0,0,,7,,,67,127
143602,note_off,72,0,0,,7,,,79,127
143677,note_on,75,0,0,,12,,,71,127
143749,note_off,72,0,0,,7,,,67,127
143824,note_on,75,0,0,,7,,,67,127
143896,note_off,72,0,0,,12,,,71,127
143971,note_on,75,0,0,,2,,,74,127
144043,note_off,72,0,0,,7,,,67,127
144118,note_on,75,0,0,,7,,,67,127
144190,note_off,72,0,0,,2,,,74,127
144261,note_off,71,0,0,,2,,,62,127
144261,note_off,0,0,0,,12,,,59,127
144261,note_off,0,0,0,,5,,,53,127
144266,note_on,5,0,0,,7,,,79,127
144266,note_on,0,0,0,,5,,,53,127
144266,note_on,0,0,0,,2,,,62,127
144266,note_on,0,0,0,,12,,,59,127
144338,note_off,72,0,0,,7,,,67,127
144413,note_on,75,0,0,,7,,,67,127
144485,note_off,72,0,0,,7,,,79,127
144560,note_on,75,0,0,,12,,,71,127
144632,note_off,72,0,0,,7,,,67,127
144707,note_on,75,0,0,,7,,,67,127
144779,note_off,72,0,0,,12,,,71,127
144854,note_on,75,0,0,,2,,,74,127
144926,note_off,72,0,0,,7,,,67,127
145001,note_on,75,0,0,,7,,,67,127
145073,note_off,72,0,0,,2,,,74,127
145144,note_off,71,0,0,,12,,,59,127
145144,note_off,0,0,0,,2,,,62,127
145144,note_off,0,0,0,,5,,,53,127
145149,note_on,5,0,0,,7,,,79,127
145149,note_on,0,0,0,,7,,,55,127
145149,note_on,0,0,0,,3,,,51,127
145149,note_on,0,0,0,,2,,,62,127
145221,note_off,72,0,0,,7,,,67,127
145296,note_on,75,0,0,,7,,,67,127
145368,note_off,72,0,0,,7,,,79,127
145443,note_on,75,0,0,,0,,,72,127
145515,note_off,72,0,0,,7,,,67,127
145590,note_on,75,0,0,,7,,,67,127
145662,note_off,72,0,0,,0,,,72,127
145737,note_on,75,0,0,,3,,,75,127
145809,note_off,72,0,0,,7,,,67,127
145884,note_on,75,0,0,,0,,,72,127
145956,note_off,72,0,0,,3,,,75,127
146027,note_off,71,0,0,,2,,,62,127
146027,note_off,0,0,0,,3,,,51,127
146027,note_off,0,0,0,,7,,,55,127
146032,note_on,5,0,0,,7,,,79,127
146032,note_on,0,0,0,,3,,,51,127
146032,note_on,0,0,0,,0,,,60,127
146032,note_on,0,0,0,,7,,,55,127
146104,note_off,72,0,0,,0,,,72,127
146179,note_on,75,0,0,,7,,,67,127
146251,note_off,72,0,0,,7,,,79,127
146326,note_on,75,0,0,,0,,,72,127
146398,note_off,72,0,0,,7,,,67,127
146473,note_on,75,0,0,,7,,,67,127
146545,note_off,72,0,0,,0,,,72,127
146620,note_on,75,0,0,,3,,,75,127
146692,note_off,72,0,0,,7,,,67,127
146767,note_on,75,0,0,,0,,,72,127
146839,note_off,72,0,0,,3,,,75,127
146910,note_off,71,0,0,,7,,,55,127
146910,note_off,0,0,0,,0,,,60,127
146910,note_off,0,0,0,,3,,,51,127
146915,note_on,5,0,0,,7,,,79,127
146915,note_on,0,0,0,,1,,,49,127
146915,note_on,0,0,0,,0,,,60,127
146915,note_on,0,0,0,,5,,,53,127
146987,note_off,72,0,0,,0,,,72,127
147062,note_on,75,0,0,,0,,,72,127
147134,note_off,72,0,0,,7,,,79,127
147209,note_on,75,0,0,,8,,,80,127
147281,note_off,72,0,0,,0,,,72,127
147356,note_on,75,0,0,,0,,,72,127
147428,note_off,72,0,0,,8,,,80,127
147503,note_on,75,0,0,,7,,,79,127
147575,note_off,72,0,0,,0,,,72,127
147650,note_on,75,0,0,,0,,,72,127
147722,note_off,72,0,0,,7,,,79,127
147793,note_off,71,0,0,,5,,,53,127
147793,note_off,0,0,0,,0,,,60,127
147793,note_off,0,0,0,,1,,,49,127
147798,note_on,5,0,0,,5,,,77,127
147798,note_on,0,0,0,,1,,,49,127
147798,note_on,0,0,0,,11,,,58,127
147798,note_on,0,0,0,,5,,,53,127
147870,note_off,72,0,0,,0,,,72,127
147945,note_on,75,0,0,,0,,,72,127
148017,note_off,72,0,0,,5,,,77,127
148092,note_on,75,0,0,,4,,,76,127
148164,note_off,72,0,0,,0,,,72,127
148239,note_on,75,0,0,,1,,,73,127
148311,note_off,72,0,0,,4,,,76,127
148386,note_on,75,0,0,,5,,,77,127
148458,note_off,72,0,0,,1,,,73,127
148533,note_on,75,0,0,,0,,,72,127
148605,note_off,72,0,0,,5,,,77,127
148676,note_off,71,0,0,,5,,,53,127
148676,note_off,0,0,0,,11,,,58,127
148676,note_off,0,0,0,,1,,,49,127
148681,note_on,5,0,0,,4,,,76,127
148681,note_on,0,0,0,,11,,,58,127
148681,note_on,0,0,0,,5,,,53,127
148681,note_on,0,0,0,,1,,,49,127
148753,note_off,72,0,0,,0,,,72,127
148828,note_on,75,0,0,,1,,,73,127
148900,note_off,72,0,0,,4,,,76,127
148975,note_on,75,0,0,,5,,,77,127
149047,note_off,72,0,0,,1,,,73,127
149122,note_on,75,0,0,,0,,,72,127
149194,note_off,72,0,0,,5,,,77,127
149269,note_on,75,0,0,,4,,,76,127
149341,note_off,72,0,0,,0,,,72,127
149416,note_on,75,0,0,,1,,,73,127
149488,note_off,72,0,0,,4,,,76,127
149559,note_off,71,0,0,,1,,,49,127
149559,note_off,0,0,0,,5,,,53,127
149559,note_off,0,0,0,,11,,,58,127
149564,note_on,5,0,0,,5,,,77,127
149564,note_on,0,0,0,,3,,,51,127
149564,note_on,0,0,0,,0,,,48,127
149564,note_on,0,0,0,,11,,,58,127
149636,note_off,72,0,0,,1,,,73,127
149711,note_on,75,0,0,,0,,,72,127
149783,note_off,72,0,0,,5,,,77,127
149858,note_on,75,0,0,,6,,,78,127
149930,note_off,72,0,0,,0,,,72,127
150005,note_on,75,0,0,,0,,,72,127
150077,note_off,72,0,0,,6,,,78,127
150152,note_on,75,0,0,,5,,,77,127
150224,note_off,72,0,0,,0,,,72,127
150299,note_on,75,0,0,,0,,,72,127
150371,note_off,72,0,0,,5,,,77,127
150442,note_off,71,0,0,,11,,,58,127
150442,note_off,0,0,0,,0,,,48,127
150442,note_off,0,0,0,,3,,,51,127
150447,note_on,5,0,0,,3,,,75,127
150447,note_on,0,0,0,,3,,,51,127
150447,note_on,0,0,0,,0,,,48,127
150447,note_on,0,0,0,,8,,,56,127
150519,note_off,72,0,0,,0,,,72,127
150594,note_on,75,0,0,,0,,,72,127
150666,note_off,72,0,0,,3,,,75,127
150741,note_on,75,0,0,,6,,,78,127
150813,note_off,72,0,0,,0,,,72,127
150888,note_on,75,0,0,,0,,,72,127
150960,note_off,72,0,0,,6,,,78,127
151035,note_on,75,0,0,,10,,,81,127
151107,note_off,72,0,0,,0,,,72,127
151182,note_on,75,0,0,,0,,,72,127
151254,note_off,72,0,0,,10,,,81,127
151325,note_off,71,0,0,,8,,,56,127
151325,note_off,0,0,0,,0,,,48,127
151325,note_off,0,0,0,,3,,,51,127
151330,note_on,5,0,0,,0,,,84,127
151330,note_on,0,0,0,,0,,,48,127
151330,note_on,0,0,0,,3,,,51,127
151330,note_on,0,0,0,,10,,,57,127
151330,note_on,0,0,0,,6,,,54,127
151402,note_off,72,0,0,,0,,,72,127
151477,note_on,75,0,0,,0,,,72,127
151549,note_off,72,0,0,,0,,,84,127
151624,note_on,75,0,0,,3,,,75,127
151696,note_off,72,0,0,,0,,,72,127
151771,note_on,75,0,0,,0,,,72,127
151843,note_off,72,0,0,,3,,,75,127
151918,note_on,75,0,0,,6,,,78,127
151990,note_off,72,0,0,,0,,,72,127
152065,note_on,75,0,0,,0,,,72,127
152137,note_off,72,0,0,,6,,,78,127
152208,note_off,71,0,0,,6,,,54,127
152208,note_off,0,0,0,,10,,,57,127
152208,note_off,0,0,0,,3,,,51,127
152208,note_off,0,0,0,,0,,,48,127
152213,note_on,5,0,0,,0,,,84,127
152213,note_on,0,0,0,,6,,,54,127
152213,note_on,0,0,0,,3,,,51,127
152213,note_on,0,0,0,,0,,,48,127
152213,note_on,0,0,0,,10,,,57,127
152213,note_on,0,0,0,,0,,,60,127
152285,note_off,72,0,0,,0,,,72,127
152360,note_on,75,0,0,,0,,,72,127
152432,note_off,72,0,0,,0,,,84,127
152507,note_on,75,0,0,,3,,,75,127
152579,note_off,72,0,0,,0,,,72,127
152654,note_on,75,0,0,,0,,,72,127
152726,note_off,72,0,0,,3,,,75,127
152801,note_on,75,0,0,,6,,,78,127
152873,note_off,72,0,0,,0,,,72,127
152948,note_on,75,0,0,,0,,,72,127
153020,note_off,72,0,0,,6,,,78,127
153091,note_off,71,0,0,,0,,,60,127
153091,note_off,0,0,0,,10,,,57,127
153091,note_off,0,0,0,,0,,,48,127
153091,note_off,0,0,0,,3,,,51,127
153091,note_off,0,0,0,,6,,,54,127
153096,note_on,5,0,0,,0,,,84,127
153096,note_on,0,0,0,,6,,,54,127
153096,note_on,0,0,0,,2,,,50,127
153096,note_on,0,0,0,,10,,,57,127
153096,note_on,0,0,0,,0,,,60,127
153168,note_off,72,0,0,,0,,,72,127
153243,note_on,75,0,0,,2,,,74,127
153315,note_off,72,0,0,,0,,,84,127
153390,note_on,75,0,0,,6,,,78,127
153462,note_off,72,0,0,,2,,,74,127
153537,note_on,75,0,0,,2,,,74,127
153609,note_off,72,0,0,,6,,,78,127
153684,note_on,75,0,0,,10,,,81,127
153756,note_off,72,0,0,,2,,,74,127
153831,note_on,75,0,0,,2,,,74,127
153903,note_off,72,0,0,,10,,,81,127
153974,note_off,71,0,0,,0,,,60,127
153974,note_off,0,0,0,,10,,,57,127
153974,note_off,0,0,0,,2,,,50,127
153974,note_off,0,0,0,,6,,,54,127
153979,note_on,5,0,0,,0,,,84,127
153979,note_on,0,0,0,,6,,,54,127
153979,note_on,0,0,0,,2,,,50,127
153979,note_on,0,0,0,,10,,,57,127
153979,note_on,0,0,0,,0,,,60,127
154051,note_off,72,0,0,,2,,,74,127
154126,note_on,75,0,0,,2,,,74,127
154198,note_off,72,0,0,,0,,,84,127
154273,note_on,75,0,0,,6,,,78,127
154345,note_off,72,0,0,,2,,,74,127
154420,note_on,75,0,0,,2,,,74,127
154492,note_off,72,0,0,,6,,,78,127
154567,note_on,75,0,0,,10,,,81,127
154639,note_off,72,0,0,,2,,,74,127
154714,note_on,75,0,0,,2,,,74,127
154786,note_off,72,0,0,,10,,,81,127
154857,note_off,71,0,0,,0,,,60,127
154857,note_off,0,0,0,,10,,,57,127
154857,note_off,0,0,0,,2,,,50,127
154857,note_off,0,0,0,,6,,,54,127
154862,note_on,5,0,0,,11,,,82,127
154862,note_on,0,0,0,,7,,,55,127
154862,note_on,0,0,0,,2,,,50,127
154862,note_on,0,0,0,,11,,,58,127
154934,note_off,72,0,0,,2,,,74,127
155009,note_on,75,0,0,,2,,,74,127
155081,note_off,72,0,0,,11,,,82,127
155156,note_on,75,0,0,,7,,,79,127
155228,note_off,72,0,0,,2,,,74,127
155303,note_on,75,0,0,,2,,,74,127
155375,note_off,72,0,0,,7,,,79,127
155450,note_on,75,0,0,,1,,,85,127
155522,note_off,72,0,0,,2,,,74,127
155597,note_on,75,0,0,,4,,,76,127
155669,note_off,72,0,0,,1,,,85,127
155740,note_off,71,0,0,,11,,,58,127
155740,note_off,0,0,0,,2,,,50,127
155740,note_off,0,0,0,,7,,,55,127
155745,note_on,5,0,0,,2,,,86,127
155745,note_on,0,0,0,,2,,,50,127
155745,note_on,0,0,0,,2,,,62,127
155745,note_on,0,0,0,,0,,,60,127
155745,note_on,0,0,0,,10,,,57,127
155817,note_off,72,0,0,,4,,,76,127
155892,note_on,75,0,0,,2,,,74,127
155964,note_off,72,0,0,,2,,,86,127
156039,note_on,75,0,0,,10,,,81,127
156111,note_off,72,0,0,,2,,,74,127
156186,note_on,75,0,0,,2,,,74,127
156258,note_off,72,0,0,,10,,,81,127
156333,note_on,75,0,0,,0,,,84,127
156405,note_off,72,0,0,,2,,,74,127
156480,note_on,75,0,0,,2,,,74,127
156552,note_off,72,0,0,,0,,,84,127
156623,note_off,71,0,0,,10,,,57,127
156623,note_off,0,0,0,,0,,,60,127
156623,note_off,0,0,0,,2,,,62,127
156623,note_off,0,0,0,,2,,,50,127
156628,note_on,5,0,0,,11,,,82,127
156628,note_on,0,0,0,,2,,,50,127
156628,note_on,0,0,0,,11,,,58,127
156628,note_on,0,0,0,,7,,,55,127
156700,note_off,72,0,0,,2,,,74,127
156775,note_on,75,0,0,,2,,,74,127
156847,note_off,72,0,0,,11,,,82,127
156922,note_on,75,0,0,,7,,,79,127
156994,note_off,72,0,0,,2,,,74,127
157069,note_on,75,0,0,,2,,,74,127
157141,note_off,72,0,0,,7,,,79,127
157216,note_on,75,0,0,,1,,,85,127
157288,note_off,72,0,0,,2,,,74,127
157363,note_on,75,0,0,,2,,,74,127
157435,note_off,72,0,0,,1,,,85,127
157506,note_off,71,0,0,,7,,,55,127
157506,note_off,0,0,0,,11,,,58,127
157506,note_off,0,0,0,,2,,,50,127
157511,note_on,5,0,0,,2,,,86,127
157511,note_on,0,0,0,,2,,,50,127
157583,note_off,72,0,0,,2,,,74,127
157658,note_on,75,0,0,,10,,,81,127
157730,note_off,72,0,0,,2,,,86,127
157801,note_off,71,0,0,,10,,,81,127
157806,note_on,5,0,0,,6,,,78,127
157949,note_off,143,0,0,,6,,,78,127
157954,note_on,5,0,0,,2,,,74,127
158097,note_off,143,0,0,,2,,,74,127
158102,note_on,5,0,0,,10,,,69,127
158245,note_off,143,0,0,,10,,,69,127
158250,note_on,5,0,0,,6,,,66,127
158393,note_off,143,0,0,,2,,,50,127
158398,note_off,5,0,0,,6,,,66,127
158398,note_on,0,0,0,,2,,,50,127
158398,note_on,0,0,0,,2,,,62,127
158541,note_off,143,0,0,,2,,,62,127
158541,note_off,0,0,0,,2,,,50,127
158546,note_on,5,0,0,,10,,,57,127
158689,note_off,143,0,0,,10,,,57,127
158694,note_on,5,0,0,,6,,,54,127
158837,note_off,143,0,0,,6,,,54,127
158842,note_on,5,0,0,,2,,,50,127
158985,note_off,143,0,0,,2,,,50,127
158990,note_on,5,0,0,,10,,,45,127
159133,note_off,143,0,0,,10,,,45,127
159141,note_on,8,0,0,,6,,,42,127
159284,note_off,143,0,0,,6,,,42,127
159298,note_on,14,0,0,,2,,,38,127
160221,note_off,923,0,0,,2,,,38,127
160319,note_on,98,0,0,,12,,,47,127
160462,note_off,143,0,0,,12,,,47,127
160467,note_on,5,0,0,,0,,,48,127
160610,note_off,143,0,0,,0,,,48,127
160615,note_on,5,0,0,,1,,,49,127
160758,note_off,143,0,0,,1,,,49,127
160763,note_on,5,0,0,,2,,,50,127
160906,note_off,143,0,0,,2,,,50,127
160911,note_on,5,0,0,,3,,,51,127
161054,note_off,143,0,0,,3,,,51,127
161059,note_on,5,0,0,,4,,,52,127
161202,note_off,143,0,0,,4,,,52,127
161207,note_on,5,0,0,,6,,,54,127
161350,note_off,143,0,0,,6,,,54,127
161355,note_on,5,0,0,,7,,,55,127
161503,note_on,148,0,0,,12,,,59,127
161646,note_off,143,0,0,,12,,,59,127
161651,note_on,5,0,0,,0,,,60,127
161794,note_off,143,0,0,,0,,,60,127
161799,note_on,5,0,0,,1,,,61,127
161942,note_off,143,0,0,,1,,,61,127
161947,note_on,5,0,0,,2,,,62,127
162090,note_off,143,0,0,,2,,,62,127
162095,note_on,5,0,0,,3,,,63,127
162238,note_off,143,0,0,,3,,,63,127
162238,note_off,0,0,0,,7,,,55,127
162243,note_on,5,0,0,,4,,,64,127
162243,note_on,0,0,0,,0,,,48,127
162386,note_off,143,0,0,,4,,,64,127
162391,note_on,5,0,0,,6,,,66,127
162534,note_off,143,0,0,,6,,,66,127
162539,note_on,5,0,0,,7,,,67,127
162682,note_off,143,0,0,,7,,,67,127
162687,note_on,5,0,0,,12,,,71,127
162830,note_off,143,0,0,,12,,,71,127
162835,note_on,5,0,0,,0,,,72,127
162978,note_off,143,0,0,,0,,,72,127
162983,note_on,5,0,0,,1,,,73,127
163126,note_off,143,0,0,,1,,,73,127
163126,note_off,0,0,0,,0,,,48,127
163131,note_on,5,0,0,,2,,,74,127
163131,note_on,0,0,0,,12,,,47,127
163274,note_off,143,0,0,,2,,,74,127
163279,note_on,5,0,0,,3,,,75,127
163422,note_off,143,0,0,,3,,,75,127
163427,note_on,5,0,0,,4,,,76,127
163570,note_off,143,0,0,,4,,,76,127
163575,note_on,5,0,0,,6,,,78,127
163718,note_off,143,0,0,,6,,,78,127
163723,note_on,5,0,0,,7,,,79,127
163871,note_on,148,0,0,,7,,,67,127
164014,note_off,143,0,0,,12,,,47,127
164016,note_off,2,0,0,,7,,,79,127
164019,note_on,3,0,0,,0,,,48,127
164091,note_off,72,0,0,,7,,,67,127
164093,note_on,2,0,0,,10,,,69,127
164162,note_off,69,0,0,,10,,,69,127
164167,note_on,5,0,0,,12,,,71,127
164236,note_off,69,0,0,,12,,,71,127
164241,note_on,5,0,0,,10,,,69,127
164310,note_off,69,0,0,,10,,,69,127
164310,note_off,0,0,0,,0,,,48,127
164315,note_on,5,0,0,,12,,,71,127
164315,note_on,0,0,0,,2,,,50,127
164384,note_off,69,0,0,,12,,,71,127
164389,note_on,5,0,0,,10,,,69,127
164458,note_off,69,0,0,,10,,,69,127
164463,note_on,5,0,0,,12,,,71,127
164532,note_off,69,0,0,,12,,,71,127
164537,note_on,5,0,0,,10,,,69,127
164606,note_off,69,0,0,,10,,,69,127
164611,note_on,5,0,0,,12,,,71,127
164611,note_on,0,0,0,,2,,,38,127
164680,note_off,69,0,0,,12,,,71,127
164685,note_on,5,0,0,,10,,,69,127
164754,note_off,69,0,0,,10,,,69,127
164759,note_on,5,0,0,,7,,,67,127
164828,note_off,69,0,0,,7,,,67,127
164833,note_on,5,0,0,,6,,,66,127
164901,note_off,68,0,0,,2,,,50,127
164903,note_off,2,0,0,,6,,,66,127
164905,note_off,2,0,0,,2,,,38,127
164908,note_on,3,0,0,,7,,,67,127
165056,note_on,148,0,0,,12,,,47,127
165199,note_off,143,0,0,,12,,,47,127
165204,note_off,5,0,0,,7,,,67,127
165204,note_on,0,0,0,,0,,,48,127
165347,note_off,143,0,0,,0,,,48,127
165352,note_on,5,0,0,,2,,,50,127
165495,note_off,143,0,0,,2,,,50,127
165500,note_on,5,0,0,,4,,,52,127
165643,note_off,143,0,0,,4,,,52,127
165648,note_on,5,0,0,,6,,,54,127
165791,note_off,143,0,0,,6,,,54,127
165796,note_on,5,0,0,,7,,,55,127
165944,note_on,148,0,0,,12,,,59,127
166087,note_off,143,0,0,,12,,,59,127
166092,note_on,5,0,0,,0,,,60,127
166235,note_off,143,0,0,,0,,,60,127
166240,note_on,5,0,0,,1,,,61,127
166383,note_off,143,0,0,,1,,,61,127
166388,note_on,5,0,0,,2,,,62,127
166531,note_off,143,0,0,,2,,,62,127
166536,note_on,5,0,0,,3,,,63,127
166679,note_off,143,0,0,,3,,,63,127
166679,note_off,0,0,0,,7,,,55,127
166684,note_on,5,0,0,,4,,,64,127
166684,note_on,0,0,0,,0,,,48,127
166827,note_off,143,0,0,,4,,,64,127
166832,note_on,5,0,0,,6,,,66,127
166975,note_off,143,0,0,,6,,,66,127
166980,note_on,5,0,0,,7,,,67,127
167123,note_off,143,0,0,,7,,,67,127
167128,note_on,5,0,0,,12,,,71,127
167271,note_off,143,0,0,,12,,,71,127
167276,note_on,5,0,0,,0,,,72,127
167419,note_off,143,0,0,,0,,,72,127
167424,note_on,5,0,0,,1,,,73,127
167567,note_off,143,0,0,,1,,,73,127
167567,note_off,0,0,0,,0,,,48,127
167572,note_on,5,0,0,,2,,,74,127
167572,note_on,0,0,0,,12,,,47,127
167715,note_off,143,0,0,,2,,,74,127
167720,note_on,5,0,0,,3,,,75,127
167863,note_off,143,0,0,,3,,,75,127
167868,note_on,5,0,0,,4,,,76,127
168011,note_off,143,0,0,,4,,,76,127
168016,note_on,5,0,0,,6,,,78,127
168159,note_off,143,0,0,,6,,,78,127
168164,note_on,5,0,0,,7,,,79,127
168312,note_on,148,0,0,,7,,,67,127
168455,note_off,143,0,0,,12,,,47,127
168457,note_off,2,0,0,,7,,,79,127
168460,note_on,3,0,0,,0,,,48,127
168532,note_off,72,0,0,,7,,,67,127
168534,note_on,2,0,0,,10,,,69,127
168603,note_off,69,0,0,,10,,,69,127
168608,note_on,5,0,0,,12,,,71,127
168677,note_off,69,0,0,,12,,,71,127
168682,note_on,5,0,0,,10,,,69,127
168751,note_off,69,0,0,,10,,,69,127
168751,note_off,0,0,0,,0,,,48,127
168756,note_on,5,0,0,,12,,,71,127
168756,note_on,0,0,0,,2,,,50,127
168825,note_off,69,0,0,,12,,,71,127
168830,note_on,5,0,0,,10,,,69,127
168899,note_off,69,0,0,,10,,,69,127
168904,note_on,5,0,0,,12,,,71,127
168973,note_off,69,0,0,,12,,,71,127
168978,note_on,5,0,0,,10,,,69,127
169047,note_off,69,0,0,,10,,,69,127
169052,note_on,5,0,0,,12,,,71,127
169052,note_on,0,0,0,,2,,,38,127
169121,note_off,69,0,0,,12,,,71,127
169126,note_on,5,0,0,,10,,,69,127
169195,note_off,69,0,0,,10,,,69,127
169200,note_on,5,0,0,,7,,,67,127
169269,note_off,69,0,0,,7,,,67,127
169274,note_on,5,0,0,,6,,,66,127
169342,note_off,68,0,0,,2,,,50,127
169344,note_off,2,0,0,,6,,,66,127
169344,note_off,0,0,0,,2,,,38,127
169349,note_on,5,0,0,,7,,,67,127
169349,note_on,0,0,0,,12,,,59,127
169349,note_on,0,0,0,,7,,,55,127
169349,note_on,0,0,0,,2,,,62,127
169492,note_off,143,0,0,,7,,,67,127
169497,note_on,5,0,0,,2,,,74,127
169640,note_off,143,0,0,,2,,,74,127
169645,note_on,5,0,0,,0,,,72,127
169788,note_off,143,0,0,,0,,,72,127
169793,note_on,5,0,0,,12,,,71,127
169936,note_off,143,0,0,,12,,,71,127
169941,note_on,5,0,0,,0,,,72,127
170084,note_off,143,0,0,,0,,,72,127
170089,note_on,5,0,0,,2,,,74,127
170232,note_off,143,0,0,,2,,,74,127
170232,note_off,0,0,0,,2,,,62,127
170232,note_off,0,0,0,,7,,,55,127
170232,note_off,0,0,0,,12,,,59,127
170237,note_on,5,0,0,,3,,,75,127
170237,note_on,0,0,0,,7,,,55,127
170237,note_on,0,0,0,,0,,,60,127
170237,note_on,0,0,0,,4,,,64,127
170380,note_off,143,0,0,,3,,,75,127
170385,note_on,5,0,0,,4,,,76,127
170528,note_off,143,0,0,,4,,,76,127
170533,note_on,5,0,0,,2,,,74,127
170676,note_off,143,0,0,,2,,,74,127
170681,note_on,5,0,0,,0,,,72,127
170824,note_off,143,0,0,,0,,,72,127
170829,note_on,5,0,0,,12,,,71,127
170972,note_off,143,0,0,,12,,,71,127
170977,note_on,5,0,0,,0,,,72,127
171120,note_off,143,0,0,,0,,,72,127
171120,note_off,0,0,0,,4,,,64,127
171120,note_off,0,0,0,,0,,,60,127
171120,note_off,0,0,0,,7,,,55,127
171125,note_on,5,0,0,,1,,,73,127
171125,note_on,0,0,0,,7,,,55,127
171125,note_on,0,0,0,,12,,,59,127
171125,note_on,0,0,0,,2,,,62,127
171268,note_off,143,0,0,,1,,,73,127
171273,note_on,5,0,0,,2,,,74,127
171416,note_off,143,0,0,,2,,,74,127
171421,note_on,5,0,0,,0,,,72,127
171564,note_off,143,0,0,,0,,,72,127
171569,note_on,5,0,0,,12,,,71,127
171712,note_off,143,0,0,,12,,,71,127
171717,note_on,5,0,0,,10,,,69,127
171860,note_off,143,0,0,,10,,,69,127
171865,note_on,5,0,0,,7,,,67,127
172008,note_off,143,0,0,,7,,,67,127
172008,note_off,0,0,0,,2,,,62,127
172008,note_off,0,0,0,,12,,,59,127
172008,note_off,0,0,0,,7,,,55,127
172013,note_on,5,0,0,,10,,,69,127
172013,note_on,0,0,0,,0,,,48,127
172013,note_on,0,0,0,,0,,,60,127
172156,note_off,143,0,0,,10,,,69,127
172161,note_on,5,0,0,,4,,,64,127
172304,note_off,143,0,0,,4,,,64,127
172304,note_off,0,0,0,,0,,,60,127
172304,note_off,0,0,0,,0,,,48,127
172309,note_on,5,0,0,,7,,,67,127
172309,note_on,0,0,0,,2,,,50,127
172309,note_on,0,0,0,,10,,,57,127
172309,note_on,0,0,0,,0,,,60,127
172378,note_off,69,0,0,,7,,,67,127
172383,note_on,5,0,0,,6,,,66,127
172452,note_off,69,0,0,,6,,,66,127
172457,note_on,5,0,0,,7,,,67,127
172526,note_off,69,0,0,,7,,,67,127
172531,note_on,5,0,0,,6,,,66,127
172600,note_off,69,0,0,,6,,,66,127
172605,note_on,5,0,0,,7,,,67,127
172674,note_off,69,0,0,,7,,,67,127
172679,note_on,5,0,0,,6,,,66,127
172748,note_off,69,0,0,,6,,,66,127
172753,note_on,5,0,0,,4,,,64,127
172822,note_off,69,0,0,,4,,,64,127
172827,note_on,5,0,0,,6,,,66,127
172896,note_off,69,0,0,,6,,,66,127
172896,note_off,0,0,0,,0,,,60,127
172896,note_off,0,0,0,,10,,,57,127
172896,note_off,0,0,0,,2,,,50,127
172901,note_on,5,0,0,,7,,,67,127
172901,note_on,0,0,0,,7,,,55,127
173044,note_off,143,0,0,,7,,,67,127
173049,note_on,5,0,0,,12,,,71,127
173049,note_on,0,0,0,,2,,,62,127
173192,note_off,143,0,0,,2,,,62,127
173192,note_off,0,0,0,,12,,,71,127
173197,note_on,5,0,0,,10,,,69,127
173197,note_on,0,0,0,,0,,,60,127
173340,note_off,143,0,0,,0,,,60,127
173340,note_off,0,0,0,,10,,,69,127
173345,note_on,5,0,0,,7,,,67,127
173345,note_on,0,0,0,,12,,,59,127
173488,note_off,143,0,0,,12,,,59,127
173488,note_off,0,0,0,,7,,,67,127
173493,note_on,5,0,0,,10,,,69,127
173493,note_on,0,0,0,,0,,,60,127
173636,note_off,143,0,0,,0,,,60,127
173636,note_off,0,0,0,,10,,,69,127
173641,note_on,5,0,0,,12,,,71,127
173641,note_on,0,0,0,,2,,,62,127
173784,note_off,143,0,0,,2,,,62,127
173784,note_off,0,0,0,,12,,,71,127
173789,note_off,5,0,0,,7,,,55,127
173789,note_on,0,0,0,,0,,,72,127
173789,note_on,0,0,0,,4,,,64,127
173789,note_on,0,0,0,,7,,,55,127
173932,note_off,143,0,0,,4,,,64,127
173932,note_off,0,0,0,,0,,,72,127
173937,note_on,5,0,0,,0,,,72,127
173937,note_on,0,0,0,,4,,,64,127
174080,note_off,143,0,0,,4,,,64,127
174080,note_off,0,0,0,,0,,,72,127
174085,note_on,5,0,0,,12,,,71,127
174085,note_on,0,0,0,,2,,,62,127
174228,note_off,143,0,0,,2,,,62,127
174228,note_off,0,0,0,,12,,,71,127
174233,note_on,5,0,0,,10,,,69,127
174233,note_on,0,0,0,,0,,,60,127
174376,note_off,143,0,0,,0,,,60,127
174376,note_off,0,0,0,,10,,,69,127
174381,note_on,5,0,0,,7,,,67,127
174381,note_on,0,0,0,,12,,,59,127
174524,note_off,143,0,0,,12,,,59,127
174524,note_off,0,0,0,,7,,,67,127
174529,note_on,5,0,0,,10,,,69,127
174529,note_on,0,0,0,,0,,,60,127
174672,note_off,143,0,0,,0,,,60,127
174672,note_off,0,0,0,,10,,,69,127
174677,note_off,5,0,0,,7,,,55,127
174677,note_on,0,0,0,,12,,,71,127
174677,note_on,0,0,0,,2,,,62,127
174677,note_on,0,0,0,,7,,,55,127
174820,note_off,143,0,0,,2,,,62,127
174820,note_off,0,0,0,,12,,,71,127
174825,note_on,5,0,0,,12,,,71,127
174825,note_on,0,0,0,,2,,,62,127
174968,note_off,143,0,0,,2,,,62,127
174968,note_off,0,0,0,,12,,,71,127
174973,note_on,5,0,0,,10,,,69,127
174973,note_on,0,0,0,,0,,,60,127
175116,note_off,143,0,0,,0,,,60,127
175116,note_off,0,0,0,,10,,,69,127
175121,note_on,5,0,0,,7,,,67,127
175121,note_on,0,0,0,,12,,,59,127
175264,note_off,143,0,0,,12,,,59,127
175264,note_off,0,0,0,,7,,,67,127
175269,note_on,5,0,0,,6,,,66,127
175269,note_on,0,0,0,,10,,,57,127
175412,note_off,143,0,0,,10,,,57,127
175412,note_off,0,0,0,,6,,,66,127
175417,note_on,5,0,0,,7,,,67,127
175417,note_on,0,0,0,,12,,,59,127
175560,note_off,143,0,0,,12,,,59,127
175560,note_off,0,0,0,,7,,,67,127
175565,note_off,5,0,0,,7,,,55,127
175565,note_on,0,0,0,,10,,,69,127
175565,note_on,0,0,0,,0,,,48,127
175565,note_on,0,0,0,,0,,,60,127
175708,note_off,143,0,0,,10,,,69,127
175713,note_on,5,0,0,,4,,,64,127
175856,note_off,143,0,0,,4,,,64,127
175856,note_off,0,0,0,,0,,,60,127
175856,note_off,0,0,0,,0,,,48,127
175861,note_on,5,0,0,,7,,,67,127
175861,note_on,0,0,0,,2,,,50,127
175861,note_on,0,0,0,,10,,,57,127
175861,note_on,0,0,0,,0,,,60,127
175930,note_off,69,0,0,,7,,,67,127
175935,note_on,5,0,0,,6,,,66,127
176004,note_off,69,0,0,,6,,,66,127
176009,note_on,5,0,0,,7,,,67,127
176078,note_off,69,0,0,,7,,,67,127
176083,note_on,5,0,0,,6,,,66,127
176152,note_off,69,0,0,,6,,,66,127
176157,note_on,5,0,0,,7,,,67,127
176226,note_off,69,0,0,,7,,,67,127
176231,note_on,5,0,0,,6,,,66,127
176300,note_off,69,0,0,,6,,,66,127
176305,note_on,5,0,0,,4,,,64,127
176374,note_off,69,0,0,,4,,,64,127
176379,note_on,5,0,0,,6,,,66,127
176448,note_off,69,0,0,,6,,,66,127
176448,note_off,0,0,0,,0,,,60,127
176448,note_off,0,0,0,,10,,,57,127
176448,note_off,0,0,0,,2,,,50,127
176453,note_on,5,0,0,,7,,,67,127
176453,note_on,0,0,0,,12,,,59,127
176453,note_on,0,0,0,,7,,,55,127
176596,note_off,143,0,0,,7,,,67,127
176601,note_on,5,0,0,,2,,,74,127
176744,note_off,143,0,0,,2,,,74,127
176749,note_on,5,0,0,,0,,,72,127
176892,note_off,143,0,0,,0,,,72,127
176897,note_on,5,0,0,,12,,,71,127
177040,note_off,143,0,0,,12,,,71,127
177045,note_on,5,0,0,,0,,,72,127
177188,note_off,143,0,0,,0,,,72,127
177193,note_off,5,0,0,,7,,,55,127
177193,note_off,0,0,0,,12,,,59,127
177193,note_on,0,0,0,,2,,,74,127
177336,note_off,143,0,0,,2,,,74,127
177341,note_on,5,0,0,,4,,,76,127
177341,note_on,0,0,0,,0,,,48,127
177341,note_on,0,0,0,,0,,,60,127
177632,note_off,291,0,0,,0,,,60,127
177632,note_off,0,0,0,,0,,,48,127
177632,note_off,0,0,0,,4,,,76,127
177637,note_on,5,0,0,,7,,,79,127
177637,note_on,0,0,0,,2,,,50,127
177637,note_on,0,0,0,,10,,,57,127
177637,note_on,0,0,0,,0,,,60,127
177706,note_off,69,0,0,,7,,,79,127
177711,note_on,5,0,0,,6,,,78,127
177780,note_off,69,0,0,,6,,,78,127
177785,note_on,5,0,0,,7,,,79,127
177854,note_off,69,0,0,,7,,,79,127
177859,note_on,5,0,0,,6,,,78,127
177928,note_off,69,0,0,,6,,,78,127
177933,note_on,5,0,0,,7,,,79,127
178002,note_off,69,0,0,,7,,,79,127
178007,note_on,5,0,0,,6,,,78,127
178076,note_off,69,0,0,,6,,,78,127
178081,note_on,5,0,0,,4,,,76,127
178150,note_off,69,0,0,,4,,,76,127
178155,note_on,5,0,0,,6,,,78,127
178224,note_off,69,0,0,,6,,,78,127
178224,note_off,0,0,0,,0,,,60,127
178224,note_off,0,0,0,,10,,,57,127
178224,note_off,0,0,0,,2,,,50,127
178229,note_on,5,0,0,,7,,,79,127
178229,note_on,0,0,0,,7,,,55,127
178229,note_on,0,0,0,,12,,,59,127
178372,note_off,143,0,0,,7,,,79,127
178377,note_on,5,0,0,,2,,,74,127
178520,note_off,143,0,0,,2,,,74,127
178526,note_on,6,0,0,,12,,,71,127
178669,note_off,143,0,0,,12,,,71,127
178675,note_on,6,0,0,,2,,,74,127
178818,note_off,143,0,0,,2,,,74,127
178824,note_on,6,0,0,,7,,,67,127
178967,note_off,143,0,0,,7,,,67,127
178967,note_off,0,0,0,,12,,,59,127
178973,note_on,6,0,0,,12,,,71,127
179110,note_off,137,0,0,,7,,,55,127
179116,note_off,6,0,0,,12,,,71,127
179122,note_on,6,0,0,,0,,,48,127
179122,note_on,0,0,0,,4,,,64,127
179265,note_off,143,0,0,,4,,,64,127
179271,note_on,6,0,0,,6,,,66,127
179414,note_off,143,0,0,,6,,,66,127
179414,note_off,0,0,0,,0,,,48,127
179426,note_on,12,0,0,,7,,,67,127
179426,note_on,0,0,0,,2,,,50,127
179501,note_off,75,0,0,,7,,,67,127
179507,note_on,6,0,0,,6,,,66,127
179582,note_off,75,0,0,,6,,,66,127
179590,note_on,8,0,0,,7,,,67,127
179665,note_off,75,0,0,,7,,,67,127
179670,note_on,5,0,0,,6,,,66,127
179745,note_off,75,0,0,,6,,,66,127
179753,note_on,8,0,0,,7,,,67,127
179753,note_on,0,0,0,,2,,,38,127
179828,note_off,75,0,0,,7,,,67,127
179834,note_on,6,0,0,,6,,,66,127
179909,note_off,75,0,0,,6,,,66,127
179917,note_on,8,0,0,,4,,,64,127
179992,note_off,75,0,0,,4,,,64,127
179998,note_on,6,0,0,,6,,,66,127
180066,note_off,68,0,0,,2,,,50,127
180071,note_off,5,0,0,,2,,,38,127
180085,note_off,14,0,0,,6,,,66,127
180097,note_on,12,0,0,,7,,,67,127
180097,note_on,0,0,0,,7,,,43,127
182046,note_off,1949,0,0,,7,,,43,127
182046,note_off,0,0,0,,7,,,67,127
187392,end_of_track,5346,1,0,,,,,,
