tick,type,time,meta,track,program,channel,pitch,tempo,note,velocity
0,copyright,0,1,0,,,,,,
0,program_change,0,0,0,6,0,,,,
0,pitchwheel,0,0,0,,0,0,,,
0,program_change,0,0,0,6,1,,,,
0,pitchwheel,0,0,0,,1,-590,,,
0,program_change,0,0,0,6,2,,,,
0,pitchwheel,0,0,0,,2,-272,,,
0,program_change,0,0,0,6,3,,,,
0,pitchwheel,0,0,0,,3,-353,,,
0,program_change,0,0,0,6,4,,,,
0,pitchwheel,0,0,0,,4,-560,,,
0,program_change,0,0,0,6,5,,,,
0,pitchwheel,0,0,0,,5,-80,,,
0,program_change,0,0,0,6,6,,,,
0,pitchwheel,0,0,0,,6,-625,,,
0,program_change,0,0,0,6,7,,,,
0,pitchwheel,0,0,0,,7,-130,,,
0,program_change,0,0,0,6,8,,,,
0,pitchwheel,0,0,0,,8,-512,,,
0,program_change,0,0,0,6,10,,,,
0,pitchwheel,0,0,0,,10,-464,,,
0,program_change,0,0,0,6,11,,,,
0,pitchwheel,0,0,0,,11,-208,,,
0,program_change,0,0,0,6,12,,,,
0,pitchwheel,0,0,0,,12,-553,,,
0,set_tempo,0,1,0,,,,500000,,
131,note_on,131,0,0,,12,,,47,127
131,note_on,0,0,0,,12,,,83,127
391,note_off,260,0,0,,12,,,83,127
392,note_on,1,0,0,,6,,,78,127
522,note_off,130,0,0,,6,,,78,127
523,note_on,1,0,0,,3,,,75,127
653,note_off,130,0,0,,3,,,75,127
654,note_on,1,0,0,,12,,,71,127
914,note_off,260,0,0,,12,,,71,127
915,note_on,1,0,0,,6,,,66,127
1175,note_off,260,0,0,,6,,,66,127
1175,note_off,0,0,0,,12,,,47,127
1176,note_on,1,0,0,,12,,,47,127
1176,note_on,0,0,0,,12,,,59,127
1436,note_off,260,0,0,,12,,,59,127
1436,note_off,0,0,0,,12,,,47,127
1437,note_on,1,0,0,,12,,,59,127
1437,note_on,0,0,0,,3,,,75,127
1697,note_off,260,0,0,,3,,,75,127
1698,note_on,1,0,0,,4,,,76,127
1762,note_off,64,0,0,,4,,,76,127
1763,note_on,1,0,0,,3,,,75,127
1827,note_off,64,0,0,,3,,,75,127
1828,note_on,1,0,0,,4,,,76,127
1892,note_off,64,0,0,,4,,,76,127
1893,note_on,1,0,0,,3,,,75,127
1957,note_off,64,0,0,,3,,,75,127
1957,note_off,0,0,0,,12,,,59,127
1958,note_on,1,0,0,,3,,,51,127
1958,note_on,0,0,0,,4,,,76,127
2022,note_off,64,0,0,,4,,,76,127
2023,note_on,1,0,0,,3,,,75,127
2087,note_off,64,0,0,,3,,,75,127
2088,note_on,1,0,0,,1,,,73,127
2152,note_off,64,0,0,,1,,,73,127
2153,note_on,1,0,0,,3,,,75,127
2217,note_off,64,0,0,,3,,,75,127
2217,note_off,0,0,0,,3,,,51,127
2218,note_on,1,0,0,,4,,,52,127
2218,note_on,0,0,0,,7,,,79,127
2478,note_off,260,0,0,,7,,,79,127
2479,note_on,1,0,0,,8,,,80,127
2739,note_off,260,0,0,,8,,,80,127
2740,note_on,1,0,0,,11,,,70,127
2804,note_off,64,0,0,,11,,,70,127
2805,note_on,1,0,0,,8,,,68,127
2869,note_off,64,0,0,,8,,,68,127
2870,note_off,1,0,0,,4,,,52,127
2870,note_on,0,0,0,,11,,,70,127
2934,note_off,64,0,0,,11,,,70,127
2935,note_on,1,0,0,,8,,,68,127
2999,note_off,64,0,0,,8,,,68,127
3000,note_on,1,0,0,,5,,,53,127
3000,note_on,0,0,0,,11,,,70,127
3064,note_off,64,0,0,,11,,,70,127
3065,note_on,1,0,0,,8,,,68,127
3129,note_off,64,0,0,,8,,,68,127
3130,note_on,1,0,0,,7,,,67,127
3194,note_off,64,0,0,,7,,,67,127
3195,note_on,1,0,0,,8,,,68,127
3259,note_off,64,0,0,,8,,,68,127
3259,note_off,0,0,0,,5,,,53,127
3260,note_on,1,0,0,,6,,,54,127
3260,note_on,0,0,0,,12,,,71,127
3520,note_off,260,0,0,,12,,,71,127
3521,note_on,1,0,0,,11,,,70,127
3781,note_off,260,0,0,,11,,,70,127
3782,note_on,1,0,0,,1,,,73,127
3846,note_off,64,0,0,,1,,,73,127
3847,note_on,1,0,0,,3,,,75,127
3911,note_off,64,0,0,,3,,,75,127
3912,note_off,1,0,0,,6,,,54,127
3912,note_on,0,0,0,,4,,,76,127
4043,note_on,131,0,0,,11,,,58,127
4303,note_off,260,0,0,,11,,,58,127
4303,note_off,0,0,0,,4,,,76,127
4304,note_on,1,0,0,,12,,,59,127
4304,note_on,0,0,0,,3,,,75,127
4390,note_off,86,0,0,,3,,,75,127
4391,note_on,1,0,0,,8,,,80,127
4477,note_off,86,0,0,,8,,,80,127
4478,note_on,1,0,0,,6,,,78,127
4564,note_off,86,0,0,,6,,,78,127
4564,note_off,0,0,0,,12,,,59,127
4565,note_on,1,0,0,,4,,,52,127
4565,note_on,0,0,0,,4,,,76,127
4825,note_off,260,0,0,,4,,,52,127
4826,note_on,1,0,0,,6,,,54,127
5086,note_off,260,0,0,,6,,,54,127
5087,note_on,1,0,0,,11,,,58,127
5218,note_off,131,0,0,,4,,,76,127
5348,note_off,130,0,0,,11,,,58,127
5349,note_on,1,0,0,,12,,,59,127
5349,note_on,0,0,0,,3,,,75,127
5435,note_off,86,0,0,,3,,,75,127
5436,note_on,1,0,0,,8,,,80,127
5522,note_off,86,0,0,,8,,,80,127
5523,note_on,1,0,0,,6,,,78,127
5609,note_off,86,0,0,,6,,,78,127
5609,note_off,0,0,0,,12,,,59,127
5610,note_on,1,0,0,,4,,,52,127
5610,note_on,0,0,0,,4,,,76,127
5870,note_off,260,0,0,,4,,,52,127
5871,note_on,1,0,0,,6,,,54,127
6131,note_off,260,0,0,,6,,,54,127
6132,note_on,1,0,0,,11,,,58,127
6263,note_off,131,0,0,,4,,,76,127
6393,note_off,130,0,0,,11,,,58,127
6394,note_on,1,0,0,,12,,,59,127
6394,note_on,0,0,0,,3,,,75,127
6480,note_off,86,0,0,,3,,,75,127
6481,note_on,1,0,0,,1,,,73,127
6567,note_off,86,0,0,,1,,,73,127
6568,note_on,1,0,0,,12,,,71,127
6654,note_off,86,0,0,,12,,,71,127
6654,note_off,0,0,0,,12,,,59,127
6655,note_on,1,0,0,,3,,,63,127
6655,note_on,0,0,0,,11,,,70,127
6741,note_off,86,0,0,,11,,,70,127
6742,note_on,1,0,0,,8,,,68,127
6828,note_off,86,0,0,,8,,,68,127
6829,note_on,1,0,0,,6,,,66,127
6915,note_off,86,0,0,,6,,,66,127
6915,note_off,0,0,0,,3,,,63,127
6916,note_on,1,0,0,,1,,,61,127
6916,note_on,0,0,0,,6,,,66,127
6980,note_off,64,0,0,,6,,,66,127
6981,note_on,1,0,0,,4,,,64,127
7045,note_off,64,0,0,,4,,,64,127
7046,note_on,1,0,0,,6,,,66,127
7110,note_off,64,0,0,,6,,,66,127
7111,note_on,1,0,0,,4,,,64,127
7175,note_off,64,0,0,,4,,,64,127
7175,note_off,0,0,0,,1,,,61,127
7176,note_on,1,0,0,,6,,,54,127
7176,note_on,0,0,0,,6,,,66,127
7240,note_off,64,0,0,,6,,,66,127
7241,note_on,1,0,0,,4,,,64,127
7305,note_off,64,0,0,,4,,,64,127
7306,note_on,1,0,0,,6,,,66,127
7370,note_off,64,0,0,,6,,,66,127
7371,note_on,1,0,0,,4,,,64,127
7435,note_off,64,0,0,,4,,,64,127
7435,note_off,0,0,0,,6,,,54,127
7436,note_on,1,0,0,,12,,,59,127
7436,note_on,0,0,0,,3,,,63,127
7522,note_off,86,0,0,,3,,,63,127
7523,note_on,1,0,0,,4,,,64,127
7609,note_off,86,0,0,,4,,,64,127
7610,note_on,1,0,0,,6,,,66,127
7696,note_off,86,0,0,,6,,,66,127
7696,note_off,0,0,0,,12,,,59,127
7697,note_on,1,0,0,,4,,,52,127
7697,note_on,0,0,0,,4,,,64,127
7783,note_off,86,0,0,,4,,,64,127
7784,note_on,1,0,0,,3,,,63,127
7870,note_off,86,0,0,,3,,,63,127
7871,note_on,1,0,0,,1,,,61,127
7957,note_off,86,0,0,,1,,,61,127
7957,note_off,0,0,0,,4,,,52,127
7958,note_on,1,0,0,,6,,,54,127
7958,note_on,0,0,0,,3,,,63,127
8220,note_on,262,0,0,,6,,,42,127
8285,note_off,65,0,0,,3,,,63,127
8285,note_on,0,0,0,,1,,,61,127
8349,note_off,64,0,0,,1,,,61,127
8350,note_on,1,0,0,,3,,,63,127
8414,note_off,64,0,0,,3,,,63,127
8415,note_on,1,0,0,,1,,,61,127
8479,note_off,64,0,0,,1,,,61,127
8479,note_off,0,0,0,,6,,,42,127
8479,note_off,0,0,0,,6,,,54,127
8480,note_on,1,0,0,,12,,,47,127
8480,note_on,0,0,0,,12,,,59,127
8610,note_off,130,0,0,,12,,,47,127
8611,note_on,1,0,0,,4,,,52,127
8741,note_off,130,0,0,,4,,,52,127
8742,note_on,1,0,0,,2,,,50,127
8872,note_off,130,0,0,,2,,,50,127
8873,note_off,1,0,0,,12,,,59,127
8873,note_on,0,0,0,,7,,,55,127
9003,note_off,130,0,0,,7,,,55,127
9004,note_on,1,0,0,,6,,,54,127
9134,note_off,130,0,0,,6,,,54,127
9135,note_on,1,0,0,,12,,,59,127
9265,note_off,130,0,0,,12,,,59,127
9266,note_on,1,0,0,,11,,,58,127
9396,note_off,130,0,0,,11,,,58,127
9397,note_on,1,0,0,,4,,,64,127
9527,note_off,130,0,0,,4,,,64,127
9528,note_on,1,0,0,,2,,,62,127
9658,note_off,130,0,0,,2,,,62,127
9659,note_on,1,0,0,,7,,,67,127
9789,note_off,130,0,0,,7,,,67,127
9790,note_on,1,0,0,,6,,,66,127
9920,note_off,130,0,0,,6,,,66,127
9921,note_on,1,0,0,,4,,,64,127
10051,note_off,130,0,0,,4,,,64,127
10052,note_on,1,0,0,,4,,,64,127
10182,note_off,130,0,0,,4,,,64,127
10183,note_on,1,0,0,,2,,,62,127
10313,note_off,130,0,0,,2,,,62,127
10314,note_on,1,0,0,,1,,,61,127
10444,note_off,130,0,0,,1,,,61,127
10445,note_on,1,0,0,,12,,,59,127
10575,note_off,130,0,0,,12,,,59,127
10576,note_on,1,0,0,,10,,,57,127
10707,note_on,131,0,0,,7,,,79,127
10837,note_off,130,0,0,,7,,,79,127
10837,note_off,0,0,0,,10,,,57,127
10838,note_on,1,0,0,,6,,,54,127
10838,note_on,0,0,0,,6,,,78,127
10968,note_off,130,0,0,,6,,,78,127
10969,note_on,1,0,0,,4,,,76,127
11099,note_off,130,0,0,,4,,,76,127
11099,note_off,0,0,0,,6,,,54,127
11100,note_on,1,0,0,,7,,,55,127
11100,note_on,0,0,0,,4,,,76,127
11230,note_off,130,0,0,,4,,,76,127
11231,note_on,1,0,0,,2,,,74,127
11361,note_off,130,0,0,,2,,,74,127
11362,note_on,1,0,0,,1,,,73,127
11492,note_off,130,0,0,,1,,,73,127
11493,note_on,1,0,0,,12,,,71,127
11623,note_off,130,0,0,,12,,,71,127
11623,note_off,0,0,0,,7,,,55,127
11624,note_on,1,0,0,,6,,,54,127
11624,note_on,0,0,0,,11,,,70,127
11755,note_on,131,0,0,,7,,,67,127
11883,note_off,128,0,0,,11,,,70,127
11884,note_off,1,0,0,,7,,,67,127
11884,note_off,0,0,0,,6,,,54,127
11885,note_on,1,0,0,,4,,,52,127
11885,note_on,0,0,0,,7,,,67,127
12015,note_off,130,0,0,,7,,,67,127
12016,note_on,1,0,0,,6,,,66,127
12146,note_off,130,0,0,,6,,,66,127
12146,note_off,0,0,0,,4,,,52,127
12147,note_on,1,0,0,,2,,,50,127
12147,note_on,0,0,0,,6,,,66,127
12277,note_off,130,0,0,,6,,,66,127
12278,note_on,1,0,0,,4,,,64,127
12408,note_off,130,0,0,,4,,,64,127
12408,note_off,0,0,0,,2,,,50,127
12409,note_on,1,0,0,,1,,,49,127
12409,note_on,0,0,0,,4,,,64,127
12539,note_off,130,0,0,,4,,,64,127
12540,note_on,1,0,0,,2,,,62,127
12670,note_off,130,0,0,,2,,,62,127
12670,note_off,0,0,0,,1,,,49,127
12671,note_on,1,0,0,,12,,,47,127
12671,note_on,0,0,0,,2,,,62,127
12801,note_off,130,0,0,,12,,,47,127
12802,note_on,1,0,0,,4,,,52,127
12932,note_off,130,0,0,,4,,,52,127
12933,note_on,1,0,0,,2,,,50,127
13063,note_off,130,0,0,,2,,,50,127
13064,note_on,1,0,0,,7,,,55,127
13194,note_off,130,0,0,,7,,,55,127
13194,note_off,0,0,0,,2,,,62,127
13195,note_on,1,0,0,,6,,,54,127
13325,note_off,130,0,0,,6,,,54,127
13326,note_on,1,0,0,,12,,,59,127
13456,note_off,130,0,0,,12,,,59,127
13457,note_on,1,0,0,,11,,,58,127
13587,note_off,130,0,0,,11,,,58,127
13588,note_on,1,0,0,,4,,,64,127
13718,note_off,130,0,0,,4,,,64,127
13719,note_on,1,0,0,,2,,,62,127
13849,note_off,130,0,0,,2,,,62,127
13850,note_on,1,0,0,,7,,,67,127
13980,note_off,130,0,0,,7,,,67,127
13981,note_on,1,0,0,,6,,,66,127
14111,note_off,130,0,0,,6,,,66,127
14112,note_on,1,0,0,,4,,,64,127
14242,note_off,130,0,0,,4,,,64,127
14243,note_on,1,0,0,,4,,,64,127
14373,note_off,130,0,0,,4,,,64,127
14374,note_on,1,0,0,,2,,,62,127
14504,note_off,130,0,0,,2,,,62,127
14505,note_on,1,0,0,,1,,,61,127
14635,note_off,130,0,0,,1,,,61,127
14636,note_on,1,0,0,,12,,,59,127
14766,note_off,130,0,0,,12,,,59,127
14767,note_on,1,0,0,,11,,,58,127
14898,note_on,131,0,0,,7,,,79,127
15028,note_off,130,0,0,,7,,,79,127
15028,note_off,0,0,0,,11,,,58,127
15029,note_on,1,0,0,,6,,,54,127
15029,note_on,0,0,0,,6,,,78,127
15159,note_off,130,0,0,,6,,,78,127
15160,note_on,1,0,0,,4,,,76,127
15290,note_off,130,0,0,,4,,,76,127
15290,note_off,0,0,0,,6,,,54,127
15291,note_on,1,0,0,,12,,,59,127
15291,note_on,0,0,0,,4,,,76,127
15421,note_off,130,0,0,,4,,,76,127
15422,note_on,1,0,0,,2,,,74,127
15552,note_off,130,0,0,,2,,,74,127
15552,note_off,0,0,0,,12,,,59,127
15553,note_on,1,0,0,,4,,,52,127
15553,note_on,0,0,0,,1,,,73,127
15683,note_off,130,0,0,,1,,,73,127
15684,note_on,1,0,0,,12,,,71,127
15814,note_off,130,0,0,,12,,,71,127
15814,note_off,0,0,0,,4,,,52,127
15815,note_on,1,0,0,,6,,,54,127
15815,note_on,0,0,0,,10,,,69,127
15946,note_on,131,0,0,,12,,,71,127
16074,note_off,128,0,0,,10,,,69,127
16075,note_off,1,0,0,,12,,,71,127
16075,note_off,0,0,0,,6,,,54,127
16076,note_on,1,0,0,,4,,,52,127
16076,note_on,0,0,0,,12,,,71,127
16206,note_off,130,0,0,,12,,,71,127
16207,note_on,1,0,0,,0,,,72,127
16337,note_off,130,0,0,,0,,,72,127
16337,note_off,0,0,0,,4,,,52,127
16338,note_on,1,0,0,,3,,,51,127
16338,note_on,0,0,0,,0,,,72,127
16338,note_on,0,0,0,,6,,,78,127
16468,note_off,130,0,0,,0,,,72,127
16469,note_on,1,0,0,,12,,,71,127
16599,note_off,130,0,0,,12,,,71,127
16599,note_off,0,0,0,,3,,,51,127
16600,note_on,1,0,0,,12,,,47,127
16600,note_on,0,0,0,,12,,,71,127
16730,note_off,130,0,0,,12,,,71,127
16731,note_on,1,0,0,,10,,,69,127
16861,note_off,130,0,0,,10,,,69,127
16861,note_off,0,0,0,,12,,,47,127
16862,note_on,1,0,0,,4,,,52,127
16862,note_on,0,0,0,,7,,,67,127
16992,note_off,130,0,0,,7,,,67,127
16993,note_on,1,0,0,,10,,,69,127
17123,note_off,130,0,0,,10,,,69,127
17123,note_off,0,0,0,,4,,,52,127
17124,note_on,1,0,0,,2,,,50,127
17124,note_on,0,0,0,,10,,,69,127
17254,note_off,130,0,0,,10,,,69,127
17255,note_on,1,0,0,,12,,,71,127
17385,note_off,130,0,0,,12,,,71,127
17385,note_off,0,0,0,,2,,,50,127
17385,note_off,0,0,0,,6,,,78,127
17386,note_on,1,0,0,,1,,,49,127
17386,note_on,0,0,0,,4,,,76,127
17386,note_on,0,0,0,,12,,,71,127
17516,note_off,130,0,0,,12,,,71,127
17517,note_on,1,0,0,,10,,,69,127
17647,note_off,130,0,0,,10,,,69,127
17647,note_off,0,0,0,,1,,,49,127
17648,note_on,1,0,0,,10,,,45,127
17648,note_on,0,0,0,,10,,,69,127
17778,note_off,130,0,0,,10,,,69,127
17779,note_on,1,0,0,,7,,,67,127
17909,note_off,130,0,0,,7,,,67,127
17909,note_off,0,0,0,,10,,,45,127
17910,note_on,1,0,0,,2,,,50,127
17910,note_on,0,0,0,,6,,,66,127
18040,note_off,130,0,0,,6,,,66,127
18041,note_on,1,0,0,,7,,,67,127
18171,note_off,130,0,0,,7,,,67,127
18171,note_off,0,0,0,,2,,,50,127
18172,note_on,1,0,0,,1,,,49,127
18172,note_on,0,0,0,,7,,,67,127
18302,note_off,130,0,0,,7,,,67,127
18303,note_on,1,0,0,,10,,,69,127
18433,note_off,130,0,0,,10,,,69,127
18433,note_off,0,0,0,,1,,,49,127
18433,note_off,0,0,0,,4,,,76,127
18434,note_on,1,0,0,,12,,,47,127
18434,note_on,0,0,0,,2,,,74,127
18434,note_on,0,0,0,,10,,,69,127
18564,note_off,130,0,0,,10,,,69,127
18565,note_on,1,0,0,,7,,,67,127
18695,note_off,130,0,0,,7,,,67,127
18695,note_off,0,0,0,,12,,,47,127
18696,note_on,1,0,0,,7,,,43,127
18696,note_on,0,0,0,,7,,,67,127
18826,note_off,130,0,0,,7,,,67,127
18827,note_on,1,0,0,,6,,,66,127
18957,note_off,130,0,0,,6,,,66,127
18957,note_off,0,0,0,,7,,,43,127
18958,note_on,1,0,0,,1,,,49,127
18958,note_on,0,0,0,,4,,,64,127
19088,note_off,130,0,0,,4,,,64,127
19089,note_on,1,0,0,,6,,,66,127
19219,note_off,130,0,0,,6,,,66,127
19219,note_off,0,0,0,,1,,,49,127
19220,note_on,1,0,0,,12,,,47,127
19220,note_on,0,0,0,,6,,,66,127
19350,note_off,130,0,0,,6,,,66,127
19351,note_on,1,0,0,,7,,,67,127
19481,note_off,130,0,0,,7,,,67,127
19481,note_off,0,0,0,,12,,,47,127
19481,note_off,0,0,0,,2,,,74,127
19482,note_on,1,0,0,,11,,,46,127
19482,note_on,0,0,0,,1,,,73,127
19482,note_on,0,0,0,,7,,,67,127
19612,note_off,130,0,0,,7,,,67,127
19613,note_on,1,0,0,,6,,,66,127
19743,note_off,130,0,0,,6,,,66,127
19743,note_off,0,0,0,,11,,,46,127
19744,note_on,1,0,0,,6,,,42,127
19744,note_on,0,0,0,,6,,,66,127
19874,note_off,130,0,0,,6,,,66,127
19875,note_on,1,0,0,,4,,,64,127
20005,note_off,130,0,0,,4,,,64,127
20005,note_off,0,0,0,,6,,,42,127
20005,note_off,0,0,0,,1,,,73,127
20006,note_on,1,0,0,,12,,,47,127
20006,note_on,0,0,0,,2,,,62,127
20136,note_off,130,0,0,,2,,,62,127
20137,note_on,1,0,0,,6,,,66,127
20267,note_off,130,0,0,,6,,,66,127
20267,note_off,0,0,0,,12,,,47,127
20268,note_on,1,0,0,,6,,,54,127
20268,note_on,0,0,0,,12,,,71,127
20398,note_off,130,0,0,,12,,,71,127
20399,note_on,1,0,0,,10,,,69,127
20529,note_off,130,0,0,,10,,,69,127
20529,note_off,0,0,0,,6,,,54,127
20530,note_on,1,0,0,,12,,,59,127
20530,note_on,0,0,0,,8,,,68,127
20660,note_off,130,0,0,,8,,,68,127
20661,note_on,1,0,0,,6,,,66,127
20791,note_off,130,0,0,,6,,,66,127
20791,note_off,0,0,0,,12,,,59,127
20792,note_on,1,0,0,,2,,,50,127
20792,note_on,0,0,0,,5,,,65,127
20922,note_off,130,0,0,,5,,,65,127
20923,note_on,1,0,0,,6,,,66,127
21053,note_off,130,0,0,,2,,,50,127
21068,note_on,15,0,0,,1,,,49,127
21068,note_on,0,0,0,,1,,,61,127
21121,note_off,53,0,0,,6,,,66,127
21197,note_off,76,0,0,,1,,,61,127
21198,note_on,1,0,0,,5,,,65,127
21329,note_on,131,0,0,,1,,,61,127
21457,note_off,128,0,0,,5,,,65,127
21458,note_off,1,0,0,,1,,,61,127
21459,note_on,1,0,0,,8,,,68,127
21590,note_on,131,0,0,,1,,,37,127
21590,note_on,0,0,0,,5,,,65,127
21718,note_off,128,0,0,,8,,,68,127
21719,note_off,1,0,0,,5,,,65,127
21720,note_on,1,0,0,,12,,,71,127
21851,note_on,131,0,0,,8,,,68,127
21979,note_off,128,0,0,,12,,,71,127
21980,note_off,1,0,0,,8,,,68,127
21981,note_on,1,0,0,,5,,,77,127
22111,note_off,130,0,0,,1,,,49,127
22112,note_on,1,0,0,,1,,,49,127
22112,note_on,0,0,0,,12,,,71,127
22240,note_off,128,0,0,,5,,,77,127
22241,note_off,1,0,0,,12,,,71,127
22242,note_on,1,0,0,,8,,,80,127
22373,note_on,131,0,0,,12,,,71,127
22496,note_off,123,0,0,,12,,,71,127
22501,note_off,5,0,0,,8,,,80,127
22504,note_on,3,0,0,,12,,,83,127
22634,note_off,130,0,0,,1,,,37,127
22635,note_on,1,0,0,,1,,,37,127
22635,note_on,0,0,0,,12,,,71,127
22763,note_off,128,0,0,,12,,,83,127
22764,note_off,1,0,0,,12,,,71,127
22765,note_on,1,0,0,,8,,,80,127
22896,note_on,131,0,0,,12,,,71,127
23024,note_off,128,0,0,,8,,,80,127
23025,note_off,1,0,0,,12,,,71,127
23026,note_on,1,0,0,,12,,,83,127
23154,note_off,128,0,0,,12,,,83,127
23155,note_off,1,0,0,,1,,,37,127
23155,note_off,0,0,0,,1,,,49,127
23156,note_on,1,0,0,,6,,,54,127
23156,note_on,0,0,0,,12,,,83,127
23286,note_off,130,0,0,,12,,,83,127
23287,note_on,1,0,0,,11,,,82,127
23417,note_off,130,0,0,,11,,,82,127
23417,note_off,0,0,0,,6,,,54,127
23418,note_on,1,0,0,,12,,,59,127
23418,note_on,0,0,0,,8,,,80,127
23548,note_off,130,0,0,,8,,,80,127
23549,note_on,1,0,0,,6,,,78,127
23679,note_off,130,0,0,,6,,,78,127
23679,note_off,0,0,0,,12,,,59,127
23680,note_on,1,0,0,,1,,,61,127
23680,note_on,0,0,0,,11,,,82,127
23810,note_off,130,0,0,,11,,,82,127
23811,note_on,1,0,0,,8,,,80,127
23941,note_off,130,0,0,,8,,,80,127
23942,note_on,1,0,0,,1,,,49,127
23942,note_on,0,0,0,,6,,,78,127
24072,note_off,130,0,0,,6,,,78,127
24073,note_on,1,0,0,,5,,,77,127
24203,note_off,130,0,0,,5,,,77,127
24203,note_off,0,0,0,,1,,,49,127
24203,note_off,0,0,0,,1,,,61,127
24204,note_on,1,0,0,,3,,,51,127
24204,note_on,0,0,0,,6,,,78,127
24334,note_off,130,0,0,,6,,,78,127
24335,note_on,1,0,0,,5,,,77,127
24465,note_off,130,0,0,,5,,,77,127
24466,note_on,1,0,0,,6,,,54,127
24466,note_on,0,0,0,,3,,,75,127
24596,note_off,130,0,0,,3,,,75,127
24597,note_on,1,0,0,,1,,,73,127
24727,note_off,130,0,0,,1,,,73,127
24727,note_off,0,0,0,,6,,,54,127
24728,note_on,1,0,0,,8,,,56,127
24728,note_on,0,0,0,,1,,,73,127
24792,note_off,64,0,0,,1,,,73,127
24793,note_on,1,0,0,,0,,,72,127
24857,note_off,64,0,0,,0,,,72,127
24858,note_on,1,0,0,,1,,,73,127
24922,note_off,64,0,0,,1,,,73,127
24923,note_on,1,0,0,,0,,,72,127
24987,note_off,64,0,0,,0,,,72,127
24987,note_off,0,0,0,,8,,,56,127
24988,note_on,1,0,0,,6,,,54,127
24988,note_on,0,0,0,,1,,,73,127
25052,note_off,64,0,0,,1,,,73,127
25053,note_on,1,0,0,,0,,,72,127
25117,note_off,64,0,0,,0,,,72,127
25118,note_on,1,0,0,,1,,,73,127
25182,note_off,64,0,0,,1,,,73,127
25183,note_on,1,0,0,,3,,,75,127
25247,note_off,64,0,0,,3,,,75,127
25247,note_off,0,0,0,,6,,,54,127
25247,note_off,0,0,0,,3,,,51,127
25270,note_on,23,0,0,,1,,,49,127
25270,note_on,0,0,0,,1,,,61,127
25401,note_on,131,0,0,,5,,,65,127
25529,note_off,128,0,0,,1,,,61,127
25530,note_off,1,0,0,,5,,,65,127
25531,note_on,1,0,0,,1,,,61,127
25662,note_on,131,0,0,,8,,,68,127
25790,note_off,128,0,0,,1,,,61,127
25791,note_off,1,0,0,,8,,,68,127
25792,note_on,1,0,0,,1,,,37,127
25792,note_on,0,0,0,,5,,,65,127
25923,note_on,131,0,0,,12,,,71,127
26051,note_off,128,0,0,,5,,,65,127
26052,note_off,1,0,0,,12,,,71,127
26053,note_on,1,0,0,,8,,,68,127
26184,note_on,131,0,0,,5,,,77,127
26312,note_off,128,0,0,,8,,,68,127
26313,note_off,1,0,0,,5,,,77,127
26313,note_off,0,0,0,,1,,,49,127
26314,note_on,1,0,0,,1,,,49,127
26314,note_on,0,0,0,,12,,,71,127
26445,note_on,131,0,0,,8,,,80,127
26568,note_off,123,0,0,,8,,,80,127
26573,note_off,5,0,0,,12,,,71,127
26576,note_on,3,0,0,,12,,,71,127
26707,note_on,131,0,0,,12,,,83,127
26830,note_off,123,0,0,,12,,,83,127
26835,note_off,5,0,0,,12,,,71,127
26836,note_off,1,0,0,,1,,,37,127
26837,note_on,1,0,0,,1,,,37,127
26837,note_on,0,0,0,,12,,,71,127
26968,note_on,131,0,0,,8,,,80,127
27091,note_off,123,0,0,,8,,,80,127
27096,note_off,5,0,0,,12,,,71,127
27099,note_on,3,0,0,,12,,,71,127
27230,note_on,131,0,0,,12,,,83,127
27358,note_off,128,0,0,,12,,,83,127
27358,note_off,0,0,0,,12,,,71,127
27359,note_off,1,0,0,,1,,,37,127
27359,note_off,0,0,0,,1,,,49,127
27360,note_on,1,0,0,,6,,,54,127
27360,note_on,0,0,0,,12,,,83,127
27490,note_off,130,0,0,,12,,,83,127
27491,note_on,1,0,0,,11,,,82,127
27621,note_off,130,0,0,,11,,,82,127
27621,note_off,0,0,0,,6,,,54,127
27622,note_on,1,0,0,,12,,,59,127
27622,note_on,0,0,0,,8,,,80,127
27752,note_off,130,0,0,,8,,,80,127
27753,note_on,1,0,0,,6,,,78,127
27883,note_off,130,0,0,,6,,,78,127
27883,note_off,0,0,0,,12,,,59,127
27884,note_on,1,0,0,,1,,,61,127
27884,note_on,0,0,0,,11,,,82,127
28014,note_off,130,0,0,,11,,,82,127
28015,note_on,1,0,0,,8,,,80,127
28145,note_off,130,0,0,,8,,,80,127
28146,note_on,1,0,0,,1,,,49,127
28146,note_on,0,0,0,,6,,,78,127
28276,note_off,130,0,0,,6,,,78,127
28277,note_on,1,0,0,,5,,,77,127
28407,note_off,130,0,0,,5,,,77,127
28407,note_off,0,0,0,,1,,,49,127
28407,note_off,0,0,0,,1,,,61,127
28408,note_on,1,0,0,,6,,,54,127
28408,note_on,0,0,0,,5,,,77,127
28538,note_off,130,0,0,,6,,,54,127
28539,note_on,1,0,0,,8,,,56,127
28669,note_off,130,0,0,,8,,,56,127
28669,note_off,0,0,0,,5,,,77,127
28670,note_on,1,0,0,,11,,,58,127
28670,note_on,0,0,0,,6,,,78,127
28800,note_off,130,0,0,,11,,,58,127
28801,note_on,1,0,0,,12,,,59,127
28931,note_off,130,0,0,,12,,,59,127
28931,note_off,0,0,0,,6,,,78,127
28932,note_on,1,0,0,,1,,,61,127
29062,note_off,130,0,0,,1,,,61,127
29063,note_on,1,0,0,,12,,,59,127
29063,note_on,0,0,0,,1,,,73,127
29118,note_off,55,0,0,,1,,,73,127
29129,note_on,11,0,0,,1,,,73,127
29184,note_off,55,0,0,,1,,,73,127
29194,note_off,10,0,0,,12,,,59,127
29195,note_on,1,0,0,,11,,,58,127
29195,note_on,0,0,0,,1,,,73,127
29325,note_off,130,0,0,,1,,,73,127
29325,note_off,0,0,0,,11,,,58,127
29326,note_on,1,0,0,,8,,,56,127
29326,note_on,0,0,0,,1,,,73,127
29456,note_off,130,0,0,,1,,,73,127
29456,note_off,0,0,0,,8,,,56,127
29457,note_on,1,0,0,,6,,,54,127
29457,note_on,0,0,0,,6,,,78,127
29587,note_off,130,0,0,,6,,,54,127
29588,note_on,1,0,0,,8,,,56,127
29718,note_off,130,0,0,,8,,,56,127
29718,note_off,0,0,0,,6,,,78,127
29719,note_on,1,0,0,,11,,,58,127
29719,note_on,0,0,0,,1,,,73,127
29849,note_off,130,0,0,,11,,,58,127
29850,note_on,1,0,0,,12,,,59,127
29980,note_off,130,0,0,,12,,,59,127
29980,note_off,0,0,0,,1,,,73,127
29981,note_on,1,0,0,,1,,,61,127
30111,note_off,130,0,0,,1,,,61,127
30112,note_on,1,0,0,,12,,,59,127
30112,note_on,0,0,0,,1,,,73,127
30167,note_off,55,0,0,,1,,,73,127
30178,note_on,11,0,0,,1,,,73,127
30233,note_off,55,0,0,,1,,,73,127
30243,note_off,10,0,0,,12,,,59,127
30244,note_on,1,0,0,,11,,,58,127
30244,note_on,0,0,0,,1,,,73,127
30374,note_off,130,0,0,,1,,,73,127
30374,note_off,0,0,0,,11,,,58,127
30375,note_on,1,0,0,,8,,,56,127
30375,note_on,0,0,0,,1,,,73,127
30505,note_off,130,0,0,,1,,,73,127
30505,note_off,0,0,0,,8,,,56,127
30506,note_on,1,0,0,,6,,,54,127
30506,note_on,0,0,0,,11,,,82,127
30636,note_off,130,0,0,,6,,,54,127
30637,note_on,1,0,0,,8,,,56,127
30767,note_off,130,0,0,,8,,,56,127
30767,note_off,0,0,0,,11,,,82,127
30768,note_on,1,0,0,,11,,,58,127
30768,note_on,0,0,0,,1,,,73,127
30898,note_off,130,0,0,,11,,,58,127
30899,note_on,1,0,0,,12,,,59,127
31029,note_off,130,0,0,,12,,,59,127
31029,note_off,0,0,0,,1,,,73,127
31030,note_on,1,0,0,,1,,,61,127
31160,note_off,130,0,0,,1,,,61,127
31161,note_on,1,0,0,,12,,,59,127
31161,note_on,0,0,0,,1,,,73,127
31216,note_off,55,0,0,,1,,,73,127
31227,note_on,11,0,0,,1,,,73,127
31282,note_off,55,0,0,,1,,,73,127
31292,note_off,10,0,0,,12,,,59,127
31293,note_on,1,0,0,,11,,,58,127
31293,note_on,0,0,0,,1,,,73,127
31423,note_off,130,0,0,,1,,,73,127
31423,note_off,0,0,0,,11,,,58,127
31424,note_on,1,0,0,,8,,,56,127
31424,note_on,0,0,0,,1,,,73,127
31554,note_off,130,0,0,,1,,,73,127
31554,note_off,0,0,0,,8,,,56,127
31555,note_on,1,0,0,,6,,,54,127
31555,note_on,0,0,0,,6,,,78,127
31685,note_off,130,0,0,,6,,,78,127
31686,note_on,1,0,0,,1,,,73,127
31816,note_off,130,0,0,,1,,,73,127
31816,note_off,0,0,0,,6,,,54,127
31817,note_on,1,0,0,,12,,,59,127
31817,note_on,0,0,0,,11,,,82,127
31947,note_off,130,0,0,,11,,,82,127
31948,note_on,1,0,0,,12,,,83,127
32078,note_off,130,0,0,,12,,,83,127
32078,note_off,0,0,0,,12,,,59,127
32079,note_on,1,0,0,,1,,,61,127
32079,note_on,0,0,0,,11,,,82,127
32209,note_off,130,0,0,,11,,,82,127
32210,note_on,1,0,0,,8,,,80,127
32340,note_off,130,0,0,,8,,,80,127
32341,note_on,1,0,0,,1,,,49,127
32341,note_on,0,0,0,,6,,,78,127
32471,note_off,130,0,0,,6,,,78,127
32472,note_on,1,0,0,,5,,,77,127
32602,note_off,130,0,0,,5,,,77,127
32602,note_off,0,0,0,,1,,,49,127
32602,note_off,0,0,0,,1,,,61,127
32603,note_on,1,0,0,,6,,,54,127
32603,note_on,0,0,0,,5,,,77,127
32733,note_off,130,0,0,,6,,,54,127
32734,note_on,1,0,0,,8,,,56,127
32864,note_off,130,0,0,,8,,,56,127
32864,note_off,0,0,0,,5,,,77,127
32865,note_on,1,0,0,,11,,,58,127
32865,note_on,0,0,0,,6,,,78,127
32995,note_off,130,0,0,,11,,,58,127
32996,note_on,1,0,0,,12,,,59,127
33126,note_off,130,0,0,,12,,,59,127
33126,note_off,0,0,0,,6,,,78,127
33127,note_on,1,0,0,,1,,,61,127
33257,note_off,130,0,0,,1,,,61,127
33258,note_on,1,0,0,,12,,,59,127
33258,note_on,0,0,0,,1,,,73,127
33313,note_off,55,0,0,,1,,,73,127
33324,note_on,11,0,0,,1,,,73,127
33379,note_off,55,0,0,,1,,,73,127
33389,note_off,10,0,0,,12,,,59,127
33390,note_on,1,0,0,,11,,,58,127
33390,note_on,0,0,0,,1,,,73,127
33520,note_off,130,0,0,,1,,,73,127
33520,note_off,0,0,0,,11,,,58,127
33521,note_on,1,0,0,,8,,,56,127
33521,note_on,0,0,0,,1,,,73,127
33651,note_off,130,0,0,,1,,,73,127
33651,note_off,0,0,0,,8,,,56,127
33652,note_on,1,0,0,,6,,,54,127
33652,note_on,0,0,0,,6,,,78,127
33782,note_off,130,0,0,,6,,,54,127
33783,note_on,1,0,0,,8,,,56,127
33913,note_off,130,0,0,,8,,,56,127
33913,note_off,0,0,0,,6,,,78,127
33914,note_on,1,0,0,,11,,,58,127
33914,note_on,0,0,0,,1,,,73,127
34044,note_off,130,0,0,,11,,,58,127
34045,note_on,1,0,0,,12,,,59,127
34175,note_off,130,0,0,,12,,,59,127
34175,note_off,0,0,0,,1,,,73,127
34176,note_on,1,0,0,,1,,,61,127
34306,note_off,130,0,0,,1,,,61,127
34307,note_on,1,0,0,,12,,,59,127
34307,note_on,0,0,0,,1,,,73,127
34362,note_off,55,0,0,,1,,,73,127
34373,note_on,11,0,0,,1,,,73,127
34428,note_off,55,0,0,,1,,,73,127
34438,note_off,10,0,0,,12,,,59,127
34439,note_on,1,0,0,,11,,,58,127
34439,note_on,0,0,0,,1,,,73,127
34569,note_off,130,0,0,,1,,,73,127
34569,note_off,0,0,0,,11,,,58,127
34570,note_on,1,0,0,,8,,,56,127
34570,note_on,0,0,0,,1,,,73,127
34700,note_off,130,0,0,,1,,,73,127
34700,note_off,0,0,0,,8,,,56,127
34701,note_on,1,0,0,,6,,,54,127
34701,note_on,0,0,0,,11,,,82,127
34831,note_off,130,0,0,,6,,,54,127
34832,note_on,1,0,0,,8,,,56,127
34962,note_off,130,0,0,,8,,,56,127
34962,note_off,0,0,0,,11,,,82,127
34963,note_on,1,0,0,,11,,,58,127
34963,note_on,0,0,0,,1,,,73,127
35093,note_off,130,0,0,,11,,,58,127
35094,note_on,1,0,0,,12,,,59,127
35224,note_off,130,0,0,,12,,,59,127
35224,note_off,0,0,0,,1,,,73,127
35225,note_on,1,0,0,,1,,,61,127
35355,note_off,130,0,0,,1,,,61,127
35356,note_on,1,0,0,,12,,,59,127
35356,note_on,0,0,0,,1,,,73,127
35411,note_off,55,0,0,,1,,,73,127
35422,note_on,11,0,0,,1,,,73,127
35477,note_off,55,0,0,,1,,,73,127
35487,note_off,10,0,0,,12,,,59,127
35488,note_on,1,0,0,,11,,,58,127
35488,note_on,0,0,0,,1,,,73,127
35618,note_off,130,0,0,,1,,,73,127
35618,note_off,0,0,0,,11,,,58,127
35619,note_on,1,0,0,,8,,,56,127
35619,note_on,0,0,0,,1,,,73,127
35749,note_off,130,0,0,,1,,,73,127
35749,note_off,0,0,0,,8,,,56,127
35750,note_on,1,0,0,,6,,,54,127
35750,note_on,0,0,0,,6,,,78,127
35880,note_off,130,0,0,,6,,,78,127
35881,note_on,1,0,0,,1,,,73,127
36011,note_off,130,0,0,,1,,,73,127
36011,note_off,0,0,0,,6,,,54,127
36012,note_on,1,0,0,,12,,,59,127
36012,note_on,0,0,0,,11,,,82,127
36142,note_off,130,0,0,,11,,,82,127
36143,note_on,1,0,0,,12,,,83,127
36273,note_off,130,0,0,,12,,,83,127
36273,note_off,0,0,0,,12,,,59,127
36274,note_on,1,0,0,,1,,,61,127
36274,note_on,0,0,0,,11,,,82,127
36404,note_off,130,0,0,,11,,,82,127
36405,note_on,1,0,0,,8,,,80,127
36535,note_off,130,0,0,,8,,,80,127
36536,note_on,1,0,0,,1,,,49,127
36536,note_on,0,0,0,,6,,,78,127
36666,note_off,130,0,0,,6,,,78,127
36667,note_on,1,0,0,,5,,,77,127
36797,note_off,130,0,0,,5,,,77,127
36797,note_off,0,0,0,,1,,,49,127
36797,note_off,0,0,0,,1,,,61,127
36798,note_on,1,0,0,,6,,,54,127
36798,note_on,0,0,0,,8,,,80,127
36862,note_off,64,0,0,,8,,,80,127
36863,note_on,1,0,0,,6,,,78,127
36927,note_off,64,0,0,,6,,,78,127
36928,note_on,1,0,0,,8,,,80,127
36992,note_off,64,0,0,,8,,,80,127
36993,note_on,1,0,0,,6,,,78,127
37057,note_off,64,0,0,,6,,,78,127
37058,note_on,1,0,0,,1,,,61,127
37058,note_on,0,0,0,,8,,,80,127
37122,note_off,64,0,0,,8,,,80,127
37123,note_on,1,0,0,,6,,,78,127
37187,note_off,64,0,0,,6,,,78,127
37188,note_on,1,0,0,,5,,,77,127
37252,note_off,64,0,0,,5,,,77,127
37253,note_on,1,0,0,,6,,,78,127
37313,note_off,60,0,0,,6,,,54,127
37317,note_off,4,0,0,,6,,,78,127
37318,note_on,1,0,0,,5,,,53,127
37318,note_on,0,0,0,,8,,,80,127
37448,note_off,130,0,0,,8,,,80,127
37449,note_on,1,0,0,,3,,,75,127
37579,note_off,130,0,0,,3,,,75,127
37579,note_off,0,0,0,,5,,,53,127
37580,note_on,1,0,0,,1,,,49,127
37580,note_on,0,0,0,,1,,,73,127
37710,note_off,130,0,0,,1,,,73,127
37711,note_on,1,0,0,,12,,,71,127
37841,note_off,130,0,0,,12,,,71,127
37841,note_off,0,0,0,,1,,,49,127
37841,note_off,0,0,0,,1,,,61,127
37842,note_on,1,0,0,,6,,,54,127
37842,note_on,0,0,0,,11,,,70,127
37972,note_off,130,0,0,,11,,,70,127
37973,note_on,1,0,0,,11,,,70,127
38103,note_off,130,0,0,,11,,,70,127
38103,note_off,0,0,0,,6,,,54,127
38104,note_on,1,0,0,,12,,,59,127
38104,note_on,0,0,0,,12,,,71,127
38234,note_off,130,0,0,,12,,,71,127
38235,note_on,1,0,0,,1,,,73,127
38365,note_off,130,0,0,,1,,,73,127
38365,note_off,0,0,0,,12,,,59,127
38366,note_on,1,0,0,,1,,,61,127
38366,note_on,0,0,0,,11,,,70,127
38366,note_on,0,0,0,,12,,,71,127
38496,note_off,130,0,0,,12,,,71,127
38496,note_off,0,0,0,,11,,,70,127
38497,note_on,1,0,0,,8,,,68,127
38627,note_off,130,0,0,,8,,,68,127
38628,note_on,1,0,0,,1,,,49,127
38628,note_on,0,0,0,,6,,,66,127
38758,note_off,130,0,0,,6,,,66,127
38759,note_on,1,0,0,,5,,,65,127
38889,note_off,130,0,0,,5,,,65,127
38889,note_off,0,0,0,,1,,,49,127
38889,note_off,0,0,0,,1,,,61,127
38890,note_on,1,0,0,,6,,,42,127
38890,note_on,0,0,0,,6,,,54,127
38890,note_on,0,0,0,,5,,,65,127
39509,note_off,619,0,0,,5,,,65,127
39509,note_on,0,0,0,,6,,,66,127
40425,note_off,916,0,0,,6,,,66,127
40425,note_off,0,0,0,,6,,,54,127
40425,note_off,0,0,0,,6,,,42,127
40984,note_on,559,0,0,,10,,,45,127
40984,note_on,0,0,0,,4,,,52,127
40984,note_on,0,0,0,,10,,,57,127
40984,note_on,0,0,0,,10,,,69,127
40984,note_on,0,0,0,,1,,,73,127
40984,note_on,0,0,0,,4,,,76,127
40984,note_on,0,0,0,,10,,,81,127
41064,note_off,80,0,0,,10,,,69,127
41071,note_on,7,0,0,,10,,,69,127
41097,note_off,26,0,0,,10,,,81,127
41097,note_off,0,0,0,,4,,,76,127
41097,note_off,0,0,0,,1,,,73,127
41152,note_off,55,0,0,,10,,,69,127
41159,note_on,7,0,0,,10,,,69,127
41239,note_off,80,0,0,,10,,,69,127
41246,note_on,7,0,0,,10,,,69,127
41326,note_off,80,0,0,,10,,,69,127
41333,note_on,7,0,0,,10,,,69,127
41413,note_off,80,0,0,,10,,,69,127
41420,note_on,7,0,0,,10,,,69,127
41500,note_off,80,0,0,,10,,,69,127
41507,note_on,7,0,0,,10,,,69,127
41587,note_off,80,0,0,,10,,,69,127
41594,note_on,7,0,0,,10,,,69,127
41674,note_off,80,0,0,,10,,,69,127
41681,note_on,7,0,0,,10,,,69,127
41761,note_off,80,0,0,,10,,,69,127
41768,note_on,7,0,0,,10,,,69,127
41848,note_off,80,0,0,,10,,,69,127
41855,note_on,7,0,0,,10,,,69,127
41935,note_off,80,0,0,,10,,,69,127
41942,note_on,7,0,0,,10,,,69,127
42022,note_off,80,0,0,,10,,,69,127
42027,note_off,5,0,0,,10,,,57,127
42027,note_off,0,0,0,,4,,,52,127
42027,note_off,0,0,0,,10,,,45,127
42028,note_on,1,0,0,,10,,,45,127
42028,note_on,0,0,0,,7,,,55,127
42028,note_on,0,0,0,,4,,,52,127
42028,note_on,0,0,0,,10,,,69,127
42028,note_on,0,0,0,,7,,,79,127
42028,note_on,0,0,0,,4,,,76,127
42028,note_on,0,0,0,,1,,,73,127
42108,note_off,80,0,0,,10,,,69,127
42115,note_on,7,0,0,,10,,,69,127
42141,note_off,26,0,0,,1,,,73,127
42141,note_off,0,0,0,,4,,,76,127
42141,note_off,0,0,0,,7,,,79,127
42196,note_off,55,0,0,,10,,,69,127
42203,note_on,7,0,0,,10,,,69,127
42283,note_off,80,0,0,,10,,,69,127
42290,note_on,7,0,0,,10,,,69,127
42370,note_off,80,0,0,,10,,,69,127
42377,note_on,7,0,0,,10,,,69,127
42457,note_off,80,0,0,,10,,,69,127
42464,note_on,7,0,0,,10,,,69,127
42544,note_off,80,0,0,,10,,,69,127
42551,note_on,7,0,0,,10,,,69,127
42631,note_off,80,0,0,,10,,,69,127
42638,note_on,7,0,0,,10,,,69,127
42718,note_off,80,0,0,,10,,,69,127
42725,note_on,7,0,0,,10,,,69,127
42805,note_off,80,0,0,,10,,,69,127
42812,note_on,7,0,0,,10,,,69,127
42892,note_off,80,0,0,,10,,,69,127
42899,note_on,7,0,0,,10,,,69,127
42979,note_off,80,0,0,,10,,,69,127
42986,note_on,7,0,0,,10,,,69,127
43066,note_off,80,0,0,,10,,,69,127
43071,note_off,5,0,0,,4,,,52,127
43071,note_off,0,0,0,,7,,,55,127
43071,note_off,0,0,0,,10,,,45,127
43072,note_on,1,0,0,,5,,,53,127
43072,note_on,0,0,0,,2,,,50,127
43072,note_on,0,0,0,,10,,,45,127
43072,note_on,0,0,0,,10,,,57,127
43072,note_on,0,0,0,,2,,,74,127
43072,note_on,0,0,0,,10,,,69,127
43072,note_on,0,0,0,,5,,,65,127
43072,note_on,0,0,0,,5,,,77,127
43152,note_off,80,0,0,,10,,,69,127
43159,note_on,7,0,0,,10,,,69,127
43185,note_off,26,0,0,,5,,,77,127
43185,note_off,0,0,0,,5,,,65,127
43185,note_off,0,0,0,,2,,,74,127
43240,note_off,55,0,0,,10,,,69,127
43247,note_on,7,0,0,,10,,,69,127
43327,note_off,80,0,0,,10,,,69,127
43334,note_on,7,0,0,,10,,,69,127
43414,note_off,80,0,0,,10,,,69,127
43421,note_on,7,0,0,,10,,,69,127
43501,note_off,80,0,0,,10,,,69,127
43508,note_on,7,0,0,,10,,,69,127
43588,note_off,80,0,0,,10,,,69,127
43595,note_on,7,0,0,,10,,,69,127
43675,note_off,80,0,0,,10,,,69,127
43682,note_on,7,0,0,,10,,,69,127
43762,note_off,80,0,0,,10,,,69,127
43769,note_on,7,0,0,,10,,,69,127
43849,note_off,80,0,0,,10,,,69,127
43856,note_on,7,0,0,,10,,,69,127
43936,note_off,80,0,0,,10,,,69,127
43943,note_on,7,0,0,,10,,,69,127
44023,note_off,80,0,0,,10,,,69,127
44030,note_on,7,0,0,,10,,,69,127
44110,note_off,80,0,0,,10,,,69,127
44115,note_off,5,0,0,,10,,,57,127
44115,note_off,0,0,0,,10,,,45,127
44115,note_off,0,0,0,,2,,,50,127
44115,note_off,0,0,0,,5,,,53,127
44116,note_on,1,0,0,,10,,,45,127
44116,note_on,0,0,0,,7,,,55,127
44116,note_on,0,0,0,,4,,,52,127
44116,note_on,0,0,0,,10,,,69,127
44116,note_on,0,0,0,,4,,,64,127
44116,note_on,0,0,0,,4,,,76,127
44116,note_on,0,0,0,,1,,,73,127
44196,note_off,80,0,0,,10,,,69,127
44203,note_on,7,0,0,,10,,,69,127
44229,note_off,26,0,0,,1,,,73,127
44229,note_off,0,0,0,,4,,,76,127
44229,note_off,0,0,0,,4,,,64,127
44284,note_off,55,0,0,,10,,,69,127
44291,note_on,7,0,0,,10,,,69,127
44371,note_off,80,0,0,,10,,,69,127
44378,note_on,7,0,0,,10,,,69,127
44458,note_off,80,0,0,,10,,,69,127
44465,note_on,7,0,0,,10,,,69,127
44545,note_off,80,0,0,,10,,,69,127
44552,note_on,7,0,0,,10,,,69,127
44632,note_off,80,0,0,,10,,,69,127
44639,note_on,7,0,0,,10,,,69,127
44719,note_off,80,0,0,,10,,,69,127
44726,note_on,7,0,0,,10,,,69,127
44806,note_off,80,0,0,,10,,,69,127
44813,note_on,7,0,0,,10,,,69,127
44893,note_off,80,0,0,,10,,,69,127
44900,note_on,7,0,0,,10,,,69,127
44980,note_off,80,0,0,,10,,,69,127
44987,note_on,7,0,0,,10,,,69,127
45067,note_off,80,0,0,,10,,,69,127
45074,note_on,7,0,0,,10,,,69,127
45154,note_off,80,0,0,,10,,,69,127
45159,note_off,5,0,0,,4,,,52,127
45159,note_off,0,0,0,,7,,,55,127
45159,note_off,0,0,0,,10,,,45,127
45160,note_on,1,0,0,,2,,,50,127
45160,note_on,0,0,0,,10,,,45,127
45160,note_on,0,0,0,,10,,,57,127
45160,note_on,0,0,0,,5,,,53,127
45160,note_on,0,0,0,,5,,,65,127
45160,note_on,0,0,0,,10,,,69,127
45160,note_on,0,0,0,,2,,,62,127
45160,note_on,0,0,0,,2,,,74,127
45240,note_off,80,0,0,,10,,,69,127
45247,note_on,7,0,0,,10,,,69,127
45273,note_off,26,0,0,,2,,,74,127
45273,note_off,0,0,0,,2,,,62,127
45273,note_off,0,0,0,,5,,,65,127
45328,note_off,55,0,0,,10,,,69,127
45335,note_on,7,0,0,,10,,,69,127
45415,note_off,80,0,0,,10,,,69,127
45422,note_on,7,0,0,,10,,,69,127
45502,note_off,80,0,0,,10,,,69,127
45509,note_on,7,0,0,,10,,,69,127
45589,note_off,80,0,0,,10,,,69,127
45596,note_on,7,0,0,,10,,,69,127
45676,note_off,80,0,0,,10,,,69,127
45683,note_on,7,0,0,,10,,,69,127
45763,note_off,80,0,0,,10,,,69,127
45770,note_on,7,0,0,,10,,,69,127
45850,note_off,80,0,0,,10,,,69,127
45857,note_on,7,0,0,,10,,,69,127
45937,note_off,80,0,0,,10,,,69,127
45944,note_on,7,0,0,,10,,,69,127
46024,note_off,80,0,0,,10,,,69,127
46031,note_on,7,0,0,,10,,,69,127
46111,note_off,80,0,0,,10,,,69,127
46118,note_on,7,0,0,,10,,,69,127
46198,note_off,80,0,0,,10,,,69,127
46203,note_off,5,0,0,,5,,,53,127
46203,note_off,0,0,0,,10,,,57,127
46203,note_off,0,0,0,,10,,,45,127
46203,note_off,0,0,0,,2,,,50,127
46204,note_on,1,0,0,,4,,,52,127
46204,note_on,0,0,0,,10,,,57,127
46204,note_on,0,0,0,,10,,,45,127
46204,note_on,0,0,0,,1,,,73,127
46291,note_on,87,0,0,,4,,,64,127
46317,note_off,26,0,0,,1,,,73,127
46378,note_on,61,0,0,,10,,,69,127
46404,note_off,26,0,0,,4,,,64,127
46459,note_off,55,0,0,,10,,,69,127
46466,note_on,7,0,0,,10,,,69,127
46546,note_off,80,0,0,,10,,,69,127
46553,note_on,7,0,0,,10,,,69,127
46633,note_off,80,0,0,,10,,,69,127
46640,note_on,7,0,0,,10,,,69,127
46720,note_off,80,0,0,,10,,,69,127
46725,note_off,5,0,0,,10,,,45,127
46725,note_off,0,0,0,,10,,,57,127
46725,note_off,0,0,0,,4,,,52,127
46726,note_on,1,0,0,,5,,,53,127
46726,note_on,0,0,0,,2,,,50,127
46726,note_on,0,0,0,,10,,,45,127
46726,note_on,0,0,0,,10,,,57,127
46726,note_on,0,0,0,,2,,,74,127
46813,note_on,87,0,0,,5,,,65,127
46839,note_off,26,0,0,,2,,,74,127
46900,note_on,61,0,0,,10,,,69,127
46926,note_off,26,0,0,,5,,,65,127
46981,note_off,55,0,0,,10,,,69,127
46988,note_on,7,0,0,,10,,,69,127
47068,note_off,80,0,0,,10,,,69,127
47075,note_on,7,0,0,,10,,,69,127
47155,note_off,80,0,0,,10,,,69,127
47162,note_on,7,0,0,,10,,,69,127
47242,note_off,80,0,0,,10,,,69,127
47247,note_off,5,0,0,,10,,,57,127
47247,note_off,0,0,0,,10,,,45,127
47247,note_off,0,0,0,,2,,,50,127
47247,note_off,0,0,0,,5,,,53,127
47248,note_on,1,0,0,,10,,,45,127
47248,note_on,0,0,0,,4,,,52,127
47248,note_on,0,0,0,,10,,,57,127
47248,note_on,0,0,0,,1,,,73,127
47335,note_on,87,0,0,,4,,,64,127
47361,note_off,26,0,0,,1,,,73,127
47422,note_on,61,0,0,,10,,,69,127
47448,note_off,26,0,0,,4,,,64,127
47503,note_off,55,0,0,,10,,,69,127
47510,note_on,7,0,0,,10,,,69,127
47590,note_off,80,0,0,,10,,,69,127
47597,note_on,7,0,0,,10,,,69,127
47677,note_off,80,0,0,,10,,,69,127
47684,note_on,7,0,0,,10,,,69,127
47764,note_off,80,0,0,,10,,,69,127
47769,note_off,5,0,0,,10,,,57,127
47769,note_off,0,0,0,,4,,,52,127
47769,note_off,0,0,0,,10,,,45,127
47770,note_on,1,0,0,,5,,,53,127
47770,note_on,0,0,0,,2,,,50,127
47770,note_on,0,0,0,,10,,,45,127
47770,note_on,0,0,0,,10,,,57,127
47770,note_on,0,0,0,,4,,,76,127
47834,note_off,64,0,0,,4,,,76,127
47835,note_on,1,0,0,,2,,,74,127
47899,note_off,64,0,0,,2,,,74,127
47900,note_on,1,0,0,,4,,,76,127
47964,note_off,64,0,0,,4,,,76,127
47965,note_on,1,0,0,,2,,,74,127
48029,note_off,64,0,0,,2,,,74,127
48030,note_on,1,0,0,,4,,,76,127
48094,note_off,64,0,0,,4,,,76,127
48095,note_on,1,0,0,,2,,,74,127
48159,note_off,64,0,0,,2,,,74,127
48160,note_on,1,0,0,,1,,,73,127
48224,note_off,64,0,0,,1,,,73,127
48225,note_on,1,0,0,,2,,,74,127
48289,note_off,64,0,0,,2,,,74,127
48289,note_off,0,0,0,,10,,,57,127
48289,note_off,0,0,0,,10,,,45,127
48289,note_off,0,0,0,,2,,,50,127
48289,note_off,0,0,0,,5,,,53,127
48290,note_on,1,0,0,,10,,,45,127
48290,note_on,0,0,0,,10,,,57,127
48290,note_on,0,0,0,,4,,,76,127
48377,note_on,87,0,0,,2,,,74,127
48403,note_off,26,0,0,,4,,,76,127
48464,note_on,61,0,0,,1,,,73,127
48490,note_off,26,0,0,,2,,,74,127
48551,note_on,61,0,0,,12,,,71,127
48577,note_off,26,0,0,,1,,,73,127
48638,note_on,61,0,0,,10,,,69,127
48664,note_off,26,0,0,,12,,,71,127
48725,note_on,61,0,0,,8,,,68,127
48751,note_off,26,0,0,,10,,,69,127
48812,note_on,61,0,0,,10,,,69,127
48838,note_off,26,0,0,,8,,,68,127
48876,note_off,38,0,0,,10,,,69,127
48877,note_on,1,0,0,,12,,,71,127
48941,note_off,64,0,0,,12,,,71,127
48942,note_on,1,0,0,,1,,,73,127
49006,note_off,64,0,0,,1,,,73,127
49007,note_on,1,0,0,,2,,,74,127
49071,note_off,64,0,0,,2,,,74,127
49072,note_on,1,0,0,,4,,,76,127
49136,note_off,64,0,0,,4,,,76,127
49137,note_on,1,0,0,,6,,,78,127
49201,note_off,64,0,0,,6,,,78,127
49202,note_on,1,0,0,,8,,,80,127
49266,note_off,64,0,0,,8,,,80,127
49267,note_on,1,0,0,,10,,,81,127
49331,note_off,64,0,0,,10,,,81,127
49331,note_off,0,0,0,,10,,,57,127
49331,note_off,0,0,0,,10,,,45,127
49332,note_on,1,0,0,,10,,,69,127
49594,note_on,262,0,0,,7,,,67,127
49854,note_off,260,0,0,,7,,,67,127
49855,note_on,1,0,0,,6,,,66,127
50115,note_off,260,0,0,,6,,,66,127
50115,note_off,0,0,0,,10,,,69,127
50116,note_on,1,0,0,,4,,,64,127
50376,note_off,260,0,0,,4,,,64,127
50377,note_on,1,0,0,,3,,,63,127
50637,note_off,260,0,0,,3,,,63,127
50638,note_on,1,0,0,,0,,,60,127
50898,note_off,260,0,0,,0,,,60,127
50899,note_on,1,0,0,,12,,,59,127
51159,note_off,260,0,0,,12,,,59,127
51160,note_on,1,0,0,,11,,,58,127
51420,note_off,260,0,0,,11,,,58,127
51421,note_on,1,0,0,,12,,,47,127
51421,note_on,0,0,0,,3,,,51,127
51421,note_on,0,0,0,,6,,,54,127
51421,note_on,0,0,0,,12,,,59,127
51421,note_on,0,0,0,,12,,,83,127
51421,note_on,0,0,0,,6,,,78,127
51421,note_on,0,0,0,,12,,,71,127
51421,note_on,0,0,0,,3,,,75,127
51501,note_off,80,0,0,,12,,,71,127
51508,note_on,7,0,0,,12,,,71,127
51534,note_off,26,0,0,,3,,,75,127
51534,note_off,0,0,0,,6,,,78,127
51534,note_off,0,0,0,,12,,,83,127
51589,note_off,55,0,0,,12,,,71,127
51596,note_on,7,0,0,,12,,,71,127
51676,note_off,80,0,0,,12,,,71,127
51683,note_on,7,0,0,,12,,,71,127
51763,note_off,80,0,0,,12,,,71,127
51770,note_on,7,0,0,,12,,,71,127
51850,note_off,80,0,0,,12,,,71,127
51857,note_on,7,0,0,,12,,,71,127
51937,note_off,80,0,0,,12,,,71,127
51944,note_on,7,0,0,,12,,,71,127
52024,note_off,80,0,0,,12,,,71,127
52031,note_on,7,0,0,,12,,,71,127
52111,note_off,80,0,0,,12,,,71,127
52118,note_on,7,0,0,,12,,,71,127
52198,note_off,80,0,0,,12,,,71,127
52205,note_on,7,0,0,,12,,,71,127
52285,note_off,80,0,0,,12,,,71,127
52292,note_on,7,0,0,,12,,,71,127
52372,note_off,80,0,0,,12,,,71,127
52379,note_on,7,0,0,,12,,,71,127
52459,note_off,80,0,0,,12,,,71,127
52464,note_off,5,0,0,,12,,,59,127
52464,note_off,0,0,0,,6,,,54,127
52464,note_off,0,0,0,,3,,,51,127
52464,note_off,0,0,0,,12,,,47,127
52465,note_on,1,0,0,,12,,,47,127
52465,note_on,0,0,0,,6,,,54,127
52465,note_on,0,0,0,,3,,,51,127
52465,note_on,0,0,0,,12,,,59,127
52465,note_on,0,0,0,,3,,,75,127
52465,note_on,0,0,0,,12,,,71,127
52465,note_on,0,0,0,,10,,,81,127
52465,note_on,0,0,0,,6,,,78,127
52545,note_off,80,0,0,,12,,,71,127
52552,note_on,7,0,0,,12,,,71,127
52578,note_off,26,0,0,,6,,,78,127
52578,note_off,0,0,0,,10,,,81,127
52578,note_off,0,0,0,,3,,,75,127
52633,note_off,55,0,0,,12,,,71,127
52640,note_on,7,0,0,,12,,,71,127
52720,note_off,80,0,0,,12,,,71,127
52727,note_on,7,0,0,,12,,,71,127
52807,note_off,80,0,0,,12,,,71,127
52814,note_on,7,0,0,,12,,,71,127
52894,note_off,80,0,0,,12,,,71,127
52901,note_on,7,0,0,,12,,,71,127
52981,note_off,80,0,0,,12,,,71,127
52988,note_on,7,0,0,,12,,,71,127
53068,note_off,80,0,0,,12,,,71,127
53075,note_on,7,0,0,,12,,,71,127
53155,note_off,80,0,0,,12,,,71,127
53162,note_on,7,0,0,,12,,,71,127
53242,note_off,80,0,0,,12,,,71,127
53249,note_on,7,0,0,,12,,,71,127
53329,note_off,80,0,0,,12,,,71,127
53336,note_on,7,0,0,,12,,,71,127
53416,note_off,80,0,0,,12,,,71,127
53423,note_on,7,0,0,,12,,,71,127
53503,note_off,80,0,0,,12,,,71,127
53508,note_off,5,0,0,,12,,,59,127
53508,note_off,0,0,0,,3,,,51,127
53508,note_off,0,0,0,,6,,,54,127
53508,note_off,0,0,0,,12,,,47,127
53509,note_on,1,0,0,,12,,,47,127
53509,note_on,0,0,0,,4,,,52,127
53509,note_on,0,0,0,,7,,,55,127
53509,note_on,0,0,0,,7,,,67,127
53509,note_on,0,0,0,,7,,,79,127
53509,note_on,0,0,0,,12,,,71,127
53509,note_on,0,0,0,,4,,,76,127
53589,note_off,80,0,0,,12,,,71,127
53596,note_on,7,0,0,,12,,,71,127
53622,note_off,26,0,0,,4,,,76,127
53622,note_off,0,0,0,,7,,,79,127
53622,note_off,0,0,0,,7,,,67,127
53677,note_off,55,0,0,,12,,,71,127
53684,note_on,7,0,0,,12,,,71,127
53764,note_off,80,0,0,,12,,,71,127
53771,note_on,7,0,0,,12,,,71,127
53851,note_off,80,0,0,,12,,,71,127
53858,note_on,7,0,0,,12,,,71,127
53938,note_off,80,0,0,,12,,,71,127
53945,note_on,7,0,0,,12,,,71,127
54025,note_off,80,0,0,,12,,,71,127
54032,note_on,7,0,0,,12,,,71,127
54112,note_off,80,0,0,,12,,,71,127
54119,note_on,7,0,0,,12,,,71,127
54199,note_off,80,0,0,,12,,,71,127
54206,note_on,7,0,0,,12,,,71,127
54286,note_off,80,0,0,,12,,,71,127
54293,note_on,7,0,0,,12,,,71,127
54373,note_off,80,0,0,,12,,,71,127
54380,note_on,7,0,0,,12,,,71,127
54460,note_off,80,0,0,,12,,,71,127
54467,note_on,7,0,0,,12,,,71,127
54547,note_off,80,0,0,,12,,,71,127
54552,note_off,5,0,0,,7,,,55,127
54552,note_off,0,0,0,,4,,,52,127
54552,note_off,0,0,0,,12,,,47,127
54553,note_on,1,0,0,,12,,,47,127
54553,note_on,0,0,0,,12,,,59,127
54553,note_on,0,0,0,,6,,,54,127
54553,note_on,0,0,0,,3,,,51,127
54553,note_on,0,0,0,,6,,,78,127
54553,note_on,0,0,0,,12,,,71,127
54553,note_on,0,0,0,,6,,,66,127
54553,note_on,0,0,0,,3,,,75,127
54633,note_off,80,0,0,,12,,,71,127
54640,note_on,7,0,0,,12,,,71,127
54666,note_off,26,0,0,,3,,,75,127
54666,note_off,0,0,0,,6,,,66,127
54666,note_off,0,0,0,,6,,,78,127
54721,note_off,55,0,0,,12,,,71,127
54728,note_on,7,0,0,,12,,,71,127
54808,note_off,80,0,0,,12,,,71,127
54815,note_on,7,0,0,,12,,,71,127
54895,note_off,80,0,0,,12,,,71,127
54902,note_on,7,0,0,,12,,,71,127
54982,note_off,80,0,0,,12,,,71,127
54989,note_on,7,0,0,,12,,,71,127
55069,note_off,80,0,0,,12,,,71,127
55076,note_on,7,0,0,,12,,,71,127
55156,note_off,80,0,0,,12,,,71,127
55163,note_on,7,0,0,,12,,,71,127
55243,note_off,80,0,0,,12,,,71,127
55250,note_on,7,0,0,,12,,,71,127
55330,note_off,80,0,0,,12,,,71,127
55337,note_on,7,0,0,,12,,,71,127
55417,note_off,80,0,0,,12,,,71,127
55424,note_on,7,0,0,,12,,,71,127
55504,note_off,80,0,0,,12,,,71,127
55511,note_on,7,0,0,,12,,,71,127
55591,note_off,80,0,0,,12,,,71,127
55596,note_off,5,0,0,,3,,,51,127
55596,note_off,0,0,0,,6,,,54,127
55596,note_off,0,0,0,,12,,,59,127
55596,note_off,0,0,0,,12,,,47,127
55597,note_on,1,0,0,,4,,,52,127
55597,note_on,0,0,0,,12,,,47,127
55597,note_on,0,0,0,,7,,,55,127
55597,note_on,0,0,0,,12,,,59,127
55597,note_on,0,0,0,,7,,,67,127
55597,note_on,0,0,0,,4,,,76,127
55597,note_on,0,0,0,,4,,,64,127
55597,note_on,0,0,0,,12,,,71,127
55677,note_off,80,0,0,,12,,,71,127
55684,note_on,7,0,0,,12,,,71,127
55710,note_off,26,0,0,,4,,,64,127
55710,note_off,0,0,0,,4,,,76,127
55710,note_off,0,0,0,,7,,,67,127
55765,note_off,55,0,0,,12,,,71,127
55772,note_on,7,0,0,,12,,,71,127
55852,note_off,80,0,0,,12,,,71,127
55859,note_on,7,0,0,,12,,,71,127
55939,note_off,80,0,0,,12,,,71,127
55946,note_on,7,0,0,,12,,,71,127
56026,note_off,80,0,0,,12,,,71,127
56033,note_on,7,0,0,,12,,,71,127
56113,note_off,80,0,0,,12,,,71,127
56120,note_on,7,0,0,,12,,,71,127
56200,note_off,80,0,0,,12,,,71,127
56207,note_on,7,0,0,,12,,,71,127
56287,note_off,80,0,0,,12,,,71,127
56294,note_on,7,0,0,,12,,,71,127
56374,note_off,80,0,0,,12,,,71,127
56381,note_on,7,0,0,,12,,,71,127
56461,note_off,80,0,0,,12,,,71,127
56468,note_on,7,0,0,,12,,,71,127
56548,note_off,80,0,0,,12,,,71,127
56555,note_on,7,0,0,,12,,,71,127
56635,note_off,80,0,0,,12,,,71,127
56640,note_off,5,0,0,,12,,,59,127
56640,note_off,0,0,0,,7,,,55,127
56640,note_off,0,0,0,,12,,,47,127
56640,note_off,0,0,0,,4,,,52,127
56641,note_on,1,0,0,,12,,,59,127
56641,note_on,0,0,0,,6,,,54,127
56641,note_on,0,0,0,,12,,,47,127
56641,note_on,0,0,0,,3,,,75,127
56728,note_on,87,0,0,,6,,,66,127
56754,note_off,26,0,0,,3,,,75,127
56815,note_on,61,0,0,,12,,,71,127
56841,note_off,26,0,0,,6,,,66,127
56896,note_off,55,0,0,,12,,,71,127
56903,note_on,7,0,0,,12,,,71,127
56983,note_off,80,0,0,,12,,,71,127
56990,note_on,7,0,0,,12,,,71,127
57070,note_off,80,0,0,,12,,,71,127
57077,note_on,7,0,0,,12,,,71,127
57157,note_off,80,0,0,,12,,,71,127
57162,note_off,5,0,0,,12,,,47,127
57162,note_off,0,0,0,,6,,,54,127
57162,note_off,0,0,0,,12,,,59,127
57163,note_on,1,0,0,,12,,,47,127
57163,note_on,0,0,0,,7,,,55,127
57163,note_on,0,0,0,,4,,,52,127
57163,note_on,0,0,0,,12,,,59,127
57163,note_on,0,0,0,,4,,,76,127
57250,note_on,87,0,0,,7,,,67,127
57276,note_off,26,0,0,,4,,,76,127
57337,note_on,61,0,0,,12,,,71,127
57363,note_off,26,0,0,,7,,,67,127
57418,note_off,55,0,0,,12,,,71,127
57425,note_on,7,0,0,,12,,,71,127
57505,note_off,80,0,0,,12,,,71,127
57512,note_on,7,0,0,,12,,,71,127
57592,note_off,80,0,0,,12,,,71,127
57599,note_on,7,0,0,,12,,,71,127
57679,note_off,80,0,0,,12,,,71,127
57684,note_off,5,0,0,,12,,,59,127
57684,note_off,0,0,0,,4,,,52,127
57684,note_off,0,0,0,,7,,,55,127
57684,note_off,0,0,0,,12,,,47,127
57685,note_on,1,0,0,,12,,,59,127
57685,note_on,0,0,0,,6,,,54,127
57685,note_on,0,0,0,,12,,,47,127
57685,note_on,0,0,0,,3,,,75,127
57772,note_on,87,0,0,,6,,,66,127
57798,note_off,26,0,0,,3,,,75,127
57859,note_on,61,0,0,,12,,,71,127
57885,note_off,26,0,0,,6,,,66,127
57940,note_off,55,0,0,,12,,,71,127
57947,note_on,7,0,0,,12,,,71,127
58027,note_off,80,0,0,,12,,,71,127
58034,note_on,7,0,0,,12,,,71,127
58114,note_off,80,0,0,,12,,,71,127
58121,note_on,7,0,0,,12,,,71,127
58201,note_off,80,0,0,,12,,,71,127
58206,note_off,5,0,0,,12,,,47,127
58206,note_off,0,0,0,,6,,,54,127
58206,note_off,0,0,0,,12,,,59,127
58207,note_on,1,0,0,,12,,,47,127
58207,note_on,0,0,0,,7,,,55,127
58207,note_on,0,0,0,,4,,,52,127
58207,note_on,0,0,0,,12,,,59,127
58207,note_on,0,0,0,,6,,,78,127
58271,note_off,64,0,0,,6,,,78,127
58272,note_on,1,0,0,,4,,,76,127
58336,note_off,64,0,0,,4,,,76,127
58337,note_on,1,0,0,,6,,,78,127
58401,note_off,64,0,0,,6,,,78,127
58402,note_on,1,0,0,,4,,,76,127
58466,note_off,64,0,0,,4,,,76,127
58467,note_on,1,0,0,,6,,,78,127
58531,note_off,64,0,0,,6,,,78,127
58532,note_on,1,0,0,,4,,,76,127
58596,note_off,64,0,0,,4,,,76,127
58597,note_on,1,0,0,,3,,,75,127
58661,note_off,64,0,0,,3,,,75,127
58662,note_on,1,0,0,,4,,,76,127
58726,note_off,64,0,0,,4,,,76,127
58726,note_off,0,0,0,,12,,,59,127
58726,note_off,0,0,0,,4,,,52,127
58726,note_off,0,0,0,,7,,,55,127
58726,note_off,0,0,0,,12,,,47,127
58727,note_on,1,0,0,,12,,,47,127
58727,note_on,0,0,0,,12,,,59,127
58727,note_on,0,0,0,,6,,,78,127
58814,note_on,87,0,0,,4,,,76,127
58840,note_off,26,0,0,,6,,,78,127
58901,note_on,61,0,0,,3,,,75,127
58927,note_off,26,0,0,,4,,,76,127
58988,note_on,61,0,0,,1,,,73,127
59014,note_off,26,0,0,,3,,,75,127
59075,note_on,61,0,0,,12,,,71,127
59101,note_off,26,0,0,,1,,,73,127
59162,note_on,61,0,0,,11,,,70,127
59188,note_off,26,0,0,,12,,,71,127
59249,note_on,61,0,0,,12,,,71,127
59275,note_off,26,0,0,,11,,,70,127
59313,note_off,38,0,0,,12,,,71,127
59314,note_on,1,0,0,,1,,,73,127
59378,note_off,64,0,0,,1,,,73,127
59379,note_on,1,0,0,,3,,,75,127
59443,note_off,64,0,0,,3,,,75,127
59444,note_on,1,0,0,,4,,,76,127
59508,note_off,64,0,0,,4,,,76,127
59509,note_on,1,0,0,,6,,,78,127
59573,note_off,64,0,0,,6,,,78,127
59574,note_on,1,0,0,,8,,,80,127
59638,note_off,64,0,0,,8,,,80,127
59639,note_on,1,0,0,,11,,,82,127
59703,note_off,64,0,0,,11,,,82,127
59704,note_on,1,0,0,,12,,,83,127
59768,note_off,64,0,0,,12,,,83,127
59768,note_off,0,0,0,,12,,,59,127
59768,note_off,0,0,0,,12,,,47,127
59769,note_on,1,0,0,,12,,,71,127
60031,note_on,262,0,0,,10,,,69,127
60291,note_off,260,0,0,,10,,,69,127
60292,note_on,1,0,0,,7,,,67,127
60552,note_off,260,0,0,,7,,,67,127
60552,note_off,0,0,0,,12,,,71,127
60553,note_on,1,0,0,,6,,,66,127
60813,note_off,260,0,0,,6,,,66,127
60814,note_on,1,0,0,,5,,,65,127
61074,note_off,260,0,0,,5,,,65,127
61075,note_on,1,0,0,,2,,,62,127
61335,note_off,260,0,0,,2,,,62,127
61336,note_on,1,0,0,,1,,,61,127
61596,note_off,260,0,0,,1,,,61,127
61597,note_on,1,0,0,,0,,,60,127
61857,note_off,260,0,0,,0,,,60,127
61858,note_on,1,0,0,,1,,,49,127
61858,note_on,0,0,0,,1,,,61,127
61858,note_on,0,0,0,,8,,,56,127
61858,note_on,0,0,0,,8,,,80,127
61858,note_on,0,0,0,,1,,,85,127
61858,note_on,0,0,0,,1,,,73,127
61858,note_on,0,0,0,,5,,,77,127
61938,note_off,80,0,0,,1,,,73,127
61945,note_on,7,0,0,,1,,,73,127
61971,note_off,26,0,0,,5,,,77,127
61971,note_off,0,0,0,,1,,,85,127
61971,note_off,0,0,0,,8,,,80,127
62026,note_off,55,0,0,,1,,,73,127
62033,note_on,7,0,0,,1,,,73,127
62113,note_off,80,0,0,,1,,,73,127
62120,note_on,7,0,0,,1,,,73,127
62200,note_off,80,0,0,,1,,,73,127
62207,note_on,7,0,0,,1,,,73,127
62287,note_off,80,0,0,,1,,,73,127
62294,note_on,7,0,0,,1,,,73,127
62374,note_off,80,0,0,,1,,,73,127
62381,note_on,7,0,0,,1,,,73,127
62461,note_off,80,0,0,,1,,,73,127
62468,note_on,7,0,0,,1,,,73,127
62548,note_off,80,0,0,,1,,,73,127
62555,note_on,7,0,0,,1,,,73,127
62635,note_off,80,0,0,,1,,,73,127
62642,note_on,7,0,0,,1,,,73,127
62722,note_off,80,0,0,,1,,,73,127
62729,note_on,7,0,0,,1,,,73,127
62809,note_off,80,0,0,,1,,,73,127
62816,note_on,7,0,0,,1,,,73,127
62896,note_off,80,0,0,,1,,,73,127
62901,note_off,5,0,0,,8,,,56,127
62901,note_off,0,0,0,,1,,,61,127
62901,note_off,0,0,0,,1,,,49,127
62902,note_on,1,0,0,,1,,,49,127
62902,note_on,0,0,0,,5,,,53,127
62902,note_on,0,0,0,,8,,,56,127
62902,note_on,0,0,0,,12,,,59,127
62902,note_on,0,0,0,,12,,,83,127
62902,note_on,0,0,0,,5,,,77,127
62902,note_on,0,0,0,,8,,,80,127
62902,note_on,0,0,0,,1,,,73,127
62982,note_off,80,0,0,,1,,,73,127
62989,note_on,7,0,0,,1,,,73,127
63015,note_off,26,0,0,,8,,,80,127
63015,note_off,0,0,0,,5,,,77,127
63015,note_off,0,0,0,,12,,,83,127
63070,note_off,55,0,0,,1,,,73,127
63077,note_on,7,0,0,,1,,,73,127
63157,note_off,80,0,0,,1,,,73,127
63164,note_on,7,0,0,,1,,,73,127
63244,note_off,80,0,0,,1,,,73,127
63251,note_on,7,0,0,,1,,,73,127
63331,note_off,80,0,0,,1,,,73,127
63338,note_on,7,0,0,,1,,,73,127
63418,note_off,80,0,0,,1,,,73,127
63425,note_on,7,0,0,,1,,,73,127
63505,note_off,80,0,0,,1,,,73,127
63512,note_on,7,0,0,,1,,,73,127
63592,note_off,80,0,0,,1,,,73,127
63599,note_on,7,0,0,,1,,,73,127
63679,note_off,80,0,0,,1,,,73,127
63686,note_on,7,0,0,,1,,,73,127
63766,note_off,80,0,0,,1,,,73,127
63773,note_on,7,0,0,,1,,,73,127
63853,note_off,80,0,0,,1,,,73,127
63860,note_on,7,0,0,,1,,,73,127
63940,note_off,80,0,0,,1,,,73,127
63945,note_off,5,0,0,,12,,,59,127
63945,note_off,0,0,0,,8,,,56,127
63945,note_off,0,0,0,,5,,,53,127
63945,note_off,0,0,0,,1,,,49,127
63946,note_on,1,0,0,,1,,,49,127
63946,note_on,0,0,0,,6,,,54,127
63946,note_on,0,0,0,,1,,,61,127
63946,note_on,0,0,0,,10,,,57,127
63946,note_on,0,0,0,,1,,,73,127
63946,note_on,0,0,0,,10,,,81,127
63946,note_on,0,0,0,,6,,,78,127
63946,note_on,0,0,0,,10,,,69,127
64026,note_off,80,0,0,,1,,,73,127
64033,note_on,7,0,0,,1,,,73,127
64059,note_off,26,0,0,,10,,,69,127
64059,note_off,0,0,0,,6,,,78,127
64059,note_off,0,0,0,,10,,,81,127
64114,note_off,55,0,0,,1,,,73,127
64121,note_on,7,0,0,,1,,,73,127
64201,note_off,80,0,0,,1,,,73,127
64208,note_on,7,0,0,,1,,,73,127
64288,note_off,80,0,0,,1,,,73,127
64295,note_on,7,0,0,,1,,,73,127
64375,note_off,80,0,0,,1,,,73,127
64382,note_on,7,0,0,,1,,,73,127
64462,note_off,80,0,0,,1,,,73,127
64469,note_on,7,0,0,,1,,,73,127
64549,note_off,80,0,0,,1,,,73,127
64556,note_on,7,0,0,,1,,,73,127
64636,note_off,80,0,0,,1,,,73,127
64643,note_on,7,0,0,,1,,,73,127
64723,note_off,80,0,0,,1,,,73,127
64730,note_on,7,0,0,,1,,,73,127
64810,note_off,80,0,0,,1,,,73,127
64817,note_on,7,0,0,,1,,,73,127
64897,note_off,80,0,0,,1,,,73,127
64904,note_on,7,0,0,,1,,,73,127
64984,note_off,80,0,0,,1,,,73,127
64989,note_off,5,0,0,,10,,,57,127
64989,note_off,0,0,0,,1,,,61,127
64989,note_off,0,0,0,,6,,,54,127
64989,note_off,0,0,0,,1,,,49,127
64990,note_on,1,0,0,,1,,,49,127
64990,note_on,0,0,0,,5,,,53,127
64990,note_on,0,0,0,,8,,,56,127
64990,note_on,0,0,0,,1,,,61,127
64990,note_on,0,0,0,,1,,,73,127
64990,note_on,0,0,0,,8,,,80,127
64990,note_on,0,0,0,,8,,,68,127
64990,note_on,0,0,0,,5,,,77,127
65070,note_off,80,0,0,,1,,,73,127
65077,note_on,7,0,0,,1,,,73,127
65103,note_off,26,0,0,,5,,,77,127
65103,note_off,0,0,0,,8,,,68,127
65103,note_off,0,0,0,,8,,,80,127
65158,note_off,55,0,0,,1,,,73,127
65165,note_on,7,0,0,,1,,,73,127
65245,note_off,80,0,0,,1,,,73,127
65252,note_on,7,0,0,,1,,,73,127
65332,note_off,80,0,0,,1,,,73,127
65339,note_on,7,0,0,,1,,,73,127
65419,note_off,80,0,0,,1,,,73,127
65426,note_on,7,0,0,,1,,,73,127
65506,note_off,80,0,0,,1,,,73,127
65513,note_on,7,0,0,,1,,,73,127
65593,note_off,80,0,0,,1,,,73,127
65600,note_on,7,0,0,,1,,,73,127
65680,note_off,80,0,0,,1,,,73,127
65687,note_on,7,0,0,,1,,,73,127
65767,note_off,80,0,0,,1,,,73,127
65774,note_on,7,0,0,,1,,,73,127
65854,note_off,80,0,0,,1,,,73,127
65861,note_on,7,0,0,,1,,,73,127
65941,note_off,80,0,0,,1,,,73,127
65948,note_on,7,0,0,,1,,,73,127
66028,note_off,80,0,0,,1,,,73,127
66033,note_off,5,0,0,,1,,,61,127
66033,note_off,0,0,0,,8,,,56,127
66033,note_off,0,0,0,,5,,,53,127
66033,note_off,0,0,0,,1,,,49,127
66034,note_on,1,0,0,,1,,,61,127
66034,note_on,0,0,0,,1,,,49,127
66034,note_on,0,0,0,,10,,,57,127
66034,note_on,0,0,0,,6,,,54,127
66034,note_on,0,0,0,,1,,,73,127
66034,note_on,0,0,0,,10,,,69,127
66034,note_on,0,0,0,,6,,,66,127
66034,note_on,0,0,0,,6,,,78,127
66114,note_off,80,0,0,,1,,,73,127
66121,note_on,7,0,0,,1,,,73,127
66147,note_off,26,0,0,,6,,,78,127
66147,note_off,0,0,0,,6,,,66,127
66147,note_off,0,0,0,,10,,,69,127
66202,note_off,55,0,0,,1,,,73,127
66209,note_on,7,0,0,,1,,,73,127
66289,note_off,80,0,0,,1,,,73,127
66296,note_on,7,0,0,,1,,,73,127
66376,note_off,80,0,0,,1,,,73,127
66383,note_on,7,0,0,,1,,,73,127
66463,note_off,80,0,0,,1,,,73,127
66470,note_on,7,0,0,,1,,,73,127
66550,note_off,80,0,0,,1,,,73,127
66557,note_on,7,0,0,,1,,,73,127
66637,note_off,80,0,0,,1,,,73,127
66644,note_on,7,0,0,,1,,,73,127
66724,note_off,80,0,0,,1,,,73,127
66731,note_on,7,0,0,,1,,,73,127
66811,note_off,80,0,0,,1,,,73,127
66818,note_on,7,0,0,,1,,,73,127
66898,note_off,80,0,0,,1,,,73,127
66905,note_on,7,0,0,,1,,,73,127
66985,note_off,80,0,0,,1,,,73,127
66992,note_on,7,0,0,,1,,,73,127
67072,note_off,80,0,0,,1,,,73,127
67077,note_off,5,0,0,,6,,,54,127
67077,note_off,0,0,0,,10,,,57,127
67077,note_off,0,0,0,,1,,,49,127
67077,note_off,0,0,0,,1,,,61,127
67078,note_on,1,0,0,,8,,,56,127
67078,note_on,0,0,0,,1,,,49,127
67078,note_on,0,0,0,,1,,,61,127
67078,note_on,0,0,0,,5,,,77,127
67165,note_on,87,0,0,,8,,,68,127
67191,note_off,26,0,0,,5,,,77,127
67252,note_on,61,0,0,,1,,,73,127
67278,note_off,26,0,0,,8,,,68,127
67333,note_off,55,0,0,,1,,,73,127
67340,note_on,7,0,0,,1,,,73,127
67420,note_off,80,0,0,,1,,,73,127
67427,note_on,7,0,0,,1,,,73,127
67507,note_off,80,0,0,,1,,,73,127
67514,note_on,7,0,0,,1,,,73,127
67594,note_off,80,0,0,,1,,,73,127
67599,note_off,5,0,0,,1,,,61,127
67599,note_off,0,0,0,,1,,,49,127
67599,note_off,0,0,0,,8,,,56,127
67600,note_on,1,0,0,,1,,,49,127
67600,note_on,0,0,0,,6,,,54,127
67600,note_on,0,0,0,,1,,,61,127
67600,note_on,0,0,0,,10,,,57,127
67600,note_on,0,0,0,,6,,,78,127
67687,note_on,87,0,0,,10,,,69,127
67713,note_off,26,0,0,,6,,,78,127
67774,note_on,61,0,0,,1,,,73,127
67800,note_off,26,0,0,,10,,,69,127
67855,note_off,55,0,0,,1,,,73,127
67862,note_on,7,0,0,,1,,,73,127
67942,note_off,80,0,0,,1,,,73,127
67949,note_on,7,0,0,,1,,,73,127
68029,note_off,80,0,0,,1,,,73,127
68036,note_on,7,0,0,,1,,,73,127
68116,note_off,80,0,0,,1,,,73,127
68121,note_off,5,0,0,,10,,,57,127
68121,note_off,0,0,0,,1,,,61,127
68121,note_off,0,0,0,,6,,,54,127
68121,note_off,0,0,0,,1,,,49,127
68122,note_on,1,0,0,,8,,,56,127
68122,note_on,0,0,0,,1,,,61,127
68122,note_on,0,0,0,,1,,,49,127
68122,note_on,0,0,0,,5,,,77,127
68209,note_on,87,0,0,,8,,,68,127
68235,note_off,26,0,0,,5,,,77,127
68296,note_on,61,0,0,,1,,,73,127
68322,note_off,26,0,0,,8,,,68,127
68377,note_off,55,0,0,,1,,,73,127
68384,note_on,7,0,0,,1,,,73,127
68464,note_off,80,0,0,,1,,,73,127
68471,note_on,7,0,0,,1,,,73,127
68551,note_off,80,0,0,,1,,,73,127
68558,note_on,7,0,0,,1,,,73,127
68638,note_off,80,0,0,,1,,,73,127
68643,note_off,5,0,0,,1,,,49,127
68643,note_off,0,0,0,,1,,,61,127
68643,note_off,0,0,0,,8,,,56,127
68644,note_on,1,0,0,,1,,,49,127
68644,note_on,0,0,0,,6,,,54,127
68644,note_on,0,0,0,,1,,,61,127
68644,note_on,0,0,0,,10,,,57,127
68644,note_on,0,0,0,,8,,,80,127
68708,note_off,64,0,0,,8,,,80,127
68709,note_on,1,0,0,,6,,,78,127
68773,note_off,64,0,0,,6,,,78,127
68774,note_on,1,0,0,,8,,,80,127
68838,note_off,64,0,0,,8,,,80,127
68839,note_on,1,0,0,,6,,,78,127
68903,note_off,64,0,0,,6,,,78,127
68904,note_on,1,0,0,,8,,,80,127
68968,note_off,64,0,0,,8,,,80,127
68969,note_on,1,0,0,,6,,,78,127
69033,note_off,64,0,0,,6,,,78,127
69034,note_on,1,0,0,,5,,,77,127
69098,note_off,64,0,0,,5,,,77,127
69099,note_on,1,0,0,,6,,,78,127
69163,note_off,64,0,0,,6,,,78,127
69163,note_off,0,0,0,,10,,,57,127
69163,note_off,0,0,0,,1,,,61,127
69163,note_off,0,0,0,,6,,,54,127
69163,note_off,0,0,0,,1,,,49,127
69164,note_on,1,0,0,,1,,,49,127
69164,note_on,0,0,0,,1,,,61,127
69164,note_on,0,0,0,,8,,,80,127
69251,note_on,87,0,0,,6,,,78,127
69277,note_off,26,0,0,,8,,,80,127
69338,note_on,61,0,0,,5,,,77,127
69364,note_off,26,0,0,,6,,,78,127
69425,note_on,61,0,0,,3,,,75,127
69451,note_off,26,0,0,,5,,,77,127
69512,note_on,61,0,0,,1,,,73,127
69538,note_off,26,0,0,,3,,,75,127
69599,note_on,61,0,0,,0,,,72,127
69625,note_off,26,0,0,,1,,,73,127
69686,note_on,61,0,0,,1,,,73,127
69712,note_off,26,0,0,,0,,,72,127
69750,note_off,38,0,0,,1,,,73,127
69751,note_on,1,0,0,,3,,,75,127
69815,note_off,64,0,0,,3,,,75,127
69816,note_on,1,0,0,,5,,,77,127
69880,note_off,64,0,0,,5,,,77,127
69881,note_on,1,0,0,,6,,,78,127
69945,note_off,64,0,0,,6,,,78,127
69946,note_on,1,0,0,,8,,,80,127
70010,note_off,64,0,0,,8,,,80,127
70011,note_on,1,0,0,,11,,,82,127
70075,note_off,64,0,0,,11,,,82,127
70076,note_on,1,0,0,,0,,,84,127
70140,note_off,64,0,0,,0,,,84,127
70141,note_on,1,0,0,,1,,,85,127
70205,note_off,64,0,0,,1,,,85,127
70205,note_off,0,0,0,,1,,,61,127
70205,note_off,0,0,0,,1,,,49,127
70206,note_on,1,0,0,,1,,,49,127
70206,note_on,0,0,0,,1,,,73,127
70336,note_off,130,0,0,,1,,,49,127
70337,note_on,1,0,0,,6,,,54,127
70467,note_off,130,0,0,,6,,,54,127
70468,note_on,1,0,0,,5,,,53,127
70598,note_off,130,0,0,,5,,,53,127
70599,note_on,1,0,0,,12,,,59,127
70729,note_off,130,0,0,,12,,,59,127
70729,note_off,0,0,0,,1,,,73,127
70730,note_on,1,0,0,,10,,,57,127
70860,note_off,130,0,0,,10,,,57,127
70861,note_on,1,0,0,,2,,,62,127
70991,note_off,130,0,0,,2,,,62,127
70992,note_on,1,0,0,,1,,,61,127
71122,note_off,130,0,0,,1,,,61,127
71123,note_on,1,0,0,,12,,,59,127
71253,note_off,130,0,0,,12,,,59,127
71254,note_on,1,0,0,,12,,,59,127
71384,note_off,130,0,0,,12,,,59,127
71385,note_on,1,0,0,,10,,,57,127
71515,note_off,130,0,0,,10,,,57,127
71516,note_on,1,0,0,,8,,,56,127
71646,note_off,130,0,0,,8,,,56,127
71647,note_on,1,0,0,,6,,,54,127
71777,note_off,130,0,0,,6,,,54,127
71778,note_on,1,0,0,,5,,,53,127
71909,note_on,131,0,0,,2,,,74,127
72039,note_off,130,0,0,,2,,,74,127
72039,note_off,0,0,0,,5,,,53,127
72040,note_on,1,0,0,,1,,,49,127
72040,note_on,0,0,0,,1,,,73,127
72170,note_off,130,0,0,,1,,,73,127
72171,note_on,1,0,0,,12,,,71,127
72301,note_off,130,0,0,,12,,,71,127
72301,note_off,0,0,0,,1,,,49,127
72302,note_on,1,0,0,,6,,,54,127
72302,note_on,0,0,0,,12,,,71,127
72432,note_off,130,0,0,,12,,,71,127
72433,note_on,1,0,0,,10,,,69,127
72563,note_off,130,0,0,,10,,,69,127
72563,note_off,0,0,0,,6,,,54,127
72564,note_on,1,0,0,,12,,,47,127
72564,note_on,0,0,0,,8,,,68,127
72694,note_off,130,0,0,,8,,,68,127
72695,note_on,1,0,0,,6,,,66,127
72825,note_off,130,0,0,,6,,,66,127
72825,note_off,0,0,0,,12,,,47,127
72826,note_on,1,0,0,,1,,,49,127
72826,note_on,0,0,0,,5,,,65,127
72956,note_off,130,0,0,,1,,,49,127
72957,note_on,1,0,0,,6,,,54,127
73087,note_off,130,0,0,,6,,,54,127
73088,note_on,1,0,0,,5,,,53,127
73218,note_off,130,0,0,,5,,,53,127
73219,note_off,1,0,0,,5,,,65,127
73219,note_on,0,0,0,,12,,,59,127
73349,note_off,130,0,0,,12,,,59,127
73350,note_on,1,0,0,,10,,,57,127
73480,note_off,130,0,0,,10,,,57,127
73481,note_on,1,0,0,,2,,,62,127
73611,note_off,130,0,0,,2,,,62,127
73612,note_on,1,0,0,,1,,,61,127
73742,note_off,130,0,0,,1,,,61,127
73743,note_on,1,0,0,,12,,,59,127
73873,note_off,130,0,0,,12,,,59,127
73874,note_on,1,0,0,,12,,,59,127
74004,note_off,130,0,0,,12,,,59,127
74005,note_on,1,0,0,,10,,,57,127
74135,note_off,130,0,0,,10,,,57,127
74136,note_on,1,0,0,,8,,,56,127
74266,note_off,130,0,0,,8,,,56,127
74267,note_on,1,0,0,,6,,,54,127
74397,note_off,130,0,0,,6,,,54,127
74398,note_on,1,0,0,,5,,,53,127
74529,note_on,131,0,0,,2,,,74,127
74659,note_off,130,0,0,,2,,,74,127
74659,note_off,0,0,0,,5,,,53,127
74660,note_on,1,0,0,,1,,,49,127
74660,note_on,0,0,0,,1,,,73,127
74790,note_off,130,0,0,,1,,,73,127
74791,note_on,1,0,0,,12,,,71,127
74921,note_off,130,0,0,,12,,,71,127
74921,note_off,0,0,0,,1,,,49,127
74922,note_on,1,0,0,,6,,,54,127
74922,note_on,0,0,0,,12,,,71,127
75052,note_off,130,0,0,,12,,,71,127
75053,note_on,1,0,0,,10,,,69,127
75183,note_off,130,0,0,,10,,,69,127
75183,note_off,0,0,0,,6,,,54,127
75184,note_on,1,0,0,,12,,,47,127
75184,note_on,0,0,0,,8,,,68,127
75314,note_off,130,0,0,,8,,,68,127
75315,note_on,1,0,0,,6,,,66,127
75445,note_off,130,0,0,,6,,,66,127
75445,note_off,0,0,0,,12,,,47,127
75446,note_on,1,0,0,,1,,,49,127
75446,note_on,0,0,0,,5,,,65,127
75576,note_off,130,0,0,,5,,,65,127
75577,note_on,1,0,0,,6,,,66,127
75707,note_off,130,0,0,,6,,,66,127
75707,note_off,0,0,0,,1,,,49,127
75708,note_on,1,0,0,,12,,,47,127
75708,note_on,0,0,0,,6,,,66,127
75838,note_off,130,0,0,,6,,,66,127
75839,note_on,1,0,0,,7,,,67,127
75969,note_off,130,0,0,,7,,,67,127
75969,note_off,0,0,0,,12,,,47,127
75970,note_on,1,0,0,,11,,,46,127
75970,note_on,0,0,0,,1,,,73,127
75970,note_on,0,0,0,,7,,,67,127
76100,note_off,130,0,0,,7,,,67,127
76101,note_on,1,0,0,,6,,,66,127
76231,note_off,130,0,0,,6,,,66,127
76231,note_off,0,0,0,,11,,,46,127
76232,note_on,1,0,0,,6,,,42,127
76232,note_on,0,0,0,,6,,,66,127
76362,note_off,130,0,0,,6,,,66,127
76363,note_on,1,0,0,,4,,,64,127
76493,note_off,130,0,0,,4,,,64,127
76493,note_off,0,0,0,,6,,,42,127
76494,note_on,1,0,0,,12,,,47,127
76494,note_on,0,0,0,,2,,,62,127
76624,note_off,130,0,0,,2,,,62,127
76625,note_on,1,0,0,,4,,,64,127
76755,note_off,130,0,0,,4,,,64,127
76755,note_off,0,0,0,,12,,,47,127
76756,note_on,1,0,0,,10,,,45,127
76756,note_on,0,0,0,,4,,,64,127
76886,note_off,130,0,0,,4,,,64,127
76887,note_on,1,0,0,,6,,,66,127
77017,note_off,130,0,0,,6,,,66,127
77017,note_off,0,0,0,,10,,,45,127
77017,note_off,0,0,0,,1,,,73,127
77018,note_on,1,0,0,,8,,,44,127
77018,note_on,0,0,0,,12,,,71,127
77018,note_on,0,0,0,,6,,,66,127
77148,note_off,130,0,0,,6,,,66,127
77149,note_on,1,0,0,,4,,,64,127
77279,note_off,130,0,0,,4,,,64,127
77279,note_off,0,0,0,,8,,,44,127
77280,note_on,1,0,0,,4,,,40,127
77280,note_on,0,0,0,,4,,,64,127
77410,note_off,130,0,0,,4,,,64,127
77411,note_on,1,0,0,,2,,,62,127
77541,note_off,130,0,0,,2,,,62,127
77541,note_off,0,0,0,,4,,,40,127
77541,note_off,0,0,0,,12,,,71,127
77542,note_on,1,0,0,,10,,,45,127
77542,note_on,0,0,0,,1,,,61,127
77672,note_off,130,0,0,,1,,,61,127
77673,note_on,1,0,0,,10,,,69,127
77803,note_off,130,0,0,,10,,,69,127
77804,note_on,1,0,0,,10,,,69,127
77934,note_off,130,0,0,,10,,,69,127
77935,note_on,1,0,0,,8,,,68,127
78065,note_off,130,0,0,,8,,,68,127
78065,note_off,0,0,0,,10,,,45,127
78066,note_on,1,0,0,,10,,,57,127
78066,note_on,0,0,0,,10,,,69,127
78196,note_off,130,0,0,,10,,,69,127
78197,note_on,1,0,0,,1,,,73,127
78327,note_off,130,0,0,,1,,,73,127
78328,note_on,1,0,0,,1,,,73,127
78458,note_off,130,0,0,,1,,,73,127
78459,note_on,1,0,0,,0,,,72,127
78589,note_off,130,0,0,,0,,,72,127
78589,note_off,0,0,0,,10,,,57,127
78590,note_on,1,0,0,,8,,,56,127
78590,note_on,0,0,0,,1,,,73,127
78720,note_off,130,0,0,,1,,,73,127
78721,note_on,1,0,0,,10,,,81,127
78851,note_off,130,0,0,,10,,,81,127
78852,note_on,1,0,0,,8,,,80,127
78982,note_off,130,0,0,,8,,,80,127
78983,note_on,1,0,0,,6,,,78,127
79113,note_off,130,0,0,,6,,,78,127
79114,note_on,1,0,0,,8,,,44,127
79114,note_on,0,0,0,,4,,,76,127
79244,note_off,130,0,0,,4,,,76,127
79245,note_on,1,0,0,,3,,,75,127
79375,note_off,130,0,0,,3,,,75,127
79376,note_on,1,0,0,,1,,,73,127
79506,note_off,130,0,0,,1,,,73,127
79507,note_on,1,0,0,,0,,,72,127
79637,note_off,130,0,0,,0,,,72,127
79637,note_off,0,0,0,,8,,,44,127
79637,note_off,0,0,0,,8,,,56,127
79638,note_on,1,0,0,,1,,,49,127
79638,note_on,0,0,0,,1,,,73,127
79768,note_off,130,0,0,,1,,,73,127
79769,note_on,1,0,0,,4,,,76,127
79899,note_off,130,0,0,,4,,,76,127
79900,note_on,1,0,0,,4,,,76,127
80030,note_off,130,0,0,,4,,,76,127
80031,note_on,1,0,0,,3,,,75,127
80161,note_off,130,0,0,,3,,,75,127
80161,note_off,0,0,0,,1,,,49,127
80162,note_on,1,0,0,,1,,,61,127
80162,note_on,0,0,0,,3,,,75,127
80292,note_off,130,0,0,,3,,,75,127
80293,note_on,1,0,0,,8,,,80,127
80423,note_off,130,0,0,,8,,,80,127
80424,note_on,1,0,0,,8,,,80,127
80554,note_off,130,0,0,,8,,,80,127
80555,note_on,1,0,0,,6,,,78,127
80685,note_off,130,0,0,,6,,,78,127
80685,note_off,0,0,0,,1,,,61,127
80686,note_on,1,0,0,,12,,,59,127
80686,note_on,0,0,0,,8,,,80,127
80816,note_off,130,0,0,,8,,,80,127
80817,note_on,1,0,0,,1,,,85,127
80947,note_off,130,0,0,,1,,,85,127
80948,note_on,1,0,0,,12,,,83,127
81078,note_off,130,0,0,,12,,,83,127
81079,note_on,1,0,0,,10,,,81,127
81209,note_off,130,0,0,,10,,,81,127
81210,note_on,1,0,0,,12,,,47,127
81210,note_on,0,0,0,,8,,,80,127
81340,note_off,130,0,0,,8,,,80,127
81341,note_on,1,0,0,,6,,,78,127
81471,note_off,130,0,0,,6,,,78,127
81472,note_on,1,0,0,,4,,,76,127
81602,note_off,130,0,0,,4,,,76,127
81603,note_on,1,0,0,,3,,,75,127
81733,note_off,130,0,0,,3,,,75,127
81733,note_off,0,0,0,,12,,,47,127
81733,note_off,0,0,0,,12,,,59,127
81734,note_on,1,0,0,,4,,,40,127
81734,note_on,0,0,0,,4,,,76,127
81865,note_on,131,0,0,,4,,,64,127
81993,note_off,128,0,0,,4,,,76,127
81994,note_off,1,0,0,,4,,,64,127
81995,note_on,1,0,0,,4,,,64,127
82125,note_off,130,0,0,,4,,,64,127
82126,note_on,1,0,0,,3,,,63,127
82256,note_off,130,0,0,,3,,,63,127
82256,note_off,0,0,0,,4,,,40,127
82257,note_on,1,0,0,,4,,,52,127
82257,note_on,0,0,0,,4,,,64,127
82387,note_off,130,0,0,,4,,,64,127
82388,note_on,1,0,0,,8,,,68,127
82518,note_off,130,0,0,,8,,,68,127
82519,note_on,1,0,0,,8,,,68,127
82649,note_off,130,0,0,,8,,,68,127
82650,note_on,1,0,0,,7,,,67,127
82780,note_off,130,0,0,,7,,,67,127
82780,note_off,0,0,0,,4,,,52,127
82781,note_on,1,0,0,,3,,,51,127
82781,note_on,0,0,0,,8,,,68,127
82911,note_off,130,0,0,,8,,,68,127
82912,note_on,1,0,0,,4,,,76,127
83042,note_off,130,0,0,,4,,,76,127
83043,note_on,1,0,0,,3,,,75,127
83173,note_off,130,0,0,,3,,,75,127
83174,note_on,1,0,0,,1,,,73,127
83304,note_off,130,0,0,,1,,,73,127
83305,note_on,1,0,0,,3,,,39,127
83305,note_on,0,0,0,,12,,,71,127
83435,note_off,130,0,0,,12,,,71,127
83436,note_on,1,0,0,,11,,,70,127
83566,note_off,130,0,0,,11,,,70,127
83567,note_on,1,0,0,,8,,,68,127
83697,note_off,130,0,0,,8,,,68,127
83698,note_on,1,0,0,,7,,,67,127
83828,note_off,130,0,0,,7,,,67,127
83828,note_off,0,0,0,,3,,,39,127
83828,note_off,0,0,0,,3,,,51,127
83829,note_on,1,0,0,,8,,,44,127
83829,note_on,0,0,0,,8,,,68,127
83959,note_off,130,0,0,,8,,,68,127
83960,note_on,1,0,0,,12,,,71,127
84090,note_off,130,0,0,,12,,,71,127
84091,note_on,1,0,0,,12,,,71,127
84221,note_off,130,0,0,,12,,,71,127
84222,note_on,1,0,0,,11,,,70,127
84352,note_off,130,0,0,,11,,,70,127
84352,note_off,0,0,0,,8,,,44,127
84353,note_on,1,0,0,,8,,,56,127
84353,note_on,0,0,0,,12,,,71,127
84483,note_off,130,0,0,,12,,,71,127
84484,note_on,1,0,0,,3,,,75,127
84614,note_off,130,0,0,,3,,,75,127
84615,note_on,1,0,0,,3,,,75,127
84745,note_off,130,0,0,,3,,,75,127
84746,note_on,1,0,0,,1,,,73,127
84876,note_off,130,0,0,,1,,,73,127
84876,note_off,0,0,0,,8,,,56,127
84877,note_on,1,0,0,,6,,,54,127
84877,note_on,0,0,0,,3,,,75,127
85007,note_off,130,0,0,,3,,,75,127
85008,note_on,1,0,0,,8,,,80,127
85138,note_off,130,0,0,,8,,,80,127
85139,note_on,1,0,0,,6,,,78,127
85269,note_off,130,0,0,,6,,,78,127
85270,note_on,1,0,0,,4,,,76,127
85400,note_off,130,0,0,,4,,,76,127
85401,note_on,1,0,0,,6,,,42,127
85401,note_on,0,0,0,,3,,,75,127
85531,note_off,130,0,0,,3,,,75,127
85532,note_on,1,0,0,,1,,,73,127
85662,note_off,130,0,0,,1,,,73,127
85663,note_on,1,0,0,,12,,,71,127
85793,note_off,130,0,0,,12,,,71,127
85794,note_on,1,0,0,,11,,,70,127
85924,note_off,130,0,0,,11,,,70,127
85924,note_off,0,0,0,,6,,,42,127
85924,note_off,0,0,0,,6,,,54,127
85925,note_on,1,0,0,,12,,,59,127
85925,note_on,0,0,0,,11,,,70,127
86055,note_off,130,0,0,,11,,,70,127
86056,note_on,1,0,0,,12,,,71,127
86186,note_off,130,0,0,,12,,,71,127
86186,note_off,0,0,0,,12,,,59,127
86187,note_on,1,0,0,,3,,,63,127
86187,note_on,0,0,0,,12,,,83,127
86317,note_off,130,0,0,,12,,,83,127
86318,note_on,1,0,0,,6,,,78,127
86448,note_off,130,0,0,,6,,,78,127
86448,note_off,0,0,0,,3,,,63,127
86449,note_on,1,0,0,,4,,,64,127
86449,note_on,0,0,0,,8,,,80,127
86579,note_off,130,0,0,,8,,,80,127
86580,note_on,1,0,0,,4,,,76,127
86710,note_off,130,0,0,,4,,,76,127
86710,note_off,0,0,0,,4,,,64,127
86711,note_on,1,0,0,,11,,,58,127
86711,note_on,0,0,0,,6,,,78,127
86841,note_off,130,0,0,,6,,,78,127
86842,note_on,1,0,0,,1,,,73,127
86972,note_off,130,0,0,,11,,,58,127
86973,note_on,1,0,0,,12,,,59,127
87103,note_off,130,0,0,,1,,,73,127
87104,note_on,1,0,0,,3,,,75,127
87234,note_off,130,0,0,,3,,,75,127
87234,note_off,0,0,0,,12,,,59,127
87235,note_on,1,0,0,,3,,,63,127
87235,note_on,0,0,0,,12,,,83,127
87365,note_off,130,0,0,,12,,,83,127
87366,note_on,1,0,0,,6,,,78,127
87496,note_off,130,0,0,,6,,,78,127
87496,note_off,0,0,0,,3,,,63,127
87497,note_on,1,0,0,,4,,,64,127
87497,note_on,0,0,0,,8,,,80,127
87627,note_off,130,0,0,,8,,,80,127
87628,note_on,1,0,0,,4,,,76,127
87758,note_off,130,0,0,,4,,,76,127
87758,note_off,0,0,0,,4,,,64,127
87759,note_on,1,0,0,,11,,,58,127
87759,note_on,0,0,0,,6,,,78,127
87889,note_off,130,0,0,,6,,,78,127
87890,note_on,1,0,0,,1,,,73,127
88020,note_off,130,0,0,,1,,,73,127
88020,note_off,0,0,0,,11,,,58,127
88021,note_on,1,0,0,,12,,,59,127
88021,note_on,0,0,0,,3,,,75,127
88151,note_off,130,0,0,,3,,,75,127
88152,note_on,1,0,0,,4,,,76,127
88282,note_off,130,0,0,,4,,,76,127
88282,note_off,0,0,0,,12,,,59,127
88283,note_on,1,0,0,,11,,,58,127
88283,note_on,0,0,0,,6,,,78,127
88413,note_off,130,0,0,,6,,,78,127
88414,note_on,1,0,0,,1,,,73,127
88544,note_off,130,0,0,,1,,,73,127
88544,note_off,0,0,0,,11,,,58,127
88545,note_on,1,0,0,,8,,,56,127
88545,note_on,0,0,0,,3,,,75,127
88675,note_off,130,0,0,,3,,,75,127
88676,note_on,1,0,0,,12,,,71,127
88806,note_off,130,0,0,,12,,,71,127
88806,note_off,0,0,0,,8,,,56,127
88807,note_on,1,0,0,,12,,,59,127
88807,note_on,0,0,0,,1,,,73,127
88937,note_off,130,0,0,,1,,,73,127
88938,note_on,1,0,0,,11,,,70,127
89068,note_off,130,0,0,,11,,,70,127
89068,note_off,0,0,0,,12,,,59,127
89069,note_on,1,0,0,,6,,,54,127
89200,note_on,131,0,0,,12,,,71,127
89330,note_off,130,0,0,,12,,,71,127
89330,note_off,0,0,0,,6,,,54,127
89331,note_on,1,0,0,,11,,,58,127
89331,note_on,0,0,0,,6,,,78,127
89461,note_off,130,0,0,,6,,,78,127
89462,note_on,1,0,0,,1,,,73,127
89592,note_off,130,0,0,,1,,,73,127
89592,note_off,0,0,0,,11,,,58,127
89593,note_on,1,0,0,,12,,,59,127
89593,note_on,0,0,0,,3,,,75,127
89723,note_off,130,0,0,,3,,,75,127
89724,note_on,1,0,0,,12,,,71,127
89854,note_off,130,0,0,,12,,,71,127
89854,note_off,0,0,0,,12,,,59,127
89855,note_on,1,0,0,,8,,,56,127
89855,note_on,0,0,0,,1,,,73,127
89985,note_off,130,0,0,,1,,,73,127
89986,note_on,1,0,0,,8,,,68,127
90116,note_off,130,0,0,,8,,,56,127
90117,note_on,1,0,0,,6,,,54,127
90247,note_off,130,0,0,,8,,,68,127
90248,note_on,1,0,0,,11,,,70,127
90378,note_off,130,0,0,,11,,,70,127
90379,note_on,1,0,0,,4,,,64,127
90379,note_on,0,0,0,,11,,,70,127
90509,note_off,130,0,0,,11,,,70,127
90510,note_on,1,0,0,,11,,,70,127
90640,note_off,130,0,0,,11,,,70,127
90640,note_off,0,0,0,,4,,,64,127
90640,note_off,0,0,0,,6,,,54,127
90641,note_on,1,0,0,,6,,,54,127
90641,note_on,0,0,0,,3,,,63,127
90641,note_on,0,0,0,,11,,,70,127
90771,note_off,130,0,0,,11,,,70,127
90772,note_on,1,0,0,,12,,,71,127
90902,note_off,130,0,0,,12,,,71,127
90902,note_off,0,0,0,,3,,,63,127
90903,note_on,1,0,0,,12,,,59,127
90903,note_on,0,0,0,,12,,,71,127
91033,note_off,130,0,0,,12,,,71,127
91034,note_on,1,0,0,,12,,,71,127
91164,note_off,130,0,0,,12,,,71,127
91164,note_off,0,0,0,,12,,,59,127
91164,note_off,0,0,0,,6,,,54,127
91165,note_on,1,0,0,,6,,,54,127
91165,note_on,0,0,0,,11,,,58,127
91165,note_on,0,0,0,,12,,,71,127
91295,note_off,130,0,0,,12,,,71,127
91296,note_on,1,0,0,,1,,,73,127
91426,note_off,130,0,0,,1,,,73,127
91426,note_off,0,0,0,,11,,,58,127
91427,note_on,1,0,0,,1,,,61,127
91427,note_on,0,0,0,,1,,,73,127
91557,note_off,130,0,0,,1,,,73,127
91558,note_on,1,0,0,,1,,,73,127
91688,note_off,130,0,0,,1,,,73,127
91688,note_off,0,0,0,,1,,,61,127
91688,note_off,0,0,0,,6,,,54,127
91689,note_on,1,0,0,,12,,,59,127
91689,note_on,0,0,0,,6,,,54,127
91689,note_on,0,0,0,,1,,,73,127
91819,note_off,130,0,0,,1,,,73,127
91820,note_on,1,0,0,,3,,,75,127
91950,note_off,130,0,0,,3,,,75,127
91950,note_off,0,0,0,,12,,,59,127
91951,note_on,1,0,0,,3,,,63,127
91951,note_on,0,0,0,,3,,,75,127
92081,note_off,130,0,0,,3,,,75,127
92082,note_on,1,0,0,,3,,,75,127
92212,note_off,130,0,0,,3,,,75,127
92212,note_off,0,0,0,,3,,,63,127
92212,note_off,0,0,0,,6,,,54,127
92213,note_on,1,0,0,,1,,,61,127
92213,note_on,0,0,0,,6,,,54,127
92213,note_on,0,0,0,,3,,,75,127
92343,note_off,130,0,0,,3,,,75,127
92344,note_on,1,0,0,,4,,,76,127
92474,note_off,130,0,0,,4,,,76,127
92474,note_off,0,0,0,,1,,,61,127
92475,note_on,1,0,0,,4,,,64,127
92475,note_on,0,0,0,,4,,,76,127
92605,note_off,130,0,0,,4,,,76,127
92606,note_on,1,0,0,,4,,,76,127
92736,note_off,130,0,0,,4,,,76,127
92736,note_off,0,0,0,,4,,,64,127
92736,note_off,0,0,0,,6,,,54,127
92737,note_on,1,0,0,,3,,,63,127
92737,note_on,0,0,0,,6,,,54,127
92737,note_on,0,0,0,,4,,,76,127
92867,note_off,130,0,0,,4,,,76,127
92868,note_on,1,0,0,,6,,,78,127
92998,note_off,130,0,0,,6,,,78,127
92998,note_off,0,0,0,,3,,,63,127
92999,note_on,1,0,0,,6,,,66,127
92999,note_on,0,0,0,,6,,,78,127
93129,note_off,130,0,0,,6,,,78,127
93130,note_on,1,0,0,,6,,,78,127
93260,note_off,130,0,0,,6,,,78,127
93260,note_off,0,0,0,,6,,,66,127
93260,note_off,0,0,0,,6,,,54,127
93261,note_on,1,0,0,,4,,,64,127
93261,note_on,0,0,0,,6,,,54,127
93261,note_on,0,0,0,,6,,,78,127
93391,note_off,130,0,0,,6,,,78,127
93392,note_on,1,0,0,,8,,,80,127
93522,note_off,130,0,0,,8,,,80,127
93522,note_off,0,0,0,,4,,,64,127
93523,note_on,1,0,0,,3,,,63,127
93523,note_on,0,0,0,,6,,,78,127
93653,note_off,130,0,0,,6,,,78,127
93654,note_on,1,0,0,,4,,,76,127
93784,note_off,130,0,0,,4,,,76,127
93784,note_off,0,0,0,,3,,,63,127
93784,note_off,0,0,0,,6,,,54,127
93785,note_on,1,0,0,,6,,,54,127
93785,note_on,0,0,0,,1,,,61,127
93785,note_on,0,0,0,,6,,,78,127
93915,note_off,130,0,0,,6,,,78,127
93916,note_on,1,0,0,,4,,,76,127
94046,note_off,130,0,0,,4,,,76,127
94046,note_off,0,0,0,,1,,,61,127
94047,note_on,1,0,0,,12,,,59,127
94047,note_on,0,0,0,,4,,,76,127
94177,note_off,130,0,0,,4,,,76,127
94178,note_on,1,0,0,,3,,,75,127
94308,note_off,130,0,0,,3,,,75,127
94308,note_off,0,0,0,,12,,,59,127
94308,note_off,0,0,0,,6,,,54,127
94309,note_on,1,0,0,,11,,,58,127
94309,note_on,0,0,0,,6,,,54,127
94309,note_on,0,0,0,,3,,,75,127
94439,note_off,130,0,0,,3,,,75,127
94440,note_on,1,0,0,,1,,,73,127
94570,note_off,130,0,0,,1,,,73,127
94570,note_off,0,0,0,,11,,,58,127
94571,note_on,1,0,0,,8,,,56,127
94571,note_on,0,0,0,,1,,,73,127
94701,note_off,130,0,0,,1,,,73,127
94702,note_on,1,0,0,,12,,,71,127
94832,note_off,130,0,0,,12,,,71,127
94832,note_off,0,0,0,,8,,,56,127
94832,note_off,0,0,0,,6,,,54,127
94833,note_on,1,0,0,,6,,,54,127
94833,note_on,0,0,0,,1,,,61,127
94833,note_on,0,0,0,,12,,,71,127
94963,note_off,130,0,0,,12,,,71,127
94964,note_on,1,0,0,,11,,,70,127
95094,note_off,130,0,0,,11,,,70,127
95094,note_off,0,0,0,,1,,,61,127
95095,note_on,1,0,0,,12,,,59,127
95095,note_on,0,0,0,,12,,,71,127
95226,note_on,131,0,0,,5,,,77,127
95354,note_off,128,0,0,,12,,,71,127
95355,note_off,1,0,0,,5,,,77,127
95355,note_off,0,0,0,,12,,,59,127
95355,note_off,0,0,0,,6,,,54,127
95356,note_on,1,0,0,,6,,,54,127
95356,note_on,0,0,0,,1,,,61,127
95356,note_on,0,0,0,,11,,,70,127
95487,note_on,131,0,0,,6,,,78,127
95617,note_off,130,0,0,,11,,,70,127
95617,note_off,0,0,0,,1,,,61,127
95618,note_on,1,0,0,,12,,,59,127
95618,note_on,0,0,0,,8,,,56,127
95618,note_on,0,0,0,,8,,,68,127
95683,note_off,65,0,0,,6,,,78,127
95748,note_on,65,0,0,,5,,,77,127
95878,note_off,130,0,0,,5,,,77,127
95878,note_off,0,0,0,,8,,,68,127
95878,note_off,0,0,0,,8,,,56,127
95878,note_off,0,0,0,,12,,,59,127
95878,note_off,0,0,0,,6,,,54,127
95879,note_on,1,0,0,,1,,,61,127
95879,note_on,0,0,0,,6,,,54,127
95879,note_on,0,0,0,,11,,,70,127
96010,note_on,131,0,0,,6,,,78,127
96140,note_off,130,0,0,,11,,,70,127
96140,note_off,0,0,0,,1,,,61,127
96141,note_on,1,0,0,,12,,,59,127
96141,note_on,0,0,0,,8,,,56,127
96141,note_on,0,0,0,,8,,,68,127
96206,note_off,65,0,0,,6,,,78,127
96271,note_on,65,0,0,,5,,,77,127
96401,note_off,130,0,0,,5,,,77,127
96401,note_off,0,0,0,,8,,,68,127
96401,note_off,0,0,0,,8,,,56,127
96401,note_off,0,0,0,,12,,,59,127
96401,note_off,0,0,0,,6,,,54,127
96402,note_on,1,0,0,,6,,,54,127
96402,note_on,0,0,0,,5,,,77,127
96662,note_off,260,0,0,,5,,,77,127
96663,note_on,1,0,0,,6,,,78,127
96925,note_on,262,0,0,,6,,,66,127
97181,note_off,256,0,0,,6,,,78,127
97185,note_off,4,0,0,,6,,,54,127
97447,note_off,262,0,0,,6,,,66,127
97448,note_on,1,0,0,,2,,,50,127
97708,note_off,260,0,0,,2,,,50,127
97709,note_on,1,0,0,,12,,,59,127
97709,note_on,0,0,0,,12,,,71,127
97839,note_off,130,0,0,,12,,,71,127
97840,note_on,1,0,0,,6,,,66,127
97970,note_off,130,0,0,,6,,,66,127
97970,note_off,0,0,0,,12,,,59,127
97971,note_on,1,0,0,,4,,,52,127
97971,note_on,0,0,0,,7,,,67,127
98101,note_off,130,0,0,,7,,,67,127
98102,note_on,1,0,0,,4,,,64,127
98232,note_off,130,0,0,,4,,,64,127
98232,note_off,0,0,0,,4,,,52,127
98233,note_on,1,0,0,,6,,,54,127
98233,note_on,0,0,0,,4,,,76,127
98363,note_off,130,0,0,,4,,,76,127
98364,note_on,1,0,0,,11,,,70,127
98494,note_off,130,0,0,,6,,,54,127
98495,note_on,1,0,0,,7,,,55,127
98625,note_off,130,0,0,,11,,,70,127
98626,note_on,1,0,0,,1,,,73,127
98756,note_off,130,0,0,,1,,,73,127
98756,note_off,0,0,0,,7,,,55,127
98757,note_on,1,0,0,,2,,,50,127
98757,note_on,0,0,0,,12,,,71,127
98887,note_off,130,0,0,,12,,,71,127
98888,note_on,1,0,0,,6,,,66,127
99018,note_off,130,0,0,,6,,,66,127
99018,note_off,0,0,0,,2,,,50,127
99019,note_on,1,0,0,,4,,,52,127
99019,note_on,0,0,0,,7,,,67,127
99149,note_off,130,0,0,,7,,,67,127
99150,note_on,1,0,0,,4,,,64,127
99280,note_off,130,0,0,,4,,,64,127
99280,note_off,0,0,0,,4,,,52,127
99281,note_on,1,0,0,,6,,,54,127
99281,note_on,0,0,0,,4,,,76,127
99411,note_off,130,0,0,,4,,,76,127
99412,note_on,1,0,0,,11,,,70,127
99542,note_off,130,0,0,,11,,,70,127
99542,note_off,0,0,0,,6,,,54,127
99543,note_on,1,0,0,,7,,,55,127
99543,note_on,0,0,0,,12,,,71,127
99673,note_off,130,0,0,,12,,,71,127
99674,note_on,1,0,0,,6,,,78,127
99804,note_off,130,0,0,,6,,,78,127
99804,note_off,0,0,0,,7,,,55,127
99805,note_on,1,0,0,,4,,,52,127
99805,note_on,0,0,0,,7,,,79,127
99935,note_off,130,0,0,,7,,,79,127
99936,note_on,1,0,0,,4,,,76,127
100066,note_off,130,0,0,,4,,,76,127
100066,note_off,0,0,0,,4,,,52,127
100067,note_on,1,0,0,,6,,,54,127
100067,note_on,0,0,0,,2,,,74,127
100197,note_off,130,0,0,,2,,,74,127
100198,note_on,1,0,0,,1,,,73,127
100328,note_off,130,0,0,,1,,,73,127
100329,note_on,1,0,0,,6,,,42,127
100329,note_on,0,0,0,,12,,,71,127
100459,note_off,130,0,0,,12,,,71,127
100460,note_on,1,0,0,,11,,,70,127
100590,note_off,130,0,0,,11,,,70,127
100590,note_off,0,0,0,,6,,,42,127
100590,note_off,0,0,0,,6,,,54,127
100591,note_on,1,0,0,,12,,,47,127
100591,note_on,0,0,0,,12,,,71,127
100851,note_off,260,0,0,,12,,,71,127
100851,note_off,0,0,0,,12,,,47,127
100852,note_on,1,0,0,,2,,,50,127
100852,note_on,0,0,0,,12,,,71,127
100982,note_off,130,0,0,,12,,,71,127
100983,note_on,1,0,0,,6,,,66,127
101113,note_off,130,0,0,,6,,,66,127
101113,note_off,0,0,0,,2,,,50,127
101114,note_on,1,0,0,,4,,,52,127
101114,note_on,0,0,0,,7,,,67,127
101244,note_off,130,0,0,,7,,,67,127
101245,note_on,1,0,0,,4,,,64,127
101375,note_off,130,0,0,,4,,,64,127
101375,note_off,0,0,0,,4,,,52,127
101376,note_on,1,0,0,,6,,,54,127
101376,note_on,0,0,0,,4,,,76,127
101506,note_off,130,0,0,,4,,,76,127
101507,note_on,1,0,0,,11,,,70,127
101637,note_off,130,0,0,,6,,,54,127
101638,note_on,1,0,0,,7,,,55,127
101768,note_off,130,0,0,,11,,,70,127
101769,note_on,1,0,0,,1,,,73,127
101899,note_off,130,0,0,,1,,,73,127
101899,note_off,0,0,0,,7,,,55,127
101900,note_on,1,0,0,,2,,,50,127
101900,note_on,0,0,0,,12,,,71,127
102030,note_off,130,0,0,,12,,,71,127
102031,note_on,1,0,0,,6,,,66,127
102161,note_off,130,0,0,,6,,,66,127
102161,note_off,0,0,0,,2,,,50,127
102162,note_on,1,0,0,,4,,,52,127
102162,note_on,0,0,0,,7,,,67,127
102292,note_off,130,0,0,,7,,,67,127
102293,note_on,1,0,0,,4,,,64,127
102423,note_off,130,0,0,,4,,,64,127
102423,note_off,0,0,0,,4,,,52,127
102424,note_on,1,0,0,,6,,,54,127
102424,note_on,0,0,0,,4,,,76,127
102554,note_off,130,0,0,,4,,,76,127
102555,note_on,1,0,0,,11,,,70,127
102685,note_off,130,0,0,,11,,,70,127
102685,note_off,0,0,0,,6,,,54,127
102686,note_on,1,0,0,,7,,,55,127
102686,note_on,0,0,0,,12,,,71,127
102816,note_off,130,0,0,,12,,,71,127
102817,note_on,1,0,0,,6,,,78,127
102947,note_off,130,0,0,,6,,,78,127
102947,note_off,0,0,0,,7,,,55,127
102948,note_on,1,0,0,,4,,,52,127
102948,note_on,0,0,0,,7,,,79,127
103078,note_off,130,0,0,,7,,,79,127
103079,note_on,1,0,0,,4,,,76,127
103209,note_off,130,0,0,,4,,,76,127
103209,note_off,0,0,0,,4,,,52,127
103210,note_on,1,0,0,,6,,,54,127
103210,note_on,0,0,0,,2,,,74,127
103340,note_off,130,0,0,,2,,,74,127
103341,note_on,1,0,0,,1,,,73,127
103471,note_off,130,0,0,,1,,,73,127
103472,note_on,1,0,0,,6,,,42,127
103472,note_on,0,0,0,,12,,,71,127
103602,note_off,130,0,0,,12,,,71,127
103603,note_on,1,0,0,,11,,,70,127
103733,note_off,130,0,0,,11,,,70,127
103733,note_off,0,0,0,,6,,,42,127
103733,note_off,0,0,0,,6,,,54,127
103734,note_on,1,0,0,,12,,,59,127
103734,note_on,0,0,0,,11,,,70,127
103864,note_off,130,0,0,,12,,,59,127
103865,note_on,1,0,0,,1,,,61,127
103995,note_off,130,0,0,,1,,,61,127
103995,note_off,0,0,0,,11,,,70,127
103996,note_on,1,0,0,,3,,,63,127
103996,note_on,0,0,0,,12,,,71,127
104126,note_off,130,0,0,,3,,,63,127
104127,note_on,1,0,0,,4,,,64,127
104257,note_off,130,0,0,,4,,,64,127
104257,note_off,0,0,0,,12,,,71,127
104258,note_on,1,0,0,,6,,,66,127
104388,note_off,130,0,0,,6,,,66,127
104389,note_on,1,0,0,,4,,,64,127
104389,note_on,0,0,0,,6,,,78,127
104444,note_off,55,0,0,,6,,,78,127
104455,note_on,11,0,0,,6,,,78,127
104510,note_off,55,0,0,,6,,,78,127
104520,note_off,10,0,0,,4,,,64,127
104521,note_on,1,0,0,,3,,,63,127
104521,note_on,0,0,0,,6,,,78,127
104651,note_off,130,0,0,,6,,,78,127
104651,note_off,0,0,0,,3,,,63,127
104652,note_on,1,0,0,,1,,,61,127
104652,note_on,0,0,0,,6,,,78,127
104782,note_off,130,0,0,,6,,,78,127
104782,note_off,0,0,0,,1,,,61,127
104783,note_on,1,0,0,,12,,,59,127
104783,note_on,0,0,0,,12,,,83,127
104913,note_off,130,0,0,,12,,,59,127
104914,note_on,1,0,0,,1,,,61,127
105044,note_off,130,0,0,,1,,,61,127
105044,note_off,0,0,0,,12,,,83,127
105045,note_on,1,0,0,,3,,,63,127
105045,note_on,0,0,0,,6,,,78,127
105175,note_off,130,0,0,,3,,,63,127
105176,note_on,1,0,0,,4,,,64,127
105306,note_off,130,0,0,,4,,,64,127
105306,note_off,0,0,0,,6,,,78,127
105307,note_on,1,0,0,,6,,,66,127
105437,note_off,130,0,0,,6,,,66,127
105438,note_on,1,0,0,,4,,,64,127
105438,note_on,0,0,0,,6,,,78,127
105493,note_off,55,0,0,,6,,,78,127
105504,note_on,11,0,0,,6,,,78,127
105559,note_off,55,0,0,,6,,,78,127
105569,note_off,10,0,0,,4,,,64,127
105570,note_on,1,0,0,,3,,,63,127
105570,note_on,0,0,0,,6,,,78,127
105700,note_off,130,0,0,,6,,,78,127
105700,note_off,0,0,0,,3,,,63,127
105701,note_on,1,0,0,,1,,,61,127
105701,note_on,0,0,0,,6,,,78,127
105831,note_off,130,0,0,,6,,,78,127
105831,note_off,0,0,0,,1,,,61,127
105832,note_on,1,0,0,,12,,,59,127
105832,note_on,0,0,0,,3,,,75,127
105962,note_off,130,0,0,,12,,,59,127
105963,note_on,1,0,0,,1,,,61,127
106093,note_off,130,0,0,,1,,,61,127
106093,note_off,0,0,0,,3,,,75,127
106094,note_on,1,0,0,,3,,,63,127
106094,note_on,0,0,0,,6,,,78,127
106224,note_off,130,0,0,,3,,,63,127
106225,note_on,1,0,0,,4,,,64,127
106355,note_off,130,0,0,,4,,,64,127
106355,note_off,0,0,0,,6,,,78,127
106356,note_on,1,0,0,,6,,,66,127
106486,note_off,130,0,0,,6,,,66,127
106487,note_on,1,0,0,,4,,,64,127
106487,note_on,0,0,0,,6,,,78,127
106542,note_off,55,0,0,,6,,,78,127
106553,note_on,11,0,0,,6,,,78,127
106608,note_off,55,0,0,,6,,,78,127
106618,note_off,10,0,0,,4,,,64,127
106619,note_on,1,0,0,,3,,,63,127
106619,note_on,0,0,0,,6,,,78,127
106749,note_off,130,0,0,,6,,,78,127
106749,note_off,0,0,0,,3,,,63,127
106750,note_on,1,0,0,,1,,,61,127
106750,note_on,0,0,0,,6,,,78,127
106880,note_off,130,0,0,,6,,,78,127
106880,note_off,0,0,0,,1,,,61,127
106881,note_on,1,0,0,,12,,,59,127
106881,note_on,0,0,0,,12,,,83,127
107011,note_off,130,0,0,,12,,,83,127
107012,note_on,1,0,0,,6,,,78,127
107142,note_off,130,0,0,,6,,,78,127
107142,note_off,0,0,0,,12,,,59,127
107143,note_on,1,0,0,,4,,,52,127
107143,note_on,0,0,0,,8,,,80,127
107273,note_off,130,0,0,,8,,,80,127
107274,note_on,1,0,0,,4,,,76,127
107404,note_off,130,0,0,,4,,,76,127
107404,note_off,0,0,0,,4,,,52,127
107405,note_on,1,0,0,,6,,,54,127
107405,note_on,0,0,0,,3,,,75,127
107535,note_off,130,0,0,,3,,,75,127
107536,note_on,1,0,0,,1,,,73,127
107666,note_off,130,0,0,,1,,,73,127
107667,note_on,1,0,0,,6,,,42,127
107667,note_on,0,0,0,,12,,,71,127
107797,note_off,130,0,0,,12,,,71,127
107798,note_on,1,0,0,,11,,,70,127
107928,note_off,130,0,0,,11,,,70,127
107928,note_off,0,0,0,,6,,,42,127
107928,note_off,0,0,0,,6,,,54,127
107929,note_on,1,0,0,,12,,,59,127
107929,note_on,0,0,0,,11,,,70,127
108059,note_off,130,0,0,,12,,,59,127
108060,note_on,1,0,0,,1,,,61,127
108190,note_off,130,0,0,,1,,,61,127
108190,note_off,0,0,0,,11,,,70,127
108191,note_on,1,0,0,,3,,,63,127
108191,note_on,0,0,0,,12,,,71,127
108321,note_off,130,0,0,,3,,,63,127
108322,note_on,1,0,0,,4,,,64,127
108452,note_off,130,0,0,,4,,,64,127
108452,note_off,0,0,0,,12,,,71,127
108453,note_on,1,0,0,,6,,,66,127
108583,note_off,130,0,0,,6,,,66,127
108584,note_on,1,0,0,,4,,,64,127
108584,note_on,0,0,0,,6,,,78,127
108639,note_off,55,0,0,,6,,,78,127
108650,note_on,11,0,0,,6,,,78,127
108705,note_off,55,0,0,,6,,,78,127
108715,note_off,10,0,0,,4,,,64,127
108716,note_on,1,0,0,,3,,,63,127
108716,note_on,0,0,0,,6,,,78,127
108846,note_off,130,0,0,,6,,,78,127
108846,note_off,0,0,0,,3,,,63,127
108847,note_on,1,0,0,,1,,,61,127
108847,note_on,0,0,0,,6,,,78,127
108977,note_off,130,0,0,,6,,,78,127
108977,note_off,0,0,0,,1,,,61,127
108978,note_on,1,0,0,,12,,,59,127
108978,note_on,0,0,0,,12,,,83,127
109108,note_off,130,0,0,,12,,,59,127
109109,note_on,1,0,0,,1,,,61,127
109239,note_off,130,0,0,,1,,,61,127
109239,note_off,0,0,0,,12,,,83,127
109240,note_on,1,0,0,,3,,,63,127
109240,note_on,0,0,0,,6,,,78,127
109370,note_off,130,0,0,,3,,,63,127
109371,note_on,1,0,0,,4,,,64,127
109501,note_off,130,0,0,,4,,,64,127
109501,note_off,0,0,0,,6,,,78,127
109502,note_on,1,0,0,,6,,,66,127
109632,note_off,130,0,0,,6,,,66,127
109633,note_on,1,0,0,,4,,,64,127
109633,note_on,0,0,0,,6,,,78,127
109688,note_off,55,0,0,,6,,,78,127
109699,note_on,11,0,0,,6,,,78,127
109754,note_off,55,0,0,,6,,,78,127
109764,note_off,10,0,0,,4,,,64,127
109765,note_on,1,0,0,,3,,,63,127
109765,note_on,0,0,0,,6,,,78,127
109895,note_off,130,0,0,,6,,,78,127
109895,note_off,0,0,0,,3,,,63,127
109896,note_on,1,0,0,,1,,,61,127
109896,note_on,0,0,0,,6,,,78,127
110026,note_off,130,0,0,,6,,,78,127
110026,note_off,0,0,0,,1,,,61,127
110027,note_on,1,0,0,,12,,,59,127
110027,note_on,0,0,0,,3,,,75,127
110157,note_off,130,0,0,,12,,,59,127
110158,note_on,1,0,0,,1,,,61,127
110288,note_off,130,0,0,,1,,,61,127
110288,note_off,0,0,0,,3,,,75,127
110289,note_on,1,0,0,,3,,,63,127
110289,note_on,0,0,0,,6,,,78,127
110419,note_off,130,0,0,,3,,,63,127
110420,note_on,1,0,0,,4,,,64,127
110550,note_off,130,0,0,,4,,,64,127
110550,note_off,0,0,0,,6,,,78,127
110551,note_on,1,0,0,,6,,,66,127
110681,note_off,130,0,0,,6,,,66,127
110682,note_on,1,0,0,,4,,,64,127
110682,note_on,0,0,0,,6,,,78,127
110737,note_off,55,0,0,,6,,,78,127
110748,note_on,11,0,0,,6,,,78,127
110803,note_off,55,0,0,,6,,,78,127
110813,note_off,10,0,0,,4,,,64,127
110814,note_on,1,0,0,,3,,,63,127
110814,note_on,0,0,0,,6,,,78,127
110944,note_off,130,0,0,,6,,,78,127
110944,note_off,0,0,0,,3,,,63,127
110945,note_on,1,0,0,,1,,,61,127
110945,note_on,0,0,0,,6,,,78,127
111075,note_off,130,0,0,,6,,,78,127
111075,note_off,0,0,0,,1,,,61,127
111076,note_on,1,0,0,,12,,,59,127
111076,note_on,0,0,0,,12,,,83,127
111206,note_off,130,0,0,,12,,,83,127
111207,note_on,1,0,0,,6,,,78,127
111337,note_off,130,0,0,,6,,,78,127
111337,note_off,0,0,0,,12,,,59,127
111338,note_on,1,0,0,,4,,,52,127
111338,note_on,0,0,0,,8,,,80,127
111468,note_off,130,0,0,,8,,,80,127
111469,note_on,1,0,0,,4,,,76,127
111599,note_off,130,0,0,,4,,,76,127
111599,note_off,0,0,0,,4,,,52,127
111600,note_on,1,0,0,,6,,,54,127
111600,note_on,0,0,0,,3,,,75,127
111730,note_off,130,0,0,,3,,,75,127
111731,note_on,1,0,0,,1,,,73,127
111861,note_off,130,0,0,,1,,,73,127
111862,note_on,1,0,0,,6,,,42,127
111862,note_on,0,0,0,,12,,,71,127
111992,note_off,130,0,0,,12,,,71,127
111993,note_on,1,0,0,,11,,,70,127
112123,note_off,130,0,0,,11,,,70,127
112123,note_off,0,0,0,,6,,,42,127
112123,note_off,0,0,0,,6,,,54,127
112124,note_on,1,0,0,,8,,,56,127
112124,note_on,0,0,0,,12,,,71,127
112254,note_off,130,0,0,,12,,,71,127
112255,note_on,1,0,0,,12,,,83,127
112385,note_off,130,0,0,,12,,,83,127
112385,note_off,0,0,0,,8,,,56,127
112386,note_on,1,0,0,,12,,,59,127
112386,note_on,0,0,0,,11,,,82,127
112516,note_off,130,0,0,,11,,,82,127
112517,note_on,1,0,0,,12,,,83,127
112647,note_off,130,0,0,,12,,,83,127
112647,note_off,0,0,0,,12,,,59,127
112648,note_on,1,0,0,,11,,,58,127
112648,note_on,0,0,0,,1,,,85,127
112778,note_off,130,0,0,,1,,,85,127
112779,note_on,1,0,0,,8,,,80,127
112909,note_off,130,0,0,,8,,,80,127
112909,note_off,0,0,0,,11,,,58,127
112910,note_on,1,0,0,,6,,,54,127
112910,note_on,0,0,0,,6,,,78,127
113040,note_off,130,0,0,,6,,,78,127
113041,note_on,1,0,0,,4,,,76,127
113171,note_off,130,0,0,,4,,,76,127
113171,note_off,0,0,0,,6,,,54,127
113172,note_on,1,0,0,,12,,,59,127
113172,note_on,0,0,0,,3,,,75,127
113302,note_off,130,0,0,,3,,,75,127
113303,note_on,1,0,0,,6,,,78,127
113433,note_off,130,0,0,,6,,,78,127
113433,note_off,0,0,0,,12,,,59,127
113434,note_on,1,0,0,,4,,,52,127
113434,note_on,0,0,0,,4,,,76,127
113564,note_off,130,0,0,,4,,,76,127
113565,note_on,1,0,0,,1,,,73,127
113695,note_off,130,0,0,,1,,,73,127
113695,note_off,0,0,0,,4,,,52,127
113696,note_on,1,0,0,,6,,,54,127
113696,note_on,0,0,0,,3,,,75,127
113826,note_off,130,0,0,,3,,,75,127
113827,note_on,1,0,0,,12,,,71,127
113957,note_off,130,0,0,,12,,,71,127
113958,note_on,1,0,0,,6,,,42,127
113958,note_on,0,0,0,,1,,,73,127
114088,note_off,130,0,0,,1,,,73,127
114089,note_on,1,0,0,,11,,,70,127
114219,note_off,130,0,0,,6,,,42,127
114219,note_off,0,0,0,,6,,,54,127
114220,note_on,1,0,0,,8,,,44,127
114285,note_off,65,0,0,,11,,,70,127
114350,note_on,65,0,0,,12,,,71,127
114480,note_off,130,0,0,,12,,,71,127
114480,note_off,0,0,0,,8,,,44,127
114481,note_on,1,0,0,,12,,,47,127
114481,note_on,0,0,0,,11,,,70,127
114611,note_off,130,0,0,,11,,,70,127
114612,note_on,1,0,0,,12,,,71,127
114742,note_off,130,0,0,,12,,,71,127
114742,note_off,0,0,0,,12,,,47,127
114743,note_on,1,0,0,,11,,,46,127
114743,note_on,0,0,0,,1,,,73,127
114873,note_off,130,0,0,,1,,,73,127
114874,note_on,1,0,0,,8,,,68,127
115004,note_off,130,0,0,,8,,,68,127
115004,note_off,0,0,0,,11,,,46,127
115005,note_on,1,0,0,,6,,,42,127
115005,note_on,0,0,0,,6,,,66,127
115135,note_off,130,0,0,,6,,,66,127
115136,note_on,1,0,0,,4,,,64,127
115266,note_off,130,0,0,,4,,,64,127
115266,note_off,0,0,0,,6,,,42,127
115267,note_on,1,0,0,,12,,,47,127
115267,note_on,0,0,0,,3,,,63,127
115397,note_off,130,0,0,,3,,,63,127
115398,note_on,1,0,0,,6,,,66,127
115528,note_off,130,0,0,,6,,,66,127
115528,note_off,0,0,0,,12,,,47,127
115529,note_on,1,0,0,,4,,,52,127
115529,note_on,0,0,0,,4,,,64,127
115659,note_off,130,0,0,,4,,,64,127
115660,note_on,1,0,0,,1,,,61,127
115790,note_off,130,0,0,,1,,,61,127
115790,note_off,0,0,0,,4,,,52,127
115791,note_on,1,0,0,,6,,,54,127
115791,note_on,0,0,0,,3,,,63,127
115921,note_off,130,0,0,,3,,,63,127
115922,note_on,1,0,0,,12,,,59,127
116052,note_off,130,0,0,,12,,,59,127
116053,note_on,1,0,0,,6,,,42,127
116053,note_on,0,0,0,,1,,,61,127
116183,note_off,130,0,0,,1,,,61,127
116184,note_on,1,0,0,,11,,,58,127
116314,note_off,130,0,0,,11,,,58,127
116314,note_off,0,0,0,,6,,,42,127
116314,note_off,0,0,0,,6,,,54,127
116315,note_on,1,0,0,,12,,,47,127
116315,note_on,0,0,0,,12,,,35,127
116315,note_on,0,0,0,,11,,,58,127
116837,note_off,522,0,0,,11,,,58,127
116838,note_on,1,0,0,,12,,,59,127
118409,note_off,1571,0,0,,12,,,59,127
118409,note_off,0,0,0,,12,,,35,127
118409,note_off,0,0,0,,12,,,47,127
119808,end_of_track,1399,1,0,,,,,,
