tick,type,time,meta,track,program,channel,pitch,tempo,note,velocity
0,copyright,0,1,0,,,,,,
0,program_change,0,0,0,6,0,,,,
0,pitchwheel,0,0,0,,0,0,,,
0,program_change,0,0,0,6,1,,,,
0,pitchwheel,0,0,0,,1,-590,,,
0,program_change,0,0,0,6,2,,,,
0,pitchwheel,0,0,0,,2,-272,,,
0,program_change,0,0,0,6,3,,,,
0,pitchwheel,0,0,0,,3,-353,,,
0,program_change,0,0,0,6,4,,,,
0,pitchwheel,0,0,0,,4,-560,,,
0,program_change,0,0,0,6,5,,,,
0,pitchwheel,0,0,0,,5,-80,,,
0,program_change,0,0,0,6,6,,,,
0,pitchwheel,0,0,0,,6,-625,,,
0,program_change,0,0,0,6,7,,,,
0,pitchwheel,0,0,0,,7,-130,,,
0,program_change,0,0,0,6,8,,,,
0,pitchwheel,0,0,0,,8,-512,,,
0,program_change,0,0,0,6,10,,,,
0,pitchwheel,0,0,0,,10,-464,,,
0,program_change,0,0,0,6,11,,,,
0,pitchwheel,0,0,0,,11,-208,,,
0,program_change,0,0,0,6,12,,,,
0,pitchwheel,0,0,0,,12,-553,,,
0,set_tempo,0,1,0,,,,500000,,
77,note_on,77,0,0,,12,,,47,127
231,note_on,154,0,0,,6,,,78,127
383,note_off,152,0,0,,6,,,78,127
385,note_on,2,0,0,,6,,,78,127
537,note_off,152,0,0,,6,,,78,127
537,note_off,0,0,0,,12,,,47,127
539,note_on,2,0,0,,3,,,51,127
539,note_on,0,0,0,,3,,,75,127
691,note_off,152,0,0,,3,,,75,127
693,note_on,2,0,0,,12,,,71,127
845,note_off,152,0,0,,12,,,71,127
847,note_on,2,0,0,,12,,,71,127
999,note_off,152,0,0,,12,,,71,127
999,note_off,0,0,0,,3,,,51,127
1001,note_on,2,0,0,,4,,,52,127
1001,note_on,0,0,0,,8,,,68,127
1153,note_off,152,0,0,,8,,,68,127
1155,note_on,2,0,0,,4,,,76,127
1307,note_off,152,0,0,,4,,,76,127
1309,note_on,2,0,0,,4,,,76,127
1461,note_off,152,0,0,,4,,,76,127
1461,note_off,0,0,0,,4,,,52,127
1463,note_on,2,0,0,,6,,,54,127
1463,note_on,0,0,0,,1,,,73,127
1615,note_off,152,0,0,,1,,,73,127
1617,note_on,2,0,0,,6,,,78,127
1769,note_off,152,0,0,,6,,,78,127
1771,note_on,2,0,0,,6,,,78,127
1923,note_off,152,0,0,,6,,,78,127
1923,note_off,0,0,0,,6,,,54,127
1925,note_on,2,0,0,,12,,,47,127
1925,note_on,0,0,0,,3,,,75,127
2077,note_off,152,0,0,,3,,,75,127
2079,note_on,2,0,0,,12,,,71,127
2231,note_off,152,0,0,,12,,,71,127
2233,note_on,2,0,0,,12,,,71,127
2385,note_off,152,0,0,,12,,,71,127
2385,note_off,0,0,0,,12,,,47,127
2387,note_on,2,0,0,,3,,,51,127
2387,note_on,0,0,0,,6,,,66,127
2539,note_off,152,0,0,,6,,,66,127
2541,note_on,2,0,0,,12,,,71,127
2693,note_off,152,0,0,,12,,,71,127
2695,note_on,2,0,0,,12,,,71,127
2847,note_off,152,0,0,,12,,,71,127
2847,note_off,0,0,0,,3,,,51,127
2849,note_on,2,0,0,,4,,,52,127
2849,note_on,0,0,0,,8,,,68,127
3001,note_off,152,0,0,,8,,,68,127
3003,note_on,2,0,0,,4,,,76,127
3155,note_off,152,0,0,,4,,,76,127
3157,note_on,2,0,0,,4,,,76,127
3309,note_off,152,0,0,,4,,,76,127
3309,note_off,0,0,0,,4,,,52,127
3311,note_on,2,0,0,,6,,,54,127
3311,note_on,0,0,0,,11,,,70,127
3463,note_off,152,0,0,,11,,,70,127
3465,note_on,2,0,0,,6,,,78,127
3617,note_off,152,0,0,,6,,,78,127
3619,note_on,2,0,0,,6,,,78,127
3771,note_off,152,0,0,,6,,,78,127
3771,note_off,0,0,0,,6,,,54,127
3773,note_on,2,0,0,,12,,,47,127
3773,note_on,0,0,0,,12,,,71,127
3925,note_off,152,0,0,,12,,,47,127
3927,note_on,2,0,0,,12,,,47,127
4079,note_off,152,0,0,,12,,,47,127
4081,note_on,2,0,0,,12,,,47,127
4233,note_off,152,0,0,,12,,,47,127
4233,note_off,0,0,0,,12,,,71,127
4235,note_on,2,0,0,,3,,,51,127
4235,note_on,0,0,0,,12,,,83,127
4387,note_off,152,0,0,,3,,,51,127
4389,note_on,2,0,0,,3,,,51,127
4541,note_off,152,0,0,,3,,,51,127
4543,note_on,2,0,0,,3,,,51,127
4695,note_off,152,0,0,,3,,,51,127
4697,note_on,2,0,0,,4,,,52,127
4772,note_off,75,0,0,,12,,,83,127
4774,note_on,2,0,0,,11,,,82,127
4849,note_off,75,0,0,,11,,,82,127
4849,note_off,0,0,0,,4,,,52,127
4851,note_on,2,0,0,,4,,,52,127
4851,note_on,0,0,0,,8,,,80,127
4926,note_off,75,0,0,,8,,,80,127
4928,note_on,2,0,0,,6,,,78,127
5003,note_off,75,0,0,,6,,,78,127
5003,note_off,0,0,0,,4,,,52,127
5005,note_on,2,0,0,,4,,,52,127
5005,note_on,0,0,0,,4,,,76,127
5080,note_off,75,0,0,,4,,,76,127
5082,note_on,2,0,0,,3,,,75,127
5157,note_off,75,0,0,,3,,,75,127
5157,note_off,0,0,0,,4,,,52,127
5159,note_on,2,0,0,,6,,,54,127
5159,note_on,0,0,0,,1,,,73,127
5234,note_off,75,0,0,,1,,,73,127
5236,note_on,2,0,0,,12,,,71,127
5311,note_off,75,0,0,,12,,,71,127
5311,note_off,0,0,0,,6,,,54,127
5313,note_on,2,0,0,,6,,,54,127
5313,note_on,0,0,0,,11,,,70,127
5388,note_off,75,0,0,,11,,,70,127
5390,note_on,2,0,0,,8,,,68,127
5465,note_off,75,0,0,,8,,,68,127
5465,note_off,0,0,0,,6,,,54,127
5467,note_on,2,0,0,,6,,,54,127
5467,note_on,0,0,0,,6,,,66,127
5542,note_off,75,0,0,,6,,,66,127
5544,note_on,2,0,0,,4,,,64,127
5619,note_off,75,0,0,,4,,,64,127
5619,note_off,0,0,0,,6,,,54,127
5621,note_on,2,0,0,,12,,,47,127
5621,note_on,0,0,0,,3,,,63,127
5773,note_off,152,0,0,,12,,,47,127
5775,note_on,2,0,0,,12,,,47,127
5927,note_off,152,0,0,,12,,,47,127
5929,note_on,2,0,0,,12,,,47,127
6081,note_off,152,0,0,,12,,,47,127
6081,note_off,0,0,0,,3,,,63,127
6083,note_on,2,0,0,,3,,,51,127
6083,note_on,0,0,0,,12,,,83,127
6235,note_off,152,0,0,,3,,,51,127
6237,note_on,2,0,0,,3,,,51,127
6389,note_off,152,0,0,,3,,,51,127
6391,note_on,2,0,0,,3,,,51,127
6543,note_off,152,0,0,,3,,,51,127
6545,note_on,2,0,0,,4,,,52,127
6620,note_off,75,0,0,,12,,,83,127
6622,note_on,2,0,0,,11,,,82,127
6697,note_off,75,0,0,,11,,,82,127
6697,note_off,0,0,0,,4,,,52,127
6699,note_on,2,0,0,,4,,,52,127
6699,note_on,0,0,0,,8,,,80,127
6774,note_off,75,0,0,,8,,,80,127
6776,note_on,2,0,0,,6,,,78,127
6851,note_off,75,0,0,,6,,,78,127
6851,note_off,0,0,0,,4,,,52,127
6853,note_on,2,0,0,,4,,,52,127
6853,note_on,0,0,0,,4,,,76,127
6928,note_off,75,0,0,,4,,,76,127
6930,note_on,2,0,0,,3,,,75,127
7005,note_off,75,0,0,,3,,,75,127
7005,note_off,0,0,0,,4,,,52,127
7007,note_on,2,0,0,,6,,,54,127
7007,note_on,0,0,0,,1,,,73,127
7082,note_off,75,0,0,,1,,,73,127
7084,note_on,2,0,0,,12,,,71,127
7159,note_off,75,0,0,,12,,,71,127
7159,note_off,0,0,0,,6,,,54,127
7161,note_on,2,0,0,,6,,,54,127
7161,note_on,0,0,0,,11,,,70,127
7236,note_off,75,0,0,,11,,,70,127
7238,note_on,2,0,0,,8,,,68,127
7313,note_off,75,0,0,,8,,,68,127
7313,note_off,0,0,0,,6,,,54,127
7315,note_on,2,0,0,,6,,,54,127
7315,note_on,0,0,0,,6,,,66,127
7390,note_off,75,0,0,,6,,,66,127
7392,note_on,2,0,0,,4,,,64,127
7467,note_off,75,0,0,,4,,,64,127
7467,note_off,0,0,0,,6,,,54,127
7469,note_on,2,0,0,,12,,,59,127
7469,note_on,0,0,0,,3,,,63,127
7621,note_off,152,0,0,,12,,,59,127
7623,note_on,2,0,0,,12,,,59,127
7775,note_off,152,0,0,,12,,,59,127
7777,note_on,2,0,0,,12,,,59,127
7929,note_off,152,0,0,,12,,,59,127
7929,note_off,0,0,0,,3,,,63,127
7931,note_on,2,0,0,,2,,,62,127
7931,note_on,0,0,0,,12,,,71,127
7931,note_on,0,0,0,,6,,,66,127
8083,note_off,152,0,0,,2,,,62,127
8085,note_on,2,0,0,,2,,,62,127
8237,note_off,152,0,0,,2,,,62,127
8239,note_on,2,0,0,,2,,,62,127
8391,note_off,152,0,0,,2,,,62,127
8391,note_off,0,0,0,,6,,,66,127
8391,note_off,0,0,0,,12,,,71,127
8393,note_on,2,0,0,,1,,,61,127
8393,note_on,0,0,0,,12,,,71,127
8393,note_on,0,0,0,,5,,,65,127
8545,note_off,152,0,0,,1,,,61,127
8547,note_on,2,0,0,,1,,,61,127
8699,note_off,152,0,0,,1,,,61,127
8701,note_on,2,0,0,,1,,,61,127
8853,note_off,152,0,0,,1,,,61,127
8853,note_off,0,0,0,,5,,,65,127
8853,note_off,0,0,0,,12,,,71,127
8855,note_on,2,0,0,,2,,,62,127
8855,note_on,0,0,0,,6,,,66,127
8855,note_on,0,0,0,,12,,,71,127
9007,note_off,152,0,0,,2,,,62,127
9009,note_on,2,0,0,,2,,,62,127
9161,note_off,152,0,0,,2,,,62,127
9163,note_on,2,0,0,,2,,,62,127
9315,note_off,152,0,0,,2,,,62,127
9315,note_off,0,0,0,,12,,,71,127
9315,note_off,0,0,0,,6,,,66,127
9317,note_on,2,0,0,,1,,,61,127
9317,note_on,0,0,0,,5,,,65,127
9317,note_on,0,0,0,,12,,,71,127
9469,note_off,152,0,0,,1,,,61,127
9471,note_on,2,0,0,,1,,,61,127
9623,note_off,152,0,0,,1,,,61,127
9625,note_on,2,0,0,,1,,,61,127
9777,note_off,152,0,0,,1,,,61,127
9777,note_off,0,0,0,,12,,,71,127
9777,note_off,0,0,0,,5,,,65,127
9779,note_on,2,0,0,,1,,,61,127
9779,note_on,0,0,0,,6,,,66,127
9779,note_on,0,0,0,,10,,,69,127
9931,note_off,152,0,0,,1,,,61,127
9933,note_on,2,0,0,,1,,,61,127
10085,note_off,152,0,0,,1,,,61,127
10087,note_on,2,0,0,,1,,,61,127
10239,note_off,152,0,0,,1,,,61,127
10239,note_off,0,0,0,,10,,,69,127
10239,note_off,0,0,0,,6,,,66,127
10241,note_on,2,0,0,,0,,,60,127
10241,note_on,0,0,0,,6,,,66,127
10241,note_on,0,0,0,,8,,,68,127
10393,note_off,152,0,0,,0,,,60,127
10395,note_on,2,0,0,,0,,,60,127
10547,note_off,152,0,0,,0,,,60,127
10549,note_on,2,0,0,,0,,,60,127
10701,note_off,152,0,0,,0,,,60,127
10701,note_off,0,0,0,,8,,,68,127
10701,note_off,0,0,0,,6,,,66,127
10703,note_on,2,0,0,,1,,,61,127
10703,note_on,0,0,0,,6,,,66,127
10703,note_on,0,0,0,,10,,,69,127
10855,note_off,152,0,0,,1,,,61,127
10857,note_on,2,0,0,,1,,,61,127
11009,note_off,152,0,0,,1,,,61,127
11011,note_on,2,0,0,,1,,,61,127
11163,note_off,152,0,0,,1,,,61,127
11163,note_off,0,0,0,,10,,,69,127
11163,note_off,0,0,0,,6,,,66,127
11165,note_on,2,0,0,,0,,,60,127
11165,note_on,0,0,0,,8,,,68,127
11165,note_on,0,0,0,,6,,,66,127
11317,note_off,152,0,0,,0,,,60,127
11319,note_on,2,0,0,,0,,,60,127
11471,note_off,152,0,0,,0,,,60,127
11473,note_on,2,0,0,,0,,,60,127
11625,note_off,152,0,0,,0,,,60,127
11625,note_off,0,0,0,,6,,,66,127
11625,note_off,0,0,0,,8,,,68,127
11627,note_on,2,0,0,,12,,,59,127
11627,note_on,0,0,0,,4,,,64,127
11627,note_on,0,0,0,,7,,,67,127
11627,note_on,0,0,0,,12,,,71,127
11779,note_off,152,0,0,,7,,,67,127
11781,note_on,2,0,0,,7,,,67,127
11933,note_off,152,0,0,,7,,,67,127
11935,note_on,2,0,0,,7,,,67,127
12087,note_off,152,0,0,,7,,,67,127
12087,note_off,0,0,0,,4,,,64,127
12087,note_off,0,0,0,,12,,,59,127
12088,note_off,1,0,0,,12,,,71,127
12089,note_on,1,0,0,,11,,,58,127
12089,note_on,0,0,0,,4,,,64,127
12089,note_on,0,0,0,,6,,,66,127
12089,note_on,0,0,0,,1,,,73,127
12241,note_off,152,0,0,,6,,,66,127
12243,note_on,2,0,0,,6,,,66,127
12395,note_off,152,0,0,,6,,,66,127
12397,note_on,2,0,0,,6,,,66,127
12549,note_off,152,0,0,,6,,,66,127
12549,note_off,0,0,0,,4,,,64,127
12549,note_off,0,0,0,,11,,,58,127
12550,note_off,1,0,0,,1,,,73,127
12551,note_on,1,0,0,,12,,,59,127
12551,note_on,0,0,0,,4,,,64,127
12551,note_on,0,0,0,,7,,,67,127
12551,note_on,0,0,0,,12,,,71,127
12703,note_off,152,0,0,,7,,,67,127
12705,note_on,2,0,0,,7,,,67,127
12857,note_off,152,0,0,,7,,,67,127
12859,note_on,2,0,0,,7,,,67,127
13011,note_off,152,0,0,,7,,,67,127
13011,note_off,0,0,0,,4,,,64,127
13011,note_off,0,0,0,,12,,,59,127
13012,note_off,1,0,0,,12,,,71,127
13013,note_on,1,0,0,,11,,,58,127
13013,note_on,0,0,0,,4,,,64,127
13013,note_on,0,0,0,,6,,,66,127
13013,note_on,0,0,0,,1,,,73,127
13165,note_off,152,0,0,,6,,,66,127
13167,note_on,2,0,0,,6,,,66,127
13319,note_off,152,0,0,,6,,,66,127
13321,note_on,2,0,0,,6,,,66,127
13473,note_off,152,0,0,,6,,,66,127
13473,note_off,0,0,0,,4,,,64,127
13473,note_off,0,0,0,,11,,,58,127
13474,note_off,1,0,0,,1,,,73,127
13475,note_on,1,0,0,,10,,,57,127
13475,note_on,0,0,0,,4,,,64,127
13475,note_on,0,0,0,,0,,,72,127
13475,note_on,0,0,0,,3,,,75,127
13627,note_off,152,0,0,,0,,,72,127
13629,note_on,2,0,0,,0,,,72,127
13781,note_off,152,0,0,,0,,,72,127
13783,note_on,2,0,0,,0,,,72,127
13935,note_off,152,0,0,,0,,,72,127
13935,note_off,0,0,0,,4,,,64,127
13935,note_off,0,0,0,,10,,,57,127
13936,note_off,1,0,0,,3,,,75,127
13937,note_on,1,0,0,,7,,,55,127
13937,note_on,0,0,0,,4,,,64,127
13937,note_on,0,0,0,,4,,,76,127
13937,note_on,0,0,0,,12,,,71,127
14089,note_off,152,0,0,,12,,,71,127
14091,note_on,2,0,0,,12,,,71,127
14243,note_off,152,0,0,,12,,,71,127
14245,note_on,2,0,0,,12,,,71,127
14397,note_off,152,0,0,,12,,,71,127
14397,note_off,0,0,0,,4,,,64,127
14397,note_off,0,0,0,,7,,,55,127
14398,note_off,1,0,0,,4,,,76,127
14399,note_on,1,0,0,,10,,,57,127
14399,note_on,0,0,0,,4,,,64,127
14399,note_on,0,0,0,,0,,,72,127
14399,note_on,0,0,0,,3,,,75,127
14551,note_off,152,0,0,,0,,,72,127
14553,note_on,2,0,0,,0,,,72,127
14705,note_off,152,0,0,,0,,,72,127
14707,note_on,2,0,0,,0,,,72,127
14859,note_off,152,0,0,,0,,,72,127
14859,note_off,0,0,0,,4,,,64,127
14859,note_off,0,0,0,,10,,,57,127
14860,note_off,1,0,0,,3,,,75,127
14861,note_on,1,0,0,,7,,,55,127
14861,note_on,0,0,0,,4,,,64,127
14861,note_on,0,0,0,,4,,,76,127
14861,note_on,0,0,0,,12,,,71,127
15013,note_off,152,0,0,,12,,,71,127
15015,note_on,2,0,0,,12,,,71,127
15167,note_off,152,0,0,,12,,,71,127
15169,note_on,2,0,0,,12,,,71,127
15321,note_off,152,0,0,,12,,,71,127
15321,note_off,0,0,0,,4,,,64,127
15321,note_off,0,0,0,,7,,,55,127
15322,note_off,1,0,0,,4,,,76,127
15323,note_on,1,0,0,,5,,,53,127
15323,note_on,0,0,0,,2,,,62,127
15323,note_on,0,0,0,,10,,,69,127
15323,note_on,0,0,0,,10,,,81,127
15323,note_on,0,0,0,,2,,,74,127
15475,note_off,152,0,0,,10,,,81,127
15477,note_on,2,0,0,,10,,,81,127
15629,note_off,152,0,0,,10,,,81,127
15631,note_on,2,0,0,,10,,,81,127
15783,note_off,152,0,0,,10,,,81,127
15783,note_off,0,0,0,,2,,,62,127
15783,note_off,0,0,0,,5,,,53,127
15784,note_off,1,0,0,,2,,,74,127
15784,note_off,0,0,0,,10,,,69,127
15785,note_on,1,0,0,,4,,,52,127
15785,note_on,0,0,0,,2,,,62,127
15785,note_on,0,0,0,,8,,,80,127
15785,note_on,0,0,0,,12,,,71,127
15785,note_on,0,0,0,,2,,,74,127
15937,note_off,152,0,0,,8,,,80,127
15939,note_on,2,0,0,,8,,,80,127
16091,note_off,152,0,0,,8,,,80,127
16093,note_on,2,0,0,,8,,,80,127
16245,note_off,152,0,0,,8,,,80,127
16245,note_off,0,0,0,,2,,,62,127
16245,note_off,0,0,0,,4,,,52,127
16246,note_off,1,0,0,,2,,,74,127
16246,note_off,0,0,0,,12,,,71,127
16247,note_on,1,0,0,,5,,,53,127
16247,note_on,0,0,0,,2,,,62,127
16247,note_on,0,0,0,,10,,,81,127
16247,note_on,0,0,0,,2,,,74,127
16247,note_on,0,0,0,,10,,,69,127
16399,note_off,152,0,0,,10,,,81,127
16401,note_on,2,0,0,,10,,,81,127
16553,note_off,152,0,0,,10,,,81,127
16555,note_on,2,0,0,,10,,,81,127
16707,note_off,152,0,0,,10,,,81,127
16707,note_off,0,0,0,,2,,,62,127
16707,note_off,0,0,0,,5,,,53,127
16708,note_off,1,0,0,,10,,,69,127
16708,note_off,0,0,0,,2,,,74,127
16709,note_on,1,0,0,,4,,,52,127
16709,note_on,0,0,0,,2,,,62,127
16709,note_on,0,0,0,,8,,,80,127
16709,note_on,0,0,0,,12,,,71,127
16709,note_on,0,0,0,,2,,,74,127
16861,note_off,152,0,0,,8,,,80,127
16863,note_on,2,0,0,,8,,,80,127
17015,note_off,152,0,0,,8,,,80,127
17017,note_on,2,0,0,,8,,,80,127
17169,note_off,152,0,0,,8,,,80,127
17169,note_off,0,0,0,,2,,,62,127
17169,note_off,0,0,0,,4,,,52,127
17170,note_off,1,0,0,,2,,,74,127
17170,note_off,0,0,0,,12,,,71,127
17171,note_on,1,0,0,,5,,,53,127
17171,note_on,0,0,0,,12,,,59,127
17171,note_on,0,0,0,,1,,,61,127
17171,note_on,0,0,0,,8,,,80,127
17171,note_on,0,0,0,,2,,,74,127
17323,note_off,152,0,0,,2,,,74,127
17325,note_on,2,0,0,,1,,,73,127
17477,note_off,152,0,0,,1,,,73,127
17479,note_on,2,0,0,,12,,,71,127
17631,note_off,152,0,0,,12,,,71,127
17631,note_off,0,0,0,,1,,,61,127
17631,note_off,0,0,0,,12,,,59,127
17631,note_off,0,0,0,,5,,,53,127
17633,note_on,2,0,0,,6,,,54,127
17633,note_on,0,0,0,,1,,,61,127
17633,note_on,0,0,0,,10,,,69,127
17786,note_off,153,0,0,,8,,,80,127
17787,note_on,1,0,0,,6,,,78,127
17939,note_off,152,0,0,,6,,,78,127
17941,note_on,2,0,0,,5,,,77,127
18093,note_off,152,0,0,,5,,,77,127
18093,note_off,0,0,0,,1,,,61,127
18093,note_off,0,0,0,,6,,,54,127
18094,note_off,1,0,0,,10,,,69,127
18095,note_on,1,0,0,,10,,,45,127
18095,note_on,0,0,0,,6,,,54,127
18095,note_on,0,0,0,,6,,,78,127
18249,note_on,154,0,0,,1,,,73,127
18399,note_off,150,0,0,,6,,,78,127
18401,note_off,2,0,0,,1,,,73,127
18403,note_on,2,0,0,,4,,,76,127
18555,note_off,152,0,0,,4,,,76,127
18555,note_off,0,0,0,,6,,,54,127
18555,note_off,0,0,0,,10,,,45,127
18557,note_on,2,0,0,,12,,,47,127
18557,note_on,0,0,0,,6,,,54,127
18557,note_on,0,0,0,,4,,,76,127
18632,note_off,75,0,0,,4,,,76,127
18634,note_on,2,0,0,,2,,,74,127
18709,note_off,75,0,0,,2,,,74,127
18711,note_on,2,0,0,,1,,,73,127
18863,note_off,152,0,0,,1,,,73,127
18865,note_on,2,0,0,,12,,,71,127
19017,note_off,152,0,0,,12,,,71,127
19017,note_off,0,0,0,,6,,,54,127
19017,note_off,0,0,0,,12,,,47,127
19019,note_on,2,0,0,,2,,,50,127
19019,note_on,0,0,0,,12,,,59,127
19019,note_on,0,0,0,,1,,,73,127
19094,note_off,75,0,0,,1,,,73,127
19096,note_on,2,0,0,,12,,,71,127
19171,note_off,75,0,0,,12,,,71,127
19173,note_on,2,0,0,,10,,,69,127
19325,note_off,152,0,0,,10,,,69,127
19327,note_on,2,0,0,,12,,,71,127
19479,note_off,152,0,0,,12,,,71,127
19479,note_off,0,0,0,,12,,,59,127
19479,note_off,0,0,0,,2,,,50,127
19481,note_on,2,0,0,,1,,,49,127
19481,note_on,0,0,0,,1,,,61,127
19481,note_on,0,0,0,,1,,,73,127
19633,note_off,152,0,0,,1,,,73,127
19635,note_on,2,0,0,,3,,,75,127
19787,note_off,152,0,0,,3,,,75,127
19789,note_on,2,0,0,,5,,,77,127
19941,note_off,152,0,0,,5,,,77,127
19941,note_off,0,0,0,,1,,,61,127
19941,note_off,0,0,0,,1,,,49,127
19943,note_on,2,0,0,,10,,,45,127
19943,note_on,0,0,0,,6,,,54,127
19943,note_on,0,0,0,,6,,,78,127
20097,note_on,154,0,0,,1,,,73,127
20247,note_off,150,0,0,,6,,,78,127
20249,note_off,2,0,0,,1,,,73,127
20251,note_on,2,0,0,,4,,,76,127
20403,note_off,152,0,0,,4,,,76,127
20403,note_off,0,0,0,,6,,,54,127
20403,note_off,0,0,0,,10,,,45,127
20405,note_on,2,0,0,,12,,,47,127
20405,note_on,0,0,0,,6,,,54,127
20405,note_on,0,0,0,,4,,,76,127
20480,note_off,75,0,0,,4,,,76,127
20482,note_on,2,0,0,,2,,,74,127
20557,note_off,75,0,0,,2,,,74,127
20559,note_on,2,0,0,,1,,,73,127
20711,note_off,152,0,0,,1,,,73,127
20713,note_on,2,0,0,,12,,,71,127
20865,note_off,152,0,0,,12,,,71,127
20865,note_off,0,0,0,,6,,,54,127
20865,note_off,0,0,0,,12,,,47,127
20867,note_on,2,0,0,,2,,,50,127
20867,note_on,0,0,0,,12,,,59,127
20867,note_on,0,0,0,,1,,,73,127
20942,note_off,75,0,0,,1,,,73,127
20944,note_on,2,0,0,,12,,,71,127
21019,note_off,75,0,0,,12,,,71,127
21021,note_on,2,0,0,,10,,,69,127
21173,note_off,152,0,0,,10,,,69,127
21175,note_on,2,0,0,,12,,,71,127
21327,note_off,152,0,0,,12,,,71,127
21327,note_off,0,0,0,,12,,,59,127
21327,note_off,0,0,0,,2,,,50,127
21329,note_on,2,0,0,,1,,,49,127
21329,note_on,0,0,0,,12,,,71,127
21635,note_off,306,0,0,,12,,,71,127
21637,note_on,2,0,0,,1,,,73,127
21789,note_off,152,0,0,,1,,,73,127
21789,note_off,0,0,0,,1,,,49,127
21803,note_on,14,0,0,,1,,,73,127
21803,note_on,0,0,0,,1,,,61,127
21878,note_off,75,0,0,,1,,,61,127
21880,note_on,2,0,0,,12,,,59,127
21955,note_off,75,0,0,,12,,,59,127
21957,note_on,2,0,0,,10,,,57,127
22032,note_off,75,0,0,,10,,,57,127
22034,note_on,2,0,0,,8,,,56,127
22109,note_off,75,0,0,,8,,,56,127
22111,note_on,2,0,0,,6,,,54,127
22186,note_off,75,0,0,,6,,,54,127
22188,note_on,2,0,0,,4,,,52,127
22263,note_off,75,0,0,,4,,,52,127
22265,note_on,2,0,0,,2,,,50,127
22340,note_off,75,0,0,,2,,,50,127
22342,note_on,2,0,0,,1,,,49,127
22417,note_off,75,0,0,,1,,,49,127
22419,note_on,2,0,0,,12,,,47,127
22494,note_off,75,0,0,,12,,,47,127
22496,note_on,2,0,0,,10,,,45,127
22571,note_off,75,0,0,,10,,,45,127
22573,note_on,2,0,0,,8,,,44,127
22725,note_off,152,0,0,,8,,,44,127
22725,note_off,0,0,0,,1,,,73,127
22727,note_on,2,0,0,,12,,,71,127
22727,note_on,0,0,0,,6,,,66,127
22727,note_on,0,0,0,,6,,,42,127
22802,note_off,75,0,0,,12,,,71,127
22804,note_on,2,0,0,,10,,,69,127
22879,note_off,75,0,0,,10,,,69,127
22881,note_on,2,0,0,,8,,,68,127
23033,note_off,152,0,0,,8,,,68,127
23035,note_on,2,0,0,,10,,,69,127
23187,note_off,152,0,0,,10,,,69,127
23187,note_off,0,0,0,,6,,,42,127
23188,note_off,1,0,0,,6,,,66,127
23189,note_on,1,0,0,,10,,,69,127
23189,note_on,0,0,0,,6,,,66,127
23189,note_on,0,0,0,,1,,,37,127
23495,note_off,306,0,0,,6,,,66,127
23495,note_off,0,0,0,,10,,,69,127
23497,note_on,2,0,0,,8,,,68,127
23497,note_on,0,0,0,,5,,,65,127
23649,note_off,152,0,0,,5,,,65,127
23649,note_off,0,0,0,,8,,,68,127
23649,note_off,0,0,0,,1,,,37,127
23651,note_on,2,0,0,,1,,,73,127
23651,note_on,0,0,0,,1,,,61,127
23726,note_off,75,0,0,,1,,,61,127
23728,note_on,2,0,0,,12,,,59,127
23803,note_off,75,0,0,,12,,,59,127
23805,note_on,2,0,0,,10,,,57,127
23880,note_off,75,0,0,,10,,,57,127
23882,note_on,2,0,0,,8,,,56,127
23957,note_off,75,0,0,,8,,,56,127
23959,note_on,2,0,0,,6,,,54,127
24034,note_off,75,0,0,,6,,,54,127
24036,note_on,2,0,0,,4,,,52,127
24111,note_off,75,0,0,,4,,,52,127
24113,note_on,2,0,0,,2,,,50,127
24188,note_off,75,0,0,,2,,,50,127
24190,note_on,2,0,0,,1,,,49,127
24265,note_off,75,0,0,,1,,,49,127
24267,note_on,2,0,0,,12,,,47,127
24342,note_off,75,0,0,,12,,,47,127
24344,note_on,2,0,0,,10,,,45,127
24419,note_off,75,0,0,,10,,,45,127
24421,note_on,2,0,0,,8,,,44,127
24573,note_off,152,0,0,,8,,,44,127
24573,note_off,0,0,0,,1,,,73,127
24575,note_on,2,0,0,,6,,,66,127
24575,note_on,0,0,0,,12,,,71,127
24575,note_on,0,0,0,,6,,,42,127
24650,note_off,75,0,0,,12,,,71,127
24652,note_on,2,0,0,,10,,,69,127
24727,note_off,75,0,0,,10,,,69,127
24729,note_on,2,0,0,,8,,,68,127
24881,note_off,152,0,0,,8,,,68,127
24883,note_on,2,0,0,,10,,,69,127
25035,note_off,152,0,0,,10,,,69,127
25035,note_off,0,0,0,,6,,,42,127
25036,note_off,1,0,0,,6,,,66,127
25037,note_on,1,0,0,,6,,,66,127
25037,note_on,0,0,0,,10,,,69,127
25037,note_on,0,0,0,,1,,,37,127
25343,note_off,306,0,0,,10,,,69,127
25343,note_off,0,0,0,,6,,,66,127
25345,note_on,2,0,0,,5,,,65,127
25345,note_on,0,0,0,,8,,,68,127
25497,note_off,152,0,0,,8,,,68,127
25497,note_off,0,0,0,,5,,,65,127
25497,note_off,0,0,0,,1,,,37,127
25499,note_on,2,0,0,,1,,,73,127
25499,note_on,0,0,0,,6,,,54,127
25499,note_on,0,0,0,,10,,,45,127
25651,note_off,152,0,0,,1,,,73,127
25653,note_on,2,0,0,,2,,,74,127
25805,note_off,152,0,0,,2,,,74,127
25807,note_on,2,0,0,,4,,,76,127
25959,note_off,152,0,0,,4,,,76,127
25959,note_off,0,0,0,,10,,,45,127
25959,note_off,0,0,0,,6,,,54,127
25961,note_on,2,0,0,,4,,,76,127
25961,note_on,0,0,0,,8,,,56,127
25961,note_on,0,0,0,,6,,,54,127
25961,note_on,0,0,0,,12,,,47,127
26113,note_off,152,0,0,,4,,,76,127
26115,note_on,2,0,0,,2,,,74,127
26267,note_off,152,0,0,,2,,,74,127
26269,note_on,2,0,0,,1,,,73,127
26421,note_off,152,0,0,,1,,,73,127
26421,note_off,0,0,0,,12,,,47,127
26421,note_off,0,0,0,,6,,,54,127
26421,note_off,0,0,0,,8,,,56,127
26423,note_on,2,0,0,,1,,,73,127
26423,note_on,0,0,0,,1,,,49,127
26423,note_on,0,0,0,,8,,,56,127
26498,note_off,75,0,0,,1,,,73,127
26500,note_on,2,0,0,,12,,,71,127
26575,note_off,75,0,0,,12,,,71,127
26577,note_on,2,0,0,,10,,,69,127
26729,note_off,152,0,0,,10,,,69,127
26731,note_on,2,0,0,,8,,,68,127
26883,note_off,152,0,0,,8,,,68,127
26883,note_off,0,0,0,,8,,,56,127
26883,note_off,0,0,0,,1,,,49,127
26885,note_on,2,0,0,,6,,,66,127
26885,note_on,0,0,0,,6,,,54,127
26885,note_on,0,0,0,,6,,,42,127
27344,note_off,459,0,0,,6,,,42,127
27344,note_off,0,0,0,,6,,,54,127
27344,note_off,0,0,0,,6,,,66,127
27346,note_on,2,0,0,,1,,,73,127
27346,note_on,0,0,0,,1,,,61,127
27421,note_off,75,0,0,,1,,,61,127
27423,note_on,2,0,0,,12,,,59,127
27498,note_off,75,0,0,,12,,,59,127
27500,note_on,2,0,0,,10,,,57,127
27575,note_off,75,0,0,,10,,,57,127
27577,note_on,2,0,0,,8,,,56,127
27652,note_off,75,0,0,,8,,,56,127
27654,note_on,2,0,0,,6,,,54,127
27729,note_off,75,0,0,,6,,,54,127
27731,note_on,2,0,0,,4,,,52,127
27806,note_off,75,0,0,,4,,,52,127
27808,note_on,2,0,0,,2,,,50,127
27883,note_off,75,0,0,,2,,,50,127
27885,note_on,2,0,0,,1,,,49,127
27960,note_off,75,0,0,,1,,,49,127
27962,note_on,2,0,0,,12,,,47,127
28037,note_off,75,0,0,,12,,,47,127
28039,note_on,2,0,0,,10,,,45,127
28114,note_off,75,0,0,,10,,,45,127
28116,note_on,2,0,0,,8,,,44,127
28268,note_off,152,0,0,,8,,,44,127
28268,note_off,0,0,0,,1,,,73,127
28270,note_on,2,0,0,,6,,,66,127
28270,note_on,0,0,0,,12,,,71,127
28270,note_on,0,0,0,,6,,,42,127
28345,note_off,75,0,0,,12,,,71,127
28347,note_on,2,0,0,,10,,,69,127
28422,note_off,75,0,0,,10,,,69,127
28424,note_on,2,0,0,,8,,,68,127
28576,note_off,152,0,0,,8,,,68,127
28578,note_on,2,0,0,,10,,,69,127
28730,note_off,152,0,0,,10,,,69,127
28730,note_off,0,0,0,,6,,,42,127
28731,note_off,1,0,0,,6,,,66,127
28732,note_on,1,0,0,,6,,,66,127
28732,note_on,0,0,0,,10,,,69,127
28732,note_on,0,0,0,,1,,,37,127
29038,note_off,306,0,0,,10,,,69,127
29038,note_off,0,0,0,,6,,,66,127
29040,note_on,2,0,0,,5,,,65,127
29040,note_on,0,0,0,,8,,,68,127
29192,note_off,152,0,0,,8,,,68,127
29192,note_off,0,0,0,,5,,,65,127
29192,note_off,0,0,0,,1,,,37,127
29194,note_on,2,0,0,,1,,,73,127
29194,note_on,0,0,0,,1,,,61,127
29269,note_off,75,0,0,,1,,,61,127
29271,note_on,2,0,0,,12,,,59,127
29346,note_off,75,0,0,,12,,,59,127
29348,note_on,2,0,0,,10,,,57,127
29423,note_off,75,0,0,,10,,,57,127
29425,note_on,2,0,0,,8,,,56,127
29500,note_off,75,0,0,,8,,,56,127
29502,note_on,2,0,0,,6,,,54,127
29577,note_off,75,0,0,,6,,,54,127
29579,note_on,2,0,0,,4,,,52,127
29654,note_off,75,0,0,,4,,,52,127
29656,note_on,2,0,0,,2,,,50,127
29731,note_off,75,0,0,,2,,,50,127
29733,note_on,2,0,0,,1,,,49,127
29808,note_off,75,0,0,,1,,,49,127
29810,note_on,2,0,0,,12,,,47,127
29885,note_off,75,0,0,,12,,,47,127
29887,note_on,2,0,0,,10,,,45,127
29962,note_off,75,0,0,,10,,,45,127
29964,note_on,2,0,0,,8,,,44,127
30116,note_off,152,0,0,,8,,,44,127
30116,note_off,0,0,0,,1,,,73,127
30118,note_on,2,0,0,,6,,,66,127
30118,note_on,0,0,0,,12,,,71,127
30118,note_on,0,0,0,,6,,,42,127
30193,note_off,75,0,0,,12,,,71,127
30195,note_on,2,0,0,,10,,,69,127
30270,note_off,75,0,0,,10,,,69,127
30272,note_on,2,0,0,,8,,,68,127
30424,note_off,152,0,0,,8,,,68,127
30426,note_on,2,0,0,,10,,,69,127
30578,note_off,152,0,0,,10,,,69,127
30578,note_off,0,0,0,,6,,,42,127
30579,note_off,1,0,0,,6,,,66,127
30580,note_on,1,0,0,,6,,,66,127
30580,note_on,0,0,0,,10,,,69,127
30580,note_on,0,0,0,,1,,,37,127
30886,note_off,306,0,0,,10,,,69,127
30886,note_off,0,0,0,,6,,,66,127
30888,note_on,2,0,0,,8,,,68,127
30888,note_on,0,0,0,,5,,,65,127
31040,note_off,152,0,0,,5,,,65,127
31040,note_off,0,0,0,,8,,,68,127
31040,note_off,0,0,0,,1,,,37,127
31042,note_on,2,0,0,,1,,,73,127
31042,note_on,0,0,0,,10,,,45,127
31042,note_on,0,0,0,,6,,,54,127
31194,note_off,152,0,0,,1,,,73,127
31196,note_on,2,0,0,,2,,,74,127
31348,note_off,152,0,0,,2,,,74,127
31350,note_on,2,0,0,,4,,,76,127
31502,note_off,152,0,0,,4,,,76,127
31502,note_off,0,0,0,,6,,,54,127
31502,note_off,0,0,0,,10,,,45,127
31504,note_on,2,0,0,,4,,,76,127
31504,note_on,0,0,0,,8,,,56,127
31504,note_on,0,0,0,,12,,,47,127
31504,note_on,0,0,0,,6,,,54,127
31656,note_off,152,0,0,,4,,,76,127
31658,note_on,2,0,0,,2,,,74,127
31810,note_off,152,0,0,,2,,,74,127
31812,note_on,2,0,0,,1,,,73,127
31964,note_off,152,0,0,,1,,,73,127
31964,note_off,0,0,0,,6,,,54,127
31964,note_off,0,0,0,,12,,,47,127
31964,note_off,0,0,0,,8,,,56,127
31966,note_on,2,0,0,,1,,,73,127
31966,note_on,0,0,0,,8,,,56,127
31966,note_on,0,0,0,,1,,,49,127
32041,note_off,75,0,0,,1,,,73,127
32043,note_on,2,0,0,,12,,,71,127
32118,note_off,75,0,0,,12,,,71,127
32120,note_on,2,0,0,,10,,,69,127
32272,note_off,152,0,0,,10,,,69,127
32274,note_on,2,0,0,,8,,,68,127
32426,note_off,152,0,0,,8,,,68,127
32426,note_off,0,0,0,,1,,,49,127
32426,note_off,0,0,0,,8,,,56,127
32428,note_on,2,0,0,,6,,,66,127
32428,note_on,0,0,0,,6,,,54,127
32428,note_on,0,0,0,,6,,,42,127
32812,note_off,384,0,0,,6,,,66,127
32887,note_off,75,0,0,,6,,,42,127
32887,note_off,0,0,0,,6,,,54,127
32895,note_on,8,0,0,,12,,,59,127
32895,note_on,0,0,0,,7,,,67,127
33047,note_off,152,0,0,,7,,,67,127
33049,note_on,2,0,0,,11,,,70,127
33201,note_off,152,0,0,,11,,,70,127
33203,note_on,2,0,0,,12,,,71,127
33355,note_off,152,0,0,,12,,,71,127
33355,note_off,0,0,0,,12,,,59,127
33357,note_on,2,0,0,,2,,,62,127
33357,note_on,0,0,0,,12,,,71,127
33509,note_off,152,0,0,,12,,,71,127
33511,note_on,2,0,0,,1,,,73,127
33663,note_off,152,0,0,,1,,,73,127
33665,note_on,2,0,0,,2,,,74,127
33817,note_off,152,0,0,,2,,,74,127
33817,note_off,0,0,0,,2,,,62,127
33819,note_on,2,0,0,,12,,,59,127
33819,note_on,0,0,0,,2,,,74,127
33971,note_off,152,0,0,,2,,,74,127
33973,note_on,2,0,0,,5,,,77,127
34125,note_off,152,0,0,,5,,,77,127
34127,note_on,2,0,0,,6,,,78,127
34279,note_off,152,0,0,,6,,,78,127
34279,note_off,0,0,0,,12,,,59,127
34281,note_on,2,0,0,,10,,,57,127
34281,note_on,0,0,0,,6,,,78,127
34433,note_off,152,0,0,,6,,,78,127
34435,note_on,2,0,0,,8,,,80,127
34587,note_off,152,0,0,,8,,,80,127
34589,note_on,2,0,0,,10,,,81,127
34741,note_off,152,0,0,,10,,,81,127
34741,note_off,0,0,0,,10,,,57,127
34743,note_on,2,0,0,,6,,,54,127
34743,note_on,0,0,0,,10,,,81,127
34895,note_off,152,0,0,,10,,,81,127
34897,note_on,2,0,0,,12,,,83,127
35049,note_off,152,0,0,,12,,,83,127
35051,note_on,2,0,0,,1,,,73,127
35051,note_on,0,0,0,,1,,,85,127
35203,note_off,152,0,0,,1,,,73,127
35203,note_off,0,0,0,,6,,,54,127
35205,note_on,2,0,0,,12,,,59,127
35205,note_on,0,0,0,,2,,,74,127
35355,note_off,150,0,0,,1,,,85,127
35358,note_on,3,0,0,,12,,,83,127
35510,note_off,152,0,0,,12,,,83,127
35512,note_on,2,0,0,,10,,,81,127
35664,note_off,152,0,0,,10,,,81,127
35664,note_off,0,0,0,,12,,,59,127
35665,note_off,1,0,0,,2,,,74,127
35666,note_on,1,0,0,,1,,,61,127
35666,note_on,0,0,0,,8,,,80,127
35818,note_off,152,0,0,,8,,,80,127
35820,note_on,2,0,0,,6,,,78,127
35972,note_off,152,0,0,,6,,,78,127
35974,note_on,2,0,0,,5,,,77,127
36126,note_off,152,0,0,,5,,,77,127
36126,note_off,0,0,0,,1,,,61,127
36128,note_on,2,0,0,,6,,,54,127
36128,note_on,0,0,0,,5,,,77,127
36434,note_off,306,0,0,,5,,,77,127
36436,note_on,2,0,0,,6,,,78,127
36551,note_off,115,0,0,,6,,,78,127
36588,note_off,37,0,0,,6,,,54,127
36590,note_on,2,0,0,,12,,,59,127
36590,note_on,0,0,0,,7,,,67,127
36742,note_off,152,0,0,,7,,,67,127
36744,note_on,2,0,0,,11,,,70,127
36896,note_off,152,0,0,,11,,,70,127
36898,note_on,2,0,0,,12,,,71,127
37050,note_off,152,0,0,,12,,,71,127
37050,note_off,0,0,0,,12,,,59,127
37052,note_on,2,0,0,,2,,,62,127
37052,note_on,0,0,0,,12,,,71,127
37204,note_off,152,0,0,,12,,,71,127
37206,note_on,2,0,0,,1,,,73,127
37358,note_off,152,0,0,,1,,,73,127
37360,note_on,2,0,0,,2,,,74,127
37512,note_off,152,0,0,,2,,,74,127
37512,note_off,0,0,0,,2,,,62,127
37514,note_on,2,0,0,,12,,,59,127
37514,note_on,0,0,0,,2,,,74,127
37666,note_off,152,0,0,,2,,,74,127
37668,note_on,2,0,0,,5,,,77,127
37820,note_off,152,0,0,,5,,,77,127
37822,note_on,2,0,0,,6,,,78,127
37974,note_off,152,0,0,,6,,,78,127
37974,note_off,0,0,0,,12,,,59,127
37976,note_on,2,0,0,,10,,,57,127
37976,note_on,0,0,0,,6,,,78,127
38128,note_off,152,0,0,,6,,,78,127
38130,note_on,2,0,0,,8,,,80,127
38282,note_off,152,0,0,,8,,,80,127
38284,note_on,2,0,0,,10,,,81,127
38436,note_off,152,0,0,,10,,,81,127
38436,note_off,0,0,0,,10,,,57,127
38438,note_on,2,0,0,,6,,,54,127
38438,note_on,0,0,0,,10,,,81,127
38590,note_off,152,0,0,,10,,,81,127
38592,note_on,2,0,0,,12,,,83,127
38744,note_off,152,0,0,,12,,,83,127
38746,note_on,2,0,0,,1,,,85,127
38746,note_on,0,0,0,,1,,,73,127
38898,note_off,152,0,0,,1,,,73,127
38898,note_off,0,0,0,,6,,,54,127
38900,note_on,2,0,0,,12,,,59,127
38900,note_on,0,0,0,,2,,,74,127
39050,note_off,150,0,0,,1,,,85,127
39053,note_on,3,0,0,,12,,,83,127
39205,note_off,152,0,0,,12,,,83,127
39207,note_on,2,0,0,,10,,,81,127
39359,note_off,152,0,0,,10,,,81,127
39359,note_off,0,0,0,,12,,,59,127
39360,note_off,1,0,0,,2,,,74,127
39361,note_on,1,0,0,,1,,,61,127
39361,note_on,0,0,0,,8,,,80,127
39513,note_off,152,0,0,,8,,,80,127
39515,note_on,2,0,0,,6,,,78,127
39667,note_off,152,0,0,,6,,,78,127
39669,note_on,2,0,0,,5,,,77,127
39821,note_off,152,0,0,,5,,,77,127
39821,note_off,0,0,0,,1,,,61,127
39823,note_on,2,0,0,,6,,,54,127
39823,note_on,0,0,0,,5,,,77,127
39975,note_off,152,0,0,,6,,,54,127
39977,note_on,2,0,0,,11,,,58,127
40129,note_off,152,0,0,,11,,,58,127
40129,note_off,0,0,0,,5,,,77,127
40131,note_on,2,0,0,,1,,,61,127
40131,note_on,0,0,0,,6,,,78,127
40283,note_off,152,0,0,,1,,,61,127
40285,note_on,2,0,0,,1,,,37,127
40437,note_off,152,0,0,,6,,,78,127
40439,note_on,2,0,0,,11,,,82,127
40514,note_off,75,0,0,,11,,,82,127
40516,note_on,2,0,0,,8,,,80,127
40591,note_off,75,0,0,,8,,,80,127
40593,note_on,2,0,0,,6,,,78,127
40668,note_off,75,0,0,,6,,,78,127
40670,note_on,2,0,0,,5,,,77,127
40745,note_off,75,0,0,,5,,,77,127
40745,note_off,0,0,0,,1,,,37,127
40747,note_on,2,0,0,,6,,,54,127
40747,note_on,0,0,0,,5,,,77,127
40899,note_off,152,0,0,,6,,,54,127
40901,note_on,2,0,0,,11,,,58,127
41053,note_off,152,0,0,,11,,,58,127
41053,note_off,0,0,0,,5,,,77,127
41055,note_on,2,0,0,,1,,,61,127
41055,note_on,0,0,0,,6,,,78,127
41207,note_off,152,0,0,,1,,,61,127
41209,note_on,2,0,0,,1,,,37,127
41361,note_off,152,0,0,,6,,,78,127
41363,note_on,2,0,0,,11,,,82,127
41438,note_off,75,0,0,,11,,,82,127
41440,note_on,2,0,0,,8,,,80,127
41515,note_off,75,0,0,,8,,,80,127
41517,note_on,2,0,0,,6,,,78,127
41592,note_off,75,0,0,,6,,,78,127
41594,note_on,2,0,0,,5,,,77,127
41669,note_off,75,0,0,,5,,,77,127
41669,note_off,0,0,0,,1,,,37,127
41671,note_on,2,0,0,,6,,,54,127
41671,note_on,0,0,0,,6,,,78,127
41823,note_off,152,0,0,,6,,,78,127
41825,note_on,2,0,0,,1,,,73,127
41977,note_off,152,0,0,,1,,,73,127
41977,note_off,0,0,0,,6,,,54,127
41979,note_on,2,0,0,,11,,,58,127
41979,note_on,0,0,0,,1,,,73,127
42131,note_off,152,0,0,,1,,,73,127
42131,note_off,0,0,0,,11,,,58,127
42133,note_on,2,0,0,,12,,,59,127
42133,note_on,0,0,0,,3,,,75,127
42285,note_off,152,0,0,,3,,,75,127
42287,note_on,2,0,0,,12,,,71,127
42439,note_off,152,0,0,,12,,,71,127
42439,note_off,0,0,0,,12,,,59,127
42441,note_on,2,0,0,,8,,,56,127
42441,note_on,0,0,0,,12,,,71,127
42593,note_off,152,0,0,,12,,,71,127
42593,note_off,0,0,0,,8,,,56,127
42595,note_on,2,0,0,,11,,,58,127
42595,note_on,0,0,0,,1,,,73,127
42747,note_off,152,0,0,,1,,,73,127
42749,note_on,2,0,0,,11,,,70,127
42901,note_off,152,0,0,,11,,,70,127
42901,note_off,0,0,0,,11,,,58,127
42903,note_on,2,0,0,,6,,,54,127
42903,note_on,0,0,0,,11,,,70,127
43055,note_off,152,0,0,,11,,,70,127
43055,note_off,0,0,0,,6,,,54,127
43057,note_on,2,0,0,,8,,,56,127
43057,note_on,0,0,0,,12,,,71,127
43209,note_off,152,0,0,,12,,,71,127
43211,note_on,2,0,0,,8,,,68,127
43363,note_off,152,0,0,,8,,,68,127
43363,note_off,0,0,0,,8,,,56,127
43365,note_on,2,0,0,,5,,,53,127
43365,note_on,0,0,0,,8,,,68,127
43517,note_off,152,0,0,,8,,,68,127
43517,note_off,0,0,0,,5,,,53,127
43519,note_on,2,0,0,,6,,,54,127
43519,note_on,0,0,0,,11,,,70,127
43671,note_off,152,0,0,,11,,,70,127
43673,note_on,2,0,0,,12,,,71,127
43825,note_off,152,0,0,,12,,,71,127
43825,note_off,0,0,0,,6,,,54,127
43827,note_on,2,0,0,,11,,,58,127
43827,note_on,0,0,0,,1,,,73,127
43979,note_off,152,0,0,,1,,,73,127
43979,note_off,0,0,0,,11,,,58,127
43981,note_on,2,0,0,,12,,,59,127
43981,note_on,0,0,0,,8,,,68,127
44133,note_off,152,0,0,,8,,,68,127
44135,note_on,2,0,0,,6,,,66,127
44287,note_off,152,0,0,,6,,,66,127
44287,note_off,0,0,0,,12,,,59,127
44289,note_on,2,0,0,,1,,,61,127
44289,note_on,0,0,0,,5,,,65,127
44441,note_off,152,0,0,,5,,,65,127
44441,note_off,0,0,0,,1,,,61,127
44443,note_on,2,0,0,,11,,,58,127
44443,note_on,0,0,0,,1,,,73,127
44595,note_off,152,0,0,,1,,,73,127
44597,note_on,2,0,0,,12,,,71,127
44749,note_off,152,0,0,,12,,,71,127
44749,note_off,0,0,0,,11,,,58,127
44751,note_on,2,0,0,,6,,,54,127
44751,note_on,0,0,0,,11,,,70,127
44903,note_off,152,0,0,,11,,,70,127
44903,note_off,0,0,0,,6,,,54,127
44905,note_on,2,0,0,,1,,,61,127
44905,note_on,0,0,0,,11,,,70,127
44980,note_off,75,0,0,,11,,,70,127
44982,note_on,2,0,0,,8,,,68,127
45057,note_off,75,0,0,,8,,,68,127
45059,note_on,2,0,0,,6,,,66,127
45211,note_off,152,0,0,,6,,,66,127
45211,note_off,0,0,0,,1,,,61,127
45213,note_on,2,0,0,,1,,,49,127
45213,note_on,0,0,0,,5,,,65,127
45365,note_off,152,0,0,,5,,,65,127
45365,note_off,0,0,0,,1,,,49,127
45367,note_on,2,0,0,,6,,,42,127
45367,note_on,0,0,0,,6,,,54,127
45367,note_on,0,0,0,,5,,,65,127
45885,note_off,518,0,0,,5,,,65,127
45885,note_on,0,0,0,,6,,,66,127
46269,note_off,384,0,0,,6,,,66,127
46307,note_off,38,0,0,,6,,,42,127
46329,note_off,22,0,0,,6,,,54,127
46339,note_on,10,0,0,,6,,,54,127
46339,note_on,0,0,0,,1,,,61,127
46339,note_on,0,0,0,,4,,,64,127
46339,note_on,0,0,0,,12,,,59,127
46493,note_on,154,0,0,,6,,,78,127
46645,note_off,152,0,0,,6,,,78,127
46647,note_on,2,0,0,,4,,,76,127
46799,note_off,152,0,0,,12,,,59,127
46799,note_off,0,0,0,,4,,,64,127
46799,note_off,0,0,0,,1,,,61,127
46799,note_off,0,0,0,,6,,,54,127
46801,note_on,2,0,0,,12,,,59,127
46801,note_on,0,0,0,,6,,,54,127
46801,note_on,0,0,0,,4,,,64,127
46801,note_on,0,0,0,,1,,,61,127
46953,note_off,152,0,0,,4,,,76,127
46955,note_on,2,0,0,,2,,,74,127
47107,note_off,152,0,0,,2,,,74,127
47109,note_on,2,0,0,,1,,,73,127
47261,note_off,152,0,0,,1,,,73,127
47261,note_off,0,0,0,,1,,,61,127
47261,note_off,0,0,0,,4,,,64,127
47261,note_off,0,0,0,,6,,,54,127
47261,note_off,0,0,0,,12,,,59,127
47263,note_on,2,0,0,,12,,,59,127
47263,note_on,0,0,0,,7,,,55,127
47263,note_on,0,0,0,,1,,,61,127
47263,note_on,0,0,0,,4,,,64,127
47263,note_on,0,0,0,,11,,,70,127
47722,note_off,459,0,0,,4,,,64,127
47722,note_off,0,0,0,,1,,,61,127
47722,note_off,0,0,0,,7,,,55,127
47722,note_off,0,0,0,,12,,,59,127
47724,note_on,2,0,0,,12,,,59,127
47724,note_on,0,0,0,,7,,,55,127
47724,note_on,0,0,0,,4,,,64,127
47724,note_on,0,0,0,,1,,,61,127
48030,note_off,306,0,0,,11,,,70,127
48032,note_on,2,0,0,,12,,,71,127
48184,note_off,152,0,0,,1,,,61,127
48184,note_off,0,0,0,,4,,,64,127
48184,note_off,0,0,0,,7,,,55,127
48184,note_off,0,0,0,,12,,,59,127
48186,note_on,2,0,0,,6,,,54,127
48186,note_on,0,0,0,,12,,,59,127
48186,note_on,0,0,0,,4,,,64,127
48186,note_on,0,0,0,,1,,,61,127
48338,note_off,152,0,0,,12,,,71,127
48340,note_on,2,0,0,,6,,,78,127
48492,note_off,152,0,0,,6,,,78,127
48494,note_on,2,0,0,,4,,,76,127
48646,note_off,152,0,0,,1,,,61,127
48646,note_off,0,0,0,,4,,,64,127
48646,note_off,0,0,0,,12,,,59,127
48646,note_off,0,0,0,,6,,,54,127
48648,note_on,2,0,0,,6,,,54,127
48648,note_on,0,0,0,,12,,,59,127
48648,note_on,0,0,0,,1,,,61,127
48648,note_on,0,0,0,,4,,,64,127
48800,note_off,152,0,0,,4,,,76,127
48802,note_on,2,0,0,,2,,,74,127
48954,note_off,152,0,0,,2,,,74,127
48956,note_on,2,0,0,,1,,,73,127
49108,note_off,152,0,0,,1,,,73,127
49108,note_off,0,0,0,,4,,,64,127
49108,note_off,0,0,0,,1,,,61,127
49108,note_off,0,0,0,,12,,,59,127
49108,note_off,0,0,0,,6,,,54,127
49110,note_on,2,0,0,,7,,,55,127
49110,note_on,0,0,0,,1,,,61,127
49110,note_on,0,0,0,,12,,,59,127
49110,note_on,0,0,0,,4,,,64,127
49110,note_on,0,0,0,,11,,,70,127
49569,note_off,459,0,0,,4,,,64,127
49569,note_off,0,0,0,,12,,,59,127
49569,note_off,0,0,0,,1,,,61,127
49569,note_off,0,0,0,,7,,,55,127
49571,note_on,2,0,0,,12,,,59,127
49571,note_on,0,0,0,,7,,,55,127
49571,note_on,0,0,0,,4,,,64,127
49571,note_on,0,0,0,,1,,,61,127
49877,note_off,306,0,0,,11,,,70,127
49879,note_on,2,0,0,,12,,,71,127
50031,note_off,152,0,0,,1,,,61,127
50031,note_off,0,0,0,,4,,,64,127
50031,note_off,0,0,0,,7,,,55,127
50031,note_off,0,0,0,,12,,,59,127
50033,note_on,2,0,0,,8,,,56,127
50033,note_on,0,0,0,,4,,,64,127
50033,note_on,0,0,0,,2,,,62,127
50185,note_off,152,0,0,,12,,,71,127
50187,note_on,2,0,0,,12,,,83,127
50339,note_off,152,0,0,,12,,,83,127
50341,note_on,2,0,0,,4,,,76,127
50493,note_off,152,0,0,,2,,,62,127
50493,note_off,0,0,0,,4,,,64,127
50493,note_off,0,0,0,,8,,,56,127
50495,note_on,2,0,0,,8,,,56,127
50495,note_on,0,0,0,,2,,,62,127
50495,note_on,0,0,0,,4,,,64,127
50647,note_off,152,0,0,,4,,,76,127
50649,note_on,2,0,0,,2,,,74,127
50801,note_off,152,0,0,,2,,,74,127
50803,note_on,2,0,0,,12,,,71,127
50955,note_off,152,0,0,,12,,,71,127
50955,note_off,0,0,0,,4,,,64,127
50955,note_off,0,0,0,,2,,,62,127
50955,note_off,0,0,0,,8,,,56,127
50957,note_on,2,0,0,,10,,,57,127
50957,note_on,0,0,0,,5,,,65,127
50957,note_on,0,0,0,,2,,,62,127
50957,note_on,0,0,0,,2,,,74,127
51032,note_off,75,0,0,,2,,,74,127
51034,note_on,2,0,0,,0,,,72,127
51109,note_off,75,0,0,,0,,,72,127
51111,note_on,2,0,0,,2,,,74,127
51186,note_off,75,0,0,,2,,,74,127
51188,note_on,2,0,0,,0,,,72,127
51263,note_off,75,0,0,,0,,,72,127
51265,note_on,2,0,0,,2,,,74,127
51340,note_off,75,0,0,,2,,,74,127
51342,note_on,2,0,0,,0,,,72,127
51417,note_off,75,0,0,,0,,,72,127
51417,note_off,0,0,0,,2,,,62,127
51417,note_off,0,0,0,,5,,,65,127
51417,note_off,0,0,0,,10,,,57,127
51419,note_on,2,0,0,,10,,,57,127
51419,note_on,0,0,0,,2,,,62,127
51419,note_on,0,0,0,,5,,,65,127
51419,note_on,0,0,0,,2,,,74,127
51494,note_off,75,0,0,,2,,,74,127
51496,note_on,2,0,0,,0,,,72,127
51571,note_off,75,0,0,,0,,,72,127
51573,note_on,2,0,0,,2,,,74,127
51648,note_off,75,0,0,,2,,,74,127
51650,note_on,2,0,0,,0,,,72,127
51725,note_off,75,0,0,,0,,,72,127
51727,note_on,2,0,0,,2,,,74,127
51802,note_off,75,0,0,,2,,,74,127
51804,note_on,2,0,0,,0,,,72,127
51879,note_off,75,0,0,,0,,,72,127
51879,note_off,0,0,0,,5,,,65,127
51879,note_off,0,0,0,,2,,,62,127
51879,note_off,0,0,0,,10,,,57,127
51881,note_on,2,0,0,,8,,,56,127
51881,note_on,0,0,0,,2,,,62,127
51881,note_on,0,0,0,,4,,,64,127
52035,note_on,154,0,0,,12,,,83,127
52187,note_off,152,0,0,,12,,,83,127
52189,note_on,2,0,0,,4,,,76,127
52341,note_off,152,0,0,,4,,,64,127
52341,note_off,0,0,0,,2,,,62,127
52341,note_off,0,0,0,,8,,,56,127
52343,note_on,2,0,0,,8,,,56,127
52343,note_on,0,0,0,,2,,,62,127
52343,note_on,0,0,0,,4,,,64,127
52495,note_off,152,0,0,,4,,,76,127
52497,note_on,2,0,0,,2,,,74,127
52649,note_off,152,0,0,,2,,,74,127
52651,note_on,2,0,0,,12,,,71,127
52803,note_off,152,0,0,,12,,,71,127
52803,note_off,0,0,0,,4,,,64,127
52803,note_off,0,0,0,,2,,,62,127
52803,note_off,0,0,0,,8,,,56,127
52805,note_on,2,0,0,,10,,,57,127
52805,note_on,0,0,0,,5,,,65,127
52805,note_on,0,0,0,,2,,,62,127
52805,note_on,0,0,0,,2,,,74,127
52880,note_off,75,0,0,,2,,,74,127
52882,note_on,2,0,0,,0,,,72,127
52957,note_off,75,0,0,,0,,,72,127
52959,note_on,2,0,0,,2,,,74,127
53034,note_off,75,0,0,,2,,,74,127
53036,note_on,2,0,0,,0,,,72,127
53111,note_off,75,0,0,,0,,,72,127
53113,note_on,2,0,0,,2,,,74,127
53188,note_off,75,0,0,,2,,,74,127
53190,note_on,2,0,0,,0,,,72,127
53265,note_off,75,0,0,,0,,,72,127
53265,note_off,0,0,0,,2,,,62,127
53265,note_off,0,0,0,,5,,,65,127
53265,note_off,0,0,0,,10,,,57,127
53267,note_on,2,0,0,,10,,,57,127
53267,note_on,0,0,0,,2,,,62,127
53267,note_on,0,0,0,,5,,,65,127
53267,note_on,0,0,0,,2,,,74,127
53342,note_off,75,0,0,,2,,,74,127
53344,note_on,2,0,0,,0,,,72,127
53419,note_off,75,0,0,,0,,,72,127
53421,note_on,2,0,0,,2,,,74,127
53496,note_off,75,0,0,,2,,,74,127
53498,note_on,2,0,0,,0,,,72,127
53573,note_off,75,0,0,,0,,,72,127
53575,note_on,2,0,0,,2,,,74,127
53650,note_off,75,0,0,,2,,,74,127
53652,note_on,2,0,0,,0,,,72,127
53727,note_off,75,0,0,,0,,,72,127
53727,note_off,0,0,0,,5,,,65,127
53727,note_off,0,0,0,,2,,,62,127
53727,note_off,0,0,0,,10,,,57,127
53745,note_on,18,0,0,,1,,,61,127
53745,note_on,0,0,0,,7,,,55,127
53745,note_on,0,0,0,,4,,,64,127
53899,note_on,154,0,0,,7,,,79,127
54051,note_off,152,0,0,,7,,,79,127
54053,note_on,2,0,0,,4,,,76,127
54205,note_off,152,0,0,,4,,,76,127
54205,note_off,0,0,0,,4,,,64,127
54205,note_off,0,0,0,,7,,,55,127
54205,note_off,0,0,0,,1,,,61,127
54207,note_on,2,0,0,,7,,,55,127
54207,note_on,0,0,0,,1,,,61,127
54207,note_on,0,0,0,,4,,,64,127
54207,note_on,0,0,0,,2,,,74,127
54359,note_off,152,0,0,,2,,,74,127
54361,note_on,2,0,0,,4,,,76,127
54513,note_off,152,0,0,,4,,,76,127
54515,note_on,2,0,0,,1,,,73,127
54667,note_off,152,0,0,,1,,,73,127
54667,note_off,0,0,0,,4,,,64,127
54667,note_off,0,0,0,,1,,,61,127
54667,note_off,0,0,0,,7,,,55,127
54669,note_on,2,0,0,,6,,,54,127
54669,note_on,0,0,0,,10,,,57,127
54669,note_on,0,0,0,,2,,,62,127
54669,note_on,0,0,0,,4,,,76,127
54744,note_off,75,0,0,,4,,,76,127
54746,note_on,2,0,0,,2,,,74,127
54821,note_off,75,0,0,,2,,,74,127
54823,note_on,2,0,0,,1,,,73,127
54975,note_off,152,0,0,,1,,,73,127
54977,note_on,2,0,0,,2,,,74,127
55129,note_off,152,0,0,,2,,,74,127
55129,note_off,0,0,0,,2,,,62,127
55129,note_off,0,0,0,,10,,,57,127
55129,note_off,0,0,0,,6,,,54,127
55131,note_on,2,0,0,,6,,,54,127
55131,note_on,0,0,0,,2,,,62,127
55131,note_on,0,0,0,,10,,,57,127
55131,note_on,0,0,0,,4,,,76,127
55206,note_off,75,0,0,,4,,,76,127
55208,note_on,2,0,0,,2,,,74,127
55283,note_off,75,0,0,,2,,,74,127
55285,note_on,2,0,0,,1,,,73,127
55437,note_off,152,0,0,,1,,,73,127
55439,note_on,2,0,0,,2,,,74,127
55591,note_off,152,0,0,,10,,,57,127
55591,note_off,0,0,0,,2,,,62,127
55591,note_off,0,0,0,,6,,,54,127
55593,note_on,2,0,0,,7,,,55,127
55593,note_on,0,0,0,,1,,,61,127
55593,note_on,0,0,0,,4,,,64,127
55745,note_off,152,0,0,,2,,,74,127
55747,note_on,2,0,0,,7,,,79,127
55899,note_off,152,0,0,,7,,,79,127
55901,note_on,2,0,0,,4,,,76,127
56053,note_off,152,0,0,,4,,,76,127
56053,note_off,0,0,0,,4,,,64,127
56053,note_off,0,0,0,,1,,,61,127
56053,note_off,0,0,0,,7,,,55,127
56055,note_on,2,0,0,,1,,,61,127
56055,note_on,0,0,0,,7,,,55,127
56055,note_on,0,0,0,,4,,,64,127
56055,note_on,0,0,0,,2,,,74,127
56207,note_off,152,0,0,,2,,,74,127
56209,note_on,2,0,0,,4,,,76,127
56361,note_off,152,0,0,,4,,,76,127
56363,note_on,2,0,0,,1,,,73,127
56515,note_off,152,0,0,,1,,,73,127
56515,note_off,0,0,0,,4,,,64,127
56515,note_off,0,0,0,,7,,,55,127
56515,note_off,0,0,0,,1,,,61,127
56517,note_on,2,0,0,,2,,,62,127
56517,note_on,0,0,0,,10,,,57,127
56517,note_on,0,0,0,,6,,,54,127
56517,note_on,0,0,0,,4,,,76,127
56592,note_off,75,0,0,,4,,,76,127
56594,note_on,2,0,0,,2,,,74,127
56669,note_off,75,0,0,,2,,,74,127
56671,note_on,2,0,0,,1,,,73,127
56823,note_off,152,0,0,,1,,,73,127
56825,note_on,2,0,0,,2,,,74,127
56977,note_off,152,0,0,,2,,,74,127
56977,note_off,0,0,0,,6,,,54,127
56977,note_off,0,0,0,,10,,,57,127
56977,note_off,0,0,0,,2,,,62,127
56979,note_on,2,0,0,,6,,,54,127
56979,note_on,0,0,0,,2,,,62,127
56979,note_on,0,0,0,,10,,,57,127
56979,note_on,0,0,0,,4,,,76,127
57054,note_off,75,0,0,,4,,,76,127
57056,note_on,2,0,0,,2,,,74,127
57131,note_off,75,0,0,,2,,,74,127
57133,note_on,2,0,0,,1,,,73,127
57285,note_off,152,0,0,,1,,,73,127
57287,note_on,2,0,0,,2,,,74,127
57439,note_off,152,0,0,,2,,,74,127
57439,note_off,0,0,0,,10,,,57,127
57439,note_off,0,0,0,,2,,,62,127
57439,note_off,0,0,0,,6,,,54,127
57441,note_on,2,0,0,,10,,,57,127
57441,note_on,0,0,0,,3,,,63,127
57441,note_on,0,0,0,,6,,,66,127
57595,note_on,154,0,0,,10,,,81,127
57747,note_off,152,0,0,,10,,,81,127
57749,note_on,2,0,0,,6,,,78,127
57901,note_off,152,0,0,,6,,,78,127
57901,note_off,0,0,0,,6,,,66,127
57901,note_off,0,0,0,,3,,,63,127
57901,note_off,0,0,0,,10,,,57,127
57903,note_on,2,0,0,,10,,,57,127
57903,note_on,0,0,0,,6,,,66,127
57903,note_on,0,0,0,,3,,,63,127
57903,note_on,0,0,0,,4,,,76,127
58055,note_off,152,0,0,,4,,,76,127
58057,note_on,2,0,0,,6,,,78,127
58209,note_off,152,0,0,,6,,,78,127
58211,note_on,2,0,0,,3,,,75,127
58363,note_off,152,0,0,,3,,,75,127
58363,note_off,0,0,0,,3,,,63,127
58363,note_off,0,0,0,,6,,,66,127
58363,note_off,0,0,0,,10,,,57,127
58365,note_on,2,0,0,,8,,,56,127
58365,note_on,0,0,0,,4,,,64,127
58365,note_on,0,0,0,,12,,,59,127
58365,note_on,0,0,0,,6,,,78,127
58440,note_off,75,0,0,,6,,,78,127
58442,note_on,2,0,0,,4,,,76,127
58517,note_off,75,0,0,,4,,,76,127
58519,note_on,2,0,0,,3,,,75,127
58671,note_off,152,0,0,,3,,,75,127
58673,note_on,2,0,0,,4,,,76,127
58825,note_off,152,0,0,,4,,,76,127
58825,note_off,0,0,0,,12,,,59,127
58825,note_off,0,0,0,,4,,,64,127
58825,note_off,0,0,0,,8,,,56,127
58827,note_on,2,0,0,,8,,,56,127
58827,note_on,0,0,0,,4,,,64,127
58827,note_on,0,0,0,,12,,,59,127
58827,note_on,0,0,0,,6,,,78,127
58902,note_off,75,0,0,,6,,,78,127
58904,note_on,2,0,0,,4,,,76,127
58979,note_off,75,0,0,,4,,,76,127
58981,note_on,2,0,0,,3,,,75,127
59133,note_off,152,0,0,,3,,,75,127
59135,note_on,2,0,0,,4,,,76,127
59287,note_off,152,0,0,,12,,,59,127
59287,note_off,0,0,0,,4,,,64,127
59287,note_off,0,0,0,,8,,,56,127
59289,note_on,2,0,0,,10,,,57,127
59289,note_on,0,0,0,,3,,,63,127
59289,note_on,0,0,0,,6,,,66,127
59441,note_off,152,0,0,,4,,,76,127
59443,note_on,2,0,0,,10,,,81,127
59595,note_off,152,0,0,,10,,,81,127
59597,note_on,2,0,0,,6,,,78,127
59749,note_off,152,0,0,,6,,,78,127
59749,note_off,0,0,0,,6,,,66,127
59749,note_off,0,0,0,,3,,,63,127
59749,note_off,0,0,0,,10,,,57,127
59751,note_on,2,0,0,,3,,,63,127
59751,note_on,0,0,0,,10,,,57,127
59751,note_on,0,0,0,,6,,,66,127
59751,note_on,0,0,0,,4,,,76,127
59903,note_off,152,0,0,,4,,,76,127
59905,note_on,2,0,0,,6,,,78,127
60057,note_off,152,0,0,,6,,,78,127
60059,note_on,2,0,0,,3,,,75,127
60211,note_off,152,0,0,,3,,,75,127
60211,note_off,0,0,0,,6,,,66,127
60211,note_off,0,0,0,,10,,,57,127
60211,note_off,0,0,0,,3,,,63,127
60213,note_on,2,0,0,,8,,,56,127
60213,note_on,0,0,0,,12,,,59,127
60213,note_on,0,0,0,,4,,,64,127
60213,note_on,0,0,0,,6,,,78,127
60288,note_off,75,0,0,,6,,,78,127
60290,note_on,2,0,0,,4,,,76,127
60365,note_off,75,0,0,,4,,,76,127
60367,note_on,2,0,0,,3,,,75,127
60519,note_off,152,0,0,,3,,,75,127
60521,note_on,2,0,0,,4,,,76,127
60673,note_off,152,0,0,,4,,,76,127
60673,note_off,0,0,0,,4,,,64,127
60673,note_off,0,0,0,,12,,,59,127
60673,note_off,0,0,0,,8,,,56,127
60675,note_on,2,0,0,,8,,,56,127
60675,note_on,0,0,0,,12,,,59,127
60675,note_on,0,0,0,,4,,,64,127
60675,note_on,0,0,0,,6,,,78,127
60750,note_off,75,0,0,,6,,,78,127
60752,note_on,2,0,0,,4,,,76,127
60827,note_off,75,0,0,,4,,,76,127
60829,note_on,2,0,0,,3,,,75,127
60981,note_off,152,0,0,,3,,,75,127
60983,note_on,2,0,0,,4,,,76,127
61135,note_off,152,0,0,,4,,,76,127
61135,note_off,0,0,0,,4,,,64,127
61135,note_off,0,0,0,,12,,,59,127
61135,note_off,0,0,0,,8,,,56,127
61137,note_on,2,0,0,,12,,,59,127
61137,note_on,0,0,0,,8,,,68,127
61137,note_on,0,0,0,,5,,,65,127
61291,note_on,154,0,0,,12,,,83,127
61443,note_off,152,0,0,,12,,,83,127
61445,note_on,2,0,0,,8,,,80,127
61597,note_off,152,0,0,,8,,,80,127
61597,note_off,0,0,0,,5,,,65,127
61597,note_off,0,0,0,,8,,,68,127
61597,note_off,0,0,0,,12,,,59,127
61599,note_on,2,0,0,,12,,,59,127
61599,note_on,0,0,0,,5,,,65,127
61599,note_on,0,0,0,,8,,,68,127
61599,note_on,0,0,0,,6,,,78,127
61751,note_off,152,0,0,,6,,,78,127
61753,note_on,2,0,0,,8,,,80,127
61905,note_off,152,0,0,,8,,,80,127
61907,note_on,2,0,0,,5,,,77,127
62059,note_off,152,0,0,,5,,,77,127
62059,note_off,0,0,0,,8,,,68,127
62059,note_off,0,0,0,,5,,,65,127
62059,note_off,0,0,0,,12,,,59,127
62061,note_on,2,0,0,,10,,,57,127
62061,note_on,0,0,0,,6,,,66,127
62061,note_on,0,0,0,,1,,,61,127
62061,note_on,0,0,0,,8,,,80,127
62136,note_off,75,0,0,,8,,,80,127
62138,note_on,2,0,0,,6,,,78,127
62213,note_off,75,0,0,,6,,,78,127
62215,note_on,2,0,0,,5,,,77,127
62367,note_off,152,0,0,,5,,,77,127
62369,note_on,2,0,0,,6,,,78,127
62521,note_off,152,0,0,,6,,,78,127
62521,note_off,0,0,0,,1,,,61,127
62521,note_off,0,0,0,,6,,,66,127
62521,note_off,0,0,0,,10,,,57,127
62523,note_on,2,0,0,,10,,,57,127
62523,note_on,0,0,0,,6,,,66,127
62523,note_on,0,0,0,,1,,,61,127
62523,note_on,0,0,0,,8,,,80,127
62598,note_off,75,0,0,,8,,,80,127
62600,note_on,2,0,0,,6,,,78,127
62675,note_off,75,0,0,,6,,,78,127
62677,note_on,2,0,0,,5,,,77,127
62829,note_off,152,0,0,,5,,,77,127
62831,note_on,2,0,0,,6,,,78,127
62983,note_off,152,0,0,,1,,,61,127
62983,note_off,0,0,0,,6,,,66,127
62983,note_off,0,0,0,,10,,,57,127
62985,note_on,2,0,0,,12,,,59,127
62985,note_on,0,0,0,,5,,,65,127
62985,note_on,0,0,0,,8,,,68,127
63137,note_off,152,0,0,,6,,,78,127
63139,note_on,2,0,0,,12,,,83,127
63291,note_off,152,0,0,,12,,,83,127
63293,note_on,2,0,0,,8,,,80,127
63445,note_off,152,0,0,,8,,,80,127
63445,note_off,0,0,0,,8,,,68,127
63445,note_off,0,0,0,,5,,,65,127
63445,note_off,0,0,0,,12,,,59,127
63447,note_on,2,0,0,,12,,,59,127
63447,note_on,0,0,0,,5,,,65,127
63447,note_on,0,0,0,,8,,,68,127
63447,note_on,0,0,0,,6,,,78,127
63599,note_off,152,0,0,,6,,,78,127
63601,note_on,2,0,0,,8,,,80,127
63753,note_off,152,0,0,,8,,,80,127
63755,note_on,2,0,0,,5,,,77,127
63907,note_off,152,0,0,,5,,,77,127
63907,note_off,0,0,0,,8,,,68,127
63907,note_off,0,0,0,,5,,,65,127
63907,note_off,0,0,0,,12,,,59,127
63909,note_on,2,0,0,,4,,,64,127
63909,note_on,0,0,0,,11,,,58,127
63909,note_on,0,0,0,,6,,,66,127
63909,note_on,0,0,0,,6,,,78,127
64063,note_on,154,0,0,,1,,,85,127
64213,note_off,150,0,0,,6,,,78,127
64215,note_off,2,0,0,,1,,,85,127
64217,note_on,2,0,0,,6,,,78,127
64369,note_off,152,0,0,,6,,,78,127
64369,note_off,0,0,0,,6,,,66,127
64369,note_off,0,0,0,,11,,,58,127
64369,note_off,0,0,0,,4,,,64,127
64371,note_on,2,0,0,,11,,,58,127
64371,note_on,0,0,0,,4,,,64,127
64371,note_on,0,0,0,,6,,,66,127
64371,note_on,0,0,0,,4,,,76,127
64525,note_on,154,0,0,,1,,,85,127
64675,note_off,150,0,0,,4,,,76,127
64677,note_off,2,0,0,,1,,,85,127
64679,note_on,2,0,0,,4,,,76,127
64831,note_off,152,0,0,,4,,,76,127
64831,note_off,0,0,0,,6,,,66,127
64831,note_off,0,0,0,,4,,,64,127
64831,note_off,0,0,0,,11,,,58,127
64833,note_on,2,0,0,,12,,,59,127
64833,note_on,0,0,0,,6,,,66,127
64833,note_on,0,0,0,,4,,,76,127
64985,note_off,152,0,0,,4,,,76,127
64987,note_on,2,0,0,,3,,,75,127
65141,note_on,154,0,0,,12,,,83,127
65291,note_off,150,0,0,,3,,,75,127
65293,note_off,2,0,0,,12,,,83,127
65293,note_off,0,0,0,,6,,,66,127
65293,note_off,0,0,0,,12,,,59,127
65295,note_on,2,0,0,,6,,,54,127
65295,note_on,0,0,0,,6,,,66,127
65295,note_on,0,0,0,,3,,,75,127
65447,note_off,152,0,0,,3,,,75,127
65449,note_on,2,0,0,,1,,,73,127
65603,note_on,154,0,0,,11,,,82,127
65753,note_off,150,0,0,,1,,,73,127
65755,note_off,2,0,0,,11,,,82,127
65755,note_off,0,0,0,,6,,,66,127
65755,note_off,0,0,0,,6,,,54,127
65757,note_on,2,0,0,,3,,,63,127
65757,note_on,0,0,0,,8,,,56,127
65757,note_on,0,0,0,,1,,,73,127
65909,note_off,152,0,0,,1,,,73,127
65911,note_on,2,0,0,,12,,,71,127
66065,note_on,154,0,0,,8,,,80,127
66215,note_off,150,0,0,,12,,,71,127
66217,note_off,2,0,0,,8,,,80,127
66217,note_off,0,0,0,,8,,,56,127
66217,note_off,0,0,0,,3,,,63,127
66219,note_on,2,0,0,,3,,,51,127
66219,note_on,0,0,0,,3,,,63,127
66219,note_on,0,0,0,,12,,,71,127
66371,note_off,152,0,0,,12,,,71,127
66373,note_on,2,0,0,,11,,,70,127
66527,note_on,154,0,0,,6,,,78,127
66677,note_off,150,0,0,,11,,,70,127
66679,note_off,2,0,0,,6,,,78,127
66679,note_off,0,0,0,,3,,,63,127
66679,note_off,0,0,0,,3,,,51,127
66681,note_on,2,0,0,,12,,,59,127
66681,note_on,0,0,0,,4,,,52,127
66681,note_on,0,0,0,,11,,,70,127
66833,note_off,152,0,0,,11,,,70,127
66835,note_on,2,0,0,,8,,,68,127
66989,note_on,154,0,0,,4,,,76,127
67139,note_off,150,0,0,,8,,,68,127
67141,note_off,2,0,0,,4,,,76,127
67141,note_off,0,0,0,,4,,,52,127
67141,note_off,0,0,0,,12,,,59,127
67143,note_on,2,0,0,,12,,,59,127
67143,note_on,0,0,0,,12,,,47,127
67143,note_on,0,0,0,,8,,,68,127
67295,note_off,152,0,0,,8,,,68,127
67297,note_on,2,0,0,,6,,,66,127
67449,note_off,152,0,0,,6,,,66,127
67451,note_on,2,0,0,,3,,,75,127
67603,note_off,152,0,0,,3,,,75,127
67603,note_off,0,0,0,,12,,,47,127
67603,note_off,0,0,0,,12,,,59,127
67605,note_on,2,0,0,,1,,,61,127
67605,note_on,0,0,0,,6,,,54,127
67605,note_on,0,0,0,,1,,,73,127
67757,note_off,152,0,0,,1,,,73,127
67759,note_on,2,0,0,,12,,,71,127
67911,note_off,152,0,0,,12,,,71,127
67913,note_on,2,0,0,,11,,,70,127
68065,note_off,152,0,0,,11,,,70,127
68065,note_off,0,0,0,,6,,,54,127
68065,note_off,0,0,0,,1,,,61,127
68067,note_on,2,0,0,,8,,,56,127
68067,note_on,0,0,0,,12,,,59,127
68067,note_on,0,0,0,,6,,,54,127
68067,note_on,0,0,0,,1,,,73,127
68142,note_off,75,0,0,,1,,,73,127
68144,note_on,2,0,0,,12,,,71,127
68219,note_off,75,0,0,,12,,,71,127
68221,note_on,2,0,0,,11,,,70,127
68373,note_off,152,0,0,,11,,,70,127
68375,note_on,2,0,0,,12,,,71,127
68527,note_off,152,0,0,,12,,,71,127
68527,note_off,0,0,0,,6,,,54,127
68527,note_off,0,0,0,,12,,,59,127
68527,note_off,0,0,0,,8,,,56,127
68529,note_on,2,0,0,,11,,,58,127
68529,note_on,0,0,0,,6,,,54,127
68529,note_on,0,0,0,,1,,,73,127
68681,note_off,152,0,0,,1,,,73,127
68683,note_on,2,0,0,,12,,,71,127
68835,note_off,152,0,0,,12,,,71,127
68837,note_on,2,0,0,,11,,,70,127
68989,note_off,152,0,0,,11,,,70,127
68989,note_off,0,0,0,,6,,,54,127
68989,note_off,0,0,0,,11,,,58,127
68991,note_on,2,0,0,,8,,,56,127
68991,note_on,0,0,0,,6,,,54,127
68991,note_on,0,0,0,,12,,,59,127
68991,note_on,0,0,0,,1,,,73,127
69066,note_off,75,0,0,,1,,,73,127
69068,note_on,2,0,0,,12,,,71,127
69143,note_off,75,0,0,,12,,,71,127
69145,note_on,2,0,0,,11,,,70,127
69297,note_off,152,0,0,,11,,,70,127
69299,note_on,2,0,0,,12,,,71,127
69451,note_off,152,0,0,,12,,,71,127
69451,note_off,0,0,0,,12,,,59,127
69451,note_off,0,0,0,,6,,,54,127
69451,note_off,0,0,0,,8,,,56,127
69453,note_on,2,0,0,,11,,,58,127
69453,note_on,0,0,0,,6,,,54,127
69453,note_on,0,0,0,,1,,,73,127
69605,note_off,152,0,0,,1,,,73,127
69607,note_on,2,0,0,,12,,,71,127
69759,note_off,152,0,0,,12,,,71,127
69761,note_on,2,0,0,,11,,,70,127
69913,note_off,152,0,0,,11,,,70,127
69913,note_off,0,0,0,,6,,,54,127
69913,note_off,0,0,0,,11,,,58,127
69915,note_on,2,0,0,,12,,,59,127
69915,note_on,0,0,0,,6,,,54,127
69915,note_on,0,0,0,,8,,,56,127
69915,note_on,0,0,0,,1,,,73,127
69990,note_off,75,0,0,,1,,,73,127
69992,note_on,2,0,0,,12,,,71,127
70067,note_off,75,0,0,,12,,,71,127
70069,note_on,2,0,0,,11,,,70,127
70221,note_off,152,0,0,,11,,,70,127
70223,note_on,2,0,0,,12,,,71,127
70375,note_off,152,0,0,,12,,,71,127
70375,note_off,0,0,0,,8,,,56,127
70375,note_off,0,0,0,,6,,,54,127
70375,note_off,0,0,0,,12,,,59,127
70377,note_on,2,0,0,,6,,,54,127
70377,note_on,0,0,0,,12,,,71,127
70529,note_off,152,0,0,,12,,,71,127
70531,note_on,2,0,0,,1,,,73,127
70685,note_on,154,0,0,,6,,,66,127
70851,note_off,166,0,0,,1,,,73,127
70905,note_off,54,0,0,,6,,,54,127
71001,note_on,96,0,0,,4,,,76,127
71143,note_off,142,0,0,,6,,,66,127
71153,note_off,10,0,0,,4,,,76,127
71155,note_on,2,0,0,,11,,,70,127
71307,note_off,152,0,0,,11,,,70,127
71309,note_on,2,0,0,,7,,,67,127
71309,note_on,0,0,0,,11,,,70,127
71615,note_off,306,0,0,,11,,,70,127
71617,note_on,2,0,0,,12,,,71,127
71769,note_off,152,0,0,,7,,,67,127
71771,note_on,2,0,0,,6,,,66,127
71813,note_off,42,0,0,,12,,,71,127
71925,note_on,112,0,0,,4,,,76,127
72077,note_off,152,0,0,,4,,,76,127
72079,note_on,2,0,0,,11,,,70,127
72231,note_off,152,0,0,,11,,,70,127
72231,note_off,0,0,0,,6,,,66,127
72233,note_on,2,0,0,,7,,,67,127
72233,note_on,0,0,0,,11,,,70,127
72539,note_off,306,0,0,,11,,,70,127
72541,note_on,2,0,0,,12,,,71,127
72693,note_off,152,0,0,,7,,,67,127
72695,note_on,2,0,0,,7,,,67,127
72737,note_off,42,0,0,,12,,,71,127
72849,note_on,112,0,0,,4,,,76,127
73001,note_off,152,0,0,,4,,,76,127
73003,note_on,2,0,0,,12,,,71,127
73155,note_off,152,0,0,,12,,,71,127
73155,note_off,0,0,0,,7,,,67,127
73157,note_on,2,0,0,,6,,,66,127
73157,note_on,0,0,0,,12,,,71,127
73309,note_off,152,0,0,,12,,,71,127
73311,note_on,2,0,0,,0,,,72,127
73463,note_off,152,0,0,,0,,,72,127
73465,note_on,2,0,0,,3,,,75,127
73465,note_on,0,0,0,,10,,,69,127
73617,note_off,152,0,0,,6,,,66,127
73619,note_on,2,0,0,,7,,,67,127
73661,note_off,42,0,0,,10,,,69,127
73661,note_off,0,0,0,,3,,,75,127
73773,note_on,112,0,0,,4,,,76,127
73925,note_off,152,0,0,,4,,,76,127
73927,note_on,2,0,0,,12,,,71,127
74079,note_off,152,0,0,,12,,,71,127
74079,note_off,0,0,0,,7,,,67,127
74081,note_on,2,0,0,,6,,,66,127
74081,note_on,0,0,0,,12,,,71,127
74233,note_off,152,0,0,,12,,,71,127
74235,note_on,2,0,0,,0,,,72,127
74387,note_off,152,0,0,,0,,,72,127
74389,note_on,2,0,0,,3,,,75,127
74541,note_off,152,0,0,,6,,,66,127
74543,note_on,2,0,0,,4,,,64,127
74543,note_on,0,0,0,,10,,,69,127
74585,note_off,42,0,0,,3,,,75,127
74697,note_on,112,0,0,,3,,,75,127
74697,note_on,0,0,0,,0,,,72,127
74849,note_off,152,0,0,,3,,,75,127
74851,note_on,2,0,0,,4,,,76,127
75001,note_off,150,0,0,,0,,,72,127
75003,note_off,2,0,0,,4,,,76,127
75003,note_off,0,0,0,,10,,,69,127
75003,note_off,0,0,0,,4,,,64,127
75005,note_on,2,0,0,,3,,,63,127
75005,note_on,0,0,0,,10,,,69,127
75005,note_on,0,0,0,,7,,,79,127
75005,note_on,0,0,0,,12,,,71,127
75311,note_off,306,0,0,,7,,,79,127
75313,note_on,2,0,0,,6,,,78,127
75465,note_off,152,0,0,,6,,,78,127
75465,note_off,0,0,0,,10,,,69,127
75465,note_off,0,0,0,,3,,,63,127
75466,note_off,1,0,0,,12,,,71,127
75467,note_on,1,0,0,,4,,,64,127
75467,note_on,0,0,0,,10,,,69,127
75621,note_on,154,0,0,,0,,,72,127
75621,note_on,0,0,0,,3,,,75,127
75773,note_off,152,0,0,,3,,,75,127
75775,note_on,2,0,0,,4,,,76,127
75925,note_off,150,0,0,,0,,,72,127
75927,note_off,2,0,0,,4,,,76,127
75927,note_off,0,0,0,,10,,,69,127
75927,note_off,0,0,0,,4,,,64,127
75929,note_on,2,0,0,,3,,,63,127
75929,note_on,0,0,0,,10,,,69,127
75929,note_on,0,0,0,,7,,,79,127
75929,note_on,0,0,0,,12,,,71,127
76235,note_off,306,0,0,,7,,,79,127
76237,note_on,2,0,0,,6,,,78,127
76389,note_off,152,0,0,,6,,,78,127
76389,note_off,0,0,0,,10,,,69,127
76389,note_off,0,0,0,,3,,,63,127
76390,note_off,1,0,0,,12,,,71,127
76391,note_on,1,0,0,,2,,,62,127
76391,note_on,0,0,0,,10,,,69,127
76545,note_on,154,0,0,,10,,,81,127
76697,note_off,152,0,0,,10,,,81,127
76699,note_on,2,0,0,,8,,,80,127
76851,note_off,152,0,0,,8,,,80,127
76851,note_off,0,0,0,,10,,,69,127
76851,note_off,0,0,0,,2,,,62,127
76853,note_on,2,0,0,,0,,,60,127
76853,note_on,0,0,0,,10,,,69,127
76853,note_on,0,0,0,,8,,,80,127
77159,note_off,306,0,0,,8,,,80,127
77161,note_on,2,0,0,,10,,,81,127
77313,note_off,152,0,0,,10,,,69,127
77313,note_off,0,0,0,,0,,,60,127
77315,note_on,2,0,0,,2,,,62,127
77315,note_on,0,0,0,,10,,,69,127
77467,note_off,152,0,0,,10,,,81,127
77469,note_on,2,0,0,,10,,,81,127
77621,note_off,152,0,0,,10,,,81,127
77623,note_on,2,0,0,,8,,,80,127
77775,note_off,152,0,0,,8,,,80,127
77775,note_off,0,0,0,,10,,,69,127
77775,note_off,0,0,0,,2,,,62,127
77777,note_on,2,0,0,,0,,,60,127
77777,note_on,0,0,0,,10,,,69,127
77777,note_on,0,0,0,,8,,,80,127
78083,note_off,306,0,0,,8,,,80,127
78085,note_on,2,0,0,,10,,,81,127
78237,note_off,152,0,0,,10,,,81,127
78237,note_off,0,0,0,,10,,,69,127
78237,note_off,0,0,0,,0,,,60,127
78239,note_on,2,0,0,,7,,,67,127
78239,note_on,0,0,0,,11,,,58,127
78393,note_on,154,0,0,,7,,,79,127
78393,note_on,0,0,0,,2,,,74,127
78545,note_off,152,0,0,,7,,,79,127
78547,note_on,2,0,0,,2,,,86,127
78697,note_off,150,0,0,,2,,,74,127
78699,note_off,2,0,0,,2,,,86,127
78699,note_off,0,0,0,,11,,,58,127
78699,note_off,0,0,0,,7,,,67,127
78701,note_on,2,0,0,,10,,,57,127
78701,note_on,0,0,0,,7,,,79,127
78701,note_on,0,0,0,,4,,,76,127
78701,note_on,0,0,0,,2,,,86,127
79007,note_off,306,0,0,,2,,,86,127
79009,note_on,2,0,0,,1,,,85,127
79161,note_off,152,0,0,,1,,,85,127
79161,note_off,0,0,0,,10,,,57,127
79162,note_off,1,0,0,,4,,,76,127
79162,note_off,0,0,0,,7,,,79,127
79163,note_on,1,0,0,,11,,,58,127
79317,note_on,154,0,0,,7,,,79,127
79317,note_on,0,0,0,,2,,,74,127
79469,note_off,152,0,0,,7,,,79,127
79471,note_on,2,0,0,,2,,,86,127
79621,note_off,150,0,0,,2,,,74,127
79623,note_off,2,0,0,,2,,,86,127
79623,note_off,0,0,0,,11,,,58,127
79625,note_on,2,0,0,,10,,,57,127
79625,note_on,0,0,0,,4,,,76,127
79625,note_on,0,0,0,,2,,,86,127
79625,note_on,0,0,0,,7,,,79,127
79931,note_off,306,0,0,,2,,,86,127
79933,note_on,2,0,0,,1,,,85,127
80085,note_off,152,0,0,,1,,,85,127
80085,note_off,0,0,0,,10,,,57,127
80086,note_off,1,0,0,,7,,,79,127
80086,note_off,0,0,0,,4,,,76,127
80087,note_on,1,0,0,,11,,,58,127
80087,note_on,0,0,0,,1,,,85,127
80087,note_on,0,0,0,,7,,,79,127
80239,note_off,152,0,0,,7,,,79,127
80241,note_on,2,0,0,,6,,,78,127
80393,note_off,152,0,0,,6,,,78,127
80395,note_on,2,0,0,,4,,,76,127
80547,note_off,152,0,0,,4,,,76,127
80547,note_off,0,0,0,,11,,,58,127
80549,note_on,2,0,0,,12,,,59,127
80549,note_on,0,0,0,,2,,,74,127
80701,note_off,152,0,0,,2,,,74,127
80702,note_off,1,0,0,,1,,,85,127
80703,note_on,1,0,0,,12,,,83,127
80855,note_off,152,0,0,,12,,,83,127
80857,note_on,2,0,0,,10,,,81,127
81009,note_off,152,0,0,,10,,,81,127
81009,note_off,0,0,0,,12,,,59,127
81011,note_on,2,0,0,,2,,,50,127
81011,note_on,0,0,0,,12,,,59,127
81011,note_on,0,0,0,,12,,,83,127
81165,note_on,154,0,0,,6,,,78,127
81315,note_off,150,0,0,,12,,,83,127
81317,note_off,2,0,0,,6,,,78,127
81319,note_on,2,0,0,,10,,,81,127
81471,note_off,152,0,0,,10,,,81,127
81471,note_off,0,0,0,,12,,,59,127
81471,note_off,0,0,0,,2,,,50,127
81473,note_on,2,0,0,,4,,,52,127
81473,note_on,0,0,0,,12,,,59,127
81473,note_on,0,0,0,,7,,,79,127
81625,note_off,152,0,0,,7,,,79,127
81627,note_on,2,0,0,,6,,,78,127
81779,note_off,152,0,0,,6,,,78,127
81781,note_on,2,0,0,,4,,,76,127
81933,note_off,152,0,0,,4,,,76,127
81933,note_off,0,0,0,,12,,,59,127
81933,note_off,0,0,0,,4,,,52,127
81935,note_on,2,0,0,,7,,,55,127
81935,note_on,0,0,0,,4,,,76,127
82010,note_off,75,0,0,,4,,,76,127
82012,note_on,2,0,0,,2,,,74,127
82087,note_off,75,0,0,,2,,,74,127
82089,note_on,2,0,0,,1,,,73,127
82241,note_off,152,0,0,,1,,,73,127
82243,note_on,2,0,0,,12,,,71,127
82395,note_off,152,0,0,,12,,,71,127
82395,note_off,0,0,0,,7,,,55,127
82397,note_on,2,0,0,,6,,,54,127
82397,note_on,0,0,0,,1,,,73,127
82397,note_on,0,0,0,,11,,,70,127
82549,note_off,152,0,0,,11,,,70,127
82549,note_off,0,0,0,,1,,,73,127
82551,note_on,2,0,0,,12,,,71,127
82551,note_on,0,0,0,,2,,,74,127
82703,note_off,152,0,0,,2,,,74,127
82703,note_off,0,0,0,,12,,,71,127
82705,note_on,2,0,0,,4,,,76,127
82705,note_on,0,0,0,,1,,,73,127
82857,note_off,152,0,0,,1,,,73,127
82857,note_off,0,0,0,,4,,,76,127
82857,note_off,0,0,0,,6,,,54,127
82859,note_on,2,0,0,,2,,,50,127
82859,note_on,0,0,0,,12,,,59,127
82859,note_on,0,0,0,,2,,,74,127
82859,note_on,0,0,0,,6,,,78,127
83011,note_off,152,0,0,,6,,,78,127
83011,note_off,0,0,0,,2,,,74,127
83013,note_on,2,0,0,,4,,,76,127
83013,note_on,0,0,0,,7,,,79,127
83165,note_off,152,0,0,,7,,,79,127
83165,note_off,0,0,0,,4,,,76,127
83167,note_on,2,0,0,,6,,,78,127
83167,note_on,0,0,0,,10,,,81,127
83319,note_off,152,0,0,,10,,,81,127
83319,note_off,0,0,0,,6,,,78,127
83319,note_off,0,0,0,,12,,,59,127
83319,note_off,0,0,0,,2,,,50,127
83321,note_on,2,0,0,,4,,,52,127
83321,note_on,0,0,0,,12,,,59,127
83321,note_on,0,0,0,,4,,,76,127
83321,note_on,0,0,0,,7,,,79,127
83473,note_off,152,0,0,,7,,,79,127
83473,note_off,0,0,0,,4,,,76,127
83475,note_on,2,0,0,,2,,,74,127
83475,note_on,0,0,0,,6,,,78,127
83627,note_off,152,0,0,,6,,,78,127
83627,note_off,0,0,0,,2,,,74,127
83629,note_on,2,0,0,,1,,,73,127
83629,note_on,0,0,0,,4,,,76,127
83781,note_off,152,0,0,,4,,,76,127
83781,note_off,0,0,0,,1,,,73,127
83781,note_off,0,0,0,,12,,,59,127
83781,note_off,0,0,0,,4,,,52,127
83783,note_on,2,0,0,,7,,,55,127
83783,note_on,0,0,0,,12,,,71,127
83783,note_on,0,0,0,,2,,,74,127
83935,note_off,152,0,0,,2,,,74,127
83935,note_off,0,0,0,,12,,,71,127
83937,note_on,2,0,0,,1,,,73,127
83937,note_on,0,0,0,,11,,,70,127
84089,note_off,152,0,0,,11,,,70,127
84089,note_off,0,0,0,,1,,,73,127
84091,note_on,2,0,0,,12,,,71,127
84091,note_on,0,0,0,,2,,,74,127
84243,note_off,152,0,0,,2,,,74,127
84243,note_off,0,0,0,,12,,,71,127
84243,note_off,0,0,0,,7,,,55,127
84245,note_on,2,0,0,,6,,,54,127
84245,note_on,0,0,0,,1,,,73,127
84245,note_on,0,0,0,,11,,,70,127
84397,note_off,152,0,0,,11,,,70,127
84397,note_off,0,0,0,,1,,,73,127
84399,note_on,2,0,0,,2,,,74,127
84399,note_on,0,0,0,,12,,,71,127
84551,note_off,152,0,0,,12,,,71,127
84551,note_off,0,0,0,,2,,,74,127
84553,note_on,2,0,0,,1,,,73,127
84553,note_on,0,0,0,,4,,,76,127
84705,note_off,152,0,0,,4,,,76,127
84705,note_off,0,0,0,,1,,,73,127
84705,note_off,0,0,0,,6,,,54,127
84707,note_on,2,0,0,,2,,,50,127
84707,note_on,0,0,0,,12,,,59,127
84707,note_on,0,0,0,,2,,,74,127
84707,note_on,0,0,0,,6,,,78,127
84859,note_off,152,0,0,,6,,,78,127
84859,note_off,0,0,0,,2,,,74,127
84861,note_on,2,0,0,,7,,,79,127
84861,note_on,0,0,0,,4,,,76,127
85013,note_off,152,0,0,,4,,,76,127
85013,note_off,0,0,0,,7,,,79,127
85015,note_on,2,0,0,,10,,,81,127
85015,note_on,0,0,0,,6,,,78,127
85167,note_off,152,0,0,,6,,,78,127
85167,note_off,0,0,0,,10,,,81,127
85167,note_off,0,0,0,,12,,,59,127
85167,note_off,0,0,0,,2,,,50,127
85169,note_on,2,0,0,,4,,,52,127
85169,note_on,0,0,0,,12,,,59,127
85169,note_on,0,0,0,,4,,,76,127
85169,note_on,0,0,0,,7,,,79,127
85321,note_off,152,0,0,,7,,,79,127
85321,note_off,0,0,0,,4,,,76,127
85323,note_on,2,0,0,,2,,,74,127
85323,note_on,0,0,0,,6,,,78,127
85475,note_off,152,0,0,,6,,,78,127
85475,note_off,0,0,0,,2,,,74,127
85477,note_on,2,0,0,,1,,,73,127
85477,note_on,0,0,0,,4,,,76,127
85629,note_off,152,0,0,,4,,,76,127
85629,note_off,0,0,0,,1,,,73,127
85629,note_off,0,0,0,,12,,,59,127
85629,note_off,0,0,0,,4,,,52,127
85631,note_on,2,0,0,,7,,,55,127
85631,note_on,0,0,0,,12,,,71,127
85631,note_on,0,0,0,,2,,,74,127
85783,note_off,152,0,0,,2,,,74,127
85783,note_off,0,0,0,,12,,,71,127
85785,note_on,2,0,0,,11,,,70,127
85785,note_on,0,0,0,,1,,,73,127
85937,note_off,152,0,0,,1,,,73,127
85937,note_off,0,0,0,,11,,,70,127
85939,note_on,2,0,0,,12,,,71,127
85939,note_on,0,0,0,,2,,,74,127
86091,note_off,152,0,0,,2,,,74,127
86091,note_off,0,0,0,,12,,,71,127
86091,note_off,0,0,0,,7,,,55,127
86093,note_on,2,0,0,,6,,,54,127
86093,note_on,0,0,0,,11,,,70,127
86093,note_on,0,0,0,,2,,,74,127
86399,note_off,306,0,0,,2,,,74,127
86401,note_on,2,0,0,,1,,,73,127
86529,note_off,128,0,0,,1,,,73,127
86553,note_off,24,0,0,,6,,,54,127
86554,note_off,1,0,0,,11,,,70,127
86555,note_on,1,0,0,,6,,,66,127
86555,note_on,0,0,0,,6,,,78,127
86630,note_off,75,0,0,,6,,,66,127
86632,note_on,2,0,0,,4,,,64,127
86707,note_off,75,0,0,,4,,,64,127
86709,note_on,2,0,0,,2,,,62,127
86784,note_off,75,0,0,,2,,,62,127
86786,note_on,2,0,0,,1,,,61,127
86861,note_off,75,0,0,,1,,,61,127
86863,note_on,2,0,0,,12,,,59,127
86938,note_off,75,0,0,,12,,,59,127
86940,note_on,2,0,0,,10,,,57,127
87015,note_off,75,0,0,,10,,,57,127
87017,note_on,2,0,0,,7,,,55,127
87092,note_off,75,0,0,,7,,,55,127
87094,note_on,2,0,0,,6,,,54,127
87169,note_off,75,0,0,,6,,,54,127
87171,note_on,2,0,0,,4,,,52,127
87246,note_off,75,0,0,,4,,,52,127
87248,note_on,2,0,0,,2,,,50,127
87323,note_off,75,0,0,,2,,,50,127
87325,note_on,2,0,0,,1,,,49,127
87477,note_off,152,0,0,,1,,,49,127
87477,note_off,0,0,0,,6,,,78,127
87479,note_on,2,0,0,,12,,,47,127
87479,note_on,0,0,0,,4,,,76,127
87479,note_on,0,0,0,,12,,,71,127
87554,note_off,75,0,0,,4,,,76,127
87556,note_on,2,0,0,,2,,,74,127
87631,note_off,75,0,0,,2,,,74,127
87633,note_on,2,0,0,,1,,,73,127
87785,note_off,152,0,0,,1,,,73,127
87787,note_on,2,0,0,,2,,,74,127
87939,note_off,152,0,0,,2,,,74,127
87939,note_off,0,0,0,,12,,,47,127
87940,note_off,1,0,0,,12,,,71,127
87941,note_on,1,0,0,,6,,,42,127
87941,note_on,0,0,0,,12,,,71,127
87941,note_on,0,0,0,,2,,,74,127
88247,note_off,306,0,0,,2,,,74,127
88247,note_off,0,0,0,,12,,,71,127
88249,note_on,2,0,0,,1,,,73,127
88249,note_on,0,0,0,,11,,,70,127
88401,note_off,152,0,0,,11,,,70,127
88401,note_off,0,0,0,,1,,,73,127
88401,note_off,0,0,0,,6,,,42,127
88403,note_on,2,0,0,,6,,,66,127
88403,note_on,0,0,0,,6,,,78,127
88478,note_off,75,0,0,,6,,,66,127
88480,note_on,2,0,0,,4,,,64,127
88555,note_off,75,0,0,,4,,,64,127
88557,note_on,2,0,0,,2,,,62,127
88632,note_off,75,0,0,,2,,,62,127
88634,note_on,2,0,0,,1,,,61,127
88709,note_off,75,0,0,,1,,,61,127
88711,note_on,2,0,0,,12,,,59,127
88786,note_off,75,0,0,,12,,,59,127
88788,note_on,2,0,0,,10,,,57,127
88863,note_off,75,0,0,,10,,,57,127
88865,note_on,2,0,0,,7,,,55,127
88940,note_off,75,0,0,,7,,,55,127
88942,note_on,2,0,0,,6,,,54,127
89017,note_off,75,0,0,,6,,,54,127
89019,note_on,2,0,0,,4,,,52,127
89094,note_off,75,0,0,,4,,,52,127
89096,note_on,2,0,0,,2,,,50,127
89171,note_off,75,0,0,,2,,,50,127
89173,note_on,2,0,0,,1,,,49,127
89325,note_off,152,0,0,,1,,,49,127
89325,note_off,0,0,0,,6,,,78,127
89327,note_on,2,0,0,,12,,,47,127
89327,note_on,0,0,0,,4,,,76,127
89327,note_on,0,0,0,,12,,,71,127
89402,note_off,75,0,0,,4,,,76,127
89404,note_on,2,0,0,,2,,,74,127
89479,note_off,75,0,0,,2,,,74,127
89481,note_on,2,0,0,,1,,,73,127
89633,note_off,152,0,0,,1,,,73,127
89635,note_on,2,0,0,,2,,,74,127
89787,note_off,152,0,0,,2,,,74,127
89787,note_off,0,0,0,,12,,,47,127
89788,note_off,1,0,0,,12,,,71,127
89789,note_on,1,0,0,,6,,,42,127
89789,note_on,0,0,0,,12,,,71,127
89789,note_on,0,0,0,,2,,,74,127
90095,note_off,306,0,0,,2,,,74,127
90095,note_off,0,0,0,,12,,,71,127
90097,note_on,2,0,0,,1,,,73,127
90097,note_on,0,0,0,,11,,,70,127
90249,note_off,152,0,0,,11,,,70,127
90249,note_off,0,0,0,,1,,,73,127
90249,note_off,0,0,0,,6,,,42,127
90251,note_on,2,0,0,,2,,,50,127
90251,note_on,0,0,0,,12,,,59,127
90251,note_on,0,0,0,,6,,,78,127
90251,note_on,0,0,0,,12,,,71,127
90403,note_off,152,0,0,,6,,,78,127
90405,note_on,2,0,0,,7,,,79,127
90557,note_off,152,0,0,,7,,,79,127
90559,note_on,2,0,0,,10,,,81,127
90711,note_off,152,0,0,,10,,,81,127
90711,note_off,0,0,0,,12,,,59,127
90711,note_off,0,0,0,,2,,,50,127
90712,note_off,1,0,0,,12,,,71,127
90713,note_on,1,0,0,,4,,,52,127
90713,note_on,0,0,0,,12,,,59,127
90713,note_on,0,0,0,,1,,,61,127
90713,note_on,0,0,0,,10,,,81,127
90865,note_off,152,0,0,,10,,,81,127
90867,note_on,2,0,0,,7,,,79,127
91019,note_off,152,0,0,,7,,,79,127
91021,note_on,2,0,0,,6,,,78,127
91173,note_off,152,0,0,,6,,,78,127
91173,note_off,0,0,0,,1,,,61,127
91173,note_off,0,0,0,,12,,,59,127
91173,note_off,0,0,0,,4,,,52,127
91175,note_on,2,0,0,,6,,,54,127
91175,note_on,0,0,0,,1,,,61,127
91175,note_on,0,0,0,,6,,,78,127
91250,note_off,75,0,0,,6,,,78,127
91252,note_on,2,0,0,,4,,,76,127
91327,note_off,75,0,0,,4,,,76,127
91329,note_on,2,0,0,,2,,,74,127
91481,note_off,152,0,0,,2,,,74,127
91483,note_on,2,0,0,,1,,,73,127
91635,note_off,152,0,0,,1,,,73,127
91635,note_off,0,0,0,,1,,,61,127
91635,note_off,0,0,0,,6,,,54,127
91637,note_on,2,0,0,,12,,,59,127
91637,note_on,0,0,0,,12,,,47,127
91637,note_on,0,0,0,,12,,,71,127
92096,note_off,459,0,0,,12,,,71,127
92096,note_off,0,0,0,,12,,,47,127
92096,note_off,0,0,0,,12,,,59,127
92098,note_on,2,0,0,,6,,,66,127
92098,note_on,0,0,0,,6,,,78,127
92173,note_off,75,0,0,,6,,,66,127
92175,note_on,2,0,0,,4,,,64,127
92250,note_off,75,0,0,,4,,,64,127
92252,note_on,2,0,0,,2,,,62,127
92327,note_off,75,0,0,,2,,,62,127
92329,note_on,2,0,0,,1,,,61,127
92404,note_off,75,0,0,,1,,,61,127
92406,note_on,2,0,0,,12,,,59,127
92481,note_off,75,0,0,,12,,,59,127
92483,note_on,2,0,0,,10,,,57,127
92558,note_off,75,0,0,,10,,,57,127
92560,note_on,2,0,0,,7,,,55,127
92635,note_off,75,0,0,,7,,,55,127
92637,note_on,2,0,0,,6,,,54,127
92712,note_off,75,0,0,,6,,,54,127
92714,note_on,2,0,0,,4,,,52,127
92789,note_off,75,0,0,,4,,,52,127
92791,note_on,2,0,0,,2,,,50,127
92866,note_off,75,0,0,,2,,,50,127
92868,note_on,2,0,0,,1,,,49,127
93020,note_off,152,0,0,,1,,,49,127
93020,note_off,0,0,0,,6,,,78,127
93022,note_on,2,0,0,,12,,,47,127
93022,note_on,0,0,0,,4,,,76,127
93022,note_on,0,0,0,,12,,,71,127
93097,note_off,75,0,0,,4,,,76,127
93099,note_on,2,0,0,,2,,,74,127
93174,note_off,75,0,0,,2,,,74,127
93176,note_on,2,0,0,,1,,,73,127
93328,note_off,152,0,0,,1,,,73,127
93330,note_on,2,0,0,,2,,,74,127
93482,note_off,152,0,0,,2,,,74,127
93482,note_off,0,0,0,,12,,,47,127
93483,note_off,1,0,0,,12,,,71,127
93484,note_on,1,0,0,,6,,,42,127
93484,note_on,0,0,0,,2,,,74,127
93484,note_on,0,0,0,,12,,,71,127
93790,note_off,306,0,0,,12,,,71,127
93790,note_off,0,0,0,,2,,,74,127
93792,note_on,2,0,0,,1,,,73,127
93792,note_on,0,0,0,,11,,,70,127
93944,note_off,152,0,0,,11,,,70,127
93944,note_off,0,0,0,,1,,,73,127
93944,note_off,0,0,0,,6,,,42,127
93946,note_on,2,0,0,,6,,,66,127
93946,note_on,0,0,0,,6,,,78,127
94021,note_off,75,0,0,,6,,,66,127
94023,note_on,2,0,0,,4,,,64,127
94098,note_off,75,0,0,,4,,,64,127
94100,note_on,2,0,0,,2,,,62,127
94175,note_off,75,0,0,,2,,,62,127
94177,note_on,2,0,0,,1,,,61,127
94252,note_off,75,0,0,,1,,,61,127
94254,note_on,2,0,0,,12,,,59,127
94329,note_off,75,0,0,,12,,,59,127
94331,note_on,2,0,0,,10,,,57,127
94406,note_off,75,0,0,,10,,,57,127
94408,note_on,2,0,0,,7,,,55,127
94483,note_off,75,0,0,,7,,,55,127
94485,note_on,2,0,0,,6,,,54,127
94560,note_off,75,0,0,,6,,,54,127
94562,note_on,2,0,0,,4,,,52,127
94637,note_off,75,0,0,,4,,,52,127
94639,note_on,2,0,0,,2,,,50,127
94714,note_off,75,0,0,,2,,,50,127
94716,note_on,2,0,0,,1,,,49,127
94868,note_off,152,0,0,,1,,,49,127
94868,note_off,0,0,0,,6,,,78,127
94870,note_on,2,0,0,,12,,,47,127
94870,note_on,0,0,0,,4,,,76,127
94870,note_on,0,0,0,,12,,,71,127
94945,note_off,75,0,0,,4,,,76,127
94947,note_on,2,0,0,,2,,,74,127
95022,note_off,75,0,0,,2,,,74,127
95024,note_on,2,0,0,,1,,,73,127
95176,note_off,152,0,0,,1,,,73,127
95178,note_on,2,0,0,,2,,,74,127
95330,note_off,152,0,0,,2,,,74,127
95330,note_off,0,0,0,,12,,,47,127
95331,note_off,1,0,0,,12,,,71,127
95332,note_on,1,0,0,,6,,,42,127
95332,note_on,0,0,0,,2,,,74,127
95332,note_on,0,0,0,,12,,,71,127
95638,note_off,306,0,0,,12,,,71,127
95638,note_off,0,0,0,,2,,,74,127
95640,note_on,2,0,0,,1,,,73,127
95640,note_on,0,0,0,,11,,,70,127
95792,note_off,152,0,0,,11,,,70,127
95792,note_off,0,0,0,,1,,,73,127
95792,note_off,0,0,0,,6,,,42,127
95794,note_on,2,0,0,,2,,,50,127
95794,note_on,0,0,0,,12,,,59,127
95794,note_on,0,0,0,,6,,,78,127
95794,note_on,0,0,0,,12,,,71,127
95946,note_off,152,0,0,,6,,,78,127
95948,note_on,2,0,0,,7,,,79,127
96100,note_off,152,0,0,,7,,,79,127
96102,note_on,2,0,0,,10,,,81,127
96254,note_off,152,0,0,,10,,,81,127
96254,note_off,0,0,0,,12,,,59,127
96254,note_off,0,0,0,,2,,,50,127
96255,note_off,1,0,0,,12,,,71,127
96256,note_on,1,0,0,,4,,,52,127
96256,note_on,0,0,0,,12,,,59,127
96256,note_on,0,0,0,,1,,,61,127
96256,note_on,0,0,0,,10,,,81,127
96408,note_off,152,0,0,,10,,,81,127
96410,note_on,2,0,0,,7,,,79,127
96562,note_off,152,0,0,,7,,,79,127
96564,note_on,2,0,0,,6,,,78,127
96716,note_off,152,0,0,,6,,,78,127
96716,note_off,0,0,0,,1,,,61,127
96716,note_off,0,0,0,,12,,,59,127
96716,note_off,0,0,0,,4,,,52,127
96718,note_on,2,0,0,,6,,,54,127
96718,note_on,0,0,0,,1,,,61,127
96718,note_on,0,0,0,,6,,,78,127
96793,note_off,75,0,0,,6,,,78,127
96795,note_on,2,0,0,,4,,,76,127
96870,note_off,75,0,0,,4,,,76,127
96872,note_on,2,0,0,,2,,,74,127
97024,note_off,152,0,0,,2,,,74,127
97026,note_on,2,0,0,,1,,,73,127
97178,note_off,152,0,0,,1,,,73,127
97178,note_off,0,0,0,,1,,,61,127
97178,note_off,0,0,0,,6,,,54,127
97180,note_on,2,0,0,,12,,,47,127
97180,note_on,0,0,0,,12,,,59,127
97180,note_on,0,0,0,,12,,,71,127
97596,note_off,416,0,0,,12,,,71,127
97639,note_off,43,0,0,,12,,,59,127
97639,note_off,0,0,0,,12,,,47,127
97647,note_on,8,0,0,,0,,,72,127
97647,note_on,0,0,0,,4,,,52,127
97799,note_off,152,0,0,,0,,,72,127
97801,note_on,2,0,0,,3,,,75,127
97953,note_off,152,0,0,,3,,,75,127
97955,note_on,2,0,0,,4,,,76,127
98107,note_off,152,0,0,,4,,,76,127
98107,note_off,0,0,0,,4,,,52,127
98109,note_on,2,0,0,,4,,,76,127
98109,note_on,0,0,0,,7,,,55,127
98261,note_off,152,0,0,,4,,,76,127
98263,note_on,2,0,0,,6,,,78,127
98415,note_off,152,0,0,,6,,,78,127
98417,note_on,2,0,0,,7,,,79,127
98569,note_off,152,0,0,,7,,,79,127
98569,note_off,0,0,0,,7,,,55,127
98571,note_on,2,0,0,,7,,,79,127
98571,note_on,0,0,0,,4,,,52,127
98723,note_off,152,0,0,,7,,,79,127
98725,note_on,2,0,0,,11,,,82,127
98877,note_off,152,0,0,,11,,,82,127
98879,note_on,2,0,0,,12,,,83,127
99031,note_off,152,0,0,,12,,,83,127
99031,note_off,0,0,0,,4,,,52,127
99033,note_on,2,0,0,,12,,,83,127
99033,note_on,0,0,0,,2,,,50,127
99185,note_off,152,0,0,,12,,,83,127
99187,note_on,2,0,0,,2,,,86,127
99339,note_off,152,0,0,,2,,,86,127
99341,note_on,2,0,0,,1,,,85,127
99493,note_off,152,0,0,,1,,,85,127
99493,note_off,0,0,0,,2,,,50,127
99495,note_on,2,0,0,,1,,,85,127
99495,note_on,0,0,0,,12,,,47,127
99647,note_off,152,0,0,,1,,,85,127
99649,note_on,2,0,0,,12,,,83,127
99801,note_off,152,0,0,,12,,,83,127
99803,note_on,2,0,0,,10,,,81,127
99955,note_off,152,0,0,,10,,,81,127
99955,note_off,0,0,0,,12,,,47,127
99957,note_on,2,0,0,,10,,,81,127
99957,note_on,0,0,0,,4,,,52,127
100032,note_off,75,0,0,,10,,,81,127
100034,note_on,2,0,0,,7,,,79,127
100109,note_off,75,0,0,,7,,,79,127
100111,note_on,2,0,0,,6,,,78,127
100263,note_off,152,0,0,,6,,,78,127
100265,note_on,2,0,0,,4,,,76,127
100417,note_off,152,0,0,,4,,,76,127
100417,note_off,0,0,0,,4,,,52,127
100419,note_on,2,0,0,,6,,,78,127
100419,note_on,0,0,0,,6,,,54,127
100494,note_off,75,0,0,,6,,,78,127
100496,note_on,2,0,0,,4,,,76,127
100571,note_off,75,0,0,,4,,,76,127
100573,note_on,2,0,0,,2,,,74,127
100725,note_off,152,0,0,,2,,,74,127
100727,note_on,2,0,0,,1,,,73,127
100879,note_off,152,0,0,,1,,,73,127
100879,note_off,0,0,0,,6,,,54,127
100881,note_on,2,0,0,,12,,,71,127
100881,note_on,0,0,0,,12,,,47,127
101340,note_off,459,0,0,,12,,,47,127
101340,note_off,0,0,0,,12,,,71,127
101342,note_on,2,0,0,,0,,,72,127
101342,note_on,0,0,0,,4,,,52,127
101494,note_off,152,0,0,,0,,,72,127
101496,note_on,2,0,0,,3,,,75,127
101648,note_off,152,0,0,,3,,,75,127
101650,note_on,2,0,0,,4,,,76,127
101802,note_off,152,0,0,,4,,,76,127
101802,note_off,0,0,0,,4,,,52,127
101804,note_on,2,0,0,,4,,,76,127
101804,note_on,0,0,0,,7,,,55,127
101956,note_off,152,0,0,,4,,,76,127
101958,note_on,2,0,0,,6,,,78,127
102110,note_off,152,0,0,,6,,,78,127
102112,note_on,2,0,0,,7,,,79,127
102264,note_off,152,0,0,,7,,,79,127
102264,note_off,0,0,0,,7,,,55,127
102266,note_on,2,0,0,,7,,,79,127
102266,note_on,0,0,0,,4,,,52,127
102418,note_off,152,0,0,,7,,,79,127
102420,note_on,2,0,0,,11,,,82,127
102572,note_off,152,0,0,,11,,,82,127
102574,note_on,2,0,0,,12,,,83,127
102726,note_off,152,0,0,,12,,,83,127
102726,note_off,0,0,0,,4,,,52,127
102728,note_on,2,0,0,,12,,,83,127
102728,note_on,0,0,0,,2,,,50,127
102880,note_off,152,0,0,,12,,,83,127
102882,note_on,2,0,0,,2,,,86,127
103034,note_off,152,0,0,,2,,,86,127
103036,note_on,2,0,0,,1,,,85,127
103188,note_off,152,0,0,,1,,,85,127
103188,note_off,0,0,0,,2,,,50,127
103190,note_on,2,0,0,,1,,,85,127
103190,note_on,0,0,0,,12,,,47,127
103342,note_off,152,0,0,,1,,,85,127
103344,note_on,2,0,0,,12,,,83,127
103496,note_off,152,0,0,,12,,,83,127
103498,note_on,2,0,0,,10,,,81,127
103650,note_off,152,0,0,,10,,,81,127
103650,note_off,0,0,0,,12,,,47,127
103652,note_on,2,0,0,,10,,,81,127
103652,note_on,0,0,0,,4,,,52,127
103727,note_off,75,0,0,,10,,,81,127
103729,note_on,2,0,0,,7,,,79,127
103804,note_off,75,0,0,,7,,,79,127
103806,note_on,2,0,0,,6,,,78,127
103958,note_off,152,0,0,,6,,,78,127
103960,note_on,2,0,0,,4,,,76,127
104112,note_off,152,0,0,,4,,,76,127
104112,note_off,0,0,0,,4,,,52,127
104114,note_on,2,0,0,,6,,,78,127
104114,note_on,0,0,0,,6,,,54,127
104189,note_off,75,0,0,,6,,,78,127
104191,note_on,2,0,0,,4,,,76,127
104266,note_off,75,0,0,,4,,,76,127
104268,note_on,2,0,0,,2,,,74,127
104420,note_off,152,0,0,,2,,,74,127
104422,note_on,2,0,0,,1,,,73,127
104574,note_off,152,0,0,,1,,,73,127
104574,note_off,0,0,0,,6,,,54,127
104576,note_on,2,0,0,,12,,,71,127
104576,note_on,0,0,0,,12,,,59,127
104728,note_off,152,0,0,,12,,,59,127
104730,note_on,2,0,0,,3,,,63,127
104882,note_off,152,0,0,,3,,,63,127
104884,note_on,2,0,0,,6,,,66,127
105036,note_off,152,0,0,,6,,,66,127
105038,note_on,2,0,0,,12,,,47,127
105190,note_off,152,0,0,,12,,,71,127
105192,note_on,2,0,0,,3,,,75,127
105267,note_off,75,0,0,,3,,,75,127
105269,note_on,2,0,0,,1,,,73,127
105344,note_off,75,0,0,,1,,,73,127
105346,note_on,2,0,0,,12,,,71,127
105421,note_off,75,0,0,,12,,,71,127
105423,note_on,2,0,0,,11,,,70,127
105498,note_off,75,0,0,,11,,,70,127
105498,note_off,0,0,0,,12,,,47,127
105500,note_on,2,0,0,,12,,,71,127
105500,note_on,0,0,0,,12,,,59,127
105652,note_off,152,0,0,,12,,,59,127
105654,note_on,2,0,0,,3,,,63,127
105806,note_off,152,0,0,,3,,,63,127
105808,note_on,2,0,0,,6,,,66,127
105960,note_off,152,0,0,,6,,,66,127
105962,note_on,2,0,0,,12,,,47,127
106114,note_off,152,0,0,,12,,,71,127
106116,note_on,2,0,0,,3,,,75,127
106191,note_off,75,0,0,,3,,,75,127
106193,note_on,2,0,0,,1,,,73,127
106268,note_off,75,0,0,,1,,,73,127
106270,note_on,2,0,0,,12,,,71,127
106345,note_off,75,0,0,,12,,,71,127
106347,note_on,2,0,0,,11,,,70,127
106422,note_off,75,0,0,,11,,,70,127
106422,note_off,0,0,0,,12,,,47,127
106424,note_on,2,0,0,,12,,,71,127
106424,note_on,0,0,0,,12,,,59,127
106576,note_off,152,0,0,,12,,,59,127
106578,note_on,2,0,0,,3,,,63,127
106730,note_off,152,0,0,,3,,,63,127
106732,note_on,2,0,0,,6,,,66,127
106884,note_off,152,0,0,,6,,,66,127
106886,note_on,2,0,0,,12,,,47,127
107038,note_off,152,0,0,,12,,,71,127
107040,note_on,2,0,0,,3,,,75,127
107115,note_off,75,0,0,,3,,,75,127
107117,note_on,2,0,0,,1,,,73,127
107192,note_off,75,0,0,,1,,,73,127
107194,note_on,2,0,0,,12,,,71,127
107269,note_off,75,0,0,,12,,,71,127
107271,note_on,2,0,0,,11,,,70,127
107346,note_off,75,0,0,,11,,,70,127
107346,note_off,0,0,0,,12,,,47,127
107348,note_on,2,0,0,,12,,,71,127
107348,note_on,0,0,0,,12,,,59,127
107500,note_off,152,0,0,,12,,,71,127
107502,note_on,2,0,0,,6,,,78,127
107654,note_off,152,0,0,,6,,,78,127
107654,note_off,0,0,0,,12,,,59,127
107656,note_on,2,0,0,,6,,,78,127
107656,note_on,0,0,0,,3,,,63,127
107808,note_off,152,0,0,,3,,,63,127
107808,note_off,0,0,0,,6,,,78,127
107810,note_on,2,0,0,,8,,,80,127
107810,note_on,0,0,0,,4,,,64,127
107962,note_off,152,0,0,,8,,,80,127
107964,note_on,2,0,0,,4,,,76,127
108116,note_off,152,0,0,,4,,,76,127
108116,note_off,0,0,0,,4,,,64,127
108118,note_on,2,0,0,,4,,,76,127
108118,note_on,0,0,0,,1,,,61,127
108270,note_off,152,0,0,,1,,,61,127
108270,note_off,0,0,0,,4,,,76,127
108272,note_on,2,0,0,,6,,,78,127
108272,note_on,0,0,0,,3,,,63,127
108424,note_off,152,0,0,,6,,,78,127
108426,note_on,2,0,0,,3,,,75,127
108578,note_off,152,0,0,,3,,,75,127
108578,note_off,0,0,0,,3,,,63,127
108580,note_on,2,0,0,,3,,,75,127
108580,note_on,0,0,0,,12,,,59,127
108732,note_off,152,0,0,,12,,,59,127
108732,note_off,0,0,0,,3,,,75,127
108734,note_on,2,0,0,,4,,,76,127
108734,note_on,0,0,0,,1,,,61,127
108886,note_off,152,0,0,,4,,,76,127
108888,note_on,2,0,0,,1,,,73,127
109040,note_off,152,0,0,,1,,,73,127
109040,note_off,0,0,0,,1,,,61,127
109042,note_on,2,0,0,,1,,,73,127
109042,note_on,0,0,0,,11,,,58,127
109194,note_off,152,0,0,,11,,,58,127
109194,note_off,0,0,0,,1,,,73,127
109196,note_on,2,0,0,,3,,,75,127
109196,note_on,0,0,0,,12,,,59,127
109348,note_off,152,0,0,,3,,,75,127
109350,note_on,2,0,0,,12,,,71,127
109502,note_off,152,0,0,,12,,,71,127
109502,note_off,0,0,0,,12,,,59,127
109504,note_on,2,0,0,,12,,,71,127
109504,note_on,0,0,0,,3,,,51,127
109656,note_off,152,0,0,,3,,,51,127
109656,note_off,0,0,0,,12,,,71,127
109658,note_on,2,0,0,,1,,,73,127
109658,note_on,0,0,0,,4,,,52,127
109810,note_off,152,0,0,,1,,,73,127
109812,note_on,2,0,0,,8,,,68,127
109964,note_off,152,0,0,,8,,,68,127
109964,note_off,0,0,0,,4,,,52,127
109966,note_on,2,0,0,,11,,,70,127
109966,note_on,0,0,0,,6,,,54,127
110118,note_off,152,0,0,,6,,,54,127
110118,note_off,0,0,0,,11,,,70,127
110120,note_on,2,0,0,,12,,,71,127
110120,note_on,0,0,0,,3,,,51,127
110272,note_off,152,0,0,,12,,,71,127
110274,note_on,2,0,0,,1,,,73,127
110426,note_off,152,0,0,,1,,,73,127
110426,note_off,0,0,0,,3,,,51,127
110428,note_on,2,0,0,,3,,,75,127
110428,note_on,0,0,0,,12,,,47,127
110580,note_off,152,0,0,,12,,,47,127
110580,note_off,0,0,0,,3,,,75,127
110582,note_on,2,0,0,,1,,,73,127
110582,note_on,0,0,0,,4,,,52,127
110734,note_off,152,0,0,,1,,,73,127
110736,note_on,2,0,0,,12,,,71,127
110888,note_off,152,0,0,,12,,,71,127
110888,note_off,0,0,0,,4,,,52,127
110890,note_on,2,0,0,,11,,,70,127
110890,note_on,0,0,0,,6,,,54,127
111042,note_off,152,0,0,,6,,,54,127
111042,note_off,0,0,0,,11,,,70,127
111044,note_on,2,0,0,,12,,,71,127
111044,note_on,0,0,0,,3,,,51,127
111198,note_on,154,0,0,,6,,,66,127
111350,note_off,152,0,0,,6,,,66,127
111350,note_off,0,0,0,,3,,,51,127
111352,note_on,2,0,0,,4,,,64,127
111352,note_on,0,0,0,,4,,,52,127
111504,note_off,152,0,0,,4,,,52,127
111506,note_on,2,0,0,,6,,,54,127
111658,note_off,152,0,0,,4,,,64,127
111660,note_on,2,0,0,,3,,,63,127
111812,note_off,152,0,0,,3,,,63,127
111812,note_off,0,0,0,,12,,,71,127
111814,note_on,2,0,0,,1,,,61,127
111814,note_on,0,0,0,,11,,,70,127
111814,note_on,0,0,0,,6,,,42,127
111966,note_off,152,0,0,,6,,,42,127
111966,note_off,0,0,0,,11,,,70,127
111966,note_off,0,0,0,,1,,,61,127
111967,note_off,1,0,0,,6,,,54,127
111968,note_on,1,0,0,,12,,,71,127
111968,note_on,0,0,0,,3,,,63,127
111968,note_on,0,0,0,,12,,,35,127
111968,note_on,0,0,0,,12,,,47,127
112120,note_off,152,0,0,,3,,,63,127
112122,note_on,2,0,0,,12,,,59,127
112272,note_off,150,0,0,,12,,,71,127
112274,note_off,2,0,0,,12,,,59,127
112276,note_on,2,0,0,,1,,,61,127
112276,note_on,0,0,0,,11,,,70,127
112276,note_on,0,0,0,,6,,,42,127
112428,note_off,152,0,0,,11,,,70,127
112428,note_off,0,0,0,,1,,,61,127
112429,note_off,1,0,0,,12,,,47,127
112429,note_off,0,0,0,,12,,,35,127
112430,note_on,1,0,0,,12,,,71,127
112430,note_on,0,0,0,,3,,,63,127
112430,note_on,0,0,0,,12,,,35,127
112430,note_on,0,0,0,,12,,,47,127
112582,note_off,152,0,0,,3,,,63,127
112584,note_on,2,0,0,,12,,,59,127
112734,note_off,150,0,0,,12,,,71,127
112736,note_off,2,0,0,,12,,,59,127
112737,note_off,1,0,0,,6,,,42,127
112738,note_on,1,0,0,,1,,,61,127
112738,note_on,0,0,0,,11,,,70,127
112738,note_on,0,0,0,,6,,,42,127
112890,note_off,152,0,0,,6,,,42,127
112890,note_off,0,0,0,,11,,,70,127
112890,note_off,0,0,0,,1,,,61,127
112891,note_off,1,0,0,,12,,,47,127
112891,note_off,0,0,0,,12,,,35,127
112892,note_on,1,0,0,,12,,,59,127
112892,note_on,0,0,0,,11,,,70,127
112892,note_on,0,0,0,,12,,,35,127
112892,note_on,0,0,0,,12,,,47,127
113351,note_off,459,0,0,,11,,,70,127
113353,note_on,2,0,0,,12,,,71,127
114787,note_off,1434,0,0,,12,,,71,127
114787,note_off,0,0,0,,12,,,47,127
114787,note_off,0,0,0,,12,,,35,127
114787,note_off,0,0,0,,12,,,59,127
118272,end_of_track,3485,1,0,,,,,,
