tick,type,time,meta,track,program,channel,pitch,tempo,note,velocity
0,copyright,0,1,0,,,,,,
0,program_change,0,0,0,6,0,,,,
0,pitchwheel,0,0,0,,0,0,,,
0,program_change,0,0,0,6,1,,,,
0,pitchwheel,0,0,0,,1,-590,,,
0,program_change,0,0,0,6,2,,,,
0,pitchwheel,0,0,0,,2,-272,,,
0,program_change,0,0,0,6,3,,,,
0,pitchwheel,0,0,0,,3,-353,,,
0,program_change,0,0,0,6,4,,,,
0,pitchwheel,0,0,0,,4,-560,,,
0,program_change,0,0,0,6,5,,,,
0,pitchwheel,0,0,0,,5,-80,,,
0,program_change,0,0,0,6,6,,,,
0,pitchwheel,0,0,0,,6,-625,,,
0,program_change,0,0,0,6,7,,,,
0,pitchwheel,0,0,0,,7,-130,,,
0,program_change,0,0,0,6,8,,,,
0,pitchwheel,0,0,0,,8,-512,,,
0,program_change,0,0,0,6,10,,,,
0,pitchwheel,0,0,0,,10,-464,,,
0,program_change,0,0,0,6,11,,,,
0,pitchwheel,0,0,0,,11,-208,,,
0,program_change,0,0,0,6,12,,,,
0,pitchwheel,0,0,0,,12,-553,,,
0,set_tempo,0,1,0,,,,500000,,
115,note_on,115,0,0,,4,,,52,127
1035,note_off,920,0,0,,4,,,52,127
1036,note_on,1,0,0,,4,,,64,127
1956,note_off,920,0,0,,4,,,64,127
1957,note_on,1,0,0,,2,,,62,127
2186,note_off,229,0,0,,2,,,62,127
2187,note_on,1,0,0,,0,,,60,127
2416,note_off,229,0,0,,0,,,60,127
2417,note_on,1,0,0,,12,,,59,127
2646,note_off,229,0,0,,12,,,59,127
2647,note_on,1,0,0,,10,,,57,127
2876,note_off,229,0,0,,10,,,57,127
2877,note_on,1,0,0,,7,,,55,127
2877,note_on,0,0,0,,4,,,64,127
3106,note_off,229,0,0,,7,,,55,127
3107,note_on,1,0,0,,6,,,54,127
3336,note_off,229,0,0,,6,,,54,127
3337,note_on,1,0,0,,4,,,52,127
3566,note_off,229,0,0,,4,,,52,127
3567,note_on,1,0,0,,2,,,50,127
3796,note_off,229,0,0,,2,,,50,127
3796,note_off,0,0,0,,4,,,64,127
3797,note_on,1,0,0,,0,,,48,127
3797,note_on,0,0,0,,4,,,76,127
4027,note_on,230,0,0,,6,,,54,127
4256,note_off,229,0,0,,6,,,54,127
4257,note_on,1,0,0,,7,,,55,127
4486,note_off,229,0,0,,7,,,55,127
4487,note_on,1,0,0,,10,,,57,127
4715,note_off,228,0,0,,0,,,48,127
4716,note_off,1,0,0,,10,,,57,127
4716,note_off,0,0,0,,4,,,76,127
4717,note_on,1,0,0,,12,,,59,127
4717,note_on,0,0,0,,12,,,47,127
4717,note_on,0,0,0,,2,,,74,127
4946,note_off,229,0,0,,2,,,74,127
4947,note_on,1,0,0,,0,,,72,127
5176,note_off,229,0,0,,0,,,72,127
5177,note_on,1,0,0,,12,,,71,127
5406,note_off,229,0,0,,12,,,71,127
5407,note_on,1,0,0,,10,,,69,127
5636,note_off,229,0,0,,10,,,69,127
5636,note_off,0,0,0,,12,,,47,127
5636,note_off,0,0,0,,12,,,59,127
5637,note_on,1,0,0,,4,,,52,127
5637,note_on,0,0,0,,7,,,67,127
5866,note_off,229,0,0,,7,,,67,127
5867,note_on,1,0,0,,6,,,66,127
6096,note_off,229,0,0,,6,,,66,127
6097,note_on,1,0,0,,12,,,71,127
6097,note_on,0,0,0,,4,,,64,127
6326,note_off,229,0,0,,4,,,64,127
6327,note_on,1,0,0,,2,,,62,127
6556,note_off,229,0,0,,2,,,62,127
6556,note_off,0,0,0,,4,,,52,127
6557,note_on,1,0,0,,10,,,45,127
6557,note_on,0,0,0,,10,,,57,127
6557,note_on,0,0,0,,0,,,60,127
6786,note_off,229,0,0,,10,,,57,127
6787,note_on,1,0,0,,7,,,55,127
7015,note_off,228,0,0,,12,,,71,127
7016,note_off,1,0,0,,7,,,55,127
7016,note_off,0,0,0,,0,,,60,127
7017,note_on,1,0,0,,6,,,54,127
7017,note_on,0,0,0,,10,,,69,127
7246,note_off,229,0,0,,6,,,54,127
7247,note_on,1,0,0,,4,,,52,127
7475,note_off,228,0,0,,10,,,45,127
7476,note_off,1,0,0,,4,,,52,127
7477,note_on,1,0,0,,3,,,51,127
7477,note_on,0,0,0,,12,,,59,127
7706,note_off,229,0,0,,3,,,51,127
7707,note_on,1,0,0,,12,,,47,127
7935,note_off,228,0,0,,10,,,69,127
7936,note_off,1,0,0,,12,,,47,127
7937,note_on,1,0,0,,4,,,52,127
7937,note_on,0,0,0,,7,,,67,127
8166,note_off,229,0,0,,7,,,67,127
8166,note_off,0,0,0,,4,,,52,127
8167,note_on,1,0,0,,10,,,45,127
8167,note_on,0,0,0,,6,,,66,127
8396,note_off,229,0,0,,6,,,66,127
8396,note_off,0,0,0,,10,,,45,127
8397,note_on,1,0,0,,12,,,47,127
8397,note_on,0,0,0,,7,,,67,127
8627,note_on,230,0,0,,4,,,64,127
8855,note_off,228,0,0,,12,,,59,127
8856,note_off,1,0,0,,4,,,64,127
8857,note_off,1,0,0,,7,,,67,127
8857,note_on,0,0,0,,12,,,59,127
8857,note_on,0,0,0,,6,,,66,127
9086,note_off,229,0,0,,12,,,47,127
9087,note_on,1,0,0,,3,,,63,127
9316,note_off,229,0,0,,3,,,63,127
9316,note_off,0,0,0,,12,,,59,127
9317,note_off,1,0,0,,6,,,66,127
9317,note_on,0,0,0,,4,,,40,127
9317,note_on,0,0,0,,4,,,52,127
9317,note_on,0,0,0,,4,,,64,127
9777,note_off,460,0,0,,4,,,64,127
9778,note_on,1,0,0,,12,,,71,127
9778,note_on,0,0,0,,7,,,67,127
10007,note_off,229,0,0,,7,,,67,127
10007,note_off,0,0,0,,12,,,71,127
10008,note_on,1,0,0,,0,,,72,127
10008,note_on,0,0,0,,10,,,69,127
10237,note_off,229,0,0,,10,,,69,127
10237,note_off,0,0,0,,0,,,72,127
10237,note_off,0,0,0,,4,,,52,127
10237,note_off,0,0,0,,4,,,40,127
10238,note_on,1,0,0,,12,,,71,127
10238,note_on,0,0,0,,7,,,67,127
10467,note_off,229,0,0,,7,,,67,127
10467,note_off,0,0,0,,12,,,71,127
10468,note_on,1,0,0,,10,,,69,127
10468,note_on,0,0,0,,6,,,66,127
10697,note_off,229,0,0,,6,,,66,127
10697,note_off,0,0,0,,10,,,69,127
10698,note_on,1,0,0,,12,,,47,127
10698,note_on,0,0,0,,7,,,67,127
10698,note_on,0,0,0,,4,,,64,127
10927,note_off,229,0,0,,4,,,64,127
10927,note_off,0,0,0,,7,,,67,127
10928,note_on,1,0,0,,6,,,66,127
10928,note_on,0,0,0,,3,,,63,127
11157,note_off,229,0,0,,3,,,63,127
11157,note_off,0,0,0,,6,,,66,127
11157,note_off,0,0,0,,12,,,47,127
11158,note_on,1,0,0,,4,,,40,127
11158,note_on,0,0,0,,4,,,52,127
11158,note_on,0,0,0,,10,,,69,127
11272,note_off,114,0,0,,10,,,69,127
11273,note_on,1,0,0,,7,,,67,127
11387,note_off,114,0,0,,7,,,67,127
11388,note_on,1,0,0,,6,,,66,127
11502,note_off,114,0,0,,6,,,66,127
11503,note_on,1,0,0,,4,,,64,127
11617,note_off,114,0,0,,4,,,52,127
11617,note_off,0,0,0,,4,,,40,127
11618,note_on,1,0,0,,12,,,59,127
11618,note_on,0,0,0,,7,,,55,127
11847,note_off,229,0,0,,7,,,55,127
11847,note_off,0,0,0,,12,,,59,127
11848,note_on,1,0,0,,0,,,60,127
11848,note_on,0,0,0,,10,,,57,127
12077,note_off,229,0,0,,10,,,57,127
12077,note_off,0,0,0,,0,,,60,127
12078,note_on,1,0,0,,12,,,59,127
12078,note_on,0,0,0,,7,,,55,127
12307,note_off,229,0,0,,7,,,55,127
12307,note_off,0,0,0,,12,,,59,127
12307,note_off,0,0,0,,4,,,64,127
12308,note_on,1,0,0,,6,,,54,127
12308,note_on,0,0,0,,10,,,57,127
12308,note_on,0,0,0,,6,,,66,127
12537,note_off,229,0,0,,6,,,66,127
12537,note_off,0,0,0,,10,,,57,127
12537,note_off,0,0,0,,6,,,54,127
12538,note_on,1,0,0,,7,,,55,127
12538,note_on,0,0,0,,4,,,52,127
12538,note_on,0,0,0,,7,,,67,127
12767,note_off,229,0,0,,7,,,67,127
12767,note_off,0,0,0,,4,,,52,127
12767,note_off,0,0,0,,7,,,55,127
12768,note_on,1,0,0,,6,,,54,127
12768,note_on,0,0,0,,3,,,51,127
12768,note_on,0,0,0,,10,,,69,127
12997,note_off,229,0,0,,10,,,69,127
12997,note_off,0,0,0,,3,,,51,127
12997,note_off,0,0,0,,6,,,54,127
12998,note_on,1,0,0,,4,,,52,127
12998,note_on,0,0,0,,7,,,55,127
12998,note_on,0,0,0,,10,,,69,127
13112,note_off,114,0,0,,10,,,69,127
13113,note_on,1,0,0,,7,,,67,127
13227,note_off,114,0,0,,7,,,67,127
13228,note_on,1,0,0,,6,,,66,127
13342,note_off,114,0,0,,6,,,66,127
13343,note_on,1,0,0,,4,,,64,127
13457,note_off,114,0,0,,4,,,64,127
13458,note_off,1,0,0,,7,,,55,127
13458,note_on,0,0,0,,12,,,71,127
13458,note_on,0,0,0,,7,,,67,127
13687,note_off,229,0,0,,7,,,67,127
13687,note_off,0,0,0,,12,,,71,127
13688,note_on,1,0,0,,0,,,72,127
13688,note_on,0,0,0,,10,,,69,127
13917,note_off,229,0,0,,10,,,69,127
13917,note_off,0,0,0,,0,,,72,127
13918,note_on,1,0,0,,7,,,67,127
13918,note_on,0,0,0,,12,,,71,127
14147,note_off,229,0,0,,12,,,71,127
14147,note_off,0,0,0,,7,,,67,127
14148,note_on,1,0,0,,6,,,66,127
14148,note_on,0,0,0,,10,,,69,127
14377,note_off,229,0,0,,10,,,69,127
14377,note_off,0,0,0,,6,,,66,127
14377,note_off,0,0,0,,4,,,52,127
14378,note_on,1,0,0,,12,,,47,127
14378,note_on,0,0,0,,4,,,64,127
14378,note_on,0,0,0,,7,,,67,127
14607,note_off,229,0,0,,7,,,67,127
14607,note_off,0,0,0,,4,,,64,127
14608,note_on,1,0,0,,3,,,63,127
14608,note_on,0,0,0,,6,,,66,127
14837,note_off,229,0,0,,6,,,66,127
14837,note_off,0,0,0,,3,,,63,127
14837,note_off,0,0,0,,12,,,47,127
14838,note_on,1,0,0,,4,,,52,127
14838,note_on,0,0,0,,4,,,64,127
14838,note_on,0,0,0,,7,,,67,127
15067,note_off,229,0,0,,7,,,67,127
15067,note_off,0,0,0,,4,,,64,127
15068,note_on,1,0,0,,6,,,66,127
15068,note_on,0,0,0,,10,,,69,127
15297,note_off,229,0,0,,10,,,69,127
15297,note_off,0,0,0,,6,,,66,127
15298,note_on,1,0,0,,12,,,71,127
15298,note_on,0,0,0,,7,,,67,127
15527,note_off,229,0,0,,7,,,67,127
15527,note_off,0,0,0,,12,,,71,127
15528,note_on,1,0,0,,0,,,72,127
15528,note_on,0,0,0,,4,,,64,127
15757,note_off,229,0,0,,4,,,64,127
15757,note_off,0,0,0,,0,,,72,127
15757,note_off,0,0,0,,4,,,52,127
15758,note_on,1,0,0,,2,,,50,127
15758,note_on,0,0,0,,2,,,74,127
15758,note_on,0,0,0,,6,,,66,127
15987,note_off,229,0,0,,6,,,66,127
15988,note_on,1,0,0,,2,,,62,127
16217,note_off,229,0,0,,2,,,62,127
16218,note_off,1,0,0,,2,,,74,127
16218,note_on,0,0,0,,2,,,38,127
16218,note_on,0,0,0,,4,,,64,127
16218,note_on,0,0,0,,0,,,72,127
16447,note_off,229,0,0,,4,,,64,127
16448,note_on,1,0,0,,6,,,66,127
16677,note_off,229,0,0,,6,,,66,127
16677,note_off,0,0,0,,2,,,38,127
16677,note_off,0,0,0,,2,,,50,127
16678,note_off,1,0,0,,0,,,72,127
16678,note_on,0,0,0,,7,,,43,127
16678,note_on,0,0,0,,7,,,67,127
16678,note_on,0,0,0,,0,,,72,127
16792,note_off,114,0,0,,0,,,72,127
16792,note_off,0,0,0,,7,,,67,127
16793,note_on,1,0,0,,12,,,71,127
16907,note_off,114,0,0,,12,,,71,127
16908,note_on,1,0,0,,10,,,69,127
17022,note_off,114,0,0,,10,,,69,127
17023,note_on,1,0,0,,7,,,67,127
17137,note_off,114,0,0,,7,,,43,127
17138,note_on,1,0,0,,7,,,55,127
17138,note_on,0,0,0,,12,,,59,127
17367,note_off,229,0,0,,12,,,59,127
17367,note_off,0,0,0,,7,,,55,127
17368,note_on,1,0,0,,10,,,57,127
17368,note_on,0,0,0,,0,,,60,127
17483,note_off,115,0,0,,7,,,67,127
17597,note_off,114,0,0,,0,,,60,127
17597,note_off,0,0,0,,10,,,57,127
17598,note_on,1,0,0,,7,,,55,127
17598,note_on,0,0,0,,12,,,59,127
17827,note_off,229,0,0,,12,,,59,127
17827,note_off,0,0,0,,7,,,55,127
17828,note_on,1,0,0,,6,,,54,127
17828,note_on,0,0,0,,10,,,57,127
18057,note_off,229,0,0,,10,,,57,127
18057,note_off,0,0,0,,6,,,54,127
18058,note_on,1,0,0,,7,,,55,127
18058,note_on,0,0,0,,4,,,52,127
18287,note_off,229,0,0,,4,,,52,127
18287,note_off,0,0,0,,7,,,55,127
18288,note_on,1,0,0,,3,,,51,127
18288,note_on,0,0,0,,6,,,54,127
18517,note_off,229,0,0,,6,,,54,127
18517,note_off,0,0,0,,3,,,51,127
18518,note_on,1,0,0,,4,,,52,127
18518,note_on,0,0,0,,7,,,55,127
18747,note_off,229,0,0,,7,,,55,127
18747,note_off,0,0,0,,4,,,52,127
18748,note_on,1,0,0,,10,,,57,127
18748,note_on,0,0,0,,6,,,54,127
18977,note_off,229,0,0,,6,,,54,127
18977,note_off,0,0,0,,10,,,57,127
18978,note_on,1,0,0,,12,,,59,127
18978,note_on,0,0,0,,7,,,55,127
19207,note_off,229,0,0,,7,,,55,127
19207,note_off,0,0,0,,12,,,59,127
19208,note_on,1,0,0,,0,,,60,127
19208,note_on,0,0,0,,4,,,52,127
19437,note_off,229,0,0,,4,,,52,127
19437,note_off,0,0,0,,0,,,60,127
19438,note_on,1,0,0,,6,,,54,127
19438,note_on,0,0,0,,2,,,62,127
19667,note_off,229,0,0,,6,,,54,127
19668,note_on,1,0,0,,2,,,50,127
19897,note_off,229,0,0,,2,,,50,127
19898,note_off,1,0,0,,2,,,62,127
19898,note_on,0,0,0,,4,,,52,127
19898,note_on,0,0,0,,0,,,60,127
19898,note_on,0,0,0,,12,,,71,127
20012,note_off,114,0,0,,12,,,71,127
20013,note_on,1,0,0,,10,,,69,127
20127,note_off,114,0,0,,10,,,69,127
20127,note_off,0,0,0,,4,,,52,127
20128,note_on,1,0,0,,6,,,54,127
20128,note_on,0,0,0,,7,,,67,127
20242,note_off,114,0,0,,7,,,67,127
20243,note_on,1,0,0,,10,,,69,127
20357,note_off,114,0,0,,10,,,69,127
20357,note_off,0,0,0,,6,,,54,127
20358,note_off,1,0,0,,0,,,60,127
20358,note_on,0,0,0,,7,,,55,127
20358,note_on,0,0,0,,12,,,59,127
20358,note_on,0,0,0,,12,,,71,127
20472,note_off,114,0,0,,12,,,71,127
20473,note_on,1,0,0,,7,,,67,127
20587,note_off,114,0,0,,7,,,67,127
20588,note_on,1,0,0,,10,,,69,127
20702,note_off,114,0,0,,10,,,69,127
20703,note_on,1,0,0,,12,,,71,127
20817,note_off,114,0,0,,12,,,71,127
20817,note_off,0,0,0,,12,,,59,127
20818,note_on,1,0,0,,7,,,67,127
20818,note_on,0,0,0,,0,,,72,127
20932,note_off,114,0,0,,0,,,72,127
20933,note_on,1,0,0,,2,,,74,127
21047,note_off,114,0,0,,2,,,74,127
21048,note_on,1,0,0,,4,,,76,127
21162,note_off,114,0,0,,4,,,76,127
21163,note_on,1,0,0,,6,,,78,127
21277,note_off,114,0,0,,6,,,78,127
21278,note_on,1,0,0,,7,,,79,127
21507,note_off,229,0,0,,7,,,79,127
21508,note_on,1,0,0,,6,,,78,127
21532,note_off,24,0,0,,7,,,55,127
21737,note_off,205,0,0,,7,,,67,127
21738,note_on,1,0,0,,4,,,64,127
21738,note_on,0,0,0,,0,,,60,127
21967,note_off,229,0,0,,6,,,78,127
21968,note_on,1,0,0,,4,,,76,127
22197,note_off,229,0,0,,4,,,76,127
22197,note_off,0,0,0,,0,,,60,127
22197,note_off,0,0,0,,4,,,64,127
22198,note_on,1,0,0,,2,,,62,127
22198,note_on,0,0,0,,12,,,59,127
22198,note_on,0,0,0,,2,,,74,127
22312,note_off,114,0,0,,2,,,74,127
22313,note_on,1,0,0,,7,,,67,127
22427,note_off,114,0,0,,7,,,67,127
22428,note_on,1,0,0,,10,,,69,127
22542,note_off,114,0,0,,10,,,69,127
22543,note_on,1,0,0,,12,,,71,127
22657,note_off,114,0,0,,12,,,71,127
22658,note_on,1,0,0,,0,,,72,127
22772,note_off,114,0,0,,0,,,72,127
22773,note_on,1,0,0,,2,,,74,127
22887,note_off,114,0,0,,2,,,74,127
22888,note_on,1,0,0,,4,,,76,127
23002,note_off,114,0,0,,4,,,76,127
23003,note_on,1,0,0,,6,,,78,127
23117,note_off,114,0,0,,6,,,78,127
23118,note_on,1,0,0,,7,,,79,127
23118,note_on,0,0,0,,7,,,67,127
23347,note_off,229,0,0,,7,,,79,127
23348,note_on,1,0,0,,6,,,78,127
23372,note_off,24,0,0,,12,,,59,127
23577,note_off,205,0,0,,2,,,62,127
23578,note_on,1,0,0,,0,,,60,127
23578,note_on,0,0,0,,4,,,64,127
23807,note_off,229,0,0,,6,,,78,127
23808,note_on,1,0,0,,4,,,76,127
24037,note_off,229,0,0,,4,,,76,127
24037,note_off,0,0,0,,4,,,64,127
24037,note_off,0,0,0,,0,,,60,127
24037,note_off,0,0,0,,7,,,67,127
24038,note_on,1,0,0,,2,,,62,127
24038,note_on,0,0,0,,6,,,78,127
24152,note_off,114,0,0,,6,,,78,127
24153,note_on,1,0,0,,4,,,76,127
24267,note_off,114,0,0,,4,,,76,127
24268,note_on,1,0,0,,2,,,74,127
24382,note_off,114,0,0,,2,,,74,127
24383,note_on,1,0,0,,1,,,73,127
24498,note_on,115,0,0,,2,,,50,127
24726,note_off,228,0,0,,1,,,73,127
24727,note_off,1,0,0,,2,,,62,127
24728,note_on,1,0,0,,2,,,74,127
24957,note_off,229,0,0,,2,,,74,127
24957,note_off,0,0,0,,2,,,50,127
24958,note_on,1,0,0,,4,,,52,127
24958,note_on,0,0,0,,4,,,76,127
25072,note_off,114,0,0,,4,,,76,127
25073,note_on,1,0,0,,2,,,74,127
25187,note_off,114,0,0,,2,,,74,127
25188,note_on,1,0,0,,0,,,72,127
25302,note_off,114,0,0,,0,,,72,127
25303,note_on,1,0,0,,12,,,71,127
25417,note_off,114,0,0,,4,,,52,127
25418,note_on,1,0,0,,6,,,54,127
25648,note_off,230,0,0,,12,,,71,127
25648,note_on,0,0,0,,0,,,72,127
25877,note_off,229,0,0,,0,,,72,127
25877,note_off,0,0,0,,6,,,54,127
25878,note_on,1,0,0,,7,,,55,127
25878,note_on,0,0,0,,2,,,74,127
25991,note_off,113,0,0,,2,,,74,127
25993,note_on,2,0,0,,0,,,72,127
26106,note_off,113,0,0,,0,,,72,127
26108,note_on,2,0,0,,12,,,71,127
26222,note_off,114,0,0,,12,,,71,127
26223,note_on,1,0,0,,10,,,69,127
26337,note_off,114,0,0,,10,,,69,127
26337,note_off,0,0,0,,7,,,55,127
26338,note_on,1,0,0,,12,,,47,127
26338,note_on,0,0,0,,0,,,72,127
26451,note_off,113,0,0,,0,,,72,127
26453,note_on,2,0,0,,12,,,71,127
26566,note_off,113,0,0,,12,,,71,127
26568,note_on,2,0,0,,10,,,69,127
26682,note_off,114,0,0,,10,,,69,127
26683,note_on,1,0,0,,7,,,67,127
26797,note_off,114,0,0,,7,,,67,127
26797,note_off,0,0,0,,12,,,47,127
26798,note_on,1,0,0,,0,,,48,127
26798,note_on,0,0,0,,10,,,69,127
27027,note_off,229,0,0,,10,,,69,127
27028,note_on,1,0,0,,7,,,67,127
27257,note_off,229,0,0,,0,,,48,127
27258,note_on,1,0,0,,2,,,50,127
27487,note_off,229,0,0,,7,,,67,127
27488,note_on,1,0,0,,6,,,66,127
27717,note_off,229,0,0,,6,,,66,127
27717,note_off,0,0,0,,2,,,50,127
27718,note_on,1,0,0,,7,,,43,127
27718,note_on,0,0,0,,7,,,67,127
27947,note_off,229,0,0,,7,,,67,127
27948,note_on,1,0,0,,2,,,74,127
28177,note_off,229,0,0,,2,,,74,127
28178,note_on,1,0,0,,1,,,73,127
28407,note_off,229,0,0,,1,,,73,127
28407,note_off,0,0,0,,7,,,43,127
28408,note_on,1,0,0,,0,,,72,127
28637,note_off,229,0,0,,0,,,72,127
28638,note_on,1,0,0,,12,,,71,127
28868,note_on,230,0,0,,7,,,67,127
29097,note_off,229,0,0,,7,,,67,127
29097,note_off,0,0,0,,12,,,71,127
29098,note_on,1,0,0,,6,,,66,127
29098,note_on,0,0,0,,10,,,69,127
29327,note_off,229,0,0,,6,,,66,127
29328,note_on,1,0,0,,5,,,65,127
29557,note_off,229,0,0,,5,,,65,127
29557,note_off,0,0,0,,10,,,69,127
29558,note_on,1,0,0,,4,,,64,127
29558,note_on,0,0,0,,8,,,68,127
29787,note_off,229,0,0,,8,,,68,127
29788,note_on,1,0,0,,4,,,76,127
30017,note_off,229,0,0,,4,,,76,127
30018,note_on,1,0,0,,3,,,75,127
30247,note_off,229,0,0,,3,,,75,127
30248,note_on,1,0,0,,2,,,74,127
30477,note_off,229,0,0,,2,,,74,127
30477,note_off,0,0,0,,4,,,64,127
30478,note_on,1,0,0,,1,,,73,127
30708,note_on,230,0,0,,10,,,69,127
30937,note_off,229,0,0,,10,,,69,127
30937,note_off,0,0,0,,1,,,73,127
30938,note_on,1,0,0,,8,,,68,127
30938,note_on,0,0,0,,12,,,71,127
31167,note_off,229,0,0,,8,,,68,127
31168,note_on,1,0,0,,7,,,67,127
31397,note_off,229,0,0,,7,,,67,127
31397,note_off,0,0,0,,12,,,71,127
31398,note_on,1,0,0,,6,,,66,127
31398,note_on,0,0,0,,10,,,69,127
31628,note_on,230,0,0,,10,,,81,127
31743,note_off,115,0,0,,10,,,69,127
31857,note_off,114,0,0,,10,,,81,127
31857,note_off,0,0,0,,6,,,66,127
31858,note_on,1,0,0,,4,,,64,127
31858,note_on,0,0,0,,8,,,80,127
32087,note_off,229,0,0,,8,,,80,127
32088,note_on,1,0,0,,7,,,79,127
32317,note_off,229,0,0,,7,,,79,127
32317,note_off,0,0,0,,4,,,64,127
32318,note_on,1,0,0,,2,,,62,127
32318,note_on,0,0,0,,6,,,78,127
32547,note_off,229,0,0,,2,,,62,127
32548,note_on,1,0,0,,2,,,74,127
32777,note_off,229,0,0,,2,,,74,127
32777,note_off,0,0,0,,6,,,78,127
32778,note_on,1,0,0,,1,,,73,127
32778,note_on,0,0,0,,4,,,76,127
33007,note_off,229,0,0,,1,,,73,127
33008,note_on,1,0,0,,0,,,72,127
33237,note_off,229,0,0,,0,,,72,127
33237,note_off,0,0,0,,4,,,76,127
33238,note_on,1,0,0,,12,,,71,127
33238,note_on,0,0,0,,2,,,74,127
33468,note_on,230,0,0,,2,,,86,127
33583,note_off,115,0,0,,2,,,74,127
33697,note_off,114,0,0,,2,,,86,127
33697,note_off,0,0,0,,12,,,71,127
33698,note_on,1,0,0,,10,,,69,127
33698,note_on,0,0,0,,1,,,85,127
33927,note_off,229,0,0,,1,,,85,127
33928,note_on,1,0,0,,0,,,84,127
34157,note_off,229,0,0,,0,,,84,127
34157,note_off,0,0,0,,10,,,69,127
34158,note_on,1,0,0,,7,,,67,127
34158,note_on,0,0,0,,12,,,83,127
34388,note_on,230,0,0,,2,,,74,127
34617,note_off,229,0,0,,2,,,74,127
34618,note_off,1,0,0,,12,,,83,127
34618,note_on,0,0,0,,1,,,73,127
34618,note_on,0,0,0,,10,,,81,127
34847,note_off,229,0,0,,1,,,73,127
34848,note_on,1,0,0,,0,,,72,127
35077,note_off,229,0,0,,0,,,72,127
35078,note_off,1,0,0,,10,,,81,127
35078,note_on,0,0,0,,7,,,79,127
35078,note_on,0,0,0,,12,,,71,127
35307,note_off,229,0,0,,7,,,67,127
35308,note_on,1,0,0,,2,,,62,127
35537,note_off,229,0,0,,2,,,62,127
35537,note_off,0,0,0,,12,,,71,127
35537,note_off,0,0,0,,7,,,79,127
35538,note_on,1,0,0,,1,,,61,127
35538,note_on,0,0,0,,6,,,78,127
35538,note_on,0,0,0,,10,,,69,127
35767,note_off,229,0,0,,1,,,61,127
35768,note_on,1,0,0,,0,,,60,127
35997,note_off,229,0,0,,0,,,60,127
35997,note_off,0,0,0,,10,,,69,127
35997,note_off,0,0,0,,6,,,78,127
35998,note_on,1,0,0,,12,,,59,127
35998,note_on,0,0,0,,7,,,79,127
36112,note_off,114,0,0,,7,,,79,127
36113,note_on,1,0,0,,7,,,67,127
36227,note_off,114,0,0,,7,,,67,127
36228,note_on,1,0,0,,10,,,69,127
36342,note_off,114,0,0,,10,,,69,127
36343,note_on,1,0,0,,12,,,71,127
36457,note_off,114,0,0,,12,,,71,127
36457,note_off,0,0,0,,12,,,59,127
36458,note_on,1,0,0,,4,,,64,127
36458,note_on,0,0,0,,0,,,60,127
36458,note_on,0,0,0,,0,,,72,127
36572,note_off,114,0,0,,0,,,72,127
36573,note_on,1,0,0,,2,,,74,127
36687,note_off,114,0,0,,2,,,74,127
36688,note_on,1,0,0,,4,,,76,127
36802,note_off,114,0,0,,4,,,76,127
36803,note_on,1,0,0,,6,,,78,127
36917,note_off,114,0,0,,6,,,78,127
36917,note_off,0,0,0,,0,,,60,127
36918,note_on,1,0,0,,6,,,54,127
36918,note_on,0,0,0,,4,,,76,127
37032,note_off,114,0,0,,4,,,76,127
37033,note_on,1,0,0,,6,,,66,127
37147,note_off,114,0,0,,6,,,66,127
37148,note_on,1,0,0,,7,,,67,127
37262,note_off,114,0,0,,7,,,67,127
37263,note_on,1,0,0,,10,,,69,127
37377,note_off,114,0,0,,10,,,69,127
37377,note_off,0,0,0,,6,,,54,127
37378,note_off,1,0,0,,4,,,64,127
37378,note_on,0,0,0,,12,,,59,127
37378,note_on,0,0,0,,2,,,62,127
37378,note_on,0,0,0,,12,,,71,127
37492,note_off,114,0,0,,12,,,71,127
37493,note_on,1,0,0,,0,,,72,127
37607,note_off,114,0,0,,0,,,72,127
37608,note_on,1,0,0,,2,,,74,127
37722,note_off,114,0,0,,2,,,74,127
37723,note_on,1,0,0,,4,,,76,127
37837,note_off,114,0,0,,4,,,76,127
37837,note_off,0,0,0,,12,,,59,127
37838,note_on,1,0,0,,4,,,52,127
37838,note_on,0,0,0,,2,,,74,127
37952,note_off,114,0,0,,2,,,74,127
37953,note_on,1,0,0,,4,,,64,127
38067,note_off,114,0,0,,4,,,64,127
38068,note_on,1,0,0,,6,,,66,127
38182,note_off,114,0,0,,6,,,66,127
38183,note_on,1,0,0,,7,,,67,127
38297,note_off,114,0,0,,7,,,67,127
38297,note_off,0,0,0,,4,,,52,127
38298,note_off,1,0,0,,2,,,62,127
38298,note_on,0,0,0,,10,,,57,127
38298,note_on,0,0,0,,0,,,60,127
38298,note_on,0,0,0,,10,,,69,127
38412,note_off,114,0,0,,10,,,69,127
38413,note_on,1,0,0,,12,,,71,127
38527,note_off,114,0,0,,12,,,71,127
38528,note_on,1,0,0,,0,,,72,127
38642,note_off,114,0,0,,0,,,72,127
38643,note_on,1,0,0,,2,,,74,127
38757,note_off,114,0,0,,2,,,74,127
38757,note_off,0,0,0,,10,,,57,127
38758,note_on,1,0,0,,2,,,50,127
38758,note_on,0,0,0,,0,,,72,127
38872,note_off,114,0,0,,0,,,72,127
38873,note_on,1,0,0,,2,,,62,127
38987,note_off,114,0,0,,2,,,62,127
38988,note_on,1,0,0,,4,,,64,127
39102,note_off,114,0,0,,4,,,64,127
39103,note_on,1,0,0,,6,,,66,127
39217,note_off,114,0,0,,6,,,66,127
39217,note_off,0,0,0,,2,,,50,127
39218,note_off,1,0,0,,0,,,60,127
39218,note_on,0,0,0,,12,,,59,127
39218,note_on,0,0,0,,7,,,55,127
39218,note_on,0,0,0,,7,,,67,127
39332,note_off,114,0,0,,7,,,67,127
39333,note_on,1,0,0,,10,,,69,127
39447,note_off,114,0,0,,10,,,69,127
39448,note_on,1,0,0,,12,,,71,127
39562,note_off,114,0,0,,12,,,71,127
39563,note_on,1,0,0,,0,,,72,127
39673,note_off,110,0,0,,12,,,59,127
39677,note_off,4,0,0,,0,,,72,127
39678,note_on,1,0,0,,12,,,71,127
39792,note_off,114,0,0,,7,,,55,127
39793,note_on,1,0,0,,7,,,55,127
39907,note_off,114,0,0,,7,,,55,127
39908,note_on,1,0,0,,10,,,57,127
40022,note_off,114,0,0,,10,,,57,127
40023,note_on,1,0,0,,12,,,59,127
40137,note_off,114,0,0,,12,,,59,127
40137,note_off,0,0,0,,12,,,71,127
40138,note_on,1,0,0,,0,,,60,127
40138,note_on,0,0,0,,4,,,76,127
40252,note_off,114,0,0,,0,,,60,127
40253,note_on,1,0,0,,2,,,62,127
40367,note_off,114,0,0,,2,,,62,127
40368,note_on,1,0,0,,4,,,64,127
40482,note_off,114,0,0,,4,,,64,127
40483,note_on,1,0,0,,6,,,66,127
40597,note_off,114,0,0,,6,,,66,127
40598,note_on,1,0,0,,4,,,64,127
40598,note_on,0,0,0,,0,,,72,127
40712,note_off,114,0,0,,4,,,64,127
40713,note_on,1,0,0,,6,,,54,127
40827,note_off,114,0,0,,6,,,54,127
40828,note_on,1,0,0,,7,,,55,127
40942,note_off,114,0,0,,7,,,55,127
40943,note_on,1,0,0,,10,,,57,127
41057,note_off,114,0,0,,10,,,57,127
41057,note_off,0,0,0,,4,,,76,127
41058,note_on,1,0,0,,12,,,59,127
41058,note_on,0,0,0,,10,,,81,127
41172,note_off,114,0,0,,12,,,59,127
41173,note_on,1,0,0,,0,,,60,127
41287,note_off,114,0,0,,0,,,60,127
41288,note_on,1,0,0,,2,,,62,127
41402,note_off,114,0,0,,2,,,62,127
41403,note_on,1,0,0,,4,,,64,127
41517,note_off,114,0,0,,4,,,64,127
41517,note_off,0,0,0,,0,,,72,127
41518,note_on,1,0,0,,2,,,62,127
41518,note_on,0,0,0,,12,,,71,127
41632,note_off,114,0,0,,2,,,62,127
41633,note_on,1,0,0,,4,,,52,127
41747,note_off,114,0,0,,4,,,52,127
41748,note_on,1,0,0,,6,,,54,127
41862,note_off,114,0,0,,6,,,54,127
41863,note_on,1,0,0,,7,,,55,127
41977,note_off,114,0,0,,7,,,55,127
41977,note_off,0,0,0,,10,,,81,127
41978,note_on,1,0,0,,10,,,57,127
41978,note_on,0,0,0,,7,,,79,127
42092,note_off,114,0,0,,10,,,57,127
42093,note_on,1,0,0,,12,,,59,127
42207,note_off,114,0,0,,12,,,59,127
42208,note_on,1,0,0,,0,,,60,127
42322,note_off,114,0,0,,0,,,60,127
42323,note_on,1,0,0,,2,,,62,127
42437,note_off,114,0,0,,2,,,62,127
42437,note_off,0,0,0,,12,,,71,127
42438,note_on,1,0,0,,0,,,60,127
42438,note_on,0,0,0,,10,,,69,127
42552,note_off,114,0,0,,0,,,60,127
42553,note_on,1,0,0,,2,,,50,127
42667,note_off,114,0,0,,2,,,50,127
42668,note_on,1,0,0,,4,,,52,127
42782,note_off,114,0,0,,4,,,52,127
42783,note_on,1,0,0,,6,,,54,127
42897,note_off,114,0,0,,6,,,54,127
42897,note_off,0,0,0,,7,,,79,127
42898,note_on,1,0,0,,7,,,55,127
42898,note_on,0,0,0,,6,,,78,127
43012,note_off,114,0,0,,7,,,55,127
43013,note_on,1,0,0,,10,,,57,127
43127,note_off,114,0,0,,10,,,57,127
43127,note_off,0,0,0,,10,,,69,127
43128,note_on,1,0,0,,12,,,59,127
43242,note_off,114,0,0,,12,,,59,127
43243,note_on,1,0,0,,0,,,60,127
43357,note_off,114,0,0,,0,,,60,127
43357,note_off,0,0,0,,6,,,78,127
43358,note_on,1,0,0,,12,,,59,127
43358,note_on,0,0,0,,7,,,79,127
43472,note_off,114,0,0,,7,,,79,127
43473,note_on,1,0,0,,6,,,78,127
43587,note_off,114,0,0,,6,,,78,127
43588,note_on,1,0,0,,4,,,76,127
43702,note_off,114,0,0,,4,,,76,127
43703,note_on,1,0,0,,2,,,74,127
43817,note_off,114,0,0,,2,,,74,127
43817,note_off,0,0,0,,12,,,59,127
43818,note_on,1,0,0,,7,,,55,127
43818,note_on,0,0,0,,0,,,72,127
43932,note_off,114,0,0,,0,,,72,127
43933,note_on,1,0,0,,12,,,71,127
44047,note_off,114,0,0,,12,,,71,127
44048,note_on,1,0,0,,0,,,72,127
44162,note_off,114,0,0,,0,,,72,127
44163,note_on,1,0,0,,2,,,74,127
44277,note_off,114,0,0,,2,,,74,127
44277,note_off,0,0,0,,7,,,55,127
44278,note_on,1,0,0,,0,,,60,127
44278,note_on,0,0,0,,4,,,76,127
44392,note_off,114,0,0,,4,,,76,127
44393,note_on,1,0,0,,2,,,74,127
44507,note_off,114,0,0,,2,,,74,127
44508,note_on,1,0,0,,0,,,72,127
44622,note_off,114,0,0,,0,,,72,127
44623,note_on,1,0,0,,12,,,71,127
44737,note_off,114,0,0,,12,,,71,127
44738,note_on,1,0,0,,0,,,48,127
44738,note_on,0,0,0,,10,,,69,127
44852,note_off,114,0,0,,10,,,69,127
44853,note_on,1,0,0,,7,,,67,127
44967,note_off,114,0,0,,7,,,67,127
44968,note_on,1,0,0,,6,,,66,127
45082,note_off,114,0,0,,6,,,66,127
45083,note_on,1,0,0,,4,,,64,127
45181,note_off,98,0,0,,0,,,48,127
45188,note_off,7,0,0,,0,,,60,127
45196,note_off,8,0,0,,4,,,64,127
45197,note_on,1,0,0,,2,,,62,127
45312,note_on,115,0,0,,2,,,50,127
45426,note_off,114,0,0,,2,,,50,127
45427,note_on,1,0,0,,4,,,52,127
45541,note_off,114,0,0,,4,,,52,127
45542,note_on,1,0,0,,6,,,54,127
45656,note_off,114,0,0,,6,,,54,127
45657,note_on,1,0,0,,7,,,55,127
45771,note_off,114,0,0,,7,,,55,127
45772,note_on,1,0,0,,10,,,57,127
45886,note_off,114,0,0,,10,,,57,127
45887,note_on,1,0,0,,12,,,59,127
46001,note_off,114,0,0,,12,,,59,127
46002,note_on,1,0,0,,0,,,60,127
46116,note_off,114,0,0,,0,,,60,127
46117,note_on,1,0,0,,4,,,64,127
46346,note_off,229,0,0,,4,,,64,127
46346,note_off,0,0,0,,2,,,62,127
46347,note_on,1,0,0,,2,,,62,127
46347,note_on,0,0,0,,7,,,67,127
46576,note_off,229,0,0,,7,,,67,127
46576,note_off,0,0,0,,2,,,62,127
46577,note_on,1,0,0,,2,,,62,127
46577,note_on,0,0,0,,10,,,69,127
46692,note_off,115,0,0,,10,,,69,127
46692,note_on,0,0,0,,7,,,67,127
46806,note_off,114,0,0,,2,,,62,127
46807,note_off,1,0,0,,7,,,67,127
46807,note_on,0,0,0,,0,,,60,127
46807,note_on,0,0,0,,6,,,66,127
47036,note_off,229,0,0,,6,,,66,127
47036,note_off,0,0,0,,0,,,60,127
47037,note_on,1,0,0,,12,,,59,127
47037,note_on,0,0,0,,6,,,66,127
47151,note_off,114,0,0,,6,,,66,127
47152,note_on,1,0,0,,7,,,67,127
47266,note_off,114,0,0,,7,,,67,127
47267,note_on,1,0,0,,10,,,69,127
47381,note_off,114,0,0,,10,,,69,127
47382,note_on,1,0,0,,12,,,71,127
47496,note_off,114,0,0,,12,,,71,127
47496,note_off,0,0,0,,12,,,59,127
47497,note_on,1,0,0,,0,,,60,127
47497,note_on,0,0,0,,2,,,74,127
47611,note_off,114,0,0,,2,,,74,127
47612,note_on,1,0,0,,0,,,72,127
47726,note_off,114,0,0,,0,,,72,127
47727,note_on,1,0,0,,12,,,71,127
47841,note_off,114,0,0,,12,,,71,127
47842,note_on,1,0,0,,10,,,69,127
47956,note_off,114,0,0,,10,,,69,127
47956,note_off,0,0,0,,0,,,60,127
47957,note_on,1,0,0,,2,,,62,127
47957,note_on,0,0,0,,7,,,67,127
48034,note_off,77,0,0,,7,,,67,127
48034,note_on,0,0,0,,10,,,69,127
48111,note_off,77,0,0,,10,,,69,127
48111,note_on,0,0,0,,7,,,67,127
48188,note_off,77,0,0,,7,,,67,127
48188,note_on,0,0,0,,6,,,66,127
48265,note_off,77,0,0,,6,,,66,127
48265,note_on,0,0,0,,7,,,67,127
48342,note_off,77,0,0,,7,,,67,127
48342,note_on,0,0,0,,10,,,69,127
48419,note_off,77,0,0,,10,,,69,127
48419,note_on,0,0,0,,2,,,50,127
48419,note_on,0,0,0,,12,,,71,127
48496,note_off,77,0,0,,12,,,71,127
48496,note_on,0,0,0,,10,,,69,127
48573,note_off,77,0,0,,10,,,69,127
48573,note_on,0,0,0,,12,,,71,127
48650,note_off,77,0,0,,12,,,71,127
48650,note_on,0,0,0,,10,,,69,127
48727,note_off,77,0,0,,10,,,69,127
48727,note_on,0,0,0,,7,,,67,127
48804,note_off,77,0,0,,7,,,67,127
48804,note_on,0,0,0,,10,,,69,127
48880,note_off,76,0,0,,2,,,50,127
48880,note_off,0,0,0,,2,,,62,127
48881,note_off,1,0,0,,10,,,69,127
48881,note_on,0,0,0,,7,,,55,127
48881,note_on,0,0,0,,7,,,43,127
48881,note_on,0,0,0,,7,,,67,127
48995,note_off,114,0,0,,7,,,67,127
48996,note_on,1,0,0,,2,,,62,127
49110,note_off,114,0,0,,2,,,62,127
49111,note_on,1,0,0,,4,,,64,127
49225,note_off,114,0,0,,4,,,64,127
49226,note_on,1,0,0,,6,,,66,127
49340,note_off,114,0,0,,6,,,66,127
49341,note_on,1,0,0,,7,,,67,127
49408,note_off,67,0,0,,7,,,43,127
49408,note_off,0,0,0,,7,,,55,127
49455,note_off,47,0,0,,7,,,67,127
49456,note_on,1,0,0,,10,,,69,127
49570,note_off,114,0,0,,10,,,69,127
49571,note_on,1,0,0,,12,,,71,127
49685,note_off,114,0,0,,12,,,71,127
49686,note_on,1,0,0,,0,,,72,127
49800,note_off,114,0,0,,0,,,72,127
49801,note_on,1,0,0,,4,,,76,127
50030,note_off,229,0,0,,4,,,76,127
50031,note_on,1,0,0,,0,,,72,127
50261,note_on,230,0,0,,6,,,54,127
50261,note_on,0,0,0,,10,,,57,127
50261,note_on,0,0,0,,2,,,62,127
50261,note_on,0,0,0,,0,,,60,127
50490,note_off,229,0,0,,0,,,72,127
50491,note_on,1,0,0,,10,,,69,127
50720,note_off,229,0,0,,10,,,69,127
50720,note_off,0,0,0,,0,,,60,127
50720,note_off,0,0,0,,2,,,62,127
50720,note_off,0,0,0,,10,,,57,127
50720,note_off,0,0,0,,6,,,54,127
50721,note_on,1,0,0,,7,,,55,127
50721,note_on,0,0,0,,2,,,62,127
50721,note_on,0,0,0,,12,,,59,127
50721,note_on,0,0,0,,12,,,71,127
50834,note_off,113,0,0,,2,,,62,127
50835,note_off,1,0,0,,12,,,71,127
50836,note_on,1,0,0,,2,,,62,127
50951,note_on,115,0,0,,4,,,64,127
51065,note_off,114,0,0,,4,,,64,127
51065,note_off,0,0,0,,2,,,62,127
51066,note_on,1,0,0,,6,,,66,127
51180,note_off,114,0,0,,6,,,66,127
51181,note_off,1,0,0,,12,,,59,127
51181,note_off,0,0,0,,7,,,55,127
51181,note_on,0,0,0,,7,,,67,127
51295,note_off,114,0,0,,7,,,67,127
51296,note_on,1,0,0,,10,,,69,127
51410,note_off,114,0,0,,10,,,69,127
51411,note_on,1,0,0,,12,,,71,127
51525,note_off,114,0,0,,12,,,71,127
51526,note_on,1,0,0,,0,,,72,127
51640,note_off,114,0,0,,0,,,72,127
51641,note_on,1,0,0,,4,,,76,127
51870,note_off,229,0,0,,4,,,76,127
51871,note_on,1,0,0,,0,,,72,127
52101,note_on,230,0,0,,6,,,54,127
52101,note_on,0,0,0,,10,,,57,127
52101,note_on,0,0,0,,0,,,60,127
52101,note_on,0,0,0,,2,,,62,127
52330,note_off,229,0,0,,0,,,72,127
52331,note_on,1,0,0,,10,,,69,127
52560,note_off,229,0,0,,10,,,69,127
52561,note_off,1,0,0,,2,,,62,127
52561,note_off,0,0,0,,0,,,60,127
52561,note_off,0,0,0,,10,,,57,127
52561,note_off,0,0,0,,6,,,54,127
52561,note_on,0,0,0,,12,,,71,127
52676,note_on,115,0,0,,7,,,55,127
52790,note_off,114,0,0,,7,,,55,127
52791,note_off,1,0,0,,12,,,71,127
52791,note_on,0,0,0,,10,,,57,127
52905,note_off,114,0,0,,10,,,57,127
52906,note_on,1,0,0,,12,,,59,127
53020,note_off,114,0,0,,12,,,59,127
53021,note_on,1,0,0,,0,,,60,127
53135,note_off,114,0,0,,0,,,60,127
53136,note_on,1,0,0,,2,,,62,127
53250,note_off,114,0,0,,2,,,62,127
53251,note_on,1,0,0,,4,,,64,127
53365,note_off,114,0,0,,4,,,64,127
53366,note_on,1,0,0,,6,,,66,127
53480,note_off,114,0,0,,6,,,66,127
53481,note_on,1,0,0,,10,,,69,127
53710,note_off,229,0,0,,10,,,69,127
53711,note_on,1,0,0,,6,,,66,127
53941,note_on,230,0,0,,0,,,72,127
53941,note_on,0,0,0,,10,,,81,127
54170,note_off,229,0,0,,6,,,66,127
54171,note_on,1,0,0,,0,,,60,127
54399,note_off,228,0,0,,0,,,60,127
54400,note_off,1,0,0,,10,,,81,127
54400,note_off,0,0,0,,0,,,72,127
54401,note_on,1,0,0,,12,,,71,127
54401,note_on,0,0,0,,7,,,79,127
54516,note_on,115,0,0,,7,,,55,127
54630,note_off,114,0,0,,7,,,55,127
54631,note_off,1,0,0,,12,,,71,127
54631,note_on,0,0,0,,10,,,57,127
54745,note_off,114,0,0,,10,,,57,127
54746,note_on,1,0,0,,12,,,59,127
54860,note_off,114,0,0,,12,,,59,127
54861,note_off,1,0,0,,7,,,79,127
54861,note_on,0,0,0,,0,,,60,127
54975,note_off,114,0,0,,0,,,60,127
54976,note_on,1,0,0,,2,,,62,127
55090,note_off,114,0,0,,2,,,62,127
55091,note_on,1,0,0,,4,,,64,127
55205,note_off,114,0,0,,4,,,64,127
55206,note_on,1,0,0,,6,,,66,127
55320,note_off,114,0,0,,6,,,66,127
55321,note_on,1,0,0,,10,,,69,127
55550,note_off,229,0,0,,10,,,69,127
55551,note_on,1,0,0,,6,,,66,127
55781,note_on,230,0,0,,0,,,72,127
55781,note_on,0,0,0,,10,,,81,127
56010,note_off,229,0,0,,6,,,66,127
56011,note_on,1,0,0,,0,,,60,127
56240,note_off,229,0,0,,0,,,60,127
56240,note_off,0,0,0,,10,,,81,127
56240,note_off,0,0,0,,0,,,72,127
56241,note_on,1,0,0,,12,,,59,127
56241,note_on,0,0,0,,7,,,79,127
56355,note_off,114,0,0,,7,,,79,127
56356,note_on,1,0,0,,6,,,78,127
56470,note_off,114,0,0,,6,,,78,127
56471,note_on,1,0,0,,4,,,76,127
56585,note_off,114,0,0,,4,,,76,127
56586,note_on,1,0,0,,2,,,74,127
56700,note_off,114,0,0,,2,,,74,127
56700,note_off,0,0,0,,12,,,59,127
56701,note_on,1,0,0,,7,,,55,127
56701,note_on,0,0,0,,0,,,72,127
56815,note_off,114,0,0,,0,,,72,127
56816,note_on,1,0,0,,12,,,71,127
56930,note_off,114,0,0,,12,,,71,127
56931,note_on,1,0,0,,0,,,72,127
57045,note_off,114,0,0,,0,,,72,127
57046,note_on,1,0,0,,2,,,74,127
57160,note_off,114,0,0,,2,,,74,127
57160,note_off,0,0,0,,7,,,55,127
57161,note_on,1,0,0,,0,,,60,127
57161,note_on,0,0,0,,4,,,76,127
57275,note_off,114,0,0,,4,,,76,127
57276,note_on,1,0,0,,2,,,74,127
57390,note_off,114,0,0,,2,,,74,127
57391,note_on,1,0,0,,0,,,72,127
57505,note_off,114,0,0,,0,,,72,127
57506,note_on,1,0,0,,12,,,71,127
57620,note_off,114,0,0,,12,,,71,127
57621,note_on,1,0,0,,0,,,48,127
57621,note_on,0,0,0,,10,,,69,127
57735,note_off,114,0,0,,10,,,69,127
57736,note_on,1,0,0,,7,,,67,127
57850,note_off,114,0,0,,7,,,67,127
57851,note_on,1,0,0,,6,,,66,127
57965,note_off,114,0,0,,6,,,66,127
57966,note_on,1,0,0,,4,,,64,127
58072,note_off,106,0,0,,0,,,48,127
58072,note_off,0,0,0,,0,,,60,127
58080,note_off,8,0,0,,4,,,64,127
58081,note_on,1,0,0,,2,,,62,127
58196,note_on,115,0,0,,2,,,50,127
58310,note_off,114,0,0,,2,,,50,127
58311,note_off,1,0,0,,2,,,62,127
58311,note_on,0,0,0,,4,,,52,127
58425,note_off,114,0,0,,4,,,52,127
58426,note_on,1,0,0,,6,,,54,127
58540,note_off,114,0,0,,6,,,54,127
58541,note_on,1,0,0,,7,,,55,127
58655,note_off,114,0,0,,7,,,55,127
58656,note_on,1,0,0,,10,,,57,127
58770,note_off,114,0,0,,10,,,57,127
58771,note_on,1,0,0,,12,,,59,127
58885,note_off,114,0,0,,12,,,59,127
58886,note_on,1,0,0,,0,,,60,127
59000,note_off,114,0,0,,0,,,60,127
59001,note_on,1,0,0,,4,,,64,127
59230,note_off,229,0,0,,4,,,64,127
59231,note_on,1,0,0,,2,,,62,127
59231,note_on,0,0,0,,7,,,67,127
59460,note_off,229,0,0,,7,,,67,127
59460,note_off,0,0,0,,2,,,62,127
59461,note_on,1,0,0,,2,,,62,127
59461,note_on,0,0,0,,10,,,69,127
59576,note_off,115,0,0,,10,,,69,127
59576,note_on,0,0,0,,7,,,67,127
59690,note_off,114,0,0,,2,,,62,127
59691,note_off,1,0,0,,7,,,67,127
59691,note_on,0,0,0,,0,,,60,127
59691,note_on,0,0,0,,6,,,66,127
59920,note_off,229,0,0,,0,,,60,127
59921,note_on,1,0,0,,12,,,59,127
60036,note_off,115,0,0,,6,,,66,127
60036,note_on,0,0,0,,7,,,67,127
60150,note_off,114,0,0,,7,,,67,127
60151,note_on,1,0,0,,10,,,69,127
60265,note_off,114,0,0,,10,,,69,127
60266,note_on,1,0,0,,12,,,71,127
60380,note_off,114,0,0,,12,,,71,127
60380,note_off,0,0,0,,12,,,59,127
60381,note_on,1,0,0,,0,,,60,127
60381,note_on,0,0,0,,4,,,64,127
60381,note_on,0,0,0,,2,,,74,127
60495,note_off,114,0,0,,2,,,74,127
60496,note_on,1,0,0,,0,,,72,127
60610,note_off,114,0,0,,0,,,72,127
60611,note_on,1,0,0,,12,,,71,127
60725,note_off,114,0,0,,12,,,71,127
60726,note_on,1,0,0,,10,,,69,127
60840,note_off,114,0,0,,10,,,69,127
60840,note_off,0,0,0,,4,,,64,127
60840,note_off,0,0,0,,0,,,60,127
60841,note_on,1,0,0,,2,,,50,127
60841,note_on,0,0,0,,12,,,59,127
60841,note_on,0,0,0,,7,,,55,127
60841,note_on,0,0,0,,7,,,67,127
60918,note_off,77,0,0,,7,,,67,127
60918,note_on,0,0,0,,10,,,69,127
60995,note_off,77,0,0,,10,,,69,127
60995,note_on,0,0,0,,7,,,67,127
61072,note_off,77,0,0,,7,,,67,127
61072,note_on,0,0,0,,6,,,66,127
61149,note_off,77,0,0,,6,,,66,127
61149,note_on,0,0,0,,7,,,67,127
61226,note_off,77,0,0,,7,,,67,127
61226,note_on,0,0,0,,10,,,69,127
61302,note_off,76,0,0,,7,,,55,127
61302,note_off,0,0,0,,12,,,59,127
61303,note_off,1,0,0,,10,,,69,127
61303,note_on,0,0,0,,10,,,57,127
61303,note_on,0,0,0,,0,,,60,127
61303,note_on,0,0,0,,12,,,71,127
61380,note_off,77,0,0,,12,,,71,127
61380,note_on,0,0,0,,10,,,69,127
61457,note_off,77,0,0,,10,,,69,127
61457,note_on,0,0,0,,12,,,71,127
61534,note_off,77,0,0,,12,,,71,127
61534,note_on,0,0,0,,10,,,69,127
61611,note_off,77,0,0,,10,,,69,127
61611,note_on,0,0,0,,7,,,67,127
61688,note_off,77,0,0,,7,,,67,127
61688,note_on,0,0,0,,10,,,69,127
61764,note_off,76,0,0,,0,,,60,127
61764,note_off,0,0,0,,10,,,57,127
61765,note_off,1,0,0,,10,,,69,127
61765,note_off,0,0,0,,2,,,50,127
61765,note_on,0,0,0,,7,,,55,127
61765,note_on,0,0,0,,7,,,43,127
61765,note_on,0,0,0,,7,,,67,127
61880,note_on,115,0,0,,2,,,62,127
61993,note_off,113,0,0,,7,,,67,127
61994,note_off,1,0,0,,2,,,62,127
61995,note_on,1,0,0,,7,,,67,127
62109,note_off,114,0,0,,7,,,67,127
62110,note_on,1,0,0,,10,,,69,127
62224,note_off,114,0,0,,10,,,69,127
62225,note_on,1,0,0,,12,,,71,127
62339,note_off,114,0,0,,12,,,71,127
62340,note_on,1,0,0,,7,,,67,127
62454,note_off,114,0,0,,7,,,67,127
62455,note_on,1,0,0,,10,,,69,127
62569,note_off,114,0,0,,10,,,69,127
62570,note_on,1,0,0,,6,,,66,127
62684,note_off,114,0,0,,6,,,66,127
62684,note_off,0,0,0,,7,,,43,127
62684,note_off,0,0,0,,7,,,55,127
62685,note_on,1,0,0,,7,,,67,127
62800,note_on,115,0,0,,2,,,62,127
62913,note_off,113,0,0,,7,,,67,127
62914,note_off,1,0,0,,2,,,62,127
62915,note_on,1,0,0,,12,,,71,127
63029,note_off,114,0,0,,12,,,71,127
63030,note_on,1,0,0,,0,,,72,127
63144,note_off,114,0,0,,0,,,72,127
63145,note_on,1,0,0,,2,,,38,127
63145,note_on,0,0,0,,2,,,50,127
63145,note_on,0,0,0,,2,,,74,127
63259,note_off,114,0,0,,2,,,74,127
63260,note_on,1,0,0,,12,,,71,127
63374,note_off,114,0,0,,12,,,71,127
63375,note_on,1,0,0,,0,,,72,127
63489,note_off,114,0,0,,0,,,72,127
63490,note_on,1,0,0,,10,,,69,127
63604,note_off,114,0,0,,10,,,69,127
63604,note_off,0,0,0,,2,,,50,127
63604,note_off,0,0,0,,2,,,38,127
63605,note_on,1,0,0,,7,,,43,127
63605,note_on,0,0,0,,7,,,55,127
63605,note_on,0,0,0,,12,,,71,127
63720,note_on,115,0,0,,2,,,62,127
63833,note_off,113,0,0,,12,,,71,127
63834,note_off,1,0,0,,2,,,62,127
63835,note_on,1,0,0,,7,,,67,127
63949,note_off,114,0,0,,7,,,67,127
63950,note_on,1,0,0,,10,,,69,127
64064,note_off,114,0,0,,10,,,69,127
64065,note_on,1,0,0,,12,,,71,127
64179,note_off,114,0,0,,12,,,71,127
64180,note_on,1,0,0,,7,,,67,127
64294,note_off,114,0,0,,7,,,67,127
64295,note_on,1,0,0,,10,,,69,127
64409,note_off,114,0,0,,10,,,69,127
64410,note_on,1,0,0,,6,,,66,127
64524,note_off,114,0,0,,6,,,66,127
64525,note_on,1,0,0,,7,,,67,127
64640,note_on,115,0,0,,2,,,62,127
64753,note_off,113,0,0,,7,,,67,127
64754,note_off,1,0,0,,2,,,62,127
64755,note_on,1,0,0,,12,,,71,127
64869,note_off,114,0,0,,12,,,71,127
64870,note_on,1,0,0,,0,,,72,127
64875,note_off,5,0,0,,7,,,55,127
64875,note_off,0,0,0,,7,,,43,127
64984,note_off,109,0,0,,0,,,72,127
64985,note_on,1,0,0,,2,,,38,127
64985,note_on,0,0,0,,2,,,50,127
64985,note_on,0,0,0,,2,,,74,127
65099,note_off,114,0,0,,2,,,74,127
65100,note_on,1,0,0,,12,,,71,127
65214,note_off,114,0,0,,12,,,71,127
65215,note_on,1,0,0,,0,,,72,127
65329,note_off,114,0,0,,0,,,72,127
65330,note_on,1,0,0,,10,,,69,127
65444,note_off,114,0,0,,10,,,69,127
65444,note_off,0,0,0,,2,,,50,127
65444,note_off,0,0,0,,2,,,38,127
65445,note_on,1,0,0,,7,,,55,127
65445,note_on,0,0,0,,12,,,71,127
65559,note_off,114,0,0,,12,,,71,127
65560,note_on,1,0,0,,7,,,67,127
65674,note_off,114,0,0,,7,,,67,127
65675,note_on,1,0,0,,2,,,74,127
65789,note_off,114,0,0,,2,,,74,127
65790,note_on,1,0,0,,12,,,71,127
65904,note_off,114,0,0,,12,,,71,127
65904,note_off,0,0,0,,7,,,55,127
65905,note_on,1,0,0,,0,,,48,127
65905,note_on,0,0,0,,4,,,76,127
66019,note_off,114,0,0,,4,,,76,127
66020,note_on,1,0,0,,0,,,72,127
66134,note_off,114,0,0,,0,,,72,127
66135,note_on,1,0,0,,7,,,79,127
66249,note_off,114,0,0,,7,,,79,127
66250,note_on,1,0,0,,7,,,67,127
66364,note_off,114,0,0,,7,,,67,127
66364,note_off,0,0,0,,0,,,48,127
66365,note_on,1,0,0,,2,,,50,127
66365,note_on,0,0,0,,7,,,67,127
66825,note_off,460,0,0,,7,,,67,127
66826,note_on,1,0,0,,2,,,38,127
66826,note_on,0,0,0,,12,,,71,127
66903,note_off,77,0,0,,12,,,71,127
66903,note_on,0,0,0,,10,,,69,127
66980,note_off,77,0,0,,10,,,69,127
66980,note_on,0,0,0,,12,,,71,127
67057,note_off,77,0,0,,12,,,71,127
67057,note_on,0,0,0,,10,,,69,127
67134,note_off,77,0,0,,10,,,69,127
67134,note_on,0,0,0,,7,,,67,127
67211,note_off,77,0,0,,7,,,67,127
67211,note_on,0,0,0,,10,,,69,127
67278,note_off,67,0,0,,2,,,38,127
67278,note_off,0,0,0,,2,,,50,127
67288,note_off,10,0,0,,10,,,69,127
67288,note_on,0,0,0,,7,,,43,127
67288,note_on,0,0,0,,7,,,67,127
67517,note_off,229,0,0,,7,,,43,127
67518,note_on,1,0,0,,7,,,55,127
67632,note_off,114,0,0,,7,,,55,127
67633,note_on,1,0,0,,10,,,57,127
67747,note_off,114,0,0,,10,,,57,127
67748,note_on,1,0,0,,12,,,59,127
67862,note_off,114,0,0,,12,,,59,127
67863,note_on,1,0,0,,7,,,55,127
67977,note_off,114,0,0,,7,,,55,127
67978,note_on,1,0,0,,10,,,57,127
68092,note_off,114,0,0,,10,,,57,127
68093,note_on,1,0,0,,6,,,54,127
68207,note_off,114,0,0,,6,,,54,127
68208,note_on,1,0,0,,7,,,55,127
68322,note_off,114,0,0,,7,,,55,127
68323,note_on,1,0,0,,2,,,50,127
68437,note_off,114,0,0,,2,,,50,127
68438,note_on,1,0,0,,12,,,59,127
68552,note_off,114,0,0,,12,,,59,127
68553,note_on,1,0,0,,0,,,60,127
68667,note_off,114,0,0,,0,,,60,127
68667,note_off,0,0,0,,7,,,67,127
68668,note_on,1,0,0,,6,,,66,127
68668,note_on,0,0,0,,2,,,62,127
68668,note_on,0,0,0,,10,,,69,127
68783,note_on,115,0,0,,12,,,59,127
68897,note_off,114,0,0,,12,,,59,127
68898,note_on,1,0,0,,0,,,60,127
69012,note_off,114,0,0,,0,,,60,127
69013,note_on,1,0,0,,10,,,57,127
69127,note_off,114,0,0,,10,,,57,127
69127,note_off,0,0,0,,10,,,69,127
69127,note_off,0,0,0,,2,,,62,127
69127,note_off,0,0,0,,6,,,66,127
69128,note_on,1,0,0,,12,,,59,127
69128,note_on,0,0,0,,7,,,67,127
69128,note_on,0,0,0,,2,,,62,127
69128,note_on,0,0,0,,12,,,71,127
69242,note_off,114,0,0,,12,,,59,127
69243,note_on,1,0,0,,2,,,50,127
69357,note_off,114,0,0,,2,,,50,127
69358,note_on,1,0,0,,7,,,55,127
69472,note_off,114,0,0,,7,,,55,127
69473,note_on,1,0,0,,10,,,57,127
69587,note_off,114,0,0,,10,,,57,127
69588,note_on,1,0,0,,12,,,59,127
69702,note_off,114,0,0,,12,,,59,127
69703,note_on,1,0,0,,7,,,55,127
69817,note_off,114,0,0,,7,,,55,127
69818,note_on,1,0,0,,10,,,57,127
69932,note_off,114,0,0,,10,,,57,127
69933,note_on,1,0,0,,6,,,54,127
70047,note_off,114,0,0,,6,,,54,127
70048,note_on,1,0,0,,7,,,55,127
70162,note_off,114,0,0,,7,,,55,127
70163,note_on,1,0,0,,2,,,50,127
70277,note_off,114,0,0,,2,,,50,127
70278,note_on,1,0,0,,12,,,59,127
70392,note_off,114,0,0,,12,,,59,127
70393,note_on,1,0,0,,0,,,60,127
70507,note_off,114,0,0,,0,,,60,127
70507,note_off,0,0,0,,12,,,71,127
70507,note_off,0,0,0,,2,,,62,127
70507,note_off,0,0,0,,7,,,67,127
70508,note_on,1,0,0,,2,,,62,127
70508,note_on,0,0,0,,6,,,66,127
70508,note_on,0,0,0,,10,,,69,127
70622,note_off,114,0,0,,2,,,62,127
70623,note_on,1,0,0,,12,,,59,127
70737,note_off,114,0,0,,12,,,59,127
70738,note_on,1,0,0,,0,,,60,127
70852,note_off,114,0,0,,0,,,60,127
70853,note_on,1,0,0,,10,,,57,127
70967,note_off,114,0,0,,10,,,57,127
70967,note_off,0,0,0,,10,,,69,127
70967,note_off,0,0,0,,6,,,66,127
70968,note_on,1,0,0,,12,,,59,127
70968,note_on,0,0,0,,2,,,62,127
70968,note_on,0,0,0,,7,,,67,127
70968,note_on,0,0,0,,12,,,71,127
71082,note_off,114,0,0,,12,,,59,127
71083,note_on,1,0,0,,7,,,55,127
71197,note_off,114,0,0,,7,,,55,127
71198,note_on,1,0,0,,10,,,57,127
71312,note_off,114,0,0,,10,,,57,127
71313,note_on,1,0,0,,6,,,54,127
71427,note_off,114,0,0,,6,,,54,127
71428,note_on,1,0,0,,7,,,55,127
71542,note_off,114,0,0,,7,,,55,127
71543,note_on,1,0,0,,2,,,50,127
71657,note_off,114,0,0,,2,,,50,127
71658,note_on,1,0,0,,12,,,47,127
71772,note_off,114,0,0,,12,,,47,127
71773,note_on,1,0,0,,7,,,43,127
71887,note_off,114,0,0,,7,,,43,127
71887,note_off,0,0,0,,2,,,62,127
71888,note_off,1,0,0,,12,,,71,127
71888,note_off,0,0,0,,7,,,67,127
71888,note_on,0,0,0,,2,,,38,127
72349,note_on,461,0,0,,6,,,66,127
72349,note_on,0,0,0,,2,,,62,127
72349,note_on,0,0,0,,10,,,69,127
72349,note_on,0,0,0,,0,,,72,127
72809,note_off,460,0,0,,0,,,72,127
72809,note_off,0,0,0,,10,,,69,127
72809,note_off,0,0,0,,2,,,62,127
72809,note_off,0,0,0,,6,,,66,127
72809,note_off,0,0,0,,2,,,38,127
72810,note_on,1,0,0,,7,,,43,127
72810,note_on,0,0,0,,7,,,55,127
72810,note_on,0,0,0,,2,,,62,127
72810,note_on,0,0,0,,7,,,67,127
72810,note_on,0,0,0,,12,,,71,127
73698,note_off,888,0,0,,12,,,71,127
73729,note_off,31,0,0,,7,,,67,127
73730,note_off,1,0,0,,2,,,62,127
73730,note_off,0,0,0,,7,,,55,127
73730,note_off,0,0,0,,7,,,43,127
73731,note_on,1,0,0,,7,,,55,127
73731,note_on,0,0,0,,2,,,62,127
73961,note_on,230,0,0,,12,,,71,127
74075,note_off,114,0,0,,12,,,71,127
74076,note_on,1,0,0,,0,,,72,127
74190,note_off,114,0,0,,0,,,72,127
74191,note_on,1,0,0,,2,,,74,127
74305,note_off,114,0,0,,2,,,74,127
74306,note_on,1,0,0,,12,,,71,127
74420,note_off,114,0,0,,12,,,71,127
74421,note_on,1,0,0,,0,,,72,127
74535,note_off,114,0,0,,0,,,72,127
74536,note_on,1,0,0,,10,,,69,127
74650,note_off,114,0,0,,10,,,69,127
74651,note_on,1,0,0,,12,,,71,127
74766,note_on,115,0,0,,7,,,67,127
74879,note_off,113,0,0,,12,,,71,127
74880,note_off,1,0,0,,7,,,67,127
74881,note_on,1,0,0,,12,,,71,127
74995,note_off,114,0,0,,12,,,71,127
74996,note_on,1,0,0,,0,,,72,127
75110,note_off,114,0,0,,0,,,72,127
75110,note_off,0,0,0,,2,,,62,127
75110,note_off,0,0,0,,7,,,55,127
75111,note_on,1,0,0,,7,,,55,127
75111,note_on,0,0,0,,2,,,62,127
75111,note_on,0,0,0,,2,,,74,127
75225,note_off,114,0,0,,2,,,74,127
75226,note_on,1,0,0,,12,,,71,127
75340,note_off,114,0,0,,12,,,71,127
75341,note_on,1,0,0,,0,,,72,127
75455,note_off,114,0,0,,0,,,72,127
75456,note_on,1,0,0,,10,,,69,127
75570,note_off,114,0,0,,10,,,69,127
75570,note_off,0,0,0,,2,,,62,127
75570,note_off,0,0,0,,7,,,55,127
75571,note_on,1,0,0,,2,,,62,127
75571,note_on,0,0,0,,5,,,53,127
75571,note_on,0,0,0,,12,,,71,127
75686,note_on,115,0,0,,7,,,67,127
75799,note_off,113,0,0,,12,,,71,127
75800,note_off,1,0,0,,7,,,67,127
75801,note_on,1,0,0,,2,,,74,127
75915,note_off,114,0,0,,2,,,74,127
75916,note_on,1,0,0,,4,,,76,127
76030,note_off,114,0,0,,4,,,76,127
76031,note_on,1,0,0,,5,,,77,127
76145,note_off,114,0,0,,5,,,77,127
76146,note_on,1,0,0,,2,,,74,127
76260,note_off,114,0,0,,2,,,74,127
76261,note_on,1,0,0,,4,,,76,127
76375,note_off,114,0,0,,4,,,76,127
76376,note_on,1,0,0,,0,,,72,127
76490,note_off,114,0,0,,0,,,72,127
76491,note_on,1,0,0,,2,,,74,127
76605,note_off,114,0,0,,2,,,74,127
76606,note_on,1,0,0,,12,,,71,127
76720,note_off,114,0,0,,12,,,71,127
76721,note_on,1,0,0,,0,,,72,127
76835,note_off,114,0,0,,0,,,72,127
76836,note_on,1,0,0,,10,,,69,127
76950,note_off,114,0,0,,10,,,69,127
76950,note_off,0,0,0,,5,,,53,127
76950,note_off,0,0,0,,2,,,62,127
76951,note_on,1,0,0,,5,,,53,127
76951,note_on,0,0,0,,2,,,62,127
76951,note_on,0,0,0,,12,,,71,127
77065,note_off,114,0,0,,12,,,71,127
77066,note_on,1,0,0,,8,,,68,127
77180,note_off,114,0,0,,8,,,68,127
77181,note_on,1,0,0,,10,,,69,127
77295,note_off,114,0,0,,10,,,69,127
77296,note_on,1,0,0,,6,,,66,127
77410,note_off,114,0,0,,6,,,66,127
77410,note_off,0,0,0,,2,,,62,127
77410,note_off,0,0,0,,5,,,53,127
77411,note_on,1,0,0,,4,,,52,127
77411,note_on,0,0,0,,2,,,62,127
77411,note_on,0,0,0,,8,,,68,127
77526,note_on,115,0,0,,4,,,64,127
77639,note_off,113,0,0,,8,,,68,127
77640,note_off,1,0,0,,4,,,64,127
77641,note_on,1,0,0,,12,,,71,127
77755,note_off,114,0,0,,12,,,71,127
77756,note_on,1,0,0,,0,,,72,127
77870,note_off,114,0,0,,0,,,72,127
77871,note_on,1,0,0,,2,,,74,127
77985,note_off,114,0,0,,2,,,74,127
77986,note_on,1,0,0,,12,,,71,127
78100,note_off,114,0,0,,12,,,71,127
78101,note_on,1,0,0,,0,,,72,127
78215,note_off,114,0,0,,0,,,72,127
78216,note_on,1,0,0,,10,,,69,127
78330,note_off,114,0,0,,10,,,69,127
78331,note_on,1,0,0,,12,,,71,127
78446,note_on,115,0,0,,4,,,64,127
78559,note_off,113,0,0,,12,,,71,127
78560,note_off,1,0,0,,4,,,64,127
78561,note_on,1,0,0,,12,,,71,127
78675,note_off,114,0,0,,12,,,71,127
78676,note_on,1,0,0,,0,,,72,127
78790,note_off,114,0,0,,0,,,72,127
78790,note_off,0,0,0,,2,,,62,127
78790,note_off,0,0,0,,4,,,52,127
78791,note_on,1,0,0,,4,,,52,127
78791,note_on,0,0,0,,2,,,62,127
78791,note_on,0,0,0,,2,,,74,127
78905,note_off,114,0,0,,2,,,74,127
78906,note_on,1,0,0,,12,,,71,127
79020,note_off,114,0,0,,12,,,71,127
79021,note_on,1,0,0,,0,,,72,127
79135,note_off,114,0,0,,0,,,72,127
79136,note_on,1,0,0,,10,,,69,127
79250,note_off,114,0,0,,10,,,69,127
79250,note_off,0,0,0,,2,,,62,127
79250,note_off,0,0,0,,4,,,52,127
79251,note_on,1,0,0,,4,,,52,127
79251,note_on,0,0,0,,2,,,62,127
79251,note_on,0,0,0,,12,,,71,127
79366,note_on,115,0,0,,4,,,64,127
79479,note_off,113,0,0,,12,,,71,127
79480,note_off,1,0,0,,4,,,64,127
79481,note_on,1,0,0,,0,,,72,127
79595,note_off,114,0,0,,0,,,72,127
79596,note_on,1,0,0,,2,,,74,127
79710,note_off,114,0,0,,2,,,74,127
79710,note_off,0,0,0,,2,,,62,127
79710,note_off,0,0,0,,4,,,52,127
79711,note_on,1,0,0,,4,,,52,127
79711,note_on,0,0,0,,8,,,56,127
79711,note_on,0,0,0,,12,,,59,127
79711,note_on,0,0,0,,2,,,62,127
79711,note_on,0,0,0,,4,,,76,127
79825,note_off,114,0,0,,4,,,76,127
79826,note_on,1,0,0,,0,,,72,127
79940,note_off,114,0,0,,0,,,72,127
79941,note_on,1,0,0,,2,,,74,127
80055,note_off,114,0,0,,2,,,74,127
80056,note_on,1,0,0,,12,,,71,127
80170,note_off,114,0,0,,12,,,71,127
80170,note_off,0,0,0,,2,,,62,127
80170,note_off,0,0,0,,12,,,59,127
80170,note_off,0,0,0,,8,,,56,127
80170,note_off,0,0,0,,4,,,52,127
80171,note_on,1,0,0,,4,,,52,127
80171,note_on,0,0,0,,0,,,60,127
80171,note_on,0,0,0,,10,,,57,127
80171,note_on,0,0,0,,0,,,72,127
80286,note_on,115,0,0,,4,,,64,127
80399,note_off,113,0,0,,0,,,72,127
80400,note_off,1,0,0,,4,,,64,127
80401,note_on,1,0,0,,0,,,72,127
80515,note_off,114,0,0,,0,,,72,127
80516,note_on,1,0,0,,2,,,74,127
80630,note_off,114,0,0,,2,,,74,127
80630,note_off,0,0,0,,10,,,57,127
80630,note_off,0,0,0,,0,,,60,127
80630,note_off,0,0,0,,4,,,52,127
80631,note_on,1,0,0,,4,,,52,127
80631,note_on,0,0,0,,8,,,56,127
80631,note_on,0,0,0,,12,,,59,127
80631,note_on,0,0,0,,2,,,62,127
80631,note_on,0,0,0,,4,,,76,127
80745,note_off,114,0,0,,4,,,76,127
80746,note_on,1,0,0,,0,,,72,127
80860,note_off,114,0,0,,0,,,72,127
80861,note_on,1,0,0,,2,,,74,127
80975,note_off,114,0,0,,2,,,74,127
80976,note_on,1,0,0,,12,,,71,127
81090,note_off,114,0,0,,12,,,71,127
81090,note_off,0,0,0,,2,,,62,127
81090,note_off,0,0,0,,12,,,59,127
81090,note_off,0,0,0,,8,,,56,127
81090,note_off,0,0,0,,4,,,52,127
81091,note_on,1,0,0,,10,,,45,127
81091,note_on,0,0,0,,10,,,57,127
81091,note_on,0,0,0,,0,,,72,127
81320,note_off,229,0,0,,10,,,57,127
81320,note_off,0,0,0,,10,,,45,127
81321,note_on,1,0,0,,0,,,60,127
81435,note_off,114,0,0,,0,,,60,127
81436,note_on,1,0,0,,2,,,62,127
81550,note_off,114,0,0,,2,,,62,127
81551,note_on,1,0,0,,4,,,64,127
81665,note_off,114,0,0,,4,,,64,127
81666,note_on,1,0,0,,0,,,60,127
81780,note_off,114,0,0,,0,,,60,127
81780,note_off,0,0,0,,0,,,72,127
81781,note_on,1,0,0,,2,,,62,127
81781,note_on,0,0,0,,4,,,64,127
81781,note_on,0,0,0,,12,,,71,127
81781,note_on,0,0,0,,8,,,68,127
81895,note_off,114,0,0,,2,,,62,127
81896,note_on,1,0,0,,12,,,59,127
82010,note_off,114,0,0,,12,,,59,127
82010,note_off,0,0,0,,8,,,68,127
82010,note_off,0,0,0,,12,,,71,127
82010,note_off,0,0,0,,4,,,64,127
82011,note_on,1,0,0,,0,,,60,127
82011,note_on,0,0,0,,4,,,64,127
82011,note_on,0,0,0,,0,,,72,127
82011,note_on,0,0,0,,10,,,69,127
82125,note_off,114,0,0,,0,,,60,127
82126,note_on,1,0,0,,10,,,57,127
82240,note_off,114,0,0,,10,,,57,127
82241,note_on,1,0,0,,0,,,60,127
82355,note_off,114,0,0,,0,,,60,127
82356,note_on,1,0,0,,2,,,62,127
82466,note_off,110,0,0,,4,,,64,127
82470,note_off,4,0,0,,2,,,62,127
82471,note_on,1,0,0,,4,,,64,127
82585,note_off,114,0,0,,4,,,64,127
82586,note_on,1,0,0,,0,,,60,127
82700,note_off,114,0,0,,0,,,60,127
82700,note_off,0,0,0,,10,,,69,127
82700,note_off,0,0,0,,0,,,72,127
82701,note_on,1,0,0,,2,,,62,127
82701,note_on,0,0,0,,4,,,64,127
82701,note_on,0,0,0,,12,,,71,127
82701,note_on,0,0,0,,8,,,68,127
82815,note_off,114,0,0,,2,,,62,127
82816,note_on,1,0,0,,12,,,59,127
82930,note_off,114,0,0,,12,,,59,127
82930,note_off,0,0,0,,8,,,68,127
82930,note_off,0,0,0,,12,,,71,127
82930,note_off,0,0,0,,4,,,64,127
82931,note_on,1,0,0,,0,,,60,127
82931,note_on,0,0,0,,10,,,69,127
82931,note_on,0,0,0,,4,,,64,127
82931,note_on,0,0,0,,0,,,72,127
83045,note_off,114,0,0,,0,,,60,127
83046,note_on,1,0,0,,10,,,57,127
83160,note_off,114,0,0,,10,,,57,127
83161,note_on,1,0,0,,12,,,59,127
83275,note_off,114,0,0,,12,,,59,127
83276,note_on,1,0,0,,8,,,56,127
83390,note_off,114,0,0,,8,,,56,127
83391,note_on,1,0,0,,10,,,57,127
83505,note_off,114,0,0,,10,,,57,127
83506,note_on,1,0,0,,4,,,52,127
83620,note_off,114,0,0,,4,,,52,127
83621,note_on,1,0,0,,5,,,53,127
83735,note_off,114,0,0,,5,,,53,127
83736,note_on,1,0,0,,2,,,50,127
83850,note_off,114,0,0,,2,,,50,127
83850,note_off,0,0,0,,4,,,64,127
83850,note_off,0,0,0,,10,,,69,127
83851,note_on,1,0,0,,4,,,52,127
83965,note_off,114,0,0,,4,,,52,127
83966,note_on,1,0,0,,0,,,48,127
84009,note_off,43,0,0,,0,,,72,127
84080,note_off,71,0,0,,0,,,48,127
84081,note_on,1,0,0,,2,,,50,127
84081,note_on,0,0,0,,12,,,71,127
84195,note_off,114,0,0,,2,,,50,127
84196,note_on,1,0,0,,12,,,47,127
84310,note_off,114,0,0,,12,,,47,127
84310,note_off,0,0,0,,12,,,71,127
84311,note_on,1,0,0,,0,,,48,127
84311,note_on,0,0,0,,0,,,72,127
84425,note_off,114,0,0,,0,,,48,127
84426,note_on,1,0,0,,10,,,45,127
84540,note_off,114,0,0,,10,,,45,127
84540,note_off,0,0,0,,0,,,72,127
84541,note_on,1,0,0,,12,,,47,127
84541,note_on,0,0,0,,2,,,74,127
84655,note_off,114,0,0,,12,,,47,127
84656,note_on,1,0,0,,8,,,44,127
84770,note_off,114,0,0,,8,,,44,127
84770,note_off,0,0,0,,2,,,74,127
84771,note_on,1,0,0,,10,,,45,127
84771,note_on,0,0,0,,0,,,72,127
84885,note_off,114,0,0,,0,,,72,127
84886,note_on,1,0,0,,4,,,64,127
85000,note_off,114,0,0,,4,,,64,127
85001,note_on,1,0,0,,6,,,66,127
85115,note_off,114,0,0,,6,,,66,127
85116,note_on,1,0,0,,8,,,68,127
85230,note_off,114,0,0,,8,,,68,127
85231,note_on,1,0,0,,10,,,69,127
85345,note_off,114,0,0,,10,,,69,127
85346,note_on,1,0,0,,12,,,71,127
85460,note_off,114,0,0,,12,,,71,127
85461,note_on,1,0,0,,0,,,72,127
85575,note_off,114,0,0,,0,,,72,127
85576,note_on,1,0,0,,2,,,74,127
85690,note_off,114,0,0,,2,,,74,127
85690,note_off,0,0,0,,10,,,45,127
85691,note_on,1,0,0,,5,,,77,127
85920,note_off,229,0,0,,5,,,77,127
85921,note_on,1,0,0,,4,,,76,127
86151,note_on,230,0,0,,8,,,56,127
86151,note_on,0,0,0,,2,,,62,127
86151,note_on,0,0,0,,12,,,59,127
86151,note_on,0,0,0,,4,,,64,127
86380,note_off,229,0,0,,4,,,76,127
86381,note_on,1,0,0,,2,,,74,127
86610,note_off,229,0,0,,2,,,74,127
86610,note_off,0,0,0,,4,,,64,127
86610,note_off,0,0,0,,12,,,59,127
86610,note_off,0,0,0,,2,,,62,127
86610,note_off,0,0,0,,8,,,56,127
86611,note_on,1,0,0,,0,,,60,127
86611,note_on,0,0,0,,10,,,57,127
86611,note_on,0,0,0,,4,,,64,127
86611,note_on,0,0,0,,0,,,72,127
86724,note_off,113,0,0,,4,,,64,127
86725,note_off,1,0,0,,0,,,72,127
86726,note_on,1,0,0,,4,,,64,127
86841,note_on,115,0,0,,6,,,66,127
86955,note_off,114,0,0,,6,,,66,127
86956,note_on,1,0,0,,8,,,68,127
87070,note_off,114,0,0,,8,,,68,127
87071,note_on,1,0,0,,10,,,69,127
87185,note_off,114,0,0,,10,,,69,127
87186,note_on,1,0,0,,12,,,71,127
87300,note_off,114,0,0,,12,,,71,127
87300,note_off,0,0,0,,10,,,57,127
87300,note_off,0,0,0,,0,,,60,127
87301,note_on,1,0,0,,0,,,72,127
87325,note_off,24,0,0,,4,,,64,127
87415,note_off,90,0,0,,0,,,72,127
87416,note_on,1,0,0,,2,,,74,127
87530,note_off,114,0,0,,2,,,74,127
87531,note_on,1,0,0,,5,,,77,127
87760,note_off,229,0,0,,5,,,77,127
87761,note_on,1,0,0,,4,,,76,127
87991,note_on,230,0,0,,8,,,56,127
87991,note_on,0,0,0,,2,,,62,127
87991,note_on,0,0,0,,12,,,59,127
87991,note_on,0,0,0,,4,,,64,127
88220,note_off,229,0,0,,4,,,76,127
88221,note_on,1,0,0,,2,,,74,127
88450,note_off,229,0,0,,2,,,74,127
88450,note_off,0,0,0,,4,,,64,127
88450,note_off,0,0,0,,12,,,59,127
88450,note_off,0,0,0,,2,,,62,127
88450,note_off,0,0,0,,8,,,56,127
88451,note_on,1,0,0,,4,,,64,127
88451,note_on,0,0,0,,0,,,60,127
88451,note_on,0,0,0,,10,,,57,127
88451,note_on,0,0,0,,0,,,72,127
88564,note_off,113,0,0,,4,,,64,127
88565,note_off,1,0,0,,0,,,72,127
88566,note_on,1,0,0,,4,,,64,127
88681,note_on,115,0,0,,6,,,66,127
88795,note_off,114,0,0,,6,,,66,127
88796,note_on,1,0,0,,8,,,68,127
88910,note_off,114,0,0,,8,,,68,127
88911,note_on,1,0,0,,10,,,69,127
89025,note_off,114,0,0,,10,,,69,127
89026,note_off,1,0,0,,4,,,64,127
89026,note_off,0,0,0,,10,,,57,127
89026,note_off,0,0,0,,0,,,60,127
89026,note_on,0,0,0,,12,,,71,127
89140,note_off,114,0,0,,12,,,71,127
89141,note_on,1,0,0,,0,,,72,127
89255,note_off,114,0,0,,0,,,72,127
89256,note_on,1,0,0,,2,,,74,127
89370,note_off,114,0,0,,2,,,74,127
89371,note_on,1,0,0,,7,,,79,127
89600,note_off,229,0,0,,7,,,79,127
89601,note_on,1,0,0,,6,,,78,127
89831,note_on,230,0,0,,11,,,58,127
89831,note_on,0,0,0,,1,,,61,127
89831,note_on,0,0,0,,6,,,66,127
89831,note_on,0,0,0,,4,,,64,127
90060,note_off,229,0,0,,6,,,78,127
90061,note_on,1,0,0,,4,,,76,127
90290,note_off,229,0,0,,4,,,76,127
90290,note_off,0,0,0,,4,,,64,127
90290,note_off,0,0,0,,6,,,66,127
90290,note_off,0,0,0,,1,,,61,127
90290,note_off,0,0,0,,11,,,58,127
90291,note_on,1,0,0,,3,,,63,127
90291,note_on,0,0,0,,12,,,59,127
90291,note_on,0,0,0,,6,,,66,127
90291,note_on,0,0,0,,3,,,75,127
90404,note_off,113,0,0,,6,,,66,127
90405,note_off,1,0,0,,3,,,75,127
90406,note_on,1,0,0,,6,,,66,127
90521,note_on,115,0,0,,8,,,68,127
90635,note_off,114,0,0,,8,,,68,127
90636,note_on,1,0,0,,11,,,70,127
90750,note_off,114,0,0,,11,,,70,127
90751,note_on,1,0,0,,12,,,71,127
90865,note_off,114,0,0,,12,,,71,127
90866,note_on,1,0,0,,1,,,73,127
90980,note_off,114,0,0,,1,,,73,127
90981,note_on,1,0,0,,3,,,75,127
91095,note_off,114,0,0,,3,,,75,127
91096,note_on,1,0,0,,4,,,76,127
91098,note_off,2,0,0,,12,,,59,127
91210,note_off,112,0,0,,4,,,76,127
91211,note_off,1,0,0,,3,,,63,127
91211,note_on,0,0,0,,7,,,79,127
91317,note_off,106,0,0,,6,,,66,127
91441,note_off,124,0,0,,7,,,79,127
91442,note_on,1,0,0,,6,,,78,127
91672,note_on,230,0,0,,11,,,58,127
91672,note_on,0,0,0,,1,,,61,127
91672,note_on,0,0,0,,6,,,66,127
91672,note_on,0,0,0,,4,,,64,127
91901,note_off,229,0,0,,6,,,78,127
91902,note_on,1,0,0,,4,,,76,127
92131,note_off,229,0,0,,4,,,76,127
92131,note_off,0,0,0,,4,,,64,127
92131,note_off,0,0,0,,6,,,66,127
92131,note_off,0,0,0,,1,,,61,127
92131,note_off,0,0,0,,11,,,58,127
92132,note_on,1,0,0,,12,,,59,127
92132,note_on,0,0,0,,6,,,66,127
92132,note_on,0,0,0,,3,,,75,127
92246,note_off,114,0,0,,3,,,75,127
92247,note_on,1,0,0,,12,,,71,127
92361,note_off,114,0,0,,12,,,71,127
92362,note_on,1,0,0,,1,,,73,127
92476,note_off,114,0,0,,1,,,73,127
92477,note_on,1,0,0,,3,,,75,127
92591,note_off,114,0,0,,3,,,75,127
92592,note_on,1,0,0,,4,,,76,127
92706,note_off,114,0,0,,4,,,76,127
92707,note_on,1,0,0,,6,,,78,127
92821,note_off,114,0,0,,6,,,78,127
92822,note_on,1,0,0,,7,,,79,127
92936,note_off,114,0,0,,7,,,79,127
92937,note_on,1,0,0,,10,,,81,127
92939,note_off,2,0,0,,6,,,66,127
92939,note_off,0,0,0,,12,,,59,127
93051,note_off,112,0,0,,10,,,81,127
93052,note_on,1,0,0,,0,,,84,127
93281,note_off,229,0,0,,0,,,84,127
93282,note_on,1,0,0,,12,,,83,127
93512,note_on,230,0,0,,6,,,66,127
93512,note_on,0,0,0,,3,,,63,127
93512,note_on,0,0,0,,10,,,69,127
93512,note_on,0,0,0,,12,,,71,127
93741,note_off,229,0,0,,12,,,83,127
93742,note_on,1,0,0,,10,,,81,127
93971,note_off,229,0,0,,10,,,81,127
93971,note_off,0,0,0,,12,,,71,127
93971,note_off,0,0,0,,10,,,69,127
93971,note_off,0,0,0,,3,,,63,127
93971,note_off,0,0,0,,6,,,66,127
93972,note_on,1,0,0,,4,,,64,127
93972,note_on,0,0,0,,12,,,71,127
93972,note_on,0,0,0,,7,,,79,127
94084,note_off,112,0,0,,12,,,71,127
94086,note_off,2,0,0,,7,,,79,127
94087,note_on,1,0,0,,12,,,71,127
94202,note_on,115,0,0,,1,,,73,127
94316,note_off,114,0,0,,1,,,73,127
94317,note_on,1,0,0,,3,,,75,127
94431,note_off,114,0,0,,3,,,75,127
94432,note_on,1,0,0,,4,,,76,127
94546,note_off,114,0,0,,4,,,76,127
94547,note_on,1,0,0,,6,,,78,127
94661,note_off,114,0,0,,6,,,78,127
94662,note_on,1,0,0,,7,,,79,127
94776,note_off,114,0,0,,7,,,79,127
94777,note_on,1,0,0,,10,,,81,127
94883,note_off,106,0,0,,4,,,64,127
94891,note_off,8,0,0,,10,,,81,127
94892,note_on,1,0,0,,0,,,84,127
95121,note_off,229,0,0,,0,,,84,127
95122,note_on,1,0,0,,12,,,83,127
95345,note_off,223,0,0,,12,,,71,127
95352,note_on,7,0,0,,3,,,63,127
95352,note_on,0,0,0,,6,,,66,127
95352,note_on,0,0,0,,12,,,71,127
95352,note_on,0,0,0,,10,,,69,127
95581,note_off,229,0,0,,12,,,83,127
95582,note_on,1,0,0,,10,,,81,127
95811,note_off,229,0,0,,10,,,81,127
95811,note_off,0,0,0,,10,,,69,127
95811,note_off,0,0,0,,12,,,71,127
95811,note_off,0,0,0,,6,,,66,127
95811,note_off,0,0,0,,3,,,63,127
95812,note_on,1,0,0,,12,,,71,127
95812,note_on,0,0,0,,4,,,64,127
95812,note_on,0,0,0,,7,,,67,127
95812,note_on,0,0,0,,7,,,79,127
95926,note_off,114,0,0,,7,,,79,127
95927,note_on,1,0,0,,4,,,76,127
96041,note_off,114,0,0,,4,,,76,127
96042,note_on,1,0,0,,6,,,78,127
96156,note_off,114,0,0,,6,,,78,127
96157,note_on,1,0,0,,7,,,79,127
96271,note_off,114,0,0,,7,,,79,127
96271,note_off,0,0,0,,7,,,67,127
96271,note_off,0,0,0,,4,,,64,127
96271,note_off,0,0,0,,12,,,71,127
96272,note_on,1,0,0,,10,,,69,127
96272,note_on,0,0,0,,0,,,72,127
96272,note_on,0,0,0,,10,,,81,127
96386,note_off,114,0,0,,10,,,81,127
96387,note_on,1,0,0,,12,,,83,127
96501,note_off,114,0,0,,12,,,83,127
96502,note_on,1,0,0,,0,,,84,127
96616,note_off,114,0,0,,0,,,84,127
96617,note_on,1,0,0,,2,,,86,127
96731,note_off,114,0,0,,2,,,86,127
96731,note_off,0,0,0,,10,,,69,127
96732,note_on,1,0,0,,2,,,62,127
96732,note_on,0,0,0,,0,,,84,127
96846,note_off,114,0,0,,0,,,84,127
96847,note_on,1,0,0,,2,,,74,127
96961,note_off,114,0,0,,2,,,74,127
96962,note_on,1,0,0,,4,,,76,127
97076,note_off,114,0,0,,4,,,76,127
97077,note_on,1,0,0,,6,,,78,127
97191,note_off,114,0,0,,6,,,78,127
97191,note_off,0,0,0,,2,,,62,127
97192,note_off,1,0,0,,0,,,72,127
97192,note_on,0,0,0,,7,,,67,127
97192,note_on,0,0,0,,12,,,71,127
97192,note_on,0,0,0,,7,,,79,127
97306,note_off,114,0,0,,7,,,79,127
97307,note_on,1,0,0,,10,,,81,127
97421,note_off,114,0,0,,10,,,81,127
97422,note_on,1,0,0,,12,,,83,127
97536,note_off,114,0,0,,12,,,83,127
97537,note_on,1,0,0,,0,,,84,127
97651,note_off,114,0,0,,0,,,84,127
97651,note_off,0,0,0,,7,,,67,127
97652,note_on,1,0,0,,0,,,60,127
97652,note_on,0,0,0,,12,,,83,127
97766,note_off,114,0,0,,12,,,83,127
97767,note_on,1,0,0,,0,,,72,127
97881,note_off,114,0,0,,0,,,72,127
97882,note_on,1,0,0,,2,,,74,127
97996,note_off,114,0,0,,2,,,74,127
97997,note_on,1,0,0,,4,,,76,127
98111,note_off,114,0,0,,4,,,76,127
98111,note_off,0,0,0,,0,,,60,127
98112,note_off,1,0,0,,12,,,71,127
98112,note_on,0,0,0,,6,,,66,127
98112,note_on,0,0,0,,10,,,69,127
98112,note_on,0,0,0,,6,,,78,127
98226,note_off,114,0,0,,6,,,78,127
98227,note_on,1,0,0,,7,,,79,127
98341,note_off,114,0,0,,7,,,79,127
98342,note_on,1,0,0,,10,,,81,127
98456,note_off,114,0,0,,10,,,81,127
98457,note_on,1,0,0,,12,,,83,127
98571,note_off,114,0,0,,12,,,83,127
98571,note_off,0,0,0,,6,,,66,127
98572,note_on,1,0,0,,12,,,59,127
98572,note_on,0,0,0,,10,,,81,127
98686,note_off,114,0,0,,10,,,81,127
98687,note_on,1,0,0,,12,,,71,127
98801,note_off,114,0,0,,12,,,71,127
98802,note_on,1,0,0,,1,,,73,127
98916,note_off,114,0,0,,1,,,73,127
98917,note_on,1,0,0,,3,,,75,127
99031,note_off,114,0,0,,3,,,75,127
99031,note_off,0,0,0,,12,,,59,127
99032,note_off,1,0,0,,10,,,69,127
99032,note_on,0,0,0,,7,,,67,127
99032,note_on,0,0,0,,4,,,64,127
99032,note_on,0,0,0,,4,,,76,127
99146,note_off,114,0,0,,4,,,76,127
99147,note_on,1,0,0,,6,,,78,127
99261,note_off,114,0,0,,6,,,78,127
99262,note_on,1,0,0,,7,,,79,127
99376,note_off,114,0,0,,7,,,79,127
99377,note_on,1,0,0,,10,,,81,127
99487,note_off,110,0,0,,7,,,67,127
99491,note_off,4,0,0,,10,,,81,127
99492,note_on,1,0,0,,7,,,79,127
99605,note_off,113,0,0,,4,,,64,127
99607,note_on,2,0,0,,4,,,64,127
99721,note_off,114,0,0,,4,,,64,127
99722,note_on,1,0,0,,6,,,66,127
99836,note_off,114,0,0,,6,,,66,127
99837,note_on,1,0,0,,7,,,67,127
99951,note_off,114,0,0,,7,,,67,127
99951,note_off,0,0,0,,7,,,79,127
99952,note_on,1,0,0,,10,,,69,127
99952,note_on,0,0,0,,0,,,84,127
100066,note_off,114,0,0,,10,,,69,127
100067,note_on,1,0,0,,12,,,71,127
100181,note_off,114,0,0,,12,,,71,127
100182,note_on,1,0,0,,0,,,72,127
100296,note_off,114,0,0,,0,,,72,127
100297,note_on,1,0,0,,2,,,74,127
100411,note_off,114,0,0,,2,,,74,127
100411,note_off,0,0,0,,0,,,84,127
100412,note_on,1,0,0,,0,,,72,127
100412,note_on,0,0,0,,6,,,78,127
100526,note_off,114,0,0,,0,,,72,127
100527,note_on,1,0,0,,2,,,62,127
100641,note_off,114,0,0,,2,,,62,127
100642,note_on,1,0,0,,4,,,64,127
100756,note_off,114,0,0,,4,,,64,127
100757,note_on,1,0,0,,6,,,66,127
100871,note_off,114,0,0,,6,,,66,127
100871,note_off,0,0,0,,6,,,78,127
100872,note_on,1,0,0,,7,,,67,127
100872,note_on,0,0,0,,12,,,83,127
100986,note_off,114,0,0,,7,,,67,127
100987,note_on,1,0,0,,10,,,69,127
101101,note_off,114,0,0,,10,,,69,127
101102,note_on,1,0,0,,12,,,71,127
101216,note_off,114,0,0,,12,,,71,127
101217,note_on,1,0,0,,0,,,72,127
101331,note_off,114,0,0,,0,,,72,127
101331,note_off,0,0,0,,12,,,83,127
101332,note_on,1,0,0,,12,,,71,127
101332,note_on,0,0,0,,4,,,76,127
101446,note_off,114,0,0,,12,,,71,127
101447,note_on,1,0,0,,0,,,60,127
101561,note_off,114,0,0,,0,,,60,127
101562,note_on,1,0,0,,2,,,62,127
101676,note_off,114,0,0,,2,,,62,127
101677,note_on,1,0,0,,4,,,64,127
101791,note_off,114,0,0,,4,,,64,127
101791,note_off,0,0,0,,4,,,76,127
101792,note_on,1,0,0,,6,,,66,127
101792,note_on,0,0,0,,10,,,81,127
101906,note_off,114,0,0,,6,,,66,127
101907,note_on,1,0,0,,7,,,67,127
102021,note_off,114,0,0,,7,,,67,127
102022,note_on,1,0,0,,10,,,69,127
102136,note_off,114,0,0,,10,,,69,127
102137,note_on,1,0,0,,12,,,71,127
102251,note_off,114,0,0,,12,,,71,127
102251,note_off,0,0,0,,10,,,81,127
102252,note_on,1,0,0,,10,,,69,127
102252,note_on,0,0,0,,3,,,75,127
102366,note_off,114,0,0,,10,,,69,127
102367,note_on,1,0,0,,12,,,59,127
102481,note_off,114,0,0,,12,,,59,127
102482,note_on,1,0,0,,1,,,61,127
102596,note_off,114,0,0,,1,,,61,127
102597,note_on,1,0,0,,3,,,63,127
102711,note_off,114,0,0,,3,,,63,127
102711,note_off,0,0,0,,3,,,75,127
102712,note_on,1,0,0,,4,,,64,127
102712,note_on,0,0,0,,12,,,83,127
102826,note_off,114,0,0,,4,,,64,127
102827,note_on,1,0,0,,6,,,66,127
102941,note_off,114,0,0,,6,,,66,127
102942,note_on,1,0,0,,7,,,67,127
103056,note_off,114,0,0,,7,,,67,127
103057,note_on,1,0,0,,10,,,69,127
103171,note_off,114,0,0,,10,,,69,127
103172,note_on,1,0,0,,7,,,67,127
103286,note_off,114,0,0,,12,,,83,127
103287,note_on,1,0,0,,10,,,81,127
103401,note_off,114,0,0,,10,,,81,127
103402,note_on,1,0,0,,7,,,79,127
103516,note_off,114,0,0,,7,,,79,127
103517,note_on,1,0,0,,6,,,78,127
103631,note_off,114,0,0,,6,,,78,127
103631,note_off,0,0,0,,7,,,67,127
103632,note_on,1,0,0,,4,,,64,127
103632,note_on,0,0,0,,4,,,76,127
103746,note_off,114,0,0,,4,,,76,127
103747,note_on,1,0,0,,2,,,74,127
103861,note_off,114,0,0,,2,,,74,127
103862,note_on,1,0,0,,0,,,72,127
103976,note_off,114,0,0,,0,,,72,127
103977,note_on,1,0,0,,12,,,71,127
104091,note_off,114,0,0,,12,,,71,127
104091,note_off,0,0,0,,4,,,64,127
104092,note_on,1,0,0,,10,,,69,127
104092,note_on,0,0,0,,2,,,74,127
104169,note_off,77,0,0,,2,,,74,127
104169,note_on,0,0,0,,0,,,72,127
104246,note_off,77,0,0,,0,,,72,127
104246,note_on,0,0,0,,2,,,74,127
104323,note_off,77,0,0,,2,,,74,127
104323,note_on,0,0,0,,0,,,72,127
104400,note_off,77,0,0,,0,,,72,127
104400,note_on,0,0,0,,2,,,74,127
104477,note_off,77,0,0,,2,,,74,127
104477,note_on,0,0,0,,0,,,72,127
104554,note_off,77,0,0,,0,,,72,127
104554,note_on,0,0,0,,10,,,57,127
104554,note_on,0,0,0,,2,,,74,127
104631,note_off,77,0,0,,2,,,74,127
104631,note_on,0,0,0,,0,,,72,127
104708,note_off,77,0,0,,0,,,72,127
104708,note_on,0,0,0,,2,,,74,127
104785,note_off,77,0,0,,2,,,74,127
104785,note_on,0,0,0,,0,,,72,127
104862,note_off,77,0,0,,0,,,72,127
104862,note_on,0,0,0,,12,,,71,127
104939,note_off,77,0,0,,12,,,71,127
104939,note_on,0,0,0,,0,,,72,127
105015,note_off,76,0,0,,10,,,57,127
105015,note_off,0,0,0,,10,,,69,127
105016,note_off,1,0,0,,0,,,72,127
105016,note_on,0,0,0,,12,,,59,127
105016,note_on,0,0,0,,12,,,71,127
105245,note_off,229,0,0,,12,,,59,127
105246,note_on,1,0,0,,4,,,64,127
105475,note_off,229,0,0,,4,,,64,127
105476,note_on,1,0,0,,3,,,63,127
105705,note_off,229,0,0,,3,,,63,127
105705,note_off,0,0,0,,12,,,71,127
105706,note_on,1,0,0,,2,,,62,127
105706,note_on,0,0,0,,12,,,71,127
105935,note_off,229,0,0,,12,,,71,127
105935,note_off,0,0,0,,2,,,62,127
105936,note_on,1,0,0,,1,,,61,127
105936,note_on,0,0,0,,11,,,70,127
106165,note_off,229,0,0,,11,,,70,127
106165,note_off,0,0,0,,1,,,61,127
106166,note_on,1,0,0,,0,,,60,127
106166,note_on,0,0,0,,10,,,69,127
106395,note_off,229,0,0,,10,,,69,127
106395,note_off,0,0,0,,0,,,60,127
106396,note_on,1,0,0,,12,,,59,127
106396,note_on,0,0,0,,8,,,68,127
106625,note_off,229,0,0,,8,,,68,127
106625,note_off,0,0,0,,12,,,59,127
106626,note_on,1,0,0,,4,,,64,127
106626,note_on,0,0,0,,7,,,67,127
106855,note_off,229,0,0,,7,,,67,127
106855,note_off,0,0,0,,4,,,64,127
106856,note_on,1,0,0,,3,,,63,127
106856,note_on,0,0,0,,6,,,66,127
107085,note_off,229,0,0,,6,,,66,127
107085,note_off,0,0,0,,3,,,63,127
107086,note_on,1,0,0,,2,,,62,127
107086,note_on,0,0,0,,12,,,71,127
107315,note_off,229,0,0,,12,,,71,127
107315,note_off,0,0,0,,2,,,62,127
107316,note_on,1,0,0,,1,,,61,127
107316,note_on,0,0,0,,4,,,64,127
107545,note_off,229,0,0,,4,,,64,127
107545,note_off,0,0,0,,1,,,61,127
107546,note_on,1,0,0,,0,,,60,127
107546,note_on,0,0,0,,4,,,76,127
107775,note_off,229,0,0,,4,,,76,127
107775,note_off,0,0,0,,0,,,60,127
107776,note_on,1,0,0,,12,,,59,127
107776,note_on,0,0,0,,3,,,75,127
108005,note_off,229,0,0,,3,,,75,127
108005,note_off,0,0,0,,12,,,59,127
108006,note_on,1,0,0,,12,,,71,127
108006,note_on,0,0,0,,2,,,74,127
108235,note_off,229,0,0,,2,,,74,127
108235,note_off,0,0,0,,12,,,71,127
108236,note_on,1,0,0,,11,,,70,127
108236,note_on,0,0,0,,1,,,73,127
108465,note_off,229,0,0,,1,,,73,127
108465,note_off,0,0,0,,11,,,70,127
108466,note_on,1,0,0,,10,,,69,127
108466,note_on,0,0,0,,0,,,72,127
108695,note_off,229,0,0,,0,,,72,127
108695,note_off,0,0,0,,10,,,69,127
108696,note_on,1,0,0,,8,,,68,127
108696,note_on,0,0,0,,12,,,71,127
108925,note_off,229,0,0,,12,,,71,127
108925,note_off,0,0,0,,8,,,68,127
108926,note_on,1,0,0,,7,,,67,127
108926,note_on,0,0,0,,4,,,76,127
109155,note_off,229,0,0,,4,,,76,127
109155,note_off,0,0,0,,7,,,67,127
109156,note_on,1,0,0,,6,,,66,127
109156,note_on,0,0,0,,3,,,75,127
109385,note_off,229,0,0,,3,,,75,127
109386,note_on,1,0,0,,10,,,81,127
109615,note_off,229,0,0,,10,,,81,127
109615,note_off,0,0,0,,6,,,66,127
109616,note_on,1,0,0,,4,,,64,127
109616,note_on,0,0,0,,8,,,80,127
109845,note_off,229,0,0,,8,,,80,127
109845,note_off,0,0,0,,4,,,64,127
109846,note_on,1,0,0,,4,,,76,127
109846,note_on,0,0,0,,7,,,79,127
110075,note_off,229,0,0,,7,,,79,127
110075,note_off,0,0,0,,4,,,76,127
110076,note_on,1,0,0,,3,,,75,127
110076,note_on,0,0,0,,6,,,78,127
110305,note_off,229,0,0,,6,,,78,127
110305,note_off,0,0,0,,3,,,75,127
110306,note_on,1,0,0,,2,,,74,127
110306,note_on,0,0,0,,12,,,83,127
110535,note_off,229,0,0,,12,,,83,127
110535,note_off,0,0,0,,2,,,74,127
110536,note_on,1,0,0,,1,,,73,127
110536,note_on,0,0,0,,11,,,82,127
110765,note_off,229,0,0,,11,,,82,127
110765,note_off,0,0,0,,1,,,73,127
110766,note_on,1,0,0,,0,,,72,127
110766,note_on,0,0,0,,10,,,81,127
110995,note_off,229,0,0,,10,,,81,127
110995,note_off,0,0,0,,0,,,72,127
110996,note_on,1,0,0,,12,,,71,127
110996,note_on,0,0,0,,8,,,80,127
111225,note_off,229,0,0,,8,,,80,127
111225,note_off,0,0,0,,12,,,71,127
111226,note_on,1,0,0,,4,,,76,127
111226,note_on,0,0,0,,7,,,79,127
111455,note_off,229,0,0,,7,,,79,127
111455,note_off,0,0,0,,4,,,76,127
111456,note_on,1,0,0,,3,,,75,127
111456,note_on,0,0,0,,6,,,78,127
111685,note_off,229,0,0,,6,,,78,127
111685,note_off,0,0,0,,3,,,75,127
111686,note_on,1,0,0,,2,,,74,127
111686,note_on,0,0,0,,12,,,83,127
111915,note_off,229,0,0,,12,,,83,127
111915,note_off,0,0,0,,2,,,74,127
111916,note_on,1,0,0,,1,,,73,127
111916,note_on,0,0,0,,11,,,82,127
112145,note_off,229,0,0,,11,,,82,127
112145,note_off,0,0,0,,1,,,73,127
112146,note_on,1,0,0,,0,,,72,127
112146,note_on,0,0,0,,10,,,81,127
112375,note_off,229,0,0,,10,,,81,127
112375,note_off,0,0,0,,0,,,72,127
112376,note_on,1,0,0,,12,,,71,127
112376,note_on,0,0,0,,8,,,80,127
112605,note_off,229,0,0,,8,,,80,127
112606,note_on,1,0,0,,7,,,79,127
112835,note_off,229,0,0,,7,,,79,127
112835,note_off,0,0,0,,12,,,71,127
112836,note_on,1,0,0,,10,,,69,127
112836,note_on,0,0,0,,6,,,78,127
113065,note_off,229,0,0,,6,,,78,127
113065,note_off,0,0,0,,10,,,69,127
113066,note_on,1,0,0,,7,,,67,127
113066,note_on,0,0,0,,4,,,76,127
113295,note_off,229,0,0,,4,,,76,127
113295,note_off,0,0,0,,7,,,67,127
113296,note_on,1,0,0,,6,,,66,127
113296,note_on,0,0,0,,3,,,75,127
113525,note_off,229,0,0,,3,,,75,127
113525,note_off,0,0,0,,6,,,66,127
113526,note_on,1,0,0,,4,,,64,127
113526,note_on,0,0,0,,0,,,72,127
113755,note_off,229,0,0,,0,,,72,127
113755,note_off,0,0,0,,4,,,64,127
113756,note_on,1,0,0,,3,,,63,127
113756,note_on,0,0,0,,12,,,71,127
113985,note_off,229,0,0,,12,,,71,127
113985,note_off,0,0,0,,3,,,63,127
113986,note_on,1,0,0,,0,,,60,127
113986,note_on,0,0,0,,10,,,69,127
114215,note_off,229,0,0,,10,,,69,127
114215,note_off,0,0,0,,0,,,60,127
114216,note_on,1,0,0,,12,,,59,127
114216,note_on,0,0,0,,7,,,67,127
114445,note_off,229,0,0,,7,,,67,127
114445,note_off,0,0,0,,12,,,59,127
114446,note_on,1,0,0,,10,,,57,127
114446,note_on,0,0,0,,6,,,66,127
114675,note_off,229,0,0,,6,,,66,127
114675,note_off,0,0,0,,10,,,57,127
114676,note_on,1,0,0,,7,,,55,127
114676,note_on,0,0,0,,4,,,64,127
114905,note_off,229,0,0,,4,,,64,127
114905,note_off,0,0,0,,7,,,55,127
114906,note_on,1,0,0,,6,,,54,127
114906,note_on,0,0,0,,6,,,66,127
115020,note_off,114,0,0,,6,,,66,127
115021,note_on,1,0,0,,7,,,67,127
115135,note_off,114,0,0,,7,,,67,127
115135,note_off,0,0,0,,6,,,54,127
115136,note_on,1,0,0,,4,,,52,127
115136,note_on,0,0,0,,10,,,69,127
115250,note_off,114,0,0,,10,,,69,127
115251,note_on,1,0,0,,12,,,71,127
115365,note_off,114,0,0,,12,,,71,127
115365,note_off,0,0,0,,4,,,52,127
115366,note_on,1,0,0,,2,,,50,127
115366,note_on,0,0,0,,0,,,72,127
115480,note_off,114,0,0,,0,,,72,127
115481,note_on,1,0,0,,12,,,71,127
115595,note_off,114,0,0,,12,,,71,127
115595,note_off,0,0,0,,2,,,50,127
115596,note_on,1,0,0,,0,,,48,127
115596,note_on,0,0,0,,10,,,69,127
115710,note_off,114,0,0,,10,,,69,127
115711,note_on,1,0,0,,7,,,67,127
115825,note_off,114,0,0,,7,,,67,127
115826,note_on,1,0,0,,6,,,66,127
115940,note_off,114,0,0,,6,,,66,127
115941,note_on,1,0,0,,4,,,64,127
116055,note_off,114,0,0,,4,,,64,127
116056,note_on,1,0,0,,12,,,71,127
116056,note_on,0,0,0,,12,,,59,127
116170,note_off,114,0,0,,0,,,48,127
116171,note_off,1,0,0,,12,,,59,127
116171,note_on,0,0,0,,12,,,47,127
116285,note_off,114,0,0,,12,,,47,127
116286,note_on,1,0,0,,1,,,49,127
116400,note_off,114,0,0,,1,,,49,127
116401,note_on,1,0,0,,3,,,51,127
116515,note_off,114,0,0,,3,,,51,127
116516,note_on,1,0,0,,4,,,52,127
116630,note_off,114,0,0,,4,,,52,127
116631,note_on,1,0,0,,6,,,54,127
116745,note_off,114,0,0,,6,,,54,127
116746,note_on,1,0,0,,7,,,55,127
116860,note_off,114,0,0,,7,,,55,127
116861,note_on,1,0,0,,10,,,57,127
116975,note_off,114,0,0,,10,,,57,127
116976,note_on,1,0,0,,0,,,60,127
117205,note_off,229,0,0,,0,,,60,127
117205,note_off,0,0,0,,12,,,71,127
117206,note_on,1,0,0,,12,,,59,127
117206,note_on,0,0,0,,4,,,64,127
117435,note_off,229,0,0,,4,,,64,127
117435,note_off,0,0,0,,12,,,59,127
117436,note_on,1,0,0,,12,,,59,127
117436,note_on,0,0,0,,6,,,66,127
117494,note_off,58,0,0,,6,,,66,127
117494,note_on,0,0,0,,4,,,64,127
117552,note_off,58,0,0,,4,,,64,127
117552,note_on,0,0,0,,6,,,66,127
117610,note_off,58,0,0,,6,,,66,127
117610,note_on,0,0,0,,4,,,64,127
117666,note_off,56,0,0,,12,,,59,127
117667,note_off,1,0,0,,4,,,64,127
117667,note_on,0,0,0,,10,,,57,127
117667,note_on,0,0,0,,3,,,63,127
117896,note_off,229,0,0,,3,,,63,127
117896,note_off,0,0,0,,10,,,57,127
117897,note_on,1,0,0,,8,,,56,127
117897,note_on,0,0,0,,4,,,64,127
118011,note_off,114,0,0,,8,,,56,127
118012,note_on,1,0,0,,4,,,52,127
118126,note_off,114,0,0,,4,,,52,127
118127,note_off,1,0,0,,4,,,64,127
118127,note_on,0,0,0,,6,,,54,127
118241,note_off,114,0,0,,6,,,54,127
118242,note_on,1,0,0,,8,,,56,127
118356,note_off,114,0,0,,8,,,56,127
118357,note_on,1,0,0,,10,,,57,127
118471,note_off,114,0,0,,10,,,57,127
118472,note_on,1,0,0,,12,,,59,127
118586,note_off,114,0,0,,12,,,59,127
118587,note_on,1,0,0,,0,,,60,127
118701,note_off,114,0,0,,0,,,60,127
118702,note_on,1,0,0,,2,,,62,127
118816,note_off,114,0,0,,2,,,62,127
118817,note_on,1,0,0,,5,,,65,127
119046,note_off,229,0,0,,5,,,65,127
119047,note_on,1,0,0,,4,,,64,127
119047,note_on,0,0,0,,10,,,69,127
119276,note_off,229,0,0,,10,,,69,127
119276,note_off,0,0,0,,4,,,64,127
119277,note_on,1,0,0,,4,,,64,127
119277,note_on,0,0,0,,12,,,71,127
119335,note_off,58,0,0,,12,,,71,127
119335,note_on,0,0,0,,10,,,69,127
119393,note_off,58,0,0,,10,,,69,127
119393,note_on,0,0,0,,12,,,71,127
119451,note_off,58,0,0,,12,,,71,127
119451,note_on,0,0,0,,10,,,69,127
119507,note_off,56,0,0,,4,,,64,127
119508,note_off,1,0,0,,10,,,69,127
119508,note_on,0,0,0,,2,,,62,127
119508,note_on,0,0,0,,8,,,68,127
119737,note_off,229,0,0,,8,,,68,127
119737,note_off,0,0,0,,2,,,62,127
119738,note_on,1,0,0,,0,,,60,127
119738,note_on,0,0,0,,10,,,69,127
119852,note_off,114,0,0,,0,,,60,127
119853,note_on,1,0,0,,10,,,57,127
119967,note_off,114,0,0,,10,,,57,127
119968,note_off,1,0,0,,10,,,69,127
119968,note_on,0,0,0,,12,,,59,127
120082,note_off,114,0,0,,12,,,59,127
120083,note_on,1,0,0,,1,,,61,127
120197,note_off,114,0,0,,1,,,61,127
120198,note_on,1,0,0,,3,,,63,127
120312,note_off,114,0,0,,3,,,63,127
120313,note_on,1,0,0,,4,,,64,127
120427,note_off,114,0,0,,4,,,64,127
120428,note_on,1,0,0,,6,,,66,127
120542,note_off,114,0,0,,6,,,66,127
120543,note_on,1,0,0,,7,,,67,127
120657,note_off,114,0,0,,7,,,67,127
120658,note_on,1,0,0,,0,,,72,127
120887,note_off,229,0,0,,0,,,72,127
120888,note_on,1,0,0,,12,,,71,127
120888,note_on,0,0,0,,4,,,76,127
121117,note_off,229,0,0,,4,,,76,127
121117,note_off,0,0,0,,12,,,71,127
121118,note_on,1,0,0,,12,,,71,127
121118,note_on,0,0,0,,6,,,78,127
121176,note_off,58,0,0,,6,,,78,127
121176,note_on,0,0,0,,4,,,76,127
121234,note_off,58,0,0,,4,,,76,127
121234,note_on,0,0,0,,6,,,78,127
121292,note_off,58,0,0,,6,,,78,127
121292,note_on,0,0,0,,4,,,76,127
121348,note_off,56,0,0,,12,,,71,127
121349,note_off,1,0,0,,4,,,76,127
121349,note_on,0,0,0,,10,,,69,127
121349,note_on,0,0,0,,3,,,75,127
121578,note_off,229,0,0,,3,,,75,127
121578,note_off,0,0,0,,10,,,69,127
121579,note_on,1,0,0,,7,,,67,127
121579,note_on,0,0,0,,4,,,76,127
121693,note_off,114,0,0,,4,,,76,127
121694,note_on,1,0,0,,12,,,71,127
121808,note_off,114,0,0,,12,,,71,127
121809,note_on,1,0,0,,1,,,73,127
121923,note_off,114,0,0,,1,,,73,127
121924,note_on,1,0,0,,3,,,75,127
122038,note_off,114,0,0,,3,,,75,127
122038,note_off,0,0,0,,7,,,67,127
122039,note_on,1,0,0,,4,,,64,127
122039,note_on,0,0,0,,4,,,76,127
122153,note_off,114,0,0,,4,,,76,127
122154,note_on,1,0,0,,6,,,78,127
122268,note_off,114,0,0,,6,,,78,127
122269,note_on,1,0,0,,7,,,79,127
122383,note_off,114,0,0,,7,,,79,127
122384,note_on,1,0,0,,10,,,81,127
122498,note_off,114,0,0,,10,,,81,127
122498,note_off,0,0,0,,4,,,64,127
122499,note_on,1,0,0,,6,,,66,127
122499,note_on,0,0,0,,3,,,63,127
122499,note_on,0,0,0,,12,,,71,127
122499,note_on,0,0,0,,0,,,84,127
122728,note_off,229,0,0,,0,,,84,127
122729,note_on,1,0,0,,12,,,83,127
122958,note_off,229,0,0,,3,,,63,127
122958,note_off,0,0,0,,6,,,66,127
122959,note_on,1,0,0,,12,,,59,127
123188,note_off,229,0,0,,12,,,83,127
123189,note_on,1,0,0,,10,,,81,127
123418,note_off,229,0,0,,10,,,81,127
123418,note_off,0,0,0,,12,,,59,127
123419,note_on,1,0,0,,4,,,64,127
123419,note_on,0,0,0,,10,,,81,127
123534,note_off,115,0,0,,10,,,81,127
123534,note_on,0,0,0,,7,,,79,127
123649,note_off,115,0,0,,7,,,79,127
123649,note_on,0,0,0,,6,,,78,127
123763,note_off,114,0,0,,6,,,78,127
123764,note_on,1,0,0,,7,,,79,127
123877,note_off,113,0,0,,12,,,71,127
123878,note_off,1,0,0,,7,,,79,127
123878,note_off,0,0,0,,4,,,64,127
123879,note_on,1,0,0,,10,,,57,127
123879,note_on,0,0,0,,4,,,64,127
123879,note_on,0,0,0,,10,,,81,127
123879,note_on,0,0,0,,0,,,72,127
124108,note_off,229,0,0,,10,,,81,127
124109,note_on,1,0,0,,7,,,79,127
124223,note_off,114,0,0,,7,,,79,127
124224,note_on,1,0,0,,6,,,78,127
124338,note_off,114,0,0,,6,,,78,127
124338,note_off,0,0,0,,4,,,64,127
124338,note_off,0,0,0,,10,,,57,127
124339,note_off,1,0,0,,0,,,72,127
124339,note_on,0,0,0,,12,,,59,127
124339,note_on,0,0,0,,7,,,67,127
124339,note_on,0,0,0,,4,,,76,127
124339,note_on,0,0,0,,12,,,71,127
124799,note_off,460,0,0,,12,,,71,127
124799,note_off,0,0,0,,4,,,76,127
124799,note_off,0,0,0,,7,,,67,127
124800,note_on,1,0,0,,6,,,66,127
124800,note_on,0,0,0,,10,,,69,127
124800,note_on,0,0,0,,4,,,76,127
124877,note_off,77,0,0,,4,,,76,127
124877,note_on,0,0,0,,3,,,75,127
124954,note_off,77,0,0,,3,,,75,127
124954,note_on,0,0,0,,4,,,76,127
125031,note_off,77,0,0,,4,,,76,127
125031,note_on,0,0,0,,3,,,75,127
125108,note_off,77,0,0,,3,,,75,127
125108,note_on,0,0,0,,1,,,73,127
125185,note_off,77,0,0,,1,,,73,127
125185,note_on,0,0,0,,3,,,75,127
125261,note_off,76,0,0,,10,,,69,127
125261,note_off,0,0,0,,6,,,66,127
125262,note_off,1,0,0,,3,,,75,127
125262,note_off,0,0,0,,12,,,59,127
125262,note_on,0,0,0,,4,,,52,127
125262,note_on,0,0,0,,4,,,64,127
125262,note_on,0,0,0,,4,,,76,127
125377,note_on,115,0,0,,12,,,71,127
125490,note_off,113,0,0,,4,,,76,127
125491,note_off,1,0,0,,12,,,71,127
125492,note_on,1,0,0,,4,,,76,127
125606,note_off,114,0,0,,4,,,76,127
125607,note_on,1,0,0,,6,,,78,127
125721,note_off,114,0,0,,6,,,78,127
125722,note_on,1,0,0,,7,,,79,127
125836,note_off,114,0,0,,7,,,79,127
125837,note_on,1,0,0,,4,,,76,127
125951,note_off,114,0,0,,4,,,76,127
125952,note_on,1,0,0,,6,,,78,127
126066,note_off,114,0,0,,6,,,78,127
126067,note_on,1,0,0,,3,,,75,127
126181,note_off,114,0,0,,3,,,75,127
126182,note_on,1,0,0,,4,,,76,127
126297,note_on,115,0,0,,12,,,71,127
126410,note_off,113,0,0,,4,,,76,127
126411,note_off,1,0,0,,12,,,71,127
126412,note_on,1,0,0,,7,,,79,127
126526,note_off,114,0,0,,7,,,79,127
126527,note_on,1,0,0,,10,,,81,127
126641,note_off,114,0,0,,10,,,81,127
126641,note_off,0,0,0,,4,,,64,127
126641,note_off,0,0,0,,4,,,52,127
126642,note_on,1,0,0,,12,,,47,127
126642,note_on,0,0,0,,12,,,59,127
126642,note_on,0,0,0,,12,,,83,127
126756,note_off,114,0,0,,12,,,83,127
126757,note_on,1,0,0,,7,,,79,127
126871,note_off,114,0,0,,7,,,79,127
126872,note_on,1,0,0,,10,,,81,127
126986,note_off,114,0,0,,10,,,81,127
126987,note_on,1,0,0,,6,,,78,127
127101,note_off,114,0,0,,6,,,78,127
127101,note_off,0,0,0,,12,,,59,127
127101,note_off,0,0,0,,12,,,47,127
127102,note_on,1,0,0,,4,,,40,127
127102,note_on,0,0,0,,4,,,52,127
127102,note_on,0,0,0,,7,,,79,127
127217,note_on,115,0,0,,12,,,71,127
127330,note_off,113,0,0,,7,,,79,127
127331,note_off,1,0,0,,12,,,71,127
127332,note_on,1,0,0,,4,,,76,127
127446,note_off,114,0,0,,4,,,76,127
127447,note_on,1,0,0,,6,,,78,127
127561,note_off,114,0,0,,6,,,78,127
127562,note_on,1,0,0,,7,,,79,127
127676,note_off,114,0,0,,7,,,79,127
127677,note_on,1,0,0,,4,,,76,127
127791,note_off,114,0,0,,4,,,76,127
127792,note_on,1,0,0,,6,,,78,127
127906,note_off,114,0,0,,6,,,78,127
127907,note_on,1,0,0,,3,,,75,127
128021,note_off,114,0,0,,3,,,75,127
128022,note_on,1,0,0,,4,,,76,127
128137,note_on,115,0,0,,12,,,71,127
128250,note_off,113,0,0,,4,,,76,127
128251,note_off,1,0,0,,12,,,71,127
128252,note_on,1,0,0,,7,,,79,127
128366,note_off,114,0,0,,7,,,79,127
128367,note_on,1,0,0,,10,,,81,127
128481,note_off,114,0,0,,10,,,81,127
128481,note_off,0,0,0,,4,,,52,127
128481,note_off,0,0,0,,4,,,40,127
128482,note_on,1,0,0,,12,,,47,127
128482,note_on,0,0,0,,12,,,59,127
128482,note_on,0,0,0,,12,,,83,127
128596,note_off,114,0,0,,12,,,83,127
128597,note_on,1,0,0,,7,,,79,127
128711,note_off,114,0,0,,7,,,79,127
128712,note_on,1,0,0,,10,,,81,127
128826,note_off,114,0,0,,10,,,81,127
128827,note_on,1,0,0,,6,,,78,127
128941,note_off,114,0,0,,6,,,78,127
128941,note_off,0,0,0,,12,,,59,127
128941,note_off,0,0,0,,12,,,47,127
128942,note_on,1,0,0,,4,,,52,127
128942,note_on,0,0,0,,7,,,79,127
129056,note_off,114,0,0,,7,,,79,127
129057,note_on,1,0,0,,4,,,76,127
129171,note_off,114,0,0,,4,,,76,127
129172,note_on,1,0,0,,6,,,78,127
129286,note_off,114,0,0,,6,,,78,127
129287,note_on,1,0,0,,3,,,75,127
129401,note_off,114,0,0,,3,,,75,127
129401,note_off,0,0,0,,4,,,52,127
129402,note_on,1,0,0,,10,,,57,127
129402,note_on,0,0,0,,4,,,76,127
129516,note_off,114,0,0,,4,,,76,127
129517,note_on,1,0,0,,12,,,71,127
129631,note_off,114,0,0,,12,,,71,127
129632,note_on,1,0,0,,0,,,72,127
129746,note_off,114,0,0,,0,,,72,127
129747,note_on,1,0,0,,10,,,69,127
129861,note_off,114,0,0,,10,,,69,127
129861,note_off,0,0,0,,10,,,57,127
129862,note_on,1,0,0,,12,,,59,127
129862,note_on,0,0,0,,7,,,67,127
129977,note_on,115,0,0,,3,,,75,127
130091,note_off,114,0,0,,3,,,75,127
130092,note_on,1,0,0,,4,,,76,127
130205,note_off,113,0,0,,7,,,67,127
130207,note_on,2,0,0,,10,,,69,127
130321,note_off,114,0,0,,10,,,69,127
130322,note_on,1,0,0,,12,,,47,127
130322,note_on,0,0,0,,7,,,67,127
130435,note_off,113,0,0,,4,,,76,127
130437,note_on,2,0,0,,4,,,76,127
130550,note_off,113,0,0,,7,,,67,127
130552,note_on,2,0,0,,6,,,66,127
130665,note_off,113,0,0,,4,,,76,127
130667,note_on,2,0,0,,3,,,75,127
130780,note_off,113,0,0,,6,,,66,127
130781,note_off,1,0,0,,3,,,75,127
130781,note_off,0,0,0,,12,,,47,127
130781,note_off,0,0,0,,12,,,59,127
130782,note_on,1,0,0,,4,,,52,127
130782,note_on,0,0,0,,4,,,76,127
131011,note_off,229,0,0,,4,,,52,127
131012,note_off,1,0,0,,4,,,76,127
131012,note_on,0,0,0,,4,,,64,127
131126,note_off,114,0,0,,4,,,64,127
131127,note_on,1,0,0,,6,,,66,127
131241,note_off,114,0,0,,6,,,66,127
131242,note_on,1,0,0,,7,,,67,127
131356,note_off,114,0,0,,7,,,67,127
131357,note_on,1,0,0,,4,,,64,127
131471,note_off,114,0,0,,4,,,64,127
131472,note_on,1,0,0,,6,,,66,127
131586,note_off,114,0,0,,6,,,66,127
131587,note_on,1,0,0,,3,,,63,127
131701,note_off,114,0,0,,3,,,63,127
131702,note_on,1,0,0,,4,,,64,127
131816,note_off,114,0,0,,4,,,64,127
131817,note_on,1,0,0,,12,,,59,127
131931,note_off,114,0,0,,12,,,59,127
131932,note_on,1,0,0,,7,,,67,127
132046,note_off,114,0,0,,7,,,67,127
132047,note_on,1,0,0,,10,,,69,127
132161,note_off,114,0,0,,10,,,69,127
132162,note_on,1,0,0,,12,,,71,127
132162,note_on,0,0,0,,6,,,78,127
132162,note_on,0,0,0,,3,,,75,127
132277,note_on,115,0,0,,7,,,67,127
132391,note_off,114,0,0,,7,,,67,127
132392,note_on,1,0,0,,10,,,69,127
132506,note_off,114,0,0,,10,,,69,127
132507,note_on,1,0,0,,6,,,66,127
132621,note_off,114,0,0,,6,,,66,127
132621,note_off,0,0,0,,3,,,75,127
132621,note_off,0,0,0,,6,,,78,127
132621,note_off,0,0,0,,12,,,71,127
132622,note_on,1,0,0,,7,,,67,127
132622,note_on,0,0,0,,7,,,79,127
132622,note_on,0,0,0,,4,,,76,127
132622,note_on,0,0,0,,12,,,71,127
132736,note_off,114,0,0,,7,,,67,127
132737,note_on,1,0,0,,12,,,59,127
132851,note_off,114,0,0,,12,,,59,127
132852,note_on,1,0,0,,4,,,64,127
132966,note_off,114,0,0,,4,,,64,127
132967,note_on,1,0,0,,6,,,66,127
133081,note_off,114,0,0,,6,,,66,127
133082,note_on,1,0,0,,7,,,67,127
133196,note_off,114,0,0,,7,,,67,127
133197,note_on,1,0,0,,4,,,64,127
133311,note_off,114,0,0,,4,,,64,127
133312,note_on,1,0,0,,6,,,66,127
133426,note_off,114,0,0,,6,,,66,127
133427,note_on,1,0,0,,3,,,63,127
133541,note_off,114,0,0,,3,,,63,127
133542,note_on,1,0,0,,4,,,64,127
133656,note_off,114,0,0,,4,,,64,127
133657,note_on,1,0,0,,12,,,59,127
133771,note_off,114,0,0,,12,,,59,127
133772,note_on,1,0,0,,7,,,67,127
133886,note_off,114,0,0,,7,,,67,127
133887,note_on,1,0,0,,10,,,69,127
134001,note_off,114,0,0,,10,,,69,127
134001,note_off,0,0,0,,12,,,71,127
134001,note_off,0,0,0,,4,,,76,127
134001,note_off,0,0,0,,7,,,79,127
134002,note_on,1,0,0,,12,,,71,127
134002,note_on,0,0,0,,6,,,78,127
134002,note_on,0,0,0,,3,,,75,127
134117,note_on,115,0,0,,7,,,67,127
134231,note_off,114,0,0,,7,,,67,127
134232,note_on,1,0,0,,10,,,69,127
134346,note_off,114,0,0,,10,,,69,127
134347,note_on,1,0,0,,6,,,66,127
134461,note_off,114,0,0,,6,,,66,127
134461,note_off,0,0,0,,3,,,75,127
134461,note_off,0,0,0,,6,,,78,127
134461,note_off,0,0,0,,12,,,71,127
134462,note_on,1,0,0,,7,,,67,127
134462,note_on,0,0,0,,12,,,71,127
134462,note_on,0,0,0,,7,,,79,127
134462,note_on,0,0,0,,4,,,76,127
134576,note_off,114,0,0,,7,,,67,127
134577,note_on,1,0,0,,4,,,64,127
134691,note_off,114,0,0,,4,,,64,127
134692,note_on,1,0,0,,6,,,66,127
134806,note_off,114,0,0,,6,,,66,127
134807,note_on,1,0,0,,3,,,63,127
134921,note_off,114,0,0,,3,,,63,127
134922,note_on,1,0,0,,4,,,64,127
135036,note_off,114,0,0,,4,,,64,127
135037,note_on,1,0,0,,12,,,59,127
135151,note_off,114,0,0,,12,,,59,127
135152,note_on,1,0,0,,7,,,55,127
135266,note_off,114,0,0,,7,,,55,127
135267,note_on,1,0,0,,4,,,52,127
135409,note_off,142,0,0,,4,,,52,127
135415,note_on,6,0,0,,12,,,47,127
135842,note_off,427,0,0,,4,,,76,127
135842,note_off,0,0,0,,7,,,79,127
135842,note_off,0,0,0,,12,,,71,127
136016,note_on,174,0,0,,12,,,59,127
136016,note_on,0,0,0,,12,,,71,127
136016,note_on,0,0,0,,10,,,81,127
136016,note_on,0,0,0,,6,,,78,127
136016,note_on,0,0,0,,3,,,75,127
136597,note_off,581,0,0,,12,,,47,127
136657,note_off,60,0,0,,3,,,75,127
136657,note_off,0,0,0,,6,,,78,127
136657,note_off,0,0,0,,10,,,81,127
136657,note_off,0,0,0,,12,,,71,127
136657,note_off,0,0,0,,12,,,59,127
136661,note_on,4,0,0,,0,,,48,127
136661,note_on,0,0,0,,7,,,55,127
136661,note_on,0,0,0,,10,,,57,127
136661,note_on,0,0,0,,10,,,81,127
136661,note_on,0,0,0,,0,,,72,127
136816,note_off,155,0,0,,10,,,81,127
136822,note_on,6,0,0,,7,,,79,127
136977,note_off,155,0,0,,7,,,79,127
136982,note_on,5,0,0,,6,,,78,127
137137,note_off,155,0,0,,6,,,78,127
137144,note_on,7,0,0,,4,,,76,127
137299,note_off,155,0,0,,4,,,76,127
137303,note_off,4,0,0,,10,,,57,127
137303,note_off,0,0,0,,7,,,55,127
137303,note_off,0,0,0,,0,,,48,127
137304,note_off,1,0,0,,0,,,72,127
137306,note_on,2,0,0,,10,,,57,127
137306,note_on,0,0,0,,10,,,45,127
137306,note_on,0,0,0,,4,,,52,127
137306,note_on,0,0,0,,6,,,54,127
137306,note_on,0,0,0,,0,,,72,127
137306,note_on,0,0,0,,4,,,76,127
137461,note_off,155,0,0,,4,,,76,127
137467,note_on,6,0,0,,3,,,75,127
137622,note_off,155,0,0,,3,,,75,127
137628,note_on,6,0,0,,4,,,76,127
137783,note_off,155,0,0,,4,,,76,127
137788,note_on,5,0,0,,6,,,78,127
137948,note_off,160,0,0,,6,,,54,127
137948,note_off,0,0,0,,4,,,52,127
137948,note_off,0,0,0,,10,,,45,127
137948,note_off,0,0,0,,10,,,57,127
137949,note_off,1,0,0,,0,,,72,127
137960,note_off,11,0,0,,6,,,78,127
137965,note_on,5,0,0,,7,,,67,127
137965,note_on,0,0,0,,7,,,55,127
137965,note_on,0,0,0,,12,,,47,127
137965,note_on,0,0,0,,4,,,52,127
138143,note_on,178,0,0,,3,,,75,127
138315,note_off,172,0,0,,3,,,75,127
138319,note_on,4,0,0,,4,,,76,127
138491,note_off,172,0,0,,4,,,76,127
138495,note_off,4,0,0,,7,,,67,127
138499,note_on,4,0,0,,10,,,69,127
138671,note_off,172,0,0,,10,,,69,127
138672,note_off,1,0,0,,4,,,52,127
138672,note_off,0,0,0,,12,,,47,127
138672,note_off,0,0,0,,7,,,55,127
138678,note_on,6,0,0,,7,,,67,127
138678,note_on,0,0,0,,10,,,57,127
138678,note_on,0,0,0,,6,,,54,127
138678,note_on,0,0,0,,4,,,52,127
138678,note_on,0,0,0,,12,,,47,127
138854,note_on,176,0,0,,4,,,76,127
139029,note_off,175,0,0,,7,,,67,127
139030,note_on,1,0,0,,6,,,66,127
139205,note_off,175,0,0,,4,,,76,127
139206,note_on,1,0,0,,3,,,75,127
139381,note_off,175,0,0,,12,,,47,127
139381,note_off,0,0,0,,4,,,52,127
139381,note_off,0,0,0,,6,,,54,127
139381,note_off,0,0,0,,10,,,57,127
139397,note_off,16,0,0,,6,,,66,127
139419,note_on,22,0,0,,4,,,64,127
139419,note_on,0,0,0,,4,,,40,127
139419,note_on,0,0,0,,4,,,52,127
139419,note_on,0,0,0,,4,,,76,127
139426,note_off,7,0,0,,3,,,75,127
142299,note_off,2873,0,0,,4,,,76,127
142299,note_off,0,0,0,,4,,,52,127
142299,note_off,0,0,0,,4,,,40,127
142299,note_off,0,0,0,,4,,,64,127
144384,end_of_track,2085,1,0,,,,,,
