tick,type,time,meta,track,program,channel,pitch,tempo,note,velocity
0,copyright,0,1,0,,,,,,
0,program_change,0,0,0,6,0,,,,
0,pitchwheel,0,0,0,,0,0,,,
0,program_change,0,0,0,6,1,,,,
0,pitchwheel,0,0,0,,1,-590,,,
0,program_change,0,0,0,6,2,,,,
0,pitchwheel,0,0,0,,2,-272,,,
0,program_change,0,0,0,6,3,,,,
0,pitchwheel,0,0,0,,3,-353,,,
0,program_change,0,0,0,6,4,,,,
0,pitchwheel,0,0,0,,4,-560,,,
0,program_change,0,0,0,6,5,,,,
0,pitchwheel,0,0,0,,5,-80,,,
0,program_change,0,0,0,6,6,,,,
0,pitchwheel,0,0,0,,6,-625,,,
0,program_change,0,0,0,6,7,,,,
0,pitchwheel,0,0,0,,7,-130,,,
0,program_change,0,0,0,6,8,,,,
0,pitchwheel,0,0,0,,8,-512,,,
0,program_change,0,0,0,6,10,,,,
0,pitchwheel,0,0,0,,10,-464,,,
0,program_change,0,0,0,6,11,,,,
0,pitchwheel,0,0,0,,11,-208,,,
0,program_change,0,0,0,6,12,,,,
0,pitchwheel,0,0,0,,12,-553,,,
0,set_tempo,0,1,0,,,,500000,,
103,note_on,103,0,0,,4,,,76,127
309,note_on,206,0,0,,4,,,64,127
514,note_off,205,0,0,,4,,,64,127
515,note_on,1,0,0,,6,,,66,127
720,note_off,205,0,0,,6,,,66,127
721,note_off,1,0,0,,4,,,76,127
721,note_on,0,0,0,,2,,,74,127
721,note_on,0,0,0,,8,,,68,127
926,note_off,205,0,0,,8,,,68,127
927,note_on,1,0,0,,10,,,69,127
1132,note_off,205,0,0,,10,,,69,127
1133,note_on,1,0,0,,12,,,71,127
1338,note_off,205,0,0,,12,,,71,127
1339,note_off,1,0,0,,2,,,74,127
1339,note_on,0,0,0,,10,,,81,127
1339,note_on,0,0,0,,10,,,69,127
1544,note_off,205,0,0,,10,,,69,127
1545,note_on,1,0,0,,12,,,71,127
1750,note_off,205,0,0,,12,,,71,127
1751,note_on,1,0,0,,1,,,73,127
1956,note_off,205,0,0,,1,,,73,127
1957,note_off,1,0,0,,10,,,81,127
1957,note_on,0,0,0,,10,,,81,127
1957,note_on,0,0,0,,12,,,71,127
2162,note_off,205,0,0,,12,,,71,127
2163,note_on,1,0,0,,1,,,73,127
2368,note_off,205,0,0,,1,,,73,127
2369,note_on,1,0,0,,3,,,75,127
2574,note_off,205,0,0,,3,,,75,127
2575,note_off,1,0,0,,10,,,81,127
2575,note_on,0,0,0,,4,,,64,127
2575,note_on,0,0,0,,4,,,76,127
2575,note_on,0,0,0,,8,,,80,127
2781,note_on,206,0,0,,4,,,52,127
2986,note_off,205,0,0,,4,,,52,127
2987,note_on,1,0,0,,6,,,54,127
3192,note_off,205,0,0,,6,,,54,127
3192,note_off,0,0,0,,8,,,80,127
3192,note_off,0,0,0,,4,,,76,127
3193,note_off,1,0,0,,4,,,64,127
3193,note_on,0,0,0,,8,,,56,127
3193,note_on,0,0,0,,2,,,62,127
3193,note_on,0,0,0,,2,,,74,127
3193,note_on,0,0,0,,8,,,80,127
3398,note_off,205,0,0,,8,,,56,127
3399,note_on,1,0,0,,10,,,57,127
3604,note_off,205,0,0,,10,,,57,127
3605,note_on,1,0,0,,12,,,59,127
3810,note_off,205,0,0,,12,,,59,127
3810,note_off,0,0,0,,8,,,80,127
3810,note_off,0,0,0,,2,,,74,127
3811,note_off,1,0,0,,2,,,62,127
3811,note_on,0,0,0,,10,,,57,127
3811,note_on,0,0,0,,10,,,69,127
3811,note_on,0,0,0,,10,,,81,127
3811,note_on,0,0,0,,1,,,73,127
4016,note_off,205,0,0,,10,,,57,127
4017,note_on,1,0,0,,12,,,59,127
4222,note_off,205,0,0,,12,,,59,127
4223,note_on,1,0,0,,1,,,61,127
4428,note_off,205,0,0,,1,,,61,127
4428,note_off,0,0,0,,1,,,73,127
4428,note_off,0,0,0,,10,,,81,127
4429,note_off,1,0,0,,10,,,69,127
4429,note_on,0,0,0,,10,,,69,127
4429,note_on,0,0,0,,12,,,59,127
4429,note_on,0,0,0,,6,,,78,127
4429,note_on,0,0,0,,10,,,81,127
4634,note_off,205,0,0,,12,,,59,127
4635,note_on,1,0,0,,1,,,61,127
4840,note_off,205,0,0,,1,,,61,127
4841,note_on,1,0,0,,3,,,63,127
5046,note_off,205,0,0,,3,,,63,127
5046,note_off,0,0,0,,10,,,81,127
5046,note_off,0,0,0,,6,,,78,127
5047,note_off,1,0,0,,10,,,69,127
5047,note_on,0,0,0,,4,,,64,127
5047,note_on,0,0,0,,8,,,80,127
5047,note_on,0,0,0,,4,,,76,127
5252,note_off,205,0,0,,4,,,64,127
5253,note_on,1,0,0,,6,,,66,127
5458,note_off,205,0,0,,6,,,66,127
5458,note_off,0,0,0,,4,,,76,127
5458,note_off,0,0,0,,8,,,80,127
5459,note_on,1,0,0,,8,,,68,127
5459,note_on,0,0,0,,12,,,71,127
5664,note_off,205,0,0,,12,,,71,127
5664,note_off,0,0,0,,8,,,68,127
5665,note_on,1,0,0,,10,,,69,127
5665,note_on,0,0,0,,1,,,73,127
5870,note_off,205,0,0,,10,,,69,127
5871,note_on,1,0,0,,8,,,68,127
6076,note_off,205,0,0,,8,,,68,127
6076,note_off,0,0,0,,1,,,73,127
6077,note_on,1,0,0,,6,,,66,127
6077,note_on,0,0,0,,3,,,75,127
6282,note_off,205,0,0,,3,,,75,127
6282,note_off,0,0,0,,6,,,66,127
6283,note_on,1,0,0,,8,,,68,127
6283,note_on,0,0,0,,12,,,71,127
6283,note_on,0,0,0,,4,,,76,127
6488,note_off,205,0,0,,12,,,71,127
6488,note_off,0,0,0,,8,,,68,127
6489,note_on,1,0,0,,6,,,66,127
6489,note_on,0,0,0,,10,,,69,127
6694,note_off,205,0,0,,10,,,69,127
6694,note_off,0,0,0,,6,,,66,127
6695,note_on,1,0,0,,4,,,64,127
6695,note_on,0,0,0,,8,,,68,127
6900,note_off,205,0,0,,8,,,68,127
6900,note_off,0,0,0,,4,,,64,127
6901,note_off,1,0,0,,4,,,76,127
6901,note_on,0,0,0,,10,,,57,127
6901,note_on,0,0,0,,6,,,66,127
7106,note_off,205,0,0,,6,,,66,127
7106,note_off,0,0,0,,10,,,57,127
7107,note_on,1,0,0,,12,,,59,127
7107,note_on,0,0,0,,4,,,64,127
7312,note_off,205,0,0,,4,,,64,127
7312,note_off,0,0,0,,12,,,59,127
7313,note_on,1,0,0,,12,,,47,127
7313,note_on,0,0,0,,3,,,63,127
7518,note_off,205,0,0,,3,,,63,127
7518,note_off,0,0,0,,12,,,47,127
7519,note_on,1,0,0,,4,,,52,127
7519,note_on,0,0,0,,3,,,63,127
7724,note_off,205,0,0,,4,,,52,127
7736,note_on,12,0,0,,4,,,40,127
7927,note_off,191,0,0,,3,,,63,127
7957,note_on,30,0,0,,4,,,64,127
8147,note_off,190,0,0,,4,,,40,127
8161,note_off,14,0,0,,4,,,64,127
8170,note_on,9,0,0,,4,,,64,127
8376,note_on,206,0,0,,8,,,68,127
8581,note_off,205,0,0,,8,,,68,127
8582,note_on,1,0,0,,8,,,80,127
8787,note_off,205,0,0,,4,,,64,127
8788,note_on,1,0,0,,11,,,70,127
8788,note_on,0,0,0,,6,,,66,127
8993,note_off,205,0,0,,8,,,80,127
8994,note_on,1,0,0,,6,,,78,127
9199,note_off,205,0,0,,6,,,78,127
9199,note_off,0,0,0,,11,,,70,127
9200,note_on,1,0,0,,8,,,68,127
9200,note_on,0,0,0,,4,,,76,127
9405,note_off,205,0,0,,4,,,76,127
9405,note_off,0,0,0,,8,,,68,127
9406,note_off,1,0,0,,6,,,66,127
9406,note_on,0,0,0,,11,,,70,127
9406,note_on,0,0,0,,6,,,66,127
9406,note_on,0,0,0,,4,,,76,127
9611,note_off,205,0,0,,4,,,76,127
9612,note_on,1,0,0,,3,,,75,127
9817,note_off,205,0,0,,3,,,75,127
9818,note_on,1,0,0,,1,,,73,127
10023,note_off,205,0,0,,1,,,73,127
10023,note_off,0,0,0,,6,,,66,127
10023,note_off,0,0,0,,11,,,70,127
10024,note_on,1,0,0,,12,,,71,127
10024,note_on,0,0,0,,6,,,66,127
10024,note_on,0,0,0,,6,,,78,127
10024,note_on,0,0,0,,4,,,76,127
10229,note_off,205,0,0,,4,,,76,127
10229,note_off,0,0,0,,6,,,78,127
10230,note_on,1,0,0,,3,,,75,127
10435,note_off,205,0,0,,3,,,75,127
10435,note_off,0,0,0,,12,,,71,127
10436,note_on,1,0,0,,11,,,70,127
10436,note_on,0,0,0,,1,,,73,127
10641,note_off,205,0,0,,1,,,73,127
10641,note_off,0,0,0,,11,,,70,127
10642,note_off,1,0,0,,6,,,66,127
10642,note_on,0,0,0,,12,,,71,127
10642,note_on,0,0,0,,6,,,66,127
10642,note_on,0,0,0,,6,,,78,127
10642,note_on,0,0,0,,4,,,76,127
10847,note_off,205,0,0,,4,,,76,127
10847,note_off,0,0,0,,6,,,78,127
10848,note_on,1,0,0,,3,,,75,127
11053,note_off,205,0,0,,3,,,75,127
11053,note_off,0,0,0,,12,,,71,127
11054,note_on,1,0,0,,11,,,70,127
11054,note_on,0,0,0,,1,,,73,127
11259,note_off,205,0,0,,1,,,73,127
11259,note_off,0,0,0,,11,,,70,127
11260,note_off,1,0,0,,6,,,66,127
11260,note_on,0,0,0,,6,,,66,127
11260,note_on,0,0,0,,12,,,71,127
11260,note_on,0,0,0,,6,,,78,127
11260,note_on,0,0,0,,4,,,76,127
11465,note_off,205,0,0,,4,,,76,127
11465,note_off,0,0,0,,6,,,78,127
11466,note_on,1,0,0,,3,,,75,127
11671,note_off,205,0,0,,3,,,75,127
11671,note_off,0,0,0,,12,,,71,127
11672,note_on,1,0,0,,11,,,70,127
11672,note_on,0,0,0,,1,,,73,127
11877,note_off,205,0,0,,11,,,70,127
11878,note_off,1,0,0,,1,,,73,127
11878,note_off,0,0,0,,6,,,66,127
11878,note_on,0,0,0,,10,,,69,127
12084,note_on,206,0,0,,10,,,81,127
12290,note_on,206,0,0,,6,,,66,127
12290,note_on,0,0,0,,1,,,73,127
12495,note_off,205,0,0,,1,,,73,127
12495,note_off,0,0,0,,6,,,66,127
12495,note_off,0,0,0,,10,,,69,127
12496,note_on,1,0,0,,8,,,68,127
12496,note_on,0,0,0,,0,,,72,127
12701,note_off,205,0,0,,0,,,72,127
12701,note_off,0,0,0,,10,,,81,127
12702,note_on,1,0,0,,8,,,80,127
12907,note_off,205,0,0,,8,,,80,127
12907,note_off,0,0,0,,8,,,68,127
12908,note_on,1,0,0,,11,,,70,127
12908,note_on,0,0,0,,6,,,78,127
13113,note_off,205,0,0,,6,,,78,127
13113,note_off,0,0,0,,11,,,70,127
13114,note_on,1,0,0,,0,,,72,127
13114,note_on,0,0,0,,8,,,68,127
13114,note_on,0,0,0,,6,,,78,127
13319,note_off,205,0,0,,6,,,78,127
13320,note_on,1,0,0,,4,,,76,127
13525,note_off,205,0,0,,4,,,76,127
13526,note_on,1,0,0,,3,,,75,127
13731,note_off,205,0,0,,3,,,75,127
13731,note_off,0,0,0,,8,,,68,127
13731,note_off,0,0,0,,0,,,72,127
13732,note_on,1,0,0,,1,,,73,127
13732,note_on,0,0,0,,8,,,68,127
13732,note_on,0,0,0,,6,,,78,127
13732,note_on,0,0,0,,8,,,80,127
13937,note_off,205,0,0,,8,,,80,127
13937,note_off,0,0,0,,6,,,78,127
13938,note_on,1,0,0,,4,,,76,127
14143,note_off,205,0,0,,4,,,76,127
14143,note_off,0,0,0,,1,,,73,127
14144,note_on,1,0,0,,0,,,72,127
14144,note_on,0,0,0,,3,,,75,127
14349,note_off,205,0,0,,3,,,75,127
14349,note_off,0,0,0,,0,,,72,127
14350,note_off,1,0,0,,8,,,68,127
14350,note_on,0,0,0,,1,,,73,127
14350,note_on,0,0,0,,8,,,68,127
14350,note_on,0,0,0,,6,,,78,127
14350,note_on,0,0,0,,8,,,80,127
14555,note_off,205,0,0,,8,,,80,127
14555,note_off,0,0,0,,6,,,78,127
14556,note_on,1,0,0,,4,,,76,127
14761,note_off,205,0,0,,4,,,76,127
14761,note_off,0,0,0,,1,,,73,127
14762,note_on,1,0,0,,0,,,72,127
14762,note_on,0,0,0,,3,,,75,127
14967,note_off,205,0,0,,3,,,75,127
14967,note_off,0,0,0,,0,,,72,127
14968,note_off,1,0,0,,8,,,68,127
14968,note_on,0,0,0,,8,,,68,127
14968,note_on,0,0,0,,1,,,73,127
14968,note_on,0,0,0,,6,,,78,127
14968,note_on,0,0,0,,8,,,80,127
15173,note_off,205,0,0,,8,,,80,127
15173,note_off,0,0,0,,6,,,78,127
15174,note_on,1,0,0,,4,,,76,127
15379,note_off,205,0,0,,4,,,76,127
15379,note_off,0,0,0,,1,,,73,127
15391,note_on,12,0,0,,3,,,75,127
15391,note_on,0,0,0,,0,,,72,127
15586,note_off,195,0,0,,8,,,68,127
15700,note_off,114,0,0,,0,,,72,127
15700,note_off,0,0,0,,3,,,75,127
15856,note_on,156,0,0,,8,,,80,127
15856,note_on,0,0,0,,8,,,68,127
16061,note_off,205,0,0,,8,,,68,127
16061,note_off,0,0,0,,8,,,80,127
16062,note_on,1,0,0,,11,,,82,127
16062,note_on,0,0,0,,7,,,67,127
16267,note_off,205,0,0,,7,,,67,127
16267,note_off,0,0,0,,11,,,82,127
16268,note_on,1,0,0,,12,,,83,127
16268,note_on,0,0,0,,8,,,68,127
16473,note_off,205,0,0,,8,,,68,127
16473,note_off,0,0,0,,12,,,83,127
16474,note_on,1,0,0,,8,,,80,127
16474,note_on,0,0,0,,4,,,64,127
16679,note_off,205,0,0,,4,,,64,127
16679,note_off,0,0,0,,8,,,80,127
16680,note_on,1,0,0,,4,,,76,127
16680,note_on,0,0,0,,1,,,61,127
16885,note_off,205,0,0,,1,,,61,127
16885,note_off,0,0,0,,4,,,76,127
16886,note_on,1,0,0,,1,,,73,127
16886,note_on,0,0,0,,11,,,58,127
17091,note_off,205,0,0,,11,,,58,127
17091,note_off,0,0,0,,1,,,73,127
17092,note_on,1,0,0,,11,,,70,127
17092,note_on,0,0,0,,7,,,55,127
17297,note_off,205,0,0,,7,,,55,127
17297,note_off,0,0,0,,11,,,70,127
17298,note_on,1,0,0,,3,,,75,127
17298,note_on,0,0,0,,3,,,51,127
17503,note_off,205,0,0,,3,,,51,127
17503,note_off,0,0,0,,3,,,75,127
17504,note_on,1,0,0,,1,,,73,127
17504,note_on,0,0,0,,12,,,71,127
17504,note_on,0,0,0,,8,,,56,127
17504,note_on,0,0,0,,8,,,44,127
17709,note_off,205,0,0,,12,,,71,127
17709,note_off,0,0,0,,1,,,73,127
17710,note_on,1,0,0,,11,,,70,127
17915,note_off,205,0,0,,11,,,70,127
17916,note_on,1,0,0,,8,,,68,127
18121,note_off,205,0,0,,8,,,44,127
18121,note_off,0,0,0,,8,,,56,127
18131,note_on,10,0,0,,8,,,56,127
18225,note_off,94,0,0,,8,,,68,127
18336,note_on,111,0,0,,3,,,75,127
18336,note_on,0,0,0,,12,,,83,127
18541,note_off,205,0,0,,12,,,83,127
18541,note_off,0,0,0,,3,,,75,127
18542,note_on,1,0,0,,1,,,73,127
18542,note_on,0,0,0,,11,,,82,127
18747,note_off,205,0,0,,11,,,82,127
18747,note_off,0,0,0,,1,,,73,127
18747,note_off,0,0,0,,8,,,56,127
18748,note_on,1,0,0,,8,,,56,127
18748,note_on,0,0,0,,11,,,82,127
18748,note_on,0,0,0,,1,,,73,127
18953,note_off,205,0,0,,1,,,73,127
18953,note_off,0,0,0,,11,,,82,127
18954,note_on,1,0,0,,8,,,80,127
18954,note_on,0,0,0,,12,,,71,127
19159,note_off,205,0,0,,12,,,71,127
19159,note_off,0,0,0,,8,,,80,127
19160,note_on,1,0,0,,11,,,70,127
19160,note_on,0,0,0,,6,,,78,127
19365,note_off,205,0,0,,6,,,78,127
19365,note_off,0,0,0,,11,,,70,127
19365,note_off,0,0,0,,8,,,56,127
19366,note_on,1,0,0,,8,,,56,127
19366,note_on,0,0,0,,6,,,78,127
19366,note_on,0,0,0,,11,,,70,127
19571,note_off,205,0,0,,11,,,70,127
19571,note_off,0,0,0,,6,,,78,127
19572,note_on,1,0,0,,8,,,68,127
19572,note_on,0,0,0,,5,,,77,127
19777,note_off,205,0,0,,5,,,77,127
19777,note_off,0,0,0,,8,,,68,127
19777,note_off,0,0,0,,8,,,56,127
19778,note_on,1,0,0,,10,,,57,127
19778,note_on,0,0,0,,6,,,66,127
19778,note_on,0,0,0,,3,,,75,127
19983,note_off,205,0,0,,3,,,75,127
19983,note_off,0,0,0,,6,,,66,127
19983,note_off,0,0,0,,10,,,57,127
19984,note_on,1,0,0,,11,,,58,127
19984,note_on,0,0,0,,3,,,75,127
19984,note_on,0,0,0,,6,,,66,127
20189,note_off,205,0,0,,6,,,66,127
20189,note_off,0,0,0,,3,,,75,127
20190,note_on,1,0,0,,5,,,65,127
20190,note_on,0,0,0,,2,,,74,127
20395,note_off,205,0,0,,2,,,74,127
20395,note_off,0,0,0,,5,,,65,127
20395,note_off,0,0,0,,11,,,58,127
20396,note_on,1,0,0,,12,,,59,127
20396,note_on,0,0,0,,6,,,66,127
20396,note_on,0,0,0,,3,,,75,127
20601,note_off,205,0,0,,3,,,75,127
20601,note_off,0,0,0,,6,,,66,127
20601,note_off,0,0,0,,12,,,59,127
20602,note_on,1,0,0,,11,,,58,127
20602,note_on,0,0,0,,6,,,66,127
20602,note_on,0,0,0,,3,,,75,127
20807,note_off,205,0,0,,3,,,75,127
20807,note_off,0,0,0,,6,,,66,127
20808,note_on,1,0,0,,5,,,65,127
20808,note_on,0,0,0,,2,,,74,127
21013,note_off,205,0,0,,2,,,74,127
21013,note_off,0,0,0,,5,,,65,127
21013,note_off,0,0,0,,11,,,58,127
21014,note_on,1,0,0,,12,,,59,127
21014,note_on,0,0,0,,3,,,75,127
21014,note_on,0,0,0,,6,,,66,127
21219,note_off,205,0,0,,6,,,66,127
21219,note_off,0,0,0,,3,,,75,127
21219,note_off,0,0,0,,12,,,59,127
21220,note_on,1,0,0,,11,,,58,127
21220,note_on,0,0,0,,6,,,66,127
21220,note_on,0,0,0,,3,,,75,127
21425,note_off,205,0,0,,3,,,75,127
21425,note_off,0,0,0,,6,,,66,127
21426,note_on,1,0,0,,5,,,65,127
21426,note_on,0,0,0,,2,,,74,127
21631,note_off,205,0,0,,2,,,74,127
21631,note_off,0,0,0,,5,,,65,127
21631,note_off,0,0,0,,11,,,58,127
21632,note_on,1,0,0,,12,,,59,127
21632,note_on,0,0,0,,3,,,75,127
21632,note_on,0,0,0,,6,,,66,127
21837,note_off,205,0,0,,6,,,66,127
21837,note_off,0,0,0,,3,,,75,127
21837,note_off,0,0,0,,12,,,59,127
21838,note_on,1,0,0,,11,,,58,127
21838,note_on,0,0,0,,2,,,74,127
21838,note_on,0,0,0,,5,,,65,127
22043,note_off,205,0,0,,5,,,65,127
22043,note_off,0,0,0,,2,,,74,127
22043,note_off,0,0,0,,11,,,58,127
22044,note_on,1,0,0,,12,,,59,127
22044,note_on,0,0,0,,5,,,77,127
22095,note_on,51,0,0,,3,,,75,127
22111,note_off,16,0,0,,5,,,77,127
22146,note_on,35,0,0,,5,,,77,127
22162,note_off,16,0,0,,3,,,75,127
22197,note_on,35,0,0,,3,,,75,127
22213,note_off,16,0,0,,5,,,77,127
22248,note_on,35,0,0,,5,,,77,127
22264,note_off,16,0,0,,3,,,75,127
22299,note_on,35,0,0,,3,,,75,127
22315,note_off,16,0,0,,5,,,77,127
22350,note_on,35,0,0,,2,,,74,127
22366,note_off,16,0,0,,3,,,75,127
22401,note_on,35,0,0,,3,,,75,127
22417,note_off,16,0,0,,2,,,74,127
22446,note_off,29,0,0,,3,,,75,127
22451,note_off,5,0,0,,12,,,59,127
22452,note_on,1,0,0,,11,,,58,127
22452,note_on,0,0,0,,3,,,75,127
22658,note_off,206,0,0,,3,,,75,127
22658,note_on,0,0,0,,5,,,77,127
22760,note_off,102,0,0,,11,,,58,127
22761,note_on,1,0,0,,8,,,56,127
22863,note_off,102,0,0,,8,,,56,127
22864,note_on,1,0,0,,6,,,54,127
22966,note_off,102,0,0,,6,,,54,127
22967,note_on,1,0,0,,5,,,53,127
23069,note_off,102,0,0,,5,,,53,127
23070,note_off,1,0,0,,5,,,77,127
23070,note_on,0,0,0,,3,,,51,127
23276,note_on,206,0,0,,11,,,82,127
23276,note_on,0,0,0,,6,,,78,127
23481,note_off,205,0,0,,6,,,78,127
23481,note_off,0,0,0,,11,,,82,127
23482,note_on,1,0,0,,5,,,77,127
23482,note_on,0,0,0,,8,,,80,127
23687,note_off,205,0,0,,8,,,80,127
23687,note_off,0,0,0,,5,,,77,127
23687,note_off,0,0,0,,3,,,51,127
23688,note_on,1,0,0,,3,,,51,127
23688,note_on,0,0,0,,8,,,80,127
23688,note_on,0,0,0,,5,,,77,127
23893,note_off,205,0,0,,5,,,77,127
23893,note_off,0,0,0,,8,,,80,127
23894,note_on,1,0,0,,6,,,78,127
23894,note_on,0,0,0,,3,,,75,127
24099,note_off,205,0,0,,3,,,75,127
24099,note_off,0,0,0,,6,,,78,127
24099,note_off,0,0,0,,3,,,51,127
24100,note_on,1,0,0,,5,,,53,127
24100,note_on,0,0,0,,5,,,77,127
24100,note_on,0,0,0,,1,,,73,127
24305,note_off,205,0,0,,1,,,73,127
24305,note_off,0,0,0,,5,,,77,127
24305,note_off,0,0,0,,5,,,53,127
24306,note_on,1,0,0,,6,,,54,127
24306,note_on,0,0,0,,1,,,73,127
24306,note_on,0,0,0,,5,,,77,127
24511,note_off,205,0,0,,5,,,77,127
24511,note_off,0,0,0,,1,,,73,127
24512,note_on,1,0,0,,3,,,75,127
24512,note_on,0,0,0,,0,,,72,127
24717,note_off,205,0,0,,0,,,72,127
24717,note_off,0,0,0,,3,,,75,127
24717,note_off,0,0,0,,6,,,54,127
24718,note_on,1,0,0,,7,,,55,127
24718,note_on,0,0,0,,11,,,70,127
24718,note_on,0,0,0,,1,,,73,127
24923,note_off,205,0,0,,1,,,73,127
24923,note_off,0,0,0,,11,,,70,127
24923,note_off,0,0,0,,7,,,55,127
24924,note_on,1,0,0,,8,,,56,127
24924,note_on,0,0,0,,1,,,73,127
24924,note_on,0,0,0,,11,,,70,127
25129,note_off,205,0,0,,11,,,70,127
25129,note_off,0,0,0,,1,,,73,127
25130,note_on,1,0,0,,8,,,68,127
25130,note_on,0,0,0,,0,,,72,127
25335,note_off,205,0,0,,0,,,72,127
25335,note_off,0,0,0,,8,,,68,127
25335,note_off,0,0,0,,8,,,56,127
25336,note_on,1,0,0,,11,,,58,127
25336,note_on,0,0,0,,1,,,73,127
25336,note_on,0,0,0,,7,,,67,127
25541,note_off,205,0,0,,7,,,67,127
25541,note_off,0,0,0,,1,,,73,127
25541,note_off,0,0,0,,11,,,58,127
25542,note_on,1,0,0,,8,,,56,127
25542,note_on,0,0,0,,1,,,73,127
25542,note_on,0,0,0,,7,,,67,127
25747,note_off,205,0,0,,7,,,67,127
25747,note_off,0,0,0,,1,,,73,127
25748,note_on,1,0,0,,8,,,68,127
25748,note_on,0,0,0,,0,,,72,127
25953,note_off,205,0,0,,0,,,72,127
25953,note_off,0,0,0,,8,,,68,127
25953,note_off,0,0,0,,8,,,56,127
25954,note_on,1,0,0,,11,,,58,127
25954,note_on,0,0,0,,1,,,73,127
25954,note_on,0,0,0,,7,,,67,127
26159,note_off,205,0,0,,7,,,67,127
26159,note_off,0,0,0,,1,,,73,127
26159,note_off,0,0,0,,11,,,58,127
26160,note_on,1,0,0,,8,,,56,127
26160,note_on,0,0,0,,7,,,67,127
26160,note_on,0,0,0,,1,,,73,127
26365,note_off,205,0,0,,1,,,73,127
26365,note_off,0,0,0,,7,,,67,127
26366,note_on,1,0,0,,0,,,72,127
26366,note_on,0,0,0,,8,,,68,127
26571,note_off,205,0,0,,8,,,68,127
26571,note_off,0,0,0,,0,,,72,127
26571,note_off,0,0,0,,8,,,56,127
26572,note_on,1,0,0,,11,,,58,127
26572,note_on,0,0,0,,7,,,67,127
26572,note_on,0,0,0,,1,,,73,127
26777,note_off,205,0,0,,1,,,73,127
26777,note_off,0,0,0,,7,,,67,127
26777,note_off,0,0,0,,11,,,58,127
26778,note_on,1,0,0,,8,,,56,127
26778,note_on,0,0,0,,8,,,68,127
26778,note_on,0,0,0,,0,,,72,127
26983,note_off,205,0,0,,0,,,72,127
26983,note_off,0,0,0,,8,,,68,127
26983,note_off,0,0,0,,8,,,56,127
26984,note_on,1,0,0,,11,,,58,127
26984,note_on,0,0,0,,3,,,75,127
27035,note_on,51,0,0,,1,,,73,127
27051,note_off,16,0,0,,3,,,75,127
27086,note_on,35,0,0,,3,,,75,127
27102,note_off,16,0,0,,1,,,73,127
27137,note_on,35,0,0,,1,,,73,127
27153,note_off,16,0,0,,3,,,75,127
27188,note_on,35,0,0,,3,,,75,127
27204,note_off,16,0,0,,1,,,73,127
27239,note_on,35,0,0,,1,,,73,127
27255,note_off,16,0,0,,3,,,75,127
27290,note_on,35,0,0,,0,,,72,127
27306,note_off,16,0,0,,1,,,73,127
27341,note_on,35,0,0,,1,,,73,127
27357,note_off,16,0,0,,0,,,72,127
27388,note_off,31,0,0,,1,,,73,127
27391,note_off,3,0,0,,11,,,58,127
27392,note_on,1,0,0,,8,,,56,127
27392,note_on,0,0,0,,1,,,73,127
27597,note_off,205,0,0,,1,,,73,127
27598,note_on,1,0,0,,3,,,75,127
27700,note_off,102,0,0,,8,,,56,127
27701,note_on,1,0,0,,6,,,54,127
27803,note_off,102,0,0,,6,,,54,127
27804,note_on,1,0,0,,5,,,53,127
27906,note_off,102,0,0,,5,,,53,127
27907,note_on,1,0,0,,3,,,51,127
28009,note_off,102,0,0,,3,,,51,127
28010,note_off,1,0,0,,3,,,75,127
28010,note_on,0,0,0,,1,,,49,127
28216,note_on,206,0,0,,8,,,80,127
28216,note_on,0,0,0,,5,,,77,127
28421,note_off,205,0,0,,5,,,77,127
28421,note_off,0,0,0,,8,,,80,127
28422,note_on,1,0,0,,3,,,75,127
28422,note_on,0,0,0,,6,,,78,127
28627,note_off,205,0,0,,6,,,78,127
28627,note_off,0,0,0,,3,,,75,127
28627,note_off,0,0,0,,1,,,49,127
28628,note_on,1,0,0,,1,,,49,127
28628,note_on,0,0,0,,6,,,78,127
28628,note_on,0,0,0,,3,,,75,127
28833,note_off,205,0,0,,3,,,75,127
28833,note_off,0,0,0,,6,,,78,127
28834,note_on,1,0,0,,5,,,77,127
28834,note_on,0,0,0,,1,,,73,127
29039,note_off,205,0,0,,1,,,73,127
29039,note_off,0,0,0,,5,,,77,127
29039,note_off,0,0,0,,1,,,49,127
29040,note_on,1,0,0,,3,,,51,127
29040,note_on,0,0,0,,12,,,71,127
29040,note_on,0,0,0,,3,,,75,127
29245,note_off,205,0,0,,3,,,75,127
29245,note_off,0,0,0,,12,,,71,127
29245,note_off,0,0,0,,3,,,51,127
29246,note_on,1,0,0,,4,,,52,127
29246,note_on,0,0,0,,3,,,75,127
29246,note_on,0,0,0,,12,,,71,127
29451,note_off,205,0,0,,12,,,71,127
29451,note_off,0,0,0,,3,,,75,127
29452,note_on,1,0,0,,1,,,73,127
29452,note_on,0,0,0,,11,,,70,127
29657,note_off,205,0,0,,11,,,70,127
29657,note_off,0,0,0,,1,,,73,127
29657,note_off,0,0,0,,4,,,52,127
29658,note_on,1,0,0,,5,,,53,127
29658,note_on,0,0,0,,12,,,71,127
29658,note_on,0,0,0,,8,,,68,127
29863,note_off,205,0,0,,8,,,68,127
29863,note_off,0,0,0,,12,,,71,127
29863,note_off,0,0,0,,5,,,53,127
29864,note_on,1,0,0,,6,,,54,127
29864,note_on,0,0,0,,8,,,68,127
29864,note_on,0,0,0,,12,,,71,127
30069,note_off,205,0,0,,12,,,71,127
30069,note_off,0,0,0,,8,,,68,127
30070,note_on,1,0,0,,11,,,70,127
30070,note_on,0,0,0,,6,,,66,127
30275,note_off,205,0,0,,6,,,66,127
30275,note_off,0,0,0,,11,,,70,127
30275,note_off,0,0,0,,6,,,54,127
30276,note_on,1,0,0,,8,,,56,127
30276,note_on,0,0,0,,5,,,65,127
30276,note_on,0,0,0,,12,,,71,127
30481,note_off,205,0,0,,12,,,71,127
30481,note_off,0,0,0,,5,,,65,127
30481,note_off,0,0,0,,8,,,56,127
30482,note_on,1,0,0,,6,,,54,127
30482,note_on,0,0,0,,12,,,71,127
30482,note_on,0,0,0,,5,,,65,127
30687,note_off,205,0,0,,5,,,65,127
30687,note_off,0,0,0,,12,,,71,127
30688,note_on,1,0,0,,11,,,70,127
30688,note_on,0,0,0,,6,,,66,127
30893,note_off,205,0,0,,6,,,66,127
30893,note_off,0,0,0,,11,,,70,127
30893,note_off,0,0,0,,6,,,54,127
30894,note_on,1,0,0,,8,,,56,127
30894,note_on,0,0,0,,5,,,65,127
30894,note_on,0,0,0,,12,,,71,127
31099,note_off,205,0,0,,12,,,71,127
31099,note_off,0,0,0,,5,,,65,127
31099,note_off,0,0,0,,8,,,56,127
31100,note_on,1,0,0,,6,,,54,127
31100,note_on,0,0,0,,12,,,71,127
31100,note_on,0,0,0,,5,,,65,127
31305,note_off,205,0,0,,5,,,65,127
31305,note_off,0,0,0,,12,,,71,127
31306,note_on,1,0,0,,6,,,66,127
31306,note_on,0,0,0,,11,,,70,127
31511,note_off,205,0,0,,11,,,70,127
31511,note_off,0,0,0,,6,,,66,127
31511,note_off,0,0,0,,6,,,54,127
31512,note_on,1,0,0,,8,,,56,127
31512,note_on,0,0,0,,5,,,65,127
31512,note_on,0,0,0,,12,,,71,127
31717,note_off,205,0,0,,12,,,71,127
31717,note_off,0,0,0,,5,,,65,127
31717,note_off,0,0,0,,8,,,56,127
31718,note_on,1,0,0,,6,,,54,127
31718,note_on,0,0,0,,6,,,66,127
31718,note_on,0,0,0,,11,,,70,127
31923,note_off,205,0,0,,11,,,70,127
31923,note_off,0,0,0,,6,,,66,127
31923,note_off,0,0,0,,6,,,54,127
31924,note_on,1,0,0,,8,,,56,127
31924,note_on,0,0,0,,1,,,73,127
31975,note_on,51,0,0,,12,,,71,127
31991,note_off,16,0,0,,1,,,73,127
32026,note_on,35,0,0,,1,,,73,127
32042,note_off,16,0,0,,12,,,71,127
32077,note_on,35,0,0,,12,,,71,127
32093,note_off,16,0,0,,1,,,73,127
32128,note_on,35,0,0,,1,,,73,127
32144,note_off,16,0,0,,12,,,71,127
32179,note_on,35,0,0,,12,,,71,127
32195,note_off,16,0,0,,1,,,73,127
32230,note_on,35,0,0,,11,,,70,127
32246,note_off,16,0,0,,12,,,71,127
32281,note_on,35,0,0,,12,,,71,127
32297,note_off,16,0,0,,11,,,70,127
32326,note_off,29,0,0,,12,,,71,127
32331,note_off,5,0,0,,8,,,56,127
32332,note_on,1,0,0,,6,,,54,127
32332,note_on,0,0,0,,12,,,71,127
32537,note_off,205,0,0,,6,,,54,127
32549,note_on,12,0,0,,6,,,42,127
32774,note_off,225,0,0,,12,,,71,127
32776,note_on,2,0,0,,1,,,73,127
33050,note_off,274,0,0,,6,,,42,127
33256,note_off,206,0,0,,1,,,73,127
33498,note_on,242,0,0,,1,,,73,127
33703,note_off,205,0,0,,1,,,73,127
33704,note_on,1,0,0,,1,,,73,127
33909,note_off,205,0,0,,1,,,73,127
33910,note_on,1,0,0,,1,,,73,127
34115,note_off,205,0,0,,1,,,73,127
34116,note_on,1,0,0,,2,,,74,127
34116,note_on,0,0,0,,12,,,71,127
34116,note_on,0,0,0,,6,,,66,127
34321,note_off,205,0,0,,6,,,66,127
34321,note_off,0,0,0,,12,,,71,127
34321,note_off,0,0,0,,2,,,74,127
34322,note_on,1,0,0,,2,,,74,127
34322,note_on,0,0,0,,12,,,71,127
34322,note_on,0,0,0,,6,,,66,127
34527,note_off,205,0,0,,6,,,66,127
34527,note_off,0,0,0,,12,,,71,127
34527,note_off,0,0,0,,2,,,74,127
34528,note_on,1,0,0,,2,,,74,127
34528,note_on,0,0,0,,12,,,71,127
34528,note_on,0,0,0,,6,,,66,127
34733,note_off,205,0,0,,6,,,66,127
34733,note_off,0,0,0,,12,,,71,127
34733,note_off,0,0,0,,2,,,74,127
34734,note_on,1,0,0,,5,,,77,127
34734,note_on,0,0,0,,2,,,74,127
34734,note_on,0,0,0,,6,,,66,127
34734,note_on,0,0,0,,12,,,71,127
34939,note_off,205,0,0,,12,,,71,127
34939,note_off,0,0,0,,6,,,66,127
34939,note_off,0,0,0,,2,,,74,127
34939,note_off,0,0,0,,5,,,77,127
34940,note_on,1,0,0,,2,,,74,127
34940,note_on,0,0,0,,5,,,77,127
34940,note_on,0,0,0,,6,,,66,127
34940,note_on,0,0,0,,12,,,71,127
35145,note_off,205,0,0,,12,,,71,127
35145,note_off,0,0,0,,6,,,66,127
35145,note_off,0,0,0,,5,,,77,127
35145,note_off,0,0,0,,2,,,74,127
35146,note_on,1,0,0,,5,,,77,127
35146,note_on,0,0,0,,2,,,74,127
35146,note_on,0,0,0,,12,,,71,127
35146,note_on,0,0,0,,6,,,66,127
35351,note_off,205,0,0,,12,,,71,127
35351,note_off,0,0,0,,2,,,74,127
35351,note_off,0,0,0,,5,,,77,127
35352,note_on,1,0,0,,6,,,78,127
35352,note_on,0,0,0,,1,,,73,127
35352,note_on,0,0,0,,11,,,70,127
35557,note_off,205,0,0,,11,,,70,127
35557,note_off,0,0,0,,1,,,73,127
35558,note_on,1,0,0,,12,,,71,127
35558,note_on,0,0,0,,8,,,68,127
35763,note_off,205,0,0,,8,,,68,127
35763,note_off,0,0,0,,12,,,71,127
35764,note_on,1,0,0,,1,,,73,127
35764,note_on,0,0,0,,11,,,70,127
35969,note_off,205,0,0,,1,,,73,127
35970,note_off,1,0,0,,6,,,78,127
35970,note_on,0,0,0,,1,,,73,127
36175,note_off,205,0,0,,1,,,73,127
36176,note_on,1,0,0,,1,,,73,127
36381,note_off,205,0,0,,1,,,73,127
36381,note_off,0,0,0,,11,,,70,127
36382,note_off,1,0,0,,6,,,66,127
36382,note_on,0,0,0,,1,,,73,127
36587,note_off,205,0,0,,1,,,73,127
36588,note_on,1,0,0,,2,,,74,127
36588,note_on,0,0,0,,12,,,71,127
36588,note_on,0,0,0,,6,,,66,127
36793,note_off,205,0,0,,6,,,66,127
36793,note_off,0,0,0,,12,,,71,127
36793,note_off,0,0,0,,2,,,74,127
36794,note_on,1,0,0,,2,,,74,127
36794,note_on,0,0,0,,6,,,66,127
36794,note_on,0,0,0,,12,,,71,127
36999,note_off,205,0,0,,12,,,71,127
36999,note_off,0,0,0,,6,,,66,127
36999,note_off,0,0,0,,2,,,74,127
37000,note_on,1,0,0,,2,,,74,127
37000,note_on,0,0,0,,12,,,71,127
37000,note_on,0,0,0,,6,,,66,127
37205,note_off,205,0,0,,6,,,66,127
37205,note_off,0,0,0,,12,,,71,127
37205,note_off,0,0,0,,2,,,74,127
37206,note_on,1,0,0,,2,,,74,127
37206,note_on,0,0,0,,5,,,77,127
37206,note_on,0,0,0,,6,,,66,127
37206,note_on,0,0,0,,12,,,71,127
37411,note_off,205,0,0,,12,,,71,127
37411,note_off,0,0,0,,6,,,66,127
37411,note_off,0,0,0,,5,,,77,127
37411,note_off,0,0,0,,2,,,74,127
37412,note_on,1,0,0,,5,,,77,127
37412,note_on,0,0,0,,2,,,74,127
37412,note_on,0,0,0,,6,,,66,127
37412,note_on,0,0,0,,12,,,71,127
37617,note_off,205,0,0,,12,,,71,127
37617,note_off,0,0,0,,6,,,66,127
37617,note_off,0,0,0,,2,,,74,127
37617,note_off,0,0,0,,5,,,77,127
37618,note_on,1,0,0,,5,,,77,127
37618,note_on,0,0,0,,2,,,74,127
37618,note_on,0,0,0,,12,,,71,127
37618,note_on,0,0,0,,6,,,66,127
37823,note_off,205,0,0,,12,,,71,127
37823,note_off,0,0,0,,2,,,74,127
37823,note_off,0,0,0,,5,,,77,127
37824,note_on,1,0,0,,1,,,73,127
37824,note_on,0,0,0,,6,,,78,127
37824,note_on,0,0,0,,11,,,70,127
38029,note_off,205,0,0,,11,,,70,127
38029,note_off,0,0,0,,1,,,73,127
38030,note_on,1,0,0,,12,,,71,127
38030,note_on,0,0,0,,8,,,68,127
38235,note_off,205,0,0,,8,,,68,127
38235,note_off,0,0,0,,12,,,71,127
38236,note_on,1,0,0,,1,,,73,127
38236,note_on,0,0,0,,11,,,70,127
38441,note_off,205,0,0,,1,,,73,127
38441,note_off,0,0,0,,6,,,78,127
38442,note_on,1,0,0,,6,,,78,127
38647,note_off,205,0,0,,6,,,78,127
38648,note_on,1,0,0,,6,,,78,127
38853,note_off,205,0,0,,6,,,78,127
38853,note_off,0,0,0,,11,,,70,127
38854,note_off,1,0,0,,6,,,66,127
38854,note_on,0,0,0,,6,,,78,127
39059,note_off,205,0,0,,6,,,78,127
39060,note_on,1,0,0,,7,,,79,127
39060,note_on,0,0,0,,4,,,76,127
39060,note_on,0,0,0,,12,,,71,127
39265,note_off,205,0,0,,12,,,71,127
39265,note_off,0,0,0,,4,,,76,127
39265,note_off,0,0,0,,7,,,79,127
39266,note_on,1,0,0,,7,,,79,127
39266,note_on,0,0,0,,4,,,76,127
39266,note_on,0,0,0,,12,,,71,127
39471,note_off,205,0,0,,12,,,71,127
39471,note_off,0,0,0,,4,,,76,127
39471,note_off,0,0,0,,7,,,79,127
39472,note_on,1,0,0,,7,,,79,127
39472,note_on,0,0,0,,12,,,71,127
39472,note_on,0,0,0,,4,,,76,127
39677,note_off,205,0,0,,4,,,76,127
39677,note_off,0,0,0,,12,,,71,127
39677,note_off,0,0,0,,7,,,79,127
39678,note_on,1,0,0,,7,,,79,127
39678,note_on,0,0,0,,11,,,82,127
39678,note_on,0,0,0,,4,,,76,127
39678,note_on,0,0,0,,12,,,71,127
39883,note_off,205,0,0,,12,,,71,127
39883,note_off,0,0,0,,4,,,76,127
39883,note_off,0,0,0,,11,,,82,127
39883,note_off,0,0,0,,7,,,79,127
39884,note_on,1,0,0,,7,,,79,127
39884,note_on,0,0,0,,11,,,82,127
39884,note_on,0,0,0,,4,,,76,127
39884,note_on,0,0,0,,12,,,71,127
40089,note_off,205,0,0,,12,,,71,127
40089,note_off,0,0,0,,4,,,76,127
40089,note_off,0,0,0,,11,,,82,127
40089,note_off,0,0,0,,7,,,79,127
40090,note_on,1,0,0,,7,,,79,127
40090,note_on,0,0,0,,11,,,82,127
40090,note_on,0,0,0,,12,,,71,127
40090,note_on,0,0,0,,4,,,76,127
40295,note_off,205,0,0,,4,,,76,127
40295,note_off,0,0,0,,11,,,82,127
40295,note_off,0,0,0,,7,,,79,127
40296,note_on,1,0,0,,6,,,78,127
40296,note_on,0,0,0,,12,,,83,127
40296,note_on,0,0,0,,2,,,74,127
40501,note_off,205,0,0,,2,,,74,127
40501,note_off,0,0,0,,6,,,78,127
40502,note_on,1,0,0,,4,,,76,127
40502,note_on,0,0,0,,1,,,73,127
40707,note_off,205,0,0,,1,,,73,127
40707,note_off,0,0,0,,4,,,76,127
40708,note_on,1,0,0,,6,,,78,127
40708,note_on,0,0,0,,2,,,74,127
40913,note_off,205,0,0,,6,,,78,127
40913,note_off,0,0,0,,12,,,83,127
40914,note_on,1,0,0,,6,,,78,127
41119,note_off,205,0,0,,6,,,78,127
41120,note_on,1,0,0,,6,,,78,127
41325,note_off,205,0,0,,6,,,78,127
41325,note_off,0,0,0,,2,,,74,127
41326,note_off,1,0,0,,12,,,71,127
41326,note_on,0,0,0,,6,,,78,127
41531,note_off,205,0,0,,6,,,78,127
41532,note_on,1,0,0,,7,,,79,127
41532,note_on,0,0,0,,12,,,71,127
41532,note_on,0,0,0,,4,,,76,127
41737,note_off,205,0,0,,4,,,76,127
41737,note_off,0,0,0,,12,,,71,127
41737,note_off,0,0,0,,7,,,79,127
41738,note_on,1,0,0,,7,,,79,127
41738,note_on,0,0,0,,12,,,71,127
41738,note_on,0,0,0,,4,,,76,127
41943,note_off,205,0,0,,4,,,76,127
41943,note_off,0,0,0,,12,,,71,127
41943,note_off,0,0,0,,7,,,79,127
41944,note_on,1,0,0,,7,,,79,127
41944,note_on,0,0,0,,4,,,76,127
41944,note_on,0,0,0,,12,,,71,127
42149,note_off,205,0,0,,12,,,71,127
42149,note_off,0,0,0,,4,,,76,127
42149,note_off,0,0,0,,7,,,79,127
42150,note_on,1,0,0,,11,,,82,127
42150,note_on,0,0,0,,7,,,79,127
42150,note_on,0,0,0,,12,,,71,127
42150,note_on,0,0,0,,4,,,76,127
42355,note_off,205,0,0,,4,,,76,127
42355,note_off,0,0,0,,12,,,71,127
42355,note_off,0,0,0,,7,,,79,127
42355,note_off,0,0,0,,11,,,82,127
42356,note_on,1,0,0,,11,,,82,127
42356,note_on,0,0,0,,7,,,79,127
42356,note_on,0,0,0,,12,,,71,127
42356,note_on,0,0,0,,4,,,76,127
42561,note_off,205,0,0,,4,,,76,127
42561,note_off,0,0,0,,12,,,71,127
42561,note_off,0,0,0,,7,,,79,127
42561,note_off,0,0,0,,11,,,82,127
42562,note_on,1,0,0,,7,,,79,127
42562,note_on,0,0,0,,11,,,82,127
42562,note_on,0,0,0,,4,,,76,127
42562,note_on,0,0,0,,12,,,71,127
42767,note_off,205,0,0,,4,,,76,127
42767,note_off,0,0,0,,11,,,82,127
42767,note_off,0,0,0,,7,,,79,127
42768,note_on,1,0,0,,6,,,78,127
42768,note_on,0,0,0,,12,,,83,127
42768,note_on,0,0,0,,2,,,74,127
42973,note_off,205,0,0,,2,,,74,127
42973,note_off,0,0,0,,6,,,78,127
42974,note_on,1,0,0,,4,,,76,127
42974,note_on,0,0,0,,1,,,73,127
43179,note_off,205,0,0,,1,,,73,127
43179,note_off,0,0,0,,4,,,76,127
43180,note_on,1,0,0,,6,,,78,127
43180,note_on,0,0,0,,2,,,74,127
43385,note_off,205,0,0,,6,,,78,127
43385,note_off,0,0,0,,12,,,83,127
43386,note_on,1,0,0,,4,,,76,127
43591,note_off,205,0,0,,4,,,76,127
43592,note_on,1,0,0,,4,,,76,127
43797,note_off,205,0,0,,4,,,76,127
43797,note_off,0,0,0,,2,,,74,127
43798,note_off,1,0,0,,12,,,71,127
43798,note_on,0,0,0,,4,,,76,127
44003,note_off,205,0,0,,4,,,76,127
44004,note_on,1,0,0,,5,,,77,127
44004,note_on,0,0,0,,12,,,71,127
44004,note_on,0,0,0,,2,,,74,127
44209,note_off,205,0,0,,2,,,74,127
44209,note_off,0,0,0,,12,,,71,127
44209,note_off,0,0,0,,5,,,77,127
44210,note_on,1,0,0,,5,,,77,127
44210,note_on,0,0,0,,12,,,71,127
44210,note_on,0,0,0,,2,,,74,127
44415,note_off,205,0,0,,2,,,74,127
44415,note_off,0,0,0,,12,,,71,127
44415,note_off,0,0,0,,5,,,77,127
44416,note_on,1,0,0,,5,,,77,127
44416,note_on,0,0,0,,12,,,71,127
44416,note_on,0,0,0,,2,,,74,127
44621,note_off,205,0,0,,2,,,74,127
44621,note_off,0,0,0,,12,,,71,127
44621,note_off,0,0,0,,5,,,77,127
44622,note_on,1,0,0,,5,,,77,127
44622,note_on,0,0,0,,8,,,80,127
44622,note_on,0,0,0,,12,,,71,127
44622,note_on,0,0,0,,2,,,74,127
44622,note_on,0,0,0,,4,,,64,127
44827,note_off,205,0,0,,4,,,64,127
44827,note_off,0,0,0,,2,,,74,127
44827,note_off,0,0,0,,12,,,71,127
44827,note_off,0,0,0,,8,,,80,127
44827,note_off,0,0,0,,5,,,77,127
44828,note_on,1,0,0,,8,,,80,127
44828,note_on,0,0,0,,5,,,77,127
44828,note_on,0,0,0,,2,,,74,127
44828,note_on,0,0,0,,12,,,71,127
44828,note_on,0,0,0,,4,,,64,127
45033,note_off,205,0,0,,4,,,64,127
45033,note_off,0,0,0,,12,,,71,127
45033,note_off,0,0,0,,2,,,74,127
45033,note_off,0,0,0,,5,,,77,127
45033,note_off,0,0,0,,8,,,80,127
45034,note_on,1,0,0,,5,,,77,127
45034,note_on,0,0,0,,8,,,80,127
45034,note_on,0,0,0,,2,,,74,127
45034,note_on,0,0,0,,4,,,64,127
45034,note_on,0,0,0,,12,,,71,127
45239,note_off,205,0,0,,12,,,71,127
45239,note_off,0,0,0,,2,,,74,127
45239,note_off,0,0,0,,8,,,80,127
45239,note_off,0,0,0,,5,,,77,127
45240,note_on,1,0,0,,10,,,81,127
45240,note_on,0,0,0,,4,,,76,127
45240,note_on,0,0,0,,0,,,72,127
45240,note_on,0,0,0,,10,,,69,127
45445,note_off,205,0,0,,10,,,69,127
45445,note_off,0,0,0,,0,,,72,127
45445,note_off,0,0,0,,10,,,81,127
45446,note_on,1,0,0,,8,,,80,127
45446,note_on,0,0,0,,12,,,71,127
45651,note_off,205,0,0,,12,,,71,127
45651,note_off,0,0,0,,8,,,80,127
45652,note_on,1,0,0,,10,,,81,127
45652,note_on,0,0,0,,0,,,72,127
45857,note_off,205,0,0,,10,,,81,127
45857,note_off,0,0,0,,4,,,76,127
45858,note_on,1,0,0,,4,,,76,127
46063,note_off,205,0,0,,4,,,76,127
46064,note_on,1,0,0,,4,,,76,127
46269,note_off,205,0,0,,4,,,76,127
46269,note_off,0,0,0,,0,,,72,127
46270,note_off,1,0,0,,4,,,64,127
46270,note_on,0,0,0,,4,,,76,127
46475,note_off,205,0,0,,4,,,76,127
46476,note_on,1,0,0,,5,,,77,127
46476,note_on,0,0,0,,12,,,71,127
46476,note_on,0,0,0,,2,,,74,127
46681,note_off,205,0,0,,2,,,74,127
46681,note_off,0,0,0,,12,,,71,127
46681,note_off,0,0,0,,5,,,77,127
46682,note_on,1,0,0,,5,,,77,127
46682,note_on,0,0,0,,12,,,71,127
46682,note_on,0,0,0,,2,,,74,127
46887,note_off,205,0,0,,2,,,74,127
46887,note_off,0,0,0,,12,,,71,127
46887,note_off,0,0,0,,5,,,77,127
46888,note_on,1,0,0,,5,,,77,127
46888,note_on,0,0,0,,2,,,74,127
46888,note_on,0,0,0,,12,,,71,127
47093,note_off,205,0,0,,12,,,71,127
47093,note_off,0,0,0,,2,,,74,127
47093,note_off,0,0,0,,5,,,77,127
47094,note_on,1,0,0,,8,,,80,127
47094,note_on,0,0,0,,5,,,77,127
47094,note_on,0,0,0,,12,,,71,127
47094,note_on,0,0,0,,2,,,74,127
47094,note_on,0,0,0,,4,,,64,127
47299,note_off,205,0,0,,4,,,64,127
47299,note_off,0,0,0,,2,,,74,127
47299,note_off,0,0,0,,12,,,71,127
47299,note_off,0,0,0,,5,,,77,127
47299,note_off,0,0,0,,8,,,80,127
47300,note_on,1,0,0,,5,,,77,127
47300,note_on,0,0,0,,8,,,80,127
47300,note_on,0,0,0,,12,,,71,127
47300,note_on,0,0,0,,2,,,74,127
47300,note_on,0,0,0,,4,,,64,127
47505,note_off,205,0,0,,4,,,64,127
47505,note_off,0,0,0,,2,,,74,127
47505,note_off,0,0,0,,12,,,71,127
47505,note_off,0,0,0,,8,,,80,127
47505,note_off,0,0,0,,5,,,77,127
47506,note_on,1,0,0,,5,,,77,127
47506,note_on,0,0,0,,8,,,80,127
47506,note_on,0,0,0,,4,,,64,127
47506,note_on,0,0,0,,12,,,71,127
47506,note_on,0,0,0,,2,,,74,127
47711,note_off,205,0,0,,2,,,74,127
47711,note_off,0,0,0,,12,,,71,127
47711,note_off,0,0,0,,8,,,80,127
47711,note_off,0,0,0,,5,,,77,127
47712,note_on,1,0,0,,4,,,76,127
47712,note_on,0,0,0,,10,,,81,127
47712,note_on,0,0,0,,10,,,69,127
47712,note_on,0,0,0,,0,,,72,127
47917,note_off,205,0,0,,0,,,72,127
47917,note_off,0,0,0,,10,,,69,127
47917,note_off,0,0,0,,10,,,81,127
47918,note_on,1,0,0,,8,,,80,127
47918,note_on,0,0,0,,12,,,71,127
48123,note_off,205,0,0,,12,,,71,127
48123,note_off,0,0,0,,8,,,80,127
48124,note_on,1,0,0,,10,,,81,127
48124,note_on,0,0,0,,0,,,72,127
48329,note_off,205,0,0,,10,,,81,127
48329,note_off,0,0,0,,4,,,76,127
48330,note_on,1,0,0,,2,,,74,127
48535,note_off,205,0,0,,2,,,74,127
48536,note_on,1,0,0,,2,,,74,127
48741,note_off,205,0,0,,2,,,74,127
48741,note_off,0,0,0,,0,,,72,127
48742,note_off,1,0,0,,4,,,64,127
48742,note_on,0,0,0,,2,,,74,127
48947,note_off,205,0,0,,2,,,74,127
48948,note_on,1,0,0,,4,,,76,127
48948,note_on,0,0,0,,7,,,67,127
48948,note_on,0,0,0,,0,,,72,127
49153,note_off,205,0,0,,0,,,72,127
49153,note_off,0,0,0,,7,,,67,127
49153,note_off,0,0,0,,4,,,76,127
49154,note_on,1,0,0,,4,,,76,127
49154,note_on,0,0,0,,0,,,72,127
49154,note_on,0,0,0,,7,,,67,127
49359,note_off,205,0,0,,7,,,67,127
49359,note_off,0,0,0,,0,,,72,127
49359,note_off,0,0,0,,4,,,76,127
49360,note_on,1,0,0,,4,,,76,127
49360,note_on,0,0,0,,0,,,72,127
49360,note_on,0,0,0,,7,,,67,127
49565,note_off,205,0,0,,7,,,67,127
49565,note_off,0,0,0,,0,,,72,127
49565,note_off,0,0,0,,4,,,76,127
49566,note_on,1,0,0,,6,,,78,127
49566,note_on,0,0,0,,0,,,72,127
49566,note_on,0,0,0,,2,,,62,127
49566,note_on,0,0,0,,10,,,69,127
49771,note_off,205,0,0,,10,,,69,127
49771,note_off,0,0,0,,2,,,62,127
49771,note_off,0,0,0,,0,,,72,127
49771,note_off,0,0,0,,6,,,78,127
49772,note_on,1,0,0,,6,,,78,127
49772,note_on,0,0,0,,10,,,69,127
49772,note_on,0,0,0,,0,,,72,127
49772,note_on,0,0,0,,2,,,62,127
49977,note_off,205,0,0,,2,,,62,127
49977,note_off,0,0,0,,0,,,72,127
49977,note_off,0,0,0,,10,,,69,127
49977,note_off,0,0,0,,6,,,78,127
49978,note_on,1,0,0,,6,,,78,127
49978,note_on,0,0,0,,0,,,72,127
49978,note_on,0,0,0,,2,,,62,127
49978,note_on,0,0,0,,10,,,69,127
50183,note_off,205,0,0,,10,,,69,127
50183,note_off,0,0,0,,0,,,72,127
50183,note_off,0,0,0,,6,,,78,127
50184,note_on,1,0,0,,7,,,79,127
50184,note_on,0,0,0,,7,,,67,127
50184,note_on,0,0,0,,12,,,71,127
50389,note_off,205,0,0,,12,,,71,127
50389,note_off,0,0,0,,7,,,67,127
50389,note_off,0,0,0,,7,,,79,127
50390,note_on,1,0,0,,6,,,78,127
50390,note_on,0,0,0,,10,,,69,127
50595,note_off,205,0,0,,10,,,69,127
50595,note_off,0,0,0,,6,,,78,127
50596,note_on,1,0,0,,7,,,79,127
50596,note_on,0,0,0,,12,,,71,127
50801,note_off,205,0,0,,7,,,79,127
50802,note_on,1,0,0,,2,,,74,127
51007,note_off,205,0,0,,2,,,74,127
51008,note_on,1,0,0,,2,,,74,127
51213,note_off,205,0,0,,2,,,74,127
51213,note_off,0,0,0,,12,,,71,127
51214,note_off,1,0,0,,2,,,62,127
51214,note_on,0,0,0,,2,,,74,127
51419,note_off,205,0,0,,2,,,74,127
51420,note_on,1,0,0,,4,,,76,127
51420,note_on,0,0,0,,0,,,72,127
51420,note_on,0,0,0,,7,,,67,127
51625,note_off,205,0,0,,7,,,67,127
51625,note_off,0,0,0,,0,,,72,127
51625,note_off,0,0,0,,4,,,76,127
51626,note_on,1,0,0,,4,,,76,127
51626,note_on,0,0,0,,7,,,67,127
51626,note_on,0,0,0,,0,,,72,127
51831,note_off,205,0,0,,0,,,72,127
51831,note_off,0,0,0,,7,,,67,127
51831,note_off,0,0,0,,4,,,76,127
51832,note_on,1,0,0,,4,,,76,127
51832,note_on,0,0,0,,7,,,67,127
51832,note_on,0,0,0,,0,,,72,127
52037,note_off,205,0,0,,0,,,72,127
52037,note_off,0,0,0,,7,,,67,127
52037,note_off,0,0,0,,4,,,76,127
52038,note_on,1,0,0,,6,,,78,127
52038,note_on,0,0,0,,10,,,69,127
52038,note_on,0,0,0,,0,,,72,127
52038,note_on,0,0,0,,2,,,62,127
52243,note_off,205,0,0,,2,,,62,127
52243,note_off,0,0,0,,0,,,72,127
52243,note_off,0,0,0,,10,,,69,127
52243,note_off,0,0,0,,6,,,78,127
52244,note_on,1,0,0,,6,,,78,127
52244,note_on,0,0,0,,0,,,72,127
52244,note_on,0,0,0,,2,,,62,127
52244,note_on,0,0,0,,10,,,69,127
52449,note_off,205,0,0,,10,,,69,127
52449,note_off,0,0,0,,2,,,62,127
52449,note_off,0,0,0,,0,,,72,127
52449,note_off,0,0,0,,6,,,78,127
52450,note_on,1,0,0,,6,,,78,127
52450,note_on,0,0,0,,0,,,72,127
52450,note_on,0,0,0,,2,,,62,127
52450,note_on,0,0,0,,10,,,69,127
52655,note_off,205,0,0,,10,,,69,127
52655,note_off,0,0,0,,0,,,72,127
52655,note_off,0,0,0,,6,,,78,127
52656,note_on,1,0,0,,7,,,79,127
52656,note_on,0,0,0,,7,,,67,127
52656,note_on,0,0,0,,12,,,71,127
52861,note_off,205,0,0,,12,,,71,127
52861,note_off,0,0,0,,7,,,67,127
52861,note_off,0,0,0,,7,,,79,127
52862,note_on,1,0,0,,6,,,78,127
52862,note_on,0,0,0,,10,,,69,127
53067,note_off,205,0,0,,10,,,69,127
53067,note_off,0,0,0,,6,,,78,127
53068,note_off,1,0,0,,2,,,62,127
53068,note_on,0,0,0,,7,,,79,127
53068,note_on,0,0,0,,12,,,71,127
53068,note_on,0,0,0,,2,,,62,127
53068,note_on,0,0,0,,7,,,67,127
53273,note_off,205,0,0,,7,,,67,127
53273,note_off,0,0,0,,2,,,62,127
53273,note_off,0,0,0,,12,,,71,127
53273,note_off,0,0,0,,7,,,79,127
53274,note_on,1,0,0,,10,,,81,127
53274,note_on,0,0,0,,7,,,67,127
53274,note_on,0,0,0,,12,,,71,127
53274,note_on,0,0,0,,2,,,62,127
53479,note_off,205,0,0,,2,,,62,127
53479,note_off,0,0,0,,12,,,71,127
53479,note_off,0,0,0,,7,,,67,127
53479,note_off,0,0,0,,10,,,81,127
53480,note_on,1,0,0,,12,,,83,127
53480,note_on,0,0,0,,12,,,71,127
53480,note_on,0,0,0,,2,,,62,127
53480,note_on,0,0,0,,7,,,67,127
53685,note_off,205,0,0,,7,,,67,127
53685,note_off,0,0,0,,2,,,62,127
53685,note_off,0,0,0,,12,,,71,127
53685,note_off,0,0,0,,12,,,83,127
53686,note_on,1,0,0,,10,,,81,127
53686,note_on,0,0,0,,10,,,69,127
53686,note_on,0,0,0,,1,,,61,127
53737,note_on,51,0,0,,7,,,79,127
53753,note_off,16,0,0,,10,,,81,127
53788,note_on,35,0,0,,10,,,81,127
53804,note_off,16,0,0,,7,,,79,127
53839,note_on,35,0,0,,7,,,79,127
53855,note_off,16,0,0,,10,,,81,127
53889,note_off,34,0,0,,1,,,61,127
53889,note_off,0,0,0,,10,,,69,127
53890,note_on,1,0,0,,10,,,81,127
53890,note_on,0,0,0,,10,,,69,127
53890,note_on,0,0,0,,1,,,61,127
53906,note_off,16,0,0,,7,,,79,127
53941,note_on,35,0,0,,7,,,79,127
53957,note_off,16,0,0,,10,,,81,127
53992,note_on,35,0,0,,10,,,81,127
54008,note_off,16,0,0,,7,,,79,127
54043,note_on,35,0,0,,7,,,79,127
54059,note_off,16,0,0,,10,,,81,127
54093,note_off,34,0,0,,1,,,61,127
54093,note_off,0,0,0,,10,,,69,127
54094,note_on,1,0,0,,6,,,78,127
54094,note_on,0,0,0,,2,,,62,127
54094,note_on,0,0,0,,10,,,69,127
54110,note_off,16,0,0,,7,,,79,127
54299,note_off,189,0,0,,10,,,69,127
54299,note_off,0,0,0,,2,,,62,127
54299,note_off,0,0,0,,6,,,78,127
54300,note_on,1,0,0,,10,,,81,127
54300,note_on,0,0,0,,10,,,69,127
54300,note_on,0,0,0,,1,,,61,127
54351,note_on,51,0,0,,7,,,79,127
54367,note_off,16,0,0,,10,,,81,127
54402,note_on,35,0,0,,10,,,81,127
54418,note_off,16,0,0,,7,,,79,127
54453,note_on,35,0,0,,7,,,79,127
54469,note_off,16,0,0,,10,,,81,127
54503,note_off,34,0,0,,1,,,61,127
54503,note_off,0,0,0,,10,,,69,127
54504,note_on,1,0,0,,10,,,81,127
54504,note_on,0,0,0,,10,,,69,127
54504,note_on,0,0,0,,1,,,61,127
54520,note_off,16,0,0,,7,,,79,127
54555,note_on,35,0,0,,7,,,79,127
54571,note_off,16,0,0,,10,,,81,127
54606,note_on,35,0,0,,10,,,81,127
54622,note_off,16,0,0,,7,,,79,127
54657,note_on,35,0,0,,7,,,79,127
54673,note_off,16,0,0,,10,,,81,127
54707,note_off,34,0,0,,1,,,61,127
54707,note_off,0,0,0,,10,,,69,127
54708,note_on,1,0,0,,6,,,78,127
54708,note_on,0,0,0,,10,,,69,127
54708,note_on,0,0,0,,2,,,62,127
54724,note_off,16,0,0,,7,,,79,127
54913,note_off,189,0,0,,2,,,62,127
54913,note_off,0,0,0,,10,,,69,127
54913,note_off,0,0,0,,6,,,78,127
54914,note_on,1,0,0,,12,,,83,127
54914,note_on,0,0,0,,3,,,63,127
54914,note_on,0,0,0,,12,,,71,127
54965,note_on,51,0,0,,10,,,81,127
54981,note_off,16,0,0,,12,,,83,127
55016,note_on,35,0,0,,12,,,83,127
55032,note_off,16,0,0,,10,,,81,127
55067,note_on,35,0,0,,10,,,81,127
55083,note_off,16,0,0,,12,,,83,127
55117,note_off,34,0,0,,12,,,71,127
55117,note_off,0,0,0,,3,,,63,127
55118,note_on,1,0,0,,12,,,83,127
55118,note_on,0,0,0,,12,,,71,127
55118,note_on,0,0,0,,3,,,63,127
55134,note_off,16,0,0,,10,,,81,127
55169,note_on,35,0,0,,10,,,81,127
55185,note_off,16,0,0,,12,,,83,127
55220,note_on,35,0,0,,12,,,83,127
55236,note_off,16,0,0,,10,,,81,127
55271,note_on,35,0,0,,10,,,81,127
55287,note_off,16,0,0,,12,,,83,127
55321,note_off,34,0,0,,3,,,63,127
55321,note_off,0,0,0,,12,,,71,127
55322,note_on,1,0,0,,8,,,80,127
55322,note_on,0,0,0,,4,,,64,127
55322,note_on,0,0,0,,12,,,71,127
55338,note_off,16,0,0,,10,,,81,127
55527,note_off,189,0,0,,12,,,71,127
55527,note_off,0,0,0,,4,,,64,127
55527,note_off,0,0,0,,8,,,80,127
55528,note_on,1,0,0,,12,,,83,127
55528,note_on,0,0,0,,12,,,71,127
55528,note_on,0,0,0,,3,,,63,127
55579,note_on,51,0,0,,10,,,81,127
55595,note_off,16,0,0,,12,,,83,127
55630,note_on,35,0,0,,12,,,83,127
55646,note_off,16,0,0,,10,,,81,127
55681,note_on,35,0,0,,10,,,81,127
55697,note_off,16,0,0,,12,,,83,127
55731,note_off,34,0,0,,3,,,63,127
55731,note_off,0,0,0,,12,,,71,127
55732,note_on,1,0,0,,12,,,83,127
55732,note_on,0,0,0,,12,,,71,127
55732,note_on,0,0,0,,3,,,63,127
55748,note_off,16,0,0,,10,,,81,127
55783,note_on,35,0,0,,10,,,81,127
55799,note_off,16,0,0,,12,,,83,127
55834,note_on,35,0,0,,12,,,83,127
55850,note_off,16,0,0,,10,,,81,127
55885,note_on,35,0,0,,10,,,81,127
55901,note_off,16,0,0,,12,,,83,127
55935,note_off,34,0,0,,3,,,63,127
55935,note_off,0,0,0,,12,,,71,127
55936,note_on,1,0,0,,8,,,80,127
55936,note_on,0,0,0,,12,,,71,127
55936,note_on,0,0,0,,4,,,64,127
55952,note_off,16,0,0,,10,,,81,127
56141,note_off,189,0,0,,4,,,64,127
56141,note_off,0,0,0,,12,,,71,127
56141,note_off,0,0,0,,8,,,80,127
56142,note_on,1,0,0,,1,,,85,127
56142,note_on,0,0,0,,5,,,65,127
56142,note_on,0,0,0,,1,,,73,127
56193,note_on,51,0,0,,12,,,83,127
56209,note_off,16,0,0,,1,,,85,127
56244,note_on,35,0,0,,1,,,85,127
56260,note_off,16,0,0,,12,,,83,127
56295,note_on,35,0,0,,12,,,83,127
56311,note_off,16,0,0,,1,,,85,127
56345,note_off,34,0,0,,1,,,73,127
56345,note_off,0,0,0,,5,,,65,127
56346,note_on,1,0,0,,1,,,85,127
56346,note_on,0,0,0,,5,,,65,127
56346,note_on,0,0,0,,1,,,73,127
56362,note_off,16,0,0,,12,,,83,127
56397,note_on,35,0,0,,12,,,83,127
56413,note_off,16,0,0,,1,,,85,127
56448,note_on,35,0,0,,1,,,85,127
56464,note_off,16,0,0,,12,,,83,127
56499,note_on,35,0,0,,12,,,83,127
56515,note_off,16,0,0,,1,,,85,127
56549,note_off,34,0,0,,1,,,73,127
56549,note_off,0,0,0,,5,,,65,127
56550,note_on,1,0,0,,11,,,82,127
56550,note_on,0,0,0,,1,,,73,127
56550,note_on,0,0,0,,6,,,66,127
56566,note_off,16,0,0,,12,,,83,127
56755,note_off,189,0,0,,6,,,66,127
56755,note_off,0,0,0,,1,,,73,127
56755,note_off,0,0,0,,11,,,82,127
56756,note_on,1,0,0,,1,,,85,127
56756,note_on,0,0,0,,5,,,65,127
56756,note_on,0,0,0,,1,,,73,127
56807,note_on,51,0,0,,12,,,83,127
56823,note_off,16,0,0,,1,,,85,127
56858,note_on,35,0,0,,1,,,85,127
56874,note_off,16,0,0,,12,,,83,127
56909,note_on,35,0,0,,12,,,83,127
56925,note_off,16,0,0,,1,,,85,127
56959,note_off,34,0,0,,1,,,73,127
56959,note_off,0,0,0,,5,,,65,127
56960,note_on,1,0,0,,1,,,85,127
56960,note_on,0,0,0,,1,,,73,127
56960,note_on,0,0,0,,5,,,65,127
56976,note_off,16,0,0,,12,,,83,127
57011,note_on,35,0,0,,12,,,83,127
57027,note_off,16,0,0,,1,,,85,127
57062,note_on,35,0,0,,1,,,85,127
57078,note_off,16,0,0,,12,,,83,127
57113,note_on,35,0,0,,12,,,83,127
57129,note_off,16,0,0,,1,,,85,127
57163,note_off,34,0,0,,5,,,65,127
57163,note_off,0,0,0,,1,,,73,127
57164,note_on,1,0,0,,11,,,82,127
57164,note_on,0,0,0,,1,,,73,127
57164,note_on,0,0,0,,6,,,66,127
57180,note_off,16,0,0,,12,,,83,127
57369,note_off,189,0,0,,6,,,66,127
57369,note_off,0,0,0,,1,,,73,127
57369,note_off,0,0,0,,11,,,82,127
57370,note_on,1,0,0,,1,,,85,127
57370,note_on,0,0,0,,6,,,66,127
57370,note_on,0,0,0,,11,,,70,127
57370,note_on,0,0,0,,1,,,73,127
57472,note_off,102,0,0,,1,,,85,127
57473,note_on,1,0,0,,12,,,83,127
57575,note_off,102,0,0,,12,,,83,127
57575,note_off,0,0,0,,1,,,73,127
57575,note_off,0,0,0,,11,,,70,127
57575,note_off,0,0,0,,6,,,66,127
57576,note_on,1,0,0,,11,,,82,127
57576,note_on,0,0,0,,1,,,73,127
57576,note_on,0,0,0,,6,,,66,127
57576,note_on,0,0,0,,11,,,70,127
57678,note_off,102,0,0,,11,,,82,127
57679,note_on,1,0,0,,7,,,79,127
57781,note_off,102,0,0,,7,,,79,127
57781,note_off,0,0,0,,11,,,70,127
57781,note_off,0,0,0,,6,,,66,127
57781,note_off,0,0,0,,1,,,73,127
57782,note_on,1,0,0,,6,,,78,127
57782,note_on,0,0,0,,11,,,70,127
57782,note_on,0,0,0,,1,,,73,127
57782,note_on,0,0,0,,6,,,66,127
57884,note_off,102,0,0,,6,,,78,127
57885,note_on,1,0,0,,4,,,76,127
57987,note_off,102,0,0,,4,,,76,127
57987,note_off,0,0,0,,6,,,66,127
57987,note_off,0,0,0,,1,,,73,127
57987,note_off,0,0,0,,11,,,70,127
57988,note_on,1,0,0,,2,,,74,127
57988,note_on,0,0,0,,6,,,66,127
57988,note_on,0,0,0,,12,,,71,127
57988,note_on,0,0,0,,12,,,59,127
58090,note_off,102,0,0,,2,,,74,127
58091,note_on,1,0,0,,1,,,73,127
58193,note_off,102,0,0,,1,,,73,127
58193,note_off,0,0,0,,12,,,59,127
58193,note_off,0,0,0,,12,,,71,127
58193,note_off,0,0,0,,6,,,66,127
58194,note_on,1,0,0,,12,,,71,127
58194,note_on,0,0,0,,12,,,59,127
58194,note_on,0,0,0,,6,,,66,127
58296,note_off,102,0,0,,12,,,71,127
58297,note_on,1,0,0,,10,,,69,127
58399,note_off,102,0,0,,10,,,69,127
58399,note_off,0,0,0,,6,,,66,127
58399,note_off,0,0,0,,12,,,59,127
58400,note_on,1,0,0,,7,,,67,127
58400,note_on,0,0,0,,12,,,59,127
58502,note_off,102,0,0,,7,,,67,127
58503,note_on,1,0,0,,6,,,66,127
58605,note_off,102,0,0,,6,,,66,127
58605,note_off,0,0,0,,12,,,59,127
58606,note_on,1,0,0,,4,,,64,127
58606,note_on,0,0,0,,4,,,52,127
58708,note_off,102,0,0,,4,,,64,127
58709,note_on,1,0,0,,2,,,62,127
58811,note_off,102,0,0,,2,,,62,127
58811,note_off,0,0,0,,4,,,52,127
58812,note_on,1,0,0,,1,,,61,127
58812,note_on,0,0,0,,4,,,52,127
58914,note_off,102,0,0,,1,,,61,127
58915,note_on,1,0,0,,12,,,59,127
59017,note_off,102,0,0,,12,,,59,127
59017,note_off,0,0,0,,4,,,52,127
59018,note_on,1,0,0,,11,,,58,127
59018,note_on,0,0,0,,4,,,52,127
59120,note_off,102,0,0,,11,,,58,127
59121,note_on,1,0,0,,12,,,59,127
59223,note_off,102,0,0,,12,,,59,127
59223,note_off,0,0,0,,4,,,52,127
59224,note_on,1,0,0,,12,,,59,127
59224,note_on,0,0,0,,6,,,54,127
59429,note_off,205,0,0,,6,,,54,127
59430,note_on,1,0,0,,6,,,42,127
59635,note_off,205,0,0,,12,,,59,127
59636,note_on,1,0,0,,11,,,58,127
59841,note_off,205,0,0,,11,,,58,127
59841,note_off,0,0,0,,6,,,42,127
59859,note_on,18,0,0,,6,,,66,127
59859,note_on,0,0,0,,1,,,61,127
59859,note_on,0,0,0,,11,,,58,127
59859,note_on,0,0,0,,6,,,54,127
59961,note_off,102,0,0,,6,,,66,127
59962,note_on,1,0,0,,11,,,70,127
60064,note_off,102,0,0,,11,,,70,127
60064,note_off,0,0,0,,6,,,54,127
60064,note_off,0,0,0,,11,,,58,127
60064,note_off,0,0,0,,1,,,61,127
60065,note_on,1,0,0,,1,,,73,127
60065,note_on,0,0,0,,11,,,58,127
60065,note_on,0,0,0,,1,,,61,127
60065,note_on,0,0,0,,6,,,54,127
60167,note_off,102,0,0,,1,,,73,127
60168,note_on,1,0,0,,6,,,78,127
60270,note_off,102,0,0,,6,,,78,127
60270,note_off,0,0,0,,6,,,54,127
60270,note_off,0,0,0,,1,,,61,127
60270,note_off,0,0,0,,11,,,58,127
60271,note_on,1,0,0,,4,,,76,127
60271,note_on,0,0,0,,1,,,61,127
60271,note_on,0,0,0,,6,,,54,127
60271,note_on,0,0,0,,11,,,58,127
60476,note_off,205,0,0,,11,,,58,127
60476,note_off,0,0,0,,6,,,54,127
60476,note_off,0,0,0,,1,,,61,127
60477,note_on,1,0,0,,3,,,63,127
60477,note_on,0,0,0,,12,,,59,127
60477,note_on,0,0,0,,6,,,54,127
60682,note_off,205,0,0,,6,,,54,127
60682,note_off,0,0,0,,12,,,59,127
60682,note_off,0,0,0,,3,,,63,127
60682,note_off,0,0,0,,4,,,76,127
60683,note_on,1,0,0,,3,,,75,127
60683,note_on,0,0,0,,3,,,63,127
60683,note_on,0,0,0,,6,,,54,127
60683,note_on,0,0,0,,12,,,59,127
60888,note_off,205,0,0,,12,,,59,127
60888,note_off,0,0,0,,6,,,54,127
60888,note_off,0,0,0,,3,,,63,127
60888,note_off,0,0,0,,3,,,75,127
60889,note_on,1,0,0,,12,,,71,127
60889,note_on,0,0,0,,12,,,59,127
60889,note_on,0,0,0,,3,,,63,127
60889,note_on,0,0,0,,6,,,54,127
61094,note_off,205,0,0,,6,,,54,127
61094,note_off,0,0,0,,3,,,63,127
61094,note_off,0,0,0,,12,,,59,127
61094,note_off,0,0,0,,12,,,71,127
61095,note_on,1,0,0,,6,,,66,127
61095,note_on,0,0,0,,11,,,58,127
61095,note_on,0,0,0,,1,,,61,127
61095,note_on,0,0,0,,6,,,54,127
61197,note_off,102,0,0,,6,,,66,127
61198,note_on,1,0,0,,11,,,70,127
61300,note_off,102,0,0,,11,,,70,127
61300,note_off,0,0,0,,6,,,54,127
61300,note_off,0,0,0,,1,,,61,127
61300,note_off,0,0,0,,11,,,58,127
61301,note_on,1,0,0,,1,,,73,127
61301,note_on,0,0,0,,1,,,61,127
61301,note_on,0,0,0,,6,,,54,127
61301,note_on,0,0,0,,11,,,58,127
61403,note_off,102,0,0,,1,,,73,127
61404,note_on,1,0,0,,6,,,78,127
61506,note_off,102,0,0,,6,,,78,127
61506,note_off,0,0,0,,11,,,58,127
61506,note_off,0,0,0,,6,,,54,127
61506,note_off,0,0,0,,1,,,61,127
61507,note_on,1,0,0,,4,,,76,127
61507,note_on,0,0,0,,1,,,61,127
61507,note_on,0,0,0,,6,,,54,127
61507,note_on,0,0,0,,11,,,58,127
61712,note_off,205,0,0,,11,,,58,127
61712,note_off,0,0,0,,6,,,54,127
61712,note_off,0,0,0,,1,,,61,127
61713,note_on,1,0,0,,3,,,63,127
61713,note_on,0,0,0,,12,,,59,127
61713,note_on,0,0,0,,6,,,54,127
61918,note_off,205,0,0,,6,,,54,127
61918,note_off,0,0,0,,12,,,59,127
61918,note_off,0,0,0,,3,,,63,127
61918,note_off,0,0,0,,4,,,76,127
61919,note_on,1,0,0,,3,,,75,127
61919,note_on,0,0,0,,3,,,63,127
61919,note_on,0,0,0,,6,,,54,127
61919,note_on,0,0,0,,12,,,59,127
62124,note_off,205,0,0,,12,,,59,127
62124,note_off,0,0,0,,6,,,54,127
62124,note_off,0,0,0,,3,,,63,127
62124,note_off,0,0,0,,3,,,75,127
62125,note_on,1,0,0,,12,,,71,127
62125,note_on,0,0,0,,3,,,63,127
62125,note_on,0,0,0,,6,,,54,127
62125,note_on,0,0,0,,12,,,59,127
62330,note_off,205,0,0,,12,,,59,127
62330,note_off,0,0,0,,6,,,54,127
62330,note_off,0,0,0,,3,,,63,127
62330,note_off,0,0,0,,12,,,71,127
62331,note_on,1,0,0,,1,,,73,127
62331,note_on,0,0,0,,6,,,54,127
62433,note_off,102,0,0,,6,,,54,127
62434,note_on,1,0,0,,11,,,58,127
62536,note_off,102,0,0,,11,,,58,127
62537,note_on,1,0,0,,1,,,61,127
62639,note_off,102,0,0,,1,,,61,127
62640,note_on,1,0,0,,6,,,66,127
62742,note_off,102,0,0,,6,,,66,127
62742,note_off,0,0,0,,1,,,73,127
62743,note_on,1,0,0,,11,,,70,127
62743,note_on,0,0,0,,4,,,64,127
62949,note_on,206,0,0,,6,,,54,127
63154,note_off,205,0,0,,6,,,54,127
63154,note_off,0,0,0,,4,,,64,127
63154,note_off,0,0,0,,11,,,70,127
63155,note_on,1,0,0,,12,,,71,127
63155,note_on,0,0,0,,6,,,54,127
63155,note_on,0,0,0,,3,,,63,127
63360,note_off,205,0,0,,3,,,63,127
63360,note_off,0,0,0,,6,,,54,127
63360,note_off,0,0,0,,12,,,71,127
63361,note_on,1,0,0,,3,,,75,127
63361,note_on,0,0,0,,6,,,54,127
63361,note_on,0,0,0,,12,,,59,127
63566,note_off,205,0,0,,12,,,59,127
63566,note_off,0,0,0,,6,,,54,127
63566,note_off,0,0,0,,3,,,75,127
63567,note_on,1,0,0,,1,,,73,127
63567,note_on,0,0,0,,6,,,54,127
63669,note_off,102,0,0,,6,,,54,127
63670,note_on,1,0,0,,11,,,58,127
63772,note_off,102,0,0,,11,,,58,127
63773,note_on,1,0,0,,1,,,61,127
63875,note_off,102,0,0,,1,,,61,127
63876,note_on,1,0,0,,6,,,66,127
63978,note_off,102,0,0,,6,,,66,127
63978,note_off,0,0,0,,1,,,73,127
63979,note_on,1,0,0,,11,,,70,127
63979,note_on,0,0,0,,4,,,64,127
64185,note_on,206,0,0,,6,,,54,127
64390,note_off,205,0,0,,6,,,54,127
64390,note_off,0,0,0,,4,,,64,127
64390,note_off,0,0,0,,11,,,70,127
64391,note_on,1,0,0,,12,,,71,127
64391,note_on,0,0,0,,6,,,54,127
64391,note_on,0,0,0,,3,,,63,127
64596,note_off,205,0,0,,3,,,63,127
64596,note_off,0,0,0,,6,,,54,127
64596,note_off,0,0,0,,12,,,71,127
64597,note_on,1,0,0,,3,,,75,127
64597,note_on,0,0,0,,6,,,54,127
64597,note_on,0,0,0,,12,,,59,127
64802,note_off,205,0,0,,12,,,59,127
64802,note_off,0,0,0,,6,,,54,127
64802,note_off,0,0,0,,3,,,75,127
64803,note_on,1,0,0,,8,,,80,127
64803,note_on,0,0,0,,4,,,52,127
64803,note_on,0,0,0,,12,,,59,127
64906,note_on,103,0,0,,12,,,71,127
65008,note_off,102,0,0,,12,,,71,127
65009,note_on,1,0,0,,1,,,73,127
65111,note_off,102,0,0,,1,,,73,127
65112,note_on,1,0,0,,12,,,71,127
65211,note_off,99,0,0,,8,,,80,127
65214,note_off,3,0,0,,12,,,71,127
65214,note_off,0,0,0,,12,,,59,127
65214,note_off,0,0,0,,4,,,52,127
65215,note_on,1,0,0,,8,,,80,127
65215,note_on,0,0,0,,4,,,52,127
65215,note_on,0,0,0,,12,,,59,127
65318,note_on,103,0,0,,12,,,71,127
65369,note_off,51,0,0,,8,,,80,127
65419,note_off,50,0,0,,12,,,71,127
65419,note_off,0,0,0,,12,,,59,127
65419,note_off,0,0,0,,4,,,52,127
65420,note_on,1,0,0,,11,,,82,127
65420,note_on,0,0,0,,1,,,61,127
65420,note_on,0,0,0,,4,,,52,127
65523,note_on,103,0,0,,1,,,73,127
65625,note_off,102,0,0,,1,,,73,127
65626,note_on,1,0,0,,3,,,75,127
65728,note_off,102,0,0,,3,,,75,127
65729,note_on,1,0,0,,1,,,73,127
65828,note_off,99,0,0,,11,,,82,127
65831,note_off,3,0,0,,1,,,73,127
65831,note_off,0,0,0,,4,,,52,127
65831,note_off,0,0,0,,1,,,61,127
65832,note_on,1,0,0,,12,,,83,127
65832,note_on,0,0,0,,12,,,59,127
65832,note_on,0,0,0,,3,,,51,127
65935,note_on,103,0,0,,6,,,78,127
65986,note_off,51,0,0,,12,,,83,127
66036,note_off,50,0,0,,6,,,78,127
66036,note_off,0,0,0,,3,,,51,127
66036,note_off,0,0,0,,12,,,59,127
66037,note_on,1,0,0,,8,,,80,127
66037,note_on,0,0,0,,12,,,59,127
66037,note_on,0,0,0,,4,,,52,127
66139,note_off,102,0,0,,8,,,80,127
66140,note_on,1,0,0,,4,,,76,127
66242,note_off,102,0,0,,4,,,76,127
66242,note_off,0,0,0,,4,,,52,127
66242,note_off,0,0,0,,12,,,59,127
66243,note_on,1,0,0,,6,,,78,127
66243,note_on,0,0,0,,6,,,54,127
66345,note_off,102,0,0,,6,,,78,127
66346,note_on,1,0,0,,3,,,75,127
66448,note_off,102,0,0,,3,,,75,127
66449,note_on,1,0,0,,4,,,76,127
66449,note_on,0,0,0,,6,,,42,127
66551,note_off,102,0,0,,4,,,76,127
66552,note_on,1,0,0,,1,,,73,127
66651,note_off,99,0,0,,6,,,54,127
66654,note_off,3,0,0,,1,,,73,127
66654,note_off,0,0,0,,6,,,42,127
66655,note_on,1,0,0,,1,,,73,127
66655,note_on,0,0,0,,12,,,59,127
66861,note_on,206,0,0,,12,,,47,127
67062,note_off,201,0,0,,1,,,73,127
67066,note_on,4,0,0,,12,,,71,127
67220,note_off,154,0,0,,12,,,71,127
67270,note_off,50,0,0,,12,,,47,127
67270,note_off,0,0,0,,12,,,59,127
67271,note_on,1,0,0,,6,,,66,127
67271,note_on,0,0,0,,1,,,61,127
67271,note_on,0,0,0,,6,,,54,127
67373,note_off,102,0,0,,6,,,66,127
67374,note_on,1,0,0,,11,,,70,127
67476,note_off,102,0,0,,11,,,70,127
67476,note_off,0,0,0,,6,,,54,127
67476,note_off,0,0,0,,1,,,61,127
67477,note_on,1,0,0,,1,,,73,127
67477,note_on,0,0,0,,1,,,61,127
67477,note_on,0,0,0,,6,,,54,127
67579,note_off,102,0,0,,1,,,73,127
67580,note_on,1,0,0,,6,,,78,127
67682,note_off,102,0,0,,6,,,78,127
67682,note_off,0,0,0,,6,,,54,127
67682,note_off,0,0,0,,1,,,61,127
67683,note_on,1,0,0,,4,,,76,127
67683,note_on,0,0,0,,1,,,61,127
67683,note_on,0,0,0,,6,,,54,127
67888,note_off,205,0,0,,6,,,54,127
67888,note_off,0,0,0,,1,,,61,127
67889,note_on,1,0,0,,7,,,67,127
67889,note_on,0,0,0,,4,,,64,127
67889,note_on,0,0,0,,12,,,59,127
67889,note_on,0,0,0,,4,,,52,127
68094,note_off,205,0,0,,4,,,52,127
68094,note_off,0,0,0,,12,,,59,127
68094,note_off,0,0,0,,4,,,64,127
68094,note_off,0,0,0,,4,,,76,127
68095,note_on,1,0,0,,2,,,74,127
68095,note_on,0,0,0,,12,,,59,127
68095,note_on,0,0,0,,4,,,64,127
68095,note_on,0,0,0,,4,,,52,127
68300,note_off,205,0,0,,4,,,52,127
68300,note_off,0,0,0,,4,,,64,127
68300,note_off,0,0,0,,12,,,59,127
68300,note_off,0,0,0,,2,,,74,127
68301,note_on,1,0,0,,1,,,73,127
68301,note_on,0,0,0,,4,,,64,127
68301,note_on,0,0,0,,12,,,59,127
68301,note_on,0,0,0,,4,,,52,127
68506,note_off,205,0,0,,4,,,52,127
68506,note_off,0,0,0,,12,,,59,127
68506,note_off,0,0,0,,4,,,64,127
68506,note_off,0,0,0,,1,,,73,127
68506,note_off,0,0,0,,7,,,67,127
68507,note_on,1,0,0,,6,,,66,127
68507,note_on,0,0,0,,6,,,54,127
68507,note_on,0,0,0,,1,,,61,127
68609,note_off,102,0,0,,6,,,66,127
68610,note_on,1,0,0,,11,,,70,127
68712,note_off,102,0,0,,11,,,70,127
68712,note_off,0,0,0,,1,,,61,127
68712,note_off,0,0,0,,6,,,54,127
68713,note_on,1,0,0,,1,,,73,127
68713,note_on,0,0,0,,6,,,54,127
68713,note_on,0,0,0,,1,,,61,127
68815,note_off,102,0,0,,1,,,73,127
68816,note_on,1,0,0,,6,,,78,127
68918,note_off,102,0,0,,6,,,78,127
68918,note_off,0,0,0,,1,,,61,127
68918,note_off,0,0,0,,6,,,54,127
68919,note_on,1,0,0,,4,,,76,127
68919,note_on,0,0,0,,6,,,54,127
68919,note_on,0,0,0,,1,,,61,127
69124,note_off,205,0,0,,1,,,61,127
69124,note_off,0,0,0,,6,,,54,127
69125,note_on,1,0,0,,7,,,67,127
69125,note_on,0,0,0,,4,,,64,127
69125,note_on,0,0,0,,12,,,59,127
69125,note_on,0,0,0,,4,,,52,127
69330,note_off,205,0,0,,4,,,52,127
69330,note_off,0,0,0,,12,,,59,127
69330,note_off,0,0,0,,4,,,64,127
69330,note_off,0,0,0,,4,,,76,127
69331,note_on,1,0,0,,2,,,74,127
69331,note_on,0,0,0,,4,,,64,127
69331,note_on,0,0,0,,12,,,59,127
69331,note_on,0,0,0,,4,,,52,127
69536,note_off,205,0,0,,4,,,52,127
69536,note_off,0,0,0,,12,,,59,127
69536,note_off,0,0,0,,4,,,64,127
69536,note_off,0,0,0,,2,,,74,127
69537,note_on,1,0,0,,1,,,73,127
69537,note_on,0,0,0,,4,,,64,127
69537,note_on,0,0,0,,4,,,52,127
69537,note_on,0,0,0,,12,,,59,127
69742,note_off,205,0,0,,12,,,59,127
69742,note_off,0,0,0,,4,,,52,127
69742,note_off,0,0,0,,4,,,64,127
69742,note_off,0,0,0,,1,,,73,127
69743,note_on,1,0,0,,7,,,79,127
69743,note_on,0,0,0,,12,,,59,127
69743,note_on,0,0,0,,4,,,52,127
69744,note_off,1,0,0,,7,,,67,127
69845,note_off,101,0,0,,7,,,79,127
69846,note_on,1,0,0,,12,,,71,127
69948,note_off,102,0,0,,12,,,71,127
69949,note_on,1,0,0,,11,,,70,127
70051,note_off,102,0,0,,11,,,70,127
70052,note_on,1,0,0,,12,,,71,127
70154,note_off,102,0,0,,12,,,71,127
70154,note_off,0,0,0,,4,,,52,127
70154,note_off,0,0,0,,12,,,59,127
70155,note_on,1,0,0,,7,,,79,127
70155,note_on,0,0,0,,4,,,52,127
70155,note_on,0,0,0,,12,,,59,127
70257,note_off,102,0,0,,7,,,79,127
70258,note_on,1,0,0,,4,,,76,127
70360,note_off,102,0,0,,4,,,76,127
70360,note_off,0,0,0,,12,,,59,127
70360,note_off,0,0,0,,4,,,52,127
70361,note_on,1,0,0,,6,,,78,127
70361,note_on,0,0,0,,2,,,50,127
70361,note_on,0,0,0,,12,,,59,127
70463,note_off,102,0,0,,6,,,78,127
70464,note_on,1,0,0,,2,,,74,127
70566,note_off,102,0,0,,2,,,74,127
70567,note_on,1,0,0,,4,,,76,127
70669,note_off,102,0,0,,4,,,76,127
70670,note_on,1,0,0,,1,,,73,127
70772,note_off,102,0,0,,1,,,73,127
70772,note_off,0,0,0,,12,,,59,127
70772,note_off,0,0,0,,2,,,50,127
70773,note_on,1,0,0,,2,,,74,127
70773,note_on,0,0,0,,7,,,55,127
70875,note_off,102,0,0,,2,,,74,127
70876,note_on,1,0,0,,12,,,71,127
70978,note_off,102,0,0,,12,,,71,127
70978,note_off,0,0,0,,7,,,55,127
70979,note_on,1,0,0,,4,,,76,127
70979,note_on,0,0,0,,4,,,52,127
71081,note_off,102,0,0,,4,,,76,127
71082,note_on,1,0,0,,1,,,73,127
71184,note_off,102,0,0,,1,,,73,127
71184,note_off,0,0,0,,4,,,52,127
71185,note_on,1,0,0,,2,,,74,127
71185,note_on,0,0,0,,6,,,54,127
71287,note_off,102,0,0,,2,,,74,127
71288,note_on,1,0,0,,12,,,71,127
71390,note_off,102,0,0,,12,,,71,127
71390,note_off,0,0,0,,6,,,54,127
71391,note_on,1,0,0,,1,,,73,127
71391,note_on,0,0,0,,6,,,42,127
71493,note_off,102,0,0,,1,,,73,127
71494,note_on,1,0,0,,11,,,70,127
71596,note_off,102,0,0,,11,,,70,127
71596,note_off,0,0,0,,6,,,42,127
71610,note_on,14,0,0,,12,,,47,127
71610,note_on,0,0,0,,12,,,83,127
71712,note_off,102,0,0,,12,,,83,127
71713,note_on,1,0,0,,6,,,78,127
71815,note_off,102,0,0,,6,,,78,127
71816,note_on,1,0,0,,3,,,75,127
71918,note_off,102,0,0,,3,,,75,127
71919,note_on,1,0,0,,12,,,71,127
72021,note_off,102,0,0,,12,,,71,127
72022,note_on,1,0,0,,6,,,66,127
72124,note_off,102,0,0,,6,,,66,127
72125,note_on,1,0,0,,3,,,63,127
72227,note_off,102,0,0,,12,,,47,127
72228,note_off,1,0,0,,3,,,63,127
72228,note_on,0,0,0,,12,,,59,127
72330,note_off,102,0,0,,12,,,59,127
72331,note_on,1,0,0,,6,,,54,127
72433,note_off,102,0,0,,6,,,54,127
72434,note_on,1,0,0,,3,,,51,127
72536,note_off,102,0,0,,3,,,51,127
72537,note_on,1,0,0,,12,,,47,127
72639,note_off,102,0,0,,12,,,47,127
72640,note_on,1,0,0,,3,,,51,127
72742,note_off,102,0,0,,3,,,51,127
72743,note_on,1,0,0,,6,,,54,127
72845,note_off,102,0,0,,6,,,54,127
72846,note_on,1,0,0,,6,,,42,127
73052,note_on,206,0,0,,12,,,83,127
73103,note_on,51,0,0,,11,,,82,127
73119,note_off,16,0,0,,12,,,83,127
73154,note_on,35,0,0,,12,,,83,127
73170,note_off,16,0,0,,11,,,82,127
73205,note_on,35,0,0,,11,,,82,127
73221,note_off,16,0,0,,12,,,83,127
73256,note_on,35,0,0,,12,,,83,127
73272,note_off,16,0,0,,11,,,82,127
73307,note_on,35,0,0,,11,,,82,127
73323,note_off,16,0,0,,12,,,83,127
73358,note_off,35,0,0,,6,,,42,127
73358,note_on,0,0,0,,8,,,80,127
73374,note_off,16,0,0,,11,,,82,127
73409,note_on,35,0,0,,11,,,82,127
73425,note_off,16,0,0,,8,,,80,127
73460,note_on,35,0,0,,12,,,47,127
73460,note_on,0,0,0,,12,,,83,127
73476,note_off,16,0,0,,11,,,82,127
73562,note_off,86,0,0,,12,,,83,127
73563,note_on,1,0,0,,6,,,78,127
73665,note_off,102,0,0,,6,,,78,127
73666,note_on,1,0,0,,3,,,75,127
73768,note_off,102,0,0,,3,,,75,127
73769,note_on,1,0,0,,12,,,71,127
73871,note_off,102,0,0,,12,,,71,127
73872,note_on,1,0,0,,6,,,66,127
73974,note_off,102,0,0,,6,,,66,127
73975,note_on,1,0,0,,3,,,63,127
74077,note_off,102,0,0,,12,,,47,127
74078,note_off,1,0,0,,3,,,63,127
74078,note_on,0,0,0,,12,,,59,127
74180,note_off,102,0,0,,12,,,59,127
74181,note_on,1,0,0,,6,,,54,127
74283,note_off,102,0,0,,6,,,54,127
74284,note_on,1,0,0,,3,,,51,127
74386,note_off,102,0,0,,3,,,51,127
74387,note_on,1,0,0,,12,,,47,127
74489,note_off,102,0,0,,12,,,47,127
74490,note_on,1,0,0,,3,,,51,127
74592,note_off,102,0,0,,3,,,51,127
74593,note_on,1,0,0,,6,,,54,127
74695,note_off,102,0,0,,6,,,54,127
74696,note_on,1,0,0,,6,,,42,127
74902,note_on,206,0,0,,12,,,83,127
74953,note_on,51,0,0,,11,,,82,127
74969,note_off,16,0,0,,12,,,83,127
75004,note_on,35,0,0,,12,,,83,127
75020,note_off,16,0,0,,11,,,82,127
75055,note_on,35,0,0,,11,,,82,127
75071,note_off,16,0,0,,12,,,83,127
75106,note_on,35,0,0,,12,,,83,127
75122,note_off,16,0,0,,11,,,82,127
75157,note_on,35,0,0,,11,,,82,127
75166,note_off,9,0,0,,6,,,42,127
75173,note_off,7,0,0,,12,,,83,127
75208,note_on,35,0,0,,8,,,80,127
75224,note_off,16,0,0,,11,,,82,127
75259,note_on,35,0,0,,11,,,82,127
75275,note_off,16,0,0,,8,,,80,127
75310,note_on,35,0,0,,12,,,47,127
75310,note_on,0,0,0,,12,,,83,127
75326,note_off,16,0,0,,11,,,82,127
75412,note_off,86,0,0,,12,,,83,127
75413,note_on,1,0,0,,6,,,78,127
75515,note_off,102,0,0,,6,,,78,127
75516,note_on,1,0,0,,3,,,75,127
75618,note_off,102,0,0,,3,,,75,127
75619,note_on,1,0,0,,12,,,71,127
75721,note_off,102,0,0,,12,,,71,127
75721,note_off,0,0,0,,12,,,47,127
75722,note_on,1,0,0,,3,,,51,127
75722,note_on,0,0,0,,3,,,75,127
75824,note_off,102,0,0,,3,,,75,127
75825,note_on,1,0,0,,6,,,78,127
75927,note_off,102,0,0,,6,,,78,127
75927,note_off,0,0,0,,3,,,51,127
75928,note_on,1,0,0,,4,,,52,127
75928,note_on,0,0,0,,8,,,80,127
76030,note_off,102,0,0,,8,,,80,127
76031,note_on,1,0,0,,12,,,71,127
76133,note_off,102,0,0,,12,,,71,127
76133,note_off,0,0,0,,4,,,52,127
76134,note_on,1,0,0,,6,,,54,127
76134,note_on,0,0,0,,12,,,71,127
76339,note_off,205,0,0,,12,,,71,127
76340,note_on,1,0,0,,6,,,42,127
76340,note_on,0,0,0,,11,,,70,127
76541,note_off,201,0,0,,6,,,54,127
76544,note_off,3,0,0,,11,,,70,127
76544,note_off,0,0,0,,6,,,42,127
76545,note_on,1,0,0,,12,,,47,127
76545,note_on,0,0,0,,12,,,71,127
76647,note_off,102,0,0,,12,,,71,127
76648,note_on,1,0,0,,6,,,66,127
76750,note_off,102,0,0,,6,,,66,127
76751,note_on,1,0,0,,3,,,63,127
76853,note_off,102,0,0,,3,,,63,127
76854,note_on,1,0,0,,12,,,59,127
76956,note_off,102,0,0,,12,,,59,127
76956,note_off,0,0,0,,12,,,47,127
76957,note_on,1,0,0,,3,,,51,127
76957,note_on,0,0,0,,3,,,63,127
77059,note_off,102,0,0,,3,,,63,127
77060,note_on,1,0,0,,6,,,66,127
77162,note_off,102,0,0,,6,,,66,127
77162,note_off,0,0,0,,3,,,51,127
77163,note_on,1,0,0,,4,,,52,127
77163,note_on,0,0,0,,8,,,68,127
77265,note_off,102,0,0,,8,,,68,127
77266,note_on,1,0,0,,12,,,59,127
77368,note_off,102,0,0,,12,,,59,127
77368,note_off,0,0,0,,4,,,52,127
77369,note_on,1,0,0,,6,,,54,127
77369,note_on,0,0,0,,12,,,59,127
77584,note_on,215,0,0,,6,,,42,127
77642,note_off,58,0,0,,12,,,59,127
77653,note_on,11,0,0,,11,,,58,127
77722,note_on,69,0,0,,8,,,56,127
77737,note_off,15,0,0,,11,,,58,127
77777,note_off,40,0,0,,6,,,54,127
77791,note_on,14,0,0,,11,,,58,127
77806,note_off,15,0,0,,8,,,56,127
77838,note_off,32,0,0,,6,,,42,127
77860,note_on,22,0,0,,12,,,47,127
77860,note_on,0,0,0,,12,,,59,127
77873,note_off,13,0,0,,11,,,58,127
78814,note_off,941,0,0,,12,,,59,127
78818,note_off,4,0,0,,12,,,47,127
78844,note_on,26,0,0,,12,,,71,127
79050,note_on,206,0,0,,12,,,59,127
79255,note_off,205,0,0,,12,,,59,127
79256,note_on,1,0,0,,1,,,61,127
79461,note_off,205,0,0,,1,,,61,127
79462,note_off,1,0,0,,12,,,71,127
79462,note_on,0,0,0,,3,,,63,127
79462,note_on,0,0,0,,12,,,71,127
79667,note_off,205,0,0,,3,,,63,127
79668,note_on,1,0,0,,5,,,65,127
79873,note_off,205,0,0,,5,,,65,127
79874,note_on,1,0,0,,6,,,66,127
80079,note_off,205,0,0,,6,,,66,127
80080,note_off,1,0,0,,12,,,71,127
80080,note_on,0,0,0,,12,,,71,127
80080,note_on,0,0,0,,5,,,65,127
80080,note_on,0,0,0,,1,,,61,127
80286,note_on,206,0,0,,1,,,49,127
80491,note_off,205,0,0,,1,,,49,127
80491,note_off,0,0,0,,5,,,65,127
80492,note_on,1,0,0,,6,,,66,127
80492,note_on,0,0,0,,3,,,51,127
80697,note_off,205,0,0,,3,,,51,127
80697,note_off,0,0,0,,6,,,66,127
80698,note_off,1,0,0,,1,,,61,127
80698,note_off,0,0,0,,12,,,71,127
80698,note_on,0,0,0,,12,,,71,127
80698,note_on,0,0,0,,8,,,68,127
80698,note_on,0,0,0,,5,,,53,127
80698,note_on,0,0,0,,1,,,61,127
80903,note_off,205,0,0,,5,,,53,127
80903,note_off,0,0,0,,8,,,68,127
80904,note_on,1,0,0,,11,,,70,127
80904,note_on,0,0,0,,6,,,54,127
81109,note_off,205,0,0,,6,,,54,127
81109,note_off,0,0,0,,11,,,70,127
81110,note_off,1,0,0,,12,,,71,127
81110,note_on,0,0,0,,12,,,71,127
81110,note_on,0,0,0,,8,,,56,127
81315,note_off,205,0,0,,8,,,56,127
81315,note_off,0,0,0,,12,,,71,127
81316,note_off,1,0,0,,1,,,61,127
81316,note_on,0,0,0,,11,,,70,127
81316,note_on,0,0,0,,1,,,73,127
81316,note_on,0,0,0,,6,,,54,127
81521,note_off,205,0,0,,11,,,70,127
81522,note_on,1,0,0,,1,,,61,127
81727,note_off,205,0,0,,1,,,61,127
81728,note_on,1,0,0,,3,,,63,127
81933,note_off,205,0,0,,3,,,63,127
81934,note_off,1,0,0,,6,,,54,127
81934,note_off,0,0,0,,1,,,73,127
81934,note_on,0,0,0,,5,,,65,127
81934,note_on,0,0,0,,1,,,73,127
82139,note_off,205,0,0,,5,,,65,127
82140,note_on,1,0,0,,7,,,67,127
82345,note_off,205,0,0,,7,,,67,127
82346,note_on,1,0,0,,8,,,68,127
82551,note_off,205,0,0,,8,,,68,127
82552,note_off,1,0,0,,1,,,73,127
82552,note_on,0,0,0,,7,,,67,127
82552,note_on,0,0,0,,1,,,73,127
82552,note_on,0,0,0,,3,,,63,127
82758,note_on,206,0,0,,3,,,51,127
82963,note_off,205,0,0,,3,,,51,127
82963,note_off,0,0,0,,7,,,67,127
82964,note_on,1,0,0,,8,,,68,127
82964,note_on,0,0,0,,5,,,53,127
83169,note_off,205,0,0,,5,,,53,127
83169,note_off,0,0,0,,8,,,68,127
83170,note_off,1,0,0,,3,,,63,127
83170,note_off,0,0,0,,1,,,73,127
83170,note_on,0,0,0,,11,,,70,127
83170,note_on,0,0,0,,1,,,73,127
83170,note_on,0,0,0,,3,,,63,127
83170,note_on,0,0,0,,7,,,55,127
83375,note_off,205,0,0,,7,,,55,127
83375,note_off,0,0,0,,11,,,70,127
83376,note_on,1,0,0,,0,,,72,127
83376,note_on,0,0,0,,8,,,56,127
83581,note_off,205,0,0,,8,,,56,127
83581,note_off,0,0,0,,0,,,72,127
83581,note_off,0,0,0,,1,,,73,127
83582,note_on,1,0,0,,1,,,73,127
83582,note_on,0,0,0,,11,,,58,127
83787,note_off,205,0,0,,11,,,58,127
83787,note_off,0,0,0,,1,,,73,127
83788,note_off,1,0,0,,3,,,63,127
83788,note_on,0,0,0,,0,,,72,127
83788,note_on,0,0,0,,3,,,75,127
83788,note_on,0,0,0,,8,,,56,127
83993,note_off,205,0,0,,0,,,72,127
83994,note_on,1,0,0,,3,,,63,127
84199,note_off,205,0,0,,3,,,63,127
84200,note_on,1,0,0,,5,,,65,127
84405,note_off,205,0,0,,5,,,65,127
84406,note_off,1,0,0,,8,,,56,127
84406,note_off,0,0,0,,3,,,75,127
84406,note_on,0,0,0,,7,,,67,127
84406,note_on,0,0,0,,3,,,75,127
84611,note_off,205,0,0,,7,,,67,127
84612,note_on,1,0,0,,10,,,69,127
84817,note_off,205,0,0,,10,,,69,127
84818,note_on,1,0,0,,11,,,70,127
85023,note_off,205,0,0,,11,,,70,127
85024,note_off,1,0,0,,3,,,75,127
85024,note_on,0,0,0,,11,,,70,127
85024,note_on,0,0,0,,3,,,75,127
85024,note_on,0,0,0,,5,,,53,127
85024,note_on,0,0,0,,5,,,65,127
85229,note_off,205,0,0,,5,,,53,127
85229,note_off,0,0,0,,11,,,70,127
85230,note_on,1,0,0,,10,,,69,127
85230,note_on,0,0,0,,5,,,53,127
85435,note_off,205,0,0,,5,,,53,127
85435,note_off,0,0,0,,10,,,69,127
85436,note_on,1,0,0,,11,,,70,127
85436,note_on,0,0,0,,7,,,55,127
85641,note_off,205,0,0,,7,,,55,127
85641,note_off,0,0,0,,11,,,70,127
85642,note_off,1,0,0,,5,,,65,127
85642,note_off,0,0,0,,3,,,75,127
85642,note_on,0,0,0,,3,,,75,127
85642,note_on,0,0,0,,0,,,72,127
85642,note_on,0,0,0,,5,,,65,127
85642,note_on,0,0,0,,10,,,57,127
85847,note_off,205,0,0,,10,,,57,127
85847,note_off,0,0,0,,0,,,72,127
85848,note_on,1,0,0,,1,,,73,127
85848,note_on,0,0,0,,11,,,58,127
86053,note_off,205,0,0,,11,,,58,127
86053,note_off,0,0,0,,1,,,73,127
86053,note_off,0,0,0,,3,,,75,127
86054,note_on,1,0,0,,3,,,75,127
86054,note_on,0,0,0,,0,,,60,127
86259,note_off,205,0,0,,0,,,60,127
86259,note_off,0,0,0,,3,,,75,127
86260,note_off,1,0,0,,5,,,65,127
86260,note_on,0,0,0,,3,,,75,127
86260,note_on,0,0,0,,11,,,58,127
86311,note_on,51,0,0,,1,,,73,127
86327,note_off,16,0,0,,3,,,75,127
86362,note_on,35,0,0,,3,,,75,127
86378,note_off,16,0,0,,1,,,73,127
86413,note_on,35,0,0,,1,,,73,127
86429,note_off,16,0,0,,3,,,75,127
86463,note_off,34,0,0,,11,,,58,127
86464,note_on,1,0,0,,3,,,75,127
86464,note_on,0,0,0,,11,,,46,127
86480,note_off,16,0,0,,1,,,73,127
86515,note_on,35,0,0,,1,,,73,127
86531,note_off,16,0,0,,3,,,75,127
86566,note_on,35,0,0,,0,,,72,127
86582,note_off,16,0,0,,1,,,73,127
86668,note_off,86,0,0,,0,,,72,127
86669,note_on,1,0,0,,11,,,70,127
86874,note_off,205,0,0,,11,,,46,127
86901,note_on,27,0,0,,11,,,58,127
87080,note_off,179,0,0,,11,,,70,127
87107,note_on,27,0,0,,11,,,82,127
87107,note_on,0,0,0,,1,,,73,127
87312,note_off,205,0,0,,1,,,73,127
87312,note_off,0,0,0,,11,,,82,127
87313,note_on,1,0,0,,0,,,72,127
87313,note_on,0,0,0,,8,,,80,127
87518,note_off,205,0,0,,8,,,80,127
87518,note_off,0,0,0,,0,,,72,127
87518,note_off,0,0,0,,11,,,58,127
87519,note_on,1,0,0,,11,,,46,127
87519,note_on,0,0,0,,8,,,80,127
87519,note_on,0,0,0,,0,,,72,127
87724,note_off,205,0,0,,0,,,72,127
87724,note_off,0,0,0,,8,,,80,127
87725,note_on,1,0,0,,6,,,78,127
87725,note_on,0,0,0,,11,,,70,127
87930,note_off,205,0,0,,11,,,70,127
87930,note_off,0,0,0,,6,,,78,127
87931,note_on,1,0,0,,5,,,77,127
87931,note_on,0,0,0,,8,,,68,127
88136,note_off,205,0,0,,8,,,68,127
88136,note_off,0,0,0,,5,,,77,127
88136,note_off,0,0,0,,11,,,46,127
88137,note_on,1,0,0,,11,,,58,127
88137,note_on,0,0,0,,5,,,77,127
88137,note_on,0,0,0,,8,,,68,127
88342,note_off,205,0,0,,8,,,68,127
88342,note_off,0,0,0,,5,,,77,127
88343,note_on,1,0,0,,4,,,76,127
88343,note_on,0,0,0,,7,,,67,127
88548,note_off,205,0,0,,7,,,67,127
88548,note_off,0,0,0,,4,,,76,127
88548,note_off,0,0,0,,11,,,58,127
88549,note_on,1,0,0,,12,,,59,127
88549,note_on,0,0,0,,8,,,68,127
88549,note_on,0,0,0,,5,,,77,127
88754,note_off,205,0,0,,5,,,77,127
88754,note_off,0,0,0,,8,,,68,127
88754,note_off,0,0,0,,12,,,59,127
88755,note_on,1,0,0,,0,,,60,127
88755,note_on,0,0,0,,5,,,77,127
88755,note_on,0,0,0,,8,,,68,127
88960,note_off,205,0,0,,8,,,68,127
88960,note_off,0,0,0,,5,,,77,127
88961,note_on,1,0,0,,7,,,67,127
88961,note_on,0,0,0,,4,,,76,127
89166,note_off,205,0,0,,4,,,76,127
89166,note_off,0,0,0,,7,,,67,127
89166,note_off,0,0,0,,0,,,60,127
89167,note_on,1,0,0,,12,,,59,127
89167,note_on,0,0,0,,8,,,68,127
89167,note_on,0,0,0,,5,,,77,127
89372,note_off,205,0,0,,5,,,77,127
89372,note_off,0,0,0,,8,,,68,127
89372,note_off,0,0,0,,12,,,59,127
89373,note_on,1,0,0,,0,,,60,127
89373,note_on,0,0,0,,8,,,68,127
89373,note_on,0,0,0,,5,,,77,127
89578,note_off,205,0,0,,5,,,77,127
89578,note_off,0,0,0,,8,,,68,127
89579,note_on,1,0,0,,4,,,76,127
89579,note_on,0,0,0,,7,,,67,127
89784,note_off,205,0,0,,7,,,67,127
89784,note_off,0,0,0,,4,,,76,127
89784,note_off,0,0,0,,0,,,60,127
89785,note_on,1,0,0,,12,,,59,127
89785,note_on,0,0,0,,8,,,68,127
89785,note_on,0,0,0,,5,,,77,127
89990,note_off,205,0,0,,5,,,77,127
89990,note_off,0,0,0,,8,,,68,127
89990,note_off,0,0,0,,12,,,59,127
89991,note_on,1,0,0,,0,,,60,127
89991,note_on,0,0,0,,4,,,76,127
89991,note_on,0,0,0,,7,,,67,127
90196,note_off,205,0,0,,7,,,67,127
90196,note_off,0,0,0,,4,,,76,127
90196,note_off,0,0,0,,0,,,60,127
90197,note_on,1,0,0,,1,,,61,127
90197,note_on,0,0,0,,7,,,79,127
90248,note_on,51,0,0,,5,,,77,127
90264,note_off,16,0,0,,7,,,79,127
90299,note_on,35,0,0,,7,,,79,127
90315,note_off,16,0,0,,5,,,77,127
90350,note_on,35,0,0,,5,,,77,127
90366,note_off,16,0,0,,7,,,79,127
90401,note_on,35,0,0,,7,,,79,127
90417,note_off,16,0,0,,5,,,77,127
90452,note_on,35,0,0,,5,,,77,127
90468,note_off,16,0,0,,7,,,79,127
90503,note_on,35,0,0,,4,,,76,127
90519,note_off,16,0,0,,5,,,77,127
90554,note_on,35,0,0,,5,,,77,127
90570,note_off,16,0,0,,4,,,76,127
90601,note_off,31,0,0,,5,,,77,127
90604,note_off,3,0,0,,1,,,61,127
90605,note_on,1,0,0,,0,,,60,127
90605,note_on,0,0,0,,5,,,77,127
90810,note_off,205,0,0,,0,,,60,127
90811,note_on,1,0,0,,0,,,48,127
91012,note_off,201,0,0,,5,,,77,127
91016,note_on,4,0,0,,7,,,79,127
91426,note_off,410,0,0,,0,,,48,127
91573,note_off,147,0,0,,7,,,79,127
91839,note_on,266,0,0,,0,,,72,127
92044,note_off,205,0,0,,0,,,72,127
92045,note_on,1,0,0,,0,,,72,127
92250,note_off,205,0,0,,0,,,72,127
92251,note_on,1,0,0,,0,,,72,127
92456,note_off,205,0,0,,0,,,72,127
92457,note_on,1,0,0,,11,,,70,127
92457,note_on,0,0,0,,5,,,65,127
92457,note_on,0,0,0,,1,,,73,127
92662,note_off,205,0,0,,1,,,73,127
92662,note_off,0,0,0,,5,,,65,127
92662,note_off,0,0,0,,11,,,70,127
92663,note_on,1,0,0,,5,,,65,127
92663,note_on,0,0,0,,11,,,70,127
92663,note_on,0,0,0,,1,,,73,127
92868,note_off,205,0,0,,1,,,73,127
92868,note_off,0,0,0,,11,,,70,127
92868,note_off,0,0,0,,5,,,65,127
92869,note_on,1,0,0,,11,,,70,127
92869,note_on,0,0,0,,5,,,65,127
92869,note_on,0,0,0,,1,,,73,127
93074,note_off,205,0,0,,1,,,73,127
93074,note_off,0,0,0,,5,,,65,127
93074,note_off,0,0,0,,11,,,70,127
93075,note_on,1,0,0,,11,,,70,127
93075,note_on,0,0,0,,5,,,65,127
93075,note_on,0,0,0,,1,,,73,127
93075,note_on,0,0,0,,4,,,76,127
93280,note_off,205,0,0,,4,,,76,127
93280,note_off,0,0,0,,1,,,73,127
93280,note_off,0,0,0,,5,,,65,127
93280,note_off,0,0,0,,11,,,70,127
93281,note_on,1,0,0,,11,,,70,127
93281,note_on,0,0,0,,5,,,65,127
93281,note_on,0,0,0,,4,,,76,127
93281,note_on,0,0,0,,1,,,73,127
93486,note_off,205,0,0,,1,,,73,127
93486,note_off,0,0,0,,4,,,76,127
93486,note_off,0,0,0,,5,,,65,127
93486,note_off,0,0,0,,11,,,70,127
93487,note_on,1,0,0,,5,,,65,127
93487,note_on,0,0,0,,11,,,70,127
93487,note_on,0,0,0,,1,,,73,127
93487,note_on,0,0,0,,4,,,76,127
93692,note_off,205,0,0,,4,,,76,127
93692,note_off,0,0,0,,1,,,73,127
93692,note_off,0,0,0,,11,,,70,127
93693,note_on,1,0,0,,8,,,68,127
93693,note_on,0,0,0,,5,,,77,127
93693,note_on,0,0,0,,0,,,72,127
93898,note_off,205,0,0,,5,,,77,127
93898,note_off,0,0,0,,8,,,68,127
93899,note_on,1,0,0,,7,,,67,127
93899,note_on,0,0,0,,4,,,76,127
94104,note_off,205,0,0,,4,,,76,127
94104,note_off,0,0,0,,7,,,67,127
94105,note_on,1,0,0,,10,,,69,127
94105,note_on,0,0,0,,5,,,77,127
94310,note_off,205,0,0,,5,,,77,127
94310,note_off,0,0,0,,0,,,72,127
94311,note_on,1,0,0,,0,,,72,127
94516,note_off,205,0,0,,0,,,72,127
94517,note_on,1,0,0,,0,,,72,127
94722,note_off,205,0,0,,0,,,72,127
94723,note_off,1,0,0,,10,,,69,127
94723,note_off,0,0,0,,5,,,65,127
94723,note_on,0,0,0,,0,,,72,127
94928,note_off,205,0,0,,0,,,72,127
94929,note_on,1,0,0,,11,,,70,127
94929,note_on,0,0,0,,5,,,65,127
94929,note_on,0,0,0,,1,,,73,127
95134,note_off,205,0,0,,1,,,73,127
95134,note_off,0,0,0,,5,,,65,127
95134,note_off,0,0,0,,11,,,70,127
95135,note_on,1,0,0,,11,,,70,127
95135,note_on,0,0,0,,5,,,65,127
95135,note_on,0,0,0,,1,,,73,127
95340,note_off,205,0,0,,1,,,73,127
95340,note_off,0,0,0,,5,,,65,127
95340,note_off,0,0,0,,11,,,70,127
95341,note_on,1,0,0,,11,,,70,127
95341,note_on,0,0,0,,5,,,65,127
95341,note_on,0,0,0,,1,,,73,127
95546,note_off,205,0,0,,1,,,73,127
95546,note_off,0,0,0,,5,,,65,127
95546,note_off,0,0,0,,11,,,70,127
95547,note_on,1,0,0,,11,,,70,127
95547,note_on,0,0,0,,5,,,65,127
95547,note_on,0,0,0,,1,,,73,127
95547,note_on,0,0,0,,4,,,76,127
95752,note_off,205,0,0,,4,,,76,127
95752,note_off,0,0,0,,1,,,73,127
95752,note_off,0,0,0,,5,,,65,127
95752,note_off,0,0,0,,11,,,70,127
95753,note_on,1,0,0,,11,,,70,127
95753,note_on,0,0,0,,5,,,65,127
95753,note_on,0,0,0,,1,,,73,127
95753,note_on,0,0,0,,4,,,76,127
95958,note_off,205,0,0,,4,,,76,127
95958,note_off,0,0,0,,1,,,73,127
95958,note_off,0,0,0,,5,,,65,127
95958,note_off,0,0,0,,11,,,70,127
95959,note_on,1,0,0,,11,,,70,127
95959,note_on,0,0,0,,5,,,65,127
95959,note_on,0,0,0,,4,,,76,127
95959,note_on,0,0,0,,1,,,73,127
96164,note_off,205,0,0,,1,,,73,127
96164,note_off,0,0,0,,4,,,76,127
96164,note_off,0,0,0,,11,,,70,127
96165,note_on,1,0,0,,10,,,69,127
96165,note_on,0,0,0,,5,,,77,127
96165,note_on,0,0,0,,0,,,72,127
96370,note_off,205,0,0,,5,,,77,127
96370,note_off,0,0,0,,10,,,69,127
96371,note_on,1,0,0,,7,,,67,127
96371,note_on,0,0,0,,4,,,76,127
96576,note_off,205,0,0,,4,,,76,127
96576,note_off,0,0,0,,7,,,67,127
96577,note_off,1,0,0,,0,,,72,127
96577,note_on,0,0,0,,10,,,69,127
96577,note_on,0,0,0,,5,,,77,127
96782,note_off,205,0,0,,5,,,77,127
96783,note_on,1,0,0,,5,,,77,127
96988,note_off,205,0,0,,5,,,77,127
96989,note_on,1,0,0,,5,,,77,127
97194,note_off,205,0,0,,5,,,77,127
97194,note_off,0,0,0,,10,,,69,127
97195,note_off,1,0,0,,5,,,65,127
97195,note_on,0,0,0,,5,,,77,127
97400,note_off,205,0,0,,5,,,77,127
97401,note_on,1,0,0,,3,,,75,127
97401,note_on,0,0,0,,11,,,70,127
97401,note_on,0,0,0,,6,,,78,127
97606,note_off,205,0,0,,6,,,78,127
97606,note_off,0,0,0,,11,,,70,127
97606,note_off,0,0,0,,3,,,75,127
97607,note_on,1,0,0,,11,,,70,127
97607,note_on,0,0,0,,3,,,75,127
97607,note_on,0,0,0,,6,,,78,127
97812,note_off,205,0,0,,6,,,78,127
97812,note_off,0,0,0,,3,,,75,127
97812,note_off,0,0,0,,11,,,70,127
97813,note_on,1,0,0,,11,,,70,127
97813,note_on,0,0,0,,3,,,75,127
97813,note_on,0,0,0,,6,,,78,127
98018,note_off,205,0,0,,6,,,78,127
98018,note_off,0,0,0,,3,,,75,127
98018,note_off,0,0,0,,11,,,70,127
98019,note_on,1,0,0,,11,,,70,127
98019,note_on,0,0,0,,3,,,75,127
98019,note_on,0,0,0,,6,,,78,127
98019,note_on,0,0,0,,10,,,81,127
98224,note_off,205,0,0,,10,,,81,127
98224,note_off,0,0,0,,6,,,78,127
98224,note_off,0,0,0,,3,,,75,127
98224,note_off,0,0,0,,11,,,70,127
98225,note_on,1,0,0,,11,,,70,127
98225,note_on,0,0,0,,3,,,75,127
98225,note_on,0,0,0,,10,,,81,127
98225,note_on,0,0,0,,6,,,78,127
98430,note_off,205,0,0,,6,,,78,127
98430,note_off,0,0,0,,10,,,81,127
98430,note_off,0,0,0,,3,,,75,127
98430,note_off,0,0,0,,11,,,70,127
98431,note_on,1,0,0,,11,,,70,127
98431,note_on,0,0,0,,3,,,75,127
98431,note_on,0,0,0,,10,,,81,127
98431,note_on,0,0,0,,6,,,78,127
98636,note_off,205,0,0,,6,,,78,127
98636,note_off,0,0,0,,10,,,81,127
98636,note_off,0,0,0,,3,,,75,127
98637,note_on,1,0,0,,2,,,74,127
98637,note_on,0,0,0,,11,,,82,127
98637,note_on,0,0,0,,5,,,77,127
98842,note_off,205,0,0,,11,,,82,127
98842,note_off,0,0,0,,2,,,74,127
98843,note_on,1,0,0,,0,,,72,127
98843,note_on,0,0,0,,10,,,81,127
99048,note_off,205,0,0,,10,,,81,127
99048,note_off,0,0,0,,0,,,72,127
99049,note_off,1,0,0,,5,,,77,127
99049,note_on,0,0,0,,2,,,74,127
99049,note_on,0,0,0,,11,,,82,127
99254,note_off,205,0,0,,11,,,82,127
99255,note_on,1,0,0,,5,,,77,127
99460,note_off,205,0,0,,5,,,77,127
99461,note_on,1,0,0,,5,,,77,127
99666,note_off,205,0,0,,5,,,77,127
99666,note_off,0,0,0,,2,,,74,127
99667,note_off,1,0,0,,11,,,70,127
99667,note_on,0,0,0,,5,,,77,127
99872,note_off,205,0,0,,5,,,77,127
99873,note_on,1,0,0,,3,,,75,127
99873,note_on,0,0,0,,11,,,70,127
99873,note_on,0,0,0,,6,,,78,127
100078,note_off,205,0,0,,6,,,78,127
100078,note_off,0,0,0,,11,,,70,127
100078,note_off,0,0,0,,3,,,75,127
100079,note_on,1,0,0,,11,,,70,127
100079,note_on,0,0,0,,3,,,75,127
100079,note_on,0,0,0,,6,,,78,127
100284,note_off,205,0,0,,6,,,78,127
100284,note_off,0,0,0,,3,,,75,127
100284,note_off,0,0,0,,11,,,70,127
100285,note_on,1,0,0,,3,,,75,127
100285,note_on,0,0,0,,11,,,70,127
100285,note_on,0,0,0,,6,,,78,127
100490,note_off,205,0,0,,6,,,78,127
100490,note_off,0,0,0,,11,,,70,127
100490,note_off,0,0,0,,3,,,75,127
100491,note_on,1,0,0,,3,,,75,127
100491,note_on,0,0,0,,11,,,70,127
100491,note_on,0,0,0,,6,,,78,127
100491,note_on,0,0,0,,10,,,81,127
100696,note_off,205,0,0,,10,,,81,127
100696,note_off,0,0,0,,6,,,78,127
100696,note_off,0,0,0,,11,,,70,127
100696,note_off,0,0,0,,3,,,75,127
100697,note_on,1,0,0,,11,,,70,127
100697,note_on,0,0,0,,3,,,75,127
100697,note_on,0,0,0,,10,,,81,127
100697,note_on,0,0,0,,6,,,78,127
100902,note_off,205,0,0,,6,,,78,127
100902,note_off,0,0,0,,10,,,81,127
100902,note_off,0,0,0,,3,,,75,127
100902,note_off,0,0,0,,11,,,70,127
100903,note_on,1,0,0,,11,,,70,127
100903,note_on,0,0,0,,3,,,75,127
100903,note_on,0,0,0,,10,,,81,127
100903,note_on,0,0,0,,6,,,78,127
101108,note_off,205,0,0,,6,,,78,127
101108,note_off,0,0,0,,10,,,81,127
101108,note_off,0,0,0,,3,,,75,127
101109,note_on,1,0,0,,2,,,74,127
101109,note_on,0,0,0,,11,,,82,127
101109,note_on,0,0,0,,5,,,77,127
101314,note_off,205,0,0,,5,,,77,127
101314,note_off,0,0,0,,11,,,82,127
101314,note_off,0,0,0,,2,,,74,127
101315,note_on,1,0,0,,0,,,72,127
101315,note_on,0,0,0,,10,,,81,127
101520,note_off,205,0,0,,10,,,81,127
101520,note_off,0,0,0,,0,,,72,127
101521,note_on,1,0,0,,2,,,74,127
101521,note_on,0,0,0,,11,,,82,127
101726,note_off,205,0,0,,11,,,82,127
101727,note_on,1,0,0,,3,,,75,127
101932,note_off,205,0,0,,3,,,75,127
101933,note_on,1,0,0,,3,,,75,127
102138,note_off,205,0,0,,3,,,75,127
102138,note_off,0,0,0,,2,,,74,127
102139,note_off,1,0,0,,11,,,70,127
102139,note_on,0,0,0,,3,,,75,127
102344,note_off,205,0,0,,3,,,75,127
102345,note_on,1,0,0,,8,,,68,127
102345,note_on,0,0,0,,1,,,73,127
102345,note_on,0,0,0,,5,,,77,127
102550,note_off,205,0,0,,5,,,77,127
102550,note_off,0,0,0,,1,,,73,127
102550,note_off,0,0,0,,8,,,68,127
102551,note_on,1,0,0,,8,,,68,127
102551,note_on,0,0,0,,1,,,73,127
102551,note_on,0,0,0,,5,,,77,127
102756,note_off,205,0,0,,5,,,77,127
102756,note_off,0,0,0,,1,,,73,127
102756,note_off,0,0,0,,8,,,68,127
102757,note_on,1,0,0,,1,,,73,127
102757,note_on,0,0,0,,8,,,68,127
102757,note_on,0,0,0,,5,,,77,127
102962,note_off,205,0,0,,5,,,77,127
102962,note_off,0,0,0,,8,,,68,127
102962,note_off,0,0,0,,1,,,73,127
102963,note_on,1,0,0,,3,,,63,127
102963,note_on,0,0,0,,1,,,73,127
102963,note_on,0,0,0,,11,,,70,127
102963,note_on,0,0,0,,7,,,79,127
103168,note_off,205,0,0,,7,,,79,127
103168,note_off,0,0,0,,11,,,70,127
103168,note_off,0,0,0,,1,,,73,127
103168,note_off,0,0,0,,3,,,63,127
103169,note_on,1,0,0,,11,,,70,127
103169,note_on,0,0,0,,3,,,63,127
103169,note_on,0,0,0,,1,,,73,127
103169,note_on,0,0,0,,7,,,79,127
103374,note_off,205,0,0,,7,,,79,127
103374,note_off,0,0,0,,1,,,73,127
103374,note_off,0,0,0,,3,,,63,127
103374,note_off,0,0,0,,11,,,70,127
103375,note_on,1,0,0,,3,,,63,127
103375,note_on,0,0,0,,11,,,70,127
103375,note_on,0,0,0,,1,,,73,127
103375,note_on,0,0,0,,7,,,79,127
103580,note_off,205,0,0,,7,,,79,127
103580,note_off,0,0,0,,1,,,73,127
103580,note_off,0,0,0,,11,,,70,127
103581,note_on,1,0,0,,8,,,68,127
103581,note_on,0,0,0,,0,,,72,127
103581,note_on,0,0,0,,8,,,80,127
103786,note_off,205,0,0,,8,,,80,127
103786,note_off,0,0,0,,0,,,72,127
103786,note_off,0,0,0,,8,,,68,127
103787,note_on,1,0,0,,11,,,70,127
103787,note_on,0,0,0,,7,,,79,127
103992,note_off,205,0,0,,7,,,79,127
103992,note_off,0,0,0,,11,,,70,127
103993,note_on,1,0,0,,0,,,72,127
103993,note_on,0,0,0,,8,,,80,127
104198,note_off,205,0,0,,8,,,80,127
104199,note_on,1,0,0,,3,,,75,127
104404,note_off,205,0,0,,3,,,75,127
104405,note_on,1,0,0,,3,,,75,127
104610,note_off,205,0,0,,3,,,75,127
104610,note_off,0,0,0,,0,,,72,127
104611,note_off,1,0,0,,3,,,63,127
104611,note_on,0,0,0,,3,,,75,127
104816,note_off,205,0,0,,3,,,75,127
104817,note_on,1,0,0,,1,,,73,127
104817,note_on,0,0,0,,8,,,68,127
104817,note_on,0,0,0,,5,,,77,127
105022,note_off,205,0,0,,5,,,77,127
105022,note_off,0,0,0,,8,,,68,127
105022,note_off,0,0,0,,1,,,73,127
105023,note_on,1,0,0,,1,,,73,127
105023,note_on,0,0,0,,8,,,68,127
105023,note_on,0,0,0,,5,,,77,127
105228,note_off,205,0,0,,5,,,77,127
105228,note_off,0,0,0,,8,,,68,127
105228,note_off,0,0,0,,1,,,73,127
105229,note_on,1,0,0,,1,,,73,127
105229,note_on,0,0,0,,8,,,68,127
105229,note_on,0,0,0,,5,,,77,127
105434,note_off,205,0,0,,5,,,77,127
105434,note_off,0,0,0,,8,,,68,127
105434,note_off,0,0,0,,1,,,73,127
105435,note_on,1,0,0,,3,,,63,127
105435,note_on,0,0,0,,1,,,73,127
105435,note_on,0,0,0,,11,,,70,127
105435,note_on,0,0,0,,7,,,79,127
105640,note_off,205,0,0,,7,,,79,127
105640,note_off,0,0,0,,11,,,70,127
105640,note_off,0,0,0,,1,,,73,127
105640,note_off,0,0,0,,3,,,63,127
105641,note_on,1,0,0,,11,,,70,127
105641,note_on,0,0,0,,3,,,63,127
105641,note_on,0,0,0,,1,,,73,127
105641,note_on,0,0,0,,7,,,79,127
105846,note_off,205,0,0,,7,,,79,127
105846,note_off,0,0,0,,1,,,73,127
105846,note_off,0,0,0,,3,,,63,127
105846,note_off,0,0,0,,11,,,70,127
105847,note_on,1,0,0,,3,,,63,127
105847,note_on,0,0,0,,1,,,73,127
105847,note_on,0,0,0,,11,,,70,127
105847,note_on,0,0,0,,7,,,79,127
106052,note_off,205,0,0,,7,,,79,127
106052,note_off,0,0,0,,11,,,70,127
106052,note_off,0,0,0,,1,,,73,127
106052,note_off,0,0,0,,3,,,63,127
106053,note_on,1,0,0,,3,,,63,127
106053,note_on,0,0,0,,8,,,68,127
106053,note_on,0,0,0,,0,,,72,127
106053,note_on,0,0,0,,8,,,80,127
106258,note_off,205,0,0,,8,,,80,127
106258,note_off,0,0,0,,0,,,72,127
106258,note_off,0,0,0,,8,,,68,127
106258,note_off,0,0,0,,3,,,63,127
106259,note_on,1,0,0,,11,,,70,127
106259,note_on,0,0,0,,3,,,63,127
106259,note_on,0,0,0,,7,,,79,127
106464,note_off,205,0,0,,7,,,79,127
106464,note_off,0,0,0,,3,,,63,127
106464,note_off,0,0,0,,11,,,70,127
106465,note_on,1,0,0,,3,,,63,127
106465,note_on,0,0,0,,0,,,72,127
106465,note_on,0,0,0,,8,,,80,127
106670,note_off,205,0,0,,8,,,80,127
106670,note_off,0,0,0,,0,,,72,127
106670,note_off,0,0,0,,3,,,63,127
106671,note_on,1,0,0,,8,,,68,127
106671,note_on,0,0,0,,3,,,63,127
106671,note_on,0,0,0,,0,,,72,127
106671,note_on,0,0,0,,11,,,82,127
106876,note_off,205,0,0,,11,,,82,127
106876,note_off,0,0,0,,0,,,72,127
106876,note_off,0,0,0,,3,,,63,127
106876,note_off,0,0,0,,8,,,68,127
106877,note_on,1,0,0,,3,,,63,127
106877,note_on,0,0,0,,0,,,72,127
106877,note_on,0,0,0,,8,,,68,127
106877,note_on,0,0,0,,0,,,84,127
107082,note_off,205,0,0,,0,,,84,127
107082,note_off,0,0,0,,8,,,68,127
107082,note_off,0,0,0,,0,,,72,127
107082,note_off,0,0,0,,3,,,63,127
107083,note_on,1,0,0,,11,,,70,127
107083,note_on,0,0,0,,2,,,62,127
107083,note_on,0,0,0,,11,,,82,127
107134,note_on,51,0,0,,8,,,80,127
107150,note_off,16,0,0,,11,,,82,127
107185,note_on,35,0,0,,11,,,82,127
107201,note_off,16,0,0,,8,,,80,127
107236,note_on,35,0,0,,8,,,80,127
107252,note_off,16,0,0,,11,,,82,127
107286,note_off,34,0,0,,2,,,62,127
107286,note_off,0,0,0,,11,,,70,127
107287,note_on,1,0,0,,2,,,62,127
107287,note_on,0,0,0,,11,,,70,127
107287,note_on,0,0,0,,11,,,82,127
107303,note_off,16,0,0,,8,,,80,127
107338,note_on,35,0,0,,8,,,80,127
107354,note_off,16,0,0,,11,,,82,127
107389,note_on,35,0,0,,11,,,82,127
107405,note_off,16,0,0,,8,,,80,127
107440,note_on,35,0,0,,8,,,80,127
107456,note_off,16,0,0,,11,,,82,127
107490,note_off,34,0,0,,11,,,70,127
107490,note_off,0,0,0,,2,,,62,127
107491,note_on,1,0,0,,11,,,70,127
107491,note_on,0,0,0,,3,,,63,127
107491,note_on,0,0,0,,7,,,79,127
107507,note_off,16,0,0,,8,,,80,127
107696,note_off,189,0,0,,7,,,79,127
107696,note_off,0,0,0,,3,,,63,127
107696,note_off,0,0,0,,11,,,70,127
107697,note_on,1,0,0,,2,,,62,127
107697,note_on,0,0,0,,11,,,70,127
107697,note_on,0,0,0,,11,,,82,127
107748,note_on,51,0,0,,8,,,80,127
107764,note_off,16,0,0,,11,,,82,127
107799,note_on,35,0,0,,11,,,82,127
107815,note_off,16,0,0,,8,,,80,127
107850,note_on,35,0,0,,8,,,80,127
107866,note_off,16,0,0,,11,,,82,127
107900,note_off,34,0,0,,11,,,70,127
107900,note_off,0,0,0,,2,,,62,127
107901,note_on,1,0,0,,2,,,62,127
107901,note_on,0,0,0,,11,,,70,127
107901,note_on,0,0,0,,11,,,82,127
107917,note_off,16,0,0,,8,,,80,127
107952,note_on,35,0,0,,8,,,80,127
107968,note_off,16,0,0,,11,,,82,127
108003,note_on,35,0,0,,11,,,82,127
108019,note_off,16,0,0,,8,,,80,127
108054,note_on,35,0,0,,8,,,80,127
108070,note_off,16,0,0,,11,,,82,127
108104,note_off,34,0,0,,11,,,70,127
108104,note_off,0,0,0,,2,,,62,127
108105,note_on,1,0,0,,11,,,70,127
108105,note_on,0,0,0,,3,,,63,127
108105,note_on,0,0,0,,7,,,79,127
108121,note_off,16,0,0,,8,,,80,127
108310,note_off,189,0,0,,7,,,79,127
108310,note_off,0,0,0,,3,,,63,127
108310,note_off,0,0,0,,11,,,70,127
108311,note_on,1,0,0,,4,,,64,127
108311,note_on,0,0,0,,0,,,72,127
108311,note_on,0,0,0,,0,,,84,127
108362,note_on,51,0,0,,11,,,82,127
108378,note_off,16,0,0,,0,,,84,127
108413,note_on,35,0,0,,0,,,84,127
108429,note_off,16,0,0,,11,,,82,127
108464,note_on,35,0,0,,11,,,82,127
108480,note_off,16,0,0,,0,,,84,127
108514,note_off,34,0,0,,0,,,72,127
108514,note_off,0,0,0,,4,,,64,127
108515,note_on,1,0,0,,4,,,64,127
108515,note_on,0,0,0,,0,,,72,127
108515,note_on,0,0,0,,0,,,84,127
108531,note_off,16,0,0,,11,,,82,127
108566,note_on,35,0,0,,11,,,82,127
108582,note_off,16,0,0,,0,,,84,127
108617,note_on,35,0,0,,0,,,84,127
108633,note_off,16,0,0,,11,,,82,127
108668,note_on,35,0,0,,11,,,82,127
108684,note_off,16,0,0,,0,,,84,127
108718,note_off,34,0,0,,0,,,72,127
108718,note_off,0,0,0,,4,,,64,127
108719,note_on,1,0,0,,5,,,65,127
108719,note_on,0,0,0,,0,,,72,127
108719,note_on,0,0,0,,10,,,81,127
108735,note_off,16,0,0,,11,,,82,127
108924,note_off,189,0,0,,10,,,81,127
108924,note_off,0,0,0,,0,,,72,127
108924,note_off,0,0,0,,5,,,65,127
108925,note_on,1,0,0,,0,,,72,127
108925,note_on,0,0,0,,4,,,64,127
108925,note_on,0,0,0,,0,,,84,127
108976,note_on,51,0,0,,11,,,82,127
108992,note_off,16,0,0,,0,,,84,127
109027,note_on,35,0,0,,0,,,84,127
109043,note_off,16,0,0,,11,,,82,127
109078,note_on,35,0,0,,11,,,82,127
109094,note_off,16,0,0,,0,,,84,127
109128,note_off,34,0,0,,4,,,64,127
109128,note_off,0,0,0,,0,,,72,127
109129,note_on,1,0,0,,4,,,64,127
109129,note_on,0,0,0,,0,,,72,127
109129,note_on,0,0,0,,0,,,84,127
109145,note_off,16,0,0,,11,,,82,127
109180,note_on,35,0,0,,11,,,82,127
109196,note_off,16,0,0,,0,,,84,127
109231,note_on,35,0,0,,0,,,84,127
109247,note_off,16,0,0,,11,,,82,127
109282,note_on,35,0,0,,11,,,82,127
109298,note_off,16,0,0,,0,,,84,127
109332,note_off,34,0,0,,0,,,72,127
109332,note_off,0,0,0,,4,,,64,127
109333,note_on,1,0,0,,5,,,65,127
109333,note_on,0,0,0,,0,,,72,127
109333,note_on,0,0,0,,10,,,81,127
109349,note_off,16,0,0,,11,,,82,127
109538,note_off,189,0,0,,10,,,81,127
109538,note_off,0,0,0,,0,,,72,127
109538,note_off,0,0,0,,5,,,65,127
109539,note_on,1,0,0,,2,,,74,127
109539,note_on,0,0,0,,6,,,66,127
109539,note_on,0,0,0,,2,,,86,127
109590,note_on,51,0,0,,0,,,84,127
109606,note_off,16,0,0,,2,,,86,127
109641,note_on,35,0,0,,2,,,86,127
109657,note_off,16,0,0,,0,,,84,127
109692,note_on,35,0,0,,0,,,84,127
109708,note_off,16,0,0,,2,,,86,127
109742,note_off,34,0,0,,6,,,66,127
109742,note_off,0,0,0,,2,,,74,127
109743,note_on,1,0,0,,6,,,66,127
109743,note_on,0,0,0,,2,,,74,127
109743,note_on,0,0,0,,2,,,86,127
109759,note_off,16,0,0,,0,,,84,127
109794,note_on,35,0,0,,0,,,84,127
109810,note_off,16,0,0,,2,,,86,127
109845,note_on,35,0,0,,2,,,86,127
109861,note_off,16,0,0,,0,,,84,127
109896,note_on,35,0,0,,0,,,84,127
109912,note_off,16,0,0,,2,,,86,127
109946,note_off,34,0,0,,2,,,74,127
109946,note_off,0,0,0,,6,,,66,127
109947,note_on,1,0,0,,2,,,74,127
109947,note_on,0,0,0,,7,,,67,127
109947,note_on,0,0,0,,12,,,83,127
109963,note_off,16,0,0,,0,,,84,127
110152,note_off,189,0,0,,12,,,83,127
110152,note_off,0,0,0,,7,,,67,127
110152,note_off,0,0,0,,2,,,74,127
110153,note_on,1,0,0,,6,,,66,127
110153,note_on,0,0,0,,2,,,74,127
110153,note_on,0,0,0,,2,,,86,127
110204,note_on,51,0,0,,0,,,84,127
110220,note_off,16,0,0,,2,,,86,127
110255,note_on,35,0,0,,2,,,86,127
110271,note_off,16,0,0,,0,,,84,127
110306,note_on,35,0,0,,0,,,84,127
110322,note_off,16,0,0,,2,,,86,127
110356,note_off,34,0,0,,2,,,74,127
110356,note_off,0,0,0,,6,,,66,127
110357,note_on,1,0,0,,2,,,74,127
110357,note_on,0,0,0,,6,,,66,127
110357,note_on,0,0,0,,2,,,86,127
110373,note_off,16,0,0,,0,,,84,127
110408,note_on,35,0,0,,0,,,84,127
110424,note_off,16,0,0,,2,,,86,127
110459,note_on,35,0,0,,2,,,86,127
110475,note_off,16,0,0,,0,,,84,127
110510,note_on,35,0,0,,0,,,84,127
110526,note_off,16,0,0,,2,,,86,127
110560,note_off,34,0,0,,6,,,66,127
110560,note_off,0,0,0,,2,,,74,127
110561,note_on,1,0,0,,7,,,67,127
110561,note_on,0,0,0,,2,,,74,127
110561,note_on,0,0,0,,12,,,83,127
110577,note_off,16,0,0,,0,,,84,127
110766,note_off,189,0,0,,12,,,83,127
110766,note_off,0,0,0,,2,,,74,127
110766,note_off,0,0,0,,7,,,67,127
110767,note_on,1,0,0,,2,,,74,127
110767,note_on,0,0,0,,12,,,71,127
110767,note_on,0,0,0,,7,,,67,127
110767,note_on,0,0,0,,2,,,86,127
110869,note_off,102,0,0,,2,,,86,127
110870,note_on,1,0,0,,0,,,84,127
110972,note_off,102,0,0,,0,,,84,127
110972,note_off,0,0,0,,7,,,67,127
110972,note_off,0,0,0,,12,,,71,127
110972,note_off,0,0,0,,2,,,74,127
110973,note_on,1,0,0,,12,,,71,127
110973,note_on,0,0,0,,7,,,67,127
110973,note_on,0,0,0,,2,,,74,127
110973,note_on,0,0,0,,12,,,83,127
111075,note_off,102,0,0,,12,,,83,127
111076,note_on,1,0,0,,8,,,80,127
111178,note_off,102,0,0,,8,,,80,127
111178,note_off,0,0,0,,2,,,74,127
111178,note_off,0,0,0,,7,,,67,127
111178,note_off,0,0,0,,12,,,71,127
111179,note_on,1,0,0,,7,,,67,127
111179,note_on,0,0,0,,2,,,74,127
111179,note_on,0,0,0,,12,,,71,127
111179,note_on,0,0,0,,7,,,79,127
111281,note_off,102,0,0,,7,,,79,127
111282,note_on,1,0,0,,5,,,77,127
111384,note_off,102,0,0,,5,,,77,127
111384,note_off,0,0,0,,12,,,71,127
111384,note_off,0,0,0,,2,,,74,127
111384,note_off,0,0,0,,7,,,67,127
111385,note_on,1,0,0,,7,,,67,127
111385,note_on,0,0,0,,0,,,60,127
111385,note_on,0,0,0,,3,,,75,127
111487,note_off,102,0,0,,3,,,75,127
111488,note_on,1,0,0,,2,,,74,127
111590,note_off,102,0,0,,2,,,74,127
111590,note_off,0,0,0,,0,,,60,127
111590,note_off,0,0,0,,7,,,67,127
111591,note_on,1,0,0,,0,,,60,127
111591,note_on,0,0,0,,7,,,67,127
111591,note_on,0,0,0,,0,,,72,127
111693,note_off,102,0,0,,0,,,72,127
111694,note_on,1,0,0,,11,,,70,127
111796,note_off,102,0,0,,11,,,70,127
111796,note_off,0,0,0,,7,,,67,127
111796,note_off,0,0,0,,0,,,60,127
111797,note_on,1,0,0,,0,,,60,127
111797,note_on,0,0,0,,8,,,68,127
111899,note_off,102,0,0,,8,,,68,127
111900,note_on,1,0,0,,7,,,67,127
112002,note_off,102,0,0,,7,,,67,127
112002,note_off,0,0,0,,0,,,60,127
112003,note_on,1,0,0,,0,,,60,127
112003,note_on,0,0,0,,5,,,53,127
112003,note_on,0,0,0,,8,,,68,127
112105,note_off,102,0,0,,8,,,68,127
112106,note_on,1,0,0,,7,,,67,127
112208,note_off,102,0,0,,7,,,67,127
112208,note_off,0,0,0,,5,,,53,127
112208,note_off,0,0,0,,0,,,60,127
112209,note_on,1,0,0,,0,,,60,127
112209,note_on,0,0,0,,5,,,53,127
112209,note_on,0,0,0,,5,,,65,127
112311,note_off,102,0,0,,5,,,65,127
112312,note_on,1,0,0,,3,,,63,127
112414,note_off,102,0,0,,3,,,63,127
112414,note_off,0,0,0,,5,,,53,127
112414,note_off,0,0,0,,0,,,60,127
112415,note_on,1,0,0,,5,,,53,127
112415,note_on,0,0,0,,0,,,60,127
112415,note_on,0,0,0,,2,,,62,127
112516,note_off,101,0,0,,0,,,60,127
112517,note_off,1,0,0,,2,,,62,127
112518,note_on,1,0,0,,0,,,60,127
112620,note_off,102,0,0,,0,,,60,127
112620,note_off,0,0,0,,5,,,53,127
112621,note_on,1,0,0,,7,,,43,127
112621,note_on,0,0,0,,7,,,55,127
112621,note_on,0,0,0,,12,,,59,127
112826,note_off,205,0,0,,7,,,55,127
112826,note_off,0,0,0,,7,,,43,127
112827,note_on,1,0,0,,7,,,55,127
112827,note_on,0,0,0,,7,,,43,127
112827,note_on,0,0,0,,7,,,67,127
113032,note_off,205,0,0,,7,,,67,127
113032,note_off,0,0,0,,7,,,43,127
113032,note_off,0,0,0,,7,,,55,127
113033,note_on,1,0,0,,7,,,55,127
113033,note_on,0,0,0,,7,,,43,127
113033,note_on,0,0,0,,3,,,63,127
113238,note_off,205,0,0,,3,,,63,127
113238,note_off,0,0,0,,7,,,43,127
113238,note_off,0,0,0,,7,,,55,127
113239,note_off,1,0,0,,12,,,59,127
113239,note_on,0,0,0,,8,,,56,127
113239,note_on,0,0,0,,7,,,43,127
113239,note_on,0,0,0,,0,,,60,127
113239,note_on,0,0,0,,2,,,62,127
113444,note_off,205,0,0,,2,,,62,127
113444,note_off,0,0,0,,0,,,60,127
113444,note_off,0,0,0,,7,,,43,127
113444,note_off,0,0,0,,8,,,56,127
113445,note_on,1,0,0,,7,,,43,127
113445,note_on,0,0,0,,7,,,55,127
113445,note_on,0,0,0,,12,,,59,127
113650,note_off,205,0,0,,12,,,59,127
113650,note_off,0,0,0,,7,,,55,127
113650,note_off,0,0,0,,7,,,43,127
113651,note_on,1,0,0,,8,,,56,127
113651,note_on,0,0,0,,7,,,43,127
113651,note_on,0,0,0,,0,,,60,127
113856,note_off,205,0,0,,0,,,60,127
113856,note_off,0,0,0,,7,,,43,127
113856,note_off,0,0,0,,8,,,56,127
113857,note_on,1,0,0,,7,,,43,127
113857,note_on,0,0,0,,7,,,55,127
113857,note_on,0,0,0,,2,,,62,127
113857,note_on,0,0,0,,12,,,59,127
114062,note_off,205,0,0,,12,,,59,127
114062,note_off,0,0,0,,2,,,62,127
114062,note_off,0,0,0,,7,,,55,127
114062,note_off,0,0,0,,7,,,43,127
114063,note_on,1,0,0,,7,,,55,127
114063,note_on,0,0,0,,7,,,43,127
114063,note_on,0,0,0,,3,,,63,127
114063,note_on,0,0,0,,0,,,60,127
114268,note_off,205,0,0,,0,,,60,127
114268,note_off,0,0,0,,3,,,63,127
114268,note_off,0,0,0,,7,,,43,127
114268,note_off,0,0,0,,7,,,55,127
114269,note_on,1,0,0,,7,,,55,127
114269,note_on,0,0,0,,7,,,43,127
114269,note_on,0,0,0,,5,,,65,127
114269,note_on,0,0,0,,2,,,62,127
114474,note_off,205,0,0,,2,,,62,127
114474,note_off,0,0,0,,5,,,65,127
114474,note_off,0,0,0,,7,,,43,127
114474,note_off,0,0,0,,7,,,55,127
114475,note_on,1,0,0,,7,,,43,127
114475,note_on,0,0,0,,6,,,54,127
114475,note_on,0,0,0,,0,,,60,127
114475,note_on,0,0,0,,3,,,63,127
114475,note_on,0,0,0,,5,,,65,127
114578,note_off,103,0,0,,5,,,65,127
114680,note_off,102,0,0,,3,,,63,127
114680,note_off,0,0,0,,0,,,60,127
114680,note_off,0,0,0,,6,,,54,127
114680,note_off,0,0,0,,7,,,43,127
114681,note_on,1,0,0,,7,,,55,127
114681,note_on,0,0,0,,7,,,43,127
114681,note_on,0,0,0,,2,,,62,127
114681,note_on,0,0,0,,12,,,59,127
114886,note_off,205,0,0,,12,,,59,127
114886,note_off,0,0,0,,2,,,62,127
114886,note_off,0,0,0,,7,,,43,127
114886,note_off,0,0,0,,7,,,55,127
114887,note_on,1,0,0,,6,,,54,127
114887,note_on,0,0,0,,7,,,43,127
114887,note_on,0,0,0,,0,,,60,127
114887,note_on,0,0,0,,3,,,63,127
115092,note_off,205,0,0,,3,,,63,127
115092,note_off,0,0,0,,0,,,60,127
115092,note_off,0,0,0,,7,,,43,127
115092,note_off,0,0,0,,6,,,54,127
115093,note_on,1,0,0,,7,,,43,127
115093,note_on,0,0,0,,7,,,55,127
115093,note_on,0,0,0,,2,,,62,127
115093,note_on,0,0,0,,12,,,59,127
115298,note_off,205,0,0,,12,,,59,127
115298,note_off,0,0,0,,7,,,55,127
115298,note_off,0,0,0,,7,,,43,127
115299,note_on,1,0,0,,7,,,55,127
115299,note_on,0,0,0,,7,,,43,127
115299,note_on,0,0,0,,7,,,67,127
115500,note_off,201,0,0,,2,,,62,127
115503,note_off,3,0,0,,7,,,67,127
115503,note_off,0,0,0,,7,,,43,127
115503,note_off,0,0,0,,7,,,55,127
115504,note_on,1,0,0,,7,,,43,127
115504,note_on,0,0,0,,7,,,55,127
115504,note_on,0,0,0,,3,,,63,127
115709,note_off,205,0,0,,3,,,63,127
115709,note_off,0,0,0,,7,,,55,127
115709,note_off,0,0,0,,7,,,43,127
115712,note_on,3,0,0,,2,,,62,127
115712,note_on,0,0,0,,0,,,60,127
115712,note_on,0,0,0,,8,,,56,127
115712,note_on,0,0,0,,7,,,43,127
115917,note_off,205,0,0,,7,,,43,127
115917,note_off,0,0,0,,8,,,56,127
115917,note_off,0,0,0,,0,,,60,127
115917,note_off,0,0,0,,2,,,62,127
115922,note_on,5,0,0,,12,,,59,127
115922,note_on,0,0,0,,7,,,55,127
115922,note_on,0,0,0,,7,,,43,127
116127,note_off,205,0,0,,7,,,43,127
116127,note_off,0,0,0,,7,,,55,127
116127,note_off,0,0,0,,12,,,59,127
116132,note_on,5,0,0,,0,,,60,127
116132,note_on,0,0,0,,7,,,43,127
116132,note_on,0,0,0,,8,,,56,127
116337,note_off,205,0,0,,8,,,56,127
116337,note_off,0,0,0,,7,,,43,127
116337,note_off,0,0,0,,0,,,60,127
116341,note_on,4,0,0,,2,,,62,127
116341,note_on,0,0,0,,12,,,59,127
116341,note_on,0,0,0,,7,,,43,127
116341,note_on,0,0,0,,7,,,55,127
116546,note_off,205,0,0,,7,,,55,127
116546,note_off,0,0,0,,7,,,43,127
116546,note_off,0,0,0,,12,,,59,127
116546,note_off,0,0,0,,2,,,62,127
116551,note_on,5,0,0,,0,,,60,127
116551,note_on,0,0,0,,3,,,63,127
116551,note_on,0,0,0,,7,,,55,127
116551,note_on,0,0,0,,7,,,43,127
116756,note_off,205,0,0,,7,,,43,127
116756,note_off,0,0,0,,7,,,55,127
116756,note_off,0,0,0,,3,,,63,127
116756,note_off,0,0,0,,0,,,60,127
116761,note_on,5,0,0,,5,,,65,127
116761,note_on,0,0,0,,2,,,62,127
116761,note_on,0,0,0,,7,,,43,127
116761,note_on,0,0,0,,7,,,55,127
116966,note_off,205,0,0,,7,,,55,127
116966,note_off,0,0,0,,7,,,43,127
116966,note_off,0,0,0,,2,,,62,127
116966,note_off,0,0,0,,5,,,65,127
116977,note_on,11,0,0,,6,,,54,127
116977,note_on,0,0,0,,7,,,43,127
116977,note_on,0,0,0,,3,,,63,127
116977,note_on,0,0,0,,0,,,60,127
116977,note_on,0,0,0,,5,,,65,127
117083,note_off,106,0,0,,5,,,65,127
117189,note_off,106,0,0,,0,,,60,127
117189,note_off,0,0,0,,3,,,63,127
117189,note_off,0,0,0,,7,,,43,127
117189,note_off,0,0,0,,6,,,54,127
117196,note_on,7,0,0,,7,,,55,127
117196,note_on,0,0,0,,7,,,43,127
117196,note_on,0,0,0,,2,,,62,127
117196,note_on,0,0,0,,12,,,59,127
117408,note_off,212,0,0,,12,,,59,127
117408,note_off,0,0,0,,2,,,62,127
117408,note_off,0,0,0,,7,,,43,127
117408,note_off,0,0,0,,7,,,55,127
117417,note_on,9,0,0,,7,,,43,127
117417,note_on,0,0,0,,6,,,54,127
117417,note_on,0,0,0,,0,,,60,127
117417,note_on,0,0,0,,3,,,63,127
117629,note_off,212,0,0,,0,,,60,127
117629,note_off,0,0,0,,6,,,54,127
117629,note_off,0,0,0,,7,,,43,127
117645,note_off,16,0,0,,3,,,63,127
117647,note_on,2,0,0,,12,,,59,127
117647,note_on,0,0,0,,7,,,55,127
117647,note_on,0,0,0,,2,,,62,127
117941,note_on,294,0,0,,7,,,43,127
118569,note_off,628,0,0,,2,,,62,127
118569,note_off,0,0,0,,12,,,59,127
118590,note_off,21,0,0,,7,,,55,127
118612,note_off,22,0,0,,7,,,43,127
118898,note_on,286,0,0,,2,,,62,127
119103,note_off,205,0,0,,2,,,62,127
119104,note_on,1,0,0,,2,,,62,127
119309,note_off,205,0,0,,2,,,62,127
119310,note_on,1,0,0,,2,,,62,127
119515,note_off,205,0,0,,2,,,62,127
119516,note_on,1,0,0,,3,,,63,127
119516,note_on,0,0,0,,0,,,60,127
119516,note_on,0,0,0,,7,,,55,127
119721,note_off,205,0,0,,7,,,55,127
119721,note_off,0,0,0,,0,,,60,127
119721,note_off,0,0,0,,3,,,63,127
119722,note_on,1,0,0,,3,,,63,127
119722,note_on,0,0,0,,7,,,55,127
119722,note_on,0,0,0,,0,,,60,127
119927,note_off,205,0,0,,0,,,60,127
119927,note_off,0,0,0,,7,,,55,127
119927,note_off,0,0,0,,3,,,63,127
119928,note_on,1,0,0,,3,,,63,127
119928,note_on,0,0,0,,0,,,60,127
119928,note_on,0,0,0,,7,,,55,127
120133,note_off,205,0,0,,7,,,55,127
120133,note_off,0,0,0,,0,,,60,127
120133,note_off,0,0,0,,3,,,63,127
120134,note_on,1,0,0,,6,,,66,127
120134,note_on,0,0,0,,3,,,63,127
120134,note_on,0,0,0,,7,,,55,127
120134,note_on,0,0,0,,0,,,60,127
120339,note_off,205,0,0,,0,,,60,127
120339,note_off,0,0,0,,7,,,55,127
120339,note_off,0,0,0,,3,,,63,127
120339,note_off,0,0,0,,6,,,66,127
120340,note_on,1,0,0,,3,,,63,127
120340,note_on,0,0,0,,6,,,66,127
120340,note_on,0,0,0,,0,,,60,127
120340,note_on,0,0,0,,7,,,55,127
120545,note_off,205,0,0,,7,,,55,127
120545,note_off,0,0,0,,0,,,60,127
120545,note_off,0,0,0,,6,,,66,127
120545,note_off,0,0,0,,3,,,63,127
120546,note_on,1,0,0,,3,,,63,127
120546,note_on,0,0,0,,6,,,66,127
120546,note_on,0,0,0,,0,,,60,127
120546,note_on,0,0,0,,7,,,55,127
120751,note_off,205,0,0,,6,,,66,127
120765,note_on,14,0,0,,7,,,67,127
120957,note_off,192,0,0,,0,,,60,127
120958,note_off,1,0,0,,3,,,63,127
121005,note_on,47,0,0,,12,,,59,127
121005,note_on,0,0,0,,2,,,62,127
121020,note_off,15,0,0,,7,,,67,127
121391,note_off,371,0,0,,7,,,55,127
121432,note_off,41,0,0,,2,,,62,127
121449,note_off,17,0,0,,12,,,59,127
121541,note_on,92,0,0,,2,,,62,127
121746,note_off,205,0,0,,2,,,62,127
121747,note_on,1,0,0,,2,,,62,127
121952,note_off,205,0,0,,2,,,62,127
121953,note_on,1,0,0,,2,,,62,127
122158,note_off,205,0,0,,2,,,62,127
122159,note_on,1,0,0,,3,,,63,127
122159,note_on,0,0,0,,0,,,60,127
122159,note_on,0,0,0,,7,,,55,127
122364,note_off,205,0,0,,7,,,55,127
122364,note_off,0,0,0,,0,,,60,127
122364,note_off,0,0,0,,3,,,63,127
122365,note_on,1,0,0,,3,,,63,127
122365,note_on,0,0,0,,7,,,55,127
122365,note_on,0,0,0,,0,,,60,127
122570,note_off,205,0,0,,0,,,60,127
122570,note_off,0,0,0,,7,,,55,127
122570,note_off,0,0,0,,3,,,63,127
122571,note_on,1,0,0,,3,,,63,127
122571,note_on,0,0,0,,0,,,60,127
122571,note_on,0,0,0,,7,,,55,127
122776,note_off,205,0,0,,7,,,55,127
122776,note_off,0,0,0,,0,,,60,127
122776,note_off,0,0,0,,3,,,63,127
122777,note_on,1,0,0,,3,,,63,127
122777,note_on,0,0,0,,6,,,66,127
122777,note_on,0,0,0,,10,,,57,127
122777,note_on,0,0,0,,0,,,60,127
122982,note_off,205,0,0,,0,,,60,127
122982,note_off,0,0,0,,10,,,57,127
122982,note_off,0,0,0,,6,,,66,127
122982,note_off,0,0,0,,3,,,63,127
122983,note_on,1,0,0,,3,,,63,127
122983,note_on,0,0,0,,6,,,66,127
122983,note_on,0,0,0,,10,,,57,127
122983,note_on,0,0,0,,0,,,60,127
123188,note_off,205,0,0,,0,,,60,127
123188,note_off,0,0,0,,10,,,57,127
123188,note_off,0,0,0,,6,,,66,127
123188,note_off,0,0,0,,3,,,63,127
123189,note_on,1,0,0,,6,,,66,127
123189,note_on,0,0,0,,3,,,63,127
123189,note_on,0,0,0,,10,,,57,127
123189,note_on,0,0,0,,0,,,60,127
123394,note_off,205,0,0,,0,,,60,127
123394,note_off,0,0,0,,10,,,57,127
123394,note_off,0,0,0,,3,,,63,127
123394,note_off,0,0,0,,6,,,66,127
123395,note_on,1,0,0,,10,,,69,127
123395,note_on,0,0,0,,6,,,66,127
123395,note_on,0,0,0,,10,,,57,127
123395,note_on,0,0,0,,0,,,60,127
123395,note_on,0,0,0,,6,,,54,127
123600,note_off,205,0,0,,6,,,54,127
123600,note_off,0,0,0,,0,,,60,127
123600,note_off,0,0,0,,10,,,57,127
123600,note_off,0,0,0,,6,,,66,127
123600,note_off,0,0,0,,10,,,69,127
123601,note_on,1,0,0,,10,,,69,127
123601,note_on,0,0,0,,6,,,66,127
123601,note_on,0,0,0,,10,,,57,127
123601,note_on,0,0,0,,0,,,60,127
123601,note_on,0,0,0,,6,,,54,127
123806,note_off,205,0,0,,6,,,54,127
123806,note_off,0,0,0,,0,,,60,127
123806,note_off,0,0,0,,10,,,57,127
123806,note_off,0,0,0,,6,,,66,127
123806,note_off,0,0,0,,10,,,69,127
123807,note_on,1,0,0,,10,,,69,127
123807,note_on,0,0,0,,6,,,66,127
123807,note_on,0,0,0,,0,,,60,127
123807,note_on,0,0,0,,6,,,54,127
123807,note_on,0,0,0,,10,,,57,127
124012,note_off,205,0,0,,10,,,57,127
124012,note_off,0,0,0,,6,,,54,127
124012,note_off,0,0,0,,0,,,60,127
124012,note_off,0,0,0,,6,,,66,127
124012,note_off,0,0,0,,10,,,69,127
124013,note_on,1,0,0,,0,,,72,127
124013,note_on,0,0,0,,10,,,69,127
124013,note_on,0,0,0,,0,,,60,127
124013,note_on,0,0,0,,3,,,51,127
124013,note_on,0,0,0,,10,,,57,127
124218,note_off,205,0,0,,10,,,57,127
124218,note_off,0,0,0,,3,,,51,127
124218,note_off,0,0,0,,0,,,60,127
124218,note_off,0,0,0,,10,,,69,127
124218,note_off,0,0,0,,0,,,72,127
124219,note_on,1,0,0,,10,,,69,127
124219,note_on,0,0,0,,0,,,72,127
124219,note_on,0,0,0,,3,,,51,127
124219,note_on,0,0,0,,10,,,57,127
124219,note_on,0,0,0,,0,,,60,127
124424,note_off,205,0,0,,0,,,60,127
124424,note_off,0,0,0,,10,,,57,127
124424,note_off,0,0,0,,3,,,51,127
124424,note_off,0,0,0,,0,,,72,127
124424,note_off,0,0,0,,10,,,69,127
124425,note_on,1,0,0,,10,,,69,127
124425,note_on,0,0,0,,0,,,72,127
124425,note_on,0,0,0,,10,,,57,127
124425,note_on,0,0,0,,0,,,60,127
124425,note_on,0,0,0,,3,,,51,127
124630,note_off,205,0,0,,3,,,51,127
124630,note_off,0,0,0,,0,,,60,127
124630,note_off,0,0,0,,10,,,57,127
124630,note_off,0,0,0,,0,,,72,127
124630,note_off,0,0,0,,10,,,69,127
124631,note_on,1,0,0,,2,,,74,127
124631,note_on,0,0,0,,12,,,71,127
124631,note_on,0,0,0,,12,,,59,127
124631,note_on,0,0,0,,2,,,50,127
124631,note_on,0,0,0,,8,,,56,127
124836,note_off,205,0,0,,8,,,56,127
124836,note_off,0,0,0,,2,,,50,127
124836,note_off,0,0,0,,12,,,59,127
124836,note_off,0,0,0,,12,,,71,127
124836,note_off,0,0,0,,2,,,74,127
124837,note_on,1,0,0,,12,,,71,127
124837,note_on,0,0,0,,2,,,74,127
124837,note_on,0,0,0,,8,,,56,127
124837,note_on,0,0,0,,12,,,59,127
124837,note_on,0,0,0,,2,,,50,127
125042,note_off,205,0,0,,2,,,50,127
125042,note_off,0,0,0,,12,,,59,127
125042,note_off,0,0,0,,8,,,56,127
125042,note_off,0,0,0,,2,,,74,127
125042,note_off,0,0,0,,12,,,71,127
125043,note_on,1,0,0,,12,,,71,127
125043,note_on,0,0,0,,2,,,74,127
125043,note_on,0,0,0,,12,,,59,127
125043,note_on,0,0,0,,8,,,56,127
125043,note_on,0,0,0,,2,,,50,127
125248,note_off,205,0,0,,2,,,50,127
125248,note_off,0,0,0,,8,,,56,127
125248,note_off,0,0,0,,12,,,59,127
125248,note_off,0,0,0,,2,,,74,127
125248,note_off,0,0,0,,12,,,71,127
125249,note_on,1,0,0,,0,,,72,127
125249,note_on,0,0,0,,4,,,76,127
125249,note_on,0,0,0,,10,,,57,127
125249,note_on,0,0,0,,4,,,52,127
125249,note_on,0,0,0,,0,,,48,127
125454,note_off,205,0,0,,0,,,48,127
125454,note_off,0,0,0,,4,,,52,127
125454,note_off,0,0,0,,10,,,57,127
125454,note_off,0,0,0,,4,,,76,127
125454,note_off,0,0,0,,0,,,72,127
125455,note_on,1,0,0,,4,,,76,127
125455,note_on,0,0,0,,0,,,72,127
125455,note_on,0,0,0,,10,,,57,127
125455,note_on,0,0,0,,4,,,52,127
125455,note_on,0,0,0,,0,,,48,127
125660,note_off,205,0,0,,0,,,48,127
125660,note_off,0,0,0,,4,,,52,127
125660,note_off,0,0,0,,10,,,57,127
125660,note_off,0,0,0,,0,,,72,127
125660,note_off,0,0,0,,4,,,76,127
125661,note_on,1,0,0,,0,,,72,127
125661,note_on,0,0,0,,4,,,76,127
125661,note_on,0,0,0,,4,,,52,127
125661,note_on,0,0,0,,10,,,57,127
125661,note_on,0,0,0,,0,,,48,127
125866,note_off,205,0,0,,0,,,48,127
125866,note_off,0,0,0,,10,,,57,127
125866,note_off,0,0,0,,4,,,52,127
125866,note_off,0,0,0,,4,,,76,127
125866,note_off,0,0,0,,0,,,72,127
125867,note_on,1,0,0,,10,,,69,127
125867,note_on,0,0,0,,3,,,75,127
125867,note_on,0,0,0,,6,,,78,127
125867,note_on,0,0,0,,6,,,54,127
125867,note_on,0,0,0,,10,,,57,127
125867,note_on,0,0,0,,4,,,52,127
125867,note_on,0,0,0,,10,,,45,127
126072,note_off,205,0,0,,10,,,45,127
126072,note_off,0,0,0,,4,,,52,127
126072,note_off,0,0,0,,10,,,57,127
126072,note_off,0,0,0,,6,,,54,127
126072,note_off,0,0,0,,6,,,78,127
126072,note_off,0,0,0,,3,,,75,127
126072,note_off,0,0,0,,10,,,69,127
126073,note_on,1,0,0,,10,,,69,127
126073,note_on,0,0,0,,6,,,78,127
126073,note_on,0,0,0,,3,,,75,127
126073,note_on,0,0,0,,10,,,57,127
126073,note_on,0,0,0,,4,,,52,127
126073,note_on,0,0,0,,6,,,54,127
126073,note_on,0,0,0,,10,,,45,127
126278,note_off,205,0,0,,10,,,45,127
126278,note_off,0,0,0,,6,,,54,127
126278,note_off,0,0,0,,4,,,52,127
126278,note_off,0,0,0,,10,,,57,127
126278,note_off,0,0,0,,3,,,75,127
126278,note_off,0,0,0,,6,,,78,127
126278,note_off,0,0,0,,10,,,69,127
126279,note_on,1,0,0,,3,,,75,127
126279,note_on,0,0,0,,6,,,78,127
126279,note_on,0,0,0,,10,,,69,127
126279,note_on,0,0,0,,6,,,54,127
126279,note_on,0,0,0,,10,,,57,127
126279,note_on,0,0,0,,10,,,45,127
126279,note_on,0,0,0,,4,,,52,127
126484,note_off,205,0,0,,4,,,52,127
126484,note_off,0,0,0,,10,,,45,127
126484,note_off,0,0,0,,10,,,57,127
126484,note_off,0,0,0,,6,,,54,127
126484,note_off,0,0,0,,10,,,69,127
126484,note_off,0,0,0,,6,,,78,127
126484,note_off,0,0,0,,3,,,75,127
126485,note_on,1,0,0,,7,,,79,127
126485,note_on,0,0,0,,12,,,71,127
126485,note_on,0,0,0,,4,,,76,127
126485,note_on,0,0,0,,7,,,55,127
126485,note_on,0,0,0,,4,,,52,127
126485,note_on,0,0,0,,7,,,43,127
126690,note_off,205,0,0,,7,,,43,127
126690,note_off,0,0,0,,4,,,52,127
126690,note_off,0,0,0,,7,,,55,127
126690,note_off,0,0,0,,4,,,76,127
126690,note_off,0,0,0,,12,,,71,127
126690,note_off,0,0,0,,7,,,79,127
126691,note_on,1,0,0,,12,,,71,127
126691,note_on,0,0,0,,7,,,79,127
126691,note_on,0,0,0,,4,,,76,127
126691,note_on,0,0,0,,4,,,52,127
126691,note_on,0,0,0,,7,,,55,127
126691,note_on,0,0,0,,7,,,43,127
126896,note_off,205,0,0,,7,,,43,127
126896,note_off,0,0,0,,7,,,55,127
126896,note_off,0,0,0,,4,,,52,127
126896,note_off,0,0,0,,4,,,76,127
126896,note_off,0,0,0,,7,,,79,127
126896,note_off,0,0,0,,12,,,71,127
126897,note_on,1,0,0,,12,,,71,127
126897,note_on,0,0,0,,4,,,76,127
126897,note_on,0,0,0,,7,,,79,127
126897,note_on,0,0,0,,7,,,55,127
126897,note_on,0,0,0,,7,,,43,127
126897,note_on,0,0,0,,4,,,52,127
127102,note_off,205,0,0,,4,,,52,127
127102,note_off,0,0,0,,7,,,43,127
127102,note_off,0,0,0,,7,,,55,127
127102,note_off,0,0,0,,7,,,79,127
127102,note_off,0,0,0,,12,,,71,127
127103,note_on,1,0,0,,10,,,81,127
127103,note_on,0,0,0,,7,,,55,127
127103,note_on,0,0,0,,4,,,52,127
127103,note_on,0,0,0,,7,,,43,127
127308,note_off,205,0,0,,7,,,43,127
127308,note_off,0,0,0,,4,,,52,127
127308,note_off,0,0,0,,7,,,55,127
127308,note_off,0,0,0,,10,,,81,127
127309,note_on,1,0,0,,12,,,83,127
127309,note_on,0,0,0,,4,,,52,127
127309,note_on,0,0,0,,7,,,55,127
127309,note_on,0,0,0,,7,,,43,127
127514,note_off,205,0,0,,7,,,43,127
127514,note_off,0,0,0,,7,,,55,127
127514,note_off,0,0,0,,4,,,52,127
127514,note_off,0,0,0,,12,,,83,127
127514,note_off,0,0,0,,4,,,76,127
127515,note_on,1,0,0,,10,,,81,127
127515,note_on,0,0,0,,10,,,57,127
127515,note_on,0,0,0,,4,,,52,127
127515,note_on,0,0,0,,10,,,45,127
127617,note_off,102,0,0,,10,,,81,127
127618,note_on,1,0,0,,7,,,79,127
127720,note_off,102,0,0,,7,,,79,127
127720,note_off,0,0,0,,10,,,45,127
127720,note_off,0,0,0,,4,,,52,127
127720,note_off,0,0,0,,10,,,57,127
127721,note_on,1,0,0,,6,,,78,127
127721,note_on,0,0,0,,4,,,52,127
127721,note_on,0,0,0,,10,,,57,127
127721,note_on,0,0,0,,10,,,45,127
127823,note_off,102,0,0,,6,,,78,127
127824,note_on,1,0,0,,4,,,76,127
127926,note_off,102,0,0,,4,,,76,127
127926,note_off,0,0,0,,10,,,45,127
127926,note_off,0,0,0,,10,,,57,127
127926,note_off,0,0,0,,4,,,52,127
127927,note_on,1,0,0,,3,,,75,127
127927,note_on,0,0,0,,4,,,52,127
127927,note_on,0,0,0,,10,,,57,127
127927,note_on,0,0,0,,10,,,45,127
128029,note_off,102,0,0,,3,,,75,127
128030,note_on,1,0,0,,4,,,76,127
128132,note_off,102,0,0,,4,,,76,127
128132,note_off,0,0,0,,10,,,45,127
128132,note_off,0,0,0,,10,,,57,127
128132,note_off,0,0,0,,4,,,52,127
128133,note_on,1,0,0,,3,,,75,127
128133,note_on,0,0,0,,10,,,57,127
128133,note_on,0,0,0,,6,,,54,127
128133,note_on,0,0,0,,12,,,47,127
128235,note_off,102,0,0,,3,,,75,127
128236,note_on,1,0,0,,1,,,73,127
128338,note_off,102,0,0,,1,,,73,127
128338,note_off,0,0,0,,12,,,47,127
128338,note_off,0,0,0,,6,,,54,127
128338,note_off,0,0,0,,10,,,57,127
128339,note_on,1,0,0,,12,,,71,127
128339,note_on,0,0,0,,6,,,54,127
128339,note_on,0,0,0,,10,,,57,127
128339,note_on,0,0,0,,12,,,47,127
128441,note_off,102,0,0,,12,,,71,127
128442,note_on,1,0,0,,10,,,69,127
128544,note_off,102,0,0,,10,,,69,127
128544,note_off,0,0,0,,12,,,47,127
128544,note_off,0,0,0,,10,,,57,127
128544,note_off,0,0,0,,6,,,54,127
128545,note_on,1,0,0,,7,,,67,127
128545,note_on,0,0,0,,10,,,57,127
128545,note_on,0,0,0,,12,,,47,127
128545,note_on,0,0,0,,6,,,54,127
128647,note_off,102,0,0,,7,,,67,127
128648,note_on,1,0,0,,6,,,66,127
128750,note_off,102,0,0,,6,,,66,127
128750,note_off,0,0,0,,6,,,54,127
128750,note_off,0,0,0,,12,,,47,127
128750,note_off,0,0,0,,10,,,57,127
128751,note_on,1,0,0,,4,,,64,127
128751,note_on,0,0,0,,4,,,52,127
128751,note_on,0,0,0,,10,,,57,127
128751,note_on,0,0,0,,0,,,48,127
128853,note_off,102,0,0,,4,,,64,127
128854,note_on,1,0,0,,3,,,63,127
128956,note_off,102,0,0,,3,,,63,127
128956,note_off,0,0,0,,0,,,48,127
128956,note_off,0,0,0,,10,,,57,127
128956,note_off,0,0,0,,4,,,52,127
128957,note_on,1,0,0,,4,,,64,127
128957,note_on,0,0,0,,10,,,57,127
128957,note_on,0,0,0,,0,,,48,127
128957,note_on,0,0,0,,4,,,52,127
129059,note_off,102,0,0,,4,,,64,127
129060,note_on,1,0,0,,6,,,66,127
129162,note_off,102,0,0,,6,,,66,127
129162,note_off,0,0,0,,4,,,52,127
129162,note_off,0,0,0,,0,,,48,127
129162,note_off,0,0,0,,10,,,57,127
129163,note_on,1,0,0,,7,,,67,127
129163,note_on,0,0,0,,10,,,57,127
129163,note_on,0,0,0,,4,,,52,127
129163,note_on,0,0,0,,0,,,48,127
129265,note_off,102,0,0,,7,,,67,127
129266,note_on,1,0,0,,10,,,69,127
129368,note_off,102,0,0,,10,,,69,127
129368,note_off,0,0,0,,0,,,48,127
129368,note_off,0,0,0,,4,,,52,127
129368,note_off,0,0,0,,10,,,57,127
129369,note_on,1,0,0,,10,,,69,127
129369,note_on,0,0,0,,12,,,59,127
129369,note_on,0,0,0,,12,,,47,127
129574,note_off,205,0,0,,10,,,69,127
129575,note_on,1,0,0,,12,,,71,127
129985,note_off,410,0,0,,12,,,71,127
129985,note_off,0,0,0,,12,,,47,127
129985,note_off,0,0,0,,12,,,59,127
129986,note_on,1,0,0,,12,,,71,127
129986,note_on,0,0,0,,12,,,47,127
129986,note_on,0,0,0,,12,,,35,127
130088,note_off,102,0,0,,12,,,71,127
130089,note_on,1,0,0,,3,,,75,127
130191,note_off,102,0,0,,3,,,75,127
130191,note_off,0,0,0,,12,,,35,127
130191,note_off,0,0,0,,12,,,47,127
130192,note_on,1,0,0,,6,,,78,127
130192,note_on,0,0,0,,12,,,47,127
130192,note_on,0,0,0,,12,,,35,127
130294,note_off,102,0,0,,6,,,78,127
130295,note_on,1,0,0,,12,,,83,127
130397,note_off,102,0,0,,12,,,83,127
130397,note_off,0,0,0,,12,,,35,127
130397,note_off,0,0,0,,12,,,47,127
130398,note_on,1,0,0,,10,,,81,127
130398,note_on,0,0,0,,12,,,47,127
130398,note_on,0,0,0,,12,,,35,127
130603,note_off,205,0,0,,12,,,35,127
130603,note_off,0,0,0,,12,,,47,127
130604,note_on,1,0,0,,4,,,52,127
130604,note_on,0,0,0,,4,,,40,127
130809,note_off,205,0,0,,4,,,40,127
130809,note_off,0,0,0,,4,,,52,127
130809,note_off,0,0,0,,10,,,81,127
130810,note_on,1,0,0,,8,,,80,127
130810,note_on,0,0,0,,4,,,40,127
130810,note_on,0,0,0,,4,,,52,127
131015,note_off,205,0,0,,4,,,52,127
131015,note_off,0,0,0,,4,,,40,127
131015,note_off,0,0,0,,8,,,80,127
131016,note_on,1,0,0,,4,,,76,127
131016,note_on,0,0,0,,4,,,52,127
131016,note_on,0,0,0,,4,,,40,127
131221,note_off,205,0,0,,4,,,40,127
131221,note_off,0,0,0,,4,,,52,127
131221,note_off,0,0,0,,4,,,76,127
131222,note_on,1,0,0,,12,,,71,127
131222,note_on,0,0,0,,12,,,47,127
131222,note_on,0,0,0,,12,,,35,127
131324,note_off,102,0,0,,12,,,71,127
131325,note_on,1,0,0,,3,,,75,127
131427,note_off,102,0,0,,3,,,75,127
131427,note_off,0,0,0,,12,,,35,127
131427,note_off,0,0,0,,12,,,47,127
131428,note_on,1,0,0,,6,,,78,127
131428,note_on,0,0,0,,12,,,47,127
131428,note_on,0,0,0,,12,,,35,127
131530,note_off,102,0,0,,6,,,78,127
131531,note_on,1,0,0,,12,,,83,127
131633,note_off,102,0,0,,12,,,83,127
131633,note_off,0,0,0,,12,,,35,127
131633,note_off,0,0,0,,12,,,47,127
131634,note_on,1,0,0,,10,,,81,127
131634,note_on,0,0,0,,12,,,47,127
131634,note_on,0,0,0,,12,,,35,127
131839,note_off,205,0,0,,12,,,35,127
131839,note_off,0,0,0,,12,,,47,127
131840,note_on,1,0,0,,4,,,52,127
131840,note_on,0,0,0,,4,,,40,127
132045,note_off,205,0,0,,4,,,40,127
132045,note_off,0,0,0,,4,,,52,127
132045,note_off,0,0,0,,10,,,81,127
132046,note_on,1,0,0,,8,,,80,127
132046,note_on,0,0,0,,4,,,52,127
132046,note_on,0,0,0,,4,,,40,127
132251,note_off,205,0,0,,4,,,40,127
132251,note_off,0,0,0,,4,,,52,127
132251,note_off,0,0,0,,8,,,80,127
132252,note_on,1,0,0,,4,,,76,127
132252,note_on,0,0,0,,4,,,52,127
132252,note_on,0,0,0,,4,,,40,127
132457,note_off,205,0,0,,4,,,40,127
132457,note_off,0,0,0,,4,,,52,127
132457,note_off,0,0,0,,4,,,76,127
132458,note_on,1,0,0,,6,,,78,127
132458,note_on,0,0,0,,12,,,47,127
132561,note_on,103,0,0,,3,,,51,127
132662,note_off,101,0,0,,12,,,47,127
132663,note_off,1,0,0,,3,,,51,127
132664,note_on,1,0,0,,12,,,47,127
132664,note_on,0,0,0,,6,,,54,127
132766,note_off,102,0,0,,6,,,54,127
132767,note_on,1,0,0,,12,,,59,127
132868,note_off,101,0,0,,12,,,47,127
132869,note_off,1,0,0,,12,,,59,127
132869,note_off,0,0,0,,6,,,78,127
132870,note_on,1,0,0,,3,,,75,127
132870,note_on,0,0,0,,12,,,47,127
132870,note_on,0,0,0,,10,,,57,127
133075,note_off,205,0,0,,12,,,47,127
133076,note_on,1,0,0,,12,,,47,127
133179,note_off,103,0,0,,10,,,57,127
133281,note_off,102,0,0,,12,,,47,127
133281,note_off,0,0,0,,3,,,75,127
133282,note_on,1,0,0,,4,,,76,127
133282,note_on,0,0,0,,12,,,47,127
133282,note_on,0,0,0,,8,,,56,127
133487,note_off,205,0,0,,8,,,56,127
133487,note_off,0,0,0,,12,,,47,127
133487,note_off,0,0,0,,4,,,76,127
133488,note_on,1,0,0,,8,,,80,127
133488,note_on,0,0,0,,12,,,47,127
133488,note_on,0,0,0,,4,,,52,127
133693,note_off,205,0,0,,4,,,52,127
133693,note_off,0,0,0,,12,,,47,127
133693,note_off,0,0,0,,8,,,80,127
133694,note_on,1,0,0,,6,,,78,127
133694,note_on,0,0,0,,12,,,47,127
133797,note_on,103,0,0,,3,,,51,127
133898,note_off,101,0,0,,12,,,47,127
133899,note_off,1,0,0,,3,,,51,127
133900,note_on,1,0,0,,12,,,47,127
133900,note_on,0,0,0,,6,,,54,127
134002,note_off,102,0,0,,6,,,54,127
134003,note_on,1,0,0,,12,,,59,127
134104,note_off,101,0,0,,12,,,47,127
134105,note_off,1,0,0,,12,,,59,127
134105,note_off,0,0,0,,6,,,78,127
134106,note_on,1,0,0,,3,,,75,127
134106,note_on,0,0,0,,12,,,47,127
134106,note_on,0,0,0,,10,,,57,127
134311,note_off,205,0,0,,12,,,47,127
134312,note_on,1,0,0,,12,,,47,127
134415,note_off,103,0,0,,10,,,57,127
134517,note_off,102,0,0,,12,,,47,127
134517,note_off,0,0,0,,3,,,75,127
134518,note_on,1,0,0,,4,,,76,127
134518,note_on,0,0,0,,12,,,47,127
134518,note_on,0,0,0,,8,,,56,127
134723,note_off,205,0,0,,8,,,56,127
134723,note_off,0,0,0,,12,,,47,127
134723,note_off,0,0,0,,4,,,76,127
134724,note_on,1,0,0,,8,,,80,127
134724,note_on,0,0,0,,4,,,52,127
134724,note_on,0,0,0,,12,,,47,127
134929,note_off,205,0,0,,12,,,47,127
134929,note_off,0,0,0,,4,,,52,127
134929,note_off,0,0,0,,8,,,80,127
134930,note_on,1,0,0,,1,,,85,127
134930,note_on,0,0,0,,10,,,45,127
135032,note_off,102,0,0,,1,,,85,127
135033,note_on,1,0,0,,4,,,76,127
135135,note_off,102,0,0,,4,,,76,127
135136,note_on,1,0,0,,3,,,75,127
135238,note_off,102,0,0,,3,,,75,127
135239,note_on,1,0,0,,4,,,76,127
135341,note_off,102,0,0,,4,,,76,127
135341,note_off,0,0,0,,10,,,45,127
135342,note_on,1,0,0,,1,,,85,127
135342,note_on,0,0,0,,10,,,57,127
135444,note_off,102,0,0,,1,,,85,127
135445,note_on,1,0,0,,4,,,76,127
135547,note_off,102,0,0,,4,,,76,127
135547,note_off,0,0,0,,10,,,57,127
135548,note_on,1,0,0,,12,,,83,127
135548,note_on,0,0,0,,8,,,56,127
135650,note_off,102,0,0,,12,,,83,127
135651,note_on,1,0,0,,8,,,80,127
135753,note_off,102,0,0,,8,,,80,127
135754,note_on,1,0,0,,10,,,81,127
135856,note_off,102,0,0,,10,,,81,127
135857,note_on,1,0,0,,6,,,78,127
135959,note_off,102,0,0,,6,,,78,127
135959,note_off,0,0,0,,8,,,56,127
135960,note_on,1,0,0,,8,,,80,127
135960,note_on,0,0,0,,1,,,61,127
136062,note_off,102,0,0,,8,,,80,127
136063,note_on,1,0,0,,4,,,76,127
136165,note_off,102,0,0,,4,,,76,127
136165,note_off,0,0,0,,1,,,61,127
136166,note_on,1,0,0,,10,,,81,127
136166,note_on,0,0,0,,10,,,57,127
136268,note_off,102,0,0,,10,,,81,127
136269,note_on,1,0,0,,6,,,78,127
136371,note_off,102,0,0,,6,,,78,127
136371,note_off,0,0,0,,10,,,57,127
136372,note_on,1,0,0,,8,,,80,127
136372,note_on,0,0,0,,12,,,59,127
136474,note_off,102,0,0,,8,,,80,127
136475,note_on,1,0,0,,4,,,76,127
136577,note_off,102,0,0,,4,,,76,127
136577,note_off,0,0,0,,12,,,59,127
136578,note_on,1,0,0,,6,,,78,127
136578,note_on,0,0,0,,12,,,47,127
136680,note_off,102,0,0,,6,,,78,127
136681,note_on,1,0,0,,3,,,75,127
136783,note_off,102,0,0,,3,,,75,127
136783,note_off,0,0,0,,12,,,47,127
136784,note_on,1,0,0,,3,,,75,127
136784,note_on,0,0,0,,4,,,52,127
136989,note_off,205,0,0,,4,,,52,127
136989,note_off,0,0,0,,3,,,75,127
136990,note_on,1,0,0,,4,,,76,127
136990,note_on,0,0,0,,4,,,40,127
137400,note_off,410,0,0,,4,,,40,127
137400,note_off,0,0,0,,4,,,76,127
137401,note_on,1,0,0,,12,,,71,127
137401,note_on,0,0,0,,6,,,66,127
137401,note_on,0,0,0,,12,,,59,127
137503,note_off,102,0,0,,12,,,71,127
137504,note_on,1,0,0,,3,,,75,127
137606,note_off,102,0,0,,3,,,75,127
137606,note_off,0,0,0,,12,,,59,127
137606,note_off,0,0,0,,6,,,66,127
137607,note_on,1,0,0,,6,,,78,127
137607,note_on,0,0,0,,12,,,59,127
137607,note_on,0,0,0,,6,,,66,127
137709,note_off,102,0,0,,6,,,78,127
137710,note_on,1,0,0,,12,,,83,127
137812,note_off,102,0,0,,12,,,83,127
137812,note_off,0,0,0,,6,,,66,127
137812,note_off,0,0,0,,12,,,59,127
137813,note_on,1,0,0,,10,,,81,127
137813,note_on,0,0,0,,12,,,59,127
137813,note_on,0,0,0,,6,,,66,127
138018,note_off,205,0,0,,6,,,66,127
138018,note_off,0,0,0,,12,,,59,127
138019,note_on,1,0,0,,0,,,72,127
138019,note_on,0,0,0,,10,,,69,127
138019,note_on,0,0,0,,10,,,57,127
138019,note_on,0,0,0,,4,,,64,127
138224,note_off,205,0,0,,4,,,64,127
138224,note_off,0,0,0,,10,,,57,127
138224,note_off,0,0,0,,10,,,69,127
138224,note_off,0,0,0,,0,,,72,127
138225,note_off,1,0,0,,10,,,81,127
138225,note_on,0,0,0,,7,,,79,127
138225,note_on,0,0,0,,10,,,69,127
138225,note_on,0,0,0,,10,,,57,127
138225,note_on,0,0,0,,4,,,64,127
138430,note_off,205,0,0,,4,,,64,127
138430,note_off,0,0,0,,10,,,57,127
138430,note_off,0,0,0,,10,,,69,127
138430,note_off,0,0,0,,7,,,79,127
138431,note_on,1,0,0,,6,,,78,127
138431,note_on,0,0,0,,4,,,64,127
138431,note_on,0,0,0,,10,,,69,127
138431,note_on,0,0,0,,10,,,57,127
138636,note_off,205,0,0,,10,,,57,127
138636,note_off,0,0,0,,10,,,69,127
138636,note_off,0,0,0,,4,,,64,127
138636,note_off,0,0,0,,6,,,78,127
138637,note_on,1,0,0,,12,,,71,127
138637,note_on,0,0,0,,12,,,59,127
138637,note_on,0,0,0,,6,,,66,127
138739,note_off,102,0,0,,12,,,71,127
138740,note_on,1,0,0,,3,,,75,127
138842,note_off,102,0,0,,3,,,75,127
138842,note_off,0,0,0,,6,,,66,127
138842,note_off,0,0,0,,12,,,59,127
138843,note_on,1,0,0,,6,,,78,127
138843,note_on,0,0,0,,12,,,59,127
138843,note_on,0,0,0,,6,,,66,127
138945,note_off,102,0,0,,6,,,78,127
138946,note_on,1,0,0,,12,,,83,127
139048,note_off,102,0,0,,12,,,83,127
139048,note_off,0,0,0,,6,,,66,127
139048,note_off,0,0,0,,12,,,59,127
139049,note_on,1,0,0,,10,,,81,127
139049,note_on,0,0,0,,6,,,66,127
139049,note_on,0,0,0,,12,,,59,127
139254,note_off,205,0,0,,12,,,59,127
139254,note_off,0,0,0,,6,,,66,127
139255,note_on,1,0,0,,0,,,72,127
139255,note_on,0,0,0,,10,,,69,127
139255,note_on,0,0,0,,4,,,64,127
139255,note_on,0,0,0,,10,,,57,127
139460,note_off,205,0,0,,10,,,57,127
139460,note_off,0,0,0,,4,,,64,127
139460,note_off,0,0,0,,10,,,69,127
139460,note_off,0,0,0,,0,,,72,127
139461,note_off,1,0,0,,10,,,81,127
139461,note_on,0,0,0,,7,,,79,127
139461,note_on,0,0,0,,4,,,64,127
139461,note_on,0,0,0,,10,,,69,127
139461,note_on,0,0,0,,10,,,57,127
139666,note_off,205,0,0,,10,,,57,127
139666,note_off,0,0,0,,10,,,69,127
139666,note_off,0,0,0,,4,,,64,127
139666,note_off,0,0,0,,7,,,79,127
139667,note_on,1,0,0,,6,,,78,127
139667,note_on,0,0,0,,10,,,69,127
139667,note_on,0,0,0,,10,,,57,127
139667,note_on,0,0,0,,4,,,64,127
139872,note_off,205,0,0,,4,,,64,127
139872,note_off,0,0,0,,10,,,57,127
139872,note_off,0,0,0,,10,,,69,127
139872,note_off,0,0,0,,6,,,78,127
139873,note_on,1,0,0,,0,,,84,127
139873,note_on,0,0,0,,10,,,45,127
139976,note_on,103,0,0,,4,,,76,127
140078,note_off,102,0,0,,4,,,76,127
140079,note_on,1,0,0,,3,,,75,127
140181,note_off,102,0,0,,3,,,75,127
140182,note_on,1,0,0,,4,,,76,127
140284,note_off,102,0,0,,4,,,76,127
140284,note_off,0,0,0,,10,,,45,127
140285,note_off,1,0,0,,0,,,84,127
140285,note_on,0,0,0,,0,,,84,127
140285,note_on,0,0,0,,10,,,57,127
140387,note_off,102,0,0,,0,,,84,127
140388,note_on,1,0,0,,10,,,81,127
140490,note_off,102,0,0,,10,,,81,127
140490,note_off,0,0,0,,10,,,57,127
140491,note_on,1,0,0,,12,,,83,127
140491,note_on,0,0,0,,7,,,55,127
140593,note_off,102,0,0,,12,,,83,127
140594,note_on,1,0,0,,7,,,79,127
140696,note_off,102,0,0,,7,,,79,127
140697,note_on,1,0,0,,10,,,81,127
140799,note_off,102,0,0,,10,,,81,127
140800,note_on,1,0,0,,6,,,78,127
140902,note_off,102,0,0,,6,,,78,127
140902,note_off,0,0,0,,7,,,55,127
140903,note_on,1,0,0,,7,,,79,127
140903,note_on,0,0,0,,0,,,60,127
141005,note_off,102,0,0,,7,,,79,127
141006,note_on,1,0,0,,4,,,76,127
141108,note_off,102,0,0,,4,,,76,127
141108,note_off,0,0,0,,0,,,60,127
141109,note_on,1,0,0,,10,,,81,127
141109,note_on,0,0,0,,10,,,57,127
141211,note_off,102,0,0,,10,,,81,127
141212,note_on,1,0,0,,6,,,78,127
141314,note_off,102,0,0,,6,,,78,127
141314,note_off,0,0,0,,10,,,57,127
141315,note_on,1,0,0,,7,,,79,127
141315,note_on,0,0,0,,12,,,59,127
141417,note_off,102,0,0,,7,,,79,127
141418,note_on,1,0,0,,4,,,76,127
141520,note_off,102,0,0,,4,,,76,127
141521,note_on,1,0,0,,6,,,78,127
141521,note_on,0,0,0,,12,,,47,127
141623,note_off,102,0,0,,6,,,78,127
141624,note_on,1,0,0,,3,,,75,127
141723,note_off,99,0,0,,12,,,59,127
141726,note_off,3,0,0,,3,,,75,127
141726,note_off,0,0,0,,12,,,47,127
141727,note_on,1,0,0,,4,,,76,127
141727,note_on,0,0,0,,4,,,52,127
141829,note_off,102,0,0,,4,,,76,127
141830,note_on,1,0,0,,8,,,80,127
141932,note_off,102,0,0,,8,,,80,127
141933,note_on,1,0,0,,4,,,76,127
142035,note_off,102,0,0,,4,,,76,127
142036,note_on,1,0,0,,12,,,71,127
142138,note_off,102,0,0,,12,,,71,127
142139,note_on,1,0,0,,8,,,68,127
142241,note_off,102,0,0,,8,,,68,127
142242,note_on,1,0,0,,4,,,64,127
142344,note_off,102,0,0,,4,,,52,127
142345,note_off,1,0,0,,4,,,64,127
142345,note_on,0,0,0,,12,,,59,127
142447,note_off,102,0,0,,12,,,59,127
142448,note_on,1,0,0,,8,,,56,127
142550,note_off,102,0,0,,8,,,56,127
142551,note_on,1,0,0,,4,,,52,127
142653,note_off,102,0,0,,4,,,52,127
142654,note_on,1,0,0,,12,,,47,127
142756,note_off,102,0,0,,12,,,47,127
142757,note_on,1,0,0,,8,,,44,127
142859,note_off,102,0,0,,8,,,44,127
142860,note_on,1,0,0,,4,,,40,127
142962,note_off,102,0,0,,4,,,40,127
142963,note_on,1,0,0,,12,,,35,127
143169,note_on,206,0,0,,4,,,76,127
143220,note_on,51,0,0,,3,,,75,127
143236,note_off,16,0,0,,4,,,76,127
143271,note_on,35,0,0,,4,,,76,127
143287,note_off,16,0,0,,3,,,75,127
143322,note_on,35,0,0,,3,,,75,127
143338,note_off,16,0,0,,4,,,76,127
143373,note_on,35,0,0,,4,,,76,127
143389,note_off,16,0,0,,3,,,75,127
143424,note_on,35,0,0,,3,,,75,127
143440,note_off,16,0,0,,4,,,76,127
143475,note_off,35,0,0,,12,,,35,127
143475,note_on,0,0,0,,1,,,73,127
143491,note_off,16,0,0,,3,,,75,127
143526,note_on,35,0,0,,3,,,75,127
143542,note_off,16,0,0,,1,,,73,127
143577,note_on,35,0,0,,4,,,76,127
143577,note_on,0,0,0,,4,,,52,127
143593,note_off,16,0,0,,3,,,75,127
143679,note_off,86,0,0,,4,,,76,127
143680,note_on,1,0,0,,8,,,80,127
143782,note_off,102,0,0,,8,,,80,127
143783,note_on,1,0,0,,4,,,76,127
143885,note_off,102,0,0,,4,,,76,127
143886,note_on,1,0,0,,12,,,71,127
143988,note_off,102,0,0,,12,,,71,127
143989,note_on,1,0,0,,8,,,68,127
144091,note_off,102,0,0,,8,,,68,127
144092,note_on,1,0,0,,4,,,64,127
144194,note_off,102,0,0,,4,,,52,127
144195,note_off,1,0,0,,4,,,64,127
144195,note_on,0,0,0,,12,,,59,127
144297,note_off,102,0,0,,12,,,59,127
144298,note_on,1,0,0,,8,,,56,127
144400,note_off,102,0,0,,8,,,56,127
144401,note_on,1,0,0,,4,,,52,127
144503,note_off,102,0,0,,4,,,52,127
144504,note_on,1,0,0,,12,,,47,127
144606,note_off,102,0,0,,12,,,47,127
144607,note_on,1,0,0,,8,,,44,127
144709,note_off,102,0,0,,8,,,44,127
144710,note_on,1,0,0,,4,,,40,127
144812,note_off,102,0,0,,4,,,40,127
144813,note_on,1,0,0,,12,,,35,127
145019,note_on,206,0,0,,4,,,76,127
145070,note_on,51,0,0,,3,,,75,127
145086,note_off,16,0,0,,4,,,76,127
145121,note_on,35,0,0,,4,,,76,127
145137,note_off,16,0,0,,3,,,75,127
145172,note_on,35,0,0,,3,,,75,127
145188,note_off,16,0,0,,4,,,76,127
145223,note_on,35,0,0,,4,,,76,127
145239,note_off,16,0,0,,3,,,75,127
145274,note_on,35,0,0,,3,,,75,127
145283,note_off,9,0,0,,12,,,35,127
145290,note_off,7,0,0,,4,,,76,127
145325,note_on,35,0,0,,1,,,73,127
145341,note_off,16,0,0,,3,,,75,127
145376,note_on,35,0,0,,3,,,75,127
145392,note_off,16,0,0,,1,,,73,127
145427,note_on,35,0,0,,4,,,76,127
145427,note_on,0,0,0,,4,,,52,127
145443,note_off,16,0,0,,3,,,75,127
145529,note_off,86,0,0,,4,,,76,127
145530,note_on,1,0,0,,12,,,71,127
145632,note_off,102,0,0,,12,,,71,127
145633,note_on,1,0,0,,8,,,68,127
145735,note_off,102,0,0,,8,,,68,127
145736,note_on,1,0,0,,4,,,64,127
145838,note_off,102,0,0,,4,,,64,127
145838,note_off,0,0,0,,4,,,52,127
145839,note_on,1,0,0,,8,,,68,127
145839,note_on,0,0,0,,8,,,56,127
145941,note_off,102,0,0,,8,,,68,127
145942,note_on,1,0,0,,12,,,71,127
146044,note_off,102,0,0,,12,,,71,127
146044,note_off,0,0,0,,8,,,56,127
146045,note_on,1,0,0,,1,,,73,127
146045,note_on,0,0,0,,10,,,57,127
146250,note_off,205,0,0,,10,,,57,127
146250,note_off,0,0,0,,1,,,73,127
146251,note_on,1,0,0,,4,,,76,127
146251,note_on,0,0,0,,12,,,59,127
146302,note_on,51,0,0,,3,,,75,127
146318,note_off,16,0,0,,4,,,76,127
146353,note_on,35,0,0,,4,,,76,127
146369,note_off,16,0,0,,3,,,75,127
146404,note_on,35,0,0,,3,,,75,127
146420,note_off,16,0,0,,4,,,76,127
146455,note_on,35,0,0,,4,,,76,127
146455,note_on,0,0,0,,12,,,47,127
146471,note_off,16,0,0,,3,,,75,127
146506,note_on,35,0,0,,3,,,75,127
146522,note_off,16,0,0,,4,,,76,127
146557,note_on,35,0,0,,1,,,73,127
146573,note_off,16,0,0,,3,,,75,127
146608,note_on,35,0,0,,3,,,75,127
146624,note_off,16,0,0,,1,,,73,127
146655,note_off,31,0,0,,12,,,59,127
146658,note_off,3,0,0,,12,,,47,127
146659,note_on,1,0,0,,4,,,76,127
146659,note_on,0,0,0,,4,,,52,127
146675,note_off,16,0,0,,3,,,75,127
146761,note_off,86,0,0,,4,,,76,127
146762,note_on,1,0,0,,12,,,71,127
146864,note_off,102,0,0,,12,,,71,127
146865,note_on,1,0,0,,8,,,68,127
146967,note_off,102,0,0,,8,,,68,127
146968,note_on,1,0,0,,4,,,64,127
147070,note_off,102,0,0,,4,,,64,127
147070,note_off,0,0,0,,4,,,52,127
147071,note_on,1,0,0,,8,,,68,127
147071,note_on,0,0,0,,8,,,56,127
147173,note_off,102,0,0,,8,,,68,127
147174,note_on,1,0,0,,12,,,71,127
147276,note_off,102,0,0,,12,,,71,127
147276,note_off,0,0,0,,8,,,56,127
147277,note_on,1,0,0,,1,,,73,127
147277,note_on,0,0,0,,10,,,57,127
147379,note_off,102,0,0,,1,,,73,127
147380,note_on,1,0,0,,4,,,64,127
147482,note_off,102,0,0,,4,,,64,127
147482,note_off,0,0,0,,10,,,57,127
147483,note_on,1,0,0,,4,,,64,127
147483,note_on,0,0,0,,12,,,59,127
147688,note_off,205,0,0,,4,,,64,127
147689,note_on,1,0,0,,3,,,63,127
147689,note_on,0,0,0,,12,,,47,127
147890,note_off,201,0,0,,12,,,59,127
147893,note_off,3,0,0,,12,,,47,127
147893,note_off,0,0,0,,3,,,63,127
147926,note_on,33,0,0,,4,,,52,127
147926,note_on,0,0,0,,4,,,76,127
148028,note_off,102,0,0,,4,,,76,127
148032,note_on,4,0,0,,12,,,71,127
148134,note_off,102,0,0,,12,,,71,127
148138,note_on,4,0,0,,8,,,68,127
148240,note_off,102,0,0,,8,,,68,127
148244,note_on,4,0,0,,4,,,64,127
148339,note_off,95,0,0,,4,,,52,127
148345,note_off,6,0,0,,4,,,64,127
148349,note_on,4,0,0,,8,,,56,127
148349,note_on,0,0,0,,8,,,68,127
148451,note_off,102,0,0,,8,,,68,127
148454,note_on,3,0,0,,12,,,71,127
148555,note_off,101,0,0,,8,,,56,127
148556,note_off,1,0,0,,12,,,71,127
148560,note_on,4,0,0,,10,,,57,127
148560,note_on,0,0,0,,1,,,73,127
148766,note_off,206,0,0,,1,,,73,127
148766,note_off,0,0,0,,10,,,57,127
148772,note_on,6,0,0,,12,,,59,127
148772,note_on,0,0,0,,4,,,76,127
148826,note_on,54,0,0,,3,,,75,127
148840,note_off,14,0,0,,4,,,76,127
148879,note_on,39,0,0,,4,,,76,127
148894,note_off,15,0,0,,3,,,75,127
148933,note_on,39,0,0,,3,,,75,127
148947,note_off,14,0,0,,4,,,76,127
148986,note_on,39,0,0,,12,,,47,127
148986,note_on,0,0,0,,4,,,76,127
149001,note_off,15,0,0,,3,,,75,127
149040,note_on,39,0,0,,3,,,75,127
149054,note_off,14,0,0,,4,,,76,127
149093,note_on,39,0,0,,1,,,73,127
149108,note_off,15,0,0,,3,,,75,127
149147,note_on,39,0,0,,3,,,75,127
149161,note_off,14,0,0,,1,,,73,127
149186,note_off,25,0,0,,12,,,59,127
149193,note_off,7,0,0,,12,,,47,127
149199,note_on,6,0,0,,4,,,76,127
149199,note_on,0,0,0,,4,,,52,127
149214,note_off,15,0,0,,3,,,75,127
149302,note_off,88,0,0,,4,,,76,127
149307,note_on,5,0,0,,12,,,71,127
149410,note_off,103,0,0,,12,,,71,127
149415,note_on,5,0,0,,8,,,68,127
149518,note_off,103,0,0,,8,,,68,127
149523,note_on,5,0,0,,4,,,64,127
149619,note_off,96,0,0,,4,,,52,127
149625,note_off,6,0,0,,4,,,64,127
149630,note_on,5,0,0,,8,,,68,127
149630,note_on,0,0,0,,8,,,56,127
149733,note_off,103,0,0,,8,,,68,127
149737,note_on,4,0,0,,12,,,71,127
149839,note_off,102,0,0,,8,,,56,127
149840,note_off,1,0,0,,12,,,71,127
149845,note_on,5,0,0,,1,,,73,127
149845,note_on,0,0,0,,10,,,57,127
149948,note_off,103,0,0,,1,,,73,127
149953,note_on,5,0,0,,4,,,64,127
150054,note_off,101,0,0,,10,,,57,127
150056,note_off,2,0,0,,4,,,64,127
150061,note_on,5,0,0,,4,,,64,127
150061,note_on,0,0,0,,12,,,59,127
150254,note_off,193,0,0,,4,,,64,127
150278,note_on,24,0,0,,3,,,63,127
150278,note_on,0,0,0,,12,,,47,127
150506,note_off,228,0,0,,12,,,59,127
150513,note_off,7,0,0,,12,,,47,127
150530,note_off,17,0,0,,3,,,63,127
150534,note_on,4,0,0,,4,,,64,127
150534,note_on,0,0,0,,4,,,52,127
150534,note_on,0,0,0,,4,,,40,127
152737,note_off,2203,0,0,,4,,,40,127
152737,note_off,0,0,0,,4,,,52,127
152737,note_off,0,0,0,,4,,,64,127
158208,end_of_track,5471,1,0,,,,,,
