tick,type,time,meta,track,program,channel,pitch,tempo,note,velocity
0,copyright,0,1,0,,,,,,
0,program_change,0,0,0,6,0,,,,
0,pitchwheel,0,0,0,,0,0,,,
0,program_change,0,0,0,6,1,,,,
0,pitchwheel,0,0,0,,1,-590,,,
0,program_change,0,0,0,6,2,,,,
0,pitchwheel,0,0,0,,2,-272,,,
0,program_change,0,0,0,6,3,,,,
0,pitchwheel,0,0,0,,3,-353,,,
0,program_change,0,0,0,6,4,,,,
0,pitchwheel,0,0,0,,4,-560,,,
0,program_change,0,0,0,6,5,,,,
0,pitchwheel,0,0,0,,5,-80,,,
0,program_change,0,0,0,6,6,,,,
0,pitchwheel,0,0,0,,6,-625,,,
0,program_change,0,0,0,6,7,,,,
0,pitchwheel,0,0,0,,7,-130,,,
0,program_change,0,0,0,6,8,,,,
0,pitchwheel,0,0,0,,8,-512,,,
0,program_change,0,0,0,6,10,,,,
0,pitchwheel,0,0,0,,10,-464,,,
0,program_change,0,0,0,6,11,,,,
0,pitchwheel,0,0,0,,11,-208,,,
0,program_change,0,0,0,6,12,,,,
0,pitchwheel,0,0,0,,12,-553,,,
0,set_tempo,0,1,0,,,,500000,,
230,note_on,230,0,0,,4,,,76,127
230,note_on,0,0,0,,4,,,64,127
343,note_off,113,0,0,,4,,,64,127
343,note_off,0,0,0,,4,,,76,127
345,note_on,2,0,0,,2,,,74,127
345,note_on,0,0,0,,2,,,62,127
458,note_off,113,0,0,,2,,,62,127
458,note_off,0,0,0,,2,,,74,127
460,note_on,2,0,0,,0,,,72,127
460,note_on,0,0,0,,0,,,60,127
688,note_off,228,0,0,,0,,,60,127
688,note_off,0,0,0,,0,,,72,127
690,note_on,2,0,0,,0,,,72,127
690,note_on,0,0,0,,0,,,60,127
803,note_off,113,0,0,,0,,,60,127
803,note_off,0,0,0,,0,,,72,127
805,note_on,2,0,0,,12,,,71,127
805,note_on,0,0,0,,12,,,59,127
918,note_off,113,0,0,,12,,,59,127
918,note_off,0,0,0,,12,,,71,127
920,note_on,2,0,0,,10,,,69,127
920,note_on,0,0,0,,10,,,57,127
1148,note_off,228,0,0,,10,,,57,127
1148,note_off,0,0,0,,10,,,69,127
1150,note_on,2,0,0,,10,,,69,127
1150,note_on,0,0,0,,10,,,57,127
1263,note_off,113,0,0,,10,,,57,127
1263,note_off,0,0,0,,10,,,69,127
1265,note_on,2,0,0,,7,,,67,127
1265,note_on,0,0,0,,7,,,55,127
1378,note_off,113,0,0,,7,,,55,127
1378,note_off,0,0,0,,7,,,67,127
1380,note_on,2,0,0,,7,,,67,127
1380,note_on,0,0,0,,7,,,55,127
1435,note_off,55,0,0,,7,,,55,127
1435,note_off,0,0,0,,7,,,67,127
1437,note_on,2,0,0,,5,,,65,127
1437,note_on,0,0,0,,5,,,53,127
1492,note_off,55,0,0,,5,,,53,127
1492,note_off,0,0,0,,5,,,65,127
1494,note_on,2,0,0,,7,,,67,127
1494,note_on,0,0,0,,7,,,55,127
1549,note_off,55,0,0,,7,,,55,127
1549,note_off,0,0,0,,7,,,67,127
1551,note_on,2,0,0,,5,,,65,127
1551,note_on,0,0,0,,5,,,53,127
1606,note_off,55,0,0,,5,,,53,127
1606,note_off,0,0,0,,5,,,65,127
1608,note_on,2,0,0,,7,,,67,127
1608,note_on,0,0,0,,7,,,55,127
1663,note_off,55,0,0,,7,,,55,127
1663,note_off,0,0,0,,7,,,67,127
1665,note_on,2,0,0,,5,,,65,127
1665,note_on,0,0,0,,5,,,53,127
1720,note_off,55,0,0,,5,,,53,127
1720,note_off,0,0,0,,5,,,65,127
1722,note_on,2,0,0,,7,,,67,127
1722,note_on,0,0,0,,7,,,55,127
1777,note_off,55,0,0,,7,,,55,127
1777,note_off,0,0,0,,7,,,67,127
1779,note_on,2,0,0,,5,,,65,127
1779,note_on,0,0,0,,5,,,53,127
1834,note_off,55,0,0,,5,,,53,127
1834,note_off,0,0,0,,5,,,65,127
1836,note_on,2,0,0,,4,,,64,127
1836,note_on,0,0,0,,4,,,52,127
2064,note_off,228,0,0,,4,,,52,127
2064,note_off,0,0,0,,4,,,64,127
2066,note_on,2,0,0,,6,,,66,127
2066,note_on,0,0,0,,2,,,50,127
2179,note_off,113,0,0,,6,,,66,127
2181,note_on,2,0,0,,8,,,68,127
2294,note_off,113,0,0,,8,,,68,127
2294,note_off,0,0,0,,2,,,50,127
2296,note_on,2,0,0,,10,,,69,127
2296,note_on,0,0,0,,0,,,48,127
2524,note_off,228,0,0,,0,,,48,127
2524,note_off,0,0,0,,10,,,69,127
2526,note_on,2,0,0,,12,,,71,127
2526,note_on,0,0,0,,0,,,48,127
2639,note_off,113,0,0,,12,,,71,127
2641,note_on,2,0,0,,0,,,72,127
2754,note_off,113,0,0,,0,,,72,127
2754,note_off,0,0,0,,0,,,48,127
2756,note_on,2,0,0,,2,,,74,127
2756,note_on,0,0,0,,12,,,47,127
2984,note_off,228,0,0,,12,,,47,127
2984,note_off,0,0,0,,2,,,74,127
2986,note_on,2,0,0,,0,,,72,127
2986,note_on,0,0,0,,12,,,47,127
3099,note_off,113,0,0,,0,,,72,127
3101,note_on,2,0,0,,12,,,71,127
3214,note_off,113,0,0,,12,,,71,127
3214,note_off,0,0,0,,12,,,47,127
3216,note_on,2,0,0,,12,,,71,127
3216,note_on,0,0,0,,0,,,48,127
3271,note_off,55,0,0,,12,,,71,127
3273,note_on,2,0,0,,10,,,69,127
3328,note_off,55,0,0,,10,,,69,127
3330,note_on,2,0,0,,12,,,71,127
3385,note_off,55,0,0,,12,,,71,127
3387,note_on,2,0,0,,10,,,69,127
3442,note_off,55,0,0,,10,,,69,127
3442,note_off,0,0,0,,0,,,48,127
3444,note_on,2,0,0,,8,,,68,127
3444,note_on,0,0,0,,10,,,45,127
3557,note_off,113,0,0,,8,,,68,127
3559,note_on,2,0,0,,10,,,69,127
3672,note_off,113,0,0,,10,,,69,127
3672,note_off,0,0,0,,10,,,45,127
3674,note_on,2,0,0,,12,,,71,127
3674,note_on,0,0,0,,4,,,40,127
3902,note_off,228,0,0,,4,,,40,127
3902,note_off,0,0,0,,12,,,71,127
3904,note_on,2,0,0,,4,,,76,127
3904,note_on,0,0,0,,4,,,64,127
4017,note_off,113,0,0,,4,,,64,127
4017,note_off,0,0,0,,4,,,76,127
4019,note_on,2,0,0,,2,,,74,127
4019,note_on,0,0,0,,2,,,62,127
4132,note_off,113,0,0,,2,,,62,127
4132,note_off,0,0,0,,2,,,74,127
4134,note_on,2,0,0,,0,,,72,127
4134,note_on,0,0,0,,0,,,60,127
4362,note_off,228,0,0,,0,,,60,127
4362,note_off,0,0,0,,0,,,72,127
4364,note_on,2,0,0,,0,,,72,127
4364,note_on,0,0,0,,0,,,60,127
4477,note_off,113,0,0,,0,,,60,127
4477,note_off,0,0,0,,0,,,72,127
4479,note_on,2,0,0,,12,,,71,127
4479,note_on,0,0,0,,12,,,59,127
4592,note_off,113,0,0,,12,,,59,127
4592,note_off,0,0,0,,12,,,71,127
4594,note_on,2,0,0,,10,,,69,127
4594,note_on,0,0,0,,10,,,57,127
4822,note_off,228,0,0,,10,,,57,127
4822,note_off,0,0,0,,10,,,69,127
4824,note_on,2,0,0,,10,,,69,127
4824,note_on,0,0,0,,10,,,57,127
4937,note_off,113,0,0,,10,,,57,127
4937,note_off,0,0,0,,10,,,69,127
4939,note_on,2,0,0,,7,,,67,127
4939,note_on,0,0,0,,7,,,55,127
5052,note_off,113,0,0,,7,,,55,127
5052,note_off,0,0,0,,7,,,67,127
5054,note_on,2,0,0,,7,,,67,127
5054,note_on,0,0,0,,7,,,55,127
5109,note_off,55,0,0,,7,,,55,127
5109,note_off,0,0,0,,7,,,67,127
5111,note_on,2,0,0,,5,,,65,127
5111,note_on,0,0,0,,5,,,53,127
5166,note_off,55,0,0,,5,,,53,127
5166,note_off,0,0,0,,5,,,65,127
5168,note_on,2,0,0,,7,,,67,127
5168,note_on,0,0,0,,7,,,55,127
5223,note_off,55,0,0,,7,,,55,127
5223,note_off,0,0,0,,7,,,67,127
5225,note_on,2,0,0,,5,,,65,127
5225,note_on,0,0,0,,5,,,53,127
5280,note_off,55,0,0,,5,,,53,127
5280,note_off,0,0,0,,5,,,65,127
5282,note_on,2,0,0,,7,,,67,127
5282,note_on,0,0,0,,7,,,55,127
5337,note_off,55,0,0,,7,,,55,127
5337,note_off,0,0,0,,7,,,67,127
5339,note_on,2,0,0,,5,,,65,127
5339,note_on,0,0,0,,5,,,53,127
5394,note_off,55,0,0,,5,,,53,127
5394,note_off,0,0,0,,5,,,65,127
5396,note_on,2,0,0,,7,,,67,127
5396,note_on,0,0,0,,7,,,55,127
5451,note_off,55,0,0,,7,,,55,127
5451,note_off,0,0,0,,7,,,67,127
5453,note_on,2,0,0,,5,,,65,127
5453,note_on,0,0,0,,5,,,53,127
5508,note_off,55,0,0,,5,,,53,127
5508,note_off,0,0,0,,5,,,65,127
5510,note_on,2,0,0,,4,,,64,127
5510,note_on,0,0,0,,4,,,52,127
5738,note_off,228,0,0,,4,,,52,127
5738,note_off,0,0,0,,4,,,64,127
5740,note_on,2,0,0,,6,,,66,127
5740,note_on,0,0,0,,2,,,50,127
5853,note_off,113,0,0,,6,,,66,127
5855,note_on,2,0,0,,8,,,68,127
5968,note_off,113,0,0,,8,,,68,127
5968,note_off,0,0,0,,2,,,50,127
5970,note_on,2,0,0,,10,,,69,127
5970,note_on,0,0,0,,0,,,48,127
6198,note_off,228,0,0,,0,,,48,127
6198,note_off,0,0,0,,10,,,69,127
6200,note_on,2,0,0,,12,,,71,127
6200,note_on,0,0,0,,0,,,48,127
6313,note_off,113,0,0,,12,,,71,127
6315,note_on,2,0,0,,0,,,72,127
6428,note_off,113,0,0,,0,,,72,127
6428,note_off,0,0,0,,0,,,48,127
6430,note_on,2,0,0,,2,,,74,127
6430,note_on,0,0,0,,12,,,47,127
6658,note_off,228,0,0,,12,,,47,127
6658,note_off,0,0,0,,2,,,74,127
6660,note_on,2,0,0,,0,,,72,127
6660,note_on,0,0,0,,10,,,45,127
6773,note_off,113,0,0,,0,,,72,127
6775,note_on,2,0,0,,12,,,71,127
6888,note_off,113,0,0,,12,,,71,127
6888,note_off,0,0,0,,10,,,45,127
6890,note_on,2,0,0,,0,,,72,127
6890,note_on,0,0,0,,4,,,52,127
7118,note_off,228,0,0,,4,,,52,127
7118,note_off,0,0,0,,0,,,72,127
7120,note_on,2,0,0,,12,,,71,127
7120,note_on,0,0,0,,4,,,40,127
7348,note_off,228,0,0,,4,,,40,127
7348,note_off,0,0,0,,12,,,71,127
7350,note_on,2,0,0,,10,,,45,127
7350,note_on,0,0,0,,10,,,69,127
7506,note_on,156,0,0,,10,,,57,127
7546,note_off,40,0,0,,10,,,45,127
7661,note_off,115,0,0,,10,,,57,127
7661,note_off,0,0,0,,10,,,69,127
7663,note_on,2,0,0,,7,,,55,127
7663,note_on,0,0,0,,12,,,71,127
7818,note_off,155,0,0,,12,,,71,127
7818,note_off,0,0,0,,7,,,55,127
7819,note_on,1,0,0,,5,,,53,127
7819,note_on,0,0,0,,10,,,69,127
7819,note_on,0,0,0,,0,,,72,127
7974,note_off,155,0,0,,5,,,53,127
7976,note_on,2,0,0,,4,,,52,127
8130,note_off,154,0,0,,0,,,72,127
8130,note_off,0,0,0,,10,,,69,127
8131,note_off,1,0,0,,4,,,52,127
8133,note_on,2,0,0,,2,,,50,127
8133,note_on,0,0,0,,2,,,74,127
8133,note_on,0,0,0,,12,,,71,127
8288,note_off,155,0,0,,12,,,71,127
8288,note_off,0,0,0,,2,,,74,127
8288,note_off,0,0,0,,2,,,50,127
8289,note_on,1,0,0,,0,,,48,127
8289,note_on,0,0,0,,4,,,76,127
8289,note_on,0,0,0,,0,,,72,127
8444,note_off,155,0,0,,0,,,48,127
8446,note_on,2,0,0,,0,,,60,127
8601,note_off,155,0,0,,0,,,60,127
8602,note_on,1,0,0,,12,,,59,127
8757,note_off,155,0,0,,12,,,59,127
8759,note_on,2,0,0,,10,,,57,127
8914,note_off,155,0,0,,10,,,57,127
8916,note_on,2,0,0,,7,,,55,127
9070,note_off,154,0,0,,0,,,72,127
9070,note_off,0,0,0,,4,,,76,127
9071,note_off,1,0,0,,7,,,55,127
9072,note_on,1,0,0,,5,,,53,127
9072,note_on,0,0,0,,2,,,74,127
9072,note_on,0,0,0,,5,,,77,127
9227,note_off,155,0,0,,5,,,77,127
9227,note_off,0,0,0,,2,,,74,127
9227,note_off,0,0,0,,5,,,53,127
9229,note_on,2,0,0,,4,,,52,127
9229,note_on,0,0,0,,7,,,79,127
9229,note_on,0,0,0,,4,,,76,127
9384,note_off,155,0,0,,4,,,52,127
9385,note_on,1,0,0,,4,,,64,127
9540,note_off,155,0,0,,4,,,64,127
9542,note_on,2,0,0,,2,,,62,127
9697,note_off,155,0,0,,2,,,62,127
9699,note_on,2,0,0,,0,,,60,127
9854,note_off,155,0,0,,0,,,60,127
9855,note_on,1,0,0,,12,,,59,127
10010,note_off,155,0,0,,12,,,59,127
10010,note_off,0,0,0,,4,,,76,127
10010,note_off,0,0,0,,7,,,79,127
10012,note_on,2,0,0,,10,,,57,127
10012,note_on,0,0,0,,10,,,81,127
10012,note_on,0,0,0,,5,,,77,127
10167,note_off,155,0,0,,5,,,77,127
10167,note_off,0,0,0,,10,,,81,127
10167,note_off,0,0,0,,10,,,57,127
10169,note_on,2,0,0,,7,,,55,127
10169,note_on,0,0,0,,7,,,79,127
10169,note_on,0,0,0,,12,,,83,127
10324,note_off,155,0,0,,7,,,55,127
10325,note_on,1,0,0,,7,,,67,127
10480,note_off,155,0,0,,7,,,67,127
10482,note_on,2,0,0,,5,,,65,127
10637,note_off,155,0,0,,5,,,65,127
10638,note_on,1,0,0,,4,,,64,127
10793,note_off,155,0,0,,4,,,64,127
10794,note_off,1,0,0,,12,,,83,127
10794,note_off,0,0,0,,7,,,79,127
10795,note_on,1,0,0,,2,,,62,127
10795,note_on,0,0,0,,0,,,84,127
10950,note_off,155,0,0,,0,,,84,127
10950,note_off,0,0,0,,2,,,62,127
10952,note_on,2,0,0,,4,,,64,127
10952,note_on,0,0,0,,4,,,76,127
11107,note_off,155,0,0,,4,,,76,127
11107,note_off,0,0,0,,4,,,64,127
11108,note_on,1,0,0,,5,,,65,127
11108,note_on,0,0,0,,4,,,76,127
11161,note_on,53,0,0,,2,,,74,127
11184,note_off,23,0,0,,4,,,76,127
11213,note_on,29,0,0,,4,,,76,127
11237,note_off,24,0,0,,2,,,74,127
11263,note_off,26,0,0,,5,,,65,127
11265,note_on,2,0,0,,4,,,64,127
11265,note_on,0,0,0,,2,,,74,127
11288,note_off,23,0,0,,4,,,76,127
11317,note_on,29,0,0,,4,,,76,127
11341,note_off,24,0,0,,2,,,74,127
11370,note_on,29,0,0,,2,,,74,127
11393,note_off,23,0,0,,4,,,76,127
11421,note_off,28,0,0,,4,,,64,127
11422,note_on,1,0,0,,5,,,65,127
11422,note_on,0,0,0,,4,,,76,127
11446,note_off,24,0,0,,2,,,74,127
11475,note_on,29,0,0,,2,,,74,127
11498,note_off,23,0,0,,4,,,76,127
11527,note_on,29,0,0,,4,,,76,127
11551,note_off,24,0,0,,2,,,74,127
11577,note_off,26,0,0,,5,,,65,127
11579,note_off,2,0,0,,4,,,76,127
11579,note_on,0,0,0,,7,,,67,127
11579,note_on,0,0,0,,2,,,74,127
11734,note_off,155,0,0,,2,,,74,127
11734,note_off,0,0,0,,7,,,67,127
11736,note_on,2,0,0,,5,,,65,127
11736,note_on,0,0,0,,7,,,79,127
11891,note_off,155,0,0,,7,,,79,127
11891,note_off,0,0,0,,5,,,65,127
11892,note_on,1,0,0,,7,,,67,127
11892,note_on,0,0,0,,12,,,71,127
12047,note_off,155,0,0,,12,,,71,127
12047,note_off,0,0,0,,7,,,67,127
12049,note_on,2,0,0,,10,,,69,127
12049,note_on,0,0,0,,12,,,71,127
12204,note_off,155,0,0,,10,,,69,127
12205,note_on,1,0,0,,7,,,67,127
12360,note_off,155,0,0,,7,,,67,127
12360,note_off,0,0,0,,12,,,71,127
12362,note_on,2,0,0,,5,,,65,127
12362,note_on,0,0,0,,0,,,72,127
12517,note_off,155,0,0,,5,,,65,127
12519,note_on,2,0,0,,4,,,64,127
12673,note_off,154,0,0,,0,,,72,127
12674,note_off,1,0,0,,4,,,64,127
12675,note_on,1,0,0,,2,,,62,127
12675,note_on,0,0,0,,0,,,84,127
12830,note_off,155,0,0,,0,,,84,127
12830,note_off,0,0,0,,2,,,62,127
12832,note_on,2,0,0,,4,,,64,127
12832,note_on,0,0,0,,4,,,76,127
12987,note_off,155,0,0,,4,,,76,127
12987,note_off,0,0,0,,4,,,64,127
12989,note_on,2,0,0,,5,,,65,127
12989,note_on,0,0,0,,4,,,76,127
13041,note_on,52,0,0,,2,,,74,127
13065,note_off,24,0,0,,4,,,76,127
13094,note_on,29,0,0,,4,,,76,127
13117,note_off,23,0,0,,2,,,74,127
13145,note_off,28,0,0,,5,,,65,127
13146,note_on,1,0,0,,4,,,64,127
13146,note_on,0,0,0,,2,,,74,127
13170,note_off,24,0,0,,4,,,76,127
13199,note_on,29,0,0,,4,,,76,127
13222,note_off,23,0,0,,2,,,74,127
13251,note_on,29,0,0,,2,,,74,127
13275,note_off,24,0,0,,4,,,76,127
13301,note_off,26,0,0,,4,,,64,127
13303,note_on,2,0,0,,5,,,65,127
13303,note_on,0,0,0,,4,,,76,127
13326,note_off,23,0,0,,2,,,74,127
13355,note_on,29,0,0,,2,,,74,127
13379,note_off,24,0,0,,4,,,76,127
13408,note_on,29,0,0,,4,,,76,127
13431,note_off,23,0,0,,2,,,74,127
13459,note_off,28,0,0,,5,,,65,127
13460,note_on,1,0,0,,7,,,67,127
13460,note_on,0,0,0,,2,,,74,127
13461,note_off,1,0,0,,4,,,76,127
13615,note_off,154,0,0,,2,,,74,127
13615,note_off,0,0,0,,7,,,67,127
13617,note_on,2,0,0,,5,,,65,127
13617,note_on,0,0,0,,7,,,79,127
13772,note_off,155,0,0,,7,,,79,127
13772,note_off,0,0,0,,5,,,65,127
13774,note_on,2,0,0,,7,,,67,127
13774,note_on,0,0,0,,12,,,71,127
13929,note_off,155,0,0,,12,,,71,127
13929,note_off,0,0,0,,7,,,67,127
13930,note_on,1,0,0,,10,,,69,127
13930,note_on,0,0,0,,12,,,71,127
14085,note_off,155,0,0,,10,,,69,127
14087,note_on,2,0,0,,7,,,67,127
14241,note_off,154,0,0,,12,,,71,127
14242,note_off,1,0,0,,7,,,67,127
14243,note_on,1,0,0,,5,,,65,127
14243,note_on,0,0,0,,0,,,72,127
14398,note_off,155,0,0,,5,,,65,127
14400,note_on,2,0,0,,7,,,67,127
14400,note_on,0,0,0,,4,,,64,127
14554,note_off,154,0,0,,0,,,72,127
14558,note_on,4,0,0,,7,,,79,127
14713,note_off,155,0,0,,7,,,79,127
14714,note_on,1,0,0,,7,,,79,127
14869,note_off,155,0,0,,7,,,79,127
14869,note_off,0,0,0,,4,,,64,127
14869,note_off,0,0,0,,7,,,67,127
14871,note_on,2,0,0,,5,,,65,127
14871,note_on,0,0,0,,10,,,69,127
14871,note_on,0,0,0,,7,,,79,127
14871,note_on,0,0,0,,10,,,81,127
15026,note_off,155,0,0,,10,,,81,127
15026,note_off,0,0,0,,7,,,79,127
15028,note_on,2,0,0,,5,,,77,127
15183,note_off,155,0,0,,5,,,77,127
15184,note_on,1,0,0,,5,,,77,127
15339,note_off,155,0,0,,5,,,77,127
15339,note_off,0,0,0,,10,,,69,127
15339,note_off,0,0,0,,5,,,65,127
15341,note_on,2,0,0,,7,,,67,127
15341,note_on,0,0,0,,0,,,60,127
15341,note_on,0,0,0,,5,,,77,127
15341,note_on,0,0,0,,7,,,79,127
15496,note_off,155,0,0,,7,,,79,127
15496,note_off,0,0,0,,5,,,77,127
15497,note_on,1,0,0,,4,,,76,127
15652,note_off,155,0,0,,4,,,76,127
15654,note_on,2,0,0,,4,,,76,127
15809,note_off,155,0,0,,4,,,76,127
15809,note_off,0,0,0,,0,,,60,127
15809,note_off,0,0,0,,7,,,67,127
15811,note_on,2,0,0,,2,,,62,127
15811,note_on,0,0,0,,5,,,65,127
15811,note_on,0,0,0,,4,,,76,127
15811,note_on,0,0,0,,5,,,77,127
15966,note_off,155,0,0,,5,,,77,127
15966,note_off,0,0,0,,4,,,76,127
15967,note_on,1,0,0,,2,,,74,127
16122,note_off,155,0,0,,2,,,74,127
16124,note_on,2,0,0,,2,,,74,127
16279,note_off,155,0,0,,2,,,74,127
16279,note_off,0,0,0,,5,,,65,127
16279,note_off,0,0,0,,2,,,62,127
16280,note_on,1,0,0,,4,,,64,127
16280,note_on,0,0,0,,7,,,67,127
16280,note_on,0,0,0,,2,,,74,127
16280,note_on,0,0,0,,4,,,76,127
16435,note_off,155,0,0,,4,,,76,127
16435,note_off,0,0,0,,2,,,74,127
16437,note_on,2,0,0,,0,,,72,127
16592,note_off,155,0,0,,0,,,72,127
16594,note_on,2,0,0,,0,,,72,127
16748,note_off,154,0,0,,7,,,67,127
16748,note_off,0,0,0,,4,,,64,127
16749,note_off,1,0,0,,0,,,72,127
16750,note_on,1,0,0,,5,,,65,127
16750,note_on,0,0,0,,0,,,72,127
16905,note_off,155,0,0,,0,,,72,127
16907,note_on,2,0,0,,10,,,81,127
17062,note_off,155,0,0,,10,,,81,127
17063,note_on,1,0,0,,5,,,53,127
17063,note_on,0,0,0,,7,,,79,127
17218,note_off,155,0,0,,7,,,79,127
17218,note_off,0,0,0,,5,,,53,127
17218,note_off,0,0,0,,5,,,65,127
17220,note_on,2,0,0,,7,,,55,127
17220,note_on,0,0,0,,2,,,74,127
17220,note_on,0,0,0,,5,,,77,127
17220,note_on,0,0,0,,7,,,79,127
17375,note_off,155,0,0,,7,,,79,127
17375,note_off,0,0,0,,5,,,77,127
17375,note_off,0,0,0,,2,,,74,127
17377,note_on,2,0,0,,4,,,76,127
17377,note_on,0,0,0,,0,,,72,127
17532,note_off,155,0,0,,0,,,72,127
17532,note_off,0,0,0,,4,,,76,127
17533,note_on,1,0,0,,7,,,43,127
17533,note_on,0,0,0,,12,,,71,127
17533,note_on,0,0,0,,2,,,74,127
17688,note_off,155,0,0,,2,,,74,127
17688,note_off,0,0,0,,12,,,71,127
17688,note_off,0,0,0,,7,,,43,127
17688,note_off,0,0,0,,7,,,55,127
17690,note_on,2,0,0,,0,,,72,127
17847,note_on,157,0,0,,0,,,60,127
18002,note_off,155,0,0,,0,,,60,127
18003,note_on,1,0,0,,2,,,62,127
18158,note_off,155,0,0,,2,,,62,127
18160,note_on,2,0,0,,4,,,64,127
18160,note_on,0,0,0,,7,,,67,127
18315,note_off,155,0,0,,0,,,72,127
18316,note_on,1,0,0,,7,,,79,127
18471,note_off,155,0,0,,7,,,79,127
18473,note_on,2,0,0,,7,,,79,127
18628,note_off,155,0,0,,7,,,79,127
18628,note_off,0,0,0,,7,,,67,127
18628,note_off,0,0,0,,4,,,64,127
18630,note_on,2,0,0,,5,,,65,127
18630,note_on,0,0,0,,10,,,69,127
18630,note_on,0,0,0,,7,,,79,127
18630,note_on,0,0,0,,10,,,81,127
18785,note_off,155,0,0,,10,,,81,127
18785,note_off,0,0,0,,7,,,79,127
18786,note_on,1,0,0,,5,,,77,127
18941,note_off,155,0,0,,5,,,77,127
18943,note_on,2,0,0,,5,,,77,127
19098,note_off,155,0,0,,5,,,77,127
19098,note_off,0,0,0,,10,,,69,127
19098,note_off,0,0,0,,5,,,65,127
19099,note_on,1,0,0,,0,,,60,127
19099,note_on,0,0,0,,7,,,67,127
19099,note_on,0,0,0,,5,,,77,127
19099,note_on,0,0,0,,7,,,79,127
19254,note_off,155,0,0,,7,,,79,127
19254,note_off,0,0,0,,5,,,77,127
19256,note_on,2,0,0,,4,,,76,127
19411,note_off,155,0,0,,4,,,76,127
19413,note_on,2,0,0,,4,,,76,127
19567,note_off,154,0,0,,7,,,67,127
19567,note_off,0,0,0,,0,,,60,127
19568,note_off,1,0,0,,4,,,76,127
19569,note_on,1,0,0,,2,,,62,127
19569,note_on,0,0,0,,5,,,65,127
19569,note_on,0,0,0,,4,,,76,127
19569,note_on,0,0,0,,5,,,77,127
19724,note_off,155,0,0,,5,,,77,127
19724,note_off,0,0,0,,4,,,76,127
19726,note_on,2,0,0,,2,,,74,127
19881,note_off,155,0,0,,2,,,74,127
19882,note_on,1,0,0,,2,,,74,127
20037,note_off,155,0,0,,2,,,74,127
20037,note_off,0,0,0,,5,,,65,127
20037,note_off,0,0,0,,2,,,62,127
20039,note_on,2,0,0,,4,,,64,127
20039,note_on,0,0,0,,7,,,67,127
20039,note_on,0,0,0,,2,,,74,127
20039,note_on,0,0,0,,4,,,76,127
20194,note_off,155,0,0,,4,,,76,127
20194,note_off,0,0,0,,2,,,74,127
20196,note_on,2,0,0,,0,,,72,127
20351,note_off,155,0,0,,0,,,72,127
20352,note_on,1,0,0,,0,,,72,127
20507,note_off,155,0,0,,0,,,72,127
20507,note_off,0,0,0,,7,,,67,127
20507,note_off,0,0,0,,4,,,64,127
20509,note_on,2,0,0,,5,,,65,127
20509,note_on,0,0,0,,0,,,72,127
20664,note_off,155,0,0,,0,,,72,127
20666,note_on,2,0,0,,10,,,81,127
20821,note_off,155,0,0,,10,,,81,127
20822,note_on,1,0,0,,5,,,53,127
20822,note_on,0,0,0,,7,,,79,127
20977,note_off,155,0,0,,7,,,79,127
20977,note_off,0,0,0,,5,,,53,127
20977,note_off,0,0,0,,5,,,65,127
20979,note_on,2,0,0,,7,,,55,127
20979,note_on,0,0,0,,2,,,74,127
20979,note_on,0,0,0,,5,,,77,127
20979,note_on,0,0,0,,7,,,79,127
21134,note_off,155,0,0,,7,,,79,127
21134,note_off,0,0,0,,5,,,77,127
21134,note_off,0,0,0,,2,,,74,127
21135,note_on,1,0,0,,0,,,72,127
21135,note_on,0,0,0,,4,,,76,127
21290,note_off,155,0,0,,4,,,76,127
21290,note_off,0,0,0,,0,,,72,127
21292,note_on,2,0,0,,7,,,43,127
21292,note_on,0,0,0,,12,,,71,127
21292,note_on,0,0,0,,2,,,74,127
21447,note_off,155,0,0,,2,,,74,127
21447,note_off,0,0,0,,12,,,71,127
21447,note_off,0,0,0,,7,,,43,127
21447,note_off,0,0,0,,7,,,55,127
21449,note_on,2,0,0,,0,,,48,127
21449,note_on,0,0,0,,0,,,72,127
21604,note_off,155,0,0,,0,,,48,127
21605,note_on,1,0,0,,2,,,50,127
21760,note_off,155,0,0,,2,,,50,127
21762,note_on,2,0,0,,4,,,52,127
21917,note_off,155,0,0,,4,,,52,127
21917,note_off,0,0,0,,0,,,72,127
21918,note_on,1,0,0,,5,,,53,127
21918,note_on,0,0,0,,0,,,84,127
22075,note_on,157,0,0,,0,,,72,127
22227,note_off,152,0,0,,0,,,84,127
22228,note_off,1,0,0,,5,,,53,127
22229,note_off,1,0,0,,0,,,72,127
22231,note_on,2,0,0,,7,,,55,127
22231,note_on,0,0,0,,12,,,71,127
22386,note_off,155,0,0,,12,,,71,127
22386,note_off,0,0,0,,7,,,55,127
22387,note_on,1,0,0,,0,,,48,127
22387,note_on,0,0,0,,0,,,72,127
22542,note_off,155,0,0,,0,,,48,127
22544,note_on,2,0,0,,2,,,50,127
22699,note_off,155,0,0,,2,,,50,127
22701,note_on,2,0,0,,4,,,52,127
22855,note_off,154,0,0,,0,,,72,127
22856,note_off,1,0,0,,4,,,52,127
22857,note_on,1,0,0,,5,,,53,127
22857,note_on,0,0,0,,0,,,84,127
23014,note_on,157,0,0,,0,,,72,127
23166,note_off,152,0,0,,0,,,84,127
23167,note_off,1,0,0,,5,,,53,127
23168,note_off,1,0,0,,0,,,72,127
23169,note_on,1,0,0,,7,,,55,127
23169,note_on,0,0,0,,12,,,71,127
23324,note_off,155,0,0,,12,,,71,127
23324,note_off,0,0,0,,7,,,55,127
23326,note_on,2,0,0,,4,,,52,127
23326,note_on,0,0,0,,0,,,72,127
23483,note_on,157,0,0,,7,,,79,127
23560,note_off,77,0,0,,0,,,72,127
23637,note_off,77,0,0,,4,,,52,127
23638,note_off,1,0,0,,7,,,79,127
23639,note_on,1,0,0,,10,,,57,127
23639,note_on,0,0,0,,0,,,72,127
23794,note_off,155,0,0,,0,,,72,127
23794,note_off,0,0,0,,10,,,57,127
23796,note_on,2,0,0,,5,,,53,127
23796,note_on,0,0,0,,2,,,74,127
23796,note_on,0,0,0,,4,,,76,127
23951,note_off,155,0,0,,4,,,76,127
23951,note_off,0,0,0,,2,,,74,127
23952,note_on,1,0,0,,0,,,72,127
24107,note_off,155,0,0,,0,,,72,127
24107,note_off,0,0,0,,5,,,53,127
24109,note_on,2,0,0,,7,,,55,127
24109,note_on,0,0,0,,12,,,71,127
24264,note_off,155,0,0,,12,,,71,127
24264,note_off,0,0,0,,7,,,55,127
24266,note_on,2,0,0,,0,,,72,127
24266,note_on,0,0,0,,0,,,60,127
24469,note_off,203,0,0,,0,,,60,127
24469,note_off,0,0,0,,0,,,72,127
24495,note_on,26,0,0,,4,,,76,127
24495,note_on,0,0,0,,4,,,64,127
24607,note_off,112,0,0,,4,,,64,127
24607,note_off,0,0,0,,4,,,76,127
24611,note_on,4,0,0,,2,,,74,127
24611,note_on,0,0,0,,2,,,62,127
24723,note_off,112,0,0,,2,,,62,127
24723,note_off,0,0,0,,2,,,74,127
24727,note_on,4,0,0,,0,,,72,127
24727,note_on,0,0,0,,0,,,60,127
24954,note_off,227,0,0,,0,,,60,127
24954,note_off,0,0,0,,0,,,72,127
24958,note_on,4,0,0,,0,,,72,127
24958,note_on,0,0,0,,0,,,60,127
25070,note_off,112,0,0,,0,,,60,127
25070,note_off,0,0,0,,0,,,72,127
25074,note_on,4,0,0,,12,,,71,127
25074,note_on,0,0,0,,12,,,59,127
25186,note_off,112,0,0,,12,,,59,127
25186,note_off,0,0,0,,12,,,71,127
25190,note_on,4,0,0,,10,,,69,127
25190,note_on,0,0,0,,10,,,57,127
25417,note_off,227,0,0,,10,,,57,127
25417,note_off,0,0,0,,10,,,69,127
25421,note_on,4,0,0,,10,,,69,127
25421,note_on,0,0,0,,10,,,57,127
25533,note_off,112,0,0,,10,,,57,127
25533,note_off,0,0,0,,10,,,69,127
25537,note_on,4,0,0,,7,,,67,127
25537,note_on,0,0,0,,7,,,55,127
25649,note_off,112,0,0,,7,,,55,127
25649,note_off,0,0,0,,7,,,67,127
25653,note_on,4,0,0,,7,,,67,127
25653,note_on,0,0,0,,7,,,55,127
25707,note_off,54,0,0,,7,,,55,127
25707,note_off,0,0,0,,7,,,67,127
25712,note_on,5,0,0,,5,,,65,127
25712,note_on,0,0,0,,5,,,53,127
25766,note_off,54,0,0,,5,,,53,127
25766,note_off,0,0,0,,5,,,65,127
25768,note_on,2,0,0,,7,,,67,127
25768,note_on,0,0,0,,7,,,55,127
25822,note_off,54,0,0,,7,,,55,127
25822,note_off,0,0,0,,7,,,67,127
25827,note_on,5,0,0,,5,,,65,127
25827,note_on,0,0,0,,5,,,53,127
25881,note_off,54,0,0,,5,,,53,127
25881,note_off,0,0,0,,5,,,65,127
25883,note_on,2,0,0,,7,,,67,127
25883,note_on,0,0,0,,7,,,55,127
25937,note_off,54,0,0,,7,,,55,127
25937,note_off,0,0,0,,7,,,67,127
25941,note_on,4,0,0,,5,,,65,127
25941,note_on,0,0,0,,5,,,53,127
25995,note_off,54,0,0,,5,,,53,127
25995,note_off,0,0,0,,5,,,65,127
25999,note_on,4,0,0,,7,,,67,127
25999,note_on,0,0,0,,7,,,55,127
26053,note_off,54,0,0,,7,,,55,127
26053,note_off,0,0,0,,7,,,67,127
26057,note_on,4,0,0,,5,,,65,127
26057,note_on,0,0,0,,5,,,53,127
26111,note_off,54,0,0,,5,,,53,127
26111,note_off,0,0,0,,5,,,65,127
26115,note_on,4,0,0,,4,,,64,127
26115,note_on,0,0,0,,4,,,52,127
26342,note_off,227,0,0,,4,,,52,127
26342,note_off,0,0,0,,4,,,64,127
26347,note_on,5,0,0,,6,,,66,127
26347,note_on,0,0,0,,2,,,50,127
26459,note_off,112,0,0,,6,,,66,127
26461,note_on,2,0,0,,8,,,68,127
26573,note_off,112,0,0,,8,,,68,127
26574,note_off,1,0,0,,2,,,50,127
26576,note_on,2,0,0,,10,,,69,127
26576,note_on,0,0,0,,0,,,48,127
26803,note_off,227,0,0,,0,,,48,127
26803,note_off,0,0,0,,10,,,69,127
26807,note_on,4,0,0,,12,,,71,127
26807,note_on,0,0,0,,0,,,48,127
26919,note_off,112,0,0,,12,,,71,127
26923,note_on,4,0,0,,0,,,72,127
27035,note_off,112,0,0,,0,,,72,127
27035,note_off,0,0,0,,0,,,48,127
27039,note_on,4,0,0,,2,,,74,127
27039,note_on,0,0,0,,12,,,47,127
27266,note_off,227,0,0,,12,,,47,127
27266,note_off,0,0,0,,2,,,74,127
27271,note_on,5,0,0,,0,,,72,127
27271,note_on,0,0,0,,12,,,47,127
27383,note_off,112,0,0,,0,,,72,127
27385,note_on,2,0,0,,12,,,71,127
27497,note_off,112,0,0,,12,,,71,127
27498,note_off,1,0,0,,12,,,47,127
27500,note_on,2,0,0,,12,,,71,127
27500,note_on,0,0,0,,0,,,48,127
27554,note_off,54,0,0,,12,,,71,127
27558,note_on,4,0,0,,10,,,69,127
27612,note_off,54,0,0,,10,,,69,127
27616,note_on,4,0,0,,12,,,71,127
27670,note_off,54,0,0,,12,,,71,127
27675,note_on,5,0,0,,10,,,69,127
27728,note_off,53,0,0,,0,,,48,127
27729,note_off,1,0,0,,10,,,69,127
27731,note_on,2,0,0,,8,,,68,127
27731,note_on,0,0,0,,10,,,45,127
27843,note_off,112,0,0,,8,,,68,127
27847,note_on,4,0,0,,10,,,69,127
27959,note_off,112,0,0,,10,,,69,127
27959,note_off,0,0,0,,10,,,45,127
27963,note_on,4,0,0,,12,,,71,127
27963,note_on,0,0,0,,4,,,40,127
28190,note_off,227,0,0,,4,,,40,127
28190,note_off,0,0,0,,12,,,71,127
28195,note_on,5,0,0,,4,,,76,127
28195,note_on,0,0,0,,4,,,64,127
28307,note_off,112,0,0,,4,,,64,127
28307,note_off,0,0,0,,4,,,76,127
28309,note_on,2,0,0,,2,,,74,127
28309,note_on,0,0,0,,2,,,62,127
28421,note_off,112,0,0,,2,,,62,127
28421,note_off,0,0,0,,2,,,74,127
28425,note_on,4,0,0,,0,,,72,127
28425,note_on,0,0,0,,0,,,60,127
28652,note_off,227,0,0,,0,,,60,127
28652,note_off,0,0,0,,0,,,72,127
28656,note_on,4,0,0,,0,,,72,127
28656,note_on,0,0,0,,0,,,60,127
28768,note_off,112,0,0,,0,,,60,127
28768,note_off,0,0,0,,0,,,72,127
28772,note_on,4,0,0,,12,,,71,127
28772,note_on,0,0,0,,12,,,59,127
28884,note_off,112,0,0,,12,,,59,127
28884,note_off,0,0,0,,12,,,71,127
28888,note_on,4,0,0,,10,,,69,127
28888,note_on,0,0,0,,10,,,57,127
29115,note_off,227,0,0,,10,,,57,127
29115,note_off,0,0,0,,10,,,69,127
29120,note_on,5,0,0,,10,,,69,127
29120,note_on,0,0,0,,10,,,57,127
29232,note_off,112,0,0,,10,,,57,127
29232,note_off,0,0,0,,10,,,69,127
29236,note_on,4,0,0,,7,,,67,127
29236,note_on,0,0,0,,7,,,55,127
29348,note_off,112,0,0,,7,,,55,127
29348,note_off,0,0,0,,7,,,67,127
29350,note_on,2,0,0,,7,,,67,127
29350,note_on,0,0,0,,7,,,55,127
29404,note_off,54,0,0,,7,,,55,127
29404,note_off,0,0,0,,7,,,67,127
29408,note_on,4,0,0,,5,,,65,127
29408,note_on,0,0,0,,5,,,53,127
29462,note_off,54,0,0,,5,,,53,127
29462,note_off,0,0,0,,5,,,65,127
29466,note_on,4,0,0,,7,,,67,127
29466,note_on,0,0,0,,7,,,55,127
29520,note_off,54,0,0,,7,,,55,127
29520,note_off,0,0,0,,7,,,67,127
29524,note_on,4,0,0,,5,,,65,127
29524,note_on,0,0,0,,5,,,53,127
29578,note_off,54,0,0,,5,,,53,127
29578,note_off,0,0,0,,5,,,65,127
29582,note_on,4,0,0,,7,,,67,127
29582,note_on,0,0,0,,7,,,55,127
29636,note_off,54,0,0,,7,,,55,127
29636,note_off,0,0,0,,7,,,67,127
29641,note_on,5,0,0,,5,,,65,127
29641,note_on,0,0,0,,5,,,53,127
29695,note_off,54,0,0,,5,,,53,127
29695,note_off,0,0,0,,5,,,65,127
29697,note_on,2,0,0,,7,,,67,127
29697,note_on,0,0,0,,7,,,55,127
29751,note_off,54,0,0,,7,,,55,127
29751,note_off,0,0,0,,7,,,67,127
29755,note_on,4,0,0,,5,,,65,127
29755,note_on,0,0,0,,5,,,53,127
29809,note_off,54,0,0,,5,,,53,127
29809,note_off,0,0,0,,5,,,65,127
29813,note_on,4,0,0,,4,,,64,127
29813,note_on,0,0,0,,4,,,52,127
30040,note_off,227,0,0,,4,,,52,127
30040,note_off,0,0,0,,4,,,64,127
30045,note_on,5,0,0,,6,,,66,127
30045,note_on,0,0,0,,2,,,50,127
30157,note_off,112,0,0,,6,,,66,127
30161,note_on,4,0,0,,8,,,68,127
30273,note_off,112,0,0,,8,,,68,127
30273,note_off,0,0,0,,2,,,50,127
30275,note_on,2,0,0,,10,,,69,127
30275,note_on,0,0,0,,0,,,48,127
30502,note_off,227,0,0,,0,,,48,127
30502,note_off,0,0,0,,10,,,69,127
30506,note_on,4,0,0,,12,,,71,127
30506,note_on,0,0,0,,0,,,48,127
30618,note_off,112,0,0,,12,,,71,127
30622,note_on,4,0,0,,0,,,72,127
30734,note_off,112,0,0,,0,,,72,127
30734,note_off,0,0,0,,0,,,48,127
30738,note_on,4,0,0,,2,,,74,127
30738,note_on,0,0,0,,8,,,68,127
30738,note_on,0,0,0,,12,,,47,127
30965,note_off,227,0,0,,12,,,47,127
30965,note_off,0,0,0,,8,,,68,127
30965,note_off,0,0,0,,2,,,74,127
30969,note_on,4,0,0,,0,,,72,127
30969,note_on,0,0,0,,10,,,69,127
30969,note_on,0,0,0,,10,,,45,127
31081,note_off,112,0,0,,0,,,72,127
31086,note_on,5,0,0,,12,,,71,127
31196,note_off,110,0,0,,10,,,45,127
31197,note_off,1,0,0,,12,,,71,127
31199,note_on,2,0,0,,0,,,72,127
31199,note_on,0,0,0,,4,,,52,127
31423,note_off,224,0,0,,10,,,69,127
31425,note_off,2,0,0,,0,,,72,127
31429,note_on,4,0,0,,8,,,68,127
31429,note_on,0,0,0,,12,,,71,127
31429,note_on,0,0,0,,4,,,40,127
31653,note_off,224,0,0,,4,,,52,127
31655,note_off,2,0,0,,4,,,40,127
31655,note_off,0,0,0,,12,,,71,127
31655,note_off,0,0,0,,8,,,68,127
31659,note_on,4,0,0,,10,,,45,127
31659,note_on,0,0,0,,10,,,69,127
31815,note_on,156,0,0,,10,,,57,127
31853,note_off,38,0,0,,10,,,45,127
31968,note_off,115,0,0,,10,,,57,127
31972,note_on,4,0,0,,12,,,59,127
32126,note_off,154,0,0,,12,,,59,127
32128,note_on,2,0,0,,0,,,60,127
32128,note_on,0,0,0,,10,,,81,127
32282,note_off,154,0,0,,0,,,60,127
32287,note_on,5,0,0,,12,,,59,127
32441,note_off,154,0,0,,12,,,59,127
32443,note_on,2,0,0,,10,,,57,127
32597,note_off,154,0,0,,10,,,57,127
32597,note_off,0,0,0,,10,,,69,127
32599,note_on,2,0,0,,12,,,47,127
32599,note_on,0,0,0,,10,,,69,127
32753,note_off,154,0,0,,12,,,47,127
32757,note_on,4,0,0,,12,,,59,127
32911,note_off,154,0,0,,12,,,59,127
32913,note_on,2,0,0,,1,,,61,127
33067,note_off,154,0,0,,1,,,61,127
33067,note_off,0,0,0,,10,,,81,127
33071,note_on,4,0,0,,3,,,63,127
33071,note_on,0,0,0,,10,,,81,127
33225,note_off,154,0,0,,3,,,63,127
33229,note_on,4,0,0,,1,,,61,127
33383,note_off,154,0,0,,1,,,61,127
33385,note_on,2,0,0,,12,,,59,127
33539,note_off,154,0,0,,12,,,59,127
33539,note_off,0,0,0,,10,,,81,127
33539,note_off,0,0,0,,10,,,69,127
33544,note_on,5,0,0,,4,,,52,127
33544,note_on,0,0,0,,10,,,81,127
33544,note_on,0,0,0,,7,,,79,127
33698,note_off,154,0,0,,4,,,52,127
33699,note_on,1,0,0,,4,,,64,127
33853,note_off,154,0,0,,4,,,64,127
33854,note_off,1,0,0,,7,,,79,127
33854,note_off,0,0,0,,10,,,81,127
33856,note_on,2,0,0,,6,,,66,127
33856,note_on,0,0,0,,6,,,78,127
34010,note_off,154,0,0,,6,,,78,127
34010,note_off,0,0,0,,6,,,66,127
34014,note_on,4,0,0,,7,,,67,127
34014,note_on,0,0,0,,4,,,76,127
34168,note_off,154,0,0,,4,,,76,127
34168,note_off,0,0,0,,7,,,67,127
34170,note_on,2,0,0,,6,,,66,127
34170,note_on,0,0,0,,6,,,78,127
34324,note_off,154,0,0,,6,,,78,127
34324,note_off,0,0,0,,6,,,66,127
34329,note_on,5,0,0,,4,,,64,127
34329,note_on,0,0,0,,7,,,79,127
34483,note_off,154,0,0,,7,,,79,127
34483,note_off,0,0,0,,4,,,64,127
34485,note_on,2,0,0,,10,,,69,127
34485,note_on,0,0,0,,0,,,72,127
34485,note_on,0,0,0,,7,,,79,127
34485,note_on,0,0,0,,10,,,81,127
34639,note_off,154,0,0,,10,,,81,127
34639,note_off,0,0,0,,7,,,79,127
34641,note_on,2,0,0,,6,,,78,127
34795,note_off,154,0,0,,6,,,78,127
34799,note_on,4,0,0,,6,,,78,127
34953,note_off,154,0,0,,6,,,78,127
34953,note_off,0,0,0,,0,,,72,127
34953,note_off,0,0,0,,10,,,69,127
34955,note_on,2,0,0,,7,,,67,127
34955,note_on,0,0,0,,12,,,71,127
34955,note_on,0,0,0,,6,,,78,127
34955,note_on,0,0,0,,7,,,79,127
35109,note_off,154,0,0,,7,,,79,127
35109,note_off,0,0,0,,6,,,78,127
35113,note_on,4,0,0,,4,,,76,127
35267,note_off,154,0,0,,4,,,76,127
35271,note_on,4,0,0,,4,,,76,127
35423,note_off,152,0,0,,12,,,71,127
35423,note_off,0,0,0,,7,,,67,127
35424,note_off,1,0,0,,4,,,76,127
35426,note_on,2,0,0,,6,,,66,127
35426,note_on,0,0,0,,10,,,69,127
35426,note_on,0,0,0,,4,,,76,127
35426,note_on,0,0,0,,6,,,78,127
35580,note_off,154,0,0,,6,,,78,127
35580,note_off,0,0,0,,4,,,76,127
35584,note_on,4,0,0,,3,,,75,127
35738,note_off,154,0,0,,3,,,75,127
35740,note_on,2,0,0,,3,,,75,127
35894,note_off,154,0,0,,10,,,69,127
35894,note_off,0,0,0,,6,,,66,127
35898,note_on,4,0,0,,12,,,71,127
35898,note_on,0,0,0,,7,,,67,127
35974,note_off,76,0,0,,3,,,75,127
36056,note_on,82,0,0,,12,,,83,127
36210,note_off,154,0,0,,12,,,83,127
36212,note_on,2,0,0,,12,,,83,127
36366,note_off,154,0,0,,12,,,83,127
36366,note_off,0,0,0,,7,,,67,127
36366,note_off,0,0,0,,12,,,71,127
36371,note_on,5,0,0,,0,,,60,127
36371,note_on,0,0,0,,4,,,64,127
36371,note_on,0,0,0,,12,,,83,127
36371,note_on,0,0,0,,0,,,84,127
36525,note_off,154,0,0,,0,,,84,127
36525,note_off,0,0,0,,12,,,83,127
36526,note_on,1,0,0,,10,,,81,127
36680,note_off,154,0,0,,10,,,81,127
36684,note_on,4,0,0,,10,,,81,127
36838,note_off,154,0,0,,10,,,81,127
36839,note_off,1,0,0,,4,,,64,127
36839,note_off,0,0,0,,0,,,60,127
36841,note_on,2,0,0,,12,,,59,127
36841,note_on,0,0,0,,2,,,62,127
36841,note_on,0,0,0,,10,,,81,127
36841,note_on,0,0,0,,12,,,83,127
36995,note_off,154,0,0,,12,,,83,127
36995,note_off,0,0,0,,10,,,81,127
36997,note_on,2,0,0,,7,,,79,127
37151,note_off,154,0,0,,7,,,79,127
37156,note_on,5,0,0,,7,,,79,127
37308,note_off,152,0,0,,2,,,62,127
37308,note_off,0,0,0,,12,,,59,127
37309,note_off,1,0,0,,7,,,79,127
37311,note_on,2,0,0,,10,,,57,127
37311,note_on,0,0,0,,0,,,60,127
37311,note_on,0,0,0,,7,,,79,127
37311,note_on,0,0,0,,10,,,81,127
37465,note_off,154,0,0,,10,,,81,127
37465,note_off,0,0,0,,7,,,79,127
37467,note_on,2,0,0,,6,,,78,127
37621,note_off,154,0,0,,6,,,78,127
37625,note_on,4,0,0,,6,,,78,127
37779,note_off,154,0,0,,6,,,78,127
37779,note_off,0,0,0,,0,,,60,127
37779,note_off,0,0,0,,10,,,57,127
37781,note_on,2,0,0,,7,,,55,127
37781,note_on,0,0,0,,12,,,59,127
37781,note_on,0,0,0,,6,,,78,127
37781,note_on,0,0,0,,7,,,79,127
37935,note_off,154,0,0,,7,,,79,127
37935,note_off,0,0,0,,6,,,78,127
37939,note_on,4,0,0,,4,,,76,127
38093,note_off,154,0,0,,4,,,76,127
38097,note_on,4,0,0,,4,,,76,127
38249,note_off,152,0,0,,12,,,59,127
38249,note_off,0,0,0,,7,,,55,127
38250,note_off,1,0,0,,4,,,76,127
38252,note_on,2,0,0,,6,,,54,127
38252,note_on,0,0,0,,10,,,57,127
38252,note_on,0,0,0,,4,,,76,127
38252,note_on,0,0,0,,6,,,78,127
38406,note_off,154,0,0,,6,,,78,127
38406,note_off,0,0,0,,4,,,76,127
38410,note_on,4,0,0,,2,,,74,127
38564,note_off,154,0,0,,2,,,74,127
38566,note_on,2,0,0,,2,,,74,127
38720,note_off,154,0,0,,2,,,74,127
38720,note_off,0,0,0,,10,,,57,127
38720,note_off,0,0,0,,6,,,54,127
38724,note_on,4,0,0,,4,,,52,127
38724,note_on,0,0,0,,10,,,57,127
38724,note_on,0,0,0,,2,,,74,127
38724,note_on,0,0,0,,0,,,72,127
38878,note_off,154,0,0,,0,,,72,127
38878,note_off,0,0,0,,2,,,74,127
38882,note_on,4,0,0,,12,,,71,127
39036,note_off,154,0,0,,12,,,71,127
39038,note_on,2,0,0,,0,,,72,127
39192,note_off,154,0,0,,0,,,72,127
39192,note_off,0,0,0,,4,,,52,127
39197,note_on,5,0,0,,3,,,51,127
39197,note_on,0,0,0,,12,,,71,127
39348,note_off,151,0,0,,10,,,57,127
39353,note_on,5,0,0,,7,,,55,127
39507,note_off,154,0,0,,7,,,55,127
39509,note_on,2,0,0,,6,,,54,127
39663,note_off,154,0,0,,6,,,54,127
39663,note_off,0,0,0,,3,,,51,127
39667,note_on,4,0,0,,4,,,52,127
39667,note_on,0,0,0,,7,,,55,127
39822,note_off,155,0,0,,12,,,71,127
39823,note_on,1,0,0,,7,,,79,127
39977,note_off,154,0,0,,7,,,79,127
39982,note_on,5,0,0,,4,,,76,127
40134,note_off,152,0,0,,7,,,55,127
40134,note_off,0,0,0,,4,,,52,127
40135,note_off,1,0,0,,4,,,76,127
40137,note_on,2,0,0,,3,,,51,127
40137,note_on,0,0,0,,10,,,57,127
40137,note_on,0,0,0,,12,,,71,127
40291,note_off,154,0,0,,10,,,57,127
40293,note_on,2,0,0,,7,,,55,127
40447,note_off,154,0,0,,7,,,55,127
40451,note_on,4,0,0,,6,,,54,127
40603,note_off,152,0,0,,3,,,51,127
40604,note_off,1,0,0,,6,,,54,127
40606,note_on,2,0,0,,7,,,55,127
40606,note_on,0,0,0,,4,,,52,127
40761,note_off,155,0,0,,12,,,71,127
40763,note_on,2,0,0,,7,,,79,127
40917,note_off,154,0,0,,7,,,79,127
40921,note_on,4,0,0,,4,,,76,127
41073,note_off,152,0,0,,4,,,52,127
41073,note_off,0,0,0,,7,,,55,127
41074,note_off,1,0,0,,4,,,76,127
41076,note_on,2,0,0,,3,,,51,127
41076,note_on,0,0,0,,10,,,57,127
41076,note_on,0,0,0,,12,,,71,127
41230,note_off,154,0,0,,10,,,57,127
41235,note_on,5,0,0,,7,,,55,127
41389,note_off,154,0,0,,7,,,55,127
41390,note_on,1,0,0,,6,,,54,127
41542,note_off,152,0,0,,3,,,51,127
41543,note_off,1,0,0,,6,,,54,127
41547,note_on,4,0,0,,7,,,55,127
41547,note_on,0,0,0,,4,,,52,127
41701,note_off,154,0,0,,12,,,71,127
41705,note_on,4,0,0,,12,,,83,127
41859,note_off,154,0,0,,12,,,83,127
41861,note_on,2,0,0,,7,,,79,127
42015,note_off,154,0,0,,7,,,79,127
42015,note_off,0,0,0,,4,,,52,127
42015,note_off,0,0,0,,7,,,55,127
42020,note_on,5,0,0,,10,,,45,127
42020,note_on,0,0,0,,10,,,57,127
42020,note_on,0,0,0,,6,,,78,127
42174,note_off,154,0,0,,6,,,78,127
42176,note_on,2,0,0,,0,,,84,127
42330,note_off,154,0,0,,0,,,84,127
42332,note_on,2,0,0,,10,,,81,127
42487,note_off,155,0,0,,10,,,57,127
42487,note_off,0,0,0,,10,,,45,127
42489,note_on,2,0,0,,12,,,47,127
42489,note_on,0,0,0,,12,,,59,127
42641,note_off,152,0,0,,10,,,81,127
42645,note_on,4,0,0,,6,,,78,127
42799,note_off,154,0,0,,6,,,78,127
42803,note_on,4,0,0,,3,,,75,127
42957,note_off,154,0,0,,3,,,75,127
42957,note_off,0,0,0,,12,,,59,127
42957,note_off,0,0,0,,12,,,47,127
42961,note_on,4,0,0,,4,,,52,127
42961,note_on,0,0,0,,4,,,76,127
43115,note_off,154,0,0,,4,,,52,127
43117,note_on,2,0,0,,4,,,64,127
43271,note_off,154,0,0,,4,,,64,127
43275,note_on,4,0,0,,2,,,62,127
43429,note_off,154,0,0,,2,,,62,127
43431,note_on,2,0,0,,0,,,60,127
43431,note_on,0,0,0,,4,,,64,127
43586,note_off,155,0,0,,4,,,76,127
43588,note_on,2,0,0,,4,,,76,127
43742,note_off,154,0,0,,4,,,76,127
43746,note_on,4,0,0,,4,,,76,127
43898,note_off,152,0,0,,4,,,64,127
43898,note_off,0,0,0,,0,,,60,127
43899,note_off,1,0,0,,4,,,76,127
43901,note_on,2,0,0,,8,,,56,127
43901,note_on,0,0,0,,4,,,64,127
43901,note_on,0,0,0,,4,,,76,127
43901,note_on,0,0,0,,5,,,77,127
44055,note_off,154,0,0,,5,,,77,127
44055,note_off,0,0,0,,4,,,76,127
44060,note_on,5,0,0,,2,,,74,127
44214,note_off,154,0,0,,2,,,74,127
44215,note_on,1,0,0,,2,,,74,127
44369,note_off,154,0,0,,2,,,74,127
44369,note_off,0,0,0,,4,,,64,127
44369,note_off,0,0,0,,8,,,56,127
44373,note_on,4,0,0,,10,,,57,127
44373,note_on,0,0,0,,4,,,64,127
44373,note_on,0,0,0,,2,,,74,127
44373,note_on,0,0,0,,4,,,76,127
44527,note_off,154,0,0,,4,,,76,127
44527,note_off,0,0,0,,2,,,74,127
44531,note_on,4,0,0,,0,,,72,127
44685,note_off,154,0,0,,0,,,72,127
44687,note_on,2,0,0,,0,,,72,127
44841,note_off,154,0,0,,0,,,72,127
44841,note_off,0,0,0,,4,,,64,127
44841,note_off,0,0,0,,10,,,57,127
44846,note_on,5,0,0,,4,,,52,127
44846,note_on,0,0,0,,0,,,72,127
44846,note_on,0,0,0,,2,,,74,127
45000,note_off,154,0,0,,2,,,74,127
45000,note_off,0,0,0,,0,,,72,127
45000,note_off,0,0,0,,4,,,52,127
45002,note_on,2,0,0,,4,,,64,127
45002,note_on,0,0,0,,12,,,71,127
45156,note_off,154,0,0,,12,,,71,127
45156,note_off,0,0,0,,4,,,64,127
45158,note_on,2,0,0,,2,,,62,127
45158,note_on,0,0,0,,12,,,71,127
45312,note_off,154,0,0,,2,,,62,127
45316,note_on,4,0,0,,0,,,60,127
45316,note_on,0,0,0,,4,,,64,127
45392,note_off,76,0,0,,12,,,71,127
45472,note_on,80,0,0,,4,,,76,127
45626,note_off,154,0,0,,4,,,76,127
45630,note_on,4,0,0,,10,,,69,127
45784,note_off,154,0,0,,10,,,69,127
45784,note_off,0,0,0,,4,,,64,127
45784,note_off,0,0,0,,0,,,60,127
45788,note_on,4,0,0,,12,,,59,127
45788,note_on,0,0,0,,2,,,62,127
45788,note_on,0,0,0,,10,,,69,127
45788,note_on,0,0,0,,12,,,71,127
45942,note_off,154,0,0,,12,,,71,127
45942,note_off,0,0,0,,10,,,69,127
45944,note_on,2,0,0,,8,,,68,127
46098,note_off,154,0,0,,8,,,68,127
46102,note_on,4,0,0,,8,,,68,127
46256,note_off,154,0,0,,8,,,68,127
46256,note_off,0,0,0,,2,,,62,127
46256,note_off,0,0,0,,12,,,59,127
46258,note_on,2,0,0,,0,,,60,127
46258,note_on,0,0,0,,10,,,69,127
46412,note_off,154,0,0,,10,,,69,127
46412,note_off,0,0,0,,0,,,60,127
46416,note_on,4,0,0,,12,,,59,127
46416,note_on,0,0,0,,12,,,71,127
46570,note_off,154,0,0,,12,,,71,127
46570,note_off,0,0,0,,12,,,59,127
46574,note_on,4,0,0,,10,,,57,127
46574,note_on,0,0,0,,0,,,72,127
46728,note_off,154,0,0,,0,,,72,127
46728,note_off,0,0,0,,10,,,57,127
46730,note_on,2,0,0,,4,,,52,127
46730,note_on,0,0,0,,2,,,74,127
46804,note_off,74,0,0,,2,,,74,127
46809,note_on,5,0,0,,0,,,72,127
46883,note_off,74,0,0,,0,,,72,127
46888,note_on,5,0,0,,4,,,64,127
46888,note_on,0,0,0,,12,,,71,127
46962,note_off,74,0,0,,4,,,52,127
47041,note_off,79,0,0,,4,,,64,127
47043,note_on,2,0,0,,2,,,62,127
47197,note_off,154,0,0,,2,,,62,127
47199,note_on,2,0,0,,0,,,60,127
47199,note_on,0,0,0,,4,,,64,127
47277,note_off,78,0,0,,12,,,71,127
47356,note_on,79,0,0,,4,,,76,127
47510,note_off,154,0,0,,4,,,76,127
47512,note_on,2,0,0,,4,,,76,127
47666,note_off,154,0,0,,4,,,76,127
47666,note_off,0,0,0,,4,,,64,127
47666,note_off,0,0,0,,0,,,60,127
47671,note_on,5,0,0,,0,,,60,127
47671,note_on,0,0,0,,2,,,62,127
47671,note_on,0,0,0,,6,,,78,127
47825,note_off,154,0,0,,6,,,78,127
47827,note_on,2,0,0,,2,,,74,127
47981,note_off,154,0,0,,2,,,74,127
47981,note_off,0,0,0,,0,,,60,127
47983,note_on,2,0,0,,12,,,59,127
47983,note_on,0,0,0,,7,,,79,127
48137,note_off,154,0,0,,7,,,79,127
48137,note_off,0,0,0,,12,,,59,127
48139,note_off,2,0,0,,2,,,62,127
48140,note_on,1,0,0,,10,,,57,127
48140,note_on,0,0,0,,0,,,60,127
48140,note_on,0,0,0,,2,,,74,127
48214,note_off,74,0,0,,2,,,74,127
48218,note_on,4,0,0,,0,,,72,127
48292,note_off,74,0,0,,0,,,72,127
48296,note_on,4,0,0,,12,,,71,127
48450,note_off,154,0,0,,12,,,71,127
48450,note_off,0,0,0,,10,,,57,127
48454,note_on,4,0,0,,2,,,50,127
48454,note_on,0,0,0,,0,,,72,127
48606,note_off,152,0,0,,0,,,60,127
48607,note_off,1,0,0,,0,,,72,127
48607,note_off,0,0,0,,2,,,50,127
48611,note_on,4,0,0,,7,,,55,127
48611,note_on,0,0,0,,12,,,59,127
48611,note_on,0,0,0,,12,,,71,127
48765,note_off,154,0,0,,12,,,71,127
48767,note_on,2,0,0,,7,,,79,127
48921,note_off,154,0,0,,7,,,79,127
48926,note_on,5,0,0,,2,,,74,127
49078,note_off,152,0,0,,12,,,59,127
49078,note_off,0,0,0,,7,,,55,127
49079,note_off,1,0,0,,2,,,74,127
49080,note_on,1,0,0,,10,,,57,127
49080,note_on,0,0,0,,0,,,60,127
49080,note_on,0,0,0,,2,,,74,127
49154,note_off,74,0,0,,2,,,74,127
49159,note_on,5,0,0,,0,,,72,127
49233,note_off,74,0,0,,0,,,72,127
49237,note_on,4,0,0,,12,,,71,127
49389,note_off,152,0,0,,10,,,57,127
49390,note_off,1,0,0,,12,,,71,127
49394,note_on,4,0,0,,2,,,50,127
49394,note_on,0,0,0,,0,,,72,127
49545,note_off,151,0,0,,0,,,60,127
49547,note_off,2,0,0,,0,,,72,127
49547,note_off,0,0,0,,2,,,50,127
49549,note_on,2,0,0,,7,,,55,127
49549,note_on,0,0,0,,12,,,71,127
49707,note_on,158,0,0,,7,,,67,127
49781,note_off,74,0,0,,7,,,55,127
49860,note_off,79,0,0,,7,,,67,127
49862,note_on,2,0,0,,6,,,66,127
50016,note_off,154,0,0,,6,,,66,127
50018,note_on,2,0,0,,4,,,64,127
50018,note_on,0,0,0,,7,,,67,127
50172,note_off,154,0,0,,12,,,71,127
50176,note_on,4,0,0,,7,,,79,127
50330,note_off,154,0,0,,7,,,79,127
50332,note_on,2,0,0,,7,,,79,127
50486,note_off,154,0,0,,7,,,79,127
50486,note_off,0,0,0,,7,,,67,127
50486,note_off,0,0,0,,4,,,64,127
50490,note_on,4,0,0,,10,,,57,127
50490,note_on,0,0,0,,10,,,69,127
50490,note_on,0,0,0,,7,,,79,127
50490,note_on,0,0,0,,10,,,81,127
50644,note_off,154,0,0,,10,,,81,127
50644,note_off,0,0,0,,7,,,79,127
50648,note_on,4,0,0,,6,,,78,127
50802,note_off,154,0,0,,6,,,78,127
50804,note_on,2,0,0,,6,,,78,127
50958,note_off,154,0,0,,6,,,78,127
50958,note_off,0,0,0,,10,,,69,127
50958,note_off,0,0,0,,10,,,57,127
50962,note_on,4,0,0,,0,,,60,127
50962,note_on,0,0,0,,10,,,69,127
50962,note_on,0,0,0,,6,,,78,127
50962,note_on,0,0,0,,4,,,76,127
51116,note_off,154,0,0,,4,,,76,127
51116,note_off,0,0,0,,6,,,78,127
51118,note_on,2,0,0,,3,,,75,127
51272,note_off,154,0,0,,3,,,75,127
51276,note_on,4,0,0,,4,,,76,127
51430,note_off,154,0,0,,4,,,76,127
51430,note_off,0,0,0,,10,,,69,127
51430,note_off,0,0,0,,0,,,60,127
51434,note_on,4,0,0,,12,,,59,127
51434,note_on,0,0,0,,4,,,76,127
51588,note_off,154,0,0,,12,,,59,127
51590,note_on,2,0,0,,12,,,71,127
51744,note_off,154,0,0,,12,,,71,127
51744,note_off,0,0,0,,4,,,76,127
51749,note_on,5,0,0,,10,,,69,127
51749,note_on,0,0,0,,6,,,78,127
51903,note_off,154,0,0,,10,,,69,127
51904,note_on,1,0,0,,7,,,67,127
51904,note_on,0,0,0,,12,,,71,127
51982,note_off,78,0,0,,6,,,78,127
52061,note_on,79,0,0,,12,,,83,127
52215,note_off,154,0,0,,12,,,83,127
52219,note_on,4,0,0,,12,,,83,127
52371,note_off,152,0,0,,12,,,71,127
52371,note_off,0,0,0,,7,,,67,127
52372,note_off,1,0,0,,12,,,83,127
52374,note_on,2,0,0,,0,,,72,127
52374,note_on,0,0,0,,4,,,76,127
52374,note_on,0,0,0,,12,,,83,127
52374,note_on,0,0,0,,0,,,84,127
52528,note_off,154,0,0,,0,,,84,127
52528,note_off,0,0,0,,12,,,83,127
52533,note_on,5,0,0,,10,,,81,127
52687,note_off,154,0,0,,10,,,81,127
52689,note_on,2,0,0,,10,,,81,127
52841,note_off,152,0,0,,4,,,76,127
52841,note_off,0,0,0,,0,,,72,127
52842,note_off,1,0,0,,10,,,81,127
52844,note_on,2,0,0,,12,,,71,127
52844,note_on,0,0,0,,2,,,74,127
52844,note_on,0,0,0,,10,,,81,127
52844,note_on,0,0,0,,12,,,83,127
52998,note_off,154,0,0,,12,,,83,127
52998,note_off,0,0,0,,10,,,81,127
53002,note_on,4,0,0,,7,,,79,127
53156,note_off,154,0,0,,7,,,79,127
53158,note_on,2,0,0,,7,,,79,127
53312,note_off,154,0,0,,7,,,79,127
53312,note_off,0,0,0,,2,,,74,127
53312,note_off,0,0,0,,12,,,71,127
53316,note_on,4,0,0,,10,,,69,127
53316,note_on,0,0,0,,0,,,72,127
53316,note_on,0,0,0,,7,,,79,127
53316,note_on,0,0,0,,10,,,81,127
53470,note_off,154,0,0,,10,,,81,127
53470,note_off,0,0,0,,7,,,79,127
53474,note_on,4,0,0,,6,,,78,127
53628,note_off,154,0,0,,6,,,78,127
53630,note_on,2,0,0,,6,,,78,127
53784,note_off,154,0,0,,6,,,78,127
53784,note_off,0,0,0,,0,,,72,127
53784,note_off,0,0,0,,10,,,69,127
53788,note_on,4,0,0,,7,,,67,127
53788,note_on,0,0,0,,12,,,71,127
53788,note_on,0,0,0,,6,,,78,127
53788,note_on,0,0,0,,7,,,79,127
53942,note_off,154,0,0,,7,,,79,127
53942,note_off,0,0,0,,6,,,78,127
53944,note_on,2,0,0,,4,,,76,127
54098,note_off,154,0,0,,4,,,76,127
54102,note_on,4,0,0,,4,,,76,127
54256,note_off,154,0,0,,4,,,76,127
54256,note_off,0,0,0,,12,,,71,127
54256,note_off,0,0,0,,7,,,67,127
54260,note_on,4,0,0,,6,,,66,127
54260,note_on,0,0,0,,10,,,69,127
54260,note_on,0,0,0,,4,,,76,127
54260,note_on,0,0,0,,6,,,78,127
54414,note_off,154,0,0,,6,,,78,127
54414,note_off,0,0,0,,4,,,76,127
54416,note_on,2,0,0,,2,,,74,127
54570,note_off,154,0,0,,2,,,74,127
54575,note_on,5,0,0,,2,,,74,127
54727,note_off,152,0,0,,10,,,69,127
54727,note_off,0,0,0,,6,,,66,127
54728,note_off,1,0,0,,2,,,74,127
54730,note_on,2,0,0,,4,,,64,127
54730,note_on,0,0,0,,10,,,69,127
54730,note_on,0,0,0,,2,,,74,127
54804,note_off,74,0,0,,2,,,74,127
54808,note_on,4,0,0,,0,,,72,127
54882,note_off,74,0,0,,0,,,72,127
54886,note_on,4,0,0,,12,,,71,127
55040,note_off,154,0,0,,12,,,71,127
55044,note_on,4,0,0,,0,,,72,127
55198,note_off,154,0,0,,0,,,72,127
55198,note_off,0,0,0,,4,,,64,127
55200,note_on,2,0,0,,3,,,63,127
55200,note_on,0,0,0,,12,,,71,127
55355,note_off,155,0,0,,10,,,69,127
55359,note_on,4,0,0,,7,,,67,127
55513,note_off,154,0,0,,7,,,67,127
55515,note_on,2,0,0,,6,,,66,127
55667,note_off,152,0,0,,3,,,63,127
55668,note_off,1,0,0,,6,,,66,127
55670,note_on,2,0,0,,4,,,64,127
55670,note_on,0,0,0,,7,,,67,127
55824,note_off,154,0,0,,12,,,71,127
55828,note_on,4,0,0,,7,,,79,127
55982,note_off,154,0,0,,7,,,79,127
55984,note_on,2,0,0,,4,,,76,127
56138,note_off,154,0,0,,4,,,76,127
56138,note_off,0,0,0,,7,,,67,127
56138,note_off,0,0,0,,4,,,64,127
56142,note_on,4,0,0,,3,,,63,127
56142,note_on,0,0,0,,10,,,69,127
56142,note_on,0,0,0,,12,,,71,127
56296,note_off,154,0,0,,10,,,69,127
56300,note_on,4,0,0,,7,,,67,127
56454,note_off,154,0,0,,7,,,67,127
56456,note_on,2,0,0,,6,,,66,127
56610,note_off,154,0,0,,6,,,66,127
56610,note_off,0,0,0,,3,,,63,127
56615,note_on,5,0,0,,4,,,64,127
56615,note_on,0,0,0,,7,,,67,127
56767,note_off,152,0,0,,12,,,71,127
56769,note_on,2,0,0,,12,,,83,127
56923,note_off,154,0,0,,12,,,83,127
56927,note_on,4,0,0,,7,,,79,127
57081,note_off,154,0,0,,7,,,79,127
57082,note_off,1,0,0,,7,,,67,127
57082,note_off,0,0,0,,4,,,64,127
57084,note_on,2,0,0,,10,,,57,127
57084,note_on,0,0,0,,10,,,69,127
57084,note_on,0,0,0,,6,,,78,127
57238,note_off,154,0,0,,6,,,78,127
57240,note_on,2,0,0,,0,,,84,127
57394,note_off,154,0,0,,0,,,84,127
57399,note_on,5,0,0,,10,,,81,127
57551,note_off,152,0,0,,10,,,69,127
57551,note_off,0,0,0,,10,,,57,127
57555,note_on,4,0,0,,12,,,47,127
57555,note_on,0,0,0,,12,,,59,127
57709,note_off,154,0,0,,10,,,81,127
57711,note_on,2,0,0,,6,,,78,127
57865,note_off,154,0,0,,6,,,78,127
57869,note_on,4,0,0,,3,,,75,127
58023,note_off,154,0,0,,3,,,75,127
58023,note_off,0,0,0,,12,,,59,127
58023,note_off,0,0,0,,12,,,47,127
58025,note_on,2,0,0,,4,,,52,127
58025,note_on,0,0,0,,4,,,76,127
58179,note_off,154,0,0,,4,,,52,127
58183,note_on,4,0,0,,6,,,54,127
58337,note_off,154,0,0,,6,,,54,127
58341,note_on,4,0,0,,7,,,55,127
58493,note_off,152,0,0,,4,,,76,127
58494,note_off,1,0,0,,7,,,55,127
58496,note_on,2,0,0,,10,,,57,127
58496,note_on,0,0,0,,4,,,64,127
58653,note_on,157,0,0,,4,,,76,127
58804,note_off,151,0,0,,4,,,64,127
58805,note_off,1,0,0,,10,,,57,127
58806,note_off,1,0,0,,4,,,76,127
58808,note_on,2,0,0,,12,,,59,127
58808,note_on,0,0,0,,3,,,75,127
58962,note_off,154,0,0,,3,,,75,127
58962,note_off,0,0,0,,12,,,59,127
58966,note_on,4,0,0,,4,,,52,127
58966,note_on,0,0,0,,4,,,76,127
59120,note_off,154,0,0,,4,,,52,127
59124,note_on,4,0,0,,6,,,54,127
59278,note_off,154,0,0,,6,,,54,127
59280,note_on,2,0,0,,7,,,55,127
59434,note_off,154,0,0,,7,,,55,127
59434,note_off,0,0,0,,4,,,76,127
59439,note_on,5,0,0,,10,,,57,127
59439,note_on,0,0,0,,4,,,64,127
59594,note_on,155,0,0,,4,,,76,127
59748,note_off,154,0,0,,4,,,76,127
59748,note_off,0,0,0,,4,,,64,127
59749,note_off,1,0,0,,10,,,57,127
59751,note_on,2,0,0,,12,,,59,127
59751,note_on,0,0,0,,3,,,75,127
59905,note_off,154,0,0,,3,,,75,127
59905,note_off,0,0,0,,12,,,59,127
59909,note_on,4,0,0,,7,,,55,127
59909,note_on,0,0,0,,4,,,76,127
60063,note_off,154,0,0,,4,,,76,127
60063,note_off,0,0,0,,7,,,55,127
60065,note_on,2,0,0,,6,,,54,127
60065,note_on,0,0,0,,6,,,78,127
60219,note_off,154,0,0,,6,,,78,127
60219,note_off,0,0,0,,6,,,54,127
60224,note_on,5,0,0,,4,,,52,127
60224,note_on,0,0,0,,7,,,79,127
60378,note_off,154,0,0,,7,,,79,127
60378,note_off,0,0,0,,4,,,52,127
60380,note_on,2,0,0,,10,,,57,127
60380,note_on,0,0,0,,6,,,78,127
60380,note_on,0,0,0,,10,,,81,127
60534,note_off,154,0,0,,10,,,81,127
60534,note_off,0,0,0,,6,,,78,127
60536,note_on,2,0,0,,4,,,76,127
60536,note_on,0,0,0,,7,,,79,127
60690,note_off,154,0,0,,7,,,79,127
60690,note_off,0,0,0,,4,,,76,127
60690,note_off,0,0,0,,10,,,57,127
60694,note_on,4,0,0,,12,,,59,127
60694,note_on,0,0,0,,3,,,75,127
60694,note_on,0,0,0,,6,,,78,127
60848,note_off,154,0,0,,6,,,78,127
60848,note_off,0,0,0,,3,,,75,127
60848,note_off,0,0,0,,12,,,59,127
60850,note_on,2,0,0,,4,,,76,127
60850,note_on,0,0,0,,4,,,52,127
61076,note_off,226,0,0,,4,,,52,127
61076,note_off,0,0,0,,4,,,76,127
61081,note_on,5,0,0,,4,,,76,127
61081,note_on,0,0,0,,4,,,64,127
61191,note_off,110,0,0,,4,,,64,127
61191,note_off,0,0,0,,4,,,76,127
61196,note_on,5,0,0,,2,,,74,127
61196,note_on,0,0,0,,2,,,62,127
61306,note_off,110,0,0,,2,,,62,127
61306,note_off,0,0,0,,2,,,74,127
61311,note_on,5,0,0,,0,,,72,127
61311,note_on,0,0,0,,0,,,60,127
61537,note_off,226,0,0,,0,,,60,127
61537,note_off,0,0,0,,0,,,72,127
61543,note_on,6,0,0,,0,,,72,127
61543,note_on,0,0,0,,0,,,60,127
61653,note_off,110,0,0,,0,,,60,127
61653,note_off,0,0,0,,0,,,72,127
61657,note_on,4,0,0,,12,,,71,127
61657,note_on,0,0,0,,12,,,59,127
61767,note_off,110,0,0,,12,,,59,127
61767,note_off,0,0,0,,12,,,71,127
61772,note_on,5,0,0,,10,,,69,127
61772,note_on,0,0,0,,10,,,57,127
61998,note_off,226,0,0,,10,,,57,127
61998,note_off,0,0,0,,10,,,69,127
62003,note_on,5,0,0,,10,,,69,127
62003,note_on,0,0,0,,10,,,57,127
62113,note_off,110,0,0,,10,,,57,127
62113,note_off,0,0,0,,10,,,69,127
62118,note_on,5,0,0,,7,,,67,127
62118,note_on,0,0,0,,7,,,55,127
62228,note_off,110,0,0,,7,,,55,127
62228,note_off,0,0,0,,7,,,67,127
62233,note_on,5,0,0,,7,,,67,127
62233,note_on,0,0,0,,7,,,55,127
62286,note_off,53,0,0,,7,,,55,127
62286,note_off,0,0,0,,7,,,67,127
62291,note_on,5,0,0,,5,,,65,127
62291,note_on,0,0,0,,5,,,53,127
62344,note_off,53,0,0,,5,,,53,127
62344,note_off,0,0,0,,5,,,65,127
62349,note_on,5,0,0,,7,,,67,127
62349,note_on,0,0,0,,7,,,55,127
62402,note_off,53,0,0,,7,,,55,127
62402,note_off,0,0,0,,7,,,67,127
62407,note_on,5,0,0,,5,,,65,127
62407,note_on,0,0,0,,5,,,53,127
62460,note_off,53,0,0,,5,,,53,127
62460,note_off,0,0,0,,5,,,65,127
62466,note_on,6,0,0,,7,,,67,127
62466,note_on,0,0,0,,7,,,55,127
62519,note_off,53,0,0,,7,,,55,127
62519,note_off,0,0,0,,7,,,67,127
62523,note_on,4,0,0,,5,,,65,127
62523,note_on,0,0,0,,5,,,53,127
62576,note_off,53,0,0,,5,,,53,127
62576,note_off,0,0,0,,5,,,65,127
62581,note_on,5,0,0,,7,,,67,127
62581,note_on,0,0,0,,7,,,55,127
62634,note_off,53,0,0,,7,,,55,127
62634,note_off,0,0,0,,7,,,67,127
62639,note_on,5,0,0,,5,,,65,127
62639,note_on,0,0,0,,5,,,53,127
62692,note_off,53,0,0,,5,,,53,127
62692,note_off,0,0,0,,5,,,65,127
62697,note_on,5,0,0,,4,,,64,127
62697,note_on,0,0,0,,4,,,52,127
62923,note_off,226,0,0,,4,,,52,127
62923,note_off,0,0,0,,4,,,64,127
62928,note_on,5,0,0,,6,,,66,127
62928,note_on,0,0,0,,2,,,50,127
63038,note_off,110,0,0,,6,,,66,127
63043,note_on,5,0,0,,8,,,68,127
63153,note_off,110,0,0,,8,,,68,127
63153,note_off,0,0,0,,2,,,50,127
63158,note_on,5,0,0,,10,,,69,127
63158,note_on,0,0,0,,0,,,48,127
63384,note_off,226,0,0,,0,,,48,127
63384,note_off,0,0,0,,10,,,69,127
63390,note_on,6,0,0,,12,,,71,127
63390,note_on,0,0,0,,0,,,48,127
63500,note_off,110,0,0,,12,,,71,127
63505,note_on,5,0,0,,0,,,72,127
63615,note_off,110,0,0,,0,,,72,127
63615,note_off,0,0,0,,0,,,48,127
63619,note_on,4,0,0,,2,,,74,127
63619,note_on,0,0,0,,12,,,47,127
63845,note_off,226,0,0,,12,,,47,127
63845,note_off,0,0,0,,2,,,74,127
63850,note_on,5,0,0,,0,,,72,127
63850,note_on,0,0,0,,12,,,47,127
63960,note_off,110,0,0,,0,,,72,127
63965,note_on,5,0,0,,12,,,71,127
64075,note_off,110,0,0,,12,,,71,127
64075,note_off,0,0,0,,12,,,47,127
64080,note_on,5,0,0,,12,,,71,127
64080,note_on,0,0,0,,0,,,48,127
64133,note_off,53,0,0,,12,,,71,127
64138,note_on,5,0,0,,10,,,69,127
64191,note_off,53,0,0,,10,,,69,127
64196,note_on,5,0,0,,12,,,71,127
64249,note_off,53,0,0,,12,,,71,127
64254,note_on,5,0,0,,10,,,69,127
64307,note_off,53,0,0,,10,,,69,127
64307,note_off,0,0,0,,0,,,48,127
64312,note_on,5,0,0,,8,,,68,127
64312,note_on,0,0,0,,10,,,45,127
64422,note_off,110,0,0,,8,,,68,127
64428,note_on,6,0,0,,10,,,69,127
64537,note_off,109,0,0,,10,,,45,127
64538,note_off,1,0,0,,10,,,69,127
64542,note_on,4,0,0,,12,,,71,127
64542,note_on,0,0,0,,4,,,40,127
64768,note_off,226,0,0,,4,,,40,127
64768,note_off,0,0,0,,12,,,71,127
64773,note_on,5,0,0,,4,,,76,127
64773,note_on,0,0,0,,4,,,64,127
64883,note_off,110,0,0,,4,,,64,127
64883,note_off,0,0,0,,4,,,76,127
64888,note_on,5,0,0,,2,,,74,127
64888,note_on,0,0,0,,2,,,62,127
64998,note_off,110,0,0,,2,,,62,127
64998,note_off,0,0,0,,2,,,74,127
65003,note_on,5,0,0,,0,,,72,127
65003,note_on,0,0,0,,0,,,60,127
65229,note_off,226,0,0,,0,,,60,127
65229,note_off,0,0,0,,0,,,72,127
65234,note_on,5,0,0,,0,,,72,127
65234,note_on,0,0,0,,0,,,60,127
65344,note_off,110,0,0,,0,,,60,127
65344,note_off,0,0,0,,0,,,72,127
65350,note_on,6,0,0,,12,,,71,127
65350,note_on,0,0,0,,12,,,59,127
65460,note_off,110,0,0,,12,,,59,127
65460,note_off,0,0,0,,12,,,71,127
65464,note_on,4,0,0,,10,,,69,127
65464,note_on,0,0,0,,10,,,57,127
65690,note_off,226,0,0,,10,,,57,127
65690,note_off,0,0,0,,10,,,69,127
65695,note_on,5,0,0,,10,,,69,127
65695,note_on,0,0,0,,10,,,57,127
65805,note_off,110,0,0,,10,,,57,127
65805,note_off,0,0,0,,10,,,69,127
65810,note_on,5,0,0,,7,,,67,127
65810,note_on,0,0,0,,7,,,55,127
65920,note_off,110,0,0,,7,,,55,127
65920,note_off,0,0,0,,7,,,67,127
65925,note_on,5,0,0,,7,,,67,127
65925,note_on,0,0,0,,7,,,55,127
65978,note_off,53,0,0,,7,,,55,127
65978,note_off,0,0,0,,7,,,67,127
65983,note_on,5,0,0,,5,,,65,127
65983,note_on,0,0,0,,5,,,53,127
66036,note_off,53,0,0,,5,,,53,127
66036,note_off,0,0,0,,5,,,65,127
66041,note_on,5,0,0,,7,,,67,127
66041,note_on,0,0,0,,7,,,55,127
66094,note_off,53,0,0,,7,,,55,127
66094,note_off,0,0,0,,7,,,67,127
66099,note_on,5,0,0,,5,,,65,127
66099,note_on,0,0,0,,5,,,53,127
66152,note_off,53,0,0,,5,,,53,127
66152,note_off,0,0,0,,5,,,65,127
66157,note_on,5,0,0,,7,,,67,127
66157,note_on,0,0,0,,7,,,55,127
66210,note_off,53,0,0,,7,,,55,127
66210,note_off,0,0,0,,7,,,67,127
66215,note_on,5,0,0,,5,,,65,127
66215,note_on,0,0,0,,5,,,53,127
66268,note_off,53,0,0,,5,,,53,127
66268,note_off,0,0,0,,5,,,65,127
66274,note_on,6,0,0,,7,,,67,127
66274,note_on,0,0,0,,7,,,55,127
66327,note_off,53,0,0,,7,,,55,127
66327,note_off,0,0,0,,7,,,67,127
66331,note_on,4,0,0,,5,,,65,127
66331,note_on,0,0,0,,5,,,53,127
66384,note_off,53,0,0,,5,,,53,127
66384,note_off,0,0,0,,5,,,65,127
66390,note_on,6,0,0,,4,,,64,127
66390,note_on,0,0,0,,4,,,52,127
66616,note_off,226,0,0,,4,,,52,127
66616,note_off,0,0,0,,4,,,64,127
66620,note_on,4,0,0,,6,,,66,127
66620,note_on,0,0,0,,2,,,50,127
66730,note_off,110,0,0,,6,,,66,127
66735,note_on,5,0,0,,8,,,68,127
66845,note_off,110,0,0,,8,,,68,127
66845,note_off,0,0,0,,2,,,50,127
66850,note_on,5,0,0,,10,,,69,127
66850,note_on,0,0,0,,0,,,48,127
67076,note_off,226,0,0,,0,,,48,127
67076,note_off,0,0,0,,10,,,69,127
67081,note_on,5,0,0,,12,,,71,127
67081,note_on,0,0,0,,0,,,48,127
67191,note_off,110,0,0,,12,,,71,127
67196,note_on,5,0,0,,0,,,72,127
67306,note_off,110,0,0,,0,,,72,127
67306,note_off,0,0,0,,0,,,48,127
67312,note_on,6,0,0,,2,,,74,127
67312,note_on,0,0,0,,12,,,47,127
67538,note_off,226,0,0,,12,,,47,127
67538,note_off,0,0,0,,2,,,74,127
67542,note_on,4,0,0,,0,,,72,127
67542,note_on,0,0,0,,10,,,45,127
67652,note_off,110,0,0,,0,,,72,127
67657,note_on,5,0,0,,12,,,71,127
67767,note_off,110,0,0,,12,,,71,127
67767,note_off,0,0,0,,10,,,45,127
67772,note_on,5,0,0,,0,,,72,127
67772,note_on,0,0,0,,4,,,52,127
67998,note_off,226,0,0,,0,,,72,127
68003,note_on,5,0,0,,12,,,71,127
68003,note_on,0,0,0,,4,,,40,127
68226,note_off,223,0,0,,4,,,52,127
68228,note_off,2,0,0,,4,,,40,127
68228,note_off,0,0,0,,12,,,71,127
68234,note_on,6,0,0,,10,,,45,127
68234,note_on,0,0,0,,10,,,69,127
68390,note_on,156,0,0,,10,,,57,127
68541,note_off,151,0,0,,10,,,45,127
68542,note_off,1,0,0,,10,,,57,127
68542,note_off,0,0,0,,10,,,69,127
68546,note_on,4,0,0,,8,,,56,127
68546,note_on,0,0,0,,1,,,73,127
68698,note_off,152,0,0,,1,,,73,127
68698,note_off,0,0,0,,8,,,56,127
68702,note_on,4,0,0,,6,,,54,127
68702,note_on,0,0,0,,2,,,74,127
68854,note_off,152,0,0,,2,,,74,127
68854,note_off,0,0,0,,6,,,54,127
68859,note_on,5,0,0,,4,,,52,127
68859,note_on,0,0,0,,4,,,76,127
69011,note_off,152,0,0,,4,,,76,127
69011,note_off,0,0,0,,4,,,52,127
69016,note_on,5,0,0,,2,,,50,127
69016,note_on,0,0,0,,6,,,78,127
69168,note_off,152,0,0,,6,,,78,127
69168,note_off,0,0,0,,2,,,50,127
69173,note_on,5,0,0,,1,,,49,127
69173,note_on,0,0,0,,4,,,76,127
69325,note_off,152,0,0,,4,,,76,127
69325,note_off,0,0,0,,1,,,49,127
69329,note_on,4,0,0,,12,,,47,127
69329,note_on,0,0,0,,2,,,74,127
69481,note_off,152,0,0,,2,,,74,127
69481,note_off,0,0,0,,12,,,47,127
69485,note_on,4,0,0,,10,,,45,127
69485,note_on,0,0,0,,1,,,73,127
69637,note_off,152,0,0,,1,,,73,127
69637,note_off,0,0,0,,10,,,45,127
69642,note_on,5,0,0,,2,,,50,127
69642,note_on,0,0,0,,12,,,71,127
69642,note_on,0,0,0,,1,,,73,127
69794,note_off,152,0,0,,1,,,73,127
69794,note_off,0,0,0,,2,,,50,127
69799,note_on,5,0,0,,4,,,52,127
69950,note_off,151,0,0,,12,,,71,127
69951,note_off,1,0,0,,4,,,52,127
69955,note_on,4,0,0,,6,,,54,127
69955,note_on,0,0,0,,10,,,69,127
70107,note_off,152,0,0,,10,,,69,127
70107,note_off,0,0,0,,6,,,54,127
70112,note_on,5,0,0,,4,,,52,127
70112,note_on,0,0,0,,10,,,69,127
70264,note_off,152,0,0,,4,,,52,127
70268,note_on,4,0,0,,4,,,64,127
70420,note_off,152,0,0,,4,,,64,127
70420,note_off,0,0,0,,10,,,69,127
70425,note_on,5,0,0,,2,,,62,127
70425,note_on,0,0,0,,8,,,68,127
70577,note_off,152,0,0,,8,,,68,127
70577,note_off,0,0,0,,2,,,62,127
70582,note_on,5,0,0,,1,,,61,127
70582,note_on,0,0,0,,4,,,64,127
70738,note_on,156,0,0,,12,,,71,127
70890,note_off,152,0,0,,12,,,71,127
70895,note_on,5,0,0,,10,,,69,127
71047,note_off,152,0,0,,4,,,64,127
71047,note_off,0,0,0,,1,,,61,127
71053,note_on,6,0,0,,8,,,56,127
71053,note_on,0,0,0,,4,,,64,127
71169,note_off,116,0,0,,10,,,69,127
71209,note_on,40,0,0,,1,,,73,127
71361,note_off,152,0,0,,1,,,73,127
71365,note_on,4,0,0,,12,,,71,127
71519,note_off,154,0,0,,4,,,64,127
71519,note_off,0,0,0,,8,,,56,127
71521,note_on,2,0,0,,10,,,57,127
71521,note_on,0,0,0,,4,,,64,127
71640,note_off,119,0,0,,12,,,71,127
71678,note_on,38,0,0,,2,,,74,127
71830,note_off,152,0,0,,2,,,74,127
71835,note_on,5,0,0,,1,,,73,127
71986,note_off,151,0,0,,4,,,64,127
71986,note_off,0,0,0,,10,,,57,127
71987,note_off,1,0,0,,1,,,73,127
71992,note_on,5,0,0,,4,,,52,127
71992,note_on,0,0,0,,4,,,76,127
72148,note_on,156,0,0,,4,,,64,127
72222,note_off,74,0,0,,4,,,76,127
72222,note_off,0,0,0,,4,,,52,127
72227,note_on,5,0,0,,2,,,74,127
72265,note_on,38,0,0,,1,,,73,127
72276,note_off,11,0,0,,2,,,74,127
72300,note_off,24,0,0,,4,,,64,127
72304,note_on,4,0,0,,2,,,62,127
72304,note_on,0,0,0,,12,,,71,127
72315,note_off,11,0,0,,1,,,73,127
72457,note_off,142,0,0,,12,,,71,127
72457,note_off,0,0,0,,2,,,62,127
72462,note_on,5,0,0,,1,,,61,127
72462,note_on,0,0,0,,4,,,64,127
72619,note_on,157,0,0,,6,,,78,127
72771,note_off,152,0,0,,6,,,78,127
72775,note_on,4,0,0,,4,,,76,127
72927,note_off,152,0,0,,4,,,64,127
72927,note_off,0,0,0,,1,,,61,127
72932,note_on,5,0,0,,8,,,56,127
72932,note_on,0,0,0,,4,,,64,127
73083,note_off,151,0,0,,4,,,76,127
73088,note_on,5,0,0,,4,,,76,127
73240,note_off,152,0,0,,4,,,76,127
73245,note_on,5,0,0,,2,,,74,127
73397,note_off,152,0,0,,4,,,64,127
73397,note_off,0,0,0,,8,,,56,127
73402,note_on,5,0,0,,4,,,64,127
73402,note_on,0,0,0,,10,,,57,127
73553,note_off,151,0,0,,2,,,74,127
73558,note_on,5,0,0,,2,,,74,127
73710,note_off,152,0,0,,2,,,74,127
73715,note_on,5,0,0,,1,,,73,127
73867,note_off,152,0,0,,1,,,73,127
73867,note_off,0,0,0,,10,,,57,127
73867,note_off,0,0,0,,4,,,64,127
73873,note_on,6,0,0,,4,,,52,127
73873,note_on,0,0,0,,4,,,76,127
74029,note_on,156,0,0,,4,,,64,127
74103,note_off,74,0,0,,4,,,76,127
74103,note_off,0,0,0,,4,,,52,127
74105,note_on,2,0,0,,2,,,74,127
74146,note_on,41,0,0,,1,,,73,127
74154,note_off,8,0,0,,2,,,74,127
74180,note_off,26,0,0,,4,,,64,127
74184,note_on,4,0,0,,2,,,62,127
74184,note_on,0,0,0,,12,,,71,127
74195,note_off,11,0,0,,1,,,73,127
74337,note_off,142,0,0,,12,,,71,127
74337,note_off,0,0,0,,2,,,62,127
74341,note_on,4,0,0,,1,,,61,127
74498,note_on,157,0,0,,4,,,64,127
74650,note_off,152,0,0,,4,,,64,127
74655,note_on,5,0,0,,4,,,64,127
74806,note_off,151,0,0,,1,,,61,127
74807,note_off,1,0,0,,4,,,64,127
74812,note_on,5,0,0,,2,,,62,127
74812,note_on,0,0,0,,2,,,50,127
74812,note_on,0,0,0,,4,,,64,127
74964,note_off,152,0,0,,4,,,64,127
74968,note_on,4,0,0,,6,,,66,127
75120,note_off,152,0,0,,6,,,66,127
75124,note_on,4,0,0,,6,,,66,127
75276,note_off,152,0,0,,6,,,66,127
75277,note_off,1,0,0,,2,,,50,127
75277,note_off,0,0,0,,2,,,62,127
75281,note_on,4,0,0,,4,,,52,127
75281,note_on,0,0,0,,2,,,62,127
75281,note_on,0,0,0,,6,,,66,127
75433,note_off,152,0,0,,6,,,66,127
75438,note_on,5,0,0,,8,,,68,127
75590,note_off,152,0,0,,8,,,68,127
75594,note_on,4,0,0,,8,,,68,127
75746,note_off,152,0,0,,8,,,68,127
75746,note_off,0,0,0,,2,,,62,127
75746,note_off,0,0,0,,4,,,52,127
75751,note_on,5,0,0,,6,,,54,127
75751,note_on,0,0,0,,2,,,62,127
75751,note_on,0,0,0,,8,,,68,127
75903,note_off,152,0,0,,8,,,68,127
75909,note_on,6,0,0,,10,,,69,127
76061,note_off,152,0,0,,10,,,69,127
76065,note_on,4,0,0,,10,,,69,127
76216,note_off,151,0,0,,2,,,62,127
76216,note_off,0,0,0,,6,,,54,127
76217,note_off,1,0,0,,10,,,69,127
76221,note_on,4,0,0,,8,,,56,127
76221,note_on,0,0,0,,2,,,62,127
76221,note_on,0,0,0,,10,,,69,127
76373,note_off,152,0,0,,10,,,69,127
76377,note_on,4,0,0,,12,,,71,127
76529,note_off,152,0,0,,12,,,71,127
76534,note_on,5,0,0,,12,,,71,127
76686,note_off,152,0,0,,12,,,71,127
76686,note_off,0,0,0,,2,,,62,127
76686,note_off,0,0,0,,8,,,56,127
76691,note_on,5,0,0,,1,,,61,127
76691,note_on,0,0,0,,10,,,57,127
76691,note_on,0,0,0,,10,,,81,127
76921,note_off,230,0,0,,10,,,81,127
76925,note_on,4,0,0,,8,,,80,127
76966,note_on,41,0,0,,6,,,78,127
76974,note_off,8,0,0,,8,,,80,127
77004,note_on,30,0,0,,4,,,76,127
77015,note_off,11,0,0,,6,,,78,127
77157,note_off,142,0,0,,4,,,76,127
77157,note_off,0,0,0,,10,,,57,127
77157,note_off,0,0,0,,1,,,61,127
77161,note_on,4,0,0,,2,,,50,127
77318,note_on,157,0,0,,6,,,66,127
77470,note_off,152,0,0,,6,,,66,127
77475,note_on,5,0,0,,6,,,66,127
77626,note_off,151,0,0,,2,,,50,127
77627,note_off,1,0,0,,6,,,66,127
77631,note_on,4,0,0,,4,,,52,127
77631,note_on,0,0,0,,4,,,64,127
77631,note_on,0,0,0,,6,,,66,127
77783,note_off,152,0,0,,6,,,66,127
77788,note_on,5,0,0,,8,,,68,127
77940,note_off,152,0,0,,8,,,68,127
77944,note_on,4,0,0,,8,,,68,127
78096,note_off,152,0,0,,8,,,68,127
78096,note_off,0,0,0,,4,,,64,127
78096,note_off,0,0,0,,4,,,52,127
78101,note_on,5,0,0,,6,,,54,127
78101,note_on,0,0,0,,4,,,64,127
78101,note_on,0,0,0,,8,,,68,127
78253,note_off,152,0,0,,8,,,68,127
78258,note_on,5,0,0,,11,,,70,127
78410,note_off,152,0,0,,11,,,70,127
78414,note_on,4,0,0,,11,,,70,127
78566,note_off,152,0,0,,11,,,70,127
78566,note_off,0,0,0,,4,,,64,127
78566,note_off,0,0,0,,6,,,54,127
78571,note_on,5,0,0,,8,,,56,127
78571,note_on,0,0,0,,4,,,64,127
78571,note_on,0,0,0,,11,,,70,127
78723,note_off,152,0,0,,11,,,70,127
78729,note_on,6,0,0,,12,,,71,127
78881,note_off,152,0,0,,12,,,71,127
78885,note_on,4,0,0,,12,,,71,127
79036,note_off,151,0,0,,4,,,64,127
79036,note_off,0,0,0,,8,,,56,127
79037,note_off,1,0,0,,12,,,71,127
79041,note_on,4,0,0,,4,,,64,127
79041,note_on,0,0,0,,11,,,58,127
79041,note_on,0,0,0,,12,,,71,127
79193,note_off,152,0,0,,12,,,71,127
79197,note_on,4,0,0,,1,,,73,127
79349,note_off,152,0,0,,1,,,73,127
79354,note_on,5,0,0,,1,,,73,127
79506,note_off,152,0,0,,1,,,73,127
79506,note_off,0,0,0,,11,,,58,127
79506,note_off,0,0,0,,4,,,64,127
79511,note_on,5,0,0,,12,,,59,127
79511,note_on,0,0,0,,2,,,62,127
79511,note_on,0,0,0,,12,,,83,127
79741,note_off,230,0,0,,12,,,83,127
79747,note_on,6,0,0,,10,,,81,127
79785,note_on,38,0,0,,7,,,79,127
79796,note_off,11,0,0,,10,,,81,127
79824,note_on,28,0,0,,6,,,78,127
79835,note_off,11,0,0,,7,,,79,127
79977,note_off,142,0,0,,2,,,62,127
79977,note_off,0,0,0,,12,,,59,127
79981,note_on,4,0,0,,12,,,59,127
79981,note_on,0,0,0,,2,,,50,127
80133,note_off,152,0,0,,6,,,78,127
80138,note_on,5,0,0,,6,,,78,127
80290,note_off,152,0,0,,6,,,78,127
80295,note_on,5,0,0,,2,,,74,127
80446,note_off,151,0,0,,2,,,50,127
80446,note_off,0,0,0,,12,,,59,127
80447,note_off,1,0,0,,2,,,74,127
80451,note_on,4,0,0,,1,,,61,127
80451,note_on,0,0,0,,4,,,52,127
80451,note_on,0,0,0,,1,,,73,127
80603,note_off,152,0,0,,1,,,73,127
80608,note_on,5,0,0,,7,,,79,127
80760,note_off,152,0,0,,7,,,79,127
80764,note_on,4,0,0,,4,,,76,127
80916,note_off,152,0,0,,4,,,76,127
80916,note_off,0,0,0,,4,,,52,127
80916,note_off,0,0,0,,1,,,61,127
80921,note_on,5,0,0,,4,,,64,127
80921,note_on,0,0,0,,7,,,55,127
80921,note_on,0,0,0,,1,,,73,127
81073,note_off,152,0,0,,1,,,73,127
81078,note_on,5,0,0,,11,,,70,127
81230,note_off,152,0,0,,11,,,70,127
81234,note_on,4,0,0,,12,,,71,127
81386,note_off,152,0,0,,12,,,71,127
81386,note_off,0,0,0,,7,,,55,127
81386,note_off,0,0,0,,4,,,64,127
81391,note_on,5,0,0,,6,,,54,127
81391,note_on,0,0,0,,12,,,71,127
81543,note_off,152,0,0,,12,,,71,127
81549,note_on,6,0,0,,6,,,66,127
81549,note_on,0,0,0,,1,,,73,127
81698,note_off,149,0,0,,6,,,54,127
81702,note_off,4,0,0,,6,,,66,127
81706,note_on,4,0,0,,4,,,64,127
81782,note_off,76,0,0,,1,,,73,127
81859,note_off,77,0,0,,4,,,64,127
81863,note_on,4,0,0,,2,,,62,127
82019,note_on,156,0,0,,12,,,83,127
82171,note_off,152,0,0,,12,,,83,127
82171,note_off,0,0,0,,2,,,62,127
82176,note_on,5,0,0,,7,,,67,127
82176,note_on,0,0,0,,12,,,71,127
82328,note_off,152,0,0,,12,,,71,127
82328,note_off,0,0,0,,7,,,67,127
82333,note_on,5,0,0,,6,,,66,127
82333,note_on,0,0,0,,6,,,78,127
82485,note_off,152,0,0,,6,,,66,127
82490,note_on,5,0,0,,6,,,66,127
82563,note_off,73,0,0,,6,,,78,127
82569,note_on,6,0,0,,4,,,76,127
82607,note_on,38,0,0,,2,,,74,127
82618,note_off,11,0,0,,4,,,76,127
82642,note_off,24,0,0,,6,,,66,127
82646,note_on,4,0,0,,4,,,64,127
82646,note_on,0,0,0,,1,,,73,127
82657,note_off,11,0,0,,2,,,74,127
82799,note_off,142,0,0,,1,,,73,127
82799,note_off,0,0,0,,4,,,64,127
82803,note_on,4,0,0,,2,,,62,127
82955,note_off,152,0,0,,2,,,62,127
82960,note_on,5,0,0,,2,,,62,127
82960,note_on,0,0,0,,12,,,83,127
83112,note_off,152,0,0,,12,,,83,127
83112,note_off,0,0,0,,2,,,62,127
83117,note_on,5,0,0,,7,,,67,127
83117,note_on,0,0,0,,12,,,71,127
83269,note_off,152,0,0,,12,,,71,127
83269,note_off,0,0,0,,7,,,67,127
83273,note_on,4,0,0,,6,,,66,127
83273,note_on,0,0,0,,6,,,78,127
83425,note_off,152,0,0,,6,,,66,127
83430,note_on,5,0,0,,6,,,66,127
83503,note_off,73,0,0,,6,,,78,127
83509,note_on,6,0,0,,4,,,76,127
83547,note_on,38,0,0,,2,,,74,127
83558,note_off,11,0,0,,4,,,76,127
83582,note_off,24,0,0,,6,,,66,127
83588,note_on,6,0,0,,4,,,64,127
83588,note_on,0,0,0,,1,,,73,127
83596,note_off,8,0,0,,2,,,74,127
83740,note_off,144,0,0,,1,,,73,127
83740,note_off,0,0,0,,4,,,64,127
83744,note_on,4,0,0,,6,,,66,127
83744,note_on,0,0,0,,2,,,62,127
83900,note_on,156,0,0,,12,,,83,127
84052,note_off,152,0,0,,12,,,83,127
84056,note_on,4,0,0,,12,,,83,127
84208,note_off,152,0,0,,12,,,83,127
84209,note_off,1,0,0,,2,,,62,127
84209,note_off,0,0,0,,6,,,66,127
84213,note_on,4,0,0,,4,,,64,127
84213,note_on,0,0,0,,7,,,67,127
84213,note_on,0,0,0,,10,,,81,127
84213,note_on,0,0,0,,12,,,83,127
84365,note_off,152,0,0,,12,,,83,127
84365,note_off,0,0,0,,10,,,81,127
84370,note_on,5,0,0,,7,,,79,127
84522,note_off,152,0,0,,7,,,79,127
84527,note_on,5,0,0,,6,,,78,127
84678,note_off,151,0,0,,7,,,67,127
84678,note_off,0,0,0,,4,,,64,127
84679,note_off,1,0,0,,6,,,78,127
84683,note_on,4,0,0,,4,,,64,127
84683,note_on,0,0,0,,7,,,55,127
84683,note_on,0,0,0,,6,,,78,127
84683,note_on,0,0,0,,7,,,79,127
84835,note_off,152,0,0,,7,,,79,127
84835,note_off,0,0,0,,6,,,78,127
84839,note_on,4,0,0,,4,,,76,127
84991,note_off,152,0,0,,4,,,76,127
84996,note_on,5,0,0,,2,,,74,127
85148,note_off,152,0,0,,2,,,74,127
85148,note_off,0,0,0,,7,,,55,127
85148,note_off,0,0,0,,4,,,64,127
85153,note_on,5,0,0,,10,,,57,127
85153,note_on,0,0,0,,2,,,74,127
85153,note_on,0,0,0,,4,,,76,127
85305,note_off,152,0,0,,4,,,76,127
85305,note_off,0,0,0,,2,,,74,127
85305,note_off,0,0,0,,10,,,57,127
85309,note_on,4,0,0,,10,,,69,127
85309,note_on,0,0,0,,1,,,73,127
85461,note_off,152,0,0,,10,,,69,127
85466,note_on,5,0,0,,7,,,67,127
85540,note_off,74,0,0,,1,,,73,127
85618,note_off,78,0,0,,7,,,67,127
85622,note_on,4,0,0,,6,,,66,127
85779,note_on,157,0,0,,2,,,86,127
85930,note_off,151,0,0,,6,,,66,127
85936,note_on,6,0,0,,12,,,71,127
85936,note_on,0,0,0,,2,,,74,127
86086,note_off,150,0,0,,2,,,86,127
86088,note_off,2,0,0,,2,,,74,127
86088,note_off,0,0,0,,12,,,71,127
86092,note_on,4,0,0,,10,,,69,127
86092,note_on,0,0,0,,10,,,81,127
86244,note_off,152,0,0,,10,,,69,127
86249,note_on,5,0,0,,10,,,69,127
86322,note_off,73,0,0,,10,,,81,127
86328,note_on,6,0,0,,7,,,79,127
86366,note_on,38,0,0,,6,,,78,127
86377,note_off,11,0,0,,7,,,79,127
86401,note_off,24,0,0,,10,,,69,127
86407,note_on,6,0,0,,7,,,67,127
86407,note_on,0,0,0,,4,,,76,127
86415,note_off,8,0,0,,6,,,78,127
86559,note_off,144,0,0,,4,,,76,127
86559,note_off,0,0,0,,7,,,67,127
86563,note_on,4,0,0,,6,,,66,127
86715,note_off,152,0,0,,6,,,66,127
86719,note_on,4,0,0,,6,,,66,127
86719,note_on,0,0,0,,2,,,86,127
86871,note_off,152,0,0,,6,,,66,127
86875,note_on,4,0,0,,12,,,71,127
86875,note_on,0,0,0,,2,,,74,127
87026,note_off,151,0,0,,2,,,86,127
87027,note_off,1,0,0,,2,,,74,127
87027,note_off,0,0,0,,12,,,71,127
87032,note_on,5,0,0,,10,,,69,127
87032,note_on,0,0,0,,10,,,81,127
87184,note_off,152,0,0,,10,,,69,127
87189,note_on,5,0,0,,10,,,69,127
87262,note_off,73,0,0,,10,,,81,127
87267,note_on,5,0,0,,7,,,79,127
87308,note_on,41,0,0,,6,,,78,127
87316,note_off,8,0,0,,7,,,79,127
87341,note_off,25,0,0,,10,,,69,127
87346,note_on,5,0,0,,7,,,67,127
87346,note_on,0,0,0,,4,,,76,127
87357,note_off,11,0,0,,6,,,78,127
87499,note_off,142,0,0,,4,,,76,127
87499,note_off,0,0,0,,7,,,67,127
87503,note_on,4,0,0,,6,,,66,127
87503,note_on,0,0,0,,10,,,69,127
87659,note_on,156,0,0,,10,,,81,127
87811,note_off,152,0,0,,10,,,81,127
87816,note_on,5,0,0,,10,,,81,127
87968,note_off,152,0,0,,10,,,81,127
87968,note_off,0,0,0,,10,,,69,127
87968,note_off,0,0,0,,6,,,66,127
87973,note_on,5,0,0,,4,,,64,127
87973,note_on,0,0,0,,12,,,71,127
87973,note_on,0,0,0,,12,,,83,127
87973,note_on,0,0,0,,10,,,81,127
88125,note_off,152,0,0,,10,,,81,127
88125,note_off,0,0,0,,12,,,83,127
88129,note_on,4,0,0,,8,,,80,127
88281,note_off,152,0,0,,8,,,80,127
88286,note_on,5,0,0,,8,,,80,127
88438,note_off,152,0,0,,8,,,80,127
88438,note_off,0,0,0,,12,,,71,127
88438,note_off,0,0,0,,4,,,64,127
88442,note_on,4,0,0,,2,,,62,127
88442,note_on,0,0,0,,12,,,71,127
88442,note_on,0,0,0,,10,,,81,127
88442,note_on,0,0,0,,8,,,80,127
88594,note_off,152,0,0,,8,,,80,127
88594,note_off,0,0,0,,10,,,81,127
88599,note_on,5,0,0,,6,,,78,127
88751,note_off,152,0,0,,6,,,78,127
88756,note_on,5,0,0,,6,,,78,127
88907,note_off,151,0,0,,12,,,71,127
88907,note_off,0,0,0,,2,,,62,127
88908,note_off,1,0,0,,6,,,78,127
88912,note_on,4,0,0,,1,,,61,127
88912,note_on,0,0,0,,10,,,69,127
88912,note_on,0,0,0,,6,,,78,127
88912,note_on,0,0,0,,8,,,80,127
89064,note_off,152,0,0,,8,,,80,127
89064,note_off,0,0,0,,6,,,78,127
89069,note_on,5,0,0,,4,,,76,127
89221,note_off,152,0,0,,4,,,76,127
89227,note_on,6,0,0,,4,,,76,127
89377,note_off,150,0,0,,10,,,69,127
89377,note_off,0,0,0,,1,,,61,127
89379,note_off,2,0,0,,4,,,76,127
89383,note_on,4,0,0,,12,,,59,127
89383,note_on,0,0,0,,8,,,68,127
89383,note_on,0,0,0,,4,,,76,127
89383,note_on,0,0,0,,6,,,78,127
89535,note_off,152,0,0,,6,,,78,127
89535,note_off,0,0,0,,4,,,76,127
89539,note_on,4,0,0,,2,,,74,127
89691,note_off,152,0,0,,2,,,74,127
89695,note_on,4,0,0,,2,,,74,127
89847,note_off,152,0,0,,2,,,74,127
89848,note_off,1,0,0,,8,,,68,127
89848,note_off,0,0,0,,12,,,59,127
89852,note_on,4,0,0,,10,,,57,127
89852,note_on,0,0,0,,4,,,76,127
89852,note_on,0,0,0,,2,,,74,127
90004,note_off,152,0,0,,2,,,74,127
90004,note_off,0,0,0,,4,,,76,127
90004,note_off,0,0,0,,10,,,57,127
90009,note_on,5,0,0,,10,,,69,127
90009,note_on,0,0,0,,1,,,73,127
90161,note_off,152,0,0,,10,,,69,127
90166,note_on,5,0,0,,7,,,67,127
90316,note_off,150,0,0,,1,,,73,127
90318,note_off,2,0,0,,7,,,67,127
90322,note_on,4,0,0,,6,,,66,127
90478,note_on,156,0,0,,10,,,81,127
90630,note_off,152,0,0,,10,,,81,127
90635,note_on,5,0,0,,10,,,69,127
90787,note_off,152,0,0,,10,,,69,127
90787,note_off,0,0,0,,6,,,66,127
90792,note_on,5,0,0,,4,,,64,127
90792,note_on,0,0,0,,4,,,76,127
90944,note_off,152,0,0,,4,,,64,127
90948,note_on,4,0,0,,4,,,64,127
91022,note_off,74,0,0,,4,,,76,127
91027,note_on,5,0,0,,2,,,74,127
91065,note_on,38,0,0,,1,,,73,127
91076,note_off,11,0,0,,2,,,74,127
91100,note_off,24,0,0,,4,,,64,127
91105,note_on,5,0,0,,2,,,62,127
91105,note_on,0,0,0,,12,,,71,127
91115,note_off,10,0,0,,1,,,73,127
91258,note_off,143,0,0,,12,,,71,127
91258,note_off,0,0,0,,2,,,62,127
91264,note_on,6,0,0,,1,,,61,127
91416,note_off,152,0,0,,1,,,61,127
91420,note_on,4,0,0,,1,,,61,127
91420,note_on,0,0,0,,10,,,81,127
91572,note_off,152,0,0,,10,,,81,127
91572,note_off,0,0,0,,1,,,61,127
91576,note_on,4,0,0,,6,,,66,127
91576,note_on,0,0,0,,10,,,69,127
91728,note_off,152,0,0,,10,,,69,127
91728,note_off,0,0,0,,6,,,66,127
91732,note_on,4,0,0,,4,,,64,127
91732,note_on,0,0,0,,4,,,76,127
91884,note_off,152,0,0,,4,,,64,127
91889,note_on,5,0,0,,4,,,64,127
91962,note_off,73,0,0,,4,,,76,127
91967,note_on,5,0,0,,2,,,74,127
92007,note_on,40,0,0,,1,,,73,127
92017,note_off,10,0,0,,2,,,74,127
92042,note_off,25,0,0,,4,,,64,127
92047,note_on,5,0,0,,2,,,62,127
92047,note_on,0,0,0,,12,,,71,127
92057,note_off,10,0,0,,1,,,73,127
92200,note_off,143,0,0,,12,,,71,127
92200,note_off,0,0,0,,2,,,62,127
92205,note_on,5,0,0,,1,,,61,127
92361,note_on,156,0,0,,4,,,64,127
92513,note_off,152,0,0,,4,,,64,127
92517,note_on,4,0,0,,4,,,64,127
92669,note_off,152,0,0,,4,,,64,127
92670,note_off,1,0,0,,1,,,61,127
92674,note_on,4,0,0,,2,,,62,127
92674,note_on,0,0,0,,2,,,50,127
92674,note_on,0,0,0,,4,,,64,127
92826,note_off,152,0,0,,4,,,64,127
92831,note_on,5,0,0,,6,,,66,127
92983,note_off,152,0,0,,6,,,66,127
92987,note_on,4,0,0,,6,,,66,127
93139,note_off,152,0,0,,6,,,66,127
93139,note_off,0,0,0,,2,,,50,127
93139,note_off,0,0,0,,2,,,62,127
93144,note_on,5,0,0,,4,,,52,127
93144,note_on,0,0,0,,2,,,62,127
93144,note_on,0,0,0,,6,,,66,127
93296,note_off,152,0,0,,6,,,66,127
93300,note_on,4,0,0,,8,,,68,127
93452,note_off,152,0,0,,8,,,68,127
93457,note_on,5,0,0,,8,,,68,127
93609,note_off,152,0,0,,8,,,68,127
93609,note_off,0,0,0,,2,,,62,127
93609,note_off,0,0,0,,4,,,52,127
93614,note_on,5,0,0,,6,,,54,127
93614,note_on,0,0,0,,2,,,62,127
93614,note_on,0,0,0,,8,,,68,127
93766,note_off,152,0,0,,8,,,68,127
93770,note_on,4,0,0,,10,,,69,127
93922,note_off,152,0,0,,10,,,69,127
93927,note_on,5,0,0,,10,,,69,127
94079,note_off,152,0,0,,10,,,69,127
94079,note_off,0,0,0,,2,,,62,127
94079,note_off,0,0,0,,6,,,54,127
94085,note_on,6,0,0,,2,,,62,127
94085,note_on,0,0,0,,8,,,56,127
94085,note_on,0,0,0,,10,,,69,127
94237,note_off,152,0,0,,10,,,69,127
94241,note_on,4,0,0,,12,,,71,127
94393,note_off,152,0,0,,12,,,71,127
94397,note_on,4,0,0,,12,,,71,127
94549,note_off,152,0,0,,12,,,71,127
94550,note_off,1,0,0,,8,,,56,127
94550,note_off,0,0,0,,2,,,62,127
94552,note_on,2,0,0,,10,,,57,127
94552,note_on,0,0,0,,4,,,64,127
94552,note_on,0,0,0,,1,,,73,127
94704,note_off,152,0,0,,1,,,73,127
94704,note_off,0,0,0,,10,,,57,127
94709,note_on,5,0,0,,12,,,59,127
94709,note_on,0,0,0,,2,,,74,127
94861,note_off,152,0,0,,2,,,74,127
94861,note_off,0,0,0,,12,,,59,127
94866,note_on,5,0,0,,1,,,61,127
94866,note_on,0,0,0,,4,,,76,127
95018,note_off,152,0,0,,4,,,76,127
95018,note_off,0,0,0,,1,,,61,127
95018,note_off,0,0,0,,4,,,64,127
95023,note_on,5,0,0,,2,,,50,127
95023,note_on,0,0,0,,2,,,74,127
95023,note_on,0,0,0,,12,,,71,127
95175,note_off,152,0,0,,12,,,71,127
95175,note_off,0,0,0,,2,,,74,127
95179,note_on,4,0,0,,10,,,69,127
95179,note_on,0,0,0,,1,,,73,127
95331,note_off,152,0,0,,1,,,73,127
95331,note_off,0,0,0,,10,,,69,127
95331,note_off,0,0,0,,2,,,50,127
95335,note_on,4,0,0,,4,,,52,127
95335,note_on,0,0,0,,8,,,68,127
95335,note_on,0,0,0,,12,,,71,127
95487,note_off,152,0,0,,12,,,71,127
95487,note_off,0,0,0,,8,,,68,127
95487,note_off,0,0,0,,4,,,52,127
95492,note_on,5,0,0,,10,,,57,127
95492,note_on,0,0,0,,10,,,69,127
95644,note_off,152,0,0,,10,,,57,127
95649,note_on,5,0,0,,12,,,59,127
95801,note_off,152,0,0,,12,,,59,127
95805,note_on,4,0,0,,1,,,61,127
95957,note_off,152,0,0,,1,,,61,127
95957,note_off,0,0,0,,10,,,69,127
95962,note_on,5,0,0,,2,,,62,127
95962,note_on,0,0,0,,10,,,81,127
96118,note_on,156,0,0,,10,,,69,127
96269,note_off,151,0,0,,10,,,81,127
96270,note_off,1,0,0,,10,,,69,127
96270,note_off,0,0,0,,2,,,62,127
96275,note_on,5,0,0,,4,,,64,127
96275,note_on,0,0,0,,8,,,68,127
96427,note_off,152,0,0,,8,,,68,127
96427,note_off,0,0,0,,4,,,64,127
96432,note_on,5,0,0,,10,,,57,127
96432,note_on,0,0,0,,10,,,69,127
96584,note_off,152,0,0,,10,,,57,127
96588,note_on,4,0,0,,12,,,59,127
96740,note_off,152,0,0,,12,,,59,127
96745,note_on,5,0,0,,1,,,61,127
96897,note_off,152,0,0,,1,,,61,127
96903,note_on,6,0,0,,2,,,62,127
96903,note_on,0,0,0,,10,,,81,127
97054,note_off,151,0,0,,10,,,69,127
97059,note_on,5,0,0,,10,,,69,127
97210,note_off,151,0,0,,10,,,81,127
97211,note_off,1,0,0,,10,,,69,127
97211,note_off,0,0,0,,2,,,62,127
97215,note_on,4,0,0,,4,,,64,127
97215,note_on,0,0,0,,8,,,68,127
97367,note_off,152,0,0,,8,,,68,127
97367,note_off,0,0,0,,4,,,64,127
97371,note_on,4,0,0,,10,,,57,127
97371,note_on,0,0,0,,10,,,69,127
97523,note_off,152,0,0,,10,,,69,127
97528,note_on,5,0,0,,10,,,81,127
97680,note_off,152,0,0,,10,,,81,127
97685,note_on,5,0,0,,6,,,78,127
97836,note_off,151,0,0,,10,,,57,127
97837,note_off,1,0,0,,6,,,78,127
97842,note_on,5,0,0,,12,,,47,127
97842,note_on,0,0,0,,12,,,59,127
97842,note_on,0,0,0,,3,,,75,127
97994,note_off,152,0,0,,3,,,75,127
97998,note_on,4,0,0,,10,,,69,127
98150,note_off,152,0,0,,10,,,69,127
98154,note_on,4,0,0,,6,,,66,127
98306,note_off,152,0,0,,6,,,66,127
98307,note_off,1,0,0,,12,,,59,127
98307,note_off,0,0,0,,12,,,47,127
98311,note_on,4,0,0,,12,,,59,127
98311,note_on,0,0,0,,4,,,52,127
98311,note_on,0,0,0,,8,,,68,127
98463,note_off,152,0,0,,8,,,68,127
98468,note_on,5,0,0,,12,,,83,127
98620,note_off,152,0,0,,12,,,83,127
98624,note_on,4,0,0,,2,,,74,127
98776,note_off,152,0,0,,2,,,74,127
98776,note_off,0,0,0,,4,,,52,127
98776,note_off,0,0,0,,12,,,59,127
98781,note_on,5,0,0,,10,,,45,127
98781,note_on,0,0,0,,10,,,57,127
98781,note_on,0,0,0,,1,,,73,127
98933,note_off,152,0,0,,1,,,73,127
98939,note_on,6,0,0,,10,,,81,127
99091,note_off,152,0,0,,10,,,81,127
99095,note_on,4,0,0,,1,,,73,127
99246,note_off,151,0,0,,10,,,57,127
99246,note_off,0,0,0,,10,,,45,127
99247,note_off,1,0,0,,1,,,73,127
99251,note_on,4,0,0,,2,,,50,127
99251,note_on,0,0,0,,2,,,62,127
99251,note_on,0,0,0,,12,,,71,127
99403,note_off,152,0,0,,12,,,71,127
99407,note_on,4,0,0,,6,,,78,127
99559,note_off,152,0,0,,6,,,78,127
99564,note_on,5,0,0,,2,,,74,127
99716,note_off,152,0,0,,2,,,62,127
99716,note_off,0,0,0,,2,,,50,127
99721,note_on,5,0,0,,4,,,52,127
99721,note_on,0,0,0,,4,,,64,127
99872,note_off,151,0,0,,2,,,74,127
99878,note_on,6,0,0,,12,,,71,127
100030,note_off,152,0,0,,12,,,71,127
100034,note_on,4,0,0,,8,,,68,127
100186,note_off,152,0,0,,8,,,68,127
100186,note_off,0,0,0,,4,,,64,127
100186,note_off,0,0,0,,4,,,52,127
100190,note_on,4,0,0,,10,,,45,127
100190,note_on,0,0,0,,10,,,69,127
100342,note_off,152,0,0,,10,,,45,127
100347,note_on,5,0,0,,12,,,47,127
100499,note_off,152,0,0,,12,,,47,127
100504,note_on,5,0,0,,1,,,49,127
100655,note_off,151,0,0,,10,,,69,127
100656,note_off,1,0,0,,1,,,49,127
100660,note_on,4,0,0,,2,,,50,127
100660,note_on,0,0,0,,10,,,81,127
100817,note_on,157,0,0,,10,,,69,127
100967,note_off,150,0,0,,10,,,81,127
100968,note_off,1,0,0,,2,,,50,127
100969,note_off,1,0,0,,10,,,69,127
100973,note_on,4,0,0,,4,,,52,127
100973,note_on,0,0,0,,8,,,68,127
101125,note_off,152,0,0,,8,,,68,127
101125,note_off,0,0,0,,4,,,52,127
101130,note_on,5,0,0,,10,,,45,127
101130,note_on,0,0,0,,10,,,69,127
101282,note_off,152,0,0,,10,,,45,127
101287,note_on,5,0,0,,12,,,47,127
101439,note_off,152,0,0,,12,,,47,127
101443,note_on,4,0,0,,1,,,49,127
101595,note_off,152,0,0,,1,,,49,127
101600,note_on,5,0,0,,2,,,50,127
101600,note_on,0,0,0,,10,,,81,127
101752,note_off,152,0,0,,10,,,69,127
101758,note_on,6,0,0,,10,,,69,127
101907,note_off,149,0,0,,10,,,81,127
101908,note_off,1,0,0,,2,,,50,127
101910,note_off,2,0,0,,10,,,69,127
101914,note_on,4,0,0,,4,,,52,127
101914,note_on,0,0,0,,8,,,68,127
102066,note_off,152,0,0,,8,,,68,127
102066,note_off,0,0,0,,4,,,52,127
102070,note_on,4,0,0,,1,,,49,127
102070,note_on,0,0,0,,4,,,76,127
102070,note_on,0,0,0,,1,,,73,127
102222,note_off,152,0,0,,1,,,73,127
102222,note_off,0,0,0,,4,,,76,127
102226,note_on,4,0,0,,2,,,74,127
102226,note_on,0,0,0,,12,,,71,127
102378,note_off,152,0,0,,12,,,71,127
102378,note_off,0,0,0,,2,,,74,127
102378,note_off,0,0,0,,1,,,49,127
102383,note_on,5,0,0,,6,,,54,127
102383,note_on,0,0,0,,1,,,73,127
102383,note_on,0,0,0,,10,,,69,127
102535,note_off,152,0,0,,10,,,69,127
102535,note_off,0,0,0,,1,,,73,127
102535,note_off,0,0,0,,6,,,54,127
102540,note_on,5,0,0,,2,,,50,127
102540,note_on,0,0,0,,2,,,74,127
102540,note_on,0,0,0,,12,,,71,127
102692,note_off,152,0,0,,12,,,71,127
102692,note_off,0,0,0,,2,,,74,127
102697,note_on,5,0,0,,1,,,73,127
102697,note_on,0,0,0,,10,,,69,127
102848,note_off,151,0,0,,2,,,50,127
102849,note_off,1,0,0,,10,,,69,127
102849,note_off,0,0,0,,1,,,73,127
102853,note_on,4,0,0,,4,,,52,127
102853,note_on,0,0,0,,12,,,71,127
102853,note_on,0,0,0,,8,,,68,127
103005,note_off,152,0,0,,8,,,68,127
103005,note_off,0,0,0,,12,,,71,127
103005,note_off,0,0,0,,4,,,52,127
103009,note_on,4,0,0,,10,,,69,127
103009,note_on,0,0,0,,10,,,45,127
103233,note_off,224,0,0,,10,,,45,127
103233,note_off,0,0,0,,10,,,69,127
103239,note_on,6,0,0,,4,,,76,127
103239,note_on,0,0,0,,4,,,64,127
103348,note_off,109,0,0,,4,,,64,127
103348,note_off,0,0,0,,4,,,76,127
103355,note_on,7,0,0,,2,,,74,127
103355,note_on,0,0,0,,2,,,62,127
103464,note_off,109,0,0,,2,,,62,127
103464,note_off,0,0,0,,2,,,74,127
103469,note_on,5,0,0,,0,,,72,127
103469,note_on,0,0,0,,0,,,60,127
103693,note_off,224,0,0,,0,,,60,127
103693,note_off,0,0,0,,0,,,72,127
103699,note_on,6,0,0,,0,,,72,127
103699,note_on,0,0,0,,0,,,60,127
103808,note_off,109,0,0,,0,,,60,127
103808,note_off,0,0,0,,0,,,72,127
103814,note_on,6,0,0,,12,,,71,127
103814,note_on,0,0,0,,12,,,59,127
103923,note_off,109,0,0,,12,,,59,127
103923,note_off,0,0,0,,12,,,71,127
103929,note_on,6,0,0,,10,,,69,127
103929,note_on,0,0,0,,10,,,57,127
104153,note_off,224,0,0,,10,,,57,127
104153,note_off,0,0,0,,10,,,69,127
104159,note_on,6,0,0,,10,,,69,127
104159,note_on,0,0,0,,10,,,57,127
104268,note_off,109,0,0,,10,,,57,127
104268,note_off,0,0,0,,10,,,69,127
104275,note_on,7,0,0,,7,,,67,127
104275,note_on,0,0,0,,7,,,55,127
104384,note_off,109,0,0,,7,,,55,127
104384,note_off,0,0,0,,7,,,67,127
104390,note_on,6,0,0,,7,,,67,127
104390,note_on,0,0,0,,7,,,55,127
104442,note_off,52,0,0,,7,,,55,127
104442,note_off,0,0,0,,7,,,67,127
104447,note_on,5,0,0,,5,,,65,127
104447,note_on,0,0,0,,5,,,53,127
104499,note_off,52,0,0,,5,,,53,127
104499,note_off,0,0,0,,5,,,65,127
104505,note_on,6,0,0,,7,,,67,127
104505,note_on,0,0,0,,7,,,55,127
104557,note_off,52,0,0,,7,,,55,127
104557,note_off,0,0,0,,7,,,67,127
104563,note_on,6,0,0,,5,,,65,127
104563,note_on,0,0,0,,5,,,53,127
104615,note_off,52,0,0,,5,,,53,127
104615,note_off,0,0,0,,5,,,65,127
104621,note_on,6,0,0,,7,,,67,127
104621,note_on,0,0,0,,7,,,55,127
104673,note_off,52,0,0,,7,,,55,127
104673,note_off,0,0,0,,7,,,67,127
104679,note_on,6,0,0,,5,,,65,127
104679,note_on,0,0,0,,5,,,53,127
104731,note_off,52,0,0,,5,,,53,127
104731,note_off,0,0,0,,5,,,65,127
104737,note_on,6,0,0,,7,,,67,127
104737,note_on,0,0,0,,7,,,55,127
104789,note_off,52,0,0,,7,,,55,127
104789,note_off,0,0,0,,7,,,67,127
104796,note_on,7,0,0,,5,,,65,127
104796,note_on,0,0,0,,5,,,53,127
104848,note_off,52,0,0,,5,,,53,127
104848,note_off,0,0,0,,5,,,65,127
104853,note_on,5,0,0,,4,,,64,127
104853,note_on,0,0,0,,4,,,52,127
105077,note_off,224,0,0,,4,,,52,127
105077,note_off,0,0,0,,4,,,64,127
105083,note_on,6,0,0,,6,,,66,127
105083,note_on,0,0,0,,2,,,50,127
105192,note_off,109,0,0,,6,,,66,127
105199,note_on,7,0,0,,8,,,68,127
105307,note_off,108,0,0,,2,,,50,127
105308,note_off,1,0,0,,8,,,68,127
105314,note_on,6,0,0,,10,,,69,127
105314,note_on,0,0,0,,0,,,48,127
105538,note_off,224,0,0,,0,,,48,127
105538,note_off,0,0,0,,10,,,69,127
105543,note_on,5,0,0,,12,,,71,127
105543,note_on,0,0,0,,0,,,48,127
105652,note_off,109,0,0,,12,,,71,127
105658,note_on,6,0,0,,0,,,72,127
105767,note_off,109,0,0,,0,,,72,127
105767,note_off,0,0,0,,0,,,48,127
105773,note_on,6,0,0,,2,,,74,127
105773,note_on,0,0,0,,12,,,47,127
105997,note_off,224,0,0,,12,,,47,127
105997,note_off,0,0,0,,2,,,74,127
106003,note_on,6,0,0,,0,,,72,127
106003,note_on,0,0,0,,12,,,47,127
106112,note_off,109,0,0,,0,,,72,127
106118,note_on,6,0,0,,12,,,71,127
106227,note_off,109,0,0,,12,,,71,127
106227,note_off,0,0,0,,12,,,47,127
106234,note_on,7,0,0,,12,,,71,127
106234,note_on,0,0,0,,0,,,48,127
106286,note_off,52,0,0,,12,,,71,127
106291,note_on,5,0,0,,10,,,69,127
106343,note_off,52,0,0,,10,,,69,127
106349,note_on,6,0,0,,12,,,71,127
106401,note_off,52,0,0,,12,,,71,127
106407,note_on,6,0,0,,10,,,69,127
106459,note_off,52,0,0,,10,,,69,127
106460,note_off,1,0,0,,0,,,48,127
106465,note_on,5,0,0,,8,,,68,127
106465,note_on,0,0,0,,10,,,45,127
106574,note_off,109,0,0,,8,,,68,127
106580,note_on,6,0,0,,10,,,69,127
106689,note_off,109,0,0,,10,,,69,127
106689,note_off,0,0,0,,10,,,45,127
106695,note_on,6,0,0,,12,,,71,127
106695,note_on,0,0,0,,4,,,40,127
106919,note_off,224,0,0,,4,,,40,127
106919,note_off,0,0,0,,12,,,71,127
106925,note_on,6,0,0,,4,,,76,127
106925,note_on,0,0,0,,4,,,64,127
107034,note_off,109,0,0,,4,,,64,127
107034,note_off,0,0,0,,4,,,76,127
107040,note_on,6,0,0,,2,,,74,127
107040,note_on,0,0,0,,2,,,62,127
107149,note_off,109,0,0,,2,,,62,127
107149,note_off,0,0,0,,2,,,74,127
107156,note_on,7,0,0,,0,,,72,127
107156,note_on,0,0,0,,0,,,60,127
107380,note_off,224,0,0,,0,,,60,127
107380,note_off,0,0,0,,0,,,72,127
107385,note_on,5,0,0,,0,,,72,127
107385,note_on,0,0,0,,0,,,60,127
107494,note_off,109,0,0,,0,,,60,127
107494,note_off,0,0,0,,0,,,72,127
107500,note_on,6,0,0,,12,,,71,127
107500,note_on,0,0,0,,12,,,59,127
107609,note_off,109,0,0,,12,,,59,127
107609,note_off,0,0,0,,12,,,71,127
107615,note_on,6,0,0,,10,,,69,127
107615,note_on,0,0,0,,10,,,57,127
107839,note_off,224,0,0,,10,,,57,127
107839,note_off,0,0,0,,10,,,69,127
107845,note_on,6,0,0,,10,,,69,127
107845,note_on,0,0,0,,10,,,57,127
107954,note_off,109,0,0,,10,,,57,127
107954,note_off,0,0,0,,10,,,69,127
107960,note_on,6,0,0,,7,,,67,127
107960,note_on,0,0,0,,7,,,55,127
108069,note_off,109,0,0,,7,,,55,127
108069,note_off,0,0,0,,7,,,67,127
108076,note_on,7,0,0,,7,,,67,127
108076,note_on,0,0,0,,7,,,55,127
108128,note_off,52,0,0,,7,,,55,127
108128,note_off,0,0,0,,7,,,67,127
108133,note_on,5,0,0,,5,,,65,127
108133,note_on,0,0,0,,5,,,53,127
108185,note_off,52,0,0,,5,,,53,127
108185,note_off,0,0,0,,5,,,65,127
108192,note_on,7,0,0,,7,,,67,127
108192,note_on,0,0,0,,7,,,55,127
108244,note_off,52,0,0,,7,,,55,127
108244,note_off,0,0,0,,7,,,67,127
108249,note_on,5,0,0,,5,,,65,127
108249,note_on,0,0,0,,5,,,53,127
108301,note_off,52,0,0,,5,,,53,127
108301,note_off,0,0,0,,5,,,65,127
108307,note_on,6,0,0,,7,,,67,127
108307,note_on,0,0,0,,7,,,55,127
108359,note_off,52,0,0,,7,,,55,127
108359,note_off,0,0,0,,7,,,67,127
108365,note_on,6,0,0,,5,,,65,127
108365,note_on,0,0,0,,5,,,53,127
108417,note_off,52,0,0,,5,,,53,127
108417,note_off,0,0,0,,5,,,65,127
108423,note_on,6,0,0,,7,,,67,127
108423,note_on,0,0,0,,7,,,55,127
108475,note_off,52,0,0,,7,,,55,127
108475,note_off,0,0,0,,7,,,67,127
108481,note_on,6,0,0,,5,,,65,127
108481,note_on,0,0,0,,5,,,53,127
108533,note_off,52,0,0,,5,,,53,127
108533,note_off,0,0,0,,5,,,65,127
108539,note_on,6,0,0,,4,,,64,127
108539,note_on,0,0,0,,4,,,52,127
108763,note_off,224,0,0,,4,,,52,127
108763,note_off,0,0,0,,4,,,64,127
108769,note_on,6,0,0,,6,,,66,127
108769,note_on,0,0,0,,2,,,50,127
108878,note_off,109,0,0,,6,,,66,127
108884,note_on,6,0,0,,8,,,68,127
108993,note_off,109,0,0,,8,,,68,127
108993,note_off,0,0,0,,2,,,50,127
108999,note_on,6,0,0,,10,,,69,127
108999,note_on,0,0,0,,0,,,48,127
109223,note_off,224,0,0,,0,,,48,127
109223,note_off,0,0,0,,10,,,69,127
109229,note_on,6,0,0,,12,,,71,127
109229,note_on,0,0,0,,0,,,48,127
109338,note_off,109,0,0,,12,,,71,127
109344,note_on,6,0,0,,0,,,72,127
109453,note_off,109,0,0,,0,,,72,127
109453,note_off,0,0,0,,0,,,48,127
109459,note_on,6,0,0,,2,,,74,127
109459,note_on,0,0,0,,12,,,47,127
109683,note_off,224,0,0,,12,,,47,127
109683,note_off,0,0,0,,2,,,74,127
109689,note_on,6,0,0,,0,,,72,127
109689,note_on,0,0,0,,10,,,45,127
109798,note_off,109,0,0,,0,,,72,127
109804,note_on,6,0,0,,12,,,71,127
109913,note_off,109,0,0,,12,,,71,127
109913,note_off,0,0,0,,10,,,45,127
109919,note_on,6,0,0,,0,,,72,127
109919,note_on,0,0,0,,4,,,52,127
110143,note_off,224,0,0,,0,,,72,127
110150,note_on,7,0,0,,12,,,71,127
110150,note_on,0,0,0,,4,,,40,127
110371,note_off,221,0,0,,4,,,52,127
110375,note_off,4,0,0,,4,,,40,127
110375,note_off,0,0,0,,12,,,71,127
110380,note_on,5,0,0,,10,,,69,127
110380,note_on,0,0,0,,10,,,45,127
110604,note_off,224,0,0,,10,,,45,127
110604,note_off,0,0,0,,10,,,69,127
110610,note_on,6,0,0,,0,,,48,127
110610,note_on,0,0,0,,10,,,81,127
110719,note_off,109,0,0,,10,,,81,127
110726,note_on,7,0,0,,4,,,76,127
110835,note_off,109,0,0,,4,,,76,127
110835,note_off,0,0,0,,0,,,48,127
110842,note_on,7,0,0,,2,,,50,127
110842,note_on,0,0,0,,5,,,77,127
110951,note_off,109,0,0,,5,,,77,127
110959,note_on,8,0,0,,2,,,74,127
111067,note_off,108,0,0,,2,,,50,127
111068,note_off,1,0,0,,2,,,74,127
111075,note_on,7,0,0,,8,,,56,127
111075,note_on,0,0,0,,4,,,76,127
111184,note_off,109,0,0,,4,,,76,127
111190,note_on,6,0,0,,12,,,71,127
111299,note_off,109,0,0,,12,,,71,127
111300,note_off,1,0,0,,8,,,56,127
111306,note_on,6,0,0,,10,,,57,127
111306,note_on,0,0,0,,0,,,72,127
111532,note_off,226,0,0,,0,,,72,127
111532,note_off,0,0,0,,10,,,57,127
111539,note_on,7,0,0,,0,,,48,127
111539,note_on,0,0,0,,4,,,76,127
111648,note_off,109,0,0,,4,,,76,127
111655,note_on,7,0,0,,10,,,69,127
111764,note_off,109,0,0,,10,,,69,127
111764,note_off,0,0,0,,0,,,48,127
111771,note_on,7,0,0,,2,,,50,127
111771,note_on,0,0,0,,12,,,71,127
111880,note_off,109,0,0,,12,,,71,127
111887,note_on,7,0,0,,2,,,74,127
111996,note_off,109,0,0,,2,,,74,127
111996,note_off,0,0,0,,2,,,50,127
112004,note_on,8,0,0,,4,,,52,127
112004,note_on,0,0,0,,12,,,71,127
112113,note_off,109,0,0,,12,,,71,127
112119,note_on,6,0,0,,8,,,68,127
112228,note_off,109,0,0,,8,,,68,127
112229,note_off,1,0,0,,4,,,52,127
112235,note_on,6,0,0,,10,,,45,127
112235,note_on,0,0,0,,10,,,69,127
112461,note_off,226,0,0,,10,,,69,127
112461,note_off,0,0,0,,10,,,45,127
112468,note_on,7,0,0,,10,,,57,127
112468,note_on,0,0,0,,10,,,81,127
112577,note_off,109,0,0,,10,,,81,127
112584,note_on,7,0,0,,7,,,79,127
112693,note_off,109,0,0,,7,,,79,127
112700,note_on,7,0,0,,7,,,79,127
112809,note_off,109,0,0,,7,,,79,127
112816,note_on,7,0,0,,5,,,77,127
112925,note_off,109,0,0,,5,,,77,127
112925,note_off,0,0,0,,10,,,57,127
112933,note_on,8,0,0,,12,,,59,127
112933,note_on,0,0,0,,4,,,76,127
113042,note_off,109,0,0,,4,,,76,127
113049,note_on,7,0,0,,2,,,74,127
113158,note_off,109,0,0,,2,,,74,127
113158,note_off,0,0,0,,12,,,59,127
113163,note_on,5,0,0,,0,,,60,127
113163,note_on,0,0,0,,0,,,72,127
113389,note_off,226,0,0,,0,,,72,127
113389,note_off,0,0,0,,0,,,60,127
113396,note_on,7,0,0,,2,,,50,127
113396,note_on,0,0,0,,5,,,77,127
113505,note_off,109,0,0,,5,,,77,127
113512,note_on,7,0,0,,4,,,76,127
113621,note_off,109,0,0,,4,,,76,127
113628,note_on,7,0,0,,4,,,76,127
113737,note_off,109,0,0,,4,,,76,127
113744,note_on,7,0,0,,2,,,74,127
113853,note_off,109,0,0,,2,,,74,127
113853,note_off,0,0,0,,2,,,50,127
113861,note_on,8,0,0,,4,,,52,127
113861,note_on,0,0,0,,0,,,72,127
113970,note_off,109,0,0,,0,,,72,127
113977,note_on,7,0,0,,12,,,71,127
114086,note_off,109,0,0,,12,,,71,127
114086,note_off,0,0,0,,4,,,52,127
114092,note_on,6,0,0,,10,,,57,127
114092,note_on,0,0,0,,0,,,72,127
114318,note_off,226,0,0,,0,,,72,127
114318,note_off,0,0,0,,10,,,57,127
114325,note_on,7,0,0,,2,,,50,127
114325,note_on,0,0,0,,2,,,74,127
114434,note_off,109,0,0,,2,,,74,127
114441,note_on,7,0,0,,0,,,72,127
114550,note_off,109,0,0,,0,,,72,127
114557,note_on,7,0,0,,0,,,72,127
114666,note_off,109,0,0,,0,,,72,127
114673,note_on,7,0,0,,12,,,71,127
114782,note_off,109,0,0,,12,,,71,127
114782,note_off,0,0,0,,2,,,50,127
114789,note_on,7,0,0,,4,,,52,127
114789,note_on,0,0,0,,10,,,69,127
114898,note_off,109,0,0,,10,,,69,127
114906,note_on,8,0,0,,8,,,68,127
115014,note_off,108,0,0,,4,,,52,127
115015,note_off,1,0,0,,8,,,68,127
115021,note_on,6,0,0,,5,,,53,127
115021,note_on,0,0,0,,10,,,69,127
115130,note_off,109,0,0,,10,,,69,127
115137,note_on,7,0,0,,2,,,74,127
115246,note_off,109,0,0,,2,,,74,127
115246,note_off,0,0,0,,5,,,53,127
115253,note_on,7,0,0,,2,,,50,127
115253,note_on,0,0,0,,0,,,72,127
115362,note_off,109,0,0,,0,,,72,127
115369,note_on,7,0,0,,12,,,71,127
115478,note_off,109,0,0,,12,,,71,127
115478,note_off,0,0,0,,2,,,50,127
115485,note_on,7,0,0,,4,,,52,127
115485,note_on,0,0,0,,4,,,76,127
115594,note_off,109,0,0,,4,,,76,127
115601,note_on,7,0,0,,10,,,69,127
115710,note_off,109,0,0,,10,,,69,127
115717,note_on,7,0,0,,4,,,40,127
115717,note_on,0,0,0,,12,,,71,127
115826,note_off,109,0,0,,12,,,71,127
115834,note_on,8,0,0,,8,,,68,127
115940,note_off,106,0,0,,4,,,52,127
115942,note_off,2,0,0,,4,,,40,127
115943,note_off,1,0,0,,8,,,68,127
115950,note_on,7,0,0,,10,,,45,127
115950,note_on,0,0,0,,10,,,69,127
116176,note_off,226,0,0,,10,,,69,127
116176,note_off,0,0,0,,10,,,45,127
116181,note_on,5,0,0,,0,,,48,127
116181,note_on,0,0,0,,10,,,81,127
116290,note_off,109,0,0,,10,,,81,127
116297,note_on,7,0,0,,4,,,76,127
116406,note_off,109,0,0,,4,,,76,127
116406,note_off,0,0,0,,0,,,48,127
116413,note_on,7,0,0,,2,,,50,127
116413,note_on,0,0,0,,5,,,77,127
116522,note_off,109,0,0,,5,,,77,127
116529,note_on,7,0,0,,2,,,74,127
116638,note_off,109,0,0,,2,,,74,127
116638,note_off,0,0,0,,2,,,50,127
116645,note_on,7,0,0,,8,,,56,127
116645,note_on,0,0,0,,4,,,76,127
116754,note_off,109,0,0,,4,,,76,127
116762,note_on,8,0,0,,12,,,71,127
116870,note_off,108,0,0,,8,,,56,127
116871,note_off,1,0,0,,12,,,71,127
116878,note_on,7,0,0,,10,,,57,127
116878,note_on,0,0,0,,0,,,72,127
117104,note_off,226,0,0,,0,,,72,127
117104,note_off,0,0,0,,10,,,57,127
117110,note_on,6,0,0,,0,,,48,127
117110,note_on,0,0,0,,4,,,76,127
117219,note_off,109,0,0,,4,,,76,127
117226,note_on,7,0,0,,10,,,69,127
117335,note_off,109,0,0,,10,,,69,127
117335,note_off,0,0,0,,0,,,48,127
117342,note_on,7,0,0,,2,,,50,127
117342,note_on,0,0,0,,12,,,71,127
117451,note_off,109,0,0,,12,,,71,127
117458,note_on,7,0,0,,2,,,74,127
117567,note_off,109,0,0,,2,,,74,127
117567,note_off,0,0,0,,2,,,50,127
117574,note_on,7,0,0,,4,,,52,127
117574,note_on,0,0,0,,12,,,71,127
117683,note_off,109,0,0,,12,,,71,127
117690,note_on,7,0,0,,8,,,68,127
117799,note_off,109,0,0,,8,,,68,127
117799,note_off,0,0,0,,4,,,52,127
117807,note_on,8,0,0,,10,,,45,127
117807,note_on,0,0,0,,10,,,69,127
118033,note_off,226,0,0,,10,,,69,127
118033,note_off,0,0,0,,10,,,45,127
118039,note_on,6,0,0,,0,,,48,127
118039,note_on,0,0,0,,10,,,81,127
118148,note_off,109,0,0,,10,,,81,127
118155,note_on,7,0,0,,4,,,76,127
118264,note_off,109,0,0,,4,,,76,127
118264,note_off,0,0,0,,0,,,48,127
118271,note_on,7,0,0,,2,,,50,127
118271,note_on,0,0,0,,5,,,77,127
118380,note_off,109,0,0,,5,,,77,127
118387,note_on,7,0,0,,2,,,74,127
118496,note_off,109,0,0,,2,,,74,127
118496,note_off,0,0,0,,2,,,50,127
118503,note_on,7,0,0,,12,,,47,127
118503,note_on,0,0,0,,8,,,80,127
118612,note_off,109,0,0,,8,,,80,127
118619,note_on,7,0,0,,4,,,76,127
118728,note_off,109,0,0,,4,,,76,127
118728,note_off,0,0,0,,12,,,47,127
118736,note_on,8,0,0,,0,,,48,127
118736,note_on,0,0,0,,10,,,81,127
118845,note_off,109,0,0,,10,,,81,127
118852,note_on,7,0,0,,4,,,76,127
118961,note_off,109,0,0,,4,,,76,127
118961,note_off,0,0,0,,0,,,48,127
118966,note_on,5,0,0,,2,,,50,127
118966,note_on,0,0,0,,5,,,77,127
119075,note_off,109,0,0,,5,,,77,127
119082,note_on,7,0,0,,2,,,74,127
119191,note_off,109,0,0,,2,,,74,127
119191,note_off,0,0,0,,2,,,50,127
119198,note_on,7,0,0,,4,,,52,127
119198,note_on,0,0,0,,0,,,72,127
119314,note_on,116,0,0,,10,,,81,127
119327,note_off,13,0,0,,0,,,72,127
119423,note_off,96,0,0,,4,,,52,127
119430,note_on,7,0,0,,2,,,50,127
119430,note_on,0,0,0,,12,,,71,127
119443,note_off,13,0,0,,10,,,81,127
119546,note_on,103,0,0,,8,,,80,127
119559,note_off,13,0,0,,12,,,71,127
119655,note_off,96,0,0,,8,,,80,127
119655,note_off,0,0,0,,2,,,50,127
119663,note_on,8,0,0,,0,,,48,127
119663,note_on,0,0,0,,10,,,81,127
119772,note_off,109,0,0,,10,,,81,127
119779,note_on,7,0,0,,4,,,76,127
119888,note_off,109,0,0,,4,,,76,127
119888,note_off,0,0,0,,0,,,48,127
119894,note_on,6,0,0,,2,,,50,127
119894,note_on,0,0,0,,5,,,77,127
120003,note_off,109,0,0,,5,,,77,127
120010,note_on,7,0,0,,2,,,74,127
120119,note_off,109,0,0,,2,,,74,127
120119,note_off,0,0,0,,2,,,50,127
120126,note_on,7,0,0,,4,,,52,127
120126,note_on,0,0,0,,0,,,72,127
120242,note_on,116,0,0,,10,,,81,127
120296,note_off,54,0,0,,0,,,72,127
120351,note_off,55,0,0,,4,,,52,127
120358,note_on,7,0,0,,2,,,50,127
120358,note_on,0,0,0,,12,,,71,127
120412,note_off,54,0,0,,10,,,81,127
120474,note_on,62,0,0,,8,,,80,127
120528,note_off,54,0,0,,12,,,71,127
120583,note_off,55,0,0,,2,,,50,127
120595,note_off,12,0,0,,8,,,80,127
120605,note_on,10,0,0,,0,,,48,127
120605,note_on,0,0,0,,10,,,81,127
120719,note_off,114,0,0,,10,,,81,127
120729,note_on,10,0,0,,4,,,76,127
120842,note_off,113,0,0,,0,,,48,127
120843,note_off,1,0,0,,4,,,76,127
120853,note_on,10,0,0,,2,,,50,127
120853,note_on,0,0,0,,5,,,77,127
120967,note_off,114,0,0,,5,,,77,127
120975,note_on,8,0,0,,2,,,74,127
121089,note_off,114,0,0,,2,,,74,127
121089,note_off,0,0,0,,2,,,50,127
121097,note_on,8,0,0,,4,,,52,127
121097,note_on,0,0,0,,10,,,69,127
121333,note_off,236,0,0,,10,,,69,127
121375,note_on,42,0,0,,8,,,68,127
121375,note_on,0,0,0,,4,,,40,127
121575,note_off,200,0,0,,4,,,52,127
121635,note_off,60,0,0,,4,,,40,127
121635,note_off,0,0,0,,8,,,68,127
121671,note_on,36,0,0,,10,,,69,127
121671,note_on,0,0,0,,10,,,45,127
123611,note_off,1940,0,0,,10,,,45,127
123611,note_off,0,0,0,,10,,,69,127
129024,end_of_track,5413,1,0,,,,,,
