tick,type,time,meta,track,program,channel,pitch,tempo,note,velocity
0,copyright,0,1,0,,,,,,
0,program_change,0,0,0,6,0,,,,
0,pitchwheel,0,0,0,,0,0,,,
0,program_change,0,0,0,6,1,,,,
0,pitchwheel,0,0,0,,1,-590,,,
0,program_change,0,0,0,6,2,,,,
0,pitchwheel,0,0,0,,2,-272,,,
0,program_change,0,0,0,6,3,,,,
0,pitchwheel,0,0,0,,3,-353,,,
0,program_change,0,0,0,6,4,,,,
0,pitchwheel,0,0,0,,4,-560,,,
0,program_change,0,0,0,6,5,,,,
0,pitchwheel,0,0,0,,5,-80,,,
0,program_change,0,0,0,6,6,,,,
0,pitchwheel,0,0,0,,6,-625,,,
0,program_change,0,0,0,6,7,,,,
0,pitchwheel,0,0,0,,7,-130,,,
0,program_change,0,0,0,6,8,,,,
0,pitchwheel,0,0,0,,8,-512,,,
0,program_change,0,0,0,6,10,,,,
0,pitchwheel,0,0,0,,10,-464,,,
0,program_change,0,0,0,6,11,,,,
0,pitchwheel,0,0,0,,11,-208,,,
0,program_change,0,0,0,6,12,,,,
0,pitchwheel,0,0,0,,12,-553,,,
0,set_tempo,0,1,0,,,,500000,,
105,note_on,105,0,0,,11,,,46,127
105,note_on,0,0,0,,11,,,58,127
313,note_off,208,0,0,,11,,,58,127
314,note_on,1,0,0,,2,,,74,127
418,note_off,104,0,0,,2,,,74,127
419,note_on,1,0,0,,3,,,75,127
523,note_off,104,0,0,,3,,,75,127
524,note_on,1,0,0,,5,,,77,127
732,note_off,208,0,0,,5,,,77,127
733,note_on,1,0,0,,2,,,74,127
838,note_off,105,0,0,,11,,,46,127
942,note_off,104,0,0,,2,,,74,127
943,note_on,1,0,0,,3,,,63,127
943,note_on,0,0,0,,7,,,79,127
1151,note_off,208,0,0,,7,,,79,127
1152,note_on,1,0,0,,3,,,75,127
1360,note_off,208,0,0,,3,,,63,127
1361,note_on,1,0,0,,5,,,65,127
1569,note_off,208,0,0,,3,,,75,127
1570,note_on,1,0,0,,0,,,72,127
1778,note_off,208,0,0,,0,,,72,127
1778,note_off,0,0,0,,5,,,65,127
1779,note_on,1,0,0,,11,,,58,127
1779,note_on,0,0,0,,2,,,74,127
1987,note_off,208,0,0,,2,,,74,127
1988,note_on,1,0,0,,2,,,74,127
2092,note_off,104,0,0,,2,,,74,127
2093,note_on,1,0,0,,3,,,75,127
2197,note_off,104,0,0,,3,,,75,127
2198,note_on,1,0,0,,5,,,77,127
2406,note_off,208,0,0,,5,,,77,127
2407,note_on,1,0,0,,11,,,70,127
2512,note_off,105,0,0,,11,,,58,127
2616,note_off,104,0,0,,11,,,70,127
2617,note_on,1,0,0,,3,,,63,127
2617,note_on,0,0,0,,3,,,75,127
2825,note_off,208,0,0,,3,,,75,127
2826,note_on,1,0,0,,0,,,72,127
3034,note_off,208,0,0,,3,,,63,127
3035,note_on,1,0,0,,5,,,65,127
3243,note_off,208,0,0,,0,,,72,127
3244,note_on,1,0,0,,10,,,69,127
3452,note_off,208,0,0,,10,,,69,127
3452,note_off,0,0,0,,5,,,65,127
3453,note_on,1,0,0,,11,,,58,127
3453,note_on,0,0,0,,11,,,70,127
3661,note_off,208,0,0,,11,,,70,127
3662,note_on,1,0,0,,2,,,74,127
3766,note_off,104,0,0,,2,,,74,127
3767,note_on,1,0,0,,3,,,75,127
3871,note_off,104,0,0,,3,,,75,127
3872,note_on,1,0,0,,5,,,77,127
4080,note_off,208,0,0,,5,,,77,127
4081,note_on,1,0,0,,2,,,74,127
4186,note_off,105,0,0,,11,,,58,127
4290,note_off,104,0,0,,2,,,74,127
4291,note_on,1,0,0,,3,,,63,127
4291,note_on,0,0,0,,7,,,79,127
4499,note_off,208,0,0,,7,,,79,127
4500,note_on,1,0,0,,7,,,79,127
4708,note_off,208,0,0,,3,,,63,127
4709,note_on,1,0,0,,0,,,60,127
4917,note_off,208,0,0,,7,,,79,127
4918,note_on,1,0,0,,10,,,81,127
5126,note_off,208,0,0,,10,,,81,127
5126,note_off,0,0,0,,0,,,60,127
5127,note_on,1,0,0,,2,,,62,127
5127,note_on,0,0,0,,11,,,82,127
5335,note_off,208,0,0,,11,,,82,127
5336,note_on,1,0,0,,5,,,77,127
5440,note_off,104,0,0,,5,,,77,127
5441,note_on,1,0,0,,2,,,74,127
5545,note_off,104,0,0,,2,,,74,127
5546,note_on,1,0,0,,11,,,70,127
5754,note_off,208,0,0,,11,,,70,127
5754,note_off,0,0,0,,2,,,62,127
5755,note_on,1,0,0,,11,,,70,127
5964,note_on,209,0,0,,7,,,67,127
6172,note_off,208,0,0,,7,,,67,127
6172,note_off,0,0,0,,11,,,70,127
6173,note_on,1,0,0,,0,,,60,127
6173,note_on,0,0,0,,0,,,72,127
6277,note_off,104,0,0,,0,,,72,127
6278,note_on,1,0,0,,7,,,67,127
6382,note_off,104,0,0,,7,,,67,127
6382,note_off,0,0,0,,0,,,60,127
6383,note_on,1,0,0,,5,,,65,127
6383,note_on,0,0,0,,11,,,70,127
6434,note_off,51,0,0,,11,,,70,127
6435,note_on,1,0,0,,10,,,69,127
6486,note_off,51,0,0,,10,,,69,127
6487,note_on,1,0,0,,11,,,70,127
6538,note_off,51,0,0,,11,,,70,127
6539,note_on,1,0,0,,10,,,69,127
6590,note_off,51,0,0,,10,,,69,127
6590,note_off,0,0,0,,5,,,65,127
6591,note_on,1,0,0,,5,,,53,127
6591,note_on,0,0,0,,11,,,70,127
6642,note_off,51,0,0,,11,,,70,127
6643,note_on,1,0,0,,10,,,69,127
6694,note_off,51,0,0,,10,,,69,127
6695,note_on,1,0,0,,7,,,67,127
6746,note_off,51,0,0,,7,,,67,127
6747,note_on,1,0,0,,10,,,69,127
6798,note_off,51,0,0,,10,,,69,127
6798,note_off,0,0,0,,5,,,53,127
6799,note_on,1,0,0,,11,,,58,127
6799,note_on,0,0,0,,11,,,46,127
6799,note_on,0,0,0,,11,,,70,127
7008,note_on,209,0,0,,2,,,74,127
7104,note_off,96,0,0,,11,,,70,127
7113,note_on,9,0,0,,11,,,70,127
7216,note_off,103,0,0,,2,,,74,127
7217,note_off,1,0,0,,11,,,70,127
7217,note_off,0,0,0,,11,,,46,127
7217,note_off,0,0,0,,11,,,58,127
7218,note_on,1,0,0,,5,,,77,127
7427,note_on,209,0,0,,11,,,70,127
7427,note_on,0,0,0,,2,,,74,127
7635,note_off,208,0,0,,2,,,74,127
7635,note_off,0,0,0,,11,,,70,127
7635,note_off,0,0,0,,5,,,77,127
7636,note_on,1,0,0,,10,,,69,127
7636,note_on,0,0,0,,0,,,72,127
7844,note_off,208,0,0,,0,,,72,127
7844,note_off,0,0,0,,10,,,69,127
7845,note_on,1,0,0,,7,,,67,127
7845,note_on,0,0,0,,11,,,70,127
8053,note_off,208,0,0,,11,,,70,127
8053,note_off,0,0,0,,7,,,67,127
8054,note_on,1,0,0,,5,,,65,127
8054,note_on,0,0,0,,10,,,69,127
8262,note_off,208,0,0,,10,,,69,127
8262,note_off,0,0,0,,5,,,65,127
8263,note_on,1,0,0,,3,,,63,127
8263,note_on,0,0,0,,7,,,67,127
8471,note_off,208,0,0,,7,,,67,127
8471,note_off,0,0,0,,3,,,63,127
8472,note_on,1,0,0,,2,,,62,127
8472,note_on,0,0,0,,5,,,65,127
8680,note_off,208,0,0,,5,,,65,127
8681,note_on,1,0,0,,2,,,74,127
8786,note_on,105,0,0,,11,,,70,127
8889,note_off,103,0,0,,2,,,74,127
8890,note_off,1,0,0,,11,,,70,127
8890,note_off,0,0,0,,2,,,62,127
8891,note_on,1,0,0,,5,,,77,127
9100,note_on,209,0,0,,11,,,70,127
9100,note_on,0,0,0,,2,,,74,127
9308,note_off,208,0,0,,2,,,74,127
9308,note_off,0,0,0,,11,,,70,127
9308,note_off,0,0,0,,5,,,77,127
9309,note_on,1,0,0,,10,,,69,127
9309,note_on,0,0,0,,1,,,73,127
9517,note_off,208,0,0,,1,,,73,127
9517,note_off,0,0,0,,10,,,69,127
9518,note_on,1,0,0,,7,,,67,127
9518,note_on,0,0,0,,11,,,70,127
9726,note_off,208,0,0,,11,,,70,127
9726,note_off,0,0,0,,7,,,67,127
9727,note_on,1,0,0,,5,,,65,127
9727,note_on,0,0,0,,10,,,69,127
9935,note_off,208,0,0,,10,,,69,127
9935,note_off,0,0,0,,5,,,65,127
9936,note_on,1,0,0,,4,,,64,127
9936,note_on,0,0,0,,7,,,67,127
10144,note_off,208,0,0,,7,,,67,127
10144,note_off,0,0,0,,4,,,64,127
10145,note_on,1,0,0,,2,,,62,127
10145,note_on,0,0,0,,5,,,65,127
10353,note_off,208,0,0,,5,,,65,127
10354,note_on,1,0,0,,5,,,77,127
10459,note_on,105,0,0,,2,,,74,127
10562,note_off,103,0,0,,5,,,77,127
10563,note_off,1,0,0,,2,,,74,127
10563,note_off,0,0,0,,2,,,62,127
10564,note_on,1,0,0,,10,,,81,127
10773,note_on,209,0,0,,2,,,74,127
10773,note_on,0,0,0,,5,,,77,127
10981,note_off,208,0,0,,5,,,77,127
10981,note_off,0,0,0,,2,,,74,127
10981,note_off,0,0,0,,10,,,81,127
10982,note_on,1,0,0,,0,,,72,127
10982,note_on,0,0,0,,4,,,76,127
11190,note_off,208,0,0,,4,,,76,127
11190,note_off,0,0,0,,0,,,72,127
11191,note_on,1,0,0,,11,,,70,127
11191,note_on,0,0,0,,2,,,74,127
11399,note_off,208,0,0,,2,,,74,127
11399,note_off,0,0,0,,11,,,70,127
11400,note_on,1,0,0,,10,,,69,127
11400,note_on,0,0,0,,0,,,72,127
11608,note_off,208,0,0,,0,,,72,127
11608,note_off,0,0,0,,10,,,69,127
11609,note_on,1,0,0,,7,,,67,127
11609,note_on,0,0,0,,11,,,70,127
11817,note_off,208,0,0,,11,,,70,127
11817,note_off,0,0,0,,7,,,67,127
11818,note_on,1,0,0,,5,,,65,127
11818,note_on,0,0,0,,10,,,69,127
12026,note_off,208,0,0,,10,,,69,127
12027,note_on,1,0,0,,5,,,77,127
12132,note_on,105,0,0,,2,,,74,127
12235,note_off,103,0,0,,5,,,77,127
12236,note_off,1,0,0,,2,,,74,127
12236,note_off,0,0,0,,5,,,65,127
12237,note_on,1,0,0,,10,,,81,127
12446,note_on,209,0,0,,2,,,74,127
12446,note_on,0,0,0,,5,,,77,127
12654,note_off,208,0,0,,5,,,77,127
12654,note_off,0,0,0,,2,,,74,127
12654,note_off,0,0,0,,10,,,81,127
12655,note_on,1,0,0,,0,,,72,127
12655,note_on,0,0,0,,3,,,75,127
12863,note_off,208,0,0,,3,,,75,127
12863,note_off,0,0,0,,0,,,72,127
12864,note_on,1,0,0,,11,,,70,127
12864,note_on,0,0,0,,2,,,74,127
13072,note_off,208,0,0,,2,,,74,127
13072,note_off,0,0,0,,11,,,70,127
13073,note_on,1,0,0,,10,,,69,127
13073,note_on,0,0,0,,0,,,72,127
13281,note_off,208,0,0,,0,,,72,127
13281,note_off,0,0,0,,10,,,69,127
13282,note_on,1,0,0,,7,,,67,127
13282,note_on,0,0,0,,11,,,70,127
13490,note_off,208,0,0,,11,,,70,127
13490,note_off,0,0,0,,7,,,67,127
13491,note_on,1,0,0,,6,,,66,127
13491,note_on,0,0,0,,10,,,69,127
13700,note_on,209,0,0,,10,,,81,127
13804,note_off,104,0,0,,10,,,81,127
13805,note_off,1,0,0,,10,,,69,127
13805,note_on,0,0,0,,11,,,82,127
13909,note_off,104,0,0,,11,,,82,127
13910,note_on,1,0,0,,0,,,84,127
14037,note_off,127,0,0,,6,,,66,127
14119,note_off,82,0,0,,0,,,84,127
14120,note_on,1,0,0,,7,,,67,127
14120,note_on,0,0,0,,11,,,82,127
14120,note_on,0,0,0,,2,,,74,127
14328,note_off,208,0,0,,2,,,74,127
14328,note_off,0,0,0,,11,,,82,127
14328,note_off,0,0,0,,7,,,67,127
14329,note_on,1,0,0,,0,,,60,127
14329,note_on,0,0,0,,3,,,75,127
14329,note_on,0,0,0,,10,,,81,127
14537,note_off,208,0,0,,10,,,81,127
14538,note_on,1,0,0,,6,,,78,127
14746,note_off,208,0,0,,3,,,75,127
14746,note_off,0,0,0,,0,,,60,127
14747,note_on,1,0,0,,3,,,63,127
14747,note_on,0,0,0,,0,,,72,127
14955,note_off,208,0,0,,6,,,78,127
14956,note_on,1,0,0,,7,,,79,127
15164,note_off,208,0,0,,7,,,79,127
15164,note_off,0,0,0,,0,,,72,127
15164,note_off,0,0,0,,3,,,63,127
15165,note_on,1,0,0,,2,,,62,127
15165,note_on,0,0,0,,10,,,81,127
15165,note_on,0,0,0,,2,,,74,127
15373,note_off,208,0,0,,10,,,81,127
15374,note_on,1,0,0,,10,,,81,127
15478,note_off,104,0,0,,10,,,81,127
15479,note_off,1,0,0,,2,,,74,127
15479,note_on,0,0,0,,11,,,82,127
15583,note_off,104,0,0,,11,,,82,127
15583,note_off,0,0,0,,2,,,62,127
15584,note_on,1,0,0,,0,,,84,127
15792,note_off,208,0,0,,0,,,84,127
15793,note_on,1,0,0,,7,,,67,127
15793,note_on,0,0,0,,11,,,82,127
15793,note_on,0,0,0,,2,,,74,127
16001,note_off,208,0,0,,2,,,74,127
16001,note_off,0,0,0,,11,,,82,127
16001,note_off,0,0,0,,7,,,67,127
16002,note_on,1,0,0,,0,,,60,127
16002,note_on,0,0,0,,10,,,81,127
16002,note_on,0,0,0,,3,,,75,127
16210,note_off,208,0,0,,10,,,81,127
16211,note_on,1,0,0,,6,,,78,127
16419,note_off,208,0,0,,3,,,75,127
16419,note_off,0,0,0,,0,,,60,127
16420,note_on,1,0,0,,3,,,63,127
16420,note_on,0,0,0,,0,,,72,127
16628,note_off,208,0,0,,6,,,78,127
16629,note_on,1,0,0,,7,,,79,127
16837,note_off,208,0,0,,7,,,79,127
16837,note_off,0,0,0,,0,,,72,127
16837,note_off,0,0,0,,3,,,63,127
16838,note_on,1,0,0,,2,,,50,127
16838,note_on,0,0,0,,2,,,62,127
16838,note_on,0,0,0,,10,,,81,127
16942,note_off,104,0,0,,10,,,81,127
16943,note_on,1,0,0,,2,,,74,127
17047,note_off,104,0,0,,2,,,74,127
17048,note_on,1,0,0,,3,,,75,127
17152,note_off,104,0,0,,3,,,75,127
17153,note_on,1,0,0,,0,,,72,127
17257,note_off,104,0,0,,0,,,72,127
17258,note_on,1,0,0,,2,,,74,127
17362,note_off,104,0,0,,2,,,74,127
17363,note_on,1,0,0,,11,,,70,127
17467,note_off,104,0,0,,11,,,70,127
17468,note_on,1,0,0,,0,,,72,127
17572,note_off,104,0,0,,0,,,72,127
17573,note_on,1,0,0,,10,,,69,127
17677,note_off,104,0,0,,10,,,69,127
17677,note_off,0,0,0,,2,,,62,127
17677,note_off,0,0,0,,2,,,50,127
17678,note_on,1,0,0,,7,,,43,127
17678,note_on,0,0,0,,7,,,55,127
17678,note_on,0,0,0,,11,,,70,127
17782,note_off,104,0,0,,11,,,70,127
17783,note_on,1,0,0,,7,,,67,127
17887,note_off,104,0,0,,7,,,67,127
17888,note_on,1,0,0,,10,,,69,127
17992,note_off,104,0,0,,10,,,69,127
17993,note_on,1,0,0,,6,,,66,127
18097,note_off,104,0,0,,6,,,66,127
18098,note_on,1,0,0,,7,,,67,127
18202,note_off,104,0,0,,7,,,67,127
18203,note_on,1,0,0,,3,,,63,127
18307,note_off,104,0,0,,3,,,63,127
18308,note_on,1,0,0,,5,,,65,127
18412,note_off,104,0,0,,5,,,65,127
18413,note_on,1,0,0,,2,,,62,127
18517,note_off,104,0,0,,2,,,62,127
18517,note_off,0,0,0,,7,,,55,127
18517,note_off,0,0,0,,7,,,43,127
18518,note_on,1,0,0,,0,,,48,127
18518,note_on,0,0,0,,0,,,36,127
18518,note_on,0,0,0,,3,,,63,127
18622,note_off,104,0,0,,3,,,63,127
18623,note_on,1,0,0,,0,,,60,127
18727,note_off,104,0,0,,0,,,60,127
18728,note_on,1,0,0,,2,,,62,127
18832,note_off,104,0,0,,2,,,62,127
18833,note_on,1,0,0,,11,,,58,127
18937,note_off,104,0,0,,11,,,58,127
18938,note_on,1,0,0,,0,,,60,127
19042,note_off,104,0,0,,0,,,60,127
19043,note_on,1,0,0,,10,,,57,127
19147,note_off,104,0,0,,10,,,57,127
19148,note_on,1,0,0,,11,,,58,127
19252,note_off,104,0,0,,11,,,58,127
19253,note_on,1,0,0,,7,,,55,127
19357,note_off,104,0,0,,0,,,36,127
19357,note_off,0,0,0,,0,,,48,127
19358,note_on,1,0,0,,2,,,38,127
19358,note_on,0,0,0,,2,,,50,127
19566,note_off,208,0,0,,7,,,55,127
19567,note_on,1,0,0,,6,,,54,127
20091,note_off,524,0,0,,6,,,54,127
20195,note_off,104,0,0,,2,,,50,127
20195,note_off,0,0,0,,2,,,38,127
20196,note_on,1,0,0,,2,,,38,127
20196,note_on,0,0,0,,2,,,50,127
20301,note_on,105,0,0,,2,,,62,127
20405,note_off,104,0,0,,2,,,62,127
20406,note_on,1,0,0,,6,,,66,127
20510,note_off,104,0,0,,6,,,66,127
20511,note_on,1,0,0,,10,,,69,127
20615,note_off,104,0,0,,10,,,69,127
20616,note_on,1,0,0,,0,,,84,127
20720,note_off,104,0,0,,2,,,50,127
20720,note_off,0,0,0,,2,,,38,127
20721,note_on,1,0,0,,10,,,57,127
20825,note_off,104,0,0,,10,,,57,127
20826,note_on,1,0,0,,6,,,54,127
20930,note_off,104,0,0,,6,,,54,127
20931,note_on,1,0,0,,2,,,50,127
21035,note_off,104,0,0,,2,,,50,127
21036,note_on,1,0,0,,7,,,43,127
21140,note_off,104,0,0,,0,,,84,127
21141,note_on,1,0,0,,2,,,86,127
21245,note_off,104,0,0,,2,,,86,127
21246,note_on,1,0,0,,10,,,81,127
21350,note_off,104,0,0,,10,,,81,127
21351,note_on,1,0,0,,0,,,84,127
21455,note_off,104,0,0,,0,,,84,127
21456,note_on,1,0,0,,0,,,84,127
21507,note_off,51,0,0,,0,,,84,127
21508,note_on,1,0,0,,11,,,82,127
21559,note_off,51,0,0,,11,,,82,127
21559,note_off,0,0,0,,7,,,43,127
21560,note_on,1,0,0,,2,,,62,127
21560,note_on,0,0,0,,0,,,84,127
21611,note_off,51,0,0,,0,,,84,127
21612,note_on,1,0,0,,11,,,82,127
21663,note_off,51,0,0,,2,,,62,127
21664,note_on,1,0,0,,11,,,58,127
21768,note_off,104,0,0,,11,,,58,127
21769,note_on,1,0,0,,7,,,55,127
21873,note_off,104,0,0,,7,,,55,127
21874,note_on,1,0,0,,2,,,38,127
21978,note_off,104,0,0,,11,,,82,127
21979,note_on,1,0,0,,2,,,62,127
22083,note_off,104,0,0,,2,,,62,127
22084,note_on,1,0,0,,6,,,66,127
22188,note_off,104,0,0,,6,,,66,127
22189,note_on,1,0,0,,10,,,69,127
22293,note_off,104,0,0,,10,,,69,127
22294,note_on,1,0,0,,0,,,84,127
22398,note_off,104,0,0,,2,,,38,127
22399,note_on,1,0,0,,10,,,57,127
22503,note_off,104,0,0,,10,,,57,127
22504,note_on,1,0,0,,6,,,54,127
22608,note_off,104,0,0,,6,,,54,127
22609,note_on,1,0,0,,2,,,50,127
22713,note_off,104,0,0,,2,,,50,127
22714,note_on,1,0,0,,7,,,43,127
22818,note_off,104,0,0,,0,,,84,127
22819,note_on,1,0,0,,2,,,86,127
22923,note_off,104,0,0,,2,,,86,127
22924,note_on,1,0,0,,10,,,81,127
23028,note_off,104,0,0,,10,,,81,127
23029,note_on,1,0,0,,0,,,84,127
23133,note_off,104,0,0,,0,,,84,127
23134,note_on,1,0,0,,11,,,82,127
23238,note_off,104,0,0,,11,,,82,127
23239,note_on,1,0,0,,2,,,86,127
23274,note_off,35,0,0,,7,,,43,127
23343,note_off,69,0,0,,2,,,86,127
23344,note_on,1,0,0,,11,,,58,127
23344,note_on,0,0,0,,7,,,79,127
23448,note_off,104,0,0,,7,,,79,127
23449,note_on,1,0,0,,11,,,82,127
23553,note_off,104,0,0,,11,,,82,127
23553,note_off,0,0,0,,11,,,58,127
23554,note_on,1,0,0,,0,,,60,127
23554,note_on,0,0,0,,3,,,75,127
23658,note_off,104,0,0,,3,,,75,127
23659,note_on,1,0,0,,7,,,79,127
23763,note_off,104,0,0,,7,,,79,127
23764,note_on,1,0,0,,0,,,72,127
23868,note_off,104,0,0,,0,,,72,127
23869,note_on,1,0,0,,3,,,75,127
23974,note_on,105,0,0,,0,,,48,127
23974,note_on,0,0,0,,3,,,63,127
24077,note_off,103,0,0,,3,,,75,127
24079,note_on,2,0,0,,0,,,72,127
24182,note_off,103,0,0,,3,,,63,127
24183,note_off,1,0,0,,0,,,72,127
24184,note_on,1,0,0,,11,,,70,127
24288,note_off,104,0,0,,11,,,70,127
24289,note_on,1,0,0,,10,,,69,127
24393,note_off,104,0,0,,10,,,69,127
24393,note_off,0,0,0,,0,,,48,127
24393,note_off,0,0,0,,0,,,60,127
24394,note_on,1,0,0,,11,,,58,127
24394,note_on,0,0,0,,7,,,55,127
24394,note_on,0,0,0,,2,,,50,127
24394,note_on,0,0,0,,11,,,70,127
24498,note_off,104,0,0,,11,,,70,127
24499,note_on,1,0,0,,0,,,72,127
24603,note_off,104,0,0,,0,,,72,127
24604,note_on,1,0,0,,2,,,74,127
24708,note_off,104,0,0,,2,,,74,127
24709,note_on,1,0,0,,7,,,67,127
24813,note_off,104,0,0,,7,,,67,127
24813,note_off,0,0,0,,2,,,50,127
24813,note_off,0,0,0,,7,,,55,127
24813,note_off,0,0,0,,11,,,58,127
24814,note_on,1,0,0,,2,,,50,127
24814,note_on,0,0,0,,10,,,57,127
24814,note_on,0,0,0,,11,,,70,127
24918,note_off,104,0,0,,11,,,70,127
24919,note_on,1,0,0,,10,,,69,127
25023,note_off,104,0,0,,10,,,69,127
25024,note_on,1,0,0,,7,,,67,127
25128,note_off,104,0,0,,7,,,67,127
25129,note_on,1,0,0,,6,,,66,127
25233,note_off,104,0,0,,6,,,66,127
25233,note_off,0,0,0,,10,,,57,127
25233,note_off,0,0,0,,2,,,50,127
25234,note_on,1,0,0,,7,,,43,127
25234,note_on,0,0,0,,7,,,55,127
25234,note_on,0,0,0,,7,,,67,127
25338,note_off,104,0,0,,7,,,67,127
25339,note_on,1,0,0,,2,,,62,127
25443,note_off,104,0,0,,2,,,62,127
25444,note_on,1,0,0,,11,,,70,127
25548,note_off,104,0,0,,11,,,70,127
25549,note_on,1,0,0,,7,,,67,127
25653,note_off,104,0,0,,7,,,67,127
25654,note_on,1,0,0,,2,,,74,127
25758,note_off,104,0,0,,7,,,55,127
25758,note_off,0,0,0,,7,,,43,127
25759,note_on,1,0,0,,2,,,62,127
25863,note_off,104,0,0,,2,,,62,127
25864,note_on,1,0,0,,11,,,58,127
25968,note_off,104,0,0,,11,,,58,127
25969,note_on,1,0,0,,7,,,55,127
26073,note_off,104,0,0,,7,,,55,127
26074,note_on,1,0,0,,2,,,38,127
26178,note_off,104,0,0,,2,,,74,127
26179,note_on,1,0,0,,2,,,62,127
26283,note_off,104,0,0,,2,,,62,127
26284,note_on,1,0,0,,6,,,66,127
26388,note_off,104,0,0,,6,,,66,127
26389,note_on,1,0,0,,10,,,69,127
26493,note_off,104,0,0,,10,,,69,127
26494,note_on,1,0,0,,0,,,84,127
26598,note_off,104,0,0,,2,,,38,127
26599,note_on,1,0,0,,10,,,57,127
26703,note_off,104,0,0,,10,,,57,127
26704,note_on,1,0,0,,6,,,54,127
26808,note_off,104,0,0,,6,,,54,127
26809,note_on,1,0,0,,2,,,50,127
26913,note_off,104,0,0,,2,,,50,127
26914,note_on,1,0,0,,7,,,43,127
27018,note_off,104,0,0,,0,,,84,127
27019,note_on,1,0,0,,2,,,86,127
27123,note_off,104,0,0,,2,,,86,127
27124,note_on,1,0,0,,10,,,81,127
27228,note_off,104,0,0,,10,,,81,127
27229,note_on,1,0,0,,0,,,84,127
27333,note_off,104,0,0,,0,,,84,127
27334,note_on,1,0,0,,0,,,84,127
27385,note_off,51,0,0,,0,,,84,127
27386,note_on,1,0,0,,11,,,82,127
27437,note_off,51,0,0,,11,,,82,127
27437,note_off,0,0,0,,7,,,43,127
27438,note_on,1,0,0,,2,,,62,127
27438,note_on,0,0,0,,0,,,84,127
27489,note_off,51,0,0,,0,,,84,127
27490,note_on,1,0,0,,11,,,82,127
27541,note_off,51,0,0,,2,,,62,127
27542,note_on,1,0,0,,11,,,58,127
27646,note_off,104,0,0,,11,,,58,127
27647,note_on,1,0,0,,7,,,55,127
27751,note_off,104,0,0,,7,,,55,127
27752,note_on,1,0,0,,2,,,38,127
27856,note_off,104,0,0,,11,,,82,127
27857,note_on,1,0,0,,2,,,62,127
27961,note_off,104,0,0,,2,,,62,127
27962,note_on,1,0,0,,6,,,66,127
28066,note_off,104,0,0,,6,,,66,127
28067,note_on,1,0,0,,10,,,69,127
28171,note_off,104,0,0,,10,,,69,127
28172,note_on,1,0,0,,0,,,84,127
28276,note_off,104,0,0,,2,,,38,127
28277,note_on,1,0,0,,10,,,57,127
28381,note_off,104,0,0,,10,,,57,127
28382,note_on,1,0,0,,6,,,54,127
28486,note_off,104,0,0,,6,,,54,127
28487,note_on,1,0,0,,2,,,50,127
28591,note_off,104,0,0,,2,,,50,127
28592,note_on,1,0,0,,7,,,43,127
28696,note_off,104,0,0,,0,,,84,127
28697,note_on,1,0,0,,2,,,86,127
28801,note_off,104,0,0,,2,,,86,127
28802,note_on,1,0,0,,10,,,81,127
28906,note_off,104,0,0,,10,,,81,127
28907,note_on,1,0,0,,0,,,84,127
29011,note_off,104,0,0,,0,,,84,127
29012,note_on,1,0,0,,11,,,82,127
29116,note_off,104,0,0,,11,,,82,127
29117,note_off,1,0,0,,7,,,43,127
29117,note_on,0,0,0,,2,,,86,127
29221,note_off,104,0,0,,2,,,86,127
29222,note_on,1,0,0,,11,,,58,127
29222,note_on,0,0,0,,7,,,79,127
29326,note_off,104,0,0,,7,,,79,127
29327,note_on,1,0,0,,11,,,82,127
29431,note_off,104,0,0,,11,,,82,127
29431,note_off,0,0,0,,11,,,58,127
29432,note_on,1,0,0,,0,,,60,127
29432,note_on,0,0,0,,3,,,75,127
29536,note_off,104,0,0,,3,,,75,127
29537,note_on,1,0,0,,7,,,79,127
29641,note_off,104,0,0,,7,,,79,127
29642,note_on,1,0,0,,0,,,72,127
29746,note_off,104,0,0,,0,,,72,127
29747,note_on,1,0,0,,3,,,75,127
29847,note_off,100,0,0,,0,,,60,127
29851,note_on,4,0,0,,0,,,48,127
29851,note_on,0,0,0,,3,,,63,127
29954,note_off,103,0,0,,3,,,75,127
29956,note_on,2,0,0,,0,,,72,127
30060,note_off,104,0,0,,0,,,72,127
30061,note_on,1,0,0,,11,,,70,127
30165,note_off,104,0,0,,11,,,70,127
30166,note_on,1,0,0,,10,,,69,127
30266,note_off,100,0,0,,3,,,63,127
30269,note_off,3,0,0,,10,,,69,127
30269,note_off,0,0,0,,0,,,48,127
30270,note_on,1,0,0,,2,,,50,127
30270,note_on,0,0,0,,11,,,58,127
30270,note_on,0,0,0,,7,,,55,127
30270,note_on,0,0,0,,7,,,67,127
30375,note_on,105,0,0,,2,,,74,127
30479,note_off,104,0,0,,2,,,74,127
30480,note_on,1,0,0,,11,,,70,127
30576,note_off,96,0,0,,7,,,67,127
30584,note_off,8,0,0,,11,,,70,127
30585,note_on,1,0,0,,7,,,67,127
30689,note_off,104,0,0,,7,,,67,127
30689,note_off,0,0,0,,7,,,55,127
30689,note_off,0,0,0,,11,,,58,127
30689,note_off,0,0,0,,2,,,50,127
30690,note_on,1,0,0,,2,,,50,127
30690,note_on,0,0,0,,10,,,57,127
30690,note_on,0,0,0,,11,,,70,127
30794,note_off,104,0,0,,11,,,70,127
30795,note_on,1,0,0,,10,,,69,127
30899,note_off,104,0,0,,10,,,69,127
30900,note_on,1,0,0,,7,,,67,127
31004,note_off,104,0,0,,7,,,67,127
31005,note_on,1,0,0,,6,,,66,127
31109,note_off,104,0,0,,6,,,66,127
31109,note_off,0,0,0,,10,,,57,127
31109,note_off,0,0,0,,2,,,50,127
31110,note_on,1,0,0,,7,,,43,127
31110,note_on,0,0,0,,7,,,55,127
31110,note_on,0,0,0,,7,,,67,127
31215,note_on,105,0,0,,7,,,79,127
31318,note_off,103,0,0,,7,,,67,127
31319,note_off,1,0,0,,7,,,79,127
31320,note_on,1,0,0,,6,,,78,127
31424,note_off,104,0,0,,6,,,78,127
31425,note_on,1,0,0,,10,,,81,127
31529,note_off,104,0,0,,10,,,81,127
31530,note_on,1,0,0,,7,,,79,127
31634,note_off,104,0,0,,7,,,79,127
31635,note_on,1,0,0,,3,,,75,127
31739,note_off,104,0,0,,3,,,75,127
31739,note_off,0,0,0,,7,,,55,127
31739,note_off,0,0,0,,7,,,43,127
31740,note_on,1,0,0,,7,,,55,127
31740,note_on,0,0,0,,2,,,74,127
31844,note_off,104,0,0,,2,,,74,127
31845,note_on,1,0,0,,5,,,77,127
31949,note_off,104,0,0,,5,,,77,127
31949,note_off,0,0,0,,7,,,55,127
31950,note_on,1,0,0,,0,,,60,127
31950,note_on,0,0,0,,3,,,75,127
32055,note_on,105,0,0,,7,,,67,127
32158,note_off,103,0,0,,3,,,75,127
32159,note_off,1,0,0,,7,,,67,127
32160,note_on,1,0,0,,10,,,69,127
32264,note_off,104,0,0,,10,,,69,127
32265,note_on,1,0,0,,6,,,66,127
32369,note_off,104,0,0,,6,,,66,127
32369,note_off,0,0,0,,0,,,60,127
32370,note_on,1,0,0,,0,,,48,127
32370,note_on,0,0,0,,7,,,67,127
32475,note_on,105,0,0,,0,,,72,127
32578,note_off,103,0,0,,7,,,67,127
32579,note_off,1,0,0,,0,,,72,127
32580,note_on,1,0,0,,11,,,70,127
32684,note_off,104,0,0,,11,,,70,127
32685,note_on,1,0,0,,10,,,69,127
32789,note_off,104,0,0,,10,,,69,127
32789,note_off,0,0,0,,0,,,48,127
32790,note_on,1,0,0,,11,,,58,127
32790,note_on,0,0,0,,7,,,55,127
32790,note_on,0,0,0,,2,,,50,127
32790,note_on,0,0,0,,11,,,70,127
32894,note_off,104,0,0,,11,,,70,127
32895,note_on,1,0,0,,0,,,72,127
32999,note_off,104,0,0,,0,,,72,127
33000,note_on,1,0,0,,2,,,74,127
33104,note_off,104,0,0,,2,,,74,127
33105,note_on,1,0,0,,7,,,67,127
33209,note_off,104,0,0,,7,,,67,127
33209,note_off,0,0,0,,2,,,50,127
33209,note_off,0,0,0,,7,,,55,127
33209,note_off,0,0,0,,11,,,58,127
33210,note_on,1,0,0,,10,,,57,127
33210,note_on,0,0,0,,2,,,50,127
33210,note_on,0,0,0,,11,,,70,127
33314,note_off,104,0,0,,11,,,70,127
33315,note_on,1,0,0,,10,,,69,127
33419,note_off,104,0,0,,10,,,69,127
33420,note_on,1,0,0,,7,,,67,127
33524,note_off,104,0,0,,7,,,67,127
33525,note_on,1,0,0,,6,,,66,127
33629,note_off,104,0,0,,6,,,66,127
33629,note_off,0,0,0,,2,,,50,127
33629,note_off,0,0,0,,10,,,57,127
33630,note_on,1,0,0,,7,,,55,127
33630,note_on,0,0,0,,7,,,43,127
33630,note_on,0,0,0,,7,,,67,127
33735,note_on,105,0,0,,7,,,79,127
33838,note_off,103,0,0,,7,,,67,127
33839,note_off,1,0,0,,7,,,79,127
33840,note_on,1,0,0,,6,,,78,127
33944,note_off,104,0,0,,6,,,78,127
33945,note_on,1,0,0,,10,,,81,127
34049,note_off,104,0,0,,10,,,81,127
34050,note_on,1,0,0,,7,,,79,127
34154,note_off,104,0,0,,7,,,79,127
34155,note_on,1,0,0,,3,,,75,127
34190,note_off,35,0,0,,7,,,43,127
34259,note_off,69,0,0,,3,,,75,127
34259,note_off,0,0,0,,7,,,55,127
34260,note_on,1,0,0,,7,,,55,127
34260,note_on,0,0,0,,2,,,74,127
34364,note_off,104,0,0,,2,,,74,127
34365,note_on,1,0,0,,5,,,77,127
34469,note_off,104,0,0,,5,,,77,127
34469,note_off,0,0,0,,7,,,55,127
34470,note_on,1,0,0,,0,,,60,127
34470,note_on,0,0,0,,3,,,75,127
34575,note_on,105,0,0,,7,,,67,127
34679,note_off,104,0,0,,7,,,67,127
34680,note_on,1,0,0,,10,,,69,127
34784,note_off,104,0,0,,10,,,69,127
34785,note_on,1,0,0,,6,,,66,127
34889,note_off,104,0,0,,6,,,66,127
34890,note_on,1,0,0,,0,,,48,127
34890,note_on,0,0,0,,7,,,67,127
34995,note_off,105,0,0,,3,,,75,127
34995,note_on,0,0,0,,0,,,72,127
35099,note_off,104,0,0,,0,,,72,127
35100,note_on,1,0,0,,11,,,70,127
35204,note_off,104,0,0,,11,,,70,127
35205,note_off,1,0,0,,7,,,67,127
35205,note_on,0,0,0,,10,,,69,127
35309,note_off,104,0,0,,10,,,69,127
35309,note_off,0,0,0,,0,,,48,127
35309,note_off,0,0,0,,0,,,60,127
35310,note_on,1,0,0,,2,,,50,127
35310,note_on,0,0,0,,11,,,70,127
35414,note_off,104,0,0,,11,,,70,127
35415,note_on,1,0,0,,0,,,72,127
35519,note_off,104,0,0,,0,,,72,127
35520,note_on,1,0,0,,2,,,74,127
35624,note_off,104,0,0,,2,,,74,127
35625,note_on,1,0,0,,7,,,67,127
35729,note_off,104,0,0,,7,,,67,127
35730,note_on,1,0,0,,2,,,38,127
35730,note_on,0,0,0,,11,,,70,127
35834,note_off,104,0,0,,11,,,70,127
35835,note_on,1,0,0,,10,,,69,127
35939,note_off,104,0,0,,10,,,69,127
35940,note_on,1,0,0,,7,,,67,127
36044,note_off,104,0,0,,7,,,67,127
36045,note_on,1,0,0,,6,,,66,127
36149,note_off,104,0,0,,6,,,66,127
36149,note_off,0,0,0,,2,,,38,127
36149,note_off,0,0,0,,2,,,50,127
36150,note_on,1,0,0,,7,,,43,127
36150,note_on,0,0,0,,7,,,55,127
36150,note_on,0,0,0,,6,,,66,127
36463,note_off,313,0,0,,6,,,66,127
36464,note_on,1,0,0,,7,,,67,127
36879,note_off,415,0,0,,7,,,67,127
36987,note_off,108,0,0,,7,,,55,127
36987,note_off,0,0,0,,7,,,43,127
36988,note_on,1,0,0,,7,,,43,127
36988,note_on,0,0,0,,7,,,55,127
37093,note_on,105,0,0,,7,,,67,127
37197,note_off,104,0,0,,7,,,67,127
37198,note_on,1,0,0,,12,,,71,127
37302,note_off,104,0,0,,12,,,71,127
37303,note_on,1,0,0,,2,,,74,127
37407,note_off,104,0,0,,2,,,74,127
37408,note_on,1,0,0,,5,,,77,127
37512,note_off,104,0,0,,7,,,55,127
37512,note_off,0,0,0,,7,,,43,127
37513,note_on,1,0,0,,5,,,65,127
37617,note_off,104,0,0,,5,,,65,127
37618,note_on,1,0,0,,2,,,62,127
37722,note_off,104,0,0,,2,,,62,127
37723,note_on,1,0,0,,12,,,59,127
37827,note_off,104,0,0,,12,,,59,127
37828,note_on,1,0,0,,0,,,60,127
37932,note_off,104,0,0,,5,,,77,127
37933,note_on,1,0,0,,3,,,75,127
38037,note_off,104,0,0,,3,,,75,127
38038,note_on,1,0,0,,0,,,72,127
38142,note_off,104,0,0,,0,,,72,127
38143,note_on,1,0,0,,7,,,67,127
38247,note_off,104,0,0,,7,,,67,127
38248,note_on,1,0,0,,8,,,68,127
38352,note_off,104,0,0,,0,,,60,127
38353,note_on,1,0,0,,5,,,65,127
38457,note_off,104,0,0,,5,,,65,127
38458,note_on,1,0,0,,2,,,62,127
38562,note_off,104,0,0,,2,,,62,127
38563,note_on,1,0,0,,8,,,56,127
38667,note_off,104,0,0,,8,,,56,127
38668,note_on,1,0,0,,7,,,55,127
38772,note_off,104,0,0,,8,,,68,127
38773,note_on,1,0,0,,7,,,67,127
38877,note_off,104,0,0,,7,,,67,127
38878,note_on,1,0,0,,12,,,71,127
38982,note_off,104,0,0,,12,,,71,127
38983,note_on,1,0,0,,2,,,74,127
39087,note_off,104,0,0,,2,,,74,127
39088,note_on,1,0,0,,5,,,77,127
39192,note_off,104,0,0,,7,,,55,127
39193,note_on,1,0,0,,5,,,65,127
39297,note_off,104,0,0,,5,,,65,127
39298,note_on,1,0,0,,2,,,62,127
39402,note_off,104,0,0,,2,,,62,127
39403,note_on,1,0,0,,12,,,59,127
39507,note_off,104,0,0,,12,,,59,127
39508,note_on,1,0,0,,0,,,60,127
39612,note_off,104,0,0,,5,,,77,127
39613,note_on,1,0,0,,3,,,75,127
39717,note_off,104,0,0,,3,,,75,127
39718,note_on,1,0,0,,0,,,72,127
39822,note_off,104,0,0,,0,,,72,127
39823,note_on,1,0,0,,7,,,67,127
39927,note_off,104,0,0,,7,,,67,127
39928,note_on,1,0,0,,8,,,68,127
40032,note_off,104,0,0,,0,,,60,127
40033,note_on,1,0,0,,5,,,65,127
40137,note_off,104,0,0,,5,,,65,127
40138,note_on,1,0,0,,2,,,62,127
40242,note_off,104,0,0,,2,,,62,127
40243,note_on,1,0,0,,8,,,56,127
40347,note_off,104,0,0,,8,,,56,127
40348,note_on,1,0,0,,7,,,55,127
40452,note_off,104,0,0,,8,,,68,127
40453,note_on,1,0,0,,7,,,67,127
40557,note_off,104,0,0,,7,,,67,127
40558,note_on,1,0,0,,12,,,71,127
40662,note_off,104,0,0,,12,,,71,127
40663,note_on,1,0,0,,2,,,74,127
40767,note_off,104,0,0,,2,,,74,127
40768,note_on,1,0,0,,5,,,77,127
40872,note_off,104,0,0,,7,,,55,127
40873,note_on,1,0,0,,5,,,65,127
40977,note_off,104,0,0,,5,,,65,127
40978,note_on,1,0,0,,2,,,62,127
41082,note_off,104,0,0,,2,,,62,127
41083,note_on,1,0,0,,12,,,59,127
41187,note_off,104,0,0,,12,,,59,127
41188,note_on,1,0,0,,0,,,60,127
41292,note_off,104,0,0,,5,,,77,127
41293,note_on,1,0,0,,7,,,79,127
41397,note_off,104,0,0,,7,,,79,127
41398,note_on,1,0,0,,4,,,76,127
41502,note_off,104,0,0,,4,,,76,127
41503,note_on,1,0,0,,0,,,72,127
41607,note_off,104,0,0,,0,,,72,127
41608,note_on,1,0,0,,11,,,70,127
41712,note_off,104,0,0,,0,,,60,127
41713,note_on,1,0,0,,7,,,67,127
41817,note_off,104,0,0,,7,,,67,127
41818,note_on,1,0,0,,4,,,64,127
41922,note_off,104,0,0,,4,,,64,127
41923,note_on,1,0,0,,0,,,60,127
42027,note_off,104,0,0,,0,,,60,127
42028,note_on,1,0,0,,5,,,65,127
42132,note_off,104,0,0,,11,,,70,127
42133,note_on,1,0,0,,1,,,73,127
42237,note_off,104,0,0,,1,,,73,127
42238,note_on,1,0,0,,0,,,72,127
42342,note_off,104,0,0,,0,,,72,127
42343,note_on,1,0,0,,7,,,67,127
42447,note_off,104,0,0,,7,,,67,127
42448,note_on,1,0,0,,8,,,68,127
42552,note_off,104,0,0,,5,,,65,127
42553,note_on,1,0,0,,5,,,65,127
42657,note_off,104,0,0,,5,,,65,127
42658,note_on,1,0,0,,1,,,61,127
42762,note_off,104,0,0,,1,,,61,127
42763,note_on,1,0,0,,11,,,58,127
42867,note_off,104,0,0,,11,,,58,127
42867,note_off,0,0,0,,8,,,68,127
42868,note_on,1,0,0,,0,,,60,127
42868,note_on,0,0,0,,5,,,77,127
42972,note_off,104,0,0,,5,,,77,127
42973,note_on,1,0,0,,7,,,79,127
43077,note_off,104,0,0,,7,,,79,127
43078,note_on,1,0,0,,4,,,76,127
43182,note_off,104,0,0,,4,,,76,127
43183,note_on,1,0,0,,0,,,72,127
43287,note_off,104,0,0,,0,,,72,127
43288,note_on,1,0,0,,11,,,70,127
43392,note_off,104,0,0,,0,,,60,127
43393,note_on,1,0,0,,7,,,67,127
43497,note_off,104,0,0,,7,,,67,127
43498,note_on,1,0,0,,4,,,64,127
43602,note_off,104,0,0,,4,,,64,127
43603,note_on,1,0,0,,0,,,60,127
43707,note_off,104,0,0,,0,,,60,127
43708,note_on,1,0,0,,5,,,65,127
43812,note_off,104,0,0,,11,,,70,127
43813,note_on,1,0,0,,1,,,73,127
43917,note_off,104,0,0,,1,,,73,127
43918,note_on,1,0,0,,0,,,72,127
44022,note_off,104,0,0,,0,,,72,127
44023,note_on,1,0,0,,7,,,67,127
44127,note_off,104,0,0,,7,,,67,127
44128,note_on,1,0,0,,8,,,68,127
44232,note_off,104,0,0,,5,,,65,127
44233,note_on,1,0,0,,5,,,65,127
44337,note_off,104,0,0,,5,,,65,127
44338,note_on,1,0,0,,1,,,61,127
44442,note_off,104,0,0,,1,,,61,127
44443,note_on,1,0,0,,11,,,58,127
44547,note_off,104,0,0,,11,,,58,127
44547,note_off,0,0,0,,8,,,68,127
44548,note_on,1,0,0,,0,,,60,127
44548,note_on,0,0,0,,5,,,77,127
44652,note_off,104,0,0,,5,,,77,127
44653,note_on,1,0,0,,7,,,79,127
44757,note_off,104,0,0,,7,,,79,127
44758,note_on,1,0,0,,4,,,76,127
44862,note_off,104,0,0,,4,,,76,127
44863,note_on,1,0,0,,0,,,72,127
44967,note_off,104,0,0,,0,,,72,127
44967,note_off,0,0,0,,0,,,60,127
44968,note_on,1,0,0,,4,,,64,127
44968,note_on,0,0,0,,11,,,70,127
45072,note_off,104,0,0,,11,,,70,127
45073,note_on,1,0,0,,1,,,73,127
45177,note_off,104,0,0,,1,,,73,127
45178,note_on,1,0,0,,0,,,72,127
45282,note_off,104,0,0,,0,,,72,127
45283,note_on,1,0,0,,7,,,67,127
45387,note_off,104,0,0,,7,,,67,127
45387,note_off,0,0,0,,4,,,64,127
45388,note_on,1,0,0,,5,,,65,127
45388,note_on,0,0,0,,11,,,70,127
45439,note_off,51,0,0,,11,,,70,127
45440,note_on,1,0,0,,8,,,68,127
45491,note_off,51,0,0,,8,,,68,127
45492,note_on,1,0,0,,11,,,70,127
45543,note_off,51,0,0,,11,,,70,127
45544,note_on,1,0,0,,8,,,68,127
45595,note_off,51,0,0,,8,,,68,127
45596,note_on,1,0,0,,11,,,70,127
45647,note_off,51,0,0,,11,,,70,127
45648,note_on,1,0,0,,8,,,68,127
45699,note_off,51,0,0,,8,,,68,127
45700,note_on,1,0,0,,7,,,67,127
45804,note_off,104,0,0,,7,,,67,127
45804,note_off,0,0,0,,5,,,65,127
45805,note_on,1,0,0,,5,,,65,127
46014,note_on,209,0,0,,5,,,77,127
46222,note_off,208,0,0,,5,,,77,127
46223,note_on,1,0,0,,4,,,76,127
46431,note_off,208,0,0,,4,,,76,127
46431,note_off,0,0,0,,5,,,65,127
46432,note_on,1,0,0,,11,,,70,127
46432,note_on,0,0,0,,1,,,73,127
46640,note_off,208,0,0,,1,,,73,127
46640,note_off,0,0,0,,11,,,70,127
46641,note_on,1,0,0,,8,,,68,127
46641,note_on,0,0,0,,0,,,72,127
46849,note_off,208,0,0,,0,,,72,127
46849,note_off,0,0,0,,8,,,68,127
46850,note_on,1,0,0,,7,,,67,127
46850,note_on,0,0,0,,11,,,70,127
47058,note_off,208,0,0,,7,,,67,127
47059,note_on,1,0,0,,5,,,65,127
47111,note_off,52,0,0,,11,,,70,127
47111,note_on,0,0,0,,8,,,68,127
47162,note_off,51,0,0,,8,,,68,127
47163,note_on,1,0,0,,11,,,70,127
47214,note_off,51,0,0,,11,,,70,127
47215,note_on,1,0,0,,8,,,68,127
47266,note_off,51,0,0,,8,,,68,127
47266,note_off,0,0,0,,5,,,65,127
47267,note_on,1,0,0,,4,,,64,127
47267,note_on,0,0,0,,7,,,67,127
47475,note_off,208,0,0,,7,,,67,127
47475,note_off,0,0,0,,4,,,64,127
47476,note_on,1,0,0,,5,,,65,127
47476,note_on,0,0,0,,8,,,68,127
47684,note_off,208,0,0,,8,,,68,127
47685,note_on,1,0,0,,5,,,77,127
47893,note_off,208,0,0,,5,,,77,127
47894,note_on,1,0,0,,3,,,75,127
48102,note_off,208,0,0,,3,,,75,127
48102,note_off,0,0,0,,5,,,65,127
48103,note_on,1,0,0,,11,,,70,127
48103,note_on,0,0,0,,1,,,73,127
48311,note_off,208,0,0,,1,,,73,127
48311,note_off,0,0,0,,11,,,70,127
48312,note_on,1,0,0,,8,,,68,127
48312,note_on,0,0,0,,0,,,72,127
48520,note_off,208,0,0,,0,,,72,127
48520,note_off,0,0,0,,8,,,68,127
48521,note_on,1,0,0,,6,,,66,127
48521,note_on,0,0,0,,11,,,70,127
48729,note_off,208,0,0,,11,,,70,127
48729,note_off,0,0,0,,6,,,66,127
48730,note_on,1,0,0,,5,,,65,127
48730,note_on,0,0,0,,8,,,68,127
48938,note_off,208,0,0,,5,,,65,127
48939,note_on,1,0,0,,3,,,63,127
48991,note_off,52,0,0,,8,,,68,127
48991,note_on,0,0,0,,6,,,66,127
49042,note_off,51,0,0,,6,,,66,127
49043,note_on,1,0,0,,8,,,68,127
49094,note_off,51,0,0,,8,,,68,127
49095,note_on,1,0,0,,6,,,66,127
49146,note_off,51,0,0,,6,,,66,127
49146,note_off,0,0,0,,3,,,63,127
49147,note_on,1,0,0,,1,,,61,127
49147,note_on,0,0,0,,5,,,65,127
49355,note_off,208,0,0,,5,,,65,127
49356,note_on,1,0,0,,1,,,73,127
49564,note_off,208,0,0,,1,,,73,127
49565,note_on,1,0,0,,0,,,72,127
49773,note_off,208,0,0,,0,,,72,127
49773,note_off,0,0,0,,1,,,61,127
49774,note_on,1,0,0,,6,,,66,127
49774,note_on,0,0,0,,11,,,70,127
49982,note_off,208,0,0,,11,,,70,127
49982,note_off,0,0,0,,6,,,66,127
49983,note_on,1,0,0,,5,,,65,127
49983,note_on,0,0,0,,8,,,68,127
50191,note_off,208,0,0,,8,,,68,127
50191,note_off,0,0,0,,5,,,65,127
50192,note_on,1,0,0,,3,,,63,127
50192,note_on,0,0,0,,6,,,66,127
50399,note_off,207,0,0,,6,,,66,127
50400,note_off,1,0,0,,3,,,63,127
50401,note_on,1,0,0,,1,,,61,127
50401,note_on,0,0,0,,5,,,65,127
50452,note_off,51,0,0,,5,,,65,127
50453,note_on,1,0,0,,6,,,66,127
50504,note_off,51,0,0,,6,,,66,127
50505,note_on,1,0,0,,5,,,65,127
50609,note_off,104,0,0,,5,,,65,127
50609,note_off,0,0,0,,1,,,61,127
50610,note_on,1,0,0,,0,,,60,127
50610,note_on,0,0,0,,3,,,63,127
50818,note_off,208,0,0,,3,,,63,127
50818,note_off,0,0,0,,0,,,60,127
50819,note_on,1,0,0,,1,,,61,127
50819,note_on,0,0,0,,5,,,65,127
51028,note_on,209,0,0,,1,,,73,127
51236,note_off,208,0,0,,1,,,73,127
51237,note_on,1,0,0,,0,,,72,127
51440,note_off,203,0,0,,5,,,65,127
51445,note_off,5,0,0,,0,,,72,127
51445,note_off,0,0,0,,1,,,61,127
51446,note_on,1,0,0,,6,,,66,127
51446,note_on,0,0,0,,11,,,70,127
51654,note_off,208,0,0,,11,,,70,127
51654,note_off,0,0,0,,6,,,66,127
51655,note_on,1,0,0,,5,,,65,127
51655,note_on,0,0,0,,8,,,68,127
51863,note_off,208,0,0,,8,,,68,127
51863,note_off,0,0,0,,5,,,65,127
51864,note_on,1,0,0,,3,,,63,127
51864,note_on,0,0,0,,6,,,66,127
52072,note_off,208,0,0,,6,,,66,127
52072,note_off,0,0,0,,3,,,63,127
52073,note_on,1,0,0,,1,,,61,127
52073,note_on,0,0,0,,5,,,65,127
52281,note_off,208,0,0,,1,,,61,127
52282,note_on,1,0,0,,0,,,60,127
52334,note_off,52,0,0,,5,,,65,127
52334,note_on,0,0,0,,3,,,63,127
52385,note_off,51,0,0,,3,,,63,127
52386,note_on,1,0,0,,5,,,65,127
52437,note_off,51,0,0,,5,,,65,127
52438,note_on,1,0,0,,3,,,63,127
52489,note_off,51,0,0,,3,,,63,127
52489,note_off,0,0,0,,0,,,60,127
52490,note_on,1,0,0,,11,,,58,127
52490,note_on,0,0,0,,1,,,61,127
52594,note_off,104,0,0,,1,,,61,127
52595,note_on,1,0,0,,5,,,65,127
52699,note_off,104,0,0,,5,,,65,127
52700,note_on,1,0,0,,3,,,63,127
52804,note_off,104,0,0,,11,,,58,127
52805,note_on,1,0,0,,5,,,53,127
52909,note_off,104,0,0,,5,,,53,127
52910,note_on,1,0,0,,0,,,60,127
53014,note_off,104,0,0,,3,,,63,127
53015,note_on,1,0,0,,6,,,66,127
53119,note_off,104,0,0,,6,,,66,127
53120,note_on,1,0,0,,5,,,65,127
53224,note_off,104,0,0,,0,,,60,127
53225,note_on,1,0,0,,5,,,53,127
53329,note_off,104,0,0,,5,,,53,127
53330,note_on,1,0,0,,1,,,61,127
53434,note_off,104,0,0,,5,,,65,127
53435,note_on,1,0,0,,8,,,68,127
53539,note_off,104,0,0,,8,,,68,127
53540,note_on,1,0,0,,7,,,67,127
53644,note_off,104,0,0,,1,,,61,127
53645,note_on,1,0,0,,5,,,53,127
53749,note_off,104,0,0,,5,,,53,127
53750,note_on,1,0,0,,3,,,63,127
53854,note_off,104,0,0,,7,,,67,127
53855,note_on,1,0,0,,11,,,70,127
53959,note_off,104,0,0,,11,,,70,127
53960,note_on,1,0,0,,10,,,69,127
54064,note_off,104,0,0,,3,,,63,127
54065,note_on,1,0,0,,5,,,53,127
54169,note_off,104,0,0,,5,,,53,127
54170,note_on,1,0,0,,5,,,65,127
54274,note_off,104,0,0,,10,,,69,127
54275,note_on,1,0,0,,0,,,72,127
54379,note_off,104,0,0,,0,,,72,127
54379,note_off,0,0,0,,5,,,65,127
54380,note_on,1,0,0,,3,,,63,127
54380,note_on,0,0,0,,11,,,70,127
54484,note_off,104,0,0,,11,,,70,127
54485,note_on,1,0,0,,10,,,69,127
54589,note_off,104,0,0,,10,,,69,127
54589,note_off,0,0,0,,3,,,63,127
54590,note_on,1,0,0,,1,,,61,127
54590,note_on,0,0,0,,11,,,70,127
54694,note_off,104,0,0,,11,,,70,127
54695,note_on,1,0,0,,1,,,73,127
54799,note_off,104,0,0,,1,,,73,127
54799,note_off,0,0,0,,1,,,61,127
54800,note_on,1,0,0,,11,,,58,127
54800,note_on,0,0,0,,0,,,72,127
54904,note_off,104,0,0,,0,,,72,127
54905,note_on,1,0,0,,11,,,70,127
55009,note_off,104,0,0,,11,,,70,127
55009,note_off,0,0,0,,11,,,58,127
55010,note_on,1,0,0,,10,,,57,127
55010,note_on,0,0,0,,0,,,72,127
55115,note_on,105,0,0,,3,,,75,127
55167,note_off,52,0,0,,0,,,72,127
55218,note_off,51,0,0,,3,,,75,127
55218,note_off,0,0,0,,10,,,57,127
55219,note_on,1,0,0,,5,,,53,127
55219,note_on,0,0,0,,1,,,73,127
55323,note_off,104,0,0,,1,,,73,127
55324,note_on,1,0,0,,0,,,72,127
55428,note_off,104,0,0,,0,,,72,127
55428,note_off,0,0,0,,5,,,53,127
55429,note_on,1,0,0,,11,,,58,127
55429,note_on,0,0,0,,5,,,65,127
55429,note_on,0,0,0,,1,,,73,127
55637,note_off,208,0,0,,1,,,73,127
55637,note_off,0,0,0,,11,,,58,127
55638,note_on,1,0,0,,8,,,56,127
55638,note_on,0,0,0,,0,,,72,127
55742,note_off,104,0,0,,0,,,72,127
55743,note_on,1,0,0,,1,,,73,127
55847,note_off,104,0,0,,1,,,73,127
55847,note_off,0,0,0,,8,,,56,127
55848,note_on,1,0,0,,6,,,54,127
55848,note_on,0,0,0,,3,,,75,127
55952,note_off,104,0,0,,3,,,75,127
55953,note_on,1,0,0,,1,,,73,127
56057,note_off,104,0,0,,1,,,73,127
56057,note_off,0,0,0,,5,,,65,127
56058,note_on,1,0,0,,3,,,63,127
56058,note_on,0,0,0,,0,,,72,127
56162,note_off,104,0,0,,0,,,72,127
56163,note_on,1,0,0,,11,,,70,127
56267,note_off,104,0,0,,11,,,70,127
56267,note_off,0,0,0,,3,,,63,127
56267,note_off,0,0,0,,6,,,54,127
56268,note_on,1,0,0,,5,,,53,127
56268,note_on,0,0,0,,5,,,65,127
56268,note_on,0,0,0,,5,,,77,127
56372,note_off,104,0,0,,5,,,77,127
56373,note_on,1,0,0,,0,,,72,127
56477,note_off,104,0,0,,5,,,53,127
56478,note_on,1,0,0,,10,,,57,127
56582,note_off,104,0,0,,0,,,72,127
56583,note_on,1,0,0,,1,,,73,127
56634,note_off,51,0,0,,1,,,73,127
56635,note_on,1,0,0,,3,,,75,127
56686,note_off,51,0,0,,3,,,75,127
56686,note_off,0,0,0,,10,,,57,127
56687,note_on,1,0,0,,11,,,58,127
56687,note_on,0,0,0,,1,,,73,127
56895,note_off,208,0,0,,1,,,73,127
56895,note_off,0,0,0,,11,,,58,127
56895,note_off,0,0,0,,5,,,65,127
56896,note_on,1,0,0,,8,,,56,127
56896,note_on,0,0,0,,3,,,63,127
56896,note_on,0,0,0,,3,,,75,127
56947,note_off,51,0,0,,3,,,75,127
56948,note_on,1,0,0,,1,,,73,127
56999,note_off,51,0,0,,1,,,73,127
57000,note_on,1,0,0,,0,,,72,127
57051,note_off,51,0,0,,0,,,72,127
57052,note_on,1,0,0,,11,,,70,127
57103,note_off,51,0,0,,11,,,70,127
57103,note_off,0,0,0,,3,,,63,127
57103,note_off,0,0,0,,8,,,56,127
57104,note_on,1,0,0,,5,,,53,127
57104,note_on,0,0,0,,5,,,65,127
57104,note_on,0,0,0,,5,,,77,127
57209,note_off,105,0,0,,5,,,77,127
57209,note_on,0,0,0,,0,,,72,127
57313,note_off,104,0,0,,5,,,53,127
57314,note_on,1,0,0,,10,,,57,127
57418,note_off,104,0,0,,0,,,72,127
57419,note_on,1,0,0,,1,,,73,127
57470,note_off,51,0,0,,1,,,73,127
57471,note_on,1,0,0,,3,,,75,127
57522,note_off,51,0,0,,3,,,75,127
57522,note_off,0,0,0,,10,,,57,127
57523,note_on,1,0,0,,11,,,58,127
57523,note_on,0,0,0,,1,,,73,127
57731,note_off,208,0,0,,1,,,73,127
57731,note_off,0,0,0,,11,,,58,127
57731,note_off,0,0,0,,5,,,65,127
57732,note_on,1,0,0,,6,,,54,127
57732,note_on,0,0,0,,3,,,63,127
57732,note_on,0,0,0,,3,,,75,127
57783,note_off,51,0,0,,3,,,75,127
57784,note_on,1,0,0,,1,,,73,127
57835,note_off,51,0,0,,1,,,73,127
57836,note_on,1,0,0,,0,,,72,127
57887,note_off,51,0,0,,0,,,72,127
57888,note_on,1,0,0,,11,,,70,127
57939,note_off,51,0,0,,3,,,63,127
57939,note_off,0,0,0,,6,,,54,127
57940,note_on,1,0,0,,5,,,53,127
57940,note_on,0,0,0,,5,,,41,127
58149,note_off,209,0,0,,11,,,70,127
58149,note_on,0,0,0,,0,,,72,127
58673,note_off,524,0,0,,0,,,72,127
58777,note_off,104,0,0,,5,,,41,127
58777,note_off,0,0,0,,5,,,53,127
58778,note_on,1,0,0,,5,,,41,127
58778,note_on,0,0,0,,5,,,53,127
58883,note_on,105,0,0,,5,,,65,127
58987,note_off,104,0,0,,5,,,65,127
58988,note_on,1,0,0,,10,,,69,127
59092,note_off,104,0,0,,10,,,69,127
59093,note_on,1,0,0,,0,,,72,127
59197,note_off,104,0,0,,0,,,72,127
59198,note_on,1,0,0,,3,,,75,127
59302,note_off,104,0,0,,5,,,53,127
59302,note_off,0,0,0,,5,,,41,127
59303,note_on,1,0,0,,0,,,60,127
59407,note_off,104,0,0,,0,,,60,127
59408,note_on,1,0,0,,10,,,57,127
59512,note_off,104,0,0,,10,,,57,127
59513,note_on,1,0,0,,5,,,53,127
59617,note_off,104,0,0,,5,,,53,127
59618,note_on,1,0,0,,11,,,46,127
59722,note_off,104,0,0,,3,,,75,127
59723,note_on,1,0,0,,5,,,77,127
59827,note_off,104,0,0,,5,,,77,127
59828,note_on,1,0,0,,0,,,72,127
59932,note_off,104,0,0,,0,,,72,127
59933,note_on,1,0,0,,3,,,75,127
60037,note_off,104,0,0,,3,,,75,127
60037,note_off,0,0,0,,11,,,46,127
60038,note_on,1,0,0,,3,,,75,127
60089,note_off,51,0,0,,3,,,75,127
60090,note_on,1,0,0,,2,,,74,127
60141,note_off,51,0,0,,2,,,74,127
60142,note_on,1,0,0,,5,,,53,127
60142,note_on,0,0,0,,3,,,75,127
60193,note_off,51,0,0,,3,,,75,127
60194,note_on,1,0,0,,2,,,74,127
60245,note_off,51,0,0,,5,,,53,127
60246,note_on,1,0,0,,2,,,50,127
60350,note_off,104,0,0,,2,,,50,127
60351,note_on,1,0,0,,11,,,46,127
60455,note_off,104,0,0,,11,,,46,127
60456,note_on,1,0,0,,5,,,41,127
60508,note_off,52,0,0,,2,,,74,127
60560,note_on,52,0,0,,5,,,65,127
60664,note_off,104,0,0,,5,,,65,127
60665,note_on,1,0,0,,10,,,69,127
60769,note_off,104,0,0,,10,,,69,127
60770,note_on,1,0,0,,0,,,72,127
60874,note_off,104,0,0,,0,,,72,127
60874,note_off,0,0,0,,5,,,41,127
60875,note_on,1,0,0,,3,,,75,127
60980,note_on,105,0,0,,0,,,60,127
61084,note_off,104,0,0,,0,,,60,127
61085,note_on,1,0,0,,10,,,57,127
61189,note_off,104,0,0,,10,,,57,127
61190,note_on,1,0,0,,5,,,53,127
61294,note_off,104,0,0,,5,,,53,127
61295,note_on,1,0,0,,11,,,46,127
61399,note_off,104,0,0,,3,,,75,127
61400,note_on,1,0,0,,5,,,77,127
61504,note_off,104,0,0,,5,,,77,127
61505,note_on,1,0,0,,0,,,72,127
61609,note_off,104,0,0,,0,,,72,127
61610,note_on,1,0,0,,3,,,75,127
61714,note_off,104,0,0,,3,,,75,127
61715,note_on,1,0,0,,2,,,74,127
61820,note_on,105,0,0,,2,,,86,127
61855,note_off,35,0,0,,11,,,46,127
61923,note_off,68,0,0,,2,,,74,127
61924,note_off,1,0,0,,2,,,86,127
61925,note_on,1,0,0,,2,,,50,127
61925,note_on,0,0,0,,6,,,78,127
62029,note_off,104,0,0,,6,,,78,127
62030,note_on,1,0,0,,10,,,81,127
62134,note_off,104,0,0,,10,,,81,127
62134,note_off,0,0,0,,2,,,50,127
62135,note_on,1,0,0,,3,,,51,127
62135,note_on,0,0,0,,7,,,79,127
62239,note_off,104,0,0,,7,,,79,127
62240,note_on,1,0,0,,11,,,82,127
62344,note_off,104,0,0,,11,,,82,127
62345,note_on,1,0,0,,3,,,75,127
62449,note_off,104,0,0,,3,,,75,127
62450,note_on,1,0,0,,7,,,79,127
62554,note_off,104,0,0,,7,,,79,127
62555,note_on,1,0,0,,3,,,39,127
62555,note_on,0,0,0,,0,,,72,127
62659,note_off,104,0,0,,0,,,72,127
62660,note_on,1,0,0,,3,,,75,127
62764,note_off,104,0,0,,3,,,75,127
62765,note_on,1,0,0,,10,,,69,127
62869,note_off,104,0,0,,10,,,69,127
62870,note_on,1,0,0,,0,,,72,127
62974,note_off,104,0,0,,3,,,39,127
62974,note_off,0,0,0,,3,,,51,127
62975,note_on,1,0,0,,5,,,41,127
62975,note_on,0,0,0,,11,,,46,127
62975,note_on,0,0,0,,2,,,50,127
62975,note_on,0,0,0,,5,,,65,127
63078,note_off,103,0,0,,0,,,72,127
63080,note_on,2,0,0,,3,,,75,127
63184,note_off,104,0,0,,3,,,75,127
63185,note_on,1,0,0,,2,,,74,127
63289,note_off,104,0,0,,2,,,74,127
63290,note_off,1,0,0,,5,,,65,127
63290,note_on,0,0,0,,0,,,72,127
63394,note_off,104,0,0,,0,,,72,127
63394,note_off,0,0,0,,2,,,50,127
63394,note_off,0,0,0,,11,,,46,127
63394,note_off,0,0,0,,5,,,41,127
63395,note_on,1,0,0,,5,,,41,127
63395,note_on,0,0,0,,0,,,48,127
63395,note_on,0,0,0,,5,,,77,127
63500,note_on,105,0,0,,11,,,70,127
63603,note_off,103,0,0,,5,,,77,127
63604,note_off,1,0,0,,11,,,70,127
63605,note_on,1,0,0,,0,,,72,127
63709,note_off,104,0,0,,0,,,72,127
63710,note_on,1,0,0,,10,,,69,127
63814,note_off,104,0,0,,10,,,69,127
63814,note_off,0,0,0,,0,,,48,127
63814,note_off,0,0,0,,5,,,41,127
63815,note_on,1,0,0,,11,,,46,127
63815,note_on,0,0,0,,11,,,70,127
63920,note_on,105,0,0,,5,,,65,127
63972,note_off,52,0,0,,11,,,70,127
64023,note_off,51,0,0,,5,,,65,127
64024,note_on,1,0,0,,2,,,74,127
64128,note_off,104,0,0,,2,,,74,127
64129,note_on,1,0,0,,11,,,70,127
64233,note_off,104,0,0,,11,,,70,127
64233,note_off,0,0,0,,11,,,46,127
64234,note_on,1,0,0,,5,,,77,127
64339,note_on,105,0,0,,5,,,53,127
64443,note_off,104,0,0,,5,,,53,127
64444,note_on,1,0,0,,2,,,50,127
64548,note_off,104,0,0,,2,,,50,127
64549,note_on,1,0,0,,11,,,46,127
64653,note_off,104,0,0,,11,,,46,127
64654,note_on,1,0,0,,5,,,41,127
64758,note_off,104,0,0,,5,,,77,127
64759,note_on,1,0,0,,3,,,75,127
64863,note_off,104,0,0,,3,,,75,127
64864,note_on,1,0,0,,0,,,72,127
64968,note_off,104,0,0,,0,,,72,127
64969,note_on,1,0,0,,0,,,84,127
65073,note_off,104,0,0,,0,,,84,127
65073,note_off,0,0,0,,5,,,41,127
65074,note_on,1,0,0,,0,,,72,127
65074,note_on,0,0,0,,3,,,75,127
65179,note_on,105,0,0,,5,,,53,127
65283,note_off,104,0,0,,5,,,53,127
65284,note_on,1,0,0,,0,,,48,127
65388,note_off,104,0,0,,0,,,48,127
65389,note_on,1,0,0,,10,,,45,127
65493,note_off,104,0,0,,10,,,45,127
65494,note_on,1,0,0,,11,,,46,127
65598,note_off,104,0,0,,3,,,75,127
65598,note_off,0,0,0,,0,,,72,127
65599,note_on,1,0,0,,5,,,77,127
65703,note_off,104,0,0,,5,,,77,127
65704,note_on,1,0,0,,2,,,74,127
65808,note_off,104,0,0,,2,,,74,127
65809,note_on,1,0,0,,11,,,82,127
65913,note_off,104,0,0,,11,,,82,127
65913,note_off,0,0,0,,11,,,46,127
65914,note_on,1,0,0,,5,,,77,127
65914,note_on,0,0,0,,2,,,74,127
66019,note_on,105,0,0,,5,,,53,127
66123,note_off,104,0,0,,5,,,53,127
66124,note_on,1,0,0,,2,,,50,127
66228,note_off,104,0,0,,2,,,50,127
66229,note_on,1,0,0,,11,,,46,127
66333,note_off,104,0,0,,11,,,46,127
66334,note_on,1,0,0,,5,,,41,127
66438,note_off,104,0,0,,2,,,74,127
66438,note_off,0,0,0,,5,,,77,127
66439,note_on,1,0,0,,3,,,75,127
66543,note_off,104,0,0,,3,,,75,127
66544,note_on,1,0,0,,0,,,72,127
66649,note_on,105,0,0,,0,,,84,127
66701,note_off,52,0,0,,0,,,72,127
66752,note_off,51,0,0,,0,,,84,127
66752,note_off,0,0,0,,5,,,41,127
66753,note_on,1,0,0,,0,,,72,127
66753,note_on,0,0,0,,3,,,75,127
66858,note_on,105,0,0,,5,,,53,127
66962,note_off,104,0,0,,5,,,53,127
66963,note_on,1,0,0,,0,,,48,127
67067,note_off,104,0,0,,0,,,48,127
67068,note_on,1,0,0,,10,,,45,127
67172,note_off,104,0,0,,10,,,45,127
67173,note_on,1,0,0,,11,,,46,127
67277,note_off,104,0,0,,3,,,75,127
67277,note_off,0,0,0,,0,,,72,127
67278,note_on,1,0,0,,5,,,77,127
67382,note_off,104,0,0,,5,,,77,127
67383,note_on,1,0,0,,2,,,74,127
67487,note_off,104,0,0,,2,,,74,127
67488,note_on,1,0,0,,11,,,82,127
67592,note_off,104,0,0,,11,,,82,127
67593,note_on,1,0,0,,5,,,77,127
67593,note_on,0,0,0,,2,,,74,127
67697,note_off,104,0,0,,11,,,46,127
67698,note_on,1,0,0,,5,,,53,127
67802,note_off,104,0,0,,5,,,53,127
67803,note_on,1,0,0,,2,,,50,127
67907,note_off,104,0,0,,2,,,50,127
67908,note_on,1,0,0,,11,,,46,127
68012,note_off,104,0,0,,11,,,46,127
68013,note_on,1,0,0,,5,,,41,127
68117,note_off,104,0,0,,2,,,74,127
68117,note_off,0,0,0,,5,,,77,127
68118,note_on,1,0,0,,3,,,75,127
68222,note_off,104,0,0,,3,,,75,127
68223,note_on,1,0,0,,0,,,72,127
68328,note_on,105,0,0,,0,,,84,127
68431,note_off,103,0,0,,0,,,72,127
68432,note_off,1,0,0,,0,,,84,127
68433,note_on,1,0,0,,3,,,75,127
68433,note_on,0,0,0,,0,,,72,127
68537,note_off,104,0,0,,5,,,41,127
68538,note_on,1,0,0,,5,,,53,127
68642,note_off,104,0,0,,5,,,53,127
68643,note_on,1,0,0,,0,,,48,127
68747,note_off,104,0,0,,0,,,48,127
68748,note_on,1,0,0,,10,,,45,127
68852,note_off,104,0,0,,10,,,45,127
68853,note_on,1,0,0,,11,,,46,127
68957,note_off,104,0,0,,0,,,72,127
68957,note_off,0,0,0,,3,,,75,127
68958,note_on,1,0,0,,11,,,82,127
69062,note_off,104,0,0,,11,,,82,127
69063,note_on,1,0,0,,10,,,81,127
69167,note_off,104,0,0,,10,,,81,127
69168,note_on,1,0,0,,0,,,84,127
69272,note_off,104,0,0,,0,,,84,127
69273,note_on,1,0,0,,11,,,82,127
69377,note_off,104,0,0,,11,,,82,127
69378,note_on,1,0,0,,7,,,79,127
69482,note_off,104,0,0,,7,,,79,127
69482,note_off,0,0,0,,11,,,46,127
69483,note_on,1,0,0,,6,,,78,127
69587,note_off,104,0,0,,6,,,78,127
69588,note_on,1,0,0,,10,,,81,127
69692,note_off,104,0,0,,10,,,81,127
69693,note_on,1,0,0,,3,,,63,127
69693,note_on,0,0,0,,7,,,79,127
69797,note_off,104,0,0,,7,,,79,127
69798,note_on,1,0,0,,11,,,82,127
69902,note_off,104,0,0,,11,,,82,127
69903,note_on,1,0,0,,3,,,75,127
70007,note_off,104,0,0,,3,,,75,127
70008,note_on,1,0,0,,7,,,79,127
70112,note_off,104,0,0,,7,,,79,127
70113,note_on,1,0,0,,3,,,51,127
70113,note_on,0,0,0,,0,,,72,127
70217,note_off,104,0,0,,0,,,72,127
70218,note_on,1,0,0,,3,,,75,127
70322,note_off,104,0,0,,3,,,75,127
70322,note_off,0,0,0,,3,,,63,127
70323,note_on,1,0,0,,10,,,69,127
70427,note_off,104,0,0,,10,,,69,127
70428,note_on,1,0,0,,0,,,72,127
70532,note_off,104,0,0,,3,,,51,127
70533,note_on,1,0,0,,5,,,53,127
70533,note_on,0,0,0,,5,,,65,127
70636,note_off,103,0,0,,0,,,72,127
70638,note_on,2,0,0,,3,,,75,127
70742,note_off,104,0,0,,3,,,75,127
70743,note_on,1,0,0,,2,,,74,127
70847,note_off,104,0,0,,2,,,74,127
70848,note_off,1,0,0,,5,,,65,127
70848,note_on,0,0,0,,0,,,72,127
70952,note_off,104,0,0,,0,,,72,127
70953,note_on,1,0,0,,5,,,41,127
70953,note_on,0,0,0,,5,,,77,127
71058,note_on,105,0,0,,11,,,70,127
71161,note_off,103,0,0,,5,,,77,127
71162,note_off,1,0,0,,11,,,70,127
71163,note_on,1,0,0,,0,,,72,127
71268,note_on,105,0,0,,10,,,69,127
71320,note_off,52,0,0,,0,,,72,127
71371,note_off,51,0,0,,10,,,69,127
71371,note_off,0,0,0,,5,,,41,127
71371,note_off,0,0,0,,5,,,53,127
71372,note_on,1,0,0,,11,,,46,127
71372,note_on,0,0,0,,11,,,58,127
71372,note_on,0,0,0,,11,,,70,127
71477,note_on,105,0,0,,11,,,82,127
71580,note_off,103,0,0,,11,,,70,127
71581,note_off,1,0,0,,11,,,82,127
71582,note_on,1,0,0,,10,,,81,127
71686,note_off,104,0,0,,10,,,81,127
71687,note_on,1,0,0,,0,,,84,127
71791,note_off,104,0,0,,0,,,84,127
71792,note_on,1,0,0,,11,,,82,127
71896,note_off,104,0,0,,11,,,82,127
71897,note_on,1,0,0,,7,,,79,127
72001,note_off,104,0,0,,7,,,79,127
72002,note_on,1,0,0,,6,,,78,127
72106,note_off,104,0,0,,6,,,78,127
72107,note_on,1,0,0,,10,,,81,127
72211,note_off,104,0,0,,10,,,81,127
72211,note_off,0,0,0,,11,,,58,127
72211,note_off,0,0,0,,11,,,46,127
72212,note_on,1,0,0,,3,,,63,127
72212,note_on,0,0,0,,7,,,79,127
72316,note_off,104,0,0,,7,,,79,127
72317,note_on,1,0,0,,3,,,75,127
72421,note_off,104,0,0,,3,,,75,127
72422,note_on,1,0,0,,2,,,74,127
72526,note_off,104,0,0,,2,,,74,127
72527,note_on,1,0,0,,5,,,77,127
72631,note_off,104,0,0,,5,,,77,127
72632,note_on,1,0,0,,3,,,51,127
72632,note_on,0,0,0,,5,,,77,127
72736,note_off,104,0,0,,5,,,77,127
72737,note_on,1,0,0,,3,,,75,127
72841,note_off,104,0,0,,3,,,75,127
72841,note_off,0,0,0,,3,,,63,127
72842,note_on,1,0,0,,2,,,74,127
72946,note_off,104,0,0,,2,,,74,127
72947,note_on,1,0,0,,0,,,72,127
73051,note_off,104,0,0,,0,,,72,127
73051,note_off,0,0,0,,3,,,51,127
73052,note_on,1,0,0,,5,,,53,127
73052,note_on,0,0,0,,2,,,74,127
73156,note_off,104,0,0,,2,,,74,127
73157,note_on,1,0,0,,3,,,75,127
73261,note_off,104,0,0,,3,,,75,127
73262,note_on,1,0,0,,5,,,77,127
73366,note_off,104,0,0,,5,,,77,127
73367,note_on,1,0,0,,11,,,70,127
73471,note_off,104,0,0,,11,,,70,127
73472,note_on,1,0,0,,5,,,41,127
73472,note_on,0,0,0,,2,,,74,127
73576,note_off,104,0,0,,2,,,74,127
73577,note_on,1,0,0,,0,,,72,127
73681,note_off,104,0,0,,0,,,72,127
73682,note_on,1,0,0,,11,,,70,127
73786,note_off,104,0,0,,11,,,70,127
73787,note_on,1,0,0,,10,,,69,127
73891,note_off,104,0,0,,10,,,69,127
73891,note_off,0,0,0,,5,,,41,127
73891,note_off,0,0,0,,5,,,53,127
73892,note_on,1,0,0,,11,,,46,127
73892,note_on,0,0,0,,10,,,69,127
74310,note_off,418,0,0,,10,,,69,127
74311,note_on,1,0,0,,11,,,70,127
75882,note_off,1571,0,0,,11,,,70,127
75882,note_off,0,0,0,,11,,,46,127
76800,end_of_track,918,1,0,,,,,,
