tick,type,time,meta,track,program,channel,pitch,tempo,note,velocity
0,copyright,0,1,0,,,,,,
0,program_change,0,0,0,6,0,,,,
0,pitchwheel,0,0,0,,0,0,,,
0,program_change,0,0,0,6,1,,,,
0,pitchwheel,0,0,0,,1,-590,,,
0,program_change,0,0,0,6,2,,,,
0,pitchwheel,0,0,0,,2,-272,,,
0,program_change,0,0,0,6,3,,,,
0,pitchwheel,0,0,0,,3,-353,,,
0,program_change,0,0,0,6,4,,,,
0,pitchwheel,0,0,0,,4,-560,,,
0,program_change,0,0,0,6,5,,,,
0,pitchwheel,0,0,0,,5,-80,,,
0,program_change,0,0,0,6,6,,,,
0,pitchwheel,0,0,0,,6,-625,,,
0,program_change,0,0,0,6,7,,,,
0,pitchwheel,0,0,0,,7,-130,,,
0,program_change,0,0,0,6,8,,,,
0,pitchwheel,0,0,0,,8,-512,,,
0,program_change,0,0,0,6,10,,,,
0,pitchwheel,0,0,0,,10,-464,,,
0,program_change,0,0,0,6,11,,,,
0,pitchwheel,0,0,0,,11,-208,,,
0,program_change,0,0,0,6,12,,,,
0,pitchwheel,0,0,0,,12,-553,,,
0,set_tempo,0,1,0,,,,500000,,
123,note_on,123,0,0,,11,,,70,127
123,note_on,0,0,0,,5,,,77,127
366,note_off,243,0,0,,5,,,77,127
366,note_off,0,0,0,,11,,,70,127
369,note_on,3,0,0,,10,,,69,127
369,note_on,0,0,0,,5,,,77,127
612,note_off,243,0,0,,10,,,69,127
615,note_on,3,0,0,,7,,,67,127
735,note_off,120,0,0,,5,,,77,127
738,note_on,3,0,0,,7,,,79,127
858,note_off,120,0,0,,7,,,79,127
858,note_off,0,0,0,,7,,,67,127
861,note_on,3,0,0,,5,,,65,127
861,note_on,0,0,0,,11,,,70,127
1104,note_off,243,0,0,,11,,,70,127
1104,note_off,0,0,0,,5,,,65,127
1107,note_on,3,0,0,,3,,,63,127
1107,note_on,0,0,0,,10,,,69,127
1350,note_off,243,0,0,,3,,,63,127
1353,note_on,3,0,0,,2,,,62,127
1473,note_off,120,0,0,,10,,,69,127
1476,note_on,3,0,0,,11,,,70,127
1596,note_off,120,0,0,,11,,,70,127
1596,note_off,0,0,0,,2,,,62,127
1599,note_on,3,0,0,,0,,,60,127
1599,note_on,0,0,0,,5,,,65,127
1670,note_off,71,0,0,,5,,,65,127
1671,note_on,1,0,0,,3,,,63,127
1741,note_off,70,0,0,,3,,,63,127
1745,note_on,4,0,0,,5,,,65,127
1816,note_off,71,0,0,,5,,,65,127
1817,note_on,1,0,0,,3,,,63,127
1840,note_off,23,0,0,,0,,,60,127
1843,note_on,3,0,0,,11,,,58,127
1888,note_off,45,0,0,,3,,,63,127
1892,note_on,4,0,0,,5,,,65,127
1963,note_off,71,0,0,,5,,,65,127
1966,note_on,3,0,0,,3,,,63,127
2037,note_off,71,0,0,,3,,,63,127
2038,note_on,1,0,0,,5,,,65,127
2085,note_off,47,0,0,,11,,,58,127
2088,note_on,3,0,0,,10,,,57,127
2108,note_off,20,0,0,,5,,,65,127
2112,note_on,4,0,0,,3,,,63,127
2183,note_off,71,0,0,,3,,,63,127
2184,note_on,1,0,0,,2,,,62,127
2254,note_off,70,0,0,,2,,,62,127
2258,note_on,4,0,0,,3,,,63,127
2329,note_off,71,0,0,,3,,,63,127
2329,note_off,0,0,0,,10,,,57,127
2332,note_on,3,0,0,,11,,,58,127
2332,note_on,0,0,0,,2,,,62,127
2452,note_off,120,0,0,,2,,,62,127
2455,note_on,3,0,0,,11,,,70,127
2575,note_off,120,0,0,,11,,,70,127
2575,note_off,0,0,0,,11,,,58,127
2578,note_on,3,0,0,,0,,,60,127
2578,note_on,0,0,0,,10,,,69,127
2698,note_off,120,0,0,,10,,,69,127
2701,note_on,3,0,0,,0,,,72,127
2821,note_off,120,0,0,,0,,,72,127
2821,note_off,0,0,0,,0,,,60,127
2824,note_on,3,0,0,,2,,,62,127
2824,note_on,0,0,0,,11,,,70,127
2944,note_off,120,0,0,,11,,,70,127
2947,note_on,3,0,0,,2,,,74,127
3067,note_off,120,0,0,,2,,,74,127
3067,note_off,0,0,0,,2,,,62,127
3070,note_on,3,0,0,,3,,,63,127
3070,note_on,0,0,0,,0,,,72,127
3190,note_off,120,0,0,,0,,,72,127
3193,note_on,3,0,0,,7,,,79,127
3313,note_off,120,0,0,,7,,,79,127
3313,note_off,0,0,0,,3,,,63,127
3316,note_on,3,0,0,,5,,,65,127
3316,note_on,0,0,0,,5,,,77,127
3436,note_off,120,0,0,,5,,,77,127
3439,note_on,3,0,0,,3,,,75,127
3559,note_off,120,0,0,,3,,,75,127
3562,note_on,3,0,0,,5,,,53,127
3562,note_on,0,0,0,,2,,,74,127
3682,note_off,120,0,0,,2,,,74,127
3685,note_on,3,0,0,,0,,,72,127
3802,note_off,117,0,0,,5,,,65,127
3805,note_off,3,0,0,,0,,,72,127
3805,note_off,0,0,0,,5,,,53,127
3808,note_on,3,0,0,,11,,,58,127
3808,note_on,0,0,0,,2,,,62,127
3808,note_on,0,0,0,,2,,,74,127
3928,note_off,120,0,0,,2,,,74,127
3931,note_on,3,0,0,,5,,,77,127
4051,note_off,120,0,0,,5,,,77,127
4051,note_off,0,0,0,,2,,,62,127
4051,note_off,0,0,0,,11,,,58,127
4054,note_on,3,0,0,,0,,,60,127
4054,note_on,0,0,0,,3,,,63,127
4054,note_on,0,0,0,,10,,,69,127
4174,note_off,120,0,0,,10,,,69,127
4177,note_on,3,0,0,,11,,,70,127
4297,note_off,120,0,0,,11,,,70,127
4297,note_off,0,0,0,,3,,,63,127
4297,note_off,0,0,0,,0,,,60,127
4300,note_on,3,0,0,,5,,,65,127
4300,note_on,0,0,0,,2,,,62,127
4300,note_on,0,0,0,,0,,,72,127
4420,note_off,120,0,0,,0,,,72,127
4423,note_on,3,0,0,,2,,,74,127
4543,note_off,120,0,0,,2,,,62,127
4543,note_off,0,0,0,,5,,,65,127
4546,note_on,3,0,0,,7,,,67,127
4546,note_on,0,0,0,,3,,,63,127
4607,note_off,61,0,0,,2,,,74,127
4668,note_on,61,0,0,,7,,,79,127
4788,note_off,120,0,0,,7,,,79,127
4788,note_off,0,0,0,,3,,,63,127
4788,note_off,0,0,0,,7,,,67,127
4791,note_on,3,0,0,,7,,,67,127
4791,note_on,0,0,0,,3,,,63,127
4791,note_on,0,0,0,,12,,,71,127
4911,note_off,120,0,0,,12,,,71,127
4914,note_on,3,0,0,,0,,,72,127
5034,note_off,120,0,0,,0,,,72,127
5034,note_off,0,0,0,,3,,,63,127
5034,note_off,0,0,0,,7,,,67,127
5037,note_on,3,0,0,,7,,,67,127
5037,note_on,0,0,0,,3,,,63,127
5037,note_on,0,0,0,,2,,,74,127
5157,note_off,120,0,0,,2,,,74,127
5160,note_on,3,0,0,,3,,,75,127
5280,note_off,120,0,0,,3,,,63,127
5280,note_off,0,0,0,,7,,,67,127
5283,note_on,3,0,0,,10,,,69,127
5283,note_on,0,0,0,,5,,,65,127
5344,note_off,61,0,0,,3,,,75,127
5405,note_on,61,0,0,,0,,,84,127
5525,note_off,120,0,0,,0,,,84,127
5525,note_off,0,0,0,,5,,,65,127
5525,note_off,0,0,0,,10,,,69,127
5528,note_on,3,0,0,,11,,,70,127
5528,note_on,0,0,0,,7,,,67,127
5528,note_on,0,0,0,,5,,,77,127
5648,note_off,120,0,0,,5,,,77,127
5651,note_on,3,0,0,,3,,,75,127
5771,note_off,120,0,0,,3,,,75,127
5771,note_off,0,0,0,,7,,,67,127
5771,note_off,0,0,0,,11,,,70,127
5774,note_on,3,0,0,,10,,,69,127
5774,note_on,0,0,0,,2,,,74,127
5894,note_off,120,0,0,,2,,,74,127
5897,note_on,3,0,0,,0,,,72,127
6017,note_off,120,0,0,,0,,,72,127
6017,note_off,0,0,0,,10,,,69,127
6020,note_on,3,0,0,,2,,,62,127
6020,note_on,0,0,0,,11,,,58,127
6020,note_on,0,0,0,,2,,,74,127
6140,note_off,120,0,0,,2,,,74,127
6143,note_on,3,0,0,,5,,,77,127
6263,note_off,120,0,0,,5,,,77,127
6263,note_off,0,0,0,,11,,,58,127
6263,note_off,0,0,0,,2,,,62,127
6266,note_on,3,0,0,,3,,,63,127
6266,note_on,0,0,0,,0,,,60,127
6266,note_on,0,0,0,,10,,,69,127
6386,note_off,120,0,0,,10,,,69,127
6389,note_on,3,0,0,,11,,,70,127
6509,note_off,120,0,0,,11,,,70,127
6509,note_off,0,0,0,,0,,,60,127
6509,note_off,0,0,0,,3,,,63,127
6512,note_on,3,0,0,,5,,,65,127
6512,note_on,0,0,0,,2,,,62,127
6512,note_on,0,0,0,,0,,,72,127
6632,note_off,120,0,0,,0,,,72,127
6635,note_on,3,0,0,,2,,,74,127
6755,note_off,120,0,0,,2,,,62,127
6755,note_off,0,0,0,,5,,,65,127
6758,note_on,3,0,0,,7,,,67,127
6758,note_on,0,0,0,,3,,,63,127
6840,note_off,82,0,0,,2,,,74,127
6881,note_on,41,0,0,,7,,,79,127
7001,note_off,120,0,0,,7,,,79,127
7001,note_off,0,0,0,,3,,,63,127
7001,note_off,0,0,0,,7,,,67,127
7004,note_on,3,0,0,,7,,,67,127
7004,note_on,0,0,0,,3,,,63,127
7004,note_on,0,0,0,,12,,,71,127
7124,note_off,120,0,0,,12,,,71,127
7127,note_on,3,0,0,,0,,,72,127
7247,note_off,120,0,0,,0,,,72,127
7247,note_off,0,0,0,,3,,,63,127
7247,note_off,0,0,0,,7,,,67,127
7250,note_on,3,0,0,,7,,,67,127
7250,note_on,0,0,0,,3,,,63,127
7250,note_on,0,0,0,,2,,,74,127
7370,note_off,120,0,0,,2,,,74,127
7373,note_on,3,0,0,,3,,,75,127
7493,note_off,120,0,0,,3,,,63,127
7493,note_off,0,0,0,,7,,,67,127
7496,note_on,3,0,0,,10,,,69,127
7496,note_on,0,0,0,,5,,,65,127
7616,note_off,120,0,0,,3,,,75,127
7619,note_on,3,0,0,,0,,,84,127
7739,note_off,120,0,0,,0,,,84,127
7739,note_off,0,0,0,,5,,,65,127
7739,note_off,0,0,0,,10,,,69,127
7742,note_on,3,0,0,,11,,,70,127
7742,note_on,0,0,0,,7,,,67,127
7742,note_on,0,0,0,,5,,,77,127
7862,note_off,120,0,0,,5,,,77,127
7865,note_on,3,0,0,,3,,,75,127
7985,note_off,120,0,0,,3,,,75,127
7985,note_off,0,0,0,,7,,,67,127
7985,note_off,0,0,0,,11,,,70,127
7988,note_on,3,0,0,,10,,,69,127
7988,note_on,0,0,0,,2,,,74,127
8108,note_off,120,0,0,,2,,,74,127
8111,note_on,3,0,0,,0,,,72,127
8231,note_off,120,0,0,,0,,,72,127
8231,note_off,0,0,0,,10,,,69,127
8234,note_on,3,0,0,,11,,,70,127
8234,note_on,0,0,0,,2,,,74,127
8354,note_off,120,0,0,,2,,,74,127
8357,note_on,3,0,0,,3,,,75,127
8477,note_off,120,0,0,,3,,,75,127
8480,note_on,3,0,0,,5,,,77,127
8592,note_off,112,0,0,,11,,,70,127
8600,note_off,8,0,0,,5,,,77,127
8603,note_on,3,0,0,,11,,,70,127
8723,note_off,120,0,0,,11,,,70,127
8726,note_on,3,0,0,,10,,,69,127
8846,note_off,120,0,0,,10,,,69,127
8849,note_on,3,0,0,,7,,,67,127
8969,note_off,120,0,0,,7,,,67,127
8972,note_on,3,0,0,,7,,,67,127
9028,note_on,56,0,0,,5,,,65,127
9029,note_off,1,0,0,,7,,,67,127
9086,note_off,57,0,0,,5,,,65,127
9086,note_on,0,0,0,,7,,,67,127
9094,note_on,8,0,0,,2,,,62,127
9144,note_off,50,0,0,,7,,,67,127
9145,note_on,1,0,0,,5,,,65,127
9202,note_on,57,0,0,,7,,,67,127
9203,note_off,1,0,0,,5,,,65,127
9213,note_off,10,0,0,,2,,,62,127
9216,note_on,3,0,0,,11,,,58,127
9261,note_off,45,0,0,,7,,,67,127
9262,note_on,1,0,0,,5,,,65,127
9319,note_off,57,0,0,,5,,,65,127
9319,note_on,0,0,0,,7,,,67,127
9336,note_off,17,0,0,,11,,,58,127
9339,note_on,3,0,0,,0,,,60,127
9379,note_off,40,0,0,,7,,,67,127
9379,note_on,0,0,0,,5,,,65,127
9436,note_off,57,0,0,,5,,,65,127
9436,note_on,0,0,0,,7,,,67,127
9459,note_off,23,0,0,,0,,,60,127
9462,note_on,3,0,0,,2,,,62,127
9495,note_off,33,0,0,,7,,,67,127
9495,note_on,0,0,0,,5,,,65,127
9554,note_off,59,0,0,,5,,,65,127
9555,note_on,1,0,0,,7,,,67,127
9582,note_off,27,0,0,,2,,,62,127
9585,note_on,3,0,0,,3,,,63,127
9612,note_on,27,0,0,,5,,,65,127
9613,note_off,1,0,0,,7,,,67,127
9670,note_off,57,0,0,,5,,,65,127
9670,note_on,0,0,0,,7,,,67,127
9727,note_off,57,0,0,,7,,,67,127
9728,note_on,1,0,0,,5,,,65,127
9768,note_off,40,0,0,,3,,,63,127
9787,note_off,19,0,0,,5,,,65,127
9787,note_on,0,0,0,,7,,,67,127
9829,note_on,42,0,0,,10,,,57,127
9846,note_off,17,0,0,,7,,,67,127
9846,note_on,0,0,0,,5,,,65,127
9903,note_off,57,0,0,,5,,,65,127
9903,note_on,0,0,0,,7,,,67,127
9949,note_off,46,0,0,,10,,,57,127
9952,note_on,3,0,0,,5,,,53,127
9962,note_off,10,0,0,,7,,,67,127
9962,note_on,0,0,0,,5,,,65,127
10019,note_off,57,0,0,,5,,,65,127
10019,note_on,0,0,0,,7,,,67,127
10071,note_off,52,0,0,,5,,,53,127
10074,note_on,3,0,0,,7,,,55,127
10078,note_off,4,0,0,,7,,,67,127
10078,note_on,0,0,0,,5,,,65,127
10137,note_off,59,0,0,,5,,,65,127
10138,note_on,1,0,0,,7,,,67,127
10194,note_off,56,0,0,,7,,,55,127
10195,note_off,1,0,0,,7,,,67,127
10195,note_on,0,0,0,,5,,,65,127
10196,note_on,1,0,0,,10,,,57,127
10252,note_on,56,0,0,,7,,,67,127
10253,note_off,1,0,0,,5,,,65,127
10309,note_off,56,0,0,,7,,,67,127
10310,note_on,1,0,0,,5,,,65,127
10315,note_off,5,0,0,,10,,,57,127
10318,note_on,3,0,0,,11,,,58,127
10369,note_off,51,0,0,,5,,,65,127
10370,note_on,1,0,0,,7,,,67,127
10427,note_off,57,0,0,,7,,,67,127
10427,note_on,0,0,0,,5,,,65,127
10486,note_off,59,0,0,,5,,,65,127
10486,note_on,0,0,0,,7,,,67,127
10501,note_off,15,0,0,,11,,,58,127
10544,note_off,43,0,0,,7,,,67,127
10544,note_on,0,0,0,,5,,,65,127
10562,note_on,18,0,0,,2,,,50,127
10602,note_off,40,0,0,,5,,,65,127
10603,note_on,1,0,0,,7,,,67,127
10660,note_on,57,0,0,,5,,,65,127
10661,note_off,1,0,0,,7,,,67,127
10681,note_off,20,0,0,,2,,,50,127
10684,note_on,3,0,0,,11,,,46,127
10717,note_off,33,0,0,,5,,,65,127
10718,note_on,1,0,0,,7,,,67,127
10777,note_off,59,0,0,,7,,,67,127
10777,note_on,0,0,0,,5,,,65,127
10804,note_off,27,0,0,,11,,,46,127
10807,note_on,3,0,0,,0,,,48,127
10835,note_on,28,0,0,,7,,,67,127
10836,note_off,1,0,0,,5,,,65,127
10892,note_off,56,0,0,,7,,,67,127
10893,note_on,1,0,0,,5,,,65,127
10926,note_off,33,0,0,,0,,,48,127
10929,note_on,3,0,0,,2,,,50,127
10952,note_off,23,0,0,,5,,,65,127
10952,note_on,0,0,0,,7,,,67,127
11009,note_off,57,0,0,,7,,,67,127
11010,note_on,1,0,0,,5,,,65,127
11048,note_off,38,0,0,,2,,,50,127
11051,note_on,3,0,0,,3,,,51,127
11066,note_on,15,0,0,,7,,,67,127
11069,note_off,3,0,0,,5,,,65,127
11123,note_on,54,0,0,,5,,,65,127
11124,note_off,1,0,0,,7,,,67,127
11171,note_off,47,0,0,,3,,,51,127
11174,note_on,3,0,0,,5,,,53,127
11295,note_off,121,0,0,,5,,,65,127
11296,note_on,1,0,0,,7,,,67,127
11416,note_off,120,0,0,,7,,,67,127
11416,note_off,0,0,0,,5,,,53,127
11419,note_on,3,0,0,,7,,,55,127
11419,note_on,0,0,0,,5,,,65,127
11539,note_off,120,0,0,,5,,,65,127
11542,note_on,3,0,0,,3,,,63,127
11662,note_off,120,0,0,,3,,,63,127
11662,note_off,0,0,0,,7,,,55,127
11665,note_on,3,0,0,,10,,,57,127
11665,note_on,0,0,0,,2,,,62,127
11785,note_off,120,0,0,,2,,,62,127
11788,note_on,3,0,0,,0,,,60,127
11908,note_off,120,0,0,,0,,,60,127
11908,note_off,0,0,0,,10,,,57,127
11911,note_on,3,0,0,,11,,,58,127
11911,note_on,0,0,0,,2,,,62,127
12034,note_on,123,0,0,,11,,,70,127
12095,note_off,61,0,0,,2,,,62,127
12154,note_off,59,0,0,,11,,,58,127
12157,note_on,3,0,0,,7,,,55,127
12277,note_off,120,0,0,,11,,,70,127
12280,note_on,3,0,0,,4,,,64,127
12400,note_off,120,0,0,,4,,,64,127
12400,note_off,0,0,0,,7,,,55,127
12403,note_on,3,0,0,,10,,,57,127
12403,note_on,0,0,0,,5,,,65,127
12526,note_on,123,0,0,,0,,,72,127
12587,note_off,61,0,0,,5,,,65,127
12646,note_off,59,0,0,,10,,,57,127
12649,note_on,3,0,0,,4,,,52,127
12769,note_off,120,0,0,,0,,,72,127
12772,note_on,3,0,0,,7,,,67,127
12892,note_off,120,0,0,,7,,,67,127
12892,note_off,0,0,0,,4,,,52,127
12895,note_on,3,0,0,,5,,,53,127
12895,note_on,0,0,0,,10,,,69,127
13018,note_on,123,0,0,,5,,,77,127
13079,note_off,61,0,0,,10,,,69,127
13138,note_off,59,0,0,,5,,,53,127
13141,note_on,3,0,0,,2,,,50,127
13261,note_off,120,0,0,,5,,,77,127
13264,note_on,3,0,0,,12,,,71,127
13384,note_off,120,0,0,,12,,,71,127
13384,note_off,0,0,0,,2,,,50,127
13387,note_on,3,0,0,,0,,,48,127
13387,note_on,0,0,0,,12,,,71,127
13752,note_off,365,0,0,,12,,,71,127
13755,note_on,3,0,0,,0,,,72,127
14120,note_off,365,0,0,,0,,,48,127
14123,note_on,3,0,0,,0,,,60,127
14243,note_off,120,0,0,,0,,,72,127
14246,note_on,3,0,0,,10,,,81,127
14366,note_off,120,0,0,,10,,,81,127
14369,note_on,3,0,0,,7,,,79,127
14489,note_off,120,0,0,,0,,,60,127
14492,note_on,3,0,0,,2,,,62,127
14612,note_off,120,0,0,,2,,,62,127
14615,note_on,3,0,0,,4,,,64,127
14735,note_off,120,0,0,,7,,,79,127
14738,note_on,3,0,0,,11,,,70,127
14858,note_off,120,0,0,,11,,,70,127
14858,note_off,0,0,0,,4,,,64,127
14861,note_on,3,0,0,,5,,,65,127
14861,note_on,0,0,0,,10,,,69,127
14981,note_off,120,0,0,,10,,,69,127
14984,note_on,3,0,0,,2,,,74,127
15104,note_off,120,0,0,,2,,,74,127
15107,note_on,3,0,0,,0,,,72,127
15227,note_off,120,0,0,,5,,,65,127
15230,note_on,3,0,0,,4,,,64,127
15350,note_off,120,0,0,,4,,,64,127
15353,note_on,3,0,0,,2,,,62,127
15353,note_on,0,0,0,,5,,,77,127
15473,note_off,120,0,0,,0,,,72,127
15476,note_on,3,0,0,,12,,,71,127
15596,note_off,120,0,0,,12,,,71,127
15596,note_off,0,0,0,,2,,,62,127
15599,note_on,3,0,0,,0,,,60,127
15599,note_on,0,0,0,,0,,,72,127
15719,note_off,120,0,0,,5,,,77,127
15722,note_on,3,0,0,,10,,,81,127
15842,note_off,120,0,0,,10,,,81,127
15842,note_off,0,0,0,,0,,,72,127
15845,note_on,3,0,0,,7,,,79,127
15965,note_off,120,0,0,,0,,,60,127
15968,note_on,3,0,0,,2,,,62,127
16088,note_off,120,0,0,,2,,,62,127
16091,note_on,3,0,0,,4,,,64,127
16211,note_off,120,0,0,,7,,,79,127
16214,note_on,3,0,0,,11,,,70,127
16334,note_off,120,0,0,,11,,,70,127
16334,note_off,0,0,0,,4,,,64,127
16337,note_on,3,0,0,,5,,,65,127
16337,note_on,0,0,0,,10,,,69,127
16457,note_off,120,0,0,,10,,,69,127
16460,note_on,3,0,0,,2,,,74,127
16580,note_off,120,0,0,,2,,,74,127
16583,note_on,3,0,0,,0,,,72,127
16703,note_off,120,0,0,,5,,,65,127
16706,note_on,3,0,0,,4,,,64,127
16826,note_off,120,0,0,,4,,,64,127
16829,note_on,3,0,0,,2,,,62,127
16829,note_on,0,0,0,,5,,,77,127
16949,note_off,120,0,0,,0,,,72,127
16952,note_on,3,0,0,,12,,,71,127
17072,note_off,120,0,0,,12,,,71,127
17072,note_off,0,0,0,,2,,,62,127
17075,note_on,3,0,0,,0,,,60,127
17075,note_on,0,0,0,,0,,,72,127
17195,note_off,120,0,0,,5,,,77,127
17198,note_on,3,0,0,,10,,,81,127
17318,note_off,120,0,0,,10,,,81,127
17318,note_off,0,0,0,,0,,,72,127
17321,note_on,3,0,0,,7,,,79,127
17441,note_off,120,0,0,,0,,,60,127
17444,note_on,3,0,0,,2,,,62,127
17564,note_off,120,0,0,,2,,,62,127
17567,note_on,3,0,0,,4,,,64,127
17687,note_off,120,0,0,,7,,,79,127
17690,note_on,3,0,0,,11,,,82,127
17810,note_off,120,0,0,,11,,,82,127
17810,note_off,0,0,0,,4,,,64,127
17813,note_on,3,0,0,,5,,,65,127
17813,note_on,0,0,0,,5,,,53,127
17813,note_on,0,0,0,,10,,,81,127
17933,note_off,120,0,0,,10,,,81,127
17936,note_on,3,0,0,,2,,,86,127
18056,note_off,120,0,0,,2,,,86,127
18059,note_on,3,0,0,,0,,,84,127
18179,note_off,120,0,0,,5,,,53,127
18179,note_off,0,0,0,,5,,,65,127
18182,note_on,3,0,0,,7,,,55,127
18302,note_off,120,0,0,,7,,,55,127
18305,note_on,3,0,0,,10,,,57,127
18425,note_off,120,0,0,,0,,,84,127
18428,note_on,3,0,0,,5,,,77,127
18548,note_off,120,0,0,,5,,,77,127
18548,note_off,0,0,0,,10,,,57,127
18551,note_on,3,0,0,,11,,,58,127
18551,note_on,0,0,0,,7,,,79,127
18671,note_off,120,0,0,,7,,,79,127
18674,note_on,3,0,0,,11,,,82,127
18794,note_off,120,0,0,,11,,,82,127
18794,note_off,0,0,0,,11,,,58,127
18797,note_on,3,0,0,,0,,,60,127
18797,note_on,0,0,0,,10,,,81,127
18917,note_off,120,0,0,,10,,,81,127
18920,note_on,3,0,0,,7,,,79,127
19040,note_off,120,0,0,,7,,,79,127
19043,note_on,3,0,0,,0,,,48,127
19043,note_on,0,0,0,,5,,,77,127
19163,note_off,120,0,0,,5,,,77,127
19166,note_on,3,0,0,,4,,,76,127
19283,note_off,117,0,0,,0,,,60,127
19286,note_off,3,0,0,,4,,,76,127
19286,note_off,0,0,0,,0,,,48,127
19289,note_on,3,0,0,,5,,,53,127
19289,note_on,0,0,0,,4,,,76,127
19534,note_on,245,0,0,,5,,,41,127
19774,note_off,240,0,0,,4,,,76,127
19779,note_on,5,0,0,,5,,,77,127
19996,note_off,217,0,0,,5,,,77,127
20022,note_off,26,0,0,,5,,,41,127
20023,note_off,1,0,0,,5,,,53,127
20024,note_on,1,0,0,,0,,,60,127
20147,note_on,123,0,0,,10,,,81,127
20267,note_off,120,0,0,,10,,,81,127
20270,note_on,3,0,0,,7,,,79,127
20390,note_off,120,0,0,,0,,,60,127
20393,note_on,3,0,0,,2,,,62,127
20513,note_off,120,0,0,,2,,,62,127
20516,note_on,3,0,0,,4,,,64,127
20636,note_off,120,0,0,,7,,,79,127
20639,note_on,3,0,0,,11,,,70,127
20759,note_off,120,0,0,,11,,,70,127
20759,note_off,0,0,0,,4,,,64,127
20762,note_on,3,0,0,,5,,,65,127
20762,note_on,0,0,0,,10,,,69,127
20885,note_on,123,0,0,,2,,,74,127
20946,note_off,61,0,0,,10,,,69,127
21005,note_off,59,0,0,,2,,,74,127
21008,note_on,3,0,0,,0,,,72,127
21128,note_off,120,0,0,,5,,,65,127
21131,note_on,3,0,0,,4,,,64,127
21251,note_off,120,0,0,,4,,,64,127
21254,note_on,3,0,0,,2,,,62,127
21254,note_on,0,0,0,,5,,,77,127
21374,note_off,120,0,0,,0,,,72,127
21377,note_on,3,0,0,,12,,,71,127
21497,note_off,120,0,0,,12,,,71,127
21497,note_off,0,0,0,,2,,,62,127
21500,note_on,3,0,0,,0,,,60,127
21500,note_on,0,0,0,,0,,,72,127
21620,note_off,120,0,0,,5,,,77,127
21623,note_on,3,0,0,,10,,,81,127
21743,note_off,120,0,0,,10,,,81,127
21743,note_off,0,0,0,,0,,,72,127
21746,note_on,3,0,0,,7,,,79,127
21866,note_off,120,0,0,,0,,,60,127
21869,note_on,3,0,0,,2,,,62,127
21989,note_off,120,0,0,,2,,,62,127
21992,note_on,3,0,0,,4,,,64,127
22112,note_off,120,0,0,,7,,,79,127
22115,note_on,3,0,0,,11,,,70,127
22235,note_off,120,0,0,,11,,,70,127
22235,note_off,0,0,0,,4,,,64,127
22238,note_on,3,0,0,,5,,,65,127
22238,note_on,0,0,0,,10,,,69,127
22361,note_on,123,0,0,,2,,,74,127
22422,note_off,61,0,0,,10,,,69,127
22481,note_off,59,0,0,,2,,,74,127
22484,note_on,3,0,0,,0,,,72,127
22604,note_off,120,0,0,,5,,,65,127
22607,note_on,3,0,0,,4,,,64,127
22727,note_off,120,0,0,,4,,,64,127
22730,note_on,3,0,0,,2,,,62,127
22730,note_on,0,0,0,,5,,,77,127
22850,note_off,120,0,0,,0,,,72,127
22853,note_on,3,0,0,,12,,,71,127
22973,note_off,120,0,0,,12,,,71,127
22973,note_off,0,0,0,,2,,,62,127
22976,note_on,3,0,0,,0,,,60,127
22976,note_on,0,0,0,,0,,,72,127
23096,note_off,120,0,0,,5,,,77,127
23099,note_on,3,0,0,,10,,,81,127
23219,note_off,120,0,0,,10,,,81,127
23219,note_off,0,0,0,,0,,,72,127
23222,note_on,3,0,0,,7,,,79,127
23342,note_off,120,0,0,,0,,,60,127
23345,note_on,3,0,0,,2,,,62,127
23465,note_off,120,0,0,,2,,,62,127
23468,note_on,3,0,0,,4,,,64,127
23588,note_off,120,0,0,,7,,,79,127
23591,note_on,3,0,0,,11,,,82,127
23711,note_off,120,0,0,,11,,,82,127
23711,note_off,0,0,0,,4,,,64,127
23714,note_on,3,0,0,,5,,,65,127
23714,note_on,0,0,0,,5,,,53,127
23714,note_on,0,0,0,,10,,,81,127
23837,note_on,123,0,0,,2,,,86,127
23855,note_off,18,0,0,,10,,,81,127
23957,note_off,102,0,0,,2,,,86,127
23960,note_on,3,0,0,,0,,,84,127
24080,note_off,120,0,0,,5,,,53,127
24080,note_off,0,0,0,,5,,,65,127
24083,note_on,3,0,0,,7,,,55,127
24203,note_off,120,0,0,,7,,,55,127
24206,note_on,3,0,0,,10,,,57,127
24326,note_off,120,0,0,,0,,,84,127
24329,note_on,3,0,0,,5,,,77,127
24449,note_off,120,0,0,,5,,,77,127
24449,note_off,0,0,0,,10,,,57,127
24452,note_on,3,0,0,,11,,,58,127
24452,note_on,0,0,0,,7,,,79,127
24575,note_on,123,0,0,,11,,,82,127
24593,note_off,18,0,0,,7,,,79,127
24695,note_off,102,0,0,,11,,,82,127
24695,note_off,0,0,0,,11,,,58,127
24698,note_on,3,0,0,,0,,,60,127
24698,note_on,0,0,0,,10,,,81,127
24818,note_off,120,0,0,,10,,,81,127
24821,note_on,3,0,0,,7,,,79,127
24941,note_off,120,0,0,,7,,,79,127
24944,note_on,3,0,0,,0,,,48,127
24944,note_on,0,0,0,,5,,,77,127
25064,note_off,120,0,0,,5,,,77,127
25067,note_on,3,0,0,,4,,,76,127
25184,note_off,117,0,0,,0,,,60,127
25187,note_off,3,0,0,,4,,,76,127
25187,note_off,0,0,0,,0,,,48,127
25190,note_on,3,0,0,,5,,,53,127
25190,note_on,0,0,0,,5,,,77,127
25310,note_off,120,0,0,,5,,,77,127
25313,note_on,3,0,0,,2,,,74,127
25433,note_off,120,0,0,,2,,,74,127
25436,note_on,3,0,0,,0,,,72,127
25556,note_off,120,0,0,,5,,,53,127
25559,note_on,3,0,0,,7,,,55,127
25679,note_off,120,0,0,,7,,,55,127
25682,note_on,3,0,0,,10,,,57,127
25718,note_off,36,0,0,,0,,,72,127
25805,note_on,87,0,0,,5,,,65,127
25925,note_off,120,0,0,,5,,,65,127
25925,note_off,0,0,0,,10,,,57,127
25928,note_on,3,0,0,,11,,,58,127
25928,note_on,0,0,0,,7,,,67,127
26048,note_off,120,0,0,,7,,,67,127
26051,note_on,3,0,0,,11,,,70,127
26171,note_off,120,0,0,,11,,,70,127
26171,note_off,0,0,0,,11,,,58,127
26174,note_on,3,0,0,,0,,,60,127
26174,note_on,0,0,0,,10,,,69,127
26294,note_off,120,0,0,,10,,,69,127
26297,note_on,3,0,0,,7,,,67,127
26417,note_off,120,0,0,,7,,,67,127
26420,note_on,3,0,0,,0,,,48,127
26420,note_on,0,0,0,,5,,,65,127
26540,note_off,120,0,0,,5,,,65,127
26543,note_on,3,0,0,,4,,,64,127
26660,note_off,117,0,0,,0,,,60,127
26663,note_off,3,0,0,,4,,,64,127
26663,note_off,0,0,0,,0,,,48,127
26666,note_on,3,0,0,,5,,,41,127
26666,note_on,0,0,0,,5,,,65,127
26786,note_off,120,0,0,,5,,,65,127
26789,note_on,3,0,0,,2,,,62,127
26909,note_off,120,0,0,,2,,,62,127
26912,note_on,3,0,0,,0,,,60,127
27032,note_off,120,0,0,,5,,,41,127
27035,note_on,3,0,0,,7,,,43,127
27155,note_off,120,0,0,,7,,,43,127
27158,note_on,3,0,0,,10,,,45,127
27278,note_off,120,0,0,,0,,,60,127
27281,note_on,3,0,0,,5,,,65,127
27401,note_off,120,0,0,,5,,,65,127
27401,note_off,0,0,0,,10,,,45,127
27404,note_on,3,0,0,,11,,,46,127
27404,note_on,0,0,0,,2,,,62,127
27527,note_on,123,0,0,,2,,,74,127
27527,note_on,0,0,0,,11,,,70,127
27588,note_off,61,0,0,,2,,,62,127
27647,note_off,59,0,0,,11,,,70,127
27647,note_off,0,0,0,,2,,,74,127
27647,note_off,0,0,0,,11,,,46,127
27650,note_on,3,0,0,,0,,,48,127
27650,note_on,0,0,0,,10,,,69,127
27650,note_on,0,0,0,,0,,,72,127
27770,note_off,120,0,0,,0,,,72,127
27770,note_off,0,0,0,,10,,,69,127
27773,note_on,3,0,0,,11,,,70,127
27773,note_on,0,0,0,,7,,,67,127
27893,note_off,120,0,0,,7,,,67,127
27893,note_off,0,0,0,,11,,,70,127
27896,note_on,3,0,0,,0,,,36,127
27896,note_on,0,0,0,,10,,,69,127
27896,note_on,0,0,0,,5,,,65,127
28016,note_off,120,0,0,,5,,,65,127
28016,note_off,0,0,0,,10,,,69,127
28019,note_on,3,0,0,,7,,,67,127
28019,note_on,0,0,0,,4,,,64,127
28136,note_off,117,0,0,,0,,,48,127
28139,note_off,3,0,0,,4,,,64,127
28139,note_off,0,0,0,,7,,,67,127
28139,note_off,0,0,0,,0,,,36,127
28142,note_on,3,0,0,,5,,,53,127
28142,note_on,0,0,0,,5,,,41,127
28142,note_on,0,0,0,,5,,,65,127
28806,note_off,664,0,0,,5,,,41,127
28875,note_off,69,0,0,,5,,,53,127
28876,note_off,1,0,0,,5,,,65,127
28877,note_on,1,0,0,,5,,,65,127
29000,note_on,123,0,0,,11,,,82,127
29120,note_off,120,0,0,,11,,,82,127
29123,note_on,3,0,0,,8,,,80,127
29246,note_on,123,0,0,,0,,,72,127
29277,note_off,31,0,0,,8,,,80,127
29366,note_off,89,0,0,,0,,,72,127
29366,note_off,0,0,0,,5,,,65,127
29369,note_on,3,0,0,,11,,,70,127
29369,note_on,0,0,0,,1,,,73,127
29489,note_off,120,0,0,,1,,,73,127
29492,note_on,3,0,0,,7,,,79,127
29612,note_off,120,0,0,,11,,,70,127
29615,note_on,3,0,0,,7,,,67,127
29735,note_off,120,0,0,,7,,,79,127
29738,note_on,3,0,0,,4,,,76,127
29858,note_off,120,0,0,,4,,,76,127
29858,note_off,0,0,0,,7,,,67,127
29861,note_on,3,0,0,,8,,,68,127
29861,note_on,0,0,0,,5,,,77,127
29981,note_off,120,0,0,,5,,,77,127
29984,note_on,3,0,0,,0,,,72,127
30104,note_off,120,0,0,,0,,,72,127
30104,note_off,0,0,0,,8,,,68,127
30107,note_on,3,0,0,,4,,,64,127
30107,note_on,0,0,0,,1,,,73,127
30227,note_off,120,0,0,,1,,,73,127
30230,note_on,3,0,0,,11,,,70,127
30350,note_off,120,0,0,,4,,,64,127
30353,note_on,3,0,0,,5,,,65,127
30473,note_off,120,0,0,,11,,,70,127
30476,note_on,3,0,0,,7,,,67,127
30596,note_off,120,0,0,,7,,,67,127
30599,note_on,3,0,0,,8,,,68,127
30719,note_off,120,0,0,,5,,,65,127
30722,note_on,3,0,0,,3,,,63,127
30842,note_off,120,0,0,,3,,,63,127
30845,note_on,3,0,0,,1,,,61,127
30965,note_off,120,0,0,,8,,,68,127
30968,note_on,3,0,0,,11,,,70,127
31088,note_off,120,0,0,,1,,,61,127
31091,note_on,3,0,0,,0,,,60,127
31211,note_off,120,0,0,,11,,,70,127
31214,note_on,3,0,0,,12,,,71,127
31334,note_off,120,0,0,,12,,,71,127
31337,note_on,3,0,0,,0,,,72,127
31457,note_off,120,0,0,,0,,,60,127
31460,note_on,3,0,0,,11,,,58,127
31580,note_off,120,0,0,,11,,,58,127
31583,note_on,3,0,0,,8,,,56,127
31703,note_off,120,0,0,,8,,,56,127
31706,note_on,3,0,0,,7,,,55,127
31823,note_off,117,0,0,,0,,,72,127
31826,note_off,3,0,0,,7,,,55,127
31829,note_on,3,0,0,,5,,,53,127
31952,note_on,123,0,0,,11,,,82,127
32072,note_off,120,0,0,,11,,,82,127
32075,note_on,3,0,0,,8,,,80,127
32198,note_on,123,0,0,,0,,,72,127
32318,note_off,120,0,0,,0,,,72,127
32318,note_off,0,0,0,,5,,,53,127
32321,note_on,3,0,0,,11,,,70,127
32321,note_on,0,0,0,,1,,,73,127
32433,note_off,112,0,0,,8,,,80,127
32443,note_on,10,0,0,,7,,,79,127
32563,note_off,120,0,0,,1,,,73,127
32563,note_off,0,0,0,,11,,,70,127
32566,note_on,3,0,0,,7,,,67,127
32686,note_off,120,0,0,,7,,,79,127
32689,note_on,3,0,0,,4,,,76,127
32809,note_off,120,0,0,,4,,,76,127
32809,note_off,0,0,0,,7,,,67,127
32812,note_on,3,0,0,,8,,,68,127
32812,note_on,0,0,0,,5,,,77,127
32932,note_off,120,0,0,,5,,,77,127
32935,note_on,3,0,0,,0,,,72,127
33055,note_off,120,0,0,,0,,,72,127
33055,note_off,0,0,0,,8,,,68,127
33058,note_on,3,0,0,,4,,,64,127
33058,note_on,0,0,0,,1,,,73,127
33178,note_off,120,0,0,,1,,,73,127
33181,note_on,3,0,0,,11,,,70,127
33301,note_off,120,0,0,,4,,,64,127
33304,note_on,3,0,0,,5,,,65,127
33424,note_off,120,0,0,,11,,,70,127
33427,note_on,3,0,0,,7,,,67,127
33547,note_off,120,0,0,,7,,,67,127
33550,note_on,3,0,0,,8,,,68,127
33670,note_off,120,0,0,,5,,,65,127
33673,note_on,3,0,0,,3,,,63,127
33793,note_off,120,0,0,,3,,,63,127
33796,note_on,3,0,0,,1,,,61,127
33916,note_off,120,0,0,,8,,,68,127
33919,note_on,3,0,0,,11,,,70,127
34039,note_off,120,0,0,,1,,,61,127
34042,note_on,3,0,0,,0,,,60,127
34162,note_off,120,0,0,,11,,,70,127
34165,note_on,3,0,0,,12,,,71,127
34285,note_off,120,0,0,,0,,,60,127
34288,note_on,3,0,0,,7,,,55,127
34408,note_off,120,0,0,,12,,,71,127
34411,note_on,3,0,0,,0,,,72,127
34531,note_off,120,0,0,,7,,,55,127
34534,note_on,3,0,0,,0,,,48,127
34777,note_off,243,0,0,,0,,,48,127
34780,note_on,3,0,0,,0,,,60,127
34900,note_off,120,0,0,,0,,,72,127
34903,note_on,3,0,0,,8,,,80,127
35023,note_off,120,0,0,,8,,,80,127
35026,note_on,3,0,0,,7,,,79,127
35146,note_off,120,0,0,,0,,,60,127
35149,note_on,3,0,0,,2,,,62,127
35269,note_off,120,0,0,,2,,,62,127
35272,note_on,3,0,0,,4,,,64,127
35392,note_off,120,0,0,,7,,,79,127
35395,note_on,3,0,0,,11,,,70,127
35515,note_off,120,0,0,,11,,,70,127
35515,note_off,0,0,0,,4,,,64,127
35518,note_on,3,0,0,,5,,,65,127
35518,note_on,0,0,0,,8,,,68,127
35638,note_off,120,0,0,,8,,,68,127
35641,note_on,3,0,0,,7,,,79,127
35761,note_off,120,0,0,,7,,,79,127
35764,note_on,3,0,0,,5,,,77,127
35884,note_off,120,0,0,,5,,,65,127
35887,note_on,3,0,0,,7,,,67,127
36007,note_off,120,0,0,,7,,,67,127
36010,note_on,3,0,0,,8,,,68,127
36130,note_off,120,0,0,,5,,,77,127
36133,note_on,3,0,0,,0,,,84,127
36253,note_off,120,0,0,,0,,,84,127
36253,note_off,0,0,0,,8,,,68,127
36256,note_on,3,0,0,,7,,,67,127
36256,note_on,0,0,0,,7,,,55,127
36256,note_on,0,0,0,,12,,,83,127
36376,note_off,120,0,0,,12,,,83,127
36379,note_on,3,0,0,,7,,,79,127
36499,note_off,120,0,0,,7,,,79,127
36502,note_on,3,0,0,,5,,,77,127
36622,note_off,120,0,0,,7,,,55,127
36622,note_off,0,0,0,,7,,,67,127
36625,note_on,3,0,0,,10,,,57,127
36745,note_off,120,0,0,,10,,,57,127
36748,note_on,3,0,0,,12,,,59,127
36868,note_off,120,0,0,,5,,,77,127
36871,note_on,3,0,0,,2,,,74,127
36991,note_off,120,0,0,,2,,,74,127
36991,note_off,0,0,0,,12,,,59,127
36994,note_on,3,0,0,,0,,,60,127
36994,note_on,0,0,0,,3,,,75,127
37114,note_off,120,0,0,,3,,,75,127
37117,note_on,3,0,0,,11,,,82,127
37237,note_off,120,0,0,,11,,,82,127
37240,note_on,3,0,0,,10,,,81,127
37360,note_off,120,0,0,,0,,,60,127
37363,note_on,3,0,0,,2,,,62,127
37483,note_off,120,0,0,,2,,,62,127
37486,note_on,3,0,0,,3,,,63,127
37606,note_off,120,0,0,,10,,,81,127
37609,note_on,3,0,0,,7,,,79,127
37729,note_off,120,0,0,,7,,,79,127
37729,note_off,0,0,0,,3,,,63,127
37732,note_on,3,0,0,,2,,,62,127
37732,note_on,0,0,0,,2,,,50,127
37732,note_on,0,0,0,,6,,,78,127
37852,note_off,120,0,0,,6,,,78,127
37855,note_on,3,0,0,,2,,,74,127
37975,note_off,120,0,0,,2,,,74,127
37978,note_on,3,0,0,,0,,,72,127
38098,note_off,120,0,0,,2,,,50,127
38098,note_off,0,0,0,,2,,,62,127
38101,note_on,3,0,0,,4,,,52,127
38221,note_off,120,0,0,,4,,,52,127
38224,note_on,3,0,0,,6,,,54,127
38344,note_off,120,0,0,,0,,,72,127
38347,note_on,3,0,0,,10,,,69,127
38467,note_off,120,0,0,,10,,,69,127
38467,note_off,0,0,0,,6,,,54,127
38470,note_on,3,0,0,,7,,,55,127
38470,note_on,0,0,0,,11,,,70,127
38590,note_off,120,0,0,,11,,,70,127
38593,note_on,3,0,0,,10,,,81,127
38713,note_off,120,0,0,,10,,,81,127
38716,note_on,3,0,0,,7,,,79,127
38836,note_off,120,0,0,,7,,,55,127
38839,note_on,3,0,0,,10,,,57,127
38959,note_off,120,0,0,,10,,,57,127
38962,note_on,3,0,0,,11,,,58,127
39082,note_off,120,0,0,,7,,,79,127
39085,note_on,3,0,0,,5,,,77,127
39205,note_off,120,0,0,,5,,,77,127
39205,note_off,0,0,0,,11,,,58,127
39208,note_on,3,0,0,,0,,,60,127
39208,note_on,0,0,0,,0,,,48,127
39208,note_on,0,0,0,,4,,,76,127
39328,note_off,120,0,0,,4,,,76,127
39331,note_on,3,0,0,,0,,,72,127
39451,note_off,120,0,0,,0,,,72,127
39454,note_on,3,0,0,,11,,,70,127
39574,note_off,120,0,0,,0,,,48,127
39574,note_off,0,0,0,,0,,,60,127
39577,note_on,3,0,0,,2,,,50,127
39697,note_off,120,0,0,,2,,,50,127
39700,note_on,3,0,0,,4,,,52,127
39820,note_off,120,0,0,,11,,,70,127
39823,note_on,3,0,0,,7,,,67,127
39943,note_off,120,0,0,,7,,,67,127
39943,note_off,0,0,0,,4,,,52,127
39946,note_on,3,0,0,,5,,,53,127
39946,note_on,0,0,0,,8,,,68,127
40066,note_off,120,0,0,,8,,,68,127
40069,note_on,3,0,0,,7,,,79,127
40189,note_off,120,0,0,,7,,,79,127
40192,note_on,3,0,0,,5,,,77,127
40312,note_off,120,0,0,,5,,,53,127
40315,note_on,3,0,0,,7,,,55,127
40435,note_off,120,0,0,,7,,,55,127
40438,note_on,3,0,0,,8,,,56,127
40558,note_off,120,0,0,,5,,,77,127
40561,note_on,3,0,0,,3,,,75,127
40681,note_off,120,0,0,,3,,,75,127
40681,note_off,0,0,0,,8,,,56,127
40684,note_on,3,0,0,,11,,,58,127
40684,note_on,0,0,0,,2,,,74,127
40804,note_off,120,0,0,,2,,,74,127
40807,note_on,3,0,0,,11,,,70,127
40927,note_off,120,0,0,,11,,,70,127
40930,note_on,3,0,0,,8,,,68,127
41050,note_off,120,0,0,,11,,,58,127
41053,note_on,3,0,0,,0,,,60,127
41173,note_off,120,0,0,,0,,,60,127
41176,note_on,3,0,0,,2,,,62,127
41296,note_off,120,0,0,,8,,,68,127
41299,note_on,3,0,0,,5,,,65,127
41419,note_off,120,0,0,,5,,,65,127
41419,note_off,0,0,0,,2,,,62,127
41422,note_on,3,0,0,,3,,,63,127
41422,note_on,0,0,0,,7,,,67,127
41545,note_on,123,0,0,,3,,,75,127
41576,note_off,31,0,0,,7,,,67,127
41665,note_off,89,0,0,,3,,,63,127
41668,note_on,3,0,0,,0,,,60,127
41788,note_off,120,0,0,,3,,,75,127
41791,note_on,3,0,0,,10,,,69,127
41911,note_off,120,0,0,,10,,,69,127
41911,note_off,0,0,0,,0,,,60,127
41914,note_on,3,0,0,,2,,,62,127
41914,note_on,0,0,0,,11,,,70,127
42037,note_on,123,0,0,,5,,,77,127
42068,note_off,31,0,0,,11,,,70,127
42157,note_off,89,0,0,,2,,,62,127
42160,note_on,3,0,0,,10,,,57,127
42280,note_off,120,0,0,,5,,,77,127
42283,note_on,3,0,0,,0,,,72,127
42403,note_off,120,0,0,,0,,,72,127
42403,note_off,0,0,0,,10,,,57,127
42406,note_on,3,0,0,,11,,,58,127
42406,note_on,0,0,0,,2,,,74,127
42529,note_on,123,0,0,,11,,,82,127
42560,note_off,31,0,0,,2,,,74,127
42649,note_off,89,0,0,,11,,,58,127
42652,note_on,3,0,0,,7,,,55,127
42772,note_off,120,0,0,,11,,,82,127
42775,note_on,3,0,0,,4,,,76,127
42895,note_off,120,0,0,,4,,,76,127
42895,note_off,0,0,0,,7,,,55,127
42898,note_on,3,0,0,,5,,,53,127
42898,note_on,0,0,0,,5,,,41,127
42898,note_on,0,0,0,,4,,,76,127
43383,note_off,485,0,0,,4,,,76,127
43388,note_on,5,0,0,,5,,,77,127
43562,note_off,174,0,0,,5,,,41,127
43618,note_off,56,0,0,,5,,,77,127
43631,note_off,13,0,0,,5,,,53,127
43634,note_on,3,0,0,,5,,,65,127
43757,note_on,123,0,0,,2,,,86,127
43877,note_off,120,0,0,,2,,,86,127
43880,note_on,3,0,0,,0,,,84,127
44000,note_off,120,0,0,,5,,,65,127
44003,note_on,3,0,0,,7,,,67,127
44123,note_off,120,0,0,,7,,,67,127
44126,note_on,3,0,0,,10,,,69,127
44246,note_off,120,0,0,,0,,,84,127
44249,note_on,3,0,0,,3,,,75,127
44369,note_off,120,0,0,,3,,,75,127
44369,note_off,0,0,0,,10,,,69,127
44372,note_on,3,0,0,,11,,,70,127
44372,note_on,0,0,0,,2,,,74,127
44492,note_off,120,0,0,,2,,,74,127
44495,note_on,3,0,0,,7,,,79,127
44615,note_off,120,0,0,,7,,,79,127
44618,note_on,3,0,0,,5,,,77,127
44738,note_off,120,0,0,,11,,,70,127
44741,note_on,3,0,0,,10,,,69,127
44861,note_off,120,0,0,,10,,,69,127
44864,note_on,3,0,0,,7,,,67,127
44864,note_on,0,0,0,,11,,,82,127
44984,note_off,120,0,0,,5,,,77,127
44987,note_on,3,0,0,,4,,,76,127
45107,note_off,120,0,0,,4,,,76,127
45107,note_off,0,0,0,,7,,,67,127
45110,note_on,3,0,0,,5,,,65,127
45110,note_on,0,0,0,,5,,,77,127
45230,note_off,120,0,0,,11,,,82,127
45233,note_on,3,0,0,,2,,,86,127
45353,note_off,120,0,0,,2,,,86,127
45353,note_off,0,0,0,,5,,,77,127
45356,note_on,3,0,0,,0,,,84,127
45476,note_off,120,0,0,,5,,,65,127
45479,note_on,3,0,0,,7,,,67,127
45599,note_off,120,0,0,,7,,,67,127
45602,note_on,3,0,0,,10,,,69,127
45722,note_off,120,0,0,,0,,,84,127
45725,note_on,3,0,0,,3,,,75,127
45845,note_off,120,0,0,,3,,,75,127
45845,note_off,0,0,0,,10,,,69,127
45848,note_on,3,0,0,,11,,,70,127
45848,note_on,0,0,0,,2,,,74,127
45968,note_off,120,0,0,,2,,,74,127
45971,note_on,3,0,0,,7,,,79,127
46091,note_off,120,0,0,,7,,,79,127
46094,note_on,3,0,0,,5,,,77,127
46214,note_off,120,0,0,,11,,,70,127
46217,note_on,3,0,0,,10,,,69,127
46337,note_off,120,0,0,,10,,,69,127
46340,note_on,3,0,0,,7,,,67,127
46340,note_on,0,0,0,,11,,,82,127
46460,note_off,120,0,0,,5,,,77,127
46463,note_on,3,0,0,,4,,,76,127
46583,note_off,120,0,0,,4,,,76,127
46583,note_off,0,0,0,,7,,,67,127
46586,note_on,3,0,0,,5,,,65,127
46586,note_on,0,0,0,,5,,,77,127
46706,note_off,120,0,0,,11,,,82,127
46709,note_on,3,0,0,,2,,,86,127
46829,note_off,120,0,0,,2,,,86,127
46829,note_off,0,0,0,,5,,,77,127
46832,note_on,3,0,0,,0,,,84,127
46952,note_off,120,0,0,,5,,,65,127
46955,note_on,3,0,0,,7,,,67,127
47075,note_off,120,0,0,,7,,,67,127
47078,note_on,3,0,0,,10,,,69,127
47198,note_off,120,0,0,,0,,,84,127
47201,note_on,3,0,0,,3,,,75,127
47321,note_off,120,0,0,,3,,,75,127
47321,note_off,0,0,0,,10,,,69,127
47324,note_on,3,0,0,,11,,,70,127
47324,note_on,0,0,0,,11,,,58,127
47324,note_on,0,0,0,,2,,,74,127
47444,note_off,120,0,0,,2,,,74,127
47447,note_on,3,0,0,,0,,,84,127
47567,note_off,120,0,0,,0,,,84,127
47570,note_on,3,0,0,,11,,,82,127
47690,note_off,120,0,0,,11,,,58,127
47690,note_off,0,0,0,,11,,,70,127
47693,note_on,3,0,0,,0,,,60,127
47813,note_off,120,0,0,,0,,,60,127
47816,note_on,3,0,0,,2,,,62,127
47936,note_off,120,0,0,,11,,,82,127
47939,note_on,3,0,0,,5,,,77,127
48059,note_off,120,0,0,,5,,,77,127
48059,note_off,0,0,0,,2,,,62,127
48062,note_on,3,0,0,,3,,,63,127
48062,note_on,0,0,0,,7,,,79,127
48182,note_off,120,0,0,,7,,,79,127
48185,note_on,3,0,0,,3,,,75,127
48305,note_off,120,0,0,,3,,,75,127
48305,note_off,0,0,0,,3,,,63,127
48308,note_on,3,0,0,,10,,,57,127
48308,note_on,0,0,0,,5,,,77,127
48428,note_off,120,0,0,,5,,,77,127
48431,note_on,3,0,0,,2,,,74,127
48551,note_off,120,0,0,,2,,,74,127
48551,note_off,0,0,0,,10,,,57,127
48554,note_on,3,0,0,,5,,,53,127
48554,note_on,0,0,0,,3,,,75,127
48674,note_off,120,0,0,,3,,,75,127
48677,note_on,3,0,0,,0,,,72,127
48797,note_off,120,0,0,,0,,,72,127
48797,note_off,0,0,0,,5,,,53,127
48800,note_on,3,0,0,,11,,,58,127
48800,note_on,0,0,0,,2,,,74,127
48920,note_off,120,0,0,,2,,,74,127
48923,note_on,3,0,0,,7,,,79,127
49043,note_off,120,0,0,,7,,,79,127
49046,note_on,3,0,0,,5,,,77,127
49166,note_off,120,0,0,,11,,,58,127
49169,note_on,3,0,0,,0,,,60,127
49289,note_off,120,0,0,,0,,,60,127
49292,note_on,3,0,0,,2,,,62,127
49412,note_off,120,0,0,,5,,,77,127
49415,note_on,3,0,0,,11,,,70,127
49535,note_off,120,0,0,,11,,,70,127
49535,note_off,0,0,0,,2,,,62,127
49538,note_on,3,0,0,,3,,,63,127
49538,note_on,0,0,0,,0,,,72,127
49658,note_off,120,0,0,,0,,,72,127
49661,note_on,3,0,0,,3,,,75,127
49781,note_off,120,0,0,,3,,,75,127
49781,note_off,0,0,0,,3,,,63,127
49784,note_on,3,0,0,,5,,,65,127
49784,note_on,0,0,0,,2,,,74,127
49904,note_off,120,0,0,,2,,,74,127
49907,note_on,3,0,0,,0,,,72,127
50027,note_off,120,0,0,,0,,,72,127
50030,note_on,3,0,0,,5,,,53,127
50030,note_on,0,0,0,,11,,,70,127
50150,note_off,120,0,0,,11,,,70,127
50153,note_on,3,0,0,,10,,,69,127
50270,note_off,117,0,0,,5,,,65,127
50273,note_off,3,0,0,,10,,,69,127
50273,note_off,0,0,0,,5,,,53,127
50276,note_on,3,0,0,,11,,,58,127
50276,note_on,0,0,0,,10,,,69,127
50521,note_on,245,0,0,,11,,,46,127
50761,note_off,240,0,0,,10,,,69,127
50766,note_on,5,0,0,,11,,,70,127
50996,note_off,230,0,0,,11,,,70,127
51009,note_off,13,0,0,,11,,,46,127
51010,note_off,1,0,0,,11,,,58,127
51011,note_on,1,0,0,,5,,,65,127
51134,note_on,123,0,0,,2,,,86,127
51254,note_off,120,0,0,,2,,,86,127
51257,note_on,3,0,0,,0,,,84,127
51377,note_off,120,0,0,,5,,,65,127
51380,note_on,3,0,0,,7,,,67,127
51500,note_off,120,0,0,,7,,,67,127
51503,note_on,3,0,0,,10,,,69,127
51623,note_off,120,0,0,,0,,,84,127
51626,note_on,3,0,0,,3,,,75,127
51746,note_off,120,0,0,,3,,,75,127
51746,note_off,0,0,0,,10,,,69,127
51749,note_on,3,0,0,,11,,,70,127
51749,note_on,0,0,0,,2,,,74,127
51872,note_on,123,0,0,,7,,,79,127
51992,note_off,120,0,0,,7,,,79,127
51992,note_off,0,0,0,,2,,,74,127
51995,note_on,3,0,0,,5,,,77,127
52115,note_off,120,0,0,,11,,,70,127
52118,note_on,3,0,0,,10,,,69,127
52238,note_off,120,0,0,,10,,,69,127
52241,note_on,3,0,0,,7,,,67,127
52241,note_on,0,0,0,,11,,,82,127
52361,note_off,120,0,0,,5,,,77,127
52364,note_on,3,0,0,,4,,,76,127
52484,note_off,120,0,0,,4,,,76,127
52484,note_off,0,0,0,,7,,,67,127
52487,note_on,3,0,0,,5,,,65,127
52487,note_on,0,0,0,,5,,,77,127
52607,note_off,120,0,0,,11,,,82,127
52610,note_on,3,0,0,,2,,,86,127
52730,note_off,120,0,0,,2,,,86,127
52730,note_off,0,0,0,,5,,,77,127
52733,note_on,3,0,0,,0,,,84,127
52853,note_off,120,0,0,,5,,,65,127
52856,note_on,3,0,0,,7,,,67,127
52976,note_off,120,0,0,,7,,,67,127
52979,note_on,3,0,0,,10,,,69,127
53099,note_off,120,0,0,,0,,,84,127
53102,note_on,3,0,0,,3,,,75,127
53222,note_off,120,0,0,,3,,,75,127
53222,note_off,0,0,0,,10,,,69,127
53225,note_on,3,0,0,,11,,,70,127
53225,note_on,0,0,0,,2,,,74,127
53348,note_on,123,0,0,,7,,,79,127
53468,note_off,120,0,0,,7,,,79,127
53468,note_off,0,0,0,,2,,,74,127
53471,note_on,3,0,0,,5,,,77,127
53591,note_off,120,0,0,,11,,,70,127
53594,note_on,3,0,0,,10,,,69,127
53714,note_off,120,0,0,,10,,,69,127
53717,note_on,3,0,0,,7,,,67,127
53717,note_on,0,0,0,,11,,,82,127
53837,note_off,120,0,0,,5,,,77,127
53840,note_on,3,0,0,,4,,,76,127
53960,note_off,120,0,0,,4,,,76,127
53960,note_off,0,0,0,,7,,,67,127
53963,note_on,3,0,0,,5,,,65,127
53963,note_on,0,0,0,,5,,,77,127
54083,note_off,120,0,0,,11,,,82,127
54086,note_on,3,0,0,,2,,,86,127
54206,note_off,120,0,0,,2,,,86,127
54206,note_off,0,0,0,,5,,,77,127
54209,note_on,3,0,0,,0,,,84,127
54329,note_off,120,0,0,,5,,,65,127
54332,note_on,3,0,0,,7,,,67,127
54452,note_off,120,0,0,,7,,,67,127
54455,note_on,3,0,0,,10,,,69,127
54575,note_off,120,0,0,,0,,,84,127
54578,note_on,3,0,0,,3,,,75,127
54698,note_off,120,0,0,,3,,,75,127
54698,note_off,0,0,0,,10,,,69,127
54701,note_on,3,0,0,,11,,,70,127
54701,note_on,0,0,0,,11,,,58,127
54701,note_on,0,0,0,,2,,,74,127
54824,note_on,123,0,0,,0,,,84,127
54944,note_off,120,0,0,,0,,,84,127
54944,note_off,0,0,0,,2,,,74,127
54947,note_on,3,0,0,,11,,,82,127
55067,note_off,120,0,0,,11,,,58,127
55067,note_off,0,0,0,,11,,,70,127
55070,note_on,3,0,0,,0,,,60,127
55190,note_off,120,0,0,,0,,,60,127
55193,note_on,3,0,0,,2,,,62,127
55313,note_off,120,0,0,,11,,,82,127
55316,note_on,3,0,0,,5,,,77,127
55436,note_off,120,0,0,,5,,,77,127
55436,note_off,0,0,0,,2,,,62,127
55439,note_on,3,0,0,,3,,,63,127
55439,note_on,0,0,0,,7,,,79,127
55559,note_off,120,0,0,,7,,,79,127
55562,note_on,3,0,0,,3,,,75,127
55682,note_off,120,0,0,,3,,,75,127
55682,note_off,0,0,0,,3,,,63,127
55685,note_on,3,0,0,,10,,,57,127
55685,note_on,0,0,0,,5,,,77,127
55805,note_off,120,0,0,,5,,,77,127
55808,note_on,3,0,0,,2,,,74,127
55928,note_off,120,0,0,,2,,,74,127
55928,note_off,0,0,0,,10,,,57,127
55931,note_on,3,0,0,,5,,,53,127
55931,note_on,0,0,0,,3,,,75,127
56051,note_off,120,0,0,,3,,,75,127
56054,note_on,3,0,0,,0,,,72,127
56174,note_off,120,0,0,,0,,,72,127
56174,note_off,0,0,0,,5,,,53,127
56177,note_on,3,0,0,,11,,,58,127
56177,note_on,0,0,0,,11,,,46,127
56177,note_on,0,0,0,,2,,,74,127
56300,note_on,123,0,0,,7,,,79,127
56361,note_off,61,0,0,,2,,,74,127
56420,note_off,59,0,0,,7,,,79,127
56423,note_on,3,0,0,,5,,,77,127
56543,note_off,120,0,0,,11,,,46,127
56543,note_off,0,0,0,,11,,,58,127
56546,note_on,3,0,0,,0,,,48,127
56666,note_off,120,0,0,,0,,,48,127
56669,note_on,3,0,0,,2,,,50,127
56789,note_off,120,0,0,,5,,,77,127
56792,note_on,3,0,0,,11,,,70,127
56912,note_off,120,0,0,,11,,,70,127
56912,note_off,0,0,0,,2,,,50,127
56915,note_on,3,0,0,,3,,,51,127
56915,note_on,0,0,0,,0,,,72,127
57035,note_off,120,0,0,,0,,,72,127
57038,note_on,3,0,0,,3,,,75,127
57158,note_off,120,0,0,,3,,,75,127
57158,note_off,0,0,0,,3,,,51,127
57161,note_on,3,0,0,,5,,,53,127
57161,note_on,0,0,0,,2,,,74,127
57281,note_off,120,0,0,,2,,,74,127
57284,note_on,3,0,0,,0,,,72,127
57404,note_off,120,0,0,,0,,,72,127
57407,note_on,3,0,0,,5,,,41,127
57407,note_on,0,0,0,,11,,,70,127
57527,note_off,120,0,0,,11,,,70,127
57530,note_on,3,0,0,,10,,,69,127
57647,note_off,117,0,0,,5,,,53,127
57650,note_off,3,0,0,,10,,,69,127
57650,note_off,0,0,0,,5,,,41,127
57653,note_on,3,0,0,,11,,,58,127
57653,note_on,0,0,0,,11,,,70,127
57776,note_on,123,0,0,,7,,,79,127
57837,note_off,61,0,0,,11,,,70,127
57896,note_off,59,0,0,,7,,,79,127
57899,note_on,3,0,0,,5,,,77,127
58019,note_off,120,0,0,,11,,,58,127
58022,note_on,3,0,0,,0,,,60,127
58142,note_off,120,0,0,,0,,,60,127
58145,note_on,3,0,0,,2,,,62,127
58265,note_off,120,0,0,,5,,,77,127
58268,note_on,3,0,0,,5,,,65,127
58388,note_off,120,0,0,,5,,,65,127
58388,note_off,0,0,0,,2,,,62,127
58391,note_on,3,0,0,,3,,,63,127
58391,note_on,0,0,0,,7,,,67,127
58514,note_on,123,0,0,,5,,,77,127
58545,note_off,31,0,0,,7,,,67,127
58634,note_off,89,0,0,,5,,,77,127
58637,note_on,3,0,0,,3,,,75,127
58757,note_off,120,0,0,,3,,,63,127
58760,note_on,3,0,0,,2,,,62,127
58880,note_off,120,0,0,,2,,,62,127
58883,note_on,3,0,0,,0,,,60,127
59003,note_off,120,0,0,,0,,,60,127
59003,note_off,0,0,0,,3,,,75,127
59006,note_on,3,0,0,,11,,,58,127
59006,note_on,0,0,0,,3,,,63,127
59126,note_off,120,0,0,,3,,,63,127
59126,note_off,0,0,0,,11,,,58,127
59129,note_on,3,0,0,,5,,,53,127
59129,note_on,0,0,0,,5,,,65,127
59252,note_on,123,0,0,,11,,,70,127
59283,note_off,31,0,0,,5,,,65,127
59372,note_off,89,0,0,,11,,,70,127
59372,note_off,0,0,0,,5,,,53,127
59375,note_on,3,0,0,,3,,,51,127
59375,note_on,0,0,0,,10,,,69,127
59495,note_off,120,0,0,,10,,,69,127
59498,note_on,3,0,0,,0,,,72,127
59618,note_off,120,0,0,,0,,,72,127
59618,note_off,0,0,0,,3,,,51,127
59621,note_on,3,0,0,,2,,,50,127
59621,note_on,0,0,0,,11,,,70,127
59741,note_off,120,0,0,,11,,,70,127
59744,note_on,3,0,0,,2,,,74,127
59864,note_off,120,0,0,,2,,,74,127
59864,note_off,0,0,0,,2,,,50,127
59867,note_on,3,0,0,,3,,,51,127
59867,note_on,0,0,0,,0,,,72,127
59990,note_on,123,0,0,,7,,,79,127
60021,note_off,31,0,0,,0,,,72,127
60110,note_off,89,0,0,,7,,,79,127
60110,note_off,0,0,0,,3,,,51,127
60113,note_on,3,0,0,,5,,,53,127
60113,note_on,0,0,0,,5,,,77,127
60233,note_off,120,0,0,,5,,,77,127
60236,note_on,3,0,0,,3,,,75,127
60356,note_off,120,0,0,,3,,,75,127
60359,note_on,3,0,0,,5,,,41,127
60359,note_on,0,0,0,,2,,,74,127
60479,note_off,120,0,0,,2,,,74,127
60482,note_on,3,0,0,,0,,,72,127
60599,note_off,117,0,0,,5,,,53,127
60602,note_off,3,0,0,,0,,,72,127
60602,note_off,0,0,0,,5,,,41,127
60605,note_on,3,0,0,,11,,,58,127
60605,note_on,0,0,0,,11,,,70,127
60728,note_on,123,0,0,,7,,,79,127
60848,note_off,120,0,0,,7,,,79,127
60848,note_off,0,0,0,,11,,,70,127
60851,note_on,3,0,0,,5,,,77,127
60971,note_off,120,0,0,,11,,,58,127
60974,note_on,3,0,0,,0,,,60,127
61094,note_off,120,0,0,,0,,,60,127
61097,note_on,3,0,0,,2,,,62,127
61217,note_off,120,0,0,,5,,,77,127
61220,note_on,3,0,0,,5,,,65,127
61340,note_off,120,0,0,,5,,,65,127
61340,note_off,0,0,0,,2,,,62,127
61343,note_on,3,0,0,,3,,,63,127
61343,note_on,0,0,0,,7,,,67,127
61466,note_on,123,0,0,,6,,,78,127
61586,note_off,120,0,0,,6,,,78,127
61586,note_off,0,0,0,,7,,,67,127
61589,note_on,3,0,0,,7,,,79,127
61709,note_off,120,0,0,,3,,,63,127
61712,note_on,3,0,0,,2,,,62,127
61832,note_off,120,0,0,,2,,,62,127
61835,note_on,3,0,0,,0,,,60,127
61955,note_off,120,0,0,,0,,,60,127
61955,note_off,0,0,0,,7,,,79,127
61958,note_on,3,0,0,,11,,,58,127
61958,note_on,0,0,0,,3,,,75,127
62078,note_off,120,0,0,,3,,,75,127
62078,note_off,0,0,0,,11,,,58,127
62081,note_on,3,0,0,,5,,,53,127
62081,note_on,0,0,0,,10,,,81,127
62201,note_off,120,0,0,,10,,,81,127
62204,note_on,3,0,0,,5,,,77,127
62324,note_off,120,0,0,,5,,,77,127
62324,note_off,0,0,0,,5,,,53,127
62327,note_on,3,0,0,,3,,,51,127
62327,note_on,0,0,0,,7,,,79,127
62447,note_off,120,0,0,,7,,,79,127
62450,note_on,3,0,0,,10,,,81,127
62570,note_off,120,0,0,,10,,,81,127
62570,note_off,0,0,0,,3,,,51,127
62573,note_on,3,0,0,,2,,,50,127
62573,note_on,0,0,0,,11,,,82,127
62693,note_off,120,0,0,,11,,,82,127
62696,note_on,3,0,0,,5,,,77,127
62816,note_off,120,0,0,,5,,,77,127
62816,note_off,0,0,0,,2,,,50,127
62819,note_on,3,0,0,,3,,,51,127
62819,note_on,0,0,0,,7,,,79,127
62939,note_off,120,0,0,,7,,,79,127
62942,note_on,3,0,0,,3,,,75,127
63062,note_off,120,0,0,,3,,,75,127
63062,note_off,0,0,0,,3,,,51,127
63065,note_on,3,0,0,,5,,,53,127
63065,note_on,0,0,0,,5,,,77,127
63065,note_on,0,0,0,,2,,,74,127
63185,note_off,120,0,0,,5,,,77,127
63193,note_on,8,0,0,,11,,,82,127
63308,note_off,115,0,0,,2,,,74,127
63321,note_off,13,0,0,,11,,,82,127
63329,note_on,8,0,0,,5,,,41,127
63329,note_on,0,0,0,,3,,,75,127
63329,note_on,0,0,0,,0,,,72,127
63457,note_off,128,0,0,,3,,,75,127
63465,note_on,8,0,0,,10,,,81,127
63552,note_off,87,0,0,,5,,,53,127
63590,note_off,38,0,0,,0,,,72,127
63590,note_off,0,0,0,,5,,,41,127
63603,note_off,13,0,0,,10,,,81,127
63613,note_on,10,0,0,,11,,,46,127
63613,note_on,0,0,0,,10,,,81,127
63613,note_on,0,0,0,,0,,,72,127
64047,note_off,434,0,0,,0,,,72,127
64047,note_off,0,0,0,,10,,,81,127
64047,note_on,0,0,0,,11,,,82,127
64047,note_on,0,0,0,,11,,,70,127
65763,note_off,1716,0,0,,11,,,70,127
65763,note_off,0,0,0,,11,,,82,127
65763,note_off,0,0,0,,11,,,46,127
70656,end_of_track,4893,1,0,,,,,,
