tick,type,time,meta,track,program,channel,pitch,tempo,note,velocity
0,copyright,0,1,0,,,,,,
0,program_change,0,0,0,6,0,,,,
0,pitchwheel,0,0,0,,0,0,,,
0,program_change,0,0,0,6,1,,,,
0,pitchwheel,0,0,0,,1,-590,,,
0,program_change,0,0,0,6,2,,,,
0,pitchwheel,0,0,0,,2,-272,,,
0,program_change,0,0,0,6,3,,,,
0,pitchwheel,0,0,0,,3,-353,,,
0,program_change,0,0,0,6,4,,,,
0,pitchwheel,0,0,0,,4,-560,,,
0,program_change,0,0,0,6,5,,,,
0,pitchwheel,0,0,0,,5,-80,,,
0,program_change,0,0,0,6,6,,,,
0,pitchwheel,0,0,0,,6,-625,,,
0,program_change,0,0,0,6,7,,,,
0,pitchwheel,0,0,0,,7,-130,,,
0,program_change,0,0,0,6,8,,,,
0,pitchwheel,0,0,0,,8,-512,,,
0,program_change,0,0,0,6,10,,,,
0,pitchwheel,0,0,0,,10,-464,,,
0,program_change,0,0,0,6,11,,,,
0,pitchwheel,0,0,0,,11,-208,,,
0,program_change,0,0,0,6,12,,,,
0,pitchwheel,0,0,0,,12,-553,,,
0,set_tempo,0,1,0,,,,500000,,
154,note_on,154,0,0,,10,,,81,127
460,note_off,306,0,0,,10,,,81,127
461,note_on,1,0,0,,10,,,81,127
537,note_off,76,0,0,,10,,,81,127
538,note_on,1,0,0,,8,,,80,127
614,note_off,76,0,0,,8,,,80,127
615,note_on,1,0,0,,6,,,78,127
691,note_off,76,0,0,,6,,,78,127
692,note_on,1,0,0,,8,,,80,127
768,note_off,76,0,0,,8,,,80,127
769,note_on,1,0,0,,10,,,81,127
1075,note_off,306,0,0,,10,,,81,127
1076,note_on,1,0,0,,4,,,76,127
1229,note_off,153,0,0,,4,,,76,127
1230,note_on,1,0,0,,6,,,78,127
1383,note_off,153,0,0,,6,,,78,127
1384,note_on,1,0,0,,12,,,71,127
1537,note_off,153,0,0,,12,,,71,127
1538,note_on,1,0,0,,1,,,73,127
1691,note_off,153,0,0,,1,,,73,127
1692,note_on,1,0,0,,8,,,68,127
1845,note_off,153,0,0,,8,,,68,127
1846,note_on,1,0,0,,10,,,69,127
1999,note_off,153,0,0,,10,,,69,127
2000,note_on,1,0,0,,1,,,61,127
2153,note_off,153,0,0,,1,,,61,127
2154,note_on,1,0,0,,2,,,62,127
2307,note_off,153,0,0,,2,,,62,127
2308,note_on,1,0,0,,4,,,64,127
2596,note_off,288,0,0,,4,,,64,127
2615,note_on,19,0,0,,4,,,64,127
2921,note_off,306,0,0,,4,,,64,127
2922,note_on,1,0,0,,4,,,64,127
2998,note_off,76,0,0,,4,,,64,127
2999,note_on,1,0,0,,2,,,62,127
3075,note_off,76,0,0,,2,,,62,127
3076,note_on,1,0,0,,1,,,61,127
3152,note_off,76,0,0,,1,,,61,127
3153,note_on,1,0,0,,2,,,62,127
3229,note_off,76,0,0,,2,,,62,127
3230,note_on,1,0,0,,4,,,64,127
3536,note_off,306,0,0,,4,,,64,127
3537,note_on,1,0,0,,12,,,59,127
3690,note_off,153,0,0,,12,,,59,127
3691,note_on,1,0,0,,1,,,61,127
3844,note_off,153,0,0,,1,,,61,127
3845,note_on,1,0,0,,8,,,56,127
3845,note_on,0,0,0,,2,,,74,127
3998,note_off,153,0,0,,2,,,74,127
3998,note_off,0,0,0,,8,,,56,127
3999,note_on,1,0,0,,10,,,57,127
3999,note_on,0,0,0,,1,,,73,127
4152,note_off,153,0,0,,1,,,73,127
4152,note_off,0,0,0,,10,,,57,127
4153,note_on,1,0,0,,1,,,49,127
4153,note_on,0,0,0,,12,,,71,127
4306,note_off,153,0,0,,12,,,71,127
4306,note_off,0,0,0,,1,,,49,127
4307,note_on,1,0,0,,2,,,50,127
4307,note_on,0,0,0,,10,,,69,127
4460,note_off,153,0,0,,2,,,50,127
4461,note_on,1,0,0,,4,,,52,127
4614,note_off,153,0,0,,10,,,69,127
4615,note_on,1,0,0,,8,,,68,127
4768,note_off,153,0,0,,8,,,68,127
4768,note_off,0,0,0,,4,,,52,127
4769,note_on,1,0,0,,10,,,45,127
4769,note_on,0,0,0,,10,,,69,127
5063,note_off,294,0,0,,10,,,69,127
5076,note_off,13,0,0,,10,,,45,127
5083,note_on,7,0,0,,10,,,57,127
5083,note_on,0,0,0,,10,,,81,127
5237,note_on,154,0,0,,1,,,73,127
5314,note_off,77,0,0,,10,,,81,127
5390,note_off,76,0,0,,1,,,73,127
5391,note_on,1,0,0,,2,,,62,127
5391,note_on,0,0,0,,12,,,59,127
5391,note_on,0,0,0,,1,,,73,127
5544,note_off,153,0,0,,1,,,73,127
5545,note_on,1,0,0,,2,,,74,127
5698,note_off,153,0,0,,10,,,57,127
5699,note_on,1,0,0,,8,,,56,127
5699,note_on,0,0,0,,12,,,83,127
5849,note_off,150,0,0,,2,,,74,127
5852,note_on,3,0,0,,12,,,71,127
6005,note_off,153,0,0,,12,,,71,127
6005,note_off,0,0,0,,8,,,56,127
6005,note_off,0,0,0,,12,,,59,127
6005,note_off,0,0,0,,2,,,62,127
6006,note_on,1,0,0,,10,,,57,127
6006,note_on,0,0,0,,12,,,71,127
6159,note_off,153,0,0,,12,,,71,127
6159,note_off,0,0,0,,12,,,83,127
6160,note_on,1,0,0,,1,,,73,127
6304,note_off,144,0,0,,1,,,73,127
6313,note_off,9,0,0,,10,,,57,127
6314,note_on,1,0,0,,10,,,57,127
6314,note_on,0,0,0,,10,,,81,127
6468,note_on,154,0,0,,1,,,73,127
6545,note_off,77,0,0,,10,,,81,127
6621,note_off,76,0,0,,1,,,73,127
6622,note_on,1,0,0,,2,,,62,127
6622,note_on,0,0,0,,12,,,59,127
6622,note_on,0,0,0,,1,,,73,127
6775,note_off,153,0,0,,1,,,73,127
6776,note_on,1,0,0,,2,,,74,127
6929,note_off,153,0,0,,10,,,57,127
6930,note_on,1,0,0,,8,,,56,127
6930,note_on,0,0,0,,12,,,83,127
7007,note_off,77,0,0,,2,,,74,127
7083,note_off,76,0,0,,12,,,83,127
7084,note_on,1,0,0,,12,,,71,127
7237,note_off,153,0,0,,12,,,71,127
7237,note_off,0,0,0,,8,,,56,127
7237,note_off,0,0,0,,12,,,59,127
7237,note_off,0,0,0,,2,,,62,127
7238,note_on,1,0,0,,10,,,57,127
7238,note_on,0,0,0,,12,,,71,127
7391,note_off,153,0,0,,12,,,71,127
7392,note_on,1,0,0,,1,,,73,127
7536,note_off,144,0,0,,1,,,73,127
7545,note_off,9,0,0,,10,,,57,127
7546,note_on,1,0,0,,10,,,57,127
7546,note_on,0,0,0,,10,,,81,127
7700,note_on,154,0,0,,1,,,73,127
7777,note_off,77,0,0,,10,,,81,127
7853,note_off,76,0,0,,1,,,73,127
7853,note_off,0,0,0,,10,,,57,127
7854,note_on,1,0,0,,12,,,59,127
7854,note_on,0,0,0,,2,,,74,127
8007,note_off,153,0,0,,2,,,74,127
8008,note_on,1,0,0,,8,,,80,127
8161,note_off,153,0,0,,8,,,80,127
8161,note_off,0,0,0,,12,,,59,127
8162,note_on,1,0,0,,1,,,61,127
8162,note_on,0,0,0,,6,,,78,127
8315,note_off,153,0,0,,6,,,78,127
8316,note_on,1,0,0,,5,,,77,127
8469,note_off,153,0,0,,5,,,77,127
8469,note_off,0,0,0,,1,,,61,127
8470,note_on,1,0,0,,2,,,62,127
8470,note_on,0,0,0,,6,,,78,127
8572,note_off,102,0,0,,6,,,78,127
8573,note_on,1,0,0,,4,,,76,127
8675,note_off,102,0,0,,4,,,76,127
8676,note_on,1,0,0,,2,,,74,127
8778,note_off,102,0,0,,2,,,74,127
8778,note_off,0,0,0,,2,,,62,127
8779,note_on,1,0,0,,6,,,54,127
8779,note_on,0,0,0,,6,,,78,127
8933,note_on,154,0,0,,10,,,69,127
9035,note_off,102,0,0,,6,,,78,127
9085,note_off,50,0,0,,10,,,69,127
9085,note_off,0,0,0,,6,,,54,127
9086,note_on,1,0,0,,7,,,55,127
9086,note_on,0,0,0,,12,,,71,127
9239,note_off,153,0,0,,12,,,71,127
9240,note_on,1,0,0,,4,,,76,127
9393,note_off,153,0,0,,4,,,76,127
9393,note_off,0,0,0,,7,,,55,127
9394,note_on,1,0,0,,10,,,57,127
9394,note_on,0,0,0,,2,,,74,127
9547,note_off,153,0,0,,2,,,74,127
9548,note_on,1,0,0,,1,,,73,127
9701,note_off,153,0,0,,1,,,73,127
9701,note_off,0,0,0,,10,,,57,127
9702,note_on,1,0,0,,12,,,59,127
9702,note_on,0,0,0,,2,,,74,127
9804,note_off,102,0,0,,2,,,74,127
9805,note_on,1,0,0,,1,,,73,127
9907,note_off,102,0,0,,1,,,73,127
9908,note_on,1,0,0,,12,,,71,127
10010,note_off,102,0,0,,12,,,71,127
10010,note_off,0,0,0,,12,,,59,127
10011,note_on,1,0,0,,2,,,50,127
10011,note_on,0,0,0,,2,,,74,127
10165,note_on,154,0,0,,6,,,66,127
10318,note_off,153,0,0,,6,,,66,127
10318,note_off,0,0,0,,2,,,50,127
10319,note_on,1,0,0,,4,,,52,127
10319,note_on,0,0,0,,7,,,67,127
10364,note_off,45,0,0,,2,,,74,127
10472,note_off,108,0,0,,7,,,67,127
10473,note_on,1,0,0,,1,,,73,127
10626,note_off,153,0,0,,1,,,73,127
10626,note_off,0,0,0,,4,,,52,127
10627,note_on,1,0,0,,6,,,54,127
10627,note_on,0,0,0,,12,,,71,127
10780,note_off,153,0,0,,12,,,71,127
10781,note_on,1,0,0,,11,,,70,127
10934,note_off,153,0,0,,11,,,70,127
10934,note_off,0,0,0,,6,,,54,127
10935,note_on,1,0,0,,12,,,59,127
10935,note_on,0,0,0,,12,,,71,127
11089,note_on,154,0,0,,4,,,64,127
11207,note_off,118,0,0,,12,,,71,127
11241,note_off,34,0,0,,4,,,64,127
11241,note_off,0,0,0,,12,,,59,127
11242,note_on,1,0,0,,10,,,57,127
11242,note_on,0,0,0,,6,,,66,127
11395,note_off,153,0,0,,6,,,66,127
11396,note_on,1,0,0,,3,,,63,127
11549,note_off,153,0,0,,3,,,63,127
11549,note_off,0,0,0,,10,,,57,127
11550,note_on,1,0,0,,8,,,56,127
11550,note_on,0,0,0,,4,,,64,127
11704,note_on,154,0,0,,4,,,76,127
11806,note_off,102,0,0,,4,,,64,127
11856,note_off,50,0,0,,4,,,76,127
11856,note_off,0,0,0,,8,,,56,127
11857,note_on,1,0,0,,6,,,54,127
11857,note_on,0,0,0,,6,,,78,127
12010,note_off,153,0,0,,6,,,78,127
12011,note_on,1,0,0,,3,,,75,127
12164,note_off,153,0,0,,3,,,75,127
12164,note_off,0,0,0,,6,,,54,127
12165,note_on,1,0,0,,4,,,52,127
12165,note_on,0,0,0,,4,,,76,127
12319,note_on,154,0,0,,10,,,69,127
12437,note_off,118,0,0,,4,,,76,127
12471,note_off,34,0,0,,10,,,69,127
12471,note_off,0,0,0,,4,,,52,127
12472,note_on,1,0,0,,2,,,50,127
12472,note_on,0,0,0,,12,,,71,127
12625,note_off,153,0,0,,12,,,71,127
12626,note_on,1,0,0,,8,,,68,127
12779,note_off,153,0,0,,8,,,68,127
12779,note_off,0,0,0,,2,,,50,127
12780,note_on,1,0,0,,1,,,49,127
12780,note_on,0,0,0,,10,,,69,127
12934,note_on,154,0,0,,10,,,81,127
13036,note_off,102,0,0,,10,,,69,127
13086,note_off,50,0,0,,10,,,81,127
13086,note_off,0,0,0,,1,,,49,127
13087,note_on,1,0,0,,12,,,47,127
13087,note_on,0,0,0,,12,,,83,127
13240,note_off,153,0,0,,12,,,83,127
13241,note_on,1,0,0,,8,,,80,127
13394,note_off,153,0,0,,8,,,80,127
13394,note_off,0,0,0,,12,,,47,127
13395,note_on,1,0,0,,10,,,45,127
13395,note_on,0,0,0,,10,,,81,127
13549,note_on,154,0,0,,10,,,69,127
13699,note_off,150,0,0,,10,,,81,127
13701,note_off,2,0,0,,10,,,69,127
13702,note_on,1,0,0,,10,,,81,127
13855,note_off,153,0,0,,10,,,81,127
13856,note_on,1,0,0,,8,,,80,127
14009,note_off,153,0,0,,8,,,80,127
14009,note_off,0,0,0,,10,,,45,127
14010,note_on,1,0,0,,1,,,49,127
14010,note_on,0,0,0,,6,,,78,127
14010,note_on,0,0,0,,8,,,80,127
14163,note_off,153,0,0,,8,,,80,127
14163,note_off,0,0,0,,6,,,78,127
14164,note_on,1,0,0,,4,,,76,127
14317,note_off,153,0,0,,4,,,76,127
14318,note_on,1,0,0,,3,,,75,127
14471,note_off,153,0,0,,3,,,75,127
14472,note_on,1,0,0,,4,,,76,127
14625,note_off,153,0,0,,4,,,76,127
14625,note_off,0,0,0,,1,,,49,127
14626,note_on,1,0,0,,12,,,47,127
14626,note_on,0,0,0,,6,,,78,127
14779,note_off,153,0,0,,6,,,78,127
14780,note_on,1,0,0,,12,,,71,127
14933,note_off,153,0,0,,12,,,71,127
14934,note_on,1,0,0,,12,,,83,127
15087,note_off,153,0,0,,12,,,83,127
15088,note_on,1,0,0,,8,,,80,127
15088,note_on,0,0,0,,4,,,76,127
15241,note_off,153,0,0,,4,,,76,127
15241,note_off,0,0,0,,8,,,80,127
15242,note_on,1,0,0,,12,,,35,127
15242,note_on,0,0,0,,8,,,80,127
15242,note_on,0,0,0,,4,,,76,127
15395,note_off,153,0,0,,4,,,76,127
15395,note_off,0,0,0,,8,,,80,127
15396,note_on,1,0,0,,6,,,78,127
15396,note_on,0,0,0,,3,,,75,127
15549,note_off,153,0,0,,3,,,75,127
15549,note_off,0,0,0,,6,,,78,127
15550,note_on,1,0,0,,12,,,83,127
15703,note_off,153,0,0,,12,,,83,127
15704,note_on,1,0,0,,4,,,76,127
15704,note_on,0,0,0,,8,,,80,127
15853,note_off,149,0,0,,12,,,47,127
15857,note_off,4,0,0,,8,,,80,127
15857,note_off,0,0,0,,4,,,76,127
15858,note_on,1,0,0,,12,,,47,127
15858,note_on,0,0,0,,4,,,76,127
15858,note_on,0,0,0,,8,,,80,127
16011,note_off,153,0,0,,8,,,80,127
16011,note_off,0,0,0,,4,,,76,127
16012,note_on,1,0,0,,3,,,75,127
16012,note_on,0,0,0,,6,,,78,127
16165,note_off,153,0,0,,6,,,78,127
16165,note_off,0,0,0,,3,,,75,127
16166,note_on,1,0,0,,12,,,83,127
16319,note_off,153,0,0,,12,,,83,127
16320,note_on,1,0,0,,8,,,80,127
16320,note_on,0,0,0,,4,,,76,127
16469,note_off,149,0,0,,12,,,35,127
16473,note_off,4,0,0,,4,,,76,127
16473,note_off,0,0,0,,8,,,80,127
16474,note_on,1,0,0,,12,,,35,127
16474,note_on,0,0,0,,4,,,76,127
16474,note_on,0,0,0,,8,,,80,127
16627,note_off,153,0,0,,8,,,80,127
16627,note_off,0,0,0,,4,,,76,127
16628,note_on,1,0,0,,3,,,75,127
16628,note_on,0,0,0,,6,,,78,127
16781,note_off,153,0,0,,6,,,78,127
16781,note_off,0,0,0,,3,,,75,127
16782,note_on,1,0,0,,12,,,83,127
16935,note_off,153,0,0,,12,,,83,127
16936,note_on,1,0,0,,8,,,80,127
16936,note_on,0,0,0,,4,,,76,127
17085,note_off,149,0,0,,12,,,47,127
17089,note_off,4,0,0,,4,,,76,127
17089,note_off,0,0,0,,8,,,80,127
17089,note_off,0,0,0,,12,,,35,127
17090,note_on,1,0,0,,12,,,47,127
17090,note_on,0,0,0,,12,,,35,127
17090,note_on,0,0,0,,4,,,76,127
17090,note_on,0,0,0,,8,,,80,127
17128,note_on,38,0,0,,3,,,75,127
17128,note_on,0,0,0,,6,,,78,127
17141,note_off,13,0,0,,8,,,80,127
17141,note_off,0,0,0,,4,,,76,127
17167,note_on,26,0,0,,4,,,76,127
17167,note_on,0,0,0,,8,,,80,127
17180,note_off,13,0,0,,6,,,78,127
17180,note_off,0,0,0,,3,,,75,127
17206,note_on,26,0,0,,3,,,75,127
17206,note_on,0,0,0,,6,,,78,127
17219,note_off,13,0,0,,8,,,80,127
17219,note_off,0,0,0,,4,,,76,127
17666,note_off,447,0,0,,6,,,78,127
17666,note_off,0,0,0,,3,,,75,127
18012,note_off,346,0,0,,12,,,35,127
18012,note_off,0,0,0,,12,,,47,127
18320,note_on,308,0,0,,12,,,71,127
18320,note_on,0,0,0,,6,,,66,127
18320,note_on,0,0,0,,12,,,59,127
18320,note_on,0,0,0,,3,,,63,127
18524,note_off,204,0,0,,3,,,63,127
18524,note_off,0,0,0,,6,,,66,127
18525,note_on,1,0,0,,7,,,67,127
18525,note_on,0,0,0,,4,,,64,127
18627,note_off,102,0,0,,4,,,64,127
18627,note_off,0,0,0,,7,,,67,127
18628,note_on,1,0,0,,6,,,66,127
18628,note_on,0,0,0,,3,,,63,127
18934,note_off,306,0,0,,3,,,63,127
18934,note_off,0,0,0,,6,,,66,127
18934,note_off,0,0,0,,12,,,59,127
18934,note_off,0,0,0,,12,,,71,127
18935,note_on,1,0,0,,12,,,71,127
18935,note_on,0,0,0,,6,,,66,127
18935,note_on,0,0,0,,3,,,63,127
18935,note_on,0,0,0,,12,,,59,127
19139,note_off,204,0,0,,3,,,63,127
19139,note_off,0,0,0,,6,,,66,127
19140,note_on,1,0,0,,7,,,67,127
19140,note_on,0,0,0,,4,,,64,127
19242,note_off,102,0,0,,4,,,64,127
19242,note_off,0,0,0,,7,,,67,127
19243,note_on,1,0,0,,6,,,66,127
19243,note_on,0,0,0,,3,,,63,127
19549,note_off,306,0,0,,3,,,63,127
19549,note_off,0,0,0,,6,,,66,127
19549,note_off,0,0,0,,12,,,59,127
19549,note_off,0,0,0,,12,,,71,127
19550,note_on,1,0,0,,6,,,66,127
19550,note_on,0,0,0,,12,,,71,127
19550,note_on,0,0,0,,12,,,59,127
19550,note_on,0,0,0,,3,,,63,127
19754,note_off,204,0,0,,3,,,63,127
19754,note_off,0,0,0,,6,,,66,127
19755,note_on,1,0,0,,7,,,67,127
19755,note_on,0,0,0,,4,,,64,127
19857,note_off,102,0,0,,4,,,64,127
19857,note_off,0,0,0,,7,,,67,127
19858,note_on,1,0,0,,6,,,66,127
19858,note_on,0,0,0,,3,,,63,127
20164,note_off,306,0,0,,3,,,63,127
20164,note_off,0,0,0,,6,,,66,127
20164,note_off,0,0,0,,12,,,59,127
20164,note_off,0,0,0,,12,,,71,127
20165,note_on,1,0,0,,7,,,67,127
20165,note_on,0,0,0,,4,,,76,127
20165,note_on,0,0,0,,4,,,64,127
20165,note_on,0,0,0,,0,,,60,127
20471,note_off,306,0,0,,0,,,60,127
20471,note_off,0,0,0,,4,,,64,127
20471,note_off,0,0,0,,4,,,76,127
20471,note_off,0,0,0,,7,,,67,127
20472,note_on,1,0,0,,2,,,74,127
20472,note_on,0,0,0,,2,,,62,127
20574,note_off,102,0,0,,2,,,74,127
20575,note_on,1,0,0,,0,,,72,127
20677,note_off,102,0,0,,0,,,72,127
20678,note_on,1,0,0,,12,,,71,127
20780,note_off,102,0,0,,12,,,71,127
20781,note_on,1,0,0,,10,,,69,127
20781,note_on,0,0,0,,2,,,50,127
20883,note_off,102,0,0,,10,,,69,127
20884,note_on,1,0,0,,12,,,71,127
20986,note_off,102,0,0,,12,,,71,127
20987,note_on,1,0,0,,0,,,72,127
21089,note_off,102,0,0,,0,,,72,127
21089,note_off,0,0,0,,2,,,50,127
21089,note_off,0,0,0,,2,,,62,127
21090,note_on,1,0,0,,12,,,71,127
21090,note_on,0,0,0,,7,,,55,127
21090,note_on,0,0,0,,7,,,43,127
21192,note_on,102,0,0,,7,,,79,127
21294,note_off,102,0,0,,7,,,79,127
21294,note_off,0,0,0,,12,,,71,127
21295,note_on,1,0,0,,2,,,74,127
21397,note_off,102,0,0,,2,,,74,127
21398,note_on,1,0,0,,12,,,71,127
21500,note_off,102,0,0,,12,,,71,127
21501,note_on,1,0,0,,7,,,67,127
21603,note_off,102,0,0,,7,,,67,127
21604,note_on,1,0,0,,2,,,62,127
21706,note_off,102,0,0,,2,,,62,127
21707,note_on,1,0,0,,12,,,59,127
21809,note_off,102,0,0,,12,,,59,127
21809,note_off,0,0,0,,7,,,43,127
21809,note_off,0,0,0,,7,,,55,127
21810,note_on,1,0,0,,7,,,55,127
21912,note_off,102,0,0,,7,,,55,127
21913,note_on,1,0,0,,2,,,50,127
22015,note_off,102,0,0,,2,,,50,127
22016,note_on,1,0,0,,12,,,47,127
22118,note_off,102,0,0,,12,,,47,127
22119,note_on,1,0,0,,7,,,43,127
22221,note_off,102,0,0,,7,,,43,127
22222,note_on,1,0,0,,2,,,38,127
22324,note_off,102,0,0,,2,,,38,127
22325,note_on,1,0,0,,7,,,31,127
22939,note_off,614,0,0,,7,,,31,127
23266,note_on,327,0,0,,12,,,59,127
23266,note_on,0,0,0,,3,,,63,127
23266,note_on,0,0,0,,6,,,66,127
23266,note_on,0,0,0,,12,,,71,127
23470,note_off,204,0,0,,6,,,66,127
23470,note_off,0,0,0,,3,,,63,127
23471,note_on,1,0,0,,4,,,64,127
23471,note_on,0,0,0,,7,,,67,127
23573,note_off,102,0,0,,7,,,67,127
23573,note_off,0,0,0,,4,,,64,127
23574,note_on,1,0,0,,3,,,63,127
23574,note_on,0,0,0,,6,,,66,127
23880,note_off,306,0,0,,6,,,66,127
23880,note_off,0,0,0,,3,,,63,127
23880,note_off,0,0,0,,12,,,71,127
23880,note_off,0,0,0,,12,,,59,127
23881,note_on,1,0,0,,3,,,63,127
23881,note_on,0,0,0,,12,,,59,127
23881,note_on,0,0,0,,6,,,66,127
23881,note_on,0,0,0,,12,,,71,127
24085,note_off,204,0,0,,6,,,66,127
24085,note_off,0,0,0,,3,,,63,127
24086,note_on,1,0,0,,4,,,64,127
24086,note_on,0,0,0,,7,,,67,127
24188,note_off,102,0,0,,7,,,67,127
24188,note_off,0,0,0,,4,,,64,127
24189,note_on,1,0,0,,3,,,63,127
24189,note_on,0,0,0,,6,,,66,127
24495,note_off,306,0,0,,6,,,66,127
24495,note_off,0,0,0,,3,,,63,127
24495,note_off,0,0,0,,12,,,71,127
24495,note_off,0,0,0,,12,,,59,127
24496,note_on,1,0,0,,12,,,59,127
24496,note_on,0,0,0,,3,,,63,127
24496,note_on,0,0,0,,6,,,66,127
24496,note_on,0,0,0,,12,,,71,127
24700,note_off,204,0,0,,6,,,66,127
24700,note_off,0,0,0,,3,,,63,127
24701,note_on,1,0,0,,4,,,64,127
24701,note_on,0,0,0,,7,,,67,127
24803,note_off,102,0,0,,7,,,67,127
24803,note_off,0,0,0,,4,,,64,127
24804,note_on,1,0,0,,3,,,63,127
24804,note_on,0,0,0,,6,,,66,127
25110,note_off,306,0,0,,6,,,66,127
25110,note_off,0,0,0,,3,,,63,127
25110,note_off,0,0,0,,12,,,71,127
25110,note_off,0,0,0,,12,,,59,127
25111,note_on,1,0,0,,2,,,62,127
25111,note_on,0,0,0,,12,,,59,127
25111,note_on,0,0,0,,5,,,65,127
25111,note_on,0,0,0,,5,,,77,127
25111,note_on,0,0,0,,8,,,68,127
25417,note_off,306,0,0,,8,,,68,127
25417,note_off,0,0,0,,5,,,77,127
25417,note_off,0,0,0,,5,,,65,127
25417,note_off,0,0,0,,12,,,59,127
25417,note_off,0,0,0,,2,,,62,127
25418,note_on,1,0,0,,0,,,60,127
25418,note_on,0,0,0,,4,,,64,127
25418,note_on,0,0,0,,4,,,76,127
25520,note_off,102,0,0,,4,,,76,127
25521,note_on,1,0,0,,2,,,74,127
25623,note_off,102,0,0,,2,,,74,127
25624,note_on,1,0,0,,0,,,72,127
25726,note_off,102,0,0,,0,,,72,127
25726,note_off,0,0,0,,4,,,64,127
25726,note_off,0,0,0,,0,,,60,127
25727,note_on,1,0,0,,2,,,62,127
25727,note_on,0,0,0,,8,,,56,127
25727,note_on,0,0,0,,4,,,64,127
25727,note_on,0,0,0,,12,,,59,127
25727,note_on,0,0,0,,12,,,71,127
25829,note_off,102,0,0,,12,,,71,127
25830,note_on,1,0,0,,0,,,72,127
25932,note_off,102,0,0,,0,,,72,127
25933,note_on,1,0,0,,2,,,74,127
26035,note_off,102,0,0,,2,,,74,127
26035,note_off,0,0,0,,12,,,59,127
26035,note_off,0,0,0,,4,,,64,127
26035,note_off,0,0,0,,8,,,56,127
26035,note_off,0,0,0,,2,,,62,127
26036,note_on,1,0,0,,10,,,57,127
26036,note_on,0,0,0,,10,,,45,127
26036,note_on,0,0,0,,0,,,72,127
26138,note_on,102,0,0,,10,,,81,127
26240,note_off,102,0,0,,10,,,81,127
26240,note_off,0,0,0,,0,,,72,127
26241,note_on,1,0,0,,4,,,76,127
26343,note_off,102,0,0,,4,,,76,127
26344,note_on,1,0,0,,0,,,72,127
26446,note_off,102,0,0,,0,,,72,127
26447,note_on,1,0,0,,10,,,69,127
26549,note_off,102,0,0,,10,,,69,127
26550,note_on,1,0,0,,4,,,64,127
26652,note_off,102,0,0,,4,,,64,127
26653,note_on,1,0,0,,0,,,60,127
26755,note_off,102,0,0,,0,,,60,127
26755,note_off,0,0,0,,10,,,45,127
26755,note_off,0,0,0,,10,,,57,127
26756,note_on,1,0,0,,10,,,57,127
26858,note_off,102,0,0,,10,,,57,127
26859,note_on,1,0,0,,4,,,52,127
26961,note_off,102,0,0,,4,,,52,127
26962,note_on,1,0,0,,0,,,48,127
27064,note_off,102,0,0,,0,,,48,127
27065,note_on,1,0,0,,10,,,45,127
27167,note_off,102,0,0,,10,,,45,127
27168,note_on,1,0,0,,4,,,40,127
27270,note_off,102,0,0,,4,,,40,127
27271,note_on,1,0,0,,10,,,33,127
27885,note_off,614,0,0,,10,,,33,127
28193,note_on,308,0,0,,3,,,63,127
28193,note_on,0,0,0,,12,,,59,127
28193,note_on,0,0,0,,6,,,66,127
28193,note_on,0,0,0,,12,,,71,127
28397,note_off,204,0,0,,6,,,66,127
28397,note_off,0,0,0,,3,,,63,127
28398,note_on,1,0,0,,4,,,64,127
28398,note_on,0,0,0,,7,,,67,127
28500,note_off,102,0,0,,7,,,67,127
28500,note_off,0,0,0,,4,,,64,127
28501,note_on,1,0,0,,3,,,63,127
28501,note_on,0,0,0,,6,,,66,127
28807,note_off,306,0,0,,6,,,66,127
28807,note_off,0,0,0,,3,,,63,127
28807,note_off,0,0,0,,12,,,71,127
28807,note_off,0,0,0,,12,,,59,127
28808,note_on,1,0,0,,3,,,63,127
28808,note_on,0,0,0,,12,,,59,127
28808,note_on,0,0,0,,12,,,71,127
28808,note_on,0,0,0,,6,,,66,127
29012,note_off,204,0,0,,6,,,66,127
29012,note_off,0,0,0,,3,,,63,127
29013,note_on,1,0,0,,4,,,64,127
29013,note_on,0,0,0,,7,,,67,127
29115,note_off,102,0,0,,7,,,67,127
29115,note_off,0,0,0,,4,,,64,127
29116,note_on,1,0,0,,3,,,63,127
29116,note_on,0,0,0,,6,,,66,127
29422,note_off,306,0,0,,6,,,66,127
29422,note_off,0,0,0,,3,,,63,127
29422,note_off,0,0,0,,12,,,71,127
29422,note_off,0,0,0,,12,,,59,127
29423,note_on,1,0,0,,3,,,63,127
29423,note_on,0,0,0,,12,,,59,127
29423,note_on,0,0,0,,12,,,71,127
29423,note_on,0,0,0,,6,,,66,127
29627,note_off,204,0,0,,6,,,66,127
29627,note_off,0,0,0,,3,,,63,127
29628,note_on,1,0,0,,4,,,64,127
29628,note_on,0,0,0,,7,,,67,127
29730,note_off,102,0,0,,7,,,67,127
29730,note_off,0,0,0,,4,,,64,127
29731,note_on,1,0,0,,3,,,63,127
29731,note_on,0,0,0,,6,,,66,127
30037,note_off,306,0,0,,6,,,66,127
30037,note_off,0,0,0,,3,,,63,127
30037,note_off,0,0,0,,12,,,71,127
30037,note_off,0,0,0,,12,,,59,127
30038,note_on,1,0,0,,12,,,59,127
30038,note_on,0,0,0,,4,,,64,127
30038,note_on,0,0,0,,7,,,67,127
30038,note_on,0,0,0,,7,,,79,127
30038,note_on,0,0,0,,12,,,71,127
30344,note_off,306,0,0,,12,,,71,127
30344,note_off,0,0,0,,7,,,79,127
30344,note_off,0,0,0,,7,,,67,127
30344,note_off,0,0,0,,4,,,64,127
30344,note_off,0,0,0,,12,,,59,127
30345,note_on,1,0,0,,4,,,64,127
30345,note_on,0,0,0,,11,,,58,127
30345,note_on,0,0,0,,6,,,66,127
30345,note_on,0,0,0,,1,,,61,127
30345,note_on,0,0,0,,6,,,78,127
30447,note_off,102,0,0,,6,,,78,127
30448,note_on,1,0,0,,4,,,76,127
30550,note_off,102,0,0,,4,,,76,127
30551,note_on,1,0,0,,3,,,75,127
30653,note_off,102,0,0,,3,,,75,127
30653,note_off,0,0,0,,1,,,61,127
30653,note_off,0,0,0,,6,,,66,127
30653,note_off,0,0,0,,11,,,58,127
30653,note_off,0,0,0,,4,,,64,127
30654,note_on,1,0,0,,6,,,54,127
30654,note_on,0,0,0,,1,,,73,127
30756,note_off,102,0,0,,1,,,73,127
30757,note_on,1,0,0,,3,,,75,127
30859,note_off,102,0,0,,3,,,75,127
30860,note_on,1,0,0,,4,,,76,127
30962,note_off,102,0,0,,4,,,76,127
30962,note_off,0,0,0,,6,,,54,127
30963,note_on,1,0,0,,12,,,47,127
30963,note_on,0,0,0,,12,,,59,127
30963,note_on,0,0,0,,3,,,75,127
31065,note_on,102,0,0,,12,,,83,127
31167,note_off,102,0,0,,12,,,83,127
31167,note_off,0,0,0,,3,,,75,127
31168,note_on,1,0,0,,6,,,78,127
31270,note_off,102,0,0,,6,,,78,127
31271,note_on,1,0,0,,3,,,75,127
31373,note_off,102,0,0,,3,,,75,127
31374,note_on,1,0,0,,12,,,71,127
31476,note_off,102,0,0,,12,,,71,127
31477,note_on,1,0,0,,6,,,66,127
31579,note_off,102,0,0,,6,,,66,127
31580,note_on,1,0,0,,3,,,63,127
31682,note_off,102,0,0,,3,,,63,127
31682,note_off,0,0,0,,12,,,59,127
31682,note_off,0,0,0,,12,,,47,127
31683,note_on,1,0,0,,12,,,59,127
31785,note_off,102,0,0,,12,,,59,127
31786,note_on,1,0,0,,6,,,54,127
31888,note_off,102,0,0,,6,,,54,127
31889,note_on,1,0,0,,3,,,51,127
31991,note_off,102,0,0,,3,,,51,127
31992,note_on,1,0,0,,12,,,47,127
32094,note_off,102,0,0,,12,,,47,127
32095,note_on,1,0,0,,6,,,42,127
32197,note_off,102,0,0,,6,,,42,127
32198,note_on,1,0,0,,12,,,35,127
33426,note_off,1228,0,0,,12,,,35,127
33427,note_on,1,0,0,,12,,,47,127
33734,note_on,307,0,0,,10,,,57,127
33734,note_on,0,0,0,,6,,,66,127
33836,note_on,102,0,0,,4,,,64,127
33849,note_off,13,0,0,,6,,,66,127
33939,note_on,90,0,0,,3,,,63,127
33952,note_off,13,0,0,,4,,,64,127
34041,note_off,89,0,0,,10,,,57,127
34041,note_off,0,0,0,,12,,,47,127
34042,note_on,1,0,0,,8,,,56,127
34042,note_on,0,0,0,,4,,,64,127
34055,note_off,13,0,0,,3,,,63,127
34145,note_on,90,0,0,,6,,,66,127
34158,note_off,13,0,0,,4,,,64,127
34248,note_on,90,0,0,,8,,,68,127
34261,note_off,13,0,0,,6,,,66,127
34350,note_off,89,0,0,,8,,,56,127
34351,note_on,1,0,0,,6,,,54,127
34351,note_on,0,0,0,,10,,,69,127
34364,note_off,13,0,0,,8,,,68,127
34454,note_on,90,0,0,,8,,,68,127
34467,note_off,13,0,0,,10,,,69,127
34557,note_on,90,0,0,,6,,,66,127
34570,note_off,13,0,0,,8,,,68,127
34659,note_off,89,0,0,,6,,,54,127
34660,note_on,1,0,0,,4,,,52,127
34660,note_on,0,0,0,,8,,,68,127
34673,note_off,13,0,0,,6,,,66,127
34763,note_on,90,0,0,,10,,,69,127
34776,note_off,13,0,0,,8,,,68,127
34866,note_on,90,0,0,,12,,,71,127
34879,note_off,13,0,0,,10,,,69,127
34968,note_off,89,0,0,,4,,,52,127
34969,note_on,1,0,0,,10,,,57,127
34969,note_on,0,0,0,,1,,,73,127
34982,note_off,13,0,0,,12,,,71,127
35072,note_on,90,0,0,,12,,,71,127
35085,note_off,13,0,0,,1,,,73,127
35175,note_on,90,0,0,,10,,,69,127
35188,note_off,13,0,0,,12,,,71,127
35277,note_off,89,0,0,,10,,,57,127
35278,note_on,1,0,0,,8,,,56,127
35278,note_on,0,0,0,,12,,,71,127
35291,note_off,13,0,0,,10,,,69,127
35381,note_on,90,0,0,,1,,,73,127
35394,note_off,13,0,0,,12,,,71,127
35484,note_on,90,0,0,,3,,,75,127
35497,note_off,13,0,0,,1,,,73,127
35586,note_off,89,0,0,,8,,,56,127
35587,note_on,1,0,0,,1,,,61,127
35587,note_on,0,0,0,,4,,,76,127
35600,note_off,13,0,0,,3,,,75,127
35690,note_on,90,0,0,,3,,,75,127
35703,note_off,13,0,0,,4,,,76,127
35793,note_on,90,0,0,,4,,,76,127
35806,note_off,13,0,0,,3,,,75,127
35895,note_off,89,0,0,,1,,,61,127
35896,note_on,1,0,0,,12,,,59,127
35896,note_on,0,0,0,,3,,,75,127
35909,note_off,13,0,0,,4,,,76,127
35999,note_on,90,0,0,,1,,,73,127
36012,note_off,13,0,0,,3,,,75,127
36102,note_on,90,0,0,,3,,,75,127
36115,note_off,13,0,0,,1,,,73,127
36204,note_off,89,0,0,,12,,,59,127
36205,note_on,1,0,0,,10,,,57,127
36205,note_on,0,0,0,,1,,,73,127
36218,note_off,13,0,0,,3,,,75,127
36308,note_on,90,0,0,,12,,,71,127
36321,note_off,13,0,0,,1,,,73,127
36411,note_on,90,0,0,,1,,,73,127
36424,note_off,13,0,0,,12,,,71,127
36513,note_off,89,0,0,,10,,,57,127
36514,note_on,1,0,0,,8,,,56,127
36514,note_on,0,0,0,,12,,,71,127
36527,note_off,13,0,0,,1,,,73,127
36617,note_on,90,0,0,,10,,,69,127
36630,note_off,13,0,0,,12,,,71,127
36720,note_on,90,0,0,,12,,,71,127
36733,note_off,13,0,0,,10,,,69,127
36822,note_off,89,0,0,,8,,,56,127
36823,note_on,1,0,0,,6,,,54,127
36823,note_on,0,0,0,,10,,,69,127
36836,note_off,13,0,0,,12,,,71,127
36926,note_on,90,0,0,,8,,,68,127
36939,note_off,13,0,0,,10,,,69,127
37029,note_on,90,0,0,,10,,,69,127
37042,note_off,13,0,0,,8,,,68,127
37131,note_off,89,0,0,,6,,,54,127
37132,note_on,1,0,0,,4,,,52,127
37132,note_on,0,0,0,,8,,,68,127
37145,note_off,13,0,0,,10,,,69,127
37235,note_on,90,0,0,,10,,,69,127
37248,note_off,13,0,0,,8,,,68,127
37338,note_on,90,0,0,,12,,,71,127
37351,note_off,13,0,0,,10,,,69,127
37440,note_off,89,0,0,,4,,,52,127
37441,note_on,1,0,0,,10,,,57,127
37441,note_on,0,0,0,,10,,,69,127
37454,note_off,13,0,0,,12,,,71,127
37544,note_on,90,0,0,,12,,,71,127
37557,note_off,13,0,0,,10,,,69,127
37647,note_on,90,0,0,,1,,,73,127
37660,note_off,13,0,0,,12,,,71,127
37749,note_off,89,0,0,,10,,,57,127
37750,note_on,1,0,0,,12,,,59,127
37750,note_on,0,0,0,,12,,,71,127
37763,note_off,13,0,0,,1,,,73,127
37853,note_on,90,0,0,,10,,,69,127
37866,note_off,13,0,0,,12,,,71,127
37956,note_on,90,0,0,,8,,,68,127
37969,note_off,13,0,0,,10,,,69,127
38058,note_off,89,0,0,,12,,,59,127
38059,note_on,1,0,0,,12,,,47,127
38059,note_on,0,0,0,,6,,,66,127
38072,note_off,13,0,0,,8,,,68,127
38162,note_on,90,0,0,,4,,,64,127
38175,note_off,13,0,0,,6,,,66,127
38265,note_on,90,0,0,,3,,,63,127
38278,note_off,13,0,0,,4,,,64,127
38367,note_off,89,0,0,,12,,,47,127
38368,note_on,1,0,0,,4,,,40,127
38368,note_on,0,0,0,,4,,,64,127
38381,note_off,13,0,0,,3,,,63,127
38664,note_off,283,0,0,,4,,,64,127
38674,note_off,10,0,0,,4,,,40,127
38675,note_on,1,0,0,,4,,,76,127
39084,note_off,409,0,0,,4,,,76,127
39085,note_on,1,0,0,,3,,,75,127
39187,note_on,102,0,0,,1,,,73,127
39200,note_off,13,0,0,,3,,,75,127
39290,note_on,90,0,0,,12,,,71,127
39303,note_off,13,0,0,,1,,,73,127
39393,note_on,90,0,0,,10,,,69,127
39406,note_off,13,0,0,,12,,,71,127
39496,note_on,90,0,0,,8,,,68,127
39509,note_off,13,0,0,,10,,,69,127
39599,note_on,90,0,0,,6,,,66,127
39612,note_off,13,0,0,,8,,,68,127
39702,note_on,90,0,0,,4,,,64,127
39715,note_off,13,0,0,,6,,,66,127
39805,note_on,90,0,0,,3,,,63,127
39818,note_off,13,0,0,,4,,,64,127
39908,note_on,90,0,0,,1,,,61,127
39921,note_off,13,0,0,,3,,,63,127
40011,note_on,90,0,0,,12,,,59,127
40024,note_off,13,0,0,,1,,,61,127
40114,note_on,90,0,0,,10,,,57,127
40127,note_off,13,0,0,,12,,,59,127
40217,note_on,90,0,0,,8,,,56,127
40230,note_off,13,0,0,,10,,,57,127
40320,note_on,90,0,0,,6,,,54,127
40333,note_off,13,0,0,,8,,,56,127
40423,note_on,90,0,0,,4,,,52,127
40436,note_off,13,0,0,,6,,,54,127
40526,note_on,90,0,0,,3,,,51,127
40539,note_off,13,0,0,,4,,,52,127
40629,note_on,90,0,0,,4,,,52,127
40642,note_off,13,0,0,,3,,,51,127
40732,note_on,90,0,0,,6,,,54,127
40745,note_off,13,0,0,,4,,,52,127
40835,note_on,90,0,0,,12,,,47,127
40848,note_off,13,0,0,,6,,,54,127
41142,note_on,294,0,0,,3,,,75,127
41142,note_on,0,0,0,,12,,,83,127
41142,note_on,0,0,0,,6,,,78,127
41142,note_on,0,0,0,,12,,,71,127
41448,note_off,306,0,0,,12,,,47,127
41449,note_on,1,0,0,,4,,,52,127
41551,note_off,102,0,0,,6,,,78,127
41551,note_off,0,0,0,,12,,,83,127
41551,note_off,0,0,0,,3,,,75,127
41552,note_on,1,0,0,,10,,,81,127
41654,note_on,102,0,0,,8,,,80,127
41667,note_off,13,0,0,,10,,,81,127
41756,note_off,89,0,0,,12,,,71,127
41757,note_on,1,0,0,,6,,,78,127
41770,note_off,13,0,0,,8,,,80,127
41860,note_on,90,0,0,,4,,,76,127
41873,note_off,13,0,0,,6,,,78,127
41963,note_on,90,0,0,,3,,,75,127
41976,note_off,13,0,0,,4,,,76,127
42065,note_off,89,0,0,,4,,,52,127
42066,note_on,1,0,0,,10,,,57,127
42066,note_on,0,0,0,,1,,,73,127
42079,note_off,13,0,0,,3,,,75,127
42169,note_on,90,0,0,,12,,,71,127
42182,note_off,13,0,0,,1,,,73,127
42272,note_on,90,0,0,,10,,,69,127
42285,note_off,13,0,0,,12,,,71,127
42375,note_on,90,0,0,,10,,,45,127
42375,note_on,0,0,0,,8,,,68,127
42388,note_off,13,0,0,,10,,,69,127
42478,note_on,90,0,0,,6,,,66,127
42491,note_off,13,0,0,,8,,,68,127
42581,note_on,90,0,0,,4,,,64,127
42594,note_off,13,0,0,,6,,,66,127
42683,note_off,89,0,0,,10,,,45,127
42683,note_off,0,0,0,,10,,,57,127
42684,note_on,1,0,0,,12,,,47,127
42684,note_on,0,0,0,,3,,,63,127
42697,note_off,13,0,0,,4,,,64,127
42787,note_on,90,0,0,,1,,,61,127
42800,note_off,13,0,0,,3,,,63,127
42890,note_on,90,0,0,,12,,,59,127
42903,note_off,13,0,0,,1,,,61,127
42993,note_on,90,0,0,,10,,,57,127
43006,note_off,13,0,0,,12,,,59,127
43096,note_on,90,0,0,,8,,,56,127
43109,note_off,13,0,0,,10,,,57,127
43199,note_on,90,0,0,,6,,,54,127
43212,note_off,13,0,0,,8,,,56,127
43301,note_off,89,0,0,,12,,,47,127
43302,note_on,1,0,0,,4,,,40,127
43302,note_on,0,0,0,,4,,,52,127
43315,note_off,13,0,0,,6,,,54,127
43609,note_off,294,0,0,,4,,,52,127
43609,note_off,0,0,0,,4,,,40,127
43610,note_on,1,0,0,,4,,,76,127
44019,note_off,409,0,0,,4,,,76,127
44020,note_on,1,0,0,,3,,,75,127
44122,note_on,102,0,0,,1,,,73,127
44135,note_off,13,0,0,,3,,,75,127
44225,note_on,90,0,0,,12,,,71,127
44238,note_off,13,0,0,,1,,,73,127
44328,note_on,90,0,0,,10,,,69,127
44341,note_off,13,0,0,,12,,,71,127
44431,note_on,90,0,0,,8,,,68,127
44444,note_off,13,0,0,,10,,,69,127
44534,note_on,90,0,0,,6,,,66,127
44547,note_off,13,0,0,,8,,,68,127
44637,note_on,90,0,0,,4,,,64,127
44650,note_off,13,0,0,,6,,,66,127
44740,note_on,90,0,0,,3,,,63,127
44753,note_off,13,0,0,,4,,,64,127
44843,note_on,90,0,0,,1,,,61,127
44856,note_off,13,0,0,,3,,,63,127
44946,note_on,90,0,0,,12,,,59,127
44959,note_off,13,0,0,,1,,,61,127
45049,note_on,90,0,0,,10,,,57,127
45062,note_off,13,0,0,,12,,,59,127
45152,note_on,90,0,0,,8,,,56,127
45165,note_off,13,0,0,,10,,,57,127
45255,note_on,90,0,0,,6,,,54,127
45268,note_off,13,0,0,,8,,,56,127
45358,note_on,90,0,0,,4,,,52,127
45371,note_off,13,0,0,,6,,,54,127
45461,note_on,90,0,0,,3,,,51,127
45474,note_off,13,0,0,,4,,,52,127
45564,note_on,90,0,0,,4,,,52,127
45577,note_off,13,0,0,,3,,,51,127
45667,note_on,90,0,0,,6,,,54,127
45680,note_off,13,0,0,,4,,,52,127
45770,note_on,90,0,0,,12,,,47,127
45783,note_off,13,0,0,,6,,,54,127
46077,note_on,294,0,0,,6,,,78,127
46077,note_on,0,0,0,,3,,,75,127
46077,note_on,0,0,0,,12,,,83,127
46077,note_on,0,0,0,,12,,,71,127
46383,note_off,306,0,0,,12,,,47,127
46384,note_on,1,0,0,,4,,,52,127
46486,note_off,102,0,0,,12,,,83,127
46486,note_off,0,0,0,,3,,,75,127
46486,note_off,0,0,0,,6,,,78,127
46487,note_on,1,0,0,,10,,,81,127
46589,note_on,102,0,0,,8,,,80,127
46602,note_off,13,0,0,,10,,,81,127
46691,note_off,89,0,0,,12,,,71,127
46692,note_on,1,0,0,,6,,,78,127
46705,note_off,13,0,0,,8,,,80,127
46795,note_on,90,0,0,,4,,,76,127
46808,note_off,13,0,0,,6,,,78,127
46898,note_on,90,0,0,,3,,,75,127
46911,note_off,13,0,0,,4,,,76,127
47000,note_off,89,0,0,,4,,,52,127
47001,note_on,1,0,0,,10,,,57,127
47001,note_on,0,0,0,,1,,,73,127
47014,note_off,13,0,0,,3,,,75,127
47104,note_on,90,0,0,,12,,,71,127
47117,note_off,13,0,0,,1,,,73,127
47207,note_on,90,0,0,,10,,,69,127
47220,note_off,13,0,0,,12,,,71,127
47310,note_on,90,0,0,,10,,,45,127
47310,note_on,0,0,0,,8,,,68,127
47323,note_off,13,0,0,,10,,,69,127
47413,note_on,90,0,0,,6,,,66,127
47426,note_off,13,0,0,,8,,,68,127
47516,note_on,90,0,0,,4,,,64,127
47529,note_off,13,0,0,,6,,,66,127
47618,note_off,89,0,0,,10,,,45,127
47618,note_off,0,0,0,,10,,,57,127
47619,note_on,1,0,0,,12,,,47,127
47619,note_on,0,0,0,,3,,,63,127
47632,note_off,13,0,0,,4,,,64,127
47722,note_on,90,0,0,,1,,,61,127
47735,note_off,13,0,0,,3,,,63,127
47825,note_on,90,0,0,,12,,,59,127
47838,note_off,13,0,0,,1,,,61,127
47928,note_on,90,0,0,,10,,,57,127
47941,note_off,13,0,0,,12,,,59,127
48031,note_on,90,0,0,,8,,,56,127
48044,note_off,13,0,0,,10,,,57,127
48134,note_on,90,0,0,,6,,,54,127
48147,note_off,13,0,0,,8,,,56,127
48236,note_off,89,0,0,,12,,,47,127
48237,note_on,1,0,0,,4,,,40,127
48237,note_on,0,0,0,,4,,,52,127
48250,note_off,13,0,0,,6,,,54,127
48544,note_off,294,0,0,,4,,,52,127
48545,note_on,1,0,0,,8,,,56,127
48647,note_on,102,0,0,,12,,,59,127
48660,note_off,13,0,0,,8,,,56,127
48750,note_on,90,0,0,,4,,,64,127
48852,note_off,102,0,0,,4,,,40,127
48853,note_on,1,0,0,,6,,,54,127
48853,note_on,0,0,0,,12,,,47,127
49159,note_off,306,0,0,,4,,,64,127
49160,note_on,1,0,0,,3,,,63,127
49466,note_off,306,0,0,,12,,,47,127
49466,note_off,0,0,0,,6,,,54,127
49466,note_off,0,0,0,,12,,,59,127
49467,note_on,1,0,0,,4,,,52,127
49496,note_off,29,0,0,,3,,,63,127
49774,note_on,278,0,0,,12,,,59,127
49876,note_on,102,0,0,,4,,,64,127
49889,note_off,13,0,0,,12,,,59,127
49979,note_on,90,0,0,,8,,,68,127
49992,note_off,13,0,0,,4,,,64,127
50081,note_off,89,0,0,,4,,,52,127
50082,note_on,1,0,0,,12,,,47,127
50082,note_on,0,0,0,,4,,,64,127
50388,note_off,306,0,0,,4,,,64,127
50388,note_off,0,0,0,,8,,,68,127
50389,note_on,1,0,0,,6,,,66,127
50389,note_on,0,0,0,,3,,,63,127
50695,note_off,306,0,0,,12,,,47,127
50696,note_on,1,0,0,,4,,,52,127
50725,note_off,29,0,0,,6,,,66,127
50733,note_off,8,0,0,,3,,,63,127
51003,note_on,270,0,0,,8,,,68,127
51105,note_on,102,0,0,,12,,,71,127
51118,note_off,13,0,0,,8,,,68,127
51208,note_on,90,0,0,,4,,,76,127
51221,note_off,13,0,0,,12,,,71,127
51310,note_off,89,0,0,,4,,,52,127
51311,note_on,1,0,0,,12,,,59,127
51311,note_on,0,0,0,,6,,,66,127
51617,note_off,306,0,0,,4,,,76,127
51618,note_on,1,0,0,,3,,,75,127
51914,note_off,296,0,0,,3,,,75,127
51924,note_off,10,0,0,,6,,,66,127
51924,note_off,0,0,0,,12,,,59,127
51925,note_on,1,0,0,,4,,,52,127
51925,note_on,0,0,0,,4,,,76,127
52027,note_off,102,0,0,,4,,,76,127
52028,note_on,1,0,0,,12,,,71,127
52130,note_off,102,0,0,,12,,,71,127
52131,note_on,1,0,0,,3,,,75,127
52233,note_off,102,0,0,,3,,,75,127
52233,note_off,0,0,0,,4,,,52,127
52234,note_on,1,0,0,,10,,,57,127
52234,note_on,0,0,0,,1,,,73,127
52336,note_off,102,0,0,,1,,,73,127
52337,note_on,1,0,0,,12,,,71,127
52439,note_off,102,0,0,,12,,,71,127
52440,note_on,1,0,0,,10,,,69,127
52542,note_off,102,0,0,,10,,,69,127
52542,note_off,0,0,0,,10,,,57,127
52543,note_on,1,0,0,,12,,,59,127
52543,note_on,0,0,0,,8,,,68,127
52645,note_off,102,0,0,,8,,,68,127
52646,note_on,1,0,0,,10,,,69,127
52748,note_off,102,0,0,,10,,,69,127
52749,note_on,1,0,0,,12,,,71,127
52851,note_off,102,0,0,,12,,,71,127
52852,note_on,1,0,0,,12,,,47,127
52852,note_on,0,0,0,,4,,,64,127
52954,note_off,102,0,0,,4,,,64,127
52955,note_on,1,0,0,,6,,,66,127
53057,note_off,102,0,0,,6,,,66,127
53058,note_on,1,0,0,,3,,,63,127
53160,note_off,102,0,0,,3,,,63,127
53160,note_off,0,0,0,,12,,,47,127
53160,note_off,0,0,0,,12,,,59,127
53161,note_on,1,0,0,,4,,,40,127
53161,note_on,0,0,0,,4,,,52,127
53161,note_on,0,0,0,,3,,,63,127
53467,note_off,306,0,0,,3,,,63,127
53468,note_on,1,0,0,,4,,,64,127
53928,note_off,460,0,0,,4,,,64,127
54082,note_off,154,0,0,,4,,,52,127
54082,note_off,0,0,0,,4,,,40,127
54160,note_on,78,0,0,,1,,,61,127
54160,note_on,0,0,0,,5,,,65,127
54160,note_on,0,0,0,,8,,,68,127
54160,note_on,0,0,0,,1,,,73,127
54364,note_off,204,0,0,,8,,,68,127
54364,note_off,0,0,0,,5,,,65,127
54365,note_on,1,0,0,,6,,,66,127
54365,note_on,0,0,0,,10,,,69,127
54467,note_off,102,0,0,,10,,,69,127
54467,note_off,0,0,0,,6,,,66,127
54468,note_on,1,0,0,,5,,,65,127
54468,note_on,0,0,0,,8,,,68,127
54774,note_off,306,0,0,,8,,,68,127
54774,note_off,0,0,0,,5,,,65,127
54774,note_off,0,0,0,,1,,,73,127
54774,note_off,0,0,0,,1,,,61,127
54775,note_on,1,0,0,,1,,,61,127
54775,note_on,0,0,0,,5,,,65,127
54775,note_on,0,0,0,,8,,,68,127
54775,note_on,0,0,0,,1,,,73,127
54979,note_off,204,0,0,,8,,,68,127
54979,note_off,0,0,0,,5,,,65,127
54980,note_on,1,0,0,,6,,,66,127
54980,note_on,0,0,0,,10,,,69,127
55082,note_off,102,0,0,,10,,,69,127
55082,note_off,0,0,0,,6,,,66,127
55083,note_on,1,0,0,,5,,,65,127
55083,note_on,0,0,0,,8,,,68,127
55389,note_off,306,0,0,,8,,,68,127
55389,note_off,0,0,0,,5,,,65,127
55389,note_off,0,0,0,,1,,,73,127
55389,note_off,0,0,0,,1,,,61,127
55390,note_on,1,0,0,,5,,,65,127
55390,note_on,0,0,0,,1,,,61,127
55390,note_on,0,0,0,,8,,,68,127
55390,note_on,0,0,0,,1,,,73,127
55594,note_off,204,0,0,,8,,,68,127
55594,note_off,0,0,0,,5,,,65,127
55595,note_on,1,0,0,,6,,,66,127
55595,note_on,0,0,0,,10,,,69,127
55697,note_off,102,0,0,,10,,,69,127
55697,note_off,0,0,0,,6,,,66,127
55698,note_on,1,0,0,,5,,,65,127
55698,note_on,0,0,0,,8,,,68,127
56004,note_off,306,0,0,,8,,,68,127
56004,note_off,0,0,0,,5,,,65,127
56004,note_off,0,0,0,,1,,,73,127
56004,note_off,0,0,0,,1,,,61,127
56005,note_on,1,0,0,,6,,,66,127
56005,note_on,0,0,0,,12,,,59,127
56005,note_on,0,0,0,,2,,,74,127
56311,note_off,306,0,0,,2,,,74,127
56311,note_off,0,0,0,,12,,,59,127
56311,note_off,0,0,0,,6,,,66,127
56312,note_on,1,0,0,,1,,,61,127
56312,note_on,0,0,0,,1,,,73,127
56414,note_off,102,0,0,,1,,,73,127
56415,note_on,1,0,0,,12,,,71,127
56517,note_off,102,0,0,,12,,,71,127
56518,note_on,1,0,0,,10,,,69,127
56620,note_off,102,0,0,,10,,,69,127
56621,note_on,1,0,0,,5,,,65,127
56621,note_on,0,0,0,,8,,,68,127
56723,note_off,102,0,0,,8,,,68,127
56724,note_on,1,0,0,,10,,,69,127
56826,note_off,102,0,0,,10,,,69,127
56827,note_on,1,0,0,,12,,,71,127
56929,note_off,102,0,0,,12,,,71,127
56929,note_off,0,0,0,,5,,,65,127
56929,note_off,0,0,0,,1,,,61,127
56930,note_on,1,0,0,,1,,,61,127
56930,note_on,0,0,0,,6,,,66,127
56930,note_on,0,0,0,,12,,,71,127
56930,note_on,0,0,0,,10,,,69,127
57032,note_off,102,0,0,,10,,,69,127
57032,note_off,0,0,0,,12,,,71,127
57033,note_on,1,0,0,,8,,,68,127
57135,note_off,102,0,0,,8,,,68,127
57136,note_on,1,0,0,,10,,,69,127
57238,note_off,102,0,0,,10,,,69,127
57238,note_off,0,0,0,,6,,,66,127
57239,note_on,1,0,0,,5,,,65,127
57239,note_on,0,0,0,,8,,,68,127
57545,note_off,306,0,0,,1,,,61,127
57699,note_off,154,0,0,,8,,,68,127
57699,note_off,0,0,0,,5,,,65,127
57853,note_on,154,0,0,,1,,,61,127
57853,note_on,0,0,0,,5,,,65,127
57853,note_on,0,0,0,,1,,,73,127
57853,note_on,0,0,0,,8,,,68,127
58057,note_off,204,0,0,,8,,,68,127
58057,note_off,0,0,0,,5,,,65,127
58058,note_on,1,0,0,,6,,,66,127
58058,note_on,0,0,0,,10,,,69,127
58160,note_off,102,0,0,,10,,,69,127
58160,note_off,0,0,0,,6,,,66,127
58161,note_on,1,0,0,,5,,,65,127
58161,note_on,0,0,0,,8,,,68,127
58467,note_off,306,0,0,,8,,,68,127
58467,note_off,0,0,0,,5,,,65,127
58467,note_off,0,0,0,,1,,,73,127
58467,note_off,0,0,0,,1,,,61,127
58468,note_on,1,0,0,,1,,,61,127
58468,note_on,0,0,0,,5,,,65,127
58468,note_on,0,0,0,,1,,,73,127
58468,note_on,0,0,0,,8,,,68,127
58672,note_off,204,0,0,,8,,,68,127
58672,note_off,0,0,0,,5,,,65,127
58673,note_on,1,0,0,,6,,,66,127
58673,note_on,0,0,0,,10,,,69,127
58775,note_off,102,0,0,,10,,,69,127
58775,note_off,0,0,0,,6,,,66,127
58776,note_on,1,0,0,,5,,,65,127
58776,note_on,0,0,0,,8,,,68,127
59082,note_off,306,0,0,,8,,,68,127
59082,note_off,0,0,0,,5,,,65,127
59082,note_off,0,0,0,,1,,,73,127
59082,note_off,0,0,0,,1,,,61,127
59083,note_on,1,0,0,,5,,,65,127
59083,note_on,0,0,0,,1,,,61,127
59083,note_on,0,0,0,,1,,,73,127
59083,note_on,0,0,0,,8,,,68,127
59287,note_off,204,0,0,,8,,,68,127
59287,note_off,0,0,0,,5,,,65,127
59288,note_on,1,0,0,,6,,,66,127
59288,note_on,0,0,0,,10,,,69,127
59390,note_off,102,0,0,,10,,,69,127
59390,note_off,0,0,0,,6,,,66,127
59391,note_on,1,0,0,,5,,,65,127
59391,note_on,0,0,0,,8,,,68,127
59697,note_off,306,0,0,,8,,,68,127
59697,note_off,0,0,0,,5,,,65,127
59697,note_off,0,0,0,,1,,,73,127
59697,note_off,0,0,0,,1,,,61,127
59698,note_on,1,0,0,,7,,,67,127
59698,note_on,0,0,0,,4,,,64,127
59698,note_on,0,0,0,,1,,,61,127
59698,note_on,0,0,0,,11,,,70,127
59698,note_on,0,0,0,,7,,,79,127
60004,note_off,306,0,0,,7,,,79,127
60004,note_off,0,0,0,,11,,,70,127
60004,note_off,0,0,0,,1,,,61,127
60004,note_off,0,0,0,,4,,,64,127
60004,note_off,0,0,0,,7,,,67,127
60005,note_on,1,0,0,,6,,,66,127
60005,note_on,0,0,0,,2,,,62,127
60005,note_on,0,0,0,,6,,,78,127
60107,note_off,102,0,0,,6,,,78,127
60108,note_on,1,0,0,,4,,,76,127
60210,note_off,102,0,0,,4,,,76,127
60211,note_on,1,0,0,,2,,,74,127
60313,note_off,102,0,0,,2,,,74,127
60313,note_off,0,0,0,,2,,,62,127
60313,note_off,0,0,0,,6,,,66,127
60314,note_on,1,0,0,,11,,,58,127
60314,note_on,0,0,0,,1,,,61,127
60314,note_on,0,0,0,,6,,,66,127
60314,note_on,0,0,0,,4,,,64,127
60314,note_on,0,0,0,,1,,,73,127
60416,note_off,102,0,0,,1,,,73,127
60417,note_on,1,0,0,,2,,,74,127
60519,note_off,102,0,0,,2,,,74,127
60520,note_on,1,0,0,,4,,,76,127
60622,note_off,102,0,0,,4,,,76,127
60622,note_off,0,0,0,,4,,,64,127
60622,note_off,0,0,0,,6,,,66,127
60622,note_off,0,0,0,,1,,,61,127
60622,note_off,0,0,0,,11,,,58,127
60623,note_on,1,0,0,,6,,,66,127
60623,note_on,0,0,0,,12,,,59,127
60623,note_on,0,0,0,,4,,,76,127
60623,note_on,0,0,0,,2,,,74,127
60725,note_off,102,0,0,,2,,,74,127
60725,note_off,0,0,0,,4,,,76,127
60726,note_on,1,0,0,,1,,,73,127
60828,note_off,102,0,0,,1,,,73,127
60829,note_on,1,0,0,,2,,,74,127
60931,note_off,102,0,0,,2,,,74,127
60932,note_on,1,0,0,,1,,,73,127
61034,note_off,102,0,0,,6,,,66,127
61035,note_on,1,0,0,,8,,,68,127
61137,note_off,102,0,0,,8,,,68,127
61138,note_on,1,0,0,,6,,,66,127
61240,note_off,102,0,0,,6,,,66,127
61240,note_off,0,0,0,,12,,,59,127
61241,note_on,1,0,0,,5,,,65,127
61394,note_off,153,0,0,,1,,,73,127
61548,note_off,154,0,0,,5,,,65,127
61574,note_on,26,0,0,,5,,,65,127
61574,note_on,0,0,0,,1,,,61,127
61574,note_on,0,0,0,,1,,,73,127
61574,note_on,0,0,0,,8,,,68,127
61778,note_off,204,0,0,,8,,,68,127
61778,note_off,0,0,0,,5,,,65,127
61779,note_on,1,0,0,,6,,,66,127
61779,note_on,0,0,0,,10,,,69,127
61881,note_off,102,0,0,,10,,,69,127
61881,note_off,0,0,0,,6,,,66,127
61882,note_on,1,0,0,,5,,,65,127
61882,note_on,0,0,0,,8,,,68,127
62188,note_off,306,0,0,,8,,,68,127
62188,note_off,0,0,0,,5,,,65,127
62188,note_off,0,0,0,,1,,,73,127
62188,note_off,0,0,0,,1,,,61,127
62189,note_on,1,0,0,,5,,,65,127
62189,note_on,0,0,0,,1,,,61,127
62189,note_on,0,0,0,,1,,,73,127
62189,note_on,0,0,0,,8,,,68,127
62393,note_off,204,0,0,,8,,,68,127
62393,note_off,0,0,0,,5,,,65,127
62394,note_on,1,0,0,,6,,,66,127
62394,note_on,0,0,0,,10,,,69,127
62496,note_off,102,0,0,,10,,,69,127
62496,note_off,0,0,0,,6,,,66,127
62497,note_on,1,0,0,,5,,,65,127
62497,note_on,0,0,0,,8,,,68,127
62803,note_off,306,0,0,,8,,,68,127
62803,note_off,0,0,0,,5,,,65,127
62803,note_off,0,0,0,,1,,,73,127
62803,note_off,0,0,0,,1,,,61,127
62804,note_on,1,0,0,,5,,,65,127
62804,note_on,0,0,0,,1,,,61,127
62804,note_on,0,0,0,,8,,,68,127
62804,note_on,0,0,0,,1,,,73,127
63008,note_off,204,0,0,,8,,,68,127
63008,note_off,0,0,0,,5,,,65,127
63009,note_on,1,0,0,,6,,,66,127
63009,note_on,0,0,0,,10,,,69,127
63111,note_off,102,0,0,,10,,,69,127
63111,note_off,0,0,0,,6,,,66,127
63112,note_on,1,0,0,,5,,,65,127
63112,note_on,0,0,0,,8,,,68,127
63418,note_off,306,0,0,,8,,,68,127
63418,note_off,0,0,0,,5,,,65,127
63418,note_off,0,0,0,,1,,,73,127
63418,note_off,0,0,0,,1,,,61,127
63419,note_on,1,0,0,,1,,,61,127
63419,note_on,0,0,0,,6,,,54,127
63419,note_on,0,0,0,,10,,,81,127
63725,note_off,306,0,0,,10,,,81,127
63725,note_off,0,0,0,,6,,,54,127
63725,note_off,0,0,0,,1,,,61,127
63726,note_on,1,0,0,,8,,,56,127
63726,note_on,0,0,0,,1,,,61,127
63726,note_on,0,0,0,,4,,,64,127
63726,note_on,0,0,0,,8,,,80,127
63828,note_off,102,0,0,,8,,,80,127
63829,note_on,1,0,0,,6,,,78,127
63931,note_off,102,0,0,,6,,,78,127
63932,note_on,1,0,0,,4,,,76,127
64034,note_off,102,0,0,,4,,,76,127
64035,note_on,1,0,0,,3,,,75,127
64137,note_off,102,0,0,,3,,,75,127
64138,note_on,1,0,0,,4,,,76,127
64188,note_off,50,0,0,,4,,,64,127
64188,note_off,0,0,0,,1,,,61,127
64188,note_off,0,0,0,,8,,,56,127
64239,note_off,51,0,0,,4,,,76,127
64240,note_on,1,0,0,,6,,,78,127
64342,note_off,102,0,0,,6,,,78,127
64343,note_on,1,0,0,,1,,,61,127
64343,note_on,0,0,0,,4,,,76,127
64445,note_off,102,0,0,,4,,,76,127
64446,note_on,1,0,0,,3,,,75,127
64548,note_off,102,0,0,,3,,,75,127
64549,note_on,1,0,0,,1,,,73,127
64651,note_off,102,0,0,,1,,,73,127
64651,note_off,0,0,0,,1,,,61,127
64652,note_on,1,0,0,,4,,,52,127
64652,note_on,0,0,0,,4,,,76,127
64806,note_on,154,0,0,,8,,,68,127
64959,note_off,153,0,0,,8,,,68,127
64959,note_off,0,0,0,,4,,,52,127
64960,note_on,1,0,0,,6,,,54,127
64960,note_on,0,0,0,,10,,,69,127
65113,note_off,153,0,0,,4,,,76,127
65114,note_on,1,0,0,,3,,,75,127
65264,note_off,150,0,0,,10,,,69,127
65266,note_off,2,0,0,,3,,,75,127
65266,note_off,0,0,0,,6,,,54,127
65267,note_on,1,0,0,,8,,,56,127
65267,note_on,0,0,0,,1,,,73,127
65420,note_off,153,0,0,,1,,,73,127
65421,note_on,1,0,0,,0,,,72,127
65574,note_off,153,0,0,,0,,,72,127
65574,note_off,0,0,0,,8,,,56,127
65575,note_on,1,0,0,,10,,,57,127
65575,note_on,0,0,0,,1,,,73,127
65677,note_off,102,0,0,,1,,,73,127
65678,note_on,1,0,0,,12,,,71,127
65780,note_off,102,0,0,,12,,,71,127
65781,note_on,1,0,0,,10,,,69,127
65883,note_off,102,0,0,,10,,,69,127
65883,note_off,0,0,0,,10,,,57,127
65884,note_on,1,0,0,,1,,,49,127
65884,note_on,0,0,0,,1,,,85,127
66038,note_on,154,0,0,,4,,,76,127
66191,note_off,153,0,0,,4,,,76,127
66191,note_off,0,0,0,,1,,,49,127
66192,note_on,1,0,0,,2,,,50,127
66192,note_on,0,0,0,,6,,,78,127
66345,note_off,153,0,0,,1,,,85,127
66346,note_on,1,0,0,,12,,,83,127
66416,note_off,70,0,0,,6,,,78,127
66498,note_off,82,0,0,,12,,,83,127
66498,note_off,0,0,0,,2,,,50,127
66499,note_on,1,0,0,,4,,,52,127
66499,note_on,0,0,0,,10,,,81,127
66652,note_off,153,0,0,,10,,,81,127
66653,note_on,1,0,0,,8,,,80,127
66806,note_off,153,0,0,,8,,,80,127
66806,note_off,0,0,0,,4,,,52,127
66807,note_on,1,0,0,,6,,,54,127
66807,note_on,0,0,0,,10,,,81,127
66909,note_off,102,0,0,,10,,,81,127
66910,note_on,1,0,0,,8,,,80,127
67012,note_off,102,0,0,,8,,,80,127
67013,note_on,1,0,0,,6,,,78,127
67115,note_off,102,0,0,,6,,,78,127
67115,note_off,0,0,0,,6,,,54,127
67116,note_on,1,0,0,,10,,,45,127
67116,note_on,0,0,0,,10,,,81,127
67270,note_on,154,0,0,,1,,,73,127
67423,note_off,153,0,0,,1,,,73,127
67423,note_off,0,0,0,,10,,,45,127
67424,note_on,1,0,0,,12,,,47,127
67424,note_on,0,0,0,,2,,,74,127
67577,note_off,153,0,0,,10,,,81,127
67578,note_on,1,0,0,,8,,,80,127
67728,note_off,150,0,0,,2,,,74,127
67730,note_off,2,0,0,,8,,,80,127
67730,note_off,0,0,0,,12,,,47,127
67731,note_on,1,0,0,,1,,,49,127
67731,note_on,0,0,0,,6,,,78,127
67884,note_off,153,0,0,,6,,,78,127
67885,note_on,1,0,0,,5,,,77,127
68038,note_off,153,0,0,,5,,,77,127
68038,note_off,0,0,0,,1,,,49,127
68039,note_on,1,0,0,,2,,,50,127
68039,note_on,0,0,0,,6,,,78,127
68141,note_off,102,0,0,,6,,,78,127
68142,note_on,1,0,0,,4,,,76,127
68244,note_off,102,0,0,,4,,,76,127
68245,note_on,1,0,0,,2,,,74,127
68347,note_off,102,0,0,,2,,,74,127
68347,note_off,0,0,0,,2,,,50,127
68348,note_on,1,0,0,,6,,,54,127
68348,note_on,0,0,0,,6,,,78,127
68502,note_on,154,0,0,,10,,,69,127
68655,note_off,153,0,0,,10,,,69,127
68655,note_off,0,0,0,,6,,,54,127
68656,note_on,1,0,0,,7,,,55,127
68656,note_on,0,0,0,,12,,,71,127
68809,note_off,153,0,0,,6,,,78,127
68810,note_on,1,0,0,,4,,,76,127
68960,note_off,150,0,0,,12,,,71,127
68962,note_off,2,0,0,,4,,,76,127
68962,note_off,0,0,0,,7,,,55,127
68963,note_on,1,0,0,,10,,,57,127
68963,note_on,0,0,0,,2,,,74,127
69116,note_off,153,0,0,,2,,,74,127
69117,note_on,1,0,0,,1,,,73,127
69270,note_off,153,0,0,,1,,,73,127
69270,note_off,0,0,0,,10,,,57,127
69271,note_on,1,0,0,,2,,,50,127
69271,note_on,0,0,0,,2,,,74,127
69424,note_off,153,0,0,,2,,,74,127
69425,note_on,1,0,0,,6,,,66,127
69578,note_off,153,0,0,,6,,,66,127
69578,note_off,0,0,0,,2,,,50,127
69579,note_on,1,0,0,,2,,,62,127
69579,note_on,0,0,0,,8,,,68,127
69732,note_off,153,0,0,,8,,,68,127
69732,note_off,0,0,0,,2,,,62,127
69733,note_on,1,0,0,,1,,,61,127
69733,note_on,0,0,0,,10,,,69,127
69886,note_off,153,0,0,,10,,,69,127
69886,note_off,0,0,0,,1,,,61,127
69887,note_on,1,0,0,,12,,,59,127
69887,note_on,0,0,0,,12,,,71,127
70040,note_off,153,0,0,,12,,,71,127
70040,note_off,0,0,0,,12,,,59,127
70041,note_on,1,0,0,,10,,,57,127
70041,note_on,0,0,0,,1,,,73,127
70194,note_off,153,0,0,,1,,,73,127
70194,note_off,0,0,0,,10,,,57,127
70195,note_on,1,0,0,,8,,,56,127
70195,note_on,0,0,0,,2,,,74,127
70348,note_off,153,0,0,,2,,,74,127
70348,note_off,0,0,0,,8,,,56,127
70349,note_on,1,0,0,,6,,,54,127
70349,note_on,0,0,0,,4,,,76,127
70502,note_off,153,0,0,,4,,,76,127
70502,note_off,0,0,0,,6,,,54,127
70503,note_on,1,0,0,,4,,,52,127
70503,note_on,0,0,0,,6,,,78,127
70656,note_off,153,0,0,,6,,,78,127
70656,note_off,0,0,0,,4,,,52,127
70657,note_on,1,0,0,,2,,,50,127
70657,note_on,0,0,0,,8,,,80,127
70810,note_off,153,0,0,,8,,,80,127
70810,note_off,0,0,0,,2,,,50,127
70811,note_on,1,0,0,,1,,,49,127
70811,note_on,0,0,0,,10,,,81,127
70964,note_off,153,0,0,,10,,,81,127
70964,note_off,0,0,0,,1,,,49,127
70965,note_on,1,0,0,,12,,,47,127
70965,note_on,0,0,0,,12,,,83,127
71118,note_off,153,0,0,,12,,,83,127
71118,note_off,0,0,0,,12,,,47,127
71119,note_on,1,0,0,,10,,,45,127
71119,note_on,0,0,0,,1,,,85,127
71273,note_on,154,0,0,,4,,,76,127
71426,note_off,153,0,0,,4,,,76,127
71426,note_off,0,0,0,,1,,,85,127
71427,note_on,1,0,0,,2,,,74,127
71427,note_on,0,0,0,,12,,,83,127
71580,note_off,153,0,0,,12,,,83,127
71580,note_off,0,0,0,,2,,,74,127
71581,note_on,1,0,0,,10,,,81,127
71581,note_on,0,0,0,,1,,,73,127
71734,note_off,153,0,0,,1,,,73,127
71734,note_off,0,0,0,,10,,,81,127
71734,note_off,0,0,0,,10,,,45,127
71735,note_on,1,0,0,,4,,,40,127
71735,note_on,0,0,0,,8,,,80,127
71735,note_on,0,0,0,,12,,,71,127
71879,note_off,144,0,0,,8,,,80,127
71888,note_off,9,0,0,,12,,,71,127
71889,note_on,1,0,0,,6,,,66,127
72042,note_off,153,0,0,,6,,,66,127
72042,note_off,0,0,0,,4,,,40,127
72043,note_on,1,0,0,,2,,,62,127
72043,note_on,0,0,0,,8,,,68,127
72196,note_off,153,0,0,,8,,,68,127
72196,note_off,0,0,0,,2,,,62,127
72197,note_on,1,0,0,,1,,,61,127
72197,note_on,0,0,0,,10,,,69,127
72350,note_off,153,0,0,,10,,,69,127
72350,note_off,0,0,0,,1,,,61,127
72351,note_on,1,0,0,,12,,,59,127
72351,note_on,0,0,0,,12,,,71,127
72504,note_off,153,0,0,,12,,,71,127
72504,note_off,0,0,0,,12,,,59,127
72505,note_on,1,0,0,,10,,,57,127
72505,note_on,0,0,0,,1,,,73,127
72658,note_off,153,0,0,,1,,,73,127
72658,note_off,0,0,0,,10,,,57,127
72659,note_on,1,0,0,,8,,,56,127
72659,note_on,0,0,0,,2,,,74,127
72812,note_off,153,0,0,,2,,,74,127
72812,note_off,0,0,0,,8,,,56,127
72813,note_on,1,0,0,,6,,,54,127
72813,note_on,0,0,0,,4,,,76,127
72966,note_off,153,0,0,,4,,,76,127
72966,note_off,0,0,0,,6,,,54,127
72967,note_on,1,0,0,,4,,,52,127
72967,note_on,0,0,0,,6,,,78,127
73120,note_off,153,0,0,,6,,,78,127
73120,note_off,0,0,0,,4,,,52,127
73121,note_on,1,0,0,,2,,,50,127
73121,note_on,0,0,0,,8,,,80,127
73274,note_off,153,0,0,,8,,,80,127
73274,note_off,0,0,0,,2,,,50,127
73275,note_on,1,0,0,,1,,,49,127
73275,note_on,0,0,0,,10,,,81,127
73428,note_off,153,0,0,,10,,,81,127
73428,note_off,0,0,0,,1,,,49,127
73429,note_on,1,0,0,,12,,,47,127
73429,note_on,0,0,0,,12,,,83,127
73582,note_off,153,0,0,,12,,,83,127
73582,note_off,0,0,0,,12,,,47,127
73583,note_on,1,0,0,,10,,,45,127
73583,note_on,0,0,0,,1,,,85,127
73737,note_on,154,0,0,,4,,,76,127
73890,note_off,153,0,0,,4,,,76,127
73890,note_off,0,0,0,,1,,,85,127
73891,note_on,1,0,0,,12,,,83,127
73891,note_on,0,0,0,,2,,,74,127
74044,note_off,153,0,0,,2,,,74,127
74044,note_off,0,0,0,,12,,,83,127
74045,note_on,1,0,0,,1,,,73,127
74045,note_on,0,0,0,,10,,,81,127
74198,note_off,153,0,0,,10,,,81,127
74198,note_off,0,0,0,,1,,,73,127
74198,note_off,0,0,0,,10,,,45,127
74199,note_on,1,0,0,,4,,,40,127
74199,note_on,0,0,0,,8,,,80,127
74199,note_on,0,0,0,,12,,,71,127
74301,note_off,102,0,0,,8,,,80,127
74302,note_on,1,0,0,,12,,,83,127
74404,note_off,102,0,0,,12,,,83,127
74405,note_on,1,0,0,,8,,,80,127
74504,note_off,99,0,0,,12,,,71,127
74506,note_off,2,0,0,,8,,,80,127
74507,note_on,1,0,0,,4,,,76,127
74609,note_off,102,0,0,,4,,,76,127
74610,note_on,1,0,0,,8,,,80,127
74712,note_off,102,0,0,,8,,,80,127
74713,note_on,1,0,0,,4,,,76,127
74815,note_off,102,0,0,,4,,,76,127
74816,note_on,1,0,0,,12,,,71,127
74918,note_off,102,0,0,,12,,,71,127
74919,note_on,1,0,0,,8,,,68,127
75021,note_off,102,0,0,,8,,,68,127
75022,note_on,1,0,0,,4,,,64,127
75124,note_off,102,0,0,,4,,,64,127
75125,note_on,1,0,0,,12,,,59,127
75227,note_off,102,0,0,,12,,,59,127
75228,note_on,1,0,0,,8,,,56,127
75330,note_off,102,0,0,,8,,,56,127
75331,note_on,1,0,0,,4,,,52,127
75429,note_off,98,0,0,,4,,,40,127
75435,note_on,6,0,0,,4,,,40,127
75555,note_off,120,0,0,,4,,,52,127
76315,note_off,760,0,0,,4,,,40,127
76739,note_on,424,0,0,,8,,,68,127
76739,note_on,0,0,0,,4,,,64,127
76739,note_on,0,0,0,,4,,,76,127
76739,note_on,0,0,0,,12,,,71,127
76943,note_off,204,0,0,,12,,,71,127
76943,note_off,0,0,0,,8,,,68,127
76957,note_on,14,0,0,,0,,,72,127
76957,note_on,0,0,0,,10,,,69,127
77059,note_off,102,0,0,,10,,,69,127
77059,note_off,0,0,0,,0,,,72,127
77060,note_on,1,0,0,,12,,,71,127
77060,note_on,0,0,0,,8,,,68,127
77354,note_off,294,0,0,,4,,,76,127
77354,note_off,0,0,0,,4,,,64,127
77367,note_off,13,0,0,,8,,,68,127
77367,note_off,0,0,0,,12,,,71,127
77368,note_on,1,0,0,,12,,,71,127
77368,note_on,0,0,0,,4,,,76,127
77368,note_on,0,0,0,,8,,,68,127
77368,note_on,0,0,0,,4,,,64,127
77572,note_off,204,0,0,,8,,,68,127
77572,note_off,0,0,0,,12,,,71,127
77573,note_on,1,0,0,,0,,,72,127
77573,note_on,0,0,0,,10,,,69,127
77675,note_off,102,0,0,,10,,,69,127
77675,note_off,0,0,0,,0,,,72,127
77676,note_on,1,0,0,,12,,,71,127
77676,note_on,0,0,0,,8,,,68,127
77982,note_off,306,0,0,,8,,,68,127
77982,note_off,0,0,0,,12,,,71,127
77982,note_off,0,0,0,,4,,,64,127
77982,note_off,0,0,0,,4,,,76,127
77983,note_on,1,0,0,,12,,,71,127
77983,note_on,0,0,0,,4,,,76,127
77983,note_on,0,0,0,,4,,,64,127
77983,note_on,0,0,0,,8,,,68,127
78187,note_off,204,0,0,,8,,,68,127
78187,note_off,0,0,0,,12,,,71,127
78188,note_on,1,0,0,,0,,,72,127
78188,note_on,0,0,0,,10,,,69,127
78290,note_off,102,0,0,,10,,,69,127
78290,note_off,0,0,0,,0,,,72,127
78291,note_on,1,0,0,,12,,,71,127
78291,note_on,0,0,0,,8,,,68,127
78597,note_off,306,0,0,,8,,,68,127
78597,note_off,0,0,0,,12,,,71,127
78597,note_off,0,0,0,,4,,,64,127
78597,note_off,0,0,0,,4,,,76,127
78598,note_on,1,0,0,,10,,,81,127
78598,note_on,0,0,0,,0,,,72,127
78598,note_on,0,0,0,,10,,,69,127
78598,note_on,0,0,0,,5,,,65,127
78904,note_off,306,0,0,,5,,,65,127
78904,note_off,0,0,0,,10,,,69,127
78904,note_off,0,0,0,,0,,,72,127
78904,note_off,0,0,0,,10,,,81,127
78905,note_on,1,0,0,,7,,,79,127
78905,note_on,0,0,0,,7,,,67,127
79007,note_off,102,0,0,,7,,,79,127
79008,note_on,1,0,0,,5,,,77,127
79110,note_off,102,0,0,,5,,,77,127
79111,note_on,1,0,0,,4,,,76,127
79213,note_off,102,0,0,,4,,,76,127
79214,note_on,1,0,0,,2,,,74,127
79214,note_on,0,0,0,,7,,,55,127
79316,note_off,102,0,0,,2,,,74,127
79317,note_on,1,0,0,,4,,,76,127
79419,note_off,102,0,0,,4,,,76,127
79420,note_on,1,0,0,,5,,,77,127
79522,note_off,102,0,0,,5,,,77,127
79522,note_off,0,0,0,,7,,,55,127
79522,note_off,0,0,0,,7,,,67,127
79523,note_on,1,0,0,,4,,,76,127
79523,note_on,0,0,0,,0,,,60,127
79523,note_on,0,0,0,,0,,,48,127
79625,note_on,102,0,0,,0,,,84,127
79727,note_off,102,0,0,,0,,,84,127
79727,note_off,0,0,0,,4,,,76,127
79728,note_on,1,0,0,,7,,,79,127
79830,note_off,102,0,0,,7,,,79,127
79831,note_on,1,0,0,,4,,,76,127
79933,note_off,102,0,0,,4,,,76,127
79934,note_on,1,0,0,,0,,,72,127
80036,note_off,102,0,0,,0,,,72,127
80037,note_on,1,0,0,,7,,,67,127
80139,note_off,102,0,0,,7,,,67,127
80140,note_on,1,0,0,,4,,,64,127
80242,note_off,102,0,0,,4,,,64,127
80242,note_off,0,0,0,,0,,,48,127
80242,note_off,0,0,0,,0,,,60,127
80243,note_on,1,0,0,,0,,,60,127
80345,note_off,102,0,0,,0,,,60,127
80346,note_on,1,0,0,,7,,,55,127
80448,note_off,102,0,0,,7,,,55,127
80449,note_on,1,0,0,,4,,,52,127
80551,note_off,102,0,0,,4,,,52,127
80552,note_on,1,0,0,,0,,,48,127
80654,note_off,102,0,0,,0,,,48,127
80655,note_on,1,0,0,,7,,,43,127
80757,note_off,102,0,0,,7,,,43,127
80758,note_on,1,0,0,,0,,,36,127
81372,note_off,614,0,0,,0,,,36,127
81680,note_on,308,0,0,,4,,,76,127
81680,note_on,0,0,0,,12,,,71,127
81680,note_on,0,0,0,,4,,,64,127
81680,note_on,0,0,0,,8,,,68,127
81884,note_off,204,0,0,,8,,,68,127
81884,note_off,0,0,0,,12,,,71,127
81885,note_on,1,0,0,,0,,,72,127
81885,note_on,0,0,0,,10,,,69,127
81987,note_off,102,0,0,,10,,,69,127
81987,note_off,0,0,0,,0,,,72,127
81988,note_on,1,0,0,,12,,,71,127
81988,note_on,0,0,0,,8,,,68,127
82294,note_off,306,0,0,,8,,,68,127
82294,note_off,0,0,0,,12,,,71,127
82294,note_off,0,0,0,,4,,,64,127
82294,note_off,0,0,0,,4,,,76,127
82295,note_on,1,0,0,,4,,,76,127
82295,note_on,0,0,0,,12,,,71,127
82295,note_on,0,0,0,,8,,,68,127
82295,note_on,0,0,0,,4,,,64,127
82499,note_off,204,0,0,,8,,,68,127
82499,note_off,0,0,0,,12,,,71,127
82500,note_on,1,0,0,,0,,,72,127
82500,note_on,0,0,0,,10,,,69,127
82602,note_off,102,0,0,,10,,,69,127
82602,note_off,0,0,0,,0,,,72,127
82603,note_on,1,0,0,,12,,,71,127
82603,note_on,0,0,0,,8,,,68,127
82909,note_off,306,0,0,,8,,,68,127
82909,note_off,0,0,0,,12,,,71,127
82909,note_off,0,0,0,,4,,,64,127
82909,note_off,0,0,0,,4,,,76,127
82910,note_on,1,0,0,,12,,,71,127
82910,note_on,0,0,0,,4,,,76,127
82910,note_on,0,0,0,,4,,,64,127
82910,note_on,0,0,0,,8,,,68,127
83114,note_off,204,0,0,,8,,,68,127
83114,note_off,0,0,0,,12,,,71,127
83115,note_on,1,0,0,,0,,,72,127
83115,note_on,0,0,0,,10,,,69,127
83217,note_off,102,0,0,,10,,,69,127
83217,note_off,0,0,0,,0,,,72,127
83218,note_on,1,0,0,,12,,,71,127
83218,note_on,0,0,0,,8,,,68,127
83524,note_off,306,0,0,,8,,,68,127
83524,note_off,0,0,0,,12,,,71,127
83524,note_off,0,0,0,,4,,,64,127
83524,note_off,0,0,0,,4,,,76,127
83525,note_on,1,0,0,,1,,,73,127
83525,note_on,0,0,0,,11,,,82,127
83525,note_on,0,0,0,,4,,,64,127
83525,note_on,0,0,0,,7,,,67,127
83831,note_off,306,0,0,,7,,,67,127
83831,note_off,0,0,0,,4,,,64,127
83831,note_off,0,0,0,,11,,,82,127
83831,note_off,0,0,0,,1,,,73,127
83832,note_on,1,0,0,,10,,,81,127
83832,note_on,0,0,0,,5,,,65,127
83832,note_on,0,0,0,,10,,,69,127
83934,note_off,102,0,0,,10,,,81,127
83935,note_on,1,0,0,,7,,,79,127
84037,note_off,102,0,0,,7,,,79,127
84038,note_on,1,0,0,,5,,,77,127
84140,note_off,102,0,0,,5,,,77,127
84140,note_off,0,0,0,,10,,,69,127
84140,note_off,0,0,0,,5,,,65,127
84141,note_on,1,0,0,,4,,,76,127
84141,note_on,0,0,0,,10,,,69,127
84141,note_on,0,0,0,,1,,,61,127
84141,note_on,0,0,0,,4,,,64,127
84141,note_on,0,0,0,,7,,,67,127
84243,note_off,102,0,0,,4,,,76,127
84244,note_on,1,0,0,,5,,,77,127
84346,note_off,102,0,0,,5,,,77,127
84347,note_on,1,0,0,,7,,,79,127
84449,note_off,102,0,0,,7,,,79,127
84449,note_off,0,0,0,,7,,,67,127
84449,note_off,0,0,0,,4,,,64,127
84449,note_off,0,0,0,,1,,,61,127
84449,note_off,0,0,0,,10,,,69,127
84450,note_on,1,0,0,,5,,,77,127
84450,note_on,0,0,0,,10,,,69,127
84450,note_on,0,0,0,,2,,,62,127
84552,note_on,102,0,0,,2,,,86,127
84654,note_off,102,0,0,,2,,,86,127
84654,note_off,0,0,0,,5,,,77,127
84655,note_on,1,0,0,,10,,,81,127
84757,note_off,102,0,0,,10,,,81,127
84758,note_on,1,0,0,,5,,,77,127
84860,note_off,102,0,0,,5,,,77,127
84861,note_on,1,0,0,,2,,,74,127
84963,note_off,102,0,0,,2,,,74,127
84963,note_off,0,0,0,,10,,,69,127
84964,note_on,1,0,0,,10,,,69,127
85066,note_off,102,0,0,,10,,,69,127
85067,note_on,1,0,0,,5,,,65,127
85169,note_off,102,0,0,,5,,,65,127
85169,note_off,0,0,0,,2,,,62,127
85170,note_on,1,0,0,,2,,,62,127
85272,note_off,102,0,0,,2,,,62,127
85273,note_on,1,0,0,,10,,,57,127
85375,note_off,102,0,0,,10,,,57,127
85376,note_on,1,0,0,,5,,,53,127
85478,note_off,102,0,0,,5,,,53,127
85479,note_on,1,0,0,,2,,,50,127
85581,note_off,102,0,0,,2,,,50,127
85582,note_on,1,0,0,,10,,,45,127
85684,note_off,102,0,0,,10,,,45,127
85685,note_on,1,0,0,,2,,,38,127
86325,note_off,640,0,0,,2,,,38,127
86619,note_on,294,0,0,,8,,,68,127
86619,note_on,0,0,0,,4,,,64,127
86619,note_on,0,0,0,,4,,,76,127
86619,note_on,0,0,0,,12,,,71,127
86823,note_off,204,0,0,,12,,,71,127
86823,note_off,0,0,0,,8,,,68,127
86824,note_on,1,0,0,,10,,,69,127
86824,note_on,0,0,0,,0,,,72,127
86926,note_off,102,0,0,,0,,,72,127
86926,note_off,0,0,0,,10,,,69,127
86927,note_on,1,0,0,,8,,,68,127
86927,note_on,0,0,0,,12,,,71,127
87233,note_off,306,0,0,,12,,,71,127
87233,note_off,0,0,0,,8,,,68,127
87233,note_off,0,0,0,,4,,,76,127
87233,note_off,0,0,0,,4,,,64,127
87234,note_on,1,0,0,,8,,,68,127
87234,note_on,0,0,0,,4,,,64,127
87234,note_on,0,0,0,,4,,,76,127
87234,note_on,0,0,0,,12,,,71,127
87438,note_off,204,0,0,,12,,,71,127
87438,note_off,0,0,0,,8,,,68,127
87439,note_on,1,0,0,,10,,,69,127
87439,note_on,0,0,0,,0,,,72,127
87541,note_off,102,0,0,,0,,,72,127
87541,note_off,0,0,0,,10,,,69,127
87542,note_on,1,0,0,,8,,,68,127
87542,note_on,0,0,0,,12,,,71,127
87848,note_off,306,0,0,,12,,,71,127
87848,note_off,0,0,0,,8,,,68,127
87848,note_off,0,0,0,,4,,,76,127
87848,note_off,0,0,0,,4,,,64,127
87849,note_on,1,0,0,,8,,,68,127
87849,note_on,0,0,0,,4,,,64,127
87849,note_on,0,0,0,,4,,,76,127
87849,note_on,0,0,0,,12,,,71,127
88053,note_off,204,0,0,,12,,,71,127
88053,note_off,0,0,0,,8,,,68,127
88054,note_on,1,0,0,,10,,,69,127
88054,note_on,0,0,0,,0,,,72,127
88156,note_off,102,0,0,,0,,,72,127
88156,note_off,0,0,0,,10,,,69,127
88157,note_on,1,0,0,,8,,,68,127
88157,note_on,0,0,0,,12,,,71,127
88463,note_off,306,0,0,,12,,,71,127
88463,note_off,0,0,0,,8,,,68,127
88463,note_off,0,0,0,,4,,,76,127
88463,note_off,0,0,0,,4,,,64,127
88464,note_on,1,0,0,,4,,,64,127
88464,note_on,0,0,0,,10,,,69,127
88464,note_on,0,0,0,,0,,,84,127
88464,note_on,0,0,0,,4,,,76,127
88770,note_off,306,0,0,,4,,,76,127
88770,note_off,0,0,0,,0,,,84,127
88770,note_off,0,0,0,,10,,,69,127
88770,note_off,0,0,0,,4,,,64,127
88771,note_on,1,0,0,,3,,,63,127
88771,note_on,0,0,0,,6,,,66,127
88771,note_on,0,0,0,,12,,,71,127
88771,note_on,0,0,0,,10,,,69,127
88771,note_on,0,0,0,,12,,,83,127
88873,note_off,102,0,0,,12,,,83,127
88874,note_on,1,0,0,,10,,,81,127
88976,note_off,102,0,0,,10,,,81,127
88977,note_on,1,0,0,,8,,,80,127
89079,note_off,102,0,0,,8,,,80,127
89079,note_off,0,0,0,,10,,,69,127
89079,note_off,0,0,0,,12,,,71,127
89079,note_off,0,0,0,,6,,,66,127
89079,note_off,0,0,0,,3,,,63,127
89080,note_on,1,0,0,,12,,,59,127
89080,note_on,0,0,0,,6,,,78,127
89182,note_off,102,0,0,,6,,,78,127
89183,note_on,1,0,0,,8,,,80,127
89285,note_off,102,0,0,,8,,,80,127
89286,note_on,1,0,0,,10,,,81,127
89388,note_off,102,0,0,,10,,,81,127
89388,note_off,0,0,0,,12,,,59,127
89389,note_on,1,0,0,,4,,,64,127
89389,note_on,0,0,0,,4,,,52,127
89389,note_on,0,0,0,,8,,,80,127
89491,note_on,102,0,0,,12,,,83,127
89589,note_off,98,0,0,,8,,,80,127
89593,note_off,4,0,0,,12,,,83,127
89594,note_on,1,0,0,,8,,,80,127
89696,note_off,102,0,0,,8,,,80,127
89697,note_on,1,0,0,,4,,,76,127
89799,note_off,102,0,0,,4,,,76,127
89800,note_on,1,0,0,,12,,,71,127
89902,note_off,102,0,0,,12,,,71,127
89903,note_on,1,0,0,,8,,,68,127
90005,note_off,102,0,0,,8,,,68,127
90005,note_off,0,0,0,,4,,,64,127
90006,note_on,1,0,0,,4,,,64,127
90108,note_off,102,0,0,,4,,,64,127
90108,note_off,0,0,0,,4,,,52,127
90109,note_on,1,0,0,,12,,,59,127
90211,note_off,102,0,0,,12,,,59,127
90212,note_on,1,0,0,,8,,,56,127
90314,note_off,102,0,0,,8,,,56,127
90315,note_on,1,0,0,,4,,,52,127
90417,note_off,102,0,0,,4,,,52,127
90418,note_on,1,0,0,,12,,,47,127
90520,note_off,102,0,0,,12,,,47,127
90521,note_on,1,0,0,,8,,,44,127
90623,note_off,102,0,0,,8,,,44,127
90624,note_on,1,0,0,,4,,,40,127
91852,note_off,1228,0,0,,4,,,40,127
91853,note_on,1,0,0,,4,,,52,127
92160,note_on,307,0,0,,2,,,62,127
92160,note_on,0,0,0,,12,,,71,127
92262,note_on,102,0,0,,10,,,69,127
92275,note_off,13,0,0,,12,,,71,127
92365,note_on,90,0,0,,8,,,68,127
92378,note_off,13,0,0,,10,,,69,127
92467,note_off,89,0,0,,2,,,62,127
92467,note_off,0,0,0,,4,,,52,127
92468,note_on,1,0,0,,1,,,61,127
92468,note_on,0,0,0,,10,,,69,127
92481,note_off,13,0,0,,8,,,68,127
92571,note_on,90,0,0,,12,,,71,127
92584,note_off,13,0,0,,10,,,69,127
92674,note_on,90,0,0,,1,,,73,127
92687,note_off,13,0,0,,12,,,71,127
92776,note_off,89,0,0,,1,,,61,127
92777,note_on,1,0,0,,12,,,59,127
92777,note_on,0,0,0,,2,,,74,127
92790,note_off,13,0,0,,1,,,73,127
92880,note_on,90,0,0,,1,,,73,127
92893,note_off,13,0,0,,2,,,74,127
92983,note_on,90,0,0,,12,,,71,127
92996,note_off,13,0,0,,1,,,73,127
93085,note_off,89,0,0,,12,,,59,127
93086,note_on,1,0,0,,10,,,57,127
93086,note_on,0,0,0,,1,,,73,127
93099,note_off,13,0,0,,12,,,71,127
93189,note_on,90,0,0,,2,,,74,127
93202,note_off,13,0,0,,1,,,73,127
93292,note_on,90,0,0,,4,,,76,127
93305,note_off,13,0,0,,2,,,74,127
93394,note_off,89,0,0,,10,,,57,127
93395,note_on,1,0,0,,2,,,62,127
93395,note_on,0,0,0,,6,,,78,127
93408,note_off,13,0,0,,4,,,76,127
93498,note_on,90,0,0,,4,,,76,127
93511,note_off,13,0,0,,6,,,78,127
93601,note_on,90,0,0,,2,,,74,127
93614,note_off,13,0,0,,4,,,76,127
93703,note_off,89,0,0,,2,,,62,127
93704,note_on,1,0,0,,1,,,61,127
93704,note_on,0,0,0,,4,,,76,127
93717,note_off,13,0,0,,2,,,74,127
93807,note_on,90,0,0,,6,,,78,127
93820,note_off,13,0,0,,4,,,76,127
93910,note_on,90,0,0,,8,,,80,127
93923,note_off,13,0,0,,6,,,78,127
94012,note_off,89,0,0,,1,,,61,127
94013,note_on,1,0,0,,6,,,66,127
94013,note_on,0,0,0,,10,,,81,127
94026,note_off,13,0,0,,8,,,80,127
94116,note_on,90,0,0,,8,,,80,127
94129,note_off,13,0,0,,10,,,81,127
94219,note_on,90,0,0,,10,,,81,127
94232,note_off,13,0,0,,8,,,80,127
94321,note_off,89,0,0,,6,,,66,127
94322,note_on,1,0,0,,4,,,64,127
94322,note_on,0,0,0,,8,,,80,127
94335,note_off,13,0,0,,10,,,81,127
94425,note_on,90,0,0,,6,,,78,127
94438,note_off,13,0,0,,8,,,80,127
94528,note_on,90,0,0,,8,,,80,127
94541,note_off,13,0,0,,6,,,78,127
94630,note_off,89,0,0,,4,,,64,127
94631,note_on,1,0,0,,2,,,62,127
94631,note_on,0,0,0,,6,,,78,127
94644,note_off,13,0,0,,8,,,80,127
94734,note_on,90,0,0,,4,,,76,127
94747,note_off,13,0,0,,6,,,78,127
94837,note_on,90,0,0,,6,,,78,127
94850,note_off,13,0,0,,4,,,76,127
94939,note_off,89,0,0,,2,,,62,127
94940,note_on,1,0,0,,1,,,61,127
94940,note_on,0,0,0,,4,,,76,127
94953,note_off,13,0,0,,6,,,78,127
95043,note_on,90,0,0,,2,,,74,127
95056,note_off,13,0,0,,4,,,76,127
95146,note_on,90,0,0,,4,,,76,127
95159,note_off,13,0,0,,2,,,74,127
95248,note_off,89,0,0,,1,,,61,127
95249,note_on,1,0,0,,12,,,59,127
95249,note_on,0,0,0,,2,,,74,127
95262,note_off,13,0,0,,4,,,76,127
95352,note_on,90,0,0,,1,,,73,127
95365,note_off,13,0,0,,2,,,74,127
95455,note_on,90,0,0,,2,,,74,127
95468,note_off,13,0,0,,1,,,73,127
95557,note_off,89,0,0,,12,,,59,127
95558,note_on,1,0,0,,10,,,57,127
95558,note_on,0,0,0,,1,,,73,127
95571,note_off,13,0,0,,2,,,74,127
95661,note_on,90,0,0,,2,,,74,127
95674,note_off,13,0,0,,1,,,73,127
95764,note_on,90,0,0,,4,,,76,127
95777,note_off,13,0,0,,2,,,74,127
95866,note_off,89,0,0,,10,,,57,127
95867,note_on,1,0,0,,2,,,50,127
95867,note_on,0,0,0,,2,,,74,127
95880,note_off,13,0,0,,4,,,76,127
95970,note_on,90,0,0,,4,,,76,127
95983,note_off,13,0,0,,2,,,74,127
96073,note_on,90,0,0,,6,,,78,127
96086,note_off,13,0,0,,4,,,76,127
96175,note_off,89,0,0,,2,,,50,127
96176,note_on,1,0,0,,4,,,52,127
96176,note_on,0,0,0,,4,,,76,127
96189,note_off,13,0,0,,6,,,78,127
96279,note_on,90,0,0,,2,,,74,127
96292,note_off,13,0,0,,4,,,76,127
96382,note_on,90,0,0,,1,,,73,127
96395,note_off,13,0,0,,2,,,74,127
96485,note_on,90,0,0,,4,,,40,127
96485,note_on,0,0,0,,12,,,71,127
96498,note_off,13,0,0,,1,,,73,127
96588,note_on,90,0,0,,10,,,69,127
96601,note_off,13,0,0,,12,,,71,127
96691,note_on,90,0,0,,8,,,68,127
96704,note_off,13,0,0,,10,,,69,127
96793,note_off,89,0,0,,4,,,40,127
96793,note_off,0,0,0,,4,,,52,127
96794,note_on,1,0,0,,10,,,45,127
96794,note_on,0,0,0,,10,,,69,127
96807,note_off,13,0,0,,8,,,68,127
97101,note_off,294,0,0,,10,,,69,127
97101,note_off,0,0,0,,10,,,45,127
97102,note_on,1,0,0,,10,,,69,127
97511,note_off,409,0,0,,10,,,69,127
97512,note_on,1,0,0,,8,,,68,127
97614,note_on,102,0,0,,6,,,66,127
97627,note_off,13,0,0,,8,,,68,127
97717,note_on,90,0,0,,4,,,64,127
97730,note_off,13,0,0,,6,,,66,127
97820,note_on,90,0,0,,2,,,62,127
97833,note_off,13,0,0,,4,,,64,127
97923,note_on,90,0,0,,1,,,61,127
97936,note_off,13,0,0,,2,,,62,127
98026,note_on,90,0,0,,12,,,59,127
98039,note_off,13,0,0,,1,,,61,127
98129,note_on,90,0,0,,10,,,57,127
98142,note_off,13,0,0,,12,,,59,127
98232,note_on,90,0,0,,8,,,56,127
98245,note_off,13,0,0,,10,,,57,127
98335,note_on,90,0,0,,6,,,54,127
98348,note_off,13,0,0,,8,,,56,127
98438,note_on,90,0,0,,4,,,52,127
98451,note_off,13,0,0,,6,,,54,127
98541,note_on,90,0,0,,2,,,50,127
98554,note_off,13,0,0,,4,,,52,127
98644,note_on,90,0,0,,1,,,49,127
98657,note_off,13,0,0,,2,,,50,127
98747,note_on,90,0,0,,12,,,47,127
98760,note_off,13,0,0,,1,,,49,127
98850,note_on,90,0,0,,10,,,45,127
98863,note_off,13,0,0,,12,,,47,127
98953,note_on,90,0,0,,8,,,44,127
98966,note_off,13,0,0,,10,,,45,127
99056,note_on,90,0,0,,10,,,45,127
99069,note_off,13,0,0,,8,,,44,127
99159,note_on,90,0,0,,12,,,47,127
99172,note_off,13,0,0,,10,,,45,127
99262,note_on,90,0,0,,4,,,40,127
99275,note_off,13,0,0,,12,,,47,127
99569,note_on,294,0,0,,12,,,71,127
99569,note_on,0,0,0,,8,,,68,127
99569,note_on,0,0,0,,4,,,64,127
99569,note_on,0,0,0,,4,,,76,127
99875,note_off,306,0,0,,4,,,40,127
99876,note_on,1,0,0,,10,,,45,127
99978,note_off,102,0,0,,4,,,76,127
99978,note_off,0,0,0,,8,,,68,127
99978,note_off,0,0,0,,12,,,71,127
99979,note_on,1,0,0,,2,,,74,127
100081,note_on,102,0,0,,1,,,73,127
100094,note_off,13,0,0,,2,,,74,127
100183,note_off,89,0,0,,4,,,64,127
100184,note_on,1,0,0,,12,,,71,127
100197,note_off,13,0,0,,1,,,73,127
100287,note_on,90,0,0,,10,,,69,127
100300,note_off,13,0,0,,12,,,71,127
100390,note_on,90,0,0,,8,,,68,127
100403,note_off,13,0,0,,10,,,69,127
100492,note_off,89,0,0,,10,,,45,127
100493,note_on,1,0,0,,2,,,38,127
100493,note_on,0,0,0,,6,,,66,127
100506,note_off,13,0,0,,8,,,68,127
100596,note_on,90,0,0,,4,,,64,127
100609,note_off,13,0,0,,6,,,66,127
100699,note_on,90,0,0,,2,,,62,127
100712,note_off,13,0,0,,4,,,64,127
100802,note_on,90,0,0,,1,,,61,127
100815,note_off,13,0,0,,2,,,62,127
100905,note_on,90,0,0,,12,,,59,127
100918,note_off,13,0,0,,1,,,61,127
101008,note_on,90,0,0,,10,,,57,127
101021,note_off,13,0,0,,12,,,59,127
101110,note_off,89,0,0,,2,,,38,127
101111,note_on,1,0,0,,8,,,56,127
101111,note_on,0,0,0,,4,,,40,127
101124,note_off,13,0,0,,10,,,57,127
101214,note_on,90,0,0,,6,,,54,127
101227,note_off,13,0,0,,8,,,56,127
101317,note_on,90,0,0,,4,,,52,127
101330,note_off,13,0,0,,6,,,54,127
101420,note_on,90,0,0,,2,,,50,127
101433,note_off,13,0,0,,4,,,52,127
101523,note_on,90,0,0,,1,,,49,127
101536,note_off,13,0,0,,2,,,50,127
101626,note_on,90,0,0,,12,,,47,127
101639,note_off,13,0,0,,1,,,49,127
101728,note_off,89,0,0,,4,,,40,127
101729,note_on,1,0,0,,10,,,45,127
101729,note_on,0,0,0,,10,,,33,127
101742,note_off,13,0,0,,12,,,47,127
102036,note_off,294,0,0,,10,,,33,127
102036,note_off,0,0,0,,10,,,45,127
102037,note_on,1,0,0,,10,,,69,127
102446,note_off,409,0,0,,10,,,69,127
102447,note_on,1,0,0,,8,,,68,127
102549,note_on,102,0,0,,6,,,66,127
102562,note_off,13,0,0,,8,,,68,127
102652,note_on,90,0,0,,4,,,64,127
102665,note_off,13,0,0,,6,,,66,127
102755,note_on,90,0,0,,2,,,62,127
102768,note_off,13,0,0,,4,,,64,127
102858,note_on,90,0,0,,1,,,61,127
102871,note_off,13,0,0,,2,,,62,127
102961,note_on,90,0,0,,12,,,59,127
102974,note_off,13,0,0,,1,,,61,127
103064,note_on,90,0,0,,10,,,57,127
103077,note_off,13,0,0,,12,,,59,127
103167,note_on,90,0,0,,8,,,56,127
103180,note_off,13,0,0,,10,,,57,127
103270,note_on,90,0,0,,6,,,54,127
103283,note_off,13,0,0,,8,,,56,127
103373,note_on,90,0,0,,4,,,52,127
103386,note_off,13,0,0,,6,,,54,127
103476,note_on,90,0,0,,2,,,50,127
103489,note_off,13,0,0,,4,,,52,127
103579,note_on,90,0,0,,1,,,49,127
103592,note_off,13,0,0,,2,,,50,127
103682,note_on,90,0,0,,12,,,47,127
103695,note_off,13,0,0,,1,,,49,127
103785,note_on,90,0,0,,10,,,45,127
103798,note_off,13,0,0,,12,,,47,127
103888,note_on,90,0,0,,8,,,44,127
103901,note_off,13,0,0,,10,,,45,127
103991,note_on,90,0,0,,10,,,45,127
104004,note_off,13,0,0,,8,,,44,127
104094,note_on,90,0,0,,12,,,47,127
104107,note_off,13,0,0,,10,,,45,127
104197,note_on,90,0,0,,4,,,40,127
104210,note_off,13,0,0,,12,,,47,127
104504,note_on,294,0,0,,8,,,68,127
104504,note_on,0,0,0,,4,,,76,127
104504,note_on,0,0,0,,12,,,71,127
104504,note_on,0,0,0,,4,,,64,127
104810,note_off,306,0,0,,4,,,40,127
104811,note_on,1,0,0,,10,,,45,127
104913,note_off,102,0,0,,12,,,71,127
104913,note_off,0,0,0,,4,,,76,127
104913,note_off,0,0,0,,8,,,68,127
104914,note_on,1,0,0,,2,,,74,127
105016,note_on,102,0,0,,1,,,73,127
105029,note_off,13,0,0,,2,,,74,127
105118,note_off,89,0,0,,4,,,64,127
105119,note_on,1,0,0,,12,,,71,127
105132,note_off,13,0,0,,1,,,73,127
105222,note_on,90,0,0,,10,,,69,127
105235,note_off,13,0,0,,12,,,71,127
105325,note_on,90,0,0,,8,,,68,127
105338,note_off,13,0,0,,10,,,69,127
105427,note_off,89,0,0,,10,,,45,127
105428,note_on,1,0,0,,2,,,38,127
105428,note_on,0,0,0,,6,,,66,127
105441,note_off,13,0,0,,8,,,68,127
105531,note_on,90,0,0,,4,,,64,127
105544,note_off,13,0,0,,6,,,66,127
105634,note_on,90,0,0,,2,,,62,127
105647,note_off,13,0,0,,4,,,64,127
105737,note_on,90,0,0,,1,,,61,127
105750,note_off,13,0,0,,2,,,62,127
105840,note_on,90,0,0,,12,,,59,127
105853,note_off,13,0,0,,1,,,61,127
105943,note_on,90,0,0,,10,,,57,127
105956,note_off,13,0,0,,12,,,59,127
106045,note_off,89,0,0,,2,,,38,127
106046,note_on,1,0,0,,4,,,40,127
106046,note_on,0,0,0,,8,,,56,127
106059,note_off,13,0,0,,10,,,57,127
106149,note_on,90,0,0,,6,,,54,127
106162,note_off,13,0,0,,8,,,56,127
106252,note_on,90,0,0,,4,,,52,127
106265,note_off,13,0,0,,6,,,54,127
106355,note_on,90,0,0,,2,,,50,127
106368,note_off,13,0,0,,4,,,52,127
106458,note_on,90,0,0,,1,,,49,127
106471,note_off,13,0,0,,2,,,50,127
106561,note_on,90,0,0,,12,,,47,127
106574,note_off,13,0,0,,1,,,49,127
106663,note_off,89,0,0,,4,,,40,127
106664,note_on,1,0,0,,10,,,45,127
106664,note_on,0,0,0,,10,,,33,127
106677,note_off,13,0,0,,12,,,47,127
106971,note_on,294,0,0,,1,,,61,127
107073,note_on,102,0,0,,4,,,64,127
107086,note_off,13,0,0,,1,,,61,127
107176,note_on,90,0,0,,10,,,69,127
107189,note_off,13,0,0,,4,,,64,127
107278,note_off,89,0,0,,10,,,33,127
107278,note_off,0,0,0,,10,,,45,127
107279,note_on,1,0,0,,4,,,40,127
107279,note_on,0,0,0,,12,,,59,127
107585,note_off,306,0,0,,10,,,69,127
107586,note_on,1,0,0,,8,,,68,127
107879,note_off,293,0,0,,4,,,40,127
107893,note_off,14,0,0,,12,,,59,127
107894,note_on,1,0,0,,10,,,45,127
107923,note_off,29,0,0,,8,,,68,127
108201,note_on,278,0,0,,4,,,64,127
108303,note_on,102,0,0,,10,,,69,127
108316,note_off,13,0,0,,4,,,64,127
108406,note_on,90,0,0,,1,,,73,127
108419,note_off,13,0,0,,10,,,69,127
108508,note_off,89,0,0,,10,,,45,127
108509,note_on,1,0,0,,4,,,40,127
108509,note_on,0,0,0,,4,,,64,127
108815,note_off,306,0,0,,4,,,64,127
108815,note_off,0,0,0,,1,,,73,127
108816,note_on,1,0,0,,8,,,68,127
108816,note_on,0,0,0,,12,,,71,127
109109,note_off,293,0,0,,4,,,40,127
109123,note_on,14,0,0,,10,,,45,127
109152,note_off,29,0,0,,12,,,71,127
109152,note_off,0,0,0,,8,,,68,127
109430,note_on,278,0,0,,1,,,73,127
109532,note_on,102,0,0,,4,,,76,127
109545,note_off,13,0,0,,1,,,73,127
109635,note_on,90,0,0,,10,,,81,127
109648,note_off,13,0,0,,4,,,76,127
109737,note_off,89,0,0,,10,,,45,127
109738,note_on,1,0,0,,4,,,52,127
109738,note_on,0,0,0,,12,,,71,127
110044,note_off,306,0,0,,10,,,81,127
110045,note_on,1,0,0,,8,,,80,127
110338,note_off,293,0,0,,4,,,52,127
110352,note_off,14,0,0,,8,,,80,127
110352,note_off,0,0,0,,12,,,71,127
110353,note_on,1,0,0,,10,,,57,127
110353,note_on,0,0,0,,10,,,81,127
110455,note_on,102,0,0,,4,,,76,127
110557,note_off,102,0,0,,4,,,76,127
110557,note_off,0,0,0,,10,,,81,127
110558,note_on,1,0,0,,8,,,80,127
110660,note_off,102,0,0,,8,,,80,127
110660,note_off,0,0,0,,10,,,57,127
110661,note_on,1,0,0,,2,,,50,127
110661,note_on,0,0,0,,6,,,78,127
110763,note_off,102,0,0,,6,,,78,127
110764,note_on,1,0,0,,4,,,76,127
110866,note_off,102,0,0,,4,,,76,127
110867,note_on,1,0,0,,2,,,74,127
110969,note_off,102,0,0,,2,,,74,127
110969,note_off,0,0,0,,2,,,50,127
110970,note_on,1,0,0,,4,,,52,127
110970,note_on,0,0,0,,1,,,73,127
111072,note_off,102,0,0,,1,,,73,127
111073,note_on,1,0,0,,2,,,74,127
111175,note_off,102,0,0,,2,,,74,127
111176,note_on,1,0,0,,4,,,76,127
111278,note_off,102,0,0,,4,,,76,127
111279,note_on,1,0,0,,4,,,40,127
111279,note_on,0,0,0,,10,,,69,127
111381,note_off,102,0,0,,10,,,69,127
111382,note_on,1,0,0,,12,,,71,127
111484,note_off,102,0,0,,12,,,71,127
111485,note_on,1,0,0,,8,,,68,127
111587,note_off,102,0,0,,8,,,68,127
111587,note_off,0,0,0,,4,,,40,127
111587,note_off,0,0,0,,4,,,52,127
111588,note_on,1,0,0,,10,,,45,127
111588,note_on,0,0,0,,10,,,69,127
111690,note_on,102,0,0,,4,,,64,127
111792,note_off,102,0,0,,4,,,64,127
111792,note_off,0,0,0,,10,,,69,127
111793,note_on,1,0,0,,8,,,68,127
111895,note_off,102,0,0,,8,,,68,127
111895,note_off,0,0,0,,10,,,45,127
111896,note_on,1,0,0,,2,,,38,127
111896,note_on,0,0,0,,6,,,66,127
111998,note_off,102,0,0,,6,,,66,127
111999,note_on,1,0,0,,4,,,64,127
112101,note_off,102,0,0,,4,,,64,127
112102,note_on,1,0,0,,2,,,62,127
112204,note_off,102,0,0,,2,,,62,127
112204,note_off,0,0,0,,2,,,38,127
112205,note_on,1,0,0,,4,,,40,127
112205,note_on,0,0,0,,1,,,61,127
112307,note_off,102,0,0,,1,,,61,127
112308,note_on,1,0,0,,2,,,62,127
112410,note_off,102,0,0,,2,,,62,127
112411,note_on,1,0,0,,4,,,64,127
112513,note_off,102,0,0,,4,,,64,127
112514,note_on,1,0,0,,10,,,57,127
112616,note_off,102,0,0,,10,,,57,127
112617,note_on,1,0,0,,12,,,59,127
112719,note_off,102,0,0,,12,,,59,127
112720,note_on,1,0,0,,8,,,56,127
112822,note_off,102,0,0,,8,,,56,127
112822,note_off,0,0,0,,4,,,40,127
112823,note_on,1,0,0,,10,,,45,127
112823,note_on,0,0,0,,10,,,57,127
114743,note_off,1920,0,0,,10,,,57,127
114743,note_off,0,0,0,,10,,,45,127
116736,end_of_track,1993,1,0,,,,,,
