tick,type,time,meta,track,program,channel,pitch,tempo,note,velocity
0,copyright,0,1,0,,,,,,
0,program_change,0,0,0,6,0,,,,
0,pitchwheel,0,0,0,,0,0,,,
0,program_change,0,0,0,6,1,,,,
0,pitchwheel,0,0,0,,1,-590,,,
0,program_change,0,0,0,6,2,,,,
0,pitchwheel,0,0,0,,2,-272,,,
0,program_change,0,0,0,6,3,,,,
0,pitchwheel,0,0,0,,3,-353,,,
0,program_change,0,0,0,6,4,,,,
0,pitchwheel,0,0,0,,4,-560,,,
0,program_change,0,0,0,6,5,,,,
0,pitchwheel,0,0,0,,5,-80,,,
0,program_change,0,0,0,6,6,,,,
0,pitchwheel,0,0,0,,6,-625,,,
0,program_change,0,0,0,6,7,,,,
0,pitchwheel,0,0,0,,7,-130,,,
0,program_change,0,0,0,6,8,,,,
0,pitchwheel,0,0,0,,8,-512,,,
0,program_change,0,0,0,6,10,,,,
0,pitchwheel,0,0,0,,10,-464,,,
0,program_change,0,0,0,6,11,,,,
0,pitchwheel,0,0,0,,11,-208,,,
0,program_change,0,0,0,6,12,,,,
0,pitchwheel,0,0,0,,12,-553,,,
0,set_tempo,0,1,0,,,,500000,,
77,note_on,77,0,0,,10,,,57,127
77,note_on,0,0,0,,2,,,74,127
229,note_off,152,0,0,,2,,,74,127
229,note_off,0,0,0,,10,,,57,127
231,note_on,2,0,0,,12,,,59,127
231,note_on,0,0,0,,1,,,73,127
383,note_off,152,0,0,,12,,,59,127
385,note_on,2,0,0,,1,,,61,127
537,note_off,152,0,0,,1,,,61,127
537,note_off,0,0,0,,1,,,73,127
539,note_on,2,0,0,,2,,,62,127
539,note_on,0,0,0,,1,,,73,127
691,note_off,152,0,0,,1,,,73,127
691,note_off,0,0,0,,2,,,62,127
693,note_on,2,0,0,,4,,,64,127
693,note_on,0,0,0,,12,,,71,127
845,note_off,152,0,0,,4,,,64,127
847,note_on,2,0,0,,6,,,66,127
999,note_off,152,0,0,,6,,,66,127
1001,note_on,2,0,0,,8,,,56,127
1153,note_off,152,0,0,,12,,,71,127
1155,note_on,2,0,0,,6,,,78,127
1307,note_off,152,0,0,,6,,,78,127
1309,note_on,2,0,0,,4,,,76,127
1461,note_off,152,0,0,,4,,,76,127
1461,note_off,0,0,0,,8,,,56,127
1463,note_on,2,0,0,,4,,,52,127
1463,note_on,0,0,0,,2,,,74,127
1615,note_off,152,0,0,,2,,,74,127
1617,note_on,2,0,0,,1,,,73,127
1769,note_off,152,0,0,,1,,,73,127
1771,note_on,2,0,0,,12,,,71,127
1915,note_off,144,0,0,,12,,,71,127
1923,note_off,8,0,0,,4,,,52,127
1925,note_on,2,0,0,,10,,,57,127
1925,note_on,0,0,0,,1,,,73,127
2077,note_off,152,0,0,,1,,,73,127
2079,note_on,2,0,0,,10,,,81,127
2231,note_off,152,0,0,,10,,,81,127
2233,note_on,2,0,0,,4,,,76,127
2385,note_off,152,0,0,,10,,,57,127
2387,note_on,2,0,0,,1,,,49,127
2539,note_off,152,0,0,,4,,,76,127
2541,note_on,2,0,0,,4,,,76,127
2616,note_off,75,0,0,,4,,,76,127
2618,note_on,2,0,0,,2,,,74,127
2693,note_off,75,0,0,,2,,,74,127
2695,note_on,2,0,0,,1,,,73,127
2847,note_off,152,0,0,,1,,,73,127
2847,note_off,0,0,0,,1,,,49,127
2849,note_on,2,0,0,,2,,,50,127
2849,note_on,0,0,0,,2,,,74,127
3001,note_off,152,0,0,,2,,,74,127
3003,note_on,2,0,0,,6,,,78,127
3155,note_off,152,0,0,,6,,,78,127
3157,note_on,2,0,0,,2,,,74,127
3309,note_off,152,0,0,,2,,,50,127
3311,note_on,2,0,0,,4,,,52,127
3463,note_off,152,0,0,,2,,,74,127
3465,note_on,2,0,0,,10,,,69,127
3465,note_on,0,0,0,,1,,,73,127
3617,note_off,152,0,0,,1,,,73,127
3617,note_off,0,0,0,,10,,,69,127
3619,note_on,2,0,0,,12,,,71,127
3619,note_on,0,0,0,,8,,,68,127
3767,note_off,148,0,0,,8,,,68,127
3767,note_off,0,0,0,,12,,,71,127
3771,note_off,4,0,0,,4,,,52,127
3773,note_on,2,0,0,,10,,,45,127
3773,note_on,0,0,0,,1,,,73,127
3927,note_on,154,0,0,,10,,,81,127
4077,note_off,150,0,0,,1,,,73,127
4079,note_off,2,0,0,,10,,,81,127
4081,note_on,2,0,0,,4,,,76,127
4233,note_off,152,0,0,,10,,,45,127
4235,note_on,2,0,0,,1,,,49,127
4387,note_off,152,0,0,,4,,,76,127
4389,note_on,2,0,0,,4,,,76,127
4464,note_off,75,0,0,,4,,,76,127
4466,note_on,2,0,0,,2,,,74,127
4541,note_off,75,0,0,,2,,,74,127
4543,note_on,2,0,0,,1,,,73,127
4695,note_off,152,0,0,,1,,,73,127
4695,note_off,0,0,0,,1,,,49,127
4697,note_on,2,0,0,,2,,,50,127
4697,note_on,0,0,0,,12,,,71,127
4851,note_on,154,0,0,,6,,,78,127
5001,note_off,150,0,0,,12,,,71,127
5003,note_off,2,0,0,,6,,,78,127
5005,note_on,2,0,0,,2,,,74,127
5157,note_off,152,0,0,,2,,,50,127
5159,note_on,2,0,0,,4,,,52,127
5311,note_off,152,0,0,,2,,,74,127
5313,note_on,2,0,0,,1,,,73,127
5313,note_on,0,0,0,,10,,,69,127
5465,note_off,152,0,0,,10,,,69,127
5465,note_off,0,0,0,,1,,,73,127
5467,note_on,2,0,0,,8,,,68,127
5467,note_on,0,0,0,,12,,,71,127
5619,note_off,152,0,0,,12,,,71,127
5619,note_off,0,0,0,,8,,,68,127
5619,note_off,0,0,0,,4,,,52,127
5621,note_on,2,0,0,,10,,,45,127
5621,note_on,0,0,0,,12,,,71,127
5621,note_on,0,0,0,,8,,,68,127
5927,note_off,306,0,0,,8,,,68,127
5927,note_off,0,0,0,,12,,,71,127
5929,note_on,2,0,0,,10,,,69,127
6081,note_off,152,0,0,,10,,,69,127
6102,note_off,21,0,0,,10,,,45,127
6102,note_on,0,0,0,,1,,,73,127
6102,note_on,0,0,0,,10,,,57,127
6177,note_off,75,0,0,,1,,,73,127
6179,note_on,2,0,0,,2,,,74,127
6254,note_off,75,0,0,,2,,,74,127
6254,note_off,0,0,0,,10,,,57,127
6256,note_on,2,0,0,,4,,,76,127
6256,note_on,0,0,0,,1,,,61,127
6408,note_off,152,0,0,,1,,,61,127
6410,note_on,2,0,0,,4,,,64,127
6562,note_off,152,0,0,,4,,,64,127
6564,note_on,2,0,0,,4,,,40,127
6716,note_off,152,0,0,,4,,,76,127
6718,note_on,2,0,0,,2,,,74,127
6870,note_off,152,0,0,,2,,,74,127
6872,note_on,2,0,0,,12,,,71,127
7005,note_off,133,0,0,,4,,,40,127
7024,note_off,19,0,0,,12,,,71,127
7026,note_on,2,0,0,,12,,,71,127
7026,note_on,0,0,0,,10,,,57,127
7101,note_off,75,0,0,,12,,,71,127
7103,note_on,2,0,0,,10,,,69,127
7178,note_off,75,0,0,,10,,,69,127
7178,note_off,0,0,0,,10,,,57,127
7180,note_on,2,0,0,,8,,,68,127
7180,note_on,0,0,0,,1,,,61,127
7332,note_off,152,0,0,,1,,,61,127
7332,note_off,0,0,0,,8,,,68,127
7334,note_on,2,0,0,,10,,,69,127
7334,note_on,0,0,0,,4,,,64,127
7486,note_off,152,0,0,,4,,,64,127
7486,note_off,0,0,0,,10,,,69,127
7488,note_on,2,0,0,,10,,,69,127
7488,note_on,0,0,0,,4,,,40,127
7794,note_off,306,0,0,,10,,,69,127
7796,note_on,2,0,0,,12,,,71,127
7929,note_off,133,0,0,,4,,,40,127
7932,note_off,3,0,0,,12,,,71,127
7950,note_on,18,0,0,,1,,,73,127
7950,note_on,0,0,0,,10,,,57,127
8025,note_off,75,0,0,,1,,,73,127
8027,note_on,2,0,0,,2,,,74,127
8102,note_off,75,0,0,,2,,,74,127
8102,note_off,0,0,0,,10,,,57,127
8104,note_on,2,0,0,,4,,,76,127
8104,note_on,0,0,0,,1,,,61,127
8256,note_off,152,0,0,,1,,,61,127
8258,note_on,2,0,0,,4,,,64,127
8410,note_off,152,0,0,,4,,,64,127
8412,note_on,2,0,0,,4,,,40,127
8564,note_off,152,0,0,,4,,,76,127
8566,note_on,2,0,0,,12,,,83,127
8718,note_off,152,0,0,,12,,,83,127
8720,note_on,2,0,0,,2,,,74,127
8853,note_off,133,0,0,,4,,,40,127
8872,note_off,19,0,0,,2,,,74,127
8874,note_on,2,0,0,,2,,,74,127
8874,note_on,0,0,0,,10,,,57,127
8949,note_off,75,0,0,,2,,,74,127
8951,note_on,2,0,0,,1,,,73,127
9026,note_off,75,0,0,,1,,,73,127
9026,note_off,0,0,0,,10,,,57,127
9028,note_on,2,0,0,,12,,,71,127
9028,note_on,0,0,0,,1,,,61,127
9180,note_off,152,0,0,,1,,,61,127
9180,note_off,0,0,0,,12,,,71,127
9182,note_on,2,0,0,,10,,,69,127
9182,note_on,0,0,0,,4,,,64,127
9334,note_off,152,0,0,,4,,,64,127
9334,note_off,0,0,0,,10,,,69,127
9336,note_on,2,0,0,,10,,,69,127
9336,note_on,0,0,0,,4,,,40,127
9642,note_off,306,0,0,,10,,,69,127
9644,note_on,2,0,0,,12,,,71,127
9749,note_off,105,0,0,,4,,,40,127
9780,note_off,31,0,0,,12,,,71,127
9804,note_on,24,0,0,,8,,,80,127
9804,note_on,0,0,0,,4,,,52,127
9956,note_off,152,0,0,,4,,,52,127
9958,note_on,2,0,0,,4,,,64,127
10110,note_off,152,0,0,,4,,,64,127
10112,note_on,2,0,0,,8,,,68,127
10264,note_off,152,0,0,,8,,,68,127
10266,note_on,2,0,0,,3,,,51,127
10418,note_off,152,0,0,,3,,,51,127
10418,note_off,0,0,0,,8,,,80,127
10420,note_on,2,0,0,,6,,,78,127
10420,note_on,0,0,0,,3,,,63,127
10572,note_off,152,0,0,,3,,,63,127
10572,note_off,0,0,0,,6,,,78,127
10574,note_on,2,0,0,,3,,,75,127
10574,note_on,0,0,0,,6,,,66,127
10726,note_off,152,0,0,,6,,,66,127
10728,note_on,2,0,0,,1,,,49,127
10880,note_off,152,0,0,,1,,,49,127
10880,note_off,0,0,0,,3,,,75,127
10882,note_on,2,0,0,,4,,,76,127
10882,note_on,0,0,0,,1,,,61,127
11034,note_off,152,0,0,,1,,,61,127
11034,note_off,0,0,0,,4,,,76,127
11036,note_on,2,0,0,,1,,,73,127
11036,note_on,0,0,0,,4,,,64,127
11188,note_off,152,0,0,,4,,,64,127
11190,note_on,2,0,0,,12,,,47,127
11342,note_off,152,0,0,,12,,,47,127
11342,note_off,0,0,0,,1,,,73,127
11344,note_on,2,0,0,,3,,,75,127
11344,note_on,0,0,0,,12,,,59,127
11496,note_off,152,0,0,,12,,,59,127
11496,note_off,0,0,0,,3,,,75,127
11498,note_on,2,0,0,,12,,,71,127
11498,note_on,0,0,0,,3,,,63,127
11650,note_off,152,0,0,,3,,,63,127
11652,note_on,2,0,0,,10,,,45,127
11804,note_off,152,0,0,,10,,,45,127
11804,note_off,0,0,0,,12,,,71,127
11806,note_on,2,0,0,,1,,,73,127
11806,note_on,0,0,0,,10,,,57,127
11958,note_off,152,0,0,,10,,,57,127
11958,note_off,0,0,0,,1,,,73,127
11960,note_on,2,0,0,,10,,,69,127
11960,note_on,0,0,0,,1,,,61,127
12112,note_off,152,0,0,,1,,,61,127
12114,note_on,2,0,0,,8,,,44,127
12266,note_off,152,0,0,,8,,,44,127
12266,note_off,0,0,0,,10,,,69,127
12268,note_on,2,0,0,,12,,,71,127
12268,note_on,0,0,0,,8,,,56,127
12420,note_off,152,0,0,,8,,,56,127
12420,note_off,0,0,0,,12,,,71,127
12422,note_on,2,0,0,,8,,,68,127
12422,note_on,0,0,0,,12,,,59,127
12574,note_off,152,0,0,,12,,,59,127
12576,note_on,2,0,0,,6,,,42,127
12728,note_off,152,0,0,,6,,,42,127
12728,note_off,0,0,0,,8,,,68,127
12730,note_on,2,0,0,,10,,,69,127
12730,note_on,0,0,0,,6,,,54,127
12882,note_off,152,0,0,,6,,,54,127
12882,note_off,0,0,0,,10,,,69,127
12884,note_on,2,0,0,,6,,,66,127
12884,note_on,0,0,0,,10,,,57,127
13036,note_off,152,0,0,,10,,,57,127
13036,note_off,0,0,0,,6,,,66,127
13038,note_on,2,0,0,,8,,,68,127
13038,note_on,0,0,0,,4,,,40,127
13192,note_on,154,0,0,,4,,,64,127
13230,note_off,38,0,0,,8,,,68,127
13344,note_off,114,0,0,,4,,,64,127
13346,note_on,2,0,0,,8,,,68,127
13498,note_off,152,0,0,,8,,,68,127
13500,note_on,2,0,0,,12,,,71,127
13500,note_on,0,0,0,,4,,,52,127
13654,note_on,154,0,0,,4,,,76,127
13692,note_off,38,0,0,,12,,,71,127
13806,note_off,114,0,0,,4,,,76,127
13808,note_on,2,0,0,,12,,,71,127
13920,note_off,112,0,0,,4,,,40,127
13960,note_off,40,0,0,,12,,,71,127
13960,note_off,0,0,0,,4,,,52,127
13962,note_on,2,0,0,,1,,,73,127
13962,note_on,0,0,0,,10,,,45,127
14116,note_on,154,0,0,,1,,,85,127
14116,note_on,0,0,0,,10,,,81,127
14193,note_off,77,0,0,,1,,,73,127
14268,note_off,75,0,0,,10,,,81,127
14268,note_off,0,0,0,,1,,,85,127
14270,note_on,2,0,0,,8,,,80,127
14270,note_on,0,0,0,,12,,,83,127
14422,note_off,152,0,0,,12,,,83,127
14422,note_off,0,0,0,,8,,,80,127
14424,note_on,2,0,0,,10,,,81,127
14424,note_on,0,0,0,,6,,,78,127
14424,note_on,0,0,0,,10,,,57,127
14576,note_off,152,0,0,,6,,,78,127
14576,note_off,0,0,0,,10,,,81,127
14578,note_on,2,0,0,,4,,,76,127
14578,note_on,0,0,0,,8,,,80,127
14730,note_off,152,0,0,,8,,,80,127
14730,note_off,0,0,0,,4,,,76,127
14732,note_on,2,0,0,,3,,,75,127
14732,note_on,0,0,0,,6,,,78,127
14844,note_off,112,0,0,,10,,,45,127
14884,note_off,40,0,0,,6,,,78,127
14884,note_off,0,0,0,,3,,,75,127
14884,note_off,0,0,0,,10,,,57,127
14886,note_on,2,0,0,,8,,,68,127
14886,note_on,0,0,0,,12,,,59,127
14886,note_on,0,0,0,,4,,,52,127
14886,note_on,0,0,0,,8,,,56,127
14886,note_on,0,0,0,,12,,,47,127
15038,note_off,152,0,0,,8,,,68,127
15040,note_on,2,0,0,,12,,,71,127
15192,note_off,152,0,0,,12,,,71,127
15194,note_on,2,0,0,,4,,,76,127
15346,note_off,152,0,0,,4,,,76,127
15346,note_off,0,0,0,,12,,,47,127
15346,note_off,0,0,0,,8,,,56,127
15346,note_off,0,0,0,,4,,,52,127
15346,note_off,0,0,0,,12,,,59,127
15348,note_on,2,0,0,,6,,,66,127
15348,note_on,0,0,0,,6,,,54,127
15348,note_on,0,0,0,,12,,,47,127
15500,note_off,152,0,0,,6,,,66,127
15502,note_on,2,0,0,,10,,,69,127
15654,note_off,152,0,0,,10,,,69,127
15656,note_on,2,0,0,,3,,,75,127
15808,note_off,152,0,0,,3,,,75,127
15808,note_off,0,0,0,,12,,,47,127
15808,note_off,0,0,0,,6,,,54,127
15810,note_on,2,0,0,,3,,,75,127
15810,note_on,0,0,0,,4,,,52,127
15810,note_on,0,0,0,,4,,,40,127
16116,note_off,306,0,0,,3,,,75,127
16146,note_on,30,0,0,,4,,,76,127
16269,note_off,123,0,0,,4,,,40,127
16269,note_off,0,0,0,,4,,,52,127
16312,note_on,43,0,0,,12,,,71,127
16312,note_on,0,0,0,,7,,,67,127
16312,note_on,0,0,0,,4,,,64,127
16330,note_off,18,0,0,,4,,,76,127
16466,note_on,136,0,0,,7,,,79,127
16618,note_off,152,0,0,,7,,,79,127
16620,note_on,2,0,0,,6,,,78,127
16772,note_off,152,0,0,,6,,,78,127
16772,note_off,0,0,0,,4,,,64,127
16772,note_off,0,0,0,,7,,,67,127
16773,note_off,1,0,0,,12,,,71,127
16774,note_on,1,0,0,,10,,,81,127
16774,note_on,0,0,0,,4,,,64,127
16774,note_on,0,0,0,,0,,,60,127
16928,note_on,154,0,0,,3,,,75,127
17080,note_off,152,0,0,,3,,,75,127
17082,note_on,2,0,0,,4,,,76,127
17234,note_off,152,0,0,,4,,,76,127
17234,note_off,0,0,0,,0,,,60,127
17234,note_off,0,0,0,,4,,,64,127
17235,note_off,1,0,0,,10,,,81,127
17236,note_on,1,0,0,,0,,,84,127
17236,note_on,0,0,0,,0,,,60,127
17236,note_on,0,0,0,,4,,,64,127
17236,note_on,0,0,0,,10,,,69,127
17390,note_on,154,0,0,,3,,,75,127
17542,note_off,152,0,0,,3,,,75,127
17544,note_on,2,0,0,,4,,,76,127
17696,note_off,152,0,0,,4,,,76,127
17696,note_off,0,0,0,,10,,,69,127
17696,note_off,0,0,0,,4,,,64,127
17696,note_off,0,0,0,,0,,,60,127
17697,note_off,1,0,0,,0,,,84,127
17698,note_on,1,0,0,,11,,,82,127
17698,note_on,0,0,0,,12,,,47,127
17698,note_on,0,0,0,,12,,,59,127
17850,note_off,152,0,0,,11,,,82,127
17852,note_on,2,0,0,,12,,,83,127
18004,note_off,152,0,0,,12,,,83,127
18006,note_on,2,0,0,,6,,,78,127
18158,note_off,152,0,0,,6,,,78,127
18158,note_off,0,0,0,,12,,,59,127
18158,note_off,0,0,0,,12,,,47,127
18166,note_on,8,0,0,,7,,,67,127
18166,note_on,0,0,0,,4,,,64,127
18166,note_on,0,0,0,,12,,,71,127
18320,note_on,154,0,0,,7,,,79,127
18472,note_off,152,0,0,,7,,,79,127
18474,note_on,2,0,0,,6,,,78,127
18626,note_off,152,0,0,,6,,,78,127
18626,note_off,0,0,0,,4,,,64,127
18626,note_off,0,0,0,,7,,,67,127
18627,note_off,1,0,0,,12,,,71,127
18628,note_on,1,0,0,,4,,,64,127
18628,note_on,0,0,0,,0,,,60,127
18628,note_on,0,0,0,,10,,,81,127
18782,note_on,154,0,0,,3,,,75,127
18934,note_off,152,0,0,,3,,,75,127
18936,note_on,2,0,0,,4,,,76,127
19088,note_off,152,0,0,,4,,,76,127
19088,note_off,0,0,0,,0,,,60,127
19088,note_off,0,0,0,,4,,,64,127
19089,note_off,1,0,0,,10,,,81,127
19090,note_on,1,0,0,,0,,,60,127
19090,note_on,0,0,0,,10,,,69,127
19090,note_on,0,0,0,,4,,,64,127
19090,note_on,0,0,0,,0,,,84,127
19244,note_on,154,0,0,,3,,,75,127
19396,note_off,152,0,0,,3,,,75,127
19398,note_on,2,0,0,,4,,,76,127
19550,note_off,152,0,0,,4,,,76,127
19550,note_off,0,0,0,,4,,,64,127
19550,note_off,0,0,0,,10,,,69,127
19550,note_off,0,0,0,,0,,,60,127
19551,note_off,1,0,0,,0,,,84,127
19552,note_on,1,0,0,,12,,,59,127
19552,note_on,0,0,0,,12,,,47,127
19552,note_on,0,0,0,,11,,,82,127
19704,note_off,152,0,0,,11,,,82,127
19706,note_on,2,0,0,,12,,,83,127
19858,note_off,152,0,0,,12,,,83,127
19860,note_on,2,0,0,,6,,,78,127
20004,note_off,144,0,0,,12,,,47,127
20004,note_off,0,0,0,,12,,,59,127
20041,note_on,37,0,0,,8,,,80,127
20041,note_on,0,0,0,,4,,,52,127
20049,note_off,8,0,0,,6,,,78,127
20193,note_off,144,0,0,,4,,,52,127
20195,note_on,2,0,0,,4,,,64,127
20347,note_off,152,0,0,,4,,,64,127
20349,note_on,2,0,0,,8,,,68,127
20501,note_off,152,0,0,,8,,,68,127
20503,note_on,2,0,0,,3,,,51,127
20655,note_off,152,0,0,,3,,,51,127
20655,note_off,0,0,0,,8,,,80,127
20657,note_on,2,0,0,,6,,,78,127
20657,note_on,0,0,0,,3,,,63,127
20809,note_off,152,0,0,,3,,,63,127
20809,note_off,0,0,0,,6,,,78,127
20811,note_on,2,0,0,,3,,,75,127
20811,note_on,0,0,0,,6,,,66,127
20963,note_off,152,0,0,,6,,,66,127
20965,note_on,2,0,0,,1,,,49,127
21117,note_off,152,0,0,,1,,,49,127
21117,note_off,0,0,0,,3,,,75,127
21119,note_on,2,0,0,,4,,,76,127
21119,note_on,0,0,0,,1,,,61,127
21271,note_off,152,0,0,,1,,,61,127
21271,note_off,0,0,0,,4,,,76,127
21273,note_on,2,0,0,,1,,,73,127
21273,note_on,0,0,0,,4,,,64,127
21425,note_off,152,0,0,,4,,,64,127
21427,note_on,2,0,0,,12,,,47,127
21579,note_off,152,0,0,,12,,,47,127
21579,note_off,0,0,0,,1,,,73,127
21581,note_on,2,0,0,,6,,,78,127
21581,note_on,0,0,0,,3,,,63,127
21733,note_off,152,0,0,,3,,,63,127
21733,note_off,0,0,0,,6,,,78,127
21735,note_on,2,0,0,,3,,,75,127
21735,note_on,0,0,0,,6,,,66,127
21887,note_off,152,0,0,,6,,,66,127
21889,note_on,2,0,0,,10,,,45,127
22041,note_off,152,0,0,,10,,,45,127
22041,note_off,0,0,0,,3,,,75,127
22043,note_on,2,0,0,,6,,,78,127
22043,note_on,0,0,0,,3,,,63,127
22195,note_off,152,0,0,,3,,,63,127
22195,note_off,0,0,0,,6,,,78,127
22197,note_on,2,0,0,,3,,,75,127
22197,note_on,0,0,0,,6,,,66,127
22349,note_off,152,0,0,,6,,,66,127
22351,note_on,2,0,0,,8,,,44,127
22503,note_off,152,0,0,,8,,,44,127
22503,note_off,0,0,0,,3,,,75,127
22505,note_on,2,0,0,,8,,,80,127
22505,note_on,0,0,0,,4,,,64,127
22657,note_off,152,0,0,,4,,,64,127
22657,note_off,0,0,0,,8,,,80,127
22659,note_on,2,0,0,,4,,,76,127
22659,note_on,0,0,0,,8,,,68,127
22811,note_off,152,0,0,,8,,,68,127
22813,note_on,2,0,0,,6,,,42,127
22965,note_off,152,0,0,,6,,,42,127
22965,note_off,0,0,0,,4,,,76,127
22967,note_on,2,0,0,,10,,,81,127
22967,note_on,0,0,0,,6,,,66,127
23119,note_off,152,0,0,,6,,,66,127
23119,note_off,0,0,0,,10,,,81,127
23121,note_on,2,0,0,,6,,,78,127
23121,note_on,0,0,0,,10,,,69,127
23265,note_off,144,0,0,,10,,,69,127
23275,note_on,10,0,0,,4,,,40,127
23361,note_off,86,0,0,,6,,,78,127
23435,note_on,74,0,0,,12,,,83,127
23587,note_off,152,0,0,,12,,,83,127
23589,note_on,2,0,0,,8,,,80,127
23741,note_off,152,0,0,,8,,,80,127
23743,note_on,2,0,0,,4,,,76,127
23743,note_on,0,0,0,,4,,,52,127
23895,note_off,152,0,0,,4,,,76,127
23897,note_on,2,0,0,,12,,,71,127
24049,note_off,152,0,0,,12,,,71,127
24051,note_on,2,0,0,,3,,,75,127
24157,note_off,106,0,0,,4,,,40,127
24203,note_off,46,0,0,,3,,,75,127
24203,note_off,0,0,0,,4,,,52,127
24205,note_on,2,0,0,,1,,,73,127
24205,note_on,0,0,0,,10,,,45,127
24359,note_on,154,0,0,,1,,,85,127
24359,note_on,0,0,0,,10,,,81,127
24436,note_off,77,0,0,,1,,,73,127
24511,note_off,75,0,0,,10,,,81,127
24511,note_off,0,0,0,,1,,,85,127
24513,note_on,2,0,0,,12,,,83,127
24513,note_on,0,0,0,,8,,,80,127
24665,note_off,152,0,0,,8,,,80,127
24665,note_off,0,0,0,,12,,,83,127
24667,note_on,2,0,0,,10,,,81,127
24667,note_on,0,0,0,,6,,,78,127
24667,note_on,0,0,0,,10,,,57,127
24819,note_off,152,0,0,,6,,,78,127
24819,note_off,0,0,0,,10,,,81,127
24821,note_on,2,0,0,,8,,,80,127
24821,note_on,0,0,0,,4,,,76,127
24973,note_off,152,0,0,,4,,,76,127
24973,note_off,0,0,0,,8,,,80,127
24975,note_on,2,0,0,,3,,,75,127
24975,note_on,0,0,0,,6,,,78,127
25087,note_off,112,0,0,,10,,,45,127
25127,note_off,40,0,0,,6,,,78,127
25127,note_off,0,0,0,,3,,,75,127
25127,note_off,0,0,0,,10,,,57,127
25129,note_on,2,0,0,,8,,,68,127
25129,note_on,0,0,0,,12,,,59,127
25281,note_off,152,0,0,,8,,,68,127
25283,note_on,2,0,0,,12,,,71,127
25435,note_off,152,0,0,,12,,,71,127
25437,note_on,2,0,0,,4,,,76,127
25589,note_off,152,0,0,,4,,,76,127
25591,note_on,2,0,0,,6,,,66,127
25591,note_on,0,0,0,,12,,,47,127
25743,note_off,152,0,0,,6,,,66,127
25745,note_on,2,0,0,,10,,,69,127
25897,note_off,152,0,0,,10,,,69,127
25899,note_on,2,0,0,,3,,,75,127
26051,note_off,152,0,0,,3,,,75,127
26051,note_off,0,0,0,,12,,,47,127
26051,note_off,0,0,0,,12,,,59,127
26053,note_on,2,0,0,,3,,,75,127
26053,note_on,0,0,0,,4,,,40,127
26205,note_off,152,0,0,,4,,,40,127
26207,note_on,2,0,0,,8,,,44,127
26359,note_off,152,0,0,,8,,,44,127
26359,note_off,0,0,0,,3,,,75,127
26361,note_on,2,0,0,,4,,,76,127
26361,note_on,0,0,0,,12,,,47,127
26481,note_off,120,0,0,,4,,,76,127
26513,note_off,32,0,0,,12,,,47,127
26515,note_on,2,0,0,,8,,,80,127
26515,note_on,0,0,0,,4,,,52,127
26667,note_off,152,0,0,,4,,,52,127
26675,note_on,8,0,0,,4,,,64,127
26827,note_off,152,0,0,,4,,,64,127
26829,note_on,2,0,0,,8,,,68,127
26981,note_off,152,0,0,,8,,,68,127
26983,note_on,2,0,0,,3,,,51,127
27129,note_off,146,0,0,,8,,,80,127
27135,note_off,6,0,0,,3,,,51,127
27137,note_on,2,0,0,,6,,,78,127
27137,note_on,0,0,0,,3,,,63,127
27289,note_off,152,0,0,,3,,,63,127
27289,note_off,0,0,0,,6,,,78,127
27291,note_on,2,0,0,,3,,,75,127
27291,note_on,0,0,0,,6,,,66,127
27443,note_off,152,0,0,,6,,,66,127
27445,note_on,2,0,0,,1,,,49,127
27597,note_off,152,0,0,,1,,,49,127
27597,note_off,0,0,0,,3,,,75,127
27599,note_on,2,0,0,,4,,,76,127
27599,note_on,0,0,0,,1,,,61,127
27751,note_off,152,0,0,,1,,,61,127
27751,note_off,0,0,0,,4,,,76,127
27753,note_on,2,0,0,,1,,,73,127
27753,note_on,0,0,0,,4,,,64,127
27905,note_off,152,0,0,,4,,,64,127
27907,note_on,2,0,0,,12,,,47,127
28059,note_off,152,0,0,,12,,,47,127
28059,note_off,0,0,0,,1,,,73,127
28061,note_on,2,0,0,,6,,,78,127
28061,note_on,0,0,0,,3,,,63,127
28213,note_off,152,0,0,,3,,,63,127
28213,note_off,0,0,0,,6,,,78,127
28215,note_on,2,0,0,,3,,,75,127
28215,note_on,0,0,0,,6,,,66,127
28367,note_off,152,0,0,,6,,,66,127
28369,note_on,2,0,0,,10,,,45,127
28521,note_off,152,0,0,,10,,,45,127
28521,note_off,0,0,0,,3,,,75,127
28523,note_on,2,0,0,,6,,,78,127
28523,note_on,0,0,0,,3,,,63,127
28675,note_off,152,0,0,,3,,,63,127
28675,note_off,0,0,0,,6,,,78,127
28677,note_on,2,0,0,,3,,,75,127
28677,note_on,0,0,0,,6,,,66,127
28829,note_off,152,0,0,,6,,,66,127
28831,note_on,2,0,0,,8,,,44,127
28983,note_off,152,0,0,,8,,,44,127
28983,note_off,0,0,0,,3,,,75,127
28985,note_on,2,0,0,,8,,,80,127
28985,note_on,0,0,0,,4,,,64,127
29137,note_off,152,0,0,,4,,,64,127
29137,note_off,0,0,0,,8,,,80,127
29139,note_on,2,0,0,,4,,,76,127
29139,note_on,0,0,0,,8,,,68,127
29291,note_off,152,0,0,,8,,,68,127
29293,note_on,2,0,0,,6,,,42,127
29445,note_off,152,0,0,,6,,,42,127
29445,note_off,0,0,0,,4,,,76,127
29447,note_on,2,0,0,,10,,,81,127
29447,note_on,0,0,0,,6,,,66,127
29599,note_off,152,0,0,,6,,,66,127
29599,note_off,0,0,0,,10,,,81,127
29601,note_on,2,0,0,,6,,,78,127
29601,note_on,0,0,0,,10,,,69,127
29753,note_off,152,0,0,,10,,,69,127
29755,note_on,2,0,0,,4,,,40,127
29873,note_off,118,0,0,,6,,,78,127
29908,note_on,35,0,0,,12,,,83,127
30060,note_off,152,0,0,,12,,,83,127
30062,note_on,2,0,0,,8,,,80,127
30214,note_off,152,0,0,,8,,,80,127
30216,note_on,2,0,0,,4,,,76,127
30216,note_on,0,0,0,,4,,,52,127
30370,note_on,154,0,0,,12,,,71,127
30392,note_off,22,0,0,,4,,,76,127
30522,note_off,130,0,0,,12,,,71,127
30524,note_on,2,0,0,,3,,,75,127
30556,note_off,32,0,0,,4,,,40,127
30676,note_off,120,0,0,,3,,,75,127
30676,note_off,0,0,0,,4,,,52,127
30678,note_on,2,0,0,,1,,,73,127
30678,note_on,0,0,0,,10,,,45,127
30832,note_on,154,0,0,,10,,,81,127
30832,note_on,0,0,0,,1,,,85,127
30982,note_off,150,0,0,,1,,,73,127
30984,note_off,2,0,0,,1,,,85,127
30984,note_off,0,0,0,,10,,,81,127
30986,note_on,2,0,0,,8,,,80,127
30986,note_on,0,0,0,,12,,,83,127
31138,note_off,152,0,0,,12,,,83,127
31138,note_off,0,0,0,,8,,,80,127
31140,note_on,2,0,0,,10,,,81,127
31140,note_on,0,0,0,,6,,,78,127
31140,note_on,0,0,0,,10,,,57,127
31292,note_off,152,0,0,,6,,,78,127
31292,note_off,0,0,0,,10,,,81,127
31294,note_on,2,0,0,,8,,,80,127
31294,note_on,0,0,0,,4,,,76,127
31446,note_off,152,0,0,,4,,,76,127
31446,note_off,0,0,0,,8,,,80,127
31448,note_on,2,0,0,,3,,,75,127
31448,note_on,0,0,0,,6,,,78,127
31480,note_off,32,0,0,,10,,,45,127
31600,note_off,120,0,0,,6,,,78,127
31600,note_off,0,0,0,,3,,,75,127
31600,note_off,0,0,0,,10,,,57,127
31602,note_on,2,0,0,,8,,,68,127
31602,note_on,0,0,0,,12,,,59,127
31754,note_off,152,0,0,,8,,,68,127
31756,note_on,2,0,0,,12,,,71,127
31908,note_off,152,0,0,,12,,,71,127
31910,note_on,2,0,0,,4,,,76,127
32062,note_off,152,0,0,,4,,,76,127
32064,note_on,2,0,0,,6,,,66,127
32064,note_on,0,0,0,,12,,,47,127
32216,note_off,152,0,0,,6,,,66,127
32218,note_on,2,0,0,,10,,,69,127
32370,note_off,152,0,0,,10,,,69,127
32372,note_on,2,0,0,,3,,,75,127
32524,note_off,152,0,0,,3,,,75,127
32524,note_off,0,0,0,,12,,,47,127
32524,note_off,0,0,0,,12,,,59,127
32526,note_on,2,0,0,,4,,,76,127
32526,note_on,0,0,0,,4,,,40,127
32680,note_on,154,0,0,,12,,,83,127
32832,note_off,152,0,0,,12,,,83,127
32834,note_on,2,0,0,,8,,,80,127
32986,note_off,152,0,0,,8,,,80,127
32986,note_off,0,0,0,,4,,,40,127
32987,note_off,1,0,0,,4,,,76,127
32988,note_on,1,0,0,,4,,,76,127
32988,note_on,0,0,0,,4,,,52,127
33142,note_on,154,0,0,,12,,,71,127
33292,note_off,150,0,0,,4,,,76,127
33294,note_off,2,0,0,,12,,,71,127
33296,note_on,2,0,0,,0,,,72,127
33448,note_off,152,0,0,,4,,,52,127
33450,note_on,2,0,0,,10,,,45,127
33602,note_off,152,0,0,,0,,,72,127
33604,note_on,2,0,0,,1,,,73,127
33756,note_off,152,0,0,,1,,,73,127
33758,note_on,2,0,0,,3,,,75,127
33910,note_off,152,0,0,,10,,,45,127
33912,note_on,2,0,0,,10,,,57,127
34064,note_off,152,0,0,,3,,,75,127
34066,note_on,2,0,0,,4,,,76,127
34218,note_off,152,0,0,,4,,,76,127
34220,note_on,2,0,0,,10,,,69,127
34372,note_off,152,0,0,,10,,,69,127
34372,note_off,0,0,0,,10,,,57,127
34374,note_on,2,0,0,,8,,,68,127
34374,note_on,0,0,0,,12,,,59,127
34526,note_off,152,0,0,,8,,,68,127
34528,note_on,2,0,0,,12,,,71,127
34680,note_off,152,0,0,,12,,,71,127
34682,note_on,2,0,0,,4,,,64,127
34834,note_off,152,0,0,,4,,,64,127
34836,note_on,2,0,0,,8,,,68,127
34836,note_on,0,0,0,,12,,,47,127
34911,note_off,75,0,0,,8,,,68,127
34913,note_on,2,0,0,,6,,,66,127
34988,note_off,75,0,0,,6,,,66,127
34990,note_on,2,0,0,,4,,,64,127
35142,note_off,152,0,0,,4,,,64,127
35144,note_on,2,0,0,,3,,,63,127
35296,note_off,152,0,0,,3,,,63,127
35296,note_off,0,0,0,,12,,,47,127
35296,note_off,0,0,0,,12,,,59,127
35298,note_on,2,0,0,,3,,,63,127
35298,note_on,0,0,0,,4,,,52,127
35298,note_on,0,0,0,,4,,,40,127
35604,note_off,306,0,0,,3,,,63,127
35606,note_on,2,0,0,,4,,,64,127
36219,note_off,613,0,0,,4,,,40,127
36219,note_off,0,0,0,,4,,,52,127
36246,note_on,27,0,0,,4,,,52,127
36296,note_off,50,0,0,,4,,,64,127
36400,note_on,104,0,0,,4,,,64,127
36550,note_off,150,0,0,,4,,,52,127
36552,note_off,2,0,0,,4,,,64,127
36554,note_on,2,0,0,,2,,,50,127
36554,note_on,0,0,0,,2,,,62,127
36706,note_off,152,0,0,,2,,,62,127
36706,note_off,0,0,0,,2,,,50,127
36708,note_on,2,0,0,,0,,,60,127
36708,note_on,0,0,0,,0,,,48,127
36860,note_off,152,0,0,,0,,,48,127
36860,note_off,0,0,0,,0,,,60,127
36862,note_on,2,0,0,,12,,,47,127
36862,note_on,0,0,0,,12,,,59,127
37014,note_off,152,0,0,,12,,,59,127
37014,note_off,0,0,0,,12,,,47,127
37016,note_on,2,0,0,,10,,,57,127
37016,note_on,0,0,0,,10,,,45,127
37168,note_off,152,0,0,,10,,,45,127
37168,note_off,0,0,0,,10,,,57,127
37170,note_on,2,0,0,,7,,,55,127
37170,note_on,0,0,0,,7,,,43,127
37322,note_off,152,0,0,,7,,,43,127
37322,note_off,0,0,0,,7,,,55,127
37324,note_on,2,0,0,,5,,,53,127
37324,note_on,0,0,0,,5,,,41,127
37476,note_off,152,0,0,,5,,,41,127
37476,note_off,0,0,0,,5,,,53,127
37478,note_on,2,0,0,,4,,,40,127
37478,note_on,0,0,0,,4,,,52,127
37630,note_off,152,0,0,,4,,,52,127
37630,note_off,0,0,0,,4,,,40,127
37632,note_on,2,0,0,,5,,,53,127
37632,note_on,0,0,0,,5,,,41,127
37784,note_off,152,0,0,,5,,,41,127
37784,note_off,0,0,0,,5,,,53,127
37786,note_on,2,0,0,,0,,,36,127
37786,note_on,0,0,0,,0,,,48,127
37938,note_off,152,0,0,,0,,,48,127
37938,note_off,0,0,0,,0,,,36,127
37940,note_on,2,0,0,,2,,,50,127
37940,note_on,0,0,0,,2,,,38,127
38092,note_off,152,0,0,,2,,,38,127
38092,note_off,0,0,0,,2,,,50,127
38094,note_on,2,0,0,,4,,,52,127
38094,note_on,0,0,0,,4,,,40,127
38248,note_on,154,0,0,,4,,,76,127
38400,note_off,152,0,0,,4,,,76,127
38402,note_on,2,0,0,,12,,,71,127
38554,note_off,152,0,0,,12,,,71,127
38554,note_off,0,0,0,,4,,,40,127
38554,note_off,0,0,0,,4,,,52,127
38556,note_on,2,0,0,,0,,,72,127
38556,note_on,0,0,0,,10,,,57,127
38556,note_on,0,0,0,,0,,,60,127
38556,note_on,0,0,0,,4,,,52,127
38710,note_on,154,0,0,,10,,,69,127
38862,note_off,152,0,0,,10,,,69,127
38864,note_on,2,0,0,,3,,,63,127
39016,note_off,152,0,0,,3,,,63,127
39016,note_off,0,0,0,,4,,,52,127
39016,note_off,0,0,0,,0,,,60,127
39016,note_off,0,0,0,,10,,,57,127
39017,note_off,1,0,0,,0,,,72,127
39018,note_on,1,0,0,,12,,,71,127
39018,note_on,0,0,0,,4,,,64,127
39018,note_on,0,0,0,,8,,,68,127
39018,note_on,0,0,0,,12,,,59,127
39018,note_on,0,0,0,,4,,,52,127
39170,note_off,152,0,0,,12,,,71,127
39172,note_on,2,0,0,,4,,,76,127
39324,note_off,152,0,0,,4,,,76,127
39326,note_on,2,0,0,,12,,,71,127
39478,note_off,152,0,0,,12,,,71,127
39478,note_off,0,0,0,,4,,,52,127
39478,note_off,0,0,0,,12,,,59,127
39479,note_off,1,0,0,,8,,,68,127
39479,note_off,0,0,0,,4,,,64,127
39480,note_on,1,0,0,,0,,,72,127
39480,note_on,0,0,0,,0,,,60,127
39480,note_on,0,0,0,,4,,,52,127
39480,note_on,0,0,0,,10,,,57,127
39634,note_on,154,0,0,,10,,,69,127
39786,note_off,152,0,0,,10,,,69,127
39788,note_on,2,0,0,,3,,,63,127
39940,note_off,152,0,0,,3,,,63,127
39940,note_off,0,0,0,,10,,,57,127
39940,note_off,0,0,0,,4,,,52,127
39940,note_off,0,0,0,,0,,,60,127
39941,note_off,1,0,0,,0,,,72,127
39942,note_on,1,0,0,,12,,,71,127
39942,note_on,0,0,0,,8,,,68,127
39942,note_on,0,0,0,,4,,,64,127
39942,note_on,0,0,0,,12,,,59,127
39942,note_on,0,0,0,,4,,,52,127
40094,note_off,152,0,0,,12,,,71,127
40096,note_on,2,0,0,,4,,,76,127
40248,note_off,152,0,0,,4,,,76,127
40250,note_on,2,0,0,,2,,,74,127
40402,note_off,152,0,0,,2,,,74,127
40402,note_off,0,0,0,,4,,,52,127
40402,note_off,0,0,0,,12,,,59,127
40403,note_off,1,0,0,,4,,,64,127
40403,note_off,0,0,0,,8,,,68,127
40404,note_on,1,0,0,,1,,,73,127
40404,note_on,0,0,0,,4,,,64,127
40404,note_on,0,0,0,,4,,,52,127
40404,note_on,0,0,0,,7,,,55,127
40556,note_off,152,0,0,,1,,,73,127
40558,note_on,2,0,0,,2,,,74,127
40710,note_off,152,0,0,,2,,,74,127
40712,note_on,2,0,0,,4,,,76,127
40864,note_off,152,0,0,,4,,,76,127
40864,note_off,0,0,0,,7,,,55,127
40864,note_off,0,0,0,,4,,,52,127
40864,note_off,0,0,0,,4,,,64,127
40866,note_on,2,0,0,,2,,,74,127
40866,note_on,0,0,0,,2,,,62,127
40866,note_on,0,0,0,,5,,,53,127
40866,note_on,0,0,0,,10,,,57,127
41020,note_on,154,0,0,,10,,,81,127
41170,note_off,150,0,0,,2,,,74,127
41172,note_off,2,0,0,,10,,,81,127
41174,note_on,2,0,0,,2,,,74,127
41326,note_off,152,0,0,,2,,,74,127
41326,note_off,0,0,0,,10,,,57,127
41326,note_off,0,0,0,,5,,,53,127
41326,note_off,0,0,0,,2,,,62,127
41328,note_on,2,0,0,,1,,,73,127
41328,note_on,0,0,0,,4,,,64,127
41328,note_on,0,0,0,,4,,,52,127
41328,note_on,0,0,0,,7,,,55,127
41480,note_off,152,0,0,,1,,,73,127
41482,note_on,2,0,0,,2,,,74,127
41634,note_off,152,0,0,,2,,,74,127
41636,note_on,2,0,0,,4,,,76,127
41788,note_off,152,0,0,,4,,,76,127
41788,note_off,0,0,0,,7,,,55,127
41788,note_off,0,0,0,,4,,,52,127
41788,note_off,0,0,0,,4,,,64,127
41790,note_on,2,0,0,,2,,,74,127
41790,note_on,0,0,0,,10,,,57,127
41790,note_on,0,0,0,,2,,,62,127
41790,note_on,0,0,0,,5,,,53,127
41942,note_off,152,0,0,,5,,,53,127
41942,note_off,0,0,0,,2,,,62,127
41942,note_off,0,0,0,,10,,,57,127
41942,note_off,0,0,0,,2,,,74,127
41956,note_on,14,0,0,,10,,,57,127
41956,note_on,0,0,0,,10,,,69,127
42108,note_off,152,0,0,,10,,,69,127
42108,note_off,0,0,0,,10,,,57,127
42110,note_on,2,0,0,,7,,,55,127
42110,note_on,0,0,0,,7,,,67,127
42262,note_off,152,0,0,,7,,,67,127
42262,note_off,0,0,0,,7,,,55,127
42264,note_on,2,0,0,,5,,,53,127
42264,note_on,0,0,0,,5,,,65,127
42416,note_off,152,0,0,,5,,,65,127
42416,note_off,0,0,0,,5,,,53,127
42418,note_on,2,0,0,,4,,,52,127
42418,note_on,0,0,0,,4,,,64,127
42570,note_off,152,0,0,,4,,,64,127
42570,note_off,0,0,0,,4,,,52,127
42572,note_on,2,0,0,,2,,,62,127
42572,note_on,0,0,0,,2,,,50,127
42724,note_off,152,0,0,,2,,,50,127
42724,note_off,0,0,0,,2,,,62,127
42726,note_on,2,0,0,,0,,,48,127
42726,note_on,0,0,0,,0,,,60,127
42878,note_off,152,0,0,,0,,,60,127
42878,note_off,0,0,0,,0,,,48,127
42880,note_on,2,0,0,,11,,,46,127
42880,note_on,0,0,0,,11,,,58,127
43032,note_off,152,0,0,,11,,,58,127
43032,note_off,0,0,0,,11,,,46,127
43034,note_on,2,0,0,,10,,,57,127
43034,note_on,0,0,0,,10,,,45,127
43186,note_off,152,0,0,,10,,,45,127
43186,note_off,0,0,0,,10,,,57,127
43188,note_on,2,0,0,,11,,,46,127
43188,note_on,0,0,0,,11,,,58,127
43340,note_off,152,0,0,,11,,,58,127
43340,note_off,0,0,0,,11,,,46,127
43342,note_on,2,0,0,,5,,,41,127
43342,note_on,0,0,0,,5,,,53,127
43494,note_off,152,0,0,,5,,,53,127
43494,note_off,0,0,0,,5,,,41,127
43496,note_on,2,0,0,,7,,,55,127
43496,note_on,0,0,0,,7,,,43,127
43648,note_off,152,0,0,,7,,,43,127
43648,note_off,0,0,0,,7,,,55,127
43650,note_on,2,0,0,,10,,,45,127
43650,note_on,0,0,0,,10,,,57,127
43804,note_on,154,0,0,,10,,,81,127
43956,note_off,152,0,0,,10,,,81,127
43958,note_on,2,0,0,,4,,,76,127
44110,note_off,152,0,0,,4,,,76,127
44110,note_off,0,0,0,,10,,,57,127
44110,note_off,0,0,0,,10,,,45,127
44112,note_on,2,0,0,,10,,,57,127
44112,note_on,0,0,0,,5,,,65,127
44112,note_on,0,0,0,,2,,,62,127
44112,note_on,0,0,0,,5,,,77,127
44266,note_on,154,0,0,,2,,,74,127
44418,note_off,152,0,0,,2,,,74,127
44420,note_on,2,0,0,,8,,,68,127
44572,note_off,152,0,0,,8,,,68,127
44572,note_off,0,0,0,,2,,,62,127
44572,note_off,0,0,0,,5,,,65,127
44572,note_off,0,0,0,,10,,,57,127
44573,note_off,1,0,0,,5,,,77,127
44574,note_on,1,0,0,,4,,,64,127
44574,note_on,0,0,0,,10,,,57,127
44574,note_on,0,0,0,,10,,,69,127
44574,note_on,0,0,0,,1,,,73,127
44574,note_on,0,0,0,,4,,,76,127
44726,note_off,152,0,0,,4,,,76,127
44728,note_on,2,0,0,,10,,,81,127
44880,note_off,152,0,0,,10,,,81,127
44882,note_on,2,0,0,,4,,,76,127
45034,note_off,152,0,0,,4,,,76,127
45034,note_off,0,0,0,,10,,,57,127
45034,note_off,0,0,0,,4,,,64,127
45035,note_off,1,0,0,,1,,,73,127
45035,note_off,0,0,0,,10,,,69,127
45036,note_on,1,0,0,,10,,,57,127
45036,note_on,0,0,0,,5,,,65,127
45036,note_on,0,0,0,,2,,,62,127
45036,note_on,0,0,0,,5,,,77,127
45190,note_on,154,0,0,,2,,,74,127
45342,note_off,152,0,0,,2,,,74,127
45344,note_on,2,0,0,,8,,,68,127
45496,note_off,152,0,0,,8,,,68,127
45496,note_off,0,0,0,,2,,,62,127
45496,note_off,0,0,0,,5,,,65,127
45496,note_off,0,0,0,,10,,,57,127
45497,note_off,1,0,0,,5,,,77,127
45498,note_on,1,0,0,,4,,,64,127
45498,note_on,0,0,0,,10,,,57,127
45498,note_on,0,0,0,,1,,,73,127
45498,note_on,0,0,0,,4,,,76,127
45498,note_on,0,0,0,,10,,,69,127
45650,note_off,152,0,0,,4,,,76,127
45652,note_on,2,0,0,,10,,,81,127
45804,note_off,152,0,0,,10,,,81,127
45806,note_on,2,0,0,,7,,,79,127
45958,note_off,152,0,0,,7,,,79,127
45958,note_off,0,0,0,,10,,,57,127
45958,note_off,0,0,0,,4,,,64,127
45959,note_off,1,0,0,,10,,,69,127
45959,note_off,0,0,0,,1,,,73,127
45960,note_on,1,0,0,,10,,,69,127
45960,note_on,0,0,0,,0,,,60,127
45960,note_on,0,0,0,,10,,,57,127
45960,note_on,0,0,0,,6,,,78,127
46112,note_off,152,0,0,,6,,,78,127
46114,note_on,2,0,0,,7,,,79,127
46266,note_off,152,0,0,,7,,,79,127
46268,note_on,2,0,0,,10,,,81,127
46420,note_off,152,0,0,,10,,,81,127
46420,note_off,0,0,0,,10,,,57,127
46420,note_off,0,0,0,,0,,,60,127
46420,note_off,0,0,0,,10,,,69,127
46422,note_on,2,0,0,,11,,,58,127
46422,note_on,0,0,0,,7,,,67,127
46422,note_on,0,0,0,,2,,,62,127
46422,note_on,0,0,0,,7,,,79,127
46576,note_on,154,0,0,,2,,,86,127
46726,note_off,150,0,0,,7,,,79,127
46728,note_off,2,0,0,,2,,,86,127
46730,note_on,2,0,0,,7,,,79,127
46882,note_off,152,0,0,,7,,,79,127
46882,note_off,0,0,0,,2,,,62,127
46882,note_off,0,0,0,,7,,,67,127
46882,note_off,0,0,0,,11,,,58,127
46884,note_on,2,0,0,,10,,,69,127
46884,note_on,0,0,0,,10,,,57,127
46884,note_on,0,0,0,,0,,,60,127
46884,note_on,0,0,0,,2,,,62,127
46884,note_on,0,0,0,,6,,,78,127
47036,note_off,152,0,0,,6,,,78,127
47038,note_on,2,0,0,,7,,,79,127
47190,note_off,152,0,0,,7,,,79,127
47192,note_on,2,0,0,,10,,,81,127
47344,note_off,152,0,0,,10,,,81,127
47344,note_off,0,0,0,,2,,,62,127
47344,note_off,0,0,0,,0,,,60,127
47344,note_off,0,0,0,,10,,,57,127
47344,note_off,0,0,0,,10,,,69,127
47346,note_on,2,0,0,,2,,,62,127
47346,note_on,0,0,0,,11,,,58,127
47346,note_on,0,0,0,,7,,,67,127
47346,note_on,0,0,0,,7,,,79,127
47498,note_off,152,0,0,,7,,,79,127
47498,note_off,0,0,0,,7,,,67,127
47498,note_off,0,0,0,,11,,,58,127
47498,note_off,0,0,0,,2,,,62,127
47512,note_on,14,0,0,,11,,,58,127
47512,note_on,0,0,0,,11,,,70,127
47664,note_off,152,0,0,,11,,,70,127
47664,note_off,0,0,0,,11,,,58,127
47666,note_on,2,0,0,,10,,,57,127
47666,note_on,0,0,0,,10,,,69,127
47818,note_off,152,0,0,,10,,,69,127
47818,note_off,0,0,0,,10,,,57,127
47820,note_on,2,0,0,,7,,,67,127
47820,note_on,0,0,0,,7,,,55,127
47972,note_off,152,0,0,,7,,,55,127
47972,note_off,0,0,0,,7,,,67,127
47974,note_on,2,0,0,,5,,,65,127
47974,note_on,0,0,0,,5,,,53,127
48126,note_off,152,0,0,,5,,,53,127
48126,note_off,0,0,0,,5,,,65,127
48128,note_on,2,0,0,,3,,,51,127
48128,note_on,0,0,0,,3,,,63,127
48280,note_off,152,0,0,,3,,,63,127
48280,note_off,0,0,0,,3,,,51,127
48282,note_on,2,0,0,,2,,,62,127
48282,note_on,0,0,0,,2,,,50,127
48434,note_off,152,0,0,,2,,,50,127
48434,note_off,0,0,0,,2,,,62,127
48436,note_on,2,0,0,,0,,,60,127
48436,note_on,0,0,0,,0,,,48,127
48588,note_off,152,0,0,,0,,,48,127
48588,note_off,0,0,0,,0,,,60,127
48590,note_on,2,0,0,,11,,,58,127
48590,note_on,0,0,0,,11,,,46,127
48742,note_off,152,0,0,,11,,,46,127
48742,note_off,0,0,0,,11,,,58,127
48744,note_on,2,0,0,,8,,,56,127
48744,note_on,0,0,0,,8,,,44,127
48896,note_off,152,0,0,,8,,,44,127
48896,note_off,0,0,0,,8,,,56,127
48898,note_on,2,0,0,,7,,,55,127
48898,note_on,0,0,0,,7,,,43,127
49050,note_off,152,0,0,,7,,,43,127
49050,note_off,0,0,0,,7,,,55,127
49052,note_on,2,0,0,,5,,,53,127
49052,note_on,0,0,0,,5,,,41,127
49204,note_off,152,0,0,,5,,,41,127
49204,note_off,0,0,0,,5,,,53,127
49206,note_on,2,0,0,,3,,,51,127
49206,note_on,0,0,0,,3,,,39,127
49360,note_on,154,0,0,,11,,,82,127
49512,note_off,152,0,0,,11,,,82,127
49514,note_on,2,0,0,,3,,,75,127
49666,note_off,152,0,0,,3,,,75,127
49666,note_off,0,0,0,,3,,,39,127
49666,note_off,0,0,0,,3,,,51,127
49668,note_on,2,0,0,,3,,,75,127
49668,note_on,0,0,0,,3,,,51,127
49668,note_on,0,0,0,,3,,,39,127
49743,note_off,75,0,0,,3,,,75,127
49745,note_on,2,0,0,,1,,,73,127
49820,note_off,75,0,0,,1,,,73,127
49822,note_on,2,0,0,,0,,,72,127
49974,note_off,152,0,0,,0,,,72,127
49976,note_on,2,0,0,,1,,,73,127
50128,note_off,152,0,0,,1,,,73,127
50128,note_off,0,0,0,,3,,,39,127
50128,note_off,0,0,0,,3,,,51,127
50130,note_on,2,0,0,,0,,,72,127
50130,note_on,0,0,0,,0,,,60,127
50130,note_on,0,0,0,,11,,,58,127
50130,note_on,0,0,0,,4,,,52,127
50284,note_on,154,0,0,,11,,,82,127
50434,note_off,150,0,0,,0,,,72,127
50436,note_off,2,0,0,,11,,,82,127
50438,note_on,2,0,0,,8,,,80,127
50590,note_off,152,0,0,,8,,,80,127
50590,note_off,0,0,0,,4,,,52,127
50590,note_off,0,0,0,,11,,,58,127
50590,note_off,0,0,0,,0,,,60,127
50592,note_on,2,0,0,,8,,,80,127
50592,note_on,0,0,0,,11,,,82,127
50592,note_on,0,0,0,,0,,,60,127
50592,note_on,0,0,0,,11,,,58,127
50592,note_on,0,0,0,,4,,,52,127
50744,note_off,152,0,0,,11,,,82,127
50744,note_off,0,0,0,,8,,,80,127
50746,note_on,2,0,0,,7,,,79,127
50898,note_off,152,0,0,,7,,,79,127
50900,note_on,2,0,0,,5,,,77,127
51052,note_off,152,0,0,,5,,,77,127
51052,note_off,0,0,0,,4,,,52,127
51052,note_off,0,0,0,,11,,,58,127
51052,note_off,0,0,0,,0,,,60,127
51054,note_on,2,0,0,,5,,,77,127
51054,note_on,0,0,0,,4,,,76,127
51054,note_on,0,0,0,,0,,,60,127
51054,note_on,0,0,0,,4,,,52,127
51054,note_on,0,0,0,,11,,,58,127
51206,note_off,152,0,0,,4,,,76,127
51206,note_off,0,0,0,,5,,,77,127
51208,note_on,2,0,0,,1,,,73,127
51360,note_off,152,0,0,,1,,,73,127
51362,note_on,2,0,0,,0,,,72,127
51514,note_off,152,0,0,,0,,,72,127
51514,note_off,0,0,0,,11,,,58,127
51514,note_off,0,0,0,,4,,,52,127
51514,note_off,0,0,0,,0,,,60,127
51516,note_on,2,0,0,,1,,,73,127
51516,note_on,0,0,0,,3,,,75,127
51516,note_on,0,0,0,,0,,,60,127
51516,note_on,0,0,0,,4,,,52,127
51516,note_on,0,0,0,,11,,,58,127
51668,note_off,152,0,0,,3,,,75,127
51668,note_off,0,0,0,,1,,,73,127
51670,note_on,2,0,0,,0,,,72,127
51822,note_off,152,0,0,,0,,,72,127
51824,note_on,2,0,0,,11,,,70,127
51976,note_off,152,0,0,,11,,,70,127
51976,note_off,0,0,0,,11,,,58,127
51976,note_off,0,0,0,,4,,,52,127
51976,note_off,0,0,0,,0,,,60,127
51978,note_on,2,0,0,,10,,,69,127
51978,note_on,0,0,0,,5,,,53,127
51978,note_on,0,0,0,,0,,,60,127
52130,note_off,152,0,0,,10,,,69,127
52132,note_on,2,0,0,,0,,,84,127
52284,note_off,152,0,0,,0,,,84,127
52286,note_on,2,0,0,,5,,,77,127
52438,note_off,152,0,0,,5,,,77,127
52438,note_off,0,0,0,,0,,,60,127
52438,note_off,0,0,0,,5,,,53,127
52440,note_on,2,0,0,,5,,,77,127
52440,note_on,0,0,0,,0,,,60,127
52440,note_on,0,0,0,,5,,,53,127
52515,note_off,75,0,0,,5,,,77,127
52517,note_on,2,0,0,,3,,,75,127
52592,note_off,75,0,0,,3,,,75,127
52594,note_on,2,0,0,,2,,,74,127
52746,note_off,152,0,0,,2,,,74,127
52748,note_on,2,0,0,,3,,,75,127
52900,note_off,152,0,0,,3,,,75,127
52900,note_off,0,0,0,,5,,,53,127
52900,note_off,0,0,0,,0,,,60,127
52902,note_on,2,0,0,,2,,,74,127
52902,note_on,0,0,0,,0,,,60,127
52902,note_on,0,0,0,,2,,,62,127
52902,note_on,0,0,0,,6,,,54,127
53056,note_on,154,0,0,,0,,,84,127
53206,note_off,150,0,0,,2,,,74,127
53208,note_off,2,0,0,,0,,,84,127
53210,note_on,2,0,0,,11,,,82,127
53362,note_off,152,0,0,,11,,,82,127
53362,note_off,0,0,0,,6,,,54,127
53362,note_off,0,0,0,,2,,,62,127
53362,note_off,0,0,0,,0,,,60,127
53364,note_on,2,0,0,,0,,,84,127
53364,note_on,0,0,0,,11,,,82,127
53364,note_on,0,0,0,,2,,,62,127
53364,note_on,0,0,0,,0,,,60,127
53364,note_on,0,0,0,,6,,,54,127
53516,note_off,152,0,0,,11,,,82,127
53516,note_off,0,0,0,,0,,,84,127
53518,note_on,2,0,0,,10,,,81,127
53670,note_off,152,0,0,,10,,,81,127
53672,note_on,2,0,0,,7,,,79,127
53824,note_off,152,0,0,,7,,,79,127
53824,note_off,0,0,0,,6,,,54,127
53824,note_off,0,0,0,,0,,,60,127
53824,note_off,0,0,0,,2,,,62,127
53826,note_on,2,0,0,,7,,,79,127
53826,note_on,0,0,0,,10,,,81,127
53826,note_on,0,0,0,,2,,,62,127
53826,note_on,0,0,0,,0,,,60,127
53826,note_on,0,0,0,,6,,,54,127
53978,note_off,152,0,0,,10,,,81,127
53978,note_off,0,0,0,,7,,,79,127
53980,note_on,2,0,0,,6,,,78,127
54132,note_off,152,0,0,,6,,,78,127
54134,note_on,2,0,0,,3,,,75,127
54286,note_off,152,0,0,,3,,,75,127
54286,note_off,0,0,0,,6,,,54,127
54286,note_off,0,0,0,,0,,,60,127
54286,note_off,0,0,0,,2,,,62,127
54288,note_on,2,0,0,,6,,,78,127
54288,note_on,0,0,0,,3,,,75,127
54288,note_on,0,0,0,,0,,,60,127
54288,note_on,0,0,0,,2,,,62,127
54288,note_on,0,0,0,,6,,,54,127
54440,note_off,152,0,0,,3,,,75,127
54440,note_off,0,0,0,,6,,,78,127
54442,note_on,2,0,0,,2,,,74,127
54594,note_off,152,0,0,,2,,,74,127
54596,note_on,2,0,0,,0,,,72,127
54748,note_off,152,0,0,,0,,,72,127
54748,note_off,0,0,0,,6,,,54,127
54748,note_off,0,0,0,,2,,,62,127
54748,note_off,0,0,0,,0,,,60,127
54750,note_on,2,0,0,,12,,,71,127
54750,note_on,0,0,0,,7,,,55,127
54750,note_on,0,0,0,,2,,,62,127
54904,note_on,154,0,0,,12,,,83,127
55054,note_off,150,0,0,,12,,,71,127
55056,note_off,2,0,0,,12,,,83,127
55058,note_on,2,0,0,,7,,,79,127
55210,note_off,152,0,0,,7,,,79,127
55210,note_off,0,0,0,,2,,,62,127
55210,note_off,0,0,0,,7,,,55,127
55212,note_on,2,0,0,,7,,,79,127
55212,note_on,0,0,0,,7,,,55,127
55212,note_on,0,0,0,,2,,,62,127
55287,note_off,75,0,0,,7,,,79,127
55289,note_on,2,0,0,,5,,,77,127
55364,note_off,75,0,0,,5,,,77,127
55366,note_on,2,0,0,,4,,,76,127
55518,note_off,152,0,0,,4,,,76,127
55520,note_on,2,0,0,,5,,,77,127
55672,note_off,152,0,0,,5,,,77,127
55672,note_off,0,0,0,,2,,,62,127
55672,note_off,0,0,0,,7,,,55,127
55674,note_on,2,0,0,,4,,,76,127
55674,note_on,0,0,0,,4,,,64,127
55674,note_on,0,0,0,,8,,,56,127
55674,note_on,0,0,0,,2,,,62,127
55828,note_on,154,0,0,,2,,,86,127
55978,note_off,150,0,0,,4,,,76,127
55980,note_off,2,0,0,,2,,,86,127
55982,note_on,2,0,0,,0,,,84,127
56134,note_off,152,0,0,,0,,,84,127
56134,note_off,0,0,0,,2,,,62,127
56134,note_off,0,0,0,,8,,,56,127
56134,note_off,0,0,0,,4,,,64,127
56136,note_on,2,0,0,,0,,,84,127
56136,note_on,0,0,0,,2,,,86,127
56136,note_on,0,0,0,,2,,,62,127
56136,note_on,0,0,0,,4,,,64,127
56136,note_on,0,0,0,,8,,,56,127
56288,note_off,152,0,0,,2,,,86,127
56288,note_off,0,0,0,,0,,,84,127
56290,note_on,2,0,0,,12,,,83,127
56442,note_off,152,0,0,,12,,,83,127
56444,note_on,2,0,0,,10,,,81,127
56596,note_off,152,0,0,,10,,,81,127
56596,note_off,0,0,0,,8,,,56,127
56596,note_off,0,0,0,,4,,,64,127
56596,note_off,0,0,0,,2,,,62,127
56598,note_on,2,0,0,,10,,,81,127
56598,note_on,0,0,0,,12,,,83,127
56598,note_on,0,0,0,,4,,,64,127
56598,note_on,0,0,0,,2,,,62,127
56598,note_on,0,0,0,,8,,,56,127
56750,note_off,152,0,0,,12,,,83,127
56750,note_off,0,0,0,,10,,,81,127
56752,note_on,2,0,0,,8,,,80,127
56904,note_off,152,0,0,,8,,,80,127
56906,note_on,2,0,0,,5,,,77,127
57058,note_off,152,0,0,,5,,,77,127
57058,note_off,0,0,0,,8,,,56,127
57058,note_off,0,0,0,,2,,,62,127
57058,note_off,0,0,0,,4,,,64,127
57060,note_on,2,0,0,,7,,,79,127
57060,note_on,0,0,0,,5,,,77,127
57060,note_on,0,0,0,,4,,,64,127
57060,note_on,0,0,0,,2,,,62,127
57060,note_on,0,0,0,,8,,,56,127
57212,note_off,152,0,0,,5,,,77,127
57212,note_off,0,0,0,,7,,,79,127
57214,note_on,2,0,0,,4,,,76,127
57366,note_off,152,0,0,,4,,,76,127
57368,note_on,2,0,0,,2,,,74,127
57520,note_off,152,0,0,,8,,,56,127
57520,note_off,0,0,0,,2,,,62,127
57520,note_off,0,0,0,,4,,,64,127
57528,note_on,8,0,0,,1,,,73,127
57528,note_on,0,0,0,,10,,,57,127
57531,note_off,3,0,0,,2,,,74,127
57680,note_off,149,0,0,,10,,,57,127
57680,note_off,0,0,0,,1,,,73,127
57682,note_on,2,0,0,,2,,,74,127
57682,note_on,0,0,0,,12,,,59,127
57834,note_off,152,0,0,,12,,,59,127
57834,note_off,0,0,0,,2,,,74,127
57836,note_on,2,0,0,,4,,,76,127
57836,note_on,0,0,0,,1,,,61,127
57988,note_off,152,0,0,,1,,,61,127
57988,note_off,0,0,0,,4,,,76,127
57990,note_on,2,0,0,,4,,,76,127
57990,note_on,0,0,0,,2,,,50,127
58142,note_off,152,0,0,,2,,,50,127
58142,note_off,0,0,0,,4,,,76,127
58144,note_on,2,0,0,,6,,,78,127
58144,note_on,0,0,0,,2,,,62,127
58296,note_off,152,0,0,,2,,,62,127
58296,note_off,0,0,0,,6,,,78,127
58298,note_on,2,0,0,,8,,,80,127
58298,note_on,0,0,0,,6,,,66,127
58450,note_off,152,0,0,,6,,,66,127
58452,note_on,2,0,0,,1,,,49,127
58604,note_off,152,0,0,,1,,,49,127
58604,note_off,0,0,0,,8,,,80,127
58606,note_on,2,0,0,,10,,,81,127
58606,note_on,0,0,0,,1,,,61,127
58758,note_off,152,0,0,,1,,,61,127
58758,note_off,0,0,0,,10,,,81,127
58760,note_on,2,0,0,,4,,,76,127
58760,note_on,0,0,0,,4,,,64,127
58912,note_off,152,0,0,,4,,,64,127
58912,note_off,0,0,0,,4,,,76,127
58914,note_on,2,0,0,,4,,,76,127
58914,note_on,0,0,0,,12,,,47,127
58989,note_off,75,0,0,,4,,,76,127
58991,note_on,2,0,0,,2,,,74,127
59066,note_off,75,0,0,,2,,,74,127
59066,note_off,0,0,0,,12,,,47,127
59068,note_on,2,0,0,,1,,,73,127
59068,note_on,0,0,0,,12,,,59,127
59220,note_off,152,0,0,,12,,,59,127
59220,note_off,0,0,0,,1,,,73,127
59222,note_on,2,0,0,,2,,,74,127
59222,note_on,0,0,0,,2,,,62,127
59374,note_off,152,0,0,,2,,,62,127
59374,note_off,0,0,0,,2,,,74,127
59376,note_on,2,0,0,,1,,,73,127
59376,note_on,0,0,0,,10,,,45,127
59528,note_off,152,0,0,,10,,,45,127
59528,note_off,0,0,0,,1,,,73,127
59530,note_on,2,0,0,,2,,,74,127
59530,note_on,0,0,0,,10,,,57,127
59682,note_off,152,0,0,,10,,,57,127
59682,note_off,0,0,0,,2,,,74,127
59684,note_on,2,0,0,,4,,,76,127
59684,note_on,0,0,0,,1,,,61,127
59836,note_off,152,0,0,,1,,,61,127
59836,note_off,0,0,0,,4,,,76,127
59838,note_on,2,0,0,,4,,,76,127
59838,note_on,0,0,0,,2,,,50,127
59990,note_off,152,0,0,,2,,,50,127
59990,note_off,0,0,0,,4,,,76,127
59992,note_on,2,0,0,,6,,,78,127
59992,note_on,0,0,0,,2,,,62,127
60144,note_off,152,0,0,,2,,,62,127
60144,note_off,0,0,0,,6,,,78,127
60146,note_on,2,0,0,,8,,,80,127
60146,note_on,0,0,0,,6,,,66,127
60298,note_off,152,0,0,,6,,,66,127
60300,note_on,2,0,0,,1,,,49,127
60452,note_off,152,0,0,,1,,,49,127
60452,note_off,0,0,0,,8,,,80,127
60454,note_on,2,0,0,,10,,,81,127
60454,note_on,0,0,0,,1,,,61,127
60606,note_off,152,0,0,,1,,,61,127
60606,note_off,0,0,0,,10,,,81,127
60608,note_on,2,0,0,,4,,,76,127
60608,note_on,0,0,0,,4,,,64,127
60760,note_off,152,0,0,,4,,,64,127
60760,note_off,0,0,0,,4,,,76,127
60762,note_on,2,0,0,,4,,,76,127
60762,note_on,0,0,0,,12,,,47,127
60837,note_off,75,0,0,,4,,,76,127
60839,note_on,2,0,0,,2,,,74,127
60914,note_off,75,0,0,,2,,,74,127
60914,note_off,0,0,0,,12,,,47,127
60916,note_on,2,0,0,,1,,,73,127
60916,note_on,0,0,0,,12,,,59,127
61068,note_off,152,0,0,,12,,,59,127
61068,note_off,0,0,0,,1,,,73,127
61070,note_on,2,0,0,,2,,,74,127
61070,note_on,0,0,0,,2,,,62,127
61222,note_off,152,0,0,,2,,,62,127
61222,note_off,0,0,0,,2,,,74,127
61224,note_on,2,0,0,,2,,,74,127
61224,note_on,0,0,0,,10,,,45,127
61299,note_off,75,0,0,,2,,,74,127
61301,note_on,2,0,0,,1,,,73,127
61375,note_on,74,0,0,,2,,,74,127
61377,note_off,2,0,0,,1,,,73,127
61449,note_on,72,0,0,,1,,,73,127
61451,note_off,2,0,0,,2,,,74,127
61523,note_on,72,0,0,,2,,,74,127
61525,note_off,2,0,0,,1,,,73,127
61597,note_on,72,0,0,,1,,,73,127
61599,note_off,2,0,0,,2,,,74,127
61685,note_off,86,0,0,,1,,,73,127
61693,note_on,8,0,0,,1,,,85,127
61693,note_on,0,0,0,,10,,,57,127
61694,note_off,1,0,0,,10,,,45,127
61845,note_off,151,0,0,,10,,,57,127
61847,note_on,2,0,0,,10,,,69,127
61999,note_off,152,0,0,,10,,,69,127
62001,note_on,2,0,0,,1,,,73,127
62153,note_off,152,0,0,,1,,,73,127
62155,note_on,2,0,0,,8,,,56,127
62307,note_off,152,0,0,,8,,,56,127
62307,note_off,0,0,0,,1,,,85,127
62309,note_on,2,0,0,,12,,,83,127
62309,note_on,0,0,0,,8,,,68,127
62461,note_off,152,0,0,,8,,,68,127
62461,note_off,0,0,0,,12,,,83,127
62463,note_on,2,0,0,,8,,,80,127
62463,note_on,0,0,0,,12,,,71,127
62615,note_off,152,0,0,,12,,,71,127
62617,note_on,2,0,0,,6,,,54,127
62769,note_off,152,0,0,,6,,,54,127
62769,note_off,0,0,0,,8,,,80,127
62771,note_on,2,0,0,,10,,,81,127
62771,note_on,0,0,0,,6,,,66,127
62923,note_off,152,0,0,,6,,,66,127
62923,note_off,0,0,0,,10,,,81,127
62925,note_on,2,0,0,,6,,,78,127
62925,note_on,0,0,0,,10,,,69,127
63077,note_off,152,0,0,,10,,,69,127
63079,note_on,2,0,0,,4,,,52,127
63231,note_off,152,0,0,,4,,,52,127
63231,note_off,0,0,0,,6,,,78,127
63233,note_on,2,0,0,,12,,,83,127
63233,note_on,0,0,0,,4,,,64,127
63385,note_off,152,0,0,,4,,,64,127
63385,note_off,0,0,0,,12,,,83,127
63387,note_on,2,0,0,,8,,,80,127
63387,note_on,0,0,0,,8,,,68,127
63539,note_off,152,0,0,,8,,,68,127
63541,note_on,2,0,0,,2,,,50,127
63693,note_off,152,0,0,,2,,,50,127
63693,note_off,0,0,0,,8,,,80,127
63695,note_on,2,0,0,,12,,,83,127
63695,note_on,0,0,0,,8,,,68,127
63847,note_off,152,0,0,,8,,,68,127
63847,note_off,0,0,0,,12,,,83,127
63849,note_on,2,0,0,,8,,,80,127
63849,note_on,0,0,0,,12,,,71,127
64001,note_off,152,0,0,,12,,,71,127
64003,note_on,2,0,0,,1,,,49,127
64155,note_off,152,0,0,,1,,,49,127
64155,note_off,0,0,0,,8,,,80,127
64157,note_on,2,0,0,,1,,,85,127
64157,note_on,0,0,0,,10,,,69,127
64309,note_off,152,0,0,,10,,,69,127
64309,note_off,0,0,0,,1,,,85,127
64311,note_on,2,0,0,,10,,,81,127
64311,note_on,0,0,0,,1,,,73,127
64463,note_off,152,0,0,,1,,,73,127
64465,note_on,2,0,0,,12,,,47,127
64617,note_off,152,0,0,,12,,,47,127
64617,note_off,0,0,0,,10,,,81,127
64619,note_on,2,0,0,,2,,,86,127
64619,note_on,0,0,0,,12,,,71,127
64771,note_off,152,0,0,,12,,,71,127
64771,note_off,0,0,0,,2,,,86,127
64773,note_on,2,0,0,,12,,,83,127
64773,note_on,0,0,0,,2,,,74,127
64925,note_off,152,0,0,,2,,,74,127
64927,note_on,2,0,0,,10,,,45,127
65061,note_off,134,0,0,,12,,,83,127
65080,note_on,19,0,0,,1,,,85,127
65232,note_off,152,0,0,,1,,,85,127
65234,note_on,2,0,0,,8,,,80,127
65388,note_on,154,0,0,,10,,,57,127
65540,note_off,152,0,0,,8,,,80,127
65542,note_on,2,0,0,,10,,,81,127
65694,note_off,152,0,0,,10,,,81,127
65696,note_on,2,0,0,,4,,,76,127
65728,note_off,32,0,0,,10,,,45,127
65848,note_off,120,0,0,,4,,,76,127
65848,note_off,0,0,0,,10,,,57,127
65850,note_on,2,0,0,,5,,,77,127
65850,note_on,0,0,0,,2,,,50,127
66002,note_off,152,0,0,,5,,,77,127
66004,note_on,2,0,0,,6,,,78,127
66156,note_off,152,0,0,,6,,,78,127
66158,note_on,2,0,0,,1,,,73,127
66312,note_on,154,0,0,,2,,,62,127
66464,note_off,152,0,0,,1,,,73,127
66466,note_on,2,0,0,,2,,,74,127
66618,note_off,152,0,0,,2,,,74,127
66620,note_on,2,0,0,,12,,,71,127
66652,note_off,32,0,0,,2,,,50,127
66772,note_off,120,0,0,,2,,,62,127
66774,note_on,2,0,0,,4,,,64,127
66926,note_off,152,0,0,,12,,,71,127
66928,note_on,2,0,0,,4,,,76,127
67080,note_off,152,0,0,,4,,,76,127
67082,note_on,2,0,0,,10,,,69,127
67234,note_off,152,0,0,,10,,,69,127
67236,note_on,2,0,0,,1,,,73,127
67236,note_on,0,0,0,,4,,,52,127
67311,note_off,75,0,0,,1,,,73,127
67313,note_on,2,0,0,,12,,,71,127
67388,note_off,75,0,0,,12,,,71,127
67390,note_on,2,0,0,,10,,,69,127
67542,note_off,152,0,0,,10,,,69,127
67544,note_on,2,0,0,,8,,,68,127
67696,note_off,152,0,0,,8,,,68,127
67696,note_off,0,0,0,,4,,,52,127
67696,note_off,0,0,0,,4,,,64,127
67698,note_on,2,0,0,,8,,,68,127
67698,note_on,0,0,0,,10,,,45,127
67850,note_off,152,0,0,,10,,,45,127
67852,note_on,2,0,0,,1,,,49,127
68004,note_off,152,0,0,,1,,,49,127
68004,note_off,0,0,0,,8,,,68,127
68012,note_on,8,0,0,,4,,,52,127
68012,note_on,0,0,0,,10,,,69,127
68140,note_off,128,0,0,,10,,,69,127
68164,note_off,24,0,0,,4,,,52,127
68172,note_on,8,0,0,,10,,,57,127
68172,note_on,0,0,0,,1,,,85,127
68324,note_off,152,0,0,,10,,,57,127
68326,note_on,2,0,0,,10,,,69,127
68478,note_off,152,0,0,,10,,,69,127
68480,note_on,2,0,0,,1,,,73,127
68632,note_off,152,0,0,,1,,,73,127
68634,note_on,2,0,0,,8,,,56,127
68786,note_off,152,0,0,,8,,,56,127
68786,note_off,0,0,0,,1,,,85,127
68788,note_on,2,0,0,,8,,,68,127
68788,note_on,0,0,0,,12,,,83,127
68940,note_off,152,0,0,,12,,,83,127
68940,note_off,0,0,0,,8,,,68,127
68942,note_on,2,0,0,,12,,,71,127
68942,note_on,0,0,0,,8,,,80,127
69094,note_off,152,0,0,,12,,,71,127
69096,note_on,2,0,0,,6,,,54,127
69248,note_off,152,0,0,,6,,,54,127
69248,note_off,0,0,0,,8,,,80,127
69250,note_on,2,0,0,,6,,,66,127
69250,note_on,0,0,0,,10,,,81,127
69402,note_off,152,0,0,,10,,,81,127
69402,note_off,0,0,0,,6,,,66,127
69404,note_on,2,0,0,,10,,,69,127
69404,note_on,0,0,0,,6,,,78,127
69556,note_off,152,0,0,,10,,,69,127
69558,note_on,2,0,0,,4,,,52,127
69700,note_off,142,0,0,,6,,,78,127
69710,note_off,10,0,0,,4,,,52,127
69712,note_on,2,0,0,,4,,,64,127
69712,note_on,0,0,0,,12,,,83,127
69864,note_off,152,0,0,,12,,,83,127
69864,note_off,0,0,0,,4,,,64,127
69866,note_on,2,0,0,,8,,,68,127
69866,note_on,0,0,0,,8,,,80,127
70018,note_off,152,0,0,,8,,,68,127
70020,note_on,2,0,0,,2,,,50,127
70172,note_off,152,0,0,,2,,,50,127
70172,note_off,0,0,0,,8,,,80,127
70174,note_on,2,0,0,,8,,,68,127
70174,note_on,0,0,0,,12,,,83,127
70326,note_off,152,0,0,,12,,,83,127
70326,note_off,0,0,0,,8,,,68,127
70328,note_on,2,0,0,,12,,,71,127
70328,note_on,0,0,0,,8,,,80,127
70480,note_off,152,0,0,,12,,,71,127
70482,note_on,2,0,0,,1,,,49,127
70634,note_off,152,0,0,,1,,,49,127
70634,note_off,0,0,0,,8,,,80,127
70636,note_on,2,0,0,,10,,,69,127
70636,note_on,0,0,0,,1,,,85,127
70788,note_off,152,0,0,,1,,,85,127
70788,note_off,0,0,0,,10,,,69,127
70790,note_on,2,0,0,,1,,,73,127
70790,note_on,0,0,0,,10,,,81,127
70942,note_off,152,0,0,,1,,,73,127
70944,note_on,2,0,0,,12,,,47,127
71096,note_off,152,0,0,,12,,,47,127
71096,note_off,0,0,0,,10,,,81,127
71098,note_on,2,0,0,,12,,,71,127
71098,note_on,0,0,0,,2,,,86,127
71250,note_off,152,0,0,,2,,,86,127
71250,note_off,0,0,0,,12,,,71,127
71252,note_on,2,0,0,,2,,,74,127
71252,note_on,0,0,0,,12,,,83,127
71404,note_off,152,0,0,,2,,,74,127
71406,note_on,2,0,0,,10,,,45,127
71524,note_off,118,0,0,,12,,,83,127
71559,note_on,35,0,0,,1,,,85,127
71711,note_off,152,0,0,,1,,,85,127
71713,note_on,2,0,0,,8,,,80,127
71867,note_on,154,0,0,,10,,,57,127
72019,note_off,152,0,0,,8,,,80,127
72021,note_on,2,0,0,,10,,,81,127
72127,note_off,106,0,0,,10,,,45,127
72173,note_off,46,0,0,,10,,,81,127
72175,note_on,2,0,0,,4,,,76,127
72327,note_off,152,0,0,,4,,,76,127
72327,note_off,0,0,0,,10,,,57,127
72329,note_on,2,0,0,,2,,,50,127
72329,note_on,0,0,0,,5,,,77,127
72481,note_off,152,0,0,,5,,,77,127
72483,note_on,2,0,0,,6,,,78,127
72635,note_off,152,0,0,,6,,,78,127
72637,note_on,2,0,0,,1,,,73,127
72791,note_on,154,0,0,,2,,,62,127
72943,note_off,152,0,0,,1,,,73,127
72945,note_on,2,0,0,,2,,,74,127
73051,note_off,106,0,0,,2,,,50,127
73097,note_off,46,0,0,,2,,,74,127
73099,note_on,2,0,0,,12,,,71,127
73251,note_off,152,0,0,,2,,,62,127
73253,note_on,2,0,0,,4,,,52,127
73405,note_off,152,0,0,,12,,,71,127
73407,note_on,2,0,0,,4,,,76,127
73559,note_off,152,0,0,,4,,,76,127
73561,note_on,2,0,0,,10,,,69,127
73713,note_off,152,0,0,,10,,,69,127
73715,note_on,2,0,0,,4,,,40,127
73715,note_on,0,0,0,,1,,,73,127
73790,note_off,75,0,0,,1,,,73,127
73792,note_on,2,0,0,,12,,,71,127
73867,note_off,75,0,0,,12,,,71,127
73869,note_on,2,0,0,,10,,,69,127
74021,note_off,152,0,0,,10,,,69,127
74023,note_on,2,0,0,,8,,,68,127
74159,note_off,136,0,0,,8,,,68,127
74175,note_off,16,0,0,,4,,,40,127
74189,note_on,14,0,0,,10,,,45,127
74191,note_off,2,0,0,,4,,,52,127
74343,note_on,152,0,0,,10,,,81,127
74495,note_off,152,0,0,,10,,,81,127
74497,note_on,2,0,0,,4,,,76,127
74649,note_off,152,0,0,,4,,,76,127
74649,note_off,0,0,0,,10,,,45,127
74651,note_on,2,0,0,,1,,,73,127
74651,note_on,0,0,0,,1,,,49,127
74803,note_off,152,0,0,,1,,,73,127
74805,note_on,2,0,0,,10,,,69,127
74957,note_off,152,0,0,,10,,,69,127
74959,note_on,2,0,0,,4,,,64,127
75111,note_off,152,0,0,,4,,,64,127
75111,note_off,0,0,0,,1,,,49,127
75113,note_on,2,0,0,,12,,,59,127
75113,note_on,0,0,0,,2,,,38,127
75113,note_on,0,0,0,,2,,,50,127
75265,note_off,152,0,0,,12,,,59,127
75267,note_on,2,0,0,,6,,,66,127
75267,note_on,0,0,0,,2,,,62,127
75419,note_off,152,0,0,,2,,,62,127
75419,note_off,0,0,0,,6,,,66,127
75421,note_on,2,0,0,,4,,,64,127
75421,note_on,0,0,0,,1,,,61,127
75573,note_off,152,0,0,,1,,,61,127
75573,note_off,0,0,0,,4,,,64,127
75573,note_off,0,0,0,,2,,,50,127
75573,note_off,0,0,0,,2,,,38,127
75575,note_on,2,0,0,,2,,,62,127
75575,note_on,0,0,0,,12,,,59,127
75575,note_on,0,0,0,,4,,,40,127
75575,note_on,0,0,0,,4,,,52,127
75727,note_off,152,0,0,,12,,,59,127
75727,note_off,0,0,0,,2,,,62,127
75729,note_on,2,0,0,,10,,,57,127
75729,note_on,0,0,0,,1,,,61,127
75881,note_off,152,0,0,,1,,,61,127
75881,note_off,0,0,0,,10,,,57,127
75883,note_on,2,0,0,,8,,,56,127
75883,note_on,0,0,0,,12,,,59,127
76035,note_off,152,0,0,,12,,,59,127
76035,note_off,0,0,0,,4,,,40,127
76047,note_off,12,0,0,,8,,,56,127
76048,note_off,1,0,0,,4,,,52,127
76050,note_on,2,0,0,,10,,,45,127
76050,note_on,0,0,0,,10,,,57,127
76202,note_off,152,0,0,,10,,,57,127
76204,note_on,2,0,0,,4,,,76,127
76356,note_off,152,0,0,,4,,,76,127
76358,note_on,2,0,0,,1,,,73,127
76510,note_off,152,0,0,,1,,,73,127
76510,note_off,0,0,0,,10,,,45,127
76512,note_on,2,0,0,,1,,,37,127
76512,note_on,0,0,0,,1,,,49,127
76512,note_on,0,0,0,,10,,,69,127
76664,note_off,152,0,0,,10,,,69,127
76666,note_on,2,0,0,,4,,,64,127
76818,note_off,152,0,0,,4,,,64,127
76820,note_on,2,0,0,,1,,,61,127
76972,note_off,152,0,0,,1,,,61,127
76972,note_off,0,0,0,,1,,,49,127
76972,note_off,0,0,0,,1,,,37,127
76974,note_on,2,0,0,,2,,,50,127
76974,note_on,0,0,0,,2,,,38,127
76974,note_on,0,0,0,,12,,,59,127
77126,note_off,152,0,0,,12,,,59,127
77128,note_on,2,0,0,,6,,,66,127
77128,note_on,0,0,0,,2,,,62,127
77280,note_off,152,0,0,,2,,,62,127
77280,note_off,0,0,0,,6,,,66,127
77282,note_on,2,0,0,,1,,,61,127
77282,note_on,0,0,0,,4,,,64,127
77434,note_off,152,0,0,,4,,,64,127
77434,note_off,0,0,0,,1,,,61,127
77434,note_off,0,0,0,,2,,,38,127
77434,note_off,0,0,0,,2,,,50,127
77436,note_on,2,0,0,,4,,,40,127
77436,note_on,0,0,0,,4,,,52,127
77436,note_on,0,0,0,,12,,,59,127
77436,note_on,0,0,0,,2,,,62,127
77588,note_off,152,0,0,,2,,,62,127
77588,note_off,0,0,0,,12,,,59,127
77590,note_on,2,0,0,,10,,,57,127
77590,note_on,0,0,0,,1,,,61,127
77742,note_off,152,0,0,,1,,,61,127
77742,note_off,0,0,0,,10,,,57,127
77744,note_on,2,0,0,,8,,,56,127
77744,note_on,0,0,0,,12,,,59,127
77896,note_off,152,0,0,,12,,,59,127
77896,note_off,0,0,0,,8,,,56,127
77896,note_off,0,0,0,,4,,,52,127
77896,note_off,0,0,0,,4,,,40,127
77910,note_on,14,0,0,,12,,,59,127
77910,note_on,0,0,0,,10,,,45,127
77961,note_on,51,0,0,,10,,,57,127
77985,note_off,24,0,0,,12,,,59,127
78012,note_on,27,0,0,,12,,,59,127
78036,note_off,24,0,0,,10,,,57,127
78063,note_on,27,0,0,,10,,,57,127
78076,note_off,13,0,0,,12,,,59,127
79754,note_off,1678,0,0,,10,,,57,127
79754,note_off,0,0,0,,10,,,45,127
84480,end_of_track,4726,1,0,,,,,,
