tick,type,time,meta,track,program,channel,pitch,tempo,note,velocity
0,copyright,0,1,0,,,,,,
0,program_change,0,0,0,6,0,,,,
0,pitchwheel,0,0,0,,0,0,,,
0,program_change,0,0,0,6,1,,,,
0,pitchwheel,0,0,0,,1,-590,,,
0,program_change,0,0,0,6,2,,,,
0,pitchwheel,0,0,0,,2,-272,,,
0,program_change,0,0,0,6,3,,,,
0,pitchwheel,0,0,0,,3,-353,,,
0,program_change,0,0,0,6,4,,,,
0,pitchwheel,0,0,0,,4,-560,,,
0,program_change,0,0,0,6,5,,,,
0,pitchwheel,0,0,0,,5,-80,,,
0,program_change,0,0,0,6,6,,,,
0,pitchwheel,0,0,0,,6,-625,,,
0,program_change,0,0,0,6,7,,,,
0,pitchwheel,0,0,0,,7,-130,,,
0,program_change,0,0,0,6,8,,,,
0,pitchwheel,0,0,0,,8,-512,,,
0,program_change,0,0,0,6,10,,,,
0,pitchwheel,0,0,0,,10,-464,,,
0,program_change,0,0,0,6,11,,,,
0,pitchwheel,0,0,0,,11,-208,,,
0,program_change,0,0,0,6,12,,,,
0,pitchwheel,0,0,0,,12,-553,,,
0,set_tempo,0,1,0,,,,500000,,
79,note_on,79,0,0,,2,,,62,127
79,note_on,0,0,0,,5,,,65,127
141,note_off,62,0,0,,5,,,65,127
141,note_off,0,0,0,,2,,,62,127
143,note_on,2,0,0,,0,,,60,127
143,note_on,0,0,0,,4,,,64,127
205,note_off,62,0,0,,4,,,64,127
205,note_off,0,0,0,,0,,,60,127
207,note_on,2,0,0,,2,,,62,127
207,note_on,0,0,0,,5,,,65,127
269,note_off,62,0,0,,5,,,65,127
269,note_off,0,0,0,,2,,,62,127
271,note_on,2,0,0,,0,,,60,127
271,note_on,0,0,0,,4,,,64,127
333,note_off,62,0,0,,4,,,64,127
333,note_off,0,0,0,,0,,,60,127
335,note_on,2,0,0,,12,,,59,127
335,note_on,0,0,0,,2,,,62,127
396,note_off,61,0,0,,2,,,62,127
396,note_off,0,0,0,,12,,,59,127
398,note_on,2,0,0,,0,,,60,127
398,note_on,0,0,0,,4,,,64,127
555,note_off,157,0,0,,4,,,64,127
555,note_off,0,0,0,,0,,,60,127
557,note_on,2,0,0,,2,,,62,127
557,note_on,0,0,0,,5,,,65,127
714,note_off,157,0,0,,5,,,65,127
714,note_off,0,0,0,,2,,,62,127
716,note_on,2,0,0,,0,,,60,127
716,note_on,0,0,0,,4,,,64,127
716,note_on,0,0,0,,7,,,67,127
1032,note_off,316,0,0,,7,,,67,127
1032,note_off,0,0,0,,4,,,64,127
1034,note_on,2,0,0,,4,,,64,127
1034,note_on,0,0,0,,7,,,67,127
1350,note_off,316,0,0,,7,,,67,127
1350,note_off,0,0,0,,4,,,64,127
1351,note_off,1,0,0,,0,,,60,127
1352,note_on,1,0,0,,4,,,64,127
1352,note_on,0,0,0,,0,,,60,127
1352,note_on,0,0,0,,2,,,74,127
1414,note_off,62,0,0,,2,,,74,127
1416,note_on,2,0,0,,0,,,72,127
1478,note_off,62,0,0,,0,,,72,127
1480,note_on,2,0,0,,2,,,74,127
1542,note_off,62,0,0,,2,,,74,127
1544,note_on,2,0,0,,0,,,72,127
1606,note_off,62,0,0,,0,,,72,127
1606,note_off,0,0,0,,4,,,64,127
1608,note_on,2,0,0,,5,,,65,127
1608,note_on,0,0,0,,12,,,71,127
1669,note_off,61,0,0,,12,,,71,127
1669,note_off,0,0,0,,5,,,65,127
1671,note_on,2,0,0,,4,,,64,127
1671,note_on,0,0,0,,0,,,72,127
1828,note_off,157,0,0,,0,,,72,127
1828,note_off,0,0,0,,4,,,64,127
1830,note_on,2,0,0,,2,,,62,127
1830,note_on,0,0,0,,2,,,74,127
1987,note_off,157,0,0,,2,,,74,127
1987,note_off,0,0,0,,2,,,62,127
1988,note_off,1,0,0,,0,,,60,127
1989,note_on,1,0,0,,0,,,60,127
1989,note_on,0,0,0,,4,,,76,127
2305,note_off,316,0,0,,4,,,76,127
2305,note_off,0,0,0,,0,,,60,127
2307,note_on,2,0,0,,0,,,60,127
2307,note_on,0,0,0,,4,,,76,127
2623,note_off,316,0,0,,4,,,76,127
2623,note_off,0,0,0,,0,,,60,127
2625,note_on,2,0,0,,0,,,36,127
2625,note_on,0,0,0,,7,,,67,127
2625,note_on,0,0,0,,4,,,76,127
2941,note_off,316,0,0,,4,,,76,127
2941,note_off,0,0,0,,7,,,67,127
2941,note_off,0,0,0,,0,,,36,127
2943,note_on,2,0,0,,0,,,60,127
2943,note_on,0,0,0,,10,,,69,127
2943,note_on,0,0,0,,5,,,77,127
3259,note_off,316,0,0,,5,,,77,127
3259,note_off,0,0,0,,10,,,69,127
3259,note_off,0,0,0,,0,,,60,127
3261,note_on,2,0,0,,0,,,36,127
3261,note_on,0,0,0,,4,,,76,127
3261,note_on,0,0,0,,7,,,67,127
3577,note_off,316,0,0,,7,,,67,127
3577,note_off,0,0,0,,4,,,76,127
3577,note_off,0,0,0,,0,,,36,127
3579,note_on,2,0,0,,0,,,60,127
3579,note_on,0,0,0,,5,,,65,127
3579,note_on,0,0,0,,2,,,74,127
3895,note_off,316,0,0,,2,,,74,127
3895,note_off,0,0,0,,5,,,65,127
3895,note_off,0,0,0,,0,,,60,127
3897,note_on,2,0,0,,0,,,36,127
3897,note_on,0,0,0,,4,,,76,127
3897,note_on,0,0,0,,7,,,67,127
4107,note_off,210,0,0,,7,,,67,127
4107,note_off,0,0,0,,4,,,76,127
4109,note_on,2,0,0,,5,,,65,127
4109,note_on,0,0,0,,2,,,74,127
4213,note_off,104,0,0,,2,,,74,127
4213,note_off,0,0,0,,5,,,65,127
4215,note_on,2,0,0,,4,,,64,127
4215,note_on,0,0,0,,0,,,72,127
4425,note_off,210,0,0,,0,,,72,127
4425,note_off,0,0,0,,4,,,64,127
4427,note_on,2,0,0,,2,,,62,127
4427,note_on,0,0,0,,12,,,71,127
4531,note_off,104,0,0,,12,,,71,127
4531,note_off,0,0,0,,2,,,62,127
4533,note_on,2,0,0,,12,,,71,127
4533,note_on,0,0,0,,2,,,62,127
4849,note_off,316,0,0,,2,,,62,127
4849,note_off,0,0,0,,12,,,71,127
4851,note_on,2,0,0,,4,,,64,127
4851,note_on,0,0,0,,0,,,72,127
5116,note_off,265,0,0,,0,,,72,127
5133,note_off,17,0,0,,4,,,64,127
5168,note_off,35,0,0,,0,,,36,127
5183,note_on,15,0,0,,2,,,74,127
5183,note_on,0,0,0,,5,,,65,127
5183,note_on,0,0,0,,0,,,60,127
5245,note_off,62,0,0,,5,,,65,127
5245,note_off,0,0,0,,2,,,74,127
5247,note_on,2,0,0,,0,,,72,127
5247,note_on,0,0,0,,4,,,64,127
5309,note_off,62,0,0,,4,,,64,127
5309,note_off,0,0,0,,0,,,72,127
5311,note_on,2,0,0,,2,,,74,127
5311,note_on,0,0,0,,5,,,65,127
5373,note_off,62,0,0,,5,,,65,127
5373,note_off,0,0,0,,2,,,74,127
5375,note_on,2,0,0,,0,,,72,127
5375,note_on,0,0,0,,4,,,64,127
5437,note_off,62,0,0,,4,,,64,127
5437,note_off,0,0,0,,0,,,72,127
5439,note_on,2,0,0,,12,,,71,127
5439,note_on,0,0,0,,2,,,62,127
5500,note_off,61,0,0,,2,,,62,127
5500,note_off,0,0,0,,12,,,71,127
5502,note_on,2,0,0,,0,,,72,127
5502,note_on,0,0,0,,4,,,64,127
5659,note_off,157,0,0,,4,,,64,127
5659,note_off,0,0,0,,0,,,72,127
5661,note_on,2,0,0,,2,,,74,127
5661,note_on,0,0,0,,5,,,65,127
5818,note_off,157,0,0,,5,,,65,127
5818,note_off,0,0,0,,2,,,74,127
5820,note_on,2,0,0,,4,,,76,127
5820,note_on,0,0,0,,7,,,67,127
6136,note_off,316,0,0,,7,,,67,127
6136,note_off,0,0,0,,4,,,76,127
6138,note_on,2,0,0,,4,,,76,127
6138,note_on,0,0,0,,7,,,67,127
6451,note_off,313,0,0,,0,,,60,127
6454,note_off,3,0,0,,7,,,67,127
6454,note_off,0,0,0,,4,,,76,127
6456,note_on,2,0,0,,5,,,77,127
6456,note_on,0,0,0,,10,,,69,127
6456,note_on,0,0,0,,0,,,60,127
6518,note_off,62,0,0,,10,,,69,127
6518,note_off,0,0,0,,5,,,77,127
6520,note_on,2,0,0,,4,,,76,127
6520,note_on,0,0,0,,7,,,67,127
6582,note_off,62,0,0,,7,,,67,127
6582,note_off,0,0,0,,4,,,76,127
6584,note_on,2,0,0,,5,,,77,127
6584,note_on,0,0,0,,10,,,69,127
6646,note_off,62,0,0,,10,,,69,127
6646,note_off,0,0,0,,5,,,77,127
6648,note_on,2,0,0,,4,,,76,127
6648,note_on,0,0,0,,7,,,67,127
6710,note_off,62,0,0,,7,,,67,127
6710,note_off,0,0,0,,4,,,76,127
6712,note_on,2,0,0,,2,,,74,127
6712,note_on,0,0,0,,10,,,69,127
6773,note_off,61,0,0,,10,,,69,127
6773,note_off,0,0,0,,2,,,74,127
6775,note_on,2,0,0,,4,,,76,127
6775,note_on,0,0,0,,7,,,67,127
6932,note_off,157,0,0,,7,,,67,127
6932,note_off,0,0,0,,4,,,76,127
6934,note_on,2,0,0,,5,,,77,127
6934,note_on,0,0,0,,5,,,65,127
7091,note_off,157,0,0,,5,,,65,127
7091,note_off,0,0,0,,5,,,77,127
7093,note_on,2,0,0,,7,,,79,127
7093,note_on,0,0,0,,4,,,64,127
7409,note_off,316,0,0,,4,,,64,127
7409,note_off,0,0,0,,7,,,79,127
7411,note_on,2,0,0,,7,,,79,127
7411,note_on,0,0,0,,4,,,64,127
7724,note_off,313,0,0,,0,,,60,127
7727,note_off,3,0,0,,4,,,64,127
7727,note_off,0,0,0,,7,,,79,127
7729,note_on,2,0,0,,7,,,79,127
7729,note_on,0,0,0,,4,,,76,127
7729,note_on,0,0,0,,0,,,36,127
8045,note_off,316,0,0,,0,,,36,127
8045,note_off,0,0,0,,4,,,76,127
8045,note_off,0,0,0,,7,,,79,127
8047,note_on,2,0,0,,5,,,77,127
8047,note_on,0,0,0,,10,,,81,127
8047,note_on,0,0,0,,0,,,60,127
8363,note_off,316,0,0,,0,,,60,127
8363,note_off,0,0,0,,10,,,81,127
8363,note_off,0,0,0,,5,,,77,127
8365,note_on,2,0,0,,7,,,79,127
8365,note_on,0,0,0,,4,,,76,127
8365,note_on,0,0,0,,0,,,36,127
8681,note_off,316,0,0,,0,,,36,127
8681,note_off,0,0,0,,4,,,76,127
8681,note_off,0,0,0,,7,,,79,127
8683,note_on,2,0,0,,5,,,77,127
8683,note_on,0,0,0,,2,,,74,127
8683,note_on,0,0,0,,0,,,60,127
8999,note_off,316,0,0,,0,,,60,127
8999,note_off,0,0,0,,2,,,74,127
8999,note_off,0,0,0,,5,,,77,127
9001,note_on,2,0,0,,7,,,79,127
9001,note_on,0,0,0,,4,,,76,127
9001,note_on,0,0,0,,0,,,36,127
9211,note_off,210,0,0,,4,,,76,127
9211,note_off,0,0,0,,7,,,79,127
9213,note_on,2,0,0,,5,,,77,127
9213,note_on,0,0,0,,2,,,74,127
9317,note_off,104,0,0,,2,,,74,127
9317,note_off,0,0,0,,5,,,77,127
9319,note_on,2,0,0,,4,,,76,127
9319,note_on,0,0,0,,0,,,72,127
9529,note_off,210,0,0,,0,,,72,127
9529,note_off,0,0,0,,4,,,76,127
9531,note_on,2,0,0,,2,,,74,127
9531,note_on,0,0,0,,12,,,71,127
9635,note_off,104,0,0,,12,,,71,127
9635,note_off,0,0,0,,2,,,74,127
9637,note_on,2,0,0,,2,,,74,127
9637,note_on,0,0,0,,12,,,71,127
9953,note_off,316,0,0,,12,,,71,127
9953,note_off,0,0,0,,2,,,74,127
9955,note_off,2,0,0,,0,,,36,127
9955,note_on,0,0,0,,4,,,76,127
9955,note_on,0,0,0,,0,,,72,127
10236,note_off,281,0,0,,4,,,76,127
10271,note_off,35,0,0,,0,,,72,127
10286,note_on,15,0,0,,2,,,74,127
10348,note_off,62,0,0,,2,,,74,127
10350,note_on,2,0,0,,0,,,72,127
10412,note_off,62,0,0,,0,,,72,127
10414,note_on,2,0,0,,2,,,74,127
10476,note_off,62,0,0,,2,,,74,127
10478,note_on,2,0,0,,0,,,72,127
10540,note_off,62,0,0,,0,,,72,127
10542,note_on,2,0,0,,12,,,71,127
10603,note_off,61,0,0,,12,,,71,127
10605,note_on,2,0,0,,0,,,72,127
10762,note_off,157,0,0,,0,,,72,127
10764,note_on,2,0,0,,2,,,74,127
10921,note_off,157,0,0,,2,,,74,127
10923,note_on,2,0,0,,4,,,76,127
11239,note_off,316,0,0,,4,,,76,127
11241,note_on,2,0,0,,4,,,76,127
11557,note_off,316,0,0,,4,,,76,127
11559,note_on,2,0,0,,7,,,67,127
11559,note_on,0,0,0,,0,,,60,127
11559,note_on,0,0,0,,5,,,77,127
11621,note_off,62,0,0,,5,,,77,127
11623,note_on,2,0,0,,4,,,76,127
11685,note_off,62,0,0,,4,,,76,127
11687,note_on,2,0,0,,5,,,77,127
11749,note_off,62,0,0,,5,,,77,127
11751,note_on,2,0,0,,4,,,76,127
11813,note_off,62,0,0,,4,,,76,127
11815,note_on,2,0,0,,2,,,74,127
11876,note_off,61,0,0,,2,,,74,127
11876,note_off,0,0,0,,0,,,60,127
11876,note_off,0,0,0,,7,,,67,127
11878,note_on,2,0,0,,0,,,60,127
11878,note_on,0,0,0,,7,,,67,127
11878,note_on,0,0,0,,4,,,76,127
12035,note_off,157,0,0,,4,,,76,127
12037,note_on,2,0,0,,5,,,77,127
12194,note_off,157,0,0,,5,,,77,127
12194,note_off,0,0,0,,7,,,67,127
12194,note_off,0,0,0,,0,,,60,127
12196,note_on,2,0,0,,0,,,60,127
12196,note_on,0,0,0,,7,,,67,127
12196,note_on,0,0,0,,7,,,79,127
12512,note_off,316,0,0,,7,,,79,127
12512,note_off,0,0,0,,7,,,67,127
12512,note_off,0,0,0,,0,,,60,127
12514,note_on,2,0,0,,0,,,60,127
12514,note_on,0,0,0,,7,,,67,127
12514,note_on,0,0,0,,7,,,79,127
12830,note_off,316,0,0,,7,,,79,127
12830,note_off,0,0,0,,7,,,67,127
12830,note_off,0,0,0,,0,,,60,127
12832,note_on,2,0,0,,11,,,58,127
12832,note_on,0,0,0,,7,,,67,127
12832,note_on,0,0,0,,10,,,81,127
12894,note_off,62,0,0,,10,,,81,127
12896,note_on,2,0,0,,7,,,79,127
12958,note_off,62,0,0,,7,,,79,127
12960,note_on,2,0,0,,10,,,81,127
13022,note_off,62,0,0,,10,,,81,127
13024,note_on,2,0,0,,7,,,79,127
13086,note_off,62,0,0,,7,,,79,127
13088,note_on,2,0,0,,5,,,77,127
13149,note_off,61,0,0,,5,,,77,127
13149,note_off,0,0,0,,7,,,67,127
13149,note_off,0,0,0,,11,,,58,127
13151,note_on,2,0,0,,11,,,58,127
13151,note_on,0,0,0,,7,,,67,127
13151,note_on,0,0,0,,7,,,79,127
13308,note_off,157,0,0,,7,,,79,127
13310,note_on,2,0,0,,10,,,81,127
13467,note_off,157,0,0,,10,,,81,127
13467,note_off,0,0,0,,7,,,67,127
13467,note_off,0,0,0,,11,,,58,127
13469,note_on,2,0,0,,11,,,58,127
13469,note_on,0,0,0,,7,,,67,127
13469,note_on,0,0,0,,11,,,82,127
13785,note_off,316,0,0,,11,,,82,127
13785,note_off,0,0,0,,7,,,67,127
13785,note_off,0,0,0,,11,,,58,127
13787,note_on,2,0,0,,7,,,67,127
13787,note_on,0,0,0,,11,,,58,127
13787,note_on,0,0,0,,11,,,82,127
14103,note_off,316,0,0,,11,,,82,127
14103,note_off,0,0,0,,11,,,58,127
14103,note_off,0,0,0,,7,,,67,127
14105,note_on,2,0,0,,10,,,57,127
14105,note_on,0,0,0,,5,,,65,127
14105,note_on,0,0,0,,0,,,84,127
14209,note_off,104,0,0,,0,,,84,127
14211,note_on,2,0,0,,11,,,82,127
14315,note_off,104,0,0,,11,,,82,127
14317,note_on,2,0,0,,10,,,81,127
14421,note_off,104,0,0,,10,,,81,127
14423,note_on,2,0,0,,7,,,79,127
14527,note_off,104,0,0,,7,,,79,127
14529,note_on,2,0,0,,5,,,77,127
14633,note_off,104,0,0,,5,,,77,127
14635,note_on,2,0,0,,4,,,76,127
14739,note_off,104,0,0,,4,,,76,127
14740,note_off,1,0,0,,5,,,65,127
14740,note_off,0,0,0,,10,,,57,127
14741,note_on,1,0,0,,4,,,76,127
15057,note_off,316,0,0,,4,,,76,127
15059,note_on,2,0,0,,5,,,77,127
15375,note_off,316,0,0,,5,,,77,127
15390,note_on,15,0,0,,5,,,77,127
15390,note_on,0,0,0,,7,,,79,127
15390,note_on,0,0,0,,5,,,65,127
15390,note_on,0,0,0,,10,,,57,127
15547,note_off,157,0,0,,7,,,79,127
15547,note_off,0,0,0,,5,,,77,127
15549,note_on,2,0,0,,4,,,76,127
15706,note_off,157,0,0,,4,,,76,127
15706,note_off,0,0,0,,10,,,57,127
15706,note_off,0,0,0,,5,,,65,127
15708,note_on,2,0,0,,5,,,77,127
15708,note_on,0,0,0,,5,,,65,127
15708,note_on,0,0,0,,10,,,57,127
15786,note_off,78,0,0,,5,,,77,127
15788,note_on,2,0,0,,8,,,80,127
15866,note_off,78,0,0,,8,,,80,127
15868,note_on,2,0,0,,10,,,81,127
15946,note_off,78,0,0,,10,,,81,127
15948,note_on,2,0,0,,12,,,83,127
16026,note_off,78,0,0,,12,,,83,127
16026,note_off,0,0,0,,10,,,57,127
16026,note_off,0,0,0,,5,,,65,127
16028,note_on,2,0,0,,5,,,77,127
16028,note_on,0,0,0,,5,,,65,127
16028,note_on,0,0,0,,10,,,57,127
16344,note_off,316,0,0,,10,,,57,127
16344,note_off,0,0,0,,5,,,65,127
16344,note_off,0,0,0,,5,,,77,127
16346,note_on,2,0,0,,4,,,76,127
16346,note_on,0,0,0,,7,,,55,127
16346,note_on,0,0,0,,4,,,64,127
16662,note_off,316,0,0,,4,,,64,127
16662,note_off,0,0,0,,7,,,55,127
16662,note_off,0,0,0,,4,,,76,127
16664,note_on,2,0,0,,2,,,74,127
16664,note_on,0,0,0,,4,,,76,127
16664,note_on,0,0,0,,2,,,62,127
16664,note_on,0,0,0,,5,,,53,127
16768,note_off,104,0,0,,4,,,76,127
16768,note_off,0,0,0,,2,,,74,127
16770,note_on,2,0,0,,1,,,73,127
16874,note_off,104,0,0,,1,,,73,127
16876,note_on,2,0,0,,2,,,74,127
16980,note_off,104,0,0,,2,,,74,127
16980,note_off,0,0,0,,5,,,53,127
16980,note_off,0,0,0,,2,,,62,127
16982,note_on,2,0,0,,1,,,73,127
16982,note_on,0,0,0,,2,,,62,127
16982,note_on,0,0,0,,5,,,53,127
17060,note_off,78,0,0,,1,,,73,127
17062,note_on,2,0,0,,2,,,74,127
17140,note_off,78,0,0,,2,,,74,127
17142,note_on,2,0,0,,4,,,76,127
17220,note_off,78,0,0,,4,,,76,127
17222,note_on,2,0,0,,5,,,77,127
17300,note_off,78,0,0,,5,,,77,127
17300,note_off,0,0,0,,5,,,53,127
17300,note_off,0,0,0,,2,,,62,127
17302,note_on,2,0,0,,2,,,74,127
17302,note_on,0,0,0,,2,,,62,127
17302,note_on,0,0,0,,5,,,53,127
17618,note_off,316,0,0,,5,,,53,127
17618,note_off,0,0,0,,2,,,62,127
17618,note_off,0,0,0,,2,,,74,127
17620,note_on,2,0,0,,0,,,72,127
17620,note_on,0,0,0,,5,,,53,127
17620,note_on,0,0,0,,2,,,62,127
17936,note_off,316,0,0,,2,,,62,127
17936,note_off,0,0,0,,5,,,53,127
17936,note_off,0,0,0,,0,,,72,127
17938,note_on,2,0,0,,12,,,71,127
17938,note_on,0,0,0,,10,,,69,127
17938,note_on,0,0,0,,5,,,53,127
17938,note_on,0,0,0,,2,,,62,127
18042,note_off,104,0,0,,10,,,69,127
18042,note_off,0,0,0,,12,,,71,127
18044,note_on,2,0,0,,8,,,68,127
18148,note_off,104,0,0,,8,,,68,127
18150,note_on,2,0,0,,10,,,69,127
18254,note_off,104,0,0,,10,,,69,127
18256,note_on,2,0,0,,12,,,71,127
18334,note_off,78,0,0,,12,,,71,127
18336,note_on,2,0,0,,0,,,72,127
18414,note_off,78,0,0,,0,,,72,127
18416,note_on,2,0,0,,2,,,74,127
18494,note_off,78,0,0,,2,,,74,127
18496,note_on,2,0,0,,4,,,76,127
18574,note_off,78,0,0,,4,,,76,127
18576,note_on,2,0,0,,2,,,74,127
18892,note_off,316,0,0,,2,,,74,127
18892,note_off,0,0,0,,2,,,62,127
18892,note_off,0,0,0,,5,,,53,127
18894,note_on,2,0,0,,0,,,72,127
18894,note_on,0,0,0,,2,,,62,127
18894,note_on,0,0,0,,6,,,54,127
19210,note_off,316,0,0,,6,,,54,127
19210,note_off,0,0,0,,2,,,62,127
19210,note_off,0,0,0,,0,,,72,127
19212,note_on,2,0,0,,0,,,72,127
19212,note_on,0,0,0,,7,,,55,127
19263,note_off,51,0,0,,0,,,72,127
19265,note_on,2,0,0,,12,,,71,127
19316,note_off,51,0,0,,12,,,71,127
19318,note_on,2,0,0,,0,,,72,127
19369,note_off,51,0,0,,0,,,72,127
19371,note_on,2,0,0,,12,,,71,127
19422,note_off,51,0,0,,12,,,71,127
19424,note_on,2,0,0,,0,,,72,127
19475,note_off,51,0,0,,0,,,72,127
19477,note_on,2,0,0,,12,,,71,127
19528,note_off,51,0,0,,12,,,71,127
19530,note_on,2,0,0,,0,,,72,127
19581,note_off,51,0,0,,0,,,72,127
19583,note_on,2,0,0,,12,,,71,127
19687,note_off,104,0,0,,12,,,71,127
19689,note_on,2,0,0,,10,,,69,127
19846,note_off,157,0,0,,10,,,69,127
19848,note_on,2,0,0,,7,,,67,127
19848,note_on,0,0,0,,7,,,43,127
20427,note_off,579,0,0,,7,,,67,127
20478,note_off,51,0,0,,7,,,55,127
20481,note_off,3,0,0,,7,,,43,127
20496,note_on,15,0,0,,10,,,69,127
20496,note_on,0,0,0,,0,,,72,127
20558,note_off,62,0,0,,0,,,72,127
20558,note_off,0,0,0,,10,,,69,127
20560,note_on,2,0,0,,7,,,67,127
20560,note_on,0,0,0,,12,,,71,127
20622,note_off,62,0,0,,12,,,71,127
20622,note_off,0,0,0,,7,,,67,127
20624,note_on,2,0,0,,10,,,69,127
20624,note_on,0,0,0,,0,,,72,127
20686,note_off,62,0,0,,0,,,72,127
20686,note_off,0,0,0,,10,,,69,127
20688,note_on,2,0,0,,7,,,67,127
20688,note_on,0,0,0,,12,,,71,127
20750,note_off,62,0,0,,12,,,71,127
20750,note_off,0,0,0,,7,,,67,127
20752,note_on,2,0,0,,6,,,66,127
20752,note_on,0,0,0,,10,,,69,127
20813,note_off,61,0,0,,10,,,69,127
20813,note_off,0,0,0,,6,,,66,127
20815,note_on,2,0,0,,7,,,67,127
20815,note_on,0,0,0,,12,,,71,127
20972,note_off,157,0,0,,12,,,71,127
20972,note_off,0,0,0,,7,,,67,127
20974,note_on,2,0,0,,10,,,69,127
20974,note_on,0,0,0,,0,,,72,127
21131,note_off,157,0,0,,0,,,72,127
21131,note_off,0,0,0,,10,,,69,127
21133,note_on,2,0,0,,12,,,71,127
21133,note_on,0,0,0,,7,,,67,127
21133,note_on,0,0,0,,2,,,74,127
21449,note_off,316,0,0,,2,,,74,127
21449,note_off,0,0,0,,12,,,71,127
21451,note_on,2,0,0,,12,,,71,127
21451,note_on,0,0,0,,2,,,74,127
21767,note_off,316,0,0,,2,,,74,127
21767,note_off,0,0,0,,12,,,71,127
21768,note_off,1,0,0,,7,,,67,127
21769,note_on,1,0,0,,7,,,43,127
21769,note_on,0,0,0,,7,,,79,127
22085,note_off,316,0,0,,7,,,79,127
22085,note_off,0,0,0,,7,,,43,127
22087,note_on,2,0,0,,7,,,67,127
22087,note_on,0,0,0,,4,,,76,127
22087,note_on,0,0,0,,0,,,72,127
22403,note_off,316,0,0,,0,,,72,127
22403,note_off,0,0,0,,4,,,76,127
22403,note_off,0,0,0,,7,,,67,127
22405,note_on,2,0,0,,7,,,43,127
22405,note_on,0,0,0,,2,,,74,127
22405,note_on,0,0,0,,12,,,71,127
22721,note_off,316,0,0,,12,,,71,127
22721,note_off,0,0,0,,2,,,74,127
22721,note_off,0,0,0,,7,,,43,127
22723,note_on,2,0,0,,7,,,67,127
22723,note_on,0,0,0,,10,,,69,127
22723,note_on,0,0,0,,0,,,72,127
23039,note_off,316,0,0,,0,,,72,127
23039,note_off,0,0,0,,10,,,69,127
23039,note_off,0,0,0,,7,,,67,127
23041,note_on,2,0,0,,7,,,43,127
23041,note_on,0,0,0,,0,,,72,127
23103,note_off,62,0,0,,0,,,72,127
23105,note_on,2,0,0,,12,,,71,127
23167,note_off,62,0,0,,12,,,71,127
23169,note_on,2,0,0,,0,,,72,127
23231,note_off,62,0,0,,0,,,72,127
23233,note_on,2,0,0,,12,,,71,127
23295,note_off,62,0,0,,12,,,71,127
23297,note_on,2,0,0,,10,,,69,127
23358,note_off,61,0,0,,10,,,69,127
23360,note_on,2,0,0,,12,,,71,127
23517,note_off,157,0,0,,12,,,71,127
23519,note_on,2,0,0,,0,,,72,127
23676,note_off,157,0,0,,0,,,72,127
23677,note_off,1,0,0,,7,,,43,127
23678,note_on,1,0,0,,2,,,74,127
23994,note_off,316,0,0,,2,,,74,127
23996,note_on,2,0,0,,2,,,74,127
24312,note_off,316,0,0,,2,,,74,127
24327,note_on,15,0,0,,5,,,77,127
24327,note_on,0,0,0,,2,,,74,127
24389,note_off,62,0,0,,2,,,74,127
24389,note_off,0,0,0,,5,,,77,127
24391,note_on,2,0,0,,4,,,76,127
24391,note_on,0,0,0,,0,,,72,127
24453,note_off,62,0,0,,0,,,72,127
24453,note_off,0,0,0,,4,,,76,127
24455,note_on,2,0,0,,5,,,77,127
24455,note_on,0,0,0,,2,,,74,127
24517,note_off,62,0,0,,2,,,74,127
24517,note_off,0,0,0,,5,,,77,127
24519,note_on,2,0,0,,4,,,76,127
24519,note_on,0,0,0,,0,,,72,127
24581,note_off,62,0,0,,0,,,72,127
24581,note_off,0,0,0,,4,,,76,127
24583,note_on,2,0,0,,2,,,74,127
24583,note_on,0,0,0,,12,,,71,127
24644,note_off,61,0,0,,12,,,71,127
24644,note_off,0,0,0,,2,,,74,127
24646,note_on,2,0,0,,4,,,76,127
24646,note_on,0,0,0,,0,,,72,127
24803,note_off,157,0,0,,0,,,72,127
24803,note_off,0,0,0,,4,,,76,127
24805,note_on,2,0,0,,5,,,77,127
24805,note_on,0,0,0,,2,,,74,127
24962,note_off,157,0,0,,2,,,74,127
24962,note_off,0,0,0,,5,,,77,127
24964,note_on,2,0,0,,7,,,79,127
24964,note_on,0,0,0,,4,,,76,127
25280,note_off,316,0,0,,4,,,76,127
25280,note_off,0,0,0,,7,,,79,127
25282,note_on,2,0,0,,7,,,79,127
25282,note_on,0,0,0,,4,,,76,127
25598,note_off,316,0,0,,4,,,76,127
25598,note_off,0,0,0,,7,,,79,127
25600,note_on,2,0,0,,0,,,84,127
25600,note_on,0,0,0,,0,,,48,127
25916,note_off,316,0,0,,0,,,48,127
25916,note_off,0,0,0,,0,,,84,127
25918,note_on,2,0,0,,5,,,77,127
25918,note_on,0,0,0,,10,,,81,127
25918,note_on,0,0,0,,0,,,72,127
26234,note_off,316,0,0,,0,,,72,127
26234,note_off,0,0,0,,10,,,81,127
26234,note_off,0,0,0,,5,,,77,127
26236,note_on,2,0,0,,7,,,79,127
26236,note_on,0,0,0,,4,,,76,127
26236,note_on,0,0,0,,0,,,48,127
26552,note_off,316,0,0,,0,,,48,127
26552,note_off,0,0,0,,4,,,76,127
26552,note_off,0,0,0,,7,,,79,127
26554,note_on,2,0,0,,2,,,74,127
26554,note_on,0,0,0,,5,,,77,127
26554,note_on,0,0,0,,0,,,72,127
26870,note_off,316,0,0,,0,,,72,127
26870,note_off,0,0,0,,5,,,77,127
26870,note_off,0,0,0,,2,,,74,127
26885,note_on,15,0,0,,0,,,48,127
26885,note_on,0,0,0,,5,,,77,127
26936,note_off,51,0,0,,5,,,77,127
26938,note_on,2,0,0,,4,,,76,127
26989,note_off,51,0,0,,4,,,76,127
26991,note_on,2,0,0,,5,,,77,127
27042,note_off,51,0,0,,5,,,77,127
27044,note_on,2,0,0,,4,,,76,127
27095,note_off,51,0,0,,4,,,76,127
27097,note_on,2,0,0,,5,,,77,127
27148,note_off,51,0,0,,5,,,77,127
27150,note_on,2,0,0,,4,,,76,127
27201,note_off,51,0,0,,4,,,76,127
27201,note_off,0,0,0,,0,,,48,127
27203,note_on,2,0,0,,0,,,72,127
27203,note_on,0,0,0,,7,,,79,127
27519,note_off,316,0,0,,7,,,79,127
27519,note_off,0,0,0,,0,,,72,127
27521,note_on,2,0,0,,0,,,48,127
27521,note_on,0,0,0,,4,,,76,127
27572,note_off,51,0,0,,4,,,76,127
27574,note_on,2,0,0,,2,,,74,127
27625,note_off,51,0,0,,2,,,74,127
27627,note_on,2,0,0,,4,,,76,127
27678,note_off,51,0,0,,4,,,76,127
27680,note_on,2,0,0,,2,,,74,127
27731,note_off,51,0,0,,2,,,74,127
27733,note_on,2,0,0,,4,,,76,127
27784,note_off,51,0,0,,4,,,76,127
27786,note_on,2,0,0,,2,,,74,127
27837,note_off,51,0,0,,2,,,74,127
27837,note_off,0,0,0,,0,,,48,127
27839,note_on,2,0,0,,12,,,71,127
27839,note_on,0,0,0,,7,,,79,127
28155,note_off,316,0,0,,7,,,79,127
28155,note_off,0,0,0,,12,,,71,127
28157,note_on,2,0,0,,0,,,48,127
28157,note_on,0,0,0,,5,,,77,127
28208,note_off,51,0,0,,5,,,77,127
28210,note_on,2,0,0,,4,,,76,127
28261,note_off,51,0,0,,4,,,76,127
28263,note_on,2,0,0,,5,,,77,127
28314,note_off,51,0,0,,5,,,77,127
28316,note_on,2,0,0,,4,,,76,127
28367,note_off,51,0,0,,4,,,76,127
28369,note_on,2,0,0,,5,,,77,127
28420,note_off,51,0,0,,5,,,77,127
28422,note_on,2,0,0,,4,,,76,127
28473,note_off,51,0,0,,4,,,76,127
28473,note_off,0,0,0,,0,,,48,127
28475,note_on,2,0,0,,0,,,72,127
28475,note_on,0,0,0,,7,,,79,127
28791,note_off,316,0,0,,7,,,79,127
28791,note_off,0,0,0,,0,,,72,127
28793,note_on,2,0,0,,12,,,47,127
28793,note_on,0,0,0,,4,,,76,127
28844,note_off,51,0,0,,4,,,76,127
28846,note_on,2,0,0,,2,,,74,127
28897,note_off,51,0,0,,2,,,74,127
28899,note_on,2,0,0,,4,,,76,127
28950,note_off,51,0,0,,4,,,76,127
28952,note_on,2,0,0,,2,,,74,127
29003,note_off,51,0,0,,2,,,74,127
29005,note_on,2,0,0,,4,,,76,127
29056,note_off,51,0,0,,4,,,76,127
29058,note_on,2,0,0,,2,,,74,127
29109,note_off,51,0,0,,2,,,74,127
29109,note_off,0,0,0,,12,,,47,127
29111,note_on,2,0,0,,12,,,71,127
29111,note_on,0,0,0,,7,,,79,127
29427,note_off,316,0,0,,7,,,79,127
29427,note_off,0,0,0,,12,,,71,127
29429,note_on,2,0,0,,10,,,45,127
29429,note_on,0,0,0,,2,,,74,127
29480,note_off,51,0,0,,2,,,74,127
29482,note_on,2,0,0,,0,,,72,127
29533,note_off,51,0,0,,0,,,72,127
29535,note_on,2,0,0,,2,,,74,127
29586,note_off,51,0,0,,2,,,74,127
29588,note_on,2,0,0,,0,,,72,127
29639,note_off,51,0,0,,0,,,72,127
29641,note_on,2,0,0,,2,,,74,127
29692,note_off,51,0,0,,2,,,74,127
29694,note_on,2,0,0,,0,,,72,127
29745,note_off,51,0,0,,0,,,72,127
29745,note_off,0,0,0,,10,,,45,127
29747,note_on,2,0,0,,10,,,69,127
29747,note_on,0,0,0,,7,,,79,127
30063,note_off,316,0,0,,7,,,79,127
30063,note_off,0,0,0,,10,,,69,127
30065,note_on,2,0,0,,7,,,43,127
30065,note_on,0,0,0,,0,,,72,127
30116,note_off,51,0,0,,0,,,72,127
30118,note_on,2,0,0,,12,,,71,127
30169,note_off,51,0,0,,12,,,71,127
30171,note_on,2,0,0,,0,,,72,127
30222,note_off,51,0,0,,0,,,72,127
30224,note_on,2,0,0,,12,,,71,127
30275,note_off,51,0,0,,12,,,71,127
30277,note_on,2,0,0,,0,,,72,127
30328,note_off,51,0,0,,0,,,72,127
30330,note_on,2,0,0,,12,,,71,127
30381,note_off,51,0,0,,12,,,71,127
30381,note_off,0,0,0,,7,,,43,127
30383,note_on,2,0,0,,7,,,67,127
30383,note_on,0,0,0,,7,,,79,127
30699,note_off,316,0,0,,7,,,79,127
30699,note_off,0,0,0,,7,,,67,127
30701,note_on,2,0,0,,5,,,41,127
30701,note_on,0,0,0,,12,,,71,127
30752,note_off,51,0,0,,12,,,71,127
30754,note_on,2,0,0,,10,,,69,127
30805,note_off,51,0,0,,10,,,69,127
30807,note_on,2,0,0,,12,,,71,127
30858,note_off,51,0,0,,12,,,71,127
30860,note_on,2,0,0,,10,,,69,127
30911,note_off,51,0,0,,10,,,69,127
30913,note_on,2,0,0,,12,,,71,127
30964,note_off,51,0,0,,12,,,71,127
30966,note_on,2,0,0,,10,,,69,127
31017,note_off,51,0,0,,10,,,69,127
31017,note_off,0,0,0,,5,,,41,127
31019,note_on,2,0,0,,5,,,65,127
31019,note_on,0,0,0,,7,,,79,127
31335,note_off,316,0,0,,7,,,79,127
31335,note_off,0,0,0,,5,,,65,127
31337,note_on,2,0,0,,4,,,40,127
31337,note_on,0,0,0,,10,,,69,127
31388,note_off,51,0,0,,10,,,69,127
31390,note_on,2,0,0,,7,,,67,127
31441,note_off,51,0,0,,7,,,67,127
31443,note_on,2,0,0,,10,,,69,127
31494,note_off,51,0,0,,10,,,69,127
31496,note_on,2,0,0,,7,,,67,127
31547,note_off,51,0,0,,7,,,67,127
31549,note_on,2,0,0,,10,,,69,127
31600,note_off,51,0,0,,10,,,69,127
31602,note_on,2,0,0,,7,,,67,127
31653,note_off,51,0,0,,7,,,67,127
31653,note_off,0,0,0,,4,,,40,127
31655,note_on,2,0,0,,4,,,64,127
31655,note_on,0,0,0,,7,,,79,127
31971,note_off,316,0,0,,7,,,79,127
31971,note_off,0,0,0,,4,,,64,127
31973,note_on,2,0,0,,2,,,38,127
31973,note_on,0,0,0,,7,,,67,127
32024,note_off,51,0,0,,7,,,67,127
32026,note_on,2,0,0,,5,,,65,127
32077,note_off,51,0,0,,5,,,65,127
32079,note_on,2,0,0,,7,,,67,127
32130,note_off,51,0,0,,7,,,67,127
32132,note_on,2,0,0,,5,,,65,127
32183,note_off,51,0,0,,5,,,65,127
32185,note_on,2,0,0,,7,,,67,127
32236,note_off,51,0,0,,7,,,67,127
32238,note_on,2,0,0,,5,,,65,127
32289,note_off,51,0,0,,5,,,65,127
32289,note_off,0,0,0,,2,,,38,127
32291,note_on,2,0,0,,2,,,62,127
32291,note_on,0,0,0,,7,,,79,127
32607,note_off,316,0,0,,7,,,79,127
32607,note_off,0,0,0,,2,,,62,127
32609,note_on,2,0,0,,0,,,36,127
32609,note_on,0,0,0,,5,,,65,127
32660,note_off,51,0,0,,5,,,65,127
32662,note_on,2,0,0,,4,,,64,127
32713,note_off,51,0,0,,4,,,64,127
32715,note_on,2,0,0,,5,,,65,127
32766,note_off,51,0,0,,5,,,65,127
32768,note_on,2,0,0,,4,,,64,127
32819,note_off,51,0,0,,4,,,64,127
32821,note_on,2,0,0,,5,,,65,127
32872,note_off,51,0,0,,5,,,65,127
32874,note_on,2,0,0,,4,,,64,127
32925,note_off,51,0,0,,4,,,64,127
32925,note_off,0,0,0,,0,,,36,127
32927,note_on,2,0,0,,0,,,60,127
32927,note_on,0,0,0,,0,,,72,127
33243,note_off,316,0,0,,0,,,72,127
33243,note_off,0,0,0,,0,,,60,127
33245,note_on,2,0,0,,7,,,43,127
33245,note_on,0,0,0,,4,,,64,127
33561,note_off,316,0,0,,4,,,64,127
33563,note_on,2,0,0,,4,,,64,127
33614,note_off,51,0,0,,4,,,64,127
33616,note_on,2,0,0,,2,,,62,127
33667,note_off,51,0,0,,2,,,62,127
33669,note_on,2,0,0,,4,,,64,127
33720,note_off,51,0,0,,4,,,64,127
33722,note_on,2,0,0,,2,,,62,127
33773,note_off,51,0,0,,2,,,62,127
33775,note_on,2,0,0,,0,,,60,127
33879,note_off,104,0,0,,0,,,60,127
33881,note_on,2,0,0,,0,,,60,127
34197,note_off,316,0,0,,0,,,60,127
34199,note_on,2,0,0,,2,,,62,127
34515,note_off,316,0,0,,7,,,43,127
34834,note_off,319,0,0,,2,,,62,127
35881,note_on,1047,0,0,,8,,,68,127
35881,note_on,0,0,0,,5,,,65,127
35943,note_off,62,0,0,,5,,,65,127
35943,note_off,0,0,0,,8,,,68,127
35945,note_on,2,0,0,,7,,,67,127
35945,note_on,0,0,0,,3,,,63,127
36007,note_off,62,0,0,,3,,,63,127
36007,note_off,0,0,0,,7,,,67,127
36009,note_on,2,0,0,,8,,,68,127
36009,note_on,0,0,0,,5,,,65,127
36071,note_off,62,0,0,,5,,,65,127
36071,note_off,0,0,0,,8,,,68,127
36073,note_on,2,0,0,,7,,,67,127
36073,note_on,0,0,0,,3,,,63,127
36135,note_off,62,0,0,,3,,,63,127
36135,note_off,0,0,0,,7,,,67,127
36137,note_on,2,0,0,,5,,,65,127
36137,note_on,0,0,0,,2,,,62,127
36198,note_off,61,0,0,,2,,,62,127
36198,note_off,0,0,0,,5,,,65,127
36200,note_on,2,0,0,,7,,,67,127
36200,note_on,0,0,0,,3,,,63,127
36357,note_off,157,0,0,,3,,,63,127
36357,note_off,0,0,0,,7,,,67,127
36359,note_on,2,0,0,,8,,,68,127
36359,note_on,0,0,0,,5,,,65,127
36516,note_off,157,0,0,,5,,,65,127
36516,note_off,0,0,0,,8,,,68,127
36518,note_on,2,0,0,,11,,,70,127
36518,note_on,0,0,0,,7,,,67,127
36834,note_off,316,0,0,,7,,,67,127
36834,note_off,0,0,0,,11,,,70,127
36836,note_on,2,0,0,,11,,,70,127
36836,note_on,0,0,0,,7,,,67,127
37152,note_off,316,0,0,,7,,,67,127
37152,note_off,0,0,0,,11,,,70,127
37154,note_on,2,0,0,,5,,,77,127
37154,note_on,0,0,0,,8,,,68,127
37154,note_on,0,0,0,,3,,,63,127
37216,note_off,62,0,0,,8,,,68,127
37216,note_off,0,0,0,,5,,,77,127
37218,note_on,2,0,0,,3,,,75,127
37218,note_on,0,0,0,,7,,,67,127
37280,note_off,62,0,0,,7,,,67,127
37280,note_off,0,0,0,,3,,,75,127
37282,note_on,2,0,0,,5,,,77,127
37282,note_on,0,0,0,,8,,,68,127
37344,note_off,62,0,0,,8,,,68,127
37344,note_off,0,0,0,,5,,,77,127
37346,note_on,2,0,0,,3,,,75,127
37346,note_on,0,0,0,,7,,,67,127
37408,note_off,62,0,0,,7,,,67,127
37408,note_off,0,0,0,,3,,,75,127
37410,note_on,2,0,0,,2,,,74,127
37410,note_on,0,0,0,,8,,,68,127
37471,note_off,61,0,0,,8,,,68,127
37471,note_off,0,0,0,,2,,,74,127
37473,note_on,2,0,0,,3,,,75,127
37473,note_on,0,0,0,,7,,,67,127
37630,note_off,157,0,0,,7,,,67,127
37630,note_off,0,0,0,,3,,,75,127
37632,note_on,2,0,0,,5,,,77,127
37632,note_on,0,0,0,,5,,,65,127
37789,note_off,157,0,0,,5,,,65,127
37789,note_off,0,0,0,,5,,,77,127
37790,note_off,1,0,0,,3,,,63,127
37791,note_on,1,0,0,,7,,,79,127
37791,note_on,0,0,0,,3,,,63,127
38107,note_off,316,0,0,,3,,,63,127
38107,note_off,0,0,0,,7,,,79,127
38109,note_on,2,0,0,,7,,,79,127
38109,note_on,0,0,0,,3,,,63,127
38425,note_off,316,0,0,,3,,,63,127
38425,note_off,0,0,0,,7,,,79,127
38427,note_on,2,0,0,,11,,,70,127
38427,note_on,0,0,0,,7,,,79,127
38427,note_on,0,0,0,,3,,,39,127
38743,note_off,316,0,0,,3,,,39,127
38743,note_off,0,0,0,,7,,,79,127
38743,note_off,0,0,0,,11,,,70,127
38745,note_on,2,0,0,,0,,,72,127
38745,note_on,0,0,0,,8,,,80,127
38745,note_on,0,0,0,,3,,,63,127
39061,note_off,316,0,0,,3,,,63,127
39061,note_off,0,0,0,,8,,,80,127
39061,note_off,0,0,0,,0,,,72,127
39063,note_on,2,0,0,,7,,,79,127
39063,note_on,0,0,0,,11,,,70,127
39063,note_on,0,0,0,,3,,,39,127
39379,note_off,316,0,0,,3,,,39,127
39379,note_off,0,0,0,,11,,,70,127
39379,note_off,0,0,0,,7,,,79,127
39381,note_on,2,0,0,,5,,,77,127
39381,note_on,0,0,0,,8,,,68,127
39381,note_on,0,0,0,,3,,,63,127
39697,note_off,316,0,0,,3,,,63,127
39697,note_off,0,0,0,,8,,,68,127
39697,note_off,0,0,0,,5,,,77,127
39699,note_on,2,0,0,,7,,,79,127
39699,note_on,0,0,0,,11,,,70,127
39699,note_on,0,0,0,,3,,,39,127
39909,note_off,210,0,0,,11,,,70,127
39909,note_off,0,0,0,,7,,,79,127
39911,note_on,2,0,0,,8,,,68,127
39911,note_on,0,0,0,,5,,,77,127
40015,note_off,104,0,0,,5,,,77,127
40015,note_off,0,0,0,,8,,,68,127
40017,note_on,2,0,0,,3,,,75,127
40017,note_on,0,0,0,,7,,,67,127
40227,note_off,210,0,0,,7,,,67,127
40227,note_off,0,0,0,,3,,,75,127
40229,note_on,2,0,0,,5,,,65,127
40229,note_on,0,0,0,,2,,,74,127
40333,note_off,104,0,0,,2,,,74,127
40333,note_off,0,0,0,,5,,,65,127
40335,note_on,2,0,0,,5,,,65,127
40335,note_on,0,0,0,,2,,,74,127
40651,note_off,316,0,0,,2,,,74,127
40651,note_off,0,0,0,,5,,,65,127
40651,note_off,0,0,0,,3,,,39,127
40653,note_on,2,0,0,,7,,,67,127
40653,note_on,0,0,0,,3,,,75,127
40969,note_off,316,0,0,,3,,,75,127
40969,note_off,0,0,0,,7,,,67,127
40984,note_on,15,0,0,,3,,,63,127
40984,note_on,0,0,0,,8,,,68,127
40984,note_on,0,0,0,,5,,,77,127
41046,note_off,62,0,0,,5,,,77,127
41046,note_off,0,0,0,,8,,,68,127
41048,note_on,2,0,0,,7,,,67,127
41048,note_on,0,0,0,,3,,,75,127
41110,note_off,62,0,0,,3,,,75,127
41110,note_off,0,0,0,,7,,,67,127
41112,note_on,2,0,0,,8,,,68,127
41112,note_on,0,0,0,,5,,,77,127
41174,note_off,62,0,0,,5,,,77,127
41174,note_off,0,0,0,,8,,,68,127
41176,note_on,2,0,0,,7,,,67,127
41176,note_on,0,0,0,,3,,,75,127
41238,note_off,62,0,0,,3,,,75,127
41238,note_off,0,0,0,,7,,,67,127
41240,note_on,2,0,0,,5,,,65,127
41240,note_on,0,0,0,,2,,,74,127
41301,note_off,61,0,0,,2,,,74,127
41301,note_off,0,0,0,,5,,,65,127
41303,note_on,2,0,0,,7,,,67,127
41303,note_on,0,0,0,,3,,,75,127
41460,note_off,157,0,0,,3,,,75,127
41460,note_off,0,0,0,,7,,,67,127
41462,note_on,2,0,0,,8,,,68,127
41462,note_on,0,0,0,,5,,,77,127
41619,note_off,157,0,0,,5,,,77,127
41619,note_off,0,0,0,,8,,,68,127
41621,note_on,2,0,0,,11,,,70,127
41621,note_on,0,0,0,,7,,,79,127
41937,note_off,316,0,0,,7,,,79,127
41937,note_off,0,0,0,,11,,,70,127
41939,note_on,2,0,0,,11,,,70,127
41939,note_on,0,0,0,,7,,,79,127
42252,note_off,313,0,0,,3,,,63,127
42255,note_off,3,0,0,,7,,,79,127
42255,note_off,0,0,0,,11,,,70,127
42257,note_on,2,0,0,,0,,,72,127
42257,note_on,0,0,0,,3,,,63,127
42257,note_on,0,0,0,,8,,,80,127
42319,note_off,62,0,0,,8,,,80,127
42319,note_off,0,0,0,,0,,,72,127
42321,note_on,2,0,0,,11,,,70,127
42321,note_on,0,0,0,,7,,,79,127
42383,note_off,62,0,0,,7,,,79,127
42383,note_off,0,0,0,,11,,,70,127
42385,note_on,2,0,0,,0,,,72,127
42385,note_on,0,0,0,,8,,,80,127
42447,note_off,62,0,0,,8,,,80,127
42447,note_off,0,0,0,,0,,,72,127
42449,note_on,2,0,0,,11,,,70,127
42449,note_on,0,0,0,,7,,,79,127
42511,note_off,62,0,0,,7,,,79,127
42511,note_off,0,0,0,,11,,,70,127
42513,note_on,2,0,0,,0,,,72,127
42513,note_on,0,0,0,,5,,,77,127
42574,note_off,61,0,0,,5,,,77,127
42574,note_off,0,0,0,,0,,,72,127
42576,note_on,2,0,0,,11,,,70,127
42576,note_on,0,0,0,,7,,,79,127
42733,note_off,157,0,0,,7,,,79,127
42733,note_off,0,0,0,,11,,,70,127
42735,note_on,2,0,0,,8,,,68,127
42735,note_on,0,0,0,,8,,,80,127
42892,note_off,157,0,0,,8,,,80,127
42892,note_off,0,0,0,,8,,,68,127
42894,note_on,2,0,0,,7,,,67,127
42894,note_on,0,0,0,,11,,,82,127
43210,note_off,316,0,0,,11,,,82,127
43210,note_off,0,0,0,,7,,,67,127
43212,note_on,2,0,0,,7,,,67,127
43212,note_on,0,0,0,,11,,,82,127
43525,note_off,313,0,0,,3,,,63,127
43528,note_off,3,0,0,,11,,,82,127
43528,note_off,0,0,0,,7,,,67,127
43530,note_on,2,0,0,,3,,,39,127
43530,note_on,0,0,0,,7,,,79,127
43530,note_on,0,0,0,,11,,,82,127
43846,note_off,316,0,0,,11,,,82,127
43846,note_off,0,0,0,,7,,,79,127
43846,note_off,0,0,0,,3,,,39,127
43848,note_on,2,0,0,,3,,,63,127
43848,note_on,0,0,0,,8,,,80,127
43848,note_on,0,0,0,,0,,,84,127
44164,note_off,316,0,0,,0,,,84,127
44164,note_off,0,0,0,,8,,,80,127
44164,note_off,0,0,0,,3,,,63,127
44166,note_on,2,0,0,,3,,,39,127
44166,note_on,0,0,0,,7,,,79,127
44166,note_on,0,0,0,,11,,,82,127
44482,note_off,316,0,0,,11,,,82,127
44482,note_off,0,0,0,,7,,,79,127
44482,note_off,0,0,0,,3,,,39,127
44484,note_on,2,0,0,,3,,,63,127
44484,note_on,0,0,0,,8,,,80,127
44484,note_on,0,0,0,,5,,,77,127
44800,note_off,316,0,0,,5,,,77,127
44800,note_off,0,0,0,,8,,,80,127
44800,note_off,0,0,0,,3,,,63,127
44802,note_on,2,0,0,,3,,,39,127
44802,note_on,0,0,0,,11,,,82,127
44802,note_on,0,0,0,,7,,,79,127
45012,note_off,210,0,0,,7,,,79,127
45012,note_off,0,0,0,,11,,,82,127
45014,note_on,2,0,0,,8,,,80,127
45014,note_on,0,0,0,,5,,,77,127
45118,note_off,104,0,0,,5,,,77,127
45118,note_off,0,0,0,,8,,,80,127
45120,note_on,2,0,0,,7,,,79,127
45120,note_on,0,0,0,,3,,,75,127
45330,note_off,210,0,0,,3,,,75,127
45330,note_off,0,0,0,,7,,,79,127
45332,note_on,2,0,0,,2,,,74,127
45332,note_on,0,0,0,,5,,,77,127
45436,note_off,104,0,0,,5,,,77,127
45436,note_off,0,0,0,,2,,,74,127
45438,note_on,2,0,0,,5,,,77,127
45438,note_on,0,0,0,,2,,,74,127
45754,note_off,316,0,0,,2,,,74,127
45754,note_off,0,0,0,,5,,,77,127
45756,note_on,2,0,0,,3,,,75,127
45756,note_on,0,0,0,,7,,,79,127
46044,note_off,288,0,0,,3,,,39,127
46080,note_off,36,0,0,,7,,,79,127
46080,note_off,0,0,0,,3,,,75,127
46092,note_on,12,0,0,,3,,,63,127
46092,note_on,0,0,0,,7,,,67,127
46092,note_on,0,0,0,,5,,,77,127
46154,note_off,62,0,0,,5,,,77,127
46156,note_on,2,0,0,,3,,,75,127
46218,note_off,62,0,0,,3,,,75,127
46220,note_on,2,0,0,,5,,,77,127
46282,note_off,62,0,0,,5,,,77,127
46284,note_on,2,0,0,,3,,,75,127
46346,note_off,62,0,0,,3,,,75,127
46348,note_on,2,0,0,,2,,,74,127
46409,note_off,61,0,0,,2,,,74,127
46409,note_off,0,0,0,,7,,,67,127
46409,note_off,0,0,0,,3,,,63,127
46411,note_on,2,0,0,,7,,,67,127
46411,note_on,0,0,0,,3,,,63,127
46411,note_on,0,0,0,,3,,,75,127
46568,note_off,157,0,0,,3,,,75,127
46570,note_on,2,0,0,,5,,,77,127
46727,note_off,157,0,0,,5,,,77,127
46727,note_off,0,0,0,,3,,,63,127
46727,note_off,0,0,0,,7,,,67,127
46729,note_on,2,0,0,,7,,,67,127
46729,note_on,0,0,0,,3,,,63,127
46729,note_on,0,0,0,,7,,,79,127
47045,note_off,316,0,0,,7,,,79,127
47045,note_off,0,0,0,,3,,,63,127
47045,note_off,0,0,0,,7,,,67,127
47047,note_on,2,0,0,,7,,,67,127
47047,note_on,0,0,0,,3,,,63,127
47047,note_on,0,0,0,,0,,,84,127
47363,note_off,316,0,0,,0,,,84,127
47363,note_off,0,0,0,,3,,,63,127
47363,note_off,0,0,0,,7,,,67,127
47365,note_on,2,0,0,,2,,,62,127
47365,note_on,0,0,0,,5,,,65,127
47365,note_on,0,0,0,,0,,,84,127
47365,note_on,0,0,0,,2,,,74,127
47681,note_off,316,0,0,,2,,,74,127
47681,note_off,0,0,0,,0,,,84,127
47681,note_off,0,0,0,,5,,,65,127
47681,note_off,0,0,0,,2,,,62,127
47683,note_on,2,0,0,,5,,,65,127
47683,note_on,0,0,0,,2,,,62,127
47683,note_on,0,0,0,,3,,,75,127
47683,note_on,0,0,0,,12,,,83,127
47999,note_off,316,0,0,,3,,,75,127
47999,note_off,0,0,0,,2,,,62,127
47999,note_off,0,0,0,,5,,,65,127
48001,note_on,2,0,0,,5,,,65,127
48001,note_on,0,0,0,,2,,,62,127
48001,note_on,0,0,0,,5,,,77,127
48317,note_off,316,0,0,,5,,,77,127
48317,note_off,0,0,0,,2,,,62,127
48317,note_off,0,0,0,,5,,,65,127
48318,note_off,1,0,0,,12,,,83,127
48319,note_on,1,0,0,,7,,,67,127
48319,note_on,0,0,0,,2,,,62,127
48319,note_on,0,0,0,,7,,,79,127
48319,note_on,0,0,0,,0,,,72,127
48635,note_off,316,0,0,,0,,,72,127
48635,note_off,0,0,0,,7,,,79,127
48635,note_off,0,0,0,,2,,,62,127
48635,note_off,0,0,0,,7,,,67,127
48637,note_on,2,0,0,,8,,,68,127
48637,note_on,0,0,0,,5,,,65,127
48637,note_on,0,0,0,,0,,,60,127
48637,note_on,0,0,0,,12,,,71,127
48637,note_on,0,0,0,,8,,,80,127
48953,note_off,316,0,0,,12,,,71,127
48953,note_off,0,0,0,,0,,,60,127
48953,note_off,0,0,0,,5,,,65,127
48953,note_off,0,0,0,,8,,,68,127
48955,note_on,2,0,0,,8,,,68,127
48955,note_on,0,0,0,,0,,,60,127
48955,note_on,0,0,0,,5,,,65,127
48955,note_on,0,0,0,,0,,,72,127
49271,note_off,316,0,0,,0,,,72,127
49271,note_off,0,0,0,,5,,,65,127
49271,note_off,0,0,0,,0,,,60,127
49271,note_off,0,0,0,,8,,,68,127
49273,note_on,2,0,0,,8,,,68,127
49273,note_on,0,0,0,,0,,,60,127
49273,note_on,0,0,0,,5,,,65,127
49273,note_on,0,0,0,,2,,,74,127
49589,note_off,316,0,0,,2,,,74,127
49589,note_off,0,0,0,,5,,,65,127
49589,note_off,0,0,0,,0,,,60,127
49589,note_off,0,0,0,,8,,,68,127
49590,note_off,1,0,0,,8,,,80,127
49591,note_on,1,0,0,,8,,,68,127
49591,note_on,0,0,0,,5,,,65,127
49591,note_on,0,0,0,,0,,,60,127
49591,note_on,0,0,0,,3,,,75,127
49591,note_on,0,0,0,,7,,,79,127
49907,note_off,316,0,0,,7,,,79,127
49907,note_off,0,0,0,,3,,,75,127
49907,note_off,0,0,0,,0,,,60,127
49907,note_off,0,0,0,,5,,,65,127
49907,note_off,0,0,0,,8,,,68,127
49909,note_on,2,0,0,,7,,,67,127
49909,note_on,0,0,0,,5,,,65,127
49909,note_on,0,0,0,,12,,,59,127
49909,note_on,0,0,0,,7,,,79,127
49909,note_on,0,0,0,,5,,,77,127
50225,note_off,316,0,0,,5,,,77,127
50225,note_off,0,0,0,,12,,,59,127
50225,note_off,0,0,0,,5,,,65,127
50225,note_off,0,0,0,,7,,,67,127
50227,note_on,2,0,0,,0,,,60,127
50227,note_on,0,0,0,,5,,,77,127
50227,note_on,0,0,0,,3,,,75,127
50384,note_off,157,0,0,,3,,,75,127
50384,note_off,0,0,0,,5,,,77,127
50386,note_on,2,0,0,,2,,,74,127
50543,note_off,157,0,0,,2,,,74,127
50544,note_off,1,0,0,,7,,,79,127
50545,note_on,1,0,0,,0,,,48,127
50545,note_on,0,0,0,,2,,,74,127
50861,note_off,316,0,0,,2,,,74,127
50863,note_on,2,0,0,,3,,,75,127
51128,note_off,265,0,0,,3,,,75,127
51179,note_off,51,0,0,,0,,,48,127
51179,note_off,0,0,0,,0,,,60,127
51194,note_on,15,0,0,,5,,,77,127
51194,note_on,0,0,0,,0,,,60,127
51194,note_on,0,0,0,,3,,,63,127
51256,note_off,62,0,0,,5,,,77,127
51258,note_on,2,0,0,,3,,,75,127
51320,note_off,62,0,0,,3,,,75,127
51322,note_on,2,0,0,,5,,,77,127
51384,note_off,62,0,0,,5,,,77,127
51386,note_on,2,0,0,,3,,,75,127
51448,note_off,62,0,0,,3,,,75,127
51450,note_on,2,0,0,,2,,,74,127
51511,note_off,61,0,0,,2,,,74,127
51511,note_off,0,0,0,,3,,,63,127
51511,note_off,0,0,0,,0,,,60,127
51513,note_on,2,0,0,,3,,,75,127
51513,note_on,0,0,0,,3,,,63,127
51513,note_on,0,0,0,,0,,,60,127
51670,note_off,157,0,0,,3,,,75,127
51672,note_on,2,0,0,,6,,,78,127
51829,note_off,157,0,0,,6,,,78,127
51829,note_off,0,0,0,,0,,,60,127
51829,note_off,0,0,0,,3,,,63,127
51831,note_on,2,0,0,,6,,,78,127
51831,note_on,0,0,0,,3,,,75,127
51831,note_on,0,0,0,,3,,,63,127
51831,note_on,0,0,0,,0,,,60,127
52147,note_off,316,0,0,,0,,,60,127
52147,note_off,0,0,0,,3,,,63,127
52147,note_off,0,0,0,,6,,,78,127
52149,note_on,2,0,0,,7,,,79,127
52149,note_on,0,0,0,,0,,,60,127
52149,note_on,0,0,0,,3,,,63,127
52465,note_off,316,0,0,,3,,,63,127
52465,note_off,0,0,0,,0,,,60,127
52465,note_off,0,0,0,,7,,,79,127
52466,note_off,1,0,0,,3,,,75,127
52467,note_on,1,0,0,,2,,,74,127
52467,note_on,0,0,0,,10,,,81,127
52467,note_on,0,0,0,,7,,,79,127
52467,note_on,0,0,0,,11,,,58,127
52467,note_on,0,0,0,,2,,,62,127
52467,note_on,0,0,0,,7,,,67,127
52624,note_off,157,0,0,,7,,,79,127
52624,note_off,0,0,0,,10,,,81,127
52626,note_on,2,0,0,,6,,,78,127
52783,note_off,157,0,0,,6,,,78,127
52783,note_off,0,0,0,,7,,,67,127
52783,note_off,0,0,0,,2,,,62,127
52783,note_off,0,0,0,,11,,,58,127
52785,note_on,2,0,0,,7,,,79,127
52785,note_on,0,0,0,,11,,,58,127
52785,note_on,0,0,0,,2,,,62,127
52785,note_on,0,0,0,,7,,,67,127
52942,note_off,157,0,0,,7,,,79,127
52944,note_on,2,0,0,,10,,,81,127
53101,note_off,157,0,0,,10,,,81,127
53101,note_off,0,0,0,,7,,,67,127
53101,note_off,0,0,0,,2,,,62,127
53101,note_off,0,0,0,,11,,,58,127
53102,note_off,1,0,0,,2,,,74,127
53103,note_on,1,0,0,,2,,,74,127
53103,note_on,0,0,0,,10,,,81,127
53103,note_on,0,0,0,,2,,,62,127
53103,note_on,0,0,0,,11,,,58,127
53103,note_on,0,0,0,,7,,,67,127
53419,note_off,316,0,0,,7,,,67,127
53419,note_off,0,0,0,,11,,,58,127
53419,note_off,0,0,0,,2,,,62,127
53419,note_off,0,0,0,,10,,,81,127
53421,note_on,2,0,0,,11,,,82,127
53421,note_on,0,0,0,,2,,,62,127
53421,note_on,0,0,0,,11,,,58,127
53421,note_on,0,0,0,,7,,,67,127
53737,note_off,316,0,0,,7,,,67,127
53737,note_off,0,0,0,,11,,,58,127
53737,note_off,0,0,0,,2,,,62,127
53737,note_off,0,0,0,,11,,,82,127
53738,note_off,1,0,0,,2,,,74,127
53739,note_on,1,0,0,,11,,,82,127
53739,note_on,0,0,0,,1,,,73,127
53739,note_on,0,0,0,,10,,,57,127
53739,note_on,0,0,0,,4,,,64,127
53739,note_on,0,0,0,,7,,,67,127
54055,note_off,316,0,0,,7,,,67,127
54055,note_off,0,0,0,,4,,,64,127
54055,note_off,0,0,0,,10,,,57,127
54055,note_off,0,0,0,,11,,,82,127
54057,note_on,2,0,0,,10,,,81,127
54057,note_on,0,0,0,,10,,,57,127
54057,note_on,0,0,0,,4,,,64,127
54057,note_on,0,0,0,,7,,,67,127
54373,note_off,316,0,0,,7,,,67,127
54373,note_off,0,0,0,,4,,,64,127
54373,note_off,0,0,0,,10,,,57,127
54373,note_off,0,0,0,,10,,,81,127
54374,note_off,1,0,0,,1,,,73,127
54375,note_on,1,0,0,,10,,,81,127
54375,note_on,0,0,0,,1,,,73,127
54375,note_on,0,0,0,,10,,,57,127
54375,note_on,0,0,0,,4,,,64,127
54375,note_on,0,0,0,,7,,,67,127
54380,note_on,5,0,0,,7,,,79,127
54691,note_off,311,0,0,,7,,,67,127
54691,note_off,0,0,0,,4,,,64,127
54691,note_off,0,0,0,,10,,,57,127
54691,note_off,0,0,0,,10,,,81,127
54693,note_on,2,0,0,,6,,,78,127
54693,note_on,0,0,0,,10,,,57,127
54693,note_on,0,0,0,,7,,,67,127
54693,note_on,0,0,0,,4,,,64,127
54696,note_off,3,0,0,,7,,,79,127
54850,note_off,154,0,0,,6,,,78,127
54852,note_on,2,0,0,,7,,,79,127
55009,note_off,157,0,0,,7,,,79,127
55009,note_off,0,0,0,,4,,,64,127
55009,note_off,0,0,0,,7,,,67,127
55009,note_off,0,0,0,,10,,,57,127
55010,note_off,1,0,0,,1,,,73,127
55011,note_on,1,0,0,,7,,,79,127
55011,note_on,0,0,0,,2,,,74,127
55011,note_on,0,0,0,,2,,,62,127
55062,note_off,51,0,0,,7,,,79,127
55064,note_on,2,0,0,,6,,,78,127
55115,note_off,51,0,0,,6,,,78,127
55117,note_on,2,0,0,,7,,,79,127
55168,note_off,51,0,0,,7,,,79,127
55170,note_on,2,0,0,,6,,,78,127
55221,note_off,51,0,0,,6,,,78,127
55223,note_on,2,0,0,,7,,,79,127
55274,note_off,51,0,0,,7,,,79,127
55276,note_on,2,0,0,,6,,,78,127
55327,note_off,51,0,0,,6,,,78,127
55329,note_on,2,0,0,,7,,,79,127
55380,note_off,51,0,0,,7,,,79,127
55382,note_on,2,0,0,,6,,,78,127
55384,note_off,2,0,0,,2,,,74,127
55487,note_off,103,0,0,,6,,,78,127
55489,note_on,2,0,0,,4,,,76,127
55646,note_off,157,0,0,,4,,,76,127
55648,note_on,2,0,0,,2,,,74,127
55648,note_on,0,0,0,,2,,,50,127
56227,note_off,579,0,0,,2,,,74,127
56278,note_off,51,0,0,,2,,,62,127
56281,note_off,3,0,0,,2,,,50,127
56296,note_on,15,0,0,,2,,,62,127
56296,note_on,0,0,0,,6,,,78,127
56296,note_on,0,0,0,,10,,,69,127
56506,note_off,210,0,0,,10,,,69,127
56506,note_off,0,0,0,,6,,,78,127
56508,note_on,2,0,0,,7,,,67,127
56508,note_on,0,0,0,,4,,,76,127
56612,note_off,104,0,0,,4,,,76,127
56612,note_off,0,0,0,,7,,,67,127
56612,note_off,0,0,0,,2,,,62,127
56614,note_on,2,0,0,,2,,,38,127
56614,note_on,0,0,0,,10,,,69,127
56614,note_on,0,0,0,,6,,,78,127
56824,note_off,210,0,0,,6,,,78,127
56824,note_off,0,0,0,,10,,,69,127
56826,note_on,2,0,0,,12,,,71,127
56826,note_on,0,0,0,,7,,,79,127
56930,note_off,104,0,0,,7,,,79,127
56930,note_off,0,0,0,,12,,,71,127
56930,note_off,0,0,0,,2,,,38,127
56932,note_on,2,0,0,,2,,,62,127
56932,note_on,0,0,0,,0,,,72,127
56932,note_on,0,0,0,,10,,,81,127
57248,note_off,316,0,0,,10,,,81,127
57248,note_off,0,0,0,,0,,,72,127
57248,note_off,0,0,0,,2,,,62,127
57250,note_on,2,0,0,,2,,,38,127
57250,note_on,0,0,0,,10,,,69,127
57250,note_on,0,0,0,,6,,,78,127
57566,note_off,316,0,0,,6,,,78,127
57566,note_off,0,0,0,,10,,,69,127
57566,note_off,0,0,0,,2,,,38,127
57568,note_on,2,0,0,,2,,,62,127
57568,note_on,0,0,0,,7,,,79,127
57568,note_on,0,0,0,,12,,,71,127
57778,note_off,210,0,0,,12,,,71,127
57778,note_off,0,0,0,,7,,,79,127
57780,note_on,2,0,0,,6,,,78,127
57780,note_on,0,0,0,,10,,,69,127
57884,note_off,104,0,0,,10,,,69,127
57884,note_off,0,0,0,,6,,,78,127
57884,note_off,0,0,0,,2,,,62,127
57886,note_on,2,0,0,,2,,,38,127
57886,note_on,0,0,0,,7,,,79,127
57886,note_on,0,0,0,,12,,,71,127
58096,note_off,210,0,0,,12,,,71,127
58096,note_off,0,0,0,,7,,,79,127
58098,note_on,2,0,0,,0,,,72,127
58098,note_on,0,0,0,,10,,,81,127
58202,note_off,104,0,0,,10,,,81,127
58202,note_off,0,0,0,,0,,,72,127
58202,note_off,0,0,0,,2,,,38,127
58204,note_on,2,0,0,,2,,,62,127
58204,note_on,0,0,0,,12,,,83,127
58204,note_on,0,0,0,,2,,,74,127
58520,note_off,316,0,0,,2,,,74,127
58520,note_off,0,0,0,,12,,,83,127
58520,note_off,0,0,0,,2,,,62,127
58522,note_on,2,0,0,,2,,,38,127
58522,note_on,0,0,0,,12,,,71,127
58522,note_on,0,0,0,,7,,,79,127
58838,note_off,316,0,0,,7,,,79,127
58838,note_off,0,0,0,,12,,,71,127
58838,note_off,0,0,0,,2,,,38,127
58840,note_on,2,0,0,,2,,,62,127
58840,note_on,0,0,0,,10,,,81,127
58840,note_on,0,0,0,,0,,,72,127
59050,note_off,210,0,0,,0,,,72,127
59050,note_off,0,0,0,,10,,,81,127
59052,note_on,2,0,0,,12,,,71,127
59052,note_on,0,0,0,,7,,,79,127
59156,note_off,104,0,0,,7,,,79,127
59156,note_off,0,0,0,,12,,,71,127
59156,note_off,0,0,0,,2,,,62,127
59158,note_on,2,0,0,,2,,,38,127
59158,note_on,0,0,0,,10,,,81,127
59158,note_on,0,0,0,,0,,,72,127
59368,note_off,210,0,0,,0,,,72,127
59368,note_off,0,0,0,,10,,,81,127
59370,note_on,2,0,0,,12,,,83,127
59370,note_on,0,0,0,,2,,,74,127
59474,note_off,104,0,0,,2,,,74,127
59474,note_off,0,0,0,,12,,,83,127
59474,note_off,0,0,0,,2,,,38,127
59476,note_on,2,0,0,,2,,,62,127
59476,note_on,0,0,0,,0,,,84,127
59476,note_on,0,0,0,,4,,,76,127
59792,note_off,316,0,0,,4,,,76,127
59792,note_off,0,0,0,,0,,,84,127
59792,note_off,0,0,0,,2,,,62,127
59794,note_on,2,0,0,,2,,,38,127
59794,note_on,0,0,0,,0,,,84,127
59794,note_on,0,0,0,,6,,,78,127
60110,note_off,316,0,0,,6,,,78,127
60110,note_off,0,0,0,,0,,,84,127
60110,note_off,0,0,0,,2,,,38,127
60112,note_on,2,0,0,,7,,,43,127
60112,note_on,0,0,0,,12,,,83,127
60112,note_on,0,0,0,,0,,,84,127
60112,note_on,0,0,0,,7,,,79,127
60322,note_off,210,0,0,,7,,,79,127
60322,note_off,0,0,0,,0,,,84,127
60322,note_off,0,0,0,,12,,,83,127
60324,note_on,2,0,0,,10,,,81,127
60428,note_off,104,0,0,,10,,,81,127
60430,note_on,2,0,0,,7,,,79,127
60640,note_off,210,0,0,,7,,,79,127
60642,note_on,2,0,0,,6,,,78,127
60746,note_off,104,0,0,,6,,,78,127
60748,note_on,2,0,0,,6,,,78,127
61064,note_off,316,0,0,,6,,,78,127
61064,note_off,0,0,0,,7,,,43,127
61066,note_on,2,0,0,,7,,,79,127
61364,note_off,298,0,0,,7,,,79,127
61397,note_on,33,0,0,,0,,,72,127
61397,note_on,0,0,0,,10,,,69,127
61459,note_off,62,0,0,,10,,,69,127
61459,note_off,0,0,0,,0,,,72,127
61461,note_on,2,0,0,,12,,,71,127
61461,note_on,0,0,0,,7,,,67,127
61523,note_off,62,0,0,,7,,,67,127
61523,note_off,0,0,0,,12,,,71,127
61525,note_on,2,0,0,,0,,,72,127
61525,note_on,0,0,0,,10,,,69,127
61587,note_off,62,0,0,,10,,,69,127
61587,note_off,0,0,0,,0,,,72,127
61589,note_on,2,0,0,,12,,,71,127
61589,note_on,0,0,0,,7,,,67,127
61651,note_off,62,0,0,,7,,,67,127
61651,note_off,0,0,0,,12,,,71,127
61653,note_on,2,0,0,,10,,,69,127
61653,note_on,0,0,0,,6,,,66,127
61714,note_off,61,0,0,,6,,,66,127
61714,note_off,0,0,0,,10,,,69,127
61716,note_on,2,0,0,,12,,,71,127
61716,note_on,0,0,0,,7,,,67,127
61873,note_off,157,0,0,,7,,,67,127
61873,note_off,0,0,0,,12,,,71,127
61875,note_on,2,0,0,,0,,,72,127
61875,note_on,0,0,0,,10,,,69,127
62032,note_off,157,0,0,,10,,,69,127
62032,note_off,0,0,0,,0,,,72,127
62034,note_on,2,0,0,,2,,,74,127
62034,note_on,0,0,0,,12,,,71,127
62350,note_off,316,0,0,,12,,,71,127
62350,note_off,0,0,0,,2,,,74,127
62352,note_on,2,0,0,,2,,,74,127
62352,note_on,0,0,0,,12,,,71,127
62668,note_off,316,0,0,,12,,,71,127
62668,note_off,0,0,0,,2,,,74,127
62670,note_on,2,0,0,,7,,,79,127
62670,note_on,0,0,0,,7,,,43,127
62986,note_off,316,0,0,,7,,,43,127
62986,note_off,0,0,0,,7,,,79,127
62988,note_on,2,0,0,,0,,,72,127
62988,note_on,0,0,0,,4,,,76,127
62988,note_on,0,0,0,,7,,,67,127
63304,note_off,316,0,0,,7,,,67,127
63304,note_off,0,0,0,,4,,,76,127
63304,note_off,0,0,0,,0,,,72,127
63306,note_on,2,0,0,,2,,,74,127
63306,note_on,0,0,0,,12,,,71,127
63306,note_on,0,0,0,,7,,,43,127
63622,note_off,316,0,0,,7,,,43,127
63622,note_off,0,0,0,,12,,,71,127
63622,note_off,0,0,0,,2,,,74,127
63624,note_on,2,0,0,,10,,,69,127
63624,note_on,0,0,0,,0,,,72,127
63624,note_on,0,0,0,,7,,,67,127
63948,note_off,324,0,0,,7,,,67,127
63948,note_off,0,0,0,,0,,,72,127
63948,note_off,0,0,0,,10,,,69,127
63952,note_on,4,0,0,,7,,,43,127
63953,note_on,1,0,0,,0,,,72,127
64015,note_off,62,0,0,,0,,,72,127
64018,note_on,3,0,0,,12,,,71,127
64080,note_off,62,0,0,,12,,,71,127
64082,note_on,2,0,0,,0,,,72,127
64144,note_off,62,0,0,,0,,,72,127
64146,note_on,2,0,0,,12,,,71,127
64208,note_off,62,0,0,,12,,,71,127
64210,note_on,2,0,0,,10,,,69,127
64269,note_off,59,0,0,,7,,,43,127
64271,note_off,2,0,0,,10,,,69,127
64273,note_on,2,0,0,,7,,,67,127
64273,note_on,0,0,0,,12,,,71,127
64430,note_off,157,0,0,,12,,,71,127
64432,note_on,2,0,0,,0,,,72,127
64589,note_off,157,0,0,,0,,,72,127
64589,note_off,0,0,0,,7,,,67,127
64591,note_on,2,0,0,,12,,,47,127
64591,note_on,0,0,0,,2,,,74,127
64907,note_off,316,0,0,,2,,,74,127
64907,note_off,0,0,0,,12,,,47,127
64909,note_on,2,0,0,,12,,,71,127
64909,note_on,0,0,0,,7,,,79,127
65190,note_off,281,0,0,,7,,,79,127
65210,note_off,20,0,0,,12,,,71,127
65227,note_on,17,0,0,,0,,,48,127
65227,note_on,0,0,0,,6,,,78,127
65278,note_off,51,0,0,,6,,,78,127
65280,note_on,2,0,0,,4,,,76,127
65331,note_off,51,0,0,,4,,,76,127
65333,note_on,2,0,0,,6,,,78,127
65384,note_off,51,0,0,,6,,,78,127
65386,note_on,2,0,0,,4,,,76,127
65437,note_off,51,0,0,,4,,,76,127
65439,note_on,2,0,0,,6,,,78,127
65490,note_off,51,0,0,,6,,,78,127
65492,note_on,2,0,0,,4,,,76,127
65543,note_off,51,0,0,,4,,,76,127
65543,note_off,0,0,0,,0,,,48,127
65545,note_on,2,0,0,,0,,,72,127
65545,note_on,0,0,0,,7,,,79,127
65861,note_off,316,0,0,,7,,,79,127
65861,note_off,0,0,0,,0,,,72,127
65863,note_on,2,0,0,,10,,,45,127
65863,note_on,0,0,0,,2,,,74,127
65914,note_off,51,0,0,,2,,,74,127
65916,note_on,2,0,0,,0,,,72,127
65967,note_off,51,0,0,,0,,,72,127
65969,note_on,2,0,0,,2,,,74,127
66020,note_off,51,0,0,,2,,,74,127
66022,note_on,2,0,0,,0,,,72,127
66073,note_off,51,0,0,,0,,,72,127
66075,note_on,2,0,0,,2,,,74,127
66126,note_off,51,0,0,,2,,,74,127
66128,note_on,2,0,0,,0,,,72,127
66179,note_off,51,0,0,,0,,,72,127
66179,note_off,0,0,0,,10,,,45,127
66181,note_on,2,0,0,,10,,,69,127
66181,note_on,0,0,0,,4,,,76,127
66497,note_off,316,0,0,,4,,,76,127
66497,note_off,0,0,0,,10,,,69,127
66499,note_on,2,0,0,,6,,,42,127
66499,note_on,0,0,0,,12,,,71,127
66550,note_off,51,0,0,,12,,,71,127
66552,note_on,2,0,0,,10,,,69,127
66603,note_off,51,0,0,,10,,,69,127
66605,note_on,2,0,0,,12,,,71,127
66656,note_off,51,0,0,,12,,,71,127
66658,note_on,2,0,0,,10,,,69,127
66709,note_off,51,0,0,,10,,,69,127
66711,note_on,2,0,0,,12,,,71,127
66762,note_off,51,0,0,,12,,,71,127
66764,note_on,2,0,0,,10,,,69,127
66815,note_off,51,0,0,,10,,,69,127
66815,note_off,0,0,0,,6,,,42,127
66817,note_on,2,0,0,,6,,,66,127
66817,note_on,0,0,0,,0,,,72,127
67133,note_off,316,0,0,,0,,,72,127
67133,note_off,0,0,0,,6,,,66,127
67135,note_on,2,0,0,,2,,,38,127
67135,note_on,0,0,0,,7,,,67,127
67186,note_off,51,0,0,,7,,,67,127
67188,note_on,2,0,0,,6,,,66,127
67239,note_off,51,0,0,,6,,,66,127
67241,note_on,2,0,0,,7,,,67,127
67292,note_off,51,0,0,,7,,,67,127
67294,note_on,2,0,0,,6,,,66,127
67345,note_off,51,0,0,,6,,,66,127
67347,note_on,2,0,0,,7,,,67,127
67398,note_off,51,0,0,,7,,,67,127
67400,note_on,2,0,0,,6,,,66,127
67451,note_off,51,0,0,,6,,,66,127
67451,note_off,0,0,0,,2,,,38,127
67453,note_on,2,0,0,,2,,,62,127
67453,note_on,0,0,0,,6,,,78,127
67769,note_off,316,0,0,,6,,,78,127
67769,note_off,0,0,0,,2,,,62,127
67784,note_on,15,0,0,,4,,,76,127
67784,note_on,0,0,0,,12,,,47,127
67835,note_off,51,0,0,,4,,,76,127
67837,note_on,2,0,0,,2,,,74,127
67888,note_off,51,0,0,,2,,,74,127
67890,note_on,2,0,0,,4,,,76,127
67941,note_off,51,0,0,,4,,,76,127
67943,note_on,2,0,0,,2,,,74,127
67994,note_off,51,0,0,,2,,,74,127
67996,note_on,2,0,0,,4,,,76,127
68047,note_off,51,0,0,,4,,,76,127
68049,note_on,2,0,0,,2,,,74,127
68100,note_off,51,0,0,,2,,,74,127
68100,note_off,0,0,0,,12,,,47,127
68102,note_on,2,0,0,,6,,,78,127
68102,note_on,0,0,0,,12,,,71,127
68418,note_off,316,0,0,,12,,,71,127
68418,note_off,0,0,0,,6,,,78,127
68420,note_on,2,0,0,,0,,,72,127
68420,note_on,0,0,0,,7,,,43,127
68471,note_off,51,0,0,,0,,,72,127
68473,note_on,2,0,0,,12,,,71,127
68524,note_off,51,0,0,,12,,,71,127
68526,note_on,2,0,0,,0,,,72,127
68577,note_off,51,0,0,,0,,,72,127
68579,note_on,2,0,0,,12,,,71,127
68630,note_off,51,0,0,,12,,,71,127
68632,note_on,2,0,0,,0,,,72,127
68683,note_off,51,0,0,,0,,,72,127
68685,note_on,2,0,0,,12,,,71,127
68736,note_off,51,0,0,,12,,,71,127
68736,note_off,0,0,0,,7,,,43,127
68738,note_on,2,0,0,,2,,,74,127
68738,note_on,0,0,0,,7,,,67,127
69054,note_off,316,0,0,,7,,,67,127
69054,note_off,0,0,0,,2,,,74,127
69056,note_on,2,0,0,,10,,,69,127
69056,note_on,0,0,0,,4,,,40,127
69107,note_off,51,0,0,,10,,,69,127
69109,note_on,2,0,0,,7,,,67,127
69160,note_off,51,0,0,,7,,,67,127
69162,note_on,2,0,0,,10,,,69,127
69213,note_off,51,0,0,,10,,,69,127
69215,note_on,2,0,0,,7,,,67,127
69266,note_off,51,0,0,,7,,,67,127
69268,note_on,2,0,0,,10,,,69,127
69319,note_off,51,0,0,,10,,,69,127
69321,note_on,2,0,0,,7,,,67,127
69372,note_off,51,0,0,,7,,,67,127
69372,note_off,0,0,0,,4,,,40,127
69374,note_on,2,0,0,,12,,,71,127
69374,note_on,0,0,0,,4,,,64,127
69690,note_off,316,0,0,,4,,,64,127
69690,note_off,0,0,0,,12,,,71,127
69692,note_on,2,0,0,,6,,,66,127
69692,note_on,0,0,0,,0,,,36,127
69743,note_off,51,0,0,,6,,,66,127
69745,note_on,2,0,0,,4,,,64,127
69796,note_off,51,0,0,,4,,,64,127
69798,note_on,2,0,0,,6,,,66,127
69849,note_off,51,0,0,,6,,,66,127
69851,note_on,2,0,0,,4,,,64,127
69902,note_off,51,0,0,,4,,,64,127
69904,note_on,2,0,0,,6,,,66,127
69955,note_off,51,0,0,,6,,,66,127
69957,note_on,2,0,0,,4,,,64,127
70008,note_off,51,0,0,,4,,,64,127
70008,note_off,0,0,0,,0,,,36,127
70010,note_on,2,0,0,,4,,,76,127
70010,note_on,0,0,0,,0,,,60,127
70326,note_off,316,0,0,,0,,,60,127
70326,note_off,0,0,0,,4,,,76,127
70341,note_on,15,0,0,,10,,,45,127
70341,note_on,0,0,0,,2,,,74,127
70392,note_off,51,0,0,,2,,,74,127
70394,note_on,2,0,0,,0,,,72,127
70445,note_off,51,0,0,,0,,,72,127
70447,note_on,2,0,0,,2,,,74,127
70498,note_off,51,0,0,,2,,,74,127
70500,note_on,2,0,0,,0,,,72,127
70551,note_off,51,0,0,,0,,,72,127
70553,note_on,2,0,0,,2,,,74,127
70604,note_off,51,0,0,,2,,,74,127
70606,note_on,2,0,0,,0,,,72,127
70657,note_off,51,0,0,,0,,,72,127
70657,note_off,0,0,0,,10,,,45,127
70659,note_on,2,0,0,,10,,,69,127
70659,note_on,0,0,0,,4,,,76,127
70975,note_off,316,0,0,,4,,,76,127
70975,note_off,0,0,0,,10,,,69,127
70977,note_on,2,0,0,,6,,,42,127
70977,note_on,0,0,0,,12,,,71,127
71028,note_off,51,0,0,,12,,,71,127
71030,note_on,2,0,0,,10,,,69,127
71081,note_off,51,0,0,,10,,,69,127
71083,note_on,2,0,0,,12,,,71,127
71134,note_off,51,0,0,,12,,,71,127
71136,note_on,2,0,0,,10,,,69,127
71187,note_off,51,0,0,,10,,,69,127
71189,note_on,2,0,0,,12,,,71,127
71240,note_off,51,0,0,,12,,,71,127
71242,note_on,2,0,0,,10,,,69,127
71293,note_off,51,0,0,,10,,,69,127
71293,note_off,0,0,0,,6,,,42,127
71295,note_on,2,0,0,,6,,,66,127
71295,note_on,0,0,0,,0,,,72,127
71611,note_off,316,0,0,,0,,,72,127
71611,note_off,0,0,0,,6,,,66,127
71613,note_on,2,0,0,,2,,,38,127
71613,note_on,0,0,0,,6,,,66,127
71876,note_off,263,0,0,,6,,,66,127
71878,note_on,2,0,0,,7,,,67,127
71929,note_off,51,0,0,,7,,,67,127
71931,note_on,2,0,0,,10,,,69,127
71982,note_off,51,0,0,,10,,,69,127
71984,note_on,2,0,0,,12,,,71,127
72035,note_off,51,0,0,,12,,,71,127
72037,note_on,2,0,0,,0,,,72,127
72088,note_off,51,0,0,,0,,,72,127
72090,note_on,2,0,0,,2,,,74,127
72141,note_off,51,0,0,,2,,,74,127
72143,note_on,2,0,0,,4,,,76,127
72353,note_off,210,0,0,,4,,,76,127
72355,note_on,2,0,0,,2,,,74,127
72459,note_off,104,0,0,,2,,,74,127
72461,note_on,2,0,0,,0,,,72,127
72565,note_off,104,0,0,,0,,,72,127
72565,note_off,0,0,0,,2,,,38,127
72567,note_on,2,0,0,,0,,,48,127
72567,note_on,0,0,0,,0,,,36,127
72567,note_on,0,0,0,,12,,,71,127
72671,note_off,104,0,0,,12,,,71,127
72673,note_on,2,0,0,,10,,,69,127
72777,note_off,104,0,0,,10,,,69,127
72779,note_on,2,0,0,,7,,,67,127
72883,note_off,104,0,0,,7,,,67,127
72883,note_off,0,0,0,,0,,,36,127
72883,note_off,0,0,0,,0,,,48,127
72885,note_on,2,0,0,,2,,,50,127
72885,note_on,0,0,0,,2,,,38,127
72885,note_on,0,0,0,,6,,,66,127
73148,note_off,263,0,0,,6,,,66,127
73150,note_on,2,0,0,,7,,,67,127
73201,note_off,51,0,0,,7,,,67,127
73203,note_on,2,0,0,,10,,,69,127
73254,note_off,51,0,0,,10,,,69,127
73256,note_on,2,0,0,,12,,,71,127
73307,note_off,51,0,0,,12,,,71,127
73309,note_on,2,0,0,,0,,,72,127
73360,note_off,51,0,0,,0,,,72,127
73362,note_on,2,0,0,,2,,,74,127
73413,note_off,51,0,0,,2,,,74,127
73415,note_on,2,0,0,,4,,,76,127
73625,note_off,210,0,0,,4,,,76,127
73627,note_on,2,0,0,,2,,,74,127
73731,note_off,104,0,0,,2,,,74,127
73733,note_on,2,0,0,,0,,,72,127
73837,note_off,104,0,0,,0,,,72,127
73837,note_off,0,0,0,,2,,,38,127
73837,note_off,0,0,0,,2,,,50,127
73839,note_on,2,0,0,,0,,,36,127
73839,note_on,0,0,0,,0,,,48,127
73839,note_on,0,0,0,,12,,,71,127
73943,note_off,104,0,0,,12,,,71,127
73945,note_on,2,0,0,,10,,,69,127
74049,note_off,104,0,0,,10,,,69,127
74051,note_on,2,0,0,,7,,,67,127
74155,note_off,104,0,0,,7,,,67,127
74155,note_off,0,0,0,,0,,,48,127
74155,note_off,0,0,0,,0,,,36,127
74157,note_on,2,0,0,,2,,,50,127
74157,note_on,0,0,0,,2,,,38,127
74157,note_on,0,0,0,,7,,,67,127
74208,note_off,51,0,0,,7,,,67,127
74210,note_on,2,0,0,,6,,,66,127
74261,note_off,51,0,0,,6,,,66,127
74263,note_on,2,0,0,,7,,,67,127
74314,note_off,51,0,0,,7,,,67,127
74316,note_on,2,0,0,,6,,,66,127
74367,note_off,51,0,0,,6,,,66,127
74369,note_on,2,0,0,,7,,,67,127
74420,note_off,51,0,0,,7,,,67,127
74422,note_on,2,0,0,,6,,,66,127
74473,note_off,51,0,0,,6,,,66,127
74475,note_on,2,0,0,,7,,,67,127
74526,note_off,51,0,0,,7,,,67,127
74528,note_on,2,0,0,,6,,,66,127
74579,note_off,51,0,0,,6,,,66,127
74581,note_on,2,0,0,,7,,,67,127
74632,note_off,51,0,0,,7,,,67,127
74634,note_on,2,0,0,,6,,,66,127
74685,note_off,51,0,0,,6,,,66,127
74687,note_on,2,0,0,,4,,,64,127
74791,note_off,104,0,0,,4,,,64,127
74793,note_on,2,0,0,,2,,,62,127
75109,note_off,316,0,0,,2,,,62,127
75109,note_off,0,0,0,,2,,,38,127
75109,note_off,0,0,0,,2,,,50,127
75124,note_on,15,0,0,,0,,,72,127
75124,note_on,0,0,0,,6,,,54,127
75440,note_off,316,0,0,,6,,,54,127
75440,note_off,0,0,0,,0,,,72,127
75442,note_on,2,0,0,,12,,,71,127
75442,note_on,0,0,0,,7,,,55,127
75546,note_off,104,0,0,,12,,,71,127
75548,note_on,2,0,0,,0,,,72,127
75652,note_off,104,0,0,,0,,,72,127
75654,note_on,2,0,0,,2,,,74,127
75758,note_off,104,0,0,,2,,,74,127
75758,note_off,0,0,0,,7,,,55,127
75760,note_on,2,0,0,,0,,,72,127
75760,note_on,0,0,0,,0,,,48,127
75760,note_on,0,0,0,,0,,,60,127
75864,note_off,104,0,0,,0,,,72,127
75866,note_on,2,0,0,,12,,,71,127
75970,note_off,104,0,0,,12,,,71,127
75972,note_on,2,0,0,,10,,,69,127
76076,note_off,104,0,0,,10,,,69,127
76076,note_off,0,0,0,,0,,,60,127
76076,note_off,0,0,0,,0,,,48,127
76078,note_on,2,0,0,,7,,,67,127
76078,note_on,0,0,0,,2,,,50,127
76078,note_on,0,0,0,,7,,,55,127
76078,note_on,0,0,0,,12,,,59,127
76394,note_off,316,0,0,,12,,,59,127
76394,note_off,0,0,0,,7,,,55,127
76394,note_off,0,0,0,,7,,,67,127
76396,note_on,2,0,0,,12,,,71,127
76396,note_on,0,0,0,,10,,,57,127
76447,note_off,51,0,0,,12,,,71,127
76449,note_on,2,0,0,,10,,,69,127
76500,note_off,51,0,0,,10,,,69,127
76502,note_on,2,0,0,,12,,,71,127
76553,note_off,51,0,0,,12,,,71,127
76555,note_on,2,0,0,,10,,,69,127
76606,note_off,51,0,0,,10,,,69,127
76608,note_on,2,0,0,,7,,,67,127
76659,note_off,51,0,0,,7,,,67,127
76661,note_on,2,0,0,,10,,,69,127
76712,note_off,51,0,0,,10,,,69,127
76712,note_off,0,0,0,,10,,,57,127
76713,note_off,1,0,0,,2,,,50,127
76714,note_on,1,0,0,,7,,,67,127
76714,note_on,0,0,0,,7,,,43,127
76714,note_on,0,0,0,,7,,,55,127
77030,note_off,316,0,0,,7,,,67,127
77045,note_on,15,0,0,,7,,,79,127
77149,note_off,104,0,0,,7,,,79,127
77151,note_on,2,0,0,,2,,,74,127
77255,note_off,104,0,0,,2,,,74,127
77257,note_on,2,0,0,,12,,,71,127
77349,note_off,92,0,0,,7,,,55,127
77349,note_off,0,0,0,,7,,,43,127
77361,note_off,12,0,0,,12,,,71,127
77363,note_on,2,0,0,,0,,,72,127
77679,note_off,316,0,0,,0,,,72,127
77681,note_on,2,0,0,,2,,,62,127
77681,note_on,0,0,0,,0,,,60,127
77681,note_on,0,0,0,,6,,,54,127
77681,note_on,0,0,0,,10,,,81,127
77997,note_off,316,0,0,,6,,,54,127
77999,note_on,2,0,0,,7,,,55,127
78315,note_off,316,0,0,,10,,,81,127
78316,note_off,1,0,0,,0,,,60,127
78317,note_on,1,0,0,,12,,,59,127
78317,note_on,0,0,0,,7,,,79,127
78421,note_off,104,0,0,,7,,,79,127
78423,note_on,2,0,0,,2,,,74,127
78527,note_off,104,0,0,,2,,,74,127
78529,note_on,2,0,0,,12,,,71,127
78633,note_off,104,0,0,,12,,,71,127
78634,note_off,1,0,0,,12,,,59,127
78634,note_off,0,0,0,,7,,,55,127
78635,note_off,1,0,0,,2,,,62,127
78635,note_on,0,0,0,,0,,,72,127
78951,note_off,316,0,0,,0,,,72,127
78953,note_on,2,0,0,,2,,,62,127
78953,note_on,0,0,0,,0,,,60,127
78953,note_on,0,0,0,,6,,,54,127
78953,note_on,0,0,0,,10,,,81,127
79269,note_off,316,0,0,,6,,,54,127
79271,note_on,2,0,0,,7,,,55,127
79587,note_off,316,0,0,,10,,,81,127
79588,note_off,1,0,0,,0,,,60,127
79589,note_on,1,0,0,,12,,,59,127
79589,note_on,0,0,0,,12,,,71,127
79693,note_off,104,0,0,,12,,,71,127
79695,note_on,2,0,0,,0,,,72,127
79799,note_off,104,0,0,,0,,,72,127
79801,note_on,2,0,0,,2,,,74,127
79904,note_off,103,0,0,,12,,,59,127
79906,note_off,2,0,0,,2,,,74,127
79907,note_off,1,0,0,,7,,,55,127
79908,note_off,1,0,0,,2,,,62,127
79908,note_on,0,0,0,,10,,,69,127
80226,note_on,318,0,0,,10,,,57,127
80226,note_on,0,0,0,,7,,,55,127
80226,note_on,0,0,0,,0,,,48,127
80542,note_off,316,0,0,,0,,,48,127
80544,note_on,2,0,0,,2,,,50,127
80860,note_off,316,0,0,,10,,,69,127
80861,note_off,1,0,0,,7,,,55,127
80862,note_on,1,0,0,,6,,,54,127
80862,note_on,0,0,0,,12,,,71,127
80966,note_off,104,0,0,,12,,,71,127
80968,note_on,2,0,0,,0,,,72,127
81072,note_off,104,0,0,,0,,,72,127
81074,note_on,2,0,0,,2,,,74,127
81177,note_off,103,0,0,,6,,,54,127
81179,note_off,2,0,0,,2,,,74,127
81180,note_off,1,0,0,,2,,,50,127
81181,note_off,1,0,0,,10,,,57,127
81181,note_on,0,0,0,,10,,,69,127
81499,note_on,318,0,0,,10,,,57,127
81499,note_on,0,0,0,,7,,,55,127
81499,note_on,0,0,0,,0,,,48,127
81815,note_off,316,0,0,,0,,,48,127
81817,note_on,2,0,0,,2,,,50,127
82133,note_off,316,0,0,,10,,,69,127
82134,note_off,1,0,0,,7,,,55,127
82135,note_on,1,0,0,,6,,,54,127
82135,note_on,0,0,0,,0,,,72,127
82239,note_off,104,0,0,,0,,,72,127
82241,note_on,2,0,0,,2,,,74,127
82345,note_off,104,0,0,,2,,,74,127
82347,note_on,2,0,0,,4,,,76,127
82450,note_off,103,0,0,,6,,,54,127
82452,note_off,2,0,0,,4,,,76,127
82453,note_off,1,0,0,,2,,,50,127
82454,note_off,1,0,0,,10,,,57,127
82454,note_on,0,0,0,,10,,,69,127
82772,note_on,318,0,0,,10,,,57,127
82772,note_on,0,0,0,,7,,,55,127
82772,note_on,0,0,0,,0,,,48,127
82772,note_on,0,0,0,,6,,,78,127
82876,note_off,104,0,0,,6,,,78,127
82878,note_on,2,0,0,,7,,,79,127
82982,note_off,104,0,0,,7,,,79,127
82984,note_on,2,0,0,,10,,,81,127
83088,note_off,104,0,0,,10,,,81,127
83089,note_off,1,0,0,,10,,,69,127
83090,note_on,1,0,0,,10,,,69,127
83406,note_off,316,0,0,,10,,,69,127
83406,note_off,0,0,0,,0,,,48,127
83406,note_off,0,0,0,,7,,,55,127
83406,note_off,0,0,0,,10,,,57,127
83408,note_on,2,0,0,,0,,,48,127
83408,note_on,0,0,0,,12,,,71,127
83512,note_off,104,0,0,,12,,,71,127
83514,note_on,2,0,0,,0,,,72,127
83618,note_off,104,0,0,,0,,,72,127
83620,note_on,2,0,0,,2,,,74,127
83724,note_off,104,0,0,,2,,,74,127
83724,note_off,0,0,0,,0,,,48,127
83726,note_on,2,0,0,,2,,,50,127
83726,note_on,0,0,0,,7,,,67,127
83726,note_on,0,0,0,,12,,,71,127
84042,note_off,316,0,0,,12,,,71,127
84042,note_off,0,0,0,,7,,,67,127
84044,note_on,2,0,0,,2,,,38,127
84044,note_on,0,0,0,,10,,,69,127
84044,note_on,0,0,0,,6,,,66,127
84360,note_off,316,0,0,,6,,,66,127
84360,note_off,0,0,0,,10,,,69,127
84360,note_off,0,0,0,,2,,,38,127
84361,note_off,1,0,0,,2,,,50,127
84362,note_on,1,0,0,,7,,,55,127
84362,note_on,0,0,0,,7,,,43,127
84362,note_on,0,0,0,,7,,,67,127
84678,note_off,316,0,0,,7,,,67,127
84678,note_off,0,0,0,,7,,,43,127
84678,note_off,0,0,0,,7,,,55,127
84693,note_on,15,0,0,,7,,,79,127
84693,note_on,0,0,0,,12,,,59,127
85009,note_off,316,0,0,,12,,,59,127
85009,note_off,0,0,0,,7,,,79,127
85011,note_on,2,0,0,,6,,,78,127
85011,note_on,0,0,0,,0,,,60,127
85168,note_off,157,0,0,,6,,,78,127
85170,note_on,2,0,0,,4,,,76,127
85327,note_off,157,0,0,,4,,,76,127
85327,note_off,0,0,0,,0,,,60,127
85329,note_on,2,0,0,,2,,,74,127
85329,note_on,0,0,0,,10,,,57,127
85486,note_off,157,0,0,,2,,,74,127
85488,note_on,2,0,0,,0,,,72,127
85645,note_off,157,0,0,,0,,,72,127
85645,note_off,0,0,0,,10,,,57,127
85647,note_on,2,0,0,,12,,,71,127
85647,note_on,0,0,0,,6,,,54,127
85804,note_off,157,0,0,,12,,,71,127
85806,note_on,2,0,0,,10,,,69,127
85963,note_off,157,0,0,,10,,,69,127
85963,note_off,0,0,0,,6,,,54,127
85965,note_on,2,0,0,,12,,,71,127
85965,note_on,0,0,0,,7,,,55,127
86069,note_off,104,0,0,,12,,,71,127
86071,note_on,2,0,0,,0,,,72,127
86175,note_off,104,0,0,,0,,,72,127
86177,note_on,2,0,0,,2,,,74,127
86281,note_off,104,0,0,,2,,,74,127
86281,note_off,0,0,0,,7,,,55,127
86283,note_on,2,0,0,,7,,,67,127
86283,note_on,0,0,0,,2,,,50,127
86599,note_off,316,0,0,,7,,,67,127
86601,note_on,2,0,0,,6,,,66,127
86601,note_on,0,0,0,,2,,,38,127
86915,note_off,314,0,0,,6,,,66,127
86917,note_off,2,0,0,,2,,,38,127
86918,note_off,1,0,0,,2,,,50,127
86932,note_on,14,0,0,,7,,,43,127
87248,note_off,316,0,0,,7,,,43,127
87250,note_on,2,0,0,,4,,,52,127
87250,note_on,0,0,0,,7,,,67,127
87566,note_off,316,0,0,,7,,,67,127
87566,note_off,0,0,0,,4,,,52,127
87568,note_on,2,0,0,,0,,,48,127
87568,note_on,0,0,0,,6,,,66,127
87725,note_off,157,0,0,,6,,,66,127
87727,note_on,2,0,0,,4,,,64,127
87884,note_off,157,0,0,,4,,,64,127
87884,note_off,0,0,0,,0,,,48,127
87886,note_on,2,0,0,,10,,,45,127
87886,note_on,0,0,0,,2,,,62,127
88043,note_off,157,0,0,,2,,,62,127
88045,note_on,2,0,0,,0,,,60,127
88202,note_off,157,0,0,,0,,,60,127
88202,note_off,0,0,0,,10,,,45,127
88204,note_on,2,0,0,,6,,,42,127
88204,note_on,0,0,0,,12,,,59,127
88361,note_off,157,0,0,,12,,,59,127
88363,note_on,2,0,0,,10,,,57,127
88520,note_off,157,0,0,,10,,,57,127
88520,note_off,0,0,0,,6,,,42,127
88522,note_on,2,0,0,,7,,,43,127
88522,note_on,0,0,0,,12,,,59,127
88626,note_off,104,0,0,,12,,,59,127
88628,note_on,2,0,0,,0,,,60,127
88732,note_off,104,0,0,,0,,,60,127
88734,note_on,2,0,0,,2,,,62,127
88838,note_off,104,0,0,,2,,,62,127
88838,note_off,0,0,0,,7,,,43,127
88840,note_on,2,0,0,,2,,,50,127
88840,note_on,0,0,0,,7,,,55,127
89156,note_off,316,0,0,,7,,,55,127
89158,note_on,2,0,0,,2,,,38,127
89158,note_on,0,0,0,,6,,,54,127
89474,note_off,316,0,0,,6,,,54,127
89474,note_off,0,0,0,,2,,,38,127
89475,note_off,1,0,0,,2,,,50,127
89476,note_on,1,0,0,,7,,,43,127
89476,note_on,0,0,0,,6,,,54,127
89936,note_on,460,0,0,,7,,,55,127
89951,note_off,15,0,0,,6,,,54,127
90746,note_off,795,0,0,,7,,,55,127
90758,note_off,12,0,0,,7,,,43,127
90892,note_on,134,0,0,,10,,,69,127
90892,note_on,0,0,0,,7,,,55,127
90892,note_on,0,0,0,,0,,,60,127
90954,note_off,62,0,0,,0,,,60,127
90954,note_off,0,0,0,,10,,,69,127
90956,note_on,2,0,0,,7,,,67,127
90956,note_on,0,0,0,,11,,,58,127
91018,note_off,62,0,0,,11,,,58,127
91018,note_off,0,0,0,,7,,,67,127
91020,note_on,2,0,0,,10,,,69,127
91020,note_on,0,0,0,,0,,,60,127
91082,note_off,62,0,0,,0,,,60,127
91082,note_off,0,0,0,,10,,,69,127
91084,note_on,2,0,0,,7,,,67,127
91084,note_on,0,0,0,,11,,,58,127
91146,note_off,62,0,0,,11,,,58,127
91146,note_off,0,0,0,,7,,,67,127
91148,note_on,2,0,0,,6,,,66,127
91148,note_on,0,0,0,,10,,,57,127
91209,note_off,61,0,0,,10,,,57,127
91209,note_off,0,0,0,,6,,,66,127
91211,note_on,2,0,0,,7,,,67,127
91211,note_on,0,0,0,,11,,,58,127
91368,note_off,157,0,0,,11,,,58,127
91368,note_off,0,0,0,,7,,,67,127
91370,note_on,2,0,0,,10,,,69,127
91370,note_on,0,0,0,,0,,,60,127
91527,note_off,157,0,0,,0,,,60,127
91527,note_off,0,0,0,,10,,,69,127
91529,note_on,2,0,0,,11,,,70,127
91529,note_on,0,0,0,,2,,,62,127
91845,note_off,316,0,0,,2,,,62,127
91845,note_off,0,0,0,,11,,,70,127
91847,note_on,2,0,0,,11,,,70,127
91847,note_on,0,0,0,,2,,,62,127
92160,note_off,313,0,0,,7,,,55,127
92163,note_off,3,0,0,,2,,,62,127
92163,note_off,0,0,0,,11,,,70,127
92178,note_on,15,0,0,,3,,,63,127
92178,note_on,0,0,0,,7,,,55,127
92178,note_on,0,0,0,,0,,,72,127
92240,note_off,62,0,0,,0,,,72,127
92240,note_off,0,0,0,,3,,,63,127
92242,note_on,2,0,0,,2,,,62,127
92242,note_on,0,0,0,,11,,,70,127
92304,note_off,62,0,0,,11,,,70,127
92304,note_off,0,0,0,,2,,,62,127
92306,note_on,2,0,0,,3,,,63,127
92306,note_on,0,0,0,,0,,,72,127
92368,note_off,62,0,0,,0,,,72,127
92368,note_off,0,0,0,,3,,,63,127
92370,note_on,2,0,0,,2,,,62,127
92370,note_on,0,0,0,,11,,,70,127
92432,note_off,62,0,0,,11,,,70,127
92432,note_off,0,0,0,,2,,,62,127
92434,note_on,2,0,0,,0,,,60,127
92434,note_on,0,0,0,,10,,,69,127
92495,note_off,61,0,0,,10,,,69,127
92495,note_off,0,0,0,,0,,,60,127
92497,note_on,2,0,0,,2,,,62,127
92497,note_on,0,0,0,,11,,,70,127
92654,note_off,157,0,0,,11,,,70,127
92654,note_off,0,0,0,,2,,,62,127
92656,note_on,2,0,0,,3,,,63,127
92656,note_on,0,0,0,,0,,,72,127
92813,note_off,157,0,0,,0,,,72,127
92813,note_off,0,0,0,,3,,,63,127
92815,note_on,2,0,0,,5,,,65,127
92815,note_on,0,0,0,,2,,,74,127
93131,note_off,316,0,0,,2,,,74,127
93131,note_off,0,0,0,,5,,,65,127
93133,note_on,2,0,0,,5,,,65,127
93133,note_on,0,0,0,,2,,,74,127
93446,note_off,313,0,0,,7,,,55,127
93449,note_off,3,0,0,,2,,,74,127
93449,note_off,0,0,0,,5,,,65,127
93474,note_on,25,0,0,,11,,,82,127
93474,note_on,0,0,0,,7,,,55,127
93474,note_on,0,0,0,,7,,,67,127
93474,note_on,0,0,0,,3,,,63,127
93790,note_off,316,0,0,,3,,,63,127
93790,note_off,0,0,0,,7,,,67,127
93790,note_off,0,0,0,,7,,,55,127
93790,note_off,0,0,0,,11,,,82,127
93792,note_on,2,0,0,,7,,,79,127
93792,note_on,0,0,0,,7,,,55,127
93792,note_on,0,0,0,,7,,,67,127
93792,note_on,0,0,0,,3,,,63,127
94108,note_off,316,0,0,,3,,,63,127
94108,note_off,0,0,0,,7,,,67,127
94108,note_off,0,0,0,,7,,,55,127
94108,note_off,0,0,0,,7,,,79,127
94110,note_on,2,0,0,,3,,,75,127
94110,note_on,0,0,0,,7,,,55,127
94110,note_on,0,0,0,,3,,,63,127
94110,note_on,0,0,0,,7,,,67,127
94426,note_off,316,0,0,,7,,,67,127
94426,note_off,0,0,0,,3,,,63,127
94426,note_off,0,0,0,,7,,,55,127
94426,note_off,0,0,0,,3,,,75,127
94428,note_on,2,0,0,,1,,,73,127
94428,note_on,0,0,0,,7,,,55,127
94428,note_on,0,0,0,,3,,,63,127
94428,note_on,0,0,0,,7,,,67,127
94744,note_off,316,0,0,,7,,,67,127
94744,note_off,0,0,0,,3,,,63,127
94744,note_off,0,0,0,,7,,,55,127
94746,note_on,2,0,0,,8,,,56,127
95062,note_off,316,0,0,,1,,,73,127
95064,note_on,2,0,0,,0,,,72,127
95221,note_off,157,0,0,,0,,,72,127
95223,note_on,2,0,0,,11,,,70,127
95380,note_off,157,0,0,,11,,,70,127
95382,note_on,2,0,0,,11,,,70,127
95382,note_on,0,0,0,,8,,,44,127
95698,note_off,316,0,0,,11,,,70,127
95700,note_on,2,0,0,,0,,,72,127
95998,note_off,298,0,0,,0,,,72,127
96013,note_off,15,0,0,,8,,,56,127
96016,note_off,3,0,0,,8,,,44,127
96036,note_on,20,0,0,,1,,,73,127
96036,note_on,0,0,0,,11,,,70,127
96098,note_off,62,0,0,,11,,,70,127
96098,note_off,0,0,0,,1,,,73,127
96100,note_on,2,0,0,,0,,,72,127
96100,note_on,0,0,0,,8,,,68,127
96162,note_off,62,0,0,,8,,,68,127
96162,note_off,0,0,0,,0,,,72,127
96164,note_on,2,0,0,,1,,,73,127
96164,note_on,0,0,0,,11,,,70,127
96226,note_off,62,0,0,,11,,,70,127
96226,note_off,0,0,0,,1,,,73,127
96228,note_on,2,0,0,,0,,,72,127
96228,note_on,0,0,0,,8,,,68,127
96290,note_off,62,0,0,,8,,,68,127
96290,note_off,0,0,0,,0,,,72,127
96292,note_on,2,0,0,,11,,,70,127
96292,note_on,0,0,0,,7,,,67,127
96353,note_off,61,0,0,,7,,,67,127
96353,note_off,0,0,0,,11,,,70,127
96355,note_on,2,0,0,,0,,,72,127
96355,note_on,0,0,0,,8,,,68,127
96512,note_off,157,0,0,,8,,,68,127
96512,note_off,0,0,0,,0,,,72,127
96514,note_on,2,0,0,,1,,,73,127
96514,note_on,0,0,0,,11,,,70,127
96671,note_off,157,0,0,,11,,,70,127
96671,note_off,0,0,0,,1,,,73,127
96673,note_on,2,0,0,,3,,,75,127
96673,note_on,0,0,0,,0,,,72,127
96989,note_off,316,0,0,,0,,,72,127
96989,note_off,0,0,0,,3,,,75,127
96991,note_on,2,0,0,,3,,,75,127
96991,note_on,0,0,0,,0,,,72,127
97307,note_off,316,0,0,,0,,,72,127
97307,note_off,0,0,0,,3,,,75,127
97309,note_on,2,0,0,,5,,,77,127
97309,note_on,0,0,0,,1,,,73,127
97309,note_on,0,0,0,,8,,,68,127
97371,note_off,62,0,0,,1,,,73,127
97371,note_off,0,0,0,,5,,,77,127
97373,note_on,2,0,0,,3,,,75,127
97373,note_on,0,0,0,,0,,,72,127
97435,note_off,62,0,0,,0,,,72,127
97435,note_off,0,0,0,,3,,,75,127
97437,note_on,2,0,0,,5,,,77,127
97437,note_on,0,0,0,,1,,,73,127
97499,note_off,62,0,0,,1,,,73,127
97499,note_off,0,0,0,,5,,,77,127
97501,note_on,2,0,0,,3,,,75,127
97501,note_on,0,0,0,,0,,,72,127
97563,note_off,62,0,0,,0,,,72,127
97563,note_off,0,0,0,,3,,,75,127
97565,note_on,2,0,0,,1,,,73,127
97565,note_on,0,0,0,,11,,,70,127
97626,note_off,61,0,0,,11,,,70,127
97626,note_off,0,0,0,,1,,,73,127
97628,note_on,2,0,0,,3,,,75,127
97628,note_on,0,0,0,,0,,,72,127
97785,note_off,157,0,0,,0,,,72,127
97785,note_off,0,0,0,,3,,,75,127
97787,note_on,2,0,0,,5,,,77,127
97787,note_on,0,0,0,,1,,,73,127
97944,note_off,157,0,0,,1,,,73,127
97944,note_off,0,0,0,,5,,,77,127
97945,note_off,1,0,0,,8,,,68,127
97946,note_on,1,0,0,,6,,,78,127
97946,note_on,0,0,0,,3,,,75,127
97946,note_on,0,0,0,,8,,,68,127
98262,note_off,316,0,0,,3,,,75,127
98262,note_off,0,0,0,,6,,,78,127
98264,note_on,2,0,0,,6,,,78,127
98264,note_on,0,0,0,,3,,,75,127
98580,note_off,316,0,0,,3,,,75,127
98580,note_off,0,0,0,,6,,,78,127
98581,note_off,1,0,0,,8,,,68,127
98582,note_on,1,0,0,,3,,,75,127
98582,note_on,0,0,0,,6,,,78,127
98582,note_on,0,0,0,,8,,,44,127
98898,note_off,316,0,0,,8,,,44,127
98898,note_off,0,0,0,,6,,,78,127
98898,note_off,0,0,0,,3,,,75,127
98900,note_on,2,0,0,,1,,,73,127
98900,note_on,0,0,0,,5,,,77,127
98900,note_on,0,0,0,,8,,,68,127
99216,note_off,316,0,0,,8,,,68,127
99216,note_off,0,0,0,,5,,,77,127
99216,note_off,0,0,0,,1,,,73,127
99218,note_on,2,0,0,,1,,,73,127
99218,note_on,0,0,0,,5,,,77,127
99218,note_on,0,0,0,,8,,,44,127
99534,note_off,316,0,0,,8,,,44,127
99534,note_off,0,0,0,,5,,,77,127
99534,note_off,0,0,0,,1,,,73,127
99536,note_on,2,0,0,,0,,,72,127
99536,note_on,0,0,0,,3,,,75,127
99536,note_on,0,0,0,,8,,,68,127
99852,note_off,316,0,0,,8,,,68,127
99852,note_off,0,0,0,,3,,,75,127
99852,note_off,0,0,0,,0,,,72,127
99854,note_on,2,0,0,,5,,,77,127
99854,note_on,0,0,0,,1,,,49,127
99854,note_on,0,0,0,,1,,,37,127
100064,note_off,210,0,0,,5,,,77,127
100066,note_on,2,0,0,,3,,,75,127
100170,note_off,104,0,0,,3,,,75,127
100172,note_on,2,0,0,,1,,,73,127
100382,note_off,210,0,0,,1,,,73,127
100384,note_on,2,0,0,,0,,,72,127
100488,note_off,104,0,0,,0,,,72,127
100490,note_on,2,0,0,,0,,,72,127
100806,note_off,316,0,0,,0,,,72,127
100808,note_on,2,0,0,,1,,,73,127
101013,note_off,205,0,0,,1,,,37,127
101013,note_off,0,0,0,,1,,,49,127
101124,note_off,111,0,0,,1,,,73,127
101139,note_on,15,0,0,,1,,,49,127
101139,note_on,0,0,0,,7,,,79,127
101201,note_off,62,0,0,,7,,,79,127
101203,note_on,2,0,0,,5,,,77,127
101265,note_off,62,0,0,,5,,,77,127
101267,note_on,2,0,0,,7,,,79,127
101329,note_off,62,0,0,,7,,,79,127
101331,note_on,2,0,0,,5,,,77,127
101393,note_off,62,0,0,,5,,,77,127
101395,note_on,2,0,0,,4,,,76,127
101456,note_off,61,0,0,,4,,,76,127
101456,note_off,0,0,0,,1,,,49,127
101458,note_on,2,0,0,,1,,,73,127
101458,note_on,0,0,0,,5,,,77,127
101615,note_off,157,0,0,,5,,,77,127
101617,note_on,2,0,0,,7,,,79,127
101774,note_off,157,0,0,,7,,,79,127
101774,note_off,0,0,0,,1,,,73,127
101776,note_on,2,0,0,,0,,,48,127
101776,note_on,0,0,0,,7,,,79,127
101776,note_on,0,0,0,,4,,,76,127
102092,note_off,316,0,0,,7,,,79,127
102092,note_off,0,0,0,,0,,,48,127
102094,note_on,2,0,0,,0,,,72,127
102094,note_on,0,0,0,,8,,,80,127
102410,note_off,316,0,0,,8,,,80,127
102410,note_off,0,0,0,,0,,,72,127
102411,note_off,1,0,0,,4,,,76,127
102412,note_on,1,0,0,,11,,,46,127
102412,note_on,0,0,0,,8,,,80,127
102474,note_off,62,0,0,,8,,,80,127
102476,note_on,2,0,0,,7,,,79,127
102538,note_off,62,0,0,,7,,,79,127
102540,note_on,2,0,0,,8,,,80,127
102602,note_off,62,0,0,,8,,,80,127
102604,note_on,2,0,0,,7,,,79,127
102666,note_off,62,0,0,,7,,,79,127
102668,note_on,2,0,0,,5,,,77,127
102729,note_off,61,0,0,,5,,,77,127
102729,note_off,0,0,0,,11,,,46,127
102731,note_on,2,0,0,,11,,,70,127
102731,note_on,0,0,0,,7,,,79,127
102888,note_off,157,0,0,,7,,,79,127
102890,note_on,2,0,0,,8,,,80,127
103047,note_off,157,0,0,,8,,,80,127
103047,note_off,0,0,0,,11,,,70,127
103049,note_on,2,0,0,,7,,,43,127
103049,note_on,0,0,0,,8,,,80,127
103049,note_on,0,0,0,,5,,,77,127
103365,note_off,316,0,0,,8,,,80,127
103365,note_off,0,0,0,,7,,,43,127
103367,note_on,2,0,0,,7,,,67,127
103367,note_on,0,0,0,,11,,,82,127
103683,note_off,316,0,0,,11,,,82,127
103683,note_off,0,0,0,,7,,,67,127
103684,note_off,1,0,0,,5,,,77,127
103698,note_on,14,0,0,,5,,,77,127
103698,note_on,0,0,0,,0,,,48,127
103760,note_off,62,0,0,,5,,,77,127
103762,note_on,2,0,0,,4,,,76,127
103824,note_off,62,0,0,,4,,,76,127
103826,note_on,2,0,0,,5,,,77,127
103888,note_off,62,0,0,,5,,,77,127
103890,note_on,2,0,0,,4,,,76,127
103952,note_off,62,0,0,,4,,,76,127
103954,note_on,2,0,0,,2,,,74,127
104015,note_off,61,0,0,,2,,,74,127
104015,note_off,0,0,0,,0,,,48,127
104017,note_on,2,0,0,,4,,,76,127
104017,note_on,0,0,0,,0,,,72,127
104174,note_off,157,0,0,,4,,,76,127
104176,note_on,2,0,0,,5,,,77,127
104333,note_off,157,0,0,,5,,,77,127
104333,note_off,0,0,0,,0,,,72,127
104335,note_on,2,0,0,,5,,,77,127
104335,note_on,0,0,0,,1,,,73,127
104335,note_on,0,0,0,,11,,,46,127
104651,note_off,316,0,0,,11,,,46,127
104651,note_off,0,0,0,,5,,,77,127
104653,note_on,2,0,0,,7,,,79,127
104653,note_on,0,0,0,,11,,,70,127
104969,note_off,316,0,0,,11,,,70,127
104969,note_off,0,0,0,,7,,,79,127
104970,note_off,1,0,0,,1,,,73,127
104971,note_on,1,0,0,,1,,,73,127
104971,note_on,0,0,0,,8,,,44,127
105033,note_off,62,0,0,,1,,,73,127
105035,note_on,2,0,0,,0,,,72,127
105097,note_off,62,0,0,,0,,,72,127
105099,note_on,2,0,0,,1,,,73,127
105161,note_off,62,0,0,,1,,,73,127
105163,note_on,2,0,0,,0,,,72,127
105225,note_off,62,0,0,,0,,,72,127
105227,note_on,2,0,0,,12,,,71,127
105288,note_off,61,0,0,,12,,,71,127
105288,note_off,0,0,0,,8,,,44,127
105290,note_on,2,0,0,,0,,,72,127
105290,note_on,0,0,0,,8,,,68,127
105447,note_off,157,0,0,,0,,,72,127
105449,note_on,2,0,0,,4,,,76,127
105606,note_off,157,0,0,,4,,,76,127
105606,note_off,0,0,0,,8,,,68,127
105608,note_on,2,0,0,,0,,,72,127
105608,note_on,0,0,0,,4,,,76,127
105608,note_on,0,0,0,,5,,,41,127
105924,note_off,316,0,0,,5,,,41,127
105924,note_off,0,0,0,,4,,,76,127
105926,note_on,2,0,0,,5,,,77,127
105926,note_on,0,0,0,,5,,,65,127
106242,note_off,316,0,0,,5,,,65,127
106242,note_off,0,0,0,,5,,,77,127
106243,note_off,1,0,0,,0,,,72,127
106257,note_on,14,0,0,,7,,,43,127
106257,note_on,0,0,0,,0,,,72,127
106319,note_off,62,0,0,,0,,,72,127
106321,note_on,2,0,0,,11,,,70,127
106383,note_off,62,0,0,,11,,,70,127
106385,note_on,2,0,0,,0,,,72,127
106447,note_off,62,0,0,,0,,,72,127
106449,note_on,2,0,0,,11,,,70,127
106511,note_off,62,0,0,,11,,,70,127
106513,note_on,2,0,0,,8,,,68,127
106574,note_off,61,0,0,,8,,,68,127
106574,note_off,0,0,0,,7,,,43,127
106576,note_on,2,0,0,,7,,,67,127
106576,note_on,0,0,0,,11,,,70,127
106733,note_off,157,0,0,,11,,,70,127
106735,note_on,2,0,0,,0,,,72,127
106892,note_off,157,0,0,,0,,,72,127
106892,note_off,0,0,0,,7,,,67,127
106894,note_on,2,0,0,,5,,,41,127
106894,note_on,0,0,0,,4,,,76,127
106894,note_on,0,0,0,,11,,,70,127
106894,note_on,0,0,0,,1,,,73,127
107210,note_off,316,0,0,,4,,,76,127
107210,note_off,0,0,0,,5,,,41,127
107212,note_on,2,0,0,,5,,,65,127
107212,note_on,0,0,0,,5,,,77,127
107528,note_off,316,0,0,,5,,,77,127
107528,note_off,0,0,0,,5,,,65,127
107529,note_off,1,0,0,,11,,,70,127
107530,note_on,1,0,0,,4,,,40,127
107530,note_on,0,0,0,,7,,,79,127
107846,note_off,316,0,0,,7,,,79,127
107846,note_off,0,0,0,,4,,,40,127
107848,note_off,2,0,0,,1,,,73,127
107848,note_on,0,0,0,,4,,,64,127
107848,note_on,0,0,0,,0,,,72,127
108164,note_off,316,0,0,,4,,,64,127
108166,note_on,2,0,0,,0,,,36,127
108323,note_off,157,0,0,,0,,,72,127
108325,note_on,2,0,0,,11,,,70,127
108482,note_off,157,0,0,,11,,,70,127
108482,note_off,0,0,0,,0,,,36,127
108484,note_on,2,0,0,,0,,,60,127
108484,note_on,0,0,0,,8,,,68,127
108641,note_off,157,0,0,,8,,,68,127
108643,note_on,2,0,0,,7,,,67,127
108775,note_off,132,0,0,,7,,,67,127
108800,note_off,25,0,0,,0,,,60,127
108815,note_on,15,0,0,,11,,,70,127
108815,note_on,0,0,0,,5,,,41,127
108877,note_off,62,0,0,,11,,,70,127
108879,note_on,2,0,0,,8,,,68,127
108941,note_off,62,0,0,,8,,,68,127
108943,note_on,2,0,0,,11,,,70,127
109005,note_off,62,0,0,,11,,,70,127
109007,note_on,2,0,0,,8,,,68,127
109069,note_off,62,0,0,,8,,,68,127
109071,note_on,2,0,0,,7,,,67,127
109132,note_off,61,0,0,,7,,,67,127
109132,note_off,0,0,0,,5,,,41,127
109134,note_on,2,0,0,,8,,,68,127
109134,note_on,0,0,0,,5,,,65,127
109291,note_off,157,0,0,,8,,,68,127
109293,note_on,2,0,0,,12,,,71,127
109450,note_off,157,0,0,,12,,,71,127
109450,note_off,0,0,0,,5,,,65,127
109452,note_on,2,0,0,,12,,,71,127
109452,note_on,0,0,0,,7,,,67,127
109452,note_on,0,0,0,,3,,,39,127
109768,note_off,316,0,0,,3,,,39,127
109768,note_off,0,0,0,,12,,,71,127
109770,note_on,2,0,0,,0,,,72,127
109770,note_on,0,0,0,,3,,,63,127
110086,note_off,316,0,0,,3,,,63,127
110086,note_off,0,0,0,,0,,,72,127
110087,note_off,1,0,0,,7,,,67,127
110088,note_on,1,0,0,,2,,,74,127
110088,note_on,0,0,0,,5,,,65,127
110088,note_on,0,0,0,,2,,,38,127
110404,note_off,316,0,0,,2,,,38,127
110406,note_on,2,0,0,,2,,,62,127
110510,note_off,104,0,0,,2,,,74,127
110512,note_on,2,0,0,,3,,,75,127
110616,note_off,104,0,0,,3,,,75,127
110618,note_on,2,0,0,,5,,,77,127
110722,note_off,104,0,0,,5,,,77,127
110722,note_off,0,0,0,,2,,,62,127
110723,note_off,1,0,0,,5,,,65,127
110724,note_on,1,0,0,,7,,,67,127
110724,note_on,0,0,0,,0,,,72,127
110724,note_on,0,0,0,,3,,,75,127
110724,note_on,0,0,0,,7,,,43,127
111040,note_off,316,0,0,,7,,,43,127
111040,note_off,0,0,0,,3,,,75,127
111040,note_off,0,0,0,,0,,,72,127
111042,note_on,2,0,0,,12,,,71,127
111042,note_on,0,0,0,,2,,,74,127
111358,note_off,316,0,0,,2,,,74,127
111358,note_off,0,0,0,,12,,,71,127
111359,note_off,1,0,0,,7,,,67,127
111373,note_on,14,0,0,,0,,,48,127
111373,note_on,0,0,0,,5,,,77,127
111424,note_off,51,0,0,,5,,,77,127
111426,note_on,2,0,0,,3,,,75,127
111477,note_off,51,0,0,,3,,,75,127
111479,note_on,2,0,0,,5,,,77,127
111530,note_off,51,0,0,,5,,,77,127
111532,note_on,2,0,0,,3,,,75,127
111583,note_off,51,0,0,,3,,,75,127
111585,note_on,2,0,0,,2,,,74,127
111689,note_off,104,0,0,,2,,,74,127
111689,note_off,0,0,0,,0,,,48,127
111691,note_on,2,0,0,,0,,,72,127
111691,note_on,0,0,0,,3,,,75,127
111848,note_off,157,0,0,,3,,,75,127
111850,note_on,2,0,0,,7,,,79,127
112007,note_off,157,0,0,,7,,,79,127
112007,note_off,0,0,0,,0,,,72,127
112009,note_on,2,0,0,,11,,,46,127
112009,note_on,0,0,0,,3,,,75,127
112060,note_off,51,0,0,,3,,,75,127
112062,note_on,2,0,0,,2,,,74,127
112113,note_off,51,0,0,,2,,,74,127
112115,note_on,2,0,0,,3,,,75,127
112166,note_off,51,0,0,,3,,,75,127
112168,note_on,2,0,0,,2,,,74,127
112219,note_off,51,0,0,,2,,,74,127
112221,note_on,2,0,0,,0,,,72,127
112325,note_off,104,0,0,,0,,,72,127
112325,note_off,0,0,0,,11,,,46,127
112327,note_on,2,0,0,,11,,,70,127
112327,note_on,0,0,0,,2,,,74,127
112484,note_off,157,0,0,,2,,,74,127
112486,note_on,2,0,0,,7,,,79,127
112643,note_off,157,0,0,,7,,,79,127
112643,note_off,0,0,0,,11,,,70,127
112645,note_on,2,0,0,,8,,,44,127
112645,note_on,0,0,0,,0,,,72,127
112961,note_off,316,0,0,,0,,,72,127
112961,note_off,0,0,0,,8,,,44,127
112963,note_on,2,0,0,,8,,,68,127
112963,note_on,0,0,0,,8,,,80,127
113279,note_off,316,0,0,,8,,,68,127
113281,note_on,2,0,0,,5,,,41,127
113385,note_off,104,0,0,,8,,,80,127
113387,note_on,2,0,0,,7,,,79,127
113491,note_off,104,0,0,,7,,,79,127
113493,note_on,2,0,0,,5,,,77,127
113597,note_off,104,0,0,,5,,,77,127
113597,note_off,0,0,0,,5,,,41,127
113599,note_on,2,0,0,,5,,,65,127
113599,note_on,0,0,0,,3,,,75,127
113703,note_off,104,0,0,,3,,,75,127
113705,note_on,2,0,0,,2,,,74,127
113809,note_off,104,0,0,,2,,,74,127
113811,note_on,2,0,0,,0,,,72,127
113915,note_off,104,0,0,,0,,,72,127
113915,note_off,0,0,0,,5,,,65,127
113917,note_on,2,0,0,,7,,,43,127
113917,note_on,0,0,0,,12,,,71,127
114233,note_off,316,0,0,,12,,,71,127
114233,note_off,0,0,0,,7,,,43,127
114248,note_on,15,0,0,,7,,,79,127
114248,note_on,0,0,0,,7,,,67,127
114564,note_off,316,0,0,,7,,,67,127
114566,note_on,2,0,0,,3,,,39,127
114670,note_off,104,0,0,,7,,,79,127
114672,note_on,2,0,0,,5,,,77,127
114776,note_off,104,0,0,,5,,,77,127
114778,note_on,2,0,0,,3,,,75,127
114882,note_off,104,0,0,,3,,,75,127
114882,note_off,0,0,0,,3,,,39,127
114884,note_on,2,0,0,,2,,,74,127
114884,note_on,0,0,0,,3,,,63,127
114988,note_off,104,0,0,,2,,,74,127
114990,note_on,2,0,0,,0,,,72,127
115094,note_off,104,0,0,,0,,,72,127
115096,note_on,2,0,0,,12,,,71,127
115200,note_off,104,0,0,,12,,,71,127
115200,note_off,0,0,0,,3,,,63,127
115202,note_on,2,0,0,,0,,,72,127
115202,note_on,0,0,0,,8,,,44,127
115518,note_off,316,0,0,,8,,,44,127
115518,note_off,0,0,0,,0,,,72,127
115533,note_on,15,0,0,,8,,,68,127
115533,note_on,0,0,0,,8,,,80,127
115849,note_off,316,0,0,,8,,,68,127
115851,note_on,2,0,0,,5,,,41,127
115955,note_off,104,0,0,,8,,,80,127
115957,note_on,2,0,0,,7,,,79,127
116061,note_off,104,0,0,,7,,,79,127
116063,note_on,2,0,0,,5,,,77,127
116167,note_off,104,0,0,,5,,,77,127
116167,note_off,0,0,0,,5,,,41,127
116169,note_on,2,0,0,,5,,,65,127
116169,note_on,0,0,0,,3,,,75,127
116273,note_off,104,0,0,,3,,,75,127
116275,note_on,2,0,0,,2,,,74,127
116379,note_off,104,0,0,,2,,,74,127
116381,note_on,2,0,0,,0,,,72,127
116485,note_off,104,0,0,,0,,,72,127
116485,note_off,0,0,0,,5,,,65,127
116487,note_on,2,0,0,,7,,,43,127
116487,note_on,0,0,0,,0,,,72,127
116538,note_off,51,0,0,,0,,,72,127
116540,note_on,2,0,0,,12,,,71,127
116591,note_off,51,0,0,,12,,,71,127
116593,note_on,2,0,0,,0,,,72,127
116644,note_off,51,0,0,,0,,,72,127
116646,note_on,2,0,0,,12,,,71,127
116697,note_off,51,0,0,,12,,,71,127
116699,note_on,2,0,0,,0,,,72,127
116750,note_off,51,0,0,,0,,,72,127
116752,note_on,2,0,0,,12,,,71,127
116803,note_off,51,0,0,,12,,,71,127
116805,note_on,2,0,0,,0,,,72,127
116856,note_off,51,0,0,,0,,,72,127
116858,note_on,2,0,0,,12,,,71,127
116962,note_off,104,0,0,,12,,,71,127
116964,note_on,2,0,0,,10,,,69,127
117121,note_off,157,0,0,,10,,,69,127
117123,note_on,2,0,0,,7,,,67,127
117599,note_off,476,0,0,,7,,,67,127
117757,note_off,158,0,0,,7,,,43,127
117785,note_on,28,0,0,,10,,,69,127
117785,note_on,0,0,0,,0,,,72,127
117847,note_off,62,0,0,,0,,,72,127
117847,note_off,0,0,0,,10,,,69,127
117849,note_on,2,0,0,,7,,,67,127
117849,note_on,0,0,0,,12,,,71,127
117911,note_off,62,0,0,,12,,,71,127
117911,note_off,0,0,0,,7,,,67,127
117913,note_on,2,0,0,,10,,,69,127
117913,note_on,0,0,0,,0,,,72,127
117975,note_off,62,0,0,,0,,,72,127
117975,note_off,0,0,0,,10,,,69,127
117977,note_on,2,0,0,,7,,,67,127
117977,note_on,0,0,0,,12,,,71,127
118039,note_off,62,0,0,,12,,,71,127
118039,note_off,0,0,0,,7,,,67,127
118041,note_on,2,0,0,,6,,,66,127
118041,note_on,0,0,0,,10,,,69,127
118102,note_off,61,0,0,,10,,,69,127
118102,note_off,0,0,0,,6,,,66,127
118104,note_on,2,0,0,,7,,,67,127
118104,note_on,0,0,0,,12,,,71,127
118261,note_off,157,0,0,,12,,,71,127
118261,note_off,0,0,0,,7,,,67,127
118263,note_on,2,0,0,,10,,,69,127
118263,note_on,0,0,0,,0,,,72,127
118420,note_off,157,0,0,,0,,,72,127
118420,note_off,0,0,0,,10,,,69,127
118422,note_on,2,0,0,,12,,,71,127
118422,note_on,0,0,0,,7,,,67,127
118422,note_on,0,0,0,,2,,,74,127
118738,note_off,316,0,0,,2,,,74,127
118738,note_off,0,0,0,,12,,,71,127
118740,note_on,2,0,0,,12,,,71,127
118740,note_on,0,0,0,,2,,,74,127
119056,note_off,316,0,0,,2,,,74,127
119056,note_off,0,0,0,,12,,,71,127
119057,note_off,1,0,0,,7,,,67,127
119058,note_on,1,0,0,,7,,,43,127
119058,note_on,0,0,0,,7,,,79,127
119374,note_off,316,0,0,,7,,,79,127
119374,note_off,0,0,0,,7,,,43,127
119376,note_on,2,0,0,,7,,,67,127
119376,note_on,0,0,0,,4,,,76,127
119376,note_on,0,0,0,,0,,,72,127
119692,note_off,316,0,0,,0,,,72,127
119692,note_off,0,0,0,,4,,,76,127
119692,note_off,0,0,0,,7,,,67,127
119694,note_on,2,0,0,,7,,,43,127
119694,note_on,0,0,0,,2,,,74,127
119694,note_on,0,0,0,,12,,,71,127
120010,note_off,316,0,0,,12,,,71,127
120010,note_off,0,0,0,,2,,,74,127
120010,note_off,0,0,0,,7,,,43,127
120012,note_on,2,0,0,,7,,,67,127
120012,note_on,0,0,0,,0,,,72,127
120012,note_on,0,0,0,,10,,,69,127
120328,note_off,316,0,0,,10,,,69,127
120328,note_off,0,0,0,,0,,,72,127
120328,note_off,0,0,0,,7,,,67,127
120343,note_on,15,0,0,,0,,,72,127
120343,note_on,0,0,0,,7,,,43,127
120405,note_off,62,0,0,,0,,,72,127
120407,note_on,2,0,0,,12,,,71,127
120469,note_off,62,0,0,,12,,,71,127
120471,note_on,2,0,0,,0,,,72,127
120533,note_off,62,0,0,,0,,,72,127
120535,note_on,2,0,0,,12,,,71,127
120597,note_off,62,0,0,,12,,,71,127
120599,note_on,2,0,0,,10,,,69,127
120660,note_off,61,0,0,,10,,,69,127
120662,note_on,2,0,0,,12,,,71,127
120819,note_off,157,0,0,,12,,,71,127
120821,note_on,2,0,0,,0,,,72,127
120978,note_off,157,0,0,,0,,,72,127
120979,note_off,1,0,0,,7,,,43,127
120980,note_on,1,0,0,,2,,,74,127
121296,note_off,316,0,0,,2,,,74,127
121298,note_on,2,0,0,,2,,,74,127
121602,note_off,304,0,0,,2,,,74,127
121629,note_on,27,0,0,,2,,,74,127
121629,note_on,0,0,0,,5,,,77,127
121691,note_off,62,0,0,,5,,,77,127
121691,note_off,0,0,0,,2,,,74,127
121693,note_on,2,0,0,,0,,,72,127
121693,note_on,0,0,0,,4,,,76,127
121755,note_off,62,0,0,,4,,,76,127
121755,note_off,0,0,0,,0,,,72,127
121757,note_on,2,0,0,,2,,,74,127
121757,note_on,0,0,0,,5,,,77,127
121819,note_off,62,0,0,,5,,,77,127
121819,note_off,0,0,0,,2,,,74,127
121821,note_on,2,0,0,,0,,,72,127
121821,note_on,0,0,0,,4,,,76,127
121883,note_off,62,0,0,,4,,,76,127
121883,note_off,0,0,0,,0,,,72,127
121885,note_on,2,0,0,,12,,,71,127
121885,note_on,0,0,0,,2,,,74,127
121946,note_off,61,0,0,,2,,,74,127
121946,note_off,0,0,0,,12,,,71,127
121948,note_on,2,0,0,,0,,,72,127
121948,note_on,0,0,0,,4,,,76,127
122105,note_off,157,0,0,,4,,,76,127
122105,note_off,0,0,0,,0,,,72,127
122107,note_on,2,0,0,,2,,,74,127
122107,note_on,0,0,0,,5,,,77,127
122264,note_off,157,0,0,,5,,,77,127
122264,note_off,0,0,0,,2,,,74,127
122266,note_on,2,0,0,,4,,,76,127
122266,note_on,0,0,0,,7,,,79,127
122582,note_off,316,0,0,,7,,,79,127
122582,note_off,0,0,0,,4,,,76,127
122584,note_on,2,0,0,,4,,,76,127
122584,note_on,0,0,0,,7,,,79,127
122900,note_off,316,0,0,,7,,,79,127
122900,note_off,0,0,0,,4,,,76,127
122902,note_on,2,0,0,,0,,,48,127
122902,note_on,0,0,0,,0,,,84,127
123218,note_off,316,0,0,,0,,,84,127
123218,note_off,0,0,0,,0,,,48,127
123220,note_on,2,0,0,,0,,,72,127
123220,note_on,0,0,0,,10,,,81,127
123220,note_on,0,0,0,,5,,,77,127
123536,note_off,316,0,0,,5,,,77,127
123536,note_off,0,0,0,,10,,,81,127
123536,note_off,0,0,0,,0,,,72,127
123538,note_on,2,0,0,,0,,,48,127
123538,note_on,0,0,0,,7,,,79,127
123538,note_on,0,0,0,,4,,,76,127
123854,note_off,316,0,0,,4,,,76,127
123854,note_off,0,0,0,,7,,,79,127
123854,note_off,0,0,0,,0,,,48,127
123856,note_on,2,0,0,,0,,,72,127
123856,note_on,0,0,0,,2,,,74,127
123856,note_on,0,0,0,,5,,,77,127
124172,note_off,316,0,0,,5,,,77,127
124172,note_off,0,0,0,,2,,,74,127
124172,note_off,0,0,0,,0,,,72,127
124187,note_on,15,0,0,,5,,,77,127
124187,note_on,0,0,0,,0,,,48,127
124249,note_off,62,0,0,,5,,,77,127
124251,note_on,2,0,0,,4,,,76,127
124313,note_off,62,0,0,,4,,,76,127
124315,note_on,2,0,0,,5,,,77,127
124377,note_off,62,0,0,,5,,,77,127
124379,note_on,2,0,0,,4,,,76,127
124441,note_off,62,0,0,,4,,,76,127
124443,note_on,2,0,0,,2,,,74,127
124504,note_off,61,0,0,,2,,,74,127
124504,note_off,0,0,0,,0,,,48,127
124506,note_on,2,0,0,,4,,,76,127
124506,note_on,0,0,0,,0,,,72,127
124663,note_off,157,0,0,,4,,,76,127
124665,note_on,2,0,0,,5,,,77,127
124822,note_off,157,0,0,,5,,,77,127
124822,note_off,0,0,0,,0,,,72,127
124824,note_on,2,0,0,,7,,,79,127
124824,note_on,0,0,0,,4,,,52,127
125140,note_off,316,0,0,,4,,,52,127
125140,note_off,0,0,0,,7,,,79,127
125142,note_on,2,0,0,,0,,,84,127
125142,note_on,0,0,0,,4,,,76,127
125458,note_off,316,0,0,,4,,,76,127
125458,note_off,0,0,0,,0,,,84,127
125460,note_on,2,0,0,,12,,,83,127
125460,note_on,0,0,0,,5,,,53,127
125511,note_off,51,0,0,,12,,,83,127
125513,note_on,2,0,0,,10,,,81,127
125564,note_off,51,0,0,,10,,,81,127
125566,note_on,2,0,0,,12,,,83,127
125617,note_off,51,0,0,,12,,,83,127
125619,note_on,2,0,0,,10,,,81,127
125670,note_off,51,0,0,,10,,,81,127
125672,note_on,2,0,0,,12,,,83,127
125723,note_off,51,0,0,,12,,,83,127
125725,note_on,2,0,0,,10,,,81,127
125776,note_off,51,0,0,,10,,,81,127
125776,note_off,0,0,0,,5,,,53,127
125778,note_on,2,0,0,,0,,,84,127
125778,note_on,0,0,0,,5,,,77,127
126094,note_off,316,0,0,,5,,,77,127
126094,note_off,0,0,0,,0,,,84,127
126096,note_on,2,0,0,,7,,,79,127
126096,note_on,0,0,0,,2,,,50,127
126147,note_off,51,0,0,,7,,,79,127
126149,note_on,2,0,0,,5,,,77,127
126200,note_off,51,0,0,,5,,,77,127
126202,note_on,2,0,0,,7,,,79,127
126253,note_off,51,0,0,,7,,,79,127
126255,note_on,2,0,0,,5,,,77,127
126306,note_off,51,0,0,,5,,,77,127
126308,note_on,2,0,0,,7,,,79,127
126359,note_off,51,0,0,,7,,,79,127
126361,note_on,2,0,0,,5,,,77,127
126412,note_off,51,0,0,,5,,,77,127
126412,note_off,0,0,0,,2,,,50,127
126414,note_on,2,0,0,,10,,,81,127
126414,note_on,0,0,0,,2,,,74,127
126730,note_off,316,0,0,,2,,,74,127
126730,note_off,0,0,0,,10,,,81,127
126732,note_on,2,0,0,,4,,,76,127
126732,note_on,0,0,0,,12,,,47,127
126783,note_off,51,0,0,,4,,,76,127
126785,note_on,2,0,0,,2,,,74,127
126836,note_off,51,0,0,,2,,,74,127
126838,note_on,2,0,0,,4,,,76,127
126889,note_off,51,0,0,,4,,,76,127
126891,note_on,2,0,0,,2,,,74,127
126942,note_off,51,0,0,,2,,,74,127
126944,note_on,2,0,0,,4,,,76,127
126995,note_off,51,0,0,,4,,,76,127
126997,note_on,2,0,0,,2,,,74,127
127048,note_off,51,0,0,,2,,,74,127
127048,note_off,0,0,0,,12,,,47,127
127050,note_on,2,0,0,,5,,,77,127
127050,note_on,0,0,0,,12,,,71,127
127366,note_off,316,0,0,,12,,,71,127
127366,note_off,0,0,0,,5,,,77,127
127368,note_on,2,0,0,,0,,,72,127
127368,note_on,0,0,0,,7,,,43,127
127419,note_off,51,0,0,,0,,,72,127
127421,note_on,2,0,0,,12,,,71,127
127472,note_off,51,0,0,,12,,,71,127
127474,note_on,2,0,0,,0,,,72,127
127525,note_off,51,0,0,,0,,,72,127
127527,note_on,2,0,0,,12,,,71,127
127578,note_off,51,0,0,,12,,,71,127
127580,note_on,2,0,0,,0,,,72,127
127631,note_off,51,0,0,,0,,,72,127
127633,note_on,2,0,0,,12,,,71,127
127684,note_off,51,0,0,,12,,,71,127
127684,note_off,0,0,0,,7,,,43,127
127686,note_on,2,0,0,,12,,,83,127
127686,note_on,0,0,0,,7,,,67,127
128002,note_off,316,0,0,,7,,,67,127
128002,note_off,0,0,0,,12,,,83,127
128017,note_on,15,0,0,,4,,,52,127
128017,note_on,0,0,0,,10,,,81,127
128068,note_off,51,0,0,,10,,,81,127
128070,note_on,2,0,0,,7,,,79,127
128121,note_off,51,0,0,,7,,,79,127
128123,note_on,2,0,0,,10,,,81,127
128174,note_off,51,0,0,,10,,,81,127
128176,note_on,2,0,0,,7,,,79,127
128227,note_off,51,0,0,,7,,,79,127
128229,note_on,2,0,0,,10,,,81,127
128280,note_off,51,0,0,,10,,,81,127
128282,note_on,2,0,0,,7,,,79,127
128333,note_off,51,0,0,,7,,,79,127
128333,note_off,0,0,0,,4,,,52,127
128335,note_on,2,0,0,,4,,,76,127
128335,note_on,0,0,0,,12,,,83,127
128651,note_off,316,0,0,,12,,,83,127
128651,note_off,0,0,0,,4,,,76,127
128653,note_on,2,0,0,,0,,,48,127
128653,note_on,0,0,0,,5,,,77,127
128704,note_off,51,0,0,,5,,,77,127
128706,note_on,2,0,0,,4,,,76,127
128757,note_off,51,0,0,,4,,,76,127
128759,note_on,2,0,0,,5,,,77,127
128810,note_off,51,0,0,,5,,,77,127
128812,note_on,2,0,0,,4,,,76,127
128863,note_off,51,0,0,,4,,,76,127
128865,note_on,2,0,0,,5,,,77,127
128916,note_off,51,0,0,,5,,,77,127
128918,note_on,2,0,0,,4,,,76,127
128969,note_off,51,0,0,,4,,,76,127
128969,note_off,0,0,0,,0,,,48,127
128971,note_on,2,0,0,,0,,,72,127
128971,note_on,0,0,0,,7,,,79,127
129287,note_off,316,0,0,,7,,,79,127
129287,note_off,0,0,0,,0,,,72,127
129289,note_on,2,0,0,,10,,,45,127
129289,note_on,0,0,0,,2,,,74,127
129340,note_off,51,0,0,,2,,,74,127
129342,note_on,2,0,0,,0,,,72,127
129393,note_off,51,0,0,,0,,,72,127
129395,note_on,2,0,0,,2,,,74,127
129446,note_off,51,0,0,,2,,,74,127
129448,note_on,2,0,0,,0,,,72,127
129499,note_off,51,0,0,,0,,,72,127
129501,note_on,2,0,0,,2,,,74,127
129552,note_off,51,0,0,,2,,,74,127
129554,note_on,2,0,0,,0,,,72,127
129605,note_off,51,0,0,,0,,,72,127
129605,note_off,0,0,0,,10,,,45,127
129607,note_on,2,0,0,,10,,,69,127
129607,note_on,0,0,0,,4,,,76,127
129923,note_off,316,0,0,,4,,,76,127
129923,note_off,0,0,0,,10,,,69,127
129925,note_on,2,0,0,,5,,,41,127
129925,note_on,0,0,0,,12,,,71,127
129976,note_off,51,0,0,,12,,,71,127
129978,note_on,2,0,0,,10,,,69,127
130029,note_off,51,0,0,,10,,,69,127
130031,note_on,2,0,0,,12,,,71,127
130082,note_off,51,0,0,,12,,,71,127
130084,note_on,2,0,0,,10,,,69,127
130135,note_off,51,0,0,,10,,,69,127
130137,note_on,2,0,0,,12,,,71,127
130188,note_off,51,0,0,,12,,,71,127
130190,note_on,2,0,0,,10,,,69,127
130241,note_off,51,0,0,,10,,,69,127
130241,note_off,0,0,0,,5,,,41,127
130243,note_on,2,0,0,,5,,,65,127
130243,note_on,0,0,0,,10,,,81,127
130559,note_off,316,0,0,,10,,,81,127
130559,note_off,0,0,0,,5,,,65,127
130574,note_on,15,0,0,,7,,,79,127
130574,note_on,0,0,0,,2,,,50,127
130625,note_off,51,0,0,,7,,,79,127
130627,note_on,2,0,0,,5,,,77,127
130678,note_off,51,0,0,,5,,,77,127
130680,note_on,2,0,0,,7,,,79,127
130731,note_off,51,0,0,,7,,,79,127
130733,note_on,2,0,0,,5,,,77,127
130784,note_off,51,0,0,,5,,,77,127
130786,note_on,2,0,0,,7,,,79,127
130837,note_off,51,0,0,,7,,,79,127
130839,note_on,2,0,0,,5,,,77,127
130890,note_off,51,0,0,,5,,,77,127
130890,note_off,0,0,0,,2,,,50,127
130892,note_on,2,0,0,,10,,,81,127
130892,note_on,0,0,0,,2,,,74,127
131208,note_off,316,0,0,,2,,,74,127
131208,note_off,0,0,0,,10,,,81,127
131210,note_on,2,0,0,,4,,,76,127
131210,note_on,0,0,0,,12,,,47,127
131261,note_off,51,0,0,,4,,,76,127
131263,note_on,2,0,0,,2,,,74,127
131314,note_off,51,0,0,,2,,,74,127
131316,note_on,2,0,0,,4,,,76,127
131367,note_off,51,0,0,,4,,,76,127
131369,note_on,2,0,0,,2,,,74,127
131420,note_off,51,0,0,,2,,,74,127
131422,note_on,2,0,0,,4,,,76,127
131473,note_off,51,0,0,,4,,,76,127
131475,note_on,2,0,0,,2,,,74,127
131526,note_off,51,0,0,,2,,,74,127
131526,note_off,0,0,0,,12,,,47,127
131528,note_on,2,0,0,,5,,,77,127
131528,note_on,0,0,0,,12,,,71,127
131844,note_off,316,0,0,,12,,,71,127
131844,note_off,0,0,0,,5,,,77,127
131846,note_on,2,0,0,,12,,,71,127
131846,note_on,0,0,0,,7,,,43,127
132109,note_off,263,0,0,,12,,,71,127
132124,note_on,15,0,0,,0,,,72,127
132175,note_off,51,0,0,,0,,,72,127
132177,note_on,2,0,0,,2,,,74,127
132228,note_off,51,0,0,,2,,,74,127
132230,note_on,2,0,0,,4,,,76,127
132281,note_off,51,0,0,,4,,,76,127
132283,note_on,2,0,0,,5,,,77,127
132334,note_off,51,0,0,,5,,,77,127
132336,note_on,2,0,0,,7,,,79,127
132387,note_off,51,0,0,,7,,,79,127
132389,note_on,2,0,0,,10,,,81,127
132599,note_off,210,0,0,,10,,,81,127
132601,note_on,2,0,0,,7,,,79,127
132705,note_off,104,0,0,,7,,,79,127
132707,note_on,2,0,0,,5,,,77,127
132798,note_off,91,0,0,,7,,,43,127
132811,note_off,13,0,0,,5,,,77,127
132813,note_on,2,0,0,,5,,,53,127
132813,note_on,0,0,0,,5,,,41,127
132813,note_on,0,0,0,,4,,,76,127
132917,note_off,104,0,0,,4,,,76,127
132919,note_on,2,0,0,,2,,,74,127
133023,note_off,104,0,0,,2,,,74,127
133025,note_on,2,0,0,,0,,,72,127
133129,note_off,104,0,0,,0,,,72,127
133129,note_off,0,0,0,,5,,,41,127
133129,note_off,0,0,0,,5,,,53,127
133131,note_on,2,0,0,,7,,,55,127
133131,note_on,0,0,0,,7,,,43,127
133131,note_on,0,0,0,,12,,,71,127
133394,note_off,263,0,0,,12,,,71,127
133409,note_on,15,0,0,,0,,,72,127
133460,note_off,51,0,0,,0,,,72,127
133462,note_on,2,0,0,,2,,,74,127
133513,note_off,51,0,0,,2,,,74,127
133515,note_on,2,0,0,,4,,,76,127
133566,note_off,51,0,0,,4,,,76,127
133568,note_on,2,0,0,,5,,,77,127
133619,note_off,51,0,0,,5,,,77,127
133621,note_on,2,0,0,,7,,,79,127
133672,note_off,51,0,0,,7,,,79,127
133674,note_on,2,0,0,,10,,,81,127
133884,note_off,210,0,0,,10,,,81,127
133886,note_on,2,0,0,,7,,,79,127
133990,note_off,104,0,0,,7,,,79,127
133992,note_on,2,0,0,,5,,,77,127
134083,note_off,91,0,0,,7,,,43,127
134083,note_off,0,0,0,,7,,,55,127
134096,note_off,13,0,0,,5,,,77,127
134098,note_on,2,0,0,,4,,,76,127
134098,note_on,0,0,0,,5,,,41,127
134098,note_on,0,0,0,,5,,,53,127
134202,note_off,104,0,0,,4,,,76,127
134204,note_on,2,0,0,,2,,,74,127
134308,note_off,104,0,0,,2,,,74,127
134310,note_on,2,0,0,,0,,,72,127
134414,note_off,104,0,0,,0,,,72,127
134414,note_off,0,0,0,,5,,,53,127
134414,note_off,0,0,0,,5,,,41,127
134416,note_on,2,0,0,,0,,,72,127
134416,note_on,0,0,0,,7,,,43,127
134416,note_on,0,0,0,,7,,,55,127
134467,note_off,51,0,0,,0,,,72,127
134469,note_on,2,0,0,,12,,,71,127
134520,note_off,51,0,0,,12,,,71,127
134522,note_on,2,0,0,,0,,,72,127
134573,note_off,51,0,0,,0,,,72,127
134575,note_on,2,0,0,,12,,,71,127
134626,note_off,51,0,0,,12,,,71,127
134628,note_on,2,0,0,,0,,,72,127
134679,note_off,51,0,0,,0,,,72,127
134681,note_on,2,0,0,,12,,,71,127
134732,note_off,51,0,0,,12,,,71,127
134734,note_on,2,0,0,,0,,,72,127
134785,note_off,51,0,0,,0,,,72,127
134787,note_on,2,0,0,,12,,,71,127
134838,note_off,51,0,0,,12,,,71,127
134840,note_on,2,0,0,,0,,,72,127
134891,note_off,51,0,0,,0,,,72,127
134893,note_on,2,0,0,,12,,,71,127
134944,note_off,51,0,0,,12,,,71,127
134946,note_on,2,0,0,,10,,,69,127
135050,note_off,104,0,0,,10,,,69,127
135052,note_on,2,0,0,,7,,,67,127
135368,note_off,316,0,0,,7,,,67,127
135368,note_off,0,0,0,,7,,,55,127
135368,note_off,0,0,0,,7,,,43,127
135370,note_on,2,0,0,,5,,,77,127
135370,note_on,0,0,0,,12,,,47,127
135370,note_on,0,0,0,,7,,,55,127
135686,note_off,316,0,0,,7,,,55,127
135686,note_off,0,0,0,,12,,,47,127
135686,note_off,0,0,0,,5,,,77,127
135688,note_on,2,0,0,,4,,,76,127
135688,note_on,0,0,0,,0,,,48,127
135792,note_off,104,0,0,,4,,,76,127
135794,note_on,2,0,0,,5,,,77,127
135898,note_off,104,0,0,,5,,,77,127
135900,note_on,2,0,0,,7,,,79,127
136004,note_off,104,0,0,,7,,,79,127
136004,note_off,0,0,0,,0,,,48,127
136006,note_on,2,0,0,,5,,,77,127
136006,note_on,0,0,0,,5,,,53,127
136110,note_off,104,0,0,,5,,,77,127
136112,note_on,2,0,0,,4,,,76,127
136216,note_off,104,0,0,,4,,,76,127
136218,note_on,2,0,0,,2,,,74,127
136322,note_off,104,0,0,,2,,,74,127
136322,note_off,0,0,0,,5,,,53,127
136324,note_on,2,0,0,,0,,,72,127
136324,note_on,0,0,0,,7,,,55,127
136640,note_off,316,0,0,,0,,,72,127
136642,note_on,2,0,0,,4,,,76,127
136642,note_on,0,0,0,,7,,,43,127
136693,note_off,51,0,0,,4,,,76,127
136695,note_on,2,0,0,,2,,,74,127
136746,note_off,51,0,0,,2,,,74,127
136748,note_on,2,0,0,,4,,,76,127
136799,note_off,51,0,0,,4,,,76,127
136801,note_on,2,0,0,,2,,,74,127
136852,note_off,51,0,0,,2,,,74,127
136854,note_on,2,0,0,,0,,,72,127
136905,note_off,51,0,0,,0,,,72,127
136907,note_on,2,0,0,,2,,,74,127
136958,note_off,51,0,0,,2,,,74,127
136958,note_off,0,0,0,,7,,,43,127
136959,note_off,1,0,0,,7,,,55,127
136960,note_on,1,0,0,,0,,,72,127
136960,note_on,0,0,0,,0,,,60,127
136960,note_on,0,0,0,,0,,,48,127
137276,note_off,316,0,0,,0,,,72,127
137291,note_on,15,0,0,,0,,,84,127
137395,note_off,104,0,0,,0,,,84,127
137397,note_on,2,0,0,,7,,,79,127
137501,note_off,104,0,0,,7,,,79,127
137503,note_on,2,0,0,,4,,,76,127
137595,note_off,92,0,0,,0,,,48,127
137595,note_off,0,0,0,,0,,,60,127
137607,note_off,12,0,0,,4,,,76,127
137609,note_on,2,0,0,,5,,,77,127
137925,note_off,316,0,0,,5,,,77,127
137927,note_on,2,0,0,,5,,,65,127
137927,note_on,0,0,0,,7,,,67,127
137927,note_on,0,0,0,,12,,,59,127
137927,note_on,0,0,0,,2,,,86,127
138243,note_off,316,0,0,,12,,,59,127
138245,note_on,2,0,0,,0,,,60,127
138561,note_off,316,0,0,,2,,,86,127
138562,note_off,1,0,0,,5,,,65,127
138576,note_on,14,0,0,,0,,,84,127
138576,note_on,0,0,0,,4,,,64,127
138680,note_off,104,0,0,,0,,,84,127
138682,note_on,2,0,0,,7,,,79,127
138786,note_off,104,0,0,,7,,,79,127
138788,note_on,2,0,0,,4,,,76,127
138880,note_off,92,0,0,,0,,,60,127
138881,note_off,1,0,0,,7,,,67,127
138891,note_off,10,0,0,,4,,,64,127
138893,note_off,2,0,0,,4,,,76,127
138895,note_on,2,0,0,,5,,,77,127
139211,note_off,316,0,0,,5,,,77,127
139213,note_on,2,0,0,,2,,,86,127
139213,note_on,0,0,0,,12,,,59,127
139213,note_on,0,0,0,,5,,,65,127
139213,note_on,0,0,0,,7,,,67,127
139529,note_off,316,0,0,,12,,,59,127
139531,note_on,2,0,0,,0,,,60,127
139847,note_off,316,0,0,,2,,,86,127
139848,note_off,1,0,0,,5,,,65,127
139862,note_on,14,0,0,,4,,,64,127
139862,note_on,0,0,0,,4,,,76,127
139966,note_off,104,0,0,,4,,,76,127
139968,note_on,2,0,0,,5,,,77,127
140072,note_off,104,0,0,,5,,,77,127
140074,note_on,2,0,0,,7,,,79,127
140166,note_off,92,0,0,,0,,,60,127
140167,note_off,1,0,0,,7,,,67,127
140177,note_off,10,0,0,,4,,,64,127
140179,note_off,2,0,0,,7,,,79,127
140181,note_on,2,0,0,,2,,,74,127
140499,note_on,318,0,0,,2,,,62,127
140499,note_on,0,0,0,,0,,,60,127
140499,note_on,0,0,0,,5,,,53,127
140815,note_off,316,0,0,,5,,,53,127
140817,note_on,2,0,0,,7,,,55,127
141133,note_off,316,0,0,,2,,,74,127
141134,note_off,1,0,0,,0,,,60,127
141148,note_on,14,0,0,,4,,,76,127
141148,note_on,0,0,0,,12,,,59,127
141252,note_off,104,0,0,,4,,,76,127
141254,note_on,2,0,0,,5,,,77,127
141358,note_off,104,0,0,,5,,,77,127
141360,note_on,2,0,0,,7,,,79,127
141452,note_off,92,0,0,,7,,,55,127
141453,note_off,1,0,0,,2,,,62,127
141465,note_off,12,0,0,,7,,,79,127
141466,note_off,1,0,0,,12,,,59,127
141467,note_on,1,0,0,,2,,,74,127
141785,note_on,318,0,0,,5,,,53,127
141785,note_on,0,0,0,,0,,,60,127
141785,note_on,0,0,0,,2,,,62,127
142101,note_off,316,0,0,,5,,,53,127
142103,note_on,2,0,0,,7,,,55,127
142419,note_off,316,0,0,,2,,,74,127
142420,note_off,1,0,0,,0,,,60,127
142434,note_on,14,0,0,,12,,,59,127
142434,note_on,0,0,0,,5,,,77,127
142538,note_off,104,0,0,,5,,,77,127
142540,note_on,2,0,0,,7,,,79,127
142644,note_off,104,0,0,,7,,,79,127
142646,note_on,2,0,0,,10,,,81,127
142738,note_off,92,0,0,,7,,,55,127
142739,note_off,1,0,0,,2,,,62,127
142749,note_off,10,0,0,,12,,,59,127
142751,note_off,2,0,0,,10,,,81,127
142753,note_on,2,0,0,,2,,,74,127
143071,note_on,318,0,0,,2,,,62,127
143071,note_on,0,0,0,,5,,,53,127
143071,note_on,0,0,0,,0,,,60,127
143071,note_on,0,0,0,,12,,,83,127
143175,note_off,104,0,0,,12,,,83,127
143177,note_on,2,0,0,,0,,,84,127
143281,note_off,104,0,0,,0,,,84,127
143283,note_on,2,0,0,,2,,,86,127
143387,note_off,104,0,0,,2,,,86,127
143388,note_off,1,0,0,,2,,,74,127
143389,note_on,1,0,0,,2,,,74,127
143705,note_off,316,0,0,,2,,,74,127
143705,note_off,0,0,0,,0,,,60,127
143705,note_off,0,0,0,,5,,,53,127
143705,note_off,0,0,0,,2,,,62,127
143707,note_on,2,0,0,,5,,,53,127
143707,note_on,0,0,0,,4,,,76,127
143811,note_off,104,0,0,,4,,,76,127
143813,note_on,2,0,0,,5,,,77,127
143917,note_off,104,0,0,,5,,,77,127
143919,note_on,2,0,0,,7,,,79,127
144023,note_off,104,0,0,,7,,,79,127
144023,note_off,0,0,0,,5,,,53,127
144025,note_on,2,0,0,,7,,,55,127
144025,note_on,0,0,0,,0,,,72,127
144025,note_on,0,0,0,,4,,,76,127
144341,note_off,316,0,0,,4,,,76,127
144341,note_off,0,0,0,,0,,,72,127
144343,note_on,2,0,0,,7,,,43,127
144343,note_on,0,0,0,,12,,,71,127
144343,note_on,0,0,0,,2,,,74,127
144659,note_off,316,0,0,,2,,,74,127
144659,note_off,0,0,0,,12,,,71,127
144659,note_off,0,0,0,,7,,,43,127
144660,note_off,1,0,0,,7,,,55,127
144661,note_on,1,0,0,,0,,,48,127
144661,note_on,0,0,0,,0,,,72,127
144977,note_off,316,0,0,,0,,,72,127
144977,note_off,0,0,0,,0,,,48,127
144992,note_on,15,0,0,,0,,,84,127
144992,note_on,0,0,0,,4,,,64,127
145308,note_off,316,0,0,,4,,,64,127
145308,note_off,0,0,0,,0,,,84,127
145310,note_on,2,0,0,,12,,,83,127
145310,note_on,0,0,0,,5,,,65,127
145467,note_off,157,0,0,,12,,,83,127
145469,note_on,2,0,0,,10,,,81,127
145626,note_off,157,0,0,,10,,,81,127
145626,note_off,0,0,0,,5,,,65,127
145628,note_on,2,0,0,,7,,,79,127
145628,note_on,0,0,0,,2,,,62,127
145785,note_off,157,0,0,,7,,,79,127
145787,note_on,2,0,0,,5,,,77,127
145944,note_off,157,0,0,,5,,,77,127
145944,note_off,0,0,0,,2,,,62,127
145946,note_on,2,0,0,,4,,,76,127
145946,note_on,0,0,0,,12,,,59,127
146103,note_off,157,0,0,,4,,,76,127
146105,note_on,2,0,0,,2,,,74,127
146262,note_off,157,0,0,,2,,,74,127
146262,note_off,0,0,0,,12,,,59,127
146264,note_on,2,0,0,,4,,,76,127
146264,note_on,0,0,0,,0,,,60,127
146368,note_off,104,0,0,,4,,,76,127
146370,note_on,2,0,0,,5,,,77,127
146474,note_off,104,0,0,,5,,,77,127
146476,note_on,2,0,0,,7,,,79,127
146580,note_off,104,0,0,,7,,,79,127
146580,note_off,0,0,0,,0,,,60,127
146582,note_on,2,0,0,,0,,,72,127
146582,note_on,0,0,0,,7,,,55,127
146898,note_off,316,0,0,,0,,,72,127
146900,note_on,2,0,0,,12,,,71,127
146900,note_on,0,0,0,,7,,,43,127
147214,note_off,314,0,0,,12,,,71,127
147216,note_off,2,0,0,,7,,,43,127
147217,note_off,1,0,0,,7,,,55,127
147231,note_on,14,0,0,,0,,,48,127
147547,note_off,316,0,0,,0,,,48,127
147549,note_on,2,0,0,,4,,,52,127
147549,note_on,0,0,0,,0,,,72,127
147865,note_off,316,0,0,,0,,,72,127
147865,note_off,0,0,0,,4,,,52,127
147867,note_on,2,0,0,,5,,,53,127
147867,note_on,0,0,0,,12,,,71,127
148024,note_off,157,0,0,,12,,,71,127
148026,note_on,2,0,0,,10,,,69,127
148183,note_off,157,0,0,,10,,,69,127
148183,note_off,0,0,0,,5,,,53,127
148185,note_on,2,0,0,,2,,,50,127
148185,note_on,0,0,0,,7,,,67,127
148342,note_off,157,0,0,,7,,,67,127
148344,note_on,2,0,0,,5,,,65,127
148501,note_off,157,0,0,,5,,,65,127
148501,note_off,0,0,0,,2,,,50,127
148503,note_on,2,0,0,,12,,,47,127
148503,note_on,0,0,0,,4,,,64,127
148660,note_off,157,0,0,,4,,,64,127
148662,note_on,2,0,0,,2,,,62,127
148819,note_off,157,0,0,,2,,,62,127
148819,note_off,0,0,0,,12,,,47,127
148821,note_on,2,0,0,,0,,,48,127
148821,note_on,0,0,0,,4,,,64,127
148925,note_off,104,0,0,,4,,,64,127
148927,note_on,2,0,0,,5,,,65,127
149031,note_off,104,0,0,,5,,,65,127
149033,note_on,2,0,0,,7,,,67,127
149137,note_off,104,0,0,,7,,,67,127
149137,note_off,0,0,0,,0,,,48,127
149139,note_on,2,0,0,,7,,,55,127
149139,note_on,0,0,0,,0,,,60,127
149455,note_off,316,0,0,,0,,,60,127
149457,note_on,2,0,0,,7,,,43,127
149457,note_on,0,0,0,,12,,,59,127
149773,note_off,316,0,0,,12,,,59,127
149773,note_off,0,0,0,,7,,,43,127
149774,note_off,1,0,0,,7,,,55,127
149788,note_on,14,0,0,,12,,,59,127
149788,note_on,0,0,0,,0,,,36,127
149788,note_on,0,0,0,,0,,,48,127
150237,note_on,449,0,0,,0,,,60,127
150263,note_off,26,0,0,,12,,,59,127
152188,note_off,1925,0,0,,0,,,48,127
152188,note_off,0,0,0,,0,,,36,127
152223,note_off,35,0,0,,0,,,60,127
153600,end_of_track,1377,1,0,,,,,,
