tick,type,time,meta,track,program,channel,pitch,tempo,note,velocity
0,copyright,0,1,0,,,,,,
0,program_change,0,0,0,6,0,,,,
0,pitchwheel,0,0,0,,0,0,,,
0,program_change,0,0,0,6,1,,,,
0,pitchwheel,0,0,0,,1,-590,,,
0,program_change,0,0,0,6,2,,,,
0,pitchwheel,0,0,0,,2,-272,,,
0,program_change,0,0,0,6,3,,,,
0,pitchwheel,0,0,0,,3,-353,,,
0,program_change,0,0,0,6,4,,,,
0,pitchwheel,0,0,0,,4,-560,,,
0,program_change,0,0,0,6,5,,,,
0,pitchwheel,0,0,0,,5,-80,,,
0,program_change,0,0,0,6,6,,,,
0,pitchwheel,0,0,0,,6,-625,,,
0,program_change,0,0,0,6,7,,,,
0,pitchwheel,0,0,0,,7,-130,,,
0,program_change,0,0,0,6,8,,,,
0,pitchwheel,0,0,0,,8,-512,,,
0,program_change,0,0,0,6,10,,,,
0,pitchwheel,0,0,0,,10,-464,,,
0,program_change,0,0,0,6,11,,,,
0,pitchwheel,0,0,0,,11,-208,,,
0,program_change,0,0,0,6,12,,,,
0,pitchwheel,0,0,0,,12,-553,,,
0,set_tempo,0,1,0,,,,500000,,
103,note_on,103,0,0,,0,,,60,127
204,note_off,101,0,0,,0,,,60,127
206,note_on,2,0,0,,12,,,59,127
307,note_off,101,0,0,,12,,,59,127
309,note_on,2,0,0,,2,,,62,127
410,note_off,101,0,0,,2,,,62,127
412,note_on,2,0,0,,0,,,60,127
513,note_off,101,0,0,,0,,,60,127
515,note_on,2,0,0,,4,,,64,127
616,note_off,101,0,0,,4,,,64,127
618,note_on,2,0,0,,2,,,62,127
719,note_off,101,0,0,,2,,,62,127
721,note_on,2,0,0,,5,,,65,127
822,note_off,101,0,0,,5,,,65,127
824,note_on,2,0,0,,4,,,64,127
925,note_off,101,0,0,,4,,,64,127
927,note_on,2,0,0,,7,,,67,127
1028,note_off,101,0,0,,7,,,67,127
1030,note_on,2,0,0,,5,,,65,127
1131,note_off,101,0,0,,5,,,65,127
1133,note_on,2,0,0,,10,,,69,127
1234,note_off,101,0,0,,10,,,69,127
1236,note_on,2,0,0,,7,,,67,127
1337,note_off,101,0,0,,7,,,67,127
1339,note_on,2,0,0,,12,,,71,127
1440,note_off,101,0,0,,12,,,71,127
1442,note_on,2,0,0,,10,,,69,127
1543,note_off,101,0,0,,10,,,69,127
1545,note_on,2,0,0,,0,,,72,127
1646,note_off,101,0,0,,0,,,72,127
1648,note_on,2,0,0,,12,,,71,127
1749,note_off,101,0,0,,12,,,71,127
1751,note_on,2,0,0,,2,,,74,127
1852,note_off,101,0,0,,2,,,74,127
1854,note_on,2,0,0,,0,,,72,127
1955,note_off,101,0,0,,0,,,72,127
1957,note_on,2,0,0,,0,,,48,127
1957,note_on,0,0,0,,4,,,76,127
2058,note_off,101,0,0,,0,,,48,127
2060,note_on,2,0,0,,12,,,47,127
2161,note_off,101,0,0,,12,,,47,127
2163,note_on,2,0,0,,2,,,50,127
2264,note_off,101,0,0,,2,,,50,127
2266,note_on,2,0,0,,0,,,48,127
2367,note_off,101,0,0,,0,,,48,127
2369,note_on,2,0,0,,4,,,52,127
2470,note_off,101,0,0,,4,,,52,127
2472,note_on,2,0,0,,2,,,50,127
2573,note_off,101,0,0,,2,,,50,127
2575,note_on,2,0,0,,5,,,53,127
2676,note_off,101,0,0,,5,,,53,127
2678,note_on,2,0,0,,4,,,52,127
2779,note_off,101,0,0,,4,,,52,127
2781,note_on,2,0,0,,7,,,55,127
2882,note_off,101,0,0,,7,,,55,127
2884,note_on,2,0,0,,5,,,53,127
2985,note_off,101,0,0,,5,,,53,127
2987,note_on,2,0,0,,10,,,57,127
3088,note_off,101,0,0,,10,,,57,127
3090,note_on,2,0,0,,7,,,55,127
3191,note_off,101,0,0,,7,,,55,127
3193,note_on,2,0,0,,12,,,59,127
3294,note_off,101,0,0,,12,,,59,127
3296,note_on,2,0,0,,10,,,57,127
3397,note_off,101,0,0,,10,,,57,127
3399,note_on,2,0,0,,0,,,60,127
3500,note_off,101,0,0,,0,,,60,127
3502,note_on,2,0,0,,12,,,59,127
3603,note_off,101,0,0,,12,,,59,127
3605,note_on,2,0,0,,2,,,62,127
3706,note_off,101,0,0,,2,,,62,127
3708,note_on,2,0,0,,0,,,60,127
3809,note_off,101,0,0,,0,,,60,127
3811,note_on,2,0,0,,4,,,64,127
4015,note_off,204,0,0,,4,,,64,127
4015,note_off,0,0,0,,4,,,76,127
4017,note_on,2,0,0,,2,,,62,127
4017,note_on,0,0,0,,4,,,76,127
4118,note_off,101,0,0,,4,,,76,127
4120,note_on,2,0,0,,5,,,77,127
4221,note_off,101,0,0,,5,,,77,127
4221,note_off,0,0,0,,2,,,62,127
4223,note_on,2,0,0,,0,,,60,127
4223,note_on,0,0,0,,7,,,79,127
4324,note_off,101,0,0,,7,,,79,127
4326,note_on,2,0,0,,4,,,76,127
4427,note_off,101,0,0,,4,,,76,127
4427,note_off,0,0,0,,0,,,60,127
4429,note_on,2,0,0,,5,,,65,127
4429,note_on,0,0,0,,2,,,74,127
4633,note_off,204,0,0,,2,,,74,127
4633,note_off,0,0,0,,5,,,65,127
4635,note_on,2,0,0,,7,,,67,127
4635,note_on,0,0,0,,0,,,72,127
4839,note_off,204,0,0,,0,,,72,127
4839,note_off,0,0,0,,7,,,67,127
4841,note_on,2,0,0,,5,,,65,127
4841,note_on,0,0,0,,12,,,71,127
5012,note_off,171,0,0,,12,,,71,127
5033,note_off,21,0,0,,5,,,65,127
5046,note_on,13,0,0,,4,,,64,127
5046,note_on,0,0,0,,0,,,72,127
5147,note_off,101,0,0,,0,,,72,127
5149,note_on,2,0,0,,2,,,74,127
5250,note_off,101,0,0,,2,,,74,127
5250,note_off,0,0,0,,4,,,64,127
5252,note_on,2,0,0,,2,,,62,127
5252,note_on,0,0,0,,4,,,76,127
5353,note_off,101,0,0,,4,,,76,127
5355,note_on,2,0,0,,5,,,77,127
5456,note_off,101,0,0,,5,,,77,127
5456,note_off,0,0,0,,2,,,62,127
5458,note_on,2,0,0,,0,,,60,127
5458,note_on,0,0,0,,7,,,79,127
5559,note_off,101,0,0,,7,,,79,127
5561,note_on,2,0,0,,4,,,76,127
5662,note_off,101,0,0,,4,,,76,127
5662,note_off,0,0,0,,0,,,60,127
5664,note_on,2,0,0,,5,,,65,127
5664,note_on,0,0,0,,2,,,74,127
5868,note_off,204,0,0,,2,,,74,127
5868,note_off,0,0,0,,5,,,65,127
5870,note_on,2,0,0,,7,,,67,127
5870,note_on,0,0,0,,0,,,72,127
6074,note_off,204,0,0,,0,,,72,127
6074,note_off,0,0,0,,7,,,67,127
6076,note_on,2,0,0,,5,,,65,127
6076,note_on,0,0,0,,12,,,71,127
6247,note_off,171,0,0,,12,,,71,127
6268,note_off,21,0,0,,5,,,65,127
6285,note_on,17,0,0,,0,,,72,127
6285,note_on,0,0,0,,4,,,64,127
6386,note_off,101,0,0,,0,,,72,127
6388,note_on,2,0,0,,2,,,74,127
6489,note_off,101,0,0,,2,,,74,127
6489,note_off,0,0,0,,4,,,64,127
6491,note_on,2,0,0,,4,,,76,127
6491,note_on,0,0,0,,2,,,62,127
6592,note_off,101,0,0,,4,,,76,127
6594,note_on,2,0,0,,5,,,77,127
6695,note_off,101,0,0,,5,,,77,127
6695,note_off,0,0,0,,2,,,62,127
6697,note_on,2,0,0,,7,,,79,127
6697,note_on,0,0,0,,0,,,60,127
6798,note_off,101,0,0,,7,,,79,127
6800,note_on,2,0,0,,4,,,76,127
6901,note_off,101,0,0,,4,,,76,127
6901,note_off,0,0,0,,0,,,60,127
6903,note_on,2,0,0,,2,,,74,127
6903,note_on,0,0,0,,5,,,65,127
7107,note_off,204,0,0,,5,,,65,127
7107,note_off,0,0,0,,2,,,74,127
7109,note_on,2,0,0,,0,,,72,127
7109,note_on,0,0,0,,7,,,67,127
7313,note_off,204,0,0,,0,,,72,127
7315,note_on,2,0,0,,12,,,71,127
7315,note_on,0,0,0,,7,,,55,127
7508,note_off,193,0,0,,12,,,71,127
7517,note_off,9,0,0,,7,,,67,127
7519,note_off,2,0,0,,7,,,55,127
7521,note_on,2,0,0,,12,,,71,127
7521,note_on,0,0,0,,0,,,60,127
7725,note_off,204,0,0,,12,,,71,127
7727,note_on,2,0,0,,2,,,74,127
7778,note_on,51,0,0,,0,,,72,127
7784,note_off,6,0,0,,2,,,74,127
7829,note_on,45,0,0,,2,,,74,127
7835,note_off,6,0,0,,0,,,72,127
7880,note_on,45,0,0,,0,,,72,127
7886,note_off,6,0,0,,2,,,74,127
7931,note_on,45,0,0,,2,,,74,127
7931,note_on,0,0,0,,0,,,48,127
7937,note_off,6,0,0,,0,,,72,127
7982,note_on,45,0,0,,0,,,72,127
7988,note_off,6,0,0,,2,,,74,127
8033,note_on,45,0,0,,2,,,74,127
8039,note_off,6,0,0,,0,,,72,127
8084,note_on,45,0,0,,0,,,72,127
8090,note_off,6,0,0,,2,,,74,127
8133,note_off,43,0,0,,0,,,48,127
8134,note_off,1,0,0,,0,,,60,127
8141,note_off,7,0,0,,0,,,72,127
8152,note_on,11,0,0,,5,,,77,127
8153,note_on,1,0,0,,0,,,72,127
8153,note_on,0,0,0,,4,,,76,127
8253,note_off,100,0,0,,5,,,77,127
8254,note_off,1,0,0,,4,,,76,127
8254,note_off,0,0,0,,0,,,72,127
8255,note_on,1,0,0,,2,,,74,127
8255,note_on,0,0,0,,12,,,71,127
8356,note_off,101,0,0,,12,,,71,127
8356,note_off,0,0,0,,2,,,74,127
8358,note_on,2,0,0,,4,,,76,127
8358,note_on,0,0,0,,0,,,72,127
8459,note_off,101,0,0,,0,,,72,127
8459,note_off,0,0,0,,4,,,76,127
8461,note_on,2,0,0,,5,,,77,127
8461,note_on,0,0,0,,2,,,74,127
8562,note_off,101,0,0,,2,,,74,127
8562,note_off,0,0,0,,5,,,77,127
8564,note_on,2,0,0,,7,,,79,127
8564,note_on,0,0,0,,4,,,76,127
8665,note_off,101,0,0,,4,,,76,127
8665,note_off,0,0,0,,7,,,79,127
8667,note_on,2,0,0,,10,,,81,127
8667,note_on,0,0,0,,0,,,72,127
8768,note_off,101,0,0,,0,,,72,127
8768,note_off,0,0,0,,10,,,81,127
8770,note_on,2,0,0,,7,,,79,127
8771,note_on,1,0,0,,5,,,77,127
8771,note_on,0,0,0,,2,,,74,127
8871,note_off,100,0,0,,7,,,79,127
8872,note_off,1,0,0,,2,,,74,127
8872,note_off,0,0,0,,5,,,77,127
8873,note_on,1,0,0,,4,,,76,127
8873,note_on,0,0,0,,0,,,72,127
8974,note_off,101,0,0,,0,,,72,127
8974,note_off,0,0,0,,4,,,76,127
8976,note_on,2,0,0,,2,,,74,127
8976,note_on,0,0,0,,12,,,71,127
9077,note_off,101,0,0,,12,,,71,127
9077,note_off,0,0,0,,2,,,74,127
9079,note_on,2,0,0,,4,,,76,127
9079,note_on,0,0,0,,10,,,69,127
9180,note_off,101,0,0,,10,,,69,127
9180,note_off,0,0,0,,4,,,76,127
9182,note_on,2,0,0,,5,,,77,127
9182,note_on,0,0,0,,7,,,67,127
9283,note_off,101,0,0,,7,,,67,127
9283,note_off,0,0,0,,5,,,77,127
9285,note_on,2,0,0,,7,,,79,127
9285,note_on,0,0,0,,12,,,71,127
9386,note_off,101,0,0,,12,,,71,127
9386,note_off,0,0,0,,7,,,79,127
9388,note_on,2,0,0,,5,,,77,127
9389,note_on,1,0,0,,4,,,76,127
9389,note_on,0,0,0,,0,,,72,127
9489,note_off,100,0,0,,5,,,77,127
9490,note_off,1,0,0,,0,,,72,127
9490,note_off,0,0,0,,4,,,76,127
9491,note_on,1,0,0,,2,,,74,127
9491,note_on,0,0,0,,12,,,71,127
9592,note_off,101,0,0,,12,,,71,127
9592,note_off,0,0,0,,2,,,74,127
9594,note_on,2,0,0,,0,,,72,127
9594,note_on,0,0,0,,10,,,69,127
9695,note_off,101,0,0,,10,,,69,127
9695,note_off,0,0,0,,0,,,72,127
9697,note_on,2,0,0,,2,,,74,127
9697,note_on,0,0,0,,7,,,67,127
9798,note_off,101,0,0,,7,,,67,127
9798,note_off,0,0,0,,2,,,74,127
9800,note_on,2,0,0,,4,,,76,127
9800,note_on,0,0,0,,5,,,65,127
9901,note_off,101,0,0,,5,,,65,127
9901,note_off,0,0,0,,4,,,76,127
9903,note_on,2,0,0,,5,,,77,127
9903,note_on,0,0,0,,10,,,69,127
10004,note_off,101,0,0,,10,,,69,127
10004,note_off,0,0,0,,5,,,77,127
10006,note_on,2,0,0,,4,,,76,127
10006,note_on,0,0,0,,7,,,43,127
10107,note_off,101,0,0,,4,,,76,127
10109,note_on,2,0,0,,2,,,74,127
10160,note_on,51,0,0,,4,,,76,127
10166,note_off,6,0,0,,2,,,74,127
10211,note_on,45,0,0,,2,,,74,127
10217,note_off,6,0,0,,4,,,76,127
10262,note_on,45,0,0,,4,,,76,127
10268,note_off,6,0,0,,2,,,74,127
10313,note_on,45,0,0,,2,,,74,127
10319,note_off,6,0,0,,4,,,76,127
10364,note_on,45,0,0,,4,,,76,127
10370,note_off,6,0,0,,2,,,74,127
10415,note_on,45,0,0,,2,,,74,127
10421,note_off,6,0,0,,4,,,76,127
10618,note_off,197,0,0,,2,,,74,127
10618,note_off,0,0,0,,7,,,43,127
10620,note_on,2,0,0,,5,,,77,127
10621,note_on,1,0,0,,4,,,76,127
10621,note_on,0,0,0,,0,,,72,127
10721,note_off,100,0,0,,5,,,77,127
10722,note_off,1,0,0,,0,,,72,127
10722,note_off,0,0,0,,4,,,76,127
10723,note_on,1,0,0,,2,,,74,127
10723,note_on,0,0,0,,12,,,71,127
10824,note_off,101,0,0,,12,,,71,127
10824,note_off,0,0,0,,2,,,74,127
10826,note_on,2,0,0,,4,,,76,127
10826,note_on,0,0,0,,0,,,72,127
10927,note_off,101,0,0,,0,,,72,127
10927,note_off,0,0,0,,4,,,76,127
10929,note_on,2,0,0,,5,,,77,127
10929,note_on,0,0,0,,2,,,74,127
11030,note_off,101,0,0,,2,,,74,127
11030,note_off,0,0,0,,5,,,77,127
11032,note_on,2,0,0,,7,,,79,127
11032,note_on,0,0,0,,4,,,76,127
11133,note_off,101,0,0,,4,,,76,127
11133,note_off,0,0,0,,7,,,79,127
11135,note_on,2,0,0,,10,,,81,127
11135,note_on,0,0,0,,0,,,72,127
11236,note_off,101,0,0,,0,,,72,127
11236,note_off,0,0,0,,10,,,81,127
11238,note_on,2,0,0,,7,,,79,127
11239,note_on,1,0,0,,5,,,77,127
11239,note_on,0,0,0,,2,,,74,127
11339,note_off,100,0,0,,7,,,79,127
11340,note_off,1,0,0,,2,,,74,127
11340,note_off,0,0,0,,5,,,77,127
11341,note_on,1,0,0,,4,,,76,127
11341,note_on,0,0,0,,0,,,72,127
11442,note_off,101,0,0,,0,,,72,127
11442,note_off,0,0,0,,4,,,76,127
11444,note_on,2,0,0,,2,,,74,127
11444,note_on,0,0,0,,12,,,71,127
11545,note_off,101,0,0,,12,,,71,127
11545,note_off,0,0,0,,2,,,74,127
11547,note_on,2,0,0,,4,,,76,127
11547,note_on,0,0,0,,10,,,69,127
11648,note_off,101,0,0,,10,,,69,127
11648,note_off,0,0,0,,4,,,76,127
11650,note_on,2,0,0,,5,,,77,127
11650,note_on,0,0,0,,7,,,67,127
11751,note_off,101,0,0,,7,,,67,127
11751,note_off,0,0,0,,5,,,77,127
11753,note_on,2,0,0,,7,,,79,127
11753,note_on,0,0,0,,12,,,71,127
11854,note_off,101,0,0,,12,,,71,127
11854,note_off,0,0,0,,7,,,79,127
11856,note_on,2,0,0,,5,,,77,127
11857,note_on,1,0,0,,4,,,76,127
11857,note_on,0,0,0,,0,,,72,127
11957,note_off,100,0,0,,5,,,77,127
11958,note_off,1,0,0,,0,,,72,127
11958,note_off,0,0,0,,4,,,76,127
11959,note_on,1,0,0,,2,,,74,127
11959,note_on,0,0,0,,12,,,71,127
12060,note_off,101,0,0,,12,,,71,127
12060,note_off,0,0,0,,2,,,74,127
12062,note_on,2,0,0,,0,,,72,127
12062,note_on,0,0,0,,10,,,69,127
12163,note_off,101,0,0,,10,,,69,127
12163,note_off,0,0,0,,0,,,72,127
12165,note_on,2,0,0,,2,,,74,127
12165,note_on,0,0,0,,7,,,67,127
12266,note_off,101,0,0,,7,,,67,127
12266,note_off,0,0,0,,2,,,74,127
12268,note_on,2,0,0,,4,,,76,127
12268,note_on,0,0,0,,5,,,65,127
12369,note_off,101,0,0,,5,,,65,127
12369,note_off,0,0,0,,4,,,76,127
12371,note_on,2,0,0,,5,,,77,127
12371,note_on,0,0,0,,10,,,69,127
12472,note_off,101,0,0,,10,,,69,127
12472,note_off,0,0,0,,5,,,77,127
12474,note_on,2,0,0,,4,,,76,127
12474,note_on,0,0,0,,7,,,43,127
12575,note_off,101,0,0,,4,,,76,127
12577,note_on,2,0,0,,2,,,74,127
12628,note_on,51,0,0,,4,,,76,127
12634,note_off,6,0,0,,2,,,74,127
12679,note_on,45,0,0,,2,,,74,127
12685,note_off,6,0,0,,4,,,76,127
12730,note_on,45,0,0,,4,,,76,127
12736,note_off,6,0,0,,2,,,74,127
12781,note_on,45,0,0,,2,,,74,127
12787,note_off,6,0,0,,4,,,76,127
12832,note_on,45,0,0,,4,,,76,127
12838,note_off,6,0,0,,2,,,74,127
12883,note_on,45,0,0,,2,,,74,127
12889,note_off,6,0,0,,4,,,76,127
13086,note_off,197,0,0,,2,,,74,127
13086,note_off,0,0,0,,7,,,43,127
13105,note_on,19,0,0,,0,,,72,127
13106,note_on,1,0,0,,7,,,67,127
13106,note_on,0,0,0,,12,,,71,127
13206,note_off,100,0,0,,0,,,72,127
13207,note_off,1,0,0,,12,,,71,127
13207,note_off,0,0,0,,7,,,67,127
13208,note_on,1,0,0,,6,,,66,127
13208,note_on,0,0,0,,10,,,69,127
13309,note_off,101,0,0,,10,,,69,127
13309,note_off,0,0,0,,6,,,66,127
13311,note_on,2,0,0,,7,,,67,127
13311,note_on,0,0,0,,12,,,71,127
13412,note_off,101,0,0,,12,,,71,127
13412,note_off,0,0,0,,7,,,67,127
13414,note_on,2,0,0,,10,,,69,127
13414,note_on,0,0,0,,0,,,72,127
13515,note_off,101,0,0,,0,,,72,127
13515,note_off,0,0,0,,10,,,69,127
13517,note_on,2,0,0,,12,,,71,127
13517,note_on,0,0,0,,2,,,74,127
13618,note_off,101,0,0,,2,,,74,127
13618,note_off,0,0,0,,12,,,71,127
13620,note_on,2,0,0,,0,,,72,127
13620,note_on,0,0,0,,4,,,76,127
13721,note_off,101,0,0,,4,,,76,127
13721,note_off,0,0,0,,0,,,72,127
13723,note_on,2,0,0,,2,,,38,127
13723,note_on,0,0,0,,2,,,74,127
13824,note_off,101,0,0,,2,,,74,127
13826,note_on,2,0,0,,4,,,76,127
13927,note_off,101,0,0,,4,,,76,127
13929,note_on,2,0,0,,6,,,78,127
14030,note_off,101,0,0,,6,,,78,127
14032,note_on,2,0,0,,7,,,79,127
14133,note_off,101,0,0,,7,,,79,127
14135,note_on,2,0,0,,10,,,81,127
14238,note_on,103,0,0,,0,,,72,127
14289,note_off,51,0,0,,10,,,81,127
14338,note_off,49,0,0,,0,,,72,127
14338,note_off,0,0,0,,2,,,38,127
14340,note_on,2,0,0,,0,,,72,127
14341,note_on,1,0,0,,7,,,67,127
14341,note_on,0,0,0,,12,,,71,127
14441,note_off,100,0,0,,0,,,72,127
14442,note_off,1,0,0,,12,,,71,127
14442,note_off,0,0,0,,7,,,67,127
14443,note_on,1,0,0,,6,,,66,127
14443,note_on,0,0,0,,10,,,69,127
14544,note_off,101,0,0,,10,,,69,127
14544,note_off,0,0,0,,6,,,66,127
14546,note_on,2,0,0,,7,,,67,127
14546,note_on,0,0,0,,12,,,71,127
14647,note_off,101,0,0,,12,,,71,127
14647,note_off,0,0,0,,7,,,67,127
14649,note_on,2,0,0,,10,,,69,127
14649,note_on,0,0,0,,0,,,72,127
14750,note_off,101,0,0,,0,,,72,127
14750,note_off,0,0,0,,10,,,69,127
14752,note_on,2,0,0,,12,,,71,127
14752,note_on,0,0,0,,2,,,74,127
14853,note_off,101,0,0,,2,,,74,127
14853,note_off,0,0,0,,12,,,71,127
14855,note_on,2,0,0,,0,,,72,127
14855,note_on,0,0,0,,4,,,76,127
14956,note_off,101,0,0,,4,,,76,127
14956,note_off,0,0,0,,0,,,72,127
14958,note_on,2,0,0,,2,,,38,127
14958,note_on,0,0,0,,2,,,74,127
15059,note_off,101,0,0,,2,,,74,127
15061,note_on,2,0,0,,4,,,76,127
15162,note_off,101,0,0,,4,,,76,127
15164,note_on,2,0,0,,6,,,78,127
15265,note_off,101,0,0,,6,,,78,127
15267,note_on,2,0,0,,7,,,79,127
15368,note_off,101,0,0,,7,,,79,127
15370,note_on,2,0,0,,10,,,81,127
15473,note_on,103,0,0,,0,,,72,127
15574,note_off,101,0,0,,0,,,72,127
15574,note_off,0,0,0,,2,,,38,127
15576,note_on,2,0,0,,7,,,55,127
15576,note_on,0,0,0,,12,,,71,127
15670,note_off,94,0,0,,10,,,81,127
15679,note_on,9,0,0,,10,,,81,127
15780,note_off,101,0,0,,10,,,81,127
15780,note_off,0,0,0,,12,,,71,127
15780,note_off,0,0,0,,7,,,55,127
15782,note_on,2,0,0,,10,,,57,127
15782,note_on,0,0,0,,7,,,79,127
15883,note_off,101,0,0,,7,,,79,127
15885,note_on,2,0,0,,6,,,78,127
15986,note_off,101,0,0,,6,,,78,127
15986,note_off,0,0,0,,10,,,57,127
15988,note_on,2,0,0,,12,,,59,127
15988,note_on,0,0,0,,7,,,79,127
16089,note_off,101,0,0,,7,,,79,127
16091,note_on,2,0,0,,2,,,74,127
16192,note_off,101,0,0,,2,,,74,127
16192,note_off,0,0,0,,12,,,59,127
16194,note_on,2,0,0,,0,,,60,127
16194,note_on,0,0,0,,4,,,76,127
16295,note_off,101,0,0,,4,,,76,127
16297,note_on,2,0,0,,0,,,72,127
16398,note_off,101,0,0,,0,,,72,127
16398,note_off,0,0,0,,0,,,60,127
16400,note_on,2,0,0,,2,,,62,127
16400,note_on,0,0,0,,12,,,71,127
16503,note_on,103,0,0,,7,,,79,127
16604,note_off,101,0,0,,12,,,71,127
16604,note_off,0,0,0,,2,,,62,127
16606,note_on,2,0,0,,2,,,50,127
16606,note_on,0,0,0,,10,,,69,127
16707,note_off,101,0,0,,7,,,79,127
16709,note_on,2,0,0,,6,,,78,127
16810,note_off,101,0,0,,6,,,78,127
16810,note_off,0,0,0,,10,,,69,127
16810,note_off,0,0,0,,2,,,50,127
16812,note_on,2,0,0,,7,,,55,127
16812,note_on,0,0,0,,7,,,79,127
16913,note_off,101,0,0,,7,,,79,127
16915,note_on,2,0,0,,2,,,74,127
17016,note_off,101,0,0,,2,,,74,127
17018,note_on,2,0,0,,12,,,71,127
17119,note_off,101,0,0,,12,,,71,127
17121,note_on,2,0,0,,7,,,67,127
17222,note_off,101,0,0,,7,,,67,127
17227,note_on,5,0,0,,12,,,71,127
17328,note_off,101,0,0,,12,,,71,127
17335,note_on,7,0,0,,2,,,74,127
17427,note_off,92,0,0,,7,,,55,127
17436,note_off,9,0,0,,2,,,74,127
17447,note_on,11,0,0,,0,,,72,127
17448,note_on,1,0,0,,12,,,71,127
17448,note_on,0,0,0,,7,,,67,127
17548,note_off,100,0,0,,0,,,72,127
17549,note_off,1,0,0,,7,,,67,127
17549,note_off,0,0,0,,12,,,71,127
17550,note_on,1,0,0,,10,,,69,127
17550,note_on,0,0,0,,6,,,66,127
17651,note_off,101,0,0,,6,,,66,127
17651,note_off,0,0,0,,10,,,69,127
17653,note_on,2,0,0,,12,,,71,127
17653,note_on,0,0,0,,7,,,67,127
17754,note_off,101,0,0,,7,,,67,127
17754,note_off,0,0,0,,12,,,71,127
17756,note_on,2,0,0,,0,,,72,127
17756,note_on,0,0,0,,10,,,69,127
17857,note_off,101,0,0,,10,,,69,127
17857,note_off,0,0,0,,0,,,72,127
17859,note_on,2,0,0,,2,,,74,127
17859,note_on,0,0,0,,12,,,71,127
17960,note_off,101,0,0,,12,,,71,127
17960,note_off,0,0,0,,2,,,74,127
17962,note_on,2,0,0,,4,,,76,127
17962,note_on,0,0,0,,0,,,72,127
18063,note_off,101,0,0,,0,,,72,127
18063,note_off,0,0,0,,4,,,76,127
18065,note_on,2,0,0,,2,,,74,127
18065,note_on,0,0,0,,2,,,38,127
18166,note_off,101,0,0,,2,,,74,127
18168,note_on,2,0,0,,4,,,76,127
18269,note_off,101,0,0,,4,,,76,127
18271,note_on,2,0,0,,6,,,78,127
18372,note_off,101,0,0,,6,,,78,127
18374,note_on,2,0,0,,7,,,79,127
18475,note_off,101,0,0,,7,,,79,127
18477,note_on,2,0,0,,10,,,81,127
18580,note_on,103,0,0,,0,,,72,127
18681,note_off,101,0,0,,0,,,72,127
18681,note_off,0,0,0,,10,,,81,127
18681,note_off,0,0,0,,2,,,38,127
18683,note_on,2,0,0,,0,,,72,127
18684,note_on,1,0,0,,12,,,71,127
18684,note_on,0,0,0,,7,,,67,127
18784,note_off,100,0,0,,0,,,72,127
18785,note_off,1,0,0,,7,,,67,127
18785,note_off,0,0,0,,12,,,71,127
18786,note_on,1,0,0,,10,,,69,127
18786,note_on,0,0,0,,6,,,66,127
18887,note_off,101,0,0,,6,,,66,127
18887,note_off,0,0,0,,10,,,69,127
18889,note_on,2,0,0,,12,,,71,127
18889,note_on,0,0,0,,7,,,67,127
18990,note_off,101,0,0,,7,,,67,127
18990,note_off,0,0,0,,12,,,71,127
18992,note_on,2,0,0,,0,,,72,127
18992,note_on,0,0,0,,10,,,69,127
19093,note_off,101,0,0,,10,,,69,127
19093,note_off,0,0,0,,0,,,72,127
19095,note_on,2,0,0,,2,,,74,127
19095,note_on,0,0,0,,12,,,71,127
19196,note_off,101,0,0,,12,,,71,127
19196,note_off,0,0,0,,2,,,74,127
19198,note_on,2,0,0,,4,,,76,127
19198,note_on,0,0,0,,0,,,72,127
19299,note_off,101,0,0,,0,,,72,127
19299,note_off,0,0,0,,4,,,76,127
19301,note_on,2,0,0,,2,,,74,127
19301,note_on,0,0,0,,2,,,38,127
19402,note_off,101,0,0,,2,,,74,127
19404,note_on,2,0,0,,4,,,76,127
19505,note_off,101,0,0,,4,,,76,127
19507,note_on,2,0,0,,6,,,78,127
19608,note_off,101,0,0,,6,,,78,127
19610,note_on,2,0,0,,7,,,79,127
19711,note_off,101,0,0,,7,,,79,127
19713,note_on,2,0,0,,10,,,81,127
19816,note_on,103,0,0,,0,,,72,127
19917,note_off,101,0,0,,0,,,72,127
19917,note_off,0,0,0,,2,,,38,127
19919,note_on,2,0,0,,12,,,71,127
19919,note_on,0,0,0,,7,,,55,127
20013,note_off,94,0,0,,10,,,81,127
20022,note_on,9,0,0,,10,,,81,127
20123,note_off,101,0,0,,10,,,81,127
20123,note_off,0,0,0,,7,,,55,127
20123,note_off,0,0,0,,12,,,71,127
20125,note_on,2,0,0,,7,,,79,127
20125,note_on,0,0,0,,10,,,57,127
20226,note_off,101,0,0,,7,,,79,127
20228,note_on,2,0,0,,6,,,78,127
20329,note_off,101,0,0,,6,,,78,127
20329,note_off,0,0,0,,10,,,57,127
20331,note_on,2,0,0,,7,,,79,127
20331,note_on,0,0,0,,12,,,59,127
20434,note_on,103,0,0,,2,,,74,127
20535,note_off,101,0,0,,2,,,74,127
20535,note_off,0,0,0,,12,,,59,127
20535,note_off,0,0,0,,7,,,79,127
20537,note_on,2,0,0,,4,,,76,127
20537,note_on,0,0,0,,0,,,60,127
20640,note_on,103,0,0,,0,,,72,127
20741,note_off,101,0,0,,0,,,72,127
20741,note_off,0,0,0,,0,,,60,127
20741,note_off,0,0,0,,4,,,76,127
20743,note_on,2,0,0,,12,,,71,127
20743,note_on,0,0,0,,2,,,62,127
20844,note_off,101,0,0,,12,,,71,127
20846,note_on,2,0,0,,7,,,79,127
20947,note_off,101,0,0,,2,,,62,127
20949,note_on,2,0,0,,10,,,69,127
20949,note_on,0,0,0,,2,,,50,127
21050,note_off,101,0,0,,10,,,69,127
21050,note_off,0,0,0,,7,,,79,127
21052,note_on,2,0,0,,6,,,78,127
21153,note_off,101,0,0,,6,,,78,127
21153,note_off,0,0,0,,2,,,50,127
21172,note_on,19,0,0,,7,,,55,127
21172,note_on,0,0,0,,7,,,67,127
21273,note_off,101,0,0,,7,,,67,127
21275,note_on,2,0,0,,10,,,81,127
21376,note_off,101,0,0,,10,,,81,127
21376,note_off,0,0,0,,7,,,55,127
21378,note_on,2,0,0,,10,,,57,127
21378,note_on,0,0,0,,7,,,79,127
21479,note_off,101,0,0,,7,,,79,127
21481,note_on,2,0,0,,6,,,78,127
21582,note_off,101,0,0,,6,,,78,127
21582,note_off,0,0,0,,10,,,57,127
21584,note_on,2,0,0,,12,,,59,127
21584,note_on,0,0,0,,4,,,76,127
21685,note_off,101,0,0,,4,,,76,127
21687,note_on,2,0,0,,3,,,75,127
21788,note_off,101,0,0,,3,,,75,127
21788,note_off,0,0,0,,12,,,59,127
21790,note_on,2,0,0,,0,,,60,127
21790,note_on,0,0,0,,3,,,75,127
21891,note_off,101,0,0,,3,,,75,127
21893,note_on,2,0,0,,6,,,78,127
21994,note_off,101,0,0,,6,,,78,127
21996,note_on,2,0,0,,4,,,76,127
22097,note_off,101,0,0,,4,,,76,127
22099,note_on,2,0,0,,2,,,74,127
22200,note_off,101,0,0,,2,,,74,127
22200,note_off,0,0,0,,0,,,60,127
22202,note_on,2,0,0,,12,,,59,127
22202,note_on,0,0,0,,0,,,72,127
22303,note_off,101,0,0,,0,,,72,127
22305,note_on,2,0,0,,12,,,71,127
22406,note_off,101,0,0,,12,,,71,127
22406,note_off,0,0,0,,12,,,59,127
22408,note_on,2,0,0,,10,,,57,127
22408,note_on,0,0,0,,12,,,71,127
22509,note_off,101,0,0,,12,,,71,127
22511,note_on,2,0,0,,2,,,74,127
22612,note_off,101,0,0,,2,,,74,127
22614,note_on,2,0,0,,0,,,72,127
22715,note_off,101,0,0,,0,,,72,127
22717,note_on,2,0,0,,12,,,71,127
22818,note_off,101,0,0,,12,,,71,127
22818,note_off,0,0,0,,10,,,57,127
22820,note_on,2,0,0,,12,,,59,127
22820,note_on,0,0,0,,10,,,69,127
22921,note_off,101,0,0,,10,,,69,127
22923,note_on,2,0,0,,8,,,68,127
23024,note_off,101,0,0,,8,,,68,127
23024,note_off,0,0,0,,12,,,59,127
23026,note_on,2,0,0,,0,,,60,127
23026,note_on,0,0,0,,8,,,68,127
23127,note_off,101,0,0,,8,,,68,127
23129,note_on,2,0,0,,12,,,71,127
23230,note_off,101,0,0,,12,,,71,127
23230,note_off,0,0,0,,0,,,60,127
23232,note_on,2,0,0,,12,,,59,127
23232,note_on,0,0,0,,10,,,69,127
23333,note_off,101,0,0,,10,,,69,127
23335,note_on,2,0,0,,7,,,67,127
23436,note_off,101,0,0,,7,,,67,127
23436,note_off,0,0,0,,12,,,59,127
23438,note_on,2,0,0,,10,,,57,127
23438,note_on,0,0,0,,6,,,66,127
23539,note_off,101,0,0,,6,,,66,127
23541,note_on,2,0,0,,4,,,64,127
23642,note_off,101,0,0,,4,,,64,127
23642,note_off,0,0,0,,10,,,57,127
23644,note_on,2,0,0,,2,,,62,127
23644,note_on,0,0,0,,6,,,66,127
23645,note_on,1,0,0,,7,,,67,127
23847,note_off,202,0,0,,6,,,66,127
23847,note_off,0,0,0,,2,,,62,127
23848,note_off,1,0,0,,7,,,67,127
23849,note_on,1,0,0,,0,,,60,127
23849,note_on,0,0,0,,4,,,64,127
23950,note_off,101,0,0,,4,,,64,127
23952,note_on,2,0,0,,2,,,62,127
24053,note_off,101,0,0,,2,,,62,127
24053,note_off,0,0,0,,0,,,60,127
24055,note_on,2,0,0,,12,,,59,127
24055,note_on,0,0,0,,4,,,76,127
24156,note_off,101,0,0,,4,,,76,127
24158,note_on,2,0,0,,2,,,74,127
24259,note_off,101,0,0,,2,,,74,127
24259,note_off,0,0,0,,12,,,59,127
24261,note_on,2,0,0,,0,,,60,127
24261,note_on,0,0,0,,0,,,72,127
24362,note_off,101,0,0,,0,,,72,127
24364,note_on,2,0,0,,12,,,71,127
24465,note_off,101,0,0,,12,,,71,127
24465,note_off,0,0,0,,0,,,60,127
24467,note_on,2,0,0,,2,,,62,127
24467,note_on,0,0,0,,12,,,71,127
24568,note_off,101,0,0,,12,,,71,127
24570,note_on,2,0,0,,10,,,69,127
24671,note_off,101,0,0,,10,,,69,127
24671,note_off,0,0,0,,2,,,62,127
24673,note_on,2,0,0,,2,,,50,127
24673,note_on,0,0,0,,7,,,67,127
24774,note_off,101,0,0,,7,,,67,127
24776,note_on,2,0,0,,6,,,66,127
24877,note_off,101,0,0,,6,,,66,127
24877,note_off,0,0,0,,2,,,50,127
24883,note_on,6,0,0,,7,,,67,127
24883,note_on,0,0,0,,7,,,55,127
24999,note_on,116,0,0,,10,,,81,127
25000,note_off,1,0,0,,7,,,67,127
25087,note_off,87,0,0,,7,,,55,127
25100,note_off,13,0,0,,10,,,81,127
25102,note_on,2,0,0,,7,,,79,127
25102,note_on,0,0,0,,10,,,57,127
25203,note_off,101,0,0,,7,,,79,127
25205,note_on,2,0,0,,6,,,78,127
25306,note_off,101,0,0,,6,,,78,127
25306,note_off,0,0,0,,10,,,57,127
25308,note_on,2,0,0,,4,,,76,127
25308,note_on,0,0,0,,12,,,59,127
25409,note_off,101,0,0,,4,,,76,127
25411,note_on,2,0,0,,3,,,75,127
25512,note_off,101,0,0,,12,,,59,127
25514,note_on,2,0,0,,0,,,60,127
25604,note_off,90,0,0,,3,,,75,127
25617,note_on,13,0,0,,6,,,78,127
25718,note_off,101,0,0,,6,,,78,127
25720,note_on,2,0,0,,4,,,76,127
25821,note_off,101,0,0,,4,,,76,127
25823,note_on,2,0,0,,2,,,74,127
25924,note_off,101,0,0,,2,,,74,127
25924,note_off,0,0,0,,0,,,60,127
25926,note_on,2,0,0,,0,,,72,127
25926,note_on,0,0,0,,12,,,59,127
26027,note_off,101,0,0,,0,,,72,127
26029,note_on,2,0,0,,12,,,71,127
26130,note_off,101,0,0,,12,,,59,127
26132,note_on,2,0,0,,10,,,57,127
26222,note_off,90,0,0,,12,,,71,127
26235,note_on,13,0,0,,2,,,74,127
26336,note_off,101,0,0,,2,,,74,127
26338,note_on,2,0,0,,0,,,72,127
26439,note_off,101,0,0,,0,,,72,127
26441,note_on,2,0,0,,12,,,71,127
26542,note_off,101,0,0,,12,,,71,127
26542,note_off,0,0,0,,10,,,57,127
26544,note_on,2,0,0,,10,,,69,127
26544,note_on,0,0,0,,12,,,59,127
26645,note_off,101,0,0,,10,,,69,127
26647,note_on,2,0,0,,8,,,68,127
26748,note_off,101,0,0,,12,,,59,127
26750,note_on,2,0,0,,0,,,60,127
26840,note_off,90,0,0,,8,,,68,127
26853,note_on,13,0,0,,12,,,71,127
26954,note_off,101,0,0,,12,,,71,127
26954,note_off,0,0,0,,0,,,60,127
26956,note_on,2,0,0,,10,,,69,127
26956,note_on,0,0,0,,12,,,59,127
27057,note_off,101,0,0,,10,,,69,127
27059,note_on,2,0,0,,7,,,67,127
27160,note_off,101,0,0,,7,,,67,127
27160,note_off,0,0,0,,12,,,59,127
27162,note_on,2,0,0,,6,,,66,127
27162,note_on,0,0,0,,10,,,57,127
27263,note_off,101,0,0,,6,,,66,127
27265,note_on,2,0,0,,4,,,64,127
27365,note_on,100,0,0,,7,,,67,127
27366,note_off,1,0,0,,4,,,64,127
27366,note_off,0,0,0,,10,,,57,127
27368,note_on,2,0,0,,6,,,66,127
27368,note_on,0,0,0,,2,,,62,127
27568,note_off,200,0,0,,7,,,67,127
27571,note_off,3,0,0,,2,,,62,127
27571,note_off,0,0,0,,6,,,66,127
27573,note_on,2,0,0,,4,,,64,127
27573,note_on,0,0,0,,0,,,60,127
27674,note_off,101,0,0,,4,,,64,127
27676,note_on,2,0,0,,2,,,62,127
27777,note_off,101,0,0,,2,,,62,127
27777,note_off,0,0,0,,0,,,60,127
27779,note_on,2,0,0,,4,,,76,127
27779,note_on,0,0,0,,12,,,59,127
27880,note_off,101,0,0,,4,,,76,127
27882,note_on,2,0,0,,2,,,74,127
27983,note_off,101,0,0,,2,,,74,127
27983,note_off,0,0,0,,12,,,59,127
27985,note_on,2,0,0,,0,,,72,127
27985,note_on,0,0,0,,0,,,60,127
28086,note_off,101,0,0,,0,,,72,127
28088,note_on,2,0,0,,12,,,71,127
28189,note_off,101,0,0,,12,,,71,127
28189,note_off,0,0,0,,0,,,60,127
28191,note_on,2,0,0,,12,,,71,127
28191,note_on,0,0,0,,2,,,62,127
28292,note_off,101,0,0,,12,,,71,127
28294,note_on,2,0,0,,10,,,69,127
28395,note_off,101,0,0,,10,,,69,127
28395,note_off,0,0,0,,2,,,62,127
28401,note_on,6,0,0,,7,,,67,127
28401,note_on,0,0,0,,2,,,50,127
28502,note_off,101,0,0,,7,,,67,127
28511,note_on,9,0,0,,6,,,66,127
28605,note_off,94,0,0,,2,,,50,127
28611,note_off,6,0,0,,6,,,66,127
28620,note_on,9,0,0,,7,,,43,127
28620,note_on,0,0,0,,7,,,55,127
28620,note_on,0,0,0,,12,,,71,127
28723,note_on,103,0,0,,7,,,79,127
28824,note_off,101,0,0,,7,,,79,127
28824,note_off,0,0,0,,12,,,71,127
28824,note_off,0,0,0,,7,,,55,127
28824,note_off,0,0,0,,7,,,43,127
28826,note_on,2,0,0,,0,,,48,127
28826,note_on,0,0,0,,0,,,36,127
28826,note_on,0,0,0,,0,,,72,127
28929,note_on,103,0,0,,10,,,81,127
29030,note_off,101,0,0,,10,,,81,127
29030,note_off,0,0,0,,0,,,72,127
29030,note_off,0,0,0,,0,,,36,127
29030,note_off,0,0,0,,0,,,48,127
29032,note_on,2,0,0,,2,,,38,127
29032,note_on,0,0,0,,2,,,50,127
29032,note_on,0,0,0,,10,,,69,127
29135,note_on,103,0,0,,6,,,78,127
29236,note_off,101,0,0,,6,,,78,127
29236,note_off,0,0,0,,10,,,69,127
29236,note_off,0,0,0,,2,,,50,127
29236,note_off,0,0,0,,2,,,38,127
29238,note_on,2,0,0,,7,,,55,127
29238,note_on,0,0,0,,7,,,43,127
29238,note_on,0,0,0,,12,,,71,127
29341,note_on,103,0,0,,7,,,79,127
29442,note_off,101,0,0,,7,,,79,127
29442,note_off,0,0,0,,12,,,71,127
29442,note_off,0,0,0,,7,,,43,127
29442,note_off,0,0,0,,7,,,55,127
29444,note_on,2,0,0,,0,,,48,127
29444,note_on,0,0,0,,0,,,36,127
29444,note_on,0,0,0,,0,,,72,127
29547,note_on,103,0,0,,10,,,81,127
29648,note_off,101,0,0,,10,,,81,127
29648,note_off,0,0,0,,0,,,72,127
29648,note_off,0,0,0,,0,,,36,127
29648,note_off,0,0,0,,0,,,48,127
29650,note_on,2,0,0,,2,,,38,127
29650,note_on,0,0,0,,2,,,50,127
29650,note_on,0,0,0,,10,,,69,127
29753,note_on,103,0,0,,6,,,78,127
29854,note_off,101,0,0,,6,,,78,127
29854,note_off,0,0,0,,10,,,69,127
29854,note_off,0,0,0,,2,,,50,127
29854,note_off,0,0,0,,2,,,38,127
29856,note_on,2,0,0,,7,,,55,127
29856,note_on,0,0,0,,7,,,43,127
29856,note_on,0,0,0,,12,,,71,127
29959,note_on,103,0,0,,7,,,79,127
30060,note_off,101,0,0,,7,,,79,127
30060,note_off,0,0,0,,12,,,71,127
30060,note_off,0,0,0,,7,,,43,127
30060,note_off,0,0,0,,7,,,55,127
30062,note_on,2,0,0,,0,,,36,127
30062,note_on,0,0,0,,0,,,48,127
30062,note_on,0,0,0,,0,,,72,127
30165,note_on,103,0,0,,10,,,81,127
30266,note_off,101,0,0,,10,,,81,127
30266,note_off,0,0,0,,0,,,72,127
30266,note_off,0,0,0,,0,,,48,127
30266,note_off,0,0,0,,0,,,36,127
30268,note_on,2,0,0,,2,,,50,127
30268,note_on,0,0,0,,2,,,38,127
30268,note_on,0,0,0,,10,,,69,127
30371,note_on,103,0,0,,6,,,78,127
30472,note_off,101,0,0,,6,,,78,127
30472,note_off,0,0,0,,10,,,69,127
30472,note_off,0,0,0,,2,,,38,127
30472,note_off,0,0,0,,2,,,50,127
30474,note_on,2,0,0,,7,,,43,127
30474,note_on,0,0,0,,7,,,55,127
30474,note_on,0,0,0,,6,,,78,127
30883,note_off,409,0,0,,6,,,78,127
30885,note_on,2,0,0,,7,,,79,127
31089,note_off,204,0,0,,7,,,79,127
31089,note_off,0,0,0,,7,,,55,127
31089,note_off,0,0,0,,7,,,43,127
31108,note_on,19,0,0,,7,,,55,127
31209,note_off,101,0,0,,7,,,55,127
31211,note_on,2,0,0,,6,,,54,127
31312,note_off,101,0,0,,6,,,54,127
31314,note_on,2,0,0,,10,,,57,127
31415,note_off,101,0,0,,10,,,57,127
31417,note_on,2,0,0,,7,,,55,127
31518,note_off,101,0,0,,7,,,55,127
31520,note_on,2,0,0,,12,,,59,127
31621,note_off,101,0,0,,12,,,59,127
31623,note_on,2,0,0,,10,,,57,127
31724,note_off,101,0,0,,10,,,57,127
31726,note_on,2,0,0,,0,,,60,127
31827,note_off,101,0,0,,0,,,60,127
31829,note_on,2,0,0,,12,,,59,127
31930,note_off,101,0,0,,12,,,59,127
31932,note_on,2,0,0,,2,,,62,127
32033,note_off,101,0,0,,2,,,62,127
32035,note_on,2,0,0,,0,,,60,127
32136,note_off,101,0,0,,0,,,60,127
32138,note_on,2,0,0,,4,,,64,127
32239,note_off,101,0,0,,4,,,64,127
32241,note_on,2,0,0,,2,,,62,127
32342,note_off,101,0,0,,2,,,62,127
32344,note_on,2,0,0,,10,,,69,127
32445,note_off,101,0,0,,10,,,69,127
32447,note_on,2,0,0,,7,,,67,127
32548,note_off,101,0,0,,7,,,67,127
32550,note_on,2,0,0,,6,,,66,127
32651,note_off,101,0,0,,6,,,66,127
32653,note_on,2,0,0,,4,,,64,127
32754,note_off,101,0,0,,4,,,64,127
32756,note_on,2,0,0,,2,,,62,127
32857,note_off,101,0,0,,2,,,62,127
32859,note_on,2,0,0,,0,,,60,127
32960,note_off,101,0,0,,0,,,60,127
32962,note_on,2,0,0,,7,,,67,127
32962,note_on,0,0,0,,12,,,59,127
33063,note_off,101,0,0,,7,,,67,127
33065,note_on,2,0,0,,6,,,66,127
33166,note_off,101,0,0,,6,,,66,127
33166,note_off,0,0,0,,12,,,59,127
33168,note_on,2,0,0,,10,,,69,127
33168,note_on,0,0,0,,10,,,57,127
33269,note_off,101,0,0,,10,,,69,127
33271,note_on,2,0,0,,7,,,67,127
33372,note_off,101,0,0,,7,,,67,127
33372,note_off,0,0,0,,10,,,57,127
33374,note_on,2,0,0,,12,,,71,127
33374,note_on,0,0,0,,7,,,55,127
33475,note_off,101,0,0,,12,,,71,127
33477,note_on,2,0,0,,10,,,69,127
33578,note_off,101,0,0,,10,,,69,127
33578,note_off,0,0,0,,7,,,55,127
33580,note_on,2,0,0,,0,,,72,127
33580,note_on,0,0,0,,4,,,52,127
33681,note_off,101,0,0,,0,,,72,127
33683,note_on,2,0,0,,12,,,71,127
33784,note_off,101,0,0,,12,,,71,127
33784,note_off,0,0,0,,4,,,52,127
33786,note_on,2,0,0,,2,,,74,127
33786,note_on,0,0,0,,2,,,50,127
33887,note_off,101,0,0,,2,,,74,127
33889,note_on,2,0,0,,0,,,72,127
33990,note_off,101,0,0,,0,,,72,127
33990,note_off,0,0,0,,2,,,50,127
33992,note_on,2,0,0,,4,,,76,127
33992,note_on,0,0,0,,0,,,48,127
34093,note_off,101,0,0,,4,,,76,127
34095,note_on,2,0,0,,2,,,74,127
34196,note_off,101,0,0,,2,,,74,127
34196,note_off,0,0,0,,0,,,48,127
34198,note_on,2,0,0,,10,,,81,127
34198,note_on,0,0,0,,2,,,50,127
34299,note_off,101,0,0,,10,,,81,127
34301,note_on,2,0,0,,7,,,79,127
34402,note_off,101,0,0,,7,,,79,127
34404,note_on,2,0,0,,6,,,78,127
34505,note_off,101,0,0,,6,,,78,127
34507,note_on,2,0,0,,4,,,76,127
34608,note_off,101,0,0,,4,,,76,127
34610,note_on,2,0,0,,2,,,74,127
34610,note_on,0,0,0,,2,,,38,127
34711,note_off,101,0,0,,2,,,74,127
34713,note_on,2,0,0,,0,,,72,127
34814,note_off,101,0,0,,0,,,72,127
34814,note_off,0,0,0,,2,,,38,127
34815,note_off,1,0,0,,2,,,50,127
34816,note_on,1,0,0,,0,,,72,127
34816,note_on,0,0,0,,7,,,43,127
34816,note_on,0,0,0,,7,,,55,127
34867,note_on,51,0,0,,12,,,71,127
34873,note_off,6,0,0,,0,,,72,127
34918,note_on,45,0,0,,0,,,72,127
34924,note_off,6,0,0,,12,,,71,127
34969,note_on,45,0,0,,12,,,71,127
34975,note_off,6,0,0,,0,,,72,127
35020,note_on,45,0,0,,0,,,72,127
35026,note_off,6,0,0,,12,,,71,127
35071,note_on,45,0,0,,12,,,71,127
35077,note_off,6,0,0,,0,,,72,127
35122,note_on,45,0,0,,10,,,69,127
35128,note_off,6,0,0,,12,,,71,127
35222,note_off,94,0,0,,10,,,69,127
35224,note_on,2,0,0,,7,,,67,127
35335,note_off,111,0,0,,7,,,43,127
35427,note_off,92,0,0,,7,,,67,127
35427,note_off,0,0,0,,7,,,55,127
35455,note_on,28,0,0,,7,,,55,127
35455,note_on,0,0,0,,12,,,71,127
35556,note_off,101,0,0,,12,,,71,127
35558,note_on,2,0,0,,0,,,72,127
35659,note_off,101,0,0,,0,,,72,127
35661,note_on,2,0,0,,2,,,74,127
35762,note_off,101,0,0,,7,,,55,127
35764,note_on,2,0,0,,7,,,67,127
35865,note_off,101,0,0,,7,,,67,127
35867,note_on,2,0,0,,5,,,65,127
35968,note_off,101,0,0,,5,,,65,127
35970,note_on,2,0,0,,4,,,64,127
36071,note_off,101,0,0,,4,,,64,127
36071,note_off,0,0,0,,2,,,74,127
36073,note_on,2,0,0,,5,,,53,127
36073,note_on,0,0,0,,12,,,71,127
36174,note_off,101,0,0,,12,,,71,127
36176,note_on,2,0,0,,0,,,72,127
36277,note_off,101,0,0,,0,,,72,127
36279,note_on,2,0,0,,2,,,74,127
36380,note_off,101,0,0,,5,,,53,127
36382,note_on,2,0,0,,5,,,65,127
36483,note_off,101,0,0,,5,,,65,127
36485,note_on,2,0,0,,4,,,64,127
36586,note_off,101,0,0,,4,,,64,127
36588,note_on,2,0,0,,2,,,62,127
36689,note_off,101,0,0,,2,,,62,127
36689,note_off,0,0,0,,2,,,74,127
36691,note_on,2,0,0,,4,,,40,127
36691,note_on,0,0,0,,4,,,52,127
36691,note_on,0,0,0,,8,,,68,127
36792,note_off,101,0,0,,8,,,68,127
36794,note_on,2,0,0,,10,,,69,127
36895,note_off,101,0,0,,10,,,69,127
36897,note_on,2,0,0,,12,,,71,127
36998,note_off,101,0,0,,12,,,71,127
37000,note_on,2,0,0,,0,,,72,127
37101,note_off,101,0,0,,0,,,72,127
37103,note_on,2,0,0,,2,,,74,127
37204,note_off,101,0,0,,2,,,74,127
37206,note_on,2,0,0,,4,,,76,127
37307,note_off,101,0,0,,4,,,76,127
37307,note_off,0,0,0,,4,,,52,127
37307,note_off,0,0,0,,4,,,40,127
37309,note_on,2,0,0,,4,,,52,127
37309,note_on,0,0,0,,4,,,40,127
37309,note_on,0,0,0,,5,,,77,127
37410,note_off,101,0,0,,5,,,77,127
37412,note_on,2,0,0,,4,,,76,127
37513,note_off,101,0,0,,4,,,76,127
37515,note_on,2,0,0,,5,,,77,127
37616,note_off,101,0,0,,5,,,77,127
37618,note_on,2,0,0,,2,,,74,127
37719,note_off,101,0,0,,2,,,74,127
37721,note_on,2,0,0,,1,,,73,127
37822,note_off,101,0,0,,1,,,73,127
37824,note_on,2,0,0,,12,,,71,127
37925,note_off,101,0,0,,12,,,71,127
37925,note_off,0,0,0,,4,,,40,127
37925,note_off,0,0,0,,4,,,52,127
37944,note_on,19,0,0,,1,,,73,127
37944,note_on,0,0,0,,10,,,45,127
37944,note_on,0,0,0,,10,,,57,127
38045,note_off,101,0,0,,1,,,73,127
38047,note_on,2,0,0,,2,,,74,127
38148,note_off,101,0,0,,2,,,74,127
38150,note_on,2,0,0,,4,,,76,127
38251,note_off,101,0,0,,10,,,57,127
38251,note_off,0,0,0,,10,,,45,127
38253,note_on,2,0,0,,10,,,69,127
38354,note_off,101,0,0,,10,,,69,127
38356,note_on,2,0,0,,7,,,67,127
38457,note_off,101,0,0,,7,,,67,127
38459,note_on,2,0,0,,5,,,65,127
38560,note_off,101,0,0,,5,,,65,127
38560,note_off,0,0,0,,4,,,76,127
38562,note_on,2,0,0,,1,,,73,127
38562,note_on,0,0,0,,7,,,55,127
38663,note_off,101,0,0,,1,,,73,127
38665,note_on,2,0,0,,2,,,74,127
38766,note_off,101,0,0,,2,,,74,127
38768,note_on,2,0,0,,4,,,76,127
38869,note_off,101,0,0,,7,,,55,127
38871,note_on,2,0,0,,7,,,67,127
38972,note_off,101,0,0,,7,,,67,127
38974,note_on,2,0,0,,5,,,65,127
39075,note_off,101,0,0,,5,,,65,127
39077,note_on,2,0,0,,4,,,64,127
39178,note_off,101,0,0,,4,,,64,127
39178,note_off,0,0,0,,4,,,76,127
39197,note_on,19,0,0,,5,,,53,127
39197,note_on,0,0,0,,2,,,74,127
39298,note_off,101,0,0,,2,,,74,127
39300,note_on,2,0,0,,4,,,76,127
39401,note_off,101,0,0,,4,,,76,127
39403,note_on,2,0,0,,5,,,77,127
39504,note_off,101,0,0,,5,,,77,127
39504,note_off,0,0,0,,5,,,53,127
39506,note_on,2,0,0,,5,,,65,127
39506,note_on,0,0,0,,7,,,79,127
39607,note_off,101,0,0,,7,,,79,127
39607,note_off,0,0,0,,5,,,65,127
39609,note_on,2,0,0,,4,,,64,127
39609,note_on,0,0,0,,10,,,81,127
39710,note_off,101,0,0,,10,,,81,127
39710,note_off,0,0,0,,4,,,64,127
39712,note_on,2,0,0,,2,,,62,127
39712,note_on,0,0,0,,2,,,74,127
39813,note_off,101,0,0,,2,,,74,127
39813,note_off,0,0,0,,2,,,62,127
39815,note_on,2,0,0,,4,,,52,127
39815,note_on,0,0,0,,1,,,73,127
39916,note_off,101,0,0,,1,,,73,127
39918,note_on,2,0,0,,2,,,74,127
40019,note_off,101,0,0,,2,,,74,127
40021,note_on,2,0,0,,4,,,76,127
40122,note_off,101,0,0,,4,,,76,127
40122,note_off,0,0,0,,4,,,52,127
40124,note_on,2,0,0,,4,,,64,127
40124,note_on,0,0,0,,5,,,77,127
40225,note_off,101,0,0,,5,,,77,127
40225,note_off,0,0,0,,4,,,64,127
40227,note_on,2,0,0,,2,,,62,127
40227,note_on,0,0,0,,7,,,79,127
40328,note_off,101,0,0,,7,,,79,127
40328,note_off,0,0,0,,2,,,62,127
40330,note_on,2,0,0,,1,,,61,127
40330,note_on,0,0,0,,4,,,76,127
40431,note_off,101,0,0,,4,,,76,127
40431,note_off,0,0,0,,1,,,61,127
40433,note_on,2,0,0,,2,,,62,127
40433,note_on,0,0,0,,5,,,77,127
40534,note_off,101,0,0,,5,,,77,127
40536,note_on,2,0,0,,7,,,79,127
40637,note_off,101,0,0,,7,,,79,127
40637,note_off,0,0,0,,2,,,62,127
40639,note_on,2,0,0,,4,,,64,127
40639,note_on,0,0,0,,5,,,77,127
40740,note_off,101,0,0,,5,,,77,127
40742,note_on,2,0,0,,4,,,76,127
40843,note_off,101,0,0,,4,,,76,127
40843,note_off,0,0,0,,4,,,64,127
40845,note_on,2,0,0,,5,,,65,127
40845,note_on,0,0,0,,2,,,74,127
40946,note_off,101,0,0,,2,,,74,127
40948,note_on,2,0,0,,0,,,72,127
41049,note_off,101,0,0,,0,,,72,127
41049,note_off,0,0,0,,5,,,65,127
41051,note_on,2,0,0,,7,,,55,127
41051,note_on,0,0,0,,7,,,67,127
41051,note_on,0,0,0,,12,,,71,127
41152,note_off,101,0,0,,12,,,71,127
41154,note_on,2,0,0,,10,,,81,127
41255,note_off,101,0,0,,10,,,81,127
41255,note_off,0,0,0,,7,,,55,127
41257,note_on,2,0,0,,10,,,57,127
41257,note_on,0,0,0,,7,,,79,127
41358,note_off,101,0,0,,7,,,79,127
41360,note_on,2,0,0,,5,,,77,127
41461,note_off,101,0,0,,5,,,77,127
41461,note_off,0,0,0,,10,,,57,127
41463,note_on,2,0,0,,12,,,59,127
41463,note_on,0,0,0,,4,,,76,127
41564,note_off,101,0,0,,4,,,76,127
41566,note_on,2,0,0,,2,,,74,127
41667,note_off,101,0,0,,2,,,74,127
41667,note_off,0,0,0,,12,,,59,127
41668,note_off,1,0,0,,7,,,67,127
41669,note_on,1,0,0,,0,,,60,127
41669,note_on,0,0,0,,4,,,76,127
41770,note_off,101,0,0,,4,,,76,127
41772,note_on,2,0,0,,5,,,77,127
41873,note_off,101,0,0,,5,,,77,127
41873,note_off,0,0,0,,0,,,60,127
41875,note_on,2,0,0,,2,,,62,127
41875,note_on,0,0,0,,4,,,76,127
41976,note_off,101,0,0,,4,,,76,127
41978,note_on,2,0,0,,2,,,74,127
42079,note_off,101,0,0,,2,,,74,127
42079,note_off,0,0,0,,2,,,62,127
42081,note_on,2,0,0,,4,,,64,127
42081,note_on,0,0,0,,0,,,72,127
42182,note_off,101,0,0,,0,,,72,127
42184,note_on,2,0,0,,12,,,71,127
42285,note_off,101,0,0,,12,,,71,127
42285,note_off,0,0,0,,4,,,64,127
42287,note_on,2,0,0,,5,,,53,127
42287,note_on,0,0,0,,5,,,65,127
42287,note_on,0,0,0,,10,,,69,127
42390,note_on,103,0,0,,10,,,81,127
42491,note_off,101,0,0,,10,,,81,127
42491,note_off,0,0,0,,10,,,69,127
42491,note_off,0,0,0,,5,,,53,127
42493,note_on,2,0,0,,7,,,55,127
42493,note_on,0,0,0,,7,,,79,127
42494,note_on,1,0,0,,5,,,77,127
42594,note_off,100,0,0,,7,,,79,127
42595,note_off,1,0,0,,5,,,77,127
42596,note_on,1,0,0,,4,,,76,127
42697,note_off,101,0,0,,4,,,76,127
42697,note_off,0,0,0,,7,,,55,127
42699,note_on,2,0,0,,10,,,57,127
42699,note_on,0,0,0,,2,,,74,127
42800,note_off,101,0,0,,2,,,74,127
42802,note_on,2,0,0,,0,,,72,127
42903,note_off,101,0,0,,0,,,72,127
42903,note_off,0,0,0,,10,,,57,127
42904,note_off,1,0,0,,5,,,65,127
42905,note_on,1,0,0,,7,,,55,127
42905,note_on,0,0,0,,0,,,72,127
42956,note_on,51,0,0,,12,,,71,127
42962,note_off,6,0,0,,0,,,72,127
43007,note_on,45,0,0,,0,,,72,127
43013,note_off,6,0,0,,12,,,71,127
43058,note_on,45,0,0,,12,,,71,127
43064,note_off,6,0,0,,0,,,72,127
43109,note_on,45,0,0,,7,,,43,127
43109,note_on,0,0,0,,0,,,72,127
43115,note_off,6,0,0,,12,,,71,127
43160,note_on,45,0,0,,12,,,71,127
43166,note_off,6,0,0,,0,,,72,127
43211,note_on,45,0,0,,10,,,69,127
43217,note_off,6,0,0,,12,,,71,127
43311,note_off,94,0,0,,10,,,69,127
43313,note_on,2,0,0,,7,,,67,127
43517,note_off,204,0,0,,7,,,67,127
43517,note_off,0,0,0,,7,,,43,127
43518,note_off,1,0,0,,7,,,55,127
43536,note_on,18,0,0,,5,,,77,127
43537,note_on,1,0,0,,4,,,76,127
43537,note_on,0,0,0,,0,,,72,127
43637,note_off,100,0,0,,5,,,77,127
43638,note_off,1,0,0,,0,,,72,127
43638,note_off,0,0,0,,4,,,76,127
43639,note_on,1,0,0,,2,,,74,127
43639,note_on,0,0,0,,12,,,71,127
43740,note_off,101,0,0,,12,,,71,127
43740,note_off,0,0,0,,2,,,74,127
43742,note_on,2,0,0,,4,,,76,127
43742,note_on,0,0,0,,0,,,72,127
43843,note_off,101,0,0,,0,,,72,127
43843,note_off,0,0,0,,4,,,76,127
43845,note_on,2,0,0,,5,,,77,127
43845,note_on,0,0,0,,2,,,74,127
43946,note_off,101,0,0,,2,,,74,127
43946,note_off,0,0,0,,5,,,77,127
43948,note_on,2,0,0,,7,,,79,127
43948,note_on,0,0,0,,4,,,76,127
44049,note_off,101,0,0,,4,,,76,127
44049,note_off,0,0,0,,7,,,79,127
44051,note_on,2,0,0,,10,,,81,127
44051,note_on,0,0,0,,0,,,72,127
44152,note_off,101,0,0,,0,,,72,127
44152,note_off,0,0,0,,10,,,81,127
44154,note_on,2,0,0,,7,,,79,127
44155,note_on,1,0,0,,5,,,77,127
44155,note_on,0,0,0,,2,,,74,127
44255,note_off,100,0,0,,7,,,79,127
44256,note_off,1,0,0,,2,,,74,127
44256,note_off,0,0,0,,5,,,77,127
44257,note_on,1,0,0,,4,,,76,127
44257,note_on,0,0,0,,0,,,72,127
44358,note_off,101,0,0,,0,,,72,127
44358,note_off,0,0,0,,4,,,76,127
44360,note_on,2,0,0,,2,,,74,127
44360,note_on,0,0,0,,12,,,71,127
44461,note_off,101,0,0,,12,,,71,127
44461,note_off,0,0,0,,2,,,74,127
44463,note_on,2,0,0,,4,,,76,127
44463,note_on,0,0,0,,10,,,69,127
44564,note_off,101,0,0,,10,,,69,127
44564,note_off,0,0,0,,4,,,76,127
44566,note_on,2,0,0,,5,,,77,127
44566,note_on,0,0,0,,7,,,67,127
44667,note_off,101,0,0,,7,,,67,127
44667,note_off,0,0,0,,5,,,77,127
44669,note_on,2,0,0,,7,,,79,127
44669,note_on,0,0,0,,12,,,71,127
44770,note_off,101,0,0,,12,,,71,127
44770,note_off,0,0,0,,7,,,79,127
44772,note_on,2,0,0,,5,,,77,127
44773,note_on,1,0,0,,4,,,76,127
44773,note_on,0,0,0,,0,,,72,127
44873,note_off,100,0,0,,5,,,77,127
44874,note_off,1,0,0,,0,,,72,127
44874,note_off,0,0,0,,4,,,76,127
44875,note_on,1,0,0,,2,,,74,127
44875,note_on,0,0,0,,12,,,71,127
44976,note_off,101,0,0,,12,,,71,127
44976,note_off,0,0,0,,2,,,74,127
44978,note_on,2,0,0,,0,,,72,127
44978,note_on,0,0,0,,10,,,69,127
45079,note_off,101,0,0,,10,,,69,127
45079,note_off,0,0,0,,0,,,72,127
45081,note_on,2,0,0,,2,,,74,127
45081,note_on,0,0,0,,7,,,67,127
45182,note_off,101,0,0,,7,,,67,127
45182,note_off,0,0,0,,2,,,74,127
45184,note_on,2,0,0,,4,,,76,127
45184,note_on,0,0,0,,5,,,65,127
45285,note_off,101,0,0,,5,,,65,127
45285,note_off,0,0,0,,4,,,76,127
45287,note_on,2,0,0,,5,,,77,127
45287,note_on,0,0,0,,10,,,69,127
45388,note_off,101,0,0,,10,,,69,127
45388,note_off,0,0,0,,5,,,77,127
45390,note_on,2,0,0,,4,,,76,127
45390,note_on,0,0,0,,7,,,43,127
45491,note_off,101,0,0,,4,,,76,127
45493,note_on,2,0,0,,2,,,74,127
45544,note_on,51,0,0,,4,,,76,127
45550,note_off,6,0,0,,2,,,74,127
45595,note_on,45,0,0,,2,,,74,127
45601,note_off,6,0,0,,4,,,76,127
45646,note_on,45,0,0,,4,,,76,127
45652,note_off,6,0,0,,2,,,74,127
45697,note_on,45,0,0,,2,,,74,127
45703,note_off,6,0,0,,4,,,76,127
45748,note_on,45,0,0,,4,,,76,127
45754,note_off,6,0,0,,2,,,74,127
45799,note_on,45,0,0,,2,,,74,127
45805,note_off,6,0,0,,4,,,76,127
46002,note_off,197,0,0,,2,,,74,127
46002,note_off,0,0,0,,7,,,43,127
46021,note_on,19,0,0,,5,,,77,127
46022,note_on,1,0,0,,0,,,72,127
46022,note_on,0,0,0,,4,,,76,127
46122,note_off,100,0,0,,5,,,77,127
46123,note_off,1,0,0,,4,,,76,127
46123,note_off,0,0,0,,0,,,72,127
46124,note_on,1,0,0,,12,,,71,127
46124,note_on,0,0,0,,2,,,74,127
46225,note_off,101,0,0,,2,,,74,127
46225,note_off,0,0,0,,12,,,71,127
46227,note_on,2,0,0,,0,,,72,127
46227,note_on,0,0,0,,4,,,76,127
46328,note_off,101,0,0,,4,,,76,127
46328,note_off,0,0,0,,0,,,72,127
46330,note_on,2,0,0,,2,,,74,127
46330,note_on,0,0,0,,5,,,77,127
46431,note_off,101,0,0,,5,,,77,127
46431,note_off,0,0,0,,2,,,74,127
46433,note_on,2,0,0,,4,,,76,127
46433,note_on,0,0,0,,7,,,79,127
46534,note_off,101,0,0,,7,,,79,127
46534,note_off,0,0,0,,4,,,76,127
46536,note_on,2,0,0,,0,,,72,127
46536,note_on,0,0,0,,10,,,81,127
46637,note_off,101,0,0,,10,,,81,127
46637,note_off,0,0,0,,0,,,72,127
46639,note_on,2,0,0,,7,,,79,127
46640,note_on,1,0,0,,2,,,74,127
46640,note_on,0,0,0,,5,,,77,127
46740,note_off,100,0,0,,7,,,79,127
46741,note_off,1,0,0,,5,,,77,127
46741,note_off,0,0,0,,2,,,74,127
46742,note_on,1,0,0,,0,,,72,127
46742,note_on,0,0,0,,4,,,76,127
46843,note_off,101,0,0,,4,,,76,127
46843,note_off,0,0,0,,0,,,72,127
46845,note_on,2,0,0,,12,,,71,127
46845,note_on,0,0,0,,2,,,74,127
46946,note_off,101,0,0,,2,,,74,127
46946,note_off,0,0,0,,12,,,71,127
46948,note_on,2,0,0,,10,,,69,127
46948,note_on,0,0,0,,4,,,76,127
47049,note_off,101,0,0,,4,,,76,127
47049,note_off,0,0,0,,10,,,69,127
47051,note_on,2,0,0,,7,,,67,127
47051,note_on,0,0,0,,5,,,77,127
47152,note_off,101,0,0,,5,,,77,127
47152,note_off,0,0,0,,7,,,67,127
47154,note_on,2,0,0,,12,,,71,127
47154,note_on,0,0,0,,7,,,79,127
47255,note_off,101,0,0,,7,,,79,127
47255,note_off,0,0,0,,12,,,71,127
47257,note_on,2,0,0,,5,,,77,127
47258,note_on,1,0,0,,0,,,72,127
47258,note_on,0,0,0,,4,,,76,127
47358,note_off,100,0,0,,5,,,77,127
47359,note_off,1,0,0,,4,,,76,127
47359,note_off,0,0,0,,0,,,72,127
47360,note_on,1,0,0,,12,,,71,127
47360,note_on,0,0,0,,2,,,74,127
47461,note_off,101,0,0,,2,,,74,127
47461,note_off,0,0,0,,12,,,71,127
47463,note_on,2,0,0,,10,,,69,127
47463,note_on,0,0,0,,0,,,72,127
47564,note_off,101,0,0,,0,,,72,127
47564,note_off,0,0,0,,10,,,69,127
47566,note_on,2,0,0,,7,,,67,127
47566,note_on,0,0,0,,2,,,74,127
47667,note_off,101,0,0,,2,,,74,127
47667,note_off,0,0,0,,7,,,67,127
47669,note_on,2,0,0,,5,,,65,127
47669,note_on,0,0,0,,4,,,76,127
47770,note_off,101,0,0,,4,,,76,127
47770,note_off,0,0,0,,5,,,65,127
47772,note_on,2,0,0,,10,,,69,127
47772,note_on,0,0,0,,5,,,77,127
47873,note_off,101,0,0,,5,,,77,127
47873,note_off,0,0,0,,10,,,69,127
47875,note_on,2,0,0,,7,,,43,127
47875,note_on,0,0,0,,4,,,76,127
47976,note_off,101,0,0,,4,,,76,127
47978,note_on,2,0,0,,2,,,74,127
48029,note_on,51,0,0,,4,,,76,127
48035,note_off,6,0,0,,2,,,74,127
48080,note_on,45,0,0,,2,,,74,127
48086,note_off,6,0,0,,4,,,76,127
48131,note_on,45,0,0,,4,,,76,127
48137,note_off,6,0,0,,2,,,74,127
48182,note_on,45,0,0,,2,,,74,127
48188,note_off,6,0,0,,4,,,76,127
48233,note_on,45,0,0,,4,,,76,127
48239,note_off,6,0,0,,2,,,74,127
48284,note_on,45,0,0,,2,,,74,127
48290,note_off,6,0,0,,4,,,76,127
48487,note_off,197,0,0,,2,,,74,127
48487,note_off,0,0,0,,7,,,43,127
48506,note_on,19,0,0,,5,,,77,127
48507,note_on,1,0,0,,4,,,76,127
48507,note_on,0,0,0,,0,,,72,127
48607,note_off,100,0,0,,5,,,77,127
48608,note_off,1,0,0,,0,,,72,127
48608,note_off,0,0,0,,4,,,76,127
48609,note_on,1,0,0,,2,,,74,127
48609,note_on,0,0,0,,12,,,71,127
48710,note_off,101,0,0,,12,,,71,127
48710,note_off,0,0,0,,2,,,74,127
48712,note_on,2,0,0,,4,,,76,127
48712,note_on,0,0,0,,0,,,72,127
48813,note_off,101,0,0,,0,,,72,127
48813,note_off,0,0,0,,4,,,76,127
48815,note_on,2,0,0,,5,,,77,127
48815,note_on,0,0,0,,2,,,74,127
48916,note_off,101,0,0,,2,,,74,127
48916,note_off,0,0,0,,5,,,77,127
48918,note_on,2,0,0,,7,,,79,127
48918,note_on,0,0,0,,4,,,76,127
49019,note_off,101,0,0,,4,,,76,127
49019,note_off,0,0,0,,7,,,79,127
49021,note_on,2,0,0,,10,,,81,127
49021,note_on,0,0,0,,5,,,77,127
49122,note_off,101,0,0,,5,,,77,127
49122,note_off,0,0,0,,10,,,81,127
49124,note_on,2,0,0,,7,,,79,127
49124,note_on,0,0,0,,7,,,43,127
49225,note_off,101,0,0,,7,,,79,127
49227,note_on,2,0,0,,10,,,81,127
49328,note_off,101,0,0,,10,,,81,127
49330,note_on,2,0,0,,12,,,83,127
49431,note_off,101,0,0,,12,,,83,127
49433,note_on,2,0,0,,0,,,84,127
49534,note_off,101,0,0,,0,,,84,127
49536,note_on,2,0,0,,2,,,86,127
49639,note_on,103,0,0,,5,,,77,127
49690,note_off,51,0,0,,2,,,86,127
49739,note_off,49,0,0,,5,,,77,127
49739,note_off,0,0,0,,7,,,43,127
49741,note_on,2,0,0,,4,,,76,127
49741,note_on,0,0,0,,0,,,72,127
49742,note_on,1,0,0,,5,,,77,127
49842,note_off,100,0,0,,0,,,72,127
49842,note_off,0,0,0,,4,,,76,127
49843,note_off,1,0,0,,5,,,77,127
49844,note_on,1,0,0,,2,,,74,127
49844,note_on,0,0,0,,12,,,71,127
49945,note_off,101,0,0,,12,,,71,127
49945,note_off,0,0,0,,2,,,74,127
49947,note_on,2,0,0,,4,,,76,127
49947,note_on,0,0,0,,0,,,72,127
50048,note_off,101,0,0,,0,,,72,127
50048,note_off,0,0,0,,4,,,76,127
50050,note_on,2,0,0,,5,,,77,127
50050,note_on,0,0,0,,2,,,74,127
50151,note_off,101,0,0,,2,,,74,127
50151,note_off,0,0,0,,5,,,77,127
50153,note_on,2,0,0,,7,,,79,127
50153,note_on,0,0,0,,4,,,76,127
50254,note_off,101,0,0,,4,,,76,127
50254,note_off,0,0,0,,7,,,79,127
50256,note_on,2,0,0,,10,,,81,127
50256,note_on,0,0,0,,5,,,77,127
50357,note_off,101,0,0,,5,,,77,127
50357,note_off,0,0,0,,10,,,81,127
50359,note_on,2,0,0,,7,,,79,127
50359,note_on,0,0,0,,7,,,43,127
50460,note_off,101,0,0,,7,,,79,127
50462,note_on,2,0,0,,10,,,81,127
50563,note_off,101,0,0,,10,,,81,127
50565,note_on,2,0,0,,12,,,83,127
50666,note_off,101,0,0,,12,,,83,127
50668,note_on,2,0,0,,0,,,84,127
50769,note_off,101,0,0,,0,,,84,127
50771,note_on,2,0,0,,2,,,86,127
50880,note_on,109,0,0,,5,,,77,127
50974,note_off,94,0,0,,7,,,43,127
50980,note_off,6,0,0,,5,,,77,127
50993,note_on,13,0,0,,0,,,60,127
50993,note_on,0,0,0,,4,,,76,127
51070,note_off,77,0,0,,2,,,86,127
51096,note_on,26,0,0,,2,,,86,127
51197,note_off,101,0,0,,2,,,86,127
51197,note_off,0,0,0,,4,,,76,127
51197,note_off,0,0,0,,0,,,60,127
51199,note_on,2,0,0,,2,,,62,127
51199,note_on,0,0,0,,0,,,84,127
51300,note_off,101,0,0,,0,,,84,127
51302,note_on,2,0,0,,12,,,83,127
51403,note_off,101,0,0,,12,,,83,127
51403,note_off,0,0,0,,2,,,62,127
51405,note_on,2,0,0,,4,,,64,127
51405,note_on,0,0,0,,0,,,84,127
51506,note_off,101,0,0,,0,,,84,127
51508,note_on,2,0,0,,7,,,79,127
51609,note_off,101,0,0,,7,,,79,127
51609,note_off,0,0,0,,4,,,64,127
51611,note_on,2,0,0,,5,,,65,127
51611,note_on,0,0,0,,10,,,81,127
51712,note_off,101,0,0,,10,,,81,127
51714,note_on,2,0,0,,5,,,77,127
51815,note_off,101,0,0,,5,,,77,127
51815,note_off,0,0,0,,5,,,65,127
51817,note_on,2,0,0,,7,,,67,127
51817,note_on,0,0,0,,4,,,76,127
51920,note_on,103,0,0,,0,,,84,127
52021,note_off,101,0,0,,4,,,76,127
52021,note_off,0,0,0,,7,,,67,127
52023,note_on,2,0,0,,7,,,55,127
52023,note_on,0,0,0,,2,,,74,127
52124,note_off,101,0,0,,0,,,84,127
52126,note_on,2,0,0,,12,,,83,127
52227,note_off,101,0,0,,12,,,83,127
52227,note_off,0,0,0,,2,,,74,127
52227,note_off,0,0,0,,7,,,55,127
52229,note_on,2,0,0,,0,,,60,127
52229,note_on,0,0,0,,0,,,84,127
52330,note_off,101,0,0,,0,,,84,127
52332,note_on,2,0,0,,7,,,79,127
52433,note_off,101,0,0,,7,,,79,127
52435,note_on,2,0,0,,4,,,76,127
52536,note_off,101,0,0,,4,,,76,127
52538,note_on,2,0,0,,0,,,72,127
52639,note_off,101,0,0,,0,,,72,127
52641,note_on,2,0,0,,4,,,76,127
52742,note_off,101,0,0,,4,,,76,127
52744,note_on,2,0,0,,7,,,79,127
52845,note_off,101,0,0,,7,,,79,127
52845,note_off,0,0,0,,0,,,60,127
52864,note_on,19,0,0,,5,,,77,127
52865,note_on,1,0,0,,0,,,72,127
52865,note_on,0,0,0,,4,,,76,127
52965,note_off,100,0,0,,5,,,77,127
52966,note_off,1,0,0,,4,,,76,127
52966,note_off,0,0,0,,0,,,72,127
52967,note_on,1,0,0,,2,,,74,127
52967,note_on,0,0,0,,12,,,71,127
53068,note_off,101,0,0,,12,,,71,127
53068,note_off,0,0,0,,2,,,74,127
53070,note_on,2,0,0,,4,,,76,127
53070,note_on,0,0,0,,0,,,72,127
53171,note_off,101,0,0,,0,,,72,127
53171,note_off,0,0,0,,4,,,76,127
53173,note_on,2,0,0,,5,,,77,127
53173,note_on,0,0,0,,2,,,74,127
53274,note_off,101,0,0,,2,,,74,127
53274,note_off,0,0,0,,5,,,77,127
53276,note_on,2,0,0,,7,,,79,127
53276,note_on,0,0,0,,4,,,76,127
53377,note_off,101,0,0,,4,,,76,127
53377,note_off,0,0,0,,7,,,79,127
53379,note_on,2,0,0,,10,,,81,127
53379,note_on,0,0,0,,5,,,77,127
53480,note_off,101,0,0,,5,,,77,127
53480,note_off,0,0,0,,10,,,81,127
53482,note_on,2,0,0,,7,,,79,127
53482,note_on,0,0,0,,7,,,43,127
53583,note_off,101,0,0,,7,,,79,127
53585,note_on,2,0,0,,10,,,81,127
53686,note_off,101,0,0,,10,,,81,127
53688,note_on,2,0,0,,12,,,83,127
53789,note_off,101,0,0,,12,,,83,127
53791,note_on,2,0,0,,0,,,84,127
53892,note_off,101,0,0,,0,,,84,127
53894,note_on,2,0,0,,2,,,86,127
53997,note_on,103,0,0,,5,,,77,127
54098,note_off,101,0,0,,5,,,77,127
54098,note_off,0,0,0,,2,,,86,127
54098,note_off,0,0,0,,7,,,43,127
54111,note_on,13,0,0,,4,,,76,127
54111,note_on,0,0,0,,0,,,72,127
54112,note_on,1,0,0,,5,,,77,127
54212,note_off,100,0,0,,0,,,72,127
54212,note_off,0,0,0,,4,,,76,127
54213,note_off,1,0,0,,5,,,77,127
54214,note_on,1,0,0,,2,,,74,127
54214,note_on,0,0,0,,12,,,71,127
54315,note_off,101,0,0,,12,,,71,127
54315,note_off,0,0,0,,2,,,74,127
54317,note_on,2,0,0,,4,,,76,127
54317,note_on,0,0,0,,0,,,72,127
54418,note_off,101,0,0,,0,,,72,127
54418,note_off,0,0,0,,4,,,76,127
54420,note_on,2,0,0,,5,,,77,127
54420,note_on,0,0,0,,2,,,74,127
54521,note_off,101,0,0,,2,,,74,127
54521,note_off,0,0,0,,5,,,77,127
54523,note_on,2,0,0,,7,,,79,127
54523,note_on,0,0,0,,4,,,76,127
54624,note_off,101,0,0,,4,,,76,127
54624,note_off,0,0,0,,7,,,79,127
54626,note_on,2,0,0,,10,,,81,127
54626,note_on,0,0,0,,5,,,77,127
54727,note_off,101,0,0,,5,,,77,127
54727,note_off,0,0,0,,10,,,81,127
54729,note_on,2,0,0,,7,,,79,127
54729,note_on,0,0,0,,7,,,43,127
54830,note_off,101,0,0,,7,,,79,127
54832,note_on,2,0,0,,10,,,81,127
54933,note_off,101,0,0,,10,,,81,127
54935,note_on,2,0,0,,12,,,83,127
55036,note_off,101,0,0,,12,,,83,127
55038,note_on,2,0,0,,0,,,84,127
55139,note_off,101,0,0,,0,,,84,127
55141,note_on,2,0,0,,2,,,86,127
55244,note_on,103,0,0,,5,,,77,127
55345,note_off,101,0,0,,5,,,77,127
55345,note_off,0,0,0,,7,,,43,127
55356,note_on,11,0,0,,4,,,76,127
55356,note_on,0,0,0,,0,,,60,127
55442,note_off,86,0,0,,2,,,86,127
55459,note_on,17,0,0,,2,,,86,127
55560,note_off,101,0,0,,2,,,86,127
55560,note_off,0,0,0,,0,,,60,127
55560,note_off,0,0,0,,4,,,76,127
55562,note_on,2,0,0,,0,,,84,127
55562,note_on,0,0,0,,2,,,62,127
55663,note_off,101,0,0,,0,,,84,127
55665,note_on,2,0,0,,12,,,83,127
55766,note_off,101,0,0,,12,,,83,127
55766,note_off,0,0,0,,2,,,62,127
55768,note_on,2,0,0,,0,,,84,127
55768,note_on,0,0,0,,4,,,64,127
55871,note_on,103,0,0,,7,,,79,127
55972,note_off,101,0,0,,7,,,79,127
55972,note_off,0,0,0,,4,,,64,127
55972,note_off,0,0,0,,0,,,84,127
55974,note_on,2,0,0,,10,,,81,127
55974,note_on,0,0,0,,5,,,65,127
56077,note_on,103,0,0,,5,,,77,127
56178,note_off,101,0,0,,5,,,77,127
56178,note_off,0,0,0,,5,,,65,127
56178,note_off,0,0,0,,10,,,81,127
56180,note_on,2,0,0,,4,,,76,127
56180,note_on,0,0,0,,7,,,67,127
56281,note_off,101,0,0,,4,,,76,127
56283,note_on,2,0,0,,0,,,84,127
56384,note_off,101,0,0,,7,,,67,127
56386,note_on,2,0,0,,2,,,74,127
56386,note_on,0,0,0,,7,,,55,127
56487,note_off,101,0,0,,2,,,74,127
56487,note_off,0,0,0,,0,,,84,127
56489,note_on,2,0,0,,12,,,83,127
56590,note_off,101,0,0,,12,,,83,127
56590,note_off,0,0,0,,7,,,55,127
56609,note_on,19,0,0,,0,,,48,127
56609,note_on,0,0,0,,0,,,72,127
56710,note_off,101,0,0,,0,,,72,127
56712,note_on,2,0,0,,2,,,86,127
56813,note_off,101,0,0,,2,,,86,127
56813,note_off,0,0,0,,0,,,48,127
56815,note_on,2,0,0,,2,,,50,127
56815,note_on,0,0,0,,0,,,84,127
56916,note_off,101,0,0,,0,,,84,127
56918,note_on,2,0,0,,12,,,83,127
57019,note_off,101,0,0,,12,,,83,127
57019,note_off,0,0,0,,2,,,50,127
57021,note_on,2,0,0,,4,,,52,127
57021,note_on,0,0,0,,10,,,81,127
57122,note_off,101,0,0,,10,,,81,127
57124,note_on,2,0,0,,8,,,80,127
57225,note_off,101,0,0,,8,,,80,127
57225,note_off,0,0,0,,4,,,52,127
57227,note_on,2,0,0,,5,,,53,127
57227,note_on,0,0,0,,8,,,80,127
57328,note_off,101,0,0,,8,,,80,127
57330,note_on,2,0,0,,12,,,83,127
57431,note_off,101,0,0,,12,,,83,127
57433,note_on,2,0,0,,10,,,81,127
57534,note_off,101,0,0,,10,,,81,127
57536,note_on,2,0,0,,7,,,79,127
57637,note_off,101,0,0,,7,,,79,127
57637,note_off,0,0,0,,5,,,53,127
57639,note_on,2,0,0,,4,,,52,127
57639,note_on,0,0,0,,5,,,77,127
57740,note_off,101,0,0,,5,,,77,127
57742,note_on,2,0,0,,4,,,76,127
57843,note_off,101,0,0,,4,,,76,127
57843,note_off,0,0,0,,4,,,52,127
57845,note_on,2,0,0,,2,,,50,127
57845,note_on,0,0,0,,4,,,76,127
57946,note_off,101,0,0,,4,,,76,127
57948,note_on,2,0,0,,7,,,79,127
58049,note_off,101,0,0,,7,,,79,127
58051,note_on,2,0,0,,5,,,77,127
58152,note_off,101,0,0,,5,,,77,127
58154,note_on,2,0,0,,4,,,76,127
58255,note_off,101,0,0,,4,,,76,127
58255,note_off,0,0,0,,2,,,50,127
58257,note_on,2,0,0,,4,,,52,127
58257,note_on,0,0,0,,2,,,74,127
58358,note_off,101,0,0,,2,,,74,127
58360,note_on,2,0,0,,1,,,73,127
58461,note_off,101,0,0,,1,,,73,127
58461,note_off,0,0,0,,4,,,52,127
58463,note_on,2,0,0,,5,,,53,127
58463,note_on,0,0,0,,1,,,73,127
58564,note_off,101,0,0,,1,,,73,127
58566,note_on,2,0,0,,4,,,76,127
58667,note_off,101,0,0,,4,,,76,127
58667,note_off,0,0,0,,5,,,53,127
58669,note_on,2,0,0,,4,,,52,127
58669,note_on,0,0,0,,2,,,74,127
58770,note_off,101,0,0,,2,,,74,127
58772,note_on,2,0,0,,0,,,72,127
58873,note_off,101,0,0,,0,,,72,127
58873,note_off,0,0,0,,4,,,52,127
58875,note_on,2,0,0,,2,,,50,127
58875,note_on,0,0,0,,12,,,71,127
58976,note_off,101,0,0,,12,,,71,127
58978,note_on,2,0,0,,10,,,69,127
59079,note_off,101,0,0,,10,,,69,127
59079,note_off,0,0,0,,2,,,50,127
59081,note_on,2,0,0,,7,,,55,127
59081,note_on,0,0,0,,0,,,72,127
59081,note_on,0,0,0,,12,,,71,127
59285,note_off,204,0,0,,12,,,71,127
59285,note_off,0,0,0,,0,,,72,127
59285,note_off,0,0,0,,7,,,55,127
59287,note_on,2,0,0,,5,,,53,127
59287,note_on,0,0,0,,10,,,69,127
59388,note_off,101,0,0,,10,,,69,127
59390,note_on,2,0,0,,7,,,67,127
59491,note_off,101,0,0,,7,,,67,127
59491,note_off,0,0,0,,5,,,53,127
59493,note_on,2,0,0,,4,,,52,127
59493,note_on,0,0,0,,10,,,81,127
59594,note_off,101,0,0,,10,,,81,127
59596,note_on,2,0,0,,7,,,79,127
59697,note_off,101,0,0,,7,,,79,127
59697,note_off,0,0,0,,4,,,52,127
59699,note_on,2,0,0,,5,,,53,127
59699,note_on,0,0,0,,5,,,77,127
59800,note_off,101,0,0,,5,,,77,127
59802,note_on,2,0,0,,4,,,76,127
59903,note_off,101,0,0,,4,,,76,127
59903,note_off,0,0,0,,5,,,53,127
59905,note_on,2,0,0,,7,,,55,127
59905,note_on,0,0,0,,4,,,76,127
60006,note_off,101,0,0,,4,,,76,127
60008,note_on,2,0,0,,2,,,74,127
60109,note_off,101,0,0,,2,,,74,127
60109,note_off,0,0,0,,7,,,55,127
60111,note_on,2,0,0,,7,,,43,127
60111,note_on,0,0,0,,0,,,72,127
60212,note_off,101,0,0,,0,,,72,127
60214,note_on,2,0,0,,12,,,71,127
60315,note_off,101,0,0,,12,,,71,127
60315,note_off,0,0,0,,7,,,43,127
60334,note_on,19,0,0,,0,,,72,127
60334,note_on,0,0,0,,0,,,48,127
60435,note_off,101,0,0,,0,,,72,127
60437,note_on,2,0,0,,2,,,86,127
60538,note_off,101,0,0,,2,,,86,127
60538,note_off,0,0,0,,0,,,48,127
60540,note_on,2,0,0,,0,,,84,127
60540,note_on,0,0,0,,2,,,50,127
60641,note_off,101,0,0,,0,,,84,127
60643,note_on,2,0,0,,12,,,83,127
60744,note_off,101,0,0,,12,,,83,127
60744,note_off,0,0,0,,2,,,50,127
60746,note_on,2,0,0,,10,,,81,127
60746,note_on,0,0,0,,4,,,52,127
60847,note_off,101,0,0,,10,,,81,127
60849,note_on,2,0,0,,8,,,80,127
60950,note_off,101,0,0,,4,,,52,127
60952,note_on,2,0,0,,5,,,53,127
61031,note_off,79,0,0,,8,,,80,127
61055,note_on,24,0,0,,12,,,83,127
61156,note_off,101,0,0,,12,,,83,127
61158,note_on,2,0,0,,10,,,81,127
61259,note_off,101,0,0,,10,,,81,127
61261,note_on,2,0,0,,7,,,79,127
61362,note_off,101,0,0,,7,,,79,127
61362,note_off,0,0,0,,5,,,53,127
61364,note_on,2,0,0,,5,,,77,127
61364,note_on,0,0,0,,4,,,52,127
61465,note_off,101,0,0,,5,,,77,127
61467,note_on,2,0,0,,4,,,76,127
61568,note_off,101,0,0,,4,,,52,127
61570,note_on,2,0,0,,2,,,50,127
61649,note_off,79,0,0,,4,,,76,127
61673,note_on,24,0,0,,7,,,79,127
61774,note_off,101,0,0,,7,,,79,127
61776,note_on,2,0,0,,5,,,77,127
61877,note_off,101,0,0,,5,,,77,127
61879,note_on,2,0,0,,4,,,76,127
61980,note_off,101,0,0,,4,,,76,127
61980,note_off,0,0,0,,2,,,50,127
61982,note_on,2,0,0,,2,,,74,127
61982,note_on,0,0,0,,4,,,52,127
62083,note_off,101,0,0,,2,,,74,127
62085,note_on,2,0,0,,1,,,73,127
62186,note_off,101,0,0,,4,,,52,127
62188,note_on,2,0,0,,5,,,53,127
62267,note_off,79,0,0,,1,,,73,127
62291,note_on,24,0,0,,4,,,76,127
62392,note_off,101,0,0,,4,,,76,127
62392,note_off,0,0,0,,5,,,53,127
62394,note_on,2,0,0,,2,,,74,127
62394,note_on,0,0,0,,4,,,52,127
62495,note_off,101,0,0,,2,,,74,127
62497,note_on,2,0,0,,0,,,72,127
62598,note_off,101,0,0,,0,,,72,127
62598,note_off,0,0,0,,4,,,52,127
62600,note_on,2,0,0,,12,,,71,127
62600,note_on,0,0,0,,2,,,50,127
62701,note_off,101,0,0,,12,,,71,127
62703,note_on,2,0,0,,10,,,69,127
62804,note_off,101,0,0,,10,,,69,127
62804,note_off,0,0,0,,2,,,50,127
62806,note_on,2,0,0,,12,,,71,127
62806,note_on,0,0,0,,0,,,72,127
62806,note_on,0,0,0,,7,,,55,127
63010,note_off,204,0,0,,7,,,55,127
63010,note_off,0,0,0,,0,,,72,127
63010,note_off,0,0,0,,12,,,71,127
63012,note_on,2,0,0,,10,,,69,127
63012,note_on,0,0,0,,5,,,53,127
63113,note_off,101,0,0,,10,,,69,127
63115,note_on,2,0,0,,7,,,67,127
63216,note_off,101,0,0,,7,,,67,127
63216,note_off,0,0,0,,5,,,53,127
63218,note_on,2,0,0,,10,,,81,127
63218,note_on,0,0,0,,4,,,52,127
63319,note_off,101,0,0,,10,,,81,127
63321,note_on,2,0,0,,7,,,79,127
63422,note_off,101,0,0,,7,,,79,127
63422,note_off,0,0,0,,4,,,52,127
63424,note_on,2,0,0,,5,,,77,127
63424,note_on,0,0,0,,5,,,53,127
63525,note_off,101,0,0,,5,,,77,127
63527,note_on,2,0,0,,4,,,76,127
63628,note_off,101,0,0,,4,,,76,127
63628,note_off,0,0,0,,5,,,53,127
63630,note_on,2,0,0,,4,,,76,127
63630,note_on,0,0,0,,7,,,55,127
63731,note_off,101,0,0,,4,,,76,127
63733,note_on,2,0,0,,2,,,74,127
63834,note_off,101,0,0,,2,,,74,127
63836,note_on,2,0,0,,0,,,72,127
63836,note_on,0,0,0,,7,,,43,127
63937,note_off,101,0,0,,0,,,72,127
63939,note_on,2,0,0,,12,,,71,127
64038,note_off,99,0,0,,7,,,55,127
64040,note_off,2,0,0,,12,,,71,127
64040,note_off,0,0,0,,7,,,43,127
64059,note_on,19,0,0,,0,,,48,127
64059,note_on,0,0,0,,0,,,60,127
64059,note_on,0,0,0,,0,,,72,127
64162,note_on,103,0,0,,4,,,76,127
64263,note_off,101,0,0,,4,,,76,127
64263,note_off,0,0,0,,0,,,72,127
64263,note_off,0,0,0,,0,,,60,127
64263,note_off,0,0,0,,0,,,48,127
64265,note_on,2,0,0,,5,,,53,127
64265,note_on,0,0,0,,5,,,41,127
64265,note_on,0,0,0,,10,,,69,127
64368,note_on,103,0,0,,5,,,77,127
64469,note_off,101,0,0,,5,,,77,127
64469,note_off,0,0,0,,10,,,69,127
64469,note_off,0,0,0,,5,,,41,127
64469,note_off,0,0,0,,5,,,53,127
64471,note_on,2,0,0,,7,,,43,127
64471,note_on,0,0,0,,7,,,55,127
64471,note_on,0,0,0,,12,,,71,127
64574,note_on,103,0,0,,2,,,74,127
64675,note_off,101,0,0,,2,,,74,127
64675,note_off,0,0,0,,12,,,71,127
64675,note_off,0,0,0,,7,,,55,127
64675,note_off,0,0,0,,7,,,43,127
64694,note_on,19,0,0,,0,,,72,127
64694,note_on,0,0,0,,0,,,60,127
64694,note_on,0,0,0,,0,,,48,127
64797,note_on,103,0,0,,4,,,76,127
64898,note_off,101,0,0,,4,,,76,127
64898,note_off,0,0,0,,0,,,48,127
64898,note_off,0,0,0,,0,,,60,127
64898,note_off,0,0,0,,0,,,72,127
64900,note_on,2,0,0,,10,,,69,127
64900,note_on,0,0,0,,5,,,41,127
64900,note_on,0,0,0,,5,,,53,127
65003,note_on,103,0,0,,5,,,77,127
65104,note_off,101,0,0,,5,,,77,127
65104,note_off,0,0,0,,5,,,53,127
65104,note_off,0,0,0,,5,,,41,127
65104,note_off,0,0,0,,10,,,69,127
65106,note_on,2,0,0,,12,,,71,127
65106,note_on,0,0,0,,7,,,55,127
65106,note_on,0,0,0,,7,,,43,127
65209,note_on,103,0,0,,2,,,74,127
65310,note_off,101,0,0,,2,,,74,127
65310,note_off,0,0,0,,7,,,43,127
65310,note_off,0,0,0,,7,,,55,127
65310,note_off,0,0,0,,12,,,71,127
65329,note_on,19,0,0,,0,,,48,127
65329,note_on,0,0,0,,0,,,60,127
65329,note_on,0,0,0,,0,,,72,127
65432,note_on,103,0,0,,4,,,76,127
65533,note_off,101,0,0,,4,,,76,127
65533,note_off,0,0,0,,0,,,72,127
65533,note_off,0,0,0,,0,,,60,127
65533,note_off,0,0,0,,0,,,48,127
65535,note_on,2,0,0,,5,,,53,127
65535,note_on,0,0,0,,5,,,41,127
65535,note_on,0,0,0,,10,,,69,127
65638,note_on,103,0,0,,5,,,77,127
65739,note_off,101,0,0,,5,,,77,127
65739,note_off,0,0,0,,10,,,69,127
65739,note_off,0,0,0,,5,,,41,127
65739,note_off,0,0,0,,5,,,53,127
65741,note_on,2,0,0,,7,,,55,127
65741,note_on,0,0,0,,7,,,43,127
65741,note_on,0,0,0,,12,,,71,127
65844,note_on,103,0,0,,2,,,74,127
65945,note_off,101,0,0,,2,,,74,127
65945,note_off,0,0,0,,12,,,71,127
65945,note_off,0,0,0,,7,,,43,127
65945,note_off,0,0,0,,7,,,55,127
65964,note_on,19,0,0,,0,,,72,127
65964,note_on,0,0,0,,0,,,48,127
65964,note_on,0,0,0,,0,,,36,127
67571,note_off,1607,0,0,,0,,,36,127
67571,note_off,0,0,0,,0,,,48,127
67571,note_off,0,0,0,,0,,,72,127
73728,end_of_track,6157,1,0,,,,,,
