tick,type,time,meta,track,program,channel,pitch,tempo,note,velocity
0,copyright,0,1,0,,,,,,
0,program_change,0,0,0,6,0,,,,
0,pitchwheel,0,0,0,,0,0,,,
0,program_change,0,0,0,6,1,,,,
0,pitchwheel,0,0,0,,1,-590,,,
0,program_change,0,0,0,6,2,,,,
0,pitchwheel,0,0,0,,2,-272,,,
0,program_change,0,0,0,6,3,,,,
0,pitchwheel,0,0,0,,3,-353,,,
0,program_change,0,0,0,6,4,,,,
0,pitchwheel,0,0,0,,4,-560,,,
0,program_change,0,0,0,6,5,,,,
0,pitchwheel,0,0,0,,5,-80,,,
0,program_change,0,0,0,6,6,,,,
0,pitchwheel,0,0,0,,6,-625,,,
0,program_change,0,0,0,6,7,,,,
0,pitchwheel,0,0,0,,7,-130,,,
0,program_change,0,0,0,6,8,,,,
0,pitchwheel,0,0,0,,8,-512,,,
0,program_change,0,0,0,6,10,,,,
0,pitchwheel,0,0,0,,10,-464,,,
0,program_change,0,0,0,6,11,,,,
0,pitchwheel,0,0,0,,11,-208,,,
0,program_change,0,0,0,6,12,,,,
0,pitchwheel,0,0,0,,12,-553,,,
0,set_tempo,0,1,0,,,,500000,,
115,note_on,115,0,0,,11,,,46,127
115,note_on,0,0,0,,11,,,34,127
345,note_on,230,0,0,,11,,,70,127
459,note_off,114,0,0,,11,,,70,127
460,note_on,1,0,0,,5,,,65,127
574,note_off,114,0,0,,5,,,65,127
575,note_on,1,0,0,,11,,,70,127
804,note_off,229,0,0,,11,,,70,127
805,note_on,1,0,0,,2,,,74,127
919,note_off,114,0,0,,2,,,74,127
920,note_on,1,0,0,,11,,,70,127
1034,note_off,114,0,0,,11,,,70,127
1035,note_on,1,0,0,,2,,,74,127
1264,note_off,229,0,0,,2,,,74,127
1265,note_on,1,0,0,,5,,,77,127
1379,note_off,114,0,0,,5,,,77,127
1380,note_on,1,0,0,,2,,,74,127
1494,note_off,114,0,0,,2,,,74,127
1495,note_on,1,0,0,,5,,,77,127
1724,note_off,229,0,0,,5,,,77,127
1725,note_on,1,0,0,,11,,,82,127
1839,note_off,114,0,0,,11,,,82,127
1840,note_on,1,0,0,,5,,,77,127
1950,note_off,110,0,0,,11,,,34,127
1950,note_off,0,0,0,,11,,,46,127
1954,note_off,4,0,0,,5,,,77,127
1955,note_on,1,0,0,,11,,,82,127
2185,note_on,230,0,0,,11,,,70,127
2299,note_off,114,0,0,,11,,,70,127
2300,note_on,1,0,0,,10,,,69,127
2414,note_off,114,0,0,,10,,,69,127
2415,note_on,1,0,0,,7,,,67,127
2529,note_off,114,0,0,,7,,,67,127
2529,note_off,0,0,0,,11,,,82,127
2530,note_on,1,0,0,,5,,,65,127
2530,note_on,0,0,0,,10,,,81,127
2644,note_off,114,0,0,,10,,,81,127
2644,note_off,0,0,0,,5,,,65,127
2645,note_on,1,0,0,,3,,,63,127
2645,note_on,0,0,0,,7,,,79,127
2759,note_off,114,0,0,,7,,,79,127
2759,note_off,0,0,0,,3,,,63,127
2760,note_on,1,0,0,,2,,,62,127
2760,note_on,0,0,0,,5,,,77,127
2874,note_off,114,0,0,,2,,,62,127
2875,note_on,1,0,0,,0,,,60,127
2933,note_off,58,0,0,,5,,,77,127
2933,note_on,0,0,0,,3,,,75,127
2989,note_off,56,0,0,,3,,,75,127
2989,note_off,0,0,0,,0,,,60,127
2990,note_on,1,0,0,,11,,,58,127
2990,note_on,0,0,0,,5,,,77,127
3046,note_off,56,0,0,,5,,,77,127
3047,note_on,1,0,0,,3,,,75,127
3103,note_off,56,0,0,,3,,,75,127
3103,note_off,0,0,0,,11,,,58,127
3104,note_on,1,0,0,,10,,,57,127
3104,note_on,0,0,0,,5,,,77,127
3160,note_off,56,0,0,,5,,,77,127
3161,note_on,1,0,0,,3,,,75,127
3217,note_off,56,0,0,,3,,,75,127
3217,note_off,0,0,0,,10,,,57,127
3218,note_on,1,0,0,,7,,,55,127
3218,note_on,0,0,0,,5,,,77,127
3274,note_off,56,0,0,,5,,,77,127
3275,note_on,1,0,0,,3,,,75,127
3331,note_off,56,0,0,,3,,,75,127
3331,note_off,0,0,0,,7,,,55,127
3332,note_on,1,0,0,,5,,,53,127
3332,note_on,0,0,0,,5,,,77,127
3388,note_off,56,0,0,,5,,,77,127
3389,note_on,1,0,0,,3,,,75,127
3445,note_off,56,0,0,,3,,,75,127
3445,note_off,0,0,0,,5,,,53,127
3446,note_on,1,0,0,,3,,,51,127
3446,note_on,0,0,0,,5,,,77,127
3502,note_off,56,0,0,,5,,,77,127
3503,note_on,1,0,0,,3,,,75,127
3559,note_off,56,0,0,,3,,,75,127
3559,note_off,0,0,0,,3,,,51,127
3560,note_on,1,0,0,,2,,,50,127
3560,note_on,0,0,0,,5,,,77,127
3616,note_off,56,0,0,,5,,,77,127
3617,note_on,1,0,0,,3,,,75,127
3673,note_off,56,0,0,,3,,,75,127
3673,note_off,0,0,0,,2,,,50,127
3674,note_on,1,0,0,,0,,,48,127
3674,note_on,0,0,0,,2,,,74,127
3730,note_off,56,0,0,,2,,,74,127
3731,note_on,1,0,0,,3,,,75,127
3787,note_off,56,0,0,,3,,,75,127
3787,note_off,0,0,0,,0,,,48,127
3788,note_on,1,0,0,,11,,,46,127
3788,note_on,0,0,0,,2,,,74,127
4017,note_off,229,0,0,,11,,,46,127
4018,note_on,1,0,0,,11,,,70,127
4132,note_off,114,0,0,,11,,,70,127
4133,note_on,1,0,0,,10,,,69,127
4247,note_off,114,0,0,,10,,,69,127
4247,note_off,0,0,0,,2,,,74,127
4248,note_on,1,0,0,,7,,,67,127
4362,note_off,114,0,0,,7,,,67,127
4363,note_on,1,0,0,,5,,,65,127
4363,note_on,0,0,0,,5,,,77,127
4477,note_off,114,0,0,,5,,,77,127
4477,note_off,0,0,0,,5,,,65,127
4478,note_on,1,0,0,,3,,,63,127
4478,note_on,0,0,0,,7,,,79,127
4592,note_off,114,0,0,,7,,,79,127
4592,note_off,0,0,0,,3,,,63,127
4593,note_on,1,0,0,,2,,,62,127
4593,note_on,0,0,0,,2,,,74,127
4707,note_off,114,0,0,,2,,,62,127
4708,note_on,1,0,0,,0,,,60,127
4766,note_off,58,0,0,,2,,,74,127
4766,note_on,0,0,0,,3,,,75,127
4822,note_off,56,0,0,,3,,,75,127
4822,note_off,0,0,0,,0,,,60,127
4823,note_on,1,0,0,,11,,,58,127
4823,note_on,0,0,0,,5,,,77,127
4879,note_off,56,0,0,,5,,,77,127
4880,note_on,1,0,0,,3,,,75,127
4936,note_off,56,0,0,,3,,,75,127
4936,note_off,0,0,0,,11,,,58,127
4937,note_on,1,0,0,,10,,,57,127
4937,note_on,0,0,0,,5,,,77,127
4993,note_off,56,0,0,,5,,,77,127
4994,note_on,1,0,0,,3,,,75,127
5050,note_off,56,0,0,,3,,,75,127
5050,note_off,0,0,0,,10,,,57,127
5051,note_on,1,0,0,,7,,,55,127
5051,note_on,0,0,0,,5,,,77,127
5107,note_off,56,0,0,,5,,,77,127
5108,note_on,1,0,0,,3,,,75,127
5164,note_off,56,0,0,,3,,,75,127
5164,note_off,0,0,0,,7,,,55,127
5165,note_on,1,0,0,,5,,,53,127
5165,note_on,0,0,0,,5,,,77,127
5221,note_off,56,0,0,,5,,,77,127
5222,note_on,1,0,0,,3,,,75,127
5278,note_off,56,0,0,,3,,,75,127
5278,note_off,0,0,0,,5,,,53,127
5279,note_on,1,0,0,,3,,,51,127
5279,note_on,0,0,0,,5,,,77,127
5335,note_off,56,0,0,,5,,,77,127
5336,note_on,1,0,0,,3,,,75,127
5392,note_off,56,0,0,,3,,,75,127
5392,note_off,0,0,0,,3,,,51,127
5393,note_on,1,0,0,,2,,,50,127
5393,note_on,0,0,0,,5,,,77,127
5449,note_off,56,0,0,,5,,,77,127
5450,note_on,1,0,0,,3,,,75,127
5506,note_off,56,0,0,,3,,,75,127
5506,note_off,0,0,0,,2,,,50,127
5507,note_on,1,0,0,,0,,,48,127
5507,note_on,0,0,0,,2,,,74,127
5563,note_off,56,0,0,,2,,,74,127
5564,note_on,1,0,0,,3,,,75,127
5620,note_off,56,0,0,,3,,,75,127
5620,note_off,0,0,0,,0,,,48,127
5621,note_on,1,0,0,,11,,,46,127
5621,note_on,0,0,0,,2,,,74,127
5850,note_off,229,0,0,,2,,,74,127
5851,note_on,1,0,0,,11,,,70,127
5965,note_off,114,0,0,,11,,,70,127
5966,note_on,1,0,0,,5,,,65,127
6076,note_off,110,0,0,,11,,,46,127
6080,note_off,4,0,0,,5,,,65,127
6081,note_on,1,0,0,,11,,,70,127
6310,note_off,229,0,0,,11,,,70,127
6311,note_on,1,0,0,,11,,,58,127
6311,note_on,0,0,0,,2,,,62,127
6311,note_on,0,0,0,,2,,,74,127
6425,note_off,114,0,0,,2,,,74,127
6426,note_on,1,0,0,,11,,,70,127
6540,note_off,114,0,0,,11,,,70,127
6540,note_off,0,0,0,,2,,,62,127
6540,note_off,0,0,0,,11,,,58,127
6541,note_on,1,0,0,,10,,,57,127
6541,note_on,0,0,0,,0,,,60,127
6541,note_on,0,0,0,,5,,,77,127
6770,note_off,229,0,0,,5,,,77,127
6770,note_off,0,0,0,,0,,,60,127
6770,note_off,0,0,0,,10,,,57,127
6771,note_on,1,0,0,,0,,,60,127
6771,note_on,0,0,0,,10,,,57,127
6771,note_on,0,0,0,,3,,,75,127
6885,note_off,114,0,0,,3,,,75,127
6886,note_on,1,0,0,,5,,,65,127
7000,note_off,114,0,0,,5,,,65,127
7000,note_off,0,0,0,,10,,,57,127
7000,note_off,0,0,0,,0,,,60,127
7001,note_on,1,0,0,,2,,,62,127
7001,note_on,0,0,0,,11,,,58,127
7001,note_on,0,0,0,,3,,,75,127
7230,note_off,229,0,0,,3,,,75,127
7230,note_off,0,0,0,,11,,,58,127
7230,note_off,0,0,0,,2,,,62,127
7231,note_on,1,0,0,,11,,,58,127
7231,note_on,0,0,0,,2,,,62,127
7231,note_on,0,0,0,,2,,,74,127
7345,note_off,114,0,0,,2,,,74,127
7346,note_on,1,0,0,,5,,,65,127
7460,note_off,114,0,0,,5,,,65,127
7460,note_off,0,0,0,,2,,,62,127
7460,note_off,0,0,0,,11,,,58,127
7461,note_on,1,0,0,,0,,,60,127
7461,note_on,0,0,0,,5,,,53,127
7461,note_on,0,0,0,,0,,,72,127
7690,note_off,229,0,0,,0,,,72,127
7691,note_on,1,0,0,,11,,,70,127
7805,note_off,114,0,0,,11,,,70,127
7806,note_off,1,0,0,,5,,,53,127
7806,note_off,0,0,0,,0,,,60,127
7806,note_on,0,0,0,,5,,,65,127
7920,note_off,114,0,0,,5,,,65,127
7921,note_on,1,0,0,,11,,,70,127
8150,note_off,229,0,0,,11,,,70,127
8151,note_on,1,0,0,,11,,,58,127
8151,note_on,0,0,0,,2,,,62,127
8151,note_on,0,0,0,,2,,,74,127
8265,note_off,114,0,0,,2,,,74,127
8266,note_on,1,0,0,,11,,,70,127
8380,note_off,114,0,0,,11,,,70,127
8380,note_off,0,0,0,,2,,,62,127
8380,note_off,0,0,0,,11,,,58,127
8381,note_on,1,0,0,,0,,,60,127
8381,note_on,0,0,0,,10,,,57,127
8381,note_on,0,0,0,,5,,,77,127
8610,note_off,229,0,0,,5,,,77,127
8610,note_off,0,0,0,,10,,,57,127
8610,note_off,0,0,0,,0,,,60,127
8611,note_on,1,0,0,,0,,,60,127
8611,note_on,0,0,0,,10,,,57,127
8611,note_on,0,0,0,,3,,,75,127
8725,note_off,114,0,0,,3,,,75,127
8726,note_on,1,0,0,,5,,,65,127
8840,note_off,114,0,0,,5,,,65,127
8840,note_off,0,0,0,,10,,,57,127
8840,note_off,0,0,0,,0,,,60,127
8841,note_on,1,0,0,,11,,,58,127
8841,note_on,0,0,0,,2,,,62,127
8841,note_on,0,0,0,,3,,,75,127
9070,note_off,229,0,0,,3,,,75,127
9070,note_off,0,0,0,,2,,,62,127
9070,note_off,0,0,0,,11,,,58,127
9071,note_on,1,0,0,,11,,,58,127
9071,note_on,0,0,0,,2,,,62,127
9071,note_on,0,0,0,,2,,,74,127
9185,note_off,114,0,0,,2,,,74,127
9186,note_on,1,0,0,,5,,,65,127
9300,note_off,114,0,0,,5,,,65,127
9300,note_off,0,0,0,,2,,,62,127
9300,note_off,0,0,0,,11,,,58,127
9301,note_on,1,0,0,,0,,,60,127
9301,note_on,0,0,0,,5,,,53,127
9301,note_on,0,0,0,,0,,,72,127
9530,note_off,229,0,0,,5,,,53,127
9530,note_off,0,0,0,,0,,,60,127
9531,note_on,1,0,0,,5,,,53,127
9645,note_off,114,0,0,,5,,,53,127
9646,note_off,1,0,0,,0,,,72,127
9646,note_on,0,0,0,,0,,,48,127
9760,note_off,114,0,0,,0,,,48,127
9761,note_on,1,0,0,,5,,,53,127
9990,note_off,229,0,0,,5,,,53,127
9991,note_on,1,0,0,,10,,,57,127
9991,note_on,0,0,0,,5,,,77,127
10105,note_off,114,0,0,,5,,,77,127
10105,note_off,0,0,0,,10,,,57,127
10106,note_on,1,0,0,,5,,,53,127
10106,note_on,0,0,0,,7,,,79,127
10220,note_off,114,0,0,,7,,,79,127
10220,note_off,0,0,0,,5,,,53,127
10221,note_on,1,0,0,,10,,,57,127
10221,note_on,0,0,0,,0,,,72,127
10450,note_off,229,0,0,,0,,,72,127
10450,note_off,0,0,0,,10,,,57,127
10451,note_on,1,0,0,,0,,,60,127
10565,note_off,114,0,0,,0,,,60,127
10566,note_on,1,0,0,,10,,,57,127
10680,note_off,114,0,0,,10,,,57,127
10681,note_on,1,0,0,,0,,,60,127
10910,note_off,229,0,0,,0,,,60,127
10911,note_on,1,0,0,,5,,,65,127
10911,note_on,0,0,0,,10,,,81,127
11025,note_off,114,0,0,,10,,,81,127
11025,note_off,0,0,0,,5,,,65,127
11026,note_on,1,0,0,,0,,,60,127
11026,note_on,0,0,0,,11,,,82,127
11140,note_off,114,0,0,,11,,,82,127
11140,note_off,0,0,0,,0,,,60,127
11141,note_on,1,0,0,,5,,,65,127
11141,note_on,0,0,0,,0,,,72,127
11370,note_off,229,0,0,,0,,,72,127
11370,note_off,0,0,0,,5,,,65,127
11371,note_on,1,0,0,,5,,,53,127
11485,note_off,114,0,0,,5,,,53,127
11486,note_on,1,0,0,,0,,,48,127
11600,note_off,114,0,0,,0,,,48,127
11601,note_on,1,0,0,,5,,,53,127
11830,note_off,229,0,0,,5,,,53,127
11831,note_on,1,0,0,,10,,,57,127
11831,note_on,0,0,0,,5,,,77,127
11945,note_off,114,0,0,,5,,,77,127
11945,note_off,0,0,0,,10,,,57,127
11946,note_on,1,0,0,,5,,,53,127
11946,note_on,0,0,0,,7,,,79,127
12060,note_off,114,0,0,,7,,,79,127
12060,note_off,0,0,0,,5,,,53,127
12061,note_on,1,0,0,,10,,,57,127
12061,note_on,0,0,0,,0,,,72,127
12290,note_off,229,0,0,,10,,,57,127
12291,note_on,1,0,0,,0,,,60,127
12405,note_off,114,0,0,,0,,,60,127
12406,note_on,1,0,0,,10,,,57,127
12520,note_off,114,0,0,,10,,,57,127
12521,note_on,1,0,0,,0,,,60,127
12636,note_off,115,0,0,,0,,,72,127
12750,note_off,114,0,0,,0,,,60,127
12751,note_on,1,0,0,,5,,,65,127
12751,note_on,0,0,0,,10,,,81,127
12865,note_off,114,0,0,,10,,,81,127
12865,note_off,0,0,0,,5,,,65,127
12866,note_on,1,0,0,,0,,,60,127
12866,note_on,0,0,0,,11,,,82,127
12980,note_off,114,0,0,,11,,,82,127
12980,note_off,0,0,0,,0,,,60,127
12981,note_on,1,0,0,,5,,,65,127
12981,note_on,0,0,0,,0,,,72,127
13210,note_off,229,0,0,,0,,,72,127
13211,note_on,1,0,0,,10,,,81,127
13325,note_off,114,0,0,,10,,,81,127
13326,note_on,1,0,0,,7,,,79,127
13440,note_off,114,0,0,,7,,,79,127
13441,note_on,1,0,0,,5,,,77,127
13555,note_off,114,0,0,,5,,,77,127
13556,note_off,1,0,0,,5,,,65,127
13556,note_on,0,0,0,,4,,,76,127
13670,note_off,114,0,0,,4,,,76,127
13671,note_on,1,0,0,,5,,,53,127
13671,note_on,0,0,0,,2,,,74,127
13785,note_off,114,0,0,,2,,,74,127
13786,note_on,1,0,0,,0,,,72,127
13900,note_off,114,0,0,,0,,,72,127
13900,note_off,0,0,0,,5,,,53,127
13901,note_on,1,0,0,,7,,,55,127
13901,note_on,0,0,0,,11,,,70,127
14015,note_off,114,0,0,,11,,,70,127
14016,note_on,1,0,0,,10,,,69,127
14130,note_off,114,0,0,,10,,,69,127
14131,note_on,1,0,0,,7,,,67,127
14245,note_off,114,0,0,,7,,,67,127
14246,note_on,1,0,0,,5,,,65,127
14360,note_off,114,0,0,,5,,,65,127
14360,note_off,0,0,0,,7,,,55,127
14361,note_on,1,0,0,,0,,,48,127
14361,note_on,0,0,0,,4,,,64,127
14475,note_off,114,0,0,,4,,,64,127
14476,note_on,1,0,0,,2,,,62,127
14590,note_off,114,0,0,,2,,,62,127
14591,note_on,1,0,0,,0,,,60,127
14705,note_off,114,0,0,,0,,,60,127
14706,note_on,1,0,0,,11,,,58,127
14820,note_off,114,0,0,,11,,,58,127
14820,note_off,0,0,0,,0,,,48,127
14821,note_on,1,0,0,,5,,,41,127
14821,note_on,0,0,0,,5,,,53,127
14821,note_on,0,0,0,,10,,,57,127
15050,note_off,229,0,0,,10,,,57,127
15051,note_on,1,0,0,,10,,,81,127
15165,note_off,114,0,0,,10,,,81,127
15166,note_on,1,0,0,,7,,,79,127
15280,note_off,114,0,0,,7,,,79,127
15281,note_on,1,0,0,,5,,,77,127
15395,note_off,114,0,0,,5,,,77,127
15396,note_off,1,0,0,,5,,,41,127
15396,note_on,0,0,0,,4,,,76,127
15510,note_off,114,0,0,,4,,,76,127
15510,note_off,0,0,0,,5,,,53,127
15511,note_on,1,0,0,,5,,,53,127
15511,note_on,0,0,0,,2,,,74,127
15625,note_off,114,0,0,,2,,,74,127
15626,note_on,1,0,0,,0,,,72,127
15740,note_off,114,0,0,,0,,,72,127
15740,note_off,0,0,0,,5,,,53,127
15741,note_on,1,0,0,,7,,,55,127
15741,note_on,0,0,0,,11,,,70,127
15855,note_off,114,0,0,,11,,,70,127
15856,note_on,1,0,0,,10,,,69,127
15970,note_off,114,0,0,,10,,,69,127
15971,note_on,1,0,0,,7,,,67,127
16085,note_off,114,0,0,,7,,,67,127
16086,note_on,1,0,0,,5,,,65,127
16200,note_off,114,0,0,,5,,,65,127
16200,note_off,0,0,0,,7,,,55,127
16201,note_on,1,0,0,,0,,,48,127
16201,note_on,0,0,0,,4,,,64,127
16315,note_off,114,0,0,,4,,,64,127
16316,note_on,1,0,0,,2,,,62,127
16430,note_off,114,0,0,,2,,,62,127
16431,note_on,1,0,0,,0,,,60,127
16545,note_off,114,0,0,,0,,,60,127
16546,note_on,1,0,0,,11,,,58,127
16660,note_off,114,0,0,,11,,,58,127
16660,note_off,0,0,0,,0,,,48,127
16661,note_on,1,0,0,,10,,,45,127
16661,note_on,0,0,0,,10,,,57,127
16890,note_off,229,0,0,,10,,,57,127
16890,note_off,0,0,0,,10,,,45,127
16891,note_on,1,0,0,,10,,,57,127
17005,note_off,114,0,0,,10,,,57,127
17006,note_on,1,0,0,,4,,,52,127
17120,note_off,114,0,0,,4,,,52,127
17121,note_on,1,0,0,,10,,,57,127
17350,note_off,229,0,0,,10,,,57,127
17351,note_on,1,0,0,,1,,,61,127
17351,note_on,0,0,0,,10,,,69,127
17465,note_off,114,0,0,,10,,,69,127
17465,note_off,0,0,0,,1,,,61,127
17466,note_on,1,0,0,,10,,,57,127
17466,note_on,0,0,0,,4,,,64,127
17580,note_off,114,0,0,,4,,,64,127
17580,note_off,0,0,0,,10,,,57,127
17581,note_on,1,0,0,,1,,,61,127
17581,note_on,0,0,0,,10,,,69,127
17810,note_off,229,0,0,,10,,,69,127
17810,note_off,0,0,0,,1,,,61,127
17811,note_on,1,0,0,,4,,,64,127
17811,note_on,0,0,0,,1,,,73,127
17925,note_off,114,0,0,,1,,,73,127
17925,note_off,0,0,0,,4,,,64,127
17926,note_on,1,0,0,,1,,,61,127
17926,note_on,0,0,0,,10,,,69,127
18040,note_off,114,0,0,,10,,,69,127
18040,note_off,0,0,0,,1,,,61,127
18041,note_on,1,0,0,,4,,,64,127
18041,note_on,0,0,0,,1,,,73,127
18270,note_off,229,0,0,,1,,,73,127
18270,note_off,0,0,0,,4,,,64,127
18271,note_on,1,0,0,,10,,,69,127
18271,note_on,0,0,0,,4,,,76,127
18385,note_off,114,0,0,,4,,,76,127
18385,note_off,0,0,0,,10,,,69,127
18386,note_on,1,0,0,,4,,,64,127
18386,note_on,0,0,0,,1,,,73,127
18500,note_off,114,0,0,,1,,,73,127
18500,note_off,0,0,0,,4,,,64,127
18501,note_on,1,0,0,,10,,,69,127
18501,note_on,0,0,0,,4,,,76,127
18730,note_off,229,0,0,,10,,,69,127
18731,note_on,1,0,0,,1,,,73,127
18845,note_off,114,0,0,,1,,,73,127
18846,note_on,1,0,0,,10,,,69,127
18960,note_off,114,0,0,,10,,,69,127
18961,note_on,1,0,0,,1,,,73,127
19190,note_off,229,0,0,,4,,,76,127
19191,note_on,1,0,0,,10,,,81,127
19305,note_off,114,0,0,,10,,,81,127
19306,note_on,1,0,0,,4,,,76,127
19420,note_off,114,0,0,,4,,,76,127
19420,note_off,0,0,0,,1,,,73,127
19421,note_on,1,0,0,,2,,,74,127
19421,note_on,0,0,0,,5,,,77,127
19535,note_off,114,0,0,,5,,,77,127
19536,note_on,1,0,0,,2,,,86,127
19650,note_off,114,0,0,,2,,,86,127
19650,note_off,0,0,0,,2,,,74,127
19651,note_on,1,0,0,,7,,,67,127
19651,note_on,0,0,0,,11,,,82,127
19765,note_off,114,0,0,,11,,,82,127
19766,note_on,1,0,0,,7,,,79,127
19880,note_off,114,0,0,,7,,,79,127
19880,note_off,0,0,0,,7,,,67,127
19881,note_on,1,0,0,,10,,,69,127
19881,note_on,0,0,0,,4,,,76,127
19996,note_on,115,0,0,,1,,,73,127
20109,note_off,113,0,0,,4,,,76,127
20110,note_off,1,0,0,,1,,,73,127
20110,note_off,0,0,0,,10,,,69,127
20111,note_on,1,0,0,,1,,,61,127
20111,note_on,0,0,0,,10,,,69,127
20225,note_off,114,0,0,,10,,,69,127
20226,note_on,1,0,0,,7,,,79,127
20340,note_off,114,0,0,,7,,,79,127
20340,note_off,0,0,0,,1,,,61,127
20341,note_on,1,0,0,,2,,,62,127
20341,note_on,0,0,0,,5,,,77,127
20455,note_off,114,0,0,,5,,,77,127
20456,note_on,1,0,0,,2,,,86,127
20570,note_off,114,0,0,,2,,,86,127
20570,note_off,0,0,0,,2,,,62,127
20571,note_on,1,0,0,,7,,,55,127
20571,note_on,0,0,0,,11,,,82,127
20685,note_off,114,0,0,,11,,,82,127
20686,note_on,1,0,0,,7,,,79,127
20800,note_off,114,0,0,,7,,,79,127
20800,note_off,0,0,0,,7,,,55,127
20801,note_on,1,0,0,,10,,,57,127
20801,note_on,0,0,0,,4,,,76,127
20916,note_on,115,0,0,,1,,,73,127
21029,note_off,113,0,0,,4,,,76,127
21030,note_off,1,0,0,,1,,,73,127
21030,note_off,0,0,0,,10,,,57,127
21031,note_on,1,0,0,,1,,,61,127
21031,note_on,0,0,0,,10,,,69,127
21145,note_off,114,0,0,,10,,,69,127
21146,note_on,1,0,0,,7,,,79,127
21260,note_off,114,0,0,,7,,,79,127
21260,note_off,0,0,0,,1,,,61,127
21261,note_on,1,0,0,,2,,,62,127
21261,note_on,0,0,0,,5,,,77,127
21375,note_off,114,0,0,,5,,,77,127
21376,note_on,1,0,0,,2,,,86,127
21490,note_off,114,0,0,,2,,,86,127
21490,note_off,0,0,0,,2,,,62,127
21491,note_on,1,0,0,,5,,,53,127
21491,note_on,0,0,0,,12,,,83,127
21605,note_off,114,0,0,,12,,,83,127
21606,note_on,1,0,0,,5,,,77,127
21720,note_off,114,0,0,,5,,,77,127
21720,note_off,0,0,0,,5,,,53,127
21721,note_on,1,0,0,,7,,,55,127
21721,note_on,0,0,0,,2,,,74,127
21836,note_on,115,0,0,,12,,,71,127
21949,note_off,113,0,0,,2,,,74,127
21950,note_off,1,0,0,,12,,,71,127
21950,note_off,0,0,0,,7,,,55,127
21951,note_on,1,0,0,,12,,,59,127
21951,note_on,0,0,0,,7,,,67,127
22065,note_off,114,0,0,,7,,,67,127
22066,note_on,1,0,0,,5,,,77,127
22180,note_off,114,0,0,,5,,,77,127
22180,note_off,0,0,0,,12,,,59,127
22181,note_on,1,0,0,,0,,,60,127
22181,note_on,0,0,0,,4,,,76,127
22295,note_off,114,0,0,,4,,,76,127
22296,note_on,1,0,0,,0,,,84,127
22410,note_off,114,0,0,,0,,,84,127
22410,note_off,0,0,0,,0,,,60,127
22411,note_on,1,0,0,,5,,,53,127
22411,note_on,0,0,0,,10,,,81,127
22525,note_off,114,0,0,,10,,,81,127
22526,note_on,1,0,0,,5,,,77,127
22640,note_off,114,0,0,,5,,,77,127
22640,note_off,0,0,0,,5,,,53,127
22641,note_on,1,0,0,,7,,,55,127
22641,note_on,0,0,0,,2,,,74,127
22756,note_on,115,0,0,,12,,,71,127
22869,note_off,113,0,0,,2,,,74,127
22870,note_off,1,0,0,,12,,,71,127
22870,note_off,0,0,0,,7,,,55,127
22871,note_on,1,0,0,,12,,,59,127
22871,note_on,0,0,0,,7,,,67,127
22985,note_off,114,0,0,,7,,,67,127
22986,note_on,1,0,0,,5,,,77,127
23100,note_off,114,0,0,,5,,,77,127
23100,note_off,0,0,0,,12,,,59,127
23101,note_on,1,0,0,,0,,,60,127
23101,note_on,0,0,0,,4,,,76,127
23215,note_off,114,0,0,,4,,,76,127
23216,note_on,1,0,0,,0,,,84,127
23330,note_off,114,0,0,,0,,,84,127
23331,note_on,1,0,0,,7,,,79,127
23445,note_off,114,0,0,,7,,,79,127
23446,note_on,1,0,0,,4,,,76,127
23560,note_off,114,0,0,,4,,,76,127
23561,note_on,1,0,0,,0,,,48,127
23561,note_on,0,0,0,,0,,,72,127
23676,note_on,115,0,0,,7,,,67,127
23693,note_off,17,0,0,,0,,,72,127
23790,note_off,97,0,0,,7,,,67,127
23791,note_on,1,0,0,,4,,,64,127
23905,note_off,114,0,0,,4,,,64,127
23906,note_on,1,0,0,,11,,,70,127
24020,note_off,114,0,0,,11,,,70,127
24020,note_off,0,0,0,,0,,,48,127
24020,note_off,0,0,0,,0,,,60,127
24021,note_on,1,0,0,,5,,,53,127
24021,note_on,0,0,0,,10,,,69,127
24135,note_off,114,0,0,,10,,,69,127
24136,note_on,1,0,0,,0,,,84,127
24250,note_off,114,0,0,,0,,,84,127
24251,note_on,1,0,0,,10,,,81,127
24365,note_off,114,0,0,,10,,,81,127
24366,note_on,1,0,0,,5,,,77,127
24480,note_off,114,0,0,,5,,,77,127
24481,note_on,1,0,0,,5,,,41,127
24481,note_on,0,0,0,,0,,,72,127
24596,note_on,115,0,0,,10,,,69,127
24654,note_off,58,0,0,,0,,,72,127
24710,note_off,56,0,0,,10,,,69,127
24711,note_on,1,0,0,,5,,,65,127
24825,note_off,114,0,0,,5,,,65,127
24826,note_on,1,0,0,,3,,,75,127
24940,note_off,114,0,0,,3,,,75,127
24940,note_off,0,0,0,,5,,,41,127
24940,note_off,0,0,0,,5,,,53,127
24941,note_on,1,0,0,,11,,,58,127
24941,note_on,0,0,0,,2,,,62,127
24941,note_on,0,0,0,,2,,,74,127
25055,note_off,114,0,0,,2,,,74,127
25056,note_on,1,0,0,,4,,,76,127
25170,note_off,114,0,0,,4,,,76,127
25170,note_off,0,0,0,,2,,,62,127
25170,note_off,0,0,0,,11,,,58,127
25171,note_on,1,0,0,,10,,,57,127
25171,note_on,0,0,0,,0,,,60,127
25171,note_on,0,0,0,,5,,,77,127
25285,note_off,114,0,0,,5,,,77,127
25286,note_on,1,0,0,,2,,,74,127
25400,note_off,114,0,0,,2,,,74,127
25400,note_off,0,0,0,,0,,,60,127
25400,note_off,0,0,0,,10,,,57,127
25401,note_on,1,0,0,,11,,,58,127
25401,note_on,0,0,0,,7,,,55,127
25401,note_on,0,0,0,,4,,,76,127
25515,note_off,114,0,0,,4,,,76,127
25516,note_on,1,0,0,,5,,,77,127
25630,note_off,114,0,0,,5,,,77,127
25630,note_off,0,0,0,,7,,,55,127
25630,note_off,0,0,0,,11,,,58,127
25631,note_on,1,0,0,,5,,,53,127
25631,note_on,0,0,0,,10,,,57,127
25631,note_on,0,0,0,,7,,,79,127
25687,note_off,56,0,0,,7,,,79,127
25688,note_on,1,0,0,,5,,,77,127
25744,note_off,56,0,0,,5,,,77,127
25745,note_on,1,0,0,,4,,,76,127
25801,note_off,56,0,0,,4,,,76,127
25802,note_on,1,0,0,,5,,,77,127
25858,note_off,56,0,0,,5,,,77,127
25858,note_off,0,0,0,,10,,,57,127
25858,note_off,0,0,0,,5,,,53,127
25859,note_on,1,0,0,,0,,,48,127
25859,note_on,0,0,0,,7,,,79,127
25973,note_off,114,0,0,,7,,,79,127
25974,note_on,1,0,0,,4,,,76,127
26088,note_off,114,0,0,,4,,,76,127
26088,note_off,0,0,0,,0,,,48,127
26089,note_on,1,0,0,,10,,,57,127
26089,note_on,0,0,0,,0,,,60,127
26089,note_on,0,0,0,,5,,,77,127
26203,note_off,114,0,0,,5,,,77,127
26204,note_on,1,0,0,,2,,,74,127
26318,note_off,114,0,0,,2,,,74,127
26318,note_off,0,0,0,,0,,,60,127
26318,note_off,0,0,0,,10,,,57,127
26319,note_on,1,0,0,,11,,,58,127
26319,note_on,0,0,0,,7,,,55,127
26319,note_on,0,0,0,,4,,,76,127
26433,note_off,114,0,0,,4,,,76,127
26434,note_on,1,0,0,,5,,,77,127
26548,note_off,114,0,0,,5,,,77,127
26548,note_off,0,0,0,,7,,,55,127
26548,note_off,0,0,0,,11,,,58,127
26549,note_on,1,0,0,,10,,,57,127
26549,note_on,0,0,0,,5,,,53,127
26549,note_on,0,0,0,,7,,,79,127
26605,note_off,56,0,0,,7,,,79,127
26606,note_on,1,0,0,,5,,,77,127
26662,note_off,56,0,0,,5,,,77,127
26663,note_on,1,0,0,,4,,,76,127
26719,note_off,56,0,0,,4,,,76,127
26720,note_on,1,0,0,,5,,,77,127
26776,note_off,56,0,0,,5,,,77,127
26776,note_off,0,0,0,,5,,,53,127
26776,note_off,0,0,0,,10,,,57,127
26777,note_on,1,0,0,,0,,,48,127
26777,note_on,0,0,0,,7,,,79,127
26891,note_off,114,0,0,,7,,,79,127
26892,note_on,1,0,0,,4,,,76,127
27006,note_off,114,0,0,,4,,,76,127
27006,note_off,0,0,0,,0,,,48,127
27007,note_on,1,0,0,,0,,,60,127
27007,note_on,0,0,0,,10,,,57,127
27007,note_on,0,0,0,,5,,,77,127
27121,note_off,114,0,0,,5,,,77,127
27122,note_on,1,0,0,,2,,,74,127
27236,note_off,114,0,0,,2,,,74,127
27236,note_off,0,0,0,,10,,,57,127
27236,note_off,0,0,0,,0,,,60,127
27237,note_on,1,0,0,,11,,,58,127
27237,note_on,0,0,0,,7,,,55,127
27237,note_on,0,0,0,,4,,,76,127
27351,note_off,114,0,0,,4,,,76,127
27352,note_on,1,0,0,,5,,,77,127
27466,note_off,114,0,0,,5,,,77,127
27466,note_off,0,0,0,,7,,,55,127
27466,note_off,0,0,0,,11,,,58,127
27467,note_on,1,0,0,,10,,,57,127
27467,note_on,0,0,0,,5,,,53,127
27467,note_on,0,0,0,,7,,,79,127
27523,note_off,56,0,0,,7,,,79,127
27524,note_on,1,0,0,,5,,,77,127
27580,note_off,56,0,0,,5,,,77,127
27581,note_on,1,0,0,,4,,,76,127
27637,note_off,56,0,0,,4,,,76,127
27638,note_on,1,0,0,,5,,,77,127
27694,note_off,56,0,0,,5,,,77,127
27694,note_off,0,0,0,,5,,,53,127
27694,note_off,0,0,0,,10,,,57,127
27695,note_on,1,0,0,,0,,,48,127
27695,note_on,0,0,0,,5,,,77,127
27924,note_off,229,0,0,,5,,,77,127
27924,note_off,0,0,0,,0,,,48,127
27925,note_on,1,0,0,,0,,,60,127
27925,note_on,0,0,0,,7,,,79,127
28039,note_off,114,0,0,,0,,,60,127
28040,note_on,1,0,0,,0,,,48,127
28154,note_off,114,0,0,,0,,,48,127
28154,note_off,0,0,0,,7,,,79,127
28155,note_on,1,0,0,,0,,,60,127
28384,note_off,229,0,0,,0,,,60,127
28385,note_on,1,0,0,,11,,,58,127
28385,note_on,0,0,0,,4,,,76,127
28385,note_on,0,0,0,,7,,,79,127
28499,note_off,114,0,0,,11,,,58,127
28500,note_on,1,0,0,,0,,,48,127
28614,note_off,114,0,0,,0,,,48,127
28614,note_off,0,0,0,,7,,,79,127
28614,note_off,0,0,0,,4,,,76,127
28615,note_on,1,0,0,,11,,,58,127
28615,note_on,0,0,0,,7,,,79,127
28615,note_on,0,0,0,,4,,,76,127
28844,note_off,229,0,0,,4,,,76,127
28844,note_off,0,0,0,,7,,,79,127
28844,note_off,0,0,0,,11,,,58,127
28845,note_on,1,0,0,,10,,,57,127
28845,note_on,0,0,0,,5,,,77,127
28845,note_on,0,0,0,,10,,,81,127
28959,note_off,114,0,0,,10,,,57,127
28960,note_on,1,0,0,,0,,,48,127
29074,note_off,114,0,0,,0,,,48,127
29074,note_off,0,0,0,,10,,,81,127
29074,note_off,0,0,0,,5,,,77,127
29075,note_on,1,0,0,,10,,,57,127
29075,note_on,0,0,0,,5,,,77,127
29075,note_on,0,0,0,,11,,,82,127
29131,note_off,56,0,0,,11,,,82,127
29132,note_on,1,0,0,,10,,,81,127
29188,note_off,56,0,0,,10,,,81,127
29189,note_on,1,0,0,,11,,,82,127
29245,note_off,56,0,0,,11,,,82,127
29246,note_on,1,0,0,,10,,,81,127
29302,note_off,56,0,0,,10,,,81,127
29302,note_off,0,0,0,,10,,,57,127
29303,note_on,1,0,0,,10,,,57,127
29303,note_on,0,0,0,,11,,,82,127
29359,note_off,56,0,0,,10,,,57,127
29360,note_on,1,0,0,,7,,,55,127
29416,note_off,56,0,0,,7,,,55,127
29416,note_off,0,0,0,,11,,,82,127
29417,note_on,1,0,0,,5,,,53,127
29417,note_on,0,0,0,,0,,,84,127
29531,note_off,114,0,0,,0,,,84,127
29531,note_off,0,0,0,,5,,,53,127
29531,note_off,0,0,0,,5,,,77,127
29532,note_on,1,0,0,,0,,,48,127
29532,note_on,0,0,0,,4,,,76,127
29532,note_on,0,0,0,,7,,,79,127
29761,note_off,229,0,0,,0,,,48,127
29762,note_on,1,0,0,,0,,,60,127
29876,note_off,114,0,0,,0,,,60,127
29877,note_on,1,0,0,,0,,,48,127
29991,note_off,114,0,0,,0,,,48,127
29992,note_on,1,0,0,,0,,,60,127
30221,note_off,229,0,0,,0,,,60,127
30221,note_off,0,0,0,,7,,,79,127
30221,note_off,0,0,0,,4,,,76,127
30222,note_on,1,0,0,,11,,,58,127
30222,note_on,0,0,0,,7,,,79,127
30222,note_on,0,0,0,,4,,,76,127
30336,note_off,114,0,0,,11,,,58,127
30337,note_on,1,0,0,,0,,,48,127
30451,note_off,114,0,0,,0,,,48,127
30451,note_off,0,0,0,,4,,,76,127
30451,note_off,0,0,0,,7,,,79,127
30452,note_on,1,0,0,,11,,,58,127
30452,note_on,0,0,0,,4,,,76,127
30452,note_on,0,0,0,,7,,,79,127
30681,note_off,229,0,0,,7,,,79,127
30681,note_off,0,0,0,,4,,,76,127
30681,note_off,0,0,0,,11,,,58,127
30682,note_on,1,0,0,,10,,,57,127
30682,note_on,0,0,0,,5,,,77,127
30682,note_on,0,0,0,,10,,,81,127
30796,note_off,114,0,0,,10,,,57,127
30797,note_on,1,0,0,,0,,,48,127
30911,note_off,114,0,0,,0,,,48,127
30911,note_off,0,0,0,,10,,,81,127
30911,note_off,0,0,0,,5,,,77,127
30912,note_on,1,0,0,,10,,,57,127
30912,note_on,0,0,0,,11,,,82,127
30912,note_on,0,0,0,,5,,,77,127
30968,note_off,56,0,0,,11,,,82,127
30969,note_on,1,0,0,,10,,,81,127
31025,note_off,56,0,0,,10,,,81,127
31026,note_on,1,0,0,,11,,,82,127
31082,note_off,56,0,0,,11,,,82,127
31083,note_on,1,0,0,,10,,,81,127
31139,note_off,56,0,0,,10,,,81,127
31139,note_off,0,0,0,,10,,,57,127
31140,note_on,1,0,0,,10,,,57,127
31140,note_on,0,0,0,,11,,,82,127
31196,note_off,56,0,0,,10,,,57,127
31197,note_on,1,0,0,,7,,,55,127
31253,note_off,56,0,0,,7,,,55,127
31253,note_off,0,0,0,,11,,,82,127
31254,note_on,1,0,0,,5,,,53,127
31254,note_on,0,0,0,,0,,,84,127
31368,note_off,114,0,0,,0,,,84,127
31368,note_off,0,0,0,,5,,,53,127
31368,note_off,0,0,0,,5,,,77,127
31369,note_on,1,0,0,,0,,,48,127
31369,note_on,0,0,0,,7,,,79,127
31369,note_on,0,0,0,,4,,,76,127
31598,note_off,229,0,0,,4,,,76,127
31598,note_off,0,0,0,,7,,,79,127
31599,note_on,1,0,0,,0,,,84,127
31713,note_off,114,0,0,,0,,,84,127
31714,note_on,1,0,0,,11,,,82,127
31824,note_off,110,0,0,,0,,,48,127
31828,note_off,4,0,0,,11,,,82,127
31829,note_on,1,0,0,,10,,,81,127
31943,note_off,114,0,0,,10,,,81,127
31944,note_on,1,0,0,,7,,,79,127
32058,note_off,114,0,0,,7,,,79,127
32059,note_on,1,0,0,,5,,,53,127
32059,note_on,0,0,0,,5,,,77,127
32173,note_off,114,0,0,,5,,,77,127
32174,note_on,1,0,0,,4,,,76,127
32288,note_off,114,0,0,,4,,,76,127
32288,note_off,0,0,0,,5,,,53,127
32289,note_on,1,0,0,,11,,,58,127
32289,note_on,0,0,0,,2,,,74,127
32403,note_off,114,0,0,,2,,,74,127
32404,note_on,1,0,0,,4,,,76,127
32518,note_off,114,0,0,,4,,,76,127
32518,note_off,0,0,0,,11,,,58,127
32519,note_on,1,0,0,,7,,,55,127
32519,note_on,0,0,0,,5,,,77,127
32633,note_off,114,0,0,,5,,,77,127
32634,note_on,1,0,0,,7,,,79,127
32748,note_off,114,0,0,,7,,,79,127
32748,note_off,0,0,0,,7,,,55,127
32749,note_on,1,0,0,,0,,,60,127
32749,note_on,0,0,0,,10,,,81,127
32805,note_off,56,0,0,,10,,,81,127
32806,note_on,1,0,0,,7,,,79,127
32862,note_off,56,0,0,,7,,,79,127
32863,note_on,1,0,0,,10,,,81,127
32919,note_off,56,0,0,,10,,,81,127
32920,note_on,1,0,0,,7,,,79,127
32976,note_off,56,0,0,,7,,,79,127
32977,note_on,1,0,0,,0,,,48,127
32977,note_on,0,0,0,,10,,,81,127
33033,note_off,56,0,0,,10,,,81,127
33034,note_on,1,0,0,,7,,,79,127
33090,note_off,56,0,0,,7,,,79,127
33091,note_on,1,0,0,,5,,,77,127
33147,note_off,56,0,0,,5,,,77,127
33148,note_on,1,0,0,,7,,,79,127
33204,note_off,56,0,0,,7,,,79,127
33204,note_off,0,0,0,,0,,,48,127
33204,note_off,0,0,0,,0,,,60,127
33205,note_on,1,0,0,,5,,,53,127
33205,note_on,0,0,0,,5,,,77,127
33434,note_off,229,0,0,,5,,,53,127
33435,note_on,1,0,0,,5,,,65,127
33549,note_off,114,0,0,,5,,,65,127
33550,note_on,1,0,0,,5,,,53,127
33664,note_off,114,0,0,,5,,,53,127
33665,note_on,1,0,0,,5,,,65,127
33780,note_off,115,0,0,,5,,,77,127
33894,note_off,114,0,0,,5,,,65,127
33895,note_on,1,0,0,,3,,,63,127
33895,note_on,0,0,0,,5,,,77,127
33895,note_on,0,0,0,,10,,,81,127
34009,note_off,114,0,0,,3,,,63,127
34010,note_on,1,0,0,,5,,,53,127
34124,note_off,114,0,0,,5,,,53,127
34125,note_on,1,0,0,,3,,,63,127
34354,note_off,229,0,0,,3,,,63,127
34354,note_off,0,0,0,,10,,,81,127
34354,note_off,0,0,0,,5,,,77,127
34355,note_on,1,0,0,,2,,,62,127
34355,note_on,0,0,0,,5,,,77,127
34355,note_on,0,0,0,,11,,,82,127
34469,note_off,114,0,0,,2,,,62,127
34470,note_on,1,0,0,,5,,,53,127
34584,note_off,114,0,0,,5,,,53,127
34584,note_off,0,0,0,,11,,,82,127
34584,note_off,0,0,0,,5,,,77,127
34585,note_on,1,0,0,,2,,,62,127
34585,note_on,0,0,0,,5,,,77,127
34585,note_on,0,0,0,,0,,,84,127
34641,note_off,56,0,0,,0,,,84,127
34642,note_on,1,0,0,,11,,,82,127
34698,note_off,56,0,0,,11,,,82,127
34699,note_on,1,0,0,,0,,,84,127
34755,note_off,56,0,0,,0,,,84,127
34756,note_on,1,0,0,,11,,,82,127
34812,note_off,56,0,0,,11,,,82,127
34812,note_off,0,0,0,,2,,,62,127
34813,note_on,1,0,0,,2,,,62,127
34813,note_on,0,0,0,,0,,,84,127
34869,note_off,56,0,0,,2,,,62,127
34870,note_on,1,0,0,,0,,,60,127
34926,note_off,56,0,0,,0,,,60,127
34926,note_off,0,0,0,,0,,,84,127
34927,note_on,1,0,0,,11,,,58,127
34927,note_on,0,0,0,,2,,,86,127
35041,note_off,114,0,0,,2,,,86,127
35041,note_off,0,0,0,,11,,,58,127
35041,note_off,0,0,0,,5,,,77,127
35042,note_on,1,0,0,,5,,,53,127
35042,note_on,0,0,0,,2,,,86,127
35042,note_on,0,0,0,,5,,,77,127
35271,note_off,229,0,0,,2,,,86,127
35271,note_off,0,0,0,,5,,,53,127
35272,note_on,1,0,0,,5,,,65,127
35272,note_on,0,0,0,,0,,,84,127
35386,note_off,114,0,0,,5,,,65,127
35387,note_on,1,0,0,,5,,,53,127
35501,note_off,114,0,0,,5,,,53,127
35501,note_off,0,0,0,,5,,,77,127
35502,note_on,1,0,0,,5,,,65,127
35617,note_off,115,0,0,,0,,,84,127
35731,note_off,114,0,0,,5,,,65,127
35732,note_on,1,0,0,,3,,,63,127
35732,note_on,0,0,0,,10,,,81,127
35732,note_on,0,0,0,,5,,,77,127
35846,note_off,114,0,0,,3,,,63,127
35847,note_on,1,0,0,,5,,,53,127
35961,note_off,114,0,0,,5,,,53,127
35962,note_on,1,0,0,,3,,,63,127
36191,note_off,229,0,0,,3,,,63,127
36191,note_off,0,0,0,,5,,,77,127
36191,note_off,0,0,0,,10,,,81,127
36192,note_on,1,0,0,,2,,,62,127
36192,note_on,0,0,0,,11,,,82,127
36192,note_on,0,0,0,,5,,,77,127
36306,note_off,114,0,0,,2,,,62,127
36307,note_on,1,0,0,,5,,,53,127
36421,note_off,114,0,0,,5,,,53,127
36421,note_off,0,0,0,,5,,,77,127
36421,note_off,0,0,0,,11,,,82,127
36422,note_on,1,0,0,,2,,,62,127
36422,note_on,0,0,0,,5,,,77,127
36422,note_on,0,0,0,,0,,,84,127
36478,note_off,56,0,0,,0,,,84,127
36479,note_on,1,0,0,,11,,,82,127
36535,note_off,56,0,0,,11,,,82,127
36536,note_on,1,0,0,,0,,,84,127
36592,note_off,56,0,0,,0,,,84,127
36593,note_on,1,0,0,,11,,,82,127
36649,note_off,56,0,0,,11,,,82,127
36649,note_off,0,0,0,,2,,,62,127
36650,note_on,1,0,0,,2,,,62,127
36650,note_on,0,0,0,,0,,,84,127
36706,note_off,56,0,0,,2,,,62,127
36707,note_on,1,0,0,,0,,,60,127
36763,note_off,56,0,0,,0,,,60,127
36763,note_off,0,0,0,,0,,,84,127
36764,note_on,1,0,0,,11,,,58,127
36764,note_on,0,0,0,,2,,,86,127
36878,note_off,114,0,0,,2,,,86,127
36878,note_off,0,0,0,,11,,,58,127
36878,note_off,0,0,0,,5,,,77,127
36879,note_on,1,0,0,,10,,,57,127
36879,note_on,0,0,0,,2,,,86,127
36879,note_on,0,0,0,,5,,,77,127
37108,note_off,229,0,0,,2,,,86,127
37109,note_on,1,0,0,,0,,,84,127
37223,note_off,114,0,0,,0,,,84,127
37224,note_on,1,0,0,,11,,,82,127
37334,note_off,110,0,0,,10,,,57,127
37338,note_off,4,0,0,,11,,,82,127
37339,note_on,1,0,0,,10,,,81,127
37453,note_off,114,0,0,,10,,,81,127
37454,note_off,1,0,0,,5,,,77,127
37454,note_on,0,0,0,,7,,,79,127
37568,note_off,114,0,0,,7,,,79,127
37569,note_on,1,0,0,,5,,,53,127
37569,note_on,0,0,0,,5,,,77,127
37683,note_off,114,0,0,,5,,,77,127
37684,note_on,1,0,0,,4,,,76,127
37798,note_off,114,0,0,,4,,,76,127
37798,note_off,0,0,0,,5,,,53,127
37799,note_on,1,0,0,,11,,,58,127
37799,note_on,0,0,0,,2,,,74,127
37913,note_off,114,0,0,,2,,,74,127
37914,note_on,1,0,0,,10,,,81,127
38028,note_off,114,0,0,,10,,,81,127
38028,note_off,0,0,0,,11,,,58,127
38029,note_on,1,0,0,,7,,,55,127
38029,note_on,0,0,0,,11,,,82,127
38143,note_off,114,0,0,,11,,,82,127
38144,note_on,1,0,0,,7,,,79,127
38258,note_off,114,0,0,,7,,,79,127
38258,note_off,0,0,0,,7,,,55,127
38259,note_on,1,0,0,,0,,,60,127
38259,note_on,0,0,0,,5,,,77,127
38489,note_on,230,0,0,,0,,,48,127
38547,note_off,58,0,0,,5,,,77,127
38547,note_on,0,0,0,,4,,,76,127
38603,note_off,56,0,0,,4,,,76,127
38604,note_on,1,0,0,,5,,,77,127
38660,note_off,56,0,0,,5,,,77,127
38661,note_on,1,0,0,,4,,,76,127
38717,note_off,56,0,0,,4,,,76,127
38717,note_off,0,0,0,,0,,,48,127
38717,note_off,0,0,0,,0,,,60,127
38718,note_on,1,0,0,,5,,,53,127
38718,note_on,0,0,0,,5,,,77,127
38947,note_off,229,0,0,,5,,,53,127
38948,note_on,1,0,0,,5,,,53,127
38948,note_on,0,0,0,,0,,,60,127
38948,note_on,0,0,0,,0,,,72,127
39062,note_off,114,0,0,,0,,,72,127
39063,note_off,1,0,0,,5,,,77,127
39063,note_on,0,0,0,,10,,,69,127
39177,note_off,114,0,0,,10,,,69,127
39177,note_off,0,0,0,,0,,,60,127
39177,note_off,0,0,0,,5,,,53,127
39178,note_on,1,0,0,,2,,,62,127
39178,note_on,0,0,0,,5,,,53,127
39178,note_on,0,0,0,,11,,,70,127
39407,note_off,229,0,0,,11,,,70,127
39407,note_off,0,0,0,,5,,,53,127
39407,note_off,0,0,0,,2,,,62,127
39408,note_on,1,0,0,,4,,,64,127
39408,note_on,0,0,0,,5,,,53,127
39408,note_on,0,0,0,,7,,,79,127
39408,note_on,0,0,0,,11,,,70,127
39522,note_off,114,0,0,,11,,,70,127
39523,note_on,1,0,0,,7,,,67,127
39637,note_off,114,0,0,,7,,,67,127
39637,note_off,0,0,0,,7,,,79,127
39637,note_off,0,0,0,,5,,,53,127
39637,note_off,0,0,0,,4,,,64,127
39638,note_on,1,0,0,,5,,,53,127
39638,note_on,0,0,0,,5,,,65,127
39638,note_on,0,0,0,,10,,,69,127
39638,note_on,0,0,0,,5,,,77,127
39867,note_off,229,0,0,,10,,,69,127
39867,note_off,0,0,0,,5,,,65,127
39867,note_off,0,0,0,,5,,,53,127
39868,note_on,1,0,0,,0,,,60,127
39868,note_on,0,0,0,,5,,,53,127
39868,note_on,0,0,0,,0,,,72,127
39982,note_off,114,0,0,,0,,,72,127
39983,note_on,1,0,0,,10,,,69,127
40097,note_off,114,0,0,,10,,,69,127
40097,note_off,0,0,0,,5,,,53,127
40097,note_off,0,0,0,,0,,,60,127
40098,note_on,1,0,0,,5,,,53,127
40098,note_on,0,0,0,,2,,,62,127
40098,note_on,0,0,0,,11,,,70,127
40327,note_off,229,0,0,,11,,,70,127
40327,note_off,0,0,0,,2,,,62,127
40327,note_off,0,0,0,,5,,,53,127
40327,note_off,0,0,0,,5,,,77,127
40328,note_on,1,0,0,,4,,,64,127
40328,note_on,0,0,0,,5,,,53,127
40328,note_on,0,0,0,,7,,,79,127
40328,note_on,0,0,0,,11,,,70,127
40442,note_off,114,0,0,,11,,,70,127
40443,note_on,1,0,0,,7,,,67,127
40557,note_off,114,0,0,,7,,,67,127
40557,note_off,0,0,0,,7,,,79,127
40557,note_off,0,0,0,,5,,,53,127
40557,note_off,0,0,0,,4,,,64,127
40558,note_on,1,0,0,,5,,,65,127
40558,note_on,0,0,0,,5,,,53,127
40558,note_on,0,0,0,,10,,,69,127
40672,note_off,114,0,0,,10,,,69,127
40673,note_on,1,0,0,,5,,,77,127
40787,note_off,114,0,0,,5,,,77,127
40787,note_off,0,0,0,,5,,,53,127
40787,note_off,0,0,0,,5,,,65,127
40788,note_on,1,0,0,,11,,,58,127
40788,note_on,0,0,0,,2,,,74,127
40902,note_off,114,0,0,,2,,,74,127
40903,note_on,1,0,0,,11,,,82,127
41017,note_off,114,0,0,,11,,,82,127
41017,note_off,0,0,0,,11,,,58,127
41018,note_on,1,0,0,,0,,,60,127
41018,note_on,0,0,0,,5,,,77,127
41248,note_on,230,0,0,,0,,,48,127
41306,note_off,58,0,0,,5,,,77,127
41306,note_on,0,0,0,,4,,,76,127
41362,note_off,56,0,0,,4,,,76,127
41363,note_on,1,0,0,,5,,,77,127
41419,note_off,56,0,0,,5,,,77,127
41420,note_on,1,0,0,,4,,,76,127
41476,note_off,56,0,0,,4,,,76,127
41476,note_off,0,0,0,,0,,,48,127
41476,note_off,0,0,0,,0,,,60,127
41477,note_on,1,0,0,,5,,,53,127
41477,note_on,0,0,0,,5,,,77,127
41706,note_off,229,0,0,,5,,,53,127
41707,note_on,1,0,0,,5,,,53,127
41707,note_on,0,0,0,,0,,,60,127
41707,note_on,0,0,0,,0,,,72,127
41821,note_off,114,0,0,,0,,,72,127
41822,note_on,1,0,0,,10,,,69,127
41936,note_off,114,0,0,,10,,,69,127
41936,note_off,0,0,0,,0,,,60,127
41936,note_off,0,0,0,,5,,,53,127
41937,note_on,1,0,0,,2,,,62,127
41937,note_on,0,0,0,,5,,,53,127
41937,note_on,0,0,0,,11,,,70,127
42166,note_off,229,0,0,,11,,,70,127
42166,note_off,0,0,0,,5,,,53,127
42166,note_off,0,0,0,,2,,,62,127
42166,note_off,0,0,0,,5,,,77,127
42167,note_on,1,0,0,,4,,,64,127
42167,note_on,0,0,0,,5,,,53,127
42167,note_on,0,0,0,,7,,,79,127
42167,note_on,0,0,0,,11,,,70,127
42281,note_off,114,0,0,,11,,,70,127
42282,note_on,1,0,0,,7,,,67,127
42396,note_off,114,0,0,,7,,,67,127
42396,note_off,0,0,0,,7,,,79,127
42396,note_off,0,0,0,,5,,,53,127
42396,note_off,0,0,0,,4,,,64,127
42397,note_on,1,0,0,,5,,,65,127
42397,note_on,0,0,0,,5,,,53,127
42397,note_on,0,0,0,,10,,,69,127
42397,note_on,0,0,0,,5,,,77,127
42626,note_off,229,0,0,,10,,,69,127
42626,note_off,0,0,0,,5,,,53,127
42626,note_off,0,0,0,,5,,,65,127
42627,note_on,1,0,0,,5,,,53,127
42627,note_on,0,0,0,,0,,,60,127
42627,note_on,0,0,0,,0,,,72,127
42741,note_off,114,0,0,,0,,,72,127
42742,note_on,1,0,0,,10,,,69,127
42856,note_off,114,0,0,,10,,,69,127
42856,note_off,0,0,0,,0,,,60,127
42856,note_off,0,0,0,,5,,,53,127
42857,note_on,1,0,0,,5,,,53,127
42857,note_on,0,0,0,,2,,,62,127
42857,note_on,0,0,0,,11,,,70,127
43086,note_off,229,0,0,,11,,,70,127
43086,note_off,0,0,0,,2,,,62,127
43086,note_off,0,0,0,,5,,,53,127
43086,note_off,0,0,0,,5,,,77,127
43087,note_on,1,0,0,,5,,,53,127
43087,note_on,0,0,0,,4,,,64,127
43087,note_on,0,0,0,,7,,,79,127
43087,note_on,0,0,0,,11,,,70,127
43201,note_off,114,0,0,,11,,,70,127
43202,note_on,1,0,0,,7,,,67,127
43316,note_off,114,0,0,,7,,,67,127
43316,note_off,0,0,0,,7,,,79,127
43316,note_off,0,0,0,,4,,,64,127
43316,note_off,0,0,0,,5,,,53,127
43317,note_on,1,0,0,,5,,,53,127
43317,note_on,0,0,0,,5,,,65,127
43317,note_on,0,0,0,,10,,,69,127
43431,note_off,114,0,0,,10,,,69,127
43432,note_on,1,0,0,,5,,,77,127
43546,note_off,114,0,0,,5,,,77,127
43546,note_off,0,0,0,,5,,,65,127
43546,note_off,0,0,0,,5,,,53,127
43547,note_on,1,0,0,,11,,,58,127
43547,note_on,0,0,0,,2,,,74,127
43661,note_off,114,0,0,,2,,,74,127
43662,note_on,1,0,0,,11,,,82,127
43776,note_off,114,0,0,,11,,,82,127
43776,note_off,0,0,0,,11,,,58,127
43777,note_on,1,0,0,,0,,,60,127
43777,note_on,0,0,0,,5,,,77,127
44007,note_on,230,0,0,,0,,,48,127
44065,note_off,58,0,0,,5,,,77,127
44065,note_on,0,0,0,,4,,,76,127
44121,note_off,56,0,0,,4,,,76,127
44122,note_on,1,0,0,,5,,,77,127
44178,note_off,56,0,0,,5,,,77,127
44179,note_on,1,0,0,,4,,,76,127
44235,note_off,56,0,0,,4,,,76,127
44235,note_off,0,0,0,,0,,,48,127
44235,note_off,0,0,0,,0,,,60,127
44236,note_on,1,0,0,,5,,,53,127
44236,note_on,0,0,0,,5,,,77,127
44350,note_off,114,0,0,,5,,,77,127
44351,note_on,1,0,0,,0,,,72,127
44465,note_off,114,0,0,,0,,,72,127
44465,note_off,0,0,0,,5,,,53,127
44466,note_on,1,0,0,,11,,,58,127
44466,note_on,0,0,0,,2,,,74,127
44580,note_off,114,0,0,,2,,,74,127
44581,note_on,1,0,0,,5,,,65,127
44695,note_off,114,0,0,,5,,,65,127
44695,note_off,0,0,0,,11,,,58,127
44696,note_on,1,0,0,,0,,,60,127
44696,note_on,0,0,0,,5,,,65,127
44925,note_off,229,0,0,,5,,,65,127
44925,note_off,0,0,0,,0,,,60,127
44926,note_on,1,0,0,,0,,,36,127
44926,note_on,0,0,0,,5,,,65,127
44982,note_off,56,0,0,,5,,,65,127
44983,note_on,1,0,0,,4,,,64,127
45039,note_off,56,0,0,,4,,,64,127
45040,note_on,1,0,0,,5,,,65,127
45096,note_off,56,0,0,,5,,,65,127
45097,note_on,1,0,0,,4,,,64,127
45153,note_off,56,0,0,,4,,,64,127
45153,note_off,0,0,0,,0,,,36,127
45154,note_on,1,0,0,,5,,,53,127
45154,note_on,0,0,0,,5,,,41,127
45154,note_on,0,0,0,,4,,,64,127
45614,note_off,460,0,0,,4,,,64,127
45615,note_on,1,0,0,,5,,,65,127
46075,note_off,460,0,0,,5,,,65,127
46075,note_off,0,0,0,,5,,,41,127
46075,note_off,0,0,0,,5,,,53,127
46076,note_on,1,0,0,,5,,,53,127
46076,note_on,0,0,0,,5,,,41,127
46306,note_on,230,0,0,,8,,,68,127
46420,note_off,114,0,0,,8,,,68,127
46421,note_on,1,0,0,,5,,,65,127
46535,note_off,114,0,0,,5,,,65,127
46536,note_on,1,0,0,,8,,,68,127
46765,note_off,229,0,0,,8,,,68,127
46766,note_on,1,0,0,,0,,,72,127
46880,note_off,114,0,0,,0,,,72,127
46881,note_on,1,0,0,,8,,,68,127
46995,note_off,114,0,0,,8,,,68,127
46995,note_off,0,0,0,,5,,,41,127
46995,note_off,0,0,0,,5,,,53,127
46996,note_on,1,0,0,,5,,,53,127
46996,note_on,0,0,0,,5,,,41,127
46996,note_on,0,0,0,,0,,,72,127
47225,note_off,229,0,0,,0,,,72,127
47226,note_on,1,0,0,,5,,,77,127
47226,note_on,0,0,0,,1,,,73,127
47340,note_off,114,0,0,,1,,,73,127
47341,note_on,1,0,0,,11,,,70,127
47455,note_off,114,0,0,,11,,,70,127
47455,note_off,0,0,0,,5,,,77,127
47456,note_on,1,0,0,,5,,,77,127
47456,note_on,0,0,0,,1,,,73,127
47685,note_off,229,0,0,,1,,,73,127
47685,note_off,0,0,0,,5,,,77,127
47686,note_on,1,0,0,,7,,,79,127
47686,note_on,0,0,0,,4,,,76,127
47800,note_off,114,0,0,,4,,,76,127
47801,note_on,1,0,0,,0,,,72,127
47915,note_off,114,0,0,,0,,,72,127
47915,note_off,0,0,0,,7,,,79,127
47915,note_off,0,0,0,,5,,,41,127
47915,note_off,0,0,0,,5,,,53,127
47916,note_on,1,0,0,,5,,,53,127
47916,note_on,0,0,0,,5,,,41,127
47916,note_on,0,0,0,,5,,,77,127
47916,note_on,0,0,0,,8,,,80,127
48145,note_off,229,0,0,,8,,,80,127
48145,note_off,0,0,0,,5,,,77,127
48146,note_on,1,0,0,,8,,,68,127
48260,note_off,114,0,0,,8,,,68,127
48261,note_on,1,0,0,,5,,,65,127
48375,note_off,114,0,0,,5,,,65,127
48376,note_on,1,0,0,,8,,,68,127
48605,note_off,229,0,0,,8,,,68,127
48606,note_on,1,0,0,,0,,,72,127
48720,note_off,114,0,0,,0,,,72,127
48721,note_on,1,0,0,,8,,,68,127
48835,note_off,114,0,0,,8,,,68,127
48835,note_off,0,0,0,,5,,,41,127
48835,note_off,0,0,0,,5,,,53,127
48836,note_on,1,0,0,,5,,,41,127
48836,note_on,0,0,0,,5,,,53,127
48836,note_on,0,0,0,,0,,,72,127
49065,note_off,229,0,0,,0,,,72,127
49066,note_on,1,0,0,,5,,,77,127
49066,note_on,0,0,0,,1,,,73,127
49180,note_off,114,0,0,,1,,,73,127
49181,note_on,1,0,0,,11,,,70,127
49295,note_off,114,0,0,,11,,,70,127
49295,note_off,0,0,0,,5,,,77,127
49296,note_on,1,0,0,,1,,,73,127
49296,note_on,0,0,0,,5,,,77,127
49525,note_off,229,0,0,,5,,,77,127
49525,note_off,0,0,0,,1,,,73,127
49526,note_on,1,0,0,,7,,,79,127
49526,note_on,0,0,0,,4,,,76,127
49640,note_off,114,0,0,,4,,,76,127
49641,note_on,1,0,0,,0,,,72,127
49755,note_off,114,0,0,,0,,,72,127
49755,note_off,0,0,0,,7,,,79,127
49756,note_on,1,0,0,,8,,,80,127
49756,note_on,0,0,0,,5,,,77,127
49985,note_off,229,0,0,,5,,,53,127
49985,note_off,0,0,0,,5,,,41,127
49986,note_on,1,0,0,,5,,,65,127
50100,note_off,114,0,0,,5,,,65,127
50101,note_on,1,0,0,,5,,,53,127
50215,note_off,114,0,0,,5,,,53,127
50216,note_on,1,0,0,,5,,,65,127
50331,note_off,115,0,0,,5,,,77,127
50331,note_off,0,0,0,,8,,,80,127
50445,note_off,114,0,0,,5,,,65,127
50446,note_on,1,0,0,,3,,,63,127
50446,note_on,0,0,0,,6,,,78,127
50560,note_off,114,0,0,,3,,,63,127
50561,note_on,1,0,0,,5,,,53,127
50675,note_off,114,0,0,,5,,,53,127
50676,note_on,1,0,0,,3,,,63,127
50905,note_off,229,0,0,,3,,,63,127
50905,note_off,0,0,0,,6,,,78,127
50906,note_on,1,0,0,,1,,,61,127
50906,note_on,0,0,0,,5,,,77,127
51020,note_off,114,0,0,,1,,,61,127
51021,note_on,1,0,0,,5,,,53,127
51135,note_off,114,0,0,,5,,,53,127
51136,note_on,1,0,0,,1,,,61,127
51365,note_off,229,0,0,,1,,,61,127
51365,note_off,0,0,0,,5,,,77,127
51366,note_on,1,0,0,,7,,,55,127
51366,note_on,0,0,0,,3,,,75,127
51480,note_off,114,0,0,,3,,,75,127
51481,note_on,1,0,0,,1,,,73,127
51595,note_off,114,0,0,,1,,,73,127
51595,note_off,0,0,0,,7,,,55,127
51596,note_on,1,0,0,,8,,,56,127
51596,note_on,0,0,0,,0,,,72,127
51825,note_off,229,0,0,,0,,,72,127
51826,note_on,1,0,0,,8,,,80,127
51940,note_off,114,0,0,,8,,,80,127
51941,note_on,1,0,0,,8,,,68,127
52055,note_off,114,0,0,,8,,,68,127
52056,note_on,1,0,0,,8,,,80,127
52171,note_off,115,0,0,,8,,,56,127
52285,note_off,114,0,0,,8,,,80,127
52286,note_on,1,0,0,,8,,,56,127
52286,note_on,0,0,0,,6,,,78,127
52400,note_off,114,0,0,,6,,,78,127
52401,note_on,1,0,0,,8,,,68,127
52515,note_off,114,0,0,,8,,,68,127
52515,note_off,0,0,0,,8,,,56,127
52516,note_on,1,0,0,,8,,,56,127
52516,note_on,0,0,0,,3,,,63,127
52516,note_on,0,0,0,,6,,,66,127
52516,note_on,0,0,0,,6,,,78,127
52745,note_off,229,0,0,,6,,,78,127
52745,note_off,0,0,0,,6,,,66,127
52745,note_off,0,0,0,,3,,,63,127
52745,note_off,0,0,0,,8,,,56,127
52746,note_on,1,0,0,,8,,,56,127
52746,note_on,0,0,0,,3,,,63,127
52746,note_on,0,0,0,,6,,,66,127
52746,note_on,0,0,0,,5,,,77,127
52860,note_off,114,0,0,,5,,,77,127
52861,note_on,1,0,0,,3,,,75,127
52975,note_off,114,0,0,,3,,,75,127
52975,note_off,0,0,0,,6,,,66,127
52975,note_off,0,0,0,,3,,,63,127
52975,note_off,0,0,0,,8,,,56,127
52976,note_on,1,0,0,,8,,,56,127
52976,note_on,0,0,0,,1,,,61,127
52976,note_on,0,0,0,,5,,,65,127
52976,note_on,0,0,0,,3,,,75,127
53032,note_off,56,0,0,,3,,,75,127
53033,note_on,1,0,0,,1,,,73,127
53089,note_off,56,0,0,,1,,,73,127
53090,note_on,1,0,0,,3,,,75,127
53146,note_off,56,0,0,,3,,,75,127
53147,note_on,1,0,0,,1,,,73,127
53203,note_off,56,0,0,,1,,,73,127
53203,note_off,0,0,0,,5,,,65,127
53203,note_off,0,0,0,,1,,,61,127
53203,note_off,0,0,0,,8,,,56,127
53204,note_on,1,0,0,,1,,,61,127
53204,note_on,0,0,0,,5,,,65,127
53204,note_on,0,0,0,,8,,,56,127
53204,note_on,0,0,0,,3,,,75,127
53260,note_off,56,0,0,,3,,,75,127
53261,note_on,1,0,0,,1,,,73,127
53317,note_off,56,0,0,,1,,,73,127
53318,note_on,1,0,0,,0,,,72,127
53374,note_off,56,0,0,,0,,,72,127
53375,note_on,1,0,0,,1,,,73,127
53431,note_off,56,0,0,,1,,,73,127
53431,note_off,0,0,0,,8,,,56,127
53431,note_off,0,0,0,,5,,,65,127
53431,note_off,0,0,0,,1,,,61,127
53432,note_on,1,0,0,,8,,,56,127
53432,note_on,0,0,0,,3,,,63,127
53432,note_on,0,0,0,,3,,,75,127
53661,note_off,229,0,0,,3,,,75,127
53662,note_on,1,0,0,,8,,,80,127
53776,note_off,114,0,0,,8,,,80,127
53777,note_on,1,0,0,,8,,,68,127
53891,note_off,114,0,0,,8,,,68,127
53892,note_on,1,0,0,,8,,,80,127
54007,note_off,115,0,0,,3,,,63,127
54007,note_off,0,0,0,,8,,,56,127
54121,note_off,114,0,0,,8,,,80,127
54122,note_on,1,0,0,,8,,,56,127
54122,note_on,0,0,0,,6,,,78,127
54236,note_off,114,0,0,,6,,,78,127
54237,note_on,1,0,0,,8,,,68,127
54351,note_off,114,0,0,,8,,,68,127
54351,note_off,0,0,0,,8,,,56,127
54352,note_on,1,0,0,,6,,,66,127
54352,note_on,0,0,0,,3,,,63,127
54352,note_on,0,0,0,,8,,,56,127
54352,note_on,0,0,0,,6,,,78,127
54581,note_off,229,0,0,,6,,,78,127
54581,note_off,0,0,0,,8,,,56,127
54581,note_off,0,0,0,,3,,,63,127
54581,note_off,0,0,0,,6,,,66,127
54582,note_on,1,0,0,,8,,,56,127
54582,note_on,0,0,0,,3,,,63,127
54582,note_on,0,0,0,,6,,,66,127
54582,note_on,0,0,0,,5,,,77,127
54696,note_off,114,0,0,,5,,,77,127
54697,note_on,1,0,0,,3,,,75,127
54811,note_off,114,0,0,,3,,,75,127
54811,note_off,0,0,0,,6,,,66,127
54811,note_off,0,0,0,,3,,,63,127
54811,note_off,0,0,0,,8,,,56,127
54812,note_on,1,0,0,,5,,,65,127
54812,note_on,0,0,0,,8,,,56,127
54812,note_on,0,0,0,,1,,,61,127
54812,note_on,0,0,0,,3,,,75,127
54868,note_off,56,0,0,,3,,,75,127
54869,note_on,1,0,0,,1,,,73,127
54925,note_off,56,0,0,,1,,,73,127
54926,note_on,1,0,0,,3,,,75,127
54982,note_off,56,0,0,,3,,,75,127
54983,note_on,1,0,0,,1,,,73,127
55039,note_off,56,0,0,,1,,,73,127
55039,note_off,0,0,0,,1,,,61,127
55039,note_off,0,0,0,,8,,,56,127
55039,note_off,0,0,0,,5,,,65,127
55040,note_on,1,0,0,,5,,,65,127
55040,note_on,0,0,0,,1,,,61,127
55040,note_on,0,0,0,,8,,,56,127
55040,note_on,0,0,0,,3,,,75,127
55096,note_off,56,0,0,,3,,,75,127
55097,note_on,1,0,0,,1,,,73,127
55153,note_off,56,0,0,,1,,,73,127
55154,note_on,1,0,0,,0,,,72,127
55210,note_off,56,0,0,,0,,,72,127
55211,note_on,1,0,0,,1,,,73,127
55267,note_off,56,0,0,,1,,,73,127
55267,note_off,0,0,0,,8,,,56,127
55267,note_off,0,0,0,,1,,,61,127
55267,note_off,0,0,0,,5,,,65,127
55268,note_on,1,0,0,,8,,,56,127
55268,note_on,0,0,0,,3,,,63,127
55268,note_on,0,0,0,,3,,,75,127
55497,note_off,229,0,0,,3,,,75,127
55498,note_on,1,0,0,,8,,,80,127
55612,note_off,114,0,0,,8,,,80,127
55613,note_on,1,0,0,,7,,,79,127
55727,note_off,114,0,0,,7,,,79,127
55728,note_on,1,0,0,,8,,,80,127
55843,note_off,115,0,0,,3,,,63,127
55843,note_off,0,0,0,,8,,,56,127
55957,note_off,114,0,0,,8,,,80,127
55958,note_on,1,0,0,,8,,,56,127
55958,note_on,0,0,0,,0,,,60,127
55958,note_on,0,0,0,,3,,,63,127
55958,note_on,0,0,0,,12,,,83,127
56072,note_off,114,0,0,,12,,,83,127
56073,note_on,1,0,0,,0,,,84,127
56187,note_off,114,0,0,,0,,,84,127
56187,note_off,0,0,0,,3,,,63,127
56187,note_off,0,0,0,,0,,,60,127
56187,note_off,0,0,0,,8,,,56,127
56188,note_on,1,0,0,,0,,,60,127
56188,note_on,0,0,0,,8,,,56,127
56188,note_on,0,0,0,,3,,,63,127
56188,note_on,0,0,0,,11,,,82,127
56302,note_off,114,0,0,,11,,,82,127
56303,note_on,1,0,0,,8,,,80,127
56417,note_off,114,0,0,,8,,,80,127
56417,note_off,0,0,0,,3,,,63,127
56417,note_off,0,0,0,,8,,,56,127
56417,note_off,0,0,0,,0,,,60,127
56418,note_on,1,0,0,,0,,,60,127
56418,note_on,0,0,0,,8,,,56,127
56418,note_on,0,0,0,,3,,,63,127
56418,note_on,0,0,0,,7,,,79,127
56532,note_off,114,0,0,,7,,,79,127
56533,note_on,1,0,0,,5,,,77,127
56647,note_off,114,0,0,,5,,,77,127
56647,note_off,0,0,0,,3,,,63,127
56647,note_off,0,0,0,,8,,,56,127
56647,note_off,0,0,0,,0,,,60,127
56648,note_on,1,0,0,,5,,,65,127
56648,note_on,0,0,0,,8,,,56,127
56648,note_on,0,0,0,,0,,,60,127
56648,note_on,0,0,0,,5,,,77,127
56762,note_off,114,0,0,,5,,,77,127
56763,note_on,1,0,0,,3,,,75,127
56877,note_off,114,0,0,,3,,,75,127
56877,note_off,0,0,0,,0,,,60,127
56877,note_off,0,0,0,,8,,,56,127
56877,note_off,0,0,0,,5,,,65,127
56878,note_on,1,0,0,,8,,,56,127
56878,note_on,0,0,0,,5,,,65,127
56878,note_on,0,0,0,,0,,,60,127
56878,note_on,0,0,0,,2,,,74,127
56992,note_off,114,0,0,,2,,,74,127
56993,note_on,1,0,0,,0,,,72,127
57107,note_off,114,0,0,,0,,,72,127
57107,note_off,0,0,0,,0,,,60,127
57107,note_off,0,0,0,,5,,,65,127
57107,note_off,0,0,0,,8,,,56,127
57108,note_on,1,0,0,,7,,,55,127
57108,note_on,0,0,0,,0,,,72,127
57337,note_off,229,0,0,,0,,,72,127
57337,note_off,0,0,0,,7,,,55,127
57338,note_on,1,0,0,,7,,,67,127
57338,note_on,0,0,0,,12,,,71,127
57452,note_off,114,0,0,,7,,,67,127
57453,note_on,1,0,0,,7,,,55,127
57567,note_off,114,0,0,,7,,,55,127
57568,note_on,1,0,0,,7,,,67,127
57683,note_off,115,0,0,,12,,,71,127
57797,note_off,114,0,0,,7,,,67,127
57798,note_on,1,0,0,,5,,,65,127
57798,note_on,0,0,0,,2,,,74,127
57798,note_on,0,0,0,,12,,,71,127
57912,note_off,114,0,0,,5,,,65,127
57913,note_on,1,0,0,,7,,,55,127
58027,note_off,114,0,0,,7,,,55,127
58028,note_on,1,0,0,,5,,,65,127
58257,note_off,229,0,0,,5,,,65,127
58257,note_off,0,0,0,,12,,,71,127
58257,note_off,0,0,0,,2,,,74,127
58258,note_on,1,0,0,,3,,,63,127
58258,note_on,0,0,0,,0,,,72,127
58258,note_on,0,0,0,,3,,,75,127
58372,note_off,114,0,0,,3,,,63,127
58373,note_on,1,0,0,,7,,,55,127
58487,note_off,114,0,0,,7,,,55,127
58487,note_off,0,0,0,,3,,,75,127
58487,note_off,0,0,0,,0,,,72,127
58488,note_on,1,0,0,,3,,,63,127
58488,note_on,0,0,0,,5,,,77,127
58488,note_on,0,0,0,,0,,,72,127
58544,note_off,56,0,0,,5,,,77,127
58545,note_on,1,0,0,,3,,,75,127
58601,note_off,56,0,0,,3,,,75,127
58602,note_on,1,0,0,,5,,,77,127
58658,note_off,56,0,0,,5,,,77,127
58659,note_on,1,0,0,,3,,,75,127
58715,note_off,56,0,0,,3,,,75,127
58715,note_off,0,0,0,,3,,,63,127
58716,note_on,1,0,0,,3,,,63,127
58716,note_on,0,0,0,,5,,,77,127
58772,note_off,56,0,0,,3,,,63,127
58773,note_on,1,0,0,,2,,,62,127
58829,note_off,56,0,0,,2,,,62,127
58829,note_off,0,0,0,,5,,,77,127
58830,note_on,1,0,0,,0,,,60,127
58830,note_on,0,0,0,,7,,,79,127
58944,note_off,114,0,0,,7,,,79,127
58944,note_off,0,0,0,,0,,,60,127
58944,note_off,0,0,0,,0,,,72,127
58945,note_on,1,0,0,,7,,,43,127
58945,note_on,0,0,0,,12,,,71,127
58945,note_on,0,0,0,,2,,,74,127
59174,note_off,229,0,0,,7,,,43,127
59175,note_on,1,0,0,,7,,,55,127
59289,note_off,114,0,0,,7,,,55,127
59290,note_on,1,0,0,,7,,,43,127
59404,note_off,114,0,0,,7,,,43,127
59405,note_on,1,0,0,,7,,,55,127
59520,note_off,115,0,0,,2,,,74,127
59520,note_off,0,0,0,,12,,,71,127
59634,note_off,114,0,0,,7,,,55,127
59635,note_on,1,0,0,,5,,,53,127
59635,note_on,0,0,0,,2,,,74,127
59635,note_on,0,0,0,,12,,,71,127
59749,note_off,114,0,0,,5,,,53,127
59750,note_on,1,0,0,,7,,,43,127
59864,note_off,114,0,0,,7,,,43,127
59865,note_on,1,0,0,,5,,,53,127
60094,note_off,229,0,0,,5,,,53,127
60094,note_off,0,0,0,,12,,,71,127
60094,note_off,0,0,0,,2,,,74,127
60095,note_on,1,0,0,,3,,,51,127
60095,note_on,0,0,0,,3,,,75,127
60095,note_on,0,0,0,,0,,,72,127
60209,note_off,114,0,0,,3,,,51,127
60210,note_on,1,0,0,,7,,,43,127
60324,note_off,114,0,0,,7,,,43,127
60324,note_off,0,0,0,,0,,,72,127
60324,note_off,0,0,0,,3,,,75,127
60325,note_on,1,0,0,,3,,,51,127
60325,note_on,0,0,0,,5,,,77,127
60325,note_on,0,0,0,,0,,,72,127
60381,note_off,56,0,0,,5,,,77,127
60382,note_on,1,0,0,,3,,,75,127
60438,note_off,56,0,0,,3,,,75,127
60439,note_on,1,0,0,,5,,,77,127
60495,note_off,56,0,0,,5,,,77,127
60496,note_on,1,0,0,,3,,,75,127
60552,note_off,56,0,0,,3,,,75,127
60552,note_off,0,0,0,,3,,,51,127
60553,note_on,1,0,0,,3,,,51,127
60553,note_on,0,0,0,,5,,,77,127
60609,note_off,56,0,0,,3,,,51,127
60610,note_on,1,0,0,,2,,,50,127
60666,note_off,56,0,0,,2,,,50,127
60666,note_off,0,0,0,,5,,,77,127
60667,note_on,1,0,0,,0,,,48,127
60667,note_on,0,0,0,,7,,,79,127
60781,note_off,114,0,0,,7,,,79,127
60781,note_off,0,0,0,,0,,,48,127
60781,note_off,0,0,0,,0,,,72,127
60782,note_on,1,0,0,,7,,,43,127
60782,note_on,0,0,0,,12,,,71,127
60782,note_on,0,0,0,,2,,,74,127
61011,note_off,229,0,0,,2,,,74,127
61011,note_off,0,0,0,,12,,,71,127
61012,note_on,1,0,0,,2,,,86,127
61126,note_off,114,0,0,,2,,,86,127
61127,note_on,1,0,0,,0,,,84,127
61237,note_off,110,0,0,,7,,,43,127
61241,note_off,4,0,0,,0,,,84,127
61242,note_on,1,0,0,,12,,,83,127
61356,note_off,114,0,0,,12,,,83,127
61357,note_on,1,0,0,,8,,,80,127
61471,note_off,114,0,0,,8,,,80,127
61472,note_on,1,0,0,,12,,,47,127
61472,note_on,0,0,0,,7,,,79,127
61586,note_off,114,0,0,,7,,,79,127
61587,note_on,1,0,0,,5,,,77,127
61701,note_off,114,0,0,,5,,,77,127
61701,note_off,0,0,0,,12,,,47,127
61702,note_on,1,0,0,,0,,,48,127
61702,note_on,0,0,0,,3,,,75,127
61816,note_off,114,0,0,,3,,,75,127
61817,note_on,1,0,0,,2,,,74,127
61931,note_off,114,0,0,,2,,,74,127
61931,note_off,0,0,0,,0,,,48,127
61932,note_on,1,0,0,,3,,,51,127
61932,note_on,0,0,0,,0,,,72,127
62046,note_off,114,0,0,,0,,,72,127
62047,note_on,1,0,0,,11,,,70,127
62161,note_off,114,0,0,,11,,,70,127
62161,note_off,0,0,0,,3,,,51,127
62162,note_on,1,0,0,,5,,,53,127
62162,note_on,0,0,0,,8,,,68,127
62276,note_off,114,0,0,,8,,,68,127
62277,note_on,1,0,0,,7,,,67,127
62391,note_off,114,0,0,,7,,,67,127
62392,note_on,1,0,0,,5,,,41,127
62392,note_on,0,0,0,,5,,,65,127
62506,note_off,114,0,0,,5,,,65,127
62507,note_on,1,0,0,,3,,,63,127
62621,note_off,114,0,0,,3,,,63,127
62621,note_off,0,0,0,,5,,,41,127
62621,note_off,0,0,0,,5,,,53,127
62622,note_on,1,0,0,,7,,,43,127
62622,note_on,0,0,0,,2,,,62,127
62851,note_off,229,0,0,,2,,,62,127
62852,note_on,1,0,0,,2,,,86,127
62966,note_off,114,0,0,,2,,,86,127
62967,note_on,1,0,0,,0,,,84,127
63077,note_off,110,0,0,,7,,,43,127
63081,note_off,4,0,0,,0,,,84,127
63082,note_on,1,0,0,,12,,,83,127
63196,note_off,114,0,0,,12,,,83,127
63197,note_on,1,0,0,,8,,,80,127
63311,note_off,114,0,0,,8,,,80,127
63312,note_on,1,0,0,,12,,,47,127
63312,note_on,0,0,0,,7,,,79,127
63426,note_off,114,0,0,,7,,,79,127
63427,note_on,1,0,0,,5,,,77,127
63541,note_off,114,0,0,,5,,,77,127
63541,note_off,0,0,0,,12,,,47,127
63542,note_on,1,0,0,,0,,,48,127
63542,note_on,0,0,0,,3,,,75,127
63656,note_off,114,0,0,,3,,,75,127
63657,note_on,1,0,0,,2,,,74,127
63771,note_off,114,0,0,,2,,,74,127
63771,note_off,0,0,0,,0,,,48,127
63772,note_on,1,0,0,,3,,,51,127
63772,note_on,0,0,0,,0,,,72,127
63886,note_off,114,0,0,,0,,,72,127
63887,note_on,1,0,0,,11,,,70,127
64001,note_off,114,0,0,,11,,,70,127
64001,note_off,0,0,0,,3,,,51,127
64002,note_on,1,0,0,,5,,,53,127
64002,note_on,0,0,0,,8,,,68,127
64116,note_off,114,0,0,,8,,,68,127
64117,note_on,1,0,0,,7,,,67,127
64231,note_off,114,0,0,,7,,,67,127
64232,note_on,1,0,0,,5,,,41,127
64232,note_on,0,0,0,,5,,,65,127
64346,note_off,114,0,0,,5,,,65,127
64347,note_on,1,0,0,,3,,,63,127
64461,note_off,114,0,0,,3,,,63,127
64461,note_off,0,0,0,,5,,,41,127
64461,note_off,0,0,0,,5,,,53,127
64462,note_on,1,0,0,,11,,,46,127
64462,note_on,0,0,0,,2,,,62,127
64691,note_off,229,0,0,,11,,,46,127
64692,note_on,1,0,0,,11,,,58,127
64806,note_off,114,0,0,,11,,,58,127
64807,note_on,1,0,0,,11,,,46,127
64921,note_off,114,0,0,,11,,,46,127
64922,note_on,1,0,0,,11,,,58,127
65037,note_off,115,0,0,,2,,,62,127
65151,note_off,114,0,0,,11,,,58,127
65152,note_on,1,0,0,,8,,,56,127
65152,note_on,0,0,0,,0,,,72,127
65152,note_on,0,0,0,,5,,,65,127
65266,note_off,114,0,0,,8,,,56,127
65267,note_on,1,0,0,,11,,,46,127
65381,note_off,114,0,0,,11,,,46,127
65381,note_off,0,0,0,,0,,,72,127
65382,note_on,1,0,0,,8,,,56,127
65382,note_on,0,0,0,,2,,,74,127
65611,note_off,229,0,0,,2,,,74,127
65611,note_off,0,0,0,,8,,,56,127
65611,note_off,0,0,0,,5,,,65,127
65612,note_on,1,0,0,,7,,,55,127
65612,note_on,0,0,0,,3,,,75,127
65612,note_on,0,0,0,,7,,,67,127
65726,note_off,114,0,0,,7,,,67,127
65726,note_off,0,0,0,,3,,,75,127
65726,note_off,0,0,0,,7,,,55,127
65727,note_on,1,0,0,,11,,,46,127
65727,note_on,0,0,0,,5,,,65,127
65727,note_on,0,0,0,,2,,,74,127
65841,note_off,114,0,0,,2,,,74,127
65841,note_off,0,0,0,,5,,,65,127
65841,note_off,0,0,0,,11,,,46,127
65842,note_on,1,0,0,,7,,,55,127
65842,note_on,0,0,0,,7,,,67,127
65842,note_on,0,0,0,,3,,,75,127
66071,note_off,229,0,0,,3,,,75,127
66071,note_off,0,0,0,,7,,,55,127
66072,note_on,1,0,0,,7,,,55,127
66072,note_on,0,0,0,,5,,,77,127
66128,note_off,56,0,0,,7,,,55,127
66129,note_on,1,0,0,,5,,,53,127
66185,note_off,56,0,0,,5,,,53,127
66185,note_off,0,0,0,,5,,,77,127
66186,note_on,1,0,0,,3,,,51,127
66186,note_on,0,0,0,,7,,,79,127
66300,note_off,114,0,0,,7,,,79,127
66300,note_off,0,0,0,,3,,,51,127
66300,note_off,0,0,0,,7,,,67,127
66301,note_on,1,0,0,,11,,,46,127
66301,note_on,0,0,0,,11,,,70,127
66301,note_on,0,0,0,,7,,,79,127
66530,note_off,229,0,0,,7,,,79,127
66530,note_off,0,0,0,,11,,,70,127
66530,note_off,0,0,0,,11,,,46,127
66531,note_on,1,0,0,,11,,,70,127
66531,note_on,0,0,0,,5,,,77,127
66646,note_on,115,0,0,,11,,,58,127
66760,note_off,114,0,0,,11,,,58,127
66760,note_off,0,0,0,,11,,,70,127
66761,note_on,1,0,0,,11,,,70,127
66876,note_off,115,0,0,,5,,,77,127
66990,note_off,114,0,0,,11,,,70,127
66991,note_on,1,0,0,,8,,,68,127
66991,note_on,0,0,0,,5,,,77,127
66991,note_on,0,0,0,,2,,,74,127
67105,note_off,114,0,0,,8,,,68,127
67106,note_on,1,0,0,,11,,,58,127
67220,note_off,114,0,0,,11,,,58,127
67221,note_on,1,0,0,,8,,,68,127
67450,note_off,229,0,0,,8,,,68,127
67450,note_off,0,0,0,,2,,,74,127
67450,note_off,0,0,0,,5,,,77,127
67451,note_on,1,0,0,,7,,,67,127
67451,note_on,0,0,0,,7,,,79,127
67451,note_on,0,0,0,,3,,,75,127
67565,note_off,114,0,0,,7,,,67,127
67566,note_on,1,0,0,,11,,,58,127
67680,note_off,114,0,0,,11,,,58,127
67680,note_off,0,0,0,,3,,,75,127
67680,note_off,0,0,0,,7,,,79,127
67681,note_on,1,0,0,,7,,,67,127
67681,note_on,0,0,0,,3,,,75,127
67681,note_on,0,0,0,,10,,,81,127
67737,note_off,56,0,0,,10,,,81,127
67738,note_on,1,0,0,,7,,,79,127
67794,note_off,56,0,0,,7,,,79,127
67795,note_on,1,0,0,,10,,,81,127
67851,note_off,56,0,0,,10,,,81,127
67852,note_on,1,0,0,,7,,,79,127
67908,note_off,56,0,0,,7,,,79,127
67908,note_off,0,0,0,,7,,,67,127
67909,note_on,1,0,0,,7,,,67,127
67909,note_on,0,0,0,,10,,,81,127
67965,note_off,56,0,0,,7,,,67,127
67966,note_on,1,0,0,,5,,,65,127
68022,note_off,56,0,0,,5,,,65,127
68022,note_off,0,0,0,,10,,,81,127
68023,note_on,1,0,0,,3,,,63,127
68023,note_on,0,0,0,,11,,,82,127
68137,note_off,114,0,0,,11,,,82,127
68137,note_off,0,0,0,,3,,,63,127
68137,note_off,0,0,0,,3,,,75,127
68138,note_on,1,0,0,,0,,,60,127
68138,note_on,0,0,0,,10,,,57,127
68138,note_on,0,0,0,,5,,,65,127
68138,note_on,0,0,0,,5,,,77,127
68252,note_off,114,0,0,,5,,,77,127
68253,note_on,1,0,0,,0,,,84,127
68367,note_off,114,0,0,,0,,,84,127
68368,note_on,1,0,0,,10,,,81,127
68482,note_off,114,0,0,,10,,,81,127
68483,note_on,1,0,0,,5,,,77,127
68597,note_off,114,0,0,,5,,,77,127
68597,note_off,0,0,0,,5,,,65,127
68597,note_off,0,0,0,,10,,,57,127
68597,note_off,0,0,0,,0,,,60,127
68598,note_on,1,0,0,,11,,,58,127
68598,note_on,0,0,0,,3,,,75,127
68712,note_off,114,0,0,,3,,,75,127
68713,note_on,1,0,0,,2,,,74,127
68827,note_off,114,0,0,,2,,,74,127
68827,note_off,0,0,0,,11,,,58,127
68828,note_on,1,0,0,,2,,,50,127
68828,note_on,0,0,0,,3,,,75,127
68942,note_off,114,0,0,,3,,,75,127
68943,note_on,1,0,0,,5,,,77,127
69057,note_off,114,0,0,,2,,,50,127
69058,note_on,1,0,0,,3,,,51,127
69172,note_off,114,0,0,,5,,,77,127
69173,note_on,1,0,0,,7,,,79,127
69287,note_off,114,0,0,,7,,,79,127
69287,note_off,0,0,0,,3,,,51,127
69288,note_on,1,0,0,,7,,,55,127
69288,note_on,0,0,0,,5,,,77,127
69402,note_off,114,0,0,,5,,,77,127
69403,note_on,1,0,0,,3,,,75,127
69517,note_off,114,0,0,,3,,,75,127
69517,note_off,0,0,0,,7,,,55,127
69518,note_on,1,0,0,,5,,,53,127
69518,note_on,0,0,0,,2,,,74,127
69632,note_off,114,0,0,,2,,,74,127
69633,note_on,1,0,0,,0,,,72,127
69747,note_off,114,0,0,,0,,,72,127
69748,note_on,1,0,0,,5,,,41,127
69748,note_on,0,0,0,,11,,,70,127
69862,note_off,114,0,0,,11,,,70,127
69863,note_on,1,0,0,,10,,,69,127
69977,note_off,114,0,0,,10,,,69,127
69977,note_off,0,0,0,,5,,,41,127
69977,note_off,0,0,0,,5,,,53,127
69978,note_on,1,0,0,,11,,,46,127
69978,note_on,0,0,0,,10,,,69,127
70207,note_off,229,0,0,,10,,,69,127
70207,note_off,0,0,0,,11,,,46,127
70208,note_on,1,0,0,,11,,,58,127
70208,note_on,0,0,0,,11,,,70,127
70322,note_off,114,0,0,,11,,,58,127
70323,note_on,1,0,0,,11,,,46,127
70437,note_off,114,0,0,,11,,,46,127
70438,note_on,1,0,0,,11,,,58,127
70553,note_off,115,0,0,,11,,,70,127
70667,note_off,114,0,0,,11,,,58,127
70668,note_on,1,0,0,,8,,,56,127
70668,note_on,0,0,0,,2,,,74,127
70668,note_on,0,0,0,,5,,,65,127
70782,note_off,114,0,0,,8,,,56,127
70783,note_on,1,0,0,,11,,,46,127
70897,note_off,114,0,0,,11,,,46,127
70898,note_on,1,0,0,,8,,,56,127
71127,note_off,229,0,0,,8,,,56,127
71127,note_off,0,0,0,,5,,,65,127
71127,note_off,0,0,0,,2,,,74,127
71128,note_on,1,0,0,,7,,,55,127
71128,note_on,0,0,0,,3,,,75,127
71128,note_on,0,0,0,,7,,,67,127
71242,note_off,114,0,0,,7,,,67,127
71242,note_off,0,0,0,,3,,,75,127
71242,note_off,0,0,0,,7,,,55,127
71243,note_on,1,0,0,,11,,,46,127
71243,note_on,0,0,0,,5,,,65,127
71243,note_on,0,0,0,,2,,,74,127
71357,note_off,114,0,0,,2,,,74,127
71357,note_off,0,0,0,,5,,,65,127
71357,note_off,0,0,0,,11,,,46,127
71358,note_on,1,0,0,,7,,,55,127
71358,note_on,0,0,0,,7,,,67,127
71358,note_on,0,0,0,,3,,,75,127
71587,note_off,229,0,0,,3,,,75,127
71587,note_off,0,0,0,,7,,,55,127
71588,note_on,1,0,0,,7,,,55,127
71588,note_on,0,0,0,,5,,,77,127
71644,note_off,56,0,0,,7,,,55,127
71645,note_on,1,0,0,,5,,,53,127
71701,note_off,56,0,0,,5,,,53,127
71701,note_off,0,0,0,,5,,,77,127
71702,note_on,1,0,0,,3,,,51,127
71702,note_on,0,0,0,,7,,,79,127
71816,note_off,114,0,0,,7,,,79,127
71816,note_off,0,0,0,,3,,,51,127
71816,note_off,0,0,0,,7,,,67,127
71817,note_on,1,0,0,,11,,,46,127
71817,note_on,0,0,0,,11,,,70,127
71817,note_on,0,0,0,,7,,,79,127
72046,note_off,229,0,0,,7,,,79,127
72046,note_off,0,0,0,,11,,,70,127
72046,note_off,0,0,0,,11,,,46,127
72047,note_on,1,0,0,,11,,,70,127
72047,note_on,0,0,0,,5,,,77,127
72161,note_off,114,0,0,,11,,,70,127
72162,note_on,1,0,0,,11,,,58,127
72276,note_off,114,0,0,,11,,,58,127
72277,note_on,1,0,0,,11,,,70,127
72392,note_off,115,0,0,,5,,,77,127
72506,note_off,114,0,0,,11,,,70,127
72507,note_on,1,0,0,,8,,,68,127
72507,note_on,0,0,0,,5,,,77,127
72507,note_on,0,0,0,,2,,,74,127
72621,note_off,114,0,0,,8,,,68,127
72622,note_on,1,0,0,,11,,,58,127
72736,note_off,114,0,0,,11,,,58,127
72737,note_on,1,0,0,,8,,,68,127
72966,note_off,229,0,0,,8,,,68,127
72966,note_off,0,0,0,,2,,,74,127
72966,note_off,0,0,0,,5,,,77,127
72967,note_on,1,0,0,,7,,,67,127
72967,note_on,0,0,0,,7,,,79,127
72967,note_on,0,0,0,,3,,,75,127
73081,note_off,114,0,0,,7,,,67,127
73082,note_on,1,0,0,,11,,,58,127
73196,note_off,114,0,0,,11,,,58,127
73196,note_off,0,0,0,,3,,,75,127
73196,note_off,0,0,0,,7,,,79,127
73197,note_on,1,0,0,,7,,,67,127
73197,note_on,0,0,0,,3,,,75,127
73197,note_on,0,0,0,,10,,,81,127
73253,note_off,56,0,0,,10,,,81,127
73254,note_on,1,0,0,,7,,,79,127
73310,note_off,56,0,0,,7,,,79,127
73311,note_on,1,0,0,,10,,,81,127
73367,note_off,56,0,0,,10,,,81,127
73368,note_on,1,0,0,,7,,,79,127
73424,note_off,56,0,0,,7,,,79,127
73424,note_off,0,0,0,,7,,,67,127
73425,note_on,1,0,0,,7,,,67,127
73425,note_on,0,0,0,,10,,,81,127
73481,note_off,56,0,0,,7,,,67,127
73482,note_on,1,0,0,,5,,,65,127
73538,note_off,56,0,0,,5,,,65,127
73538,note_off,0,0,0,,10,,,81,127
73539,note_on,1,0,0,,3,,,63,127
73539,note_on,0,0,0,,11,,,82,127
73653,note_off,114,0,0,,11,,,82,127
73653,note_off,0,0,0,,3,,,63,127
73653,note_off,0,0,0,,3,,,75,127
73654,note_on,1,0,0,,5,,,65,127
73654,note_on,0,0,0,,0,,,60,127
73654,note_on,0,0,0,,10,,,57,127
73654,note_on,0,0,0,,5,,,77,127
73768,note_off,114,0,0,,5,,,77,127
73769,note_on,1,0,0,,0,,,84,127
73883,note_off,114,0,0,,0,,,84,127
73884,note_on,1,0,0,,10,,,81,127
73998,note_off,114,0,0,,10,,,81,127
73999,note_on,1,0,0,,5,,,77,127
74113,note_off,114,0,0,,5,,,77,127
74113,note_off,0,0,0,,10,,,57,127
74113,note_off,0,0,0,,0,,,60,127
74113,note_off,0,0,0,,5,,,65,127
74114,note_on,1,0,0,,11,,,58,127
74114,note_on,0,0,0,,3,,,75,127
74228,note_off,114,0,0,,3,,,75,127
74229,note_on,1,0,0,,2,,,74,127
74343,note_off,114,0,0,,2,,,74,127
74343,note_off,0,0,0,,11,,,58,127
74344,note_on,1,0,0,,2,,,50,127
74344,note_on,0,0,0,,3,,,75,127
74458,note_off,114,0,0,,3,,,75,127
74459,note_on,1,0,0,,5,,,77,127
74573,note_off,114,0,0,,2,,,50,127
74574,note_on,1,0,0,,3,,,51,127
74688,note_off,114,0,0,,5,,,77,127
74689,note_on,1,0,0,,7,,,79,127
74803,note_off,114,0,0,,7,,,79,127
74803,note_off,0,0,0,,3,,,51,127
74804,note_on,1,0,0,,7,,,55,127
74804,note_on,0,0,0,,5,,,77,127
74918,note_off,114,0,0,,5,,,77,127
74919,note_on,1,0,0,,3,,,75,127
75033,note_off,114,0,0,,3,,,75,127
75033,note_off,0,0,0,,7,,,55,127
75034,note_on,1,0,0,,5,,,53,127
75034,note_on,0,0,0,,2,,,74,127
75148,note_off,114,0,0,,2,,,74,127
75149,note_on,1,0,0,,0,,,72,127
75263,note_off,114,0,0,,0,,,72,127
75264,note_on,1,0,0,,5,,,41,127
75264,note_on,0,0,0,,11,,,70,127
75378,note_off,114,0,0,,11,,,70,127
75379,note_on,1,0,0,,10,,,69,127
75493,note_off,114,0,0,,10,,,69,127
75493,note_off,0,0,0,,5,,,41,127
75493,note_off,0,0,0,,5,,,53,127
75494,note_on,1,0,0,,11,,,46,127
75494,note_on,0,0,0,,11,,,70,127
75723,note_off,229,0,0,,11,,,70,127
75723,note_off,0,0,0,,11,,,46,127
75724,note_on,1,0,0,,5,,,65,127
75724,note_on,0,0,0,,11,,,58,127
75724,note_on,0,0,0,,5,,,77,127
75838,note_off,114,0,0,,5,,,77,127
75839,note_on,1,0,0,,2,,,74,127
75953,note_off,114,0,0,,2,,,74,127
75953,note_off,0,0,0,,11,,,58,127
75953,note_off,0,0,0,,5,,,65,127
75954,note_on,1,0,0,,11,,,58,127
75954,note_on,0,0,0,,7,,,67,127
75954,note_on,0,0,0,,2,,,74,127
76183,note_off,229,0,0,,2,,,74,127
76183,note_off,0,0,0,,7,,,67,127
76183,note_off,0,0,0,,11,,,58,127
76184,note_on,1,0,0,,11,,,58,127
76184,note_on,0,0,0,,10,,,69,127
76184,note_on,0,0,0,,3,,,75,127
76184,note_on,0,0,0,,0,,,84,127
76298,note_off,114,0,0,,3,,,75,127
76299,note_on,1,0,0,,0,,,72,127
76413,note_off,114,0,0,,0,,,72,127
76413,note_off,0,0,0,,0,,,84,127
76413,note_off,0,0,0,,10,,,69,127
76413,note_off,0,0,0,,11,,,58,127
76414,note_on,1,0,0,,11,,,70,127
76414,note_on,0,0,0,,11,,,58,127
76414,note_on,0,0,0,,2,,,74,127
76414,note_on,0,0,0,,11,,,82,127
76643,note_off,229,0,0,,2,,,74,127
76643,note_off,0,0,0,,11,,,58,127
76643,note_off,0,0,0,,11,,,70,127
76644,note_on,1,0,0,,11,,,58,127
76644,note_on,0,0,0,,5,,,65,127
76644,note_on,0,0,0,,5,,,77,127
76758,note_off,114,0,0,,5,,,77,127
76759,note_on,1,0,0,,2,,,74,127
76873,note_off,114,0,0,,2,,,74,127
76873,note_off,0,0,0,,5,,,65,127
76873,note_off,0,0,0,,11,,,58,127
76874,note_on,1,0,0,,11,,,58,127
76874,note_on,0,0,0,,7,,,67,127
76874,note_on,0,0,0,,2,,,74,127
77103,note_off,229,0,0,,2,,,74,127
77103,note_off,0,0,0,,7,,,67,127
77103,note_off,0,0,0,,11,,,58,127
77103,note_off,0,0,0,,11,,,82,127
77104,note_on,1,0,0,,11,,,58,127
77104,note_on,0,0,0,,10,,,69,127
77104,note_on,0,0,0,,3,,,75,127
77104,note_on,0,0,0,,0,,,84,127
77218,note_off,114,0,0,,3,,,75,127
77219,note_on,1,0,0,,0,,,72,127
77333,note_off,114,0,0,,0,,,72,127
77333,note_off,0,0,0,,0,,,84,127
77333,note_off,0,0,0,,10,,,69,127
77333,note_off,0,0,0,,11,,,58,127
77334,note_on,1,0,0,,11,,,58,127
77334,note_on,0,0,0,,11,,,70,127
77334,note_on,0,0,0,,2,,,74,127
77334,note_on,0,0,0,,11,,,82,127
77448,note_off,114,0,0,,11,,,82,127
77448,note_off,0,0,0,,2,,,74,127
77449,note_on,1,0,0,,5,,,77,127
77563,note_off,114,0,0,,5,,,77,127
77563,note_off,0,0,0,,11,,,70,127
77563,note_off,0,0,0,,11,,,58,127
77564,note_on,1,0,0,,3,,,51,127
77564,note_on,0,0,0,,7,,,79,127
77678,note_off,114,0,0,,7,,,79,127
77679,note_on,1,0,0,,3,,,75,127
77793,note_off,114,0,0,,3,,,75,127
77793,note_off,0,0,0,,3,,,51,127
77794,note_on,1,0,0,,5,,,53,127
77794,note_on,0,0,0,,2,,,74,127
78024,note_on,230,0,0,,5,,,41,127
78082,note_off,58,0,0,,2,,,74,127
78082,note_on,0,0,0,,0,,,72,127
78138,note_off,56,0,0,,0,,,72,127
78139,note_on,1,0,0,,2,,,74,127
78195,note_off,56,0,0,,2,,,74,127
78196,note_on,1,0,0,,0,,,72,127
78252,note_off,56,0,0,,0,,,72,127
78252,note_off,0,0,0,,5,,,41,127
78252,note_off,0,0,0,,5,,,53,127
78253,note_on,1,0,0,,11,,,46,127
78253,note_on,0,0,0,,11,,,70,127
78482,note_off,229,0,0,,11,,,70,127
78482,note_off,0,0,0,,11,,,46,127
78483,note_on,1,0,0,,11,,,58,127
78483,note_on,0,0,0,,5,,,65,127
78483,note_on,0,0,0,,5,,,77,127
78597,note_off,114,0,0,,5,,,77,127
78598,note_on,1,0,0,,2,,,74,127
78712,note_off,114,0,0,,2,,,74,127
78712,note_off,0,0,0,,5,,,65,127
78712,note_off,0,0,0,,11,,,58,127
78713,note_on,1,0,0,,11,,,58,127
78713,note_on,0,0,0,,7,,,67,127
78713,note_on,0,0,0,,2,,,74,127
78942,note_off,229,0,0,,2,,,74,127
78942,note_off,0,0,0,,7,,,67,127
78942,note_off,0,0,0,,11,,,58,127
78943,note_on,1,0,0,,11,,,58,127
78943,note_on,0,0,0,,10,,,69,127
78943,note_on,0,0,0,,0,,,84,127
78943,note_on,0,0,0,,3,,,75,127
79057,note_off,114,0,0,,3,,,75,127
79058,note_on,1,0,0,,0,,,72,127
79172,note_off,114,0,0,,0,,,72,127
79172,note_off,0,0,0,,0,,,84,127
79172,note_off,0,0,0,,10,,,69,127
79172,note_off,0,0,0,,11,,,58,127
79173,note_on,1,0,0,,11,,,70,127
79173,note_on,0,0,0,,11,,,58,127
79173,note_on,0,0,0,,2,,,74,127
79173,note_on,0,0,0,,11,,,82,127
79402,note_off,229,0,0,,2,,,74,127
79402,note_off,0,0,0,,11,,,58,127
79402,note_off,0,0,0,,11,,,70,127
79403,note_on,1,0,0,,11,,,58,127
79403,note_on,0,0,0,,5,,,65,127
79403,note_on,0,0,0,,5,,,77,127
79517,note_off,114,0,0,,5,,,77,127
79518,note_on,1,0,0,,2,,,74,127
79632,note_off,114,0,0,,2,,,74,127
79632,note_off,0,0,0,,5,,,65,127
79632,note_off,0,0,0,,11,,,58,127
79633,note_on,1,0,0,,11,,,58,127
79633,note_on,0,0,0,,7,,,67,127
79633,note_on,0,0,0,,2,,,74,127
79862,note_off,229,0,0,,2,,,74,127
79862,note_off,0,0,0,,7,,,67,127
79862,note_off,0,0,0,,11,,,58,127
79862,note_off,0,0,0,,11,,,82,127
79863,note_on,1,0,0,,10,,,69,127
79863,note_on,0,0,0,,11,,,58,127
79863,note_on,0,0,0,,3,,,75,127
79863,note_on,0,0,0,,0,,,84,127
79977,note_off,114,0,0,,3,,,75,127
79978,note_on,1,0,0,,0,,,72,127
80092,note_off,114,0,0,,0,,,72,127
80092,note_off,0,0,0,,0,,,84,127
80092,note_off,0,0,0,,11,,,58,127
80092,note_off,0,0,0,,10,,,69,127
80093,note_on,1,0,0,,11,,,70,127
80093,note_on,0,0,0,,11,,,58,127
80093,note_on,0,0,0,,2,,,74,127
80093,note_on,0,0,0,,11,,,82,127
80207,note_off,114,0,0,,2,,,74,127
80208,note_on,1,0,0,,5,,,77,127
80322,note_off,114,0,0,,5,,,77,127
80322,note_off,0,0,0,,11,,,82,127
80322,note_off,0,0,0,,11,,,58,127
80322,note_off,0,0,0,,11,,,70,127
80323,note_on,1,0,0,,3,,,63,127
80323,note_on,0,0,0,,7,,,79,127
80437,note_off,114,0,0,,7,,,79,127
80438,note_on,1,0,0,,11,,,70,127
80552,note_off,114,0,0,,11,,,70,127
80552,note_off,0,0,0,,3,,,63,127
80553,note_on,1,0,0,,5,,,65,127
80553,note_on,0,0,0,,11,,,70,127
80783,note_on,230,0,0,,5,,,53,127
80841,note_off,58,0,0,,11,,,70,127
80841,note_on,0,0,0,,10,,,69,127
80897,note_off,56,0,0,,10,,,69,127
80898,note_on,1,0,0,,11,,,70,127
80954,note_off,56,0,0,,11,,,70,127
80955,note_on,1,0,0,,10,,,69,127
81011,note_off,56,0,0,,10,,,69,127
81011,note_off,0,0,0,,5,,,53,127
81011,note_off,0,0,0,,5,,,65,127
81012,note_on,1,0,0,,11,,,58,127
81012,note_on,0,0,0,,11,,,70,127
81126,note_off,114,0,0,,11,,,70,127
81127,note_on,1,0,0,,5,,,65,127
81241,note_off,114,0,0,,5,,,65,127
81241,note_off,0,0,0,,11,,,58,127
81242,note_on,1,0,0,,3,,,51,127
81242,note_on,0,0,0,,7,,,67,127
81356,note_off,114,0,0,,7,,,67,127
81357,note_on,1,0,0,,11,,,58,127
81471,note_off,114,0,0,,11,,,58,127
81471,note_off,0,0,0,,3,,,51,127
81472,note_on,1,0,0,,5,,,53,127
81472,note_on,0,0,0,,11,,,58,127
81701,note_off,229,0,0,,11,,,58,127
81702,note_on,1,0,0,,5,,,41,127
81702,note_on,0,0,0,,11,,,58,127
81758,note_off,56,0,0,,11,,,58,127
81759,note_on,1,0,0,,10,,,57,127
81815,note_off,56,0,0,,10,,,57,127
81816,note_on,1,0,0,,11,,,58,127
81872,note_off,56,0,0,,11,,,58,127
81873,note_on,1,0,0,,10,,,57,127
81929,note_off,56,0,0,,10,,,57,127
81929,note_off,0,0,0,,5,,,41,127
81929,note_off,0,0,0,,5,,,53,127
81930,note_on,1,0,0,,11,,,46,127
81930,note_on,0,0,0,,10,,,57,127
82506,note_off,576,0,0,,10,,,57,127
82506,note_on,0,0,0,,11,,,58,127
84119,note_off,1613,0,0,,11,,,58,127
84119,note_off,0,0,0,,11,,,46,127
86016,end_of_track,1897,1,0,,,,,,
