tick,type,time,meta,track,program,channel,pitch,tempo,note,velocity
0,copyright,0,1,0,,,,,,
0,program_change,0,0,0,6,0,,,,
0,pitchwheel,0,0,0,,0,0,,,
0,program_change,0,0,0,6,1,,,,
0,pitchwheel,0,0,0,,1,-590,,,
0,program_change,0,0,0,6,2,,,,
0,pitchwheel,0,0,0,,2,-272,,,
0,program_change,0,0,0,6,3,,,,
0,pitchwheel,0,0,0,,3,-353,,,
0,program_change,0,0,0,6,4,,,,
0,pitchwheel,0,0,0,,4,-560,,,
0,program_change,0,0,0,6,5,,,,
0,pitchwheel,0,0,0,,5,-80,,,
0,program_change,0,0,0,6,6,,,,
0,pitchwheel,0,0,0,,6,-625,,,
0,program_change,0,0,0,6,7,,,,
0,pitchwheel,0,0,0,,7,-130,,,
0,program_change,0,0,0,6,8,,,,
0,pitchwheel,0,0,0,,8,-512,,,
0,program_change,0,0,0,6,10,,,,
0,pitchwheel,0,0,0,,10,-464,,,
0,program_change,0,0,0,6,11,,,,
0,pitchwheel,0,0,0,,11,-208,,,
0,program_change,0,0,0,6,12,,,,
0,pitchwheel,0,0,0,,12,-553,,,
0,set_tempo,0,1,0,,,,500000,,
105,note_on,105,0,0,,11,,,58,127
105,note_on,0,0,0,,5,,,77,127
314,note_on,209,0,0,,2,,,62,127
521,note_off,207,0,0,,2,,,62,127
523,note_on,2,0,0,,5,,,65,127
730,note_off,207,0,0,,5,,,65,127
730,note_off,0,0,0,,5,,,77,127
731,note_off,1,0,0,,11,,,58,127
732,note_on,1,0,0,,3,,,51,127
732,note_on,0,0,0,,6,,,78,127
941,note_on,209,0,0,,11,,,58,127
1044,note_off,103,0,0,,6,,,78,127
1046,note_on,2,0,0,,7,,,79,127
1149,note_off,103,0,0,,11,,,58,127
1151,note_on,2,0,0,,3,,,63,127
1275,note_off,124,0,0,,7,,,79,127
1358,note_off,83,0,0,,3,,,63,127
1359,note_off,1,0,0,,3,,,51,127
1360,note_on,1,0,0,,10,,,57,127
1360,note_on,0,0,0,,3,,,75,127
1569,note_on,209,0,0,,0,,,60,127
1776,note_off,207,0,0,,0,,,60,127
1778,note_on,2,0,0,,3,,,63,127
1985,note_off,207,0,0,,3,,,63,127
1985,note_off,0,0,0,,3,,,75,127
1986,note_off,1,0,0,,10,,,57,127
1987,note_on,1,0,0,,2,,,50,127
1987,note_on,0,0,0,,4,,,76,127
2196,note_on,209,0,0,,10,,,57,127
2299,note_off,103,0,0,,4,,,76,127
2301,note_on,2,0,0,,5,,,77,127
2404,note_off,103,0,0,,10,,,57,127
2406,note_on,2,0,0,,2,,,62,127
2530,note_off,124,0,0,,5,,,77,127
2613,note_off,83,0,0,,2,,,62,127
2614,note_off,1,0,0,,2,,,50,127
2615,note_on,1,0,0,,7,,,55,127
2615,note_on,0,0,0,,2,,,74,127
2824,note_on,209,0,0,,11,,,58,127
3031,note_off,207,0,0,,11,,,58,127
3033,note_on,2,0,0,,2,,,62,127
3240,note_off,207,0,0,,2,,,62,127
3240,note_off,0,0,0,,2,,,74,127
3241,note_off,1,0,0,,7,,,55,127
3242,note_on,1,0,0,,3,,,51,127
3242,note_on,0,0,0,,3,,,75,127
3310,note_off,68,0,0,,3,,,75,127
3312,note_on,2,0,0,,5,,,77,127
3380,note_off,68,0,0,,5,,,77,127
3382,note_on,2,0,0,,7,,,79,127
3450,note_off,68,0,0,,7,,,79,127
3452,note_on,2,0,0,,5,,,77,127
3555,note_off,103,0,0,,5,,,77,127
3557,note_on,2,0,0,,3,,,75,127
3660,note_off,103,0,0,,3,,,75,127
3662,note_on,2,0,0,,3,,,63,127
3662,note_on,0,0,0,,2,,,74,127
3765,note_off,103,0,0,,2,,,74,127
3767,note_on,2,0,0,,0,,,72,127
3870,note_off,103,0,0,,0,,,72,127
3870,note_off,0,0,0,,3,,,63,127
3871,note_off,1,0,0,,3,,,51,127
3872,note_on,1,0,0,,5,,,53,127
3872,note_on,0,0,0,,2,,,62,127
3872,note_on,0,0,0,,11,,,70,127
4079,note_off,207,0,0,,11,,,70,127
4081,note_on,2,0,0,,11,,,70,127
4149,note_off,68,0,0,,11,,,70,127
4151,note_on,2,0,0,,10,,,69,127
4219,note_off,68,0,0,,10,,,69,127
4221,note_on,2,0,0,,11,,,70,127
4289,note_off,68,0,0,,11,,,70,127
4289,note_off,0,0,0,,2,,,62,127
4291,note_on,2,0,0,,0,,,60,127
4291,note_on,0,0,0,,10,,,69,127
4359,note_off,68,0,0,,10,,,69,127
4361,note_on,2,0,0,,7,,,67,127
4429,note_off,68,0,0,,7,,,67,127
4431,note_on,2,0,0,,10,,,69,127
4499,note_off,68,0,0,,10,,,69,127
4499,note_off,0,0,0,,0,,,60,127
4500,note_off,1,0,0,,5,,,53,127
4501,note_on,1,0,0,,11,,,46,127
4501,note_on,0,0,0,,11,,,58,127
4501,note_on,0,0,0,,10,,,69,127
4918,note_off,417,0,0,,10,,,69,127
4920,note_on,2,0,0,,11,,,70,127
5079,note_off,159,0,0,,11,,,46,127
5127,note_off,48,0,0,,11,,,70,127
5127,note_off,0,0,0,,11,,,58,127
5129,note_on,2,0,0,,11,,,58,127
5129,note_on,0,0,0,,5,,,77,127
5338,note_on,209,0,0,,2,,,62,127
5545,note_off,207,0,0,,2,,,62,127
5547,note_on,2,0,0,,5,,,65,127
5754,note_off,207,0,0,,5,,,65,127
5754,note_off,0,0,0,,5,,,77,127
5755,note_off,1,0,0,,11,,,58,127
5756,note_on,1,0,0,,3,,,51,127
5756,note_on,0,0,0,,6,,,78,127
5965,note_on,209,0,0,,11,,,58,127
6068,note_off,103,0,0,,6,,,78,127
6070,note_on,2,0,0,,7,,,79,127
6173,note_off,103,0,0,,11,,,58,127
6175,note_on,2,0,0,,3,,,63,127
6332,note_off,157,0,0,,7,,,79,127
6382,note_off,50,0,0,,3,,,63,127
6383,note_off,1,0,0,,3,,,51,127
6384,note_on,1,0,0,,10,,,57,127
6384,note_on,0,0,0,,3,,,75,127
6593,note_on,209,0,0,,0,,,60,127
6800,note_off,207,0,0,,0,,,60,127
6802,note_on,2,0,0,,3,,,63,127
7009,note_off,207,0,0,,3,,,63,127
7009,note_off,0,0,0,,3,,,75,127
7010,note_off,1,0,0,,10,,,57,127
7011,note_on,1,0,0,,2,,,50,127
7011,note_on,0,0,0,,4,,,76,127
7220,note_on,209,0,0,,10,,,57,127
7323,note_off,103,0,0,,4,,,76,127
7325,note_on,2,0,0,,5,,,77,127
7428,note_off,103,0,0,,10,,,57,127
7430,note_on,2,0,0,,2,,,62,127
7587,note_off,157,0,0,,5,,,77,127
7637,note_off,50,0,0,,2,,,62,127
7638,note_off,1,0,0,,2,,,50,127
7639,note_on,1,0,0,,7,,,55,127
7639,note_on,0,0,0,,2,,,74,127
7848,note_on,209,0,0,,11,,,58,127
8055,note_off,207,0,0,,11,,,58,127
8057,note_on,2,0,0,,2,,,62,127
8264,note_off,207,0,0,,2,,,62,127
8264,note_off,0,0,0,,2,,,74,127
8265,note_off,1,0,0,,7,,,55,127
8266,note_on,1,0,0,,3,,,51,127
8266,note_on,0,0,0,,3,,,75,127
8334,note_off,68,0,0,,3,,,75,127
8336,note_on,2,0,0,,5,,,77,127
8404,note_off,68,0,0,,5,,,77,127
8406,note_on,2,0,0,,7,,,79,127
8474,note_off,68,0,0,,7,,,79,127
8476,note_on,2,0,0,,5,,,77,127
8579,note_off,103,0,0,,5,,,77,127
8581,note_on,2,0,0,,3,,,75,127
8684,note_off,103,0,0,,3,,,75,127
8686,note_on,2,0,0,,3,,,63,127
8686,note_on,0,0,0,,2,,,74,127
8789,note_off,103,0,0,,2,,,74,127
8791,note_on,2,0,0,,0,,,72,127
8894,note_off,103,0,0,,0,,,72,127
8894,note_off,0,0,0,,3,,,63,127
8895,note_off,1,0,0,,3,,,51,127
8896,note_on,1,0,0,,2,,,62,127
8896,note_on,0,0,0,,5,,,53,127
8896,note_on,0,0,0,,11,,,70,127
9103,note_off,207,0,0,,11,,,70,127
9105,note_on,2,0,0,,11,,,70,127
9173,note_off,68,0,0,,11,,,70,127
9175,note_on,2,0,0,,10,,,69,127
9243,note_off,68,0,0,,10,,,69,127
9245,note_on,2,0,0,,11,,,70,127
9313,note_off,68,0,0,,11,,,70,127
9313,note_off,0,0,0,,2,,,62,127
9315,note_on,2,0,0,,0,,,60,127
9315,note_on,0,0,0,,10,,,69,127
9383,note_off,68,0,0,,10,,,69,127
9385,note_on,2,0,0,,7,,,67,127
9453,note_off,68,0,0,,7,,,67,127
9455,note_on,2,0,0,,10,,,69,127
9523,note_off,68,0,0,,10,,,69,127
9523,note_off,0,0,0,,0,,,60,127
9524,note_off,1,0,0,,5,,,53,127
9525,note_on,1,0,0,,11,,,46,127
9525,note_on,0,0,0,,11,,,58,127
9525,note_on,0,0,0,,11,,,70,127
10103,note_off,578,0,0,,11,,,46,127
10151,note_off,48,0,0,,11,,,70,127
10151,note_off,0,0,0,,11,,,58,127
10153,note_on,2,0,0,,11,,,58,127
10153,note_on,0,0,0,,5,,,77,127
10362,note_on,209,0,0,,2,,,62,127
10569,note_off,207,0,0,,2,,,62,127
10571,note_on,2,0,0,,5,,,65,127
10778,note_off,207,0,0,,5,,,65,127
10778,note_off,0,0,0,,5,,,77,127
10779,note_off,1,0,0,,11,,,58,127
10780,note_on,1,0,0,,10,,,57,127
10780,note_on,0,0,0,,3,,,75,127
10989,note_on,209,0,0,,0,,,60,127
11196,note_off,207,0,0,,0,,,60,127
11198,note_on,2,0,0,,5,,,65,127
11405,note_off,207,0,0,,5,,,65,127
11405,note_off,0,0,0,,3,,,75,127
11406,note_off,1,0,0,,10,,,57,127
11407,note_on,1,0,0,,11,,,58,127
11407,note_on,0,0,0,,2,,,74,127
11616,note_on,209,0,0,,2,,,62,127
11823,note_off,207,0,0,,2,,,62,127
11825,note_on,2,0,0,,5,,,65,127
12032,note_off,207,0,0,,5,,,65,127
12032,note_off,0,0,0,,2,,,74,127
12033,note_off,1,0,0,,11,,,58,127
12034,note_on,1,0,0,,5,,,53,127
12034,note_on,0,0,0,,2,,,74,127
12102,note_off,68,0,0,,2,,,74,127
12104,note_on,2,0,0,,0,,,72,127
12172,note_off,68,0,0,,0,,,72,127
12174,note_on,2,0,0,,2,,,74,127
12242,note_off,68,0,0,,2,,,74,127
12244,note_on,2,0,0,,0,,,60,127
12244,note_on,0,0,0,,0,,,72,127
12312,note_off,68,0,0,,0,,,72,127
12314,note_on,2,0,0,,2,,,74,127
12382,note_off,68,0,0,,2,,,74,127
12384,note_on,2,0,0,,0,,,72,127
12452,note_off,68,0,0,,0,,,72,127
12452,note_off,0,0,0,,0,,,60,127
12454,note_on,2,0,0,,5,,,65,127
12454,note_on,0,0,0,,2,,,74,127
12522,note_off,68,0,0,,2,,,74,127
12524,note_on,2,0,0,,0,,,72,127
12661,note_off,137,0,0,,0,,,72,127
12661,note_off,0,0,0,,5,,,65,127
12662,note_off,1,0,0,,5,,,53,127
12663,note_on,1,0,0,,11,,,58,127
12663,note_on,0,0,0,,5,,,77,127
12872,note_on,209,0,0,,2,,,62,127
13079,note_off,207,0,0,,2,,,62,127
13081,note_on,2,0,0,,5,,,65,127
13288,note_off,207,0,0,,5,,,65,127
13288,note_off,0,0,0,,5,,,77,127
13289,note_off,1,0,0,,11,,,58,127
13290,note_on,1,0,0,,10,,,57,127
13290,note_on,0,0,0,,3,,,75,127
13499,note_on,209,0,0,,0,,,60,127
13706,note_off,207,0,0,,0,,,60,127
13708,note_on,2,0,0,,5,,,65,127
13915,note_off,207,0,0,,5,,,65,127
13915,note_off,0,0,0,,3,,,75,127
13916,note_off,1,0,0,,10,,,57,127
13917,note_on,1,0,0,,11,,,58,127
13917,note_on,0,0,0,,2,,,74,127
14126,note_on,209,0,0,,2,,,62,127
14333,note_off,207,0,0,,2,,,62,127
14335,note_on,2,0,0,,5,,,65,127
14542,note_off,207,0,0,,5,,,65,127
14542,note_off,0,0,0,,2,,,74,127
14543,note_off,1,0,0,,11,,,58,127
14544,note_on,1,0,0,,5,,,53,127
14544,note_on,0,0,0,,0,,,72,127
14612,note_off,68,0,0,,0,,,72,127
14614,note_on,2,0,0,,2,,,74,127
14682,note_off,68,0,0,,2,,,74,127
14684,note_on,2,0,0,,0,,,72,127
14752,note_off,68,0,0,,0,,,72,127
14754,note_on,2,0,0,,0,,,60,127
14754,note_on,0,0,0,,2,,,74,127
14822,note_off,68,0,0,,2,,,74,127
14824,note_on,2,0,0,,0,,,72,127
14892,note_off,68,0,0,,0,,,72,127
14894,note_on,2,0,0,,2,,,74,127
14962,note_off,68,0,0,,2,,,74,127
14962,note_off,0,0,0,,0,,,60,127
14964,note_on,2,0,0,,5,,,65,127
14964,note_on,0,0,0,,0,,,72,127
15171,note_off,207,0,0,,5,,,65,127
15172,note_off,1,0,0,,5,,,53,127
15173,note_on,1,0,0,,5,,,65,127
15208,note_off,35,0,0,,0,,,72,127
15383,note_on,175,0,0,,8,,,68,127
15383,note_on,0,0,0,,11,,,82,127
15451,note_off,68,0,0,,11,,,82,127
15453,note_on,2,0,0,,8,,,80,127
15521,note_off,68,0,0,,8,,,80,127
15523,note_on,2,0,0,,11,,,82,127
15591,note_off,68,0,0,,11,,,82,127
15591,note_off,0,0,0,,8,,,68,127
15593,note_on,2,0,0,,0,,,72,127
15593,note_on,0,0,0,,8,,,80,127
15661,note_off,68,0,0,,8,,,80,127
15663,note_on,2,0,0,,11,,,82,127
15731,note_off,68,0,0,,11,,,82,127
15733,note_on,2,0,0,,8,,,80,127
15801,note_off,68,0,0,,0,,,72,127
15802,note_off,1,0,0,,5,,,65,127
15803,note_on,1,0,0,,1,,,61,127
16010,note_off,207,0,0,,8,,,80,127
16012,note_on,2,0,0,,5,,,65,127
16012,note_on,0,0,0,,11,,,82,127
16080,note_off,68,0,0,,11,,,82,127
16082,note_on,2,0,0,,8,,,80,127
16150,note_off,68,0,0,,8,,,80,127
16152,note_on,2,0,0,,11,,,82,127
16220,note_off,68,0,0,,11,,,82,127
16220,note_off,0,0,0,,5,,,65,127
16222,note_on,2,0,0,,8,,,68,127
16222,note_on,0,0,0,,8,,,80,127
16290,note_off,68,0,0,,8,,,80,127
16292,note_on,2,0,0,,11,,,82,127
16360,note_off,68,0,0,,11,,,82,127
16362,note_on,2,0,0,,8,,,80,127
16430,note_off,68,0,0,,8,,,68,127
16431,note_off,1,0,0,,1,,,61,127
16432,note_on,1,0,0,,0,,,60,127
16639,note_off,207,0,0,,8,,,80,127
16641,note_on,2,0,0,,5,,,65,127
16641,note_on,0,0,0,,11,,,82,127
16709,note_off,68,0,0,,11,,,82,127
16711,note_on,2,0,0,,8,,,80,127
16779,note_off,68,0,0,,8,,,80,127
16781,note_on,2,0,0,,11,,,82,127
16849,note_off,68,0,0,,11,,,82,127
16849,note_off,0,0,0,,5,,,65,127
16851,note_on,2,0,0,,8,,,68,127
16851,note_on,0,0,0,,8,,,80,127
16919,note_off,68,0,0,,8,,,80,127
16921,note_on,2,0,0,,11,,,82,127
16989,note_off,68,0,0,,11,,,82,127
16991,note_on,2,0,0,,8,,,80,127
17059,note_off,68,0,0,,8,,,68,127
17060,note_off,1,0,0,,0,,,60,127
17061,note_on,1,0,0,,11,,,58,127
17264,note_off,203,0,0,,8,,,80,127
17271,note_on,7,0,0,,4,,,64,127
17271,note_on,0,0,0,,11,,,82,127
17478,note_off,207,0,0,,11,,,82,127
17478,note_off,0,0,0,,4,,,64,127
17480,note_on,2,0,0,,7,,,67,127
17480,note_on,0,0,0,,4,,,76,127
17687,note_off,207,0,0,,7,,,67,127
17688,note_off,1,0,0,,11,,,58,127
17689,note_on,1,0,0,,8,,,56,127
17861,note_off,172,0,0,,4,,,76,127
17898,note_on,37,0,0,,0,,,60,127
17898,note_on,0,0,0,,0,,,84,127
18105,note_off,207,0,0,,0,,,84,127
18105,note_off,0,0,0,,0,,,60,127
18107,note_on,2,0,0,,5,,,65,127
18107,note_on,0,0,0,,5,,,77,127
18314,note_off,207,0,0,,5,,,77,127
18314,note_off,0,0,0,,5,,,65,127
18315,note_off,1,0,0,,8,,,56,127
18316,note_on,1,0,0,,7,,,55,127
18316,note_on,0,0,0,,11,,,58,127
18316,note_on,0,0,0,,7,,,79,127
18316,note_on,0,0,0,,5,,,77,127
18523,note_off,207,0,0,,5,,,77,127
18523,note_off,0,0,0,,7,,,79,127
18525,note_on,2,0,0,,4,,,76,127
18732,note_off,207,0,0,,4,,,76,127
18732,note_off,0,0,0,,11,,,58,127
18732,note_off,0,0,0,,7,,,55,127
18734,note_on,2,0,0,,8,,,56,127
18734,note_on,0,0,0,,0,,,60,127
18734,note_on,0,0,0,,5,,,77,127
18941,note_off,207,0,0,,5,,,77,127
18941,note_off,0,0,0,,0,,,60,127
18941,note_off,0,0,0,,8,,,56,127
18943,note_on,2,0,0,,7,,,55,127
18943,note_on,0,0,0,,11,,,58,127
18943,note_on,0,0,0,,4,,,76,127
19150,note_off,207,0,0,,4,,,76,127
19152,note_on,2,0,0,,7,,,79,127
19220,note_off,68,0,0,,7,,,79,127
19222,note_on,2,0,0,,5,,,77,127
19290,note_off,68,0,0,,5,,,77,127
19292,note_on,2,0,0,,7,,,79,127
19360,note_off,68,0,0,,7,,,79,127
19360,note_off,0,0,0,,11,,,58,127
19360,note_off,0,0,0,,7,,,55,127
19362,note_on,2,0,0,,5,,,53,127
19362,note_on,0,0,0,,8,,,56,127
19362,note_on,0,0,0,,5,,,77,127
19430,note_off,68,0,0,,5,,,77,127
19432,note_on,2,0,0,,4,,,76,127
19500,note_off,68,0,0,,4,,,76,127
19502,note_on,2,0,0,,5,,,77,127
19570,note_off,68,0,0,,5,,,77,127
19570,note_off,0,0,0,,8,,,56,127
19570,note_off,0,0,0,,5,,,53,127
19572,note_on,2,0,0,,0,,,48,127
19572,note_on,0,0,0,,5,,,77,127
19989,note_off,417,0,0,,5,,,77,127
19991,note_on,2,0,0,,7,,,79,127
20198,note_off,207,0,0,,7,,,79,127
20198,note_off,0,0,0,,0,,,48,127
20200,note_on,2,0,0,,8,,,56,127
20409,note_on,209,0,0,,0,,,60,127
20409,note_on,0,0,0,,8,,,80,127
20409,note_on,0,0,0,,11,,,82,127
20512,note_off,103,0,0,,11,,,82,127
20512,note_off,0,0,0,,8,,,80,127
20514,note_on,2,0,0,,7,,,79,127
20617,note_off,103,0,0,,7,,,79,127
20617,note_off,0,0,0,,0,,,60,127
20619,note_on,2,0,0,,5,,,65,127
20619,note_on,0,0,0,,5,,,77,127
20826,note_off,207,0,0,,5,,,65,127
20827,note_off,1,0,0,,8,,,56,127
20828,note_on,1,0,0,,11,,,58,127
21035,note_off,207,0,0,,5,,,77,127
21037,note_on,2,0,0,,4,,,64,127
21037,note_on,0,0,0,,8,,,80,127
21037,note_on,0,0,0,,7,,,79,127
21140,note_off,103,0,0,,7,,,79,127
21140,note_off,0,0,0,,8,,,80,127
21142,note_on,2,0,0,,5,,,77,127
21245,note_off,103,0,0,,5,,,77,127
21245,note_off,0,0,0,,4,,,64,127
21247,note_on,2,0,0,,7,,,67,127
21247,note_on,0,0,0,,4,,,76,127
21454,note_off,207,0,0,,4,,,76,127
21454,note_off,0,0,0,,7,,,67,127
21455,note_off,1,0,0,,11,,,58,127
21456,note_on,1,0,0,,8,,,56,127
21665,note_on,209,0,0,,0,,,60,127
21665,note_on,0,0,0,,11,,,82,127
21665,note_on,0,0,0,,8,,,80,127
21768,note_off,103,0,0,,8,,,80,127
21768,note_off,0,0,0,,11,,,82,127
21770,note_on,2,0,0,,7,,,79,127
21873,note_off,103,0,0,,7,,,79,127
21873,note_off,0,0,0,,0,,,60,127
21875,note_on,2,0,0,,5,,,65,127
21875,note_on,0,0,0,,5,,,77,127
22082,note_off,207,0,0,,5,,,65,127
22083,note_off,1,0,0,,8,,,56,127
22084,note_on,1,0,0,,11,,,58,127
22291,note_off,207,0,0,,5,,,77,127
22293,note_on,2,0,0,,4,,,64,127
22293,note_on,0,0,0,,11,,,82,127
22293,note_on,0,0,0,,0,,,84,127
22396,note_off,103,0,0,,0,,,84,127
22396,note_off,0,0,0,,11,,,82,127
22398,note_on,2,0,0,,8,,,80,127
22501,note_off,103,0,0,,8,,,80,127
22501,note_off,0,0,0,,4,,,64,127
22503,note_on,2,0,0,,7,,,67,127
22503,note_on,0,0,0,,7,,,79,127
22710,note_off,207,0,0,,7,,,67,127
22711,note_off,1,0,0,,11,,,58,127
22712,note_on,1,0,0,,8,,,56,127
22919,note_off,207,0,0,,7,,,79,127
22921,note_on,2,0,0,,0,,,60,127
22921,note_on,0,0,0,,1,,,85,127
22921,note_on,0,0,0,,0,,,84,127
23024,note_off,103,0,0,,0,,,84,127
23024,note_off,0,0,0,,1,,,85,127
23026,note_on,2,0,0,,11,,,82,127
23129,note_off,103,0,0,,11,,,82,127
23129,note_off,0,0,0,,0,,,60,127
23131,note_on,2,0,0,,5,,,65,127
23131,note_on,0,0,0,,8,,,80,127
23338,note_off,207,0,0,,8,,,80,127
23338,note_off,0,0,0,,5,,,65,127
23339,note_off,1,0,0,,8,,,56,127
23340,note_on,1,0,0,,11,,,58,127
23340,note_on,0,0,0,,7,,,79,127
23549,note_on,209,0,0,,11,,,70,127
23549,note_on,0,0,0,,1,,,85,127
23754,note_off,205,0,0,,7,,,79,127
23756,note_off,2,0,0,,1,,,85,127
23756,note_off,0,0,0,,11,,,70,127
23758,note_on,2,0,0,,1,,,61,127
23758,note_on,0,0,0,,7,,,79,127
23965,note_off,207,0,0,,7,,,79,127
23965,note_off,0,0,0,,1,,,61,127
23966,note_off,1,0,0,,11,,,58,127
23967,note_on,1,0,0,,0,,,60,127
23967,note_on,0,0,0,,8,,,68,127
23967,note_on,0,0,0,,5,,,77,127
24174,note_off,207,0,0,,5,,,77,127
24176,note_on,2,0,0,,5,,,77,127
24244,note_off,68,0,0,,5,,,77,127
24246,note_on,2,0,0,,4,,,76,127
24314,note_off,68,0,0,,4,,,76,127
24316,note_on,2,0,0,,5,,,77,127
24384,note_off,68,0,0,,5,,,77,127
24384,note_off,0,0,0,,8,,,68,127
24386,note_on,2,0,0,,7,,,67,127
24386,note_on,0,0,0,,4,,,76,127
24454,note_off,68,0,0,,4,,,76,127
24456,note_on,2,0,0,,2,,,74,127
24524,note_off,68,0,0,,2,,,74,127
24526,note_on,2,0,0,,4,,,76,127
24594,note_off,68,0,0,,4,,,76,127
24594,note_off,0,0,0,,7,,,67,127
24595,note_off,1,0,0,,0,,,60,127
24596,note_on,1,0,0,,5,,,53,127
24596,note_on,0,0,0,,5,,,65,127
24596,note_on,0,0,0,,4,,,76,127
25013,note_off,417,0,0,,4,,,76,127
25015,note_on,2,0,0,,5,,,77,127
25222,note_off,207,0,0,,5,,,77,127
25222,note_off,0,0,0,,5,,,65,127
25222,note_off,0,0,0,,5,,,53,127
25224,note_on,2,0,0,,11,,,58,127
25433,note_on,209,0,0,,4,,,64,127
25433,note_on,0,0,0,,8,,,80,127
25433,note_on,0,0,0,,7,,,79,127
25536,note_off,103,0,0,,7,,,79,127
25536,note_off,0,0,0,,8,,,80,127
25538,note_on,2,0,0,,5,,,77,127
25641,note_off,103,0,0,,5,,,77,127
25641,note_off,0,0,0,,4,,,64,127
25643,note_on,2,0,0,,7,,,67,127
25643,note_on,0,0,0,,4,,,76,127
25850,note_off,207,0,0,,7,,,67,127
25851,note_off,1,0,0,,11,,,58,127
25852,note_on,1,0,0,,8,,,56,127
26059,note_off,207,0,0,,4,,,76,127
26061,note_on,2,0,0,,0,,,60,127
26061,note_on,0,0,0,,8,,,80,127
26061,note_on,0,0,0,,11,,,82,127
26164,note_off,103,0,0,,11,,,82,127
26164,note_off,0,0,0,,8,,,80,127
26166,note_on,2,0,0,,7,,,79,127
26269,note_off,103,0,0,,7,,,79,127
26269,note_off,0,0,0,,0,,,60,127
26271,note_on,2,0,0,,5,,,65,127
26271,note_on,0,0,0,,5,,,77,127
26478,note_off,207,0,0,,5,,,65,127
26479,note_off,1,0,0,,8,,,56,127
26480,note_on,1,0,0,,11,,,58,127
26687,note_off,207,0,0,,5,,,77,127
26689,note_on,2,0,0,,4,,,64,127
26689,note_on,0,0,0,,11,,,82,127
26689,note_on,0,0,0,,0,,,84,127
26792,note_off,103,0,0,,0,,,84,127
26792,note_off,0,0,0,,11,,,82,127
26794,note_on,2,0,0,,8,,,80,127
26897,note_off,103,0,0,,8,,,80,127
26897,note_off,0,0,0,,4,,,64,127
26899,note_on,2,0,0,,7,,,67,127
26899,note_on,0,0,0,,7,,,79,127
27106,note_off,207,0,0,,7,,,67,127
27107,note_off,1,0,0,,11,,,58,127
27108,note_on,1,0,0,,8,,,56,127
27315,note_off,207,0,0,,7,,,79,127
27317,note_on,2,0,0,,0,,,60,127
27317,note_on,0,0,0,,1,,,85,127
27317,note_on,0,0,0,,0,,,84,127
27420,note_off,103,0,0,,0,,,84,127
27420,note_off,0,0,0,,1,,,85,127
27422,note_on,2,0,0,,11,,,82,127
27525,note_off,103,0,0,,11,,,82,127
27525,note_off,0,0,0,,0,,,60,127
27527,note_on,2,0,0,,5,,,65,127
27527,note_on,0,0,0,,8,,,80,127
27734,note_off,207,0,0,,8,,,80,127
27734,note_off,0,0,0,,5,,,65,127
27735,note_off,1,0,0,,8,,,56,127
27736,note_on,1,0,0,,11,,,58,127
27736,note_on,0,0,0,,7,,,79,127
27945,note_on,209,0,0,,11,,,70,127
27945,note_on,0,0,0,,1,,,85,127
28150,note_off,205,0,0,,7,,,79,127
28152,note_off,2,0,0,,1,,,85,127
28152,note_off,0,0,0,,11,,,70,127
28154,note_on,2,0,0,,1,,,61,127
28154,note_on,0,0,0,,7,,,79,127
28361,note_off,207,0,0,,7,,,79,127
28361,note_off,0,0,0,,1,,,61,127
28362,note_off,1,0,0,,11,,,58,127
28363,note_on,1,0,0,,0,,,60,127
28363,note_on,0,0,0,,8,,,68,127
28363,note_on,0,0,0,,5,,,77,127
28570,note_off,207,0,0,,5,,,77,127
28572,note_on,2,0,0,,5,,,77,127
28640,note_off,68,0,0,,5,,,77,127
28642,note_on,2,0,0,,4,,,76,127
28710,note_off,68,0,0,,4,,,76,127
28712,note_on,2,0,0,,5,,,77,127
28780,note_off,68,0,0,,5,,,77,127
28780,note_off,0,0,0,,8,,,68,127
28782,note_on,2,0,0,,7,,,67,127
28782,note_on,0,0,0,,4,,,76,127
28850,note_off,68,0,0,,4,,,76,127
28852,note_on,2,0,0,,2,,,74,127
28920,note_off,68,0,0,,2,,,74,127
28922,note_on,2,0,0,,4,,,76,127
28990,note_off,68,0,0,,4,,,76,127
28990,note_off,0,0,0,,7,,,67,127
28991,note_off,1,0,0,,0,,,60,127
28992,note_on,1,0,0,,5,,,53,127
28992,note_on,0,0,0,,5,,,65,127
28992,note_on,0,0,0,,5,,,77,127
29304,note_off,312,0,0,,5,,,77,127
29306,note_on,2,0,0,,7,,,79,127
29406,note_off,100,0,0,,5,,,65,127
29406,note_off,0,0,0,,5,,,53,127
29408,note_off,2,0,0,,7,,,79,127
29410,note_on,2,0,0,,10,,,81,127
29513,note_off,103,0,0,,10,,,81,127
29515,note_on,2,0,0,,11,,,82,127
29618,note_off,103,0,0,,11,,,82,127
29620,note_on,2,0,0,,5,,,41,127
29620,note_on,0,0,0,,5,,,53,127
29620,note_on,0,0,0,,0,,,84,127
29723,note_off,103,0,0,,0,,,84,127
29725,note_on,2,0,0,,10,,,81,127
29828,note_off,103,0,0,,10,,,81,127
29830,note_on,2,0,0,,5,,,77,127
29933,note_off,103,0,0,,5,,,77,127
29935,note_on,2,0,0,,0,,,72,127
30038,note_off,103,0,0,,0,,,72,127
30040,note_on,2,0,0,,10,,,69,127
30143,note_off,103,0,0,,10,,,69,127
30145,note_on,2,0,0,,5,,,65,127
30248,note_off,103,0,0,,5,,,65,127
30249,note_off,1,0,0,,5,,,53,127
30249,note_off,0,0,0,,5,,,41,127
30250,note_on,1,0,0,,10,,,69,127
30318,note_off,68,0,0,,10,,,69,127
30320,note_on,2,0,0,,7,,,67,127
30388,note_off,68,0,0,,7,,,67,127
30390,note_on,2,0,0,,10,,,69,127
30458,note_off,68,0,0,,10,,,69,127
30460,note_on,2,0,0,,0,,,48,127
30460,note_on,0,0,0,,7,,,67,127
30528,note_off,68,0,0,,7,,,67,127
30530,note_on,2,0,0,,10,,,69,127
30598,note_off,68,0,0,,10,,,69,127
30600,note_on,2,0,0,,7,,,67,127
30668,note_off,68,0,0,,7,,,67,127
30670,note_on,2,0,0,,0,,,36,127
30670,note_on,0,0,0,,10,,,69,127
30720,note_off,50,0,0,,10,,,69,127
30722,note_on,2,0,0,,7,,,67,127
30772,note_off,50,0,0,,7,,,67,127
30774,note_on,2,0,0,,5,,,65,127
30824,note_off,50,0,0,,5,,,65,127
30826,note_on,2,0,0,,7,,,67,127
30874,note_off,48,0,0,,0,,,48,127
30876,note_off,2,0,0,,7,,,67,127
30876,note_off,0,0,0,,0,,,36,127
30878,note_on,2,0,0,,5,,,53,127
30878,note_on,0,0,0,,5,,,41,127
30878,note_on,0,0,0,,0,,,84,127
30981,note_off,103,0,0,,0,,,84,127
30983,note_on,2,0,0,,10,,,81,127
31086,note_off,103,0,0,,10,,,81,127
31088,note_on,2,0,0,,5,,,77,127
31191,note_off,103,0,0,,5,,,77,127
31193,note_on,2,0,0,,0,,,72,127
31296,note_off,103,0,0,,0,,,72,127
31298,note_on,2,0,0,,10,,,69,127
31401,note_off,103,0,0,,10,,,69,127
31403,note_on,2,0,0,,5,,,65,127
31506,note_off,103,0,0,,5,,,65,127
31507,note_off,1,0,0,,5,,,41,127
31507,note_off,0,0,0,,5,,,53,127
31508,note_on,1,0,0,,10,,,69,127
31576,note_off,68,0,0,,10,,,69,127
31578,note_on,2,0,0,,7,,,67,127
31646,note_off,68,0,0,,7,,,67,127
31648,note_on,2,0,0,,10,,,69,127
31716,note_off,68,0,0,,10,,,69,127
31718,note_on,2,0,0,,0,,,48,127
31718,note_on,0,0,0,,7,,,67,127
31786,note_off,68,0,0,,7,,,67,127
31788,note_on,2,0,0,,10,,,69,127
31856,note_off,68,0,0,,10,,,69,127
31858,note_on,2,0,0,,7,,,67,127
31926,note_off,68,0,0,,7,,,67,127
31928,note_on,2,0,0,,0,,,36,127
31928,note_on,0,0,0,,10,,,69,127
31978,note_off,50,0,0,,10,,,69,127
31980,note_on,2,0,0,,7,,,67,127
32030,note_off,50,0,0,,7,,,67,127
32032,note_on,2,0,0,,5,,,65,127
32082,note_off,50,0,0,,5,,,65,127
32084,note_on,2,0,0,,7,,,67,127
32132,note_off,48,0,0,,0,,,48,127
32134,note_off,2,0,0,,7,,,67,127
32134,note_off,0,0,0,,0,,,36,127
32136,note_on,2,0,0,,5,,,41,127
32136,note_on,0,0,0,,5,,,53,127
32136,note_on,0,0,0,,0,,,84,127
32239,note_off,103,0,0,,0,,,84,127
32241,note_on,2,0,0,,10,,,81,127
32344,note_off,103,0,0,,10,,,81,127
32346,note_on,2,0,0,,5,,,77,127
32449,note_off,103,0,0,,5,,,77,127
32451,note_on,2,0,0,,0,,,72,127
32554,note_off,103,0,0,,0,,,72,127
32556,note_on,2,0,0,,10,,,69,127
32659,note_off,103,0,0,,10,,,69,127
32661,note_on,2,0,0,,5,,,65,127
32764,note_off,103,0,0,,5,,,65,127
32765,note_off,1,0,0,,5,,,53,127
32765,note_off,0,0,0,,5,,,41,127
32766,note_on,1,0,0,,0,,,60,127
32869,note_off,103,0,0,,0,,,60,127
32871,note_on,2,0,0,,10,,,57,127
32974,note_off,103,0,0,,10,,,57,127
32976,note_on,2,0,0,,5,,,53,127
33079,note_off,103,0,0,,5,,,53,127
33081,note_on,2,0,0,,0,,,48,127
33184,note_off,103,0,0,,0,,,48,127
33186,note_on,2,0,0,,10,,,45,127
33289,note_off,103,0,0,,10,,,45,127
33291,note_on,2,0,0,,5,,,41,127
33394,note_off,103,0,0,,5,,,41,127
33396,note_on,2,0,0,,0,,,36,127
33605,note_on,209,0,0,,10,,,81,127
33673,note_off,68,0,0,,10,,,81,127
33675,note_on,2,0,0,,7,,,79,127
33743,note_off,68,0,0,,7,,,79,127
33745,note_on,2,0,0,,10,,,81,127
33813,note_off,68,0,0,,10,,,81,127
33815,note_on,2,0,0,,7,,,79,127
33883,note_off,68,0,0,,7,,,79,127
33885,note_on,2,0,0,,5,,,77,127
33920,note_off,35,0,0,,0,,,36,127
33953,note_off,33,0,0,,5,,,77,127
33955,note_on,2,0,0,,4,,,76,127
34023,note_off,68,0,0,,4,,,76,127
34025,note_on,2,0,0,,5,,,41,127
34025,note_on,0,0,0,,5,,,53,127
34025,note_on,0,0,0,,5,,,77,127
34337,note_off,312,0,0,,5,,,77,127
34339,note_on,2,0,0,,7,,,79,127
34442,note_off,103,0,0,,7,,,79,127
34444,note_on,2,0,0,,10,,,81,127
34547,note_off,103,0,0,,10,,,81,127
34549,note_on,2,0,0,,11,,,82,127
34652,note_off,103,0,0,,11,,,82,127
34652,note_off,0,0,0,,5,,,53,127
34652,note_off,0,0,0,,5,,,41,127
34654,note_on,2,0,0,,5,,,41,127
34654,note_on,0,0,0,,5,,,53,127
34654,note_on,0,0,0,,0,,,84,127
34757,note_off,103,0,0,,0,,,84,127
34759,note_on,2,0,0,,10,,,81,127
34862,note_off,103,0,0,,10,,,81,127
34864,note_on,2,0,0,,5,,,77,127
34967,note_off,103,0,0,,5,,,77,127
34969,note_on,2,0,0,,0,,,72,127
35072,note_off,103,0,0,,0,,,72,127
35074,note_on,2,0,0,,10,,,69,127
35177,note_off,103,0,0,,10,,,69,127
35179,note_on,2,0,0,,5,,,65,127
35282,note_off,103,0,0,,5,,,65,127
35283,note_off,1,0,0,,5,,,53,127
35283,note_off,0,0,0,,5,,,41,127
35284,note_on,1,0,0,,7,,,67,127
35439,note_off,155,0,0,,7,,,67,127
35441,note_on,2,0,0,,10,,,69,127
35491,note_off,50,0,0,,10,,,69,127
35493,note_on,2,0,0,,0,,,48,127
35493,note_on,0,0,0,,11,,,70,127
35543,note_off,50,0,0,,11,,,70,127
35545,note_on,2,0,0,,0,,,72,127
35595,note_off,50,0,0,,0,,,72,127
35597,note_on,2,0,0,,2,,,74,127
35647,note_off,50,0,0,,2,,,74,127
35649,note_on,2,0,0,,4,,,76,127
35699,note_off,50,0,0,,4,,,76,127
35701,note_on,2,0,0,,0,,,36,127
35701,note_on,0,0,0,,5,,,77,127
35751,note_off,50,0,0,,5,,,77,127
35753,note_on,2,0,0,,7,,,79,127
35803,note_off,50,0,0,,7,,,79,127
35805,note_on,2,0,0,,10,,,81,127
35855,note_off,50,0,0,,10,,,81,127
35857,note_on,2,0,0,,11,,,82,127
35905,note_off,48,0,0,,0,,,48,127
35907,note_off,2,0,0,,11,,,82,127
35907,note_off,0,0,0,,0,,,36,127
35909,note_on,2,0,0,,5,,,41,127
35909,note_on,0,0,0,,5,,,53,127
35909,note_on,0,0,0,,0,,,84,127
36012,note_off,103,0,0,,0,,,84,127
36014,note_on,2,0,0,,10,,,81,127
36117,note_off,103,0,0,,10,,,81,127
36119,note_on,2,0,0,,5,,,77,127
36222,note_off,103,0,0,,5,,,77,127
36224,note_on,2,0,0,,0,,,72,127
36327,note_off,103,0,0,,0,,,72,127
36329,note_on,2,0,0,,10,,,69,127
36432,note_off,103,0,0,,10,,,69,127
36434,note_on,2,0,0,,5,,,65,127
36537,note_off,103,0,0,,5,,,65,127
36538,note_off,1,0,0,,5,,,53,127
36538,note_off,0,0,0,,5,,,41,127
36539,note_on,1,0,0,,7,,,67,127
36694,note_off,155,0,0,,7,,,67,127
36696,note_on,2,0,0,,10,,,69,127
36746,note_off,50,0,0,,10,,,69,127
36748,note_on,2,0,0,,0,,,48,127
36748,note_on,0,0,0,,11,,,70,127
36798,note_off,50,0,0,,11,,,70,127
36800,note_on,2,0,0,,0,,,72,127
36850,note_off,50,0,0,,0,,,72,127
36852,note_on,2,0,0,,2,,,74,127
36902,note_off,50,0,0,,2,,,74,127
36904,note_on,2,0,0,,4,,,76,127
36954,note_off,50,0,0,,4,,,76,127
36956,note_on,2,0,0,,0,,,36,127
36956,note_on,0,0,0,,5,,,77,127
37006,note_off,50,0,0,,5,,,77,127
37008,note_on,2,0,0,,7,,,79,127
37058,note_off,50,0,0,,7,,,79,127
37060,note_on,2,0,0,,10,,,81,127
37110,note_off,50,0,0,,10,,,81,127
37112,note_on,2,0,0,,11,,,82,127
37160,note_off,48,0,0,,0,,,48,127
37162,note_off,2,0,0,,11,,,82,127
37162,note_off,0,0,0,,0,,,36,127
37164,note_on,2,0,0,,5,,,53,127
37164,note_on,0,0,0,,5,,,41,127
37164,note_on,0,0,0,,0,,,84,127
37267,note_off,103,0,0,,0,,,84,127
37269,note_on,2,0,0,,10,,,81,127
37372,note_off,103,0,0,,10,,,81,127
37374,note_on,2,0,0,,5,,,77,127
37477,note_off,103,0,0,,5,,,77,127
37479,note_on,2,0,0,,0,,,72,127
37582,note_off,103,0,0,,0,,,72,127
37584,note_on,2,0,0,,10,,,69,127
37687,note_off,103,0,0,,10,,,69,127
37689,note_on,2,0,0,,5,,,65,127
37792,note_off,103,0,0,,5,,,65,127
37793,note_off,1,0,0,,5,,,41,127
37793,note_off,0,0,0,,5,,,53,127
37794,note_on,1,0,0,,0,,,60,127
37897,note_off,103,0,0,,0,,,60,127
37899,note_on,2,0,0,,10,,,57,127
38002,note_off,103,0,0,,10,,,57,127
38004,note_on,2,0,0,,5,,,53,127
38107,note_off,103,0,0,,5,,,53,127
38109,note_on,2,0,0,,0,,,48,127
38212,note_off,103,0,0,,0,,,48,127
38214,note_on,2,0,0,,10,,,45,127
38317,note_off,103,0,0,,10,,,45,127
38319,note_on,2,0,0,,5,,,41,127
38422,note_off,103,0,0,,5,,,41,127
38424,note_on,2,0,0,,0,,,36,127
38633,note_on,209,0,0,,10,,,81,127
38701,note_off,68,0,0,,10,,,81,127
38703,note_on,2,0,0,,7,,,79,127
38771,note_off,68,0,0,,7,,,79,127
38773,note_on,2,0,0,,10,,,81,127
38841,note_off,68,0,0,,10,,,81,127
38843,note_on,2,0,0,,7,,,79,127
38911,note_off,68,0,0,,7,,,79,127
38913,note_on,2,0,0,,5,,,77,127
38981,note_off,68,0,0,,5,,,77,127
38983,note_on,2,0,0,,4,,,76,127
39051,note_off,68,0,0,,4,,,76,127
39051,note_off,0,0,0,,0,,,36,127
39053,note_on,2,0,0,,5,,,53,127
39053,note_on,0,0,0,,5,,,77,127
39260,note_off,207,0,0,,5,,,77,127
39260,note_off,0,0,0,,5,,,53,127
39262,note_on,2,0,0,,11,,,58,127
39262,note_on,0,0,0,,7,,,55,127
39262,note_on,0,0,0,,5,,,77,127
39330,note_off,68,0,0,,5,,,77,127
39332,note_on,2,0,0,,3,,,75,127
39400,note_off,68,0,0,,3,,,75,127
39402,note_on,2,0,0,,5,,,77,127
39470,note_off,68,0,0,,5,,,77,127
39470,note_off,0,0,0,,7,,,55,127
39470,note_off,0,0,0,,11,,,58,127
39472,note_on,2,0,0,,0,,,60,127
39472,note_on,0,0,0,,10,,,57,127
39472,note_on,0,0,0,,3,,,75,127
39540,note_off,68,0,0,,3,,,75,127
39542,note_on,2,0,0,,2,,,74,127
39610,note_off,68,0,0,,2,,,74,127
39612,note_on,2,0,0,,0,,,72,127
39680,note_off,68,0,0,,0,,,72,127
39680,note_off,0,0,0,,10,,,57,127
39680,note_off,0,0,0,,0,,,60,127
39682,note_on,2,0,0,,11,,,58,127
39682,note_on,0,0,0,,2,,,62,127
39682,note_on,0,0,0,,2,,,74,127
39889,note_off,207,0,0,,2,,,74,127
39889,note_off,0,0,0,,2,,,62,127
39889,note_off,0,0,0,,11,,,58,127
39891,note_on,2,0,0,,10,,,57,127
39891,note_on,0,0,0,,0,,,60,127
39891,note_on,0,0,0,,2,,,74,127
39959,note_off,68,0,0,,2,,,74,127
39961,note_on,2,0,0,,0,,,72,127
40029,note_off,68,0,0,,0,,,72,127
40031,note_on,2,0,0,,2,,,74,127
40099,note_off,68,0,0,,2,,,74,127
40099,note_off,0,0,0,,0,,,60,127
40099,note_off,0,0,0,,10,,,57,127
40101,note_on,2,0,0,,10,,,57,127
40101,note_on,0,0,0,,0,,,60,127
40101,note_on,0,0,0,,0,,,72,127
40169,note_off,68,0,0,,0,,,72,127
40171,note_on,2,0,0,,11,,,70,127
40239,note_off,68,0,0,,11,,,70,127
40241,note_on,2,0,0,,10,,,69,127
40309,note_off,68,0,0,,10,,,69,127
40309,note_off,0,0,0,,0,,,60,127
40309,note_off,0,0,0,,10,,,57,127
40311,note_on,2,0,0,,11,,,58,127
40311,note_on,0,0,0,,7,,,55,127
40311,note_on,0,0,0,,0,,,72,127
40379,note_off,68,0,0,,0,,,72,127
40381,note_on,2,0,0,,11,,,70,127
40449,note_off,68,0,0,,11,,,70,127
40451,note_on,2,0,0,,0,,,72,127
40519,note_off,68,0,0,,0,,,72,127
40519,note_off,0,0,0,,11,,,58,127
40521,note_on,2,0,0,,0,,,60,127
40521,note_on,0,0,0,,11,,,70,127
40589,note_off,68,0,0,,11,,,70,127
40591,note_on,2,0,0,,10,,,69,127
40659,note_off,68,0,0,,10,,,69,127
40661,note_on,2,0,0,,7,,,67,127
40726,note_off,65,0,0,,7,,,55,127
40728,note_off,2,0,0,,7,,,67,127
40730,note_on,2,0,0,,5,,,53,127
40730,note_on,0,0,0,,10,,,69,127
40935,note_off,205,0,0,,0,,,60,127
40937,note_off,2,0,0,,10,,,69,127
40937,note_off,0,0,0,,5,,,53,127
40939,note_on,2,0,0,,11,,,58,127
40939,note_on,0,0,0,,2,,,74,127
41146,note_off,207,0,0,,2,,,74,127
41146,note_off,0,0,0,,11,,,58,127
41148,note_on,2,0,0,,0,,,60,127
41148,note_on,0,0,0,,10,,,69,127
41216,note_off,68,0,0,,10,,,69,127
41218,note_on,2,0,0,,7,,,67,127
41286,note_off,68,0,0,,7,,,67,127
41288,note_on,2,0,0,,10,,,69,127
41356,note_off,68,0,0,,10,,,69,127
41358,note_on,2,0,0,,0,,,48,127
41358,note_on,0,0,0,,7,,,67,127
41426,note_off,68,0,0,,7,,,67,127
41428,note_on,2,0,0,,5,,,65,127
41496,note_off,68,0,0,,5,,,65,127
41498,note_on,2,0,0,,7,,,67,127
41563,note_off,65,0,0,,0,,,60,127
41565,note_off,2,0,0,,7,,,67,127
41565,note_off,0,0,0,,0,,,48,127
41567,note_on,2,0,0,,5,,,53,127
41567,note_on,0,0,0,,10,,,57,127
41567,note_on,0,0,0,,5,,,77,127
41774,note_off,207,0,0,,5,,,77,127
41774,note_off,0,0,0,,10,,,57,127
41774,note_off,0,0,0,,5,,,53,127
41776,note_on,2,0,0,,11,,,58,127
41776,note_on,0,0,0,,7,,,55,127
41776,note_on,0,0,0,,5,,,77,127
41844,note_off,68,0,0,,5,,,77,127
41846,note_on,2,0,0,,3,,,75,127
41914,note_off,68,0,0,,3,,,75,127
41916,note_on,2,0,0,,5,,,77,127
41984,note_off,68,0,0,,5,,,77,127
41984,note_off,0,0,0,,7,,,55,127
41984,note_off,0,0,0,,11,,,58,127
41986,note_on,2,0,0,,0,,,60,127
41986,note_on,0,0,0,,10,,,57,127
41986,note_on,0,0,0,,3,,,75,127
42054,note_off,68,0,0,,3,,,75,127
42056,note_on,2,0,0,,2,,,74,127
42124,note_off,68,0,0,,2,,,74,127
42126,note_on,2,0,0,,0,,,72,127
42194,note_off,68,0,0,,0,,,72,127
42194,note_off,0,0,0,,10,,,57,127
42194,note_off,0,0,0,,0,,,60,127
42196,note_on,2,0,0,,2,,,62,127
42196,note_on,0,0,0,,11,,,58,127
42196,note_on,0,0,0,,2,,,74,127
42403,note_off,207,0,0,,2,,,74,127
42405,note_on,2,0,0,,2,,,74,127
42473,note_off,68,0,0,,2,,,74,127
42475,note_on,2,0,0,,0,,,72,127
42543,note_off,68,0,0,,0,,,72,127
42545,note_on,2,0,0,,2,,,74,127
42613,note_off,68,0,0,,2,,,74,127
42613,note_off,0,0,0,,11,,,58,127
42613,note_off,0,0,0,,2,,,62,127
42615,note_on,2,0,0,,0,,,60,127
42615,note_on,0,0,0,,10,,,57,127
42615,note_on,0,0,0,,0,,,72,127
42683,note_off,68,0,0,,0,,,72,127
42685,note_on,2,0,0,,11,,,70,127
42753,note_off,68,0,0,,11,,,70,127
42755,note_on,2,0,0,,10,,,69,127
42823,note_off,68,0,0,,10,,,69,127
42823,note_off,0,0,0,,10,,,57,127
42823,note_off,0,0,0,,0,,,60,127
42825,note_on,2,0,0,,7,,,55,127
42825,note_on,0,0,0,,11,,,58,127
42825,note_on,0,0,0,,0,,,72,127
42893,note_off,68,0,0,,0,,,72,127
42895,note_on,2,0,0,,11,,,70,127
42963,note_off,68,0,0,,11,,,70,127
42965,note_on,2,0,0,,0,,,72,127
43033,note_off,68,0,0,,0,,,72,127
43033,note_off,0,0,0,,11,,,58,127
43035,note_on,2,0,0,,0,,,60,127
43035,note_on,0,0,0,,11,,,70,127
43103,note_off,68,0,0,,11,,,70,127
43105,note_on,2,0,0,,10,,,69,127
43173,note_off,68,0,0,,10,,,69,127
43175,note_on,2,0,0,,7,,,67,127
43240,note_off,65,0,0,,7,,,55,127
43242,note_off,2,0,0,,7,,,67,127
43244,note_on,2,0,0,,5,,,53,127
43244,note_on,0,0,0,,10,,,69,127
43449,note_off,205,0,0,,0,,,60,127
43451,note_off,2,0,0,,10,,,69,127
43451,note_off,0,0,0,,5,,,53,127
43453,note_on,2,0,0,,11,,,46,127
43453,note_on,0,0,0,,2,,,74,127
43660,note_off,207,0,0,,2,,,74,127
43660,note_off,0,0,0,,11,,,46,127
43662,note_on,2,0,0,,0,,,48,127
43662,note_on,0,0,0,,10,,,69,127
43730,note_off,68,0,0,,10,,,69,127
43732,note_on,2,0,0,,7,,,67,127
43800,note_off,68,0,0,,7,,,67,127
43802,note_on,2,0,0,,10,,,69,127
43870,note_off,68,0,0,,10,,,69,127
43872,note_on,2,0,0,,0,,,36,127
43872,note_on,0,0,0,,7,,,67,127
43940,note_off,68,0,0,,7,,,67,127
43942,note_on,2,0,0,,5,,,65,127
44010,note_off,68,0,0,,5,,,65,127
44012,note_on,2,0,0,,7,,,67,127
44077,note_off,65,0,0,,0,,,48,127
44079,note_off,2,0,0,,7,,,67,127
44079,note_off,0,0,0,,0,,,36,127
44091,note_on,12,0,0,,5,,,53,127
44091,note_on,0,0,0,,5,,,41,127
44091,note_on,0,0,0,,5,,,65,127
44957,note_off,866,0,0,,5,,,41,127
45003,note_off,46,0,0,,5,,,53,127
45070,note_off,67,0,0,,5,,,65,127
45089,note_on,19,0,0,,5,,,65,127
45089,note_on,0,0,0,,5,,,53,127
45089,note_on,0,0,0,,5,,,41,127
45409,note_off,320,0,0,,5,,,65,127
45411,note_on,2,0,0,,5,,,77,127
45570,note_off,159,0,0,,5,,,77,127
45572,note_on,2,0,0,,5,,,77,127
45892,note_off,320,0,0,,5,,,77,127
45894,note_on,2,0,0,,10,,,81,127
46053,note_off,159,0,0,,10,,,81,127
46053,note_off,0,0,0,,5,,,41,127
46053,note_off,0,0,0,,5,,,53,127
46055,note_on,2,0,0,,5,,,77,127
46055,note_on,0,0,0,,7,,,79,127
46055,note_on,0,0,0,,5,,,53,127
46214,note_off,159,0,0,,7,,,79,127
46214,note_off,0,0,0,,5,,,77,127
46215,note_on,1,0,0,,4,,,76,127
46374,note_off,159,0,0,,4,,,76,127
46376,note_on,2,0,0,,2,,,74,127
46376,note_on,0,0,0,,5,,,65,127
46535,note_off,159,0,0,,5,,,65,127
46535,note_off,0,0,0,,2,,,74,127
46536,note_off,1,0,0,,5,,,53,127
46537,note_on,1,0,0,,0,,,72,127
46537,note_on,0,0,0,,4,,,64,127
46537,note_on,0,0,0,,7,,,55,127
46857,note_off,320,0,0,,7,,,55,127
46857,note_off,0,0,0,,4,,,64,127
46857,note_off,0,0,0,,0,,,72,127
46859,note_on,2,0,0,,12,,,71,127
46859,note_on,0,0,0,,7,,,55,127
46859,note_on,0,0,0,,2,,,62,127
47018,note_off,159,0,0,,2,,,62,127
47018,note_off,0,0,0,,7,,,55,127
47018,note_off,0,0,0,,12,,,71,127
47020,note_on,2,0,0,,0,,,72,127
47020,note_on,0,0,0,,0,,,48,127
47020,note_on,0,0,0,,0,,,60,127
47339,note_off,319,0,0,,0,,,48,127
47340,note_off,1,0,0,,0,,,72,127
47342,note_on,2,0,0,,5,,,77,127
47423,note_off,81,0,0,,0,,,60,127
47502,note_off,79,0,0,,5,,,77,127
47504,note_on,2,0,0,,5,,,77,127
47663,note_off,159,0,0,,5,,,77,127
47665,note_on,2,0,0,,7,,,79,127
47824,note_off,159,0,0,,7,,,79,127
47825,note_on,1,0,0,,10,,,81,127
47984,note_off,159,0,0,,10,,,81,127
47986,note_on,2,0,0,,7,,,79,127
47986,note_on,0,0,0,,5,,,77,127
47986,note_on,0,0,0,,5,,,53,127
48145,note_off,159,0,0,,5,,,77,127
48145,note_off,0,0,0,,7,,,79,127
48147,note_on,2,0,0,,4,,,76,127
48306,note_off,159,0,0,,4,,,76,127
48307,note_on,1,0,0,,2,,,74,127
48307,note_on,0,0,0,,5,,,65,127
48466,note_off,159,0,0,,5,,,65,127
48466,note_off,0,0,0,,2,,,74,127
48467,note_off,1,0,0,,5,,,53,127
48468,note_on,1,0,0,,0,,,72,127
48468,note_on,0,0,0,,4,,,64,127
48468,note_on,0,0,0,,7,,,55,127
48788,note_off,320,0,0,,7,,,55,127
48788,note_off,0,0,0,,4,,,64,127
48788,note_off,0,0,0,,0,,,72,127
48791,note_on,3,0,0,,12,,,71,127
48791,note_on,0,0,0,,7,,,55,127
48791,note_on,0,0,0,,2,,,62,127
48950,note_off,159,0,0,,2,,,62,127
48950,note_off,0,0,0,,7,,,55,127
48950,note_off,0,0,0,,12,,,71,127
48951,note_on,1,0,0,,0,,,72,127
48951,note_on,0,0,0,,0,,,60,127
48951,note_on,0,0,0,,0,,,48,127
49270,note_off,319,0,0,,0,,,48,127
49271,note_off,1,0,0,,0,,,72,127
49274,note_on,3,0,0,,7,,,79,127
49354,note_off,80,0,0,,0,,,60,127
49434,note_off,80,0,0,,7,,,79,127
49435,note_on,1,0,0,,7,,,79,127
49755,note_off,320,0,0,,7,,,79,127
49758,note_on,3,0,0,,11,,,82,127
49917,note_off,159,0,0,,11,,,82,127
49918,note_on,1,0,0,,7,,,79,127
49918,note_on,0,0,0,,10,,,81,127
49918,note_on,0,0,0,,7,,,55,127
50077,note_off,159,0,0,,10,,,81,127
50077,note_off,0,0,0,,7,,,79,127
50079,note_on,2,0,0,,5,,,77,127
50238,note_off,159,0,0,,5,,,77,127
50240,note_on,2,0,0,,4,,,76,127
50240,note_on,0,0,0,,7,,,67,127
50399,note_off,159,0,0,,7,,,67,127
50399,note_off,0,0,0,,4,,,76,127
50399,note_off,0,0,0,,7,,,55,127
50400,note_on,1,0,0,,2,,,74,127
50400,note_on,0,0,0,,10,,,57,127
50400,note_on,0,0,0,,5,,,65,127
50720,note_off,320,0,0,,5,,,65,127
50720,note_off,0,0,0,,2,,,74,127
50723,note_on,3,0,0,,1,,,73,127
50723,note_on,0,0,0,,4,,,64,127
50882,note_off,159,0,0,,4,,,64,127
50882,note_off,0,0,0,,1,,,73,127
50882,note_off,0,0,0,,10,,,57,127
50884,note_on,2,0,0,,2,,,74,127
50884,note_on,0,0,0,,11,,,58,127
50884,note_on,0,0,0,,2,,,62,127
51204,note_off,320,0,0,,2,,,74,127
51206,note_on,2,0,0,,7,,,79,127
51287,note_off,81,0,0,,11,,,58,127
51366,note_off,79,0,0,,7,,,79,127
51367,note_off,1,0,0,,2,,,62,127
51368,note_on,1,0,0,,7,,,79,127
51527,note_off,159,0,0,,7,,,79,127
51528,note_on,1,0,0,,10,,,81,127
51687,note_off,159,0,0,,10,,,81,127
51689,note_on,2,0,0,,11,,,82,127
51848,note_off,159,0,0,,11,,,82,127
51850,note_on,2,0,0,,10,,,81,127
51850,note_on,0,0,0,,7,,,79,127
51850,note_on,0,0,0,,7,,,55,127
52009,note_off,159,0,0,,7,,,79,127
52009,note_off,0,0,0,,10,,,81,127
52010,note_on,1,0,0,,5,,,77,127
52169,note_off,159,0,0,,5,,,77,127
52171,note_on,2,0,0,,4,,,76,127
52171,note_on,0,0,0,,7,,,67,127
52330,note_off,159,0,0,,7,,,67,127
52330,note_off,0,0,0,,4,,,76,127
52331,note_off,1,0,0,,7,,,55,127
52332,note_on,1,0,0,,2,,,74,127
52332,note_on,0,0,0,,10,,,57,127
52332,note_on,0,0,0,,5,,,65,127
52652,note_off,320,0,0,,5,,,65,127
52652,note_off,0,0,0,,2,,,74,127
52654,note_on,2,0,0,,1,,,73,127
52654,note_on,0,0,0,,4,,,64,127
52813,note_off,159,0,0,,4,,,64,127
52813,note_off,0,0,0,,1,,,73,127
52814,note_off,1,0,0,,10,,,57,127
52815,note_on,1,0,0,,2,,,74,127
52815,note_on,0,0,0,,2,,,62,127
52815,note_on,0,0,0,,2,,,50,127
53135,note_off,320,0,0,,2,,,74,127
53137,note_on,2,0,0,,2,,,74,127
53298,note_on,161,0,0,,2,,,86,127
53619,note_off,321,0,0,,2,,,74,127
53620,note_off,1,0,0,,2,,,50,127
53620,note_on,0,0,0,,2,,,74,127
53779,note_off,159,0,0,,2,,,74,127
53779,note_off,0,0,0,,2,,,62,127
53780,note_off,1,0,0,,2,,,86,127
53781,note_on,1,0,0,,5,,,77,127
53781,note_on,0,0,0,,3,,,75,127
53781,note_on,0,0,0,,0,,,60,127
53781,note_on,0,0,0,,7,,,67,127
54101,note_off,320,0,0,,7,,,67,127
54101,note_off,0,0,0,,0,,,60,127
54101,note_off,0,0,0,,3,,,75,127
54101,note_off,0,0,0,,5,,,77,127
54103,note_on,2,0,0,,2,,,74,127
54103,note_on,0,0,0,,7,,,67,127
54103,note_on,0,0,0,,0,,,60,127
54262,note_off,159,0,0,,0,,,60,127
54262,note_off,0,0,0,,7,,,67,127
54262,note_off,0,0,0,,2,,,74,127
54264,note_on,2,0,0,,0,,,72,127
54264,note_on,0,0,0,,3,,,63,127
54264,note_on,0,0,0,,7,,,67,127
54423,note_off,159,0,0,,0,,,72,127
54425,note_on,2,0,0,,11,,,70,127
54583,note_off,158,0,0,,7,,,67,127
54583,note_off,0,0,0,,3,,,63,127
54584,note_off,1,0,0,,11,,,70,127
54585,note_on,1,0,0,,0,,,72,127
54585,note_on,0,0,0,,3,,,63,127
54585,note_on,0,0,0,,7,,,67,127
54744,note_off,159,0,0,,7,,,67,127
54744,note_off,0,0,0,,3,,,63,127
54744,note_off,0,0,0,,0,,,72,127
54746,note_on,2,0,0,,2,,,74,127
54746,note_on,0,0,0,,6,,,66,127
54746,note_on,0,0,0,,2,,,62,127
55066,note_off,320,0,0,,2,,,62,127
55066,note_off,0,0,0,,6,,,66,127
55066,note_off,0,0,0,,2,,,74,127
55069,note_on,3,0,0,,2,,,74,127
55069,note_on,0,0,0,,6,,,66,127
55069,note_on,0,0,0,,2,,,62,127
55228,note_off,159,0,0,,2,,,62,127
55228,note_off,0,0,0,,6,,,66,127
55229,note_on,1,0,0,,2,,,86,127
55229,note_on,0,0,0,,2,,,62,127
55229,note_on,0,0,0,,6,,,66,127
55549,note_off,320,0,0,,6,,,66,127
55549,note_off,0,0,0,,2,,,62,127
55551,note_off,2,0,0,,2,,,74,127
55552,note_on,1,0,0,,2,,,74,127
55552,note_on,0,0,0,,2,,,62,127
55552,note_on,0,0,0,,6,,,66,127
55711,note_off,159,0,0,,6,,,66,127
55711,note_off,0,0,0,,2,,,62,127
55711,note_off,0,0,0,,2,,,74,127
55711,note_off,0,0,0,,2,,,86,127
55712,note_on,1,0,0,,3,,,75,127
55712,note_on,0,0,0,,5,,,77,127
55712,note_on,0,0,0,,0,,,60,127
55712,note_on,0,0,0,,7,,,67,127
56032,note_off,320,0,0,,7,,,67,127
56032,note_off,0,0,0,,0,,,60,127
56032,note_off,0,0,0,,5,,,77,127
56032,note_off,0,0,0,,3,,,75,127
56035,note_on,3,0,0,,2,,,74,127
56035,note_on,0,0,0,,0,,,60,127
56035,note_on,0,0,0,,7,,,67,127
56194,note_off,159,0,0,,7,,,67,127
56194,note_off,0,0,0,,0,,,60,127
56194,note_off,0,0,0,,2,,,74,127
56195,note_on,1,0,0,,0,,,72,127
56195,note_on,0,0,0,,3,,,63,127
56195,note_on,0,0,0,,7,,,67,127
56354,note_off,159,0,0,,0,,,72,127
56356,note_on,2,0,0,,11,,,70,127
56514,note_off,158,0,0,,7,,,67,127
56514,note_off,0,0,0,,3,,,63,127
56515,note_off,1,0,0,,11,,,70,127
56517,note_on,2,0,0,,0,,,72,127
56517,note_on,0,0,0,,3,,,63,127
56517,note_on,0,0,0,,7,,,67,127
56676,note_off,159,0,0,,7,,,67,127
56676,note_off,0,0,0,,3,,,63,127
56676,note_off,0,0,0,,0,,,72,127
56677,note_on,1,0,0,,2,,,74,127
56677,note_on,0,0,0,,6,,,66,127
56677,note_on,0,0,0,,2,,,62,127
56997,note_off,320,0,0,,2,,,62,127
56997,note_off,0,0,0,,6,,,66,127
56997,note_off,0,0,0,,2,,,74,127
57000,note_on,3,0,0,,2,,,74,127
57000,note_on,0,0,0,,2,,,62,127
57000,note_on,0,0,0,,6,,,66,127
57159,note_off,159,0,0,,6,,,66,127
57159,note_off,0,0,0,,2,,,62,127
57159,note_off,0,0,0,,2,,,74,127
57161,note_on,2,0,0,,7,,,79,127
57161,note_on,0,0,0,,0,,,60,127
57161,note_on,0,0,0,,3,,,63,127
57320,note_off,159,0,0,,7,,,79,127
57321,note_on,1,0,0,,5,,,77,127
57480,note_off,159,0,0,,5,,,77,127
57480,note_off,0,0,0,,3,,,63,127
57480,note_off,0,0,0,,0,,,60,127
57482,note_on,2,0,0,,3,,,75,127
57482,note_on,0,0,0,,0,,,60,127
57482,note_on,0,0,0,,3,,,63,127
57641,note_off,159,0,0,,3,,,63,127
57641,note_off,0,0,0,,0,,,60,127
57641,note_off,0,0,0,,3,,,75,127
57643,note_on,2,0,0,,2,,,74,127
57643,note_on,0,0,0,,2,,,62,127
57643,note_on,0,0,0,,6,,,66,127
57963,note_off,320,0,0,,6,,,66,127
57963,note_off,0,0,0,,2,,,62,127
57963,note_off,0,0,0,,2,,,74,127
57965,note_on,2,0,0,,2,,,74,127
57965,note_on,0,0,0,,2,,,62,127
57965,note_on,0,0,0,,6,,,66,127
58124,note_off,159,0,0,,6,,,66,127
58124,note_off,0,0,0,,2,,,62,127
58124,note_off,0,0,0,,2,,,74,127
58126,note_on,2,0,0,,7,,,79,127
58126,note_on,0,0,0,,0,,,60,127
58126,note_on,0,0,0,,3,,,63,127
58285,note_off,159,0,0,,7,,,79,127
58286,note_on,1,0,0,,5,,,77,127
58445,note_off,159,0,0,,5,,,77,127
58445,note_off,0,0,0,,3,,,63,127
58445,note_off,0,0,0,,0,,,60,127
58447,note_on,2,0,0,,3,,,75,127
58447,note_on,0,0,0,,0,,,60,127
58447,note_on,0,0,0,,3,,,63,127
58606,note_off,159,0,0,,3,,,63,127
58606,note_off,0,0,0,,0,,,60,127
58606,note_off,0,0,0,,3,,,75,127
58608,note_on,2,0,0,,2,,,74,127
58608,note_on,0,0,0,,6,,,66,127
58608,note_on,0,0,0,,2,,,62,127
58928,note_off,320,0,0,,2,,,62,127
58928,note_off,0,0,0,,6,,,66,127
58928,note_off,0,0,0,,2,,,74,127
58930,note_on,2,0,0,,2,,,74,127
58930,note_on,0,0,0,,6,,,66,127
58930,note_on,0,0,0,,2,,,62,127
59089,note_off,159,0,0,,2,,,62,127
59089,note_off,0,0,0,,6,,,66,127
59089,note_off,0,0,0,,2,,,74,127
59091,note_on,2,0,0,,7,,,79,127
59091,note_on,0,0,0,,3,,,63,127
59091,note_on,0,0,0,,7,,,67,127
59091,note_on,0,0,0,,0,,,60,127
59250,note_off,159,0,0,,7,,,79,127
59252,note_on,2,0,0,,5,,,77,127
59410,note_off,158,0,0,,0,,,60,127
59410,note_off,0,0,0,,7,,,67,127
59410,note_off,0,0,0,,3,,,63,127
59411,note_off,1,0,0,,5,,,77,127
59412,note_on,1,0,0,,3,,,75,127
59412,note_on,0,0,0,,7,,,67,127
59412,note_on,0,0,0,,0,,,60,127
59412,note_on,0,0,0,,3,,,63,127
59571,note_off,159,0,0,,3,,,63,127
59571,note_off,0,0,0,,0,,,60,127
59571,note_off,0,0,0,,7,,,67,127
59571,note_off,0,0,0,,3,,,75,127
59573,note_on,2,0,0,,2,,,74,127
59573,note_on,0,0,0,,6,,,66,127
59573,note_on,0,0,0,,2,,,62,127
59893,note_off,320,0,0,,2,,,62,127
59893,note_off,0,0,0,,6,,,66,127
59893,note_off,0,0,0,,2,,,74,127
59895,note_on,2,0,0,,2,,,74,127
59895,note_on,0,0,0,,2,,,62,127
59895,note_on,0,0,0,,6,,,66,127
60054,note_off,159,0,0,,6,,,66,127
60054,note_off,0,0,0,,2,,,62,127
60054,note_off,0,0,0,,2,,,74,127
60056,note_on,2,0,0,,7,,,79,127
60056,note_on,0,0,0,,3,,,63,127
60056,note_on,0,0,0,,7,,,67,127
60056,note_on,0,0,0,,0,,,60,127
60215,note_off,159,0,0,,7,,,79,127
60217,note_on,2,0,0,,5,,,77,127
60375,note_off,158,0,0,,0,,,60,127
60375,note_off,0,0,0,,7,,,67,127
60375,note_off,0,0,0,,3,,,63,127
60376,note_off,1,0,0,,5,,,77,127
60377,note_on,1,0,0,,3,,,75,127
60377,note_on,0,0,0,,3,,,63,127
60377,note_on,0,0,0,,7,,,67,127
60377,note_on,0,0,0,,0,,,60,127
60536,note_off,159,0,0,,0,,,60,127
60536,note_off,0,0,0,,7,,,67,127
60536,note_off,0,0,0,,3,,,63,127
60536,note_off,0,0,0,,3,,,75,127
60538,note_on,2,0,0,,2,,,74,127
60538,note_on,0,0,0,,7,,,67,127
60538,note_on,0,0,0,,12,,,59,127
60538,note_on,0,0,0,,2,,,62,127
60538,note_on,0,0,0,,5,,,65,127
60858,note_off,320,0,0,,5,,,65,127
60858,note_off,0,0,0,,2,,,62,127
60858,note_off,0,0,0,,12,,,59,127
60858,note_off,0,0,0,,7,,,67,127
60858,note_off,0,0,0,,2,,,74,127
60860,note_on,2,0,0,,2,,,74,127
60860,note_on,0,0,0,,5,,,65,127
60860,note_on,0,0,0,,7,,,67,127
60860,note_on,0,0,0,,2,,,62,127
60860,note_on,0,0,0,,12,,,59,127
61019,note_off,159,0,0,,12,,,59,127
61019,note_off,0,0,0,,2,,,62,127
61019,note_off,0,0,0,,7,,,67,127
61019,note_off,0,0,0,,5,,,65,127
61019,note_off,0,0,0,,2,,,74,127
61021,note_on,2,0,0,,7,,,79,127
61021,note_on,0,0,0,,0,,,60,127
61021,note_on,0,0,0,,3,,,63,127
61021,note_on,0,0,0,,7,,,67,127
61180,note_off,159,0,0,,7,,,79,127
61182,note_on,2,0,0,,5,,,77,127
61340,note_off,158,0,0,,7,,,67,127
61340,note_off,0,0,0,,3,,,63,127
61340,note_off,0,0,0,,0,,,60,127
61341,note_off,1,0,0,,5,,,77,127
61343,note_on,2,0,0,,3,,,75,127
61343,note_on,0,0,0,,0,,,60,127
61343,note_on,0,0,0,,3,,,63,127
61343,note_on,0,0,0,,7,,,67,127
61502,note_off,159,0,0,,7,,,67,127
61502,note_off,0,0,0,,3,,,63,127
61502,note_off,0,0,0,,0,,,60,127
61502,note_off,0,0,0,,3,,,75,127
61503,note_on,1,0,0,,2,,,74,127
61503,note_on,0,0,0,,7,,,67,127
61503,note_on,0,0,0,,2,,,62,127
61503,note_on,0,0,0,,5,,,65,127
61503,note_on,0,0,0,,12,,,59,127
61823,note_off,320,0,0,,12,,,59,127
61823,note_off,0,0,0,,5,,,65,127
61823,note_off,0,0,0,,2,,,62,127
61823,note_off,0,0,0,,7,,,67,127
61823,note_off,0,0,0,,2,,,74,127
61826,note_on,3,0,0,,2,,,74,127
61826,note_on,0,0,0,,7,,,67,127
61826,note_on,0,0,0,,2,,,62,127
61826,note_on,0,0,0,,5,,,65,127
61826,note_on,0,0,0,,11,,,58,127
61985,note_off,159,0,0,,11,,,58,127
61985,note_off,0,0,0,,5,,,65,127
61985,note_off,0,0,0,,2,,,62,127
61985,note_off,0,0,0,,7,,,67,127
61985,note_off,0,0,0,,2,,,74,127
61986,note_on,1,0,0,,7,,,79,127
61986,note_on,0,0,0,,10,,,57,127
61986,note_on,0,0,0,,1,,,61,127
61986,note_on,0,0,0,,7,,,67,127
62145,note_off,159,0,0,,7,,,79,127
62147,note_on,2,0,0,,5,,,77,127
62305,note_off,158,0,0,,7,,,67,127
62305,note_off,0,0,0,,1,,,61,127
62305,note_off,0,0,0,,10,,,57,127
62306,note_off,1,0,0,,5,,,77,127
62308,note_on,2,0,0,,4,,,76,127
62308,note_on,0,0,0,,7,,,67,127
62308,note_on,0,0,0,,10,,,57,127
62308,note_on,0,0,0,,1,,,61,127
62467,note_off,159,0,0,,1,,,61,127
62467,note_off,0,0,0,,10,,,57,127
62467,note_off,0,0,0,,7,,,67,127
62467,note_off,0,0,0,,4,,,76,127
62468,note_on,1,0,0,,2,,,74,127
62468,note_on,0,0,0,,7,,,67,127
62468,note_on,0,0,0,,11,,,58,127
62468,note_on,0,0,0,,2,,,62,127
62788,note_off,320,0,0,,2,,,62,127
62788,note_off,0,0,0,,11,,,58,127
62788,note_off,0,0,0,,7,,,67,127
62788,note_off,0,0,0,,2,,,74,127
62791,note_on,3,0,0,,2,,,74,127
62791,note_on,0,0,0,,2,,,62,127
62791,note_on,0,0,0,,7,,,67,127
62791,note_on,0,0,0,,11,,,58,127
62950,note_off,159,0,0,,11,,,58,127
62950,note_off,0,0,0,,7,,,67,127
62950,note_off,0,0,0,,2,,,62,127
62950,note_off,0,0,0,,2,,,74,127
62951,note_on,1,0,0,,7,,,79,127
62951,note_on,0,0,0,,7,,,67,127
62951,note_on,0,0,0,,10,,,57,127
62951,note_on,0,0,0,,1,,,61,127
63110,note_off,159,0,0,,7,,,79,127
63112,note_on,2,0,0,,5,,,77,127
63270,note_off,158,0,0,,1,,,61,127
63270,note_off,0,0,0,,10,,,57,127
63270,note_off,0,0,0,,7,,,67,127
63271,note_off,1,0,0,,5,,,77,127
63273,note_on,2,0,0,,4,,,76,127
63273,note_on,0,0,0,,7,,,67,127
63273,note_on,0,0,0,,10,,,57,127
63273,note_on,0,0,0,,1,,,61,127
63432,note_off,159,0,0,,1,,,61,127
63432,note_off,0,0,0,,10,,,57,127
63432,note_off,0,0,0,,7,,,67,127
63432,note_off,0,0,0,,4,,,76,127
63434,note_on,2,0,0,,2,,,74,127
63434,note_on,0,0,0,,7,,,67,127
63434,note_on,0,0,0,,11,,,58,127
63434,note_on,0,0,0,,2,,,62,127
63754,note_off,320,0,0,,2,,,62,127
63754,note_off,0,0,0,,11,,,58,127
63754,note_off,0,0,0,,7,,,67,127
63754,note_off,0,0,0,,2,,,74,127
63756,note_on,2,0,0,,2,,,74,127
63756,note_on,0,0,0,,7,,,67,127
63756,note_on,0,0,0,,2,,,62,127
63756,note_on,0,0,0,,11,,,58,127
63915,note_off,159,0,0,,11,,,58,127
63915,note_off,0,0,0,,2,,,62,127
63915,note_off,0,0,0,,7,,,67,127
63915,note_off,0,0,0,,2,,,74,127
63917,note_on,2,0,0,,7,,,79,127
63917,note_on,0,0,0,,3,,,63,127
63917,note_on,0,0,0,,7,,,67,127
63917,note_on,0,0,0,,11,,,58,127
64076,note_off,159,0,0,,7,,,79,127
64077,note_on,1,0,0,,5,,,77,127
64236,note_off,159,0,0,,5,,,77,127
64236,note_off,0,0,0,,11,,,58,127
64236,note_off,0,0,0,,7,,,67,127
64236,note_off,0,0,0,,3,,,63,127
64238,note_on,2,0,0,,3,,,75,127
64238,note_on,0,0,0,,7,,,67,127
64238,note_on,0,0,0,,3,,,63,127
64238,note_on,0,0,0,,11,,,58,127
64397,note_off,159,0,0,,11,,,58,127
64397,note_off,0,0,0,,3,,,63,127
64397,note_off,0,0,0,,7,,,67,127
64397,note_off,0,0,0,,3,,,75,127
64399,note_on,2,0,0,,2,,,74,127
64399,note_on,0,0,0,,2,,,62,127
64399,note_on,0,0,0,,5,,,65,127
64399,note_on,0,0,0,,11,,,58,127
64719,note_off,320,0,0,,11,,,58,127
64719,note_off,0,0,0,,5,,,65,127
64719,note_off,0,0,0,,2,,,62,127
64719,note_off,0,0,0,,2,,,74,127
64721,note_on,2,0,0,,2,,,74,127
64721,note_on,0,0,0,,11,,,58,127
64721,note_on,0,0,0,,5,,,65,127
64721,note_on,0,0,0,,2,,,62,127
64880,note_off,159,0,0,,2,,,62,127
64880,note_off,0,0,0,,5,,,65,127
64880,note_off,0,0,0,,11,,,58,127
64880,note_off,0,0,0,,2,,,74,127
64882,note_on,2,0,0,,7,,,79,127
64882,note_on,0,0,0,,7,,,67,127
64882,note_on,0,0,0,,11,,,58,127
64882,note_on,0,0,0,,3,,,63,127
65041,note_off,159,0,0,,7,,,79,127
65042,note_on,1,0,0,,5,,,77,127
65201,note_off,159,0,0,,5,,,77,127
65201,note_off,0,0,0,,3,,,63,127
65201,note_off,0,0,0,,11,,,58,127
65201,note_off,0,0,0,,7,,,67,127
65203,note_on,2,0,0,,3,,,75,127
65203,note_on,0,0,0,,7,,,67,127
65203,note_on,0,0,0,,11,,,58,127
65203,note_on,0,0,0,,3,,,63,127
65362,note_off,159,0,0,,3,,,63,127
65362,note_off,0,0,0,,11,,,58,127
65362,note_off,0,0,0,,7,,,67,127
65362,note_off,0,0,0,,3,,,75,127
65364,note_on,2,0,0,,2,,,74,127
65364,note_on,0,0,0,,5,,,65,127
65364,note_on,0,0,0,,11,,,58,127
65364,note_on,0,0,0,,2,,,62,127
65684,note_off,320,0,0,,2,,,62,127
65684,note_off,0,0,0,,11,,,58,127
65684,note_off,0,0,0,,5,,,65,127
65684,note_off,0,0,0,,2,,,74,127
65686,note_on,2,0,0,,2,,,74,127
65686,note_on,0,0,0,,11,,,58,127
65686,note_on,0,0,0,,5,,,65,127
65686,note_on,0,0,0,,2,,,62,127
65845,note_off,159,0,0,,2,,,62,127
65845,note_off,0,0,0,,5,,,65,127
65845,note_off,0,0,0,,11,,,58,127
65845,note_off,0,0,0,,2,,,74,127
65847,note_on,2,0,0,,5,,,77,127
65847,note_on,0,0,0,,7,,,79,127
65847,note_on,0,0,0,,5,,,65,127
65847,note_on,0,0,0,,2,,,62,127
65847,note_on,0,0,0,,11,,,58,127
66006,note_off,159,0,0,,7,,,79,127
66006,note_off,0,0,0,,5,,,77,127
66008,note_on,2,0,0,,3,,,75,127
66166,note_off,158,0,0,,11,,,58,127
66166,note_off,0,0,0,,2,,,62,127
66166,note_off,0,0,0,,5,,,65,127
66167,note_off,1,0,0,,3,,,75,127
66168,note_on,1,0,0,,2,,,74,127
66168,note_on,0,0,0,,2,,,62,127
66168,note_on,0,0,0,,5,,,65,127
66168,note_on,0,0,0,,11,,,58,127
66327,note_off,159,0,0,,11,,,58,127
66327,note_off,0,0,0,,5,,,65,127
66327,note_off,0,0,0,,2,,,62,127
66327,note_off,0,0,0,,2,,,74,127
66329,note_on,2,0,0,,0,,,72,127
66329,note_on,0,0,0,,5,,,65,127
66329,note_on,0,0,0,,0,,,60,127
66329,note_on,0,0,0,,8,,,56,127
66649,note_off,320,0,0,,8,,,56,127
66649,note_off,0,0,0,,0,,,60,127
66649,note_off,0,0,0,,5,,,65,127
66649,note_off,0,0,0,,0,,,72,127
66651,note_on,2,0,0,,0,,,72,127
66651,note_on,0,0,0,,0,,,60,127
66651,note_on,0,0,0,,5,,,65,127
66651,note_on,0,0,0,,8,,,56,127
66810,note_off,159,0,0,,8,,,56,127
66810,note_off,0,0,0,,5,,,65,127
66810,note_off,0,0,0,,0,,,60,127
66810,note_off,0,0,0,,0,,,72,127
66812,note_on,2,0,0,,3,,,75,127
66812,note_on,0,0,0,,5,,,77,127
66812,note_on,0,0,0,,0,,,60,127
66812,note_on,0,0,0,,5,,,65,127
66812,note_on,0,0,0,,8,,,56,127
66971,note_off,159,0,0,,5,,,77,127
66971,note_off,0,0,0,,3,,,75,127
66973,note_on,2,0,0,,2,,,74,127
67131,note_off,158,0,0,,8,,,56,127
67131,note_off,0,0,0,,5,,,65,127
67131,note_off,0,0,0,,0,,,60,127
67132,note_off,1,0,0,,2,,,74,127
67133,note_on,1,0,0,,0,,,72,127
67133,note_on,0,0,0,,0,,,60,127
67133,note_on,0,0,0,,5,,,65,127
67133,note_on,0,0,0,,8,,,56,127
67292,note_off,159,0,0,,8,,,56,127
67292,note_off,0,0,0,,5,,,65,127
67292,note_off,0,0,0,,0,,,60,127
67292,note_off,0,0,0,,0,,,72,127
67294,note_on,2,0,0,,12,,,71,127
67294,note_on,0,0,0,,2,,,62,127
67294,note_on,0,0,0,,5,,,65,127
67294,note_on,0,0,0,,7,,,55,127
67614,note_off,320,0,0,,7,,,55,127
67614,note_off,0,0,0,,5,,,65,127
67614,note_off,0,0,0,,2,,,62,127
67614,note_off,0,0,0,,12,,,71,127
67617,note_on,3,0,0,,12,,,71,127
67617,note_on,0,0,0,,5,,,65,127
67617,note_on,0,0,0,,7,,,55,127
67617,note_on,0,0,0,,2,,,62,127
67776,note_off,159,0,0,,2,,,62,127
67776,note_off,0,0,0,,7,,,55,127
67776,note_off,0,0,0,,5,,,65,127
67776,note_off,0,0,0,,12,,,71,127
67777,note_on,1,0,0,,5,,,77,127
67777,note_on,0,0,0,,7,,,79,127
67777,note_on,0,0,0,,5,,,65,127
67777,note_on,0,0,0,,7,,,55,127
67777,note_on,0,0,0,,2,,,62,127
67936,note_off,159,0,0,,7,,,79,127
67936,note_off,0,0,0,,5,,,77,127
67938,note_on,2,0,0,,3,,,75,127
68096,note_off,158,0,0,,2,,,62,127
68096,note_off,0,0,0,,7,,,55,127
68096,note_off,0,0,0,,5,,,65,127
68097,note_off,1,0,0,,3,,,75,127
68099,note_on,2,0,0,,2,,,74,127
68099,note_on,0,0,0,,7,,,55,127
68099,note_on,0,0,0,,2,,,62,127
68099,note_on,0,0,0,,5,,,65,127
68258,note_off,159,0,0,,5,,,65,127
68258,note_off,0,0,0,,2,,,62,127
68258,note_off,0,0,0,,7,,,55,127
68258,note_off,0,0,0,,2,,,74,127
68259,note_on,1,0,0,,0,,,72,127
68259,note_on,0,0,0,,3,,,63,127
68259,note_on,0,0,0,,7,,,55,127
68259,note_on,0,0,0,,0,,,60,127
68579,note_off,320,0,0,,0,,,60,127
68579,note_off,0,0,0,,7,,,55,127
68579,note_off,0,0,0,,3,,,63,127
68579,note_off,0,0,0,,0,,,72,127
68582,note_on,3,0,0,,0,,,72,127
68582,note_on,0,0,0,,0,,,60,127
68582,note_on,0,0,0,,3,,,63,127
68582,note_on,0,0,0,,7,,,55,127
68741,note_off,159,0,0,,7,,,55,127
68741,note_off,0,0,0,,3,,,63,127
68741,note_off,0,0,0,,0,,,60,127
68741,note_off,0,0,0,,0,,,72,127
68742,note_on,1,0,0,,5,,,77,127
68742,note_on,0,0,0,,7,,,79,127
68742,note_on,0,0,0,,7,,,55,127
68742,note_on,0,0,0,,0,,,60,127
68742,note_on,0,0,0,,3,,,63,127
68901,note_off,159,0,0,,7,,,79,127
68901,note_off,0,0,0,,5,,,77,127
68903,note_on,2,0,0,,3,,,75,127
69061,note_off,158,0,0,,3,,,63,127
69061,note_off,0,0,0,,0,,,60,127
69061,note_off,0,0,0,,7,,,55,127
69062,note_off,1,0,0,,3,,,75,127
69064,note_on,2,0,0,,2,,,74,127
69064,note_on,0,0,0,,3,,,63,127
69064,note_on,0,0,0,,7,,,55,127
69064,note_on,0,0,0,,0,,,60,127
69223,note_off,159,0,0,,0,,,60,127
69223,note_off,0,0,0,,7,,,55,127
69223,note_off,0,0,0,,3,,,63,127
69223,note_off,0,0,0,,2,,,74,127
69224,note_on,1,0,0,,0,,,72,127
69224,note_on,0,0,0,,0,,,60,127
69224,note_on,0,0,0,,3,,,63,127
69224,note_on,0,0,0,,6,,,54,127
69544,note_off,320,0,0,,6,,,54,127
69544,note_off,0,0,0,,3,,,63,127
69544,note_off,0,0,0,,0,,,60,127
69544,note_off,0,0,0,,0,,,72,127
69547,note_on,3,0,0,,0,,,72,127
69547,note_on,0,0,0,,0,,,60,127
69547,note_on,0,0,0,,3,,,63,127
69547,note_on,0,0,0,,6,,,54,127
69706,note_off,159,0,0,,6,,,54,127
69706,note_off,0,0,0,,3,,,63,127
69706,note_off,0,0,0,,0,,,60,127
69706,note_off,0,0,0,,0,,,72,127
69708,note_on,2,0,0,,5,,,77,127
69708,note_on,0,0,0,,7,,,79,127
69708,note_on,0,0,0,,3,,,63,127
69708,note_on,0,0,0,,0,,,60,127
69708,note_on,0,0,0,,6,,,54,127
69867,note_off,159,0,0,,7,,,79,127
69867,note_off,0,0,0,,5,,,77,127
69868,note_on,1,0,0,,3,,,75,127
70027,note_off,159,0,0,,3,,,75,127
70027,note_off,0,0,0,,6,,,54,127
70027,note_off,0,0,0,,0,,,60,127
70027,note_off,0,0,0,,3,,,63,127
70029,note_on,2,0,0,,2,,,74,127
70029,note_on,0,0,0,,0,,,60,127
70029,note_on,0,0,0,,3,,,63,127
70029,note_on,0,0,0,,6,,,54,127
70188,note_off,159,0,0,,6,,,54,127
70188,note_off,0,0,0,,3,,,63,127
70188,note_off,0,0,0,,0,,,60,127
70188,note_off,0,0,0,,2,,,74,127
70190,note_on,2,0,0,,0,,,72,127
70190,note_on,0,0,0,,3,,,63,127
70190,note_on,0,0,0,,0,,,60,127
70190,note_on,0,0,0,,6,,,54,127
70510,note_off,320,0,0,,6,,,54,127
70510,note_off,0,0,0,,0,,,60,127
70510,note_off,0,0,0,,3,,,63,127
70510,note_off,0,0,0,,0,,,72,127
70512,note_on,2,0,0,,0,,,72,127
70512,note_on,0,0,0,,0,,,60,127
70512,note_on,0,0,0,,3,,,63,127
70512,note_on,0,0,0,,6,,,54,127
70671,note_off,159,0,0,,6,,,54,127
70671,note_off,0,0,0,,3,,,63,127
70671,note_off,0,0,0,,0,,,60,127
70671,note_off,0,0,0,,0,,,72,127
70673,note_on,2,0,0,,7,,,79,127
70673,note_on,0,0,0,,5,,,77,127
70673,note_on,0,0,0,,3,,,63,127
70673,note_on,0,0,0,,0,,,60,127
70673,note_on,0,0,0,,6,,,54,127
70832,note_off,159,0,0,,5,,,77,127
70832,note_off,0,0,0,,7,,,79,127
70833,note_on,1,0,0,,3,,,75,127
70992,note_off,159,0,0,,3,,,75,127
70992,note_off,0,0,0,,6,,,54,127
70992,note_off,0,0,0,,0,,,60,127
70992,note_off,0,0,0,,3,,,63,127
70994,note_on,2,0,0,,1,,,73,127
70994,note_on,0,0,0,,0,,,60,127
70994,note_on,0,0,0,,3,,,63,127
70994,note_on,0,0,0,,6,,,54,127
71153,note_off,159,0,0,,6,,,54,127
71153,note_off,0,0,0,,3,,,63,127
71153,note_off,0,0,0,,0,,,60,127
71153,note_off,0,0,0,,1,,,73,127
71155,note_on,2,0,0,,0,,,72,127
71155,note_on,0,0,0,,0,,,60,127
71155,note_on,0,0,0,,3,,,63,127
71155,note_on,0,0,0,,5,,,53,127
71475,note_off,320,0,0,,5,,,53,127
71475,note_off,0,0,0,,3,,,63,127
71475,note_off,0,0,0,,0,,,60,127
71475,note_off,0,0,0,,0,,,72,127
71477,note_on,2,0,0,,6,,,78,127
71477,note_on,0,0,0,,3,,,63,127
71477,note_on,0,0,0,,0,,,60,127
71477,note_on,0,0,0,,5,,,53,127
71636,note_off,159,0,0,,5,,,53,127
71636,note_off,0,0,0,,0,,,60,127
71636,note_off,0,0,0,,3,,,63,127
71636,note_off,0,0,0,,6,,,78,127
71638,note_on,2,0,0,,3,,,75,127
71638,note_on,0,0,0,,5,,,77,127
71638,note_on,0,0,0,,3,,,63,127
71638,note_on,0,0,0,,5,,,53,127
71638,note_on,0,0,0,,0,,,60,127
71797,note_off,159,0,0,,5,,,77,127
71797,note_off,0,0,0,,3,,,75,127
71799,note_on,2,0,0,,1,,,73,127
71957,note_off,158,0,0,,0,,,60,127
71957,note_off,0,0,0,,5,,,53,127
71957,note_off,0,0,0,,3,,,63,127
71958,note_off,1,0,0,,1,,,73,127
71959,note_on,1,0,0,,0,,,72,127
71959,note_on,0,0,0,,3,,,63,127
71959,note_on,0,0,0,,0,,,60,127
71959,note_on,0,0,0,,5,,,53,127
72118,note_off,159,0,0,,5,,,53,127
72118,note_off,0,0,0,,0,,,60,127
72118,note_off,0,0,0,,3,,,63,127
72118,note_off,0,0,0,,0,,,72,127
72120,note_on,2,0,0,,1,,,73,127
72120,note_on,0,0,0,,1,,,61,127
72120,note_on,0,0,0,,11,,,58,127
72120,note_on,0,0,0,,5,,,53,127
72440,note_off,320,0,0,,5,,,53,127
72440,note_off,0,0,0,,11,,,58,127
72440,note_off,0,0,0,,1,,,61,127
72440,note_off,0,0,0,,1,,,73,127
72442,note_on,2,0,0,,5,,,77,127
72442,note_on,0,0,0,,1,,,61,127
72442,note_on,0,0,0,,5,,,53,127
72442,note_on,0,0,0,,11,,,58,127
72601,note_off,159,0,0,,11,,,58,127
72601,note_off,0,0,0,,5,,,53,127
72601,note_off,0,0,0,,1,,,61,127
72601,note_off,0,0,0,,5,,,77,127
72603,note_on,2,0,0,,1,,,73,127
72603,note_on,0,0,0,,3,,,75,127
72603,note_on,0,0,0,,1,,,61,127
72603,note_on,0,0,0,,5,,,53,127
72603,note_on,0,0,0,,11,,,58,127
72762,note_off,159,0,0,,3,,,75,127
72762,note_off,0,0,0,,1,,,73,127
72764,note_on,2,0,0,,0,,,72,127
72922,note_off,158,0,0,,11,,,58,127
72922,note_off,0,0,0,,5,,,53,127
72922,note_off,0,0,0,,1,,,61,127
72923,note_off,1,0,0,,0,,,72,127
72924,note_on,1,0,0,,11,,,70,127
72924,note_on,0,0,0,,5,,,53,127
72924,note_on,0,0,0,,11,,,58,127
72924,note_on,0,0,0,,1,,,61,127
73083,note_off,159,0,0,,1,,,61,127
73083,note_off,0,0,0,,11,,,58,127
73083,note_off,0,0,0,,5,,,53,127
73083,note_off,0,0,0,,11,,,70,127
73085,note_on,2,0,0,,10,,,69,127
73085,note_on,0,0,0,,0,,,60,127
73085,note_on,0,0,0,,5,,,53,127
73244,note_off,159,0,0,,10,,,69,127
73246,note_on,2,0,0,,11,,,70,127
73404,note_off,158,0,0,,5,,,53,127
73404,note_off,0,0,0,,0,,,60,127
73405,note_off,1,0,0,,11,,,70,127
73406,note_on,1,0,0,,10,,,69,127
73406,note_on,0,0,0,,0,,,60,127
73406,note_on,0,0,0,,5,,,53,127
73565,note_off,159,0,0,,5,,,53,127
73565,note_off,0,0,0,,0,,,60,127
73565,note_off,0,0,0,,10,,,69,127
73567,note_on,2,0,0,,11,,,70,127
73567,note_on,0,0,0,,11,,,58,127
73567,note_on,0,0,0,,1,,,49,127
73726,note_off,159,0,0,,11,,,70,127
73728,note_on,2,0,0,,10,,,69,127
73886,note_off,158,0,0,,1,,,49,127
73886,note_off,0,0,0,,11,,,58,127
73887,note_off,1,0,0,,10,,,69,127
73889,note_on,2,0,0,,11,,,70,127
73889,note_on,0,0,0,,11,,,58,127
73889,note_on,0,0,0,,1,,,49,127
74048,note_off,159,0,0,,1,,,49,127
74048,note_off,0,0,0,,11,,,58,127
74048,note_off,0,0,0,,11,,,70,127
74049,note_on,1,0,0,,0,,,72,127
74049,note_on,0,0,0,,10,,,69,127
74049,note_on,0,0,0,,5,,,53,127
74049,note_on,0,0,0,,10,,,45,127
74208,note_off,159,0,0,,10,,,69,127
74208,note_off,0,0,0,,0,,,72,127
74210,note_on,2,0,0,,11,,,70,127
74210,note_on,0,0,0,,1,,,73,127
74368,note_off,158,0,0,,10,,,45,127
74368,note_off,0,0,0,,5,,,53,127
74369,note_off,1,0,0,,1,,,73,127
74369,note_off,0,0,0,,11,,,70,127
74371,note_on,2,0,0,,3,,,75,127
74371,note_on,0,0,0,,0,,,72,127
74371,note_on,0,0,0,,5,,,53,127
74371,note_on,0,0,0,,10,,,45,127
74530,note_off,159,0,0,,10,,,45,127
74530,note_off,0,0,0,,5,,,53,127
74530,note_off,0,0,0,,0,,,72,127
74530,note_off,0,0,0,,3,,,75,127
74531,note_on,1,0,0,,11,,,70,127
74531,note_on,0,0,0,,1,,,73,127
74531,note_on,0,0,0,,11,,,46,127
74531,note_on,0,0,0,,5,,,53,127
74690,note_off,159,0,0,,1,,,73,127
74690,note_off,0,0,0,,11,,,70,127
74692,note_on,2,0,0,,10,,,69,127
74692,note_on,0,0,0,,0,,,72,127
74850,note_off,158,0,0,,5,,,53,127
74850,note_off,0,0,0,,11,,,46,127
74851,note_off,1,0,0,,0,,,72,127
74851,note_off,0,0,0,,10,,,69,127
74853,note_on,2,0,0,,11,,,70,127
74853,note_on,0,0,0,,1,,,73,127
74853,note_on,0,0,0,,5,,,53,127
74853,note_on,0,0,0,,11,,,46,127
75012,note_off,159,0,0,,11,,,46,127
75012,note_off,0,0,0,,5,,,53,127
75012,note_off,0,0,0,,1,,,73,127
75012,note_off,0,0,0,,11,,,70,127
75013,note_on,1,0,0,,10,,,69,127
75013,note_on,0,0,0,,0,,,72,127
75013,note_on,0,0,0,,5,,,53,127
75013,note_on,0,0,0,,5,,,41,127
75172,note_off,159,0,0,,0,,,72,127
75172,note_off,0,0,0,,10,,,69,127
75174,note_on,2,0,0,,1,,,73,127
75174,note_on,0,0,0,,11,,,70,127
75332,note_off,158,0,0,,5,,,41,127
75332,note_off,0,0,0,,5,,,53,127
75333,note_off,1,0,0,,11,,,70,127
75333,note_off,0,0,0,,1,,,73,127
75335,note_on,2,0,0,,10,,,69,127
75335,note_on,0,0,0,,0,,,72,127
75335,note_on,0,0,0,,5,,,53,127
75335,note_on,0,0,0,,5,,,41,127
75494,note_off,159,0,0,,5,,,41,127
75494,note_off,0,0,0,,5,,,53,127
75494,note_off,0,0,0,,0,,,72,127
75494,note_off,0,0,0,,10,,,69,127
75495,note_on,1,0,0,,11,,,70,127
75495,note_on,0,0,0,,1,,,73,127
75495,note_on,0,0,0,,1,,,49,127
75495,note_on,0,0,0,,5,,,53,127
75654,note_off,159,0,0,,1,,,73,127
75654,note_off,0,0,0,,11,,,70,127
75656,note_on,2,0,0,,0,,,72,127
75656,note_on,0,0,0,,10,,,69,127
75814,note_off,158,0,0,,5,,,53,127
75814,note_off,0,0,0,,1,,,49,127
75815,note_off,1,0,0,,10,,,69,127
75815,note_off,0,0,0,,0,,,72,127
75817,note_on,2,0,0,,11,,,70,127
75817,note_on,0,0,0,,1,,,73,127
75817,note_on,0,0,0,,5,,,53,127
75817,note_on,0,0,0,,1,,,49,127
75976,note_off,159,0,0,,1,,,49,127
75976,note_off,0,0,0,,5,,,53,127
75976,note_off,0,0,0,,1,,,73,127
75976,note_off,0,0,0,,11,,,70,127
75978,note_on,2,0,0,,10,,,69,127
75978,note_on,0,0,0,,0,,,72,127
75978,note_on,0,0,0,,10,,,45,127
75978,note_on,0,0,0,,5,,,53,127
76137,note_off,159,0,0,,0,,,72,127
76137,note_off,0,0,0,,10,,,69,127
76138,note_on,1,0,0,,1,,,73,127
76138,note_on,0,0,0,,11,,,70,127
76297,note_off,159,0,0,,11,,,70,127
76297,note_off,0,0,0,,1,,,73,127
76297,note_off,0,0,0,,5,,,53,127
76297,note_off,0,0,0,,10,,,45,127
76299,note_on,2,0,0,,0,,,72,127
76299,note_on,0,0,0,,3,,,75,127
76299,note_on,0,0,0,,5,,,53,127
76299,note_on,0,0,0,,10,,,45,127
76458,note_off,159,0,0,,10,,,45,127
76458,note_off,0,0,0,,5,,,53,127
76458,note_off,0,0,0,,3,,,75,127
76458,note_off,0,0,0,,0,,,72,127
76460,note_on,2,0,0,,11,,,70,127
76460,note_on,0,0,0,,1,,,73,127
76460,note_on,0,0,0,,3,,,75,127
76460,note_on,0,0,0,,5,,,53,127
76460,note_on,0,0,0,,11,,,46,127
76619,note_off,159,0,0,,3,,,75,127
76619,note_off,0,0,0,,1,,,73,127
76619,note_off,0,0,0,,11,,,70,127
76620,note_on,1,0,0,,0,,,72,127
76620,note_on,0,0,0,,10,,,69,127
76779,note_off,159,0,0,,10,,,69,127
76779,note_off,0,0,0,,0,,,72,127
76779,note_off,0,0,0,,11,,,46,127
76779,note_off,0,0,0,,5,,,53,127
76781,note_on,2,0,0,,11,,,70,127
76781,note_on,0,0,0,,1,,,73,127
76781,note_on,0,0,0,,5,,,53,127
76781,note_on,0,0,0,,11,,,46,127
76940,note_off,159,0,0,,11,,,46,127
76940,note_off,0,0,0,,5,,,53,127
76940,note_off,0,0,0,,1,,,73,127
76940,note_off,0,0,0,,11,,,70,127
76942,note_on,2,0,0,,5,,,41,127
76942,note_on,0,0,0,,5,,,53,127
76942,note_on,0,0,0,,0,,,72,127
76942,note_on,0,0,0,,10,,,69,127
77211,note_on,269,0,0,,2,,,74,127
77218,note_off,7,0,0,,0,,,72,127
77262,note_off,44,0,0,,2,,,74,127
77263,note_off,1,0,0,,10,,,69,127
77265,note_on,2,0,0,,3,,,75,127
77315,note_off,50,0,0,,3,,,75,127
77319,note_on,4,0,0,,5,,,77,127
77369,note_off,50,0,0,,5,,,77,127
77372,note_on,3,0,0,,7,,,79,127
77422,note_off,50,0,0,,7,,,79,127
77425,note_on,3,0,0,,10,,,81,127
77475,note_off,50,0,0,,10,,,81,127
77479,note_on,4,0,0,,11,,,82,127
77529,note_off,50,0,0,,11,,,82,127
77533,note_on,4,0,0,,0,,,84,127
77583,note_off,50,0,0,,0,,,84,127
77584,note_off,1,0,0,,5,,,53,127
77584,note_off,0,0,0,,5,,,41,127
77586,note_on,2,0,0,,11,,,46,127
77586,note_on,0,0,0,,11,,,58,127
77586,note_on,0,0,0,,2,,,86,127
77691,note_off,105,0,0,,2,,,86,127
77694,note_on,3,0,0,,11,,,82,127
77799,note_off,105,0,0,,11,,,82,127
77802,note_on,3,0,0,,5,,,77,127
77907,note_off,105,0,0,,5,,,77,127
77910,note_on,3,0,0,,2,,,74,127
78015,note_off,105,0,0,,2,,,74,127
78018,note_on,3,0,0,,11,,,70,127
78123,note_off,105,0,0,,11,,,70,127
78126,note_on,3,0,0,,5,,,65,127
78231,note_off,105,0,0,,5,,,65,127
78232,note_off,1,0,0,,11,,,58,127
78232,note_off,0,0,0,,11,,,46,127
78234,note_on,2,0,0,,2,,,74,127
78284,note_off,50,0,0,,2,,,74,127
78288,note_on,4,0,0,,0,,,72,127
78338,note_off,50,0,0,,0,,,72,127
78341,note_on,3,0,0,,2,,,74,127
78391,note_off,50,0,0,,2,,,74,127
78394,note_on,3,0,0,,0,,,72,127
78447,note_on,53,0,0,,5,,,53,127
78498,note_off,51,0,0,,0,,,72,127
78501,note_on,3,0,0,,2,,,74,127
78551,note_off,50,0,0,,2,,,74,127
78555,note_on,4,0,0,,3,,,75,127
78605,note_off,50,0,0,,3,,,75,127
78608,note_on,3,0,0,,5,,,77,127
78658,note_off,50,0,0,,5,,,77,127
78662,note_on,4,0,0,,5,,,41,127
78662,note_on,0,0,0,,7,,,79,127
78712,note_off,50,0,0,,7,,,79,127
78715,note_on,3,0,0,,10,,,81,127
78765,note_off,50,0,0,,10,,,81,127
78768,note_on,3,0,0,,11,,,82,127
78818,note_off,50,0,0,,11,,,82,127
78822,note_on,4,0,0,,0,,,84,127
78870,note_off,48,0,0,,5,,,53,127
78872,note_off,2,0,0,,0,,,84,127
78873,note_off,1,0,0,,5,,,41,127
78875,note_on,2,0,0,,11,,,46,127
78875,note_on,0,0,0,,11,,,58,127
78875,note_on,0,0,0,,2,,,86,127
78980,note_off,105,0,0,,2,,,86,127
78984,note_on,4,0,0,,11,,,82,127
79089,note_off,105,0,0,,11,,,82,127
79091,note_on,2,0,0,,5,,,77,127
79196,note_off,105,0,0,,5,,,77,127
79199,note_on,3,0,0,,2,,,74,127
79304,note_off,105,0,0,,2,,,74,127
79308,note_on,4,0,0,,11,,,70,127
79413,note_off,105,0,0,,11,,,70,127
79415,note_on,2,0,0,,5,,,65,127
79520,note_off,105,0,0,,5,,,65,127
79521,note_off,1,0,0,,11,,,58,127
79521,note_off,0,0,0,,11,,,46,127
79523,note_on,2,0,0,,2,,,74,127
79573,note_off,50,0,0,,2,,,74,127
79577,note_on,4,0,0,,0,,,72,127
79627,note_off,50,0,0,,0,,,72,127
79631,note_on,4,0,0,,2,,,74,127
79681,note_off,50,0,0,,2,,,74,127
79684,note_on,3,0,0,,0,,,72,127
79737,note_on,53,0,0,,5,,,53,127
79788,note_off,51,0,0,,0,,,72,127
79790,note_on,2,0,0,,2,,,74,127
79840,note_off,50,0,0,,2,,,74,127
79844,note_on,4,0,0,,3,,,75,127
79894,note_off,50,0,0,,3,,,75,127
79897,note_on,3,0,0,,5,,,77,127
79947,note_off,50,0,0,,5,,,77,127
79951,note_on,4,0,0,,5,,,41,127
79951,note_on,0,0,0,,7,,,79,127
80001,note_off,50,0,0,,7,,,79,127
80005,note_on,4,0,0,,10,,,81,127
80055,note_off,50,0,0,,10,,,81,127
80058,note_on,3,0,0,,11,,,82,127
80108,note_off,50,0,0,,11,,,82,127
80111,note_on,3,0,0,,0,,,84,127
80160,note_off,49,0,0,,5,,,53,127
80161,note_off,1,0,0,,0,,,84,127
80162,note_off,1,0,0,,5,,,41,127
80165,note_on,3,0,0,,11,,,46,127
80165,note_on,0,0,0,,11,,,58,127
80165,note_on,0,0,0,,2,,,86,127
80270,note_off,105,0,0,,2,,,86,127
80273,note_on,3,0,0,,11,,,82,127
80378,note_off,105,0,0,,11,,,82,127
80381,note_on,3,0,0,,5,,,77,127
80486,note_off,105,0,0,,5,,,77,127
80489,note_on,3,0,0,,2,,,74,127
80594,note_off,105,0,0,,2,,,74,127
80597,note_on,3,0,0,,11,,,70,127
80702,note_off,105,0,0,,11,,,70,127
80705,note_on,3,0,0,,5,,,65,127
80810,note_off,105,0,0,,5,,,65,127
80811,note_off,1,0,0,,11,,,58,127
80811,note_off,0,0,0,,11,,,46,127
80813,note_on,2,0,0,,2,,,62,127
80918,note_off,105,0,0,,2,,,62,127
80920,note_on,2,0,0,,11,,,58,127
81025,note_off,105,0,0,,11,,,58,127
81029,note_on,4,0,0,,5,,,53,127
81134,note_off,105,0,0,,5,,,53,127
81136,note_on,2,0,0,,2,,,50,127
81241,note_off,105,0,0,,2,,,50,127
81244,note_on,3,0,0,,11,,,46,127
81349,note_off,105,0,0,,11,,,46,127
81353,note_on,4,0,0,,2,,,50,127
81458,note_off,105,0,0,,2,,,50,127
81460,note_on,2,0,0,,5,,,41,127
81677,note_on,217,0,0,,2,,,86,127
81746,note_off,69,0,0,,2,,,86,127
81748,note_on,2,0,0,,0,,,84,127
81817,note_off,69,0,0,,0,,,84,127
81820,note_on,3,0,0,,2,,,86,127
81887,note_off,67,0,0,,5,,,41,127
81889,note_off,2,0,0,,2,,,86,127
81892,note_on,3,0,0,,0,,,84,127
81961,note_off,69,0,0,,0,,,84,127
81964,note_on,3,0,0,,11,,,82,127
82033,note_off,69,0,0,,11,,,82,127
82036,note_on,3,0,0,,10,,,81,127
82105,note_off,69,0,0,,10,,,81,127
82108,note_on,3,0,0,,11,,,46,127
82108,note_on,0,0,0,,11,,,58,127
82108,note_on,0,0,0,,2,,,86,127
82213,note_off,105,0,0,,2,,,86,127
82216,note_on,3,0,0,,11,,,82,127
82321,note_off,105,0,0,,11,,,82,127
82324,note_on,3,0,0,,5,,,77,127
82429,note_off,105,0,0,,5,,,77,127
82432,note_on,3,0,0,,2,,,74,127
82537,note_off,105,0,0,,2,,,74,127
82540,note_on,3,0,0,,11,,,70,127
82645,note_off,105,0,0,,11,,,70,127
82648,note_on,3,0,0,,5,,,65,127
82753,note_off,105,0,0,,5,,,65,127
82754,note_off,1,0,0,,11,,,58,127
82754,note_off,0,0,0,,11,,,46,127
82756,note_on,2,0,0,,2,,,62,127
82861,note_off,105,0,0,,2,,,62,127
82864,note_on,3,0,0,,11,,,58,127
82969,note_off,105,0,0,,11,,,58,127
82971,note_on,2,0,0,,5,,,53,127
83076,note_off,105,0,0,,5,,,53,127
83080,note_on,4,0,0,,2,,,50,127
83185,note_off,105,0,0,,2,,,50,127
83188,note_on,3,0,0,,11,,,46,127
83293,note_off,105,0,0,,11,,,46,127
83295,note_on,2,0,0,,2,,,50,127
83400,note_off,105,0,0,,2,,,50,127
83404,note_on,4,0,0,,5,,,41,127
83619,note_on,215,0,0,,2,,,86,127
83688,note_off,69,0,0,,2,,,86,127
83691,note_on,3,0,0,,0,,,84,127
83760,note_off,69,0,0,,0,,,84,127
83764,note_on,4,0,0,,2,,,86,127
83833,note_off,69,0,0,,2,,,86,127
83835,note_on,2,0,0,,0,,,84,127
83904,note_off,69,0,0,,0,,,84,127
83907,note_on,3,0,0,,11,,,82,127
83943,note_off,36,0,0,,5,,,41,127
83976,note_off,33,0,0,,11,,,82,127
83979,note_on,3,0,0,,10,,,81,127
84048,note_off,69,0,0,,10,,,81,127
84051,note_on,3,0,0,,2,,,62,127
84051,note_on,0,0,0,,11,,,58,127
84051,note_on,0,0,0,,11,,,82,127
84264,note_off,213,0,0,,11,,,82,127
84264,note_off,0,0,0,,11,,,58,127
84264,note_off,0,0,0,,2,,,62,127
84267,note_on,3,0,0,,3,,,63,127
84267,note_on,0,0,0,,0,,,60,127
84267,note_on,0,0,0,,11,,,82,127
84336,note_off,69,0,0,,11,,,82,127
84339,note_on,3,0,0,,8,,,80,127
84408,note_off,69,0,0,,8,,,80,127
84411,note_on,3,0,0,,11,,,82,127
84480,note_off,69,0,0,,11,,,82,127
84480,note_off,0,0,0,,0,,,60,127
84480,note_off,0,0,0,,3,,,63,127
84483,note_on,3,0,0,,2,,,62,127
84483,note_on,0,0,0,,5,,,65,127
84483,note_on,0,0,0,,8,,,80,127
84552,note_off,69,0,0,,8,,,80,127
84555,note_on,3,0,0,,7,,,79,127
84624,note_off,69,0,0,,7,,,79,127
84627,note_on,3,0,0,,5,,,77,127
84696,note_off,69,0,0,,5,,,77,127
84696,note_off,0,0,0,,5,,,65,127
84696,note_off,0,0,0,,2,,,62,127
84699,note_on,3,0,0,,3,,,63,127
84699,note_on,0,0,0,,7,,,67,127
84699,note_on,0,0,0,,7,,,79,127
84912,note_off,213,0,0,,7,,,79,127
84915,note_on,3,0,0,,7,,,79,127
84984,note_off,69,0,0,,7,,,79,127
84987,note_on,3,0,0,,5,,,77,127
85056,note_off,69,0,0,,5,,,77,127
85059,note_on,3,0,0,,7,,,79,127
85128,note_off,69,0,0,,7,,,79,127
85128,note_off,0,0,0,,7,,,67,127
85128,note_off,0,0,0,,3,,,63,127
85131,note_on,3,0,0,,5,,,65,127
85131,note_on,0,0,0,,2,,,62,127
85131,note_on,0,0,0,,5,,,77,127
85200,note_off,69,0,0,,5,,,77,127
85203,note_on,3,0,0,,3,,,75,127
85272,note_off,69,0,0,,3,,,75,127
85275,note_on,3,0,0,,2,,,74,127
85344,note_off,69,0,0,,2,,,74,127
85344,note_off,0,0,0,,2,,,62,127
85344,note_off,0,0,0,,5,,,65,127
85346,note_on,2,0,0,,0,,,60,127
85346,note_on,0,0,0,,3,,,63,127
85346,note_on,0,0,0,,5,,,77,127
85415,note_off,69,0,0,,5,,,77,127
85419,note_on,4,0,0,,3,,,75,127
85488,note_off,69,0,0,,3,,,75,127
85491,note_on,3,0,0,,5,,,77,127
85559,note_off,68,0,0,,3,,,63,127
85560,note_off,1,0,0,,5,,,77,127
85563,note_on,3,0,0,,5,,,65,127
85563,note_on,0,0,0,,3,,,75,127
85632,note_off,69,0,0,,3,,,75,127
85634,note_on,2,0,0,,2,,,74,127
85703,note_off,69,0,0,,2,,,74,127
85706,note_on,3,0,0,,0,,,72,127
85773,note_off,67,0,0,,0,,,60,127
85775,note_off,2,0,0,,0,,,72,127
85779,note_on,4,0,0,,11,,,58,127
85779,note_on,0,0,0,,2,,,74,127
85990,note_off,211,0,0,,5,,,65,127
85992,note_off,2,0,0,,2,,,74,127
85992,note_off,0,0,0,,11,,,58,127
85994,note_on,2,0,0,,3,,,51,127
85994,note_on,0,0,0,,7,,,79,127
86207,note_off,213,0,0,,7,,,79,127
86207,note_off,0,0,0,,3,,,51,127
86211,note_on,4,0,0,,5,,,53,127
86211,note_on,0,0,0,,2,,,74,127
86280,note_off,69,0,0,,2,,,74,127
86282,note_on,2,0,0,,0,,,72,127
86351,note_off,69,0,0,,0,,,72,127
86354,note_on,3,0,0,,2,,,74,127
86423,note_off,69,0,0,,2,,,74,127
86426,note_on,3,0,0,,5,,,41,127
86426,note_on,0,0,0,,0,,,72,127
86495,note_off,69,0,0,,0,,,72,127
86499,note_on,4,0,0,,2,,,74,127
86568,note_off,69,0,0,,2,,,74,127
86570,note_on,2,0,0,,0,,,72,127
86638,note_off,68,0,0,,5,,,53,127
86639,note_off,1,0,0,,0,,,72,127
86639,note_off,0,0,0,,5,,,41,127
86655,note_on,16,0,0,,2,,,50,127
86655,note_on,0,0,0,,11,,,46,127
86655,note_on,0,0,0,,11,,,70,127
86868,note_off,213,0,0,,11,,,70,127
86868,note_off,0,0,0,,11,,,46,127
86868,note_off,0,0,0,,2,,,50,127
86877,note_on,9,0,0,,0,,,48,127
86877,note_on,0,0,0,,3,,,51,127
86877,note_on,0,0,0,,11,,,70,127
86946,note_off,69,0,0,,11,,,70,127
86953,note_on,7,0,0,,8,,,68,127
87022,note_off,69,0,0,,8,,,68,127
87027,note_on,5,0,0,,11,,,70,127
87090,note_off,63,0,0,,3,,,51,127
87090,note_off,0,0,0,,0,,,48,127
87095,note_off,5,0,0,,11,,,70,127
87099,note_on,4,0,0,,5,,,53,127
87099,note_on,0,0,0,,2,,,50,127
87099,note_on,0,0,0,,8,,,68,127
87168,note_off,69,0,0,,8,,,68,127
87175,note_on,7,0,0,,7,,,67,127
87244,note_off,69,0,0,,7,,,67,127
87248,note_on,4,0,0,,5,,,65,127
87312,note_off,64,0,0,,2,,,50,127
87312,note_off,0,0,0,,5,,,53,127
87316,note_off,4,0,0,,5,,,65,127
87323,note_on,7,0,0,,3,,,51,127
87323,note_on,0,0,0,,7,,,55,127
87323,note_on,0,0,0,,7,,,67,127
87536,note_off,213,0,0,,7,,,67,127
87546,note_on,10,0,0,,7,,,67,127
87615,note_off,69,0,0,,7,,,67,127
87619,note_on,4,0,0,,5,,,65,127
87688,note_off,69,0,0,,5,,,65,127
87693,note_on,5,0,0,,7,,,67,127
87752,note_off,59,0,0,,7,,,55,127
87752,note_off,0,0,0,,3,,,51,127
87762,note_off,10,0,0,,7,,,67,127
87767,note_on,5,0,0,,2,,,50,127
87767,note_on,0,0,0,,5,,,53,127
87767,note_on,0,0,0,,5,,,65,127
87836,note_off,69,0,0,,5,,,65,127
87841,note_on,5,0,0,,3,,,63,127
87910,note_off,69,0,0,,3,,,63,127
87915,note_on,5,0,0,,2,,,62,127
87979,note_off,64,0,0,,5,,,53,127
87979,note_off,0,0,0,,2,,,50,127
87983,note_off,4,0,0,,2,,,62,127
87988,note_on,5,0,0,,3,,,51,127
87988,note_on,0,0,0,,0,,,48,127
87988,note_on,0,0,0,,5,,,65,127
88057,note_off,69,0,0,,5,,,65,127
88062,note_on,5,0,0,,3,,,63,127
88131,note_off,69,0,0,,3,,,63,127
88136,note_on,5,0,0,,5,,,65,127
88200,note_off,64,0,0,,3,,,51,127
88204,note_off,4,0,0,,5,,,65,127
88209,note_on,5,0,0,,5,,,53,127
88209,note_on,0,0,0,,3,,,63,127
88278,note_off,69,0,0,,3,,,63,127
88283,note_on,5,0,0,,2,,,62,127
88352,note_off,69,0,0,,2,,,62,127
88357,note_on,5,0,0,,0,,,60,127
88413,note_off,56,0,0,,0,,,48,127
88426,note_off,13,0,0,,0,,,60,127
88431,note_on,5,0,0,,11,,,46,127
88431,note_on,0,0,0,,2,,,62,127
88635,note_off,204,0,0,,5,,,53,127
88644,note_off,9,0,0,,2,,,62,127
88644,note_off,0,0,0,,11,,,46,127
88663,note_on,19,0,0,,7,,,67,127
88663,note_on,0,0,0,,3,,,39,127
88883,note_off,220,0,0,,3,,,39,127
88883,note_off,0,0,0,,7,,,67,127
88904,note_on,21,0,0,,2,,,62,127
88904,note_on,0,0,0,,5,,,41,127
88975,note_off,71,0,0,,2,,,62,127
88985,note_on,10,0,0,,0,,,60,127
89056,note_off,71,0,0,,0,,,60,127
89067,note_on,11,0,0,,2,,,62,127
89125,note_off,58,0,0,,5,,,41,127
89138,note_off,13,0,0,,2,,,62,127
89147,note_on,9,0,0,,0,,,60,127
89147,note_on,0,0,0,,5,,,41,127
89218,note_off,71,0,0,,0,,,60,127
89227,note_on,9,0,0,,11,,,58,127
89298,note_off,71,0,0,,11,,,58,127
89308,note_on,10,0,0,,0,,,60,127
89368,note_off,60,0,0,,5,,,41,127
89395,note_off,27,0,0,,0,,,60,127
89411,note_on,16,0,0,,11,,,58,127
89411,note_on,0,0,0,,11,,,46,127
91281,note_off,1870,0,0,,11,,,46,127
91281,note_off,0,0,0,,11,,,58,127
96768,end_of_track,5487,1,0,,,,,,
