tick,type,time,meta,track,program,channel,pitch,tempo,note,velocity
0,copyright,0,1,0,,,,,,
0,program_change,0,0,0,6,0,,,,
0,pitchwheel,0,0,0,,0,0,,,
0,program_change,0,0,0,6,1,,,,
0,pitchwheel,0,0,0,,1,-590,,,
0,program_change,0,0,0,6,2,,,,
0,pitchwheel,0,0,0,,2,-272,,,
0,program_change,0,0,0,6,3,,,,
0,pitchwheel,0,0,0,,3,-353,,,
0,program_change,0,0,0,6,4,,,,
0,pitchwheel,0,0,0,,4,-560,,,
0,program_change,0,0,0,6,5,,,,
0,pitchwheel,0,0,0,,5,-80,,,
0,program_change,0,0,0,6,6,,,,
0,pitchwheel,0,0,0,,6,-625,,,
0,program_change,0,0,0,6,7,,,,
0,pitchwheel,0,0,0,,7,-130,,,
0,program_change,0,0,0,6,8,,,,
0,pitchwheel,0,0,0,,8,-512,,,
0,program_change,0,0,0,6,10,,,,
0,pitchwheel,0,0,0,,10,-464,,,
0,program_change,0,0,0,6,11,,,,
0,pitchwheel,0,0,0,,11,-208,,,
0,program_change,0,0,0,6,12,,,,
0,pitchwheel,0,0,0,,12,-553,,,
0,set_tempo,0,1,0,,,,500000,,
100,note_on,100,0,0,,5,,,53,127
100,note_on,0,0,0,,5,,,41,127
300,note_on,200,0,0,,5,,,77,127
398,note_off,98,0,0,,5,,,77,127
400,note_on,2,0,0,,7,,,79,127
498,note_off,98,0,0,,7,,,79,127
500,note_on,2,0,0,,5,,,77,127
698,note_off,198,0,0,,5,,,77,127
700,note_on,2,0,0,,5,,,77,127
898,note_off,198,0,0,,5,,,77,127
900,note_on,2,0,0,,5,,,77,127
1098,note_off,198,0,0,,5,,,77,127
1100,note_on,2,0,0,,0,,,72,127
1298,note_off,198,0,0,,0,,,72,127
1298,note_off,0,0,0,,5,,,41,127
1298,note_off,0,0,0,,5,,,53,127
1300,note_on,2,0,0,,5,,,77,127
1498,note_off,198,0,0,,5,,,77,127
1500,note_on,2,0,0,,0,,,72,127
1698,note_off,198,0,0,,0,,,72,127
1700,note_on,2,0,0,,5,,,77,127
1798,note_off,98,0,0,,5,,,77,127
1800,note_on,2,0,0,,7,,,79,127
1898,note_off,98,0,0,,7,,,79,127
1900,note_on,2,0,0,,10,,,81,127
1998,note_off,98,0,0,,10,,,81,127
2000,note_on,2,0,0,,7,,,79,127
2098,note_off,98,0,0,,7,,,79,127
2100,note_on,2,0,0,,5,,,77,127
2298,note_off,198,0,0,,5,,,77,127
2300,note_on,2,0,0,,4,,,76,127
2498,note_off,198,0,0,,4,,,76,127
2500,note_on,2,0,0,,2,,,74,127
2698,note_off,198,0,0,,2,,,74,127
2700,note_on,2,0,0,,0,,,72,127
2898,note_off,198,0,0,,0,,,72,127
2900,note_on,2,0,0,,0,,,72,127
2965,note_off,65,0,0,,0,,,72,127
2967,note_on,2,0,0,,11,,,70,127
3032,note_off,65,0,0,,11,,,70,127
3034,note_on,2,0,0,,0,,,72,127
3099,note_off,65,0,0,,0,,,72,127
3101,note_on,2,0,0,,11,,,70,127
3166,note_off,65,0,0,,11,,,70,127
3168,note_on,2,0,0,,10,,,69,127
3233,note_off,65,0,0,,10,,,69,127
3235,note_on,2,0,0,,11,,,70,127
3300,note_off,65,0,0,,11,,,70,127
3302,note_on,2,0,0,,10,,,69,127
3502,note_on,200,0,0,,5,,,65,127
3600,note_off,98,0,0,,5,,,65,127
3602,note_on,2,0,0,,7,,,67,127
3700,note_off,98,0,0,,7,,,67,127
3702,note_on,2,0,0,,5,,,65,127
3900,note_off,198,0,0,,5,,,65,127
3902,note_on,2,0,0,,5,,,65,127
4100,note_off,198,0,0,,5,,,65,127
4102,note_on,2,0,0,,5,,,65,127
4300,note_off,198,0,0,,5,,,65,127
4300,note_off,0,0,0,,10,,,69,127
4302,note_on,2,0,0,,0,,,60,127
4302,note_on,0,0,0,,0,,,72,127
4500,note_off,198,0,0,,0,,,72,127
4500,note_off,0,0,0,,0,,,60,127
4502,note_on,2,0,0,,5,,,65,127
4502,note_on,0,0,0,,10,,,69,127
4700,note_off,198,0,0,,10,,,69,127
4700,note_off,0,0,0,,5,,,65,127
4702,note_on,2,0,0,,0,,,60,127
4702,note_on,0,0,0,,0,,,72,127
4750,note_off,48,0,0,,0,,,72,127
4752,note_on,2,0,0,,11,,,70,127
4800,note_off,48,0,0,,11,,,70,127
4802,note_on,2,0,0,,10,,,69,127
4850,note_off,48,0,0,,10,,,69,127
4852,note_on,2,0,0,,11,,,70,127
4900,note_off,48,0,0,,11,,,70,127
4900,note_off,0,0,0,,0,,,60,127
4902,note_on,2,0,0,,5,,,65,127
4902,note_on,0,0,0,,10,,,69,127
5000,note_off,98,0,0,,5,,,65,127
5002,note_on,2,0,0,,7,,,67,127
5100,note_off,98,0,0,,7,,,67,127
5100,note_off,0,0,0,,10,,,69,127
5102,note_on,2,0,0,,10,,,69,127
5202,note_on,100,0,0,,7,,,67,127
5300,note_off,98,0,0,,7,,,67,127
5302,note_on,2,0,0,,5,,,65,127
5498,note_off,196,0,0,,10,,,69,127
5500,note_off,2,0,0,,5,,,65,127
5502,note_on,2,0,0,,4,,,64,127
5502,note_on,0,0,0,,10,,,69,127
5700,note_off,198,0,0,,10,,,69,127
5700,note_off,0,0,0,,4,,,64,127
5702,note_on,2,0,0,,2,,,62,127
5702,note_on,0,0,0,,11,,,70,127
5900,note_off,198,0,0,,11,,,70,127
5900,note_off,0,0,0,,2,,,62,127
5902,note_on,2,0,0,,0,,,60,127
5902,note_on,0,0,0,,0,,,72,127
6100,note_off,198,0,0,,0,,,72,127
6100,note_off,0,0,0,,0,,,60,127
6102,note_on,2,0,0,,0,,,60,127
6102,note_on,0,0,0,,2,,,74,127
6167,note_off,65,0,0,,0,,,60,127
6169,note_on,2,0,0,,11,,,58,127
6234,note_off,65,0,0,,11,,,58,127
6236,note_on,2,0,0,,0,,,60,127
6301,note_off,65,0,0,,0,,,60,127
6301,note_off,0,0,0,,2,,,74,127
6303,note_on,2,0,0,,11,,,58,127
6303,note_on,0,0,0,,4,,,76,127
6368,note_off,65,0,0,,11,,,58,127
6370,note_on,2,0,0,,10,,,57,127
6435,note_off,65,0,0,,10,,,57,127
6437,note_on,2,0,0,,11,,,58,127
6502,note_off,65,0,0,,11,,,58,127
6502,note_off,0,0,0,,4,,,76,127
6504,note_on,2,0,0,,10,,,57,127
6504,note_on,0,0,0,,5,,,77,127
6602,note_off,98,0,0,,5,,,77,127
6604,note_on,2,0,0,,7,,,79,127
6702,note_off,98,0,0,,7,,,79,127
6704,note_on,2,0,0,,10,,,81,127
6802,note_off,98,0,0,,10,,,81,127
6804,note_on,2,0,0,,7,,,79,127
6902,note_off,98,0,0,,7,,,79,127
6904,note_on,2,0,0,,5,,,77,127
7067,note_off,163,0,0,,10,,,57,127
7102,note_off,35,0,0,,5,,,77,127
7104,note_on,2,0,0,,10,,,57,127
7104,note_on,0,0,0,,4,,,76,127
7302,note_off,198,0,0,,4,,,76,127
7302,note_off,0,0,0,,10,,,57,127
7304,note_on,2,0,0,,11,,,58,127
7304,note_on,0,0,0,,2,,,74,127
7502,note_off,198,0,0,,2,,,74,127
7502,note_off,0,0,0,,11,,,58,127
7504,note_on,2,0,0,,0,,,60,127
7504,note_on,0,0,0,,0,,,72,127
7702,note_off,198,0,0,,0,,,72,127
7702,note_off,0,0,0,,0,,,60,127
7704,note_on,2,0,0,,2,,,62,127
7704,note_on,0,0,0,,0,,,72,127
7769,note_off,65,0,0,,0,,,72,127
7771,note_on,2,0,0,,11,,,70,127
7836,note_off,65,0,0,,11,,,70,127
7838,note_on,2,0,0,,0,,,72,127
7903,note_off,65,0,0,,0,,,72,127
7903,note_off,0,0,0,,2,,,62,127
7905,note_on,2,0,0,,4,,,64,127
7905,note_on,0,0,0,,11,,,70,127
7970,note_off,65,0,0,,11,,,70,127
7972,note_on,2,0,0,,10,,,69,127
8037,note_off,65,0,0,,10,,,69,127
8039,note_on,2,0,0,,11,,,70,127
8104,note_off,65,0,0,,11,,,70,127
8104,note_off,0,0,0,,4,,,64,127
8106,note_on,2,0,0,,5,,,65,127
8106,note_on,0,0,0,,10,,,69,127
8304,note_off,198,0,0,,10,,,69,127
8306,note_on,2,0,0,,0,,,72,127
8404,note_off,98,0,0,,0,,,72,127
8406,note_on,2,0,0,,2,,,74,127
8502,note_off,96,0,0,,5,,,65,127
8504,note_off,2,0,0,,2,,,74,127
8506,note_on,2,0,0,,0,,,72,127
8704,note_off,198,0,0,,0,,,72,127
8706,note_on,2,0,0,,4,,,64,127
8706,note_on,0,0,0,,7,,,67,127
8804,note_off,98,0,0,,7,,,67,127
8804,note_off,0,0,0,,4,,,64,127
8806,note_on,2,0,0,,5,,,65,127
8806,note_on,0,0,0,,10,,,69,127
8904,note_off,98,0,0,,10,,,69,127
8904,note_off,0,0,0,,5,,,65,127
8906,note_on,2,0,0,,4,,,64,127
8906,note_on,0,0,0,,7,,,67,127
9104,note_off,198,0,0,,7,,,67,127
9106,note_on,2,0,0,,0,,,72,127
9204,note_off,98,0,0,,0,,,72,127
9206,note_on,2,0,0,,2,,,74,127
9304,note_off,98,0,0,,2,,,74,127
9306,note_on,2,0,0,,0,,,72,127
9504,note_off,198,0,0,,0,,,72,127
9504,note_off,0,0,0,,4,,,64,127
9506,note_on,2,0,0,,2,,,62,127
9506,note_on,0,0,0,,5,,,65,127
9604,note_off,98,0,0,,5,,,65,127
9604,note_off,0,0,0,,2,,,62,127
9606,note_on,2,0,0,,4,,,64,127
9606,note_on,0,0,0,,7,,,67,127
9704,note_off,98,0,0,,7,,,67,127
9704,note_off,0,0,0,,4,,,64,127
9706,note_on,2,0,0,,2,,,62,127
9706,note_on,0,0,0,,5,,,65,127
9904,note_off,198,0,0,,5,,,65,127
9906,note_on,2,0,0,,0,,,72,127
10004,note_off,98,0,0,,0,,,72,127
10006,note_on,2,0,0,,2,,,74,127
10104,note_off,98,0,0,,2,,,74,127
10106,note_on,2,0,0,,0,,,72,127
10304,note_off,198,0,0,,0,,,72,127
10304,note_off,0,0,0,,2,,,62,127
10306,note_on,2,0,0,,0,,,60,127
10306,note_on,0,0,0,,4,,,64,127
10404,note_off,98,0,0,,4,,,64,127
10404,note_off,0,0,0,,0,,,60,127
10406,note_on,2,0,0,,2,,,62,127
10406,note_on,0,0,0,,5,,,65,127
10504,note_off,98,0,0,,5,,,65,127
10504,note_off,0,0,0,,2,,,62,127
10506,note_on,2,0,0,,0,,,60,127
10506,note_on,0,0,0,,4,,,64,127
10704,note_off,198,0,0,,4,,,64,127
10704,note_off,0,0,0,,0,,,60,127
10706,note_on,2,0,0,,11,,,58,127
10706,note_on,0,0,0,,4,,,64,127
10904,note_off,198,0,0,,4,,,64,127
10904,note_off,0,0,0,,11,,,58,127
10906,note_on,2,0,0,,10,,,57,127
10906,note_on,0,0,0,,5,,,65,127
11104,note_off,198,0,0,,5,,,65,127
11104,note_off,0,0,0,,10,,,57,127
11106,note_on,2,0,0,,7,,,55,127
11106,note_on,0,0,0,,7,,,67,127
11304,note_off,198,0,0,,7,,,67,127
11304,note_off,0,0,0,,7,,,55,127
11306,note_on,2,0,0,,5,,,53,127
11306,note_on,0,0,0,,8,,,68,127
11504,note_off,198,0,0,,8,,,68,127
11504,note_off,0,0,0,,5,,,53,127
11506,note_on,2,0,0,,4,,,52,127
11506,note_on,0,0,0,,10,,,69,127
11704,note_off,198,0,0,,10,,,69,127
11704,note_off,0,0,0,,4,,,52,127
11706,note_on,2,0,0,,2,,,50,127
11706,note_on,0,0,0,,12,,,71,127
11904,note_off,198,0,0,,12,,,71,127
11904,note_off,0,0,0,,2,,,50,127
11906,note_on,2,0,0,,0,,,48,127
11906,note_on,0,0,0,,0,,,72,127
12104,note_off,198,0,0,,0,,,72,127
12104,note_off,0,0,0,,0,,,48,127
12106,note_on,2,0,0,,12,,,47,127
12106,note_on,0,0,0,,1,,,73,127
12304,note_off,198,0,0,,1,,,73,127
12304,note_off,0,0,0,,12,,,47,127
12306,note_on,2,0,0,,10,,,45,127
12306,note_on,0,0,0,,2,,,74,127
12504,note_off,198,0,0,,2,,,74,127
12504,note_off,0,0,0,,10,,,45,127
12506,note_on,2,0,0,,7,,,43,127
12506,note_on,0,0,0,,4,,,76,127
12704,note_off,198,0,0,,4,,,76,127
12704,note_off,0,0,0,,7,,,43,127
12706,note_on,2,0,0,,5,,,41,127
12706,note_on,0,0,0,,5,,,77,127
12904,note_off,198,0,0,,5,,,77,127
12904,note_off,0,0,0,,5,,,41,127
12906,note_on,2,0,0,,4,,,40,127
12906,note_on,0,0,0,,7,,,79,127
13104,note_off,198,0,0,,7,,,79,127
13106,note_on,2,0,0,,5,,,77,127
13204,note_off,98,0,0,,5,,,77,127
13206,note_on,2,0,0,,4,,,76,127
13304,note_off,98,0,0,,4,,,76,127
13304,note_off,0,0,0,,4,,,40,127
13306,note_on,2,0,0,,5,,,41,127
13306,note_on,0,0,0,,2,,,74,127
13504,note_off,198,0,0,,2,,,74,127
13506,note_on,2,0,0,,0,,,72,127
13704,note_off,198,0,0,,0,,,72,127
13704,note_off,0,0,0,,5,,,41,127
13706,note_on,2,0,0,,7,,,43,127
13706,note_on,0,0,0,,12,,,71,127
13904,note_off,198,0,0,,12,,,71,127
13906,note_on,2,0,0,,7,,,67,127
14004,note_off,98,0,0,,7,,,67,127
14006,note_on,2,0,0,,10,,,69,127
14102,note_off,96,0,0,,7,,,43,127
14104,note_off,2,0,0,,10,,,69,127
14106,note_on,2,0,0,,7,,,67,127
14306,note_on,200,0,0,,7,,,55,127
14306,note_on,0,0,0,,0,,,60,127
14306,note_on,0,0,0,,4,,,76,127
14404,note_off,98,0,0,,4,,,76,127
14404,note_off,0,0,0,,0,,,60,127
14406,note_on,2,0,0,,2,,,62,127
14406,note_on,0,0,0,,5,,,77,127
14504,note_off,98,0,0,,5,,,77,127
14504,note_off,0,0,0,,2,,,62,127
14504,note_off,0,0,0,,7,,,55,127
14506,note_on,2,0,0,,7,,,55,127
14506,note_on,0,0,0,,0,,,60,127
14506,note_on,0,0,0,,4,,,76,127
14705,note_off,199,0,0,,7,,,67,127
14706,note_on,1,0,0,,7,,,67,127
14804,note_off,98,0,0,,7,,,67,127
14806,note_on,2,0,0,,10,,,69,127
14904,note_off,98,0,0,,10,,,69,127
14906,note_on,2,0,0,,7,,,67,127
15104,note_off,198,0,0,,7,,,67,127
15104,note_off,0,0,0,,0,,,60,127
15104,note_off,0,0,0,,7,,,55,127
15105,note_off,1,0,0,,4,,,76,127
15106,note_on,1,0,0,,7,,,55,127
15106,note_on,0,0,0,,4,,,64,127
15106,note_on,0,0,0,,0,,,72,127
15204,note_off,98,0,0,,0,,,72,127
15204,note_off,0,0,0,,4,,,64,127
15206,note_on,2,0,0,,5,,,65,127
15206,note_on,0,0,0,,2,,,74,127
15304,note_off,98,0,0,,2,,,74,127
15304,note_off,0,0,0,,5,,,65,127
15304,note_off,0,0,0,,7,,,55,127
15306,note_on,2,0,0,,7,,,55,127
15306,note_on,0,0,0,,4,,,64,127
15306,note_on,0,0,0,,0,,,72,127
15506,note_on,200,0,0,,7,,,67,127
15604,note_off,98,0,0,,7,,,67,127
15606,note_on,2,0,0,,10,,,69,127
15704,note_off,98,0,0,,10,,,69,127
15706,note_on,2,0,0,,7,,,67,127
15904,note_off,198,0,0,,7,,,67,127
15904,note_off,0,0,0,,4,,,64,127
15904,note_off,0,0,0,,7,,,55,127
15905,note_off,1,0,0,,0,,,72,127
15906,note_on,1,0,0,,7,,,55,127
15906,note_on,0,0,0,,0,,,60,127
15906,note_on,0,0,0,,4,,,76,127
16004,note_off,98,0,0,,4,,,76,127
16004,note_off,0,0,0,,0,,,60,127
16006,note_on,2,0,0,,2,,,62,127
16006,note_on,0,0,0,,5,,,77,127
16104,note_off,98,0,0,,5,,,77,127
16104,note_off,0,0,0,,2,,,62,127
16104,note_off,0,0,0,,7,,,55,127
16106,note_on,2,0,0,,7,,,55,127
16106,note_on,0,0,0,,0,,,60,127
16106,note_on,0,0,0,,4,,,76,127
16306,note_on,200,0,0,,7,,,67,127
16404,note_off,98,0,0,,7,,,67,127
16406,note_on,2,0,0,,10,,,69,127
16504,note_off,98,0,0,,10,,,69,127
16506,note_on,2,0,0,,7,,,67,127
16704,note_off,198,0,0,,7,,,67,127
16704,note_off,0,0,0,,0,,,60,127
16704,note_off,0,0,0,,7,,,55,127
16705,note_off,1,0,0,,4,,,76,127
16706,note_on,1,0,0,,7,,,55,127
16706,note_on,0,0,0,,4,,,64,127
16706,note_on,0,0,0,,0,,,72,127
16804,note_off,98,0,0,,0,,,72,127
16804,note_off,0,0,0,,4,,,64,127
16806,note_on,2,0,0,,5,,,65,127
16806,note_on,0,0,0,,2,,,74,127
16904,note_off,98,0,0,,2,,,74,127
16904,note_off,0,0,0,,5,,,65,127
16904,note_off,0,0,0,,7,,,55,127
16906,note_on,2,0,0,,4,,,64,127
16906,note_on,0,0,0,,7,,,55,127
16906,note_on,0,0,0,,0,,,72,127
17106,note_on,200,0,0,,7,,,79,127
17106,note_on,0,0,0,,4,,,76,127
17302,note_off,196,0,0,,0,,,72,127
17302,note_off,0,0,0,,7,,,55,127
17304,note_off,2,0,0,,4,,,76,127
17304,note_off,0,0,0,,7,,,79,127
17306,note_on,2,0,0,,4,,,76,127
17306,note_on,0,0,0,,7,,,79,127
17504,note_off,198,0,0,,4,,,64,127
17506,note_on,2,0,0,,4,,,52,127
17704,note_off,198,0,0,,4,,,52,127
17706,note_on,2,0,0,,5,,,53,127
17904,note_off,198,0,0,,5,,,53,127
17904,note_off,0,0,0,,7,,,79,127
17904,note_off,0,0,0,,4,,,76,127
17906,note_on,2,0,0,,2,,,50,127
17906,note_on,0,0,0,,2,,,74,127
17906,note_on,0,0,0,,5,,,77,127
18004,note_off,98,0,0,,5,,,77,127
18004,note_off,0,0,0,,2,,,74,127
18006,note_on,2,0,0,,0,,,72,127
18006,note_on,0,0,0,,4,,,76,127
18104,note_off,98,0,0,,4,,,76,127
18104,note_off,0,0,0,,0,,,72,127
18104,note_off,0,0,0,,2,,,50,127
18106,note_on,2,0,0,,7,,,55,127
18106,note_on,0,0,0,,0,,,72,127
18106,note_on,0,0,0,,4,,,76,127
18304,note_off,198,0,0,,4,,,76,127
18304,note_off,0,0,0,,0,,,72,127
18306,note_on,2,0,0,,7,,,43,127
18306,note_on,0,0,0,,2,,,74,127
18306,note_on,0,0,0,,7,,,67,127
18404,note_off,98,0,0,,2,,,74,127
18406,note_on,2,0,0,,0,,,72,127
18502,note_off,96,0,0,,7,,,55,127
18504,note_off,2,0,0,,0,,,72,127
18504,note_off,0,0,0,,7,,,67,127
18504,note_off,0,0,0,,7,,,43,127
18506,note_on,2,0,0,,0,,,48,127
18506,note_on,0,0,0,,4,,,64,127
18506,note_on,0,0,0,,0,,,72,127
18692,note_off,186,0,0,,0,,,72,127
18705,note_off,13,0,0,,4,,,64,127
18707,note_on,2,0,0,,7,,,67,127
18805,note_off,98,0,0,,7,,,67,127
18807,note_on,2,0,0,,10,,,69,127
18905,note_off,98,0,0,,10,,,69,127
18907,note_on,2,0,0,,7,,,67,127
19105,note_off,198,0,0,,0,,,48,127
19107,note_on,2,0,0,,0,,,60,127
19107,note_on,0,0,0,,7,,,55,127
19107,note_on,0,0,0,,4,,,76,127
19205,note_off,98,0,0,,4,,,76,127
19205,note_off,0,0,0,,0,,,60,127
19207,note_on,2,0,0,,2,,,62,127
19207,note_on,0,0,0,,5,,,77,127
19305,note_off,98,0,0,,5,,,77,127
19305,note_off,0,0,0,,2,,,62,127
19305,note_off,0,0,0,,7,,,55,127
19307,note_on,2,0,0,,0,,,60,127
19307,note_on,0,0,0,,7,,,55,127
19307,note_on,0,0,0,,4,,,76,127
19505,note_off,198,0,0,,4,,,76,127
19506,note_off,1,0,0,,7,,,67,127
19507,note_on,1,0,0,,7,,,67,127
19605,note_off,98,0,0,,7,,,67,127
19607,note_on,2,0,0,,10,,,69,127
19705,note_off,98,0,0,,10,,,69,127
19707,note_on,2,0,0,,7,,,67,127
19905,note_off,198,0,0,,7,,,55,127
19905,note_off,0,0,0,,0,,,60,127
19907,note_on,2,0,0,,7,,,55,127
19907,note_on,0,0,0,,4,,,64,127
19907,note_on,0,0,0,,0,,,72,127
20005,note_off,98,0,0,,0,,,72,127
20005,note_off,0,0,0,,4,,,64,127
20007,note_on,2,0,0,,5,,,65,127
20007,note_on,0,0,0,,2,,,74,127
20105,note_off,98,0,0,,2,,,74,127
20105,note_off,0,0,0,,5,,,65,127
20105,note_off,0,0,0,,7,,,55,127
20107,note_on,2,0,0,,7,,,55,127
20107,note_on,0,0,0,,4,,,64,127
20107,note_on,0,0,0,,0,,,72,127
20305,note_off,198,0,0,,0,,,72,127
20306,note_off,1,0,0,,7,,,67,127
20307,note_on,1,0,0,,7,,,67,127
20405,note_off,98,0,0,,7,,,67,127
20407,note_on,2,0,0,,10,,,69,127
20505,note_off,98,0,0,,10,,,69,127
20507,note_on,2,0,0,,7,,,67,127
20705,note_off,198,0,0,,4,,,64,127
20705,note_off,0,0,0,,7,,,55,127
20707,note_on,2,0,0,,0,,,60,127
20707,note_on,0,0,0,,7,,,55,127
20707,note_on,0,0,0,,4,,,76,127
20805,note_off,98,0,0,,4,,,76,127
20805,note_off,0,0,0,,0,,,60,127
20807,note_on,2,0,0,,2,,,62,127
20807,note_on,0,0,0,,5,,,77,127
20905,note_off,98,0,0,,5,,,77,127
20905,note_off,0,0,0,,2,,,62,127
20905,note_off,0,0,0,,7,,,55,127
20907,note_on,2,0,0,,7,,,55,127
20907,note_on,0,0,0,,0,,,60,127
20907,note_on,0,0,0,,4,,,76,127
21105,note_off,198,0,0,,4,,,76,127
21106,note_off,1,0,0,,7,,,67,127
21107,note_on,1,0,0,,7,,,67,127
21205,note_off,98,0,0,,7,,,67,127
21207,note_on,2,0,0,,10,,,69,127
21305,note_off,98,0,0,,10,,,69,127
21307,note_on,2,0,0,,7,,,67,127
21505,note_off,198,0,0,,0,,,60,127
21505,note_off,0,0,0,,7,,,55,127
21507,note_on,2,0,0,,4,,,64,127
21507,note_on,0,0,0,,7,,,55,127
21507,note_on,0,0,0,,0,,,72,127
21605,note_off,98,0,0,,0,,,72,127
21605,note_off,0,0,0,,4,,,64,127
21607,note_on,2,0,0,,5,,,65,127
21607,note_on,0,0,0,,2,,,74,127
21705,note_off,98,0,0,,2,,,74,127
21705,note_off,0,0,0,,5,,,65,127
21705,note_off,0,0,0,,7,,,55,127
21707,note_on,2,0,0,,7,,,55,127
21707,note_on,0,0,0,,4,,,64,127
21707,note_on,0,0,0,,0,,,72,127
21905,note_off,198,0,0,,0,,,72,127
21906,note_off,1,0,0,,7,,,67,127
21907,note_on,1,0,0,,7,,,79,127
21907,note_on,0,0,0,,4,,,76,127
22103,note_off,196,0,0,,7,,,55,127
22105,note_off,2,0,0,,4,,,76,127
22105,note_off,0,0,0,,7,,,79,127
22107,note_on,2,0,0,,7,,,79,127
22107,note_on,0,0,0,,4,,,76,127
22305,note_off,198,0,0,,4,,,64,127
22307,note_on,2,0,0,,4,,,52,127
22505,note_off,198,0,0,,4,,,52,127
22507,note_on,2,0,0,,5,,,53,127
22705,note_off,198,0,0,,5,,,53,127
22705,note_off,0,0,0,,4,,,76,127
22705,note_off,0,0,0,,7,,,79,127
22707,note_on,2,0,0,,2,,,50,127
22707,note_on,0,0,0,,5,,,77,127
22707,note_on,0,0,0,,2,,,74,127
22805,note_off,98,0,0,,2,,,74,127
22805,note_off,0,0,0,,5,,,77,127
22807,note_on,2,0,0,,4,,,76,127
22807,note_on,0,0,0,,0,,,72,127
22905,note_off,98,0,0,,0,,,72,127
22905,note_off,0,0,0,,4,,,76,127
22905,note_off,0,0,0,,2,,,50,127
22907,note_on,2,0,0,,7,,,55,127
22907,note_on,0,0,0,,4,,,76,127
22907,note_on,0,0,0,,0,,,72,127
23105,note_off,198,0,0,,0,,,72,127
23105,note_off,0,0,0,,4,,,76,127
23105,note_off,0,0,0,,7,,,55,127
23107,note_on,2,0,0,,7,,,43,127
23107,note_on,0,0,0,,7,,,67,127
23107,note_on,0,0,0,,2,,,74,127
23205,note_off,98,0,0,,2,,,74,127
23207,note_on,2,0,0,,0,,,72,127
23305,note_off,98,0,0,,0,,,72,127
23305,note_off,0,0,0,,7,,,67,127
23305,note_off,0,0,0,,7,,,43,127
23307,note_on,2,0,0,,0,,,36,127
23307,note_on,0,0,0,,0,,,72,127
23307,note_on,0,0,0,,4,,,64,127
23505,note_off,198,0,0,,4,,,64,127
23505,note_off,0,0,0,,0,,,72,127
23505,note_off,0,0,0,,0,,,36,127
23507,note_on,2,0,0,,7,,,43,127
23507,note_on,0,0,0,,7,,,67,127
23507,note_on,0,0,0,,2,,,74,127
23705,note_off,198,0,0,,2,,,74,127
23705,note_off,0,0,0,,7,,,67,127
23705,note_off,0,0,0,,7,,,43,127
23707,note_on,2,0,0,,0,,,48,127
23707,note_on,0,0,0,,4,,,76,127
23707,note_on,0,0,0,,0,,,72,127
23905,note_off,198,0,0,,0,,,72,127
23905,note_off,0,0,0,,4,,,76,127
23905,note_off,0,0,0,,0,,,48,127
23907,note_on,2,0,0,,7,,,43,127
23907,note_on,0,0,0,,2,,,74,127
23907,note_on,0,0,0,,7,,,67,127
24105,note_off,198,0,0,,7,,,67,127
24105,note_off,0,0,0,,2,,,74,127
24105,note_off,0,0,0,,7,,,43,127
24107,note_on,2,0,0,,0,,,36,127
24107,note_on,0,0,0,,4,,,64,127
24107,note_on,0,0,0,,0,,,72,127
24305,note_off,198,0,0,,0,,,72,127
24305,note_off,0,0,0,,4,,,64,127
24305,note_off,0,0,0,,0,,,36,127
24307,note_on,2,0,0,,7,,,43,127
24307,note_on,0,0,0,,7,,,67,127
24307,note_on,0,0,0,,2,,,74,127
24505,note_off,198,0,0,,2,,,74,127
24505,note_off,0,0,0,,7,,,67,127
24505,note_off,0,0,0,,7,,,43,127
24507,note_on,2,0,0,,0,,,48,127
24507,note_on,0,0,0,,0,,,72,127
24507,note_on,0,0,0,,4,,,76,127
24705,note_off,198,0,0,,4,,,76,127
24705,note_off,0,0,0,,0,,,72,127
24707,note_on,2,0,0,,7,,,43,127
24707,note_on,0,0,0,,7,,,67,127
24707,note_on,0,0,0,,2,,,74,127
24903,note_off,196,0,0,,0,,,48,127
24905,note_off,2,0,0,,2,,,74,127
24905,note_off,0,0,0,,7,,,67,127
24907,note_on,2,0,0,,0,,,36,127
24907,note_on,0,0,0,,0,,,48,127
24907,note_on,0,0,0,,4,,,64,127
24907,note_on,0,0,0,,0,,,72,127
25702,note_off,795,0,0,,7,,,43,127
25706,note_off,4,0,0,,0,,,48,127
25706,note_off,0,0,0,,0,,,36,127
25707,note_off,1,0,0,,4,,,64,127
25708,note_on,1,0,0,,0,,,36,127
25906,note_off,198,0,0,,0,,,36,127
25908,note_on,2,0,0,,0,,,60,127
26006,note_off,98,0,0,,0,,,60,127
26008,note_on,2,0,0,,2,,,62,127
26106,note_off,98,0,0,,2,,,62,127
26108,note_on,2,0,0,,4,,,64,127
26306,note_off,198,0,0,,4,,,64,127
26308,note_on,2,0,0,,2,,,62,127
26502,note_off,194,0,0,,0,,,72,127
26506,note_off,4,0,0,,2,,,62,127
26508,note_on,2,0,0,,0,,,60,127
26706,note_off,198,0,0,,0,,,60,127
26708,note_on,2,0,0,,12,,,59,127
26708,note_on,0,0,0,,0,,,72,127
26806,note_off,98,0,0,,0,,,72,127
26808,note_on,2,0,0,,2,,,74,127
26906,note_off,98,0,0,,2,,,74,127
26906,note_off,0,0,0,,12,,,59,127
26908,note_on,2,0,0,,10,,,57,127
26908,note_on,0,0,0,,4,,,76,127
27106,note_off,198,0,0,,4,,,76,127
27106,note_off,0,0,0,,10,,,57,127
27108,note_on,2,0,0,,8,,,56,127
27108,note_on,0,0,0,,12,,,71,127
27306,note_off,198,0,0,,12,,,71,127
27306,note_off,0,0,0,,8,,,56,127
27308,note_on,2,0,0,,10,,,57,127
27308,note_on,0,0,0,,0,,,72,127
27506,note_off,198,0,0,,0,,,72,127
27506,note_off,0,0,0,,10,,,57,127
27508,note_on,2,0,0,,12,,,59,127
27508,note_on,0,0,0,,8,,,68,127
27706,note_off,198,0,0,,8,,,68,127
27706,note_off,0,0,0,,12,,,59,127
27708,note_on,2,0,0,,0,,,60,127
27708,note_on,0,0,0,,10,,,69,127
27906,note_off,198,0,0,,10,,,69,127
27908,note_on,2,0,0,,0,,,48,127
27908,note_on,0,0,0,,4,,,64,127
28104,note_off,196,0,0,,0,,,60,127
28106,note_off,2,0,0,,4,,,64,127
28106,note_off,0,0,0,,0,,,48,127
28108,note_on,2,0,0,,2,,,50,127
28108,note_on,0,0,0,,5,,,65,127
28306,note_off,198,0,0,,5,,,65,127
28306,note_off,0,0,0,,2,,,50,127
28308,note_on,2,0,0,,4,,,52,127
28308,note_on,0,0,0,,0,,,60,127
28506,note_off,198,0,0,,0,,,60,127
28506,note_off,0,0,0,,4,,,52,127
28508,note_on,2,0,0,,5,,,53,127
28508,note_on,0,0,0,,4,,,64,127
28573,note_off,65,0,0,,4,,,64,127
28575,note_on,2,0,0,,2,,,62,127
28640,note_off,65,0,0,,2,,,62,127
28642,note_on,2,0,0,,4,,,64,127
28707,note_off,65,0,0,,4,,,64,127
28709,note_on,2,0,0,,2,,,62,127
28774,note_off,65,0,0,,2,,,62,127
28776,note_on,2,0,0,,0,,,60,127
28841,note_off,65,0,0,,0,,,60,127
28843,note_on,2,0,0,,2,,,62,127
28908,note_off,65,0,0,,2,,,62,127
28908,note_off,0,0,0,,5,,,53,127
28910,note_on,2,0,0,,4,,,52,127
28910,note_on,0,0,0,,4,,,64,127
29108,note_off,198,0,0,,4,,,64,127
29108,note_off,0,0,0,,4,,,52,127
29110,note_on,2,0,0,,4,,,64,127
29308,note_off,198,0,0,,4,,,64,127
29310,note_on,2,0,0,,2,,,62,127
29310,note_on,0,0,0,,5,,,65,127
29508,note_off,198,0,0,,5,,,65,127
29508,note_off,0,0,0,,2,,,62,127
29510,note_on,2,0,0,,0,,,60,127
29510,note_on,0,0,0,,6,,,66,127
29708,note_off,198,0,0,,6,,,66,127
29708,note_off,0,0,0,,0,,,60,127
29710,note_on,2,0,0,,12,,,59,127
29710,note_on,0,0,0,,8,,,68,127
29908,note_off,198,0,0,,8,,,68,127
29908,note_off,0,0,0,,12,,,59,127
29910,note_on,2,0,0,,10,,,57,127
29910,note_on,0,0,0,,10,,,69,127
30108,note_off,198,0,0,,10,,,69,127
30108,note_off,0,0,0,,10,,,57,127
30110,note_on,2,0,0,,8,,,56,127
30110,note_on,0,0,0,,12,,,71,127
30308,note_off,198,0,0,,12,,,71,127
30308,note_off,0,0,0,,8,,,56,127
30310,note_on,2,0,0,,6,,,54,127
30310,note_on,0,0,0,,0,,,72,127
30508,note_off,198,0,0,,0,,,72,127
30508,note_off,0,0,0,,6,,,54,127
30510,note_on,2,0,0,,4,,,52,127
30510,note_on,0,0,0,,1,,,73,127
30708,note_off,198,0,0,,1,,,73,127
30710,note_on,2,0,0,,2,,,74,127
30908,note_off,198,0,0,,2,,,74,127
30910,note_on,2,0,0,,4,,,76,127
31073,note_off,163,0,0,,4,,,52,127
31108,note_off,35,0,0,,4,,,76,127
31110,note_on,2,0,0,,8,,,56,127
31110,note_on,0,0,0,,2,,,74,127
31308,note_off,198,0,0,,2,,,74,127
31308,note_off,0,0,0,,8,,,56,127
31310,note_on,2,0,0,,10,,,57,127
31310,note_on,0,0,0,,2,,,74,127
31408,note_off,98,0,0,,2,,,74,127
31410,note_on,2,0,0,,0,,,72,127
31508,note_off,98,0,0,,0,,,72,127
31508,note_off,0,0,0,,10,,,57,127
31510,note_on,2,0,0,,5,,,53,127
31510,note_on,0,0,0,,12,,,71,127
31608,note_off,98,0,0,,12,,,71,127
31610,note_on,2,0,0,,10,,,69,127
31708,note_off,98,0,0,,10,,,69,127
31708,note_off,0,0,0,,5,,,53,127
31710,note_on,2,0,0,,2,,,50,127
31710,note_on,0,0,0,,0,,,72,127
31808,note_off,98,0,0,,0,,,72,127
31810,note_on,2,0,0,,12,,,71,127
31908,note_off,98,0,0,,12,,,71,127
31908,note_off,0,0,0,,2,,,50,127
31910,note_on,2,0,0,,4,,,52,127
31910,note_on,0,0,0,,10,,,69,127
32008,note_off,98,0,0,,10,,,69,127
32010,note_on,2,0,0,,8,,,68,127
32108,note_off,98,0,0,,8,,,68,127
32108,note_off,0,0,0,,4,,,52,127
32110,note_on,2,0,0,,10,,,57,127
32110,note_on,0,0,0,,10,,,69,127
32308,note_off,198,0,0,,10,,,69,127
32308,note_off,0,0,0,,10,,,57,127
32310,note_on,2,0,0,,10,,,69,127
32508,note_off,198,0,0,,10,,,69,127
32510,note_on,2,0,0,,7,,,67,127
32510,note_on,0,0,0,,11,,,70,127
32708,note_off,198,0,0,,11,,,70,127
32708,note_off,0,0,0,,7,,,67,127
32710,note_on,2,0,0,,5,,,65,127
32710,note_on,0,0,0,,12,,,71,127
32908,note_off,198,0,0,,12,,,71,127
32908,note_off,0,0,0,,5,,,65,127
32910,note_on,2,0,0,,4,,,64,127
32910,note_on,0,0,0,,1,,,73,127
33108,note_off,198,0,0,,1,,,73,127
33108,note_off,0,0,0,,4,,,64,127
33110,note_on,2,0,0,,2,,,62,127
33110,note_on,0,0,0,,2,,,74,127
33308,note_off,198,0,0,,2,,,74,127
33308,note_off,0,0,0,,2,,,62,127
33310,note_on,2,0,0,,1,,,61,127
33310,note_on,0,0,0,,4,,,76,127
33508,note_off,198,0,0,,4,,,76,127
33508,note_off,0,0,0,,1,,,61,127
33510,note_on,2,0,0,,12,,,59,127
33510,note_on,0,0,0,,5,,,77,127
33708,note_off,198,0,0,,5,,,77,127
33708,note_off,0,0,0,,12,,,59,127
33710,note_on,2,0,0,,10,,,57,127
33710,note_on,0,0,0,,6,,,78,127
33908,note_off,198,0,0,,6,,,78,127
33910,note_on,2,0,0,,7,,,79,127
34108,note_off,198,0,0,,7,,,79,127
34110,note_on,2,0,0,,10,,,81,127
34262,note_off,152,0,0,,10,,,57,127
34308,note_off,46,0,0,,10,,,81,127
34310,note_on,2,0,0,,1,,,61,127
34310,note_on,0,0,0,,7,,,79,127
34508,note_off,198,0,0,,7,,,79,127
34508,note_off,0,0,0,,1,,,61,127
34510,note_on,2,0,0,,2,,,62,127
34510,note_on,0,0,0,,7,,,79,127
34608,note_off,98,0,0,,7,,,79,127
34610,note_on,2,0,0,,5,,,77,127
34708,note_off,98,0,0,,5,,,77,127
34710,note_on,2,0,0,,4,,,76,127
34808,note_off,98,0,0,,4,,,76,127
34810,note_on,2,0,0,,2,,,74,127
34908,note_off,98,0,0,,2,,,74,127
34908,note_off,0,0,0,,2,,,62,127
34910,note_on,2,0,0,,11,,,58,127
34910,note_on,0,0,0,,1,,,73,127
35108,note_off,198,0,0,,1,,,73,127
35110,note_on,2,0,0,,4,,,76,127
35158,note_off,48,0,0,,4,,,76,127
35160,note_on,2,0,0,,2,,,74,127
35208,note_off,48,0,0,,2,,,74,127
35210,note_on,2,0,0,,1,,,73,127
35258,note_off,48,0,0,,1,,,73,127
35260,note_on,2,0,0,,2,,,74,127
35308,note_off,48,0,0,,2,,,74,127
35308,note_off,0,0,0,,11,,,58,127
35310,note_on,2,0,0,,10,,,57,127
35310,note_on,0,0,0,,4,,,76,127
35508,note_off,198,0,0,,4,,,76,127
35510,note_on,2,0,0,,10,,,69,127
35708,note_off,198,0,0,,10,,,69,127
35710,note_on,2,0,0,,10,,,81,127
35831,note_off,121,0,0,,10,,,57,127
35908,note_off,77,0,0,,10,,,81,127
35910,note_on,2,0,0,,1,,,61,127
35910,note_on,0,0,0,,7,,,79,127
36108,note_off,198,0,0,,7,,,79,127
36108,note_off,0,0,0,,1,,,61,127
36110,note_on,2,0,0,,2,,,62,127
36110,note_on,0,0,0,,7,,,79,127
36208,note_off,98,0,0,,7,,,79,127
36210,note_on,2,0,0,,5,,,77,127
36308,note_off,98,0,0,,5,,,77,127
36310,note_on,2,0,0,,4,,,76,127
36408,note_off,98,0,0,,4,,,76,127
36410,note_on,2,0,0,,2,,,74,127
36508,note_off,98,0,0,,2,,,74,127
36508,note_off,0,0,0,,2,,,62,127
36510,note_on,2,0,0,,11,,,58,127
36510,note_on,0,0,0,,1,,,73,127
36708,note_off,198,0,0,,1,,,73,127
36710,note_on,2,0,0,,4,,,76,127
36758,note_off,48,0,0,,4,,,76,127
36760,note_on,2,0,0,,2,,,74,127
36808,note_off,48,0,0,,2,,,74,127
36810,note_on,2,0,0,,1,,,73,127
36858,note_off,48,0,0,,1,,,73,127
36860,note_on,2,0,0,,2,,,74,127
36908,note_off,48,0,0,,2,,,74,127
36908,note_off,0,0,0,,11,,,58,127
36910,note_on,2,0,0,,10,,,57,127
36910,note_on,0,0,0,,4,,,76,127
37110,note_on,200,0,0,,10,,,69,127
37306,note_off,196,0,0,,4,,,76,127
37308,note_off,2,0,0,,10,,,69,127
37310,note_on,2,0,0,,10,,,81,127
37508,note_off,198,0,0,,10,,,81,127
37509,note_off,1,0,0,,10,,,57,127
37510,note_on,1,0,0,,7,,,79,127
37708,note_off,198,0,0,,7,,,79,127
37710,note_on,2,0,0,,2,,,62,127
37710,note_on,0,0,0,,7,,,79,127
37808,note_off,98,0,0,,7,,,79,127
37810,note_on,2,0,0,,5,,,77,127
37908,note_off,98,0,0,,5,,,77,127
37910,note_on,2,0,0,,4,,,76,127
38008,note_off,98,0,0,,4,,,76,127
38010,note_on,2,0,0,,2,,,74,127
38108,note_off,98,0,0,,2,,,74,127
38108,note_off,0,0,0,,2,,,62,127
38110,note_on,2,0,0,,4,,,64,127
38110,note_on,0,0,0,,0,,,72,127
38308,note_off,198,0,0,,0,,,72,127
38310,note_on,2,0,0,,0,,,72,127
38358,note_off,48,0,0,,0,,,72,127
38360,note_on,2,0,0,,11,,,70,127
38408,note_off,48,0,0,,11,,,70,127
38410,note_on,2,0,0,,10,,,69,127
38458,note_off,48,0,0,,10,,,69,127
38460,note_on,2,0,0,,11,,,70,127
38508,note_off,48,0,0,,11,,,70,127
38508,note_off,0,0,0,,4,,,64,127
38510,note_on,2,0,0,,5,,,65,127
38510,note_on,0,0,0,,10,,,69,127
38708,note_off,198,0,0,,10,,,69,127
38708,note_off,0,0,0,,5,,,65,127
38710,note_on,2,0,0,,4,,,64,127
38710,note_on,0,0,0,,10,,,69,127
38908,note_off,198,0,0,,10,,,69,127
38908,note_off,0,0,0,,4,,,64,127
38910,note_on,2,0,0,,2,,,62,127
38910,note_on,0,0,0,,11,,,70,127
39108,note_off,198,0,0,,11,,,70,127
39108,note_off,0,0,0,,2,,,62,127
39110,note_on,2,0,0,,0,,,60,127
39110,note_on,0,0,0,,0,,,72,127
39308,note_off,198,0,0,,0,,,72,127
39308,note_off,0,0,0,,0,,,60,127
39310,note_on,2,0,0,,11,,,58,127
39310,note_on,0,0,0,,1,,,73,127
39508,note_off,198,0,0,,1,,,73,127
39508,note_off,0,0,0,,11,,,58,127
39510,note_on,2,0,0,,10,,,57,127
39510,note_on,0,0,0,,2,,,74,127
39708,note_off,198,0,0,,2,,,74,127
39708,note_off,0,0,0,,10,,,57,127
39710,note_on,2,0,0,,7,,,55,127
39710,note_on,0,0,0,,4,,,76,127
39908,note_off,198,0,0,,4,,,76,127
39908,note_off,0,0,0,,7,,,55,127
39910,note_on,2,0,0,,5,,,53,127
39910,note_on,0,0,0,,5,,,77,127
40108,note_off,198,0,0,,5,,,77,127
40108,note_off,0,0,0,,5,,,53,127
40110,note_on,2,0,0,,4,,,52,127
40110,note_on,0,0,0,,6,,,78,127
40308,note_off,198,0,0,,6,,,78,127
40308,note_off,0,0,0,,4,,,52,127
40310,note_on,2,0,0,,2,,,50,127
40310,note_on,0,0,0,,7,,,79,127
40508,note_off,198,0,0,,7,,,79,127
40508,note_off,0,0,0,,2,,,50,127
40510,note_on,2,0,0,,0,,,48,127
40510,note_on,0,0,0,,10,,,81,127
40708,note_off,198,0,0,,10,,,81,127
40708,note_off,0,0,0,,0,,,48,127
40710,note_on,2,0,0,,11,,,46,127
40710,note_on,0,0,0,,11,,,82,127
40908,note_off,198,0,0,,11,,,82,127
40908,note_off,0,0,0,,11,,,46,127
40910,note_on,2,0,0,,10,,,45,127
40910,note_on,0,0,0,,0,,,84,127
41108,note_off,198,0,0,,0,,,84,127
41110,note_on,2,0,0,,11,,,82,127
41208,note_off,98,0,0,,11,,,82,127
41210,note_on,2,0,0,,10,,,81,127
41308,note_off,98,0,0,,10,,,81,127
41308,note_off,0,0,0,,10,,,45,127
41310,note_on,2,0,0,,11,,,46,127
41310,note_on,0,0,0,,7,,,79,127
41508,note_off,198,0,0,,7,,,79,127
41510,note_on,2,0,0,,5,,,77,127
41708,note_off,198,0,0,,5,,,77,127
41708,note_off,0,0,0,,11,,,46,127
41710,note_on,2,0,0,,0,,,48,127
41710,note_on,0,0,0,,4,,,76,127
41908,note_off,198,0,0,,4,,,76,127
41910,note_on,2,0,0,,0,,,72,127
42008,note_off,98,0,0,,0,,,72,127
42010,note_on,2,0,0,,2,,,74,127
42108,note_off,98,0,0,,2,,,74,127
42110,note_on,2,0,0,,0,,,72,127
42210,note_off,100,0,0,,0,,,48,127
42308,note_off,98,0,0,,0,,,72,127
42310,note_on,2,0,0,,4,,,64,127
42310,note_on,0,0,0,,0,,,60,127
42310,note_on,0,0,0,,7,,,79,127
42408,note_off,98,0,0,,7,,,79,127
42408,note_off,0,0,0,,4,,,64,127
42410,note_on,2,0,0,,5,,,65,127
42410,note_on,0,0,0,,10,,,81,127
42508,note_off,98,0,0,,10,,,81,127
42508,note_off,0,0,0,,5,,,65,127
42508,note_off,0,0,0,,0,,,60,127
42510,note_on,2,0,0,,4,,,64,127
42510,note_on,0,0,0,,0,,,60,127
42510,note_on,0,0,0,,7,,,79,127
42708,note_off,198,0,0,,7,,,79,127
42710,note_on,2,0,0,,0,,,72,127
42808,note_off,98,0,0,,0,,,72,127
42810,note_on,2,0,0,,2,,,74,127
42908,note_off,98,0,0,,2,,,74,127
42910,note_on,2,0,0,,0,,,72,127
43108,note_off,198,0,0,,0,,,72,127
43108,note_off,0,0,0,,0,,,60,127
43108,note_off,0,0,0,,4,,,64,127
43110,note_on,2,0,0,,7,,,67,127
43110,note_on,0,0,0,,0,,,60,127
43110,note_on,0,0,0,,4,,,76,127
43208,note_off,98,0,0,,4,,,76,127
43208,note_off,0,0,0,,7,,,67,127
43210,note_on,2,0,0,,10,,,69,127
43210,note_on,0,0,0,,5,,,77,127
43308,note_off,98,0,0,,5,,,77,127
43308,note_off,0,0,0,,10,,,69,127
43308,note_off,0,0,0,,0,,,60,127
43310,note_on,2,0,0,,0,,,60,127
43310,note_on,0,0,0,,7,,,67,127
43310,note_on,0,0,0,,4,,,76,127
43508,note_off,198,0,0,,4,,,76,127
43510,note_on,2,0,0,,0,,,72,127
43608,note_off,98,0,0,,0,,,72,127
43610,note_on,2,0,0,,2,,,74,127
43708,note_off,98,0,0,,2,,,74,127
43710,note_on,2,0,0,,0,,,72,127
43908,note_off,198,0,0,,0,,,72,127
43908,note_off,0,0,0,,7,,,67,127
43908,note_off,0,0,0,,0,,,60,127
43910,note_on,2,0,0,,5,,,65,127
43910,note_on,0,0,0,,0,,,60,127
43910,note_on,0,0,0,,10,,,81,127
44008,note_off,98,0,0,,10,,,81,127
44008,note_off,0,0,0,,5,,,65,127
44010,note_on,2,0,0,,7,,,67,127
44010,note_on,0,0,0,,11,,,82,127
44108,note_off,98,0,0,,11,,,82,127
44108,note_off,0,0,0,,7,,,67,127
44108,note_off,0,0,0,,0,,,60,127
44110,note_on,2,0,0,,5,,,65,127
44110,note_on,0,0,0,,0,,,60,127
44110,note_on,0,0,0,,10,,,81,127
44308,note_off,198,0,0,,10,,,81,127
44310,note_on,2,0,0,,0,,,72,127
44408,note_off,98,0,0,,0,,,72,127
44410,note_on,2,0,0,,2,,,74,127
44508,note_off,98,0,0,,2,,,74,127
44510,note_on,2,0,0,,0,,,72,127
44708,note_off,198,0,0,,0,,,72,127
44708,note_off,0,0,0,,0,,,60,127
44708,note_off,0,0,0,,5,,,65,127
44710,note_on,2,0,0,,10,,,69,127
44710,note_on,0,0,0,,0,,,60,127
44710,note_on,0,0,0,,5,,,77,127
44808,note_off,98,0,0,,5,,,77,127
44808,note_off,0,0,0,,10,,,69,127
44810,note_on,2,0,0,,11,,,70,127
44810,note_on,0,0,0,,7,,,79,127
44908,note_off,98,0,0,,7,,,79,127
44908,note_off,0,0,0,,11,,,70,127
44908,note_off,0,0,0,,0,,,60,127
44910,note_on,2,0,0,,10,,,69,127
44910,note_on,0,0,0,,0,,,60,127
44910,note_on,0,0,0,,5,,,77,127
45108,note_off,198,0,0,,5,,,77,127
45110,note_on,2,0,0,,0,,,72,127
45208,note_off,98,0,0,,0,,,72,127
45210,note_on,2,0,0,,2,,,74,127
45308,note_off,98,0,0,,2,,,74,127
45310,note_on,2,0,0,,0,,,72,127
45508,note_off,198,0,0,,0,,,72,127
45508,note_off,0,0,0,,0,,,60,127
45508,note_off,0,0,0,,10,,,69,127
45510,note_on,2,0,0,,0,,,60,127
45510,note_on,0,0,0,,7,,,67,127
45510,note_on,0,0,0,,11,,,82,127
45608,note_off,98,0,0,,11,,,82,127
45608,note_off,0,0,0,,7,,,67,127
45610,note_on,2,0,0,,10,,,69,127
45610,note_on,0,0,0,,0,,,84,127
45708,note_off,98,0,0,,0,,,84,127
45708,note_off,0,0,0,,10,,,69,127
45708,note_off,0,0,0,,0,,,60,127
45710,note_on,2,0,0,,0,,,60,127
45710,note_on,0,0,0,,7,,,67,127
45710,note_on,0,0,0,,11,,,82,127
45908,note_off,198,0,0,,11,,,82,127
45908,note_off,0,0,0,,7,,,67,127
45910,note_on,2,0,0,,5,,,65,127
45910,note_on,0,0,0,,10,,,81,127
46108,note_off,198,0,0,,10,,,81,127
46108,note_off,0,0,0,,5,,,65,127
46110,note_on,2,0,0,,4,,,64,127
46110,note_on,0,0,0,,7,,,79,127
46308,note_off,198,0,0,,7,,,79,127
46308,note_off,0,0,0,,4,,,64,127
46309,note_off,1,0,0,,0,,,60,127
46310,note_on,1,0,0,,2,,,62,127
46310,note_on,0,0,0,,5,,,77,127
46310,note_on,0,0,0,,12,,,83,127
46508,note_off,198,0,0,,12,,,83,127
46508,note_off,0,0,0,,5,,,77,127
46508,note_off,0,0,0,,2,,,62,127
46510,note_on,2,0,0,,0,,,60,127
46510,note_on,0,0,0,,4,,,76,127
46510,note_on,0,0,0,,0,,,84,127
46708,note_off,198,0,0,,4,,,76,127
46708,note_off,0,0,0,,0,,,60,127
46710,note_on,2,0,0,,11,,,58,127
46710,note_on,0,0,0,,2,,,74,127
46908,note_off,198,0,0,,2,,,74,127
46908,note_off,0,0,0,,11,,,58,127
46910,note_on,2,0,0,,10,,,57,127
46910,note_on,0,0,0,,0,,,72,127
47108,note_off,198,0,0,,10,,,57,127
47109,note_off,1,0,0,,0,,,84,127
47110,note_on,1,0,0,,7,,,55,127
47110,note_on,0,0,0,,11,,,82,127
47139,note_off,29,0,0,,0,,,72,127
47308,note_off,169,0,0,,11,,,82,127
47308,note_off,0,0,0,,7,,,55,127
47310,note_on,2,0,0,,5,,,53,127
47310,note_on,0,0,0,,10,,,81,127
47508,note_off,198,0,0,,10,,,81,127
47508,note_off,0,0,0,,5,,,53,127
47510,note_on,2,0,0,,11,,,58,127
47510,note_on,0,0,0,,11,,,82,127
47608,note_off,98,0,0,,11,,,82,127
47610,note_on,2,0,0,,7,,,79,127
47708,note_off,98,0,0,,7,,,79,127
47708,note_off,0,0,0,,11,,,58,127
47710,note_on,2,0,0,,0,,,60,127
47710,note_on,0,0,0,,10,,,81,127
47710,note_on,0,0,0,,5,,,77,127
47908,note_off,198,0,0,,5,,,77,127
47908,note_off,0,0,0,,10,,,81,127
47910,note_on,2,0,0,,0,,,48,127
47910,note_on,0,0,0,,4,,,76,127
47910,note_on,0,0,0,,7,,,79,127
48010,note_off,100,0,0,,0,,,60,127
48108,note_off,98,0,0,,7,,,79,127
48108,note_off,0,0,0,,4,,,76,127
48110,note_on,2,0,0,,5,,,41,127
48110,note_on,0,0,0,,5,,,53,127
48110,note_on,0,0,0,,5,,,77,127
48112,note_off,2,0,0,,0,,,48,127
48308,note_off,196,0,0,,5,,,77,127
48310,note_on,2,0,0,,0,,,72,127
48408,note_off,98,0,0,,0,,,72,127
48410,note_on,2,0,0,,2,,,74,127
48506,note_off,96,0,0,,5,,,41,127
48508,note_off,2,0,0,,2,,,74,127
48510,note_on,2,0,0,,0,,,72,127
48548,note_off,38,0,0,,5,,,53,127
48711,note_on,163,0,0,,4,,,64,127
48711,note_on,0,0,0,,0,,,60,127
48711,note_on,0,0,0,,7,,,79,127
48809,note_off,98,0,0,,7,,,79,127
48809,note_off,0,0,0,,4,,,64,127
48811,note_on,2,0,0,,5,,,65,127
48811,note_on,0,0,0,,10,,,81,127
48909,note_off,98,0,0,,10,,,81,127
48909,note_off,0,0,0,,5,,,65,127
48909,note_off,0,0,0,,0,,,60,127
48911,note_on,2,0,0,,4,,,64,127
48911,note_on,0,0,0,,0,,,60,127
48911,note_on,0,0,0,,7,,,79,127
49110,note_off,199,0,0,,0,,,72,127
49111,note_on,1,0,0,,0,,,72,127
49209,note_off,98,0,0,,0,,,72,127
49211,note_on,2,0,0,,2,,,74,127
49309,note_off,98,0,0,,2,,,74,127
49311,note_on,2,0,0,,0,,,72,127
49509,note_off,198,0,0,,0,,,60,127
49509,note_off,0,0,0,,4,,,64,127
49510,note_off,1,0,0,,7,,,79,127
49511,note_on,1,0,0,,0,,,60,127
49511,note_on,0,0,0,,7,,,67,127
49511,note_on,0,0,0,,4,,,76,127
49609,note_off,98,0,0,,4,,,76,127
49609,note_off,0,0,0,,7,,,67,127
49611,note_on,2,0,0,,10,,,69,127
49611,note_on,0,0,0,,5,,,77,127
49709,note_off,98,0,0,,5,,,77,127
49709,note_off,0,0,0,,10,,,69,127
49709,note_off,0,0,0,,0,,,60,127
49711,note_on,2,0,0,,0,,,60,127
49711,note_on,0,0,0,,7,,,67,127
49711,note_on,0,0,0,,4,,,76,127
49910,note_off,199,0,0,,0,,,72,127
49911,note_on,1,0,0,,0,,,72,127
50009,note_off,98,0,0,,0,,,72,127
50011,note_on,2,0,0,,2,,,74,127
50109,note_off,98,0,0,,2,,,74,127
50111,note_on,2,0,0,,0,,,72,127
50309,note_off,198,0,0,,7,,,67,127
50309,note_off,0,0,0,,0,,,60,127
50310,note_off,1,0,0,,4,,,76,127
50311,note_on,1,0,0,,0,,,60,127
50311,note_on,0,0,0,,5,,,65,127
50311,note_on,0,0,0,,10,,,81,127
50409,note_off,98,0,0,,10,,,81,127
50409,note_off,0,0,0,,5,,,65,127
50411,note_on,2,0,0,,7,,,67,127
50411,note_on,0,0,0,,11,,,82,127
50509,note_off,98,0,0,,11,,,82,127
50509,note_off,0,0,0,,7,,,67,127
50509,note_off,0,0,0,,0,,,60,127
50511,note_on,2,0,0,,0,,,60,127
50511,note_on,0,0,0,,5,,,65,127
50511,note_on,0,0,0,,10,,,81,127
50710,note_off,199,0,0,,0,,,72,127
50711,note_on,1,0,0,,0,,,72,127
50809,note_off,98,0,0,,0,,,72,127
50811,note_on,2,0,0,,2,,,74,127
50909,note_off,98,0,0,,2,,,74,127
50911,note_on,2,0,0,,0,,,72,127
51109,note_off,198,0,0,,5,,,65,127
51109,note_off,0,0,0,,0,,,60,127
51110,note_off,1,0,0,,10,,,81,127
51111,note_on,1,0,0,,0,,,60,127
51111,note_on,0,0,0,,10,,,69,127
51111,note_on,0,0,0,,5,,,77,127
51209,note_off,98,0,0,,5,,,77,127
51209,note_off,0,0,0,,10,,,69,127
51211,note_on,2,0,0,,11,,,70,127
51211,note_on,0,0,0,,7,,,79,127
51309,note_off,98,0,0,,7,,,79,127
51309,note_off,0,0,0,,11,,,70,127
51309,note_off,0,0,0,,0,,,60,127
51311,note_on,2,0,0,,0,,,60,127
51311,note_on,0,0,0,,10,,,69,127
51311,note_on,0,0,0,,5,,,77,127
51510,note_off,199,0,0,,0,,,72,127
51511,note_on,1,0,0,,0,,,72,127
51609,note_off,98,0,0,,0,,,72,127
51611,note_on,2,0,0,,2,,,74,127
51709,note_off,98,0,0,,2,,,74,127
51711,note_on,2,0,0,,0,,,72,127
51909,note_off,198,0,0,,0,,,72,127
51909,note_off,0,0,0,,10,,,69,127
51909,note_off,0,0,0,,0,,,60,127
51910,note_off,1,0,0,,5,,,77,127
51911,note_on,1,0,0,,0,,,60,127
51911,note_on,0,0,0,,7,,,67,127
51911,note_on,0,0,0,,11,,,82,127
52009,note_off,98,0,0,,11,,,82,127
52009,note_off,0,0,0,,7,,,67,127
52011,note_on,2,0,0,,10,,,69,127
52011,note_on,0,0,0,,0,,,84,127
52109,note_off,98,0,0,,0,,,84,127
52109,note_off,0,0,0,,10,,,69,127
52109,note_off,0,0,0,,0,,,60,127
52111,note_on,2,0,0,,7,,,67,127
52111,note_on,0,0,0,,0,,,60,127
52111,note_on,0,0,0,,11,,,82,127
52309,note_off,198,0,0,,7,,,67,127
52311,note_on,2,0,0,,5,,,65,127
52311,note_on,0,0,0,,10,,,81,127
52509,note_off,198,0,0,,10,,,81,127
52509,note_off,0,0,0,,5,,,65,127
52511,note_on,2,0,0,,4,,,64,127
52511,note_on,0,0,0,,7,,,79,127
52709,note_off,198,0,0,,7,,,79,127
52709,note_off,0,0,0,,4,,,64,127
52710,note_off,1,0,0,,11,,,82,127
52710,note_off,0,0,0,,0,,,60,127
52711,note_on,1,0,0,,2,,,62,127
52711,note_on,0,0,0,,5,,,77,127
52711,note_on,0,0,0,,12,,,83,127
52909,note_off,198,0,0,,12,,,83,127
52909,note_off,0,0,0,,5,,,77,127
52909,note_off,0,0,0,,2,,,62,127
52911,note_on,2,0,0,,0,,,60,127
52911,note_on,0,0,0,,0,,,84,127
52911,note_on,0,0,0,,4,,,76,127
53109,note_off,198,0,0,,4,,,76,127
53109,note_off,0,0,0,,0,,,60,127
53111,note_on,2,0,0,,11,,,58,127
53111,note_on,0,0,0,,2,,,74,127
53309,note_off,198,0,0,,2,,,74,127
53309,note_off,0,0,0,,11,,,58,127
53311,note_on,2,0,0,,10,,,57,127
53311,note_on,0,0,0,,0,,,72,127
53509,note_off,198,0,0,,0,,,72,127
53509,note_off,0,0,0,,10,,,57,127
53510,note_off,1,0,0,,0,,,84,127
53511,note_on,1,0,0,,7,,,55,127
53511,note_on,0,0,0,,11,,,82,127
53709,note_off,198,0,0,,11,,,82,127
53709,note_off,0,0,0,,7,,,55,127
53711,note_on,2,0,0,,5,,,53,127
53711,note_on,0,0,0,,10,,,81,127
53909,note_off,198,0,0,,10,,,81,127
53909,note_off,0,0,0,,5,,,53,127
53911,note_on,2,0,0,,11,,,58,127
53911,note_on,0,0,0,,11,,,82,127
54009,note_off,98,0,0,,11,,,82,127
54011,note_on,2,0,0,,7,,,79,127
54109,note_off,98,0,0,,7,,,79,127
54109,note_off,0,0,0,,11,,,58,127
54111,note_on,2,0,0,,0,,,60,127
54111,note_on,0,0,0,,10,,,81,127
54111,note_on,0,0,0,,5,,,77,127
54309,note_off,198,0,0,,5,,,77,127
54309,note_off,0,0,0,,10,,,81,127
54309,note_off,0,0,0,,0,,,60,127
54311,note_on,2,0,0,,0,,,48,127
54311,note_on,0,0,0,,4,,,76,127
54311,note_on,0,0,0,,7,,,79,127
54509,note_off,198,0,0,,7,,,79,127
54509,note_off,0,0,0,,4,,,76,127
54509,note_off,0,0,0,,0,,,48,127
54511,note_on,2,0,0,,5,,,41,127
54511,note_on,0,0,0,,5,,,77,127
54511,note_on,0,0,0,,10,,,69,127
54709,note_off,198,0,0,,10,,,69,127
54709,note_off,0,0,0,,5,,,77,127
54709,note_off,0,0,0,,5,,,41,127
54711,note_on,2,0,0,,0,,,48,127
54711,note_on,0,0,0,,7,,,79,127
54711,note_on,0,0,0,,0,,,72,127
54909,note_off,198,0,0,,0,,,72,127
54909,note_off,0,0,0,,7,,,79,127
54909,note_off,0,0,0,,0,,,48,127
54911,note_on,2,0,0,,5,,,53,127
54911,note_on,0,0,0,,5,,,77,127
54911,note_on,0,0,0,,10,,,81,127
55109,note_off,198,0,0,,10,,,81,127
55109,note_off,0,0,0,,5,,,77,127
55109,note_off,0,0,0,,5,,,53,127
55111,note_on,2,0,0,,0,,,48,127
55111,note_on,0,0,0,,7,,,79,127
55111,note_on,0,0,0,,0,,,72,127
55309,note_off,198,0,0,,0,,,72,127
55309,note_off,0,0,0,,7,,,79,127
55309,note_off,0,0,0,,0,,,48,127
55311,note_on,2,0,0,,5,,,41,127
55311,note_on,0,0,0,,5,,,77,127
55311,note_on,0,0,0,,10,,,69,127
55509,note_off,198,0,0,,10,,,69,127
55509,note_off,0,0,0,,5,,,77,127
55509,note_off,0,0,0,,5,,,41,127
55511,note_on,2,0,0,,0,,,48,127
55511,note_on,0,0,0,,0,,,72,127
55511,note_on,0,0,0,,7,,,79,127
55709,note_off,198,0,0,,7,,,79,127
55709,note_off,0,0,0,,0,,,72,127
55709,note_off,0,0,0,,0,,,48,127
55711,note_on,2,0,0,,5,,,53,127
55711,note_on,0,0,0,,10,,,81,127
55711,note_on,0,0,0,,5,,,77,127
55909,note_off,198,0,0,,5,,,77,127
55909,note_off,0,0,0,,10,,,81,127
55911,note_on,2,0,0,,0,,,48,127
55911,note_on,0,0,0,,0,,,72,127
55911,note_on,0,0,0,,7,,,79,127
56107,note_off,196,0,0,,5,,,53,127
56109,note_off,2,0,0,,7,,,79,127
56109,note_off,0,0,0,,0,,,72,127
56111,note_on,2,0,0,,5,,,53,127
56111,note_on,0,0,0,,5,,,41,127
56111,note_on,0,0,0,,10,,,69,127
56111,note_on,0,0,0,,5,,,77,127
57814,note_off,1703,0,0,,5,,,77,127
57814,note_off,0,0,0,,10,,,69,127
57814,note_off,0,0,0,,5,,,41,127
57814,note_off,0,0,0,,5,,,53,127
57814,note_off,0,0,0,,0,,,48,127
58368,end_of_track,554,1,0,,,,,,
