tick,type,time,meta,track,program,channel,pitch,tempo,note,velocity
0,copyright,0,1,0,,,,,,
0,program_change,0,0,0,6,0,,,,
0,pitchwheel,0,0,0,,0,0,,,
0,program_change,0,0,0,6,1,,,,
0,pitchwheel,0,0,0,,1,-590,,,
0,program_change,0,0,0,6,2,,,,
0,pitchwheel,0,0,0,,2,-272,,,
0,program_change,0,0,0,6,3,,,,
0,pitchwheel,0,0,0,,3,-353,,,
0,program_change,0,0,0,6,4,,,,
0,pitchwheel,0,0,0,,4,-560,,,
0,program_change,0,0,0,6,5,,,,
0,pitchwheel,0,0,0,,5,-80,,,
0,program_change,0,0,0,6,6,,,,
0,pitchwheel,0,0,0,,6,-625,,,
0,program_change,0,0,0,6,7,,,,
0,pitchwheel,0,0,0,,7,-130,,,
0,program_change,0,0,0,6,8,,,,
0,pitchwheel,0,0,0,,8,-512,,,
0,program_change,0,0,0,6,10,,,,
0,pitchwheel,0,0,0,,10,-464,,,
0,program_change,0,0,0,6,11,,,,
0,pitchwheel,0,0,0,,11,-208,,,
0,program_change,0,0,0,6,12,,,,
0,pitchwheel,0,0,0,,12,-553,,,
0,set_tempo,0,1,0,,,,500000,,
82,note_on,82,0,0,,5,,,65,127
82,note_on,0,0,0,,10,,,69,127
82,note_on,0,0,0,,5,,,77,127
409,note_off,327,0,0,,5,,,77,127
409,note_off,0,0,0,,10,,,69,127
409,note_off,0,0,0,,5,,,65,127
411,note_on,2,0,0,,7,,,67,127
411,note_on,0,0,0,,4,,,64,127
411,note_on,0,0,0,,7,,,79,127
492,note_off,81,0,0,,7,,,79,127
494,note_on,2,0,0,,5,,,77,127
575,note_off,81,0,0,,5,,,77,127
577,note_on,2,0,0,,7,,,79,127
658,note_off,81,0,0,,7,,,79,127
660,note_on,2,0,0,,5,,,77,127
741,note_off,81,0,0,,5,,,77,127
741,note_off,0,0,0,,4,,,64,127
741,note_off,0,0,0,,7,,,67,127
743,note_on,2,0,0,,2,,,62,127
743,note_on,0,0,0,,5,,,65,127
743,note_on,0,0,0,,7,,,79,127
824,note_off,81,0,0,,7,,,79,127
826,note_on,2,0,0,,5,,,77,127
907,note_off,81,0,0,,5,,,77,127
909,note_on,2,0,0,,4,,,76,127
990,note_off,81,0,0,,4,,,76,127
992,note_on,2,0,0,,5,,,77,127
1073,note_off,81,0,0,,5,,,77,127
1073,note_off,0,0,0,,5,,,65,127
1073,note_off,0,0,0,,2,,,62,127
1075,note_on,2,0,0,,0,,,60,127
1075,note_on,0,0,0,,5,,,77,127
1404,note_on,329,0,0,,0,,,48,127
1731,note_off,327,0,0,,5,,,77,127
1733,note_on,2,0,0,,7,,,79,127
2004,note_off,271,0,0,,0,,,48,127
2061,note_off,57,0,0,,7,,,79,127
2061,note_off,0,0,0,,0,,,60,127
2063,note_on,2,0,0,,0,,,60,127
2063,note_on,0,0,0,,4,,,64,127
2063,note_on,0,0,0,,0,,,84,127
2063,note_on,0,0,0,,11,,,82,127
2171,note_off,108,0,0,,11,,,82,127
2171,note_off,0,0,0,,0,,,84,127
2173,note_on,2,0,0,,10,,,81,127
2281,note_off,108,0,0,,10,,,81,127
2283,note_on,2,0,0,,7,,,79,127
2391,note_off,108,0,0,,7,,,79,127
2391,note_off,0,0,0,,4,,,64,127
2391,note_off,0,0,0,,0,,,60,127
2393,note_on,2,0,0,,5,,,65,127
2393,note_on,0,0,0,,2,,,62,127
2393,note_on,0,0,0,,7,,,79,127
2720,note_off,327,0,0,,2,,,62,127
2720,note_off,0,0,0,,5,,,65,127
2722,note_on,2,0,0,,4,,,64,127
2722,note_on,0,0,0,,7,,,67,127
2996,note_off,274,0,0,,7,,,67,127
3049,note_off,53,0,0,,4,,,64,127
3049,note_off,0,0,0,,7,,,79,127
3051,note_on,2,0,0,,5,,,65,127
3051,note_on,0,0,0,,10,,,69,127
3051,note_on,0,0,0,,10,,,81,127
3051,note_on,0,0,0,,11,,,82,127
3159,note_off,108,0,0,,11,,,82,127
3159,note_off,0,0,0,,10,,,81,127
3161,note_on,2,0,0,,7,,,79,127
3269,note_off,108,0,0,,7,,,79,127
3271,note_on,2,0,0,,5,,,77,127
3379,note_off,108,0,0,,5,,,77,127
3379,note_off,0,0,0,,10,,,69,127
3379,note_off,0,0,0,,5,,,65,127
3381,note_on,2,0,0,,11,,,70,127
3381,note_on,0,0,0,,7,,,67,127
3381,note_on,0,0,0,,5,,,77,127
3708,note_off,327,0,0,,7,,,67,127
3708,note_off,0,0,0,,11,,,70,127
3710,note_on,2,0,0,,10,,,69,127
3710,note_on,0,0,0,,0,,,72,127
4037,note_off,327,0,0,,0,,,72,127
4037,note_off,0,0,0,,10,,,69,127
4037,note_off,0,0,0,,5,,,77,127
4039,note_on,2,0,0,,11,,,58,127
4039,note_on,0,0,0,,11,,,70,127
4039,note_on,0,0,0,,10,,,81,127
4202,note_off,163,0,0,,10,,,81,127
4204,note_on,2,0,0,,7,,,79,127
4367,note_off,163,0,0,,11,,,70,127
4367,note_off,0,0,0,,11,,,58,127
4369,note_on,2,0,0,,0,,,60,127
4369,note_on,0,0,0,,10,,,69,127
4532,note_off,163,0,0,,7,,,79,127
4534,note_on,2,0,0,,5,,,77,127
4697,note_off,163,0,0,,10,,,69,127
4699,note_on,2,0,0,,7,,,67,127
4862,note_off,163,0,0,,5,,,77,127
4864,note_on,2,0,0,,4,,,76,127
5027,note_off,163,0,0,,4,,,76,127
5027,note_off,0,0,0,,7,,,67,127
5028,note_off,1,0,0,,0,,,60,127
5029,note_on,1,0,0,,5,,,65,127
5029,note_on,0,0,0,,4,,,76,127
5358,note_on,329,0,0,,5,,,53,127
5629,note_off,271,0,0,,5,,,65,127
5686,note_off,57,0,0,,4,,,76,127
5688,note_on,2,0,0,,5,,,77,127
6015,note_off,327,0,0,,5,,,77,127
6015,note_off,0,0,0,,5,,,53,127
6017,note_on,2,0,0,,0,,,60,127
6017,note_on,0,0,0,,4,,,64,127
6017,note_on,0,0,0,,11,,,82,127
6017,note_on,0,0,0,,0,,,84,127
6125,note_off,108,0,0,,0,,,84,127
6125,note_off,0,0,0,,11,,,82,127
6127,note_on,2,0,0,,10,,,81,127
6235,note_off,108,0,0,,10,,,81,127
6237,note_on,2,0,0,,7,,,79,127
6345,note_off,108,0,0,,7,,,79,127
6345,note_off,0,0,0,,4,,,64,127
6345,note_off,0,0,0,,0,,,60,127
6347,note_on,2,0,0,,5,,,65,127
6347,note_on,0,0,0,,2,,,62,127
6347,note_on,0,0,0,,7,,,79,127
6674,note_off,327,0,0,,7,,,79,127
6674,note_off,0,0,0,,2,,,62,127
6674,note_off,0,0,0,,5,,,65,127
6676,note_on,2,0,0,,4,,,64,127
6676,note_on,0,0,0,,7,,,67,127
6676,note_on,0,0,0,,10,,,81,127
6784,note_off,108,0,0,,10,,,81,127
6786,note_on,2,0,0,,11,,,82,127
6894,note_off,108,0,0,,11,,,82,127
6896,note_on,2,0,0,,0,,,84,127
7004,note_off,108,0,0,,0,,,84,127
7004,note_off,0,0,0,,7,,,67,127
7004,note_off,0,0,0,,4,,,64,127
7006,note_on,2,0,0,,5,,,65,127
7006,note_on,0,0,0,,10,,,69,127
7006,note_on,0,0,0,,10,,,81,127
7006,note_on,0,0,0,,11,,,82,127
7114,note_off,108,0,0,,11,,,82,127
7114,note_off,0,0,0,,10,,,81,127
7116,note_on,2,0,0,,7,,,79,127
7224,note_off,108,0,0,,7,,,79,127
7226,note_on,2,0,0,,5,,,77,127
7334,note_off,108,0,0,,5,,,77,127
7334,note_off,0,0,0,,10,,,69,127
7334,note_off,0,0,0,,5,,,65,127
7336,note_on,2,0,0,,11,,,70,127
7336,note_on,0,0,0,,7,,,67,127
7336,note_on,0,0,0,,5,,,77,127
7663,note_off,327,0,0,,7,,,67,127
7663,note_off,0,0,0,,11,,,70,127
7665,note_on,2,0,0,,10,,,69,127
7665,note_on,0,0,0,,0,,,72,127
7948,note_off,283,0,0,,0,,,72,127
7993,note_off,45,0,0,,10,,,69,127
7993,note_off,0,0,0,,5,,,77,127
7995,note_on,2,0,0,,11,,,70,127
7995,note_on,0,0,0,,11,,,58,127
7995,note_on,0,0,0,,10,,,81,127
8158,note_off,163,0,0,,10,,,81,127
8160,note_on,2,0,0,,7,,,79,127
8323,note_off,163,0,0,,11,,,58,127
8323,note_off,0,0,0,,11,,,70,127
8325,note_on,2,0,0,,0,,,60,127
8325,note_on,0,0,0,,10,,,69,127
8488,note_off,163,0,0,,7,,,79,127
8490,note_on,2,0,0,,5,,,77,127
8653,note_off,163,0,0,,10,,,69,127
8655,note_on,2,0,0,,7,,,67,127
8818,note_off,163,0,0,,5,,,77,127
8820,note_on,2,0,0,,4,,,76,127
8983,note_off,163,0,0,,4,,,76,127
8983,note_off,0,0,0,,7,,,67,127
8984,note_off,1,0,0,,0,,,60,127
8985,note_on,1,0,0,,5,,,65,127
8985,note_on,0,0,0,,4,,,76,127
9314,note_on,329,0,0,,5,,,53,127
9641,note_off,327,0,0,,4,,,76,127
9642,note_off,1,0,0,,5,,,65,127
9643,note_on,1,0,0,,5,,,77,127
9917,note_off,274,0,0,,5,,,77,127
9955,note_off,38,0,0,,5,,,53,127
9972,note_on,17,0,0,,8,,,68,127
9972,note_on,0,0,0,,5,,,65,127
9972,note_on,0,0,0,,0,,,84,127
10080,note_off,108,0,0,,0,,,84,127
10082,note_on,2,0,0,,11,,,82,127
10190,note_off,108,0,0,,11,,,82,127
10192,note_on,2,0,0,,8,,,80,127
10300,note_off,108,0,0,,5,,,65,127
10300,note_off,0,0,0,,8,,,68,127
10302,note_on,2,0,0,,8,,,68,127
10302,note_on,0,0,0,,5,,,65,127
10465,note_off,163,0,0,,8,,,80,127
10467,note_on,2,0,0,,7,,,79,127
10630,note_off,163,0,0,,7,,,79,127
10630,note_off,0,0,0,,5,,,65,127
10630,note_off,0,0,0,,8,,,68,127
10632,note_on,2,0,0,,7,,,67,127
10632,note_on,0,0,0,,11,,,70,127
10632,note_on,0,0,0,,5,,,77,127
10795,note_off,163,0,0,,5,,,77,127
10797,note_on,2,0,0,,4,,,76,127
10960,note_off,163,0,0,,4,,,76,127
10960,note_off,0,0,0,,11,,,70,127
10960,note_off,0,0,0,,7,,,67,127
10962,note_on,2,0,0,,8,,,68,127
10962,note_on,0,0,0,,0,,,72,127
10962,note_on,0,0,0,,4,,,76,127
11125,note_off,163,0,0,,8,,,68,127
11127,note_on,2,0,0,,7,,,67,127
11288,note_off,161,0,0,,0,,,72,127
11290,note_off,2,0,0,,7,,,67,127
11290,note_off,0,0,0,,4,,,76,127
11292,note_on,2,0,0,,5,,,65,127
11292,note_on,0,0,0,,5,,,77,127
11455,note_off,163,0,0,,5,,,65,127
11457,note_on,2,0,0,,3,,,63,127
11620,note_off,163,0,0,,3,,,63,127
11620,note_off,0,0,0,,5,,,77,127
11622,note_on,2,0,0,,1,,,61,127
11622,note_on,0,0,0,,8,,,80,127
11785,note_off,163,0,0,,1,,,61,127
11787,note_on,2,0,0,,0,,,60,127
11950,note_off,163,0,0,,0,,,60,127
11950,note_off,0,0,0,,8,,,80,127
11952,note_on,2,0,0,,11,,,58,127
11952,note_on,0,0,0,,7,,,79,127
12060,note_off,108,0,0,,7,,,79,127
12062,note_on,2,0,0,,8,,,80,127
12170,note_off,108,0,0,,8,,,80,127
12172,note_on,2,0,0,,11,,,82,127
12280,note_off,108,0,0,,11,,,82,127
12280,note_off,0,0,0,,11,,,58,127
12282,note_on,2,0,0,,0,,,60,127
12282,note_on,0,0,0,,8,,,80,127
12445,note_off,163,0,0,,8,,,80,127
12447,note_on,2,0,0,,7,,,79,127
12610,note_off,163,0,0,,7,,,79,127
12612,note_on,2,0,0,,11,,,70,127
12612,note_on,0,0,0,,5,,,77,127
12775,note_off,163,0,0,,5,,,77,127
12777,note_on,2,0,0,,4,,,76,127
12940,note_off,163,0,0,,4,,,76,127
12940,note_off,0,0,0,,11,,,70,127
12941,note_off,1,0,0,,0,,,60,127
12942,note_on,1,0,0,,8,,,68,127
12942,note_on,0,0,0,,5,,,77,127
13105,note_off,163,0,0,,5,,,77,127
13105,note_off,0,0,0,,8,,,68,127
13107,note_on,2,0,0,,7,,,67,127
13107,note_on,0,0,0,,4,,,76,127
13270,note_off,163,0,0,,4,,,76,127
13270,note_off,0,0,0,,7,,,67,127
13272,note_on,2,0,0,,5,,,65,127
13272,note_on,0,0,0,,5,,,77,127
13435,note_off,163,0,0,,5,,,65,127
13437,note_on,2,0,0,,3,,,63,127
13600,note_off,163,0,0,,3,,,63,127
13600,note_off,0,0,0,,5,,,77,127
13602,note_on,2,0,0,,1,,,61,127
13602,note_on,0,0,0,,8,,,80,127
13765,note_off,163,0,0,,1,,,61,127
13767,note_on,2,0,0,,0,,,60,127
13930,note_off,163,0,0,,0,,,60,127
13930,note_off,0,0,0,,8,,,80,127
13932,note_on,2,0,0,,11,,,58,127
13932,note_on,0,0,0,,7,,,79,127
14040,note_off,108,0,0,,7,,,79,127
14042,note_on,2,0,0,,8,,,80,127
14150,note_off,108,0,0,,8,,,80,127
14152,note_on,2,0,0,,11,,,82,127
14260,note_off,108,0,0,,11,,,82,127
14260,note_off,0,0,0,,11,,,58,127
14262,note_on,2,0,0,,0,,,60,127
14262,note_on,0,0,0,,8,,,80,127
14425,note_off,163,0,0,,8,,,80,127
14427,note_on,2,0,0,,7,,,79,127
14590,note_off,163,0,0,,7,,,79,127
14592,note_on,2,0,0,,11,,,70,127
14592,note_on,0,0,0,,5,,,77,127
14755,note_off,163,0,0,,5,,,77,127
14757,note_on,2,0,0,,4,,,76,127
14920,note_off,163,0,0,,4,,,76,127
14920,note_off,0,0,0,,11,,,70,127
14921,note_off,1,0,0,,0,,,60,127
14922,note_on,1,0,0,,5,,,65,127
14922,note_on,0,0,0,,5,,,77,127
15087,note_on,165,0,0,,3,,,75,127
15250,note_off,163,0,0,,3,,,75,127
15252,note_on,2,0,0,,5,,,53,127
15252,note_on,0,0,0,,2,,,74,127
15415,note_off,163,0,0,,2,,,74,127
15417,note_on,2,0,0,,0,,,72,127
15580,note_off,163,0,0,,0,,,72,127
15580,note_off,0,0,0,,5,,,53,127
15581,note_off,1,0,0,,5,,,77,127
15582,note_on,1,0,0,,7,,,55,127
15582,note_on,0,0,0,,12,,,71,127
15582,note_on,0,0,0,,5,,,77,127
15745,note_off,163,0,0,,12,,,71,127
15747,note_on,2,0,0,,0,,,72,127
15910,note_off,163,0,0,,0,,,72,127
15910,note_off,0,0,0,,7,,,55,127
15912,note_on,2,0,0,,8,,,56,127
15912,note_on,0,0,0,,12,,,71,127
16075,note_off,163,0,0,,12,,,71,127
16077,note_on,2,0,0,,0,,,72,127
16236,note_off,159,0,0,,5,,,65,127
16239,note_off,3,0,0,,0,,,72,127
16241,note_on,2,0,0,,5,,,65,127
16241,note_on,0,0,0,,12,,,71,127
16404,note_off,163,0,0,,12,,,71,127
16406,note_on,2,0,0,,0,,,72,127
16569,note_off,163,0,0,,0,,,72,127
16569,note_off,0,0,0,,5,,,77,127
16570,note_off,1,0,0,,8,,,56,127
16571,note_on,1,0,0,,7,,,55,127
16571,note_on,0,0,0,,5,,,77,127
16571,note_on,0,0,0,,12,,,71,127
16734,note_off,163,0,0,,12,,,71,127
16736,note_on,2,0,0,,0,,,72,127
16899,note_off,163,0,0,,0,,,72,127
16899,note_off,0,0,0,,7,,,55,127
16901,note_on,2,0,0,,8,,,56,127
16901,note_on,0,0,0,,12,,,71,127
17064,note_off,163,0,0,,12,,,71,127
17066,note_on,2,0,0,,0,,,72,127
17229,note_off,163,0,0,,0,,,72,127
17229,note_off,0,0,0,,5,,,65,127
17230,note_off,1,0,0,,5,,,77,127
17231,note_on,1,0,0,,5,,,65,127
17231,note_on,0,0,0,,2,,,74,127
17312,note_off,81,0,0,,2,,,74,127
17314,note_on,2,0,0,,0,,,72,127
17395,note_off,81,0,0,,0,,,72,127
17397,note_on,2,0,0,,2,,,74,127
17478,note_off,81,0,0,,2,,,74,127
17480,note_on,2,0,0,,0,,,72,127
17561,note_off,81,0,0,,0,,,72,127
17562,note_off,1,0,0,,8,,,56,127
17563,note_on,1,0,0,,8,,,56,127
17563,note_on,0,0,0,,2,,,74,127
17644,note_off,81,0,0,,2,,,74,127
17646,note_on,2,0,0,,0,,,72,127
17727,note_off,81,0,0,,0,,,72,127
17728,note_off,1,0,0,,5,,,65,127
17729,note_on,1,0,0,,12,,,71,127
17810,note_off,81,0,0,,12,,,71,127
17812,note_on,2,0,0,,0,,,72,127
17893,note_off,81,0,0,,0,,,72,127
17893,note_off,0,0,0,,8,,,56,127
17895,note_on,2,0,0,,7,,,43,127
17895,note_on,0,0,0,,7,,,55,127
17895,note_on,0,0,0,,2,,,74,127
18222,note_off,327,0,0,,2,,,74,127
18224,note_on,2,0,0,,6,,,78,127
18551,note_off,327,0,0,,6,,,78,127
18553,note_on,2,0,0,,7,,,79,127
18880,note_off,327,0,0,,7,,,55,127
18880,note_off,0,0,0,,7,,,43,127
18962,note_off,82,0,0,,7,,,79,127
19211,note_on,249,0,0,,7,,,55,127
19211,note_on,0,0,0,,7,,,43,127
19293,note_on,82,0,0,,7,,,67,127
19374,note_off,81,0,0,,7,,,67,127
19376,note_on,2,0,0,,10,,,69,127
19457,note_off,81,0,0,,10,,,69,127
19459,note_on,2,0,0,,12,,,71,127
19540,note_off,81,0,0,,12,,,71,127
19542,note_on,2,0,0,,0,,,72,127
19623,note_off,81,0,0,,0,,,72,127
19625,note_on,2,0,0,,2,,,74,127
19706,note_off,81,0,0,,2,,,74,127
19708,note_on,2,0,0,,4,,,76,127
19789,note_off,81,0,0,,4,,,76,127
19791,note_on,2,0,0,,5,,,77,127
19872,note_off,81,0,0,,5,,,77,127
19872,note_off,0,0,0,,7,,,43,127
19872,note_off,0,0,0,,7,,,55,127
19874,note_on,2,0,0,,7,,,79,127
19874,note_on,0,0,0,,2,,,62,127
19874,note_on,0,0,0,,12,,,59,127
20037,note_off,163,0,0,,7,,,79,127
20039,note_on,2,0,0,,5,,,77,127
20202,note_off,163,0,0,,5,,,77,127
20202,note_off,0,0,0,,12,,,59,127
20202,note_off,0,0,0,,2,,,62,127
20204,note_on,2,0,0,,4,,,76,127
20204,note_on,0,0,0,,0,,,60,127
20204,note_on,0,0,0,,4,,,64,127
20367,note_off,163,0,0,,4,,,76,127
20369,note_on,2,0,0,,2,,,74,127
20532,note_off,163,0,0,,4,,,64,127
20532,note_off,0,0,0,,0,,,60,127
20534,note_on,2,0,0,,5,,,65,127
20534,note_on,0,0,0,,2,,,62,127
20697,note_off,163,0,0,,2,,,74,127
20699,note_on,2,0,0,,12,,,71,127
20862,note_off,163,0,0,,2,,,62,127
20862,note_off,0,0,0,,5,,,65,127
20864,note_on,2,0,0,,7,,,67,127
20864,note_on,0,0,0,,4,,,64,127
21027,note_off,163,0,0,,12,,,71,127
21029,note_on,2,0,0,,0,,,72,127
21192,note_off,163,0,0,,0,,,72,127
21192,note_off,0,0,0,,4,,,64,127
21192,note_off,0,0,0,,7,,,67,127
21194,note_on,2,0,0,,7,,,55,127
21276,note_on,82,0,0,,7,,,67,127
21357,note_off,81,0,0,,7,,,67,127
21359,note_on,2,0,0,,10,,,69,127
21440,note_off,81,0,0,,10,,,69,127
21442,note_on,2,0,0,,12,,,71,127
21523,note_off,81,0,0,,12,,,71,127
21525,note_on,2,0,0,,0,,,72,127
21606,note_off,81,0,0,,0,,,72,127
21608,note_on,2,0,0,,2,,,74,127
21689,note_off,81,0,0,,2,,,74,127
21691,note_on,2,0,0,,4,,,76,127
21772,note_off,81,0,0,,4,,,76,127
21774,note_on,2,0,0,,5,,,77,127
21855,note_off,81,0,0,,5,,,77,127
21855,note_off,0,0,0,,7,,,55,127
21857,note_on,2,0,0,,7,,,79,127
21857,note_on,0,0,0,,12,,,59,127
21857,note_on,0,0,0,,2,,,62,127
22020,note_off,163,0,0,,7,,,79,127
22022,note_on,2,0,0,,5,,,77,127
22185,note_off,163,0,0,,5,,,77,127
22185,note_off,0,0,0,,2,,,62,127
22185,note_off,0,0,0,,12,,,59,127
22187,note_on,2,0,0,,4,,,76,127
22187,note_on,0,0,0,,0,,,60,127
22187,note_on,0,0,0,,4,,,64,127
22350,note_off,163,0,0,,4,,,76,127
22352,note_on,2,0,0,,2,,,74,127
22515,note_off,163,0,0,,4,,,64,127
22515,note_off,0,0,0,,0,,,60,127
22517,note_on,2,0,0,,2,,,62,127
22517,note_on,0,0,0,,5,,,65,127
22680,note_off,163,0,0,,2,,,74,127
22682,note_on,2,0,0,,12,,,71,127
22845,note_off,163,0,0,,5,,,65,127
22845,note_off,0,0,0,,2,,,62,127
22847,note_on,2,0,0,,7,,,67,127
22847,note_on,0,0,0,,4,,,64,127
23010,note_off,163,0,0,,12,,,71,127
23012,note_on,2,0,0,,0,,,72,127
23175,note_off,163,0,0,,0,,,72,127
23175,note_off,0,0,0,,4,,,64,127
23175,note_off,0,0,0,,7,,,67,127
23177,note_on,2,0,0,,5,,,53,127
23259,note_on,82,0,0,,10,,,69,127
23340,note_off,81,0,0,,10,,,69,127
23342,note_on,2,0,0,,12,,,71,127
23423,note_off,81,0,0,,12,,,71,127
23425,note_on,2,0,0,,0,,,72,127
23506,note_off,81,0,0,,0,,,72,127
23508,note_on,2,0,0,,2,,,74,127
23589,note_off,81,0,0,,2,,,74,127
23591,note_on,2,0,0,,4,,,76,127
23672,note_off,81,0,0,,4,,,76,127
23674,note_on,2,0,0,,5,,,77,127
23755,note_off,81,0,0,,5,,,77,127
23757,note_on,2,0,0,,7,,,79,127
23838,note_off,81,0,0,,7,,,79,127
23838,note_off,0,0,0,,5,,,53,127
23840,note_on,2,0,0,,10,,,81,127
23840,note_on,0,0,0,,5,,,65,127
24003,note_off,163,0,0,,10,,,81,127
24005,note_on,2,0,0,,12,,,83,127
24168,note_off,163,0,0,,12,,,83,127
24168,note_off,0,0,0,,5,,,65,127
24170,note_on,2,0,0,,0,,,84,127
24170,note_on,0,0,0,,4,,,64,127
24333,note_off,163,0,0,,0,,,84,127
24335,note_on,2,0,0,,7,,,79,127
24498,note_off,163,0,0,,4,,,64,127
24500,note_on,2,0,0,,2,,,62,127
24663,note_off,163,0,0,,7,,,79,127
24665,note_on,2,0,0,,5,,,77,127
24828,note_off,163,0,0,,2,,,62,127
24830,note_on,2,0,0,,0,,,60,127
24993,note_off,163,0,0,,5,,,77,127
24995,note_on,2,0,0,,4,,,76,127
25158,note_off,163,0,0,,0,,,60,127
25160,note_on,2,0,0,,5,,,65,127
25323,note_off,163,0,0,,4,,,76,127
25325,note_on,2,0,0,,2,,,74,127
25488,note_off,163,0,0,,5,,,65,127
25490,note_on,2,0,0,,7,,,67,127
25653,note_off,163,0,0,,2,,,74,127
25655,note_on,2,0,0,,0,,,72,127
25820,note_on,165,0,0,,7,,,55,127
25983,note_off,163,0,0,,0,,,72,127
25985,note_on,2,0,0,,12,,,71,127
26148,note_off,163,0,0,,12,,,71,127
26148,note_off,0,0,0,,7,,,55,127
26149,note_off,1,0,0,,7,,,67,127
26150,note_on,1,0,0,,12,,,71,127
26150,note_on,0,0,0,,0,,,60,127
26479,note_on,329,0,0,,0,,,48,127
26806,note_off,327,0,0,,12,,,71,127
26808,note_on,2,0,0,,0,,,72,127
27135,note_off,327,0,0,,0,,,72,127
27136,note_off,1,0,0,,0,,,48,127
27137,note_off,1,0,0,,0,,,60,127
27137,note_on,0,0,0,,4,,,76,127
27137,note_on,0,0,0,,7,,,67,127
27219,note_on,82,0,0,,7,,,55,127
27300,note_off,81,0,0,,7,,,55,127
27302,note_on,2,0,0,,10,,,57,127
27383,note_off,81,0,0,,10,,,57,127
27385,note_on,2,0,0,,12,,,59,127
27466,note_off,81,0,0,,12,,,59,127
27466,note_off,0,0,0,,4,,,76,127
27468,note_on,2,0,0,,2,,,74,127
27468,note_on,0,0,0,,0,,,60,127
27549,note_off,81,0,0,,0,,,60,127
27551,note_on,2,0,0,,2,,,62,127
27632,note_off,81,0,0,,2,,,62,127
27634,note_on,2,0,0,,4,,,64,127
27715,note_off,81,0,0,,4,,,64,127
27717,note_on,2,0,0,,5,,,65,127
27798,note_off,81,0,0,,5,,,65,127
27798,note_off,0,0,0,,7,,,67,127
27800,note_on,2,0,0,,7,,,67,127
27963,note_off,163,0,0,,7,,,67,127
27964,note_off,1,0,0,,2,,,74,127
27965,note_on,1,0,0,,5,,,65,127
28128,note_off,163,0,0,,5,,,65,127
28130,note_on,2,0,0,,4,,,64,127
28295,note_on,165,0,0,,4,,,76,127
28295,note_on,0,0,0,,0,,,72,127
28458,note_off,163,0,0,,4,,,64,127
28460,note_on,2,0,0,,2,,,62,127
28623,note_off,163,0,0,,0,,,72,127
28623,note_off,0,0,0,,4,,,76,127
28625,note_on,2,0,0,,2,,,74,127
28625,note_on,0,0,0,,5,,,77,127
28788,note_off,163,0,0,,2,,,62,127
28790,note_on,2,0,0,,0,,,60,127
28953,note_off,163,0,0,,5,,,77,127
28953,note_off,0,0,0,,2,,,74,127
28955,note_on,2,0,0,,4,,,76,127
28955,note_on,0,0,0,,7,,,79,127
29116,note_off,161,0,0,,0,,,60,127
29118,note_off,2,0,0,,7,,,79,127
29118,note_off,0,0,0,,4,,,76,127
29120,note_on,2,0,0,,7,,,67,127
29120,note_on,0,0,0,,4,,,76,127
29202,note_on,82,0,0,,7,,,55,127
29283,note_off,81,0,0,,7,,,55,127
29285,note_on,2,0,0,,10,,,57,127
29366,note_off,81,0,0,,10,,,57,127
29368,note_on,2,0,0,,12,,,59,127
29449,note_off,81,0,0,,12,,,59,127
29449,note_off,0,0,0,,4,,,76,127
29451,note_on,2,0,0,,2,,,74,127
29451,note_on,0,0,0,,0,,,60,127
29532,note_off,81,0,0,,0,,,60,127
29534,note_on,2,0,0,,2,,,62,127
29615,note_off,81,0,0,,2,,,62,127
29617,note_on,2,0,0,,4,,,64,127
29698,note_off,81,0,0,,4,,,64,127
29700,note_on,2,0,0,,5,,,65,127
29781,note_off,81,0,0,,5,,,65,127
29781,note_off,0,0,0,,7,,,67,127
29783,note_on,2,0,0,,7,,,67,127
29946,note_off,163,0,0,,7,,,67,127
29947,note_off,1,0,0,,2,,,74,127
29948,note_on,1,0,0,,5,,,65,127
30111,note_off,163,0,0,,5,,,65,127
30113,note_on,2,0,0,,4,,,64,127
30278,note_on,165,0,0,,0,,,72,127
30278,note_on,0,0,0,,4,,,76,127
30441,note_off,163,0,0,,4,,,64,127
30443,note_on,2,0,0,,2,,,62,127
30606,note_off,163,0,0,,4,,,76,127
30606,note_off,0,0,0,,0,,,72,127
30608,note_on,2,0,0,,5,,,77,127
30608,note_on,0,0,0,,2,,,74,127
30771,note_off,163,0,0,,2,,,62,127
30773,note_on,2,0,0,,0,,,60,127
30936,note_off,163,0,0,,2,,,74,127
30936,note_off,0,0,0,,5,,,77,127
30938,note_on,2,0,0,,7,,,79,127
30938,note_on,0,0,0,,4,,,76,127
31099,note_off,161,0,0,,0,,,60,127
31101,note_off,2,0,0,,4,,,76,127
31101,note_off,0,0,0,,7,,,79,127
31103,note_on,2,0,0,,10,,,69,127
31103,note_on,0,0,0,,10,,,81,127
31185,note_on,82,0,0,,5,,,53,127
31266,note_off,81,0,0,,5,,,53,127
31268,note_on,2,0,0,,7,,,55,127
31349,note_off,81,0,0,,7,,,55,127
31351,note_on,2,0,0,,10,,,57,127
31432,note_off,81,0,0,,10,,,57,127
31434,note_on,2,0,0,,12,,,59,127
31515,note_off,81,0,0,,12,,,59,127
31517,note_on,2,0,0,,0,,,60,127
31598,note_off,81,0,0,,0,,,60,127
31600,note_on,2,0,0,,2,,,62,127
31681,note_off,81,0,0,,2,,,62,127
31683,note_on,2,0,0,,4,,,64,127
31764,note_off,81,0,0,,4,,,64,127
31766,note_on,2,0,0,,5,,,65,127
31929,note_off,163,0,0,,10,,,81,127
31929,note_off,0,0,0,,10,,,69,127
31931,note_on,2,0,0,,12,,,71,127
31931,note_on,0,0,0,,10,,,81,127
32094,note_off,163,0,0,,10,,,81,127
32094,note_off,0,0,0,,12,,,71,127
32094,note_off,0,0,0,,5,,,65,127
32096,note_on,2,0,0,,0,,,72,127
32096,note_on,0,0,0,,10,,,81,127
32096,note_on,0,0,0,,4,,,64,127
32259,note_off,163,0,0,,10,,,81,127
32261,note_on,2,0,0,,7,,,79,127
32424,note_off,163,0,0,,4,,,64,127
32426,note_on,2,0,0,,2,,,62,127
32589,note_off,163,0,0,,7,,,79,127
32591,note_on,2,0,0,,5,,,77,127
32754,note_off,163,0,0,,2,,,62,127
32756,note_on,2,0,0,,0,,,60,127
32919,note_off,163,0,0,,5,,,77,127
32921,note_on,2,0,0,,4,,,76,127
33084,note_off,163,0,0,,0,,,60,127
33084,note_off,0,0,0,,0,,,72,127
33086,note_on,2,0,0,,5,,,65,127
33249,note_off,163,0,0,,4,,,76,127
33251,note_on,2,0,0,,2,,,74,127
33414,note_off,163,0,0,,5,,,65,127
33416,note_on,2,0,0,,7,,,67,127
33579,note_off,163,0,0,,2,,,74,127
33581,note_on,2,0,0,,0,,,72,127
33744,note_off,163,0,0,,7,,,67,127
33746,note_on,2,0,0,,7,,,55,127
33909,note_off,163,0,0,,0,,,72,127
33911,note_on,2,0,0,,12,,,71,127
34074,note_off,163,0,0,,12,,,71,127
34074,note_off,0,0,0,,7,,,55,127
34076,note_on,2,0,0,,0,,,72,127
34076,note_on,0,0,0,,0,,,48,127
34239,note_off,163,0,0,,0,,,72,127
34241,note_on,2,0,0,,2,,,74,127
34404,note_off,163,0,0,,2,,,74,127
34404,note_off,0,0,0,,0,,,48,127
34406,note_on,2,0,0,,4,,,76,127
34406,note_on,0,0,0,,2,,,50,127
34569,note_off,163,0,0,,4,,,76,127
34571,note_on,2,0,0,,5,,,77,127
34734,note_off,163,0,0,,5,,,77,127
34734,note_off,0,0,0,,2,,,50,127
34736,note_on,2,0,0,,7,,,79,127
34736,note_on,0,0,0,,4,,,52,127
34899,note_off,163,0,0,,7,,,79,127
34901,note_on,2,0,0,,8,,,80,127
35064,note_off,163,0,0,,8,,,80,127
35064,note_off,0,0,0,,4,,,52,127
35066,note_on,2,0,0,,10,,,81,127
35066,note_on,0,0,0,,5,,,53,127
35231,note_on,165,0,0,,10,,,69,127
35392,note_off,161,0,0,,10,,,81,127
35394,note_off,2,0,0,,10,,,69,127
35394,note_off,0,0,0,,5,,,53,127
35396,note_on,2,0,0,,4,,,76,127
35396,note_on,0,0,0,,7,,,55,127
35477,note_off,81,0,0,,4,,,76,127
35479,note_on,2,0,0,,2,,,74,127
35560,note_off,81,0,0,,2,,,74,127
35562,note_on,2,0,0,,4,,,76,127
35643,note_off,81,0,0,,4,,,76,127
35645,note_on,2,0,0,,2,,,74,127
35726,note_off,81,0,0,,2,,,74,127
35728,note_on,2,0,0,,4,,,76,127
35728,note_on,0,0,0,,7,,,43,127
35809,note_off,81,0,0,,4,,,76,127
35811,note_on,2,0,0,,2,,,74,127
35892,note_off,81,0,0,,2,,,74,127
35894,note_on,2,0,0,,0,,,72,127
35975,note_off,81,0,0,,0,,,72,127
35977,note_on,2,0,0,,2,,,74,127
36058,note_off,81,0,0,,2,,,74,127
36058,note_off,0,0,0,,7,,,43,127
36059,note_off,1,0,0,,7,,,55,127
36060,note_on,1,0,0,,0,,,72,127
36060,note_on,0,0,0,,0,,,48,127
36223,note_off,163,0,0,,0,,,72,127
36225,note_on,2,0,0,,2,,,74,127
36388,note_off,163,0,0,,2,,,74,127
36388,note_off,0,0,0,,0,,,48,127
36390,note_on,2,0,0,,4,,,76,127
36390,note_on,0,0,0,,2,,,50,127
36553,note_off,163,0,0,,4,,,76,127
36555,note_on,2,0,0,,5,,,77,127
36718,note_off,163,0,0,,5,,,77,127
36718,note_off,0,0,0,,2,,,50,127
36720,note_on,2,0,0,,7,,,79,127
36720,note_on,0,0,0,,4,,,52,127
36883,note_off,163,0,0,,7,,,79,127
36885,note_on,2,0,0,,8,,,80,127
37048,note_off,163,0,0,,8,,,80,127
37048,note_off,0,0,0,,4,,,52,127
37050,note_on,2,0,0,,10,,,81,127
37050,note_on,0,0,0,,5,,,53,127
37215,note_on,165,0,0,,10,,,69,127
37376,note_off,161,0,0,,10,,,81,127
37378,note_off,2,0,0,,10,,,69,127
37378,note_off,0,0,0,,5,,,53,127
37380,note_on,2,0,0,,4,,,76,127
37380,note_on,0,0,0,,7,,,55,127
37461,note_off,81,0,0,,4,,,76,127
37463,note_on,2,0,0,,2,,,74,127
37544,note_off,81,0,0,,2,,,74,127
37546,note_on,2,0,0,,4,,,76,127
37627,note_off,81,0,0,,4,,,76,127
37629,note_on,2,0,0,,2,,,74,127
37710,note_off,81,0,0,,2,,,74,127
37712,note_on,2,0,0,,4,,,76,127
37712,note_on,0,0,0,,7,,,43,127
37793,note_off,81,0,0,,4,,,76,127
37795,note_on,2,0,0,,2,,,74,127
37876,note_off,81,0,0,,2,,,74,127
37877,note_off,1,0,0,,7,,,55,127
37878,note_on,1,0,0,,0,,,72,127
37959,note_off,81,0,0,,0,,,72,127
37961,note_on,2,0,0,,2,,,74,127
38042,note_off,81,0,0,,2,,,74,127
38042,note_off,0,0,0,,7,,,43,127
38044,note_on,2,0,0,,0,,,72,127
38044,note_on,0,0,0,,0,,,36,127
38044,note_on,0,0,0,,0,,,48,127
38701,note_off,657,0,0,,0,,,72,127
39029,note_off,328,0,0,,0,,,48,127
39029,note_off,0,0,0,,0,,,36,127
39031,note_on,2,0,0,,7,,,67,127
39031,note_on,0,0,0,,4,,,76,127
39031,note_on,0,0,0,,0,,,60,127
39358,note_off,327,0,0,,4,,,76,127
39358,note_off,0,0,0,,7,,,67,127
39360,note_on,2,0,0,,4,,,76,127
39360,note_on,0,0,0,,7,,,67,127
39360,note_on,0,0,0,,0,,,48,127
39687,note_off,327,0,0,,0,,,48,127
39689,note_on,2,0,0,,0,,,48,127
39852,note_off,163,0,0,,4,,,76,127
39854,note_on,2,0,0,,5,,,77,127
40017,note_off,163,0,0,,5,,,77,127
40017,note_off,0,0,0,,0,,,48,127
40017,note_off,0,0,0,,0,,,60,127
40018,note_off,1,0,0,,7,,,67,127
40019,note_on,1,0,0,,4,,,76,127
40019,note_on,0,0,0,,7,,,67,127
40019,note_on,0,0,0,,0,,,60,127
40346,note_off,327,0,0,,7,,,67,127
40346,note_off,0,0,0,,4,,,76,127
40348,note_on,2,0,0,,4,,,76,127
40348,note_on,0,0,0,,7,,,67,127
40348,note_on,0,0,0,,0,,,48,127
40675,note_off,327,0,0,,0,,,48,127
40677,note_on,2,0,0,,0,,,48,127
40840,note_off,163,0,0,,4,,,76,127
40842,note_on,2,0,0,,5,,,77,127
41005,note_off,163,0,0,,5,,,77,127
41005,note_off,0,0,0,,0,,,48,127
41005,note_off,0,0,0,,0,,,60,127
41006,note_off,1,0,0,,7,,,67,127
41007,note_on,1,0,0,,4,,,76,127
41007,note_on,0,0,0,,7,,,67,127
41007,note_on,0,0,0,,0,,,60,127
41334,note_off,327,0,0,,0,,,60,127
41334,note_off,0,0,0,,7,,,67,127
41336,note_on,2,0,0,,7,,,67,127
41336,note_on,0,0,0,,11,,,58,127
41663,note_off,327,0,0,,11,,,58,127
41663,note_off,0,0,0,,7,,,67,127
41665,note_on,2,0,0,,10,,,69,127
41665,note_on,0,0,0,,10,,,57,127
41992,note_off,327,0,0,,10,,,57,127
41992,note_off,0,0,0,,10,,,69,127
41994,note_on,2,0,0,,11,,,70,127
41994,note_on,0,0,0,,7,,,55,127
42318,note_off,324,0,0,,4,,,76,127
42321,note_off,3,0,0,,11,,,70,127
42323,note_on,2,0,0,,1,,,73,127
42323,note_on,0,0,0,,4,,,76,127
42650,note_off,327,0,0,,4,,,76,127
42650,note_off,0,0,0,,1,,,73,127
42652,note_on,2,0,0,,5,,,77,127
42652,note_on,0,0,0,,2,,,74,127
42979,note_off,327,0,0,,2,,,74,127
42979,note_off,0,0,0,,5,,,77,127
42979,note_off,0,0,0,,7,,,55,127
42981,note_on,2,0,0,,7,,,79,127
42981,note_on,0,0,0,,7,,,43,127
43144,note_off,163,0,0,,7,,,79,127
43146,note_on,2,0,0,,5,,,77,127
43309,note_off,163,0,0,,5,,,77,127
43311,note_on,2,0,0,,4,,,76,127
43474,note_off,163,0,0,,4,,,76,127
43476,note_on,2,0,0,,2,,,74,127
43639,note_off,163,0,0,,2,,,74,127
43639,note_off,0,0,0,,7,,,43,127
43641,note_on,2,0,0,,1,,,73,127
43641,note_on,0,0,0,,7,,,55,127
43804,note_off,163,0,0,,1,,,73,127
43806,note_on,2,0,0,,2,,,74,127
43969,note_off,163,0,0,,2,,,74,127
43969,note_off,0,0,0,,7,,,55,127
43971,note_on,2,0,0,,2,,,74,127
43971,note_on,0,0,0,,10,,,57,127
44052,note_off,81,0,0,,2,,,74,127
44054,note_on,2,0,0,,1,,,73,127
44135,note_off,81,0,0,,1,,,73,127
44137,note_on,2,0,0,,2,,,74,127
44218,note_off,81,0,0,,2,,,74,127
44220,note_on,2,0,0,,1,,,73,127
44301,note_off,81,0,0,,1,,,73,127
44303,note_on,2,0,0,,2,,,74,127
44384,note_off,81,0,0,,2,,,74,127
44386,note_on,2,0,0,,1,,,73,127
44467,note_off,81,0,0,,1,,,73,127
44469,note_on,2,0,0,,12,,,71,127
44632,note_off,163,0,0,,12,,,71,127
44634,note_on,2,0,0,,10,,,69,127
44634,note_on,0,0,0,,10,,,45,127
44961,note_off,327,0,0,,10,,,45,127
44961,note_off,0,0,0,,10,,,57,127
44963,note_on,2,0,0,,10,,,57,127
45044,note_off,81,0,0,,10,,,69,127
45046,note_on,2,0,0,,10,,,69,127
45127,note_off,81,0,0,,10,,,69,127
45129,note_on,2,0,0,,12,,,71,127
45210,note_off,81,0,0,,12,,,71,127
45212,note_on,2,0,0,,1,,,73,127
45293,note_off,81,0,0,,1,,,73,127
45295,note_on,2,0,0,,2,,,74,127
45376,note_off,81,0,0,,2,,,74,127
45378,note_on,2,0,0,,4,,,76,127
45459,note_off,81,0,0,,4,,,76,127
45461,note_on,2,0,0,,5,,,77,127
45542,note_off,81,0,0,,5,,,77,127
45544,note_on,2,0,0,,7,,,79,127
45625,note_off,81,0,0,,7,,,79,127
45625,note_off,0,0,0,,10,,,57,127
45627,note_on,2,0,0,,10,,,81,127
45627,note_on,0,0,0,,4,,,64,127
45627,note_on,0,0,0,,1,,,61,127
45790,note_off,163,0,0,,10,,,81,127
45792,note_on,2,0,0,,7,,,79,127
45955,note_off,163,0,0,,7,,,79,127
45955,note_off,0,0,0,,1,,,61,127
45955,note_off,0,0,0,,4,,,64,127
45957,note_on,2,0,0,,5,,,77,127
45957,note_on,0,0,0,,2,,,62,127
45957,note_on,0,0,0,,5,,,65,127
46120,note_off,163,0,0,,5,,,77,127
46122,note_on,2,0,0,,4,,,76,127
46285,note_off,163,0,0,,5,,,65,127
46285,note_off,0,0,0,,2,,,62,127
46287,note_on,2,0,0,,7,,,67,127
46287,note_on,0,0,0,,4,,,64,127
46450,note_off,163,0,0,,4,,,76,127
46452,note_on,2,0,0,,1,,,73,127
46615,note_off,163,0,0,,4,,,64,127
46615,note_off,0,0,0,,7,,,67,127
46617,note_on,2,0,0,,10,,,69,127
46617,note_on,0,0,0,,5,,,65,127
46780,note_off,163,0,0,,1,,,73,127
46782,note_on,2,0,0,,2,,,74,127
46945,note_off,163,0,0,,2,,,74,127
46945,note_off,0,0,0,,5,,,65,127
46945,note_off,0,0,0,,10,,,69,127
46947,note_on,2,0,0,,10,,,57,127
47029,note_on,82,0,0,,10,,,69,127
47110,note_off,81,0,0,,10,,,69,127
47112,note_on,2,0,0,,12,,,71,127
47193,note_off,81,0,0,,12,,,71,127
47195,note_on,2,0,0,,1,,,73,127
47276,note_off,81,0,0,,1,,,73,127
47278,note_on,2,0,0,,2,,,74,127
47359,note_off,81,0,0,,2,,,74,127
47361,note_on,2,0,0,,4,,,76,127
47442,note_off,81,0,0,,4,,,76,127
47444,note_on,2,0,0,,5,,,77,127
47525,note_off,81,0,0,,5,,,77,127
47527,note_on,2,0,0,,7,,,79,127
47608,note_off,81,0,0,,7,,,79,127
47608,note_off,0,0,0,,10,,,57,127
47610,note_on,2,0,0,,10,,,81,127
47610,note_on,0,0,0,,4,,,64,127
47610,note_on,0,0,0,,1,,,61,127
47773,note_off,163,0,0,,10,,,81,127
47775,note_on,2,0,0,,7,,,79,127
47938,note_off,163,0,0,,7,,,79,127
47938,note_off,0,0,0,,1,,,61,127
47938,note_off,0,0,0,,4,,,64,127
47940,note_on,2,0,0,,5,,,77,127
47940,note_on,0,0,0,,5,,,65,127
47940,note_on,0,0,0,,2,,,62,127
48103,note_off,163,0,0,,5,,,77,127
48105,note_on,2,0,0,,4,,,76,127
48268,note_off,163,0,0,,2,,,62,127
48268,note_off,0,0,0,,5,,,65,127
48270,note_on,2,0,0,,4,,,64,127
48270,note_on,0,0,0,,7,,,67,127
48433,note_off,163,0,0,,4,,,76,127
48435,note_on,2,0,0,,1,,,73,127
48598,note_off,163,0,0,,7,,,67,127
48598,note_off,0,0,0,,4,,,64,127
48600,note_on,2,0,0,,10,,,69,127
48600,note_on,0,0,0,,5,,,65,127
48763,note_off,163,0,0,,1,,,73,127
48765,note_on,2,0,0,,2,,,74,127
48928,note_off,163,0,0,,5,,,65,127
48928,note_off,0,0,0,,10,,,69,127
48930,note_on,2,0,0,,7,,,67,127
49093,note_off,163,0,0,,2,,,74,127
49095,note_on,2,0,0,,11,,,82,127
49258,note_off,163,0,0,,11,,,82,127
49260,note_on,2,0,0,,7,,,79,127
49423,note_off,163,0,0,,7,,,79,127
49425,note_on,2,0,0,,4,,,76,127
49588,note_off,163,0,0,,4,,,76,127
49588,note_off,0,0,0,,7,,,67,127
49590,note_on,2,0,0,,1,,,73,127
49590,note_on,0,0,0,,7,,,55,127
49753,note_off,163,0,0,,1,,,73,127
49755,note_on,2,0,0,,11,,,70,127
49918,note_off,163,0,0,,11,,,70,127
49918,note_off,0,0,0,,7,,,55,127
49920,note_on,2,0,0,,10,,,69,127
49920,note_on,0,0,0,,5,,,53,127
50085,note_on,165,0,0,,10,,,81,127
50167,note_off,82,0,0,,10,,,69,127
50248,note_off,81,0,0,,5,,,53,127
50250,note_on,2,0,0,,2,,,62,127
50413,note_off,163,0,0,,10,,,81,127
50415,note_on,2,0,0,,5,,,77,127
50578,note_off,163,0,0,,2,,,62,127
50580,note_on,2,0,0,,11,,,58,127
50743,note_off,163,0,0,,5,,,77,127
50745,note_on,2,0,0,,2,,,74,127
50908,note_off,163,0,0,,2,,,74,127
50908,note_off,0,0,0,,11,,,58,127
50910,note_on,2,0,0,,7,,,79,127
50910,note_on,0,0,0,,7,,,55,127
51073,note_off,163,0,0,,7,,,79,127
51075,note_on,2,0,0,,4,,,76,127
51238,note_off,163,0,0,,4,,,76,127
51238,note_off,0,0,0,,7,,,55,127
51240,note_on,2,0,0,,5,,,77,127
51240,note_on,0,0,0,,10,,,57,127
51403,note_off,163,0,0,,5,,,77,127
51405,note_on,2,0,0,,2,,,74,127
51568,note_off,163,0,0,,2,,,74,127
51570,note_on,2,0,0,,4,,,76,127
51570,note_on,0,0,0,,10,,,45,127
51733,note_off,163,0,0,,4,,,76,127
51735,note_on,2,0,0,,1,,,73,127
51898,note_off,163,0,0,,1,,,73,127
51898,note_off,0,0,0,,10,,,45,127
51899,note_off,1,0,0,,10,,,57,127
51900,note_on,1,0,0,,2,,,74,127
51900,note_on,0,0,0,,2,,,62,127
51900,note_on,0,0,0,,2,,,50,127
52065,note_on,165,0,0,,2,,,86,127
52228,note_off,163,0,0,,2,,,50,127
52228,note_off,0,0,0,,2,,,62,127
52230,note_on,2,0,0,,2,,,62,127
52230,note_on,0,0,0,,2,,,50,127
52393,note_off,163,0,0,,2,,,86,127
52394,note_off,1,0,0,,2,,,74,127
52395,note_on,1,0,0,,12,,,83,127
52558,note_off,163,0,0,,2,,,50,127
52558,note_off,0,0,0,,2,,,62,127
52560,note_on,2,0,0,,2,,,62,127
52560,note_on,0,0,0,,2,,,50,127
52723,note_off,163,0,0,,12,,,83,127
52725,note_on,2,0,0,,10,,,81,127
52888,note_off,163,0,0,,10,,,81,127
52888,note_off,0,0,0,,2,,,50,127
52888,note_off,0,0,0,,2,,,62,127
52890,note_on,2,0,0,,8,,,80,127
52890,note_on,0,0,0,,4,,,52,127
52890,note_on,0,0,0,,2,,,62,127
53053,note_off,163,0,0,,8,,,80,127
53055,note_on,2,0,0,,2,,,74,127
53218,note_off,163,0,0,,2,,,62,127
53218,note_off,0,0,0,,4,,,52,127
53220,note_on,2,0,0,,2,,,62,127
53220,note_on,0,0,0,,4,,,52,127
53383,note_off,163,0,0,,2,,,74,127
53385,note_on,2,0,0,,2,,,74,127
53548,note_off,163,0,0,,2,,,74,127
53548,note_off,0,0,0,,4,,,52,127
53548,note_off,0,0,0,,2,,,62,127
53550,note_on,2,0,0,,2,,,74,127
53550,note_on,0,0,0,,2,,,62,127
53550,note_on,0,0,0,,4,,,52,127
53631,note_off,81,0,0,,2,,,74,127
53633,note_on,2,0,0,,0,,,72,127
53714,note_off,81,0,0,,0,,,72,127
53716,note_on,2,0,0,,12,,,71,127
53879,note_off,163,0,0,,12,,,71,127
53879,note_off,0,0,0,,4,,,52,127
53879,note_off,0,0,0,,2,,,62,127
53881,note_on,2,0,0,,0,,,72,127
53881,note_on,0,0,0,,0,,,60,127
53881,note_on,0,0,0,,4,,,52,127
54046,note_on,165,0,0,,0,,,84,127
54209,note_off,163,0,0,,4,,,52,127
54209,note_off,0,0,0,,0,,,60,127
54211,note_on,2,0,0,,0,,,60,127
54211,note_on,0,0,0,,4,,,52,127
54374,note_off,163,0,0,,0,,,84,127
54375,note_off,1,0,0,,0,,,72,127
54376,note_on,1,0,0,,10,,,81,127
54539,note_off,163,0,0,,4,,,52,127
54539,note_off,0,0,0,,0,,,60,127
54541,note_on,2,0,0,,0,,,60,127
54541,note_on,0,0,0,,4,,,52,127
54704,note_off,163,0,0,,10,,,81,127
54706,note_on,2,0,0,,7,,,79,127
54869,note_off,163,0,0,,7,,,79,127
54869,note_off,0,0,0,,4,,,52,127
54869,note_off,0,0,0,,0,,,60,127
54871,note_on,2,0,0,,6,,,78,127
54871,note_on,0,0,0,,2,,,50,127
54871,note_on,0,0,0,,0,,,60,127
55034,note_off,163,0,0,,6,,,78,127
55036,note_on,2,0,0,,0,,,72,127
55199,note_off,163,0,0,,0,,,60,127
55199,note_off,0,0,0,,2,,,50,127
55201,note_on,2,0,0,,0,,,60,127
55201,note_on,0,0,0,,2,,,50,127
55364,note_off,163,0,0,,0,,,72,127
55366,note_on,2,0,0,,0,,,72,127
55529,note_off,163,0,0,,0,,,72,127
55529,note_off,0,0,0,,2,,,50,127
55529,note_off,0,0,0,,0,,,60,127
55531,note_on,2,0,0,,0,,,72,127
55531,note_on,0,0,0,,0,,,60,127
55531,note_on,0,0,0,,2,,,50,127
55612,note_off,81,0,0,,0,,,72,127
55614,note_on,2,0,0,,11,,,70,127
55695,note_off,81,0,0,,11,,,70,127
55697,note_on,2,0,0,,10,,,69,127
55860,note_off,163,0,0,,10,,,69,127
55860,note_off,0,0,0,,2,,,50,127
55860,note_off,0,0,0,,0,,,60,127
55862,note_on,2,0,0,,11,,,70,127
55862,note_on,0,0,0,,11,,,58,127
55862,note_on,0,0,0,,2,,,50,127
56027,note_on,165,0,0,,11,,,82,127
56190,note_off,163,0,0,,2,,,50,127
56190,note_off,0,0,0,,11,,,58,127
56192,note_on,2,0,0,,11,,,58,127
56192,note_on,0,0,0,,2,,,50,127
56355,note_off,163,0,0,,11,,,82,127
56356,note_off,1,0,0,,11,,,70,127
56357,note_on,1,0,0,,7,,,79,127
56520,note_off,163,0,0,,2,,,50,127
56520,note_off,0,0,0,,11,,,58,127
56522,note_on,2,0,0,,11,,,58,127
56522,note_on,0,0,0,,2,,,50,127
56685,note_off,163,0,0,,7,,,79,127
56687,note_on,2,0,0,,5,,,77,127
56850,note_off,163,0,0,,5,,,77,127
56850,note_off,0,0,0,,2,,,50,127
56850,note_off,0,0,0,,11,,,58,127
56852,note_on,2,0,0,,4,,,76,127
56852,note_on,0,0,0,,0,,,48,127
56852,note_on,0,0,0,,11,,,58,127
57015,note_off,163,0,0,,4,,,76,127
57017,note_on,2,0,0,,11,,,70,127
57180,note_off,163,0,0,,11,,,58,127
57180,note_off,0,0,0,,0,,,48,127
57182,note_on,2,0,0,,0,,,48,127
57182,note_on,0,0,0,,11,,,58,127
57345,note_off,163,0,0,,11,,,70,127
57347,note_on,2,0,0,,11,,,70,127
57510,note_off,163,0,0,,11,,,70,127
57510,note_off,0,0,0,,11,,,58,127
57510,note_off,0,0,0,,0,,,48,127
57512,note_on,2,0,0,,11,,,70,127
57512,note_on,0,0,0,,11,,,58,127
57512,note_on,0,0,0,,0,,,48,127
57593,note_off,81,0,0,,11,,,70,127
57595,note_on,2,0,0,,10,,,69,127
57676,note_off,81,0,0,,10,,,69,127
57678,note_on,2,0,0,,7,,,67,127
57841,note_off,163,0,0,,7,,,67,127
57841,note_off,0,0,0,,0,,,48,127
57841,note_off,0,0,0,,11,,,58,127
57843,note_on,2,0,0,,10,,,69,127
57843,note_on,0,0,0,,5,,,53,127
57843,note_on,0,0,0,,10,,,57,127
58006,note_off,163,0,0,,10,,,69,127
58008,note_on,2,0,0,,11,,,70,127
58171,note_off,163,0,0,,10,,,57,127
58171,note_off,0,0,0,,5,,,53,127
58173,note_on,2,0,0,,7,,,55,127
58173,note_on,0,0,0,,11,,,58,127
58336,note_off,163,0,0,,11,,,70,127
58338,note_on,2,0,0,,0,,,72,127
58501,note_off,163,0,0,,11,,,58,127
58501,note_off,0,0,0,,7,,,55,127
58503,note_on,2,0,0,,10,,,57,127
58503,note_on,0,0,0,,0,,,60,127
58666,note_off,163,0,0,,0,,,72,127
58668,note_on,2,0,0,,1,,,73,127
58831,note_off,163,0,0,,0,,,60,127
58831,note_off,0,0,0,,10,,,57,127
58833,note_on,2,0,0,,11,,,58,127
58833,note_on,0,0,0,,2,,,62,127
58996,note_off,163,0,0,,1,,,73,127
58998,note_on,2,0,0,,2,,,74,127
59161,note_off,163,0,0,,2,,,62,127
59161,note_off,0,0,0,,11,,,58,127
59163,note_on,2,0,0,,7,,,55,127
59326,note_off,163,0,0,,2,,,74,127
59328,note_on,2,0,0,,7,,,67,127
59491,note_off,163,0,0,,7,,,55,127
59493,note_on,2,0,0,,12,,,59,127
59656,note_off,163,0,0,,7,,,67,127
59658,note_on,2,0,0,,5,,,65,127
59821,note_off,163,0,0,,5,,,65,127
59821,note_off,0,0,0,,12,,,59,127
59823,note_on,2,0,0,,5,,,65,127
59823,note_on,0,0,0,,0,,,60,127
59904,note_off,81,0,0,,5,,,65,127
59906,note_on,2,0,0,,4,,,64,127
59987,note_off,81,0,0,,4,,,64,127
59989,note_on,2,0,0,,5,,,65,127
60070,note_off,81,0,0,,5,,,65,127
60072,note_on,2,0,0,,4,,,64,127
60153,note_off,81,0,0,,4,,,64,127
60155,note_on,2,0,0,,5,,,65,127
60155,note_on,0,0,0,,0,,,48,127
60236,note_off,81,0,0,,5,,,65,127
60238,note_on,2,0,0,,4,,,64,127
60319,note_off,81,0,0,,4,,,64,127
60321,note_on,2,0,0,,2,,,62,127
60484,note_off,163,0,0,,2,,,62,127
60484,note_off,0,0,0,,0,,,60,127
60486,note_on,2,0,0,,0,,,60,127
60784,note_off,298,0,0,,0,,,60,127
60813,note_off,29,0,0,,0,,,48,127
60815,note_on,2,0,0,,0,,,60,127
60815,note_on,0,0,0,,0,,,48,127
60897,note_on,82,0,0,,0,,,72,127
60978,note_off,81,0,0,,0,,,72,127
60980,note_on,2,0,0,,2,,,74,127
61061,note_off,81,0,0,,2,,,74,127
61063,note_on,2,0,0,,4,,,76,127
61144,note_off,81,0,0,,4,,,76,127
61146,note_on,2,0,0,,5,,,77,127
61227,note_off,81,0,0,,5,,,77,127
61229,note_on,2,0,0,,7,,,79,127
61310,note_off,81,0,0,,7,,,79,127
61312,note_on,2,0,0,,10,,,81,127
61393,note_off,81,0,0,,10,,,81,127
61395,note_on,2,0,0,,11,,,82,127
61476,note_off,81,0,0,,11,,,82,127
61476,note_off,0,0,0,,0,,,48,127
61476,note_off,0,0,0,,0,,,60,127
61478,note_on,2,0,0,,0,,,84,127
61478,note_on,0,0,0,,4,,,64,127
61478,note_on,0,0,0,,7,,,67,127
61641,note_off,163,0,0,,0,,,84,127
61643,note_on,2,0,0,,11,,,82,127
61806,note_off,163,0,0,,11,,,82,127
61806,note_off,0,0,0,,7,,,67,127
61806,note_off,0,0,0,,4,,,64,127
61808,note_on,2,0,0,,10,,,81,127
61808,note_on,0,0,0,,5,,,65,127
61808,note_on,0,0,0,,10,,,69,127
61971,note_off,163,0,0,,10,,,81,127
61973,note_on,2,0,0,,7,,,79,127
62136,note_off,163,0,0,,10,,,69,127
62136,note_off,0,0,0,,5,,,65,127
62138,note_on,2,0,0,,7,,,67,127
62138,note_on,0,0,0,,11,,,70,127
62301,note_off,163,0,0,,7,,,79,127
62303,note_on,2,0,0,,4,,,76,127
62466,note_off,163,0,0,,11,,,70,127
62466,note_off,0,0,0,,7,,,67,127
62468,note_on,2,0,0,,10,,,69,127
62468,note_on,0,0,0,,0,,,72,127
62631,note_off,163,0,0,,4,,,76,127
62633,note_on,2,0,0,,5,,,77,127
62796,note_off,163,0,0,,5,,,77,127
62796,note_off,0,0,0,,0,,,72,127
62796,note_off,0,0,0,,10,,,69,127
62798,note_on,2,0,0,,0,,,60,127
62880,note_on,82,0,0,,0,,,72,127
62961,note_off,81,0,0,,0,,,72,127
62963,note_on,2,0,0,,2,,,74,127
63044,note_off,81,0,0,,2,,,74,127
63046,note_on,2,0,0,,4,,,76,127
63127,note_off,81,0,0,,4,,,76,127
63129,note_on,2,0,0,,5,,,77,127
63210,note_off,81,0,0,,5,,,77,127
63212,note_on,2,0,0,,7,,,79,127
63293,note_off,81,0,0,,7,,,79,127
63295,note_on,2,0,0,,10,,,81,127
63376,note_off,81,0,0,,10,,,81,127
63378,note_on,2,0,0,,11,,,82,127
63459,note_off,81,0,0,,11,,,82,127
63459,note_off,0,0,0,,0,,,60,127
63461,note_on,2,0,0,,0,,,84,127
63461,note_on,0,0,0,,7,,,67,127
63461,note_on,0,0,0,,4,,,64,127
63624,note_off,163,0,0,,0,,,84,127
63626,note_on,2,0,0,,11,,,82,127
63789,note_off,163,0,0,,11,,,82,127
63789,note_off,0,0,0,,4,,,64,127
63789,note_off,0,0,0,,7,,,67,127
63791,note_on,2,0,0,,10,,,81,127
63791,note_on,0,0,0,,10,,,69,127
63791,note_on,0,0,0,,5,,,65,127
63954,note_off,163,0,0,,10,,,81,127
63956,note_on,2,0,0,,7,,,79,127
64119,note_off,163,0,0,,5,,,65,127
64119,note_off,0,0,0,,10,,,69,127
64121,note_on,2,0,0,,11,,,70,127
64121,note_on,0,0,0,,7,,,67,127
64284,note_off,163,0,0,,7,,,79,127
64286,note_on,2,0,0,,4,,,76,127
64449,note_off,163,0,0,,7,,,67,127
64449,note_off,0,0,0,,11,,,70,127
64451,note_on,2,0,0,,0,,,72,127
64451,note_on,0,0,0,,10,,,69,127
64614,note_off,163,0,0,,4,,,76,127
64616,note_on,2,0,0,,5,,,77,127
64779,note_off,163,0,0,,10,,,69,127
64779,note_off,0,0,0,,0,,,72,127
64781,note_on,2,0,0,,11,,,58,127
64862,note_off,81,0,0,,5,,,77,127
64864,note_on,2,0,0,,2,,,74,127
64945,note_off,81,0,0,,2,,,74,127
64947,note_on,2,0,0,,4,,,76,127
65028,note_off,81,0,0,,4,,,76,127
65030,note_on,2,0,0,,5,,,77,127
65111,note_off,81,0,0,,5,,,77,127
65113,note_on,2,0,0,,7,,,79,127
65194,note_off,81,0,0,,7,,,79,127
65196,note_on,2,0,0,,10,,,81,127
65277,note_off,81,0,0,,10,,,81,127
65279,note_on,2,0,0,,11,,,82,127
65360,note_off,81,0,0,,11,,,82,127
65362,note_on,2,0,0,,0,,,84,127
65443,note_off,81,0,0,,0,,,84,127
65443,note_off,0,0,0,,11,,,58,127
65445,note_on,2,0,0,,2,,,86,127
65445,note_on,0,0,0,,11,,,70,127
65610,note_on,165,0,0,,4,,,76,127
65773,note_off,163,0,0,,4,,,76,127
65773,note_off,0,0,0,,11,,,70,127
65775,note_on,2,0,0,,5,,,77,127
65775,note_on,0,0,0,,10,,,69,127
65939,note_off,164,0,0,,2,,,86,127
65940,note_on,1,0,0,,0,,,84,127
66101,note_off,161,0,0,,5,,,77,127
66103,note_off,2,0,0,,10,,,69,127
66105,note_on,2,0,0,,7,,,67,127
66268,note_off,163,0,0,,0,,,84,127
66270,note_on,2,0,0,,11,,,82,127
66433,note_off,163,0,0,,7,,,67,127
66435,note_on,2,0,0,,5,,,65,127
66598,note_off,163,0,0,,11,,,82,127
66600,note_on,2,0,0,,10,,,81,127
66763,note_off,163,0,0,,5,,,65,127
66765,note_on,2,0,0,,11,,,58,127
66928,note_off,163,0,0,,10,,,81,127
66930,note_on,2,0,0,,7,,,79,127
67093,note_off,163,0,0,,11,,,58,127
67095,note_on,2,0,0,,0,,,60,127
67258,note_off,163,0,0,,7,,,79,127
67260,note_on,2,0,0,,5,,,77,127
67423,note_off,163,0,0,,0,,,60,127
67425,note_on,2,0,0,,0,,,48,127
67588,note_off,163,0,0,,5,,,77,127
67590,note_on,2,0,0,,4,,,76,127
67753,note_off,163,0,0,,4,,,76,127
67753,note_off,0,0,0,,0,,,48,127
67755,note_on,2,0,0,,4,,,76,127
67755,note_on,0,0,0,,5,,,53,127
68084,note_on,329,0,0,,5,,,41,127
68411,note_off,327,0,0,,4,,,76,127
68413,note_on,2,0,0,,5,,,77,127
68660,note_off,247,0,0,,5,,,77,127
68741,note_off,81,0,0,,5,,,53,127
68742,note_off,1,0,0,,5,,,41,127
68743,note_on,1,0,0,,10,,,81,127
68743,note_on,0,0,0,,0,,,72,127
68825,note_on,82,0,0,,0,,,48,127
68906,note_off,81,0,0,,0,,,48,127
68908,note_on,2,0,0,,2,,,50,127
68989,note_off,81,0,0,,2,,,50,127
68991,note_on,2,0,0,,4,,,52,127
69072,note_off,81,0,0,,4,,,52,127
69072,note_off,0,0,0,,10,,,81,127
69074,note_on,2,0,0,,7,,,79,127
69074,note_on,0,0,0,,5,,,53,127
69155,note_off,81,0,0,,5,,,53,127
69157,note_on,2,0,0,,7,,,55,127
69238,note_off,81,0,0,,7,,,55,127
69240,note_on,2,0,0,,10,,,57,127
69321,note_off,81,0,0,,10,,,57,127
69323,note_on,2,0,0,,11,,,58,127
69404,note_off,81,0,0,,11,,,58,127
69406,note_on,2,0,0,,0,,,60,127
69569,note_off,163,0,0,,0,,,60,127
69571,note_on,2,0,0,,11,,,58,127
69734,note_off,163,0,0,,11,,,58,127
69734,note_off,0,0,0,,0,,,72,127
69735,note_off,1,0,0,,7,,,79,127
69736,note_on,1,0,0,,10,,,57,127
69901,note_on,165,0,0,,10,,,81,127
69901,note_on,0,0,0,,5,,,77,127
70064,note_off,163,0,0,,10,,,57,127
70066,note_on,2,0,0,,7,,,55,127
70229,note_off,163,0,0,,5,,,77,127
70229,note_off,0,0,0,,10,,,81,127
70231,note_on,2,0,0,,7,,,79,127
70231,note_on,0,0,0,,11,,,82,127
70394,note_off,163,0,0,,7,,,55,127
70396,note_on,2,0,0,,5,,,53,127
70559,note_off,163,0,0,,11,,,82,127
70559,note_off,0,0,0,,7,,,79,127
70561,note_on,2,0,0,,0,,,84,127
70561,note_on,0,0,0,,10,,,81,127
70722,note_off,161,0,0,,5,,,53,127
70724,note_off,2,0,0,,10,,,81,127
70724,note_off,0,0,0,,0,,,84,127
70726,note_on,2,0,0,,10,,,81,127
70726,note_on,0,0,0,,0,,,72,127
70808,note_on,82,0,0,,0,,,48,127
70889,note_off,81,0,0,,0,,,48,127
70891,note_on,2,0,0,,2,,,50,127
70972,note_off,81,0,0,,2,,,50,127
70974,note_on,2,0,0,,4,,,52,127
71055,note_off,81,0,0,,4,,,52,127
71055,note_off,0,0,0,,10,,,81,127
71057,note_on,2,0,0,,7,,,79,127
71057,note_on,0,0,0,,5,,,53,127
71138,note_off,81,0,0,,5,,,53,127
71140,note_on,2,0,0,,7,,,55,127
71221,note_off,81,0,0,,7,,,55,127
71223,note_on,2,0,0,,10,,,57,127
71304,note_off,81,0,0,,10,,,57,127
71306,note_on,2,0,0,,11,,,58,127
71387,note_off,81,0,0,,11,,,58,127
71389,note_on,2,0,0,,0,,,60,127
71552,note_off,163,0,0,,0,,,60,127
71554,note_on,2,0,0,,11,,,58,127
71717,note_off,163,0,0,,11,,,58,127
71717,note_off,0,0,0,,0,,,72,127
71718,note_off,1,0,0,,7,,,79,127
71719,note_on,1,0,0,,10,,,57,127
71884,note_on,165,0,0,,5,,,77,127
71884,note_on,0,0,0,,10,,,81,127
72047,note_off,163,0,0,,10,,,57,127
72049,note_on,2,0,0,,7,,,55,127
72212,note_off,163,0,0,,10,,,81,127
72212,note_off,0,0,0,,5,,,77,127
72214,note_on,2,0,0,,7,,,79,127
72214,note_on,0,0,0,,11,,,82,127
72377,note_off,163,0,0,,7,,,55,127
72379,note_on,2,0,0,,5,,,53,127
72542,note_off,163,0,0,,11,,,82,127
72542,note_off,0,0,0,,7,,,79,127
72544,note_on,2,0,0,,0,,,84,127
72544,note_on,0,0,0,,10,,,81,127
72705,note_off,161,0,0,,5,,,53,127
72707,note_off,2,0,0,,10,,,81,127
72707,note_off,0,0,0,,0,,,84,127
72709,note_on,2,0,0,,2,,,74,127
72709,note_on,0,0,0,,2,,,86,127
72791,note_on,82,0,0,,11,,,46,127
72872,note_off,81,0,0,,11,,,46,127
72874,note_on,2,0,0,,0,,,48,127
72955,note_off,81,0,0,,0,,,48,127
72957,note_on,2,0,0,,2,,,50,127
73038,note_off,81,0,0,,2,,,50,127
73040,note_on,2,0,0,,4,,,52,127
73121,note_off,81,0,0,,4,,,52,127
73123,note_on,2,0,0,,5,,,53,127
73204,note_off,81,0,0,,5,,,53,127
73206,note_on,2,0,0,,7,,,55,127
73287,note_off,81,0,0,,7,,,55,127
73289,note_on,2,0,0,,10,,,57,127
73370,note_off,81,0,0,,10,,,57,127
73372,note_on,2,0,0,,11,,,58,127
73535,note_off,163,0,0,,2,,,86,127
73535,note_off,0,0,0,,2,,,74,127
73537,note_on,2,0,0,,4,,,76,127
73537,note_on,0,0,0,,2,,,86,127
73700,note_off,163,0,0,,2,,,86,127
73700,note_off,0,0,0,,4,,,76,127
73700,note_off,0,0,0,,11,,,58,127
73702,note_on,2,0,0,,2,,,86,127
73702,note_on,0,0,0,,5,,,77,127
73702,note_on,0,0,0,,10,,,57,127
73865,note_off,163,0,0,,2,,,86,127
73867,note_on,2,0,0,,0,,,84,127
74028,note_off,161,0,0,,5,,,77,127
74030,note_off,2,0,0,,10,,,57,127
74032,note_on,2,0,0,,7,,,55,127
74195,note_off,163,0,0,,0,,,84,127
74197,note_on,2,0,0,,11,,,82,127
74360,note_off,163,0,0,,7,,,55,127
74362,note_on,2,0,0,,5,,,53,127
74525,note_off,163,0,0,,11,,,82,127
74527,note_on,2,0,0,,10,,,81,127
74690,note_off,163,0,0,,5,,,53,127
74692,note_on,2,0,0,,11,,,58,127
74855,note_off,163,0,0,,10,,,81,127
74857,note_on,2,0,0,,7,,,79,127
75020,note_off,163,0,0,,11,,,58,127
75022,note_on,2,0,0,,0,,,60,127
75185,note_off,163,0,0,,7,,,79,127
75187,note_on,2,0,0,,5,,,77,127
75352,note_on,165,0,0,,0,,,48,127
75515,note_off,163,0,0,,5,,,77,127
75517,note_on,2,0,0,,4,,,76,127
75680,note_off,163,0,0,,4,,,76,127
75680,note_off,0,0,0,,0,,,48,127
75681,note_off,1,0,0,,0,,,60,127
75682,note_on,1,0,0,,5,,,77,127
75682,note_on,0,0,0,,5,,,53,127
75845,note_off,163,0,0,,5,,,77,127
75847,note_on,2,0,0,,7,,,79,127
76010,note_off,163,0,0,,7,,,79,127
76010,note_off,0,0,0,,5,,,53,127
76012,note_on,2,0,0,,10,,,81,127
76012,note_on,0,0,0,,7,,,55,127
76175,note_off,163,0,0,,10,,,81,127
76177,note_on,2,0,0,,11,,,82,127
76340,note_off,163,0,0,,11,,,82,127
76340,note_off,0,0,0,,7,,,55,127
76342,note_on,2,0,0,,0,,,84,127
76342,note_on,0,0,0,,10,,,57,127
76505,note_off,163,0,0,,0,,,84,127
76507,note_on,2,0,0,,1,,,85,127
76670,note_off,163,0,0,,1,,,85,127
76670,note_off,0,0,0,,10,,,57,127
76672,note_on,2,0,0,,2,,,86,127
76672,note_on,0,0,0,,11,,,58,127
76837,note_on,165,0,0,,2,,,74,127
76998,note_off,161,0,0,,2,,,86,127
77000,note_off,2,0,0,,2,,,74,127
77000,note_off,0,0,0,,11,,,58,127
77002,note_on,2,0,0,,10,,,81,127
77002,note_on,0,0,0,,0,,,60,127
77083,note_off,81,0,0,,10,,,81,127
77085,note_on,2,0,0,,7,,,79,127
77166,note_off,81,0,0,,7,,,79,127
77168,note_on,2,0,0,,10,,,81,127
77249,note_off,81,0,0,,10,,,81,127
77251,note_on,2,0,0,,7,,,79,127
77332,note_off,81,0,0,,7,,,79,127
77334,note_on,2,0,0,,10,,,81,127
77334,note_on,0,0,0,,0,,,48,127
77415,note_off,81,0,0,,10,,,81,127
77417,note_on,2,0,0,,7,,,79,127
77498,note_off,81,0,0,,7,,,79,127
77500,note_on,2,0,0,,5,,,77,127
77581,note_off,81,0,0,,5,,,77,127
77583,note_on,2,0,0,,7,,,79,127
77664,note_off,81,0,0,,7,,,79,127
77664,note_off,0,0,0,,0,,,48,127
77665,note_off,1,0,0,,0,,,60,127
77666,note_on,1,0,0,,10,,,81,127
77666,note_on,0,0,0,,5,,,53,127
77829,note_off,163,0,0,,10,,,81,127
77831,note_on,2,0,0,,5,,,77,127
77994,note_off,163,0,0,,5,,,77,127
77994,note_off,0,0,0,,5,,,53,127
77996,note_on,2,0,0,,4,,,76,127
77996,note_on,0,0,0,,7,,,55,127
78159,note_off,163,0,0,,4,,,76,127
78161,note_on,2,0,0,,7,,,79,127
78324,note_off,163,0,0,,7,,,79,127
78324,note_off,0,0,0,,7,,,55,127
78326,note_on,2,0,0,,5,,,77,127
78326,note_on,0,0,0,,10,,,57,127
78489,note_off,163,0,0,,5,,,77,127
78491,note_on,2,0,0,,0,,,72,127
78654,note_off,163,0,0,,0,,,72,127
78654,note_off,0,0,0,,10,,,57,127
78656,note_on,2,0,0,,2,,,74,127
78656,note_on,0,0,0,,11,,,58,127
78819,note_off,163,0,0,,2,,,74,127
78821,note_on,2,0,0,,11,,,70,127
78984,note_off,163,0,0,,11,,,70,127
78984,note_off,0,0,0,,11,,,58,127
78986,note_on,2,0,0,,5,,,65,127
78986,note_on,0,0,0,,0,,,60,127
79313,note_off,327,0,0,,5,,,65,127
79315,note_on,2,0,0,,4,,,64,127
79315,note_on,0,0,0,,0,,,48,127
79642,note_off,327,0,0,,0,,,48,127
79642,note_off,0,0,0,,4,,,64,127
79643,note_off,1,0,0,,0,,,60,127
79644,note_on,1,0,0,,5,,,65,127
79644,note_on,0,0,0,,5,,,53,127
79644,note_on,0,0,0,,5,,,41,127
81615,note_off,1971,0,0,,5,,,41,127
81615,note_off,0,0,0,,5,,,53,127
81615,note_off,0,0,0,,5,,,65,127
84480,end_of_track,2865,1,0,,,,,,
