tick,type,time,meta,track,program,channel,pitch,tempo,note,velocity
0,copyright,0,1,0,,,,,,
0,program_change,0,0,0,6,0,,,,
0,pitchwheel,0,0,0,,0,0,,,
0,program_change,0,0,0,6,1,,,,
0,pitchwheel,0,0,0,,1,-590,,,
0,program_change,0,0,0,6,2,,,,
0,pitchwheel,0,0,0,,2,-272,,,
0,program_change,0,0,0,6,3,,,,
0,pitchwheel,0,0,0,,3,-353,,,
0,program_change,0,0,0,6,4,,,,
0,pitchwheel,0,0,0,,4,-560,,,
0,program_change,0,0,0,6,5,,,,
0,pitchwheel,0,0,0,,5,-80,,,
0,program_change,0,0,0,6,6,,,,
0,pitchwheel,0,0,0,,6,-625,,,
0,program_change,0,0,0,6,7,,,,
0,pitchwheel,0,0,0,,7,-130,,,
0,program_change,0,0,0,6,8,,,,
0,pitchwheel,0,0,0,,8,-512,,,
0,program_change,0,0,0,6,10,,,,
0,pitchwheel,0,0,0,,10,-464,,,
0,program_change,0,0,0,6,11,,,,
0,pitchwheel,0,0,0,,11,-208,,,
0,program_change,0,0,0,6,12,,,,
0,pitchwheel,0,0,0,,12,-553,,,
0,set_tempo,0,1,0,,,,500000,,
96,note_on,96,0,0,,10,,,81,127
222,note_off,126,0,0,,10,,,81,127
224,note_on,2,0,0,,6,,,78,127
350,note_off,126,0,0,,6,,,78,127
352,note_on,2,0,0,,2,,,74,127
478,note_off,126,0,0,,2,,,74,127
480,note_on,2,0,0,,4,,,64,127
480,note_on,0,0,0,,1,,,73,127
862,note_off,382,0,0,,4,,,64,127
864,note_on,2,0,0,,7,,,67,127
1246,note_off,382,0,0,,7,,,67,127
1246,note_off,0,0,0,,1,,,73,127
1248,note_on,2,0,0,,6,,,66,127
1248,note_on,0,0,0,,2,,,74,127
1628,note_off,380,0,0,,6,,,66,127
1630,note_off,2,0,0,,2,,,74,127
1632,note_on,2,0,0,,4,,,76,127
1758,note_off,126,0,0,,4,,,76,127
1760,note_on,2,0,0,,1,,,73,127
1886,note_off,126,0,0,,1,,,73,127
1888,note_on,2,0,0,,10,,,69,127
2014,note_off,126,0,0,,10,,,69,127
2016,note_on,2,0,0,,1,,,61,127
2016,note_on,0,0,0,,7,,,67,127
2398,note_off,382,0,0,,1,,,61,127
2400,note_on,2,0,0,,4,,,64,127
2782,note_off,382,0,0,,4,,,64,127
2782,note_off,0,0,0,,7,,,67,127
2784,note_on,2,0,0,,2,,,62,127
2784,note_on,0,0,0,,6,,,66,127
3164,note_off,380,0,0,,2,,,62,127
3166,note_off,2,0,0,,6,,,66,127
3168,note_on,2,0,0,,11,,,70,127
3294,note_off,126,0,0,,11,,,70,127
3296,note_on,2,0,0,,12,,,71,127
3550,note_off,254,0,0,,12,,,71,127
3552,note_on,2,0,0,,7,,,55,127
3552,note_on,0,0,0,,4,,,64,127
3552,note_on,0,0,0,,3,,,75,127
3678,note_off,126,0,0,,3,,,75,127
3680,note_on,2,0,0,,4,,,76,127
3934,note_off,254,0,0,,4,,,76,127
3934,note_off,0,0,0,,4,,,64,127
3934,note_off,0,0,0,,7,,,55,127
3936,note_on,2,0,0,,4,,,64,127
3936,note_on,0,0,0,,7,,,55,127
3936,note_on,0,0,0,,10,,,81,127
4190,note_off,254,0,0,,10,,,81,127
4192,note_on,2,0,0,,7,,,79,127
4318,note_off,126,0,0,,7,,,55,127
4318,note_off,0,0,0,,4,,,64,127
4320,note_on,2,0,0,,4,,,64,127
4320,note_on,0,0,0,,7,,,55,127
4446,note_off,126,0,0,,7,,,79,127
4448,note_on,2,0,0,,6,,,78,127
4574,note_off,126,0,0,,6,,,78,127
4576,note_on,2,0,0,,4,,,76,127
4702,note_off,126,0,0,,4,,,76,127
4702,note_off,0,0,0,,7,,,55,127
4702,note_off,0,0,0,,4,,,64,127
4704,note_on,2,0,0,,4,,,64,127
4704,note_on,0,0,0,,7,,,55,127
4704,note_on,0,0,0,,2,,,74,127
4894,note_off,190,0,0,,2,,,74,127
4896,note_on,2,0,0,,1,,,73,127
5086,note_off,190,0,0,,1,,,73,127
5086,note_off,0,0,0,,7,,,55,127
5086,note_off,0,0,0,,4,,,64,127
5088,note_on,2,0,0,,6,,,54,127
5088,note_on,0,0,0,,2,,,62,127
5088,note_on,0,0,0,,1,,,73,127
5278,note_off,190,0,0,,1,,,73,127
5280,note_on,2,0,0,,2,,,74,127
5470,note_off,190,0,0,,2,,,62,127
5470,note_off,0,0,0,,6,,,54,127
5472,note_on,2,0,0,,2,,,62,127
5472,note_on,0,0,0,,6,,,54,127
5660,note_off,188,0,0,,2,,,74,127
5854,note_off,194,0,0,,6,,,54,127
5854,note_off,0,0,0,,2,,,62,127
5856,note_on,2,0,0,,6,,,66,127
5856,note_on,0,0,0,,10,,,69,127
5856,note_on,0,0,0,,2,,,74,127
6238,note_off,382,0,0,,2,,,74,127
6238,note_off,0,0,0,,10,,,69,127
6238,note_off,0,0,0,,6,,,66,127
6240,note_on,2,0,0,,4,,,64,127
6240,note_on,0,0,0,,7,,,67,127
6240,note_on,0,0,0,,4,,,76,127
6240,note_on,0,0,0,,2,,,74,127
6366,note_off,126,0,0,,2,,,74,127
6366,note_off,0,0,0,,4,,,76,127
6368,note_on,2,0,0,,1,,,73,127
6622,note_off,254,0,0,,1,,,73,127
6622,note_off,0,0,0,,7,,,67,127
6622,note_off,0,0,0,,4,,,64,127
6624,note_on,2,0,0,,6,,,66,127
6624,note_on,0,0,0,,2,,,62,127
6624,note_on,0,0,0,,1,,,73,127
6750,note_off,126,0,0,,1,,,73,127
6752,note_on,2,0,0,,12,,,71,127
7006,note_off,254,0,0,,12,,,71,127
7006,note_off,0,0,0,,2,,,62,127
7006,note_off,0,0,0,,6,,,66,127
7008,note_on,2,0,0,,1,,,61,127
7008,note_on,0,0,0,,4,,,64,127
7008,note_on,0,0,0,,12,,,71,127
7134,note_off,126,0,0,,12,,,71,127
7136,note_on,2,0,0,,10,,,69,127
7390,note_off,254,0,0,,10,,,69,127
7390,note_off,0,0,0,,1,,,61,127
7392,note_on,2,0,0,,10,,,57,127
7392,note_on,0,0,0,,4,,,76,127
7518,note_off,126,0,0,,4,,,76,127
7520,note_on,2,0,0,,7,,,67,127
7774,note_off,254,0,0,,7,,,67,127
7774,note_off,0,0,0,,10,,,57,127
7775,note_off,1,0,0,,4,,,64,127
7776,note_on,1,0,0,,2,,,62,127
7776,note_on,0,0,0,,10,,,69,127
7776,note_on,0,0,0,,7,,,67,127
8158,note_off,382,0,0,,7,,,67,127
8158,note_off,0,0,0,,10,,,69,127
8160,note_on,2,0,0,,2,,,50,127
8160,note_on,0,0,0,,6,,,66,127
8542,note_off,382,0,0,,2,,,50,127
8543,note_off,1,0,0,,2,,,62,127
8544,note_on,1,0,0,,2,,,62,127
8926,note_off,382,0,0,,2,,,62,127
8926,note_off,0,0,0,,6,,,66,127
8928,note_on,2,0,0,,1,,,61,127
8928,note_on,0,0,0,,4,,,64,127
8928,note_on,0,0,0,,10,,,69,127
9310,note_off,382,0,0,,10,,,69,127
9310,note_off,0,0,0,,4,,,64,127
9310,note_off,0,0,0,,1,,,61,127
9312,note_on,2,0,0,,2,,,62,127
9312,note_on,0,0,0,,12,,,59,127
9312,note_on,0,0,0,,10,,,69,127
9438,note_off,126,0,0,,10,,,69,127
9440,note_on,2,0,0,,8,,,68,127
9694,note_off,254,0,0,,8,,,68,127
9694,note_off,0,0,0,,12,,,59,127
9694,note_off,0,0,0,,2,,,62,127
9696,note_on,2,0,0,,10,,,57,127
9696,note_on,0,0,0,,2,,,62,127
9696,note_on,0,0,0,,12,,,71,127
9822,note_off,126,0,0,,12,,,71,127
9824,note_on,2,0,0,,10,,,69,127
10078,note_off,254,0,0,,10,,,69,127
10078,note_off,0,0,0,,2,,,62,127
10078,note_off,0,0,0,,10,,,57,127
10080,note_on,2,0,0,,8,,,56,127
10080,note_on,0,0,0,,2,,,62,127
10080,note_on,0,0,0,,1,,,73,127
10206,note_off,126,0,0,,1,,,73,127
10208,note_on,2,0,0,,12,,,71,127
10462,note_off,254,0,0,,12,,,71,127
10462,note_off,0,0,0,,2,,,62,127
10462,note_off,0,0,0,,8,,,56,127
10464,note_on,2,0,0,,6,,,54,127
10464,note_on,0,0,0,,2,,,62,127
10464,note_on,0,0,0,,4,,,76,127
10590,note_off,126,0,0,,4,,,76,127
10592,note_on,2,0,0,,2,,,74,127
10846,note_off,254,0,0,,2,,,74,127
10846,note_off,0,0,0,,2,,,62,127
10846,note_off,0,0,0,,6,,,54,127
10848,note_on,2,0,0,,4,,,52,127
10848,note_on,0,0,0,,2,,,62,127
10848,note_on,0,0,0,,8,,,80,127
11102,note_off,254,0,0,,8,,,80,127
11104,note_on,2,0,0,,6,,,78,127
11230,note_off,126,0,0,,2,,,62,127
11230,note_off,0,0,0,,4,,,52,127
11232,note_on,2,0,0,,8,,,56,127
11232,note_on,0,0,0,,2,,,62,127
11358,note_off,126,0,0,,6,,,78,127
11360,note_on,2,0,0,,4,,,76,127
11486,note_off,126,0,0,,4,,,76,127
11488,note_on,2,0,0,,2,,,74,127
11614,note_off,126,0,0,,2,,,74,127
11614,note_off,0,0,0,,2,,,62,127
11614,note_off,0,0,0,,8,,,56,127
11616,note_on,2,0,0,,10,,,57,127
11616,note_on,0,0,0,,1,,,73,127
11998,note_off,382,0,0,,1,,,73,127
11998,note_off,0,0,0,,10,,,57,127
12000,note_on,2,0,0,,10,,,57,127
12000,note_on,0,0,0,,4,,,64,127
12000,note_on,0,0,0,,1,,,73,127
12382,note_off,382,0,0,,1,,,73,127
12382,note_off,0,0,0,,4,,,64,127
12382,note_off,0,0,0,,10,,,57,127
12384,note_on,2,0,0,,6,,,66,127
12384,note_on,0,0,0,,2,,,62,127
12384,note_on,0,0,0,,1,,,73,127
12510,note_off,126,0,0,,1,,,73,127
12512,note_on,2,0,0,,12,,,71,127
12766,note_off,254,0,0,,12,,,71,127
12766,note_off,0,0,0,,2,,,62,127
12766,note_off,0,0,0,,6,,,66,127
12768,note_on,2,0,0,,1,,,61,127
12768,note_on,0,0,0,,4,,,64,127
12768,note_on,0,0,0,,2,,,74,127
12894,note_off,126,0,0,,2,,,74,127
12896,note_on,2,0,0,,1,,,73,127
13150,note_off,254,0,0,,1,,,73,127
13150,note_off,0,0,0,,4,,,64,127
13150,note_off,0,0,0,,1,,,61,127
13152,note_on,2,0,0,,12,,,59,127
13152,note_on,0,0,0,,2,,,62,127
13152,note_on,0,0,0,,4,,,76,127
13278,note_off,126,0,0,,4,,,76,127
13280,note_on,2,0,0,,2,,,74,127
13534,note_off,254,0,0,,2,,,74,127
13534,note_off,0,0,0,,2,,,62,127
13534,note_off,0,0,0,,12,,,59,127
13536,note_on,2,0,0,,10,,,57,127
13536,note_on,0,0,0,,2,,,62,127
13536,note_on,0,0,0,,6,,,78,127
13662,note_off,126,0,0,,6,,,78,127
13664,note_on,2,0,0,,4,,,76,127
13918,note_off,254,0,0,,4,,,76,127
13918,note_off,0,0,0,,2,,,62,127
13918,note_off,0,0,0,,10,,,57,127
13920,note_on,2,0,0,,8,,,56,127
13920,note_on,0,0,0,,2,,,62,127
13920,note_on,0,0,0,,4,,,64,127
13920,note_on,0,0,0,,12,,,83,127
14302,note_off,382,0,0,,4,,,64,127
14302,note_off,0,0,0,,2,,,62,127
14302,note_off,0,0,0,,8,,,56,127
14304,note_on,2,0,0,,8,,,56,127
14304,note_on,0,0,0,,2,,,62,127
14304,note_on,0,0,0,,4,,,64,127
14494,note_off,190,0,0,,12,,,83,127
14496,note_on,2,0,0,,1,,,85,127
14590,note_off,94,0,0,,1,,,85,127
14592,note_on,2,0,0,,2,,,86,127
14686,note_off,94,0,0,,2,,,86,127
14686,note_off,0,0,0,,4,,,64,127
14686,note_off,0,0,0,,2,,,62,127
14686,note_off,0,0,0,,8,,,56,127
14688,note_on,2,0,0,,10,,,57,127
14688,note_on,0,0,0,,4,,,64,127
14688,note_on,0,0,0,,1,,,85,127
15028,note_off,340,0,0,,1,,,85,127
15070,note_off,42,0,0,,4,,,64,127
15070,note_off,0,0,0,,10,,,57,127
15072,note_on,2,0,0,,1,,,61,127
15072,note_on,0,0,0,,10,,,69,127
15072,note_on,0,0,0,,4,,,76,127
15454,note_off,382,0,0,,4,,,76,127
15454,note_off,0,0,0,,10,,,69,127
15454,note_off,0,0,0,,1,,,61,127
15456,note_on,2,0,0,,2,,,62,127
15456,note_on,0,0,0,,10,,,69,127
15456,note_on,0,0,0,,6,,,78,127
15838,note_off,382,0,0,,10,,,69,127
15838,note_off,0,0,0,,2,,,62,127
15840,note_on,2,0,0,,2,,,62,127
15840,note_on,0,0,0,,10,,,69,127
16030,note_off,190,0,0,,6,,,78,127
16032,note_on,2,0,0,,8,,,80,127
16126,note_off,94,0,0,,8,,,80,127
16128,note_on,2,0,0,,10,,,81,127
16222,note_off,94,0,0,,10,,,81,127
16222,note_off,0,0,0,,10,,,69,127
16222,note_off,0,0,0,,2,,,62,127
16224,note_on,2,0,0,,3,,,63,127
16224,note_on,0,0,0,,10,,,69,127
16224,note_on,0,0,0,,12,,,71,127
16606,note_off,382,0,0,,10,,,69,127
16606,note_off,0,0,0,,3,,,63,127
16608,note_on,2,0,0,,3,,,63,127
16608,note_on,0,0,0,,10,,,69,127
16798,note_off,190,0,0,,12,,,71,127
16800,note_on,2,0,0,,1,,,73,127
16894,note_off,94,0,0,,1,,,73,127
16896,note_on,2,0,0,,2,,,74,127
16990,note_off,94,0,0,,2,,,74,127
16990,note_off,0,0,0,,10,,,69,127
16990,note_off,0,0,0,,3,,,63,127
16992,note_on,2,0,0,,10,,,69,127
16992,note_on,0,0,0,,4,,,64,127
16992,note_on,0,0,0,,1,,,73,127
17118,note_off,126,0,0,,1,,,73,127
17120,note_on,2,0,0,,2,,,74,127
17246,note_off,126,0,0,,2,,,74,127
17248,note_on,2,0,0,,4,,,76,127
17374,note_off,126,0,0,,4,,,64,127
17374,note_off,0,0,0,,10,,,69,127
17376,note_on,2,0,0,,4,,,64,127
17376,note_on,0,0,0,,8,,,68,127
17566,note_off,190,0,0,,4,,,76,127
17568,note_on,2,0,0,,2,,,74,127
17662,note_off,94,0,0,,2,,,74,127
17664,note_on,2,0,0,,1,,,73,127
17758,note_off,94,0,0,,1,,,73,127
17758,note_off,0,0,0,,8,,,68,127
17758,note_off,0,0,0,,4,,,64,127
17760,note_on,2,0,0,,4,,,52,127
17760,note_on,0,0,0,,12,,,71,127
18142,note_off,382,0,0,,12,,,71,127
18144,note_on,2,0,0,,12,,,71,127
18526,note_off,382,0,0,,12,,,71,127
18527,note_off,1,0,0,,4,,,52,127
18528,note_on,1,0,0,,11,,,70,127
18654,note_off,126,0,0,,11,,,70,127
18656,note_on,2,0,0,,12,,,71,127
18910,note_off,254,0,0,,12,,,71,127
18912,note_on,2,0,0,,6,,,66,127
18912,note_on,0,0,0,,2,,,62,127
18912,note_on,0,0,0,,4,,,76,127
19038,note_off,126,0,0,,4,,,76,127
19040,note_on,2,0,0,,2,,,74,127
19294,note_off,254,0,0,,2,,,74,127
19294,note_off,0,0,0,,2,,,62,127
19294,note_off,0,0,0,,6,,,66,127
19296,note_on,2,0,0,,6,,,66,127
19296,note_on,0,0,0,,2,,,62,127
19296,note_on,0,0,0,,11,,,70,127
19422,note_off,126,0,0,,11,,,70,127
19424,note_on,2,0,0,,12,,,71,127
19678,note_off,254,0,0,,12,,,71,127
19678,note_off,0,0,0,,2,,,62,127
19678,note_off,0,0,0,,6,,,66,127
19680,note_on,2,0,0,,2,,,62,127
19680,note_on,0,0,0,,6,,,66,127
19680,note_on,0,0,0,,12,,,83,127
19774,note_off,94,0,0,,12,,,83,127
19776,note_on,2,0,0,,10,,,81,127
19870,note_off,94,0,0,,10,,,81,127
19872,note_on,2,0,0,,8,,,80,127
20062,note_off,190,0,0,,8,,,80,127
20062,note_off,0,0,0,,6,,,66,127
20062,note_off,0,0,0,,2,,,62,127
20064,note_on,2,0,0,,2,,,62,127
20064,note_on,0,0,0,,4,,,64,127
20064,note_on,0,0,0,,10,,,81,127
20254,note_off,190,0,0,,10,,,81,127
20256,note_on,2,0,0,,8,,,80,127
20446,note_off,190,0,0,,8,,,80,127
20446,note_off,0,0,0,,4,,,64,127
20446,note_off,0,0,0,,2,,,62,127
20448,note_on,2,0,0,,4,,,64,127
20448,note_on,0,0,0,,1,,,61,127
20448,note_on,0,0,0,,8,,,80,127
20638,note_off,190,0,0,,8,,,80,127
20640,note_on,2,0,0,,10,,,81,127
20830,note_off,190,0,0,,1,,,61,127
20830,note_off,0,0,0,,4,,,64,127
20832,note_on,2,0,0,,1,,,61,127
20832,note_on,0,0,0,,4,,,64,127
21214,note_off,382,0,0,,4,,,64,127
21214,note_off,0,0,0,,1,,,61,127
21214,note_off,0,0,0,,10,,,81,127
21216,note_on,2,0,0,,10,,,69,127
21216,note_on,0,0,0,,1,,,61,127
21216,note_on,0,0,0,,4,,,76,127
21598,note_off,382,0,0,,4,,,76,127
21598,note_off,0,0,0,,1,,,61,127
21598,note_off,0,0,0,,10,,,69,127
21600,note_on,2,0,0,,2,,,62,127
21600,note_on,0,0,0,,10,,,69,127
21600,note_on,0,0,0,,6,,,78,127
21726,note_off,126,0,0,,6,,,78,127
21728,note_on,2,0,0,,10,,,81,127
21854,note_off,126,0,0,,10,,,81,127
21856,note_on,2,0,0,,12,,,71,127
21982,note_off,126,0,0,,12,,,71,127
21982,note_off,0,0,0,,10,,,69,127
21982,note_off,0,0,0,,2,,,62,127
21984,note_on,2,0,0,,2,,,62,127
21984,note_on,0,0,0,,6,,,66,127
21984,note_on,0,0,0,,4,,,76,127
21984,note_on,0,0,0,,2,,,74,127
22110,note_off,126,0,0,,2,,,74,127
22110,note_off,0,0,0,,4,,,76,127
22112,note_on,2,0,0,,1,,,73,127
22238,note_off,126,0,0,,1,,,73,127
22240,note_on,2,0,0,,12,,,71,127
22366,note_off,126,0,0,,12,,,71,127
22366,note_off,0,0,0,,6,,,66,127
22366,note_off,0,0,0,,2,,,62,127
22368,note_on,2,0,0,,4,,,64,127
22368,note_on,0,0,0,,10,,,69,127
22750,note_off,382,0,0,,10,,,69,127
22752,note_on,2,0,0,,4,,,52,127
22752,note_on,0,0,0,,1,,,73,127
22814,note_off,62,0,0,,1,,,73,127
22816,note_on,2,0,0,,12,,,71,127
22878,note_off,62,0,0,,12,,,71,127
22880,note_on,2,0,0,,1,,,73,127
22942,note_off,62,0,0,,1,,,73,127
22944,note_on,2,0,0,,12,,,71,127
23006,note_off,62,0,0,,12,,,71,127
23008,note_on,2,0,0,,1,,,73,127
23070,note_off,62,0,0,,1,,,73,127
23072,note_on,2,0,0,,12,,,71,127
23132,note_off,60,0,0,,4,,,52,127
23134,note_off,2,0,0,,12,,,71,127
23135,note_off,1,0,0,,4,,,64,127
23136,note_on,1,0,0,,6,,,78,127
23262,note_off,126,0,0,,6,,,78,127
23264,note_on,2,0,0,,10,,,81,127
23390,note_off,126,0,0,,10,,,81,127
23392,note_on,2,0,0,,12,,,71,127
23518,note_off,126,0,0,,12,,,71,127
23520,note_on,2,0,0,,2,,,62,127
23520,note_on,0,0,0,,6,,,66,127
23520,note_on,0,0,0,,4,,,76,127
23520,note_on,0,0,0,,2,,,74,127
23646,note_off,126,0,0,,2,,,74,127
23646,note_off,0,0,0,,4,,,76,127
23648,note_on,2,0,0,,1,,,73,127
23774,note_off,126,0,0,,1,,,73,127
23776,note_on,2,0,0,,12,,,71,127
23902,note_off,126,0,0,,12,,,71,127
23902,note_off,0,0,0,,6,,,66,127
23902,note_off,0,0,0,,2,,,62,127
23904,note_on,2,0,0,,4,,,64,127
23904,note_on,0,0,0,,10,,,69,127
24286,note_off,382,0,0,,10,,,69,127
24288,note_on,2,0,0,,4,,,52,127
24288,note_on,0,0,0,,1,,,73,127
24350,note_off,62,0,0,,1,,,73,127
24352,note_on,2,0,0,,12,,,71,127
24414,note_off,62,0,0,,12,,,71,127
24416,note_on,2,0,0,,1,,,73,127
24478,note_off,62,0,0,,1,,,73,127
24480,note_on,2,0,0,,12,,,71,127
24542,note_off,62,0,0,,12,,,71,127
24544,note_on,2,0,0,,1,,,73,127
24606,note_off,62,0,0,,1,,,73,127
24608,note_on,2,0,0,,12,,,71,127
24668,note_off,60,0,0,,4,,,52,127
24670,note_off,2,0,0,,12,,,71,127
24671,note_off,1,0,0,,4,,,64,127
24672,note_on,1,0,0,,12,,,71,127
24862,note_off,190,0,0,,12,,,71,127
24864,note_on,2,0,0,,0,,,72,127
25054,note_off,190,0,0,,0,,,72,127
25056,note_on,2,0,0,,4,,,64,127
25056,note_on,0,0,0,,0,,,72,127
25438,note_off,382,0,0,,4,,,64,127
25440,note_on,2,0,0,,5,,,65,127
25630,note_off,190,0,0,,0,,,72,127
25632,note_on,2,0,0,,12,,,71,127
25726,note_off,94,0,0,,12,,,71,127
25728,note_on,2,0,0,,10,,,69,127
25822,note_off,94,0,0,,10,,,69,127
25822,note_off,0,0,0,,5,,,65,127
25824,note_on,2,0,0,,5,,,65,127
25824,note_on,0,0,0,,3,,,75,127
25950,note_off,126,0,0,,3,,,75,127
25952,note_on,2,0,0,,4,,,76,127
26078,note_off,126,0,0,,4,,,76,127
26080,note_on,2,0,0,,10,,,69,127
26206,note_off,126,0,0,,10,,,69,127
26206,note_off,0,0,0,,5,,,65,127
26208,note_on,2,0,0,,4,,,64,127
26208,note_on,0,0,0,,10,,,69,127
26208,note_on,0,0,0,,12,,,71,127
26334,note_off,126,0,0,,12,,,71,127
26334,note_off,0,0,0,,10,,,69,127
26336,note_on,2,0,0,,8,,,68,127
26462,note_off,126,0,0,,8,,,68,127
26464,note_on,2,0,0,,4,,,76,127
26590,note_off,126,0,0,,4,,,76,127
26590,note_off,0,0,0,,4,,,64,127
26592,note_on,2,0,0,,4,,,52,127
26592,note_on,0,0,0,,4,,,64,127
26592,note_on,0,0,0,,2,,,74,127
26974,note_off,382,0,0,,4,,,64,127
26974,note_off,0,0,0,,4,,,52,127
26976,note_on,2,0,0,,5,,,53,127
26976,note_on,0,0,0,,4,,,64,127
27166,note_off,190,0,0,,2,,,74,127
27168,note_on,2,0,0,,0,,,72,127
27262,note_off,94,0,0,,0,,,72,127
27264,note_on,2,0,0,,12,,,71,127
27358,note_off,94,0,0,,12,,,71,127
27358,note_off,0,0,0,,4,,,64,127
27358,note_off,0,0,0,,5,,,53,127
27360,note_on,2,0,0,,4,,,64,127
27360,note_on,0,0,0,,5,,,53,127
27360,note_on,0,0,0,,10,,,69,127
27486,note_off,126,0,0,,10,,,69,127
27488,note_on,2,0,0,,8,,,68,127
27614,note_off,126,0,0,,8,,,68,127
27616,note_on,2,0,0,,10,,,69,127
27742,note_off,126,0,0,,10,,,69,127
27742,note_off,0,0,0,,5,,,53,127
27742,note_off,0,0,0,,4,,,64,127
27744,note_on,2,0,0,,4,,,52,127
27744,note_on,0,0,0,,0,,,60,127
27744,note_on,0,0,0,,12,,,71,127
27806,note_off,62,0,0,,12,,,71,127
27808,note_on,2,0,0,,10,,,69,127
27870,note_off,62,0,0,,10,,,69,127
27872,note_on,2,0,0,,12,,,71,127
27934,note_off,62,0,0,,12,,,71,127
27936,note_on,2,0,0,,10,,,69,127
27998,note_off,62,0,0,,10,,,69,127
28000,note_on,2,0,0,,12,,,71,127
28062,note_off,62,0,0,,12,,,71,127
28064,note_on,2,0,0,,10,,,69,127
28126,note_off,62,0,0,,10,,,69,127
28126,note_off,0,0,0,,0,,,60,127
28126,note_off,0,0,0,,4,,,52,127
28128,note_on,2,0,0,,4,,,52,127
28128,note_on,0,0,0,,12,,,59,127
28128,note_on,0,0,0,,8,,,68,127
28508,note_off,380,0,0,,12,,,59,127
28703,note_off,195,0,0,,8,,,68,127
28894,note_off,191,0,0,,4,,,52,127
28896,note_on,2,0,0,,10,,,69,127
28896,note_on,0,0,0,,1,,,61,127
28896,note_on,0,0,0,,4,,,76,127
29278,note_off,382,0,0,,4,,,76,127
29278,note_off,0,0,0,,1,,,61,127
29278,note_off,0,0,0,,10,,,69,127
29280,note_on,2,0,0,,2,,,62,127
29280,note_on,0,0,0,,10,,,69,127
29280,note_on,0,0,0,,6,,,78,127
29406,note_off,126,0,0,,6,,,78,127
29408,note_on,2,0,0,,10,,,81,127
29534,note_off,126,0,0,,10,,,81,127
29536,note_on,2,0,0,,12,,,71,127
29662,note_off,126,0,0,,12,,,71,127
29662,note_off,0,0,0,,10,,,69,127
29662,note_off,0,0,0,,2,,,62,127
29664,note_on,2,0,0,,2,,,62,127
29664,note_on,0,0,0,,6,,,66,127
29664,note_on,0,0,0,,4,,,76,127
29664,note_on,0,0,0,,2,,,74,127
29790,note_off,126,0,0,,2,,,74,127
29790,note_off,0,0,0,,4,,,76,127
29792,note_on,2,0,0,,1,,,73,127
29918,note_off,126,0,0,,1,,,73,127
29920,note_on,2,0,0,,12,,,71,127
30046,note_off,126,0,0,,12,,,71,127
30046,note_off,0,0,0,,6,,,66,127
30046,note_off,0,0,0,,2,,,62,127
30048,note_on,2,0,0,,4,,,64,127
30048,note_on,0,0,0,,10,,,69,127
30430,note_off,382,0,0,,10,,,69,127
30432,note_on,2,0,0,,4,,,52,127
30432,note_on,0,0,0,,1,,,73,127
30494,note_off,62,0,0,,1,,,73,127
30496,note_on,2,0,0,,12,,,71,127
30558,note_off,62,0,0,,12,,,71,127
30560,note_on,2,0,0,,1,,,73,127
30622,note_off,62,0,0,,1,,,73,127
30624,note_on,2,0,0,,12,,,71,127
30686,note_off,62,0,0,,12,,,71,127
30688,note_on,2,0,0,,1,,,73,127
30750,note_off,62,0,0,,1,,,73,127
30752,note_on,2,0,0,,12,,,71,127
30812,note_off,60,0,0,,4,,,52,127
30814,note_off,2,0,0,,12,,,71,127
30815,note_off,1,0,0,,4,,,64,127
30816,note_on,1,0,0,,12,,,83,127
30942,note_off,126,0,0,,12,,,83,127
30944,note_on,2,0,0,,8,,,80,127
31070,note_off,126,0,0,,8,,,80,127
31072,note_on,2,0,0,,2,,,74,127
31198,note_off,126,0,0,,2,,,74,127
31200,note_on,2,0,0,,6,,,54,127
31200,note_on,0,0,0,,2,,,62,127
31200,note_on,0,0,0,,10,,,69,127
31582,note_off,382,0,0,,2,,,62,127
31582,note_off,0,0,0,,6,,,54,127
31584,note_on,2,0,0,,4,,,52,127
31584,note_on,0,0,0,,1,,,61,127
31966,note_off,382,0,0,,1,,,61,127
31966,note_off,0,0,0,,4,,,52,127
31966,note_off,0,0,0,,10,,,69,127
31968,note_on,2,0,0,,12,,,59,127
31968,note_on,0,0,0,,2,,,50,127
31968,note_on,0,0,0,,1,,,73,127
32030,note_off,62,0,0,,1,,,73,127
32032,note_on,2,0,0,,12,,,71,127
32094,note_off,62,0,0,,12,,,71,127
32096,note_on,2,0,0,,1,,,73,127
32158,note_off,62,0,0,,1,,,73,127
32160,note_on,2,0,0,,12,,,71,127
32222,note_off,62,0,0,,12,,,71,127
32224,note_on,2,0,0,,1,,,73,127
32286,note_off,62,0,0,,1,,,73,127
32288,note_on,2,0,0,,12,,,71,127
32350,note_off,62,0,0,,12,,,71,127
32352,note_on,2,0,0,,12,,,83,127
32478,note_off,126,0,0,,12,,,83,127
32480,note_on,2,0,0,,8,,,80,127
32543,note_off,63,0,0,,2,,,50,127
32543,note_off,0,0,0,,12,,,59,127
32606,note_off,63,0,0,,8,,,80,127
32608,note_on,2,0,0,,2,,,74,127
32734,note_off,126,0,0,,2,,,74,127
32736,note_on,2,0,0,,6,,,54,127
32736,note_on,0,0,0,,2,,,62,127
32736,note_on,0,0,0,,10,,,69,127
32862,note_off,126,0,0,,6,,,54,127
32864,note_on,2,0,0,,4,,,52,127
32990,note_off,126,0,0,,4,,,52,127
32992,note_on,2,0,0,,2,,,50,127
33116,note_off,124,0,0,,2,,,62,127
33118,note_off,2,0,0,,2,,,50,127
33120,note_on,2,0,0,,4,,,52,127
33120,note_on,0,0,0,,1,,,61,127
33502,note_off,382,0,0,,1,,,61,127
33502,note_off,0,0,0,,4,,,52,127
33502,note_off,0,0,0,,10,,,69,127
33504,note_on,2,0,0,,4,,,40,127
33504,note_on,0,0,0,,4,,,52,127
33504,note_on,0,0,0,,1,,,73,127
33566,note_off,62,0,0,,1,,,73,127
33568,note_on,2,0,0,,12,,,71,127
33630,note_off,62,0,0,,12,,,71,127
33632,note_on,2,0,0,,1,,,73,127
33694,note_off,62,0,0,,1,,,73,127
33696,note_on,2,0,0,,12,,,71,127
33758,note_off,62,0,0,,12,,,71,127
33760,note_on,2,0,0,,10,,,69,127
33822,note_off,62,0,0,,10,,,69,127
33824,note_on,2,0,0,,12,,,71,127
33886,note_off,62,0,0,,12,,,71,127
33886,note_off,0,0,0,,4,,,52,127
33886,note_off,0,0,0,,4,,,40,127
33888,note_on,2,0,0,,10,,,45,127
33888,note_on,0,0,0,,10,,,69,127
35288,note_off,1400,0,0,,10,,,69,127
35388,note_off,100,0,0,,10,,,45,127
35424,note_on,36,0,0,,4,,,76,127
35550,note_off,126,0,0,,4,,,76,127
35552,note_on,2,0,0,,1,,,73,127
35678,note_off,126,0,0,,1,,,73,127
35680,note_on,2,0,0,,10,,,69,127
35806,note_off,126,0,0,,10,,,69,127
35808,note_on,2,0,0,,1,,,61,127
35808,note_on,0,0,0,,10,,,69,127
35870,note_off,62,0,0,,10,,,69,127
35872,note_on,2,0,0,,7,,,67,127
35934,note_off,62,0,0,,7,,,67,127
35936,note_on,2,0,0,,10,,,69,127
35998,note_off,62,0,0,,10,,,69,127
36000,note_on,2,0,0,,7,,,67,127
36062,note_off,62,0,0,,7,,,67,127
36064,note_on,2,0,0,,10,,,69,127
36126,note_off,62,0,0,,10,,,69,127
36128,note_on,2,0,0,,7,,,67,127
36190,note_off,62,0,0,,7,,,67,127
36190,note_off,0,0,0,,1,,,61,127
36192,note_on,2,0,0,,4,,,64,127
36192,note_on,0,0,0,,10,,,69,127
36254,note_off,62,0,0,,10,,,69,127
36256,note_on,2,0,0,,7,,,67,127
36318,note_off,62,0,0,,7,,,67,127
36320,note_on,2,0,0,,10,,,69,127
36382,note_off,62,0,0,,10,,,69,127
36384,note_on,2,0,0,,7,,,67,127
36446,note_off,62,0,0,,7,,,67,127
36448,note_on,2,0,0,,10,,,69,127
36510,note_off,62,0,0,,10,,,69,127
36512,note_on,2,0,0,,7,,,67,127
36574,note_off,62,0,0,,7,,,67,127
36574,note_off,0,0,0,,4,,,64,127
36576,note_on,2,0,0,,2,,,62,127
36576,note_on,0,0,0,,6,,,66,127
36956,note_off,380,0,0,,2,,,62,127
36958,note_off,2,0,0,,6,,,66,127
36960,note_on,2,0,0,,6,,,78,127
37086,note_off,126,0,0,,6,,,78,127
37088,note_on,2,0,0,,7,,,79,127
37214,note_off,126,0,0,,7,,,79,127
37216,note_on,2,0,0,,4,,,76,127
37342,note_off,126,0,0,,4,,,76,127
37344,note_on,2,0,0,,4,,,64,127
37344,note_on,0,0,0,,1,,,73,127
37406,note_off,62,0,0,,1,,,73,127
37408,note_on,2,0,0,,12,,,71,127
37470,note_off,62,0,0,,12,,,71,127
37472,note_on,2,0,0,,1,,,73,127
37534,note_off,62,0,0,,1,,,73,127
37536,note_on,2,0,0,,12,,,71,127
37598,note_off,62,0,0,,12,,,71,127
37600,note_on,2,0,0,,1,,,73,127
37662,note_off,62,0,0,,1,,,73,127
37664,note_on,2,0,0,,12,,,71,127
37726,note_off,62,0,0,,12,,,71,127
37726,note_off,0,0,0,,4,,,64,127
37728,note_on,2,0,0,,7,,,67,127
37728,note_on,0,0,0,,1,,,73,127
37790,note_off,62,0,0,,1,,,73,127
37792,note_on,2,0,0,,12,,,71,127
37854,note_off,62,0,0,,12,,,71,127
37856,note_on,2,0,0,,1,,,73,127
37918,note_off,62,0,0,,1,,,73,127
37920,note_on,2,0,0,,12,,,71,127
37982,note_off,62,0,0,,12,,,71,127
37984,note_on,2,0,0,,1,,,73,127
38046,note_off,62,0,0,,1,,,73,127
38048,note_on,2,0,0,,12,,,71,127
38110,note_off,62,0,0,,12,,,71,127
38110,note_off,0,0,0,,7,,,67,127
38112,note_on,2,0,0,,6,,,66,127
38112,note_on,0,0,0,,11,,,70,127
38492,note_off,380,0,0,,6,,,66,127
38494,note_off,2,0,0,,11,,,70,127
38496,note_on,2,0,0,,1,,,85,127
38622,note_off,126,0,0,,1,,,85,127
38624,note_on,2,0,0,,11,,,82,127
38750,note_off,126,0,0,,11,,,82,127
38752,note_on,2,0,0,,7,,,79,127
38878,note_off,126,0,0,,7,,,79,127
38880,note_on,2,0,0,,11,,,70,127
38880,note_on,0,0,0,,6,,,78,127
38942,note_off,62,0,0,,6,,,78,127
38944,note_on,2,0,0,,4,,,76,127
39006,note_off,62,0,0,,4,,,76,127
39008,note_on,2,0,0,,6,,,78,127
39070,note_off,62,0,0,,6,,,78,127
39072,note_on,2,0,0,,4,,,76,127
39134,note_off,62,0,0,,4,,,76,127
39136,note_on,2,0,0,,6,,,78,127
39198,note_off,62,0,0,,6,,,78,127
39200,note_on,2,0,0,,4,,,76,127
39262,note_off,62,0,0,,4,,,76,127
39262,note_off,0,0,0,,11,,,70,127
39264,note_on,2,0,0,,1,,,73,127
39264,note_on,0,0,0,,6,,,78,127
39326,note_off,62,0,0,,6,,,78,127
39328,note_on,2,0,0,,4,,,76,127
39390,note_off,62,0,0,,4,,,76,127
39392,note_on,2,0,0,,6,,,78,127
39454,note_off,62,0,0,,6,,,78,127
39456,note_on,2,0,0,,4,,,76,127
39518,note_off,62,0,0,,4,,,76,127
39520,note_on,2,0,0,,6,,,78,127
39582,note_off,62,0,0,,6,,,78,127
39584,note_on,2,0,0,,4,,,76,127
39646,note_off,62,0,0,,4,,,76,127
39646,note_off,0,0,0,,1,,,73,127
39648,note_on,2,0,0,,12,,,71,127
39648,note_on,0,0,0,,2,,,74,127
40030,note_off,382,0,0,,2,,,74,127
40030,note_off,0,0,0,,12,,,71,127
40032,note_on,2,0,0,,4,,,64,127
40032,note_on,0,0,0,,12,,,71,127
40032,note_on,0,0,0,,0,,,72,127
40414,note_off,382,0,0,,0,,,72,127
40414,note_off,0,0,0,,12,,,71,127
40414,note_off,0,0,0,,4,,,64,127
40416,note_on,2,0,0,,4,,,64,127
40416,note_on,0,0,0,,10,,,69,127
40416,note_on,0,0,0,,2,,,74,127
40478,note_off,62,0,0,,2,,,74,127
40480,note_on,2,0,0,,0,,,72,127
40542,note_off,62,0,0,,0,,,72,127
40544,note_on,2,0,0,,2,,,74,127
40606,note_off,62,0,0,,2,,,74,127
40608,note_on,2,0,0,,0,,,72,127
40670,note_off,62,0,0,,0,,,72,127
40672,note_on,2,0,0,,12,,,71,127
40734,note_off,62,0,0,,12,,,71,127
40736,note_on,2,0,0,,0,,,72,127
40798,note_off,62,0,0,,0,,,72,127
40798,note_off,0,0,0,,10,,,69,127
40798,note_off,0,0,0,,4,,,64,127
40800,note_on,2,0,0,,3,,,63,127
40800,note_on,0,0,0,,10,,,69,127
40800,note_on,0,0,0,,12,,,71,127
41182,note_off,382,0,0,,12,,,71,127
41182,note_off,0,0,0,,10,,,69,127
41182,note_off,0,0,0,,3,,,63,127
41184,note_on,2,0,0,,7,,,67,127
41184,note_on,0,0,0,,4,,,64,127
41184,note_on,0,0,0,,12,,,71,127
41566,note_off,382,0,0,,12,,,71,127
41566,note_off,0,0,0,,4,,,64,127
41566,note_off,0,0,0,,7,,,67,127
41568,note_on,2,0,0,,4,,,64,127
41568,note_on,0,0,0,,0,,,60,127
41568,note_on,0,0,0,,12,,,71,127
41568,note_on,0,0,0,,4,,,76,127
41950,note_off,382,0,0,,4,,,76,127
41950,note_off,0,0,0,,12,,,71,127
41950,note_off,0,0,0,,0,,,60,127
41950,note_off,0,0,0,,4,,,64,127
41952,note_on,2,0,0,,0,,,60,127
41952,note_on,0,0,0,,4,,,64,127
41952,note_on,0,0,0,,10,,,69,127
41952,note_on,0,0,0,,4,,,76,127
42334,note_off,382,0,0,,4,,,76,127
42334,note_off,0,0,0,,10,,,69,127
42334,note_off,0,0,0,,4,,,64,127
42334,note_off,0,0,0,,0,,,60,127
42336,note_on,2,0,0,,12,,,59,127
42336,note_on,0,0,0,,4,,,64,127
42336,note_on,0,0,0,,7,,,67,127
42336,note_on,0,0,0,,4,,,76,127
42718,note_off,382,0,0,,4,,,76,127
42718,note_off,0,0,0,,7,,,67,127
42718,note_off,0,0,0,,4,,,64,127
42718,note_off,0,0,0,,12,,,59,127
42720,note_on,2,0,0,,2,,,62,127
42720,note_on,0,0,0,,12,,,59,127
42720,note_on,0,0,0,,5,,,65,127
42720,note_on,0,0,0,,2,,,74,127
43102,note_off,382,0,0,,2,,,74,127
43102,note_off,0,0,0,,5,,,65,127
43102,note_off,0,0,0,,12,,,59,127
43102,note_off,0,0,0,,2,,,62,127
43104,note_on,2,0,0,,8,,,56,127
43104,note_on,0,0,0,,4,,,64,127
43104,note_on,0,0,0,,2,,,62,127
43104,note_on,0,0,0,,2,,,74,127
43486,note_off,382,0,0,,2,,,74,127
43486,note_off,0,0,0,,2,,,62,127
43486,note_off,0,0,0,,4,,,64,127
43486,note_off,0,0,0,,8,,,56,127
43488,note_on,2,0,0,,2,,,62,127
43488,note_on,0,0,0,,8,,,56,127
43488,note_on,0,0,0,,4,,,64,127
43488,note_on,0,0,0,,2,,,74,127
43870,note_off,382,0,0,,2,,,74,127
43870,note_off,0,0,0,,4,,,64,127
43870,note_off,0,0,0,,8,,,56,127
43870,note_off,0,0,0,,2,,,62,127
43872,note_on,2,0,0,,4,,,64,127
43872,note_on,0,0,0,,7,,,55,127
43872,note_on,0,0,0,,1,,,73,127
43872,note_on,0,0,0,,4,,,76,127
44254,note_off,382,0,0,,4,,,76,127
44254,note_off,0,0,0,,1,,,73,127
44254,note_off,0,0,0,,7,,,55,127
44254,note_off,0,0,0,,4,,,64,127
44256,note_on,2,0,0,,6,,,54,127
44256,note_on,0,0,0,,2,,,62,127
44256,note_on,0,0,0,,2,,,74,127
44256,note_on,0,0,0,,6,,,78,127
44638,note_off,382,0,0,,6,,,78,127
44638,note_off,0,0,0,,2,,,74,127
44638,note_off,0,0,0,,2,,,62,127
44638,note_off,0,0,0,,6,,,54,127
44640,note_on,2,0,0,,4,,,52,127
44640,note_on,0,0,0,,2,,,62,127
44640,note_on,0,0,0,,4,,,76,127
44640,note_on,0,0,0,,7,,,79,127
45022,note_off,382,0,0,,7,,,79,127
45022,note_off,0,0,0,,4,,,76,127
45022,note_off,0,0,0,,2,,,62,127
45022,note_off,0,0,0,,4,,,52,127
45024,note_on,2,0,0,,4,,,52,127
45024,note_on,0,0,0,,0,,,60,127
45024,note_on,0,0,0,,4,,,76,127
45024,note_on,0,0,0,,7,,,79,127
45406,note_off,382,0,0,,7,,,79,127
45406,note_off,0,0,0,,4,,,76,127
45406,note_off,0,0,0,,0,,,60,127
45406,note_off,0,0,0,,4,,,52,127
45408,note_on,2,0,0,,2,,,50,127
45408,note_on,0,0,0,,0,,,60,127
45408,note_on,0,0,0,,6,,,78,127
45408,note_on,0,0,0,,10,,,81,127
45790,note_off,382,0,0,,10,,,81,127
45790,note_off,0,0,0,,6,,,78,127
45790,note_off,0,0,0,,0,,,60,127
45790,note_off,0,0,0,,2,,,50,127
45792,note_on,2,0,0,,2,,,50,127
45792,note_on,0,0,0,,12,,,59,127
45792,note_on,0,0,0,,12,,,83,127
45792,note_on,0,0,0,,7,,,79,127
46174,note_off,382,0,0,,7,,,79,127
46174,note_off,0,0,0,,12,,,83,127
46174,note_off,0,0,0,,12,,,59,127
46174,note_off,0,0,0,,2,,,50,127
46176,note_on,2,0,0,,2,,,50,127
46176,note_on,0,0,0,,0,,,60,127
46176,note_on,0,0,0,,10,,,57,127
46176,note_on,0,0,0,,0,,,84,127
46302,note_off,126,0,0,,0,,,84,127
46304,note_on,2,0,0,,10,,,81,127
46430,note_off,126,0,0,,10,,,81,127
46432,note_on,2,0,0,,6,,,78,127
46558,note_off,126,0,0,,6,,,78,127
46558,note_off,0,0,0,,10,,,57,127
46558,note_off,0,0,0,,0,,,60,127
46558,note_off,0,0,0,,2,,,50,127
46560,note_on,2,0,0,,2,,,50,127
46560,note_on,0,0,0,,10,,,57,127
46560,note_on,0,0,0,,0,,,60,127
46560,note_on,0,0,0,,2,,,74,127
46622,note_off,62,0,0,,2,,,74,127
46624,note_on,2,0,0,,0,,,72,127
46686,note_off,62,0,0,,0,,,72,127
46688,note_on,2,0,0,,2,,,74,127
46750,note_off,62,0,0,,2,,,74,127
46752,note_on,2,0,0,,0,,,72,127
46814,note_off,62,0,0,,0,,,72,127
46816,note_on,2,0,0,,2,,,74,127
46878,note_off,62,0,0,,2,,,74,127
46880,note_on,2,0,0,,0,,,72,127
46942,note_off,62,0,0,,0,,,72,127
46942,note_off,0,0,0,,0,,,60,127
46942,note_off,0,0,0,,10,,,57,127
46942,note_off,0,0,0,,2,,,50,127
46944,note_on,2,0,0,,7,,,55,127
46944,note_on,0,0,0,,2,,,62,127
46944,note_on,0,0,0,,2,,,74,127
47006,note_off,62,0,0,,2,,,74,127
47008,note_on,2,0,0,,0,,,72,127
47070,note_off,62,0,0,,0,,,72,127
47072,note_on,2,0,0,,2,,,74,127
47134,note_off,62,0,0,,2,,,74,127
47136,note_on,2,0,0,,0,,,72,127
47198,note_off,62,0,0,,0,,,72,127
47200,note_on,2,0,0,,2,,,74,127
47262,note_off,62,0,0,,2,,,74,127
47264,note_on,2,0,0,,0,,,72,127
47326,note_off,62,0,0,,0,,,72,127
47326,note_off,0,0,0,,2,,,62,127
47326,note_off,0,0,0,,7,,,55,127
47328,note_on,2,0,0,,7,,,55,127
47328,note_on,0,0,0,,2,,,62,127
47328,note_on,0,0,0,,12,,,71,127
47710,note_off,382,0,0,,12,,,71,127
47712,note_on,2,0,0,,12,,,83,127
47808,note_off,96,0,0,,2,,,62,127
47808,note_off,0,0,0,,7,,,55,127
47838,note_off,30,0,0,,12,,,83,127
47840,note_on,2,0,0,,7,,,79,127
47966,note_off,126,0,0,,7,,,79,127
47968,note_on,2,0,0,,4,,,76,127
48094,note_off,126,0,0,,4,,,76,127
48096,note_on,2,0,0,,7,,,55,127
48096,note_on,0,0,0,,7,,,67,127
48096,note_on,0,0,0,,12,,,71,127
48478,note_off,382,0,0,,12,,,71,127
48478,note_off,0,0,0,,7,,,67,127
48478,note_off,0,0,0,,7,,,55,127
48480,note_on,2,0,0,,10,,,57,127
48480,note_on,0,0,0,,7,,,67,127
48480,note_on,0,0,0,,2,,,74,127
48542,note_off,62,0,0,,2,,,74,127
48544,note_on,2,0,0,,1,,,73,127
48606,note_off,62,0,0,,1,,,73,127
48608,note_on,2,0,0,,2,,,74,127
48670,note_off,62,0,0,,2,,,74,127
48672,note_on,2,0,0,,1,,,73,127
48734,note_off,62,0,0,,1,,,73,127
48736,note_on,2,0,0,,12,,,71,127
48798,note_off,62,0,0,,12,,,71,127
48800,note_on,2,0,0,,1,,,73,127
48862,note_off,62,0,0,,1,,,73,127
48862,note_off,0,0,0,,7,,,67,127
48862,note_off,0,0,0,,10,,,57,127
48864,note_on,2,0,0,,10,,,57,127
48864,note_on,0,0,0,,6,,,66,127
48864,note_on,0,0,0,,2,,,74,127
49244,note_off,380,0,0,,6,,,66,127
49244,note_off,0,0,0,,10,,,57,127
49246,note_off,2,0,0,,2,,,74,127
49248,note_on,2,0,0,,4,,,76,127
49374,note_off,126,0,0,,4,,,76,127
49376,note_on,2,0,0,,1,,,73,127
49502,note_off,126,0,0,,1,,,73,127
49504,note_on,2,0,0,,10,,,69,127
49630,note_off,126,0,0,,10,,,69,127
49632,note_on,2,0,0,,1,,,61,127
49632,note_on,0,0,0,,10,,,69,127
49694,note_off,62,0,0,,10,,,69,127
49696,note_on,2,0,0,,7,,,67,127
49758,note_off,62,0,0,,7,,,67,127
49760,note_on,2,0,0,,10,,,69,127
49822,note_off,62,0,0,,10,,,69,127
49824,note_on,2,0,0,,7,,,67,127
49886,note_off,62,0,0,,7,,,67,127
49888,note_on,2,0,0,,10,,,69,127
49950,note_off,62,0,0,,10,,,69,127
49952,note_on,2,0,0,,7,,,67,127
50014,note_off,62,0,0,,7,,,67,127
50014,note_off,0,0,0,,1,,,61,127
50016,note_on,2,0,0,,4,,,64,127
50016,note_on,0,0,0,,10,,,69,127
50078,note_off,62,0,0,,10,,,69,127
50080,note_on,2,0,0,,7,,,67,127
50142,note_off,62,0,0,,7,,,67,127
50144,note_on,2,0,0,,10,,,69,127
50206,note_off,62,0,0,,10,,,69,127
50208,note_on,2,0,0,,7,,,67,127
50270,note_off,62,0,0,,7,,,67,127
50272,note_on,2,0,0,,10,,,69,127
50334,note_off,62,0,0,,10,,,69,127
50336,note_on,2,0,0,,7,,,67,127
50398,note_off,62,0,0,,7,,,67,127
50398,note_off,0,0,0,,4,,,64,127
50400,note_on,2,0,0,,2,,,62,127
50400,note_on,0,0,0,,6,,,66,127
50782,note_off,382,0,0,,6,,,66,127
50784,note_on,2,0,0,,6,,,66,127
50910,note_off,126,0,0,,6,,,66,127
50912,note_on,2,0,0,,7,,,67,127
50975,note_off,63,0,0,,2,,,62,127
51038,note_off,63,0,0,,7,,,67,127
51040,note_on,2,0,0,,11,,,70,127
51166,note_off,126,0,0,,11,,,70,127
51168,note_on,2,0,0,,7,,,55,127
51168,note_on,0,0,0,,4,,,64,127
51168,note_on,0,0,0,,12,,,71,127
51294,note_off,126,0,0,,12,,,71,127
51296,note_on,2,0,0,,1,,,73,127
51422,note_off,126,0,0,,1,,,73,127
51424,note_on,2,0,0,,2,,,74,127
51550,note_off,126,0,0,,2,,,74,127
51550,note_off,0,0,0,,4,,,64,127
51550,note_off,0,0,0,,7,,,55,127
51552,note_on,2,0,0,,7,,,55,127
51552,note_on,0,0,0,,4,,,64,127
51552,note_on,0,0,0,,3,,,75,127
51678,note_off,126,0,0,,3,,,75,127
51680,note_on,2,0,0,,4,,,76,127
51806,note_off,126,0,0,,4,,,76,127
51808,note_on,2,0,0,,6,,,78,127
51934,note_off,126,0,0,,6,,,78,127
51934,note_off,0,0,0,,4,,,64,127
51934,note_off,0,0,0,,7,,,55,127
51936,note_on,2,0,0,,7,,,55,127
51936,note_on,0,0,0,,4,,,64,127
51936,note_on,0,0,0,,7,,,79,127
52062,note_off,126,0,0,,7,,,79,127
52064,note_on,2,0,0,,11,,,82,127
52190,note_off,126,0,0,,11,,,82,127
52192,note_on,2,0,0,,12,,,83,127
52318,note_off,126,0,0,,12,,,83,127
52318,note_off,0,0,0,,4,,,64,127
52318,note_off,0,0,0,,7,,,55,127
52320,note_on,2,0,0,,6,,,54,127
52320,note_on,0,0,0,,4,,,64,127
52320,note_on,0,0,0,,12,,,83,127
52446,note_off,126,0,0,,12,,,83,127
52448,note_on,2,0,0,,10,,,81,127
52574,note_off,126,0,0,,10,,,81,127
52576,note_on,2,0,0,,1,,,73,127
52702,note_off,126,0,0,,1,,,73,127
52702,note_off,0,0,0,,4,,,64,127
52702,note_off,0,0,0,,6,,,54,127
52704,note_on,2,0,0,,2,,,62,127
52704,note_on,0,0,0,,6,,,54,127
52704,note_on,0,0,0,,1,,,73,127
52830,note_off,126,0,0,,1,,,73,127
52832,note_on,2,0,0,,2,,,74,127
52958,note_off,126,0,0,,2,,,74,127
52960,note_on,2,0,0,,4,,,76,127
53086,note_off,126,0,0,,4,,,76,127
53086,note_off,0,0,0,,6,,,54,127
53086,note_off,0,0,0,,2,,,62,127
53088,note_on,2,0,0,,2,,,62,127
53088,note_on,0,0,0,,6,,,54,127
53088,note_on,0,0,0,,4,,,76,127
53214,note_off,126,0,0,,4,,,76,127
53216,note_on,2,0,0,,6,,,78,127
53342,note_off,126,0,0,,6,,,78,127
53344,note_on,2,0,0,,7,,,79,127
53470,note_off,126,0,0,,7,,,79,127
53470,note_off,0,0,0,,6,,,54,127
53470,note_off,0,0,0,,2,,,62,127
53472,note_on,2,0,0,,6,,,54,127
53472,note_on,0,0,0,,2,,,62,127
53472,note_on,0,0,0,,8,,,80,127
53598,note_off,126,0,0,,8,,,80,127
53600,note_on,2,0,0,,10,,,81,127
53726,note_off,126,0,0,,10,,,81,127
53728,note_on,2,0,0,,10,,,69,127
53854,note_off,126,0,0,,10,,,69,127
53854,note_off,0,0,0,,2,,,62,127
53854,note_off,0,0,0,,6,,,54,127
53856,note_on,2,0,0,,7,,,55,127
53856,note_on,0,0,0,,2,,,62,127
53856,note_on,0,0,0,,11,,,70,127
53982,note_off,126,0,0,,11,,,70,127
53984,note_on,2,0,0,,12,,,71,127
54110,note_off,126,0,0,,12,,,71,127
54112,note_on,2,0,0,,12,,,83,127
54238,note_off,126,0,0,,12,,,83,127
54238,note_off,0,0,0,,2,,,62,127
54238,note_off,0,0,0,,7,,,55,127
54240,note_on,2,0,0,,7,,,55,127
54240,note_on,0,0,0,,7,,,67,127
54240,note_on,0,0,0,,10,,,81,127
54240,note_on,0,0,0,,7,,,79,127
54366,note_off,126,0,0,,7,,,79,127
54366,note_off,0,0,0,,10,,,81,127
54368,note_on,2,0,0,,6,,,78,127
54494,note_off,126,0,0,,6,,,78,127
54496,note_on,2,0,0,,4,,,76,127
54622,note_off,126,0,0,,4,,,76,127
54622,note_off,0,0,0,,7,,,67,127
54622,note_off,0,0,0,,7,,,55,127
54624,note_on,2,0,0,,6,,,66,127
54624,note_on,0,0,0,,10,,,57,127
54624,note_on,0,0,0,,2,,,74,127
55006,note_off,382,0,0,,2,,,74,127
55006,note_off,0,0,0,,10,,,57,127
55006,note_off,0,0,0,,6,,,66,127
55008,note_on,2,0,0,,10,,,57,127
55008,note_on,0,0,0,,4,,,64,127
55008,note_on,0,0,0,,7,,,67,127
55008,note_on,0,0,0,,6,,,78,127
55070,note_off,62,0,0,,6,,,78,127
55072,note_on,2,0,0,,4,,,76,127
55134,note_off,62,0,0,,4,,,76,127
55136,note_on,2,0,0,,6,,,78,127
55198,note_off,62,0,0,,6,,,78,127
55200,note_on,2,0,0,,4,,,76,127
55262,note_off,62,0,0,,4,,,76,127
55264,note_on,2,0,0,,6,,,78,127
55326,note_off,62,0,0,,6,,,78,127
55328,note_on,2,0,0,,4,,,76,127
55388,note_off,60,0,0,,7,,,67,127
55388,note_off,0,0,0,,4,,,64,127
55388,note_off,0,0,0,,10,,,57,127
55390,note_off,2,0,0,,4,,,76,127
55392,note_on,2,0,0,,3,,,75,127
55518,note_off,126,0,0,,3,,,75,127
55520,note_on,2,0,0,,4,,,76,127
55646,note_off,126,0,0,,4,,,76,127
55648,note_on,2,0,0,,6,,,78,127
55774,note_off,126,0,0,,6,,,78,127
55776,note_on,2,0,0,,7,,,55,127
55776,note_on,0,0,0,,4,,,64,127
55776,note_on,0,0,0,,7,,,79,127
55776,note_on,0,0,0,,10,,,81,127
55902,note_off,126,0,0,,10,,,81,127
55902,note_off,0,0,0,,7,,,79,127
55904,note_on,2,0,0,,6,,,78,127
56030,note_off,126,0,0,,6,,,78,127
56032,note_on,2,0,0,,4,,,76,127
56158,note_off,126,0,0,,4,,,76,127
56158,note_off,0,0,0,,4,,,64,127
56158,note_off,0,0,0,,7,,,55,127
56160,note_on,2,0,0,,7,,,55,127
56160,note_on,0,0,0,,4,,,64,127
56160,note_on,0,0,0,,11,,,70,127
56286,note_off,126,0,0,,11,,,70,127
56288,note_on,2,0,0,,12,,,71,127
56414,note_off,126,0,0,,12,,,71,127
56416,note_on,2,0,0,,1,,,73,127
56542,note_off,126,0,0,,1,,,73,127
56542,note_off,0,0,0,,4,,,64,127
56542,note_off,0,0,0,,7,,,55,127
56544,note_on,2,0,0,,7,,,55,127
56544,note_on,0,0,0,,4,,,64,127
56544,note_on,0,0,0,,2,,,74,127
56544,note_on,0,0,0,,4,,,76,127
56670,note_off,126,0,0,,4,,,76,127
56670,note_off,0,0,0,,2,,,74,127
56672,note_on,2,0,0,,1,,,73,127
56798,note_off,126,0,0,,1,,,73,127
56800,note_on,2,0,0,,12,,,71,127
56926,note_off,126,0,0,,12,,,71,127
56926,note_off,0,0,0,,4,,,64,127
56926,note_off,0,0,0,,7,,,55,127
56928,note_on,2,0,0,,10,,,57,127
56928,note_on,0,0,0,,7,,,55,127
56928,note_on,0,0,0,,1,,,61,127
56928,note_on,0,0,0,,4,,,64,127
57054,note_off,126,0,0,,4,,,64,127
57056,note_on,2,0,0,,6,,,66,127
57182,note_off,126,0,0,,6,,,66,127
57184,note_on,2,0,0,,7,,,67,127
57310,note_off,126,0,0,,7,,,67,127
57310,note_off,0,0,0,,1,,,61,127
57310,note_off,0,0,0,,7,,,55,127
57310,note_off,0,0,0,,10,,,57,127
57312,note_on,2,0,0,,10,,,57,127
57312,note_on,0,0,0,,6,,,54,127
57312,note_on,0,0,0,,2,,,62,127
57312,note_on,0,0,0,,8,,,68,127
57438,note_off,126,0,0,,8,,,68,127
57440,note_on,2,0,0,,10,,,69,127
57566,note_off,126,0,0,,10,,,69,127
57568,note_on,2,0,0,,12,,,71,127
57694,note_off,126,0,0,,12,,,71,127
57696,note_on,2,0,0,,1,,,73,127
57822,note_off,126,0,0,,1,,,73,127
57824,note_on,2,0,0,,2,,,74,127
57950,note_off,126,0,0,,2,,,74,127
57952,note_on,2,0,0,,4,,,76,127
58078,note_off,126,0,0,,4,,,76,127
58078,note_off,0,0,0,,2,,,62,127
58078,note_off,0,0,0,,6,,,54,127
58078,note_off,0,0,0,,10,,,57,127
58080,note_on,2,0,0,,6,,,54,127
58080,note_on,0,0,0,,2,,,62,127
58080,note_on,0,0,0,,6,,,78,127
58206,note_off,126,0,0,,6,,,78,127
58208,note_on,2,0,0,,7,,,79,127
58334,note_off,126,0,0,,7,,,79,127
58336,note_on,2,0,0,,10,,,81,127
58460,note_off,124,0,0,,2,,,62,127
58460,note_off,0,0,0,,6,,,54,127
58462,note_off,2,0,0,,10,,,81,127
58464,note_on,2,0,0,,12,,,83,127
58590,note_off,126,0,0,,12,,,83,127
58592,note_on,2,0,0,,7,,,79,127
58718,note_off,126,0,0,,7,,,79,127
58720,note_on,2,0,0,,4,,,76,127
58846,note_off,126,0,0,,4,,,76,127
58848,note_on,2,0,0,,7,,,55,127
58848,note_on,0,0,0,,12,,,71,127
58974,note_off,126,0,0,,12,,,71,127
58976,note_on,2,0,0,,7,,,67,127
59102,note_off,126,0,0,,7,,,67,127
59104,note_on,2,0,0,,4,,,64,127
59230,note_off,126,0,0,,4,,,64,127
59230,note_off,0,0,0,,7,,,55,127
59232,note_on,2,0,0,,10,,,57,127
59232,note_on,0,0,0,,2,,,62,127
59614,note_off,382,0,0,,2,,,62,127
59616,note_on,2,0,0,,10,,,45,127
59616,note_on,0,0,0,,6,,,66,127
59678,note_off,62,0,0,,6,,,66,127
59680,note_on,2,0,0,,4,,,64,127
59742,note_off,62,0,0,,4,,,64,127
59744,note_on,2,0,0,,6,,,66,127
59806,note_off,62,0,0,,6,,,66,127
59807,note_off,1,0,0,,10,,,57,127
59808,note_on,1,0,0,,4,,,64,127
59870,note_off,62,0,0,,4,,,64,127
59872,note_on,2,0,0,,2,,,62,127
59934,note_off,62,0,0,,2,,,62,127
59936,note_on,2,0,0,,4,,,64,127
59998,note_off,62,0,0,,4,,,64,127
59998,note_off,0,0,0,,10,,,45,127
60002,note_on,4,0,0,,2,,,38,127
60002,note_on,0,0,0,,2,,,62,127
61826,note_off,1824,0,0,,2,,,62,127
61826,note_off,0,0,0,,2,,,38,127
62976,end_of_track,1150,1,0,,,,,,
