tick,type,time,meta,track,program,channel,pitch,tempo,note,velocity
0,copyright,0,1,0,,,,,,
0,program_change,0,0,0,6,0,,,,
0,pitchwheel,0,0,0,,0,0,,,
0,program_change,0,0,0,6,1,,,,
0,pitchwheel,0,0,0,,1,-590,,,
0,program_change,0,0,0,6,2,,,,
0,pitchwheel,0,0,0,,2,-272,,,
0,program_change,0,0,0,6,3,,,,
0,pitchwheel,0,0,0,,3,-353,,,
0,program_change,0,0,0,6,4,,,,
0,pitchwheel,0,0,0,,4,-560,,,
0,program_change,0,0,0,6,5,,,,
0,pitchwheel,0,0,0,,5,-80,,,
0,program_change,0,0,0,6,6,,,,
0,pitchwheel,0,0,0,,6,-625,,,
0,program_change,0,0,0,6,7,,,,
0,pitchwheel,0,0,0,,7,-130,,,
0,program_change,0,0,0,6,8,,,,
0,pitchwheel,0,0,0,,8,-512,,,
0,program_change,0,0,0,6,10,,,,
0,pitchwheel,0,0,0,,10,-464,,,
0,program_change,0,0,0,6,11,,,,
0,pitchwheel,0,0,0,,11,-208,,,
0,program_change,0,0,0,6,12,,,,
0,pitchwheel,0,0,0,,12,-553,,,
0,set_tempo,0,1,0,,,,500000,,
79,note_on,79,0,0,,10,,,81,127
236,note_off,157,0,0,,10,,,81,127
238,note_on,2,0,0,,6,,,78,127
395,note_off,157,0,0,,6,,,78,127
397,note_on,2,0,0,,12,,,83,127
554,note_off,157,0,0,,12,,,83,127
556,note_on,2,0,0,,10,,,81,127
713,note_off,157,0,0,,10,,,81,127
715,note_on,2,0,0,,6,,,78,127
872,note_off,157,0,0,,6,,,78,127
874,note_on,2,0,0,,12,,,83,127
1031,note_off,157,0,0,,12,,,83,127
1033,note_on,2,0,0,,2,,,74,127
1033,note_on,0,0,0,,10,,,81,127
1190,note_off,157,0,0,,10,,,81,127
1192,note_on,2,0,0,,6,,,78,127
1349,note_off,157,0,0,,6,,,78,127
1351,note_on,2,0,0,,10,,,81,127
1508,note_off,157,0,0,,10,,,81,127
1508,note_off,0,0,0,,2,,,74,127
1510,note_on,2,0,0,,4,,,76,127
1510,note_on,0,0,0,,7,,,79,127
1667,note_off,157,0,0,,7,,,79,127
1667,note_off,0,0,0,,4,,,76,127
1669,note_on,2,0,0,,1,,,73,127
1669,note_on,0,0,0,,4,,,76,127
1826,note_off,157,0,0,,4,,,76,127
1826,note_off,0,0,0,,1,,,73,127
1828,note_on,2,0,0,,10,,,69,127
1828,note_on,0,0,0,,10,,,81,127
1985,note_off,157,0,0,,10,,,81,127
1985,note_off,0,0,0,,10,,,69,127
1987,note_on,2,0,0,,2,,,74,127
1987,note_on,0,0,0,,6,,,78,127
2144,note_off,157,0,0,,6,,,78,127
2146,note_on,2,0,0,,2,,,86,127
2303,note_off,157,0,0,,2,,,86,127
2303,note_off,0,0,0,,2,,,74,127
2305,note_on,2,0,0,,6,,,66,127
2305,note_on,0,0,0,,2,,,74,127
2462,note_off,157,0,0,,2,,,74,127
2462,note_off,0,0,0,,6,,,66,127
2464,note_on,2,0,0,,7,,,67,127
2464,note_on,0,0,0,,4,,,76,127
2621,note_off,157,0,0,,4,,,76,127
2621,note_off,0,0,0,,7,,,67,127
2623,note_on,2,0,0,,4,,,64,127
2623,note_on,0,0,0,,7,,,79,127
2780,note_off,157,0,0,,7,,,79,127
2780,note_off,0,0,0,,4,,,64,127
2782,note_on,2,0,0,,10,,,69,127
2782,note_on,0,0,0,,1,,,73,127
2939,note_off,157,0,0,,1,,,73,127
2939,note_off,0,0,0,,10,,,69,127
2941,note_on,2,0,0,,6,,,66,127
2941,note_on,0,0,0,,2,,,74,127
3098,note_off,157,0,0,,6,,,66,127
3100,note_on,2,0,0,,2,,,62,127
3100,note_on,0,0,0,,2,,,86,127
3256,note_off,156,0,0,,2,,,74,127
3258,note_off,2,0,0,,2,,,86,127
3258,note_off,0,0,0,,2,,,62,127
3260,note_on,2,0,0,,6,,,66,127
3260,note_on,0,0,0,,2,,,74,127
3417,note_off,157,0,0,,2,,,74,127
3417,note_off,0,0,0,,6,,,66,127
3419,note_on,2,0,0,,7,,,67,127
3419,note_on,0,0,0,,4,,,76,127
3576,note_off,157,0,0,,4,,,76,127
3576,note_off,0,0,0,,7,,,67,127
3578,note_on,2,0,0,,4,,,64,127
3578,note_on,0,0,0,,7,,,79,127
3735,note_off,157,0,0,,7,,,79,127
3735,note_off,0,0,0,,4,,,64,127
3737,note_on,2,0,0,,10,,,69,127
3737,note_on,0,0,0,,1,,,73,127
3894,note_off,157,0,0,,1,,,73,127
3894,note_off,0,0,0,,10,,,69,127
3896,note_on,2,0,0,,6,,,66,127
3896,note_on,0,0,0,,2,,,74,127
4053,note_off,157,0,0,,6,,,66,127
4055,note_on,2,0,0,,2,,,62,127
4212,note_off,157,0,0,,2,,,62,127
4212,note_off,0,0,0,,2,,,74,127
4214,note_on,2,0,0,,2,,,74,127
4214,note_on,0,0,0,,10,,,81,127
4371,note_off,157,0,0,,2,,,74,127
4373,note_on,2,0,0,,4,,,76,127
4530,note_off,157,0,0,,4,,,76,127
4530,note_off,0,0,0,,10,,,81,127
4532,note_on,2,0,0,,1,,,73,127
4532,note_on,0,0,0,,10,,,81,127
4610,note_off,78,0,0,,10,,,81,127
4612,note_on,2,0,0,,7,,,79,127
4690,note_off,78,0,0,,7,,,79,127
4690,note_off,0,0,0,,1,,,73,127
4692,note_on,2,0,0,,10,,,69,127
4692,note_on,0,0,0,,6,,,78,127
4770,note_off,78,0,0,,6,,,78,127
4772,note_on,2,0,0,,7,,,79,127
4850,note_off,78,0,0,,7,,,79,127
4850,note_off,0,0,0,,10,,,69,127
4852,note_on,2,0,0,,2,,,74,127
4852,note_on,0,0,0,,6,,,78,127
5009,note_off,157,0,0,,6,,,78,127
5009,note_off,0,0,0,,2,,,74,127
5011,note_on,2,0,0,,6,,,78,127
5168,note_off,157,0,0,,6,,,78,127
5170,note_on,2,0,0,,2,,,74,127
5170,note_on,0,0,0,,10,,,81,127
5327,note_off,157,0,0,,2,,,74,127
5329,note_on,2,0,0,,4,,,76,127
5486,note_off,157,0,0,,4,,,76,127
5486,note_off,0,0,0,,10,,,81,127
5488,note_on,2,0,0,,1,,,73,127
5488,note_on,0,0,0,,10,,,81,127
5566,note_off,78,0,0,,10,,,81,127
5568,note_on,2,0,0,,7,,,79,127
5646,note_off,78,0,0,,7,,,79,127
5646,note_off,0,0,0,,1,,,73,127
5648,note_on,2,0,0,,10,,,69,127
5648,note_on,0,0,0,,6,,,78,127
5726,note_off,78,0,0,,6,,,78,127
5728,note_on,2,0,0,,7,,,79,127
5806,note_off,78,0,0,,7,,,79,127
5806,note_off,0,0,0,,10,,,69,127
5808,note_on,2,0,0,,2,,,62,127
5808,note_on,0,0,0,,6,,,78,127
5967,note_on,159,0,0,,2,,,74,127
6114,note_off,147,0,0,,2,,,62,127
6116,note_off,2,0,0,,6,,,78,127
6124,note_off,8,0,0,,2,,,74,127
6126,note_on,2,0,0,,1,,,73,127
6126,note_on,0,0,0,,4,,,76,127
6283,note_off,157,0,0,,1,,,73,127
6285,note_on,2,0,0,,12,,,71,127
6442,note_off,157,0,0,,12,,,71,127
6442,note_off,0,0,0,,4,,,76,127
6444,note_on,2,0,0,,8,,,68,127
6444,note_on,0,0,0,,4,,,76,127
6522,note_off,78,0,0,,4,,,76,127
6524,note_on,2,0,0,,2,,,74,127
6602,note_off,78,0,0,,2,,,74,127
6602,note_off,0,0,0,,8,,,68,127
6604,note_on,2,0,0,,4,,,64,127
6604,note_on,0,0,0,,1,,,73,127
6682,note_off,78,0,0,,1,,,73,127
6684,note_on,2,0,0,,2,,,74,127
6762,note_off,78,0,0,,2,,,74,127
6762,note_off,0,0,0,,4,,,64,127
6764,note_on,2,0,0,,10,,,69,127
6764,note_on,0,0,0,,1,,,73,127
6921,note_off,157,0,0,,1,,,73,127
6921,note_off,0,0,0,,10,,,69,127
6923,note_on,2,0,0,,1,,,73,127
7080,note_off,157,0,0,,1,,,73,127
7082,note_on,2,0,0,,10,,,69,127
7082,note_on,0,0,0,,4,,,76,127
7239,note_off,157,0,0,,10,,,69,127
7241,note_on,2,0,0,,12,,,71,127
7398,note_off,157,0,0,,12,,,71,127
7398,note_off,0,0,0,,4,,,76,127
7400,note_on,2,0,0,,8,,,68,127
7400,note_on,0,0,0,,4,,,76,127
7478,note_off,78,0,0,,4,,,76,127
7480,note_on,2,0,0,,2,,,74,127
7558,note_off,78,0,0,,2,,,74,127
7558,note_off,0,0,0,,8,,,68,127
7560,note_on,2,0,0,,4,,,64,127
7560,note_on,0,0,0,,1,,,73,127
7638,note_off,78,0,0,,1,,,73,127
7640,note_on,2,0,0,,2,,,74,127
7718,note_off,78,0,0,,2,,,74,127
7718,note_off,0,0,0,,4,,,64,127
7720,note_on,2,0,0,,10,,,57,127
7720,note_on,0,0,0,,1,,,73,127
7877,note_off,157,0,0,,10,,,57,127
7879,note_on,2,0,0,,10,,,69,127
8036,note_off,157,0,0,,10,,,69,127
8036,note_off,0,0,0,,1,,,73,127
8038,note_on,2,0,0,,8,,,68,127
8038,note_on,0,0,0,,4,,,76,127
8195,note_off,157,0,0,,8,,,68,127
8197,note_on,2,0,0,,6,,,66,127
8354,note_off,157,0,0,,6,,,66,127
8354,note_off,0,0,0,,4,,,76,127
8356,note_on,2,0,0,,12,,,59,127
8356,note_on,0,0,0,,4,,,76,127
8434,note_off,78,0,0,,4,,,76,127
8436,note_on,2,0,0,,3,,,75,127
8514,note_off,78,0,0,,3,,,75,127
8514,note_off,0,0,0,,12,,,59,127
8516,note_on,2,0,0,,10,,,69,127
8516,note_on,0,0,0,,1,,,73,127
8594,note_off,78,0,0,,1,,,73,127
8596,note_on,2,0,0,,3,,,75,127
8674,note_off,78,0,0,,3,,,75,127
8674,note_off,0,0,0,,10,,,69,127
8676,note_on,2,0,0,,8,,,68,127
8676,note_on,0,0,0,,4,,,76,127
8833,note_off,157,0,0,,8,,,68,127
8835,note_on,2,0,0,,4,,,64,127
8992,note_off,157,0,0,,4,,,64,127
8994,note_on,2,0,0,,8,,,68,127
9151,note_off,157,0,0,,8,,,68,127
9151,note_off,0,0,0,,4,,,76,127
9153,note_on,2,0,0,,6,,,66,127
9153,note_on,0,0,0,,10,,,69,127
9312,note_on,159,0,0,,10,,,81,127
9468,note_off,156,0,0,,10,,,69,127
9470,note_off,2,0,0,,10,,,81,127
9470,note_off,0,0,0,,6,,,66,127
9472,note_on,2,0,0,,12,,,59,127
9472,note_on,0,0,0,,3,,,75,127
9629,note_off,157,0,0,,3,,,75,127
9629,note_off,0,0,0,,12,,,59,127
9631,note_on,2,0,0,,8,,,68,127
9631,note_on,0,0,0,,4,,,76,127
9788,note_off,157,0,0,,4,,,76,127
9790,note_on,2,0,0,,12,,,71,127
9947,note_off,157,0,0,,12,,,71,127
9947,note_off,0,0,0,,8,,,68,127
9949,note_on,2,0,0,,4,,,64,127
9949,note_on,0,0,0,,4,,,76,127
10106,note_off,157,0,0,,4,,,76,127
10106,note_off,0,0,0,,4,,,64,127
10108,note_on,2,0,0,,6,,,66,127
10108,note_on,0,0,0,,10,,,69,127
10265,note_off,157,0,0,,10,,,69,127
10265,note_off,0,0,0,,6,,,66,127
10267,note_on,2,0,0,,3,,,63,127
10267,note_on,0,0,0,,6,,,78,127
10424,note_off,157,0,0,,6,,,78,127
10424,note_off,0,0,0,,3,,,63,127
10426,note_on,2,0,0,,12,,,59,127
10426,note_on,0,0,0,,10,,,81,127
10583,note_off,157,0,0,,10,,,81,127
10583,note_off,0,0,0,,12,,,59,127
10585,note_on,2,0,0,,4,,,64,127
10585,note_on,0,0,0,,8,,,80,127
10742,note_off,157,0,0,,4,,,64,127
10744,note_on,2,0,0,,8,,,68,127
10901,note_off,157,0,0,,8,,,68,127
10901,note_off,0,0,0,,8,,,80,127
10903,note_on,2,0,0,,4,,,64,127
10903,note_on,0,0,0,,4,,,76,127
11060,note_off,157,0,0,,4,,,64,127
11062,note_on,2,0,0,,6,,,66,127
11219,note_off,157,0,0,,6,,,66,127
11219,note_off,0,0,0,,4,,,76,127
11221,note_on,2,0,0,,10,,,69,127
11221,note_on,0,0,0,,3,,,75,127
11378,note_off,157,0,0,,3,,,75,127
11378,note_off,0,0,0,,10,,,69,127
11380,note_on,2,0,0,,6,,,66,127
11380,note_on,0,0,0,,6,,,78,127
11537,note_off,157,0,0,,6,,,78,127
11537,note_off,0,0,0,,6,,,66,127
11539,note_on,2,0,0,,8,,,68,127
11539,note_on,0,0,0,,12,,,71,127
11696,note_off,157,0,0,,8,,,68,127
11698,note_on,2,0,0,,4,,,64,127
11855,note_off,157,0,0,,4,,,64,127
11855,note_off,0,0,0,,12,,,71,127
11857,note_on,2,0,0,,8,,,68,127
11857,note_on,0,0,0,,12,,,83,127
12014,note_off,157,0,0,,8,,,68,127
12016,note_on,2,0,0,,6,,,66,127
12173,note_off,157,0,0,,6,,,66,127
12173,note_off,0,0,0,,12,,,83,127
12175,note_on,2,0,0,,3,,,63,127
12175,note_on,0,0,0,,12,,,83,127
12253,note_off,78,0,0,,12,,,83,127
12255,note_on,2,0,0,,10,,,81,127
12333,note_off,78,0,0,,10,,,81,127
12333,note_off,0,0,0,,3,,,63,127
12335,note_on,2,0,0,,12,,,59,127
12335,note_on,0,0,0,,8,,,80,127
12413,note_off,78,0,0,,8,,,80,127
12415,note_on,2,0,0,,10,,,81,127
12493,note_off,78,0,0,,10,,,81,127
12493,note_off,0,0,0,,12,,,59,127
12495,note_on,2,0,0,,4,,,64,127
12495,note_on,0,0,0,,8,,,80,127
12652,note_off,157,0,0,,8,,,80,127
12652,note_off,0,0,0,,4,,,64,127
12654,note_on,2,0,0,,8,,,68,127
12654,note_on,0,0,0,,4,,,76,127
12811,note_off,157,0,0,,4,,,76,127
12811,note_off,0,0,0,,8,,,68,127
12813,note_on,2,0,0,,4,,,64,127
12813,note_on,0,0,0,,12,,,83,127
12970,note_off,157,0,0,,4,,,64,127
12972,note_on,2,0,0,,6,,,66,127
13129,note_off,157,0,0,,6,,,66,127
13129,note_off,0,0,0,,12,,,83,127
13131,note_on,2,0,0,,3,,,63,127
13131,note_on,0,0,0,,12,,,83,127
13209,note_off,78,0,0,,12,,,83,127
13211,note_on,2,0,0,,10,,,81,127
13289,note_off,78,0,0,,10,,,81,127
13289,note_off,0,0,0,,3,,,63,127
13291,note_on,2,0,0,,12,,,59,127
13291,note_on,0,0,0,,8,,,80,127
13369,note_off,78,0,0,,8,,,80,127
13371,note_on,2,0,0,,10,,,81,127
13449,note_off,78,0,0,,10,,,81,127
13449,note_off,0,0,0,,12,,,59,127
13451,note_on,2,0,0,,4,,,64,127
13451,note_on,0,0,0,,8,,,80,127
13608,note_off,157,0,0,,8,,,80,127
13610,note_on,2,0,0,,12,,,83,127
13767,note_off,157,0,0,,12,,,83,127
13769,note_on,2,0,0,,8,,,80,127
13926,note_off,157,0,0,,8,,,80,127
13928,note_on,2,0,0,,4,,,76,127
14085,note_off,157,0,0,,4,,,76,127
14087,note_on,2,0,0,,12,,,71,127
14244,note_off,157,0,0,,12,,,71,127
14246,note_on,2,0,0,,8,,,68,127
14403,note_off,157,0,0,,8,,,68,127
14403,note_off,0,0,0,,4,,,64,127
14405,note_on,2,0,0,,4,,,64,127
14564,note_on,159,0,0,,12,,,59,127
14721,note_off,157,0,0,,12,,,59,127
14723,note_on,2,0,0,,8,,,56,127
14880,note_off,157,0,0,,8,,,56,127
14882,note_on,2,0,0,,4,,,52,127
15039,note_off,157,0,0,,4,,,52,127
15041,note_on,2,0,0,,12,,,47,127
15198,note_off,157,0,0,,12,,,47,127
15200,note_on,2,0,0,,8,,,44,127
15357,note_off,157,0,0,,8,,,44,127
15357,note_off,0,0,0,,4,,,64,127
15359,note_on,2,0,0,,4,,,40,127
16311,note_off,952,0,0,,4,,,40,127
16789,note_on,478,0,0,,0,,,60,127
16789,note_on,0,0,0,,4,,,76,127
16789,note_on,0,0,0,,0,,,84,127
16789,note_on,0,0,0,,0,,,72,127
16946,note_off,157,0,0,,0,,,60,127
16948,note_on,2,0,0,,0,,,48,127
17105,note_off,157,0,0,,0,,,48,127
17107,note_on,2,0,0,,6,,,54,127
17264,note_off,157,0,0,,6,,,54,127
17264,note_off,0,0,0,,0,,,72,127
17264,note_off,0,0,0,,0,,,84,127
17264,note_off,0,0,0,,4,,,76,127
17266,note_on,2,0,0,,7,,,55,127
17266,note_on,0,0,0,,12,,,71,127
17266,note_on,0,0,0,,2,,,74,127
17266,note_on,0,0,0,,12,,,83,127
17423,note_off,157,0,0,,7,,,55,127
17425,note_on,2,0,0,,7,,,43,127
17582,note_off,157,0,0,,7,,,43,127
17584,note_on,2,0,0,,8,,,56,127
17741,note_off,157,0,0,,8,,,56,127
17741,note_off,0,0,0,,12,,,83,127
17741,note_off,0,0,0,,2,,,74,127
17741,note_off,0,0,0,,12,,,71,127
17743,note_on,2,0,0,,10,,,57,127
17743,note_on,0,0,0,,0,,,72,127
17743,note_on,0,0,0,,10,,,69,127
17743,note_on,0,0,0,,10,,,81,127
17900,note_off,157,0,0,,10,,,57,127
17902,note_on,2,0,0,,10,,,45,127
18059,note_off,157,0,0,,10,,,45,127
18061,note_on,2,0,0,,3,,,51,127
18218,note_off,157,0,0,,3,,,51,127
18218,note_off,0,0,0,,10,,,81,127
18218,note_off,0,0,0,,10,,,69,127
18218,note_off,0,0,0,,0,,,72,127
18220,note_on,2,0,0,,4,,,52,127
18220,note_on,0,0,0,,8,,,80,127
18377,note_off,157,0,0,,8,,,80,127
18379,note_on,2,0,0,,12,,,83,127
18536,note_off,157,0,0,,12,,,83,127
18538,note_on,2,0,0,,4,,,76,127
18695,note_off,157,0,0,,4,,,76,127
18695,note_off,0,0,0,,4,,,52,127
18697,note_on,2,0,0,,0,,,60,127
18697,note_on,0,0,0,,0,,,72,127
18697,note_on,0,0,0,,0,,,84,127
18697,note_on,0,0,0,,4,,,76,127
18854,note_off,157,0,0,,0,,,60,127
18856,note_on,2,0,0,,0,,,48,127
19013,note_off,157,0,0,,0,,,48,127
19015,note_on,2,0,0,,6,,,54,127
19172,note_off,157,0,0,,6,,,54,127
19172,note_off,0,0,0,,4,,,76,127
19172,note_off,0,0,0,,0,,,84,127
19172,note_off,0,0,0,,0,,,72,127
19174,note_on,2,0,0,,7,,,55,127
19174,note_on,0,0,0,,2,,,74,127
19174,note_on,0,0,0,,12,,,83,127
19174,note_on,0,0,0,,12,,,71,127
19331,note_off,157,0,0,,7,,,55,127
19333,note_on,2,0,0,,7,,,43,127
19490,note_off,157,0,0,,7,,,43,127
19492,note_on,2,0,0,,8,,,56,127
19649,note_off,157,0,0,,8,,,56,127
19649,note_off,0,0,0,,12,,,71,127
19649,note_off,0,0,0,,12,,,83,127
19649,note_off,0,0,0,,2,,,74,127
19651,note_on,2,0,0,,10,,,57,127
19651,note_on,0,0,0,,10,,,69,127
19651,note_on,0,0,0,,0,,,72,127
19651,note_on,0,0,0,,10,,,81,127
19808,note_off,157,0,0,,10,,,57,127
19810,note_on,2,0,0,,10,,,45,127
19967,note_off,157,0,0,,10,,,45,127
19969,note_on,2,0,0,,3,,,51,127
20126,note_off,157,0,0,,3,,,51,127
20126,note_off,0,0,0,,10,,,81,127
20126,note_off,0,0,0,,0,,,72,127
20126,note_off,0,0,0,,10,,,69,127
20128,note_on,2,0,0,,4,,,52,127
20128,note_on,0,0,0,,8,,,80,127
20285,note_off,157,0,0,,8,,,80,127
20287,note_on,2,0,0,,12,,,83,127
20444,note_off,157,0,0,,12,,,83,127
20446,note_on,2,0,0,,4,,,76,127
20603,note_off,157,0,0,,4,,,76,127
20603,note_off,0,0,0,,4,,,52,127
20605,note_on,2,0,0,,2,,,50,127
20605,note_on,0,0,0,,10,,,81,127
20605,note_on,0,0,0,,5,,,77,127
20762,note_off,157,0,0,,2,,,50,127
20764,note_on,2,0,0,,10,,,57,127
20921,note_off,157,0,0,,10,,,57,127
20923,note_on,2,0,0,,2,,,62,127
21080,note_off,157,0,0,,2,,,62,127
21080,note_off,0,0,0,,5,,,77,127
21080,note_off,0,0,0,,10,,,81,127
21082,note_on,2,0,0,,4,,,52,127
21082,note_on,0,0,0,,2,,,74,127
21082,note_on,0,0,0,,10,,,81,127
21239,note_off,157,0,0,,4,,,52,127
21241,note_on,2,0,0,,12,,,59,127
21319,note_off,78,0,0,,10,,,81,127
21321,note_on,2,0,0,,8,,,80,127
21399,note_off,78,0,0,,12,,,59,127
21401,note_on,2,0,0,,2,,,62,127
21558,note_off,157,0,0,,2,,,62,127
21558,note_off,0,0,0,,8,,,80,127
21559,note_off,1,0,0,,2,,,74,127
21560,note_on,1,0,0,,2,,,50,127
21560,note_on,0,0,0,,5,,,77,127
21560,note_on,0,0,0,,10,,,81,127
21717,note_off,157,0,0,,2,,,50,127
21719,note_on,2,0,0,,10,,,57,127
21876,note_off,157,0,0,,10,,,57,127
21878,note_on,2,0,0,,2,,,62,127
22035,note_off,157,0,0,,2,,,62,127
22035,note_off,0,0,0,,10,,,81,127
22035,note_off,0,0,0,,5,,,77,127
22037,note_on,2,0,0,,4,,,52,127
22037,note_on,0,0,0,,2,,,74,127
22037,note_on,0,0,0,,10,,,81,127
22194,note_off,157,0,0,,4,,,52,127
22196,note_on,2,0,0,,12,,,59,127
22274,note_off,78,0,0,,10,,,81,127
22276,note_on,2,0,0,,8,,,80,127
22354,note_off,78,0,0,,12,,,59,127
22356,note_on,2,0,0,,2,,,62,127
22513,note_off,157,0,0,,2,,,62,127
22513,note_off,0,0,0,,8,,,80,127
22514,note_off,1,0,0,,2,,,74,127
22515,note_on,1,0,0,,2,,,50,127
22515,note_on,0,0,0,,10,,,81,127
22515,note_on,0,0,0,,5,,,77,127
22672,note_off,157,0,0,,2,,,50,127
22674,note_on,2,0,0,,10,,,57,127
22831,note_off,157,0,0,,10,,,57,127
22833,note_on,2,0,0,,2,,,62,127
22990,note_off,157,0,0,,2,,,62,127
22990,note_off,0,0,0,,5,,,77,127
22990,note_off,0,0,0,,10,,,81,127
22992,note_on,2,0,0,,4,,,52,127
22992,note_on,0,0,0,,2,,,74,127
22992,note_on,0,0,0,,2,,,86,127
23149,note_off,157,0,0,,4,,,52,127
23151,note_on,2,0,0,,12,,,59,127
23308,note_off,157,0,0,,12,,,59,127
23310,note_on,2,0,0,,4,,,64,127
23467,note_off,157,0,0,,4,,,64,127
23467,note_off,0,0,0,,2,,,86,127
23467,note_off,0,0,0,,2,,,74,127
23469,note_on,2,0,0,,10,,,57,127
23469,note_on,0,0,0,,0,,,84,127
23626,note_off,157,0,0,,0,,,84,127
23628,note_on,2,0,0,,10,,,81,127
23785,note_off,157,0,0,,10,,,81,127
23785,note_off,0,0,0,,10,,,57,127
23787,note_on,2,0,0,,0,,,60,127
23787,note_on,0,0,0,,4,,,76,127
23944,note_off,157,0,0,,4,,,76,127
23944,note_off,0,0,0,,0,,,60,127
23946,note_on,2,0,0,,2,,,62,127
23946,note_on,0,0,0,,5,,,77,127
24103,note_off,157,0,0,,5,,,77,127
24105,note_on,2,0,0,,2,,,74,127
24262,note_off,157,0,0,,2,,,74,127
24262,note_off,0,0,0,,2,,,62,127
24264,note_on,2,0,0,,2,,,50,127
24264,note_on,0,0,0,,12,,,71,127
24421,note_off,157,0,0,,12,,,71,127
24421,note_off,0,0,0,,2,,,50,127
24423,note_on,2,0,0,,4,,,52,127
24423,note_on,0,0,0,,10,,,69,127
24580,note_off,157,0,0,,10,,,69,127
24582,note_on,2,0,0,,10,,,69,127
24660,note_off,78,0,0,,10,,,69,127
24662,note_on,2,0,0,,8,,,68,127
24740,note_off,78,0,0,,8,,,68,127
24742,note_on,2,0,0,,4,,,40,127
24742,note_on,0,0,0,,6,,,66,127
24820,note_off,78,0,0,,6,,,66,127
24822,note_on,2,0,0,,8,,,68,127
24900,note_off,78,0,0,,8,,,68,127
24900,note_off,0,0,0,,4,,,40,127
24901,note_off,1,0,0,,4,,,52,127
24902,note_on,1,0,0,,10,,,57,127
24902,note_on,0,0,0,,10,,,69,127
25059,note_off,157,0,0,,10,,,57,127
25061,note_on,2,0,0,,0,,,60,127
25218,note_off,157,0,0,,0,,,60,127
25220,note_on,2,0,0,,4,,,64,127
25377,note_off,157,0,0,,4,,,64,127
25377,note_off,0,0,0,,10,,,69,127
25379,note_on,2,0,0,,2,,,50,127
25379,note_on,0,0,0,,10,,,81,127
25379,note_on,0,0,0,,5,,,77,127
25536,note_off,157,0,0,,2,,,50,127
25538,note_on,2,0,0,,10,,,57,127
25695,note_off,157,0,0,,10,,,57,127
25697,note_on,2,0,0,,2,,,62,127
25854,note_off,157,0,0,,2,,,62,127
25854,note_off,0,0,0,,5,,,77,127
25854,note_off,0,0,0,,10,,,81,127
25856,note_on,2,0,0,,4,,,52,127
25856,note_on,0,0,0,,2,,,74,127
25856,note_on,0,0,0,,10,,,81,127
26013,note_off,157,0,0,,4,,,52,127
26015,note_on,2,0,0,,12,,,59,127
26093,note_off,78,0,0,,10,,,81,127
26095,note_on,2,0,0,,8,,,80,127
26173,note_off,78,0,0,,12,,,59,127
26175,note_on,2,0,0,,2,,,62,127
26332,note_off,157,0,0,,2,,,62,127
26332,note_off,0,0,0,,8,,,80,127
26333,note_off,1,0,0,,2,,,74,127
26334,note_on,1,0,0,,2,,,50,127
26334,note_on,0,0,0,,10,,,81,127
26334,note_on,0,0,0,,5,,,77,127
26491,note_off,157,0,0,,2,,,50,127
26493,note_on,2,0,0,,10,,,57,127
26650,note_off,157,0,0,,10,,,57,127
26652,note_on,2,0,0,,2,,,62,127
26809,note_off,157,0,0,,2,,,62,127
26809,note_off,0,0,0,,5,,,77,127
26809,note_off,0,0,0,,10,,,81,127
26811,note_on,2,0,0,,4,,,52,127
26811,note_on,0,0,0,,2,,,74,127
26811,note_on,0,0,0,,10,,,81,127
26968,note_off,157,0,0,,4,,,52,127
26970,note_on,2,0,0,,12,,,59,127
27048,note_off,78,0,0,,10,,,81,127
27050,note_on,2,0,0,,8,,,80,127
27128,note_off,78,0,0,,12,,,59,127
27130,note_on,2,0,0,,2,,,62,127
27287,note_off,157,0,0,,2,,,62,127
27287,note_off,0,0,0,,8,,,80,127
27288,note_off,1,0,0,,2,,,74,127
27289,note_on,1,0,0,,2,,,50,127
27289,note_on,0,0,0,,10,,,81,127
27289,note_on,0,0,0,,5,,,77,127
27446,note_off,157,0,0,,2,,,50,127
27448,note_on,2,0,0,,10,,,57,127
27605,note_off,157,0,0,,10,,,57,127
27607,note_on,2,0,0,,2,,,62,127
27764,note_off,157,0,0,,2,,,62,127
27764,note_off,0,0,0,,5,,,77,127
27764,note_off,0,0,0,,10,,,81,127
27766,note_on,2,0,0,,4,,,52,127
27766,note_on,0,0,0,,2,,,86,127
27766,note_on,0,0,0,,2,,,74,127
27923,note_off,157,0,0,,4,,,52,127
27925,note_on,2,0,0,,12,,,59,127
28082,note_off,157,0,0,,12,,,59,127
28084,note_on,2,0,0,,4,,,64,127
28241,note_off,157,0,0,,4,,,64,127
28241,note_off,0,0,0,,2,,,74,127
28241,note_off,0,0,0,,2,,,86,127
28243,note_on,2,0,0,,10,,,57,127
28243,note_on,0,0,0,,0,,,84,127
28400,note_off,157,0,0,,0,,,84,127
28402,note_on,2,0,0,,10,,,81,127
28559,note_off,157,0,0,,10,,,81,127
28559,note_off,0,0,0,,10,,,57,127
28561,note_on,2,0,0,,0,,,60,127
28561,note_on,0,0,0,,4,,,76,127
28718,note_off,157,0,0,,4,,,76,127
28718,note_off,0,0,0,,0,,,60,127
28720,note_on,2,0,0,,2,,,62,127
28720,note_on,0,0,0,,5,,,77,127
28877,note_off,157,0,0,,5,,,77,127
28879,note_on,2,0,0,,2,,,74,127
29036,note_off,157,0,0,,2,,,74,127
29036,note_off,0,0,0,,2,,,62,127
29038,note_on,2,0,0,,2,,,50,127
29038,note_on,0,0,0,,12,,,71,127
29195,note_off,157,0,0,,12,,,71,127
29195,note_off,0,0,0,,2,,,50,127
29197,note_on,2,0,0,,4,,,52,127
29197,note_on,0,0,0,,10,,,69,127
29354,note_off,157,0,0,,10,,,69,127
29356,note_on,2,0,0,,10,,,69,127
29434,note_off,78,0,0,,10,,,69,127
29436,note_on,2,0,0,,8,,,68,127
29514,note_off,78,0,0,,8,,,68,127
29516,note_on,2,0,0,,4,,,40,127
29516,note_on,0,0,0,,6,,,66,127
29594,note_off,78,0,0,,6,,,66,127
29596,note_on,2,0,0,,8,,,68,127
29674,note_off,78,0,0,,8,,,68,127
29674,note_off,0,0,0,,4,,,40,127
29675,note_off,1,0,0,,4,,,52,127
29676,note_on,1,0,0,,10,,,57,127
29676,note_on,0,0,0,,10,,,69,127
29833,note_off,157,0,0,,10,,,57,127
29835,note_on,2,0,0,,12,,,59,127
29992,note_off,157,0,0,,12,,,59,127
29992,note_off,0,0,0,,10,,,69,127
29994,note_on,2,0,0,,1,,,61,127
29994,note_on,0,0,0,,10,,,81,127
30151,note_off,157,0,0,,1,,,61,127
30153,note_on,2,0,0,,2,,,62,127
30310,note_off,157,0,0,,10,,,81,127
30312,note_on,2,0,0,,6,,,78,127
30469,note_off,157,0,0,,6,,,78,127
30469,note_off,0,0,0,,2,,,62,127
30471,note_on,2,0,0,,2,,,50,127
30471,note_on,0,0,0,,2,,,74,127
30628,note_off,157,0,0,,2,,,74,127
30628,note_off,0,0,0,,2,,,50,127
30630,note_on,2,0,0,,1,,,49,127
30630,note_on,0,0,0,,4,,,76,127
30787,note_off,157,0,0,,4,,,76,127
30789,note_on,2,0,0,,1,,,73,127
30946,note_off,157,0,0,,1,,,73,127
30946,note_off,0,0,0,,1,,,49,127
30948,note_on,2,0,0,,6,,,54,127
30948,note_on,0,0,0,,10,,,69,127
31105,note_off,157,0,0,,10,,,69,127
31105,note_off,0,0,0,,6,,,54,127
31107,note_on,2,0,0,,2,,,50,127
31107,note_on,0,0,0,,6,,,66,127
31264,note_off,157,0,0,,6,,,66,127
31264,note_off,0,0,0,,2,,,50,127
31266,note_on,2,0,0,,4,,,52,127
31266,note_on,0,0,0,,2,,,62,127
31423,note_off,157,0,0,,2,,,62,127
31423,note_off,0,0,0,,4,,,52,127
31425,note_on,2,0,0,,4,,,40,127
31425,note_on,0,0,0,,12,,,59,127
31582,note_off,157,0,0,,12,,,59,127
31582,note_off,0,0,0,,4,,,40,127
31584,note_on,2,0,0,,10,,,45,127
31584,note_on,0,0,0,,10,,,57,127
31741,note_off,157,0,0,,10,,,45,127
31743,note_on,2,0,0,,12,,,47,127
31900,note_off,157,0,0,,12,,,47,127
31900,note_off,0,0,0,,10,,,57,127
31902,note_on,2,0,0,,1,,,49,127
31902,note_on,0,0,0,,10,,,81,127
32059,note_off,157,0,0,,1,,,49,127
32061,note_on,2,0,0,,2,,,50,127
32218,note_off,157,0,0,,10,,,81,127
32220,note_on,2,0,0,,6,,,78,127
32377,note_off,157,0,0,,6,,,78,127
32377,note_off,0,0,0,,2,,,50,127
32379,note_on,2,0,0,,2,,,50,127
32379,note_on,0,0,0,,2,,,74,127
32536,note_off,157,0,0,,2,,,74,127
32536,note_off,0,0,0,,2,,,50,127
32538,note_on,2,0,0,,1,,,49,127
32538,note_on,0,0,0,,4,,,76,127
32695,note_off,157,0,0,,4,,,76,127
32697,note_on,2,0,0,,1,,,73,127
32854,note_off,157,0,0,,1,,,73,127
32854,note_off,0,0,0,,1,,,49,127
32856,note_on,2,0,0,,6,,,54,127
32856,note_on,0,0,0,,10,,,69,127
33013,note_off,157,0,0,,10,,,69,127
33013,note_off,0,0,0,,6,,,54,127
33015,note_on,2,0,0,,2,,,50,127
33015,note_on,0,0,0,,6,,,66,127
33172,note_off,157,0,0,,6,,,66,127
33172,note_off,0,0,0,,2,,,50,127
33174,note_on,2,0,0,,4,,,52,127
33174,note_on,0,0,0,,2,,,62,127
33331,note_off,157,0,0,,2,,,62,127
33331,note_off,0,0,0,,4,,,52,127
33333,note_on,2,0,0,,4,,,40,127
33333,note_on,0,0,0,,12,,,59,127
33490,note_off,157,0,0,,12,,,59,127
33490,note_off,0,0,0,,4,,,40,127
33492,note_on,2,0,0,,10,,,45,127
33492,note_on,0,0,0,,10,,,57,127
33889,note_off,397,0,0,,10,,,45,127
33968,note_off,79,0,0,,10,,,57,127
33969,note_on,1,0,0,,4,,,76,127
34126,note_off,157,0,0,,4,,,76,127
34128,note_on,2,0,0,,1,,,73,127
34285,note_off,157,0,0,,1,,,73,127
34287,note_on,2,0,0,,6,,,78,127
34444,note_off,157,0,0,,6,,,78,127
34446,note_on,2,0,0,,4,,,76,127
34603,note_off,157,0,0,,4,,,76,127
34605,note_on,2,0,0,,1,,,73,127
34762,note_off,157,0,0,,1,,,73,127
34764,note_on,2,0,0,,6,,,78,127
34921,note_off,157,0,0,,6,,,78,127
34923,note_on,2,0,0,,4,,,76,127
34923,note_on,0,0,0,,10,,,69,127
35080,note_off,157,0,0,,4,,,76,127
35082,note_on,2,0,0,,1,,,73,127
35239,note_off,157,0,0,,1,,,73,127
35241,note_on,2,0,0,,6,,,78,127
35398,note_off,157,0,0,,6,,,78,127
35398,note_off,0,0,0,,10,,,69,127
35400,note_on,2,0,0,,4,,,76,127
35400,note_on,0,0,0,,7,,,67,127
35557,note_off,157,0,0,,4,,,76,127
35559,note_on,2,0,0,,12,,,71,127
35716,note_off,157,0,0,,12,,,71,127
35718,note_on,2,0,0,,6,,,78,127
35875,note_off,157,0,0,,6,,,78,127
35875,note_off,0,0,0,,7,,,67,127
35877,note_on,2,0,0,,4,,,76,127
35877,note_on,0,0,0,,6,,,66,127
36036,note_on,159,0,0,,11,,,70,127
36192,note_off,156,0,0,,4,,,76,127
36194,note_off,2,0,0,,11,,,70,127
36196,note_on,2,0,0,,6,,,78,127
36353,note_off,157,0,0,,6,,,78,127
36353,note_off,0,0,0,,6,,,66,127
36355,note_on,2,0,0,,4,,,76,127
36355,note_on,0,0,0,,7,,,67,127
36514,note_on,159,0,0,,12,,,71,127
36670,note_off,156,0,0,,4,,,76,127
36672,note_off,2,0,0,,12,,,71,127
36674,note_on,2,0,0,,6,,,78,127
36831,note_off,157,0,0,,6,,,78,127
36831,note_off,0,0,0,,7,,,67,127
36833,note_on,2,0,0,,4,,,76,127
36833,note_on,0,0,0,,6,,,66,127
36992,note_on,159,0,0,,11,,,70,127
37148,note_off,156,0,0,,4,,,76,127
37150,note_off,2,0,0,,11,,,70,127
37152,note_on,2,0,0,,6,,,78,127
37309,note_off,157,0,0,,6,,,78,127
37309,note_off,0,0,0,,6,,,66,127
37311,note_on,2,0,0,,4,,,76,127
37311,note_on,0,0,0,,7,,,67,127
37470,note_on,159,0,0,,12,,,71,127
37627,note_off,157,0,0,,12,,,71,127
37629,note_on,2,0,0,,0,,,72,127
37786,note_off,157,0,0,,0,,,72,127
37786,note_off,0,0,0,,7,,,67,127
37787,note_off,1,0,0,,4,,,76,127
37788,note_on,1,0,0,,4,,,76,127
37788,note_on,0,0,0,,10,,,69,127
37788,note_on,0,0,0,,6,,,66,127
37945,note_off,157,0,0,,4,,,76,127
37947,note_on,2,0,0,,3,,,75,127
38104,note_off,157,0,0,,3,,,75,127
38104,note_off,0,0,0,,6,,,66,127
38106,note_on,2,0,0,,4,,,76,127
38106,note_on,0,0,0,,4,,,64,127
38263,note_off,157,0,0,,4,,,64,127
38263,note_off,0,0,0,,4,,,76,127
38265,note_on,2,0,0,,6,,,78,127
38265,note_on,0,0,0,,3,,,63,127
38422,note_off,157,0,0,,3,,,63,127
38423,note_off,1,0,0,,10,,,69,127
38424,note_on,1,0,0,,7,,,67,127
38424,note_on,0,0,0,,4,,,64,127
38581,note_off,157,0,0,,4,,,64,127
38581,note_off,0,0,0,,7,,,67,127
38583,note_on,2,0,0,,6,,,66,127
38583,note_on,0,0,0,,10,,,69,127
38740,note_off,157,0,0,,10,,,69,127
38740,note_off,0,0,0,,6,,,66,127
38742,note_on,2,0,0,,4,,,64,127
38742,note_on,0,0,0,,7,,,67,127
38899,note_off,157,0,0,,6,,,78,127
38901,note_on,2,0,0,,4,,,76,127
39058,note_off,157,0,0,,4,,,76,127
39058,note_off,0,0,0,,7,,,67,127
39058,note_off,0,0,0,,4,,,64,127
39060,note_on,2,0,0,,6,,,78,127
39060,note_on,0,0,0,,10,,,69,127
39060,note_on,0,0,0,,6,,,66,127
39217,note_off,157,0,0,,6,,,66,127
39217,note_off,0,0,0,,10,,,69,127
39217,note_off,0,0,0,,6,,,78,127
39219,note_on,2,0,0,,7,,,79,127
39219,note_on,0,0,0,,4,,,64,127
39219,note_on,0,0,0,,7,,,67,127
39376,note_off,157,0,0,,7,,,67,127
39376,note_off,0,0,0,,4,,,64,127
39378,note_on,2,0,0,,6,,,66,127
39378,note_on,0,0,0,,10,,,69,127
39535,note_off,157,0,0,,10,,,69,127
39535,note_off,0,0,0,,6,,,66,127
39537,note_on,2,0,0,,12,,,71,127
39537,note_on,0,0,0,,7,,,67,127
39694,note_off,157,0,0,,7,,,67,127
39694,note_off,0,0,0,,12,,,71,127
39696,note_on,2,0,0,,0,,,72,127
39696,note_on,0,0,0,,10,,,69,127
39853,note_off,157,0,0,,7,,,79,127
39855,note_on,2,0,0,,6,,,78,127
40012,note_off,157,0,0,,6,,,78,127
40014,note_on,2,0,0,,7,,,79,127
40171,note_off,157,0,0,,7,,,79,127
40171,note_off,0,0,0,,10,,,69,127
40171,note_off,0,0,0,,0,,,72,127
40173,note_on,2,0,0,,10,,,81,127
40173,note_on,0,0,0,,4,,,76,127
40173,note_on,0,0,0,,0,,,72,127
40330,note_off,157,0,0,,10,,,81,127
40332,note_on,2,0,0,,7,,,79,127
40489,note_off,157,0,0,,7,,,79,127
40491,note_on,2,0,0,,10,,,81,127
40648,note_off,157,0,0,,10,,,81,127
40648,note_off,0,0,0,,0,,,72,127
40648,note_off,0,0,0,,4,,,76,127
40650,note_on,2,0,0,,12,,,83,127
40650,note_on,0,0,0,,12,,,59,127
40809,note_on,159,0,0,,12,,,71,127
40965,note_off,156,0,0,,12,,,83,127
40967,note_off,2,0,0,,12,,,71,127
40967,note_off,0,0,0,,12,,,59,127
40969,note_on,2,0,0,,12,,,83,127
40969,note_on,0,0,0,,12,,,71,127
41126,note_off,157,0,0,,12,,,71,127
41128,note_on,2,0,0,,7,,,67,127
41285,note_off,157,0,0,,7,,,67,127
41285,note_off,0,0,0,,12,,,83,127
41287,note_on,2,0,0,,7,,,79,127
41287,note_on,0,0,0,,4,,,64,127
41444,note_off,157,0,0,,4,,,64,127
41444,note_off,0,0,0,,7,,,79,127
41446,note_on,2,0,0,,4,,,76,127
41446,note_on,0,0,0,,0,,,60,127
41603,note_off,157,0,0,,0,,,60,127
41603,note_off,0,0,0,,4,,,76,127
41605,note_on,2,0,0,,6,,,78,127
41605,note_on,0,0,0,,12,,,59,127
41764,note_on,159,0,0,,12,,,71,127
41920,note_off,156,0,0,,6,,,78,127
41922,note_off,2,0,0,,12,,,71,127
41922,note_off,0,0,0,,12,,,59,127
41924,note_on,2,0,0,,12,,,83,127
41924,note_on,0,0,0,,12,,,71,127
42081,note_off,157,0,0,,12,,,71,127
42083,note_on,2,0,0,,7,,,67,127
42240,note_off,157,0,0,,7,,,67,127
42240,note_off,0,0,0,,12,,,83,127
42242,note_on,2,0,0,,7,,,79,127
42242,note_on,0,0,0,,4,,,64,127
42399,note_off,157,0,0,,4,,,64,127
42399,note_off,0,0,0,,7,,,79,127
42401,note_on,2,0,0,,4,,,76,127
42401,note_on,0,0,0,,0,,,60,127
42558,note_off,157,0,0,,0,,,60,127
42558,note_off,0,0,0,,4,,,76,127
42560,note_on,2,0,0,,12,,,83,127
42560,note_on,0,0,0,,12,,,59,127
42719,note_on,159,0,0,,12,,,71,127
42875,note_off,156,0,0,,12,,,83,127
42877,note_off,2,0,0,,12,,,71,127
42879,note_on,2,0,0,,10,,,81,127
43036,note_off,157,0,0,,10,,,81,127
43036,note_off,0,0,0,,12,,,59,127
43038,note_on,2,0,0,,8,,,80,127
43038,note_on,0,0,0,,12,,,71,127
43038,note_on,0,0,0,,2,,,62,127
43195,note_off,157,0,0,,8,,,80,127
43197,note_on,2,0,0,,10,,,81,127
43354,note_off,157,0,0,,10,,,81,127
43356,note_on,2,0,0,,8,,,80,127
43513,note_off,157,0,0,,8,,,80,127
43513,note_off,0,0,0,,2,,,62,127
43513,note_off,0,0,0,,12,,,71,127
43515,note_on,2,0,0,,10,,,81,127
43515,note_on,0,0,0,,10,,,69,127
43515,note_on,0,0,0,,0,,,60,127
43674,note_on,159,0,0,,4,,,76,127
43830,note_off,156,0,0,,10,,,81,127
43832,note_off,2,0,0,,4,,,76,127
43834,note_on,2,0,0,,10,,,81,127
43991,note_off,157,0,0,,10,,,81,127
43991,note_off,0,0,0,,0,,,60,127
43991,note_off,0,0,0,,10,,,69,127
43993,note_on,2,0,0,,2,,,74,127
43993,note_on,0,0,0,,8,,,68,127
43993,note_on,0,0,0,,12,,,59,127
43993,note_on,0,0,0,,4,,,76,127
44150,note_off,157,0,0,,4,,,76,127
44150,note_off,0,0,0,,2,,,74,127
44152,note_on,2,0,0,,0,,,72,127
44309,note_off,157,0,0,,0,,,72,127
44311,note_on,2,0,0,,12,,,71,127
44468,note_off,157,0,0,,12,,,71,127
44468,note_off,0,0,0,,12,,,59,127
44468,note_off,0,0,0,,8,,,68,127
44470,note_on,2,0,0,,0,,,72,127
44470,note_on,0,0,0,,10,,,69,127
44470,note_on,0,0,0,,10,,,57,127
44627,note_off,157,0,0,,0,,,72,127
44629,note_on,2,0,0,,4,,,76,127
44786,note_off,157,0,0,,4,,,76,127
44788,note_on,2,0,0,,10,,,81,127
44945,note_off,157,0,0,,10,,,57,127
44945,note_off,0,0,0,,10,,,69,127
44947,note_on,2,0,0,,0,,,60,127
44947,note_on,0,0,0,,10,,,69,127
45104,note_off,157,0,0,,10,,,81,127
45106,note_on,2,0,0,,7,,,79,127
45263,note_off,157,0,0,,7,,,79,127
45265,note_on,2,0,0,,6,,,78,127
45422,note_off,157,0,0,,6,,,78,127
45422,note_off,0,0,0,,10,,,69,127
45422,note_off,0,0,0,,0,,,60,127
45424,note_on,2,0,0,,7,,,79,127
45424,note_on,0,0,0,,7,,,67,127
45424,note_on,0,0,0,,12,,,59,127
45583,note_on,159,0,0,,2,,,74,127
45739,note_off,156,0,0,,7,,,79,127
45741,note_off,2,0,0,,2,,,74,127
45743,note_on,2,0,0,,7,,,79,127
45900,note_off,157,0,0,,7,,,79,127
45900,note_off,0,0,0,,12,,,59,127
45900,note_off,0,0,0,,7,,,67,127
45902,note_on,2,0,0,,0,,,72,127
45902,note_on,0,0,0,,10,,,57,127
45902,note_on,0,0,0,,6,,,66,127
45902,note_on,0,0,0,,2,,,74,127
46059,note_off,157,0,0,,2,,,74,127
46059,note_off,0,0,0,,0,,,72,127
46061,note_on,2,0,0,,12,,,71,127
46218,note_off,157,0,0,,12,,,71,127
46220,note_on,2,0,0,,10,,,69,127
46377,note_off,157,0,0,,10,,,69,127
46377,note_off,0,0,0,,6,,,66,127
46377,note_off,0,0,0,,10,,,57,127
46379,note_on,2,0,0,,12,,,71,127
46379,note_on,0,0,0,,7,,,79,127
46379,note_on,0,0,0,,7,,,55,127
46536,note_off,157,0,0,,7,,,55,127
46538,note_on,2,0,0,,2,,,62,127
46695,note_off,157,0,0,,2,,,62,127
46697,note_on,2,0,0,,7,,,67,127
46854,note_off,157,0,0,,7,,,67,127
46854,note_off,0,0,0,,7,,,79,127
46854,note_off,0,0,0,,12,,,71,127
46856,note_on,2,0,0,,7,,,79,127
46856,note_on,0,0,0,,1,,,73,127
46856,note_on,0,0,0,,10,,,57,127
47013,note_off,157,0,0,,10,,,57,127
47015,note_on,2,0,0,,4,,,64,127
47172,note_off,157,0,0,,4,,,64,127
47174,note_on,2,0,0,,7,,,67,127
47331,note_off,157,0,0,,7,,,67,127
47331,note_off,0,0,0,,1,,,73,127
47331,note_off,0,0,0,,7,,,79,127
47333,note_on,2,0,0,,2,,,74,127
47333,note_on,0,0,0,,7,,,79,127
47333,note_on,0,0,0,,12,,,59,127
47490,note_off,157,0,0,,12,,,59,127
47492,note_on,2,0,0,,2,,,62,127
47649,note_off,157,0,0,,2,,,62,127
47651,note_on,2,0,0,,7,,,67,127
47808,note_off,157,0,0,,7,,,67,127
47808,note_off,0,0,0,,7,,,79,127
47808,note_off,0,0,0,,2,,,74,127
47810,note_on,2,0,0,,10,,,69,127
47810,note_on,0,0,0,,7,,,79,127
47810,note_on,0,0,0,,1,,,61,127
47967,note_off,157,0,0,,1,,,61,127
47967,note_off,0,0,0,,7,,,79,127
47969,note_on,2,0,0,,6,,,78,127
47969,note_on,0,0,0,,4,,,64,127
48126,note_off,157,0,0,,4,,,64,127
48126,note_off,0,0,0,,6,,,78,127
48128,note_on,2,0,0,,4,,,76,127
48128,note_on,0,0,0,,1,,,61,127
48285,note_off,157,0,0,,1,,,61,127
48285,note_off,0,0,0,,4,,,76,127
48286,note_off,1,0,0,,10,,,69,127
48287,note_on,1,0,0,,6,,,78,127
48287,note_on,0,0,0,,10,,,69,127
48287,note_on,0,0,0,,2,,,62,127
48444,note_off,157,0,0,,2,,,62,127
48444,note_off,0,0,0,,6,,,78,127
48446,note_on,2,0,0,,7,,,79,127
48446,note_on,0,0,0,,4,,,64,127
48603,note_off,157,0,0,,4,,,64,127
48603,note_off,0,0,0,,7,,,79,127
48605,note_on,2,0,0,,10,,,81,127
48605,note_on,0,0,0,,6,,,66,127
48762,note_off,157,0,0,,6,,,66,127
48763,note_off,1,0,0,,10,,,69,127
48764,note_on,1,0,0,,12,,,71,127
48764,note_on,0,0,0,,7,,,67,127
48920,note_off,156,0,0,,10,,,81,127
48923,note_on,3,0,0,,7,,,79,127
49080,note_off,157,0,0,,7,,,79,127
49082,note_on,2,0,0,,6,,,78,127
49239,note_off,157,0,0,,6,,,78,127
49239,note_off,0,0,0,,7,,,67,127
49240,note_off,1,0,0,,12,,,71,127
49241,note_on,1,0,0,,1,,,73,127
49241,note_on,0,0,0,,4,,,76,127
49241,note_on,0,0,0,,10,,,69,127
49398,note_off,157,0,0,,10,,,69,127
49400,note_on,2,0,0,,10,,,57,127
49514,note_off,114,0,0,,1,,,73,127
49555,note_off,41,0,0,,4,,,76,127
49557,note_off,2,0,0,,10,,,57,127
49559,note_on,2,0,0,,10,,,81,127
49559,note_on,0,0,0,,7,,,67,127
49716,note_off,157,0,0,,7,,,67,127
49718,note_on,2,0,0,,2,,,74,127
49718,note_on,0,0,0,,6,,,66,127
49874,note_off,156,0,0,,10,,,81,127
49876,note_off,2,0,0,,6,,,66,127
49878,note_on,2,0,0,,7,,,79,127
49878,note_on,0,0,0,,4,,,64,127
50035,note_off,157,0,0,,4,,,64,127
50035,note_off,0,0,0,,7,,,79,127
50037,note_on,2,0,0,,6,,,78,127
50037,note_on,0,0,0,,2,,,62,127
50194,note_off,157,0,0,,2,,,62,127
50194,note_off,0,0,0,,6,,,78,127
50195,note_off,1,0,0,,2,,,74,127
50196,note_on,1,0,0,,4,,,76,127
50196,note_on,0,0,0,,1,,,73,127
50196,note_on,0,0,0,,10,,,69,127
50353,note_off,157,0,0,,10,,,69,127
50355,note_on,2,0,0,,10,,,57,127
50512,note_off,157,0,0,,10,,,57,127
50512,note_off,0,0,0,,4,,,76,127
50514,note_on,2,0,0,,10,,,81,127
50514,note_on,0,0,0,,7,,,67,127
50671,note_off,157,0,0,,7,,,67,127
50672,note_off,1,0,0,,1,,,73,127
50673,note_on,1,0,0,,2,,,74,127
50673,note_on,0,0,0,,6,,,66,127
50829,note_off,156,0,0,,10,,,81,127
50831,note_off,2,0,0,,6,,,66,127
50833,note_on,2,0,0,,7,,,79,127
50833,note_on,0,0,0,,4,,,64,127
50990,note_off,157,0,0,,4,,,64,127
50990,note_off,0,0,0,,7,,,79,127
50992,note_on,2,0,0,,6,,,78,127
50992,note_on,0,0,0,,2,,,62,127
51149,note_off,157,0,0,,2,,,62,127
51149,note_off,0,0,0,,6,,,78,127
51150,note_off,1,0,0,,2,,,74,127
51151,note_on,1,0,0,,4,,,76,127
51151,note_on,0,0,0,,1,,,73,127
51151,note_on,0,0,0,,10,,,69,127
51308,note_off,157,0,0,,10,,,69,127
51308,note_off,0,0,0,,4,,,76,127
51310,note_on,2,0,0,,10,,,81,127
51310,note_on,0,0,0,,10,,,57,127
51466,note_off,156,0,0,,1,,,73,127
51468,note_off,2,0,0,,10,,,57,127
51470,note_on,2,0,0,,1,,,73,127
51470,note_on,0,0,0,,7,,,67,127
51626,note_off,156,0,0,,10,,,81,127
51628,note_off,2,0,0,,7,,,67,127
51628,note_off,0,0,0,,1,,,73,127
51630,note_on,2,0,0,,10,,,81,127
51630,note_on,0,0,0,,2,,,74,127
51630,note_on,0,0,0,,6,,,66,127
51787,note_off,157,0,0,,6,,,66,127
51787,note_off,0,0,0,,10,,,81,127
51789,note_on,2,0,0,,7,,,79,127
51789,note_on,0,0,0,,4,,,64,127
51946,note_off,157,0,0,,4,,,64,127
51946,note_off,0,0,0,,7,,,79,127
51948,note_on,2,0,0,,6,,,78,127
51948,note_on,0,0,0,,2,,,62,127
52105,note_off,157,0,0,,2,,,62,127
52105,note_off,0,0,0,,6,,,78,127
52106,note_off,1,0,0,,2,,,74,127
52107,note_on,1,0,0,,4,,,76,127
52107,note_on,0,0,0,,10,,,57,127
52266,note_on,159,0,0,,10,,,81,127
52422,note_off,156,0,0,,4,,,76,127
52424,note_off,2,0,0,,10,,,81,127
52426,note_on,2,0,0,,4,,,76,127
52583,note_off,157,0,0,,4,,,76,127
52585,note_on,2,0,0,,1,,,73,127
52742,note_off,157,0,0,,1,,,73,127
52744,note_on,2,0,0,,10,,,69,127
52901,note_off,157,0,0,,10,,,69,127
52903,note_on,2,0,0,,4,,,64,127
53060,note_off,157,0,0,,4,,,64,127
53062,note_on,2,0,0,,1,,,61,127
53219,note_off,157,0,0,,1,,,61,127
53219,note_off,0,0,0,,10,,,57,127
53221,note_on,2,0,0,,10,,,57,127
53380,note_on,159,0,0,,4,,,52,127
53537,note_off,157,0,0,,4,,,52,127
53539,note_on,2,0,0,,1,,,49,127
53696,note_off,157,0,0,,1,,,49,127
53698,note_on,2,0,0,,10,,,45,127
53855,note_off,157,0,0,,10,,,45,127
53857,note_on,2,0,0,,10,,,45,127
54014,note_off,157,0,0,,10,,,45,127
54016,note_off,2,0,0,,10,,,57,127
54016,note_on,0,0,0,,10,,,45,127
54968,note_off,952,0,0,,10,,,45,127
55446,note_on,478,0,0,,7,,,79,127
55446,note_on,0,0,0,,0,,,84,127
55446,note_on,0,0,0,,7,,,55,127
55603,note_off,157,0,0,,7,,,55,127
55605,note_on,2,0,0,,2,,,62,127
55683,note_off,78,0,0,,0,,,84,127
55685,note_on,2,0,0,,11,,,82,127
55763,note_off,78,0,0,,2,,,62,127
55765,note_on,2,0,0,,7,,,67,127
55922,note_off,157,0,0,,7,,,67,127
55922,note_off,0,0,0,,11,,,82,127
55923,note_off,1,0,0,,7,,,79,127
55924,note_on,1,0,0,,10,,,81,127
55924,note_on,0,0,0,,1,,,73,127
55924,note_on,0,0,0,,10,,,57,127
56081,note_off,157,0,0,,10,,,57,127
56083,note_on,2,0,0,,4,,,64,127
56161,note_off,78,0,0,,10,,,81,127
56163,note_on,2,0,0,,7,,,79,127
56241,note_off,78,0,0,,4,,,64,127
56243,note_on,2,0,0,,7,,,67,127
56400,note_off,157,0,0,,7,,,67,127
56400,note_off,0,0,0,,7,,,79,127
56401,note_off,1,0,0,,1,,,73,127
56402,note_on,1,0,0,,7,,,79,127
56402,note_on,0,0,0,,0,,,84,127
56402,note_on,0,0,0,,7,,,55,127
56559,note_off,157,0,0,,7,,,55,127
56561,note_on,2,0,0,,2,,,62,127
56639,note_off,78,0,0,,0,,,84,127
56641,note_on,2,0,0,,11,,,82,127
56719,note_off,78,0,0,,2,,,62,127
56721,note_on,2,0,0,,7,,,67,127
56878,note_off,157,0,0,,7,,,67,127
56878,note_off,0,0,0,,11,,,82,127
56879,note_off,1,0,0,,7,,,79,127
56880,note_on,1,0,0,,1,,,73,127
56880,note_on,0,0,0,,10,,,81,127
56880,note_on,0,0,0,,10,,,57,127
57037,note_off,157,0,0,,10,,,57,127
57039,note_on,2,0,0,,4,,,64,127
57117,note_off,78,0,0,,10,,,81,127
57119,note_on,2,0,0,,7,,,79,127
57197,note_off,78,0,0,,4,,,64,127
57199,note_on,2,0,0,,7,,,67,127
57356,note_off,157,0,0,,7,,,67,127
57356,note_off,0,0,0,,7,,,79,127
57357,note_off,1,0,0,,1,,,73,127
57358,note_on,1,0,0,,2,,,86,127
57358,note_on,0,0,0,,2,,,74,127
57358,note_on,0,0,0,,7,,,55,127
57515,note_off,157,0,0,,7,,,55,127
57517,note_on,2,0,0,,2,,,62,127
57674,note_off,157,0,0,,2,,,62,127
57676,note_on,2,0,0,,7,,,67,127
57833,note_off,157,0,0,,7,,,67,127
57833,note_off,0,0,0,,2,,,74,127
57833,note_off,0,0,0,,2,,,86,127
57835,note_on,2,0,0,,1,,,85,127
57835,note_on,0,0,0,,10,,,57,127
57992,note_off,157,0,0,,1,,,85,127
57994,note_on,2,0,0,,7,,,79,127
58151,note_off,157,0,0,,7,,,79,127
58151,note_off,0,0,0,,10,,,57,127
58153,note_on,2,0,0,,4,,,76,127
58153,note_on,0,0,0,,1,,,61,127
58310,note_off,157,0,0,,1,,,61,127
58310,note_off,0,0,0,,4,,,76,127
58312,note_on,2,0,0,,5,,,77,127
58312,note_on,0,0,0,,2,,,62,127
58469,note_off,157,0,0,,2,,,62,127
58469,note_off,0,0,0,,5,,,77,127
58471,note_on,2,0,0,,7,,,79,127
58471,note_on,0,0,0,,4,,,64,127
58628,note_off,157,0,0,,4,,,64,127
58628,note_off,0,0,0,,7,,,79,127
58630,note_on,2,0,0,,10,,,81,127
58630,note_on,0,0,0,,5,,,65,127
58787,note_off,157,0,0,,5,,,65,127
58787,note_off,0,0,0,,10,,,81,127
58789,note_on,2,0,0,,11,,,82,127
58789,note_on,0,0,0,,7,,,67,127
58946,note_off,157,0,0,,11,,,82,127
58948,note_on,2,0,0,,7,,,79,127
59105,note_off,157,0,0,,7,,,79,127
59105,note_off,0,0,0,,7,,,67,127
59107,note_on,2,0,0,,4,,,76,127
59107,note_on,0,0,0,,7,,,55,127
59264,note_off,157,0,0,,7,,,55,127
59264,note_off,0,0,0,,4,,,76,127
59266,note_on,2,0,0,,2,,,74,127
59266,note_on,0,0,0,,10,,,57,127
59423,note_off,157,0,0,,2,,,74,127
59425,note_on,2,0,0,,2,,,74,127
59503,note_off,78,0,0,,2,,,74,127
59505,note_on,2,0,0,,1,,,73,127
59583,note_off,78,0,0,,1,,,73,127
59585,note_on,2,0,0,,12,,,71,127
59585,note_on,0,0,0,,10,,,45,127
59663,note_off,78,0,0,,12,,,71,127
59665,note_on,2,0,0,,1,,,73,127
59743,note_off,78,0,0,,1,,,73,127
59743,note_off,0,0,0,,10,,,45,127
59744,note_off,1,0,0,,10,,,57,127
59745,note_on,1,0,0,,2,,,74,127
59745,note_on,0,0,0,,2,,,50,127
59902,note_off,157,0,0,,2,,,50,127
59904,note_on,2,0,0,,4,,,52,127
60061,note_off,157,0,0,,4,,,52,127
60063,note_on,2,0,0,,5,,,53,127
60220,note_off,157,0,0,,5,,,53,127
60220,note_off,0,0,0,,2,,,74,127
60222,note_on,2,0,0,,0,,,84,127
60222,note_on,0,0,0,,7,,,79,127
60222,note_on,0,0,0,,7,,,55,127
60379,note_off,157,0,0,,7,,,55,127
60381,note_on,2,0,0,,2,,,62,127
60459,note_off,78,0,0,,0,,,84,127
60461,note_on,2,0,0,,11,,,82,127
60539,note_off,78,0,0,,2,,,62,127
60541,note_on,2,0,0,,7,,,67,127
60698,note_off,157,0,0,,7,,,67,127
60698,note_off,0,0,0,,11,,,82,127
60699,note_off,1,0,0,,7,,,79,127
60700,note_on,1,0,0,,1,,,73,127
60700,note_on,0,0,0,,10,,,81,127
60700,note_on,0,0,0,,10,,,57,127
60857,note_off,157,0,0,,10,,,57,127
60859,note_on,2,0,0,,4,,,64,127
60937,note_off,78,0,0,,10,,,81,127
60939,note_on,2,0,0,,7,,,79,127
61017,note_off,78,0,0,,4,,,64,127
61019,note_on,2,0,0,,7,,,67,127
61176,note_off,157,0,0,,7,,,67,127
61176,note_off,0,0,0,,7,,,79,127
61177,note_off,1,0,0,,1,,,73,127
61178,note_on,1,0,0,,7,,,79,127
61178,note_on,0,0,0,,0,,,84,127
61178,note_on,0,0,0,,7,,,55,127
61335,note_off,157,0,0,,7,,,55,127
61337,note_on,2,0,0,,2,,,62,127
61415,note_off,78,0,0,,0,,,84,127
61417,note_on,2,0,0,,11,,,82,127
61495,note_off,78,0,0,,2,,,62,127
61497,note_on,2,0,0,,7,,,67,127
61654,note_off,157,0,0,,7,,,67,127
61654,note_off,0,0,0,,11,,,82,127
61655,note_off,1,0,0,,7,,,79,127
61656,note_on,1,0,0,,10,,,81,127
61656,note_on,0,0,0,,1,,,73,127
61656,note_on,0,0,0,,10,,,57,127
61813,note_off,157,0,0,,10,,,57,127
61815,note_on,2,0,0,,4,,,64,127
61893,note_off,78,0,0,,10,,,81,127
61895,note_on,2,0,0,,7,,,79,127
61973,note_off,78,0,0,,4,,,64,127
61975,note_on,2,0,0,,7,,,67,127
62132,note_off,157,0,0,,7,,,67,127
62132,note_off,0,0,0,,7,,,79,127
62133,note_off,1,0,0,,1,,,73,127
62134,note_on,1,0,0,,2,,,86,127
62134,note_on,0,0,0,,2,,,74,127
62134,note_on,0,0,0,,7,,,55,127
62291,note_off,157,0,0,,7,,,55,127
62293,note_on,2,0,0,,2,,,62,127
62450,note_off,157,0,0,,2,,,62,127
62452,note_on,2,0,0,,7,,,67,127
62609,note_off,157,0,0,,7,,,67,127
62609,note_off,0,0,0,,2,,,74,127
62609,note_off,0,0,0,,2,,,86,127
62611,note_on,2,0,0,,1,,,85,127
62611,note_on,0,0,0,,10,,,57,127
62768,note_off,157,0,0,,1,,,85,127
62770,note_on,2,0,0,,7,,,79,127
62927,note_off,157,0,0,,7,,,79,127
62927,note_off,0,0,0,,10,,,57,127
62929,note_on,2,0,0,,4,,,76,127
62929,note_on,0,0,0,,1,,,61,127
63086,note_off,157,0,0,,1,,,61,127
63086,note_off,0,0,0,,4,,,76,127
63088,note_on,2,0,0,,5,,,77,127
63088,note_on,0,0,0,,2,,,62,127
63245,note_off,157,0,0,,2,,,62,127
63245,note_off,0,0,0,,5,,,77,127
63247,note_on,2,0,0,,7,,,79,127
63247,note_on,0,0,0,,4,,,64,127
63404,note_off,157,0,0,,4,,,64,127
63404,note_off,0,0,0,,7,,,79,127
63406,note_on,2,0,0,,10,,,81,127
63406,note_on,0,0,0,,5,,,65,127
63563,note_off,157,0,0,,5,,,65,127
63563,note_off,0,0,0,,10,,,81,127
63565,note_on,2,0,0,,11,,,82,127
63565,note_on,0,0,0,,7,,,67,127
63722,note_off,157,0,0,,11,,,82,127
63724,note_on,2,0,0,,7,,,79,127
63881,note_off,157,0,0,,7,,,79,127
63881,note_off,0,0,0,,7,,,67,127
63883,note_on,2,0,0,,4,,,76,127
63883,note_on,0,0,0,,7,,,55,127
64040,note_off,157,0,0,,7,,,55,127
64040,note_off,0,0,0,,4,,,76,127
64042,note_on,2,0,0,,2,,,74,127
64042,note_on,0,0,0,,10,,,57,127
64199,note_off,157,0,0,,2,,,74,127
64201,note_on,2,0,0,,2,,,74,127
64279,note_off,78,0,0,,2,,,74,127
64281,note_on,2,0,0,,1,,,73,127
64359,note_off,78,0,0,,1,,,73,127
64361,note_on,2,0,0,,12,,,71,127
64361,note_on,0,0,0,,10,,,45,127
64439,note_off,78,0,0,,12,,,71,127
64441,note_on,2,0,0,,1,,,73,127
64519,note_off,78,0,0,,1,,,73,127
64519,note_off,0,0,0,,10,,,45,127
64520,note_off,1,0,0,,10,,,57,127
64521,note_on,1,0,0,,2,,,74,127
64521,note_on,0,0,0,,2,,,50,127
64678,note_off,157,0,0,,2,,,50,127
64686,note_on,8,0,0,,4,,,52,127
64837,note_off,151,0,0,,2,,,74,127
64844,note_off,7,0,0,,4,,,52,127
64846,note_on,2,0,0,,6,,,54,127
64846,note_on,0,0,0,,2,,,86,127
65003,note_off,157,0,0,,6,,,54,127
65005,note_on,2,0,0,,7,,,55,127
65162,note_off,157,0,0,,2,,,86,127
65164,note_on,2,0,0,,12,,,83,127
65321,note_off,157,0,0,,12,,,83,127
65321,note_off,0,0,0,,7,,,55,127
65323,note_on,2,0,0,,7,,,55,127
65323,note_on,0,0,0,,7,,,79,127
65480,note_off,157,0,0,,7,,,79,127
65480,note_off,0,0,0,,7,,,55,127
65482,note_on,2,0,0,,6,,,54,127
65482,note_on,0,0,0,,10,,,81,127
65639,note_off,157,0,0,,10,,,81,127
65641,note_on,2,0,0,,6,,,78,127
65798,note_off,157,0,0,,6,,,78,127
65798,note_off,0,0,0,,6,,,54,127
65800,note_on,2,0,0,,12,,,59,127
65800,note_on,0,0,0,,2,,,74,127
65957,note_off,157,0,0,,2,,,74,127
65957,note_off,0,0,0,,12,,,59,127
65959,note_on,2,0,0,,7,,,55,127
65959,note_on,0,0,0,,12,,,71,127
66116,note_off,157,0,0,,12,,,71,127
66116,note_off,0,0,0,,7,,,55,127
66118,note_on,2,0,0,,10,,,57,127
66118,note_on,0,0,0,,7,,,67,127
66275,note_off,157,0,0,,7,,,67,127
66275,note_off,0,0,0,,10,,,57,127
66277,note_on,2,0,0,,10,,,45,127
66277,note_on,0,0,0,,4,,,64,127
66434,note_off,157,0,0,,4,,,64,127
66434,note_off,0,0,0,,10,,,45,127
66436,note_on,2,0,0,,2,,,50,127
66436,note_on,0,0,0,,2,,,62,127
66593,note_off,157,0,0,,2,,,50,127
66602,note_on,9,0,0,,4,,,52,127
66752,note_off,150,0,0,,2,,,62,127
66763,note_off,11,0,0,,4,,,52,127
66773,note_on,10,0,0,,6,,,54,127
66773,note_on,0,0,0,,2,,,86,127
66934,note_off,161,0,0,,6,,,54,127
66943,note_on,9,0,0,,7,,,55,127
67098,note_off,155,0,0,,2,,,86,127
67114,note_on,16,0,0,,12,,,83,127
67268,note_off,154,0,0,,7,,,55,127
67275,note_off,7,0,0,,12,,,83,127
67284,note_on,9,0,0,,7,,,55,127
67284,note_on,0,0,0,,7,,,79,127
67445,note_off,161,0,0,,7,,,79,127
67445,note_off,0,0,0,,7,,,55,127
67455,note_on,10,0,0,,6,,,54,127
67455,note_on,0,0,0,,10,,,81,127
67616,note_off,161,0,0,,10,,,81,127
67626,note_on,10,0,0,,6,,,78,127
67780,note_off,154,0,0,,6,,,54,127
67787,note_off,7,0,0,,6,,,78,127
67796,note_on,9,0,0,,12,,,59,127
67796,note_on,0,0,0,,2,,,74,127
67957,note_off,161,0,0,,2,,,74,127
67957,note_off,0,0,0,,12,,,59,127
67966,note_on,9,0,0,,7,,,55,127
67966,note_on,0,0,0,,12,,,71,127
68127,note_off,161,0,0,,12,,,71,127
68127,note_off,0,0,0,,7,,,55,127
68137,note_on,10,0,0,,10,,,57,127
68137,note_on,0,0,0,,7,,,67,127
68303,note_off,166,0,0,,7,,,67,127
68303,note_off,0,0,0,,10,,,57,127
68318,note_on,15,0,0,,10,,,45,127
68318,note_on,0,0,0,,4,,,64,127
68496,note_off,178,0,0,,4,,,64,127
68496,note_off,0,0,0,,10,,,45,127
68519,note_on,23,0,0,,2,,,38,127
68519,note_on,0,0,0,,2,,,62,127
70167,note_off,1648,0,0,,2,,,62,127
70167,note_off,0,0,0,,2,,,38,127
75264,end_of_track,5097,1,0,,,,,,
