tick,type,time,meta,track,program,channel,pitch,tempo,note,velocity
0,copyright,0,1,0,,,,,,
0,program_change,0,0,0,6,0,,,,
0,pitchwheel,0,0,0,,0,0,,,
0,program_change,0,0,0,6,1,,,,
0,pitchwheel,0,0,0,,1,-590,,,
0,program_change,0,0,0,6,2,,,,
0,pitchwheel,0,0,0,,2,-272,,,
0,program_change,0,0,0,6,3,,,,
0,pitchwheel,0,0,0,,3,-353,,,
0,program_change,0,0,0,6,4,,,,
0,pitchwheel,0,0,0,,4,-560,,,
0,program_change,0,0,0,6,5,,,,
0,pitchwheel,0,0,0,,5,-80,,,
0,program_change,0,0,0,6,6,,,,
0,pitchwheel,0,0,0,,6,-625,,,
0,program_change,0,0,0,6,7,,,,
0,pitchwheel,0,0,0,,7,-130,,,
0,program_change,0,0,0,6,8,,,,
0,pitchwheel,0,0,0,,8,-512,,,
0,program_change,0,0,0,6,10,,,,
0,pitchwheel,0,0,0,,10,-464,,,
0,program_change,0,0,0,6,11,,,,
0,pitchwheel,0,0,0,,11,-208,,,
0,program_change,0,0,0,6,12,,,,
0,pitchwheel,0,0,0,,12,-553,,,
0,set_tempo,0,1,0,,,,500000,,
85,note_on,85,0,0,,10,,,81,127
254,note_off,169,0,0,,10,,,81,127
256,note_on,2,0,0,,4,,,76,127
425,note_off,169,0,0,,4,,,76,127
427,note_on,2,0,0,,4,,,76,127
596,note_off,169,0,0,,4,,,76,127
598,note_on,2,0,0,,1,,,73,127
767,note_off,169,0,0,,1,,,73,127
769,note_on,2,0,0,,4,,,76,127
938,note_off,169,0,0,,4,,,76,127
940,note_on,2,0,0,,4,,,76,127
1109,note_off,169,0,0,,4,,,76,127
1111,note_on,2,0,0,,10,,,81,127
1280,note_off,169,0,0,,10,,,81,127
1282,note_on,2,0,0,,4,,,76,127
1451,note_off,169,0,0,,4,,,76,127
1453,note_on,2,0,0,,4,,,76,127
1622,note_off,169,0,0,,4,,,76,127
1624,note_on,2,0,0,,10,,,57,127
1624,note_on,0,0,0,,1,,,73,127
1793,note_off,169,0,0,,10,,,57,127
1795,note_on,2,0,0,,10,,,69,127
1964,note_off,169,0,0,,10,,,69,127
1964,note_off,0,0,0,,1,,,73,127
1966,note_on,2,0,0,,8,,,68,127
1966,note_on,0,0,0,,4,,,76,127
2135,note_off,169,0,0,,4,,,76,127
2135,note_off,0,0,0,,8,,,68,127
2137,note_on,2,0,0,,6,,,66,127
2137,note_on,0,0,0,,2,,,74,127
2306,note_off,169,0,0,,2,,,74,127
2306,note_off,0,0,0,,6,,,66,127
2308,note_on,2,0,0,,4,,,64,127
2308,note_on,0,0,0,,1,,,73,127
2477,note_off,169,0,0,,1,,,73,127
2477,note_off,0,0,0,,4,,,64,127
2479,note_on,2,0,0,,2,,,62,127
2479,note_on,0,0,0,,12,,,71,127
2648,note_off,169,0,0,,12,,,71,127
2648,note_off,0,0,0,,2,,,62,127
2650,note_on,2,0,0,,1,,,61,127
2650,note_on,0,0,0,,4,,,76,127
2819,note_off,169,0,0,,1,,,61,127
2821,note_on,2,0,0,,12,,,59,127
2821,note_on,0,0,0,,8,,,68,127
2906,note_off,85,0,0,,4,,,76,127
2990,note_off,84,0,0,,8,,,68,127
2990,note_off,0,0,0,,12,,,59,127
2992,note_on,2,0,0,,10,,,57,127
2992,note_on,0,0,0,,10,,,69,127
3161,note_off,169,0,0,,10,,,69,127
3161,note_off,0,0,0,,10,,,57,127
3163,note_on,2,0,0,,8,,,56,127
3163,note_on,0,0,0,,12,,,71,127
3332,note_off,169,0,0,,8,,,56,127
3334,note_on,2,0,0,,6,,,54,127
3334,note_on,0,0,0,,4,,,64,127
3501,note_off,167,0,0,,12,,,71,127
3503,note_off,2,0,0,,4,,,64,127
3503,note_off,0,0,0,,6,,,54,127
3505,note_on,2,0,0,,4,,,52,127
3505,note_on,0,0,0,,2,,,62,127
3674,note_off,169,0,0,,2,,,62,127
3674,note_off,0,0,0,,4,,,52,127
3676,note_on,2,0,0,,10,,,57,127
3676,note_on,0,0,0,,1,,,61,127
3845,note_off,169,0,0,,1,,,61,127
3845,note_off,0,0,0,,10,,,57,127
3847,note_on,2,0,0,,12,,,59,127
3847,note_on,0,0,0,,10,,,69,127
4016,note_off,169,0,0,,10,,,69,127
4016,note_off,0,0,0,,12,,,59,127
4018,note_on,2,0,0,,1,,,61,127
4018,note_on,0,0,0,,10,,,69,127
4187,note_off,169,0,0,,10,,,69,127
4187,note_off,0,0,0,,1,,,61,127
4189,note_on,2,0,0,,2,,,62,127
4189,note_on,0,0,0,,6,,,66,127
4358,note_off,169,0,0,,6,,,66,127
4358,note_off,0,0,0,,2,,,62,127
4360,note_on,2,0,0,,1,,,61,127
4360,note_on,0,0,0,,10,,,69,127
4529,note_off,169,0,0,,10,,,69,127
4529,note_off,0,0,0,,1,,,61,127
4531,note_on,2,0,0,,12,,,59,127
4531,note_on,0,0,0,,10,,,69,127
4700,note_off,169,0,0,,10,,,69,127
4700,note_off,0,0,0,,12,,,59,127
4702,note_on,2,0,0,,1,,,61,127
4702,note_on,0,0,0,,4,,,64,127
4871,note_off,169,0,0,,1,,,61,127
4873,note_on,2,0,0,,12,,,59,127
5042,note_off,169,0,0,,12,,,59,127
5042,note_off,0,0,0,,4,,,64,127
5044,note_on,2,0,0,,10,,,57,127
5044,note_on,0,0,0,,4,,,76,127
5213,note_off,169,0,0,,10,,,57,127
5215,note_on,2,0,0,,8,,,56,127
5384,note_off,169,0,0,,8,,,56,127
5384,note_off,0,0,0,,4,,,76,127
5386,note_on,2,0,0,,6,,,54,127
5386,note_on,0,0,0,,4,,,76,127
5470,note_off,84,0,0,,4,,,76,127
5472,note_on,2,0,0,,2,,,74,127
5556,note_off,84,0,0,,2,,,74,127
5556,note_off,0,0,0,,6,,,54,127
5558,note_on,2,0,0,,4,,,52,127
5558,note_on,0,0,0,,1,,,73,127
5642,note_off,84,0,0,,1,,,73,127
5644,note_on,2,0,0,,2,,,74,127
5728,note_off,84,0,0,,2,,,74,127
5728,note_off,0,0,0,,4,,,52,127
5730,note_on,2,0,0,,10,,,57,127
5730,note_on,0,0,0,,1,,,73,127
5899,note_off,169,0,0,,1,,,73,127
5899,note_off,0,0,0,,10,,,57,127
5901,note_on,2,0,0,,12,,,59,127
5901,note_on,0,0,0,,10,,,69,127
6070,note_off,169,0,0,,10,,,69,127
6070,note_off,0,0,0,,12,,,59,127
6072,note_on,2,0,0,,1,,,61,127
6072,note_on,0,0,0,,10,,,69,127
6241,note_off,169,0,0,,10,,,69,127
6241,note_off,0,0,0,,1,,,61,127
6243,note_on,2,0,0,,2,,,62,127
6243,note_on,0,0,0,,6,,,66,127
6412,note_off,169,0,0,,6,,,66,127
6412,note_off,0,0,0,,2,,,62,127
6414,note_on,2,0,0,,1,,,61,127
6414,note_on,0,0,0,,10,,,69,127
6583,note_off,169,0,0,,10,,,69,127
6583,note_off,0,0,0,,1,,,61,127
6585,note_on,2,0,0,,12,,,59,127
6585,note_on,0,0,0,,10,,,69,127
6754,note_off,169,0,0,,10,,,69,127
6754,note_off,0,0,0,,12,,,59,127
6756,note_on,2,0,0,,1,,,61,127
6756,note_on,0,0,0,,4,,,64,127
6925,note_off,169,0,0,,1,,,61,127
6927,note_on,2,0,0,,12,,,59,127
7096,note_off,169,0,0,,12,,,59,127
7098,note_on,2,0,0,,10,,,57,127
7098,note_on,0,0,0,,4,,,76,127
7267,note_off,169,0,0,,10,,,57,127
7269,note_on,2,0,0,,8,,,56,127
7438,note_off,169,0,0,,8,,,56,127
7438,note_off,0,0,0,,4,,,76,127
7439,note_off,1,0,0,,4,,,64,127
7440,note_on,1,0,0,,6,,,54,127
7440,note_on,0,0,0,,4,,,76,127
7524,note_off,84,0,0,,4,,,76,127
7526,note_on,2,0,0,,2,,,74,127
7610,note_off,84,0,0,,2,,,74,127
7610,note_off,0,0,0,,6,,,54,127
7612,note_on,2,0,0,,4,,,52,127
7612,note_on,0,0,0,,1,,,73,127
7696,note_off,84,0,0,,1,,,73,127
7698,note_on,2,0,0,,2,,,74,127
7782,note_off,84,0,0,,2,,,74,127
7782,note_off,0,0,0,,4,,,52,127
7784,note_on,2,0,0,,10,,,57,127
7784,note_on,0,0,0,,2,,,74,127
7953,note_off,169,0,0,,2,,,74,127
7953,note_off,0,0,0,,10,,,57,127
7955,note_on,2,0,0,,10,,,69,127
7955,note_on,0,0,0,,1,,,73,127
8124,note_off,169,0,0,,1,,,73,127
8124,note_off,0,0,0,,10,,,69,127
8126,note_on,2,0,0,,8,,,68,127
8126,note_on,0,0,0,,12,,,71,127
8295,note_off,169,0,0,,12,,,71,127
8295,note_off,0,0,0,,8,,,68,127
8297,note_on,2,0,0,,6,,,66,127
8297,note_on,0,0,0,,10,,,69,127
8466,note_off,169,0,0,,10,,,69,127
8466,note_off,0,0,0,,6,,,66,127
8468,note_on,2,0,0,,3,,,63,127
8468,note_on,0,0,0,,6,,,78,127
8637,note_off,169,0,0,,6,,,78,127
8637,note_off,0,0,0,,3,,,63,127
8639,note_on,2,0,0,,12,,,59,127
8639,note_on,0,0,0,,10,,,69,127
8808,note_off,169,0,0,,10,,,69,127
8808,note_off,0,0,0,,12,,,59,127
8810,note_on,2,0,0,,4,,,64,127
8810,note_on,0,0,0,,8,,,68,127
8979,note_off,169,0,0,,8,,,68,127
8979,note_off,0,0,0,,4,,,64,127
8981,note_on,2,0,0,,6,,,66,127
8981,note_on,0,0,0,,4,,,76,127
9150,note_off,169,0,0,,4,,,76,127
9150,note_off,0,0,0,,6,,,66,127
9152,note_on,2,0,0,,8,,,68,127
9152,note_on,0,0,0,,4,,,76,127
9321,note_off,169,0,0,,8,,,68,127
9323,note_on,2,0,0,,10,,,69,127
9323,note_on,0,0,0,,1,,,73,127
9408,note_off,85,0,0,,4,,,76,127
9492,note_off,84,0,0,,1,,,73,127
9492,note_off,0,0,0,,10,,,69,127
9494,note_on,2,0,0,,8,,,68,127
9494,note_on,0,0,0,,4,,,76,127
9663,note_off,169,0,0,,4,,,76,127
9663,note_off,0,0,0,,8,,,68,127
9665,note_on,2,0,0,,6,,,66,127
9665,note_on,0,0,0,,4,,,76,127
9834,note_off,169,0,0,,6,,,66,127
9836,note_on,2,0,0,,8,,,68,127
9836,note_on,0,0,0,,12,,,71,127
9921,note_off,85,0,0,,4,,,76,127
10005,note_off,84,0,0,,8,,,68,127
10007,note_on,2,0,0,,6,,,66,127
10176,note_off,169,0,0,,6,,,66,127
10176,note_off,0,0,0,,12,,,71,127
10178,note_on,2,0,0,,4,,,64,127
10178,note_on,0,0,0,,8,,,80,127
10347,note_off,169,0,0,,4,,,64,127
10349,note_on,2,0,0,,3,,,63,127
10518,note_off,169,0,0,,3,,,63,127
10518,note_off,0,0,0,,8,,,80,127
10520,note_on,2,0,0,,3,,,63,127
10520,note_on,0,0,0,,6,,,78,127
10689,note_off,169,0,0,,6,,,78,127
10689,note_off,0,0,0,,3,,,63,127
10691,note_on,2,0,0,,3,,,63,127
10691,note_on,0,0,0,,10,,,69,127
10860,note_off,169,0,0,,10,,,69,127
10860,note_off,0,0,0,,3,,,63,127
10862,note_on,2,0,0,,4,,,64,127
10862,note_on,0,0,0,,8,,,68,127
11031,note_off,169,0,0,,8,,,68,127
11031,note_off,0,0,0,,4,,,64,127
11033,note_on,2,0,0,,6,,,66,127
11033,note_on,0,0,0,,4,,,76,127
11202,note_off,169,0,0,,4,,,76,127
11202,note_off,0,0,0,,6,,,66,127
11204,note_on,2,0,0,,8,,,68,127
11204,note_on,0,0,0,,12,,,71,127
11373,note_off,169,0,0,,12,,,71,127
11373,note_off,0,0,0,,8,,,68,127
11375,note_on,2,0,0,,10,,,69,127
11375,note_on,0,0,0,,1,,,73,127
11544,note_off,169,0,0,,1,,,73,127
11544,note_off,0,0,0,,10,,,69,127
11546,note_on,2,0,0,,6,,,66,127
11546,note_on,0,0,0,,4,,,76,127
11630,note_off,84,0,0,,4,,,76,127
11632,note_on,2,0,0,,3,,,75,127
11716,note_off,84,0,0,,3,,,75,127
11716,note_off,0,0,0,,6,,,66,127
11718,note_on,2,0,0,,12,,,71,127
11718,note_on,0,0,0,,1,,,73,127
11802,note_off,84,0,0,,1,,,73,127
11804,note_on,2,0,0,,3,,,75,127
11888,note_off,84,0,0,,3,,,75,127
11888,note_off,0,0,0,,12,,,71,127
11890,note_on,2,0,0,,8,,,68,127
11890,note_on,0,0,0,,4,,,76,127
12059,note_off,169,0,0,,4,,,76,127
12059,note_off,0,0,0,,8,,,68,127
12061,note_on,2,0,0,,6,,,66,127
12061,note_on,0,0,0,,4,,,76,127
12230,note_off,169,0,0,,4,,,76,127
12230,note_off,0,0,0,,6,,,66,127
12232,note_on,2,0,0,,8,,,68,127
12232,note_on,0,0,0,,12,,,71,127
12401,note_off,169,0,0,,12,,,71,127
12401,note_off,0,0,0,,8,,,68,127
12403,note_on,2,0,0,,10,,,57,127
12403,note_on,0,0,0,,1,,,73,127
12572,note_off,169,0,0,,1,,,73,127
12572,note_off,0,0,0,,10,,,57,127
12574,note_on,2,0,0,,12,,,59,127
12574,note_on,0,0,0,,4,,,76,127
12658,note_off,84,0,0,,4,,,76,127
12660,note_on,2,0,0,,3,,,75,127
12744,note_off,84,0,0,,3,,,75,127
12746,note_on,2,0,0,,12,,,47,127
12746,note_on,0,0,0,,1,,,73,127
12830,note_off,84,0,0,,1,,,73,127
12832,note_on,2,0,0,,3,,,75,127
12914,note_off,82,0,0,,12,,,59,127
12916,note_off,2,0,0,,3,,,75,127
12916,note_off,0,0,0,,12,,,47,127
12918,note_on,2,0,0,,4,,,52,127
12918,note_on,0,0,0,,4,,,76,127
13089,note_on,171,0,0,,12,,,83,127
13258,note_off,169,0,0,,12,,,83,127
13260,note_on,2,0,0,,8,,,80,127
13429,note_off,169,0,0,,8,,,80,127
13430,note_off,1,0,0,,4,,,76,127
13430,note_off,0,0,0,,4,,,52,127
13431,note_on,1,0,0,,4,,,76,127
13602,note_on,171,0,0,,12,,,71,127
13771,note_off,169,0,0,,12,,,71,127
13773,note_on,2,0,0,,8,,,68,127
13942,note_off,169,0,0,,8,,,68,127
13943,note_off,1,0,0,,4,,,76,127
13944,note_on,1,0,0,,4,,,64,127
14115,note_on,171,0,0,,12,,,59,127
14284,note_off,169,0,0,,12,,,59,127
14286,note_on,2,0,0,,8,,,56,127
14455,note_off,169,0,0,,8,,,56,127
14456,note_off,1,0,0,,4,,,64,127
14457,note_on,1,0,0,,4,,,52,127
14628,note_on,171,0,0,,4,,,40,127
14797,note_off,169,0,0,,4,,,40,127
14799,note_on,2,0,0,,4,,,40,127
14968,note_off,169,0,0,,4,,,40,127
14969,note_off,1,0,0,,4,,,52,127
14970,note_on,1,0,0,,6,,,42,127
15025,note_off,55,0,0,,6,,,42,127
15027,note_on,2,0,0,,4,,,40,127
15082,note_off,55,0,0,,4,,,40,127
15084,note_on,2,0,0,,6,,,42,127
15139,note_off,55,0,0,,6,,,42,127
15141,note_on,2,0,0,,4,,,40,127
15196,note_off,55,0,0,,4,,,40,127
15198,note_on,2,0,0,,6,,,42,127
15253,note_off,55,0,0,,6,,,42,127
15255,note_on,2,0,0,,4,,,40,127
16066,note_on,811,0,0,,4,,,52,127
16066,note_on,0,0,0,,4,,,64,127
16066,note_on,0,0,0,,7,,,79,127
16066,note_on,0,0,0,,11,,,70,127
16069,note_off,3,0,0,,4,,,40,127
16235,note_off,166,0,0,,4,,,64,127
16235,note_off,0,0,0,,4,,,52,127
16237,note_on,2,0,0,,4,,,52,127
16237,note_on,0,0,0,,4,,,64,127
16406,note_off,169,0,0,,4,,,64,127
16406,note_off,0,0,0,,4,,,52,127
16408,note_on,2,0,0,,4,,,52,127
16408,note_on,0,0,0,,4,,,64,127
16577,note_off,169,0,0,,4,,,64,127
16577,note_off,0,0,0,,4,,,52,127
16577,note_off,0,0,0,,11,,,70,127
16577,note_off,0,0,0,,7,,,79,127
16579,note_on,2,0,0,,4,,,64,127
16579,note_on,0,0,0,,6,,,54,127
16579,note_on,0,0,0,,7,,,79,127
16579,note_on,0,0,0,,11,,,70,127
16748,note_off,169,0,0,,6,,,54,127
16748,note_off,0,0,0,,4,,,64,127
16750,note_on,2,0,0,,6,,,54,127
16750,note_on,0,0,0,,4,,,64,127
16919,note_off,169,0,0,,4,,,64,127
16919,note_off,0,0,0,,6,,,54,127
16921,note_on,2,0,0,,4,,,64,127
16921,note_on,0,0,0,,6,,,54,127
17090,note_off,169,0,0,,6,,,54,127
17090,note_off,0,0,0,,4,,,64,127
17090,note_off,0,0,0,,11,,,70,127
17090,note_off,0,0,0,,7,,,79,127
17092,note_on,2,0,0,,7,,,55,127
17092,note_on,0,0,0,,4,,,64,127
17092,note_on,0,0,0,,11,,,70,127
17092,note_on,0,0,0,,7,,,79,127
17261,note_off,169,0,0,,4,,,64,127
17261,note_off,0,0,0,,7,,,55,127
17263,note_on,2,0,0,,4,,,64,127
17263,note_on,0,0,0,,7,,,55,127
17432,note_off,169,0,0,,7,,,55,127
17432,note_off,0,0,0,,4,,,64,127
17434,note_on,2,0,0,,7,,,55,127
17434,note_on,0,0,0,,4,,,64,127
17603,note_off,169,0,0,,4,,,64,127
17603,note_off,0,0,0,,7,,,55,127
17603,note_off,0,0,0,,7,,,79,127
17603,note_off,0,0,0,,11,,,70,127
17605,note_on,2,0,0,,4,,,64,127
17605,note_on,0,0,0,,7,,,55,127
17605,note_on,0,0,0,,12,,,71,127
17605,note_on,0,0,0,,7,,,79,127
17774,note_off,169,0,0,,7,,,55,127
17774,note_off,0,0,0,,4,,,64,127
17776,note_on,2,0,0,,7,,,55,127
17776,note_on,0,0,0,,4,,,64,127
17945,note_off,169,0,0,,4,,,64,127
17945,note_off,0,0,0,,7,,,55,127
17947,note_on,2,0,0,,7,,,55,127
17947,note_on,0,0,0,,4,,,64,127
18116,note_off,169,0,0,,4,,,64,127
18116,note_off,0,0,0,,7,,,55,127
18116,note_off,0,0,0,,7,,,79,127
18116,note_off,0,0,0,,12,,,71,127
18118,note_on,2,0,0,,10,,,57,127
18118,note_on,0,0,0,,4,,,64,127
18118,note_on,0,0,0,,1,,,73,127
18118,note_on,0,0,0,,7,,,79,127
18287,note_off,169,0,0,,4,,,64,127
18287,note_off,0,0,0,,10,,,57,127
18289,note_on,2,0,0,,10,,,57,127
18289,note_on,0,0,0,,4,,,64,127
18458,note_off,169,0,0,,4,,,64,127
18458,note_off,0,0,0,,10,,,57,127
18460,note_on,2,0,0,,4,,,64,127
18460,note_on,0,0,0,,10,,,57,127
18629,note_off,169,0,0,,10,,,57,127
18629,note_off,0,0,0,,4,,,64,127
18629,note_off,0,0,0,,7,,,79,127
18629,note_off,0,0,0,,1,,,73,127
18631,note_on,2,0,0,,10,,,57,127
18631,note_on,0,0,0,,2,,,62,127
18631,note_on,0,0,0,,5,,,65,127
18631,note_on,0,0,0,,5,,,77,127
18631,note_on,0,0,0,,10,,,69,127
18631,note_on,0,0,0,,2,,,74,127
18800,note_off,169,0,0,,5,,,65,127
18800,note_off,0,0,0,,2,,,62,127
18800,note_off,0,0,0,,10,,,57,127
18802,note_on,2,0,0,,10,,,57,127
18802,note_on,0,0,0,,2,,,62,127
18802,note_on,0,0,0,,5,,,65,127
18971,note_off,169,0,0,,5,,,65,127
18971,note_off,0,0,0,,2,,,62,127
18971,note_off,0,0,0,,10,,,57,127
18973,note_on,2,0,0,,5,,,65,127
18973,note_on,0,0,0,,2,,,62,127
18973,note_on,0,0,0,,10,,,57,127
19142,note_off,169,0,0,,10,,,57,127
19142,note_off,0,0,0,,2,,,62,127
19142,note_off,0,0,0,,5,,,65,127
19142,note_off,0,0,0,,2,,,74,127
19142,note_off,0,0,0,,10,,,69,127
19142,note_off,0,0,0,,5,,,77,127
19144,note_on,2,0,0,,4,,,64,127
19144,note_on,0,0,0,,10,,,57,127
19144,note_on,0,0,0,,4,,,76,127
19144,note_on,0,0,0,,7,,,67,127
19144,note_on,0,0,0,,1,,,73,127
19313,note_off,169,0,0,,10,,,57,127
19313,note_off,0,0,0,,4,,,64,127
19315,note_on,2,0,0,,4,,,64,127
19315,note_on,0,0,0,,10,,,57,127
19484,note_off,169,0,0,,10,,,57,127
19484,note_off,0,0,0,,4,,,64,127
19486,note_on,2,0,0,,10,,,57,127
19486,note_on,0,0,0,,4,,,64,127
19655,note_off,169,0,0,,4,,,64,127
19655,note_off,0,0,0,,10,,,57,127
19655,note_off,0,0,0,,1,,,73,127
19655,note_off,0,0,0,,7,,,67,127
19655,note_off,0,0,0,,4,,,76,127
19657,note_on,2,0,0,,2,,,62,127
19657,note_on,0,0,0,,10,,,57,127
19657,note_on,0,0,0,,5,,,65,127
19657,note_on,0,0,0,,10,,,69,127
19657,note_on,0,0,0,,5,,,77,127
19657,note_on,0,0,0,,2,,,74,127
19826,note_off,169,0,0,,5,,,65,127
19826,note_off,0,0,0,,10,,,57,127
19826,note_off,0,0,0,,2,,,62,127
19828,note_on,2,0,0,,10,,,57,127
19828,note_on,0,0,0,,2,,,62,127
19828,note_on,0,0,0,,5,,,65,127
19997,note_off,169,0,0,,5,,,65,127
19997,note_off,0,0,0,,2,,,62,127
19997,note_off,0,0,0,,10,,,57,127
19999,note_on,2,0,0,,10,,,57,127
19999,note_on,0,0,0,,2,,,62,127
19999,note_on,0,0,0,,5,,,65,127
20168,note_off,169,0,0,,5,,,65,127
20168,note_off,0,0,0,,2,,,62,127
20168,note_off,0,0,0,,10,,,57,127
20168,note_off,0,0,0,,2,,,74,127
20168,note_off,0,0,0,,5,,,77,127
20168,note_off,0,0,0,,10,,,69,127
20170,note_on,2,0,0,,10,,,57,127
20170,note_on,0,0,0,,4,,,64,127
20170,note_on,0,0,0,,10,,,69,127
20170,note_on,0,0,0,,4,,,76,127
20170,note_on,0,0,0,,1,,,73,127
20339,note_off,169,0,0,,4,,,64,127
20339,note_off,0,0,0,,10,,,57,127
20341,note_on,2,0,0,,10,,,57,127
20341,note_on,0,0,0,,4,,,64,127
20510,note_off,169,0,0,,4,,,64,127
20510,note_off,0,0,0,,10,,,57,127
20512,note_on,2,0,0,,10,,,57,127
20512,note_on,0,0,0,,4,,,64,127
20681,note_off,169,0,0,,4,,,64,127
20681,note_off,0,0,0,,10,,,57,127
20681,note_off,0,0,0,,1,,,73,127
20681,note_off,0,0,0,,4,,,76,127
20681,note_off,0,0,0,,10,,,69,127
20683,note_on,2,0,0,,12,,,59,127
20683,note_on,0,0,0,,2,,,62,127
20683,note_on,0,0,0,,12,,,71,127
20683,note_on,0,0,0,,2,,,74,127
20683,note_on,0,0,0,,8,,,80,127
20852,note_off,169,0,0,,2,,,62,127
20852,note_off,0,0,0,,12,,,59,127
20854,note_on,2,0,0,,2,,,62,127
20854,note_on,0,0,0,,12,,,59,127
21023,note_off,169,0,0,,12,,,59,127
21023,note_off,0,0,0,,2,,,62,127
21025,note_on,2,0,0,,2,,,62,127
21025,note_on,0,0,0,,12,,,59,127
21194,note_off,169,0,0,,12,,,59,127
21194,note_off,0,0,0,,2,,,62,127
21194,note_off,0,0,0,,8,,,80,127
21194,note_off,0,0,0,,2,,,74,127
21194,note_off,0,0,0,,12,,,71,127
21196,note_on,2,0,0,,12,,,59,127
21196,note_on,0,0,0,,2,,,62,127
21196,note_on,0,0,0,,8,,,80,127
21196,note_on,0,0,0,,2,,,74,127
21196,note_on,0,0,0,,12,,,71,127
21365,note_off,169,0,0,,2,,,62,127
21365,note_off,0,0,0,,12,,,59,127
21367,note_on,2,0,0,,2,,,62,127
21367,note_on,0,0,0,,12,,,59,127
21536,note_off,169,0,0,,12,,,59,127
21536,note_off,0,0,0,,2,,,62,127
21538,note_on,2,0,0,,12,,,59,127
21538,note_on,0,0,0,,2,,,62,127
21707,note_off,169,0,0,,2,,,62,127
21707,note_off,0,0,0,,12,,,59,127
21709,note_on,2,0,0,,12,,,59,127
21709,note_on,0,0,0,,2,,,62,127
21878,note_off,169,0,0,,2,,,62,127
21878,note_off,0,0,0,,12,,,59,127
21880,note_on,2,0,0,,12,,,59,127
21880,note_on,0,0,0,,2,,,62,127
22049,note_off,169,0,0,,2,,,62,127
22049,note_off,0,0,0,,12,,,59,127
22051,note_on,2,0,0,,12,,,59,127
22051,note_on,0,0,0,,2,,,62,127
22220,note_off,169,0,0,,2,,,62,127
22220,note_off,0,0,0,,12,,,59,127
22220,note_off,0,0,0,,12,,,71,127
22220,note_off,0,0,0,,2,,,74,127
22220,note_off,0,0,0,,8,,,80,127
22222,note_on,2,0,0,,12,,,59,127
22222,note_on,0,0,0,,2,,,62,127
22222,note_on,0,0,0,,2,,,86,127
22222,note_on,0,0,0,,8,,,80,127
22222,note_on,0,0,0,,2,,,74,127
22391,note_off,169,0,0,,2,,,62,127
22391,note_off,0,0,0,,12,,,59,127
22393,note_on,2,0,0,,12,,,59,127
22393,note_on,0,0,0,,2,,,62,127
22562,note_off,169,0,0,,2,,,62,127
22562,note_off,0,0,0,,12,,,59,127
22564,note_on,2,0,0,,2,,,62,127
22564,note_on,0,0,0,,12,,,59,127
22733,note_off,169,0,0,,12,,,59,127
22733,note_off,0,0,0,,2,,,62,127
22733,note_off,0,0,0,,2,,,74,127
22733,note_off,0,0,0,,8,,,80,127
22733,note_off,0,0,0,,2,,,86,127
22735,note_on,2,0,0,,2,,,62,127
22735,note_on,0,0,0,,12,,,59,127
22735,note_on,0,0,0,,6,,,78,127
22735,note_on,0,0,0,,2,,,74,127
22735,note_on,0,0,0,,2,,,86,127
22904,note_off,169,0,0,,12,,,59,127
22904,note_off,0,0,0,,2,,,62,127
22906,note_on,2,0,0,,2,,,62,127
22906,note_on,0,0,0,,12,,,59,127
23075,note_off,169,0,0,,12,,,59,127
23075,note_off,0,0,0,,2,,,62,127
23077,note_on,2,0,0,,12,,,59,127
23077,note_on,0,0,0,,2,,,62,127
23246,note_off,169,0,0,,2,,,62,127
23246,note_off,0,0,0,,12,,,59,127
23246,note_off,0,0,0,,2,,,86,127
23246,note_off,0,0,0,,2,,,74,127
23246,note_off,0,0,0,,6,,,78,127
23248,note_on,2,0,0,,8,,,56,127
23248,note_on,0,0,0,,1,,,49,127
23248,note_on,0,0,0,,12,,,59,127
23248,note_on,0,0,0,,5,,,77,127
23248,note_on,0,0,0,,2,,,86,127
23248,note_on,0,0,0,,2,,,74,127
23417,note_off,169,0,0,,12,,,59,127
23417,note_off,0,0,0,,1,,,49,127
23417,note_off,0,0,0,,8,,,56,127
23419,note_on,2,0,0,,1,,,49,127
23419,note_on,0,0,0,,12,,,59,127
23419,note_on,0,0,0,,8,,,56,127
23588,note_off,169,0,0,,8,,,56,127
23588,note_off,0,0,0,,12,,,59,127
23588,note_off,0,0,0,,1,,,49,127
23590,note_on,2,0,0,,1,,,49,127
23590,note_on,0,0,0,,12,,,59,127
23590,note_on,0,0,0,,8,,,56,127
23759,note_off,169,0,0,,8,,,56,127
23759,note_off,0,0,0,,12,,,59,127
23759,note_off,0,0,0,,1,,,49,127
23759,note_off,0,0,0,,2,,,74,127
23759,note_off,0,0,0,,2,,,86,127
23759,note_off,0,0,0,,5,,,77,127
23761,note_on,2,0,0,,6,,,54,127
23761,note_on,0,0,0,,1,,,49,127
23761,note_on,0,0,0,,10,,,57,127
23761,note_on,0,0,0,,1,,,85,127
23761,note_on,0,0,0,,1,,,73,127
23761,note_on,0,0,0,,6,,,78,127
23930,note_off,169,0,0,,10,,,57,127
23930,note_off,0,0,0,,1,,,49,127
23930,note_off,0,0,0,,6,,,54,127
23932,note_on,2,0,0,,1,,,49,127
23932,note_on,0,0,0,,6,,,54,127
23932,note_on,0,0,0,,10,,,57,127
24101,note_off,169,0,0,,10,,,57,127
24101,note_off,0,0,0,,6,,,54,127
24101,note_off,0,0,0,,1,,,49,127
24103,note_on,2,0,0,,6,,,54,127
24103,note_on,0,0,0,,10,,,57,127
24103,note_on,0,0,0,,1,,,49,127
24272,note_off,169,0,0,,1,,,49,127
24272,note_off,0,0,0,,10,,,57,127
24272,note_off,0,0,0,,6,,,54,127
24272,note_off,0,0,0,,6,,,78,127
24272,note_off,0,0,0,,1,,,73,127
24272,note_off,0,0,0,,1,,,85,127
24274,note_on,2,0,0,,1,,,49,127
24274,note_on,0,0,0,,12,,,59,127
24274,note_on,0,0,0,,8,,,56,127
24274,note_on,0,0,0,,5,,,77,127
24274,note_on,0,0,0,,12,,,71,127
24274,note_on,0,0,0,,12,,,83,127
24443,note_off,169,0,0,,8,,,56,127
24443,note_off,0,0,0,,12,,,59,127
24443,note_off,0,0,0,,1,,,49,127
24445,note_on,2,0,0,,1,,,49,127
24445,note_on,0,0,0,,12,,,59,127
24445,note_on,0,0,0,,8,,,56,127
24614,note_off,169,0,0,,8,,,56,127
24614,note_off,0,0,0,,12,,,59,127
24614,note_off,0,0,0,,1,,,49,127
24616,note_on,2,0,0,,8,,,56,127
24616,note_on,0,0,0,,1,,,49,127
24616,note_on,0,0,0,,12,,,59,127
24785,note_off,169,0,0,,12,,,59,127
24785,note_off,0,0,0,,1,,,49,127
24785,note_off,0,0,0,,8,,,56,127
24785,note_off,0,0,0,,12,,,83,127
24785,note_off,0,0,0,,12,,,71,127
24785,note_off,0,0,0,,5,,,77,127
24787,note_on,2,0,0,,6,,,54,127
24787,note_on,0,0,0,,1,,,49,127
24787,note_on,0,0,0,,10,,,57,127
24787,note_on,0,0,0,,10,,,69,127
24787,note_on,0,0,0,,10,,,81,127
24787,note_on,0,0,0,,6,,,78,127
24956,note_off,169,0,0,,10,,,57,127
24956,note_off,0,0,0,,1,,,49,127
24956,note_off,0,0,0,,6,,,54,127
24958,note_on,2,0,0,,10,,,57,127
24958,note_on,0,0,0,,6,,,54,127
24958,note_on,0,0,0,,1,,,49,127
25127,note_off,169,0,0,,1,,,49,127
25127,note_off,0,0,0,,6,,,54,127
25127,note_off,0,0,0,,10,,,57,127
25129,note_on,2,0,0,,1,,,49,127
25129,note_on,0,0,0,,10,,,57,127
25129,note_on,0,0,0,,6,,,54,127
25298,note_off,169,0,0,,6,,,54,127
25298,note_off,0,0,0,,10,,,57,127
25298,note_off,0,0,0,,1,,,49,127
25298,note_off,0,0,0,,6,,,78,127
25298,note_off,0,0,0,,10,,,81,127
25298,note_off,0,0,0,,10,,,69,127
25300,note_on,2,0,0,,8,,,56,127
25300,note_on,0,0,0,,1,,,49,127
25300,note_on,0,0,0,,1,,,61,127
25300,note_on,0,0,0,,8,,,68,127
25300,note_on,0,0,0,,8,,,80,127
25300,note_on,0,0,0,,1,,,73,127
25469,note_off,169,0,0,,1,,,61,127
25469,note_off,0,0,0,,1,,,49,127
25469,note_off,0,0,0,,8,,,56,127
25471,note_on,2,0,0,,1,,,49,127
25471,note_on,0,0,0,,1,,,61,127
25471,note_on,0,0,0,,8,,,56,127
25640,note_off,169,0,0,,8,,,56,127
25640,note_off,0,0,0,,1,,,61,127
25640,note_off,0,0,0,,1,,,49,127
25642,note_on,2,0,0,,1,,,49,127
25642,note_on,0,0,0,,1,,,61,127
25642,note_on,0,0,0,,8,,,56,127
25811,note_off,169,0,0,,8,,,56,127
25811,note_off,0,0,0,,1,,,61,127
25811,note_off,0,0,0,,1,,,49,127
25811,note_off,0,0,0,,1,,,73,127
25811,note_off,0,0,0,,8,,,80,127
25811,note_off,0,0,0,,8,,,68,127
25813,note_on,2,0,0,,2,,,50,127
25813,note_on,0,0,0,,12,,,59,127
25813,note_on,0,0,0,,6,,,54,127
25813,note_on,0,0,0,,6,,,66,127
25813,note_on,0,0,0,,6,,,78,127
25813,note_on,0,0,0,,12,,,71,127
25982,note_off,169,0,0,,6,,,54,127
25982,note_off,0,0,0,,12,,,59,127
25982,note_off,0,0,0,,2,,,50,127
25984,note_on,2,0,0,,2,,,50,127
25984,note_on,0,0,0,,6,,,54,127
25984,note_on,0,0,0,,12,,,59,127
26153,note_off,169,0,0,,12,,,59,127
26153,note_off,0,0,0,,6,,,54,127
26153,note_off,0,0,0,,2,,,50,127
26155,note_on,2,0,0,,2,,,50,127
26155,note_on,0,0,0,,12,,,59,127
26155,note_on,0,0,0,,6,,,54,127
26324,note_off,169,0,0,,6,,,54,127
26324,note_off,0,0,0,,12,,,59,127
26324,note_off,0,0,0,,2,,,50,127
26324,note_off,0,0,0,,12,,,71,127
26324,note_off,0,0,0,,6,,,78,127
26324,note_off,0,0,0,,6,,,66,127
26326,note_on,2,0,0,,1,,,49,127
26326,note_on,0,0,0,,8,,,56,127
26326,note_on,0,0,0,,12,,,59,127
26326,note_on,0,0,0,,12,,,71,127
26326,note_on,0,0,0,,5,,,77,127
26326,note_on,0,0,0,,5,,,65,127
26495,note_off,169,0,0,,12,,,59,127
26495,note_off,0,0,0,,8,,,56,127
26495,note_off,0,0,0,,1,,,49,127
26497,note_on,2,0,0,,1,,,49,127
26497,note_on,0,0,0,,12,,,59,127
26497,note_on,0,0,0,,8,,,56,127
26666,note_off,169,0,0,,8,,,56,127
26666,note_off,0,0,0,,12,,,59,127
26666,note_off,0,0,0,,1,,,49,127
26668,note_on,2,0,0,,1,,,49,127
26668,note_on,0,0,0,,12,,,59,127
26668,note_on,0,0,0,,8,,,56,127
26837,note_off,169,0,0,,8,,,56,127
26837,note_off,0,0,0,,12,,,59,127
26837,note_off,0,0,0,,1,,,49,127
26837,note_off,0,0,0,,5,,,65,127
26837,note_off,0,0,0,,5,,,77,127
26837,note_off,0,0,0,,12,,,71,127
26839,note_on,2,0,0,,10,,,57,127
26839,note_on,0,0,0,,6,,,54,127
26839,note_on,0,0,0,,6,,,78,127
26839,note_on,0,0,0,,10,,,69,127
27008,note_off,169,0,0,,6,,,78,127
27008,note_off,0,0,0,,10,,,57,127
27010,note_on,2,0,0,,10,,,57,127
27010,note_on,0,0,0,,1,,,73,127
27177,note_off,167,0,0,,10,,,69,127
27177,note_off,0,0,0,,6,,,54,127
27179,note_off,2,0,0,,1,,,73,127
27179,note_off,0,0,0,,10,,,57,127
27181,note_on,2,0,0,,6,,,54,127
27181,note_on,0,0,0,,10,,,69,127
27350,note_off,169,0,0,,10,,,69,127
27350,note_off,0,0,0,,6,,,54,127
27352,note_on,2,0,0,,12,,,59,127
27352,note_on,0,0,0,,8,,,68,127
27521,note_off,169,0,0,,12,,,59,127
27523,note_on,2,0,0,,2,,,50,127
27523,note_on,0,0,0,,12,,,71,127
27690,note_off,167,0,0,,8,,,68,127
27692,note_off,2,0,0,,12,,,71,127
27692,note_off,0,0,0,,2,,,50,127
27694,note_on,2,0,0,,12,,,47,127
27694,note_on,0,0,0,,8,,,68,127
27863,note_off,169,0,0,,8,,,68,127
27863,note_off,0,0,0,,12,,,47,127
27865,note_on,2,0,0,,1,,,49,127
27865,note_on,0,0,0,,6,,,66,127
28034,note_off,169,0,0,,6,,,66,127
28036,note_on,2,0,0,,6,,,66,127
28120,note_off,84,0,0,,6,,,66,127
28122,note_on,2,0,0,,5,,,65,127
28206,note_off,84,0,0,,5,,,65,127
28208,note_on,2,0,0,,1,,,37,127
28208,note_on,0,0,0,,3,,,63,127
28292,note_off,84,0,0,,3,,,63,127
28294,note_on,2,0,0,,5,,,65,127
28378,note_off,84,0,0,,5,,,65,127
28378,note_off,0,0,0,,1,,,37,127
28379,note_off,1,0,0,,1,,,49,127
28380,note_on,1,0,0,,6,,,54,127
28380,note_on,0,0,0,,6,,,66,127
28557,note_off,177,0,0,,6,,,66,127
28557,note_off,0,0,0,,6,,,54,127
28565,note_on,8,0,0,,6,,,54,127
28565,note_on,0,0,0,,6,,,66,127
28734,note_off,169,0,0,,6,,,66,127
28734,note_off,0,0,0,,6,,,54,127
28736,note_on,2,0,0,,6,,,54,127
28736,note_on,0,0,0,,6,,,66,127
28905,note_off,169,0,0,,6,,,66,127
28905,note_off,0,0,0,,6,,,54,127
28907,note_on,2,0,0,,7,,,67,127
28907,note_on,0,0,0,,6,,,66,127
28907,note_on,0,0,0,,6,,,54,127
29076,note_off,169,0,0,,6,,,54,127
29076,note_off,0,0,0,,6,,,66,127
29078,note_on,2,0,0,,4,,,64,127
29078,note_on,0,0,0,,6,,,54,127
29247,note_off,169,0,0,,6,,,54,127
29247,note_off,0,0,0,,4,,,64,127
29249,note_on,2,0,0,,4,,,64,127
29249,note_on,0,0,0,,6,,,54,127
29418,note_off,169,0,0,,6,,,54,127
29418,note_off,0,0,0,,4,,,64,127
29418,note_off,0,0,0,,7,,,67,127
29420,note_on,2,0,0,,11,,,70,127
29420,note_on,0,0,0,,7,,,67,127
29420,note_on,0,0,0,,4,,,64,127
29420,note_on,0,0,0,,6,,,54,127
29589,note_off,169,0,0,,6,,,54,127
29589,note_off,0,0,0,,4,,,64,127
29591,note_on,2,0,0,,6,,,54,127
29591,note_on,0,0,0,,4,,,64,127
29760,note_off,169,0,0,,4,,,64,127
29760,note_off,0,0,0,,6,,,54,127
29762,note_on,2,0,0,,4,,,64,127
29762,note_on,0,0,0,,6,,,54,127
29931,note_off,169,0,0,,6,,,54,127
29931,note_off,0,0,0,,4,,,64,127
29931,note_off,0,0,0,,7,,,67,127
29931,note_off,0,0,0,,11,,,70,127
29933,note_on,2,0,0,,6,,,66,127
29933,note_on,0,0,0,,12,,,71,127
29933,note_on,0,0,0,,2,,,62,127
29933,note_on,0,0,0,,12,,,59,127
29933,note_on,0,0,0,,6,,,54,127
30102,note_off,169,0,0,,6,,,54,127
30102,note_off,0,0,0,,12,,,59,127
30102,note_off,0,0,0,,2,,,62,127
30104,note_on,2,0,0,,12,,,59,127
30104,note_on,0,0,0,,2,,,62,127
30104,note_on,0,0,0,,6,,,54,127
30273,note_off,169,0,0,,6,,,54,127
30273,note_off,0,0,0,,2,,,62,127
30273,note_off,0,0,0,,12,,,59,127
30275,note_on,2,0,0,,2,,,62,127
30275,note_on,0,0,0,,12,,,59,127
30275,note_on,0,0,0,,6,,,54,127
30444,note_off,169,0,0,,6,,,54,127
30444,note_off,0,0,0,,12,,,59,127
30444,note_off,0,0,0,,2,,,62,127
30444,note_off,0,0,0,,12,,,71,127
30444,note_off,0,0,0,,6,,,66,127
30446,note_on,2,0,0,,12,,,71,127
30446,note_on,0,0,0,,1,,,73,127
30446,note_on,0,0,0,,8,,,68,127
30446,note_on,0,0,0,,1,,,61,127
30446,note_on,0,0,0,,12,,,59,127
30446,note_on,0,0,0,,5,,,53,127
30615,note_off,169,0,0,,5,,,53,127
30615,note_off,0,0,0,,12,,,59,127
30615,note_off,0,0,0,,1,,,61,127
30617,note_on,2,0,0,,12,,,59,127
30617,note_on,0,0,0,,1,,,61,127
30617,note_on,0,0,0,,5,,,53,127
30786,note_off,169,0,0,,5,,,53,127
30786,note_off,0,0,0,,1,,,61,127
30786,note_off,0,0,0,,12,,,59,127
30788,note_on,2,0,0,,1,,,61,127
30788,note_on,0,0,0,,12,,,59,127
30788,note_on,0,0,0,,5,,,53,127
30957,note_off,169,0,0,,5,,,53,127
30957,note_off,0,0,0,,12,,,59,127
30957,note_off,0,0,0,,1,,,61,127
30957,note_off,0,0,0,,8,,,68,127
30957,note_off,0,0,0,,1,,,73,127
30957,note_off,0,0,0,,12,,,71,127
30959,note_on,2,0,0,,10,,,69,127
30959,note_on,0,0,0,,6,,,54,127
31128,note_off,169,0,0,,6,,,54,127
31130,note_on,2,0,0,,1,,,73,127
31130,note_on,0,0,0,,10,,,57,127
31297,note_off,167,0,0,,10,,,69,127
31299,note_off,2,0,0,,10,,,57,127
31299,note_off,0,0,0,,1,,,73,127
31301,note_on,2,0,0,,10,,,69,127
31301,note_on,0,0,0,,6,,,54,127
31470,note_off,169,0,0,,6,,,54,127
31470,note_off,0,0,0,,10,,,69,127
31472,note_on,2,0,0,,8,,,68,127
31472,note_on,0,0,0,,12,,,59,127
31641,note_off,169,0,0,,12,,,59,127
31643,note_on,2,0,0,,12,,,71,127
31643,note_on,0,0,0,,2,,,50,127
31810,note_off,167,0,0,,8,,,68,127
31812,note_off,2,0,0,,2,,,50,127
31812,note_off,0,0,0,,12,,,71,127
31814,note_on,2,0,0,,8,,,68,127
31814,note_on,0,0,0,,12,,,47,127
31983,note_off,169,0,0,,12,,,47,127
31983,note_off,0,0,0,,8,,,68,127
31985,note_on,2,0,0,,6,,,66,127
31985,note_on,0,0,0,,1,,,49,127
32154,note_off,169,0,0,,6,,,66,127
32156,note_on,2,0,0,,6,,,66,127
32240,note_off,84,0,0,,6,,,66,127
32242,note_on,2,0,0,,5,,,65,127
32326,note_off,84,0,0,,5,,,65,127
32328,note_on,2,0,0,,3,,,63,127
32328,note_on,0,0,0,,1,,,37,127
32412,note_off,84,0,0,,3,,,63,127
32414,note_on,2,0,0,,5,,,65,127
32498,note_off,84,0,0,,5,,,65,127
32498,note_off,0,0,0,,1,,,37,127
32499,note_off,1,0,0,,1,,,49,127
32500,note_on,1,0,0,,6,,,66,127
32500,note_on,0,0,0,,6,,,54,127
32669,note_off,169,0,0,,6,,,54,127
32669,note_off,0,0,0,,6,,,66,127
32671,note_on,2,0,0,,6,,,66,127
32671,note_on,0,0,0,,6,,,54,127
32840,note_off,169,0,0,,6,,,54,127
32840,note_off,0,0,0,,6,,,66,127
32842,note_on,2,0,0,,6,,,66,127
32842,note_on,0,0,0,,6,,,54,127
33011,note_off,169,0,0,,6,,,54,127
33011,note_off,0,0,0,,6,,,66,127
33013,note_on,2,0,0,,7,,,67,127
33013,note_on,0,0,0,,6,,,66,127
33013,note_on,0,0,0,,6,,,54,127
33182,note_off,169,0,0,,6,,,54,127
33182,note_off,0,0,0,,6,,,66,127
33184,note_on,2,0,0,,4,,,64,127
33184,note_on,0,0,0,,6,,,54,127
33353,note_off,169,0,0,,6,,,54,127
33353,note_off,0,0,0,,4,,,64,127
33355,note_on,2,0,0,,4,,,64,127
33355,note_on,0,0,0,,6,,,54,127
33524,note_off,169,0,0,,6,,,54,127
33524,note_off,0,0,0,,4,,,64,127
33524,note_off,0,0,0,,7,,,67,127
33526,note_on,2,0,0,,11,,,70,127
33526,note_on,0,0,0,,7,,,67,127
33526,note_on,0,0,0,,4,,,64,127
33526,note_on,0,0,0,,6,,,54,127
33695,note_off,169,0,0,,6,,,54,127
33695,note_off,0,0,0,,4,,,64,127
33697,note_on,2,0,0,,6,,,54,127
33697,note_on,0,0,0,,4,,,64,127
33866,note_off,169,0,0,,4,,,64,127
33866,note_off,0,0,0,,6,,,54,127
33868,note_on,2,0,0,,4,,,64,127
33868,note_on,0,0,0,,6,,,54,127
34037,note_off,169,0,0,,6,,,54,127
34037,note_off,0,0,0,,4,,,64,127
34037,note_off,0,0,0,,7,,,67,127
34037,note_off,0,0,0,,11,,,70,127
34039,note_on,2,0,0,,12,,,71,127
34039,note_on,0,0,0,,6,,,66,127
34039,note_on,0,0,0,,12,,,59,127
34039,note_on,0,0,0,,2,,,62,127
34039,note_on,0,0,0,,6,,,54,127
34208,note_off,169,0,0,,6,,,54,127
34208,note_off,0,0,0,,2,,,62,127
34208,note_off,0,0,0,,12,,,59,127
34210,note_on,2,0,0,,2,,,62,127
34210,note_on,0,0,0,,6,,,54,127
34210,note_on,0,0,0,,12,,,59,127
34379,note_off,169,0,0,,12,,,59,127
34379,note_off,0,0,0,,6,,,54,127
34379,note_off,0,0,0,,2,,,62,127
34381,note_on,2,0,0,,2,,,62,127
34381,note_on,0,0,0,,12,,,59,127
34381,note_on,0,0,0,,6,,,54,127
34550,note_off,169,0,0,,6,,,54,127
34550,note_off,0,0,0,,12,,,59,127
34550,note_off,0,0,0,,2,,,62,127
34550,note_off,0,0,0,,6,,,66,127
34550,note_off,0,0,0,,12,,,71,127
34552,note_on,2,0,0,,1,,,73,127
34552,note_on,0,0,0,,12,,,71,127
34552,note_on,0,0,0,,8,,,68,127
34552,note_on,0,0,0,,1,,,61,127
34552,note_on,0,0,0,,12,,,59,127
34552,note_on,0,0,0,,5,,,53,127
34721,note_off,169,0,0,,5,,,53,127
34721,note_off,0,0,0,,12,,,59,127
34721,note_off,0,0,0,,1,,,61,127
34723,note_on,2,0,0,,1,,,61,127
34723,note_on,0,0,0,,12,,,59,127
34723,note_on,0,0,0,,5,,,53,127
34892,note_off,169,0,0,,5,,,53,127
34892,note_off,0,0,0,,12,,,59,127
34892,note_off,0,0,0,,1,,,61,127
34894,note_on,2,0,0,,1,,,61,127
34894,note_on,0,0,0,,5,,,53,127
34894,note_on,0,0,0,,12,,,59,127
35063,note_off,169,0,0,,12,,,59,127
35063,note_off,0,0,0,,5,,,53,127
35063,note_off,0,0,0,,1,,,61,127
35063,note_off,0,0,0,,8,,,68,127
35063,note_off,0,0,0,,12,,,71,127
35063,note_off,0,0,0,,1,,,73,127
35065,note_on,2,0,0,,10,,,69,127
35065,note_on,0,0,0,,6,,,54,127
35236,note_on,171,0,0,,1,,,73,127
35236,note_on,0,0,0,,10,,,57,127
35403,note_off,167,0,0,,6,,,54,127
35403,note_off,0,0,0,,10,,,69,127
35405,note_off,2,0,0,,10,,,57,127
35405,note_off,0,0,0,,1,,,73,127
35407,note_on,2,0,0,,10,,,69,127
35407,note_on,0,0,0,,6,,,54,127
35576,note_off,169,0,0,,6,,,54,127
35576,note_off,0,0,0,,10,,,69,127
35578,note_on,2,0,0,,8,,,68,127
35578,note_on,0,0,0,,12,,,59,127
35747,note_off,169,0,0,,12,,,59,127
35749,note_on,2,0,0,,12,,,71,127
35749,note_on,0,0,0,,2,,,50,127
35916,note_off,167,0,0,,8,,,68,127
35918,note_off,2,0,0,,2,,,50,127
35918,note_off,0,0,0,,12,,,71,127
35920,note_on,2,0,0,,8,,,68,127
35920,note_on,0,0,0,,12,,,47,127
36089,note_off,169,0,0,,12,,,47,127
36089,note_off,0,0,0,,8,,,68,127
36091,note_on,2,0,0,,6,,,66,127
36091,note_on,0,0,0,,1,,,49,127
36260,note_off,169,0,0,,6,,,66,127
36262,note_on,2,0,0,,6,,,66,127
36346,note_off,84,0,0,,6,,,66,127
36348,note_on,2,0,0,,5,,,65,127
36432,note_off,84,0,0,,5,,,65,127
36434,note_on,2,0,0,,3,,,63,127
36434,note_on,0,0,0,,1,,,37,127
36518,note_off,84,0,0,,3,,,63,127
36520,note_on,2,0,0,,5,,,65,127
36604,note_off,84,0,0,,5,,,65,127
36604,note_off,0,0,0,,1,,,37,127
36605,note_off,1,0,0,,1,,,49,127
36606,note_on,1,0,0,,6,,,66,127
36606,note_on,0,0,0,,10,,,57,127
36606,note_on,0,0,0,,6,,,54,127
36775,note_off,169,0,0,,6,,,54,127
36775,note_off,0,0,0,,10,,,57,127
36775,note_off,0,0,0,,6,,,66,127
36777,note_on,2,0,0,,6,,,66,127
36777,note_on,0,0,0,,12,,,59,127
36777,note_on,0,0,0,,8,,,56,127
36946,note_off,169,0,0,,8,,,56,127
36946,note_off,0,0,0,,12,,,59,127
36946,note_off,0,0,0,,6,,,66,127
36948,note_on,2,0,0,,6,,,66,127
36948,note_on,0,0,0,,1,,,61,127
36948,note_on,0,0,0,,10,,,57,127
37117,note_off,169,0,0,,10,,,57,127
37117,note_off,0,0,0,,1,,,61,127
37117,note_off,0,0,0,,6,,,66,127
37119,note_on,2,0,0,,6,,,66,127
37119,note_on,0,0,0,,12,,,59,127
37119,note_on,0,0,0,,2,,,62,127
37288,note_off,169,0,0,,2,,,62,127
37288,note_off,0,0,0,,12,,,59,127
37288,note_off,0,0,0,,6,,,66,127
37290,note_on,2,0,0,,6,,,66,127
37290,note_on,0,0,0,,10,,,57,127
37290,note_on,0,0,0,,1,,,61,127
37459,note_off,169,0,0,,1,,,61,127
37459,note_off,0,0,0,,10,,,57,127
37459,note_off,0,0,0,,6,,,66,127
37461,note_on,2,0,0,,6,,,66,127
37461,note_on,0,0,0,,8,,,56,127
37461,note_on,0,0,0,,12,,,59,127
37630,note_off,169,0,0,,12,,,59,127
37630,note_off,0,0,0,,8,,,56,127
37630,note_off,0,0,0,,6,,,66,127
37632,note_on,2,0,0,,6,,,78,127
37632,note_on,0,0,0,,1,,,61,127
37632,note_on,0,0,0,,10,,,57,127
37801,note_off,169,0,0,,10,,,57,127
37801,note_off,0,0,0,,1,,,61,127
37803,note_on,2,0,0,,6,,,66,127
37803,note_on,0,0,0,,8,,,56,127
37803,note_on,0,0,0,,12,,,59,127
37970,note_off,167,0,0,,6,,,78,127
37972,note_off,2,0,0,,12,,,59,127
37972,note_off,0,0,0,,8,,,56,127
37972,note_off,0,0,0,,6,,,66,127
37974,note_on,2,0,0,,1,,,73,127
37974,note_on,0,0,0,,10,,,57,127
37974,note_on,0,0,0,,6,,,54,127
38143,note_off,169,0,0,,6,,,54,127
38143,note_off,0,0,0,,10,,,57,127
38145,note_on,2,0,0,,1,,,49,127
38145,note_on,0,0,0,,1,,,37,127
38314,note_off,169,0,0,,1,,,73,127
38316,note_on,2,0,0,,10,,,69,127
38316,note_on,0,0,0,,12,,,71,127
38485,note_off,169,0,0,,12,,,71,127
38485,note_off,0,0,0,,10,,,69,127
38487,note_on,2,0,0,,8,,,68,127
38656,note_off,169,0,0,,8,,,68,127
38656,note_off,0,0,0,,1,,,37,127
38656,note_off,0,0,0,,1,,,49,127
38658,note_on,2,0,0,,6,,,66,127
38658,note_on,0,0,0,,6,,,54,127
38658,note_on,0,0,0,,6,,,42,127
38827,note_off,169,0,0,,6,,,42,127
38827,note_off,0,0,0,,6,,,54,127
38827,note_off,0,0,0,,6,,,66,127
38829,note_on,2,0,0,,6,,,66,127
38829,note_on,0,0,0,,6,,,54,127
38998,note_off,169,0,0,,6,,,54,127
38998,note_off,0,0,0,,6,,,66,127
39000,note_on,2,0,0,,6,,,66,127
39000,note_on,0,0,0,,4,,,52,127
39169,note_off,169,0,0,,4,,,52,127
39169,note_off,0,0,0,,6,,,66,127
39171,note_on,2,0,0,,6,,,66,127
39171,note_on,0,0,0,,2,,,50,127
39340,note_off,169,0,0,,2,,,50,127
39340,note_off,0,0,0,,6,,,66,127
39342,note_on,2,0,0,,6,,,66,127
39342,note_on,0,0,0,,1,,,49,127
39511,note_off,169,0,0,,1,,,49,127
39511,note_off,0,0,0,,6,,,66,127
39513,note_on,2,0,0,,6,,,66,127
39513,note_on,0,0,0,,12,,,47,127
39682,note_off,169,0,0,,12,,,47,127
39684,note_on,2,0,0,,6,,,78,127
39684,note_on,0,0,0,,10,,,45,127
39851,note_off,167,0,0,,6,,,66,127
39853,note_off,2,0,0,,10,,,45,127
39855,note_on,2,0,0,,6,,,66,127
39855,note_on,0,0,0,,8,,,44,127
40022,note_off,167,0,0,,6,,,78,127
40024,note_off,2,0,0,,8,,,44,127
40024,note_off,0,0,0,,6,,,66,127
40026,note_on,2,0,0,,1,,,73,127
40026,note_on,0,0,0,,6,,,42,127
40195,note_off,169,0,0,,6,,,42,127
40197,note_on,2,0,0,,1,,,49,127
40197,note_on,0,0,0,,1,,,37,127
40366,note_off,169,0,0,,1,,,73,127
40368,note_on,2,0,0,,12,,,71,127
40368,note_on,0,0,0,,10,,,69,127
40537,note_off,169,0,0,,10,,,69,127
40537,note_off,0,0,0,,12,,,71,127
40539,note_on,2,0,0,,8,,,68,127
40708,note_off,169,0,0,,8,,,68,127
40708,note_off,0,0,0,,1,,,37,127
40708,note_off,0,0,0,,1,,,49,127
40717,note_on,9,0,0,,6,,,42,127
40717,note_on,0,0,0,,6,,,66,127
40717,note_on,0,0,0,,6,,,54,127
41250,note_off,533,0,0,,6,,,54,127
41250,note_off,0,0,0,,6,,,66,127
41250,note_off,0,0,0,,6,,,42,127
41264,note_on,14,0,0,,1,,,61,127
41264,note_on,0,0,0,,6,,,54,127
41264,note_on,0,0,0,,4,,,64,127
41264,note_on,0,0,0,,11,,,70,127
41264,note_on,0,0,0,,7,,,67,127
41433,note_off,169,0,0,,4,,,64,127
41433,note_off,0,0,0,,6,,,54,127
41433,note_off,0,0,0,,1,,,61,127
41435,note_on,2,0,0,,1,,,61,127
41435,note_on,0,0,0,,6,,,54,127
41435,note_on,0,0,0,,4,,,64,127
41604,note_off,169,0,0,,4,,,64,127
41604,note_off,0,0,0,,6,,,54,127
41604,note_off,0,0,0,,1,,,61,127
41606,note_on,2,0,0,,6,,,54,127
41606,note_on,0,0,0,,1,,,61,127
41606,note_on,0,0,0,,4,,,64,127
41775,note_off,169,0,0,,4,,,64,127
41775,note_off,0,0,0,,1,,,61,127
41775,note_off,0,0,0,,6,,,54,127
41775,note_off,0,0,0,,7,,,67,127
41775,note_off,0,0,0,,11,,,70,127
41777,note_on,2,0,0,,6,,,54,127
41777,note_on,0,0,0,,2,,,62,127
41777,note_on,0,0,0,,12,,,59,127
41777,note_on,0,0,0,,6,,,66,127
41777,note_on,0,0,0,,12,,,71,127
41946,note_off,169,0,0,,12,,,59,127
41946,note_off,0,0,0,,2,,,62,127
41946,note_off,0,0,0,,6,,,54,127
41948,note_on,2,0,0,,6,,,54,127
41948,note_on,0,0,0,,2,,,62,127
41948,note_on,0,0,0,,12,,,59,127
42117,note_off,169,0,0,,12,,,59,127
42117,note_off,0,0,0,,2,,,62,127
42117,note_off,0,0,0,,6,,,54,127
42119,note_on,2,0,0,,6,,,54,127
42119,note_on,0,0,0,,12,,,59,127
42119,note_on,0,0,0,,2,,,62,127
42288,note_off,169,0,0,,2,,,62,127
42288,note_off,0,0,0,,12,,,59,127
42288,note_off,0,0,0,,6,,,54,127
42288,note_off,0,0,0,,12,,,71,127
42288,note_off,0,0,0,,6,,,66,127
42290,note_on,2,0,0,,6,,,54,127
42290,note_on,0,0,0,,1,,,61,127
42290,note_on,0,0,0,,4,,,64,127
42290,note_on,0,0,0,,6,,,66,127
42290,note_on,0,0,0,,1,,,73,127
42290,note_on,0,0,0,,11,,,70,127
42459,note_off,169,0,0,,4,,,64,127
42459,note_off,0,0,0,,1,,,61,127
42459,note_off,0,0,0,,6,,,54,127
42461,note_on,2,0,0,,6,,,54,127
42461,note_on,0,0,0,,1,,,61,127
42461,note_on,0,0,0,,4,,,64,127
42630,note_off,169,0,0,,4,,,64,127
42630,note_off,0,0,0,,1,,,61,127
42630,note_off,0,0,0,,6,,,54,127
42632,note_on,2,0,0,,6,,,54,127
42632,note_on,0,0,0,,4,,,64,127
42632,note_on,0,0,0,,1,,,61,127
42801,note_off,169,0,0,,1,,,61,127
42801,note_off,0,0,0,,4,,,64,127
42801,note_off,0,0,0,,6,,,54,127
42801,note_off,0,0,0,,11,,,70,127
42801,note_off,0,0,0,,1,,,73,127
42801,note_off,0,0,0,,6,,,66,127
42803,note_on,2,0,0,,6,,,54,127
42803,note_on,0,0,0,,2,,,62,127
42803,note_on,0,0,0,,12,,,59,127
42803,note_on,0,0,0,,6,,,66,127
42803,note_on,0,0,0,,2,,,74,127
42803,note_on,0,0,0,,12,,,71,127
42972,note_off,169,0,0,,12,,,59,127
42972,note_off,0,0,0,,2,,,62,127
42972,note_off,0,0,0,,6,,,54,127
42974,note_on,2,0,0,,6,,,54,127
42974,note_on,0,0,0,,12,,,59,127
42974,note_on,0,0,0,,2,,,62,127
43143,note_off,169,0,0,,2,,,62,127
43143,note_off,0,0,0,,12,,,59,127
43143,note_off,0,0,0,,6,,,54,127
43145,note_on,2,0,0,,6,,,54,127
43145,note_on,0,0,0,,2,,,62,127
43145,note_on,0,0,0,,12,,,59,127
43314,note_off,169,0,0,,12,,,59,127
43314,note_off,0,0,0,,2,,,62,127
43314,note_off,0,0,0,,6,,,54,127
43314,note_off,0,0,0,,12,,,71,127
43314,note_off,0,0,0,,2,,,74,127
43314,note_off,0,0,0,,6,,,66,127
43316,note_on,2,0,0,,6,,,54,127
43316,note_on,0,0,0,,4,,,64,127
43316,note_on,0,0,0,,1,,,61,127
43316,note_on,0,0,0,,11,,,70,127
43316,note_on,0,0,0,,1,,,73,127
43400,note_off,84,0,0,,1,,,73,127
43402,note_on,2,0,0,,2,,,74,127
43486,note_off,84,0,0,,2,,,74,127
43486,note_off,0,0,0,,1,,,61,127
43486,note_off,0,0,0,,4,,,64,127
43486,note_off,0,0,0,,6,,,54,127
43488,note_on,2,0,0,,6,,,54,127
43488,note_on,0,0,0,,4,,,64,127
43488,note_on,0,0,0,,1,,,61,127
43488,note_on,0,0,0,,1,,,73,127
43657,note_off,169,0,0,,1,,,73,127
43657,note_off,0,0,0,,1,,,61,127
43657,note_off,0,0,0,,4,,,64,127
43657,note_off,0,0,0,,6,,,54,127
43659,note_on,2,0,0,,6,,,54,127
43659,note_on,0,0,0,,4,,,64,127
43659,note_on,0,0,0,,1,,,61,127
43659,note_on,0,0,0,,2,,,74,127
43743,note_off,84,0,0,,2,,,74,127
43745,note_on,2,0,0,,4,,,76,127
43829,note_off,84,0,0,,4,,,76,127
43829,note_off,0,0,0,,1,,,61,127
43829,note_off,0,0,0,,4,,,64,127
43829,note_off,0,0,0,,6,,,54,127
43830,note_off,1,0,0,,11,,,70,127
43831,note_on,1,0,0,,12,,,59,127
43831,note_on,0,0,0,,2,,,62,127
43831,note_on,0,0,0,,12,,,71,127
43831,note_on,0,0,0,,2,,,74,127
44341,note_off,510,0,0,,2,,,74,127
44341,note_off,0,0,0,,12,,,71,127
44341,note_off,0,0,0,,2,,,62,127
44341,note_off,0,0,0,,12,,,59,127
44357,note_on,16,0,0,,1,,,73,127
44357,note_on,0,0,0,,10,,,69,127
44357,note_on,0,0,0,,10,,,57,127
44357,note_on,0,0,0,,7,,,67,127
44357,note_on,0,0,0,,4,,,64,127
44526,note_off,169,0,0,,4,,,64,127
44526,note_off,0,0,0,,7,,,67,127
44526,note_off,0,0,0,,10,,,57,127
44528,note_on,2,0,0,,4,,,64,127
44528,note_on,0,0,0,,7,,,67,127
44528,note_on,0,0,0,,10,,,57,127
44697,note_off,169,0,0,,10,,,57,127
44697,note_off,0,0,0,,7,,,67,127
44697,note_off,0,0,0,,4,,,64,127
44699,note_on,2,0,0,,7,,,67,127
44699,note_on,0,0,0,,10,,,57,127
44699,note_on,0,0,0,,4,,,64,127
44868,note_off,169,0,0,,4,,,64,127
44868,note_off,0,0,0,,10,,,57,127
44868,note_off,0,0,0,,7,,,67,127
44868,note_off,0,0,0,,10,,,69,127
44868,note_off,0,0,0,,1,,,73,127
44870,note_on,2,0,0,,2,,,74,127
44870,note_on,0,0,0,,10,,,69,127
44870,note_on,0,0,0,,2,,,62,127
44870,note_on,0,0,0,,6,,,66,127
44870,note_on,0,0,0,,10,,,57,127
45039,note_off,169,0,0,,10,,,57,127
45039,note_off,0,0,0,,6,,,66,127
45039,note_off,0,0,0,,2,,,62,127
45041,note_on,2,0,0,,2,,,62,127
45041,note_on,0,0,0,,6,,,66,127
45041,note_on,0,0,0,,10,,,57,127
45210,note_off,169,0,0,,10,,,57,127
45210,note_off,0,0,0,,6,,,66,127
45210,note_off,0,0,0,,2,,,62,127
45212,note_on,2,0,0,,2,,,62,127
45212,note_on,0,0,0,,6,,,66,127
45212,note_on,0,0,0,,10,,,57,127
45381,note_off,169,0,0,,10,,,57,127
45381,note_off,0,0,0,,6,,,66,127
45381,note_off,0,0,0,,2,,,62,127
45381,note_off,0,0,0,,10,,,69,127
45381,note_off,0,0,0,,2,,,74,127
45383,note_on,2,0,0,,1,,,73,127
45383,note_on,0,0,0,,4,,,76,127
45383,note_on,0,0,0,,10,,,69,127
45383,note_on,0,0,0,,7,,,67,127
45383,note_on,0,0,0,,10,,,57,127
45383,note_on,0,0,0,,4,,,64,127
45552,note_off,169,0,0,,4,,,64,127
45552,note_off,0,0,0,,10,,,57,127
45552,note_off,0,0,0,,7,,,67,127
45554,note_on,2,0,0,,4,,,64,127
45554,note_on,0,0,0,,7,,,67,127
45554,note_on,0,0,0,,10,,,57,127
45723,note_off,169,0,0,,10,,,57,127
45723,note_off,0,0,0,,7,,,67,127
45723,note_off,0,0,0,,4,,,64,127
45725,note_on,2,0,0,,7,,,67,127
45725,note_on,0,0,0,,4,,,64,127
45725,note_on,0,0,0,,10,,,57,127
45894,note_off,169,0,0,,10,,,57,127
45894,note_off,0,0,0,,4,,,64,127
45894,note_off,0,0,0,,7,,,67,127
45894,note_off,0,0,0,,10,,,69,127
45894,note_off,0,0,0,,4,,,76,127
45894,note_off,0,0,0,,1,,,73,127
45896,note_on,2,0,0,,10,,,69,127
45896,note_on,0,0,0,,2,,,74,127
45896,note_on,0,0,0,,6,,,78,127
45896,note_on,0,0,0,,2,,,62,127
45896,note_on,0,0,0,,10,,,57,127
45896,note_on,0,0,0,,6,,,66,127
46065,note_off,169,0,0,,6,,,66,127
46065,note_off,0,0,0,,10,,,57,127
46065,note_off,0,0,0,,2,,,62,127
46067,note_on,2,0,0,,2,,,62,127
46067,note_on,0,0,0,,10,,,57,127
46067,note_on,0,0,0,,6,,,66,127
46236,note_off,169,0,0,,6,,,66,127
46236,note_off,0,0,0,,10,,,57,127
46236,note_off,0,0,0,,2,,,62,127
46238,note_on,2,0,0,,2,,,62,127
46238,note_on,0,0,0,,10,,,57,127
46238,note_on,0,0,0,,6,,,66,127
46407,note_off,169,0,0,,6,,,66,127
46407,note_off,0,0,0,,10,,,57,127
46407,note_off,0,0,0,,2,,,62,127
46407,note_off,0,0,0,,6,,,78,127
46407,note_off,0,0,0,,2,,,74,127
46407,note_off,0,0,0,,10,,,69,127
46409,note_on,2,0,0,,4,,,76,127
46409,note_on,0,0,0,,1,,,73,127
46409,note_on,0,0,0,,7,,,67,127
46409,note_on,0,0,0,,4,,,64,127
46409,note_on,0,0,0,,10,,,57,127
46493,note_off,84,0,0,,4,,,76,127
46495,note_on,2,0,0,,6,,,78,127
46579,note_off,84,0,0,,6,,,78,127
46579,note_off,0,0,0,,10,,,57,127
46579,note_off,0,0,0,,4,,,64,127
46579,note_off,0,0,0,,7,,,67,127
46581,note_on,2,0,0,,4,,,76,127
46581,note_on,0,0,0,,4,,,64,127
46581,note_on,0,0,0,,7,,,67,127
46581,note_on,0,0,0,,10,,,57,127
46750,note_off,169,0,0,,10,,,57,127
46750,note_off,0,0,0,,7,,,67,127
46750,note_off,0,0,0,,4,,,64,127
46750,note_off,0,0,0,,4,,,76,127
46752,note_on,2,0,0,,6,,,78,127
46752,note_on,0,0,0,,4,,,64,127
46752,note_on,0,0,0,,7,,,67,127
46752,note_on,0,0,0,,10,,,57,127
46836,note_off,84,0,0,,6,,,78,127
46838,note_on,2,0,0,,7,,,79,127
46922,note_off,84,0,0,,7,,,79,127
46922,note_off,0,0,0,,10,,,57,127
46922,note_off,0,0,0,,7,,,67,127
46922,note_off,0,0,0,,4,,,64,127
46923,note_off,1,0,0,,1,,,73,127
46924,note_on,1,0,0,,6,,,78,127
46924,note_on,0,0,0,,2,,,74,127
46924,note_on,0,0,0,,6,,,66,127
46924,note_on,0,0,0,,2,,,62,127
47434,note_off,510,0,0,,2,,,62,127
47434,note_off,0,0,0,,6,,,66,127
47434,note_off,0,0,0,,2,,,74,127
47434,note_off,0,0,0,,6,,,78,127
47450,note_on,16,0,0,,12,,,59,127
47450,note_on,0,0,0,,6,,,66,127
47450,note_on,0,0,0,,10,,,69,127
47450,note_on,0,0,0,,12,,,71,127
47450,note_on,0,0,0,,3,,,75,127
47619,note_off,169,0,0,,10,,,69,127
47619,note_off,0,0,0,,6,,,66,127
47619,note_off,0,0,0,,12,,,59,127
47621,note_on,2,0,0,,12,,,59,127
47621,note_on,0,0,0,,6,,,66,127
47621,note_on,0,0,0,,10,,,69,127
47790,note_off,169,0,0,,10,,,69,127
47790,note_off,0,0,0,,6,,,66,127
47790,note_off,0,0,0,,12,,,59,127
47792,note_on,2,0,0,,6,,,66,127
47792,note_on,0,0,0,,12,,,59,127
47792,note_on,0,0,0,,10,,,69,127
47961,note_off,169,0,0,,10,,,69,127
47961,note_off,0,0,0,,12,,,59,127
47961,note_off,0,0,0,,6,,,66,127
47961,note_off,0,0,0,,3,,,75,127
47961,note_off,0,0,0,,12,,,71,127
47963,note_on,2,0,0,,12,,,59,127
47963,note_on,0,0,0,,4,,,64,127
47963,note_on,0,0,0,,7,,,67,127
47963,note_on,0,0,0,,12,,,71,127
47963,note_on,0,0,0,,4,,,76,127
48132,note_off,169,0,0,,7,,,67,127
48132,note_off,0,0,0,,4,,,64,127
48132,note_off,0,0,0,,12,,,59,127
48134,note_on,2,0,0,,12,,,59,127
48134,note_on,0,0,0,,4,,,64,127
48134,note_on,0,0,0,,7,,,67,127
48303,note_off,169,0,0,,7,,,67,127
48303,note_off,0,0,0,,4,,,64,127
48303,note_off,0,0,0,,12,,,59,127
48305,note_on,2,0,0,,12,,,59,127
48305,note_on,0,0,0,,4,,,64,127
48305,note_on,0,0,0,,7,,,67,127
48474,note_off,169,0,0,,7,,,67,127
48474,note_off,0,0,0,,4,,,64,127
48474,note_off,0,0,0,,12,,,59,127
48474,note_off,0,0,0,,4,,,76,127
48474,note_off,0,0,0,,12,,,71,127
48476,note_on,2,0,0,,12,,,59,127
48476,note_on,0,0,0,,6,,,66,127
48476,note_on,0,0,0,,10,,,69,127
48476,note_on,0,0,0,,12,,,71,127
48476,note_on,0,0,0,,6,,,78,127
48476,note_on,0,0,0,,3,,,75,127
48645,note_off,169,0,0,,10,,,69,127
48645,note_off,0,0,0,,6,,,66,127
48645,note_off,0,0,0,,12,,,59,127
48647,note_on,2,0,0,,12,,,59,127
48647,note_on,0,0,0,,6,,,66,127
48647,note_on,0,0,0,,10,,,69,127
48816,note_off,169,0,0,,10,,,69,127
48816,note_off,0,0,0,,6,,,66,127
48816,note_off,0,0,0,,12,,,59,127
48818,note_on,2,0,0,,12,,,59,127
48818,note_on,0,0,0,,6,,,66,127
48818,note_on,0,0,0,,10,,,69,127
48987,note_off,169,0,0,,10,,,69,127
48987,note_off,0,0,0,,6,,,66,127
48987,note_off,0,0,0,,12,,,59,127
48987,note_off,0,0,0,,3,,,75,127
48987,note_off,0,0,0,,6,,,78,127
48987,note_off,0,0,0,,12,,,71,127
48989,note_on,2,0,0,,4,,,64,127
48989,note_on,0,0,0,,12,,,59,127
48989,note_on,0,0,0,,7,,,67,127
48989,note_on,0,0,0,,4,,,76,127
48989,note_on,0,0,0,,7,,,79,127
48989,note_on,0,0,0,,12,,,71,127
49158,note_off,169,0,0,,7,,,67,127
49158,note_off,0,0,0,,12,,,59,127
49158,note_off,0,0,0,,4,,,64,127
49160,note_on,2,0,0,,12,,,59,127
49160,note_on,0,0,0,,4,,,64,127
49160,note_on,0,0,0,,7,,,67,127
49329,note_off,169,0,0,,7,,,67,127
49329,note_off,0,0,0,,4,,,64,127
49329,note_off,0,0,0,,12,,,59,127
49331,note_on,2,0,0,,4,,,64,127
49331,note_on,0,0,0,,12,,,59,127
49331,note_on,0,0,0,,7,,,67,127
49500,note_off,169,0,0,,7,,,67,127
49500,note_off,0,0,0,,12,,,59,127
49500,note_off,0,0,0,,4,,,64,127
49500,note_off,0,0,0,,12,,,71,127
49500,note_off,0,0,0,,7,,,79,127
49500,note_off,0,0,0,,4,,,76,127
49502,note_on,2,0,0,,6,,,66,127
49502,note_on,0,0,0,,12,,,59,127
49502,note_on,0,0,0,,10,,,69,127
49502,note_on,0,0,0,,6,,,78,127
49502,note_on,0,0,0,,3,,,75,127
49586,note_off,84,0,0,,6,,,78,127
49588,note_on,2,0,0,,7,,,79,127
49672,note_off,84,0,0,,7,,,79,127
49672,note_off,0,0,0,,10,,,69,127
49672,note_off,0,0,0,,12,,,59,127
49672,note_off,0,0,0,,6,,,66,127
49674,note_on,2,0,0,,12,,,59,127
49674,note_on,0,0,0,,6,,,66,127
49674,note_on,0,0,0,,10,,,69,127
49674,note_on,0,0,0,,6,,,78,127
49843,note_off,169,0,0,,6,,,78,127
49843,note_off,0,0,0,,10,,,69,127
49843,note_off,0,0,0,,6,,,66,127
49843,note_off,0,0,0,,12,,,59,127
49845,note_on,2,0,0,,12,,,59,127
49845,note_on,0,0,0,,6,,,66,127
49845,note_on,0,0,0,,10,,,69,127
49845,note_on,0,0,0,,7,,,79,127
49929,note_off,84,0,0,,7,,,79,127
49931,note_on,2,0,0,,10,,,81,127
50015,note_off,84,0,0,,10,,,81,127
50015,note_off,0,0,0,,10,,,69,127
50015,note_off,0,0,0,,6,,,66,127
50015,note_off,0,0,0,,12,,,59,127
50016,note_off,1,0,0,,3,,,75,127
50017,note_on,1,0,0,,4,,,64,127
50017,note_on,0,0,0,,7,,,67,127
50017,note_on,0,0,0,,7,,,79,127
50017,note_on,0,0,0,,4,,,76,127
50186,note_off,169,0,0,,7,,,79,127
50186,note_off,0,0,0,,7,,,67,127
50186,note_off,0,0,0,,4,,,64,127
50188,note_on,2,0,0,,4,,,64,127
50188,note_on,0,0,0,,7,,,67,127
50188,note_on,0,0,0,,10,,,81,127
50355,note_off,167,0,0,,4,,,76,127
50357,note_off,2,0,0,,10,,,81,127
50357,note_off,0,0,0,,7,,,67,127
50357,note_off,0,0,0,,4,,,64,127
50359,note_on,2,0,0,,4,,,64,127
50359,note_on,0,0,0,,7,,,67,127
50359,note_on,0,0,0,,12,,,83,127
50359,note_on,0,0,0,,2,,,74,127
50528,note_off,169,0,0,,2,,,74,127
50528,note_off,0,0,0,,7,,,67,127
50528,note_off,0,0,0,,4,,,64,127
50530,note_on,2,0,0,,10,,,57,127
50530,note_on,0,0,0,,10,,,69,127
50530,note_on,0,0,0,,0,,,72,127
50697,note_off,167,0,0,,12,,,83,127
50699,note_off,2,0,0,,10,,,57,127
50701,note_on,2,0,0,,10,,,57,127
50701,note_on,0,0,0,,0,,,84,127
50870,note_off,169,0,0,,0,,,84,127
50870,note_off,0,0,0,,10,,,57,127
50872,note_on,2,0,0,,12,,,59,127
50872,note_on,0,0,0,,12,,,83,127
51041,note_off,169,0,0,,12,,,83,127
51041,note_off,0,0,0,,12,,,59,127
51042,note_off,1,0,0,,0,,,72,127
51042,note_off,0,0,0,,10,,,69,127
51043,note_on,1,0,0,,0,,,60,127
51043,note_on,0,0,0,,10,,,69,127
51043,note_on,0,0,0,,12,,,83,127
51212,note_off,169,0,0,,12,,,83,127
51212,note_off,0,0,0,,0,,,60,127
51214,note_on,2,0,0,,0,,,60,127
51214,note_on,0,0,0,,10,,,81,127
51383,note_off,169,0,0,,10,,,81,127
51383,note_off,0,0,0,,0,,,60,127
51385,note_on,2,0,0,,0,,,60,127
51385,note_on,0,0,0,,7,,,79,127
51554,note_off,169,0,0,,7,,,79,127
51554,note_off,0,0,0,,0,,,60,127
51555,note_off,1,0,0,,10,,,69,127
51556,note_on,1,0,0,,0,,,60,127
51556,note_on,0,0,0,,2,,,50,127
51556,note_on,0,0,0,,7,,,79,127
51725,note_off,169,0,0,,7,,,79,127
51725,note_off,0,0,0,,2,,,50,127
51727,note_on,2,0,0,,2,,,50,127
51727,note_on,0,0,0,,6,,,78,127
51896,note_off,169,0,0,,6,,,78,127
51896,note_off,0,0,0,,2,,,50,127
51898,note_on,2,0,0,,4,,,52,127
51898,note_on,0,0,0,,4,,,76,127
52067,note_off,169,0,0,,4,,,76,127
52067,note_off,0,0,0,,4,,,52,127
52068,note_off,1,0,0,,0,,,60,127
52069,note_on,1,0,0,,6,,,54,127
52069,note_on,0,0,0,,0,,,60,127
52069,note_on,0,0,0,,4,,,76,127
52238,note_off,169,0,0,,4,,,76,127
52238,note_off,0,0,0,,6,,,54,127
52240,note_on,2,0,0,,6,,,54,127
52240,note_on,0,0,0,,2,,,74,127
52409,note_off,169,0,0,,2,,,74,127
52409,note_off,0,0,0,,6,,,54,127
52411,note_on,2,0,0,,6,,,54,127
52411,note_on,0,0,0,,0,,,72,127
52580,note_off,169,0,0,,0,,,72,127
52580,note_off,0,0,0,,6,,,54,127
52581,note_off,1,0,0,,0,,,60,127
52582,note_on,1,0,0,,7,,,55,127
52582,note_on,0,0,0,,2,,,62,127
52582,note_on,0,0,0,,2,,,74,127
52666,note_off,84,0,0,,2,,,74,127
52668,note_on,2,0,0,,0,,,72,127
52752,note_off,84,0,0,,0,,,72,127
52752,note_off,0,0,0,,2,,,62,127
52752,note_off,0,0,0,,7,,,55,127
52754,note_on,2,0,0,,7,,,55,127
52754,note_on,0,0,0,,2,,,74,127
52838,note_off,84,0,0,,2,,,74,127
52840,note_on,2,0,0,,0,,,72,127
52924,note_off,84,0,0,,0,,,72,127
52924,note_off,0,0,0,,7,,,55,127
52926,note_on,2,0,0,,7,,,55,127
52926,note_on,0,0,0,,12,,,71,127
53095,note_off,169,0,0,,7,,,55,127
53097,note_on,2,0,0,,7,,,55,127
53268,note_on,171,0,0,,7,,,67,127
53437,note_off,169,0,0,,7,,,67,127
53439,note_on,2,0,0,,7,,,67,127
53608,note_off,169,0,0,,7,,,67,127
53608,note_off,0,0,0,,12,,,71,127
53609,note_off,1,0,0,,7,,,55,127
53610,note_on,1,0,0,,7,,,55,127
53610,note_on,0,0,0,,7,,,67,127
53610,note_on,0,0,0,,10,,,81,127
53610,note_on,0,0,0,,10,,,69,127
53779,note_off,169,0,0,,7,,,67,127
53779,note_off,0,0,0,,7,,,55,127
53781,note_on,2,0,0,,7,,,55,127
53781,note_on,0,0,0,,7,,,67,127
53950,note_off,169,0,0,,7,,,67,127
53950,note_off,0,0,0,,7,,,55,127
53952,note_on,2,0,0,,7,,,67,127
53952,note_on,0,0,0,,7,,,55,127
54121,note_off,169,0,0,,7,,,55,127
54121,note_off,0,0,0,,7,,,67,127
54121,note_off,0,0,0,,10,,,69,127
54121,note_off,0,0,0,,10,,,81,127
54123,note_on,2,0,0,,7,,,55,127
54123,note_on,0,0,0,,5,,,65,127
54123,note_on,0,0,0,,10,,,69,127
54123,note_on,0,0,0,,10,,,81,127
54292,note_off,169,0,0,,5,,,65,127
54292,note_off,0,0,0,,7,,,55,127
54294,note_on,2,0,0,,7,,,55,127
54294,note_on,0,0,0,,5,,,65,127
54463,note_off,169,0,0,,5,,,65,127
54463,note_off,0,0,0,,7,,,55,127
54465,note_on,2,0,0,,5,,,65,127
54465,note_on,0,0,0,,7,,,55,127
54634,note_off,169,0,0,,7,,,55,127
54634,note_off,0,0,0,,5,,,65,127
54634,note_off,0,0,0,,10,,,81,127
54634,note_off,0,0,0,,10,,,69,127
54636,note_on,2,0,0,,7,,,55,127
54636,note_on,0,0,0,,5,,,65,127
54636,note_on,0,0,0,,12,,,71,127
54636,note_on,0,0,0,,12,,,83,127
54805,note_off,169,0,0,,5,,,65,127
54805,note_off,0,0,0,,7,,,55,127
54807,note_on,2,0,0,,5,,,65,127
54807,note_on,0,0,0,,7,,,55,127
54976,note_off,169,0,0,,7,,,55,127
54976,note_off,0,0,0,,5,,,65,127
54978,note_on,2,0,0,,5,,,65,127
54978,note_on,0,0,0,,7,,,55,127
55147,note_off,169,0,0,,7,,,55,127
55147,note_off,0,0,0,,5,,,65,127
55147,note_off,0,0,0,,12,,,83,127
55147,note_off,0,0,0,,12,,,71,127
55149,note_on,2,0,0,,4,,,64,127
55149,note_on,0,0,0,,7,,,55,127
55149,note_on,0,0,0,,4,,,76,127
55149,note_on,0,0,0,,0,,,72,127
55149,note_on,0,0,0,,0,,,84,127
55318,note_off,169,0,0,,7,,,55,127
55318,note_off,0,0,0,,4,,,64,127
55320,note_on,2,0,0,,7,,,55,127
55320,note_on,0,0,0,,4,,,64,127
55489,note_off,169,0,0,,4,,,64,127
55489,note_off,0,0,0,,7,,,55,127
55491,note_on,2,0,0,,7,,,55,127
55491,note_on,0,0,0,,4,,,64,127
55660,note_off,169,0,0,,4,,,64,127
55660,note_off,0,0,0,,7,,,55,127
55660,note_off,0,0,0,,0,,,84,127
55660,note_off,0,0,0,,0,,,72,127
55660,note_off,0,0,0,,4,,,76,127
55662,note_on,2,0,0,,6,,,54,127
55662,note_on,0,0,0,,2,,,62,127
55662,note_on,0,0,0,,0,,,84,127
55662,note_on,0,0,0,,2,,,74,127
55831,note_off,169,0,0,,2,,,62,127
55831,note_off,0,0,0,,6,,,54,127
55833,note_on,2,0,0,,6,,,54,127
55833,note_on,0,0,0,,2,,,62,127
56002,note_off,169,0,0,,2,,,62,127
56002,note_off,0,0,0,,6,,,54,127
56004,note_on,2,0,0,,6,,,54,127
56004,note_on,0,0,0,,2,,,62,127
56173,note_off,169,0,0,,2,,,62,127
56173,note_off,0,0,0,,6,,,54,127
56173,note_off,0,0,0,,2,,,74,127
56173,note_off,0,0,0,,0,,,84,127
56175,note_on,2,0,0,,8,,,56,127
56175,note_on,0,0,0,,2,,,62,127
56175,note_on,0,0,0,,4,,,64,127
56175,note_on,0,0,0,,2,,,74,127
56175,note_on,0,0,0,,12,,,83,127
56344,note_off,169,0,0,,4,,,64,127
56344,note_off,0,0,0,,2,,,62,127
56344,note_off,0,0,0,,8,,,56,127
56346,note_on,2,0,0,,8,,,56,127
56346,note_on,0,0,0,,2,,,62,127
56346,note_on,0,0,0,,4,,,64,127
56515,note_off,169,0,0,,4,,,64,127
56515,note_off,0,0,0,,2,,,62,127
56515,note_off,0,0,0,,8,,,56,127
56517,note_on,2,0,0,,8,,,56,127
56517,note_on,0,0,0,,2,,,62,127
56517,note_on,0,0,0,,4,,,64,127
56686,note_off,169,0,0,,4,,,64,127
56686,note_off,0,0,0,,2,,,62,127
56686,note_off,0,0,0,,8,,,56,127
56686,note_off,0,0,0,,12,,,83,127
56686,note_off,0,0,0,,2,,,74,127
56688,note_on,2,0,0,,4,,,64,127
56688,note_on,0,0,0,,10,,,57,127
56688,note_on,0,0,0,,0,,,72,127
56688,note_on,0,0,0,,12,,,83,127
56857,note_off,169,0,0,,10,,,57,127
56857,note_off,0,0,0,,4,,,64,127
56859,note_on,2,0,0,,10,,,57,127
56859,note_on,0,0,0,,4,,,64,127
57028,note_off,169,0,0,,4,,,64,127
57028,note_off,0,0,0,,10,,,57,127
57030,note_on,2,0,0,,10,,,57,127
57030,note_on,0,0,0,,4,,,64,127
57199,note_off,169,0,0,,4,,,64,127
57199,note_off,0,0,0,,10,,,57,127
57199,note_off,0,0,0,,12,,,83,127
57199,note_off,0,0,0,,0,,,72,127
57201,note_on,2,0,0,,4,,,64,127
57201,note_on,0,0,0,,0,,,60,127
57201,note_on,0,0,0,,0,,,72,127
57201,note_on,0,0,0,,10,,,81,127
57370,note_off,169,0,0,,0,,,72,127
57370,note_off,0,0,0,,0,,,60,127
57370,note_off,0,0,0,,4,,,64,127
57372,note_on,2,0,0,,4,,,64,127
57372,note_on,0,0,0,,0,,,60,127
57372,note_on,0,0,0,,4,,,76,127
57539,note_off,167,0,0,,10,,,81,127
57541,note_off,2,0,0,,4,,,76,127
57541,note_off,0,0,0,,0,,,60,127
57541,note_off,0,0,0,,4,,,64,127
57543,note_on,2,0,0,,4,,,64,127
57543,note_on,0,0,0,,0,,,60,127
57543,note_on,0,0,0,,10,,,81,127
57712,note_off,169,0,0,,10,,,81,127
57712,note_off,0,0,0,,0,,,60,127
57712,note_off,0,0,0,,4,,,64,127
57714,note_on,2,0,0,,2,,,50,127
57714,note_on,0,0,0,,2,,,62,127
57714,note_on,0,0,0,,5,,,77,127
57714,note_on,0,0,0,,7,,,79,127
57883,note_off,169,0,0,,7,,,79,127
57883,note_off,0,0,0,,5,,,77,127
57883,note_off,0,0,0,,2,,,62,127
57883,note_off,0,0,0,,2,,,50,127
57885,note_on,2,0,0,,2,,,62,127
57885,note_on,0,0,0,,2,,,50,127
57885,note_on,0,0,0,,4,,,76,127
58054,note_off,169,0,0,,4,,,76,127
58054,note_off,0,0,0,,2,,,50,127
58054,note_off,0,0,0,,2,,,62,127
58056,note_on,2,0,0,,2,,,50,127
58056,note_on,0,0,0,,2,,,62,127
58056,note_on,0,0,0,,2,,,74,127
58225,note_off,169,0,0,,2,,,74,127
58225,note_off,0,0,0,,2,,,62,127
58225,note_off,0,0,0,,2,,,50,127
58227,note_on,2,0,0,,2,,,62,127
58227,note_on,0,0,0,,5,,,53,127
58227,note_on,0,0,0,,0,,,72,127
58227,note_on,0,0,0,,2,,,74,127
58396,note_off,169,0,0,,2,,,74,127
58396,note_off,0,0,0,,0,,,72,127
58396,note_off,0,0,0,,5,,,53,127
58396,note_off,0,0,0,,2,,,62,127
58398,note_on,2,0,0,,2,,,62,127
58398,note_on,0,0,0,,5,,,53,127
58398,note_on,0,0,0,,12,,,71,127
58567,note_off,169,0,0,,12,,,71,127
58567,note_off,0,0,0,,5,,,53,127
58567,note_off,0,0,0,,2,,,62,127
58569,note_on,2,0,0,,5,,,53,127
58569,note_on,0,0,0,,2,,,62,127
58569,note_on,0,0,0,,10,,,69,127
58738,note_off,169,0,0,,10,,,69,127
58738,note_off,0,0,0,,2,,,62,127
58738,note_off,0,0,0,,5,,,53,127
58740,note_on,2,0,0,,4,,,52,127
58740,note_on,0,0,0,,12,,,71,127
58824,note_off,84,0,0,,12,,,71,127
58826,note_on,2,0,0,,10,,,69,127
58910,note_off,84,0,0,,10,,,69,127
58912,note_on,2,0,0,,8,,,68,127
59252,note_off,340,0,0,,4,,,52,127
59254,note_on,2,0,0,,4,,,52,127
59425,note_on,171,0,0,,4,,,64,127
59594,note_off,169,0,0,,4,,,64,127
59595,note_off,1,0,0,,8,,,68,127
59596,note_on,1,0,0,,4,,,64,127
59765,note_off,169,0,0,,4,,,64,127
59766,note_off,1,0,0,,4,,,52,127
59767,note_on,1,0,0,,4,,,64,127
59767,note_on,0,0,0,,4,,,52,127
59767,note_on,0,0,0,,5,,,65,127
59767,note_on,0,0,0,,5,,,77,127
59936,note_off,169,0,0,,4,,,52,127
59936,note_off,0,0,0,,4,,,64,127
59938,note_on,2,0,0,,4,,,52,127
59938,note_on,0,0,0,,4,,,64,127
60107,note_off,169,0,0,,4,,,64,127
60107,note_off,0,0,0,,4,,,52,127
60109,note_on,2,0,0,,4,,,52,127
60109,note_on,0,0,0,,4,,,64,127
60278,note_off,169,0,0,,4,,,64,127
60278,note_off,0,0,0,,4,,,52,127
60278,note_off,0,0,0,,5,,,77,127
60278,note_off,0,0,0,,5,,,65,127
60280,note_on,2,0,0,,2,,,62,127
60280,note_on,0,0,0,,4,,,52,127
60280,note_on,0,0,0,,5,,,65,127
60280,note_on,0,0,0,,5,,,77,127
60449,note_off,169,0,0,,4,,,52,127
60449,note_off,0,0,0,,2,,,62,127
60451,note_on,2,0,0,,4,,,52,127
60451,note_on,0,0,0,,2,,,62,127
60620,note_off,169,0,0,,2,,,62,127
60620,note_off,0,0,0,,4,,,52,127
60622,note_on,2,0,0,,4,,,52,127
60622,note_on,0,0,0,,2,,,62,127
60791,note_off,169,0,0,,2,,,62,127
60791,note_off,0,0,0,,4,,,52,127
60791,note_off,0,0,0,,5,,,77,127
60791,note_off,0,0,0,,5,,,65,127
60793,note_on,2,0,0,,12,,,59,127
60793,note_on,0,0,0,,4,,,52,127
60793,note_on,0,0,0,,2,,,62,127
60793,note_on,0,0,0,,12,,,71,127
60793,note_on,0,0,0,,12,,,83,127
60793,note_on,0,0,0,,8,,,80,127
60962,note_off,169,0,0,,2,,,62,127
60962,note_off,0,0,0,,4,,,52,127
60962,note_off,0,0,0,,12,,,59,127
60964,note_on,2,0,0,,4,,,52,127
60964,note_on,0,0,0,,12,,,59,127
60964,note_on,0,0,0,,2,,,62,127
61133,note_off,169,0,0,,2,,,62,127
61133,note_off,0,0,0,,12,,,59,127
61133,note_off,0,0,0,,4,,,52,127
61135,note_on,2,0,0,,4,,,52,127
61135,note_on,0,0,0,,2,,,62,127
61135,note_on,0,0,0,,12,,,59,127
61304,note_off,169,0,0,,12,,,59,127
61304,note_off,0,0,0,,2,,,62,127
61304,note_off,0,0,0,,4,,,52,127
61304,note_off,0,0,0,,8,,,80,127
61304,note_off,0,0,0,,12,,,83,127
61304,note_off,0,0,0,,12,,,71,127
61306,note_on,2,0,0,,0,,,60,127
61306,note_on,0,0,0,,10,,,57,127
61306,note_on,0,0,0,,0,,,84,127
61306,note_on,0,0,0,,4,,,76,127
61306,note_on,0,0,0,,0,,,72,127
61475,note_off,169,0,0,,10,,,57,127
61475,note_off,0,0,0,,0,,,60,127
61477,note_on,2,0,0,,10,,,57,127
61477,note_on,0,0,0,,0,,,60,127
61646,note_off,169,0,0,,0,,,60,127
61646,note_off,0,0,0,,10,,,57,127
61648,note_on,2,0,0,,0,,,60,127
61648,note_on,0,0,0,,10,,,57,127
61817,note_off,169,0,0,,10,,,57,127
61817,note_off,0,0,0,,0,,,60,127
61817,note_off,0,0,0,,0,,,72,127
61817,note_off,0,0,0,,4,,,76,127
61817,note_off,0,0,0,,0,,,84,127
61819,note_on,2,0,0,,2,,,50,127
61819,note_on,0,0,0,,2,,,62,127
61819,note_on,0,0,0,,10,,,57,127
61819,note_on,0,0,0,,12,,,83,127
61990,note_on,171,0,0,,2,,,86,127
62157,note_off,167,0,0,,12,,,83,127
62159,note_off,2,0,0,,2,,,86,127
62159,note_off,0,0,0,,10,,,57,127
62159,note_off,0,0,0,,2,,,62,127
62159,note_off,0,0,0,,2,,,50,127
62161,note_on,2,0,0,,2,,,62,127
62161,note_on,0,0,0,,2,,,50,127
62161,note_on,0,0,0,,12,,,83,127
62330,note_off,169,0,0,,12,,,83,127
62330,note_off,0,0,0,,2,,,50,127
62330,note_off,0,0,0,,2,,,62,127
62332,note_on,2,0,0,,4,,,52,127
62332,note_on,0,0,0,,0,,,60,127
62332,note_on,0,0,0,,10,,,57,127
62332,note_on,0,0,0,,10,,,81,127
62501,note_off,169,0,0,,10,,,81,127
62503,note_on,2,0,0,,10,,,81,127
62587,note_off,84,0,0,,10,,,81,127
62589,note_on,2,0,0,,8,,,80,127
62673,note_off,84,0,0,,8,,,80,127
62673,note_off,0,0,0,,10,,,57,127
62673,note_off,0,0,0,,0,,,60,127
62673,note_off,0,0,0,,4,,,52,127
62675,note_on,2,0,0,,4,,,52,127
62675,note_on,0,0,0,,12,,,59,127
62675,note_on,0,0,0,,2,,,62,127
62675,note_on,0,0,0,,6,,,78,127
62759,note_off,84,0,0,,6,,,78,127
62761,note_on,2,0,0,,8,,,80,127
62845,note_off,84,0,0,,8,,,80,127
62845,note_off,0,0,0,,2,,,62,127
62845,note_off,0,0,0,,12,,,59,127
62845,note_off,0,0,0,,4,,,52,127
62847,note_on,2,0,0,,10,,,57,127
62847,note_on,0,0,0,,10,,,81,127
63018,note_on,171,0,0,,10,,,69,127
63187,note_off,169,0,0,,10,,,69,127
63189,note_on,2,0,0,,10,,,69,127
63358,note_off,169,0,0,,10,,,69,127
63358,note_off,0,0,0,,10,,,81,127
63359,note_off,1,0,0,,10,,,57,127
63360,note_on,1,0,0,,10,,,57,127
63360,note_on,0,0,0,,10,,,69,127
63360,note_on,0,0,0,,11,,,70,127
63360,note_on,0,0,0,,11,,,82,127
63529,note_off,169,0,0,,10,,,69,127
63529,note_off,0,0,0,,10,,,57,127
63531,note_on,2,0,0,,10,,,57,127
63531,note_on,0,0,0,,7,,,67,127
63700,note_off,169,0,0,,7,,,67,127
63700,note_off,0,0,0,,10,,,57,127
63702,note_on,2,0,0,,10,,,57,127
63702,note_on,0,0,0,,7,,,67,127
63871,note_off,169,0,0,,7,,,67,127
63871,note_off,0,0,0,,10,,,57,127
63871,note_off,0,0,0,,11,,,82,127
63871,note_off,0,0,0,,11,,,70,127
63873,note_on,2,0,0,,10,,,57,127
63873,note_on,0,0,0,,4,,,64,127
63873,note_on,0,0,0,,7,,,67,127
63873,note_on,0,0,0,,1,,,85,127
63873,note_on,0,0,0,,1,,,73,127
64042,note_off,169,0,0,,7,,,67,127
64042,note_off,0,0,0,,4,,,64,127
64042,note_off,0,0,0,,10,,,57,127
64044,note_on,2,0,0,,10,,,57,127
64044,note_on,0,0,0,,7,,,67,127
64044,note_on,0,0,0,,4,,,64,127
64213,note_off,169,0,0,,4,,,64,127
64213,note_off,0,0,0,,7,,,67,127
64213,note_off,0,0,0,,10,,,57,127
64215,note_on,2,0,0,,4,,,64,127
64215,note_on,0,0,0,,10,,,57,127
64215,note_on,0,0,0,,7,,,67,127
64384,note_off,169,0,0,,7,,,67,127
64384,note_off,0,0,0,,10,,,57,127
64384,note_off,0,0,0,,4,,,64,127
64384,note_off,0,0,0,,1,,,73,127
64384,note_off,0,0,0,,1,,,85,127
64386,note_on,2,0,0,,2,,,62,127
64386,note_on,0,0,0,,10,,,57,127
64386,note_on,0,0,0,,5,,,65,127
64386,note_on,0,0,0,,2,,,74,127
64386,note_on,0,0,0,,2,,,86,127
64555,note_off,169,0,0,,5,,,65,127
64555,note_off,0,0,0,,10,,,57,127
64555,note_off,0,0,0,,2,,,62,127
64557,note_on,2,0,0,,10,,,57,127
64557,note_on,0,0,0,,5,,,65,127
64557,note_on,0,0,0,,2,,,62,127
64726,note_off,169,0,0,,2,,,62,127
64726,note_off,0,0,0,,5,,,65,127
64726,note_off,0,0,0,,10,,,57,127
64728,note_on,2,0,0,,10,,,57,127
64728,note_on,0,0,0,,5,,,65,127
64728,note_on,0,0,0,,2,,,62,127
64897,note_off,169,0,0,,2,,,62,127
64897,note_off,0,0,0,,5,,,65,127
64897,note_off,0,0,0,,10,,,57,127
64897,note_off,0,0,0,,2,,,86,127
64897,note_off,0,0,0,,2,,,74,127
64899,note_on,2,0,0,,2,,,62,127
64899,note_on,0,0,0,,8,,,56,127
64899,note_on,0,0,0,,4,,,64,127
64899,note_on,0,0,0,,2,,,86,127
64899,note_on,0,0,0,,4,,,76,127
65068,note_off,169,0,0,,4,,,64,127
65068,note_off,0,0,0,,8,,,56,127
65068,note_off,0,0,0,,2,,,62,127
65070,note_on,2,0,0,,8,,,56,127
65070,note_on,0,0,0,,4,,,64,127
65070,note_on,0,0,0,,2,,,62,127
65239,note_off,169,0,0,,2,,,62,127
65239,note_off,0,0,0,,4,,,64,127
65239,note_off,0,0,0,,8,,,56,127
65241,note_on,2,0,0,,8,,,56,127
65241,note_on,0,0,0,,4,,,64,127
65241,note_on,0,0,0,,2,,,62,127
65410,note_off,169,0,0,,2,,,62,127
65410,note_off,0,0,0,,4,,,64,127
65410,note_off,0,0,0,,8,,,56,127
65410,note_off,0,0,0,,4,,,76,127
65410,note_off,0,0,0,,2,,,86,127
65412,note_on,2,0,0,,10,,,57,127
65412,note_on,0,0,0,,4,,,76,127
65412,note_on,0,0,0,,0,,,84,127
65581,note_off,169,0,0,,4,,,76,127
65583,note_on,2,0,0,,0,,,60,127
65583,note_on,0,0,0,,10,,,81,127
65750,note_off,167,0,0,,0,,,84,127
65750,note_off,0,0,0,,10,,,57,127
65752,note_off,2,0,0,,10,,,81,127
65752,note_off,0,0,0,,0,,,60,127
65754,note_on,2,0,0,,10,,,57,127
65754,note_on,0,0,0,,0,,,84,127
65923,note_off,169,0,0,,0,,,84,127
65923,note_off,0,0,0,,10,,,57,127
65925,note_on,2,0,0,,2,,,62,127
65925,note_on,0,0,0,,12,,,83,127
66094,note_off,169,0,0,,2,,,62,127
66096,note_on,2,0,0,,5,,,53,127
66096,note_on,0,0,0,,2,,,86,127
66263,note_off,167,0,0,,12,,,83,127
66265,note_off,2,0,0,,2,,,86,127
66265,note_off,0,0,0,,5,,,53,127
66267,note_on,2,0,0,,2,,,50,127
66267,note_on,0,0,0,,12,,,83,127
66436,note_off,169,0,0,,12,,,83,127
66436,note_off,0,0,0,,2,,,50,127
66438,note_on,2,0,0,,4,,,52,127
66438,note_on,0,0,0,,10,,,81,127
66607,note_off,169,0,0,,10,,,81,127
66609,note_on,2,0,0,,10,,,81,127
66693,note_off,84,0,0,,10,,,81,127
66695,note_on,2,0,0,,8,,,80,127
66779,note_off,84,0,0,,8,,,80,127
66781,note_on,2,0,0,,4,,,40,127
66781,note_on,0,0,0,,6,,,78,127
66865,note_off,84,0,0,,6,,,78,127
66867,note_on,2,0,0,,8,,,80,127
66951,note_off,84,0,0,,8,,,80,127
66951,note_off,0,0,0,,4,,,40,127
66952,note_off,1,0,0,,4,,,52,127
66953,note_on,1,0,0,,10,,,57,127
66953,note_on,0,0,0,,10,,,81,127
67124,note_on,171,0,0,,10,,,69,127
67293,note_off,169,0,0,,10,,,69,127
67295,note_on,2,0,0,,10,,,69,127
67464,note_off,169,0,0,,10,,,69,127
67464,note_off,0,0,0,,10,,,81,127
67465,note_off,1,0,0,,10,,,57,127
67466,note_on,1,0,0,,10,,,57,127
67466,note_on,0,0,0,,10,,,69,127
67466,note_on,0,0,0,,11,,,70,127
67466,note_on,0,0,0,,11,,,82,127
67635,note_off,169,0,0,,10,,,69,127
67635,note_off,0,0,0,,10,,,57,127
67637,note_on,2,0,0,,10,,,57,127
67637,note_on,0,0,0,,7,,,67,127
67806,note_off,169,0,0,,7,,,67,127
67806,note_off,0,0,0,,10,,,57,127
67808,note_on,2,0,0,,10,,,57,127
67808,note_on,0,0,0,,7,,,67,127
67977,note_off,169,0,0,,7,,,67,127
67977,note_off,0,0,0,,10,,,57,127
67977,note_off,0,0,0,,11,,,82,127
67977,note_off,0,0,0,,11,,,70,127
67979,note_on,2,0,0,,10,,,57,127
67979,note_on,0,0,0,,4,,,64,127
67979,note_on,0,0,0,,7,,,67,127
67979,note_on,0,0,0,,1,,,73,127
67979,note_on,0,0,0,,1,,,85,127
68148,note_off,169,0,0,,7,,,67,127
68148,note_off,0,0,0,,4,,,64,127
68148,note_off,0,0,0,,10,,,57,127
68150,note_on,2,0,0,,10,,,57,127
68150,note_on,0,0,0,,4,,,64,127
68150,note_on,0,0,0,,7,,,67,127
68319,note_off,169,0,0,,7,,,67,127
68319,note_off,0,0,0,,4,,,64,127
68319,note_off,0,0,0,,10,,,57,127
68321,note_on,2,0,0,,10,,,57,127
68321,note_on,0,0,0,,7,,,67,127
68321,note_on,0,0,0,,4,,,64,127
68490,note_off,169,0,0,,4,,,64,127
68490,note_off,0,0,0,,7,,,67,127
68490,note_off,0,0,0,,10,,,57,127
68490,note_off,0,0,0,,1,,,85,127
68490,note_off,0,0,0,,1,,,73,127
68492,note_on,2,0,0,,10,,,57,127
68492,note_on,0,0,0,,5,,,65,127
68492,note_on,0,0,0,,2,,,62,127
68492,note_on,0,0,0,,2,,,86,127
68492,note_on,0,0,0,,2,,,74,127
68661,note_off,169,0,0,,2,,,62,127
68661,note_off,0,0,0,,5,,,65,127
68661,note_off,0,0,0,,10,,,57,127
68663,note_on,2,0,0,,10,,,57,127
68663,note_on,0,0,0,,5,,,65,127
68663,note_on,0,0,0,,2,,,62,127
68832,note_off,169,0,0,,2,,,62,127
68832,note_off,0,0,0,,5,,,65,127
68832,note_off,0,0,0,,10,,,57,127
68834,note_on,2,0,0,,10,,,57,127
68834,note_on,0,0,0,,2,,,62,127
68834,note_on,0,0,0,,5,,,65,127
69003,note_off,169,0,0,,5,,,65,127
69003,note_off,0,0,0,,2,,,62,127
69003,note_off,0,0,0,,10,,,57,127
69003,note_off,0,0,0,,2,,,74,127
69003,note_off,0,0,0,,2,,,86,127
69005,note_on,2,0,0,,8,,,56,127
69005,note_on,0,0,0,,2,,,62,127
69005,note_on,0,0,0,,4,,,64,127
69005,note_on,0,0,0,,4,,,76,127
69005,note_on,0,0,0,,2,,,86,127
69174,note_off,169,0,0,,4,,,64,127
69174,note_off,0,0,0,,2,,,62,127
69174,note_off,0,0,0,,8,,,56,127
69176,note_on,2,0,0,,8,,,56,127
69176,note_on,0,0,0,,2,,,62,127
69176,note_on,0,0,0,,4,,,64,127
69345,note_off,169,0,0,,4,,,64,127
69345,note_off,0,0,0,,2,,,62,127
69345,note_off,0,0,0,,8,,,56,127
69347,note_on,2,0,0,,2,,,62,127
69347,note_on,0,0,0,,8,,,56,127
69347,note_on,0,0,0,,4,,,64,127
69516,note_off,169,0,0,,4,,,64,127
69516,note_off,0,0,0,,8,,,56,127
69516,note_off,0,0,0,,2,,,62,127
69516,note_off,0,0,0,,2,,,86,127
69516,note_off,0,0,0,,4,,,76,127
69518,note_on,2,0,0,,10,,,57,127
69518,note_on,0,0,0,,4,,,76,127
69518,note_on,0,0,0,,0,,,84,127
69687,note_off,169,0,0,,4,,,76,127
69689,note_on,2,0,0,,0,,,60,127
69689,note_on,0,0,0,,10,,,81,127
69856,note_off,167,0,0,,0,,,84,127
69856,note_off,0,0,0,,10,,,57,127
69858,note_off,2,0,0,,10,,,81,127
69858,note_off,0,0,0,,0,,,60,127
69860,note_on,2,0,0,,10,,,57,127
69860,note_on,0,0,0,,0,,,84,127
70029,note_off,169,0,0,,0,,,84,127
70029,note_off,0,0,0,,10,,,57,127
70031,note_on,2,0,0,,2,,,62,127
70031,note_on,0,0,0,,12,,,83,127
70200,note_off,169,0,0,,2,,,62,127
70202,note_on,2,0,0,,5,,,53,127
70202,note_on,0,0,0,,2,,,86,127
70369,note_off,167,0,0,,12,,,83,127
70371,note_off,2,0,0,,2,,,86,127
70371,note_off,0,0,0,,5,,,53,127
70373,note_on,2,0,0,,2,,,50,127
70373,note_on,0,0,0,,12,,,83,127
70542,note_off,169,0,0,,12,,,83,127
70542,note_off,0,0,0,,2,,,50,127
70544,note_on,2,0,0,,4,,,52,127
70544,note_on,0,0,0,,10,,,81,127
70713,note_off,169,0,0,,10,,,81,127
70715,note_on,2,0,0,,10,,,81,127
70799,note_off,84,0,0,,10,,,81,127
70801,note_on,2,0,0,,8,,,80,127
70885,note_off,84,0,0,,8,,,80,127
70887,note_on,2,0,0,,4,,,40,127
70887,note_on,0,0,0,,6,,,78,127
70971,note_off,84,0,0,,6,,,78,127
70973,note_on,2,0,0,,8,,,80,127
71057,note_off,84,0,0,,8,,,80,127
71057,note_off,0,0,0,,4,,,40,127
71058,note_off,1,0,0,,4,,,52,127
71059,note_on,1,0,0,,10,,,57,127
71059,note_on,0,0,0,,10,,,81,127
71228,note_off,169,0,0,,10,,,57,127
71230,note_on,2,0,0,,12,,,59,127
71230,note_on,0,0,0,,10,,,69,127
71399,note_off,169,0,0,,10,,,69,127
71399,note_off,0,0,0,,12,,,59,127
71401,note_on,2,0,0,,1,,,61,127
71401,note_on,0,0,0,,10,,,69,127
71570,note_off,169,0,0,,10,,,69,127
71570,note_off,0,0,0,,1,,,61,127
71572,note_on,2,0,0,,2,,,62,127
71572,note_on,0,0,0,,10,,,69,127
71741,note_off,169,0,0,,10,,,69,127
71741,note_off,0,0,0,,2,,,62,127
71743,note_on,2,0,0,,1,,,61,127
71743,note_on,0,0,0,,10,,,69,127
71912,note_off,169,0,0,,10,,,69,127
71912,note_off,0,0,0,,1,,,61,127
71914,note_on,2,0,0,,12,,,59,127
71914,note_on,0,0,0,,10,,,69,127
72083,note_off,169,0,0,,10,,,69,127
72083,note_off,0,0,0,,12,,,59,127
72083,note_off,0,0,0,,10,,,81,127
72085,note_on,2,0,0,,1,,,61,127
72085,note_on,0,0,0,,10,,,81,127
72254,note_off,169,0,0,,1,,,61,127
72256,note_on,2,0,0,,12,,,59,127
72256,note_on,0,0,0,,10,,,69,127
72423,note_off,167,0,0,,10,,,81,127
72425,note_off,2,0,0,,10,,,69,127
72425,note_off,0,0,0,,12,,,59,127
72427,note_on,2,0,0,,10,,,57,127
72427,note_on,0,0,0,,4,,,76,127
72596,note_off,169,0,0,,10,,,57,127
72598,note_on,2,0,0,,4,,,40,127
72598,note_on,0,0,0,,4,,,52,127
72767,note_off,169,0,0,,4,,,76,127
72769,note_on,2,0,0,,1,,,73,127
72769,note_on,0,0,0,,2,,,74,127
72938,note_off,169,0,0,,2,,,74,127
72938,note_off,0,0,0,,1,,,73,127
72940,note_on,2,0,0,,12,,,71,127
73109,note_off,169,0,0,,12,,,71,127
73109,note_off,0,0,0,,4,,,52,127
73109,note_off,0,0,0,,4,,,40,127
73111,note_on,2,0,0,,10,,,45,127
73111,note_on,0,0,0,,10,,,69,127
73280,note_off,169,0,0,,10,,,69,127
73280,note_off,0,0,0,,10,,,45,127
73282,note_on,2,0,0,,10,,,57,127
73282,note_on,0,0,0,,10,,,69,127
73451,note_off,169,0,0,,10,,,69,127
73451,note_off,0,0,0,,10,,,57,127
73453,note_on,2,0,0,,8,,,56,127
73453,note_on,0,0,0,,10,,,69,127
73622,note_off,169,0,0,,10,,,69,127
73622,note_off,0,0,0,,8,,,56,127
73624,note_on,2,0,0,,6,,,54,127
73624,note_on,0,0,0,,10,,,69,127
73793,note_off,169,0,0,,10,,,69,127
73793,note_off,0,0,0,,6,,,54,127
73795,note_on,2,0,0,,4,,,52,127
73795,note_on,0,0,0,,10,,,69,127
73964,note_off,169,0,0,,10,,,69,127
73964,note_off,0,0,0,,4,,,52,127
73966,note_on,2,0,0,,2,,,50,127
73966,note_on,0,0,0,,10,,,69,127
74135,note_off,169,0,0,,2,,,50,127
74137,note_on,2,0,0,,1,,,49,127
74137,note_on,0,0,0,,10,,,81,127
74304,note_off,167,0,0,,10,,,69,127
74306,note_off,2,0,0,,1,,,49,127
74308,note_on,2,0,0,,12,,,47,127
74308,note_on,0,0,0,,10,,,69,127
74475,note_off,167,0,0,,10,,,81,127
74477,note_off,2,0,0,,10,,,69,127
74477,note_off,0,0,0,,12,,,47,127
74479,note_on,2,0,0,,10,,,45,127
74479,note_on,0,0,0,,4,,,76,127
74648,note_off,169,0,0,,10,,,45,127
74650,note_on,2,0,0,,4,,,52,127
74650,note_on,0,0,0,,4,,,40,127
74819,note_off,169,0,0,,4,,,76,127
74821,note_on,2,0,0,,1,,,73,127
74821,note_on,0,0,0,,2,,,74,127
74990,note_off,169,0,0,,2,,,74,127
74999,note_off,9,0,0,,1,,,73,127
75003,note_on,4,0,0,,12,,,71,127
75175,note_off,172,0,0,,4,,,40,127
75175,note_off,0,0,0,,4,,,52,127
75180,note_off,5,0,0,,12,,,71,127
75205,note_on,25,0,0,,10,,,69,127
75205,note_on,0,0,0,,10,,,45,127
76805,note_off,1600,0,0,,10,,,45,127
76805,note_off,0,0,0,,10,,,69,127
81408,end_of_track,4603,1,0,,,,,,
