tick,type,time,meta,track,program,channel,pitch,tempo,note,velocity
0,copyright,0,1,0,,,,,,
0,program_change,0,0,0,6,0,,,,
0,pitchwheel,0,0,0,,0,0,,,
0,program_change,0,0,0,6,1,,,,
0,pitchwheel,0,0,0,,1,-590,,,
0,program_change,0,0,0,6,2,,,,
0,pitchwheel,0,0,0,,2,-272,,,
0,program_change,0,0,0,6,3,,,,
0,pitchwheel,0,0,0,,3,-353,,,
0,program_change,0,0,0,6,4,,,,
0,pitchwheel,0,0,0,,4,-560,,,
0,program_change,0,0,0,6,5,,,,
0,pitchwheel,0,0,0,,5,-80,,,
0,program_change,0,0,0,6,6,,,,
0,pitchwheel,0,0,0,,6,-625,,,
0,program_change,0,0,0,6,7,,,,
0,pitchwheel,0,0,0,,7,-130,,,
0,program_change,0,0,0,6,8,,,,
0,pitchwheel,0,0,0,,8,-512,,,
0,program_change,0,0,0,6,10,,,,
0,pitchwheel,0,0,0,,10,-464,,,
0,program_change,0,0,0,6,11,,,,
0,pitchwheel,0,0,0,,11,-208,,,
0,program_change,0,0,0,6,12,,,,
0,pitchwheel,0,0,0,,12,-553,,,
0,set_tempo,0,1,0,,,,500000,,
89,note_on,89,0,0,,2,,,38,127
89,note_on,0,0,0,,2,,,50,127
89,note_on,0,0,0,,2,,,74,127
440,note_off,351,0,0,,2,,,74,127
444,note_on,4,0,0,,10,,,81,127
620,note_off,176,0,0,,10,,,81,127
621,note_on,1,0,0,,6,,,78,127
797,note_off,176,0,0,,6,,,78,127
798,note_on,1,0,0,,2,,,74,127
975,note_on,177,0,0,,10,,,69,127
1149,note_off,174,0,0,,2,,,74,127
1152,note_off,3,0,0,,10,,,69,127
1153,note_on,1,0,0,,12,,,71,127
1330,note_on,177,0,0,,7,,,79,127
1504,note_off,174,0,0,,12,,,71,127
1508,note_on,4,0,0,,1,,,73,127
1682,note_off,174,0,0,,7,,,79,127
1686,note_on,4,0,0,,4,,,76,127
1860,note_off,174,0,0,,1,,,73,127
1864,note_on,4,0,0,,10,,,69,127
2038,note_off,174,0,0,,4,,,76,127
2042,note_on,4,0,0,,4,,,76,127
2042,note_on,0,0,0,,7,,,79,127
2216,note_off,174,0,0,,10,,,69,127
2219,note_off,3,0,0,,7,,,79,127
2219,note_off,0,0,0,,4,,,76,127
2219,note_off,0,0,0,,2,,,50,127
2219,note_off,0,0,0,,2,,,38,127
2220,note_on,1,0,0,,2,,,38,127
2220,note_on,0,0,0,,2,,,50,127
2220,note_on,0,0,0,,6,,,78,127
2220,note_on,0,0,0,,2,,,74,127
2574,note_off,354,0,0,,6,,,78,127
2575,note_on,1,0,0,,6,,,78,127
2751,note_off,176,0,0,,6,,,78,127
2751,note_off,0,0,0,,2,,,74,127
2752,note_on,1,0,0,,2,,,74,127
2929,note_on,177,0,0,,10,,,69,127
3104,note_off,175,0,0,,10,,,69,127
3106,note_on,2,0,0,,6,,,66,127
3282,note_off,176,0,0,,6,,,66,127
3282,note_off,0,0,0,,2,,,74,127
3283,note_on,1,0,0,,7,,,67,127
3460,note_on,177,0,0,,4,,,76,127
3636,note_off,176,0,0,,4,,,76,127
3637,note_on,1,0,0,,1,,,73,127
3813,note_off,176,0,0,,7,,,67,127
3814,note_on,1,0,0,,7,,,67,127
3990,note_off,176,0,0,,7,,,67,127
3991,note_on,1,0,0,,4,,,64,127
4167,note_off,176,0,0,,4,,,64,127
4167,note_off,0,0,0,,1,,,73,127
4168,note_on,1,0,0,,1,,,73,127
4168,note_on,0,0,0,,7,,,67,127
4344,note_off,176,0,0,,7,,,67,127
4344,note_off,0,0,0,,1,,,73,127
4344,note_off,0,0,0,,2,,,50,127
4344,note_off,0,0,0,,2,,,38,127
4345,note_on,1,0,0,,2,,,38,127
4345,note_on,0,0,0,,2,,,50,127
4345,note_on,0,0,0,,6,,,66,127
4345,note_on,0,0,0,,2,,,74,127
4699,note_off,354,0,0,,6,,,66,127
4700,note_on,1,0,0,,10,,,81,127
4876,note_off,176,0,0,,10,,,81,127
4877,note_on,1,0,0,,6,,,78,127
5053,note_off,176,0,0,,6,,,78,127
5053,note_off,0,0,0,,2,,,74,127
5054,note_on,1,0,0,,2,,,74,127
5231,note_on,177,0,0,,10,,,69,127
5405,note_off,174,0,0,,2,,,74,127
5408,note_off,3,0,0,,10,,,69,127
5409,note_on,1,0,0,,12,,,71,127
5586,note_on,177,0,0,,7,,,79,127
5760,note_off,174,0,0,,12,,,71,127
5763,note_off,3,0,0,,7,,,79,127
5764,note_on,1,0,0,,1,,,73,127
5941,note_on,177,0,0,,4,,,76,127
6115,note_off,174,0,0,,1,,,73,127
6118,note_off,3,0,0,,4,,,76,127
6119,note_on,1,0,0,,10,,,69,127
6295,note_off,176,0,0,,10,,,69,127
6296,note_on,1,0,0,,7,,,79,127
6296,note_on,0,0,0,,4,,,76,127
6472,note_off,176,0,0,,4,,,76,127
6472,note_off,0,0,0,,7,,,79,127
6472,note_off,0,0,0,,2,,,50,127
6472,note_off,0,0,0,,2,,,38,127
6473,note_on,1,0,0,,2,,,50,127
6473,note_on,0,0,0,,2,,,38,127
6473,note_on,0,0,0,,6,,,78,127
6473,note_on,0,0,0,,2,,,74,127
6827,note_off,354,0,0,,2,,,74,127
6827,note_off,0,0,0,,6,,,78,127
6828,note_on,1,0,0,,6,,,78,127
7005,note_on,177,0,0,,2,,,74,127
7181,note_off,176,0,0,,2,,,74,127
7182,note_on,1,0,0,,10,,,69,127
7358,note_off,176,0,0,,10,,,69,127
7359,note_on,1,0,0,,6,,,66,127
7535,note_off,176,0,0,,6,,,66,127
7535,note_off,0,0,0,,6,,,78,127
7536,note_on,1,0,0,,7,,,67,127
7713,note_on,177,0,0,,4,,,76,127
7889,note_off,176,0,0,,4,,,76,127
7890,note_on,1,0,0,,1,,,73,127
8066,note_off,176,0,0,,1,,,73,127
8066,note_off,0,0,0,,7,,,67,127
8067,note_on,1,0,0,,7,,,67,127
8243,note_off,176,0,0,,7,,,67,127
8244,note_on,1,0,0,,4,,,64,127
8421,note_on,177,0,0,,7,,,67,127
8421,note_on,0,0,0,,1,,,73,127
8595,note_off,174,0,0,,4,,,64,127
8598,note_off,3,0,0,,1,,,73,127
8598,note_off,0,0,0,,7,,,67,127
8598,note_off,0,0,0,,2,,,38,127
8598,note_off,0,0,0,,2,,,50,127
8599,note_on,1,0,0,,2,,,50,127
8599,note_on,0,0,0,,2,,,38,127
8599,note_on,0,0,0,,2,,,74,127
8599,note_on,0,0,0,,6,,,66,127
8953,note_off,354,0,0,,6,,,66,127
8953,note_off,0,0,0,,2,,,74,127
8953,note_off,0,0,0,,2,,,38,127
8953,note_off,0,0,0,,2,,,50,127
8954,note_on,1,0,0,,6,,,66,127
8954,note_on,0,0,0,,10,,,81,127
9130,note_off,176,0,0,,6,,,66,127
9131,note_on,1,0,0,,2,,,62,127
9307,note_off,176,0,0,,2,,,62,127
9308,note_on,1,0,0,,7,,,67,127
9484,note_off,176,0,0,,7,,,67,127
9484,note_off,0,0,0,,10,,,81,127
9485,note_on,1,0,0,,4,,,64,127
9485,note_on,0,0,0,,2,,,74,127
9661,note_off,176,0,0,,2,,,74,127
9661,note_off,0,0,0,,4,,,64,127
9662,note_on,1,0,0,,10,,,69,127
9662,note_on,0,0,0,,4,,,76,127
9662,note_on,0,0,0,,2,,,74,127
9838,note_off,176,0,0,,2,,,74,127
9838,note_off,0,0,0,,4,,,76,127
9839,note_on,1,0,0,,1,,,73,127
10015,note_off,176,0,0,,1,,,73,127
10015,note_off,0,0,0,,10,,,69,127
10016,note_on,1,0,0,,12,,,59,127
10016,note_on,0,0,0,,7,,,79,127
10192,note_off,176,0,0,,12,,,59,127
10193,note_on,1,0,0,,7,,,55,127
10369,note_off,176,0,0,,7,,,55,127
10370,note_on,1,0,0,,1,,,61,127
10546,note_off,176,0,0,,1,,,61,127
10546,note_off,0,0,0,,7,,,79,127
10547,note_on,1,0,0,,10,,,57,127
10547,note_on,0,0,0,,4,,,76,127
10723,note_off,176,0,0,,4,,,76,127
10723,note_off,0,0,0,,10,,,57,127
10724,note_on,1,0,0,,2,,,62,127
10724,note_on,0,0,0,,4,,,76,127
10900,note_off,176,0,0,,4,,,76,127
10901,note_on,1,0,0,,6,,,78,127
11077,note_off,176,0,0,,6,,,78,127
11077,note_off,0,0,0,,2,,,62,127
11078,note_on,1,0,0,,6,,,66,127
11078,note_on,0,0,0,,10,,,81,127
11254,note_off,176,0,0,,6,,,66,127
11255,note_on,1,0,0,,2,,,62,127
11431,note_off,176,0,0,,2,,,62,127
11432,note_on,1,0,0,,7,,,67,127
11608,note_off,176,0,0,,7,,,67,127
11608,note_off,0,0,0,,10,,,81,127
11609,note_on,1,0,0,,4,,,64,127
11609,note_on,0,0,0,,2,,,74,127
11785,note_off,176,0,0,,2,,,74,127
11785,note_off,0,0,0,,4,,,64,127
11786,note_on,1,0,0,,10,,,69,127
11786,note_on,0,0,0,,2,,,74,127
11786,note_on,0,0,0,,4,,,76,127
11962,note_off,176,0,0,,4,,,76,127
11962,note_off,0,0,0,,2,,,74,127
11963,note_on,1,0,0,,1,,,73,127
12139,note_off,176,0,0,,1,,,73,127
12139,note_off,0,0,0,,10,,,69,127
12140,note_on,1,0,0,,12,,,59,127
12140,note_on,0,0,0,,7,,,79,127
12316,note_off,176,0,0,,12,,,59,127
12317,note_on,1,0,0,,7,,,55,127
12493,note_off,176,0,0,,7,,,55,127
12494,note_on,1,0,0,,1,,,61,127
12670,note_off,176,0,0,,1,,,61,127
12670,note_off,0,0,0,,7,,,79,127
12671,note_on,1,0,0,,10,,,57,127
12671,note_on,0,0,0,,4,,,76,127
12847,note_off,176,0,0,,4,,,76,127
12847,note_off,0,0,0,,10,,,57,127
12848,note_on,1,0,0,,2,,,62,127
12848,note_on,0,0,0,,4,,,76,127
13024,note_off,176,0,0,,4,,,76,127
13025,note_on,1,0,0,,6,,,78,127
13201,note_off,176,0,0,,6,,,78,127
13201,note_off,0,0,0,,2,,,62,127
13202,note_on,1,0,0,,2,,,62,127
13202,note_on,0,0,0,,6,,,66,127
13378,note_off,176,0,0,,2,,,62,127
13379,note_on,1,0,0,,2,,,62,127
13553,note_off,174,0,0,,6,,,66,127
13556,note_off,3,0,0,,2,,,62,127
13557,note_on,1,0,0,,2,,,62,127
13557,note_on,0,0,0,,8,,,68,127
13734,note_on,177,0,0,,4,,,64,127
13908,note_off,174,0,0,,8,,,68,127
13911,note_off,3,0,0,,4,,,64,127
13911,note_off,0,0,0,,2,,,62,127
13912,note_on,1,0,0,,1,,,61,127
13912,note_on,0,0,0,,10,,,69,127
14089,note_on,177,0,0,,6,,,66,127
14263,note_off,174,0,0,,10,,,69,127
14266,note_off,3,0,0,,6,,,66,127
14266,note_off,0,0,0,,1,,,61,127
14267,note_on,1,0,0,,1,,,61,127
14267,note_on,0,0,0,,12,,,71,127
14444,note_on,177,0,0,,8,,,68,127
14618,note_off,174,0,0,,12,,,71,127
14621,note_off,3,0,0,,8,,,68,127
14621,note_off,0,0,0,,1,,,61,127
14622,note_on,1,0,0,,1,,,61,127
14622,note_on,0,0,0,,1,,,73,127
14799,note_on,177,0,0,,10,,,69,127
14973,note_off,174,0,0,,1,,,73,127
14976,note_off,3,0,0,,10,,,69,127
14976,note_off,0,0,0,,1,,,61,127
14977,note_on,1,0,0,,12,,,59,127
14977,note_on,0,0,0,,2,,,74,127
15331,note_off,354,0,0,,2,,,74,127
15331,note_off,0,0,0,,12,,,59,127
15332,note_on,1,0,0,,4,,,64,127
15332,note_on,0,0,0,,8,,,68,127
15508,note_off,176,0,0,,4,,,64,127
15509,note_on,1,0,0,,4,,,64,127
15683,note_off,174,0,0,,8,,,68,127
15686,note_off,3,0,0,,4,,,64,127
15687,note_on,1,0,0,,4,,,64,127
15687,note_on,0,0,0,,10,,,69,127
15864,note_on,177,0,0,,6,,,66,127
16038,note_off,174,0,0,,10,,,69,127
16041,note_off,3,0,0,,6,,,66,127
16041,note_off,0,0,0,,4,,,64,127
16042,note_on,1,0,0,,2,,,62,127
16042,note_on,0,0,0,,12,,,71,127
16219,note_on,177,0,0,,8,,,68,127
16393,note_off,174,0,0,,12,,,71,127
16396,note_off,3,0,0,,8,,,68,127
16396,note_off,0,0,0,,2,,,62,127
16397,note_on,1,0,0,,2,,,62,127
16397,note_on,0,0,0,,1,,,73,127
16574,note_on,177,0,0,,10,,,69,127
16748,note_off,174,0,0,,1,,,73,127
16751,note_off,3,0,0,,10,,,69,127
16751,note_off,0,0,0,,2,,,62,127
16752,note_on,1,0,0,,2,,,62,127
16752,note_on,0,0,0,,2,,,74,127
16929,note_on,177,0,0,,12,,,71,127
17103,note_off,174,0,0,,2,,,74,127
17106,note_off,3,0,0,,12,,,71,127
17106,note_off,0,0,0,,2,,,62,127
17107,note_on,1,0,0,,1,,,61,127
17107,note_on,0,0,0,,4,,,76,127
17461,note_off,354,0,0,,4,,,76,127
17461,note_off,0,0,0,,1,,,61,127
17462,note_on,1,0,0,,6,,,66,127
17462,note_on,0,0,0,,10,,,69,127
17638,note_off,176,0,0,,6,,,66,127
17639,note_on,1,0,0,,6,,,66,127
17813,note_off,174,0,0,,10,,,69,127
17816,note_off,3,0,0,,6,,,66,127
17817,note_on,1,0,0,,6,,,66,127
17817,note_on,0,0,0,,12,,,71,127
17994,note_on,177,0,0,,8,,,68,127
18168,note_off,174,0,0,,12,,,71,127
18171,note_off,3,0,0,,8,,,68,127
18171,note_off,0,0,0,,6,,,66,127
18172,note_on,1,0,0,,4,,,64,127
18172,note_on,0,0,0,,1,,,73,127
18349,note_on,177,0,0,,10,,,69,127
18523,note_off,174,0,0,,1,,,73,127
18526,note_off,3,0,0,,10,,,69,127
18526,note_off,0,0,0,,4,,,64,127
18527,note_on,1,0,0,,4,,,64,127
18527,note_on,0,0,0,,2,,,74,127
18704,note_on,177,0,0,,12,,,71,127
18878,note_off,174,0,0,,2,,,74,127
18881,note_off,3,0,0,,12,,,71,127
18881,note_off,0,0,0,,4,,,64,127
18882,note_on,1,0,0,,4,,,64,127
18882,note_on,0,0,0,,4,,,76,127
19059,note_on,177,0,0,,1,,,73,127
19233,note_off,174,0,0,,4,,,76,127
19236,note_off,3,0,0,,1,,,73,127
19236,note_off,0,0,0,,4,,,64,127
19237,note_on,1,0,0,,2,,,62,127
19237,note_on,0,0,0,,6,,,78,127
19414,note_on,177,0,0,,2,,,74,127
19588,note_off,174,0,0,,6,,,78,127
19591,note_off,3,0,0,,2,,,74,127
19591,note_off,0,0,0,,2,,,62,127
19592,note_on,1,0,0,,2,,,62,127
19592,note_on,0,0,0,,8,,,80,127
19769,note_on,177,0,0,,4,,,76,127
19943,note_off,174,0,0,,8,,,80,127
19946,note_off,3,0,0,,4,,,76,127
19946,note_off,0,0,0,,2,,,62,127
19947,note_on,1,0,0,,1,,,61,127
19947,note_on,0,0,0,,10,,,81,127
20124,note_on,177,0,0,,10,,,69,127
20298,note_off,174,0,0,,10,,,81,127
20301,note_off,3,0,0,,10,,,69,127
20301,note_off,0,0,0,,1,,,61,127
20302,note_on,1,0,0,,12,,,59,127
20302,note_on,0,0,0,,2,,,74,127
20478,note_off,176,0,0,,2,,,74,127
20479,note_on,1,0,0,,4,,,76,127
20567,note_off,88,0,0,,4,,,76,127
20568,note_on,1,0,0,,6,,,78,127
20656,note_off,88,0,0,,6,,,78,127
20656,note_off,0,0,0,,12,,,59,127
20657,note_on,1,0,0,,8,,,56,127
20657,note_on,0,0,0,,4,,,76,127
20833,note_off,176,0,0,,4,,,76,127
20834,note_on,1,0,0,,2,,,74,127
21010,note_off,176,0,0,,2,,,74,127
21010,note_off,0,0,0,,8,,,56,127
21011,note_on,1,0,0,,4,,,52,127
21011,note_on,0,0,0,,1,,,73,127
21187,note_off,176,0,0,,1,,,73,127
21188,note_on,1,0,0,,12,,,71,127
21364,note_off,176,0,0,,12,,,71,127
21364,note_off,0,0,0,,4,,,52,127
21365,note_on,1,0,0,,10,,,45,127
21365,note_on,0,0,0,,1,,,73,127
21630,note_off,265,0,0,,1,,,73,127
21631,note_on,1,0,0,,2,,,74,127
21719,note_off,88,0,0,,2,,,74,127
21719,note_off,0,0,0,,10,,,45,127
21720,note_on,1,0,0,,10,,,69,127
21720,note_on,0,0,0,,4,,,76,127
21896,note_off,176,0,0,,10,,,69,127
21897,note_on,1,0,0,,4,,,64,127
22073,note_off,176,0,0,,4,,,64,127
22073,note_off,0,0,0,,4,,,76,127
22074,note_on,1,0,0,,6,,,66,127
22074,note_on,0,0,0,,10,,,69,127
22250,note_off,176,0,0,,6,,,66,127
22251,note_on,1,0,0,,1,,,61,127
22427,note_off,176,0,0,,1,,,61,127
22428,note_on,1,0,0,,2,,,62,127
22604,note_off,176,0,0,,2,,,62,127
22605,note_on,1,0,0,,10,,,57,127
22781,note_off,176,0,0,,10,,,57,127
22781,note_off,0,0,0,,10,,,69,127
22782,note_on,1,0,0,,12,,,59,127
22782,note_on,0,0,0,,4,,,76,127
22841,note_on,59,0,0,,2,,,74,127
22870,note_off,29,0,0,,4,,,76,127
22900,note_on,30,0,0,,4,,,76,127
22929,note_off,29,0,0,,2,,,74,127
22959,note_off,30,0,0,,12,,,59,127
22960,note_on,1,0,0,,6,,,54,127
22960,note_on,0,0,0,,2,,,74,127
22989,note_off,29,0,0,,4,,,76,127
23019,note_on,30,0,0,,4,,,76,127
23048,note_off,29,0,0,,2,,,74,127
23078,note_on,30,0,0,,2,,,74,127
23107,note_off,29,0,0,,4,,,76,127
23137,note_off,30,0,0,,6,,,54,127
23138,note_on,1,0,0,,8,,,56,127
23138,note_on,0,0,0,,4,,,76,127
23167,note_off,29,0,0,,2,,,74,127
23197,note_on,30,0,0,,2,,,74,127
23226,note_off,29,0,0,,4,,,76,127
23256,note_on,30,0,0,,4,,,76,127
23285,note_off,29,0,0,,2,,,74,127
23315,note_off,30,0,0,,8,,,56,127
23316,note_on,1,0,0,,4,,,52,127
23316,note_on,0,0,0,,2,,,74,127
23345,note_off,29,0,0,,4,,,76,127
23375,note_on,30,0,0,,1,,,73,127
23404,note_off,29,0,0,,2,,,74,127
23434,note_on,30,0,0,,12,,,71,127
23463,note_off,29,0,0,,1,,,73,127
23493,note_off,30,0,0,,4,,,52,127
23494,note_on,1,0,0,,10,,,57,127
23494,note_on,0,0,0,,1,,,73,127
23523,note_off,29,0,0,,12,,,71,127
23759,note_off,236,0,0,,1,,,73,127
23760,note_on,1,0,0,,2,,,74,127
23848,note_off,88,0,0,,2,,,74,127
23848,note_off,0,0,0,,10,,,57,127
23849,note_on,1,0,0,,10,,,69,127
23849,note_on,0,0,0,,4,,,76,127
24025,note_off,176,0,0,,10,,,69,127
24026,note_on,1,0,0,,4,,,64,127
24202,note_off,176,0,0,,4,,,64,127
24202,note_off,0,0,0,,4,,,76,127
24203,note_on,1,0,0,,6,,,66,127
24203,note_on,0,0,0,,10,,,69,127
24379,note_off,176,0,0,,6,,,66,127
24380,note_on,1,0,0,,1,,,61,127
24556,note_off,176,0,0,,1,,,61,127
24557,note_on,1,0,0,,2,,,62,127
24733,note_off,176,0,0,,2,,,62,127
24734,note_on,1,0,0,,10,,,57,127
24910,note_off,176,0,0,,10,,,57,127
24910,note_off,0,0,0,,10,,,69,127
24911,note_on,1,0,0,,12,,,59,127
24911,note_on,0,0,0,,4,,,76,127
24970,note_on,59,0,0,,2,,,74,127
24999,note_off,29,0,0,,4,,,76,127
25029,note_on,30,0,0,,4,,,76,127
25058,note_off,29,0,0,,2,,,74,127
25088,note_off,30,0,0,,12,,,59,127
25089,note_on,1,0,0,,6,,,54,127
25089,note_on,0,0,0,,2,,,74,127
25118,note_off,29,0,0,,4,,,76,127
25148,note_on,30,0,0,,4,,,76,127
25177,note_off,29,0,0,,2,,,74,127
25207,note_on,30,0,0,,2,,,74,127
25236,note_off,29,0,0,,4,,,76,127
25266,note_off,30,0,0,,6,,,54,127
25267,note_on,1,0,0,,8,,,56,127
25267,note_on,0,0,0,,4,,,76,127
25296,note_off,29,0,0,,2,,,74,127
25326,note_on,30,0,0,,2,,,74,127
25355,note_off,29,0,0,,4,,,76,127
25385,note_on,30,0,0,,4,,,76,127
25414,note_off,29,0,0,,2,,,74,127
25444,note_off,30,0,0,,8,,,56,127
25445,note_on,1,0,0,,4,,,52,127
25445,note_on,0,0,0,,2,,,74,127
25474,note_off,29,0,0,,4,,,76,127
25504,note_on,30,0,0,,1,,,73,127
25533,note_off,29,0,0,,2,,,74,127
25563,note_on,30,0,0,,12,,,71,127
25592,note_off,29,0,0,,1,,,73,127
25622,note_off,30,0,0,,4,,,52,127
25623,note_on,1,0,0,,10,,,57,127
25623,note_on,0,0,0,,1,,,73,127
25652,note_off,29,0,0,,12,,,71,127
25977,note_off,325,0,0,,1,,,73,127
25977,note_off,0,0,0,,10,,,57,127
25978,note_on,1,0,0,,4,,,64,127
25978,note_on,0,0,0,,4,,,76,127
26154,note_off,176,0,0,,4,,,76,127
26154,note_off,0,0,0,,4,,,64,127
26155,note_on,1,0,0,,12,,,59,127
26155,note_on,0,0,0,,8,,,68,127
26331,note_off,176,0,0,,8,,,68,127
26331,note_off,0,0,0,,12,,,59,127
26332,note_on,1,0,0,,1,,,61,127
26332,note_on,0,0,0,,10,,,69,127
26508,note_off,176,0,0,,10,,,69,127
26508,note_off,0,0,0,,1,,,61,127
26509,note_on,1,0,0,,8,,,56,127
26509,note_on,0,0,0,,12,,,71,127
26685,note_off,176,0,0,,12,,,71,127
26685,note_off,0,0,0,,8,,,56,127
26686,note_on,1,0,0,,10,,,57,127
26686,note_on,0,0,0,,1,,,73,127
26862,note_off,176,0,0,,10,,,57,127
26863,note_on,1,0,0,,4,,,52,127
27039,note_off,176,0,0,,4,,,52,127
27040,note_on,1,0,0,,6,,,54,127
27216,note_off,176,0,0,,6,,,54,127
27216,note_off,0,0,0,,1,,,73,127
27217,note_on,1,0,0,,1,,,49,127
27217,note_on,0,0,0,,2,,,74,127
27305,note_off,88,0,0,,2,,,74,127
27306,note_on,1,0,0,,4,,,76,127
27394,note_off,88,0,0,,4,,,76,127
27394,note_off,0,0,0,,1,,,49,127
27395,note_on,1,0,0,,2,,,50,127
27395,note_on,0,0,0,,2,,,74,127
27571,note_off,176,0,0,,2,,,74,127
27571,note_off,0,0,0,,2,,,50,127
27572,note_on,1,0,0,,10,,,45,127
27572,note_on,0,0,0,,1,,,73,127
27748,note_off,176,0,0,,1,,,73,127
27748,note_off,0,0,0,,10,,,45,127
27749,note_on,1,0,0,,4,,,52,127
27749,note_on,0,0,0,,12,,,71,127
28103,note_off,354,0,0,,12,,,71,127
28103,note_off,0,0,0,,4,,,52,127
28104,note_on,1,0,0,,4,,,64,127
28104,note_on,0,0,0,,4,,,76,127
28280,note_off,176,0,0,,4,,,76,127
28280,note_off,0,0,0,,4,,,64,127
28281,note_on,1,0,0,,12,,,59,127
28281,note_on,0,0,0,,8,,,68,127
28457,note_off,176,0,0,,8,,,68,127
28457,note_off,0,0,0,,12,,,59,127
28458,note_on,1,0,0,,1,,,61,127
28458,note_on,0,0,0,,10,,,69,127
28634,note_off,176,0,0,,10,,,69,127
28634,note_off,0,0,0,,1,,,61,127
28635,note_on,1,0,0,,8,,,56,127
28635,note_on,0,0,0,,12,,,71,127
28811,note_off,176,0,0,,12,,,71,127
28811,note_off,0,0,0,,8,,,56,127
28812,note_on,1,0,0,,10,,,57,127
28812,note_on,0,0,0,,1,,,73,127
28988,note_off,176,0,0,,10,,,57,127
28989,note_on,1,0,0,,4,,,52,127
29165,note_off,176,0,0,,4,,,52,127
29166,note_on,1,0,0,,6,,,54,127
29342,note_off,176,0,0,,6,,,54,127
29342,note_off,0,0,0,,1,,,73,127
29343,note_on,1,0,0,,1,,,49,127
29343,note_on,0,0,0,,2,,,74,127
29431,note_off,88,0,0,,2,,,74,127
29432,note_on,1,0,0,,4,,,76,127
29520,note_off,88,0,0,,4,,,76,127
29520,note_off,0,0,0,,1,,,49,127
29521,note_on,1,0,0,,2,,,50,127
29521,note_on,0,0,0,,2,,,74,127
29697,note_off,176,0,0,,2,,,74,127
29697,note_off,0,0,0,,2,,,50,127
29698,note_on,1,0,0,,10,,,45,127
29698,note_on,0,0,0,,1,,,73,127
29874,note_off,176,0,0,,1,,,73,127
29874,note_off,0,0,0,,10,,,45,127
29875,note_on,1,0,0,,4,,,52,127
29875,note_on,0,0,0,,12,,,71,127
30229,note_off,354,0,0,,12,,,71,127
30229,note_off,0,0,0,,4,,,52,127
30230,note_on,1,0,0,,4,,,64,127
30230,note_on,0,0,0,,8,,,68,127
30406,note_off,176,0,0,,4,,,64,127
30407,note_on,1,0,0,,4,,,64,127
30581,note_off,174,0,0,,8,,,68,127
30584,note_off,3,0,0,,4,,,64,127
30585,note_on,1,0,0,,4,,,64,127
30585,note_on,0,0,0,,10,,,69,127
30762,note_on,177,0,0,,6,,,66,127
30936,note_off,174,0,0,,10,,,69,127
30939,note_off,3,0,0,,6,,,66,127
30939,note_off,0,0,0,,4,,,64,127
30940,note_on,1,0,0,,2,,,62,127
30940,note_on,0,0,0,,12,,,71,127
31117,note_on,177,0,0,,8,,,68,127
31291,note_off,174,0,0,,12,,,71,127
31294,note_off,3,0,0,,8,,,68,127
31294,note_off,0,0,0,,2,,,62,127
31295,note_on,1,0,0,,2,,,62,127
31295,note_on,0,0,0,,1,,,73,127
31472,note_on,177,0,0,,10,,,69,127
31646,note_off,174,0,0,,1,,,73,127
31649,note_off,3,0,0,,10,,,69,127
31649,note_off,0,0,0,,2,,,62,127
31650,note_on,1,0,0,,2,,,62,127
31650,note_on,0,0,0,,2,,,74,127
31827,note_on,177,0,0,,12,,,71,127
32001,note_off,174,0,0,,2,,,74,127
32004,note_off,3,0,0,,12,,,71,127
32004,note_off,0,0,0,,2,,,62,127
32005,note_on,1,0,0,,1,,,61,127
32005,note_on,0,0,0,,4,,,76,127
32359,note_off,354,0,0,,4,,,76,127
32359,note_off,0,0,0,,1,,,61,127
32360,note_on,1,0,0,,6,,,66,127
32360,note_on,0,0,0,,10,,,69,127
32536,note_off,176,0,0,,6,,,66,127
32537,note_on,1,0,0,,6,,,66,127
32711,note_off,174,0,0,,10,,,69,127
32714,note_off,3,0,0,,6,,,66,127
32715,note_on,1,0,0,,6,,,66,127
32715,note_on,0,0,0,,12,,,71,127
32892,note_on,177,0,0,,8,,,68,127
33066,note_off,174,0,0,,12,,,71,127
33069,note_off,3,0,0,,8,,,68,127
33069,note_off,0,0,0,,6,,,66,127
33070,note_on,1,0,0,,4,,,64,127
33070,note_on,0,0,0,,1,,,73,127
33247,note_on,177,0,0,,10,,,69,127
33421,note_off,174,0,0,,1,,,73,127
33424,note_off,3,0,0,,10,,,69,127
33424,note_off,0,0,0,,4,,,64,127
33425,note_on,1,0,0,,4,,,64,127
33425,note_on,0,0,0,,2,,,74,127
33602,note_on,177,0,0,,12,,,71,127
33776,note_off,174,0,0,,2,,,74,127
33779,note_off,3,0,0,,12,,,71,127
33779,note_off,0,0,0,,4,,,64,127
33780,note_on,1,0,0,,4,,,64,127
33780,note_on,0,0,0,,4,,,76,127
33957,note_on,177,0,0,,1,,,73,127
34131,note_off,174,0,0,,4,,,76,127
34134,note_off,3,0,0,,1,,,73,127
34134,note_off,0,0,0,,4,,,64,127
34135,note_on,1,0,0,,2,,,62,127
34135,note_on,0,0,0,,6,,,78,127
34312,note_on,177,0,0,,2,,,74,127
34486,note_off,174,0,0,,6,,,78,127
34489,note_off,3,0,0,,2,,,74,127
34489,note_off,0,0,0,,2,,,62,127
34490,note_on,1,0,0,,2,,,62,127
34490,note_on,0,0,0,,8,,,80,127
34667,note_on,177,0,0,,4,,,76,127
34841,note_off,174,0,0,,8,,,80,127
34844,note_off,3,0,0,,4,,,76,127
34844,note_off,0,0,0,,2,,,62,127
34845,note_on,1,0,0,,1,,,61,127
34845,note_on,0,0,0,,10,,,81,127
35022,note_on,177,0,0,,10,,,69,127
35196,note_off,174,0,0,,10,,,81,127
35199,note_off,3,0,0,,10,,,69,127
35199,note_off,0,0,0,,1,,,61,127
35200,note_on,1,0,0,,2,,,62,127
35200,note_on,0,0,0,,12,,,71,127
35376,note_off,176,0,0,,12,,,71,127
35377,note_on,1,0,0,,1,,,73,127
35465,note_off,88,0,0,,1,,,73,127
35466,note_on,1,0,0,,2,,,74,127
35554,note_off,88,0,0,,2,,,74,127
35554,note_off,0,0,0,,2,,,62,127
35555,note_on,1,0,0,,4,,,64,127
35555,note_on,0,0,0,,1,,,73,127
35731,note_off,176,0,0,,1,,,73,127
35732,note_on,1,0,0,,12,,,71,127
35908,note_off,176,0,0,,12,,,71,127
35909,note_on,1,0,0,,4,,,52,127
35909,note_on,0,0,0,,10,,,69,127
36085,note_off,176,0,0,,10,,,69,127
36086,note_on,1,0,0,,8,,,68,127
36262,note_off,176,0,0,,8,,,68,127
36262,note_off,0,0,0,,4,,,52,127
36262,note_off,0,0,0,,4,,,64,127
36263,note_on,1,0,0,,10,,,57,127
36263,note_on,0,0,0,,10,,,69,127
36529,note_off,266,0,0,,10,,,69,127
36617,note_off,88,0,0,,10,,,57,127
36618,note_on,1,0,0,,1,,,61,127
36618,note_on,0,0,0,,4,,,76,127
36794,note_off,176,0,0,,1,,,61,127
36795,note_on,1,0,0,,10,,,57,127
36971,note_off,176,0,0,,10,,,57,127
36972,note_on,1,0,0,,2,,,62,127
37148,note_off,176,0,0,,2,,,62,127
37148,note_off,0,0,0,,4,,,76,127
37149,note_on,1,0,0,,12,,,59,127
37149,note_on,0,0,0,,6,,,78,127
37325,note_off,176,0,0,,6,,,78,127
37325,note_off,0,0,0,,12,,,59,127
37326,note_on,1,0,0,,4,,,64,127
37326,note_on,0,0,0,,10,,,69,127
37502,note_off,176,0,0,,10,,,69,127
37503,note_on,1,0,0,,8,,,68,127
37679,note_off,176,0,0,,8,,,68,127
37679,note_off,0,0,0,,4,,,64,127
37680,note_on,1,0,0,,6,,,54,127
37680,note_on,0,0,0,,2,,,74,127
37856,note_off,176,0,0,,6,,,54,127
37857,note_on,1,0,0,,2,,,50,127
38033,note_off,176,0,0,,2,,,50,127
38034,note_on,1,0,0,,8,,,56,127
38210,note_off,176,0,0,,8,,,56,127
38210,note_off,0,0,0,,2,,,74,127
38211,note_on,1,0,0,,4,,,52,127
38211,note_on,0,0,0,,2,,,74,127
38387,note_off,176,0,0,,2,,,74,127
38387,note_off,0,0,0,,4,,,52,127
38388,note_on,1,0,0,,10,,,57,127
38388,note_on,0,0,0,,2,,,74,127
38388,note_on,0,0,0,,4,,,76,127
38564,note_off,176,0,0,,4,,,76,127
38564,note_off,0,0,0,,2,,,74,127
38565,note_on,1,0,0,,1,,,73,127
38741,note_off,176,0,0,,1,,,73,127
38741,note_off,0,0,0,,10,,,57,127
38742,note_on,1,0,0,,1,,,61,127
38742,note_on,0,0,0,,4,,,76,127
38918,note_off,176,0,0,,1,,,61,127
38919,note_on,1,0,0,,10,,,57,127
39095,note_off,176,0,0,,10,,,57,127
39096,note_on,1,0,0,,2,,,62,127
39272,note_off,176,0,0,,2,,,62,127
39272,note_off,0,0,0,,4,,,76,127
39273,note_on,1,0,0,,12,,,59,127
39273,note_on,0,0,0,,6,,,78,127
39449,note_off,176,0,0,,6,,,78,127
39449,note_off,0,0,0,,12,,,59,127
39450,note_on,1,0,0,,4,,,64,127
39450,note_on,0,0,0,,10,,,69,127
39626,note_off,176,0,0,,10,,,69,127
39627,note_on,1,0,0,,8,,,68,127
39803,note_off,176,0,0,,8,,,68,127
39803,note_off,0,0,0,,4,,,64,127
39804,note_on,1,0,0,,6,,,54,127
39804,note_on,0,0,0,,2,,,74,127
39980,note_off,176,0,0,,6,,,54,127
39981,note_on,1,0,0,,2,,,50,127
40157,note_off,176,0,0,,2,,,50,127
40158,note_on,1,0,0,,8,,,56,127
40334,note_off,176,0,0,,8,,,56,127
40334,note_off,0,0,0,,2,,,74,127
40335,note_on,1,0,0,,4,,,52,127
40335,note_on,0,0,0,,2,,,74,127
40511,note_off,176,0,0,,2,,,74,127
40511,note_off,0,0,0,,4,,,52,127
40512,note_on,1,0,0,,1,,,61,127
40512,note_on,0,0,0,,10,,,57,127
40512,note_on,0,0,0,,1,,,73,127
40688,note_off,176,0,0,,1,,,73,127
40689,note_on,1,0,0,,8,,,80,127
40865,note_off,176,0,0,,10,,,57,127
40865,note_off,0,0,0,,1,,,61,127
40866,note_on,1,0,0,,12,,,59,127
40866,note_on,0,0,0,,2,,,62,127
41042,note_off,176,0,0,,8,,,80,127
41043,note_on,1,0,0,,10,,,81,127
41219,note_off,176,0,0,,2,,,62,127
41219,note_off,0,0,0,,12,,,59,127
41220,note_on,1,0,0,,1,,,61,127
41220,note_on,0,0,0,,4,,,64,127
41396,note_off,176,0,0,,10,,,81,127
41397,note_on,1,0,0,,12,,,71,127
41573,note_off,176,0,0,,4,,,64,127
41573,note_off,0,0,0,,1,,,61,127
41574,note_on,1,0,0,,2,,,62,127
41750,note_off,176,0,0,,12,,,71,127
41751,note_on,1,0,0,,1,,,73,127
41839,note_off,88,0,0,,1,,,73,127
41840,note_on,1,0,0,,2,,,74,127
41928,note_off,88,0,0,,2,,,74,127
41928,note_off,0,0,0,,2,,,62,127
41929,note_on,1,0,0,,4,,,64,127
41929,note_on,0,0,0,,1,,,73,127
42105,note_off,176,0,0,,1,,,73,127
42106,note_on,1,0,0,,12,,,71,127
42282,note_off,176,0,0,,12,,,71,127
42283,note_on,1,0,0,,4,,,52,127
42283,note_on,0,0,0,,10,,,69,127
42459,note_off,176,0,0,,10,,,69,127
42460,note_on,1,0,0,,12,,,71,127
42636,note_off,176,0,0,,12,,,71,127
42636,note_off,0,0,0,,4,,,52,127
42636,note_off,0,0,0,,4,,,64,127
42637,note_on,1,0,0,,1,,,61,127
42637,note_on,0,0,0,,10,,,57,127
42637,note_on,0,0,0,,1,,,73,127
42813,note_off,176,0,0,,1,,,73,127
42814,note_on,1,0,0,,8,,,80,127
42990,note_off,176,0,0,,10,,,57,127
42990,note_off,0,0,0,,1,,,61,127
42991,note_on,1,0,0,,12,,,59,127
42991,note_on,0,0,0,,2,,,62,127
43167,note_off,176,0,0,,8,,,80,127
43168,note_on,1,0,0,,10,,,81,127
43344,note_off,176,0,0,,2,,,62,127
43344,note_off,0,0,0,,12,,,59,127
43345,note_on,1,0,0,,1,,,61,127
43345,note_on,0,0,0,,4,,,64,127
43521,note_off,176,0,0,,10,,,81,127
43522,note_on,1,0,0,,12,,,71,127
43698,note_off,176,0,0,,4,,,64,127
43698,note_off,0,0,0,,1,,,61,127
43699,note_on,1,0,0,,2,,,62,127
43875,note_off,176,0,0,,12,,,71,127
43876,note_on,1,0,0,,1,,,73,127
43964,note_off,88,0,0,,1,,,73,127
43965,note_on,1,0,0,,2,,,74,127
44053,note_off,88,0,0,,2,,,74,127
44053,note_off,0,0,0,,2,,,62,127
44054,note_on,1,0,0,,4,,,64,127
44054,note_on,0,0,0,,1,,,73,127
44230,note_off,176,0,0,,1,,,73,127
44231,note_on,1,0,0,,12,,,71,127
44407,note_off,176,0,0,,12,,,71,127
44408,note_on,1,0,0,,4,,,52,127
44408,note_on,0,0,0,,10,,,69,127
44584,note_off,176,0,0,,10,,,69,127
44585,note_on,1,0,0,,12,,,71,127
44761,note_off,176,0,0,,12,,,71,127
44761,note_off,0,0,0,,4,,,52,127
44761,note_off,0,0,0,,4,,,64,127
44762,note_on,1,0,0,,10,,,57,127
44762,note_on,0,0,0,,10,,,69,127
45293,note_off,531,0,0,,10,,,57,127
45294,note_on,1,0,0,,8,,,56,127
45382,note_off,88,0,0,,8,,,56,127
45383,note_on,1,0,0,,6,,,54,127
45471,note_off,88,0,0,,6,,,54,127
45472,note_on,1,0,0,,4,,,52,127
45560,note_off,88,0,0,,4,,,52,127
45561,note_on,1,0,0,,2,,,50,127
45649,note_off,88,0,0,,2,,,50,127
45650,note_on,1,0,0,,1,,,49,127
45738,note_off,88,0,0,,1,,,49,127
45739,note_on,1,0,0,,12,,,47,127
45827,note_off,88,0,0,,12,,,47,127
45828,note_on,1,0,0,,10,,,45,127
46177,note_off,349,0,0,,10,,,69,127
46182,note_off,5,0,0,,10,,,45,127
46183,note_on,1,0,0,,10,,,69,127
46183,note_on,0,0,0,,1,,,73,127
46359,note_off,176,0,0,,10,,,69,127
46360,note_on,1,0,0,,10,,,69,127
46534,note_off,174,0,0,,1,,,73,127
46537,note_off,3,0,0,,10,,,69,127
46538,note_on,1,0,0,,10,,,69,127
46538,note_on,0,0,0,,2,,,74,127
46715,note_on,177,0,0,,12,,,71,127
46889,note_off,174,0,0,,2,,,74,127
46892,note_off,3,0,0,,12,,,71,127
46892,note_off,0,0,0,,10,,,69,127
46893,note_on,1,0,0,,7,,,67,127
46893,note_on,0,0,0,,4,,,76,127
47070,note_on,177,0,0,,1,,,73,127
47244,note_off,174,0,0,,4,,,76,127
47247,note_off,3,0,0,,1,,,73,127
47247,note_off,0,0,0,,7,,,67,127
47248,note_on,1,0,0,,7,,,67,127
47248,note_on,0,0,0,,6,,,78,127
47425,note_on,177,0,0,,2,,,74,127
47599,note_off,174,0,0,,6,,,78,127
47602,note_off,3,0,0,,2,,,74,127
47602,note_off,0,0,0,,7,,,67,127
47603,note_on,1,0,0,,7,,,67,127
47603,note_on,0,0,0,,7,,,79,127
47780,note_on,177,0,0,,4,,,76,127
47954,note_off,174,0,0,,7,,,79,127
47957,note_off,3,0,0,,4,,,76,127
47957,note_off,0,0,0,,7,,,67,127
47958,note_on,1,0,0,,6,,,66,127
47958,note_on,0,0,0,,10,,,81,127
48312,note_off,354,0,0,,10,,,81,127
48312,note_off,0,0,0,,6,,,66,127
48313,note_on,1,0,0,,12,,,71,127
48313,note_on,0,0,0,,3,,,75,127
48489,note_off,176,0,0,,12,,,71,127
48490,note_on,1,0,0,,12,,,71,127
48664,note_off,174,0,0,,3,,,75,127
48667,note_off,3,0,0,,12,,,71,127
48668,note_on,1,0,0,,12,,,71,127
48668,note_on,0,0,0,,4,,,76,127
48845,note_on,177,0,0,,1,,,73,127
49019,note_off,174,0,0,,4,,,76,127
49022,note_off,3,0,0,,1,,,73,127
49022,note_off,0,0,0,,12,,,71,127
49023,note_on,1,0,0,,10,,,69,127
49023,note_on,0,0,0,,6,,,78,127
49200,note_on,177,0,0,,3,,,75,127
49374,note_off,174,0,0,,6,,,78,127
49377,note_off,3,0,0,,3,,,75,127
49377,note_off,0,0,0,,10,,,69,127
49378,note_on,1,0,0,,10,,,69,127
49378,note_on,0,0,0,,7,,,79,127
49555,note_on,177,0,0,,4,,,76,127
49729,note_off,174,0,0,,7,,,79,127
49732,note_off,3,0,0,,4,,,76,127
49732,note_off,0,0,0,,10,,,69,127
49733,note_on,1,0,0,,10,,,69,127
49733,note_on,0,0,0,,10,,,81,127
49910,note_on,177,0,0,,6,,,78,127
50084,note_off,174,0,0,,10,,,81,127
50087,note_off,3,0,0,,6,,,78,127
50087,note_off,0,0,0,,10,,,69,127
50088,note_on,1,0,0,,7,,,67,127
50088,note_on,0,0,0,,12,,,83,127
50265,note_on,177,0,0,,7,,,79,127
50441,note_off,176,0,0,,7,,,79,127
50441,note_off,0,0,0,,7,,,67,127
50442,note_on,1,0,0,,7,,,67,127
50442,note_on,0,0,0,,4,,,76,127
50618,note_off,176,0,0,,4,,,76,127
50619,note_on,1,0,0,,12,,,71,127
50795,note_off,176,0,0,,12,,,71,127
50795,note_off,0,0,0,,7,,,67,127
50795,note_off,0,0,0,,12,,,83,127
50796,note_on,1,0,0,,10,,,69,127
50796,note_on,0,0,0,,0,,,72,127
50973,note_on,177,0,0,,0,,,84,127
51147,note_off,174,0,0,,0,,,72,127
51150,note_off,3,0,0,,0,,,84,127
51150,note_off,0,0,0,,10,,,69,127
51151,note_on,1,0,0,,12,,,59,127
51151,note_on,0,0,0,,12,,,71,127
51151,note_on,0,0,0,,12,,,83,127
51328,note_on,177,0,0,,6,,,78,127
51504,note_off,176,0,0,,6,,,78,127
51504,note_off,0,0,0,,12,,,71,127
51504,note_off,0,0,0,,12,,,59,127
51505,note_on,1,0,0,,12,,,59,127
51505,note_on,0,0,0,,12,,,71,127
51505,note_on,0,0,0,,3,,,75,127
51681,note_off,176,0,0,,3,,,75,127
51681,note_off,0,0,0,,12,,,71,127
51682,note_on,1,0,0,,12,,,71,127
51858,note_off,176,0,0,,12,,,71,127
51858,note_off,0,0,0,,12,,,59,127
51858,note_off,0,0,0,,12,,,83,127
51859,note_on,1,0,0,,10,,,69,127
51859,note_on,0,0,0,,0,,,60,127
51859,note_on,0,0,0,,4,,,76,127
52035,note_off,176,0,0,,4,,,76,127
52036,note_on,1,0,0,,10,,,81,127
52212,note_off,176,0,0,,10,,,81,127
52212,note_off,0,0,0,,0,,,60,127
52212,note_off,0,0,0,,10,,,69,127
52213,note_on,1,0,0,,12,,,59,127
52213,note_on,0,0,0,,12,,,71,127
52213,note_on,0,0,0,,12,,,83,127
52390,note_on,177,0,0,,6,,,78,127
52566,note_off,176,0,0,,6,,,78,127
52566,note_off,0,0,0,,12,,,71,127
52566,note_off,0,0,0,,12,,,59,127
52567,note_on,1,0,0,,12,,,71,127
52567,note_on,0,0,0,,12,,,59,127
52567,note_on,0,0,0,,3,,,75,127
52743,note_off,176,0,0,,3,,,75,127
52743,note_off,0,0,0,,12,,,71,127
52744,note_on,1,0,0,,12,,,71,127
52920,note_off,176,0,0,,12,,,71,127
52920,note_off,0,0,0,,12,,,59,127
52920,note_off,0,0,0,,12,,,83,127
52921,note_on,1,0,0,,10,,,69,127
52921,note_on,0,0,0,,10,,,57,127
52921,note_on,0,0,0,,0,,,72,127
53098,note_on,177,0,0,,0,,,84,127
53272,note_off,174,0,0,,0,,,72,127
53275,note_off,3,0,0,,0,,,84,127
53275,note_off,0,0,0,,10,,,57,127
53275,note_off,0,0,0,,10,,,69,127
53276,note_on,1,0,0,,12,,,71,127
53276,note_on,0,0,0,,12,,,59,127
53276,note_on,0,0,0,,12,,,83,127
53453,note_on,177,0,0,,6,,,78,127
53627,note_off,174,0,0,,12,,,71,127
53630,note_off,3,0,0,,6,,,78,127
53630,note_off,0,0,0,,12,,,59,127
53631,note_on,1,0,0,,12,,,71,127
53631,note_on,0,0,0,,12,,,59,127
53631,note_on,0,0,0,,3,,,75,127
53807,note_off,176,0,0,,3,,,75,127
53807,note_off,0,0,0,,12,,,71,127
53808,note_on,1,0,0,,12,,,71,127
53984,note_off,176,0,0,,12,,,71,127
53984,note_off,0,0,0,,12,,,59,127
53984,note_off,0,0,0,,12,,,83,127
53985,note_on,1,0,0,,0,,,60,127
53985,note_on,0,0,0,,10,,,69,127
53985,note_on,0,0,0,,4,,,76,127
54161,note_off,176,0,0,,4,,,76,127
54162,note_on,1,0,0,,10,,,81,127
54338,note_off,176,0,0,,10,,,81,127
54338,note_off,0,0,0,,10,,,69,127
54338,note_off,0,0,0,,0,,,60,127
54339,note_on,1,0,0,,2,,,62,127
54339,note_on,0,0,0,,12,,,59,127
54339,note_on,0,0,0,,8,,,80,127
54516,note_on,177,0,0,,2,,,74,127
54692,note_off,176,0,0,,2,,,74,127
54692,note_off,0,0,0,,12,,,59,127
54692,note_off,0,0,0,,2,,,62,127
54693,note_on,1,0,0,,2,,,62,127
54693,note_on,0,0,0,,12,,,59,127
54693,note_on,0,0,0,,12,,,71,127
54869,note_off,176,0,0,,12,,,71,127
54870,note_on,1,0,0,,4,,,76,127
55046,note_off,176,0,0,,4,,,76,127
55046,note_off,0,0,0,,12,,,59,127
55046,note_off,0,0,0,,2,,,62,127
55047,note_on,1,0,0,,2,,,62,127
55047,note_on,0,0,0,,12,,,59,127
55047,note_on,0,0,0,,5,,,77,127
55223,note_off,176,0,0,,8,,,80,127
55224,note_on,1,0,0,,10,,,81,127
55400,note_off,176,0,0,,10,,,81,127
55400,note_off,0,0,0,,12,,,59,127
55400,note_off,0,0,0,,2,,,62,127
55401,note_on,1,0,0,,8,,,56,127
55401,note_on,0,0,0,,2,,,62,127
55401,note_on,0,0,0,,12,,,83,127
55577,note_off,176,0,0,,5,,,77,127
55578,note_on,1,0,0,,2,,,74,127
55754,note_off,176,0,0,,2,,,74,127
55754,note_off,0,0,0,,2,,,62,127
55754,note_off,0,0,0,,8,,,56,127
55755,note_on,1,0,0,,8,,,56,127
55755,note_on,0,0,0,,2,,,62,127
55755,note_on,0,0,0,,4,,,76,127
55931,note_off,176,0,0,,4,,,76,127
55932,note_on,1,0,0,,0,,,72,127
56108,note_off,176,0,0,,0,,,72,127
56108,note_off,0,0,0,,2,,,62,127
56108,note_off,0,0,0,,8,,,56,127
56109,note_on,1,0,0,,2,,,62,127
56109,note_on,0,0,0,,8,,,56,127
56109,note_on,0,0,0,,2,,,74,127
56285,note_off,176,0,0,,2,,,74,127
56286,note_on,1,0,0,,12,,,71,127
56462,note_off,176,0,0,,12,,,71,127
56462,note_off,0,0,0,,8,,,56,127
56462,note_off,0,0,0,,2,,,62,127
56463,note_on,1,0,0,,10,,,57,127
56463,note_on,0,0,0,,0,,,60,127
56463,note_on,0,0,0,,0,,,72,127
56639,note_off,176,0,0,,12,,,83,127
56640,note_on,1,0,0,,12,,,83,127
56816,note_off,176,0,0,,12,,,83,127
56816,note_off,0,0,0,,0,,,60,127
56816,note_off,0,0,0,,10,,,57,127
56817,note_on,1,0,0,,2,,,62,127
56817,note_on,0,0,0,,12,,,59,127
56817,note_on,0,0,0,,10,,,81,127
56993,note_off,176,0,0,,10,,,81,127
56994,note_on,1,0,0,,6,,,78,127
57170,note_off,176,0,0,,6,,,78,127
57170,note_off,0,0,0,,12,,,59,127
57170,note_off,0,0,0,,2,,,62,127
57171,note_on,1,0,0,,0,,,60,127
57171,note_on,0,0,0,,4,,,64,127
57171,note_on,0,0,0,,7,,,79,127
57347,note_off,176,0,0,,7,,,79,127
57348,note_on,1,0,0,,4,,,76,127
57524,note_off,176,0,0,,4,,,76,127
57524,note_off,0,0,0,,4,,,64,127
57524,note_off,0,0,0,,0,,,60,127
57525,note_on,1,0,0,,2,,,50,127
57525,note_on,0,0,0,,2,,,62,127
57525,note_on,0,0,0,,6,,,78,127
57702,note_off,177,0,0,,0,,,72,127
57702,note_on,0,0,0,,0,,,72,127
57878,note_off,176,0,0,,0,,,72,127
57878,note_off,0,0,0,,2,,,62,127
57878,note_off,0,0,0,,2,,,50,127
57879,note_on,1,0,0,,4,,,52,127
57879,note_on,0,0,0,,2,,,74,127
58055,note_off,176,0,0,,2,,,74,127
58056,note_on,1,0,0,,12,,,71,127
58232,note_off,176,0,0,,12,,,71,127
58232,note_off,0,0,0,,4,,,52,127
58233,note_on,1,0,0,,6,,,54,127
58233,note_on,0,0,0,,0,,,72,127
58409,note_off,176,0,0,,0,,,72,127
58410,note_on,1,0,0,,10,,,69,127
58586,note_off,176,0,0,,10,,,69,127
58586,note_off,0,0,0,,6,,,54,127
58587,note_on,1,0,0,,12,,,59,127
58587,note_on,0,0,0,,7,,,55,127
58587,note_on,0,0,0,,12,,,71,127
58764,note_off,177,0,0,,6,,,78,127
58764,note_on,0,0,0,,2,,,74,127
58940,note_off,176,0,0,,2,,,74,127
58940,note_off,0,0,0,,7,,,55,127
58940,note_off,0,0,0,,12,,,59,127
58941,note_on,1,0,0,,10,,,57,127
58941,note_on,0,0,0,,0,,,60,127
58941,note_on,0,0,0,,7,,,79,127
59117,note_off,176,0,0,,7,,,79,127
59117,note_off,0,0,0,,12,,,71,127
59118,note_on,1,0,0,,6,,,78,127
59294,note_off,176,0,0,,6,,,78,127
59294,note_off,0,0,0,,0,,,60,127
59294,note_off,0,0,0,,10,,,57,127
59295,note_on,1,0,0,,12,,,59,127
59295,note_on,0,0,0,,2,,,62,127
59295,note_on,0,0,0,,4,,,76,127
59471,note_off,176,0,0,,4,,,76,127
59472,note_on,1,0,0,,2,,,74,127
59648,note_off,176,0,0,,2,,,74,127
59648,note_off,0,0,0,,2,,,62,127
59648,note_off,0,0,0,,12,,,59,127
59649,note_on,1,0,0,,0,,,60,127
59649,note_on,0,0,0,,4,,,64,127
59649,note_on,0,0,0,,4,,,76,127
59825,note_off,176,0,0,,4,,,76,127
59826,note_on,1,0,0,,0,,,72,127
60002,note_off,176,0,0,,0,,,72,127
60002,note_off,0,0,0,,4,,,64,127
60002,note_off,0,0,0,,0,,,60,127
60003,note_on,1,0,0,,6,,,66,127
60003,note_on,0,0,0,,2,,,74,127
60179,note_off,176,0,0,,2,,,74,127
60180,note_on,1,0,0,,12,,,71,127
60356,note_off,176,0,0,,12,,,71,127
60356,note_off,0,0,0,,6,,,66,127
60357,note_on,1,0,0,,2,,,62,127
60357,note_on,0,0,0,,0,,,72,127
60533,note_off,176,0,0,,0,,,72,127
60534,note_on,1,0,0,,10,,,69,127
60710,note_off,176,0,0,,10,,,69,127
60710,note_off,0,0,0,,2,,,62,127
60711,note_on,1,0,0,,7,,,55,127
60711,note_on,0,0,0,,12,,,71,127
61065,note_off,354,0,0,,12,,,71,127
61065,note_off,0,0,0,,7,,,55,127
61066,note_on,1,0,0,,7,,,67,127
61066,note_on,0,0,0,,2,,,74,127
61242,note_off,176,0,0,,7,,,67,127
61243,note_on,1,0,0,,2,,,62,127
61419,note_off,176,0,0,,2,,,62,127
61419,note_off,0,0,0,,2,,,74,127
61420,note_on,1,0,0,,4,,,64,127
61420,note_on,0,0,0,,7,,,67,127
61596,note_off,176,0,0,,4,,,64,127
61597,note_on,1,0,0,,12,,,59,127
61773,note_off,176,0,0,,12,,,59,127
61774,note_on,1,0,0,,0,,,60,127
61950,note_off,176,0,0,,0,,,60,127
61951,note_on,1,0,0,,7,,,55,127
62127,note_off,176,0,0,,7,,,55,127
62127,note_off,0,0,0,,7,,,67,127
62128,note_on,1,0,0,,10,,,57,127
62128,note_on,0,0,0,,2,,,74,127
62187,note_on,59,0,0,,0,,,72,127
62216,note_off,29,0,0,,2,,,74,127
62246,note_on,30,0,0,,2,,,74,127
62275,note_off,29,0,0,,0,,,72,127
62305,note_off,30,0,0,,10,,,57,127
62306,note_on,1,0,0,,4,,,52,127
62306,note_on,0,0,0,,0,,,72,127
62335,note_off,29,0,0,,2,,,74,127
62365,note_on,30,0,0,,2,,,74,127
62394,note_off,29,0,0,,0,,,72,127
62424,note_on,30,0,0,,0,,,72,127
62453,note_off,29,0,0,,2,,,74,127
62483,note_off,30,0,0,,4,,,52,127
62484,note_on,1,0,0,,6,,,54,127
62484,note_on,0,0,0,,2,,,74,127
62513,note_off,29,0,0,,0,,,72,127
62543,note_on,30,0,0,,0,,,72,127
62572,note_off,29,0,0,,2,,,74,127
62602,note_on,30,0,0,,2,,,74,127
62631,note_off,29,0,0,,0,,,72,127
62661,note_off,30,0,0,,6,,,54,127
62662,note_on,1,0,0,,2,,,50,127
62662,note_on,0,0,0,,0,,,72,127
62691,note_off,29,0,0,,2,,,74,127
62721,note_on,30,0,0,,12,,,71,127
62750,note_off,29,0,0,,0,,,72,127
62780,note_on,30,0,0,,10,,,69,127
62809,note_off,29,0,0,,12,,,71,127
62839,note_off,30,0,0,,2,,,50,127
62840,note_on,1,0,0,,7,,,55,127
62840,note_on,0,0,0,,12,,,71,127
62869,note_off,29,0,0,,10,,,69,127
63105,note_off,236,0,0,,12,,,71,127
63106,note_on,1,0,0,,0,,,72,127
63194,note_off,88,0,0,,0,,,72,127
63194,note_off,0,0,0,,7,,,55,127
63195,note_on,1,0,0,,7,,,67,127
63195,note_on,0,0,0,,2,,,74,127
63371,note_off,176,0,0,,7,,,67,127
63372,note_on,1,0,0,,2,,,62,127
63548,note_off,176,0,0,,2,,,62,127
63548,note_off,0,0,0,,2,,,74,127
63549,note_on,1,0,0,,4,,,64,127
63549,note_on,0,0,0,,7,,,67,127
63725,note_off,176,0,0,,4,,,64,127
63726,note_on,1,0,0,,12,,,59,127
63902,note_off,176,0,0,,12,,,59,127
63903,note_on,1,0,0,,0,,,60,127
64079,note_off,176,0,0,,0,,,60,127
64080,note_on,1,0,0,,7,,,55,127
64256,note_off,176,0,0,,7,,,55,127
64256,note_off,0,0,0,,7,,,67,127
64257,note_on,1,0,0,,10,,,57,127
64257,note_on,0,0,0,,2,,,74,127
64316,note_on,59,0,0,,0,,,72,127
64345,note_off,29,0,0,,2,,,74,127
64375,note_on,30,0,0,,2,,,74,127
64404,note_off,29,0,0,,0,,,72,127
64434,note_off,30,0,0,,10,,,57,127
64435,note_on,1,0,0,,4,,,52,127
64435,note_on,0,0,0,,0,,,72,127
64464,note_off,29,0,0,,2,,,74,127
64494,note_on,30,0,0,,2,,,74,127
64523,note_off,29,0,0,,0,,,72,127
64553,note_on,30,0,0,,0,,,72,127
64582,note_off,29,0,0,,2,,,74,127
64612,note_off,30,0,0,,4,,,52,127
64613,note_on,1,0,0,,6,,,54,127
64613,note_on,0,0,0,,2,,,74,127
64642,note_off,29,0,0,,0,,,72,127
64672,note_on,30,0,0,,0,,,72,127
64701,note_off,29,0,0,,2,,,74,127
64731,note_on,30,0,0,,2,,,74,127
64760,note_off,29,0,0,,0,,,72,127
64790,note_off,30,0,0,,6,,,54,127
64791,note_on,1,0,0,,2,,,50,127
64791,note_on,0,0,0,,0,,,72,127
64820,note_off,29,0,0,,2,,,74,127
64850,note_on,30,0,0,,12,,,71,127
64879,note_off,29,0,0,,0,,,72,127
64909,note_on,30,0,0,,10,,,69,127
64938,note_off,29,0,0,,12,,,71,127
64968,note_off,30,0,0,,2,,,50,127
64969,note_on,1,0,0,,7,,,55,127
64969,note_on,0,0,0,,12,,,71,127
64998,note_off,29,0,0,,10,,,69,127
65323,note_off,325,0,0,,12,,,71,127
65323,note_off,0,0,0,,7,,,55,127
65324,note_on,1,0,0,,2,,,62,127
65324,note_on,0,0,0,,2,,,74,127
65500,note_off,176,0,0,,2,,,74,127
65500,note_off,0,0,0,,2,,,62,127
65501,note_on,1,0,0,,10,,,57,127
65501,note_on,0,0,0,,6,,,66,127
65677,note_off,176,0,0,,6,,,66,127
65677,note_off,0,0,0,,10,,,57,127
65678,note_on,1,0,0,,12,,,59,127
65678,note_on,0,0,0,,7,,,67,127
65854,note_off,176,0,0,,7,,,67,127
65854,note_off,0,0,0,,12,,,59,127
65855,note_on,1,0,0,,6,,,54,127
65855,note_on,0,0,0,,10,,,69,127
66031,note_off,176,0,0,,10,,,69,127
66031,note_off,0,0,0,,6,,,54,127
66032,note_on,1,0,0,,7,,,55,127
66032,note_on,0,0,0,,12,,,71,127
66208,note_off,176,0,0,,7,,,55,127
66209,note_on,1,0,0,,2,,,50,127
66385,note_off,176,0,0,,2,,,50,127
66386,note_on,1,0,0,,4,,,52,127
66562,note_off,176,0,0,,4,,,52,127
66562,note_off,0,0,0,,12,,,71,127
66563,note_on,1,0,0,,12,,,47,127
66563,note_on,0,0,0,,0,,,72,127
66651,note_off,88,0,0,,0,,,72,127
66652,note_on,1,0,0,,2,,,74,127
66740,note_off,88,0,0,,2,,,74,127
66740,note_off,0,0,0,,12,,,47,127
66741,note_on,1,0,0,,0,,,48,127
66741,note_on,0,0,0,,0,,,72,127
66917,note_off,176,0,0,,0,,,72,127
66917,note_off,0,0,0,,0,,,48,127
66918,note_on,1,0,0,,7,,,43,127
66918,note_on,0,0,0,,12,,,71,127
67094,note_off,176,0,0,,12,,,71,127
67094,note_off,0,0,0,,7,,,43,127
67095,note_on,1,0,0,,2,,,50,127
67095,note_on,0,0,0,,10,,,69,127
67449,note_off,354,0,0,,10,,,69,127
67449,note_off,0,0,0,,2,,,50,127
67450,note_on,1,0,0,,2,,,62,127
67450,note_on,0,0,0,,2,,,74,127
67626,note_off,176,0,0,,2,,,74,127
67626,note_off,0,0,0,,2,,,62,127
67627,note_on,1,0,0,,10,,,57,127
67627,note_on,0,0,0,,6,,,66,127
67803,note_off,176,0,0,,6,,,66,127
67803,note_off,0,0,0,,10,,,57,127
67804,note_on,1,0,0,,12,,,59,127
67804,note_on,0,0,0,,7,,,67,127
67980,note_off,176,0,0,,7,,,67,127
67980,note_off,0,0,0,,12,,,59,127
67981,note_on,1,0,0,,6,,,54,127
67981,note_on,0,0,0,,10,,,69,127
68157,note_off,176,0,0,,10,,,69,127
68157,note_off,0,0,0,,6,,,54,127
68158,note_on,1,0,0,,7,,,55,127
68158,note_on,0,0,0,,12,,,71,127
68334,note_off,176,0,0,,7,,,55,127
68335,note_on,1,0,0,,2,,,50,127
68511,note_off,176,0,0,,2,,,50,127
68512,note_on,1,0,0,,4,,,52,127
68688,note_off,176,0,0,,4,,,52,127
68688,note_off,0,0,0,,12,,,71,127
68689,note_on,1,0,0,,1,,,73,127
68689,note_on,0,0,0,,12,,,47,127
68777,note_off,88,0,0,,1,,,73,127
68778,note_on,1,0,0,,2,,,74,127
68866,note_off,88,0,0,,2,,,74,127
68866,note_off,0,0,0,,12,,,47,127
68867,note_on,1,0,0,,1,,,49,127
68867,note_on,0,0,0,,4,,,76,127
68867,note_on,0,0,0,,10,,,69,127
69043,note_off,176,0,0,,10,,,69,127
69043,note_off,0,0,0,,1,,,49,127
69044,note_on,1,0,0,,10,,,45,127
69044,note_on,0,0,0,,7,,,67,127
69220,note_off,176,0,0,,7,,,67,127
69220,note_off,0,0,0,,10,,,45,127
69221,note_on,1,0,0,,2,,,50,127
69221,note_on,0,0,0,,6,,,66,127
69397,note_off,176,0,0,,4,,,76,127
69398,note_on,1,0,0,,4,,,76,127
69574,note_off,176,0,0,,4,,,76,127
69574,note_off,0,0,0,,6,,,66,127
69574,note_off,0,0,0,,2,,,50,127
69575,note_on,1,0,0,,4,,,52,127
69575,note_on,0,0,0,,2,,,74,127
69751,note_off,176,0,0,,2,,,74,127
69752,note_on,1,0,0,,1,,,73,127
69928,note_off,176,0,0,,1,,,73,127
69928,note_off,0,0,0,,4,,,52,127
69929,note_on,1,0,0,,6,,,54,127
69929,note_on,0,0,0,,10,,,81,127
69929,note_on,0,0,0,,12,,,71,127
70105,note_off,176,0,0,,12,,,71,127
70106,note_on,1,0,0,,10,,,69,127
70282,note_off,176,0,0,,10,,,69,127
70282,note_off,0,0,0,,6,,,54,127
70283,note_on,1,0,0,,7,,,55,127
70283,note_on,0,0,0,,12,,,71,127
70459,note_off,176,0,0,,10,,,81,127
70460,note_on,1,0,0,,10,,,81,127
70636,note_off,176,0,0,,10,,,81,127
70636,note_off,0,0,0,,12,,,71,127
70636,note_off,0,0,0,,7,,,55,127
70637,note_on,1,0,0,,10,,,57,127
70637,note_on,0,0,0,,7,,,79,127
70813,note_off,176,0,0,,7,,,79,127
70814,note_on,1,0,0,,6,,,78,127
70990,note_off,176,0,0,,6,,,78,127
70990,note_off,0,0,0,,10,,,57,127
70991,note_on,1,0,0,,12,,,59,127
70991,note_on,0,0,0,,4,,,76,127
70991,note_on,0,0,0,,12,,,83,127
71167,note_off,176,0,0,,4,,,76,127
71168,note_on,1,0,0,,2,,,74,127
71344,note_off,176,0,0,,2,,,74,127
71344,note_off,0,0,0,,12,,,83,127
71344,note_off,0,0,0,,12,,,59,127
71345,note_on,1,0,0,,10,,,57,127
71345,note_on,0,0,0,,1,,,73,127
71521,note_off,176,0,0,,1,,,73,127
71522,note_on,1,0,0,,12,,,71,127
71610,note_off,88,0,0,,12,,,71,127
71611,note_on,1,0,0,,10,,,69,127
71699,note_off,88,0,0,,10,,,69,127
71699,note_off,0,0,0,,10,,,57,127
71700,note_on,1,0,0,,6,,,66,127
71700,note_on,0,0,0,,10,,,81,127
71876,note_off,176,0,0,,6,,,66,127
71877,note_on,1,0,0,,2,,,62,127
72053,note_off,176,0,0,,2,,,62,127
72054,note_on,1,0,0,,7,,,67,127
72230,note_off,176,0,0,,7,,,67,127
72230,note_off,0,0,0,,10,,,81,127
72231,note_on,1,0,0,,4,,,64,127
72231,note_on,0,0,0,,2,,,74,127
72407,note_off,176,0,0,,2,,,74,127
72407,note_off,0,0,0,,4,,,64,127
72408,note_on,1,0,0,,10,,,69,127
72408,note_on,0,0,0,,2,,,74,127
72408,note_on,0,0,0,,4,,,76,127
72584,note_off,176,0,0,,4,,,76,127
72584,note_off,0,0,0,,2,,,74,127
72585,note_on,1,0,0,,1,,,73,127
72761,note_off,176,0,0,,1,,,73,127
72761,note_off,0,0,0,,10,,,69,127
72762,note_on,1,0,0,,12,,,59,127
72762,note_on,0,0,0,,7,,,79,127
72938,note_off,176,0,0,,12,,,59,127
72939,note_on,1,0,0,,7,,,55,127
73115,note_off,176,0,0,,7,,,55,127
73116,note_on,1,0,0,,1,,,61,127
73292,note_off,176,0,0,,1,,,61,127
73292,note_off,0,0,0,,7,,,79,127
73293,note_on,1,0,0,,10,,,57,127
73293,note_on,0,0,0,,7,,,79,127
73469,note_off,176,0,0,,7,,,79,127
73469,note_off,0,0,0,,10,,,57,127
73470,note_on,1,0,0,,2,,,62,127
73470,note_on,0,0,0,,10,,,81,127
73470,note_on,0,0,0,,7,,,79,127
73646,note_off,176,0,0,,7,,,79,127
73646,note_off,0,0,0,,10,,,81,127
73647,note_on,1,0,0,,6,,,78,127
73823,note_off,176,0,0,,6,,,78,127
73823,note_off,0,0,0,,2,,,62,127
73824,note_on,1,0,0,,6,,,54,127
73824,note_on,0,0,0,,10,,,81,127
74000,note_off,176,0,0,,6,,,54,127
74001,note_on,1,0,0,,2,,,50,127
74177,note_off,176,0,0,,2,,,50,127
74178,note_on,1,0,0,,7,,,55,127
74354,note_off,176,0,0,,7,,,55,127
74354,note_off,0,0,0,,10,,,81,127
74355,note_on,1,0,0,,4,,,52,127
74355,note_on,0,0,0,,2,,,74,127
74531,note_off,176,0,0,,2,,,74,127
74531,note_off,0,0,0,,4,,,52,127
74532,note_on,1,0,0,,10,,,57,127
74532,note_on,0,0,0,,4,,,76,127
74532,note_on,0,0,0,,2,,,74,127
74708,note_off,176,0,0,,2,,,74,127
74708,note_off,0,0,0,,4,,,76,127
74709,note_on,1,0,0,,1,,,73,127
74885,note_off,176,0,0,,1,,,73,127
74885,note_off,0,0,0,,10,,,57,127
74886,note_on,1,0,0,,12,,,47,127
74886,note_on,0,0,0,,7,,,79,127
75062,note_off,176,0,0,,12,,,47,127
75063,note_on,1,0,0,,7,,,43,127
75239,note_off,176,0,0,,7,,,43,127
75240,note_on,1,0,0,,1,,,49,127
75416,note_off,176,0,0,,1,,,49,127
75416,note_off,0,0,0,,7,,,79,127
75417,note_on,1,0,0,,10,,,45,127
75417,note_on,0,0,0,,7,,,79,127
75593,note_off,176,0,0,,7,,,79,127
75593,note_off,0,0,0,,10,,,45,127
75594,note_on,1,0,0,,2,,,50,127
75594,note_on,0,0,0,,6,,,54,127
75594,note_on,0,0,0,,6,,,78,127
75770,note_off,176,0,0,,6,,,78,127
75771,note_on,1,0,0,,1,,,85,127
75947,note_off,176,0,0,,6,,,54,127
75947,note_off,0,0,0,,2,,,50,127
75948,note_on,1,0,0,,4,,,52,127
75948,note_on,0,0,0,,7,,,55,127
76124,note_off,176,0,0,,1,,,85,127
76125,note_on,1,0,0,,2,,,86,127
76301,note_off,176,0,0,,7,,,55,127
76301,note_off,0,0,0,,4,,,52,127
76302,note_on,1,0,0,,10,,,57,127
76302,note_on,0,0,0,,6,,,54,127
76478,note_off,176,0,0,,2,,,86,127
76479,note_on,1,0,0,,4,,,76,127
76655,note_off,176,0,0,,6,,,54,127
76655,note_off,0,0,0,,10,,,57,127
76656,note_on,1,0,0,,7,,,55,127
76832,note_off,176,0,0,,4,,,76,127
76833,note_on,1,0,0,,6,,,78,127
76921,note_off,88,0,0,,6,,,78,127
76922,note_on,1,0,0,,7,,,79,127
77010,note_off,88,0,0,,7,,,79,127
77010,note_off,0,0,0,,7,,,55,127
77011,note_on,1,0,0,,10,,,57,127
77011,note_on,0,0,0,,6,,,78,127
77187,note_off,176,0,0,,6,,,78,127
77188,note_on,1,0,0,,4,,,76,127
77364,note_off,176,0,0,,4,,,76,127
77365,note_on,1,0,0,,10,,,45,127
77365,note_on,0,0,0,,2,,,74,127
77541,note_off,176,0,0,,2,,,74,127
77542,note_on,1,0,0,,1,,,73,127
77718,note_off,176,0,0,,1,,,73,127
77718,note_off,0,0,0,,10,,,45,127
77718,note_off,0,0,0,,10,,,57,127
77719,note_on,1,0,0,,2,,,50,127
77719,note_on,0,0,0,,2,,,74,127
78073,note_off,354,0,0,,2,,,74,127
78073,note_off,0,0,0,,2,,,50,127
78074,note_on,1,0,0,,6,,,66,127
78074,note_on,0,0,0,,10,,,81,127
78250,note_off,176,0,0,,6,,,66,127
78251,note_on,1,0,0,,2,,,62,127
78427,note_off,176,0,0,,2,,,62,127
78428,note_on,1,0,0,,7,,,67,127
78604,note_off,176,0,0,,7,,,67,127
78604,note_off,0,0,0,,10,,,81,127
78605,note_on,1,0,0,,4,,,64,127
78605,note_on,0,0,0,,2,,,74,127
78781,note_off,176,0,0,,2,,,74,127
78781,note_off,0,0,0,,4,,,64,127
78782,note_on,1,0,0,,10,,,69,127
78782,note_on,0,0,0,,2,,,74,127
78782,note_on,0,0,0,,4,,,76,127
78958,note_off,176,0,0,,4,,,76,127
78958,note_off,0,0,0,,2,,,74,127
78959,note_on,1,0,0,,1,,,73,127
79135,note_off,176,0,0,,1,,,73,127
79135,note_off,0,0,0,,10,,,69,127
79136,note_on,1,0,0,,12,,,59,127
79136,note_on,0,0,0,,7,,,79,127
79312,note_off,176,0,0,,12,,,59,127
79313,note_on,1,0,0,,7,,,55,127
79489,note_off,176,0,0,,7,,,55,127
79490,note_on,1,0,0,,1,,,61,127
79666,note_off,176,0,0,,1,,,61,127
79666,note_off,0,0,0,,7,,,79,127
79667,note_on,1,0,0,,10,,,57,127
79667,note_on,0,0,0,,7,,,79,127
79843,note_off,176,0,0,,7,,,79,127
79843,note_off,0,0,0,,10,,,57,127
79844,note_on,1,0,0,,2,,,62,127
79844,note_on,0,0,0,,10,,,81,127
79844,note_on,0,0,0,,7,,,79,127
80020,note_off,176,0,0,,7,,,79,127
80020,note_off,0,0,0,,10,,,81,127
80021,note_on,1,0,0,,6,,,78,127
80197,note_off,176,0,0,,6,,,78,127
80197,note_off,0,0,0,,2,,,62,127
80198,note_on,1,0,0,,6,,,54,127
80198,note_on,0,0,0,,10,,,81,127
80374,note_off,176,0,0,,6,,,54,127
80375,note_on,1,0,0,,2,,,50,127
80551,note_off,176,0,0,,2,,,50,127
80552,note_on,1,0,0,,7,,,55,127
80728,note_off,176,0,0,,7,,,55,127
80728,note_off,0,0,0,,10,,,81,127
80729,note_on,1,0,0,,4,,,52,127
80729,note_on,0,0,0,,2,,,74,127
80905,note_off,176,0,0,,2,,,74,127
80905,note_off,0,0,0,,4,,,52,127
80906,note_on,1,0,0,,10,,,57,127
80906,note_on,0,0,0,,4,,,76,127
80906,note_on,0,0,0,,2,,,74,127
81082,note_off,176,0,0,,2,,,74,127
81082,note_off,0,0,0,,4,,,76,127
81083,note_on,1,0,0,,1,,,73,127
81259,note_off,176,0,0,,1,,,73,127
81259,note_off,0,0,0,,10,,,57,127
81260,note_on,1,0,0,,12,,,47,127
81260,note_on,0,0,0,,7,,,67,127
81436,note_off,176,0,0,,12,,,47,127
81437,note_on,1,0,0,,7,,,43,127
81613,note_off,176,0,0,,7,,,43,127
81614,note_on,1,0,0,,1,,,49,127
81790,note_off,176,0,0,,1,,,49,127
81790,note_off,0,0,0,,7,,,67,127
81791,note_on,1,0,0,,10,,,45,127
81791,note_on,0,0,0,,7,,,67,127
81967,note_off,176,0,0,,7,,,67,127
81967,note_off,0,0,0,,10,,,45,127
81968,note_on,1,0,0,,2,,,50,127
81968,note_on,0,0,0,,6,,,54,127
81968,note_on,0,0,0,,6,,,66,127
82144,note_off,176,0,0,,6,,,66,127
82145,note_on,1,0,0,,1,,,73,127
82321,note_off,176,0,0,,6,,,54,127
82321,note_off,0,0,0,,2,,,50,127
82322,note_on,1,0,0,,4,,,52,127
82322,note_on,0,0,0,,7,,,55,127
82498,note_off,176,0,0,,1,,,73,127
82499,note_on,1,0,0,,2,,,74,127
82675,note_off,176,0,0,,7,,,55,127
82675,note_off,0,0,0,,4,,,52,127
82676,note_on,1,0,0,,6,,,54,127
82676,note_on,0,0,0,,10,,,57,127
82852,note_off,176,0,0,,2,,,74,127
82853,note_on,1,0,0,,4,,,64,127
83029,note_off,176,0,0,,10,,,57,127
83029,note_off,0,0,0,,6,,,54,127
83030,note_on,1,0,0,,7,,,55,127
83206,note_off,176,0,0,,4,,,64,127
83207,note_on,1,0,0,,6,,,66,127
83295,note_off,88,0,0,,6,,,66,127
83296,note_on,1,0,0,,7,,,67,127
83384,note_off,88,0,0,,7,,,67,127
83384,note_off,0,0,0,,7,,,55,127
83385,note_on,1,0,0,,10,,,57,127
83385,note_on,0,0,0,,6,,,66,127
83561,note_off,176,0,0,,6,,,66,127
83562,note_on,1,0,0,,4,,,64,127
83738,note_off,176,0,0,,4,,,64,127
83739,note_on,1,0,0,,10,,,45,127
83739,note_on,0,0,0,,2,,,62,127
83915,note_off,176,0,0,,2,,,62,127
83916,note_on,1,0,0,,4,,,64,127
84092,note_off,176,0,0,,4,,,64,127
84092,note_off,0,0,0,,10,,,45,127
84092,note_off,0,0,0,,10,,,57,127
84093,note_on,1,0,0,,2,,,50,127
84093,note_on,0,0,0,,6,,,54,127
84093,note_on,0,0,0,,6,,,66,127
84269,note_off,176,0,0,,6,,,66,127
84270,note_on,1,0,0,,1,,,73,127
84446,note_off,176,0,0,,6,,,54,127
84446,note_off,0,0,0,,2,,,50,127
84447,note_on,1,0,0,,7,,,55,127
84447,note_on,0,0,0,,4,,,52,127
84623,note_off,176,0,0,,1,,,73,127
84624,note_on,1,0,0,,2,,,74,127
84800,note_off,176,0,0,,4,,,52,127
84800,note_off,0,0,0,,7,,,55,127
84801,note_on,1,0,0,,6,,,54,127
84801,note_on,0,0,0,,10,,,57,127
84977,note_off,176,0,0,,2,,,74,127
84978,note_on,1,0,0,,4,,,64,127
85154,note_off,176,0,0,,10,,,57,127
85154,note_off,0,0,0,,6,,,54,127
85155,note_on,1,0,0,,7,,,55,127
85331,note_off,176,0,0,,4,,,64,127
85332,note_on,1,0,0,,6,,,66,127
85420,note_off,88,0,0,,6,,,66,127
85421,note_on,1,0,0,,7,,,67,127
85509,note_off,88,0,0,,7,,,67,127
85509,note_off,0,0,0,,7,,,55,127
85510,note_on,1,0,0,,10,,,57,127
85510,note_on,0,0,0,,6,,,66,127
85686,note_off,176,0,0,,6,,,66,127
85687,note_on,1,0,0,,4,,,64,127
85863,note_off,176,0,0,,4,,,64,127
85864,note_on,1,0,0,,10,,,45,127
85864,note_on,0,0,0,,2,,,62,127
86040,note_off,176,0,0,,2,,,62,127
86041,note_on,1,0,0,,1,,,61,127
86217,note_off,176,0,0,,1,,,61,127
86217,note_off,0,0,0,,10,,,45,127
86217,note_off,0,0,0,,10,,,57,127
86218,note_on,1,0,0,,2,,,38,127
86218,note_on,0,0,0,,2,,,50,127
86218,note_on,0,0,0,,2,,,62,127
88611,note_off,2393,0,0,,2,,,62,127
88611,note_off,0,0,0,,2,,,50,127
88611,note_off,0,0,0,,2,,,38,127
90624,end_of_track,2013,1,0,,,,,,
