tick,type,time,meta,track,program,channel,pitch,tempo,note,velocity
0,copyright,0,1,0,,,,,,
0,program_change,0,0,0,6,0,,,,
0,pitchwheel,0,0,0,,0,0,,,
0,program_change,0,0,0,6,1,,,,
0,pitchwheel,0,0,0,,1,-590,,,
0,program_change,0,0,0,6,2,,,,
0,pitchwheel,0,0,0,,2,-272,,,
0,program_change,0,0,0,6,3,,,,
0,pitchwheel,0,0,0,,3,-353,,,
0,program_change,0,0,0,6,4,,,,
0,pitchwheel,0,0,0,,4,-560,,,
0,program_change,0,0,0,6,5,,,,
0,pitchwheel,0,0,0,,5,-80,,,
0,program_change,0,0,0,6,6,,,,
0,pitchwheel,0,0,0,,6,-625,,,
0,program_change,0,0,0,6,7,,,,
0,pitchwheel,0,0,0,,7,-130,,,
0,program_change,0,0,0,6,8,,,,
0,pitchwheel,0,0,0,,8,-512,,,
0,program_change,0,0,0,6,10,,,,
0,pitchwheel,0,0,0,,10,-464,,,
0,program_change,0,0,0,6,11,,,,
0,pitchwheel,0,0,0,,11,-208,,,
0,program_change,0,0,0,6,12,,,,
0,pitchwheel,0,0,0,,12,-553,,,
0,set_tempo,0,1,0,,,,500000,,
105,note_on,105,0,0,,6,,,78,127
208,note_off,103,0,0,,6,,,78,127
210,note_on,2,0,0,,4,,,76,127
313,note_off,103,0,0,,4,,,76,127
315,note_on,2,0,0,,6,,,78,127
418,note_off,103,0,0,,6,,,78,127
420,note_on,2,0,0,,7,,,79,127
523,note_off,103,0,0,,7,,,79,127
525,note_on,2,0,0,,6,,,78,127
628,note_off,103,0,0,,6,,,78,127
630,note_on,2,0,0,,4,,,76,127
733,note_off,103,0,0,,4,,,76,127
735,note_on,2,0,0,,2,,,74,127
838,note_off,103,0,0,,2,,,74,127
840,note_on,2,0,0,,1,,,73,127
943,note_off,103,0,0,,1,,,73,127
945,note_on,2,0,0,,6,,,66,127
945,note_on,0,0,0,,2,,,74,127
1048,note_off,103,0,0,,6,,,66,127
1050,note_on,2,0,0,,4,,,64,127
1153,note_off,103,0,0,,4,,,64,127
1155,note_on,2,0,0,,6,,,66,127
1258,note_off,103,0,0,,6,,,66,127
1260,note_on,2,0,0,,7,,,67,127
1363,note_off,103,0,0,,7,,,67,127
1365,note_on,2,0,0,,6,,,66,127
1468,note_off,103,0,0,,6,,,66,127
1470,note_off,2,0,0,,2,,,74,127
1470,note_on,0,0,0,,4,,,64,127
1573,note_off,103,0,0,,4,,,64,127
1575,note_on,2,0,0,,2,,,62,127
1575,note_on,0,0,0,,4,,,76,127
1678,note_off,103,0,0,,2,,,62,127
1680,note_on,2,0,0,,1,,,61,127
1783,note_off,103,0,0,,1,,,61,127
1783,note_off,0,0,0,,4,,,76,127
1785,note_on,2,0,0,,2,,,62,127
1785,note_on,0,0,0,,6,,,78,127
1888,note_off,103,0,0,,6,,,78,127
1890,note_on,2,0,0,,7,,,79,127
1993,note_off,103,0,0,,7,,,79,127
1995,note_on,2,0,0,,10,,,81,127
2098,note_off,103,0,0,,10,,,81,127
2100,note_on,2,0,0,,12,,,83,127
2203,note_off,103,0,0,,12,,,83,127
2205,note_on,2,0,0,,10,,,81,127
2308,note_off,103,0,0,,10,,,81,127
2310,note_off,2,0,0,,2,,,62,127
2310,note_on,0,0,0,,7,,,79,127
2413,note_off,103,0,0,,7,,,79,127
2415,note_on,2,0,0,,4,,,64,127
2415,note_on,0,0,0,,6,,,78,127
2518,note_off,103,0,0,,6,,,78,127
2520,note_on,2,0,0,,4,,,76,127
2623,note_off,103,0,0,,4,,,76,127
2623,note_off,0,0,0,,4,,,64,127
2625,note_on,2,0,0,,6,,,66,127
2625,note_on,0,0,0,,2,,,74,127
2728,note_off,103,0,0,,6,,,66,127
2730,note_on,2,0,0,,7,,,67,127
2833,note_off,103,0,0,,7,,,67,127
2835,note_on,2,0,0,,10,,,69,127
2938,note_off,103,0,0,,10,,,69,127
2940,note_on,2,0,0,,12,,,71,127
3043,note_off,103,0,0,,12,,,71,127
3043,note_off,0,0,0,,2,,,74,127
3045,note_on,2,0,0,,10,,,69,127
3150,note_on,105,0,0,,7,,,67,127
3253,note_off,103,0,0,,7,,,67,127
3255,note_on,2,0,0,,6,,,66,127
3358,note_off,103,0,0,,6,,,66,127
3360,note_on,2,0,0,,4,,,64,127
3463,note_off,103,0,0,,4,,,64,127
3463,note_off,0,0,0,,10,,,69,127
3465,note_on,2,0,0,,6,,,66,127
3465,note_on,0,0,0,,2,,,74,127
3568,note_off,103,0,0,,2,,,74,127
3570,note_on,2,0,0,,6,,,78,127
3673,note_off,103,0,0,,6,,,78,127
3675,note_on,2,0,0,,4,,,76,127
3778,note_off,103,0,0,,4,,,76,127
3780,note_off,2,0,0,,6,,,66,127
3780,note_on,0,0,0,,2,,,74,127
3883,note_off,103,0,0,,2,,,74,127
3885,note_on,2,0,0,,1,,,73,127
3988,note_off,103,0,0,,1,,,73,127
3990,note_on,2,0,0,,12,,,71,127
4093,note_off,103,0,0,,12,,,71,127
4095,note_on,2,0,0,,10,,,57,127
4095,note_on,0,0,0,,10,,,69,127
4198,note_off,103,0,0,,10,,,69,127
4200,note_on,2,0,0,,7,,,67,127
4303,note_off,103,0,0,,7,,,67,127
4303,note_off,0,0,0,,10,,,57,127
4305,note_on,2,0,0,,2,,,62,127
4305,note_on,0,0,0,,6,,,66,127
4408,note_off,103,0,0,,6,,,66,127
4410,note_on,2,0,0,,6,,,66,127
4513,note_off,103,0,0,,6,,,66,127
4513,note_off,0,0,0,,2,,,62,127
4515,note_on,2,0,0,,4,,,64,127
4618,note_off,103,0,0,,4,,,64,127
4620,note_on,2,0,0,,2,,,62,127
4723,note_off,103,0,0,,2,,,62,127
4725,note_on,2,0,0,,1,,,61,127
4828,note_off,103,0,0,,1,,,61,127
4830,note_on,2,0,0,,12,,,59,127
4933,note_off,103,0,0,,12,,,59,127
4935,note_on,2,0,0,,10,,,57,127
4935,note_on,0,0,0,,10,,,69,127
5038,note_off,103,0,0,,10,,,57,127
5040,note_on,2,0,0,,7,,,55,127
5143,note_off,103,0,0,,7,,,55,127
5143,note_off,0,0,0,,10,,,69,127
5145,note_on,2,0,0,,6,,,54,127
5145,note_on,0,0,0,,2,,,74,127
5248,note_off,103,0,0,,2,,,74,127
5250,note_on,2,0,0,,4,,,76,127
5353,note_off,103,0,0,,4,,,76,127
5355,note_on,2,0,0,,6,,,78,127
5458,note_off,103,0,0,,6,,,78,127
5460,note_on,2,0,0,,7,,,79,127
5563,note_off,103,0,0,,7,,,79,127
5565,note_on,2,0,0,,10,,,81,127
5668,note_off,103,0,0,,10,,,81,127
5670,note_on,2,0,0,,6,,,78,127
5773,note_off,103,0,0,,6,,,78,127
5773,note_off,0,0,0,,6,,,54,127
5775,note_on,2,0,0,,7,,,55,127
5775,note_on,0,0,0,,4,,,76,127
5878,note_off,103,0,0,,4,,,76,127
5880,note_on,2,0,0,,2,,,74,127
5983,note_off,103,0,0,,2,,,74,127
5983,note_off,0,0,0,,7,,,55,127
5985,note_on,2,0,0,,4,,,64,127
5985,note_on,0,0,0,,10,,,57,127
5985,note_on,0,0,0,,1,,,73,127
6088,note_off,103,0,0,,1,,,73,127
6090,note_on,2,0,0,,10,,,69,127
6193,note_off,103,0,0,,10,,,69,127
6195,note_on,2,0,0,,7,,,79,127
6298,note_off,103,0,0,,7,,,79,127
6300,note_on,2,0,0,,6,,,78,127
6403,note_off,103,0,0,,6,,,78,127
6405,note_on,2,0,0,,4,,,76,127
6508,note_off,103,0,0,,4,,,76,127
6510,note_on,2,0,0,,10,,,69,127
6613,note_off,103,0,0,,10,,,69,127
6613,note_off,0,0,0,,10,,,57,127
6613,note_off,0,0,0,,4,,,64,127
6615,note_on,2,0,0,,1,,,61,127
6615,note_on,0,0,0,,10,,,81,127
6718,note_off,103,0,0,,10,,,81,127
6720,note_on,2,0,0,,7,,,79,127
6823,note_off,103,0,0,,7,,,79,127
6823,note_off,0,0,0,,1,,,61,127
6825,note_on,2,0,0,,2,,,62,127
6825,note_on,0,0,0,,6,,,78,127
6928,note_off,103,0,0,,6,,,78,127
6930,note_on,2,0,0,,10,,,69,127
7033,note_off,103,0,0,,10,,,69,127
7035,note_on,2,0,0,,7,,,55,127
7035,note_on,0,0,0,,7,,,79,127
7138,note_off,103,0,0,,7,,,79,127
7140,note_on,2,0,0,,6,,,78,127
7243,note_off,103,0,0,,6,,,78,127
7243,note_off,0,0,0,,7,,,55,127
7245,note_on,2,0,0,,10,,,57,127
7245,note_on,0,0,0,,4,,,76,127
7348,note_off,103,0,0,,4,,,76,127
7350,note_on,2,0,0,,10,,,69,127
7453,note_off,103,0,0,,10,,,69,127
7454,note_off,1,0,0,,2,,,62,127
7455,note_on,1,0,0,,1,,,61,127
7455,note_on,0,0,0,,10,,,81,127
7558,note_off,103,0,0,,10,,,81,127
7560,note_on,2,0,0,,7,,,79,127
7660,note_off,100,0,0,,10,,,57,127
7662,note_off,2,0,0,,7,,,79,127
7662,note_off,0,0,0,,1,,,61,127
7664,note_on,2,0,0,,2,,,62,127
7664,note_on,0,0,0,,6,,,78,127
7767,note_off,103,0,0,,6,,,78,127
7769,note_on,2,0,0,,2,,,74,127
7872,note_off,103,0,0,,2,,,74,127
7872,note_off,0,0,0,,2,,,62,127
7874,note_on,2,0,0,,7,,,67,127
7874,note_on,0,0,0,,4,,,76,127
7977,note_off,103,0,0,,7,,,67,127
7979,note_on,2,0,0,,6,,,66,127
8082,note_off,103,0,0,,6,,,66,127
8084,note_on,2,0,0,,4,,,64,127
8187,note_off,103,0,0,,4,,,64,127
8189,note_on,2,0,0,,10,,,57,127
8292,note_off,103,0,0,,10,,,57,127
8292,note_off,0,0,0,,4,,,76,127
8294,note_on,2,0,0,,10,,,69,127
8294,note_on,0,0,0,,1,,,73,127
8397,note_off,103,0,0,,10,,,69,127
8399,note_on,2,0,0,,7,,,67,127
8502,note_off,103,0,0,,7,,,67,127
8502,note_off,0,0,0,,1,,,73,127
8504,note_on,2,0,0,,6,,,66,127
8504,note_on,0,0,0,,2,,,74,127
8607,note_off,103,0,0,,6,,,66,127
8609,note_on,2,0,0,,10,,,57,127
8712,note_off,103,0,0,,10,,,57,127
8712,note_off,0,0,0,,2,,,74,127
8714,note_on,2,0,0,,7,,,67,127
8714,note_on,0,0,0,,4,,,76,127
8817,note_off,103,0,0,,7,,,67,127
8819,note_on,2,0,0,,6,,,66,127
8922,note_off,103,0,0,,6,,,66,127
8924,note_on,2,0,0,,4,,,64,127
9027,note_off,103,0,0,,4,,,64,127
9029,note_on,2,0,0,,10,,,57,127
9132,note_off,103,0,0,,10,,,57,127
9132,note_off,0,0,0,,4,,,76,127
9134,note_on,2,0,0,,10,,,69,127
9134,note_on,0,0,0,,1,,,73,127
9237,note_off,103,0,0,,10,,,69,127
9239,note_on,2,0,0,,7,,,67,127
9342,note_off,103,0,0,,7,,,67,127
9342,note_off,0,0,0,,1,,,73,127
9344,note_on,2,0,0,,6,,,66,127
9344,note_on,0,0,0,,2,,,74,127
9447,note_off,103,0,0,,6,,,66,127
9449,note_on,2,0,0,,7,,,67,127
9552,note_off,103,0,0,,7,,,67,127
9552,note_off,0,0,0,,2,,,74,127
9554,note_on,2,0,0,,6,,,66,127
9554,note_on,0,0,0,,10,,,81,127
9657,note_off,103,0,0,,6,,,66,127
9659,note_on,2,0,0,,4,,,64,127
9762,note_off,103,0,0,,4,,,64,127
9764,note_on,2,0,0,,2,,,62,127
9867,note_off,103,0,0,,2,,,62,127
9869,note_on,2,0,0,,4,,,64,127
9972,note_off,103,0,0,,4,,,64,127
9972,note_off,0,0,0,,10,,,81,127
9974,note_on,2,0,0,,2,,,62,127
9974,note_on,0,0,0,,6,,,78,127
10077,note_off,103,0,0,,2,,,62,127
10079,note_on,2,0,0,,1,,,61,127
10182,note_off,103,0,0,,1,,,61,127
10182,note_off,0,0,0,,6,,,78,127
10184,note_on,2,0,0,,12,,,59,127
10184,note_on,0,0,0,,2,,,74,127
10287,note_off,103,0,0,,12,,,59,127
10289,note_on,2,0,0,,1,,,61,127
10392,note_off,103,0,0,,1,,,61,127
10392,note_off,0,0,0,,2,,,74,127
10394,note_on,2,0,0,,12,,,59,127
10394,note_on,0,0,0,,10,,,81,127
10497,note_off,103,0,0,,12,,,59,127
10499,note_on,2,0,0,,10,,,57,127
10602,note_off,103,0,0,,10,,,57,127
10604,note_on,2,0,0,,8,,,56,127
10707,note_off,103,0,0,,8,,,56,127
10709,note_on,2,0,0,,10,,,57,127
10812,note_off,103,0,0,,10,,,57,127
10812,note_off,0,0,0,,10,,,81,127
10814,note_on,2,0,0,,8,,,56,127
10814,note_on,0,0,0,,6,,,78,127
10917,note_off,103,0,0,,8,,,56,127
10919,note_on,2,0,0,,6,,,54,127
11022,note_off,103,0,0,,6,,,54,127
11022,note_off,0,0,0,,6,,,78,127
11024,note_on,2,0,0,,4,,,52,127
11024,note_on,0,0,0,,2,,,74,127
11127,note_off,103,0,0,,2,,,74,127
11129,note_on,2,0,0,,4,,,76,127
11179,note_off,50,0,0,,4,,,76,127
11181,note_on,2,0,0,,6,,,78,127
11231,note_off,50,0,0,,6,,,78,127
11233,note_on,2,0,0,,8,,,80,127
11283,note_off,50,0,0,,8,,,80,127
11285,note_on,2,0,0,,10,,,81,127
11335,note_off,50,0,0,,10,,,81,127
11337,note_on,2,0,0,,12,,,83,127
11650,note_off,313,0,0,,4,,,52,127
12174,note_off,524,0,0,,12,,,83,127
12280,note_on,106,0,0,,7,,,79,127
12280,note_on,0,0,0,,10,,,81,127
12280,note_on,0,0,0,,4,,,64,127
12280,note_on,0,0,0,,7,,,67,127
12383,note_off,103,0,0,,10,,,81,127
12383,note_off,0,0,0,,7,,,79,127
12385,note_on,2,0,0,,6,,,78,127
12488,note_off,103,0,0,,6,,,78,127
12488,note_off,0,0,0,,7,,,67,127
12488,note_off,0,0,0,,4,,,64,127
12490,note_on,2,0,0,,4,,,76,127
12490,note_on,0,0,0,,4,,,64,127
12490,note_on,0,0,0,,7,,,67,127
12697,note_off,207,0,0,,7,,,67,127
12697,note_off,0,0,0,,4,,,64,127
12699,note_on,2,0,0,,7,,,67,127
12699,note_on,0,0,0,,4,,,64,127
12906,note_off,207,0,0,,4,,,64,127
12906,note_off,0,0,0,,7,,,67,127
12906,note_off,0,0,0,,4,,,76,127
12908,note_on,2,0,0,,2,,,74,127
12908,note_on,0,0,0,,4,,,64,127
12908,note_on,0,0,0,,7,,,67,127
13115,note_off,207,0,0,,7,,,67,127
13115,note_off,0,0,0,,4,,,64,127
13115,note_off,0,0,0,,2,,,74,127
13117,note_on,2,0,0,,0,,,72,127
13117,note_on,0,0,0,,4,,,64,127
13117,note_on,0,0,0,,7,,,67,127
13324,note_off,207,0,0,,7,,,67,127
13324,note_off,0,0,0,,4,,,64,127
13324,note_off,0,0,0,,0,,,72,127
13326,note_on,2,0,0,,12,,,71,127
13326,note_on,0,0,0,,4,,,64,127
13326,note_on,0,0,0,,7,,,67,127
13533,note_off,207,0,0,,7,,,67,127
13533,note_off,0,0,0,,4,,,64,127
13533,note_off,0,0,0,,12,,,71,127
13535,note_on,2,0,0,,10,,,69,127
13535,note_on,0,0,0,,4,,,64,127
13742,note_off,207,0,0,,4,,,64,127
13742,note_off,0,0,0,,10,,,69,127
13744,note_on,2,0,0,,7,,,67,127
13744,note_on,0,0,0,,4,,,64,127
13951,note_off,207,0,0,,4,,,64,127
13951,note_off,0,0,0,,7,,,67,127
13953,note_on,2,0,0,,10,,,81,127
13953,note_on,0,0,0,,12,,,83,127
13953,note_on,0,0,0,,10,,,69,127
13953,note_on,0,0,0,,12,,,71,127
13953,note_on,0,0,0,,3,,,63,127
13953,note_on,0,0,0,,6,,,66,127
14056,note_off,103,0,0,,12,,,83,127
14056,note_off,0,0,0,,10,,,81,127
14058,note_on,2,0,0,,7,,,79,127
14161,note_off,103,0,0,,7,,,79,127
14161,note_off,0,0,0,,6,,,66,127
14161,note_off,0,0,0,,3,,,63,127
14161,note_off,0,0,0,,12,,,71,127
14161,note_off,0,0,0,,10,,,69,127
14163,note_on,2,0,0,,6,,,78,127
14163,note_on,0,0,0,,12,,,71,127
14163,note_on,0,0,0,,10,,,69,127
14163,note_on,0,0,0,,3,,,63,127
14163,note_on,0,0,0,,6,,,66,127
14370,note_off,207,0,0,,6,,,66,127
14370,note_off,0,0,0,,3,,,63,127
14370,note_off,0,0,0,,10,,,69,127
14370,note_off,0,0,0,,12,,,71,127
14372,note_on,2,0,0,,12,,,71,127
14372,note_on,0,0,0,,3,,,63,127
14372,note_on,0,0,0,,6,,,66,127
14372,note_on,0,0,0,,10,,,69,127
14579,note_off,207,0,0,,10,,,69,127
14579,note_off,0,0,0,,6,,,66,127
14579,note_off,0,0,0,,3,,,63,127
14579,note_off,0,0,0,,12,,,71,127
14579,note_off,0,0,0,,6,,,78,127
14581,note_on,2,0,0,,4,,,76,127
14581,note_on,0,0,0,,6,,,66,127
14581,note_on,0,0,0,,10,,,69,127
14581,note_on,0,0,0,,12,,,71,127
14581,note_on,0,0,0,,3,,,63,127
14788,note_off,207,0,0,,3,,,63,127
14788,note_off,0,0,0,,12,,,71,127
14788,note_off,0,0,0,,10,,,69,127
14788,note_off,0,0,0,,6,,,66,127
14788,note_off,0,0,0,,4,,,76,127
14790,note_on,2,0,0,,3,,,75,127
14790,note_on,0,0,0,,10,,,69,127
14790,note_on,0,0,0,,12,,,71,127
14790,note_on,0,0,0,,3,,,63,127
14790,note_on,0,0,0,,6,,,66,127
14997,note_off,207,0,0,,6,,,66,127
14997,note_off,0,0,0,,3,,,63,127
14997,note_off,0,0,0,,12,,,71,127
14997,note_off,0,0,0,,10,,,69,127
14997,note_off,0,0,0,,3,,,75,127
14999,note_on,2,0,0,,0,,,72,127
14999,note_on,0,0,0,,3,,,63,127
14999,note_on,0,0,0,,6,,,66,127
15206,note_off,207,0,0,,6,,,66,127
15206,note_off,0,0,0,,3,,,63,127
15206,note_off,0,0,0,,0,,,72,127
15208,note_on,2,0,0,,12,,,71,127
15208,note_on,0,0,0,,3,,,63,127
15208,note_on,0,0,0,,6,,,66,127
15415,note_off,207,0,0,,6,,,66,127
15415,note_off,0,0,0,,3,,,63,127
15415,note_off,0,0,0,,12,,,71,127
15417,note_on,2,0,0,,10,,,69,127
15417,note_on,0,0,0,,3,,,63,127
15417,note_on,0,0,0,,6,,,66,127
15624,note_off,207,0,0,,6,,,66,127
15624,note_off,0,0,0,,3,,,63,127
15624,note_off,0,0,0,,10,,,69,127
15626,note_on,2,0,0,,12,,,83,127
15626,note_on,0,0,0,,8,,,68,127
15626,note_on,0,0,0,,12,,,71,127
15626,note_on,0,0,0,,2,,,62,127
15729,note_off,103,0,0,,12,,,83,127
15731,note_on,2,0,0,,10,,,81,127
15834,note_off,103,0,0,,10,,,81,127
15834,note_off,0,0,0,,2,,,62,127
15834,note_off,0,0,0,,12,,,71,127
15834,note_off,0,0,0,,8,,,68,127
15836,note_on,2,0,0,,8,,,80,127
15836,note_on,0,0,0,,2,,,62,127
15836,note_on,0,0,0,,8,,,68,127
15836,note_on,0,0,0,,12,,,71,127
16043,note_off,207,0,0,,12,,,71,127
16043,note_off,0,0,0,,8,,,68,127
16043,note_off,0,0,0,,2,,,62,127
16045,note_on,2,0,0,,2,,,62,127
16045,note_on,0,0,0,,12,,,71,127
16045,note_on,0,0,0,,8,,,68,127
16252,note_off,207,0,0,,8,,,68,127
16252,note_off,0,0,0,,12,,,71,127
16252,note_off,0,0,0,,2,,,62,127
16252,note_off,0,0,0,,8,,,80,127
16254,note_on,2,0,0,,5,,,77,127
16254,note_on,0,0,0,,2,,,62,127
16254,note_on,0,0,0,,12,,,71,127
16254,note_on,0,0,0,,8,,,68,127
16461,note_off,207,0,0,,8,,,68,127
16461,note_off,0,0,0,,12,,,71,127
16461,note_off,0,0,0,,2,,,62,127
16461,note_off,0,0,0,,5,,,77,127
16463,note_on,2,0,0,,4,,,76,127
16463,note_on,0,0,0,,12,,,71,127
16463,note_on,0,0,0,,8,,,68,127
16463,note_on,0,0,0,,2,,,62,127
16670,note_off,207,0,0,,2,,,62,127
16670,note_off,0,0,0,,8,,,68,127
16670,note_off,0,0,0,,12,,,71,127
16670,note_off,0,0,0,,4,,,76,127
16672,note_on,2,0,0,,2,,,74,127
16672,note_on,0,0,0,,8,,,68,127
16672,note_on,0,0,0,,2,,,62,127
16879,note_off,207,0,0,,2,,,62,127
16879,note_off,0,0,0,,8,,,68,127
16879,note_off,0,0,0,,2,,,74,127
16881,note_on,2,0,0,,0,,,72,127
16881,note_on,0,0,0,,2,,,62,127
16881,note_on,0,0,0,,8,,,68,127
17088,note_off,207,0,0,,8,,,68,127
17088,note_off,0,0,0,,2,,,62,127
17088,note_off,0,0,0,,0,,,72,127
17090,note_on,2,0,0,,12,,,71,127
17090,note_on,0,0,0,,2,,,62,127
17090,note_on,0,0,0,,8,,,68,127
17297,note_off,207,0,0,,8,,,68,127
17297,note_off,0,0,0,,2,,,62,127
17297,note_off,0,0,0,,12,,,71,127
17299,note_on,2,0,0,,0,,,84,127
17299,note_on,0,0,0,,10,,,69,127
17299,note_on,0,0,0,,0,,,60,127
17299,note_on,0,0,0,,4,,,64,127
17402,note_off,103,0,0,,0,,,84,127
17404,note_on,2,0,0,,12,,,83,127
17507,note_off,103,0,0,,12,,,83,127
17507,note_off,0,0,0,,4,,,64,127
17507,note_off,0,0,0,,0,,,60,127
17507,note_off,0,0,0,,10,,,69,127
17509,note_on,2,0,0,,10,,,81,127
17509,note_on,0,0,0,,10,,,69,127
17509,note_on,0,0,0,,0,,,60,127
17509,note_on,0,0,0,,4,,,64,127
17716,note_off,207,0,0,,4,,,64,127
17716,note_off,0,0,0,,0,,,60,127
17716,note_off,0,0,0,,10,,,69,127
17718,note_on,2,0,0,,0,,,60,127
17718,note_on,0,0,0,,4,,,64,127
17718,note_on,0,0,0,,10,,,69,127
17925,note_off,207,0,0,,10,,,69,127
17925,note_off,0,0,0,,4,,,64,127
17925,note_off,0,0,0,,0,,,60,127
17925,note_off,0,0,0,,10,,,81,127
17927,note_on,2,0,0,,7,,,79,127
17927,note_on,0,0,0,,0,,,60,127
17927,note_on,0,0,0,,4,,,64,127
17927,note_on,0,0,0,,10,,,69,127
18134,note_off,207,0,0,,10,,,69,127
18134,note_off,0,0,0,,4,,,64,127
18134,note_off,0,0,0,,0,,,60,127
18134,note_off,0,0,0,,7,,,79,127
18136,note_on,2,0,0,,5,,,77,127
18136,note_on,0,0,0,,4,,,64,127
18136,note_on,0,0,0,,10,,,69,127
18136,note_on,0,0,0,,0,,,60,127
18343,note_off,207,0,0,,0,,,60,127
18343,note_off,0,0,0,,10,,,69,127
18343,note_off,0,0,0,,4,,,64,127
18343,note_off,0,0,0,,5,,,77,127
18345,note_on,2,0,0,,4,,,76,127
18345,note_on,0,0,0,,0,,,60,127
18345,note_on,0,0,0,,4,,,64,127
18345,note_on,0,0,0,,10,,,69,127
18552,note_off,207,0,0,,10,,,69,127
18552,note_off,0,0,0,,4,,,64,127
18552,note_off,0,0,0,,0,,,60,127
18552,note_off,0,0,0,,4,,,76,127
18554,note_on,2,0,0,,2,,,74,127
18554,note_on,0,0,0,,0,,,60,127
18554,note_on,0,0,0,,4,,,64,127
18554,note_on,0,0,0,,10,,,69,127
18761,note_off,207,0,0,,10,,,69,127
18761,note_off,0,0,0,,4,,,64,127
18761,note_off,0,0,0,,0,,,60,127
18761,note_off,0,0,0,,2,,,74,127
18763,note_on,2,0,0,,0,,,72,127
18763,note_on,0,0,0,,0,,,60,127
18763,note_on,0,0,0,,10,,,69,127
18763,note_on,0,0,0,,4,,,64,127
18970,note_off,207,0,0,,4,,,64,127
18970,note_off,0,0,0,,10,,,69,127
18970,note_off,0,0,0,,0,,,60,127
18970,note_off,0,0,0,,0,,,72,127
18972,note_on,2,0,0,,2,,,86,127
18972,note_on,0,0,0,,5,,,65,127
18972,note_on,0,0,0,,7,,,67,127
18972,note_on,0,0,0,,0,,,60,127
19075,note_off,103,0,0,,2,,,86,127
19077,note_on,2,0,0,,0,,,84,127
19180,note_off,103,0,0,,0,,,84,127
19180,note_off,0,0,0,,0,,,60,127
19180,note_off,0,0,0,,7,,,67,127
19180,note_off,0,0,0,,5,,,65,127
19182,note_on,2,0,0,,12,,,83,127
19182,note_on,0,0,0,,7,,,67,127
19182,note_on,0,0,0,,0,,,60,127
19182,note_on,0,0,0,,5,,,65,127
19389,note_off,207,0,0,,5,,,65,127
19389,note_off,0,0,0,,0,,,60,127
19389,note_off,0,0,0,,7,,,67,127
19391,note_on,2,0,0,,5,,,65,127
19391,note_on,0,0,0,,7,,,67,127
19391,note_on,0,0,0,,0,,,60,127
19598,note_off,207,0,0,,0,,,60,127
19598,note_off,0,0,0,,7,,,67,127
19598,note_off,0,0,0,,5,,,65,127
19598,note_off,0,0,0,,12,,,83,127
19600,note_on,2,0,0,,10,,,81,127
19600,note_on,0,0,0,,5,,,65,127
19600,note_on,0,0,0,,7,,,67,127
19600,note_on,0,0,0,,0,,,60,127
19807,note_off,207,0,0,,0,,,60,127
19807,note_off,0,0,0,,7,,,67,127
19807,note_off,0,0,0,,5,,,65,127
19807,note_off,0,0,0,,10,,,81,127
19809,note_on,2,0,0,,7,,,79,127
19809,note_on,0,0,0,,7,,,67,127
19809,note_on,0,0,0,,12,,,59,127
19809,note_on,0,0,0,,5,,,65,127
20016,note_off,207,0,0,,5,,,65,127
20016,note_off,0,0,0,,12,,,59,127
20016,note_off,0,0,0,,7,,,67,127
20016,note_off,0,0,0,,7,,,79,127
20018,note_on,2,0,0,,5,,,77,127
20018,note_on,0,0,0,,7,,,67,127
20018,note_on,0,0,0,,12,,,59,127
20018,note_on,0,0,0,,5,,,65,127
20225,note_off,207,0,0,,5,,,65,127
20225,note_off,0,0,0,,12,,,59,127
20225,note_off,0,0,0,,7,,,67,127
20225,note_off,0,0,0,,5,,,77,127
20227,note_on,2,0,0,,4,,,76,127
20227,note_on,0,0,0,,7,,,67,127
20227,note_on,0,0,0,,5,,,65,127
20227,note_on,0,0,0,,12,,,59,127
20434,note_off,207,0,0,,12,,,59,127
20434,note_off,0,0,0,,5,,,65,127
20434,note_off,0,0,0,,7,,,67,127
20434,note_off,0,0,0,,4,,,76,127
20436,note_on,2,0,0,,2,,,74,127
20436,note_on,0,0,0,,7,,,67,127
20436,note_on,0,0,0,,12,,,59,127
20436,note_on,0,0,0,,5,,,65,127
20643,note_off,207,0,0,,5,,,65,127
20643,note_off,0,0,0,,12,,,59,127
20643,note_off,0,0,0,,7,,,67,127
20643,note_off,0,0,0,,2,,,74,127
20645,note_on,2,0,0,,4,,,76,127
20645,note_on,0,0,0,,10,,,57,127
20645,note_on,0,0,0,,0,,,60,127
20645,note_on,0,0,0,,4,,,64,127
20852,note_off,207,0,0,,4,,,64,127
20852,note_off,0,0,0,,0,,,60,127
20852,note_off,0,0,0,,10,,,57,127
20854,note_on,2,0,0,,0,,,84,127
20854,note_on,0,0,0,,4,,,64,127
20854,note_on,0,0,0,,10,,,57,127
20854,note_on,0,0,0,,0,,,60,127
21059,note_off,205,0,0,,4,,,76,127
21061,note_off,2,0,0,,0,,,60,127
21061,note_off,0,0,0,,10,,,57,127
21061,note_off,0,0,0,,4,,,64,127
21063,note_on,2,0,0,,4,,,76,127
21063,note_on,0,0,0,,12,,,59,127
21063,note_on,0,0,0,,7,,,55,127
21063,note_on,0,0,0,,4,,,64,127
21268,note_off,205,0,0,,0,,,84,127
21270,note_off,2,0,0,,4,,,64,127
21270,note_off,0,0,0,,7,,,55,127
21270,note_off,0,0,0,,12,,,59,127
21272,note_on,2,0,0,,12,,,83,127
21272,note_on,0,0,0,,12,,,59,127
21272,note_on,0,0,0,,7,,,55,127
21272,note_on,0,0,0,,4,,,64,127
21477,note_off,205,0,0,,4,,,76,127
21479,note_off,2,0,0,,4,,,64,127
21479,note_off,0,0,0,,7,,,55,127
21479,note_off,0,0,0,,12,,,59,127
21481,note_on,2,0,0,,4,,,76,127
21481,note_on,0,0,0,,10,,,57,127
21481,note_on,0,0,0,,4,,,64,127
21481,note_on,0,0,0,,5,,,53,127
21686,note_off,205,0,0,,12,,,83,127
21688,note_off,2,0,0,,5,,,53,127
21688,note_off,0,0,0,,4,,,64,127
21688,note_off,0,0,0,,10,,,57,127
21690,note_on,2,0,0,,10,,,81,127
21690,note_on,0,0,0,,4,,,64,127
21690,note_on,0,0,0,,5,,,53,127
21690,note_on,0,0,0,,10,,,57,127
21895,note_off,205,0,0,,4,,,76,127
21897,note_off,2,0,0,,10,,,57,127
21897,note_off,0,0,0,,5,,,53,127
21897,note_off,0,0,0,,4,,,64,127
21899,note_on,2,0,0,,4,,,76,127
21899,note_on,0,0,0,,4,,,64,127
21899,note_on,0,0,0,,4,,,52,127
21899,note_on,0,0,0,,12,,,59,127
22104,note_off,205,0,0,,10,,,81,127
22106,note_off,2,0,0,,12,,,59,127
22106,note_off,0,0,0,,4,,,52,127
22106,note_off,0,0,0,,4,,,64,127
22108,note_on,2,0,0,,8,,,80,127
22108,note_on,0,0,0,,4,,,64,127
22108,note_on,0,0,0,,4,,,52,127
22108,note_on,0,0,0,,12,,,59,127
22313,note_off,205,0,0,,4,,,76,127
22315,note_off,2,0,0,,12,,,59,127
22315,note_off,0,0,0,,4,,,52,127
22315,note_off,0,0,0,,4,,,64,127
22315,note_off,0,0,0,,8,,,80,127
22317,note_on,2,0,0,,10,,,81,127
22317,note_on,0,0,0,,4,,,64,127
22317,note_on,0,0,0,,5,,,53,127
22524,note_off,207,0,0,,5,,,53,127
22524,note_off,0,0,0,,4,,,64,127
22524,note_off,0,0,0,,10,,,81,127
22526,note_on,2,0,0,,4,,,76,127
22526,note_on,0,0,0,,4,,,64,127
22526,note_on,0,0,0,,5,,,53,127
22733,note_off,207,0,0,,5,,,53,127
22733,note_off,0,0,0,,4,,,64,127
22733,note_off,0,0,0,,4,,,76,127
22735,note_on,2,0,0,,5,,,77,127
22735,note_on,0,0,0,,4,,,64,127
22735,note_on,0,0,0,,5,,,53,127
22942,note_off,207,0,0,,5,,,53,127
22942,note_off,0,0,0,,4,,,64,127
22942,note_off,0,0,0,,5,,,77,127
22944,note_on,2,0,0,,0,,,72,127
22944,note_on,0,0,0,,4,,,64,127
22944,note_on,0,0,0,,5,,,53,127
23151,note_off,207,0,0,,5,,,53,127
23151,note_off,0,0,0,,4,,,64,127
23151,note_off,0,0,0,,0,,,72,127
23153,note_on,2,0,0,,2,,,74,127
23153,note_on,0,0,0,,5,,,53,127
23153,note_on,0,0,0,,2,,,62,127
23360,note_off,207,0,0,,2,,,62,127
23360,note_off,0,0,0,,5,,,53,127
23362,note_on,2,0,0,,5,,,53,127
23362,note_on,0,0,0,,2,,,62,127
23569,note_off,207,0,0,,2,,,62,127
23569,note_off,0,0,0,,5,,,53,127
23571,note_on,2,0,0,,5,,,53,127
23571,note_on,0,0,0,,2,,,62,127
23778,note_off,207,0,0,,2,,,62,127
23778,note_off,0,0,0,,5,,,53,127
23778,note_off,0,0,0,,2,,,74,127
23780,note_on,2,0,0,,0,,,72,127
23780,note_on,0,0,0,,5,,,53,127
23780,note_on,0,0,0,,2,,,62,127
23883,note_off,103,0,0,,0,,,72,127
23885,note_on,2,0,0,,2,,,74,127
23988,note_off,103,0,0,,2,,,74,127
23988,note_off,0,0,0,,2,,,62,127
23988,note_off,0,0,0,,5,,,53,127
23990,note_on,2,0,0,,4,,,76,127
23990,note_on,0,0,0,,4,,,64,127
23990,note_on,0,0,0,,4,,,52,127
24197,note_off,207,0,0,,4,,,76,127
24199,note_on,2,0,0,,8,,,80,127
24302,note_off,103,0,0,,8,,,80,127
24304,note_on,2,0,0,,10,,,81,127
24407,note_off,103,0,0,,10,,,81,127
24409,note_on,2,0,0,,12,,,83,127
24512,note_off,103,0,0,,12,,,83,127
24514,note_on,2,0,0,,8,,,80,127
24617,note_off,103,0,0,,8,,,80,127
24619,note_on,2,0,0,,10,,,81,127
24722,note_off,103,0,0,,10,,,81,127
24724,note_on,2,0,0,,6,,,78,127
24827,note_off,103,0,0,,6,,,78,127
24829,note_on,2,0,0,,8,,,80,127
24932,note_off,103,0,0,,8,,,80,127
24934,note_on,2,0,0,,4,,,76,127
25037,note_off,103,0,0,,4,,,76,127
25039,note_on,2,0,0,,6,,,78,127
25142,note_off,103,0,0,,6,,,78,127
25144,note_on,2,0,0,,3,,,75,127
25247,note_off,103,0,0,,3,,,75,127
25249,note_on,2,0,0,,4,,,76,127
25352,note_off,103,0,0,,4,,,76,127
25354,note_on,2,0,0,,12,,,71,127
25457,note_off,103,0,0,,12,,,71,127
25459,note_on,2,0,0,,8,,,68,127
25562,note_off,103,0,0,,8,,,68,127
25564,note_on,2,0,0,,12,,,71,127
25662,note_off,98,0,0,,4,,,64,127
25666,note_off,4,0,0,,12,,,71,127
25668,note_on,2,0,0,,4,,,64,127
26504,note_off,836,0,0,,4,,,52,127
26505,note_off,1,0,0,,4,,,64,127
26925,note_on,420,0,0,,4,,,40,127
26925,note_on,0,0,0,,4,,,52,127
27134,note_on,209,0,0,,2,,,74,127
27237,note_off,103,0,0,,2,,,74,127
27239,note_on,2,0,0,,1,,,73,127
27342,note_off,103,0,0,,1,,,73,127
27344,note_on,2,0,0,,12,,,71,127
27447,note_off,103,0,0,,12,,,71,127
27449,note_on,2,0,0,,4,,,64,127
27552,note_off,103,0,0,,4,,,64,127
27552,note_off,0,0,0,,4,,,52,127
27552,note_off,0,0,0,,4,,,40,127
27554,note_on,2,0,0,,8,,,56,127
27554,note_on,0,0,0,,4,,,76,127
27657,note_off,103,0,0,,4,,,76,127
27659,note_on,2,0,0,,2,,,74,127
27762,note_off,103,0,0,,2,,,74,127
27762,note_off,0,0,0,,8,,,56,127
27764,note_on,2,0,0,,10,,,57,127
27764,note_on,0,0,0,,1,,,73,127
27867,note_off,103,0,0,,1,,,73,127
27869,note_on,2,0,0,,4,,,64,127
27972,note_off,103,0,0,,4,,,64,127
27974,note_on,2,0,0,,2,,,50,127
27974,note_on,0,0,0,,2,,,74,127
28077,note_off,103,0,0,,2,,,74,127
28079,note_on,2,0,0,,1,,,73,127
28182,note_off,103,0,0,,1,,,73,127
28182,note_off,0,0,0,,2,,,50,127
28184,note_on,2,0,0,,4,,,52,127
28184,note_on,0,0,0,,12,,,71,127
28287,note_off,103,0,0,,12,,,71,127
28289,note_on,2,0,0,,4,,,64,127
28392,note_off,103,0,0,,4,,,64,127
28393,note_off,1,0,0,,10,,,57,127
28394,note_on,1,0,0,,8,,,56,127
28394,note_on,0,0,0,,4,,,76,127
28497,note_off,103,0,0,,4,,,76,127
28499,note_on,2,0,0,,2,,,74,127
28599,note_off,100,0,0,,4,,,52,127
28601,note_off,2,0,0,,2,,,74,127
28601,note_off,0,0,0,,8,,,56,127
28603,note_on,2,0,0,,10,,,57,127
28603,note_on,0,0,0,,1,,,73,127
28706,note_off,103,0,0,,1,,,73,127
28708,note_on,2,0,0,,10,,,69,127
28811,note_off,103,0,0,,10,,,69,127
28811,note_off,0,0,0,,10,,,57,127
28813,note_on,2,0,0,,2,,,62,127
28813,note_on,0,0,0,,12,,,71,127
28916,note_off,103,0,0,,2,,,62,127
28918,note_on,2,0,0,,1,,,61,127
29021,note_off,103,0,0,,1,,,61,127
29023,note_on,2,0,0,,12,,,59,127
29126,note_off,103,0,0,,12,,,59,127
29128,note_on,2,0,0,,4,,,52,127
29231,note_off,103,0,0,,4,,,52,127
29231,note_off,0,0,0,,12,,,71,127
29233,note_on,2,0,0,,4,,,64,127
29233,note_on,0,0,0,,8,,,68,127
29336,note_off,103,0,0,,4,,,64,127
29338,note_on,2,0,0,,2,,,62,127
29441,note_off,103,0,0,,2,,,62,127
29441,note_off,0,0,0,,8,,,68,127
29443,note_on,2,0,0,,1,,,61,127
29443,note_on,0,0,0,,10,,,69,127
29546,note_off,103,0,0,,1,,,61,127
29548,note_on,2,0,0,,4,,,52,127
29651,note_off,103,0,0,,4,,,52,127
29651,note_off,0,0,0,,10,,,69,127
29653,note_on,2,0,0,,2,,,62,127
29653,note_on,0,0,0,,12,,,71,127
29756,note_off,103,0,0,,2,,,62,127
29758,note_on,2,0,0,,1,,,61,127
29861,note_off,103,0,0,,1,,,61,127
29863,note_on,2,0,0,,12,,,59,127
29966,note_off,103,0,0,,12,,,59,127
29968,note_on,2,0,0,,4,,,52,127
30071,note_off,103,0,0,,4,,,52,127
30071,note_off,0,0,0,,12,,,71,127
30073,note_on,2,0,0,,4,,,64,127
30073,note_on,0,0,0,,8,,,68,127
30176,note_off,103,0,0,,4,,,64,127
30178,note_on,2,0,0,,2,,,62,127
30281,note_off,103,0,0,,2,,,62,127
30281,note_off,0,0,0,,8,,,68,127
30283,note_on,2,0,0,,1,,,61,127
30283,note_on,0,0,0,,10,,,69,127
30386,note_off,103,0,0,,1,,,61,127
30388,note_on,2,0,0,,2,,,62,127
30491,note_off,103,0,0,,2,,,62,127
30491,note_off,0,0,0,,10,,,69,127
30493,note_on,2,0,0,,1,,,61,127
30493,note_on,0,0,0,,4,,,76,127
30596,note_off,103,0,0,,1,,,61,127
30598,note_on,2,0,0,,12,,,59,127
30701,note_off,103,0,0,,12,,,59,127
30703,note_on,2,0,0,,10,,,57,127
30806,note_off,103,0,0,,10,,,57,127
30808,note_on,2,0,0,,12,,,59,127
30911,note_off,103,0,0,,12,,,59,127
30911,note_off,0,0,0,,4,,,76,127
30913,note_on,2,0,0,,10,,,57,127
30913,note_on,0,0,0,,1,,,73,127
31016,note_off,103,0,0,,10,,,57,127
31018,note_on,2,0,0,,8,,,56,127
31121,note_off,103,0,0,,8,,,56,127
31121,note_off,0,0,0,,1,,,73,127
31123,note_on,2,0,0,,6,,,54,127
31123,note_on,0,0,0,,10,,,69,127
31226,note_off,103,0,0,,6,,,54,127
31228,note_on,2,0,0,,8,,,56,127
31331,note_off,103,0,0,,8,,,56,127
31331,note_off,0,0,0,,10,,,69,127
31333,note_on,2,0,0,,6,,,54,127
31333,note_on,0,0,0,,10,,,81,127
31436,note_off,103,0,0,,6,,,54,127
31438,note_on,2,0,0,,4,,,52,127
31541,note_off,103,0,0,,4,,,52,127
31543,note_on,2,0,0,,2,,,50,127
31646,note_off,103,0,0,,2,,,50,127
31648,note_on,2,0,0,,4,,,52,127
31751,note_off,103,0,0,,4,,,52,127
31751,note_off,0,0,0,,10,,,81,127
31753,note_on,2,0,0,,2,,,50,127
31753,note_on,0,0,0,,6,,,78,127
31856,note_off,103,0,0,,2,,,50,127
31858,note_on,2,0,0,,1,,,49,127
31961,note_off,103,0,0,,1,,,49,127
31961,note_off,0,0,0,,6,,,78,127
31963,note_on,2,0,0,,12,,,47,127
31963,note_on,0,0,0,,2,,,74,127
32066,note_off,103,0,0,,12,,,47,127
32068,note_on,2,0,0,,1,,,49,127
32171,note_off,103,0,0,,1,,,49,127
32171,note_off,0,0,0,,2,,,74,127
32173,note_on,2,0,0,,12,,,47,127
32173,note_on,0,0,0,,2,,,86,127
32276,note_off,103,0,0,,12,,,47,127
32278,note_on,2,0,0,,10,,,45,127
32381,note_off,103,0,0,,10,,,45,127
32383,note_on,2,0,0,,8,,,44,127
32486,note_off,103,0,0,,8,,,44,127
32488,note_on,2,0,0,,10,,,45,127
32591,note_off,103,0,0,,10,,,45,127
32591,note_off,0,0,0,,2,,,86,127
32593,note_on,2,0,0,,8,,,44,127
32593,note_on,0,0,0,,12,,,83,127
32696,note_off,103,0,0,,8,,,44,127
32698,note_on,2,0,0,,6,,,42,127
32801,note_off,103,0,0,,6,,,42,127
32803,note_on,2,0,0,,4,,,40,127
32906,note_off,103,0,0,,12,,,83,127
32908,note_on,2,0,0,,10,,,81,127
33011,note_off,103,0,0,,10,,,81,127
33013,note_on,2,0,0,,8,,,80,127
33116,note_off,103,0,0,,8,,,80,127
33118,note_on,2,0,0,,6,,,78,127
33221,note_off,103,0,0,,6,,,78,127
33223,note_on,2,0,0,,4,,,76,127
33326,note_off,103,0,0,,4,,,76,127
33328,note_off,2,0,0,,4,,,40,127
33328,note_on,0,0,0,,2,,,74,127
33431,note_off,103,0,0,,2,,,74,127
33433,note_on,2,0,0,,8,,,56,127
33433,note_on,0,0,0,,1,,,73,127
33536,note_off,103,0,0,,1,,,73,127
33538,note_on,2,0,0,,12,,,71,127
33641,note_off,103,0,0,,12,,,71,127
33641,note_off,0,0,0,,8,,,56,127
33643,note_on,2,0,0,,10,,,57,127
33643,note_on,0,0,0,,1,,,73,127
33746,note_off,103,0,0,,1,,,73,127
33748,note_on,2,0,0,,10,,,81,127
33851,note_off,103,0,0,,10,,,81,127
33851,note_off,0,0,0,,10,,,57,127
33853,note_on,2,0,0,,2,,,50,127
33853,note_on,0,0,0,,6,,,78,127
33956,note_off,103,0,0,,6,,,78,127
33958,note_on,2,0,0,,2,,,74,127
34061,note_off,103,0,0,,2,,,74,127
34061,note_off,0,0,0,,2,,,50,127
34063,note_on,2,0,0,,4,,,52,127
34063,note_on,0,0,0,,1,,,73,127
34166,note_off,103,0,0,,1,,,73,127
34168,note_on,2,0,0,,12,,,71,127
34271,note_off,103,0,0,,12,,,71,127
34273,note_on,2,0,0,,4,,,40,127
34273,note_on,0,0,0,,10,,,69,127
34376,note_off,103,0,0,,10,,,69,127
34378,note_on,2,0,0,,8,,,68,127
34478,note_off,100,0,0,,4,,,52,127
34480,note_off,2,0,0,,8,,,68,127
34480,note_off,0,0,0,,4,,,40,127
34482,note_on,2,0,0,,10,,,45,127
34482,note_on,0,0,0,,10,,,69,127
34585,note_off,103,0,0,,10,,,69,127
34587,note_on,2,0,0,,1,,,73,127
34690,note_off,103,0,0,,1,,,73,127
34690,note_off,0,0,0,,10,,,45,127
34692,note_on,2,0,0,,2,,,62,127
34692,note_on,0,0,0,,12,,,71,127
34795,note_off,103,0,0,,2,,,62,127
34797,note_on,2,0,0,,1,,,61,127
34900,note_off,103,0,0,,1,,,61,127
34902,note_on,2,0,0,,12,,,59,127
35005,note_off,103,0,0,,12,,,59,127
35007,note_on,2,0,0,,4,,,52,127
35110,note_off,103,0,0,,4,,,52,127
35110,note_off,0,0,0,,12,,,71,127
35112,note_on,2,0,0,,4,,,64,127
35112,note_on,0,0,0,,8,,,68,127
35215,note_off,103,0,0,,4,,,64,127
35217,note_on,2,0,0,,2,,,62,127
35320,note_off,103,0,0,,2,,,62,127
35320,note_off,0,0,0,,8,,,68,127
35322,note_on,2,0,0,,1,,,61,127
35322,note_on,0,0,0,,10,,,69,127
35425,note_off,103,0,0,,1,,,61,127
35427,note_on,2,0,0,,4,,,52,127
35530,note_off,103,0,0,,4,,,52,127
35530,note_off,0,0,0,,10,,,69,127
35532,note_on,2,0,0,,2,,,62,127
35532,note_on,0,0,0,,12,,,71,127
35635,note_off,103,0,0,,2,,,62,127
35637,note_on,2,0,0,,1,,,61,127
35740,note_off,103,0,0,,1,,,61,127
35742,note_on,2,0,0,,12,,,59,127
35845,note_off,103,0,0,,12,,,59,127
35847,note_on,2,0,0,,4,,,52,127
35950,note_off,103,0,0,,4,,,52,127
35950,note_off,0,0,0,,12,,,71,127
35952,note_on,2,0,0,,4,,,64,127
35952,note_on,0,0,0,,8,,,68,127
36055,note_off,103,0,0,,4,,,64,127
36057,note_on,2,0,0,,2,,,62,127
36160,note_off,103,0,0,,2,,,62,127
36160,note_off,0,0,0,,8,,,68,127
36162,note_on,2,0,0,,1,,,61,127
36162,note_on,0,0,0,,10,,,69,127
36265,note_off,103,0,0,,1,,,61,127
36267,note_on,2,0,0,,2,,,62,127
36370,note_off,103,0,0,,2,,,62,127
36370,note_off,0,0,0,,10,,,69,127
36372,note_on,2,0,0,,1,,,61,127
36372,note_on,0,0,0,,4,,,76,127
36475,note_off,103,0,0,,1,,,61,127
36477,note_on,2,0,0,,12,,,59,127
36580,note_off,103,0,0,,12,,,59,127
36582,note_on,2,0,0,,10,,,57,127
36685,note_off,103,0,0,,10,,,57,127
36687,note_on,2,0,0,,12,,,59,127
36790,note_off,103,0,0,,12,,,59,127
36790,note_off,0,0,0,,4,,,76,127
36792,note_on,2,0,0,,10,,,57,127
36792,note_on,0,0,0,,1,,,73,127
36895,note_off,103,0,0,,10,,,57,127
36897,note_on,2,0,0,,8,,,56,127
37000,note_off,103,0,0,,8,,,56,127
37000,note_off,0,0,0,,1,,,73,127
37002,note_on,2,0,0,,6,,,54,127
37002,note_on,0,0,0,,10,,,69,127
37105,note_off,103,0,0,,6,,,54,127
37107,note_on,2,0,0,,8,,,56,127
37210,note_off,103,0,0,,8,,,56,127
37210,note_off,0,0,0,,10,,,69,127
37212,note_on,2,0,0,,6,,,54,127
37212,note_on,0,0,0,,10,,,81,127
37315,note_off,103,0,0,,6,,,54,127
37317,note_on,2,0,0,,4,,,52,127
37420,note_off,103,0,0,,4,,,52,127
37422,note_on,2,0,0,,2,,,50,127
37525,note_off,103,0,0,,2,,,50,127
37527,note_on,2,0,0,,4,,,52,127
37630,note_off,103,0,0,,4,,,52,127
37630,note_off,0,0,0,,10,,,81,127
37632,note_on,2,0,0,,2,,,50,127
37632,note_on,0,0,0,,6,,,78,127
37735,note_off,103,0,0,,2,,,50,127
37737,note_on,2,0,0,,1,,,49,127
37840,note_off,103,0,0,,1,,,49,127
37840,note_off,0,0,0,,6,,,78,127
37842,note_on,2,0,0,,12,,,47,127
37842,note_on,0,0,0,,2,,,74,127
37945,note_off,103,0,0,,12,,,47,127
37947,note_on,2,0,0,,1,,,49,127
38050,note_off,103,0,0,,1,,,49,127
38050,note_off,0,0,0,,2,,,74,127
38052,note_on,2,0,0,,12,,,47,127
38052,note_on,0,0,0,,2,,,86,127
38155,note_off,103,0,0,,12,,,47,127
38157,note_on,2,0,0,,10,,,45,127
38260,note_off,103,0,0,,10,,,45,127
38262,note_on,2,0,0,,8,,,44,127
38365,note_off,103,0,0,,8,,,44,127
38367,note_on,2,0,0,,10,,,45,127
38470,note_off,103,0,0,,10,,,45,127
38470,note_off,0,0,0,,2,,,86,127
38472,note_on,2,0,0,,8,,,44,127
38472,note_on,0,0,0,,12,,,83,127
38575,note_off,103,0,0,,8,,,44,127
38577,note_on,2,0,0,,6,,,42,127
38680,note_off,103,0,0,,6,,,42,127
38682,note_on,2,0,0,,4,,,40,127
38785,note_off,103,0,0,,12,,,83,127
38787,note_on,2,0,0,,10,,,81,127
38890,note_off,103,0,0,,10,,,81,127
38892,note_on,2,0,0,,8,,,80,127
38995,note_off,103,0,0,,8,,,80,127
38997,note_on,2,0,0,,6,,,78,127
39100,note_off,103,0,0,,6,,,78,127
39102,note_on,2,0,0,,4,,,76,127
39205,note_off,103,0,0,,4,,,76,127
39207,note_off,2,0,0,,4,,,40,127
39207,note_on,0,0,0,,2,,,74,127
39310,note_off,103,0,0,,2,,,74,127
39312,note_on,2,0,0,,8,,,56,127
39312,note_on,0,0,0,,1,,,73,127
39415,note_off,103,0,0,,1,,,73,127
39417,note_on,2,0,0,,12,,,71,127
39520,note_off,103,0,0,,12,,,71,127
39520,note_off,0,0,0,,8,,,56,127
39522,note_on,2,0,0,,10,,,57,127
39522,note_on,0,0,0,,1,,,73,127
39625,note_off,103,0,0,,1,,,73,127
39627,note_on,2,0,0,,4,,,76,127
39730,note_off,103,0,0,,4,,,76,127
39730,note_off,0,0,0,,10,,,57,127
39732,note_on,2,0,0,,2,,,50,127
39732,note_on,0,0,0,,6,,,78,127
39835,note_off,103,0,0,,6,,,78,127
39837,note_on,2,0,0,,2,,,74,127
39940,note_off,103,0,0,,2,,,74,127
39940,note_off,0,0,0,,2,,,50,127
39942,note_on,2,0,0,,4,,,52,127
39942,note_on,0,0,0,,1,,,73,127
40045,note_off,103,0,0,,1,,,73,127
40047,note_on,2,0,0,,12,,,71,127
40150,note_off,103,0,0,,12,,,71,127
40152,note_on,2,0,0,,4,,,40,127
40152,note_on,0,0,0,,10,,,69,127
40255,note_off,103,0,0,,10,,,69,127
40257,note_on,2,0,0,,12,,,71,127
40357,note_off,100,0,0,,4,,,52,127
40359,note_off,2,0,0,,12,,,71,127
40359,note_off,0,0,0,,4,,,40,127
40361,note_on,2,0,0,,10,,,57,127
40361,note_on,0,0,0,,1,,,73,127
40464,note_off,103,0,0,,1,,,73,127
40466,note_on,2,0,0,,10,,,69,127
40569,note_off,103,0,0,,10,,,69,127
40571,note_on,2,0,0,,2,,,50,127
40571,note_on,0,0,0,,8,,,80,127
40674,note_off,103,0,0,,8,,,80,127
40676,note_on,2,0,0,,10,,,81,127
40779,note_off,103,0,0,,10,,,81,127
40779,note_off,0,0,0,,2,,,50,127
40781,note_on,2,0,0,,4,,,52,127
40781,note_on,0,0,0,,12,,,71,127
40884,note_off,103,0,0,,12,,,71,127
40886,note_on,2,0,0,,1,,,73,127
40989,note_off,103,0,0,,1,,,73,127
40990,note_off,1,0,0,,10,,,57,127
40991,note_on,1,0,0,,8,,,56,127
40991,note_on,0,0,0,,2,,,74,127
41094,note_off,103,0,0,,2,,,74,127
41096,note_on,2,0,0,,12,,,71,127
41196,note_off,100,0,0,,4,,,52,127
41198,note_off,2,0,0,,12,,,71,127
41198,note_off,0,0,0,,8,,,56,127
41200,note_on,2,0,0,,10,,,57,127
41200,note_on,0,0,0,,1,,,73,127
41303,note_off,103,0,0,,1,,,73,127
41305,note_on,2,0,0,,10,,,69,127
41408,note_off,103,0,0,,10,,,69,127
41410,note_on,2,0,0,,2,,,50,127
41410,note_on,0,0,0,,8,,,80,127
41513,note_off,103,0,0,,8,,,80,127
41515,note_on,2,0,0,,10,,,81,127
41618,note_off,103,0,0,,10,,,81,127
41618,note_off,0,0,0,,2,,,50,127
41620,note_on,2,0,0,,4,,,52,127
41620,note_on,0,0,0,,12,,,71,127
41723,note_off,103,0,0,,12,,,71,127
41725,note_on,2,0,0,,1,,,73,127
41828,note_off,103,0,0,,1,,,73,127
41829,note_off,1,0,0,,10,,,57,127
41830,note_on,1,0,0,,8,,,56,127
41830,note_on,0,0,0,,2,,,74,127
41933,note_off,103,0,0,,2,,,74,127
41935,note_on,2,0,0,,12,,,71,127
42035,note_off,100,0,0,,4,,,52,127
42037,note_off,2,0,0,,12,,,71,127
42037,note_off,0,0,0,,8,,,56,127
42039,note_on,2,0,0,,10,,,57,127
42039,note_on,0,0,0,,1,,,73,127
42142,note_off,103,0,0,,1,,,73,127
42144,note_on,2,0,0,,4,,,76,127
42247,note_off,103,0,0,,4,,,76,127
42247,note_off,0,0,0,,10,,,57,127
42249,note_on,2,0,0,,2,,,50,127
42249,note_on,0,0,0,,6,,,78,127
42352,note_off,103,0,0,,6,,,78,127
42354,note_on,2,0,0,,2,,,74,127
42457,note_off,103,0,0,,2,,,74,127
42457,note_off,0,0,0,,2,,,50,127
42459,note_on,2,0,0,,4,,,52,127
42459,note_on,0,0,0,,1,,,73,127
42562,note_off,103,0,0,,1,,,73,127
42564,note_on,2,0,0,,12,,,71,127
42667,note_off,103,0,0,,12,,,71,127
42667,note_off,0,0,0,,4,,,52,127
42669,note_on,2,0,0,,4,,,40,127
42669,note_on,0,0,0,,10,,,69,127
42772,note_off,103,0,0,,10,,,69,127
42774,note_on,2,0,0,,8,,,68,127
42877,note_off,103,0,0,,8,,,68,127
42877,note_off,0,0,0,,4,,,40,127
42879,note_on,2,0,0,,10,,,57,127
42879,note_on,0,0,0,,10,,,69,127
42982,note_off,103,0,0,,10,,,69,127
42984,note_on,2,0,0,,4,,,64,127
43087,note_off,103,0,0,,4,,,64,127
43087,note_off,0,0,0,,10,,,57,127
43089,note_on,2,0,0,,2,,,50,127
43089,note_on,0,0,0,,6,,,66,127
43192,note_off,103,0,0,,6,,,66,127
43194,note_on,2,0,0,,2,,,62,127
43297,note_off,103,0,0,,2,,,62,127
43297,note_off,0,0,0,,2,,,50,127
43299,note_on,2,0,0,,4,,,52,127
43299,note_on,0,0,0,,1,,,61,127
43402,note_off,103,0,0,,1,,,61,127
43404,note_on,2,0,0,,10,,,69,127
43507,note_off,103,0,0,,10,,,69,127
43507,note_off,0,0,0,,4,,,52,127
43509,note_on,2,0,0,,4,,,40,127
43509,note_on,0,0,0,,12,,,59,127
43612,note_off,103,0,0,,12,,,59,127
43614,note_on,2,0,0,,8,,,68,127
43717,note_off,103,0,0,,8,,,68,127
43717,note_off,0,0,0,,4,,,40,127
43719,note_on,2,0,0,,10,,,45,127
43719,note_on,0,0,0,,10,,,57,127
43719,note_on,0,0,0,,8,,,68,127
44136,note_off,417,0,0,,8,,,68,127
44138,note_on,2,0,0,,10,,,69,127
44452,note_off,314,0,0,,10,,,45,127
44555,note_off,103,0,0,,10,,,69,127
44556,note_off,1,0,0,,10,,,57,127
44557,note_on,1,0,0,,4,,,76,127
44660,note_off,103,0,0,,4,,,76,127
44662,note_on,2,0,0,,2,,,74,127
44765,note_off,103,0,0,,2,,,74,127
44767,note_on,2,0,0,,4,,,76,127
44870,note_off,103,0,0,,4,,,76,127
44872,note_on,2,0,0,,6,,,78,127
44975,note_off,103,0,0,,6,,,78,127
44977,note_on,2,0,0,,4,,,76,127
45080,note_off,103,0,0,,4,,,76,127
45082,note_on,2,0,0,,2,,,74,127
45185,note_off,103,0,0,,2,,,74,127
45187,note_on,2,0,0,,1,,,73,127
45290,note_off,103,0,0,,1,,,73,127
45292,note_on,2,0,0,,12,,,71,127
45395,note_off,103,0,0,,12,,,71,127
45397,note_on,2,0,0,,4,,,64,127
45397,note_on,0,0,0,,12,,,71,127
45500,note_off,103,0,0,,4,,,64,127
45502,note_on,2,0,0,,2,,,62,127
45605,note_off,103,0,0,,2,,,62,127
45607,note_on,2,0,0,,4,,,64,127
45710,note_off,103,0,0,,4,,,64,127
45712,note_on,2,0,0,,6,,,66,127
45815,note_off,103,0,0,,6,,,66,127
45815,note_off,0,0,0,,12,,,71,127
45817,note_on,2,0,0,,4,,,64,127
45817,note_on,0,0,0,,1,,,73,127
45920,note_off,103,0,0,,4,,,64,127
45922,note_on,2,0,0,,2,,,62,127
46025,note_off,103,0,0,,2,,,62,127
46025,note_off,0,0,0,,1,,,73,127
46027,note_on,2,0,0,,1,,,61,127
46027,note_on,0,0,0,,2,,,74,127
46130,note_off,103,0,0,,1,,,61,127
46132,note_on,2,0,0,,12,,,59,127
46235,note_off,103,0,0,,12,,,59,127
46235,note_off,0,0,0,,2,,,74,127
46237,note_on,2,0,0,,10,,,57,127
46237,note_on,0,0,0,,4,,,76,127
46340,note_off,103,0,0,,4,,,76,127
46342,note_on,2,0,0,,2,,,74,127
46445,note_off,103,0,0,,2,,,74,127
46447,note_on,2,0,0,,1,,,73,127
46550,note_off,103,0,0,,1,,,73,127
46552,note_on,2,0,0,,12,,,71,127
46655,note_off,103,0,0,,12,,,71,127
46657,note_on,2,0,0,,10,,,69,127
46760,note_off,103,0,0,,10,,,69,127
46762,note_off,2,0,0,,10,,,57,127
46762,note_on,0,0,0,,7,,,67,127
46865,note_off,103,0,0,,7,,,67,127
46867,note_on,2,0,0,,1,,,61,127
46867,note_on,0,0,0,,6,,,66,127
46970,note_off,103,0,0,,6,,,66,127
46972,note_on,2,0,0,,4,,,64,127
47075,note_off,103,0,0,,4,,,64,127
47075,note_off,0,0,0,,1,,,61,127
47077,note_on,2,0,0,,2,,,62,127
47077,note_on,0,0,0,,6,,,66,127
47180,note_off,103,0,0,,2,,,62,127
47182,note_on,2,0,0,,4,,,64,127
47285,note_off,103,0,0,,4,,,64,127
47287,note_on,2,0,0,,2,,,62,127
47390,note_off,103,0,0,,2,,,62,127
47392,note_on,2,0,0,,1,,,61,127
47495,note_off,103,0,0,,1,,,61,127
47497,note_on,2,0,0,,12,,,59,127
47600,note_off,103,0,0,,12,,,59,127
47602,note_off,2,0,0,,6,,,66,127
47602,note_on,0,0,0,,1,,,61,127
47705,note_off,103,0,0,,1,,,61,127
47707,note_on,2,0,0,,12,,,59,127
47707,note_on,0,0,0,,10,,,69,127
47810,note_off,103,0,0,,12,,,59,127
47812,note_on,2,0,0,,10,,,57,127
47915,note_off,103,0,0,,10,,,57,127
47915,note_off,0,0,0,,10,,,69,127
47917,note_on,2,0,0,,7,,,55,127
47917,note_on,0,0,0,,12,,,71,127
48020,note_off,103,0,0,,7,,,55,127
48022,note_on,2,0,0,,10,,,57,127
48125,note_off,103,0,0,,10,,,57,127
48125,note_off,0,0,0,,12,,,71,127
48127,note_on,2,0,0,,7,,,55,127
48127,note_on,0,0,0,,1,,,73,127
48230,note_off,103,0,0,,7,,,55,127
48232,note_on,2,0,0,,6,,,54,127
48335,note_off,103,0,0,,6,,,54,127
48337,note_on,2,0,0,,4,,,52,127
48357,note_off,20,0,0,,1,,,73,127
48440,note_off,83,0,0,,4,,,52,127
48442,note_on,2,0,0,,6,,,54,127
48545,note_off,103,0,0,,6,,,54,127
48547,note_on,2,0,0,,4,,,52,127
48547,note_on,0,0,0,,2,,,74,127
48650,note_off,103,0,0,,4,,,52,127
48652,note_on,2,0,0,,2,,,50,127
48755,note_off,103,0,0,,2,,,50,127
48755,note_off,0,0,0,,2,,,74,127
48757,note_on,2,0,0,,1,,,49,127
48757,note_on,0,0,0,,4,,,76,127
48860,note_off,103,0,0,,1,,,49,127
48862,note_on,2,0,0,,2,,,50,127
48965,note_off,103,0,0,,2,,,50,127
48965,note_off,0,0,0,,4,,,76,127
48967,note_on,2,0,0,,1,,,49,127
48967,note_on,0,0,0,,6,,,78,127
49070,note_off,103,0,0,,1,,,49,127
49072,note_on,2,0,0,,12,,,47,127
49175,note_off,103,0,0,,12,,,47,127
49177,note_on,2,0,0,,10,,,45,127
49197,note_off,20,0,0,,6,,,78,127
49280,note_off,83,0,0,,10,,,45,127
49282,note_on,2,0,0,,12,,,47,127
49385,note_off,103,0,0,,12,,,47,127
49387,note_on,2,0,0,,10,,,45,127
49387,note_on,0,0,0,,7,,,79,127
49490,note_off,103,0,0,,10,,,45,127
49492,note_on,2,0,0,,7,,,43,127
49595,note_off,103,0,0,,7,,,43,127
49595,note_off,0,0,0,,7,,,79,127
49597,note_on,2,0,0,,6,,,42,127
49597,note_on,0,0,0,,10,,,81,127
49700,note_off,103,0,0,,6,,,42,127
49702,note_on,2,0,0,,7,,,43,127
49805,note_off,103,0,0,,7,,,43,127
49807,note_on,2,0,0,,6,,,42,127
49910,note_off,103,0,0,,6,,,42,127
49912,note_on,2,0,0,,4,,,40,127
50015,note_off,103,0,0,,4,,,40,127
50017,note_on,2,0,0,,2,,,38,127
50120,note_off,103,0,0,,2,,,38,127
50120,note_off,0,0,0,,10,,,81,127
50122,note_on,2,0,0,,4,,,40,127
50122,note_on,0,0,0,,10,,,81,127
50225,note_off,103,0,0,,10,,,81,127
50225,note_off,0,0,0,,4,,,40,127
50227,note_on,2,0,0,,6,,,42,127
50227,note_on,0,0,0,,7,,,79,127
50330,note_off,103,0,0,,7,,,79,127
50330,note_off,0,0,0,,6,,,42,127
50332,note_on,2,0,0,,7,,,43,127
50332,note_on,0,0,0,,6,,,78,127
50435,note_off,103,0,0,,6,,,78,127
50435,note_off,0,0,0,,7,,,43,127
50437,note_on,2,0,0,,10,,,45,127
50437,note_on,0,0,0,,4,,,76,127
50540,note_off,103,0,0,,4,,,76,127
50542,note_on,2,0,0,,10,,,81,127
50645,note_off,103,0,0,,10,,,81,127
50647,note_on,2,0,0,,1,,,73,127
50750,note_off,103,0,0,,1,,,73,127
50752,note_on,2,0,0,,4,,,76,127
50855,note_off,103,0,0,,4,,,76,127
50857,note_on,2,0,0,,10,,,69,127
50960,note_off,103,0,0,,10,,,69,127
50962,note_on,2,0,0,,1,,,73,127
51065,note_off,103,0,0,,1,,,73,127
51067,note_on,2,0,0,,4,,,64,127
51170,note_off,103,0,0,,4,,,64,127
51172,note_on,2,0,0,,10,,,69,127
51275,note_off,103,0,0,,10,,,69,127
51277,note_on,2,0,0,,1,,,61,127
51380,note_off,103,0,0,,1,,,61,127
51382,note_on,2,0,0,,4,,,64,127
51485,note_off,103,0,0,,4,,,64,127
51487,note_on,2,0,0,,10,,,57,127
51590,note_off,103,0,0,,10,,,57,127
51592,note_on,2,0,0,,1,,,61,127
51695,note_off,103,0,0,,1,,,61,127
51697,note_on,2,0,0,,4,,,52,127
51800,note_off,103,0,0,,4,,,52,127
51802,note_on,2,0,0,,10,,,57,127
51905,note_off,103,0,0,,10,,,57,127
51907,note_on,2,0,0,,1,,,49,127
52010,note_off,103,0,0,,1,,,49,127
52012,note_on,2,0,0,,4,,,52,127
52110,note_off,98,0,0,,10,,,45,127
52114,note_off,4,0,0,,4,,,52,127
52116,note_on,2,0,0,,10,,,45,127
52941,note_on,825,0,0,,10,,,81,127
52952,note_off,11,0,0,,10,,,45,127
53183,note_off,231,0,0,,10,,,81,127
53185,note_on,2,0,0,,5,,,77,127
53305,note_off,120,0,0,,5,,,77,127
53308,note_on,3,0,0,,4,,,76,127
53673,note_off,365,0,0,,4,,,76,127
53674,note_on,1,0,0,,2,,,74,127
54039,note_off,365,0,0,,2,,,74,127
54041,note_on,2,0,0,,2,,,74,127
54041,note_on,0,0,0,,10,,,69,127
54161,note_off,120,0,0,,2,,,74,127
54164,note_on,3,0,0,,1,,,73,127
54283,note_off,119,0,0,,10,,,69,127
54284,note_off,1,0,0,,1,,,73,127
54286,note_on,2,0,0,,2,,,74,127
54286,note_on,0,0,0,,5,,,65,127
54406,note_off,120,0,0,,5,,,65,127
54406,note_off,0,0,0,,2,,,74,127
54408,note_on,2,0,0,,1,,,73,127
54408,note_on,0,0,0,,4,,,64,127
54528,note_off,120,0,0,,1,,,73,127
54530,note_on,2,0,0,,2,,,74,127
54650,note_off,120,0,0,,2,,,74,127
54653,note_on,3,0,0,,1,,,73,127
54773,note_off,120,0,0,,1,,,73,127
54773,note_off,0,0,0,,4,,,64,127
54775,note_on,2,0,0,,2,,,74,127
54775,note_on,0,0,0,,2,,,62,127
55140,note_off,365,0,0,,2,,,62,127
55140,note_off,0,0,0,,2,,,74,127
55142,note_on,2,0,0,,4,,,76,127
55142,note_on,0,0,0,,1,,,61,127
55323,note_off,181,0,0,,4,,,76,127
55325,note_on,2,0,0,,5,,,77,127
55506,note_off,181,0,0,,5,,,77,127
55509,note_on,3,0,0,,7,,,79,127
55872,note_off,363,0,0,,7,,,79,127
55873,note_off,1,0,0,,1,,,61,127
55875,note_on,2,0,0,,5,,,77,127
55875,note_on,0,0,0,,2,,,62,127
56240,note_off,365,0,0,,2,,,62,127
56240,note_off,0,0,0,,5,,,77,127
56242,note_on,2,0,0,,7,,,79,127
56242,note_on,0,0,0,,7,,,55,127
56423,note_off,181,0,0,,7,,,79,127
56426,note_on,3,0,0,,10,,,81,127
56607,note_off,181,0,0,,10,,,81,127
56609,note_on,2,0,0,,11,,,82,127
56972,note_off,363,0,0,,11,,,82,127
56973,note_off,1,0,0,,7,,,55,127
56976,note_on,3,0,0,,10,,,81,127
56976,note_on,0,0,0,,5,,,53,127
57341,note_off,365,0,0,,5,,,53,127
57341,note_off,0,0,0,,10,,,81,127
57343,note_on,2,0,0,,2,,,74,127
57343,note_on,0,0,0,,4,,,52,127
57463,note_off,120,0,0,,2,,,74,127
57465,note_on,2,0,0,,1,,,73,127
57585,note_off,120,0,0,,1,,,73,127
57587,note_on,2,0,0,,2,,,74,127
57707,note_off,120,0,0,,2,,,74,127
57710,note_on,3,0,0,,1,,,73,127
57830,note_off,120,0,0,,1,,,73,127
57832,note_on,2,0,0,,12,,,71,127
57952,note_off,120,0,0,,12,,,71,127
57954,note_on,2,0,0,,1,,,73,127
58074,note_off,120,0,0,,1,,,73,127
58074,note_off,0,0,0,,4,,,52,127
58077,note_on,3,0,0,,2,,,74,127
58077,note_on,0,0,0,,2,,,50,127
58442,note_off,365,0,0,,2,,,50,127
58442,note_off,0,0,0,,2,,,74,127
58443,note_on,1,0,0,,7,,,67,127
58443,note_on,0,0,0,,4,,,52,127
58808,note_off,365,0,0,,4,,,52,127
58810,note_on,2,0,0,,10,,,57,127
59174,note_off,364,0,0,,7,,,67,127
59175,note_off,1,0,0,,10,,,57,127
59177,note_on,2,0,0,,5,,,65,127
59177,note_on,0,0,0,,2,,,50,127
59542,note_off,365,0,0,,2,,,50,127
59542,note_off,0,0,0,,5,,,65,127
59544,note_on,2,0,0,,4,,,64,127
59544,note_on,0,0,0,,7,,,43,127
59909,note_off,365,0,0,,7,,,43,127
59909,note_off,0,0,0,,4,,,64,127
59911,note_on,2,0,0,,4,,,64,127
59911,note_on,0,0,0,,7,,,55,127
60031,note_off,120,0,0,,4,,,64,127
60033,note_on,2,0,0,,2,,,62,127
60153,note_off,120,0,0,,2,,,62,127
60155,note_on,2,0,0,,4,,,64,127
60275,note_off,120,0,0,,4,,,64,127
60276,note_off,1,0,0,,7,,,55,127
60278,note_on,2,0,0,,2,,,62,127
60278,note_on,0,0,0,,11,,,46,127
60398,note_off,120,0,0,,2,,,62,127
60400,note_on,2,0,0,,1,,,61,127
60520,note_off,120,0,0,,1,,,61,127
60522,note_on,2,0,0,,2,,,62,127
60642,note_off,120,0,0,,2,,,62,127
60643,note_off,1,0,0,,11,,,46,127
60644,note_on,1,0,0,,2,,,62,127
60644,note_on,0,0,0,,10,,,45,127
61376,note_off,732,0,0,,2,,,62,127
61379,note_on,3,0,0,,4,,,64,127
61558,note_off,179,0,0,,10,,,45,127
61745,note_off,187,0,0,,4,,,64,127
61747,note_on,2,0,0,,10,,,81,127
61989,note_off,242,0,0,,10,,,81,127
61991,note_on,2,0,0,,5,,,77,127
62111,note_off,120,0,0,,5,,,77,127
62114,note_on,3,0,0,,4,,,76,127
62479,note_off,365,0,0,,4,,,76,127
62481,note_on,2,0,0,,2,,,74,127
62846,note_off,365,0,0,,2,,,74,127
62847,note_on,1,0,0,,2,,,74,127
62847,note_on,0,0,0,,10,,,69,127
62967,note_off,120,0,0,,2,,,74,127
62970,note_on,3,0,0,,1,,,73,127
63089,note_off,119,0,0,,10,,,69,127
63090,note_off,1,0,0,,1,,,73,127
63092,note_on,2,0,0,,2,,,74,127
63092,note_on,0,0,0,,5,,,65,127
63212,note_off,120,0,0,,5,,,65,127
63212,note_off,0,0,0,,2,,,74,127
63214,note_on,2,0,0,,1,,,73,127
63214,note_on,0,0,0,,4,,,64,127
63334,note_off,120,0,0,,1,,,73,127
63337,note_on,3,0,0,,12,,,71,127
63457,note_off,120,0,0,,12,,,71,127
63459,note_on,2,0,0,,1,,,73,127
63579,note_off,120,0,0,,1,,,73,127
63579,note_off,0,0,0,,4,,,64,127
63581,note_on,2,0,0,,2,,,74,127
63581,note_on,0,0,0,,2,,,62,127
63946,note_off,365,0,0,,2,,,62,127
63946,note_off,0,0,0,,2,,,74,127
63948,note_on,2,0,0,,4,,,76,127
63948,note_on,0,0,0,,1,,,61,127
64068,note_off,120,0,0,,4,,,76,127
64070,note_on,2,0,0,,5,,,77,127
64190,note_off,120,0,0,,5,,,77,127
64193,note_on,3,0,0,,7,,,79,127
64311,note_off,118,0,0,,7,,,79,127
64315,note_on,4,0,0,,7,,,79,127
64678,note_off,363,0,0,,7,,,79,127
64679,note_off,1,0,0,,1,,,61,127
64682,note_on,3,0,0,,5,,,77,127
64682,note_on,0,0,0,,2,,,62,127
65047,note_off,365,0,0,,2,,,62,127
65047,note_off,0,0,0,,5,,,77,127
65049,note_on,2,0,0,,7,,,79,127
65049,note_on,0,0,0,,7,,,55,127
65169,note_off,120,0,0,,7,,,79,127
65171,note_on,2,0,0,,10,,,81,127
65291,note_off,120,0,0,,10,,,81,127
65293,note_on,2,0,0,,11,,,82,127
65412,note_off,119,0,0,,11,,,82,127
65415,note_on,3,0,0,,11,,,82,127
65778,note_off,363,0,0,,11,,,82,127
65780,note_off,2,0,0,,7,,,55,127
65782,note_on,2,0,0,,10,,,81,127
65782,note_on,0,0,0,,5,,,53,127
66147,note_off,365,0,0,,5,,,53,127
66147,note_off,0,0,0,,10,,,81,127
66149,note_on,2,0,0,,2,,,74,127
66149,note_on,0,0,0,,4,,,52,127
66269,note_off,120,0,0,,2,,,74,127
66271,note_on,2,0,0,,1,,,73,127
66391,note_off,120,0,0,,1,,,73,127
66394,note_on,3,0,0,,2,,,74,127
66514,note_off,120,0,0,,2,,,74,127
66516,note_on,2,0,0,,1,,,73,127
66636,note_off,120,0,0,,1,,,73,127
66638,note_on,2,0,0,,12,,,71,127
66758,note_off,120,0,0,,12,,,71,127
66760,note_on,2,0,0,,1,,,73,127
66880,note_off,120,0,0,,1,,,73,127
66880,note_off,0,0,0,,4,,,52,127
66883,note_on,3,0,0,,2,,,74,127
66883,note_on,0,0,0,,2,,,50,127
67248,note_off,365,0,0,,2,,,50,127
67248,note_off,0,0,0,,2,,,74,127
67250,note_on,2,0,0,,7,,,67,127
67250,note_on,0,0,0,,4,,,52,127
67615,note_off,365,0,0,,4,,,52,127
67616,note_on,1,0,0,,10,,,57,127
67981,note_off,365,0,0,,10,,,57,127
67981,note_off,0,0,0,,7,,,67,127
67983,note_on,2,0,0,,5,,,65,127
67983,note_on,0,0,0,,2,,,50,127
68348,note_off,365,0,0,,2,,,50,127
68348,note_off,0,0,0,,5,,,65,127
68350,note_on,2,0,0,,4,,,64,127
68350,note_on,0,0,0,,7,,,55,127
68350,note_on,0,0,0,,7,,,43,127
68715,note_off,365,0,0,,7,,,43,127
68715,note_off,0,0,0,,7,,,55,127
68715,note_off,0,0,0,,4,,,64,127
68717,note_on,2,0,0,,2,,,62,127
68717,note_on,0,0,0,,5,,,53,127
68717,note_on,0,0,0,,10,,,45,127
69082,note_off,365,0,0,,5,,,53,127
69082,note_off,0,0,0,,2,,,62,127
69084,note_on,2,0,0,,1,,,61,127
69084,note_on,0,0,0,,4,,,52,127
69449,note_off,365,0,0,,4,,,52,127
69449,note_off,0,0,0,,1,,,61,127
69449,note_off,0,0,0,,10,,,45,127
69451,note_on,2,0,0,,1,,,61,127
69451,note_on,0,0,0,,2,,,50,127
69818,note_on,367,0,0,,2,,,38,127
70183,note_off,365,0,0,,1,,,61,127
70185,note_on,2,0,0,,2,,,62,127
70487,note_off,302,0,0,,2,,,38,127
70550,note_off,63,0,0,,2,,,62,127
70550,note_off,0,0,0,,2,,,50,127
70552,note_on,2,0,0,,2,,,74,127
70552,note_on,0,0,0,,2,,,62,127
70917,note_off,365,0,0,,2,,,74,127
70919,note_on,2,0,0,,6,,,66,127
70919,note_on,0,0,0,,10,,,69,127
71284,note_off,365,0,0,,10,,,69,127
71284,note_off,0,0,0,,6,,,66,127
71286,note_on,2,0,0,,7,,,67,127
71286,note_on,0,0,0,,11,,,70,127
71650,note_off,364,0,0,,2,,,62,127
71651,note_off,1,0,0,,11,,,70,127
71653,note_on,2,0,0,,0,,,72,127
71653,note_on,0,0,0,,3,,,63,127
72018,note_off,365,0,0,,3,,,63,127
72018,note_off,0,0,0,,0,,,72,127
72020,note_on,2,0,0,,2,,,74,127
72020,note_on,0,0,0,,2,,,62,127
72385,note_off,365,0,0,,2,,,62,127
72385,note_off,0,0,0,,2,,,74,127
72386,note_on,1,0,0,,3,,,75,127
72386,note_on,0,0,0,,0,,,60,127
72751,note_off,365,0,0,,0,,,60,127
72751,note_off,0,0,0,,3,,,75,127
72753,note_on,2,0,0,,2,,,74,127
72753,note_on,0,0,0,,2,,,62,127
73118,note_off,365,0,0,,2,,,74,127
73118,note_off,0,0,0,,7,,,67,127
73120,note_on,2,0,0,,10,,,69,127
73120,note_on,0,0,0,,6,,,66,127
73485,note_off,365,0,0,,6,,,66,127
73485,note_off,0,0,0,,10,,,69,127
73487,note_on,2,0,0,,11,,,70,127
73487,note_on,0,0,0,,7,,,67,127
73851,note_off,364,0,0,,2,,,62,127
73852,note_off,1,0,0,,11,,,70,127
73854,note_on,2,0,0,,0,,,72,127
73854,note_on,0,0,0,,3,,,63,127
74219,note_off,365,0,0,,3,,,63,127
74219,note_off,0,0,0,,0,,,72,127
74221,note_on,2,0,0,,2,,,74,127
74221,note_on,0,0,0,,2,,,62,127
74586,note_off,365,0,0,,2,,,62,127
74586,note_off,0,0,0,,2,,,74,127
74587,note_on,1,0,0,,3,,,75,127
74587,note_on,0,0,0,,0,,,60,127
74949,note_off,362,0,0,,7,,,67,127
74952,note_off,3,0,0,,0,,,60,127
74952,note_off,0,0,0,,3,,,75,127
74954,note_on,2,0,0,,2,,,74,127
74954,note_on,0,0,0,,11,,,70,127
74954,note_on,0,0,0,,5,,,65,127
75319,note_off,365,0,0,,11,,,70,127
75319,note_off,0,0,0,,2,,,74,127
75321,note_on,2,0,0,,2,,,74,127
75321,note_on,0,0,0,,10,,,69,127
75441,note_off,120,0,0,,2,,,74,127
75443,note_on,2,0,0,,0,,,72,127
75563,note_off,120,0,0,,0,,,72,127
75566,note_on,3,0,0,,2,,,74,127
75686,note_off,120,0,0,,2,,,74,127
75688,note_on,2,0,0,,0,,,72,127
75688,note_on,0,0,0,,5,,,53,127
75808,note_off,120,0,0,,0,,,72,127
75810,note_on,2,0,0,,11,,,70,127
75930,note_off,120,0,0,,11,,,70,127
75932,note_on,2,0,0,,0,,,72,127
76052,note_off,120,0,0,,0,,,72,127
76052,note_off,0,0,0,,5,,,65,127
76053,note_off,1,0,0,,5,,,53,127
76053,note_off,0,0,0,,10,,,69,127
76055,note_on,2,0,0,,11,,,70,127
76055,note_on,0,0,0,,2,,,74,127
76055,note_on,0,0,0,,11,,,58,127
76236,note_off,181,0,0,,2,,,74,127
76238,note_on,2,0,0,,0,,,72,127
76408,note_off,170,0,0,,11,,,70,127
76419,note_off,11,0,0,,0,,,72,127
76422,note_on,3,0,0,,11,,,70,127
76422,note_on,0,0,0,,11,,,46,127
76603,note_off,181,0,0,,11,,,70,127
76605,note_on,2,0,0,,10,,,69,127
76786,note_off,181,0,0,,10,,,69,127
76788,note_on,2,0,0,,11,,,70,127
77423,note_off,635,0,0,,11,,,70,127
77423,note_off,0,0,0,,11,,,46,127
77423,note_off,0,0,0,,11,,,58,127
77523,note_on,100,0,0,,5,,,77,127
77888,note_off,365,0,0,,5,,,77,127
77890,note_on,2,0,0,,5,,,77,127
77890,note_on,0,0,0,,3,,,75,127
78255,note_off,365,0,0,,3,,,75,127
78255,note_off,0,0,0,,5,,,77,127
78257,note_on,2,0,0,,5,,,77,127
78257,note_on,0,0,0,,2,,,74,127
78257,note_on,0,0,0,,11,,,70,127
78622,note_off,365,0,0,,11,,,70,127
78622,note_off,0,0,0,,2,,,74,127
78622,note_off,0,0,0,,5,,,77,127
78624,note_on,2,0,0,,0,,,72,127
78624,note_on,0,0,0,,5,,,77,127
78624,note_on,0,0,0,,10,,,69,127
78989,note_off,365,0,0,,10,,,69,127
78989,note_off,0,0,0,,5,,,77,127
78989,note_off,0,0,0,,0,,,72,127
78991,note_on,2,0,0,,11,,,70,127
78991,note_on,0,0,0,,5,,,77,127
78991,note_on,0,0,0,,7,,,67,127
79356,note_off,365,0,0,,7,,,67,127
79356,note_off,0,0,0,,5,,,77,127
79356,note_off,0,0,0,,11,,,70,127
79357,note_on,1,0,0,,5,,,77,127
79357,note_on,0,0,0,,10,,,69,127
79357,note_on,0,0,0,,5,,,65,127
79722,note_off,365,0,0,,5,,,65,127
79722,note_off,0,0,0,,10,,,69,127
79722,note_off,0,0,0,,5,,,77,127
79724,note_on,2,0,0,,7,,,67,127
79724,note_on,0,0,0,,5,,,77,127
79724,note_on,0,0,0,,3,,,63,127
80089,note_off,365,0,0,,3,,,63,127
80089,note_off,0,0,0,,5,,,77,127
80089,note_off,0,0,0,,7,,,67,127
80091,note_on,2,0,0,,5,,,65,127
80091,note_on,0,0,0,,5,,,77,127
80091,note_on,0,0,0,,2,,,62,127
80456,note_off,365,0,0,,2,,,62,127
80456,note_off,0,0,0,,5,,,77,127
80456,note_off,0,0,0,,5,,,65,127
80458,note_on,2,0,0,,5,,,77,127
80458,note_on,0,0,0,,7,,,67,127
80458,note_on,0,0,0,,0,,,60,127
80823,note_off,365,0,0,,0,,,60,127
80823,note_off,0,0,0,,5,,,77,127
80825,note_on,2,0,0,,5,,,77,127
80825,note_on,0,0,0,,2,,,74,127
80825,note_on,0,0,0,,12,,,59,127
81190,note_off,365,0,0,,12,,,59,127
81190,note_off,0,0,0,,2,,,74,127
81190,note_off,0,0,0,,5,,,77,127
81192,note_on,2,0,0,,5,,,77,127
81192,note_on,0,0,0,,12,,,71,127
81192,note_on,0,0,0,,7,,,55,127
81556,note_off,364,0,0,,7,,,67,127
81557,note_off,1,0,0,,7,,,55,127
81557,note_off,0,0,0,,12,,,71,127
81557,note_off,0,0,0,,5,,,77,127
81558,note_on,1,0,0,,7,,,67,127
81558,note_on,0,0,0,,5,,,77,127
81558,note_on,0,0,0,,0,,,60,127
81923,note_off,365,0,0,,0,,,60,127
81923,note_off,0,0,0,,5,,,77,127
81925,note_on,2,0,0,,3,,,75,127
81925,note_on,0,0,0,,0,,,48,127
82106,note_off,181,0,0,,3,,,75,127
82109,note_on,3,0,0,,2,,,74,127
82290,note_off,181,0,0,,2,,,74,127
82292,note_on,2,0,0,,0,,,72,127
82292,note_on,0,0,0,,0,,,36,127
82473,note_off,181,0,0,,0,,,72,127
82476,note_on,3,0,0,,12,,,71,127
82656,note_off,180,0,0,,7,,,67,127
82657,note_off,1,0,0,,12,,,71,127
82657,note_off,0,0,0,,0,,,36,127
82657,note_off,0,0,0,,0,,,48,127
82659,note_on,2,0,0,,0,,,72,127
82659,note_on,0,0,0,,0,,,48,127
83024,note_off,365,0,0,,0,,,72,127
83026,note_on,2,0,0,,3,,,75,127
83391,note_off,365,0,0,,3,,,75,127
83391,note_off,0,0,0,,0,,,48,127
83393,note_on,2,0,0,,3,,,75,127
83393,note_on,0,0,0,,2,,,74,127
83758,note_off,365,0,0,,2,,,74,127
83758,note_off,0,0,0,,3,,,75,127
83759,note_on,1,0,0,,0,,,72,127
83759,note_on,0,0,0,,3,,,75,127
83759,note_on,0,0,0,,8,,,68,127
84124,note_off,365,0,0,,8,,,68,127
84124,note_off,0,0,0,,3,,,75,127
84124,note_off,0,0,0,,0,,,72,127
84126,note_on,2,0,0,,11,,,70,127
84126,note_on,0,0,0,,3,,,75,127
84126,note_on,0,0,0,,7,,,67,127
84491,note_off,365,0,0,,7,,,67,127
84491,note_off,0,0,0,,3,,,75,127
84491,note_off,0,0,0,,11,,,70,127
84493,note_on,2,0,0,,3,,,75,127
84493,note_on,0,0,0,,8,,,68,127
84493,note_on,0,0,0,,5,,,65,127
84858,note_off,365,0,0,,5,,,65,127
84858,note_off,0,0,0,,8,,,68,127
84858,note_off,0,0,0,,3,,,75,127
84860,note_on,2,0,0,,7,,,67,127
84860,note_on,0,0,0,,3,,,75,127
84860,note_on,0,0,0,,3,,,63,127
85225,note_off,365,0,0,,3,,,63,127
85225,note_off,0,0,0,,3,,,75,127
85225,note_off,0,0,0,,7,,,67,127
85227,note_on,2,0,0,,5,,,65,127
85227,note_on,0,0,0,,3,,,75,127
85227,note_on,0,0,0,,2,,,62,127
85592,note_off,365,0,0,,2,,,62,127
85592,note_off,0,0,0,,3,,,75,127
85592,note_off,0,0,0,,5,,,65,127
85594,note_on,2,0,0,,3,,,75,127
85594,note_on,0,0,0,,3,,,63,127
85594,note_on,0,0,0,,0,,,60,127
85959,note_off,365,0,0,,0,,,60,127
85959,note_off,0,0,0,,3,,,63,127
85959,note_off,0,0,0,,3,,,75,127
85961,note_on,2,0,0,,5,,,65,127
85961,note_on,0,0,0,,3,,,75,127
85961,note_on,0,0,0,,11,,,58,127
86326,note_off,365,0,0,,11,,,58,127
86326,note_off,0,0,0,,3,,,75,127
86327,note_on,1,0,0,,0,,,72,127
86327,note_on,0,0,0,,10,,,57,127
86692,note_off,365,0,0,,10,,,57,127
86692,note_off,0,0,0,,0,,,72,127
86694,note_on,2,0,0,,10,,,69,127
86694,note_on,0,0,0,,5,,,53,127
87059,note_off,365,0,0,,5,,,53,127
87059,note_off,0,0,0,,10,,,69,127
87059,note_off,0,0,0,,5,,,65,127
87061,note_on,2,0,0,,5,,,77,127
87061,note_on,0,0,0,,5,,,65,127
87061,note_on,0,0,0,,11,,,58,127
87242,note_off,181,0,0,,5,,,77,127
87244,note_on,2,0,0,,3,,,75,127
87425,note_off,181,0,0,,3,,,75,127
87428,note_on,3,0,0,,2,,,74,127
87609,note_off,181,0,0,,2,,,74,127
87611,note_on,2,0,0,,0,,,72,127
87792,note_off,181,0,0,,0,,,72,127
87795,note_on,3,0,0,,2,,,74,127
87997,note_off,202,0,0,,11,,,58,127
88158,note_off,161,0,0,,2,,,74,127
88159,note_off,1,0,0,,5,,,65,127
88162,note_on,3,0,0,,11,,,46,127
88527,note_off,365,0,0,,11,,,46,127
88528,note_on,1,0,0,,2,,,74,127
88528,note_on,0,0,0,,7,,,67,127
88528,note_on,0,0,0,,2,,,62,127
88528,note_on,0,0,0,,11,,,58,127
88893,note_off,365,0,0,,11,,,58,127
88893,note_off,0,0,0,,7,,,67,127
88893,note_off,0,0,0,,2,,,74,127
88895,note_on,2,0,0,,5,,,65,127
88895,note_on,0,0,0,,2,,,74,127
88895,note_on,0,0,0,,10,,,57,127
89260,note_off,365,0,0,,10,,,57,127
89260,note_off,0,0,0,,2,,,74,127
89260,note_off,0,0,0,,5,,,65,127
89260,note_off,0,0,0,,2,,,62,127
89262,note_on,2,0,0,,2,,,74,127
89262,note_on,0,0,0,,4,,,64,127
89262,note_on,0,0,0,,2,,,62,127
89262,note_on,0,0,0,,7,,,55,127
89627,note_off,365,0,0,,7,,,55,127
89627,note_off,0,0,0,,4,,,64,127
89627,note_off,0,0,0,,2,,,74,127
89629,note_on,2,0,0,,7,,,67,127
89629,note_on,0,0,0,,2,,,74,127
89629,note_on,0,0,0,,11,,,58,127
89994,note_off,365,0,0,,11,,,58,127
89994,note_off,0,0,0,,2,,,74,127
89994,note_off,0,0,0,,7,,,67,127
89996,note_on,2,0,0,,5,,,65,127
89996,note_on,0,0,0,,2,,,74,127
89996,note_on,0,0,0,,10,,,57,127
90360,note_off,364,0,0,,2,,,62,127
90361,note_off,1,0,0,,10,,,57,127
90361,note_off,0,0,0,,2,,,74,127
90361,note_off,0,0,0,,5,,,65,127
90363,note_on,2,0,0,,2,,,74,127
90363,note_on,0,0,0,,4,,,64,127
90363,note_on,0,0,0,,2,,,62,127
90363,note_on,0,0,0,,7,,,55,127
90728,note_off,365,0,0,,7,,,55,127
90728,note_off,0,0,0,,4,,,64,127
90728,note_off,0,0,0,,2,,,74,127
90729,note_on,1,0,0,,2,,,74,127
90729,note_on,0,0,0,,11,,,70,127
90729,note_on,0,0,0,,7,,,55,127
91094,note_off,365,0,0,,7,,,55,127
91094,note_off,0,0,0,,11,,,70,127
91094,note_off,0,0,0,,2,,,74,127
91096,note_on,2,0,0,,10,,,69,127
91096,note_on,0,0,0,,2,,,74,127
91096,note_on,0,0,0,,5,,,53,127
91461,note_off,365,0,0,,5,,,53,127
91461,note_off,0,0,0,,2,,,74,127
91461,note_off,0,0,0,,10,,,69,127
91461,note_off,0,0,0,,2,,,62,127
91463,note_on,2,0,0,,7,,,67,127
91463,note_on,0,0,0,,2,,,74,127
91463,note_on,0,0,0,,2,,,62,127
91463,note_on,0,0,0,,4,,,52,127
91828,note_off,365,0,0,,4,,,52,127
91828,note_off,0,0,0,,2,,,74,127
91828,note_off,0,0,0,,7,,,67,127
91830,note_on,2,0,0,,11,,,70,127
91830,note_on,0,0,0,,2,,,74,127
91830,note_on,0,0,0,,7,,,55,127
92195,note_off,365,0,0,,7,,,55,127
92195,note_off,0,0,0,,2,,,74,127
92195,note_off,0,0,0,,11,,,70,127
92197,note_on,2,0,0,,10,,,69,127
92197,note_on,0,0,0,,2,,,74,127
92197,note_on,0,0,0,,5,,,53,127
92561,note_off,364,0,0,,2,,,62,127
92562,note_off,1,0,0,,5,,,53,127
92562,note_off,0,0,0,,2,,,74,127
92562,note_off,0,0,0,,10,,,69,127
92564,note_on,2,0,0,,2,,,74,127
92564,note_on,0,0,0,,7,,,67,127
92564,note_on,0,0,0,,2,,,62,127
92564,note_on,0,0,0,,4,,,52,127
92929,note_off,365,0,0,,4,,,52,127
92929,note_off,0,0,0,,2,,,62,127
92929,note_off,0,0,0,,7,,,67,127
92929,note_off,0,0,0,,2,,,74,127
92931,note_on,2,0,0,,7,,,79,127
92931,note_on,0,0,0,,7,,,67,127
92931,note_on,0,0,0,,4,,,52,127
92931,note_on,0,0,0,,7,,,55,127
93296,note_off,365,0,0,,4,,,52,127
93296,note_off,0,0,0,,7,,,79,127
93297,note_on,1,0,0,,5,,,77,127
93297,note_on,0,0,0,,2,,,50,127
93662,note_off,365,0,0,,2,,,50,127
93662,note_off,0,0,0,,5,,,77,127
93663,note_off,1,0,0,,7,,,55,127
93663,note_off,0,0,0,,7,,,67,127
93664,note_on,1,0,0,,4,,,76,127
93664,note_on,0,0,0,,10,,,69,127
93664,note_on,0,0,0,,7,,,55,127
93664,note_on,0,0,0,,1,,,49,127
94029,note_off,365,0,0,,1,,,49,127
94029,note_off,0,0,0,,4,,,76,127
94031,note_on,2,0,0,,7,,,79,127
94031,note_on,0,0,0,,4,,,52,127
94396,note_off,365,0,0,,4,,,52,127
94396,note_off,0,0,0,,7,,,79,127
94398,note_on,2,0,0,,5,,,77,127
94398,note_on,0,0,0,,2,,,50,127
94762,note_off,364,0,0,,7,,,55,127
94762,note_off,0,0,0,,10,,,69,127
94763,note_off,1,0,0,,2,,,50,127
94763,note_off,0,0,0,,5,,,77,127
94765,note_on,2,0,0,,5,,,77,127
94765,note_on,0,0,0,,10,,,69,127
94765,note_on,0,0,0,,10,,,45,127
95130,note_off,365,0,0,,5,,,77,127
95132,note_on,2,0,0,,4,,,76,127
95496,note_off,364,0,0,,10,,,45,127
95497,note_off,1,0,0,,4,,,76,127
95497,note_off,0,0,0,,10,,,69,127
95498,note_on,1,0,0,,2,,,74,127
95498,note_on,0,0,0,,7,,,67,127
95498,note_on,0,0,0,,11,,,46,127
95863,note_off,365,0,0,,11,,,46,127
95863,note_off,0,0,0,,7,,,67,127
95863,note_off,0,0,0,,2,,,74,127
95865,note_on,2,0,0,,4,,,76,127
95865,note_on,0,0,0,,11,,,70,127
95865,note_on,0,0,0,,7,,,67,127
95865,note_on,0,0,0,,7,,,43,127
96230,note_off,365,0,0,,7,,,43,127
96230,note_off,0,0,0,,7,,,67,127
96230,note_off,0,0,0,,11,,,70,127
96230,note_off,0,0,0,,4,,,76,127
96232,note_on,2,0,0,,10,,,69,127
96232,note_on,0,0,0,,2,,,74,127
96232,note_on,0,0,0,,5,,,65,127
96232,note_on,0,0,0,,10,,,45,127
96597,note_off,365,0,0,,5,,,65,127
96597,note_off,0,0,0,,2,,,74,127
96599,note_on,2,0,0,,4,,,64,127
96599,note_on,0,0,0,,1,,,73,127
96963,note_off,364,0,0,,10,,,45,127
96964,note_off,1,0,0,,1,,,73,127
96964,note_off,0,0,0,,4,,,64,127
96964,note_off,0,0,0,,10,,,69,127
96966,note_on,2,0,0,,5,,,65,127
96966,note_on,0,0,0,,2,,,74,127
96966,note_on,0,0,0,,2,,,50,127
97331,note_off,365,0,0,,2,,,50,127
97333,note_on,2,0,0,,10,,,57,127
97698,note_off,365,0,0,,10,,,57,127
97698,note_off,0,0,0,,2,,,74,127
97698,note_off,0,0,0,,5,,,65,127
97699,note_on,1,0,0,,2,,,62,127
98064,note_off,365,0,0,,2,,,62,127
98066,note_on,2,0,0,,6,,,66,127
98066,note_on,0,0,0,,4,,,52,127
98431,note_off,365,0,0,,4,,,52,127
98433,note_on,2,0,0,,1,,,61,127
98614,note_off,181,0,0,,6,,,66,127
98617,note_on,3,0,0,,7,,,67,127
98798,note_off,181,0,0,,1,,,61,127
98800,note_on,2,0,0,,4,,,64,127
99165,note_off,365,0,0,,4,,,64,127
99165,note_off,0,0,0,,7,,,67,127
99167,note_on,2,0,0,,8,,,68,127
99167,note_on,0,0,0,,5,,,53,127
99532,note_off,365,0,0,,5,,,53,127
99534,note_on,2,0,0,,2,,,62,127
99715,note_off,181,0,0,,8,,,68,127
99717,note_on,2,0,0,,10,,,69,127
99899,note_off,182,0,0,,2,,,62,127
99901,note_on,2,0,0,,5,,,65,127
100265,note_off,364,0,0,,10,,,69,127
100266,note_off,1,0,0,,5,,,65,127
100267,note_on,1,0,0,,10,,,69,127
100267,note_on,0,0,0,,7,,,55,127
100632,note_off,365,0,0,,7,,,55,127
100634,note_on,2,0,0,,4,,,64,127
100815,note_off,181,0,0,,10,,,69,127
100818,note_on,3,0,0,,11,,,70,127
100999,note_off,181,0,0,,4,,,64,127
101001,note_on,2,0,0,,7,,,67,127
101366,note_off,365,0,0,,11,,,70,127
101368,note_on,2,0,0,,12,,,71,127
101368,note_on,0,0,0,,10,,,57,127
101733,note_off,365,0,0,,10,,,57,127
101733,note_off,0,0,0,,12,,,71,127
101733,note_off,0,0,0,,7,,,67,127
101735,note_on,2,0,0,,1,,,73,127
101735,note_on,0,0,0,,7,,,67,127
102100,note_off,365,0,0,,7,,,67,127
102100,note_off,0,0,0,,1,,,73,127
102102,note_on,2,0,0,,2,,,74,127
102102,note_on,0,0,0,,5,,,65,127
102467,note_off,365,0,0,,5,,,65,127
102467,note_off,0,0,0,,2,,,74,127
102468,note_on,1,0,0,,4,,,76,127
102468,note_on,0,0,0,,4,,,64,127
102833,note_off,365,0,0,,4,,,64,127
102833,note_off,0,0,0,,4,,,76,127
102835,note_on,2,0,0,,7,,,79,127
102835,note_on,0,0,0,,2,,,62,127
102955,note_off,120,0,0,,7,,,79,127
102958,note_on,3,0,0,,5,,,77,127
103078,note_off,120,0,0,,5,,,77,127
103080,note_on,2,0,0,,7,,,79,127
103200,note_off,120,0,0,,7,,,79,127
103202,note_on,2,0,0,,5,,,77,127
103202,note_on,0,0,0,,2,,,50,127
103322,note_off,120,0,0,,5,,,77,127
103324,note_on,2,0,0,,4,,,76,127
103444,note_off,120,0,0,,4,,,76,127
103447,note_on,3,0,0,,5,,,77,127
103567,note_off,120,0,0,,5,,,77,127
103567,note_off,0,0,0,,2,,,50,127
103567,note_off,0,0,0,,2,,,62,127
103569,note_on,2,0,0,,4,,,76,127
103569,note_on,0,0,0,,10,,,57,127
103934,note_off,365,0,0,,10,,,57,127
103934,note_off,0,0,0,,4,,,76,127
103936,note_on,2,0,0,,11,,,82,127
103936,note_on,0,0,0,,7,,,55,127
104301,note_off,365,0,0,,7,,,55,127
104301,note_off,0,0,0,,11,,,82,127
104303,note_on,2,0,0,,10,,,81,127
104303,note_on,0,0,0,,5,,,53,127
104668,note_off,365,0,0,,5,,,53,127
104668,note_off,0,0,0,,10,,,81,127
104669,note_on,1,0,0,,7,,,79,127
104669,note_on,0,0,0,,4,,,52,127
105034,note_off,365,0,0,,4,,,52,127
105034,note_off,0,0,0,,7,,,79,127
105036,note_on,2,0,0,,7,,,79,127
105036,note_on,0,0,0,,2,,,50,127
105156,note_off,120,0,0,,7,,,79,127
105159,note_on,3,0,0,,5,,,77,127
105279,note_off,120,0,0,,5,,,77,127
105281,note_on,2,0,0,,7,,,79,127
105401,note_off,120,0,0,,7,,,79,127
105403,note_on,2,0,0,,5,,,77,127
105403,note_on,0,0,0,,2,,,38,127
105523,note_off,120,0,0,,5,,,77,127
105525,note_on,2,0,0,,4,,,76,127
105645,note_off,120,0,0,,4,,,76,127
105648,note_on,3,0,0,,5,,,77,127
105768,note_off,120,0,0,,5,,,77,127
105768,note_off,0,0,0,,2,,,38,127
105768,note_off,0,0,0,,2,,,50,127
105770,note_on,2,0,0,,5,,,77,127
105770,note_on,0,0,0,,10,,,45,127
106135,note_off,365,0,0,,5,,,77,127
106137,note_on,2,0,0,,4,,,76,127
106869,note_off,732,0,0,,10,,,45,127
106870,note_off,1,0,0,,4,,,76,127
106884,note_on,14,0,0,,10,,,45,127
106884,note_on,0,0,0,,10,,,57,127
107093,note_on,209,0,0,,7,,,79,127
107194,note_off,101,0,0,,7,,,79,127
107197,note_on,3,0,0,,6,,,78,127
107298,note_off,101,0,0,,6,,,78,127
107301,note_on,3,0,0,,4,,,76,127
107402,note_off,101,0,0,,4,,,76,127
107405,note_on,3,0,0,,10,,,69,127
107506,note_off,101,0,0,,10,,,69,127
107506,note_off,0,0,0,,10,,,57,127
107506,note_off,0,0,0,,10,,,45,127
107509,note_on,3,0,0,,1,,,61,127
107509,note_on,0,0,0,,10,,,81,127
107610,note_off,101,0,0,,10,,,81,127
107613,note_on,3,0,0,,7,,,79,127
107714,note_off,101,0,0,,7,,,79,127
107714,note_off,0,0,0,,1,,,61,127
107716,note_on,2,0,0,,2,,,62,127
107716,note_on,0,0,0,,6,,,78,127
107817,note_off,101,0,0,,6,,,78,127
107821,note_on,4,0,0,,10,,,69,127
107922,note_off,101,0,0,,10,,,69,127
107925,note_on,3,0,0,,7,,,55,127
107925,note_on,0,0,0,,7,,,79,127
108026,note_off,101,0,0,,7,,,79,127
108029,note_on,3,0,0,,6,,,78,127
108130,note_off,101,0,0,,6,,,78,127
108130,note_off,0,0,0,,7,,,55,127
108133,note_on,3,0,0,,10,,,57,127
108133,note_on,0,0,0,,4,,,76,127
108234,note_off,101,0,0,,4,,,76,127
108237,note_on,3,0,0,,10,,,69,127
108338,note_off,101,0,0,,10,,,69,127
108338,note_off,0,0,0,,2,,,62,127
108341,note_on,3,0,0,,1,,,61,127
108341,note_on,0,0,0,,10,,,81,127
108442,note_off,101,0,0,,10,,,81,127
108445,note_on,3,0,0,,7,,,79,127
108544,note_off,99,0,0,,10,,,57,127
108546,note_off,2,0,0,,7,,,79,127
108546,note_off,0,0,0,,1,,,61,127
108549,note_on,3,0,0,,2,,,62,127
108549,note_on,0,0,0,,6,,,78,127
108650,note_off,101,0,0,,6,,,78,127
108652,note_on,2,0,0,,2,,,74,127
108753,note_off,101,0,0,,2,,,74,127
108754,note_off,1,0,0,,2,,,62,127
108757,note_on,3,0,0,,7,,,67,127
108757,note_on,0,0,0,,4,,,76,127
108858,note_off,101,0,0,,7,,,67,127
108861,note_on,3,0,0,,6,,,66,127
108962,note_off,101,0,0,,6,,,66,127
108965,note_on,3,0,0,,4,,,64,127
109066,note_off,101,0,0,,4,,,64,127
109069,note_on,3,0,0,,10,,,57,127
109170,note_off,101,0,0,,10,,,57,127
109170,note_off,0,0,0,,4,,,76,127
109173,note_on,3,0,0,,10,,,69,127
109173,note_on,0,0,0,,1,,,73,127
109274,note_off,101,0,0,,10,,,69,127
109277,note_on,3,0,0,,7,,,67,127
109378,note_off,101,0,0,,7,,,67,127
109378,note_off,0,0,0,,1,,,73,127
109381,note_on,3,0,0,,6,,,66,127
109381,note_on,0,0,0,,2,,,74,127
109482,note_off,101,0,0,,6,,,66,127
109485,note_on,3,0,0,,10,,,57,127
109586,note_off,101,0,0,,10,,,57,127
109586,note_off,0,0,0,,2,,,74,127
109589,note_on,3,0,0,,7,,,67,127
109589,note_on,0,0,0,,4,,,76,127
109690,note_off,101,0,0,,7,,,67,127
109693,note_on,3,0,0,,6,,,66,127
109794,note_off,101,0,0,,6,,,66,127
109797,note_on,3,0,0,,4,,,64,127
109898,note_off,101,0,0,,4,,,64,127
109901,note_on,3,0,0,,10,,,57,127
110002,note_off,101,0,0,,10,,,57,127
110002,note_off,0,0,0,,4,,,76,127
110005,note_on,3,0,0,,10,,,69,127
110005,note_on,0,0,0,,1,,,73,127
110106,note_off,101,0,0,,10,,,69,127
110109,note_on,3,0,0,,7,,,67,127
110210,note_off,101,0,0,,7,,,67,127
110210,note_off,0,0,0,,1,,,73,127
110213,note_on,3,0,0,,6,,,66,127
110213,note_on,0,0,0,,2,,,74,127
110314,note_off,101,0,0,,6,,,66,127
110316,note_on,2,0,0,,7,,,67,127
110417,note_off,101,0,0,,7,,,67,127
110418,note_off,1,0,0,,2,,,74,127
110421,note_on,3,0,0,,6,,,66,127
110421,note_on,0,0,0,,10,,,81,127
110522,note_off,101,0,0,,6,,,66,127
110525,note_on,3,0,0,,4,,,64,127
110626,note_off,101,0,0,,4,,,64,127
110629,note_on,3,0,0,,2,,,62,127
110730,note_off,101,0,0,,2,,,62,127
110733,note_on,3,0,0,,4,,,64,127
110834,note_off,101,0,0,,4,,,64,127
110834,note_off,0,0,0,,10,,,81,127
110837,note_on,3,0,0,,2,,,62,127
110837,note_on,0,0,0,,6,,,78,127
110938,note_off,101,0,0,,2,,,62,127
110941,note_on,3,0,0,,1,,,61,127
111042,note_off,101,0,0,,1,,,61,127
111042,note_off,0,0,0,,6,,,78,127
111045,note_on,3,0,0,,12,,,59,127
111045,note_on,0,0,0,,2,,,74,127
111146,note_off,101,0,0,,12,,,59,127
111149,note_on,3,0,0,,1,,,61,127
111250,note_off,101,0,0,,1,,,61,127
111250,note_off,0,0,0,,2,,,74,127
111252,note_on,2,0,0,,12,,,59,127
111252,note_on,0,0,0,,2,,,86,127
111353,note_off,101,0,0,,12,,,59,127
111357,note_on,4,0,0,,10,,,57,127
111458,note_off,101,0,0,,10,,,57,127
111461,note_on,3,0,0,,7,,,55,127
111562,note_off,101,0,0,,7,,,55,127
111565,note_on,3,0,0,,10,,,57,127
111665,note_off,100,0,0,,2,,,86,127
111666,note_off,1,0,0,,10,,,57,127
111669,note_on,3,0,0,,7,,,55,127
111669,note_on,0,0,0,,12,,,83,127
111770,note_off,101,0,0,,7,,,55,127
111773,note_on,3,0,0,,6,,,54,127
111874,note_off,101,0,0,,6,,,54,127
111874,note_off,0,0,0,,12,,,83,127
111877,note_on,3,0,0,,4,,,52,127
111877,note_on,0,0,0,,7,,,79,127
111978,note_off,101,0,0,,4,,,52,127
111981,note_on,3,0,0,,6,,,54,127
112082,note_off,101,0,0,,6,,,54,127
112085,note_on,3,0,0,,4,,,52,127
112186,note_off,101,0,0,,4,,,52,127
112189,note_on,3,0,0,,2,,,50,127
112290,note_off,101,0,0,,2,,,50,127
112293,note_on,3,0,0,,1,,,49,127
112394,note_off,101,0,0,,1,,,49,127
112397,note_on,3,0,0,,2,,,50,127
112498,note_off,101,0,0,,2,,,50,127
112498,note_off,0,0,0,,7,,,79,127
112501,note_on,3,0,0,,1,,,49,127
112501,note_on,0,0,0,,4,,,76,127
112602,note_off,101,0,0,,1,,,49,127
112605,note_on,3,0,0,,12,,,47,127
112706,note_off,101,0,0,,12,,,47,127
112706,note_off,0,0,0,,4,,,76,127
112709,note_on,3,0,0,,10,,,45,127
112709,note_on,0,0,0,,1,,,73,127
112810,note_off,101,0,0,,1,,,73,127
112813,note_on,3,0,0,,2,,,74,127
112914,note_off,101,0,0,,2,,,74,127
112916,note_on,2,0,0,,4,,,76,127
113017,note_off,101,0,0,,4,,,76,127
113021,note_on,4,0,0,,6,,,78,127
113122,note_off,101,0,0,,6,,,78,127
113125,note_on,3,0,0,,7,,,79,127
113226,note_off,101,0,0,,7,,,79,127
113228,note_off,2,0,0,,10,,,45,127
113229,note_on,1,0,0,,10,,,81,127
113330,note_off,101,0,0,,10,,,81,127
113333,note_on,3,0,0,,7,,,55,127
113333,note_on,0,0,0,,12,,,83,127
113434,note_off,101,0,0,,12,,,83,127
113437,note_on,3,0,0,,1,,,85,127
113538,note_off,101,0,0,,1,,,85,127
113538,note_off,0,0,0,,7,,,55,127
113541,note_on,3,0,0,,6,,,54,127
113541,note_on,0,0,0,,2,,,86,127
113642,note_off,101,0,0,,2,,,86,127
113645,note_on,3,0,0,,10,,,81,127
113746,note_off,101,0,0,,10,,,81,127
113746,note_off,0,0,0,,6,,,54,127
113749,note_on,3,0,0,,7,,,55,127
113749,note_on,0,0,0,,12,,,83,127
113850,note_off,101,0,0,,12,,,83,127
113852,note_on,2,0,0,,7,,,79,127
113953,note_off,101,0,0,,7,,,79,127
113954,note_off,1,0,0,,7,,,55,127
113957,note_on,3,0,0,,10,,,57,127
113957,note_on,0,0,0,,6,,,78,127
114058,note_off,101,0,0,,6,,,78,127
114061,note_on,3,0,0,,4,,,76,127
114162,note_off,101,0,0,,4,,,76,127
114165,note_on,3,0,0,,10,,,45,127
114165,note_on,0,0,0,,2,,,74,127
114266,note_off,101,0,0,,2,,,74,127
114269,note_on,3,0,0,,1,,,73,127
114368,note_off,99,0,0,,10,,,57,127
114370,note_off,2,0,0,,1,,,73,127
114370,note_off,0,0,0,,10,,,45,127
114373,note_on,3,0,0,,2,,,50,127
114373,note_on,0,0,0,,2,,,74,127
114474,note_off,101,0,0,,2,,,74,127
114477,note_on,3,0,0,,6,,,78,127
114578,note_off,101,0,0,,6,,,78,127
114578,note_off,0,0,0,,2,,,50,127
114581,note_on,3,0,0,,7,,,67,127
114581,note_on,0,0,0,,4,,,76,127
114682,note_off,101,0,0,,7,,,67,127
114685,note_on,3,0,0,,6,,,66,127
114786,note_off,101,0,0,,6,,,66,127
114789,note_on,3,0,0,,4,,,64,127
114890,note_off,101,0,0,,4,,,64,127
114893,note_on,3,0,0,,10,,,57,127
114994,note_off,101,0,0,,10,,,57,127
114994,note_off,0,0,0,,4,,,76,127
114997,note_on,3,0,0,,10,,,69,127
114997,note_on,0,0,0,,1,,,73,127
115098,note_off,101,0,0,,10,,,69,127
115101,note_on,3,0,0,,7,,,67,127
115202,note_off,101,0,0,,7,,,67,127
115202,note_off,0,0,0,,1,,,73,127
115205,note_on,3,0,0,,6,,,66,127
115205,note_on,0,0,0,,2,,,74,127
115306,note_off,101,0,0,,6,,,66,127
115309,note_on,3,0,0,,10,,,57,127
115410,note_off,101,0,0,,10,,,57,127
115410,note_off,0,0,0,,2,,,74,127
115413,note_on,3,0,0,,7,,,67,127
115413,note_on,0,0,0,,4,,,76,127
115514,note_off,101,0,0,,7,,,67,127
115516,note_on,2,0,0,,6,,,66,127
115617,note_off,101,0,0,,6,,,66,127
115621,note_on,4,0,0,,4,,,64,127
115722,note_off,101,0,0,,4,,,64,127
115725,note_on,3,0,0,,10,,,57,127
115826,note_off,101,0,0,,10,,,57,127
115826,note_off,0,0,0,,4,,,76,127
115829,note_on,3,0,0,,10,,,69,127
115829,note_on,0,0,0,,1,,,73,127
115930,note_off,101,0,0,,10,,,69,127
115933,note_on,3,0,0,,7,,,67,127
116034,note_off,101,0,0,,7,,,67,127
116034,note_off,0,0,0,,1,,,73,127
116037,note_on,3,0,0,,6,,,66,127
116037,note_on,0,0,0,,2,,,74,127
116138,note_off,101,0,0,,6,,,66,127
116141,note_on,3,0,0,,7,,,67,127
116242,note_off,101,0,0,,7,,,67,127
116242,note_off,0,0,0,,2,,,74,127
116245,note_on,3,0,0,,6,,,66,127
116245,note_on,0,0,0,,10,,,81,127
116346,note_off,101,0,0,,6,,,66,127
116349,note_on,3,0,0,,4,,,64,127
116450,note_off,101,0,0,,4,,,64,127
116452,note_on,2,0,0,,2,,,62,127
116553,note_off,101,0,0,,2,,,62,127
116557,note_on,4,0,0,,4,,,64,127
116658,note_off,101,0,0,,4,,,64,127
116658,note_off,0,0,0,,10,,,81,127
116661,note_on,3,0,0,,2,,,62,127
116661,note_on,0,0,0,,6,,,78,127
116762,note_off,101,0,0,,2,,,62,127
116765,note_on,3,0,0,,1,,,61,127
116866,note_off,101,0,0,,1,,,61,127
116866,note_off,0,0,0,,6,,,78,127
116869,note_on,3,0,0,,12,,,59,127
116869,note_on,0,0,0,,2,,,74,127
116970,note_off,101,0,0,,12,,,59,127
116973,note_on,3,0,0,,1,,,61,127
117074,note_off,101,0,0,,1,,,61,127
117074,note_off,0,0,0,,2,,,74,127
117077,note_on,3,0,0,,12,,,59,127
117077,note_on,0,0,0,,2,,,86,127
117178,note_off,101,0,0,,12,,,59,127
117181,note_on,3,0,0,,10,,,57,127
117282,note_off,101,0,0,,10,,,57,127
117285,note_on,3,0,0,,7,,,55,127
117386,note_off,101,0,0,,7,,,55,127
117389,note_on,3,0,0,,10,,,57,127
117490,note_off,101,0,0,,10,,,57,127
117490,note_off,0,0,0,,2,,,86,127
117493,note_on,3,0,0,,7,,,55,127
117493,note_on,0,0,0,,12,,,83,127
117594,note_off,101,0,0,,7,,,55,127
117597,note_on,3,0,0,,6,,,54,127
117698,note_off,101,0,0,,6,,,54,127
117698,note_off,0,0,0,,12,,,83,127
117701,note_on,3,0,0,,4,,,52,127
117701,note_on,0,0,0,,7,,,79,127
117802,note_off,101,0,0,,4,,,52,127
117805,note_on,3,0,0,,6,,,54,127
117906,note_off,101,0,0,,6,,,54,127
117909,note_on,3,0,0,,4,,,52,127
118010,note_off,101,0,0,,4,,,52,127
118013,note_on,3,0,0,,2,,,50,127
118114,note_off,101,0,0,,2,,,50,127
118116,note_on,2,0,0,,1,,,49,127
118217,note_off,101,0,0,,1,,,49,127
118221,note_on,4,0,0,,2,,,50,127
118322,note_off,101,0,0,,2,,,50,127
118322,note_off,0,0,0,,7,,,79,127
118325,note_on,3,0,0,,1,,,49,127
118325,note_on,0,0,0,,4,,,76,127
118426,note_off,101,0,0,,1,,,49,127
118429,note_on,3,0,0,,12,,,47,127
118530,note_off,101,0,0,,12,,,47,127
118530,note_off,0,0,0,,4,,,76,127
118533,note_on,3,0,0,,10,,,45,127
118533,note_on,0,0,0,,1,,,73,127
118634,note_off,101,0,0,,1,,,73,127
118637,note_on,3,0,0,,2,,,74,127
118738,note_off,101,0,0,,2,,,74,127
118741,note_on,3,0,0,,4,,,76,127
118842,note_off,101,0,0,,4,,,76,127
118845,note_on,3,0,0,,6,,,78,127
118946,note_off,101,0,0,,6,,,78,127
118949,note_on,3,0,0,,7,,,79,127
119050,note_off,101,0,0,,7,,,79,127
119052,note_off,2,0,0,,10,,,45,127
119052,note_on,0,0,0,,10,,,81,127
119153,note_off,101,0,0,,10,,,81,127
119157,note_on,4,0,0,,7,,,55,127
119157,note_on,0,0,0,,12,,,83,127
119258,note_off,101,0,0,,12,,,83,127
119261,note_on,3,0,0,,1,,,85,127
119362,note_off,101,0,0,,1,,,85,127
119362,note_off,0,0,0,,7,,,55,127
119365,note_on,3,0,0,,6,,,54,127
119365,note_on,0,0,0,,2,,,86,127
119466,note_off,101,0,0,,2,,,86,127
119469,note_on,3,0,0,,10,,,81,127
119570,note_off,101,0,0,,10,,,81,127
119570,note_off,0,0,0,,6,,,54,127
119573,note_on,3,0,0,,7,,,55,127
119573,note_on,0,0,0,,12,,,83,127
119674,note_off,101,0,0,,12,,,83,127
119677,note_on,3,0,0,,7,,,79,127
119778,note_off,101,0,0,,7,,,79,127
119778,note_off,0,0,0,,7,,,55,127
119781,note_on,3,0,0,,10,,,57,127
119781,note_on,0,0,0,,6,,,78,127
119882,note_off,101,0,0,,6,,,78,127
119885,note_on,3,0,0,,4,,,76,127
119986,note_off,101,0,0,,4,,,76,127
119989,note_on,3,0,0,,10,,,45,127
119989,note_on,0,0,0,,2,,,74,127
120090,note_off,101,0,0,,2,,,74,127
120093,note_on,3,0,0,,4,,,76,127
120192,note_off,99,0,0,,10,,,57,127
120194,note_off,2,0,0,,4,,,76,127
120194,note_off,0,0,0,,10,,,45,127
120197,note_on,3,0,0,,2,,,50,127
120197,note_on,0,0,0,,6,,,78,127
120298,note_off,101,0,0,,6,,,78,127
120301,note_on,3,0,0,,2,,,74,127
120402,note_off,101,0,0,,2,,,74,127
120402,note_off,0,0,0,,2,,,50,127
120405,note_on,3,0,0,,7,,,55,127
120405,note_on,0,0,0,,1,,,85,127
120506,note_off,101,0,0,,1,,,85,127
120509,note_on,3,0,0,,2,,,86,127
120610,note_off,101,0,0,,2,,,86,127
120610,note_off,0,0,0,,7,,,55,127
120613,note_on,3,0,0,,10,,,57,127
120613,note_on,0,0,0,,4,,,76,127
120714,note_off,101,0,0,,4,,,76,127
120716,note_on,2,0,0,,6,,,78,127
120817,note_off,101,0,0,,6,,,78,127
120821,note_on,4,0,0,,10,,,45,127
120821,note_on,0,0,0,,7,,,79,127
120922,note_off,101,0,0,,7,,,79,127
120925,note_on,3,0,0,,4,,,76,127
121024,note_off,99,0,0,,10,,,57,127
121026,note_off,2,0,0,,4,,,76,127
121026,note_off,0,0,0,,10,,,45,127
121029,note_on,3,0,0,,2,,,50,127
121029,note_on,0,0,0,,6,,,78,127
121130,note_off,101,0,0,,6,,,78,127
121133,note_on,3,0,0,,2,,,74,127
121234,note_off,101,0,0,,2,,,74,127
121234,note_off,0,0,0,,2,,,50,127
121237,note_on,3,0,0,,7,,,55,127
121237,note_on,0,0,0,,1,,,85,127
121338,note_off,101,0,0,,1,,,85,127
121341,note_on,3,0,0,,2,,,86,127
121442,note_off,101,0,0,,2,,,86,127
121442,note_off,0,0,0,,7,,,55,127
121445,note_on,3,0,0,,10,,,57,127
121445,note_on,0,0,0,,4,,,76,127
121546,note_off,101,0,0,,4,,,76,127
121549,note_on,3,0,0,,6,,,78,127
121650,note_off,101,0,0,,6,,,78,127
121652,note_on,2,0,0,,10,,,45,127
121652,note_on,0,0,0,,7,,,79,127
121753,note_off,101,0,0,,7,,,79,127
121757,note_on,4,0,0,,4,,,76,127
121856,note_off,99,0,0,,10,,,57,127
121857,note_off,1,0,0,,10,,,45,127
121858,note_off,1,0,0,,4,,,76,127
121861,note_on,3,0,0,,2,,,50,127
121861,note_on,0,0,0,,6,,,78,127
121962,note_off,101,0,0,,6,,,78,127
121965,note_on,3,0,0,,2,,,74,127
122066,note_off,101,0,0,,2,,,74,127
122066,note_off,0,0,0,,2,,,50,127
122069,note_on,3,0,0,,7,,,55,127
122069,note_on,0,0,0,,1,,,73,127
122170,note_off,101,0,0,,1,,,73,127
122173,note_on,3,0,0,,2,,,74,127
122274,note_off,101,0,0,,2,,,74,127
122274,note_off,0,0,0,,7,,,55,127
122277,note_on,3,0,0,,10,,,57,127
122277,note_on,0,0,0,,4,,,64,127
122378,note_off,101,0,0,,4,,,64,127
122381,note_on,3,0,0,,6,,,66,127
122482,note_off,101,0,0,,6,,,66,127
122485,note_on,3,0,0,,10,,,45,127
122485,note_on,0,0,0,,7,,,67,127
122586,note_off,101,0,0,,7,,,67,127
122589,note_on,3,0,0,,4,,,64,127
122688,note_off,99,0,0,,10,,,57,127
122690,note_off,2,0,0,,4,,,64,127
122690,note_off,0,0,0,,10,,,45,127
122693,note_on,3,0,0,,2,,,50,127
122693,note_on,0,0,0,,6,,,66,127
122794,note_off,101,0,0,,6,,,66,127
122797,note_on,3,0,0,,2,,,62,127
122898,note_off,101,0,0,,2,,,62,127
122898,note_off,0,0,0,,2,,,50,127
122901,note_on,3,0,0,,7,,,55,127
122901,note_on,0,0,0,,1,,,73,127
123002,note_off,101,0,0,,1,,,73,127
123005,note_on,3,0,0,,2,,,74,127
123106,note_off,101,0,0,,2,,,74,127
123106,note_off,0,0,0,,7,,,55,127
123109,note_on,3,0,0,,10,,,57,127
123109,note_on,0,0,0,,4,,,64,127
123210,note_off,101,0,0,,4,,,64,127
123213,note_on,3,0,0,,6,,,66,127
123314,note_off,101,0,0,,6,,,66,127
123316,note_on,2,0,0,,10,,,45,127
123316,note_on,0,0,0,,7,,,67,127
123417,note_off,101,0,0,,7,,,67,127
123421,note_on,4,0,0,,4,,,64,127
123520,note_off,99,0,0,,10,,,57,127
123521,note_off,1,0,0,,10,,,45,127
123522,note_off,1,0,0,,4,,,64,127
123525,note_on,3,0,0,,2,,,50,127
123525,note_on,0,0,0,,6,,,66,127
123626,note_off,101,0,0,,6,,,66,127
123629,note_on,3,0,0,,2,,,74,127
123730,note_off,101,0,0,,2,,,74,127
123730,note_off,0,0,0,,2,,,50,127
123733,note_on,3,0,0,,7,,,55,127
123733,note_on,0,0,0,,12,,,71,127
123834,note_off,101,0,0,,12,,,71,127
123837,note_on,3,0,0,,7,,,67,127
123938,note_off,101,0,0,,7,,,67,127
123938,note_off,0,0,0,,7,,,55,127
123941,note_on,3,0,0,,10,,,57,127
123941,note_on,0,0,0,,6,,,66,127
124042,note_off,101,0,0,,6,,,66,127
124045,note_on,3,0,0,,2,,,74,127
124146,note_off,101,0,0,,2,,,74,127
124149,note_on,3,0,0,,10,,,45,127
124149,note_on,0,0,0,,4,,,64,127
124250,note_off,101,0,0,,4,,,64,127
124252,note_off,2,0,0,,10,,,57,127
124252,note_on,0,0,0,,1,,,73,127
124353,note_off,101,0,0,,1,,,73,127
124354,note_off,1,0,0,,10,,,45,127
124357,note_on,3,0,0,,2,,,38,127
124357,note_on,0,0,0,,2,,,74,127
124458,note_off,101,0,0,,2,,,74,127
124461,note_on,3,0,0,,10,,,69,127
124562,note_off,101,0,0,,10,,,69,127
124565,note_on,3,0,0,,6,,,66,127
124666,note_off,101,0,0,,6,,,66,127
124669,note_on,3,0,0,,10,,,69,127
124770,note_off,101,0,0,,10,,,69,127
124773,note_on,3,0,0,,2,,,62,127
124874,note_off,101,0,0,,2,,,62,127
124877,note_on,3,0,0,,6,,,66,127
124978,note_off,101,0,0,,6,,,66,127
124981,note_on,3,0,0,,10,,,57,127
125082,note_off,101,0,0,,10,,,57,127
125085,note_on,3,0,0,,2,,,62,127
125186,note_off,101,0,0,,2,,,62,127
125189,note_on,3,0,0,,6,,,54,127
125290,note_off,101,0,0,,6,,,54,127
125293,note_on,3,0,0,,10,,,57,127
125394,note_off,101,0,0,,10,,,57,127
125397,note_on,3,0,0,,2,,,50,127
125498,note_off,101,0,0,,2,,,50,127
125501,note_on,3,0,0,,6,,,54,127
125602,note_off,101,0,0,,6,,,54,127
125605,note_on,3,0,0,,10,,,45,127
125706,note_off,101,0,0,,10,,,45,127
125709,note_on,3,0,0,,2,,,50,127
125810,note_off,101,0,0,,2,,,50,127
125813,note_on,3,0,0,,6,,,42,127
125914,note_off,101,0,0,,6,,,42,127
125916,note_on,2,0,0,,10,,,45,127
126014,note_off,98,0,0,,2,,,38,127
126017,note_off,3,0,0,,10,,,45,127
126021,note_on,4,0,0,,2,,,38,127
127691,note_off,1670,0,0,,2,,,38,127
130560,end_of_track,2869,1,0,,,,,,
