tick,type,time,meta,track,program,channel,pitch,tempo,note,velocity
0,copyright,0,1,0,,,,,,
0,program_change,0,0,0,6,0,,,,
0,pitchwheel,0,0,0,,0,0,,,
0,program_change,0,0,0,6,1,,,,
0,pitchwheel,0,0,0,,1,-590,,,
0,program_change,0,0,0,6,2,,,,
0,pitchwheel,0,0,0,,2,-272,,,
0,program_change,0,0,0,6,3,,,,
0,pitchwheel,0,0,0,,3,-353,,,
0,program_change,0,0,0,6,4,,,,
0,pitchwheel,0,0,0,,4,-560,,,
0,program_change,0,0,0,6,5,,,,
0,pitchwheel,0,0,0,,5,-80,,,
0,program_change,0,0,0,6,6,,,,
0,pitchwheel,0,0,0,,6,-625,,,
0,program_change,0,0,0,6,7,,,,
0,pitchwheel,0,0,0,,7,-130,,,
0,program_change,0,0,0,6,8,,,,
0,pitchwheel,0,0,0,,8,-512,,,
0,program_change,0,0,0,6,10,,,,
0,pitchwheel,0,0,0,,10,-464,,,
0,program_change,0,0,0,6,11,,,,
0,pitchwheel,0,0,0,,11,-208,,,
0,program_change,0,0,0,6,12,,,,
0,pitchwheel,0,0,0,,12,-553,,,
0,set_tempo,0,1,0,,,,500000,,
144,note_on,144,0,0,,7,,,55,127
144,note_on,0,0,0,,12,,,59,127
333,note_off,189,0,0,,12,,,59,127
333,note_off,0,0,0,,7,,,55,127
336,note_on,3,0,0,,6,,,54,127
336,note_on,0,0,0,,10,,,57,127
429,note_off,93,0,0,,10,,,57,127
429,note_off,0,0,0,,6,,,54,127
432,note_on,3,0,0,,7,,,55,127
432,note_on,0,0,0,,12,,,59,127
621,note_off,189,0,0,,12,,,59,127
621,note_off,0,0,0,,7,,,55,127
624,note_on,3,0,0,,10,,,57,127
624,note_on,0,0,0,,0,,,60,127
717,note_off,93,0,0,,0,,,60,127
717,note_off,0,0,0,,10,,,57,127
720,note_on,3,0,0,,12,,,59,127
720,note_on,0,0,0,,2,,,62,127
1005,note_off,285,0,0,,2,,,62,127
1005,note_off,0,0,0,,12,,,59,127
1008,note_on,3,0,0,,0,,,60,127
1008,note_on,0,0,0,,4,,,64,127
1293,note_off,285,0,0,,4,,,64,127
1293,note_off,0,0,0,,0,,,60,127
1296,note_on,3,0,0,,2,,,62,127
1296,note_on,0,0,0,,6,,,66,127
1581,note_off,285,0,0,,6,,,66,127
1581,note_off,0,0,0,,2,,,62,127
1584,note_on,3,0,0,,12,,,59,127
1584,note_on,0,0,0,,7,,,67,127
1869,note_off,285,0,0,,7,,,67,127
1869,note_off,0,0,0,,12,,,59,127
1872,note_on,3,0,0,,0,,,60,127
1872,note_on,0,0,0,,10,,,69,127
2157,note_off,285,0,0,,10,,,69,127
2157,note_off,0,0,0,,0,,,60,127
2160,note_on,3,0,0,,2,,,62,127
2160,note_on,0,0,0,,12,,,71,127
2385,note_off,225,0,0,,12,,,71,127
2445,note_off,60,0,0,,2,,,62,127
2448,note_on,3,0,0,,4,,,64,127
2448,note_on,0,0,0,,4,,,76,127
2733,note_off,285,0,0,,4,,,64,127
2736,note_on,3,0,0,,6,,,66,127
2829,note_off,93,0,0,,4,,,76,127
2832,note_on,3,0,0,,2,,,74,127
2925,note_off,93,0,0,,2,,,74,127
2928,note_on,3,0,0,,0,,,72,127
3021,note_off,93,0,0,,0,,,72,127
3021,note_off,0,0,0,,6,,,66,127
3024,note_on,3,0,0,,7,,,67,127
3024,note_on,0,0,0,,12,,,71,127
3309,note_off,285,0,0,,7,,,67,127
3312,note_on,3,0,0,,0,,,60,127
3405,note_off,93,0,0,,12,,,71,127
3408,note_on,3,0,0,,10,,,69,127
3501,note_off,93,0,0,,10,,,69,127
3504,note_on,3,0,0,,7,,,67,127
3597,note_off,93,0,0,,7,,,67,127
3597,note_off,0,0,0,,0,,,60,127
3600,note_on,3,0,0,,2,,,62,127
3600,note_on,0,0,0,,6,,,66,127
3885,note_off,285,0,0,,6,,,66,127
3885,note_off,0,0,0,,2,,,62,127
3888,note_on,3,0,0,,0,,,60,127
3888,note_on,0,0,0,,4,,,64,127
4173,note_off,285,0,0,,4,,,64,127
4173,note_off,0,0,0,,0,,,60,127
4176,note_on,3,0,0,,12,,,59,127
4176,note_on,0,0,0,,2,,,62,127
4461,note_off,285,0,0,,2,,,62,127
4461,note_off,0,0,0,,12,,,59,127
4464,note_on,3,0,0,,10,,,57,127
4464,note_on,0,0,0,,0,,,60,127
4704,note_off,240,0,0,,0,,,60,127
4749,note_off,45,0,0,,10,,,57,127
4752,note_on,3,0,0,,7,,,55,127
4752,note_on,0,0,0,,12,,,59,127
4941,note_off,189,0,0,,12,,,59,127
4941,note_off,0,0,0,,7,,,55,127
4944,note_on,3,0,0,,6,,,54,127
4944,note_on,0,0,0,,10,,,57,127
5037,note_off,93,0,0,,10,,,57,127
5037,note_off,0,0,0,,6,,,54,127
5040,note_on,3,0,0,,7,,,55,127
5040,note_on,0,0,0,,12,,,59,127
5229,note_off,189,0,0,,12,,,59,127
5229,note_off,0,0,0,,7,,,55,127
5232,note_on,3,0,0,,10,,,57,127
5232,note_on,0,0,0,,0,,,60,127
5325,note_off,93,0,0,,0,,,60,127
5325,note_off,0,0,0,,10,,,57,127
5328,note_on,3,0,0,,12,,,59,127
5328,note_on,0,0,0,,2,,,62,127
5613,note_off,285,0,0,,2,,,62,127
5613,note_off,0,0,0,,12,,,59,127
5616,note_on,3,0,0,,0,,,60,127
5616,note_on,0,0,0,,4,,,64,127
5901,note_off,285,0,0,,4,,,64,127
5901,note_off,0,0,0,,0,,,60,127
5904,note_on,3,0,0,,2,,,62,127
5904,note_on,0,0,0,,6,,,66,127
6189,note_off,285,0,0,,6,,,66,127
6189,note_off,0,0,0,,2,,,62,127
6192,note_on,3,0,0,,12,,,59,127
6192,note_on,0,0,0,,7,,,67,127
6477,note_off,285,0,0,,7,,,67,127
6477,note_off,0,0,0,,12,,,59,127
6480,note_on,3,0,0,,0,,,60,127
6480,note_on,0,0,0,,10,,,69,127
6765,note_off,285,0,0,,10,,,69,127
6765,note_off,0,0,0,,0,,,60,127
6768,note_on,3,0,0,,2,,,62,127
6768,note_on,0,0,0,,12,,,71,127
7017,note_off,249,0,0,,12,,,71,127
7053,note_off,36,0,0,,2,,,62,127
7056,note_on,3,0,0,,4,,,64,127
7056,note_on,0,0,0,,0,,,72,127
7149,note_off,93,0,0,,0,,,72,127
7152,note_on,3,0,0,,2,,,74,127
7245,note_off,93,0,0,,2,,,74,127
7248,note_on,3,0,0,,4,,,76,127
7341,note_off,93,0,0,,4,,,64,127
7344,note_on,3,0,0,,6,,,66,127
7437,note_off,93,0,0,,4,,,76,127
7440,note_on,3,0,0,,2,,,74,127
7533,note_off,93,0,0,,2,,,74,127
7536,note_on,3,0,0,,0,,,72,127
7629,note_off,93,0,0,,0,,,72,127
7629,note_off,0,0,0,,6,,,66,127
7632,note_on,3,0,0,,7,,,67,127
7632,note_on,0,0,0,,7,,,79,127
7632,note_on,0,0,0,,12,,,71,127
7917,note_off,285,0,0,,12,,,71,127
7917,note_off,0,0,0,,7,,,67,127
7920,note_on,3,0,0,,4,,,64,127
7920,note_on,0,0,0,,1,,,73,127
8205,note_off,285,0,0,,1,,,73,127
8205,note_off,0,0,0,,4,,,64,127
8208,note_on,3,0,0,,2,,,62,127
8208,note_on,0,0,0,,2,,,74,127
8493,note_off,285,0,0,,2,,,62,127
8495,note_off,2,0,0,,7,,,79,127
8497,note_on,2,0,0,,4,,,64,127
8497,note_on,0,0,0,,6,,,78,127
8638,note_off,141,0,0,,6,,,78,127
8641,note_on,3,0,0,,4,,,76,127
8779,note_off,138,0,0,,2,,,74,127
8782,note_off,3,0,0,,4,,,76,127
8782,note_off,0,0,0,,4,,,64,127
8785,note_on,3,0,0,,6,,,66,127
8785,note_on,0,0,0,,2,,,74,127
9070,note_off,285,0,0,,2,,,74,127
9070,note_off,0,0,0,,6,,,66,127
9073,note_on,3,0,0,,2,,,62,127
9073,note_on,0,0,0,,1,,,73,127
9073,note_on,0,0,0,,10,,,81,127
9358,note_off,285,0,0,,1,,,73,127
9358,note_off,0,0,0,,2,,,62,127
9361,note_on,3,0,0,,7,,,67,127
9361,note_on,0,0,0,,12,,,71,127
9643,note_off,282,0,0,,10,,,81,127
9649,note_on,6,0,0,,7,,,79,127
9790,note_off,141,0,0,,7,,,79,127
9793,note_on,3,0,0,,6,,,78,127
9931,note_off,138,0,0,,12,,,71,127
9934,note_off,3,0,0,,6,,,78,127
9934,note_off,0,0,0,,7,,,67,127
9937,note_on,3,0,0,,7,,,55,127
9937,note_on,0,0,0,,12,,,83,127
9937,note_on,0,0,0,,4,,,76,127
10222,note_off,285,0,0,,4,,,76,127
10225,note_on,3,0,0,,2,,,74,127
10507,note_off,282,0,0,,12,,,83,127
10510,note_off,3,0,0,,2,,,74,127
10510,note_off,0,0,0,,7,,,55,127
10513,note_on,3,0,0,,10,,,57,127
10513,note_on,0,0,0,,10,,,81,127
10513,note_on,0,0,0,,1,,,73,127
10606,note_off,93,0,0,,1,,,73,127
10693,note_off,87,0,0,,10,,,81,127
10705,note_on,12,0,0,,7,,,79,127
10798,note_off,93,0,0,,7,,,79,127
10801,note_on,3,0,0,,6,,,78,127
10894,note_off,93,0,0,,6,,,78,127
10897,note_on,3,0,0,,4,,,76,127
10990,note_off,93,0,0,,4,,,76,127
10993,note_on,3,0,0,,2,,,74,127
11086,note_off,93,0,0,,2,,,74,127
11089,note_on,3,0,0,,1,,,73,127
11182,note_off,93,0,0,,1,,,73,127
11185,note_on,3,0,0,,12,,,71,127
11278,note_off,93,0,0,,12,,,71,127
11281,note_on,3,0,0,,10,,,69,127
11374,note_off,93,0,0,,10,,,69,127
11376,note_off,2,0,0,,10,,,57,127
11378,note_on,2,0,0,,7,,,67,127
11471,note_off,93,0,0,,7,,,67,127
11474,note_on,3,0,0,,6,,,66,127
11567,note_off,93,0,0,,6,,,66,127
11570,note_on,3,0,0,,4,,,64,127
11663,note_off,93,0,0,,4,,,64,127
11666,note_on,3,0,0,,2,,,62,127
11666,note_on,0,0,0,,6,,,66,127
11855,note_off,189,0,0,,6,,,66,127
11855,note_off,0,0,0,,2,,,62,127
11858,note_on,3,0,0,,1,,,61,127
11858,note_on,0,0,0,,4,,,64,127
11951,note_off,93,0,0,,4,,,64,127
11951,note_off,0,0,0,,1,,,61,127
11954,note_on,3,0,0,,2,,,62,127
11954,note_on,0,0,0,,6,,,66,127
12143,note_off,189,0,0,,6,,,66,127
12143,note_off,0,0,0,,2,,,62,127
12146,note_on,3,0,0,,4,,,64,127
12146,note_on,0,0,0,,7,,,67,127
12239,note_off,93,0,0,,7,,,67,127
12239,note_off,0,0,0,,4,,,64,127
12242,note_on,3,0,0,,6,,,66,127
12242,note_on,0,0,0,,10,,,69,127
12527,note_off,285,0,0,,10,,,69,127
12527,note_off,0,0,0,,6,,,66,127
12530,note_on,3,0,0,,7,,,67,127
12530,note_on,0,0,0,,12,,,71,127
12815,note_off,285,0,0,,12,,,71,127
12815,note_off,0,0,0,,7,,,67,127
12818,note_on,3,0,0,,10,,,69,127
12818,note_on,0,0,0,,1,,,73,127
13103,note_off,285,0,0,,1,,,73,127
13103,note_off,0,0,0,,10,,,69,127
13106,note_on,3,0,0,,6,,,66,127
13106,note_on,0,0,0,,2,,,74,127
13391,note_off,285,0,0,,2,,,74,127
13391,note_off,0,0,0,,6,,,66,127
13394,note_on,3,0,0,,7,,,67,127
13394,note_on,0,0,0,,4,,,76,127
13679,note_off,285,0,0,,4,,,76,127
13679,note_off,0,0,0,,7,,,67,127
13682,note_on,3,0,0,,10,,,69,127
13682,note_on,0,0,0,,6,,,78,127
13898,note_off,216,0,0,,6,,,78,127
13967,note_off,69,0,0,,10,,,69,127
13970,note_on,3,0,0,,12,,,71,127
13970,note_on,0,0,0,,12,,,83,127
14255,note_off,285,0,0,,12,,,71,127
14258,note_on,3,0,0,,1,,,73,127
14351,note_off,93,0,0,,12,,,83,127
14354,note_on,3,0,0,,10,,,81,127
14447,note_off,93,0,0,,10,,,81,127
14450,note_on,3,0,0,,7,,,79,127
14543,note_off,93,0,0,,7,,,79,127
14543,note_off,0,0,0,,1,,,73,127
14546,note_on,3,0,0,,2,,,74,127
14546,note_on,0,0,0,,6,,,78,127
14831,note_off,285,0,0,,2,,,74,127
14834,note_on,3,0,0,,7,,,67,127
14927,note_off,93,0,0,,6,,,78,127
14930,note_on,3,0,0,,4,,,76,127
15023,note_off,93,0,0,,4,,,76,127
15026,note_on,3,0,0,,2,,,74,127
15119,note_off,93,0,0,,2,,,74,127
15119,note_off,0,0,0,,7,,,67,127
15122,note_on,3,0,0,,10,,,69,127
15122,note_on,0,0,0,,1,,,73,127
15407,note_off,285,0,0,,1,,,73,127
15407,note_off,0,0,0,,10,,,69,127
15410,note_on,3,0,0,,7,,,67,127
15410,note_on,0,0,0,,12,,,71,127
15695,note_off,285,0,0,,12,,,71,127
15695,note_off,0,0,0,,7,,,67,127
15698,note_on,3,0,0,,6,,,66,127
15698,note_on,0,0,0,,10,,,69,127
15983,note_off,285,0,0,,10,,,69,127
15983,note_off,0,0,0,,6,,,66,127
15986,note_on,3,0,0,,4,,,64,127
15986,note_on,0,0,0,,7,,,67,127
16211,note_off,225,0,0,,7,,,67,127
16263,note_off,52,0,0,,4,,,64,127
16273,note_on,10,0,0,,2,,,62,127
16273,note_on,0,0,0,,6,,,66,127
16462,note_off,189,0,0,,6,,,66,127
16462,note_off,0,0,0,,2,,,62,127
16465,note_on,3,0,0,,1,,,61,127
16465,note_on,0,0,0,,4,,,64,127
16558,note_off,93,0,0,,4,,,64,127
16558,note_off,0,0,0,,1,,,61,127
16561,note_on,3,0,0,,2,,,62,127
16561,note_on,0,0,0,,6,,,66,127
16750,note_off,189,0,0,,6,,,66,127
16750,note_off,0,0,0,,2,,,62,127
16753,note_on,3,0,0,,4,,,64,127
16753,note_on,0,0,0,,7,,,67,127
16846,note_off,93,0,0,,7,,,67,127
16846,note_off,0,0,0,,4,,,64,127
16849,note_on,3,0,0,,6,,,66,127
16849,note_on,0,0,0,,10,,,69,127
17134,note_off,285,0,0,,10,,,69,127
17134,note_off,0,0,0,,6,,,66,127
17137,note_on,3,0,0,,7,,,67,127
17137,note_on,0,0,0,,12,,,71,127
17422,note_off,285,0,0,,12,,,71,127
17422,note_off,0,0,0,,7,,,67,127
17425,note_on,3,0,0,,10,,,69,127
17425,note_on,0,0,0,,1,,,73,127
17710,note_off,285,0,0,,1,,,73,127
17710,note_off,0,0,0,,10,,,69,127
17713,note_on,3,0,0,,6,,,66,127
17713,note_on,0,0,0,,2,,,74,127
17998,note_off,285,0,0,,2,,,74,127
17998,note_off,0,0,0,,6,,,66,127
18001,note_on,3,0,0,,7,,,67,127
18001,note_on,0,0,0,,4,,,76,127
18286,note_off,285,0,0,,4,,,76,127
18286,note_off,0,0,0,,7,,,67,127
18289,note_on,3,0,0,,10,,,69,127
18289,note_on,0,0,0,,6,,,78,127
18508,note_off,219,0,0,,6,,,78,127
18574,note_off,66,0,0,,10,,,69,127
18577,note_on,3,0,0,,12,,,71,127
18577,note_on,0,0,0,,7,,,79,127
18670,note_off,93,0,0,,7,,,79,127
18673,note_on,3,0,0,,10,,,81,127
18766,note_off,93,0,0,,10,,,81,127
18769,note_on,3,0,0,,12,,,83,127
18862,note_off,93,0,0,,12,,,71,127
18865,note_on,3,0,0,,1,,,73,127
18958,note_off,93,0,0,,12,,,83,127
18961,note_on,3,0,0,,10,,,81,127
19054,note_off,93,0,0,,10,,,81,127
19057,note_on,3,0,0,,7,,,79,127
19150,note_off,93,0,0,,7,,,79,127
19150,note_off,0,0,0,,1,,,73,127
19153,note_on,3,0,0,,2,,,74,127
19153,note_on,0,0,0,,6,,,78,127
19438,note_off,285,0,0,,6,,,78,127
19438,note_off,0,0,0,,2,,,74,127
19441,note_on,3,0,0,,1,,,73,127
19441,note_on,0,0,0,,4,,,76,127
19726,note_off,285,0,0,,4,,,76,127
19726,note_off,0,0,0,,1,,,73,127
19729,note_on,3,0,0,,12,,,71,127
19729,note_on,0,0,0,,2,,,74,127
19729,note_on,0,0,0,,6,,,78,127
20014,note_off,285,0,0,,2,,,74,127
20014,note_off,0,0,0,,12,,,71,127
20017,note_on,3,0,0,,10,,,69,127
20017,note_on,0,0,0,,1,,,73,127
20299,note_off,282,0,0,,6,,,78,127
20302,note_off,3,0,0,,1,,,73,127
20302,note_off,0,0,0,,10,,,69,127
20305,note_on,3,0,0,,7,,,67,127
20305,note_on,0,0,0,,12,,,71,127
20305,note_on,0,0,0,,6,,,78,127
20590,note_off,285,0,0,,12,,,71,127
20590,note_off,0,0,0,,7,,,67,127
20593,note_on,3,0,0,,6,,,66,127
20593,note_on,0,0,0,,11,,,70,127
20878,note_off,285,0,0,,11,,,70,127
20878,note_off,0,0,0,,6,,,66,127
20881,note_on,3,0,0,,7,,,67,127
20881,note_on,0,0,0,,12,,,71,127
21167,note_off,286,0,0,,6,,,78,127
21169,note_on,2,0,0,,4,,,76,127
21451,note_off,282,0,0,,12,,,71,127
21454,note_off,3,0,0,,4,,,76,127
21454,note_off,0,0,0,,7,,,67,127
21457,note_on,3,0,0,,6,,,66,127
21457,note_on,0,0,0,,3,,,75,127
21742,note_off,285,0,0,,6,,,66,127
21745,note_on,3,0,0,,4,,,64,127
21745,note_on,0,0,0,,10,,,69,127
21838,note_off,93,0,0,,10,,,69,127
21841,note_on,3,0,0,,12,,,71,127
21934,note_off,93,0,0,,12,,,71,127
21937,note_on,3,0,0,,0,,,72,127
22027,note_off,90,0,0,,3,,,75,127
22030,note_off,3,0,0,,0,,,72,127
22030,note_off,0,0,0,,4,,,64,127
22033,note_on,3,0,0,,3,,,63,127
22033,note_on,0,0,0,,12,,,71,127
22318,note_off,285,0,0,,3,,,63,127
22321,note_on,3,0,0,,12,,,59,127
22321,note_on,0,0,0,,6,,,78,127
22414,note_off,93,0,0,,6,,,78,127
22417,note_on,3,0,0,,7,,,79,127
22510,note_off,93,0,0,,7,,,79,127
22513,note_on,3,0,0,,10,,,81,127
22606,note_off,93,0,0,,10,,,81,127
22606,note_off,0,0,0,,12,,,59,127
22609,note_on,3,0,0,,4,,,64,127
22609,note_on,0,0,0,,7,,,79,127
22894,note_off,285,0,0,,7,,,79,127
22896,note_off,2,0,0,,12,,,71,127
22898,note_on,2,0,0,,10,,,69,127
22898,note_on,0,0,0,,5,,,77,127
23183,note_off,285,0,0,,5,,,77,127
23183,note_off,0,0,0,,10,,,69,127
23186,note_on,3,0,0,,8,,,68,127
23186,note_on,0,0,0,,4,,,76,127
23435,note_off,249,0,0,,4,,,64,127
23471,note_off,36,0,0,,8,,,68,127
23474,note_on,3,0,0,,4,,,64,127
23474,note_on,0,0,0,,12,,,83,127
23567,note_off,93,0,0,,12,,,83,127
23570,note_on,3,0,0,,0,,,84,127
23663,note_off,93,0,0,,0,,,84,127
23666,note_on,3,0,0,,2,,,86,127
23759,note_off,93,0,0,,2,,,86,127
23759,note_off,0,0,0,,4,,,64,127
23762,note_on,3,0,0,,10,,,69,127
23762,note_on,0,0,0,,0,,,84,127
24047,note_off,285,0,0,,0,,,84,127
24049,note_off,2,0,0,,4,,,76,127
24051,note_on,2,0,0,,2,,,74,127
24051,note_on,0,0,0,,11,,,82,127
24336,note_off,285,0,0,,11,,,82,127
24336,note_off,0,0,0,,2,,,74,127
24339,note_on,3,0,0,,1,,,73,127
24339,note_on,0,0,0,,10,,,81,127
24624,note_off,285,0,0,,1,,,73,127
24626,note_off,2,0,0,,10,,,69,127
24628,note_on,2,0,0,,10,,,69,127
24628,note_on,0,0,0,,4,,,76,127
24721,note_off,93,0,0,,4,,,76,127
24724,note_on,3,0,0,,5,,,77,127
24817,note_off,93,0,0,,5,,,77,127
24820,note_on,3,0,0,,7,,,79,127
24910,note_off,90,0,0,,10,,,81,127
24913,note_off,3,0,0,,7,,,79,127
24913,note_off,0,0,0,,10,,,69,127
24916,note_on,3,0,0,,2,,,74,127
24916,note_on,0,0,0,,5,,,77,127
25201,note_off,285,0,0,,5,,,77,127
25201,note_off,0,0,0,,2,,,74,127
25204,note_on,3,0,0,,0,,,72,127
25204,note_on,0,0,0,,4,,,76,127
25489,note_off,285,0,0,,4,,,76,127
25489,note_off,0,0,0,,0,,,72,127
25492,note_on,3,0,0,,11,,,70,127
25492,note_on,0,0,0,,2,,,74,127
25777,note_off,285,0,0,,2,,,74,127
25777,note_off,0,0,0,,11,,,70,127
25780,note_on,3,0,0,,10,,,69,127
25780,note_on,0,0,0,,0,,,72,127
26065,note_off,285,0,0,,0,,,72,127
26065,note_off,0,0,0,,10,,,69,127
26068,note_on,3,0,0,,7,,,67,127
26068,note_on,0,0,0,,11,,,70,127
26353,note_off,285,0,0,,11,,,70,127
26353,note_off,0,0,0,,7,,,67,127
26356,note_on,3,0,0,,10,,,69,127
26356,note_on,0,0,0,,5,,,65,127
26356,note_on,0,0,0,,2,,,74,127
26641,note_off,285,0,0,,2,,,74,127
26641,note_off,0,0,0,,5,,,65,127
26641,note_off,0,0,0,,10,,,69,127
26644,note_on,3,0,0,,7,,,67,127
26644,note_on,0,0,0,,4,,,64,127
26644,note_on,0,0,0,,1,,,73,127
26929,note_off,285,0,0,,1,,,73,127
26929,note_off,0,0,0,,4,,,64,127
26929,note_off,0,0,0,,7,,,67,127
26932,note_on,3,0,0,,2,,,62,127
26932,note_on,0,0,0,,11,,,70,127
26932,note_on,0,0,0,,2,,,74,127
27217,note_off,285,0,0,,2,,,74,127
27217,note_off,0,0,0,,11,,,70,127
27217,note_off,0,0,0,,2,,,62,127
27220,note_on,3,0,0,,10,,,69,127
27220,note_on,0,0,0,,1,,,61,127
27220,note_on,0,0,0,,4,,,76,127
27505,note_off,285,0,0,,1,,,61,127
27508,note_on,3,0,0,,10,,,57,127
27601,note_off,93,0,0,,4,,,76,127
27604,note_on,3,0,0,,5,,,77,127
27697,note_off,93,0,0,,5,,,77,127
27700,note_on,3,0,0,,7,,,79,127
27790,note_off,90,0,0,,10,,,69,127
27793,note_off,3,0,0,,7,,,79,127
27793,note_off,0,0,0,,10,,,57,127
27796,note_on,3,0,0,,2,,,62,127
27796,note_on,0,0,0,,5,,,77,127
28081,note_off,285,0,0,,5,,,77,127
28081,note_off,0,0,0,,2,,,62,127
28084,note_on,3,0,0,,10,,,57,127
28084,note_on,0,0,0,,4,,,76,127
28369,note_off,285,0,0,,10,,,57,127
28372,note_on,3,0,0,,11,,,58,127
28657,note_off,285,0,0,,4,,,76,127
28660,note_on,3,0,0,,7,,,67,127
28660,note_on,0,0,0,,2,,,74,127
28942,note_off,282,0,0,,11,,,58,127
28945,note_off,3,0,0,,2,,,74,127
28945,note_off,0,0,0,,7,,,67,127
28948,note_on,3,0,0,,10,,,57,127
28948,note_on,0,0,0,,4,,,76,127
29041,note_off,93,0,0,,4,,,76,127
29044,note_on,3,0,0,,2,,,74,127
29137,note_off,93,0,0,,2,,,74,127
29140,note_on,3,0,0,,1,,,73,127
29233,note_off,93,0,0,,1,,,73,127
29236,note_on,3,0,0,,10,,,69,127
29236,note_on,0,0,0,,1,,,73,127
29518,note_off,282,0,0,,10,,,57,127
29524,note_on,6,0,0,,11,,,58,127
29806,note_off,282,0,0,,10,,,69,127
29809,note_off,3,0,0,,1,,,73,127
29812,note_on,3,0,0,,7,,,67,127
29812,note_on,0,0,0,,2,,,74,127
30094,note_off,282,0,0,,11,,,58,127
30097,note_off,3,0,0,,2,,,74,127
30097,note_off,0,0,0,,7,,,67,127
30100,note_on,3,0,0,,10,,,57,127
30100,note_on,0,0,0,,4,,,76,127
30193,note_off,93,0,0,,4,,,76,127
30196,note_on,3,0,0,,2,,,74,127
30289,note_off,93,0,0,,2,,,74,127
30292,note_on,3,0,0,,1,,,73,127
30385,note_off,93,0,0,,1,,,73,127
30388,note_on,3,0,0,,10,,,69,127
30388,note_on,0,0,0,,1,,,73,127
30670,note_off,282,0,0,,10,,,57,127
30676,note_on,6,0,0,,11,,,58,127
30958,note_off,282,0,0,,10,,,69,127
30961,note_off,3,0,0,,1,,,73,127
30964,note_on,3,0,0,,7,,,67,127
30964,note_on,0,0,0,,2,,,74,127
31246,note_off,282,0,0,,11,,,58,127
31249,note_off,3,0,0,,2,,,74,127
31249,note_off,0,0,0,,7,,,67,127
31252,note_on,3,0,0,,10,,,57,127
31252,note_on,0,0,0,,2,,,74,127
31572,note_on,320,0,0,,4,,,76,127
31584,note_off,12,0,0,,2,,,74,127
31924,note_on,340,0,0,,10,,,45,127
32260,note_off,336,0,0,,10,,,57,127
32418,note_off,158,0,0,,4,,,76,127
32580,note_off,162,0,0,,10,,,45,127
32800,note_on,220,0,0,,4,,,76,127
33054,note_off,254,0,0,,4,,,76,127
33088,note_on,34,0,0,,6,,,66,127
33088,note_on,0,0,0,,2,,,62,127
33088,note_on,0,0,0,,4,,,76,127
33181,note_off,93,0,0,,4,,,76,127
33184,note_on,3,0,0,,2,,,74,127
33277,note_off,93,0,0,,2,,,74,127
33280,note_on,3,0,0,,1,,,73,127
33373,note_off,93,0,0,,1,,,73,127
33376,note_on,3,0,0,,2,,,74,127
33469,note_off,93,0,0,,2,,,74,127
33472,note_on,3,0,0,,4,,,76,127
33565,note_off,93,0,0,,4,,,76,127
33568,note_on,3,0,0,,6,,,78,127
33661,note_off,93,0,0,,6,,,78,127
33664,note_on,3,0,0,,10,,,69,127
33949,note_off,285,0,0,,10,,,69,127
33949,note_off,0,0,0,,2,,,62,127
33949,note_off,0,0,0,,6,,,66,127
33952,note_on,3,0,0,,4,,,64,127
33952,note_on,0,0,0,,1,,,61,127
33952,note_on,0,0,0,,4,,,76,127
34237,note_off,285,0,0,,4,,,76,127
34237,note_off,0,0,0,,1,,,61,127
34237,note_off,0,0,0,,4,,,64,127
34240,note_on,3,0,0,,6,,,66,127
34240,note_on,0,0,0,,2,,,62,127
34240,note_on,0,0,0,,4,,,76,127
34333,note_off,93,0,0,,4,,,76,127
34336,note_on,3,0,0,,2,,,74,127
34429,note_off,93,0,0,,2,,,74,127
34432,note_on,3,0,0,,1,,,73,127
34525,note_off,93,0,0,,1,,,73,127
34528,note_on,3,0,0,,2,,,74,127
34621,note_off,93,0,0,,2,,,74,127
34624,note_on,3,0,0,,4,,,76,127
34717,note_off,93,0,0,,4,,,76,127
34720,note_on,3,0,0,,6,,,78,127
34813,note_off,93,0,0,,6,,,78,127
34816,note_on,3,0,0,,10,,,69,127
35101,note_off,285,0,0,,2,,,62,127
35101,note_off,0,0,0,,6,,,66,127
35104,note_on,3,0,0,,4,,,64,127
35104,note_on,0,0,0,,1,,,61,127
35104,note_on,0,0,0,,10,,,81,127
35236,note_off,132,0,0,,10,,,69,127
35389,note_off,153,0,0,,10,,,81,127
35389,note_off,0,0,0,,1,,,61,127
35389,note_off,0,0,0,,4,,,64,127
35392,note_on,3,0,0,,2,,,62,127
35392,note_on,0,0,0,,10,,,81,127
35485,note_off,93,0,0,,10,,,81,127
35488,note_on,3,0,0,,7,,,79,127
35581,note_off,93,0,0,,7,,,79,127
35584,note_on,3,0,0,,6,,,78,127
35677,note_off,93,0,0,,6,,,78,127
35677,note_off,0,0,0,,2,,,62,127
35680,note_on,3,0,0,,4,,,64,127
35680,note_on,0,0,0,,6,,,78,127
35773,note_off,93,0,0,,6,,,78,127
35776,note_on,3,0,0,,4,,,76,127
35869,note_off,93,0,0,,4,,,76,127
35872,note_on,3,0,0,,2,,,74,127
35965,note_off,93,0,0,,2,,,74,127
35965,note_off,0,0,0,,4,,,64,127
35968,note_on,3,0,0,,6,,,66,127
35968,note_on,0,0,0,,2,,,74,127
36253,note_off,285,0,0,,2,,,74,127
36253,note_off,0,0,0,,6,,,66,127
36256,note_on,3,0,0,,2,,,62,127
36256,note_on,0,0,0,,2,,,74,127
36541,note_off,285,0,0,,2,,,74,127
36541,note_off,0,0,0,,2,,,62,127
36544,note_on,3,0,0,,7,,,55,127
36544,note_on,0,0,0,,12,,,71,127
36637,note_off,93,0,0,,12,,,71,127
36640,note_on,3,0,0,,1,,,73,127
36733,note_off,93,0,0,,1,,,73,127
36736,note_on,3,0,0,,2,,,74,127
36829,note_off,93,0,0,,2,,,74,127
36829,note_off,0,0,0,,7,,,55,127
36832,note_on,3,0,0,,12,,,59,127
36832,note_on,0,0,0,,4,,,76,127
36925,note_off,93,0,0,,4,,,76,127
36928,note_on,3,0,0,,6,,,78,127
37021,note_off,93,0,0,,6,,,78,127
37024,note_on,3,0,0,,7,,,79,127
37117,note_off,93,0,0,,7,,,79,127
37117,note_off,0,0,0,,12,,,59,127
37120,note_on,3,0,0,,10,,,57,127
37120,note_on,0,0,0,,6,,,78,127
37405,note_off,285,0,0,,6,,,78,127
37408,note_on,3,0,0,,10,,,45,127
37408,note_on,0,0,0,,4,,,76,127
37690,note_off,282,0,0,,10,,,57,127
37693,note_off,3,0,0,,4,,,76,127
37693,note_off,0,0,0,,10,,,45,127
37696,note_on,3,0,0,,2,,,50,127
37696,note_on,0,0,0,,4,,,76,127
37981,note_off,285,0,0,,4,,,76,127
37984,note_on,3,0,0,,2,,,74,127
38416,note_off,432,0,0,,2,,,74,127
38506,note_off,90,0,0,,2,,,50,127
38560,note_on,54,0,0,,1,,,61,127
38560,note_on,0,0,0,,4,,,64,127
38560,note_on,0,0,0,,4,,,76,127
38814,note_off,254,0,0,,4,,,76,127
38846,note_off,32,0,0,,4,,,64,127
38846,note_off,0,0,0,,1,,,61,127
38849,note_on,3,0,0,,2,,,62,127
38849,note_on,0,0,0,,6,,,66,127
38849,note_on,0,0,0,,4,,,76,127
38942,note_off,93,0,0,,4,,,76,127
38945,note_on,3,0,0,,2,,,74,127
39038,note_off,93,0,0,,2,,,74,127
39041,note_on,3,0,0,,1,,,73,127
39134,note_off,93,0,0,,1,,,73,127
39137,note_on,3,0,0,,2,,,74,127
39230,note_off,93,0,0,,2,,,74,127
39233,note_on,3,0,0,,4,,,76,127
39326,note_off,93,0,0,,4,,,76,127
39329,note_on,3,0,0,,6,,,78,127
39422,note_off,93,0,0,,6,,,78,127
39425,note_on,3,0,0,,10,,,69,127
39680,note_off,255,0,0,,10,,,69,127
39710,note_off,30,0,0,,6,,,66,127
39710,note_off,0,0,0,,2,,,62,127
39713,note_on,3,0,0,,1,,,61,127
39713,note_on,0,0,0,,4,,,64,127
39713,note_on,0,0,0,,4,,,76,127
39998,note_off,285,0,0,,4,,,76,127
39998,note_off,0,0,0,,4,,,64,127
39998,note_off,0,0,0,,1,,,61,127
40001,note_on,3,0,0,,2,,,62,127
40001,note_on,0,0,0,,6,,,66,127
40001,note_on,0,0,0,,4,,,76,127
40094,note_off,93,0,0,,4,,,76,127
40097,note_on,3,0,0,,2,,,74,127
40190,note_off,93,0,0,,2,,,74,127
40193,note_on,3,0,0,,1,,,73,127
40286,note_off,93,0,0,,1,,,73,127
40289,note_on,3,0,0,,2,,,74,127
40382,note_off,93,0,0,,2,,,74,127
40385,note_on,3,0,0,,4,,,76,127
40478,note_off,93,0,0,,4,,,76,127
40481,note_on,3,0,0,,6,,,78,127
40574,note_off,93,0,0,,6,,,78,127
40577,note_on,3,0,0,,10,,,69,127
40827,note_off,250,0,0,,10,,,69,127
40861,note_off,34,0,0,,6,,,66,127
40861,note_off,0,0,0,,2,,,62,127
40864,note_on,3,0,0,,1,,,61,127
40864,note_on,0,0,0,,4,,,64,127
40864,note_on,0,0,0,,10,,,81,127
41149,note_off,285,0,0,,10,,,81,127
41149,note_off,0,0,0,,4,,,64,127
41149,note_off,0,0,0,,1,,,61,127
41152,note_on,3,0,0,,2,,,62,127
41152,note_on,0,0,0,,10,,,81,127
41245,note_off,93,0,0,,10,,,81,127
41248,note_on,3,0,0,,7,,,79,127
41341,note_off,93,0,0,,7,,,79,127
41344,note_on,3,0,0,,6,,,78,127
41437,note_off,93,0,0,,6,,,78,127
41437,note_off,0,0,0,,2,,,62,127
41440,note_on,3,0,0,,4,,,64,127
41440,note_on,0,0,0,,6,,,78,127
41533,note_off,93,0,0,,6,,,78,127
41536,note_on,3,0,0,,4,,,76,127
41629,note_off,93,0,0,,4,,,76,127
41632,note_on,3,0,0,,2,,,74,127
41725,note_off,93,0,0,,2,,,74,127
41725,note_off,0,0,0,,4,,,64,127
41728,note_on,3,0,0,,6,,,66,127
41728,note_on,0,0,0,,2,,,74,127
42013,note_off,285,0,0,,2,,,74,127
42013,note_off,0,0,0,,6,,,66,127
42016,note_on,3,0,0,,2,,,62,127
42016,note_on,0,0,0,,2,,,74,127
42301,note_off,285,0,0,,2,,,74,127
42301,note_off,0,0,0,,2,,,62,127
42304,note_on,3,0,0,,7,,,55,127
42304,note_on,0,0,0,,2,,,74,127
42397,note_off,93,0,0,,2,,,74,127
42400,note_on,3,0,0,,4,,,76,127
42493,note_off,93,0,0,,4,,,76,127
42496,note_on,3,0,0,,6,,,78,127
42589,note_off,93,0,0,,6,,,78,127
42589,note_off,0,0,0,,7,,,55,127
42592,note_on,3,0,0,,12,,,59,127
42592,note_on,0,0,0,,7,,,79,127
42685,note_off,93,0,0,,7,,,79,127
42688,note_on,3,0,0,,10,,,81,127
42781,note_off,93,0,0,,10,,,81,127
42784,note_on,3,0,0,,12,,,83,127
42877,note_off,93,0,0,,12,,,83,127
42877,note_off,0,0,0,,12,,,59,127
42880,note_on,3,0,0,,10,,,57,127
42880,note_on,0,0,0,,2,,,74,127
43165,note_off,285,0,0,,2,,,74,127
43168,note_on,3,0,0,,10,,,45,127
43168,note_on,0,0,0,,1,,,73,127
43450,note_off,282,0,0,,10,,,57,127
43453,note_off,3,0,0,,1,,,73,127
43453,note_off,0,0,0,,10,,,45,127
43456,note_on,3,0,0,,2,,,50,127
43456,note_on,0,0,0,,2,,,74,127
43741,note_off,285,0,0,,2,,,74,127
43744,note_on,3,0,0,,2,,,86,127
43744,note_on,0,0,0,,2,,,74,127
44029,note_off,285,0,0,,2,,,74,127
44029,note_off,0,0,0,,2,,,86,127
44032,note_on,3,0,0,,0,,,84,127
44032,note_on,0,0,0,,4,,,76,127
44281,note_off,249,0,0,,2,,,50,127
44317,note_off,36,0,0,,4,,,76,127
44317,note_off,0,0,0,,0,,,84,127
44320,note_on,3,0,0,,2,,,50,127
44320,note_on,0,0,0,,6,,,78,127
44320,note_on,0,0,0,,10,,,81,127
44605,note_off,285,0,0,,10,,,81,127
44605,note_off,0,0,0,,6,,,78,127
44605,note_off,0,0,0,,2,,,50,127
44608,note_on,3,0,0,,7,,,55,127
44608,note_on,0,0,0,,11,,,82,127
44893,note_off,285,0,0,,11,,,82,127
44896,note_on,3,0,0,,7,,,43,127
44896,note_on,0,0,0,,12,,,83,127
44896,note_on,0,0,0,,12,,,71,127
45178,note_off,282,0,0,,7,,,55,127
45181,note_off,3,0,0,,12,,,71,127
45181,note_off,0,0,0,,12,,,83,127
45181,note_off,0,0,0,,7,,,43,127
45184,note_on,3,0,0,,10,,,45,127
45184,note_on,0,0,0,,6,,,54,127
45184,note_on,0,0,0,,2,,,74,127
45469,note_off,285,0,0,,2,,,74,127
45469,note_off,0,0,0,,6,,,54,127
45472,note_on,3,0,0,,4,,,52,127
45472,note_on,0,0,0,,2,,,74,127
45541,note_off,69,0,0,,2,,,74,127
45544,note_on,3,0,0,,1,,,73,127
45613,note_off,69,0,0,,1,,,73,127
45616,note_on,3,0,0,,12,,,71,127
45685,note_off,69,0,0,,12,,,71,127
45688,note_on,3,0,0,,1,,,73,127
45754,note_off,66,0,0,,10,,,45,127
45757,note_off,3,0,0,,1,,,73,127
45757,note_off,0,0,0,,4,,,52,127
45760,note_on,3,0,0,,2,,,50,127
45760,note_on,0,0,0,,2,,,38,127
45760,note_on,0,0,0,,2,,,74,127
46045,note_off,285,0,0,,2,,,74,127
46053,note_on,8,0,0,,2,,,86,127
46053,note_on,0,0,0,,2,,,74,127
46339,note_off,286,0,0,,2,,,74,127
46339,note_off,0,0,0,,2,,,86,127
46347,note_on,8,0,0,,4,,,76,127
46347,note_on,0,0,0,,0,,,84,127
46621,note_off,274,0,0,,2,,,38,127
46621,note_off,0,0,0,,2,,,50,127
46633,note_off,12,0,0,,0,,,84,127
46633,note_off,0,0,0,,4,,,76,127
46641,note_on,8,0,0,,6,,,78,127
46641,note_on,0,0,0,,10,,,81,127
46641,note_on,0,0,0,,2,,,50,127
46927,note_off,286,0,0,,2,,,50,127
46927,note_off,0,0,0,,10,,,81,127
46927,note_off,0,0,0,,6,,,78,127
46935,note_on,8,0,0,,11,,,82,127
46935,note_on,0,0,0,,7,,,55,127
47221,note_off,286,0,0,,11,,,82,127
47227,note_on,6,0,0,,12,,,71,127
47227,note_on,0,0,0,,12,,,83,127
47227,note_on,0,0,0,,7,,,43,127
47509,note_off,282,0,0,,7,,,55,127
47513,note_off,4,0,0,,7,,,43,127
47513,note_off,0,0,0,,12,,,83,127
47513,note_off,0,0,0,,12,,,71,127
47521,note_on,8,0,0,,2,,,74,127
47521,note_on,0,0,0,,10,,,45,127
47521,note_on,0,0,0,,6,,,54,127
47807,note_off,286,0,0,,6,,,54,127
47807,note_off,0,0,0,,2,,,74,127
47815,note_on,8,0,0,,2,,,74,127
47815,note_on,0,0,0,,4,,,52,127
47884,note_off,69,0,0,,2,,,74,127
47888,note_on,4,0,0,,1,,,73,127
47957,note_off,69,0,0,,1,,,73,127
47961,note_on,4,0,0,,12,,,71,127
48030,note_off,69,0,0,,12,,,71,127
48034,note_on,4,0,0,,1,,,73,127
48094,note_off,60,0,0,,10,,,45,127
48100,note_off,6,0,0,,4,,,52,127
48103,note_off,3,0,0,,1,,,73,127
48107,note_on,4,0,0,,1,,,73,127
48107,note_on,0,0,0,,2,,,50,127
48107,note_on,0,0,0,,2,,,38,127
48539,note_off,432,0,0,,1,,,73,127
48548,note_on,9,0,0,,2,,,74,127
49266,note_off,718,0,0,,2,,,38,127
49266,note_off,0,0,0,,2,,,50,127
49270,note_off,4,0,0,,2,,,74,127
49333,note_on,63,0,0,,6,,,66,127
49333,note_on,0,0,0,,2,,,62,127
49522,note_off,189,0,0,,2,,,62,127
49522,note_off,0,0,0,,6,,,66,127
49525,note_on,3,0,0,,4,,,64,127
49525,note_on,0,0,0,,1,,,61,127
49618,note_off,93,0,0,,1,,,61,127
49618,note_off,0,0,0,,4,,,64,127
49621,note_on,3,0,0,,6,,,66,127
49621,note_on,0,0,0,,2,,,62,127
49810,note_off,189,0,0,,2,,,62,127
49810,note_off,0,0,0,,6,,,66,127
49813,note_on,3,0,0,,7,,,67,127
49813,note_on,0,0,0,,4,,,64,127
49906,note_off,93,0,0,,4,,,64,127
49906,note_off,0,0,0,,7,,,67,127
49909,note_on,3,0,0,,10,,,69,127
49909,note_on,0,0,0,,6,,,66,127
50194,note_off,285,0,0,,6,,,66,127
50194,note_off,0,0,0,,10,,,69,127
50197,note_on,3,0,0,,12,,,71,127
50197,note_on,0,0,0,,2,,,62,127
50482,note_off,285,0,0,,2,,,62,127
50482,note_off,0,0,0,,12,,,71,127
50485,note_on,3,0,0,,0,,,72,127
50485,note_on,0,0,0,,4,,,64,127
50770,note_off,285,0,0,,4,,,64,127
50770,note_off,0,0,0,,0,,,72,127
50773,note_on,3,0,0,,10,,,69,127
50773,note_on,0,0,0,,6,,,66,127
51058,note_off,285,0,0,,6,,,66,127
51058,note_off,0,0,0,,10,,,69,127
51061,note_on,3,0,0,,12,,,71,127
51061,note_on,0,0,0,,7,,,67,127
51346,note_off,285,0,0,,7,,,67,127
51346,note_off,0,0,0,,12,,,71,127
51349,note_on,3,0,0,,0,,,72,127
51349,note_on,0,0,0,,4,,,64,127
51634,note_off,285,0,0,,4,,,64,127
51634,note_off,0,0,0,,0,,,72,127
51637,note_on,3,0,0,,2,,,74,127
51637,note_on,0,0,0,,6,,,66,127
51922,note_off,285,0,0,,6,,,66,127
51922,note_off,0,0,0,,2,,,74,127
51925,note_on,3,0,0,,12,,,71,127
51925,note_on,0,0,0,,8,,,68,127
52210,note_off,285,0,0,,8,,,68,127
52210,note_off,0,0,0,,12,,,71,127
52213,note_on,3,0,0,,0,,,72,127
52213,note_on,0,0,0,,10,,,69,127
52498,note_off,285,0,0,,10,,,69,127
52498,note_off,0,0,0,,0,,,72,127
52501,note_on,3,0,0,,2,,,74,127
52501,note_on,0,0,0,,12,,,71,127
52755,note_off,254,0,0,,2,,,74,127
52781,note_off,26,0,0,,12,,,71,127
52790,note_on,9,0,0,,4,,,76,127
52790,note_on,0,0,0,,0,,,72,127
52979,note_off,189,0,0,,0,,,72,127
52979,note_off,0,0,0,,4,,,76,127
52982,note_on,3,0,0,,2,,,74,127
52982,note_on,0,0,0,,12,,,71,127
53075,note_off,93,0,0,,12,,,71,127
53075,note_off,0,0,0,,2,,,74,127
53078,note_on,3,0,0,,4,,,76,127
53078,note_on,0,0,0,,0,,,72,127
53267,note_off,189,0,0,,0,,,72,127
53267,note_off,0,0,0,,4,,,76,127
53270,note_on,3,0,0,,5,,,77,127
53270,note_on,0,0,0,,2,,,74,127
53363,note_off,93,0,0,,2,,,74,127
53363,note_off,0,0,0,,5,,,77,127
53366,note_on,3,0,0,,7,,,79,127
53366,note_on,0,0,0,,4,,,76,127
53651,note_off,285,0,0,,4,,,76,127
53651,note_off,0,0,0,,7,,,79,127
53654,note_on,3,0,0,,5,,,77,127
53654,note_on,0,0,0,,2,,,74,127
53939,note_off,285,0,0,,2,,,74,127
53939,note_off,0,0,0,,5,,,77,127
53942,note_on,3,0,0,,4,,,76,127
53942,note_on,0,0,0,,0,,,72,127
54227,note_off,285,0,0,,0,,,72,127
54227,note_off,0,0,0,,4,,,76,127
54230,note_on,3,0,0,,2,,,74,127
54230,note_on,0,0,0,,12,,,71,127
54515,note_off,285,0,0,,12,,,71,127
54515,note_off,0,0,0,,2,,,74,127
54518,note_on,3,0,0,,0,,,72,127
54518,note_on,0,0,0,,10,,,69,127
54803,note_off,285,0,0,,10,,,69,127
54803,note_off,0,0,0,,0,,,72,127
54806,note_on,3,0,0,,12,,,71,127
54806,note_on,0,0,0,,7,,,67,127
55091,note_off,285,0,0,,7,,,67,127
55091,note_off,0,0,0,,12,,,71,127
55094,note_on,3,0,0,,10,,,69,127
55094,note_on,0,0,0,,5,,,65,127
55379,note_off,285,0,0,,5,,,65,127
55379,note_off,0,0,0,,10,,,69,127
55382,note_on,3,0,0,,7,,,67,127
55382,note_on,0,0,0,,4,,,64,127
55667,note_off,285,0,0,,4,,,64,127
55667,note_off,0,0,0,,7,,,67,127
55670,note_on,3,0,0,,7,,,67,127
55670,note_on,0,0,0,,2,,,62,127
55763,note_off,93,0,0,,7,,,67,127
55781,note_on,18,0,0,,5,,,65,127
55869,note_on,88,0,0,,7,,,67,127
55873,note_off,4,0,0,,5,,,65,127
55954,note_off,81,0,0,,2,,,62,127
55957,note_on,3,0,0,,5,,,65,127
55957,note_on,0,0,0,,12,,,59,127
55961,note_off,4,0,0,,7,,,67,127
56045,note_on,84,0,0,,7,,,67,127
56049,note_off,4,0,0,,5,,,65,127
56133,note_on,84,0,0,,5,,,65,127
56137,note_off,4,0,0,,7,,,67,127
56218,note_off,81,0,0,,5,,,65,127
56240,note_off,22,0,0,,12,,,59,127
56243,note_on,3,0,0,,4,,,64,127
56243,note_on,0,0,0,,0,,,60,127
56432,note_off,189,0,0,,0,,,60,127
56432,note_off,0,0,0,,4,,,64,127
56435,note_on,3,0,0,,2,,,62,127
56435,note_on,0,0,0,,12,,,59,127
56528,note_off,93,0,0,,12,,,59,127
56528,note_off,0,0,0,,2,,,62,127
56531,note_on,3,0,0,,4,,,64,127
56531,note_on,0,0,0,,0,,,60,127
56720,note_off,189,0,0,,0,,,60,127
56720,note_off,0,0,0,,4,,,64,127
56723,note_on,3,0,0,,5,,,65,127
56723,note_on,0,0,0,,2,,,62,127
56816,note_off,93,0,0,,2,,,62,127
56816,note_off,0,0,0,,5,,,65,127
56819,note_on,3,0,0,,7,,,67,127
56819,note_on,0,0,0,,4,,,64,127
57104,note_off,285,0,0,,4,,,64,127
57104,note_off,0,0,0,,7,,,67,127
57107,note_on,3,0,0,,10,,,69,127
57107,note_on,0,0,0,,5,,,65,127
57392,note_off,285,0,0,,5,,,65,127
57392,note_off,0,0,0,,10,,,69,127
57395,note_on,3,0,0,,12,,,71,127
57395,note_on,0,0,0,,7,,,67,127
57680,note_off,285,0,0,,7,,,67,127
57680,note_off,0,0,0,,12,,,71,127
57683,note_on,3,0,0,,0,,,72,127
57683,note_on,0,0,0,,4,,,64,127
57968,note_off,285,0,0,,4,,,64,127
57968,note_off,0,0,0,,0,,,72,127
57971,note_on,3,0,0,,2,,,74,127
57971,note_on,0,0,0,,5,,,65,127
58256,note_off,285,0,0,,5,,,65,127
58256,note_off,0,0,0,,2,,,74,127
58259,note_on,3,0,0,,4,,,76,127
58259,note_on,0,0,0,,7,,,67,127
58484,note_off,225,0,0,,4,,,76,127
58529,note_off,45,0,0,,7,,,67,127
58547,note_on,18,0,0,,10,,,81,127
58547,note_on,0,0,0,,10,,,69,127
58832,note_off,285,0,0,,10,,,69,127
58835,note_on,3,0,0,,12,,,71,127
58928,note_off,93,0,0,,10,,,81,127
58931,note_on,3,0,0,,7,,,79,127
59024,note_off,93,0,0,,7,,,79,127
59027,note_on,3,0,0,,5,,,77,127
59120,note_off,93,0,0,,5,,,77,127
59120,note_off,0,0,0,,12,,,71,127
59123,note_on,3,0,0,,4,,,76,127
59123,note_on,0,0,0,,0,,,72,127
59408,note_off,285,0,0,,0,,,72,127
59408,note_off,0,0,0,,4,,,76,127
59411,note_on,3,0,0,,2,,,74,127
59411,note_on,0,0,0,,11,,,70,127
59696,note_off,285,0,0,,11,,,70,127
59696,note_off,0,0,0,,2,,,74,127
59699,note_on,3,0,0,,1,,,73,127
59699,note_on,0,0,0,,10,,,69,127
59984,note_off,285,0,0,,10,,,69,127
59987,note_on,3,0,0,,11,,,82,127
59987,note_on,0,0,0,,7,,,67,127
60272,note_off,285,0,0,,7,,,67,127
60272,note_off,0,0,0,,11,,,82,127
60275,note_on,3,0,0,,10,,,81,127
60275,note_on,0,0,0,,5,,,65,127
60560,note_off,285,0,0,,5,,,65,127
60560,note_off,0,0,0,,10,,,81,127
60563,note_on,3,0,0,,7,,,79,127
60563,note_on,0,0,0,,3,,,63,127
60848,note_off,285,0,0,,3,,,63,127
60848,note_off,0,0,0,,7,,,79,127
60850,note_off,2,0,0,,1,,,73,127
60852,note_on,2,0,0,,6,,,78,127
60852,note_on,0,0,0,,2,,,62,127
61137,note_off,285,0,0,,2,,,62,127
61140,note_on,3,0,0,,3,,,75,127
61140,note_on,0,0,0,,0,,,72,127
61425,note_off,285,0,0,,0,,,72,127
61425,note_off,0,0,0,,3,,,75,127
61428,note_on,3,0,0,,2,,,74,127
61428,note_on,0,0,0,,11,,,70,127
61713,note_off,285,0,0,,11,,,70,127
61713,note_off,0,0,0,,2,,,74,127
61716,note_on,3,0,0,,0,,,72,127
61716,note_on,0,0,0,,8,,,68,127
62001,note_off,285,0,0,,8,,,68,127
62001,note_off,0,0,0,,0,,,72,127
62003,note_off,2,0,0,,6,,,78,127
62005,note_on,2,0,0,,12,,,71,127
62005,note_on,0,0,0,,7,,,67,127
62290,note_off,285,0,0,,7,,,67,127
62293,note_on,3,0,0,,8,,,80,127
62293,note_on,0,0,0,,5,,,65,127
62578,note_off,285,0,0,,5,,,65,127
62578,note_off,0,0,0,,8,,,80,127
62581,note_on,3,0,0,,7,,,79,127
62581,note_on,0,0,0,,3,,,63,127
62866,note_off,285,0,0,,3,,,63,127
62866,note_off,0,0,0,,7,,,79,127
62869,note_on,3,0,0,,5,,,77,127
62869,note_on,0,0,0,,1,,,61,127
63154,note_off,285,0,0,,1,,,61,127
63154,note_off,0,0,0,,5,,,77,127
63156,note_off,2,0,0,,12,,,71,127
63158,note_on,2,0,0,,4,,,76,127
63158,note_on,0,0,0,,0,,,60,127
63443,note_off,285,0,0,,0,,,60,127
63446,note_on,3,0,0,,1,,,73,127
63446,note_on,0,0,0,,11,,,70,127
63728,note_off,282,0,0,,4,,,76,127
63731,note_off,3,0,0,,11,,,70,127
63731,note_off,0,0,0,,1,,,73,127
63734,note_on,3,0,0,,0,,,72,127
63734,note_on,0,0,0,,8,,,68,127
64019,note_off,285,0,0,,8,,,68,127
64022,note_on,3,0,0,,11,,,82,127
64022,note_on,0,0,0,,6,,,66,127
64304,note_off,282,0,0,,0,,,72,127
64307,note_off,3,0,0,,6,,,66,127
64307,note_off,0,0,0,,11,,,82,127
64310,note_on,3,0,0,,10,,,81,127
64310,note_on,0,0,0,,5,,,65,127
64595,note_off,285,0,0,,5,,,65,127
64595,note_off,0,0,0,,10,,,81,127
64598,note_on,3,0,0,,6,,,78,127
64598,note_on,0,0,0,,3,,,63,127
64883,note_off,285,0,0,,3,,,63,127
64883,note_off,0,0,0,,6,,,78,127
64886,note_on,3,0,0,,5,,,77,127
64886,note_on,0,0,0,,1,,,61,127
65171,note_off,285,0,0,,1,,,61,127
65171,note_off,0,0,0,,5,,,77,127
65174,note_on,3,0,0,,3,,,75,127
65174,note_on,0,0,0,,0,,,60,127
65459,note_off,285,0,0,,0,,,60,127
65459,note_off,0,0,0,,3,,,75,127
65462,note_on,3,0,0,,1,,,73,127
65462,note_on,0,0,0,,11,,,58,127
65747,note_off,285,0,0,,11,,,58,127
65747,note_off,0,0,0,,1,,,73,127
65750,note_on,3,0,0,,4,,,76,127
65750,note_on,0,0,0,,0,,,72,127
65750,note_on,0,0,0,,0,,,48,127
65750,note_on,0,0,0,,0,,,60,127
66035,note_off,285,0,0,,0,,,48,127
66035,note_off,0,0,0,,4,,,76,127
66038,note_on,3,0,0,,5,,,77,127
66038,note_on,0,0,0,,1,,,49,127
66320,note_off,282,0,0,,0,,,60,127
66320,note_off,0,0,0,,0,,,72,127
66326,note_on,6,0,0,,11,,,70,127
66326,note_on,0,0,0,,11,,,58,127
66608,note_off,282,0,0,,1,,,49,127
66611,note_off,3,0,0,,11,,,70,127
66614,note_on,3,0,0,,0,,,72,127
66614,note_on,0,0,0,,0,,,48,127
66896,note_off,282,0,0,,11,,,58,127
66900,note_off,4,0,0,,5,,,77,127
66902,note_on,2,0,0,,4,,,76,127
66902,note_on,0,0,0,,0,,,60,127
67184,note_off,282,0,0,,0,,,48,127
67187,note_off,3,0,0,,4,,,76,127
67190,note_on,3,0,0,,5,,,77,127
67190,note_on,0,0,0,,1,,,49,127
67472,note_off,282,0,0,,0,,,60,127
67476,note_off,4,0,0,,0,,,72,127
67478,note_on,2,0,0,,12,,,71,127
67478,note_on,0,0,0,,12,,,59,127
67760,note_off,282,0,0,,1,,,49,127
67760,note_off,0,0,0,,5,,,77,127
67763,note_off,3,0,0,,12,,,59,127
67763,note_off,0,0,0,,12,,,71,127
67766,note_on,3,0,0,,3,,,75,127
67766,note_on,0,0,0,,0,,,48,127
67766,note_on,0,0,0,,0,,,60,127
68051,note_off,285,0,0,,0,,,60,127
68051,note_off,0,0,0,,0,,,48,127
68051,note_off,0,0,0,,3,,,75,127
68054,note_on,3,0,0,,3,,,75,127
68054,note_on,0,0,0,,2,,,50,127
68123,note_off,69,0,0,,3,,,75,127
68126,note_on,3,0,0,,2,,,74,127
68195,note_off,69,0,0,,2,,,74,127
68198,note_on,3,0,0,,3,,,75,127
68267,note_off,69,0,0,,3,,,75,127
68270,note_on,3,0,0,,2,,,74,127
68339,note_off,69,0,0,,2,,,74,127
68339,note_off,0,0,0,,2,,,50,127
68342,note_on,3,0,0,,0,,,72,127
68342,note_on,0,0,0,,3,,,51,127
68630,note_on,288,0,0,,7,,,79,127
68912,note_off,282,0,0,,0,,,72,127
68915,note_off,3,0,0,,3,,,51,127
68918,note_on,3,0,0,,2,,,74,127
68918,note_on,0,0,0,,2,,,50,127
69200,note_off,282,0,0,,7,,,79,127
69206,note_on,6,0,0,,6,,,78,127
69206,note_on,0,0,0,,2,,,62,127
69488,note_off,282,0,0,,2,,,50,127
69491,note_off,3,0,0,,6,,,78,127
69494,note_on,3,0,0,,7,,,79,127
69494,note_on,0,0,0,,3,,,51,127
69776,note_off,282,0,0,,2,,,62,127
69780,note_off,4,0,0,,2,,,74,127
69782,note_on,2,0,0,,0,,,72,127
69782,note_on,0,0,0,,0,,,60,127
70064,note_off,282,0,0,,3,,,51,127
70067,note_off,3,0,0,,0,,,72,127
70070,note_on,3,0,0,,2,,,74,127
70070,note_on,0,0,0,,2,,,50,127
70352,note_off,282,0,0,,0,,,60,127
70356,note_off,4,0,0,,7,,,79,127
70358,note_on,2,0,0,,6,,,78,127
70358,note_on,0,0,0,,2,,,62,127
70640,note_off,282,0,0,,2,,,50,127
70643,note_off,3,0,0,,6,,,78,127
70646,note_on,3,0,0,,7,,,79,127
70646,note_on,0,0,0,,3,,,51,127
70928,note_off,282,0,0,,2,,,62,127
70932,note_off,4,0,0,,2,,,74,127
70934,note_on,2,0,0,,0,,,72,127
70934,note_on,0,0,0,,0,,,60,127
71216,note_off,282,0,0,,3,,,51,127
71216,note_off,0,0,0,,7,,,79,127
71219,note_off,3,0,0,,0,,,60,127
71219,note_off,0,0,0,,0,,,72,127
71222,note_on,3,0,0,,7,,,79,127
71222,note_on,0,0,0,,2,,,50,127
71222,note_on,0,0,0,,2,,,62,127
71507,note_off,285,0,0,,7,,,79,127
71510,note_on,3,0,0,,6,,,78,127
71651,note_off,141,0,0,,6,,,78,127
71654,note_on,3,0,0,,7,,,79,127
71795,note_off,141,0,0,,7,,,79,127
71798,note_on,3,0,0,,10,,,81,127
71891,note_off,93,0,0,,10,,,81,127
71894,note_on,3,0,0,,7,,,79,127
71987,note_off,93,0,0,,7,,,79,127
71990,note_on,3,0,0,,6,,,78,127
72083,note_off,93,0,0,,6,,,78,127
72086,note_on,3,0,0,,4,,,76,127
72179,note_off,93,0,0,,4,,,76,127
72182,note_on,3,0,0,,2,,,74,127
72275,note_off,93,0,0,,2,,,74,127
72278,note_on,3,0,0,,1,,,73,127
72371,note_off,93,0,0,,1,,,73,127
72374,note_on,3,0,0,,1,,,73,127
72758,note_off,384,0,0,,1,,,73,127
72758,note_on,0,0,0,,2,,,74,127
72950,note_off,192,0,0,,2,,,62,127
72950,note_off,0,0,0,,2,,,50,127
73334,note_off,384,0,0,,2,,,74,127
73526,note_on,192,0,0,,10,,,69,127
73526,note_on,0,0,0,,6,,,66,127
73526,note_on,0,0,0,,10,,,81,127
73811,note_off,285,0,0,,10,,,81,127
73811,note_off,0,0,0,,6,,,66,127
73811,note_off,0,0,0,,10,,,69,127
73814,note_on,3,0,0,,7,,,67,127
73814,note_on,0,0,0,,12,,,71,127
73814,note_on,0,0,0,,10,,,81,127
73907,note_off,93,0,0,,10,,,81,127
73910,note_on,3,0,0,,7,,,79,127
74003,note_off,93,0,0,,7,,,79,127
74006,note_on,3,0,0,,6,,,78,127
74099,note_off,93,0,0,,6,,,78,127
74102,note_on,3,0,0,,7,,,79,127
74195,note_off,93,0,0,,7,,,79,127
74198,note_on,3,0,0,,10,,,81,127
74291,note_off,93,0,0,,10,,,81,127
74294,note_on,3,0,0,,12,,,83,127
74387,note_off,93,0,0,,12,,,83,127
74390,note_on,3,0,0,,2,,,74,127
74675,note_off,285,0,0,,2,,,74,127
74675,note_off,0,0,0,,12,,,71,127
74675,note_off,0,0,0,,7,,,67,127
74678,note_on,3,0,0,,10,,,69,127
74678,note_on,0,0,0,,6,,,66,127
74678,note_on,0,0,0,,10,,,81,127
74963,note_off,285,0,0,,10,,,81,127
74963,note_off,0,0,0,,6,,,66,127
74963,note_off,0,0,0,,10,,,69,127
74966,note_on,3,0,0,,7,,,67,127
74966,note_on,0,0,0,,12,,,71,127
74966,note_on,0,0,0,,10,,,81,127
75059,note_off,93,0,0,,10,,,81,127
75062,note_on,3,0,0,,7,,,79,127
75155,note_off,93,0,0,,7,,,79,127
75158,note_on,3,0,0,,6,,,78,127
75251,note_off,93,0,0,,6,,,78,127
75254,note_on,3,0,0,,7,,,79,127
75347,note_off,93,0,0,,7,,,79,127
75350,note_on,3,0,0,,10,,,81,127
75443,note_off,93,0,0,,10,,,81,127
75446,note_on,3,0,0,,12,,,83,127
75539,note_off,93,0,0,,12,,,83,127
75542,note_on,3,0,0,,2,,,74,127
75827,note_off,285,0,0,,2,,,74,127
75827,note_off,0,0,0,,12,,,71,127
75827,note_off,0,0,0,,7,,,67,127
75830,note_on,3,0,0,,6,,,66,127
75830,note_on,0,0,0,,10,,,69,127
75830,note_on,0,0,0,,2,,,86,127
76115,note_off,285,0,0,,2,,,86,127
76115,note_off,0,0,0,,10,,,69,127
76115,note_off,0,0,0,,6,,,66,127
76118,note_on,3,0,0,,7,,,67,127
76118,note_on,0,0,0,,2,,,86,127
76211,note_off,93,0,0,,2,,,86,127
76214,note_on,3,0,0,,0,,,84,127
76307,note_off,93,0,0,,0,,,84,127
76310,note_on,3,0,0,,12,,,83,127
76403,note_off,93,0,0,,12,,,83,127
76403,note_off,0,0,0,,7,,,67,127
76406,note_on,3,0,0,,10,,,69,127
76406,note_on,0,0,0,,12,,,83,127
76499,note_off,93,0,0,,12,,,83,127
76502,note_on,3,0,0,,10,,,81,127
76595,note_off,93,0,0,,10,,,81,127
76598,note_on,3,0,0,,7,,,79,127
76691,note_off,93,0,0,,7,,,79,127
76691,note_off,0,0,0,,10,,,69,127
76694,note_on,3,0,0,,12,,,71,127
76694,note_on,0,0,0,,7,,,79,127
76979,note_off,285,0,0,,7,,,79,127
76979,note_off,0,0,0,,12,,,71,127
76982,note_on,3,0,0,,7,,,67,127
76982,note_on,0,0,0,,7,,,79,127
77267,note_off,285,0,0,,7,,,79,127
77267,note_off,0,0,0,,7,,,67,127
77270,note_on,3,0,0,,0,,,60,127
77270,note_on,0,0,0,,4,,,76,127
77363,note_off,93,0,0,,4,,,76,127
77366,note_on,3,0,0,,6,,,78,127
77459,note_off,93,0,0,,6,,,78,127
77462,note_on,3,0,0,,7,,,79,127
77555,note_off,93,0,0,,7,,,79,127
77558,note_on,3,0,0,,4,,,64,127
77558,note_on,0,0,0,,10,,,81,127
77651,note_off,93,0,0,,10,,,81,127
77654,note_on,3,0,0,,12,,,83,127
77747,note_off,93,0,0,,12,,,83,127
77750,note_on,3,0,0,,0,,,84,127
77840,note_off,90,0,0,,0,,,60,127
77843,note_off,3,0,0,,0,,,84,127
77843,note_off,0,0,0,,4,,,64,127
77846,note_on,3,0,0,,2,,,62,127
77846,note_on,0,0,0,,12,,,83,127
78131,note_off,285,0,0,,12,,,83,127
78134,note_on,3,0,0,,2,,,50,127
78134,note_on,0,0,0,,10,,,81,127
78416,note_off,282,0,0,,2,,,62,127
78419,note_off,3,0,0,,10,,,81,127
78419,note_off,0,0,0,,2,,,50,127
78422,note_on,3,0,0,,7,,,55,127
78422,note_on,0,0,0,,10,,,81,127
78707,note_off,285,0,0,,10,,,81,127
78710,note_on,3,0,0,,7,,,79,127
79142,note_off,432,0,0,,7,,,79,127
79283,note_off,141,0,0,,7,,,55,127
79286,note_on,3,0,0,,6,,,54,127
79286,note_on,0,0,0,,10,,,57,127
79286,note_on,0,0,0,,10,,,69,127
79571,note_off,285,0,0,,10,,,69,127
79571,note_off,0,0,0,,10,,,57,127
79571,note_off,0,0,0,,6,,,54,127
79574,note_on,3,0,0,,7,,,55,127
79574,note_on,0,0,0,,12,,,59,127
79574,note_on,0,0,0,,10,,,69,127
79667,note_off,93,0,0,,10,,,69,127
79670,note_on,3,0,0,,7,,,67,127
79763,note_off,93,0,0,,7,,,67,127
79766,note_on,3,0,0,,6,,,66,127
79859,note_off,93,0,0,,6,,,66,127
79862,note_on,3,0,0,,7,,,67,127
79955,note_off,93,0,0,,7,,,67,127
79958,note_on,3,0,0,,10,,,69,127
80051,note_off,93,0,0,,10,,,69,127
80054,note_on,3,0,0,,12,,,71,127
80147,note_off,93,0,0,,12,,,71,127
80150,note_on,3,0,0,,2,,,62,127
80435,note_off,285,0,0,,2,,,62,127
80435,note_off,0,0,0,,12,,,59,127
80435,note_off,0,0,0,,7,,,55,127
80438,note_on,3,0,0,,6,,,54,127
80438,note_on,0,0,0,,10,,,57,127
80438,note_on,0,0,0,,10,,,69,127
80723,note_off,285,0,0,,10,,,69,127
80723,note_off,0,0,0,,10,,,57,127
80723,note_off,0,0,0,,6,,,54,127
80726,note_on,3,0,0,,12,,,59,127
80726,note_on,0,0,0,,7,,,55,127
80726,note_on,0,0,0,,10,,,69,127
80819,note_off,93,0,0,,10,,,69,127
80822,note_on,3,0,0,,7,,,67,127
80915,note_off,93,0,0,,7,,,67,127
80918,note_on,3,0,0,,6,,,66,127
81011,note_off,93,0,0,,6,,,66,127
81014,note_on,3,0,0,,7,,,67,127
81107,note_off,93,0,0,,7,,,67,127
81110,note_on,3,0,0,,10,,,69,127
81203,note_off,93,0,0,,10,,,69,127
81206,note_on,3,0,0,,12,,,71,127
81299,note_off,93,0,0,,12,,,71,127
81302,note_on,3,0,0,,2,,,62,127
81587,note_off,285,0,0,,2,,,62,127
81587,note_off,0,0,0,,7,,,55,127
81587,note_off,0,0,0,,12,,,59,127
81590,note_on,3,0,0,,10,,,57,127
81590,note_on,0,0,0,,6,,,54,127
81590,note_on,0,0,0,,2,,,74,127
81875,note_off,285,0,0,,2,,,74,127
81875,note_off,0,0,0,,6,,,54,127
81875,note_off,0,0,0,,10,,,57,127
81878,note_on,3,0,0,,7,,,55,127
81878,note_on,0,0,0,,2,,,74,127
81971,note_off,93,0,0,,2,,,74,127
81974,note_on,3,0,0,,0,,,72,127
82067,note_off,93,0,0,,0,,,72,127
82070,note_on,3,0,0,,12,,,71,127
82163,note_off,93,0,0,,12,,,71,127
82163,note_off,0,0,0,,7,,,55,127
82166,note_on,3,0,0,,10,,,57,127
82166,note_on,0,0,0,,12,,,71,127
82259,note_off,93,0,0,,12,,,71,127
82262,note_on,3,0,0,,10,,,69,127
82355,note_off,93,0,0,,10,,,69,127
82358,note_on,3,0,0,,7,,,67,127
82451,note_off,93,0,0,,7,,,67,127
82451,note_off,0,0,0,,10,,,57,127
82454,note_on,3,0,0,,12,,,59,127
82454,note_on,0,0,0,,7,,,67,127
82739,note_off,285,0,0,,7,,,67,127
82739,note_off,0,0,0,,12,,,59,127
82742,note_on,3,0,0,,7,,,55,127
82742,note_on,0,0,0,,7,,,67,127
83027,note_off,285,0,0,,7,,,67,127
83027,note_off,0,0,0,,7,,,55,127
83030,note_on,3,0,0,,0,,,48,127
83030,note_on,0,0,0,,7,,,67,127
83123,note_off,93,0,0,,7,,,67,127
83126,note_on,3,0,0,,10,,,69,127
83219,note_off,93,0,0,,10,,,69,127
83222,note_on,3,0,0,,12,,,71,127
83315,note_off,93,0,0,,12,,,71,127
83315,note_off,0,0,0,,0,,,48,127
83318,note_on,3,0,0,,4,,,52,127
83318,note_on,0,0,0,,0,,,72,127
83411,note_off,93,0,0,,0,,,72,127
83414,note_on,3,0,0,,2,,,74,127
83507,note_off,93,0,0,,2,,,74,127
83510,note_on,3,0,0,,4,,,76,127
83603,note_off,93,0,0,,4,,,76,127
83603,note_off,0,0,0,,4,,,52,127
83606,note_on,3,0,0,,2,,,50,127
83606,note_on,0,0,0,,7,,,67,127
83891,note_off,285,0,0,,7,,,67,127
83894,note_on,3,0,0,,2,,,38,127
83894,note_on,0,0,0,,6,,,66,127
84176,note_off,282,0,0,,2,,,50,127
84179,note_off,3,0,0,,6,,,66,127
84179,note_off,0,0,0,,2,,,38,127
84182,note_on,3,0,0,,7,,,43,127
84182,note_on,0,0,0,,7,,,67,127
84467,note_off,285,0,0,,7,,,67,127
84470,note_on,3,0,0,,7,,,79,127
84470,note_on,0,0,0,,7,,,67,127
84755,note_off,285,0,0,,7,,,67,127
84755,note_off,0,0,0,,7,,,79,127
84758,note_on,3,0,0,,5,,,77,127
84758,note_on,0,0,0,,10,,,69,127
85043,note_off,285,0,0,,10,,,69,127
85043,note_off,0,0,0,,5,,,77,127
85045,note_off,2,0,0,,7,,,43,127
85047,note_on,2,0,0,,2,,,74,127
85047,note_on,0,0,0,,12,,,71,127
85332,note_off,285,0,0,,12,,,71,127
85332,note_off,0,0,0,,2,,,74,127
85335,note_on,3,0,0,,0,,,48,127
85335,note_on,0,0,0,,3,,,75,127
85620,note_off,285,0,0,,3,,,75,127
85623,note_on,3,0,0,,0,,,60,127
85623,note_on,0,0,0,,4,,,64,127
85623,note_on,0,0,0,,4,,,76,127
85905,note_off,282,0,0,,0,,,48,127
85908,note_off,3,0,0,,4,,,76,127
85908,note_off,0,0,0,,4,,,64,127
85908,note_off,0,0,0,,0,,,60,127
85911,note_on,3,0,0,,2,,,50,127
85911,note_on,0,0,0,,12,,,59,127
85911,note_on,0,0,0,,7,,,67,127
86196,note_off,285,0,0,,7,,,67,127
86196,note_off,0,0,0,,12,,,59,127
86199,note_on,3,0,0,,10,,,57,127
86199,note_on,0,0,0,,7,,,67,127
86268,note_off,69,0,0,,7,,,67,127
86271,note_on,3,0,0,,6,,,66,127
86340,note_off,69,0,0,,6,,,66,127
86343,note_on,3,0,0,,4,,,64,127
86412,note_off,69,0,0,,4,,,64,127
86415,note_on,3,0,0,,6,,,66,127
86481,note_off,66,0,0,,2,,,50,127
86484,note_off,3,0,0,,6,,,66,127
86484,note_off,0,0,0,,10,,,57,127
86487,note_on,3,0,0,,7,,,43,127
86487,note_on,0,0,0,,7,,,55,127
86487,note_on,0,0,0,,7,,,67,127
86772,note_off,285,0,0,,7,,,67,127
86781,note_on,9,0,0,,7,,,79,127
86781,note_on,0,0,0,,7,,,67,127
87071,note_off,290,0,0,,7,,,67,127
87071,note_off,0,0,0,,7,,,79,127
87079,note_on,8,0,0,,10,,,69,127
87079,note_on,0,0,0,,5,,,77,127
87349,note_off,270,0,0,,7,,,55,127
87349,note_off,0,0,0,,7,,,43,127
87369,note_off,20,0,0,,5,,,77,127
87369,note_off,0,0,0,,10,,,69,127
87375,note_on,6,0,0,,12,,,71,127
87375,note_on,0,0,0,,2,,,74,127
87375,note_on,0,0,0,,7,,,43,127
87665,note_off,290,0,0,,7,,,43,127
87665,note_off,0,0,0,,2,,,74,127
87665,note_off,0,0,0,,12,,,71,127
87673,note_on,8,0,0,,3,,,75,127
87673,note_on,0,0,0,,0,,,48,127
87963,note_off,290,0,0,,3,,,75,127
87971,note_on,8,0,0,,4,,,64,127
87971,note_on,0,0,0,,4,,,76,127
87971,note_on,0,0,0,,0,,,60,127
88255,note_off,284,0,0,,0,,,48,127
88261,note_off,6,0,0,,0,,,60,127
88261,note_off,0,0,0,,4,,,76,127
88261,note_off,0,0,0,,4,,,64,127
88269,note_on,8,0,0,,7,,,67,127
88269,note_on,0,0,0,,12,,,59,127
88269,note_on,0,0,0,,2,,,50,127
88559,note_off,290,0,0,,12,,,59,127
88559,note_off,0,0,0,,7,,,67,127
88565,note_on,6,0,0,,7,,,67,127
88565,note_on,0,0,0,,10,,,57,127
88634,note_off,69,0,0,,7,,,67,127
88640,note_on,6,0,0,,6,,,66,127
88709,note_off,69,0,0,,6,,,66,127
88713,note_on,4,0,0,,4,,,64,127
88782,note_off,69,0,0,,4,,,64,127
88788,note_on,6,0,0,,6,,,66,127
88850,note_off,62,0,0,,2,,,50,127
88854,note_off,4,0,0,,10,,,57,127
88857,note_off,3,0,0,,6,,,66,127
88861,note_on,4,0,0,,6,,,66,127
88861,note_on,0,0,0,,7,,,55,127
88861,note_on,0,0,0,,7,,,43,127
89347,note_off,486,0,0,,6,,,66,127
89356,note_on,9,0,0,,7,,,67,127
91303,note_off,1947,0,0,,7,,,67,127
91303,note_off,0,0,0,,7,,,43,127
91303,note_off,0,0,0,,7,,,55,127
92160,end_of_track,857,1,0,,,,,,
