tick,type,time,meta,track,program,channel,pitch,tempo,note,velocity
0,copyright,0,1,0,,,,,,
0,program_change,0,0,0,6,0,,,,
0,pitchwheel,0,0,0,,0,0,,,
0,program_change,0,0,0,6,1,,,,
0,pitchwheel,0,0,0,,1,-590,,,
0,program_change,0,0,0,6,2,,,,
0,pitchwheel,0,0,0,,2,-272,,,
0,program_change,0,0,0,6,3,,,,
0,pitchwheel,0,0,0,,3,-353,,,
0,program_change,0,0,0,6,4,,,,
0,pitchwheel,0,0,0,,4,-560,,,
0,program_change,0,0,0,6,5,,,,
0,pitchwheel,0,0,0,,5,-80,,,
0,program_change,0,0,0,6,6,,,,
0,pitchwheel,0,0,0,,6,-625,,,
0,program_change,0,0,0,6,7,,,,
0,pitchwheel,0,0,0,,7,-130,,,
0,program_change,0,0,0,6,8,,,,
0,pitchwheel,0,0,0,,8,-512,,,
0,program_change,0,0,0,6,10,,,,
0,pitchwheel,0,0,0,,10,-464,,,
0,program_change,0,0,0,6,11,,,,
0,pitchwheel,0,0,0,,11,-208,,,
0,program_change,0,0,0,6,12,,,,
0,pitchwheel,0,0,0,,12,-553,,,
0,set_tempo,0,1,0,,,,500000,,
125,note_on,125,0,0,,1,,,61,127
125,note_on,0,0,0,,10,,,57,127
125,note_on,0,0,0,,4,,,76,127
249,note_off,124,0,0,,4,,,76,127
250,note_on,1,0,0,,1,,,73,127
374,note_off,124,0,0,,1,,,73,127
375,note_on,1,0,0,,2,,,74,127
499,note_off,124,0,0,,2,,,74,127
500,note_on,1,0,0,,12,,,71,127
624,note_off,124,0,0,,12,,,71,127
625,note_on,1,0,0,,10,,,69,127
853,note_off,228,0,0,,10,,,69,127
875,note_on,22,0,0,,12,,,59,127
875,note_on,0,0,0,,2,,,62,127
875,note_on,0,0,0,,8,,,68,127
885,note_off,10,0,0,,10,,,57,127
885,note_off,0,0,0,,1,,,61,127
1103,note_off,218,0,0,,8,,,68,127
1124,note_off,21,0,0,,2,,,62,127
1124,note_off,0,0,0,,12,,,59,127
1125,note_on,1,0,0,,1,,,61,127
1125,note_on,0,0,0,,10,,,69,127
1125,note_on,0,0,0,,4,,,64,127
1374,note_off,249,0,0,,1,,,61,127
1375,note_on,1,0,0,,12,,,59,127
1624,note_off,249,0,0,,12,,,59,127
1624,note_off,0,0,0,,4,,,64,127
1625,note_on,1,0,0,,1,,,61,127
1625,note_on,0,0,0,,10,,,81,127
1874,note_off,249,0,0,,1,,,61,127
1875,note_on,1,0,0,,10,,,57,127
2124,note_off,249,0,0,,10,,,57,127
2124,note_off,0,0,0,,10,,,69,127
2125,note_on,1,0,0,,2,,,62,127
2249,note_off,124,0,0,,10,,,81,127
2250,note_on,1,0,0,,4,,,76,127
2374,note_off,124,0,0,,4,,,76,127
2375,note_on,1,0,0,,6,,,78,127
2624,note_off,249,0,0,,2,,,62,127
2625,note_on,1,0,0,,8,,,56,127
2749,note_off,124,0,0,,6,,,78,127
2750,note_on,1,0,0,,2,,,74,127
2874,note_off,124,0,0,,2,,,74,127
2875,note_on,1,0,0,,4,,,76,127
2999,note_off,124,0,0,,4,,,76,127
3000,note_on,1,0,0,,12,,,71,127
3124,note_off,124,0,0,,12,,,71,127
3124,note_off,0,0,0,,8,,,56,127
3125,note_on,1,0,0,,10,,,57,127
3125,note_on,0,0,0,,1,,,73,127
3249,note_off,124,0,0,,1,,,73,127
3250,note_on,1,0,0,,10,,,69,127
3374,note_off,124,0,0,,10,,,69,127
3374,note_off,0,0,0,,10,,,57,127
3375,note_on,1,0,0,,4,,,52,127
3375,note_on,0,0,0,,8,,,68,127
3499,note_off,124,0,0,,8,,,68,127
3500,note_on,1,0,0,,12,,,71,127
3620,note_off,120,0,0,,12,,,71,127
3624,note_off,4,0,0,,4,,,52,127
3625,note_on,1,0,0,,10,,,45,127
3625,note_on,0,0,0,,12,,,71,127
3930,note_off,305,0,0,,12,,,71,127
3940,note_on,10,0,0,,10,,,69,127
4240,note_on,300,0,0,,10,,,57,127
4240,note_on,0,0,0,,1,,,61,127
4240,note_on,0,0,0,,4,,,76,127
4250,note_off,10,0,0,,10,,,45,127
4344,note_off,94,0,0,,10,,,69,127
4364,note_off,20,0,0,,4,,,76,127
4365,note_on,1,0,0,,1,,,73,127
4489,note_off,124,0,0,,1,,,73,127
4490,note_on,1,0,0,,2,,,74,127
4614,note_off,124,0,0,,2,,,74,127
4615,note_on,1,0,0,,12,,,71,127
4739,note_off,124,0,0,,12,,,71,127
4740,note_on,1,0,0,,10,,,69,127
4968,note_off,228,0,0,,10,,,69,127
4990,note_on,22,0,0,,12,,,59,127
4990,note_on,0,0,0,,2,,,62,127
4990,note_on,0,0,0,,8,,,68,127
4999,note_off,9,0,0,,1,,,61,127
4999,note_off,0,0,0,,10,,,57,127
5218,note_off,219,0,0,,8,,,68,127
5239,note_off,21,0,0,,2,,,62,127
5239,note_off,0,0,0,,12,,,59,127
5240,note_on,1,0,0,,1,,,61,127
5240,note_on,0,0,0,,10,,,69,127
5240,note_on,0,0,0,,4,,,64,127
5489,note_off,249,0,0,,1,,,61,127
5490,note_on,1,0,0,,12,,,59,127
5739,note_off,249,0,0,,12,,,59,127
5739,note_off,0,0,0,,4,,,64,127
5739,note_off,0,0,0,,10,,,69,127
5740,note_on,1,0,0,,1,,,61,127
5740,note_on,0,0,0,,4,,,76,127
5989,note_off,249,0,0,,1,,,61,127
5990,note_on,1,0,0,,10,,,57,127
6239,note_off,249,0,0,,10,,,57,127
6240,note_on,1,0,0,,12,,,59,127
6391,note_off,151,0,0,,4,,,76,127
6489,note_off,98,0,0,,12,,,59,127
6490,note_on,1,0,0,,8,,,56,127
6490,note_on,0,0,0,,2,,,74,127
6739,note_off,249,0,0,,8,,,56,127
6740,note_on,1,0,0,,10,,,57,127
6989,note_off,249,0,0,,10,,,57,127
6989,note_off,0,0,0,,2,,,74,127
6990,note_on,1,0,0,,3,,,51,127
6990,note_on,0,0,0,,1,,,73,127
7239,note_off,249,0,0,,3,,,51,127
7240,note_on,1,0,0,,4,,,52,127
7489,note_off,249,0,0,,1,,,73,127
7490,note_on,1,0,0,,1,,,73,127
7551,note_off,61,0,0,,1,,,73,127
7552,note_on,1,0,0,,12,,,71,127
7613,note_off,61,0,0,,12,,,71,127
7614,note_on,1,0,0,,10,,,69,127
7738,note_off,124,0,0,,10,,,69,127
7739,note_on,1,0,0,,4,,,40,127
7748,note_on,9,0,0,,10,,,69,127
8053,note_off,305,0,0,,10,,,69,127
8061,note_on,8,0,0,,12,,,71,127
8238,note_off,177,0,0,,4,,,40,127
8478,note_off,240,0,0,,4,,,52,127
8556,note_off,78,0,0,,12,,,71,127
8604,note_on,48,0,0,,4,,,76,127
8604,note_on,0,0,0,,10,,,57,127
8604,note_on,0,0,0,,1,,,61,127
8728,note_off,124,0,0,,4,,,76,127
8729,note_on,1,0,0,,1,,,73,127
8853,note_off,124,0,0,,1,,,73,127
8854,note_on,1,0,0,,2,,,74,127
8978,note_off,124,0,0,,2,,,74,127
8979,note_on,1,0,0,,12,,,71,127
9103,note_off,124,0,0,,12,,,71,127
9104,note_on,1,0,0,,10,,,69,127
9354,note_on,250,0,0,,8,,,68,127
9354,note_on,0,0,0,,12,,,59,127
9354,note_on,0,0,0,,2,,,62,127
9363,note_off,9,0,0,,10,,,69,127
9363,note_off,0,0,0,,1,,,61,127
9363,note_off,0,0,0,,10,,,57,127
9603,note_off,240,0,0,,2,,,62,127
9603,note_off,0,0,0,,12,,,59,127
9603,note_off,0,0,0,,8,,,68,127
9604,note_on,1,0,0,,4,,,64,127
9604,note_on,0,0,0,,10,,,69,127
9604,note_on,0,0,0,,1,,,61,127
9853,note_off,249,0,0,,1,,,61,127
9854,note_on,1,0,0,,12,,,59,127
10103,note_off,249,0,0,,12,,,59,127
10103,note_off,0,0,0,,10,,,69,127
10103,note_off,0,0,0,,4,,,64,127
10104,note_on,1,0,0,,10,,,81,127
10104,note_on,0,0,0,,1,,,61,127
10353,note_off,249,0,0,,1,,,61,127
10354,note_on,1,0,0,,10,,,57,127
10603,note_off,249,0,0,,10,,,57,127
10604,note_on,1,0,0,,2,,,62,127
10728,note_off,124,0,0,,10,,,81,127
10729,note_on,1,0,0,,8,,,80,127
10853,note_off,124,0,0,,8,,,80,127
10854,note_on,1,0,0,,6,,,78,127
10978,note_off,124,0,0,,6,,,78,127
10979,note_on,1,0,0,,4,,,76,127
11103,note_off,124,0,0,,4,,,76,127
11103,note_off,0,0,0,,2,,,62,127
11104,note_on,1,0,0,,2,,,74,127
11104,note_on,0,0,0,,8,,,56,127
11353,note_off,249,0,0,,8,,,56,127
11353,note_off,0,0,0,,2,,,74,127
11354,note_on,1,0,0,,1,,,73,127
11354,note_on,0,0,0,,10,,,57,127
11603,note_off,249,0,0,,10,,,57,127
11604,note_on,1,0,0,,4,,,52,127
11853,note_off,249,0,0,,1,,,73,127
11854,note_on,1,0,0,,1,,,73,127
11915,note_off,61,0,0,,1,,,73,127
11916,note_on,1,0,0,,12,,,71,127
11977,note_off,61,0,0,,12,,,71,127
11978,note_on,1,0,0,,10,,,69,127
12102,note_off,124,0,0,,10,,,69,127
12103,note_on,1,0,0,,10,,,69,127
12352,note_off,249,0,0,,10,,,69,127
12353,note_on,1,0,0,,12,,,71,127
12353,note_on,0,0,0,,4,,,40,127
12602,note_off,249,0,0,,4,,,52,127
12637,note_on,35,0,0,,4,,,52,127
12637,note_on,0,0,0,,8,,,56,127
12647,note_off,10,0,0,,4,,,40,127
12749,note_on,102,0,0,,8,,,68,127
12784,note_off,35,0,0,,12,,,71,127
12873,note_off,89,0,0,,8,,,68,127
12874,note_on,1,0,0,,10,,,69,127
12998,note_off,124,0,0,,10,,,69,127
12999,note_on,1,0,0,,6,,,66,127
13123,note_off,124,0,0,,6,,,66,127
13124,note_on,1,0,0,,4,,,64,127
13372,note_off,248,0,0,,8,,,56,127
13372,note_off,0,0,0,,4,,,52,127
13373,note_off,1,0,0,,4,,,64,127
13374,note_on,1,0,0,,8,,,56,127
13374,note_on,0,0,0,,4,,,52,127
13374,note_on,0,0,0,,4,,,76,127
13623,note_off,249,0,0,,4,,,76,127
13623,note_off,0,0,0,,4,,,52,127
13623,note_off,0,0,0,,8,,,56,127
13624,note_on,1,0,0,,10,,,57,127
13624,note_on,0,0,0,,6,,,54,127
13624,note_on,0,0,0,,4,,,76,127
13625,note_on,1,0,0,,6,,,78,127
13873,note_off,248,0,0,,4,,,76,127
13874,note_off,1,0,0,,6,,,78,127
13874,note_on,0,0,0,,3,,,75,127
14123,note_off,249,0,0,,3,,,75,127
14124,note_on,1,0,0,,10,,,69,127
14373,note_off,249,0,0,,6,,,54,127
14373,note_off,0,0,0,,10,,,57,127
14374,note_on,1,0,0,,6,,,54,127
14374,note_on,0,0,0,,10,,,57,127
14623,note_off,249,0,0,,10,,,57,127
14623,note_off,0,0,0,,6,,,54,127
14624,note_on,1,0,0,,6,,,54,127
14624,note_on,0,0,0,,12,,,47,127
14624,note_on,0,0,0,,10,,,57,127
14697,note_off,73,0,0,,10,,,69,127
14749,note_on,52,0,0,,6,,,66,127
14873,note_off,124,0,0,,6,,,66,127
14874,note_on,1,0,0,,8,,,68,127
14998,note_off,124,0,0,,8,,,68,127
14999,note_on,1,0,0,,4,,,64,127
15123,note_off,124,0,0,,4,,,64,127
15124,note_on,1,0,0,,3,,,63,127
15373,note_off,249,0,0,,3,,,63,127
15374,note_on,1,0,0,,6,,,78,127
15623,note_off,249,0,0,,6,,,78,127
15623,note_off,0,0,0,,10,,,57,127
15623,note_off,0,0,0,,12,,,47,127
15623,note_off,0,0,0,,6,,,54,127
15624,note_on,1,0,0,,8,,,56,127
15624,note_on,0,0,0,,12,,,59,127
15624,note_on,0,0,0,,6,,,78,127
15625,note_on,1,0,0,,8,,,80,127
15873,note_off,248,0,0,,6,,,78,127
15874,note_off,1,0,0,,8,,,80,127
15874,note_on,0,0,0,,4,,,76,127
16123,note_off,249,0,0,,4,,,76,127
16124,note_on,1,0,0,,12,,,71,127
16373,note_off,249,0,0,,12,,,59,127
16373,note_off,0,0,0,,8,,,56,127
16374,note_on,1,0,0,,8,,,56,127
16374,note_on,0,0,0,,12,,,59,127
16623,note_off,249,0,0,,12,,,59,127
16623,note_off,0,0,0,,8,,,56,127
16624,note_on,1,0,0,,12,,,59,127
16624,note_on,0,0,0,,4,,,52,127
16710,note_off,86,0,0,,12,,,71,127
16749,note_on,39,0,0,,8,,,68,127
16873,note_off,124,0,0,,8,,,68,127
16874,note_on,1,0,0,,10,,,69,127
16998,note_off,124,0,0,,10,,,69,127
16999,note_on,1,0,0,,6,,,66,127
17123,note_off,124,0,0,,6,,,66,127
17124,note_on,1,0,0,,4,,,64,127
17373,note_off,249,0,0,,4,,,64,127
17374,note_on,1,0,0,,8,,,80,127
17623,note_off,249,0,0,,8,,,80,127
17623,note_off,0,0,0,,4,,,52,127
17623,note_off,0,0,0,,12,,,59,127
17624,note_on,1,0,0,,10,,,57,127
17624,note_on,0,0,0,,8,,,80,127
17625,note_on,1,0,0,,10,,,81,127
17873,note_off,248,0,0,,8,,,80,127
17874,note_off,1,0,0,,10,,,81,127
17874,note_on,0,0,0,,6,,,78,127
18123,note_off,249,0,0,,6,,,78,127
18124,note_on,1,0,0,,10,,,69,127
18124,note_on,0,0,0,,6,,,78,127
18125,note_on,1,0,0,,8,,,80,127
18373,note_off,248,0,0,,6,,,78,127
18373,note_off,0,0,0,,10,,,57,127
18374,note_off,1,0,0,,8,,,80,127
18374,note_on,0,0,0,,4,,,76,127
18623,note_off,249,0,0,,4,,,76,127
18623,note_off,0,0,0,,10,,,69,127
18624,note_on,1,0,0,,10,,,69,127
18624,note_on,0,0,0,,4,,,76,127
18625,note_on,1,0,0,,6,,,78,127
18873,note_off,248,0,0,,4,,,76,127
18874,note_off,1,0,0,,6,,,78,127
18874,note_on,0,0,0,,3,,,75,127
19123,note_off,249,0,0,,3,,,75,127
19123,note_off,0,0,0,,10,,,69,127
19124,note_on,1,0,0,,8,,,68,127
19124,note_on,0,0,0,,6,,,78,127
19185,note_off,61,0,0,,6,,,78,127
19186,note_on,1,0,0,,4,,,76,127
19247,note_off,61,0,0,,4,,,76,127
19248,note_on,1,0,0,,6,,,78,127
19309,note_off,61,0,0,,6,,,78,127
19310,note_on,1,0,0,,4,,,76,127
19371,note_off,61,0,0,,4,,,76,127
19371,note_off,0,0,0,,8,,,68,127
19372,note_on,1,0,0,,6,,,66,127
19372,note_on,0,0,0,,6,,,78,127
19433,note_off,61,0,0,,6,,,78,127
19434,note_on,1,0,0,,4,,,76,127
19495,note_off,61,0,0,,4,,,76,127
19495,note_off,0,0,0,,6,,,66,127
19496,note_on,1,0,0,,4,,,64,127
19496,note_on,0,0,0,,3,,,75,127
19557,note_off,61,0,0,,3,,,75,127
19558,note_on,1,0,0,,4,,,76,127
19619,note_off,61,0,0,,4,,,76,127
19619,note_off,0,0,0,,4,,,64,127
19620,note_on,1,0,0,,12,,,59,127
19620,note_on,0,0,0,,4,,,76,127
20121,note_on,501,0,0,,12,,,47,127
20426,note_on,305,0,0,,6,,,78,127
20436,note_off,10,0,0,,4,,,76,127
20663,note_off,227,0,0,,12,,,59,127
20851,note_off,188,0,0,,12,,,47,127
20948,note_off,97,0,0,,6,,,78,127
21519,note_on,571,0,0,,6,,,78,127
21519,note_on,0,0,0,,3,,,63,127
21519,note_on,0,0,0,,12,,,59,127
21643,note_off,124,0,0,,6,,,78,127
21644,note_on,1,0,0,,3,,,75,127
21768,note_off,124,0,0,,3,,,75,127
21769,note_on,1,0,0,,4,,,76,127
21893,note_off,124,0,0,,4,,,76,127
21894,note_on,1,0,0,,1,,,73,127
22018,note_off,124,0,0,,1,,,73,127
22019,note_on,1,0,0,,12,,,71,127
22268,note_off,249,0,0,,12,,,71,127
22268,note_off,0,0,0,,3,,,63,127
22269,note_on,1,0,0,,10,,,69,127
22269,note_on,0,0,0,,3,,,63,127
22518,note_off,249,0,0,,3,,,63,127
22518,note_off,0,0,0,,10,,,69,127
22518,note_off,0,0,0,,12,,,59,127
22519,note_on,1,0,0,,8,,,68,127
22519,note_on,0,0,0,,4,,,64,127
22519,note_on,0,0,0,,12,,,59,127
22768,note_off,249,0,0,,8,,,68,127
22769,note_on,1,0,0,,4,,,76,127
23018,note_off,249,0,0,,4,,,76,127
23018,note_off,0,0,0,,4,,,64,127
23019,note_on,1,0,0,,11,,,70,127
23019,note_on,0,0,0,,1,,,61,127
23268,note_off,249,0,0,,11,,,70,127
23269,note_on,1,0,0,,1,,,73,127
23518,note_off,249,0,0,,1,,,61,127
23518,note_off,0,0,0,,12,,,59,127
23526,note_off,8,0,0,,1,,,73,127
23530,note_on,4,0,0,,6,,,78,127
23530,note_on,0,0,0,,3,,,63,127
23530,note_on,0,0,0,,12,,,59,127
23654,note_off,124,0,0,,6,,,78,127
23655,note_on,1,0,0,,3,,,75,127
23779,note_off,124,0,0,,3,,,75,127
23780,note_on,1,0,0,,4,,,76,127
23904,note_off,124,0,0,,4,,,76,127
23905,note_on,1,0,0,,1,,,73,127
24029,note_off,124,0,0,,1,,,73,127
24030,note_on,1,0,0,,12,,,71,127
24279,note_off,249,0,0,,12,,,71,127
24279,note_off,0,0,0,,3,,,63,127
24280,note_on,1,0,0,,10,,,69,127
24280,note_on,0,0,0,,3,,,63,127
24529,note_off,249,0,0,,3,,,63,127
24529,note_off,0,0,0,,10,,,69,127
24529,note_off,0,0,0,,12,,,59,127
24530,note_on,1,0,0,,8,,,68,127
24530,note_on,0,0,0,,12,,,59,127
24530,note_on,0,0,0,,4,,,64,127
24779,note_off,249,0,0,,8,,,68,127
24780,note_on,1,0,0,,4,,,76,127
25029,note_off,249,0,0,,4,,,76,127
25029,note_off,0,0,0,,4,,,64,127
25030,note_on,1,0,0,,11,,,70,127
25030,note_on,0,0,0,,1,,,61,127
25279,note_off,249,0,0,,11,,,70,127
25280,note_on,1,0,0,,1,,,73,127
25529,note_off,249,0,0,,1,,,61,127
25529,note_off,0,0,0,,12,,,59,127
25539,note_off,10,0,0,,1,,,73,127
25540,note_on,1,0,0,,6,,,78,127
25540,note_on,0,0,0,,12,,,59,127
25664,note_off,124,0,0,,6,,,78,127
25665,note_on,1,0,0,,3,,,75,127
25789,note_off,124,0,0,,3,,,75,127
25790,note_on,1,0,0,,4,,,76,127
25914,note_off,124,0,0,,4,,,76,127
25915,note_on,1,0,0,,1,,,73,127
26039,note_off,124,0,0,,1,,,73,127
26040,note_on,1,0,0,,3,,,75,127
26164,note_off,124,0,0,,3,,,75,127
26165,note_on,1,0,0,,12,,,71,127
26289,note_off,124,0,0,,12,,,71,127
26290,note_on,1,0,0,,1,,,73,127
26414,note_off,124,0,0,,1,,,73,127
26415,note_on,1,0,0,,11,,,70,127
26539,note_off,124,0,0,,11,,,70,127
26540,note_on,1,0,0,,6,,,78,127
26540,note_on,0,0,0,,12,,,47,127
26664,note_off,124,0,0,,6,,,78,127
26665,note_on,1,0,0,,3,,,75,127
26789,note_off,124,0,0,,3,,,75,127
26790,note_on,1,0,0,,4,,,76,127
26914,note_off,124,0,0,,4,,,76,127
26915,note_on,1,0,0,,1,,,73,127
27039,note_off,124,0,0,,1,,,73,127
27040,note_off,1,0,0,,12,,,59,127
27040,note_on,0,0,0,,3,,,75,127
27164,note_off,124,0,0,,3,,,75,127
27165,note_on,1,0,0,,12,,,71,127
27289,note_off,124,0,0,,12,,,71,127
27290,note_on,1,0,0,,1,,,73,127
27414,note_off,124,0,0,,1,,,73,127
27415,note_on,1,0,0,,11,,,70,127
27539,note_off,124,0,0,,11,,,70,127
27540,note_on,1,0,0,,11,,,70,127
27540,note_on,0,0,0,,12,,,35,127
28027,note_off,487,0,0,,11,,,70,127
28028,note_on,1,0,0,,12,,,71,127
28312,note_on,284,0,0,,12,,,83,127
28384,note_off,72,0,0,,12,,,71,127
28437,note_on,53,0,0,,12,,,71,127
28536,note_off,99,0,0,,12,,,47,127
28540,note_off,4,0,0,,12,,,35,127
28560,note_off,20,0,0,,12,,,83,127
28561,note_off,1,0,0,,12,,,71,127
28562,note_on,1,0,0,,12,,,71,127
28811,note_off,249,0,0,,12,,,71,127
28812,note_on,1,0,0,,12,,,71,127
29061,note_off,249,0,0,,12,,,71,127
29062,note_on,1,0,0,,12,,,71,127
29311,note_off,249,0,0,,12,,,71,127
29312,note_on,1,0,0,,12,,,71,127
29561,note_off,249,0,0,,12,,,71,127
29562,note_on,1,0,0,,4,,,64,127
29562,note_on,0,0,0,,1,,,61,127
29562,note_on,0,0,0,,7,,,79,127
29687,note_on,125,0,0,,1,,,73,127
29811,note_off,124,0,0,,1,,,73,127
29812,note_on,1,0,0,,2,,,74,127
29936,note_off,124,0,0,,2,,,74,127
29937,note_on,1,0,0,,12,,,71,127
30061,note_off,124,0,0,,12,,,71,127
30062,note_on,1,0,0,,11,,,70,127
30311,note_off,249,0,0,,11,,,70,127
30312,note_on,1,0,0,,12,,,71,127
30561,note_off,249,0,0,,12,,,71,127
30561,note_off,0,0,0,,7,,,79,127
30561,note_off,0,0,0,,1,,,61,127
30561,note_off,0,0,0,,4,,,64,127
30562,note_on,1,0,0,,4,,,64,127
30562,note_on,0,0,0,,1,,,61,127
30562,note_on,0,0,0,,7,,,79,127
30687,note_on,125,0,0,,1,,,73,127
30811,note_off,124,0,0,,1,,,73,127
30812,note_on,1,0,0,,2,,,74,127
30936,note_off,124,0,0,,2,,,74,127
30937,note_on,1,0,0,,12,,,71,127
31061,note_off,124,0,0,,12,,,71,127
31062,note_on,1,0,0,,11,,,70,127
31311,note_off,249,0,0,,11,,,70,127
31312,note_on,1,0,0,,12,,,71,127
31561,note_off,249,0,0,,12,,,71,127
31561,note_off,0,0,0,,7,,,79,127
31561,note_off,0,0,0,,1,,,61,127
31561,note_off,0,0,0,,4,,,64,127
31562,note_on,1,0,0,,4,,,64,127
31562,note_on,0,0,0,,0,,,60,127
31562,note_on,0,0,0,,10,,,81,127
31687,note_on,125,0,0,,6,,,78,127
31811,note_off,124,0,0,,6,,,78,127
31812,note_on,1,0,0,,7,,,79,127
31936,note_off,124,0,0,,7,,,79,127
31937,note_on,1,0,0,,4,,,76,127
32061,note_off,124,0,0,,4,,,76,127
32062,note_on,1,0,0,,3,,,75,127
32311,note_off,249,0,0,,3,,,75,127
32312,note_on,1,0,0,,4,,,76,127
32561,note_off,249,0,0,,4,,,76,127
32561,note_off,0,0,0,,10,,,81,127
32561,note_off,0,0,0,,0,,,60,127
32561,note_off,0,0,0,,4,,,64,127
32562,note_on,1,0,0,,4,,,64,127
32562,note_on,0,0,0,,0,,,60,127
32562,note_on,0,0,0,,10,,,81,127
32687,note_on,125,0,0,,6,,,78,127
32811,note_off,124,0,0,,6,,,78,127
32812,note_on,1,0,0,,7,,,79,127
32936,note_off,124,0,0,,7,,,79,127
32937,note_on,1,0,0,,4,,,76,127
33061,note_off,124,0,0,,4,,,76,127
33062,note_on,1,0,0,,3,,,75,127
33311,note_off,249,0,0,,3,,,75,127
33312,note_on,1,0,0,,4,,,76,127
33561,note_off,249,0,0,,4,,,76,127
33561,note_off,0,0,0,,10,,,81,127
33561,note_off,0,0,0,,0,,,60,127
33561,note_off,0,0,0,,4,,,64,127
33562,note_on,1,0,0,,6,,,66,127
33562,note_on,0,0,0,,12,,,59,127
33562,note_on,0,0,0,,10,,,81,127
33687,note_on,125,0,0,,6,,,78,127
33811,note_off,124,0,0,,6,,,78,127
33812,note_on,1,0,0,,8,,,80,127
33936,note_off,124,0,0,,8,,,80,127
33937,note_on,1,0,0,,4,,,76,127
34061,note_off,124,0,0,,4,,,76,127
34062,note_on,1,0,0,,3,,,75,127
34311,note_off,249,0,0,,3,,,75,127
34312,note_on,1,0,0,,4,,,76,127
34561,note_off,249,0,0,,4,,,76,127
34561,note_off,0,0,0,,10,,,81,127
34561,note_off,0,0,0,,12,,,59,127
34561,note_off,0,0,0,,6,,,66,127
34562,note_on,1,0,0,,12,,,59,127
34562,note_on,0,0,0,,6,,,66,127
34562,note_on,0,0,0,,6,,,78,127
34686,note_off,124,0,0,,6,,,78,127
34687,note_on,1,0,0,,3,,,75,127
34811,note_off,124,0,0,,3,,,75,127
34812,note_on,1,0,0,,4,,,76,127
34936,note_off,124,0,0,,4,,,76,127
34937,note_on,1,0,0,,1,,,73,127
35061,note_off,124,0,0,,1,,,73,127
35062,note_on,1,0,0,,12,,,71,127
35311,note_off,249,0,0,,12,,,71,127
35311,note_off,0,0,0,,6,,,66,127
35312,note_on,1,0,0,,3,,,63,127
35312,note_on,0,0,0,,10,,,69,127
35561,note_off,249,0,0,,10,,,69,127
35561,note_off,0,0,0,,3,,,63,127
35561,note_off,0,0,0,,12,,,59,127
35562,note_on,1,0,0,,8,,,56,127
35562,note_on,0,0,0,,12,,,71,127
35686,note_off,124,0,0,,12,,,71,127
35687,note_on,1,0,0,,8,,,68,127
35811,note_off,124,0,0,,8,,,68,127
35812,note_on,1,0,0,,10,,,69,127
35936,note_off,124,0,0,,10,,,69,127
35937,note_on,1,0,0,,6,,,66,127
36061,note_off,124,0,0,,6,,,66,127
36062,note_on,1,0,0,,4,,,64,127
36311,note_off,249,0,0,,8,,,56,127
36312,note_on,1,0,0,,8,,,56,127
36312,note_on,0,0,0,,4,,,76,127
36437,note_off,125,0,0,,4,,,64,127
36561,note_off,124,0,0,,8,,,56,127
36562,note_on,1,0,0,,10,,,57,127
36686,note_off,124,0,0,,4,,,76,127
36687,note_on,1,0,0,,3,,,75,127
36811,note_off,124,0,0,,3,,,75,127
36812,note_on,1,0,0,,1,,,73,127
37061,note_off,249,0,0,,10,,,57,127
37062,note_on,1,0,0,,1,,,61,127
37186,note_off,124,0,0,,1,,,73,127
37187,note_on,1,0,0,,12,,,71,127
37311,note_off,124,0,0,,12,,,71,127
37312,note_on,1,0,0,,10,,,69,127
37561,note_off,249,0,0,,1,,,61,127
37562,note_on,1,0,0,,12,,,59,127
37686,note_off,124,0,0,,10,,,69,127
37687,note_on,1,0,0,,8,,,68,127
37811,note_off,124,0,0,,8,,,68,127
37812,note_on,1,0,0,,6,,,66,127
37936,note_off,124,0,0,,6,,,66,127
37937,note_on,1,0,0,,4,,,64,127
38061,note_off,124,0,0,,4,,,64,127
38062,note_on,1,0,0,,12,,,47,127
38062,note_on,0,0,0,,8,,,68,127
38123,note_off,61,0,0,,8,,,68,127
38124,note_on,1,0,0,,6,,,66,127
38185,note_off,61,0,0,,6,,,66,127
38186,note_on,1,0,0,,8,,,68,127
38247,note_off,61,0,0,,8,,,68,127
38248,note_on,1,0,0,,6,,,66,127
38309,note_off,61,0,0,,6,,,66,127
38310,note_on,1,0,0,,8,,,68,127
38371,note_off,61,0,0,,8,,,68,127
38372,note_on,1,0,0,,6,,,66,127
38433,note_off,61,0,0,,6,,,66,127
38434,note_on,1,0,0,,4,,,64,127
38495,note_off,61,0,0,,4,,,64,127
38496,note_on,1,0,0,,6,,,66,127
38557,note_off,61,0,0,,6,,,66,127
38557,note_off,0,0,0,,12,,,47,127
38557,note_off,0,0,0,,12,,,59,127
38558,note_on,1,0,0,,4,,,52,127
38558,note_on,0,0,0,,4,,,64,127
38881,note_on,323,0,0,,4,,,40,127
39052,note_off,171,0,0,,4,,,52,127
39239,note_on,187,0,0,,4,,,52,127
39508,note_off,269,0,0,,4,,,40,127
39683,note_off,175,0,0,,4,,,52,127
39928,note_off,245,0,0,,4,,,64,127
39988,note_on,60,0,0,,12,,,83,127
40113,note_on,125,0,0,,12,,,71,127
40237,note_off,124,0,0,,12,,,71,127
40238,note_on,1,0,0,,12,,,71,127
40353,note_off,115,0,0,,12,,,83,127
40487,note_off,134,0,0,,12,,,71,127
40488,note_on,1,0,0,,12,,,71,127
40737,note_off,249,0,0,,12,,,71,127
40738,note_on,1,0,0,,12,,,71,127
40987,note_off,249,0,0,,12,,,71,127
40988,note_on,1,0,0,,12,,,71,127
41237,note_off,249,0,0,,12,,,71,127
41238,note_on,1,0,0,,1,,,61,127
41238,note_on,0,0,0,,4,,,64,127
41238,note_on,0,0,0,,7,,,79,127
41363,note_on,125,0,0,,1,,,73,127
41487,note_off,124,0,0,,1,,,73,127
41488,note_on,1,0,0,,2,,,74,127
41612,note_off,124,0,0,,2,,,74,127
41613,note_on,1,0,0,,12,,,71,127
41737,note_off,124,0,0,,12,,,71,127
41738,note_on,1,0,0,,11,,,70,127
41987,note_off,249,0,0,,11,,,70,127
41988,note_on,1,0,0,,12,,,71,127
42237,note_off,249,0,0,,12,,,71,127
42237,note_off,0,0,0,,7,,,79,127
42237,note_off,0,0,0,,4,,,64,127
42237,note_off,0,0,0,,1,,,61,127
42238,note_on,1,0,0,,4,,,64,127
42238,note_on,0,0,0,,1,,,61,127
42238,note_on,0,0,0,,7,,,79,127
42363,note_on,125,0,0,,1,,,73,127
42487,note_off,124,0,0,,1,,,73,127
42488,note_on,1,0,0,,2,,,74,127
42612,note_off,124,0,0,,2,,,74,127
42613,note_on,1,0,0,,12,,,71,127
42737,note_off,124,0,0,,12,,,71,127
42738,note_on,1,0,0,,11,,,70,127
42987,note_off,249,0,0,,11,,,70,127
42988,note_on,1,0,0,,12,,,71,127
43224,note_off,236,0,0,,12,,,71,127
43237,note_off,13,0,0,,7,,,79,127
43237,note_off,0,0,0,,1,,,61,127
43237,note_off,0,0,0,,4,,,64,127
43238,note_on,1,0,0,,0,,,60,127
43238,note_on,0,0,0,,4,,,64,127
43238,note_on,0,0,0,,10,,,81,127
43363,note_on,125,0,0,,6,,,78,127
43487,note_off,124,0,0,,6,,,78,127
43488,note_on,1,0,0,,7,,,79,127
43612,note_off,124,0,0,,7,,,79,127
43613,note_on,1,0,0,,4,,,76,127
43737,note_off,124,0,0,,4,,,76,127
43738,note_on,1,0,0,,3,,,75,127
43987,note_off,249,0,0,,3,,,75,127
43988,note_on,1,0,0,,4,,,76,127
44237,note_off,249,0,0,,4,,,76,127
44237,note_off,0,0,0,,10,,,81,127
44237,note_off,0,0,0,,4,,,64,127
44237,note_off,0,0,0,,0,,,60,127
44238,note_on,1,0,0,,0,,,60,127
44238,note_on,0,0,0,,4,,,64,127
44238,note_on,0,0,0,,10,,,81,127
44363,note_on,125,0,0,,6,,,78,127
44487,note_off,124,0,0,,6,,,78,127
44488,note_on,1,0,0,,7,,,79,127
44612,note_off,124,0,0,,7,,,79,127
44613,note_on,1,0,0,,4,,,76,127
44737,note_off,124,0,0,,4,,,76,127
44738,note_on,1,0,0,,3,,,75,127
44987,note_off,249,0,0,,3,,,75,127
44988,note_on,1,0,0,,4,,,76,127
45224,note_off,236,0,0,,4,,,76,127
45237,note_off,13,0,0,,10,,,81,127
45237,note_off,0,0,0,,4,,,64,127
45237,note_off,0,0,0,,0,,,60,127
45238,note_on,1,0,0,,12,,,59,127
45238,note_on,0,0,0,,6,,,66,127
45238,note_on,0,0,0,,10,,,81,127
45363,note_on,125,0,0,,6,,,78,127
45487,note_off,124,0,0,,6,,,78,127
45488,note_on,1,0,0,,8,,,80,127
45612,note_off,124,0,0,,8,,,80,127
45613,note_on,1,0,0,,4,,,76,127
45737,note_off,124,0,0,,4,,,76,127
45738,note_on,1,0,0,,3,,,75,127
45987,note_off,249,0,0,,3,,,75,127
45988,note_on,1,0,0,,4,,,76,127
46237,note_off,249,0,0,,4,,,76,127
46237,note_off,0,0,0,,10,,,81,127
46237,note_off,0,0,0,,6,,,66,127
46237,note_off,0,0,0,,12,,,59,127
46238,note_on,1,0,0,,6,,,66,127
46238,note_on,0,0,0,,12,,,59,127
46238,note_on,0,0,0,,6,,,78,127
46362,note_off,124,0,0,,6,,,78,127
46363,note_on,1,0,0,,3,,,75,127
46487,note_off,124,0,0,,3,,,75,127
46488,note_on,1,0,0,,4,,,76,127
46612,note_off,124,0,0,,4,,,76,127
46613,note_on,1,0,0,,1,,,73,127
46737,note_off,124,0,0,,1,,,73,127
46738,note_on,1,0,0,,12,,,71,127
46987,note_off,249,0,0,,12,,,71,127
46987,note_off,0,0,0,,6,,,66,127
46988,note_on,1,0,0,,3,,,63,127
46988,note_on,0,0,0,,10,,,69,127
47237,note_off,249,0,0,,10,,,69,127
47237,note_off,0,0,0,,3,,,63,127
47237,note_off,0,0,0,,12,,,59,127
47238,note_on,1,0,0,,8,,,56,127
47238,note_on,0,0,0,,12,,,71,127
47362,note_off,124,0,0,,12,,,71,127
47363,note_on,1,0,0,,8,,,68,127
47487,note_off,124,0,0,,8,,,68,127
47488,note_on,1,0,0,,10,,,69,127
47612,note_off,124,0,0,,10,,,69,127
47613,note_on,1,0,0,,6,,,66,127
47737,note_off,124,0,0,,6,,,66,127
47738,note_on,1,0,0,,4,,,64,127
47987,note_off,249,0,0,,8,,,56,127
47999,note_on,12,0,0,,8,,,56,127
47999,note_on,0,0,0,,4,,,76,127
48077,note_off,78,0,0,,4,,,64,127
48248,note_off,171,0,0,,8,,,56,127
48249,note_on,1,0,0,,10,,,57,127
48373,note_off,124,0,0,,4,,,76,127
48374,note_on,1,0,0,,3,,,75,127
48498,note_off,124,0,0,,3,,,75,127
48499,note_on,1,0,0,,1,,,73,127
48748,note_off,249,0,0,,10,,,57,127
48749,note_on,1,0,0,,1,,,61,127
48873,note_off,124,0,0,,1,,,73,127
48874,note_on,1,0,0,,12,,,71,127
48998,note_off,124,0,0,,12,,,71,127
48999,note_on,1,0,0,,10,,,69,127
49248,note_off,249,0,0,,1,,,61,127
49249,note_on,1,0,0,,12,,,59,127
49373,note_off,124,0,0,,10,,,69,127
49374,note_on,1,0,0,,8,,,68,127
49498,note_off,124,0,0,,8,,,68,127
49499,note_on,1,0,0,,6,,,66,127
49623,note_off,124,0,0,,6,,,66,127
49624,note_on,1,0,0,,4,,,64,127
49748,note_off,124,0,0,,4,,,64,127
49749,note_on,1,0,0,,12,,,47,127
49749,note_on,0,0,0,,8,,,68,127
49810,note_off,61,0,0,,8,,,68,127
49811,note_on,1,0,0,,6,,,66,127
49872,note_off,61,0,0,,6,,,66,127
49873,note_on,1,0,0,,8,,,68,127
49934,note_off,61,0,0,,8,,,68,127
49935,note_on,1,0,0,,6,,,66,127
49996,note_off,61,0,0,,6,,,66,127
49997,note_on,1,0,0,,8,,,68,127
50058,note_off,61,0,0,,8,,,68,127
50059,note_on,1,0,0,,6,,,66,127
50120,note_off,61,0,0,,6,,,66,127
50121,note_on,1,0,0,,4,,,64,127
50182,note_off,61,0,0,,4,,,64,127
50183,note_on,1,0,0,,6,,,66,127
50244,note_off,61,0,0,,6,,,66,127
50244,note_off,0,0,0,,12,,,47,127
50244,note_off,0,0,0,,12,,,59,127
50245,note_on,1,0,0,,4,,,52,127
50245,note_on,0,0,0,,4,,,64,127
50370,note_on,125,0,0,,8,,,68,127
50494,note_off,124,0,0,,8,,,68,127
50495,note_on,1,0,0,,12,,,71,127
50619,note_off,124,0,0,,12,,,71,127
50620,note_on,1,0,0,,4,,,76,127
50740,note_off,120,0,0,,4,,,64,127
50744,note_off,4,0,0,,4,,,76,127
50745,note_on,1,0,0,,4,,,76,127
50922,note_off,177,0,0,,4,,,52,127
50995,note_on,73,0,0,,8,,,56,127
51244,note_off,249,0,0,,8,,,56,127
51245,note_on,1,0,0,,10,,,57,127
51369,note_off,124,0,0,,4,,,76,127
51370,note_on,1,0,0,,3,,,75,127
51494,note_off,124,0,0,,3,,,75,127
51495,note_on,1,0,0,,1,,,73,127
51745,note_on,250,0,0,,10,,,45,127
51869,note_off,124,0,0,,1,,,73,127
51870,note_on,1,0,0,,12,,,71,127
51994,note_off,124,0,0,,12,,,71,127
51995,note_on,1,0,0,,10,,,69,127
52244,note_off,249,0,0,,10,,,45,127
52244,note_off,0,0,0,,10,,,57,127
52245,note_on,1,0,0,,12,,,47,127
52369,note_off,124,0,0,,10,,,69,127
52370,note_on,1,0,0,,8,,,68,127
52494,note_off,124,0,0,,8,,,68,127
52495,note_on,1,0,0,,6,,,66,127
52619,note_off,124,0,0,,6,,,66,127
52620,note_on,1,0,0,,4,,,64,127
52744,note_off,124,0,0,,4,,,64,127
52744,note_off,0,0,0,,12,,,47,127
52745,note_on,1,0,0,,12,,,47,127
52745,note_on,0,0,0,,8,,,68,127
52806,note_off,61,0,0,,8,,,68,127
52807,note_on,1,0,0,,6,,,66,127
52868,note_off,61,0,0,,6,,,66,127
52869,note_on,1,0,0,,8,,,68,127
52930,note_off,61,0,0,,8,,,68,127
52931,note_on,1,0,0,,6,,,66,127
52992,note_off,61,0,0,,6,,,66,127
52993,note_on,1,0,0,,8,,,68,127
53054,note_off,61,0,0,,8,,,68,127
53058,note_on,4,0,0,,6,,,66,127
53119,note_off,61,0,0,,6,,,66,127
53127,note_on,8,0,0,,4,,,64,127
53188,note_off,61,0,0,,4,,,64,127
53197,note_on,9,0,0,,6,,,66,127
53258,note_off,61,0,0,,6,,,66,127
53266,note_on,8,0,0,,4,,,52,127
53266,note_on,0,0,0,,4,,,40,127
53266,note_on,0,0,0,,4,,,64,127
53280,note_off,14,0,0,,12,,,47,127
54479,note_off,1199,0,0,,4,,,40,127
54492,note_off,13,0,0,,4,,,52,127
54505,note_off,13,0,0,,4,,,64,127
54860,note_on,355,0,0,,4,,,52,127
54860,note_on,0,0,0,,12,,,59,127
54860,note_on,0,0,0,,12,,,71,127
54984,note_off,124,0,0,,12,,,71,127
54985,note_on,1,0,0,,8,,,68,127
55109,note_off,124,0,0,,8,,,68,127
55110,note_on,1,0,0,,10,,,69,127
55234,note_off,124,0,0,,10,,,69,127
55235,note_on,1,0,0,,6,,,66,127
55359,note_off,124,0,0,,6,,,66,127
55360,note_on,1,0,0,,4,,,64,127
55609,note_off,249,0,0,,4,,,64,127
55610,note_on,1,0,0,,6,,,66,127
55859,note_off,249,0,0,,6,,,66,127
55859,note_off,0,0,0,,12,,,59,127
55859,note_off,0,0,0,,4,,,52,127
55860,note_on,1,0,0,,4,,,52,127
55860,note_on,0,0,0,,12,,,59,127
55860,note_on,0,0,0,,8,,,68,127
56109,note_off,249,0,0,,8,,,68,127
56110,note_on,1,0,0,,10,,,69,127
56359,note_off,249,0,0,,10,,,69,127
56359,note_off,0,0,0,,12,,,59,127
56359,note_off,0,0,0,,4,,,52,127
56360,note_on,1,0,0,,4,,,52,127
56360,note_on,0,0,0,,12,,,59,127
56360,note_on,0,0,0,,12,,,71,127
56609,note_off,249,0,0,,12,,,71,127
56610,note_on,1,0,0,,1,,,73,127
56845,note_off,235,0,0,,1,,,73,127
56870,note_off,25,0,0,,12,,,59,127
56870,note_off,0,0,0,,4,,,52,127
56871,note_on,1,0,0,,2,,,50,127
56871,note_on,0,0,0,,12,,,59,127
56871,note_on,0,0,0,,2,,,74,127
56995,note_off,124,0,0,,2,,,74,127
56996,note_on,1,0,0,,12,,,71,127
57120,note_off,124,0,0,,12,,,71,127
57121,note_on,1,0,0,,1,,,73,127
57245,note_off,124,0,0,,1,,,73,127
57246,note_on,1,0,0,,10,,,69,127
57370,note_off,124,0,0,,10,,,69,127
57371,note_on,1,0,0,,8,,,68,127
57620,note_off,249,0,0,,8,,,68,127
57621,note_on,1,0,0,,10,,,69,127
57870,note_off,249,0,0,,10,,,69,127
57870,note_off,0,0,0,,12,,,59,127
57870,note_off,0,0,0,,2,,,50,127
57871,note_on,1,0,0,,12,,,59,127
57871,note_on,0,0,0,,2,,,50,127
57871,note_on,0,0,0,,12,,,71,127
58120,note_off,249,0,0,,12,,,71,127
58121,note_on,1,0,0,,1,,,73,127
58370,note_off,249,0,0,,1,,,73,127
58370,note_off,0,0,0,,2,,,50,127
58370,note_off,0,0,0,,12,,,59,127
58371,note_on,1,0,0,,12,,,59,127
58371,note_on,0,0,0,,2,,,50,127
58371,note_on,0,0,0,,2,,,74,127
58620,note_off,249,0,0,,2,,,74,127
58621,note_on,1,0,0,,3,,,75,127
58843,note_off,222,0,0,,3,,,75,127
58881,note_off,38,0,0,,2,,,50,127
58881,note_off,0,0,0,,12,,,59,127
58882,note_on,1,0,0,,1,,,49,127
58882,note_on,0,0,0,,10,,,57,127
58882,note_on,0,0,0,,4,,,76,127
59006,note_off,124,0,0,,4,,,76,127
59007,note_on,1,0,0,,1,,,73,127
59131,note_off,124,0,0,,1,,,73,127
59132,note_on,1,0,0,,2,,,74,127
59256,note_off,124,0,0,,2,,,74,127
59257,note_on,1,0,0,,12,,,71,127
59381,note_off,124,0,0,,12,,,71,127
59382,note_on,1,0,0,,10,,,69,127
59631,note_off,249,0,0,,10,,,69,127
59632,note_on,1,0,0,,12,,,71,127
59881,note_off,249,0,0,,12,,,71,127
59881,note_off,0,0,0,,10,,,57,127
59881,note_off,0,0,0,,1,,,49,127
59882,note_on,1,0,0,,1,,,49,127
59882,note_on,0,0,0,,10,,,57,127
59882,note_on,0,0,0,,1,,,73,127
60131,note_off,249,0,0,,1,,,73,127
60132,note_on,1,0,0,,2,,,74,127
60381,note_off,249,0,0,,2,,,74,127
60381,note_off,0,0,0,,10,,,57,127
60381,note_off,0,0,0,,1,,,49,127
60382,note_on,1,0,0,,1,,,49,127
60382,note_on,0,0,0,,10,,,57,127
60382,note_on,0,0,0,,4,,,76,127
60631,note_off,249,0,0,,4,,,76,127
60632,note_on,1,0,0,,6,,,78,127
60867,note_off,235,0,0,,6,,,78,127
60892,note_off,25,0,0,,10,,,57,127
60892,note_off,0,0,0,,1,,,49,127
60893,note_on,1,0,0,,12,,,47,127
60893,note_on,0,0,0,,7,,,55,127
60893,note_on,0,0,0,,7,,,79,127
61017,note_off,124,0,0,,7,,,79,127
61018,note_on,1,0,0,,4,,,76,127
61142,note_off,124,0,0,,4,,,76,127
61143,note_on,1,0,0,,6,,,78,127
61267,note_off,124,0,0,,6,,,78,127
61268,note_on,1,0,0,,2,,,74,127
61392,note_off,124,0,0,,2,,,74,127
61393,note_on,1,0,0,,1,,,73,127
61642,note_off,249,0,0,,1,,,73,127
61643,note_on,1,0,0,,2,,,74,127
61892,note_off,249,0,0,,2,,,74,127
61892,note_off,0,0,0,,7,,,55,127
61892,note_off,0,0,0,,12,,,47,127
61893,note_on,1,0,0,,12,,,47,127
61893,note_on,0,0,0,,7,,,55,127
61893,note_on,0,0,0,,4,,,76,127
62142,note_off,249,0,0,,4,,,76,127
62143,note_on,1,0,0,,6,,,78,127
62392,note_off,249,0,0,,6,,,78,127
62392,note_off,0,0,0,,7,,,55,127
62392,note_off,0,0,0,,12,,,47,127
62393,note_on,1,0,0,,7,,,55,127
62393,note_on,0,0,0,,12,,,47,127
62393,note_on,0,0,0,,7,,,79,127
62642,note_off,249,0,0,,7,,,79,127
62643,note_on,1,0,0,,8,,,80,127
62878,note_off,235,0,0,,8,,,80,127
62900,note_off,22,0,0,,12,,,47,127
62900,note_off,0,0,0,,7,,,55,127
62904,note_on,4,0,0,,10,,,45,127
62904,note_on,0,0,0,,4,,,52,127
62904,note_on,0,0,0,,10,,,81,127
63028,note_off,124,0,0,,10,,,81,127
63029,note_on,1,0,0,,4,,,76,127
63153,note_off,124,0,0,,4,,,76,127
63154,note_on,1,0,0,,6,,,78,127
63278,note_off,124,0,0,,6,,,78,127
63279,note_on,1,0,0,,2,,,74,127
63403,note_off,124,0,0,,2,,,74,127
63404,note_on,1,0,0,,1,,,73,127
63653,note_off,249,0,0,,1,,,73,127
63654,note_on,1,0,0,,2,,,74,127
63903,note_off,249,0,0,,2,,,74,127
63903,note_off,0,0,0,,4,,,52,127
63904,note_on,1,0,0,,10,,,57,127
63904,note_on,0,0,0,,4,,,76,127
64028,note_off,124,0,0,,4,,,76,127
64029,note_on,1,0,0,,1,,,73,127
64153,note_off,124,0,0,,1,,,73,127
64154,note_on,1,0,0,,2,,,74,127
64278,note_off,124,0,0,,2,,,74,127
64279,note_on,1,0,0,,12,,,71,127
64310,note_off,31,0,0,,10,,,45,127
64403,note_off,93,0,0,,12,,,71,127
64404,note_on,1,0,0,,10,,,69,127
64653,note_off,249,0,0,,10,,,69,127
64653,note_off,0,0,0,,10,,,57,127
64654,note_on,1,0,0,,10,,,57,127
64654,note_on,0,0,0,,1,,,61,127
64654,note_on,0,0,0,,7,,,67,127
64903,note_off,249,0,0,,7,,,67,127
64903,note_off,0,0,0,,1,,,61,127
64903,note_off,0,0,0,,10,,,57,127
64904,note_on,1,0,0,,2,,,62,127
64904,note_on,0,0,0,,10,,,57,127
64904,note_on,0,0,0,,6,,,66,127
65154,note_on,250,0,0,,2,,,74,127
65399,note_off,245,0,0,,6,,,66,127
65403,note_off,4,0,0,,2,,,74,127
65403,note_off,0,0,0,,2,,,62,127
65404,note_on,1,0,0,,12,,,59,127
65404,note_on,0,0,0,,8,,,68,127
65653,note_off,249,0,0,,8,,,68,127
65654,note_on,1,0,0,,12,,,71,127
65903,note_off,249,0,0,,12,,,71,127
65903,note_off,0,0,0,,12,,,59,127
65903,note_off,0,0,0,,10,,,57,127
65904,note_on,1,0,0,,10,,,57,127
65904,note_on,0,0,0,,4,,,76,127
66028,note_off,124,0,0,,4,,,76,127
66029,note_on,1,0,0,,1,,,73,127
66153,note_off,124,0,0,,1,,,73,127
66154,note_on,1,0,0,,2,,,74,127
66278,note_off,124,0,0,,2,,,74,127
66279,note_on,1,0,0,,12,,,71,127
66403,note_off,124,0,0,,12,,,71,127
66404,note_on,1,0,0,,10,,,69,127
66653,note_off,249,0,0,,10,,,69,127
66653,note_off,0,0,0,,10,,,57,127
66654,note_on,1,0,0,,1,,,61,127
66654,note_on,0,0,0,,10,,,57,127
66654,note_on,0,0,0,,7,,,67,127
66903,note_off,249,0,0,,7,,,67,127
66903,note_off,0,0,0,,10,,,57,127
66903,note_off,0,0,0,,1,,,61,127
66904,note_on,1,0,0,,2,,,62,127
66904,note_on,0,0,0,,10,,,57,127
66904,note_on,0,0,0,,6,,,66,127
67154,note_on,250,0,0,,2,,,74,127
67399,note_off,245,0,0,,6,,,66,127
67403,note_off,4,0,0,,2,,,74,127
67403,note_off,0,0,0,,2,,,62,127
67404,note_on,1,0,0,,12,,,59,127
67404,note_on,0,0,0,,8,,,68,127
67653,note_off,249,0,0,,8,,,68,127
67654,note_on,1,0,0,,12,,,71,127
67899,note_off,245,0,0,,12,,,71,127
67903,note_off,4,0,0,,12,,,59,127
67903,note_off,0,0,0,,10,,,57,127
67904,note_on,1,0,0,,10,,,57,127
67904,note_on,0,0,0,,1,,,61,127
67904,note_on,0,0,0,,4,,,76,127
68028,note_off,124,0,0,,4,,,76,127
68029,note_on,1,0,0,,1,,,73,127
68153,note_off,124,0,0,,1,,,73,127
68154,note_on,1,0,0,,2,,,74,127
68278,note_off,124,0,0,,2,,,74,127
68279,note_on,1,0,0,,12,,,71,127
68403,note_off,124,0,0,,12,,,71,127
68404,note_on,1,0,0,,10,,,69,127
68673,note_on,269,0,0,,4,,,76,127
68900,note_off,227,0,0,,10,,,69,127
68904,note_off,4,0,0,,1,,,61,127
68904,note_off,0,0,0,,10,,,57,127
68926,note_on,22,0,0,,10,,,57,127
68926,note_on,0,0,0,,6,,,54,127
68926,note_on,0,0,0,,3,,,75,127
68934,note_off,8,0,0,,4,,,76,127
69177,note_on,243,0,0,,12,,,71,127
69426,note_off,249,0,0,,12,,,71,127
69426,note_off,0,0,0,,6,,,54,127
69426,note_off,0,0,0,,10,,,57,127
69427,note_on,1,0,0,,6,,,54,127
69427,note_on,0,0,0,,10,,,57,127
69427,note_on,0,0,0,,10,,,69,127
69676,note_off,249,0,0,,10,,,69,127
69676,note_off,0,0,0,,3,,,75,127
69677,note_on,1,0,0,,3,,,75,127
69926,note_off,249,0,0,,3,,,75,127
69926,note_off,0,0,0,,10,,,57,127
69926,note_off,0,0,0,,6,,,54,127
69927,note_on,1,0,0,,8,,,56,127
69927,note_on,0,0,0,,4,,,52,127
69927,note_on,0,0,0,,4,,,76,127
70052,note_on,125,0,0,,12,,,71,127
70176,note_off,124,0,0,,12,,,71,127
70177,note_on,1,0,0,,1,,,73,127
70301,note_off,124,0,0,,1,,,73,127
70302,note_on,1,0,0,,10,,,69,127
70426,note_off,124,0,0,,10,,,69,127
70426,note_off,0,0,0,,8,,,56,127
70427,note_on,1,0,0,,12,,,59,127
70427,note_on,0,0,0,,8,,,68,127
70676,note_off,249,0,0,,8,,,68,127
70676,note_off,0,0,0,,4,,,76,127
70677,note_on,1,0,0,,4,,,76,127
70926,note_off,249,0,0,,4,,,76,127
70926,note_off,0,0,0,,12,,,59,127
70926,note_off,0,0,0,,4,,,52,127
70927,note_on,1,0,0,,6,,,54,127
70927,note_on,0,0,0,,10,,,57,127
70927,note_on,0,0,0,,3,,,75,127
71177,note_on,250,0,0,,12,,,71,127
71426,note_off,249,0,0,,12,,,71,127
71426,note_off,0,0,0,,10,,,57,127
71426,note_off,0,0,0,,6,,,54,127
71427,note_on,1,0,0,,6,,,54,127
71427,note_on,0,0,0,,10,,,57,127
71427,note_on,0,0,0,,10,,,69,127
71676,note_off,249,0,0,,10,,,69,127
71676,note_off,0,0,0,,3,,,75,127
71677,note_on,1,0,0,,3,,,75,127
71912,note_off,235,0,0,,3,,,75,127
71926,note_off,14,0,0,,10,,,57,127
71926,note_off,0,0,0,,6,,,54,127
71938,note_on,12,0,0,,12,,,59,127
71938,note_on,0,0,0,,8,,,56,127
71938,note_on,0,0,0,,4,,,52,127
71938,note_on,0,0,0,,4,,,76,127
72062,note_off,124,0,0,,4,,,76,127
72063,note_on,1,0,0,,12,,,71,127
72187,note_off,124,0,0,,12,,,71,127
72188,note_on,1,0,0,,1,,,73,127
72312,note_off,124,0,0,,1,,,73,127
72313,note_on,1,0,0,,10,,,69,127
72437,note_off,124,0,0,,10,,,69,127
72438,note_on,1,0,0,,12,,,71,127
72562,note_off,124,0,0,,12,,,71,127
72563,note_on,1,0,0,,8,,,68,127
72687,note_off,124,0,0,,8,,,68,127
72688,note_on,1,0,0,,10,,,69,127
72812,note_off,124,0,0,,10,,,69,127
72813,note_on,1,0,0,,6,,,66,127
72937,note_off,124,0,0,,6,,,66,127
72937,note_off,0,0,0,,8,,,56,127
72937,note_off,0,0,0,,12,,,59,127
72938,note_on,1,0,0,,4,,,40,127
72938,note_on,0,0,0,,12,,,71,127
73062,note_off,124,0,0,,12,,,71,127
73063,note_on,1,0,0,,8,,,68,127
73187,note_off,124,0,0,,8,,,68,127
73188,note_on,1,0,0,,10,,,69,127
73312,note_off,124,0,0,,10,,,69,127
73313,note_on,1,0,0,,6,,,66,127
73437,note_off,124,0,0,,6,,,66,127
73438,note_on,1,0,0,,8,,,68,127
73562,note_off,124,0,0,,8,,,68,127
73563,note_on,1,0,0,,4,,,64,127
73687,note_off,124,0,0,,4,,,64,127
73688,note_on,1,0,0,,6,,,66,127
73812,note_off,124,0,0,,6,,,66,127
73813,note_on,1,0,0,,3,,,63,127
73891,note_off,78,0,0,,4,,,52,127
73937,note_off,46,0,0,,3,,,63,127
73937,note_off,0,0,0,,4,,,40,127
73938,note_on,1,0,0,,4,,,40,127
73946,note_on,8,0,0,,3,,,63,127
74491,note_on,545,0,0,,4,,,64,127
74517,note_off,26,0,0,,3,,,63,127
74950,note_off,433,0,0,,4,,,40,127
74966,note_on,16,0,0,,4,,,76,127
75070,note_off,104,0,0,,4,,,64,127
75107,note_on,37,0,0,,4,,,64,127
75231,note_off,124,0,0,,4,,,64,127
75232,note_on,1,0,0,,4,,,64,127
75331,note_off,99,0,0,,4,,,76,127
75481,note_off,150,0,0,,4,,,64,127
75482,note_on,1,0,0,,4,,,64,127
75731,note_off,249,0,0,,4,,,64,127
75732,note_on,1,0,0,,4,,,64,127
75981,note_off,249,0,0,,4,,,64,127
75982,note_on,1,0,0,,4,,,64,127
76231,note_off,249,0,0,,4,,,64,127
76232,note_on,1,0,0,,6,,,54,127
76232,note_on,0,0,0,,10,,,57,127
76232,note_on,0,0,0,,0,,,72,127
76357,note_on,125,0,0,,6,,,66,127
76481,note_off,124,0,0,,6,,,66,127
76482,note_on,1,0,0,,7,,,67,127
76606,note_off,124,0,0,,7,,,67,127
76607,note_on,1,0,0,,4,,,64,127
76731,note_off,124,0,0,,4,,,64,127
76732,note_on,1,0,0,,3,,,63,127
76981,note_off,249,0,0,,3,,,63,127
76982,note_on,1,0,0,,4,,,64,127
77231,note_off,249,0,0,,4,,,64,127
77231,note_off,0,0,0,,0,,,72,127
77231,note_off,0,0,0,,10,,,57,127
77231,note_off,0,0,0,,6,,,54,127
77232,note_on,1,0,0,,6,,,54,127
77232,note_on,0,0,0,,10,,,57,127
77232,note_on,0,0,0,,0,,,72,127
77357,note_on,125,0,0,,6,,,66,127
77481,note_off,124,0,0,,6,,,66,127
77482,note_on,1,0,0,,7,,,67,127
77606,note_off,124,0,0,,7,,,67,127
77607,note_on,1,0,0,,4,,,64,127
77731,note_off,124,0,0,,4,,,64,127
77732,note_on,1,0,0,,3,,,63,127
77981,note_off,249,0,0,,3,,,63,127
77982,note_on,1,0,0,,4,,,64,127
78231,note_off,249,0,0,,4,,,64,127
78231,note_off,0,0,0,,0,,,72,127
78231,note_off,0,0,0,,10,,,57,127
78231,note_off,0,0,0,,6,,,54,127
78232,note_on,1,0,0,,10,,,57,127
78232,note_on,0,0,0,,5,,,53,127
78232,note_on,0,0,0,,2,,,74,127
78357,note_on,125,0,0,,12,,,71,127
78481,note_off,124,0,0,,12,,,71,127
78482,note_on,1,0,0,,0,,,72,127
78606,note_off,124,0,0,,0,,,72,127
78607,note_on,1,0,0,,10,,,69,127
78731,note_off,124,0,0,,10,,,69,127
78732,note_on,1,0,0,,8,,,68,127
78981,note_off,249,0,0,,8,,,68,127
78982,note_on,1,0,0,,10,,,69,127
79231,note_off,249,0,0,,10,,,69,127
79231,note_off,0,0,0,,2,,,74,127
79231,note_off,0,0,0,,5,,,53,127
79231,note_off,0,0,0,,10,,,57,127
79232,note_on,1,0,0,,5,,,53,127
79232,note_on,0,0,0,,10,,,57,127
79232,note_on,0,0,0,,2,,,74,127
79357,note_on,125,0,0,,12,,,71,127
79481,note_off,124,0,0,,12,,,71,127
79482,note_on,1,0,0,,0,,,72,127
79606,note_off,124,0,0,,0,,,72,127
79607,note_on,1,0,0,,10,,,69,127
79731,note_off,124,0,0,,10,,,69,127
79732,note_on,1,0,0,,8,,,68,127
79981,note_off,249,0,0,,8,,,68,127
79982,note_on,1,0,0,,10,,,69,127
80204,note_off,222,0,0,,10,,,69,127
80231,note_off,27,0,0,,2,,,74,127
80231,note_off,0,0,0,,10,,,57,127
80231,note_off,0,0,0,,5,,,53,127
80232,note_on,1,0,0,,8,,,56,127
80232,note_on,0,0,0,,4,,,52,127
80232,note_on,0,0,0,,12,,,59,127
80232,note_on,0,0,0,,12,,,83,127
80356,note_off,124,0,0,,12,,,83,127
80357,note_on,1,0,0,,8,,,80,127
80481,note_off,124,0,0,,8,,,80,127
80482,note_on,1,0,0,,10,,,81,127
80606,note_off,124,0,0,,10,,,81,127
80607,note_on,1,0,0,,6,,,78,127
80731,note_off,124,0,0,,6,,,78,127
80732,note_on,1,0,0,,8,,,80,127
80981,note_off,249,0,0,,8,,,80,127
80982,note_on,1,0,0,,10,,,81,127
81231,note_off,249,0,0,,10,,,81,127
81231,note_off,0,0,0,,12,,,59,127
81231,note_off,0,0,0,,4,,,52,127
81231,note_off,0,0,0,,8,,,56,127
81232,note_on,1,0,0,,4,,,52,127
81232,note_on,0,0,0,,12,,,59,127
81232,note_on,0,0,0,,12,,,83,127
81356,note_off,124,0,0,,12,,,83,127
81357,note_on,1,0,0,,8,,,80,127
81481,note_off,124,0,0,,8,,,80,127
81482,note_on,1,0,0,,10,,,81,127
81606,note_off,124,0,0,,10,,,81,127
81607,note_on,1,0,0,,6,,,78,127
81731,note_off,124,0,0,,6,,,78,127
81732,note_on,1,0,0,,4,,,76,127
81967,note_off,235,0,0,,4,,,76,127
81981,note_off,14,0,0,,12,,,59,127
81982,note_on,1,0,0,,8,,,56,127
81982,note_on,0,0,0,,2,,,74,127
82231,note_off,249,0,0,,2,,,74,127
82231,note_off,0,0,0,,8,,,56,127
82231,note_off,0,0,0,,4,,,52,127
82232,note_on,1,0,0,,10,,,57,127
82232,note_on,0,0,0,,1,,,73,127
82356,note_off,124,0,0,,1,,,73,127
82357,note_on,1,0,0,,10,,,69,127
82481,note_off,124,0,0,,10,,,69,127
82482,note_on,1,0,0,,1,,,73,127
82606,note_off,124,0,0,,1,,,73,127
82607,note_on,1,0,0,,4,,,76,127
82731,note_off,124,0,0,,4,,,76,127
82732,note_on,1,0,0,,10,,,81,127
82922,note_off,190,0,0,,10,,,57,127
82982,note_on,60,0,0,,1,,,61,127
83231,note_off,249,0,0,,1,,,61,127
83232,note_on,1,0,0,,2,,,62,127
83356,note_off,124,0,0,,10,,,81,127
83357,note_on,1,0,0,,8,,,80,127
83481,note_off,124,0,0,,8,,,80,127
83482,note_on,1,0,0,,6,,,78,127
83732,note_on,250,0,0,,2,,,50,127
83856,note_off,124,0,0,,6,,,78,127
83857,note_on,1,0,0,,4,,,76,127
83981,note_off,124,0,0,,4,,,76,127
83982,note_on,1,0,0,,2,,,74,127
84231,note_off,249,0,0,,2,,,50,127
84231,note_off,0,0,0,,2,,,62,127
84232,note_on,1,0,0,,4,,,52,127
84356,note_off,124,0,0,,2,,,74,127
84357,note_on,1,0,0,,1,,,73,127
84481,note_off,124,0,0,,1,,,73,127
84482,note_on,1,0,0,,12,,,71,127
84606,note_off,124,0,0,,12,,,71,127
84607,note_on,1,0,0,,10,,,69,127
84731,note_off,124,0,0,,10,,,69,127
84732,note_on,1,0,0,,4,,,40,127
84732,note_on,0,0,0,,1,,,73,127
84793,note_off,61,0,0,,1,,,73,127
84794,note_on,1,0,0,,12,,,71,127
84855,note_off,61,0,0,,12,,,71,127
84856,note_on,1,0,0,,1,,,73,127
84917,note_off,61,0,0,,1,,,73,127
84918,note_on,1,0,0,,12,,,71,127
84979,note_off,61,0,0,,12,,,71,127
84980,note_on,1,0,0,,1,,,73,127
85041,note_off,61,0,0,,1,,,73,127
85042,note_on,1,0,0,,12,,,71,127
85103,note_off,61,0,0,,12,,,71,127
85106,note_on,3,0,0,,10,,,69,127
85173,note_off,67,0,0,,10,,,69,127
85174,note_on,1,0,0,,12,,,71,127
85211,note_off,37,0,0,,4,,,52,127
85216,note_off,5,0,0,,4,,,40,127
85242,note_off,26,0,0,,12,,,71,127
85242,note_on,0,0,0,,10,,,45,127
85242,note_on,0,0,0,,10,,,69,127
85530,note_on,288,0,0,,10,,,57,127
85816,note_off,286,0,0,,10,,,45,127
85856,note_on,40,0,0,,10,,,45,127
86534,note_off,678,0,0,,10,,,45,127
86547,note_off,13,0,0,,10,,,57,127
86611,note_off,64,0,0,,10,,,69,127
87283,note_on,672,0,0,,4,,,76,127
87410,note_on,127,0,0,,4,,,64,127
87534,note_off,124,0,0,,4,,,64,127
87537,note_on,3,0,0,,4,,,64,127
87786,note_off,249,0,0,,4,,,64,127
87790,note_on,4,0,0,,4,,,64,127
88039,note_off,249,0,0,,4,,,64,127
88043,note_on,4,0,0,,4,,,64,127
88284,note_off,241,0,0,,4,,,76,127
88292,note_off,8,0,0,,4,,,64,127
88296,note_on,4,0,0,,4,,,64,127
88544,note_off,248,0,0,,4,,,64,127
88560,note_on,16,0,0,,0,,,72,127
88560,note_on,0,0,0,,10,,,57,127
88560,note_on,0,0,0,,6,,,54,127
88687,note_on,127,0,0,,6,,,66,127
88811,note_off,124,0,0,,6,,,66,127
88814,note_on,3,0,0,,7,,,67,127
88938,note_off,124,0,0,,7,,,67,127
88941,note_on,3,0,0,,4,,,64,127
89065,note_off,124,0,0,,4,,,64,127
89068,note_on,3,0,0,,3,,,63,127
89317,note_off,249,0,0,,3,,,63,127
89321,note_on,4,0,0,,4,,,64,127
89562,note_off,241,0,0,,6,,,54,127
89562,note_off,0,0,0,,10,,,57,127
89562,note_off,0,0,0,,0,,,72,127
89580,note_off,18,0,0,,4,,,64,127
89584,note_on,4,0,0,,0,,,72,127
89584,note_on,0,0,0,,6,,,54,127
89584,note_on,0,0,0,,10,,,57,127
89709,note_on,125,0,0,,6,,,66,127
89833,note_off,124,0,0,,6,,,66,127
89836,note_on,3,0,0,,7,,,67,127
89960,note_off,124,0,0,,7,,,67,127
89963,note_on,3,0,0,,4,,,64,127
90087,note_off,124,0,0,,4,,,64,127
90090,note_on,3,0,0,,3,,,63,127
90339,note_off,249,0,0,,3,,,63,127
90343,note_on,4,0,0,,4,,,64,127
90586,note_off,243,0,0,,10,,,57,127
90586,note_off,0,0,0,,6,,,54,127
90586,note_off,0,0,0,,0,,,72,127
90591,note_off,5,0,0,,4,,,64,127
90607,note_on,16,0,0,,2,,,74,127
90607,note_on,0,0,0,,10,,,57,127
90607,note_on,0,0,0,,5,,,53,127
90734,note_on,127,0,0,,12,,,71,127
90858,note_off,124,0,0,,12,,,71,127
90861,note_on,3,0,0,,0,,,72,127
90985,note_off,124,0,0,,0,,,72,127
90988,note_on,3,0,0,,10,,,69,127
91112,note_off,124,0,0,,10,,,69,127
91115,note_on,3,0,0,,8,,,68,127
91364,note_off,249,0,0,,8,,,68,127
91368,note_on,4,0,0,,10,,,69,127
91609,note_off,241,0,0,,5,,,53,127
91609,note_off,0,0,0,,10,,,57,127
91609,note_off,0,0,0,,2,,,74,127
91616,note_off,7,0,0,,10,,,69,127
91632,note_on,16,0,0,,2,,,74,127
91632,note_on,0,0,0,,10,,,57,127
91632,note_on,0,0,0,,5,,,53,127
91759,note_on,127,0,0,,12,,,71,127
91883,note_off,124,0,0,,12,,,71,127
91886,note_on,3,0,0,,0,,,72,127
92010,note_off,124,0,0,,0,,,72,127
92013,note_on,3,0,0,,10,,,69,127
92137,note_off,124,0,0,,10,,,69,127
92140,note_on,3,0,0,,8,,,68,127
92389,note_off,249,0,0,,8,,,68,127
92393,note_on,4,0,0,,10,,,69,127
92634,note_off,241,0,0,,5,,,53,127
92634,note_off,0,0,0,,10,,,57,127
92634,note_off,0,0,0,,2,,,74,127
92641,note_off,7,0,0,,10,,,69,127
92657,note_on,16,0,0,,12,,,83,127
92657,note_on,0,0,0,,4,,,52,127
92657,note_on,0,0,0,,12,,,59,127
92657,note_on,0,0,0,,8,,,56,127
92781,note_off,124,0,0,,12,,,83,127
92784,note_on,3,0,0,,8,,,80,127
92908,note_off,124,0,0,,8,,,80,127
92911,note_on,3,0,0,,10,,,81,127
93035,note_off,124,0,0,,10,,,81,127
93038,note_on,3,0,0,,6,,,78,127
93162,note_off,124,0,0,,6,,,78,127
93165,note_on,3,0,0,,8,,,80,127
93414,note_off,249,0,0,,8,,,80,127
93418,note_on,4,0,0,,10,,,81,127
93659,note_off,241,0,0,,8,,,56,127
93659,note_off,0,0,0,,12,,,59,127
93659,note_off,0,0,0,,4,,,52,127
93666,note_off,7,0,0,,10,,,81,127
93682,note_on,16,0,0,,12,,,83,127
93682,note_on,0,0,0,,4,,,52,127
93682,note_on,0,0,0,,12,,,59,127
93806,note_off,124,0,0,,12,,,83,127
93809,note_on,3,0,0,,8,,,80,127
93933,note_off,124,0,0,,8,,,80,127
93934,note_on,1,0,0,,10,,,81,127
94058,note_off,124,0,0,,10,,,81,127
94061,note_on,3,0,0,,6,,,78,127
94185,note_off,124,0,0,,6,,,78,127
94188,note_on,3,0,0,,4,,,76,127
94433,note_off,245,0,0,,12,,,59,127
94437,note_off,4,0,0,,4,,,76,127
94441,note_on,4,0,0,,2,,,74,127
94441,note_on,0,0,0,,8,,,56,127
94674,note_off,233,0,0,,4,,,52,127
94675,note_off,1,0,0,,2,,,74,127
94682,note_off,7,0,0,,8,,,56,127
94694,note_on,12,0,0,,1,,,73,127
94694,note_on,0,0,0,,10,,,57,127
94818,note_off,124,0,0,,1,,,73,127
94821,note_on,3,0,0,,10,,,69,127
94945,note_off,124,0,0,,10,,,69,127
94948,note_on,3,0,0,,1,,,73,127
95072,note_off,124,0,0,,1,,,73,127
95075,note_on,3,0,0,,4,,,76,127
95199,note_off,124,0,0,,4,,,76,127
95202,note_on,3,0,0,,10,,,81,127
95400,note_off,198,0,0,,10,,,57,127
95455,note_on,55,0,0,,1,,,61,127
95704,note_off,249,0,0,,1,,,61,127
95708,note_on,4,0,0,,2,,,62,127
95827,note_off,119,0,0,,10,,,81,127
95835,note_on,8,0,0,,8,,,80,127
95959,note_off,124,0,0,,8,,,80,127
95962,note_on,3,0,0,,6,,,78,127
96215,note_on,253,0,0,,2,,,50,127
96336,note_off,121,0,0,,6,,,78,127
96341,note_on,5,0,0,,4,,,76,127
96465,note_off,124,0,0,,4,,,76,127
96468,note_on,3,0,0,,2,,,74,127
96709,note_off,241,0,0,,2,,,62,127
96714,note_off,5,0,0,,2,,,50,127
96721,note_on,7,0,0,,4,,,52,127
96842,note_off,121,0,0,,2,,,74,127
96847,note_on,5,0,0,,1,,,73,127
96971,note_off,124,0,0,,1,,,73,127
96974,note_on,3,0,0,,12,,,71,127
97098,note_off,124,0,0,,12,,,71,127
97099,note_on,1,0,0,,10,,,69,127
97223,note_off,124,0,0,,10,,,69,127
97226,note_on,3,0,0,,1,,,73,127
97226,note_on,0,0,0,,4,,,40,127
97287,note_off,61,0,0,,1,,,73,127
97290,note_on,3,0,0,,12,,,71,127
97351,note_off,61,0,0,,12,,,71,127
97352,note_on,1,0,0,,1,,,73,127
97413,note_off,61,0,0,,1,,,73,127
97416,note_on,3,0,0,,12,,,71,127
97477,note_off,61,0,0,,12,,,71,127
97478,note_on,1,0,0,,1,,,73,127
97539,note_off,61,0,0,,1,,,73,127
97542,note_on,3,0,0,,12,,,71,127
97603,note_off,61,0,0,,12,,,71,127
97604,note_on,1,0,0,,10,,,69,127
97665,note_off,61,0,0,,10,,,69,127
97668,note_on,3,0,0,,12,,,71,127
97720,note_off,52,0,0,,4,,,52,127
97724,note_off,4,0,0,,4,,,40,127
97729,note_off,5,0,0,,12,,,71,127
97741,note_on,12,0,0,,10,,,69,127
97741,note_on,0,0,0,,10,,,45,127
97868,note_on,127,0,0,,1,,,73,127
97992,note_off,124,0,0,,1,,,73,127
97995,note_on,3,0,0,,4,,,76,127
98119,note_off,124,0,0,,4,,,76,127
98122,note_on,3,0,0,,10,,,81,127
98238,note_off,116,0,0,,10,,,69,127
98246,note_off,8,0,0,,10,,,81,127
98249,note_on,3,0,0,,10,,,81,127
98460,note_off,211,0,0,,10,,,45,127
98506,note_on,46,0,0,,1,,,61,127
98755,note_off,249,0,0,,1,,,61,127
98763,note_on,8,0,0,,2,,,62,127
98874,note_off,111,0,0,,10,,,81,127
98892,note_on,18,0,0,,8,,,80,127
99016,note_off,124,0,0,,8,,,80,127
99021,note_on,5,0,0,,6,,,78,127
99279,note_on,258,0,0,,2,,,50,127
99395,note_off,116,0,0,,6,,,78,127
99408,note_on,13,0,0,,4,,,76,127
99532,note_off,124,0,0,,4,,,76,127
99537,note_on,5,0,0,,2,,,74,127
99763,note_off,226,0,0,,2,,,62,127
99779,note_off,16,0,0,,2,,,50,127
99799,note_on,20,0,0,,4,,,52,127
99912,note_off,113,0,0,,2,,,74,127
99930,note_on,18,0,0,,1,,,73,127
100054,note_off,124,0,0,,1,,,73,127
100062,note_on,8,0,0,,12,,,71,127
100186,note_off,124,0,0,,12,,,71,127
100194,note_on,8,0,0,,10,,,69,127
100318,note_off,124,0,0,,10,,,69,127
100325,note_on,7,0,0,,1,,,73,127
100325,note_on,0,0,0,,4,,,40,127
100386,note_off,61,0,0,,1,,,73,127
100390,note_on,4,0,0,,12,,,71,127
100451,note_off,61,0,0,,12,,,71,127
100456,note_on,5,0,0,,1,,,73,127
100517,note_off,61,0,0,,1,,,73,127
100521,note_on,4,0,0,,12,,,71,127
100582,note_off,61,0,0,,12,,,71,127
100587,note_on,5,0,0,,1,,,73,127
100648,note_off,61,0,0,,1,,,73,127
100652,note_on,4,0,0,,12,,,71,127
100713,note_off,61,0,0,,12,,,71,127
100722,note_on,9,0,0,,10,,,69,127
100798,note_on,76,0,0,,12,,,71,127
100799,note_off,1,0,0,,10,,,69,127
100812,note_off,13,0,0,,4,,,52,127
100832,note_off,20,0,0,,4,,,40,127
100859,note_off,27,0,0,,12,,,71,127
100889,note_on,30,0,0,,10,,,45,127
100889,note_on,0,0,0,,10,,,57,127
100889,note_on,0,0,0,,10,,,69,127
102892,note_off,2003,0,0,,10,,,69,127
102892,note_off,0,0,0,,10,,,57,127
102892,note_off,0,0,0,,10,,,45,127
104448,end_of_track,1556,1,0,,,,,,
