tick,type,time,meta,track,program,channel,pitch,tempo,note,velocity
0,copyright,0,1,0,,,,,,
0,program_change,0,0,0,6,0,,,,
0,pitchwheel,0,0,0,,0,0,,,
0,program_change,0,0,0,6,1,,,,
0,pitchwheel,0,0,0,,1,-590,,,
0,program_change,0,0,0,6,2,,,,
0,pitchwheel,0,0,0,,2,-272,,,
0,program_change,0,0,0,6,3,,,,
0,pitchwheel,0,0,0,,3,-353,,,
0,program_change,0,0,0,6,4,,,,
0,pitchwheel,0,0,0,,4,-560,,,
0,program_change,0,0,0,6,5,,,,
0,pitchwheel,0,0,0,,5,-80,,,
0,program_change,0,0,0,6,6,,,,
0,pitchwheel,0,0,0,,6,-625,,,
0,program_change,0,0,0,6,7,,,,
0,pitchwheel,0,0,0,,7,-130,,,
0,program_change,0,0,0,6,8,,,,
0,pitchwheel,0,0,0,,8,-512,,,
0,program_change,0,0,0,6,10,,,,
0,pitchwheel,0,0,0,,10,-464,,,
0,program_change,0,0,0,6,11,,,,
0,pitchwheel,0,0,0,,11,-208,,,
0,program_change,0,0,0,6,12,,,,
0,pitchwheel,0,0,0,,12,-553,,,
0,set_tempo,0,1,0,,,,500000,,
72,note_on,72,0,0,,10,,,81,127
72,note_on,0,0,0,,10,,,69,127
214,note_off,142,0,0,,10,,,81,127
216,note_on,2,0,0,,4,,,76,127
358,note_off,142,0,0,,4,,,76,127
360,note_on,2,0,0,,1,,,73,127
502,note_off,142,0,0,,1,,,73,127
502,note_off,0,0,0,,10,,,69,127
504,note_on,2,0,0,,2,,,74,127
504,note_on,0,0,0,,6,,,66,127
646,note_off,142,0,0,,2,,,74,127
648,note_on,2,0,0,,4,,,76,127
790,note_off,142,0,0,,4,,,76,127
792,note_on,2,0,0,,6,,,78,127
934,note_off,142,0,0,,6,,,66,127
936,note_on,2,0,0,,8,,,68,127
1062,note_off,126,0,0,,6,,,78,127
1080,note_on,18,0,0,,4,,,76,127
1222,note_off,142,0,0,,4,,,76,127
1224,note_on,2,0,0,,2,,,74,127
1366,note_off,142,0,0,,2,,,74,127
1366,note_off,0,0,0,,8,,,68,127
1368,note_on,2,0,0,,1,,,73,127
1368,note_on,0,0,0,,10,,,69,127
1510,note_off,142,0,0,,1,,,73,127
1512,note_on,2,0,0,,2,,,74,127
1654,note_off,142,0,0,,2,,,74,127
1656,note_on,2,0,0,,4,,,76,127
1798,note_off,142,0,0,,4,,,76,127
1798,note_off,0,0,0,,10,,,69,127
1800,note_on,2,0,0,,10,,,81,127
1800,note_on,0,0,0,,1,,,61,127
1942,note_off,142,0,0,,10,,,81,127
1944,note_on,2,0,0,,4,,,76,127
2086,note_off,142,0,0,,4,,,76,127
2088,note_on,2,0,0,,1,,,73,127
2230,note_off,142,0,0,,1,,,73,127
2230,note_off,0,0,0,,1,,,61,127
2232,note_on,2,0,0,,12,,,71,127
2232,note_on,0,0,0,,2,,,62,127
2374,note_off,142,0,0,,12,,,71,127
2376,note_on,2,0,0,,1,,,73,127
2518,note_off,142,0,0,,1,,,73,127
2520,note_on,2,0,0,,2,,,74,127
2662,note_off,142,0,0,,2,,,62,127
2664,note_on,2,0,0,,4,,,64,127
2790,note_off,126,0,0,,2,,,74,127
2808,note_on,18,0,0,,1,,,73,127
2950,note_off,142,0,0,,1,,,73,127
2952,note_on,2,0,0,,12,,,71,127
3094,note_off,142,0,0,,12,,,71,127
3094,note_off,0,0,0,,4,,,64,127
3096,note_on,2,0,0,,12,,,71,127
3096,note_on,0,0,0,,10,,,69,127
3096,note_on,0,0,0,,10,,,57,127
3238,note_off,142,0,0,,10,,,69,127
3238,note_off,0,0,0,,12,,,71,127
3240,note_on,2,0,0,,8,,,68,127
3382,note_off,142,0,0,,8,,,68,127
3384,note_on,2,0,0,,10,,,69,127
3526,note_off,142,0,0,,10,,,69,127
3526,note_off,0,0,0,,10,,,57,127
3528,note_on,2,0,0,,8,,,68,127
3528,note_on,0,0,0,,4,,,64,127
3528,note_on,0,0,0,,1,,,61,127
3670,note_off,142,0,0,,8,,,68,127
3672,note_on,2,0,0,,10,,,69,127
3814,note_off,142,0,0,,10,,,69,127
3816,note_on,2,0,0,,4,,,76,127
3958,note_off,142,0,0,,4,,,76,127
3958,note_off,0,0,0,,1,,,61,127
3958,note_off,0,0,0,,4,,,64,127
3960,note_on,2,0,0,,11,,,70,127
3960,note_on,0,0,0,,2,,,62,127
3960,note_on,0,0,0,,12,,,59,127
4102,note_off,142,0,0,,11,,,70,127
4104,note_on,2,0,0,,12,,,71,127
4246,note_off,142,0,0,,12,,,71,127
4248,note_on,2,0,0,,2,,,74,127
4390,note_off,142,0,0,,12,,,59,127
4390,note_off,0,0,0,,2,,,62,127
4392,note_on,2,0,0,,4,,,64,127
4392,note_on,0,0,0,,10,,,57,127
4526,note_off,134,0,0,,2,,,74,127
4536,note_on,10,0,0,,1,,,73,127
4678,note_off,142,0,0,,1,,,73,127
4680,note_on,2,0,0,,10,,,81,127
4822,note_off,142,0,0,,10,,,81,127
4822,note_off,0,0,0,,10,,,57,127
4822,note_off,0,0,0,,4,,,64,127
4824,note_on,2,0,0,,1,,,73,127
4824,note_on,0,0,0,,4,,,52,127
4894,note_off,70,0,0,,1,,,73,127
4896,note_on,2,0,0,,12,,,71,127
4966,note_off,70,0,0,,12,,,71,127
4968,note_on,2,0,0,,1,,,73,127
5038,note_off,70,0,0,,1,,,73,127
5040,note_on,2,0,0,,12,,,71,127
5110,note_off,70,0,0,,12,,,71,127
5112,note_on,2,0,0,,1,,,73,127
5182,note_off,70,0,0,,1,,,73,127
5184,note_on,2,0,0,,12,,,71,127
5254,note_off,70,0,0,,12,,,71,127
5254,note_off,0,0,0,,4,,,52,127
5256,note_on,2,0,0,,8,,,68,127
5256,note_on,0,0,0,,4,,,64,127
5256,note_on,0,0,0,,1,,,61,127
5398,note_off,142,0,0,,8,,,68,127
5400,note_on,2,0,0,,10,,,69,127
5542,note_off,142,0,0,,10,,,69,127
5544,note_on,2,0,0,,4,,,76,127
5686,note_off,142,0,0,,1,,,61,127
5686,note_off,0,0,0,,4,,,64,127
5688,note_on,2,0,0,,11,,,70,127
5688,note_on,0,0,0,,4,,,64,127
5688,note_on,0,0,0,,8,,,56,127
5760,note_off,72,0,0,,4,,,76,127
5830,note_off,70,0,0,,11,,,70,127
5832,note_on,2,0,0,,12,,,71,127
5974,note_off,142,0,0,,12,,,71,127
5976,note_on,2,0,0,,2,,,74,127
6118,note_off,142,0,0,,8,,,56,127
6118,note_off,0,0,0,,4,,,64,127
6120,note_on,2,0,0,,10,,,57,127
6120,note_on,0,0,0,,4,,,64,127
6192,note_off,72,0,0,,2,,,74,127
6264,note_on,72,0,0,,1,,,73,127
6408,note_on,144,0,0,,10,,,81,127
6549,note_off,141,0,0,,1,,,73,127
6551,note_off,2,0,0,,10,,,81,127
6551,note_off,0,0,0,,4,,,64,127
6551,note_off,0,0,0,,10,,,57,127
6553,note_on,2,0,0,,1,,,73,127
6553,note_on,0,0,0,,4,,,52,127
6623,note_off,70,0,0,,1,,,73,127
6625,note_on,2,0,0,,12,,,71,127
6695,note_off,70,0,0,,12,,,71,127
6697,note_on,2,0,0,,1,,,73,127
6767,note_off,70,0,0,,1,,,73,127
6769,note_on,2,0,0,,12,,,71,127
6839,note_off,70,0,0,,12,,,71,127
6841,note_on,2,0,0,,1,,,73,127
6911,note_off,70,0,0,,1,,,73,127
6913,note_on,2,0,0,,12,,,71,127
6983,note_off,70,0,0,,12,,,71,127
6983,note_off,0,0,0,,4,,,52,127
6985,note_on,2,0,0,,3,,,63,127
6985,note_on,0,0,0,,12,,,59,127
6985,note_on,0,0,0,,8,,,56,127
7127,note_off,142,0,0,,3,,,63,127
7129,note_on,2,0,0,,4,,,64,127
7271,note_off,142,0,0,,4,,,64,127
7273,note_on,2,0,0,,12,,,71,127
7415,note_off,142,0,0,,12,,,71,127
7415,note_off,0,0,0,,8,,,56,127
7415,note_off,0,0,0,,12,,,59,127
7417,note_on,2,0,0,,4,,,64,127
7417,note_on,0,0,0,,10,,,57,127
7417,note_on,0,0,0,,1,,,61,127
7559,note_off,142,0,0,,4,,,64,127
7561,note_on,2,0,0,,6,,,66,127
7703,note_off,142,0,0,,6,,,66,127
7705,note_on,2,0,0,,1,,,73,127
7847,note_off,142,0,0,,1,,,73,127
7847,note_off,0,0,0,,1,,,61,127
7847,note_off,0,0,0,,10,,,57,127
7849,note_on,2,0,0,,6,,,66,127
7849,note_on,0,0,0,,12,,,59,127
7849,note_on,0,0,0,,3,,,63,127
7991,note_off,142,0,0,,6,,,66,127
7993,note_on,2,0,0,,8,,,68,127
8135,note_off,142,0,0,,8,,,68,127
8137,note_on,2,0,0,,3,,,75,127
8279,note_off,142,0,0,,3,,,75,127
8279,note_off,0,0,0,,3,,,63,127
8279,note_off,0,0,0,,12,,,59,127
8281,note_on,2,0,0,,8,,,68,127
8281,note_on,0,0,0,,4,,,64,127
8281,note_on,0,0,0,,1,,,61,127
8423,note_off,142,0,0,,8,,,68,127
8425,note_on,2,0,0,,10,,,69,127
8567,note_off,142,0,0,,10,,,69,127
8569,note_on,2,0,0,,4,,,76,127
8711,note_off,142,0,0,,4,,,76,127
8711,note_off,0,0,0,,1,,,61,127
8711,note_off,0,0,0,,4,,,64,127
8713,note_on,2,0,0,,10,,,69,127
8713,note_on,0,0,0,,3,,,63,127
8713,note_on,0,0,0,,6,,,66,127
8855,note_off,142,0,0,,10,,,69,127
8857,note_on,2,0,0,,12,,,71,127
8999,note_off,142,0,0,,12,,,71,127
9001,note_on,2,0,0,,6,,,78,127
9143,note_off,142,0,0,,6,,,78,127
9143,note_off,0,0,0,,6,,,66,127
9143,note_off,0,0,0,,3,,,63,127
9145,note_on,2,0,0,,8,,,80,127
9145,note_on,0,0,0,,4,,,64,127
9287,note_off,142,0,0,,8,,,80,127
9289,note_on,2,0,0,,10,,,81,127
9431,note_off,142,0,0,,10,,,81,127
9433,note_on,2,0,0,,12,,,83,127
9575,note_off,142,0,0,,12,,,83,127
9575,note_off,0,0,0,,4,,,64,127
9577,note_on,2,0,0,,12,,,83,127
9577,note_on,0,0,0,,10,,,81,127
9577,note_on,0,0,0,,10,,,57,127
9719,note_off,142,0,0,,10,,,81,127
9719,note_off,0,0,0,,12,,,83,127
9721,note_on,2,0,0,,8,,,80,127
9863,note_off,142,0,0,,8,,,80,127
9863,note_off,0,0,0,,10,,,57,127
9865,note_on,2,0,0,,6,,,78,127
9865,note_on,0,0,0,,12,,,59,127
10007,note_off,142,0,0,,12,,,59,127
10007,note_off,0,0,0,,6,,,78,127
10009,note_on,2,0,0,,6,,,78,127
10009,note_on,0,0,0,,4,,,52,127
10079,note_off,70,0,0,,6,,,78,127
10081,note_on,2,0,0,,4,,,76,127
10151,note_off,70,0,0,,4,,,76,127
10153,note_on,2,0,0,,6,,,78,127
10223,note_off,70,0,0,,6,,,78,127
10225,note_on,2,0,0,,4,,,76,127
10295,note_off,70,0,0,,4,,,76,127
10297,note_on,2,0,0,,6,,,78,127
10367,note_off,70,0,0,,6,,,78,127
10369,note_on,2,0,0,,4,,,76,127
10439,note_off,70,0,0,,4,,,76,127
10439,note_off,0,0,0,,4,,,52,127
10441,note_on,2,0,0,,3,,,63,127
10441,note_on,0,0,0,,12,,,59,127
10441,note_on,0,0,0,,8,,,56,127
10583,note_off,142,0,0,,3,,,63,127
10585,note_on,2,0,0,,4,,,64,127
10729,note_on,144,0,0,,12,,,71,127
10870,note_off,141,0,0,,4,,,64,127
10872,note_off,2,0,0,,12,,,71,127
10872,note_off,0,0,0,,8,,,56,127
10872,note_off,0,0,0,,12,,,59,127
10874,note_on,2,0,0,,4,,,64,127
10874,note_on,0,0,0,,10,,,57,127
10874,note_on,0,0,0,,1,,,61,127
11016,note_off,142,0,0,,4,,,64,127
11018,note_on,2,0,0,,6,,,66,127
11162,note_on,144,0,0,,1,,,73,127
11303,note_off,141,0,0,,6,,,66,127
11305,note_off,2,0,0,,1,,,73,127
11305,note_off,0,0,0,,1,,,61,127
11305,note_off,0,0,0,,10,,,57,127
11307,note_on,2,0,0,,6,,,66,127
11307,note_on,0,0,0,,3,,,63,127
11307,note_on,0,0,0,,12,,,59,127
11449,note_off,142,0,0,,6,,,66,127
11451,note_on,2,0,0,,8,,,68,127
11595,note_on,144,0,0,,3,,,75,127
11736,note_off,141,0,0,,8,,,68,127
11738,note_off,2,0,0,,3,,,75,127
11738,note_off,0,0,0,,12,,,59,127
11738,note_off,0,0,0,,3,,,63,127
11740,note_on,2,0,0,,8,,,68,127
11740,note_on,0,0,0,,4,,,64,127
11740,note_on,0,0,0,,1,,,61,127
11882,note_off,142,0,0,,8,,,68,127
11884,note_on,2,0,0,,10,,,69,127
12028,note_on,144,0,0,,4,,,76,127
12169,note_off,141,0,0,,10,,,69,127
12171,note_off,2,0,0,,4,,,76,127
12171,note_off,0,0,0,,1,,,61,127
12171,note_off,0,0,0,,4,,,64,127
12173,note_on,2,0,0,,10,,,69,127
12173,note_on,0,0,0,,6,,,66,127
12173,note_on,0,0,0,,3,,,63,127
12315,note_off,142,0,0,,10,,,69,127
12317,note_on,2,0,0,,12,,,71,127
12461,note_on,144,0,0,,6,,,78,127
12602,note_off,141,0,0,,12,,,71,127
12604,note_off,2,0,0,,6,,,78,127
12604,note_off,0,0,0,,3,,,63,127
12604,note_off,0,0,0,,6,,,66,127
12606,note_on,2,0,0,,8,,,80,127
12606,note_on,0,0,0,,4,,,64,127
12748,note_off,142,0,0,,8,,,80,127
12750,note_on,2,0,0,,10,,,81,127
12892,note_off,142,0,0,,10,,,81,127
12894,note_on,2,0,0,,12,,,83,127
13036,note_off,142,0,0,,12,,,83,127
13036,note_off,0,0,0,,4,,,64,127
13038,note_on,2,0,0,,10,,,81,127
13038,note_on,0,0,0,,12,,,83,127
13038,note_on,0,0,0,,10,,,57,127
13180,note_off,142,0,0,,12,,,83,127
13180,note_off,0,0,0,,10,,,81,127
13182,note_on,2,0,0,,8,,,80,127
13324,note_off,142,0,0,,8,,,80,127
13324,note_off,0,0,0,,10,,,57,127
13326,note_on,2,0,0,,6,,,78,127
13326,note_on,0,0,0,,12,,,59,127
13468,note_off,142,0,0,,12,,,59,127
13468,note_off,0,0,0,,6,,,78,127
13470,note_on,2,0,0,,6,,,78,127
13470,note_on,0,0,0,,4,,,52,127
13518,note_on,48,0,0,,4,,,76,127
13540,note_off,22,0,0,,6,,,78,127
13566,note_on,26,0,0,,6,,,78,127
13588,note_off,22,0,0,,4,,,76,127
13614,note_on,26,0,0,,4,,,76,127
13636,note_off,22,0,0,,6,,,78,127
13898,note_off,262,0,0,,4,,,76,127
13900,note_off,2,0,0,,4,,,52,127
13902,note_on,2,0,0,,11,,,70,127
13902,note_on,0,0,0,,7,,,67,127
13902,note_on,0,0,0,,4,,,64,127
14044,note_off,142,0,0,,11,,,70,127
14046,note_on,2,0,0,,12,,,71,127
14188,note_off,142,0,0,,12,,,71,127
14190,note_on,2,0,0,,7,,,79,127
14332,note_off,142,0,0,,7,,,79,127
14332,note_off,0,0,0,,4,,,64,127
14332,note_off,0,0,0,,7,,,67,127
14334,note_on,2,0,0,,11,,,70,127
14334,note_on,0,0,0,,2,,,62,127
14334,note_on,0,0,0,,6,,,66,127
14476,note_off,142,0,0,,11,,,70,127
14478,note_on,2,0,0,,12,,,71,127
14620,note_off,142,0,0,,12,,,71,127
14622,note_on,2,0,0,,6,,,78,127
14764,note_off,142,0,0,,6,,,78,127
14764,note_off,0,0,0,,6,,,66,127
14764,note_off,0,0,0,,2,,,62,127
14766,note_on,2,0,0,,7,,,67,127
14766,note_on,0,0,0,,4,,,64,127
14766,note_on,0,0,0,,0,,,60,127
14908,note_off,142,0,0,,7,,,67,127
14910,note_on,2,0,0,,10,,,69,127
15052,note_off,142,0,0,,10,,,69,127
15054,note_on,2,0,0,,4,,,76,127
15196,note_off,142,0,0,,4,,,76,127
15196,note_off,0,0,0,,0,,,60,127
15196,note_off,0,0,0,,4,,,64,127
15198,note_on,2,0,0,,3,,,75,127
15198,note_on,0,0,0,,6,,,66,127
15198,note_on,0,0,0,,12,,,59,127
15198,note_on,0,0,0,,4,,,76,127
15340,note_off,142,0,0,,4,,,76,127
15340,note_off,0,0,0,,3,,,75,127
15342,note_on,2,0,0,,4,,,76,127
15484,note_off,142,0,0,,4,,,76,127
15486,note_on,2,0,0,,6,,,78,127
15628,note_off,142,0,0,,6,,,78,127
15628,note_off,0,0,0,,12,,,59,127
15628,note_off,0,0,0,,6,,,66,127
15630,note_on,2,0,0,,11,,,70,127
15630,note_on,0,0,0,,4,,,64,127
15630,note_on,0,0,0,,7,,,67,127
15772,note_off,142,0,0,,11,,,70,127
15774,note_on,2,0,0,,12,,,71,127
15916,note_off,142,0,0,,12,,,71,127
15918,note_on,2,0,0,,7,,,79,127
16060,note_off,142,0,0,,7,,,79,127
16060,note_off,0,0,0,,7,,,67,127
16060,note_off,0,0,0,,4,,,64,127
16062,note_on,2,0,0,,11,,,70,127
16062,note_on,0,0,0,,6,,,66,127
16062,note_on,0,0,0,,2,,,62,127
16204,note_off,142,0,0,,11,,,70,127
16206,note_on,2,0,0,,12,,,71,127
16348,note_off,142,0,0,,12,,,71,127
16350,note_on,2,0,0,,6,,,78,127
16492,note_off,142,0,0,,6,,,78,127
16492,note_off,0,0,0,,2,,,62,127
16492,note_off,0,0,0,,6,,,66,127
16494,note_on,2,0,0,,10,,,81,127
16494,note_on,0,0,0,,4,,,64,127
16494,note_on,0,0,0,,0,,,60,127
16636,note_off,142,0,0,,10,,,81,127
16638,note_on,2,0,0,,3,,,75,127
16780,note_off,142,0,0,,3,,,75,127
16782,note_on,2,0,0,,4,,,76,127
16924,note_off,142,0,0,,4,,,76,127
16924,note_off,0,0,0,,0,,,60,127
16924,note_off,0,0,0,,4,,,64,127
16926,note_on,2,0,0,,4,,,76,127
16926,note_on,0,0,0,,12,,,59,127
17114,note_off,188,0,0,,4,,,76,127
17118,note_on,4,0,0,,6,,,78,127
17166,note_off,48,0,0,,6,,,78,127
17166,note_on,0,0,0,,4,,,76,127
17214,note_off,48,0,0,,4,,,76,127
17214,note_on,0,0,0,,6,,,78,127
17356,note_off,142,0,0,,6,,,78,127
17356,note_off,0,0,0,,12,,,59,127
17358,note_on,2,0,0,,3,,,63,127
17358,note_on,0,0,0,,8,,,56,127
17358,note_on,0,0,0,,12,,,59,127
17500,note_off,142,0,0,,3,,,63,127
17502,note_on,2,0,0,,4,,,64,127
17644,note_off,142,0,0,,4,,,64,127
17646,note_on,2,0,0,,12,,,71,127
17788,note_off,142,0,0,,12,,,59,127
17788,note_off,0,0,0,,8,,,56,127
17790,note_on,2,0,0,,3,,,63,127
17790,note_on,0,0,0,,1,,,61,127
17790,note_on,0,0,0,,10,,,57,127
17932,note_off,142,0,0,,3,,,63,127
17934,note_on,2,0,0,,4,,,64,127
18076,note_off,142,0,0,,4,,,64,127
18077,note_off,1,0,0,,12,,,71,127
18078,note_on,1,0,0,,1,,,73,127
18220,note_off,142,0,0,,10,,,57,127
18220,note_off,0,0,0,,1,,,61,127
18222,note_on,2,0,0,,3,,,63,127
18222,note_on,0,0,0,,10,,,57,127
18222,note_on,0,0,0,,6,,,54,127
18364,note_off,142,0,0,,3,,,63,127
18366,note_on,2,0,0,,4,,,64,127
18508,note_off,142,0,0,,4,,,64,127
18509,note_off,1,0,0,,1,,,73,127
18510,note_on,1,0,0,,3,,,75,127
18652,note_off,142,0,0,,6,,,54,127
18652,note_off,0,0,0,,10,,,57,127
18654,note_on,2,0,0,,3,,,63,127
18654,note_on,0,0,0,,12,,,59,127
18654,note_on,0,0,0,,8,,,56,127
18796,note_off,142,0,0,,3,,,63,127
18798,note_on,2,0,0,,4,,,64,127
18940,note_off,142,0,0,,4,,,64,127
18941,note_off,1,0,0,,3,,,75,127
18942,note_on,1,0,0,,4,,,76,127
19084,note_off,142,0,0,,8,,,56,127
19084,note_off,0,0,0,,12,,,59,127
19086,note_on,2,0,0,,11,,,70,127
19086,note_on,0,0,0,,12,,,59,127
19086,note_on,0,0,0,,3,,,51,127
19228,note_off,142,0,0,,11,,,70,127
19230,note_on,2,0,0,,12,,,71,127
19372,note_off,142,0,0,,12,,,71,127
19373,note_off,1,0,0,,4,,,76,127
19374,note_on,1,0,0,,6,,,78,127
19516,note_off,142,0,0,,6,,,78,127
19516,note_off,0,0,0,,3,,,51,127
19516,note_off,0,0,0,,12,,,59,127
19518,note_on,2,0,0,,8,,,80,127
19518,note_on,0,0,0,,4,,,52,127
19660,note_off,142,0,0,,8,,,80,127
19662,note_on,2,0,0,,10,,,81,127
19804,note_off,142,0,0,,10,,,81,127
19804,note_off,0,0,0,,4,,,52,127
19806,note_on,2,0,0,,12,,,83,127
19806,note_on,0,0,0,,8,,,56,127
19948,note_off,142,0,0,,8,,,56,127
19948,note_off,0,0,0,,12,,,83,127
19950,note_on,2,0,0,,10,,,81,127
19950,note_on,0,0,0,,12,,,83,127
19950,note_on,0,0,0,,10,,,57,127
20092,note_off,142,0,0,,12,,,83,127
20092,note_off,0,0,0,,10,,,81,127
20094,note_on,2,0,0,,8,,,80,127
20236,note_off,142,0,0,,8,,,80,127
20236,note_off,0,0,0,,10,,,57,127
20238,note_on,2,0,0,,6,,,78,127
20238,note_on,0,0,0,,12,,,59,127
20380,note_off,142,0,0,,12,,,59,127
20380,note_off,0,0,0,,6,,,78,127
20382,note_on,2,0,0,,6,,,78,127
20382,note_on,0,0,0,,4,,,52,127
20452,note_off,70,0,0,,6,,,78,127
20454,note_on,2,0,0,,4,,,76,127
20524,note_off,70,0,0,,4,,,76,127
20526,note_on,2,0,0,,6,,,78,127
20596,note_off,70,0,0,,6,,,78,127
20598,note_on,2,0,0,,4,,,76,127
20668,note_off,70,0,0,,4,,,76,127
20670,note_on,2,0,0,,6,,,78,127
20740,note_off,70,0,0,,6,,,78,127
20754,note_on,14,0,0,,4,,,76,127
20812,note_off,58,0,0,,4,,,52,127
20824,note_off,12,0,0,,4,,,76,127
20826,note_on,2,0,0,,4,,,64,127
20826,note_on,0,0,0,,7,,,67,127
20826,note_on,0,0,0,,11,,,70,127
20968,note_off,142,0,0,,11,,,70,127
20970,note_on,2,0,0,,12,,,71,127
21114,note_on,144,0,0,,7,,,79,127
21255,note_off,141,0,0,,12,,,71,127
21257,note_off,2,0,0,,7,,,79,127
21257,note_off,0,0,0,,7,,,67,127
21257,note_off,0,0,0,,4,,,64,127
21259,note_on,2,0,0,,2,,,62,127
21259,note_on,0,0,0,,6,,,66,127
21259,note_on,0,0,0,,11,,,70,127
21401,note_off,142,0,0,,11,,,70,127
21403,note_on,2,0,0,,12,,,71,127
21547,note_on,144,0,0,,6,,,78,127
21688,note_off,141,0,0,,12,,,71,127
21690,note_off,2,0,0,,6,,,78,127
21690,note_off,0,0,0,,6,,,66,127
21690,note_off,0,0,0,,2,,,62,127
21692,note_on,2,0,0,,4,,,64,127
21692,note_on,0,0,0,,0,,,60,127
21692,note_on,0,0,0,,8,,,68,127
21834,note_off,142,0,0,,8,,,68,127
21836,note_on,2,0,0,,10,,,69,127
21980,note_on,144,0,0,,4,,,76,127
22121,note_off,141,0,0,,10,,,69,127
22123,note_off,2,0,0,,4,,,76,127
22123,note_off,0,0,0,,0,,,60,127
22123,note_off,0,0,0,,4,,,64,127
22125,note_on,2,0,0,,4,,,76,127
22125,note_on,0,0,0,,6,,,66,127
22125,note_on,0,0,0,,12,,,59,127
22125,note_on,0,0,0,,3,,,75,127
22267,note_off,142,0,0,,3,,,75,127
22267,note_off,0,0,0,,4,,,76,127
22269,note_on,2,0,0,,4,,,76,127
22411,note_off,142,0,0,,4,,,76,127
22413,note_on,2,0,0,,6,,,78,127
22555,note_off,142,0,0,,6,,,78,127
22555,note_off,0,0,0,,12,,,59,127
22555,note_off,0,0,0,,6,,,66,127
22557,note_on,2,0,0,,4,,,64,127
22557,note_on,0,0,0,,7,,,67,127
22557,note_on,0,0,0,,11,,,70,127
22699,note_off,142,0,0,,11,,,70,127
22701,note_on,2,0,0,,12,,,71,127
22845,note_on,144,0,0,,7,,,79,127
22986,note_off,141,0,0,,12,,,71,127
22988,note_off,2,0,0,,7,,,79,127
22988,note_off,0,0,0,,7,,,67,127
22988,note_off,0,0,0,,4,,,64,127
22990,note_on,2,0,0,,6,,,66,127
22990,note_on,0,0,0,,2,,,62,127
22990,note_on,0,0,0,,11,,,70,127
23132,note_off,142,0,0,,11,,,70,127
23134,note_on,2,0,0,,12,,,71,127
23278,note_on,144,0,0,,6,,,78,127
23419,note_off,141,0,0,,12,,,71,127
23421,note_off,2,0,0,,6,,,78,127
23421,note_off,0,0,0,,2,,,62,127
23421,note_off,0,0,0,,6,,,66,127
23423,note_on,2,0,0,,0,,,60,127
23423,note_on,0,0,0,,4,,,64,127
23423,note_on,0,0,0,,10,,,81,127
23565,note_off,142,0,0,,10,,,81,127
23567,note_on,2,0,0,,3,,,75,127
23709,note_off,142,0,0,,3,,,75,127
23711,note_on,2,0,0,,4,,,76,127
23853,note_off,142,0,0,,4,,,76,127
23853,note_off,0,0,0,,4,,,64,127
23853,note_off,0,0,0,,0,,,60,127
23855,note_on,2,0,0,,12,,,59,127
23855,note_on,0,0,0,,4,,,76,127
24043,note_off,188,0,0,,4,,,76,127
24047,note_on,4,0,0,,6,,,78,127
24095,note_off,48,0,0,,6,,,78,127
24095,note_on,0,0,0,,4,,,76,127
24143,note_off,48,0,0,,4,,,76,127
24143,note_on,0,0,0,,6,,,78,127
24285,note_off,142,0,0,,6,,,78,127
24285,note_off,0,0,0,,12,,,59,127
24287,note_on,2,0,0,,8,,,56,127
24287,note_on,0,0,0,,12,,,59,127
24287,note_on,0,0,0,,3,,,63,127
24429,note_off,142,0,0,,3,,,63,127
24431,note_on,2,0,0,,4,,,64,127
24573,note_off,142,0,0,,4,,,64,127
24575,note_on,2,0,0,,12,,,71,127
24717,note_off,142,0,0,,12,,,59,127
24717,note_off,0,0,0,,8,,,56,127
24719,note_on,2,0,0,,10,,,57,127
24719,note_on,0,0,0,,1,,,61,127
24719,note_on,0,0,0,,3,,,63,127
24861,note_off,142,0,0,,3,,,63,127
24863,note_on,2,0,0,,4,,,64,127
25005,note_off,142,0,0,,4,,,64,127
25006,note_off,1,0,0,,12,,,71,127
25007,note_on,1,0,0,,1,,,73,127
25149,note_off,142,0,0,,1,,,61,127
25149,note_off,0,0,0,,10,,,57,127
25151,note_on,2,0,0,,6,,,54,127
25151,note_on,0,0,0,,10,,,57,127
25151,note_on,0,0,0,,3,,,63,127
25293,note_off,142,0,0,,3,,,63,127
25295,note_on,2,0,0,,4,,,64,127
25437,note_off,142,0,0,,4,,,64,127
25438,note_off,1,0,0,,1,,,73,127
25439,note_on,1,0,0,,3,,,75,127
25581,note_off,142,0,0,,10,,,57,127
25581,note_off,0,0,0,,6,,,54,127
25583,note_on,2,0,0,,8,,,56,127
25583,note_on,0,0,0,,12,,,59,127
25583,note_on,0,0,0,,3,,,63,127
25725,note_off,142,0,0,,3,,,63,127
25727,note_on,2,0,0,,4,,,64,127
25870,note_off,143,0,0,,3,,,75,127
25871,note_on,1,0,0,,4,,,76,127
26012,note_off,141,0,0,,4,,,64,127
26014,note_off,2,0,0,,12,,,59,127
26014,note_off,0,0,0,,8,,,56,127
26016,note_on,2,0,0,,3,,,51,127
26016,note_on,0,0,0,,12,,,59,127
26016,note_on,0,0,0,,11,,,70,127
26158,note_off,142,0,0,,11,,,70,127
26160,note_on,2,0,0,,12,,,71,127
26303,note_off,143,0,0,,4,,,76,127
26304,note_on,1,0,0,,6,,,78,127
26445,note_off,141,0,0,,12,,,71,127
26447,note_off,2,0,0,,6,,,78,127
26447,note_off,0,0,0,,12,,,59,127
26447,note_off,0,0,0,,3,,,51,127
26449,note_on,2,0,0,,4,,,52,127
26449,note_on,0,0,0,,8,,,80,127
26591,note_off,142,0,0,,8,,,80,127
26593,note_on,2,0,0,,10,,,81,127
26735,note_off,142,0,0,,10,,,81,127
26735,note_off,0,0,0,,4,,,52,127
26737,note_on,2,0,0,,8,,,56,127
26737,note_on,0,0,0,,12,,,83,127
26879,note_off,142,0,0,,12,,,83,127
26879,note_off,0,0,0,,8,,,56,127
26881,note_on,2,0,0,,10,,,57,127
26881,note_on,0,0,0,,12,,,83,127
26881,note_on,0,0,0,,10,,,81,127
27023,note_off,142,0,0,,10,,,81,127
27023,note_off,0,0,0,,12,,,83,127
27025,note_on,2,0,0,,8,,,80,127
27167,note_off,142,0,0,,8,,,80,127
27167,note_off,0,0,0,,10,,,57,127
27169,note_on,2,0,0,,12,,,59,127
27169,note_on,0,0,0,,6,,,78,127
27311,note_off,142,0,0,,6,,,78,127
27311,note_off,0,0,0,,12,,,59,127
27313,note_on,2,0,0,,4,,,52,127
27313,note_on,0,0,0,,12,,,59,127
27313,note_on,0,0,0,,4,,,76,127
27455,note_off,142,0,0,,4,,,76,127
27457,note_on,2,0,0,,12,,,71,127
27601,note_on,144,0,0,,12,,,83,127
27743,note_off,142,0,0,,4,,,52,127
27745,note_on,2,0,0,,12,,,47,127
27887,note_off,142,0,0,,12,,,83,127
27888,note_off,1,0,0,,12,,,71,127
27889,note_on,1,0,0,,8,,,80,127
27889,note_on,0,0,0,,4,,,76,127
28031,note_off,142,0,0,,4,,,76,127
28031,note_off,0,0,0,,8,,,80,127
28033,note_on,2,0,0,,3,,,75,127
28033,note_on,0,0,0,,6,,,78,127
28175,note_off,142,0,0,,6,,,78,127
28175,note_off,0,0,0,,3,,,75,127
28175,note_off,0,0,0,,12,,,47,127
28175,note_off,0,0,0,,12,,,59,127
28177,note_on,2,0,0,,4,,,52,127
28177,note_on,0,0,0,,12,,,59,127
28177,note_on,0,0,0,,4,,,76,127
28319,note_off,142,0,0,,4,,,76,127
28321,note_on,2,0,0,,12,,,71,127
28465,note_on,144,0,0,,12,,,83,127
28607,note_off,142,0,0,,4,,,52,127
28609,note_on,2,0,0,,12,,,47,127
28751,note_off,142,0,0,,12,,,83,127
28752,note_off,1,0,0,,12,,,71,127
28753,note_on,1,0,0,,8,,,80,127
28753,note_on,0,0,0,,4,,,76,127
28895,note_off,142,0,0,,4,,,76,127
28895,note_off,0,0,0,,8,,,80,127
28897,note_on,2,0,0,,6,,,78,127
28897,note_on,0,0,0,,3,,,75,127
29039,note_off,142,0,0,,3,,,75,127
29039,note_off,0,0,0,,6,,,78,127
29039,note_off,0,0,0,,12,,,47,127
29039,note_off,0,0,0,,12,,,59,127
29041,note_on,2,0,0,,4,,,52,127
29041,note_on,0,0,0,,12,,,59,127
29041,note_on,0,0,0,,4,,,76,127
29183,note_off,142,0,0,,4,,,76,127
29185,note_on,2,0,0,,12,,,71,127
29327,note_off,142,0,0,,12,,,71,127
29329,note_on,2,0,0,,12,,,83,127
29471,note_off,142,0,0,,4,,,52,127
29473,note_on,2,0,0,,12,,,47,127
29615,note_off,142,0,0,,12,,,83,127
29617,note_on,2,0,0,,8,,,80,127
29617,note_on,0,0,0,,4,,,76,127
29759,note_off,142,0,0,,4,,,76,127
29759,note_off,0,0,0,,8,,,80,127
29761,note_on,2,0,0,,6,,,78,127
29761,note_on,0,0,0,,3,,,75,127
29903,note_off,142,0,0,,3,,,75,127
29903,note_off,0,0,0,,6,,,78,127
29903,note_off,0,0,0,,12,,,47,127
29903,note_off,0,0,0,,12,,,59,127
29905,note_on,2,0,0,,4,,,52,127
29905,note_on,0,0,0,,8,,,80,127
30047,note_off,142,0,0,,8,,,80,127
30049,note_on,2,0,0,,10,,,81,127
30191,note_off,142,0,0,,10,,,81,127
30191,note_off,0,0,0,,4,,,52,127
30193,note_on,2,0,0,,8,,,56,127
30193,note_on,0,0,0,,12,,,83,127
30335,note_off,142,0,0,,12,,,83,127
30335,note_off,0,0,0,,8,,,56,127
30337,note_on,2,0,0,,10,,,57,127
30337,note_on,0,0,0,,12,,,83,127
30337,note_on,0,0,0,,10,,,81,127
30479,note_off,142,0,0,,10,,,81,127
30479,note_off,0,0,0,,12,,,83,127
30481,note_on,2,0,0,,8,,,80,127
30623,note_off,142,0,0,,8,,,80,127
30623,note_off,0,0,0,,10,,,57,127
30625,note_on,2,0,0,,12,,,59,127
30625,note_on,0,0,0,,6,,,78,127
30767,note_off,142,0,0,,6,,,78,127
30767,note_off,0,0,0,,12,,,59,127
30769,note_on,2,0,0,,4,,,52,127
30769,note_on,0,0,0,,12,,,59,127
30769,note_on,0,0,0,,4,,,76,127
30911,note_off,142,0,0,,4,,,76,127
30913,note_on,2,0,0,,12,,,71,127
31057,note_on,144,0,0,,12,,,83,127
31200,note_off,143,0,0,,4,,,52,127
31201,note_on,1,0,0,,12,,,47,127
31343,note_off,142,0,0,,12,,,83,127
31344,note_off,1,0,0,,12,,,71,127
31345,note_on,1,0,0,,8,,,80,127
31345,note_on,0,0,0,,4,,,76,127
31487,note_off,142,0,0,,4,,,76,127
31487,note_off,0,0,0,,8,,,80,127
31489,note_on,2,0,0,,3,,,75,127
31489,note_on,0,0,0,,6,,,78,127
31631,note_off,142,0,0,,6,,,78,127
31631,note_off,0,0,0,,3,,,75,127
31631,note_off,0,0,0,,12,,,47,127
31631,note_off,0,0,0,,12,,,59,127
31633,note_on,2,0,0,,4,,,52,127
31633,note_on,0,0,0,,12,,,59,127
31633,note_on,0,0,0,,4,,,76,127
31775,note_off,142,0,0,,4,,,76,127
31777,note_on,2,0,0,,12,,,71,127
31921,note_on,144,0,0,,12,,,83,127
32064,note_off,143,0,0,,4,,,52,127
32065,note_on,1,0,0,,12,,,47,127
32207,note_off,142,0,0,,12,,,83,127
32208,note_off,1,0,0,,12,,,71,127
32209,note_on,1,0,0,,8,,,80,127
32209,note_on,0,0,0,,4,,,76,127
32351,note_off,142,0,0,,4,,,76,127
32351,note_off,0,0,0,,8,,,80,127
32353,note_on,2,0,0,,3,,,75,127
32353,note_on,0,0,0,,6,,,78,127
32495,note_off,142,0,0,,6,,,78,127
32495,note_off,0,0,0,,3,,,75,127
32495,note_off,0,0,0,,12,,,47,127
32495,note_off,0,0,0,,12,,,59,127
32497,note_on,2,0,0,,4,,,52,127
32497,note_on,0,0,0,,8,,,80,127
32639,note_off,142,0,0,,8,,,80,127
32641,note_on,2,0,0,,10,,,81,127
32783,note_off,142,0,0,,10,,,81,127
32783,note_off,0,0,0,,4,,,52,127
32785,note_on,2,0,0,,8,,,56,127
32785,note_on,0,0,0,,12,,,83,127
32927,note_off,142,0,0,,12,,,83,127
32927,note_off,0,0,0,,8,,,56,127
32929,note_on,2,0,0,,10,,,57,127
32929,note_on,0,0,0,,10,,,81,127
32929,note_on,0,0,0,,12,,,83,127
33071,note_off,142,0,0,,12,,,83,127
33071,note_off,0,0,0,,10,,,81,127
33073,note_on,2,0,0,,8,,,80,127
33215,note_off,142,0,0,,8,,,80,127
33215,note_off,0,0,0,,10,,,57,127
33217,note_on,2,0,0,,12,,,59,127
33217,note_on,0,0,0,,6,,,78,127
33359,note_off,142,0,0,,6,,,78,127
33359,note_off,0,0,0,,12,,,59,127
33361,note_on,2,0,0,,4,,,52,127
33361,note_on,0,0,0,,4,,,40,127
33361,note_on,0,0,0,,6,,,78,127
33409,note_on,48,0,0,,4,,,76,127
33431,note_off,22,0,0,,6,,,78,127
33457,note_on,26,0,0,,6,,,78,127
33479,note_off,22,0,0,,4,,,76,127
33505,note_on,26,0,0,,4,,,76,127
33527,note_off,22,0,0,,6,,,78,127
33789,note_off,262,0,0,,4,,,76,127
33791,note_off,2,0,0,,4,,,40,127
33791,note_off,0,0,0,,4,,,52,127
33805,note_on,14,0,0,,8,,,68,127
33805,note_on,0,0,0,,2,,,62,127
33805,note_on,0,0,0,,4,,,52,127
33947,note_off,142,0,0,,8,,,68,127
33949,note_on,2,0,0,,10,,,69,127
34091,note_off,142,0,0,,10,,,69,127
34093,note_on,2,0,0,,6,,,78,127
34235,note_off,142,0,0,,4,,,52,127
34235,note_off,0,0,0,,2,,,62,127
34237,note_on,2,0,0,,8,,,68,127
34237,note_on,0,0,0,,1,,,61,127
34237,note_on,0,0,0,,4,,,52,127
34273,note_off,36,0,0,,6,,,78,127
34379,note_off,106,0,0,,8,,,68,127
34381,note_on,2,0,0,,10,,,69,127
34523,note_off,142,0,0,,10,,,69,127
34525,note_on,2,0,0,,4,,,76,127
34667,note_off,142,0,0,,4,,,52,127
34667,note_off,0,0,0,,1,,,61,127
34669,note_on,2,0,0,,10,,,69,127
34669,note_on,0,0,0,,12,,,59,127
34669,note_on,0,0,0,,4,,,52,127
34705,note_off,36,0,0,,4,,,76,127
34811,note_off,106,0,0,,10,,,69,127
34813,note_on,2,0,0,,12,,,71,127
34955,note_off,142,0,0,,12,,,71,127
34957,note_on,2,0,0,,2,,,74,127
35099,note_off,142,0,0,,2,,,74,127
35099,note_off,0,0,0,,4,,,52,127
35099,note_off,0,0,0,,12,,,59,127
35101,note_on,2,0,0,,1,,,73,127
35101,note_on,0,0,0,,10,,,57,127
35101,note_on,0,0,0,,10,,,45,127
35101,note_on,0,0,0,,2,,,74,127
35243,note_off,142,0,0,,2,,,74,127
35243,note_off,0,0,0,,1,,,73,127
35245,note_on,2,0,0,,2,,,74,127
35387,note_off,142,0,0,,2,,,74,127
35389,note_on,2,0,0,,4,,,76,127
35531,note_off,142,0,0,,4,,,76,127
35531,note_off,0,0,0,,10,,,45,127
35531,note_off,0,0,0,,10,,,57,127
35533,note_on,2,0,0,,1,,,73,127
35533,note_on,0,0,0,,4,,,64,127
35533,note_on,0,0,0,,7,,,55,127
35675,note_off,142,0,0,,1,,,73,127
35677,note_on,2,0,0,,2,,,74,127
35819,note_off,142,0,0,,2,,,74,127
35821,note_on,2,0,0,,12,,,83,127
35963,note_off,142,0,0,,7,,,55,127
35963,note_off,0,0,0,,4,,,64,127
35965,note_on,2,0,0,,1,,,73,127
35965,note_on,0,0,0,,2,,,62,127
35965,note_on,0,0,0,,6,,,54,127
36031,note_off,66,0,0,,12,,,83,127
36107,note_off,76,0,0,,1,,,73,127
36109,note_on,2,0,0,,2,,,74,127
36251,note_off,142,0,0,,2,,,74,127
36253,note_on,2,0,0,,10,,,81,127
36395,note_off,142,0,0,,6,,,54,127
36395,note_off,0,0,0,,2,,,62,127
36397,note_on,2,0,0,,3,,,75,127
36397,note_on,0,0,0,,10,,,57,127
36397,note_on,0,0,0,,1,,,49,127
36463,note_off,66,0,0,,10,,,81,127
36539,note_off,76,0,0,,3,,,75,127
36541,note_on,2,0,0,,4,,,76,127
36683,note_off,142,0,0,,4,,,76,127
36685,note_on,2,0,0,,7,,,79,127
36827,note_off,142,0,0,,7,,,79,127
36827,note_off,0,0,0,,1,,,49,127
36827,note_off,0,0,0,,10,,,57,127
36829,note_on,2,0,0,,7,,,79,127
36829,note_on,0,0,0,,6,,,78,127
36829,note_on,0,0,0,,10,,,57,127
36829,note_on,0,0,0,,2,,,50,127
36971,note_off,142,0,0,,6,,,78,127
36971,note_off,0,0,0,,7,,,79,127
36973,note_on,2,0,0,,4,,,76,127
37115,note_off,142,0,0,,4,,,76,127
37117,note_on,2,0,0,,2,,,74,127
37259,note_off,142,0,0,,2,,,74,127
37259,note_off,0,0,0,,2,,,50,127
37259,note_off,0,0,0,,10,,,57,127
37261,note_on,2,0,0,,11,,,70,127
37261,note_on,0,0,0,,7,,,67,127
37261,note_on,0,0,0,,4,,,64,127
37403,note_off,142,0,0,,11,,,70,127
37405,note_on,2,0,0,,12,,,71,127
37547,note_off,142,0,0,,12,,,71,127
37549,note_on,2,0,0,,7,,,79,127
37691,note_off,142,0,0,,4,,,64,127
37691,note_off,0,0,0,,7,,,67,127
37693,note_on,2,0,0,,11,,,70,127
37693,note_on,0,0,0,,6,,,66,127
37693,note_on,0,0,0,,2,,,62,127
37789,note_off,96,0,0,,7,,,79,127
37835,note_off,46,0,0,,11,,,70,127
37837,note_on,2,0,0,,12,,,71,127
37979,note_off,142,0,0,,12,,,71,127
37981,note_on,2,0,0,,6,,,78,127
38123,note_off,142,0,0,,2,,,62,127
38123,note_off,0,0,0,,6,,,66,127
38125,note_on,2,0,0,,12,,,71,127
38125,note_on,0,0,0,,4,,,64,127
38125,note_on,0,0,0,,1,,,61,127
38221,note_off,96,0,0,,6,,,78,127
38267,note_off,46,0,0,,12,,,71,127
38269,note_on,2,0,0,,1,,,73,127
38411,note_off,142,0,0,,1,,,73,127
38413,note_on,2,0,0,,4,,,76,127
38555,note_off,142,0,0,,4,,,76,127
38555,note_off,0,0,0,,1,,,61,127
38555,note_off,0,0,0,,4,,,64,127
38557,note_on,2,0,0,,4,,,76,127
38557,note_on,0,0,0,,2,,,74,127
38557,note_on,0,0,0,,6,,,66,127
38557,note_on,0,0,0,,12,,,59,127
38699,note_off,142,0,0,,2,,,74,127
38699,note_off,0,0,0,,4,,,76,127
38701,note_on,2,0,0,,1,,,73,127
38843,note_off,142,0,0,,1,,,73,127
38845,note_on,2,0,0,,12,,,71,127
38987,note_off,142,0,0,,12,,,71,127
38987,note_off,0,0,0,,12,,,59,127
38987,note_off,0,0,0,,6,,,66,127
38989,note_on,2,0,0,,8,,,68,127
38989,note_on,0,0,0,,6,,,66,127
38989,note_on,0,0,0,,2,,,62,127
39131,note_off,142,0,0,,8,,,68,127
39133,note_on,2,0,0,,10,,,69,127
39275,note_off,142,0,0,,10,,,69,127
39277,note_on,2,0,0,,6,,,78,127
39419,note_off,142,0,0,,2,,,62,127
39419,note_off,0,0,0,,6,,,66,127
39421,note_on,2,0,0,,8,,,68,127
39421,note_on,0,0,0,,1,,,61,127
39421,note_on,0,0,0,,4,,,64,127
39547,note_off,126,0,0,,6,,,78,127
39563,note_off,16,0,0,,8,,,68,127
39565,note_on,2,0,0,,10,,,69,127
39707,note_off,142,0,0,,10,,,69,127
39709,note_on,2,0,0,,4,,,76,127
39851,note_off,142,0,0,,4,,,64,127
39851,note_off,0,0,0,,1,,,61,127
39853,note_on,2,0,0,,10,,,69,127
39853,note_on,0,0,0,,2,,,62,127
39853,note_on,0,0,0,,12,,,59,127
39979,note_off,126,0,0,,4,,,76,127
39995,note_off,16,0,0,,10,,,69,127
39997,note_on,2,0,0,,12,,,71,127
40139,note_off,142,0,0,,12,,,71,127
40141,note_on,2,0,0,,2,,,74,127
40283,note_off,142,0,0,,2,,,74,127
40283,note_off,0,0,0,,12,,,59,127
40283,note_off,0,0,0,,2,,,62,127
40285,note_on,2,0,0,,1,,,73,127
40285,note_on,0,0,0,,2,,,74,127
40285,note_on,0,0,0,,4,,,64,127
40285,note_on,0,0,0,,10,,,57,127
40427,note_off,142,0,0,,2,,,74,127
40427,note_off,0,0,0,,1,,,73,127
40429,note_on,2,0,0,,12,,,71,127
40571,note_off,142,0,0,,12,,,71,127
40573,note_on,2,0,0,,10,,,69,127
40715,note_off,142,0,0,,10,,,69,127
40715,note_off,0,0,0,,10,,,57,127
40715,note_off,0,0,0,,4,,,64,127
40729,note_on,14,0,0,,1,,,49,127
40729,note_on,0,0,0,,10,,,57,127
40729,note_on,0,0,0,,8,,,68,127
40871,note_off,142,0,0,,8,,,68,127
40873,note_on,2,0,0,,10,,,69,127
41015,note_off,142,0,0,,10,,,69,127
41017,note_on,2,0,0,,4,,,76,127
41159,note_off,142,0,0,,4,,,76,127
41159,note_off,0,0,0,,10,,,57,127
41159,note_off,0,0,0,,1,,,49,127
41161,note_on,2,0,0,,2,,,50,127
41161,note_on,0,0,0,,12,,,59,127
41161,note_on,0,0,0,,10,,,69,127
41303,note_off,142,0,0,,10,,,69,127
41305,note_on,2,0,0,,12,,,71,127
41447,note_off,142,0,0,,12,,,71,127
41449,note_on,2,0,0,,6,,,78,127
41591,note_off,142,0,0,,6,,,78,127
41591,note_off,0,0,0,,12,,,59,127
41591,note_off,0,0,0,,2,,,50,127
41593,note_on,2,0,0,,4,,,52,127
41593,note_on,0,0,0,,1,,,61,127
41593,note_on,0,0,0,,12,,,71,127
41735,note_off,142,0,0,,12,,,71,127
41737,note_on,2,0,0,,1,,,73,127
41879,note_off,142,0,0,,1,,,73,127
41881,note_on,2,0,0,,8,,,80,127
42023,note_off,142,0,0,,8,,,80,127
42023,note_off,0,0,0,,1,,,61,127
42023,note_off,0,0,0,,4,,,52,127
42025,note_on,2,0,0,,6,,,54,127
42025,note_on,0,0,0,,2,,,62,127
42025,note_on,0,0,0,,1,,,73,127
42167,note_off,142,0,0,,1,,,73,127
42169,note_on,2,0,0,,2,,,74,127
42311,note_off,142,0,0,,2,,,74,127
42313,note_on,2,0,0,,10,,,81,127
42455,note_off,142,0,0,,10,,,81,127
42455,note_off,0,0,0,,2,,,62,127
42455,note_off,0,0,0,,6,,,54,127
42457,note_on,2,0,0,,4,,,64,127
42457,note_on,0,0,0,,8,,,56,127
42457,note_on,0,0,0,,2,,,74,127
42601,note_on,144,0,0,,12,,,83,127
42742,note_off,141,0,0,,2,,,74,127
42744,note_off,2,0,0,,12,,,83,127
42746,note_on,2,0,0,,2,,,74,127
42888,note_off,142,0,0,,2,,,74,127
42888,note_off,0,0,0,,8,,,56,127
42888,note_off,0,0,0,,4,,,64,127
42890,note_on,2,0,0,,10,,,57,127
42890,note_on,0,0,0,,4,,,64,127
42890,note_on,0,0,0,,1,,,73,127
43032,note_off,142,0,0,,1,,,73,127
43034,note_on,2,0,0,,2,,,74,127
43176,note_off,142,0,0,,2,,,74,127
43178,note_on,2,0,0,,4,,,76,127
43320,note_off,142,0,0,,4,,,64,127
43320,note_off,0,0,0,,10,,,57,127
43322,note_on,2,0,0,,2,,,50,127
43322,note_on,0,0,0,,6,,,66,127
43452,note_off,130,0,0,,4,,,76,127
43466,note_on,14,0,0,,2,,,74,127
43608,note_off,142,0,0,,2,,,74,127
43610,note_on,2,0,0,,1,,,73,127
43752,note_off,142,0,0,,1,,,73,127
43752,note_off,0,0,0,,2,,,50,127
43753,note_off,1,0,0,,6,,,66,127
43754,note_on,1,0,0,,4,,,52,127
43754,note_on,0,0,0,,1,,,73,127
43824,note_off,70,0,0,,1,,,73,127
43826,note_on,2,0,0,,12,,,71,127
43896,note_off,70,0,0,,12,,,71,127
43898,note_on,2,0,0,,1,,,73,127
43968,note_off,70,0,0,,1,,,73,127
43970,note_on,2,0,0,,12,,,71,127
44040,note_off,70,0,0,,12,,,71,127
44042,note_on,2,0,0,,1,,,73,127
44112,note_off,70,0,0,,1,,,73,127
44114,note_on,2,0,0,,12,,,71,127
44184,note_off,70,0,0,,12,,,71,127
44184,note_off,0,0,0,,4,,,52,127
44198,note_on,14,0,0,,8,,,68,127
44198,note_on,0,0,0,,10,,,57,127
44198,note_on,0,0,0,,1,,,49,127
44340,note_off,142,0,0,,8,,,68,127
44342,note_on,2,0,0,,10,,,69,127
44486,note_on,144,0,0,,4,,,76,127
44627,note_off,141,0,0,,10,,,69,127
44629,note_off,2,0,0,,4,,,76,127
44629,note_off,0,0,0,,1,,,49,127
44629,note_off,0,0,0,,10,,,57,127
44631,note_on,2,0,0,,10,,,69,127
44631,note_on,0,0,0,,12,,,59,127
44631,note_on,0,0,0,,2,,,50,127
44773,note_off,142,0,0,,10,,,69,127
44775,note_on,2,0,0,,12,,,71,127
44919,note_on,144,0,0,,6,,,78,127
45060,note_off,141,0,0,,12,,,71,127
45062,note_off,2,0,0,,6,,,78,127
45062,note_off,0,0,0,,2,,,50,127
45062,note_off,0,0,0,,12,,,59,127
45064,note_on,2,0,0,,12,,,71,127
45064,note_on,0,0,0,,4,,,52,127
45064,note_on,0,0,0,,1,,,61,127
45206,note_off,142,0,0,,12,,,71,127
45208,note_on,2,0,0,,1,,,73,127
45352,note_on,144,0,0,,8,,,80,127
45493,note_off,141,0,0,,1,,,73,127
45495,note_off,2,0,0,,8,,,80,127
45495,note_off,0,0,0,,1,,,61,127
45495,note_off,0,0,0,,4,,,52,127
45497,note_on,2,0,0,,1,,,73,127
45497,note_on,0,0,0,,2,,,62,127
45497,note_on,0,0,0,,6,,,54,127
45639,note_off,142,0,0,,1,,,73,127
45641,note_on,2,0,0,,2,,,74,127
45785,note_on,144,0,0,,10,,,81,127
45926,note_off,141,0,0,,2,,,74,127
45928,note_off,2,0,0,,10,,,81,127
45928,note_off,0,0,0,,6,,,54,127
45928,note_off,0,0,0,,2,,,62,127
45930,note_on,2,0,0,,2,,,74,127
45930,note_on,0,0,0,,8,,,56,127
45930,note_on,0,0,0,,4,,,64,127
46074,note_on,144,0,0,,12,,,83,127
46215,note_off,141,0,0,,2,,,74,127
46217,note_off,2,0,0,,12,,,83,127
46219,note_on,2,0,0,,2,,,74,127
46361,note_off,142,0,0,,2,,,74,127
46361,note_off,0,0,0,,4,,,64,127
46361,note_off,0,0,0,,8,,,56,127
46363,note_on,2,0,0,,1,,,73,127
46363,note_on,0,0,0,,4,,,64,127
46363,note_on,0,0,0,,10,,,57,127
46505,note_off,142,0,0,,1,,,73,127
46507,note_on,2,0,0,,2,,,74,127
46649,note_off,142,0,0,,2,,,74,127
46651,note_on,2,0,0,,4,,,76,127
46793,note_off,142,0,0,,4,,,76,127
46793,note_off,0,0,0,,10,,,57,127
46793,note_off,0,0,0,,4,,,64,127
46795,note_on,2,0,0,,2,,,74,127
46795,note_on,0,0,0,,4,,,76,127
46795,note_on,0,0,0,,2,,,50,127
46937,note_off,142,0,0,,4,,,76,127
46937,note_off,0,0,0,,2,,,74,127
46939,note_on,2,0,0,,1,,,73,127
47081,note_off,142,0,0,,1,,,73,127
47081,note_off,0,0,0,,2,,,50,127
47083,note_on,2,0,0,,12,,,71,127
47083,note_on,0,0,0,,4,,,52,127
47225,note_off,142,0,0,,4,,,52,127
47225,note_off,0,0,0,,12,,,71,127
47227,note_on,2,0,0,,12,,,71,127
47227,note_on,0,0,0,,10,,,45,127
47275,note_on,48,0,0,,10,,,69,127
47297,note_off,22,0,0,,12,,,71,127
47323,note_on,26,0,0,,12,,,71,127
47345,note_off,22,0,0,,10,,,69,127
47371,note_on,26,0,0,,10,,,69,127
47393,note_off,22,0,0,,12,,,71,127
47655,note_off,262,0,0,,10,,,69,127
47657,note_off,2,0,0,,10,,,45,127
47695,note_on,38,0,0,,0,,,60,127
47695,note_on,0,0,0,,10,,,57,127
47695,note_on,0,0,0,,3,,,63,127
47837,note_off,142,0,0,,3,,,63,127
47839,note_on,2,0,0,,4,,,64,127
47983,note_on,144,0,0,,0,,,72,127
48124,note_off,141,0,0,,4,,,64,127
48126,note_off,2,0,0,,0,,,72,127
48126,note_off,0,0,0,,10,,,57,127
48126,note_off,0,0,0,,0,,,60,127
48128,note_on,2,0,0,,7,,,55,127
48128,note_on,0,0,0,,12,,,59,127
48128,note_on,0,0,0,,3,,,63,127
48270,note_off,142,0,0,,3,,,63,127
48272,note_on,2,0,0,,4,,,64,127
48416,note_on,144,0,0,,12,,,71,127
48557,note_off,141,0,0,,4,,,64,127
48559,note_off,2,0,0,,12,,,71,127
48559,note_off,0,0,0,,12,,,59,127
48559,note_off,0,0,0,,7,,,55,127
48561,note_on,2,0,0,,5,,,53,127
48561,note_on,0,0,0,,10,,,57,127
48561,note_on,0,0,0,,1,,,61,127
48703,note_off,142,0,0,,1,,,61,127
48705,note_on,2,0,0,,2,,,62,127
48849,note_on,144,0,0,,10,,,69,127
48990,note_off,141,0,0,,2,,,62,127
48992,note_off,2,0,0,,10,,,69,127
48992,note_off,0,0,0,,10,,,57,127
48992,note_off,0,0,0,,5,,,53,127
48994,note_on,2,0,0,,10,,,69,127
48994,note_on,0,0,0,,12,,,59,127
48994,note_on,0,0,0,,4,,,52,127
48994,note_on,0,0,0,,8,,,68,127
49136,note_off,142,0,0,,8,,,68,127
49136,note_off,0,0,0,,10,,,69,127
49138,note_on,2,0,0,,10,,,69,127
49280,note_off,142,0,0,,10,,,69,127
49282,note_on,2,0,0,,12,,,71,127
49424,note_off,142,0,0,,12,,,71,127
49424,note_off,0,0,0,,4,,,52,127
49424,note_off,0,0,0,,12,,,59,127
49426,note_on,2,0,0,,10,,,57,127
49426,note_on,0,0,0,,0,,,60,127
49426,note_on,0,0,0,,3,,,63,127
49568,note_off,142,0,0,,3,,,63,127
49570,note_on,2,0,0,,4,,,64,127
49712,note_off,142,0,0,,4,,,64,127
49714,note_on,2,0,0,,0,,,72,127
49856,note_off,142,0,0,,0,,,60,127
49856,note_off,0,0,0,,10,,,57,127
49858,note_on,2,0,0,,12,,,59,127
49858,note_on,0,0,0,,7,,,55,127
49858,note_on,0,0,0,,3,,,63,127
50000,note_off,142,0,0,,3,,,63,127
50002,note_on,2,0,0,,4,,,64,127
50144,note_off,142,0,0,,4,,,64,127
50145,note_off,1,0,0,,0,,,72,127
50146,note_on,1,0,0,,12,,,71,127
50288,note_off,142,0,0,,12,,,71,127
50288,note_off,0,0,0,,7,,,55,127
50288,note_off,0,0,0,,12,,,59,127
50290,note_on,2,0,0,,10,,,57,127
50290,note_on,0,0,0,,5,,,53,127
50290,note_on,0,0,0,,2,,,74,127
50434,note_on,144,0,0,,8,,,68,127
50575,note_off,141,0,0,,2,,,74,127
50577,note_off,2,0,0,,8,,,68,127
50579,note_on,2,0,0,,10,,,69,127
50721,note_off,142,0,0,,10,,,69,127
50721,note_off,0,0,0,,5,,,53,127
50721,note_off,0,0,0,,10,,,57,127
50723,note_on,2,0,0,,4,,,52,127
50723,note_on,0,0,0,,12,,,59,127
50723,note_on,0,0,0,,10,,,69,127
50911,note_off,188,0,0,,10,,,69,127
50915,note_on,4,0,0,,12,,,71,127
50963,note_off,48,0,0,,12,,,71,127
50963,note_on,0,0,0,,10,,,69,127
51011,note_off,48,0,0,,10,,,69,127
51011,note_on,0,0,0,,12,,,71,127
51153,note_off,142,0,0,,12,,,71,127
51153,note_off,0,0,0,,12,,,59,127
51153,note_off,0,0,0,,4,,,52,127
51155,note_on,2,0,0,,1,,,49,127
51155,note_on,0,0,0,,4,,,52,127
51155,note_on,0,0,0,,8,,,68,127
51297,note_off,142,0,0,,8,,,68,127
51299,note_on,2,0,0,,10,,,69,127
51443,note_on,144,0,0,,4,,,76,127
51584,note_off,141,0,0,,10,,,69,127
51586,note_off,2,0,0,,4,,,76,127
51586,note_off,0,0,0,,4,,,52,127
51586,note_off,0,0,0,,1,,,49,127
51588,note_on,2,0,0,,6,,,54,127
51588,note_on,0,0,0,,2,,,50,127
51588,note_on,0,0,0,,8,,,68,127
51730,note_off,142,0,0,,8,,,68,127
51732,note_on,2,0,0,,10,,,69,127
51876,note_on,144,0,0,,6,,,78,127
52017,note_off,141,0,0,,10,,,69,127
52019,note_off,2,0,0,,6,,,78,127
52019,note_off,0,0,0,,2,,,50,127
52019,note_off,0,0,0,,6,,,54,127
52021,note_on,2,0,0,,12,,,47,127
52021,note_on,0,0,0,,2,,,50,127
52021,note_on,0,0,0,,8,,,68,127
52163,note_off,142,0,0,,8,,,68,127
52165,note_on,2,0,0,,10,,,69,127
52309,note_on,144,0,0,,8,,,80,127
52450,note_off,141,0,0,,10,,,69,127
52452,note_off,2,0,0,,8,,,80,127
52452,note_off,0,0,0,,2,,,50,127
52452,note_off,0,0,0,,12,,,47,127
52454,note_on,2,0,0,,1,,,49,127
52454,note_on,0,0,0,,4,,,52,127
52454,note_on,0,0,0,,8,,,68,127
52596,note_off,142,0,0,,8,,,68,127
52598,note_on,2,0,0,,10,,,69,127
52742,note_on,144,0,0,,10,,,81,127
52883,note_off,141,0,0,,10,,,69,127
52885,note_off,2,0,0,,10,,,81,127
52885,note_off,0,0,0,,4,,,52,127
52885,note_off,0,0,0,,1,,,49,127
52887,note_on,2,0,0,,8,,,44,127
52887,note_on,0,0,0,,4,,,52,127
52887,note_on,0,0,0,,11,,,70,127
53029,note_off,142,0,0,,11,,,70,127
53031,note_on,2,0,0,,12,,,71,127
53173,note_off,142,0,0,,12,,,71,127
53175,note_on,2,0,0,,2,,,74,127
53317,note_off,142,0,0,,2,,,74,127
53317,note_off,0,0,0,,4,,,52,127
53317,note_off,0,0,0,,8,,,44,127
53319,note_on,2,0,0,,10,,,45,127
53319,note_on,0,0,0,,1,,,73,127
53461,note_off,142,0,0,,1,,,73,127
53463,note_on,2,0,0,,2,,,74,127
53605,note_off,142,0,0,,2,,,74,127
53605,note_off,0,0,0,,10,,,45,127
53607,note_on,2,0,0,,1,,,49,127
53607,note_on,0,0,0,,4,,,76,127
53749,note_off,142,0,0,,4,,,76,127
53749,note_off,0,0,0,,1,,,49,127
53751,note_on,2,0,0,,2,,,50,127
53751,note_on,0,0,0,,2,,,74,127
53751,note_on,0,0,0,,4,,,76,127
53893,note_off,142,0,0,,4,,,76,127
53893,note_off,0,0,0,,2,,,74,127
53895,note_on,2,0,0,,1,,,73,127
54037,note_off,142,0,0,,1,,,73,127
54037,note_off,0,0,0,,2,,,50,127
54039,note_on,2,0,0,,4,,,52,127
54039,note_on,0,0,0,,12,,,71,127
54181,note_off,142,0,0,,12,,,71,127
54181,note_off,0,0,0,,4,,,52,127
54183,note_on,2,0,0,,10,,,45,127
54183,note_on,0,0,0,,12,,,71,127
54253,note_off,70,0,0,,12,,,71,127
54255,note_on,2,0,0,,10,,,69,127
54325,note_off,70,0,0,,10,,,69,127
54327,note_on,2,0,0,,12,,,71,127
54397,note_off,70,0,0,,12,,,71,127
54399,note_on,2,0,0,,10,,,69,127
54469,note_off,70,0,0,,10,,,69,127
54471,note_on,2,0,0,,12,,,71,127
54541,note_off,70,0,0,,12,,,71,127
54543,note_on,2,0,0,,10,,,69,127
54613,note_off,70,0,0,,10,,,69,127
54613,note_off,0,0,0,,10,,,45,127
54627,note_on,14,0,0,,3,,,63,127
54627,note_on,0,0,0,,0,,,60,127
54627,note_on,0,0,0,,10,,,57,127
54769,note_off,142,0,0,,3,,,63,127
54771,note_on,2,0,0,,4,,,64,127
54913,note_off,142,0,0,,4,,,64,127
54915,note_on,2,0,0,,0,,,72,127
55057,note_off,142,0,0,,10,,,57,127
55057,note_off,0,0,0,,0,,,60,127
55059,note_on,2,0,0,,3,,,63,127
55059,note_on,0,0,0,,12,,,59,127
55059,note_on,0,0,0,,7,,,55,127
55201,note_off,142,0,0,,3,,,63,127
55203,note_on,2,0,0,,4,,,64,127
55345,note_off,142,0,0,,4,,,64,127
55346,note_off,1,0,0,,0,,,72,127
55347,note_on,1,0,0,,12,,,71,127
55489,note_off,142,0,0,,7,,,55,127
55489,note_off,0,0,0,,12,,,59,127
55491,note_on,2,0,0,,1,,,61,127
55491,note_on,0,0,0,,10,,,57,127
55491,note_on,0,0,0,,5,,,53,127
55633,note_off,142,0,0,,1,,,61,127
55635,note_on,2,0,0,,2,,,62,127
55777,note_off,142,0,0,,2,,,62,127
55778,note_off,1,0,0,,12,,,71,127
55779,note_on,1,0,0,,10,,,69,127
55921,note_off,142,0,0,,10,,,69,127
55921,note_off,0,0,0,,5,,,53,127
55921,note_off,0,0,0,,10,,,57,127
55923,note_on,2,0,0,,8,,,68,127
55923,note_on,0,0,0,,12,,,59,127
55923,note_on,0,0,0,,4,,,52,127
55923,note_on,0,0,0,,10,,,69,127
56065,note_off,142,0,0,,10,,,69,127
56065,note_off,0,0,0,,8,,,68,127
56067,note_on,2,0,0,,10,,,69,127
56209,note_off,142,0,0,,10,,,69,127
56211,note_on,2,0,0,,12,,,71,127
56353,note_off,142,0,0,,12,,,71,127
56353,note_off,0,0,0,,4,,,52,127
56353,note_off,0,0,0,,12,,,59,127
56355,note_on,2,0,0,,3,,,63,127
56355,note_on,0,0,0,,10,,,57,127
56355,note_on,0,0,0,,0,,,60,127
56497,note_off,142,0,0,,3,,,63,127
56499,note_on,2,0,0,,4,,,64,127
56643,note_on,144,0,0,,0,,,72,127
56784,note_off,141,0,0,,4,,,64,127
56786,note_off,2,0,0,,0,,,72,127
56786,note_off,0,0,0,,0,,,60,127
56786,note_off,0,0,0,,10,,,57,127
56788,note_on,2,0,0,,3,,,63,127
56788,note_on,0,0,0,,12,,,59,127
56788,note_on,0,0,0,,7,,,55,127
56930,note_off,142,0,0,,3,,,63,127
56932,note_on,2,0,0,,4,,,64,127
57076,note_on,144,0,0,,12,,,71,127
57217,note_off,141,0,0,,4,,,64,127
57219,note_off,2,0,0,,12,,,71,127
57219,note_off,0,0,0,,7,,,55,127
57219,note_off,0,0,0,,12,,,59,127
57221,note_on,2,0,0,,2,,,74,127
57221,note_on,0,0,0,,5,,,53,127
57221,note_on,0,0,0,,10,,,57,127
57363,note_off,142,0,0,,2,,,74,127
57365,note_on,2,0,0,,8,,,68,127
57507,note_off,142,0,0,,8,,,68,127
57509,note_on,2,0,0,,10,,,69,127
57651,note_off,142,0,0,,10,,,69,127
57651,note_off,0,0,0,,10,,,57,127
57651,note_off,0,0,0,,5,,,53,127
57653,note_on,2,0,0,,10,,,69,127
57653,note_on,0,0,0,,12,,,59,127
57653,note_on,0,0,0,,4,,,52,127
57841,note_off,188,0,0,,10,,,69,127
57845,note_on,4,0,0,,12,,,71,127
57893,note_off,48,0,0,,12,,,71,127
57893,note_on,0,0,0,,10,,,69,127
57941,note_off,48,0,0,,10,,,69,127
57941,note_on,0,0,0,,12,,,71,127
58083,note_off,142,0,0,,12,,,71,127
58083,note_off,0,0,0,,4,,,52,127
58083,note_off,0,0,0,,12,,,59,127
58097,note_on,14,0,0,,1,,,49,127
58097,note_on,0,0,0,,4,,,52,127
58097,note_on,0,0,0,,8,,,68,127
58239,note_off,142,0,0,,8,,,68,127
58241,note_on,2,0,0,,10,,,69,127
58383,note_off,142,0,0,,10,,,69,127
58385,note_on,2,0,0,,4,,,76,127
58527,note_off,142,0,0,,4,,,52,127
58527,note_off,0,0,0,,1,,,49,127
58529,note_on,2,0,0,,2,,,50,127
58529,note_on,0,0,0,,6,,,54,127
58529,note_on,0,0,0,,8,,,68,127
58671,note_off,142,0,0,,8,,,68,127
58673,note_on,2,0,0,,10,,,69,127
58815,note_off,142,0,0,,10,,,69,127
58816,note_off,1,0,0,,4,,,76,127
58817,note_on,1,0,0,,6,,,78,127
58959,note_off,142,0,0,,6,,,54,127
58959,note_off,0,0,0,,2,,,50,127
58961,note_on,2,0,0,,12,,,47,127
58961,note_on,0,0,0,,2,,,50,127
58961,note_on,0,0,0,,8,,,68,127
59103,note_off,142,0,0,,8,,,68,127
59105,note_on,2,0,0,,10,,,69,127
59247,note_off,142,0,0,,10,,,69,127
59248,note_off,1,0,0,,6,,,78,127
59249,note_on,1,0,0,,8,,,80,127
59391,note_off,142,0,0,,2,,,50,127
59391,note_off,0,0,0,,12,,,47,127
59393,note_on,2,0,0,,1,,,49,127
59393,note_on,0,0,0,,4,,,52,127
59393,note_on,0,0,0,,8,,,68,127
59535,note_off,142,0,0,,8,,,68,127
59537,note_on,2,0,0,,10,,,69,127
59679,note_off,142,0,0,,10,,,69,127
59680,note_off,1,0,0,,8,,,80,127
59681,note_on,1,0,0,,10,,,81,127
59823,note_off,142,0,0,,10,,,81,127
59823,note_off,0,0,0,,4,,,52,127
59823,note_off,0,0,0,,1,,,49,127
59825,note_on,2,0,0,,8,,,44,127
59825,note_on,0,0,0,,4,,,52,127
59825,note_on,0,0,0,,11,,,70,127
59967,note_off,142,0,0,,11,,,70,127
59969,note_on,2,0,0,,12,,,71,127
60111,note_off,142,0,0,,12,,,71,127
60113,note_on,2,0,0,,2,,,74,127
60255,note_off,142,0,0,,2,,,74,127
60255,note_off,0,0,0,,4,,,52,127
60255,note_off,0,0,0,,8,,,44,127
60257,note_on,2,0,0,,10,,,45,127
60257,note_on,0,0,0,,1,,,73,127
60399,note_off,142,0,0,,1,,,73,127
60401,note_on,2,0,0,,2,,,74,127
60543,note_off,142,0,0,,2,,,74,127
60543,note_off,0,0,0,,10,,,45,127
60545,note_on,2,0,0,,1,,,49,127
60545,note_on,0,0,0,,4,,,76,127
60687,note_off,142,0,0,,4,,,76,127
60687,note_off,0,0,0,,1,,,49,127
60689,note_on,2,0,0,,2,,,50,127
60689,note_on,0,0,0,,2,,,74,127
60689,note_on,0,0,0,,4,,,76,127
60831,note_off,142,0,0,,4,,,76,127
60831,note_off,0,0,0,,2,,,74,127
60833,note_on,2,0,0,,1,,,73,127
60975,note_off,142,0,0,,1,,,73,127
60975,note_off,0,0,0,,2,,,50,127
60977,note_on,2,0,0,,4,,,52,127
60977,note_on,0,0,0,,12,,,71,127
61119,note_off,142,0,0,,12,,,71,127
61119,note_off,0,0,0,,4,,,52,127
61121,note_on,2,0,0,,10,,,57,127
61121,note_on,0,0,0,,10,,,45,127
61121,note_on,0,0,0,,10,,,69,127
61263,note_off,142,0,0,,10,,,69,127
61265,note_on,2,0,0,,4,,,64,127
61409,note_on,144,0,0,,4,,,76,127
61551,note_off,142,0,0,,10,,,45,127
61551,note_off,0,0,0,,10,,,57,127
61553,note_on,2,0,0,,4,,,52,127
61695,note_off,142,0,0,,4,,,76,127
61696,note_off,1,0,0,,4,,,64,127
61697,note_on,1,0,0,,10,,,69,127
61697,note_on,0,0,0,,1,,,73,127
61839,note_off,142,0,0,,1,,,73,127
61839,note_off,0,0,0,,10,,,69,127
61841,note_on,2,0,0,,12,,,71,127
61841,note_on,0,0,0,,8,,,68,127
61983,note_off,142,0,0,,8,,,68,127
61983,note_off,0,0,0,,12,,,71,127
61983,note_off,0,0,0,,4,,,52,127
61985,note_on,2,0,0,,10,,,57,127
61985,note_on,0,0,0,,10,,,45,127
61985,note_on,0,0,0,,10,,,69,127
62127,note_off,142,0,0,,10,,,69,127
62129,note_on,2,0,0,,4,,,64,127
62273,note_on,144,0,0,,4,,,76,127
62415,note_off,142,0,0,,10,,,45,127
62415,note_off,0,0,0,,10,,,57,127
62417,note_on,2,0,0,,4,,,52,127
62559,note_off,142,0,0,,4,,,76,127
62560,note_off,1,0,0,,4,,,64,127
62561,note_on,1,0,0,,1,,,73,127
62561,note_on,0,0,0,,10,,,69,127
62703,note_off,142,0,0,,10,,,69,127
62703,note_off,0,0,0,,1,,,73,127
62705,note_on,2,0,0,,8,,,68,127
62705,note_on,0,0,0,,12,,,71,127
62847,note_off,142,0,0,,12,,,71,127
62847,note_off,0,0,0,,8,,,68,127
62847,note_off,0,0,0,,4,,,52,127
62849,note_on,2,0,0,,10,,,45,127
62849,note_on,0,0,0,,10,,,57,127
62849,note_on,0,0,0,,10,,,69,127
62991,note_off,142,0,0,,10,,,69,127
62993,note_on,2,0,0,,4,,,64,127
63135,note_off,142,0,0,,4,,,64,127
63137,note_on,2,0,0,,4,,,76,127
63279,note_off,142,0,0,,10,,,57,127
63279,note_off,0,0,0,,10,,,45,127
63281,note_on,2,0,0,,4,,,52,127
63423,note_off,142,0,0,,4,,,76,127
63425,note_on,2,0,0,,10,,,69,127
63425,note_on,0,0,0,,1,,,73,127
63567,note_off,142,0,0,,1,,,73,127
63567,note_off,0,0,0,,10,,,69,127
63569,note_on,2,0,0,,12,,,71,127
63569,note_on,0,0,0,,8,,,68,127
63711,note_off,142,0,0,,8,,,68,127
63711,note_off,0,0,0,,12,,,71,127
63711,note_off,0,0,0,,4,,,52,127
63713,note_on,2,0,0,,10,,,57,127
63713,note_on,0,0,0,,1,,,73,127
63855,note_off,142,0,0,,1,,,73,127
63857,note_on,2,0,0,,2,,,74,127
63999,note_off,142,0,0,,2,,,74,127
63999,note_off,0,0,0,,10,,,57,127
64001,note_on,2,0,0,,1,,,49,127
64001,note_on,0,0,0,,4,,,76,127
64143,note_off,142,0,0,,4,,,76,127
64143,note_off,0,0,0,,1,,,49,127
64145,note_on,2,0,0,,2,,,50,127
64145,note_on,0,0,0,,2,,,74,127
64145,note_on,0,0,0,,4,,,76,127
64287,note_off,142,0,0,,4,,,76,127
64287,note_off,0,0,0,,2,,,74,127
64289,note_on,2,0,0,,1,,,73,127
64431,note_off,142,0,0,,1,,,73,127
64431,note_off,0,0,0,,2,,,50,127
64433,note_on,2,0,0,,4,,,52,127
64433,note_on,0,0,0,,12,,,71,127
64575,note_off,142,0,0,,12,,,71,127
64575,note_off,0,0,0,,4,,,52,127
64577,note_on,2,0,0,,10,,,45,127
64577,note_on,0,0,0,,10,,,57,127
64577,note_on,0,0,0,,10,,,69,127
64719,note_off,142,0,0,,10,,,69,127
64721,note_on,2,0,0,,4,,,64,127
64865,note_on,144,0,0,,4,,,76,127
65008,note_off,143,0,0,,10,,,57,127
65008,note_off,0,0,0,,10,,,45,127
65009,note_on,1,0,0,,4,,,52,127
65151,note_off,142,0,0,,4,,,76,127
65152,note_off,1,0,0,,4,,,64,127
65153,note_on,1,0,0,,10,,,69,127
65153,note_on,0,0,0,,1,,,73,127
65295,note_off,142,0,0,,1,,,73,127
65295,note_off,0,0,0,,10,,,69,127
65297,note_on,2,0,0,,8,,,68,127
65297,note_on,0,0,0,,12,,,71,127
65439,note_off,142,0,0,,12,,,71,127
65439,note_off,0,0,0,,8,,,68,127
65439,note_off,0,0,0,,4,,,52,127
65441,note_on,2,0,0,,10,,,57,127
65441,note_on,0,0,0,,10,,,45,127
65441,note_on,0,0,0,,10,,,69,127
65583,note_off,142,0,0,,10,,,69,127
65585,note_on,2,0,0,,4,,,64,127
65729,note_on,144,0,0,,4,,,76,127
65871,note_off,142,0,0,,10,,,45,127
65872,note_off,1,0,0,,10,,,57,127
65873,note_on,1,0,0,,4,,,52,127
66015,note_off,142,0,0,,4,,,76,127
66016,note_off,1,0,0,,4,,,64,127
66017,note_on,1,0,0,,1,,,73,127
66017,note_on,0,0,0,,10,,,69,127
66159,note_off,142,0,0,,10,,,69,127
66159,note_off,0,0,0,,1,,,73,127
66161,note_on,2,0,0,,12,,,71,127
66161,note_on,0,0,0,,8,,,68,127
66303,note_off,142,0,0,,8,,,68,127
66303,note_off,0,0,0,,12,,,71,127
66303,note_off,0,0,0,,4,,,52,127
66305,note_on,2,0,0,,10,,,57,127
66305,note_on,0,0,0,,1,,,73,127
66447,note_off,142,0,0,,1,,,73,127
66449,note_on,2,0,0,,2,,,74,127
66591,note_off,142,0,0,,2,,,74,127
66591,note_off,0,0,0,,10,,,57,127
66593,note_on,2,0,0,,1,,,49,127
66593,note_on,0,0,0,,4,,,76,127
66735,note_off,142,0,0,,4,,,76,127
66735,note_off,0,0,0,,1,,,49,127
66737,note_on,2,0,0,,2,,,50,127
66737,note_on,0,0,0,,2,,,74,127
66737,note_on,0,0,0,,4,,,76,127
66879,note_off,142,0,0,,4,,,76,127
66879,note_off,0,0,0,,2,,,74,127
66881,note_on,2,0,0,,1,,,73,127
67023,note_off,142,0,0,,1,,,73,127
67023,note_off,0,0,0,,2,,,50,127
67025,note_on,2,0,0,,4,,,52,127
67025,note_on,0,0,0,,12,,,71,127
67167,note_off,142,0,0,,12,,,71,127
67167,note_off,0,0,0,,4,,,52,127
67181,note_on,14,0,0,,12,,,71,127
67181,note_on,0,0,0,,10,,,45,127
67229,note_on,48,0,0,,10,,,69,127
67252,note_off,23,0,0,,12,,,71,127
67277,note_on,25,0,0,,12,,,71,127
67300,note_off,23,0,0,,10,,,69,127
67325,note_on,25,0,0,,10,,,69,127
67342,note_off,17,0,0,,12,,,71,127
68861,note_off,1519,0,0,,10,,,69,127
68861,note_off,0,0,0,,10,,,45,127
73728,end_of_track,4867,1,0,,,,,,
