tick,type,time,meta,track,program,channel,pitch,tempo,note,velocity
0,copyright,0,1,0,,,,,,
0,program_change,0,0,0,6,0,,,,
0,pitchwheel,0,0,0,,0,0,,,
0,program_change,0,0,0,6,1,,,,
0,pitchwheel,0,0,0,,1,-590,,,
0,program_change,0,0,0,6,2,,,,
0,pitchwheel,0,0,0,,2,-272,,,
0,program_change,0,0,0,6,3,,,,
0,pitchwheel,0,0,0,,3,-353,,,
0,program_change,0,0,0,6,4,,,,
0,pitchwheel,0,0,0,,4,-560,,,
0,program_change,0,0,0,6,5,,,,
0,pitchwheel,0,0,0,,5,-80,,,
0,program_change,0,0,0,6,6,,,,
0,pitchwheel,0,0,0,,6,-625,,,
0,program_change,0,0,0,6,7,,,,
0,pitchwheel,0,0,0,,7,-130,,,
0,program_change,0,0,0,6,8,,,,
0,pitchwheel,0,0,0,,8,-512,,,
0,program_change,0,0,0,6,10,,,,
0,pitchwheel,0,0,0,,10,-464,,,
0,program_change,0,0,0,6,11,,,,
0,pitchwheel,0,0,0,,11,-208,,,
0,program_change,0,0,0,6,12,,,,
0,pitchwheel,0,0,0,,12,-553,,,
0,set_tempo,0,1,0,,,,500000,,
52,note_on,52,0,0,,2,,,62,127
252,note_off,200,0,0,,2,,,62,127
262,note_on,10,0,0,,2,,,62,127
470,note_off,208,0,0,,2,,,62,127
471,note_on,1,0,0,,1,,,61,127
679,note_off,208,0,0,,1,,,61,127
680,note_on,1,0,0,,2,,,62,127
888,note_off,208,0,0,,2,,,62,127
889,note_on,1,0,0,,4,,,64,127
1097,note_off,208,0,0,,4,,,64,127
1098,note_on,1,0,0,,6,,,66,127
1306,note_off,208,0,0,,6,,,66,127
1307,note_on,1,0,0,,4,,,64,127
1515,note_off,208,0,0,,4,,,64,127
1516,note_on,1,0,0,,2,,,62,127
1724,note_off,208,0,0,,2,,,62,127
1725,note_on,1,0,0,,6,,,66,127
1933,note_off,208,0,0,,6,,,66,127
1934,note_on,1,0,0,,4,,,64,127
2142,note_off,208,0,0,,4,,,64,127
2143,note_on,1,0,0,,2,,,62,127
2351,note_off,208,0,0,,2,,,62,127
2352,note_on,1,0,0,,1,,,61,127
2560,note_off,208,0,0,,1,,,61,127
2561,note_on,1,0,0,,12,,,59,127
2769,note_off,208,0,0,,12,,,59,127
2770,note_on,1,0,0,,10,,,57,127
3188,note_off,418,0,0,,10,,,57,127
3189,note_on,1,0,0,,2,,,62,127
3746,note_off,557,0,0,,2,,,62,127
3747,note_on,1,0,0,,1,,,61,127
3886,note_off,139,0,0,,1,,,61,127
3887,note_on,1,0,0,,12,,,59,127
4026,note_off,139,0,0,,12,,,59,127
4027,note_on,1,0,0,,1,,,61,127
4236,note_on,209,0,0,,10,,,69,127
4444,note_off,208,0,0,,10,,,69,127
4444,note_off,0,0,0,,1,,,61,127
4445,note_on,1,0,0,,10,,,69,127
4445,note_on,0,0,0,,2,,,62,127
4653,note_off,208,0,0,,10,,,69,127
4654,note_on,1,0,0,,6,,,66,127
4862,note_off,208,0,0,,6,,,66,127
4863,note_on,1,0,0,,7,,,67,127
5071,note_off,208,0,0,,7,,,67,127
5072,note_on,1,0,0,,10,,,69,127
5207,note_off,135,0,0,,2,,,62,127
5280,note_off,73,0,0,,10,,,69,127
5281,note_on,1,0,0,,12,,,71,127
5281,note_on,0,0,0,,7,,,55,127
5489,note_off,208,0,0,,12,,,71,127
5490,note_on,1,0,0,,10,,,69,127
5698,note_off,208,0,0,,10,,,69,127
5699,note_on,1,0,0,,7,,,67,127
5907,note_off,208,0,0,,7,,,67,127
5908,note_on,1,0,0,,12,,,71,127
6116,note_off,208,0,0,,12,,,71,127
6116,note_off,0,0,0,,7,,,55,127
6117,note_on,1,0,0,,10,,,69,127
6117,note_on,0,0,0,,10,,,57,127
6325,note_off,208,0,0,,10,,,69,127
6326,note_on,1,0,0,,7,,,67,127
6534,note_off,208,0,0,,7,,,67,127
6535,note_on,1,0,0,,6,,,66,127
6743,note_off,208,0,0,,6,,,66,127
6744,note_on,1,0,0,,4,,,64,127
6952,note_off,208,0,0,,4,,,64,127
6952,note_off,0,0,0,,10,,,57,127
6953,note_on,1,0,0,,2,,,62,127
6953,note_on,0,0,0,,2,,,50,127
7371,note_off,418,0,0,,2,,,50,127
7371,note_off,0,0,0,,2,,,62,127
7372,note_on,1,0,0,,10,,,69,127
7372,note_on,0,0,0,,6,,,66,127
7790,note_off,418,0,0,,6,,,66,127
7791,note_on,1,0,0,,4,,,64,127
7999,note_off,208,0,0,,4,,,64,127
7999,note_off,0,0,0,,10,,,69,127
8000,note_on,1,0,0,,8,,,68,127
8000,note_on,0,0,0,,2,,,62,127
8104,note_off,104,0,0,,8,,,68,127
8105,note_on,1,0,0,,6,,,66,127
8209,note_off,104,0,0,,6,,,66,127
8209,note_off,0,0,0,,2,,,62,127
8210,note_on,1,0,0,,8,,,68,127
8210,note_on,0,0,0,,4,,,64,127
8418,note_off,208,0,0,,4,,,64,127
8419,note_on,1,0,0,,12,,,59,127
8627,note_off,208,0,0,,12,,,59,127
8627,note_off,0,0,0,,8,,,68,127
8628,note_on,1,0,0,,10,,,69,127
8628,note_on,0,0,0,,1,,,61,127
8836,note_off,208,0,0,,1,,,61,127
8837,note_on,1,0,0,,10,,,57,127
9042,note_off,205,0,0,,10,,,69,127
9045,note_off,3,0,0,,10,,,57,127
9046,note_on,1,0,0,,12,,,59,127
9254,note_off,208,0,0,,12,,,59,127
9255,note_on,1,0,0,,2,,,74,127
9255,note_on,0,0,0,,7,,,55,127
9463,note_off,208,0,0,,7,,,55,127
9463,note_off,0,0,0,,2,,,74,127
9464,note_on,1,0,0,,2,,,74,127
9464,note_on,0,0,0,,10,,,57,127
9672,note_off,208,0,0,,2,,,74,127
9673,note_on,1,0,0,,1,,,73,127
9881,note_off,208,0,0,,1,,,73,127
9881,note_off,0,0,0,,10,,,57,127
9882,note_on,1,0,0,,2,,,74,127
9882,note_on,0,0,0,,10,,,45,127
10090,note_off,208,0,0,,2,,,74,127
10091,note_on,1,0,0,,4,,,76,127
10299,note_off,208,0,0,,4,,,76,127
10299,note_off,0,0,0,,10,,,45,127
10300,note_on,1,0,0,,6,,,78,127
10300,note_on,0,0,0,,2,,,50,127
10508,note_off,208,0,0,,6,,,78,127
10509,note_on,1,0,0,,4,,,76,127
10717,note_off,208,0,0,,4,,,76,127
10717,note_off,0,0,0,,2,,,50,127
10718,note_on,1,0,0,,2,,,74,127
10718,note_on,0,0,0,,6,,,54,127
10926,note_off,208,0,0,,2,,,74,127
10927,note_on,1,0,0,,6,,,78,127
11135,note_off,208,0,0,,6,,,78,127
11135,note_off,0,0,0,,6,,,54,127
11136,note_on,1,0,0,,4,,,76,127
11136,note_on,0,0,0,,7,,,55,127
11344,note_off,208,0,0,,4,,,76,127
11345,note_on,1,0,0,,2,,,74,127
11553,note_off,208,0,0,,2,,,74,127
11553,note_off,0,0,0,,7,,,55,127
11554,note_on,1,0,0,,1,,,73,127
11554,note_on,0,0,0,,10,,,57,127
11762,note_off,208,0,0,,10,,,57,127
11762,note_off,0,0,0,,1,,,73,127
11763,note_on,1,0,0,,12,,,71,127
11763,note_on,0,0,0,,7,,,55,127
11971,note_off,208,0,0,,7,,,55,127
11971,note_off,0,0,0,,12,,,71,127
11972,note_on,1,0,0,,10,,,69,127
11972,note_on,0,0,0,,6,,,54,127
12180,note_off,208,0,0,,6,,,54,127
12181,note_on,1,0,0,,4,,,52,127
12389,note_off,208,0,0,,4,,,52,127
12389,note_off,0,0,0,,10,,,69,127
12390,note_on,1,0,0,,2,,,74,127
12390,note_on,0,0,0,,6,,,54,127
12598,note_off,208,0,0,,6,,,54,127
12599,note_on,1,0,0,,2,,,50,127
12807,note_off,208,0,0,,2,,,50,127
12808,note_on,1,0,0,,4,,,52,127
13016,note_off,208,0,0,,4,,,52,127
13016,note_off,0,0,0,,2,,,74,127
13017,note_on,1,0,0,,1,,,73,127
13017,note_on,0,0,0,,2,,,50,127
13121,note_off,104,0,0,,1,,,73,127
13122,note_on,1,0,0,,12,,,71,127
13226,note_off,104,0,0,,12,,,71,127
13226,note_off,0,0,0,,2,,,50,127
13227,note_on,1,0,0,,1,,,73,127
13227,note_on,0,0,0,,4,,,52,127
13435,note_off,208,0,0,,4,,,52,127
13436,note_on,1,0,0,,10,,,45,127
13644,note_off,208,0,0,,10,,,45,127
13644,note_off,0,0,0,,1,,,73,127
13645,note_on,1,0,0,,2,,,74,127
13645,note_on,0,0,0,,2,,,50,127
14063,note_off,418,0,0,,2,,,74,127
14064,note_on,1,0,0,,6,,,78,127
14064,note_on,0,0,0,,2,,,74,127
14272,note_off,208,0,0,,2,,,50,127
14481,note_off,209,0,0,,2,,,74,127
14481,note_off,0,0,0,,6,,,78,127
14482,note_on,1,0,0,,4,,,76,127
14482,note_on,0,0,0,,10,,,69,127
14900,note_off,418,0,0,,4,,,76,127
14901,note_on,1,0,0,,10,,,81,127
14901,note_on,0,0,0,,1,,,73,127
15319,note_off,418,0,0,,1,,,73,127
15319,note_off,0,0,0,,10,,,81,127
15319,note_off,0,0,0,,10,,,69,127
15320,note_on,1,0,0,,12,,,71,127
15320,note_on,0,0,0,,4,,,64,127
15738,note_off,418,0,0,,12,,,71,127
15739,note_on,1,0,0,,7,,,79,127
15739,note_on,0,0,0,,4,,,76,127
16157,note_off,418,0,0,,4,,,76,127
16157,note_off,0,0,0,,7,,,79,127
16157,note_off,0,0,0,,4,,,64,127
16158,note_on,1,0,0,,6,,,78,127
16158,note_on,0,0,0,,12,,,71,127
16576,note_off,418,0,0,,6,,,78,127
16577,note_on,1,0,0,,12,,,83,127
16577,note_on,0,0,0,,2,,,74,127
16995,note_off,418,0,0,,2,,,74,127
16995,note_off,0,0,0,,12,,,83,127
16995,note_off,0,0,0,,12,,,71,127
16996,note_on,1,0,0,,1,,,73,127
16996,note_on,0,0,0,,6,,,66,127
17414,note_off,418,0,0,,1,,,73,127
17415,note_on,1,0,0,,10,,,81,127
17833,note_off,418,0,0,,10,,,81,127
17833,note_off,0,0,0,,6,,,66,127
17834,note_on,1,0,0,,12,,,71,127
17834,note_on,0,0,0,,7,,,67,127
18042,note_off,208,0,0,,12,,,71,127
18043,note_on,1,0,0,,7,,,79,127
18147,note_off,104,0,0,,7,,,79,127
18148,note_on,1,0,0,,6,,,78,127
18252,note_off,104,0,0,,6,,,78,127
18253,note_on,1,0,0,,4,,,76,127
18461,note_off,208,0,0,,4,,,76,127
18462,note_on,1,0,0,,2,,,74,127
18670,note_off,208,0,0,,2,,,74,127
18671,note_on,1,0,0,,1,,,73,127
18879,note_off,208,0,0,,7,,,67,127
18880,note_on,1,0,0,,4,,,64,127
19088,note_off,208,0,0,,4,,,64,127
19088,note_off,0,0,0,,1,,,73,127
19089,note_on,1,0,0,,2,,,74,127
19089,note_on,0,0,0,,6,,,66,127
19297,note_off,208,0,0,,6,,,66,127
19298,note_on,1,0,0,,2,,,62,127
19506,note_off,208,0,0,,2,,,62,127
19507,note_on,1,0,0,,8,,,68,127
19715,note_off,208,0,0,,8,,,68,127
19716,note_on,1,0,0,,4,,,64,127
19924,note_off,208,0,0,,4,,,64,127
19924,note_off,0,0,0,,2,,,74,127
19925,note_on,1,0,0,,1,,,73,127
19925,note_on,0,0,0,,10,,,69,127
20343,note_off,418,0,0,,1,,,73,127
20344,note_on,1,0,0,,12,,,71,127
20762,note_off,418,0,0,,10,,,69,127
20763,note_on,1,0,0,,8,,,68,127
21181,note_off,418,0,0,,8,,,68,127
21181,note_off,0,0,0,,12,,,71,127
21182,note_on,1,0,0,,10,,,69,127
21601,note_on,419,0,0,,1,,,73,127
21601,note_on,0,0,0,,10,,,57,127
21809,note_off,208,0,0,,10,,,69,127
22018,note_off,209,0,0,,10,,,57,127
22018,note_off,0,0,0,,1,,,73,127
22019,note_on,1,0,0,,12,,,71,127
22019,note_on,0,0,0,,4,,,52,127
22019,note_on,0,0,0,,4,,,64,127
22437,note_off,418,0,0,,12,,,71,127
22438,note_on,1,0,0,,4,,,76,127
22438,note_on,0,0,0,,7,,,67,127
22856,note_off,418,0,0,,7,,,67,127
22856,note_off,0,0,0,,4,,,76,127
22856,note_off,0,0,0,,4,,,64,127
22856,note_off,0,0,0,,4,,,52,127
22857,note_on,1,0,0,,6,,,66,127
22857,note_on,0,0,0,,12,,,59,127
22857,note_on,0,0,0,,12,,,47,127
23275,note_off,418,0,0,,6,,,66,127
23276,note_on,1,0,0,,2,,,74,127
23276,note_on,0,0,0,,12,,,71,127
23694,note_off,418,0,0,,12,,,71,127
23694,note_off,0,0,0,,2,,,74,127
23694,note_off,0,0,0,,12,,,47,127
23694,note_off,0,0,0,,12,,,59,127
23695,note_on,1,0,0,,1,,,73,127
23695,note_on,0,0,0,,6,,,66,127
23695,note_on,0,0,0,,6,,,54,127
24113,note_off,418,0,0,,1,,,73,127
24114,note_on,1,0,0,,10,,,69,127
24114,note_on,0,0,0,,6,,,78,127
24532,note_off,418,0,0,,6,,,78,127
24532,note_off,0,0,0,,10,,,69,127
24532,note_off,0,0,0,,6,,,54,127
24532,note_off,0,0,0,,6,,,66,127
24533,note_on,1,0,0,,12,,,71,127
24533,note_on,0,0,0,,7,,,67,127
24533,note_on,0,0,0,,7,,,55,127
24951,note_off,418,0,0,,12,,,71,127
24952,note_on,1,0,0,,4,,,76,127
25160,note_off,208,0,0,,4,,,76,127
25161,note_on,1,0,0,,2,,,74,127
25369,note_off,208,0,0,,2,,,74,127
25370,note_on,1,0,0,,10,,,69,127
25370,note_on,0,0,0,,1,,,73,127
25578,note_off,208,0,0,,7,,,55,127
25578,note_off,0,0,0,,7,,,67,127
25579,note_on,1,0,0,,4,,,64,127
25787,note_off,208,0,0,,4,,,64,127
25787,note_off,0,0,0,,1,,,73,127
25787,note_off,0,0,0,,10,,,69,127
25788,note_on,1,0,0,,2,,,74,127
25788,note_on,0,0,0,,6,,,66,127
25996,note_off,208,0,0,,6,,,66,127
25997,note_on,1,0,0,,2,,,62,127
26205,note_off,208,0,0,,2,,,62,127
26205,note_off,0,0,0,,2,,,74,127
26206,note_on,1,0,0,,7,,,67,127
26206,note_on,0,0,0,,4,,,64,127
26414,note_off,208,0,0,,4,,,64,127
26415,note_on,1,0,0,,2,,,62,127
26623,note_off,208,0,0,,2,,,62,127
26623,note_off,0,0,0,,7,,,67,127
26624,note_on,1,0,0,,1,,,73,127
26624,note_on,0,0,0,,4,,,64,127
26832,note_off,208,0,0,,4,,,64,127
26833,note_on,1,0,0,,10,,,57,127
27041,note_off,208,0,0,,10,,,57,127
27041,note_off,0,0,0,,1,,,73,127
27042,note_on,1,0,0,,2,,,74,127
27042,note_on,0,0,0,,6,,,66,127
27042,note_on,0,0,0,,2,,,62,127
27250,note_off,208,0,0,,6,,,66,127
27250,note_off,0,0,0,,2,,,74,127
27251,note_on,1,0,0,,1,,,73,127
27355,note_off,104,0,0,,1,,,73,127
27356,note_on,1,0,0,,12,,,71,127
27460,note_off,104,0,0,,12,,,71,127
27461,note_on,1,0,0,,10,,,69,127
27669,note_off,208,0,0,,2,,,62,127
27670,note_on,1,0,0,,2,,,50,127
27875,note_off,205,0,0,,10,,,69,127
27878,note_off,3,0,0,,2,,,50,127
27879,note_on,1,0,0,,2,,,50,127
28087,note_off,208,0,0,,2,,,50,127
28088,note_on,1,0,0,,1,,,49,127
28296,note_off,208,0,0,,1,,,49,127
28297,note_on,1,0,0,,2,,,50,127
28505,note_off,208,0,0,,2,,,50,127
28506,note_on,1,0,0,,2,,,74,127
28506,note_on,0,0,0,,4,,,52,127
28714,note_off,208,0,0,,4,,,52,127
28714,note_off,0,0,0,,2,,,74,127
28715,note_on,1,0,0,,2,,,74,127
28715,note_on,0,0,0,,6,,,54,127
28923,note_off,208,0,0,,6,,,54,127
28923,note_off,0,0,0,,2,,,74,127
28924,note_on,1,0,0,,1,,,73,127
28924,note_on,0,0,0,,4,,,52,127
29132,note_off,208,0,0,,4,,,52,127
29132,note_off,0,0,0,,1,,,73,127
29133,note_on,1,0,0,,2,,,74,127
29133,note_on,0,0,0,,2,,,50,127
29341,note_off,208,0,0,,2,,,50,127
29341,note_off,0,0,0,,2,,,74,127
29342,note_on,1,0,0,,10,,,69,127
29342,note_on,0,0,0,,6,,,54,127
29550,note_off,208,0,0,,6,,,54,127
29550,note_off,0,0,0,,10,,,69,127
29551,note_on,1,0,0,,7,,,67,127
29551,note_on,0,0,0,,4,,,52,127
29759,note_off,208,0,0,,4,,,52,127
29760,note_on,1,0,0,,2,,,50,127
29968,note_off,208,0,0,,2,,,50,127
29969,note_on,1,0,0,,1,,,49,127
30177,note_off,208,0,0,,1,,,49,127
30177,note_off,0,0,0,,7,,,67,127
30178,note_on,1,0,0,,4,,,76,127
30178,note_on,0,0,0,,12,,,47,127
30386,note_off,208,0,0,,12,,,47,127
30386,note_off,0,0,0,,4,,,76,127
30387,note_on,1,0,0,,4,,,76,127
30387,note_on,0,0,0,,10,,,45,127
30595,note_off,208,0,0,,4,,,76,127
30596,note_on,1,0,0,,2,,,74,127
30804,note_off,208,0,0,,2,,,74,127
30805,note_on,1,0,0,,4,,,76,127
31013,note_off,208,0,0,,4,,,76,127
31013,note_off,0,0,0,,10,,,45,127
31014,note_on,1,0,0,,7,,,67,127
31014,note_on,0,0,0,,12,,,47,127
31118,note_off,104,0,0,,12,,,47,127
31119,note_on,1,0,0,,1,,,49,127
31223,note_off,104,0,0,,1,,,49,127
31223,note_off,0,0,0,,7,,,67,127
31224,note_on,1,0,0,,6,,,66,127
31224,note_on,0,0,0,,2,,,50,127
31642,note_off,418,0,0,,2,,,50,127
31642,note_off,0,0,0,,6,,,66,127
31643,note_on,1,0,0,,6,,,78,127
31643,note_on,0,0,0,,2,,,74,127
32061,note_off,418,0,0,,2,,,74,127
32061,note_off,0,0,0,,6,,,78,127
32062,note_on,1,0,0,,2,,,74,127
32062,note_on,0,0,0,,4,,,76,127
32062,note_on,0,0,0,,10,,,69,127
32480,note_off,418,0,0,,4,,,76,127
32480,note_off,0,0,0,,2,,,74,127
32481,note_on,1,0,0,,0,,,72,127
32900,note_on,419,0,0,,6,,,78,127
33108,note_off,208,0,0,,0,,,72,127
33317,note_off,209,0,0,,6,,,78,127
33317,note_off,0,0,0,,10,,,69,127
33318,note_on,1,0,0,,7,,,79,127
33318,note_on,0,0,0,,12,,,71,127
33318,note_on,0,0,0,,7,,,67,127
33736,note_off,418,0,0,,7,,,67,127
33736,note_off,0,0,0,,12,,,71,127
33736,note_off,0,0,0,,7,,,79,127
33737,note_on,1,0,0,,1,,,73,127
33737,note_on,0,0,0,,10,,,69,127
33876,note_off,139,0,0,,1,,,73,127
33877,note_on,1,0,0,,6,,,78,127
34016,note_off,139,0,0,,6,,,78,127
34017,note_on,1,0,0,,4,,,76,127
34156,note_off,139,0,0,,4,,,76,127
34156,note_off,0,0,0,,10,,,69,127
34157,note_on,1,0,0,,6,,,78,127
34157,note_on,0,0,0,,2,,,74,127
34157,note_on,0,0,0,,2,,,62,127
34296,note_off,139,0,0,,2,,,74,127
34296,note_off,0,0,0,,6,,,78,127
34297,note_on,1,0,0,,4,,,76,127
34436,note_off,139,0,0,,4,,,76,127
34437,note_on,1,0,0,,2,,,74,127
34576,note_off,139,0,0,,2,,,74,127
34576,note_off,0,0,0,,2,,,62,127
34577,note_on,1,0,0,,4,,,76,127
34577,note_on,0,0,0,,10,,,57,127
34716,note_off,139,0,0,,4,,,76,127
34717,note_on,1,0,0,,6,,,78,127
34856,note_off,139,0,0,,6,,,78,127
34857,note_on,1,0,0,,7,,,79,127
34996,note_off,139,0,0,,7,,,79,127
34996,note_off,0,0,0,,10,,,57,127
34997,note_on,1,0,0,,10,,,81,127
35206,note_on,209,0,0,,10,,,69,127
35411,note_off,205,0,0,,10,,,81,127
35413,note_off,2,0,0,,10,,,69,127
35415,note_on,2,0,0,,10,,,69,127
35622,note_off,207,0,0,,10,,,69,127
35624,note_on,2,0,0,,6,,,66,127
35832,note_off,208,0,0,,6,,,66,127
35833,note_on,1,0,0,,7,,,67,127
36041,note_off,208,0,0,,7,,,67,127
36042,note_on,1,0,0,,10,,,69,127
36250,note_off,208,0,0,,10,,,69,127
36251,note_on,1,0,0,,12,,,71,127
36459,note_off,208,0,0,,12,,,71,127
36460,note_on,1,0,0,,10,,,69,127
36668,note_off,208,0,0,,10,,,69,127
36669,note_on,1,0,0,,2,,,74,127
36669,note_on,0,0,0,,7,,,67,127
36877,note_off,208,0,0,,7,,,67,127
36878,note_on,1,0,0,,12,,,71,127
37086,note_off,208,0,0,,12,,,71,127
37086,note_off,0,0,0,,2,,,74,127
37087,note_on,1,0,0,,2,,,74,127
37087,note_on,0,0,0,,10,,,69,127
37295,note_off,208,0,0,,10,,,69,127
37295,note_off,0,0,0,,2,,,74,127
37296,note_on,1,0,0,,1,,,73,127
37296,note_on,0,0,0,,7,,,67,127
37504,note_off,208,0,0,,7,,,67,127
37504,note_off,0,0,0,,1,,,73,127
37505,note_on,1,0,0,,2,,,74,127
37505,note_on,0,0,0,,6,,,66,127
37713,note_off,208,0,0,,6,,,66,127
37713,note_off,0,0,0,,2,,,74,127
37714,note_on,1,0,0,,4,,,76,127
37714,note_on,0,0,0,,4,,,64,127
37922,note_off,208,0,0,,4,,,64,127
37922,note_off,0,0,0,,4,,,76,127
37923,note_on,1,0,0,,6,,,78,127
37923,note_on,0,0,0,,2,,,62,127
38131,note_off,208,0,0,,6,,,78,127
38132,note_on,1,0,0,,4,,,76,127
38340,note_off,208,0,0,,4,,,76,127
38341,note_on,1,0,0,,2,,,74,127
38549,note_off,208,0,0,,2,,,74,127
38549,note_off,0,0,0,,2,,,62,127
38550,note_on,1,0,0,,6,,,78,127
38550,note_on,0,0,0,,4,,,64,127
38654,note_off,104,0,0,,4,,,64,127
38655,note_on,1,0,0,,6,,,66,127
38759,note_off,104,0,0,,6,,,66,127
38759,note_off,0,0,0,,6,,,78,127
38760,note_on,1,0,0,,4,,,76,127
38760,note_on,0,0,0,,7,,,67,127
38968,note_off,208,0,0,,7,,,67,127
38968,note_off,0,0,0,,4,,,76,127
38969,note_on,1,0,0,,2,,,74,127
38969,note_on,0,0,0,,12,,,71,127
39177,note_off,208,0,0,,12,,,71,127
39177,note_off,0,0,0,,2,,,74,127
39178,note_on,1,0,0,,1,,,73,127
39178,note_on,0,0,0,,10,,,69,127
39386,note_off,208,0,0,,10,,,69,127
39386,note_off,0,0,0,,1,,,73,127
39387,note_on,1,0,0,,12,,,71,127
39387,note_on,0,0,0,,7,,,67,127
39595,note_off,208,0,0,,7,,,67,127
39595,note_off,0,0,0,,12,,,71,127
39596,note_on,1,0,0,,10,,,69,127
39596,note_on,0,0,0,,6,,,66,127
39804,note_off,208,0,0,,6,,,66,127
39805,note_on,1,0,0,,4,,,64,127
40013,note_off,208,0,0,,4,,,64,127
40013,note_off,0,0,0,,10,,,69,127
40014,note_on,1,0,0,,2,,,74,127
40014,note_on,0,0,0,,6,,,66,127
40222,note_off,208,0,0,,6,,,66,127
40223,note_on,1,0,0,,2,,,62,127
40431,note_off,208,0,0,,2,,,62,127
40431,note_off,0,0,0,,2,,,74,127
40432,note_on,1,0,0,,7,,,67,127
40432,note_on,0,0,0,,4,,,64,127
40640,note_off,208,0,0,,4,,,64,127
40641,note_on,1,0,0,,2,,,62,127
40849,note_off,208,0,0,,2,,,62,127
40850,note_on,1,0,0,,4,,,64,127
41058,note_off,208,0,0,,4,,,64,127
41059,note_on,1,0,0,,10,,,57,127
41267,note_off,208,0,0,,10,,,57,127
41267,note_off,0,0,0,,7,,,67,127
41268,note_on,1,0,0,,6,,,66,127
41268,note_on,0,0,0,,2,,,62,127
41686,note_off,418,0,0,,2,,,62,127
41686,note_off,0,0,0,,6,,,66,127
41687,note_on,1,0,0,,10,,,81,127
41687,note_on,0,0,0,,6,,,66,127
41895,note_off,208,0,0,,10,,,81,127
41896,note_on,1,0,0,,2,,,74,127
42104,note_off,208,0,0,,2,,,74,127
42104,note_off,0,0,0,,6,,,66,127
42105,note_on,1,0,0,,1,,,73,127
42105,note_on,0,0,0,,4,,,64,127
42313,note_off,208,0,0,,4,,,64,127
42314,note_on,1,0,0,,7,,,67,127
42522,note_off,208,0,0,,7,,,67,127
42522,note_off,0,0,0,,1,,,73,127
42523,note_on,1,0,0,,4,,,76,127
42523,note_on,0,0,0,,6,,,66,127
42627,note_off,104,0,0,,4,,,76,127
42628,note_on,1,0,0,,2,,,74,127
42732,note_off,104,0,0,,2,,,74,127
42732,note_off,0,0,0,,6,,,66,127
42733,note_on,1,0,0,,1,,,73,127
42733,note_on,0,0,0,,4,,,64,127
42837,note_off,104,0,0,,4,,,64,127
42837,note_off,0,0,0,,1,,,73,127
42838,note_on,1,0,0,,2,,,74,127
42838,note_on,0,0,0,,2,,,62,127
42942,note_off,104,0,0,,2,,,62,127
42942,note_off,0,0,0,,2,,,74,127
42943,note_on,1,0,0,,4,,,76,127
42943,note_on,0,0,0,,10,,,57,127
43361,note_off,418,0,0,,10,,,57,127
43361,note_off,0,0,0,,4,,,76,127
43362,note_on,1,0,0,,10,,,81,127
43362,note_on,0,0,0,,6,,,54,127
43570,note_off,208,0,0,,10,,,81,127
43571,note_on,1,0,0,,2,,,74,127
43779,note_off,208,0,0,,2,,,74,127
43779,note_off,0,0,0,,6,,,54,127
43780,note_on,1,0,0,,1,,,73,127
43780,note_on,0,0,0,,4,,,52,127
43988,note_off,208,0,0,,4,,,52,127
43988,note_off,0,0,0,,1,,,73,127
43989,note_on,1,0,0,,4,,,76,127
43989,note_on,0,0,0,,7,,,55,127
44093,note_off,104,0,0,,4,,,76,127
44094,note_on,1,0,0,,2,,,74,127
44198,note_off,104,0,0,,2,,,74,127
44198,note_off,0,0,0,,7,,,55,127
44199,note_on,1,0,0,,4,,,76,127
44199,note_on,0,0,0,,6,,,54,127
44303,note_off,104,0,0,,4,,,76,127
44304,note_on,1,0,0,,2,,,74,127
44408,note_off,104,0,0,,2,,,74,127
44408,note_off,0,0,0,,6,,,54,127
44409,note_on,1,0,0,,1,,,73,127
44409,note_on,0,0,0,,4,,,52,127
44513,note_off,104,0,0,,4,,,52,127
44513,note_off,0,0,0,,1,,,73,127
44514,note_on,1,0,0,,2,,,74,127
44514,note_on,0,0,0,,2,,,50,127
44618,note_off,104,0,0,,2,,,50,127
44618,note_off,0,0,0,,2,,,74,127
44619,note_on,1,0,0,,4,,,76,127
44619,note_on,0,0,0,,10,,,45,127
44990,note_off,371,0,0,,10,,,45,127
45037,note_off,47,0,0,,4,,,76,127
45038,note_on,1,0,0,,12,,,83,127
45038,note_on,0,0,0,,7,,,67,127
45246,note_off,208,0,0,,12,,,83,127
45247,note_on,1,0,0,,4,,,76,127
45455,note_off,208,0,0,,4,,,76,127
45455,note_off,0,0,0,,7,,,67,127
45456,note_on,1,0,0,,3,,,75,127
45456,note_on,0,0,0,,6,,,66,127
45664,note_off,208,0,0,,6,,,66,127
45665,note_on,1,0,0,,10,,,69,127
45873,note_off,208,0,0,,10,,,69,127
45873,note_off,0,0,0,,3,,,75,127
45874,note_on,1,0,0,,6,,,78,127
45874,note_on,0,0,0,,7,,,67,127
45978,note_off,104,0,0,,6,,,78,127
45979,note_on,1,0,0,,4,,,76,127
46083,note_off,104,0,0,,4,,,76,127
46083,note_off,0,0,0,,7,,,67,127
46084,note_on,1,0,0,,3,,,75,127
46084,note_on,0,0,0,,6,,,66,127
46188,note_off,104,0,0,,6,,,66,127
46188,note_off,0,0,0,,3,,,75,127
46189,note_on,1,0,0,,4,,,76,127
46189,note_on,0,0,0,,4,,,64,127
46293,note_off,104,0,0,,4,,,64,127
46293,note_off,0,0,0,,4,,,76,127
46294,note_on,1,0,0,,6,,,78,127
46294,note_on,0,0,0,,12,,,59,127
46712,note_off,418,0,0,,12,,,59,127
46712,note_off,0,0,0,,6,,,78,127
46713,note_on,1,0,0,,12,,,83,127
46713,note_on,0,0,0,,7,,,55,127
46921,note_off,208,0,0,,12,,,83,127
46922,note_on,1,0,0,,4,,,76,127
47130,note_off,208,0,0,,4,,,76,127
47130,note_off,0,0,0,,7,,,55,127
47131,note_on,1,0,0,,3,,,75,127
47131,note_on,0,0,0,,6,,,54,127
47339,note_off,208,0,0,,6,,,54,127
47339,note_off,0,0,0,,3,,,75,127
47340,note_on,1,0,0,,4,,,76,127
47340,note_on,0,0,0,,10,,,57,127
47548,note_off,208,0,0,,10,,,57,127
47548,note_off,0,0,0,,4,,,76,127
47549,note_on,1,0,0,,6,,,78,127
47549,note_on,0,0,0,,7,,,55,127
47653,note_off,104,0,0,,6,,,78,127
47654,note_on,1,0,0,,4,,,76,127
47758,note_off,104,0,0,,4,,,76,127
47758,note_off,0,0,0,,7,,,55,127
47759,note_on,1,0,0,,3,,,75,127
47759,note_on,0,0,0,,6,,,54,127
47863,note_off,104,0,0,,6,,,54,127
47863,note_off,0,0,0,,3,,,75,127
47864,note_on,1,0,0,,4,,,76,127
47864,note_on,0,0,0,,4,,,52,127
47968,note_off,104,0,0,,4,,,52,127
47968,note_off,0,0,0,,4,,,76,127
47969,note_on,1,0,0,,3,,,75,127
47969,note_on,0,0,0,,12,,,47,127
48020,note_off,51,0,0,,3,,,75,127
48021,note_on,1,0,0,,4,,,76,127
48072,note_off,51,0,0,,4,,,76,127
48073,note_on,1,0,0,,6,,,78,127
48386,note_off,313,0,0,,6,,,78,127
48386,note_off,0,0,0,,12,,,47,127
48387,note_on,1,0,0,,6,,,78,127
48387,note_on,0,0,0,,6,,,66,127
48438,note_off,51,0,0,,6,,,78,127
48439,note_on,1,0,0,,7,,,79,127
48490,note_off,51,0,0,,7,,,79,127
48491,note_on,1,0,0,,10,,,81,127
48804,note_off,313,0,0,,10,,,81,127
48804,note_off,0,0,0,,6,,,66,127
48805,note_on,1,0,0,,7,,,79,127
48805,note_on,0,0,0,,4,,,64,127
49013,note_off,208,0,0,,7,,,79,127
49014,note_on,1,0,0,,4,,,76,127
49222,note_off,208,0,0,,4,,,76,127
49222,note_off,0,0,0,,4,,,64,127
49223,note_on,1,0,0,,3,,,75,127
49223,note_on,0,0,0,,6,,,66,127
49431,note_off,208,0,0,,3,,,75,127
49432,note_on,1,0,0,,6,,,78,127
49640,note_off,208,0,0,,6,,,78,127
49640,note_off,0,0,0,,6,,,66,127
49641,note_on,1,0,0,,4,,,76,127
49641,note_on,0,0,0,,7,,,67,127
50059,note_off,418,0,0,,7,,,67,127
50059,note_off,0,0,0,,4,,,76,127
50060,note_on,1,0,0,,6,,,78,127
50060,note_on,0,0,0,,3,,,63,127
50060,note_on,0,0,0,,3,,,51,127
50111,note_off,51,0,0,,6,,,78,127
50112,note_on,1,0,0,,7,,,79,127
50163,note_off,51,0,0,,7,,,79,127
50164,note_on,1,0,0,,10,,,81,127
50477,note_off,313,0,0,,10,,,81,127
50477,note_off,0,0,0,,3,,,51,127
50477,note_off,0,0,0,,3,,,63,127
50478,note_on,1,0,0,,7,,,79,127
50478,note_on,0,0,0,,4,,,64,127
50478,note_on,0,0,0,,4,,,52,127
50686,note_off,208,0,0,,7,,,79,127
50687,note_on,1,0,0,,4,,,76,127
50895,note_off,208,0,0,,4,,,76,127
50895,note_off,0,0,0,,4,,,52,127
50895,note_off,0,0,0,,4,,,64,127
50896,note_on,1,0,0,,3,,,75,127
50896,note_on,0,0,0,,6,,,54,127
50896,note_on,0,0,0,,6,,,66,127
51104,note_off,208,0,0,,3,,,75,127
51105,note_on,1,0,0,,6,,,78,127
51313,note_off,208,0,0,,6,,,78,127
51313,note_off,0,0,0,,6,,,66,127
51313,note_off,0,0,0,,6,,,54,127
51314,note_on,1,0,0,,4,,,76,127
51314,note_on,0,0,0,,7,,,67,127
51314,note_on,0,0,0,,7,,,55,127
51732,note_off,418,0,0,,4,,,76,127
51733,note_on,1,0,0,,12,,,83,127
52151,note_off,418,0,0,,7,,,55,127
52151,note_off,0,0,0,,7,,,67,127
52152,note_on,1,0,0,,7,,,67,127
52256,note_off,104,0,0,,12,,,83,127
52257,note_on,1,0,0,,10,,,81,127
52361,note_off,104,0,0,,10,,,81,127
52362,note_on,1,0,0,,7,,,79,127
52466,note_off,104,0,0,,7,,,79,127
52467,note_on,1,0,0,,6,,,78,127
52571,note_off,104,0,0,,6,,,78,127
52572,note_on,1,0,0,,4,,,76,127
52780,note_off,208,0,0,,4,,,76,127
52781,note_on,1,0,0,,2,,,74,127
52989,note_off,208,0,0,,2,,,74,127
52990,note_on,1,0,0,,1,,,73,127
53198,note_off,208,0,0,,1,,,73,127
53199,note_on,1,0,0,,10,,,69,127
53407,note_off,208,0,0,,10,,,69,127
53407,note_off,0,0,0,,7,,,67,127
53408,note_on,1,0,0,,10,,,81,127
53408,note_on,0,0,0,,6,,,66,127
53616,note_off,208,0,0,,10,,,81,127
53617,note_on,1,0,0,,6,,,78,127
53825,note_off,208,0,0,,6,,,78,127
53825,note_off,0,0,0,,6,,,66,127
53826,note_on,1,0,0,,7,,,79,127
53826,note_on,0,0,0,,4,,,64,127
54034,note_off,208,0,0,,7,,,79,127
54035,note_on,1,0,0,,4,,,76,127
54243,note_off,208,0,0,,4,,,76,127
54243,note_off,0,0,0,,4,,,64,127
54244,note_on,1,0,0,,6,,,78,127
54244,note_on,0,0,0,,2,,,62,127
54452,note_off,208,0,0,,6,,,78,127
54453,note_on,1,0,0,,4,,,76,127
54557,note_off,104,0,0,,4,,,76,127
54558,note_on,1,0,0,,2,,,74,127
54662,note_off,104,0,0,,2,,,74,127
54662,note_off,0,0,0,,2,,,62,127
54663,note_on,1,0,0,,4,,,76,127
54663,note_on,0,0,0,,10,,,57,127
55081,note_off,418,0,0,,10,,,57,127
55081,note_off,0,0,0,,4,,,76,127
55082,note_on,1,0,0,,10,,,81,127
55082,note_on,0,0,0,,6,,,66,127
55082,note_on,0,0,0,,6,,,54,127
55290,note_off,208,0,0,,10,,,81,127
55291,note_on,1,0,0,,6,,,78,127
55499,note_off,208,0,0,,6,,,78,127
55499,note_off,0,0,0,,6,,,54,127
55499,note_off,0,0,0,,6,,,66,127
55500,note_on,1,0,0,,7,,,79,127
55500,note_on,0,0,0,,4,,,64,127
55500,note_on,0,0,0,,4,,,52,127
55708,note_off,208,0,0,,7,,,79,127
55709,note_on,1,0,0,,4,,,76,127
55917,note_off,208,0,0,,4,,,76,127
55917,note_off,0,0,0,,4,,,52,127
55917,note_off,0,0,0,,4,,,64,127
55918,note_on,1,0,0,,6,,,78,127
55918,note_on,0,0,0,,2,,,62,127
55918,note_on,0,0,0,,2,,,50,127
56126,note_off,208,0,0,,6,,,78,127
56127,note_on,1,0,0,,4,,,76,127
56231,note_off,104,0,0,,4,,,76,127
56232,note_on,1,0,0,,2,,,74,127
56336,note_off,104,0,0,,2,,,74,127
56336,note_off,0,0,0,,2,,,50,127
56336,note_off,0,0,0,,2,,,62,127
56337,note_on,1,0,0,,4,,,76,127
56337,note_on,0,0,0,,10,,,57,127
56337,note_on,0,0,0,,10,,,45,127
56752,note_off,415,0,0,,10,,,45,127
56755,note_off,3,0,0,,4,,,76,127
56756,note_on,1,0,0,,4,,,76,127
56964,note_off,208,0,0,,10,,,57,127
57175,note_on,211,0,0,,7,,,67,127
57383,note_off,208,0,0,,4,,,76,127
57384,note_on,1,0,0,,7,,,79,127
57488,note_off,104,0,0,,7,,,79,127
57489,note_on,1,0,0,,6,,,78,127
57593,note_off,104,0,0,,6,,,78,127
57594,note_on,1,0,0,,4,,,76,127
57802,note_off,208,0,0,,4,,,76,127
57803,note_on,1,0,0,,3,,,75,127
58011,note_off,208,0,0,,3,,,75,127
58012,note_on,1,0,0,,4,,,76,127
58220,note_off,208,0,0,,4,,,76,127
58221,note_on,1,0,0,,12,,,71,127
58429,note_off,208,0,0,,12,,,71,127
58430,note_on,1,0,0,,1,,,73,127
58638,note_off,208,0,0,,1,,,73,127
58639,note_on,1,0,0,,2,,,74,127
58847,note_off,208,0,0,,2,,,74,127
58847,note_off,0,0,0,,7,,,67,127
58848,note_on,1,0,0,,4,,,76,127
58848,note_on,0,0,0,,6,,,66,127
59056,note_off,208,0,0,,4,,,76,127
59057,note_on,1,0,0,,2,,,74,127
59161,note_off,104,0,0,,2,,,74,127
59162,note_on,1,0,0,,1,,,73,127
59266,note_off,104,0,0,,1,,,73,127
59267,note_on,1,0,0,,12,,,71,127
59475,note_off,208,0,0,,12,,,71,127
59476,note_on,1,0,0,,11,,,70,127
59684,note_off,208,0,0,,11,,,70,127
59684,note_off,0,0,0,,6,,,66,127
59685,note_on,1,0,0,,12,,,71,127
59685,note_on,0,0,0,,7,,,67,127
60103,note_off,418,0,0,,12,,,71,127
60104,note_on,1,0,0,,4,,,76,127
60522,note_off,418,0,0,,7,,,67,127
60523,note_on,1,0,0,,7,,,67,127
60523,note_on,0,0,0,,7,,,55,127
60731,note_off,208,0,0,,4,,,76,127
60732,note_on,1,0,0,,7,,,79,127
60836,note_off,104,0,0,,7,,,79,127
60837,note_on,1,0,0,,6,,,78,127
60941,note_off,104,0,0,,6,,,78,127
60942,note_on,1,0,0,,4,,,76,127
61150,note_off,208,0,0,,4,,,76,127
61151,note_on,1,0,0,,3,,,75,127
61359,note_off,208,0,0,,3,,,75,127
61360,note_on,1,0,0,,4,,,76,127
61568,note_off,208,0,0,,4,,,76,127
61569,note_on,1,0,0,,12,,,71,127
61777,note_off,208,0,0,,12,,,71,127
61778,note_on,1,0,0,,1,,,73,127
61986,note_off,208,0,0,,1,,,73,127
61987,note_on,1,0,0,,2,,,74,127
62195,note_off,208,0,0,,2,,,74,127
62195,note_off,0,0,0,,7,,,55,127
62195,note_off,0,0,0,,7,,,67,127
62196,note_on,1,0,0,,4,,,76,127
62196,note_on,0,0,0,,6,,,66,127
62196,note_on,0,0,0,,6,,,54,127
62404,note_off,208,0,0,,4,,,76,127
62405,note_on,1,0,0,,2,,,74,127
62509,note_off,104,0,0,,2,,,74,127
62510,note_on,1,0,0,,1,,,73,127
62614,note_off,104,0,0,,1,,,73,127
62615,note_on,1,0,0,,12,,,71,127
62823,note_off,208,0,0,,12,,,71,127
62824,note_on,1,0,0,,11,,,70,127
63032,note_off,208,0,0,,11,,,70,127
63032,note_off,0,0,0,,6,,,54,127
63032,note_off,0,0,0,,6,,,66,127
63033,note_on,1,0,0,,12,,,71,127
63033,note_on,0,0,0,,7,,,67,127
63033,note_on,0,0,0,,7,,,55,127
63451,note_off,418,0,0,,12,,,71,127
63452,note_on,1,0,0,,12,,,83,127
63660,note_off,208,0,0,,7,,,55,127
63869,note_off,209,0,0,,7,,,67,127
63870,note_on,1,0,0,,7,,,67,127
63974,note_off,104,0,0,,12,,,83,127
63975,note_on,1,0,0,,10,,,81,127
64079,note_off,104,0,0,,10,,,81,127
64080,note_on,1,0,0,,7,,,79,127
64184,note_off,104,0,0,,7,,,79,127
64185,note_on,1,0,0,,6,,,78,127
64289,note_off,104,0,0,,6,,,78,127
64290,note_on,1,0,0,,4,,,76,127
64498,note_off,208,0,0,,4,,,76,127
64499,note_on,1,0,0,,2,,,74,127
64707,note_off,208,0,0,,2,,,74,127
64708,note_on,1,0,0,,1,,,73,127
64916,note_off,208,0,0,,1,,,73,127
64917,note_on,1,0,0,,10,,,69,127
65125,note_off,208,0,0,,10,,,69,127
65125,note_off,0,0,0,,7,,,67,127
65126,note_on,1,0,0,,10,,,81,127
65126,note_on,0,0,0,,6,,,66,127
65334,note_off,208,0,0,,10,,,81,127
65335,note_on,1,0,0,,6,,,78,127
65543,note_off,208,0,0,,6,,,78,127
65543,note_off,0,0,0,,6,,,66,127
65544,note_on,1,0,0,,7,,,79,127
65544,note_on,0,0,0,,4,,,64,127
65752,note_off,208,0,0,,7,,,79,127
65753,note_on,1,0,0,,4,,,76,127
65961,note_off,208,0,0,,4,,,76,127
65961,note_off,0,0,0,,4,,,64,127
65962,note_on,1,0,0,,6,,,78,127
65962,note_on,0,0,0,,2,,,62,127
66170,note_off,208,0,0,,6,,,78,127
66171,note_on,1,0,0,,4,,,76,127
66275,note_off,104,0,0,,4,,,76,127
66276,note_on,1,0,0,,2,,,74,127
66380,note_off,104,0,0,,2,,,74,127
66380,note_off,0,0,0,,2,,,62,127
66381,note_on,1,0,0,,4,,,76,127
66381,note_on,0,0,0,,10,,,69,127
66589,note_off,208,0,0,,4,,,76,127
66590,note_on,1,0,0,,6,,,78,127
66694,note_off,104,0,0,,6,,,78,127
66695,note_on,1,0,0,,7,,,79,127
66799,note_off,104,0,0,,7,,,79,127
66799,note_off,0,0,0,,10,,,69,127
66800,note_on,1,0,0,,10,,,81,127
66800,note_on,0,0,0,,6,,,66,127
67008,note_off,208,0,0,,10,,,81,127
67009,note_on,1,0,0,,2,,,74,127
67217,note_off,208,0,0,,2,,,74,127
67217,note_off,0,0,0,,6,,,66,127
67218,note_on,1,0,0,,1,,,73,127
67218,note_on,0,0,0,,4,,,64,127
67426,note_off,208,0,0,,4,,,64,127
67427,note_on,1,0,0,,7,,,67,127
67635,note_off,208,0,0,,7,,,67,127
67635,note_off,0,0,0,,1,,,73,127
67636,note_on,1,0,0,,2,,,74,127
67636,note_on,0,0,0,,6,,,66,127
67844,note_off,208,0,0,,6,,,66,127
67845,note_on,1,0,0,,4,,,64,127
67949,note_off,104,0,0,,4,,,64,127
67950,note_on,1,0,0,,2,,,62,127
68054,note_off,104,0,0,,2,,,62,127
68054,note_off,0,0,0,,2,,,74,127
68055,note_on,1,0,0,,4,,,76,127
68055,note_on,0,0,0,,10,,,57,127
68263,note_off,208,0,0,,4,,,76,127
68264,note_on,1,0,0,,6,,,78,127
68368,note_off,104,0,0,,6,,,78,127
68369,note_on,1,0,0,,7,,,79,127
68473,note_off,104,0,0,,7,,,79,127
68474,note_on,1,0,0,,10,,,81,127
68682,note_off,208,0,0,,10,,,57,127
68683,note_on,1,0,0,,10,,,57,127
68891,note_off,208,0,0,,10,,,57,127
68892,note_on,1,0,0,,10,,,57,127
69100,note_off,208,0,0,,10,,,57,127
69101,note_on,1,0,0,,6,,,54,127
69309,note_off,208,0,0,,6,,,54,127
69310,note_on,1,0,0,,7,,,55,127
69518,note_off,208,0,0,,7,,,55,127
69518,note_off,0,0,0,,10,,,81,127
69519,note_on,1,0,0,,2,,,74,127
69519,note_on,0,0,0,,10,,,57,127
69727,note_off,208,0,0,,10,,,57,127
69727,note_off,0,0,0,,2,,,74,127
69728,note_on,1,0,0,,2,,,74,127
69728,note_on,0,0,0,,12,,,59,127
69936,note_off,208,0,0,,12,,,59,127
69936,note_off,0,0,0,,2,,,74,127
69937,note_on,1,0,0,,12,,,71,127
69937,note_on,0,0,0,,10,,,57,127
70145,note_off,208,0,0,,10,,,57,127
70145,note_off,0,0,0,,12,,,71,127
70146,note_on,1,0,0,,1,,,73,127
70146,note_on,0,0,0,,7,,,55,127
70354,note_off,208,0,0,,7,,,55,127
70354,note_off,0,0,0,,1,,,73,127
70355,note_on,1,0,0,,2,,,74,127
70355,note_on,0,0,0,,12,,,59,127
70563,note_off,208,0,0,,12,,,59,127
70563,note_off,0,0,0,,2,,,74,127
70564,note_on,1,0,0,,4,,,76,127
70564,note_on,0,0,0,,10,,,57,127
70772,note_off,208,0,0,,10,,,57,127
70772,note_off,0,0,0,,4,,,76,127
70773,note_on,1,0,0,,1,,,73,127
70773,note_on,0,0,0,,7,,,55,127
70981,note_off,208,0,0,,7,,,55,127
70981,note_off,0,0,0,,1,,,73,127
70982,note_on,1,0,0,,2,,,74,127
70982,note_on,0,0,0,,6,,,54,127
71190,note_off,208,0,0,,6,,,54,127
71190,note_off,0,0,0,,2,,,74,127
71191,note_on,1,0,0,,4,,,76,127
71191,note_on,0,0,0,,4,,,52,127
71399,note_off,208,0,0,,4,,,52,127
71399,note_off,0,0,0,,4,,,76,127
71400,note_on,1,0,0,,6,,,78,127
71400,note_on,0,0,0,,2,,,50,127
71818,note_off,418,0,0,,6,,,78,127
71819,note_on,1,0,0,,2,,,74,127
71819,note_on,0,0,0,,6,,,66,127
72237,note_off,418,0,0,,6,,,66,127
72237,note_off,0,0,0,,2,,,74,127
72237,note_off,0,0,0,,2,,,50,127
72238,note_on,1,0,0,,4,,,64,127
72238,note_on,0,0,0,,10,,,57,127
72656,note_off,418,0,0,,4,,,64,127
72657,note_on,1,0,0,,1,,,73,127
72657,note_on,0,0,0,,10,,,69,127
73075,note_off,418,0,0,,10,,,69,127
73075,note_off,0,0,0,,1,,,73,127
73075,note_off,0,0,0,,10,,,57,127
73076,note_on,1,0,0,,12,,,71,127
73076,note_on,0,0,0,,4,,,52,127
73494,note_off,418,0,0,,12,,,71,127
73495,note_on,1,0,0,,7,,,67,127
73495,note_on,0,0,0,,4,,,76,127
73913,note_off,418,0,0,,4,,,76,127
73913,note_off,0,0,0,,7,,,67,127
73913,note_off,0,0,0,,4,,,52,127
73914,note_on,1,0,0,,6,,,66,127
73914,note_on,0,0,0,,12,,,59,127
74332,note_off,418,0,0,,6,,,66,127
74333,note_on,1,0,0,,12,,,71,127
74333,note_on,0,0,0,,2,,,74,127
74751,note_off,418,0,0,,2,,,74,127
74751,note_off,0,0,0,,12,,,71,127
74751,note_off,0,0,0,,12,,,59,127
74752,note_on,1,0,0,,1,,,73,127
74752,note_on,0,0,0,,6,,,54,127
75170,note_off,418,0,0,,1,,,73,127
75171,note_on,1,0,0,,6,,,78,127
75171,note_on,0,0,0,,10,,,69,127
75589,note_off,418,0,0,,6,,,54,127
75590,note_on,1,0,0,,7,,,55,127
75798,note_off,208,0,0,,10,,,69,127
75798,note_off,0,0,0,,6,,,78,127
75799,note_on,1,0,0,,4,,,76,127
76007,note_off,208,0,0,,4,,,76,127
76008,note_on,1,0,0,,7,,,67,127
76008,note_on,0,0,0,,4,,,76,127
76216,note_off,208,0,0,,4,,,76,127
76216,note_off,0,0,0,,7,,,67,127
76217,note_on,1,0,0,,2,,,74,127
76425,note_off,208,0,0,,2,,,74,127
76425,note_off,0,0,0,,7,,,55,127
76426,note_on,1,0,0,,1,,,73,127
76426,note_on,0,0,0,,10,,,57,127
76844,note_off,418,0,0,,1,,,73,127
76845,note_on,1,0,0,,6,,,66,127
76845,note_on,0,0,0,,2,,,74,127
77053,note_off,208,0,0,,6,,,66,127
77054,note_on,1,0,0,,4,,,64,127
77158,note_off,104,0,0,,4,,,64,127
77159,note_on,1,0,0,,2,,,62,127
77263,note_off,104,0,0,,2,,,62,127
77263,note_off,0,0,0,,10,,,57,127
77264,note_on,1,0,0,,4,,,64,127
77264,note_on,0,0,0,,10,,,57,127
77264,note_on,0,0,0,,10,,,45,127
77472,note_off,208,0,0,,2,,,74,127
77681,note_off,209,0,0,,4,,,64,127
77682,note_on,1,0,0,,1,,,73,127
78100,note_off,418,0,0,,1,,,73,127
78100,note_off,0,0,0,,10,,,45,127
78100,note_off,0,0,0,,10,,,57,127
78101,note_on,1,0,0,,6,,,66,127
78101,note_on,0,0,0,,2,,,74,127
78101,note_on,0,0,0,,2,,,50,127
78519,note_off,418,0,0,,2,,,50,127
78519,note_off,0,0,0,,2,,,74,127
78519,note_off,0,0,0,,6,,,66,127
78520,note_on,1,0,0,,6,,,78,127
78520,note_on,0,0,0,,2,,,74,127
78659,note_off,139,0,0,,6,,,78,127
78660,note_on,1,0,0,,7,,,79,127
78799,note_off,139,0,0,,7,,,79,127
78800,note_on,1,0,0,,10,,,81,127
78939,note_off,139,0,0,,10,,,81,127
78939,note_off,0,0,0,,2,,,74,127
78940,note_on,1,0,0,,7,,,79,127
78940,note_on,0,0,0,,4,,,76,127
78940,note_on,0,0,0,,7,,,67,127
79148,note_off,208,0,0,,4,,,76,127
79148,note_off,0,0,0,,7,,,79,127
79149,note_on,1,0,0,,6,,,78,127
79149,note_on,0,0,0,,2,,,74,127
79357,note_off,208,0,0,,7,,,67,127
79358,note_on,1,0,0,,10,,,69,127
79566,note_off,208,0,0,,2,,,74,127
79566,note_off,0,0,0,,6,,,78,127
79567,note_on,1,0,0,,4,,,76,127
79567,note_on,0,0,0,,1,,,73,127
79775,note_off,208,0,0,,1,,,73,127
79775,note_off,0,0,0,,4,,,76,127
79775,note_off,0,0,0,,10,,,69,127
79776,note_on,1,0,0,,2,,,74,127
79776,note_on,0,0,0,,6,,,78,127
79776,note_on,0,0,0,,2,,,62,127
80194,note_off,418,0,0,,2,,,62,127
80194,note_off,0,0,0,,6,,,78,127
80194,note_off,0,0,0,,2,,,74,127
80195,note_on,1,0,0,,6,,,78,127
80195,note_on,0,0,0,,2,,,74,127
80334,note_off,139,0,0,,6,,,78,127
80335,note_on,1,0,0,,7,,,79,127
80474,note_off,139,0,0,,7,,,79,127
80475,note_on,1,0,0,,10,,,81,127
80614,note_off,139,0,0,,10,,,81,127
80614,note_off,0,0,0,,2,,,74,127
80615,note_on,1,0,0,,4,,,76,127
80615,note_on,0,0,0,,7,,,79,127
80615,note_on,0,0,0,,7,,,67,127
80615,note_on,0,0,0,,7,,,55,127
80823,note_off,208,0,0,,7,,,79,127
80823,note_off,0,0,0,,4,,,76,127
80824,note_on,1,0,0,,6,,,78,127
80824,note_on,0,0,0,,2,,,74,127
81032,note_off,208,0,0,,7,,,55,127
81032,note_off,0,0,0,,7,,,67,127
81033,note_on,1,0,0,,10,,,69,127
81033,note_on,0,0,0,,10,,,57,127
81241,note_off,208,0,0,,2,,,74,127
81241,note_off,0,0,0,,6,,,78,127
81242,note_on,1,0,0,,1,,,73,127
81242,note_on,0,0,0,,4,,,76,127
81450,note_off,208,0,0,,4,,,76,127
81450,note_off,0,0,0,,1,,,73,127
81450,note_off,0,0,0,,10,,,57,127
81450,note_off,0,0,0,,10,,,69,127
81451,note_on,1,0,0,,6,,,78,127
81451,note_on,0,0,0,,2,,,74,127
81451,note_on,0,0,0,,2,,,62,127
81451,note_on,0,0,0,,2,,,50,127
81869,note_off,418,0,0,,2,,,50,127
81869,note_off,0,0,0,,2,,,62,127
81869,note_off,0,0,0,,2,,,74,127
81869,note_off,0,0,0,,6,,,78,127
81870,note_on,1,0,0,,10,,,81,127
81870,note_on,0,0,0,,6,,,66,127
82009,note_off,139,0,0,,10,,,81,127
82010,note_on,1,0,0,,7,,,79,127
82149,note_off,139,0,0,,7,,,79,127
82150,note_on,1,0,0,,6,,,78,127
82289,note_off,139,0,0,,6,,,78,127
82289,note_off,0,0,0,,6,,,66,127
82290,note_on,1,0,0,,4,,,76,127
82290,note_on,0,0,0,,7,,,67,127
82498,note_off,208,0,0,,4,,,76,127
82499,note_on,1,0,0,,12,,,71,127
82707,note_off,208,0,0,,12,,,71,127
82707,note_off,0,0,0,,7,,,67,127
82708,note_on,1,0,0,,1,,,73,127
82708,note_on,0,0,0,,10,,,69,127
82916,note_off,208,0,0,,10,,,69,127
82917,note_on,1,0,0,,7,,,67,127
83125,note_off,208,0,0,,7,,,67,127
83125,note_off,0,0,0,,1,,,73,127
83126,note_on,1,0,0,,2,,,74,127
83126,note_on,0,0,0,,6,,,66,127
83544,note_off,418,0,0,,6,,,66,127
83544,note_off,0,0,0,,2,,,74,127
83545,note_on,1,0,0,,10,,,81,127
83545,note_on,0,0,0,,6,,,66,127
83684,note_off,139,0,0,,10,,,81,127
83685,note_on,1,0,0,,7,,,79,127
83824,note_off,139,0,0,,7,,,79,127
83825,note_on,1,0,0,,6,,,78,127
83964,note_off,139,0,0,,6,,,78,127
83964,note_off,0,0,0,,6,,,66,127
83965,note_on,1,0,0,,4,,,76,127
83965,note_on,0,0,0,,7,,,67,127
84173,note_off,208,0,0,,4,,,76,127
84174,note_on,1,0,0,,12,,,71,127
84382,note_off,208,0,0,,12,,,71,127
84382,note_off,0,0,0,,7,,,67,127
84383,note_on,1,0,0,,1,,,73,127
84383,note_on,0,0,0,,10,,,69,127
84591,note_off,208,0,0,,10,,,69,127
84592,note_on,1,0,0,,7,,,67,127
84800,note_off,208,0,0,,7,,,67,127
84800,note_off,0,0,0,,1,,,73,127
84801,note_on,1,0,0,,2,,,74,127
84801,note_on,0,0,0,,6,,,66,127
85219,note_off,418,0,0,,6,,,66,127
85219,note_off,0,0,0,,2,,,74,127
85220,note_on,1,0,0,,10,,,81,127
85220,note_on,0,0,0,,6,,,66,127
85359,note_off,139,0,0,,10,,,81,127
85360,note_on,1,0,0,,7,,,79,127
85499,note_off,139,0,0,,7,,,79,127
85500,note_on,1,0,0,,6,,,78,127
85639,note_off,139,0,0,,6,,,78,127
85639,note_off,0,0,0,,6,,,66,127
85640,note_on,1,0,0,,12,,,83,127
85640,note_on,0,0,0,,7,,,67,127
85779,note_off,139,0,0,,12,,,83,127
85780,note_on,1,0,0,,10,,,81,127
85919,note_off,139,0,0,,10,,,81,127
85920,note_on,1,0,0,,7,,,79,127
86059,note_off,139,0,0,,7,,,79,127
86059,note_off,0,0,0,,7,,,67,127
86060,note_on,1,0,0,,1,,,85,127
86060,note_on,0,0,0,,4,,,64,127
86199,note_off,139,0,0,,1,,,85,127
86200,note_on,1,0,0,,12,,,83,127
86339,note_off,139,0,0,,12,,,83,127
86340,note_on,1,0,0,,10,,,81,127
86479,note_off,139,0,0,,10,,,81,127
86479,note_off,0,0,0,,4,,,64,127
86480,note_on,1,0,0,,2,,,86,127
86480,note_on,0,0,0,,6,,,66,127
86688,note_off,208,0,0,,2,,,86,127
86689,note_on,1,0,0,,10,,,81,127
86897,note_off,208,0,0,,10,,,81,127
86897,note_off,0,0,0,,6,,,66,127
86898,note_on,1,0,0,,12,,,83,127
86898,note_on,0,0,0,,7,,,67,127
87106,note_off,208,0,0,,12,,,83,127
87107,note_on,1,0,0,,4,,,76,127
87315,note_off,208,0,0,,4,,,76,127
87315,note_off,0,0,0,,7,,,67,127
87316,note_on,1,0,0,,6,,,78,127
87316,note_on,0,0,0,,10,,,69,127
87455,note_off,139,0,0,,6,,,78,127
87456,note_on,1,0,0,,7,,,79,127
87595,note_off,139,0,0,,7,,,79,127
87596,note_on,1,0,0,,10,,,81,127
87735,note_off,139,0,0,,10,,,81,127
87736,note_on,1,0,0,,2,,,74,127
87840,note_off,104,0,0,,2,,,74,127
87841,note_on,1,0,0,,1,,,73,127
87945,note_off,104,0,0,,1,,,73,127
87945,note_off,0,0,0,,10,,,69,127
87946,note_on,1,0,0,,12,,,71,127
87946,note_on,0,0,0,,7,,,67,127
88050,note_off,104,0,0,,12,,,71,127
88051,note_on,1,0,0,,1,,,73,127
88155,note_off,104,0,0,,1,,,73,127
88155,note_off,0,0,0,,7,,,67,127
88156,note_on,1,0,0,,2,,,74,127
88156,note_on,0,0,0,,6,,,66,127
88574,note_off,418,0,0,,6,,,66,127
88574,note_off,0,0,0,,2,,,74,127
88575,note_on,1,0,0,,10,,,81,127
88575,note_on,0,0,0,,2,,,62,127
88575,note_on,0,0,0,,2,,,50,127
88714,note_off,139,0,0,,10,,,81,127
88715,note_on,1,0,0,,7,,,79,127
88854,note_off,139,0,0,,7,,,79,127
88855,note_on,1,0,0,,6,,,78,127
88994,note_off,139,0,0,,6,,,78,127
88994,note_off,0,0,0,,2,,,50,127
88994,note_off,0,0,0,,2,,,62,127
88995,note_on,1,0,0,,12,,,83,127
88995,note_on,0,0,0,,7,,,67,127
88995,note_on,0,0,0,,7,,,55,127
89134,note_off,139,0,0,,12,,,83,127
89135,note_on,1,0,0,,10,,,81,127
89274,note_off,139,0,0,,10,,,81,127
89275,note_on,1,0,0,,7,,,79,127
89414,note_off,139,0,0,,7,,,79,127
89414,note_off,0,0,0,,7,,,55,127
89414,note_off,0,0,0,,7,,,67,127
89415,note_on,1,0,0,,1,,,85,127
89415,note_on,0,0,0,,4,,,64,127
89415,note_on,0,0,0,,4,,,52,127
89554,note_off,139,0,0,,1,,,85,127
89555,note_on,1,0,0,,12,,,83,127
89694,note_off,139,0,0,,12,,,83,127
89695,note_on,1,0,0,,10,,,81,127
89834,note_off,139,0,0,,10,,,81,127
89834,note_off,0,0,0,,4,,,52,127
89834,note_off,0,0,0,,4,,,64,127
89835,note_on,1,0,0,,2,,,86,127
89835,note_on,0,0,0,,6,,,66,127
89835,note_on,0,0,0,,6,,,54,127
90043,note_off,208,0,0,,2,,,86,127
90044,note_on,1,0,0,,10,,,81,127
90252,note_off,208,0,0,,10,,,81,127
90252,note_off,0,0,0,,6,,,54,127
90252,note_off,0,0,0,,6,,,66,127
90253,note_on,1,0,0,,12,,,83,127
90253,note_on,0,0,0,,7,,,67,127
90253,note_on,0,0,0,,7,,,55,127
90461,note_off,208,0,0,,12,,,83,127
90462,note_on,1,0,0,,4,,,76,127
90670,note_off,208,0,0,,4,,,76,127
90670,note_off,0,0,0,,7,,,55,127
90670,note_off,0,0,0,,7,,,67,127
90671,note_on,1,0,0,,6,,,78,127
90671,note_on,0,0,0,,10,,,69,127
90671,note_on,0,0,0,,10,,,57,127
90810,note_off,139,0,0,,6,,,78,127
90811,note_on,1,0,0,,7,,,79,127
90950,note_off,139,0,0,,7,,,79,127
90951,note_on,1,0,0,,10,,,81,127
91090,note_off,139,0,0,,10,,,81,127
91091,note_on,1,0,0,,2,,,74,127
91195,note_off,104,0,0,,2,,,74,127
91196,note_on,1,0,0,,1,,,73,127
91300,note_off,104,0,0,,1,,,73,127
91300,note_off,0,0,0,,10,,,69,127
91301,note_on,1,0,0,,12,,,71,127
91301,note_on,0,0,0,,7,,,67,127
91405,note_off,104,0,0,,12,,,71,127
91406,note_on,1,0,0,,1,,,73,127
91510,note_off,104,0,0,,1,,,73,127
91510,note_off,0,0,0,,7,,,67,127
91510,note_off,0,0,0,,10,,,57,127
91511,note_on,1,0,0,,2,,,74,127
91511,note_on,0,0,0,,6,,,66,127
91511,note_on,0,0,0,,2,,,62,127
91719,note_off,208,0,0,,2,,,62,127
91719,note_off,0,0,0,,6,,,66,127
91719,note_off,0,0,0,,2,,,74,127
91720,note_on,1,0,0,,1,,,73,127
91720,note_on,0,0,0,,2,,,50,127
91824,note_off,104,0,0,,1,,,73,127
91825,note_on,1,0,0,,12,,,71,127
91929,note_off,104,0,0,,12,,,71,127
91929,note_off,0,0,0,,2,,,50,127
91930,note_on,1,0,0,,2,,,62,127
91930,note_on,0,0,0,,10,,,69,127
91930,note_on,0,0,0,,6,,,54,127
92138,note_off,208,0,0,,6,,,54,127
92138,note_off,0,0,0,,10,,,69,127
92139,note_on,1,0,0,,7,,,67,127
92139,note_on,0,0,0,,7,,,55,127
92347,note_off,208,0,0,,7,,,55,127
92347,note_off,0,0,0,,7,,,67,127
92348,note_on,1,0,0,,6,,,66,127
92348,note_on,0,0,0,,10,,,57,127
92556,note_off,208,0,0,,2,,,62,127
92765,note_off,209,0,0,,6,,,66,127
92766,note_on,1,0,0,,4,,,64,127
92766,note_on,0,0,0,,1,,,61,127
92766,note_on,0,0,0,,10,,,45,127
92974,note_off,208,0,0,,10,,,57,127
93183,note_off,209,0,0,,10,,,45,127
93183,note_off,0,0,0,,1,,,61,127
93202,note_off,19,0,0,,4,,,64,127
93206,note_on,4,0,0,,2,,,62,127
93206,note_on,0,0,0,,2,,,50,127
93206,note_on,0,0,0,,2,,,38,127
95170,note_off,1964,0,0,,2,,,38,127
95170,note_off,0,0,0,,2,,,50,127
95170,note_off,0,0,0,,2,,,62,127
98304,end_of_track,3134,1,0,,,,,,
