tick,type,time,meta,track,program,channel,pitch,tempo,note,velocity
0,copyright,0,1,0,,,,,,
0,program_change,0,0,0,6,0,,,,
0,pitchwheel,0,0,0,,0,0,,,
0,program_change,0,0,0,6,1,,,,
0,pitchwheel,0,0,0,,1,-590,,,
0,program_change,0,0,0,6,2,,,,
0,pitchwheel,0,0,0,,2,-272,,,
0,program_change,0,0,0,6,3,,,,
0,pitchwheel,0,0,0,,3,-353,,,
0,program_change,0,0,0,6,4,,,,
0,pitchwheel,0,0,0,,4,-560,,,
0,program_change,0,0,0,6,5,,,,
0,pitchwheel,0,0,0,,5,-80,,,
0,program_change,0,0,0,6,6,,,,
0,pitchwheel,0,0,0,,6,-625,,,
0,program_change,0,0,0,6,7,,,,
0,pitchwheel,0,0,0,,7,-130,,,
0,program_change,0,0,0,6,8,,,,
0,pitchwheel,0,0,0,,8,-512,,,
0,program_change,0,0,0,6,10,,,,
0,pitchwheel,0,0,0,,10,-464,,,
0,program_change,0,0,0,6,11,,,,
0,pitchwheel,0,0,0,,11,-208,,,
0,program_change,0,0,0,6,12,,,,
0,pitchwheel,0,0,0,,12,-553,,,
0,set_tempo,0,1,0,,,,500000,,
0,note_on,0,0,0,,10,,,81,127
0,note_on,0,0,0,,2,,,62,127
229,note_off,229,0,0,,10,,,81,127
230,note_on,1,0,0,,6,,,78,127
344,note_off,114,0,0,,6,,,78,127
345,note_on,1,0,0,,7,,,79,127
459,note_off,114,0,0,,7,,,79,127
460,note_on,1,0,0,,10,,,81,127
574,note_off,114,0,0,,10,,,81,127
575,note_on,1,0,0,,7,,,79,127
689,note_off,114,0,0,,7,,,79,127
689,note_off,0,0,0,,2,,,62,127
690,note_on,1,0,0,,6,,,78,127
690,note_on,0,0,0,,2,,,62,127
919,note_off,229,0,0,,6,,,78,127
920,note_on,1,0,0,,2,,,74,127
1034,note_off,114,0,0,,2,,,74,127
1035,note_on,1,0,0,,4,,,76,127
1149,note_off,114,0,0,,4,,,76,127
1150,note_on,1,0,0,,6,,,78,127
1264,note_off,114,0,0,,6,,,78,127
1265,note_on,1,0,0,,4,,,76,127
1379,note_off,114,0,0,,4,,,76,127
1379,note_off,0,0,0,,2,,,62,127
1380,note_on,1,0,0,,2,,,74,127
1380,note_on,0,0,0,,2,,,62,127
1609,note_off,229,0,0,,2,,,62,127
1609,note_off,0,0,0,,2,,,74,127
1610,note_on,1,0,0,,1,,,73,127
1610,note_on,0,0,0,,4,,,64,127
1839,note_off,229,0,0,,4,,,64,127
1839,note_off,0,0,0,,1,,,73,127
1840,note_on,1,0,0,,2,,,74,127
1840,note_on,0,0,0,,6,,,66,127
2069,note_off,229,0,0,,6,,,66,127
2069,note_off,0,0,0,,2,,,74,127
2070,note_on,1,0,0,,12,,,71,127
2070,note_on,0,0,0,,7,,,67,127
2299,note_off,229,0,0,,7,,,67,127
2300,note_on,1,0,0,,4,,,76,127
2300,note_on,0,0,0,,4,,,64,127
2454,note_off,154,0,0,,12,,,71,127
2530,note_off,76,0,0,,4,,,64,127
2530,note_off,0,0,0,,4,,,76,127
2531,note_on,1,0,0,,2,,,74,127
2531,note_on,0,0,0,,10,,,69,127
2589,note_on,58,0,0,,1,,,73,127
2607,note_off,18,0,0,,2,,,74,127
2647,note_on,40,0,0,,12,,,71,127
2665,note_off,18,0,0,,1,,,73,127
2705,note_on,40,0,0,,1,,,73,127
2723,note_off,18,0,0,,12,,,71,127
2761,note_off,38,0,0,,10,,,69,127
2762,note_on,1,0,0,,2,,,74,127
2762,note_on,0,0,0,,6,,,66,127
2780,note_off,18,0,0,,1,,,73,127
2991,note_off,211,0,0,,6,,,66,127
2991,note_off,0,0,0,,2,,,74,127
2992,note_on,1,0,0,,4,,,76,127
2992,note_on,0,0,0,,4,,,64,127
3221,note_off,229,0,0,,4,,,64,127
3221,note_off,0,0,0,,4,,,76,127
3222,note_on,1,0,0,,6,,,78,127
3222,note_on,0,0,0,,2,,,62,127
3451,note_off,229,0,0,,2,,,62,127
3451,note_off,0,0,0,,6,,,78,127
3452,note_on,1,0,0,,12,,,71,127
3452,note_on,0,0,0,,7,,,67,127
3681,note_off,229,0,0,,7,,,67,127
3682,note_on,1,0,0,,4,,,76,127
3682,note_on,0,0,0,,4,,,64,127
3908,note_off,226,0,0,,12,,,71,127
3912,note_off,4,0,0,,4,,,64,127
3912,note_off,0,0,0,,4,,,76,127
3913,note_on,1,0,0,,2,,,74,127
3913,note_on,0,0,0,,10,,,69,127
3971,note_on,58,0,0,,1,,,73,127
3989,note_off,18,0,0,,2,,,74,127
4029,note_on,40,0,0,,12,,,71,127
4047,note_off,18,0,0,,1,,,73,127
4087,note_on,40,0,0,,1,,,73,127
4105,note_off,18,0,0,,12,,,71,127
4143,note_off,38,0,0,,10,,,69,127
4144,note_on,1,0,0,,2,,,74,127
4144,note_on,0,0,0,,6,,,66,127
4162,note_off,18,0,0,,1,,,73,127
4373,note_off,211,0,0,,6,,,66,127
4373,note_off,0,0,0,,2,,,74,127
4374,note_on,1,0,0,,4,,,76,127
4374,note_on,0,0,0,,4,,,64,127
4603,note_off,229,0,0,,4,,,64,127
4603,note_off,0,0,0,,4,,,76,127
4604,note_on,1,0,0,,6,,,78,127
4604,note_on,0,0,0,,2,,,74,127
4604,note_on,0,0,0,,2,,,62,127
4796,note_off,192,0,0,,6,,,78,127
4833,note_off,37,0,0,,2,,,62,127
4833,note_off,0,0,0,,2,,,74,127
4834,note_on,1,0,0,,1,,,73,127
4834,note_on,0,0,0,,4,,,76,127
4834,note_on,0,0,0,,10,,,69,127
4948,note_off,114,0,0,,10,,,69,127
4949,note_on,1,0,0,,7,,,67,127
5063,note_off,114,0,0,,7,,,67,127
5064,note_on,1,0,0,,6,,,66,127
5178,note_off,114,0,0,,6,,,66,127
5179,note_on,1,0,0,,4,,,64,127
5293,note_off,114,0,0,,4,,,64,127
5293,note_off,0,0,0,,4,,,76,127
5293,note_off,0,0,0,,1,,,73,127
5294,note_on,1,0,0,,6,,,78,127
5294,note_on,0,0,0,,2,,,74,127
5294,note_on,0,0,0,,2,,,62,127
5486,note_off,192,0,0,,6,,,78,127
5523,note_off,37,0,0,,2,,,62,127
5523,note_off,0,0,0,,2,,,74,127
5524,note_on,1,0,0,,1,,,73,127
5524,note_on,0,0,0,,4,,,76,127
5524,note_on,0,0,0,,10,,,69,127
5638,note_off,114,0,0,,10,,,69,127
5639,note_on,1,0,0,,7,,,67,127
5753,note_off,114,0,0,,7,,,67,127
5754,note_on,1,0,0,,6,,,66,127
5868,note_off,114,0,0,,6,,,66,127
5869,note_on,1,0,0,,4,,,64,127
5983,note_off,114,0,0,,4,,,64,127
5983,note_off,0,0,0,,4,,,76,127
5983,note_off,0,0,0,,1,,,73,127
5984,note_on,1,0,0,,6,,,78,127
5984,note_on,0,0,0,,2,,,74,127
5984,note_on,0,0,0,,2,,,62,127
6176,note_off,192,0,0,,6,,,78,127
6213,note_off,37,0,0,,2,,,62,127
6213,note_off,0,0,0,,2,,,74,127
6214,note_on,1,0,0,,4,,,76,127
6214,note_on,0,0,0,,7,,,79,127
6214,note_on,0,0,0,,1,,,61,127
6443,note_off,229,0,0,,1,,,61,127
6443,note_off,0,0,0,,7,,,79,127
6443,note_off,0,0,0,,4,,,76,127
6444,note_on,1,0,0,,2,,,74,127
6444,note_on,0,0,0,,6,,,78,127
6444,note_on,0,0,0,,2,,,62,127
6558,note_off,114,0,0,,2,,,62,127
6559,note_on,1,0,0,,4,,,64,127
6673,note_off,114,0,0,,4,,,64,127
6674,note_on,1,0,0,,6,,,66,127
6788,note_off,114,0,0,,6,,,66,127
6789,note_on,1,0,0,,7,,,67,127
6903,note_off,114,0,0,,7,,,67,127
6903,note_off,0,0,0,,6,,,78,127
6903,note_off,0,0,0,,2,,,74,127
6904,note_on,1,0,0,,4,,,76,127
6904,note_on,0,0,0,,1,,,73,127
6904,note_on,0,0,0,,10,,,69,127
7018,note_off,114,0,0,,1,,,73,127
7018,note_off,0,0,0,,4,,,76,127
7019,note_on,1,0,0,,10,,,81,127
7133,note_off,114,0,0,,10,,,81,127
7134,note_on,1,0,0,,4,,,76,127
7248,note_off,114,0,0,,4,,,76,127
7249,note_on,1,0,0,,1,,,73,127
7362,note_off,113,0,0,,10,,,69,127
7363,note_off,1,0,0,,1,,,73,127
7364,note_on,1,0,0,,10,,,69,127
7593,note_off,229,0,0,,10,,,69,127
7594,note_on,1,0,0,,4,,,76,127
7594,note_on,0,0,0,,1,,,73,127
7594,note_on,0,0,0,,10,,,69,127
7708,note_off,114,0,0,,10,,,69,127
7709,note_on,1,0,0,,7,,,67,127
7823,note_off,114,0,0,,7,,,67,127
7824,note_on,1,0,0,,6,,,66,127
7938,note_off,114,0,0,,6,,,66,127
7939,note_on,1,0,0,,4,,,64,127
8053,note_off,114,0,0,,4,,,64,127
8053,note_off,0,0,0,,1,,,73,127
8053,note_off,0,0,0,,4,,,76,127
8054,note_on,1,0,0,,2,,,74,127
8054,note_on,0,0,0,,6,,,78,127
8054,note_on,0,0,0,,2,,,62,127
8252,note_off,198,0,0,,6,,,78,127
8283,note_off,31,0,0,,2,,,62,127
8283,note_off,0,0,0,,2,,,74,127
8284,note_on,1,0,0,,4,,,76,127
8284,note_on,0,0,0,,1,,,73,127
8284,note_on,0,0,0,,10,,,57,127
8398,note_off,114,0,0,,10,,,57,127
8399,note_on,1,0,0,,7,,,55,127
8513,note_off,114,0,0,,7,,,55,127
8514,note_on,1,0,0,,6,,,54,127
8628,note_off,114,0,0,,6,,,54,127
8629,note_on,1,0,0,,4,,,52,127
8743,note_off,114,0,0,,4,,,52,127
8743,note_off,0,0,0,,1,,,73,127
8743,note_off,0,0,0,,4,,,76,127
8744,note_on,1,0,0,,6,,,78,127
8744,note_on,0,0,0,,2,,,74,127
8744,note_on,0,0,0,,2,,,50,127
8942,note_off,198,0,0,,6,,,78,127
8973,note_off,31,0,0,,2,,,50,127
8973,note_off,0,0,0,,2,,,74,127
8974,note_on,1,0,0,,7,,,79,127
8974,note_on,0,0,0,,4,,,76,127
8974,note_on,0,0,0,,7,,,55,127
9203,note_off,229,0,0,,7,,,55,127
9203,note_off,0,0,0,,4,,,76,127
9203,note_off,0,0,0,,7,,,79,127
9204,note_on,1,0,0,,2,,,74,127
9204,note_on,0,0,0,,6,,,78,127
9204,note_on,0,0,0,,10,,,57,127
9262,note_on,58,0,0,,1,,,73,127
9262,note_on,0,0,0,,4,,,76,127
9280,note_off,18,0,0,,6,,,78,127
9280,note_off,0,0,0,,2,,,74,127
9320,note_on,40,0,0,,2,,,74,127
9320,note_on,0,0,0,,6,,,78,127
9338,note_off,18,0,0,,4,,,76,127
9338,note_off,0,0,0,,1,,,73,127
9378,note_on,40,0,0,,4,,,76,127
9378,note_on,0,0,0,,1,,,73,127
9396,note_off,18,0,0,,6,,,78,127
9396,note_off,0,0,0,,2,,,74,127
9436,note_on,40,0,0,,2,,,74,127
9436,note_on,0,0,0,,6,,,78,127
9436,note_on,0,0,0,,10,,,45,127
9454,note_off,18,0,0,,1,,,73,127
9454,note_off,0,0,0,,4,,,76,127
9494,note_on,40,0,0,,4,,,76,127
9494,note_on,0,0,0,,1,,,73,127
9512,note_off,18,0,0,,6,,,78,127
9512,note_off,0,0,0,,2,,,74,127
9552,note_off,40,0,0,,10,,,57,127
9552,note_on,0,0,0,,2,,,74,127
9570,note_off,18,0,0,,1,,,73,127
9570,note_off,0,0,0,,4,,,76,127
9610,note_on,40,0,0,,4,,,76,127
9628,note_off,18,0,0,,2,,,74,127
9666,note_off,38,0,0,,4,,,76,127
9666,note_off,0,0,0,,10,,,45,127
9667,note_on,1,0,0,,2,,,74,127
9667,note_on,0,0,0,,2,,,38,127
10123,note_off,456,0,0,,2,,,74,127
10357,note_off,234,0,0,,2,,,38,127
10358,note_on,1,0,0,,10,,,81,127
10358,note_on,0,0,0,,2,,,62,127
10588,note_on,230,0,0,,6,,,78,127
10702,note_off,114,0,0,,6,,,78,127
10703,note_off,1,0,0,,10,,,81,127
10703,note_on,0,0,0,,7,,,79,127
10817,note_off,114,0,0,,7,,,79,127
10818,note_on,1,0,0,,10,,,81,127
10932,note_off,114,0,0,,10,,,81,127
10933,note_on,1,0,0,,7,,,79,127
11047,note_off,114,0,0,,7,,,79,127
11047,note_off,0,0,0,,2,,,62,127
11048,note_on,1,0,0,,6,,,78,127
11048,note_on,0,0,0,,2,,,62,127
11278,note_on,230,0,0,,2,,,74,127
11392,note_off,114,0,0,,2,,,74,127
11393,note_off,1,0,0,,6,,,78,127
11393,note_on,0,0,0,,4,,,76,127
11507,note_off,114,0,0,,4,,,76,127
11508,note_on,1,0,0,,6,,,78,127
11622,note_off,114,0,0,,6,,,78,127
11623,note_on,1,0,0,,4,,,76,127
11737,note_off,114,0,0,,4,,,76,127
11737,note_off,0,0,0,,2,,,62,127
11738,note_on,1,0,0,,2,,,86,127
11738,note_on,0,0,0,,2,,,74,127
11738,note_on,0,0,0,,4,,,64,127
11967,note_off,229,0,0,,4,,,64,127
11968,note_on,1,0,0,,6,,,66,127
12197,note_off,229,0,0,,6,,,66,127
12198,note_on,1,0,0,,8,,,68,127
12427,note_off,229,0,0,,8,,,68,127
12427,note_off,0,0,0,,2,,,74,127
12427,note_off,0,0,0,,2,,,86,127
12428,note_on,1,0,0,,1,,,85,127
12428,note_on,0,0,0,,10,,,69,127
12658,note_on,230,0,0,,10,,,81,127
12772,note_off,114,0,0,,10,,,81,127
12773,note_off,1,0,0,,1,,,85,127
12773,note_on,0,0,0,,12,,,83,127
12887,note_off,114,0,0,,12,,,83,127
12887,note_off,0,0,0,,10,,,69,127
12888,note_on,1,0,0,,1,,,85,127
12888,note_on,0,0,0,,8,,,68,127
13002,note_off,114,0,0,,1,,,85,127
13003,note_on,1,0,0,,12,,,83,127
13117,note_off,114,0,0,,12,,,83,127
13117,note_off,0,0,0,,8,,,68,127
13118,note_on,1,0,0,,10,,,81,127
13118,note_on,0,0,0,,6,,,66,127
13348,note_on,230,0,0,,6,,,78,127
13462,note_off,114,0,0,,6,,,78,127
13463,note_off,1,0,0,,10,,,81,127
13463,note_on,0,0,0,,8,,,80,127
13577,note_off,114,0,0,,8,,,80,127
13577,note_off,0,0,0,,6,,,66,127
13578,note_on,1,0,0,,10,,,81,127
13578,note_on,0,0,0,,4,,,64,127
13692,note_off,114,0,0,,10,,,81,127
13693,note_on,1,0,0,,8,,,80,127
13807,note_off,114,0,0,,8,,,80,127
13807,note_off,0,0,0,,4,,,64,127
13808,note_on,1,0,0,,6,,,78,127
13808,note_on,0,0,0,,2,,,62,127
14038,note_on,230,0,0,,2,,,74,127
14152,note_off,114,0,0,,2,,,74,127
14153,note_off,1,0,0,,6,,,78,127
14153,note_on,0,0,0,,4,,,76,127
14267,note_off,114,0,0,,4,,,76,127
14267,note_off,0,0,0,,2,,,62,127
14268,note_on,1,0,0,,6,,,78,127
14268,note_on,0,0,0,,1,,,61,127
14382,note_off,114,0,0,,6,,,78,127
14383,note_on,1,0,0,,4,,,76,127
14497,note_off,114,0,0,,4,,,76,127
14497,note_off,0,0,0,,1,,,61,127
14498,note_on,1,0,0,,2,,,74,127
14498,note_on,0,0,0,,12,,,83,127
14498,note_on,0,0,0,,12,,,59,127
14727,note_off,229,0,0,,12,,,59,127
14727,note_off,0,0,0,,12,,,83,127
14727,note_off,0,0,0,,2,,,74,127
14728,note_on,1,0,0,,4,,,76,127
14728,note_on,0,0,0,,10,,,81,127
14728,note_on,0,0,0,,1,,,61,127
14957,note_off,229,0,0,,1,,,61,127
14957,note_off,0,0,0,,4,,,76,127
14958,note_on,1,0,0,,6,,,78,127
14958,note_on,0,0,0,,2,,,62,127
15187,note_off,229,0,0,,2,,,62,127
15187,note_off,0,0,0,,6,,,78,127
15188,note_on,1,0,0,,12,,,71,127
15188,note_on,0,0,0,,4,,,64,127
15417,note_off,229,0,0,,10,,,81,127
15418,note_on,1,0,0,,10,,,81,127
15418,note_on,0,0,0,,8,,,80,127
15532,note_off,114,0,0,,8,,,80,127
15532,note_off,0,0,0,,10,,,81,127
15533,note_on,1,0,0,,6,,,78,127
15647,note_off,114,0,0,,6,,,78,127
15648,note_on,1,0,0,,4,,,76,127
15763,note_off,115,0,0,,4,,,64,127
15877,note_off,114,0,0,,4,,,76,127
15877,note_off,0,0,0,,12,,,71,127
15878,note_on,1,0,0,,12,,,83,127
15878,note_on,0,0,0,,8,,,80,127
15878,note_on,0,0,0,,4,,,76,127
15992,note_off,114,0,0,,4,,,76,127
15993,note_on,1,0,0,,2,,,74,127
16107,note_off,114,0,0,,2,,,74,127
16108,note_on,1,0,0,,1,,,73,127
16222,note_off,114,0,0,,1,,,73,127
16223,note_on,1,0,0,,12,,,71,127
16337,note_off,114,0,0,,12,,,71,127
16337,note_off,0,0,0,,8,,,80,127
16337,note_off,0,0,0,,12,,,83,127
16338,note_on,1,0,0,,10,,,81,127
16338,note_on,0,0,0,,1,,,85,127
16338,note_on,0,0,0,,10,,,69,127
16530,note_off,192,0,0,,1,,,85,127
16567,note_off,37,0,0,,10,,,69,127
16567,note_off,0,0,0,,10,,,81,127
16568,note_on,1,0,0,,8,,,80,127
16568,note_on,0,0,0,,12,,,83,127
16568,note_on,0,0,0,,4,,,76,127
16682,note_off,114,0,0,,4,,,76,127
16683,note_on,1,0,0,,2,,,74,127
16797,note_off,114,0,0,,2,,,74,127
16798,note_on,1,0,0,,1,,,73,127
16912,note_off,114,0,0,,1,,,73,127
16913,note_on,1,0,0,,12,,,71,127
17027,note_off,114,0,0,,12,,,71,127
17027,note_off,0,0,0,,12,,,83,127
17027,note_off,0,0,0,,8,,,80,127
17028,note_on,1,0,0,,1,,,85,127
17028,note_on,0,0,0,,10,,,81,127
17028,note_on,0,0,0,,10,,,69,127
17232,note_off,204,0,0,,1,,,85,127
17257,note_off,25,0,0,,10,,,69,127
17257,note_off,0,0,0,,10,,,81,127
17258,note_on,1,0,0,,12,,,83,127
17258,note_on,0,0,0,,2,,,86,127
17258,note_on,0,0,0,,8,,,68,127
17487,note_off,229,0,0,,8,,,68,127
17487,note_off,0,0,0,,2,,,86,127
17487,note_off,0,0,0,,12,,,83,127
17488,note_on,1,0,0,,1,,,85,127
17488,note_on,0,0,0,,10,,,81,127
17488,note_on,0,0,0,,10,,,69,127
17602,note_off,114,0,0,,10,,,69,127
17603,note_on,1,0,0,,12,,,71,127
17717,note_off,114,0,0,,12,,,71,127
17718,note_on,1,0,0,,1,,,73,127
17832,note_off,114,0,0,,1,,,73,127
17833,note_on,1,0,0,,2,,,74,127
17947,note_off,114,0,0,,2,,,74,127
17947,note_off,0,0,0,,10,,,81,127
17947,note_off,0,0,0,,1,,,85,127
17948,note_on,1,0,0,,12,,,83,127
17948,note_on,0,0,0,,4,,,76,127
18062,note_off,114,0,0,,12,,,83,127
18063,note_on,1,0,0,,8,,,80,127
18176,note_off,113,0,0,,4,,,76,127
18177,note_off,1,0,0,,8,,,80,127
18178,note_on,1,0,0,,4,,,76,127
18293,note_on,115,0,0,,12,,,71,127
18406,note_off,113,0,0,,4,,,76,127
18407,note_off,1,0,0,,12,,,71,127
18408,note_on,1,0,0,,4,,,76,127
18637,note_off,229,0,0,,4,,,76,127
18638,note_on,1,0,0,,4,,,76,127
18638,note_on,0,0,0,,8,,,68,127
18638,note_on,0,0,0,,12,,,71,127
18638,note_on,0,0,0,,4,,,64,127
18752,note_off,114,0,0,,4,,,64,127
18753,note_on,1,0,0,,2,,,62,127
18867,note_off,114,0,0,,2,,,62,127
18868,note_on,1,0,0,,1,,,61,127
18982,note_off,114,0,0,,1,,,61,127
18983,note_on,1,0,0,,12,,,59,127
19097,note_off,114,0,0,,12,,,59,127
19097,note_off,0,0,0,,12,,,71,127
19097,note_off,0,0,0,,8,,,68,127
19098,note_on,1,0,0,,10,,,69,127
19098,note_on,0,0,0,,1,,,73,127
19098,note_on,0,0,0,,10,,,57,127
19327,note_off,229,0,0,,10,,,57,127
19327,note_off,0,0,0,,1,,,73,127
19327,note_off,0,0,0,,10,,,69,127
19327,note_off,0,0,0,,4,,,76,127
19328,note_on,1,0,0,,4,,,76,127
19328,note_on,0,0,0,,8,,,68,127
19328,note_on,0,0,0,,12,,,71,127
19328,note_on,0,0,0,,4,,,52,127
19442,note_off,114,0,0,,4,,,52,127
19443,note_on,1,0,0,,2,,,50,127
19557,note_off,114,0,0,,2,,,50,127
19558,note_on,1,0,0,,1,,,49,127
19672,note_off,114,0,0,,1,,,49,127
19673,note_on,1,0,0,,12,,,47,127
19787,note_off,114,0,0,,12,,,47,127
19787,note_off,0,0,0,,12,,,71,127
19787,note_off,0,0,0,,8,,,68,127
19788,note_on,1,0,0,,1,,,73,127
19788,note_on,0,0,0,,10,,,69,127
19788,note_on,0,0,0,,10,,,45,127
20017,note_off,229,0,0,,10,,,45,127
20017,note_off,0,0,0,,10,,,69,127
20017,note_off,0,0,0,,1,,,73,127
20017,note_off,0,0,0,,4,,,76,127
20018,note_on,1,0,0,,12,,,71,127
20018,note_on,0,0,0,,2,,,74,127
20018,note_on,0,0,0,,2,,,50,127
20247,note_off,229,0,0,,2,,,50,127
20247,note_off,0,0,0,,2,,,74,127
20247,note_off,0,0,0,,12,,,71,127
20248,note_on,1,0,0,,10,,,69,127
20248,note_on,0,0,0,,1,,,73,127
20248,note_on,0,0,0,,4,,,52,127
20306,note_on,58,0,0,,8,,,68,127
20306,note_on,0,0,0,,12,,,71,127
20324,note_off,18,0,0,,1,,,73,127
20324,note_off,0,0,0,,10,,,69,127
20364,note_on,40,0,0,,1,,,73,127
20364,note_on,0,0,0,,10,,,69,127
20382,note_off,18,0,0,,12,,,71,127
20382,note_off,0,0,0,,8,,,68,127
20422,note_on,40,0,0,,12,,,71,127
20422,note_on,0,0,0,,8,,,68,127
20440,note_off,18,0,0,,10,,,69,127
20440,note_off,0,0,0,,1,,,73,127
20480,note_on,40,0,0,,1,,,73,127
20480,note_on,0,0,0,,10,,,69,127
20480,note_on,0,0,0,,4,,,40,127
20498,note_off,18,0,0,,8,,,68,127
20498,note_off,0,0,0,,12,,,71,127
20538,note_on,40,0,0,,12,,,71,127
20538,note_on,0,0,0,,8,,,68,127
20556,note_off,18,0,0,,10,,,69,127
20556,note_off,0,0,0,,1,,,73,127
20596,note_on,40,0,0,,10,,,69,127
20614,note_off,18,0,0,,8,,,68,127
20614,note_off,0,0,0,,12,,,71,127
20654,note_on,40,0,0,,12,,,71,127
20672,note_off,18,0,0,,10,,,69,127
20707,note_off,35,0,0,,4,,,52,127
20711,note_off,4,0,0,,12,,,71,127
20711,note_off,0,0,0,,4,,,40,127
20712,note_on,1,0,0,,10,,,69,127
20712,note_on,0,0,0,,10,,,45,127
21168,note_off,456,0,0,,10,,,69,127
21402,note_off,234,0,0,,10,,,45,127
21403,note_on,1,0,0,,4,,,76,127
21403,note_on,0,0,0,,10,,,69,127
21633,note_on,230,0,0,,1,,,73,127
21747,note_off,114,0,0,,1,,,73,127
21748,note_off,1,0,0,,4,,,76,127
21748,note_on,0,0,0,,2,,,74,127
21862,note_off,114,0,0,,2,,,74,127
21863,note_on,1,0,0,,4,,,76,127
21977,note_off,114,0,0,,4,,,76,127
21978,note_on,1,0,0,,2,,,74,127
22092,note_off,114,0,0,,2,,,74,127
22092,note_off,0,0,0,,10,,,69,127
22093,note_on,1,0,0,,4,,,76,127
22093,note_on,0,0,0,,7,,,67,127
22322,note_off,229,0,0,,7,,,67,127
22322,note_off,0,0,0,,4,,,76,127
22323,note_on,1,0,0,,6,,,78,127
22323,note_on,0,0,0,,6,,,66,127
22552,note_off,229,0,0,,6,,,66,127
22552,note_off,0,0,0,,6,,,78,127
22553,note_on,1,0,0,,7,,,79,127
22553,note_on,0,0,0,,4,,,64,127
22775,note_off,222,0,0,,7,,,79,127
22782,note_off,7,0,0,,4,,,64,127
22783,note_on,1,0,0,,4,,,76,127
22783,note_on,0,0,0,,7,,,67,127
23013,note_on,230,0,0,,12,,,71,127
23127,note_off,114,0,0,,12,,,71,127
23128,note_off,1,0,0,,4,,,76,127
23128,note_on,0,0,0,,1,,,73,127
23242,note_off,114,0,0,,1,,,73,127
23243,note_on,1,0,0,,2,,,74,127
23357,note_off,114,0,0,,2,,,74,127
23358,note_on,1,0,0,,1,,,73,127
23472,note_off,114,0,0,,1,,,73,127
23472,note_off,0,0,0,,7,,,67,127
23473,note_on,1,0,0,,2,,,74,127
23473,note_on,0,0,0,,6,,,66,127
23702,note_off,229,0,0,,6,,,66,127
23702,note_off,0,0,0,,2,,,74,127
23703,note_on,1,0,0,,4,,,76,127
23703,note_on,0,0,0,,4,,,64,127
23932,note_off,229,0,0,,4,,,64,127
23932,note_off,0,0,0,,4,,,76,127
23933,note_on,1,0,0,,6,,,78,127
23933,note_on,0,0,0,,2,,,62,127
24149,note_off,216,0,0,,6,,,78,127
24162,note_off,13,0,0,,2,,,62,127
24163,note_on,1,0,0,,6,,,78,127
24163,note_on,0,0,0,,10,,,81,127
24163,note_on,0,0,0,,2,,,74,127
24277,note_off,114,0,0,,2,,,74,127
24278,note_on,1,0,0,,1,,,73,127
24392,note_off,114,0,0,,1,,,73,127
24393,note_on,1,0,0,,12,,,71,127
24507,note_off,114,0,0,,12,,,71,127
24508,note_on,1,0,0,,10,,,69,127
24622,note_off,114,0,0,,10,,,69,127
24622,note_off,0,0,0,,10,,,81,127
24622,note_off,0,0,0,,6,,,78,127
24623,note_on,1,0,0,,7,,,79,127
24623,note_on,0,0,0,,12,,,83,127
24623,note_on,0,0,0,,7,,,67,127
24815,note_off,192,0,0,,12,,,83,127
24852,note_off,37,0,0,,7,,,67,127
24852,note_off,0,0,0,,7,,,79,127
24853,note_on,1,0,0,,4,,,76,127
24853,note_on,0,0,0,,7,,,79,127
24853,note_on,0,0,0,,1,,,73,127
24967,note_off,114,0,0,,1,,,73,127
24968,note_on,1,0,0,,12,,,71,127
25082,note_off,114,0,0,,12,,,71,127
25083,note_on,1,0,0,,10,,,69,127
25197,note_off,114,0,0,,10,,,69,127
25198,note_on,1,0,0,,7,,,67,127
25312,note_off,114,0,0,,7,,,67,127
25312,note_off,0,0,0,,7,,,79,127
25312,note_off,0,0,0,,4,,,76,127
25313,note_on,1,0,0,,10,,,81,127
25313,note_on,0,0,0,,6,,,78,127
25313,note_on,0,0,0,,6,,,66,127
25505,note_off,192,0,0,,10,,,81,127
25542,note_off,37,0,0,,6,,,66,127
25542,note_off,0,0,0,,6,,,78,127
25543,note_on,1,0,0,,2,,,74,127
25543,note_on,0,0,0,,6,,,78,127
25543,note_on,0,0,0,,12,,,71,127
25657,note_off,114,0,0,,12,,,71,127
25658,note_on,1,0,0,,10,,,69,127
25772,note_off,114,0,0,,10,,,69,127
25773,note_on,1,0,0,,7,,,67,127
25887,note_off,114,0,0,,7,,,67,127
25888,note_on,1,0,0,,6,,,66,127
26002,note_off,114,0,0,,6,,,66,127
26002,note_off,0,0,0,,6,,,78,127
26002,note_off,0,0,0,,2,,,74,127
26003,note_on,1,0,0,,4,,,76,127
26003,note_on,0,0,0,,7,,,79,127
26003,note_on,0,0,0,,4,,,64,127
26213,note_off,210,0,0,,7,,,79,127
26232,note_off,19,0,0,,4,,,64,127
26232,note_off,0,0,0,,4,,,76,127
26233,note_on,1,0,0,,4,,,76,127
26233,note_on,0,0,0,,1,,,73,127
26233,note_on,0,0,0,,10,,,69,127
26463,note_on,230,0,0,,10,,,81,127
26689,note_off,226,0,0,,4,,,76,127
26693,note_off,4,0,0,,10,,,81,127
26693,note_off,0,0,0,,1,,,73,127
26694,note_on,1,0,0,,2,,,74,127
26694,note_on,0,0,0,,6,,,78,127
26923,note_off,229,0,0,,6,,,78,127
26923,note_off,0,0,0,,2,,,74,127
26923,note_off,0,0,0,,10,,,69,127
26924,note_on,1,0,0,,1,,,73,127
26924,note_on,0,0,0,,4,,,76,127
26924,note_on,0,0,0,,10,,,69,127
27038,note_off,114,0,0,,10,,,69,127
27039,note_on,1,0,0,,7,,,67,127
27153,note_off,114,0,0,,7,,,67,127
27154,note_on,1,0,0,,6,,,66,127
27268,note_off,114,0,0,,6,,,66,127
27269,note_on,1,0,0,,4,,,64,127
27383,note_off,114,0,0,,4,,,64,127
27383,note_off,0,0,0,,4,,,76,127
27383,note_off,0,0,0,,1,,,73,127
27384,note_on,1,0,0,,6,,,78,127
27384,note_on,0,0,0,,2,,,74,127
27384,note_on,0,0,0,,2,,,62,127
27594,note_off,210,0,0,,6,,,78,127
27613,note_off,19,0,0,,2,,,62,127
27613,note_off,0,0,0,,2,,,74,127
27614,note_on,1,0,0,,1,,,73,127
27614,note_on,0,0,0,,4,,,76,127
27614,note_on,0,0,0,,10,,,69,127
27728,note_off,114,0,0,,10,,,69,127
27729,note_on,1,0,0,,7,,,67,127
27843,note_off,114,0,0,,7,,,67,127
27844,note_on,1,0,0,,6,,,66,127
27958,note_off,114,0,0,,6,,,66,127
27959,note_on,1,0,0,,4,,,64,127
28073,note_off,114,0,0,,4,,,64,127
28073,note_off,0,0,0,,4,,,76,127
28073,note_off,0,0,0,,1,,,73,127
28074,note_on,1,0,0,,2,,,74,127
28074,note_on,0,0,0,,6,,,78,127
28074,note_on,0,0,0,,2,,,62,127
28284,note_off,210,0,0,,6,,,78,127
28303,note_off,19,0,0,,2,,,62,127
28303,note_off,0,0,0,,2,,,74,127
28304,note_on,1,0,0,,7,,,79,127
28304,note_on,0,0,0,,4,,,76,127
28304,note_on,0,0,0,,1,,,61,127
28533,note_off,229,0,0,,1,,,61,127
28533,note_off,0,0,0,,4,,,76,127
28533,note_off,0,0,0,,7,,,79,127
28534,note_on,1,0,0,,6,,,78,127
28534,note_on,0,0,0,,2,,,74,127
28534,note_on,0,0,0,,2,,,62,127
28648,note_off,114,0,0,,2,,,62,127
28649,note_on,1,0,0,,4,,,64,127
28763,note_off,114,0,0,,4,,,64,127
28764,note_on,1,0,0,,6,,,66,127
28878,note_off,114,0,0,,6,,,66,127
28879,note_on,1,0,0,,7,,,67,127
28993,note_off,114,0,0,,7,,,67,127
28993,note_off,0,0,0,,2,,,74,127
28993,note_off,0,0,0,,6,,,78,127
28994,note_on,1,0,0,,1,,,73,127
28994,note_on,0,0,0,,4,,,76,127
28994,note_on,0,0,0,,10,,,69,127
29108,note_off,114,0,0,,4,,,76,127
29109,note_on,1,0,0,,10,,,81,127
29223,note_off,114,0,0,,10,,,81,127
29224,note_on,1,0,0,,4,,,76,127
29338,note_off,114,0,0,,4,,,76,127
29338,note_off,0,0,0,,1,,,73,127
29339,note_on,1,0,0,,1,,,73,127
29452,note_off,113,0,0,,10,,,69,127
29453,note_off,1,0,0,,1,,,73,127
29454,note_on,1,0,0,,10,,,69,127
29683,note_off,229,0,0,,10,,,69,127
29684,note_on,1,0,0,,10,,,81,127
29684,note_on,0,0,0,,1,,,73,127
29684,note_on,0,0,0,,4,,,76,127
29684,note_on,0,0,0,,10,,,69,127
29798,note_off,114,0,0,,10,,,69,127
29799,note_on,1,0,0,,7,,,67,127
29913,note_off,114,0,0,,7,,,67,127
29914,note_on,1,0,0,,6,,,66,127
30028,note_off,114,0,0,,6,,,66,127
30029,note_on,1,0,0,,4,,,64,127
30143,note_off,114,0,0,,4,,,64,127
30143,note_off,0,0,0,,4,,,76,127
30143,note_off,0,0,0,,1,,,73,127
30144,note_on,1,0,0,,6,,,78,127
30144,note_on,0,0,0,,2,,,74,127
30144,note_on,0,0,0,,2,,,62,127
30373,note_off,229,0,0,,2,,,62,127
30373,note_off,0,0,0,,2,,,74,127
30373,note_off,0,0,0,,6,,,78,127
30373,note_off,0,0,0,,10,,,81,127
30374,note_on,1,0,0,,10,,,81,127
30374,note_on,0,0,0,,1,,,73,127
30374,note_on,0,0,0,,4,,,76,127
30374,note_on,0,0,0,,10,,,57,127
30488,note_off,114,0,0,,10,,,57,127
30489,note_on,1,0,0,,7,,,55,127
30603,note_off,114,0,0,,7,,,55,127
30604,note_on,1,0,0,,6,,,54,127
30718,note_off,114,0,0,,6,,,54,127
30719,note_on,1,0,0,,4,,,52,127
30833,note_off,114,0,0,,4,,,52,127
30833,note_off,0,0,0,,4,,,76,127
30833,note_off,0,0,0,,1,,,73,127
30834,note_on,1,0,0,,2,,,74,127
30834,note_on,0,0,0,,6,,,78,127
30834,note_on,0,0,0,,2,,,50,127
31063,note_off,229,0,0,,2,,,50,127
31063,note_off,0,0,0,,6,,,78,127
31063,note_off,0,0,0,,2,,,74,127
31063,note_off,0,0,0,,10,,,81,127
31064,note_on,1,0,0,,4,,,76,127
31064,note_on,0,0,0,,7,,,79,127
31064,note_on,0,0,0,,7,,,55,127
31293,note_off,229,0,0,,7,,,55,127
31293,note_off,0,0,0,,7,,,79,127
31293,note_off,0,0,0,,4,,,76,127
31294,note_on,1,0,0,,2,,,74,127
31294,note_on,0,0,0,,6,,,78,127
31294,note_on,0,0,0,,10,,,57,127
31352,note_on,58,0,0,,1,,,73,127
31352,note_on,0,0,0,,4,,,76,127
31370,note_off,18,0,0,,6,,,78,127
31370,note_off,0,0,0,,2,,,74,127
31410,note_on,40,0,0,,6,,,78,127
31410,note_on,0,0,0,,2,,,74,127
31428,note_off,18,0,0,,4,,,76,127
31428,note_off,0,0,0,,1,,,73,127
31468,note_on,40,0,0,,4,,,76,127
31468,note_on,0,0,0,,1,,,73,127
31486,note_off,18,0,0,,2,,,74,127
31486,note_off,0,0,0,,6,,,78,127
31526,note_on,40,0,0,,2,,,74,127
31526,note_on,0,0,0,,6,,,78,127
31526,note_on,0,0,0,,10,,,45,127
31544,note_off,18,0,0,,1,,,73,127
31544,note_off,0,0,0,,4,,,76,127
31584,note_on,40,0,0,,4,,,76,127
31584,note_on,0,0,0,,1,,,73,127
31602,note_off,18,0,0,,6,,,78,127
31602,note_off,0,0,0,,2,,,74,127
31642,note_off,40,0,0,,10,,,57,127
31642,note_on,0,0,0,,2,,,74,127
31660,note_off,18,0,0,,1,,,73,127
31660,note_off,0,0,0,,4,,,76,127
31700,note_on,40,0,0,,4,,,76,127
31718,note_off,18,0,0,,2,,,74,127
31756,note_off,38,0,0,,4,,,76,127
31756,note_off,0,0,0,,10,,,45,127
31757,note_on,1,0,0,,2,,,74,127
31757,note_on,0,0,0,,2,,,38,127
32213,note_off,456,0,0,,2,,,74,127
32447,note_off,234,0,0,,2,,,38,127
32448,note_on,1,0,0,,6,,,78,127
32448,note_on,0,0,0,,2,,,74,127
32676,note_off,228,0,0,,2,,,74,127
32677,note_off,1,0,0,,6,,,78,127
32678,note_on,1,0,0,,2,,,74,127
32793,note_on,115,0,0,,4,,,76,127
32906,note_off,113,0,0,,2,,,74,127
32907,note_off,1,0,0,,4,,,76,127
32908,note_on,1,0,0,,6,,,78,127
32908,note_on,0,0,0,,1,,,73,127
33022,note_off,114,0,0,,6,,,78,127
33023,note_on,1,0,0,,4,,,76,127
33137,note_off,114,0,0,,4,,,76,127
33137,note_off,0,0,0,,1,,,73,127
33138,note_on,1,0,0,,2,,,74,127
33138,note_on,0,0,0,,12,,,71,127
33366,note_off,228,0,0,,12,,,71,127
33367,note_off,1,0,0,,2,,,74,127
33368,note_on,1,0,0,,12,,,71,127
33483,note_on,115,0,0,,1,,,73,127
33596,note_off,113,0,0,,12,,,71,127
33597,note_off,1,0,0,,1,,,73,127
33598,note_on,1,0,0,,2,,,74,127
33598,note_on,0,0,0,,10,,,69,127
33712,note_off,114,0,0,,2,,,74,127
33713,note_on,1,0,0,,1,,,73,127
33827,note_off,114,0,0,,1,,,73,127
33827,note_off,0,0,0,,10,,,69,127
33828,note_on,1,0,0,,12,,,71,127
33828,note_on,0,0,0,,7,,,67,127
34057,note_off,229,0,0,,12,,,71,127
34058,note_on,1,0,0,,1,,,73,127
34172,note_off,114,0,0,,1,,,73,127
34173,note_on,1,0,0,,2,,,74,127
34287,note_off,114,0,0,,2,,,74,127
34287,note_off,0,0,0,,7,,,67,127
34288,note_on,1,0,0,,4,,,76,127
34288,note_on,0,0,0,,6,,,66,127
34402,note_off,114,0,0,,4,,,76,127
34403,note_on,1,0,0,,6,,,78,127
34517,note_off,114,0,0,,6,,,78,127
34517,note_off,0,0,0,,6,,,66,127
34518,note_on,1,0,0,,7,,,79,127
34518,note_on,0,0,0,,4,,,64,127
34747,note_off,229,0,0,,4,,,64,127
34748,note_on,1,0,0,,4,,,76,127
34862,note_off,114,0,0,,4,,,76,127
34863,note_on,1,0,0,,2,,,74,127
34977,note_off,114,0,0,,2,,,74,127
34978,note_on,1,0,0,,1,,,73,127
35092,note_off,114,0,0,,1,,,73,127
35093,note_on,1,0,0,,12,,,71,127
35207,note_off,114,0,0,,12,,,71,127
35208,note_on,1,0,0,,11,,,70,127
35437,note_off,229,0,0,,7,,,79,127
35438,note_on,1,0,0,,6,,,78,127
35552,note_off,114,0,0,,6,,,78,127
35553,note_on,1,0,0,,4,,,76,127
35667,note_off,114,0,0,,4,,,76,127
35668,note_on,1,0,0,,2,,,74,127
35782,note_off,114,0,0,,2,,,74,127
35783,note_off,1,0,0,,11,,,70,127
35783,note_on,0,0,0,,1,,,73,127
35897,note_off,114,0,0,,1,,,73,127
35898,note_on,1,0,0,,2,,,74,127
35898,note_on,0,0,0,,12,,,71,127
36127,note_off,229,0,0,,12,,,71,127
36127,note_off,0,0,0,,2,,,74,127
36128,note_on,1,0,0,,4,,,76,127
36128,note_on,0,0,0,,1,,,73,127
36357,note_off,229,0,0,,1,,,73,127
36357,note_off,0,0,0,,4,,,76,127
36358,note_on,1,0,0,,6,,,78,127
36358,note_on,0,0,0,,2,,,74,127
36587,note_off,229,0,0,,2,,,74,127
36588,note_on,1,0,0,,4,,,64,127
36588,note_on,0,0,0,,7,,,67,127
36817,note_off,229,0,0,,7,,,67,127
36817,note_off,0,0,0,,4,,,64,127
36817,note_off,0,0,0,,6,,,78,127
36818,note_on,1,0,0,,4,,,76,127
36818,note_on,0,0,0,,6,,,66,127
36932,note_off,114,0,0,,4,,,76,127
36933,note_on,1,0,0,,2,,,74,127
37047,note_off,114,0,0,,2,,,74,127
37047,note_off,0,0,0,,6,,,66,127
37048,note_on,1,0,0,,1,,,73,127
37048,note_on,0,0,0,,7,,,67,127
37162,note_off,114,0,0,,1,,,73,127
37163,note_on,1,0,0,,12,,,71,127
37277,note_off,114,0,0,,12,,,71,127
37277,note_off,0,0,0,,7,,,67,127
37278,note_on,1,0,0,,11,,,70,127
37278,note_on,0,0,0,,6,,,66,127
37392,note_off,114,0,0,,11,,,70,127
37393,note_on,1,0,0,,12,,,71,127
37507,note_off,114,0,0,,12,,,71,127
37508,note_on,1,0,0,,1,,,73,127
37622,note_off,114,0,0,,1,,,73,127
37623,note_on,1,0,0,,2,,,74,127
37737,note_off,114,0,0,,2,,,74,127
37738,note_on,1,0,0,,1,,,73,127
37930,note_off,192,0,0,,1,,,73,127
37967,note_off,37,0,0,,6,,,66,127
37968,note_on,1,0,0,,1,,,73,127
37968,note_on,0,0,0,,6,,,78,127
37968,note_on,0,0,0,,11,,,70,127
37968,note_on,0,0,0,,6,,,66,127
38082,note_off,114,0,0,,6,,,66,127
38083,note_on,1,0,0,,4,,,64,127
38197,note_off,114,0,0,,4,,,64,127
38198,note_on,1,0,0,,2,,,62,127
38312,note_off,114,0,0,,2,,,62,127
38313,note_on,1,0,0,,1,,,61,127
38427,note_off,114,0,0,,1,,,61,127
38427,note_off,0,0,0,,11,,,70,127
38427,note_off,0,0,0,,1,,,73,127
38428,note_on,1,0,0,,2,,,74,127
38428,note_on,0,0,0,,12,,,71,127
38428,note_on,0,0,0,,12,,,59,127
38657,note_off,229,0,0,,12,,,59,127
38657,note_off,0,0,0,,12,,,71,127
38657,note_off,0,0,0,,2,,,74,127
38657,note_off,0,0,0,,6,,,78,127
38658,note_on,1,0,0,,11,,,70,127
38658,note_on,0,0,0,,1,,,73,127
38658,note_on,0,0,0,,6,,,78,127
38658,note_on,0,0,0,,6,,,54,127
38772,note_off,114,0,0,,6,,,54,127
38773,note_on,1,0,0,,4,,,52,127
38887,note_off,114,0,0,,4,,,52,127
38888,note_on,1,0,0,,2,,,50,127
39002,note_off,114,0,0,,2,,,50,127
39003,note_on,1,0,0,,1,,,49,127
39117,note_off,114,0,0,,1,,,49,127
39117,note_off,0,0,0,,1,,,73,127
39117,note_off,0,0,0,,11,,,70,127
39118,note_on,1,0,0,,12,,,71,127
39118,note_on,0,0,0,,2,,,74,127
39118,note_on,0,0,0,,12,,,47,127
39347,note_off,229,0,0,,12,,,47,127
39347,note_off,0,0,0,,2,,,74,127
39347,note_off,0,0,0,,12,,,71,127
39347,note_off,0,0,0,,6,,,78,127
39348,note_on,1,0,0,,4,,,76,127
39348,note_on,0,0,0,,1,,,73,127
39348,note_on,0,0,0,,4,,,52,127
39577,note_off,229,0,0,,4,,,52,127
39577,note_off,0,0,0,,1,,,73,127
39577,note_off,0,0,0,,4,,,76,127
39578,note_on,1,0,0,,11,,,70,127
39578,note_on,0,0,0,,2,,,74,127
39578,note_on,0,0,0,,6,,,54,127
39636,note_on,58,0,0,,1,,,73,127
39654,note_off,18,0,0,,2,,,74,127
39692,note_off,38,0,0,,6,,,54,127
39693,note_on,1,0,0,,2,,,74,127
39693,note_on,0,0,0,,4,,,52,127
39711,note_off,18,0,0,,1,,,73,127
39751,note_on,40,0,0,,1,,,73,127
39769,note_off,18,0,0,,2,,,74,127
39807,note_off,38,0,0,,4,,,52,127
39808,note_on,1,0,0,,2,,,74,127
39808,note_on,0,0,0,,2,,,50,127
39826,note_off,18,0,0,,1,,,73,127
39866,note_on,40,0,0,,1,,,73,127
39884,note_off,18,0,0,,2,,,74,127
39922,note_off,38,0,0,,2,,,50,127
39923,note_on,1,0,0,,12,,,71,127
39923,note_on,0,0,0,,1,,,49,127
39941,note_off,18,0,0,,1,,,73,127
39981,note_on,40,0,0,,1,,,73,127
39999,note_off,18,0,0,,12,,,71,127
40037,note_off,38,0,0,,1,,,73,127
40037,note_off,0,0,0,,1,,,49,127
40037,note_off,0,0,0,,11,,,70,127
40038,note_on,1,0,0,,2,,,74,127
40038,note_on,0,0,0,,12,,,71,127
40038,note_on,0,0,0,,12,,,47,127
40267,note_off,229,0,0,,12,,,47,127
40267,note_off,0,0,0,,12,,,71,127
40267,note_off,0,0,0,,2,,,74,127
40268,note_on,1,0,0,,4,,,76,127
40268,note_on,0,0,0,,1,,,49,127
40497,note_off,229,0,0,,1,,,49,127
40497,note_off,0,0,0,,4,,,76,127
40498,note_on,1,0,0,,6,,,78,127
40498,note_on,0,0,0,,2,,,50,127
40727,note_off,229,0,0,,2,,,50,127
40727,note_off,0,0,0,,6,,,78,127
40728,note_on,1,0,0,,4,,,76,127
40728,note_on,0,0,0,,7,,,79,127
40728,note_on,0,0,0,,4,,,52,127
40957,note_off,229,0,0,,4,,,52,127
40957,note_off,0,0,0,,7,,,79,127
40957,note_off,0,0,0,,4,,,76,127
40958,note_on,1,0,0,,10,,,81,127
40958,note_on,0,0,0,,6,,,78,127
40958,note_on,0,0,0,,10,,,57,127
41187,note_off,229,0,0,,10,,,57,127
41187,note_off,0,0,0,,6,,,78,127
41188,note_on,1,0,0,,4,,,76,127
41188,note_on,0,0,0,,6,,,54,127
41417,note_off,229,0,0,,6,,,54,127
41417,note_off,0,0,0,,4,,,76,127
41418,note_on,1,0,0,,3,,,75,127
41418,note_on,0,0,0,,12,,,59,127
41647,note_off,229,0,0,,12,,,59,127
41647,note_off,0,0,0,,3,,,75,127
41647,note_off,0,0,0,,10,,,81,127
41648,note_on,1,0,0,,4,,,76,127
41648,note_on,0,0,0,,7,,,79,127
41648,note_on,0,0,0,,4,,,64,127
41762,note_off,114,0,0,,4,,,64,127
41763,note_on,1,0,0,,2,,,62,127
41877,note_off,114,0,0,,2,,,62,127
41878,note_on,1,0,0,,12,,,71,127
41878,note_on,0,0,0,,0,,,60,127
41992,note_off,114,0,0,,0,,,60,127
41993,note_on,1,0,0,,12,,,59,127
42107,note_off,114,0,0,,12,,,59,127
42107,note_off,0,0,0,,12,,,71,127
42107,note_off,0,0,0,,4,,,76,127
42108,note_on,1,0,0,,0,,,72,127
42108,note_on,0,0,0,,10,,,57,127
42337,note_off,229,0,0,,10,,,57,127
42337,note_off,0,0,0,,0,,,72,127
42337,note_off,0,0,0,,7,,,79,127
42338,note_on,1,0,0,,6,,,78,127
42338,note_on,0,0,0,,12,,,59,127
42452,note_off,114,0,0,,6,,,78,127
42453,note_on,1,0,0,,4,,,76,127
42567,note_off,114,0,0,,4,,,76,127
42567,note_off,0,0,0,,12,,,59,127
42568,note_on,1,0,0,,3,,,75,127
42568,note_on,0,0,0,,0,,,60,127
42682,note_off,114,0,0,,3,,,75,127
42683,note_on,1,0,0,,4,,,76,127
42797,note_off,114,0,0,,4,,,76,127
42797,note_off,0,0,0,,0,,,60,127
42798,note_on,1,0,0,,6,,,78,127
42798,note_on,0,0,0,,12,,,59,127
42913,note_on,115,0,0,,12,,,83,127
43026,note_off,113,0,0,,6,,,78,127
43027,note_off,1,0,0,,12,,,83,127
43028,note_on,1,0,0,,6,,,78,127
43142,note_off,114,0,0,,6,,,78,127
43143,note_on,1,0,0,,3,,,75,127
43257,note_off,114,0,0,,3,,,75,127
43258,note_on,1,0,0,,12,,,71,127
43450,note_off,192,0,0,,12,,,71,127
43487,note_off,37,0,0,,12,,,59,127
43488,note_on,1,0,0,,3,,,75,127
43488,note_on,0,0,0,,6,,,78,127
43488,note_on,0,0,0,,12,,,71,127
43602,note_off,114,0,0,,12,,,71,127
43603,note_on,1,0,0,,10,,,69,127
43717,note_off,114,0,0,,10,,,69,127
43718,note_on,1,0,0,,7,,,67,127
43832,note_off,114,0,0,,7,,,67,127
43833,note_on,1,0,0,,6,,,66,127
43947,note_off,114,0,0,,6,,,66,127
43947,note_off,0,0,0,,6,,,78,127
43947,note_off,0,0,0,,3,,,75,127
43948,note_on,1,0,0,,4,,,76,127
43948,note_on,0,0,0,,7,,,79,127
43948,note_on,0,0,0,,4,,,64,127
44146,note_off,198,0,0,,7,,,79,127
44177,note_off,31,0,0,,4,,,64,127
44177,note_off,0,0,0,,4,,,76,127
44178,note_on,1,0,0,,3,,,75,127
44178,note_on,0,0,0,,6,,,78,127
44178,note_on,0,0,0,,12,,,71,127
44292,note_off,114,0,0,,12,,,71,127
44293,note_on,1,0,0,,10,,,69,127
44407,note_off,114,0,0,,10,,,69,127
44408,note_on,1,0,0,,7,,,67,127
44522,note_off,114,0,0,,7,,,67,127
44523,note_on,1,0,0,,6,,,66,127
44637,note_off,114,0,0,,6,,,66,127
44637,note_off,0,0,0,,6,,,78,127
44637,note_off,0,0,0,,3,,,75,127
44638,note_on,1,0,0,,4,,,76,127
44638,note_on,0,0,0,,7,,,79,127
44638,note_on,0,0,0,,4,,,64,127
44848,note_off,210,0,0,,7,,,79,127
44867,note_off,19,0,0,,4,,,64,127
44867,note_off,0,0,0,,4,,,76,127
44868,note_on,1,0,0,,10,,,81,127
44868,note_on,0,0,0,,6,,,78,127
44868,note_on,0,0,0,,3,,,63,127
45097,note_off,229,0,0,,3,,,63,127
45097,note_off,0,0,0,,6,,,78,127
45097,note_off,0,0,0,,10,,,81,127
45098,note_on,1,0,0,,7,,,79,127
45098,note_on,0,0,0,,4,,,76,127
45098,note_on,0,0,0,,4,,,64,127
45212,note_off,114,0,0,,4,,,64,127
45213,note_on,1,0,0,,6,,,66,127
45327,note_off,114,0,0,,6,,,66,127
45328,note_on,1,0,0,,7,,,67,127
45442,note_off,114,0,0,,7,,,67,127
45443,note_on,1,0,0,,10,,,69,127
45557,note_off,114,0,0,,10,,,69,127
45557,note_off,0,0,0,,4,,,76,127
45557,note_off,0,0,0,,7,,,79,127
45558,note_on,1,0,0,,3,,,75,127
45558,note_on,0,0,0,,6,,,78,127
45558,note_on,0,0,0,,12,,,71,127
45672,note_off,114,0,0,,6,,,78,127
45673,note_on,1,0,0,,12,,,83,127
45787,note_off,114,0,0,,12,,,83,127
45788,note_on,1,0,0,,6,,,78,127
45894,note_off,106,0,0,,3,,,75,127
45902,note_off,8,0,0,,6,,,78,127
45903,note_on,1,0,0,,3,,,75,127
46016,note_off,113,0,0,,12,,,71,127
46017,note_off,1,0,0,,3,,,75,127
46018,note_on,1,0,0,,12,,,71,127
46222,note_off,204,0,0,,12,,,71,127
46248,note_on,26,0,0,,12,,,83,127
46248,note_on,0,0,0,,3,,,75,127
46248,note_on,0,0,0,,6,,,78,127
46248,note_on,0,0,0,,12,,,71,127
46362,note_off,114,0,0,,12,,,71,127
46363,note_on,1,0,0,,10,,,69,127
46477,note_off,114,0,0,,10,,,69,127
46478,note_on,1,0,0,,7,,,67,127
46592,note_off,114,0,0,,7,,,67,127
46593,note_on,1,0,0,,6,,,66,127
46707,note_off,114,0,0,,6,,,66,127
46707,note_off,0,0,0,,6,,,78,127
46707,note_off,0,0,0,,3,,,75,127
46708,note_on,1,0,0,,4,,,76,127
46708,note_on,0,0,0,,7,,,79,127
46708,note_on,0,0,0,,4,,,64,127
46937,note_off,229,0,0,,4,,,64,127
46937,note_off,0,0,0,,7,,,79,127
46937,note_off,0,0,0,,4,,,76,127
46937,note_off,0,0,0,,12,,,83,127
46938,note_on,1,0,0,,6,,,78,127
46938,note_on,0,0,0,,12,,,83,127
46938,note_on,0,0,0,,3,,,75,127
46938,note_on,0,0,0,,12,,,59,127
47052,note_off,114,0,0,,12,,,59,127
47053,note_on,1,0,0,,10,,,57,127
47167,note_off,114,0,0,,10,,,57,127
47168,note_on,1,0,0,,7,,,55,127
47282,note_off,114,0,0,,7,,,55,127
47283,note_on,1,0,0,,6,,,54,127
47397,note_off,114,0,0,,6,,,54,127
47397,note_off,0,0,0,,3,,,75,127
47397,note_off,0,0,0,,6,,,78,127
47398,note_on,1,0,0,,7,,,79,127
47398,note_on,0,0,0,,4,,,76,127
47398,note_on,0,0,0,,4,,,52,127
47627,note_off,229,0,0,,4,,,52,127
47627,note_off,0,0,0,,4,,,76,127
47627,note_off,0,0,0,,7,,,79,127
47627,note_off,0,0,0,,12,,,83,127
47628,note_on,1,0,0,,6,,,78,127
47628,note_on,0,0,0,,10,,,81,127
47628,note_on,0,0,0,,10,,,57,127
47857,note_off,229,0,0,,10,,,57,127
47857,note_off,0,0,0,,10,,,81,127
47857,note_off,0,0,0,,6,,,78,127
47858,note_on,1,0,0,,4,,,76,127
47858,note_on,0,0,0,,7,,,79,127
47858,note_on,0,0,0,,12,,,59,127
47916,note_on,58,0,0,,3,,,75,127
47916,note_on,0,0,0,,6,,,78,127
47934,note_off,18,0,0,,7,,,79,127
47934,note_off,0,0,0,,4,,,76,127
47974,note_on,40,0,0,,7,,,79,127
47974,note_on,0,0,0,,4,,,76,127
47992,note_off,18,0,0,,6,,,78,127
47992,note_off,0,0,0,,3,,,75,127
48032,note_on,40,0,0,,6,,,78,127
48032,note_on,0,0,0,,3,,,75,127
48050,note_off,18,0,0,,4,,,76,127
48050,note_off,0,0,0,,7,,,79,127
48090,note_on,40,0,0,,7,,,79,127
48090,note_on,0,0,0,,4,,,76,127
48090,note_on,0,0,0,,12,,,47,127
48108,note_off,18,0,0,,3,,,75,127
48108,note_off,0,0,0,,6,,,78,127
48148,note_on,40,0,0,,6,,,78,127
48148,note_on,0,0,0,,3,,,75,127
48166,note_off,18,0,0,,4,,,76,127
48166,note_off,0,0,0,,7,,,79,127
48206,note_on,40,0,0,,4,,,76,127
48224,note_off,18,0,0,,3,,,75,127
48224,note_off,0,0,0,,6,,,78,127
48264,note_on,40,0,0,,6,,,78,127
48282,note_off,18,0,0,,4,,,76,127
48317,note_off,35,0,0,,12,,,59,127
48321,note_off,4,0,0,,6,,,78,127
48321,note_off,0,0,0,,12,,,47,127
48322,note_on,1,0,0,,4,,,76,127
48322,note_on,0,0,0,,7,,,79,127
48322,note_on,0,0,0,,4,,,52,127
48551,note_off,229,0,0,,4,,,52,127
48551,note_off,0,0,0,,7,,,79,127
48552,note_on,1,0,0,,10,,,81,127
48552,note_on,0,0,0,,6,,,78,127
48552,note_on,0,0,0,,6,,,54,127
48781,note_off,229,0,0,,6,,,54,127
48781,note_off,0,0,0,,6,,,78,127
48781,note_off,0,0,0,,10,,,81,127
48782,note_on,1,0,0,,7,,,79,127
48782,note_on,0,0,0,,12,,,83,127
48782,note_on,0,0,0,,7,,,55,127
49011,note_off,229,0,0,,7,,,55,127
49011,note_off,0,0,0,,12,,,83,127
49011,note_off,0,0,0,,7,,,79,127
49012,note_on,1,0,0,,6,,,78,127
49012,note_on,0,0,0,,10,,,57,127
49241,note_off,229,0,0,,10,,,57,127
49241,note_off,0,0,0,,4,,,76,127
49242,note_on,1,0,0,,2,,,74,127
49242,note_on,0,0,0,,12,,,59,127
49356,note_off,114,0,0,,12,,,59,127
49357,note_on,1,0,0,,10,,,57,127
49471,note_off,114,0,0,,10,,,57,127
49472,note_on,1,0,0,,7,,,55,127
49586,note_off,114,0,0,,7,,,55,127
49587,note_on,1,0,0,,6,,,54,127
49701,note_off,114,0,0,,6,,,54,127
49701,note_off,0,0,0,,6,,,78,127
49702,note_on,1,0,0,,8,,,80,127
49702,note_on,0,0,0,,4,,,52,127
49816,note_off,114,0,0,,4,,,52,127
49817,note_on,1,0,0,,2,,,50,127
49931,note_off,114,0,0,,2,,,50,127
49932,note_on,1,0,0,,1,,,49,127
50046,note_off,114,0,0,,1,,,49,127
50047,note_on,1,0,0,,12,,,47,127
50161,note_off,114,0,0,,12,,,47,127
50161,note_off,0,0,0,,8,,,80,127
50161,note_off,0,0,0,,2,,,74,127
50162,note_on,1,0,0,,1,,,73,127
50162,note_on,0,0,0,,10,,,81,127
50162,note_on,0,0,0,,10,,,45,127
50335,note_off,173,0,0,,10,,,81,127
50335,note_off,0,0,0,,1,,,73,127
50391,note_off,56,0,0,,10,,,45,127
50392,note_on,1,0,0,,1,,,73,127
50392,note_on,0,0,0,,4,,,76,127
50392,note_on,0,0,0,,10,,,69,127
50506,note_off,114,0,0,,10,,,69,127
50507,note_on,1,0,0,,8,,,68,127
50621,note_off,114,0,0,,8,,,68,127
50622,note_on,1,0,0,,6,,,66,127
50736,note_off,114,0,0,,6,,,66,127
50737,note_on,1,0,0,,4,,,64,127
50851,note_off,114,0,0,,4,,,64,127
50851,note_off,0,0,0,,4,,,76,127
50851,note_off,0,0,0,,1,,,73,127
50852,note_on,1,0,0,,6,,,78,127
50852,note_on,0,0,0,,2,,,74,127
50852,note_on,0,0,0,,2,,,62,127
51044,note_off,192,0,0,,6,,,78,127
51081,note_off,37,0,0,,2,,,62,127
51081,note_off,0,0,0,,2,,,74,127
51082,note_on,1,0,0,,2,,,74,127
51082,note_on,0,0,0,,12,,,71,127
51082,note_on,0,0,0,,8,,,68,127
51196,note_off,114,0,0,,8,,,68,127
51197,note_on,1,0,0,,6,,,66,127
51311,note_off,114,0,0,,6,,,66,127
51312,note_on,1,0,0,,4,,,64,127
51426,note_off,114,0,0,,4,,,64,127
51427,note_on,1,0,0,,2,,,62,127
51541,note_off,114,0,0,,2,,,62,127
51541,note_off,0,0,0,,12,,,71,127
51541,note_off,0,0,0,,2,,,74,127
51542,note_on,1,0,0,,4,,,76,127
51542,note_on,0,0,0,,1,,,73,127
51542,note_on,0,0,0,,1,,,61,127
51734,note_off,192,0,0,,4,,,76,127
51771,note_off,37,0,0,,1,,,61,127
51771,note_off,0,0,0,,1,,,73,127
51772,note_on,1,0,0,,10,,,69,127
51772,note_on,0,0,0,,1,,,73,127
51772,note_on,0,0,0,,6,,,66,127
51886,note_off,114,0,0,,6,,,66,127
51887,note_on,1,0,0,,4,,,64,127
52001,note_off,114,0,0,,4,,,64,127
52002,note_on,1,0,0,,2,,,62,127
52116,note_off,114,0,0,,2,,,62,127
52117,note_on,1,0,0,,1,,,61,127
52231,note_off,114,0,0,,1,,,61,127
52231,note_off,0,0,0,,1,,,73,127
52231,note_off,0,0,0,,10,,,69,127
52232,note_on,1,0,0,,12,,,71,127
52232,note_on,0,0,0,,2,,,74,127
52232,note_on,0,0,0,,12,,,59,127
52442,note_off,210,0,0,,2,,,74,127
52461,note_off,19,0,0,,12,,,59,127
52461,note_off,0,0,0,,12,,,71,127
52462,note_on,1,0,0,,8,,,68,127
52462,note_on,0,0,0,,12,,,71,127
52462,note_on,0,0,0,,4,,,64,127
52576,note_off,114,0,0,,12,,,71,127
52577,note_on,1,0,0,,4,,,76,127
52691,note_off,114,0,0,,4,,,76,127
52692,note_on,1,0,0,,12,,,71,127
52798,note_off,106,0,0,,8,,,68,127
52806,note_off,8,0,0,,12,,,71,127
52807,note_on,1,0,0,,8,,,68,127
52920,note_off,113,0,0,,4,,,64,127
52921,note_off,1,0,0,,8,,,68,127
52922,note_on,1,0,0,,4,,,64,127
53151,note_off,229,0,0,,4,,,64,127
53152,note_on,1,0,0,,12,,,71,127
53152,note_on,0,0,0,,4,,,76,127
53152,note_on,0,0,0,,8,,,68,127
53152,note_on,0,0,0,,4,,,64,127
53266,note_off,114,0,0,,4,,,64,127
53267,note_on,1,0,0,,2,,,62,127
53381,note_off,114,0,0,,2,,,62,127
53382,note_on,1,0,0,,1,,,61,127
53496,note_off,114,0,0,,1,,,61,127
53497,note_on,1,0,0,,12,,,59,127
53611,note_off,114,0,0,,12,,,59,127
53611,note_off,0,0,0,,8,,,68,127
53611,note_off,0,0,0,,12,,,71,127
53612,note_on,1,0,0,,10,,,69,127
53612,note_on,0,0,0,,1,,,73,127
53612,note_on,0,0,0,,10,,,57,127
53841,note_off,229,0,0,,10,,,57,127
53841,note_off,0,0,0,,1,,,73,127
53841,note_off,0,0,0,,10,,,69,127
53841,note_off,0,0,0,,4,,,76,127
53842,note_on,1,0,0,,4,,,76,127
53842,note_on,0,0,0,,12,,,71,127
53842,note_on,0,0,0,,8,,,68,127
53842,note_on,0,0,0,,4,,,52,127
53956,note_off,114,0,0,,4,,,52,127
53957,note_on,1,0,0,,2,,,50,127
54071,note_off,114,0,0,,2,,,50,127
54072,note_on,1,0,0,,1,,,49,127
54186,note_off,114,0,0,,1,,,49,127
54187,note_on,1,0,0,,12,,,47,127
54301,note_off,114,0,0,,12,,,47,127
54301,note_off,0,0,0,,8,,,68,127
54301,note_off,0,0,0,,12,,,71,127
54302,note_on,1,0,0,,1,,,73,127
54302,note_on,0,0,0,,10,,,69,127
54302,note_on,0,0,0,,10,,,45,127
54531,note_off,229,0,0,,10,,,45,127
54531,note_off,0,0,0,,10,,,69,127
54531,note_off,0,0,0,,1,,,73,127
54531,note_off,0,0,0,,4,,,76,127
54532,note_on,1,0,0,,2,,,74,127
54532,note_on,0,0,0,,6,,,78,127
54532,note_on,0,0,0,,2,,,50,127
54761,note_off,229,0,0,,2,,,50,127
54761,note_off,0,0,0,,6,,,78,127
54761,note_off,0,0,0,,2,,,74,127
54762,note_on,1,0,0,,4,,,76,127
54762,note_on,0,0,0,,1,,,73,127
54762,note_on,0,0,0,,4,,,52,127
54991,note_off,229,0,0,,1,,,73,127
54991,note_off,0,0,0,,4,,,76,127
54992,note_on,1,0,0,,12,,,71,127
54992,note_on,0,0,0,,2,,,74,127
54992,note_on,0,0,0,,4,,,40,127
55218,note_off,226,0,0,,4,,,52,127
55222,note_off,4,0,0,,4,,,40,127
55222,note_off,0,0,0,,2,,,74,127
55222,note_off,0,0,0,,12,,,71,127
55223,note_on,1,0,0,,7,,,79,127
55223,note_on,0,0,0,,1,,,73,127
55223,note_on,0,0,0,,10,,,45,127
55452,note_off,229,0,0,,10,,,45,127
55452,note_off,0,0,0,,1,,,73,127
55452,note_off,0,0,0,,7,,,79,127
55453,note_on,1,0,0,,7,,,79,127
55453,note_on,0,0,0,,2,,,74,127
55453,note_on,0,0,0,,12,,,47,127
55682,note_off,229,0,0,,12,,,47,127
55682,note_off,0,0,0,,2,,,74,127
55683,note_on,1,0,0,,4,,,76,127
55683,note_on,0,0,0,,1,,,49,127
55912,note_off,229,0,0,,1,,,49,127
55912,note_off,0,0,0,,4,,,76,127
55912,note_off,0,0,0,,7,,,79,127
55913,note_on,1,0,0,,10,,,69,127
55913,note_on,0,0,0,,6,,,78,127
55913,note_on,0,0,0,,2,,,50,127
56142,note_off,229,0,0,,2,,,50,127
56142,note_off,0,0,0,,6,,,78,127
56143,note_on,1,0,0,,7,,,79,127
56143,note_on,0,0,0,,4,,,52,127
56372,note_off,229,0,0,,4,,,52,127
56372,note_off,0,0,0,,7,,,79,127
56373,note_on,1,0,0,,10,,,81,127
56373,note_on,0,0,0,,6,,,54,127
56602,note_off,229,0,0,,6,,,54,127
56602,note_off,0,0,0,,10,,,69,127
56603,note_on,1,0,0,,12,,,71,127
56603,note_on,0,0,0,,7,,,55,127
56832,note_off,229,0,0,,7,,,55,127
56832,note_off,0,0,0,,10,,,81,127
56833,note_on,1,0,0,,7,,,79,127
56833,note_on,0,0,0,,10,,,57,127
56891,note_off,58,0,0,,12,,,71,127
56947,note_off,56,0,0,,7,,,79,127
56948,note_on,1,0,0,,6,,,78,127
57062,note_off,114,0,0,,6,,,78,127
57062,note_off,0,0,0,,10,,,57,127
57063,note_on,1,0,0,,4,,,76,127
57063,note_on,0,0,0,,12,,,59,127
57177,note_off,114,0,0,,4,,,76,127
57178,note_on,1,0,0,,2,,,74,127
57292,note_off,114,0,0,,2,,,74,127
57292,note_off,0,0,0,,12,,,59,127
57293,note_on,1,0,0,,1,,,73,127
57293,note_on,0,0,0,,10,,,57,127
57408,note_on,115,0,0,,10,,,69,127
57521,note_off,113,0,0,,1,,,73,127
57522,note_off,1,0,0,,10,,,69,127
57523,note_on,1,0,0,,1,,,73,127
57637,note_off,114,0,0,,1,,,73,127
57638,note_on,1,0,0,,4,,,76,127
57752,note_off,114,0,0,,4,,,76,127
57753,note_on,1,0,0,,10,,,81,127
57982,note_off,229,0,0,,10,,,81,127
57982,note_off,0,0,0,,10,,,57,127
57983,note_on,1,0,0,,1,,,73,127
57983,note_on,0,0,0,,4,,,76,127
57983,note_on,0,0,0,,10,,,69,127
58097,note_off,114,0,0,,10,,,69,127
58098,note_on,1,0,0,,7,,,67,127
58212,note_off,114,0,0,,7,,,67,127
58213,note_on,1,0,0,,6,,,66,127
58327,note_off,114,0,0,,6,,,66,127
58328,note_on,1,0,0,,4,,,64,127
58442,note_off,114,0,0,,4,,,64,127
58442,note_off,0,0,0,,4,,,76,127
58442,note_off,0,0,0,,1,,,73,127
58443,note_on,1,0,0,,2,,,74,127
58443,note_on,0,0,0,,6,,,78,127
58443,note_on,0,0,0,,2,,,62,127
58635,note_off,192,0,0,,6,,,78,127
58672,note_off,37,0,0,,2,,,62,127
58672,note_off,0,0,0,,2,,,74,127
58673,note_on,1,0,0,,4,,,76,127
58673,note_on,0,0,0,,1,,,73,127
58673,note_on,0,0,0,,10,,,69,127
58787,note_off,114,0,0,,10,,,69,127
58788,note_on,1,0,0,,7,,,67,127
58902,note_off,114,0,0,,7,,,67,127
58903,note_on,1,0,0,,6,,,66,127
59017,note_off,114,0,0,,6,,,66,127
59018,note_on,1,0,0,,4,,,64,127
59132,note_off,114,0,0,,4,,,64,127
59132,note_off,0,0,0,,1,,,73,127
59132,note_off,0,0,0,,4,,,76,127
59133,note_on,1,0,0,,2,,,74,127
59133,note_on,0,0,0,,6,,,78,127
59133,note_on,0,0,0,,2,,,62,127
59325,note_off,192,0,0,,6,,,78,127
59362,note_off,37,0,0,,2,,,62,127
59362,note_off,0,0,0,,2,,,74,127
59363,note_on,1,0,0,,4,,,76,127
59363,note_on,0,0,0,,7,,,79,127
59363,note_on,0,0,0,,1,,,61,127
59592,note_off,229,0,0,,1,,,61,127
59592,note_off,0,0,0,,7,,,79,127
59592,note_off,0,0,0,,4,,,76,127
59593,note_on,1,0,0,,2,,,74,127
59593,note_on,0,0,0,,6,,,78,127
59593,note_on,0,0,0,,2,,,62,127
59707,note_off,114,0,0,,2,,,62,127
59708,note_on,1,0,0,,4,,,64,127
59822,note_off,114,0,0,,4,,,64,127
59823,note_on,1,0,0,,6,,,66,127
59937,note_off,114,0,0,,6,,,66,127
59938,note_on,1,0,0,,7,,,67,127
60052,note_off,114,0,0,,7,,,67,127
60052,note_off,0,0,0,,6,,,78,127
60052,note_off,0,0,0,,2,,,74,127
60053,note_on,1,0,0,,1,,,73,127
60053,note_on,0,0,0,,4,,,76,127
60053,note_on,0,0,0,,10,,,69,127
60168,note_on,115,0,0,,10,,,81,127
60281,note_off,113,0,0,,4,,,76,127
60282,note_off,1,0,0,,10,,,81,127
60283,note_on,1,0,0,,4,,,76,127
60389,note_off,106,0,0,,1,,,73,127
60399,note_on,10,0,0,,1,,,73,127
60512,note_off,113,0,0,,4,,,76,127
60512,note_off,0,0,0,,10,,,69,127
60513,note_off,1,0,0,,1,,,73,127
60514,note_on,1,0,0,,10,,,69,127
60743,note_off,229,0,0,,10,,,69,127
60744,note_on,1,0,0,,4,,,76,127
60744,note_on,0,0,0,,10,,,81,127
60744,note_on,0,0,0,,1,,,73,127
60744,note_on,0,0,0,,10,,,69,127
60858,note_off,114,0,0,,10,,,69,127
60859,note_on,1,0,0,,7,,,67,127
60973,note_off,114,0,0,,7,,,67,127
60974,note_on,1,0,0,,6,,,66,127
61088,note_off,114,0,0,,6,,,66,127
61089,note_on,1,0,0,,4,,,64,127
61203,note_off,114,0,0,,4,,,64,127
61203,note_off,0,0,0,,1,,,73,127
61203,note_off,0,0,0,,4,,,76,127
61204,note_on,1,0,0,,2,,,74,127
61204,note_on,0,0,0,,6,,,78,127
61204,note_on,0,0,0,,2,,,62,127
61433,note_off,229,0,0,,2,,,62,127
61433,note_off,0,0,0,,6,,,78,127
61433,note_off,0,0,0,,2,,,74,127
61433,note_off,0,0,0,,10,,,81,127
61434,note_on,1,0,0,,4,,,76,127
61434,note_on,0,0,0,,10,,,81,127
61434,note_on,0,0,0,,1,,,73,127
61434,note_on,0,0,0,,10,,,57,127
61548,note_off,114,0,0,,10,,,57,127
61549,note_on,1,0,0,,7,,,55,127
61663,note_off,114,0,0,,7,,,55,127
61664,note_on,1,0,0,,6,,,54,127
61778,note_off,114,0,0,,6,,,54,127
61779,note_on,1,0,0,,4,,,52,127
61893,note_off,114,0,0,,4,,,52,127
61893,note_off,0,0,0,,1,,,73,127
61893,note_off,0,0,0,,4,,,76,127
61894,note_on,1,0,0,,2,,,74,127
61894,note_on,0,0,0,,6,,,78,127
61894,note_on,0,0,0,,2,,,50,127
62123,note_off,229,0,0,,2,,,50,127
62123,note_off,0,0,0,,6,,,78,127
62123,note_off,0,0,0,,2,,,74,127
62123,note_off,0,0,0,,10,,,81,127
62124,note_on,1,0,0,,4,,,76,127
62124,note_on,0,0,0,,7,,,79,127
62124,note_on,0,0,0,,7,,,55,127
62353,note_off,229,0,0,,7,,,55,127
62353,note_off,0,0,0,,7,,,79,127
62353,note_off,0,0,0,,4,,,76,127
62354,note_on,1,0,0,,2,,,74,127
62354,note_on,0,0,0,,6,,,78,127
62354,note_on,0,0,0,,10,,,57,127
62412,note_on,58,0,0,,1,,,73,127
62412,note_on,0,0,0,,4,,,76,127
62430,note_off,18,0,0,,6,,,78,127
62430,note_off,0,0,0,,2,,,74,127
62470,note_on,40,0,0,,6,,,78,127
62470,note_on,0,0,0,,2,,,74,127
62488,note_off,18,0,0,,4,,,76,127
62488,note_off,0,0,0,,1,,,73,127
62528,note_on,40,0,0,,4,,,76,127
62528,note_on,0,0,0,,1,,,73,127
62546,note_off,18,0,0,,2,,,74,127
62546,note_off,0,0,0,,6,,,78,127
62586,note_on,40,0,0,,6,,,78,127
62586,note_on,0,0,0,,2,,,74,127
62586,note_on,0,0,0,,10,,,45,127
62604,note_off,18,0,0,,1,,,73,127
62604,note_off,0,0,0,,4,,,76,127
62644,note_on,40,0,0,,4,,,76,127
62644,note_on,0,0,0,,1,,,73,127
62662,note_off,18,0,0,,2,,,74,127
62662,note_off,0,0,0,,6,,,78,127
62702,note_on,40,0,0,,2,,,74,127
62720,note_off,18,0,0,,1,,,73,127
62720,note_off,0,0,0,,4,,,76,127
62760,note_on,40,0,0,,4,,,76,127
62778,note_off,18,0,0,,2,,,74,127
62813,note_off,35,0,0,,10,,,57,127
62817,note_off,4,0,0,,4,,,76,127
62817,note_off,0,0,0,,10,,,45,127
62818,note_on,1,0,0,,2,,,74,127
62818,note_on,0,0,0,,2,,,38,127
62818,note_on,0,0,0,,2,,,50,127
63047,note_off,229,0,0,,2,,,74,127
63048,note_on,1,0,0,,0,,,72,127
63048,note_on,0,0,0,,10,,,81,127
63277,note_off,229,0,0,,0,,,72,127
63278,note_on,1,0,0,,10,,,69,127
63507,note_off,229,0,0,,10,,,69,127
63507,note_off,0,0,0,,2,,,50,127
63507,note_off,0,0,0,,2,,,38,127
63508,note_on,1,0,0,,12,,,71,127
63508,note_on,0,0,0,,2,,,50,127
63508,note_on,0,0,0,,2,,,38,127
63737,note_off,229,0,0,,10,,,81,127
63738,note_on,1,0,0,,7,,,79,127
63967,note_off,229,0,0,,12,,,71,127
63968,note_on,1,0,0,,1,,,73,127
64197,note_off,229,0,0,,1,,,73,127
64197,note_off,0,0,0,,2,,,38,127
64197,note_off,0,0,0,,2,,,50,127
64198,note_on,1,0,0,,10,,,69,127
64198,note_on,0,0,0,,2,,,50,127
64198,note_on,0,0,0,,2,,,38,127
64427,note_off,229,0,0,,7,,,79,127
64428,note_on,1,0,0,,6,,,78,127
64542,note_off,114,0,0,,6,,,78,127
64543,note_on,1,0,0,,4,,,76,127
64657,note_off,114,0,0,,4,,,76,127
64658,note_on,1,0,0,,2,,,74,127
64772,note_off,114,0,0,,2,,,74,127
64773,note_on,1,0,0,,1,,,73,127
64887,note_off,114,0,0,,1,,,73,127
64887,note_off,0,0,0,,2,,,38,127
64887,note_off,0,0,0,,2,,,50,127
64887,note_off,0,0,0,,10,,,69,127
64888,note_on,1,0,0,,7,,,67,127
64888,note_on,0,0,0,,12,,,71,127
64888,note_on,0,0,0,,2,,,50,127
64888,note_on,0,0,0,,2,,,38,127
65117,note_off,229,0,0,,12,,,71,127
65118,note_on,1,0,0,,1,,,73,127
65347,note_off,229,0,0,,7,,,67,127
65348,note_on,1,0,0,,4,,,64,127
65577,note_off,229,0,0,,4,,,64,127
65577,note_off,0,0,0,,1,,,73,127
65577,note_off,0,0,0,,2,,,38,127
65577,note_off,0,0,0,,2,,,50,127
65578,note_on,1,0,0,,2,,,74,127
65578,note_on,0,0,0,,6,,,66,127
65578,note_on,0,0,0,,2,,,50,127
65578,note_on,0,0,0,,2,,,38,127
65807,note_off,229,0,0,,2,,,74,127
65808,note_on,1,0,0,,0,,,72,127
66037,note_off,229,0,0,,6,,,66,127
66038,note_on,1,0,0,,10,,,69,127
66267,note_off,229,0,0,,10,,,69,127
66267,note_off,0,0,0,,2,,,38,127
66267,note_off,0,0,0,,2,,,50,127
66268,note_on,1,0,0,,2,,,62,127
66268,note_on,0,0,0,,2,,,50,127
66268,note_on,0,0,0,,2,,,38,127
66497,note_off,229,0,0,,0,,,72,127
66498,note_on,1,0,0,,12,,,71,127
66612,note_off,114,0,0,,2,,,62,127
66613,note_on,1,0,0,,6,,,66,127
66727,note_off,114,0,0,,6,,,66,127
66728,note_on,1,0,0,,4,,,64,127
66842,note_off,114,0,0,,4,,,64,127
66843,note_on,1,0,0,,2,,,62,127
66957,note_off,114,0,0,,2,,,62,127
66957,note_off,0,0,0,,2,,,38,127
66957,note_off,0,0,0,,2,,,50,127
66958,note_on,1,0,0,,1,,,61,127
66958,note_on,0,0,0,,2,,,50,127
66958,note_on,0,0,0,,2,,,38,127
67187,note_off,229,0,0,,12,,,71,127
67188,note_on,1,0,0,,10,,,69,127
67302,note_off,114,0,0,,10,,,69,127
67303,note_on,1,0,0,,7,,,67,127
67417,note_off,114,0,0,,7,,,67,127
67418,note_on,1,0,0,,6,,,66,127
67532,note_off,114,0,0,,6,,,66,127
67533,note_on,1,0,0,,4,,,64,127
67647,note_off,114,0,0,,4,,,64,127
67647,note_off,0,0,0,,2,,,38,127
67647,note_off,0,0,0,,2,,,50,127
67647,note_off,0,0,0,,1,,,61,127
67648,note_on,1,0,0,,2,,,74,127
67648,note_on,0,0,0,,2,,,62,127
67648,note_on,0,0,0,,6,,,66,127
67648,note_on,0,0,0,,2,,,50,127
67648,note_on,0,0,0,,2,,,38,127
67877,note_off,229,0,0,,6,,,66,127
67877,note_off,0,0,0,,2,,,62,127
67878,note_on,1,0,0,,4,,,64,127
67878,note_on,0,0,0,,7,,,67,127
68107,note_off,229,0,0,,7,,,67,127
68107,note_off,0,0,0,,4,,,64,127
68108,note_on,1,0,0,,10,,,69,127
68108,note_on,0,0,0,,6,,,66,127
68337,note_off,229,0,0,,6,,,66,127
68337,note_off,0,0,0,,10,,,69,127
68337,note_off,0,0,0,,2,,,38,127
68338,note_on,1,0,0,,12,,,71,127
68338,note_on,0,0,0,,7,,,67,127
68338,note_on,0,0,0,,2,,,38,127
68567,note_off,229,0,0,,7,,,67,127
68567,note_off,0,0,0,,12,,,71,127
68567,note_off,0,0,0,,2,,,74,127
68568,note_on,1,0,0,,10,,,69,127
68568,note_on,0,0,0,,1,,,73,127
68797,note_off,229,0,0,,1,,,73,127
68797,note_off,0,0,0,,10,,,69,127
68798,note_on,1,0,0,,2,,,74,127
68798,note_on,0,0,0,,12,,,71,127
69002,note_off,204,0,0,,12,,,71,127
69002,note_off,0,0,0,,2,,,74,127
69027,note_off,25,0,0,,2,,,38,127
69028,note_off,1,0,0,,2,,,50,127
69028,note_on,0,0,0,,4,,,76,127
69028,note_on,0,0,0,,1,,,73,127
69028,note_on,0,0,0,,10,,,69,127
69142,note_off,114,0,0,,10,,,69,127
69143,note_on,1,0,0,,7,,,67,127
69257,note_off,114,0,0,,7,,,67,127
69258,note_on,1,0,0,,6,,,66,127
69372,note_off,114,0,0,,6,,,66,127
69373,note_on,1,0,0,,4,,,64,127
69487,note_off,114,0,0,,4,,,64,127
69487,note_off,0,0,0,,1,,,73,127
69487,note_off,0,0,0,,4,,,76,127
69488,note_on,1,0,0,,6,,,78,127
69488,note_on,0,0,0,,2,,,74,127
69488,note_on,0,0,0,,2,,,62,127
69704,note_off,216,0,0,,6,,,78,127
69717,note_off,13,0,0,,2,,,62,127
69717,note_off,0,0,0,,2,,,74,127
69718,note_on,1,0,0,,1,,,73,127
69718,note_on,0,0,0,,4,,,76,127
69718,note_on,0,0,0,,10,,,69,127
69832,note_off,114,0,0,,10,,,69,127
69833,note_on,1,0,0,,7,,,67,127
69947,note_off,114,0,0,,7,,,67,127
69948,note_on,1,0,0,,6,,,66,127
70062,note_off,114,0,0,,6,,,66,127
70063,note_on,1,0,0,,4,,,64,127
70177,note_off,114,0,0,,4,,,64,127
70177,note_off,0,0,0,,4,,,76,127
70177,note_off,0,0,0,,1,,,73,127
70178,note_on,1,0,0,,6,,,78,127
70178,note_on,0,0,0,,2,,,74,127
70178,note_on,0,0,0,,2,,,62,127
70394,note_off,216,0,0,,6,,,78,127
70407,note_off,13,0,0,,2,,,62,127
70407,note_off,0,0,0,,2,,,74,127
70408,note_on,1,0,0,,7,,,79,127
70408,note_on,0,0,0,,4,,,76,127
70408,note_on,0,0,0,,1,,,61,127
70637,note_off,229,0,0,,1,,,61,127
70637,note_off,0,0,0,,4,,,76,127
70637,note_off,0,0,0,,7,,,79,127
70638,note_on,1,0,0,,2,,,74,127
70638,note_on,0,0,0,,6,,,78,127
70638,note_on,0,0,0,,2,,,62,127
70752,note_off,114,0,0,,2,,,62,127
70753,note_on,1,0,0,,4,,,64,127
70867,note_off,114,0,0,,4,,,64,127
70868,note_on,1,0,0,,6,,,66,127
70982,note_off,114,0,0,,6,,,66,127
70983,note_on,1,0,0,,7,,,67,127
71097,note_off,114,0,0,,7,,,67,127
71097,note_off,0,0,0,,6,,,78,127
71097,note_off,0,0,0,,2,,,74,127
71098,note_on,1,0,0,,1,,,73,127
71098,note_on,0,0,0,,4,,,76,127
71098,note_on,0,0,0,,10,,,69,127
71213,note_on,115,0,0,,10,,,81,127
71326,note_off,113,0,0,,4,,,76,127
71327,note_off,1,0,0,,10,,,81,127
71328,note_on,1,0,0,,4,,,76,127
71434,note_off,106,0,0,,1,,,73,127
71442,note_off,8,0,0,,4,,,76,127
71443,note_on,1,0,0,,1,,,73,127
71556,note_off,113,0,0,,10,,,69,127
71557,note_off,1,0,0,,1,,,73,127
71558,note_on,1,0,0,,10,,,69,127
71787,note_off,229,0,0,,10,,,69,127
71788,note_on,1,0,0,,4,,,76,127
71788,note_on,0,0,0,,10,,,81,127
71788,note_on,0,0,0,,1,,,73,127
71788,note_on,0,0,0,,10,,,69,127
71902,note_off,114,0,0,,10,,,69,127
71903,note_on,1,0,0,,7,,,67,127
72017,note_off,114,0,0,,7,,,67,127
72018,note_on,1,0,0,,6,,,66,127
72132,note_off,114,0,0,,6,,,66,127
72133,note_on,1,0,0,,4,,,64,127
72247,note_off,114,0,0,,4,,,64,127
72247,note_off,0,0,0,,1,,,73,127
72247,note_off,0,0,0,,4,,,76,127
72248,note_on,1,0,0,,6,,,78,127
72248,note_on,0,0,0,,2,,,74,127
72248,note_on,0,0,0,,2,,,62,127
72477,note_off,229,0,0,,2,,,62,127
72477,note_off,0,0,0,,2,,,74,127
72477,note_off,0,0,0,,6,,,78,127
72477,note_off,0,0,0,,10,,,81,127
72478,note_on,1,0,0,,1,,,73,127
72478,note_on,0,0,0,,4,,,76,127
72478,note_on,0,0,0,,10,,,81,127
72478,note_on,0,0,0,,10,,,57,127
72592,note_off,114,0,0,,10,,,57,127
72593,note_on,1,0,0,,7,,,55,127
72707,note_off,114,0,0,,7,,,55,127
72708,note_on,1,0,0,,6,,,54,127
72822,note_off,114,0,0,,6,,,54,127
72823,note_on,1,0,0,,4,,,52,127
72937,note_off,114,0,0,,4,,,52,127
72937,note_off,0,0,0,,4,,,76,127
72937,note_off,0,0,0,,1,,,73,127
72938,note_on,1,0,0,,6,,,78,127
72938,note_on,0,0,0,,2,,,74,127
72938,note_on,0,0,0,,2,,,50,127
73167,note_off,229,0,0,,2,,,50,127
73167,note_off,0,0,0,,2,,,74,127
73167,note_off,0,0,0,,6,,,78,127
73167,note_off,0,0,0,,10,,,81,127
73168,note_on,1,0,0,,7,,,79,127
73168,note_on,0,0,0,,12,,,83,127
73168,note_on,0,0,0,,2,,,74,127
73168,note_on,0,0,0,,7,,,55,127
73397,note_off,229,0,0,,7,,,55,127
73397,note_off,0,0,0,,12,,,83,127
73397,note_off,0,0,0,,7,,,79,127
73398,note_on,1,0,0,,6,,,78,127
73398,note_on,0,0,0,,10,,,81,127
73398,note_on,0,0,0,,10,,,57,127
73627,note_off,229,0,0,,10,,,81,127
73627,note_off,0,0,0,,6,,,78,127
73627,note_off,0,0,0,,2,,,74,127
73628,note_on,1,0,0,,4,,,76,127
73628,note_on,0,0,0,,7,,,79,127
73628,note_on,0,0,0,,1,,,73,127
73628,note_on,0,0,0,,10,,,45,127
73854,note_off,226,0,0,,10,,,57,127
73858,note_off,4,0,0,,10,,,45,127
73858,note_off,0,0,0,,1,,,73,127
73858,note_off,0,0,0,,7,,,79,127
73858,note_off,0,0,0,,4,,,76,127
73859,note_on,1,0,0,,6,,,78,127
73859,note_on,0,0,0,,2,,,50,127
73973,note_off,114,0,0,,6,,,78,127
73974,note_on,1,0,0,,4,,,76,127
74088,note_off,114,0,0,,4,,,76,127
74088,note_off,0,0,0,,2,,,50,127
74089,note_on,1,0,0,,2,,,74,127
74089,note_on,0,0,0,,4,,,52,127
74203,note_off,114,0,0,,2,,,74,127
74204,note_on,1,0,0,,1,,,73,127
74318,note_off,114,0,0,,1,,,73,127
74318,note_off,0,0,0,,4,,,52,127
74319,note_on,1,0,0,,12,,,71,127
74319,note_on,0,0,0,,6,,,54,127
74433,note_off,114,0,0,,12,,,71,127
74434,note_on,1,0,0,,10,,,69,127
74548,note_off,114,0,0,,10,,,69,127
74548,note_off,0,0,0,,6,,,54,127
74549,note_on,1,0,0,,7,,,67,127
74549,note_on,0,0,0,,7,,,55,127
74663,note_off,114,0,0,,7,,,67,127
74664,note_on,1,0,0,,6,,,66,127
74778,note_off,114,0,0,,6,,,66,127
74778,note_off,0,0,0,,7,,,55,127
74779,note_on,1,0,0,,4,,,64,127
74779,note_on,0,0,0,,10,,,57,127
74893,note_off,114,0,0,,4,,,64,127
74894,note_on,1,0,0,,2,,,62,127
75008,note_off,114,0,0,,2,,,62,127
75009,note_on,1,0,0,,4,,,64,127
75009,note_on,0,0,0,,10,,,45,127
75123,note_off,114,0,0,,4,,,64,127
75124,note_on,1,0,0,,1,,,61,127
75234,note_off,110,0,0,,10,,,57,127
75238,note_off,4,0,0,,1,,,61,127
75238,note_off,0,0,0,,10,,,45,127
75239,note_on,1,0,0,,2,,,62,127
75239,note_on,0,0,0,,2,,,38,127
77082,note_off,1843,0,0,,2,,,38,127
77082,note_off,0,0,0,,2,,,62,127
81408,end_of_track,4326,1,0,,,,,,
