tick,type,time,meta,track,program,channel,pitch,tempo,note,velocity
0,copyright,0,1,0,,,,,,
0,program_change,0,0,0,6,0,,,,
0,pitchwheel,0,0,0,,0,0,,,
0,program_change,0,0,0,6,1,,,,
0,pitchwheel,0,0,0,,1,-590,,,
0,program_change,0,0,0,6,2,,,,
0,pitchwheel,0,0,0,,2,-272,,,
0,program_change,0,0,0,6,3,,,,
0,pitchwheel,0,0,0,,3,-353,,,
0,program_change,0,0,0,6,4,,,,
0,pitchwheel,0,0,0,,4,-560,,,
0,program_change,0,0,0,6,5,,,,
0,pitchwheel,0,0,0,,5,-80,,,
0,program_change,0,0,0,6,6,,,,
0,pitchwheel,0,0,0,,6,-625,,,
0,program_change,0,0,0,6,7,,,,
0,pitchwheel,0,0,0,,7,-130,,,
0,program_change,0,0,0,6,8,,,,
0,pitchwheel,0,0,0,,8,-512,,,
0,program_change,0,0,0,6,10,,,,
0,pitchwheel,0,0,0,,10,-464,,,
0,program_change,0,0,0,6,11,,,,
0,pitchwheel,0,0,0,,11,-208,,,
0,program_change,0,0,0,6,12,,,,
0,pitchwheel,0,0,0,,12,-553,,,
0,set_tempo,0,1,0,,,,500000,,
96,note_on,96,0,0,,7,,,79,127
287,note_off,191,0,0,,7,,,79,127
288,note_on,1,0,0,,12,,,83,127
383,note_off,95,0,0,,12,,,83,127
384,note_on,1,0,0,,10,,,81,127
479,note_off,95,0,0,,10,,,81,127
480,note_on,1,0,0,,7,,,79,127
671,note_off,191,0,0,,7,,,79,127
672,note_on,1,0,0,,6,,,78,127
863,note_off,191,0,0,,6,,,78,127
864,note_on,1,0,0,,7,,,79,127
1055,note_off,191,0,0,,7,,,79,127
1056,note_on,1,0,0,,2,,,74,127
1247,note_off,191,0,0,,2,,,74,127
1248,note_on,1,0,0,,12,,,71,127
1439,note_off,191,0,0,,12,,,71,127
1440,note_on,1,0,0,,7,,,67,127
1631,note_off,191,0,0,,7,,,67,127
1632,note_on,1,0,0,,7,,,67,127
1632,note_on,0,0,0,,7,,,79,127
1823,note_off,191,0,0,,7,,,67,127
1824,note_on,1,0,0,,12,,,71,127
1919,note_off,95,0,0,,12,,,71,127
1920,note_on,1,0,0,,10,,,69,127
2015,note_off,95,0,0,,10,,,69,127
2015,note_off,0,0,0,,7,,,79,127
2016,note_on,1,0,0,,7,,,67,127
2016,note_on,0,0,0,,2,,,86,127
2207,note_off,191,0,0,,7,,,67,127
2208,note_on,1,0,0,,6,,,66,127
2399,note_off,191,0,0,,6,,,66,127
2399,note_off,0,0,0,,2,,,86,127
2400,note_on,1,0,0,,7,,,67,127
2400,note_on,0,0,0,,12,,,83,127
2591,note_off,191,0,0,,7,,,67,127
2592,note_on,1,0,0,,2,,,62,127
2783,note_off,191,0,0,,2,,,62,127
2783,note_off,0,0,0,,12,,,83,127
2784,note_on,1,0,0,,12,,,59,127
2784,note_on,0,0,0,,7,,,79,127
2975,note_off,191,0,0,,12,,,59,127
2976,note_on,1,0,0,,7,,,55,127
3167,note_off,191,0,0,,7,,,55,127
3167,note_off,0,0,0,,7,,,79,127
3168,note_on,1,0,0,,0,,,60,127
3168,note_on,0,0,0,,7,,,79,127
3359,note_off,191,0,0,,7,,,79,127
3360,note_on,1,0,0,,4,,,76,127
3455,note_off,95,0,0,,4,,,76,127
3456,note_on,1,0,0,,6,,,78,127
3551,note_off,95,0,0,,6,,,78,127
3552,note_on,1,0,0,,7,,,79,127
3743,note_off,191,0,0,,7,,,79,127
3743,note_off,0,0,0,,0,,,60,127
3744,note_on,1,0,0,,10,,,57,127
3744,note_on,0,0,0,,10,,,81,127
3935,note_off,191,0,0,,10,,,81,127
3935,note_off,0,0,0,,10,,,57,127
3936,note_on,1,0,0,,12,,,59,127
3936,note_on,0,0,0,,2,,,74,127
4127,note_off,191,0,0,,2,,,74,127
4127,note_off,0,0,0,,12,,,59,127
4128,note_on,1,0,0,,7,,,55,127
4128,note_on,0,0,0,,7,,,79,127
4319,note_off,191,0,0,,7,,,79,127
4319,note_off,0,0,0,,7,,,55,127
4320,note_on,1,0,0,,10,,,57,127
4320,note_on,0,0,0,,2,,,74,127
4383,note_off,63,0,0,,2,,,74,127
4384,note_on,1,0,0,,0,,,72,127
4447,note_off,63,0,0,,0,,,72,127
4448,note_on,1,0,0,,2,,,74,127
4511,note_off,63,0,0,,2,,,74,127
4511,note_off,0,0,0,,10,,,57,127
4512,note_on,1,0,0,,2,,,50,127
4512,note_on,0,0,0,,0,,,72,127
4575,note_off,63,0,0,,0,,,72,127
4576,note_on,1,0,0,,12,,,71,127
4639,note_off,63,0,0,,12,,,71,127
4640,note_on,1,0,0,,0,,,72,127
4703,note_off,63,0,0,,0,,,72,127
4703,note_off,0,0,0,,2,,,50,127
4704,note_on,1,0,0,,7,,,55,127
4704,note_on,0,0,0,,12,,,71,127
4895,note_off,191,0,0,,12,,,71,127
4896,note_on,1,0,0,,12,,,71,127
4991,note_off,95,0,0,,12,,,71,127
4992,note_on,1,0,0,,0,,,72,127
5087,note_off,95,0,0,,0,,,72,127
5088,note_on,1,0,0,,2,,,74,127
5184,note_off,96,0,0,,7,,,55,127
5279,note_off,95,0,0,,2,,,74,127
5280,note_on,1,0,0,,7,,,55,127
5280,note_on,0,0,0,,4,,,76,127
5471,note_off,191,0,0,,4,,,76,127
5471,note_off,0,0,0,,7,,,55,127
5472,note_on,1,0,0,,10,,,57,127
5472,note_on,0,0,0,,0,,,72,127
5663,note_off,191,0,0,,10,,,57,127
5664,note_on,1,0,0,,6,,,54,127
5855,note_off,191,0,0,,6,,,54,127
5855,note_off,0,0,0,,0,,,72,127
5856,note_on,1,0,0,,7,,,55,127
5856,note_on,0,0,0,,0,,,72,127
5919,note_off,63,0,0,,0,,,72,127
5920,note_on,1,0,0,,12,,,71,127
5983,note_off,63,0,0,,12,,,71,127
5984,note_on,1,0,0,,0,,,72,127
6047,note_off,63,0,0,,0,,,72,127
6047,note_off,0,0,0,,7,,,55,127
6048,note_on,1,0,0,,0,,,48,127
6048,note_on,0,0,0,,12,,,71,127
6111,note_off,63,0,0,,12,,,71,127
6112,note_on,1,0,0,,10,,,69,127
6175,note_off,63,0,0,,10,,,69,127
6176,note_on,1,0,0,,12,,,71,127
6239,note_off,63,0,0,,12,,,71,127
6239,note_off,0,0,0,,0,,,48,127
6240,note_on,1,0,0,,2,,,50,127
6240,note_on,0,0,0,,10,,,69,127
6431,note_off,191,0,0,,10,,,69,127
6432,note_on,1,0,0,,12,,,71,127
6527,note_off,95,0,0,,12,,,71,127
6528,note_on,1,0,0,,0,,,72,127
6623,note_off,95,0,0,,0,,,72,127
6624,note_on,1,0,0,,2,,,74,127
6780,note_off,156,0,0,,2,,,50,127
6815,note_off,35,0,0,,2,,,74,127
6816,note_on,1,0,0,,7,,,55,127
6816,note_on,0,0,0,,4,,,76,127
7007,note_off,191,0,0,,4,,,76,127
7007,note_off,0,0,0,,7,,,55,127
7008,note_on,1,0,0,,10,,,57,127
7008,note_on,0,0,0,,0,,,72,127
7199,note_off,191,0,0,,10,,,57,127
7200,note_on,1,0,0,,6,,,54,127
7391,note_off,191,0,0,,6,,,54,127
7392,note_on,1,0,0,,7,,,55,127
7454,note_off,62,0,0,,0,,,72,127
7456,note_on,2,0,0,,12,,,71,127
7519,note_off,63,0,0,,12,,,71,127
7520,note_on,1,0,0,,0,,,72,127
7583,note_off,63,0,0,,0,,,72,127
7583,note_off,0,0,0,,7,,,55,127
7584,note_on,1,0,0,,0,,,48,127
7584,note_on,0,0,0,,12,,,71,127
7647,note_off,63,0,0,,12,,,71,127
7648,note_on,1,0,0,,10,,,69,127
7711,note_off,63,0,0,,10,,,69,127
7712,note_on,1,0,0,,12,,,71,127
7775,note_off,63,0,0,,12,,,71,127
7775,note_off,0,0,0,,0,,,48,127
7776,note_on,1,0,0,,2,,,50,127
7776,note_on,0,0,0,,10,,,69,127
7967,note_off,191,0,0,,10,,,69,127
7992,note_on,25,0,0,,10,,,69,127
8156,note_off,164,0,0,,2,,,50,127
8184,note_on,28,0,0,,10,,,81,127
8372,note_off,188,0,0,,10,,,69,127
8375,note_off,3,0,0,,10,,,81,127
8376,note_on,1,0,0,,7,,,79,127
8567,note_off,191,0,0,,7,,,79,127
8568,note_on,1,0,0,,5,,,77,127
8759,note_off,191,0,0,,5,,,77,127
8760,note_on,1,0,0,,4,,,76,127
8951,note_off,191,0,0,,4,,,76,127
8952,note_on,1,0,0,,2,,,74,127
9143,note_off,191,0,0,,2,,,74,127
9144,note_on,1,0,0,,0,,,72,127
9335,note_off,191,0,0,,0,,,72,127
9336,note_on,1,0,0,,12,,,71,127
9527,note_off,191,0,0,,12,,,71,127
9528,note_on,1,0,0,,10,,,69,127
9528,note_on,0,0,0,,2,,,62,127
9719,note_off,191,0,0,,2,,,62,127
9719,note_off,0,0,0,,10,,,69,127
9720,note_on,1,0,0,,8,,,68,127
9720,note_on,0,0,0,,5,,,65,127
9911,note_off,191,0,0,,5,,,65,127
9912,note_on,1,0,0,,4,,,64,127
10103,note_off,191,0,0,,4,,,64,127
10104,note_on,1,0,0,,2,,,62,127
10295,note_off,191,0,0,,2,,,62,127
10295,note_off,0,0,0,,8,,,68,127
10296,note_on,1,0,0,,10,,,69,127
10296,note_on,0,0,0,,0,,,60,127
10487,note_off,191,0,0,,0,,,60,127
10487,note_off,0,0,0,,10,,,69,127
10488,note_on,1,0,0,,12,,,71,127
10488,note_on,0,0,0,,12,,,59,127
10679,note_off,191,0,0,,12,,,59,127
10679,note_off,0,0,0,,12,,,71,127
10680,note_on,1,0,0,,0,,,72,127
10680,note_on,0,0,0,,10,,,57,127
10871,note_off,191,0,0,,10,,,57,127
10871,note_off,0,0,0,,0,,,72,127
10872,note_on,1,0,0,,2,,,74,127
10872,note_on,0,0,0,,8,,,56,127
11063,note_off,191,0,0,,2,,,74,127
11064,note_on,1,0,0,,0,,,72,127
11159,note_off,95,0,0,,0,,,72,127
11160,note_on,1,0,0,,2,,,74,127
11255,note_off,95,0,0,,2,,,74,127
11255,note_off,0,0,0,,8,,,56,127
11256,note_on,1,0,0,,4,,,76,127
11256,note_on,0,0,0,,4,,,52,127
11447,note_off,191,0,0,,4,,,76,127
11448,note_on,1,0,0,,12,,,71,127
11639,note_off,191,0,0,,12,,,71,127
11639,note_off,0,0,0,,4,,,52,127
11640,note_on,1,0,0,,0,,,72,127
11640,note_on,0,0,0,,10,,,57,127
11831,note_off,191,0,0,,0,,,72,127
11832,note_on,1,0,0,,12,,,71,127
11927,note_off,95,0,0,,12,,,71,127
11928,note_on,1,0,0,,0,,,72,127
12023,note_off,95,0,0,,0,,,72,127
12023,note_off,0,0,0,,10,,,57,127
12024,note_on,1,0,0,,2,,,74,127
12024,note_on,0,0,0,,2,,,50,127
12215,note_off,191,0,0,,2,,,74,127
12216,note_on,1,0,0,,4,,,76,127
12407,note_off,191,0,0,,4,,,76,127
12407,note_off,0,0,0,,2,,,50,127
12408,note_on,1,0,0,,12,,,71,127
12408,note_on,0,0,0,,4,,,52,127
12599,note_off,191,0,0,,12,,,71,127
12600,note_on,1,0,0,,12,,,71,127
12788,note_off,188,0,0,,4,,,52,127
12792,note_on,4,0,0,,12,,,83,127
12980,note_off,188,0,0,,12,,,71,127
12983,note_off,3,0,0,,12,,,83,127
12984,note_on,1,0,0,,10,,,81,127
13175,note_off,191,0,0,,10,,,81,127
13176,note_on,1,0,0,,7,,,79,127
13367,note_off,191,0,0,,7,,,79,127
13368,note_on,1,0,0,,6,,,78,127
13559,note_off,191,0,0,,6,,,78,127
13560,note_on,1,0,0,,4,,,76,127
13751,note_off,191,0,0,,4,,,76,127
13752,note_on,1,0,0,,2,,,74,127
13943,note_off,191,0,0,,2,,,74,127
13944,note_on,1,0,0,,1,,,73,127
14135,note_off,191,0,0,,1,,,73,127
14136,note_on,1,0,0,,12,,,71,127
14136,note_on,0,0,0,,4,,,64,127
14327,note_off,191,0,0,,4,,,64,127
14327,note_off,0,0,0,,12,,,71,127
14328,note_on,1,0,0,,11,,,70,127
14328,note_on,0,0,0,,7,,,67,127
14519,note_off,191,0,0,,7,,,67,127
14520,note_on,1,0,0,,6,,,66,127
14711,note_off,191,0,0,,6,,,66,127
14712,note_on,1,0,0,,4,,,64,127
14903,note_off,191,0,0,,4,,,64,127
14903,note_off,0,0,0,,11,,,70,127
14904,note_on,1,0,0,,12,,,71,127
14904,note_on,0,0,0,,2,,,62,127
15095,note_off,191,0,0,,2,,,62,127
15095,note_off,0,0,0,,12,,,71,127
15096,note_on,1,0,0,,1,,,73,127
15096,note_on,0,0,0,,1,,,61,127
15287,note_off,191,0,0,,1,,,61,127
15287,note_off,0,0,0,,1,,,73,127
15288,note_on,1,0,0,,2,,,74,127
15288,note_on,0,0,0,,12,,,59,127
15479,note_off,191,0,0,,12,,,59,127
15479,note_off,0,0,0,,2,,,74,127
15480,note_on,1,0,0,,4,,,76,127
15480,note_on,0,0,0,,11,,,58,127
15671,note_off,191,0,0,,4,,,76,127
15672,note_on,1,0,0,,2,,,74,127
15767,note_off,95,0,0,,2,,,74,127
15768,note_on,1,0,0,,4,,,76,127
15863,note_off,95,0,0,,4,,,76,127
15863,note_off,0,0,0,,11,,,58,127
15864,note_on,1,0,0,,6,,,78,127
15864,note_on,0,0,0,,6,,,54,127
16055,note_off,191,0,0,,6,,,78,127
16056,note_on,1,0,0,,1,,,73,127
16247,note_off,191,0,0,,1,,,73,127
16247,note_off,0,0,0,,6,,,54,127
16248,note_on,1,0,0,,2,,,74,127
16248,note_on,0,0,0,,12,,,59,127
16439,note_off,191,0,0,,2,,,74,127
16440,note_on,1,0,0,,1,,,73,127
16535,note_off,95,0,0,,1,,,73,127
16536,note_on,1,0,0,,2,,,74,127
16631,note_off,95,0,0,,2,,,74,127
16631,note_off,0,0,0,,12,,,59,127
16632,note_on,1,0,0,,4,,,76,127
16632,note_on,0,0,0,,4,,,52,127
16823,note_off,191,0,0,,4,,,76,127
16824,note_on,1,0,0,,6,,,78,127
17015,note_off,191,0,0,,6,,,78,127
17015,note_off,0,0,0,,4,,,52,127
17016,note_on,1,0,0,,1,,,73,127
17016,note_on,0,0,0,,6,,,54,127
17207,note_off,191,0,0,,1,,,73,127
17208,note_on,1,0,0,,6,,,78,127
17303,note_off,95,0,0,,6,,,78,127
17304,note_on,1,0,0,,1,,,73,127
17399,note_off,95,0,0,,1,,,73,127
17399,note_off,0,0,0,,6,,,54,127
17400,note_on,1,0,0,,11,,,70,127
17591,note_off,191,0,0,,11,,,70,127
17592,note_on,1,0,0,,6,,,66,127
17783,note_off,191,0,0,,6,,,66,127
17784,note_on,1,0,0,,1,,,61,127
17975,note_off,191,0,0,,1,,,61,127
17976,note_on,1,0,0,,11,,,58,127
18167,note_off,191,0,0,,11,,,58,127
18168,note_on,1,0,0,,6,,,54,127
18360,note_on,192,0,0,,6,,,42,127
18548,note_off,188,0,0,,6,,,54,127
18582,note_on,34,0,0,,7,,,67,127
18582,note_on,0,0,0,,7,,,79,127
18743,note_off,161,0,0,,6,,,42,127
18774,note_on,31,0,0,,4,,,64,127
18869,note_off,95,0,0,,4,,,64,127
18870,note_on,1,0,0,,2,,,62,127
18965,note_off,95,0,0,,2,,,62,127
18966,note_on,1,0,0,,1,,,61,127
19157,note_off,191,0,0,,1,,,61,127
19158,note_on,1,0,0,,12,,,59,127
19349,note_off,191,0,0,,12,,,59,127
19350,note_on,1,0,0,,11,,,58,127
19541,note_off,191,0,0,,7,,,79,127
19541,note_off,0,0,0,,7,,,67,127
19542,note_on,1,0,0,,6,,,78,127
19637,note_off,95,0,0,,6,,,78,127
19638,note_on,1,0,0,,4,,,76,127
19733,note_off,95,0,0,,4,,,76,127
19733,note_off,0,0,0,,11,,,58,127
19734,note_on,1,0,0,,2,,,74,127
19734,note_on,0,0,0,,6,,,54,127
19925,note_off,191,0,0,,2,,,74,127
19926,note_on,1,0,0,,1,,,73,127
20117,note_off,191,0,0,,1,,,73,127
20117,note_off,0,0,0,,6,,,54,127
20118,note_on,1,0,0,,2,,,74,127
20118,note_on,0,0,0,,12,,,59,127
20309,note_off,191,0,0,,2,,,74,127
20310,note_on,1,0,0,,1,,,73,127
20405,note_off,95,0,0,,1,,,73,127
20406,note_on,1,0,0,,2,,,74,127
20501,note_off,95,0,0,,2,,,74,127
20501,note_off,0,0,0,,12,,,59,127
20502,note_on,1,0,0,,4,,,76,127
20502,note_on,0,0,0,,4,,,52,127
20693,note_off,191,0,0,,4,,,76,127
20694,note_on,1,0,0,,1,,,73,127
20885,note_off,191,0,0,,4,,,52,127
20886,note_on,1,0,0,,6,,,54,127
21054,note_off,168,0,0,,1,,,73,127
21078,note_on,24,0,0,,12,,,71,127
21173,note_off,95,0,0,,12,,,71,127
21174,note_on,1,0,0,,1,,,73,127
21269,note_off,95,0,0,,1,,,73,127
21269,note_off,0,0,0,,6,,,54,127
21270,note_on,1,0,0,,2,,,74,127
21270,note_on,0,0,0,,6,,,54,127
21461,note_off,191,0,0,,2,,,74,127
21462,note_on,1,0,0,,1,,,73,127
21653,note_off,191,0,0,,6,,,54,127
21654,note_on,1,0,0,,7,,,55,127
21792,note_off,138,0,0,,1,,,73,127
21846,note_on,54,0,0,,12,,,71,127
21941,note_off,95,0,0,,12,,,71,127
21942,note_on,1,0,0,,11,,,70,127
22037,note_off,95,0,0,,11,,,70,127
22037,note_off,0,0,0,,7,,,55,127
22038,note_on,1,0,0,,12,,,71,127
22038,note_on,0,0,0,,7,,,55,127
22229,note_off,191,0,0,,12,,,71,127
22230,note_on,1,0,0,,1,,,73,127
22325,note_off,95,0,0,,1,,,73,127
22326,note_on,1,0,0,,2,,,74,127
22421,note_off,95,0,0,,2,,,74,127
22421,note_off,0,0,0,,7,,,55,127
22422,note_on,1,0,0,,4,,,76,127
22422,note_on,0,0,0,,4,,,52,127
22613,note_off,191,0,0,,4,,,76,127
22614,note_on,1,0,0,,2,,,74,127
22805,note_off,191,0,0,,2,,,74,127
22806,note_on,1,0,0,,1,,,73,127
22806,note_on,0,0,0,,4,,,64,127
22862,note_off,56,0,0,,4,,,52,127
22997,note_off,135,0,0,,1,,,73,127
22998,note_on,1,0,0,,12,,,71,127
23189,note_off,191,0,0,,12,,,71,127
23189,note_off,0,0,0,,4,,,64,127
23190,note_on,1,0,0,,11,,,70,127
23190,note_on,0,0,0,,6,,,54,127
23381,note_off,191,0,0,,11,,,70,127
23382,note_on,1,0,0,,6,,,78,127
23477,note_off,95,0,0,,6,,,78,127
23478,note_on,1,0,0,,1,,,73,127
23573,note_off,95,0,0,,1,,,73,127
23573,note_off,0,0,0,,6,,,54,127
23574,note_on,1,0,0,,11,,,70,127
23765,note_off,191,0,0,,11,,,70,127
23766,note_on,1,0,0,,6,,,66,127
23957,note_off,191,0,0,,6,,,66,127
23958,note_on,1,0,0,,1,,,61,127
24149,note_off,191,0,0,,1,,,61,127
24150,note_on,1,0,0,,11,,,58,127
24341,note_off,191,0,0,,11,,,58,127
24342,note_on,1,0,0,,6,,,54,127
24534,note_on,192,0,0,,6,,,42,127
24722,note_off,188,0,0,,6,,,54,127
24726,note_on,4,0,0,,7,,,79,127
24726,note_on,0,0,0,,7,,,67,127
24917,note_off,191,0,0,,6,,,42,127
24918,note_on,1,0,0,,4,,,64,127
25013,note_off,95,0,0,,4,,,64,127
25014,note_on,1,0,0,,2,,,62,127
25109,note_off,95,0,0,,2,,,62,127
25110,note_on,1,0,0,,1,,,61,127
25301,note_off,191,0,0,,1,,,61,127
25302,note_on,1,0,0,,12,,,59,127
25493,note_off,191,0,0,,12,,,59,127
25494,note_on,1,0,0,,11,,,58,127
25685,note_off,191,0,0,,7,,,67,127
25685,note_off,0,0,0,,7,,,79,127
25686,note_on,1,0,0,,6,,,78,127
25781,note_off,95,0,0,,6,,,78,127
25782,note_on,1,0,0,,4,,,76,127
25877,note_off,95,0,0,,4,,,76,127
25877,note_off,0,0,0,,11,,,58,127
25878,note_on,1,0,0,,2,,,74,127
25878,note_on,0,0,0,,6,,,54,127
26069,note_off,191,0,0,,2,,,74,127
26070,note_on,1,0,0,,1,,,73,127
26261,note_off,191,0,0,,1,,,73,127
26261,note_off,0,0,0,,6,,,54,127
26262,note_on,1,0,0,,2,,,74,127
26262,note_on,0,0,0,,12,,,59,127
26453,note_off,191,0,0,,2,,,74,127
26454,note_on,1,0,0,,12,,,83,127
26549,note_off,95,0,0,,12,,,83,127
26550,note_on,1,0,0,,7,,,79,127
26645,note_off,95,0,0,,7,,,79,127
26645,note_off,0,0,0,,12,,,59,127
26646,note_on,1,0,0,,4,,,76,127
26646,note_on,0,0,0,,4,,,52,127
26837,note_off,191,0,0,,4,,,76,127
26838,note_on,1,0,0,,1,,,73,127
27029,note_off,191,0,0,,1,,,73,127
27029,note_off,0,0,0,,4,,,52,127
27030,note_on,1,0,0,,2,,,74,127
27030,note_on,0,0,0,,6,,,54,127
27221,note_off,191,0,0,,2,,,74,127
27222,note_on,1,0,0,,4,,,76,127
27317,note_off,95,0,0,,4,,,76,127
27318,note_on,1,0,0,,6,,,78,127
27413,note_off,95,0,0,,6,,,78,127
27413,note_off,0,0,0,,6,,,54,127
27414,note_on,1,0,0,,12,,,71,127
27414,note_on,0,0,0,,6,,,42,127
27605,note_off,191,0,0,,12,,,71,127
27606,note_on,1,0,0,,11,,,70,127
27761,note_off,155,0,0,,11,,,70,127
27789,note_off,28,0,0,,6,,,42,127
27798,note_on,9,0,0,,12,,,71,127
27798,note_on,0,0,0,,7,,,55,127
27990,note_on,192,0,0,,12,,,83,127
28085,note_off,95,0,0,,12,,,83,127
28086,note_off,1,0,0,,12,,,71,127
28086,note_on,0,0,0,,7,,,79,127
28181,note_off,95,0,0,,7,,,79,127
28181,note_off,0,0,0,,7,,,55,127
28182,note_on,1,0,0,,4,,,76,127
28182,note_on,0,0,0,,4,,,52,127
28373,note_off,191,0,0,,4,,,76,127
28374,note_on,1,0,0,,1,,,73,127
28565,note_off,191,0,0,,1,,,73,127
28565,note_off,0,0,0,,4,,,52,127
28566,note_on,1,0,0,,2,,,74,127
28566,note_on,0,0,0,,6,,,54,127
28757,note_off,191,0,0,,2,,,74,127
28758,note_on,1,0,0,,4,,,76,127
28853,note_off,95,0,0,,4,,,76,127
28854,note_on,1,0,0,,6,,,78,127
28949,note_off,95,0,0,,6,,,78,127
28950,note_on,1,0,0,,12,,,71,127
28950,note_on,0,0,0,,6,,,42,127
29141,note_off,191,0,0,,12,,,71,127
29142,note_on,1,0,0,,11,,,70,127
29333,note_off,191,0,0,,11,,,70,127
29333,note_off,0,0,0,,6,,,42,127
29333,note_off,0,0,0,,6,,,54,127
29334,note_on,1,0,0,,12,,,71,127
29334,note_on,0,0,0,,12,,,47,127
29525,note_off,191,0,0,,12,,,71,127
29526,note_on,1,0,0,,6,,,78,127
29621,note_off,95,0,0,,6,,,78,127
29622,note_on,1,0,0,,4,,,76,127
29717,note_off,95,0,0,,4,,,76,127
29718,note_on,1,0,0,,3,,,75,127
29909,note_off,191,0,0,,3,,,75,127
29910,note_on,1,0,0,,1,,,73,127
30101,note_off,191,0,0,,1,,,73,127
30101,note_off,0,0,0,,12,,,47,127
30102,note_on,1,0,0,,10,,,81,127
30102,note_on,0,0,0,,12,,,71,127
30293,note_off,191,0,0,,10,,,81,127
30294,note_on,1,0,0,,7,,,79,127
30485,note_off,191,0,0,,7,,,79,127
30486,note_on,1,0,0,,6,,,78,127
30677,note_off,191,0,0,,6,,,78,127
30678,note_on,1,0,0,,4,,,76,127
30869,note_off,191,0,0,,4,,,76,127
30869,note_off,0,0,0,,12,,,71,127
30870,note_on,1,0,0,,3,,,75,127
30870,note_on,0,0,0,,12,,,71,127
31062,note_on,192,0,0,,10,,,69,127
31157,note_off,95,0,0,,10,,,69,127
31158,note_on,1,0,0,,7,,,67,127
31253,note_off,95,0,0,,7,,,67,127
31254,note_on,1,0,0,,6,,,66,127
31445,note_off,191,0,0,,6,,,66,127
31445,note_off,0,0,0,,3,,,75,127
31446,note_on,1,0,0,,4,,,76,127
31446,note_on,0,0,0,,4,,,64,127
31637,note_off,191,0,0,,4,,,64,127
31637,note_off,0,0,0,,4,,,76,127
31637,note_off,0,0,0,,12,,,71,127
31638,note_on,1,0,0,,12,,,71,127
31638,note_on,0,0,0,,6,,,78,127
31638,note_on,0,0,0,,3,,,63,127
31829,note_off,191,0,0,,6,,,78,127
31830,note_on,1,0,0,,7,,,79,127
31925,note_off,95,0,0,,7,,,79,127
31926,note_on,1,0,0,,10,,,81,127
32021,note_off,95,0,0,,10,,,81,127
32022,note_on,1,0,0,,12,,,83,127
32213,note_off,191,0,0,,12,,,83,127
32213,note_off,0,0,0,,3,,,63,127
32214,note_on,1,0,0,,10,,,81,127
32214,note_on,0,0,0,,12,,,59,127
32405,note_off,191,0,0,,12,,,59,127
32405,note_off,0,0,0,,10,,,81,127
32405,note_off,0,0,0,,12,,,71,127
32406,note_on,1,0,0,,7,,,79,127
32406,note_on,0,0,0,,4,,,52,127
32597,note_off,191,0,0,,7,,,79,127
32598,note_on,1,0,0,,6,,,78,127
32789,note_off,191,0,0,,6,,,78,127
32790,note_on,1,0,0,,4,,,76,127
32981,note_off,191,0,0,,4,,,76,127
32982,note_on,1,0,0,,2,,,74,127
33106,note_off,124,0,0,,4,,,52,127
33173,note_off,67,0,0,,2,,,74,127
33174,note_on,1,0,0,,2,,,74,127
33174,note_on,0,0,0,,4,,,64,127
33269,note_off,95,0,0,,2,,,74,127
33270,note_on,1,0,0,,0,,,72,127
33365,note_off,95,0,0,,0,,,72,127
33366,note_on,1,0,0,,12,,,71,127
33461,note_off,95,0,0,,12,,,71,127
33462,note_on,1,0,0,,0,,,72,127
33557,note_off,95,0,0,,0,,,72,127
33557,note_off,0,0,0,,4,,,64,127
33558,note_on,1,0,0,,2,,,74,127
33558,note_on,0,0,0,,6,,,66,127
33749,note_off,191,0,0,,2,,,74,127
33750,note_on,1,0,0,,0,,,72,127
33941,note_off,191,0,0,,0,,,72,127
33941,note_off,0,0,0,,6,,,66,127
33942,note_on,1,0,0,,12,,,71,127
33942,note_on,0,0,0,,7,,,67,127
34134,note_on,192,0,0,,12,,,83,127
34229,note_off,95,0,0,,12,,,83,127
34230,note_on,1,0,0,,10,,,81,127
34325,note_off,95,0,0,,10,,,81,127
34326,note_on,1,0,0,,7,,,79,127
34517,note_off,191,0,0,,7,,,79,127
34517,note_off,0,0,0,,7,,,67,127
34518,note_on,1,0,0,,6,,,78,127
34709,note_off,191,0,0,,6,,,78,127
34709,note_off,0,0,0,,12,,,71,127
34710,note_on,1,0,0,,4,,,76,127
34901,note_off,191,0,0,,4,,,76,127
34902,note_on,1,0,0,,2,,,74,127
34902,note_on,0,0,0,,12,,,71,127
35093,note_off,191,0,0,,12,,,71,127
35093,note_off,0,0,0,,2,,,74,127
35094,note_on,1,0,0,,1,,,73,127
35094,note_on,0,0,0,,10,,,69,127
35285,note_off,191,0,0,,10,,,69,127
35286,note_on,1,0,0,,7,,,67,127
35477,note_off,191,0,0,,7,,,67,127
35477,note_off,0,0,0,,1,,,73,127
35478,note_on,1,0,0,,2,,,74,127
35478,note_on,0,0,0,,6,,,66,127
35669,note_off,191,0,0,,6,,,66,127
35669,note_off,0,0,0,,2,,,74,127
35670,note_on,1,0,0,,10,,,69,127
35670,note_on,0,0,0,,4,,,64,127
35861,note_off,191,0,0,,4,,,64,127
35861,note_off,0,0,0,,10,,,69,127
35862,note_on,1,0,0,,2,,,74,127
35862,note_on,0,0,0,,2,,,62,127
36053,note_off,191,0,0,,2,,,62,127
36053,note_off,0,0,0,,2,,,74,127
36054,note_on,1,0,0,,4,,,76,127
36054,note_on,0,0,0,,1,,,61,127
36245,note_off,191,0,0,,1,,,61,127
36245,note_off,0,0,0,,4,,,76,127
36246,note_on,1,0,0,,6,,,78,127
36246,note_on,0,0,0,,2,,,62,127
36437,note_off,191,0,0,,6,,,78,127
36438,note_on,1,0,0,,4,,,76,127
36533,note_off,95,0,0,,4,,,76,127
36534,note_on,1,0,0,,6,,,78,127
36629,note_off,95,0,0,,6,,,78,127
36629,note_off,0,0,0,,2,,,62,127
36630,note_on,1,0,0,,7,,,79,127
36630,note_on,0,0,0,,7,,,55,127
36821,note_off,191,0,0,,7,,,79,127
36822,note_on,1,0,0,,6,,,78,127
37013,note_off,191,0,0,,6,,,78,127
37013,note_off,0,0,0,,7,,,55,127
37014,note_on,1,0,0,,4,,,76,127
37014,note_on,0,0,0,,10,,,57,127
37205,note_off,191,0,0,,10,,,57,127
37205,note_off,0,0,0,,4,,,76,127
37206,note_on,1,0,0,,10,,,69,127
37206,note_on,0,0,0,,6,,,66,127
37301,note_off,95,0,0,,6,,,66,127
37302,note_on,1,0,0,,4,,,64,127
37397,note_off,95,0,0,,4,,,64,127
37397,note_off,0,0,0,,10,,,69,127
37398,note_on,1,0,0,,2,,,74,127
37398,note_on,0,0,0,,2,,,62,127
37589,note_off,191,0,0,,2,,,62,127
37589,note_off,0,0,0,,2,,,74,127
37590,note_on,1,0,0,,4,,,76,127
37590,note_on,0,0,0,,1,,,61,127
37781,note_off,191,0,0,,1,,,61,127
37781,note_off,0,0,0,,4,,,76,127
37782,note_on,1,0,0,,6,,,78,127
37782,note_on,0,0,0,,2,,,62,127
37973,note_off,191,0,0,,6,,,78,127
37974,note_on,1,0,0,,7,,,79,127
38069,note_off,95,0,0,,7,,,79,127
38070,note_on,1,0,0,,10,,,81,127
38165,note_off,95,0,0,,10,,,81,127
38165,note_off,0,0,0,,2,,,62,127
38166,note_on,1,0,0,,7,,,79,127
38166,note_on,0,0,0,,7,,,55,127
38357,note_off,191,0,0,,7,,,79,127
38358,note_on,1,0,0,,6,,,78,127
38549,note_off,191,0,0,,6,,,78,127
38549,note_off,0,0,0,,7,,,55,127
38550,note_on,1,0,0,,4,,,76,127
38550,note_on,0,0,0,,10,,,57,127
38741,note_off,191,0,0,,4,,,76,127
38742,note_on,1,0,0,,0,,,84,127
38837,note_off,95,0,0,,0,,,84,127
38838,note_off,1,0,0,,10,,,57,127
38838,note_on,0,0,0,,12,,,83,127
38933,note_off,95,0,0,,12,,,83,127
38934,note_on,1,0,0,,10,,,81,127
39125,note_off,191,0,0,,10,,,81,127
39126,note_on,1,0,0,,7,,,79,127
39317,note_off,191,0,0,,7,,,79,127
39318,note_on,1,0,0,,5,,,77,127
39509,note_off,191,0,0,,5,,,77,127
39510,note_on,1,0,0,,4,,,76,127
39510,note_on,0,0,0,,0,,,72,127
39701,note_off,191,0,0,,0,,,72,127
39701,note_off,0,0,0,,4,,,76,127
39702,note_on,1,0,0,,3,,,75,127
39702,note_on,0,0,0,,12,,,71,127
39893,note_off,191,0,0,,12,,,71,127
39894,note_on,1,0,0,,10,,,69,127
40085,note_off,191,0,0,,10,,,69,127
40085,note_off,0,0,0,,3,,,75,127
40086,note_on,1,0,0,,4,,,76,127
40086,note_on,0,0,0,,7,,,67,127
40277,note_off,191,0,0,,7,,,67,127
40277,note_off,0,0,0,,4,,,76,127
40278,note_on,1,0,0,,12,,,83,127
40278,note_on,0,0,0,,6,,,66,127
40373,note_off,95,0,0,,12,,,83,127
40374,note_on,1,0,0,,10,,,81,127
40469,note_off,95,0,0,,10,,,81,127
40469,note_off,0,0,0,,6,,,66,127
40470,note_on,1,0,0,,7,,,79,127
40470,note_on,0,0,0,,4,,,64,127
40661,note_off,191,0,0,,7,,,79,127
40662,note_on,1,0,0,,6,,,78,127
40853,note_off,191,0,0,,6,,,78,127
40854,note_on,1,0,0,,4,,,76,127
40950,note_off,96,0,0,,4,,,64,127
41045,note_off,95,0,0,,4,,,76,127
41046,note_on,1,0,0,,2,,,74,127
41046,note_on,0,0,0,,12,,,71,127
41237,note_off,191,0,0,,12,,,71,127
41237,note_off,0,0,0,,2,,,74,127
41238,note_on,1,0,0,,1,,,73,127
41238,note_on,0,0,0,,10,,,69,127
41429,note_off,191,0,0,,10,,,69,127
41430,note_on,1,0,0,,7,,,67,127
41621,note_off,191,0,0,,7,,,67,127
41621,note_off,0,0,0,,1,,,73,127
41622,note_on,1,0,0,,2,,,74,127
41622,note_on,0,0,0,,6,,,66,127
41813,note_off,191,0,0,,6,,,66,127
41813,note_off,0,0,0,,2,,,74,127
41814,note_on,1,0,0,,10,,,81,127
41814,note_on,0,0,0,,4,,,64,127
41909,note_off,95,0,0,,10,,,81,127
41910,note_on,1,0,0,,7,,,79,127
42005,note_off,95,0,0,,7,,,79,127
42005,note_off,0,0,0,,4,,,64,127
42006,note_on,1,0,0,,5,,,77,127
42006,note_on,0,0,0,,2,,,62,127
42197,note_off,191,0,0,,5,,,77,127
42198,note_on,1,0,0,,4,,,76,127
42389,note_off,191,0,0,,4,,,76,127
42390,note_on,1,0,0,,2,,,74,127
42486,note_off,96,0,0,,2,,,62,127
42581,note_off,95,0,0,,2,,,74,127
42582,note_on,1,0,0,,0,,,72,127
42582,note_on,0,0,0,,10,,,69,127
42773,note_off,191,0,0,,10,,,69,127
42773,note_off,0,0,0,,0,,,72,127
42774,note_on,1,0,0,,12,,,71,127
42774,note_on,0,0,0,,7,,,67,127
42965,note_off,191,0,0,,7,,,67,127
42966,note_on,1,0,0,,5,,,65,127
43157,note_off,191,0,0,,5,,,65,127
43157,note_off,0,0,0,,12,,,71,127
43158,note_on,1,0,0,,0,,,72,127
43158,note_on,0,0,0,,4,,,64,127
43349,note_off,191,0,0,,4,,,64,127
43349,note_off,0,0,0,,0,,,72,127
43350,note_on,1,0,0,,7,,,79,127
43350,note_on,0,0,0,,2,,,62,127
43445,note_off,95,0,0,,7,,,79,127
43446,note_on,1,0,0,,5,,,77,127
43541,note_off,95,0,0,,5,,,77,127
43541,note_off,0,0,0,,2,,,62,127
43542,note_on,1,0,0,,4,,,76,127
43542,note_on,0,0,0,,0,,,60,127
43733,note_off,191,0,0,,4,,,76,127
43734,note_on,1,0,0,,2,,,74,127
43925,note_off,191,0,0,,2,,,74,127
43926,note_on,1,0,0,,0,,,72,127
44092,note_off,166,0,0,,0,,,60,127
44117,note_off,25,0,0,,0,,,72,127
44118,note_on,1,0,0,,12,,,71,127
44118,note_on,0,0,0,,7,,,67,127
44309,note_off,191,0,0,,7,,,67,127
44309,note_off,0,0,0,,12,,,71,127
44310,note_on,1,0,0,,10,,,69,127
44310,note_on,0,0,0,,5,,,65,127
44501,note_off,191,0,0,,5,,,65,127
44502,note_on,1,0,0,,2,,,62,127
44693,note_off,191,0,0,,2,,,62,127
44693,note_off,0,0,0,,10,,,69,127
44694,note_on,1,0,0,,12,,,71,127
44694,note_on,0,0,0,,7,,,67,127
44885,note_off,191,0,0,,12,,,71,127
44886,note_on,1,0,0,,12,,,71,127
44981,note_off,95,0,0,,12,,,71,127
44982,note_on,1,0,0,,0,,,72,127
45077,note_off,95,0,0,,0,,,72,127
45078,note_on,1,0,0,,2,,,74,127
45234,note_off,156,0,0,,7,,,67,127
45269,note_off,35,0,0,,2,,,74,127
45270,note_on,1,0,0,,4,,,76,127
45270,note_on,0,0,0,,7,,,67,127
45461,note_off,191,0,0,,7,,,67,127
45461,note_off,0,0,0,,4,,,76,127
45462,note_on,1,0,0,,0,,,72,127
45462,note_on,0,0,0,,10,,,69,127
45653,note_off,191,0,0,,10,,,69,127
45654,note_on,1,0,0,,6,,,66,127
45845,note_off,191,0,0,,6,,,66,127
45845,note_off,0,0,0,,0,,,72,127
45846,note_on,1,0,0,,0,,,72,127
45846,note_on,0,0,0,,7,,,67,127
45909,note_off,63,0,0,,0,,,72,127
45910,note_on,1,0,0,,12,,,71,127
45973,note_off,63,0,0,,12,,,71,127
45974,note_on,1,0,0,,0,,,72,127
46037,note_off,63,0,0,,0,,,72,127
46037,note_off,0,0,0,,7,,,67,127
46038,note_on,1,0,0,,12,,,71,127
46038,note_on,0,0,0,,0,,,60,127
46101,note_off,63,0,0,,12,,,71,127
46102,note_on,1,0,0,,10,,,69,127
46165,note_off,63,0,0,,10,,,69,127
46166,note_on,1,0,0,,12,,,71,127
46229,note_off,63,0,0,,12,,,71,127
46229,note_off,0,0,0,,0,,,60,127
46230,note_on,1,0,0,,10,,,69,127
46230,note_on,0,0,0,,2,,,62,127
46421,note_off,191,0,0,,10,,,69,127
46422,note_on,1,0,0,,12,,,71,127
46517,note_off,95,0,0,,12,,,71,127
46518,note_on,1,0,0,,0,,,72,127
46613,note_off,95,0,0,,0,,,72,127
46614,note_on,1,0,0,,2,,,74,127
46710,note_off,96,0,0,,2,,,62,127
46805,note_off,95,0,0,,2,,,74,127
46806,note_on,1,0,0,,4,,,76,127
46806,note_on,0,0,0,,7,,,55,127
46997,note_off,191,0,0,,7,,,55,127
46997,note_off,0,0,0,,4,,,76,127
46998,note_on,1,0,0,,0,,,72,127
46998,note_on,0,0,0,,10,,,57,127
47189,note_off,191,0,0,,10,,,57,127
47190,note_on,1,0,0,,6,,,54,127
47381,note_off,191,0,0,,6,,,54,127
47382,note_on,1,0,0,,7,,,55,127
47444,note_off,62,0,0,,0,,,72,127
47446,note_on,2,0,0,,12,,,71,127
47509,note_off,63,0,0,,12,,,71,127
47510,note_on,1,0,0,,0,,,72,127
47573,note_off,63,0,0,,0,,,72,127
47573,note_off,0,0,0,,7,,,55,127
47574,note_on,1,0,0,,12,,,71,127
47574,note_on,0,0,0,,0,,,48,127
47637,note_off,63,0,0,,12,,,71,127
47638,note_on,1,0,0,,10,,,69,127
47701,note_off,63,0,0,,10,,,69,127
47702,note_on,1,0,0,,12,,,71,127
47765,note_off,63,0,0,,12,,,71,127
47765,note_off,0,0,0,,0,,,48,127
47766,note_on,1,0,0,,10,,,69,127
47766,note_on,0,0,0,,2,,,50,127
47957,note_off,191,0,0,,10,,,69,127
47958,note_on,1,0,0,,2,,,74,127
48053,note_off,95,0,0,,2,,,74,127
48054,note_on,1,0,0,,10,,,69,127
48149,note_off,95,0,0,,10,,,69,127
48149,note_off,0,0,0,,2,,,50,127
48150,note_on,1,0,0,,6,,,66,127
48341,note_off,191,0,0,,6,,,66,127
48342,note_on,1,0,0,,2,,,62,127
48533,note_off,191,0,0,,2,,,62,127
48534,note_on,1,0,0,,10,,,57,127
48725,note_off,191,0,0,,10,,,57,127
48726,note_on,1,0,0,,6,,,54,127
48917,note_off,191,0,0,,6,,,54,127
48918,note_on,1,0,0,,2,,,50,127
49110,note_on,192,0,0,,2,,,38,127
49298,note_off,188,0,0,,2,,,50,127
49318,note_on,20,0,0,,0,,,84,127
49318,note_on,0,0,0,,0,,,72,127
49493,note_off,175,0,0,,2,,,38,127
49510,note_on,17,0,0,,10,,,69,127
49605,note_off,95,0,0,,10,,,69,127
49606,note_on,1,0,0,,7,,,67,127
49701,note_off,95,0,0,,7,,,67,127
49702,note_on,1,0,0,,6,,,66,127
49893,note_off,191,0,0,,6,,,66,127
49894,note_on,1,0,0,,4,,,64,127
50085,note_off,191,0,0,,4,,,64,127
50086,note_on,1,0,0,,2,,,62,127
50277,note_off,191,0,0,,0,,,72,127
50277,note_off,0,0,0,,0,,,84,127
50278,note_on,1,0,0,,10,,,81,127
50469,note_off,191,0,0,,10,,,81,127
50470,note_on,1,0,0,,2,,,74,127
50661,note_off,191,0,0,,2,,,74,127
50661,note_off,0,0,0,,2,,,62,127
50662,note_on,1,0,0,,0,,,84,127
50662,note_on,0,0,0,,2,,,62,127
50853,note_off,191,0,0,,2,,,62,127
50853,note_off,0,0,0,,0,,,84,127
50854,note_on,1,0,0,,12,,,83,127
50854,note_on,0,0,0,,7,,,67,127
51045,note_off,191,0,0,,12,,,83,127
51046,note_on,1,0,0,,10,,,81,127
51141,note_off,95,0,0,,10,,,81,127
51142,note_on,1,0,0,,12,,,83,127
51237,note_off,95,0,0,,12,,,83,127
51237,note_off,0,0,0,,7,,,67,127
51238,note_on,1,0,0,,0,,,84,127
51238,note_on,0,0,0,,0,,,60,127
51429,note_off,191,0,0,,0,,,84,127
51430,note_on,1,0,0,,4,,,76,127
51621,note_off,191,0,0,,4,,,76,127
51621,note_off,0,0,0,,0,,,60,127
51622,note_on,1,0,0,,10,,,81,127
51622,note_on,0,0,0,,2,,,62,127
51717,note_off,95,0,0,,10,,,81,127
51718,note_on,1,0,0,,7,,,79,127
51813,note_off,95,0,0,,7,,,79,127
51814,note_on,1,0,0,,6,,,78,127
51909,note_off,95,0,0,,6,,,78,127
51910,note_on,1,0,0,,7,,,79,127
52005,note_off,95,0,0,,7,,,79,127
52006,note_on,1,0,0,,10,,,81,127
52006,note_on,0,0,0,,2,,,50,127
52197,note_off,191,0,0,,10,,,81,127
52198,note_on,1,0,0,,6,,,78,127
52389,note_off,191,0,0,,6,,,78,127
52389,note_off,0,0,0,,2,,,50,127
52389,note_off,0,0,0,,2,,,62,127
52390,note_on,1,0,0,,7,,,79,127
52390,note_on,0,0,0,,4,,,64,127
52581,note_off,191,0,0,,7,,,79,127
52582,note_on,1,0,0,,2,,,74,127
52773,note_off,191,0,0,,2,,,74,127
52773,note_off,0,0,0,,4,,,64,127
52774,note_on,1,0,0,,4,,,76,127
52774,note_on,0,0,0,,4,,,64,127
52837,note_off,63,0,0,,4,,,76,127
52838,note_on,1,0,0,,2,,,74,127
52901,note_off,63,0,0,,2,,,74,127
52902,note_on,1,0,0,,4,,,76,127
52965,note_off,63,0,0,,4,,,76,127
52966,note_on,1,0,0,,2,,,74,127
53029,note_off,63,0,0,,2,,,74,127
53030,note_on,1,0,0,,1,,,73,127
53093,note_off,63,0,0,,1,,,73,127
53094,note_on,1,0,0,,2,,,74,127
53157,note_off,63,0,0,,2,,,74,127
53157,note_off,0,0,0,,4,,,64,127
53158,note_on,1,0,0,,4,,,76,127
53158,note_on,0,0,0,,4,,,64,127
53349,note_off,191,0,0,,4,,,76,127
53350,note_on,1,0,0,,7,,,67,127
53541,note_off,191,0,0,,7,,,67,127
53541,note_off,0,0,0,,4,,,64,127
53542,note_on,1,0,0,,10,,,69,127
53542,note_on,0,0,0,,4,,,64,127
53605,note_off,63,0,0,,10,,,69,127
53606,note_on,1,0,0,,7,,,67,127
53669,note_off,63,0,0,,7,,,67,127
53670,note_on,1,0,0,,10,,,69,127
53733,note_off,63,0,0,,10,,,69,127
53734,note_on,1,0,0,,7,,,67,127
53797,note_off,63,0,0,,7,,,67,127
53798,note_on,1,0,0,,6,,,66,127
53861,note_off,63,0,0,,6,,,66,127
53862,note_on,1,0,0,,7,,,67,127
53925,note_off,63,0,0,,7,,,67,127
53925,note_off,0,0,0,,4,,,64,127
53926,note_on,1,0,0,,6,,,66,127
53926,note_on,0,0,0,,2,,,62,127
54117,note_off,191,0,0,,6,,,66,127
54118,note_on,1,0,0,,2,,,74,127
54213,note_off,95,0,0,,2,,,74,127
54214,note_on,1,0,0,,10,,,69,127
54309,note_off,95,0,0,,10,,,69,127
54310,note_on,1,0,0,,6,,,66,127
54496,note_off,186,0,0,,2,,,62,127
54501,note_off,5,0,0,,6,,,66,127
54502,note_on,1,0,0,,2,,,62,127
54693,note_off,191,0,0,,2,,,62,127
54694,note_on,1,0,0,,10,,,57,127
54885,note_off,191,0,0,,10,,,57,127
54886,note_on,1,0,0,,6,,,54,127
55077,note_off,191,0,0,,6,,,54,127
55078,note_on,1,0,0,,2,,,50,127
55270,note_on,192,0,0,,2,,,38,127
55458,note_off,188,0,0,,2,,,50,127
55462,note_on,4,0,0,,0,,,84,127
55462,note_on,0,0,0,,0,,,72,127
55653,note_off,191,0,0,,2,,,38,127
55654,note_on,1,0,0,,10,,,69,127
55749,note_off,95,0,0,,10,,,69,127
55750,note_on,1,0,0,,7,,,67,127
55845,note_off,95,0,0,,7,,,67,127
55846,note_on,1,0,0,,6,,,66,127
56037,note_off,191,0,0,,6,,,66,127
56038,note_on,1,0,0,,4,,,64,127
56229,note_off,191,0,0,,4,,,64,127
56230,note_on,1,0,0,,2,,,62,127
56421,note_off,191,0,0,,0,,,72,127
56421,note_off,0,0,0,,0,,,84,127
56422,note_on,1,0,0,,10,,,81,127
56613,note_off,191,0,0,,10,,,81,127
56614,note_on,1,0,0,,2,,,74,127
56805,note_off,191,0,0,,2,,,74,127
56805,note_off,0,0,0,,2,,,62,127
56806,note_on,1,0,0,,0,,,84,127
56806,note_on,0,0,0,,2,,,62,127
56997,note_off,191,0,0,,2,,,62,127
56997,note_off,0,0,0,,0,,,84,127
56998,note_on,1,0,0,,12,,,83,127
56998,note_on,0,0,0,,7,,,67,127
57189,note_off,191,0,0,,12,,,83,127
57190,note_on,1,0,0,,10,,,81,127
57285,note_off,95,0,0,,10,,,81,127
57286,note_on,1,0,0,,12,,,83,127
57381,note_off,95,0,0,,12,,,83,127
57381,note_off,0,0,0,,7,,,67,127
57382,note_on,1,0,0,,0,,,84,127
57382,note_on,0,0,0,,0,,,60,127
57573,note_off,191,0,0,,0,,,84,127
57574,note_on,1,0,0,,4,,,76,127
57765,note_off,191,0,0,,4,,,76,127
57765,note_off,0,0,0,,0,,,60,127
57766,note_on,1,0,0,,10,,,81,127
57766,note_on,0,0,0,,2,,,62,127
57861,note_off,95,0,0,,10,,,81,127
57862,note_on,1,0,0,,7,,,79,127
57957,note_off,95,0,0,,7,,,79,127
57958,note_on,1,0,0,,6,,,78,127
58053,note_off,95,0,0,,6,,,78,127
58054,note_on,1,0,0,,7,,,79,127
58149,note_off,95,0,0,,7,,,79,127
58150,note_on,1,0,0,,10,,,81,127
58150,note_on,0,0,0,,2,,,50,127
58341,note_off,191,0,0,,10,,,81,127
58342,note_on,1,0,0,,6,,,78,127
58533,note_off,191,0,0,,6,,,78,127
58533,note_off,0,0,0,,2,,,50,127
58533,note_off,0,0,0,,2,,,62,127
58534,note_on,1,0,0,,7,,,79,127
58534,note_on,0,0,0,,7,,,55,127
58725,note_off,191,0,0,,7,,,79,127
58726,note_on,1,0,0,,2,,,74,127
58917,note_off,191,0,0,,2,,,74,127
58917,note_off,0,0,0,,7,,,55,127
58918,note_on,1,0,0,,4,,,76,127
58918,note_on,0,0,0,,0,,,60,127
59109,note_off,191,0,0,,4,,,76,127
59110,note_on,1,0,0,,0,,,72,127
59301,note_off,191,0,0,,0,,,72,127
59301,note_off,0,0,0,,0,,,60,127
59302,note_on,1,0,0,,2,,,74,127
59302,note_on,0,0,0,,6,,,54,127
59365,note_off,63,0,0,,2,,,74,127
59366,note_on,1,0,0,,0,,,72,127
59429,note_off,63,0,0,,0,,,72,127
59430,note_on,1,0,0,,2,,,74,127
59493,note_off,63,0,0,,2,,,74,127
59494,note_on,1,0,0,,0,,,72,127
59557,note_off,63,0,0,,0,,,72,127
59558,note_on,1,0,0,,12,,,71,127
59621,note_off,63,0,0,,12,,,71,127
59622,note_on,1,0,0,,0,,,72,127
59685,note_off,63,0,0,,0,,,72,127
59685,note_off,0,0,0,,6,,,54,127
59686,note_on,1,0,0,,2,,,74,127
59686,note_on,0,0,0,,2,,,50,127
59877,note_off,191,0,0,,2,,,74,127
59878,note_on,1,0,0,,10,,,69,127
60069,note_off,191,0,0,,10,,,69,127
60069,note_off,0,0,0,,2,,,50,127
60070,note_on,1,0,0,,0,,,72,127
60070,note_on,0,0,0,,7,,,55,127
60133,note_off,63,0,0,,0,,,72,127
60134,note_on,1,0,0,,12,,,71,127
60197,note_off,63,0,0,,12,,,71,127
60198,note_on,1,0,0,,0,,,72,127
60261,note_off,63,0,0,,0,,,72,127
60262,note_on,1,0,0,,12,,,71,127
60325,note_off,63,0,0,,12,,,71,127
60326,note_on,1,0,0,,10,,,69,127
60389,note_off,63,0,0,,10,,,69,127
60390,note_on,1,0,0,,12,,,71,127
60453,note_off,63,0,0,,12,,,71,127
60453,note_off,0,0,0,,7,,,55,127
60454,note_on,1,0,0,,0,,,72,127
60454,note_on,0,0,0,,0,,,48,127
60645,note_off,191,0,0,,0,,,72,127
60646,note_on,1,0,0,,4,,,64,127
60837,note_off,191,0,0,,4,,,64,127
60837,note_off,0,0,0,,0,,,48,127
60840,note_on,3,0,0,,2,,,50,127
60840,note_on,0,0,0,,7,,,67,127
60904,note_off,64,0,0,,7,,,67,127
60906,note_on,2,0,0,,10,,,69,127
60970,note_off,64,0,0,,10,,,69,127
60973,note_on,3,0,0,,7,,,67,127
61037,note_off,64,0,0,,7,,,67,127
61040,note_on,3,0,0,,6,,,66,127
61104,note_off,64,0,0,,6,,,66,127
61106,note_on,2,0,0,,7,,,67,127
61170,note_off,64,0,0,,7,,,67,127
61173,note_on,3,0,0,,10,,,69,127
61237,note_off,64,0,0,,10,,,69,127
61239,note_on,2,0,0,,2,,,38,127
61239,note_on,0,0,0,,12,,,71,127
61303,note_off,64,0,0,,12,,,71,127
61306,note_on,3,0,0,,10,,,69,127
61370,note_off,64,0,0,,10,,,69,127
61372,note_on,2,0,0,,12,,,71,127
61436,note_off,64,0,0,,12,,,71,127
61439,note_on,3,0,0,,10,,,69,127
61503,note_off,64,0,0,,10,,,69,127
61505,note_on,2,0,0,,7,,,67,127
61569,note_off,64,0,0,,7,,,67,127
61572,note_on,3,0,0,,10,,,69,127
61630,note_off,58,0,0,,2,,,50,127
61633,note_off,3,0,0,,2,,,38,127
61636,note_off,3,0,0,,10,,,69,127
61645,note_on,9,0,0,,7,,,43,127
61645,note_on,0,0,0,,7,,,55,127
61645,note_on,0,0,0,,7,,,67,127
63648,note_off,2003,0,0,,7,,,67,127
63648,note_off,0,0,0,,7,,,55,127
63648,note_off,0,0,0,,7,,,43,127
64512,end_of_track,864,1,0,,,,,,
