tick,type,time,meta,track,program,channel,pitch,tempo,note,velocity
0,copyright,0,1,0,,,,,,
0,program_change,0,0,0,6,0,,,,
0,pitchwheel,0,0,0,,0,0,,,
0,program_change,0,0,0,6,1,,,,
0,pitchwheel,0,0,0,,1,-590,,,
0,program_change,0,0,0,6,2,,,,
0,pitchwheel,0,0,0,,2,-272,,,
0,program_change,0,0,0,6,3,,,,
0,pitchwheel,0,0,0,,3,-353,,,
0,program_change,0,0,0,6,4,,,,
0,pitchwheel,0,0,0,,4,-560,,,
0,program_change,0,0,0,6,5,,,,
0,pitchwheel,0,0,0,,5,-80,,,
0,program_change,0,0,0,6,6,,,,
0,pitchwheel,0,0,0,,6,-625,,,
0,program_change,0,0,0,6,7,,,,
0,pitchwheel,0,0,0,,7,-130,,,
0,program_change,0,0,0,6,8,,,,
0,pitchwheel,0,0,0,,8,-512,,,
0,program_change,0,0,0,6,10,,,,
0,pitchwheel,0,0,0,,10,-464,,,
0,program_change,0,0,0,6,11,,,,
0,pitchwheel,0,0,0,,11,-208,,,
0,program_change,0,0,0,6,12,,,,
0,pitchwheel,0,0,0,,12,-553,,,
0,set_tempo,0,1,0,,,,500000,,
105,note_on,105,0,0,,7,,,55,127
105,note_on,0,0,0,,7,,,79,127
313,note_off,208,0,0,,7,,,55,127
314,note_on,1,0,0,,10,,,57,127
522,note_off,208,0,0,,10,,,57,127
523,note_on,1,0,0,,12,,,59,127
731,note_off,208,0,0,,12,,,59,127
731,note_off,0,0,0,,7,,,79,127
732,note_on,1,0,0,,0,,,60,127
732,note_on,0,0,0,,7,,,79,127
940,note_off,208,0,0,,0,,,60,127
941,note_on,1,0,0,,2,,,62,127
1149,note_off,208,0,0,,2,,,62,127
1150,note_on,1,0,0,,4,,,64,127
1358,note_off,208,0,0,,4,,,64,127
1358,note_off,0,0,0,,7,,,79,127
1359,note_on,1,0,0,,2,,,62,127
1359,note_on,0,0,0,,2,,,74,127
1567,note_off,208,0,0,,2,,,62,127
1568,note_on,1,0,0,,4,,,64,127
1776,note_off,208,0,0,,4,,,64,127
1777,note_on,1,0,0,,6,,,66,127
1985,note_off,208,0,0,,6,,,66,127
1986,note_on,1,0,0,,7,,,67,127
2194,note_off,208,0,0,,2,,,74,127
2195,note_on,1,0,0,,0,,,72,127
2299,note_off,104,0,0,,0,,,72,127
2300,note_on,1,0,0,,12,,,71,127
2404,note_off,104,0,0,,12,,,71,127
2405,note_on,1,0,0,,10,,,69,127
2499,note_off,94,0,0,,7,,,67,127
2509,note_off,10,0,0,,10,,,69,127
2510,note_on,1,0,0,,7,,,67,127
2614,note_off,104,0,0,,7,,,67,127
2615,note_on,1,0,0,,0,,,60,127
2615,note_on,0,0,0,,6,,,66,127
2719,note_off,104,0,0,,6,,,66,127
2720,note_on,1,0,0,,8,,,68,127
2824,note_off,104,0,0,,8,,,68,127
2825,note_on,1,0,0,,10,,,69,127
2929,note_off,104,0,0,,10,,,69,127
2930,note_on,1,0,0,,12,,,71,127
3034,note_off,104,0,0,,12,,,71,127
3035,note_on,1,0,0,,0,,,72,127
3139,note_off,104,0,0,,0,,,72,127
3140,note_on,1,0,0,,2,,,74,127
3244,note_off,104,0,0,,2,,,74,127
3244,note_off,0,0,0,,0,,,60,127
3245,note_on,1,0,0,,2,,,62,127
3245,note_on,0,0,0,,0,,,72,127
3453,note_off,208,0,0,,0,,,72,127
3454,note_on,1,0,0,,12,,,71,127
3662,note_off,208,0,0,,12,,,71,127
3663,note_on,1,0,0,,10,,,69,127
3871,note_off,208,0,0,,10,,,69,127
3871,note_off,0,0,0,,2,,,62,127
3872,note_on,1,0,0,,7,,,55,127
3872,note_on,0,0,0,,12,,,71,127
4080,note_off,208,0,0,,12,,,71,127
4081,note_on,1,0,0,,0,,,72,127
4289,note_off,208,0,0,,0,,,72,127
4290,note_on,1,0,0,,2,,,74,127
4498,note_off,208,0,0,,7,,,55,127
4499,note_on,1,0,0,,12,,,59,127
4639,note_off,140,0,0,,2,,,74,127
4709,note_on,70,0,0,,0,,,72,127
4813,note_off,104,0,0,,0,,,72,127
4814,note_on,1,0,0,,12,,,71,127
4918,note_off,104,0,0,,12,,,71,127
4919,note_on,1,0,0,,10,,,69,127
5023,note_off,104,0,0,,10,,,69,127
5024,note_on,1,0,0,,7,,,67,127
5128,note_off,104,0,0,,7,,,67,127
5128,note_off,0,0,0,,12,,,59,127
5129,note_on,1,0,0,,0,,,60,127
5129,note_on,0,0,0,,6,,,66,127
5233,note_off,104,0,0,,6,,,66,127
5234,note_on,1,0,0,,8,,,68,127
5338,note_off,104,0,0,,8,,,68,127
5339,note_on,1,0,0,,10,,,69,127
5443,note_off,104,0,0,,10,,,69,127
5444,note_on,1,0,0,,12,,,71,127
5548,note_off,104,0,0,,12,,,71,127
5549,note_on,1,0,0,,0,,,72,127
5653,note_off,104,0,0,,0,,,72,127
5654,note_on,1,0,0,,2,,,74,127
5758,note_off,104,0,0,,2,,,74,127
5758,note_off,0,0,0,,0,,,60,127
5759,note_on,1,0,0,,2,,,62,127
5759,note_on,0,0,0,,0,,,72,127
5967,note_off,208,0,0,,0,,,72,127
5968,note_on,1,0,0,,12,,,71,127
6176,note_off,208,0,0,,12,,,71,127
6177,note_on,1,0,0,,10,,,69,127
6385,note_off,208,0,0,,10,,,69,127
6385,note_off,0,0,0,,2,,,62,127
6386,note_on,1,0,0,,7,,,55,127
6386,note_on,0,0,0,,0,,,72,127
6437,note_off,51,0,0,,0,,,72,127
6438,note_on,1,0,0,,12,,,71,127
6489,note_off,51,0,0,,12,,,71,127
6490,note_on,1,0,0,,0,,,72,127
6541,note_off,51,0,0,,0,,,72,127
6542,note_on,1,0,0,,12,,,71,127
6593,note_off,51,0,0,,12,,,71,127
6594,note_on,1,0,0,,10,,,69,127
6802,note_off,208,0,0,,10,,,69,127
6803,note_on,1,0,0,,7,,,67,127
7011,note_off,208,0,0,,7,,,55,127
7012,note_on,1,0,0,,12,,,59,127
7117,note_off,105,0,0,,7,,,67,127
7222,note_on,105,0,0,,4,,,76,127
7273,note_off,51,0,0,,4,,,76,127
7274,note_on,1,0,0,,2,,,74,127
7325,note_off,51,0,0,,2,,,74,127
7326,note_on,1,0,0,,0,,,72,127
7430,note_off,104,0,0,,0,,,72,127
7431,note_on,1,0,0,,2,,,74,127
7535,note_off,104,0,0,,2,,,74,127
7536,note_on,1,0,0,,12,,,83,127
7640,note_off,104,0,0,,12,,,83,127
7640,note_off,0,0,0,,12,,,59,127
7641,note_on,1,0,0,,10,,,57,127
7641,note_on,0,0,0,,2,,,74,127
7849,note_off,208,0,0,,2,,,74,127
7850,note_on,1,0,0,,2,,,74,127
7901,note_off,51,0,0,,2,,,74,127
7902,note_on,1,0,0,,0,,,72,127
7953,note_off,51,0,0,,0,,,72,127
7954,note_on,1,0,0,,12,,,71,127
8058,note_off,104,0,0,,12,,,71,127
8059,note_on,1,0,0,,0,,,72,127
8163,note_off,104,0,0,,0,,,72,127
8164,note_on,1,0,0,,10,,,81,127
8268,note_off,104,0,0,,10,,,81,127
8268,note_off,0,0,0,,10,,,57,127
8269,note_on,1,0,0,,7,,,55,127
8269,note_on,0,0,0,,0,,,72,127
8477,note_off,208,0,0,,0,,,72,127
8478,note_on,1,0,0,,0,,,72,127
8529,note_off,51,0,0,,0,,,72,127
8530,note_on,1,0,0,,12,,,71,127
8581,note_off,51,0,0,,12,,,71,127
8582,note_on,1,0,0,,10,,,69,127
8686,note_off,104,0,0,,10,,,69,127
8687,note_on,1,0,0,,12,,,71,127
8791,note_off,104,0,0,,12,,,71,127
8792,note_on,1,0,0,,7,,,79,127
8896,note_off,104,0,0,,7,,,79,127
8896,note_off,0,0,0,,7,,,55,127
8897,note_on,1,0,0,,2,,,50,127
8897,note_on,0,0,0,,12,,,71,127
9105,note_off,208,0,0,,12,,,71,127
9106,note_on,1,0,0,,12,,,71,127
9157,note_off,51,0,0,,12,,,71,127
9158,note_on,1,0,0,,10,,,69,127
9209,note_off,51,0,0,,10,,,69,127
9210,note_on,1,0,0,,7,,,67,127
9314,note_off,104,0,0,,7,,,67,127
9315,note_on,1,0,0,,10,,,69,127
9523,note_off,208,0,0,,2,,,50,127
9524,note_on,1,0,0,,12,,,59,127
9629,note_off,105,0,0,,10,,,69,127
9734,note_on,105,0,0,,4,,,76,127
9785,note_off,51,0,0,,4,,,76,127
9786,note_on,1,0,0,,2,,,74,127
9837,note_off,51,0,0,,2,,,74,127
9838,note_on,1,0,0,,0,,,72,127
9942,note_off,104,0,0,,0,,,72,127
9943,note_on,1,0,0,,2,,,74,127
10048,note_on,105,0,0,,12,,,83,127
10151,note_off,103,0,0,,2,,,74,127
10152,note_off,1,0,0,,12,,,83,127
10152,note_off,0,0,0,,12,,,59,127
10153,note_on,1,0,0,,10,,,57,127
10153,note_on,0,0,0,,2,,,74,127
10361,note_off,208,0,0,,2,,,74,127
10362,note_on,1,0,0,,2,,,74,127
10413,note_off,51,0,0,,2,,,74,127
10414,note_on,1,0,0,,0,,,72,127
10465,note_off,51,0,0,,0,,,72,127
10466,note_on,1,0,0,,12,,,71,127
10570,note_off,104,0,0,,12,,,71,127
10571,note_on,1,0,0,,0,,,72,127
10676,note_on,105,0,0,,10,,,81,127
10779,note_off,103,0,0,,0,,,72,127
10780,note_off,1,0,0,,10,,,81,127
10780,note_off,0,0,0,,10,,,57,127
10781,note_on,1,0,0,,7,,,55,127
10781,note_on,0,0,0,,0,,,72,127
10989,note_off,208,0,0,,0,,,72,127
10990,note_on,1,0,0,,0,,,72,127
11041,note_off,51,0,0,,0,,,72,127
11042,note_on,1,0,0,,12,,,71,127
11093,note_off,51,0,0,,12,,,71,127
11094,note_on,1,0,0,,10,,,69,127
11198,note_off,104,0,0,,10,,,69,127
11199,note_on,1,0,0,,12,,,71,127
11304,note_on,105,0,0,,7,,,79,127
11407,note_off,103,0,0,,12,,,71,127
11408,note_off,1,0,0,,7,,,79,127
11408,note_off,0,0,0,,7,,,55,127
11409,note_on,1,0,0,,2,,,50,127
11409,note_on,0,0,0,,12,,,71,127
11617,note_off,208,0,0,,12,,,71,127
11618,note_on,1,0,0,,12,,,71,127
11669,note_off,51,0,0,,12,,,71,127
11670,note_on,1,0,0,,10,,,69,127
11721,note_off,51,0,0,,10,,,69,127
11722,note_on,1,0,0,,7,,,67,127
11826,note_off,104,0,0,,7,,,67,127
11827,note_on,1,0,0,,10,,,69,127
12035,note_off,208,0,0,,2,,,50,127
12036,note_on,1,0,0,,6,,,66,127
12140,note_off,104,0,0,,10,,,69,127
12141,note_on,1,0,0,,2,,,74,127
12245,note_off,104,0,0,,2,,,74,127
12246,note_on,1,0,0,,1,,,73,127
12350,note_off,104,0,0,,1,,,73,127
12351,note_on,1,0,0,,2,,,74,127
12455,note_off,104,0,0,,2,,,74,127
12456,note_on,1,0,0,,4,,,76,127
12560,note_off,104,0,0,,4,,,76,127
12561,note_on,1,0,0,,2,,,74,127
12665,note_off,104,0,0,,6,,,66,127
12666,note_on,1,0,0,,7,,,67,127
12770,note_off,104,0,0,,2,,,74,127
12771,note_on,1,0,0,,4,,,76,127
12875,note_off,104,0,0,,4,,,76,127
12876,note_on,1,0,0,,3,,,75,127
12980,note_off,104,0,0,,3,,,75,127
12981,note_on,1,0,0,,4,,,76,127
13085,note_off,104,0,0,,4,,,76,127
13086,note_on,1,0,0,,6,,,78,127
13190,note_off,104,0,0,,6,,,78,127
13191,note_on,1,0,0,,4,,,76,127
13295,note_off,104,0,0,,7,,,67,127
13296,note_on,1,0,0,,10,,,69,127
13400,note_off,104,0,0,,4,,,76,127
13401,note_on,1,0,0,,6,,,78,127
13505,note_off,104,0,0,,6,,,78,127
13506,note_on,1,0,0,,4,,,76,127
13610,note_off,104,0,0,,4,,,76,127
13611,note_on,1,0,0,,6,,,78,127
13715,note_off,104,0,0,,6,,,78,127
13716,note_on,1,0,0,,7,,,79,127
13820,note_off,104,0,0,,7,,,79,127
13821,note_on,1,0,0,,6,,,78,127
13925,note_off,104,0,0,,10,,,69,127
13926,note_on,1,0,0,,12,,,71,127
14030,note_off,104,0,0,,6,,,78,127
14031,note_on,1,0,0,,7,,,79,127
14135,note_off,104,0,0,,7,,,79,127
14136,note_on,1,0,0,,6,,,78,127
14240,note_off,104,0,0,,6,,,78,127
14241,note_on,1,0,0,,7,,,79,127
14345,note_off,104,0,0,,7,,,79,127
14346,note_on,1,0,0,,10,,,81,127
14450,note_off,104,0,0,,10,,,81,127
14451,note_on,1,0,0,,7,,,79,127
14555,note_off,104,0,0,,12,,,71,127
14556,note_on,1,0,0,,1,,,73,127
14660,note_off,104,0,0,,7,,,79,127
14661,note_on,1,0,0,,7,,,79,127
14765,note_off,104,0,0,,7,,,79,127
14766,note_on,1,0,0,,6,,,78,127
14870,note_off,104,0,0,,6,,,78,127
14871,note_on,1,0,0,,7,,,79,127
14975,note_off,104,0,0,,7,,,79,127
14976,note_on,1,0,0,,10,,,81,127
15080,note_off,104,0,0,,10,,,81,127
15081,note_on,1,0,0,,7,,,79,127
15185,note_off,104,0,0,,7,,,79,127
15185,note_off,0,0,0,,1,,,73,127
15186,note_on,1,0,0,,2,,,74,127
15186,note_on,0,0,0,,6,,,78,127
15290,note_off,104,0,0,,6,,,78,127
15291,note_on,1,0,0,,7,,,79,127
15395,note_off,104,0,0,,7,,,79,127
15396,note_on,1,0,0,,10,,,81,127
15500,note_off,104,0,0,,10,,,81,127
15501,note_on,1,0,0,,6,,,78,127
15605,note_off,104,0,0,,6,,,78,127
15605,note_off,0,0,0,,2,,,74,127
15606,note_on,1,0,0,,6,,,66,127
15606,note_on,0,0,0,,4,,,76,127
15710,note_off,104,0,0,,4,,,76,127
15711,note_on,1,0,0,,2,,,74,127
15815,note_off,104,0,0,,2,,,74,127
15815,note_off,0,0,0,,6,,,66,127
15816,note_on,1,0,0,,7,,,67,127
15816,note_on,0,0,0,,4,,,76,127
15920,note_off,104,0,0,,4,,,76,127
15921,note_on,1,0,0,,7,,,79,127
16025,note_off,104,0,0,,7,,,79,127
16025,note_off,0,0,0,,7,,,67,127
16026,note_on,1,0,0,,10,,,69,127
16026,note_on,0,0,0,,6,,,78,127
16130,note_off,104,0,0,,6,,,78,127
16131,note_on,1,0,0,,4,,,76,127
16235,note_off,104,0,0,,4,,,76,127
16235,note_off,0,0,0,,10,,,69,127
16236,note_on,1,0,0,,10,,,57,127
16236,note_on,0,0,0,,2,,,74,127
16340,note_off,104,0,0,,2,,,74,127
16341,note_on,1,0,0,,1,,,73,127
16445,note_off,104,0,0,,1,,,73,127
16445,note_off,0,0,0,,10,,,57,127
16446,note_on,1,0,0,,2,,,50,127
16446,note_on,0,0,0,,1,,,73,127
16864,note_off,418,0,0,,1,,,73,127
16865,note_on,1,0,0,,2,,,74,127
17072,note_off,207,0,0,,2,,,74,127
17073,note_off,1,0,0,,2,,,50,127
17074,note_on,1,0,0,,6,,,66,127
17179,note_on,105,0,0,,2,,,74,127
17283,note_off,104,0,0,,2,,,74,127
17284,note_on,1,0,0,,1,,,73,127
17388,note_off,104,0,0,,1,,,73,127
17389,note_on,1,0,0,,2,,,74,127
17493,note_off,104,0,0,,2,,,74,127
17494,note_on,1,0,0,,4,,,76,127
17598,note_off,104,0,0,,4,,,76,127
17599,note_on,1,0,0,,2,,,74,127
17703,note_off,104,0,0,,6,,,66,127
17704,note_on,1,0,0,,7,,,67,127
17756,note_off,52,0,0,,2,,,74,127
17808,note_on,52,0,0,,4,,,76,127
17912,note_off,104,0,0,,4,,,76,127
17913,note_on,1,0,0,,3,,,75,127
18017,note_off,104,0,0,,3,,,75,127
18018,note_on,1,0,0,,4,,,76,127
18122,note_off,104,0,0,,4,,,76,127
18123,note_on,1,0,0,,6,,,78,127
18227,note_off,104,0,0,,6,,,78,127
18228,note_on,1,0,0,,4,,,76,127
18332,note_off,104,0,0,,7,,,67,127
18333,note_on,1,0,0,,10,,,69,127
18385,note_off,52,0,0,,4,,,76,127
18437,note_on,52,0,0,,6,,,78,127
18541,note_off,104,0,0,,6,,,78,127
18542,note_on,1,0,0,,4,,,76,127
18646,note_off,104,0,0,,4,,,76,127
18647,note_on,1,0,0,,6,,,78,127
18751,note_off,104,0,0,,6,,,78,127
18752,note_on,1,0,0,,7,,,79,127
18856,note_off,104,0,0,,7,,,79,127
18857,note_on,1,0,0,,6,,,78,127
18961,note_off,104,0,0,,10,,,69,127
18962,note_on,1,0,0,,12,,,71,127
19014,note_off,52,0,0,,6,,,78,127
19066,note_on,52,0,0,,7,,,79,127
19170,note_off,104,0,0,,7,,,79,127
19171,note_on,1,0,0,,6,,,78,127
19275,note_off,104,0,0,,6,,,78,127
19276,note_on,1,0,0,,7,,,79,127
19380,note_off,104,0,0,,7,,,79,127
19381,note_on,1,0,0,,10,,,81,127
19485,note_off,104,0,0,,10,,,81,127
19486,note_on,1,0,0,,7,,,79,127
19590,note_off,104,0,0,,12,,,71,127
19591,note_on,1,0,0,,1,,,73,127
19643,note_off,52,0,0,,7,,,79,127
19695,note_on,52,0,0,,7,,,79,127
19799,note_off,104,0,0,,7,,,79,127
19800,note_on,1,0,0,,6,,,78,127
19904,note_off,104,0,0,,6,,,78,127
19905,note_on,1,0,0,,7,,,79,127
20009,note_off,104,0,0,,7,,,79,127
20010,note_on,1,0,0,,10,,,81,127
20114,note_off,104,0,0,,10,,,81,127
20115,note_on,1,0,0,,7,,,79,127
20219,note_off,104,0,0,,7,,,79,127
20219,note_off,0,0,0,,1,,,73,127
20220,note_on,1,0,0,,2,,,74,127
20220,note_on,0,0,0,,6,,,78,127
20324,note_off,104,0,0,,6,,,78,127
20325,note_on,1,0,0,,4,,,76,127
20429,note_off,104,0,0,,4,,,76,127
20430,note_on,1,0,0,,6,,,78,127
20534,note_off,104,0,0,,6,,,78,127
20535,note_on,1,0,0,,7,,,79,127
20639,note_off,104,0,0,,7,,,79,127
20640,note_on,1,0,0,,10,,,81,127
20744,note_off,104,0,0,,10,,,81,127
20745,note_on,1,0,0,,6,,,78,127
20849,note_off,104,0,0,,6,,,78,127
20849,note_off,0,0,0,,2,,,74,127
20850,note_on,1,0,0,,7,,,67,127
20850,note_on,0,0,0,,12,,,83,127
20954,note_off,104,0,0,,12,,,83,127
20955,note_on,1,0,0,,10,,,81,127
21059,note_off,104,0,0,,10,,,81,127
21060,note_on,1,0,0,,7,,,79,127
21164,note_off,104,0,0,,7,,,79,127
21165,note_on,1,0,0,,6,,,78,127
21269,note_off,104,0,0,,6,,,78,127
21270,note_on,1,0,0,,4,,,76,127
21374,note_off,104,0,0,,4,,,76,127
21375,note_on,1,0,0,,2,,,74,127
21479,note_off,104,0,0,,2,,,74,127
21479,note_off,0,0,0,,7,,,67,127
21480,note_on,1,0,0,,10,,,57,127
21480,note_on,0,0,0,,12,,,71,127
21531,note_off,51,0,0,,12,,,71,127
21532,note_on,1,0,0,,10,,,69,127
21583,note_off,51,0,0,,10,,,69,127
21584,note_on,1,0,0,,12,,,71,127
21635,note_off,51,0,0,,12,,,71,127
21636,note_on,1,0,0,,10,,,69,127
21687,note_off,51,0,0,,10,,,69,127
21688,note_on,1,0,0,,12,,,71,127
21739,note_off,51,0,0,,12,,,71,127
21740,note_on,1,0,0,,10,,,69,127
21791,note_off,51,0,0,,10,,,69,127
21792,note_on,1,0,0,,12,,,71,127
21843,note_off,51,0,0,,12,,,71,127
21844,note_on,1,0,0,,10,,,69,127
22051,note_off,207,0,0,,10,,,69,127
22104,note_off,53,0,0,,10,,,57,127
22105,note_on,1,0,0,,10,,,57,127
22105,note_on,0,0,0,,7,,,67,127
22210,note_on,105,0,0,,7,,,79,127
22314,note_off,104,0,0,,7,,,79,127
22315,note_on,1,0,0,,5,,,77,127
22419,note_off,104,0,0,,5,,,77,127
22420,note_on,1,0,0,,4,,,76,127
22524,note_off,104,0,0,,4,,,76,127
22525,note_on,1,0,0,,2,,,74,127
22629,note_off,104,0,0,,2,,,74,127
22630,note_on,1,0,0,,1,,,73,127
22734,note_off,104,0,0,,1,,,73,127
22734,note_off,0,0,0,,7,,,67,127
22734,note_off,0,0,0,,10,,,57,127
22735,note_on,1,0,0,,7,,,67,127
22735,note_on,0,0,0,,7,,,55,127
22735,note_on,0,0,0,,2,,,74,127
22735,note_on,0,0,0,,11,,,82,127
22943,note_off,208,0,0,,11,,,82,127
22943,note_off,0,0,0,,2,,,74,127
22944,note_on,1,0,0,,10,,,81,127
22944,note_on,0,0,0,,1,,,73,127
23152,note_off,208,0,0,,1,,,73,127
23152,note_off,0,0,0,,10,,,81,127
23153,note_on,1,0,0,,11,,,82,127
23153,note_on,0,0,0,,2,,,74,127
23361,note_off,208,0,0,,7,,,55,127
23361,note_off,0,0,0,,7,,,67,127
23362,note_off,1,0,0,,2,,,74,127
23362,note_off,0,0,0,,11,,,82,127
23362,note_on,0,0,0,,10,,,57,127
23362,note_on,0,0,0,,7,,,67,127
23467,note_on,105,0,0,,7,,,79,127
23571,note_off,104,0,0,,7,,,79,127
23572,note_on,1,0,0,,5,,,77,127
23676,note_off,104,0,0,,5,,,77,127
23677,note_on,1,0,0,,4,,,76,127
23781,note_off,104,0,0,,4,,,76,127
23782,note_on,1,0,0,,2,,,74,127
23886,note_off,104,0,0,,2,,,74,127
23887,note_on,1,0,0,,1,,,73,127
23991,note_off,104,0,0,,1,,,73,127
23991,note_off,0,0,0,,7,,,67,127
23991,note_off,0,0,0,,10,,,57,127
23992,note_on,1,0,0,,7,,,55,127
23992,note_on,0,0,0,,7,,,67,127
23992,note_on,0,0,0,,11,,,70,127
23992,note_on,0,0,0,,2,,,74,127
24200,note_off,208,0,0,,2,,,74,127
24200,note_off,0,0,0,,11,,,70,127
24201,note_on,1,0,0,,1,,,73,127
24201,note_on,0,0,0,,10,,,69,127
24409,note_off,208,0,0,,10,,,69,127
24409,note_off,0,0,0,,1,,,73,127
24410,note_on,1,0,0,,11,,,70,127
24410,note_on,0,0,0,,2,,,74,127
24618,note_off,208,0,0,,2,,,74,127
24618,note_off,0,0,0,,11,,,70,127
24618,note_off,0,0,0,,7,,,67,127
24618,note_off,0,0,0,,7,,,55,127
24619,note_on,1,0,0,,10,,,57,127
24619,note_on,0,0,0,,7,,,67,127
24724,note_on,105,0,0,,7,,,79,127
24828,note_off,104,0,0,,7,,,79,127
24829,note_on,1,0,0,,5,,,77,127
24933,note_off,104,0,0,,5,,,77,127
24934,note_on,1,0,0,,4,,,76,127
25038,note_off,104,0,0,,4,,,76,127
25039,note_on,1,0,0,,2,,,74,127
25143,note_off,104,0,0,,2,,,74,127
25144,note_on,1,0,0,,1,,,73,127
25248,note_off,104,0,0,,1,,,73,127
25248,note_off,0,0,0,,7,,,67,127
25248,note_off,0,0,0,,10,,,57,127
25249,note_on,1,0,0,,7,,,55,127
25249,note_on,0,0,0,,7,,,67,127
25249,note_on,0,0,0,,11,,,82,127
25249,note_on,0,0,0,,2,,,74,127
25457,note_off,208,0,0,,2,,,74,127
25457,note_off,0,0,0,,11,,,82,127
25458,note_on,1,0,0,,1,,,73,127
25458,note_on,0,0,0,,10,,,81,127
25666,note_off,208,0,0,,10,,,81,127
25666,note_off,0,0,0,,1,,,73,127
25667,note_on,1,0,0,,11,,,82,127
25667,note_on,0,0,0,,2,,,74,127
25875,note_off,208,0,0,,2,,,74,127
25875,note_off,0,0,0,,11,,,82,127
25875,note_off,0,0,0,,7,,,67,127
25875,note_off,0,0,0,,7,,,55,127
25876,note_on,1,0,0,,7,,,67,127
25876,note_on,0,0,0,,10,,,57,127
25981,note_on,105,0,0,,7,,,79,127
26085,note_off,104,0,0,,7,,,79,127
26086,note_on,1,0,0,,5,,,77,127
26190,note_off,104,0,0,,5,,,77,127
26191,note_on,1,0,0,,4,,,76,127
26295,note_off,104,0,0,,4,,,76,127
26296,note_on,1,0,0,,2,,,74,127
26400,note_off,104,0,0,,2,,,74,127
26401,note_on,1,0,0,,1,,,73,127
26505,note_off,104,0,0,,1,,,73,127
26505,note_off,0,0,0,,10,,,57,127
26505,note_off,0,0,0,,7,,,67,127
26506,note_on,1,0,0,,7,,,55,127
26506,note_on,0,0,0,,7,,,67,127
26506,note_on,0,0,0,,11,,,70,127
26506,note_on,0,0,0,,2,,,74,127
26714,note_off,208,0,0,,2,,,74,127
26714,note_off,0,0,0,,11,,,70,127
26715,note_on,1,0,0,,10,,,69,127
26715,note_on,0,0,0,,1,,,73,127
26923,note_off,208,0,0,,1,,,73,127
26923,note_off,0,0,0,,10,,,69,127
26924,note_on,1,0,0,,2,,,74,127
26924,note_on,0,0,0,,11,,,70,127
27131,note_off,207,0,0,,2,,,74,127
27132,note_off,1,0,0,,7,,,67,127
27132,note_off,0,0,0,,7,,,55,127
27133,note_on,1,0,0,,1,,,61,127
27237,note_off,104,0,0,,11,,,70,127
27238,note_on,1,0,0,,10,,,69,127
27342,note_off,104,0,0,,10,,,69,127
27343,note_on,1,0,0,,1,,,73,127
27447,note_off,104,0,0,,1,,,73,127
27448,note_on,1,0,0,,4,,,76,127
27552,note_off,104,0,0,,4,,,76,127
27552,note_off,0,0,0,,1,,,61,127
27553,note_on,1,0,0,,10,,,57,127
27553,note_on,0,0,0,,7,,,79,127
27657,note_off,104,0,0,,7,,,79,127
27658,note_on,1,0,0,,4,,,76,127
27762,note_off,104,0,0,,4,,,76,127
27762,note_off,0,0,0,,10,,,57,127
27763,note_on,1,0,0,,2,,,62,127
27763,note_on,0,0,0,,5,,,77,127
27867,note_off,104,0,0,,5,,,77,127
27868,note_on,1,0,0,,2,,,74,127
27972,note_off,104,0,0,,2,,,74,127
27973,note_on,1,0,0,,5,,,77,127
28077,note_off,104,0,0,,5,,,77,127
28078,note_on,1,0,0,,10,,,81,127
28182,note_off,104,0,0,,10,,,81,127
28182,note_off,0,0,0,,2,,,62,127
28183,note_on,1,0,0,,5,,,53,127
28183,note_on,0,0,0,,2,,,86,127
28288,note_on,105,0,0,,2,,,74,127
28391,note_off,103,0,0,,2,,,86,127
28392,note_off,1,0,0,,5,,,53,127
28393,note_on,1,0,0,,7,,,55,127
28601,note_off,208,0,0,,7,,,55,127
28602,note_off,1,0,0,,2,,,74,127
28602,note_on,0,0,0,,10,,,57,127
28602,note_on,0,0,0,,2,,,74,127
28810,note_off,208,0,0,,2,,,74,127
28811,note_on,1,0,0,,10,,,45,127
28811,note_on,0,0,0,,1,,,73,127
29016,note_off,205,0,0,,10,,,57,127
29019,note_off,3,0,0,,1,,,73,127
29019,note_off,0,0,0,,10,,,45,127
29020,note_on,1,0,0,,2,,,50,127
29020,note_on,0,0,0,,1,,,73,127
29438,note_off,418,0,0,,1,,,73,127
29439,note_on,1,0,0,,2,,,74,127
29646,note_off,207,0,0,,2,,,74,127
29647,note_off,1,0,0,,2,,,50,127
29648,note_on,1,0,0,,10,,,57,127
29648,note_on,0,0,0,,7,,,67,127
29753,note_on,105,0,0,,7,,,79,127
29857,note_off,104,0,0,,7,,,79,127
29858,note_on,1,0,0,,5,,,77,127
29962,note_off,104,0,0,,5,,,77,127
29963,note_on,1,0,0,,4,,,76,127
30067,note_off,104,0,0,,4,,,76,127
30068,note_on,1,0,0,,2,,,74,127
30172,note_off,104,0,0,,2,,,74,127
30173,note_on,1,0,0,,1,,,73,127
30277,note_off,104,0,0,,1,,,73,127
30277,note_off,0,0,0,,7,,,67,127
30277,note_off,0,0,0,,10,,,57,127
30278,note_on,1,0,0,,7,,,55,127
30278,note_on,0,0,0,,7,,,67,127
30278,note_on,0,0,0,,11,,,82,127
30278,note_on,0,0,0,,2,,,74,127
30486,note_off,208,0,0,,2,,,74,127
30486,note_off,0,0,0,,11,,,82,127
30487,note_on,1,0,0,,10,,,81,127
30487,note_on,0,0,0,,1,,,73,127
30695,note_off,208,0,0,,1,,,73,127
30695,note_off,0,0,0,,10,,,81,127
30696,note_on,1,0,0,,11,,,82,127
30696,note_on,0,0,0,,2,,,74,127
30904,note_off,208,0,0,,2,,,74,127
30904,note_off,0,0,0,,11,,,82,127
30904,note_off,0,0,0,,7,,,67,127
30904,note_off,0,0,0,,7,,,55,127
30905,note_on,1,0,0,,10,,,57,127
30905,note_on,0,0,0,,7,,,67,127
31010,note_on,105,0,0,,7,,,79,127
31114,note_off,104,0,0,,7,,,79,127
31115,note_on,1,0,0,,5,,,77,127
31219,note_off,104,0,0,,5,,,77,127
31220,note_on,1,0,0,,4,,,76,127
31324,note_off,104,0,0,,4,,,76,127
31325,note_on,1,0,0,,2,,,74,127
31429,note_off,104,0,0,,2,,,74,127
31430,note_on,1,0,0,,1,,,73,127
31534,note_off,104,0,0,,1,,,73,127
31534,note_off,0,0,0,,7,,,67,127
31534,note_off,0,0,0,,10,,,57,127
31535,note_on,1,0,0,,7,,,55,127
31535,note_on,0,0,0,,7,,,67,127
31535,note_on,0,0,0,,11,,,70,127
31535,note_on,0,0,0,,2,,,74,127
31743,note_off,208,0,0,,2,,,74,127
31743,note_off,0,0,0,,11,,,70,127
31744,note_on,1,0,0,,10,,,69,127
31744,note_on,0,0,0,,1,,,73,127
31952,note_off,208,0,0,,1,,,73,127
31952,note_off,0,0,0,,10,,,69,127
31953,note_on,1,0,0,,2,,,74,127
31953,note_on,0,0,0,,11,,,70,127
32161,note_off,208,0,0,,11,,,70,127
32161,note_off,0,0,0,,2,,,74,127
32161,note_off,0,0,0,,7,,,67,127
32161,note_off,0,0,0,,7,,,55,127
32162,note_on,1,0,0,,10,,,57,127
32162,note_on,0,0,0,,7,,,67,127
32267,note_on,105,0,0,,7,,,79,127
32371,note_off,104,0,0,,7,,,79,127
32372,note_on,1,0,0,,5,,,77,127
32476,note_off,104,0,0,,5,,,77,127
32477,note_on,1,0,0,,4,,,76,127
32581,note_off,104,0,0,,4,,,76,127
32582,note_on,1,0,0,,2,,,74,127
32686,note_off,104,0,0,,2,,,74,127
32687,note_on,1,0,0,,1,,,73,127
32791,note_off,104,0,0,,1,,,73,127
32791,note_off,0,0,0,,7,,,67,127
32791,note_off,0,0,0,,10,,,57,127
32792,note_on,1,0,0,,7,,,55,127
32792,note_on,0,0,0,,7,,,67,127
32792,note_on,0,0,0,,11,,,82,127
32792,note_on,0,0,0,,2,,,74,127
33000,note_off,208,0,0,,2,,,74,127
33000,note_off,0,0,0,,11,,,82,127
33001,note_on,1,0,0,,10,,,81,127
33001,note_on,0,0,0,,1,,,73,127
33209,note_off,208,0,0,,1,,,73,127
33209,note_off,0,0,0,,10,,,81,127
33210,note_on,1,0,0,,11,,,82,127
33210,note_on,0,0,0,,2,,,74,127
33418,note_off,208,0,0,,2,,,74,127
33418,note_off,0,0,0,,11,,,82,127
33418,note_off,0,0,0,,7,,,67,127
33418,note_off,0,0,0,,7,,,55,127
33419,note_on,1,0,0,,7,,,67,127
33419,note_on,0,0,0,,10,,,57,127
33524,note_on,105,0,0,,7,,,79,127
33628,note_off,104,0,0,,7,,,79,127
33629,note_on,1,0,0,,5,,,77,127
33733,note_off,104,0,0,,5,,,77,127
33734,note_on,1,0,0,,4,,,76,127
33838,note_off,104,0,0,,4,,,76,127
33839,note_on,1,0,0,,2,,,74,127
33943,note_off,104,0,0,,2,,,74,127
33944,note_on,1,0,0,,1,,,73,127
34048,note_off,104,0,0,,1,,,73,127
34048,note_off,0,0,0,,10,,,57,127
34048,note_off,0,0,0,,7,,,67,127
34049,note_on,1,0,0,,7,,,67,127
34049,note_on,0,0,0,,7,,,55,127
34049,note_on,0,0,0,,11,,,70,127
34049,note_on,0,0,0,,2,,,74,127
34257,note_off,208,0,0,,2,,,74,127
34257,note_off,0,0,0,,11,,,70,127
34258,note_on,1,0,0,,1,,,73,127
34258,note_on,0,0,0,,10,,,69,127
34466,note_off,208,0,0,,10,,,69,127
34466,note_off,0,0,0,,1,,,73,127
34467,note_on,1,0,0,,11,,,70,127
34467,note_on,0,0,0,,2,,,74,127
34674,note_off,207,0,0,,11,,,70,127
34675,note_off,1,0,0,,7,,,55,127
34675,note_off,0,0,0,,7,,,67,127
34676,note_on,1,0,0,,1,,,61,127
34780,note_off,104,0,0,,2,,,74,127
34781,note_on,1,0,0,,10,,,69,127
34885,note_off,104,0,0,,10,,,69,127
34886,note_on,1,0,0,,1,,,73,127
34990,note_off,104,0,0,,1,,,73,127
34991,note_on,1,0,0,,4,,,76,127
35095,note_off,104,0,0,,4,,,76,127
35095,note_off,0,0,0,,1,,,61,127
35096,note_on,1,0,0,,10,,,57,127
35096,note_on,0,0,0,,7,,,79,127
35200,note_off,104,0,0,,7,,,79,127
35201,note_on,1,0,0,,4,,,76,127
35305,note_off,104,0,0,,4,,,76,127
35305,note_off,0,0,0,,10,,,57,127
35306,note_on,1,0,0,,2,,,62,127
35306,note_on,0,0,0,,5,,,77,127
35410,note_off,104,0,0,,5,,,77,127
35411,note_on,1,0,0,,2,,,74,127
35515,note_off,104,0,0,,2,,,74,127
35516,note_on,1,0,0,,5,,,77,127
35620,note_off,104,0,0,,5,,,77,127
35621,note_on,1,0,0,,10,,,81,127
35725,note_off,104,0,0,,10,,,81,127
35725,note_off,0,0,0,,2,,,62,127
35726,note_on,1,0,0,,5,,,53,127
35726,note_on,0,0,0,,2,,,86,127
35831,note_on,105,0,0,,2,,,74,127
35935,note_off,104,0,0,,5,,,53,127
35936,note_on,1,0,0,,7,,,55,127
36141,note_off,205,0,0,,2,,,86,127
36144,note_off,3,0,0,,7,,,55,127
36145,note_off,1,0,0,,2,,,74,127
36145,note_on,0,0,0,,10,,,57,127
36145,note_on,0,0,0,,2,,,74,127
36353,note_off,208,0,0,,2,,,74,127
36354,note_on,1,0,0,,10,,,45,127
36354,note_on,0,0,0,,1,,,73,127
36559,note_off,205,0,0,,10,,,57,127
36562,note_off,3,0,0,,1,,,73,127
36562,note_off,0,0,0,,10,,,45,127
36563,note_on,1,0,0,,2,,,50,127
36772,note_on,209,0,0,,8,,,80,127
36876,note_off,104,0,0,,8,,,80,127
36877,note_on,1,0,0,,10,,,81,127
36981,note_off,104,0,0,,10,,,81,127
36982,note_on,1,0,0,,12,,,83,127
37086,note_off,104,0,0,,12,,,83,127
37087,note_on,1,0,0,,10,,,81,127
37191,note_off,104,0,0,,2,,,50,127
37192,note_on,1,0,0,,6,,,54,127
37400,note_off,208,0,0,,10,,,81,127
37401,note_on,1,0,0,,1,,,73,127
37505,note_off,104,0,0,,1,,,73,127
37506,note_on,1,0,0,,2,,,74,127
37610,note_off,104,0,0,,2,,,74,127
37611,note_on,1,0,0,,4,,,76,127
37715,note_off,104,0,0,,4,,,76,127
37716,note_on,1,0,0,,2,,,74,127
37820,note_off,104,0,0,,6,,,54,127
37821,note_on,1,0,0,,7,,,55,127
38029,note_off,208,0,0,,2,,,74,127
38030,note_on,1,0,0,,8,,,68,127
38134,note_off,104,0,0,,8,,,68,127
38135,note_on,1,0,0,,10,,,69,127
38239,note_off,104,0,0,,10,,,69,127
38240,note_on,1,0,0,,12,,,71,127
38344,note_off,104,0,0,,12,,,71,127
38345,note_on,1,0,0,,10,,,69,127
38449,note_off,104,0,0,,10,,,69,127
38449,note_off,0,0,0,,7,,,55,127
38450,note_on,1,0,0,,10,,,57,127
38450,note_on,0,0,0,,7,,,67,127
38555,note_on,105,0,0,,4,,,76,127
38658,note_off,103,0,0,,7,,,67,127
38659,note_off,1,0,0,,4,,,76,127
38660,note_on,1,0,0,,6,,,66,127
38765,note_on,105,0,0,,2,,,74,127
38868,note_off,103,0,0,,6,,,66,127
38869,note_off,1,0,0,,2,,,74,127
38870,note_on,1,0,0,,4,,,64,127
38975,note_on,105,0,0,,1,,,73,127
39078,note_off,103,0,0,,4,,,64,127
39079,note_off,1,0,0,,1,,,73,127
39079,note_off,0,0,0,,10,,,57,127
39080,note_on,1,0,0,,2,,,50,127
39080,note_on,0,0,0,,2,,,74,127
39288,note_off,208,0,0,,2,,,74,127
39289,note_on,1,0,0,,8,,,80,127
39393,note_off,104,0,0,,8,,,80,127
39394,note_on,1,0,0,,10,,,81,127
39498,note_off,104,0,0,,10,,,81,127
39499,note_on,1,0,0,,12,,,83,127
39603,note_off,104,0,0,,12,,,83,127
39604,note_on,1,0,0,,10,,,81,127
39708,note_off,104,0,0,,2,,,50,127
39709,note_on,1,0,0,,6,,,54,127
39812,note_off,103,0,0,,10,,,81,127
39919,note_on,107,0,0,,1,,,73,127
40023,note_off,104,0,0,,1,,,73,127
40024,note_on,1,0,0,,2,,,74,127
40128,note_off,104,0,0,,2,,,74,127
40129,note_on,1,0,0,,4,,,76,127
40233,note_off,104,0,0,,4,,,76,127
40234,note_on,1,0,0,,2,,,74,127
40338,note_off,104,0,0,,6,,,54,127
40339,note_on,1,0,0,,7,,,55,127
40442,note_off,103,0,0,,2,,,74,127
40549,note_on,107,0,0,,8,,,68,127
40653,note_off,104,0,0,,8,,,68,127
40654,note_on,1,0,0,,10,,,69,127
40758,note_off,104,0,0,,10,,,69,127
40759,note_on,1,0,0,,12,,,71,127
40863,note_off,104,0,0,,12,,,71,127
40864,note_on,1,0,0,,10,,,69,127
40968,note_off,104,0,0,,10,,,69,127
40968,note_off,0,0,0,,7,,,55,127
40969,note_on,1,0,0,,10,,,57,127
40969,note_on,0,0,0,,7,,,67,127
41073,note_off,104,0,0,,7,,,67,127
41074,note_on,1,0,0,,4,,,76,127
41179,note_on,105,0,0,,6,,,66,127
41282,note_off,103,0,0,,4,,,76,127
41283,note_off,1,0,0,,6,,,66,127
41284,note_on,1,0,0,,2,,,74,127
41389,note_on,105,0,0,,4,,,64,127
41492,note_off,103,0,0,,2,,,74,127
41493,note_off,1,0,0,,4,,,64,127
41494,note_on,1,0,0,,1,,,73,127
41598,note_off,104,0,0,,1,,,73,127
41598,note_off,0,0,0,,10,,,57,127
41599,note_on,1,0,0,,2,,,50,127
41599,note_on,0,0,0,,2,,,74,127
41703,note_off,104,0,0,,2,,,74,127
41704,note_on,1,0,0,,10,,,81,127
41808,note_off,104,0,0,,10,,,81,127
41809,note_on,1,0,0,,6,,,78,127
41913,note_off,104,0,0,,6,,,78,127
41914,note_on,1,0,0,,2,,,74,127
42018,note_off,104,0,0,,2,,,74,127
42019,note_on,1,0,0,,10,,,69,127
42123,note_off,104,0,0,,10,,,69,127
42124,note_on,1,0,0,,6,,,66,127
42228,note_off,104,0,0,,6,,,66,127
42228,note_off,0,0,0,,2,,,50,127
42229,note_on,1,0,0,,2,,,50,127
42229,note_on,0,0,0,,2,,,62,127
42437,note_off,208,0,0,,2,,,62,127
42437,note_off,0,0,0,,2,,,50,127
42438,note_on,1,0,0,,10,,,57,127
42438,note_on,0,0,0,,6,,,78,127
42489,note_off,51,0,0,,6,,,78,127
42490,note_on,1,0,0,,4,,,76,127
42541,note_off,51,0,0,,4,,,76,127
42542,note_on,1,0,0,,6,,,78,127
42593,note_off,51,0,0,,6,,,78,127
42594,note_on,1,0,0,,4,,,76,127
42645,note_off,51,0,0,,4,,,76,127
42646,note_on,1,0,0,,10,,,45,127
42646,note_on,0,0,0,,6,,,78,127
42697,note_off,51,0,0,,6,,,78,127
42698,note_on,1,0,0,,4,,,76,127
42749,note_off,51,0,0,,4,,,76,127
42750,note_on,1,0,0,,2,,,74,127
42801,note_off,51,0,0,,2,,,74,127
42802,note_on,1,0,0,,4,,,76,127
42850,note_off,48,0,0,,10,,,57,127
42853,note_off,3,0,0,,4,,,76,127
42853,note_off,0,0,0,,10,,,45,127
42854,note_on,1,0,0,,2,,,50,127
42854,note_on,0,0,0,,2,,,74,127
42958,note_off,104,0,0,,2,,,74,127
42959,note_on,1,0,0,,10,,,81,127
43063,note_off,104,0,0,,10,,,81,127
43064,note_on,1,0,0,,6,,,78,127
43168,note_off,104,0,0,,6,,,78,127
43169,note_on,1,0,0,,2,,,74,127
43273,note_off,104,0,0,,2,,,74,127
43274,note_on,1,0,0,,10,,,69,127
43378,note_off,104,0,0,,10,,,69,127
43379,note_on,1,0,0,,6,,,66,127
43483,note_off,104,0,0,,6,,,66,127
43483,note_off,0,0,0,,2,,,50,127
43484,note_on,1,0,0,,2,,,50,127
43484,note_on,0,0,0,,2,,,62,127
43692,note_off,208,0,0,,2,,,62,127
43692,note_off,0,0,0,,2,,,50,127
43693,note_on,1,0,0,,10,,,57,127
43693,note_on,0,0,0,,6,,,78,127
43744,note_off,51,0,0,,6,,,78,127
43745,note_on,1,0,0,,4,,,76,127
43796,note_off,51,0,0,,4,,,76,127
43797,note_on,1,0,0,,6,,,78,127
43848,note_off,51,0,0,,6,,,78,127
43849,note_on,1,0,0,,4,,,76,127
43900,note_off,51,0,0,,4,,,76,127
43901,note_on,1,0,0,,10,,,45,127
43901,note_on,0,0,0,,6,,,78,127
43952,note_off,51,0,0,,6,,,78,127
43953,note_on,1,0,0,,4,,,76,127
44004,note_off,51,0,0,,4,,,76,127
44005,note_on,1,0,0,,2,,,74,127
44056,note_off,51,0,0,,2,,,74,127
44057,note_on,1,0,0,,4,,,76,127
44105,note_off,48,0,0,,10,,,57,127
44108,note_off,3,0,0,,4,,,76,127
44108,note_off,0,0,0,,10,,,45,127
44109,note_on,1,0,0,,2,,,38,127
44109,note_on,0,0,0,,2,,,50,127
44109,note_on,0,0,0,,2,,,74,127
44633,note_off,524,0,0,,2,,,38,127
44737,note_off,104,0,0,,2,,,74,127
44737,note_off,0,0,0,,2,,,50,127
44738,note_on,1,0,0,,12,,,59,127
44843,note_on,105,0,0,,7,,,67,127
44947,note_off,104,0,0,,7,,,67,127
44948,note_on,1,0,0,,6,,,66,127
45052,note_off,104,0,0,,6,,,66,127
45053,note_on,1,0,0,,7,,,67,127
45157,note_off,104,0,0,,7,,,67,127
45158,note_on,1,0,0,,10,,,69,127
45262,note_off,104,0,0,,10,,,69,127
45263,note_on,1,0,0,,7,,,67,127
45367,note_off,104,0,0,,12,,,59,127
45368,note_on,1,0,0,,0,,,60,127
45472,note_off,104,0,0,,7,,,67,127
45473,note_on,1,0,0,,10,,,69,127
45577,note_off,104,0,0,,10,,,69,127
45578,note_on,1,0,0,,8,,,68,127
45682,note_off,104,0,0,,8,,,68,127
45683,note_on,1,0,0,,10,,,69,127
45787,note_off,104,0,0,,10,,,69,127
45788,note_on,1,0,0,,12,,,71,127
45892,note_off,104,0,0,,12,,,71,127
45893,note_on,1,0,0,,10,,,69,127
45997,note_off,104,0,0,,0,,,60,127
45998,note_on,1,0,0,,2,,,62,127
46102,note_off,104,0,0,,10,,,69,127
46103,note_on,1,0,0,,2,,,74,127
46207,note_off,104,0,0,,2,,,74,127
46208,note_on,1,0,0,,0,,,72,127
46312,note_off,104,0,0,,0,,,72,127
46313,note_on,1,0,0,,12,,,71,127
46417,note_off,104,0,0,,12,,,71,127
46417,note_off,0,0,0,,2,,,62,127
46418,note_on,1,0,0,,4,,,64,127
46418,note_on,0,0,0,,4,,,76,127
46522,note_off,104,0,0,,4,,,76,127
46523,note_on,1,0,0,,2,,,74,127
46627,note_off,104,0,0,,4,,,64,127
46628,note_on,1,0,0,,10,,,57,127
46676,note_off,48,0,0,,2,,,74,127
46680,note_on,4,0,0,,0,,,72,127
46731,note_off,51,0,0,,0,,,72,127
46732,note_on,1,0,0,,2,,,74,127
46783,note_off,51,0,0,,2,,,74,127
46784,note_on,1,0,0,,0,,,72,127
46835,note_off,51,0,0,,0,,,72,127
46836,note_on,1,0,0,,12,,,71,127
47044,note_off,208,0,0,,12,,,71,127
47045,note_on,1,0,0,,10,,,69,127
47252,note_off,207,0,0,,10,,,69,127
47253,note_off,1,0,0,,10,,,57,127
47254,note_on,1,0,0,,0,,,60,127
47359,note_on,105,0,0,,4,,,64,127
47463,note_off,104,0,0,,4,,,64,127
47464,note_on,1,0,0,,3,,,63,127
47568,note_off,104,0,0,,3,,,63,127
47569,note_on,1,0,0,,4,,,64,127
47673,note_off,104,0,0,,4,,,64,127
47674,note_on,1,0,0,,6,,,66,127
47778,note_off,104,0,0,,6,,,66,127
47779,note_on,1,0,0,,4,,,64,127
47883,note_off,104,0,0,,0,,,60,127
47884,note_on,1,0,0,,12,,,59,127
47988,note_off,104,0,0,,4,,,64,127
47989,note_on,1,0,0,,7,,,67,127
48093,note_off,104,0,0,,7,,,67,127
48094,note_on,1,0,0,,6,,,66,127
48198,note_off,104,0,0,,6,,,66,127
48199,note_on,1,0,0,,7,,,67,127
48303,note_off,104,0,0,,7,,,67,127
48304,note_on,1,0,0,,10,,,69,127
48408,note_off,104,0,0,,10,,,69,127
48409,note_on,1,0,0,,7,,,67,127
48513,note_off,104,0,0,,12,,,59,127
48514,note_on,1,0,0,,6,,,54,127
48514,note_on,0,0,0,,10,,,57,127
48618,note_off,104,0,0,,7,,,67,127
48619,note_on,1,0,0,,10,,,69,127
48723,note_off,104,0,0,,10,,,69,127
48724,note_on,1,0,0,,7,,,67,127
48828,note_off,104,0,0,,7,,,67,127
48829,note_on,1,0,0,,10,,,69,127
48933,note_off,104,0,0,,10,,,69,127
48933,note_off,0,0,0,,10,,,57,127
48933,note_off,0,0,0,,6,,,54,127
48934,note_on,1,0,0,,3,,,51,127
48934,note_on,0,0,0,,6,,,78,127
49038,note_off,104,0,0,,6,,,78,127
49039,note_on,1,0,0,,10,,,69,127
49143,note_off,104,0,0,,3,,,51,127
49144,note_on,1,0,0,,4,,,52,127
49192,note_off,48,0,0,,10,,,69,127
49196,note_on,4,0,0,,7,,,67,127
49247,note_off,51,0,0,,7,,,67,127
49248,note_on,1,0,0,,10,,,69,127
49299,note_off,51,0,0,,10,,,69,127
49300,note_on,1,0,0,,7,,,67,127
49351,note_off,51,0,0,,7,,,67,127
49352,note_on,1,0,0,,6,,,66,127
49560,note_off,208,0,0,,6,,,66,127
49561,note_on,1,0,0,,4,,,64,127
49769,note_off,208,0,0,,4,,,52,127
49770,note_on,1,0,0,,7,,,55,127
49770,note_on,0,0,0,,12,,,59,127
49874,note_off,104,0,0,,4,,,64,127
49875,note_on,1,0,0,,4,,,64,127
49979,note_off,104,0,0,,4,,,64,127
49980,note_on,1,0,0,,3,,,63,127
50084,note_off,104,0,0,,3,,,63,127
50085,note_on,1,0,0,,4,,,64,127
50189,note_off,104,0,0,,4,,,64,127
50190,note_on,1,0,0,,6,,,66,127
50294,note_off,104,0,0,,6,,,66,127
50295,note_on,1,0,0,,4,,,64,127
50399,note_off,104,0,0,,12,,,59,127
50399,note_off,0,0,0,,7,,,55,127
50400,note_on,1,0,0,,10,,,57,127
50400,note_on,0,0,0,,0,,,60,127
50504,note_off,104,0,0,,4,,,64,127
50505,note_on,1,0,0,,6,,,66,127
50609,note_off,104,0,0,,6,,,66,127
50610,note_on,1,0,0,,4,,,64,127
50714,note_off,104,0,0,,4,,,64,127
50715,note_on,1,0,0,,6,,,66,127
50819,note_off,104,0,0,,6,,,66,127
50820,note_on,1,0,0,,7,,,67,127
50924,note_off,104,0,0,,7,,,67,127
50925,note_on,1,0,0,,6,,,66,127
51029,note_off,104,0,0,,0,,,60,127
51029,note_off,0,0,0,,10,,,57,127
51030,note_on,1,0,0,,2,,,62,127
51030,note_on,0,0,0,,12,,,59,127
51134,note_off,104,0,0,,6,,,66,127
51135,note_on,1,0,0,,7,,,67,127
51239,note_off,104,0,0,,7,,,67,127
51240,note_on,1,0,0,,6,,,66,127
51344,note_off,104,0,0,,6,,,66,127
51345,note_on,1,0,0,,7,,,67,127
51449,note_off,104,0,0,,7,,,67,127
51450,note_on,1,0,0,,10,,,69,127
51554,note_off,104,0,0,,10,,,69,127
51555,note_on,1,0,0,,12,,,71,127
51659,note_off,104,0,0,,12,,,71,127
51659,note_off,0,0,0,,12,,,59,127
51659,note_off,0,0,0,,2,,,62,127
51660,note_on,1,0,0,,0,,,60,127
51660,note_on,0,0,0,,0,,,72,127
51764,note_off,104,0,0,,0,,,72,127
51765,note_on,1,0,0,,2,,,74,127
51869,note_off,104,0,0,,2,,,74,127
51870,note_on,1,0,0,,4,,,76,127
51974,note_off,104,0,0,,4,,,76,127
51975,note_on,1,0,0,,0,,,72,127
52079,note_off,104,0,0,,0,,,72,127
52079,note_off,0,0,0,,0,,,60,127
52080,note_on,1,0,0,,2,,,62,127
52080,note_on,0,0,0,,12,,,71,127
52184,note_off,104,0,0,,12,,,71,127
52185,note_on,1,0,0,,10,,,69,127
52289,note_off,104,0,0,,10,,,69,127
52289,note_off,0,0,0,,2,,,62,127
52290,note_on,1,0,0,,7,,,55,127
52290,note_on,0,0,0,,0,,,72,127
52341,note_off,51,0,0,,0,,,72,127
52342,note_on,1,0,0,,12,,,71,127
52393,note_off,51,0,0,,12,,,71,127
52394,note_on,1,0,0,,0,,,72,127
52445,note_off,51,0,0,,0,,,72,127
52446,note_on,1,0,0,,12,,,71,127
52497,note_off,51,0,0,,12,,,71,127
52498,note_on,1,0,0,,10,,,69,127
52706,note_off,208,0,0,,10,,,69,127
52707,note_on,1,0,0,,7,,,67,127
52915,note_off,208,0,0,,7,,,55,127
52916,note_on,1,0,0,,12,,,59,127
53021,note_off,105,0,0,,7,,,67,127
53126,note_on,105,0,0,,4,,,76,127
53177,note_off,51,0,0,,4,,,76,127
53178,note_on,1,0,0,,2,,,74,127
53229,note_off,51,0,0,,2,,,74,127
53230,note_on,1,0,0,,0,,,72,127
53334,note_off,104,0,0,,0,,,72,127
53335,note_on,1,0,0,,2,,,74,127
53439,note_off,104,0,0,,2,,,74,127
53440,note_on,1,0,0,,12,,,83,127
53544,note_off,104,0,0,,12,,,83,127
53544,note_off,0,0,0,,12,,,59,127
53545,note_on,1,0,0,,10,,,57,127
53545,note_on,0,0,0,,2,,,74,127
53753,note_off,208,0,0,,2,,,74,127
53754,note_on,1,0,0,,2,,,74,127
53805,note_off,51,0,0,,2,,,74,127
53806,note_on,1,0,0,,0,,,72,127
53857,note_off,51,0,0,,0,,,72,127
53858,note_on,1,0,0,,12,,,71,127
53962,note_off,104,0,0,,12,,,71,127
53963,note_on,1,0,0,,0,,,72,127
54067,note_off,104,0,0,,0,,,72,127
54068,note_on,1,0,0,,10,,,81,127
54172,note_off,104,0,0,,10,,,81,127
54172,note_off,0,0,0,,10,,,57,127
54173,note_on,1,0,0,,7,,,55,127
54173,note_on,0,0,0,,0,,,72,127
54381,note_off,208,0,0,,0,,,72,127
54382,note_on,1,0,0,,0,,,72,127
54433,note_off,51,0,0,,0,,,72,127
54434,note_on,1,0,0,,12,,,71,127
54485,note_off,51,0,0,,12,,,71,127
54486,note_on,1,0,0,,10,,,69,127
54590,note_off,104,0,0,,10,,,69,127
54591,note_on,1,0,0,,12,,,71,127
54695,note_off,104,0,0,,12,,,71,127
54696,note_on,1,0,0,,7,,,79,127
54800,note_off,104,0,0,,7,,,79,127
54800,note_off,0,0,0,,7,,,55,127
54801,note_on,1,0,0,,2,,,50,127
54801,note_on,0,0,0,,12,,,71,127
55009,note_off,208,0,0,,12,,,71,127
55010,note_on,1,0,0,,12,,,71,127
55061,note_off,51,0,0,,12,,,71,127
55062,note_on,1,0,0,,10,,,69,127
55113,note_off,51,0,0,,10,,,69,127
55114,note_on,1,0,0,,7,,,67,127
55218,note_off,104,0,0,,7,,,67,127
55219,note_on,1,0,0,,10,,,69,127
55427,note_off,208,0,0,,2,,,50,127
55428,note_on,1,0,0,,12,,,59,127
55533,note_off,105,0,0,,10,,,69,127
55638,note_on,105,0,0,,4,,,76,127
55689,note_off,51,0,0,,4,,,76,127
55690,note_on,1,0,0,,2,,,74,127
55741,note_off,51,0,0,,2,,,74,127
55742,note_on,1,0,0,,0,,,72,127
55846,note_off,104,0,0,,0,,,72,127
55847,note_on,1,0,0,,2,,,74,127
55952,note_on,105,0,0,,12,,,83,127
56055,note_off,103,0,0,,2,,,74,127
56056,note_off,1,0,0,,12,,,83,127
56056,note_off,0,0,0,,12,,,59,127
56057,note_on,1,0,0,,10,,,57,127
56057,note_on,0,0,0,,2,,,74,127
56265,note_off,208,0,0,,2,,,74,127
56266,note_on,1,0,0,,2,,,74,127
56317,note_off,51,0,0,,2,,,74,127
56318,note_on,1,0,0,,0,,,72,127
56369,note_off,51,0,0,,0,,,72,127
56370,note_on,1,0,0,,12,,,71,127
56474,note_off,104,0,0,,12,,,71,127
56475,note_on,1,0,0,,0,,,72,127
56580,note_on,105,0,0,,10,,,81,127
56683,note_off,103,0,0,,0,,,72,127
56684,note_off,1,0,0,,10,,,81,127
56684,note_off,0,0,0,,10,,,57,127
56685,note_on,1,0,0,,7,,,55,127
56685,note_on,0,0,0,,0,,,72,127
56893,note_off,208,0,0,,0,,,72,127
56894,note_on,1,0,0,,0,,,72,127
56945,note_off,51,0,0,,0,,,72,127
56946,note_on,1,0,0,,12,,,71,127
56997,note_off,51,0,0,,12,,,71,127
56998,note_on,1,0,0,,10,,,69,127
57102,note_off,104,0,0,,10,,,69,127
57103,note_on,1,0,0,,12,,,71,127
57208,note_on,105,0,0,,7,,,79,127
57311,note_off,103,0,0,,12,,,71,127
57312,note_off,1,0,0,,7,,,79,127
57312,note_off,0,0,0,,7,,,55,127
57313,note_on,1,0,0,,2,,,50,127
57313,note_on,0,0,0,,12,,,71,127
57521,note_off,208,0,0,,12,,,71,127
57522,note_on,1,0,0,,12,,,71,127
57573,note_off,51,0,0,,12,,,71,127
57574,note_on,1,0,0,,10,,,69,127
57625,note_off,51,0,0,,10,,,69,127
57626,note_on,1,0,0,,7,,,67,127
57730,note_off,104,0,0,,7,,,67,127
57731,note_on,1,0,0,,10,,,69,127
57939,note_off,208,0,0,,2,,,50,127
57940,note_on,1,0,0,,2,,,50,127
57940,note_on,0,0,0,,0,,,60,127
58044,note_off,104,0,0,,10,,,69,127
58045,note_on,1,0,0,,0,,,72,127
58149,note_off,104,0,0,,0,,,72,127
58150,note_on,1,0,0,,11,,,70,127
58254,note_off,104,0,0,,11,,,70,127
58255,note_on,1,0,0,,10,,,69,127
58359,note_off,104,0,0,,10,,,69,127
58360,note_on,1,0,0,,7,,,67,127
58464,note_off,104,0,0,,7,,,67,127
58465,note_on,1,0,0,,6,,,66,127
58569,note_off,104,0,0,,6,,,66,127
58569,note_off,0,0,0,,0,,,60,127
58569,note_off,0,0,0,,2,,,50,127
58570,note_on,1,0,0,,0,,,48,127
58570,note_on,0,0,0,,0,,,60,127
58570,note_on,0,0,0,,3,,,75,127
58570,note_on,0,0,0,,7,,,67,127
58778,note_off,208,0,0,,7,,,67,127
58778,note_off,0,0,0,,3,,,75,127
58779,note_on,1,0,0,,2,,,74,127
58779,note_on,0,0,0,,6,,,66,127
58987,note_off,208,0,0,,6,,,66,127
58987,note_off,0,0,0,,2,,,74,127
58988,note_on,1,0,0,,3,,,75,127
58988,note_on,0,0,0,,7,,,67,127
59196,note_off,208,0,0,,7,,,67,127
59196,note_off,0,0,0,,3,,,75,127
59196,note_off,0,0,0,,0,,,60,127
59196,note_off,0,0,0,,0,,,48,127
59197,note_on,1,0,0,,2,,,50,127
59197,note_on,0,0,0,,0,,,60,127
59302,note_on,105,0,0,,0,,,72,127
59406,note_off,104,0,0,,0,,,72,127
59407,note_on,1,0,0,,11,,,70,127
59511,note_off,104,0,0,,11,,,70,127
59512,note_on,1,0,0,,10,,,69,127
59616,note_off,104,0,0,,10,,,69,127
59617,note_on,1,0,0,,7,,,67,127
59721,note_off,104,0,0,,7,,,67,127
59722,note_on,1,0,0,,6,,,66,127
59826,note_off,104,0,0,,6,,,66,127
59826,note_off,0,0,0,,0,,,60,127
59826,note_off,0,0,0,,2,,,50,127
59827,note_on,1,0,0,,0,,,48,127
59827,note_on,0,0,0,,0,,,60,127
59827,note_on,0,0,0,,7,,,79,127
59827,note_on,0,0,0,,3,,,75,127
60035,note_off,208,0,0,,3,,,75,127
60035,note_off,0,0,0,,7,,,79,127
60036,note_on,1,0,0,,6,,,78,127
60036,note_on,0,0,0,,2,,,74,127
60244,note_off,208,0,0,,2,,,74,127
60244,note_off,0,0,0,,6,,,78,127
60245,note_on,1,0,0,,3,,,75,127
60245,note_on,0,0,0,,7,,,79,127
60453,note_off,208,0,0,,7,,,79,127
60453,note_off,0,0,0,,3,,,75,127
60453,note_off,0,0,0,,0,,,60,127
60453,note_off,0,0,0,,0,,,48,127
60454,note_on,1,0,0,,0,,,60,127
60454,note_on,0,0,0,,2,,,50,127
60559,note_on,105,0,0,,0,,,72,127
60663,note_off,104,0,0,,0,,,72,127
60664,note_on,1,0,0,,11,,,70,127
60768,note_off,104,0,0,,11,,,70,127
60769,note_on,1,0,0,,10,,,69,127
60873,note_off,104,0,0,,10,,,69,127
60874,note_on,1,0,0,,7,,,67,127
60978,note_off,104,0,0,,7,,,67,127
60979,note_on,1,0,0,,6,,,66,127
61083,note_off,104,0,0,,6,,,66,127
61083,note_off,0,0,0,,2,,,50,127
61083,note_off,0,0,0,,0,,,60,127
61084,note_on,1,0,0,,0,,,48,127
61084,note_on,0,0,0,,0,,,60,127
61084,note_on,0,0,0,,3,,,75,127
61084,note_on,0,0,0,,7,,,67,127
61292,note_off,208,0,0,,7,,,67,127
61292,note_off,0,0,0,,3,,,75,127
61293,note_on,1,0,0,,2,,,74,127
61293,note_on,0,0,0,,6,,,66,127
61501,note_off,208,0,0,,6,,,66,127
61501,note_off,0,0,0,,2,,,74,127
61502,note_on,1,0,0,,3,,,75,127
61502,note_on,0,0,0,,7,,,67,127
61710,note_off,208,0,0,,7,,,67,127
61710,note_off,0,0,0,,3,,,75,127
61710,note_off,0,0,0,,0,,,60,127
61710,note_off,0,0,0,,0,,,48,127
61711,note_on,1,0,0,,2,,,50,127
61711,note_on,0,0,0,,0,,,60,127
61816,note_on,105,0,0,,0,,,72,127
61920,note_off,104,0,0,,0,,,72,127
61921,note_on,1,0,0,,11,,,70,127
62025,note_off,104,0,0,,11,,,70,127
62026,note_on,1,0,0,,10,,,69,127
62130,note_off,104,0,0,,10,,,69,127
62131,note_on,1,0,0,,7,,,67,127
62235,note_off,104,0,0,,7,,,67,127
62236,note_on,1,0,0,,6,,,66,127
62340,note_off,104,0,0,,6,,,66,127
62340,note_off,0,0,0,,0,,,60,127
62340,note_off,0,0,0,,2,,,50,127
62341,note_on,1,0,0,,0,,,48,127
62341,note_on,0,0,0,,0,,,60,127
62341,note_on,0,0,0,,7,,,79,127
62341,note_on,0,0,0,,3,,,75,127
62549,note_off,208,0,0,,3,,,75,127
62549,note_off,0,0,0,,7,,,79,127
62550,note_on,1,0,0,,6,,,78,127
62550,note_on,0,0,0,,2,,,74,127
62758,note_off,208,0,0,,2,,,74,127
62758,note_off,0,0,0,,6,,,78,127
62759,note_on,1,0,0,,7,,,79,127
62759,note_on,0,0,0,,3,,,75,127
62966,note_off,207,0,0,,3,,,75,127
62967,note_off,1,0,0,,0,,,60,127
62967,note_off,0,0,0,,0,,,48,127
62968,note_on,1,0,0,,6,,,54,127
63072,note_off,104,0,0,,7,,,79,127
63073,note_on,1,0,0,,10,,,69,127
63177,note_off,104,0,0,,10,,,69,127
63178,note_on,1,0,0,,0,,,72,127
63282,note_off,104,0,0,,0,,,72,127
63283,note_on,1,0,0,,6,,,78,127
63387,note_off,104,0,0,,6,,,78,127
63387,note_off,0,0,0,,6,,,54,127
63388,note_on,1,0,0,,2,,,50,127
63388,note_on,0,0,0,,10,,,81,127
63492,note_off,104,0,0,,10,,,81,127
63493,note_on,1,0,0,,0,,,72,127
63597,note_off,104,0,0,,0,,,72,127
63597,note_off,0,0,0,,2,,,50,127
63598,note_on,1,0,0,,7,,,55,127
63598,note_on,0,0,0,,11,,,70,127
63806,note_off,208,0,0,,11,,,70,127
63806,note_off,0,0,0,,7,,,55,127
63807,note_on,1,0,0,,10,,,57,127
63807,note_on,0,0,0,,0,,,72,127
64015,note_off,208,0,0,,0,,,72,127
64015,note_off,0,0,0,,10,,,57,127
64016,note_on,1,0,0,,11,,,58,127
64016,note_on,0,0,0,,2,,,74,127
64224,note_off,208,0,0,,2,,,74,127
64224,note_off,0,0,0,,11,,,58,127
64225,note_on,1,0,0,,0,,,60,127
64225,note_on,0,0,0,,3,,,75,127
64433,note_off,208,0,0,,3,,,75,127
64433,note_off,0,0,0,,0,,,60,127
64434,note_on,1,0,0,,2,,,62,127
64434,note_on,0,0,0,,7,,,67,127
64642,note_off,208,0,0,,7,,,67,127
64643,note_on,1,0,0,,2,,,50,127
64643,note_on,0,0,0,,6,,,66,127
64848,note_off,205,0,0,,2,,,62,127
64851,note_off,3,0,0,,6,,,66,127
64851,note_off,0,0,0,,2,,,50,127
64852,note_on,1,0,0,,7,,,55,127
64852,note_on,0,0,0,,6,,,66,127
65270,note_off,418,0,0,,6,,,66,127
65271,note_on,1,0,0,,7,,,67,127
65430,note_off,159,0,0,,7,,,55,127
65479,note_off,49,0,0,,7,,,67,127
65480,note_on,1,0,0,,2,,,50,127
65480,note_on,0,0,0,,0,,,60,127
65585,note_on,105,0,0,,0,,,72,127
65689,note_off,104,0,0,,0,,,72,127
65690,note_on,1,0,0,,11,,,70,127
65794,note_off,104,0,0,,11,,,70,127
65795,note_on,1,0,0,,10,,,69,127
65899,note_off,104,0,0,,10,,,69,127
65900,note_on,1,0,0,,7,,,67,127
66004,note_off,104,0,0,,7,,,67,127
66005,note_on,1,0,0,,6,,,66,127
66109,note_off,104,0,0,,6,,,66,127
66109,note_off,0,0,0,,0,,,60,127
66109,note_off,0,0,0,,2,,,50,127
66110,note_on,1,0,0,,0,,,60,127
66110,note_on,0,0,0,,0,,,48,127
66110,note_on,0,0,0,,3,,,75,127
66110,note_on,0,0,0,,7,,,67,127
66318,note_off,208,0,0,,7,,,67,127
66318,note_off,0,0,0,,3,,,75,127
66319,note_on,1,0,0,,2,,,74,127
66319,note_on,0,0,0,,6,,,66,127
66527,note_off,208,0,0,,6,,,66,127
66527,note_off,0,0,0,,2,,,74,127
66528,note_on,1,0,0,,3,,,75,127
66528,note_on,0,0,0,,7,,,67,127
66736,note_off,208,0,0,,7,,,67,127
66736,note_off,0,0,0,,3,,,75,127
66736,note_off,0,0,0,,0,,,48,127
66736,note_off,0,0,0,,0,,,60,127
66737,note_on,1,0,0,,2,,,50,127
66737,note_on,0,0,0,,0,,,60,127
66842,note_on,105,0,0,,0,,,72,127
66946,note_off,104,0,0,,0,,,72,127
66947,note_on,1,0,0,,11,,,70,127
67051,note_off,104,0,0,,11,,,70,127
67052,note_on,1,0,0,,10,,,69,127
67156,note_off,104,0,0,,10,,,69,127
67157,note_on,1,0,0,,7,,,67,127
67261,note_off,104,0,0,,7,,,67,127
67262,note_on,1,0,0,,6,,,66,127
67366,note_off,104,0,0,,6,,,66,127
67366,note_off,0,0,0,,0,,,60,127
67366,note_off,0,0,0,,2,,,50,127
67367,note_on,1,0,0,,0,,,60,127
67367,note_on,0,0,0,,0,,,48,127
67367,note_on,0,0,0,,7,,,79,127
67367,note_on,0,0,0,,3,,,75,127
67575,note_off,208,0,0,,3,,,75,127
67575,note_off,0,0,0,,7,,,79,127
67576,note_on,1,0,0,,2,,,74,127
67576,note_on,0,0,0,,6,,,78,127
67784,note_off,208,0,0,,6,,,78,127
67784,note_off,0,0,0,,2,,,74,127
67785,note_on,1,0,0,,7,,,79,127
67785,note_on,0,0,0,,3,,,75,127
67993,note_off,208,0,0,,3,,,75,127
67993,note_off,0,0,0,,7,,,79,127
67993,note_off,0,0,0,,0,,,48,127
67993,note_off,0,0,0,,0,,,60,127
67994,note_on,1,0,0,,2,,,50,127
67994,note_on,0,0,0,,0,,,60,127
68099,note_on,105,0,0,,0,,,72,127
68203,note_off,104,0,0,,0,,,72,127
68204,note_on,1,0,0,,11,,,70,127
68308,note_off,104,0,0,,11,,,70,127
68309,note_on,1,0,0,,10,,,69,127
68413,note_off,104,0,0,,10,,,69,127
68414,note_on,1,0,0,,7,,,67,127
68518,note_off,104,0,0,,7,,,67,127
68519,note_on,1,0,0,,6,,,66,127
68623,note_off,104,0,0,,6,,,66,127
68623,note_off,0,0,0,,0,,,60,127
68623,note_off,0,0,0,,2,,,50,127
68624,note_on,1,0,0,,0,,,48,127
68624,note_on,0,0,0,,0,,,60,127
68624,note_on,0,0,0,,7,,,67,127
68624,note_on,0,0,0,,3,,,75,127
68832,note_off,208,0,0,,3,,,75,127
68832,note_off,0,0,0,,7,,,67,127
68833,note_on,1,0,0,,2,,,74,127
68833,note_on,0,0,0,,6,,,66,127
69041,note_off,208,0,0,,6,,,66,127
69041,note_off,0,0,0,,2,,,74,127
69042,note_on,1,0,0,,3,,,75,127
69042,note_on,0,0,0,,7,,,67,127
69250,note_off,208,0,0,,7,,,67,127
69250,note_off,0,0,0,,3,,,75,127
69250,note_off,0,0,0,,0,,,60,127
69250,note_off,0,0,0,,0,,,48,127
69251,note_on,1,0,0,,2,,,50,127
69251,note_on,0,0,0,,0,,,60,127
69356,note_on,105,0,0,,0,,,72,127
69460,note_off,104,0,0,,0,,,72,127
69461,note_on,1,0,0,,11,,,70,127
69565,note_off,104,0,0,,11,,,70,127
69566,note_on,1,0,0,,10,,,69,127
69670,note_off,104,0,0,,10,,,69,127
69671,note_on,1,0,0,,7,,,67,127
69775,note_off,104,0,0,,7,,,67,127
69776,note_on,1,0,0,,6,,,66,127
69880,note_off,104,0,0,,6,,,66,127
69880,note_off,0,0,0,,0,,,60,127
69880,note_off,0,0,0,,2,,,50,127
69881,note_on,1,0,0,,0,,,60,127
69881,note_on,0,0,0,,0,,,48,127
69881,note_on,0,0,0,,7,,,79,127
69881,note_on,0,0,0,,3,,,75,127
70089,note_off,208,0,0,,3,,,75,127
70089,note_off,0,0,0,,7,,,79,127
70090,note_on,1,0,0,,6,,,78,127
70090,note_on,0,0,0,,2,,,74,127
70298,note_off,208,0,0,,2,,,74,127
70298,note_off,0,0,0,,6,,,78,127
70299,note_on,1,0,0,,7,,,79,127
70299,note_on,0,0,0,,3,,,75,127
70506,note_off,207,0,0,,3,,,75,127
70506,note_off,0,0,0,,7,,,79,127
70507,note_off,1,0,0,,0,,,48,127
70507,note_off,0,0,0,,0,,,60,127
70508,note_on,1,0,0,,6,,,54,127
70613,note_on,105,0,0,,10,,,69,127
70717,note_off,104,0,0,,10,,,69,127
70718,note_on,1,0,0,,0,,,72,127
70822,note_off,104,0,0,,0,,,72,127
70823,note_on,1,0,0,,6,,,78,127
70927,note_off,104,0,0,,6,,,78,127
70927,note_off,0,0,0,,6,,,54,127
70928,note_on,1,0,0,,2,,,50,127
70928,note_on,0,0,0,,10,,,81,127
71032,note_off,104,0,0,,10,,,81,127
71033,note_on,1,0,0,,0,,,72,127
71137,note_off,104,0,0,,0,,,72,127
71137,note_off,0,0,0,,2,,,50,127
71138,note_on,1,0,0,,7,,,55,127
71138,note_on,0,0,0,,11,,,70,127
71346,note_off,208,0,0,,11,,,70,127
71346,note_off,0,0,0,,7,,,55,127
71347,note_on,1,0,0,,10,,,57,127
71347,note_on,0,0,0,,0,,,72,127
71555,note_off,208,0,0,,0,,,72,127
71555,note_off,0,0,0,,10,,,57,127
71556,note_on,1,0,0,,11,,,58,127
71556,note_on,0,0,0,,2,,,74,127
71764,note_off,208,0,0,,2,,,74,127
71764,note_off,0,0,0,,11,,,58,127
71765,note_on,1,0,0,,0,,,60,127
71765,note_on,0,0,0,,3,,,75,127
71973,note_off,208,0,0,,3,,,75,127
71973,note_off,0,0,0,,0,,,60,127
71974,note_on,1,0,0,,2,,,62,127
71974,note_on,0,0,0,,7,,,67,127
72182,note_off,208,0,0,,7,,,67,127
72183,note_on,1,0,0,,2,,,50,127
72183,note_on,0,0,0,,6,,,66,127
72388,note_off,205,0,0,,2,,,62,127
72391,note_off,3,0,0,,6,,,66,127
72391,note_off,0,0,0,,2,,,50,127
72392,note_on,1,0,0,,7,,,55,127
72601,note_on,209,0,0,,6,,,66,127
72705,note_off,104,0,0,,6,,,66,127
72706,note_on,1,0,0,,7,,,67,127
72810,note_off,104,0,0,,7,,,67,127
72811,note_on,1,0,0,,10,,,69,127
72915,note_off,104,0,0,,10,,,69,127
72916,note_on,1,0,0,,7,,,67,127
73020,note_off,104,0,0,,7,,,55,127
73021,note_on,1,0,0,,12,,,59,127
73229,note_off,208,0,0,,7,,,67,127
73230,note_on,1,0,0,,1,,,73,127
73334,note_off,104,0,0,,1,,,73,127
73335,note_on,1,0,0,,2,,,74,127
73439,note_off,104,0,0,,2,,,74,127
73440,note_on,1,0,0,,4,,,76,127
73544,note_off,104,0,0,,4,,,76,127
73545,note_on,1,0,0,,2,,,74,127
73649,note_off,104,0,0,,12,,,59,127
73650,note_on,1,0,0,,0,,,60,127
73858,note_off,208,0,0,,2,,,74,127
73859,note_on,1,0,0,,6,,,78,127
73963,note_off,104,0,0,,6,,,78,127
73964,note_on,1,0,0,,7,,,79,127
74068,note_off,104,0,0,,7,,,79,127
74069,note_on,1,0,0,,10,,,81,127
74173,note_off,104,0,0,,10,,,81,127
74174,note_on,1,0,0,,7,,,79,127
74278,note_off,104,0,0,,7,,,79,127
74278,note_off,0,0,0,,0,,,60,127
74279,note_on,1,0,0,,2,,,62,127
74279,note_on,0,0,0,,0,,,72,127
74384,note_on,105,0,0,,10,,,81,127
74487,note_off,103,0,0,,0,,,72,127
74488,note_off,1,0,0,,10,,,81,127
74489,note_on,1,0,0,,12,,,71,127
74594,note_on,105,0,0,,7,,,79,127
74697,note_off,103,0,0,,12,,,71,127
74698,note_off,1,0,0,,7,,,79,127
74699,note_on,1,0,0,,10,,,69,127
74804,note_on,105,0,0,,6,,,78,127
74902,note_off,98,0,0,,6,,,78,127
74906,note_off,4,0,0,,10,,,69,127
74907,note_off,1,0,0,,2,,,62,127
74908,note_on,1,0,0,,7,,,55,127
75117,note_on,209,0,0,,6,,,66,127
75221,note_off,104,0,0,,6,,,66,127
75222,note_on,1,0,0,,7,,,67,127
75326,note_off,104,0,0,,7,,,67,127
75327,note_on,1,0,0,,10,,,69,127
75431,note_off,104,0,0,,10,,,69,127
75432,note_on,1,0,0,,7,,,67,127
75536,note_off,104,0,0,,7,,,55,127
75537,note_on,1,0,0,,12,,,59,127
75640,note_off,103,0,0,,7,,,67,127
75747,note_on,107,0,0,,1,,,73,127
75851,note_off,104,0,0,,1,,,73,127
75852,note_on,1,0,0,,2,,,74,127
75956,note_off,104,0,0,,2,,,74,127
75957,note_on,1,0,0,,4,,,76,127
76061,note_off,104,0,0,,4,,,76,127
76062,note_on,1,0,0,,2,,,74,127
76166,note_off,104,0,0,,12,,,59,127
76167,note_on,1,0,0,,0,,,60,127
76270,note_off,103,0,0,,2,,,74,127
76377,note_on,107,0,0,,6,,,78,127
76481,note_off,104,0,0,,6,,,78,127
76482,note_on,1,0,0,,7,,,79,127
76586,note_off,104,0,0,,7,,,79,127
76587,note_on,1,0,0,,10,,,81,127
76691,note_off,104,0,0,,10,,,81,127
76692,note_on,1,0,0,,7,,,79,127
76796,note_off,104,0,0,,7,,,79,127
76796,note_off,0,0,0,,0,,,60,127
76797,note_on,1,0,0,,2,,,62,127
76797,note_on,0,0,0,,0,,,72,127
76901,note_off,104,0,0,,0,,,72,127
76902,note_on,1,0,0,,10,,,81,127
77007,note_on,105,0,0,,12,,,71,127
77110,note_off,103,0,0,,10,,,81,127
77111,note_off,1,0,0,,12,,,71,127
77112,note_on,1,0,0,,7,,,79,127
77217,note_on,105,0,0,,10,,,69,127
77320,note_off,103,0,0,,7,,,79,127
77321,note_off,1,0,0,,10,,,69,127
77322,note_on,1,0,0,,6,,,78,127
77426,note_off,104,0,0,,6,,,78,127
77426,note_off,0,0,0,,2,,,62,127
77427,note_on,1,0,0,,7,,,55,127
77427,note_on,0,0,0,,7,,,43,127
77427,note_on,0,0,0,,7,,,79,127
77532,note_on,105,0,0,,2,,,74,127
77636,note_off,104,0,0,,2,,,74,127
77637,note_on,1,0,0,,12,,,71,127
77741,note_off,104,0,0,,12,,,71,127
77742,note_on,1,0,0,,7,,,67,127
77846,note_off,104,0,0,,7,,,67,127
77847,note_on,1,0,0,,2,,,74,127
77950,note_off,103,0,0,,7,,,79,127
77951,note_off,1,0,0,,2,,,74,127
77952,note_on,1,0,0,,7,,,79,127
78056,note_off,104,0,0,,7,,,79,127
78056,note_off,0,0,0,,7,,,43,127
78056,note_off,0,0,0,,7,,,55,127
78057,note_on,1,0,0,,7,,,55,127
78057,note_on,0,0,0,,7,,,67,127
78265,note_off,208,0,0,,7,,,67,127
78265,note_off,0,0,0,,7,,,55,127
78266,note_on,1,0,0,,2,,,62,127
78266,note_on,0,0,0,,12,,,71,127
78317,note_off,51,0,0,,12,,,71,127
78318,note_on,1,0,0,,10,,,69,127
78369,note_off,51,0,0,,10,,,69,127
78370,note_on,1,0,0,,12,,,71,127
78421,note_off,51,0,0,,12,,,71,127
78422,note_on,1,0,0,,10,,,69,127
78473,note_off,51,0,0,,10,,,69,127
78473,note_off,0,0,0,,2,,,62,127
78474,note_on,1,0,0,,2,,,50,127
78474,note_on,0,0,0,,12,,,71,127
78525,note_off,51,0,0,,12,,,71,127
78526,note_on,1,0,0,,10,,,69,127
78577,note_off,51,0,0,,10,,,69,127
78578,note_on,1,0,0,,7,,,67,127
78629,note_off,51,0,0,,7,,,67,127
78630,note_on,1,0,0,,10,,,69,127
78681,note_off,51,0,0,,10,,,69,127
78681,note_off,0,0,0,,2,,,50,127
78682,note_on,1,0,0,,7,,,55,127
78682,note_on,0,0,0,,12,,,71,127
78786,note_off,104,0,0,,12,,,71,127
78787,note_on,1,0,0,,7,,,67,127
78892,note_on,105,0,0,,12,,,71,127
78996,note_off,104,0,0,,12,,,71,127
78997,note_on,1,0,0,,2,,,74,127
79101,note_off,104,0,0,,2,,,74,127
79102,note_on,1,0,0,,7,,,79,127
79309,note_off,207,0,0,,7,,,67,127
79310,note_off,1,0,0,,7,,,79,127
79310,note_off,0,0,0,,7,,,55,127
79318,note_on,8,0,0,,7,,,43,127
79318,note_on,0,0,0,,7,,,67,127
79526,note_off,208,0,0,,7,,,67,127
79526,note_off,0,0,0,,7,,,43,127
79545,note_on,19,0,0,,2,,,50,127
79545,note_on,0,0,0,,12,,,71,127
79596,note_off,51,0,0,,12,,,71,127
79601,note_on,5,0,0,,10,,,69,127
79652,note_off,51,0,0,,10,,,69,127
79657,note_on,5,0,0,,12,,,71,127
79708,note_off,51,0,0,,12,,,71,127
79713,note_on,5,0,0,,10,,,69,127
79764,note_off,51,0,0,,10,,,69,127
79769,note_on,5,0,0,,2,,,38,127
79769,note_on,0,0,0,,12,,,71,127
79820,note_off,51,0,0,,12,,,71,127
79825,note_on,5,0,0,,10,,,69,127
79876,note_off,51,0,0,,10,,,69,127
79881,note_on,5,0,0,,7,,,67,127
79932,note_off,51,0,0,,7,,,67,127
79943,note_on,11,0,0,,10,,,69,127
79958,note_off,15,0,0,,2,,,50,127
79975,note_off,17,0,0,,2,,,38,127
80003,note_off,28,0,0,,10,,,69,127
80020,note_on,17,0,0,,7,,,43,127
80020,note_on,0,0,0,,7,,,55,127
80020,note_on,0,0,0,,7,,,67,127
81905,note_off,1885,0,0,,7,,,67,127
81905,note_off,0,0,0,,7,,,55,127
81905,note_off,0,0,0,,7,,,43,127
86016,end_of_track,4111,1,0,,,,,,
