tick,type,time,meta,track,program,channel,pitch,tempo,note,velocity
0,copyright,0,1,0,,,,,,
0,program_change,0,0,0,6,0,,,,
0,pitchwheel,0,0,0,,0,0,,,
0,program_change,0,0,0,6,1,,,,
0,pitchwheel,0,0,0,,1,-590,,,
0,program_change,0,0,0,6,2,,,,
0,pitchwheel,0,0,0,,2,-272,,,
0,program_change,0,0,0,6,3,,,,
0,pitchwheel,0,0,0,,3,-353,,,
0,program_change,0,0,0,6,4,,,,
0,pitchwheel,0,0,0,,4,-560,,,
0,program_change,0,0,0,6,5,,,,
0,pitchwheel,0,0,0,,5,-80,,,
0,program_change,0,0,0,6,6,,,,
0,pitchwheel,0,0,0,,6,-625,,,
0,program_change,0,0,0,6,7,,,,
0,pitchwheel,0,0,0,,7,-130,,,
0,program_change,0,0,0,6,8,,,,
0,pitchwheel,0,0,0,,8,-512,,,
0,program_change,0,0,0,6,10,,,,
0,pitchwheel,0,0,0,,10,-464,,,
0,program_change,0,0,0,6,11,,,,
0,pitchwheel,0,0,0,,11,-208,,,
0,program_change,0,0,0,6,12,,,,
0,pitchwheel,0,0,0,,12,-553,,,
0,set_tempo,0,1,0,,,,500000,,
121,note_on,121,0,0,,4,,,64,127
121,note_on,0,0,0,,4,,,76,127
241,note_off,120,0,0,,4,,,76,127
242,note_on,1,0,0,,7,,,79,127
362,note_off,120,0,0,,7,,,79,127
363,note_on,1,0,0,,6,,,78,127
483,note_off,120,0,0,,6,,,78,127
484,note_on,1,0,0,,10,,,81,127
604,note_off,120,0,0,,10,,,81,127
605,note_on,1,0,0,,7,,,79,127
846,note_off,241,0,0,,7,,,79,127
846,note_off,0,0,0,,4,,,64,127
847,note_on,1,0,0,,6,,,66,127
847,note_on,0,0,0,,10,,,81,127
1088,note_off,241,0,0,,10,,,81,127
1088,note_off,0,0,0,,6,,,66,127
1089,note_on,1,0,0,,7,,,67,127
1089,note_on,0,0,0,,12,,,83,127
1330,note_off,241,0,0,,12,,,83,127
1331,note_on,1,0,0,,4,,,76,127
1572,note_off,241,0,0,,4,,,76,127
1573,note_on,1,0,0,,12,,,71,127
1814,note_off,241,0,0,,12,,,71,127
1814,note_off,0,0,0,,7,,,67,127
1815,note_on,1,0,0,,7,,,67,127
1815,note_on,0,0,0,,4,,,76,127
2056,note_off,241,0,0,,4,,,76,127
2056,note_off,0,0,0,,7,,,67,127
2057,note_on,1,0,0,,6,,,66,127
2057,note_on,0,0,0,,3,,,75,127
2177,note_off,120,0,0,,3,,,75,127
2178,note_on,1,0,0,,6,,,78,127
2298,note_off,120,0,0,,6,,,78,127
2298,note_off,0,0,0,,6,,,66,127
2299,note_on,1,0,0,,4,,,64,127
2299,note_on,0,0,0,,4,,,76,127
2419,note_off,120,0,0,,4,,,76,127
2420,note_on,1,0,0,,7,,,79,127
2540,note_off,120,0,0,,7,,,79,127
2540,note_off,0,0,0,,4,,,64,127
2541,note_on,1,0,0,,3,,,63,127
2541,note_on,0,0,0,,6,,,78,127
2782,note_off,241,0,0,,6,,,78,127
2782,note_off,0,0,0,,3,,,63,127
2783,note_on,1,0,0,,12,,,59,127
2783,note_on,0,0,0,,10,,,69,127
3024,note_off,241,0,0,,12,,,59,127
3025,note_on,1,0,0,,4,,,64,127
3086,note_off,61,0,0,,10,,,69,127
3086,note_on,0,0,0,,7,,,67,127
3145,note_off,59,0,0,,7,,,67,127
3146,note_on,1,0,0,,10,,,69,127
3205,note_off,59,0,0,,10,,,69,127
3206,note_on,1,0,0,,7,,,67,127
3265,note_off,59,0,0,,7,,,67,127
3266,note_on,1,0,0,,10,,,69,127
3325,note_off,59,0,0,,10,,,69,127
3326,note_on,1,0,0,,7,,,67,127
3385,note_off,59,0,0,,7,,,67,127
3386,note_on,1,0,0,,6,,,66,127
3506,note_off,120,0,0,,6,,,66,127
3506,note_off,0,0,0,,4,,,64,127
3507,note_on,1,0,0,,4,,,52,127
3507,note_on,0,0,0,,4,,,64,127
3991,note_off,484,0,0,,4,,,64,127
3991,note_off,0,0,0,,4,,,52,127
3992,note_on,1,0,0,,4,,,52,127
3992,note_on,0,0,0,,7,,,67,127
4112,note_off,120,0,0,,7,,,67,127
4113,note_on,1,0,0,,12,,,71,127
4233,note_off,120,0,0,,12,,,71,127
4234,note_on,1,0,0,,10,,,69,127
4354,note_off,120,0,0,,10,,,69,127
4355,note_on,1,0,0,,0,,,72,127
4475,note_off,120,0,0,,0,,,72,127
4476,note_on,1,0,0,,12,,,71,127
4717,note_off,241,0,0,,12,,,71,127
4717,note_off,0,0,0,,4,,,52,127
4718,note_on,1,0,0,,4,,,52,127
4718,note_on,0,0,0,,0,,,72,127
4959,note_off,241,0,0,,0,,,72,127
4959,note_off,0,0,0,,4,,,52,127
4960,note_on,1,0,0,,6,,,54,127
4960,note_on,0,0,0,,10,,,69,127
5080,note_off,120,0,0,,10,,,69,127
5081,note_on,1,0,0,,0,,,72,127
5201,note_off,120,0,0,,0,,,72,127
5202,note_on,1,0,0,,12,,,71,127
5322,note_off,120,0,0,,12,,,71,127
5323,note_on,1,0,0,,2,,,74,127
5443,note_off,120,0,0,,2,,,74,127
5444,note_on,1,0,0,,0,,,72,127
5685,note_off,241,0,0,,0,,,72,127
5685,note_off,0,0,0,,6,,,54,127
5686,note_on,1,0,0,,6,,,54,127
5686,note_on,0,0,0,,2,,,74,127
5927,note_off,241,0,0,,2,,,74,127
5927,note_off,0,0,0,,6,,,54,127
5928,note_on,1,0,0,,8,,,56,127
5928,note_on,0,0,0,,12,,,71,127
6048,note_off,120,0,0,,12,,,71,127
6049,note_on,1,0,0,,2,,,74,127
6169,note_off,120,0,0,,2,,,74,127
6170,note_on,1,0,0,,0,,,72,127
6290,note_off,120,0,0,,0,,,72,127
6291,note_on,1,0,0,,4,,,76,127
6411,note_off,120,0,0,,4,,,76,127
6412,note_on,1,0,0,,2,,,74,127
6653,note_off,241,0,0,,2,,,74,127
6653,note_off,0,0,0,,8,,,56,127
6654,note_on,1,0,0,,8,,,56,127
6654,note_on,0,0,0,,4,,,76,127
6895,note_off,241,0,0,,4,,,76,127
6895,note_off,0,0,0,,8,,,56,127
6896,note_on,1,0,0,,10,,,57,127
6896,note_on,0,0,0,,2,,,74,127
6955,note_off,59,0,0,,2,,,74,127
6956,note_on,1,0,0,,0,,,72,127
7015,note_off,59,0,0,,0,,,72,127
7016,note_on,1,0,0,,2,,,74,127
7075,note_off,59,0,0,,2,,,74,127
7076,note_on,1,0,0,,0,,,72,127
7135,note_off,59,0,0,,0,,,72,127
7136,note_on,1,0,0,,12,,,71,127
7377,note_off,241,0,0,,12,,,71,127
7378,note_on,1,0,0,,10,,,69,127
7619,note_off,241,0,0,,10,,,69,127
7620,note_on,1,0,0,,7,,,67,127
7802,note_off,182,0,0,,10,,,57,127
7861,note_off,59,0,0,,7,,,67,127
7862,note_on,1,0,0,,2,,,50,127
7862,note_on,0,0,0,,6,,,66,127
7982,note_off,120,0,0,,6,,,66,127
7983,note_on,1,0,0,,10,,,69,127
8103,note_off,120,0,0,,10,,,69,127
8104,note_on,1,0,0,,7,,,67,127
8224,note_off,120,0,0,,7,,,67,127
8225,note_on,1,0,0,,12,,,71,127
8345,note_off,120,0,0,,12,,,71,127
8346,note_on,1,0,0,,10,,,69,127
8587,note_off,241,0,0,,10,,,69,127
8587,note_off,0,0,0,,2,,,50,127
8588,note_on,1,0,0,,2,,,50,127
8588,note_on,0,0,0,,12,,,71,127
8829,note_off,241,0,0,,12,,,71,127
8829,note_off,0,0,0,,2,,,50,127
8830,note_on,1,0,0,,4,,,52,127
8830,note_on,0,0,0,,7,,,67,127
8950,note_off,120,0,0,,7,,,67,127
8951,note_on,1,0,0,,12,,,71,127
9071,note_off,120,0,0,,12,,,71,127
9072,note_on,1,0,0,,10,,,69,127
9192,note_off,120,0,0,,10,,,69,127
9193,note_on,1,0,0,,0,,,72,127
9313,note_off,120,0,0,,0,,,72,127
9314,note_on,1,0,0,,12,,,71,127
9555,note_off,241,0,0,,12,,,71,127
9555,note_off,0,0,0,,4,,,52,127
9556,note_on,1,0,0,,4,,,52,127
9556,note_on,0,0,0,,0,,,72,127
9797,note_off,241,0,0,,0,,,72,127
9797,note_off,0,0,0,,4,,,52,127
9798,note_on,1,0,0,,6,,,54,127
9798,note_on,0,0,0,,10,,,69,127
9918,note_off,120,0,0,,10,,,69,127
9919,note_on,1,0,0,,0,,,72,127
10039,note_off,120,0,0,,0,,,72,127
10040,note_on,1,0,0,,12,,,71,127
10160,note_off,120,0,0,,12,,,71,127
10161,note_on,1,0,0,,2,,,74,127
10281,note_off,120,0,0,,2,,,74,127
10282,note_on,1,0,0,,0,,,72,127
10523,note_off,241,0,0,,0,,,72,127
10523,note_off,0,0,0,,6,,,54,127
10524,note_on,1,0,0,,6,,,54,127
10524,note_on,0,0,0,,2,,,74,127
10765,note_off,241,0,0,,2,,,74,127
10765,note_off,0,0,0,,6,,,54,127
10766,note_on,1,0,0,,7,,,55,127
10766,note_on,0,0,0,,0,,,72,127
10825,note_off,59,0,0,,0,,,72,127
10826,note_on,1,0,0,,12,,,71,127
10885,note_off,59,0,0,,12,,,71,127
10886,note_on,1,0,0,,0,,,72,127
10945,note_off,59,0,0,,0,,,72,127
10946,note_on,1,0,0,,12,,,71,127
11005,note_off,59,0,0,,12,,,71,127
11006,note_on,1,0,0,,0,,,72,127
11065,note_off,59,0,0,,0,,,72,127
11066,note_on,1,0,0,,12,,,71,127
11125,note_off,59,0,0,,12,,,71,127
11126,note_on,1,0,0,,10,,,69,127
11246,note_off,120,0,0,,10,,,69,127
11247,note_on,1,0,0,,7,,,43,127
11247,note_on,0,0,0,,7,,,67,127
11488,note_off,241,0,0,,7,,,55,127
11731,note_off,243,0,0,,7,,,67,127
11731,note_off,0,0,0,,7,,,43,127
11732,note_on,1,0,0,,7,,,55,127
11732,note_on,0,0,0,,12,,,71,127
11852,note_off,120,0,0,,12,,,71,127
11853,note_on,1,0,0,,2,,,74,127
11973,note_off,120,0,0,,2,,,74,127
11974,note_on,1,0,0,,1,,,73,127
12094,note_off,120,0,0,,1,,,73,127
12095,note_on,1,0,0,,4,,,76,127
12215,note_off,120,0,0,,4,,,76,127
12216,note_on,1,0,0,,2,,,74,127
12457,note_off,241,0,0,,2,,,74,127
12457,note_off,0,0,0,,7,,,55,127
12458,note_on,1,0,0,,7,,,55,127
12458,note_on,0,0,0,,12,,,71,127
12699,note_off,241,0,0,,12,,,71,127
12699,note_off,0,0,0,,7,,,55,127
12700,note_on,1,0,0,,6,,,54,127
12700,note_on,0,0,0,,10,,,69,127
12820,note_off,120,0,0,,10,,,69,127
12821,note_on,1,0,0,,2,,,74,127
12941,note_off,120,0,0,,2,,,74,127
12942,note_on,1,0,0,,1,,,73,127
13062,note_off,120,0,0,,1,,,73,127
13063,note_on,1,0,0,,4,,,76,127
13183,note_off,120,0,0,,4,,,76,127
13184,note_on,1,0,0,,2,,,74,127
13425,note_off,241,0,0,,2,,,74,127
13425,note_off,0,0,0,,6,,,54,127
13426,note_on,1,0,0,,6,,,54,127
13426,note_on,0,0,0,,10,,,69,127
13667,note_off,241,0,0,,10,,,69,127
13667,note_off,0,0,0,,6,,,54,127
13668,note_on,1,0,0,,4,,,52,127
13668,note_on,0,0,0,,7,,,67,127
13788,note_off,120,0,0,,7,,,67,127
13789,note_on,1,0,0,,2,,,74,127
13909,note_off,120,0,0,,2,,,74,127
13910,note_on,1,0,0,,1,,,73,127
14030,note_off,120,0,0,,1,,,73,127
14031,note_on,1,0,0,,4,,,76,127
14151,note_off,120,0,0,,4,,,76,127
14152,note_on,1,0,0,,2,,,74,127
14393,note_off,241,0,0,,2,,,74,127
14393,note_off,0,0,0,,4,,,52,127
14394,note_on,1,0,0,,4,,,52,127
14394,note_on,0,0,0,,7,,,67,127
14635,note_off,241,0,0,,4,,,52,127
14636,note_on,1,0,0,,2,,,50,127
14697,note_off,61,0,0,,7,,,67,127
14697,note_on,0,0,0,,6,,,66,127
14756,note_off,59,0,0,,6,,,66,127
14757,note_on,1,0,0,,7,,,67,127
14816,note_off,59,0,0,,7,,,67,127
14817,note_on,1,0,0,,6,,,66,127
14876,note_off,59,0,0,,6,,,66,127
14877,note_on,1,0,0,,7,,,67,127
14936,note_off,59,0,0,,7,,,67,127
14937,note_on,1,0,0,,6,,,66,127
14996,note_off,59,0,0,,6,,,66,127
14997,note_on,1,0,0,,4,,,64,127
15117,note_off,120,0,0,,4,,,64,127
15118,note_on,1,0,0,,2,,,38,127
15118,note_on,0,0,0,,2,,,62,127
15602,note_off,484,0,0,,2,,,62,127
15602,note_off,0,0,0,,2,,,38,127
15602,note_off,0,0,0,,2,,,50,127
15603,note_on,1,0,0,,2,,,50,127
15603,note_on,0,0,0,,2,,,74,127
15723,note_off,120,0,0,,2,,,74,127
15724,note_on,1,0,0,,6,,,78,127
15844,note_off,120,0,0,,6,,,78,127
15845,note_on,1,0,0,,4,,,76,127
15965,note_off,120,0,0,,4,,,76,127
15966,note_on,1,0,0,,7,,,79,127
16086,note_off,120,0,0,,7,,,79,127
16087,note_on,1,0,0,,6,,,78,127
16328,note_off,241,0,0,,6,,,78,127
16328,note_off,0,0,0,,2,,,50,127
16329,note_on,1,0,0,,2,,,50,127
16329,note_on,0,0,0,,2,,,74,127
16570,note_off,241,0,0,,2,,,74,127
16570,note_off,0,0,0,,2,,,50,127
16571,note_on,1,0,0,,4,,,52,127
16571,note_on,0,0,0,,1,,,73,127
16691,note_off,120,0,0,,1,,,73,127
16692,note_on,1,0,0,,4,,,76,127
16812,note_off,120,0,0,,4,,,76,127
16813,note_on,1,0,0,,2,,,74,127
16933,note_off,120,0,0,,2,,,74,127
16934,note_on,1,0,0,,6,,,78,127
17054,note_off,120,0,0,,6,,,78,127
17054,note_off,0,0,0,,4,,,52,127
17055,note_on,1,0,0,,6,,,54,127
17055,note_on,0,0,0,,4,,,76,127
17296,note_off,241,0,0,,4,,,76,127
17297,note_on,1,0,0,,1,,,73,127
17538,note_off,241,0,0,,1,,,73,127
17538,note_off,0,0,0,,6,,,54,127
17539,note_on,1,0,0,,7,,,55,127
17539,note_on,0,0,0,,12,,,71,127
17659,note_off,120,0,0,,12,,,71,127
17660,note_on,1,0,0,,2,,,74,127
17780,note_off,120,0,0,,2,,,74,127
17781,note_on,1,0,0,,1,,,73,127
17901,note_off,120,0,0,,1,,,73,127
17902,note_on,1,0,0,,4,,,76,127
18022,note_off,120,0,0,,4,,,76,127
18022,note_off,0,0,0,,7,,,55,127
18023,note_on,1,0,0,,7,,,55,127
18023,note_on,0,0,0,,2,,,74,127
18264,note_off,241,0,0,,2,,,74,127
18265,note_on,1,0,0,,12,,,71,127
18506,note_off,241,0,0,,7,,,55,127
18507,note_on,1,0,0,,6,,,54,127
18628,note_off,121,0,0,,12,,,71,127
18628,note_on,0,0,0,,11,,,70,127
18687,note_off,59,0,0,,11,,,70,127
18688,note_on,1,0,0,,12,,,71,127
18747,note_off,59,0,0,,12,,,71,127
18748,note_on,1,0,0,,11,,,70,127
18807,note_off,59,0,0,,11,,,70,127
18808,note_on,1,0,0,,12,,,71,127
18867,note_off,59,0,0,,12,,,71,127
18868,note_on,1,0,0,,11,,,70,127
18927,note_off,59,0,0,,11,,,70,127
18928,note_on,1,0,0,,12,,,71,127
18987,note_off,59,0,0,,12,,,71,127
18988,note_on,1,0,0,,11,,,70,127
19472,note_off,484,0,0,,11,,,70,127
19472,note_off,0,0,0,,6,,,54,127
19473,note_on,1,0,0,,4,,,52,127
19473,note_on,0,0,0,,7,,,79,127
19593,note_off,120,0,0,,7,,,79,127
19594,note_on,1,0,0,,4,,,76,127
19714,note_off,120,0,0,,4,,,76,127
19715,note_on,1,0,0,,1,,,73,127
19835,note_off,120,0,0,,1,,,73,127
19836,note_on,1,0,0,,11,,,70,127
19956,note_off,120,0,0,,11,,,70,127
19957,note_on,1,0,0,,7,,,67,127
20198,note_off,241,0,0,,7,,,67,127
20198,note_off,0,0,0,,4,,,52,127
20199,note_on,1,0,0,,4,,,52,127
20199,note_on,0,0,0,,7,,,79,127
20440,note_off,241,0,0,,7,,,79,127
20440,note_off,0,0,0,,4,,,52,127
20441,note_on,1,0,0,,2,,,50,127
20441,note_on,0,0,0,,6,,,78,127
20682,note_off,241,0,0,,6,,,78,127
20683,note_on,1,0,0,,2,,,74,127
20924,note_off,241,0,0,,2,,,74,127
20925,note_on,1,0,0,,11,,,70,127
21166,note_off,241,0,0,,11,,,70,127
21166,note_off,0,0,0,,2,,,50,127
21167,note_on,1,0,0,,2,,,50,127
21167,note_on,0,0,0,,12,,,71,127
21408,note_off,241,0,0,,12,,,71,127
21408,note_off,0,0,0,,2,,,50,127
21409,note_on,1,0,0,,4,,,52,127
21409,note_on,0,0,0,,7,,,79,127
21529,note_off,120,0,0,,7,,,79,127
21530,note_on,1,0,0,,4,,,76,127
21650,note_off,120,0,0,,4,,,76,127
21651,note_on,1,0,0,,1,,,73,127
21771,note_off,120,0,0,,1,,,73,127
21772,note_on,1,0,0,,11,,,70,127
21892,note_off,120,0,0,,11,,,70,127
21893,note_on,1,0,0,,7,,,67,127
22134,note_off,241,0,0,,4,,,52,127
22135,note_on,1,0,0,,4,,,52,127
22135,note_on,0,0,0,,7,,,79,127
22372,note_off,237,0,0,,7,,,67,127
22376,note_off,4,0,0,,7,,,79,127
22376,note_off,0,0,0,,4,,,52,127
22377,note_on,1,0,0,,2,,,50,127
22377,note_on,0,0,0,,6,,,78,127
22618,note_off,241,0,0,,6,,,78,127
22619,note_on,1,0,0,,2,,,74,127
22860,note_off,241,0,0,,2,,,74,127
22861,note_on,1,0,0,,11,,,70,127
23102,note_off,241,0,0,,11,,,70,127
23102,note_off,0,0,0,,2,,,50,127
23103,note_on,1,0,0,,2,,,50,127
23103,note_on,0,0,0,,12,,,71,127
23344,note_off,241,0,0,,12,,,71,127
23344,note_off,0,0,0,,2,,,50,127
23345,note_on,1,0,0,,11,,,46,127
23345,note_on,0,0,0,,1,,,85,127
23465,note_off,120,0,0,,1,,,85,127
23466,note_on,1,0,0,,7,,,79,127
23586,note_off,120,0,0,,7,,,79,127
23587,note_on,1,0,0,,4,,,76,127
23707,note_off,120,0,0,,4,,,76,127
23708,note_on,1,0,0,,1,,,73,127
23828,note_off,120,0,0,,1,,,73,127
23829,note_on,1,0,0,,4,,,76,127
24070,note_off,241,0,0,,4,,,76,127
24070,note_off,0,0,0,,11,,,46,127
24071,note_on,1,0,0,,11,,,46,127
24071,note_on,0,0,0,,1,,,85,127
24312,note_off,241,0,0,,1,,,85,127
24312,note_off,0,0,0,,11,,,46,127
24313,note_on,1,0,0,,12,,,47,127
24313,note_on,0,0,0,,2,,,86,127
24433,note_off,120,0,0,,2,,,86,127
24434,note_on,1,0,0,,12,,,83,127
24554,note_off,120,0,0,,12,,,83,127
24555,note_on,1,0,0,,1,,,85,127
24675,note_off,120,0,0,,1,,,85,127
24676,note_on,1,0,0,,11,,,82,127
24796,note_off,120,0,0,,11,,,82,127
24797,note_on,1,0,0,,12,,,83,127
24917,note_off,120,0,0,,12,,,83,127
24918,note_on,1,0,0,,7,,,79,127
24981,note_off,63,0,0,,12,,,47,127
25038,note_off,57,0,0,,7,,,79,127
25039,note_on,1,0,0,,2,,,50,127
25039,note_on,0,0,0,,10,,,81,127
25159,note_off,120,0,0,,10,,,81,127
25160,note_on,1,0,0,,6,,,78,127
25280,note_off,120,0,0,,6,,,78,127
25280,note_off,0,0,0,,2,,,50,127
25281,note_on,1,0,0,,4,,,52,127
25281,note_on,0,0,0,,7,,,79,127
25401,note_off,120,0,0,,7,,,79,127
25402,note_on,1,0,0,,2,,,74,127
25522,note_off,120,0,0,,2,,,74,127
25522,note_off,0,0,0,,4,,,52,127
25523,note_on,1,0,0,,7,,,55,127
25523,note_on,0,0,0,,4,,,76,127
25643,note_off,120,0,0,,4,,,76,127
25644,note_on,1,0,0,,1,,,73,127
25764,note_off,120,0,0,,1,,,73,127
25764,note_off,0,0,0,,7,,,55,127
25765,note_on,1,0,0,,6,,,54,127
25765,note_on,0,0,0,,12,,,71,127
26008,note_on,243,0,0,,6,,,42,127
26069,note_off,61,0,0,,12,,,71,127
26069,note_on,0,0,0,,11,,,70,127
26128,note_off,59,0,0,,11,,,70,127
26129,note_on,1,0,0,,8,,,68,127
26188,note_off,59,0,0,,8,,,68,127
26189,note_on,1,0,0,,11,,,70,127
26248,note_off,59,0,0,,11,,,70,127
26248,note_off,0,0,0,,6,,,42,127
26248,note_off,0,0,0,,6,,,54,127
26249,note_on,1,0,0,,12,,,47,127
26249,note_on,0,0,0,,11,,,70,127
26490,note_off,241,0,0,,11,,,70,127
26491,note_on,1,0,0,,12,,,71,127
26971,note_off,480,0,0,,12,,,71,127
27217,note_off,246,0,0,,12,,,47,127
27218,note_on,1,0,0,,4,,,52,127
27218,note_on,0,0,0,,7,,,79,127
27338,note_off,120,0,0,,7,,,79,127
27339,note_on,1,0,0,,4,,,76,127
27459,note_off,120,0,0,,4,,,76,127
27460,note_on,1,0,0,,1,,,73,127
27580,note_off,120,0,0,,1,,,73,127
27581,note_on,1,0,0,,11,,,70,127
27701,note_off,120,0,0,,11,,,70,127
27702,note_on,1,0,0,,7,,,67,127
27943,note_off,241,0,0,,4,,,52,127
27944,note_on,1,0,0,,4,,,52,127
27944,note_on,0,0,0,,7,,,79,127
28181,note_off,237,0,0,,7,,,67,127
28185,note_off,4,0,0,,7,,,79,127
28185,note_off,0,0,0,,4,,,52,127
28186,note_on,1,0,0,,2,,,50,127
28186,note_on,0,0,0,,6,,,78,127
28427,note_off,241,0,0,,6,,,78,127
28428,note_on,1,0,0,,2,,,74,127
28669,note_off,241,0,0,,2,,,74,127
28670,note_on,1,0,0,,11,,,70,127
28911,note_off,241,0,0,,11,,,70,127
28911,note_off,0,0,0,,2,,,50,127
28912,note_on,1,0,0,,2,,,50,127
28912,note_on,0,0,0,,12,,,71,127
29153,note_off,241,0,0,,12,,,71,127
29153,note_off,0,0,0,,2,,,50,127
29154,note_on,1,0,0,,4,,,52,127
29154,note_on,0,0,0,,7,,,79,127
29274,note_off,120,0,0,,7,,,79,127
29275,note_on,1,0,0,,4,,,76,127
29395,note_off,120,0,0,,4,,,76,127
29396,note_on,1,0,0,,1,,,73,127
29516,note_off,120,0,0,,1,,,73,127
29517,note_on,1,0,0,,11,,,70,127
29637,note_off,120,0,0,,11,,,70,127
29638,note_on,1,0,0,,7,,,67,127
29879,note_off,241,0,0,,7,,,67,127
29879,note_off,0,0,0,,4,,,52,127
29880,note_on,1,0,0,,4,,,52,127
29880,note_on,0,0,0,,7,,,79,127
30121,note_off,241,0,0,,7,,,79,127
30121,note_off,0,0,0,,4,,,52,127
30122,note_on,1,0,0,,2,,,50,127
30122,note_on,0,0,0,,6,,,78,127
30363,note_off,241,0,0,,6,,,78,127
30364,note_on,1,0,0,,2,,,74,127
30605,note_off,241,0,0,,2,,,74,127
30606,note_on,1,0,0,,11,,,70,127
30847,note_off,241,0,0,,11,,,70,127
30847,note_off,0,0,0,,2,,,50,127
30848,note_on,1,0,0,,2,,,50,127
30848,note_on,0,0,0,,12,,,71,127
31089,note_off,241,0,0,,12,,,71,127
31089,note_off,0,0,0,,2,,,50,127
31090,note_on,1,0,0,,11,,,46,127
31090,note_on,0,0,0,,1,,,85,127
31210,note_off,120,0,0,,1,,,85,127
31211,note_on,1,0,0,,7,,,79,127
31331,note_off,120,0,0,,7,,,79,127
31332,note_on,1,0,0,,4,,,76,127
31452,note_off,120,0,0,,4,,,76,127
31453,note_on,1,0,0,,1,,,73,127
31573,note_off,120,0,0,,1,,,73,127
31574,note_on,1,0,0,,4,,,76,127
31815,note_off,241,0,0,,11,,,46,127
31816,note_on,1,0,0,,11,,,46,127
31816,note_on,0,0,0,,1,,,85,127
32053,note_off,237,0,0,,4,,,76,127
32057,note_off,4,0,0,,1,,,85,127
32057,note_off,0,0,0,,11,,,46,127
32058,note_on,1,0,0,,12,,,47,127
32058,note_on,0,0,0,,2,,,86,127
32178,note_off,120,0,0,,2,,,86,127
32179,note_on,1,0,0,,12,,,83,127
32299,note_off,120,0,0,,12,,,83,127
32300,note_on,1,0,0,,1,,,85,127
32420,note_off,120,0,0,,1,,,85,127
32421,note_on,1,0,0,,11,,,82,127
32541,note_off,120,0,0,,11,,,82,127
32542,note_on,1,0,0,,12,,,83,127
32662,note_off,120,0,0,,12,,,83,127
32663,note_on,1,0,0,,7,,,79,127
32751,note_off,88,0,0,,12,,,47,127
32783,note_off,32,0,0,,7,,,79,127
32784,note_on,1,0,0,,2,,,50,127
32784,note_on,0,0,0,,10,,,81,127
32904,note_off,120,0,0,,10,,,81,127
32905,note_on,1,0,0,,6,,,78,127
33025,note_off,120,0,0,,6,,,78,127
33025,note_off,0,0,0,,2,,,50,127
33026,note_on,1,0,0,,4,,,52,127
33026,note_on,0,0,0,,7,,,79,127
33146,note_off,120,0,0,,7,,,79,127
33147,note_on,1,0,0,,2,,,74,127
33267,note_off,120,0,0,,2,,,74,127
33267,note_off,0,0,0,,4,,,52,127
33268,note_on,1,0,0,,7,,,55,127
33268,note_on,0,0,0,,4,,,76,127
33388,note_off,120,0,0,,4,,,76,127
33389,note_on,1,0,0,,1,,,73,127
33509,note_off,120,0,0,,1,,,73,127
33509,note_off,0,0,0,,7,,,55,127
33510,note_on,1,0,0,,6,,,54,127
33510,note_on,0,0,0,,12,,,71,127
33753,note_on,243,0,0,,6,,,42,127
33814,note_off,61,0,0,,12,,,71,127
33814,note_on,0,0,0,,11,,,70,127
33873,note_off,59,0,0,,11,,,70,127
33874,note_on,1,0,0,,8,,,68,127
33933,note_off,59,0,0,,8,,,68,127
33934,note_on,1,0,0,,11,,,70,127
33993,note_off,59,0,0,,11,,,70,127
33993,note_off,0,0,0,,6,,,42,127
33993,note_off,0,0,0,,6,,,54,127
33994,note_on,1,0,0,,12,,,47,127
33994,note_on,0,0,0,,12,,,71,127
34478,note_off,484,0,0,,12,,,71,127
34479,note_on,1,0,0,,1,,,85,127
34538,note_off,59,0,0,,1,,,85,127
34539,note_on,1,0,0,,12,,,83,127
34598,note_off,59,0,0,,12,,,83,127
34599,note_off,1,0,0,,12,,,47,127
34599,note_on,0,0,0,,1,,,85,127
34658,note_off,59,0,0,,1,,,85,127
34659,note_on,1,0,0,,12,,,83,127
34718,note_off,59,0,0,,12,,,83,127
34719,note_on,1,0,0,,2,,,50,127
34719,note_on,0,0,0,,1,,,85,127
34778,note_off,59,0,0,,1,,,85,127
34779,note_on,1,0,0,,12,,,83,127
34838,note_off,59,0,0,,12,,,83,127
34839,note_on,1,0,0,,1,,,85,127
34898,note_off,59,0,0,,1,,,85,127
34899,note_on,1,0,0,,12,,,83,127
34958,note_off,59,0,0,,2,,,50,127
34959,note_on,1,0,0,,4,,,52,127
35079,note_off,120,0,0,,12,,,83,127
35080,note_on,1,0,0,,6,,,78,127
35200,note_off,120,0,0,,6,,,78,127
35201,note_on,1,0,0,,7,,,79,127
35321,note_off,120,0,0,,7,,,79,127
35322,note_on,1,0,0,,4,,,76,127
35442,note_off,120,0,0,,4,,,76,127
35443,note_on,1,0,0,,6,,,78,127
35563,note_off,120,0,0,,6,,,78,127
35564,note_on,1,0,0,,2,,,74,127
35684,note_off,120,0,0,,2,,,74,127
35684,note_off,0,0,0,,4,,,52,127
35685,note_on,1,0,0,,6,,,54,127
35685,note_on,0,0,0,,4,,,76,127
35805,note_off,120,0,0,,4,,,76,127
35806,note_on,1,0,0,,1,,,73,127
35926,note_off,120,0,0,,1,,,73,127
35926,note_off,0,0,0,,6,,,54,127
35927,note_on,1,0,0,,12,,,59,127
35927,note_on,0,0,0,,2,,,74,127
36411,note_off,484,0,0,,2,,,74,127
36412,note_on,1,0,0,,1,,,85,127
36471,note_off,59,0,0,,1,,,85,127
36472,note_on,1,0,0,,12,,,83,127
36531,note_off,59,0,0,,12,,,83,127
36532,note_off,1,0,0,,12,,,59,127
36532,note_on,0,0,0,,1,,,85,127
36591,note_off,59,0,0,,1,,,85,127
36592,note_on,1,0,0,,12,,,83,127
36651,note_off,59,0,0,,12,,,83,127
36652,note_on,1,0,0,,7,,,55,127
36652,note_on,0,0,0,,1,,,85,127
36711,note_off,59,0,0,,1,,,85,127
36712,note_on,1,0,0,,12,,,83,127
36771,note_off,59,0,0,,12,,,83,127
36772,note_on,1,0,0,,1,,,85,127
36831,note_off,59,0,0,,1,,,85,127
36832,note_on,1,0,0,,12,,,83,127
36891,note_off,59,0,0,,7,,,55,127
36892,note_on,1,0,0,,4,,,52,127
37012,note_off,120,0,0,,12,,,83,127
37013,note_on,1,0,0,,2,,,74,127
37133,note_off,120,0,0,,2,,,74,127
37134,note_on,1,0,0,,4,,,76,127
37254,note_off,120,0,0,,4,,,76,127
37255,note_on,1,0,0,,1,,,73,127
37375,note_off,120,0,0,,1,,,73,127
37376,note_on,1,0,0,,2,,,74,127
37496,note_off,120,0,0,,2,,,74,127
37497,note_on,1,0,0,,12,,,71,127
37617,note_off,120,0,0,,12,,,71,127
37617,note_off,0,0,0,,4,,,52,127
37618,note_on,1,0,0,,6,,,54,127
37618,note_on,0,0,0,,1,,,73,127
37738,note_off,120,0,0,,1,,,73,127
37739,note_on,1,0,0,,11,,,70,127
37859,note_off,120,0,0,,11,,,70,127
37859,note_off,0,0,0,,6,,,54,127
37860,note_on,1,0,0,,12,,,47,127
37860,note_on,0,0,0,,11,,,70,127
38101,note_off,241,0,0,,11,,,70,127
38102,note_on,1,0,0,,12,,,71,127
38343,note_off,241,0,0,,12,,,71,127
38344,note_on,1,0,0,,1,,,85,127
38403,note_off,59,0,0,,1,,,85,127
38404,note_on,1,0,0,,12,,,83,127
38463,note_off,59,0,0,,12,,,83,127
38464,note_off,1,0,0,,12,,,47,127
38464,note_on,0,0,0,,1,,,85,127
38523,note_off,59,0,0,,1,,,85,127
38524,note_on,1,0,0,,12,,,83,127
38583,note_off,59,0,0,,12,,,83,127
38584,note_on,1,0,0,,2,,,50,127
38584,note_on,0,0,0,,1,,,85,127
38643,note_off,59,0,0,,1,,,85,127
38644,note_on,1,0,0,,12,,,83,127
38703,note_off,59,0,0,,12,,,83,127
38704,note_on,1,0,0,,1,,,85,127
38763,note_off,59,0,0,,1,,,85,127
38764,note_on,1,0,0,,12,,,83,127
38823,note_off,59,0,0,,2,,,50,127
38824,note_on,1,0,0,,4,,,52,127
38944,note_off,120,0,0,,12,,,83,127
38945,note_on,1,0,0,,6,,,78,127
39065,note_off,120,0,0,,6,,,78,127
39066,note_on,1,0,0,,7,,,79,127
39186,note_off,120,0,0,,7,,,79,127
39187,note_on,1,0,0,,4,,,76,127
39307,note_off,120,0,0,,4,,,76,127
39308,note_on,1,0,0,,6,,,78,127
39428,note_off,120,0,0,,6,,,78,127
39429,note_on,1,0,0,,2,,,74,127
39549,note_off,120,0,0,,2,,,74,127
39549,note_off,0,0,0,,4,,,52,127
39550,note_on,1,0,0,,6,,,54,127
39550,note_on,0,0,0,,4,,,76,127
39670,note_off,120,0,0,,4,,,76,127
39671,note_on,1,0,0,,1,,,73,127
39791,note_off,120,0,0,,1,,,73,127
39791,note_off,0,0,0,,6,,,54,127
39792,note_on,1,0,0,,12,,,59,127
39792,note_on,0,0,0,,2,,,74,127
40276,note_off,484,0,0,,2,,,74,127
40277,note_on,1,0,0,,1,,,85,127
40336,note_off,59,0,0,,1,,,85,127
40337,note_on,1,0,0,,12,,,83,127
40396,note_off,59,0,0,,12,,,83,127
40397,note_off,1,0,0,,12,,,59,127
40397,note_on,0,0,0,,1,,,85,127
40456,note_off,59,0,0,,1,,,85,127
40457,note_on,1,0,0,,12,,,83,127
40516,note_off,59,0,0,,12,,,83,127
40517,note_on,1,0,0,,7,,,55,127
40517,note_on,0,0,0,,1,,,85,127
40576,note_off,59,0,0,,1,,,85,127
40577,note_on,1,0,0,,12,,,83,127
40636,note_off,59,0,0,,12,,,83,127
40637,note_on,1,0,0,,1,,,85,127
40696,note_off,59,0,0,,1,,,85,127
40697,note_on,1,0,0,,12,,,83,127
40756,note_off,59,0,0,,7,,,55,127
40757,note_on,1,0,0,,4,,,52,127
40877,note_off,120,0,0,,12,,,83,127
40878,note_on,1,0,0,,2,,,74,127
40998,note_off,120,0,0,,2,,,74,127
40999,note_on,1,0,0,,4,,,76,127
41119,note_off,120,0,0,,4,,,76,127
41120,note_on,1,0,0,,1,,,73,127
41240,note_off,120,0,0,,1,,,73,127
41240,note_off,0,0,0,,4,,,52,127
41241,note_on,1,0,0,,6,,,54,127
41241,note_on,0,0,0,,2,,,74,127
41361,note_off,120,0,0,,2,,,74,127
41362,note_on,1,0,0,,12,,,71,127
41482,note_off,120,0,0,,12,,,71,127
41483,note_on,1,0,0,,1,,,73,127
41603,note_off,120,0,0,,1,,,73,127
41604,note_on,1,0,0,,11,,,70,127
41724,note_off,120,0,0,,11,,,70,127
41724,note_off,0,0,0,,6,,,54,127
41725,note_on,1,0,0,,12,,,47,127
41725,note_on,0,0,0,,11,,,70,127
42205,note_off,480,0,0,,11,,,70,127
42210,note_on,5,0,0,,12,,,71,127
42622,note_off,412,0,0,,12,,,47,127
42690,note_off,68,0,0,,12,,,71,127
42695,note_on,5,0,0,,12,,,59,127
42695,note_on,0,0,0,,3,,,75,127
42815,note_off,120,0,0,,3,,,75,127
42816,note_on,1,0,0,,6,,,78,127
42936,note_off,120,0,0,,6,,,78,127
42937,note_on,1,0,0,,4,,,76,127
43057,note_off,120,0,0,,4,,,76,127
43058,note_on,1,0,0,,7,,,79,127
43178,note_off,120,0,0,,7,,,79,127
43179,note_on,1,0,0,,6,,,78,127
43420,note_off,241,0,0,,6,,,78,127
43420,note_off,0,0,0,,12,,,59,127
43421,note_on,1,0,0,,12,,,59,127
43421,note_on,0,0,0,,7,,,79,127
43662,note_off,241,0,0,,7,,,79,127
43662,note_off,0,0,0,,12,,,59,127
43663,note_on,1,0,0,,0,,,60,127
43663,note_on,0,0,0,,10,,,81,127
43904,note_off,241,0,0,,10,,,81,127
43905,note_on,1,0,0,,4,,,76,127
44146,note_off,241,0,0,,4,,,76,127
44147,note_on,1,0,0,,0,,,72,127
44388,note_off,241,0,0,,0,,,72,127
44388,note_off,0,0,0,,0,,,60,127
44389,note_on,1,0,0,,0,,,60,127
44389,note_on,0,0,0,,10,,,81,127
44630,note_off,241,0,0,,10,,,81,127
44630,note_off,0,0,0,,0,,,60,127
44631,note_on,1,0,0,,12,,,59,127
44631,note_on,0,0,0,,8,,,80,127
44751,note_off,120,0,0,,8,,,80,127
44752,note_on,1,0,0,,12,,,83,127
44872,note_off,120,0,0,,12,,,83,127
44873,note_on,1,0,0,,10,,,81,127
44993,note_off,120,0,0,,10,,,81,127
44994,note_on,1,0,0,,0,,,84,127
45114,note_off,120,0,0,,0,,,84,127
45114,note_off,0,0,0,,12,,,59,127
45115,note_on,1,0,0,,4,,,52,127
45115,note_on,0,0,0,,12,,,83,127
45356,note_off,241,0,0,,12,,,83,127
45357,note_on,1,0,0,,2,,,74,127
45598,note_off,241,0,0,,4,,,52,127
45599,note_on,1,0,0,,10,,,45,127
45660,note_off,61,0,0,,2,,,74,127
45660,note_on,0,0,0,,0,,,72,127
45719,note_off,59,0,0,,0,,,72,127
45720,note_on,1,0,0,,2,,,74,127
45779,note_off,59,0,0,,2,,,74,127
45780,note_on,1,0,0,,0,,,72,127
45839,note_off,59,0,0,,0,,,72,127
45840,note_on,1,0,0,,2,,,74,127
45899,note_off,59,0,0,,2,,,74,127
45900,note_on,1,0,0,,0,,,72,127
45959,note_off,59,0,0,,0,,,72,127
45960,note_on,1,0,0,,12,,,71,127
46080,note_off,120,0,0,,12,,,71,127
46081,note_on,1,0,0,,10,,,69,127
46505,note_off,424,0,0,,10,,,45,127
46564,note_off,59,0,0,,10,,,69,127
46565,note_on,1,0,0,,10,,,57,127
46565,note_on,0,0,0,,0,,,72,127
46685,note_off,120,0,0,,0,,,72,127
46686,note_on,1,0,0,,4,,,76,127
46806,note_off,120,0,0,,4,,,76,127
46807,note_on,1,0,0,,2,,,74,127
46927,note_off,120,0,0,,2,,,74,127
46928,note_on,1,0,0,,5,,,77,127
47048,note_off,120,0,0,,5,,,77,127
47049,note_on,1,0,0,,4,,,76,127
47290,note_off,241,0,0,,4,,,76,127
47290,note_off,0,0,0,,10,,,57,127
47291,note_on,1,0,0,,10,,,57,127
47291,note_on,0,0,0,,0,,,72,127
47532,note_off,241,0,0,,0,,,72,127
47532,note_off,0,0,0,,10,,,57,127
47533,note_on,1,0,0,,7,,,55,127
47533,note_on,0,0,0,,12,,,71,127
47653,note_off,120,0,0,,12,,,71,127
47654,note_on,1,0,0,,2,,,74,127
47774,note_off,120,0,0,,2,,,74,127
47775,note_on,1,0,0,,0,,,72,127
47895,note_off,120,0,0,,0,,,72,127
47896,note_on,1,0,0,,4,,,76,127
48016,note_off,120,0,0,,4,,,76,127
48017,note_on,1,0,0,,2,,,74,127
48258,note_off,241,0,0,,2,,,74,127
48258,note_off,0,0,0,,7,,,55,127
48259,note_on,1,0,0,,7,,,55,127
48259,note_on,0,0,0,,12,,,71,127
48500,note_off,241,0,0,,12,,,71,127
48500,note_off,0,0,0,,7,,,55,127
48501,note_on,1,0,0,,5,,,53,127
48501,note_on,0,0,0,,10,,,69,127
48621,note_off,120,0,0,,10,,,69,127
48622,note_on,1,0,0,,0,,,72,127
48742,note_off,120,0,0,,0,,,72,127
48743,note_on,1,0,0,,12,,,71,127
48863,note_off,120,0,0,,12,,,71,127
48864,note_on,1,0,0,,2,,,74,127
48984,note_off,120,0,0,,2,,,74,127
48985,note_on,1,0,0,,0,,,72,127
49226,note_off,241,0,0,,0,,,72,127
49226,note_off,0,0,0,,5,,,53,127
49227,note_on,1,0,0,,5,,,53,127
49227,note_on,0,0,0,,10,,,69,127
49468,note_off,241,0,0,,5,,,53,127
49469,note_on,1,0,0,,4,,,52,127
49590,note_off,121,0,0,,10,,,69,127
49590,note_on,0,0,0,,8,,,68,127
49649,note_off,59,0,0,,8,,,68,127
49650,note_on,1,0,0,,10,,,69,127
49709,note_off,59,0,0,,10,,,69,127
49710,note_on,1,0,0,,8,,,68,127
49769,note_off,59,0,0,,8,,,68,127
49770,note_on,1,0,0,,10,,,69,127
49829,note_off,59,0,0,,10,,,69,127
49830,note_on,1,0,0,,8,,,68,127
49889,note_off,59,0,0,,8,,,68,127
49890,note_on,1,0,0,,10,,,69,127
49949,note_off,59,0,0,,10,,,69,127
49950,note_on,1,0,0,,4,,,40,127
49950,note_on,0,0,0,,8,,,68,127
50191,note_off,241,0,0,,4,,,52,127
50434,note_off,243,0,0,,8,,,68,127
50434,note_off,0,0,0,,4,,,40,127
50435,note_on,1,0,0,,4,,,52,127
50435,note_on,0,0,0,,8,,,80,127
50555,note_off,120,0,0,,8,,,80,127
50556,note_on,1,0,0,,12,,,83,127
50676,note_off,120,0,0,,12,,,83,127
50677,note_on,1,0,0,,10,,,81,127
50797,note_off,120,0,0,,10,,,81,127
50798,note_on,1,0,0,,0,,,84,127
50918,note_off,120,0,0,,0,,,84,127
50919,note_on,1,0,0,,12,,,83,127
51160,note_off,241,0,0,,12,,,83,127
51160,note_off,0,0,0,,4,,,52,127
51161,note_on,1,0,0,,4,,,52,127
51161,note_on,0,0,0,,2,,,74,127
51402,note_off,241,0,0,,4,,,52,127
51403,note_on,1,0,0,,10,,,57,127
51464,note_off,61,0,0,,2,,,74,127
51464,note_on,0,0,0,,0,,,72,127
51523,note_off,59,0,0,,0,,,72,127
51524,note_on,1,0,0,,2,,,74,127
51583,note_off,59,0,0,,2,,,74,127
51584,note_on,1,0,0,,0,,,72,127
51643,note_off,59,0,0,,0,,,72,127
51644,note_on,1,0,0,,2,,,74,127
51703,note_off,59,0,0,,2,,,74,127
51704,note_on,1,0,0,,0,,,72,127
51763,note_off,59,0,0,,0,,,72,127
51764,note_on,1,0,0,,12,,,71,127
51884,note_off,120,0,0,,12,,,71,127
51885,note_on,1,0,0,,10,,,45,127
51885,note_on,0,0,0,,10,,,69,127
52369,note_off,484,0,0,,10,,,69,127
52369,note_off,0,0,0,,10,,,45,127
52369,note_off,0,0,0,,10,,,57,127
52370,note_on,1,0,0,,2,,,50,127
52370,note_on,0,0,0,,6,,,78,127
52490,note_off,120,0,0,,6,,,78,127
52491,note_on,1,0,0,,10,,,81,127
52611,note_off,120,0,0,,10,,,81,127
52612,note_on,1,0,0,,7,,,79,127
52732,note_off,120,0,0,,7,,,79,127
52733,note_on,1,0,0,,12,,,83,127
52853,note_off,120,0,0,,12,,,83,127
52854,note_on,1,0,0,,10,,,81,127
53095,note_off,241,0,0,,10,,,81,127
53095,note_off,0,0,0,,2,,,50,127
53096,note_on,1,0,0,,2,,,50,127
53096,note_on,0,0,0,,0,,,72,127
53337,note_off,241,0,0,,2,,,50,127
53338,note_on,1,0,0,,7,,,55,127
53399,note_off,61,0,0,,0,,,72,127
53399,note_on,0,0,0,,12,,,71,127
53458,note_off,59,0,0,,12,,,71,127
53459,note_on,1,0,0,,0,,,72,127
53518,note_off,59,0,0,,0,,,72,127
53519,note_on,1,0,0,,12,,,71,127
53578,note_off,59,0,0,,12,,,71,127
53579,note_on,1,0,0,,0,,,72,127
53638,note_off,59,0,0,,0,,,72,127
53639,note_on,1,0,0,,12,,,71,127
53698,note_off,59,0,0,,12,,,71,127
53699,note_on,1,0,0,,10,,,69,127
53819,note_off,120,0,0,,10,,,69,127
53820,note_on,1,0,0,,7,,,43,127
53820,note_on,0,0,0,,7,,,67,127
54304,note_off,484,0,0,,7,,,67,127
54304,note_off,0,0,0,,7,,,43,127
54304,note_off,0,0,0,,7,,,55,127
54305,note_on,1,0,0,,7,,,55,127
54305,note_on,0,0,0,,7,,,79,127
54425,note_off,120,0,0,,7,,,79,127
54426,note_on,1,0,0,,12,,,83,127
54546,note_off,120,0,0,,12,,,83,127
54547,note_on,1,0,0,,10,,,81,127
54667,note_off,120,0,0,,10,,,81,127
54668,note_on,1,0,0,,0,,,84,127
54788,note_off,120,0,0,,0,,,84,127
54789,note_on,1,0,0,,12,,,83,127
55030,note_off,241,0,0,,12,,,83,127
55030,note_off,0,0,0,,7,,,55,127
55031,note_on,1,0,0,,7,,,55,127
55031,note_on,0,0,0,,7,,,79,127
55272,note_off,241,0,0,,7,,,79,127
55272,note_off,0,0,0,,7,,,55,127
55273,note_on,1,0,0,,10,,,57,127
55273,note_on,0,0,0,,6,,,78,127
55393,note_off,120,0,0,,6,,,78,127
55394,note_on,1,0,0,,10,,,81,127
55514,note_off,120,0,0,,10,,,81,127
55515,note_on,1,0,0,,7,,,79,127
55635,note_off,120,0,0,,7,,,79,127
55636,note_on,1,0,0,,12,,,83,127
55756,note_off,120,0,0,,12,,,83,127
55756,note_off,0,0,0,,10,,,57,127
55757,note_on,1,0,0,,12,,,59,127
55757,note_on,0,0,0,,10,,,81,127
55998,note_off,241,0,0,,10,,,81,127
55999,note_on,1,0,0,,6,,,78,127
56240,note_off,241,0,0,,6,,,78,127
56240,note_off,0,0,0,,12,,,59,127
56241,note_on,1,0,0,,0,,,60,127
56241,note_on,0,0,0,,4,,,76,127
56361,note_off,120,0,0,,4,,,76,127
56362,note_on,1,0,0,,7,,,79,127
56482,note_off,120,0,0,,7,,,79,127
56483,note_on,1,0,0,,6,,,78,127
56603,note_off,120,0,0,,6,,,78,127
56604,note_on,1,0,0,,10,,,81,127
56724,note_off,120,0,0,,10,,,81,127
56724,note_off,0,0,0,,0,,,60,127
56725,note_on,1,0,0,,0,,,60,127
56725,note_on,0,0,0,,7,,,79,127
56966,note_off,241,0,0,,7,,,79,127
56967,note_on,1,0,0,,4,,,76,127
57208,note_off,241,0,0,,0,,,60,127
57209,note_on,1,0,0,,12,,,59,127
57330,note_off,121,0,0,,4,,,76,127
57330,note_on,0,0,0,,3,,,75,127
57389,note_off,59,0,0,,3,,,75,127
57390,note_on,1,0,0,,4,,,76,127
57449,note_off,59,0,0,,4,,,76,127
57450,note_on,1,0,0,,3,,,75,127
57509,note_off,59,0,0,,3,,,75,127
57510,note_on,1,0,0,,4,,,76,127
57569,note_off,59,0,0,,4,,,76,127
57570,note_on,1,0,0,,3,,,75,127
57629,note_off,59,0,0,,3,,,75,127
57630,note_on,1,0,0,,4,,,76,127
57689,note_off,59,0,0,,4,,,76,127
57690,note_on,1,0,0,,12,,,47,127
57690,note_on,0,0,0,,3,,,75,127
58174,note_off,484,0,0,,3,,,75,127
58174,note_off,0,0,0,,12,,,47,127
58174,note_off,0,0,0,,12,,,59,127
58175,note_on,1,0,0,,10,,,57,127
58175,note_on,0,0,0,,0,,,84,127
58295,note_off,120,0,0,,0,,,84,127
58296,note_on,1,0,0,,10,,,81,127
58416,note_off,120,0,0,,10,,,81,127
58417,note_on,1,0,0,,6,,,78,127
58537,note_off,120,0,0,,6,,,78,127
58538,note_on,1,0,0,,3,,,75,127
58658,note_off,120,0,0,,3,,,75,127
58659,note_on,1,0,0,,0,,,72,127
58900,note_off,241,0,0,,0,,,72,127
58900,note_off,0,0,0,,10,,,57,127
58901,note_on,1,0,0,,10,,,57,127
58901,note_on,0,0,0,,0,,,84,127
59142,note_off,241,0,0,,0,,,84,127
59142,note_off,0,0,0,,10,,,57,127
59143,note_on,1,0,0,,7,,,55,127
59143,note_on,0,0,0,,12,,,83,127
59384,note_off,241,0,0,,12,,,83,127
59385,note_on,1,0,0,,7,,,79,127
59626,note_off,241,0,0,,7,,,79,127
59627,note_on,1,0,0,,3,,,75,127
59868,note_off,241,0,0,,3,,,75,127
59868,note_off,0,0,0,,7,,,55,127
59869,note_on,1,0,0,,7,,,55,127
59869,note_on,0,0,0,,4,,,76,127
60110,note_off,241,0,0,,4,,,76,127
60110,note_off,0,0,0,,7,,,55,127
60111,note_on,1,0,0,,10,,,57,127
60111,note_on,0,0,0,,0,,,84,127
60231,note_off,120,0,0,,0,,,84,127
60232,note_on,1,0,0,,10,,,81,127
60352,note_off,120,0,0,,10,,,81,127
60353,note_on,1,0,0,,6,,,78,127
60473,note_off,120,0,0,,6,,,78,127
60474,note_on,1,0,0,,3,,,75,127
60594,note_off,120,0,0,,3,,,75,127
60595,note_on,1,0,0,,0,,,72,127
60836,note_off,241,0,0,,10,,,57,127
60837,note_on,1,0,0,,10,,,57,127
60837,note_on,0,0,0,,0,,,84,127
61074,note_off,237,0,0,,0,,,72,127
61078,note_off,4,0,0,,0,,,84,127
61078,note_off,0,0,0,,10,,,57,127
61079,note_on,1,0,0,,7,,,55,127
61079,note_on,0,0,0,,12,,,83,127
61320,note_off,241,0,0,,12,,,83,127
61321,note_on,1,0,0,,7,,,79,127
61562,note_off,241,0,0,,7,,,79,127
61563,note_on,1,0,0,,3,,,75,127
61804,note_off,241,0,0,,3,,,75,127
61804,note_off,0,0,0,,7,,,55,127
61805,note_on,1,0,0,,7,,,55,127
61805,note_on,0,0,0,,4,,,76,127
62046,note_off,241,0,0,,4,,,76,127
62046,note_off,0,0,0,,7,,,55,127
62047,note_on,1,0,0,,6,,,54,127
62047,note_on,0,0,0,,10,,,81,127
62167,note_off,120,0,0,,10,,,81,127
62168,note_on,1,0,0,,6,,,78,127
62288,note_off,120,0,0,,6,,,78,127
62289,note_on,1,0,0,,3,,,75,127
62409,note_off,120,0,0,,3,,,75,127
62410,note_on,1,0,0,,0,,,72,127
62530,note_off,120,0,0,,0,,,72,127
62531,note_on,1,0,0,,10,,,69,127
62772,note_off,241,0,0,,10,,,69,127
62772,note_off,0,0,0,,6,,,54,127
62773,note_on,1,0,0,,6,,,54,127
62773,note_on,0,0,0,,10,,,81,127
63014,note_off,241,0,0,,10,,,81,127
63014,note_off,0,0,0,,6,,,54,127
63015,note_on,1,0,0,,4,,,52,127
63015,note_on,0,0,0,,7,,,79,127
63135,note_off,120,0,0,,7,,,79,127
63136,note_on,1,0,0,,4,,,76,127
63256,note_off,120,0,0,,4,,,76,127
63257,note_on,1,0,0,,6,,,78,127
63377,note_off,120,0,0,,6,,,78,127
63378,note_on,1,0,0,,3,,,75,127
63498,note_off,120,0,0,,3,,,75,127
63499,note_on,1,0,0,,4,,,76,127
63619,note_off,120,0,0,,4,,,76,127
63620,note_on,1,0,0,,0,,,72,127
63683,note_off,63,0,0,,4,,,52,127
63740,note_off,57,0,0,,0,,,72,127
63741,note_on,1,0,0,,7,,,55,127
63741,note_on,0,0,0,,2,,,74,127
63861,note_off,120,0,0,,2,,,74,127
63862,note_on,1,0,0,,12,,,71,127
63982,note_off,120,0,0,,12,,,71,127
63982,note_off,0,0,0,,7,,,55,127
63983,note_on,1,0,0,,10,,,57,127
63983,note_on,0,0,0,,0,,,72,127
64103,note_off,120,0,0,,0,,,72,127
64104,note_on,1,0,0,,7,,,67,127
64224,note_off,120,0,0,,7,,,67,127
64224,note_off,0,0,0,,10,,,57,127
64225,note_on,1,0,0,,0,,,60,127
64225,note_on,0,0,0,,10,,,69,127
64345,note_off,120,0,0,,10,,,69,127
64346,note_on,1,0,0,,6,,,66,127
64466,note_off,120,0,0,,6,,,66,127
64466,note_off,0,0,0,,0,,,60,127
64467,note_on,1,0,0,,12,,,59,127
64467,note_on,0,0,0,,4,,,64,127
64710,note_on,243,0,0,,12,,,47,127
64771,note_off,61,0,0,,4,,,64,127
64771,note_on,0,0,0,,3,,,63,127
64830,note_off,59,0,0,,3,,,63,127
64831,note_on,1,0,0,,1,,,61,127
64890,note_off,59,0,0,,1,,,61,127
64891,note_on,1,0,0,,3,,,63,127
64950,note_off,59,0,0,,3,,,63,127
64950,note_off,0,0,0,,12,,,47,127
64950,note_off,0,0,0,,12,,,59,127
64951,note_on,1,0,0,,4,,,52,127
64951,note_on,0,0,0,,3,,,63,127
65315,note_off,364,0,0,,3,,,63,127
65315,note_on,0,0,0,,4,,,64,127
65678,note_off,363,0,0,,4,,,52,127
65922,note_off,244,0,0,,4,,,64,127
65922,note_on,0,0,0,,10,,,57,127
65922,note_on,0,0,0,,0,,,84,127
66042,note_off,120,0,0,,0,,,84,127
66043,note_on,1,0,0,,10,,,81,127
66163,note_off,120,0,0,,10,,,81,127
66164,note_on,1,0,0,,6,,,78,127
66284,note_off,120,0,0,,6,,,78,127
66285,note_on,1,0,0,,3,,,75,127
66405,note_off,120,0,0,,3,,,75,127
66406,note_on,1,0,0,,0,,,72,127
66647,note_off,241,0,0,,10,,,57,127
66648,note_on,1,0,0,,10,,,57,127
66648,note_on,0,0,0,,0,,,84,127
66885,note_off,237,0,0,,0,,,72,127
66889,note_off,4,0,0,,0,,,84,127
66889,note_off,0,0,0,,10,,,57,127
66890,note_on,1,0,0,,7,,,55,127
66890,note_on,0,0,0,,12,,,83,127
67131,note_off,241,0,0,,12,,,83,127
67132,note_on,1,0,0,,7,,,79,127
67373,note_off,241,0,0,,7,,,79,127
67374,note_on,1,0,0,,3,,,75,127
67615,note_off,241,0,0,,3,,,75,127
67615,note_off,0,0,0,,7,,,55,127
67616,note_on,1,0,0,,7,,,55,127
67616,note_on,0,0,0,,4,,,76,127
67857,note_off,241,0,0,,4,,,76,127
67857,note_off,0,0,0,,7,,,55,127
67858,note_on,1,0,0,,10,,,57,127
67858,note_on,0,0,0,,0,,,84,127
67978,note_off,120,0,0,,0,,,84,127
67979,note_on,1,0,0,,10,,,81,127
68099,note_off,120,0,0,,10,,,81,127
68100,note_on,1,0,0,,6,,,78,127
68220,note_off,120,0,0,,6,,,78,127
68221,note_on,1,0,0,,3,,,75,127
68341,note_off,120,0,0,,3,,,75,127
68342,note_on,1,0,0,,0,,,72,127
68583,note_off,241,0,0,,0,,,72,127
68583,note_off,0,0,0,,10,,,57,127
68584,note_on,1,0,0,,10,,,57,127
68584,note_on,0,0,0,,0,,,84,127
68825,note_off,241,0,0,,0,,,84,127
68825,note_off,0,0,0,,10,,,57,127
68826,note_on,1,0,0,,7,,,55,127
68826,note_on,0,0,0,,12,,,83,127
69067,note_off,241,0,0,,12,,,83,127
69068,note_on,1,0,0,,7,,,79,127
69309,note_off,241,0,0,,7,,,79,127
69310,note_on,1,0,0,,3,,,75,127
69551,note_off,241,0,0,,3,,,75,127
69551,note_off,0,0,0,,7,,,55,127
69552,note_on,1,0,0,,7,,,55,127
69552,note_on,0,0,0,,4,,,76,127
69793,note_off,241,0,0,,4,,,76,127
69793,note_off,0,0,0,,7,,,55,127
69794,note_on,1,0,0,,6,,,54,127
69794,note_on,0,0,0,,10,,,81,127
69914,note_off,120,0,0,,10,,,81,127
69915,note_on,1,0,0,,6,,,78,127
70035,note_off,120,0,0,,6,,,78,127
70036,note_on,1,0,0,,3,,,75,127
70156,note_off,120,0,0,,3,,,75,127
70157,note_on,1,0,0,,0,,,72,127
70277,note_off,120,0,0,,0,,,72,127
70278,note_on,1,0,0,,10,,,69,127
70519,note_off,241,0,0,,6,,,54,127
70520,note_on,1,0,0,,6,,,54,127
70520,note_on,0,0,0,,10,,,81,127
70757,note_off,237,0,0,,10,,,69,127
70761,note_off,4,0,0,,10,,,81,127
70761,note_off,0,0,0,,6,,,54,127
70762,note_on,1,0,0,,4,,,52,127
70762,note_on,0,0,0,,7,,,79,127
70882,note_off,120,0,0,,7,,,79,127
70883,note_on,1,0,0,,4,,,76,127
71003,note_off,120,0,0,,4,,,76,127
71004,note_on,1,0,0,,6,,,78,127
71124,note_off,120,0,0,,6,,,78,127
71125,note_on,1,0,0,,3,,,75,127
71245,note_off,120,0,0,,3,,,75,127
71246,note_on,1,0,0,,4,,,76,127
71366,note_off,120,0,0,,4,,,76,127
71367,note_on,1,0,0,,0,,,72,127
71455,note_off,88,0,0,,4,,,52,127
71487,note_off,32,0,0,,0,,,72,127
71488,note_on,1,0,0,,7,,,55,127
71488,note_on,0,0,0,,2,,,74,127
71608,note_off,120,0,0,,2,,,74,127
71609,note_on,1,0,0,,12,,,71,127
71729,note_off,120,0,0,,12,,,71,127
71729,note_off,0,0,0,,7,,,55,127
71730,note_on,1,0,0,,10,,,57,127
71730,note_on,0,0,0,,0,,,72,127
71850,note_off,120,0,0,,0,,,72,127
71851,note_on,1,0,0,,7,,,67,127
71971,note_off,120,0,0,,7,,,67,127
71971,note_off,0,0,0,,10,,,57,127
71972,note_on,1,0,0,,0,,,60,127
71972,note_on,0,0,0,,10,,,69,127
72092,note_off,120,0,0,,10,,,69,127
72093,note_on,1,0,0,,6,,,66,127
72213,note_off,120,0,0,,6,,,66,127
72213,note_off,0,0,0,,0,,,60,127
72214,note_on,1,0,0,,12,,,59,127
72214,note_on,0,0,0,,4,,,64,127
72457,note_on,243,0,0,,12,,,47,127
72518,note_off,61,0,0,,4,,,64,127
72518,note_on,0,0,0,,3,,,63,127
72577,note_off,59,0,0,,3,,,63,127
72578,note_on,1,0,0,,1,,,61,127
72637,note_off,59,0,0,,1,,,61,127
72638,note_on,1,0,0,,3,,,63,127
72697,note_off,59,0,0,,12,,,47,127
72697,note_off,0,0,0,,12,,,59,127
72698,note_on,1,0,0,,4,,,52,127
72941,note_off,243,0,0,,3,,,63,127
72941,note_on,0,0,0,,4,,,64,127
73182,note_off,241,0,0,,4,,,64,127
73183,note_on,1,0,0,,6,,,78,127
73242,note_off,59,0,0,,6,,,78,127
73243,note_on,1,0,0,,4,,,76,127
73302,note_off,59,0,0,,4,,,76,127
73303,note_off,1,0,0,,4,,,52,127
73303,note_on,0,0,0,,6,,,78,127
73362,note_off,59,0,0,,6,,,78,127
73363,note_on,1,0,0,,4,,,76,127
73422,note_off,59,0,0,,4,,,76,127
73423,note_on,1,0,0,,7,,,55,127
73423,note_on,0,0,0,,6,,,78,127
73482,note_off,59,0,0,,6,,,78,127
73483,note_on,1,0,0,,4,,,76,127
73542,note_off,59,0,0,,4,,,76,127
73543,note_on,1,0,0,,6,,,78,127
73602,note_off,59,0,0,,6,,,78,127
73603,note_on,1,0,0,,4,,,76,127
73662,note_off,59,0,0,,7,,,55,127
73663,note_on,1,0,0,,10,,,57,127
73783,note_off,120,0,0,,4,,,76,127
73784,note_on,1,0,0,,12,,,71,127
73904,note_off,120,0,0,,12,,,71,127
73905,note_on,1,0,0,,0,,,72,127
74025,note_off,120,0,0,,0,,,72,127
74026,note_on,1,0,0,,10,,,69,127
74146,note_off,120,0,0,,10,,,69,127
74147,note_on,1,0,0,,12,,,71,127
74267,note_off,120,0,0,,12,,,71,127
74268,note_on,1,0,0,,7,,,67,127
74388,note_off,120,0,0,,7,,,67,127
74388,note_off,0,0,0,,10,,,57,127
74389,note_on,1,0,0,,12,,,59,127
74389,note_on,0,0,0,,10,,,69,127
74509,note_off,120,0,0,,10,,,69,127
74510,note_on,1,0,0,,6,,,66,127
74630,note_off,120,0,0,,12,,,59,127
74631,note_on,1,0,0,,4,,,52,127
74874,note_off,243,0,0,,6,,,66,127
74874,note_on,0,0,0,,7,,,67,127
75115,note_off,241,0,0,,7,,,67,127
75116,note_on,1,0,0,,6,,,78,127
75175,note_off,59,0,0,,6,,,78,127
75176,note_on,1,0,0,,4,,,76,127
75235,note_off,59,0,0,,4,,,76,127
75236,note_off,1,0,0,,4,,,52,127
75236,note_on,0,0,0,,6,,,78,127
75295,note_off,59,0,0,,6,,,78,127
75296,note_on,1,0,0,,4,,,76,127
75355,note_off,59,0,0,,4,,,76,127
75356,note_on,1,0,0,,0,,,48,127
75356,note_on,0,0,0,,6,,,78,127
75415,note_off,59,0,0,,6,,,78,127
75416,note_on,1,0,0,,4,,,76,127
75475,note_off,59,0,0,,4,,,76,127
75476,note_on,1,0,0,,6,,,78,127
75535,note_off,59,0,0,,6,,,78,127
75536,note_on,1,0,0,,4,,,76,127
75595,note_off,59,0,0,,0,,,48,127
75596,note_on,1,0,0,,10,,,45,127
75716,note_off,120,0,0,,4,,,76,127
75717,note_on,1,0,0,,7,,,67,127
75837,note_off,120,0,0,,7,,,67,127
75838,note_on,1,0,0,,10,,,69,127
75958,note_off,120,0,0,,10,,,69,127
75959,note_on,1,0,0,,6,,,66,127
76079,note_off,120,0,0,,6,,,66,127
76079,note_off,0,0,0,,10,,,45,127
76080,note_on,1,0,0,,12,,,47,127
76080,note_on,0,0,0,,7,,,67,127
76200,note_off,120,0,0,,7,,,67,127
76201,note_on,1,0,0,,4,,,64,127
76321,note_off,120,0,0,,4,,,64,127
76322,note_on,1,0,0,,6,,,66,127
76442,note_off,120,0,0,,6,,,66,127
76443,note_on,1,0,0,,3,,,63,127
76563,note_off,120,0,0,,12,,,47,127
76564,note_on,1,0,0,,4,,,40,127
76807,note_off,243,0,0,,3,,,63,127
76807,note_on,0,0,0,,4,,,64,127
77048,note_off,241,0,0,,4,,,64,127
77049,note_on,1,0,0,,6,,,78,127
77108,note_off,59,0,0,,6,,,78,127
77109,note_on,1,0,0,,4,,,76,127
77168,note_off,59,0,0,,4,,,76,127
77169,note_off,1,0,0,,4,,,40,127
77169,note_on,0,0,0,,6,,,78,127
77228,note_off,59,0,0,,6,,,78,127
77229,note_on,1,0,0,,4,,,76,127
77288,note_off,59,0,0,,4,,,76,127
77289,note_on,1,0,0,,7,,,55,127
77289,note_on,0,0,0,,6,,,78,127
77348,note_off,59,0,0,,6,,,78,127
77349,note_on,1,0,0,,4,,,76,127
77408,note_off,59,0,0,,4,,,76,127
77409,note_on,1,0,0,,6,,,78,127
77468,note_off,59,0,0,,6,,,78,127
77469,note_on,1,0,0,,4,,,76,127
77528,note_off,59,0,0,,7,,,55,127
77529,note_on,1,0,0,,10,,,57,127
77649,note_off,120,0,0,,4,,,76,127
77650,note_on,1,0,0,,12,,,71,127
77770,note_off,120,0,0,,12,,,71,127
77771,note_on,1,0,0,,0,,,72,127
77891,note_off,120,0,0,,0,,,72,127
77892,note_on,1,0,0,,10,,,69,127
78012,note_off,120,0,0,,10,,,69,127
78013,note_on,1,0,0,,12,,,71,127
78133,note_off,120,0,0,,12,,,71,127
78134,note_on,1,0,0,,7,,,67,127
78254,note_off,120,0,0,,7,,,67,127
78254,note_off,0,0,0,,10,,,57,127
78255,note_on,1,0,0,,12,,,59,127
78255,note_on,0,0,0,,10,,,69,127
78375,note_off,120,0,0,,10,,,69,127
78376,note_on,1,0,0,,6,,,66,127
78496,note_off,120,0,0,,12,,,59,127
78497,note_on,1,0,0,,4,,,52,127
78740,note_off,243,0,0,,6,,,66,127
78740,note_on,0,0,0,,7,,,67,127
78981,note_off,241,0,0,,7,,,67,127
78982,note_on,1,0,0,,6,,,78,127
79041,note_off,59,0,0,,6,,,78,127
79042,note_on,1,0,0,,4,,,76,127
79101,note_off,59,0,0,,4,,,76,127
79102,note_off,1,0,0,,4,,,52,127
79102,note_on,0,0,0,,6,,,78,127
79161,note_off,59,0,0,,6,,,78,127
79162,note_on,1,0,0,,4,,,76,127
79221,note_off,59,0,0,,4,,,76,127
79222,note_on,1,0,0,,0,,,48,127
79222,note_on,0,0,0,,6,,,78,127
79281,note_off,59,0,0,,6,,,78,127
79282,note_on,1,0,0,,4,,,76,127
79341,note_off,59,0,0,,4,,,76,127
79342,note_on,1,0,0,,6,,,78,127
79401,note_off,59,0,0,,6,,,78,127
79402,note_on,1,0,0,,4,,,76,127
79461,note_off,59,0,0,,0,,,48,127
79462,note_on,1,0,0,,10,,,45,127
79582,note_off,120,0,0,,4,,,76,127
79583,note_on,1,0,0,,7,,,67,127
79703,note_off,120,0,0,,7,,,67,127
79704,note_on,1,0,0,,10,,,69,127
79824,note_off,120,0,0,,10,,,69,127
79825,note_on,1,0,0,,6,,,66,127
79945,note_off,120,0,0,,6,,,66,127
79945,note_off,0,0,0,,10,,,45,127
79946,note_on,1,0,0,,12,,,47,127
79946,note_on,0,0,0,,7,,,67,127
80066,note_off,120,0,0,,7,,,67,127
80067,note_on,1,0,0,,4,,,64,127
80187,note_off,120,0,0,,4,,,64,127
80188,note_on,1,0,0,,6,,,66,127
80308,note_off,120,0,0,,6,,,66,127
80309,note_on,1,0,0,,3,,,63,127
80429,note_off,120,0,0,,3,,,63,127
80429,note_off,0,0,0,,12,,,47,127
80430,note_on,1,0,0,,4,,,40,127
80430,note_on,0,0,0,,4,,,52,127
80430,note_on,0,0,0,,3,,,63,127
80910,note_off,480,0,0,,3,,,63,127
80915,note_on,5,0,0,,4,,,64,127
82855,note_off,1940,0,0,,4,,,64,127
82855,note_off,0,0,0,,4,,,52,127
82855,note_off,0,0,0,,4,,,40,127
84480,end_of_track,1625,1,0,,,,,,
