tick,type,time,meta,track,program,channel,pitch,tempo,note,velocity
0,copyright,0,1,0,,,,,,
0,program_change,0,0,0,6,0,,,,
0,pitchwheel,0,0,0,,0,0,,,
0,program_change,0,0,0,6,1,,,,
0,pitchwheel,0,0,0,,1,-590,,,
0,program_change,0,0,0,6,2,,,,
0,pitchwheel,0,0,0,,2,-272,,,
0,program_change,0,0,0,6,3,,,,
0,pitchwheel,0,0,0,,3,-353,,,
0,program_change,0,0,0,6,4,,,,
0,pitchwheel,0,0,0,,4,-560,,,
0,program_change,0,0,0,6,5,,,,
0,pitchwheel,0,0,0,,5,-80,,,
0,program_change,0,0,0,6,6,,,,
0,pitchwheel,0,0,0,,6,-625,,,
0,program_change,0,0,0,6,7,,,,
0,pitchwheel,0,0,0,,7,-130,,,
0,program_change,0,0,0,6,8,,,,
0,pitchwheel,0,0,0,,8,-512,,,
0,program_change,0,0,0,6,10,,,,
0,pitchwheel,0,0,0,,10,-464,,,
0,program_change,0,0,0,6,11,,,,
0,pitchwheel,0,0,0,,11,-208,,,
0,program_change,0,0,0,6,12,,,,
0,pitchwheel,0,0,0,,12,-553,,,
0,set_tempo,0,1,0,,,,500000,,
121,note_on,121,0,0,,4,,,64,127
121,note_on,0,0,0,,12,,,83,127
241,note_off,120,0,0,,12,,,83,127
242,note_on,1,0,0,,7,,,79,127
362,note_off,120,0,0,,7,,,79,127
363,note_on,1,0,0,,6,,,78,127
483,note_off,120,0,0,,6,,,78,127
484,note_on,1,0,0,,4,,,76,127
604,note_off,120,0,0,,4,,,76,127
605,note_on,1,0,0,,4,,,76,127
846,note_off,241,0,0,,4,,,76,127
846,note_off,0,0,0,,4,,,64,127
847,note_on,1,0,0,,12,,,59,127
847,note_on,0,0,0,,6,,,78,127
967,note_off,120,0,0,,6,,,78,127
968,note_on,1,0,0,,3,,,75,127
1088,note_off,120,0,0,,3,,,75,127
1089,note_on,1,0,0,,1,,,73,127
1209,note_off,120,0,0,,1,,,73,127
1210,note_on,1,0,0,,12,,,71,127
1330,note_off,120,0,0,,12,,,71,127
1331,note_on,1,0,0,,12,,,71,127
1572,note_off,241,0,0,,12,,,71,127
1572,note_off,0,0,0,,12,,,59,127
1573,note_on,1,0,0,,10,,,57,127
1573,note_on,0,0,0,,0,,,84,127
1693,note_off,120,0,0,,0,,,84,127
1694,note_on,1,0,0,,10,,,81,127
1814,note_off,120,0,0,,10,,,81,127
1815,note_on,1,0,0,,7,,,79,127
1935,note_off,120,0,0,,7,,,79,127
1936,note_on,1,0,0,,6,,,78,127
2056,note_off,120,0,0,,6,,,78,127
2057,note_on,1,0,0,,6,,,78,127
2298,note_off,241,0,0,,6,,,78,127
2298,note_off,0,0,0,,10,,,57,127
2299,note_on,1,0,0,,7,,,55,127
2299,note_on,0,0,0,,12,,,83,127
2419,note_off,120,0,0,,12,,,83,127
2420,note_on,1,0,0,,7,,,79,127
2540,note_off,120,0,0,,7,,,79,127
2541,note_on,1,0,0,,6,,,78,127
2661,note_off,120,0,0,,6,,,78,127
2662,note_on,1,0,0,,4,,,76,127
2782,note_off,120,0,0,,4,,,76,127
2783,note_on,1,0,0,,4,,,76,127
3024,note_off,241,0,0,,4,,,76,127
3024,note_off,0,0,0,,7,,,55,127
3025,note_on,1,0,0,,10,,,57,127
3025,note_on,0,0,0,,6,,,78,127
3105,note_off,80,0,0,,6,,,78,127
3106,note_on,1,0,0,,7,,,79,127
3186,note_off,80,0,0,,7,,,79,127
3187,note_on,1,0,0,,10,,,81,127
3267,note_off,80,0,0,,10,,,81,127
3267,note_off,0,0,0,,10,,,57,127
3268,note_on,1,0,0,,12,,,59,127
3268,note_on,0,0,0,,7,,,79,127
3388,note_off,120,0,0,,7,,,79,127
3389,note_on,1,0,0,,4,,,76,127
3509,note_off,120,0,0,,4,,,76,127
3509,note_off,0,0,0,,12,,,59,127
3510,note_on,1,0,0,,12,,,47,127
3510,note_on,0,0,0,,6,,,78,127
3630,note_off,120,0,0,,6,,,78,127
3631,note_on,1,0,0,,3,,,75,127
3751,note_off,120,0,0,,3,,,75,127
3751,note_off,0,0,0,,12,,,47,127
3752,note_on,1,0,0,,4,,,52,127
3752,note_on,0,0,0,,3,,,75,127
3993,note_off,241,0,0,,3,,,75,127
3994,note_on,1,0,0,,4,,,76,127
4358,note_off,364,0,0,,4,,,76,127
4478,note_off,120,0,0,,4,,,52,127
4479,note_on,1,0,0,,0,,,60,127
4479,note_on,0,0,0,,7,,,79,127
4599,note_off,120,0,0,,7,,,79,127
4600,note_on,1,0,0,,4,,,76,127
4720,note_off,120,0,0,,4,,,76,127
4721,note_on,1,0,0,,2,,,74,127
4841,note_off,120,0,0,,2,,,74,127
4842,note_on,1,0,0,,0,,,72,127
4962,note_off,120,0,0,,0,,,72,127
4963,note_on,1,0,0,,0,,,72,127
5204,note_off,241,0,0,,0,,,72,127
5204,note_off,0,0,0,,0,,,60,127
5205,note_on,1,0,0,,7,,,55,127
5205,note_on,0,0,0,,7,,,79,127
5325,note_off,120,0,0,,7,,,79,127
5326,note_on,1,0,0,,2,,,74,127
5446,note_off,120,0,0,,2,,,74,127
5447,note_on,1,0,0,,0,,,72,127
5567,note_off,120,0,0,,0,,,72,127
5568,note_on,1,0,0,,12,,,71,127
5688,note_off,120,0,0,,12,,,71,127
5689,note_on,1,0,0,,12,,,71,127
5930,note_off,241,0,0,,12,,,71,127
5930,note_off,0,0,0,,7,,,55,127
5931,note_on,1,0,0,,2,,,50,127
5931,note_on,0,0,0,,10,,,81,127
6051,note_off,120,0,0,,10,,,81,127
6052,note_on,1,0,0,,0,,,72,127
6172,note_off,120,0,0,,0,,,72,127
6173,note_on,1,0,0,,12,,,71,127
6293,note_off,120,0,0,,12,,,71,127
6294,note_on,1,0,0,,10,,,69,127
6414,note_off,120,0,0,,10,,,69,127
6415,note_on,1,0,0,,10,,,69,127
6656,note_off,241,0,0,,10,,,69,127
6656,note_off,0,0,0,,2,,,50,127
6657,note_on,1,0,0,,7,,,55,127
6657,note_on,0,0,0,,7,,,79,127
6777,note_off,120,0,0,,7,,,79,127
6778,note_on,1,0,0,,12,,,71,127
6898,note_off,120,0,0,,12,,,71,127
6899,note_on,1,0,0,,10,,,69,127
7019,note_off,120,0,0,,10,,,69,127
7020,note_on,1,0,0,,7,,,67,127
7140,note_off,120,0,0,,7,,,67,127
7141,note_on,1,0,0,,7,,,67,127
7382,note_off,241,0,0,,7,,,67,127
7382,note_off,0,0,0,,7,,,55,127
7383,note_on,1,0,0,,7,,,55,127
7383,note_on,0,0,0,,7,,,79,127
7503,note_off,120,0,0,,7,,,79,127
7504,note_on,1,0,0,,4,,,76,127
7624,note_off,120,0,0,,4,,,76,127
7625,note_on,1,0,0,,2,,,74,127
7745,note_off,120,0,0,,2,,,74,127
7746,note_on,1,0,0,,1,,,73,127
7866,note_off,120,0,0,,1,,,73,127
7867,note_on,1,0,0,,1,,,73,127
8108,note_off,241,0,0,,1,,,73,127
8108,note_off,0,0,0,,7,,,55,127
8109,note_on,1,0,0,,6,,,54,127
8109,note_on,0,0,0,,10,,,81,127
8229,note_off,120,0,0,,10,,,81,127
8230,note_on,1,0,0,,6,,,78,127
8350,note_off,120,0,0,,6,,,78,127
8351,note_on,1,0,0,,4,,,76,127
8471,note_off,120,0,0,,4,,,76,127
8472,note_on,1,0,0,,2,,,74,127
8592,note_off,120,0,0,,2,,,74,127
8593,note_on,1,0,0,,2,,,74,127
8834,note_off,241,0,0,,2,,,74,127
8834,note_off,0,0,0,,6,,,54,127
8835,note_on,1,0,0,,7,,,55,127
8835,note_on,0,0,0,,12,,,83,127
8955,note_off,120,0,0,,12,,,83,127
8956,note_on,1,0,0,,6,,,78,127
9076,note_off,120,0,0,,6,,,78,127
9077,note_on,1,0,0,,7,,,79,127
9197,note_off,120,0,0,,7,,,79,127
9198,note_on,1,0,0,,4,,,76,127
9318,note_off,120,0,0,,4,,,76,127
9319,note_on,1,0,0,,6,,,78,127
9439,note_off,120,0,0,,6,,,78,127
9440,note_on,1,0,0,,2,,,74,127
9560,note_off,120,0,0,,2,,,74,127
9560,note_off,0,0,0,,7,,,55,127
9561,note_on,1,0,0,,10,,,57,127
9561,note_on,0,0,0,,2,,,74,127
10041,note_off,480,0,0,,2,,,74,127
10046,note_on,5,0,0,,1,,,73,127
10286,note_off,240,0,0,,1,,,73,127
10287,note_off,1,0,0,,10,,,57,127
10288,note_on,1,0,0,,10,,,57,127
10288,note_on,0,0,0,,10,,,81,127
10408,note_off,120,0,0,,10,,,81,127
10409,note_on,1,0,0,,6,,,78,127
10529,note_off,120,0,0,,6,,,78,127
10530,note_on,1,0,0,,4,,,76,127
10650,note_off,120,0,0,,4,,,76,127
10651,note_on,1,0,0,,3,,,75,127
10771,note_off,120,0,0,,3,,,75,127
10772,note_on,1,0,0,,3,,,75,127
11013,note_off,241,0,0,,3,,,75,127
11013,note_off,0,0,0,,10,,,57,127
11014,note_on,1,0,0,,7,,,55,127
11014,note_on,0,0,0,,12,,,83,127
11134,note_off,120,0,0,,12,,,83,127
11135,note_on,1,0,0,,7,,,79,127
11255,note_off,120,0,0,,7,,,79,127
11256,note_on,1,0,0,,6,,,78,127
11376,note_off,120,0,0,,6,,,78,127
11377,note_on,1,0,0,,4,,,76,127
11497,note_off,120,0,0,,4,,,76,127
11498,note_on,1,0,0,,4,,,76,127
11739,note_off,241,0,0,,4,,,76,127
11739,note_off,0,0,0,,7,,,55,127
11740,note_on,1,0,0,,10,,,57,127
11740,note_on,0,0,0,,0,,,84,127
11860,note_off,120,0,0,,0,,,84,127
11861,note_on,1,0,0,,7,,,79,127
11981,note_off,120,0,0,,7,,,79,127
11982,note_on,1,0,0,,10,,,81,127
12102,note_off,120,0,0,,10,,,81,127
12103,note_on,1,0,0,,6,,,78,127
12223,note_off,120,0,0,,6,,,78,127
12224,note_on,1,0,0,,7,,,79,127
12344,note_off,120,0,0,,7,,,79,127
12345,note_on,1,0,0,,4,,,76,127
12465,note_off,120,0,0,,4,,,76,127
12465,note_off,0,0,0,,10,,,57,127
12466,note_on,1,0,0,,12,,,59,127
12466,note_on,0,0,0,,4,,,76,127
12707,note_off,241,0,0,,4,,,76,127
12708,note_on,1,0,0,,3,,,75,127
13072,note_off,364,0,0,,3,,,75,127
13192,note_off,120,0,0,,12,,,59,127
13193,note_on,1,0,0,,3,,,63,127
13193,note_on,0,0,0,,6,,,78,127
13313,note_off,120,0,0,,6,,,78,127
13314,note_on,1,0,0,,3,,,75,127
13434,note_off,120,0,0,,3,,,75,127
13435,note_on,1,0,0,,1,,,73,127
13555,note_off,120,0,0,,1,,,73,127
13556,note_on,1,0,0,,12,,,71,127
13676,note_off,120,0,0,,12,,,71,127
13677,note_on,1,0,0,,12,,,71,127
13918,note_off,241,0,0,,12,,,71,127
13918,note_off,0,0,0,,3,,,63,127
13919,note_on,1,0,0,,4,,,64,127
13919,note_on,0,0,0,,10,,,81,127
13919,note_on,0,0,0,,7,,,79,127
14101,note_off,182,0,0,,10,,,81,127
14160,note_off,59,0,0,,7,,,79,127
14161,note_on,1,0,0,,6,,,78,127
14402,note_off,241,0,0,,6,,,78,127
14403,note_on,1,0,0,,7,,,79,127
14644,note_off,241,0,0,,7,,,79,127
14644,note_off,0,0,0,,4,,,64,127
14645,note_on,1,0,0,,10,,,57,127
14645,note_on,0,0,0,,7,,,79,127
14765,note_off,120,0,0,,7,,,79,127
14766,note_on,1,0,0,,4,,,76,127
14886,note_off,120,0,0,,4,,,76,127
14887,note_on,1,0,0,,2,,,74,127
15007,note_off,120,0,0,,2,,,74,127
15008,note_on,1,0,0,,1,,,73,127
15128,note_off,120,0,0,,1,,,73,127
15129,note_on,1,0,0,,1,,,73,127
15370,note_off,241,0,0,,1,,,73,127
15370,note_off,0,0,0,,10,,,57,127
15371,note_on,1,0,0,,2,,,62,127
15371,note_on,0,0,0,,6,,,78,127
15371,note_on,0,0,0,,7,,,79,127
15553,note_off,182,0,0,,7,,,79,127
15612,note_off,59,0,0,,6,,,78,127
15613,note_on,1,0,0,,4,,,76,127
15854,note_off,241,0,0,,4,,,76,127
15855,note_on,1,0,0,,6,,,78,127
16096,note_off,241,0,0,,6,,,78,127
16096,note_off,0,0,0,,2,,,62,127
16097,note_on,1,0,0,,2,,,62,127
16097,note_on,0,0,0,,6,,,78,127
16217,note_off,120,0,0,,6,,,78,127
16218,note_on,1,0,0,,2,,,74,127
16338,note_off,120,0,0,,2,,,74,127
16339,note_on,1,0,0,,1,,,73,127
16459,note_off,120,0,0,,1,,,73,127
16460,note_on,1,0,0,,12,,,71,127
16580,note_off,120,0,0,,12,,,71,127
16581,note_on,1,0,0,,12,,,71,127
16822,note_off,241,0,0,,12,,,71,127
16822,note_off,0,0,0,,2,,,62,127
16823,note_on,1,0,0,,1,,,61,127
16823,note_on,0,0,0,,4,,,76,127
16943,note_off,120,0,0,,4,,,76,127
16944,note_on,1,0,0,,1,,,73,127
17064,note_off,120,0,0,,1,,,73,127
17065,note_on,1,0,0,,12,,,71,127
17185,note_off,120,0,0,,12,,,71,127
17186,note_on,1,0,0,,11,,,70,127
17306,note_off,120,0,0,,11,,,70,127
17307,note_on,1,0,0,,11,,,70,127
17548,note_off,241,0,0,,11,,,70,127
17548,note_off,0,0,0,,1,,,61,127
17549,note_on,1,0,0,,12,,,59,127
17549,note_on,0,0,0,,4,,,76,127
17669,note_off,120,0,0,,4,,,76,127
17670,note_on,1,0,0,,2,,,74,127
17790,note_off,120,0,0,,2,,,74,127
17790,note_off,0,0,0,,12,,,59,127
17791,note_on,1,0,0,,7,,,55,127
17791,note_on,0,0,0,,1,,,73,127
17911,note_off,120,0,0,,1,,,73,127
17912,note_on,1,0,0,,2,,,74,127
18032,note_off,120,0,0,,2,,,74,127
18032,note_off,0,0,0,,7,,,55,127
18033,note_on,1,0,0,,4,,,52,127
18033,note_on,0,0,0,,4,,,76,127
18153,note_off,120,0,0,,4,,,76,127
18154,note_on,1,0,0,,6,,,78,127
18274,note_off,120,0,0,,6,,,78,127
18274,note_off,0,0,0,,4,,,52,127
18275,note_on,1,0,0,,6,,,54,127
18275,note_on,0,0,0,,12,,,71,127
18516,note_off,241,0,0,,12,,,71,127
18517,note_on,1,0,0,,11,,,70,127
18576,note_off,59,0,0,,11,,,70,127
18577,note_on,1,0,0,,12,,,71,127
18636,note_off,59,0,0,,12,,,71,127
18637,note_on,1,0,0,,11,,,70,127
18696,note_off,59,0,0,,11,,,70,127
18697,note_on,1,0,0,,12,,,71,127
18753,note_off,56,0,0,,6,,,54,127
18757,note_off,4,0,0,,12,,,71,127
18758,note_on,1,0,0,,11,,,70,127
18999,note_off,241,0,0,,11,,,70,127
19000,note_on,1,0,0,,6,,,66,127
19000,note_on,0,0,0,,11,,,70,127
19000,note_on,0,0,0,,6,,,78,127
19000,note_on,0,0,0,,1,,,73,127
19241,note_off,241,0,0,,1,,,73,127
19241,note_off,0,0,0,,11,,,70,127
19242,note_on,1,0,0,,12,,,71,127
19242,note_on,0,0,0,,2,,,74,127
19483,note_off,241,0,0,,2,,,74,127
19483,note_off,0,0,0,,6,,,78,127
19483,note_off,0,0,0,,6,,,66,127
19484,note_on,1,0,0,,4,,,64,127
19484,note_on,0,0,0,,7,,,79,127
19484,note_on,0,0,0,,4,,,76,127
19725,note_off,241,0,0,,4,,,76,127
19725,note_off,0,0,0,,7,,,79,127
19725,note_off,0,0,0,,4,,,64,127
19725,note_off,0,0,0,,12,,,71,127
19726,note_on,1,0,0,,6,,,66,127
19726,note_on,0,0,0,,11,,,70,127
19726,note_on,0,0,0,,6,,,78,127
19726,note_on,0,0,0,,1,,,73,127
19967,note_off,241,0,0,,1,,,73,127
19967,note_off,0,0,0,,11,,,70,127
19968,note_on,1,0,0,,12,,,71,127
19968,note_on,0,0,0,,2,,,74,127
20209,note_off,241,0,0,,2,,,74,127
20209,note_off,0,0,0,,6,,,78,127
20209,note_off,0,0,0,,6,,,66,127
20210,note_on,1,0,0,,4,,,64,127
20210,note_on,0,0,0,,7,,,79,127
20210,note_on,0,0,0,,4,,,76,127
20451,note_off,241,0,0,,4,,,76,127
20451,note_off,0,0,0,,7,,,79,127
20451,note_off,0,0,0,,4,,,64,127
20451,note_off,0,0,0,,12,,,71,127
20452,note_on,1,0,0,,11,,,70,127
20452,note_on,0,0,0,,6,,,66,127
20452,note_on,0,0,0,,1,,,73,127
20452,note_on,0,0,0,,6,,,78,127
20693,note_off,241,0,0,,1,,,73,127
20693,note_off,0,0,0,,11,,,70,127
20694,note_on,1,0,0,,12,,,71,127
20694,note_on,0,0,0,,2,,,74,127
20935,note_off,241,0,0,,2,,,74,127
20935,note_off,0,0,0,,6,,,78,127
20935,note_off,0,0,0,,6,,,66,127
20936,note_on,1,0,0,,4,,,64,127
20936,note_on,0,0,0,,4,,,76,127
20936,note_on,0,0,0,,7,,,79,127
21177,note_off,241,0,0,,7,,,79,127
21177,note_off,0,0,0,,4,,,76,127
21177,note_off,0,0,0,,4,,,64,127
21177,note_off,0,0,0,,12,,,71,127
21178,note_on,1,0,0,,6,,,66,127
21178,note_on,0,0,0,,6,,,78,127
21178,note_on,0,0,0,,7,,,79,127
21419,note_off,241,0,0,,7,,,79,127
21540,note_off,121,0,0,,6,,,78,127
21541,note_on,1,0,0,,4,,,76,127
21600,note_off,59,0,0,,4,,,76,127
21601,note_on,1,0,0,,2,,,74,127
21660,note_off,59,0,0,,2,,,74,127
21661,note_on,1,0,0,,6,,,54,127
21661,note_on,0,0,0,,1,,,73,127
21902,note_off,241,0,0,,1,,,73,127
21902,note_off,0,0,0,,6,,,54,127
21902,note_off,0,0,0,,6,,,66,127
21903,note_on,1,0,0,,11,,,70,127
21903,note_on,0,0,0,,6,,,66,127
21903,note_on,0,0,0,,6,,,78,127
21903,note_on,0,0,0,,1,,,73,127
22144,note_off,241,0,0,,1,,,73,127
22144,note_off,0,0,0,,11,,,70,127
22145,note_on,1,0,0,,12,,,71,127
22145,note_on,0,0,0,,2,,,74,127
22386,note_off,241,0,0,,2,,,74,127
22386,note_off,0,0,0,,6,,,78,127
22386,note_off,0,0,0,,6,,,66,127
22387,note_on,1,0,0,,4,,,64,127
22387,note_on,0,0,0,,4,,,76,127
22387,note_on,0,0,0,,7,,,79,127
22628,note_off,241,0,0,,7,,,79,127
22628,note_off,0,0,0,,4,,,76,127
22628,note_off,0,0,0,,4,,,64,127
22628,note_off,0,0,0,,12,,,71,127
22629,note_on,1,0,0,,6,,,66,127
22629,note_on,0,0,0,,11,,,70,127
22629,note_on,0,0,0,,6,,,78,127
22629,note_on,0,0,0,,1,,,73,127
22870,note_off,241,0,0,,1,,,73,127
22870,note_off,0,0,0,,11,,,70,127
22871,note_on,1,0,0,,12,,,71,127
22871,note_on,0,0,0,,2,,,74,127
23112,note_off,241,0,0,,2,,,74,127
23112,note_off,0,0,0,,6,,,78,127
23112,note_off,0,0,0,,6,,,66,127
23113,note_on,1,0,0,,4,,,64,127
23113,note_on,0,0,0,,4,,,76,127
23113,note_on,0,0,0,,7,,,79,127
23354,note_off,241,0,0,,7,,,79,127
23354,note_off,0,0,0,,4,,,76,127
23354,note_off,0,0,0,,4,,,64,127
23354,note_off,0,0,0,,12,,,71,127
23355,note_on,1,0,0,,11,,,70,127
23355,note_on,0,0,0,,6,,,66,127
23355,note_on,0,0,0,,6,,,78,127
23355,note_on,0,0,0,,1,,,73,127
23596,note_off,241,0,0,,1,,,73,127
23596,note_off,0,0,0,,11,,,70,127
23597,note_on,1,0,0,,12,,,71,127
23597,note_on,0,0,0,,2,,,74,127
23838,note_off,241,0,0,,2,,,74,127
23838,note_off,0,0,0,,6,,,78,127
23838,note_off,0,0,0,,6,,,66,127
23839,note_on,1,0,0,,4,,,64,127
23839,note_on,0,0,0,,12,,,83,127
23839,note_on,0,0,0,,7,,,79,127
24080,note_off,241,0,0,,4,,,64,127
24080,note_off,0,0,0,,12,,,71,127
24081,note_on,1,0,0,,6,,,66,127
24202,note_off,121,0,0,,7,,,79,127
24323,note_on,121,0,0,,6,,,54,127
24443,note_off,120,0,0,,12,,,83,127
24444,note_on,1,0,0,,11,,,82,127
24503,note_off,59,0,0,,11,,,82,127
24504,note_on,1,0,0,,8,,,80,127
24563,note_off,59,0,0,,8,,,80,127
24564,note_on,1,0,0,,6,,,78,127
24805,note_off,241,0,0,,6,,,78,127
24805,note_off,0,0,0,,6,,,54,127
24805,note_off,0,0,0,,6,,,66,127
24806,note_on,1,0,0,,6,,,54,127
24806,note_on,0,0,0,,2,,,50,127
24806,note_on,0,0,0,,12,,,83,127
24926,note_off,120,0,0,,12,,,83,127
24927,note_on,1,0,0,,6,,,78,127
25047,note_off,120,0,0,,6,,,78,127
25048,note_on,1,0,0,,4,,,76,127
25168,note_off,120,0,0,,4,,,76,127
25169,note_on,1,0,0,,2,,,74,127
25289,note_off,120,0,0,,2,,,74,127
25290,note_on,1,0,0,,2,,,74,127
25531,note_off,241,0,0,,2,,,74,127
25531,note_off,0,0,0,,2,,,50,127
25531,note_off,0,0,0,,6,,,54,127
25532,note_on,1,0,0,,7,,,55,127
25532,note_on,0,0,0,,4,,,52,127
25532,note_on,0,0,0,,12,,,83,127
25652,note_off,120,0,0,,12,,,83,127
25653,note_on,1,0,0,,7,,,79,127
25773,note_off,120,0,0,,7,,,79,127
25774,note_on,1,0,0,,6,,,78,127
25894,note_off,120,0,0,,6,,,78,127
25895,note_on,1,0,0,,4,,,76,127
26015,note_off,120,0,0,,4,,,76,127
26016,note_on,1,0,0,,4,,,76,127
26257,note_off,241,0,0,,4,,,76,127
26257,note_off,0,0,0,,4,,,52,127
26257,note_off,0,0,0,,7,,,55,127
26258,note_on,1,0,0,,6,,,54,127
26258,note_on,0,0,0,,2,,,74,127
26378,note_off,120,0,0,,2,,,74,127
26379,note_on,1,0,0,,4,,,76,127
26499,note_off,120,0,0,,4,,,76,127
26500,note_on,1,0,0,,6,,,78,127
26620,note_off,120,0,0,,6,,,78,127
26621,note_on,1,0,0,,12,,,71,127
26741,note_off,120,0,0,,12,,,71,127
26742,note_on,1,0,0,,6,,,42,127
26742,note_on,0,0,0,,1,,,73,127
26862,note_off,120,0,0,,1,,,73,127
26863,note_on,1,0,0,,11,,,70,127
26983,note_off,120,0,0,,11,,,70,127
26983,note_off,0,0,0,,6,,,42,127
26983,note_off,0,0,0,,6,,,54,127
26984,note_on,1,0,0,,12,,,47,127
26984,note_on,0,0,0,,11,,,70,127
27225,note_off,241,0,0,,11,,,70,127
27226,note_on,1,0,0,,12,,,71,127
27590,note_off,364,0,0,,12,,,47,127
27710,note_off,120,0,0,,12,,,71,127
27711,note_on,1,0,0,,11,,,70,127
27711,note_on,0,0,0,,6,,,66,127
27711,note_on,0,0,0,,6,,,78,127
27711,note_on,0,0,0,,1,,,73,127
27952,note_off,241,0,0,,1,,,73,127
27952,note_off,0,0,0,,11,,,70,127
27953,note_on,1,0,0,,12,,,71,127
27953,note_on,0,0,0,,2,,,74,127
28194,note_off,241,0,0,,2,,,74,127
28194,note_off,0,0,0,,6,,,78,127
28194,note_off,0,0,0,,6,,,66,127
28195,note_on,1,0,0,,4,,,64,127
28195,note_on,0,0,0,,7,,,79,127
28195,note_on,0,0,0,,4,,,76,127
28436,note_off,241,0,0,,4,,,76,127
28436,note_off,0,0,0,,7,,,79,127
28436,note_off,0,0,0,,4,,,64,127
28436,note_off,0,0,0,,12,,,71,127
28437,note_on,1,0,0,,6,,,66,127
28437,note_on,0,0,0,,11,,,70,127
28437,note_on,0,0,0,,6,,,78,127
28437,note_on,0,0,0,,1,,,73,127
28678,note_off,241,0,0,,1,,,73,127
28678,note_off,0,0,0,,11,,,70,127
28679,note_on,1,0,0,,12,,,71,127
28679,note_on,0,0,0,,2,,,74,127
28920,note_off,241,0,0,,2,,,74,127
28920,note_off,0,0,0,,6,,,78,127
28920,note_off,0,0,0,,6,,,66,127
28921,note_on,1,0,0,,4,,,64,127
28921,note_on,0,0,0,,4,,,76,127
28921,note_on,0,0,0,,7,,,79,127
29162,note_off,241,0,0,,7,,,79,127
29162,note_off,0,0,0,,4,,,76,127
29162,note_off,0,0,0,,4,,,64,127
29162,note_off,0,0,0,,12,,,71,127
29163,note_on,1,0,0,,11,,,70,127
29163,note_on,0,0,0,,6,,,66,127
29163,note_on,0,0,0,,6,,,78,127
29163,note_on,0,0,0,,1,,,73,127
29404,note_off,241,0,0,,1,,,73,127
29404,note_off,0,0,0,,11,,,70,127
29405,note_on,1,0,0,,12,,,71,127
29405,note_on,0,0,0,,2,,,74,127
29646,note_off,241,0,0,,2,,,74,127
29646,note_off,0,0,0,,6,,,78,127
29646,note_off,0,0,0,,6,,,66,127
29647,note_on,1,0,0,,4,,,64,127
29647,note_on,0,0,0,,7,,,79,127
29647,note_on,0,0,0,,4,,,76,127
29888,note_off,241,0,0,,4,,,76,127
29888,note_off,0,0,0,,7,,,79,127
29888,note_off,0,0,0,,4,,,64,127
29888,note_off,0,0,0,,12,,,71,127
29889,note_on,1,0,0,,6,,,66,127
29889,note_on,0,0,0,,6,,,78,127
30132,note_on,243,0,0,,6,,,54,127
30252,note_off,120,0,0,,6,,,78,127
30253,note_on,1,0,0,,4,,,76,127
30312,note_off,59,0,0,,4,,,76,127
30313,note_on,1,0,0,,2,,,74,127
30372,note_off,59,0,0,,2,,,74,127
30373,note_on,1,0,0,,1,,,73,127
30614,note_off,241,0,0,,1,,,73,127
30614,note_off,0,0,0,,6,,,54,127
30614,note_off,0,0,0,,6,,,66,127
30615,note_on,1,0,0,,6,,,66,127
30615,note_on,0,0,0,,11,,,70,127
30615,note_on,0,0,0,,1,,,73,127
30615,note_on,0,0,0,,6,,,78,127
30856,note_off,241,0,0,,1,,,73,127
30856,note_off,0,0,0,,11,,,70,127
30857,note_on,1,0,0,,12,,,71,127
30857,note_on,0,0,0,,2,,,74,127
31098,note_off,241,0,0,,2,,,74,127
31098,note_off,0,0,0,,6,,,78,127
31098,note_off,0,0,0,,6,,,66,127
31099,note_on,1,0,0,,4,,,64,127
31099,note_on,0,0,0,,7,,,79,127
31099,note_on,0,0,0,,4,,,76,127
31340,note_off,241,0,0,,4,,,76,127
31340,note_off,0,0,0,,7,,,79,127
31340,note_off,0,0,0,,4,,,64,127
31340,note_off,0,0,0,,12,,,71,127
31341,note_on,1,0,0,,6,,,66,127
31341,note_on,0,0,0,,11,,,70,127
31341,note_on,0,0,0,,6,,,78,127
31341,note_on,0,0,0,,1,,,73,127
31582,note_off,241,0,0,,1,,,73,127
31582,note_off,0,0,0,,11,,,70,127
31583,note_on,1,0,0,,12,,,71,127
31583,note_on,0,0,0,,2,,,74,127
31824,note_off,241,0,0,,2,,,74,127
31824,note_off,0,0,0,,6,,,78,127
31824,note_off,0,0,0,,6,,,66,127
31825,note_on,1,0,0,,4,,,64,127
31825,note_on,0,0,0,,7,,,79,127
31825,note_on,0,0,0,,4,,,76,127
32066,note_off,241,0,0,,4,,,76,127
32066,note_off,0,0,0,,7,,,79,127
32066,note_off,0,0,0,,4,,,64,127
32066,note_off,0,0,0,,12,,,71,127
32067,note_on,1,0,0,,6,,,66,127
32067,note_on,0,0,0,,11,,,70,127
32067,note_on,0,0,0,,6,,,78,127
32067,note_on,0,0,0,,1,,,73,127
32308,note_off,241,0,0,,1,,,73,127
32308,note_off,0,0,0,,11,,,70,127
32309,note_on,1,0,0,,12,,,71,127
32309,note_on,0,0,0,,2,,,74,127
32550,note_off,241,0,0,,2,,,74,127
32550,note_off,0,0,0,,6,,,78,127
32550,note_off,0,0,0,,6,,,66,127
32551,note_on,1,0,0,,4,,,64,127
32551,note_on,0,0,0,,12,,,83,127
32551,note_on,0,0,0,,7,,,79,127
32792,note_off,241,0,0,,4,,,64,127
32792,note_off,0,0,0,,12,,,71,127
32793,note_on,1,0,0,,6,,,66,127
32914,note_off,121,0,0,,7,,,79,127
33035,note_on,121,0,0,,6,,,54,127
33155,note_off,120,0,0,,12,,,83,127
33156,note_on,1,0,0,,11,,,82,127
33215,note_off,59,0,0,,11,,,82,127
33216,note_on,1,0,0,,8,,,80,127
33275,note_off,59,0,0,,8,,,80,127
33276,note_on,1,0,0,,6,,,78,127
33517,note_off,241,0,0,,6,,,78,127
33517,note_off,0,0,0,,6,,,54,127
33517,note_off,0,0,0,,6,,,66,127
33518,note_on,1,0,0,,2,,,50,127
33518,note_on,0,0,0,,6,,,54,127
33518,note_on,0,0,0,,12,,,83,127
33638,note_off,120,0,0,,12,,,83,127
33639,note_on,1,0,0,,6,,,78,127
33759,note_off,120,0,0,,6,,,78,127
33760,note_on,1,0,0,,4,,,76,127
33880,note_off,120,0,0,,4,,,76,127
33881,note_on,1,0,0,,2,,,74,127
34001,note_off,120,0,0,,2,,,74,127
34002,note_on,1,0,0,,2,,,74,127
34243,note_off,241,0,0,,2,,,74,127
34243,note_off,0,0,0,,6,,,54,127
34243,note_off,0,0,0,,2,,,50,127
34244,note_on,1,0,0,,4,,,52,127
34244,note_on,0,0,0,,7,,,55,127
34244,note_on,0,0,0,,12,,,83,127
34364,note_off,120,0,0,,12,,,83,127
34365,note_on,1,0,0,,7,,,79,127
34485,note_off,120,0,0,,7,,,79,127
34486,note_on,1,0,0,,6,,,78,127
34606,note_off,120,0,0,,6,,,78,127
34607,note_on,1,0,0,,4,,,76,127
34727,note_off,120,0,0,,4,,,76,127
34728,note_on,1,0,0,,4,,,76,127
34969,note_off,241,0,0,,4,,,76,127
34969,note_off,0,0,0,,7,,,55,127
34969,note_off,0,0,0,,4,,,52,127
34970,note_on,1,0,0,,6,,,54,127
34970,note_on,0,0,0,,2,,,74,127
35090,note_off,120,0,0,,2,,,74,127
35091,note_on,1,0,0,,4,,,76,127
35211,note_off,120,0,0,,4,,,76,127
35212,note_on,1,0,0,,6,,,78,127
35332,note_off,120,0,0,,6,,,78,127
35333,note_on,1,0,0,,12,,,71,127
35453,note_off,120,0,0,,12,,,71,127
35454,note_on,1,0,0,,6,,,42,127
35454,note_on,0,0,0,,1,,,73,127
35574,note_off,120,0,0,,1,,,73,127
35575,note_on,1,0,0,,11,,,70,127
35695,note_off,120,0,0,,11,,,70,127
35695,note_off,0,0,0,,6,,,42,127
35695,note_off,0,0,0,,6,,,54,127
35696,note_on,1,0,0,,12,,,47,127
35696,note_on,0,0,0,,11,,,70,127
35937,note_off,241,0,0,,11,,,70,127
35938,note_on,1,0,0,,12,,,71,127
36422,note_off,484,0,0,,12,,,71,127
36422,note_off,0,0,0,,12,,,47,127
36423,note_on,1,0,0,,2,,,50,127
36423,note_on,0,0,0,,12,,,59,127
36423,note_on,0,0,0,,6,,,78,127
36543,note_off,120,0,0,,6,,,78,127
36544,note_on,1,0,0,,2,,,74,127
36664,note_off,120,0,0,,2,,,74,127
36665,note_on,1,0,0,,1,,,73,127
36785,note_off,120,0,0,,1,,,73,127
36786,note_on,1,0,0,,12,,,71,127
36906,note_off,120,0,0,,12,,,71,127
36907,note_on,1,0,0,,12,,,71,127
37148,note_off,241,0,0,,12,,,71,127
37148,note_off,0,0,0,,12,,,59,127
37148,note_off,0,0,0,,2,,,50,127
37149,note_on,1,0,0,,12,,,59,127
37149,note_on,0,0,0,,4,,,52,127
37149,note_on,0,0,0,,7,,,79,127
37269,note_off,120,0,0,,7,,,79,127
37270,note_on,1,0,0,,12,,,71,127
37390,note_off,120,0,0,,12,,,71,127
37391,note_on,1,0,0,,10,,,69,127
37511,note_off,120,0,0,,10,,,69,127
37512,note_on,1,0,0,,7,,,67,127
37632,note_off,120,0,0,,7,,,67,127
37633,note_on,1,0,0,,7,,,67,127
37874,note_off,241,0,0,,7,,,67,127
37874,note_off,0,0,0,,4,,,52,127
37874,note_off,0,0,0,,12,,,59,127
37875,note_on,1,0,0,,2,,,62,127
37875,note_on,0,0,0,,6,,,54,127
37875,note_on,0,0,0,,6,,,66,127
38116,note_off,241,0,0,,6,,,66,127
38117,note_on,1,0,0,,12,,,71,127
38358,note_off,241,0,0,,2,,,62,127
38359,note_on,1,0,0,,1,,,61,127
38420,note_off,61,0,0,,12,,,71,127
38420,note_on,0,0,0,,11,,,70,127
38479,note_off,59,0,0,,11,,,70,127
38480,note_on,1,0,0,,12,,,71,127
38539,note_off,59,0,0,,12,,,71,127
38540,note_on,1,0,0,,11,,,70,127
38599,note_off,59,0,0,,11,,,70,127
38599,note_off,0,0,0,,1,,,61,127
38599,note_off,0,0,0,,6,,,54,127
38600,note_on,1,0,0,,12,,,59,127
38600,note_on,0,0,0,,12,,,47,127
38600,note_on,0,0,0,,11,,,70,127
38841,note_off,241,0,0,,11,,,70,127
38842,note_on,1,0,0,,12,,,71,127
39326,note_off,484,0,0,,12,,,71,127
39326,note_off,0,0,0,,12,,,47,127
39326,note_off,0,0,0,,12,,,59,127
39327,note_on,1,0,0,,7,,,55,127
39570,note_on,243,0,0,,12,,,71,127
39811,note_off,241,0,0,,12,,,71,127
39812,note_on,1,0,0,,12,,,71,127
40053,note_off,241,0,0,,12,,,71,127
40053,note_off,0,0,0,,7,,,55,127
40054,note_on,1,0,0,,10,,,57,127
40054,note_on,0,0,0,,12,,,71,127
40054,note_on,0,0,0,,0,,,72,127
40295,note_off,241,0,0,,12,,,71,127
40296,note_on,1,0,0,,10,,,69,127
40416,note_off,120,0,0,,10,,,69,127
40417,note_on,1,0,0,,7,,,67,127
40537,note_off,120,0,0,,7,,,67,127
40538,note_on,1,0,0,,6,,,66,127
40658,note_off,120,0,0,,6,,,66,127
40659,note_on,1,0,0,,4,,,64,127
40779,note_off,120,0,0,,4,,,64,127
40779,note_off,0,0,0,,0,,,72,127
40779,note_off,0,0,0,,10,,,57,127
40780,note_on,1,0,0,,12,,,59,127
40780,note_on,0,0,0,,2,,,74,127
40780,note_on,0,0,0,,0,,,72,127
41021,note_off,241,0,0,,0,,,72,127
41022,note_on,1,0,0,,12,,,71,127
41142,note_off,120,0,0,,12,,,71,127
41143,note_on,1,0,0,,10,,,69,127
41263,note_off,120,0,0,,10,,,69,127
41264,note_on,1,0,0,,7,,,67,127
41384,note_off,120,0,0,,7,,,67,127
41385,note_on,1,0,0,,6,,,66,127
41505,note_off,120,0,0,,6,,,66,127
41505,note_off,0,0,0,,2,,,74,127
41505,note_off,0,0,0,,12,,,59,127
41506,note_on,1,0,0,,0,,,60,127
41506,note_on,0,0,0,,4,,,76,127
41506,note_on,0,0,0,,2,,,74,127
41747,note_off,241,0,0,,2,,,74,127
41748,note_on,1,0,0,,0,,,72,127
41868,note_off,120,0,0,,0,,,72,127
41869,note_on,1,0,0,,12,,,71,127
41989,note_off,120,0,0,,12,,,71,127
41990,note_on,1,0,0,,10,,,69,127
42110,note_off,120,0,0,,10,,,69,127
42111,note_on,1,0,0,,7,,,67,127
42231,note_off,120,0,0,,7,,,67,127
42231,note_off,0,0,0,,4,,,76,127
42231,note_off,0,0,0,,0,,,60,127
42232,note_on,1,0,0,,2,,,62,127
42232,note_on,0,0,0,,6,,,78,127
42232,note_on,0,0,0,,4,,,76,127
42473,note_off,241,0,0,,4,,,76,127
42474,note_on,1,0,0,,2,,,74,127
42594,note_off,120,0,0,,2,,,74,127
42595,note_on,1,0,0,,0,,,72,127
42715,note_off,120,0,0,,0,,,72,127
42716,note_on,1,0,0,,12,,,71,127
42836,note_off,120,0,0,,12,,,71,127
42837,note_on,1,0,0,,10,,,69,127
42957,note_off,120,0,0,,10,,,69,127
42957,note_off,0,0,0,,6,,,78,127
42957,note_off,0,0,0,,2,,,62,127
42958,note_on,1,0,0,,7,,,55,127
42958,note_on,0,0,0,,10,,,81,127
42958,note_on,0,0,0,,7,,,79,127
43199,note_off,241,0,0,,10,,,81,127
43320,note_off,121,0,0,,7,,,79,127
43321,note_on,1,0,0,,6,,,78,127
43380,note_off,59,0,0,,6,,,78,127
43381,note_on,1,0,0,,4,,,76,127
43440,note_off,59,0,0,,4,,,76,127
43441,note_on,1,0,0,,2,,,74,127
43682,note_off,241,0,0,,2,,,74,127
43682,note_off,0,0,0,,7,,,55,127
43683,note_on,1,0,0,,2,,,62,127
43683,note_on,0,0,0,,7,,,55,127
43683,note_on,0,0,0,,5,,,65,127
43683,note_on,0,0,0,,7,,,79,127
43803,note_off,120,0,0,,7,,,79,127
43804,note_on,1,0,0,,2,,,74,127
43924,note_off,120,0,0,,2,,,74,127
43925,note_on,1,0,0,,0,,,72,127
44045,note_off,120,0,0,,0,,,72,127
44046,note_on,1,0,0,,12,,,71,127
44166,note_off,120,0,0,,12,,,71,127
44167,note_on,1,0,0,,12,,,71,127
44408,note_off,241,0,0,,12,,,71,127
44408,note_off,0,0,0,,5,,,65,127
44408,note_off,0,0,0,,7,,,55,127
44408,note_off,0,0,0,,2,,,62,127
44409,note_on,1,0,0,,7,,,55,127
44409,note_on,0,0,0,,4,,,64,127
44409,note_on,0,0,0,,0,,,60,127
44409,note_on,0,0,0,,0,,,72,127
44409,note_on,0,0,0,,2,,,74,127
44591,note_off,182,0,0,,2,,,74,127
44650,note_off,59,0,0,,0,,,72,127
44651,note_on,1,0,0,,12,,,71,127
44892,note_off,241,0,0,,12,,,71,127
44893,note_on,1,0,0,,0,,,72,127
45134,note_off,241,0,0,,0,,,72,127
45134,note_off,0,0,0,,0,,,60,127
45134,note_off,0,0,0,,4,,,64,127
45134,note_off,0,0,0,,7,,,55,127
45135,note_on,1,0,0,,7,,,55,127
45135,note_on,0,0,0,,5,,,65,127
45135,note_on,0,0,0,,2,,,62,127
45135,note_on,0,0,0,,7,,,79,127
45255,note_off,120,0,0,,7,,,79,127
45256,note_on,1,0,0,,2,,,74,127
45376,note_off,120,0,0,,2,,,74,127
45377,note_on,1,0,0,,0,,,72,127
45497,note_off,120,0,0,,0,,,72,127
45498,note_on,1,0,0,,12,,,71,127
45618,note_off,120,0,0,,12,,,71,127
45619,note_on,1,0,0,,12,,,71,127
45860,note_off,241,0,0,,12,,,71,127
45860,note_off,0,0,0,,2,,,62,127
45860,note_off,0,0,0,,5,,,65,127
45860,note_off,0,0,0,,7,,,55,127
45861,note_on,1,0,0,,7,,,55,127
45861,note_on,0,0,0,,0,,,60,127
45861,note_on,0,0,0,,4,,,64,127
45861,note_on,0,0,0,,2,,,74,127
45861,note_on,0,0,0,,0,,,72,127
46043,note_off,182,0,0,,2,,,74,127
46102,note_off,59,0,0,,0,,,72,127
46103,note_on,1,0,0,,12,,,71,127
46344,note_off,241,0,0,,12,,,71,127
46345,note_on,1,0,0,,0,,,72,127
46586,note_off,241,0,0,,0,,,72,127
46586,note_off,0,0,0,,4,,,64,127
46586,note_off,0,0,0,,0,,,60,127
46586,note_off,0,0,0,,7,,,55,127
46587,note_on,1,0,0,,7,,,67,127
46587,note_on,0,0,0,,4,,,64,127
46587,note_on,0,0,0,,10,,,57,127
46587,note_on,0,0,0,,7,,,79,127
46707,note_off,120,0,0,,7,,,79,127
46708,note_on,1,0,0,,4,,,76,127
46828,note_off,120,0,0,,4,,,76,127
46829,note_on,1,0,0,,2,,,74,127
46949,note_off,120,0,0,,2,,,74,127
46950,note_on,1,0,0,,1,,,73,127
47070,note_off,120,0,0,,1,,,73,127
47071,note_on,1,0,0,,1,,,73,127
47312,note_off,241,0,0,,1,,,73,127
47312,note_off,0,0,0,,10,,,57,127
47312,note_off,0,0,0,,4,,,64,127
47312,note_off,0,0,0,,7,,,67,127
47313,note_on,1,0,0,,10,,,57,127
47313,note_on,0,0,0,,2,,,62,127
47313,note_on,0,0,0,,5,,,65,127
47313,note_on,0,0,0,,4,,,76,127
47313,note_on,0,0,0,,2,,,74,127
47495,note_off,182,0,0,,4,,,76,127
47554,note_off,59,0,0,,2,,,74,127
47555,note_on,1,0,0,,1,,,73,127
47796,note_off,241,0,0,,1,,,73,127
47797,note_on,1,0,0,,2,,,74,127
48038,note_off,241,0,0,,2,,,74,127
48038,note_off,0,0,0,,5,,,65,127
48038,note_off,0,0,0,,2,,,62,127
48038,note_off,0,0,0,,10,,,57,127
48039,note_on,1,0,0,,7,,,67,127
48039,note_on,0,0,0,,4,,,64,127
48039,note_on,0,0,0,,10,,,57,127
48039,note_on,0,0,0,,7,,,79,127
48159,note_off,120,0,0,,7,,,79,127
48160,note_on,1,0,0,,4,,,76,127
48280,note_off,120,0,0,,4,,,76,127
48281,note_on,1,0,0,,2,,,74,127
48401,note_off,120,0,0,,2,,,74,127
48402,note_on,1,0,0,,1,,,73,127
48522,note_off,120,0,0,,1,,,73,127
48523,note_on,1,0,0,,1,,,73,127
48764,note_off,241,0,0,,1,,,73,127
48764,note_off,0,0,0,,10,,,57,127
48764,note_off,0,0,0,,4,,,64,127
48764,note_off,0,0,0,,7,,,67,127
48765,note_on,1,0,0,,2,,,62,127
48765,note_on,0,0,0,,10,,,57,127
48765,note_on,0,0,0,,5,,,65,127
48765,note_on,0,0,0,,4,,,76,127
48765,note_on,0,0,0,,2,,,74,127
48947,note_off,182,0,0,,4,,,76,127
49006,note_off,59,0,0,,2,,,74,127
49007,note_on,1,0,0,,1,,,73,127
49248,note_off,241,0,0,,1,,,73,127
49249,note_on,1,0,0,,2,,,74,127
49490,note_off,241,0,0,,2,,,74,127
49490,note_off,0,0,0,,5,,,65,127
49490,note_off,0,0,0,,10,,,57,127
49490,note_off,0,0,0,,2,,,62,127
49491,note_on,1,0,0,,2,,,62,127
49491,note_on,0,0,0,,12,,,59,127
49491,note_on,0,0,0,,2,,,86,127
49611,note_off,120,0,0,,2,,,86,127
49612,note_on,1,0,0,,12,,,83,127
49732,note_off,120,0,0,,12,,,83,127
49733,note_on,1,0,0,,10,,,81,127
49853,note_off,120,0,0,,10,,,81,127
49854,note_on,1,0,0,,8,,,80,127
49974,note_off,120,0,0,,8,,,80,127
49975,note_on,1,0,0,,8,,,80,127
50216,note_off,241,0,0,,8,,,80,127
50216,note_off,0,0,0,,12,,,59,127
50216,note_off,0,0,0,,2,,,62,127
50217,note_on,1,0,0,,4,,,64,127
50217,note_on,0,0,0,,0,,,60,127
50217,note_on,0,0,0,,12,,,83,127
50217,note_on,0,0,0,,10,,,81,127
50399,note_off,182,0,0,,12,,,83,127
50458,note_off,59,0,0,,10,,,81,127
50459,note_on,1,0,0,,8,,,80,127
50700,note_off,241,0,0,,8,,,80,127
50701,note_on,1,0,0,,10,,,81,127
50942,note_off,241,0,0,,10,,,81,127
50942,note_off,0,0,0,,0,,,60,127
50942,note_off,0,0,0,,4,,,64,127
50943,note_on,1,0,0,,2,,,62,127
50943,note_on,0,0,0,,12,,,59,127
50943,note_on,0,0,0,,2,,,86,127
51063,note_off,120,0,0,,2,,,86,127
51064,note_on,1,0,0,,12,,,83,127
51184,note_off,120,0,0,,12,,,83,127
51185,note_on,1,0,0,,10,,,81,127
51305,note_off,120,0,0,,10,,,81,127
51306,note_on,1,0,0,,8,,,80,127
51426,note_off,120,0,0,,8,,,80,127
51427,note_on,1,0,0,,8,,,80,127
51668,note_off,241,0,0,,8,,,80,127
51668,note_off,0,0,0,,12,,,59,127
51668,note_off,0,0,0,,2,,,62,127
51669,note_on,1,0,0,,4,,,64,127
51669,note_on,0,0,0,,0,,,60,127
51669,note_on,0,0,0,,10,,,81,127
51669,note_on,0,0,0,,12,,,83,127
51851,note_off,182,0,0,,12,,,83,127
51910,note_off,59,0,0,,10,,,81,127
51911,note_on,1,0,0,,8,,,80,127
52152,note_off,241,0,0,,8,,,80,127
52153,note_on,1,0,0,,10,,,81,127
52394,note_off,241,0,0,,10,,,81,127
52394,note_off,0,0,0,,0,,,60,127
52394,note_off,0,0,0,,4,,,64,127
52395,note_on,1,0,0,,10,,,57,127
52395,note_on,0,0,0,,0,,,60,127
52395,note_on,0,0,0,,10,,,81,127
52515,note_off,120,0,0,,10,,,81,127
52516,note_on,1,0,0,,6,,,78,127
52636,note_off,120,0,0,,6,,,78,127
52637,note_on,1,0,0,,4,,,76,127
52757,note_off,120,0,0,,4,,,76,127
52758,note_on,1,0,0,,3,,,75,127
52878,note_off,120,0,0,,3,,,75,127
52879,note_on,1,0,0,,3,,,75,127
53120,note_off,241,0,0,,3,,,75,127
53120,note_off,0,0,0,,0,,,60,127
53120,note_off,0,0,0,,10,,,57,127
53121,note_on,1,0,0,,7,,,55,127
53121,note_on,0,0,0,,12,,,59,127
53121,note_on,0,0,0,,6,,,78,127
53121,note_on,0,0,0,,4,,,76,127
53303,note_off,182,0,0,,6,,,78,127
53362,note_off,59,0,0,,4,,,76,127
53363,note_on,1,0,0,,3,,,75,127
53604,note_off,241,0,0,,3,,,75,127
53605,note_on,1,0,0,,4,,,76,127
53846,note_off,241,0,0,,4,,,76,127
53846,note_off,0,0,0,,12,,,59,127
53846,note_off,0,0,0,,7,,,55,127
53847,note_on,1,0,0,,0,,,60,127
53847,note_on,0,0,0,,10,,,57,127
53847,note_on,0,0,0,,10,,,81,127
53967,note_off,120,0,0,,10,,,81,127
53968,note_on,1,0,0,,6,,,78,127
54088,note_off,120,0,0,,6,,,78,127
54089,note_on,1,0,0,,4,,,76,127
54209,note_off,120,0,0,,4,,,76,127
54210,note_on,1,0,0,,3,,,75,127
54330,note_off,120,0,0,,3,,,75,127
54331,note_on,1,0,0,,3,,,75,127
54572,note_off,241,0,0,,3,,,75,127
54572,note_off,0,0,0,,10,,,57,127
54572,note_off,0,0,0,,0,,,60,127
54573,note_on,1,0,0,,7,,,55,127
54573,note_on,0,0,0,,12,,,59,127
54573,note_on,0,0,0,,6,,,78,127
54573,note_on,0,0,0,,4,,,76,127
54755,note_off,182,0,0,,6,,,78,127
54814,note_off,59,0,0,,4,,,76,127
54815,note_on,1,0,0,,3,,,75,127
55056,note_off,241,0,0,,3,,,75,127
55057,note_on,1,0,0,,4,,,76,127
55298,note_off,241,0,0,,4,,,76,127
55298,note_off,0,0,0,,12,,,59,127
55298,note_off,0,0,0,,7,,,55,127
55299,note_on,1,0,0,,4,,,52,127
55299,note_on,0,0,0,,7,,,79,127
55419,note_off,120,0,0,,7,,,79,127
55420,note_on,1,0,0,,1,,,73,127
55540,note_off,120,0,0,,1,,,73,127
55541,note_on,1,0,0,,12,,,71,127
55661,note_off,120,0,0,,12,,,71,127
55662,note_on,1,0,0,,11,,,70,127
55782,note_off,120,0,0,,11,,,70,127
55783,note_on,1,0,0,,11,,,70,127
56024,note_off,241,0,0,,11,,,70,127
56024,note_off,0,0,0,,4,,,52,127
56025,note_on,1,0,0,,3,,,51,127
56025,note_on,0,0,0,,12,,,71,127
56268,note_on,243,0,0,,6,,,78,127
56509,note_off,241,0,0,,6,,,78,127
56509,note_off,0,0,0,,12,,,71,127
56509,note_off,0,0,0,,3,,,51,127
56510,note_on,1,0,0,,12,,,47,127
56510,note_on,0,0,0,,10,,,69,127
56751,note_off,241,0,0,,10,,,69,127
56751,note_off,0,0,0,,12,,,47,127
56752,note_on,1,0,0,,4,,,52,127
56752,note_on,0,0,0,,10,,,69,127
56872,note_off,120,0,0,,10,,,69,127
56873,note_on,1,0,0,,7,,,67,127
56993,note_off,120,0,0,,7,,,67,127
56993,note_off,0,0,0,,4,,,52,127
56994,note_on,1,0,0,,2,,,50,127
56994,note_on,0,0,0,,6,,,66,127
57235,note_off,241,0,0,,6,,,66,127
57235,note_off,0,0,0,,2,,,50,127
57236,note_on,1,0,0,,0,,,48,127
57236,note_on,0,0,0,,4,,,64,127
57477,note_off,241,0,0,,4,,,64,127
57477,note_off,0,0,0,,0,,,48,127
57478,note_on,1,0,0,,12,,,47,127
57478,note_on,0,0,0,,4,,,64,127
57719,note_off,241,0,0,,4,,,64,127
57720,note_on,1,0,0,,3,,,63,127
57779,note_off,59,0,0,,3,,,63,127
57780,note_on,1,0,0,,4,,,64,127
57839,note_off,59,0,0,,4,,,64,127
57840,note_on,1,0,0,,3,,,63,127
57899,note_off,59,0,0,,3,,,63,127
57900,note_on,1,0,0,,4,,,64,127
57956,note_off,56,0,0,,12,,,47,127
57960,note_off,4,0,0,,4,,,64,127
57961,note_on,1,0,0,,3,,,63,127
58202,note_off,241,0,0,,3,,,63,127
58203,note_on,1,0,0,,12,,,59,127
58203,note_on,0,0,0,,3,,,63,127
58203,note_on,0,0,0,,6,,,66,127
58203,note_on,0,0,0,,12,,,71,127
58444,note_off,241,0,0,,6,,,66,127
58444,note_off,0,0,0,,3,,,63,127
58445,note_on,1,0,0,,4,,,64,127
58445,note_on,0,0,0,,7,,,67,127
58686,note_off,241,0,0,,7,,,67,127
58686,note_off,0,0,0,,12,,,71,127
58686,note_off,0,0,0,,12,,,59,127
58687,note_on,1,0,0,,10,,,57,127
58687,note_on,0,0,0,,10,,,69,127
58687,note_on,0,0,0,,0,,,72,127
58928,note_off,241,0,0,,0,,,72,127
58928,note_off,0,0,0,,10,,,69,127
58928,note_off,0,0,0,,10,,,57,127
58928,note_off,0,0,0,,4,,,64,127
58929,note_on,1,0,0,,3,,,63,127
58929,note_on,0,0,0,,12,,,59,127
58929,note_on,0,0,0,,6,,,66,127
58929,note_on,0,0,0,,12,,,71,127
59170,note_off,241,0,0,,6,,,66,127
59170,note_off,0,0,0,,3,,,63,127
59171,note_on,1,0,0,,4,,,64,127
59171,note_on,0,0,0,,7,,,67,127
59412,note_off,241,0,0,,7,,,67,127
59412,note_off,0,0,0,,12,,,71,127
59412,note_off,0,0,0,,12,,,59,127
59413,note_on,1,0,0,,10,,,57,127
59413,note_on,0,0,0,,10,,,69,127
59413,note_on,0,0,0,,0,,,72,127
59654,note_off,241,0,0,,0,,,72,127
59654,note_off,0,0,0,,10,,,69,127
59654,note_off,0,0,0,,10,,,57,127
59654,note_off,0,0,0,,4,,,64,127
59655,note_on,1,0,0,,3,,,63,127
59655,note_on,0,0,0,,12,,,59,127
59655,note_on,0,0,0,,12,,,71,127
59655,note_on,0,0,0,,6,,,66,127
59896,note_off,241,0,0,,6,,,66,127
59896,note_off,0,0,0,,3,,,63,127
59897,note_on,1,0,0,,4,,,64,127
59897,note_on,0,0,0,,7,,,67,127
60138,note_off,241,0,0,,7,,,67,127
60138,note_off,0,0,0,,12,,,71,127
60138,note_off,0,0,0,,12,,,59,127
60139,note_on,1,0,0,,10,,,57,127
60139,note_on,0,0,0,,0,,,72,127
60139,note_on,0,0,0,,10,,,69,127
60380,note_off,241,0,0,,10,,,69,127
60380,note_off,0,0,0,,0,,,72,127
60380,note_off,0,0,0,,10,,,57,127
60380,note_off,0,0,0,,4,,,64,127
60381,note_on,1,0,0,,12,,,59,127
60381,note_on,0,0,0,,12,,,71,127
60381,note_on,0,0,0,,0,,,72,127
60622,note_off,241,0,0,,0,,,72,127
60743,note_off,121,0,0,,12,,,71,127
60744,note_on,1,0,0,,10,,,69,127
60803,note_off,59,0,0,,10,,,69,127
60804,note_on,1,0,0,,7,,,67,127
60863,note_off,59,0,0,,7,,,67,127
60864,note_on,1,0,0,,12,,,47,127
60864,note_on,0,0,0,,6,,,66,127
61105,note_off,241,0,0,,6,,,66,127
61105,note_off,0,0,0,,12,,,47,127
61105,note_off,0,0,0,,12,,,59,127
61106,note_on,1,0,0,,12,,,59,127
61106,note_on,0,0,0,,3,,,63,127
61106,note_on,0,0,0,,6,,,66,127
61106,note_on,0,0,0,,12,,,71,127
61347,note_off,241,0,0,,6,,,66,127
61347,note_off,0,0,0,,3,,,63,127
61348,note_on,1,0,0,,4,,,64,127
61348,note_on,0,0,0,,7,,,67,127
61589,note_off,241,0,0,,7,,,67,127
61589,note_off,0,0,0,,12,,,71,127
61589,note_off,0,0,0,,12,,,59,127
61590,note_on,1,0,0,,10,,,57,127
61590,note_on,0,0,0,,0,,,72,127
61590,note_on,0,0,0,,10,,,69,127
61831,note_off,241,0,0,,10,,,69,127
61831,note_off,0,0,0,,0,,,72,127
61831,note_off,0,0,0,,10,,,57,127
61831,note_off,0,0,0,,4,,,64,127
61832,note_on,1,0,0,,3,,,63,127
61832,note_on,0,0,0,,12,,,59,127
61832,note_on,0,0,0,,6,,,66,127
61832,note_on,0,0,0,,12,,,71,127
62073,note_off,241,0,0,,6,,,66,127
62073,note_off,0,0,0,,3,,,63,127
62074,note_on,1,0,0,,4,,,64,127
62074,note_on,0,0,0,,7,,,67,127
62315,note_off,241,0,0,,7,,,67,127
62315,note_off,0,0,0,,12,,,71,127
62315,note_off,0,0,0,,12,,,59,127
62316,note_on,1,0,0,,10,,,57,127
62316,note_on,0,0,0,,0,,,72,127
62316,note_on,0,0,0,,10,,,69,127
62557,note_off,241,0,0,,10,,,69,127
62557,note_off,0,0,0,,0,,,72,127
62557,note_off,0,0,0,,10,,,57,127
62557,note_off,0,0,0,,4,,,64,127
62558,note_on,1,0,0,,3,,,63,127
62558,note_on,0,0,0,,12,,,59,127
62558,note_on,0,0,0,,12,,,71,127
62558,note_on,0,0,0,,6,,,66,127
62799,note_off,241,0,0,,6,,,66,127
62799,note_off,0,0,0,,3,,,63,127
62800,note_on,1,0,0,,4,,,64,127
62800,note_on,0,0,0,,7,,,67,127
63041,note_off,241,0,0,,7,,,67,127
63041,note_off,0,0,0,,12,,,71,127
63041,note_off,0,0,0,,12,,,59,127
63042,note_on,1,0,0,,10,,,57,127
63042,note_on,0,0,0,,4,,,76,127
63042,note_on,0,0,0,,0,,,72,127
63283,note_off,241,0,0,,10,,,57,127
63283,note_off,0,0,0,,4,,,64,127
63284,note_on,1,0,0,,12,,,59,127
63405,note_off,121,0,0,,0,,,72,127
63646,note_off,241,0,0,,4,,,76,127
63647,note_on,1,0,0,,3,,,75,127
63706,note_off,59,0,0,,3,,,75,127
63707,note_on,1,0,0,,1,,,73,127
63766,note_off,59,0,0,,1,,,73,127
63766,note_off,0,0,0,,12,,,59,127
63767,note_on,1,0,0,,12,,,47,127
63767,note_on,0,0,0,,12,,,71,127
64008,note_off,241,0,0,,12,,,71,127
64008,note_off,0,0,0,,12,,,47,127
64009,note_on,1,0,0,,7,,,55,127
64009,note_on,0,0,0,,12,,,83,127
64129,note_off,120,0,0,,12,,,83,127
64130,note_on,1,0,0,,7,,,79,127
64250,note_off,120,0,0,,7,,,79,127
64251,note_on,1,0,0,,6,,,78,127
64371,note_off,120,0,0,,6,,,78,127
64372,note_on,1,0,0,,4,,,76,127
64492,note_off,120,0,0,,4,,,76,127
64493,note_on,1,0,0,,4,,,76,127
64734,note_off,241,0,0,,4,,,76,127
64734,note_off,0,0,0,,7,,,55,127
64735,note_on,1,0,0,,10,,,57,127
64735,note_on,0,0,0,,0,,,84,127
64855,note_off,120,0,0,,0,,,84,127
64856,note_on,1,0,0,,10,,,81,127
64976,note_off,120,0,0,,10,,,81,127
64977,note_on,1,0,0,,7,,,79,127
65097,note_off,120,0,0,,7,,,79,127
65098,note_on,1,0,0,,6,,,78,127
65218,note_off,120,0,0,,6,,,78,127
65219,note_on,1,0,0,,6,,,78,127
65460,note_off,241,0,0,,6,,,78,127
65460,note_off,0,0,0,,10,,,57,127
65461,note_on,1,0,0,,12,,,59,127
65461,note_on,0,0,0,,7,,,79,127
65581,note_off,120,0,0,,7,,,79,127
65582,note_on,1,0,0,,10,,,81,127
65702,note_off,120,0,0,,10,,,81,127
65703,note_on,1,0,0,,12,,,83,127
65823,note_off,120,0,0,,12,,,83,127
65824,note_on,1,0,0,,4,,,76,127
65944,note_off,120,0,0,,4,,,76,127
65945,note_on,1,0,0,,12,,,47,127
65945,note_on,0,0,0,,6,,,78,127
66065,note_off,120,0,0,,6,,,78,127
66066,note_on,1,0,0,,3,,,75,127
66186,note_off,120,0,0,,3,,,75,127
66186,note_off,0,0,0,,12,,,47,127
66186,note_off,0,0,0,,12,,,59,127
66187,note_on,1,0,0,,4,,,52,127
66187,note_on,0,0,0,,3,,,75,127
66428,note_off,241,0,0,,3,,,75,127
66429,note_on,1,0,0,,4,,,76,127
66793,note_off,364,0,0,,4,,,76,127
66913,note_off,120,0,0,,4,,,52,127
66914,note_on,1,0,0,,3,,,63,127
66914,note_on,0,0,0,,12,,,59,127
66914,note_on,0,0,0,,6,,,66,127
66914,note_on,0,0,0,,12,,,71,127
67155,note_off,241,0,0,,6,,,66,127
67155,note_off,0,0,0,,3,,,63,127
67156,note_on,1,0,0,,4,,,64,127
67156,note_on,0,0,0,,7,,,67,127
67397,note_off,241,0,0,,7,,,67,127
67397,note_off,0,0,0,,12,,,71,127
67397,note_off,0,0,0,,12,,,59,127
67398,note_on,1,0,0,,10,,,57,127
67398,note_on,0,0,0,,0,,,72,127
67398,note_on,0,0,0,,10,,,69,127
67639,note_off,241,0,0,,10,,,69,127
67639,note_off,0,0,0,,0,,,72,127
67639,note_off,0,0,0,,10,,,57,127
67639,note_off,0,0,0,,4,,,64,127
67640,note_on,1,0,0,,3,,,63,127
67640,note_on,0,0,0,,12,,,59,127
67640,note_on,0,0,0,,6,,,66,127
67640,note_on,0,0,0,,12,,,71,127
67881,note_off,241,0,0,,6,,,66,127
67881,note_off,0,0,0,,3,,,63,127
67882,note_on,1,0,0,,4,,,64,127
67882,note_on,0,0,0,,7,,,67,127
68123,note_off,241,0,0,,7,,,67,127
68123,note_off,0,0,0,,12,,,71,127
68123,note_off,0,0,0,,12,,,59,127
68124,note_on,1,0,0,,10,,,57,127
68124,note_on,0,0,0,,0,,,72,127
68124,note_on,0,0,0,,10,,,69,127
68365,note_off,241,0,0,,10,,,69,127
68365,note_off,0,0,0,,0,,,72,127
68365,note_off,0,0,0,,10,,,57,127
68365,note_off,0,0,0,,4,,,64,127
68366,note_on,1,0,0,,3,,,63,127
68366,note_on,0,0,0,,12,,,59,127
68366,note_on,0,0,0,,12,,,71,127
68366,note_on,0,0,0,,6,,,66,127
68607,note_off,241,0,0,,6,,,66,127
68607,note_off,0,0,0,,3,,,63,127
68608,note_on,1,0,0,,4,,,64,127
68608,note_on,0,0,0,,7,,,67,127
68849,note_off,241,0,0,,7,,,67,127
68849,note_off,0,0,0,,12,,,71,127
68849,note_off,0,0,0,,12,,,59,127
68850,note_on,1,0,0,,10,,,57,127
68850,note_on,0,0,0,,0,,,72,127
68850,note_on,0,0,0,,10,,,69,127
69091,note_off,241,0,0,,10,,,69,127
69091,note_off,0,0,0,,0,,,72,127
69091,note_off,0,0,0,,10,,,57,127
69091,note_off,0,0,0,,4,,,64,127
69092,note_on,1,0,0,,12,,,59,127
69092,note_on,0,0,0,,0,,,72,127
69092,note_on,0,0,0,,12,,,71,127
69333,note_off,241,0,0,,0,,,72,127
69454,note_off,121,0,0,,12,,,71,127
69455,note_on,1,0,0,,10,,,69,127
69514,note_off,59,0,0,,10,,,69,127
69515,note_on,1,0,0,,7,,,67,127
69574,note_off,59,0,0,,7,,,67,127
69575,note_on,1,0,0,,12,,,47,127
69575,note_on,0,0,0,,6,,,66,127
69816,note_off,241,0,0,,6,,,66,127
69816,note_off,0,0,0,,12,,,47,127
69816,note_off,0,0,0,,12,,,59,127
69817,note_on,1,0,0,,3,,,63,127
69817,note_on,0,0,0,,12,,,59,127
69817,note_on,0,0,0,,12,,,71,127
69817,note_on,0,0,0,,6,,,66,127
70058,note_off,241,0,0,,6,,,66,127
70058,note_off,0,0,0,,3,,,63,127
70059,note_on,1,0,0,,4,,,64,127
70059,note_on,0,0,0,,7,,,67,127
70300,note_off,241,0,0,,7,,,67,127
70300,note_off,0,0,0,,12,,,71,127
70300,note_off,0,0,0,,12,,,59,127
70301,note_on,1,0,0,,10,,,57,127
70301,note_on,0,0,0,,10,,,69,127
70301,note_on,0,0,0,,0,,,72,127
70542,note_off,241,0,0,,0,,,72,127
70542,note_off,0,0,0,,10,,,69,127
70542,note_off,0,0,0,,10,,,57,127
70542,note_off,0,0,0,,4,,,64,127
70543,note_on,1,0,0,,3,,,63,127
70543,note_on,0,0,0,,12,,,59,127
70543,note_on,0,0,0,,12,,,71,127
70543,note_on,0,0,0,,6,,,66,127
70784,note_off,241,0,0,,6,,,66,127
70784,note_off,0,0,0,,3,,,63,127
70785,note_on,1,0,0,,4,,,64,127
70785,note_on,0,0,0,,7,,,67,127
71026,note_off,241,0,0,,7,,,67,127
71026,note_off,0,0,0,,12,,,71,127
71026,note_off,0,0,0,,12,,,59,127
71027,note_on,1,0,0,,10,,,57,127
71027,note_on,0,0,0,,0,,,72,127
71027,note_on,0,0,0,,10,,,69,127
71268,note_off,241,0,0,,10,,,69,127
71268,note_off,0,0,0,,0,,,72,127
71268,note_off,0,0,0,,10,,,57,127
71268,note_off,0,0,0,,4,,,64,127
71269,note_on,1,0,0,,12,,,59,127
71269,note_on,0,0,0,,3,,,63,127
71269,note_on,0,0,0,,6,,,66,127
71269,note_on,0,0,0,,12,,,71,127
71510,note_off,241,0,0,,6,,,66,127
71510,note_off,0,0,0,,3,,,63,127
71511,note_on,1,0,0,,4,,,64,127
71511,note_on,0,0,0,,7,,,67,127
71752,note_off,241,0,0,,7,,,67,127
71752,note_off,0,0,0,,12,,,71,127
71752,note_off,0,0,0,,12,,,59,127
71753,note_on,1,0,0,,10,,,57,127
71753,note_on,0,0,0,,4,,,76,127
71753,note_on,0,0,0,,0,,,72,127
71994,note_off,241,0,0,,10,,,57,127
71994,note_off,0,0,0,,4,,,64,127
71995,note_on,1,0,0,,12,,,59,127
72116,note_off,121,0,0,,0,,,72,127
72357,note_off,241,0,0,,4,,,76,127
72358,note_on,1,0,0,,3,,,75,127
72417,note_off,59,0,0,,3,,,75,127
72418,note_on,1,0,0,,1,,,73,127
72477,note_off,59,0,0,,1,,,73,127
72478,note_on,1,0,0,,12,,,47,127
72478,note_on,0,0,0,,12,,,71,127
72719,note_off,241,0,0,,12,,,71,127
72719,note_off,0,0,0,,12,,,47,127
72719,note_off,0,0,0,,12,,,59,127
72720,note_on,1,0,0,,7,,,55,127
72720,note_on,0,0,0,,12,,,83,127
72840,note_off,120,0,0,,12,,,83,127
72841,note_on,1,0,0,,7,,,79,127
72961,note_off,120,0,0,,7,,,79,127
72962,note_on,1,0,0,,6,,,78,127
73082,note_off,120,0,0,,6,,,78,127
73083,note_on,1,0,0,,4,,,76,127
73203,note_off,120,0,0,,4,,,76,127
73204,note_on,1,0,0,,4,,,76,127
73445,note_off,241,0,0,,4,,,76,127
73445,note_off,0,0,0,,7,,,55,127
73446,note_on,1,0,0,,10,,,57,127
73446,note_on,0,0,0,,0,,,84,127
73566,note_off,120,0,0,,0,,,84,127
73567,note_on,1,0,0,,10,,,81,127
73687,note_off,120,0,0,,10,,,81,127
73688,note_on,1,0,0,,7,,,79,127
73808,note_off,120,0,0,,7,,,79,127
73809,note_on,1,0,0,,6,,,78,127
73929,note_off,120,0,0,,6,,,78,127
73930,note_on,1,0,0,,6,,,78,127
74171,note_off,241,0,0,,6,,,78,127
74171,note_off,0,0,0,,10,,,57,127
74172,note_on,1,0,0,,12,,,59,127
74172,note_on,0,0,0,,7,,,79,127
74292,note_off,120,0,0,,7,,,79,127
74293,note_on,1,0,0,,10,,,81,127
74413,note_off,120,0,0,,10,,,81,127
74414,note_on,1,0,0,,12,,,83,127
74534,note_off,120,0,0,,12,,,83,127
74535,note_on,1,0,0,,4,,,76,127
74655,note_off,120,0,0,,4,,,76,127
74656,note_on,1,0,0,,12,,,47,127
74656,note_on,0,0,0,,6,,,78,127
74776,note_off,120,0,0,,6,,,78,127
74777,note_on,1,0,0,,3,,,75,127
74897,note_off,120,0,0,,3,,,75,127
74897,note_off,0,0,0,,12,,,47,127
74897,note_off,0,0,0,,12,,,59,127
74898,note_on,1,0,0,,4,,,40,127
74898,note_on,0,0,0,,4,,,52,127
74898,note_on,0,0,0,,3,,,75,127
75139,note_off,241,0,0,,3,,,75,127
75140,note_on,1,0,0,,4,,,76,127
75624,note_off,484,0,0,,4,,,76,127
75624,note_off,0,0,0,,4,,,52,127
75624,note_off,0,0,0,,4,,,40,127
75630,note_on,6,0,0,,7,,,43,127
75630,note_on,0,0,0,,4,,,52,127
75630,note_on,0,0,0,,4,,,76,127
75750,note_off,120,0,0,,4,,,76,127
75754,note_on,4,0,0,,12,,,71,127
75874,note_off,120,0,0,,12,,,71,127
75878,note_on,4,0,0,,10,,,69,127
75998,note_off,120,0,0,,10,,,69,127
76002,note_on,4,0,0,,7,,,67,127
76122,note_off,120,0,0,,7,,,67,127
76126,note_on,4,0,0,,7,,,67,127
76363,note_off,237,0,0,,4,,,52,127
76363,note_off,0,0,0,,7,,,43,127
76368,note_off,5,0,0,,7,,,67,127
76373,note_on,5,0,0,,4,,,52,127
76373,note_on,0,0,0,,10,,,45,127
76373,note_on,0,0,0,,4,,,76,127
76493,note_off,120,0,0,,4,,,76,127
76497,note_on,4,0,0,,0,,,72,127
76617,note_off,120,0,0,,0,,,72,127
76621,note_on,4,0,0,,12,,,71,127
76741,note_off,120,0,0,,12,,,71,127
76745,note_on,4,0,0,,10,,,69,127
76865,note_off,120,0,0,,10,,,69,127
76869,note_on,4,0,0,,10,,,69,127
77106,note_off,237,0,0,,10,,,45,127
77106,note_off,0,0,0,,4,,,52,127
77111,note_off,5,0,0,,10,,,69,127
77115,note_on,4,0,0,,12,,,47,127
77115,note_on,0,0,0,,7,,,67,127
77235,note_off,120,0,0,,7,,,67,127
77239,note_on,4,0,0,,10,,,69,127
77359,note_off,120,0,0,,10,,,69,127
77363,note_on,4,0,0,,12,,,71,127
77483,note_off,120,0,0,,12,,,71,127
77487,note_on,4,0,0,,4,,,64,127
77607,note_off,120,0,0,,4,,,64,127
77611,note_on,4,0,0,,12,,,35,127
77611,note_on,0,0,0,,6,,,66,127
77731,note_off,120,0,0,,6,,,66,127
77735,note_on,4,0,0,,3,,,63,127
77849,note_off,114,0,0,,12,,,47,127
77854,note_off,5,0,0,,12,,,35,127
77855,note_off,1,0,0,,3,,,63,127
77882,note_on,27,0,0,,4,,,40,127
77882,note_on,0,0,0,,4,,,52,127
77882,note_on,0,0,0,,3,,,63,127
78659,note_off,777,0,0,,3,,,63,127
78659,note_on,0,0,0,,4,,,64,127
80347,note_off,1688,0,0,,4,,,40,127
80352,note_off,5,0,0,,4,,,52,127
80357,note_off,5,0,0,,4,,,64,127
84480,end_of_track,4123,1,0,,,,,,
