tick,type,time,meta,track,program,channel,pitch,tempo,note,velocity
0,copyright,0,1,0,,,,,,
0,program_change,0,0,0,6,0,,,,
0,pitchwheel,0,0,0,,0,0,,,
0,program_change,0,0,0,6,1,,,,
0,pitchwheel,0,0,0,,1,-590,,,
0,program_change,0,0,0,6,2,,,,
0,pitchwheel,0,0,0,,2,-272,,,
0,program_change,0,0,0,6,3,,,,
0,pitchwheel,0,0,0,,3,-353,,,
0,program_change,0,0,0,6,4,,,,
0,pitchwheel,0,0,0,,4,-560,,,
0,program_change,0,0,0,6,5,,,,
0,pitchwheel,0,0,0,,5,-80,,,
0,program_change,0,0,0,6,6,,,,
0,pitchwheel,0,0,0,,6,-625,,,
0,program_change,0,0,0,6,7,,,,
0,pitchwheel,0,0,0,,7,-130,,,
0,program_change,0,0,0,6,8,,,,
0,pitchwheel,0,0,0,,8,-512,,,
0,program_change,0,0,0,6,10,,,,
0,pitchwheel,0,0,0,,10,-464,,,
0,program_change,0,0,0,6,11,,,,
0,pitchwheel,0,0,0,,11,-208,,,
0,program_change,0,0,0,6,12,,,,
0,pitchwheel,0,0,0,,12,-553,,,
0,set_tempo,0,1,0,,,,500000,,
113,note_on,113,0,0,,12,,,47,127
226,note_on,113,0,0,,12,,,71,127
337,note_off,111,0,0,,12,,,71,127
339,note_on,2,0,0,,2,,,74,127
450,note_off,111,0,0,,2,,,74,127
452,note_on,2,0,0,,6,,,78,127
563,note_off,111,0,0,,6,,,78,127
565,note_on,2,0,0,,12,,,83,127
676,note_off,111,0,0,,12,,,47,127
678,note_on,2,0,0,,12,,,59,127
789,note_off,111,0,0,,12,,,59,127
791,note_on,2,0,0,,2,,,62,127
902,note_off,111,0,0,,2,,,62,127
904,note_on,2,0,0,,6,,,66,127
1015,note_off,111,0,0,,6,,,66,127
1017,note_on,2,0,0,,12,,,71,127
1128,note_off,111,0,0,,12,,,83,127
1130,note_on,2,0,0,,6,,,78,127
1241,note_off,111,0,0,,6,,,78,127
1243,note_on,2,0,0,,4,,,76,127
1354,note_off,111,0,0,,4,,,76,127
1356,note_on,2,0,0,,6,,,78,127
1467,note_off,111,0,0,,6,,,78,127
1467,note_off,0,0,0,,12,,,71,127
1469,note_on,2,0,0,,4,,,64,127
1469,note_on,0,0,0,,7,,,79,127
1582,note_on,113,0,0,,12,,,71,127
1693,note_off,111,0,0,,12,,,71,127
1695,note_on,2,0,0,,1,,,73,127
1806,note_off,111,0,0,,1,,,73,127
1808,note_on,2,0,0,,4,,,76,127
1916,note_off,108,0,0,,7,,,79,127
1918,note_off,2,0,0,,4,,,76,127
1918,note_off,0,0,0,,4,,,64,127
1920,note_on,2,0,0,,2,,,62,127
1920,note_on,0,0,0,,6,,,78,127
2033,note_on,113,0,0,,11,,,70,127
2144,note_off,111,0,0,,11,,,70,127
2146,note_on,2,0,0,,12,,,71,127
2257,note_off,111,0,0,,12,,,71,127
2259,note_on,2,0,0,,2,,,74,127
2367,note_off,108,0,0,,6,,,78,127
2369,note_off,2,0,0,,2,,,74,127
2369,note_off,0,0,0,,2,,,62,127
2371,note_on,2,0,0,,1,,,61,127
2371,note_on,0,0,0,,4,,,76,127
2484,note_on,113,0,0,,8,,,68,127
2595,note_off,111,0,0,,8,,,68,127
2597,note_on,2,0,0,,11,,,70,127
2708,note_off,111,0,0,,11,,,70,127
2710,note_on,2,0,0,,1,,,73,127
2818,note_off,108,0,0,,4,,,76,127
2820,note_off,2,0,0,,1,,,73,127
2820,note_off,0,0,0,,1,,,61,127
2822,note_on,2,0,0,,12,,,59,127
2822,note_on,0,0,0,,2,,,74,127
2933,note_off,111,0,0,,12,,,59,127
2935,note_on,2,0,0,,6,,,66,127
3046,note_off,111,0,0,,6,,,66,127
3048,note_on,2,0,0,,4,,,64,127
3159,note_off,111,0,0,,4,,,64,127
3161,note_on,2,0,0,,6,,,66,127
3272,note_off,111,0,0,,6,,,66,127
3274,note_on,2,0,0,,7,,,67,127
3385,note_off,111,0,0,,7,,,67,127
3387,note_on,2,0,0,,12,,,59,127
3498,note_off,111,0,0,,12,,,59,127
3498,note_off,0,0,0,,2,,,74,127
3500,note_on,2,0,0,,1,,,61,127
3500,note_on,0,0,0,,7,,,79,127
3611,note_off,111,0,0,,1,,,61,127
3613,note_on,2,0,0,,4,,,64,127
3724,note_off,111,0,0,,4,,,64,127
3726,note_on,2,0,0,,6,,,66,127
3837,note_off,111,0,0,,6,,,66,127
3839,note_on,2,0,0,,10,,,57,127
3950,note_off,111,0,0,,10,,,57,127
3950,note_off,0,0,0,,7,,,79,127
3952,note_on,2,0,0,,12,,,59,127
3952,note_on,0,0,0,,6,,,78,127
4063,note_off,111,0,0,,12,,,59,127
4065,note_on,2,0,0,,2,,,62,127
4176,note_off,111,0,0,,2,,,62,127
4178,note_on,2,0,0,,4,,,64,127
4289,note_off,111,0,0,,4,,,64,127
4291,note_on,2,0,0,,7,,,55,127
4402,note_off,111,0,0,,7,,,55,127
4402,note_off,0,0,0,,6,,,78,127
4404,note_on,2,0,0,,10,,,57,127
4404,note_on,0,0,0,,4,,,76,127
4515,note_off,111,0,0,,10,,,57,127
4517,note_on,2,0,0,,1,,,61,127
4628,note_off,111,0,0,,1,,,61,127
4630,note_on,2,0,0,,2,,,62,127
4741,note_off,111,0,0,,2,,,62,127
4743,note_on,2,0,0,,6,,,54,127
4854,note_off,111,0,0,,6,,,54,127
4854,note_off,0,0,0,,4,,,76,127
4856,note_on,2,0,0,,7,,,55,127
4856,note_on,0,0,0,,2,,,74,127
4967,note_off,111,0,0,,7,,,55,127
4969,note_on,2,0,0,,12,,,59,127
5080,note_off,111,0,0,,12,,,59,127
5082,note_on,2,0,0,,1,,,61,127
5193,note_off,111,0,0,,1,,,61,127
5195,note_on,2,0,0,,4,,,52,127
5306,note_off,111,0,0,,4,,,52,127
5306,note_off,0,0,0,,2,,,74,127
5308,note_on,2,0,0,,6,,,54,127
5308,note_on,0,0,0,,1,,,73,127
5419,note_off,111,0,0,,6,,,54,127
5421,note_on,2,0,0,,11,,,58,127
5532,note_off,111,0,0,,11,,,58,127
5532,note_off,0,0,0,,1,,,73,127
5534,note_on,2,0,0,,12,,,59,127
5647,note_on,113,0,0,,2,,,74,127
5758,note_off,111,0,0,,2,,,74,127
5760,note_on,2,0,0,,1,,,73,127
5871,note_off,111,0,0,,1,,,73,127
5873,note_on,2,0,0,,2,,,74,127
5984,note_off,111,0,0,,2,,,74,127
5984,note_off,0,0,0,,12,,,59,127
5986,note_on,2,0,0,,7,,,55,127
5986,note_on,0,0,0,,4,,,76,127
6097,note_off,111,0,0,,4,,,76,127
6099,note_on,2,0,0,,2,,,74,127
6210,note_off,111,0,0,,2,,,74,127
6212,note_on,2,0,0,,1,,,73,127
6323,note_off,111,0,0,,1,,,73,127
6325,note_on,2,0,0,,12,,,71,127
6436,note_off,111,0,0,,12,,,71,127
6436,note_off,0,0,0,,7,,,55,127
6438,note_on,2,0,0,,6,,,54,127
6438,note_on,0,0,0,,1,,,73,127
6549,note_off,111,0,0,,1,,,73,127
6551,note_on,2,0,0,,6,,,78,127
6662,note_off,111,0,0,,6,,,78,127
6664,note_on,2,0,0,,6,,,66,127
6664,note_on,0,0,0,,1,,,73,127
6775,note_off,111,0,0,,1,,,73,127
6777,note_on,2,0,0,,2,,,74,127
6885,note_off,108,0,0,,6,,,54,127
6887,note_off,2,0,0,,2,,,74,127
6887,note_off,0,0,0,,6,,,66,127
6889,note_on,2,0,0,,7,,,55,127
6889,note_on,0,0,0,,4,,,76,127
7000,note_off,111,0,0,,4,,,76,127
7002,note_on,2,0,0,,2,,,74,127
7113,note_off,111,0,0,,2,,,74,127
7115,note_on,2,0,0,,4,,,64,127
7115,note_on,0,0,0,,1,,,73,127
7226,note_off,111,0,0,,1,,,73,127
7228,note_on,2,0,0,,12,,,71,127
7336,note_off,108,0,0,,7,,,55,127
7338,note_off,2,0,0,,12,,,71,127
7338,note_off,0,0,0,,4,,,64,127
7340,note_on,2,0,0,,6,,,54,127
7340,note_on,0,0,0,,1,,,73,127
7451,note_off,111,0,0,,1,,,73,127
7453,note_on,2,0,0,,6,,,78,127
7564,note_off,111,0,0,,6,,,78,127
7566,note_on,2,0,0,,6,,,66,127
7566,note_on,0,0,0,,1,,,73,127
7677,note_off,111,0,0,,1,,,73,127
7679,note_on,2,0,0,,2,,,74,127
7787,note_off,108,0,0,,6,,,54,127
7789,note_off,2,0,0,,2,,,74,127
7789,note_off,0,0,0,,6,,,66,127
7791,note_on,2,0,0,,7,,,55,127
7791,note_on,0,0,0,,4,,,76,127
7902,note_off,111,0,0,,4,,,76,127
7904,note_on,2,0,0,,2,,,74,127
8015,note_off,111,0,0,,2,,,74,127
8017,note_on,2,0,0,,4,,,64,127
8017,note_on,0,0,0,,1,,,73,127
8128,note_off,111,0,0,,1,,,73,127
8130,note_on,2,0,0,,12,,,71,127
8238,note_off,108,0,0,,7,,,55,127
8240,note_off,2,0,0,,12,,,71,127
8240,note_off,0,0,0,,4,,,64,127
8242,note_on,2,0,0,,6,,,54,127
8242,note_on,0,0,0,,11,,,70,127
8355,note_on,113,0,0,,6,,,66,127
8466,note_off,111,0,0,,6,,,66,127
8466,note_off,0,0,0,,11,,,70,127
8468,note_on,2,0,0,,11,,,70,127
8579,note_off,111,0,0,,11,,,70,127
8581,note_on,2,0,0,,1,,,73,127
8692,note_off,111,0,0,,1,,,73,127
8692,note_off,0,0,0,,6,,,54,127
8694,note_on,2,0,0,,11,,,58,127
8694,note_on,0,0,0,,6,,,78,127
8805,note_off,111,0,0,,6,,,78,127
8807,note_on,2,0,0,,4,,,76,127
8918,note_off,111,0,0,,4,,,76,127
8920,note_on,2,0,0,,2,,,74,127
9031,note_off,111,0,0,,2,,,74,127
9033,note_on,2,0,0,,1,,,73,127
9144,note_off,111,0,0,,1,,,73,127
9144,note_off,0,0,0,,11,,,58,127
9146,note_on,2,0,0,,12,,,59,127
9146,note_on,0,0,0,,2,,,74,127
9259,note_on,113,0,0,,12,,,71,127
9370,note_off,111,0,0,,12,,,71,127
9370,note_off,0,0,0,,2,,,74,127
9372,note_on,2,0,0,,2,,,74,127
9483,note_off,111,0,0,,2,,,74,127
9485,note_on,2,0,0,,6,,,78,127
9596,note_off,111,0,0,,6,,,78,127
9596,note_off,0,0,0,,12,,,59,127
9598,note_on,2,0,0,,2,,,62,127
9598,note_on,0,0,0,,12,,,83,127
9709,note_off,111,0,0,,12,,,83,127
9711,note_on,2,0,0,,10,,,81,127
9822,note_off,111,0,0,,10,,,81,127
9824,note_on,2,0,0,,7,,,79,127
9935,note_off,111,0,0,,7,,,79,127
9937,note_on,2,0,0,,6,,,78,127
10048,note_off,111,0,0,,6,,,78,127
10048,note_off,0,0,0,,2,,,62,127
10050,note_on,2,0,0,,4,,,64,127
10050,note_on,0,0,0,,7,,,79,127
10050,note_on,0,0,0,,4,,,76,127
10161,note_off,111,0,0,,4,,,76,127
10163,note_on,2,0,0,,2,,,74,127
10274,note_off,111,0,0,,2,,,74,127
10276,note_on,2,0,0,,1,,,73,127
10387,note_off,111,0,0,,1,,,73,127
10389,note_on,2,0,0,,12,,,71,127
10497,note_off,108,0,0,,7,,,79,127
10499,note_off,2,0,0,,12,,,71,127
10499,note_off,0,0,0,,4,,,64,127
10501,note_on,2,0,0,,10,,,57,127
10501,note_on,0,0,0,,10,,,81,127
10501,note_on,0,0,0,,1,,,73,127
10612,note_off,111,0,0,,10,,,81,127
10614,note_on,2,0,0,,7,,,79,127
10725,note_off,111,0,0,,7,,,79,127
10727,note_on,2,0,0,,6,,,78,127
10838,note_off,111,0,0,,6,,,78,127
10840,note_on,2,0,0,,4,,,76,127
10948,note_off,108,0,0,,1,,,73,127
10950,note_off,2,0,0,,4,,,76,127
10950,note_off,0,0,0,,10,,,57,127
10952,note_on,2,0,0,,2,,,62,127
10952,note_on,0,0,0,,6,,,78,127
10952,note_on,0,0,0,,2,,,74,127
11063,note_off,111,0,0,,2,,,74,127
11065,note_on,2,0,0,,1,,,73,127
11176,note_off,111,0,0,,1,,,73,127
11178,note_on,2,0,0,,12,,,71,127
11289,note_off,111,0,0,,12,,,71,127
11291,note_on,2,0,0,,10,,,69,127
11399,note_off,108,0,0,,6,,,78,127
11401,note_off,2,0,0,,10,,,69,127
11401,note_off,0,0,0,,2,,,62,127
11403,note_on,2,0,0,,7,,,55,127
11403,note_on,0,0,0,,7,,,79,127
11403,note_on,0,0,0,,12,,,71,127
11514,note_off,111,0,0,,7,,,79,127
11516,note_on,2,0,0,,6,,,78,127
11627,note_off,111,0,0,,6,,,78,127
11629,note_on,2,0,0,,4,,,76,127
11740,note_off,111,0,0,,4,,,76,127
11742,note_on,2,0,0,,2,,,74,127
11850,note_off,108,0,0,,12,,,71,127
11852,note_off,2,0,0,,2,,,74,127
11852,note_off,0,0,0,,7,,,55,127
11854,note_on,2,0,0,,10,,,57,127
11854,note_on,0,0,0,,4,,,76,127
11965,note_off,111,0,0,,4,,,76,127
11967,note_on,2,0,0,,2,,,74,127
12078,note_off,111,0,0,,2,,,74,127
12080,note_on,2,0,0,,1,,,73,127
12191,note_off,111,0,0,,1,,,73,127
12193,note_on,2,0,0,,12,,,71,127
12304,note_off,111,0,0,,12,,,71,127
12304,note_off,0,0,0,,10,,,57,127
12306,note_on,2,0,0,,10,,,69,127
12419,note_on,113,0,0,,7,,,67,127
12530,note_off,111,0,0,,7,,,67,127
12532,note_on,2,0,0,,6,,,66,127
12643,note_off,111,0,0,,6,,,66,127
12645,note_on,2,0,0,,4,,,64,127
12753,note_off,108,0,0,,10,,,69,127
12755,note_off,2,0,0,,4,,,64,127
12757,note_on,2,0,0,,10,,,69,127
12757,note_on,0,0,0,,6,,,66,127
12757,note_on,0,0,0,,10,,,81,127
12868,note_off,111,0,0,,6,,,66,127
12870,note_on,2,0,0,,4,,,64,127
12981,note_off,111,0,0,,4,,,64,127
12983,note_on,2,0,0,,2,,,62,127
13094,note_off,111,0,0,,2,,,62,127
13096,note_on,2,0,0,,1,,,61,127
13204,note_off,108,0,0,,10,,,69,127
13206,note_off,2,0,0,,1,,,61,127
13206,note_off,0,0,0,,10,,,81,127
13208,note_on,2,0,0,,12,,,71,127
13208,note_on,0,0,0,,2,,,62,127
13208,note_on,0,0,0,,12,,,83,127
13319,note_off,111,0,0,,12,,,71,127
13321,note_on,2,0,0,,10,,,69,127
13432,note_off,111,0,0,,10,,,69,127
13434,note_on,2,0,0,,7,,,67,127
13545,note_off,111,0,0,,7,,,67,127
13547,note_on,2,0,0,,6,,,66,127
13655,note_off,108,0,0,,2,,,62,127
13657,note_off,2,0,0,,6,,,66,127
13657,note_off,0,0,0,,12,,,83,127
13659,note_on,2,0,0,,7,,,67,127
13659,note_on,0,0,0,,4,,,64,127
13659,note_on,0,0,0,,7,,,79,127
13770,note_off,111,0,0,,4,,,64,127
13772,note_on,2,0,0,,2,,,62,127
13883,note_off,111,0,0,,2,,,62,127
13885,note_on,2,0,0,,1,,,61,127
13996,note_off,111,0,0,,1,,,61,127
13998,note_on,2,0,0,,12,,,59,127
14106,note_off,108,0,0,,7,,,67,127
14108,note_off,2,0,0,,12,,,59,127
14108,note_off,0,0,0,,7,,,79,127
14110,note_on,2,0,0,,1,,,61,127
14110,note_on,0,0,0,,10,,,69,127
14110,note_on,0,0,0,,10,,,81,127
14221,note_off,111,0,0,,10,,,69,127
14223,note_on,2,0,0,,7,,,67,127
14334,note_off,111,0,0,,7,,,67,127
14336,note_on,2,0,0,,6,,,66,127
14447,note_off,111,0,0,,6,,,66,127
14449,note_on,2,0,0,,4,,,64,127
14557,note_off,108,0,0,,1,,,61,127
14559,note_off,2,0,0,,4,,,64,127
14559,note_off,0,0,0,,10,,,81,127
14561,note_on,2,0,0,,6,,,66,127
14561,note_on,0,0,0,,2,,,62,127
14561,note_on,0,0,0,,6,,,78,127
14672,note_off,111,0,0,,2,,,62,127
14674,note_on,2,0,0,,1,,,61,127
14785,note_off,111,0,0,,1,,,61,127
14787,note_on,2,0,0,,12,,,59,127
14898,note_off,111,0,0,,12,,,59,127
14900,note_on,2,0,0,,10,,,57,127
15008,note_off,108,0,0,,6,,,66,127
15010,note_off,2,0,0,,10,,,57,127
15010,note_off,0,0,0,,6,,,78,127
15012,note_on,2,0,0,,7,,,67,127
15012,note_on,0,0,0,,12,,,59,127
15012,note_on,0,0,0,,7,,,79,127
15123,note_off,111,0,0,,7,,,67,127
15125,note_on,2,0,0,,6,,,66,127
15236,note_off,111,0,0,,6,,,66,127
15238,note_on,2,0,0,,4,,,64,127
15349,note_off,111,0,0,,4,,,64,127
15351,note_on,2,0,0,,2,,,62,127
15459,note_off,108,0,0,,12,,,59,127
15461,note_off,2,0,0,,2,,,62,127
15461,note_off,0,0,0,,7,,,79,127
15463,note_on,2,0,0,,4,,,64,127
15463,note_on,0,0,0,,1,,,61,127
15463,note_on,0,0,0,,4,,,76,127
15574,note_off,111,0,0,,1,,,61,127
15576,note_on,2,0,0,,12,,,59,127
15687,note_off,111,0,0,,12,,,59,127
15689,note_on,2,0,0,,10,,,57,127
15800,note_off,111,0,0,,10,,,57,127
15802,note_on,2,0,0,,7,,,55,127
15910,note_off,108,0,0,,4,,,64,127
15912,note_off,2,0,0,,7,,,55,127
15912,note_off,0,0,0,,4,,,76,127
15914,note_on,2,0,0,,6,,,66,127
15914,note_on,0,0,0,,10,,,57,127
15914,note_on,0,0,0,,6,,,78,127
16025,note_off,111,0,0,,6,,,66,127
16027,note_on,2,0,0,,4,,,64,127
16138,note_off,111,0,0,,4,,,64,127
16140,note_on,2,0,0,,2,,,62,127
16251,note_off,111,0,0,,2,,,62,127
16253,note_on,2,0,0,,1,,,61,127
16361,note_off,108,0,0,,10,,,57,127
16363,note_off,2,0,0,,1,,,61,127
16363,note_off,0,0,0,,6,,,78,127
16365,note_on,2,0,0,,2,,,62,127
16365,note_on,0,0,0,,12,,,59,127
16365,note_on,0,0,0,,2,,,74,127
16476,note_off,111,0,0,,12,,,59,127
16478,note_on,2,0,0,,10,,,57,127
16589,note_off,111,0,0,,10,,,57,127
16591,note_on,2,0,0,,7,,,55,127
16702,note_off,111,0,0,,7,,,55,127
16704,note_on,2,0,0,,6,,,54,127
16812,note_off,108,0,0,,2,,,62,127
16814,note_off,2,0,0,,6,,,54,127
16814,note_off,0,0,0,,2,,,74,127
16816,note_on,2,0,0,,4,,,64,127
16816,note_on,0,0,0,,7,,,55,127
16816,note_on,0,0,0,,4,,,76,127
16927,note_off,111,0,0,,4,,,64,127
16929,note_on,2,0,0,,2,,,62,127
17040,note_off,111,0,0,,2,,,62,127
17042,note_on,2,0,0,,1,,,61,127
17153,note_off,111,0,0,,1,,,61,127
17155,note_on,2,0,0,,12,,,59,127
17263,note_off,108,0,0,,7,,,55,127
17265,note_off,2,0,0,,12,,,59,127
17265,note_off,0,0,0,,4,,,76,127
17267,note_on,2,0,0,,1,,,61,127
17267,note_on,0,0,0,,10,,,57,127
17267,note_on,0,0,0,,1,,,73,127
17378,note_off,111,0,0,,10,,,57,127
17380,note_on,2,0,0,,7,,,55,127
17491,note_off,111,0,0,,7,,,55,127
17493,note_on,2,0,0,,6,,,54,127
17604,note_off,111,0,0,,6,,,54,127
17606,note_on,2,0,0,,4,,,52,127
17714,note_off,108,0,0,,1,,,61,127
17716,note_off,2,0,0,,4,,,52,127
17716,note_off,0,0,0,,1,,,73,127
17718,note_on,2,0,0,,2,,,62,127
17718,note_on,0,0,0,,6,,,54,127
17718,note_on,0,0,0,,2,,,74,127
17829,note_off,111,0,0,,2,,,74,127
17831,note_on,2,0,0,,1,,,73,127
17942,note_off,111,0,0,,1,,,73,127
17944,note_on,2,0,0,,12,,,71,127
18055,note_off,111,0,0,,12,,,71,127
18057,note_on,2,0,0,,10,,,69,127
18168,note_off,111,0,0,,10,,,69,127
18168,note_off,0,0,0,,6,,,54,127
18168,note_off,0,0,0,,2,,,62,127
18170,note_on,2,0,0,,2,,,62,127
18170,note_on,0,0,0,,7,,,55,127
18170,note_on,0,0,0,,12,,,71,127
18394,note_off,224,0,0,,12,,,71,127
18396,note_on,2,0,0,,7,,,79,127
18507,note_off,111,0,0,,7,,,79,127
18509,note_on,2,0,0,,6,,,78,127
18620,note_off,111,0,0,,6,,,78,127
18620,note_off,0,0,0,,7,,,55,127
18620,note_off,0,0,0,,2,,,62,127
18622,note_on,2,0,0,,8,,,56,127
18622,note_on,0,0,0,,4,,,76,127
18733,note_off,111,0,0,,4,,,76,127
18735,note_on,2,0,0,,2,,,74,127
18846,note_off,111,0,0,,2,,,74,127
18848,note_on,2,0,0,,1,,,73,127
18959,note_off,111,0,0,,1,,,73,127
18961,note_on,2,0,0,,12,,,71,127
19072,note_off,111,0,0,,12,,,71,127
19072,note_off,0,0,0,,8,,,56,127
19074,note_on,2,0,0,,10,,,57,127
19074,note_on,0,0,0,,12,,,71,127
19185,note_off,111,0,0,,12,,,71,127
19187,note_on,2,0,0,,1,,,73,127
19298,note_off,111,0,0,,1,,,73,127
19300,note_on,2,0,0,,10,,,81,127
19411,note_off,111,0,0,,10,,,81,127
19413,note_on,2,0,0,,7,,,79,127
19524,note_off,111,0,0,,7,,,79,127
19524,note_off,0,0,0,,10,,,57,127
19526,note_on,2,0,0,,11,,,58,127
19526,note_on,0,0,0,,6,,,78,127
19637,note_off,111,0,0,,6,,,78,127
19639,note_on,2,0,0,,4,,,76,127
19750,note_off,111,0,0,,4,,,76,127
19752,note_on,2,0,0,,2,,,74,127
19863,note_off,111,0,0,,2,,,74,127
19865,note_on,2,0,0,,1,,,73,127
19976,note_off,111,0,0,,1,,,73,127
19976,note_off,0,0,0,,11,,,58,127
19978,note_on,2,0,0,,12,,,59,127
19978,note_on,0,0,0,,1,,,73,127
20089,note_off,111,0,0,,1,,,73,127
20091,note_on,2,0,0,,2,,,74,127
20202,note_off,111,0,0,,2,,,74,127
20204,note_on,2,0,0,,2,,,86,127
20315,note_off,111,0,0,,2,,,86,127
20317,note_on,2,0,0,,1,,,85,127
20428,note_off,111,0,0,,1,,,85,127
20428,note_off,0,0,0,,12,,,59,127
20430,note_on,2,0,0,,2,,,62,127
20430,note_on,0,0,0,,12,,,83,127
20541,note_off,111,0,0,,12,,,83,127
20543,note_on,2,0,0,,10,,,81,127
20654,note_off,111,0,0,,10,,,81,127
20656,note_on,2,0,0,,8,,,80,127
20767,note_off,111,0,0,,8,,,80,127
20769,note_on,2,0,0,,6,,,78,127
20880,note_off,111,0,0,,6,,,78,127
20880,note_off,0,0,0,,2,,,62,127
20882,note_on,2,0,0,,1,,,61,127
20882,note_on,0,0,0,,1,,,85,127
20882,note_on,0,0,0,,5,,,77,127
20993,note_off,111,0,0,,1,,,85,127
20995,note_on,2,0,0,,12,,,83,127
21106,note_off,111,0,0,,12,,,83,127
21108,note_on,2,0,0,,10,,,81,127
21219,note_off,111,0,0,,10,,,81,127
21221,note_on,2,0,0,,8,,,80,127
21329,note_off,108,0,0,,5,,,77,127
21331,note_off,2,0,0,,8,,,80,127
21331,note_off,0,0,0,,1,,,61,127
21333,note_on,2,0,0,,6,,,54,127
21333,note_on,0,0,0,,10,,,81,127
21333,note_on,0,0,0,,6,,,78,127
21444,note_off,111,0,0,,6,,,78,127
21446,note_on,2,0,0,,4,,,76,127
21557,note_off,111,0,0,,4,,,76,127
21559,note_on,2,0,0,,2,,,74,127
21670,note_off,111,0,0,,2,,,74,127
21672,note_on,2,0,0,,1,,,73,127
21780,note_off,108,0,0,,10,,,81,127
21782,note_off,2,0,0,,1,,,73,127
21782,note_off,0,0,0,,6,,,54,127
21784,note_on,2,0,0,,12,,,59,127
21784,note_on,0,0,0,,12,,,83,127
21784,note_on,0,0,0,,2,,,74,127
21895,note_off,111,0,0,,12,,,83,127
21897,note_on,2,0,0,,10,,,81,127
22008,note_off,111,0,0,,10,,,81,127
22010,note_on,2,0,0,,8,,,80,127
22121,note_off,111,0,0,,8,,,80,127
22123,note_on,2,0,0,,6,,,78,127
22231,note_off,108,0,0,,2,,,74,127
22233,note_off,2,0,0,,6,,,78,127
22233,note_off,0,0,0,,12,,,59,127
22235,note_on,2,0,0,,4,,,52,127
22235,note_on,0,0,0,,4,,,76,127
22235,note_on,0,0,0,,8,,,80,127
22346,note_off,111,0,0,,4,,,76,127
22348,note_on,2,0,0,,2,,,74,127
22459,note_off,111,0,0,,2,,,74,127
22461,note_on,2,0,0,,1,,,73,127
22572,note_off,111,0,0,,1,,,73,127
22574,note_on,2,0,0,,12,,,71,127
22682,note_off,108,0,0,,8,,,80,127
22684,note_off,2,0,0,,12,,,71,127
22684,note_off,0,0,0,,4,,,52,127
22686,note_on,2,0,0,,10,,,57,127
22686,note_on,0,0,0,,10,,,81,127
22686,note_on,0,0,0,,1,,,73,127
22797,note_off,111,0,0,,10,,,81,127
22799,note_on,2,0,0,,8,,,80,127
22910,note_off,111,0,0,,8,,,80,127
22912,note_on,2,0,0,,6,,,78,127
23023,note_off,111,0,0,,6,,,78,127
23025,note_on,2,0,0,,5,,,77,127
23133,note_off,108,0,0,,1,,,73,127
23135,note_off,2,0,0,,5,,,77,127
23135,note_off,0,0,0,,10,,,57,127
23137,note_on,2,0,0,,2,,,50,127
23137,note_on,0,0,0,,2,,,74,127
23137,note_on,0,0,0,,6,,,78,127
23248,note_off,111,0,0,,2,,,74,127
23250,note_on,2,0,0,,1,,,73,127
23361,note_off,111,0,0,,1,,,73,127
23363,note_on,2,0,0,,12,,,71,127
23474,note_off,111,0,0,,12,,,71,127
23476,note_on,2,0,0,,10,,,69,127
23584,note_off,108,0,0,,6,,,78,127
23586,note_off,2,0,0,,10,,,69,127
23586,note_off,0,0,0,,2,,,50,127
23588,note_on,2,0,0,,8,,,56,127
23588,note_on,0,0,0,,12,,,71,127
23588,note_on,0,0,0,,8,,,80,127
23699,note_off,111,0,0,,8,,,80,127
23701,note_on,2,0,0,,6,,,78,127
23812,note_off,111,0,0,,6,,,78,127
23814,note_on,2,0,0,,5,,,77,127
23925,note_off,111,0,0,,5,,,77,127
23927,note_on,2,0,0,,3,,,75,127
24035,note_off,108,0,0,,12,,,71,127
24037,note_off,2,0,0,,3,,,75,127
24037,note_off,0,0,0,,8,,,56,127
24039,note_on,2,0,0,,1,,,61,127
24039,note_on,0,0,0,,1,,,49,127
24039,note_on,0,0,0,,1,,,73,127
24039,note_on,0,0,0,,5,,,77,127
24150,note_off,111,0,0,,1,,,73,127
24152,note_on,2,0,0,,12,,,71,127
24263,note_off,111,0,0,,12,,,71,127
24265,note_on,2,0,0,,10,,,69,127
24376,note_off,111,0,0,,10,,,69,127
24378,note_on,2,0,0,,8,,,68,127
24486,note_off,108,0,0,,5,,,77,127
24488,note_off,2,0,0,,8,,,68,127
24488,note_off,0,0,0,,1,,,49,127
24488,note_off,0,0,0,,1,,,61,127
24490,note_on,2,0,0,,6,,,54,127
24490,note_on,0,0,0,,6,,,78,127
24490,note_on,0,0,0,,10,,,69,127
24601,note_off,111,0,0,,10,,,69,127
24603,note_on,2,0,0,,1,,,73,127
24714,note_off,111,0,0,,1,,,73,127
24714,note_off,0,0,0,,6,,,78,127
24716,note_on,2,0,0,,6,,,78,127
24827,note_off,111,0,0,,6,,,78,127
24829,note_on,2,0,0,,8,,,80,127
24940,note_off,111,0,0,,8,,,80,127
24940,note_off,0,0,0,,6,,,54,127
24942,note_on,2,0,0,,6,,,66,127
24942,note_on,0,0,0,,10,,,81,127
25053,note_off,111,0,0,,6,,,66,127
25055,note_on,2,0,0,,4,,,64,127
25166,note_off,111,0,0,,4,,,64,127
25168,note_on,2,0,0,,2,,,62,127
25279,note_off,111,0,0,,2,,,62,127
25281,note_on,2,0,0,,1,,,61,127
25392,note_off,111,0,0,,1,,,61,127
25392,note_off,0,0,0,,10,,,81,127
25394,note_on,2,0,0,,12,,,71,127
25394,note_on,0,0,0,,2,,,62,127
25394,note_on,0,0,0,,12,,,83,127
25505,note_off,111,0,0,,12,,,71,127
25507,note_on,2,0,0,,10,,,69,127
25618,note_off,111,0,0,,10,,,69,127
25620,note_on,2,0,0,,8,,,68,127
25731,note_off,111,0,0,,8,,,68,127
25733,note_on,2,0,0,,6,,,66,127
25841,note_off,108,0,0,,2,,,62,127
25843,note_off,2,0,0,,6,,,66,127
25843,note_off,0,0,0,,12,,,83,127
25845,note_on,2,0,0,,8,,,68,127
25845,note_on,0,0,0,,4,,,64,127
25845,note_on,0,0,0,,8,,,80,127
25956,note_off,111,0,0,,4,,,64,127
25958,note_on,2,0,0,,2,,,62,127
26069,note_off,111,0,0,,2,,,62,127
26071,note_on,2,0,0,,1,,,61,127
26182,note_off,111,0,0,,1,,,61,127
26184,note_on,2,0,0,,12,,,59,127
26292,note_off,108,0,0,,8,,,68,127
26294,note_off,2,0,0,,12,,,59,127
26294,note_off,0,0,0,,8,,,80,127
26296,note_on,2,0,0,,1,,,61,127
26296,note_on,0,0,0,,10,,,69,127
26296,note_on,0,0,0,,10,,,81,127
26407,note_off,111,0,0,,10,,,69,127
26409,note_on,2,0,0,,8,,,68,127
26520,note_off,111,0,0,,8,,,68,127
26522,note_on,2,0,0,,6,,,66,127
26633,note_off,111,0,0,,6,,,66,127
26635,note_on,2,0,0,,5,,,65,127
26743,note_off,108,0,0,,1,,,61,127
26745,note_off,2,0,0,,5,,,65,127
26745,note_off,0,0,0,,10,,,81,127
26747,note_on,2,0,0,,6,,,66,127
26747,note_on,0,0,0,,2,,,62,127
26747,note_on,0,0,0,,6,,,78,127
26858,note_off,111,0,0,,2,,,62,127
26860,note_on,2,0,0,,1,,,61,127
26971,note_off,111,0,0,,1,,,61,127
26973,note_on,2,0,0,,12,,,59,127
27084,note_off,111,0,0,,12,,,59,127
27086,note_on,2,0,0,,10,,,57,127
27194,note_off,108,0,0,,6,,,66,127
27196,note_off,2,0,0,,10,,,57,127
27196,note_off,0,0,0,,6,,,78,127
27198,note_on,2,0,0,,8,,,68,127
27198,note_on,0,0,0,,12,,,59,127
27198,note_on,0,0,0,,8,,,80,127
27309,note_off,111,0,0,,8,,,68,127
27311,note_on,2,0,0,,6,,,66,127
27422,note_off,111,0,0,,6,,,66,127
27424,note_on,2,0,0,,5,,,65,127
27535,note_off,111,0,0,,5,,,65,127
27537,note_on,2,0,0,,3,,,63,127
27645,note_off,108,0,0,,12,,,59,127
27647,note_off,2,0,0,,3,,,63,127
27647,note_off,0,0,0,,8,,,80,127
27649,note_on,2,0,0,,5,,,65,127
27649,note_on,0,0,0,,1,,,61,127
27649,note_on,0,0,0,,5,,,77,127
27760,note_off,111,0,0,,1,,,61,127
27762,note_on,2,0,0,,12,,,59,127
27873,note_off,111,0,0,,12,,,59,127
27875,note_on,2,0,0,,10,,,57,127
27986,note_off,111,0,0,,10,,,57,127
27988,note_on,2,0,0,,8,,,56,127
28096,note_off,108,0,0,,5,,,65,127
28098,note_off,2,0,0,,8,,,56,127
28098,note_off,0,0,0,,5,,,77,127
28100,note_on,2,0,0,,6,,,66,127
28100,note_on,0,0,0,,10,,,57,127
28100,note_on,0,0,0,,6,,,78,127
28211,note_off,111,0,0,,6,,,66,127
28213,note_on,2,0,0,,4,,,64,127
28324,note_off,111,0,0,,4,,,64,127
28326,note_on,2,0,0,,2,,,62,127
28437,note_off,111,0,0,,2,,,62,127
28439,note_on,2,0,0,,1,,,61,127
28547,note_off,108,0,0,,10,,,57,127
28549,note_off,2,0,0,,1,,,61,127
28549,note_off,0,0,0,,6,,,78,127
28551,note_on,2,0,0,,2,,,62,127
28551,note_on,0,0,0,,12,,,59,127
28551,note_on,0,0,0,,2,,,74,127
28662,note_off,111,0,0,,12,,,59,127
28664,note_on,2,0,0,,10,,,57,127
28775,note_off,111,0,0,,10,,,57,127
28777,note_on,2,0,0,,8,,,56,127
28888,note_off,111,0,0,,8,,,56,127
28890,note_on,2,0,0,,6,,,54,127
28998,note_off,108,0,0,,2,,,74,127
28998,note_off,0,0,0,,2,,,62,127
29000,note_off,2,0,0,,6,,,54,127
29002,note_on,2,0,0,,1,,,61,127
29002,note_on,0,0,0,,5,,,53,127
29115,note_on,113,0,0,,2,,,74,127
29226,note_off,111,0,0,,2,,,74,127
29228,note_on,2,0,0,,1,,,73,127
29339,note_off,111,0,0,,1,,,73,127
29341,note_on,2,0,0,,12,,,71,127
29452,note_off,111,0,0,,12,,,71,127
29452,note_off,0,0,0,,5,,,53,127
29452,note_off,0,0,0,,1,,,61,127
29454,note_on,2,0,0,,6,,,54,127
29454,note_on,0,0,0,,10,,,69,127
29565,note_off,111,0,0,,10,,,69,127
29567,note_on,2,0,0,,8,,,68,127
29678,note_off,111,0,0,,8,,,68,127
29678,note_off,0,0,0,,6,,,54,127
29680,note_on,2,0,0,,1,,,49,127
29680,note_on,0,0,0,,6,,,66,127
29791,note_off,111,0,0,,6,,,66,127
29793,note_on,2,0,0,,5,,,65,127
29904,note_off,111,0,0,,5,,,65,127
29904,note_off,0,0,0,,1,,,49,127
29906,note_on,2,0,0,,2,,,50,127
29906,note_on,0,0,0,,6,,,66,127
30017,note_off,111,0,0,,6,,,66,127
30019,note_on,2,0,0,,12,,,71,127
30130,note_off,111,0,0,,12,,,71,127
30132,note_on,2,0,0,,12,,,59,127
30132,note_on,0,0,0,,10,,,69,127
30243,note_off,111,0,0,,10,,,69,127
30245,note_on,2,0,0,,8,,,68,127
30353,note_off,108,0,0,,2,,,50,127
30355,note_off,2,0,0,,8,,,68,127
30355,note_off,0,0,0,,12,,,59,127
30357,note_on,2,0,0,,1,,,49,127
30357,note_on,0,0,0,,10,,,57,127
30357,note_on,0,0,0,,10,,,69,127
30468,note_off,111,0,0,,10,,,69,127
30470,note_on,2,0,0,,6,,,66,127
30581,note_off,111,0,0,,6,,,66,127
30581,note_off,0,0,0,,10,,,57,127
30583,note_on,2,0,0,,8,,,56,127
30583,note_on,0,0,0,,8,,,68,127
30694,note_off,111,0,0,,8,,,68,127
30696,note_on,2,0,0,,5,,,65,127
30804,note_off,108,0,0,,1,,,49,127
30806,note_off,2,0,0,,5,,,65,127
30806,note_off,0,0,0,,8,,,56,127
30808,note_on,2,0,0,,6,,,54,127
30808,note_on,0,0,0,,6,,,42,127
30808,note_on,0,0,0,,6,,,66,127
31032,note_off,224,0,0,,6,,,66,127
31034,note_on,2,0,0,,1,,,85,127
31145,note_off,111,0,0,,1,,,85,127
31147,note_on,2,0,0,,12,,,83,127
31258,note_off,111,0,0,,12,,,83,127
31258,note_off,0,0,0,,6,,,42,127
31258,note_off,0,0,0,,6,,,54,127
31260,note_on,2,0,0,,10,,,57,127
31260,note_on,0,0,0,,10,,,81,127
31371,note_off,111,0,0,,10,,,81,127
31373,note_on,2,0,0,,8,,,80,127
31484,note_off,111,0,0,,8,,,80,127
31486,note_on,2,0,0,,6,,,78,127
31597,note_off,111,0,0,,6,,,78,127
31599,note_on,2,0,0,,4,,,76,127
31710,note_off,111,0,0,,4,,,76,127
31710,note_off,0,0,0,,10,,,57,127
31712,note_on,2,0,0,,12,,,59,127
31712,note_on,0,0,0,,2,,,74,127
31823,note_off,111,0,0,,2,,,74,127
31825,note_on,2,0,0,,1,,,73,127
31936,note_off,111,0,0,,1,,,73,127
31938,note_on,2,0,0,,12,,,83,127
31938,note_on,0,0,0,,12,,,71,127
32049,note_off,111,0,0,,12,,,83,127
32051,note_on,2,0,0,,10,,,81,127
32162,note_off,111,0,0,,10,,,81,127
32162,note_off,0,0,0,,12,,,71,127
32162,note_off,0,0,0,,12,,,59,127
32164,note_on,2,0,0,,4,,,52,127
32164,note_on,0,0,0,,8,,,80,127
32275,note_off,111,0,0,,8,,,80,127
32277,note_on,2,0,0,,6,,,78,127
32388,note_off,111,0,0,,6,,,78,127
32390,note_on,2,0,0,,4,,,76,127
32501,note_off,111,0,0,,4,,,76,127
32503,note_on,2,0,0,,2,,,74,127
32614,note_off,111,0,0,,2,,,74,127
32614,note_off,0,0,0,,4,,,52,127
32616,note_on,2,0,0,,10,,,57,127
32616,note_on,0,0,0,,1,,,73,127
32727,note_off,111,0,0,,1,,,73,127
32729,note_on,2,0,0,,12,,,71,127
32840,note_off,111,0,0,,12,,,71,127
32842,note_on,2,0,0,,10,,,69,127
32842,note_on,0,0,0,,10,,,81,127
32953,note_off,111,0,0,,10,,,81,127
32955,note_on,2,0,0,,8,,,80,127
33066,note_off,111,0,0,,8,,,80,127
33066,note_off,0,0,0,,10,,,69,127
33066,note_off,0,0,0,,10,,,57,127
33068,note_on,2,0,0,,2,,,50,127
33068,note_on,0,0,0,,6,,,78,127
33179,note_off,111,0,0,,6,,,78,127
33181,note_on,2,0,0,,4,,,76,127
33292,note_off,111,0,0,,4,,,76,127
33294,note_on,2,0,0,,2,,,74,127
33405,note_off,111,0,0,,2,,,74,127
33407,note_on,2,0,0,,1,,,73,127
33518,note_off,111,0,0,,1,,,73,127
33518,note_off,0,0,0,,2,,,50,127
33520,note_on,2,0,0,,8,,,56,127
33520,note_on,0,0,0,,12,,,71,127
33631,note_off,111,0,0,,12,,,71,127
33633,note_on,2,0,0,,10,,,69,127
33744,note_off,111,0,0,,10,,,69,127
33746,note_on,2,0,0,,8,,,80,127
33746,note_on,0,0,0,,8,,,68,127
33857,note_off,111,0,0,,8,,,80,127
33859,note_on,2,0,0,,6,,,78,127
33970,note_off,111,0,0,,6,,,78,127
33970,note_off,0,0,0,,8,,,68,127
33970,note_off,0,0,0,,8,,,56,127
33972,note_on,2,0,0,,1,,,49,127
33972,note_on,0,0,0,,5,,,77,127
34083,note_off,111,0,0,,5,,,77,127
34085,note_on,2,0,0,,2,,,74,127
34196,note_off,111,0,0,,2,,,74,127
34198,note_on,2,0,0,,1,,,73,127
34309,note_off,111,0,0,,1,,,73,127
34311,note_on,2,0,0,,12,,,71,127
34419,note_off,108,0,0,,1,,,49,127
34421,note_off,2,0,0,,12,,,71,127
34423,note_on,2,0,0,,12,,,71,127
34647,note_off,224,0,0,,12,,,71,127
34649,note_on,2,0,0,,6,,,66,127
34649,note_on,0,0,0,,10,,,69,127
34760,note_off,111,0,0,,6,,,66,127
34762,note_on,2,0,0,,4,,,64,127
34873,note_off,111,0,0,,4,,,64,127
34875,note_on,2,0,0,,2,,,62,127
34986,note_off,111,0,0,,2,,,62,127
34988,note_on,2,0,0,,1,,,61,127
35099,note_off,111,0,0,,1,,,61,127
35099,note_off,0,0,0,,10,,,69,127
35101,note_on,2,0,0,,12,,,59,127
35101,note_on,0,0,0,,2,,,74,127
35212,note_off,111,0,0,,12,,,59,127
35214,note_on,2,0,0,,10,,,57,127
35325,note_off,111,0,0,,10,,,57,127
35327,note_on,2,0,0,,8,,,56,127
35438,note_off,111,0,0,,8,,,56,127
35440,note_on,2,0,0,,6,,,54,127
35551,note_off,111,0,0,,6,,,54,127
35551,note_off,0,0,0,,2,,,74,127
35553,note_on,2,0,0,,5,,,53,127
35553,note_on,0,0,0,,12,,,71,127
35664,note_off,111,0,0,,5,,,53,127
35666,note_on,2,0,0,,2,,,50,127
35777,note_off,111,0,0,,2,,,50,127
35779,note_on,2,0,0,,1,,,49,127
35890,note_off,111,0,0,,1,,,49,127
35892,note_on,2,0,0,,12,,,47,127
36003,note_off,111,0,0,,12,,,47,127
36003,note_off,0,0,0,,12,,,71,127
36005,note_on,2,0,0,,10,,,45,127
36005,note_on,0,0,0,,1,,,73,127
36116,note_off,111,0,0,,10,,,45,127
36118,note_on,2,0,0,,8,,,44,127
36229,note_off,111,0,0,,8,,,44,127
36231,note_on,2,0,0,,6,,,42,127
36344,note_on,113,0,0,,12,,,71,127
36455,note_off,111,0,0,,12,,,71,127
36457,note_on,2,0,0,,10,,,69,127
36568,note_off,111,0,0,,10,,,69,127
36570,note_on,2,0,0,,8,,,68,127
36681,note_off,111,0,0,,8,,,68,127
36681,note_off,0,0,0,,6,,,42,127
36682,note_off,1,0,0,,1,,,73,127
36683,note_on,1,0,0,,10,,,45,127
36683,note_on,0,0,0,,1,,,73,127
36683,note_on,0,0,0,,6,,,66,127
36794,note_off,111,0,0,,6,,,66,127
36796,note_on,2,0,0,,4,,,64,127
36907,note_off,111,0,0,,4,,,64,127
36909,note_on,2,0,0,,2,,,62,127
37020,note_off,111,0,0,,2,,,62,127
37022,note_on,2,0,0,,1,,,61,127
37133,note_off,111,0,0,,1,,,61,127
37133,note_off,0,0,0,,10,,,45,127
37135,note_on,2,0,0,,12,,,47,127
37135,note_on,0,0,0,,2,,,62,127
37246,note_off,111,0,0,,1,,,73,127
37248,note_on,2,0,0,,12,,,71,127
37359,note_off,111,0,0,,12,,,71,127
37361,note_on,2,0,0,,10,,,69,127
37472,note_off,111,0,0,,10,,,69,127
37474,note_on,2,0,0,,8,,,68,127
37582,note_off,108,0,0,,2,,,62,127
37584,note_off,2,0,0,,8,,,68,127
37584,note_off,0,0,0,,12,,,47,127
37586,note_on,2,0,0,,1,,,49,127
37586,note_on,0,0,0,,10,,,69,127
37697,note_off,111,0,0,,10,,,69,127
37699,note_on,2,0,0,,6,,,66,127
37810,note_off,111,0,0,,6,,,66,127
37812,note_on,2,0,0,,8,,,68,127
37923,note_off,111,0,0,,8,,,68,127
37925,note_on,2,0,0,,5,,,65,127
38036,note_off,111,0,0,,5,,,65,127
38036,note_off,0,0,0,,1,,,49,127
38038,note_on,2,0,0,,6,,,54,127
38038,note_on,0,0,0,,6,,,42,127
38038,note_on,0,0,0,,6,,,66,127
38262,note_off,224,0,0,,6,,,66,127
38264,note_on,2,0,0,,1,,,85,127
38375,note_off,111,0,0,,1,,,85,127
38377,note_on,2,0,0,,12,,,83,127
38488,note_off,111,0,0,,12,,,83,127
38488,note_off,0,0,0,,6,,,42,127
38488,note_off,0,0,0,,6,,,54,127
38490,note_on,2,0,0,,10,,,57,127
38490,note_on,0,0,0,,10,,,81,127
38601,note_off,111,0,0,,10,,,81,127
38603,note_on,2,0,0,,8,,,80,127
38714,note_off,111,0,0,,8,,,80,127
38716,note_on,2,0,0,,6,,,78,127
38827,note_off,111,0,0,,6,,,78,127
38829,note_on,2,0,0,,4,,,76,127
38940,note_off,111,0,0,,4,,,76,127
38940,note_off,0,0,0,,10,,,57,127
38942,note_on,2,0,0,,12,,,59,127
38942,note_on,0,0,0,,2,,,74,127
39055,note_on,113,0,0,,1,,,73,127
39166,note_off,111,0,0,,1,,,73,127
39166,note_off,0,0,0,,2,,,74,127
39168,note_on,2,0,0,,12,,,83,127
39168,note_on,0,0,0,,12,,,71,127
39279,note_off,111,0,0,,12,,,83,127
39281,note_on,2,0,0,,10,,,81,127
39392,note_off,111,0,0,,10,,,81,127
39392,note_off,0,0,0,,12,,,59,127
39394,note_on,2,0,0,,4,,,52,127
39394,note_on,0,0,0,,8,,,80,127
39505,note_off,111,0,0,,8,,,80,127
39507,note_on,2,0,0,,6,,,78,127
39618,note_off,111,0,0,,6,,,78,127
39620,note_on,2,0,0,,4,,,76,127
39731,note_off,111,0,0,,4,,,76,127
39733,note_on,2,0,0,,2,,,74,127
39844,note_off,111,0,0,,2,,,74,127
39844,note_off,0,0,0,,4,,,52,127
39845,note_off,1,0,0,,12,,,71,127
39846,note_on,1,0,0,,10,,,57,127
39846,note_on,0,0,0,,1,,,73,127
39959,note_on,113,0,0,,12,,,71,127
40070,note_off,111,0,0,,12,,,71,127
40070,note_off,0,0,0,,1,,,73,127
40072,note_on,2,0,0,,10,,,81,127
40072,note_on,0,0,0,,10,,,69,127
40183,note_off,111,0,0,,10,,,81,127
40185,note_on,2,0,0,,8,,,80,127
40296,note_off,111,0,0,,8,,,80,127
40296,note_off,0,0,0,,10,,,57,127
40298,note_on,2,0,0,,2,,,50,127
40298,note_on,0,0,0,,6,,,78,127
40409,note_off,111,0,0,,6,,,78,127
40411,note_on,2,0,0,,4,,,76,127
40522,note_off,111,0,0,,4,,,76,127
40524,note_on,2,0,0,,2,,,74,127
40635,note_off,111,0,0,,2,,,74,127
40637,note_on,2,0,0,,1,,,73,127
40748,note_off,111,0,0,,1,,,73,127
40748,note_off,0,0,0,,2,,,50,127
40749,note_off,1,0,0,,10,,,69,127
40750,note_on,1,0,0,,8,,,56,127
40750,note_on,0,0,0,,12,,,71,127
40863,note_on,113,0,0,,10,,,69,127
40974,note_off,111,0,0,,10,,,69,127
40974,note_off,0,0,0,,12,,,71,127
40976,note_on,2,0,0,,8,,,68,127
40976,note_on,0,0,0,,8,,,80,127
41087,note_off,111,0,0,,8,,,80,127
41089,note_on,2,0,0,,6,,,78,127
41200,note_off,111,0,0,,6,,,78,127
41200,note_off,0,0,0,,8,,,56,127
41202,note_on,2,0,0,,1,,,49,127
41202,note_on,0,0,0,,5,,,77,127
41313,note_off,111,0,0,,5,,,77,127
41315,note_on,2,0,0,,2,,,74,127
41426,note_off,111,0,0,,2,,,74,127
41428,note_on,2,0,0,,1,,,73,127
41539,note_off,111,0,0,,1,,,73,127
41541,note_on,2,0,0,,12,,,71,127
41652,note_off,111,0,0,,12,,,71,127
41654,note_on,2,0,0,,12,,,71,127
41878,note_off,224,0,0,,12,,,71,127
41878,note_off,0,0,0,,1,,,49,127
41879,note_off,1,0,0,,8,,,68,127
41880,note_on,1,0,0,,6,,,66,127
41880,note_on,0,0,0,,10,,,69,127
41991,note_off,111,0,0,,6,,,66,127
41993,note_on,2,0,0,,4,,,64,127
42104,note_off,111,0,0,,4,,,64,127
42106,note_on,2,0,0,,2,,,62,127
42217,note_off,111,0,0,,2,,,62,127
42219,note_off,2,0,0,,10,,,69,127
42219,note_on,0,0,0,,1,,,61,127
42330,note_off,111,0,0,,1,,,61,127
42332,note_on,2,0,0,,12,,,59,127
42332,note_on,0,0,0,,2,,,74,127
42443,note_off,111,0,0,,12,,,59,127
42445,note_on,2,0,0,,10,,,57,127
42556,note_off,111,0,0,,10,,,57,127
42558,note_on,2,0,0,,8,,,56,127
42669,note_off,111,0,0,,8,,,56,127
42671,note_on,2,0,0,,6,,,54,127
42782,note_off,111,0,0,,6,,,54,127
42782,note_off,0,0,0,,2,,,74,127
42784,note_on,2,0,0,,5,,,53,127
42784,note_on,0,0,0,,12,,,71,127
42895,note_off,111,0,0,,5,,,53,127
42897,note_on,2,0,0,,2,,,50,127
43008,note_off,111,0,0,,2,,,50,127
43010,note_on,2,0,0,,1,,,49,127
43121,note_off,111,0,0,,1,,,49,127
43123,note_on,2,0,0,,12,,,47,127
43234,note_off,111,0,0,,12,,,47,127
43234,note_off,0,0,0,,12,,,71,127
43236,note_on,2,0,0,,10,,,45,127
43236,note_on,0,0,0,,1,,,73,127
43347,note_off,111,0,0,,10,,,45,127
43349,note_on,2,0,0,,8,,,44,127
43460,note_off,111,0,0,,8,,,44,127
43462,note_on,2,0,0,,6,,,42,127
43575,note_on,113,0,0,,12,,,71,127
43686,note_off,111,0,0,,12,,,71,127
43688,note_on,2,0,0,,10,,,69,127
43799,note_off,111,0,0,,10,,,69,127
43801,note_on,2,0,0,,8,,,68,127
43912,note_off,111,0,0,,8,,,68,127
43912,note_off,0,0,0,,6,,,42,127
43913,note_off,1,0,0,,1,,,73,127
43914,note_on,1,0,0,,10,,,45,127
43914,note_on,0,0,0,,1,,,73,127
43914,note_on,0,0,0,,6,,,66,127
44025,note_off,111,0,0,,6,,,66,127
44027,note_on,2,0,0,,4,,,64,127
44138,note_off,111,0,0,,4,,,64,127
44140,note_on,2,0,0,,2,,,62,127
44251,note_off,111,0,0,,2,,,62,127
44253,note_on,2,0,0,,1,,,61,127
44364,note_off,111,0,0,,1,,,61,127
44364,note_off,0,0,0,,10,,,45,127
44366,note_on,2,0,0,,12,,,47,127
44366,note_on,0,0,0,,2,,,62,127
44477,note_off,111,0,0,,1,,,73,127
44479,note_on,2,0,0,,12,,,71,127
44590,note_off,111,0,0,,12,,,71,127
44592,note_on,2,0,0,,10,,,69,127
44703,note_off,111,0,0,,10,,,69,127
44705,note_on,2,0,0,,8,,,68,127
44813,note_off,108,0,0,,2,,,62,127
44815,note_off,2,0,0,,8,,,68,127
44815,note_off,0,0,0,,12,,,47,127
44817,note_on,2,0,0,,1,,,49,127
44817,note_on,0,0,0,,10,,,69,127
44928,note_off,111,0,0,,10,,,69,127
44930,note_on,2,0,0,,6,,,66,127
45041,note_off,111,0,0,,6,,,66,127
45043,note_on,2,0,0,,8,,,68,127
45154,note_off,111,0,0,,8,,,68,127
45156,note_on,2,0,0,,5,,,65,127
45267,note_off,111,0,0,,5,,,65,127
45267,note_off,0,0,0,,1,,,49,127
45269,note_on,2,0,0,,6,,,54,127
45269,note_on,0,0,0,,6,,,66,127
45493,note_off,224,0,0,,6,,,66,127
45495,note_on,2,0,0,,8,,,80,127
45549,note_off,54,0,0,,8,,,80,127
45551,note_on,2,0,0,,6,,,78,127
45605,note_off,54,0,0,,6,,,78,127
45607,note_on,2,0,0,,8,,,80,127
45661,note_off,54,0,0,,8,,,80,127
45663,note_on,2,0,0,,6,,,78,127
45717,note_off,54,0,0,,6,,,54,127
45719,note_on,2,0,0,,2,,,50,127
45943,note_off,224,0,0,,6,,,78,127
45945,note_on,2,0,0,,8,,,80,127
45999,note_off,54,0,0,,8,,,80,127
46001,note_on,2,0,0,,6,,,78,127
46055,note_off,54,0,0,,6,,,78,127
46057,note_on,2,0,0,,8,,,80,127
46111,note_off,54,0,0,,8,,,80,127
46113,note_on,2,0,0,,6,,,78,127
46167,note_off,54,0,0,,2,,,50,127
46169,note_on,2,0,0,,12,,,47,127
46280,note_off,111,0,0,,6,,,78,127
46282,note_on,2,0,0,,10,,,81,127
46393,note_off,111,0,0,,10,,,81,127
46395,note_on,2,0,0,,2,,,86,127
46506,note_off,111,0,0,,2,,,86,127
46508,note_on,2,0,0,,12,,,83,127
46619,note_off,111,0,0,,12,,,83,127
46619,note_off,0,0,0,,12,,,47,127
46621,note_on,2,0,0,,1,,,49,127
46621,note_on,0,0,0,,1,,,85,127
46621,note_on,0,0,0,,12,,,83,127
46732,note_off,111,0,0,,12,,,83,127
46732,note_off,0,0,0,,1,,,85,127
46734,note_on,2,0,0,,10,,,81,127
46845,note_off,111,0,0,,10,,,81,127
46847,note_on,2,0,0,,12,,,83,127
46847,note_on,0,0,0,,10,,,81,127
46958,note_off,111,0,0,,10,,,81,127
46958,note_off,0,0,0,,12,,,83,127
46960,note_on,2,0,0,,8,,,80,127
47071,note_off,111,0,0,,8,,,80,127
47071,note_off,0,0,0,,1,,,49,127
47073,note_on,2,0,0,,6,,,54,127
47073,note_on,0,0,0,,10,,,81,127
47297,note_off,224,0,0,,10,,,81,127
47299,note_on,2,0,0,,8,,,80,127
47353,note_off,54,0,0,,8,,,80,127
47355,note_on,2,0,0,,6,,,78,127
47409,note_off,54,0,0,,6,,,78,127
47411,note_on,2,0,0,,8,,,80,127
47465,note_off,54,0,0,,8,,,80,127
47467,note_on,2,0,0,,6,,,78,127
47521,note_off,54,0,0,,6,,,54,127
47523,note_on,2,0,0,,2,,,50,127
47747,note_off,224,0,0,,6,,,78,127
47749,note_on,2,0,0,,8,,,80,127
47803,note_off,54,0,0,,8,,,80,127
47805,note_on,2,0,0,,6,,,78,127
47859,note_off,54,0,0,,6,,,78,127
47861,note_on,2,0,0,,8,,,80,127
47915,note_off,54,0,0,,8,,,80,127
47917,note_on,2,0,0,,6,,,78,127
47971,note_off,54,0,0,,2,,,50,127
47973,note_on,2,0,0,,12,,,47,127
48084,note_off,111,0,0,,6,,,78,127
48086,note_on,2,0,0,,8,,,80,127
48197,note_off,111,0,0,,8,,,80,127
48199,note_on,2,0,0,,10,,,81,127
48310,note_off,111,0,0,,10,,,81,127
48312,note_on,2,0,0,,12,,,83,127
48423,note_off,111,0,0,,12,,,83,127
48423,note_off,0,0,0,,12,,,47,127
48425,note_on,2,0,0,,1,,,49,127
48425,note_on,0,0,0,,12,,,83,127
48425,note_on,0,0,0,,10,,,81,127
48536,note_off,111,0,0,,10,,,81,127
48536,note_off,0,0,0,,12,,,83,127
48538,note_on,2,0,0,,8,,,80,127
48649,note_off,111,0,0,,8,,,80,127
48651,note_on,2,0,0,,6,,,78,127
48762,note_off,111,0,0,,6,,,78,127
48764,note_on,2,0,0,,5,,,77,127
48875,note_off,111,0,0,,5,,,77,127
48875,note_off,0,0,0,,1,,,49,127
48877,note_on,2,0,0,,6,,,54,127
48877,note_on,0,0,0,,6,,,42,127
48877,note_on,0,0,0,,6,,,78,127
49101,note_off,224,0,0,,6,,,78,127
49103,note_on,2,0,0,,8,,,68,127
49157,note_off,54,0,0,,8,,,68,127
49159,note_on,2,0,0,,6,,,66,127
49213,note_off,54,0,0,,6,,,66,127
49215,note_on,2,0,0,,8,,,68,127
49269,note_off,54,0,0,,8,,,68,127
49271,note_on,2,0,0,,6,,,66,127
49325,note_off,54,0,0,,6,,,42,127
49325,note_off,0,0,0,,6,,,54,127
49327,note_on,2,0,0,,2,,,50,127
49551,note_off,224,0,0,,6,,,66,127
49553,note_on,2,0,0,,8,,,68,127
49607,note_off,54,0,0,,8,,,68,127
49609,note_on,2,0,0,,6,,,66,127
49663,note_off,54,0,0,,6,,,66,127
49665,note_on,2,0,0,,8,,,68,127
49719,note_off,54,0,0,,8,,,68,127
49721,note_on,2,0,0,,6,,,66,127
49775,note_off,54,0,0,,2,,,50,127
49777,note_on,2,0,0,,12,,,47,127
49888,note_off,111,0,0,,6,,,66,127
49890,note_on,2,0,0,,1,,,73,127
50001,note_off,111,0,0,,1,,,73,127
50003,note_on,2,0,0,,2,,,74,127
50114,note_off,111,0,0,,2,,,74,127
50116,note_on,2,0,0,,12,,,71,127
50227,note_off,111,0,0,,12,,,71,127
50227,note_off,0,0,0,,12,,,47,127
50229,note_on,2,0,0,,1,,,49,127
50229,note_on,0,0,0,,1,,,73,127
50229,note_on,0,0,0,,12,,,71,127
50340,note_off,111,0,0,,12,,,71,127
50340,note_off,0,0,0,,1,,,73,127
50342,note_on,2,0,0,,10,,,69,127
50453,note_off,111,0,0,,10,,,69,127
50455,note_on,2,0,0,,12,,,71,127
50455,note_on,0,0,0,,10,,,69,127
50566,note_off,111,0,0,,10,,,69,127
50566,note_off,0,0,0,,12,,,71,127
50568,note_on,2,0,0,,8,,,68,127
50679,note_off,111,0,0,,8,,,68,127
50679,note_off,0,0,0,,1,,,49,127
50681,note_on,2,0,0,,6,,,54,127
50681,note_on,0,0,0,,10,,,69,127
50905,note_off,224,0,0,,10,,,69,127
50907,note_on,2,0,0,,8,,,68,127
50961,note_off,54,0,0,,8,,,68,127
50963,note_on,2,0,0,,6,,,66,127
51017,note_off,54,0,0,,6,,,66,127
51019,note_on,2,0,0,,8,,,68,127
51073,note_off,54,0,0,,8,,,68,127
51075,note_on,2,0,0,,6,,,66,127
51129,note_off,54,0,0,,6,,,54,127
51131,note_on,2,0,0,,2,,,50,127
51355,note_off,224,0,0,,6,,,66,127
51357,note_on,2,0,0,,8,,,68,127
51411,note_off,54,0,0,,8,,,68,127
51413,note_on,2,0,0,,6,,,66,127
51467,note_off,54,0,0,,6,,,66,127
51469,note_on,2,0,0,,8,,,68,127
51523,note_off,54,0,0,,8,,,68,127
51525,note_on,2,0,0,,6,,,66,127
51579,note_off,54,0,0,,2,,,50,127
51581,note_on,2,0,0,,12,,,47,127
51692,note_off,111,0,0,,6,,,66,127
51694,note_on,2,0,0,,8,,,68,127
51805,note_off,111,0,0,,8,,,68,127
51807,note_on,2,0,0,,10,,,69,127
51918,note_off,111,0,0,,10,,,69,127
51920,note_on,2,0,0,,12,,,71,127
52031,note_off,111,0,0,,12,,,71,127
52031,note_off,0,0,0,,12,,,47,127
52033,note_on,2,0,0,,1,,,49,127
52033,note_on,0,0,0,,12,,,71,127
52033,note_on,0,0,0,,10,,,69,127
52144,note_off,111,0,0,,10,,,69,127
52144,note_off,0,0,0,,12,,,71,127
52146,note_on,2,0,0,,8,,,68,127
52257,note_off,111,0,0,,8,,,68,127
52259,note_on,2,0,0,,6,,,66,127
52370,note_off,111,0,0,,6,,,66,127
52372,note_on,2,0,0,,5,,,65,127
52483,note_off,111,0,0,,5,,,65,127
52483,note_off,0,0,0,,1,,,49,127
52485,note_on,2,0,0,,6,,,54,127
52485,note_on,0,0,0,,6,,,42,127
52485,note_on,0,0,0,,6,,,66,127
53386,note_off,901,0,0,,6,,,42,127
53386,note_off,0,0,0,,6,,,54,127
53388,note_on,2,0,0,,6,,,54,127
53388,note_on,0,0,0,,6,,,42,127
53499,note_off,111,0,0,,6,,,66,127
53501,note_on,2,0,0,,6,,,66,127
53612,note_off,111,0,0,,6,,,66,127
53614,note_on,2,0,0,,11,,,70,127
53725,note_off,111,0,0,,11,,,70,127
53727,note_on,2,0,0,,1,,,73,127
53838,note_off,111,0,0,,1,,,73,127
53840,note_on,2,0,0,,6,,,78,127
53951,note_off,111,0,0,,6,,,42,127
53951,note_off,0,0,0,,6,,,54,127
53953,note_on,2,0,0,,6,,,54,127
54064,note_off,111,0,0,,6,,,54,127
54066,note_on,2,0,0,,11,,,58,127
54177,note_off,111,0,0,,11,,,58,127
54179,note_on,2,0,0,,1,,,61,127
54290,note_off,111,0,0,,1,,,61,127
54292,note_on,2,0,0,,6,,,66,127
54403,note_off,111,0,0,,6,,,78,127
54405,note_on,2,0,0,,1,,,73,127
54516,note_off,111,0,0,,1,,,73,127
54518,note_on,2,0,0,,2,,,74,127
54629,note_off,111,0,0,,2,,,74,127
54631,note_on,2,0,0,,1,,,73,127
54742,note_off,111,0,0,,1,,,73,127
54744,note_on,2,0,0,,12,,,59,127
54744,note_on,0,0,0,,4,,,76,127
54855,note_off,111,0,0,,4,,,76,127
54857,note_on,2,0,0,,2,,,74,127
54968,note_off,111,0,0,,2,,,74,127
54969,note_off,1,0,0,,6,,,66,127
54970,note_on,1,0,0,,7,,,67,127
54970,note_on,0,0,0,,1,,,73,127
55081,note_off,111,0,0,,1,,,73,127
55083,note_on,2,0,0,,12,,,71,127
55191,note_off,108,0,0,,12,,,59,127
55193,note_off,2,0,0,,12,,,71,127
55195,note_on,2,0,0,,11,,,58,127
55195,note_on,0,0,0,,2,,,74,127
55306,note_off,111,0,0,,2,,,74,127
55308,note_on,2,0,0,,1,,,73,127
55416,note_off,108,0,0,,7,,,67,127
55418,note_off,2,0,0,,1,,,73,127
55420,note_on,2,0,0,,6,,,66,127
55420,note_on,0,0,0,,12,,,71,127
55531,note_off,111,0,0,,12,,,71,127
55533,note_on,2,0,0,,1,,,73,127
55641,note_off,108,0,0,,11,,,58,127
55643,note_off,2,0,0,,1,,,73,127
55645,note_on,2,0,0,,12,,,59,127
55645,note_on,0,0,0,,4,,,76,127
55756,note_off,111,0,0,,4,,,76,127
55758,note_on,2,0,0,,2,,,74,127
55866,note_off,108,0,0,,6,,,66,127
55868,note_off,2,0,0,,2,,,74,127
55870,note_on,2,0,0,,7,,,67,127
55870,note_on,0,0,0,,1,,,73,127
55981,note_off,111,0,0,,1,,,73,127
55983,note_on,2,0,0,,12,,,71,127
56091,note_off,108,0,0,,12,,,59,127
56093,note_off,2,0,0,,12,,,71,127
56095,note_on,2,0,0,,11,,,58,127
56095,note_on,0,0,0,,2,,,74,127
56206,note_off,111,0,0,,2,,,74,127
56208,note_on,2,0,0,,1,,,73,127
56316,note_off,108,0,0,,7,,,67,127
56318,note_off,2,0,0,,1,,,73,127
56320,note_on,2,0,0,,6,,,66,127
56320,note_on,0,0,0,,12,,,71,127
56431,note_off,111,0,0,,12,,,71,127
56433,note_on,2,0,0,,1,,,73,127
56541,note_off,108,0,0,,11,,,58,127
56543,note_off,2,0,0,,1,,,73,127
56545,note_on,2,0,0,,12,,,59,127
56545,note_on,0,0,0,,4,,,76,127
56656,note_off,111,0,0,,4,,,76,127
56658,note_on,2,0,0,,2,,,74,127
56766,note_off,108,0,0,,6,,,66,127
56768,note_off,2,0,0,,2,,,74,127
56768,note_off,0,0,0,,12,,,59,127
56770,note_on,2,0,0,,7,,,55,127
56770,note_on,0,0,0,,1,,,73,127
56881,note_off,111,0,0,,1,,,73,127
56883,note_on,2,0,0,,12,,,71,127
56994,note_off,111,0,0,,12,,,71,127
56994,note_off,0,0,0,,7,,,55,127
56996,note_on,2,0,0,,6,,,54,127
56996,note_on,0,0,0,,11,,,70,127
57109,note_on,113,0,0,,6,,,66,127
57220,note_off,111,0,0,,6,,,66,127
57220,note_off,0,0,0,,11,,,70,127
57222,note_on,2,0,0,,11,,,70,127
57333,note_off,111,0,0,,11,,,70,127
57335,note_on,2,0,0,,1,,,73,127
57446,note_off,111,0,0,,1,,,73,127
57446,note_off,0,0,0,,6,,,54,127
57448,note_on,2,0,0,,11,,,58,127
57448,note_on,0,0,0,,6,,,78,127
57559,note_off,111,0,0,,6,,,78,127
57561,note_on,2,0,0,,4,,,76,127
57672,note_off,111,0,0,,4,,,76,127
57674,note_on,2,0,0,,2,,,74,127
57785,note_off,111,0,0,,2,,,74,127
57787,note_on,2,0,0,,1,,,73,127
57898,note_off,111,0,0,,1,,,73,127
57898,note_off,0,0,0,,11,,,58,127
57900,note_on,2,0,0,,12,,,59,127
57900,note_on,0,0,0,,2,,,74,127
58013,note_on,113,0,0,,12,,,71,127
58124,note_off,111,0,0,,12,,,71,127
58124,note_off,0,0,0,,2,,,74,127
58126,note_on,2,0,0,,2,,,74,127
58237,note_off,111,0,0,,2,,,74,127
58239,note_on,2,0,0,,6,,,78,127
58350,note_off,111,0,0,,6,,,78,127
58350,note_off,0,0,0,,12,,,59,127
58352,note_on,2,0,0,,2,,,62,127
58352,note_on,0,0,0,,12,,,83,127
58463,note_off,111,0,0,,12,,,83,127
58465,note_on,2,0,0,,10,,,81,127
58576,note_off,111,0,0,,10,,,81,127
58578,note_on,2,0,0,,7,,,79,127
58689,note_off,111,0,0,,7,,,79,127
58691,note_on,2,0,0,,6,,,78,127
58802,note_off,111,0,0,,6,,,78,127
58802,note_off,0,0,0,,2,,,62,127
58804,note_on,2,0,0,,4,,,64,127
58804,note_on,0,0,0,,7,,,79,127
58804,note_on,0,0,0,,4,,,76,127
58915,note_off,111,0,0,,4,,,76,127
58917,note_on,2,0,0,,2,,,74,127
59028,note_off,111,0,0,,2,,,74,127
59030,note_on,2,0,0,,1,,,73,127
59141,note_off,111,0,0,,1,,,73,127
59143,note_on,2,0,0,,12,,,71,127
59251,note_off,108,0,0,,7,,,79,127
59253,note_off,2,0,0,,12,,,71,127
59253,note_off,0,0,0,,4,,,64,127
59255,note_on,2,0,0,,10,,,57,127
59255,note_on,0,0,0,,10,,,81,127
59255,note_on,0,0,0,,1,,,73,127
59366,note_off,111,0,0,,10,,,81,127
59368,note_on,2,0,0,,7,,,79,127
59479,note_off,111,0,0,,7,,,79,127
59481,note_on,2,0,0,,6,,,78,127
59592,note_off,111,0,0,,6,,,78,127
59594,note_on,2,0,0,,4,,,76,127
59702,note_off,108,0,0,,1,,,73,127
59704,note_off,2,0,0,,4,,,76,127
59704,note_off,0,0,0,,10,,,57,127
59706,note_on,2,0,0,,2,,,62,127
59706,note_on,0,0,0,,2,,,74,127
59706,note_on,0,0,0,,6,,,78,127
59817,note_off,111,0,0,,2,,,74,127
59819,note_on,2,0,0,,1,,,73,127
59930,note_off,111,0,0,,1,,,73,127
59932,note_on,2,0,0,,12,,,71,127
60043,note_off,111,0,0,,12,,,71,127
60045,note_on,2,0,0,,10,,,69,127
60153,note_off,108,0,0,,6,,,78,127
60155,note_off,2,0,0,,10,,,69,127
60155,note_off,0,0,0,,2,,,62,127
60157,note_on,2,0,0,,7,,,55,127
60157,note_on,0,0,0,,7,,,79,127
60157,note_on,0,0,0,,12,,,71,127
60268,note_off,111,0,0,,7,,,79,127
60270,note_on,2,0,0,,6,,,78,127
60381,note_off,111,0,0,,6,,,78,127
60383,note_on,2,0,0,,4,,,76,127
60494,note_off,111,0,0,,4,,,76,127
60496,note_on,2,0,0,,2,,,74,127
60604,note_off,108,0,0,,12,,,71,127
60606,note_off,2,0,0,,2,,,74,127
60606,note_off,0,0,0,,7,,,55,127
60608,note_on,2,0,0,,10,,,57,127
60608,note_on,0,0,0,,4,,,76,127
60719,note_off,111,0,0,,4,,,76,127
60721,note_on,2,0,0,,2,,,74,127
60832,note_off,111,0,0,,2,,,74,127
60834,note_on,2,0,0,,1,,,73,127
60945,note_off,111,0,0,,1,,,73,127
60947,note_on,2,0,0,,12,,,71,127
61058,note_off,111,0,0,,12,,,71,127
61058,note_off,0,0,0,,10,,,57,127
61060,note_on,2,0,0,,10,,,69,127
61173,note_on,113,0,0,,7,,,67,127
61284,note_off,111,0,0,,7,,,67,127
61286,note_on,2,0,0,,6,,,66,127
61397,note_off,111,0,0,,6,,,66,127
61399,note_on,2,0,0,,4,,,64,127
61507,note_off,108,0,0,,10,,,69,127
61509,note_off,2,0,0,,4,,,64,127
61511,note_on,2,0,0,,6,,,66,127
61511,note_on,0,0,0,,2,,,62,127
61511,note_on,0,0,0,,6,,,78,127
61622,note_off,111,0,0,,2,,,62,127
61624,note_on,2,0,0,,1,,,61,127
61735,note_off,111,0,0,,1,,,61,127
61737,note_on,2,0,0,,12,,,59,127
61848,note_off,111,0,0,,12,,,59,127
61850,note_on,2,0,0,,10,,,57,127
61958,note_off,108,0,0,,6,,,66,127
61960,note_off,2,0,0,,10,,,57,127
61960,note_off,0,0,0,,6,,,78,127
61962,note_on,2,0,0,,7,,,67,127
61962,note_on,0,0,0,,7,,,55,127
61962,note_on,0,0,0,,7,,,79,127
62073,note_off,111,0,0,,7,,,67,127
62075,note_on,2,0,0,,6,,,66,127
62186,note_off,111,0,0,,6,,,66,127
62188,note_on,2,0,0,,4,,,64,127
62299,note_off,111,0,0,,4,,,64,127
62301,note_on,2,0,0,,2,,,62,127
62409,note_off,108,0,0,,7,,,55,127
62411,note_off,2,0,0,,2,,,62,127
62411,note_off,0,0,0,,7,,,79,127
62413,note_on,2,0,0,,4,,,64,127
62413,note_on,0,0,0,,1,,,61,127
62413,note_on,0,0,0,,4,,,76,127
62524,note_off,111,0,0,,1,,,61,127
62526,note_on,2,0,0,,12,,,59,127
62637,note_off,111,0,0,,12,,,59,127
62639,note_on,2,0,0,,10,,,57,127
62750,note_off,111,0,0,,10,,,57,127
62752,note_on,2,0,0,,7,,,55,127
62860,note_off,108,0,0,,4,,,64,127
62862,note_off,2,0,0,,7,,,55,127
62862,note_off,0,0,0,,4,,,76,127
62864,note_on,2,0,0,,10,,,57,127
62864,note_on,0,0,0,,6,,,66,127
62864,note_on,0,0,0,,6,,,78,127
62975,note_off,111,0,0,,6,,,66,127
62977,note_on,2,0,0,,4,,,64,127
63088,note_off,111,0,0,,4,,,64,127
63090,note_on,2,0,0,,2,,,62,127
63201,note_off,111,0,0,,2,,,62,127
63203,note_on,2,0,0,,1,,,61,127
63311,note_off,108,0,0,,10,,,57,127
63313,note_off,2,0,0,,1,,,61,127
63313,note_off,0,0,0,,6,,,78,127
63315,note_on,2,0,0,,2,,,62,127
63315,note_on,0,0,0,,12,,,59,127
63315,note_on,0,0,0,,2,,,74,127
63426,note_off,111,0,0,,12,,,59,127
63428,note_on,2,0,0,,10,,,57,127
63539,note_off,111,0,0,,10,,,57,127
63541,note_on,2,0,0,,7,,,55,127
63652,note_off,111,0,0,,7,,,55,127
63654,note_on,2,0,0,,6,,,54,127
63762,note_off,108,0,0,,2,,,62,127
63764,note_off,2,0,0,,6,,,54,127
63764,note_off,0,0,0,,2,,,74,127
63766,note_on,2,0,0,,4,,,64,127
63766,note_on,0,0,0,,7,,,55,127
63766,note_on,0,0,0,,4,,,76,127
63877,note_off,111,0,0,,4,,,64,127
63879,note_on,2,0,0,,2,,,62,127
63990,note_off,111,0,0,,2,,,62,127
63992,note_on,2,0,0,,1,,,61,127
64103,note_off,111,0,0,,1,,,61,127
64105,note_on,2,0,0,,12,,,59,127
64213,note_off,108,0,0,,7,,,55,127
64215,note_off,2,0,0,,12,,,59,127
64215,note_off,0,0,0,,4,,,76,127
64217,note_on,2,0,0,,1,,,61,127
64217,note_on,0,0,0,,10,,,57,127
64217,note_on,0,0,0,,1,,,73,127
64328,note_off,111,0,0,,10,,,57,127
64330,note_on,2,0,0,,7,,,55,127
64441,note_off,111,0,0,,7,,,55,127
64443,note_on,2,0,0,,6,,,54,127
64554,note_off,111,0,0,,6,,,54,127
64556,note_on,2,0,0,,4,,,52,127
64664,note_off,108,0,0,,1,,,61,127
64666,note_off,2,0,0,,4,,,52,127
64666,note_off,0,0,0,,1,,,73,127
64668,note_on,2,0,0,,6,,,54,127
64668,note_on,0,0,0,,2,,,62,127
64668,note_on,0,0,0,,2,,,74,127
64779,note_off,111,0,0,,2,,,74,127
64781,note_on,2,0,0,,1,,,73,127
64892,note_off,111,0,0,,1,,,73,127
64894,note_on,2,0,0,,12,,,71,127
65005,note_off,111,0,0,,12,,,71,127
65007,note_on,2,0,0,,10,,,69,127
65118,note_off,111,0,0,,10,,,69,127
65118,note_off,0,0,0,,2,,,62,127
65118,note_off,0,0,0,,6,,,54,127
65120,note_on,2,0,0,,2,,,62,127
65120,note_on,0,0,0,,7,,,55,127
65120,note_on,0,0,0,,12,,,71,127
65231,note_off,111,0,0,,12,,,71,127
65233,note_on,2,0,0,,2,,,74,127
65344,note_off,111,0,0,,2,,,74,127
65346,note_on,2,0,0,,4,,,76,127
65457,note_off,111,0,0,,4,,,76,127
65459,note_on,2,0,0,,6,,,78,127
65570,note_off,111,0,0,,6,,,78,127
65570,note_off,0,0,0,,7,,,55,127
65570,note_off,0,0,0,,2,,,62,127
65572,note_on,2,0,0,,8,,,56,127
65572,note_on,0,0,0,,4,,,76,127
65683,note_off,111,0,0,,4,,,76,127
65685,note_on,2,0,0,,2,,,74,127
65796,note_off,111,0,0,,2,,,74,127
65798,note_on,2,0,0,,1,,,73,127
65909,note_off,111,0,0,,1,,,73,127
65911,note_on,2,0,0,,12,,,71,127
66022,note_off,111,0,0,,12,,,71,127
66022,note_off,0,0,0,,8,,,56,127
66024,note_on,2,0,0,,10,,,57,127
66024,note_on,0,0,0,,1,,,73,127
66137,note_on,113,0,0,,10,,,69,127
66248,note_off,111,0,0,,10,,,69,127
66248,note_off,0,0,0,,1,,,73,127
66250,note_on,2,0,0,,1,,,73,127
66361,note_off,111,0,0,,1,,,73,127
66363,note_on,2,0,0,,2,,,74,127
66474,note_off,111,0,0,,2,,,74,127
66474,note_off,0,0,0,,10,,,57,127
66476,note_on,2,0,0,,10,,,57,127
66476,note_on,0,0,0,,1,,,61,127
66476,note_on,0,0,0,,4,,,76,127
66587,note_off,111,0,0,,10,,,57,127
66589,note_on,2,0,0,,8,,,56,127
66700,note_off,111,0,0,,8,,,56,127
66702,note_on,2,0,0,,6,,,54,127
66813,note_off,111,0,0,,6,,,54,127
66815,note_on,2,0,0,,4,,,52,127
66923,note_off,108,0,0,,1,,,61,127
66925,note_off,2,0,0,,4,,,52,127
66925,note_off,0,0,0,,4,,,76,127
66927,note_on,2,0,0,,2,,,62,127
66927,note_on,0,0,0,,6,,,54,127
66927,note_on,0,0,0,,2,,,74,127
67038,note_off,111,0,0,,2,,,62,127
67040,note_on,2,0,0,,1,,,61,127
67151,note_off,111,0,0,,1,,,61,127
67153,note_on,2,0,0,,12,,,59,127
67264,note_off,111,0,0,,12,,,59,127
67266,note_on,2,0,0,,10,,,57,127
67374,note_off,108,0,0,,6,,,54,127
67376,note_off,2,0,0,,10,,,57,127
67376,note_off,0,0,0,,2,,,74,127
67378,note_on,2,0,0,,2,,,62,127
67378,note_on,0,0,0,,8,,,56,127
67378,note_on,0,0,0,,12,,,71,127
67489,note_off,111,0,0,,8,,,56,127
67491,note_on,2,0,0,,6,,,54,127
67602,note_off,111,0,0,,6,,,54,127
67604,note_on,2,0,0,,4,,,52,127
67715,note_off,111,0,0,,4,,,52,127
67717,note_on,2,0,0,,2,,,50,127
67825,note_off,108,0,0,,2,,,62,127
67827,note_off,2,0,0,,2,,,50,127
67827,note_off,0,0,0,,12,,,71,127
67829,note_on,2,0,0,,1,,,61,127
67829,note_on,0,0,0,,4,,,52,127
67829,note_on,0,0,0,,1,,,73,127
67940,note_off,111,0,0,,1,,,61,127
67942,note_on,2,0,0,,12,,,59,127
68053,note_off,111,0,0,,12,,,59,127
68055,note_on,2,0,0,,10,,,57,127
68166,note_off,111,0,0,,10,,,57,127
68168,note_on,2,0,0,,8,,,56,127
68276,note_off,108,0,0,,4,,,52,127
68278,note_off,2,0,0,,8,,,56,127
68278,note_off,0,0,0,,1,,,73,127
68280,note_on,2,0,0,,10,,,57,127
68280,note_on,0,0,0,,6,,,54,127
68280,note_on,0,0,0,,10,,,69,127
68391,note_off,111,0,0,,6,,,54,127
68393,note_on,2,0,0,,4,,,52,127
68504,note_off,111,0,0,,4,,,52,127
68506,note_on,2,0,0,,2,,,50,127
68617,note_off,111,0,0,,2,,,50,127
68619,note_on,2,0,0,,1,,,49,127
68727,note_off,108,0,0,,10,,,57,127
68729,note_off,2,0,0,,1,,,49,127
68729,note_off,0,0,0,,10,,,69,127
68731,note_on,2,0,0,,2,,,50,127
68731,note_on,0,0,0,,12,,,59,127
68731,note_on,0,0,0,,12,,,71,127
68842,note_off,111,0,0,,12,,,59,127
68844,note_on,2,0,0,,10,,,57,127
68955,note_off,111,0,0,,10,,,57,127
68957,note_on,2,0,0,,8,,,56,127
69068,note_off,111,0,0,,8,,,56,127
69070,note_on,2,0,0,,6,,,54,127
69178,note_off,108,0,0,,2,,,50,127
69180,note_off,2,0,0,,6,,,54,127
69180,note_off,0,0,0,,12,,,71,127
69182,note_on,2,0,0,,8,,,56,127
69182,note_on,0,0,0,,4,,,52,127
69182,note_on,0,0,0,,8,,,68,127
69293,note_off,111,0,0,,4,,,52,127
69295,note_on,2,0,0,,2,,,50,127
69406,note_off,111,0,0,,2,,,50,127
69408,note_on,2,0,0,,1,,,49,127
69519,note_off,111,0,0,,1,,,49,127
69521,note_on,2,0,0,,12,,,47,127
69629,note_off,108,0,0,,8,,,56,127
69631,note_off,2,0,0,,12,,,47,127
69631,note_off,0,0,0,,8,,,68,127
69633,note_on,2,0,0,,1,,,49,127
69633,note_on,0,0,0,,4,,,76,127
69744,note_off,111,0,0,,4,,,76,127
69746,note_on,2,0,0,,2,,,74,127
69857,note_off,111,0,0,,2,,,74,127
69859,note_on,2,0,0,,1,,,73,127
69970,note_off,111,0,0,,1,,,73,127
69972,note_on,2,0,0,,12,,,71,127
70083,note_off,111,0,0,,12,,,71,127
70085,note_on,2,0,0,,10,,,57,127
70085,note_on,0,0,0,,10,,,69,127
70196,note_off,111,0,0,,10,,,69,127
70198,note_on,2,0,0,,8,,,68,127
70309,note_off,111,0,0,,8,,,68,127
70311,note_on,2,0,0,,6,,,66,127
70422,note_off,111,0,0,,6,,,66,127
70424,note_on,2,0,0,,4,,,64,127
70535,note_off,111,0,0,,4,,,64,127
70535,note_off,0,0,0,,10,,,57,127
70536,note_off,1,0,0,,1,,,49,127
70537,note_on,1,0,0,,10,,,57,127
70537,note_on,0,0,0,,2,,,50,127
70537,note_on,0,0,0,,6,,,78,127
70648,note_off,111,0,0,,6,,,78,127
70650,note_on,2,0,0,,4,,,76,127
70761,note_off,111,0,0,,4,,,76,127
70763,note_on,2,0,0,,2,,,74,127
70874,note_off,111,0,0,,2,,,74,127
70876,note_on,2,0,0,,1,,,73,127
70987,note_off,111,0,0,,1,,,73,127
70987,note_off,0,0,0,,2,,,50,127
70987,note_off,0,0,0,,10,,,57,127
70989,note_on,2,0,0,,12,,,59,127
70989,note_on,0,0,0,,3,,,51,127
70989,note_on,0,0,0,,12,,,71,127
71100,note_off,111,0,0,,12,,,71,127
71102,note_on,2,0,0,,10,,,69,127
71213,note_off,111,0,0,,10,,,69,127
71215,note_on,2,0,0,,8,,,68,127
71326,note_off,111,0,0,,8,,,68,127
71328,note_on,2,0,0,,6,,,66,127
71439,note_off,111,0,0,,6,,,66,127
71439,note_off,0,0,0,,3,,,51,127
71439,note_off,0,0,0,,12,,,59,127
71441,note_on,2,0,0,,12,,,59,127
71441,note_on,0,0,0,,4,,,52,127
71441,note_on,0,0,0,,8,,,80,127
71552,note_off,111,0,0,,8,,,80,127
71554,note_on,2,0,0,,6,,,78,127
71665,note_off,111,0,0,,6,,,78,127
71667,note_on,2,0,0,,4,,,76,127
71778,note_off,111,0,0,,4,,,76,127
71780,note_on,2,0,0,,2,,,74,127
71891,note_off,111,0,0,,2,,,74,127
71891,note_off,0,0,0,,4,,,52,127
71891,note_off,0,0,0,,12,,,59,127
71893,note_on,2,0,0,,1,,,61,127
71893,note_on,0,0,0,,5,,,53,127
71893,note_on,0,0,0,,1,,,73,127
72004,note_off,111,0,0,,1,,,73,127
72006,note_on,2,0,0,,12,,,71,127
72117,note_off,111,0,0,,12,,,71,127
72119,note_on,2,0,0,,10,,,69,127
72230,note_off,111,0,0,,10,,,69,127
72232,note_on,2,0,0,,8,,,68,127
72343,note_off,111,0,0,,8,,,68,127
72343,note_off,0,0,0,,5,,,53,127
72343,note_off,0,0,0,,1,,,61,127
72345,note_on,2,0,0,,1,,,61,127
72345,note_on,0,0,0,,6,,,54,127
72345,note_on,0,0,0,,10,,,81,127
72456,note_off,111,0,0,,10,,,81,127
72458,note_on,2,0,0,,7,,,79,127
72569,note_off,111,0,0,,7,,,79,127
72571,note_on,2,0,0,,6,,,78,127
72682,note_off,111,0,0,,6,,,78,127
72684,note_on,2,0,0,,4,,,76,127
72795,note_off,111,0,0,,4,,,76,127
72795,note_off,0,0,0,,1,,,61,127
72797,note_on,2,0,0,,6,,,66,127
72797,note_on,0,0,0,,2,,,74,127
72908,note_off,111,0,0,,2,,,74,127
72910,note_on,2,0,0,,1,,,73,127
73021,note_off,111,0,0,,1,,,73,127
73023,note_on,2,0,0,,12,,,71,127
73134,note_off,111,0,0,,12,,,71,127
73136,note_on,2,0,0,,11,,,70,127
73247,note_off,111,0,0,,11,,,70,127
73248,note_off,1,0,0,,6,,,54,127
73249,note_on,1,0,0,,7,,,55,127
73249,note_on,0,0,0,,11,,,70,127
73360,note_off,111,0,0,,11,,,70,127
73362,note_on,2,0,0,,12,,,71,127
73473,note_off,111,0,0,,12,,,71,127
73475,note_on,2,0,0,,1,,,73,127
73586,note_off,111,0,0,,1,,,73,127
73588,note_on,2,0,0,,2,,,74,127
73699,note_off,111,0,0,,2,,,74,127
73700,note_off,1,0,0,,6,,,66,127
73701,note_on,1,0,0,,4,,,64,127
73701,note_on,0,0,0,,4,,,76,127
73812,note_off,111,0,0,,4,,,76,127
73814,note_on,2,0,0,,2,,,74,127
73925,note_off,111,0,0,,2,,,74,127
73927,note_on,2,0,0,,1,,,73,127
74038,note_off,111,0,0,,1,,,73,127
74040,note_on,2,0,0,,12,,,71,127
74151,note_off,111,0,0,,12,,,71,127
74151,note_off,0,0,0,,4,,,64,127
74152,note_off,1,0,0,,7,,,55,127
74153,note_on,1,0,0,,6,,,66,127
74153,note_on,0,0,0,,6,,,54,127
74153,note_on,0,0,0,,6,,,78,127
74153,note_on,0,0,0,,11,,,70,127
74264,note_off,111,0,0,,6,,,78,127
74266,note_on,2,0,0,,4,,,76,127
74377,note_off,111,0,0,,4,,,76,127
74379,note_on,2,0,0,,2,,,74,127
74490,note_off,111,0,0,,2,,,74,127
74492,note_on,2,0,0,,1,,,73,127
74600,note_off,108,0,0,,11,,,70,127
74602,note_off,2,0,0,,1,,,73,127
74602,note_off,0,0,0,,6,,,54,127
74602,note_off,0,0,0,,6,,,66,127
74604,note_on,2,0,0,,12,,,59,127
74604,note_on,0,0,0,,12,,,71,127
74604,note_on,0,0,0,,2,,,74,127
74715,note_off,111,0,0,,12,,,71,127
74717,note_on,2,0,0,,10,,,69,127
74828,note_off,111,0,0,,10,,,69,127
74830,note_on,2,0,0,,7,,,67,127
74941,note_off,111,0,0,,7,,,67,127
74943,note_on,2,0,0,,6,,,66,127
75051,note_off,108,0,0,,2,,,74,127
75053,note_off,2,0,0,,6,,,66,127
75053,note_off,0,0,0,,12,,,59,127
75055,note_on,2,0,0,,4,,,52,127
75055,note_on,0,0,0,,4,,,76,127
75055,note_on,0,0,0,,7,,,67,127
75166,note_off,111,0,0,,4,,,76,127
75168,note_on,2,0,0,,2,,,74,127
75279,note_off,111,0,0,,2,,,74,127
75281,note_on,2,0,0,,1,,,73,127
75392,note_off,111,0,0,,1,,,73,127
75394,note_on,2,0,0,,12,,,71,127
75502,note_off,108,0,0,,7,,,67,127
75504,note_off,2,0,0,,12,,,71,127
75504,note_off,0,0,0,,4,,,52,127
75506,note_on,2,0,0,,10,,,57,127
75506,note_on,0,0,0,,10,,,69,127
75506,note_on,0,0,0,,1,,,73,127
75617,note_off,111,0,0,,10,,,69,127
75619,note_on,2,0,0,,7,,,67,127
75730,note_off,111,0,0,,7,,,67,127
75732,note_on,2,0,0,,6,,,66,127
75843,note_off,111,0,0,,6,,,66,127
75845,note_on,2,0,0,,4,,,64,127
75953,note_off,108,0,0,,1,,,73,127
75955,note_off,2,0,0,,4,,,64,127
75955,note_off,0,0,0,,10,,,57,127
75957,note_on,2,0,0,,2,,,50,127
75957,note_on,0,0,0,,2,,,74,127
75957,note_on,0,0,0,,6,,,66,127
76068,note_off,111,0,0,,2,,,74,127
76070,note_on,2,0,0,,1,,,73,127
76181,note_off,111,0,0,,1,,,73,127
76183,note_on,2,0,0,,12,,,71,127
76294,note_off,111,0,0,,12,,,71,127
76296,note_on,2,0,0,,11,,,70,127
76404,note_off,108,0,0,,6,,,66,127
76406,note_off,2,0,0,,11,,,70,127
76406,note_off,0,0,0,,2,,,50,127
76408,note_on,2,0,0,,7,,,55,127
76408,note_on,0,0,0,,12,,,71,127
76408,note_on,0,0,0,,7,,,67,127
76519,note_off,111,0,0,,7,,,67,127
76521,note_on,2,0,0,,6,,,66,127
76632,note_off,111,0,0,,6,,,66,127
76634,note_on,2,0,0,,4,,,64,127
76745,note_off,111,0,0,,4,,,64,127
76747,note_on,2,0,0,,2,,,62,127
76855,note_off,108,0,0,,12,,,71,127
76857,note_off,2,0,0,,2,,,62,127
76857,note_off,0,0,0,,7,,,55,127
76859,note_on,2,0,0,,1,,,49,127
76859,note_on,0,0,0,,1,,,73,127
76859,note_on,0,0,0,,4,,,64,127
76970,note_off,111,0,0,,1,,,73,127
76972,note_on,2,0,0,,12,,,71,127
77083,note_off,111,0,0,,12,,,71,127
77085,note_on,2,0,0,,11,,,70,127
77196,note_off,111,0,0,,11,,,70,127
77198,note_on,2,0,0,,8,,,68,127
77306,note_off,108,0,0,,4,,,64,127
77308,note_off,2,0,0,,8,,,68,127
77308,note_off,0,0,0,,1,,,49,127
77310,note_on,2,0,0,,6,,,54,127
77310,note_on,0,0,0,,6,,,66,127
77310,note_on,0,0,0,,11,,,70,127
77421,note_off,111,0,0,,6,,,66,127
77423,note_on,2,0,0,,4,,,64,127
77534,note_off,111,0,0,,4,,,64,127
77536,note_on,2,0,0,,2,,,62,127
77647,note_off,111,0,0,,2,,,62,127
77649,note_on,2,0,0,,1,,,61,127
77757,note_off,108,0,0,,11,,,70,127
77759,note_off,2,0,0,,1,,,61,127
77759,note_off,0,0,0,,6,,,54,127
77761,note_on,2,0,0,,12,,,47,127
77761,note_on,0,0,0,,12,,,71,127
77761,note_on,0,0,0,,2,,,62,127
77872,note_off,111,0,0,,2,,,62,127
77874,note_on,2,0,0,,6,,,66,127
77985,note_off,111,0,0,,6,,,66,127
77985,note_off,0,0,0,,12,,,71,127
77987,note_on,2,0,0,,12,,,71,127
78098,note_off,111,0,0,,12,,,71,127
78100,note_on,2,0,0,,1,,,73,127
78211,note_off,111,0,0,,1,,,73,127
78211,note_off,0,0,0,,12,,,47,127
78213,note_on,2,0,0,,12,,,59,127
78213,note_on,0,0,0,,2,,,74,127
78324,note_off,111,0,0,,12,,,59,127
78326,note_on,2,0,0,,10,,,57,127
78437,note_off,111,0,0,,10,,,57,127
78439,note_on,2,0,0,,7,,,55,127
78550,note_off,111,0,0,,7,,,55,127
78552,note_on,2,0,0,,6,,,54,127
78663,note_off,111,0,0,,6,,,54,127
78663,note_off,0,0,0,,2,,,74,127
78665,note_on,2,0,0,,4,,,64,127
78665,note_on,0,0,0,,7,,,55,127
78665,note_on,0,0,0,,4,,,76,127
78776,note_off,111,0,0,,4,,,64,127
78778,note_on,2,0,0,,2,,,62,127
78889,note_off,111,0,0,,2,,,62,127
78891,note_on,2,0,0,,1,,,61,127
79002,note_off,111,0,0,,1,,,61,127
79004,note_on,2,0,0,,12,,,59,127
79112,note_off,108,0,0,,7,,,55,127
79114,note_off,2,0,0,,12,,,59,127
79114,note_off,0,0,0,,4,,,76,127
79116,note_on,2,0,0,,1,,,61,127
79116,note_on,0,0,0,,10,,,57,127
79116,note_on,0,0,0,,1,,,73,127
79227,note_off,111,0,0,,10,,,57,127
79229,note_on,2,0,0,,7,,,55,127
79340,note_off,111,0,0,,7,,,55,127
79342,note_on,2,0,0,,6,,,54,127
79453,note_off,111,0,0,,6,,,54,127
79455,note_on,2,0,0,,4,,,52,127
79563,note_off,108,0,0,,1,,,61,127
79565,note_off,2,0,0,,4,,,52,127
79565,note_off,0,0,0,,1,,,73,127
79567,note_on,2,0,0,,2,,,62,127
79567,note_on,0,0,0,,6,,,54,127
79567,note_on,0,0,0,,2,,,74,127
79678,note_off,111,0,0,,2,,,62,127
79680,note_on,2,0,0,,1,,,61,127
79791,note_off,111,0,0,,1,,,61,127
79793,note_on,2,0,0,,12,,,59,127
79904,note_off,111,0,0,,12,,,59,127
79906,note_on,2,0,0,,11,,,58,127
80014,note_off,108,0,0,,6,,,54,127
80016,note_off,2,0,0,,11,,,58,127
80016,note_off,0,0,0,,2,,,74,127
80018,note_on,2,0,0,,7,,,55,127
80018,note_on,0,0,0,,12,,,59,127
80018,note_on,0,0,0,,12,,,71,127
80129,note_off,111,0,0,,7,,,55,127
80131,note_on,2,0,0,,6,,,54,127
80242,note_off,111,0,0,,6,,,54,127
80244,note_on,2,0,0,,4,,,52,127
80355,note_off,111,0,0,,4,,,52,127
80357,note_on,2,0,0,,2,,,50,127
80465,note_off,108,0,0,,12,,,59,127
80467,note_off,2,0,0,,2,,,50,127
80467,note_off,0,0,0,,12,,,71,127
80469,note_on,2,0,0,,1,,,61,127
80469,note_on,0,0,0,,4,,,52,127
80469,note_on,0,0,0,,1,,,73,127
80580,note_off,111,0,0,,1,,,61,127
80582,note_on,2,0,0,,12,,,59,127
80693,note_off,111,0,0,,12,,,59,127
80695,note_on,2,0,0,,11,,,58,127
80806,note_off,111,0,0,,11,,,58,127
80808,note_on,2,0,0,,8,,,56,127
80916,note_off,108,0,0,,4,,,52,127
80918,note_off,2,0,0,,8,,,56,127
80918,note_off,0,0,0,,1,,,73,127
80920,note_on,2,0,0,,6,,,54,127
80920,note_on,0,0,0,,11,,,58,127
80920,note_on,0,0,0,,11,,,70,127
81031,note_off,111,0,0,,6,,,54,127
81033,note_on,2,0,0,,4,,,52,127
81144,note_off,111,0,0,,4,,,52,127
81146,note_on,2,0,0,,2,,,50,127
81257,note_off,111,0,0,,2,,,50,127
81259,note_on,2,0,0,,1,,,49,127
81367,note_off,108,0,0,,11,,,58,127
81369,note_off,2,0,0,,1,,,49,127
81369,note_off,0,0,0,,11,,,70,127
81371,note_on,2,0,0,,12,,,59,127
81371,note_on,0,0,0,,2,,,50,127
81371,note_on,0,0,0,,12,,,71,127
81482,note_off,111,0,0,,12,,,71,127
81484,note_on,2,0,0,,2,,,74,127
81595,note_off,111,0,0,,2,,,74,127
81597,note_on,2,0,0,,6,,,78,127
81708,note_off,111,0,0,,6,,,78,127
81710,note_on,2,0,0,,4,,,76,127
81821,note_off,111,0,0,,4,,,76,127
81821,note_off,0,0,0,,2,,,50,127
81821,note_off,0,0,0,,12,,,59,127
81823,note_on,2,0,0,,12,,,47,127
81823,note_on,0,0,0,,2,,,74,127
81934,note_off,111,0,0,,2,,,74,127
81936,note_on,2,0,0,,1,,,73,127
82047,note_off,111,0,0,,1,,,73,127
82049,note_on,2,0,0,,12,,,71,127
82160,note_off,111,0,0,,12,,,71,127
82162,note_on,2,0,0,,10,,,69,127
82273,note_off,111,0,0,,10,,,69,127
82273,note_off,0,0,0,,12,,,47,127
82275,note_on,2,0,0,,4,,,52,127
82275,note_on,0,0,0,,7,,,67,127
82386,note_off,111,0,0,,7,,,67,127
82388,note_on,2,0,0,,6,,,66,127
82499,note_off,111,0,0,,6,,,66,127
82501,note_on,2,0,0,,4,,,76,127
82501,note_on,0,0,0,,4,,,64,127
82612,note_off,111,0,0,,4,,,76,127
82614,note_on,2,0,0,,2,,,74,127
82725,note_off,111,0,0,,2,,,74,127
82725,note_off,0,0,0,,4,,,64,127
82725,note_off,0,0,0,,4,,,52,127
82727,note_on,2,0,0,,10,,,57,127
82727,note_on,0,0,0,,10,,,45,127
82727,note_on,0,0,0,,1,,,73,127
82838,note_off,111,0,0,,1,,,73,127
82840,note_on,2,0,0,,12,,,71,127
82951,note_off,111,0,0,,12,,,71,127
82953,note_on,2,0,0,,10,,,69,127
83064,note_off,111,0,0,,10,,,69,127
83066,note_on,2,0,0,,7,,,67,127
83177,note_off,111,0,0,,7,,,67,127
83177,note_off,0,0,0,,10,,,45,127
83177,note_off,0,0,0,,10,,,57,127
83179,note_on,2,0,0,,2,,,50,127
83179,note_on,0,0,0,,6,,,66,127
83290,note_off,111,0,0,,6,,,66,127
83292,note_on,2,0,0,,4,,,64,127
83403,note_off,111,0,0,,4,,,64,127
83405,note_on,2,0,0,,2,,,74,127
83405,note_on,0,0,0,,2,,,62,127
83516,note_off,111,0,0,,2,,,74,127
83518,note_on,2,0,0,,1,,,73,127
83629,note_off,111,0,0,,1,,,73,127
83629,note_off,0,0,0,,2,,,62,127
83629,note_off,0,0,0,,2,,,50,127
83631,note_on,2,0,0,,7,,,55,127
83631,note_on,0,0,0,,7,,,43,127
83631,note_on,0,0,0,,12,,,71,127
83742,note_off,111,0,0,,12,,,71,127
83744,note_on,2,0,0,,10,,,69,127
83855,note_off,111,0,0,,10,,,69,127
83857,note_on,2,0,0,,7,,,67,127
83968,note_off,111,0,0,,7,,,67,127
83970,note_on,2,0,0,,6,,,66,127
84081,note_off,111,0,0,,6,,,66,127
84081,note_off,0,0,0,,7,,,43,127
84081,note_off,0,0,0,,7,,,55,127
84083,note_on,2,0,0,,1,,,49,127
84083,note_on,0,0,0,,4,,,64,127
84194,note_off,111,0,0,,4,,,64,127
84196,note_on,2,0,0,,2,,,62,127
84307,note_off,111,0,0,,2,,,62,127
84309,note_on,2,0,0,,1,,,73,127
84309,note_on,0,0,0,,1,,,61,127
84420,note_off,111,0,0,,1,,,73,127
84422,note_on,2,0,0,,12,,,71,127
84533,note_off,111,0,0,,12,,,71,127
84533,note_off,0,0,0,,1,,,61,127
84533,note_off,0,0,0,,1,,,49,127
84535,note_on,2,0,0,,6,,,54,127
84535,note_on,0,0,0,,6,,,42,127
84535,note_on,0,0,0,,11,,,70,127
84646,note_off,111,0,0,,11,,,70,127
84648,note_on,2,0,0,,7,,,67,127
84759,note_off,111,0,0,,7,,,67,127
84761,note_on,2,0,0,,6,,,66,127
84872,note_off,111,0,0,,6,,,66,127
84874,note_on,2,0,0,,4,,,64,127
84985,note_off,111,0,0,,4,,,64,127
84985,note_off,0,0,0,,6,,,42,127
84985,note_off,0,0,0,,6,,,54,127
84987,note_on,2,0,0,,12,,,47,127
84987,note_on,0,0,0,,4,,,64,127
85211,note_off,224,0,0,,4,,,64,127
85211,note_off,0,0,0,,12,,,47,127
85213,note_on,2,0,0,,12,,,71,127
85213,note_on,0,0,0,,2,,,62,127
85324,note_off,111,0,0,,12,,,71,127
85326,note_on,2,0,0,,10,,,69,127
85437,note_off,111,0,0,,10,,,69,127
85439,note_on,2,0,0,,7,,,67,127
85550,note_off,111,0,0,,7,,,67,127
85552,note_on,2,0,0,,6,,,66,127
85663,note_off,111,0,0,,6,,,66,127
85663,note_off,0,0,0,,2,,,62,127
85665,note_on,2,0,0,,4,,,64,127
85665,note_on,0,0,0,,7,,,79,127
85776,note_off,111,0,0,,4,,,64,127
85778,note_on,2,0,0,,2,,,62,127
85889,note_off,111,0,0,,2,,,62,127
85891,note_on,2,0,0,,1,,,61,127
86002,note_off,111,0,0,,1,,,61,127
86004,note_on,2,0,0,,12,,,59,127
86115,note_off,111,0,0,,12,,,59,127
86115,note_off,0,0,0,,7,,,79,127
86117,note_on,2,0,0,,11,,,58,127
86117,note_on,0,0,0,,4,,,76,127
86228,note_off,111,0,0,,11,,,58,127
86230,note_on,2,0,0,,7,,,55,127
86341,note_off,111,0,0,,7,,,55,127
86343,note_on,2,0,0,,6,,,54,127
86454,note_off,111,0,0,,6,,,54,127
86456,note_on,2,0,0,,4,,,52,127
86567,note_off,111,0,0,,4,,,52,127
86567,note_off,0,0,0,,4,,,76,127
86569,note_on,2,0,0,,2,,,50,127
86569,note_on,0,0,0,,6,,,78,127
86680,note_off,111,0,0,,2,,,50,127
86682,note_on,2,0,0,,1,,,49,127
86793,note_off,111,0,0,,1,,,49,127
86795,note_on,2,0,0,,12,,,47,127
86906,note_off,111,0,0,,6,,,78,127
86908,note_on,2,0,0,,4,,,76,127
87019,note_off,111,0,0,,4,,,76,127
87021,note_on,2,0,0,,2,,,74,127
87132,note_off,111,0,0,,2,,,74,127
87134,note_on,2,0,0,,1,,,73,127
87245,note_off,111,0,0,,1,,,73,127
87245,note_off,0,0,0,,12,,,47,127
87247,note_on,2,0,0,,2,,,50,127
87247,note_on,0,0,0,,6,,,78,127
87247,note_on,0,0,0,,12,,,71,127
87358,note_off,111,0,0,,12,,,71,127
87360,note_on,2,0,0,,10,,,69,127
87471,note_off,111,0,0,,10,,,69,127
87473,note_on,2,0,0,,7,,,67,127
87584,note_off,111,0,0,,7,,,67,127
87586,note_on,2,0,0,,6,,,66,127
87697,note_off,111,0,0,,6,,,66,127
87697,note_off,0,0,0,,2,,,50,127
87699,note_on,2,0,0,,4,,,52,127
87699,note_on,0,0,0,,7,,,67,127
87810,note_off,111,0,0,,6,,,78,127
87812,note_on,2,0,0,,4,,,76,127
87923,note_off,111,0,0,,4,,,76,127
87925,note_on,2,0,0,,2,,,74,127
88036,note_off,111,0,0,,2,,,74,127
88038,note_on,2,0,0,,1,,,73,127
88146,note_off,108,0,0,,7,,,67,127
88148,note_off,2,0,0,,1,,,73,127
88148,note_off,0,0,0,,4,,,52,127
88150,note_on,2,0,0,,6,,,54,127
88150,note_on,0,0,0,,2,,,74,127
88261,note_off,111,0,0,,2,,,74,127
88263,note_on,2,0,0,,12,,,71,127
88374,note_off,111,0,0,,12,,,71,127
88376,note_on,2,0,0,,1,,,73,127
88487,note_off,111,0,0,,1,,,73,127
88489,note_on,2,0,0,,11,,,70,127
88600,note_off,111,0,0,,11,,,70,127
88600,note_off,0,0,0,,6,,,54,127
88602,note_on,2,0,0,,12,,,59,127
88602,note_on,0,0,0,,12,,,71,127
88713,note_off,111,0,0,,12,,,71,127
88715,note_on,2,0,0,,2,,,74,127
88826,note_off,111,0,0,,2,,,74,127
88828,note_on,2,0,0,,6,,,78,127
88939,note_off,111,0,0,,6,,,78,127
88941,note_on,2,0,0,,4,,,76,127
89052,note_off,111,0,0,,4,,,76,127
89054,note_on,2,0,0,,12,,,47,127
89054,note_on,0,0,0,,2,,,74,127
89165,note_off,111,0,0,,2,,,74,127
89167,note_on,2,0,0,,1,,,73,127
89278,note_off,111,0,0,,1,,,73,127
89280,note_on,2,0,0,,12,,,71,127
89391,note_off,111,0,0,,12,,,71,127
89393,note_on,2,0,0,,10,,,69,127
89504,note_off,111,0,0,,10,,,69,127
89504,note_off,0,0,0,,12,,,47,127
89505,note_off,1,0,0,,12,,,59,127
89506,note_on,1,0,0,,4,,,52,127
89506,note_on,0,0,0,,7,,,67,127
89619,note_on,113,0,0,,6,,,66,127
89730,note_off,111,0,0,,6,,,66,127
89730,note_off,0,0,0,,7,,,67,127
89732,note_on,2,0,0,,4,,,76,127
89732,note_on,0,0,0,,4,,,64,127
89843,note_off,111,0,0,,4,,,76,127
89845,note_on,2,0,0,,2,,,74,127
89956,note_off,111,0,0,,2,,,74,127
89956,note_off,0,0,0,,4,,,52,127
89958,note_on,2,0,0,,10,,,57,127
89958,note_on,0,0,0,,10,,,45,127
89958,note_on,0,0,0,,1,,,73,127
90069,note_off,111,0,0,,1,,,73,127
90071,note_on,2,0,0,,12,,,71,127
90182,note_off,111,0,0,,12,,,71,127
90184,note_on,2,0,0,,10,,,69,127
90295,note_off,111,0,0,,10,,,69,127
90297,note_on,2,0,0,,7,,,67,127
90408,note_off,111,0,0,,7,,,67,127
90408,note_off,0,0,0,,10,,,45,127
90408,note_off,0,0,0,,10,,,57,127
90409,note_off,1,0,0,,4,,,64,127
90410,note_on,1,0,0,,2,,,50,127
90410,note_on,0,0,0,,6,,,66,127
90523,note_on,113,0,0,,4,,,64,127
90634,note_off,111,0,0,,4,,,64,127
90634,note_off,0,0,0,,6,,,66,127
90636,note_on,2,0,0,,2,,,74,127
90636,note_on,0,0,0,,2,,,62,127
90747,note_off,111,0,0,,2,,,74,127
90749,note_on,2,0,0,,1,,,73,127
90860,note_off,111,0,0,,1,,,73,127
90860,note_off,0,0,0,,2,,,50,127
90862,note_on,2,0,0,,7,,,55,127
90862,note_on,0,0,0,,7,,,43,127
90862,note_on,0,0,0,,12,,,71,127
90973,note_off,111,0,0,,12,,,71,127
90975,note_on,2,0,0,,10,,,69,127
91086,note_off,111,0,0,,10,,,69,127
91088,note_on,2,0,0,,7,,,67,127
91199,note_off,111,0,0,,7,,,67,127
91201,note_on,2,0,0,,6,,,66,127
91312,note_off,111,0,0,,6,,,66,127
91312,note_off,0,0,0,,7,,,43,127
91312,note_off,0,0,0,,7,,,55,127
91313,note_off,1,0,0,,2,,,62,127
91314,note_on,1,0,0,,1,,,49,127
91314,note_on,0,0,0,,4,,,64,127
91427,note_on,113,0,0,,2,,,62,127
91538,note_off,111,0,0,,2,,,62,127
91538,note_off,0,0,0,,4,,,64,127
91540,note_on,2,0,0,,1,,,73,127
91540,note_on,0,0,0,,1,,,61,127
91651,note_off,111,0,0,,1,,,73,127
91653,note_on,2,0,0,,12,,,71,127
91764,note_off,111,0,0,,12,,,71,127
91764,note_off,0,0,0,,1,,,49,127
91766,note_on,2,0,0,,6,,,54,127
91766,note_on,0,0,0,,6,,,42,127
91766,note_on,0,0,0,,11,,,70,127
91877,note_off,111,0,0,,11,,,70,127
91879,note_on,2,0,0,,7,,,67,127
91990,note_off,111,0,0,,7,,,67,127
91992,note_on,2,0,0,,6,,,66,127
92103,note_off,111,0,0,,6,,,66,127
92105,note_on,2,0,0,,4,,,64,127
92216,note_off,111,0,0,,4,,,64,127
92216,note_off,0,0,0,,6,,,42,127
92216,note_off,0,0,0,,6,,,54,127
92218,note_on,2,0,0,,12,,,47,127
92218,note_on,0,0,0,,4,,,64,127
92442,note_off,224,0,0,,4,,,64,127
92442,note_off,0,0,0,,12,,,47,127
92443,note_off,1,0,0,,1,,,61,127
92444,note_on,1,0,0,,12,,,71,127
92444,note_on,0,0,0,,2,,,62,127
92555,note_off,111,0,0,,12,,,71,127
92557,note_on,2,0,0,,10,,,69,127
92668,note_off,111,0,0,,10,,,69,127
92670,note_on,2,0,0,,7,,,67,127
92781,note_off,111,0,0,,7,,,67,127
92783,note_on,2,0,0,,6,,,66,127
92894,note_off,111,0,0,,6,,,66,127
92894,note_off,0,0,0,,2,,,62,127
92896,note_on,2,0,0,,4,,,64,127
92896,note_on,0,0,0,,7,,,79,127
93007,note_off,111,0,0,,4,,,64,127
93009,note_on,2,0,0,,2,,,62,127
93120,note_off,111,0,0,,2,,,62,127
93122,note_on,2,0,0,,1,,,61,127
93233,note_off,111,0,0,,1,,,61,127
93235,note_on,2,0,0,,12,,,59,127
93346,note_off,111,0,0,,12,,,59,127
93346,note_off,0,0,0,,7,,,79,127
93348,note_on,2,0,0,,11,,,58,127
93348,note_on,0,0,0,,4,,,76,127
93459,note_off,111,0,0,,11,,,58,127
93461,note_on,2,0,0,,7,,,55,127
93572,note_off,111,0,0,,7,,,55,127
93574,note_on,2,0,0,,6,,,54,127
93685,note_off,111,0,0,,6,,,54,127
93687,note_on,2,0,0,,4,,,52,127
93798,note_off,111,0,0,,4,,,52,127
93798,note_off,0,0,0,,4,,,76,127
93800,note_on,2,0,0,,2,,,50,127
93800,note_on,0,0,0,,6,,,78,127
93911,note_off,111,0,0,,2,,,50,127
93913,note_on,2,0,0,,1,,,49,127
94024,note_off,111,0,0,,1,,,49,127
94026,note_on,2,0,0,,12,,,47,127
94137,note_off,111,0,0,,6,,,78,127
94139,note_on,2,0,0,,4,,,76,127
94250,note_off,111,0,0,,4,,,76,127
94252,note_on,2,0,0,,2,,,74,127
94363,note_off,111,0,0,,2,,,74,127
94365,note_on,2,0,0,,1,,,73,127
94476,note_off,111,0,0,,1,,,73,127
94476,note_off,0,0,0,,12,,,47,127
94478,note_on,2,0,0,,2,,,50,127
94478,note_on,0,0,0,,12,,,71,127
94478,note_on,0,0,0,,6,,,78,127
94589,note_off,111,0,0,,12,,,71,127
94591,note_on,2,0,0,,10,,,69,127
94702,note_off,111,0,0,,10,,,69,127
94704,note_on,2,0,0,,7,,,67,127
94815,note_off,111,0,0,,7,,,67,127
94817,note_on,2,0,0,,6,,,66,127
94928,note_off,111,0,0,,6,,,66,127
94928,note_off,0,0,0,,2,,,50,127
94930,note_on,2,0,0,,4,,,52,127
94930,note_on,0,0,0,,7,,,67,127
95041,note_off,111,0,0,,6,,,78,127
95043,note_on,2,0,0,,4,,,76,127
95154,note_off,111,0,0,,4,,,76,127
95156,note_on,2,0,0,,2,,,74,127
95267,note_off,111,0,0,,2,,,74,127
95269,note_on,2,0,0,,1,,,73,127
95377,note_off,108,0,0,,7,,,67,127
95379,note_off,2,0,0,,1,,,73,127
95379,note_off,0,0,0,,4,,,52,127
95381,note_on,2,0,0,,6,,,54,127
95381,note_on,0,0,0,,2,,,74,127
95492,note_off,111,0,0,,2,,,74,127
95494,note_on,2,0,0,,12,,,71,127
95605,note_off,111,0,0,,12,,,71,127
95607,note_on,2,0,0,,1,,,73,127
95718,note_off,111,0,0,,1,,,73,127
95720,note_on,2,0,0,,11,,,70,127
95831,note_off,111,0,0,,11,,,70,127
95831,note_off,0,0,0,,6,,,54,127
95833,note_on,2,0,0,,12,,,59,127
95833,note_on,0,0,0,,12,,,71,127
96057,note_off,224,0,0,,12,,,71,127
96059,note_on,2,0,0,,1,,,85,127
96113,note_off,54,0,0,,1,,,85,127
96115,note_on,2,0,0,,12,,,83,127
96169,note_off,54,0,0,,12,,,83,127
96171,note_on,2,0,0,,1,,,85,127
96225,note_off,54,0,0,,1,,,85,127
96227,note_on,2,0,0,,12,,,83,127
96281,note_off,54,0,0,,12,,,59,127
96283,note_on,2,0,0,,7,,,55,127
96507,note_off,224,0,0,,12,,,83,127
96509,note_on,2,0,0,,1,,,85,127
96563,note_off,54,0,0,,1,,,85,127
96565,note_on,2,0,0,,12,,,83,127
96619,note_off,54,0,0,,12,,,83,127
96621,note_on,2,0,0,,1,,,85,127
96675,note_off,54,0,0,,1,,,85,127
96677,note_on,2,0,0,,12,,,83,127
96731,note_off,54,0,0,,7,,,55,127
96733,note_on,2,0,0,,4,,,52,127
96844,note_off,111,0,0,,12,,,83,127
96846,note_on,2,0,0,,6,,,78,127
96957,note_off,111,0,0,,6,,,78,127
96959,note_on,2,0,0,,7,,,79,127
97070,note_off,111,0,0,,7,,,79,127
97072,note_on,2,0,0,,4,,,76,127
97183,note_off,111,0,0,,4,,,76,127
97183,note_off,0,0,0,,4,,,52,127
97185,note_on,2,0,0,,6,,,54,127
97185,note_on,0,0,0,,4,,,76,127
97185,note_on,0,0,0,,6,,,78,127
97296,note_off,111,0,0,,6,,,78,127
97296,note_off,0,0,0,,4,,,76,127
97298,note_on,2,0,0,,2,,,74,127
97409,note_off,111,0,0,,2,,,74,127
97411,note_on,2,0,0,,4,,,76,127
97411,note_on,0,0,0,,2,,,74,127
97522,note_off,111,0,0,,2,,,74,127
97522,note_off,0,0,0,,4,,,76,127
97524,note_on,2,0,0,,1,,,73,127
97635,note_off,111,0,0,,1,,,73,127
97635,note_off,0,0,0,,6,,,54,127
97637,note_on,2,0,0,,12,,,59,127
97637,note_on,0,0,0,,2,,,74,127
97861,note_off,224,0,0,,2,,,74,127
97863,note_on,2,0,0,,1,,,85,127
97917,note_off,54,0,0,,1,,,85,127
97919,note_on,2,0,0,,12,,,83,127
97973,note_off,54,0,0,,12,,,83,127
97975,note_on,2,0,0,,1,,,85,127
98029,note_off,54,0,0,,1,,,85,127
98031,note_on,2,0,0,,12,,,83,127
98085,note_off,54,0,0,,12,,,59,127
98087,note_on,2,0,0,,7,,,55,127
98311,note_off,224,0,0,,12,,,83,127
98313,note_on,2,0,0,,1,,,85,127
98367,note_off,54,0,0,,1,,,85,127
98369,note_on,2,0,0,,12,,,83,127
98423,note_off,54,0,0,,12,,,83,127
98425,note_on,2,0,0,,1,,,85,127
98479,note_off,54,0,0,,1,,,85,127
98481,note_on,2,0,0,,12,,,83,127
98535,note_off,54,0,0,,7,,,55,127
98537,note_on,2,0,0,,4,,,52,127
98648,note_off,111,0,0,,12,,,83,127
98650,note_on,2,0,0,,1,,,73,127
98761,note_off,111,0,0,,1,,,73,127
98763,note_on,2,0,0,,2,,,74,127
98874,note_off,111,0,0,,2,,,74,127
98876,note_on,2,0,0,,4,,,76,127
98987,note_off,111,0,0,,4,,,76,127
98987,note_off,0,0,0,,4,,,52,127
98989,note_on,2,0,0,,6,,,54,127
98989,note_on,0,0,0,,4,,,76,127
98989,note_on,0,0,0,,2,,,74,127
99100,note_off,111,0,0,,2,,,74,127
99100,note_off,0,0,0,,4,,,76,127
99102,note_on,2,0,0,,1,,,73,127
99213,note_off,111,0,0,,1,,,73,127
99215,note_on,2,0,0,,12,,,71,127
99326,note_off,111,0,0,,12,,,71,127
99328,note_on,2,0,0,,11,,,70,127
99439,note_off,111,0,0,,11,,,70,127
99439,note_off,0,0,0,,6,,,54,127
99441,note_on,2,0,0,,12,,,59,127
99441,note_on,0,0,0,,12,,,47,127
99441,note_on,0,0,0,,12,,,71,127
99665,note_off,224,0,0,,12,,,71,127
99667,note_on,2,0,0,,1,,,85,127
99721,note_off,54,0,0,,1,,,85,127
99723,note_on,2,0,0,,12,,,83,127
99777,note_off,54,0,0,,12,,,83,127
99779,note_on,2,0,0,,1,,,85,127
99833,note_off,54,0,0,,1,,,85,127
99835,note_on,2,0,0,,12,,,83,127
99889,note_off,54,0,0,,12,,,47,127
99889,note_off,0,0,0,,12,,,59,127
99891,note_on,2,0,0,,7,,,55,127
100115,note_off,224,0,0,,12,,,83,127
100117,note_on,2,0,0,,1,,,85,127
100171,note_off,54,0,0,,1,,,85,127
100173,note_on,2,0,0,,12,,,83,127
100227,note_off,54,0,0,,12,,,83,127
100229,note_on,2,0,0,,1,,,85,127
100283,note_off,54,0,0,,1,,,85,127
100285,note_on,2,0,0,,12,,,83,127
100339,note_off,54,0,0,,7,,,55,127
100341,note_on,2,0,0,,4,,,52,127
100452,note_off,111,0,0,,12,,,83,127
100454,note_on,2,0,0,,6,,,78,127
100565,note_off,111,0,0,,6,,,78,127
100567,note_on,2,0,0,,7,,,79,127
100678,note_off,111,0,0,,7,,,79,127
100680,note_on,2,0,0,,4,,,76,127
100791,note_off,111,0,0,,4,,,76,127
100791,note_off,0,0,0,,4,,,52,127
100793,note_on,2,0,0,,6,,,54,127
100793,note_on,0,0,0,,4,,,76,127
100793,note_on,0,0,0,,6,,,78,127
100904,note_off,111,0,0,,6,,,78,127
100904,note_off,0,0,0,,4,,,76,127
100906,note_on,2,0,0,,2,,,74,127
101017,note_off,111,0,0,,2,,,74,127
101019,note_on,2,0,0,,4,,,76,127
101019,note_on,0,0,0,,2,,,74,127
101130,note_off,111,0,0,,2,,,74,127
101130,note_off,0,0,0,,4,,,76,127
101132,note_on,2,0,0,,1,,,73,127
101243,note_off,111,0,0,,1,,,73,127
101243,note_off,0,0,0,,6,,,54,127
101245,note_on,2,0,0,,12,,,59,127
101245,note_on,0,0,0,,2,,,74,127
101469,note_off,224,0,0,,2,,,74,127
101471,note_on,2,0,0,,1,,,85,127
101525,note_off,54,0,0,,1,,,85,127
101527,note_on,2,0,0,,12,,,83,127
101581,note_off,54,0,0,,12,,,83,127
101583,note_on,2,0,0,,1,,,85,127
101637,note_off,54,0,0,,1,,,85,127
101639,note_on,2,0,0,,12,,,83,127
101693,note_off,54,0,0,,12,,,59,127
101695,note_on,2,0,0,,7,,,55,127
101919,note_off,224,0,0,,12,,,83,127
101921,note_on,2,0,0,,1,,,85,127
101975,note_off,54,0,0,,1,,,85,127
101977,note_on,2,0,0,,12,,,83,127
102031,note_off,54,0,0,,12,,,83,127
102033,note_on,2,0,0,,1,,,85,127
102087,note_off,54,0,0,,1,,,85,127
102089,note_on,2,0,0,,12,,,83,127
102143,note_off,54,0,0,,7,,,55,127
102145,note_on,2,0,0,,4,,,52,127
102256,note_off,111,0,0,,12,,,83,127
102258,note_on,2,0,0,,1,,,73,127
102369,note_off,111,0,0,,1,,,73,127
102371,note_on,2,0,0,,2,,,74,127
102482,note_off,111,0,0,,2,,,74,127
102484,note_on,2,0,0,,4,,,76,127
102595,note_off,111,0,0,,4,,,76,127
102595,note_off,0,0,0,,4,,,52,127
102597,note_on,2,0,0,,6,,,54,127
102597,note_on,0,0,0,,4,,,76,127
102597,note_on,0,0,0,,2,,,74,127
102708,note_off,111,0,0,,2,,,74,127
102708,note_off,0,0,0,,4,,,76,127
102710,note_on,2,0,0,,1,,,73,127
102821,note_off,111,0,0,,1,,,73,127
102823,note_on,2,0,0,,12,,,71,127
102934,note_off,111,0,0,,12,,,71,127
102936,note_on,2,0,0,,11,,,70,127
103047,note_off,111,0,0,,11,,,70,127
103047,note_off,0,0,0,,6,,,54,127
103049,note_on,2,0,0,,12,,,47,127
103049,note_on,0,0,0,,12,,,71,127
103162,note_on,113,0,0,,6,,,78,127
103273,note_off,111,0,0,,6,,,78,127
103273,note_off,0,0,0,,12,,,47,127
103275,note_on,2,0,0,,4,,,52,127
103275,note_on,0,0,0,,7,,,79,127
103379,note_off,104,0,0,,12,,,71,127
103388,note_on,9,0,0,,11,,,70,127
103499,note_off,111,0,0,,11,,,70,127
103499,note_off,0,0,0,,4,,,52,127
103501,note_on,2,0,0,,2,,,50,127
103501,note_on,0,0,0,,12,,,71,127
103605,note_off,104,0,0,,7,,,79,127
103614,note_on,9,0,0,,6,,,78,127
103725,note_off,111,0,0,,6,,,78,127
103725,note_off,0,0,0,,2,,,50,127
103727,note_on,2,0,0,,1,,,49,127
103727,note_on,0,0,0,,4,,,76,127
103831,note_off,104,0,0,,12,,,71,127
103840,note_on,9,0,0,,1,,,73,127
103951,note_off,111,0,0,,1,,,73,127
103951,note_off,0,0,0,,4,,,76,127
103951,note_off,0,0,0,,1,,,49,127
103953,note_on,2,0,0,,12,,,47,127
103953,note_on,0,0,0,,2,,,74,127
104066,note_on,113,0,0,,6,,,66,127
104177,note_off,111,0,0,,6,,,66,127
104177,note_off,0,0,0,,12,,,47,127
104179,note_on,2,0,0,,4,,,52,127
104179,note_on,0,0,0,,7,,,67,127
104283,note_off,104,0,0,,2,,,74,127
104290,note_off,7,0,0,,7,,,67,127
104292,note_on,2,0,0,,4,,,64,127
104292,note_on,0,0,0,,1,,,73,127
104403,note_off,111,0,0,,4,,,64,127
104403,note_off,0,0,0,,4,,,52,127
104405,note_on,2,0,0,,2,,,50,127
104405,note_on,0,0,0,,6,,,66,127
104516,note_off,111,0,0,,1,,,73,127
104518,note_on,2,0,0,,12,,,71,127
104629,note_off,111,0,0,,6,,,66,127
104629,note_off,0,0,0,,2,,,50,127
104631,note_on,2,0,0,,1,,,49,127
104631,note_on,0,0,0,,4,,,64,127
104742,note_off,111,0,0,,12,,,71,127
104744,note_on,2,0,0,,11,,,70,127
104855,note_off,111,0,0,,11,,,70,127
104855,note_off,0,0,0,,4,,,64,127
104855,note_off,0,0,0,,1,,,49,127
104857,note_on,2,0,0,,12,,,47,127
104857,note_on,0,0,0,,12,,,71,127
104968,note_off,111,0,0,,12,,,71,127
104970,note_on,2,0,0,,6,,,66,127
105081,note_off,111,0,0,,6,,,66,127
105081,note_off,0,0,0,,12,,,47,127
105083,note_on,2,0,0,,4,,,52,127
105083,note_on,0,0,0,,7,,,67,127
105194,note_off,111,0,0,,7,,,67,127
105196,note_on,2,0,0,,12,,,59,127
105307,note_off,111,0,0,,12,,,59,127
105307,note_off,0,0,0,,4,,,52,127
105309,note_on,2,0,0,,6,,,54,127
105309,note_on,0,0,0,,12,,,59,127
105533,note_off,224,0,0,,12,,,59,127
105533,note_off,0,0,0,,6,,,54,127
105535,note_on,2,0,0,,6,,,42,127
105535,note_on,0,0,0,,11,,,58,127
105759,note_off,224,0,0,,11,,,58,127
105759,note_off,0,0,0,,6,,,42,127
105761,note_on,2,0,0,,12,,,47,127
105761,note_on,0,0,0,,11,,,58,127
106097,note_off,336,0,0,,11,,,58,127
106099,note_on,2,0,0,,12,,,59,127
107558,note_off,1459,0,0,,12,,,59,127
107563,note_off,5,0,0,,12,,,47,127
112128,end_of_track,4565,1,0,,,,,,
