tick,type,time,meta,track,program,channel,pitch,tempo,note,velocity
0,copyright,0,1,0,,,,,,
0,program_change,0,0,0,6,0,,,,
0,pitchwheel,0,0,0,,0,0,,,
0,program_change,0,0,0,6,1,,,,
0,pitchwheel,0,0,0,,1,-590,,,
0,program_change,0,0,0,6,2,,,,
0,pitchwheel,0,0,0,,2,-272,,,
0,program_change,0,0,0,6,3,,,,
0,pitchwheel,0,0,0,,3,-353,,,
0,program_change,0,0,0,6,4,,,,
0,pitchwheel,0,0,0,,4,-560,,,
0,program_change,0,0,0,6,5,,,,
0,pitchwheel,0,0,0,,5,-80,,,
0,program_change,0,0,0,6,6,,,,
0,pitchwheel,0,0,0,,6,-625,,,
0,program_change,0,0,0,6,7,,,,
0,pitchwheel,0,0,0,,7,-130,,,
0,program_change,0,0,0,6,8,,,,
0,pitchwheel,0,0,0,,8,-512,,,
0,program_change,0,0,0,6,10,,,,
0,pitchwheel,0,0,0,,10,-464,,,
0,program_change,0,0,0,6,11,,,,
0,pitchwheel,0,0,0,,11,-208,,,
0,program_change,0,0,0,6,12,,,,
0,pitchwheel,0,0,0,,12,-553,,,
0,set_tempo,0,1,0,,,,500000,,
96,note_on,96,0,0,,2,,,62,127
96,note_on,0,0,0,,10,,,81,127
479,note_off,383,0,0,,2,,,62,127
480,note_on,1,0,0,,10,,,57,127
863,note_off,383,0,0,,10,,,57,127
864,note_on,1,0,0,,5,,,53,127
1247,note_off,383,0,0,,5,,,53,127
1248,note_on,1,0,0,,2,,,50,127
1439,note_off,191,0,0,,10,,,81,127
1440,note_on,1,0,0,,5,,,77,127
1631,note_off,191,0,0,,5,,,77,127
1632,note_on,1,0,0,,2,,,74,127
1823,note_off,191,0,0,,2,,,74,127
1824,note_on,1,0,0,,10,,,69,127
2015,note_off,191,0,0,,10,,,69,127
2016,note_on,1,0,0,,5,,,65,127
2207,note_off,191,0,0,,5,,,65,127
2208,note_on,1,0,0,,2,,,62,127
2398,note_off,190,0,0,,2,,,50,127
2399,note_off,1,0,0,,2,,,62,127
2400,note_on,1,0,0,,11,,,82,127
2592,note_on,192,0,0,,7,,,55,127
2783,note_off,191,0,0,,7,,,55,127
2784,note_on,1,0,0,,11,,,58,127
2975,note_off,191,0,0,,11,,,58,127
2976,note_on,1,0,0,,2,,,62,127
3167,note_off,191,0,0,,2,,,62,127
3168,note_on,1,0,0,,7,,,67,127
3359,note_off,191,0,0,,7,,,67,127
3360,note_on,1,0,0,,11,,,70,127
3551,note_off,191,0,0,,11,,,70,127
3552,note_on,1,0,0,,0,,,48,127
3743,note_off,191,0,0,,11,,,82,127
3744,note_on,1,0,0,,7,,,79,127
3935,note_off,191,0,0,,7,,,79,127
3936,note_on,1,0,0,,4,,,76,127
4127,note_off,191,0,0,,4,,,76,127
4128,note_on,1,0,0,,0,,,72,127
4319,note_off,191,0,0,,0,,,72,127
4320,note_on,1,0,0,,11,,,70,127
4511,note_off,191,0,0,,11,,,70,127
4512,note_on,1,0,0,,7,,,67,127
4702,note_off,190,0,0,,0,,,48,127
4703,note_off,1,0,0,,7,,,67,127
4704,note_on,1,0,0,,0,,,84,127
4896,note_on,192,0,0,,3,,,51,127
5087,note_off,191,0,0,,3,,,51,127
5088,note_on,1,0,0,,6,,,54,127
5279,note_off,191,0,0,,6,,,54,127
5280,note_on,1,0,0,,10,,,57,127
5471,note_off,191,0,0,,10,,,57,127
5472,note_on,1,0,0,,0,,,60,127
5663,note_off,191,0,0,,0,,,60,127
5664,note_on,1,0,0,,3,,,63,127
5855,note_off,191,0,0,,3,,,63,127
5856,note_on,1,0,0,,2,,,50,127
6047,note_off,191,0,0,,0,,,84,127
6048,note_on,1,0,0,,10,,,81,127
6239,note_off,191,0,0,,10,,,81,127
6240,note_on,1,0,0,,6,,,78,127
6431,note_off,191,0,0,,6,,,78,127
6432,note_on,1,0,0,,0,,,72,127
6623,note_off,191,0,0,,0,,,72,127
6624,note_on,1,0,0,,10,,,69,127
6815,note_off,191,0,0,,10,,,69,127
6816,note_on,1,0,0,,6,,,66,127
7006,note_off,190,0,0,,2,,,50,127
7007,note_off,1,0,0,,6,,,66,127
7008,note_on,1,0,0,,2,,,86,127
7200,note_on,192,0,0,,5,,,53,127
7391,note_off,191,0,0,,5,,,53,127
7392,note_on,1,0,0,,8,,,56,127
7583,note_off,191,0,0,,8,,,56,127
7584,note_on,1,0,0,,12,,,59,127
7775,note_off,191,0,0,,12,,,59,127
7776,note_on,1,0,0,,2,,,62,127
7967,note_off,191,0,0,,2,,,62,127
7968,note_on,1,0,0,,5,,,65,127
8159,note_off,191,0,0,,5,,,65,127
8160,note_on,1,0,0,,4,,,52,127
8351,note_off,191,0,0,,2,,,86,127
8352,note_on,1,0,0,,12,,,83,127
8543,note_off,191,0,0,,12,,,83,127
8544,note_on,1,0,0,,8,,,80,127
8735,note_off,191,0,0,,8,,,80,127
8736,note_on,1,0,0,,4,,,76,127
8927,note_off,191,0,0,,4,,,76,127
8928,note_on,1,0,0,,2,,,74,127
9119,note_off,191,0,0,,2,,,74,127
9120,note_on,1,0,0,,12,,,71,127
9311,note_off,191,0,0,,12,,,71,127
9311,note_off,0,0,0,,4,,,52,127
9312,note_on,1,0,0,,10,,,57,127
9312,note_on,0,0,0,,1,,,73,127
9503,note_off,191,0,0,,1,,,73,127
9504,note_on,1,0,0,,2,,,74,127
9695,note_off,191,0,0,,2,,,74,127
9696,note_on,1,0,0,,4,,,76,127
9887,note_off,191,0,0,,10,,,57,127
9888,note_on,1,0,0,,7,,,55,127
10079,note_off,191,0,0,,7,,,55,127
10079,note_off,0,0,0,,4,,,76,127
10080,note_on,1,0,0,,5,,,53,127
10080,note_on,0,0,0,,10,,,81,127
10272,note_on,192,0,0,,10,,,69,127
10463,note_off,191,0,0,,10,,,69,127
10463,note_off,0,0,0,,5,,,53,127
10464,note_on,1,0,0,,4,,,52,127
10464,note_on,0,0,0,,12,,,71,127
10655,note_off,191,0,0,,12,,,71,127
10655,note_off,0,0,0,,10,,,81,127
10656,note_on,1,0,0,,7,,,79,127
10656,note_on,0,0,0,,1,,,73,127
10847,note_off,191,0,0,,1,,,73,127
10847,note_off,0,0,0,,4,,,52,127
10848,note_on,1,0,0,,2,,,50,127
10848,note_on,0,0,0,,2,,,74,127
11039,note_off,191,0,0,,7,,,79,127
11040,note_on,1,0,0,,5,,,77,127
11231,note_off,191,0,0,,5,,,77,127
11231,note_off,0,0,0,,2,,,74,127
11231,note_off,0,0,0,,2,,,50,127
11232,note_on,1,0,0,,7,,,55,127
11232,note_on,0,0,0,,4,,,76,127
11232,note_on,0,0,0,,11,,,70,127
11423,note_off,191,0,0,,4,,,76,127
11424,note_on,1,0,0,,2,,,74,127
11615,note_off,191,0,0,,2,,,74,127
11615,note_off,0,0,0,,11,,,70,127
11615,note_off,0,0,0,,7,,,55,127
11616,note_on,1,0,0,,10,,,57,127
11616,note_on,0,0,0,,1,,,73,127
11616,note_on,0,0,0,,10,,,69,127
11807,note_off,191,0,0,,1,,,73,127
11808,note_on,1,0,0,,2,,,74,127
11904,note_off,96,0,0,,10,,,69,127
11999,note_off,95,0,0,,2,,,74,127
12000,note_on,1,0,0,,4,,,76,127
12191,note_off,191,0,0,,10,,,57,127
12192,note_on,1,0,0,,7,,,55,127
12383,note_off,191,0,0,,7,,,55,127
12383,note_off,0,0,0,,4,,,76,127
12384,note_on,1,0,0,,5,,,53,127
12384,note_on,0,0,0,,10,,,81,127
12576,note_on,192,0,0,,10,,,69,127
12767,note_off,191,0,0,,10,,,69,127
12767,note_off,0,0,0,,5,,,53,127
12768,note_on,1,0,0,,4,,,52,127
12768,note_on,0,0,0,,12,,,71,127
12959,note_off,191,0,0,,12,,,71,127
12959,note_off,0,0,0,,10,,,81,127
12960,note_on,1,0,0,,1,,,73,127
12960,note_on,0,0,0,,7,,,79,127
13151,note_off,191,0,0,,1,,,73,127
13151,note_off,0,0,0,,4,,,52,127
13152,note_on,1,0,0,,2,,,50,127
13152,note_on,0,0,0,,2,,,74,127
13343,note_off,191,0,0,,7,,,79,127
13344,note_on,1,0,0,,5,,,77,127
13535,note_off,191,0,0,,5,,,77,127
13535,note_off,0,0,0,,2,,,74,127
13535,note_off,0,0,0,,2,,,50,127
13536,note_on,1,0,0,,7,,,55,127
13536,note_on,0,0,0,,4,,,76,127
13536,note_on,0,0,0,,11,,,70,127
13727,note_off,191,0,0,,4,,,76,127
13728,note_on,1,0,0,,2,,,74,127
13919,note_off,191,0,0,,11,,,70,127
13919,note_off,0,0,0,,7,,,55,127
13920,note_on,1,0,0,,10,,,57,127
13920,note_on,0,0,0,,10,,,69,127
13984,note_on,64,0,0,,1,,,73,127
13988,note_off,4,0,0,,2,,,74,127
14047,note_off,59,0,0,,1,,,73,127
14048,note_on,1,0,0,,2,,,74,127
14111,note_off,63,0,0,,2,,,74,127
14112,note_on,1,0,0,,1,,,73,127
14175,note_off,63,0,0,,1,,,73,127
14176,note_on,1,0,0,,2,,,74,127
14239,note_off,63,0,0,,2,,,74,127
14240,note_on,1,0,0,,1,,,73,127
14303,note_off,63,0,0,,1,,,73,127
14304,note_on,1,0,0,,2,,,74,127
14367,note_off,63,0,0,,2,,,74,127
14368,note_on,1,0,0,,1,,,73,127
14495,note_off,127,0,0,,1,,,73,127
14495,note_off,0,0,0,,10,,,69,127
14496,note_on,1,0,0,,12,,,71,127
14687,note_off,191,0,0,,12,,,71,127
14687,note_off,0,0,0,,10,,,57,127
14688,note_on,1,0,0,,10,,,45,127
14688,note_on,0,0,0,,10,,,69,127
15071,note_off,383,0,0,,10,,,69,127
15071,note_off,0,0,0,,10,,,45,127
15072,note_on,1,0,0,,2,,,38,127
15072,note_on,0,0,0,,2,,,50,127
15072,note_on,0,0,0,,10,,,81,127
15168,note_on,96,0,0,,6,,,78,127
15182,note_off,14,0,0,,10,,,81,127
15264,note_on,82,0,0,,7,,,79,127
15278,note_off,14,0,0,,6,,,78,127
15360,note_on,82,0,0,,4,,,76,127
15374,note_off,14,0,0,,7,,,79,127
15456,note_on,82,0,0,,6,,,78,127
15470,note_off,14,0,0,,4,,,76,127
15552,note_on,82,0,0,,2,,,74,127
15566,note_off,14,0,0,,6,,,78,127
15648,note_on,82,0,0,,4,,,76,127
15662,note_off,14,0,0,,2,,,74,127
15744,note_on,82,0,0,,1,,,73,127
15758,note_off,14,0,0,,4,,,76,127
15840,note_on,82,0,0,,2,,,74,127
15854,note_off,14,0,0,,1,,,73,127
15936,note_on,82,0,0,,10,,,69,127
15950,note_off,14,0,0,,2,,,74,127
16032,note_on,82,0,0,,6,,,78,127
16046,note_off,14,0,0,,10,,,69,127
16128,note_on,82,0,0,,4,,,76,127
16142,note_off,14,0,0,,6,,,78,127
16223,note_off,81,0,0,,2,,,50,127
16223,note_off,0,0,0,,2,,,38,127
16224,note_on,1,0,0,,2,,,62,127
16224,note_on,0,0,0,,2,,,74,127
16238,note_off,14,0,0,,4,,,76,127
16320,note_on,82,0,0,,10,,,57,127
16328,note_off,8,0,0,,2,,,62,127
16416,note_on,88,0,0,,12,,,59,127
16424,note_off,8,0,0,,10,,,57,127
16512,note_on,88,0,0,,7,,,55,127
16520,note_off,8,0,0,,12,,,59,127
16608,note_on,88,0,0,,10,,,57,127
16616,note_off,8,0,0,,7,,,55,127
16704,note_on,88,0,0,,6,,,54,127
16712,note_off,8,0,0,,10,,,57,127
16800,note_on,88,0,0,,7,,,55,127
16808,note_off,8,0,0,,6,,,54,127
16896,note_on,88,0,0,,4,,,52,127
16904,note_off,8,0,0,,7,,,55,127
16992,note_on,88,0,0,,6,,,54,127
17000,note_off,8,0,0,,4,,,52,127
17088,note_on,88,0,0,,2,,,50,127
17096,note_off,8,0,0,,6,,,54,127
17184,note_on,88,0,0,,6,,,54,127
17192,note_off,8,0,0,,2,,,50,127
17280,note_on,88,0,0,,4,,,52,127
17288,note_off,8,0,0,,6,,,54,127
17375,note_off,87,0,0,,2,,,74,127
17376,note_on,1,0,0,,2,,,50,127
17376,note_on,0,0,0,,10,,,81,127
17384,note_off,8,0,0,,4,,,52,127
17472,note_on,88,0,0,,6,,,78,127
17486,note_off,14,0,0,,10,,,81,127
17568,note_on,82,0,0,,7,,,79,127
17582,note_off,14,0,0,,6,,,78,127
17664,note_on,82,0,0,,4,,,76,127
17678,note_off,14,0,0,,7,,,79,127
17760,note_on,82,0,0,,6,,,78,127
17774,note_off,14,0,0,,4,,,76,127
17856,note_on,82,0,0,,2,,,74,127
17870,note_off,14,0,0,,6,,,78,127
17952,note_on,82,0,0,,4,,,76,127
17966,note_off,14,0,0,,2,,,74,127
18048,note_on,82,0,0,,1,,,73,127
18062,note_off,14,0,0,,4,,,76,127
18144,note_on,82,0,0,,2,,,74,127
18158,note_off,14,0,0,,1,,,73,127
18240,note_on,82,0,0,,10,,,69,127
18254,note_off,14,0,0,,2,,,74,127
18336,note_off,82,0,0,,2,,,50,127
18336,note_on,0,0,0,,6,,,78,127
18350,note_off,14,0,0,,10,,,69,127
18432,note_on,82,0,0,,4,,,76,127
18446,note_off,14,0,0,,6,,,78,127
18528,note_on,82,0,0,,2,,,62,127
18528,note_on,0,0,0,,2,,,74,127
18542,note_off,14,0,0,,4,,,76,127
18624,note_on,82,0,0,,10,,,57,127
18632,note_off,8,0,0,,2,,,62,127
18720,note_on,88,0,0,,12,,,59,127
18728,note_off,8,0,0,,10,,,57,127
18816,note_on,88,0,0,,7,,,55,127
18824,note_off,8,0,0,,12,,,59,127
18912,note_on,88,0,0,,10,,,57,127
18920,note_off,8,0,0,,7,,,55,127
19008,note_on,88,0,0,,6,,,54,127
19016,note_off,8,0,0,,10,,,57,127
19104,note_on,88,0,0,,7,,,55,127
19112,note_off,8,0,0,,6,,,54,127
19200,note_on,88,0,0,,4,,,52,127
19208,note_off,8,0,0,,7,,,55,127
19296,note_on,88,0,0,,6,,,54,127
19304,note_off,8,0,0,,4,,,52,127
19392,note_on,88,0,0,,2,,,50,127
19400,note_off,8,0,0,,6,,,54,127
19488,note_on,88,0,0,,6,,,54,127
19496,note_off,8,0,0,,2,,,50,127
19584,note_on,88,0,0,,4,,,52,127
19592,note_off,8,0,0,,6,,,54,127
19679,note_off,87,0,0,,2,,,74,127
19680,note_on,1,0,0,,2,,,50,127
19680,note_on,0,0,0,,10,,,81,127
19688,note_off,8,0,0,,4,,,52,127
19776,note_on,88,0,0,,6,,,78,127
19790,note_off,14,0,0,,10,,,81,127
19872,note_on,82,0,0,,7,,,79,127
19886,note_off,14,0,0,,6,,,78,127
19968,note_on,82,0,0,,4,,,76,127
19982,note_off,14,0,0,,7,,,79,127
20064,note_on,82,0,0,,6,,,78,127
20078,note_off,14,0,0,,4,,,76,127
20160,note_on,82,0,0,,2,,,74,127
20174,note_off,14,0,0,,6,,,78,127
20256,note_on,82,0,0,,4,,,76,127
20270,note_off,14,0,0,,2,,,74,127
20352,note_on,82,0,0,,1,,,73,127
20366,note_off,14,0,0,,4,,,76,127
20448,note_on,82,0,0,,2,,,74,127
20462,note_off,14,0,0,,1,,,73,127
20540,note_off,78,0,0,,2,,,50,127
20544,note_on,4,0,0,,12,,,71,127
20558,note_off,14,0,0,,2,,,74,127
20640,note_on,82,0,0,,1,,,73,127
20654,note_off,14,0,0,,12,,,71,127
20736,note_on,82,0,0,,10,,,69,127
20750,note_off,14,0,0,,1,,,73,127
20832,note_on,82,0,0,,7,,,67,127
20832,note_on,0,0,0,,12,,,71,127
20846,note_off,14,0,0,,10,,,69,127
20928,note_on,82,0,0,,4,,,64,127
20936,note_off,8,0,0,,7,,,67,127
21024,note_on,88,0,0,,6,,,66,127
21032,note_off,8,0,0,,4,,,64,127
21120,note_on,88,0,0,,2,,,62,127
21128,note_off,8,0,0,,6,,,66,127
21216,note_on,88,0,0,,4,,,64,127
21224,note_off,8,0,0,,2,,,62,127
21312,note_on,88,0,0,,1,,,61,127
21320,note_off,8,0,0,,4,,,64,127
21408,note_on,88,0,0,,2,,,62,127
21416,note_off,8,0,0,,1,,,61,127
21504,note_on,88,0,0,,12,,,59,127
21512,note_off,8,0,0,,2,,,62,127
21600,note_on,88,0,0,,1,,,61,127
21608,note_off,8,0,0,,12,,,59,127
21696,note_on,88,0,0,,10,,,57,127
21704,note_off,8,0,0,,1,,,61,127
21792,note_on,88,0,0,,12,,,59,127
21800,note_off,8,0,0,,10,,,57,127
21888,note_on,88,0,0,,7,,,55,127
21896,note_off,8,0,0,,12,,,59,127
21983,note_off,87,0,0,,12,,,71,127
21984,note_on,1,0,0,,10,,,57,127
21984,note_on,0,0,0,,4,,,76,127
21992,note_off,8,0,0,,7,,,55,127
22080,note_on,88,0,0,,1,,,73,127
22094,note_off,14,0,0,,4,,,76,127
22176,note_on,82,0,0,,2,,,74,127
22190,note_off,14,0,0,,1,,,73,127
22272,note_on,82,0,0,,12,,,71,127
22286,note_off,14,0,0,,2,,,74,127
22368,note_on,82,0,0,,1,,,73,127
22382,note_off,14,0,0,,12,,,71,127
22464,note_on,82,0,0,,10,,,69,127
22478,note_off,14,0,0,,1,,,73,127
22560,note_on,82,0,0,,12,,,71,127
22574,note_off,14,0,0,,10,,,69,127
22656,note_on,82,0,0,,7,,,67,127
22670,note_off,14,0,0,,12,,,71,127
22752,note_on,82,0,0,,10,,,69,127
22766,note_off,14,0,0,,7,,,67,127
22848,note_on,82,0,0,,6,,,66,127
22862,note_off,14,0,0,,10,,,69,127
22944,note_on,82,0,0,,7,,,67,127
22958,note_off,14,0,0,,6,,,66,127
23040,note_on,82,0,0,,4,,,64,127
23054,note_off,14,0,0,,7,,,67,127
23135,note_off,81,0,0,,10,,,57,127
23136,note_on,1,0,0,,2,,,62,127
23136,note_on,0,0,0,,6,,,66,127
23150,note_off,14,0,0,,4,,,64,127
23232,note_on,82,0,0,,10,,,57,127
23240,note_off,8,0,0,,2,,,62,127
23328,note_on,88,0,0,,12,,,59,127
23336,note_off,8,0,0,,10,,,57,127
23424,note_on,88,0,0,,7,,,55,127
23432,note_off,8,0,0,,12,,,59,127
23520,note_on,88,0,0,,10,,,57,127
23528,note_off,8,0,0,,7,,,55,127
23616,note_on,88,0,0,,6,,,54,127
23624,note_off,8,0,0,,10,,,57,127
23712,note_on,88,0,0,,7,,,55,127
23720,note_off,8,0,0,,6,,,54,127
23808,note_on,88,0,0,,4,,,52,127
23816,note_off,8,0,0,,7,,,55,127
23904,note_on,88,0,0,,6,,,54,127
23912,note_off,8,0,0,,4,,,52,127
24000,note_on,88,0,0,,2,,,50,127
24008,note_off,8,0,0,,6,,,54,127
24096,note_on,88,0,0,,10,,,57,127
24104,note_off,8,0,0,,2,,,50,127
24192,note_on,88,0,0,,7,,,55,127
24200,note_off,8,0,0,,10,,,57,127
24287,note_off,87,0,0,,7,,,55,127
24288,note_off,1,0,0,,6,,,66,127
24288,note_on,0,0,0,,10,,,57,127
24288,note_on,0,0,0,,6,,,54,127
24480,note_on,192,0,0,,4,,,76,127
24671,note_off,191,0,0,,4,,,76,127
24671,note_off,0,0,0,,6,,,54,127
24671,note_off,0,0,0,,10,,,57,127
24672,note_on,1,0,0,,10,,,57,127
24672,note_on,0,0,0,,6,,,54,127
24672,note_on,0,0,0,,3,,,75,127
24864,note_on,192,0,0,,12,,,71,127
25055,note_off,191,0,0,,12,,,71,127
25055,note_off,0,0,0,,6,,,54,127
25055,note_off,0,0,0,,10,,,57,127
25056,note_on,1,0,0,,6,,,54,127
25056,note_on,0,0,0,,10,,,57,127
25056,note_on,0,0,0,,10,,,69,127
25247,note_off,191,0,0,,3,,,75,127
25248,note_on,1,0,0,,3,,,75,127
25439,note_off,191,0,0,,10,,,69,127
25439,note_off,0,0,0,,10,,,57,127
25439,note_off,0,0,0,,6,,,54,127
25440,note_on,1,0,0,,10,,,57,127
25440,note_on,0,0,0,,6,,,54,127
25631,note_off,191,0,0,,3,,,75,127
25632,note_on,1,0,0,,4,,,76,127
25823,note_off,191,0,0,,4,,,76,127
25823,note_off,0,0,0,,6,,,54,127
25823,note_off,0,0,0,,10,,,57,127
25824,note_on,1,0,0,,10,,,57,127
25824,note_on,0,0,0,,6,,,54,127
25824,note_on,0,0,0,,3,,,75,127
26016,note_on,192,0,0,,12,,,71,127
26207,note_off,191,0,0,,12,,,71,127
26207,note_off,0,0,0,,6,,,54,127
26207,note_off,0,0,0,,10,,,57,127
26208,note_on,1,0,0,,6,,,54,127
26208,note_on,0,0,0,,10,,,57,127
26208,note_on,0,0,0,,10,,,69,127
26399,note_off,191,0,0,,3,,,75,127
26400,note_on,1,0,0,,3,,,75,127
26591,note_off,191,0,0,,10,,,69,127
26591,note_off,0,0,0,,10,,,57,127
26591,note_off,0,0,0,,6,,,54,127
26592,note_on,1,0,0,,6,,,54,127
26592,note_on,0,0,0,,10,,,57,127
26783,note_off,191,0,0,,3,,,75,127
26784,note_on,1,0,0,,4,,,76,127
26975,note_off,191,0,0,,4,,,76,127
26976,note_on,1,0,0,,3,,,75,127
27168,note_on,192,0,0,,0,,,72,127
27359,note_off,191,0,0,,0,,,72,127
27359,note_off,0,0,0,,3,,,75,127
27359,note_off,0,0,0,,10,,,57,127
27359,note_off,0,0,0,,6,,,54,127
27360,note_on,1,0,0,,10,,,57,127
27360,note_on,0,0,0,,5,,,53,127
27360,note_on,0,0,0,,2,,,74,127
27360,note_on,0,0,0,,12,,,71,127
27551,note_off,191,0,0,,12,,,71,127
27552,note_on,1,0,0,,10,,,69,127
27743,note_off,191,0,0,,10,,,69,127
27743,note_off,0,0,0,,5,,,53,127
27743,note_off,0,0,0,,10,,,57,127
27744,note_on,1,0,0,,4,,,52,127
27744,note_on,0,0,0,,12,,,59,127
27744,note_on,0,0,0,,8,,,68,127
27935,note_off,191,0,0,,2,,,74,127
27936,note_on,1,0,0,,5,,,77,127
28127,note_off,191,0,0,,5,,,77,127
28127,note_off,0,0,0,,12,,,59,127
28127,note_off,0,0,0,,4,,,52,127
28128,note_on,1,0,0,,4,,,52,127
28128,note_on,0,0,0,,4,,,76,127
28319,note_off,191,0,0,,4,,,76,127
28320,note_on,1,0,0,,2,,,74,127
28511,note_off,191,0,0,,2,,,74,127
28511,note_off,0,0,0,,4,,,52,127
28512,note_on,1,0,0,,4,,,52,127
28512,note_on,0,0,0,,0,,,72,127
28703,note_off,191,0,0,,0,,,72,127
28704,note_on,1,0,0,,12,,,71,127
28895,note_off,191,0,0,,12,,,71,127
28895,note_off,0,0,0,,4,,,52,127
28895,note_off,0,0,0,,8,,,68,127
28896,note_on,1,0,0,,10,,,57,127
28896,note_on,0,0,0,,0,,,72,127
28896,note_on,0,0,0,,10,,,69,127
29087,note_off,191,0,0,,10,,,69,127
29088,note_on,1,0,0,,10,,,81,127
29276,note_off,188,0,0,,0,,,72,127
29279,note_off,3,0,0,,10,,,81,127
29279,note_off,0,0,0,,10,,,57,127
29280,note_on,1,0,0,,12,,,59,127
29280,note_on,0,0,0,,2,,,62,127
29280,note_on,0,0,0,,8,,,80,127
29472,note_on,192,0,0,,4,,,76,127
29663,note_off,191,0,0,,4,,,76,127
29663,note_off,0,0,0,,2,,,62,127
29663,note_off,0,0,0,,12,,,59,127
29664,note_on,1,0,0,,2,,,62,127
29664,note_on,0,0,0,,12,,,59,127
29664,note_on,0,0,0,,2,,,74,127
29855,note_off,191,0,0,,8,,,80,127
29856,note_on,1,0,0,,8,,,80,127
30047,note_off,191,0,0,,2,,,74,127
30047,note_off,0,0,0,,12,,,59,127
30047,note_off,0,0,0,,2,,,62,127
30048,note_on,1,0,0,,2,,,62,127
30048,note_on,0,0,0,,12,,,59,127
30239,note_off,191,0,0,,8,,,80,127
30240,note_on,1,0,0,,10,,,81,127
30431,note_off,191,0,0,,10,,,81,127
30431,note_off,0,0,0,,12,,,59,127
30431,note_off,0,0,0,,2,,,62,127
30432,note_on,1,0,0,,12,,,59,127
30432,note_on,0,0,0,,2,,,62,127
30432,note_on,0,0,0,,8,,,80,127
30624,note_on,192,0,0,,4,,,76,127
30815,note_off,191,0,0,,4,,,76,127
30815,note_off,0,0,0,,2,,,62,127
30815,note_off,0,0,0,,12,,,59,127
30816,note_on,1,0,0,,12,,,59,127
30816,note_on,0,0,0,,2,,,62,127
30816,note_on,0,0,0,,2,,,74,127
31007,note_off,191,0,0,,8,,,80,127
31008,note_on,1,0,0,,8,,,80,127
31199,note_off,191,0,0,,2,,,74,127
31199,note_off,0,0,0,,2,,,62,127
31199,note_off,0,0,0,,12,,,59,127
31200,note_on,1,0,0,,2,,,62,127
31200,note_on,0,0,0,,12,,,59,127
31391,note_off,191,0,0,,8,,,80,127
31392,note_on,1,0,0,,10,,,81,127
31583,note_off,191,0,0,,10,,,81,127
31583,note_off,0,0,0,,12,,,59,127
31583,note_off,0,0,0,,2,,,62,127
31584,note_on,1,0,0,,2,,,62,127
31584,note_on,0,0,0,,12,,,59,127
31584,note_on,0,0,0,,8,,,80,127
31776,note_on,192,0,0,,5,,,77,127
31967,note_off,191,0,0,,5,,,77,127
31967,note_off,0,0,0,,8,,,80,127
31967,note_off,0,0,0,,12,,,59,127
31967,note_off,0,0,0,,2,,,62,127
31968,note_on,1,0,0,,11,,,58,127
31968,note_on,0,0,0,,2,,,62,127
31968,note_on,0,0,0,,7,,,79,127
31968,note_on,0,0,0,,4,,,76,127
32159,note_off,191,0,0,,4,,,76,127
32160,note_on,1,0,0,,2,,,74,127
32351,note_off,191,0,0,,2,,,74,127
32351,note_off,0,0,0,,2,,,62,127
32351,note_off,0,0,0,,11,,,58,127
32352,note_on,1,0,0,,10,,,57,127
32352,note_on,0,0,0,,4,,,64,127
32352,note_on,0,0,0,,1,,,73,127
32543,note_off,191,0,0,,7,,,79,127
32544,note_on,1,0,0,,11,,,82,127
32735,note_off,191,0,0,,11,,,82,127
32735,note_off,0,0,0,,4,,,64,127
32735,note_off,0,0,0,,10,,,57,127
32736,note_on,1,0,0,,10,,,57,127
32736,note_on,0,0,0,,10,,,81,127
32927,note_off,191,0,0,,10,,,81,127
32928,note_on,1,0,0,,7,,,79,127
33119,note_off,191,0,0,,7,,,79,127
33119,note_off,0,0,0,,10,,,57,127
33120,note_on,1,0,0,,10,,,57,127
33120,note_on,0,0,0,,5,,,77,127
33311,note_off,191,0,0,,5,,,77,127
33312,note_on,1,0,0,,4,,,76,127
33503,note_off,191,0,0,,4,,,76,127
33503,note_off,0,0,0,,10,,,57,127
33504,note_off,1,0,0,,1,,,73,127
33504,note_on,0,0,0,,2,,,50,127
33504,note_on,0,0,0,,2,,,62,127
33504,note_on,0,0,0,,5,,,77,127
33504,note_on,0,0,0,,7,,,79,127
33695,note_off,191,0,0,,7,,,79,127
33695,note_off,0,0,0,,5,,,77,127
33696,note_on,1,0,0,,4,,,76,127
33887,note_off,191,0,0,,4,,,76,127
33888,note_on,1,0,0,,2,,,74,127
34079,note_off,191,0,0,,2,,,74,127
34079,note_off,0,0,0,,2,,,62,127
34079,note_off,0,0,0,,2,,,50,127
34080,note_on,1,0,0,,4,,,52,127
34080,note_on,0,0,0,,0,,,72,127
34271,note_off,191,0,0,,0,,,72,127
34271,note_off,0,0,0,,4,,,52,127
34272,note_on,1,0,0,,5,,,53,127
34272,note_on,0,0,0,,12,,,71,127
34463,note_off,191,0,0,,12,,,71,127
34464,note_on,1,0,0,,10,,,69,127
34655,note_off,191,0,0,,10,,,69,127
34655,note_off,0,0,0,,5,,,53,127
34656,note_on,1,0,0,,4,,,52,127
34656,note_on,0,0,0,,4,,,64,127
34656,note_on,0,0,0,,8,,,68,127
34847,note_off,191,0,0,,8,,,68,127
34848,note_on,1,0,0,,10,,,69,127
35039,note_off,191,0,0,,10,,,69,127
35040,note_on,1,0,0,,12,,,71,127
35231,note_off,191,0,0,,4,,,64,127
35231,note_off,0,0,0,,4,,,52,127
35232,note_on,1,0,0,,2,,,62,127
35423,note_off,191,0,0,,2,,,62,127
35423,note_off,0,0,0,,12,,,71,127
35424,note_on,1,0,0,,0,,,60,127
35424,note_on,0,0,0,,4,,,76,127
35616,note_on,192,0,0,,4,,,64,127
35807,note_off,191,0,0,,4,,,64,127
35807,note_off,0,0,0,,0,,,60,127
35808,note_on,1,0,0,,12,,,59,127
35808,note_on,0,0,0,,6,,,66,127
35999,note_off,191,0,0,,6,,,66,127
35999,note_off,0,0,0,,4,,,76,127
36000,note_on,1,0,0,,2,,,74,127
36000,note_on,0,0,0,,8,,,68,127
36191,note_off,191,0,0,,8,,,68,127
36191,note_off,0,0,0,,12,,,59,127
36192,note_on,1,0,0,,10,,,57,127
36192,note_on,0,0,0,,10,,,69,127
36383,note_off,191,0,0,,2,,,74,127
36384,note_on,1,0,0,,0,,,72,127
36575,note_off,191,0,0,,0,,,72,127
36575,note_off,0,0,0,,10,,,69,127
36575,note_off,0,0,0,,10,,,57,127
36576,note_on,1,0,0,,2,,,50,127
36576,note_on,0,0,0,,5,,,65,127
36576,note_on,0,0,0,,12,,,71,127
36767,note_off,191,0,0,,12,,,71,127
36768,note_on,1,0,0,,10,,,69,127
36959,note_off,191,0,0,,10,,,69,127
36959,note_off,0,0,0,,5,,,65,127
36959,note_off,0,0,0,,2,,,50,127
36960,note_on,1,0,0,,4,,,64,127
36960,note_on,0,0,0,,4,,,52,127
36960,note_on,0,0,0,,8,,,68,127
37151,note_off,191,0,0,,8,,,68,127
37152,note_on,1,0,0,,10,,,69,127
37343,note_off,191,0,0,,10,,,69,127
37344,note_on,1,0,0,,12,,,71,127
37535,note_off,191,0,0,,4,,,52,127
37535,note_off,0,0,0,,4,,,64,127
37536,note_on,1,0,0,,2,,,62,127
37727,note_off,191,0,0,,2,,,62,127
37727,note_off,0,0,0,,12,,,71,127
37728,note_on,1,0,0,,0,,,60,127
37728,note_on,0,0,0,,4,,,76,127
37920,note_on,192,0,0,,4,,,64,127
38111,note_off,191,0,0,,4,,,64,127
38111,note_off,0,0,0,,0,,,60,127
38112,note_on,1,0,0,,12,,,59,127
38112,note_on,0,0,0,,6,,,66,127
38303,note_off,191,0,0,,6,,,66,127
38303,note_off,0,0,0,,4,,,76,127
38304,note_on,1,0,0,,8,,,68,127
38304,note_on,0,0,0,,2,,,74,127
38495,note_off,191,0,0,,8,,,68,127
38495,note_off,0,0,0,,12,,,59,127
38496,note_on,1,0,0,,10,,,57,127
38496,note_on,0,0,0,,10,,,69,127
38687,note_off,191,0,0,,2,,,74,127
38688,note_on,1,0,0,,0,,,72,127
38879,note_off,191,0,0,,0,,,72,127
38879,note_off,0,0,0,,10,,,69,127
38879,note_off,0,0,0,,10,,,57,127
38880,note_on,1,0,0,,2,,,50,127
38880,note_on,0,0,0,,12,,,71,127
38880,note_on,0,0,0,,5,,,65,127
39071,note_off,191,0,0,,12,,,71,127
39072,note_on,1,0,0,,10,,,69,127
39263,note_off,191,0,0,,10,,,69,127
39263,note_off,0,0,0,,5,,,65,127
39263,note_off,0,0,0,,2,,,50,127
39264,note_on,1,0,0,,4,,,52,127
39264,note_on,0,0,0,,10,,,69,127
39327,note_off,63,0,0,,10,,,69,127
39328,note_on,1,0,0,,8,,,68,127
39391,note_off,63,0,0,,8,,,68,127
39392,note_on,1,0,0,,10,,,69,127
39455,note_off,63,0,0,,10,,,69,127
39456,note_on,1,0,0,,8,,,68,127
39519,note_off,63,0,0,,8,,,68,127
39520,note_on,1,0,0,,10,,,69,127
39583,note_off,63,0,0,,10,,,69,127
39584,note_on,1,0,0,,8,,,68,127
39647,note_off,63,0,0,,8,,,68,127
39648,note_on,1,0,0,,10,,,69,127
39711,note_off,63,0,0,,10,,,69,127
39712,note_on,1,0,0,,8,,,68,127
39839,note_off,127,0,0,,8,,,68,127
39840,note_on,1,0,0,,6,,,66,127
40031,note_off,191,0,0,,6,,,66,127
40032,note_on,1,0,0,,4,,,64,127
40415,note_off,383,0,0,,4,,,64,127
40415,note_off,0,0,0,,4,,,52,127
40416,note_on,1,0,0,,4,,,40,127
40416,note_on,0,0,0,,12,,,83,127
40512,note_on,96,0,0,,0,,,84,127
40526,note_off,14,0,0,,12,,,83,127
40608,note_on,82,0,0,,10,,,81,127
40622,note_off,14,0,0,,0,,,84,127
40704,note_on,82,0,0,,12,,,83,127
40718,note_off,14,0,0,,10,,,81,127
40800,note_on,82,0,0,,8,,,80,127
40814,note_off,14,0,0,,12,,,83,127
40896,note_on,82,0,0,,10,,,81,127
40910,note_off,14,0,0,,8,,,80,127
40992,note_on,82,0,0,,6,,,78,127
41006,note_off,14,0,0,,10,,,81,127
41088,note_on,82,0,0,,8,,,80,127
41102,note_off,14,0,0,,6,,,78,127
41184,note_on,82,0,0,,4,,,76,127
41198,note_off,14,0,0,,8,,,80,127
41280,note_on,82,0,0,,5,,,77,127
41294,note_off,14,0,0,,4,,,76,127
41376,note_on,82,0,0,,2,,,74,127
41390,note_off,14,0,0,,5,,,77,127
41472,note_on,82,0,0,,4,,,76,127
41486,note_off,14,0,0,,2,,,74,127
41568,note_on,82,0,0,,0,,,72,127
41582,note_off,14,0,0,,4,,,76,127
41663,note_off,81,0,0,,4,,,40,127
41664,note_on,1,0,0,,10,,,69,127
41760,note_on,96,0,0,,7,,,67,127
41768,note_off,8,0,0,,10,,,69,127
41856,note_on,88,0,0,,10,,,69,127
41864,note_off,8,0,0,,7,,,67,127
41952,note_on,88,0,0,,5,,,65,127
41960,note_off,8,0,0,,10,,,69,127
42048,note_on,88,0,0,,7,,,67,127
42056,note_off,8,0,0,,5,,,65,127
42144,note_on,88,0,0,,4,,,64,127
42152,note_off,8,0,0,,7,,,67,127
42240,note_on,88,0,0,,5,,,65,127
42248,note_off,8,0,0,,4,,,64,127
42336,note_on,88,0,0,,2,,,62,127
42344,note_off,8,0,0,,5,,,65,127
42432,note_on,88,0,0,,4,,,64,127
42440,note_off,8,0,0,,2,,,62,127
42528,note_on,88,0,0,,0,,,60,127
42536,note_off,8,0,0,,4,,,64,127
42624,note_on,88,0,0,,2,,,62,127
42632,note_off,8,0,0,,0,,,60,127
42719,note_off,87,0,0,,0,,,72,127
42720,note_on,1,0,0,,12,,,59,127
42720,note_on,0,0,0,,2,,,74,127
42728,note_off,8,0,0,,2,,,62,127
42816,note_on,88,0,0,,0,,,60,127
42824,note_off,8,0,0,,12,,,59,127
42912,note_on,88,0,0,,10,,,57,127
42920,note_off,8,0,0,,0,,,60,127
43008,note_on,88,0,0,,12,,,59,127
43016,note_off,8,0,0,,10,,,57,127
43104,note_on,88,0,0,,7,,,55,127
43112,note_off,8,0,0,,12,,,59,127
43200,note_on,88,0,0,,10,,,57,127
43208,note_off,8,0,0,,7,,,55,127
43296,note_on,88,0,0,,5,,,53,127
43304,note_off,8,0,0,,10,,,57,127
43392,note_on,88,0,0,,7,,,55,127
43400,note_off,8,0,0,,5,,,53,127
43488,note_on,88,0,0,,4,,,52,127
43496,note_off,8,0,0,,7,,,55,127
43584,note_on,88,0,0,,5,,,53,127
43592,note_off,8,0,0,,4,,,52,127
43680,note_on,88,0,0,,2,,,50,127
43688,note_off,8,0,0,,5,,,53,127
43776,note_on,88,0,0,,4,,,52,127
43784,note_off,8,0,0,,2,,,50,127
43871,note_off,87,0,0,,2,,,74,127
43872,note_on,1,0,0,,0,,,48,127
43872,note_on,0,0,0,,4,,,76,127
43880,note_off,8,0,0,,4,,,52,127
43968,note_on,88,0,0,,2,,,50,127
43976,note_off,8,0,0,,0,,,48,127
44064,note_on,88,0,0,,12,,,47,127
44072,note_off,8,0,0,,2,,,50,127
44160,note_on,88,0,0,,0,,,48,127
44168,note_off,8,0,0,,12,,,47,127
44256,note_on,88,0,0,,10,,,45,127
44264,note_off,8,0,0,,0,,,48,127
44352,note_on,88,0,0,,12,,,47,127
44360,note_off,8,0,0,,10,,,45,127
44448,note_on,88,0,0,,7,,,43,127
44456,note_off,8,0,0,,12,,,47,127
44544,note_on,88,0,0,,10,,,45,127
44552,note_off,8,0,0,,7,,,43,127
44640,note_on,88,0,0,,5,,,41,127
44648,note_off,8,0,0,,10,,,45,127
44736,note_on,88,0,0,,7,,,43,127
44744,note_off,8,0,0,,5,,,41,127
44832,note_on,88,0,0,,4,,,40,127
44840,note_off,8,0,0,,7,,,43,127
44928,note_on,88,0,0,,5,,,41,127
44936,note_off,8,0,0,,4,,,40,127
45023,note_off,87,0,0,,4,,,76,127
45024,note_on,1,0,0,,2,,,38,127
45024,note_on,0,0,0,,5,,,77,127
45032,note_off,8,0,0,,5,,,41,127
45120,note_on,88,0,0,,2,,,74,127
45134,note_off,14,0,0,,5,,,77,127
45216,note_on,82,0,0,,0,,,72,127
45230,note_off,14,0,0,,2,,,74,127
45312,note_on,82,0,0,,12,,,71,127
45326,note_off,14,0,0,,0,,,72,127
45407,note_off,81,0,0,,2,,,38,127
45408,note_on,1,0,0,,4,,,40,127
45408,note_on,0,0,0,,0,,,72,127
45422,note_off,14,0,0,,12,,,71,127
45504,note_on,82,0,0,,2,,,74,127
45518,note_off,14,0,0,,0,,,72,127
45600,note_on,82,0,0,,4,,,76,127
45614,note_off,14,0,0,,2,,,74,127
45696,note_on,82,0,0,,2,,,74,127
45710,note_off,14,0,0,,4,,,76,127
45791,note_off,81,0,0,,4,,,40,127
45792,note_on,1,0,0,,4,,,52,127
45792,note_on,0,0,0,,0,,,72,127
45806,note_off,14,0,0,,2,,,74,127
45888,note_on,82,0,0,,12,,,71,127
45902,note_off,14,0,0,,0,,,72,127
45984,note_on,82,0,0,,10,,,69,127
45998,note_off,14,0,0,,12,,,71,127
46080,note_on,82,0,0,,8,,,68,127
46094,note_off,14,0,0,,10,,,69,127
46176,note_on,82,0,0,,10,,,81,127
46176,note_on,0,0,0,,0,,,72,127
46190,note_off,14,0,0,,8,,,68,127
46271,note_off,81,0,0,,4,,,52,127
46272,note_on,1,0,0,,10,,,69,127
46368,note_on,96,0,0,,7,,,67,127
46376,note_off,8,0,0,,10,,,69,127
46464,note_on,88,0,0,,10,,,69,127
46472,note_off,8,0,0,,7,,,67,127
46560,note_on,88,0,0,,5,,,65,127
46568,note_off,8,0,0,,10,,,69,127
46656,note_on,88,0,0,,7,,,67,127
46664,note_off,8,0,0,,5,,,65,127
46752,note_on,88,0,0,,4,,,64,127
46760,note_off,8,0,0,,7,,,67,127
46848,note_on,88,0,0,,5,,,65,127
46856,note_off,8,0,0,,4,,,64,127
46944,note_on,88,0,0,,2,,,62,127
46952,note_off,8,0,0,,5,,,65,127
47040,note_on,88,0,0,,4,,,64,127
47048,note_off,8,0,0,,2,,,62,127
47136,note_on,88,0,0,,0,,,60,127
47144,note_off,8,0,0,,4,,,64,127
47232,note_on,88,0,0,,2,,,62,127
47240,note_off,8,0,0,,0,,,60,127
47327,note_off,87,0,0,,0,,,72,127
47327,note_off,0,0,0,,10,,,81,127
47328,note_on,1,0,0,,12,,,59,127
47328,note_on,0,0,0,,2,,,74,127
47336,note_off,8,0,0,,2,,,62,127
47424,note_on,88,0,0,,0,,,60,127
47432,note_off,8,0,0,,12,,,59,127
47520,note_on,88,0,0,,10,,,57,127
47528,note_off,8,0,0,,0,,,60,127
47616,note_on,88,0,0,,12,,,59,127
47624,note_off,8,0,0,,10,,,57,127
47712,note_on,88,0,0,,7,,,55,127
47720,note_off,8,0,0,,12,,,59,127
47808,note_on,88,0,0,,10,,,57,127
47816,note_off,8,0,0,,7,,,55,127
47904,note_on,88,0,0,,5,,,53,127
47912,note_off,8,0,0,,10,,,57,127
48000,note_on,88,0,0,,7,,,55,127
48008,note_off,8,0,0,,5,,,53,127
48096,note_on,88,0,0,,4,,,52,127
48104,note_off,8,0,0,,7,,,55,127
48192,note_on,88,0,0,,5,,,53,127
48200,note_off,8,0,0,,4,,,52,127
48288,note_on,88,0,0,,2,,,50,127
48296,note_off,8,0,0,,5,,,53,127
48384,note_on,88,0,0,,4,,,52,127
48392,note_off,8,0,0,,2,,,50,127
48479,note_off,87,0,0,,2,,,74,127
48480,note_on,1,0,0,,0,,,48,127
48480,note_on,0,0,0,,4,,,76,127
48488,note_off,8,0,0,,4,,,52,127
48576,note_on,88,0,0,,2,,,50,127
48584,note_off,8,0,0,,0,,,48,127
48672,note_on,88,0,0,,12,,,47,127
48680,note_off,8,0,0,,2,,,50,127
48768,note_on,88,0,0,,0,,,48,127
48776,note_off,8,0,0,,12,,,47,127
48864,note_on,88,0,0,,10,,,45,127
48872,note_off,8,0,0,,0,,,48,127
48960,note_on,88,0,0,,12,,,47,127
48968,note_off,8,0,0,,10,,,45,127
49056,note_on,88,0,0,,7,,,43,127
49064,note_off,8,0,0,,12,,,47,127
49152,note_on,88,0,0,,10,,,45,127
49160,note_off,8,0,0,,7,,,43,127
49248,note_on,88,0,0,,5,,,41,127
49256,note_off,8,0,0,,10,,,45,127
49344,note_on,88,0,0,,7,,,43,127
49352,note_off,8,0,0,,5,,,41,127
49440,note_on,88,0,0,,4,,,40,127
49448,note_off,8,0,0,,7,,,43,127
49536,note_on,88,0,0,,5,,,41,127
49544,note_off,8,0,0,,4,,,40,127
49631,note_off,87,0,0,,4,,,76,127
49632,note_on,1,0,0,,2,,,38,127
49632,note_on,0,0,0,,5,,,77,127
49640,note_off,8,0,0,,5,,,41,127
49728,note_on,88,0,0,,2,,,74,127
49742,note_off,14,0,0,,5,,,77,127
49824,note_on,82,0,0,,0,,,72,127
49838,note_off,14,0,0,,2,,,74,127
49920,note_on,82,0,0,,12,,,71,127
49934,note_off,14,0,0,,0,,,72,127
50015,note_off,81,0,0,,2,,,38,127
50016,note_on,1,0,0,,4,,,40,127
50016,note_on,0,0,0,,0,,,72,127
50030,note_off,14,0,0,,12,,,71,127
50112,note_on,82,0,0,,2,,,74,127
50126,note_off,14,0,0,,0,,,72,127
50208,note_on,82,0,0,,4,,,76,127
50222,note_off,14,0,0,,2,,,74,127
50304,note_on,82,0,0,,2,,,74,127
50318,note_off,14,0,0,,4,,,76,127
50399,note_off,81,0,0,,4,,,40,127
50400,note_on,1,0,0,,4,,,52,127
50400,note_on,0,0,0,,0,,,72,127
50414,note_off,14,0,0,,2,,,74,127
50496,note_on,82,0,0,,12,,,71,127
50510,note_off,14,0,0,,0,,,72,127
50592,note_on,82,0,0,,10,,,69,127
50606,note_off,14,0,0,,12,,,71,127
50688,note_on,82,0,0,,8,,,68,127
50702,note_off,14,0,0,,10,,,69,127
50783,note_off,81,0,0,,4,,,52,127
50784,note_on,1,0,0,,10,,,57,127
50784,note_on,0,0,0,,10,,,81,127
50798,note_off,14,0,0,,8,,,68,127
50880,note_on,82,0,0,,4,,,76,127
50894,note_off,14,0,0,,10,,,81,127
50976,note_on,82,0,0,,2,,,74,127
50990,note_off,14,0,0,,4,,,76,127
51072,note_on,82,0,0,,4,,,76,127
51086,note_off,14,0,0,,2,,,74,127
51167,note_off,81,0,0,,10,,,57,127
51168,note_on,1,0,0,,2,,,50,127
51168,note_on,0,0,0,,5,,,77,127
51182,note_off,14,0,0,,4,,,76,127
51264,note_on,82,0,0,,2,,,74,127
51278,note_off,14,0,0,,5,,,77,127
51360,note_on,82,0,0,,0,,,72,127
51374,note_off,14,0,0,,2,,,74,127
51456,note_on,82,0,0,,2,,,74,127
51470,note_off,14,0,0,,0,,,72,127
51551,note_off,81,0,0,,2,,,50,127
51552,note_on,1,0,0,,4,,,52,127
51552,note_on,0,0,0,,4,,,76,127
51566,note_off,14,0,0,,2,,,74,127
51648,note_on,82,0,0,,12,,,71,127
51662,note_off,14,0,0,,4,,,76,127
51744,note_on,82,0,0,,10,,,69,127
51758,note_off,14,0,0,,12,,,71,127
51840,note_on,82,0,0,,12,,,71,127
51854,note_off,14,0,0,,10,,,69,127
51935,note_off,81,0,0,,4,,,52,127
51936,note_on,1,0,0,,10,,,57,127
51936,note_on,0,0,0,,0,,,72,127
51950,note_off,14,0,0,,12,,,71,127
52032,note_on,82,0,0,,2,,,74,127
52046,note_off,14,0,0,,0,,,72,127
52128,note_on,82,0,0,,12,,,71,127
52142,note_off,14,0,0,,2,,,74,127
52224,note_on,82,0,0,,0,,,72,127
52238,note_off,14,0,0,,12,,,71,127
52319,note_off,81,0,0,,10,,,57,127
52320,note_on,1,0,0,,2,,,50,127
52320,note_on,0,0,0,,2,,,74,127
52334,note_off,14,0,0,,0,,,72,127
52416,note_on,82,0,0,,12,,,71,127
52430,note_off,14,0,0,,2,,,74,127
52512,note_on,82,0,0,,10,,,69,127
52526,note_off,14,0,0,,12,,,71,127
52608,note_on,82,0,0,,12,,,71,127
52622,note_off,14,0,0,,10,,,69,127
52703,note_off,81,0,0,,2,,,50,127
52704,note_on,1,0,0,,4,,,52,127
52704,note_on,0,0,0,,0,,,72,127
52718,note_off,14,0,0,,12,,,71,127
52800,note_on,82,0,0,,10,,,69,127
52814,note_off,14,0,0,,0,,,72,127
52896,note_on,82,0,0,,12,,,71,127
52910,note_off,14,0,0,,10,,,69,127
52992,note_on,82,0,0,,8,,,68,127
53006,note_off,14,0,0,,12,,,71,127
53087,note_off,81,0,0,,4,,,52,127
53088,note_on,1,0,0,,10,,,57,127
53088,note_on,0,0,0,,10,,,81,127
53102,note_off,14,0,0,,8,,,68,127
53184,note_on,82,0,0,,4,,,76,127
53198,note_off,14,0,0,,10,,,81,127
53280,note_on,82,0,0,,2,,,74,127
53294,note_off,14,0,0,,4,,,76,127
53376,note_on,82,0,0,,4,,,76,127
53390,note_off,14,0,0,,2,,,74,127
53471,note_off,81,0,0,,10,,,57,127
53472,note_on,1,0,0,,2,,,50,127
53472,note_on,0,0,0,,5,,,77,127
53486,note_off,14,0,0,,4,,,76,127
53568,note_on,82,0,0,,2,,,74,127
53582,note_off,14,0,0,,5,,,77,127
53664,note_on,82,0,0,,0,,,72,127
53678,note_off,14,0,0,,2,,,74,127
53760,note_on,82,0,0,,2,,,74,127
53774,note_off,14,0,0,,0,,,72,127
53855,note_off,81,0,0,,2,,,50,127
53856,note_on,1,0,0,,4,,,52,127
53856,note_on,0,0,0,,4,,,76,127
53870,note_off,14,0,0,,2,,,74,127
53952,note_on,82,0,0,,12,,,71,127
53966,note_off,14,0,0,,4,,,76,127
54048,note_on,82,0,0,,10,,,69,127
54062,note_off,14,0,0,,12,,,71,127
54144,note_on,82,0,0,,12,,,71,127
54158,note_off,14,0,0,,10,,,69,127
54239,note_off,81,0,0,,4,,,52,127
54240,note_on,1,0,0,,10,,,57,127
54240,note_on,0,0,0,,0,,,72,127
54254,note_off,14,0,0,,12,,,71,127
54336,note_on,82,0,0,,2,,,74,127
54350,note_off,14,0,0,,0,,,72,127
54432,note_on,82,0,0,,12,,,71,127
54446,note_off,14,0,0,,2,,,74,127
54528,note_on,82,0,0,,0,,,72,127
54542,note_off,14,0,0,,12,,,71,127
54623,note_off,81,0,0,,10,,,57,127
54624,note_on,1,0,0,,2,,,50,127
54624,note_on,0,0,0,,2,,,74,127
54638,note_off,14,0,0,,0,,,72,127
54720,note_on,82,0,0,,12,,,71,127
54734,note_off,14,0,0,,2,,,74,127
54816,note_on,82,0,0,,10,,,69,127
54830,note_off,14,0,0,,12,,,71,127
54912,note_on,82,0,0,,12,,,71,127
54926,note_off,14,0,0,,10,,,69,127
55007,note_off,81,0,0,,2,,,50,127
55008,note_on,1,0,0,,4,,,52,127
55008,note_on,0,0,0,,0,,,72,127
55022,note_off,14,0,0,,12,,,71,127
55104,note_on,82,0,0,,10,,,69,127
55118,note_off,14,0,0,,0,,,72,127
55200,note_on,82,0,0,,12,,,71,127
55214,note_off,14,0,0,,10,,,69,127
55296,note_on,82,0,0,,8,,,68,127
55310,note_off,14,0,0,,12,,,71,127
55391,note_off,81,0,0,,8,,,68,127
55391,note_off,0,0,0,,4,,,52,127
55392,note_on,1,0,0,,10,,,57,127
55392,note_on,0,0,0,,10,,,45,127
55392,note_on,0,0,0,,8,,,68,127
55775,note_off,383,0,0,,8,,,68,127
55776,note_on,1,0,0,,10,,,69,127
56351,note_off,575,0,0,,10,,,69,127
56543,note_off,192,0,0,,10,,,45,127
56543,note_off,0,0,0,,10,,,57,127
56544,note_on,1,0,0,,10,,,45,127
56544,note_on,0,0,0,,10,,,69,127
56735,note_off,191,0,0,,10,,,69,127
56736,note_on,1,0,0,,1,,,73,127
56927,note_off,191,0,0,,1,,,73,127
56928,note_on,1,0,0,,4,,,76,127
57119,note_off,191,0,0,,4,,,76,127
57120,note_on,1,0,0,,10,,,81,127
57311,note_off,191,0,0,,10,,,81,127
57311,note_off,0,0,0,,10,,,45,127
57312,note_on,1,0,0,,6,,,78,127
57408,note_on,96,0,0,,4,,,76,127
57422,note_off,14,0,0,,6,,,78,127
57504,note_on,82,0,0,,2,,,74,127
57518,note_off,14,0,0,,4,,,76,127
57695,note_off,177,0,0,,2,,,74,127
57696,note_on,1,0,0,,10,,,57,127
57696,note_on,0,0,0,,1,,,73,127
57887,note_off,191,0,0,,10,,,57,127
57888,note_on,1,0,0,,1,,,61,127
58079,note_off,191,0,0,,1,,,61,127
58080,note_on,1,0,0,,4,,,64,127
58271,note_off,191,0,0,,4,,,64,127
58272,note_on,1,0,0,,10,,,69,127
58463,note_off,191,0,0,,10,,,69,127
58464,note_on,1,0,0,,6,,,66,127
58560,note_on,96,0,0,,4,,,64,127
58568,note_off,8,0,0,,6,,,66,127
58656,note_on,88,0,0,,2,,,62,127
58664,note_off,8,0,0,,4,,,64,127
58847,note_off,183,0,0,,2,,,62,127
58848,note_on,1,0,0,,1,,,61,127
58943,note_off,95,0,0,,1,,,73,127
58944,note_on,1,0,0,,4,,,76,127
59040,note_on,96,0,0,,2,,,74,127
59054,note_off,14,0,0,,4,,,76,127
59136,note_on,82,0,0,,4,,,76,127
59150,note_off,14,0,0,,2,,,74,127
59231,note_off,81,0,0,,1,,,61,127
59232,note_on,1,0,0,,2,,,62,127
59232,note_on,0,0,0,,6,,,78,127
59246,note_off,14,0,0,,4,,,76,127
59328,note_on,82,0,0,,2,,,74,127
59342,note_off,14,0,0,,6,,,78,127
59424,note_on,82,0,0,,1,,,73,127
59438,note_off,14,0,0,,2,,,74,127
59520,note_on,82,0,0,,2,,,74,127
59534,note_off,14,0,0,,1,,,73,127
59615,note_off,81,0,0,,2,,,62,127
59616,note_on,1,0,0,,4,,,64,127
59616,note_on,0,0,0,,4,,,76,127
59630,note_off,14,0,0,,2,,,74,127
59712,note_on,82,0,0,,1,,,73,127
59726,note_off,14,0,0,,4,,,76,127
59808,note_on,82,0,0,,2,,,74,127
59822,note_off,14,0,0,,1,,,73,127
59904,note_on,82,0,0,,12,,,71,127
59918,note_off,14,0,0,,2,,,74,127
59999,note_off,81,0,0,,4,,,64,127
60000,note_on,1,0,0,,10,,,57,127
60000,note_on,0,0,0,,1,,,73,127
60014,note_off,14,0,0,,12,,,71,127
60096,note_on,82,0,0,,4,,,64,127
60104,note_off,8,0,0,,10,,,57,127
60192,note_on,88,0,0,,2,,,62,127
60200,note_off,8,0,0,,4,,,64,127
60288,note_on,88,0,0,,4,,,64,127
60296,note_off,8,0,0,,2,,,62,127
60384,note_on,88,0,0,,6,,,66,127
60392,note_off,8,0,0,,4,,,64,127
60480,note_on,88,0,0,,2,,,62,127
60488,note_off,8,0,0,,6,,,66,127
60576,note_on,88,0,0,,1,,,61,127
60584,note_off,8,0,0,,2,,,62,127
60672,note_on,88,0,0,,2,,,62,127
60680,note_off,8,0,0,,1,,,61,127
60768,note_on,88,0,0,,4,,,64,127
60776,note_off,8,0,0,,2,,,62,127
60864,note_on,88,0,0,,1,,,61,127
60872,note_off,8,0,0,,4,,,64,127
60960,note_on,88,0,0,,2,,,62,127
60968,note_off,8,0,0,,1,,,61,127
61056,note_on,88,0,0,,12,,,59,127
61064,note_off,8,0,0,,2,,,62,127
61152,note_on,88,0,0,,1,,,61,127
61160,note_off,8,0,0,,12,,,59,127
61343,note_off,183,0,0,,1,,,73,127
61344,note_on,1,0,0,,4,,,76,127
61536,note_on,192,0,0,,4,,,64,127
61727,note_off,191,0,0,,4,,,76,127
61728,note_on,1,0,0,,2,,,74,127
61919,note_off,191,0,0,,2,,,74,127
61919,note_off,0,0,0,,4,,,64,127
61920,note_on,1,0,0,,6,,,66,127
61920,note_on,0,0,0,,1,,,73,127
62111,note_off,191,0,0,,1,,,73,127
62112,note_on,1,0,0,,12,,,71,127
62303,note_off,191,0,0,,12,,,71,127
62303,note_off,0,0,0,,6,,,66,127
62303,note_off,0,0,0,,1,,,61,127
62304,note_on,1,0,0,,1,,,61,127
62304,note_on,0,0,0,,4,,,64,127
62304,note_on,0,0,0,,7,,,67,127
62304,note_on,0,0,0,,11,,,70,127
62495,note_off,191,0,0,,11,,,70,127
62496,note_on,1,0,0,,7,,,79,127
62687,note_off,191,0,0,,7,,,67,127
62687,note_off,0,0,0,,4,,,64,127
62687,note_off,0,0,0,,1,,,61,127
62688,note_on,1,0,0,,4,,,64,127
62688,note_on,0,0,0,,7,,,67,127
62688,note_on,0,0,0,,1,,,61,127
62879,note_off,191,0,0,,7,,,79,127
62880,note_on,1,0,0,,6,,,78,127
63071,note_off,191,0,0,,6,,,78,127
63071,note_off,0,0,0,,1,,,61,127
63071,note_off,0,0,0,,7,,,67,127
63071,note_off,0,0,0,,4,,,64,127
63072,note_on,1,0,0,,7,,,67,127
63072,note_on,0,0,0,,4,,,64,127
63072,note_on,0,0,0,,1,,,61,127
63072,note_on,0,0,0,,4,,,76,127
63263,note_off,191,0,0,,4,,,76,127
63264,note_on,1,0,0,,2,,,74,127
63455,note_off,191,0,0,,2,,,74,127
63455,note_off,0,0,0,,1,,,61,127
63455,note_off,0,0,0,,4,,,64,127
63455,note_off,0,0,0,,7,,,67,127
63456,note_on,1,0,0,,4,,,64,127
63456,note_on,0,0,0,,1,,,61,127
63456,note_on,0,0,0,,7,,,67,127
63456,note_on,0,0,0,,1,,,73,127
63647,note_off,191,0,0,,1,,,73,127
63648,note_on,1,0,0,,12,,,83,127
63839,note_off,191,0,0,,12,,,83,127
63839,note_off,0,0,0,,7,,,67,127
63839,note_off,0,0,0,,1,,,61,127
63839,note_off,0,0,0,,4,,,64,127
63840,note_on,1,0,0,,4,,,64,127
63840,note_on,0,0,0,,1,,,61,127
63840,note_on,0,0,0,,11,,,82,127
64032,note_on,192,0,0,,7,,,79,127
64223,note_off,191,0,0,,7,,,79,127
64223,note_off,0,0,0,,1,,,61,127
64223,note_off,0,0,0,,4,,,64,127
64224,note_on,1,0,0,,1,,,61,127
64224,note_on,0,0,0,,4,,,64,127
64224,note_on,0,0,0,,6,,,78,127
64415,note_off,191,0,0,,6,,,78,127
64416,note_on,1,0,0,,4,,,76,127
64607,note_off,191,0,0,,4,,,64,127
64607,note_off,0,0,0,,1,,,61,127
64607,note_off,0,0,0,,11,,,82,127
64608,note_on,1,0,0,,4,,,64,127
64608,note_on,0,0,0,,1,,,61,127
64799,note_off,191,0,0,,4,,,76,127
64800,note_on,1,0,0,,12,,,83,127
64991,note_off,191,0,0,,12,,,83,127
64991,note_off,0,0,0,,1,,,61,127
64991,note_off,0,0,0,,4,,,64,127
64992,note_on,1,0,0,,4,,,64,127
64992,note_on,0,0,0,,1,,,61,127
64992,note_on,0,0,0,,11,,,82,127
65184,note_on,192,0,0,,7,,,79,127
65375,note_off,191,0,0,,7,,,79,127
65375,note_off,0,0,0,,1,,,61,127
65375,note_off,0,0,0,,4,,,64,127
65376,note_on,1,0,0,,4,,,64,127
65376,note_on,0,0,0,,1,,,61,127
65376,note_on,0,0,0,,6,,,78,127
65567,note_off,191,0,0,,6,,,78,127
65568,note_on,1,0,0,,4,,,76,127
65759,note_off,191,0,0,,1,,,61,127
65759,note_off,0,0,0,,4,,,64,127
65759,note_off,0,0,0,,11,,,82,127
65760,note_on,1,0,0,,1,,,61,127
65760,note_on,0,0,0,,4,,,64,127
65951,note_off,191,0,0,,4,,,76,127
65952,note_on,1,0,0,,12,,,83,127
66143,note_off,191,0,0,,12,,,83,127
66143,note_off,0,0,0,,4,,,64,127
66143,note_off,0,0,0,,1,,,61,127
66144,note_on,1,0,0,,1,,,61,127
66144,note_on,0,0,0,,4,,,64,127
66144,note_on,0,0,0,,11,,,82,127
66336,note_on,192,0,0,,7,,,79,127
66527,note_off,191,0,0,,7,,,79,127
66527,note_off,0,0,0,,11,,,82,127
66527,note_off,0,0,0,,4,,,64,127
66527,note_off,0,0,0,,1,,,61,127
66528,note_on,1,0,0,,4,,,64,127
66528,note_on,0,0,0,,0,,,60,127
66528,note_on,0,0,0,,6,,,78,127
66528,note_on,0,0,0,,10,,,81,127
66719,note_off,191,0,0,,6,,,78,127
66720,note_on,1,0,0,,4,,,76,127
66911,note_off,191,0,0,,4,,,76,127
66911,note_off,0,0,0,,0,,,60,127
66911,note_off,0,0,0,,4,,,64,127
66912,note_on,1,0,0,,6,,,66,127
66912,note_on,0,0,0,,12,,,59,127
66912,note_on,0,0,0,,3,,,75,127
67103,note_off,191,0,0,,10,,,81,127
67104,note_on,1,0,0,,0,,,84,127
67295,note_off,191,0,0,,0,,,84,127
67296,note_on,1,0,0,,12,,,83,127
67487,note_off,191,0,0,,12,,,83,127
67488,note_on,1,0,0,,10,,,81,127
67679,note_off,191,0,0,,10,,,81,127
67679,note_off,0,0,0,,12,,,59,127
67679,note_off,0,0,0,,6,,,66,127
67680,note_on,1,0,0,,12,,,59,127
67680,note_on,0,0,0,,7,,,79,127
67871,note_off,191,0,0,,7,,,79,127
67872,note_on,1,0,0,,6,,,78,127
68063,note_off,191,0,0,,6,,,78,127
68063,note_off,0,0,0,,12,,,59,127
68063,note_off,0,0,0,,3,,,75,127
68064,note_on,1,0,0,,4,,,52,127
68064,note_on,0,0,0,,7,,,79,127
68160,note_on,96,0,0,,10,,,81,127
68174,note_off,14,0,0,,7,,,79,127
68256,note_on,82,0,0,,6,,,78,127
68270,note_off,14,0,0,,10,,,81,127
68352,note_on,82,0,0,,7,,,79,127
68366,note_off,14,0,0,,6,,,78,127
68448,note_on,82,0,0,,4,,,76,127
68462,note_off,14,0,0,,7,,,79,127
68544,note_on,82,0,0,,6,,,78,127
68558,note_off,14,0,0,,4,,,76,127
68640,note_on,82,0,0,,2,,,74,127
68654,note_off,14,0,0,,6,,,78,127
68736,note_on,82,0,0,,4,,,76,127
68750,note_off,14,0,0,,2,,,74,127
68831,note_off,81,0,0,,4,,,52,127
68832,note_on,1,0,0,,0,,,72,127
68846,note_off,14,0,0,,4,,,76,127
68928,note_on,82,0,0,,2,,,74,127
68942,note_off,14,0,0,,0,,,72,127
69024,note_on,82,0,0,,12,,,71,127
69038,note_off,14,0,0,,2,,,74,127
69120,note_on,82,0,0,,2,,,74,127
69134,note_off,14,0,0,,12,,,71,127
69216,note_on,82,0,0,,10,,,69,127
69216,note_on,0,0,0,,0,,,72,127
69230,note_off,14,0,0,,2,,,74,127
69312,note_on,82,0,0,,12,,,71,127
69320,note_off,8,0,0,,10,,,69,127
69408,note_on,88,0,0,,7,,,67,127
69416,note_off,8,0,0,,12,,,71,127
69504,note_on,88,0,0,,10,,,69,127
69512,note_off,8,0,0,,7,,,67,127
69600,note_on,88,0,0,,6,,,66,127
69608,note_off,8,0,0,,10,,,69,127
69696,note_on,88,0,0,,7,,,67,127
69704,note_off,8,0,0,,6,,,66,127
69792,note_on,88,0,0,,4,,,64,127
69800,note_off,8,0,0,,7,,,67,127
69888,note_on,88,0,0,,6,,,66,127
69896,note_off,8,0,0,,4,,,64,127
69984,note_on,88,0,0,,2,,,62,127
69992,note_off,8,0,0,,6,,,66,127
70080,note_on,88,0,0,,4,,,64,127
70088,note_off,8,0,0,,2,,,62,127
70176,note_on,88,0,0,,0,,,60,127
70184,note_off,8,0,0,,4,,,64,127
70272,note_on,88,0,0,,4,,,64,127
70280,note_off,8,0,0,,0,,,60,127
70367,note_off,87,0,0,,0,,,72,127
70368,note_on,1,0,0,,2,,,62,127
70368,note_on,0,0,0,,6,,,78,127
70376,note_off,8,0,0,,4,,,64,127
70464,note_on,88,0,0,,7,,,79,127
70478,note_off,14,0,0,,6,,,78,127
70560,note_on,82,0,0,,4,,,76,127
70574,note_off,14,0,0,,7,,,79,127
70656,note_on,82,0,0,,6,,,78,127
70670,note_off,14,0,0,,4,,,76,127
70752,note_on,82,0,0,,2,,,74,127
70766,note_off,14,0,0,,6,,,78,127
70848,note_on,82,0,0,,4,,,76,127
70862,note_off,14,0,0,,2,,,74,127
70944,note_on,82,0,0,,0,,,72,127
70958,note_off,14,0,0,,4,,,76,127
71040,note_on,82,0,0,,2,,,74,127
71054,note_off,14,0,0,,0,,,72,127
71136,note_on,82,0,0,,12,,,71,127
71150,note_off,14,0,0,,2,,,74,127
71232,note_on,82,0,0,,0,,,72,127
71246,note_off,14,0,0,,12,,,71,127
71328,note_off,82,0,0,,2,,,62,127
71328,note_on,0,0,0,,10,,,69,127
71342,note_off,14,0,0,,0,,,72,127
71424,note_on,82,0,0,,0,,,72,127
71438,note_off,14,0,0,,10,,,69,127
71520,note_on,82,0,0,,7,,,67,127
71520,note_on,0,0,0,,12,,,71,127
71534,note_off,14,0,0,,0,,,72,127
71616,note_on,82,0,0,,10,,,69,127
71624,note_off,8,0,0,,7,,,67,127
71712,note_on,88,0,0,,6,,,66,127
71720,note_off,8,0,0,,10,,,69,127
71808,note_on,88,0,0,,7,,,67,127
71816,note_off,8,0,0,,6,,,66,127
71904,note_on,88,0,0,,4,,,64,127
71912,note_off,8,0,0,,7,,,67,127
72000,note_on,88,0,0,,6,,,66,127
72008,note_off,8,0,0,,4,,,64,127
72096,note_on,88,0,0,,2,,,62,127
72104,note_off,8,0,0,,6,,,66,127
72192,note_on,88,0,0,,4,,,64,127
72200,note_off,8,0,0,,2,,,62,127
72288,note_on,88,0,0,,0,,,60,127
72296,note_off,8,0,0,,4,,,64,127
72384,note_on,88,0,0,,2,,,62,127
72392,note_off,8,0,0,,0,,,60,127
72480,note_on,88,0,0,,12,,,59,127
72488,note_off,8,0,0,,2,,,62,127
72576,note_on,88,0,0,,2,,,62,127
72584,note_off,8,0,0,,12,,,59,127
72670,note_off,86,0,0,,2,,,62,127
72671,note_off,1,0,0,,12,,,71,127
72672,note_on,1,0,0,,0,,,60,127
72672,note_on,0,0,0,,4,,,76,127
72768,note_on,96,0,0,,6,,,78,127
72782,note_off,14,0,0,,4,,,76,127
72864,note_on,82,0,0,,2,,,74,127
72878,note_off,14,0,0,,6,,,78,127
72960,note_on,82,0,0,,4,,,76,127
72974,note_off,14,0,0,,2,,,74,127
73056,note_on,82,0,0,,0,,,48,127
73056,note_on,0,0,0,,0,,,72,127
73070,note_off,14,0,0,,4,,,76,127
73152,note_on,82,0,0,,2,,,74,127
73166,note_off,14,0,0,,0,,,72,127
73248,note_on,82,0,0,,12,,,71,127
73262,note_off,14,0,0,,2,,,74,127
73344,note_on,82,0,0,,0,,,72,127
73358,note_off,14,0,0,,12,,,71,127
73438,note_off,80,0,0,,0,,,60,127
73439,note_off,1,0,0,,0,,,48,127
73440,note_on,1,0,0,,0,,,60,127
73440,note_on,0,0,0,,10,,,69,127
73454,note_off,14,0,0,,0,,,72,127
73536,note_on,82,0,0,,12,,,71,127
73550,note_off,14,0,0,,10,,,69,127
73632,note_on,82,0,0,,7,,,67,127
73646,note_off,14,0,0,,12,,,71,127
73728,note_on,82,0,0,,10,,,69,127
73742,note_off,14,0,0,,7,,,67,127
73823,note_off,81,0,0,,0,,,60,127
73824,note_on,1,0,0,,2,,,50,127
73824,note_on,0,0,0,,6,,,66,127
73838,note_off,14,0,0,,10,,,69,127
74015,note_off,177,0,0,,6,,,66,127
74016,note_on,1,0,0,,2,,,74,127
74207,note_off,191,0,0,,2,,,74,127
74207,note_off,0,0,0,,2,,,50,127
74208,note_on,1,0,0,,7,,,55,127
74208,note_on,0,0,0,,4,,,52,127
74208,note_on,0,0,0,,1,,,73,127
74400,note_on,192,0,0,,10,,,69,127
74591,note_off,191,0,0,,10,,,69,127
74591,note_off,0,0,0,,4,,,52,127
74591,note_off,0,0,0,,7,,,55,127
74592,note_on,1,0,0,,7,,,55,127
74592,note_on,0,0,0,,4,,,52,127
74592,note_on,0,0,0,,7,,,67,127
74783,note_off,191,0,0,,1,,,73,127
74784,note_on,1,0,0,,1,,,73,127
74975,note_off,191,0,0,,7,,,67,127
74975,note_off,0,0,0,,4,,,52,127
74975,note_off,0,0,0,,7,,,55,127
74976,note_on,1,0,0,,4,,,52,127
74976,note_on,0,0,0,,7,,,55,127
75167,note_off,191,0,0,,1,,,73,127
75168,note_on,1,0,0,,2,,,74,127
75359,note_off,191,0,0,,2,,,74,127
75359,note_off,0,0,0,,7,,,55,127
75359,note_off,0,0,0,,4,,,52,127
75360,note_on,1,0,0,,7,,,55,127
75360,note_on,0,0,0,,4,,,52,127
75360,note_on,0,0,0,,1,,,73,127
75552,note_on,192,0,0,,10,,,69,127
75743,note_off,191,0,0,,10,,,69,127
75743,note_off,0,0,0,,4,,,52,127
75743,note_off,0,0,0,,7,,,55,127
75744,note_on,1,0,0,,7,,,55,127
75744,note_on,0,0,0,,4,,,52,127
75744,note_on,0,0,0,,7,,,67,127
75935,note_off,191,0,0,,1,,,73,127
75936,note_on,1,0,0,,1,,,73,127
76127,note_off,191,0,0,,7,,,67,127
76127,note_off,0,0,0,,4,,,52,127
76127,note_off,0,0,0,,7,,,55,127
76128,note_on,1,0,0,,7,,,55,127
76128,note_on,0,0,0,,4,,,52,127
76319,note_off,191,0,0,,1,,,73,127
76320,note_on,1,0,0,,2,,,74,127
76511,note_off,191,0,0,,2,,,74,127
76511,note_off,0,0,0,,4,,,52,127
76511,note_off,0,0,0,,7,,,55,127
76512,note_on,1,0,0,,4,,,52,127
76512,note_on,0,0,0,,7,,,55,127
76512,note_on,0,0,0,,1,,,73,127
76704,note_on,192,0,0,,11,,,82,127
76895,note_off,191,0,0,,11,,,82,127
76895,note_off,0,0,0,,1,,,73,127
76895,note_off,0,0,0,,7,,,55,127
76895,note_off,0,0,0,,4,,,52,127
76896,note_on,1,0,0,,7,,,55,127
76896,note_on,0,0,0,,3,,,51,127
76896,note_on,0,0,0,,10,,,81,127
76896,note_on,0,0,0,,0,,,72,127
77087,note_off,191,0,0,,10,,,81,127
77088,note_on,1,0,0,,7,,,79,127
77279,note_off,191,0,0,,7,,,79,127
77279,note_off,0,0,0,,0,,,72,127
77279,note_off,0,0,0,,3,,,51,127
77279,note_off,0,0,0,,7,,,55,127
77280,note_on,1,0,0,,2,,,50,127
77280,note_on,0,0,0,,10,,,57,127
77280,note_on,0,0,0,,0,,,72,127
77280,note_on,0,0,0,,6,,,78,127
77471,note_off,191,0,0,,6,,,78,127
77472,note_on,1,0,0,,0,,,84,127
77663,note_off,191,0,0,,0,,,84,127
77664,note_on,1,0,0,,11,,,82,127
77855,note_off,191,0,0,,11,,,82,127
77856,note_on,1,0,0,,10,,,81,127
78047,note_off,191,0,0,,10,,,81,127
78048,note_on,1,0,0,,7,,,79,127
78239,note_off,191,0,0,,7,,,79,127
78240,note_off,1,0,0,,2,,,50,127
78240,note_on,0,0,0,,10,,,81,127
78431,note_off,191,0,0,,10,,,81,127
78431,note_off,0,0,0,,0,,,72,127
78431,note_off,0,0,0,,10,,,57,127
78432,note_on,1,0,0,,7,,,55,127
78432,note_on,0,0,0,,11,,,82,127
78432,note_on,0,0,0,,2,,,74,127
78623,note_off,191,0,0,,2,,,74,127
78623,note_off,0,0,0,,11,,,82,127
78624,note_on,1,0,0,,10,,,81,127
78624,note_on,0,0,0,,0,,,72,127
78815,note_off,191,0,0,,0,,,72,127
78815,note_off,0,0,0,,10,,,81,127
78816,note_on,1,0,0,,7,,,43,127
78816,note_on,0,0,0,,7,,,79,127
78816,note_on,0,0,0,,11,,,70,127
79007,note_off,191,0,0,,11,,,70,127
79007,note_off,0,0,0,,7,,,79,127
79008,note_on,1,0,0,,5,,,77,127
79008,note_on,0,0,0,,10,,,69,127
79199,note_off,191,0,0,,10,,,69,127
79199,note_off,0,0,0,,5,,,77,127
79199,note_off,0,0,0,,7,,,43,127
79199,note_off,0,0,0,,7,,,55,127
79200,note_on,1,0,0,,7,,,55,127
79200,note_on,0,0,0,,4,,,76,127
79200,note_on,0,0,0,,7,,,67,127
79391,note_off,191,0,0,,7,,,67,127
79391,note_off,0,0,0,,4,,,76,127
79392,note_on,1,0,0,,2,,,74,127
79392,note_on,0,0,0,,5,,,65,127
79580,note_off,188,0,0,,7,,,55,127
79583,note_off,3,0,0,,5,,,65,127
79583,note_off,0,0,0,,2,,,74,127
79584,note_on,1,0,0,,1,,,73,127
79584,note_on,0,0,0,,4,,,64,127
79680,note_on,96,0,0,,10,,,57,127
79776,note_on,96,0,0,,7,,,55,127
79784,note_off,8,0,0,,10,,,57,127
79872,note_on,88,0,0,,10,,,57,127
79880,note_off,8,0,0,,7,,,55,127
79968,note_on,88,0,0,,5,,,53,127
79976,note_off,8,0,0,,10,,,57,127
80064,note_on,88,0,0,,7,,,55,127
80072,note_off,8,0,0,,5,,,53,127
80160,note_on,88,0,0,,4,,,52,127
80168,note_off,8,0,0,,7,,,55,127
80256,note_on,88,0,0,,5,,,53,127
80264,note_off,8,0,0,,4,,,52,127
80352,note_on,88,0,0,,2,,,50,127
80360,note_off,8,0,0,,5,,,53,127
80448,note_on,88,0,0,,4,,,52,127
80456,note_off,8,0,0,,2,,,50,127
80544,note_on,88,0,0,,1,,,49,127
80552,note_off,8,0,0,,4,,,52,127
80640,note_on,88,0,0,,4,,,52,127
80648,note_off,8,0,0,,1,,,49,127
80735,note_off,87,0,0,,4,,,64,127
80735,note_off,0,0,0,,1,,,73,127
80736,note_on,1,0,0,,2,,,50,127
80736,note_on,0,0,0,,5,,,77,127
80736,note_on,0,0,0,,10,,,69,127
80744,note_off,8,0,0,,4,,,52,127
80832,note_on,88,0,0,,2,,,62,127
80840,note_off,8,0,0,,2,,,50,127
80928,note_on,88,0,0,,0,,,60,127
80936,note_off,8,0,0,,2,,,62,127
81024,note_on,88,0,0,,2,,,62,127
81032,note_off,8,0,0,,0,,,60,127
81120,note_on,88,0,0,,11,,,58,127
81128,note_off,8,0,0,,2,,,62,127
81216,note_on,88,0,0,,0,,,60,127
81224,note_off,8,0,0,,11,,,58,127
81312,note_on,88,0,0,,10,,,57,127
81320,note_off,8,0,0,,0,,,60,127
81408,note_on,88,0,0,,11,,,58,127
81416,note_off,8,0,0,,10,,,57,127
81504,note_on,88,0,0,,7,,,55,127
81512,note_off,8,0,0,,11,,,58,127
81600,note_on,88,0,0,,10,,,57,127
81608,note_off,8,0,0,,7,,,55,127
81696,note_on,88,0,0,,5,,,53,127
81704,note_off,8,0,0,,10,,,57,127
81792,note_on,88,0,0,,10,,,57,127
81800,note_off,8,0,0,,5,,,53,127
81887,note_off,87,0,0,,10,,,69,127
81887,note_off,0,0,0,,5,,,77,127
81888,note_on,1,0,0,,7,,,55,127
81888,note_on,0,0,0,,11,,,70,127
81888,note_on,0,0,0,,7,,,79,127
81896,note_off,8,0,0,,10,,,57,127
81984,note_on,88,0,0,,7,,,67,127
81992,note_off,8,0,0,,7,,,55,127
82080,note_on,88,0,0,,5,,,65,127
82088,note_off,8,0,0,,7,,,67,127
82176,note_on,88,0,0,,7,,,67,127
82184,note_off,8,0,0,,5,,,65,127
82272,note_on,88,0,0,,4,,,64,127
82280,note_off,8,0,0,,7,,,67,127
82368,note_on,88,0,0,,5,,,65,127
82376,note_off,8,0,0,,4,,,64,127
82464,note_on,88,0,0,,2,,,62,127
82472,note_off,8,0,0,,5,,,65,127
82560,note_on,88,0,0,,4,,,64,127
82568,note_off,8,0,0,,2,,,62,127
82656,note_on,88,0,0,,1,,,61,127
82664,note_off,8,0,0,,4,,,64,127
82752,note_on,88,0,0,,2,,,62,127
82760,note_off,8,0,0,,1,,,61,127
82848,note_on,88,0,0,,12,,,59,127
82856,note_off,8,0,0,,2,,,62,127
82944,note_on,88,0,0,,1,,,61,127
82952,note_off,8,0,0,,12,,,59,127
83039,note_off,87,0,0,,7,,,79,127
83039,note_off,0,0,0,,11,,,70,127
83040,note_on,1,0,0,,10,,,57,127
83040,note_on,0,0,0,,1,,,73,127
83040,note_on,0,0,0,,10,,,81,127
83048,note_off,8,0,0,,1,,,61,127
83136,note_on,88,0,0,,10,,,69,127
83144,note_off,8,0,0,,10,,,57,127
83232,note_on,88,0,0,,7,,,67,127
83240,note_off,8,0,0,,10,,,69,127
83328,note_on,88,0,0,,10,,,69,127
83336,note_off,8,0,0,,7,,,67,127
83424,note_on,88,0,0,,5,,,65,127
83432,note_off,8,0,0,,10,,,69,127
83520,note_on,88,0,0,,7,,,67,127
83528,note_off,8,0,0,,5,,,65,127
83616,note_on,88,0,0,,4,,,64,127
83624,note_off,8,0,0,,7,,,67,127
83712,note_on,88,0,0,,5,,,65,127
83720,note_off,8,0,0,,4,,,64,127
83808,note_on,88,0,0,,2,,,62,127
83816,note_off,8,0,0,,5,,,65,127
83904,note_on,88,0,0,,4,,,64,127
83912,note_off,8,0,0,,2,,,62,127
84000,note_on,88,0,0,,1,,,61,127
84008,note_off,8,0,0,,4,,,64,127
84096,note_on,88,0,0,,4,,,64,127
84104,note_off,8,0,0,,1,,,61,127
84191,note_off,87,0,0,,10,,,81,127
84191,note_off,0,0,0,,1,,,73,127
84192,note_on,1,0,0,,2,,,62,127
84192,note_on,0,0,0,,2,,,86,127
84192,note_on,0,0,0,,5,,,77,127
84200,note_off,8,0,0,,4,,,64,127
84288,note_on,88,0,0,,2,,,74,127
84296,note_off,8,0,0,,2,,,62,127
84384,note_on,88,0,0,,0,,,72,127
84392,note_off,8,0,0,,2,,,74,127
84480,note_on,88,0,0,,2,,,74,127
84488,note_off,8,0,0,,0,,,72,127
84576,note_on,88,0,0,,11,,,70,127
84584,note_off,8,0,0,,2,,,74,127
84672,note_on,88,0,0,,0,,,72,127
84680,note_off,8,0,0,,11,,,70,127
84768,note_on,88,0,0,,10,,,69,127
84776,note_off,8,0,0,,0,,,72,127
84864,note_on,88,0,0,,11,,,70,127
84872,note_off,8,0,0,,10,,,69,127
84960,note_on,88,0,0,,7,,,67,127
84968,note_off,8,0,0,,11,,,70,127
85056,note_on,88,0,0,,10,,,69,127
85064,note_off,8,0,0,,7,,,67,127
85152,note_on,88,0,0,,5,,,65,127
85160,note_off,8,0,0,,10,,,69,127
85248,note_on,88,0,0,,7,,,67,127
85256,note_off,8,0,0,,5,,,65,127
85343,note_off,87,0,0,,5,,,77,127
85343,note_off,0,0,0,,2,,,86,127
85344,note_on,1,0,0,,4,,,64,127
85344,note_on,0,0,0,,7,,,79,127
85352,note_off,8,0,0,,7,,,67,127
85440,note_on,88,0,0,,5,,,65,127
85448,note_off,8,0,0,,4,,,64,127
85536,note_on,88,0,0,,2,,,62,127
85544,note_off,8,0,0,,5,,,65,127
85632,note_on,88,0,0,,4,,,64,127
85640,note_off,8,0,0,,2,,,62,127
85728,note_on,88,0,0,,0,,,60,127
85736,note_off,8,0,0,,4,,,64,127
85824,note_on,88,0,0,,2,,,62,127
85832,note_off,8,0,0,,0,,,60,127
85920,note_on,88,0,0,,11,,,58,127
85928,note_off,8,0,0,,2,,,62,127
86016,note_on,88,0,0,,0,,,60,127
86024,note_off,8,0,0,,11,,,58,127
86112,note_on,88,0,0,,10,,,57,127
86120,note_off,8,0,0,,0,,,60,127
86208,note_on,88,0,0,,11,,,58,127
86216,note_off,8,0,0,,10,,,57,127
86304,note_on,88,0,0,,7,,,55,127
86312,note_off,8,0,0,,11,,,58,127
86400,note_on,88,0,0,,10,,,57,127
86408,note_off,8,0,0,,7,,,55,127
86495,note_off,87,0,0,,7,,,79,127
86496,note_on,1,0,0,,5,,,53,127
86496,note_on,0,0,0,,10,,,81,127
86504,note_off,8,0,0,,10,,,57,127
86592,note_on,88,0,0,,7,,,55,127
86600,note_off,8,0,0,,5,,,53,127
86688,note_on,88,0,0,,4,,,52,127
86696,note_off,8,0,0,,7,,,55,127
86784,note_on,88,0,0,,5,,,53,127
86792,note_off,8,0,0,,4,,,52,127
86880,note_on,88,0,0,,2,,,50,127
86888,note_off,8,0,0,,5,,,53,127
86976,note_on,88,0,0,,4,,,52,127
86984,note_off,8,0,0,,2,,,50,127
87072,note_on,88,0,0,,0,,,48,127
87080,note_off,8,0,0,,4,,,52,127
87168,note_on,88,0,0,,2,,,50,127
87176,note_off,8,0,0,,0,,,48,127
87264,note_on,88,0,0,,11,,,46,127
87272,note_off,8,0,0,,2,,,50,127
87360,note_on,88,0,0,,0,,,48,127
87368,note_off,8,0,0,,11,,,46,127
87456,note_on,88,0,0,,10,,,45,127
87464,note_off,8,0,0,,0,,,48,127
87552,note_on,88,0,0,,11,,,46,127
87560,note_off,8,0,0,,10,,,45,127
87647,note_off,87,0,0,,10,,,81,127
87648,note_on,1,0,0,,7,,,43,127
87648,note_on,0,0,0,,11,,,82,127
87656,note_off,8,0,0,,11,,,46,127
87744,note_on,88,0,0,,7,,,79,127
87758,note_off,14,0,0,,11,,,82,127
87840,note_on,82,0,0,,5,,,77,127
87854,note_off,14,0,0,,7,,,79,127
87936,note_on,82,0,0,,4,,,76,127
87950,note_off,14,0,0,,5,,,77,127
88031,note_off,81,0,0,,7,,,43,127
88032,note_on,1,0,0,,10,,,45,127
88032,note_on,0,0,0,,5,,,77,127
88046,note_off,14,0,0,,4,,,76,127
88128,note_on,82,0,0,,7,,,79,127
88142,note_off,14,0,0,,5,,,77,127
88224,note_on,82,0,0,,10,,,81,127
88238,note_off,14,0,0,,7,,,79,127
88320,note_on,82,0,0,,7,,,79,127
88334,note_off,14,0,0,,10,,,81,127
88415,note_off,81,0,0,,10,,,45,127
88416,note_on,1,0,0,,10,,,57,127
88416,note_on,0,0,0,,5,,,77,127
88430,note_off,14,0,0,,7,,,79,127
88512,note_on,82,0,0,,4,,,76,127
88526,note_off,14,0,0,,5,,,77,127
88608,note_on,82,0,0,,2,,,74,127
88622,note_off,14,0,0,,4,,,76,127
88704,note_on,82,0,0,,1,,,73,127
88718,note_off,14,0,0,,2,,,74,127
88800,note_on,82,0,0,,2,,,86,127
88800,note_on,0,0,0,,5,,,77,127
88814,note_off,14,0,0,,1,,,73,127
88895,note_off,81,0,0,,10,,,57,127
88896,note_on,1,0,0,,2,,,74,127
88992,note_on,96,0,0,,0,,,72,127
89000,note_off,8,0,0,,2,,,74,127
89088,note_on,88,0,0,,2,,,74,127
89096,note_off,8,0,0,,0,,,72,127
89184,note_on,88,0,0,,11,,,70,127
89192,note_off,8,0,0,,2,,,74,127
89280,note_on,88,0,0,,0,,,72,127
89288,note_off,8,0,0,,11,,,70,127
89376,note_on,88,0,0,,10,,,69,127
89384,note_off,8,0,0,,0,,,72,127
89472,note_on,88,0,0,,11,,,70,127
89480,note_off,8,0,0,,10,,,69,127
89568,note_on,88,0,0,,7,,,67,127
89576,note_off,8,0,0,,11,,,70,127
89664,note_on,88,0,0,,10,,,69,127
89672,note_off,8,0,0,,7,,,67,127
89760,note_on,88,0,0,,5,,,65,127
89768,note_off,8,0,0,,10,,,69,127
89856,note_on,88,0,0,,7,,,67,127
89864,note_off,8,0,0,,5,,,65,127
89951,note_off,87,0,0,,5,,,77,127
89951,note_off,0,0,0,,2,,,86,127
89952,note_on,1,0,0,,4,,,64,127
89952,note_on,0,0,0,,7,,,79,127
89960,note_off,8,0,0,,7,,,67,127
90048,note_on,88,0,0,,5,,,65,127
90056,note_off,8,0,0,,4,,,64,127
90144,note_on,88,0,0,,2,,,62,127
90152,note_off,8,0,0,,5,,,65,127
90240,note_on,88,0,0,,4,,,64,127
90248,note_off,8,0,0,,2,,,62,127
90336,note_on,88,0,0,,0,,,60,127
90344,note_off,8,0,0,,4,,,64,127
90432,note_on,88,0,0,,2,,,62,127
90440,note_off,8,0,0,,0,,,60,127
90528,note_on,88,0,0,,11,,,58,127
90536,note_off,8,0,0,,2,,,62,127
90624,note_on,88,0,0,,0,,,60,127
90632,note_off,8,0,0,,11,,,58,127
90720,note_on,88,0,0,,10,,,57,127
90728,note_off,8,0,0,,0,,,60,127
90816,note_on,88,0,0,,11,,,58,127
90824,note_off,8,0,0,,10,,,57,127
90912,note_on,88,0,0,,7,,,55,127
90920,note_off,8,0,0,,11,,,58,127
91008,note_on,88,0,0,,10,,,57,127
91016,note_off,8,0,0,,7,,,55,127
91103,note_off,87,0,0,,7,,,79,127
91104,note_on,1,0,0,,5,,,53,127
91104,note_on,0,0,0,,10,,,81,127
91112,note_off,8,0,0,,10,,,57,127
91200,note_on,88,0,0,,7,,,55,127
91208,note_off,8,0,0,,5,,,53,127
91296,note_on,88,0,0,,4,,,52,127
91304,note_off,8,0,0,,7,,,55,127
91392,note_on,88,0,0,,5,,,53,127
91400,note_off,8,0,0,,4,,,52,127
91488,note_on,88,0,0,,2,,,50,127
91496,note_off,8,0,0,,5,,,53,127
91584,note_on,88,0,0,,4,,,52,127
91592,note_off,8,0,0,,2,,,50,127
91680,note_on,88,0,0,,0,,,48,127
91688,note_off,8,0,0,,4,,,52,127
91776,note_on,88,0,0,,2,,,50,127
91784,note_off,8,0,0,,0,,,48,127
91872,note_on,88,0,0,,11,,,46,127
91880,note_off,8,0,0,,2,,,50,127
91968,note_on,88,0,0,,0,,,48,127
91976,note_off,8,0,0,,11,,,46,127
92064,note_on,88,0,0,,10,,,45,127
92072,note_off,8,0,0,,0,,,48,127
92160,note_on,88,0,0,,11,,,46,127
92168,note_off,8,0,0,,10,,,45,127
92255,note_off,87,0,0,,10,,,81,127
92256,note_on,1,0,0,,7,,,43,127
92256,note_on,0,0,0,,11,,,82,127
92264,note_off,8,0,0,,11,,,46,127
92352,note_on,88,0,0,,7,,,79,127
92366,note_off,14,0,0,,11,,,82,127
92448,note_on,82,0,0,,5,,,77,127
92462,note_off,14,0,0,,7,,,79,127
92544,note_on,82,0,0,,4,,,76,127
92558,note_off,14,0,0,,5,,,77,127
92639,note_off,81,0,0,,7,,,43,127
92640,note_on,1,0,0,,10,,,45,127
92640,note_on,0,0,0,,5,,,77,127
92654,note_off,14,0,0,,4,,,76,127
92736,note_on,82,0,0,,7,,,79,127
92750,note_off,14,0,0,,5,,,77,127
92832,note_on,82,0,0,,10,,,81,127
92846,note_off,14,0,0,,7,,,79,127
92928,note_on,82,0,0,,7,,,79,127
92942,note_off,14,0,0,,10,,,81,127
93024,note_on,82,0,0,,10,,,57,127
93024,note_on,0,0,0,,5,,,77,127
93038,note_off,14,0,0,,7,,,79,127
93120,note_on,82,0,0,,4,,,76,127
93134,note_off,14,0,0,,5,,,77,127
93215,note_off,81,0,0,,10,,,45,127
93216,note_on,1,0,0,,2,,,74,127
93230,note_off,14,0,0,,4,,,76,127
93312,note_on,82,0,0,,1,,,73,127
93326,note_off,14,0,0,,2,,,74,127
93407,note_off,81,0,0,,10,,,57,127
93408,note_on,1,0,0,,2,,,62,127
93408,note_on,0,0,0,,2,,,86,127
93422,note_off,14,0,0,,1,,,73,127
93504,note_on,82,0,0,,10,,,81,127
93518,note_off,14,0,0,,2,,,86,127
93600,note_on,82,0,0,,7,,,79,127
93614,note_off,14,0,0,,10,,,81,127
93696,note_on,82,0,0,,10,,,81,127
93710,note_off,14,0,0,,7,,,79,127
93791,note_off,81,0,0,,2,,,62,127
93792,note_on,1,0,0,,7,,,55,127
93792,note_on,0,0,0,,11,,,82,127
93806,note_off,14,0,0,,10,,,81,127
93888,note_on,82,0,0,,7,,,79,127
93902,note_off,14,0,0,,11,,,82,127
93984,note_on,82,0,0,,5,,,77,127
93998,note_off,14,0,0,,7,,,79,127
94080,note_on,82,0,0,,7,,,79,127
94094,note_off,14,0,0,,5,,,77,127
94175,note_off,81,0,0,,7,,,55,127
94176,note_on,1,0,0,,10,,,57,127
94176,note_on,0,0,0,,10,,,81,127
94190,note_off,14,0,0,,7,,,79,127
94272,note_on,82,0,0,,4,,,76,127
94286,note_off,14,0,0,,10,,,81,127
94368,note_on,82,0,0,,2,,,74,127
94382,note_off,14,0,0,,4,,,76,127
94464,note_on,82,0,0,,4,,,76,127
94478,note_off,14,0,0,,2,,,74,127
94559,note_off,81,0,0,,10,,,57,127
94560,note_on,1,0,0,,2,,,62,127
94560,note_on,0,0,0,,5,,,77,127
94574,note_off,14,0,0,,4,,,76,127
94656,note_on,82,0,0,,7,,,79,127
94670,note_off,14,0,0,,5,,,77,127
94752,note_on,82,0,0,,4,,,76,127
94766,note_off,14,0,0,,7,,,79,127
94848,note_on,82,0,0,,5,,,77,127
94862,note_off,14,0,0,,4,,,76,127
94943,note_off,81,0,0,,2,,,62,127
94944,note_on,1,0,0,,7,,,55,127
94944,note_on,0,0,0,,7,,,79,127
94958,note_off,14,0,0,,5,,,77,127
95040,note_on,82,0,0,,4,,,76,127
95054,note_off,14,0,0,,7,,,79,127
95136,note_on,82,0,0,,2,,,74,127
95150,note_off,14,0,0,,4,,,76,127
95232,note_on,82,0,0,,4,,,76,127
95246,note_off,14,0,0,,2,,,74,127
95327,note_off,81,0,0,,7,,,55,127
95328,note_on,1,0,0,,10,,,57,127
95328,note_on,0,0,0,,5,,,77,127
95342,note_off,14,0,0,,4,,,76,127
95424,note_on,82,0,0,,2,,,74,127
95438,note_off,14,0,0,,5,,,77,127
95520,note_on,82,0,0,,4,,,76,127
95534,note_off,14,0,0,,2,,,74,127
95616,note_on,82,0,0,,1,,,73,127
95630,note_off,14,0,0,,4,,,76,127
95711,note_off,81,0,0,,10,,,57,127
95712,note_on,1,0,0,,2,,,50,127
95712,note_on,0,0,0,,2,,,74,127
95726,note_off,14,0,0,,1,,,73,127
95808,note_on,82,0,0,,10,,,69,127
95822,note_off,14,0,0,,2,,,74,127
95904,note_on,82,0,0,,7,,,67,127
95918,note_off,14,0,0,,10,,,69,127
96000,note_on,82,0,0,,10,,,69,127
96014,note_off,14,0,0,,7,,,67,127
96095,note_off,81,0,0,,2,,,50,127
96096,note_on,1,0,0,,7,,,43,127
96096,note_on,0,0,0,,11,,,70,127
96110,note_off,14,0,0,,10,,,69,127
96192,note_on,82,0,0,,7,,,67,127
96206,note_off,14,0,0,,11,,,70,127
96288,note_on,82,0,0,,5,,,65,127
96302,note_off,14,0,0,,7,,,67,127
96384,note_on,82,0,0,,7,,,67,127
96398,note_off,14,0,0,,5,,,65,127
96479,note_off,81,0,0,,7,,,43,127
96480,note_on,1,0,0,,10,,,45,127
96480,note_on,0,0,0,,10,,,69,127
96494,note_off,14,0,0,,7,,,67,127
96576,note_on,82,0,0,,4,,,64,127
96590,note_off,14,0,0,,10,,,69,127
96672,note_on,82,0,0,,2,,,62,127
96686,note_off,14,0,0,,4,,,64,127
96768,note_on,82,0,0,,4,,,64,127
96782,note_off,14,0,0,,2,,,62,127
96863,note_off,81,0,0,,10,,,45,127
96864,note_on,1,0,0,,2,,,50,127
96864,note_on,0,0,0,,5,,,65,127
96878,note_off,14,0,0,,4,,,64,127
96960,note_on,82,0,0,,7,,,67,127
96974,note_off,14,0,0,,5,,,65,127
97056,note_on,82,0,0,,4,,,64,127
97070,note_off,14,0,0,,7,,,67,127
97152,note_on,82,0,0,,5,,,65,127
97166,note_off,14,0,0,,4,,,64,127
97247,note_off,81,0,0,,2,,,50,127
97248,note_on,1,0,0,,7,,,43,127
97248,note_on,0,0,0,,7,,,67,127
97262,note_off,14,0,0,,5,,,65,127
97344,note_on,82,0,0,,4,,,64,127
97358,note_off,14,0,0,,7,,,67,127
97440,note_on,82,0,0,,2,,,62,127
97454,note_off,14,0,0,,4,,,64,127
97536,note_on,82,0,0,,4,,,64,127
97550,note_off,14,0,0,,2,,,62,127
97631,note_off,81,0,0,,7,,,43,127
97632,note_on,1,0,0,,10,,,45,127
97632,note_on,0,0,0,,5,,,65,127
97646,note_off,14,0,0,,4,,,64,127
97728,note_on,82,0,0,,2,,,62,127
97742,note_off,14,0,0,,5,,,65,127
97824,note_on,82,0,0,,4,,,64,127
97838,note_off,14,0,0,,2,,,62,127
97920,note_on,82,0,0,,1,,,61,127
97934,note_off,14,0,0,,4,,,64,127
98015,note_off,81,0,0,,1,,,61,127
98015,note_off,0,0,0,,10,,,45,127
98016,note_on,1,0,0,,2,,,50,127
98016,note_on,0,0,0,,2,,,38,127
98016,note_on,0,0,0,,1,,,61,127
98399,note_off,383,0,0,,1,,,61,127
98400,note_on,1,0,0,,2,,,62,127
100316,note_off,1916,0,0,,2,,,38,127
100316,note_off,0,0,0,,2,,,50,127
100320,note_off,4,0,0,,2,,,62,127
101376,end_of_track,1056,1,0,,,,,,
