tick,type,time,meta,track,program,channel,pitch,tempo,note,velocity
0,copyright,0,1,0,,,,,,
0,program_change,0,0,0,6,0,,,,
0,pitchwheel,0,0,0,,0,0,,,
0,program_change,0,0,0,6,1,,,,
0,pitchwheel,0,0,0,,1,-590,,,
0,program_change,0,0,0,6,2,,,,
0,pitchwheel,0,0,0,,2,-272,,,
0,program_change,0,0,0,6,3,,,,
0,pitchwheel,0,0,0,,3,-353,,,
0,program_change,0,0,0,6,4,,,,
0,pitchwheel,0,0,0,,4,-560,,,
0,program_change,0,0,0,6,5,,,,
0,pitchwheel,0,0,0,,5,-80,,,
0,program_change,0,0,0,6,6,,,,
0,pitchwheel,0,0,0,,6,-625,,,
0,program_change,0,0,0,6,7,,,,
0,pitchwheel,0,0,0,,7,-130,,,
0,program_change,0,0,0,6,8,,,,
0,pitchwheel,0,0,0,,8,-512,,,
0,program_change,0,0,0,6,10,,,,
0,pitchwheel,0,0,0,,10,-464,,,
0,program_change,0,0,0,6,11,,,,
0,pitchwheel,0,0,0,,11,-208,,,
0,program_change,0,0,0,6,12,,,,
0,pitchwheel,0,0,0,,12,-553,,,
0,set_tempo,0,1,0,,,,500000,,
77,note_on,77,0,0,,2,,,74,127
231,note_on,154,0,0,,10,,,69,127
253,note_off,22,0,0,,2,,,74,127
383,note_off,130,0,0,,10,,,69,127
385,note_on,2,0,0,,4,,,76,127
537,note_off,152,0,0,,4,,,76,127
539,note_on,2,0,0,,5,,,77,127
693,note_on,154,0,0,,10,,,69,127
715,note_off,22,0,0,,5,,,77,127
845,note_off,130,0,0,,10,,,69,127
847,note_on,2,0,0,,7,,,79,127
999,note_off,152,0,0,,7,,,79,127
1001,note_on,2,0,0,,10,,,81,127
1155,note_on,154,0,0,,10,,,69,127
1305,note_off,150,0,0,,10,,,81,127
1307,note_off,2,0,0,,10,,,69,127
1309,note_on,2,0,0,,7,,,79,127
1461,note_off,152,0,0,,7,,,79,127
1463,note_on,2,0,0,,5,,,77,127
1617,note_on,154,0,0,,10,,,69,127
1639,note_off,22,0,0,,5,,,77,127
1769,note_off,130,0,0,,10,,,69,127
1771,note_on,2,0,0,,4,,,76,127
1923,note_off,152,0,0,,4,,,76,127
1925,note_on,2,0,0,,2,,,62,127
1925,note_on,0,0,0,,2,,,74,127
2077,note_off,152,0,0,,2,,,62,127
2079,note_on,2,0,0,,10,,,57,127
2231,note_off,152,0,0,,10,,,57,127
2233,note_on,2,0,0,,4,,,64,127
2385,note_off,152,0,0,,4,,,64,127
2387,note_on,2,0,0,,5,,,65,127
2539,note_off,152,0,0,,5,,,65,127
2541,note_on,2,0,0,,10,,,57,127
2693,note_off,152,0,0,,10,,,57,127
2695,note_on,2,0,0,,7,,,67,127
2847,note_off,152,0,0,,7,,,67,127
2849,note_on,2,0,0,,10,,,69,127
3003,note_on,154,0,0,,10,,,57,127
3153,note_off,150,0,0,,10,,,69,127
3155,note_off,2,0,0,,10,,,57,127
3155,note_off,0,0,0,,2,,,74,127
3157,note_on,2,0,0,,7,,,67,127
3157,note_on,0,0,0,,1,,,73,127
3309,note_off,152,0,0,,1,,,73,127
3309,note_off,0,0,0,,7,,,67,127
3311,note_on,2,0,0,,5,,,65,127
3311,note_on,0,0,0,,2,,,74,127
3463,note_off,152,0,0,,5,,,65,127
3465,note_on,2,0,0,,10,,,57,127
3617,note_off,152,0,0,,10,,,57,127
3617,note_off,0,0,0,,2,,,74,127
3619,note_on,2,0,0,,4,,,64,127
3619,note_on,0,0,0,,4,,,76,127
3771,note_off,152,0,0,,4,,,76,127
3771,note_off,0,0,0,,4,,,64,127
3773,note_on,2,0,0,,2,,,62,127
3773,note_on,0,0,0,,5,,,77,127
3925,note_off,152,0,0,,5,,,77,127
3927,note_on,2,0,0,,2,,,74,127
4079,note_off,152,0,0,,2,,,74,127
4079,note_off,0,0,0,,2,,,62,127
4081,note_on,2,0,0,,1,,,61,127
4081,note_on,0,0,0,,4,,,76,127
4233,note_off,152,0,0,,4,,,76,127
4233,note_off,0,0,0,,1,,,61,127
4235,note_on,2,0,0,,2,,,62,127
4235,note_on,0,0,0,,5,,,77,127
4387,note_off,152,0,0,,2,,,62,127
4389,note_on,2,0,0,,11,,,58,127
4541,note_off,152,0,0,,11,,,58,127
4541,note_off,0,0,0,,5,,,77,127
4543,note_on,2,0,0,,7,,,55,127
4543,note_on,0,0,0,,7,,,79,127
4695,note_off,152,0,0,,7,,,79,127
4695,note_off,0,0,0,,7,,,55,127
4697,note_on,2,0,0,,10,,,57,127
4697,note_on,0,0,0,,4,,,76,127
4849,note_off,152,0,0,,4,,,76,127
4851,note_on,2,0,0,,2,,,74,127
5003,note_off,152,0,0,,2,,,74,127
5003,note_off,0,0,0,,10,,,57,127
5005,note_on,2,0,0,,1,,,61,127
5005,note_on,0,0,0,,4,,,76,127
5157,note_off,152,0,0,,4,,,76,127
5157,note_off,0,0,0,,1,,,61,127
5159,note_on,2,0,0,,2,,,62,127
5159,note_on,0,0,0,,4,,,76,127
5311,note_off,152,0,0,,4,,,76,127
5311,note_off,0,0,0,,2,,,62,127
5313,note_on,2,0,0,,11,,,58,127
5313,note_on,0,0,0,,5,,,77,127
5465,note_off,152,0,0,,5,,,77,127
5465,note_off,0,0,0,,11,,,58,127
5467,note_on,2,0,0,,7,,,55,127
5467,note_on,0,0,0,,7,,,79,127
5619,note_off,152,0,0,,7,,,79,127
5619,note_off,0,0,0,,7,,,55,127
5621,note_on,2,0,0,,10,,,57,127
5621,note_on,0,0,0,,4,,,76,127
5773,note_off,152,0,0,,4,,,76,127
5775,note_on,2,0,0,,2,,,74,127
5927,note_off,152,0,0,,2,,,74,127
5927,note_off,0,0,0,,10,,,57,127
5929,note_on,2,0,0,,1,,,61,127
5929,note_on,0,0,0,,4,,,76,127
6081,note_off,152,0,0,,4,,,76,127
6081,note_off,0,0,0,,1,,,61,127
6083,note_on,2,0,0,,2,,,62,127
6083,note_on,0,0,0,,4,,,76,127
6235,note_off,152,0,0,,4,,,76,127
6235,note_off,0,0,0,,2,,,62,127
6237,note_on,2,0,0,,11,,,58,127
6237,note_on,0,0,0,,5,,,77,127
6389,note_off,152,0,0,,5,,,77,127
6389,note_off,0,0,0,,11,,,58,127
6391,note_on,2,0,0,,7,,,55,127
6391,note_on,0,0,0,,7,,,79,127
6543,note_off,152,0,0,,7,,,79,127
6543,note_off,0,0,0,,7,,,55,127
6545,note_on,2,0,0,,10,,,57,127
6545,note_on,0,0,0,,5,,,77,127
6595,note_off,50,0,0,,5,,,77,127
6597,note_on,2,0,0,,4,,,76,127
6647,note_off,50,0,0,,4,,,76,127
6649,note_on,2,0,0,,5,,,77,127
6699,note_off,50,0,0,,5,,,77,127
6701,note_on,2,0,0,,4,,,76,127
7007,note_off,306,0,0,,4,,,76,127
7008,note_off,1,0,0,,10,,,57,127
7009,note_on,1,0,0,,10,,,81,127
7163,note_on,154,0,0,,10,,,69,127
7313,note_off,150,0,0,,10,,,81,127
7315,note_off,2,0,0,,10,,,69,127
7317,note_on,2,0,0,,7,,,79,127
7469,note_off,152,0,0,,7,,,79,127
7471,note_on,2,0,0,,10,,,69,127
7471,note_on,0,0,0,,7,,,79,127
7471,note_on,0,0,0,,5,,,77,127
7623,note_off,152,0,0,,7,,,79,127
7625,note_on,2,0,0,,10,,,57,127
7775,note_off,150,0,0,,10,,,69,127
7777,note_off,2,0,0,,10,,,57,127
7777,note_off,0,0,0,,5,,,77,127
7779,note_on,2,0,0,,7,,,67,127
7779,note_on,0,0,0,,4,,,76,127
7931,note_off,152,0,0,,4,,,76,127
7931,note_off,0,0,0,,7,,,67,127
7933,note_on,2,0,0,,5,,,65,127
7933,note_on,0,0,0,,2,,,74,127
7933,note_on,0,0,0,,4,,,76,127
8085,note_off,152,0,0,,4,,,76,127
8085,note_off,0,0,0,,5,,,65,127
8087,note_on,2,0,0,,10,,,69,127
8239,note_off,152,0,0,,10,,,69,127
8239,note_off,0,0,0,,2,,,74,127
8241,note_on,2,0,0,,4,,,64,127
8241,note_on,0,0,0,,0,,,72,127
8393,note_off,152,0,0,,0,,,72,127
8393,note_off,0,0,0,,4,,,64,127
8395,note_on,2,0,0,,2,,,62,127
8395,note_on,0,0,0,,11,,,70,127
8395,note_on,0,0,0,,0,,,72,127
8547,note_off,152,0,0,,0,,,72,127
8547,note_off,0,0,0,,2,,,62,127
8549,note_on,2,0,0,,5,,,65,127
8701,note_off,152,0,0,,5,,,65,127
8701,note_off,0,0,0,,11,,,70,127
8703,note_on,2,0,0,,0,,,60,127
8703,note_on,0,0,0,,10,,,69,127
8855,note_off,152,0,0,,10,,,69,127
8855,note_off,0,0,0,,0,,,60,127
8857,note_on,2,0,0,,11,,,58,127
8857,note_on,0,0,0,,10,,,69,127
8857,note_on,0,0,0,,7,,,67,127
9009,note_off,152,0,0,,10,,,69,127
9009,note_off,0,0,0,,11,,,58,127
9011,note_on,2,0,0,,2,,,62,127
9163,note_off,152,0,0,,2,,,62,127
9163,note_off,0,0,0,,7,,,67,127
9165,note_on,2,0,0,,10,,,57,127
9165,note_on,0,0,0,,5,,,65,127
9317,note_off,152,0,0,,5,,,65,127
9317,note_off,0,0,0,,10,,,57,127
9319,note_on,2,0,0,,7,,,55,127
9319,note_on,0,0,0,,5,,,65,127
9319,note_on,0,0,0,,4,,,64,127
9471,note_off,152,0,0,,5,,,65,127
9471,note_off,0,0,0,,7,,,55,127
9473,note_on,2,0,0,,11,,,58,127
9625,note_off,152,0,0,,11,,,58,127
9625,note_off,0,0,0,,4,,,64,127
9627,note_on,2,0,0,,5,,,53,127
9627,note_on,0,0,0,,2,,,62,127
9779,note_off,152,0,0,,2,,,62,127
9779,note_off,0,0,0,,5,,,53,127
9781,note_on,2,0,0,,4,,,52,127
9781,note_on,0,0,0,,1,,,61,127
9781,note_on,0,0,0,,2,,,62,127
9933,note_off,152,0,0,,2,,,62,127
9933,note_off,0,0,0,,4,,,52,127
9935,note_on,2,0,0,,7,,,55,127
10087,note_off,152,0,0,,7,,,55,127
10087,note_off,0,0,0,,1,,,61,127
10089,note_on,2,0,0,,2,,,50,127
10089,note_on,0,0,0,,2,,,62,127
10241,note_off,152,0,0,,2,,,62,127
10241,note_off,0,0,0,,2,,,50,127
10243,note_on,2,0,0,,10,,,45,127
10243,note_on,0,0,0,,2,,,62,127
10395,note_off,152,0,0,,2,,,62,127
10397,note_on,2,0,0,,10,,,57,127
10397,note_on,0,0,0,,4,,,64,127
10547,note_off,150,0,0,,10,,,45,127
10549,note_off,2,0,0,,4,,,64,127
10549,note_off,0,0,0,,10,,,57,127
10551,note_on,2,0,0,,1,,,61,127
10551,note_on,0,0,0,,4,,,64,127
10703,note_off,152,0,0,,4,,,64,127
10703,note_off,0,0,0,,1,,,61,127
10705,note_on,2,0,0,,2,,,62,127
10705,note_on,0,0,0,,4,,,64,127
10857,note_off,152,0,0,,4,,,64,127
10857,note_off,0,0,0,,2,,,62,127
10859,note_on,2,0,0,,11,,,58,127
10859,note_on,0,0,0,,5,,,65,127
11011,note_off,152,0,0,,5,,,65,127
11011,note_off,0,0,0,,11,,,58,127
11013,note_on,2,0,0,,7,,,55,127
11013,note_on,0,0,0,,7,,,67,127
11165,note_off,152,0,0,,7,,,67,127
11165,note_off,0,0,0,,7,,,55,127
11167,note_on,2,0,0,,10,,,57,127
11167,note_on,0,0,0,,4,,,64,127
11319,note_off,152,0,0,,4,,,64,127
11321,note_on,2,0,0,,10,,,45,127
11321,note_on,0,0,0,,2,,,62,127
11471,note_off,150,0,0,,10,,,57,127
11473,note_off,2,0,0,,2,,,62,127
11473,note_off,0,0,0,,10,,,45,127
11475,note_on,2,0,0,,1,,,61,127
11475,note_on,0,0,0,,4,,,64,127
11627,note_off,152,0,0,,4,,,64,127
11627,note_off,0,0,0,,1,,,61,127
11629,note_on,2,0,0,,2,,,62,127
11629,note_on,0,0,0,,4,,,64,127
11781,note_off,152,0,0,,4,,,64,127
11781,note_off,0,0,0,,2,,,62,127
11783,note_on,2,0,0,,11,,,58,127
11783,note_on,0,0,0,,5,,,65,127
11935,note_off,152,0,0,,5,,,65,127
11935,note_off,0,0,0,,11,,,58,127
11937,note_on,2,0,0,,7,,,55,127
11937,note_on,0,0,0,,7,,,67,127
12089,note_off,152,0,0,,7,,,67,127
12089,note_off,0,0,0,,7,,,55,127
12091,note_on,2,0,0,,10,,,57,127
12091,note_on,0,0,0,,4,,,64,127
12243,note_off,152,0,0,,4,,,64,127
12245,note_on,2,0,0,,10,,,45,127
12245,note_on,0,0,0,,2,,,62,127
12395,note_off,150,0,0,,10,,,57,127
12397,note_off,2,0,0,,2,,,62,127
12397,note_off,0,0,0,,10,,,45,127
12399,note_on,2,0,0,,1,,,61,127
12399,note_on,0,0,0,,4,,,64,127
12551,note_off,152,0,0,,4,,,64,127
12551,note_off,0,0,0,,1,,,61,127
12553,note_on,2,0,0,,2,,,62,127
12553,note_on,0,0,0,,4,,,64,127
12705,note_off,152,0,0,,4,,,64,127
12705,note_off,0,0,0,,2,,,62,127
12707,note_on,2,0,0,,11,,,58,127
12707,note_on,0,0,0,,5,,,65,127
12859,note_off,152,0,0,,5,,,65,127
12859,note_off,0,0,0,,11,,,58,127
12861,note_on,2,0,0,,7,,,55,127
12861,note_on,0,0,0,,7,,,67,127
13013,note_off,152,0,0,,7,,,67,127
13013,note_off,0,0,0,,7,,,55,127
13015,note_on,2,0,0,,10,,,57,127
13015,note_on,0,0,0,,5,,,65,127
13065,note_off,50,0,0,,5,,,65,127
13067,note_on,2,0,0,,4,,,64,127
13117,note_off,50,0,0,,4,,,64,127
13119,note_on,2,0,0,,5,,,65,127
13169,note_off,50,0,0,,5,,,65,127
13171,note_on,2,0,0,,4,,,64,127
13473,note_off,302,0,0,,10,,,57,127
13476,note_off,3,0,0,,4,,,64,127
13478,note_on,2,0,0,,10,,,57,127
13630,note_off,152,0,0,,10,,,57,127
13632,note_on,2,0,0,,0,,,60,127
13784,note_off,152,0,0,,0,,,60,127
13786,note_on,2,0,0,,3,,,63,127
13938,note_off,152,0,0,,3,,,63,127
13940,note_on,2,0,0,,6,,,66,127
14092,note_off,152,0,0,,6,,,66,127
14094,note_on,2,0,0,,10,,,69,127
14246,note_off,152,0,0,,10,,,69,127
14248,note_on,2,0,0,,0,,,72,127
14400,note_off,152,0,0,,0,,,72,127
14402,note_on,2,0,0,,3,,,75,127
14554,note_off,152,0,0,,3,,,75,127
14556,note_on,2,0,0,,6,,,78,127
14708,note_off,152,0,0,,6,,,78,127
14710,note_on,2,0,0,,10,,,81,127
14862,note_off,152,0,0,,10,,,81,127
14864,note_on,2,0,0,,0,,,84,127
15018,note_on,154,0,0,,2,,,50,127
15172,note_on,154,0,0,,2,,,38,127
15322,note_off,150,0,0,,2,,,50,127
15324,note_off,2,0,0,,0,,,84,127
15326,note_on,2,0,0,,2,,,50,127
15326,note_on,0,0,0,,0,,,84,127
15326,note_on,0,0,0,,11,,,82,127
15478,note_off,152,0,0,,11,,,82,127
15478,note_off,0,0,0,,0,,,84,127
15480,note_on,2,0,0,,10,,,81,127
15632,note_off,152,0,0,,10,,,81,127
15634,note_on,2,0,0,,7,,,79,127
15786,note_off,152,0,0,,7,,,79,127
15786,note_off,0,0,0,,2,,,50,127
15787,note_off,1,0,0,,2,,,38,127
15788,note_on,1,0,0,,2,,,50,127
15788,note_on,0,0,0,,2,,,38,127
15788,note_on,0,0,0,,2,,,74,127
15788,note_on,0,0,0,,6,,,78,127
15940,note_off,152,0,0,,6,,,78,127
15942,note_on,2,0,0,,7,,,79,127
16092,note_off,150,0,0,,2,,,74,127
16094,note_off,2,0,0,,7,,,79,127
16096,note_on,2,0,0,,10,,,81,127
16096,note_on,0,0,0,,0,,,72,127
16248,note_off,152,0,0,,0,,,72,127
16248,note_off,0,0,0,,10,,,81,127
16250,note_on,2,0,0,,11,,,70,127
16250,note_on,0,0,0,,7,,,79,127
16402,note_off,152,0,0,,7,,,79,127
16402,note_off,0,0,0,,11,,,70,127
16404,note_on,2,0,0,,10,,,69,127
16404,note_on,0,0,0,,6,,,78,127
16556,note_off,152,0,0,,6,,,78,127
16556,note_off,0,0,0,,10,,,69,127
16558,note_on,2,0,0,,7,,,67,127
16558,note_on,0,0,0,,7,,,79,127
16710,note_off,152,0,0,,7,,,79,127
16710,note_off,0,0,0,,7,,,67,127
16712,note_on,2,0,0,,2,,,74,127
16712,note_on,0,0,0,,6,,,78,127
16864,note_off,152,0,0,,6,,,78,127
16866,note_on,2,0,0,,7,,,79,127
17016,note_off,150,0,0,,2,,,74,127
17018,note_off,2,0,0,,7,,,79,127
17020,note_on,2,0,0,,0,,,72,127
17020,note_on,0,0,0,,10,,,81,127
17172,note_off,152,0,0,,10,,,81,127
17172,note_off,0,0,0,,0,,,72,127
17174,note_on,2,0,0,,11,,,70,127
17174,note_on,0,0,0,,7,,,79,127
17326,note_off,152,0,0,,7,,,79,127
17326,note_off,0,0,0,,11,,,70,127
17328,note_on,2,0,0,,10,,,69,127
17328,note_on,0,0,0,,6,,,78,127
17480,note_off,152,0,0,,6,,,78,127
17480,note_off,0,0,0,,10,,,69,127
17482,note_on,2,0,0,,7,,,79,127
17482,note_on,0,0,0,,7,,,67,127
17634,note_off,152,0,0,,7,,,67,127
17634,note_off,0,0,0,,7,,,79,127
17636,note_on,2,0,0,,10,,,81,127
17711,note_off,75,0,0,,10,,,81,127
17713,note_on,2,0,0,,6,,,78,127
17788,note_off,75,0,0,,6,,,78,127
17790,note_on,2,0,0,,2,,,74,127
17865,note_off,75,0,0,,2,,,74,127
17867,note_on,2,0,0,,10,,,69,127
17942,note_off,75,0,0,,10,,,69,127
17944,note_on,2,0,0,,6,,,66,127
18019,note_off,75,0,0,,6,,,66,127
18021,note_on,2,0,0,,2,,,62,127
18096,note_off,75,0,0,,2,,,62,127
18098,note_on,2,0,0,,10,,,57,127
18170,note_off,72,0,0,,2,,,50,127
18173,note_off,3,0,0,,10,,,57,127
18175,note_on,2,0,0,,6,,,54,127
18250,note_off,75,0,0,,6,,,54,127
18250,note_off,0,0,0,,2,,,38,127
18252,note_on,2,0,0,,2,,,50,127
18327,note_off,75,0,0,,2,,,50,127
18329,note_on,2,0,0,,10,,,45,127
18404,note_off,75,0,0,,10,,,45,127
18406,note_on,2,0,0,,2,,,38,127
19328,note_off,922,0,0,,2,,,38,127
19482,note_on,154,0,0,,4,,,40,127
19943,note_on,461,0,0,,12,,,59,127
20095,note_off,152,0,0,,12,,,59,127
20097,note_on,2,0,0,,2,,,62,127
20249,note_off,152,0,0,,2,,,62,127
20251,note_on,2,0,0,,5,,,65,127
20403,note_off,152,0,0,,5,,,65,127
20405,note_off,2,0,0,,4,,,40,127
20405,note_on,0,0,0,,8,,,68,127
20557,note_off,152,0,0,,8,,,68,127
20559,note_on,2,0,0,,12,,,71,127
20711,note_off,152,0,0,,12,,,71,127
20713,note_on,2,0,0,,2,,,74,127
20865,note_off,152,0,0,,2,,,74,127
20867,note_on,2,0,0,,5,,,77,127
21019,note_off,152,0,0,,5,,,77,127
21021,note_on,2,0,0,,8,,,80,127
21173,note_off,152,0,0,,8,,,80,127
21175,note_on,2,0,0,,12,,,83,127
21327,note_off,152,0,0,,12,,,83,127
21329,note_on,2,0,0,,2,,,86,127
21483,note_on,154,0,0,,4,,,52,127
21637,note_on,154,0,0,,4,,,40,127
21787,note_off,150,0,0,,4,,,52,127
21789,note_off,2,0,0,,2,,,86,127
21791,note_on,2,0,0,,4,,,52,127
21791,note_on,0,0,0,,0,,,84,127
21791,note_on,0,0,0,,2,,,86,127
21943,note_off,152,0,0,,2,,,86,127
21943,note_off,0,0,0,,0,,,84,127
21945,note_on,2,0,0,,12,,,83,127
22097,note_off,152,0,0,,12,,,83,127
22099,note_on,2,0,0,,10,,,81,127
22251,note_off,152,0,0,,10,,,81,127
22251,note_off,0,0,0,,4,,,52,127
22252,note_off,1,0,0,,4,,,40,127
22253,note_on,1,0,0,,4,,,52,127
22253,note_on,0,0,0,,4,,,40,127
22253,note_on,0,0,0,,4,,,76,127
22253,note_on,0,0,0,,8,,,80,127
22405,note_off,152,0,0,,8,,,80,127
22407,note_on,2,0,0,,10,,,81,127
22557,note_off,150,0,0,,4,,,76,127
22559,note_off,2,0,0,,10,,,81,127
22561,note_on,2,0,0,,2,,,74,127
22561,note_on,0,0,0,,12,,,83,127
22713,note_off,152,0,0,,12,,,83,127
22713,note_off,0,0,0,,2,,,74,127
22715,note_on,2,0,0,,10,,,81,127
22715,note_on,0,0,0,,0,,,72,127
22867,note_off,152,0,0,,0,,,72,127
22867,note_off,0,0,0,,10,,,81,127
22869,note_on,2,0,0,,12,,,71,127
22869,note_on,0,0,0,,8,,,80,127
23021,note_off,152,0,0,,8,,,80,127
23021,note_off,0,0,0,,12,,,71,127
23023,note_on,2,0,0,,10,,,81,127
23023,note_on,0,0,0,,10,,,69,127
23175,note_off,152,0,0,,10,,,69,127
23175,note_off,0,0,0,,10,,,81,127
23177,note_on,2,0,0,,4,,,76,127
23177,note_on,0,0,0,,8,,,80,127
23329,note_off,152,0,0,,8,,,80,127
23331,note_on,2,0,0,,10,,,81,127
23481,note_off,150,0,0,,4,,,76,127
23483,note_off,2,0,0,,10,,,81,127
23485,note_on,2,0,0,,12,,,83,127
23485,note_on,0,0,0,,2,,,74,127
23637,note_off,152,0,0,,2,,,74,127
23637,note_off,0,0,0,,12,,,83,127
23639,note_on,2,0,0,,10,,,81,127
23639,note_on,0,0,0,,0,,,72,127
23791,note_off,152,0,0,,0,,,72,127
23791,note_off,0,0,0,,10,,,81,127
23793,note_on,2,0,0,,12,,,71,127
23793,note_on,0,0,0,,8,,,80,127
23945,note_off,152,0,0,,8,,,80,127
23945,note_off,0,0,0,,12,,,71,127
23947,note_on,2,0,0,,10,,,81,127
23947,note_on,0,0,0,,10,,,69,127
24099,note_off,152,0,0,,10,,,69,127
24099,note_off,0,0,0,,10,,,81,127
24101,note_on,2,0,0,,12,,,83,127
24176,note_off,75,0,0,,12,,,83,127
24178,note_on,2,0,0,,8,,,80,127
24253,note_off,75,0,0,,8,,,80,127
24255,note_on,2,0,0,,4,,,76,127
24330,note_off,75,0,0,,4,,,76,127
24332,note_on,2,0,0,,12,,,71,127
24407,note_off,75,0,0,,12,,,71,127
24409,note_on,2,0,0,,8,,,68,127
24484,note_off,75,0,0,,8,,,68,127
24486,note_on,2,0,0,,4,,,64,127
24561,note_off,75,0,0,,4,,,64,127
24563,note_on,2,0,0,,12,,,59,127
24635,note_off,72,0,0,,4,,,52,127
24638,note_off,3,0,0,,12,,,59,127
24640,note_on,2,0,0,,8,,,56,127
24715,note_off,75,0,0,,8,,,56,127
24715,note_off,0,0,0,,4,,,40,127
24717,note_on,2,0,0,,4,,,52,127
24792,note_off,75,0,0,,4,,,52,127
24794,note_on,2,0,0,,12,,,47,127
24869,note_off,75,0,0,,12,,,47,127
24871,note_on,2,0,0,,8,,,44,127
24946,note_off,75,0,0,,8,,,44,127
24948,note_on,2,0,0,,12,,,47,127
25023,note_off,75,0,0,,12,,,47,127
25025,note_on,2,0,0,,4,,,40,127
25842,note_off,817,0,0,,4,,,40,127
25857,note_on,15,0,0,,4,,,52,127
25857,note_on,0,0,0,,4,,,40,127
25857,note_on,0,0,0,,12,,,71,127
25857,note_on,0,0,0,,4,,,64,127
26009,note_off,152,0,0,,12,,,71,127
26011,note_on,2,0,0,,0,,,72,127
26161,note_off,150,0,0,,4,,,64,127
26163,note_off,2,0,0,,0,,,72,127
26165,note_on,2,0,0,,10,,,69,127
26165,note_on,0,0,0,,0,,,60,127
26317,note_off,152,0,0,,0,,,60,127
26317,note_off,0,0,0,,10,,,69,127
26317,note_off,0,0,0,,4,,,40,127
26317,note_off,0,0,0,,4,,,52,127
26319,note_on,2,0,0,,4,,,40,127
26319,note_on,0,0,0,,4,,,52,127
26319,note_on,0,0,0,,4,,,64,127
26319,note_on,0,0,0,,12,,,71,127
26471,note_off,152,0,0,,12,,,71,127
26473,note_on,2,0,0,,0,,,72,127
26623,note_off,150,0,0,,4,,,64,127
26625,note_off,2,0,0,,0,,,72,127
26627,note_on,2,0,0,,10,,,69,127
26627,note_on,0,0,0,,0,,,60,127
26779,note_off,152,0,0,,0,,,60,127
26779,note_off,0,0,0,,10,,,69,127
26779,note_off,0,0,0,,4,,,52,127
26779,note_off,0,0,0,,4,,,40,127
26781,note_on,2,0,0,,4,,,40,127
26781,note_on,0,0,0,,4,,,52,127
26781,note_on,0,0,0,,4,,,64,127
26781,note_on,0,0,0,,12,,,71,127
26933,note_off,152,0,0,,12,,,71,127
26935,note_on,2,0,0,,0,,,72,127
27085,note_off,150,0,0,,4,,,64,127
27087,note_off,2,0,0,,0,,,72,127
27089,note_on,2,0,0,,10,,,69,127
27089,note_on,0,0,0,,0,,,60,127
27241,note_off,152,0,0,,0,,,60,127
27241,note_off,0,0,0,,10,,,69,127
27241,note_off,0,0,0,,4,,,52,127
27241,note_off,0,0,0,,4,,,40,127
27243,note_on,2,0,0,,4,,,40,127
27243,note_on,0,0,0,,4,,,52,127
27243,note_on,0,0,0,,10,,,69,127
27243,note_on,0,0,0,,4,,,64,127
27549,note_off,306,0,0,,10,,,69,127
27551,note_on,2,0,0,,12,,,71,127
27703,note_off,152,0,0,,12,,,71,127
27703,note_off,0,0,0,,4,,,52,127
27703,note_off,0,0,0,,4,,,40,127
27704,note_off,1,0,0,,4,,,64,127
27705,note_on,1,0,0,,4,,,40,127
27705,note_on,0,0,0,,4,,,52,127
27705,note_on,0,0,0,,4,,,76,127
27705,note_on,0,0,0,,8,,,68,127
27857,note_off,152,0,0,,4,,,76,127
27859,note_on,2,0,0,,5,,,77,127
28009,note_off,150,0,0,,8,,,68,127
28011,note_off,2,0,0,,5,,,77,127
28013,note_on,2,0,0,,2,,,74,127
28013,note_on,0,0,0,,10,,,69,127
28165,note_off,152,0,0,,10,,,69,127
28165,note_off,0,0,0,,2,,,74,127
28165,note_off,0,0,0,,4,,,52,127
28165,note_off,0,0,0,,4,,,40,127
28167,note_on,2,0,0,,4,,,52,127
28167,note_on,0,0,0,,4,,,40,127
28167,note_on,0,0,0,,8,,,68,127
28167,note_on,0,0,0,,4,,,76,127
28319,note_off,152,0,0,,4,,,76,127
28321,note_on,2,0,0,,5,,,77,127
28471,note_off,150,0,0,,8,,,68,127
28473,note_off,2,0,0,,5,,,77,127
28475,note_on,2,0,0,,2,,,74,127
28475,note_on,0,0,0,,10,,,69,127
28627,note_off,152,0,0,,10,,,69,127
28627,note_off,0,0,0,,2,,,74,127
28627,note_off,0,0,0,,4,,,40,127
28627,note_off,0,0,0,,4,,,52,127
28629,note_on,2,0,0,,4,,,52,127
28629,note_on,0,0,0,,4,,,40,127
28629,note_on,0,0,0,,8,,,68,127
28629,note_on,0,0,0,,4,,,76,127
28781,note_off,152,0,0,,4,,,76,127
28783,note_on,2,0,0,,5,,,77,127
28933,note_off,150,0,0,,8,,,68,127
28935,note_off,2,0,0,,5,,,77,127
28937,note_on,2,0,0,,2,,,74,127
28937,note_on,0,0,0,,10,,,69,127
29089,note_off,152,0,0,,10,,,69,127
29089,note_off,0,0,0,,2,,,74,127
29089,note_off,0,0,0,,4,,,40,127
29089,note_off,0,0,0,,4,,,52,127
29091,note_on,2,0,0,,4,,,52,127
29091,note_on,0,0,0,,4,,,40,127
29091,note_on,0,0,0,,2,,,74,127
29091,note_on,0,0,0,,8,,,68,127
29397,note_off,306,0,0,,2,,,74,127
29399,note_on,2,0,0,,4,,,76,127
29551,note_off,152,0,0,,4,,,76,127
29551,note_off,0,0,0,,4,,,40,127
29551,note_off,0,0,0,,4,,,52,127
29552,note_off,1,0,0,,8,,,68,127
29553,note_on,1,0,0,,4,,,52,127
29553,note_on,0,0,0,,12,,,83,127
29705,note_off,152,0,0,,12,,,83,127
29707,note_on,2,0,0,,4,,,76,127
29859,note_off,152,0,0,,4,,,76,127
29859,note_off,0,0,0,,4,,,52,127
29861,note_on,2,0,0,,8,,,56,127
29861,note_on,0,0,0,,12,,,71,127
30013,note_off,152,0,0,,12,,,71,127
30013,note_off,0,0,0,,8,,,56,127
30015,note_on,2,0,0,,10,,,57,127
30015,note_on,0,0,0,,0,,,72,127
30015,note_on,0,0,0,,2,,,74,127
30167,note_off,152,0,0,,2,,,74,127
30167,note_off,0,0,0,,0,,,72,127
30169,note_on,2,0,0,,12,,,71,127
30321,note_off,152,0,0,,12,,,71,127
30321,note_off,0,0,0,,10,,,57,127
30323,note_on,2,0,0,,5,,,53,127
30323,note_on,0,0,0,,0,,,72,127
30475,note_off,152,0,0,,0,,,72,127
30475,note_off,0,0,0,,5,,,53,127
30477,note_on,2,0,0,,2,,,50,127
30477,note_on,0,0,0,,4,,,76,127
30477,note_on,0,0,0,,2,,,74,127
30629,note_off,152,0,0,,2,,,74,127
30629,note_off,0,0,0,,4,,,76,127
30631,note_on,2,0,0,,0,,,72,127
30783,note_off,152,0,0,,0,,,72,127
30783,note_off,0,0,0,,2,,,50,127
30785,note_on,2,0,0,,4,,,52,127
30785,note_on,0,0,0,,12,,,71,127
30937,note_off,152,0,0,,12,,,71,127
30937,note_off,0,0,0,,4,,,52,127
30939,note_on,2,0,0,,10,,,45,127
30939,note_on,0,0,0,,12,,,71,127
31091,note_off,152,0,0,,12,,,71,127
31093,note_on,2,0,0,,10,,,69,127
31168,note_off,75,0,0,,10,,,69,127
31170,note_on,2,0,0,,12,,,71,127
31245,note_off,75,0,0,,12,,,71,127
31247,note_on,2,0,0,,10,,,69,127
31399,note_off,152,0,0,,10,,,69,127
31399,note_off,0,0,0,,10,,,45,127
31401,note_on,2,0,0,,4,,,52,127
31401,note_on,0,0,0,,4,,,40,127
31401,note_on,0,0,0,,12,,,71,127
31401,note_on,0,0,0,,4,,,64,127
31553,note_off,152,0,0,,12,,,71,127
31555,note_on,2,0,0,,0,,,72,127
31705,note_off,150,0,0,,4,,,64,127
31707,note_off,2,0,0,,0,,,72,127
31709,note_on,2,0,0,,0,,,60,127
31709,note_on,0,0,0,,10,,,69,127
31861,note_off,152,0,0,,10,,,69,127
31861,note_off,0,0,0,,0,,,60,127
31861,note_off,0,0,0,,4,,,40,127
31861,note_off,0,0,0,,4,,,52,127
31863,note_on,2,0,0,,4,,,52,127
31863,note_on,0,0,0,,4,,,40,127
31863,note_on,0,0,0,,4,,,64,127
31863,note_on,0,0,0,,12,,,71,127
32015,note_off,152,0,0,,12,,,71,127
32017,note_on,2,0,0,,0,,,72,127
32167,note_off,150,0,0,,4,,,64,127
32169,note_off,2,0,0,,0,,,72,127
32171,note_on,2,0,0,,0,,,60,127
32171,note_on,0,0,0,,10,,,69,127
32323,note_off,152,0,0,,10,,,69,127
32323,note_off,0,0,0,,0,,,60,127
32323,note_off,0,0,0,,4,,,40,127
32323,note_off,0,0,0,,4,,,52,127
32325,note_on,2,0,0,,4,,,52,127
32325,note_on,0,0,0,,4,,,40,127
32325,note_on,0,0,0,,4,,,64,127
32325,note_on,0,0,0,,12,,,71,127
32477,note_off,152,0,0,,12,,,71,127
32479,note_on,2,0,0,,0,,,72,127
32629,note_off,150,0,0,,4,,,64,127
32631,note_off,2,0,0,,0,,,72,127
32633,note_on,2,0,0,,10,,,69,127
32633,note_on,0,0,0,,0,,,60,127
32785,note_off,152,0,0,,0,,,60,127
32785,note_off,0,0,0,,10,,,69,127
32785,note_off,0,0,0,,4,,,40,127
32785,note_off,0,0,0,,4,,,52,127
32787,note_on,2,0,0,,4,,,40,127
32787,note_on,0,0,0,,4,,,52,127
32787,note_on,0,0,0,,10,,,69,127
32787,note_on,0,0,0,,4,,,64,127
33093,note_off,306,0,0,,10,,,69,127
33095,note_on,2,0,0,,12,,,71,127
33247,note_off,152,0,0,,12,,,71,127
33247,note_off,0,0,0,,4,,,52,127
33247,note_off,0,0,0,,4,,,40,127
33248,note_off,1,0,0,,4,,,64,127
33249,note_on,1,0,0,,4,,,40,127
33249,note_on,0,0,0,,4,,,52,127
33249,note_on,0,0,0,,8,,,68,127
33249,note_on,0,0,0,,4,,,76,127
33401,note_off,152,0,0,,4,,,76,127
33403,note_on,2,0,0,,5,,,77,127
33553,note_off,150,0,0,,8,,,68,127
33555,note_off,2,0,0,,5,,,77,127
33557,note_on,2,0,0,,2,,,74,127
33557,note_on,0,0,0,,10,,,69,127
33709,note_off,152,0,0,,10,,,69,127
33709,note_off,0,0,0,,2,,,74,127
33709,note_off,0,0,0,,4,,,52,127
33709,note_off,0,0,0,,4,,,40,127
33711,note_on,2,0,0,,4,,,40,127
33711,note_on,0,0,0,,4,,,52,127
33711,note_on,0,0,0,,8,,,68,127
33711,note_on,0,0,0,,4,,,76,127
33863,note_off,152,0,0,,4,,,76,127
33865,note_on,2,0,0,,5,,,77,127
34015,note_off,150,0,0,,8,,,68,127
34017,note_off,2,0,0,,5,,,77,127
34019,note_on,2,0,0,,10,,,69,127
34019,note_on,0,0,0,,2,,,74,127
34171,note_off,152,0,0,,2,,,74,127
34171,note_off,0,0,0,,10,,,69,127
34171,note_off,0,0,0,,4,,,52,127
34171,note_off,0,0,0,,4,,,40,127
34173,note_on,2,0,0,,4,,,40,127
34173,note_on,0,0,0,,4,,,52,127
34173,note_on,0,0,0,,4,,,76,127
34173,note_on,0,0,0,,8,,,68,127
34325,note_off,152,0,0,,4,,,76,127
34327,note_on,2,0,0,,5,,,77,127
34477,note_off,150,0,0,,8,,,68,127
34479,note_off,2,0,0,,5,,,77,127
34481,note_on,2,0,0,,2,,,74,127
34481,note_on,0,0,0,,10,,,69,127
34633,note_off,152,0,0,,10,,,69,127
34633,note_off,0,0,0,,2,,,74,127
34633,note_off,0,0,0,,4,,,52,127
34633,note_off,0,0,0,,4,,,40,127
34635,note_on,2,0,0,,4,,,52,127
34635,note_on,0,0,0,,4,,,40,127
34635,note_on,0,0,0,,2,,,74,127
34635,note_on,0,0,0,,8,,,68,127
34941,note_off,306,0,0,,2,,,74,127
34943,note_on,2,0,0,,4,,,76,127
35095,note_off,152,0,0,,4,,,76,127
35095,note_off,0,0,0,,4,,,40,127
35095,note_off,0,0,0,,4,,,52,127
35096,note_off,1,0,0,,8,,,68,127
35097,note_on,1,0,0,,4,,,52,127
35097,note_on,0,0,0,,12,,,83,127
35249,note_off,152,0,0,,12,,,83,127
35251,note_on,2,0,0,,4,,,76,127
35403,note_off,152,0,0,,4,,,76,127
35403,note_off,0,0,0,,4,,,52,127
35405,note_on,2,0,0,,8,,,56,127
35405,note_on,0,0,0,,12,,,71,127
35557,note_off,152,0,0,,12,,,71,127
35557,note_off,0,0,0,,8,,,56,127
35559,note_on,2,0,0,,10,,,57,127
35559,note_on,0,0,0,,0,,,72,127
35559,note_on,0,0,0,,2,,,74,127
35711,note_off,152,0,0,,2,,,74,127
35711,note_off,0,0,0,,0,,,72,127
35713,note_on,2,0,0,,12,,,71,127
35865,note_off,152,0,0,,12,,,71,127
35865,note_off,0,0,0,,10,,,57,127
35867,note_on,2,0,0,,5,,,53,127
35867,note_on,0,0,0,,0,,,72,127
36019,note_off,152,0,0,,0,,,72,127
36019,note_off,0,0,0,,5,,,53,127
36021,note_on,2,0,0,,2,,,50,127
36021,note_on,0,0,0,,2,,,74,127
36021,note_on,0,0,0,,4,,,76,127
36173,note_off,152,0,0,,4,,,76,127
36173,note_off,0,0,0,,2,,,74,127
36175,note_on,2,0,0,,0,,,72,127
36327,note_off,152,0,0,,0,,,72,127
36327,note_off,0,0,0,,2,,,50,127
36329,note_on,2,0,0,,4,,,52,127
36329,note_on,0,0,0,,12,,,71,127
36481,note_off,152,0,0,,12,,,71,127
36481,note_off,0,0,0,,4,,,52,127
36483,note_on,2,0,0,,10,,,57,127
36637,note_on,154,0,0,,10,,,69,127
36787,note_off,150,0,0,,10,,,57,127
36790,note_on,3,0,0,,5,,,65,127
36942,note_off,152,0,0,,5,,,65,127
36944,note_on,2,0,0,,2,,,62,127
37096,note_off,152,0,0,,2,,,62,127
37098,note_on,2,0,0,,12,,,59,127
37250,note_off,152,0,0,,12,,,59,127
37252,note_on,2,0,0,,8,,,56,127
37404,note_off,152,0,0,,8,,,56,127
37406,note_on,2,0,0,,10,,,57,127
37560,note_on,154,0,0,,10,,,81,127
37712,note_off,152,0,0,,10,,,81,127
37712,note_off,0,0,0,,10,,,57,127
37712,note_off,0,0,0,,10,,,69,127
37714,note_on,2,0,0,,5,,,53,127
37714,note_on,0,0,0,,2,,,74,127
37866,note_off,152,0,0,,5,,,53,127
37868,note_on,2,0,0,,4,,,52,127
38020,note_off,152,0,0,,2,,,74,127
38022,note_on,2,0,0,,0,,,72,127
38174,note_off,152,0,0,,0,,,72,127
38174,note_off,0,0,0,,4,,,52,127
38176,note_on,2,0,0,,4,,,40,127
38176,note_on,0,0,0,,12,,,71,127
38328,note_off,152,0,0,,12,,,71,127
38328,note_off,0,0,0,,4,,,40,127
38330,note_on,2,0,0,,10,,,57,127
38484,note_on,154,0,0,,10,,,69,127
38634,note_off,150,0,0,,10,,,57,127
38637,note_on,3,0,0,,5,,,65,127
38789,note_off,152,0,0,,5,,,65,127
38791,note_on,2,0,0,,2,,,62,127
38943,note_off,152,0,0,,2,,,62,127
38945,note_on,2,0,0,,12,,,59,127
39097,note_off,152,0,0,,12,,,59,127
39099,note_on,2,0,0,,8,,,56,127
39251,note_off,152,0,0,,8,,,56,127
39253,note_on,2,0,0,,10,,,57,127
39407,note_on,154,0,0,,10,,,81,127
39559,note_off,152,0,0,,10,,,81,127
39559,note_off,0,0,0,,10,,,57,127
39559,note_off,0,0,0,,10,,,69,127
39561,note_on,2,0,0,,5,,,53,127
39561,note_on,0,0,0,,2,,,74,127
39713,note_off,152,0,0,,5,,,53,127
39715,note_on,2,0,0,,4,,,52,127
39867,note_off,152,0,0,,2,,,74,127
39869,note_on,2,0,0,,0,,,72,127
40021,note_off,152,0,0,,0,,,72,127
40023,note_on,2,0,0,,4,,,40,127
40023,note_on,0,0,0,,12,,,71,127
40175,note_off,152,0,0,,12,,,71,127
40175,note_off,0,0,0,,4,,,40,127
40176,note_off,1,0,0,,4,,,52,127
40177,note_on,1,0,0,,10,,,45,127
40177,note_on,0,0,0,,10,,,69,127
40329,note_off,152,0,0,,10,,,45,127
40331,note_on,2,0,0,,12,,,47,127
40483,note_off,152,0,0,,12,,,47,127
40483,note_off,0,0,0,,10,,,69,127
40485,note_on,2,0,0,,0,,,48,127
40485,note_on,0,0,0,,4,,,76,127
40637,note_off,152,0,0,,0,,,48,127
40639,note_on,2,0,0,,10,,,57,127
40639,note_on,0,0,0,,2,,,50,127
40791,note_off,152,0,0,,4,,,76,127
40793,note_on,2,0,0,,5,,,77,127
40945,note_off,152,0,0,,5,,,77,127
40947,note_on,2,0,0,,8,,,68,127
41099,note_off,152,0,0,,8,,,68,127
41099,note_off,0,0,0,,2,,,50,127
41099,note_off,0,0,0,,10,,,57,127
41101,note_on,2,0,0,,0,,,48,127
41101,note_on,0,0,0,,10,,,57,127
41101,note_on,0,0,0,,10,,,69,127
41253,note_off,152,0,0,,0,,,48,127
41255,note_on,2,0,0,,12,,,47,127
41407,note_off,152,0,0,,12,,,47,127
41407,note_off,0,0,0,,10,,,69,127
41409,note_on,2,0,0,,0,,,48,127
41409,note_on,0,0,0,,4,,,76,127
41561,note_off,152,0,0,,0,,,48,127
41562,note_off,1,0,0,,10,,,57,127
41563,note_on,1,0,0,,10,,,57,127
41563,note_on,0,0,0,,2,,,50,127
41715,note_off,152,0,0,,4,,,76,127
41717,note_on,2,0,0,,5,,,77,127
41869,note_off,152,0,0,,5,,,77,127
41871,note_on,2,0,0,,8,,,68,127
42023,note_off,152,0,0,,8,,,68,127
42023,note_off,0,0,0,,2,,,50,127
42023,note_off,0,0,0,,10,,,57,127
42025,note_on,2,0,0,,0,,,48,127
42025,note_on,0,0,0,,10,,,69,127
42177,note_off,152,0,0,,10,,,69,127
42179,note_on,2,0,0,,4,,,76,127
42179,note_on,0,0,0,,0,,,72,127
42331,note_off,152,0,0,,0,,,72,127
42331,note_off,0,0,0,,4,,,76,127
42331,note_off,0,0,0,,0,,,48,127
42333,note_on,2,0,0,,2,,,50,127
42333,note_on,0,0,0,,12,,,71,127
42333,note_on,0,0,0,,2,,,74,127
42485,note_off,152,0,0,,2,,,50,127
42487,note_on,2,0,0,,4,,,52,127
42639,note_off,152,0,0,,2,,,74,127
42639,note_off,0,0,0,,12,,,71,127
42641,note_on,2,0,0,,10,,,69,127
42641,note_on,0,0,0,,0,,,72,127
42793,note_off,152,0,0,,0,,,72,127
42793,note_off,0,0,0,,10,,,69,127
42795,note_on,2,0,0,,4,,,40,127
42795,note_on,0,0,0,,8,,,68,127
42795,note_on,0,0,0,,12,,,71,127
42947,note_off,152,0,0,,12,,,71,127
42947,note_off,0,0,0,,8,,,68,127
42947,note_off,0,0,0,,4,,,40,127
42948,note_off,1,0,0,,4,,,52,127
42949,note_on,1,0,0,,10,,,57,127
42949,note_on,0,0,0,,10,,,45,127
42949,note_on,0,0,0,,10,,,69,127
43408,note_off,459,0,0,,10,,,69,127
43409,note_off,1,0,0,,10,,,45,127
43409,note_off,0,0,0,,10,,,57,127
43410,note_on,1,0,0,,1,,,73,127
43564,note_on,154,0,0,,10,,,69,127
43602,note_off,38,0,0,,1,,,73,127
43716,note_off,114,0,0,,10,,,69,127
43718,note_on,2,0,0,,2,,,74,127
43870,note_off,152,0,0,,2,,,74,127
43872,note_on,2,0,0,,4,,,76,127
44026,note_on,154,0,0,,10,,,69,127
44064,note_off,38,0,0,,4,,,76,127
44178,note_off,114,0,0,,10,,,69,127
44180,note_on,2,0,0,,5,,,77,127
44332,note_off,152,0,0,,5,,,77,127
44334,note_on,2,0,0,,7,,,79,127
44488,note_on,154,0,0,,10,,,69,127
44526,note_off,38,0,0,,7,,,79,127
44640,note_off,114,0,0,,10,,,69,127
44642,note_on,2,0,0,,5,,,77,127
44794,note_off,152,0,0,,5,,,77,127
44796,note_on,2,0,0,,4,,,76,127
44950,note_on,154,0,0,,10,,,69,127
44988,note_off,38,0,0,,4,,,76,127
45102,note_off,114,0,0,,10,,,69,127
45104,note_on,2,0,0,,2,,,74,127
45256,note_off,152,0,0,,2,,,74,127
45258,note_on,2,0,0,,1,,,61,127
45258,note_on,0,0,0,,4,,,76,127
45410,note_off,152,0,0,,1,,,61,127
45412,note_on,2,0,0,,10,,,57,127
45564,note_off,152,0,0,,10,,,57,127
45566,note_on,2,0,0,,2,,,62,127
45718,note_off,152,0,0,,2,,,62,127
45720,note_on,2,0,0,,4,,,64,127
45872,note_off,152,0,0,,4,,,64,127
45874,note_on,2,0,0,,10,,,57,127
46026,note_off,152,0,0,,10,,,57,127
46026,note_off,0,0,0,,4,,,76,127
46028,note_on,2,0,0,,5,,,65,127
46028,note_on,0,0,0,,2,,,74,127
46180,note_off,152,0,0,,2,,,74,127
46180,note_off,0,0,0,,5,,,65,127
46182,note_on,2,0,0,,7,,,67,127
46182,note_on,0,0,0,,1,,,73,127
46334,note_off,152,0,0,,7,,,67,127
46336,note_on,2,0,0,,10,,,57,127
46488,note_off,152,0,0,,10,,,57,127
46488,note_off,0,0,0,,1,,,73,127
46490,note_on,2,0,0,,5,,,65,127
46490,note_on,0,0,0,,2,,,74,127
46642,note_off,152,0,0,,2,,,74,127
46642,note_off,0,0,0,,5,,,65,127
46644,note_on,2,0,0,,4,,,64,127
46644,note_on,0,0,0,,4,,,76,127
46796,note_off,152,0,0,,4,,,64,127
46798,note_on,2,0,0,,10,,,57,127
46950,note_off,152,0,0,,10,,,57,127
46950,note_off,0,0,0,,4,,,76,127
46952,note_on,2,0,0,,2,,,62,127
46952,note_on,0,0,0,,5,,,77,127
47104,note_off,152,0,0,,5,,,77,127
47104,note_off,0,0,0,,2,,,62,127
47106,note_on,2,0,0,,1,,,61,127
47106,note_on,0,0,0,,7,,,79,127
47258,note_off,152,0,0,,1,,,61,127
47260,note_on,2,0,0,,4,,,64,127
47412,note_off,152,0,0,,4,,,64,127
47414,note_on,2,0,0,,11,,,58,127
47566,note_off,152,0,0,,11,,,58,127
47566,note_off,0,0,0,,7,,,79,127
47568,note_on,2,0,0,,10,,,57,127
47568,note_on,0,0,0,,10,,,81,127
47722,note_on,154,0,0,,10,,,69,127
47872,note_off,150,0,0,,10,,,81,127
47874,note_off,2,0,0,,10,,,69,127
47876,note_on,2,0,0,,7,,,79,127
48028,note_off,152,0,0,,7,,,79,127
48028,note_off,0,0,0,,10,,,57,127
48030,note_on,2,0,0,,2,,,62,127
48030,note_on,0,0,0,,7,,,79,127
48030,note_on,0,0,0,,5,,,77,127
48182,note_off,152,0,0,,7,,,79,127
48182,note_off,0,0,0,,2,,,62,127
48184,note_on,2,0,0,,2,,,50,127
48336,note_off,152,0,0,,2,,,50,127
48336,note_off,0,0,0,,5,,,77,127
48338,note_on,2,0,0,,0,,,60,127
48338,note_on,0,0,0,,4,,,76,127
48490,note_off,152,0,0,,4,,,76,127
48490,note_off,0,0,0,,0,,,60,127
48492,note_on,2,0,0,,11,,,58,127
48492,note_on,0,0,0,,4,,,76,127
48492,note_on,0,0,0,,2,,,74,127
48644,note_off,152,0,0,,4,,,76,127
48644,note_off,0,0,0,,11,,,58,127
48646,note_on,2,0,0,,2,,,62,127
48798,note_off,152,0,0,,2,,,62,127
48798,note_off,0,0,0,,2,,,74,127
48800,note_on,2,0,0,,10,,,57,127
48800,note_on,0,0,0,,0,,,72,127
48952,note_off,152,0,0,,0,,,72,127
48952,note_off,0,0,0,,10,,,57,127
48954,note_on,2,0,0,,7,,,55,127
48954,note_on,0,0,0,,0,,,72,127
49029,note_off,75,0,0,,0,,,72,127
49031,note_on,2,0,0,,11,,,70,127
49106,note_off,75,0,0,,11,,,70,127
49108,note_on,2,0,0,,10,,,69,127
49260,note_off,152,0,0,,10,,,69,127
49262,note_on,2,0,0,,11,,,70,127
49414,note_off,152,0,0,,11,,,70,127
49414,note_off,0,0,0,,7,,,55,127
49416,note_on,2,0,0,,7,,,55,127
49416,note_on,0,0,0,,7,,,79,127
49570,note_on,154,0,0,,7,,,67,127
49720,note_off,150,0,0,,7,,,79,127
49722,note_off,2,0,0,,7,,,67,127
49724,note_on,2,0,0,,5,,,77,127
49876,note_off,152,0,0,,5,,,77,127
49876,note_off,0,0,0,,7,,,55,127
49878,note_on,2,0,0,,0,,,60,127
49878,note_on,0,0,0,,5,,,77,127
49878,note_on,0,0,0,,4,,,76,127
50030,note_off,152,0,0,,5,,,77,127
50030,note_off,0,0,0,,0,,,60,127
50032,note_on,2,0,0,,0,,,48,127
50184,note_off,152,0,0,,0,,,48,127
50184,note_off,0,0,0,,4,,,76,127
50186,note_on,2,0,0,,11,,,58,127
50186,note_on,0,0,0,,2,,,74,127
50338,note_off,152,0,0,,2,,,74,127
50338,note_off,0,0,0,,11,,,58,127
50340,note_on,2,0,0,,10,,,57,127
50340,note_on,0,0,0,,2,,,74,127
50340,note_on,0,0,0,,0,,,72,127
50492,note_off,152,0,0,,2,,,74,127
50492,note_off,0,0,0,,10,,,57,127
50494,note_on,2,0,0,,0,,,60,127
50646,note_off,152,0,0,,0,,,60,127
50646,note_off,0,0,0,,0,,,72,127
50648,note_on,2,0,0,,7,,,55,127
50648,note_on,0,0,0,,11,,,70,127
50800,note_off,152,0,0,,11,,,70,127
50800,note_off,0,0,0,,7,,,55,127
50802,note_on,2,0,0,,5,,,53,127
50802,note_on,0,0,0,,11,,,70,127
50877,note_off,75,0,0,,11,,,70,127
50879,note_on,2,0,0,,10,,,69,127
50954,note_off,75,0,0,,10,,,69,127
50956,note_on,2,0,0,,7,,,67,127
51108,note_off,152,0,0,,7,,,67,127
51110,note_on,2,0,0,,5,,,41,127
51110,note_on,0,0,0,,5,,,65,127
51262,note_off,152,0,0,,5,,,65,127
51262,note_off,0,0,0,,5,,,41,127
51263,note_off,1,0,0,,5,,,53,127
51264,note_on,1,0,0,,0,,,48,127
51264,note_on,0,0,0,,0,,,36,127
51264,note_on,0,0,0,,7,,,79,127
51264,note_on,0,0,0,,0,,,72,127
51416,note_off,152,0,0,,7,,,79,127
51418,note_on,2,0,0,,10,,,81,127
51568,note_off,150,0,0,,0,,,72,127
51570,note_off,2,0,0,,10,,,81,127
51572,note_on,2,0,0,,10,,,69,127
51572,note_on,0,0,0,,5,,,77,127
51724,note_off,152,0,0,,5,,,77,127
51724,note_off,0,0,0,,10,,,69,127
51724,note_off,0,0,0,,0,,,36,127
51724,note_off,0,0,0,,0,,,48,127
51726,note_on,2,0,0,,0,,,48,127
51726,note_on,0,0,0,,0,,,36,127
51726,note_on,0,0,0,,0,,,72,127
51726,note_on,0,0,0,,7,,,79,127
51878,note_off,152,0,0,,7,,,79,127
51880,note_on,2,0,0,,10,,,81,127
52030,note_off,150,0,0,,0,,,72,127
52032,note_off,2,0,0,,10,,,81,127
52034,note_on,2,0,0,,10,,,69,127
52034,note_on,0,0,0,,5,,,77,127
52186,note_off,152,0,0,,5,,,77,127
52186,note_off,0,0,0,,10,,,69,127
52186,note_off,0,0,0,,0,,,36,127
52186,note_off,0,0,0,,0,,,48,127
52188,note_on,2,0,0,,0,,,48,127
52188,note_on,0,0,0,,0,,,36,127
52188,note_on,0,0,0,,0,,,72,127
52188,note_on,0,0,0,,7,,,79,127
52340,note_off,152,0,0,,7,,,79,127
52342,note_on,2,0,0,,10,,,81,127
52492,note_off,150,0,0,,0,,,72,127
52494,note_off,2,0,0,,10,,,81,127
52496,note_on,2,0,0,,5,,,77,127
52496,note_on,0,0,0,,10,,,69,127
52648,note_off,152,0,0,,10,,,69,127
52648,note_off,0,0,0,,5,,,77,127
52648,note_off,0,0,0,,0,,,36,127
52648,note_off,0,0,0,,0,,,48,127
52650,note_on,2,0,0,,0,,,36,127
52650,note_on,0,0,0,,0,,,48,127
52650,note_on,0,0,0,,5,,,77,127
52650,note_on,0,0,0,,0,,,72,127
52956,note_off,306,0,0,,5,,,77,127
52958,note_on,2,0,0,,7,,,79,127
53110,note_off,152,0,0,,7,,,79,127
53110,note_off,0,0,0,,0,,,48,127
53110,note_off,0,0,0,,0,,,36,127
53111,note_off,1,0,0,,0,,,72,127
53112,note_on,1,0,0,,0,,,48,127
53112,note_on,0,0,0,,0,,,36,127
53112,note_on,0,0,0,,0,,,84,127
53112,note_on,0,0,0,,4,,,76,127
53264,note_off,152,0,0,,0,,,84,127
53266,note_on,2,0,0,,2,,,86,127
53416,note_off,150,0,0,,4,,,76,127
53418,note_off,2,0,0,,2,,,86,127
53420,note_on,2,0,0,,12,,,83,127
53420,note_on,0,0,0,,5,,,77,127
53572,note_off,152,0,0,,5,,,77,127
53572,note_off,0,0,0,,12,,,83,127
53572,note_off,0,0,0,,0,,,36,127
53572,note_off,0,0,0,,0,,,48,127
53574,note_on,2,0,0,,0,,,48,127
53574,note_on,0,0,0,,0,,,36,127
53574,note_on,0,0,0,,0,,,84,127
53574,note_on,0,0,0,,4,,,76,127
53726,note_off,152,0,0,,0,,,84,127
53728,note_on,2,0,0,,2,,,86,127
53878,note_off,150,0,0,,4,,,76,127
53880,note_off,2,0,0,,2,,,86,127
53882,note_on,2,0,0,,12,,,83,127
53882,note_on,0,0,0,,5,,,77,127
54034,note_off,152,0,0,,5,,,77,127
54034,note_off,0,0,0,,12,,,83,127
54034,note_off,0,0,0,,0,,,36,127
54034,note_off,0,0,0,,0,,,48,127
54036,note_on,2,0,0,,0,,,48,127
54036,note_on,0,0,0,,0,,,36,127
54036,note_on,0,0,0,,0,,,84,127
54036,note_on,0,0,0,,4,,,76,127
54188,note_off,152,0,0,,0,,,84,127
54190,note_on,2,0,0,,2,,,86,127
54340,note_off,150,0,0,,4,,,76,127
54342,note_off,2,0,0,,2,,,86,127
54344,note_on,2,0,0,,5,,,77,127
54344,note_on,0,0,0,,12,,,83,127
54496,note_off,152,0,0,,12,,,83,127
54496,note_off,0,0,0,,5,,,77,127
54496,note_off,0,0,0,,0,,,36,127
54496,note_off,0,0,0,,0,,,48,127
54498,note_on,2,0,0,,0,,,48,127
54498,note_on,0,0,0,,0,,,36,127
54498,note_on,0,0,0,,12,,,83,127
54498,note_on,0,0,0,,4,,,76,127
54804,note_off,306,0,0,,12,,,83,127
54806,note_on,2,0,0,,0,,,84,127
54958,note_off,152,0,0,,0,,,84,127
54958,note_off,0,0,0,,0,,,36,127
54958,note_off,0,0,0,,0,,,48,127
54959,note_off,1,0,0,,4,,,76,127
54960,note_on,1,0,0,,0,,,48,127
54960,note_on,0,0,0,,0,,,84,127
55112,note_off,152,0,0,,0,,,84,127
55114,note_on,2,0,0,,7,,,79,127
55266,note_off,152,0,0,,7,,,79,127
55266,note_off,0,0,0,,0,,,48,127
55268,note_on,2,0,0,,4,,,52,127
55268,note_on,0,0,0,,0,,,72,127
55420,note_off,152,0,0,,0,,,72,127
55420,note_off,0,0,0,,4,,,52,127
55422,note_on,2,0,0,,5,,,53,127
55422,note_on,0,0,0,,11,,,82,127
55497,note_off,75,0,0,,11,,,82,127
55499,note_on,2,0,0,,10,,,81,127
55574,note_off,75,0,0,,10,,,81,127
55576,note_on,2,0,0,,7,,,79,127
55728,note_off,152,0,0,,7,,,79,127
55728,note_off,0,0,0,,5,,,53,127
55730,note_on,2,0,0,,11,,,46,127
55730,note_on,0,0,0,,10,,,81,127
55882,note_off,152,0,0,,10,,,81,127
55882,note_off,0,0,0,,11,,,46,127
55884,note_on,2,0,0,,0,,,48,127
55884,note_on,0,0,0,,0,,,84,127
55959,note_off,75,0,0,,0,,,84,127
55961,note_on,2,0,0,,11,,,82,127
56036,note_off,75,0,0,,11,,,82,127
56038,note_on,2,0,0,,10,,,81,127
56190,note_off,152,0,0,,10,,,81,127
56192,note_on,2,0,0,,0,,,36,127
56192,note_on,0,0,0,,7,,,79,127
56344,note_off,152,0,0,,7,,,79,127
56344,note_off,0,0,0,,0,,,36,127
56345,note_off,1,0,0,,0,,,48,127
56346,note_on,1,0,0,,5,,,41,127
56346,note_on,0,0,0,,5,,,53,127
56346,note_on,0,0,0,,7,,,79,127
56421,note_off,75,0,0,,7,,,79,127
56423,note_on,2,0,0,,5,,,77,127
56498,note_off,75,0,0,,5,,,77,127
56500,note_on,2,0,0,,7,,,79,127
56575,note_off,75,0,0,,7,,,79,127
56577,note_on,2,0,0,,5,,,77,127
56652,note_off,75,0,0,,5,,,77,127
56654,note_on,2,0,0,,7,,,79,127
56729,note_off,75,0,0,,7,,,79,127
56731,note_on,2,0,0,,5,,,77,127
56806,note_off,75,0,0,,5,,,77,127
56806,note_off,0,0,0,,5,,,53,127
56806,note_off,0,0,0,,5,,,41,127
56808,note_on,2,0,0,,5,,,53,127
56808,note_on,0,0,0,,5,,,41,127
56808,note_on,0,0,0,,10,,,81,127
56960,note_off,152,0,0,,10,,,81,127
56962,note_on,2,0,0,,5,,,77,127
57114,note_off,152,0,0,,5,,,77,127
57116,note_on,2,0,0,,2,,,74,127
57268,note_off,152,0,0,,2,,,74,127
57268,note_off,0,0,0,,5,,,41,127
57268,note_off,0,0,0,,5,,,53,127
57270,note_on,2,0,0,,7,,,55,127
57270,note_on,0,0,0,,12,,,71,127
57422,note_off,152,0,0,,12,,,71,127
57424,note_on,2,0,0,,5,,,65,127
57576,note_off,152,0,0,,5,,,65,127
57578,note_on,2,0,0,,2,,,62,127
57730,note_off,152,0,0,,2,,,62,127
57730,note_off,0,0,0,,7,,,55,127
57732,note_on,2,0,0,,7,,,43,127
57732,note_on,0,0,0,,12,,,59,127
57884,note_off,152,0,0,,12,,,59,127
57886,note_on,2,0,0,,7,,,55,127
58038,note_off,152,0,0,,7,,,55,127
58040,note_on,2,0,0,,5,,,77,127
58192,note_off,152,0,0,,5,,,77,127
58192,note_off,0,0,0,,7,,,43,127
58194,note_on,2,0,0,,0,,,48,127
58194,note_on,0,0,0,,7,,,79,127
58269,note_off,75,0,0,,7,,,79,127
58271,note_on,2,0,0,,5,,,77,127
58346,note_off,75,0,0,,5,,,77,127
58348,note_on,2,0,0,,7,,,79,127
58423,note_off,75,0,0,,7,,,79,127
58425,note_on,2,0,0,,5,,,77,127
58500,note_off,75,0,0,,5,,,77,127
58502,note_on,2,0,0,,4,,,76,127
58654,note_off,152,0,0,,4,,,76,127
58655,note_off,1,0,0,,0,,,48,127
58656,note_on,1,0,0,,11,,,82,127
58808,note_off,152,0,0,,11,,,82,127
58810,note_on,2,0,0,,7,,,79,127
58962,note_off,152,0,0,,7,,,79,127
58964,note_on,2,0,0,,4,,,76,127
59116,note_off,152,0,0,,4,,,76,127
59118,note_on,2,0,0,,7,,,43,127
59118,note_on,0,0,0,,1,,,73,127
59270,note_off,152,0,0,,1,,,73,127
59272,note_on,2,0,0,,11,,,70,127
59424,note_off,152,0,0,,11,,,70,127
59426,note_on,2,0,0,,7,,,67,127
59578,note_off,152,0,0,,7,,,67,127
59578,note_off,0,0,0,,7,,,43,127
59580,note_on,2,0,0,,10,,,45,127
59580,note_on,0,0,0,,4,,,64,127
59732,note_off,152,0,0,,4,,,64,127
59734,note_on,2,0,0,,1,,,61,127
59886,note_off,152,0,0,,1,,,61,127
59888,note_on,2,0,0,,7,,,79,127
60040,note_off,152,0,0,,7,,,79,127
60040,note_off,0,0,0,,10,,,45,127
60042,note_on,2,0,0,,2,,,38,127
60042,note_on,0,0,0,,10,,,81,127
60117,note_off,75,0,0,,10,,,81,127
60119,note_on,2,0,0,,7,,,79,127
60194,note_off,75,0,0,,7,,,79,127
60196,note_on,2,0,0,,10,,,81,127
60271,note_off,75,0,0,,10,,,81,127
60273,note_on,2,0,0,,7,,,79,127
60348,note_off,75,0,0,,7,,,79,127
60350,note_on,2,0,0,,5,,,77,127
60502,note_off,152,0,0,,5,,,77,127
60502,note_off,0,0,0,,2,,,38,127
60504,note_on,2,0,0,,2,,,50,127
60504,note_on,0,0,0,,10,,,81,127
60656,note_off,152,0,0,,10,,,81,127
60658,note_on,2,0,0,,2,,,86,127
60658,note_on,0,0,0,,5,,,77,127
60810,note_off,152,0,0,,5,,,77,127
60810,note_off,0,0,0,,2,,,86,127
60812,note_on,2,0,0,,0,,,84,127
60812,note_on,0,0,0,,4,,,76,127
60964,note_off,152,0,0,,4,,,76,127
60964,note_off,0,0,0,,0,,,84,127
60964,note_off,0,0,0,,2,,,50,127
60966,note_on,2,0,0,,7,,,55,127
60966,note_on,0,0,0,,11,,,82,127
60966,note_on,0,0,0,,2,,,74,127
61118,note_off,152,0,0,,2,,,74,127
61118,note_off,0,0,0,,11,,,82,127
61120,note_on,2,0,0,,0,,,72,127
61120,note_on,0,0,0,,10,,,81,127
61272,note_off,152,0,0,,10,,,81,127
61272,note_off,0,0,0,,0,,,72,127
61274,note_on,2,0,0,,7,,,79,127
61274,note_on,0,0,0,,11,,,70,127
61426,note_off,152,0,0,,11,,,70,127
61426,note_off,0,0,0,,7,,,79,127
61426,note_off,0,0,0,,7,,,55,127
61428,note_on,2,0,0,,7,,,43,127
61428,note_on,0,0,0,,10,,,69,127
61428,note_on,0,0,0,,5,,,77,127
61580,note_off,152,0,0,,5,,,77,127
61580,note_off,0,0,0,,10,,,69,127
61582,note_on,2,0,0,,4,,,76,127
61582,note_on,0,0,0,,7,,,67,127
61734,note_off,152,0,0,,7,,,67,127
61734,note_off,0,0,0,,4,,,76,127
61736,note_on,2,0,0,,2,,,74,127
61736,note_on,0,0,0,,5,,,65,127
61888,note_off,152,0,0,,5,,,65,127
61888,note_off,0,0,0,,2,,,74,127
61888,note_off,0,0,0,,7,,,43,127
61890,note_on,2,0,0,,10,,,45,127
61890,note_on,0,0,0,,2,,,74,127
61890,note_on,0,0,0,,5,,,65,127
62196,note_off,306,0,0,,5,,,65,127
62196,note_off,0,0,0,,2,,,74,127
62198,note_on,2,0,0,,1,,,73,127
62198,note_on,0,0,0,,4,,,64,127
62350,note_off,152,0,0,,4,,,64,127
62350,note_off,0,0,0,,1,,,73,127
62350,note_off,0,0,0,,10,,,45,127
62352,note_on,2,0,0,,10,,,45,127
62352,note_on,0,0,0,,10,,,57,127
62352,note_on,0,0,0,,4,,,76,127
62352,note_on,0,0,0,,10,,,69,127
62504,note_off,152,0,0,,4,,,76,127
62506,note_on,2,0,0,,5,,,77,127
62656,note_off,150,0,0,,10,,,69,127
62658,note_off,2,0,0,,5,,,77,127
62660,note_on,2,0,0,,5,,,65,127
62660,note_on,0,0,0,,2,,,74,127
62812,note_off,152,0,0,,2,,,74,127
62812,note_off,0,0,0,,5,,,65,127
62812,note_off,0,0,0,,10,,,57,127
62812,note_off,0,0,0,,10,,,45,127
62814,note_on,2,0,0,,10,,,57,127
62814,note_on,0,0,0,,10,,,45,127
62814,note_on,0,0,0,,4,,,76,127
62814,note_on,0,0,0,,10,,,69,127
62966,note_off,152,0,0,,4,,,76,127
62968,note_on,2,0,0,,5,,,77,127
63118,note_off,150,0,0,,10,,,69,127
63120,note_off,2,0,0,,5,,,77,127
63122,note_on,2,0,0,,2,,,74,127
63122,note_on,0,0,0,,5,,,65,127
63274,note_off,152,0,0,,5,,,65,127
63274,note_off,0,0,0,,2,,,74,127
63274,note_off,0,0,0,,10,,,45,127
63274,note_off,0,0,0,,10,,,57,127
63276,note_on,2,0,0,,10,,,57,127
63276,note_on,0,0,0,,10,,,45,127
63276,note_on,0,0,0,,4,,,76,127
63276,note_on,0,0,0,,10,,,69,127
63428,note_off,152,0,0,,4,,,76,127
63430,note_on,2,0,0,,5,,,77,127
63580,note_off,150,0,0,,10,,,69,127
63582,note_off,2,0,0,,5,,,77,127
63584,note_on,2,0,0,,2,,,74,127
63584,note_on,0,0,0,,5,,,65,127
63736,note_off,152,0,0,,5,,,65,127
63736,note_off,0,0,0,,2,,,74,127
63736,note_off,0,0,0,,10,,,45,127
63736,note_off,0,0,0,,10,,,57,127
63738,note_on,2,0,0,,10,,,57,127
63738,note_on,0,0,0,,10,,,45,127
63738,note_on,0,0,0,,2,,,74,127
63738,note_on,0,0,0,,10,,,69,127
64044,note_off,306,0,0,,2,,,74,127
64046,note_on,2,0,0,,4,,,76,127
64198,note_off,152,0,0,,4,,,76,127
64198,note_off,0,0,0,,10,,,45,127
64198,note_off,0,0,0,,10,,,57,127
64199,note_off,1,0,0,,10,,,69,127
64200,note_on,1,0,0,,10,,,45,127
64200,note_on,0,0,0,,10,,,57,127
64200,note_on,0,0,0,,1,,,73,127
64200,note_on,0,0,0,,10,,,81,127
64352,note_off,152,0,0,,10,,,81,127
64354,note_on,2,0,0,,11,,,82,127
64504,note_off,150,0,0,,1,,,73,127
64506,note_off,2,0,0,,11,,,82,127
64508,note_on,2,0,0,,2,,,74,127
64508,note_on,0,0,0,,7,,,79,127
64660,note_off,152,0,0,,7,,,79,127
64660,note_off,0,0,0,,2,,,74,127
64660,note_off,0,0,0,,10,,,57,127
64660,note_off,0,0,0,,10,,,45,127
64662,note_on,2,0,0,,10,,,57,127
64662,note_on,0,0,0,,10,,,45,127
64662,note_on,0,0,0,,10,,,81,127
64662,note_on,0,0,0,,1,,,73,127
64814,note_off,152,0,0,,10,,,81,127
64816,note_on,2,0,0,,11,,,82,127
64966,note_off,150,0,0,,1,,,73,127
64968,note_off,2,0,0,,11,,,82,127
64970,note_on,2,0,0,,7,,,79,127
64970,note_on,0,0,0,,2,,,74,127
65122,note_off,152,0,0,,2,,,74,127
65122,note_off,0,0,0,,7,,,79,127
65122,note_off,0,0,0,,10,,,45,127
65122,note_off,0,0,0,,10,,,57,127
65124,note_on,2,0,0,,10,,,45,127
65124,note_on,0,0,0,,10,,,57,127
65124,note_on,0,0,0,,1,,,73,127
65124,note_on,0,0,0,,10,,,81,127
65276,note_off,152,0,0,,10,,,81,127
65278,note_on,2,0,0,,11,,,82,127
65428,note_off,150,0,0,,1,,,73,127
65430,note_off,2,0,0,,11,,,82,127
65432,note_on,2,0,0,,7,,,79,127
65432,note_on,0,0,0,,2,,,74,127
65584,note_off,152,0,0,,2,,,74,127
65584,note_off,0,0,0,,7,,,79,127
65584,note_off,0,0,0,,10,,,57,127
65584,note_off,0,0,0,,10,,,45,127
65586,note_on,2,0,0,,10,,,45,127
65586,note_on,0,0,0,,10,,,57,127
65586,note_on,0,0,0,,7,,,79,127
65586,note_on,0,0,0,,1,,,73,127
65892,note_off,306,0,0,,7,,,79,127
65894,note_on,2,0,0,,10,,,81,127
66046,note_off,152,0,0,,10,,,57,127
66046,note_off,0,0,0,,10,,,45,127
66047,note_off,1,0,0,,1,,,73,127
66048,note_on,1,0,0,,10,,,45,127
66048,note_on,0,0,0,,10,,,69,127
66198,note_off,150,0,0,,10,,,81,127
66201,note_on,3,0,0,,10,,,81,127
66351,note_off,150,0,0,,10,,,69,127
66353,note_off,2,0,0,,10,,,81,127
66353,note_off,0,0,0,,10,,,45,127
66355,note_on,2,0,0,,1,,,49,127
66355,note_on,0,0,0,,7,,,79,127
66507,note_off,152,0,0,,7,,,79,127
66507,note_off,0,0,0,,1,,,49,127
66509,note_on,2,0,0,,2,,,50,127
66509,note_on,0,0,0,,7,,,79,127
66584,note_off,75,0,0,,7,,,79,127
66586,note_on,2,0,0,,5,,,77,127
66661,note_off,75,0,0,,5,,,77,127
66663,note_on,2,0,0,,4,,,76,127
66815,note_off,152,0,0,,4,,,76,127
66815,note_off,0,0,0,,2,,,50,127
66817,note_on,2,0,0,,11,,,46,127
66817,note_on,0,0,0,,5,,,77,127
66969,note_off,152,0,0,,5,,,77,127
66969,note_off,0,0,0,,11,,,46,127
66971,note_on,2,0,0,,7,,,43,127
66971,note_on,0,0,0,,7,,,79,127
66971,note_on,0,0,0,,10,,,81,127
67123,note_off,152,0,0,,10,,,81,127
67123,note_off,0,0,0,,7,,,79,127
67125,note_on,2,0,0,,5,,,77,127
67277,note_off,152,0,0,,5,,,77,127
67277,note_off,0,0,0,,7,,,43,127
67279,note_on,2,0,0,,10,,,45,127
67279,note_on,0,0,0,,4,,,76,127
67431,note_off,152,0,0,,4,,,76,127
67431,note_off,0,0,0,,10,,,45,127
67433,note_on,2,0,0,,2,,,38,127
67433,note_on,0,0,0,,4,,,76,127
67508,note_off,75,0,0,,4,,,76,127
67510,note_on,2,0,0,,2,,,74,127
67585,note_off,75,0,0,,2,,,74,127
67587,note_on,2,0,0,,4,,,76,127
67662,note_off,75,0,0,,4,,,76,127
67664,note_on,2,0,0,,2,,,74,127
67739,note_off,75,0,0,,2,,,74,127
67741,note_on,2,0,0,,4,,,76,127
67816,note_off,75,0,0,,4,,,76,127
67818,note_on,2,0,0,,2,,,74,127
67893,note_off,75,0,0,,2,,,74,127
67893,note_off,0,0,0,,2,,,38,127
67895,note_on,2,0,0,,10,,,45,127
67895,note_on,0,0,0,,10,,,57,127
67895,note_on,0,0,0,,10,,,69,127
67895,note_on,0,0,0,,4,,,76,127
68047,note_off,152,0,0,,4,,,76,127
68049,note_on,2,0,0,,5,,,77,127
68199,note_off,150,0,0,,10,,,69,127
68201,note_off,2,0,0,,5,,,77,127
68203,note_on,2,0,0,,2,,,74,127
68203,note_on,0,0,0,,5,,,65,127
68355,note_off,152,0,0,,5,,,65,127
68355,note_off,0,0,0,,2,,,74,127
68355,note_off,0,0,0,,10,,,57,127
68355,note_off,0,0,0,,10,,,45,127
68357,note_on,2,0,0,,10,,,57,127
68357,note_on,0,0,0,,10,,,45,127
68357,note_on,0,0,0,,4,,,76,127
68357,note_on,0,0,0,,10,,,69,127
68509,note_off,152,0,0,,4,,,76,127
68511,note_on,2,0,0,,5,,,77,127
68661,note_off,150,0,0,,10,,,69,127
68663,note_off,2,0,0,,5,,,77,127
68665,note_on,2,0,0,,2,,,74,127
68665,note_on,0,0,0,,5,,,65,127
68817,note_off,152,0,0,,5,,,65,127
68817,note_off,0,0,0,,2,,,74,127
68817,note_off,0,0,0,,10,,,45,127
68817,note_off,0,0,0,,10,,,57,127
68819,note_on,2,0,0,,10,,,45,127
68819,note_on,0,0,0,,10,,,57,127
68819,note_on,0,0,0,,10,,,69,127
68819,note_on,0,0,0,,4,,,76,127
68971,note_off,152,0,0,,4,,,76,127
68973,note_on,2,0,0,,5,,,77,127
69123,note_off,150,0,0,,10,,,69,127
69125,note_off,2,0,0,,5,,,77,127
69127,note_on,2,0,0,,2,,,74,127
69127,note_on,0,0,0,,5,,,65,127
69279,note_off,152,0,0,,5,,,65,127
69279,note_off,0,0,0,,2,,,74,127
69279,note_off,0,0,0,,10,,,57,127
69279,note_off,0,0,0,,10,,,45,127
69281,note_on,2,0,0,,10,,,57,127
69281,note_on,0,0,0,,10,,,45,127
69281,note_on,0,0,0,,2,,,74,127
69281,note_on,0,0,0,,10,,,69,127
69587,note_off,306,0,0,,2,,,74,127
69589,note_on,2,0,0,,4,,,76,127
69741,note_off,152,0,0,,4,,,76,127
69741,note_off,0,0,0,,10,,,45,127
69741,note_off,0,0,0,,10,,,57,127
69742,note_off,1,0,0,,10,,,69,127
69743,note_on,1,0,0,,10,,,45,127
69743,note_on,0,0,0,,10,,,57,127
69743,note_on,0,0,0,,10,,,81,127
69743,note_on,0,0,0,,1,,,73,127
69895,note_off,152,0,0,,10,,,81,127
69897,note_on,2,0,0,,11,,,82,127
70047,note_off,150,0,0,,1,,,73,127
70049,note_off,2,0,0,,11,,,82,127
70051,note_on,2,0,0,,7,,,79,127
70051,note_on,0,0,0,,2,,,74,127
70203,note_off,152,0,0,,2,,,74,127
70203,note_off,0,0,0,,7,,,79,127
70203,note_off,0,0,0,,10,,,57,127
70203,note_off,0,0,0,,10,,,45,127
70205,note_on,2,0,0,,10,,,57,127
70205,note_on,0,0,0,,10,,,45,127
70205,note_on,0,0,0,,10,,,81,127
70205,note_on,0,0,0,,1,,,73,127
70357,note_off,152,0,0,,10,,,81,127
70359,note_on,2,0,0,,11,,,82,127
70509,note_off,150,0,0,,1,,,73,127
70511,note_off,2,0,0,,11,,,82,127
70513,note_on,2,0,0,,7,,,79,127
70513,note_on,0,0,0,,2,,,74,127
70665,note_off,152,0,0,,2,,,74,127
70665,note_off,0,0,0,,7,,,79,127
70665,note_off,0,0,0,,10,,,45,127
70665,note_off,0,0,0,,10,,,57,127
70667,note_on,2,0,0,,10,,,45,127
70667,note_on,0,0,0,,10,,,57,127
70667,note_on,0,0,0,,10,,,81,127
70667,note_on,0,0,0,,1,,,73,127
70819,note_off,152,0,0,,10,,,81,127
70821,note_on,2,0,0,,11,,,82,127
70971,note_off,150,0,0,,1,,,73,127
70973,note_off,2,0,0,,11,,,82,127
70975,note_on,2,0,0,,7,,,79,127
70975,note_on,0,0,0,,2,,,74,127
71127,note_off,152,0,0,,2,,,74,127
71127,note_off,0,0,0,,7,,,79,127
71127,note_off,0,0,0,,10,,,57,127
71127,note_off,0,0,0,,10,,,45,127
71129,note_on,2,0,0,,10,,,45,127
71129,note_on,0,0,0,,10,,,57,127
71129,note_on,0,0,0,,7,,,79,127
71129,note_on,0,0,0,,1,,,73,127
71435,note_off,306,0,0,,7,,,79,127
71437,note_on,2,0,0,,10,,,81,127
71589,note_off,152,0,0,,10,,,57,127
71589,note_off,0,0,0,,10,,,45,127
71590,note_off,1,0,0,,1,,,73,127
71591,note_on,1,0,0,,10,,,45,127
71591,note_on,0,0,0,,10,,,69,127
71741,note_off,150,0,0,,10,,,81,127
71744,note_on,3,0,0,,10,,,81,127
71894,note_off,150,0,0,,10,,,69,127
71896,note_off,2,0,0,,10,,,81,127
71896,note_off,0,0,0,,10,,,45,127
71898,note_on,2,0,0,,1,,,49,127
71898,note_on,0,0,0,,7,,,79,127
72050,note_off,152,0,0,,7,,,79,127
72050,note_off,0,0,0,,1,,,49,127
72052,note_on,2,0,0,,2,,,50,127
72052,note_on,0,0,0,,7,,,79,127
72127,note_off,75,0,0,,7,,,79,127
72129,note_on,2,0,0,,5,,,77,127
72204,note_off,75,0,0,,5,,,77,127
72206,note_on,2,0,0,,4,,,76,127
72358,note_off,152,0,0,,4,,,76,127
72358,note_off,0,0,0,,2,,,50,127
72360,note_on,2,0,0,,11,,,46,127
72360,note_on,0,0,0,,5,,,77,127
72512,note_off,152,0,0,,5,,,77,127
72512,note_off,0,0,0,,11,,,46,127
72514,note_on,2,0,0,,7,,,43,127
72514,note_on,0,0,0,,7,,,79,127
72514,note_on,0,0,0,,10,,,81,127
72666,note_off,152,0,0,,10,,,81,127
72666,note_off,0,0,0,,7,,,79,127
72668,note_on,2,0,0,,5,,,77,127
72820,note_off,152,0,0,,5,,,77,127
72820,note_off,0,0,0,,7,,,43,127
72822,note_on,2,0,0,,10,,,45,127
72822,note_on,0,0,0,,4,,,76,127
72974,note_off,152,0,0,,4,,,76,127
72974,note_off,0,0,0,,10,,,45,127
72976,note_on,2,0,0,,2,,,50,127
72976,note_on,0,0,0,,4,,,76,127
73026,note_off,50,0,0,,4,,,76,127
73028,note_on,2,0,0,,2,,,74,127
73078,note_off,50,0,0,,2,,,74,127
73080,note_on,2,0,0,,4,,,76,127
73130,note_off,50,0,0,,4,,,76,127
73130,note_off,0,0,0,,2,,,50,127
73132,note_on,2,0,0,,2,,,62,127
73132,note_on,0,0,0,,2,,,74,127
73284,note_off,152,0,0,,2,,,62,127
73286,note_on,2,0,0,,11,,,58,127
73438,note_off,152,0,0,,11,,,58,127
73440,note_on,2,0,0,,7,,,55,127
73592,note_off,152,0,0,,7,,,55,127
73594,note_on,2,0,0,,4,,,52,127
73746,note_off,152,0,0,,4,,,52,127
73748,note_on,2,0,0,,1,,,49,127
73900,note_off,152,0,0,,1,,,49,127
73902,note_on,2,0,0,,2,,,50,127
74054,note_off,152,0,0,,2,,,74,127
74056,note_on,2,0,0,,2,,,86,127
74208,note_off,152,0,0,,2,,,86,127
74208,note_off,0,0,0,,2,,,50,127
74210,note_on,2,0,0,,11,,,46,127
74210,note_on,0,0,0,,7,,,79,127
74362,note_off,152,0,0,,11,,,46,127
74364,note_on,2,0,0,,10,,,45,127
74516,note_off,152,0,0,,7,,,79,127
74518,note_on,2,0,0,,5,,,77,127
74670,note_off,152,0,0,,5,,,77,127
74670,note_off,0,0,0,,10,,,45,127
74672,note_on,2,0,0,,10,,,33,127
74672,note_on,0,0,0,,4,,,76,127
74824,note_off,152,0,0,,4,,,76,127
74824,note_off,0,0,0,,10,,,33,127
74826,note_on,2,0,0,,2,,,50,127
74826,note_on,0,0,0,,2,,,74,127
74978,note_off,152,0,0,,2,,,50,127
74980,note_on,2,0,0,,2,,,62,127
75132,note_off,152,0,0,,2,,,62,127
75134,note_on,2,0,0,,11,,,58,127
75286,note_off,152,0,0,,11,,,58,127
75288,note_on,2,0,0,,7,,,55,127
75440,note_off,152,0,0,,7,,,55,127
75442,note_on,2,0,0,,4,,,52,127
75594,note_off,152,0,0,,4,,,52,127
75596,note_on,2,0,0,,1,,,49,127
75748,note_off,152,0,0,,1,,,49,127
75750,note_on,2,0,0,,2,,,50,127
75902,note_off,152,0,0,,2,,,74,127
75904,note_on,2,0,0,,2,,,74,127
76056,note_off,152,0,0,,2,,,74,127
76056,note_off,0,0,0,,2,,,50,127
76058,note_on,2,0,0,,11,,,46,127
76058,note_on,0,0,0,,7,,,67,127
76210,note_off,152,0,0,,11,,,46,127
76212,note_on,2,0,0,,10,,,45,127
76364,note_off,152,0,0,,7,,,67,127
76366,note_on,2,0,0,,5,,,65,127
76518,note_off,152,0,0,,5,,,65,127
76518,note_off,0,0,0,,10,,,45,127
76520,note_on,2,0,0,,10,,,33,127
76520,note_on,0,0,0,,4,,,64,127
76672,note_off,152,0,0,,4,,,64,127
76672,note_off,0,0,0,,10,,,33,127
76674,note_on,2,0,0,,2,,,50,127
76674,note_on,0,0,0,,2,,,62,127
76826,note_off,152,0,0,,2,,,50,127
76828,note_on,2,0,0,,4,,,52,127
76980,note_off,152,0,0,,4,,,52,127
76980,note_off,0,0,0,,2,,,62,127
76982,note_on,2,0,0,,5,,,53,127
76982,note_on,0,0,0,,10,,,69,127
77134,note_off,152,0,0,,5,,,53,127
77136,note_on,2,0,0,,7,,,55,127
77288,note_off,152,0,0,,10,,,69,127
77290,note_on,2,0,0,,11,,,70,127
77442,note_off,152,0,0,,11,,,70,127
77444,note_on,2,0,0,,1,,,61,127
77596,note_off,152,0,0,,1,,,61,127
77596,note_off,0,0,0,,7,,,55,127
77598,note_on,2,0,0,,5,,,53,127
77598,note_on,0,0,0,,2,,,62,127
77750,note_off,152,0,0,,5,,,53,127
77752,note_on,2,0,0,,4,,,52,127
77904,note_off,152,0,0,,4,,,52,127
77904,note_off,0,0,0,,2,,,62,127
77906,note_on,2,0,0,,5,,,53,127
77906,note_on,0,0,0,,10,,,81,127
78058,note_off,152,0,0,,5,,,53,127
78060,note_on,2,0,0,,7,,,55,127
78212,note_off,152,0,0,,10,,,81,127
78214,note_on,2,0,0,,11,,,82,127
78366,note_off,152,0,0,,11,,,82,127
78368,note_on,2,0,0,,1,,,73,127
78520,note_off,152,0,0,,1,,,73,127
78520,note_off,0,0,0,,7,,,55,127
78522,note_on,2,0,0,,5,,,53,127
78522,note_on,0,0,0,,2,,,74,127
78674,note_off,152,0,0,,2,,,74,127
78676,note_on,2,0,0,,5,,,77,127
78676,note_on,0,0,0,,10,,,81,127
78828,note_off,152,0,0,,10,,,81,127
78828,note_off,0,0,0,,5,,,77,127
78828,note_off,0,0,0,,5,,,53,127
78830,note_on,2,0,0,,7,,,55,127
78830,note_on,0,0,0,,7,,,79,127
78830,note_on,0,0,0,,4,,,76,127
78982,note_off,152,0,0,,7,,,55,127
78984,note_on,2,0,0,,10,,,57,127
79136,note_off,152,0,0,,4,,,76,127
79136,note_off,0,0,0,,7,,,79,127
79138,note_on,2,0,0,,2,,,74,127
79138,note_on,0,0,0,,5,,,77,127
79290,note_off,152,0,0,,5,,,77,127
79290,note_off,0,0,0,,2,,,74,127
79292,note_on,2,0,0,,10,,,45,127
79292,note_on,0,0,0,,1,,,73,127
79292,note_on,0,0,0,,4,,,76,127
79444,note_off,152,0,0,,4,,,76,127
79444,note_off,0,0,0,,1,,,73,127
79444,note_off,0,0,0,,10,,,45,127
79445,note_off,1,0,0,,10,,,57,127
79446,note_on,1,0,0,,2,,,62,127
79446,note_on,0,0,0,,10,,,69,127
79446,note_on,0,0,0,,5,,,77,127
79598,note_off,152,0,0,,5,,,77,127
79603,note_on,5,0,0,,7,,,79,127
79750,note_off,147,0,0,,10,,,69,127
79752,note_off,2,0,0,,2,,,62,127
79764,note_off,12,0,0,,7,,,79,127
79767,note_on,3,0,0,,7,,,67,127
79767,note_on,0,0,0,,4,,,76,127
79767,note_on,0,0,0,,7,,,55,127
79928,note_off,161,0,0,,7,,,55,127
79928,note_off,0,0,0,,4,,,76,127
79928,note_off,0,0,0,,7,,,67,127
79932,note_on,4,0,0,,4,,,76,127
79932,note_on,0,0,0,,7,,,67,127
79932,note_on,0,0,0,,10,,,57,127
80093,note_off,161,0,0,,7,,,67,127
80093,note_off,0,0,0,,4,,,76,127
80096,note_on,3,0,0,,2,,,74,127
80096,note_on,0,0,0,,5,,,65,127
80257,note_off,161,0,0,,5,,,65,127
80257,note_off,0,0,0,,2,,,74,127
80260,note_on,3,0,0,,4,,,64,127
80260,note_on,0,0,0,,1,,,73,127
80260,note_on,0,0,0,,10,,,45,127
80419,note_off,159,0,0,,10,,,57,127
80421,note_off,2,0,0,,10,,,45,127
80421,note_off,0,0,0,,1,,,73,127
80421,note_off,0,0,0,,4,,,64,127
80437,note_on,16,0,0,,1,,,73,127
80437,note_on,0,0,0,,4,,,64,127
80437,note_on,0,0,0,,2,,,38,127
80437,note_on,0,0,0,,2,,,50,127
80983,note_off,546,0,0,,4,,,64,127
80983,note_off,0,0,0,,1,,,73,127
80983,note_on,0,0,0,,5,,,65,127
80983,note_on,0,0,0,,2,,,74,127
82596,note_off,1613,0,0,,2,,,74,127
82596,note_off,0,0,0,,5,,,65,127
82596,note_off,0,0,0,,2,,,50,127
82596,note_off,0,0,0,,2,,,38,127
87552,end_of_track,4956,1,0,,,,,,
