tick,type,time,meta,track,program,channel,pitch,tempo,note,velocity
0,copyright,0,1,0,,,,,,
0,program_change,0,0,0,6,0,,,,
0,pitchwheel,0,0,0,,0,0,,,
0,program_change,0,0,0,6,1,,,,
0,pitchwheel,0,0,0,,1,-590,,,
0,program_change,0,0,0,6,2,,,,
0,pitchwheel,0,0,0,,2,-272,,,
0,program_change,0,0,0,6,3,,,,
0,pitchwheel,0,0,0,,3,-353,,,
0,program_change,0,0,0,6,4,,,,
0,pitchwheel,0,0,0,,4,-560,,,
0,program_change,0,0,0,6,5,,,,
0,pitchwheel,0,0,0,,5,-80,,,
0,program_change,0,0,0,6,6,,,,
0,pitchwheel,0,0,0,,6,-625,,,
0,program_change,0,0,0,6,7,,,,
0,pitchwheel,0,0,0,,7,-130,,,
0,program_change,0,0,0,6,8,,,,
0,pitchwheel,0,0,0,,8,-512,,,
0,program_change,0,0,0,6,10,,,,
0,pitchwheel,0,0,0,,10,-464,,,
0,program_change,0,0,0,6,11,,,,
0,pitchwheel,0,0,0,,11,-208,,,
0,program_change,0,0,0,6,12,,,,
0,pitchwheel,0,0,0,,12,-553,,,
0,set_tempo,0,1,0,,,,500000,,
105,note_on,105,0,0,,5,,,65,127
105,note_on,0,0,0,,10,,,81,127
105,note_on,0,0,0,,5,,,77,127
524,note_on,419,0,0,,5,,,53,127
732,note_off,208,0,0,,5,,,65,127
836,note_off,104,0,0,,5,,,53,127
838,note_on,2,0,0,,5,,,65,127
941,note_off,103,0,0,,5,,,65,127
941,note_off,0,0,0,,5,,,77,127
941,note_off,0,0,0,,10,,,81,127
943,note_on,2,0,0,,4,,,64,127
943,note_on,0,0,0,,5,,,77,127
943,note_on,0,0,0,,10,,,81,127
1255,note_off,312,0,0,,4,,,64,127
1257,note_on,2,0,0,,4,,,64,127
1360,note_off,103,0,0,,4,,,64,127
1360,note_off,0,0,0,,10,,,81,127
1360,note_off,0,0,0,,5,,,77,127
1362,note_on,2,0,0,,2,,,62,127
1362,note_on,0,0,0,,10,,,81,127
1362,note_on,0,0,0,,5,,,77,127
1674,note_off,312,0,0,,2,,,62,127
1676,note_on,2,0,0,,2,,,62,127
1779,note_off,103,0,0,,2,,,62,127
1779,note_off,0,0,0,,5,,,77,127
1779,note_off,0,0,0,,10,,,81,127
1781,note_on,2,0,0,,0,,,60,127
1781,note_on,0,0,0,,10,,,81,127
1781,note_on,0,0,0,,5,,,77,127
2093,note_off,312,0,0,,0,,,60,127
2095,note_on,2,0,0,,0,,,60,127
2198,note_off,103,0,0,,0,,,60,127
2198,note_off,0,0,0,,5,,,77,127
2198,note_off,0,0,0,,10,,,81,127
2200,note_on,2,0,0,,11,,,58,127
2200,note_on,0,0,0,,10,,,81,127
2200,note_on,0,0,0,,5,,,77,127
2512,note_off,312,0,0,,11,,,58,127
2514,note_on,2,0,0,,11,,,58,127
2617,note_off,103,0,0,,11,,,58,127
2617,note_off,0,0,0,,5,,,77,127
2617,note_off,0,0,0,,10,,,81,127
2619,note_on,2,0,0,,10,,,57,127
2619,note_on,0,0,0,,5,,,77,127
2722,note_off,103,0,0,,5,,,77,127
2724,note_on,2,0,0,,0,,,72,127
2827,note_off,103,0,0,,0,,,72,127
2829,note_on,2,0,0,,5,,,77,127
2932,note_off,103,0,0,,5,,,77,127
2934,note_on,2,0,0,,7,,,79,127
3037,note_off,103,0,0,,7,,,79,127
3039,note_on,2,0,0,,10,,,45,127
3039,note_on,0,0,0,,10,,,81,127
3142,note_off,103,0,0,,10,,,81,127
3144,note_on,2,0,0,,11,,,82,127
3247,note_off,103,0,0,,11,,,82,127
3249,note_on,2,0,0,,0,,,84,127
3352,note_off,103,0,0,,0,,,84,127
3354,note_on,2,0,0,,11,,,82,127
3457,note_off,103,0,0,,11,,,82,127
3457,note_off,0,0,0,,10,,,45,127
3458,note_off,1,0,0,,10,,,57,127
3459,note_on,1,0,0,,10,,,57,127
3459,note_on,0,0,0,,10,,,81,127
3562,note_off,103,0,0,,10,,,81,127
3564,note_on,2,0,0,,7,,,79,127
3667,note_off,103,0,0,,7,,,79,127
3669,note_on,2,0,0,,5,,,77,127
3772,note_off,103,0,0,,5,,,77,127
3774,note_on,2,0,0,,4,,,76,127
3877,note_off,103,0,0,,4,,,76,127
3877,note_off,0,0,0,,10,,,57,127
3879,note_on,2,0,0,,11,,,58,127
3879,note_on,0,0,0,,2,,,74,127
3982,note_off,103,0,0,,2,,,74,127
3984,note_on,2,0,0,,0,,,72,127
4087,note_off,103,0,0,,0,,,72,127
4089,note_on,2,0,0,,11,,,70,127
4192,note_off,103,0,0,,11,,,70,127
4194,note_on,2,0,0,,10,,,69,127
4297,note_off,103,0,0,,10,,,69,127
4297,note_off,0,0,0,,11,,,58,127
4299,note_on,2,0,0,,0,,,60,127
4299,note_on,0,0,0,,7,,,67,127
4402,note_off,103,0,0,,7,,,67,127
4404,note_on,2,0,0,,5,,,65,127
4507,note_off,103,0,0,,5,,,65,127
4509,note_on,2,0,0,,4,,,64,127
4612,note_off,103,0,0,,4,,,64,127
4614,note_on,2,0,0,,2,,,62,127
4717,note_off,103,0,0,,2,,,62,127
4717,note_off,0,0,0,,0,,,60,127
4719,note_on,2,0,0,,0,,,48,127
4719,note_on,0,0,0,,0,,,60,127
4822,note_off,103,0,0,,0,,,60,127
4824,note_on,2,0,0,,11,,,58,127
4927,note_off,103,0,0,,11,,,58,127
4929,note_on,2,0,0,,10,,,57,127
5032,note_off,103,0,0,,10,,,57,127
5034,note_on,2,0,0,,7,,,55,127
5137,note_off,103,0,0,,7,,,55,127
5137,note_off,0,0,0,,0,,,48,127
5139,note_on,2,0,0,,5,,,65,127
5139,note_on,0,0,0,,10,,,81,127
5139,note_on,0,0,0,,5,,,77,127
5558,note_on,419,0,0,,5,,,53,127
5766,note_off,208,0,0,,5,,,65,127
5870,note_off,104,0,0,,5,,,53,127
5872,note_on,2,0,0,,5,,,65,127
5975,note_off,103,0,0,,5,,,65,127
5975,note_off,0,0,0,,5,,,77,127
5975,note_off,0,0,0,,10,,,81,127
5977,note_on,2,0,0,,4,,,64,127
5977,note_on,0,0,0,,10,,,81,127
5977,note_on,0,0,0,,5,,,77,127
6289,note_off,312,0,0,,4,,,64,127
6291,note_on,2,0,0,,4,,,64,127
6394,note_off,103,0,0,,4,,,64,127
6394,note_off,0,0,0,,5,,,77,127
6394,note_off,0,0,0,,10,,,81,127
6396,note_on,2,0,0,,2,,,62,127
6396,note_on,0,0,0,,10,,,81,127
6396,note_on,0,0,0,,5,,,77,127
6708,note_off,312,0,0,,2,,,62,127
6710,note_on,2,0,0,,2,,,62,127
6813,note_off,103,0,0,,2,,,62,127
6813,note_off,0,0,0,,5,,,77,127
6813,note_off,0,0,0,,10,,,81,127
6815,note_on,2,0,0,,0,,,60,127
6815,note_on,0,0,0,,5,,,77,127
6815,note_on,0,0,0,,10,,,81,127
7127,note_off,312,0,0,,0,,,60,127
7129,note_on,2,0,0,,0,,,60,127
7232,note_off,103,0,0,,0,,,60,127
7232,note_off,0,0,0,,10,,,81,127
7232,note_off,0,0,0,,5,,,77,127
7234,note_on,2,0,0,,11,,,58,127
7234,note_on,0,0,0,,5,,,77,127
7234,note_on,0,0,0,,10,,,81,127
7546,note_off,312,0,0,,11,,,58,127
7548,note_on,2,0,0,,11,,,58,127
7651,note_off,103,0,0,,11,,,58,127
7651,note_off,0,0,0,,10,,,81,127
7651,note_off,0,0,0,,5,,,77,127
7653,note_on,2,0,0,,10,,,57,127
7653,note_on,0,0,0,,5,,,77,127
7756,note_off,103,0,0,,5,,,77,127
7758,note_on,2,0,0,,0,,,72,127
7861,note_off,103,0,0,,0,,,72,127
7863,note_on,2,0,0,,5,,,77,127
7966,note_off,103,0,0,,5,,,77,127
7968,note_on,2,0,0,,7,,,79,127
8071,note_off,103,0,0,,7,,,79,127
8073,note_on,2,0,0,,10,,,45,127
8073,note_on,0,0,0,,10,,,81,127
8176,note_off,103,0,0,,10,,,81,127
8178,note_on,2,0,0,,11,,,82,127
8281,note_off,103,0,0,,11,,,82,127
8283,note_on,2,0,0,,0,,,84,127
8386,note_off,103,0,0,,0,,,84,127
8388,note_on,2,0,0,,11,,,82,127
8491,note_off,103,0,0,,11,,,82,127
8491,note_off,0,0,0,,10,,,45,127
8492,note_off,1,0,0,,10,,,57,127
8493,note_on,1,0,0,,10,,,57,127
8493,note_on,0,0,0,,10,,,81,127
8596,note_off,103,0,0,,10,,,81,127
8598,note_on,2,0,0,,7,,,79,127
8701,note_off,103,0,0,,7,,,79,127
8703,note_on,2,0,0,,5,,,77,127
8806,note_off,103,0,0,,5,,,77,127
8808,note_on,2,0,0,,4,,,76,127
8911,note_off,103,0,0,,4,,,76,127
8911,note_off,0,0,0,,10,,,57,127
8913,note_on,2,0,0,,11,,,58,127
8913,note_on,0,0,0,,2,,,74,127
9016,note_off,103,0,0,,2,,,74,127
9018,note_on,2,0,0,,4,,,76,127
9121,note_off,103,0,0,,4,,,76,127
9123,note_on,2,0,0,,5,,,77,127
9226,note_off,103,0,0,,5,,,77,127
9228,note_on,2,0,0,,4,,,76,127
9331,note_off,103,0,0,,4,,,76,127
9333,note_on,2,0,0,,11,,,46,127
9333,note_on,0,0,0,,2,,,74,127
9436,note_off,103,0,0,,2,,,74,127
9438,note_on,2,0,0,,0,,,72,127
9541,note_off,103,0,0,,0,,,72,127
9543,note_on,2,0,0,,11,,,70,127
9646,note_off,103,0,0,,11,,,70,127
9648,note_on,2,0,0,,10,,,69,127
9751,note_off,103,0,0,,10,,,69,127
9751,note_off,0,0,0,,11,,,46,127
9752,note_off,1,0,0,,11,,,58,127
9753,note_on,1,0,0,,12,,,47,127
9753,note_on,0,0,0,,7,,,67,127
9856,note_off,103,0,0,,7,,,67,127
9858,note_on,2,0,0,,5,,,65,127
9961,note_off,103,0,0,,5,,,65,127
9963,note_on,2,0,0,,4,,,64,127
10066,note_off,103,0,0,,4,,,64,127
10068,note_on,2,0,0,,2,,,62,127
10171,note_off,103,0,0,,2,,,62,127
10171,note_off,0,0,0,,12,,,47,127
10173,note_on,2,0,0,,0,,,36,127
10173,note_on,0,0,0,,0,,,60,127
10276,note_off,103,0,0,,0,,,36,127
10278,note_on,2,0,0,,4,,,40,127
10381,note_off,103,0,0,,4,,,40,127
10383,note_on,2,0,0,,7,,,43,127
10486,note_off,103,0,0,,7,,,43,127
10488,note_on,2,0,0,,0,,,48,127
10588,note_off,100,0,0,,0,,,60,127
10590,note_off,2,0,0,,0,,,48,127
10592,note_on,2,0,0,,0,,,48,127
10695,note_off,103,0,0,,0,,,48,127
10697,note_on,2,0,0,,4,,,52,127
10800,note_off,103,0,0,,4,,,52,127
10802,note_on,2,0,0,,7,,,55,127
10905,note_off,103,0,0,,7,,,55,127
10907,note_on,2,0,0,,0,,,60,127
10907,note_on,0,0,0,,7,,,67,127
10907,note_on,0,0,0,,0,,,72,127
10907,note_on,0,0,0,,4,,,76,127
11010,note_off,103,0,0,,4,,,76,127
11010,note_off,0,0,0,,0,,,72,127
11010,note_off,0,0,0,,0,,,60,127
11012,note_on,2,0,0,,7,,,43,127
11012,note_on,0,0,0,,2,,,74,127
11427,note_off,415,0,0,,2,,,74,127
11429,note_off,2,0,0,,7,,,43,127
11431,note_off,2,0,0,,7,,,67,127
11431,note_on,0,0,0,,0,,,36,127
11534,note_off,103,0,0,,0,,,36,127
11536,note_on,2,0,0,,4,,,40,127
11639,note_off,103,0,0,,4,,,40,127
11641,note_on,2,0,0,,7,,,43,127
11744,note_off,103,0,0,,7,,,43,127
11746,note_on,2,0,0,,0,,,48,127
11849,note_off,103,0,0,,0,,,48,127
11851,note_on,2,0,0,,0,,,48,127
11954,note_off,103,0,0,,0,,,48,127
11956,note_on,2,0,0,,4,,,52,127
12059,note_off,103,0,0,,4,,,52,127
12061,note_on,2,0,0,,7,,,55,127
12164,note_off,103,0,0,,7,,,55,127
12166,note_on,2,0,0,,0,,,60,127
12166,note_on,0,0,0,,7,,,67,127
12166,note_on,0,0,0,,0,,,72,127
12166,note_on,0,0,0,,4,,,76,127
12269,note_off,103,0,0,,4,,,76,127
12269,note_off,0,0,0,,0,,,72,127
12269,note_off,0,0,0,,0,,,60,127
12271,note_on,2,0,0,,7,,,43,127
12271,note_on,0,0,0,,2,,,74,127
12642,note_off,371,0,0,,7,,,43,127
12686,note_off,44,0,0,,2,,,74,127
12690,note_off,4,0,0,,7,,,67,127
12690,note_on,0,0,0,,5,,,41,127
12793,note_off,103,0,0,,5,,,41,127
12795,note_on,2,0,0,,10,,,45,127
12898,note_off,103,0,0,,10,,,45,127
12900,note_on,2,0,0,,0,,,48,127
13003,note_off,103,0,0,,0,,,48,127
13005,note_on,2,0,0,,5,,,53,127
13108,note_off,103,0,0,,5,,,53,127
13110,note_on,2,0,0,,5,,,53,127
13213,note_off,103,0,0,,5,,,53,127
13215,note_on,2,0,0,,10,,,57,127
13318,note_off,103,0,0,,10,,,57,127
13320,note_on,2,0,0,,0,,,60,127
13423,note_off,103,0,0,,0,,,60,127
13425,note_on,2,0,0,,5,,,65,127
13425,note_on,0,0,0,,0,,,72,127
13425,note_on,0,0,0,,5,,,77,127
13425,note_on,0,0,0,,10,,,81,127
13528,note_off,103,0,0,,10,,,81,127
13528,note_off,0,0,0,,5,,,77,127
13528,note_off,0,0,0,,5,,,65,127
13530,note_on,2,0,0,,0,,,48,127
13530,note_on,0,0,0,,7,,,79,127
13945,note_off,415,0,0,,7,,,79,127
13947,note_off,2,0,0,,0,,,48,127
13949,note_off,2,0,0,,0,,,72,127
13949,note_on,0,0,0,,5,,,41,127
14052,note_off,103,0,0,,5,,,41,127
14054,note_on,2,0,0,,10,,,45,127
14157,note_off,103,0,0,,10,,,45,127
14159,note_on,2,0,0,,0,,,48,127
14262,note_off,103,0,0,,0,,,48,127
14264,note_on,2,0,0,,5,,,53,127
14367,note_off,103,0,0,,5,,,53,127
14369,note_on,2,0,0,,5,,,53,127
14472,note_off,103,0,0,,5,,,53,127
14474,note_on,2,0,0,,10,,,57,127
14577,note_off,103,0,0,,10,,,57,127
14579,note_on,2,0,0,,0,,,60,127
14682,note_off,103,0,0,,0,,,60,127
14684,note_on,2,0,0,,5,,,65,127
14684,note_on,0,0,0,,0,,,72,127
14684,note_on,0,0,0,,10,,,81,127
14684,note_on,0,0,0,,5,,,77,127
14787,note_off,103,0,0,,5,,,77,127
14787,note_off,0,0,0,,10,,,81,127
14787,note_off,0,0,0,,5,,,65,127
14789,note_on,2,0,0,,0,,,48,127
14789,note_on,0,0,0,,7,,,79,127
15204,note_off,415,0,0,,7,,,79,127
15206,note_off,2,0,0,,0,,,48,127
15208,note_off,2,0,0,,0,,,72,127
15208,note_on,0,0,0,,5,,,41,127
15625,note_off,417,0,0,,5,,,41,127
15627,note_on,2,0,0,,5,,,53,127
15627,note_on,0,0,0,,5,,,77,127
15627,note_on,0,0,0,,10,,,69,127
15834,note_off,207,0,0,,10,,,69,127
15836,note_on,2,0,0,,7,,,67,127
15939,note_off,103,0,0,,7,,,67,127
15941,note_on,2,0,0,,5,,,65,127
16041,note_off,100,0,0,,5,,,77,127
16043,note_off,2,0,0,,5,,,65,127
16043,note_off,0,0,0,,5,,,53,127
16045,note_on,2,0,0,,12,,,47,127
16045,note_on,0,0,0,,5,,,77,127
16045,note_on,0,0,0,,10,,,69,127
16252,note_off,207,0,0,,10,,,69,127
16254,note_on,2,0,0,,7,,,67,127
16357,note_off,103,0,0,,7,,,67,127
16359,note_on,2,0,0,,5,,,65,127
16462,note_off,103,0,0,,5,,,65,127
16462,note_off,0,0,0,,12,,,47,127
16464,note_on,2,0,0,,0,,,48,127
16464,note_on,0,0,0,,7,,,67,127
16672,note_off,208,0,0,,5,,,77,127
16673,note_on,1,0,0,,7,,,79,127
16776,note_off,103,0,0,,7,,,79,127
16778,note_on,2,0,0,,5,,,77,127
16878,note_off,100,0,0,,7,,,67,127
16880,note_off,2,0,0,,5,,,77,127
16880,note_off,0,0,0,,0,,,48,127
16882,note_on,2,0,0,,0,,,60,127
16882,note_on,0,0,0,,4,,,76,127
17089,note_off,207,0,0,,4,,,76,127
17091,note_on,2,0,0,,2,,,74,127
17194,note_off,103,0,0,,2,,,74,127
17196,note_on,2,0,0,,0,,,72,127
17299,note_off,103,0,0,,0,,,72,127
17299,note_off,0,0,0,,0,,,60,127
17301,note_on,2,0,0,,6,,,54,127
17301,note_on,0,0,0,,0,,,72,127
17301,note_on,0,0,0,,4,,,76,127
17508,note_off,207,0,0,,4,,,76,127
17510,note_on,2,0,0,,2,,,74,127
17606,note_off,96,0,0,,0,,,72,127
17613,note_off,7,0,0,,2,,,74,127
17615,note_on,2,0,0,,0,,,72,127
17718,note_off,103,0,0,,6,,,54,127
17720,note_on,2,0,0,,7,,,43,127
17927,note_off,207,0,0,,0,,,72,127
17929,note_on,2,0,0,,2,,,74,127
18032,note_off,103,0,0,,2,,,74,127
18034,note_on,2,0,0,,0,,,72,127
18137,note_off,103,0,0,,0,,,72,127
18137,note_off,0,0,0,,7,,,43,127
18139,note_on,2,0,0,,7,,,55,127
18139,note_on,0,0,0,,11,,,70,127
18346,note_off,207,0,0,,11,,,70,127
18348,note_on,2,0,0,,10,,,69,127
18451,note_off,103,0,0,,10,,,69,127
18453,note_on,2,0,0,,7,,,67,127
18556,note_off,103,0,0,,7,,,67,127
18556,note_off,0,0,0,,7,,,55,127
18558,note_on,2,0,0,,1,,,49,127
18558,note_on,0,0,0,,11,,,70,127
18558,note_on,0,0,0,,7,,,79,127
18765,note_off,207,0,0,,11,,,70,127
18767,note_on,2,0,0,,10,,,69,127
18870,note_off,103,0,0,,10,,,69,127
18872,note_on,2,0,0,,7,,,67,127
18975,note_off,103,0,0,,7,,,67,127
18975,note_off,0,0,0,,1,,,49,127
18977,note_on,2,0,0,,2,,,50,127
18977,note_on,0,0,0,,10,,,69,127
19184,note_off,207,0,0,,10,,,69,127
19185,note_off,1,0,0,,7,,,79,127
19186,note_on,1,0,0,,10,,,81,127
19289,note_off,103,0,0,,10,,,81,127
19291,note_on,2,0,0,,7,,,79,127
19394,note_off,103,0,0,,7,,,79,127
19394,note_off,0,0,0,,2,,,50,127
19396,note_on,2,0,0,,2,,,62,127
19396,note_on,0,0,0,,5,,,77,127
19603,note_off,207,0,0,,5,,,77,127
19605,note_on,2,0,0,,4,,,76,127
19708,note_off,103,0,0,,4,,,76,127
19710,note_on,2,0,0,,2,,,74,127
19813,note_off,103,0,0,,2,,,74,127
19813,note_off,0,0,0,,2,,,62,127
19815,note_on,2,0,0,,8,,,56,127
19815,note_on,0,0,0,,2,,,74,127
19815,note_on,0,0,0,,5,,,77,127
20022,note_off,207,0,0,,5,,,77,127
20024,note_on,2,0,0,,4,,,76,127
20120,note_off,96,0,0,,2,,,74,127
20127,note_off,7,0,0,,4,,,76,127
20129,note_on,2,0,0,,2,,,74,127
20232,note_off,103,0,0,,8,,,56,127
20234,note_on,2,0,0,,10,,,45,127
20441,note_off,207,0,0,,2,,,74,127
20443,note_on,2,0,0,,4,,,76,127
20546,note_off,103,0,0,,4,,,76,127
20548,note_on,2,0,0,,2,,,74,127
20651,note_off,103,0,0,,2,,,74,127
20651,note_off,0,0,0,,10,,,45,127
20653,note_on,2,0,0,,10,,,57,127
20653,note_on,0,0,0,,0,,,72,127
20860,note_off,207,0,0,,0,,,72,127
20862,note_on,2,0,0,,12,,,71,127
20965,note_off,103,0,0,,12,,,71,127
20967,note_on,2,0,0,,10,,,69,127
21070,note_off,103,0,0,,10,,,69,127
21072,note_on,2,0,0,,10,,,45,127
21072,note_on,0,0,0,,0,,,72,127
21072,note_on,0,0,0,,10,,,81,127
21279,note_off,207,0,0,,0,,,72,127
21281,note_on,2,0,0,,12,,,71,127
21384,note_off,103,0,0,,12,,,71,127
21386,note_on,2,0,0,,10,,,69,127
21489,note_off,103,0,0,,10,,,69,127
21489,note_off,0,0,0,,10,,,45,127
21490,note_off,1,0,0,,10,,,57,127
21491,note_on,1,0,0,,4,,,52,127
21491,note_on,0,0,0,,12,,,71,127
21699,note_off,208,0,0,,10,,,81,127
21700,note_on,1,0,0,,12,,,83,127
21803,note_off,103,0,0,,12,,,83,127
21805,note_on,2,0,0,,10,,,81,127
21905,note_off,100,0,0,,12,,,71,127
21907,note_off,2,0,0,,10,,,81,127
21907,note_off,0,0,0,,4,,,52,127
21909,note_on,2,0,0,,4,,,64,127
21909,note_on,0,0,0,,7,,,79,127
22116,note_off,207,0,0,,7,,,79,127
22118,note_on,2,0,0,,5,,,77,127
22221,note_off,103,0,0,,5,,,77,127
22223,note_on,2,0,0,,4,,,76,127
22326,note_off,103,0,0,,4,,,76,127
22328,note_on,2,0,0,,4,,,52,127
22328,note_on,0,0,0,,7,,,79,127
22535,note_off,207,0,0,,7,,,79,127
22537,note_on,2,0,0,,5,,,77,127
22640,note_off,103,0,0,,5,,,77,127
22642,note_on,2,0,0,,4,,,76,127
22745,note_off,103,0,0,,4,,,76,127
22745,note_off,0,0,0,,4,,,52,127
22747,note_on,2,0,0,,5,,,53,127
22747,note_on,0,0,0,,10,,,81,127
22954,note_off,207,0,0,,10,,,81,127
22956,note_on,2,0,0,,7,,,79,127
23163,note_off,207,0,0,,7,,,79,127
23163,note_off,0,0,0,,4,,,64,127
23165,note_on,2,0,0,,2,,,62,127
23165,note_on,0,0,0,,5,,,77,127
23372,note_off,207,0,0,,5,,,77,127
23372,note_off,0,0,0,,2,,,62,127
23374,note_on,2,0,0,,0,,,60,127
23374,note_on,0,0,0,,4,,,76,127
23581,note_off,207,0,0,,4,,,76,127
23581,note_off,0,0,0,,0,,,60,127
23582,note_off,1,0,0,,5,,,53,127
23583,note_on,1,0,0,,5,,,53,127
23583,note_on,0,0,0,,12,,,59,127
23583,note_on,0,0,0,,2,,,74,127
23790,note_off,207,0,0,,2,,,74,127
23790,note_off,0,0,0,,12,,,59,127
23792,note_on,2,0,0,,10,,,57,127
23792,note_on,0,0,0,,0,,,72,127
23997,note_off,205,0,0,,5,,,53,127
23999,note_off,2,0,0,,0,,,72,127
23999,note_off,0,0,0,,10,,,57,127
24001,note_on,2,0,0,,5,,,53,127
24001,note_on,0,0,0,,12,,,59,127
24001,note_on,0,0,0,,2,,,62,127
24001,note_on,0,0,0,,12,,,71,127
24001,note_on,0,0,0,,7,,,79,127
24208,note_off,207,0,0,,12,,,71,127
24210,note_on,2,0,0,,10,,,69,127
24313,note_off,103,0,0,,10,,,69,127
24315,note_on,2,0,0,,7,,,67,127
24415,note_off,100,0,0,,7,,,79,127
24417,note_off,2,0,0,,7,,,67,127
24417,note_off,0,0,0,,2,,,62,127
24417,note_off,0,0,0,,12,,,59,127
24417,note_off,0,0,0,,5,,,53,127
24419,note_on,2,0,0,,7,,,55,127
24419,note_on,0,0,0,,4,,,52,127
24419,note_on,0,0,0,,0,,,60,127
24419,note_on,0,0,0,,0,,,72,127
24419,note_on,0,0,0,,7,,,79,127
24626,note_off,207,0,0,,0,,,72,127
24628,note_on,2,0,0,,12,,,71,127
24731,note_off,103,0,0,,12,,,71,127
24733,note_on,2,0,0,,0,,,72,127
24833,note_off,100,0,0,,7,,,79,127
24835,note_off,2,0,0,,0,,,72,127
24835,note_off,0,0,0,,0,,,60,127
24835,note_off,0,0,0,,4,,,52,127
24835,note_off,0,0,0,,7,,,55,127
24837,note_on,2,0,0,,5,,,53,127
24837,note_on,0,0,0,,2,,,50,127
24837,note_on,0,0,0,,12,,,59,127
24837,note_on,0,0,0,,2,,,74,127
24837,note_on,0,0,0,,7,,,79,127
25044,note_off,207,0,0,,2,,,74,127
25046,note_on,2,0,0,,0,,,72,127
25149,note_off,103,0,0,,0,,,72,127
25151,note_on,2,0,0,,2,,,74,127
25251,note_off,100,0,0,,7,,,79,127
25253,note_off,2,0,0,,2,,,74,127
25253,note_off,0,0,0,,12,,,59,127
25253,note_off,0,0,0,,2,,,50,127
25253,note_off,0,0,0,,5,,,53,127
25255,note_on,2,0,0,,0,,,48,127
25255,note_on,0,0,0,,0,,,60,127
25255,note_on,0,0,0,,7,,,55,127
25255,note_on,0,0,0,,7,,,79,127
25255,note_on,0,0,0,,4,,,76,127
25462,note_off,207,0,0,,4,,,76,127
25464,note_on,2,0,0,,2,,,74,127
25567,note_off,103,0,0,,2,,,74,127
25569,note_on,2,0,0,,4,,,76,127
25669,note_off,100,0,0,,7,,,79,127
25671,note_off,2,0,0,,4,,,76,127
25671,note_off,0,0,0,,7,,,55,127
25671,note_off,0,0,0,,0,,,60,127
25671,note_off,0,0,0,,0,,,48,127
25673,note_on,2,0,0,,12,,,47,127
25673,note_on,0,0,0,,7,,,55,127
25673,note_on,0,0,0,,5,,,77,127
25673,note_on,0,0,0,,7,,,79,127
25880,note_off,207,0,0,,5,,,77,127
25882,note_on,2,0,0,,4,,,76,127
25985,note_off,103,0,0,,4,,,76,127
25987,note_on,2,0,0,,2,,,74,127
26087,note_off,100,0,0,,7,,,79,127
26089,note_off,2,0,0,,2,,,74,127
26089,note_off,0,0,0,,7,,,55,127
26089,note_off,0,0,0,,12,,,47,127
26091,note_on,2,0,0,,0,,,48,127
26091,note_on,0,0,0,,7,,,55,127
26091,note_on,0,0,0,,7,,,79,127
26091,note_on,0,0,0,,4,,,76,127
26298,note_off,207,0,0,,4,,,76,127
26300,note_on,2,0,0,,2,,,74,127
26403,note_off,103,0,0,,2,,,74,127
26405,note_on,2,0,0,,0,,,72,127
26505,note_off,100,0,0,,7,,,79,127
26507,note_off,2,0,0,,0,,,72,127
26507,note_off,0,0,0,,7,,,55,127
26507,note_off,0,0,0,,0,,,48,127
26509,note_on,2,0,0,,7,,,43,127
26509,note_on,0,0,0,,7,,,55,127
26509,note_on,0,0,0,,12,,,71,127
26509,note_on,0,0,0,,7,,,79,127
26716,note_off,207,0,0,,12,,,71,127
26718,note_on,2,0,0,,10,,,69,127
26821,note_off,103,0,0,,10,,,69,127
26823,note_on,2,0,0,,7,,,67,127
26923,note_off,100,0,0,,7,,,79,127
26925,note_off,2,0,0,,7,,,67,127
26925,note_off,0,0,0,,7,,,55,127
26925,note_off,0,0,0,,7,,,43,127
26927,note_on,2,0,0,,4,,,52,127
26927,note_on,0,0,0,,0,,,60,127
26927,note_on,0,0,0,,0,,,72,127
26927,note_on,0,0,0,,7,,,79,127
27134,note_off,207,0,0,,0,,,72,127
27136,note_on,2,0,0,,12,,,71,127
27239,note_off,103,0,0,,12,,,71,127
27241,note_on,2,0,0,,0,,,72,127
27341,note_off,100,0,0,,7,,,79,127
27343,note_off,2,0,0,,0,,,72,127
27343,note_off,0,0,0,,0,,,60,127
27343,note_off,0,0,0,,4,,,52,127
27345,note_on,2,0,0,,2,,,50,127
27345,note_on,0,0,0,,12,,,59,127
27345,note_on,0,0,0,,2,,,74,127
27345,note_on,0,0,0,,7,,,79,127
27552,note_off,207,0,0,,2,,,74,127
27554,note_on,2,0,0,,0,,,72,127
27657,note_off,103,0,0,,0,,,72,127
27659,note_on,2,0,0,,2,,,74,127
27759,note_off,100,0,0,,7,,,79,127
27761,note_off,2,0,0,,2,,,74,127
27761,note_off,0,0,0,,12,,,59,127
27761,note_off,0,0,0,,2,,,50,127
27763,note_on,2,0,0,,0,,,60,127
27763,note_on,0,0,0,,0,,,48,127
27763,note_on,0,0,0,,7,,,67,127
27763,note_on,0,0,0,,5,,,77,127
27866,note_off,103,0,0,,5,,,77,127
27868,note_on,2,0,0,,4,,,76,127
27971,note_off,103,0,0,,4,,,76,127
27973,note_on,2,0,0,,2,,,74,127
28076,note_off,103,0,0,,2,,,74,127
28078,note_on,2,0,0,,4,,,76,127
28178,note_off,100,0,0,,7,,,67,127
28180,note_off,2,0,0,,4,,,76,127
28180,note_off,0,0,0,,0,,,48,127
28180,note_off,0,0,0,,0,,,60,127
28182,note_on,2,0,0,,7,,,55,127
28182,note_on,0,0,0,,12,,,47,127
28182,note_on,0,0,0,,7,,,79,127
28182,note_on,0,0,0,,7,,,67,127
28285,note_off,103,0,0,,7,,,79,127
28287,note_on,2,0,0,,5,,,77,127
28390,note_off,103,0,0,,5,,,77,127
28392,note_on,2,0,0,,4,,,76,127
28495,note_off,103,0,0,,4,,,76,127
28497,note_on,2,0,0,,5,,,77,127
28597,note_off,100,0,0,,7,,,67,127
28599,note_off,2,0,0,,5,,,77,127
28599,note_off,0,0,0,,12,,,47,127
28599,note_off,0,0,0,,7,,,55,127
28601,note_on,2,0,0,,0,,,48,127
28601,note_on,0,0,0,,7,,,55,127
28601,note_on,0,0,0,,7,,,67,127
28601,note_on,0,0,0,,5,,,77,127
28704,note_off,103,0,0,,5,,,77,127
28706,note_on,2,0,0,,4,,,76,127
28809,note_off,103,0,0,,4,,,76,127
28811,note_on,2,0,0,,2,,,74,127
28914,note_off,103,0,0,,2,,,74,127
28916,note_on,2,0,0,,4,,,76,127
29016,note_off,100,0,0,,7,,,67,127
29018,note_off,2,0,0,,4,,,76,127
29018,note_off,0,0,0,,7,,,55,127
29018,note_off,0,0,0,,0,,,48,127
29020,note_on,2,0,0,,7,,,43,127
29020,note_on,0,0,0,,7,,,67,127
29020,note_on,0,0,0,,2,,,74,127
29227,note_off,207,0,0,,2,,,74,127
29229,note_on,2,0,0,,7,,,79,127
29332,note_off,103,0,0,,7,,,79,127
29334,note_off,2,0,0,,7,,,67,127
29334,note_on,0,0,0,,2,,,74,127
29437,note_off,103,0,0,,2,,,74,127
29439,note_on,2,0,0,,12,,,71,127
29542,note_off,103,0,0,,12,,,71,127
29544,note_on,2,0,0,,7,,,67,127
29647,note_off,103,0,0,,7,,,67,127
29649,note_on,2,0,0,,2,,,74,127
29752,note_off,103,0,0,,2,,,74,127
29754,note_on,2,0,0,,12,,,71,127
29857,note_off,103,0,0,,12,,,71,127
29859,note_on,2,0,0,,7,,,67,127
29962,note_off,103,0,0,,7,,,67,127
29964,note_on,2,0,0,,2,,,62,127
30067,note_off,103,0,0,,2,,,62,127
30069,note_on,2,0,0,,12,,,59,127
30172,note_off,103,0,0,,12,,,59,127
30179,note_on,7,0,0,,7,,,55,127
30277,note_off,98,0,0,,7,,,43,127
30315,note_on,38,0,0,,7,,,43,127
30493,note_off,178,0,0,,7,,,55,127
31572,note_off,1079,0,0,,7,,,43,127
31955,note_on,383,0,0,,0,,,84,127
32058,note_off,103,0,0,,0,,,84,127
32060,note_on,2,0,0,,11,,,82,127
32163,note_off,103,0,0,,11,,,82,127
32165,note_on,2,0,0,,8,,,80,127
32374,note_on,209,0,0,,8,,,56,127
32581,note_off,207,0,0,,8,,,80,127
32583,note_on,2,0,0,,8,,,80,127
32790,note_off,207,0,0,,8,,,80,127
32790,note_off,0,0,0,,8,,,56,127
32792,note_on,2,0,0,,7,,,55,127
32792,note_on,0,0,0,,8,,,80,127
32999,note_off,207,0,0,,8,,,80,127
33001,note_on,2,0,0,,8,,,80,127
33208,note_off,207,0,0,,8,,,80,127
33208,note_off,0,0,0,,7,,,55,127
33210,note_on,2,0,0,,5,,,53,127
33210,note_on,0,0,0,,11,,,82,127
33210,note_on,0,0,0,,8,,,80,127
33313,note_off,103,0,0,,8,,,80,127
33313,note_off,0,0,0,,11,,,82,127
33315,note_on,2,0,0,,7,,,79,127
33418,note_off,103,0,0,,7,,,79,127
33420,note_on,2,0,0,,5,,,77,127
33627,note_off,207,0,0,,5,,,53,127
33629,note_on,2,0,0,,5,,,53,127
33836,note_off,207,0,0,,5,,,77,127
33838,note_on,2,0,0,,5,,,77,127
34045,note_off,207,0,0,,5,,,77,127
34045,note_off,0,0,0,,5,,,53,127
34047,note_on,2,0,0,,3,,,51,127
34047,note_on,0,0,0,,5,,,77,127
34254,note_off,207,0,0,,5,,,77,127
34256,note_on,2,0,0,,5,,,77,127
34463,note_off,207,0,0,,5,,,77,127
34463,note_off,0,0,0,,3,,,51,127
34465,note_on,2,0,0,,1,,,49,127
34465,note_on,0,0,0,,5,,,77,127
34465,note_on,0,0,0,,7,,,79,127
34568,note_off,103,0,0,,7,,,79,127
34568,note_off,0,0,0,,5,,,77,127
34570,note_on,2,0,0,,3,,,75,127
34673,note_off,103,0,0,,3,,,75,127
34675,note_on,2,0,0,,1,,,73,127
34882,note_off,207,0,0,,1,,,49,127
34884,note_on,2,0,0,,1,,,49,127
35091,note_off,207,0,0,,1,,,73,127
35093,note_on,2,0,0,,1,,,73,127
35300,note_off,207,0,0,,1,,,73,127
35300,note_off,0,0,0,,1,,,49,127
35302,note_on,2,0,0,,0,,,48,127
35302,note_on,0,0,0,,1,,,73,127
35509,note_off,207,0,0,,1,,,73,127
35511,note_on,2,0,0,,1,,,73,127
35718,note_off,207,0,0,,1,,,73,127
35718,note_off,0,0,0,,0,,,48,127
35720,note_on,2,0,0,,11,,,46,127
35720,note_on,0,0,0,,3,,,75,127
35720,note_on,0,0,0,,1,,,73,127
35823,note_off,103,0,0,,1,,,73,127
35823,note_off,0,0,0,,3,,,75,127
35825,note_on,2,0,0,,0,,,72,127
35928,note_off,103,0,0,,0,,,72,127
35930,note_on,2,0,0,,11,,,70,127
36137,note_off,207,0,0,,11,,,46,127
36139,note_on,2,0,0,,11,,,46,127
36346,note_off,207,0,0,,11,,,70,127
36348,note_on,2,0,0,,11,,,70,127
36555,note_off,207,0,0,,11,,,70,127
36555,note_off,0,0,0,,11,,,46,127
36557,note_on,2,0,0,,8,,,44,127
36557,note_on,0,0,0,,11,,,70,127
36764,note_off,207,0,0,,11,,,70,127
36766,note_on,2,0,0,,11,,,70,127
36973,note_off,207,0,0,,11,,,70,127
36973,note_off,0,0,0,,8,,,44,127
36975,note_on,2,0,0,,6,,,42,127
36975,note_on,0,0,0,,11,,,70,127
36975,note_on,0,0,0,,0,,,72,127
37078,note_off,103,0,0,,0,,,72,127
37078,note_off,0,0,0,,11,,,70,127
37080,note_on,2,0,0,,8,,,68,127
37183,note_off,103,0,0,,8,,,68,127
37185,note_on,2,0,0,,6,,,66,127
37392,note_off,207,0,0,,6,,,42,127
37394,note_on,2,0,0,,6,,,42,127
37601,note_off,207,0,0,,6,,,66,127
37603,note_on,2,0,0,,6,,,66,127
37810,note_off,207,0,0,,6,,,66,127
37810,note_off,0,0,0,,6,,,42,127
37812,note_on,2,0,0,,5,,,41,127
37812,note_on,0,0,0,,6,,,66,127
38019,note_off,207,0,0,,6,,,66,127
38021,note_on,2,0,0,,6,,,66,127
38228,note_off,207,0,0,,6,,,66,127
38228,note_off,0,0,0,,5,,,41,127
38230,note_on,2,0,0,,3,,,39,127
38230,note_on,0,0,0,,6,,,66,127
38230,note_on,0,0,0,,8,,,68,127
38333,note_off,103,0,0,,8,,,68,127
38333,note_off,0,0,0,,6,,,66,127
38335,note_on,2,0,0,,5,,,65,127
38438,note_off,103,0,0,,5,,,65,127
38440,note_on,2,0,0,,3,,,63,127
38647,note_off,207,0,0,,3,,,39,127
38649,note_on,2,0,0,,0,,,60,127
38856,note_off,207,0,0,,3,,,63,127
38858,note_on,2,0,0,,3,,,63,127
39065,note_off,207,0,0,,3,,,63,127
39065,note_off,0,0,0,,0,,,60,127
39067,note_on,2,0,0,,11,,,58,127
39067,note_on,0,0,0,,3,,,63,127
39274,note_off,207,0,0,,3,,,63,127
39276,note_on,2,0,0,,1,,,61,127
39483,note_off,207,0,0,,1,,,61,127
39483,note_off,0,0,0,,11,,,58,127
39485,note_on,2,0,0,,8,,,44,127
39485,note_on,0,0,0,,6,,,54,127
39485,note_on,0,0,0,,3,,,51,127
39485,note_on,0,0,0,,0,,,60,127
39588,note_off,103,0,0,,0,,,60,127
39590,note_on,2,0,0,,3,,,63,127
39693,note_off,103,0,0,,3,,,63,127
39695,note_on,2,0,0,,6,,,66,127
39798,note_off,103,0,0,,6,,,66,127
39800,note_on,2,0,0,,11,,,70,127
39903,note_off,103,0,0,,11,,,70,127
39903,note_off,0,0,0,,3,,,51,127
39903,note_off,0,0,0,,6,,,54,127
39903,note_off,0,0,0,,8,,,44,127
39905,note_on,2,0,0,,3,,,51,127
39905,note_on,0,0,0,,6,,,54,127
39905,note_on,0,0,0,,8,,,44,127
39905,note_on,0,0,0,,8,,,68,127
40112,note_off,207,0,0,,8,,,68,127
40114,note_on,2,0,0,,6,,,66,127
40321,note_off,207,0,0,,6,,,66,127
40321,note_off,0,0,0,,8,,,44,127
40321,note_off,0,0,0,,6,,,54,127
40321,note_off,0,0,0,,3,,,51,127
40323,note_on,2,0,0,,8,,,44,127
40323,note_on,0,0,0,,6,,,54,127
40323,note_on,0,0,0,,3,,,51,127
40323,note_on,0,0,0,,8,,,68,127
40426,note_off,103,0,0,,8,,,68,127
40428,note_on,2,0,0,,6,,,66,127
40531,note_off,103,0,0,,6,,,66,127
40533,note_on,2,0,0,,5,,,65,127
40636,note_off,103,0,0,,5,,,65,127
40638,note_on,2,0,0,,3,,,63,127
40741,note_off,103,0,0,,3,,,63,127
40741,note_off,0,0,0,,3,,,51,127
40741,note_off,0,0,0,,6,,,54,127
40741,note_off,0,0,0,,8,,,44,127
40743,note_on,2,0,0,,8,,,44,127
40743,note_on,0,0,0,,5,,,53,127
40743,note_on,0,0,0,,1,,,49,127
40743,note_on,0,0,0,,5,,,65,127
40846,note_off,103,0,0,,5,,,65,127
40848,note_on,2,0,0,,1,,,61,127
40951,note_off,103,0,0,,1,,,61,127
40953,note_on,2,0,0,,5,,,65,127
41056,note_off,103,0,0,,5,,,65,127
41058,note_on,2,0,0,,8,,,68,127
41161,note_off,103,0,0,,8,,,68,127
41161,note_off,0,0,0,,1,,,49,127
41161,note_off,0,0,0,,5,,,53,127
41161,note_off,0,0,0,,8,,,44,127
41163,note_on,2,0,0,,8,,,44,127
41163,note_on,0,0,0,,5,,,53,127
41163,note_on,0,0,0,,1,,,49,127
41163,note_on,0,0,0,,1,,,73,127
41370,note_off,207,0,0,,1,,,73,127
41372,note_on,2,0,0,,8,,,68,127
41579,note_off,207,0,0,,8,,,68,127
41579,note_off,0,0,0,,1,,,49,127
41579,note_off,0,0,0,,5,,,53,127
41579,note_off,0,0,0,,8,,,44,127
41581,note_on,2,0,0,,8,,,44,127
41581,note_on,0,0,0,,5,,,53,127
41581,note_on,0,0,0,,1,,,49,127
41581,note_on,0,0,0,,6,,,66,127
41788,note_off,207,0,0,,6,,,66,127
41790,note_on,2,0,0,,5,,,65,127
41997,note_off,207,0,0,,5,,,65,127
41997,note_off,0,0,0,,1,,,49,127
41997,note_off,0,0,0,,5,,,53,127
41997,note_off,0,0,0,,8,,,44,127
41999,note_on,2,0,0,,8,,,44,127
41999,note_on,0,0,0,,6,,,54,127
41999,note_on,0,0,0,,3,,,51,127
41999,note_on,0,0,0,,0,,,60,127
42102,note_off,103,0,0,,0,,,60,127
42104,note_on,2,0,0,,3,,,63,127
42207,note_off,103,0,0,,3,,,63,127
42209,note_on,2,0,0,,6,,,66,127
42312,note_off,103,0,0,,6,,,66,127
42314,note_on,2,0,0,,11,,,70,127
42417,note_off,103,0,0,,11,,,70,127
42417,note_off,0,0,0,,3,,,51,127
42417,note_off,0,0,0,,6,,,54,127
42417,note_off,0,0,0,,8,,,44,127
42419,note_on,2,0,0,,8,,,44,127
42419,note_on,0,0,0,,3,,,51,127
42419,note_on,0,0,0,,6,,,54,127
42419,note_on,0,0,0,,8,,,68,127
42626,note_off,207,0,0,,8,,,68,127
42628,note_on,2,0,0,,6,,,66,127
42835,note_off,207,0,0,,6,,,66,127
42835,note_off,0,0,0,,6,,,54,127
42835,note_off,0,0,0,,3,,,51,127
42835,note_off,0,0,0,,8,,,44,127
42837,note_on,2,0,0,,3,,,51,127
42837,note_on,0,0,0,,8,,,44,127
42837,note_on,0,0,0,,6,,,54,127
42837,note_on,0,0,0,,8,,,68,127
42940,note_off,103,0,0,,8,,,68,127
42942,note_on,2,0,0,,6,,,66,127
43045,note_off,103,0,0,,6,,,66,127
43047,note_on,2,0,0,,5,,,65,127
43150,note_off,103,0,0,,5,,,65,127
43152,note_on,2,0,0,,3,,,63,127
43255,note_off,103,0,0,,3,,,63,127
43255,note_off,0,0,0,,6,,,54,127
43255,note_off,0,0,0,,8,,,44,127
43255,note_off,0,0,0,,3,,,51,127
43257,note_on,2,0,0,,1,,,49,127
43257,note_on,0,0,0,,8,,,44,127
43257,note_on,0,0,0,,5,,,53,127
43257,note_on,0,0,0,,5,,,65,127
43360,note_off,103,0,0,,5,,,65,127
43362,note_on,2,0,0,,1,,,61,127
43465,note_off,103,0,0,,1,,,61,127
43467,note_on,2,0,0,,5,,,65,127
43570,note_off,103,0,0,,5,,,65,127
43572,note_on,2,0,0,,8,,,68,127
43675,note_off,103,0,0,,8,,,68,127
43675,note_off,0,0,0,,5,,,53,127
43675,note_off,0,0,0,,8,,,44,127
43675,note_off,0,0,0,,1,,,49,127
43677,note_on,2,0,0,,8,,,44,127
43677,note_on,0,0,0,,5,,,53,127
43677,note_on,0,0,0,,1,,,49,127
43677,note_on,0,0,0,,1,,,73,127
43884,note_off,207,0,0,,1,,,73,127
43886,note_on,2,0,0,,8,,,68,127
44093,note_off,207,0,0,,8,,,68,127
44093,note_off,0,0,0,,1,,,49,127
44093,note_off,0,0,0,,5,,,53,127
44093,note_off,0,0,0,,8,,,44,127
44095,note_on,2,0,0,,8,,,44,127
44095,note_on,0,0,0,,5,,,53,127
44095,note_on,0,0,0,,1,,,49,127
44095,note_on,0,0,0,,6,,,66,127
44302,note_off,207,0,0,,6,,,66,127
44304,note_on,2,0,0,,5,,,65,127
44511,note_off,207,0,0,,5,,,65,127
44511,note_off,0,0,0,,1,,,49,127
44511,note_off,0,0,0,,5,,,53,127
44511,note_off,0,0,0,,8,,,44,127
44513,note_on,2,0,0,,8,,,44,127
44513,note_on,0,0,0,,3,,,63,127
44722,note_on,209,0,0,,1,,,73,127
44927,note_off,205,0,0,,3,,,63,127
44929,note_off,2,0,0,,1,,,73,127
44929,note_off,0,0,0,,8,,,44,127
44931,note_on,2,0,0,,8,,,56,127
44931,note_on,0,0,0,,3,,,63,127
44931,note_on,0,0,0,,1,,,73,127
45138,note_off,207,0,0,,1,,,73,127
45140,note_on,2,0,0,,0,,,72,127
45345,note_off,205,0,0,,3,,,63,127
45347,note_off,2,0,0,,0,,,72,127
45347,note_off,0,0,0,,8,,,56,127
45349,note_on,2,0,0,,8,,,44,127
45349,note_on,0,0,0,,3,,,63,127
45558,note_on,209,0,0,,1,,,73,127
45763,note_off,205,0,0,,3,,,63,127
45765,note_off,2,0,0,,1,,,73,127
45765,note_off,0,0,0,,8,,,44,127
45767,note_on,2,0,0,,6,,,54,127
45767,note_on,0,0,0,,1,,,73,127
45767,note_on,0,0,0,,3,,,63,127
45974,note_off,207,0,0,,1,,,73,127
45976,note_on,2,0,0,,0,,,72,127
46181,note_off,205,0,0,,3,,,63,127
46183,note_off,2,0,0,,0,,,72,127
46183,note_off,0,0,0,,6,,,54,127
46185,note_on,2,0,0,,6,,,54,127
46185,note_on,0,0,0,,3,,,63,127
46394,note_on,209,0,0,,1,,,73,127
46599,note_off,205,0,0,,3,,,63,127
46601,note_off,2,0,0,,1,,,73,127
46601,note_off,0,0,0,,6,,,54,127
46603,note_on,2,0,0,,6,,,54,127
46603,note_on,0,0,0,,0,,,72,127
46603,note_on,0,0,0,,3,,,63,127
46603,note_on,0,0,0,,1,,,73,127
46810,note_off,207,0,0,,1,,,73,127
46810,note_off,0,0,0,,0,,,72,127
46812,note_on,2,0,0,,11,,,70,127
47017,note_off,205,0,0,,3,,,63,127
47019,note_off,2,0,0,,11,,,70,127
47019,note_off,0,0,0,,6,,,54,127
47021,note_on,2,0,0,,5,,,53,127
47021,note_on,0,0,0,,0,,,60,127
47021,note_on,0,0,0,,3,,,63,127
47021,note_on,0,0,0,,11,,,70,127
47228,note_off,207,0,0,,11,,,70,127
47230,note_on,2,0,0,,10,,,69,127
47437,note_off,207,0,0,,10,,,69,127
47437,note_off,0,0,0,,3,,,63,127
47437,note_off,0,0,0,,0,,,60,127
47437,note_off,0,0,0,,5,,,53,127
47439,note_on,2,0,0,,5,,,53,127
47439,note_on,0,0,0,,3,,,63,127
47439,note_on,0,0,0,,0,,,60,127
47439,note_on,0,0,0,,0,,,72,127
47646,note_off,207,0,0,,0,,,72,127
47648,note_on,2,0,0,,11,,,70,127
47751,note_off,103,0,0,,11,,,70,127
47753,note_on,2,0,0,,10,,,69,127
47856,note_off,103,0,0,,10,,,69,127
47856,note_off,0,0,0,,0,,,60,127
47856,note_off,0,0,0,,3,,,63,127
47856,note_off,0,0,0,,5,,,53,127
47858,note_on,2,0,0,,5,,,53,127
47858,note_on,0,0,0,,0,,,60,127
47858,note_on,0,0,0,,3,,,63,127
47858,note_on,0,0,0,,0,,,72,127
48065,note_off,207,0,0,,0,,,72,127
48067,note_on,2,0,0,,11,,,70,127
48170,note_off,103,0,0,,11,,,70,127
48172,note_on,2,0,0,,10,,,69,127
48275,note_off,103,0,0,,10,,,69,127
48275,note_off,0,0,0,,3,,,63,127
48275,note_off,0,0,0,,0,,,60,127
48275,note_off,0,0,0,,5,,,53,127
48277,note_on,2,0,0,,6,,,54,127
48277,note_on,0,0,0,,3,,,63,127
48277,note_on,0,0,0,,0,,,60,127
48277,note_on,0,0,0,,3,,,75,127
48484,note_off,207,0,0,,3,,,75,127
48486,note_on,2,0,0,,1,,,73,127
48589,note_off,103,0,0,,1,,,73,127
48591,note_on,2,0,0,,0,,,72,127
48694,note_off,103,0,0,,0,,,72,127
48694,note_off,0,0,0,,0,,,60,127
48694,note_off,0,0,0,,3,,,63,127
48694,note_off,0,0,0,,6,,,54,127
48696,note_on,2,0,0,,6,,,54,127
48696,note_on,0,0,0,,3,,,63,127
48696,note_on,0,0,0,,0,,,60,127
48696,note_on,0,0,0,,3,,,75,127
48903,note_off,207,0,0,,3,,,75,127
48905,note_on,2,0,0,,1,,,73,127
49008,note_off,103,0,0,,1,,,73,127
49010,note_on,2,0,0,,0,,,72,127
49113,note_off,103,0,0,,0,,,72,127
49113,note_off,0,0,0,,0,,,60,127
49113,note_off,0,0,0,,3,,,63,127
49113,note_off,0,0,0,,6,,,54,127
49115,note_on,2,0,0,,3,,,63,127
49115,note_on,0,0,0,,6,,,54,127
49115,note_on,0,0,0,,6,,,66,127
49115,note_on,0,0,0,,3,,,75,127
49322,note_off,207,0,0,,3,,,75,127
49324,note_on,2,0,0,,1,,,73,127
49427,note_off,103,0,0,,1,,,73,127
49429,note_on,2,0,0,,0,,,72,127
49532,note_off,103,0,0,,0,,,72,127
49532,note_off,0,0,0,,6,,,66,127
49532,note_off,0,0,0,,6,,,54,127
49532,note_off,0,0,0,,3,,,63,127
49534,note_on,2,0,0,,3,,,63,127
49534,note_on,0,0,0,,8,,,56,127
49534,note_on,0,0,0,,6,,,66,127
49534,note_on,0,0,0,,3,,,75,127
49741,note_off,207,0,0,,3,,,75,127
49743,note_on,2,0,0,,1,,,73,127
49846,note_off,103,0,0,,1,,,73,127
49848,note_on,2,0,0,,0,,,72,127
49951,note_off,103,0,0,,0,,,72,127
49951,note_off,0,0,0,,6,,,66,127
49951,note_off,0,0,0,,8,,,56,127
49951,note_off,0,0,0,,3,,,63,127
49953,note_on,2,0,0,,8,,,56,127
49953,note_on,0,0,0,,3,,,63,127
49953,note_on,0,0,0,,6,,,66,127
49953,note_on,0,0,0,,6,,,78,127
50160,note_off,207,0,0,,6,,,78,127
50162,note_on,2,0,0,,4,,,76,127
50265,note_off,103,0,0,,4,,,76,127
50267,note_on,2,0,0,,3,,,75,127
50370,note_off,103,0,0,,3,,,75,127
50370,note_off,0,0,0,,6,,,66,127
50370,note_off,0,0,0,,3,,,63,127
50370,note_off,0,0,0,,8,,,56,127
50372,note_on,2,0,0,,3,,,63,127
50372,note_on,0,0,0,,8,,,56,127
50372,note_on,0,0,0,,6,,,66,127
50372,note_on,0,0,0,,6,,,78,127
50579,note_off,207,0,0,,6,,,78,127
50581,note_on,2,0,0,,4,,,76,127
50684,note_off,103,0,0,,4,,,76,127
50686,note_on,2,0,0,,3,,,75,127
50789,note_off,103,0,0,,3,,,75,127
50789,note_off,0,0,0,,6,,,66,127
50789,note_off,0,0,0,,8,,,56,127
50789,note_off,0,0,0,,3,,,63,127
50791,note_on,2,0,0,,8,,,56,127
50791,note_on,0,0,0,,4,,,64,127
50791,note_on,0,0,0,,1,,,61,127
50791,note_on,0,0,0,,4,,,76,127
50998,note_off,207,0,0,,4,,,76,127
51000,note_on,2,0,0,,3,,,75,127
51103,note_off,103,0,0,,3,,,75,127
51105,note_on,2,0,0,,1,,,73,127
51208,note_off,103,0,0,,1,,,73,127
51208,note_off,0,0,0,,1,,,61,127
51208,note_off,0,0,0,,4,,,64,127
51208,note_off,0,0,0,,8,,,56,127
51210,note_on,2,0,0,,4,,,64,127
51210,note_on,0,0,0,,1,,,61,127
51210,note_on,0,0,0,,8,,,56,127
51210,note_on,0,0,0,,4,,,76,127
51417,note_off,207,0,0,,4,,,76,127
51419,note_on,2,0,0,,3,,,75,127
51522,note_off,103,0,0,,3,,,75,127
51524,note_on,2,0,0,,1,,,73,127
51627,note_off,103,0,0,,1,,,73,127
51627,note_off,0,0,0,,8,,,56,127
51627,note_off,0,0,0,,1,,,61,127
51627,note_off,0,0,0,,4,,,64,127
51629,note_on,2,0,0,,8,,,56,127
51629,note_on,0,0,0,,5,,,65,127
51629,note_on,0,0,0,,1,,,61,127
51629,note_on,0,0,0,,12,,,71,127
51629,note_on,0,0,0,,5,,,77,127
51836,note_off,207,0,0,,12,,,71,127
51838,note_on,2,0,0,,11,,,70,127
51941,note_off,103,0,0,,11,,,70,127
51943,note_on,2,0,0,,8,,,68,127
52043,note_off,100,0,0,,5,,,77,127
52045,note_off,2,0,0,,8,,,68,127
52045,note_off,0,0,0,,1,,,61,127
52045,note_off,0,0,0,,5,,,65,127
52045,note_off,0,0,0,,8,,,56,127
52047,note_on,2,0,0,,6,,,54,127
52047,note_on,0,0,0,,1,,,61,127
52047,note_on,0,0,0,,6,,,66,127
52047,note_on,0,0,0,,6,,,78,127
52047,note_on,0,0,0,,11,,,70,127
52254,note_off,207,0,0,,11,,,70,127
52256,note_on,2,0,0,,8,,,68,127
52352,note_off,96,0,0,,6,,,66,127
52359,note_off,7,0,0,,8,,,68,127
52361,note_on,2,0,0,,6,,,66,127
52464,note_off,103,0,0,,6,,,66,127
52464,note_off,0,0,0,,1,,,61,127
52464,note_off,0,0,0,,6,,,54,127
52466,note_on,2,0,0,,6,,,54,127
52466,note_on,0,0,0,,1,,,61,127
52466,note_on,0,0,0,,11,,,58,127
52466,note_on,0,0,0,,11,,,70,127
52673,note_off,207,0,0,,11,,,70,127
52675,note_on,2,0,0,,8,,,68,127
52778,note_off,103,0,0,,8,,,68,127
52780,note_on,2,0,0,,6,,,66,127
52883,note_off,103,0,0,,6,,,66,127
52883,note_off,0,0,0,,11,,,58,127
52883,note_off,0,0,0,,1,,,61,127
52883,note_off,0,0,0,,6,,,54,127
52884,note_off,1,0,0,,6,,,78,127
52885,note_on,1,0,0,,1,,,61,127
52885,note_on,0,0,0,,11,,,58,127
52885,note_on,0,0,0,,6,,,66,127
52885,note_on,0,0,0,,4,,,76,127
53092,note_off,207,0,0,,4,,,76,127
53094,note_on,2,0,0,,3,,,75,127
53197,note_off,103,0,0,,3,,,75,127
53199,note_on,2,0,0,,1,,,73,127
53302,note_off,103,0,0,,1,,,73,127
53302,note_off,0,0,0,,6,,,66,127
53302,note_off,0,0,0,,11,,,58,127
53302,note_off,0,0,0,,1,,,61,127
53304,note_on,2,0,0,,12,,,59,127
53304,note_on,0,0,0,,6,,,66,127
53304,note_on,0,0,0,,3,,,63,127
53304,note_on,0,0,0,,3,,,75,127
53511,note_off,207,0,0,,3,,,75,127
53513,note_on,2,0,0,,1,,,73,127
53616,note_off,103,0,0,,1,,,73,127
53618,note_on,2,0,0,,12,,,71,127
53721,note_off,103,0,0,,12,,,71,127
53721,note_off,0,0,0,,3,,,63,127
53721,note_off,0,0,0,,6,,,66,127
53721,note_off,0,0,0,,12,,,59,127
53723,note_on,2,0,0,,12,,,59,127
53723,note_on,0,0,0,,6,,,66,127
53723,note_on,0,0,0,,3,,,63,127
53723,note_on,0,0,0,,12,,,83,127
53930,note_off,207,0,0,,12,,,83,127
53932,note_on,2,0,0,,10,,,81,127
54035,note_off,103,0,0,,10,,,81,127
54037,note_on,2,0,0,,8,,,80,127
54140,note_off,103,0,0,,8,,,80,127
54140,note_off,0,0,0,,3,,,63,127
54140,note_off,0,0,0,,6,,,66,127
54140,note_off,0,0,0,,12,,,59,127
54142,note_on,2,0,0,,12,,,59,127
54142,note_on,0,0,0,,3,,,63,127
54142,note_on,0,0,0,,6,,,66,127
54142,note_on,0,0,0,,10,,,81,127
54349,note_off,207,0,0,,10,,,81,127
54351,note_on,2,0,0,,8,,,80,127
54454,note_off,103,0,0,,8,,,80,127
54456,note_on,2,0,0,,6,,,78,127
54559,note_off,103,0,0,,6,,,78,127
54559,note_off,0,0,0,,6,,,66,127
54559,note_off,0,0,0,,3,,,63,127
54559,note_off,0,0,0,,12,,,59,127
54561,note_on,2,0,0,,4,,,64,127
54561,note_on,0,0,0,,12,,,59,127
54561,note_on,0,0,0,,8,,,68,127
54561,note_on,0,0,0,,8,,,80,127
54768,note_off,207,0,0,,8,,,80,127
54770,note_on,2,0,0,,6,,,78,127
54873,note_off,103,0,0,,6,,,78,127
54875,note_on,2,0,0,,4,,,76,127
54978,note_off,103,0,0,,4,,,76,127
54978,note_off,0,0,0,,8,,,68,127
54978,note_off,0,0,0,,12,,,59,127
54978,note_off,0,0,0,,4,,,64,127
54980,note_on,2,0,0,,12,,,59,127
54980,note_on,0,0,0,,8,,,68,127
54980,note_on,0,0,0,,4,,,64,127
54980,note_on,0,0,0,,8,,,80,127
55187,note_off,207,0,0,,8,,,80,127
55189,note_on,2,0,0,,6,,,78,127
55292,note_off,103,0,0,,6,,,78,127
55294,note_on,2,0,0,,4,,,76,127
55397,note_off,103,0,0,,4,,,76,127
55397,note_off,0,0,0,,4,,,64,127
55397,note_off,0,0,0,,8,,,68,127
55397,note_off,0,0,0,,12,,,59,127
55399,note_on,2,0,0,,4,,,64,127
55399,note_on,0,0,0,,12,,,59,127
55399,note_on,0,0,0,,4,,,76,127
55399,note_on,0,0,0,,11,,,82,127
55606,note_off,207,0,0,,4,,,76,127
55608,note_on,2,0,0,,3,,,75,127
55711,note_off,103,0,0,,3,,,75,127
55713,note_on,2,0,0,,1,,,73,127
55813,note_off,100,0,0,,11,,,82,127
55815,note_off,2,0,0,,1,,,73,127
55815,note_off,0,0,0,,12,,,59,127
55815,note_off,0,0,0,,4,,,64,127
55817,note_on,2,0,0,,12,,,59,127
55817,note_on,0,0,0,,3,,,63,127
55817,note_on,0,0,0,,6,,,66,127
55817,note_on,0,0,0,,3,,,75,127
55817,note_on,0,0,0,,12,,,83,127
56024,note_off,207,0,0,,3,,,75,127
56026,note_on,2,0,0,,1,,,73,127
56129,note_off,103,0,0,,1,,,73,127
56131,note_on,2,0,0,,12,,,71,127
56231,note_off,100,0,0,,12,,,83,127
56233,note_off,2,0,0,,12,,,71,127
56233,note_off,0,0,0,,6,,,66,127
56233,note_off,0,0,0,,3,,,63,127
56233,note_off,0,0,0,,12,,,59,127
56235,note_on,2,0,0,,12,,,59,127
56235,note_on,0,0,0,,6,,,66,127
56235,note_on,0,0,0,,3,,,63,127
56235,note_on,0,0,0,,12,,,83,127
56235,note_on,0,0,0,,3,,,75,127
56442,note_off,207,0,0,,3,,,75,127
56444,note_on,2,0,0,,1,,,73,127
56547,note_off,103,0,0,,1,,,73,127
56549,note_on,2,0,0,,12,,,71,127
56649,note_off,100,0,0,,12,,,83,127
56651,note_off,2,0,0,,12,,,71,127
56651,note_off,0,0,0,,3,,,63,127
56651,note_off,0,0,0,,6,,,66,127
56651,note_off,0,0,0,,12,,,59,127
56653,note_on,2,0,0,,3,,,63,127
56653,note_on,0,0,0,,6,,,66,127
56653,note_on,0,0,0,,12,,,59,127
56653,note_on,0,0,0,,10,,,81,127
56653,note_on,0,0,0,,3,,,75,127
56860,note_off,207,0,0,,3,,,75,127
56862,note_on,2,0,0,,1,,,73,127
56965,note_off,103,0,0,,1,,,73,127
56967,note_on,2,0,0,,12,,,71,127
57067,note_off,100,0,0,,10,,,81,127
57069,note_off,2,0,0,,12,,,71,127
57069,note_off,0,0,0,,12,,,59,127
57069,note_off,0,0,0,,6,,,66,127
57069,note_off,0,0,0,,3,,,63,127
57071,note_on,2,0,0,,4,,,64,127
57071,note_on,0,0,0,,12,,,59,127
57071,note_on,0,0,0,,8,,,68,127
57071,note_on,0,0,0,,8,,,80,127
57071,note_on,0,0,0,,12,,,71,127
57278,note_off,207,0,0,,8,,,80,127
57280,note_on,2,0,0,,6,,,78,127
57383,note_off,103,0,0,,6,,,78,127
57385,note_on,2,0,0,,4,,,76,127
57485,note_off,100,0,0,,12,,,71,127
57487,note_off,2,0,0,,4,,,76,127
57487,note_off,0,0,0,,8,,,68,127
57487,note_off,0,0,0,,12,,,59,127
57487,note_off,0,0,0,,4,,,64,127
57489,note_on,2,0,0,,4,,,64,127
57489,note_on,0,0,0,,12,,,59,127
57489,note_on,0,0,0,,8,,,68,127
57489,note_on,0,0,0,,8,,,80,127
57489,note_on,0,0,0,,12,,,71,127
57696,note_off,207,0,0,,8,,,80,127
57698,note_on,2,0,0,,6,,,78,127
57801,note_off,103,0,0,,6,,,78,127
57803,note_on,2,0,0,,4,,,76,127
57903,note_off,100,0,0,,12,,,71,127
57905,note_off,2,0,0,,4,,,76,127
57905,note_off,0,0,0,,8,,,68,127
57905,note_off,0,0,0,,12,,,59,127
57905,note_off,0,0,0,,4,,,64,127
57907,note_on,2,0,0,,12,,,59,127
57907,note_on,0,0,0,,8,,,68,127
57907,note_on,0,0,0,,4,,,64,127
57907,note_on,0,0,0,,8,,,80,127
57907,note_on,0,0,0,,12,,,71,127
58114,note_off,207,0,0,,8,,,80,127
58116,note_on,2,0,0,,6,,,78,127
58219,note_off,103,0,0,,6,,,78,127
58221,note_on,2,0,0,,4,,,76,127
58321,note_off,100,0,0,,12,,,71,127
58323,note_off,2,0,0,,4,,,76,127
58323,note_off,0,0,0,,4,,,64,127
58323,note_off,0,0,0,,8,,,68,127
58323,note_off,0,0,0,,12,,,59,127
58325,note_on,2,0,0,,2,,,62,127
58325,note_on,0,0,0,,8,,,68,127
58325,note_on,0,0,0,,12,,,59,127
58325,note_on,0,0,0,,2,,,86,127
58325,note_on,0,0,0,,5,,,77,127
58532,note_off,207,0,0,,5,,,77,127
58534,note_on,2,0,0,,4,,,76,127
58637,note_off,103,0,0,,4,,,76,127
58639,note_on,2,0,0,,2,,,74,127
58739,note_off,100,0,0,,2,,,86,127
58741,note_off,2,0,0,,2,,,74,127
58741,note_off,0,0,0,,12,,,59,127
58741,note_off,0,0,0,,8,,,68,127
58741,note_off,0,0,0,,2,,,62,127
58743,note_on,2,0,0,,2,,,62,127
58743,note_on,0,0,0,,8,,,68,127
58743,note_on,0,0,0,,12,,,59,127
58743,note_on,0,0,0,,2,,,86,127
58743,note_on,0,0,0,,5,,,77,127
58950,note_off,207,0,0,,5,,,77,127
58952,note_on,2,0,0,,4,,,76,127
59055,note_off,103,0,0,,4,,,76,127
59057,note_on,2,0,0,,2,,,74,127
59157,note_off,100,0,0,,2,,,86,127
59159,note_off,2,0,0,,2,,,74,127
59159,note_off,0,0,0,,12,,,59,127
59159,note_off,0,0,0,,8,,,68,127
59159,note_off,0,0,0,,2,,,62,127
59161,note_on,2,0,0,,12,,,59,127
59161,note_on,0,0,0,,8,,,68,127
59161,note_on,0,0,0,,2,,,62,127
59161,note_on,0,0,0,,5,,,77,127
59161,note_on,0,0,0,,2,,,86,127
59368,note_off,207,0,0,,5,,,77,127
59370,note_on,2,0,0,,4,,,76,127
59473,note_off,103,0,0,,4,,,76,127
59475,note_on,2,0,0,,2,,,74,127
59575,note_off,100,0,0,,2,,,86,127
59577,note_off,2,0,0,,2,,,74,127
59577,note_off,0,0,0,,2,,,62,127
59577,note_off,0,0,0,,8,,,68,127
59577,note_off,0,0,0,,12,,,59,127
59579,note_on,2,0,0,,10,,,57,127
59579,note_on,0,0,0,,5,,,65,127
59579,note_on,0,0,0,,2,,,62,127
59579,note_on,0,0,0,,5,,,77,127
59579,note_on,0,0,0,,2,,,86,127
59786,note_off,207,0,0,,5,,,77,127
59788,note_on,2,0,0,,4,,,76,127
59891,note_off,103,0,0,,4,,,76,127
59893,note_on,2,0,0,,2,,,74,127
59993,note_off,100,0,0,,2,,,86,127
59995,note_off,2,0,0,,2,,,74,127
59995,note_off,0,0,0,,2,,,62,127
59995,note_off,0,0,0,,5,,,65,127
59995,note_off,0,0,0,,10,,,57,127
59997,note_on,2,0,0,,2,,,62,127
59997,note_on,0,0,0,,10,,,57,127
59997,note_on,0,0,0,,5,,,65,127
59997,note_on,0,0,0,,5,,,77,127
59997,note_on,0,0,0,,2,,,86,127
60204,note_off,207,0,0,,5,,,77,127
60206,note_on,2,0,0,,4,,,76,127
60309,note_off,103,0,0,,4,,,76,127
60311,note_on,2,0,0,,2,,,74,127
60411,note_off,100,0,0,,2,,,86,127
60413,note_off,2,0,0,,2,,,74,127
60413,note_off,0,0,0,,5,,,65,127
60413,note_off,0,0,0,,10,,,57,127
60413,note_off,0,0,0,,2,,,62,127
60415,note_on,2,0,0,,2,,,62,127
60415,note_on,0,0,0,,10,,,57,127
60415,note_on,0,0,0,,5,,,65,127
60415,note_on,0,0,0,,5,,,77,127
60415,note_on,0,0,0,,2,,,86,127
60622,note_off,207,0,0,,5,,,77,127
60624,note_on,2,0,0,,4,,,76,127
60727,note_off,103,0,0,,4,,,76,127
60729,note_on,2,0,0,,2,,,74,127
60829,note_off,100,0,0,,2,,,86,127
60831,note_off,2,0,0,,2,,,74,127
60831,note_off,0,0,0,,5,,,65,127
60831,note_off,0,0,0,,10,,,57,127
60831,note_off,0,0,0,,2,,,62,127
60833,note_on,2,0,0,,8,,,56,127
60833,note_on,0,0,0,,4,,,64,127
60833,note_on,0,0,0,,2,,,86,127
60833,note_on,0,0,0,,4,,,76,127
61040,note_off,207,0,0,,2,,,86,127
61042,note_on,2,0,0,,0,,,84,127
61145,note_off,103,0,0,,0,,,84,127
61147,note_on,2,0,0,,12,,,83,127
61247,note_off,100,0,0,,4,,,76,127
61249,note_off,2,0,0,,12,,,83,127
61249,note_off,0,0,0,,4,,,64,127
61249,note_off,0,0,0,,8,,,56,127
61251,note_on,2,0,0,,10,,,57,127
61251,note_on,0,0,0,,4,,,64,127
61251,note_on,0,0,0,,0,,,84,127
61251,note_on,0,0,0,,4,,,76,127
61458,note_off,207,0,0,,0,,,84,127
61460,note_on,2,0,0,,12,,,83,127
61563,note_off,103,0,0,,12,,,83,127
61565,note_on,2,0,0,,10,,,81,127
61665,note_off,100,0,0,,4,,,76,127
61667,note_off,2,0,0,,10,,,81,127
61667,note_off,0,0,0,,4,,,64,127
61667,note_off,0,0,0,,10,,,57,127
61669,note_on,2,0,0,,4,,,64,127
61669,note_on,0,0,0,,4,,,52,127
61669,note_on,0,0,0,,12,,,83,127
61669,note_on,0,0,0,,2,,,74,127
61876,note_off,207,0,0,,2,,,74,127
61878,note_on,2,0,0,,0,,,72,127
61981,note_off,103,0,0,,0,,,72,127
61983,note_on,2,0,0,,12,,,71,127
62083,note_off,100,0,0,,12,,,83,127
62085,note_off,2,0,0,,12,,,71,127
62085,note_off,0,0,0,,4,,,52,127
62085,note_off,0,0,0,,4,,,64,127
62087,note_on,2,0,0,,5,,,53,127
62087,note_on,0,0,0,,4,,,64,127
62087,note_on,0,0,0,,12,,,83,127
62087,note_on,0,0,0,,0,,,72,127
62294,note_off,207,0,0,,0,,,72,127
62296,note_on,2,0,0,,12,,,71,127
62399,note_off,103,0,0,,12,,,71,127
62401,note_on,2,0,0,,10,,,69,127
62501,note_off,100,0,0,,12,,,83,127
62503,note_off,2,0,0,,10,,,69,127
62503,note_off,0,0,0,,4,,,64,127
62503,note_off,0,0,0,,5,,,53,127
62505,note_on,2,0,0,,5,,,53,127
62505,note_on,0,0,0,,4,,,64,127
62505,note_on,0,0,0,,10,,,69,127
62505,note_on,0,0,0,,10,,,81,127
62712,note_off,207,0,0,,10,,,69,127
62714,note_on,2,0,0,,8,,,68,127
62817,note_off,103,0,0,,8,,,68,127
62819,note_on,2,0,0,,10,,,69,127
62922,note_off,103,0,0,,10,,,69,127
62922,note_off,0,0,0,,4,,,64,127
62922,note_off,0,0,0,,5,,,53,127
62924,note_on,2,0,0,,5,,,53,127
62924,note_on,0,0,0,,4,,,64,127
62924,note_on,0,0,0,,10,,,69,127
63131,note_off,207,0,0,,10,,,69,127
63133,note_on,2,0,0,,8,,,68,127
63236,note_off,103,0,0,,8,,,68,127
63238,note_on,2,0,0,,10,,,69,127
63341,note_off,103,0,0,,10,,,69,127
63341,note_off,0,0,0,,4,,,64,127
63341,note_off,0,0,0,,5,,,53,127
63343,note_on,2,0,0,,4,,,52,127
63343,note_on,0,0,0,,12,,,59,127
63343,note_on,0,0,0,,4,,,64,127
63343,note_on,0,0,0,,12,,,71,127
63550,note_off,207,0,0,,10,,,81,127
63552,note_on,2,0,0,,8,,,80,127
63655,note_off,103,0,0,,8,,,80,127
63657,note_on,2,0,0,,10,,,81,127
63760,note_off,103,0,0,,10,,,81,127
63760,note_off,0,0,0,,4,,,64,127
63760,note_off,0,0,0,,12,,,59,127
63760,note_off,0,0,0,,4,,,52,127
63762,note_on,2,0,0,,4,,,52,127
63762,note_on,0,0,0,,12,,,59,127
63762,note_on,0,0,0,,4,,,64,127
63762,note_on,0,0,0,,12,,,83,127
63969,note_off,207,0,0,,12,,,83,127
63970,note_off,1,0,0,,12,,,71,127
63971,note_on,1,0,0,,0,,,72,127
63971,note_on,0,0,0,,0,,,84,127
64074,note_off,103,0,0,,0,,,84,127
64074,note_off,0,0,0,,0,,,72,127
64076,note_on,2,0,0,,12,,,71,127
64076,note_on,0,0,0,,12,,,83,127
64179,note_off,103,0,0,,12,,,83,127
64179,note_off,0,0,0,,12,,,71,127
64179,note_off,0,0,0,,4,,,64,127
64179,note_off,0,0,0,,12,,,59,127
64179,note_off,0,0,0,,4,,,52,127
64181,note_on,2,0,0,,10,,,57,127
64181,note_on,0,0,0,,5,,,53,127
64181,note_on,0,0,0,,2,,,62,127
64181,note_on,0,0,0,,10,,,69,127
64181,note_on,0,0,0,,10,,,81,127
64388,note_off,207,0,0,,10,,,69,127
64390,note_on,2,0,0,,8,,,68,127
64493,note_off,103,0,0,,8,,,68,127
64495,note_on,2,0,0,,10,,,69,127
64598,note_off,103,0,0,,10,,,69,127
64598,note_off,0,0,0,,2,,,62,127
64598,note_off,0,0,0,,5,,,53,127
64598,note_off,0,0,0,,10,,,57,127
64600,note_on,2,0,0,,12,,,59,127
64600,note_on,0,0,0,,4,,,52,127
64600,note_on,0,0,0,,4,,,64,127
64600,note_on,0,0,0,,12,,,71,127
64808,note_off,208,0,0,,10,,,81,127
64809,note_on,1,0,0,,8,,,80,127
64912,note_off,103,0,0,,8,,,80,127
64914,note_on,2,0,0,,10,,,81,127
65017,note_off,103,0,0,,10,,,81,127
65017,note_off,0,0,0,,4,,,64,127
65017,note_off,0,0,0,,4,,,52,127
65017,note_off,0,0,0,,12,,,59,127
65019,note_on,2,0,0,,12,,,59,127
65019,note_on,0,0,0,,4,,,52,127
65019,note_on,0,0,0,,4,,,64,127
65019,note_on,0,0,0,,12,,,83,127
65226,note_off,207,0,0,,12,,,83,127
65227,note_off,1,0,0,,12,,,71,127
65228,note_on,1,0,0,,0,,,72,127
65228,note_on,0,0,0,,0,,,84,127
65331,note_off,103,0,0,,0,,,84,127
65331,note_off,0,0,0,,0,,,72,127
65333,note_on,2,0,0,,12,,,71,127
65333,note_on,0,0,0,,12,,,83,127
65436,note_off,103,0,0,,12,,,83,127
65436,note_off,0,0,0,,12,,,71,127
65436,note_off,0,0,0,,4,,,64,127
65436,note_off,0,0,0,,4,,,52,127
65436,note_off,0,0,0,,12,,,59,127
65438,note_on,2,0,0,,10,,,57,127
65438,note_on,0,0,0,,5,,,53,127
65438,note_on,0,0,0,,2,,,62,127
65438,note_on,0,0,0,,10,,,69,127
65438,note_on,0,0,0,,10,,,81,127
65645,note_off,207,0,0,,10,,,69,127
65647,note_on,2,0,0,,8,,,68,127
65750,note_off,103,0,0,,8,,,68,127
65752,note_on,2,0,0,,10,,,69,127
65855,note_off,103,0,0,,10,,,69,127
65855,note_off,0,0,0,,2,,,62,127
65855,note_off,0,0,0,,5,,,53,127
65855,note_off,0,0,0,,10,,,57,127
65857,note_on,2,0,0,,4,,,52,127
65857,note_on,0,0,0,,4,,,64,127
65857,note_on,0,0,0,,12,,,71,127
66064,note_off,207,0,0,,12,,,71,127
66065,note_off,1,0,0,,10,,,81,127
66066,note_on,1,0,0,,8,,,80,127
66169,note_off,103,0,0,,8,,,80,127
66171,note_on,2,0,0,,10,,,81,127
66274,note_off,103,0,0,,10,,,81,127
66276,note_on,2,0,0,,12,,,83,127
66379,note_off,103,0,0,,12,,,83,127
66381,note_on,2,0,0,,8,,,80,127
66484,note_off,103,0,0,,8,,,80,127
66485,note_off,1,0,0,,4,,,64,127
66486,note_on,1,0,0,,4,,,76,127
66589,note_off,103,0,0,,4,,,76,127
66591,note_on,2,0,0,,12,,,71,127
66694,note_off,103,0,0,,12,,,71,127
66696,note_on,2,0,0,,8,,,68,127
66799,note_off,103,0,0,,8,,,68,127
66801,note_on,2,0,0,,4,,,64,127
66904,note_off,103,0,0,,4,,,64,127
66906,note_on,2,0,0,,12,,,59,127
67009,note_off,103,0,0,,12,,,59,127
67011,note_on,2,0,0,,8,,,56,127
67114,note_off,103,0,0,,8,,,56,127
67114,note_off,0,0,0,,4,,,52,127
67116,note_on,2,0,0,,4,,,40,127
67116,note_on,0,0,0,,4,,,52,127
68059,note_off,943,0,0,,4,,,52,127
68164,note_off,105,0,0,,4,,,40,127
68373,note_on,209,0,0,,10,,,45,127
68373,note_on,0,0,0,,0,,,84,127
68476,note_off,103,0,0,,10,,,45,127
68478,note_on,2,0,0,,0,,,48,127
68581,note_off,103,0,0,,0,,,48,127
68583,note_on,2,0,0,,4,,,52,127
68686,note_off,103,0,0,,4,,,52,127
68688,note_on,2,0,0,,10,,,57,127
68791,note_off,103,0,0,,10,,,57,127
68793,note_on,2,0,0,,10,,,57,127
68896,note_off,103,0,0,,10,,,57,127
68898,note_on,2,0,0,,0,,,60,127
69001,note_off,103,0,0,,0,,,60,127
69003,note_on,2,0,0,,4,,,64,127
69106,note_off,103,0,0,,4,,,64,127
69108,note_on,2,0,0,,10,,,69,127
69211,note_off,103,0,0,,10,,,69,127
69213,note_on,2,0,0,,10,,,45,127
69316,note_off,103,0,0,,0,,,84,127
69318,note_on,2,0,0,,10,,,81,127
69421,note_off,103,0,0,,10,,,81,127
69423,note_on,2,0,0,,8,,,80,127
69526,note_off,103,0,0,,8,,,80,127
69528,note_on,2,0,0,,10,,,81,127
69631,note_off,103,0,0,,10,,,81,127
69631,note_off,0,0,0,,10,,,45,127
69633,note_on,2,0,0,,4,,,40,127
69633,note_on,0,0,0,,10,,,81,127
69736,note_off,103,0,0,,4,,,40,127
69738,note_on,2,0,0,,8,,,44,127
69841,note_off,103,0,0,,8,,,44,127
69843,note_on,2,0,0,,12,,,47,127
69946,note_off,103,0,0,,12,,,47,127
69948,note_on,2,0,0,,4,,,52,127
70051,note_off,103,0,0,,4,,,52,127
70051,note_off,0,0,0,,10,,,81,127
70053,note_on,2,0,0,,4,,,52,127
70053,note_on,0,0,0,,12,,,83,127
70156,note_off,103,0,0,,4,,,52,127
70158,note_on,2,0,0,,8,,,56,127
70261,note_off,103,0,0,,8,,,56,127
70263,note_on,2,0,0,,12,,,59,127
70366,note_off,103,0,0,,12,,,59,127
70368,note_on,2,0,0,,4,,,64,127
70471,note_off,103,0,0,,4,,,64,127
70473,note_on,2,0,0,,4,,,40,127
70576,note_off,103,0,0,,12,,,83,127
70578,note_on,2,0,0,,2,,,74,127
70681,note_off,103,0,0,,2,,,74,127
70683,note_on,2,0,0,,0,,,72,127
70786,note_off,103,0,0,,0,,,72,127
70788,note_on,2,0,0,,12,,,71,127
70891,note_off,103,0,0,,12,,,71,127
70891,note_off,0,0,0,,4,,,40,127
70893,note_on,2,0,0,,10,,,45,127
70893,note_on,0,0,0,,12,,,71,127
70996,note_off,103,0,0,,10,,,45,127
70998,note_on,2,0,0,,0,,,48,127
71101,note_off,103,0,0,,0,,,48,127
71101,note_off,0,0,0,,12,,,71,127
71103,note_on,2,0,0,,4,,,52,127
71103,note_on,0,0,0,,0,,,72,127
71206,note_off,103,0,0,,4,,,52,127
71208,note_on,2,0,0,,10,,,57,127
71311,note_off,103,0,0,,10,,,57,127
71313,note_on,2,0,0,,10,,,57,127
71313,note_on,0,0,0,,0,,,84,127
71416,note_off,103,0,0,,10,,,57,127
71418,note_off,2,0,0,,0,,,72,127
71418,note_on,0,0,0,,0,,,60,127
71521,note_off,103,0,0,,0,,,60,127
71523,note_on,2,0,0,,4,,,64,127
71626,note_off,103,0,0,,4,,,64,127
71628,note_on,2,0,0,,10,,,69,127
71731,note_off,103,0,0,,10,,,69,127
71733,note_on,2,0,0,,10,,,45,127
71836,note_off,103,0,0,,0,,,84,127
71838,note_on,2,0,0,,10,,,81,127
71941,note_off,103,0,0,,10,,,81,127
71943,note_on,2,0,0,,8,,,80,127
72046,note_off,103,0,0,,8,,,80,127
72048,note_on,2,0,0,,10,,,81,127
72151,note_off,103,0,0,,10,,,81,127
72151,note_off,0,0,0,,10,,,45,127
72153,note_on,2,0,0,,4,,,40,127
72153,note_on,0,0,0,,10,,,81,127
72256,note_off,103,0,0,,4,,,40,127
72258,note_on,2,0,0,,8,,,44,127
72361,note_off,103,0,0,,8,,,44,127
72363,note_on,2,0,0,,12,,,47,127
72466,note_off,103,0,0,,12,,,47,127
72468,note_on,2,0,0,,4,,,52,127
72571,note_off,103,0,0,,4,,,52,127
72571,note_off,0,0,0,,10,,,81,127
72573,note_on,2,0,0,,4,,,52,127
72573,note_on,0,0,0,,12,,,83,127
72676,note_off,103,0,0,,4,,,52,127
72678,note_on,2,0,0,,8,,,56,127
72781,note_off,103,0,0,,8,,,56,127
72783,note_on,2,0,0,,12,,,59,127
72886,note_off,103,0,0,,12,,,59,127
72888,note_on,2,0,0,,4,,,64,127
72991,note_off,103,0,0,,4,,,64,127
72993,note_on,2,0,0,,4,,,40,127
73096,note_off,103,0,0,,12,,,83,127
73098,note_on,2,0,0,,2,,,74,127
73201,note_off,103,0,0,,2,,,74,127
73203,note_on,2,0,0,,0,,,72,127
73306,note_off,103,0,0,,0,,,72,127
73308,note_on,2,0,0,,12,,,71,127
73411,note_off,103,0,0,,12,,,71,127
73411,note_off,0,0,0,,4,,,40,127
73413,note_on,2,0,0,,10,,,57,127
73413,note_on,0,0,0,,0,,,72,127
73516,note_off,103,0,0,,0,,,72,127
73518,note_on,2,0,0,,0,,,84,127
73621,note_off,103,0,0,,0,,,84,127
73623,note_on,2,0,0,,12,,,83,127
73726,note_off,103,0,0,,12,,,83,127
73728,note_on,2,0,0,,0,,,84,127
73831,note_off,103,0,0,,0,,,84,127
73831,note_off,0,0,0,,10,,,57,127
73833,note_on,2,0,0,,2,,,50,127
73833,note_on,0,0,0,,2,,,86,127
73936,note_off,103,0,0,,2,,,86,127
73938,note_on,2,0,0,,8,,,80,127
74041,note_off,103,0,0,,8,,,80,127
74043,note_on,2,0,0,,10,,,81,127
74146,note_off,103,0,0,,10,,,81,127
74148,note_on,2,0,0,,5,,,77,127
74251,note_off,103,0,0,,5,,,77,127
74251,note_off,0,0,0,,2,,,50,127
74253,note_on,2,0,0,,4,,,52,127
74253,note_on,0,0,0,,4,,,76,127
74356,note_off,103,0,0,,4,,,76,127
74358,note_on,2,0,0,,2,,,74,127
74461,note_off,103,0,0,,2,,,74,127
74463,note_on,2,0,0,,0,,,72,127
74559,note_off,96,0,0,,0,,,72,127
74568,note_on,9,0,0,,12,,,71,127
74655,note_off,87,0,0,,12,,,71,127
74670,note_off,15,0,0,,4,,,52,127
74679,note_on,9,0,0,,0,,,84,127
74679,note_on,0,0,0,,10,,,45,127
74782,note_off,103,0,0,,10,,,45,127
74784,note_on,2,0,0,,0,,,48,127
74887,note_off,103,0,0,,0,,,48,127
74889,note_on,2,0,0,,4,,,52,127
74992,note_off,103,0,0,,4,,,52,127
74994,note_on,2,0,0,,10,,,57,127
75097,note_off,103,0,0,,10,,,57,127
75099,note_on,2,0,0,,10,,,57,127
75202,note_off,103,0,0,,10,,,57,127
75204,note_on,2,0,0,,0,,,60,127
75307,note_off,103,0,0,,0,,,60,127
75309,note_on,2,0,0,,4,,,64,127
75412,note_off,103,0,0,,4,,,64,127
75414,note_on,2,0,0,,10,,,69,127
75517,note_off,103,0,0,,10,,,69,127
75519,note_on,2,0,0,,10,,,45,127
75622,note_off,103,0,0,,0,,,84,127
75624,note_on,2,0,0,,10,,,81,127
75727,note_off,103,0,0,,10,,,81,127
75729,note_on,2,0,0,,8,,,80,127
75832,note_off,103,0,0,,8,,,80,127
75834,note_on,2,0,0,,10,,,81,127
75937,note_off,103,0,0,,10,,,81,127
75937,note_off,0,0,0,,10,,,45,127
75939,note_on,2,0,0,,10,,,81,127
75939,note_on,0,0,0,,4,,,40,127
76042,note_off,103,0,0,,4,,,40,127
76044,note_on,2,0,0,,8,,,44,127
76147,note_off,103,0,0,,8,,,44,127
76149,note_on,2,0,0,,12,,,47,127
76252,note_off,103,0,0,,12,,,47,127
76254,note_on,2,0,0,,4,,,52,127
76357,note_off,103,0,0,,4,,,52,127
76357,note_off,0,0,0,,10,,,81,127
76359,note_on,2,0,0,,12,,,83,127
76359,note_on,0,0,0,,4,,,52,127
76462,note_off,103,0,0,,4,,,52,127
76464,note_on,2,0,0,,8,,,56,127
76567,note_off,103,0,0,,8,,,56,127
76569,note_on,2,0,0,,12,,,59,127
76672,note_off,103,0,0,,12,,,59,127
76674,note_on,2,0,0,,4,,,64,127
76777,note_off,103,0,0,,4,,,64,127
76779,note_on,2,0,0,,4,,,40,127
76882,note_off,103,0,0,,12,,,83,127
76884,note_on,2,0,0,,2,,,74,127
76987,note_off,103,0,0,,2,,,74,127
76989,note_on,2,0,0,,0,,,72,127
77092,note_off,103,0,0,,0,,,72,127
77094,note_on,2,0,0,,12,,,71,127
77197,note_off,103,0,0,,12,,,71,127
77197,note_off,0,0,0,,4,,,40,127
77199,note_on,2,0,0,,12,,,71,127
77199,note_on,0,0,0,,10,,,45,127
77302,note_off,103,0,0,,10,,,45,127
77304,note_on,2,0,0,,0,,,48,127
77407,note_off,103,0,0,,0,,,48,127
77407,note_off,0,0,0,,12,,,71,127
77409,note_on,2,0,0,,0,,,72,127
77409,note_on,0,0,0,,4,,,52,127
77512,note_off,103,0,0,,4,,,52,127
77514,note_on,2,0,0,,10,,,57,127
77617,note_off,103,0,0,,10,,,57,127
77619,note_on,2,0,0,,0,,,84,127
77619,note_on,0,0,0,,10,,,57,127
77722,note_off,103,0,0,,10,,,57,127
77724,note_off,2,0,0,,0,,,72,127
77724,note_on,0,0,0,,0,,,60,127
77827,note_off,103,0,0,,0,,,60,127
77829,note_on,2,0,0,,4,,,64,127
77932,note_off,103,0,0,,4,,,64,127
77934,note_on,2,0,0,,10,,,69,127
78037,note_off,103,0,0,,10,,,69,127
78039,note_on,2,0,0,,10,,,45,127
78142,note_off,103,0,0,,0,,,84,127
78144,note_on,2,0,0,,10,,,81,127
78247,note_off,103,0,0,,10,,,81,127
78249,note_on,2,0,0,,8,,,80,127
78352,note_off,103,0,0,,8,,,80,127
78354,note_on,2,0,0,,10,,,81,127
78457,note_off,103,0,0,,10,,,81,127
78457,note_off,0,0,0,,10,,,45,127
78459,note_on,2,0,0,,10,,,81,127
78459,note_on,0,0,0,,4,,,40,127
78562,note_off,103,0,0,,4,,,40,127
78564,note_on,2,0,0,,8,,,44,127
78667,note_off,103,0,0,,8,,,44,127
78669,note_on,2,0,0,,12,,,47,127
78772,note_off,103,0,0,,12,,,47,127
78774,note_on,2,0,0,,4,,,52,127
78877,note_off,103,0,0,,4,,,52,127
78877,note_off,0,0,0,,10,,,81,127
78879,note_on,2,0,0,,12,,,83,127
78879,note_on,0,0,0,,4,,,52,127
78982,note_off,103,0,0,,4,,,52,127
78984,note_on,2,0,0,,8,,,56,127
79087,note_off,103,0,0,,8,,,56,127
79089,note_on,2,0,0,,12,,,59,127
79192,note_off,103,0,0,,12,,,59,127
79194,note_on,2,0,0,,4,,,64,127
79297,note_off,103,0,0,,4,,,64,127
79299,note_on,2,0,0,,4,,,40,127
79402,note_off,103,0,0,,12,,,83,127
79404,note_on,2,0,0,,2,,,74,127
79507,note_off,103,0,0,,2,,,74,127
79509,note_on,2,0,0,,0,,,72,127
79612,note_off,103,0,0,,0,,,72,127
79614,note_on,2,0,0,,12,,,71,127
79717,note_off,103,0,0,,12,,,71,127
79717,note_off,0,0,0,,4,,,40,127
79719,note_on,2,0,0,,0,,,72,127
79719,note_on,0,0,0,,10,,,57,127
79822,note_off,103,0,0,,0,,,72,127
79824,note_on,2,0,0,,0,,,84,127
79927,note_off,103,0,0,,0,,,84,127
79929,note_on,2,0,0,,12,,,83,127
80032,note_off,103,0,0,,12,,,83,127
80034,note_on,2,0,0,,0,,,84,127
80137,note_off,103,0,0,,0,,,84,127
80137,note_off,0,0,0,,10,,,57,127
80139,note_on,2,0,0,,2,,,86,127
80139,note_on,0,0,0,,2,,,50,127
80242,note_off,103,0,0,,2,,,86,127
80244,note_on,2,0,0,,8,,,80,127
80347,note_off,103,0,0,,8,,,80,127
80349,note_on,2,0,0,,10,,,81,127
80452,note_off,103,0,0,,10,,,81,127
80454,note_on,2,0,0,,5,,,77,127
80557,note_off,103,0,0,,5,,,77,127
80557,note_off,0,0,0,,2,,,50,127
80559,note_on,2,0,0,,4,,,76,127
80559,note_on,0,0,0,,4,,,52,127
80662,note_off,103,0,0,,4,,,76,127
80664,note_on,2,0,0,,2,,,74,127
80767,note_off,103,0,0,,2,,,74,127
80769,note_on,2,0,0,,0,,,72,127
80865,note_off,96,0,0,,0,,,72,127
80874,note_on,9,0,0,,12,,,71,127
80958,note_off,84,0,0,,12,,,71,127
80977,note_off,19,0,0,,4,,,52,127
80986,note_on,9,0,0,,10,,,57,127
80986,note_on,0,0,0,,0,,,84,127
81089,note_off,103,0,0,,0,,,84,127
81091,note_on,2,0,0,,0,,,72,127
81194,note_off,103,0,0,,0,,,72,127
81196,note_on,2,0,0,,12,,,71,127
81299,note_off,103,0,0,,12,,,71,127
81301,note_on,2,0,0,,12,,,83,127
81404,note_off,103,0,0,,12,,,83,127
81406,note_on,2,0,0,,10,,,45,127
81406,note_on,0,0,0,,10,,,81,127
81509,note_off,103,0,0,,10,,,81,127
81511,note_on,2,0,0,,10,,,69,127
81614,note_off,103,0,0,,10,,,69,127
81616,note_on,2,0,0,,7,,,67,127
81719,note_off,103,0,0,,7,,,67,127
81721,note_on,2,0,0,,7,,,79,127
81824,note_off,103,0,0,,7,,,79,127
81824,note_off,0,0,0,,10,,,45,127
81825,note_off,1,0,0,,10,,,57,127
81826,note_on,1,0,0,,0,,,48,127
81826,note_on,0,0,0,,5,,,77,127
81929,note_off,103,0,0,,5,,,77,127
81931,note_on,2,0,0,,5,,,65,127
82034,note_off,103,0,0,,5,,,65,127
82036,note_on,2,0,0,,4,,,64,127
82139,note_off,103,0,0,,4,,,64,127
82141,note_on,2,0,0,,4,,,76,127
82244,note_off,103,0,0,,4,,,76,127
82244,note_off,0,0,0,,0,,,48,127
82246,note_on,2,0,0,,2,,,50,127
82246,note_on,0,0,0,,2,,,74,127
82349,note_off,103,0,0,,2,,,74,127
82351,note_on,2,0,0,,2,,,62,127
82454,note_off,103,0,0,,2,,,62,127
82456,note_on,2,0,0,,0,,,60,127
82559,note_off,103,0,0,,0,,,60,127
82561,note_on,2,0,0,,0,,,72,127
82664,note_off,103,0,0,,0,,,72,127
82664,note_off,0,0,0,,2,,,50,127
82666,note_on,2,0,0,,4,,,52,127
82666,note_on,0,0,0,,12,,,71,127
82769,note_off,103,0,0,,12,,,71,127
82771,note_on,2,0,0,,12,,,59,127
82874,note_off,103,0,0,,12,,,59,127
82876,note_on,2,0,0,,10,,,57,127
82979,note_off,103,0,0,,10,,,57,127
82981,note_on,2,0,0,,10,,,69,127
83084,note_off,103,0,0,,10,,,69,127
83084,note_off,0,0,0,,4,,,52,127
83086,note_on,2,0,0,,4,,,40,127
83086,note_on,0,0,0,,8,,,68,127
83400,note_off,314,0,0,,8,,,68,127
83503,note_off,103,0,0,,4,,,40,127
83505,note_on,2,0,0,,10,,,57,127
83505,note_on,0,0,0,,0,,,84,127
83608,note_off,103,0,0,,0,,,84,127
83610,note_on,2,0,0,,0,,,72,127
83713,note_off,103,0,0,,0,,,72,127
83715,note_on,2,0,0,,12,,,71,127
83818,note_off,103,0,0,,12,,,71,127
83820,note_on,2,0,0,,12,,,83,127
83923,note_off,103,0,0,,12,,,83,127
83925,note_on,2,0,0,,10,,,45,127
83925,note_on,0,0,0,,10,,,81,127
84028,note_off,103,0,0,,10,,,81,127
84030,note_on,2,0,0,,10,,,69,127
84133,note_off,103,0,0,,10,,,69,127
84135,note_on,2,0,0,,7,,,67,127
84238,note_off,103,0,0,,7,,,67,127
84240,note_on,2,0,0,,7,,,79,127
84343,note_off,103,0,0,,7,,,79,127
84343,note_off,0,0,0,,10,,,45,127
84344,note_off,1,0,0,,10,,,57,127
84345,note_on,1,0,0,,0,,,48,127
84345,note_on,0,0,0,,5,,,77,127
84448,note_off,103,0,0,,5,,,77,127
84450,note_on,2,0,0,,5,,,65,127
84553,note_off,103,0,0,,5,,,65,127
84555,note_on,2,0,0,,4,,,64,127
84658,note_off,103,0,0,,4,,,64,127
84660,note_on,2,0,0,,4,,,76,127
84763,note_off,103,0,0,,4,,,76,127
84763,note_off,0,0,0,,0,,,48,127
84765,note_on,2,0,0,,2,,,50,127
84765,note_on,0,0,0,,2,,,74,127
84868,note_off,103,0,0,,2,,,74,127
84870,note_on,2,0,0,,2,,,62,127
84973,note_off,103,0,0,,2,,,62,127
84975,note_on,2,0,0,,0,,,60,127
85078,note_off,103,0,0,,0,,,60,127
85080,note_on,2,0,0,,0,,,72,127
85183,note_off,103,0,0,,0,,,72,127
85183,note_off,0,0,0,,2,,,50,127
85185,note_on,2,0,0,,4,,,52,127
85185,note_on,0,0,0,,12,,,71,127
85288,note_off,103,0,0,,12,,,71,127
85290,note_on,2,0,0,,12,,,59,127
85393,note_off,103,0,0,,12,,,59,127
85395,note_on,2,0,0,,10,,,57,127
85498,note_off,103,0,0,,10,,,57,127
85500,note_on,2,0,0,,10,,,69,127
85603,note_off,103,0,0,,10,,,69,127
85603,note_off,0,0,0,,4,,,52,127
85605,note_on,2,0,0,,4,,,40,127
85605,note_on,0,0,0,,8,,,68,127
86022,note_off,417,0,0,,8,,,68,127
86022,note_off,0,0,0,,4,,,40,127
86024,note_on,2,0,0,,10,,,45,127
86024,note_on,0,0,0,,10,,,57,127
86024,note_on,0,0,0,,8,,,68,127
86639,note_off,615,0,0,,8,,,68,127
86639,note_on,0,0,0,,10,,,69,127
87267,note_off,628,0,0,,10,,,69,127
87302,note_off,35,0,0,,10,,,57,127
87304,note_off,2,0,0,,10,,,45,127
87529,note_on,225,0,0,,10,,,57,127
87529,note_on,0,0,0,,4,,,76,127
87529,note_on,0,0,0,,1,,,73,127
87948,note_on,419,0,0,,10,,,45,127
88260,note_off,312,0,0,,10,,,45,127
88260,note_off,0,0,0,,10,,,57,127
88262,note_on,2,0,0,,10,,,57,127
88365,note_off,103,0,0,,10,,,57,127
88365,note_off,0,0,0,,1,,,73,127
88365,note_off,0,0,0,,4,,,76,127
88367,note_on,2,0,0,,7,,,55,127
88367,note_on,0,0,0,,4,,,76,127
88367,note_on,0,0,0,,1,,,73,127
88679,note_off,312,0,0,,7,,,55,127
88681,note_on,2,0,0,,7,,,55,127
88784,note_off,103,0,0,,7,,,55,127
88784,note_off,0,0,0,,1,,,73,127
88784,note_off,0,0,0,,4,,,76,127
88786,note_on,2,0,0,,5,,,53,127
88786,note_on,0,0,0,,10,,,69,127
88786,note_on,0,0,0,,5,,,77,127
88786,note_on,0,0,0,,2,,,74,127
89098,note_off,312,0,0,,5,,,53,127
89100,note_on,2,0,0,,5,,,53,127
89203,note_off,103,0,0,,5,,,53,127
89203,note_off,0,0,0,,2,,,74,127
89203,note_off,0,0,0,,5,,,77,127
89205,note_on,2,0,0,,4,,,52,127
89205,note_on,0,0,0,,4,,,76,127
89205,note_on,0,0,0,,7,,,79,127
89517,note_off,312,0,0,,4,,,52,127
89519,note_on,2,0,0,,4,,,52,127
89622,note_off,103,0,0,,4,,,52,127
89622,note_off,0,0,0,,7,,,79,127
89622,note_off,0,0,0,,4,,,76,127
89624,note_on,2,0,0,,2,,,50,127
89624,note_on,0,0,0,,10,,,81,127
89624,note_on,0,0,0,,5,,,77,127
89936,note_off,312,0,0,,2,,,50,127
89938,note_on,2,0,0,,2,,,50,127
90041,note_off,103,0,0,,2,,,50,127
90041,note_off,0,0,0,,5,,,77,127
90041,note_off,0,0,0,,10,,,81,127
90041,note_off,0,0,0,,10,,,69,127
90043,note_on,2,0,0,,10,,,57,127
90043,note_on,0,0,0,,4,,,76,127
90043,note_on,0,0,0,,1,,,73,127
90462,note_on,419,0,0,,10,,,45,127
90774,note_off,312,0,0,,10,,,45,127
90774,note_off,0,0,0,,10,,,57,127
90776,note_on,2,0,0,,10,,,57,127
90879,note_off,103,0,0,,10,,,57,127
90879,note_off,0,0,0,,1,,,73,127
90879,note_off,0,0,0,,4,,,76,127
90881,note_on,2,0,0,,7,,,55,127
90881,note_on,0,0,0,,1,,,73,127
90881,note_on,0,0,0,,4,,,76,127
91193,note_off,312,0,0,,7,,,55,127
91195,note_on,2,0,0,,7,,,55,127
91298,note_off,103,0,0,,7,,,55,127
91298,note_off,0,0,0,,4,,,76,127
91298,note_off,0,0,0,,1,,,73,127
91300,note_on,2,0,0,,5,,,53,127
91300,note_on,0,0,0,,5,,,77,127
91300,note_on,0,0,0,,10,,,69,127
91300,note_on,0,0,0,,2,,,74,127
91612,note_off,312,0,0,,5,,,53,127
91614,note_on,2,0,0,,5,,,53,127
91717,note_off,103,0,0,,5,,,53,127
91717,note_off,0,0,0,,2,,,74,127
91717,note_off,0,0,0,,5,,,77,127
91719,note_on,2,0,0,,4,,,52,127
91719,note_on,0,0,0,,4,,,76,127
91719,note_on,0,0,0,,7,,,79,127
92031,note_off,312,0,0,,4,,,52,127
92033,note_on,2,0,0,,4,,,52,127
92136,note_off,103,0,0,,4,,,52,127
92136,note_off,0,0,0,,7,,,79,127
92136,note_off,0,0,0,,4,,,76,127
92138,note_on,2,0,0,,2,,,50,127
92138,note_on,0,0,0,,5,,,77,127
92138,note_on,0,0,0,,10,,,81,127
92450,note_off,312,0,0,,2,,,50,127
92452,note_on,2,0,0,,2,,,50,127
92555,note_off,103,0,0,,2,,,50,127
92555,note_off,0,0,0,,10,,,81,127
92555,note_off,0,0,0,,5,,,77,127
92555,note_off,0,0,0,,10,,,69,127
92557,note_on,2,0,0,,10,,,45,127
92557,note_on,0,0,0,,4,,,76,127
92660,note_off,103,0,0,,4,,,76,127
92662,note_on,2,0,0,,10,,,81,127
92765,note_off,103,0,0,,10,,,81,127
92767,note_on,2,0,0,,7,,,79,127
92870,note_off,103,0,0,,7,,,79,127
92872,note_on,2,0,0,,5,,,77,127
92975,note_off,103,0,0,,5,,,77,127
92977,note_on,2,0,0,,4,,,76,127
93080,note_off,103,0,0,,4,,,76,127
93082,note_on,2,0,0,,2,,,74,127
93185,note_off,103,0,0,,2,,,74,127
93187,note_on,2,0,0,,1,,,73,127
93290,note_off,103,0,0,,1,,,73,127
93292,note_on,2,0,0,,11,,,70,127
93395,note_off,103,0,0,,11,,,70,127
93396,note_off,1,0,0,,10,,,45,127
93397,note_on,1,0,0,,10,,,69,127
93500,note_off,103,0,0,,10,,,69,127
93502,note_on,2,0,0,,7,,,67,127
93605,note_off,103,0,0,,7,,,67,127
93607,note_on,2,0,0,,5,,,65,127
93710,note_off,103,0,0,,5,,,65,127
93712,note_on,2,0,0,,4,,,64,127
93815,note_off,103,0,0,,4,,,64,127
93817,note_on,2,0,0,,2,,,38,127
93817,note_on,0,0,0,,2,,,62,127
93920,note_off,103,0,0,,2,,,38,127
93922,note_on,2,0,0,,5,,,41,127
94025,note_off,103,0,0,,5,,,41,127
94027,note_on,2,0,0,,10,,,45,127
94130,note_off,103,0,0,,10,,,45,127
94132,note_on,2,0,0,,2,,,50,127
94235,note_off,103,0,0,,2,,,50,127
94235,note_off,0,0,0,,2,,,62,127
94237,note_on,2,0,0,,2,,,50,127
94237,note_on,0,0,0,,5,,,77,127
94340,note_off,103,0,0,,2,,,50,127
94342,note_on,2,0,0,,5,,,53,127
94445,note_off,103,0,0,,5,,,53,127
94447,note_on,2,0,0,,10,,,57,127
94550,note_off,103,0,0,,10,,,57,127
94552,note_on,2,0,0,,2,,,62,127
94655,note_off,103,0,0,,2,,,62,127
94657,note_on,2,0,0,,2,,,38,127
94760,note_off,103,0,0,,5,,,77,127
94762,note_on,2,0,0,,2,,,74,127
94865,note_off,103,0,0,,2,,,74,127
94867,note_on,2,0,0,,1,,,73,127
94970,note_off,103,0,0,,1,,,73,127
94972,note_on,2,0,0,,2,,,74,127
95075,note_off,103,0,0,,2,,,74,127
95075,note_off,0,0,0,,2,,,38,127
95077,note_on,2,0,0,,10,,,45,127
95077,note_on,0,0,0,,2,,,74,127
95180,note_off,103,0,0,,10,,,45,127
95182,note_on,2,0,0,,1,,,49,127
95285,note_off,103,0,0,,1,,,49,127
95287,note_on,2,0,0,,4,,,52,127
95390,note_off,103,0,0,,4,,,52,127
95392,note_on,2,0,0,,10,,,57,127
95495,note_off,103,0,0,,10,,,57,127
95495,note_off,0,0,0,,2,,,74,127
95497,note_on,2,0,0,,10,,,57,127
95497,note_on,0,0,0,,4,,,76,127
95600,note_off,103,0,0,,10,,,57,127
95602,note_on,2,0,0,,1,,,61,127
95705,note_off,103,0,0,,1,,,61,127
95707,note_on,2,0,0,,4,,,64,127
95810,note_off,103,0,0,,4,,,64,127
95812,note_on,2,0,0,,10,,,69,127
95915,note_off,103,0,0,,10,,,69,127
95917,note_on,2,0,0,,10,,,45,127
96020,note_off,103,0,0,,4,,,76,127
96022,note_on,2,0,0,,7,,,79,127
96125,note_off,103,0,0,,7,,,79,127
96127,note_on,2,0,0,,5,,,77,127
96230,note_off,103,0,0,,5,,,77,127
96232,note_on,2,0,0,,4,,,76,127
96335,note_off,103,0,0,,4,,,76,127
96335,note_off,0,0,0,,10,,,45,127
96337,note_on,2,0,0,,2,,,38,127
96337,note_on,0,0,0,,4,,,76,127
96440,note_off,103,0,0,,2,,,38,127
96442,note_on,2,0,0,,5,,,41,127
96545,note_off,103,0,0,,5,,,41,127
96547,note_on,2,0,0,,10,,,45,127
96650,note_off,103,0,0,,10,,,45,127
96652,note_on,2,0,0,,2,,,50,127
96755,note_off,103,0,0,,2,,,50,127
96755,note_off,0,0,0,,4,,,76,127
96757,note_on,2,0,0,,2,,,50,127
96757,note_on,0,0,0,,5,,,77,127
96860,note_off,103,0,0,,2,,,50,127
96862,note_on,2,0,0,,5,,,53,127
96965,note_off,103,0,0,,5,,,53,127
96967,note_on,2,0,0,,10,,,57,127
97070,note_off,103,0,0,,10,,,57,127
97072,note_on,2,0,0,,2,,,62,127
97175,note_off,103,0,0,,2,,,62,127
97177,note_on,2,0,0,,2,,,38,127
97280,note_off,103,0,0,,5,,,77,127
97282,note_on,2,0,0,,2,,,74,127
97385,note_off,103,0,0,,2,,,74,127
97387,note_on,2,0,0,,1,,,73,127
97490,note_off,103,0,0,,1,,,73,127
97492,note_on,2,0,0,,2,,,74,127
97595,note_off,103,0,0,,2,,,74,127
97595,note_off,0,0,0,,2,,,38,127
97597,note_on,2,0,0,,10,,,45,127
97597,note_on,0,0,0,,2,,,74,127
97700,note_off,103,0,0,,10,,,45,127
97702,note_on,2,0,0,,1,,,49,127
97805,note_off,103,0,0,,1,,,49,127
97807,note_on,2,0,0,,4,,,52,127
97910,note_off,103,0,0,,4,,,52,127
97912,note_on,2,0,0,,10,,,57,127
98015,note_off,103,0,0,,10,,,57,127
98015,note_off,0,0,0,,2,,,74,127
98017,note_on,2,0,0,,10,,,57,127
98017,note_on,0,0,0,,4,,,76,127
98120,note_off,103,0,0,,10,,,57,127
98122,note_on,2,0,0,,1,,,61,127
98225,note_off,103,0,0,,1,,,61,127
98227,note_on,2,0,0,,4,,,64,127
98330,note_off,103,0,0,,4,,,64,127
98332,note_on,2,0,0,,10,,,69,127
98435,note_off,103,0,0,,10,,,69,127
98437,note_on,2,0,0,,10,,,45,127
98540,note_off,103,0,0,,4,,,76,127
98542,note_on,2,0,0,,7,,,79,127
98645,note_off,103,0,0,,7,,,79,127
98647,note_on,2,0,0,,5,,,77,127
98750,note_off,103,0,0,,5,,,77,127
98752,note_off,2,0,0,,10,,,45,127
98752,note_on,0,0,0,,4,,,76,127
98855,note_off,103,0,0,,4,,,76,127
98857,note_on,2,0,0,,2,,,50,127
98857,note_on,0,0,0,,10,,,81,127
98960,note_off,103,0,0,,2,,,50,127
98962,note_on,2,0,0,,6,,,54,127
99065,note_off,103,0,0,,6,,,54,127
99067,note_on,2,0,0,,10,,,57,127
99170,note_off,103,0,0,,10,,,57,127
99172,note_on,2,0,0,,2,,,62,127
99275,note_off,103,0,0,,2,,,62,127
99277,note_on,2,0,0,,2,,,62,127
99380,note_off,103,0,0,,2,,,62,127
99382,note_on,2,0,0,,6,,,66,127
99485,note_off,103,0,0,,6,,,66,127
99487,note_on,2,0,0,,10,,,69,127
99590,note_off,103,0,0,,10,,,69,127
99592,note_on,2,0,0,,2,,,74,127
99695,note_off,103,0,0,,2,,,74,127
99697,note_on,2,0,0,,2,,,50,127
99800,note_off,103,0,0,,10,,,81,127
99802,note_on,2,0,0,,0,,,84,127
99905,note_off,103,0,0,,0,,,84,127
99907,note_on,2,0,0,,11,,,82,127
100010,note_off,103,0,0,,11,,,82,127
100012,note_on,2,0,0,,10,,,81,127
100115,note_off,103,0,0,,10,,,81,127
100115,note_off,0,0,0,,2,,,50,127
100117,note_on,2,0,0,,7,,,43,127
100117,note_on,0,0,0,,10,,,81,127
100220,note_off,103,0,0,,7,,,43,127
100222,note_on,2,0,0,,11,,,46,127
100325,note_off,103,0,0,,11,,,46,127
100327,note_on,2,0,0,,2,,,50,127
100430,note_off,103,0,0,,2,,,50,127
100432,note_on,2,0,0,,7,,,55,127
100535,note_off,103,0,0,,7,,,55,127
100535,note_off,0,0,0,,10,,,81,127
100537,note_on,2,0,0,,7,,,55,127
100537,note_on,0,0,0,,11,,,82,127
100640,note_off,103,0,0,,7,,,55,127
100642,note_on,2,0,0,,11,,,58,127
100745,note_off,103,0,0,,11,,,58,127
100747,note_on,2,0,0,,2,,,62,127
100850,note_off,103,0,0,,2,,,62,127
100852,note_on,2,0,0,,7,,,67,127
100955,note_off,103,0,0,,7,,,67,127
100957,note_on,2,0,0,,7,,,43,127
101060,note_off,103,0,0,,11,,,82,127
101062,note_on,2,0,0,,11,,,82,127
101165,note_off,103,0,0,,11,,,82,127
101167,note_on,2,0,0,,10,,,81,127
101270,note_off,103,0,0,,10,,,81,127
101272,note_on,2,0,0,,7,,,79,127
101375,note_off,103,0,0,,7,,,79,127
101375,note_off,0,0,0,,7,,,43,127
101377,note_on,2,0,0,,2,,,50,127
101377,note_on,0,0,0,,7,,,79,127
101480,note_off,103,0,0,,2,,,50,127
101482,note_on,2,0,0,,6,,,54,127
101585,note_off,103,0,0,,6,,,54,127
101587,note_on,2,0,0,,10,,,57,127
101690,note_off,103,0,0,,10,,,57,127
101692,note_on,2,0,0,,2,,,62,127
101795,note_off,103,0,0,,2,,,62,127
101795,note_off,0,0,0,,7,,,79,127
101797,note_on,2,0,0,,2,,,62,127
101797,note_on,0,0,0,,10,,,81,127
101900,note_off,103,0,0,,2,,,62,127
101902,note_on,2,0,0,,6,,,66,127
102005,note_off,103,0,0,,6,,,66,127
102007,note_on,2,0,0,,10,,,69,127
102110,note_off,103,0,0,,10,,,69,127
102112,note_on,2,0,0,,2,,,74,127
102215,note_off,103,0,0,,2,,,74,127
102217,note_on,2,0,0,,2,,,50,127
102320,note_off,103,0,0,,10,,,81,127
102322,note_on,2,0,0,,0,,,84,127
102425,note_off,103,0,0,,0,,,84,127
102427,note_on,2,0,0,,11,,,82,127
102530,note_off,103,0,0,,11,,,82,127
102532,note_on,2,0,0,,10,,,81,127
102635,note_off,103,0,0,,10,,,81,127
102635,note_off,0,0,0,,2,,,50,127
102637,note_on,2,0,0,,7,,,55,127
102637,note_on,0,0,0,,11,,,82,127
102742,note_on,105,0,0,,2,,,74,127
102845,note_off,103,0,0,,2,,,74,127
102847,note_on,2,0,0,,7,,,79,127
102950,note_off,103,0,0,,7,,,79,127
102952,note_off,2,0,0,,11,,,82,127
102952,note_on,0,0,0,,10,,,81,127
103055,note_off,103,0,0,,10,,,81,127
103057,note_on,2,0,0,,7,,,43,127
103057,note_on,0,0,0,,11,,,82,127
103160,note_off,103,0,0,,11,,,82,127
103162,note_on,2,0,0,,0,,,84,127
103265,note_off,103,0,0,,0,,,84,127
103267,note_on,2,0,0,,2,,,86,127
103370,note_off,103,0,0,,2,,,86,127
103372,note_on,2,0,0,,0,,,84,127
103475,note_off,103,0,0,,0,,,84,127
103475,note_off,0,0,0,,7,,,43,127
103476,note_off,1,0,0,,7,,,55,127
103477,note_on,1,0,0,,11,,,46,127
103477,note_on,0,0,0,,11,,,82,127
103580,note_off,103,0,0,,11,,,82,127
103582,note_on,2,0,0,,10,,,81,127
103685,note_off,103,0,0,,10,,,81,127
103687,note_on,2,0,0,,7,,,79,127
103790,note_off,103,0,0,,7,,,79,127
103792,note_on,2,0,0,,5,,,77,127
103895,note_off,103,0,0,,5,,,77,127
103895,note_off,0,0,0,,11,,,46,127
103897,note_on,2,0,0,,0,,,60,127
103897,note_on,0,0,0,,4,,,76,127
104002,note_on,105,0,0,,7,,,67,127
104105,note_off,103,0,0,,7,,,67,127
104107,note_on,2,0,0,,0,,,72,127
104210,note_off,103,0,0,,0,,,72,127
104212,note_on,2,0,0,,2,,,74,127
104312,note_off,100,0,0,,4,,,76,127
104314,note_off,2,0,0,,2,,,74,127
104316,note_on,2,0,0,,0,,,48,127
104316,note_on,0,0,0,,4,,,76,127
104419,note_off,103,0,0,,4,,,76,127
104421,note_on,2,0,0,,5,,,77,127
104524,note_off,103,0,0,,5,,,77,127
104526,note_on,2,0,0,,7,,,79,127
104629,note_off,103,0,0,,7,,,79,127
104631,note_on,2,0,0,,5,,,77,127
104734,note_off,103,0,0,,5,,,77,127
104734,note_off,0,0,0,,0,,,48,127
104735,note_off,1,0,0,,0,,,60,127
104736,note_on,1,0,0,,4,,,52,127
104736,note_on,0,0,0,,4,,,76,127
104839,note_off,103,0,0,,4,,,76,127
104841,note_on,2,0,0,,2,,,74,127
104944,note_off,103,0,0,,2,,,74,127
104946,note_on,2,0,0,,0,,,72,127
105049,note_off,103,0,0,,0,,,72,127
105051,note_on,2,0,0,,11,,,70,127
105154,note_off,103,0,0,,11,,,70,127
105154,note_off,0,0,0,,4,,,52,127
105156,note_on,2,0,0,,5,,,53,127
105156,note_on,0,0,0,,10,,,69,127
105261,note_on,105,0,0,,0,,,60,127
105364,note_off,103,0,0,,0,,,60,127
105366,note_on,2,0,0,,5,,,65,127
105469,note_off,103,0,0,,5,,,65,127
105471,note_off,2,0,0,,10,,,69,127
105471,note_on,0,0,0,,7,,,67,127
105574,note_off,103,0,0,,7,,,67,127
105576,note_on,2,0,0,,5,,,41,127
105576,note_on,0,0,0,,10,,,69,127
105679,note_off,103,0,0,,10,,,69,127
105681,note_on,2,0,0,,11,,,70,127
105784,note_off,103,0,0,,11,,,70,127
105786,note_on,2,0,0,,0,,,72,127
105889,note_off,103,0,0,,0,,,72,127
105891,note_on,2,0,0,,11,,,70,127
105994,note_off,103,0,0,,11,,,70,127
105994,note_off,0,0,0,,5,,,41,127
105995,note_off,1,0,0,,5,,,53,127
105996,note_on,1,0,0,,10,,,45,127
105996,note_on,0,0,0,,10,,,69,127
106099,note_off,103,0,0,,10,,,69,127
106101,note_on,2,0,0,,7,,,67,127
106204,note_off,103,0,0,,7,,,67,127
106206,note_on,2,0,0,,5,,,65,127
106309,note_off,103,0,0,,5,,,65,127
106311,note_on,2,0,0,,3,,,63,127
106414,note_off,103,0,0,,3,,,63,127
106414,note_off,0,0,0,,10,,,45,127
106416,note_on,2,0,0,,11,,,46,127
106416,note_on,0,0,0,,2,,,62,127
106833,note_off,417,0,0,,2,,,62,127
106833,note_off,0,0,0,,11,,,46,127
106835,note_on,2,0,0,,11,,,58,127
106835,note_on,0,0,0,,2,,,62,127
107042,note_off,207,0,0,,2,,,62,127
107044,note_on,2,0,0,,0,,,60,127
107140,note_off,96,0,0,,11,,,58,127
107147,note_off,7,0,0,,0,,,60,127
107149,note_on,2,0,0,,11,,,58,127
107252,note_off,103,0,0,,11,,,58,127
107254,note_on,2,0,0,,4,,,52,127
107254,note_on,0,0,0,,11,,,70,127
107254,note_on,0,0,0,,2,,,62,127
107461,note_off,207,0,0,,2,,,62,127
107463,note_on,2,0,0,,0,,,60,127
107566,note_off,103,0,0,,0,,,60,127
107568,note_on,2,0,0,,11,,,58,127
107671,note_off,103,0,0,,11,,,58,127
107671,note_off,0,0,0,,4,,,52,127
107673,note_on,2,0,0,,5,,,41,127
107673,note_on,0,0,0,,0,,,60,127
107881,note_off,208,0,0,,11,,,70,127
107882,note_on,1,0,0,,0,,,72,127
107985,note_off,103,0,0,,0,,,72,127
107987,note_on,2,0,0,,11,,,70,127
108087,note_off,100,0,0,,0,,,60,127
108089,note_off,2,0,0,,11,,,70,127
108089,note_off,0,0,0,,5,,,41,127
108091,note_on,2,0,0,,5,,,53,127
108091,note_on,0,0,0,,10,,,69,127
108298,note_off,207,0,0,,10,,,69,127
108300,note_on,2,0,0,,7,,,67,127
108403,note_off,103,0,0,,7,,,67,127
108405,note_on,2,0,0,,5,,,65,127
108508,note_off,103,0,0,,5,,,65,127
108508,note_off,0,0,0,,5,,,53,127
108510,note_on,2,0,0,,12,,,47,127
108510,note_on,0,0,0,,10,,,69,127
108510,note_on,0,0,0,,5,,,65,127
108717,note_off,207,0,0,,10,,,69,127
108719,note_on,2,0,0,,7,,,67,127
108815,note_off,96,0,0,,5,,,65,127
108822,note_off,7,0,0,,7,,,67,127
108824,note_on,2,0,0,,5,,,65,127
108927,note_off,103,0,0,,12,,,47,127
108929,note_on,2,0,0,,0,,,48,127
109136,note_off,207,0,0,,5,,,65,127
109138,note_on,2,0,0,,7,,,67,127
109241,note_off,103,0,0,,7,,,67,127
109243,note_on,2,0,0,,5,,,65,127
109346,note_off,103,0,0,,5,,,65,127
109346,note_off,0,0,0,,0,,,48,127
109348,note_on,2,0,0,,0,,,60,127
109348,note_on,0,0,0,,3,,,63,127
109555,note_off,207,0,0,,3,,,63,127
109557,note_on,2,0,0,,2,,,62,127
109653,note_off,96,0,0,,0,,,60,127
109660,note_off,7,0,0,,2,,,62,127
109662,note_on,2,0,0,,0,,,60,127
109765,note_off,103,0,0,,0,,,60,127
109767,note_on,2,0,0,,6,,,54,127
109767,note_on,0,0,0,,3,,,63,127
109767,note_on,0,0,0,,0,,,72,127
109974,note_off,207,0,0,,3,,,63,127
109976,note_on,2,0,0,,2,,,62,127
110079,note_off,103,0,0,,2,,,62,127
110081,note_on,2,0,0,,0,,,60,127
110184,note_off,103,0,0,,0,,,60,127
110184,note_off,0,0,0,,6,,,54,127
110186,note_on,2,0,0,,7,,,43,127
110186,note_on,0,0,0,,2,,,62,127
110393,note_off,207,0,0,,2,,,62,127
110394,note_off,1,0,0,,0,,,72,127
110395,note_on,1,0,0,,2,,,74,127
110498,note_off,103,0,0,,2,,,74,127
110500,note_on,2,0,0,,0,,,72,127
110603,note_off,103,0,0,,0,,,72,127
110603,note_off,0,0,0,,7,,,43,127
110605,note_on,2,0,0,,7,,,55,127
110605,note_on,0,0,0,,11,,,70,127
110812,note_off,207,0,0,,11,,,70,127
110814,note_on,2,0,0,,10,,,69,127
110917,note_off,103,0,0,,10,,,69,127
110919,note_on,2,0,0,,7,,,67,127
111022,note_off,103,0,0,,7,,,67,127
111022,note_off,0,0,0,,7,,,55,127
111024,note_on,2,0,0,,1,,,49,127
111024,note_on,0,0,0,,11,,,70,127
111024,note_on,0,0,0,,7,,,67,127
111231,note_off,207,0,0,,11,,,70,127
111233,note_on,2,0,0,,10,,,69,127
111329,note_off,96,0,0,,7,,,67,127
111336,note_off,7,0,0,,10,,,69,127
111338,note_on,2,0,0,,7,,,67,127
111441,note_off,103,0,0,,1,,,49,127
111443,note_on,2,0,0,,2,,,50,127
111650,note_off,207,0,0,,7,,,67,127
111652,note_on,2,0,0,,10,,,69,127
111755,note_off,103,0,0,,10,,,69,127
111757,note_on,2,0,0,,7,,,67,127
111860,note_off,103,0,0,,7,,,67,127
111860,note_off,0,0,0,,2,,,50,127
111862,note_on,2,0,0,,2,,,62,127
111862,note_on,0,0,0,,5,,,65,127
112069,note_off,207,0,0,,5,,,65,127
112071,note_on,2,0,0,,4,,,64,127
112167,note_off,96,0,0,,2,,,62,127
112174,note_off,7,0,0,,4,,,64,127
112176,note_on,2,0,0,,2,,,62,127
112279,note_off,103,0,0,,2,,,62,127
112281,note_on,2,0,0,,8,,,56,127
112281,note_on,0,0,0,,5,,,65,127
112281,note_on,0,0,0,,2,,,74,127
112488,note_off,207,0,0,,5,,,65,127
112490,note_on,2,0,0,,4,,,64,127
112593,note_off,103,0,0,,4,,,64,127
112595,note_on,2,0,0,,2,,,62,127
112698,note_off,103,0,0,,2,,,62,127
112698,note_off,0,0,0,,8,,,56,127
112700,note_on,2,0,0,,10,,,57,127
112700,note_on,0,0,0,,4,,,64,127
112907,note_off,207,0,0,,4,,,64,127
112908,note_off,1,0,0,,2,,,74,127
112909,note_on,1,0,0,,4,,,76,127
113012,note_off,103,0,0,,4,,,76,127
113014,note_on,2,0,0,,2,,,74,127
113117,note_off,103,0,0,,2,,,74,127
113119,note_on,2,0,0,,10,,,45,127
113119,note_on,0,0,0,,1,,,73,127
113326,note_off,207,0,0,,1,,,73,127
113328,note_on,2,0,0,,11,,,70,127
113535,note_off,207,0,0,,11,,,70,127
113535,note_off,0,0,0,,10,,,45,127
113536,note_off,1,0,0,,10,,,57,127
113537,note_on,1,0,0,,10,,,57,127
113537,note_on,0,0,0,,10,,,69,127
113744,note_off,207,0,0,,10,,,69,127
113746,note_on,2,0,0,,7,,,67,127
113953,note_off,207,0,0,,7,,,67,127
113953,note_off,0,0,0,,10,,,57,127
113955,note_on,2,0,0,,2,,,62,127
113955,note_on,0,0,0,,6,,,66,127
114164,note_on,209,0,0,,2,,,50,127
114369,note_off,205,0,0,,2,,,62,127
114371,note_off,2,0,0,,6,,,66,127
114373,note_on,2,0,0,,0,,,60,127
114373,note_on,0,0,0,,6,,,66,127
114373,note_on,0,0,0,,3,,,75,127
114580,note_off,207,0,0,,0,,,60,127
114582,note_on,2,0,0,,11,,,58,127
114685,note_off,103,0,0,,11,,,58,127
114687,note_on,2,0,0,,10,,,57,127
114790,note_off,103,0,0,,10,,,57,127
114790,note_off,0,0,0,,3,,,75,127
114790,note_off,0,0,0,,6,,,66,127
114791,note_off,1,0,0,,2,,,50,127
114792,note_on,1,0,0,,2,,,50,127
114792,note_on,0,0,0,,11,,,58,127
114792,note_on,0,0,0,,7,,,67,127
114792,note_on,0,0,0,,2,,,74,127
114999,note_off,207,0,0,,11,,,58,127
115001,note_on,2,0,0,,10,,,57,127
115104,note_off,103,0,0,,10,,,57,127
115106,note_on,2,0,0,,7,,,55,127
115206,note_off,100,0,0,,2,,,50,127
115208,note_off,2,0,0,,7,,,55,127
115208,note_off,0,0,0,,2,,,74,127
115208,note_off,0,0,0,,7,,,67,127
115210,note_on,2,0,0,,10,,,57,127
115210,note_on,0,0,0,,2,,,50,127
115210,note_on,0,0,0,,0,,,72,127
115417,note_off,207,0,0,,10,,,57,127
115419,note_on,2,0,0,,7,,,55,127
115522,note_off,103,0,0,,7,,,55,127
115524,note_on,2,0,0,,6,,,54,127
115624,note_off,100,0,0,,2,,,50,127
115626,note_off,2,0,0,,6,,,54,127
115626,note_off,0,0,0,,0,,,72,127
115628,note_on,2,0,0,,7,,,55,127
115628,note_on,0,0,0,,2,,,50,127
115628,note_on,0,0,0,,0,,,72,127
115731,note_off,103,0,0,,0,,,72,127
115733,note_on,2,0,0,,11,,,70,127
115836,note_off,103,0,0,,11,,,70,127
115838,note_on,2,0,0,,10,,,69,127
115941,note_off,103,0,0,,10,,,69,127
115943,note_on,2,0,0,,7,,,67,127
116046,note_off,103,0,0,,7,,,67,127
116046,note_off,0,0,0,,2,,,50,127
116046,note_off,0,0,0,,7,,,55,127
116048,note_on,2,0,0,,6,,,54,127
116048,note_on,0,0,0,,2,,,50,127
116048,note_on,0,0,0,,10,,,57,127
116048,note_on,0,0,0,,10,,,69,127
116255,note_off,207,0,0,,10,,,69,127
116257,note_on,2,0,0,,11,,,70,127
116360,note_off,103,0,0,,11,,,70,127
116362,note_on,2,0,0,,0,,,72,127
116465,note_off,103,0,0,,0,,,72,127
116465,note_off,0,0,0,,10,,,57,127
116465,note_off,0,0,0,,2,,,50,127
116465,note_off,0,0,0,,6,,,54,127
116467,note_on,2,0,0,,7,,,43,127
116467,note_on,0,0,0,,7,,,55,127
116467,note_on,0,0,0,,11,,,70,127
116674,note_off,207,0,0,,11,,,70,127
116676,note_on,2,0,0,,10,,,69,127
116779,note_off,103,0,0,,10,,,69,127
116781,note_on,2,0,0,,7,,,67,127
116884,note_off,103,0,0,,7,,,67,127
116884,note_off,0,0,0,,7,,,55,127
116884,note_off,0,0,0,,7,,,43,127
116886,note_on,2,0,0,,8,,,56,127
116886,note_on,0,0,0,,0,,,48,127
116886,note_on,0,0,0,,5,,,65,127
116886,note_on,0,0,0,,5,,,77,127
117093,note_off,207,0,0,,8,,,56,127
117095,note_on,2,0,0,,7,,,55,127
117198,note_off,103,0,0,,7,,,55,127
117200,note_on,2,0,0,,5,,,53,127
117300,note_off,100,0,0,,0,,,48,127
117302,note_off,2,0,0,,5,,,53,127
117302,note_off,0,0,0,,5,,,77,127
117302,note_off,0,0,0,,5,,,65,127
117304,note_on,2,0,0,,0,,,48,127
117304,note_on,0,0,0,,8,,,56,127
117304,note_on,0,0,0,,8,,,68,127
117304,note_on,0,0,0,,5,,,77,127
117511,note_off,207,0,0,,8,,,56,127
117513,note_on,2,0,0,,7,,,55,127
117616,note_off,103,0,0,,7,,,55,127
117618,note_on,2,0,0,,5,,,53,127
117718,note_off,100,0,0,,0,,,48,127
117720,note_off,2,0,0,,5,,,53,127
117720,note_off,0,0,0,,8,,,68,127
117722,note_on,2,0,0,,12,,,47,127
117722,note_on,0,0,0,,7,,,55,127
117722,note_on,0,0,0,,7,,,67,127
117930,note_off,208,0,0,,5,,,77,127
117931,note_on,1,0,0,,3,,,75,127
118034,note_off,103,0,0,,3,,,75,127
118036,note_on,2,0,0,,2,,,74,127
118136,note_off,100,0,0,,7,,,67,127
118138,note_off,2,0,0,,2,,,74,127
118138,note_off,0,0,0,,7,,,55,127
118138,note_off,0,0,0,,12,,,47,127
118140,note_on,2,0,0,,0,,,48,127
118140,note_on,0,0,0,,7,,,55,127
118140,note_on,0,0,0,,3,,,75,127
118140,note_on,0,0,0,,7,,,67,127
118347,note_off,207,0,0,,3,,,75,127
118349,note_on,2,0,0,,2,,,74,127
118452,note_off,103,0,0,,2,,,74,127
118454,note_on,2,0,0,,0,,,72,127
118554,note_off,100,0,0,,7,,,67,127
118556,note_off,2,0,0,,0,,,72,127
118556,note_off,0,0,0,,7,,,55,127
118556,note_off,0,0,0,,0,,,48,127
118558,note_on,2,0,0,,7,,,43,127
118558,note_on,0,0,0,,7,,,55,127
118558,note_on,0,0,0,,7,,,67,127
118558,note_on,0,0,0,,2,,,74,127
118765,note_off,207,0,0,,2,,,74,127
118767,note_on,2,0,0,,3,,,75,127
118870,note_off,103,0,0,,3,,,75,127
118872,note_on,2,0,0,,5,,,77,127
118972,note_off,100,0,0,,7,,,67,127
118974,note_off,2,0,0,,5,,,77,127
118974,note_off,0,0,0,,7,,,55,127
118974,note_off,0,0,0,,7,,,43,127
118976,note_on,2,0,0,,7,,,55,127
118976,note_on,0,0,0,,0,,,48,127
118976,note_on,0,0,0,,3,,,75,127
118976,note_on,0,0,0,,7,,,67,127
119183,note_off,207,0,0,,3,,,75,127
119185,note_on,2,0,0,,2,,,74,127
119288,note_off,103,0,0,,2,,,74,127
119290,note_on,2,0,0,,0,,,72,127
119390,note_off,100,0,0,,7,,,67,127
119392,note_off,2,0,0,,0,,,72,127
119392,note_off,0,0,0,,0,,,48,127
119392,note_off,0,0,0,,7,,,55,127
119394,note_on,2,0,0,,11,,,46,127
119394,note_on,0,0,0,,6,,,54,127
119394,note_on,0,0,0,,3,,,75,127
119394,note_on,0,0,0,,3,,,63,127
119601,note_off,207,0,0,,6,,,54,127
119603,note_on,2,0,0,,5,,,53,127
119706,note_off,103,0,0,,5,,,53,127
119708,note_on,2,0,0,,3,,,51,127
119808,note_off,100,0,0,,11,,,46,127
119810,note_off,2,0,0,,3,,,51,127
119810,note_off,0,0,0,,3,,,63,127
119810,note_off,0,0,0,,3,,,75,127
119812,note_on,2,0,0,,11,,,46,127
119812,note_on,0,0,0,,6,,,54,127
119812,note_on,0,0,0,,3,,,75,127
119812,note_on,0,0,0,,6,,,66,127
120019,note_off,207,0,0,,6,,,54,127
120021,note_on,2,0,0,,5,,,53,127
120124,note_off,103,0,0,,5,,,53,127
120126,note_on,2,0,0,,3,,,51,127
120226,note_off,100,0,0,,11,,,46,127
120228,note_off,2,0,0,,3,,,51,127
120228,note_off,0,0,0,,6,,,66,127
120230,note_on,2,0,0,,10,,,45,127
120230,note_on,0,0,0,,5,,,53,127
120230,note_on,0,0,0,,5,,,65,127
120438,note_off,208,0,0,,3,,,75,127
120439,note_on,1,0,0,,1,,,73,127
120542,note_off,103,0,0,,1,,,73,127
120544,note_on,2,0,0,,0,,,72,127
120644,note_off,100,0,0,,5,,,65,127
120646,note_off,2,0,0,,0,,,72,127
120646,note_off,0,0,0,,5,,,53,127
120646,note_off,0,0,0,,10,,,45,127
120648,note_on,2,0,0,,5,,,53,127
120648,note_on,0,0,0,,11,,,46,127
120648,note_on,0,0,0,,5,,,65,127
120648,note_on,0,0,0,,1,,,73,127
120855,note_off,207,0,0,,1,,,73,127
120857,note_on,2,0,0,,0,,,72,127
120960,note_off,103,0,0,,0,,,72,127
120962,note_on,2,0,0,,11,,,70,127
121062,note_off,100,0,0,,5,,,65,127
121064,note_off,2,0,0,,11,,,70,127
121064,note_off,0,0,0,,11,,,46,127
121064,note_off,0,0,0,,5,,,53,127
121066,note_on,2,0,0,,5,,,41,127
121066,note_on,0,0,0,,5,,,53,127
121066,note_on,0,0,0,,5,,,65,127
121066,note_on,0,0,0,,0,,,72,127
121273,note_off,207,0,0,,0,,,72,127
121275,note_on,2,0,0,,1,,,73,127
121378,note_off,103,0,0,,1,,,73,127
121380,note_on,2,0,0,,3,,,75,127
121480,note_off,100,0,0,,5,,,65,127
121482,note_off,2,0,0,,3,,,75,127
121482,note_off,0,0,0,,5,,,53,127
121482,note_off,0,0,0,,5,,,41,127
121484,note_on,2,0,0,,11,,,46,127
121484,note_on,0,0,0,,5,,,53,127
121484,note_on,0,0,0,,5,,,65,127
121484,note_on,0,0,0,,1,,,73,127
121691,note_off,207,0,0,,1,,,73,127
121693,note_on,2,0,0,,0,,,72,127
121796,note_off,103,0,0,,0,,,72,127
121798,note_on,2,0,0,,11,,,70,127
121898,note_off,100,0,0,,5,,,65,127
121900,note_off,2,0,0,,11,,,70,127
121900,note_off,0,0,0,,5,,,53,127
121900,note_off,0,0,0,,11,,,46,127
121902,note_on,2,0,0,,5,,,53,127
121902,note_on,0,0,0,,8,,,44,127
121902,note_on,0,0,0,,1,,,73,127
121902,note_on,0,0,0,,1,,,61,127
122109,note_off,207,0,0,,5,,,53,127
122111,note_on,2,0,0,,3,,,51,127
122214,note_off,103,0,0,,3,,,51,127
122216,note_on,2,0,0,,1,,,49,127
122316,note_off,100,0,0,,8,,,44,127
122318,note_off,2,0,0,,1,,,49,127
122318,note_off,0,0,0,,1,,,61,127
122318,note_off,0,0,0,,1,,,73,127
122320,note_on,2,0,0,,5,,,53,127
122320,note_on,0,0,0,,8,,,44,127
122320,note_on,0,0,0,,5,,,65,127
122320,note_on,0,0,0,,1,,,73,127
122527,note_off,207,0,0,,5,,,53,127
122529,note_on,2,0,0,,3,,,51,127
122632,note_off,103,0,0,,3,,,51,127
122634,note_on,2,0,0,,1,,,49,127
122734,note_off,100,0,0,,8,,,44,127
122736,note_off,2,0,0,,1,,,49,127
122736,note_off,0,0,0,,5,,,65,127
122738,note_on,2,0,0,,7,,,43,127
122738,note_on,0,0,0,,3,,,51,127
122738,note_on,0,0,0,,3,,,63,127
122946,note_off,208,0,0,,1,,,73,127
122947,note_on,1,0,0,,0,,,72,127
123050,note_off,103,0,0,,0,,,72,127
123052,note_on,2,0,0,,11,,,70,127
123152,note_off,100,0,0,,3,,,63,127
123154,note_off,2,0,0,,11,,,70,127
123154,note_off,0,0,0,,3,,,51,127
123154,note_off,0,0,0,,7,,,43,127
123156,note_on,2,0,0,,3,,,51,127
123156,note_on,0,0,0,,8,,,44,127
123156,note_on,0,0,0,,0,,,72,127
123156,note_on,0,0,0,,3,,,63,127
123363,note_off,207,0,0,,0,,,72,127
123365,note_on,2,0,0,,11,,,70,127
123468,note_off,103,0,0,,11,,,70,127
123470,note_on,2,0,0,,8,,,68,127
123570,note_off,100,0,0,,3,,,63,127
123572,note_off,2,0,0,,8,,,68,127
123572,note_off,0,0,0,,8,,,44,127
123572,note_off,0,0,0,,3,,,51,127
123574,note_on,2,0,0,,3,,,39,127
123574,note_on,0,0,0,,3,,,51,127
123574,note_on,0,0,0,,11,,,70,127
123574,note_on,0,0,0,,3,,,63,127
123781,note_off,207,0,0,,11,,,70,127
123783,note_on,2,0,0,,0,,,72,127
123886,note_off,103,0,0,,0,,,72,127
123888,note_on,2,0,0,,1,,,73,127
123988,note_off,100,0,0,,3,,,63,127
123990,note_off,2,0,0,,1,,,73,127
123990,note_off,0,0,0,,3,,,51,127
123990,note_off,0,0,0,,3,,,39,127
123992,note_on,2,0,0,,8,,,44,127
123992,note_on,0,0,0,,3,,,51,127
123992,note_on,0,0,0,,3,,,63,127
123992,note_on,0,0,0,,1,,,73,127
124095,note_off,103,0,0,,1,,,73,127
124097,note_on,2,0,0,,0,,,72,127
124200,note_off,103,0,0,,0,,,72,127
124202,note_on,2,0,0,,11,,,70,127
124305,note_off,103,0,0,,11,,,70,127
124307,note_on,2,0,0,,8,,,68,127
124407,note_off,100,0,0,,3,,,63,127
124409,note_off,2,0,0,,8,,,68,127
124409,note_off,0,0,0,,3,,,51,127
124409,note_off,0,0,0,,8,,,44,127
124411,note_on,2,0,0,,8,,,44,127
124411,note_on,0,0,0,,3,,,51,127
124411,note_on,0,0,0,,8,,,56,127
124411,note_on,0,0,0,,8,,,68,127
124411,note_on,0,0,0,,0,,,72,127
124618,note_off,207,0,0,,8,,,68,127
124620,note_on,2,0,0,,6,,,66,127
124723,note_off,103,0,0,,6,,,66,127
124725,note_on,2,0,0,,5,,,65,127
124825,note_off,100,0,0,,0,,,72,127
124827,note_off,2,0,0,,5,,,65,127
124827,note_off,0,0,0,,8,,,56,127
124827,note_off,0,0,0,,3,,,51,127
124827,note_off,0,0,0,,8,,,44,127
124829,note_on,2,0,0,,8,,,44,127
124829,note_on,0,0,0,,3,,,51,127
124829,note_on,0,0,0,,8,,,56,127
124829,note_on,0,0,0,,6,,,66,127
124829,note_on,0,0,0,,0,,,72,127
125036,note_off,207,0,0,,6,,,66,127
125038,note_on,2,0,0,,5,,,65,127
125141,note_off,103,0,0,,5,,,65,127
125143,note_on,2,0,0,,3,,,63,127
125243,note_off,100,0,0,,0,,,72,127
125245,note_off,2,0,0,,3,,,63,127
125245,note_off,0,0,0,,8,,,56,127
125245,note_off,0,0,0,,3,,,51,127
125245,note_off,0,0,0,,8,,,44,127
125247,note_on,2,0,0,,1,,,49,127
125247,note_on,0,0,0,,8,,,56,127
125247,note_on,0,0,0,,5,,,65,127
125247,note_on,0,0,0,,1,,,73,127
125454,note_off,207,0,0,,5,,,65,127
125456,note_on,2,0,0,,3,,,63,127
125559,note_off,103,0,0,,3,,,63,127
125561,note_on,2,0,0,,1,,,61,127
125661,note_off,100,0,0,,1,,,73,127
125663,note_off,2,0,0,,1,,,61,127
125663,note_off,0,0,0,,8,,,56,127
125663,note_off,0,0,0,,1,,,49,127
125665,note_on,2,0,0,,11,,,46,127
125665,note_on,0,0,0,,5,,,53,127
125665,note_on,0,0,0,,11,,,58,127
125665,note_on,0,0,0,,11,,,70,127
125665,note_on,0,0,0,,2,,,74,127
125872,note_off,207,0,0,,11,,,70,127
125874,note_on,2,0,0,,8,,,68,127
125977,note_off,103,0,0,,8,,,68,127
125979,note_on,2,0,0,,7,,,67,127
126079,note_off,100,0,0,,2,,,74,127
126081,note_off,2,0,0,,7,,,67,127
126081,note_off,0,0,0,,11,,,58,127
126081,note_off,0,0,0,,5,,,53,127
126081,note_off,0,0,0,,11,,,46,127
126083,note_on,2,0,0,,11,,,46,127
126083,note_on,0,0,0,,5,,,53,127
126083,note_on,0,0,0,,11,,,58,127
126083,note_on,0,0,0,,2,,,74,127
126083,note_on,0,0,0,,8,,,68,127
126290,note_off,207,0,0,,8,,,68,127
126292,note_on,2,0,0,,7,,,67,127
126395,note_off,103,0,0,,7,,,67,127
126397,note_on,2,0,0,,5,,,65,127
126497,note_off,100,0,0,,2,,,74,127
126499,note_off,2,0,0,,5,,,65,127
126499,note_off,0,0,0,,11,,,58,127
126499,note_off,0,0,0,,5,,,53,127
126499,note_off,0,0,0,,11,,,46,127
126501,note_on,2,0,0,,3,,,51,127
126501,note_on,0,0,0,,11,,,58,127
126501,note_on,0,0,0,,3,,,75,127
126501,note_on,0,0,0,,7,,,67,127
126708,note_off,207,0,0,,7,,,67,127
126710,note_on,2,0,0,,5,,,65,127
126813,note_off,103,0,0,,5,,,65,127
126815,note_on,2,0,0,,3,,,63,127
126915,note_off,100,0,0,,3,,,75,127
126917,note_off,2,0,0,,3,,,63,127
126917,note_off,0,0,0,,11,,,58,127
126917,note_off,0,0,0,,3,,,51,127
126919,note_on,2,0,0,,0,,,48,127
126919,note_on,0,0,0,,7,,,55,127
126919,note_on,0,0,0,,0,,,60,127
126919,note_on,0,0,0,,4,,,76,127
126919,note_on,0,0,0,,0,,,72,127
127126,note_off,207,0,0,,0,,,72,127
127128,note_on,2,0,0,,11,,,70,127
127231,note_off,103,0,0,,11,,,70,127
127233,note_on,2,0,0,,8,,,68,127
127333,note_off,100,0,0,,4,,,76,127
127335,note_off,2,0,0,,8,,,68,127
127335,note_off,0,0,0,,0,,,60,127
127335,note_off,0,0,0,,7,,,55,127
127335,note_off,0,0,0,,0,,,48,127
127337,note_on,2,0,0,,7,,,55,127
127337,note_on,0,0,0,,0,,,48,127
127337,note_on,0,0,0,,0,,,60,127
127337,note_on,0,0,0,,11,,,70,127
127337,note_on,0,0,0,,4,,,76,127
127544,note_off,207,0,0,,11,,,70,127
127546,note_on,2,0,0,,8,,,68,127
127649,note_off,103,0,0,,8,,,68,127
127651,note_on,2,0,0,,7,,,67,127
127751,note_off,100,0,0,,4,,,76,127
127753,note_off,2,0,0,,7,,,67,127
127753,note_off,0,0,0,,0,,,60,127
127753,note_off,0,0,0,,0,,,48,127
127753,note_off,0,0,0,,7,,,55,127
127755,note_on,2,0,0,,5,,,53,127
127755,note_on,0,0,0,,0,,,60,127
127755,note_on,0,0,0,,8,,,68,127
127755,note_on,0,0,0,,5,,,77,127
127962,note_off,207,0,0,,8,,,68,127
127964,note_on,2,0,0,,7,,,67,127
128067,note_off,103,0,0,,7,,,67,127
128069,note_on,2,0,0,,5,,,65,127
128169,note_off,100,0,0,,5,,,77,127
128171,note_off,2,0,0,,5,,,65,127
128171,note_off,0,0,0,,0,,,60,127
128171,note_off,0,0,0,,5,,,53,127
128173,note_on,2,0,0,,5,,,41,127
128173,note_on,0,0,0,,5,,,53,127
128173,note_on,0,0,0,,5,,,77,127
128173,note_on,0,0,0,,5,,,65,127
128380,note_off,207,0,0,,5,,,77,127
128382,note_on,2,0,0,,3,,,75,127
128485,note_off,103,0,0,,3,,,75,127
128487,note_on,2,0,0,,1,,,73,127
128587,note_off,100,0,0,,5,,,65,127
128589,note_off,2,0,0,,1,,,73,127
128589,note_off,0,0,0,,5,,,53,127
128589,note_off,0,0,0,,5,,,41,127
128591,note_on,2,0,0,,5,,,53,127
128591,note_on,0,0,0,,10,,,45,127
128591,note_on,0,0,0,,3,,,75,127
128798,note_off,207,0,0,,3,,,75,127
128800,note_on,2,0,0,,1,,,73,127
128903,note_off,103,0,0,,1,,,73,127
128905,note_on,2,0,0,,0,,,72,127
129008,note_off,103,0,0,,0,,,72,127
129008,note_off,0,0,0,,10,,,45,127
129008,note_off,0,0,0,,5,,,53,127
129010,note_on,2,0,0,,11,,,46,127
129010,note_on,0,0,0,,1,,,73,127
129113,note_off,103,0,0,,1,,,73,127
129115,note_on,2,0,0,,3,,,75,127
129218,note_off,103,0,0,,3,,,75,127
129220,note_on,2,0,0,,5,,,77,127
129323,note_off,103,0,0,,5,,,77,127
129325,note_on,2,0,0,,3,,,75,127
129428,note_off,103,0,0,,3,,,75,127
129428,note_off,0,0,0,,11,,,46,127
129430,note_on,2,0,0,,11,,,58,127
129430,note_on,0,0,0,,1,,,73,127
129533,note_off,103,0,0,,1,,,73,127
129535,note_on,2,0,0,,0,,,72,127
129638,note_off,103,0,0,,0,,,72,127
129640,note_on,2,0,0,,11,,,70,127
129743,note_off,103,0,0,,11,,,70,127
129745,note_on,2,0,0,,8,,,68,127
129848,note_off,103,0,0,,8,,,68,127
129848,note_off,0,0,0,,11,,,58,127
129850,note_on,2,0,0,,1,,,49,127
129850,note_on,0,0,0,,7,,,67,127
130057,note_off,207,0,0,,7,,,67,127
130059,note_on,2,0,0,,5,,,65,127
130266,note_off,207,0,0,,5,,,65,127
130266,note_off,0,0,0,,1,,,49,127
130268,note_on,2,0,0,,0,,,48,127
130268,note_on,0,0,0,,4,,,76,127
130371,note_off,103,0,0,,4,,,76,127
130373,note_on,2,0,0,,4,,,64,127
130476,note_off,103,0,0,,4,,,64,127
130478,note_on,2,0,0,,5,,,65,127
130581,note_off,103,0,0,,5,,,65,127
130583,note_on,2,0,0,,5,,,77,127
130686,note_off,103,0,0,,5,,,77,127
130688,note_on,2,0,0,,0,,,36,127
130688,note_on,0,0,0,,7,,,79,127
130791,note_off,103,0,0,,7,,,79,127
130793,note_on,2,0,0,,7,,,67,127
130896,note_off,103,0,0,,7,,,67,127
130898,note_on,2,0,0,,5,,,65,127
131001,note_off,103,0,0,,5,,,65,127
131003,note_on,2,0,0,,5,,,77,127
131106,note_off,103,0,0,,5,,,77,127
131106,note_off,0,0,0,,0,,,36,127
131107,note_off,1,0,0,,0,,,48,127
131108,note_on,1,0,0,,0,,,48,127
131108,note_on,0,0,0,,4,,,76,127
131211,note_off,103,0,0,,4,,,76,127
131213,note_on,2,0,0,,4,,,64,127
131316,note_off,103,0,0,,4,,,64,127
131318,note_on,2,0,0,,2,,,62,127
131421,note_off,103,0,0,,2,,,62,127
131423,note_on,2,0,0,,2,,,74,127
131526,note_off,103,0,0,,2,,,74,127
131528,note_on,2,0,0,,0,,,36,127
131528,note_on,0,0,0,,4,,,76,127
131631,note_off,103,0,0,,4,,,76,127
131633,note_on,2,0,0,,4,,,64,127
131736,note_off,103,0,0,,4,,,64,127
131738,note_on,2,0,0,,5,,,65,127
131841,note_off,103,0,0,,5,,,65,127
131843,note_on,2,0,0,,5,,,77,127
131946,note_off,103,0,0,,5,,,77,127
131946,note_off,0,0,0,,0,,,36,127
131947,note_off,1,0,0,,0,,,48,127
131948,note_on,1,0,0,,0,,,48,127
131948,note_on,0,0,0,,7,,,79,127
132051,note_off,103,0,0,,7,,,79,127
132053,note_on,2,0,0,,7,,,67,127
132156,note_off,103,0,0,,7,,,67,127
132158,note_on,2,0,0,,5,,,65,127
132261,note_off,103,0,0,,5,,,65,127
132263,note_on,2,0,0,,5,,,77,127
132366,note_off,103,0,0,,5,,,77,127
132368,note_on,2,0,0,,0,,,36,127
132368,note_on,0,0,0,,4,,,76,127
132471,note_off,103,0,0,,4,,,76,127
132473,note_on,2,0,0,,4,,,64,127
132576,note_off,103,0,0,,4,,,64,127
132578,note_on,2,0,0,,2,,,62,127
132681,note_off,103,0,0,,2,,,62,127
132683,note_on,2,0,0,,2,,,74,127
132786,note_off,103,0,0,,2,,,74,127
132786,note_off,0,0,0,,0,,,36,127
132787,note_off,1,0,0,,0,,,48,127
132788,note_on,1,0,0,,0,,,48,127
132788,note_on,0,0,0,,4,,,76,127
132891,note_off,103,0,0,,4,,,76,127
132893,note_on,2,0,0,,4,,,64,127
132996,note_off,103,0,0,,4,,,64,127
132998,note_on,2,0,0,,5,,,65,127
133101,note_off,103,0,0,,5,,,65,127
133103,note_on,2,0,0,,5,,,77,127
133206,note_off,103,0,0,,5,,,77,127
133208,note_on,2,0,0,,0,,,36,127
133208,note_on,0,0,0,,7,,,79,127
133311,note_off,103,0,0,,7,,,79,127
133313,note_on,2,0,0,,7,,,67,127
133416,note_off,103,0,0,,7,,,67,127
133418,note_on,2,0,0,,5,,,65,127
133521,note_off,103,0,0,,5,,,65,127
133523,note_on,2,0,0,,5,,,77,127
133626,note_off,103,0,0,,5,,,77,127
133626,note_off,0,0,0,,0,,,36,127
133627,note_off,1,0,0,,0,,,48,127
133628,note_on,1,0,0,,0,,,48,127
133628,note_on,0,0,0,,4,,,76,127
133731,note_off,103,0,0,,4,,,76,127
133733,note_on,2,0,0,,4,,,64,127
133836,note_off,103,0,0,,4,,,64,127
133838,note_on,2,0,0,,2,,,62,127
133941,note_off,103,0,0,,2,,,62,127
133943,note_on,2,0,0,,2,,,74,127
134046,note_off,103,0,0,,2,,,74,127
134048,note_on,2,0,0,,0,,,36,127
134048,note_on,0,0,0,,0,,,60,127
134519,note_off,471,0,0,,0,,,60,127
134519,note_on,0,0,0,,0,,,72,127
134886,note_off,367,0,0,,0,,,48,127
135253,note_off,367,0,0,,0,,,72,127
135358,note_off,105,0,0,,0,,,36,127
135358,note_on,0,0,0,,5,,,41,127
135358,note_on,0,0,0,,0,,,84,127
135461,note_off,103,0,0,,5,,,41,127
135463,note_on,2,0,0,,10,,,45,127
135566,note_off,103,0,0,,10,,,45,127
135568,note_on,2,0,0,,0,,,48,127
135671,note_off,103,0,0,,0,,,48,127
135673,note_on,2,0,0,,5,,,53,127
135776,note_off,103,0,0,,5,,,53,127
135778,note_on,2,0,0,,5,,,53,127
135881,note_off,103,0,0,,5,,,53,127
135883,note_on,2,0,0,,10,,,57,127
135986,note_off,103,0,0,,10,,,57,127
135988,note_on,2,0,0,,0,,,60,127
136091,note_off,103,0,0,,0,,,60,127
136093,note_on,2,0,0,,5,,,65,127
136196,note_off,103,0,0,,5,,,65,127
136198,note_on,2,0,0,,5,,,41,127
136301,note_off,103,0,0,,0,,,84,127
136303,note_on,2,0,0,,10,,,81,127
136406,note_off,103,0,0,,10,,,81,127
136408,note_on,2,0,0,,7,,,79,127
136511,note_off,103,0,0,,7,,,79,127
136513,note_on,2,0,0,,5,,,77,127
136616,note_off,103,0,0,,5,,,77,127
136616,note_off,0,0,0,,5,,,41,127
136618,note_on,2,0,0,,0,,,36,127
136618,note_on,0,0,0,,5,,,77,127
136721,note_off,103,0,0,,0,,,36,127
136723,note_on,2,0,0,,4,,,40,127
136826,note_off,103,0,0,,4,,,40,127
136828,note_on,2,0,0,,7,,,43,127
136931,note_off,103,0,0,,7,,,43,127
136933,note_on,2,0,0,,0,,,48,127
137036,note_off,103,0,0,,0,,,48,127
137036,note_off,0,0,0,,5,,,77,127
137038,note_on,2,0,0,,0,,,48,127
137038,note_on,0,0,0,,7,,,79,127
137141,note_off,103,0,0,,0,,,48,127
137143,note_on,2,0,0,,4,,,52,127
137246,note_off,103,0,0,,4,,,52,127
137248,note_on,2,0,0,,7,,,55,127
137351,note_off,103,0,0,,7,,,55,127
137353,note_on,2,0,0,,0,,,60,127
137456,note_off,103,0,0,,0,,,60,127
137458,note_on,2,0,0,,0,,,36,127
137561,note_off,103,0,0,,7,,,79,127
137563,note_on,2,0,0,,11,,,82,127
137666,note_off,103,0,0,,11,,,82,127
137668,note_on,2,0,0,,10,,,81,127
137771,note_off,103,0,0,,10,,,81,127
137773,note_on,2,0,0,,7,,,79,127
137876,note_off,103,0,0,,7,,,79,127
137876,note_off,0,0,0,,0,,,36,127
137878,note_on,2,0,0,,5,,,41,127
137878,note_on,0,0,0,,0,,,84,127
137981,note_off,103,0,0,,5,,,41,127
137983,note_on,2,0,0,,10,,,45,127
138086,note_off,103,0,0,,10,,,45,127
138088,note_on,2,0,0,,0,,,48,127
138191,note_off,103,0,0,,0,,,48,127
138193,note_on,2,0,0,,5,,,53,127
138296,note_off,103,0,0,,5,,,53,127
138298,note_on,2,0,0,,5,,,53,127
138401,note_off,103,0,0,,5,,,53,127
138403,note_on,2,0,0,,10,,,57,127
138506,note_off,103,0,0,,10,,,57,127
138508,note_on,2,0,0,,0,,,60,127
138611,note_off,103,0,0,,0,,,60,127
138613,note_on,2,0,0,,5,,,65,127
138716,note_off,103,0,0,,5,,,65,127
138718,note_on,2,0,0,,5,,,41,127
138821,note_off,103,0,0,,0,,,84,127
138823,note_on,2,0,0,,10,,,81,127
138926,note_off,103,0,0,,10,,,81,127
138928,note_on,2,0,0,,7,,,79,127
139031,note_off,103,0,0,,7,,,79,127
139033,note_on,2,0,0,,5,,,77,127
139136,note_off,103,0,0,,5,,,77,127
139136,note_off,0,0,0,,5,,,41,127
139138,note_on,2,0,0,,0,,,36,127
139138,note_on,0,0,0,,5,,,77,127
139241,note_off,103,0,0,,0,,,36,127
139243,note_on,2,0,0,,4,,,40,127
139346,note_off,103,0,0,,4,,,40,127
139348,note_on,2,0,0,,7,,,43,127
139451,note_off,103,0,0,,7,,,43,127
139453,note_on,2,0,0,,0,,,48,127
139556,note_off,103,0,0,,0,,,48,127
139556,note_off,0,0,0,,5,,,77,127
139558,note_on,2,0,0,,0,,,48,127
139558,note_on,0,0,0,,7,,,79,127
139661,note_off,103,0,0,,0,,,48,127
139663,note_on,2,0,0,,4,,,52,127
139766,note_off,103,0,0,,4,,,52,127
139768,note_on,2,0,0,,7,,,55,127
139871,note_off,103,0,0,,7,,,55,127
139873,note_on,2,0,0,,0,,,60,127
139976,note_off,103,0,0,,0,,,60,127
139978,note_on,2,0,0,,0,,,36,127
140081,note_off,103,0,0,,7,,,79,127
140083,note_on,2,0,0,,11,,,82,127
140186,note_off,103,0,0,,11,,,82,127
140188,note_on,2,0,0,,10,,,81,127
140291,note_off,103,0,0,,10,,,81,127
140293,note_on,2,0,0,,7,,,79,127
140396,note_off,103,0,0,,7,,,79,127
140396,note_off,0,0,0,,0,,,36,127
140398,note_on,2,0,0,,5,,,53,127
140398,note_on,0,0,0,,0,,,84,127
140501,note_off,103,0,0,,0,,,84,127
140503,note_on,2,0,0,,0,,,72,127
140606,note_off,103,0,0,,0,,,72,127
140608,note_on,2,0,0,,11,,,70,127
140711,note_off,103,0,0,,11,,,70,127
140713,note_on,2,0,0,,11,,,82,127
140816,note_off,103,0,0,,11,,,82,127
140818,note_on,2,0,0,,5,,,41,127
140818,note_on,0,0,0,,10,,,81,127
140921,note_off,103,0,0,,10,,,81,127
140923,note_on,2,0,0,,10,,,69,127
141026,note_off,103,0,0,,10,,,69,127
141028,note_on,2,0,0,,7,,,67,127
141131,note_off,103,0,0,,7,,,67,127
141133,note_on,2,0,0,,7,,,79,127
141236,note_off,103,0,0,,7,,,79,127
141236,note_off,0,0,0,,5,,,41,127
141237,note_off,1,0,0,,5,,,53,127
141238,note_on,1,0,0,,10,,,45,127
141238,note_on,0,0,0,,5,,,77,127
141341,note_off,103,0,0,,5,,,77,127
141343,note_on,2,0,0,,5,,,65,127
141446,note_off,103,0,0,,5,,,65,127
141448,note_on,2,0,0,,4,,,64,127
141551,note_off,103,0,0,,4,,,64,127
141553,note_on,2,0,0,,4,,,76,127
141656,note_off,103,0,0,,4,,,76,127
141656,note_off,0,0,0,,10,,,45,127
141658,note_on,2,0,0,,11,,,46,127
141658,note_on,0,0,0,,2,,,62,127
141763,note_on,105,0,0,,2,,,74,127
141866,note_off,103,0,0,,2,,,74,127
141866,note_off,0,0,0,,2,,,62,127
141868,note_on,2,0,0,,0,,,72,127
141971,note_off,103,0,0,,0,,,72,127
141973,note_on,2,0,0,,11,,,70,127
142076,note_off,103,0,0,,11,,,70,127
142076,note_off,0,0,0,,11,,,46,127
142078,note_on,2,0,0,,0,,,48,127
142078,note_on,0,0,0,,11,,,70,127
142181,note_off,103,0,0,,11,,,70,127
142183,note_on,2,0,0,,10,,,69,127
142286,note_off,103,0,0,,10,,,69,127
142288,note_on,2,0,0,,7,,,67,127
142391,note_off,103,0,0,,7,,,67,127
142393,note_on,2,0,0,,5,,,65,127
142496,note_off,103,0,0,,5,,,65,127
142498,note_on,2,0,0,,0,,,36,127
142498,note_on,0,0,0,,10,,,69,127
142601,note_off,103,0,0,,10,,,69,127
142603,note_on,2,0,0,,7,,,67,127
142706,note_off,103,0,0,,7,,,67,127
142708,note_on,2,0,0,,5,,,65,127
142804,note_off,96,0,0,,5,,,65,127
142813,note_on,9,0,0,,4,,,64,127
142900,note_off,87,0,0,,4,,,64,127
142915,note_off,15,0,0,,0,,,36,127
142916,note_off,1,0,0,,0,,,48,127
142943,note_on,27,0,0,,5,,,41,127
142943,note_on,0,0,0,,0,,,84,127
143046,note_off,103,0,0,,5,,,41,127
143048,note_on,2,0,0,,10,,,45,127
143151,note_off,103,0,0,,10,,,45,127
143153,note_on,2,0,0,,0,,,48,127
143256,note_off,103,0,0,,0,,,48,127
143258,note_on,2,0,0,,5,,,53,127
143361,note_off,103,0,0,,5,,,53,127
143363,note_on,2,0,0,,5,,,53,127
143466,note_off,103,0,0,,5,,,53,127
143468,note_on,2,0,0,,10,,,57,127
143571,note_off,103,0,0,,10,,,57,127
143573,note_on,2,0,0,,0,,,60,127
143676,note_off,103,0,0,,0,,,60,127
143678,note_on,2,0,0,,5,,,65,127
143781,note_off,103,0,0,,5,,,65,127
143783,note_on,2,0,0,,5,,,41,127
143886,note_off,103,0,0,,0,,,84,127
143888,note_on,2,0,0,,10,,,81,127
143991,note_off,103,0,0,,10,,,81,127
143993,note_on,2,0,0,,7,,,79,127
144096,note_off,103,0,0,,7,,,79,127
144098,note_on,2,0,0,,5,,,77,127
144201,note_off,103,0,0,,5,,,77,127
144201,note_off,0,0,0,,5,,,41,127
144203,note_on,2,0,0,,0,,,36,127
144203,note_on,0,0,0,,5,,,77,127
144306,note_off,103,0,0,,0,,,36,127
144308,note_on,2,0,0,,4,,,40,127
144411,note_off,103,0,0,,4,,,40,127
144413,note_on,2,0,0,,7,,,43,127
144516,note_off,103,0,0,,7,,,43,127
144518,note_on,2,0,0,,0,,,48,127
144621,note_off,103,0,0,,0,,,48,127
144621,note_off,0,0,0,,5,,,77,127
144623,note_on,2,0,0,,0,,,48,127
144623,note_on,0,0,0,,7,,,79,127
144726,note_off,103,0,0,,0,,,48,127
144728,note_on,2,0,0,,4,,,52,127
144831,note_off,103,0,0,,4,,,52,127
144833,note_on,2,0,0,,7,,,55,127
144936,note_off,103,0,0,,7,,,55,127
144938,note_on,2,0,0,,0,,,60,127
145041,note_off,103,0,0,,0,,,60,127
145043,note_on,2,0,0,,0,,,36,127
145146,note_off,103,0,0,,7,,,79,127
145148,note_on,2,0,0,,11,,,82,127
145251,note_off,103,0,0,,11,,,82,127
145253,note_on,2,0,0,,10,,,81,127
145356,note_off,103,0,0,,10,,,81,127
145358,note_on,2,0,0,,7,,,79,127
145461,note_off,103,0,0,,7,,,79,127
145461,note_off,0,0,0,,0,,,36,127
145463,note_on,2,0,0,,5,,,41,127
145463,note_on,0,0,0,,0,,,84,127
145566,note_off,103,0,0,,5,,,41,127
145568,note_on,2,0,0,,10,,,45,127
145671,note_off,103,0,0,,10,,,45,127
145673,note_on,2,0,0,,0,,,48,127
145776,note_off,103,0,0,,0,,,48,127
145778,note_on,2,0,0,,5,,,53,127
145881,note_off,103,0,0,,5,,,53,127
145883,note_on,2,0,0,,5,,,53,127
145986,note_off,103,0,0,,5,,,53,127
145988,note_on,2,0,0,,10,,,57,127
146091,note_off,103,0,0,,10,,,57,127
146093,note_on,2,0,0,,0,,,60,127
146196,note_off,103,0,0,,0,,,60,127
146198,note_on,2,0,0,,5,,,65,127
146301,note_off,103,0,0,,5,,,65,127
146303,note_on,2,0,0,,5,,,41,127
146406,note_off,103,0,0,,0,,,84,127
146408,note_on,2,0,0,,10,,,81,127
146511,note_off,103,0,0,,10,,,81,127
146513,note_on,2,0,0,,7,,,79,127
146616,note_off,103,0,0,,7,,,79,127
146618,note_on,2,0,0,,5,,,77,127
146721,note_off,103,0,0,,5,,,77,127
146721,note_off,0,0,0,,5,,,41,127
146723,note_on,2,0,0,,0,,,36,127
146723,note_on,0,0,0,,5,,,77,127
146826,note_off,103,0,0,,0,,,36,127
146828,note_on,2,0,0,,4,,,40,127
146931,note_off,103,0,0,,4,,,40,127
146933,note_on,2,0,0,,7,,,43,127
147036,note_off,103,0,0,,7,,,43,127
147038,note_on,2,0,0,,0,,,48,127
147141,note_off,103,0,0,,0,,,48,127
147141,note_off,0,0,0,,5,,,77,127
147143,note_on,2,0,0,,0,,,48,127
147143,note_on,0,0,0,,7,,,79,127
147246,note_off,103,0,0,,0,,,48,127
147248,note_on,2,0,0,,4,,,52,127
147351,note_off,103,0,0,,4,,,52,127
147353,note_on,2,0,0,,7,,,55,127
147456,note_off,103,0,0,,7,,,55,127
147458,note_on,2,0,0,,0,,,60,127
147561,note_off,103,0,0,,0,,,60,127
147563,note_on,2,0,0,,0,,,36,127
147666,note_off,103,0,0,,7,,,79,127
147668,note_on,2,0,0,,11,,,82,127
147771,note_off,103,0,0,,11,,,82,127
147773,note_on,2,0,0,,10,,,81,127
147876,note_off,103,0,0,,10,,,81,127
147878,note_on,2,0,0,,7,,,79,127
147981,note_off,103,0,0,,7,,,79,127
147981,note_off,0,0,0,,0,,,36,127
147983,note_on,2,0,0,,5,,,53,127
147983,note_on,0,0,0,,0,,,84,127
148086,note_off,103,0,0,,0,,,84,127
148088,note_on,2,0,0,,0,,,72,127
148191,note_off,103,0,0,,0,,,72,127
148193,note_on,2,0,0,,11,,,70,127
148296,note_off,103,0,0,,11,,,70,127
148298,note_on,2,0,0,,11,,,82,127
148401,note_off,103,0,0,,11,,,82,127
148403,note_on,2,0,0,,5,,,41,127
148403,note_on,0,0,0,,10,,,81,127
148506,note_off,103,0,0,,10,,,81,127
148508,note_on,2,0,0,,10,,,69,127
148611,note_off,103,0,0,,10,,,69,127
148613,note_on,2,0,0,,7,,,67,127
148716,note_off,103,0,0,,7,,,67,127
148718,note_on,2,0,0,,7,,,79,127
148821,note_off,103,0,0,,7,,,79,127
148821,note_off,0,0,0,,5,,,41,127
148822,note_off,1,0,0,,5,,,53,127
148823,note_on,1,0,0,,10,,,45,127
148823,note_on,0,0,0,,5,,,77,127
148926,note_off,103,0,0,,5,,,77,127
148928,note_on,2,0,0,,5,,,65,127
149031,note_off,103,0,0,,5,,,65,127
149033,note_on,2,0,0,,4,,,64,127
149136,note_off,103,0,0,,4,,,64,127
149138,note_on,2,0,0,,4,,,76,127
149241,note_off,103,0,0,,4,,,76,127
149241,note_off,0,0,0,,10,,,45,127
149243,note_on,2,0,0,,11,,,46,127
149243,note_on,0,0,0,,2,,,62,127
149348,note_on,105,0,0,,2,,,74,127
149451,note_off,103,0,0,,2,,,74,127
149451,note_off,0,0,0,,2,,,62,127
149453,note_on,2,0,0,,0,,,72,127
149556,note_off,103,0,0,,0,,,72,127
149558,note_on,2,0,0,,11,,,70,127
149661,note_off,103,0,0,,11,,,70,127
149661,note_off,0,0,0,,11,,,46,127
149663,note_on,2,0,0,,0,,,48,127
149663,note_on,0,0,0,,11,,,70,127
149766,note_off,103,0,0,,11,,,70,127
149768,note_on,2,0,0,,10,,,69,127
149871,note_off,103,0,0,,10,,,69,127
149873,note_on,2,0,0,,7,,,67,127
149976,note_off,103,0,0,,7,,,67,127
149978,note_on,2,0,0,,5,,,65,127
150081,note_off,103,0,0,,5,,,65,127
150083,note_on,2,0,0,,0,,,36,127
150083,note_on,0,0,0,,10,,,69,127
150186,note_off,103,0,0,,10,,,69,127
150188,note_on,2,0,0,,7,,,67,127
150291,note_off,103,0,0,,7,,,67,127
150293,note_on,2,0,0,,5,,,65,127
150390,note_off,97,0,0,,5,,,65,127
150398,note_on,8,0,0,,4,,,64,127
150484,note_off,86,0,0,,4,,,64,127
150500,note_off,16,0,0,,0,,,36,127
150501,note_off,1,0,0,,0,,,48,127
150528,note_on,27,0,0,,10,,,57,127
150528,note_on,0,0,0,,5,,,77,127
150631,note_off,103,0,0,,5,,,77,127
150633,note_on,2,0,0,,5,,,65,127
150736,note_off,103,0,0,,5,,,65,127
150738,note_on,2,0,0,,7,,,67,127
150841,note_off,103,0,0,,7,,,67,127
150843,note_on,2,0,0,,7,,,79,127
150946,note_off,103,0,0,,7,,,79,127
150946,note_off,0,0,0,,10,,,57,127
150948,note_on,2,0,0,,5,,,41,127
150948,note_on,0,0,0,,10,,,81,127
151051,note_off,103,0,0,,10,,,81,127
151053,note_on,2,0,0,,10,,,69,127
151156,note_off,103,0,0,,10,,,69,127
151158,note_on,2,0,0,,11,,,70,127
151261,note_off,103,0,0,,11,,,70,127
151263,note_on,2,0,0,,11,,,82,127
151366,note_off,103,0,0,,11,,,82,127
151366,note_off,0,0,0,,5,,,41,127
151368,note_on,2,0,0,,10,,,45,127
151368,note_on,0,0,0,,0,,,84,127
151471,note_off,103,0,0,,0,,,84,127
151473,note_on,2,0,0,,4,,,76,127
151576,note_off,103,0,0,,4,,,76,127
151578,note_on,2,0,0,,5,,,77,127
151681,note_off,103,0,0,,5,,,77,127
151683,note_on,2,0,0,,0,,,72,127
151786,note_off,103,0,0,,0,,,72,127
151786,note_off,0,0,0,,10,,,45,127
151788,note_on,2,0,0,,11,,,46,127
151788,note_on,0,0,0,,2,,,74,127
151891,note_off,103,0,0,,2,,,74,127
151893,note_on,2,0,0,,10,,,69,127
151996,note_off,103,0,0,,10,,,69,127
151998,note_on,2,0,0,,11,,,70,127
152101,note_off,103,0,0,,11,,,70,127
152103,note_on,2,0,0,,7,,,67,127
152206,note_off,103,0,0,,7,,,67,127
152206,note_off,0,0,0,,11,,,46,127
152208,note_on,2,0,0,,0,,,48,127
152208,note_on,0,0,0,,5,,,65,127
152276,note_off,68,0,0,,5,,,65,127
152278,note_on,2,0,0,,7,,,67,127
152346,note_off,68,0,0,,7,,,67,127
152348,note_on,2,0,0,,5,,,65,127
152416,note_off,68,0,0,,5,,,65,127
152418,note_on,2,0,0,,4,,,64,127
152486,note_off,68,0,0,,4,,,64,127
152488,note_on,2,0,0,,5,,,65,127
152556,note_off,68,0,0,,5,,,65,127
152558,note_on,2,0,0,,7,,,67,127
152626,note_off,68,0,0,,7,,,67,127
152628,note_on,2,0,0,,0,,,36,127
152628,note_on,0,0,0,,10,,,69,127
152696,note_off,68,0,0,,10,,,69,127
152698,note_on,2,0,0,,7,,,67,127
152766,note_off,68,0,0,,7,,,67,127
152768,note_on,2,0,0,,10,,,69,127
152836,note_off,68,0,0,,10,,,69,127
152838,note_on,2,0,0,,7,,,67,127
152906,note_off,68,0,0,,7,,,67,127
152908,note_on,2,0,0,,5,,,65,127
152976,note_off,68,0,0,,5,,,65,127
152978,note_on,2,0,0,,7,,,67,127
153046,note_off,68,0,0,,7,,,67,127
153046,note_off,0,0,0,,0,,,36,127
153047,note_off,1,0,0,,0,,,48,127
153078,note_on,31,0,0,,10,,,57,127
153078,note_on,0,0,0,,5,,,77,127
153181,note_off,103,0,0,,5,,,77,127
153186,note_on,5,0,0,,5,,,65,127
153289,note_off,103,0,0,,5,,,65,127
153294,note_on,5,0,0,,7,,,67,127
153397,note_off,103,0,0,,7,,,67,127
153402,note_on,5,0,0,,7,,,79,127
153498,note_off,96,0,0,,10,,,57,127
153505,note_off,7,0,0,,7,,,79,127
153510,note_on,5,0,0,,5,,,41,127
153510,note_on,0,0,0,,10,,,81,127
153613,note_off,103,0,0,,10,,,81,127
153618,note_on,5,0,0,,10,,,69,127
153721,note_off,103,0,0,,10,,,69,127
153726,note_on,5,0,0,,11,,,70,127
153829,note_off,103,0,0,,11,,,70,127
153833,note_on,4,0,0,,11,,,82,127
153930,note_off,97,0,0,,5,,,41,127
153935,note_off,5,0,0,,11,,,82,127
153940,note_on,5,0,0,,10,,,45,127
153940,note_on,0,0,0,,0,,,84,127
154043,note_off,103,0,0,,0,,,84,127
154048,note_on,5,0,0,,4,,,76,127
154151,note_off,103,0,0,,4,,,76,127
154155,note_on,4,0,0,,5,,,77,127
154258,note_off,103,0,0,,5,,,77,127
154263,note_on,5,0,0,,0,,,72,127
154360,note_off,97,0,0,,10,,,45,127
154365,note_off,5,0,0,,0,,,72,127
154370,note_on,5,0,0,,11,,,46,127
154370,note_on,0,0,0,,2,,,74,127
154473,note_off,103,0,0,,2,,,74,127
154478,note_on,5,0,0,,10,,,69,127
154581,note_off,103,0,0,,10,,,69,127
154586,note_on,5,0,0,,11,,,70,127
154689,note_off,103,0,0,,11,,,70,127
154694,note_on,5,0,0,,7,,,67,127
154790,note_off,96,0,0,,11,,,46,127
154797,note_off,7,0,0,,7,,,67,127
154802,note_on,5,0,0,,0,,,48,127
154802,note_on,0,0,0,,5,,,65,127
154870,note_off,68,0,0,,5,,,65,127
154874,note_on,4,0,0,,7,,,67,127
154942,note_off,68,0,0,,7,,,67,127
154946,note_on,4,0,0,,5,,,65,127
155014,note_off,68,0,0,,5,,,65,127
155018,note_on,4,0,0,,4,,,64,127
155086,note_off,68,0,0,,4,,,64,127
155090,note_on,4,0,0,,5,,,65,127
155158,note_off,68,0,0,,5,,,65,127
155161,note_on,3,0,0,,7,,,67,127
155229,note_off,68,0,0,,7,,,67,127
155234,note_on,5,0,0,,0,,,36,127
155234,note_on,0,0,0,,10,,,69,127
155302,note_off,68,0,0,,10,,,69,127
155306,note_on,4,0,0,,7,,,67,127
155374,note_off,68,0,0,,7,,,67,127
155377,note_on,3,0,0,,10,,,69,127
155445,note_off,68,0,0,,10,,,69,127
155450,note_on,5,0,0,,7,,,67,127
155518,note_off,68,0,0,,7,,,67,127
155522,note_on,4,0,0,,5,,,65,127
155590,note_off,68,0,0,,5,,,65,127
155593,note_on,3,0,0,,7,,,67,127
155646,note_off,53,0,0,,0,,,48,127
155654,note_off,8,0,0,,0,,,36,127
155661,note_off,7,0,0,,7,,,67,127
155672,note_on,11,0,0,,5,,,41,127
155672,note_on,0,0,0,,5,,,53,127
155672,note_on,0,0,0,,5,,,65,127
157681,note_off,2009,0,0,,5,,,65,127
157681,note_off,0,0,0,,5,,,53,127
157681,note_off,0,0,0,,5,,,41,127
158208,end_of_track,527,1,0,,,,,,
