tick,type,time,meta,track,program,channel,pitch,tempo,note,velocity
0,copyright,0,1,0,,,,,,
0,program_change,0,0,0,6,0,,,,
0,pitchwheel,0,0,0,,0,0,,,
0,program_change,0,0,0,6,1,,,,
0,pitchwheel,0,0,0,,1,-590,,,
0,program_change,0,0,0,6,2,,,,
0,pitchwheel,0,0,0,,2,-272,,,
0,program_change,0,0,0,6,3,,,,
0,pitchwheel,0,0,0,,3,-353,,,
0,program_change,0,0,0,6,4,,,,
0,pitchwheel,0,0,0,,4,-560,,,
0,program_change,0,0,0,6,5,,,,
0,pitchwheel,0,0,0,,5,-80,,,
0,program_change,0,0,0,6,6,,,,
0,pitchwheel,0,0,0,,6,-625,,,
0,program_change,0,0,0,6,7,,,,
0,pitchwheel,0,0,0,,7,-130,,,
0,program_change,0,0,0,6,8,,,,
0,pitchwheel,0,0,0,,8,-512,,,
0,program_change,0,0,0,6,10,,,,
0,pitchwheel,0,0,0,,10,-464,,,
0,program_change,0,0,0,6,11,,,,
0,pitchwheel,0,0,0,,11,-208,,,
0,program_change,0,0,0,6,12,,,,
0,pitchwheel,0,0,0,,12,-553,,,
0,set_tempo,0,1,0,,,,500000,,
125,note_on,125,0,0,,5,,,53,127
373,note_off,248,0,0,,5,,,53,127
376,note_on,3,0,0,,5,,,65,127
376,note_on,0,0,0,,10,,,81,127
624,note_off,248,0,0,,10,,,81,127
624,note_off,0,0,0,,5,,,65,127
627,note_on,3,0,0,,4,,,64,127
627,note_on,0,0,0,,7,,,79,127
875,note_off,248,0,0,,4,,,64,127
878,note_on,3,0,0,,7,,,55,127
1003,note_off,125,0,0,,7,,,79,127
1126,note_off,123,0,0,,7,,,55,127
1129,note_on,3,0,0,,7,,,67,127
1129,note_on,0,0,0,,11,,,82,127
1377,note_off,248,0,0,,11,,,82,127
1377,note_off,0,0,0,,7,,,67,127
1380,note_on,3,0,0,,5,,,65,127
1380,note_on,0,0,0,,10,,,81,127
1628,note_off,248,0,0,,5,,,65,127
1631,note_on,3,0,0,,10,,,57,127
1756,note_off,125,0,0,,10,,,81,127
1879,note_off,123,0,0,,10,,,57,127
1882,note_on,3,0,0,,10,,,69,127
1882,note_on,0,0,0,,0,,,84,127
2130,note_off,248,0,0,,0,,,84,127
2130,note_off,0,0,0,,10,,,69,127
2133,note_on,3,0,0,,7,,,67,127
2133,note_on,0,0,0,,11,,,82,127
2381,note_off,248,0,0,,11,,,82,127
2381,note_off,0,0,0,,7,,,67,127
2384,note_on,3,0,0,,11,,,58,127
2384,note_on,0,0,0,,2,,,86,127
2632,note_off,248,0,0,,2,,,86,127
2635,note_on,3,0,0,,0,,,84,127
2758,note_off,123,0,0,,0,,,84,127
2761,note_on,3,0,0,,11,,,82,127
2884,note_off,123,0,0,,11,,,82,127
2884,note_off,0,0,0,,11,,,58,127
2887,note_on,3,0,0,,11,,,70,127
2887,note_on,0,0,0,,10,,,81,127
3010,note_off,123,0,0,,10,,,81,127
3013,note_on,3,0,0,,7,,,79,127
3136,note_off,123,0,0,,7,,,79,127
3139,note_on,3,0,0,,5,,,77,127
3387,note_off,248,0,0,,5,,,77,127
3390,note_on,3,0,0,,4,,,76,127
3638,note_off,248,0,0,,4,,,76,127
3638,note_off,0,0,0,,11,,,70,127
3641,note_on,3,0,0,,10,,,69,127
3641,note_on,0,0,0,,5,,,77,127
3889,note_off,248,0,0,,5,,,77,127
3889,note_off,0,0,0,,10,,,69,127
3892,note_on,3,0,0,,7,,,67,127
3892,note_on,0,0,0,,0,,,72,127
4140,note_off,248,0,0,,0,,,72,127
4140,note_off,0,0,0,,7,,,67,127
4143,note_on,3,0,0,,4,,,64,127
4143,note_on,0,0,0,,11,,,70,127
4391,note_off,248,0,0,,11,,,70,127
4391,note_off,0,0,0,,4,,,64,127
4394,note_on,3,0,0,,0,,,60,127
4394,note_on,0,0,0,,0,,,72,127
4642,note_off,248,0,0,,0,,,72,127
4642,note_off,0,0,0,,0,,,60,127
4645,note_on,3,0,0,,5,,,65,127
4645,note_on,0,0,0,,11,,,70,127
4705,note_off,60,0,0,,11,,,70,127
4708,note_on,3,0,0,,10,,,69,127
4768,note_off,60,0,0,,10,,,69,127
4771,note_on,3,0,0,,11,,,70,127
4831,note_off,60,0,0,,11,,,70,127
4834,note_on,3,0,0,,10,,,69,127
4894,note_off,60,0,0,,5,,,65,127
4897,note_on,3,0,0,,0,,,60,127
5020,note_off,123,0,0,,10,,,69,127
5023,note_on,3,0,0,,7,,,67,127
5146,note_off,123,0,0,,7,,,67,127
5146,note_off,0,0,0,,0,,,60,127
5149,note_on,3,0,0,,5,,,53,127
5149,note_on,0,0,0,,5,,,65,127
5397,note_off,248,0,0,,5,,,65,127
5397,note_off,0,0,0,,5,,,53,127
5400,note_on,3,0,0,,5,,,41,127
5648,note_off,248,0,0,,5,,,41,127
5651,note_on,3,0,0,,5,,,53,127
5651,note_on,0,0,0,,10,,,69,127
5899,note_off,248,0,0,,10,,,69,127
5899,note_off,0,0,0,,5,,,53,127
5902,note_on,3,0,0,,4,,,52,127
5902,note_on,0,0,0,,7,,,67,127
6150,note_off,248,0,0,,4,,,52,127
6153,note_on,3,0,0,,7,,,43,127
6278,note_off,125,0,0,,7,,,67,127
6401,note_off,123,0,0,,7,,,43,127
6404,note_on,3,0,0,,7,,,55,127
6404,note_on,0,0,0,,11,,,70,127
6652,note_off,248,0,0,,11,,,70,127
6652,note_off,0,0,0,,7,,,55,127
6655,note_on,3,0,0,,5,,,53,127
6655,note_on,0,0,0,,10,,,69,127
6903,note_off,248,0,0,,5,,,53,127
6906,note_on,3,0,0,,10,,,45,127
7031,note_off,125,0,0,,10,,,69,127
7154,note_off,123,0,0,,10,,,45,127
7157,note_on,3,0,0,,10,,,57,127
7157,note_on,0,0,0,,0,,,72,127
7405,note_off,248,0,0,,0,,,72,127
7405,note_off,0,0,0,,10,,,57,127
7408,note_on,3,0,0,,7,,,55,127
7408,note_on,0,0,0,,11,,,70,127
7656,note_off,248,0,0,,11,,,70,127
7656,note_off,0,0,0,,7,,,55,127
7659,note_on,3,0,0,,11,,,46,127
7659,note_on,0,0,0,,2,,,74,127
7907,note_off,248,0,0,,2,,,74,127
7910,note_on,3,0,0,,0,,,72,127
8033,note_off,123,0,0,,0,,,72,127
8036,note_on,3,0,0,,11,,,70,127
8159,note_off,123,0,0,,11,,,70,127
8159,note_off,0,0,0,,11,,,46,127
8162,note_on,3,0,0,,11,,,58,127
8162,note_on,0,0,0,,10,,,69,127
8285,note_off,123,0,0,,10,,,69,127
8288,note_on,3,0,0,,7,,,67,127
8411,note_off,123,0,0,,7,,,67,127
8414,note_on,3,0,0,,5,,,65,127
8662,note_off,248,0,0,,5,,,65,127
8665,note_on,3,0,0,,4,,,64,127
8913,note_off,248,0,0,,4,,,64,127
8913,note_off,0,0,0,,11,,,58,127
8916,note_on,3,0,0,,10,,,57,127
8916,note_on,0,0,0,,5,,,65,127
9164,note_off,248,0,0,,5,,,65,127
9164,note_off,0,0,0,,10,,,57,127
9167,note_on,3,0,0,,7,,,55,127
9167,note_on,0,0,0,,7,,,67,127
9415,note_off,248,0,0,,7,,,55,127
9418,note_on,3,0,0,,4,,,52,127
9666,note_off,248,0,0,,4,,,52,127
9666,note_off,0,0,0,,7,,,67,127
9669,note_on,3,0,0,,5,,,53,127
9669,note_on,0,0,0,,10,,,69,127
9917,note_off,248,0,0,,10,,,69,127
9917,note_off,0,0,0,,5,,,53,127
9920,note_on,3,0,0,,0,,,48,127
9920,note_on,0,0,0,,10,,,69,127
9980,note_off,60,0,0,,10,,,69,127
9983,note_on,3,0,0,,7,,,67,127
10043,note_off,60,0,0,,7,,,67,127
10046,note_on,3,0,0,,10,,,69,127
10106,note_off,60,0,0,,10,,,69,127
10109,note_on,3,0,0,,7,,,67,127
10172,note_on,63,0,0,,0,,,36,127
10605,note_off,433,0,0,,7,,,67,127
10670,note_off,65,0,0,,0,,,36,127
10671,note_off,1,0,0,,0,,,48,127
10672,note_on,1,0,0,,0,,,48,127
10797,note_on,125,0,0,,4,,,76,127
10920,note_off,123,0,0,,4,,,76,127
10923,note_on,3,0,0,,7,,,67,127
11046,note_off,123,0,0,,0,,,48,127
11049,note_on,3,0,0,,2,,,62,127
11172,note_off,123,0,0,,2,,,62,127
11175,note_on,3,0,0,,12,,,59,127
11298,note_off,123,0,0,,12,,,59,127
11298,note_off,0,0,0,,7,,,67,127
11301,note_on,3,0,0,,7,,,55,127
11301,note_on,0,0,0,,5,,,77,127
11424,note_off,123,0,0,,7,,,55,127
11427,note_on,3,0,0,,0,,,60,127
11550,note_off,123,0,0,,5,,,77,127
11553,note_on,3,0,0,,7,,,79,127
11676,note_off,123,0,0,,7,,,79,127
11679,note_on,3,0,0,,4,,,76,127
11802,note_off,123,0,0,,4,,,76,127
11802,note_off,0,0,0,,0,,,60,127
11805,note_on,3,0,0,,2,,,62,127
11805,note_on,0,0,0,,7,,,67,127
11928,note_off,123,0,0,,7,,,67,127
11928,note_off,0,0,0,,2,,,62,127
11931,note_on,3,0,0,,12,,,59,127
11931,note_on,0,0,0,,5,,,77,127
12054,note_off,123,0,0,,12,,,59,127
12057,note_on,3,0,0,,7,,,55,127
12180,note_off,123,0,0,,7,,,55,127
12183,note_on,3,0,0,,0,,,60,127
12306,note_off,123,0,0,,5,,,77,127
12309,note_on,3,0,0,,7,,,79,127
12432,note_off,123,0,0,,7,,,79,127
12435,note_on,3,0,0,,4,,,76,127
12558,note_off,123,0,0,,4,,,76,127
12558,note_off,0,0,0,,0,,,60,127
12561,note_on,3,0,0,,2,,,62,127
12561,note_on,0,0,0,,7,,,67,127
12684,note_off,123,0,0,,7,,,67,127
12684,note_off,0,0,0,,2,,,62,127
12687,note_on,3,0,0,,12,,,59,127
12687,note_on,0,0,0,,5,,,77,127
12810,note_off,123,0,0,,12,,,59,127
12813,note_on,3,0,0,,7,,,55,127
12936,note_off,123,0,0,,7,,,55,127
12939,note_on,3,0,0,,0,,,48,127
13187,note_off,248,0,0,,5,,,77,127
13190,note_on,3,0,0,,7,,,79,127
13190,note_on,0,0,0,,10,,,81,127
13250,note_off,60,0,0,,10,,,81,127
13250,note_off,0,0,0,,7,,,79,127
13253,note_on,3,0,0,,5,,,77,127
13313,note_off,60,0,0,,5,,,77,127
13316,note_on,3,0,0,,4,,,76,127
13376,note_off,60,0,0,,4,,,76,127
13379,note_on,3,0,0,,2,,,74,127
13439,note_off,60,0,0,,2,,,74,127
13442,note_on,3,0,0,,0,,,72,127
13690,note_off,248,0,0,,0,,,72,127
13690,note_off,0,0,0,,0,,,48,127
13693,note_on,3,0,0,,5,,,53,127
13818,note_on,125,0,0,,10,,,81,127
13941,note_off,123,0,0,,10,,,81,127
13944,note_on,3,0,0,,0,,,72,127
14067,note_off,123,0,0,,5,,,53,127
14070,note_on,3,0,0,,7,,,67,127
14193,note_off,123,0,0,,7,,,67,127
14196,note_on,3,0,0,,4,,,64,127
14319,note_off,123,0,0,,4,,,64,127
14319,note_off,0,0,0,,0,,,72,127
14322,note_on,3,0,0,,0,,,60,127
14322,note_on,0,0,0,,11,,,82,127
14445,note_off,123,0,0,,0,,,60,127
14448,note_on,3,0,0,,5,,,53,127
14571,note_off,123,0,0,,11,,,82,127
14574,note_on,3,0,0,,0,,,84,127
14697,note_off,123,0,0,,0,,,84,127
14700,note_on,3,0,0,,10,,,81,127
14823,note_off,123,0,0,,10,,,81,127
14823,note_off,0,0,0,,5,,,53,127
14826,note_on,3,0,0,,7,,,67,127
14826,note_on,0,0,0,,0,,,72,127
14949,note_off,123,0,0,,0,,,72,127
14949,note_off,0,0,0,,7,,,67,127
14952,note_on,3,0,0,,4,,,64,127
14952,note_on,0,0,0,,11,,,82,127
15075,note_off,123,0,0,,4,,,64,127
15078,note_on,3,0,0,,0,,,60,127
15201,note_off,123,0,0,,0,,,60,127
15204,note_on,3,0,0,,5,,,53,127
15327,note_off,123,0,0,,11,,,82,127
15330,note_on,3,0,0,,0,,,84,127
15453,note_off,123,0,0,,0,,,84,127
15456,note_on,3,0,0,,10,,,81,127
15579,note_off,123,0,0,,10,,,81,127
15579,note_off,0,0,0,,5,,,53,127
15582,note_on,3,0,0,,7,,,67,127
15582,note_on,0,0,0,,0,,,72,127
15705,note_off,123,0,0,,0,,,72,127
15705,note_off,0,0,0,,7,,,67,127
15708,note_on,3,0,0,,4,,,64,127
15708,note_on,0,0,0,,11,,,82,127
15831,note_off,123,0,0,,4,,,64,127
15834,note_on,3,0,0,,0,,,60,127
15957,note_off,123,0,0,,0,,,60,127
15960,note_on,3,0,0,,5,,,53,127
16208,note_off,248,0,0,,11,,,82,127
16211,note_on,3,0,0,,0,,,84,127
16211,note_on,0,0,0,,2,,,86,127
16271,note_off,60,0,0,,2,,,86,127
16271,note_off,0,0,0,,0,,,84,127
16274,note_on,3,0,0,,11,,,82,127
16334,note_off,60,0,0,,11,,,82,127
16337,note_on,3,0,0,,10,,,81,127
16397,note_off,60,0,0,,10,,,81,127
16400,note_on,3,0,0,,7,,,79,127
16460,note_off,60,0,0,,7,,,79,127
16463,note_on,3,0,0,,5,,,77,127
16711,note_off,248,0,0,,5,,,77,127
16711,note_off,0,0,0,,5,,,53,127
16714,note_on,3,0,0,,10,,,69,127
16714,note_on,0,0,0,,0,,,72,127
16837,note_off,123,0,0,,0,,,72,127
16837,note_off,0,0,0,,10,,,69,127
16840,note_on,3,0,0,,5,,,65,127
16840,note_on,0,0,0,,10,,,81,127
16963,note_off,123,0,0,,10,,,81,127
16963,note_off,0,0,0,,5,,,65,127
16966,note_on,3,0,0,,7,,,67,127
16966,note_on,0,0,0,,12,,,71,127
17089,note_off,123,0,0,,12,,,71,127
17089,note_off,0,0,0,,7,,,67,127
17092,note_on,3,0,0,,4,,,64,127
17092,note_on,0,0,0,,7,,,79,127
17215,note_off,123,0,0,,7,,,79,127
17215,note_off,0,0,0,,4,,,64,127
17218,note_on,3,0,0,,5,,,65,127
17218,note_on,0,0,0,,10,,,69,127
17341,note_off,123,0,0,,10,,,69,127
17341,note_off,0,0,0,,5,,,65,127
17344,note_on,3,0,0,,2,,,62,127
17344,note_on,0,0,0,,5,,,77,127
17467,note_off,123,0,0,,5,,,77,127
17467,note_off,0,0,0,,2,,,62,127
17470,note_on,3,0,0,,4,,,64,127
17470,note_on,0,0,0,,7,,,67,127
17593,note_off,123,0,0,,7,,,67,127
17593,note_off,0,0,0,,4,,,64,127
17596,note_on,3,0,0,,0,,,60,127
17596,note_on,0,0,0,,4,,,76,127
17719,note_off,123,0,0,,4,,,76,127
17719,note_off,0,0,0,,0,,,60,127
17722,note_on,3,0,0,,2,,,62,127
17722,note_on,0,0,0,,5,,,65,127
17845,note_off,123,0,0,,5,,,65,127
17845,note_off,0,0,0,,2,,,62,127
17848,note_on,3,0,0,,12,,,59,127
17848,note_on,0,0,0,,2,,,74,127
17971,note_off,123,0,0,,2,,,74,127
17971,note_off,0,0,0,,12,,,59,127
17974,note_on,3,0,0,,0,,,60,127
17974,note_on,0,0,0,,4,,,64,127
18097,note_off,123,0,0,,4,,,64,127
18097,note_off,0,0,0,,0,,,60,127
18100,note_on,3,0,0,,10,,,57,127
18100,note_on,0,0,0,,0,,,72,127
18223,note_off,123,0,0,,0,,,72,127
18223,note_off,0,0,0,,10,,,57,127
18226,note_on,3,0,0,,7,,,55,127
18226,note_on,0,0,0,,12,,,71,127
18226,note_on,0,0,0,,0,,,72,127
18349,note_off,123,0,0,,0,,,72,127
18349,note_off,0,0,0,,12,,,71,127
18352,note_on,3,0,0,,10,,,69,127
18475,note_off,123,0,0,,10,,,69,127
18478,note_on,3,0,0,,12,,,71,127
18601,note_off,123,0,0,,12,,,71,127
18604,note_on,3,0,0,,0,,,72,127
18727,note_off,123,0,0,,0,,,72,127
18730,note_on,3,0,0,,2,,,74,127
18978,note_off,248,0,0,,2,,,74,127
18978,note_off,0,0,0,,7,,,55,127
18981,note_on,3,0,0,,10,,,69,127
18981,note_on,0,0,0,,0,,,72,127
19104,note_off,123,0,0,,0,,,72,127
19104,note_off,0,0,0,,10,,,69,127
19107,note_on,3,0,0,,5,,,65,127
19107,note_on,0,0,0,,10,,,81,127
19230,note_off,123,0,0,,10,,,81,127
19230,note_off,0,0,0,,5,,,65,127
19233,note_on,3,0,0,,7,,,67,127
19233,note_on,0,0,0,,12,,,71,127
19356,note_off,123,0,0,,12,,,71,127
19356,note_off,0,0,0,,7,,,67,127
19359,note_on,3,0,0,,4,,,64,127
19359,note_on,0,0,0,,7,,,79,127
19482,note_off,123,0,0,,7,,,79,127
19482,note_off,0,0,0,,4,,,64,127
19485,note_on,3,0,0,,5,,,65,127
19485,note_on,0,0,0,,10,,,69,127
19608,note_off,123,0,0,,10,,,69,127
19608,note_off,0,0,0,,5,,,65,127
19611,note_on,3,0,0,,2,,,62,127
19611,note_on,0,0,0,,5,,,77,127
19734,note_off,123,0,0,,5,,,77,127
19734,note_off,0,0,0,,2,,,62,127
19737,note_on,3,0,0,,4,,,64,127
19737,note_on,0,0,0,,7,,,67,127
19860,note_off,123,0,0,,7,,,67,127
19860,note_off,0,0,0,,4,,,64,127
19863,note_on,3,0,0,,0,,,60,127
19863,note_on,0,0,0,,4,,,76,127
19986,note_off,123,0,0,,4,,,76,127
19986,note_off,0,0,0,,0,,,60,127
19989,note_on,3,0,0,,2,,,62,127
19989,note_on,0,0,0,,5,,,65,127
20112,note_off,123,0,0,,5,,,65,127
20112,note_off,0,0,0,,2,,,62,127
20115,note_on,3,0,0,,12,,,59,127
20115,note_on,0,0,0,,2,,,74,127
20238,note_off,123,0,0,,2,,,74,127
20238,note_off,0,0,0,,12,,,59,127
20241,note_on,3,0,0,,0,,,60,127
20241,note_on,0,0,0,,4,,,64,127
20364,note_off,123,0,0,,4,,,64,127
20364,note_off,0,0,0,,0,,,60,127
20367,note_on,3,0,0,,10,,,57,127
20367,note_on,0,0,0,,0,,,72,127
20490,note_off,123,0,0,,0,,,72,127
20490,note_off,0,0,0,,10,,,57,127
20493,note_on,3,0,0,,7,,,55,127
20493,note_on,0,0,0,,12,,,71,127
20493,note_on,0,0,0,,0,,,72,127
20616,note_off,123,0,0,,0,,,72,127
20616,note_off,0,0,0,,12,,,71,127
20619,note_on,3,0,0,,10,,,69,127
20742,note_off,123,0,0,,10,,,69,127
20745,note_on,3,0,0,,12,,,71,127
20868,note_off,123,0,0,,12,,,71,127
20871,note_on,3,0,0,,0,,,72,127
20994,note_off,123,0,0,,0,,,72,127
20997,note_on,3,0,0,,2,,,74,127
21245,note_off,248,0,0,,2,,,74,127
21245,note_off,0,0,0,,7,,,55,127
21248,note_on,3,0,0,,7,,,55,127
21248,note_on,0,0,0,,12,,,59,127
21248,note_on,0,0,0,,2,,,62,127
21371,note_off,123,0,0,,2,,,62,127
21371,note_off,0,0,0,,12,,,59,127
21374,note_on,3,0,0,,0,,,60,127
21374,note_on,0,0,0,,3,,,63,127
21497,note_off,123,0,0,,3,,,63,127
21497,note_off,0,0,0,,0,,,60,127
21500,note_on,3,0,0,,2,,,62,127
21500,note_on,0,0,0,,5,,,65,127
21623,note_off,123,0,0,,5,,,65,127
21623,note_off,0,0,0,,2,,,62,127
21626,note_on,3,0,0,,12,,,59,127
21626,note_on,0,0,0,,2,,,62,127
21749,note_off,123,0,0,,2,,,62,127
21749,note_off,0,0,0,,12,,,59,127
21752,note_on,3,0,0,,0,,,60,127
21752,note_on,0,0,0,,3,,,63,127
21875,note_off,123,0,0,,3,,,63,127
21875,note_off,0,0,0,,0,,,60,127
21878,note_on,3,0,0,,2,,,62,127
21878,note_on,0,0,0,,5,,,65,127
22001,note_off,123,0,0,,5,,,65,127
22001,note_off,0,0,0,,2,,,62,127
22004,note_on,3,0,0,,3,,,63,127
22004,note_on,0,0,0,,7,,,67,127
22127,note_off,123,0,0,,7,,,67,127
22127,note_off,0,0,0,,3,,,63,127
22130,note_on,3,0,0,,5,,,65,127
22130,note_on,0,0,0,,10,,,69,127
22253,note_off,123,0,0,,10,,,69,127
22253,note_off,0,0,0,,5,,,65,127
22256,note_on,3,0,0,,7,,,67,127
22256,note_on,0,0,0,,12,,,71,127
22379,note_off,123,0,0,,12,,,71,127
22379,note_off,0,0,0,,7,,,67,127
22382,note_on,3,0,0,,3,,,63,127
22382,note_on,0,0,0,,0,,,72,127
22505,note_off,123,0,0,,0,,,72,127
22505,note_off,0,0,0,,3,,,63,127
22508,note_on,3,0,0,,5,,,65,127
22508,note_on,0,0,0,,2,,,74,127
22631,note_off,123,0,0,,2,,,74,127
22631,note_off,0,0,0,,5,,,65,127
22634,note_on,3,0,0,,2,,,62,127
22634,note_on,0,0,0,,12,,,71,127
22757,note_off,123,0,0,,12,,,71,127
22757,note_off,0,0,0,,2,,,62,127
22760,note_on,3,0,0,,3,,,63,127
22760,note_on,0,0,0,,0,,,72,127
22883,note_off,123,0,0,,0,,,72,127
22883,note_off,0,0,0,,3,,,63,127
22886,note_on,3,0,0,,2,,,62,127
22886,note_on,0,0,0,,2,,,74,127
23009,note_off,123,0,0,,2,,,74,127
23009,note_off,0,0,0,,2,,,62,127
23012,note_on,3,0,0,,0,,,60,127
23012,note_on,0,0,0,,3,,,75,127
23135,note_off,123,0,0,,3,,,75,127
23135,note_off,0,0,0,,0,,,60,127
23138,note_on,3,0,0,,11,,,58,127
23138,note_on,0,0,0,,5,,,77,127
23261,note_off,123,0,0,,5,,,77,127
23261,note_off,0,0,0,,11,,,58,127
23264,note_on,3,0,0,,8,,,56,127
23264,note_on,0,0,0,,7,,,79,127
23387,note_off,123,0,0,,7,,,79,127
23390,note_on,3,0,0,,0,,,72,127
23505,note_off,115,0,0,,7,,,55,127
23513,note_off,8,0,0,,0,,,72,127
23513,note_off,0,0,0,,8,,,56,127
23516,note_on,3,0,0,,7,,,55,127
23516,note_on,0,0,0,,0,,,72,127
23576,note_off,60,0,0,,0,,,72,127
23579,note_on,3,0,0,,12,,,71,127
23639,note_off,60,0,0,,12,,,71,127
23642,note_on,3,0,0,,0,,,72,127
23702,note_off,60,0,0,,0,,,72,127
23705,note_on,3,0,0,,12,,,71,127
23890,note_off,185,0,0,,12,,,71,127
23893,note_on,3,0,0,,10,,,69,127
24016,note_off,123,0,0,,10,,,69,127
24019,note_on,3,0,0,,7,,,67,127
24267,note_off,248,0,0,,7,,,67,127
24267,note_off,0,0,0,,7,,,55,127
24270,note_on,3,0,0,,12,,,59,127
24270,note_on,0,0,0,,7,,,55,127
24270,note_on,0,0,0,,2,,,62,127
24393,note_off,123,0,0,,2,,,62,127
24393,note_off,0,0,0,,12,,,59,127
24396,note_on,3,0,0,,0,,,60,127
24396,note_on,0,0,0,,3,,,63,127
24519,note_off,123,0,0,,3,,,63,127
24519,note_off,0,0,0,,0,,,60,127
24522,note_on,3,0,0,,2,,,62,127
24522,note_on,0,0,0,,5,,,65,127
24645,note_off,123,0,0,,5,,,65,127
24645,note_off,0,0,0,,2,,,62,127
24648,note_on,3,0,0,,12,,,59,127
24648,note_on,0,0,0,,2,,,62,127
24771,note_off,123,0,0,,2,,,62,127
24771,note_off,0,0,0,,12,,,59,127
24774,note_on,3,0,0,,0,,,60,127
24774,note_on,0,0,0,,3,,,63,127
24897,note_off,123,0,0,,3,,,63,127
24897,note_off,0,0,0,,0,,,60,127
24900,note_on,3,0,0,,2,,,62,127
24900,note_on,0,0,0,,5,,,65,127
25023,note_off,123,0,0,,5,,,65,127
25023,note_off,0,0,0,,2,,,62,127
25026,note_on,3,0,0,,3,,,63,127
25026,note_on,0,0,0,,7,,,67,127
25149,note_off,123,0,0,,7,,,67,127
25149,note_off,0,0,0,,3,,,63,127
25152,note_on,3,0,0,,5,,,65,127
25152,note_on,0,0,0,,10,,,69,127
25275,note_off,123,0,0,,10,,,69,127
25275,note_off,0,0,0,,5,,,65,127
25278,note_on,3,0,0,,7,,,67,127
25278,note_on,0,0,0,,12,,,71,127
25401,note_off,123,0,0,,12,,,71,127
25401,note_off,0,0,0,,7,,,67,127
25404,note_on,3,0,0,,3,,,63,127
25404,note_on,0,0,0,,0,,,72,127
25527,note_off,123,0,0,,0,,,72,127
25527,note_off,0,0,0,,3,,,63,127
25530,note_on,3,0,0,,5,,,65,127
25530,note_on,0,0,0,,2,,,74,127
25653,note_off,123,0,0,,2,,,74,127
25653,note_off,0,0,0,,5,,,65,127
25656,note_on,3,0,0,,2,,,62,127
25656,note_on,0,0,0,,12,,,71,127
25779,note_off,123,0,0,,12,,,71,127
25779,note_off,0,0,0,,2,,,62,127
25782,note_on,3,0,0,,3,,,63,127
25782,note_on,0,0,0,,0,,,72,127
25905,note_off,123,0,0,,0,,,72,127
25905,note_off,0,0,0,,3,,,63,127
25908,note_on,3,0,0,,2,,,62,127
25908,note_on,0,0,0,,2,,,74,127
26031,note_off,123,0,0,,2,,,74,127
26031,note_off,0,0,0,,2,,,62,127
26034,note_on,3,0,0,,0,,,60,127
26034,note_on,0,0,0,,3,,,75,127
26157,note_off,123,0,0,,3,,,75,127
26157,note_off,0,0,0,,0,,,60,127
26160,note_on,3,0,0,,11,,,58,127
26160,note_on,0,0,0,,5,,,77,127
26283,note_off,123,0,0,,5,,,77,127
26283,note_off,0,0,0,,11,,,58,127
26286,note_on,3,0,0,,8,,,56,127
26286,note_on,0,0,0,,7,,,79,127
26409,note_off,123,0,0,,7,,,79,127
26412,note_on,3,0,0,,0,,,72,127
26527,note_off,115,0,0,,7,,,55,127
26535,note_off,8,0,0,,0,,,72,127
26535,note_off,0,0,0,,8,,,56,127
26538,note_on,3,0,0,,7,,,55,127
26538,note_on,0,0,0,,0,,,72,127
26598,note_off,60,0,0,,0,,,72,127
26601,note_on,3,0,0,,12,,,71,127
26661,note_off,60,0,0,,12,,,71,127
26664,note_on,3,0,0,,0,,,72,127
26724,note_off,60,0,0,,0,,,72,127
26727,note_on,3,0,0,,12,,,71,127
26912,note_off,185,0,0,,12,,,71,127
26915,note_on,3,0,0,,10,,,69,127
27038,note_off,123,0,0,,10,,,69,127
27041,note_on,3,0,0,,7,,,67,127
27289,note_off,248,0,0,,7,,,67,127
27289,note_off,0,0,0,,7,,,55,127
27292,note_on,3,0,0,,12,,,59,127
27292,note_on,0,0,0,,7,,,55,127
27292,note_on,0,0,0,,2,,,62,127
27415,note_off,123,0,0,,2,,,62,127
27415,note_off,0,0,0,,12,,,59,127
27418,note_on,3,0,0,,0,,,60,127
27418,note_on,0,0,0,,3,,,63,127
27541,note_off,123,0,0,,3,,,63,127
27541,note_off,0,0,0,,0,,,60,127
27544,note_on,3,0,0,,2,,,62,127
27544,note_on,0,0,0,,5,,,65,127
27667,note_off,123,0,0,,5,,,65,127
27667,note_off,0,0,0,,2,,,62,127
27670,note_on,3,0,0,,12,,,59,127
27670,note_on,0,0,0,,2,,,62,127
27790,note_off,120,0,0,,7,,,55,127
27793,note_off,3,0,0,,2,,,62,127
27793,note_off,0,0,0,,12,,,59,127
27796,note_on,3,0,0,,0,,,60,127
27796,note_on,0,0,0,,3,,,63,127
27919,note_off,123,0,0,,3,,,63,127
27919,note_off,0,0,0,,0,,,60,127
27922,note_on,3,0,0,,8,,,56,127
27922,note_on,0,0,0,,5,,,65,127
28045,note_off,123,0,0,,5,,,65,127
28045,note_off,0,0,0,,8,,,56,127
28048,note_on,3,0,0,,7,,,55,127
28048,note_on,0,0,0,,7,,,67,127
28171,note_off,123,0,0,,7,,,67,127
28174,note_on,3,0,0,,12,,,59,127
28174,note_on,0,0,0,,2,,,62,127
28297,note_off,123,0,0,,2,,,62,127
28297,note_off,0,0,0,,12,,,59,127
28300,note_on,3,0,0,,0,,,60,127
28300,note_on,0,0,0,,3,,,63,127
28423,note_off,123,0,0,,3,,,63,127
28423,note_off,0,0,0,,0,,,60,127
28426,note_off,3,0,0,,7,,,55,127
28426,note_on,0,0,0,,8,,,56,127
28426,note_on,0,0,0,,5,,,65,127
28549,note_off,123,0,0,,5,,,65,127
28549,note_off,0,0,0,,8,,,56,127
28552,note_on,3,0,0,,7,,,55,127
28552,note_on,0,0,0,,7,,,67,127
28675,note_off,123,0,0,,7,,,67,127
28678,note_on,3,0,0,,12,,,59,127
28678,note_on,0,0,0,,2,,,62,127
28801,note_off,123,0,0,,2,,,62,127
28801,note_off,0,0,0,,12,,,59,127
28804,note_on,3,0,0,,0,,,60,127
28804,note_on,0,0,0,,3,,,63,127
28927,note_off,123,0,0,,3,,,63,127
28927,note_off,0,0,0,,0,,,60,127
28930,note_off,3,0,0,,7,,,55,127
28930,note_on,0,0,0,,8,,,56,127
28930,note_on,0,0,0,,5,,,65,127
29053,note_off,123,0,0,,5,,,65,127
29053,note_off,0,0,0,,8,,,56,127
29056,note_on,3,0,0,,7,,,55,127
29056,note_on,0,0,0,,7,,,67,127
29179,note_off,123,0,0,,7,,,67,127
29182,note_on,3,0,0,,12,,,59,127
29182,note_on,0,0,0,,2,,,62,127
29305,note_off,123,0,0,,2,,,62,127
29305,note_off,0,0,0,,12,,,59,127
29308,note_on,3,0,0,,0,,,60,127
29308,note_on,0,0,0,,3,,,63,127
29431,note_off,123,0,0,,3,,,63,127
29431,note_off,0,0,0,,0,,,60,127
29434,note_off,3,0,0,,7,,,55,127
29434,note_on,0,0,0,,8,,,56,127
29434,note_on,0,0,0,,5,,,65,127
29557,note_off,123,0,0,,5,,,65,127
29557,note_off,0,0,0,,8,,,56,127
29560,note_on,3,0,0,,7,,,55,127
29560,note_on,0,0,0,,7,,,67,127
29560,note_on,0,0,0,,12,,,71,127
29683,note_off,123,0,0,,12,,,71,127
29686,note_on,3,0,0,,0,,,72,127
29809,note_off,123,0,0,,0,,,72,127
29812,note_on,3,0,0,,2,,,74,127
29935,note_off,123,0,0,,2,,,74,127
29938,note_off,3,0,0,,7,,,67,127
29938,note_on,0,0,0,,3,,,75,127
30061,note_off,123,0,0,,3,,,75,127
30064,note_on,3,0,0,,5,,,77,127
30187,note_off,123,0,0,,5,,,77,127
30190,note_on,3,0,0,,2,,,74,127
30313,note_off,123,0,0,,2,,,74,127
30313,note_off,0,0,0,,7,,,55,127
30316,note_on,3,0,0,,0,,,72,127
30316,note_on,0,0,0,,3,,,75,127
30439,note_off,123,0,0,,3,,,75,127
30439,note_off,0,0,0,,0,,,72,127
30442,note_on,3,0,0,,8,,,68,127
30442,note_on,0,0,0,,0,,,84,127
30565,note_off,123,0,0,,0,,,84,127
30565,note_off,0,0,0,,8,,,68,127
30568,note_on,3,0,0,,11,,,70,127
30568,note_on,0,0,0,,2,,,74,127
30691,note_off,123,0,0,,2,,,74,127
30691,note_off,0,0,0,,11,,,70,127
30694,note_on,3,0,0,,7,,,67,127
30694,note_on,0,0,0,,11,,,82,127
30817,note_off,123,0,0,,11,,,82,127
30817,note_off,0,0,0,,7,,,67,127
30820,note_on,3,0,0,,8,,,68,127
30820,note_on,0,0,0,,0,,,72,127
30943,note_off,123,0,0,,0,,,72,127
30943,note_off,0,0,0,,8,,,68,127
30946,note_on,3,0,0,,5,,,65,127
30946,note_on,0,0,0,,8,,,80,127
31069,note_off,123,0,0,,8,,,80,127
31069,note_off,0,0,0,,5,,,65,127
31072,note_on,3,0,0,,7,,,67,127
31072,note_on,0,0,0,,12,,,71,127
31195,note_off,123,0,0,,12,,,71,127
31195,note_off,0,0,0,,7,,,67,127
31198,note_on,3,0,0,,3,,,63,127
31198,note_on,0,0,0,,7,,,79,127
31321,note_off,123,0,0,,7,,,79,127
31321,note_off,0,0,0,,3,,,63,127
31324,note_on,3,0,0,,5,,,65,127
31324,note_on,0,0,0,,8,,,68,127
31447,note_off,123,0,0,,8,,,68,127
31447,note_off,0,0,0,,5,,,65,127
31450,note_on,3,0,0,,2,,,62,127
31450,note_on,0,0,0,,5,,,77,127
31573,note_off,123,0,0,,5,,,77,127
31573,note_off,0,0,0,,2,,,62,127
31576,note_on,3,0,0,,3,,,63,127
31576,note_on,0,0,0,,7,,,67,127
31699,note_off,123,0,0,,7,,,67,127
31699,note_off,0,0,0,,3,,,63,127
31702,note_on,3,0,0,,0,,,60,127
31702,note_on,0,0,0,,3,,,75,127
31825,note_off,123,0,0,,3,,,75,127
31825,note_off,0,0,0,,0,,,60,127
31828,note_on,3,0,0,,2,,,62,127
31828,note_on,0,0,0,,5,,,65,127
31951,note_off,123,0,0,,5,,,65,127
31951,note_off,0,0,0,,2,,,62,127
31954,note_on,3,0,0,,12,,,59,127
31954,note_on,0,0,0,,2,,,74,127
32077,note_off,123,0,0,,2,,,74,127
32077,note_off,0,0,0,,12,,,59,127
32080,note_on,3,0,0,,0,,,60,127
32080,note_on,0,0,0,,3,,,63,127
32203,note_off,123,0,0,,3,,,63,127
32206,note_on,3,0,0,,0,,,72,127
32329,note_off,123,0,0,,0,,,72,127
32329,note_off,0,0,0,,0,,,60,127
32332,note_on,3,0,0,,7,,,55,127
32332,note_on,0,0,0,,2,,,62,127
32455,note_off,123,0,0,,2,,,62,127
32458,note_on,3,0,0,,12,,,71,127
32581,note_off,123,0,0,,12,,,71,127
32581,note_off,0,0,0,,7,,,55,127
32584,note_on,3,0,0,,0,,,48,127
32584,note_on,0,0,0,,0,,,72,127
32707,note_off,123,0,0,,0,,,72,127
32710,note_on,3,0,0,,2,,,74,127
32833,note_off,123,0,0,,2,,,74,127
32836,note_on,3,0,0,,3,,,75,127
32959,note_off,123,0,0,,3,,,75,127
32959,note_off,0,0,0,,0,,,48,127
32962,note_on,3,0,0,,2,,,50,127
32962,note_on,0,0,0,,5,,,77,127
33085,note_off,123,0,0,,5,,,77,127
33085,note_off,0,0,0,,2,,,50,127
33088,note_on,3,0,0,,3,,,51,127
33088,note_on,0,0,0,,7,,,79,127
33213,note_on,125,0,0,,7,,,67,127
33336,note_off,123,0,0,,7,,,67,127
33336,note_off,0,0,0,,3,,,51,127
33339,note_on,3,0,0,,5,,,53,127
33339,note_on,0,0,0,,8,,,68,127
33454,note_off,115,0,0,,7,,,79,127
33464,note_on,10,0,0,,5,,,77,127
33587,note_off,123,0,0,,5,,,77,127
33587,note_off,0,0,0,,8,,,68,127
33587,note_off,0,0,0,,5,,,53,127
33590,note_on,3,0,0,,7,,,55,127
33590,note_on,0,0,0,,3,,,75,127
33713,note_off,123,0,0,,3,,,75,127
33716,note_on,3,0,0,,2,,,74,127
33839,note_off,123,0,0,,2,,,74,127
33842,note_on,3,0,0,,7,,,43,127
33842,note_on,0,0,0,,0,,,72,127
33965,note_off,123,0,0,,0,,,72,127
33968,note_on,3,0,0,,12,,,71,127
34088,note_off,120,0,0,,7,,,55,127
34091,note_off,3,0,0,,12,,,71,127
34091,note_off,0,0,0,,7,,,43,127
34094,note_on,3,0,0,,0,,,48,127
34094,note_on,0,0,0,,0,,,72,127
34217,note_off,123,0,0,,0,,,72,127
34220,note_on,3,0,0,,7,,,67,127
34343,note_off,123,0,0,,7,,,67,127
34346,note_on,3,0,0,,3,,,63,127
34469,note_off,123,0,0,,3,,,63,127
34472,note_on,3,0,0,,0,,,60,127
34595,note_off,123,0,0,,0,,,60,127
34598,note_on,3,0,0,,3,,,63,127
34721,note_off,123,0,0,,3,,,63,127
34724,note_on,3,0,0,,7,,,67,127
34847,note_off,123,0,0,,7,,,67,127
34847,note_off,0,0,0,,0,,,48,127
34850,note_on,3,0,0,,0,,,72,127
34850,note_on,0,0,0,,3,,,75,127
34973,note_off,123,0,0,,3,,,75,127
34973,note_off,0,0,0,,0,,,72,127
34976,note_on,3,0,0,,8,,,68,127
34976,note_on,0,0,0,,0,,,84,127
35099,note_off,123,0,0,,0,,,84,127
35099,note_off,0,0,0,,8,,,68,127
35102,note_on,3,0,0,,11,,,70,127
35102,note_on,0,0,0,,2,,,74,127
35225,note_off,123,0,0,,2,,,74,127
35225,note_off,0,0,0,,11,,,70,127
35228,note_on,3,0,0,,7,,,67,127
35228,note_on,0,0,0,,11,,,82,127
35351,note_off,123,0,0,,11,,,82,127
35351,note_off,0,0,0,,7,,,67,127
35354,note_on,3,0,0,,8,,,68,127
35354,note_on,0,0,0,,0,,,72,127
35477,note_off,123,0,0,,0,,,72,127
35477,note_off,0,0,0,,8,,,68,127
35480,note_on,3,0,0,,5,,,65,127
35480,note_on,0,0,0,,8,,,80,127
35603,note_off,123,0,0,,8,,,80,127
35603,note_off,0,0,0,,5,,,65,127
35606,note_on,3,0,0,,7,,,67,127
35606,note_on,0,0,0,,12,,,71,127
35729,note_off,123,0,0,,12,,,71,127
35729,note_off,0,0,0,,7,,,67,127
35732,note_on,3,0,0,,3,,,63,127
35732,note_on,0,0,0,,7,,,79,127
35855,note_off,123,0,0,,7,,,79,127
35855,note_off,0,0,0,,3,,,63,127
35858,note_on,3,0,0,,5,,,65,127
35858,note_on,0,0,0,,8,,,68,127
35981,note_off,123,0,0,,8,,,68,127
35981,note_off,0,0,0,,5,,,65,127
35984,note_on,3,0,0,,2,,,62,127
35984,note_on,0,0,0,,5,,,77,127
36107,note_off,123,0,0,,5,,,77,127
36107,note_off,0,0,0,,2,,,62,127
36110,note_on,3,0,0,,3,,,63,127
36110,note_on,0,0,0,,7,,,67,127
36233,note_off,123,0,0,,7,,,67,127
36233,note_off,0,0,0,,3,,,63,127
36236,note_on,3,0,0,,0,,,60,127
36236,note_on,0,0,0,,3,,,75,127
36359,note_off,123,0,0,,3,,,75,127
36359,note_off,0,0,0,,0,,,60,127
36362,note_on,3,0,0,,2,,,62,127
36362,note_on,0,0,0,,5,,,65,127
36485,note_off,123,0,0,,5,,,65,127
36485,note_off,0,0,0,,2,,,62,127
36488,note_on,3,0,0,,12,,,59,127
36488,note_on,0,0,0,,2,,,74,127
36611,note_off,123,0,0,,2,,,74,127
36611,note_off,0,0,0,,12,,,59,127
36614,note_on,3,0,0,,0,,,60,127
36614,note_on,0,0,0,,3,,,63,127
36737,note_off,123,0,0,,3,,,63,127
36740,note_on,3,0,0,,0,,,72,127
36863,note_off,123,0,0,,0,,,72,127
36863,note_off,0,0,0,,0,,,60,127
36866,note_on,3,0,0,,7,,,55,127
36866,note_on,0,0,0,,2,,,62,127
36989,note_off,123,0,0,,2,,,62,127
36992,note_on,3,0,0,,12,,,71,127
37115,note_off,123,0,0,,12,,,71,127
37115,note_off,0,0,0,,7,,,55,127
37118,note_on,3,0,0,,0,,,48,127
37118,note_on,0,0,0,,0,,,72,127
37241,note_off,123,0,0,,0,,,72,127
37244,note_on,3,0,0,,2,,,74,127
37367,note_off,123,0,0,,2,,,74,127
37370,note_on,3,0,0,,3,,,75,127
37493,note_off,123,0,0,,3,,,75,127
37493,note_off,0,0,0,,0,,,48,127
37496,note_on,3,0,0,,2,,,50,127
37496,note_on,0,0,0,,5,,,77,127
37619,note_off,123,0,0,,5,,,77,127
37619,note_off,0,0,0,,2,,,50,127
37622,note_on,3,0,0,,3,,,51,127
37622,note_on,0,0,0,,7,,,79,127
37747,note_on,125,0,0,,7,,,67,127
37870,note_off,123,0,0,,7,,,67,127
37870,note_off,0,0,0,,3,,,51,127
37873,note_on,3,0,0,,5,,,53,127
37873,note_on,0,0,0,,8,,,68,127
37988,note_off,115,0,0,,7,,,79,127
37998,note_on,10,0,0,,5,,,77,127
38121,note_off,123,0,0,,5,,,77,127
38121,note_off,0,0,0,,8,,,68,127
38121,note_off,0,0,0,,5,,,53,127
38124,note_on,3,0,0,,7,,,55,127
38124,note_on,0,0,0,,3,,,75,127
38247,note_off,123,0,0,,3,,,75,127
38250,note_on,3,0,0,,2,,,74,127
38373,note_off,123,0,0,,2,,,74,127
38376,note_on,3,0,0,,7,,,43,127
38376,note_on,0,0,0,,0,,,72,127
38499,note_off,123,0,0,,0,,,72,127
38502,note_on,3,0,0,,12,,,71,127
38622,note_off,120,0,0,,7,,,55,127
38625,note_off,3,0,0,,12,,,71,127
38625,note_off,0,0,0,,7,,,43,127
38628,note_on,3,0,0,,0,,,48,127
38628,note_on,0,0,0,,0,,,60,127
38628,note_on,0,0,0,,0,,,72,127
38751,note_off,123,0,0,,0,,,72,127
38754,note_on,3,0,0,,7,,,79,127
38754,note_on,0,0,0,,7,,,67,127
38877,note_off,123,0,0,,7,,,67,127
38877,note_off,0,0,0,,7,,,79,127
38880,note_on,3,0,0,,7,,,67,127
38880,note_on,0,0,0,,7,,,79,127
39003,note_off,123,0,0,,0,,,48,127
39006,note_on,3,0,0,,2,,,50,127
39129,note_off,123,0,0,,2,,,50,127
39132,note_on,3,0,0,,3,,,51,127
39255,note_off,123,0,0,,3,,,51,127
39258,note_on,3,0,0,,0,,,48,127
39381,note_off,123,0,0,,0,,,48,127
39384,note_on,3,0,0,,5,,,53,127
39507,note_off,123,0,0,,7,,,79,127
39507,note_off,0,0,0,,7,,,67,127
39507,note_off,0,0,0,,0,,,60,127
39510,note_on,3,0,0,,2,,,62,127
39510,note_on,0,0,0,,5,,,77,127
39633,note_off,123,0,0,,5,,,77,127
39633,note_off,0,0,0,,2,,,62,127
39633,note_off,0,0,0,,5,,,53,127
39636,note_on,3,0,0,,7,,,55,127
39636,note_on,0,0,0,,3,,,63,127
39636,note_on,0,0,0,,3,,,75,127
39759,note_off,123,0,0,,3,,,75,127
39762,note_on,3,0,0,,2,,,74,127
39885,note_off,123,0,0,,2,,,74,127
39885,note_off,0,0,0,,3,,,63,127
39888,note_on,3,0,0,,2,,,62,127
39888,note_on,0,0,0,,0,,,72,127
40011,note_off,123,0,0,,0,,,72,127
40014,note_on,3,0,0,,12,,,71,127
40134,note_off,120,0,0,,7,,,55,127
40137,note_off,3,0,0,,12,,,71,127
40137,note_off,0,0,0,,2,,,62,127
40140,note_on,3,0,0,,0,,,60,127
40140,note_on,0,0,0,,0,,,48,127
40140,note_on,0,0,0,,0,,,72,127
40263,note_off,123,0,0,,0,,,72,127
40266,note_on,3,0,0,,0,,,84,127
40266,note_on,0,0,0,,0,,,72,127
40389,note_off,123,0,0,,0,,,72,127
40389,note_off,0,0,0,,0,,,84,127
40392,note_on,3,0,0,,0,,,72,127
40392,note_on,0,0,0,,0,,,84,127
40515,note_off,123,0,0,,0,,,48,127
40518,note_on,3,0,0,,2,,,50,127
40641,note_off,123,0,0,,2,,,50,127
40644,note_on,3,0,0,,3,,,51,127
40767,note_off,123,0,0,,3,,,51,127
40770,note_on,3,0,0,,0,,,48,127
40893,note_off,123,0,0,,0,,,48,127
40896,note_on,3,0,0,,5,,,53,127
41019,note_off,123,0,0,,0,,,84,127
41019,note_off,0,0,0,,0,,,72,127
41019,note_off,0,0,0,,0,,,60,127
41022,note_on,3,0,0,,2,,,62,127
41022,note_on,0,0,0,,8,,,80,127
41145,note_off,123,0,0,,8,,,80,127
41145,note_off,0,0,0,,2,,,62,127
41145,note_off,0,0,0,,5,,,53,127
41148,note_on,3,0,0,,7,,,55,127
41148,note_on,0,0,0,,3,,,63,127
41148,note_on,0,0,0,,7,,,79,127
41271,note_off,123,0,0,,7,,,79,127
41274,note_on,3,0,0,,5,,,77,127
41397,note_off,123,0,0,,5,,,77,127
41397,note_off,0,0,0,,3,,,63,127
41400,note_on,3,0,0,,2,,,62,127
41400,note_on,0,0,0,,3,,,75,127
41523,note_off,123,0,0,,3,,,75,127
41526,note_on,3,0,0,,2,,,74,127
41646,note_off,120,0,0,,7,,,55,127
41649,note_off,3,0,0,,2,,,74,127
41649,note_off,0,0,0,,2,,,62,127
41652,note_on,3,0,0,,0,,,60,127
41652,note_on,0,0,0,,0,,,48,127
41652,note_on,0,0,0,,0,,,72,127
41775,note_off,123,0,0,,0,,,72,127
41778,note_on,3,0,0,,7,,,67,127
41778,note_on,0,0,0,,7,,,79,127
41901,note_off,123,0,0,,7,,,79,127
41901,note_off,0,0,0,,7,,,67,127
41904,note_on,3,0,0,,7,,,79,127
41904,note_on,0,0,0,,7,,,67,127
42027,note_off,123,0,0,,0,,,48,127
42030,note_on,3,0,0,,2,,,50,127
42153,note_off,123,0,0,,2,,,50,127
42156,note_on,3,0,0,,3,,,51,127
42279,note_off,123,0,0,,3,,,51,127
42282,note_on,3,0,0,,0,,,48,127
42405,note_off,123,0,0,,0,,,48,127
42408,note_on,3,0,0,,5,,,53,127
42531,note_off,123,0,0,,7,,,67,127
42531,note_off,0,0,0,,7,,,79,127
42531,note_off,0,0,0,,0,,,60,127
42534,note_on,3,0,0,,2,,,62,127
42534,note_on,0,0,0,,5,,,77,127
42657,note_off,123,0,0,,5,,,77,127
42657,note_off,0,0,0,,2,,,62,127
42657,note_off,0,0,0,,5,,,53,127
42660,note_on,3,0,0,,3,,,63,127
42660,note_on,0,0,0,,7,,,55,127
42660,note_on,0,0,0,,3,,,75,127
42783,note_off,123,0,0,,3,,,75,127
42786,note_on,3,0,0,,2,,,74,127
42909,note_off,123,0,0,,2,,,74,127
42909,note_off,0,0,0,,3,,,63,127
42912,note_on,3,0,0,,2,,,62,127
42912,note_on,0,0,0,,0,,,72,127
43035,note_off,123,0,0,,0,,,72,127
43038,note_on,3,0,0,,12,,,71,127
43158,note_off,120,0,0,,7,,,55,127
43161,note_off,3,0,0,,12,,,71,127
43161,note_off,0,0,0,,2,,,62,127
43164,note_on,3,0,0,,0,,,48,127
43164,note_on,0,0,0,,0,,,60,127
43164,note_on,0,0,0,,0,,,72,127
43287,note_off,123,0,0,,0,,,72,127
43290,note_on,3,0,0,,0,,,72,127
43290,note_on,0,0,0,,0,,,84,127
43413,note_off,123,0,0,,0,,,84,127
43413,note_off,0,0,0,,0,,,72,127
43416,note_on,3,0,0,,0,,,72,127
43416,note_on,0,0,0,,0,,,84,127
43539,note_off,123,0,0,,0,,,48,127
43542,note_on,3,0,0,,2,,,50,127
43665,note_off,123,0,0,,2,,,50,127
43668,note_on,3,0,0,,3,,,51,127
43791,note_off,123,0,0,,3,,,51,127
43794,note_on,3,0,0,,0,,,48,127
43917,note_off,123,0,0,,0,,,48,127
43920,note_on,3,0,0,,5,,,53,127
44043,note_off,123,0,0,,0,,,84,127
44043,note_off,0,0,0,,0,,,72,127
44043,note_off,0,0,0,,0,,,60,127
44046,note_on,3,0,0,,2,,,62,127
44046,note_on,0,0,0,,8,,,80,127
44169,note_off,123,0,0,,8,,,80,127
44169,note_off,0,0,0,,2,,,62,127
44169,note_off,0,0,0,,5,,,53,127
44172,note_on,3,0,0,,3,,,63,127
44172,note_on,0,0,0,,7,,,55,127
44172,note_on,0,0,0,,7,,,79,127
44295,note_off,123,0,0,,7,,,79,127
44298,note_on,3,0,0,,5,,,77,127
44421,note_off,123,0,0,,5,,,77,127
44421,note_off,0,0,0,,3,,,63,127
44424,note_on,3,0,0,,2,,,62,127
44424,note_on,0,0,0,,3,,,75,127
44547,note_off,123,0,0,,3,,,75,127
44550,note_on,3,0,0,,2,,,74,127
44670,note_off,120,0,0,,7,,,55,127
44673,note_off,3,0,0,,2,,,74,127
44673,note_off,0,0,0,,2,,,62,127
44676,note_on,3,0,0,,0,,,48,127
44676,note_on,0,0,0,,0,,,60,127
44676,note_on,0,0,0,,3,,,75,127
44799,note_off,123,0,0,,3,,,75,127
44802,note_on,3,0,0,,2,,,74,127
44925,note_off,123,0,0,,2,,,74,127
44925,note_off,0,0,0,,0,,,48,127
44928,note_on,3,0,0,,2,,,50,127
44928,note_on,0,0,0,,0,,,72,127
45051,note_off,123,0,0,,0,,,72,127
45054,note_on,3,0,0,,12,,,71,127
45177,note_off,123,0,0,,12,,,71,127
45177,note_off,0,0,0,,2,,,50,127
45180,note_on,3,0,0,,3,,,51,127
45180,note_on,0,0,0,,0,,,72,127
45303,note_off,123,0,0,,0,,,72,127
45306,note_on,3,0,0,,7,,,67,127
45429,note_off,123,0,0,,7,,,67,127
45429,note_off,0,0,0,,3,,,51,127
45430,note_off,1,0,0,,0,,,60,127
45431,note_on,1,0,0,,5,,,53,127
45431,note_on,0,0,0,,8,,,68,127
45554,note_off,123,0,0,,8,,,68,127
45557,note_on,3,0,0,,5,,,65,127
45680,note_off,123,0,0,,5,,,65,127
45680,note_off,0,0,0,,5,,,53,127
45683,note_on,3,0,0,,7,,,55,127
45683,note_on,0,0,0,,3,,,63,127
45808,note_on,125,0,0,,0,,,72,127
45931,note_off,123,0,0,,3,,,63,127
45934,note_on,3,0,0,,7,,,43,127
45934,note_on,0,0,0,,2,,,62,127
46057,note_off,123,0,0,,0,,,72,127
46060,note_on,3,0,0,,12,,,71,127
46180,note_off,120,0,0,,7,,,55,127
46183,note_off,3,0,0,,12,,,71,127
46183,note_off,0,0,0,,2,,,62,127
46183,note_off,0,0,0,,7,,,43,127
46186,note_on,3,0,0,,0,,,48,127
46186,note_on,0,0,0,,0,,,36,127
46186,note_on,0,0,0,,12,,,71,127
46684,note_off,498,0,0,,12,,,71,127
46687,note_on,3,0,0,,0,,,72,127
46935,note_off,248,0,0,,0,,,72,127
46935,note_off,0,0,0,,0,,,36,127
46935,note_off,0,0,0,,0,,,48,127
46938,note_on,3,0,0,,0,,,48,127
47186,note_off,248,0,0,,0,,,48,127
47189,note_on,3,0,0,,0,,,60,127
47189,note_on,0,0,0,,4,,,64,127
47437,note_off,248,0,0,,4,,,64,127
47437,note_off,0,0,0,,0,,,60,127
47440,note_on,3,0,0,,12,,,59,127
47440,note_on,0,0,0,,2,,,62,127
47688,note_off,248,0,0,,12,,,59,127
47691,note_on,3,0,0,,2,,,50,127
47816,note_off,125,0,0,,2,,,62,127
47939,note_off,123,0,0,,2,,,50,127
47942,note_on,3,0,0,,2,,,62,127
47942,note_on,0,0,0,,5,,,65,127
48190,note_off,248,0,0,,5,,,65,127
48190,note_off,0,0,0,,2,,,62,127
48193,note_on,3,0,0,,0,,,60,127
48193,note_on,0,0,0,,4,,,64,127
48441,note_off,248,0,0,,0,,,60,127
48444,note_on,3,0,0,,4,,,52,127
48569,note_off,125,0,0,,4,,,64,127
48692,note_off,123,0,0,,4,,,52,127
48695,note_on,3,0,0,,4,,,64,127
48695,note_on,0,0,0,,7,,,67,127
48943,note_off,248,0,0,,7,,,67,127
48943,note_off,0,0,0,,4,,,64,127
48946,note_on,3,0,0,,2,,,62,127
48946,note_on,0,0,0,,5,,,65,127
49194,note_off,248,0,0,,5,,,65,127
49194,note_off,0,0,0,,2,,,62,127
49197,note_on,3,0,0,,5,,,53,127
49197,note_on,0,0,0,,5,,,65,127
49197,note_on,0,0,0,,10,,,69,127
49445,note_off,248,0,0,,10,,,69,127
49445,note_off,0,0,0,,5,,,65,127
49445,note_off,0,0,0,,5,,,53,127
49448,note_on,3,0,0,,7,,,55,127
49448,note_on,0,0,0,,4,,,64,127
49448,note_on,0,0,0,,0,,,72,127
49529,note_off,81,0,0,,0,,,72,127
49532,note_on,3,0,0,,12,,,71,127
49613,note_off,81,0,0,,12,,,71,127
49616,note_on,3,0,0,,0,,,72,127
49697,note_off,81,0,0,,0,,,72,127
49697,note_off,0,0,0,,4,,,64,127
49700,note_on,3,0,0,,2,,,62,127
49700,note_on,0,0,0,,12,,,71,127
49781,note_off,81,0,0,,12,,,71,127
49784,note_on,3,0,0,,10,,,69,127
49865,note_off,81,0,0,,10,,,69,127
49868,note_on,3,0,0,,12,,,71,127
49946,note_off,78,0,0,,7,,,55,127
49949,note_off,3,0,0,,12,,,71,127
49949,note_off,0,0,0,,2,,,62,127
49952,note_on,3,0,0,,0,,,60,127
49952,note_on,0,0,0,,12,,,71,127
50202,note_on,250,0,0,,0,,,48,127
50450,note_off,248,0,0,,12,,,71,127
50453,note_on,3,0,0,,0,,,72,127
50662,note_off,209,0,0,,0,,,72,127
50701,note_off,39,0,0,,0,,,48,127
50702,note_off,1,0,0,,0,,,60,127
50703,note_on,1,0,0,,2,,,50,127
50951,note_off,248,0,0,,2,,,50,127
50954,note_on,3,0,0,,2,,,62,127
50954,note_on,0,0,0,,5,,,65,127
51202,note_off,248,0,0,,5,,,65,127
51202,note_off,0,0,0,,2,,,62,127
51205,note_on,3,0,0,,1,,,61,127
51205,note_on,0,0,0,,4,,,64,127
51453,note_off,248,0,0,,1,,,61,127
51456,note_on,3,0,0,,4,,,52,127
51581,note_off,125,0,0,,4,,,64,127
51704,note_off,123,0,0,,4,,,52,127
51707,note_on,3,0,0,,4,,,64,127
51707,note_on,0,0,0,,7,,,67,127
51955,note_off,248,0,0,,7,,,67,127
51955,note_off,0,0,0,,4,,,64,127
51958,note_on,3,0,0,,2,,,62,127
51958,note_on,0,0,0,,5,,,65,127
52206,note_off,248,0,0,,2,,,62,127
52209,note_on,3,0,0,,5,,,53,127
52334,note_off,125,0,0,,5,,,65,127
52457,note_off,123,0,0,,5,,,53,127
52460,note_on,3,0,0,,5,,,65,127
52460,note_on,0,0,0,,10,,,69,127
52708,note_off,248,0,0,,10,,,69,127
52708,note_off,0,0,0,,5,,,65,127
52711,note_on,3,0,0,,4,,,64,127
52711,note_on,0,0,0,,7,,,67,127
52959,note_off,248,0,0,,7,,,67,127
52959,note_off,0,0,0,,4,,,64,127
52962,note_on,3,0,0,,7,,,55,127
52962,note_on,0,0,0,,7,,,67,127
52962,note_on,0,0,0,,12,,,71,127
53210,note_off,248,0,0,,12,,,71,127
53210,note_off,0,0,0,,7,,,67,127
53210,note_off,0,0,0,,7,,,55,127
53213,note_on,3,0,0,,5,,,65,127
53213,note_on,0,0,0,,10,,,57,127
53213,note_on,0,0,0,,2,,,74,127
53294,note_off,81,0,0,,2,,,74,127
53297,note_on,3,0,0,,1,,,73,127
53378,note_off,81,0,0,,1,,,73,127
53381,note_on,3,0,0,,2,,,74,127
53462,note_off,81,0,0,,2,,,74,127
53462,note_off,0,0,0,,5,,,65,127
53465,note_on,3,0,0,,4,,,64,127
53465,note_on,0,0,0,,1,,,73,127
53546,note_off,81,0,0,,1,,,73,127
53549,note_on,3,0,0,,12,,,71,127
53630,note_off,81,0,0,,12,,,71,127
53633,note_on,3,0,0,,1,,,73,127
53711,note_off,78,0,0,,10,,,57,127
53714,note_off,3,0,0,,1,,,73,127
53714,note_off,0,0,0,,4,,,64,127
53717,note_on,3,0,0,,2,,,62,127
53717,note_on,0,0,0,,1,,,73,127
53967,note_on,250,0,0,,2,,,50,127
54215,note_off,248,0,0,,1,,,73,127
54218,note_on,3,0,0,,2,,,74,127
54466,note_off,248,0,0,,2,,,74,127
54466,note_off,0,0,0,,2,,,50,127
54467,note_off,1,0,0,,2,,,62,127
54468,note_on,1,0,0,,2,,,74,127
54468,note_on,0,0,0,,5,,,77,127
54591,note_off,123,0,0,,5,,,77,127
54591,note_off,0,0,0,,2,,,74,127
54594,note_on,3,0,0,,11,,,70,127
54594,note_on,0,0,0,,2,,,86,127
54717,note_off,123,0,0,,2,,,86,127
54717,note_off,0,0,0,,11,,,70,127
54720,note_on,3,0,0,,0,,,72,127
54720,note_on,0,0,0,,4,,,76,127
54843,note_off,123,0,0,,4,,,76,127
54843,note_off,0,0,0,,0,,,72,127
54846,note_on,3,0,0,,10,,,69,127
54846,note_on,0,0,0,,0,,,84,127
54969,note_off,123,0,0,,0,,,84,127
54969,note_off,0,0,0,,10,,,69,127
54972,note_on,3,0,0,,11,,,70,127
54972,note_on,0,0,0,,2,,,74,127
55095,note_off,123,0,0,,2,,,74,127
55095,note_off,0,0,0,,11,,,70,127
55098,note_on,3,0,0,,7,,,67,127
55098,note_on,0,0,0,,11,,,82,127
55221,note_off,123,0,0,,11,,,82,127
55221,note_off,0,0,0,,7,,,67,127
55224,note_on,3,0,0,,10,,,69,127
55224,note_on,0,0,0,,1,,,73,127
55347,note_off,123,0,0,,1,,,73,127
55347,note_off,0,0,0,,10,,,69,127
55350,note_on,3,0,0,,5,,,65,127
55350,note_on,0,0,0,,10,,,81,127
55473,note_off,123,0,0,,10,,,81,127
55473,note_off,0,0,0,,5,,,65,127
55476,note_on,3,0,0,,7,,,67,127
55476,note_on,0,0,0,,11,,,70,127
55599,note_off,123,0,0,,11,,,70,127
55599,note_off,0,0,0,,7,,,67,127
55602,note_on,3,0,0,,4,,,64,127
55602,note_on,0,0,0,,7,,,79,127
55725,note_off,123,0,0,,7,,,79,127
55725,note_off,0,0,0,,4,,,64,127
55728,note_on,3,0,0,,5,,,65,127
55728,note_on,0,0,0,,10,,,69,127
55851,note_off,123,0,0,,10,,,69,127
55851,note_off,0,0,0,,5,,,65,127
55854,note_on,3,0,0,,2,,,62,127
55854,note_on,0,0,0,,5,,,77,127
55977,note_off,123,0,0,,5,,,77,127
55977,note_off,0,0,0,,2,,,62,127
55980,note_on,3,0,0,,4,,,64,127
55980,note_on,0,0,0,,7,,,67,127
56103,note_off,123,0,0,,7,,,67,127
56103,note_off,0,0,0,,4,,,64,127
56106,note_on,3,0,0,,1,,,61,127
56106,note_on,0,0,0,,4,,,76,127
56229,note_off,123,0,0,,4,,,76,127
56229,note_off,0,0,0,,1,,,61,127
56232,note_on,3,0,0,,2,,,62,127
56232,note_on,0,0,0,,5,,,77,127
56355,note_off,123,0,0,,5,,,77,127
56358,note_on,3,0,0,,7,,,79,127
56481,note_off,123,0,0,,7,,,79,127
56481,note_off,0,0,0,,2,,,62,127
56484,note_on,3,0,0,,11,,,58,127
56484,note_on,0,0,0,,10,,,81,127
56607,note_off,123,0,0,,10,,,81,127
56610,note_on,3,0,0,,2,,,74,127
56733,note_off,123,0,0,,2,,,74,127
56733,note_off,0,0,0,,11,,,58,127
56736,note_on,3,0,0,,10,,,57,127
56736,note_on,0,0,0,,2,,,74,127
56796,note_off,60,0,0,,2,,,74,127
56799,note_on,3,0,0,,1,,,73,127
56859,note_off,60,0,0,,1,,,73,127
56862,note_on,3,0,0,,2,,,74,127
56922,note_off,60,0,0,,2,,,74,127
56925,note_on,3,0,0,,1,,,73,127
56988,note_on,63,0,0,,10,,,45,127
57111,note_off,123,0,0,,1,,,73,127
57114,note_on,3,0,0,,12,,,71,127
57237,note_off,123,0,0,,12,,,71,127
57240,note_on,3,0,0,,10,,,69,127
57488,note_off,248,0,0,,10,,,69,127
57488,note_off,0,0,0,,10,,,45,127
57489,note_off,1,0,0,,10,,,57,127
57490,note_on,1,0,0,,2,,,74,127
57490,note_on,0,0,0,,5,,,77,127
57613,note_off,123,0,0,,5,,,77,127
57613,note_off,0,0,0,,2,,,74,127
57616,note_on,3,0,0,,11,,,70,127
57616,note_on,0,0,0,,2,,,86,127
57739,note_off,123,0,0,,2,,,86,127
57739,note_off,0,0,0,,11,,,70,127
57742,note_on,3,0,0,,0,,,72,127
57742,note_on,0,0,0,,4,,,76,127
57865,note_off,123,0,0,,4,,,76,127
57865,note_off,0,0,0,,0,,,72,127
57868,note_on,3,0,0,,10,,,69,127
57868,note_on,0,0,0,,0,,,84,127
57991,note_off,123,0,0,,0,,,84,127
57991,note_off,0,0,0,,10,,,69,127
57994,note_on,3,0,0,,11,,,70,127
57994,note_on,0,0,0,,2,,,74,127
58117,note_off,123,0,0,,2,,,74,127
58117,note_off,0,0,0,,11,,,70,127
58120,note_on,3,0,0,,7,,,67,127
58120,note_on,0,0,0,,11,,,82,127
58243,note_off,123,0,0,,11,,,82,127
58243,note_off,0,0,0,,7,,,67,127
58246,note_on,3,0,0,,10,,,69,127
58246,note_on,0,0,0,,1,,,73,127
58369,note_off,123,0,0,,1,,,73,127
58369,note_off,0,0,0,,10,,,69,127
58372,note_on,3,0,0,,5,,,65,127
58372,note_on,0,0,0,,10,,,81,127
58495,note_off,123,0,0,,10,,,81,127
58495,note_off,0,0,0,,5,,,65,127
58498,note_on,3,0,0,,7,,,67,127
58498,note_on,0,0,0,,11,,,70,127
58621,note_off,123,0,0,,11,,,70,127
58621,note_off,0,0,0,,7,,,67,127
58624,note_on,3,0,0,,4,,,64,127
58624,note_on,0,0,0,,7,,,79,127
58747,note_off,123,0,0,,7,,,79,127
58747,note_off,0,0,0,,4,,,64,127
58750,note_on,3,0,0,,5,,,65,127
58750,note_on,0,0,0,,10,,,69,127
58873,note_off,123,0,0,,10,,,69,127
58873,note_off,0,0,0,,5,,,65,127
58876,note_on,3,0,0,,2,,,62,127
58876,note_on,0,0,0,,5,,,77,127
58999,note_off,123,0,0,,5,,,77,127
58999,note_off,0,0,0,,2,,,62,127
59002,note_on,3,0,0,,4,,,64,127
59002,note_on,0,0,0,,7,,,67,127
59125,note_off,123,0,0,,7,,,67,127
59125,note_off,0,0,0,,4,,,64,127
59128,note_on,3,0,0,,1,,,61,127
59128,note_on,0,0,0,,4,,,76,127
59251,note_off,123,0,0,,4,,,76,127
59251,note_off,0,0,0,,1,,,61,127
59254,note_on,3,0,0,,2,,,62,127
59254,note_on,0,0,0,,5,,,77,127
59377,note_off,123,0,0,,5,,,77,127
59380,note_on,3,0,0,,7,,,79,127
59503,note_off,123,0,0,,7,,,79,127
59503,note_off,0,0,0,,2,,,62,127
59506,note_on,3,0,0,,11,,,58,127
59506,note_on,0,0,0,,10,,,81,127
59629,note_off,123,0,0,,10,,,81,127
59632,note_on,3,0,0,,2,,,74,127
59755,note_off,123,0,0,,2,,,74,127
59755,note_off,0,0,0,,11,,,58,127
59758,note_on,3,0,0,,10,,,57,127
59758,note_on,0,0,0,,2,,,74,127
59818,note_off,60,0,0,,2,,,74,127
59821,note_on,3,0,0,,1,,,73,127
59881,note_off,60,0,0,,1,,,73,127
59884,note_on,3,0,0,,2,,,74,127
59944,note_off,60,0,0,,2,,,74,127
59947,note_on,3,0,0,,1,,,73,127
60010,note_on,63,0,0,,10,,,45,127
60133,note_off,123,0,0,,1,,,73,127
60136,note_on,3,0,0,,12,,,71,127
60259,note_off,123,0,0,,12,,,71,127
60262,note_on,3,0,0,,10,,,69,127
60510,note_off,248,0,0,,10,,,69,127
60510,note_off,0,0,0,,10,,,45,127
60511,note_off,1,0,0,,10,,,57,127
60512,note_on,1,0,0,,2,,,74,127
60512,note_on,0,0,0,,2,,,62,127
60637,note_on,125,0,0,,11,,,82,127
60760,note_off,123,0,0,,11,,,82,127
60763,note_on,3,0,0,,11,,,82,127
60763,note_on,0,0,0,,10,,,81,127
60886,note_off,123,0,0,,2,,,74,127
60889,note_on,3,0,0,,1,,,73,127
61012,note_off,123,0,0,,1,,,73,127
61015,note_on,3,0,0,,11,,,70,127
61138,note_off,123,0,0,,11,,,70,127
61138,note_off,0,0,0,,10,,,81,127
61138,note_off,0,0,0,,11,,,82,127
61141,note_on,3,0,0,,7,,,67,127
61141,note_on,0,0,0,,7,,,79,127
61264,note_off,123,0,0,,7,,,79,127
61264,note_off,0,0,0,,7,,,67,127
61265,note_off,1,0,0,,2,,,62,127
61266,note_on,1,0,0,,2,,,62,127
61266,note_on,0,0,0,,2,,,74,127
61266,note_on,0,0,0,,5,,,77,127
61389,note_off,123,0,0,,5,,,77,127
61392,note_on,3,0,0,,11,,,82,127
61515,note_off,123,0,0,,11,,,82,127
61518,note_on,3,0,0,,11,,,82,127
61518,note_on,0,0,0,,10,,,81,127
61641,note_off,123,0,0,,2,,,74,127
61644,note_on,3,0,0,,1,,,73,127
61767,note_off,123,0,0,,1,,,73,127
61770,note_on,3,0,0,,11,,,70,127
61893,note_off,123,0,0,,11,,,70,127
61893,note_off,0,0,0,,10,,,81,127
61893,note_off,0,0,0,,11,,,82,127
61896,note_on,3,0,0,,7,,,67,127
61896,note_on,0,0,0,,7,,,79,127
62019,note_off,123,0,0,,7,,,79,127
62019,note_off,0,0,0,,7,,,67,127
62020,note_off,1,0,0,,2,,,62,127
62021,note_on,1,0,0,,2,,,62,127
62021,note_on,0,0,0,,2,,,74,127
62021,note_on,0,0,0,,6,,,78,127
62144,note_off,123,0,0,,6,,,78,127
62147,note_on,3,0,0,,3,,,75,127
62270,note_off,123,0,0,,3,,,75,127
62270,note_off,0,0,0,,2,,,74,127
62270,note_off,0,0,0,,2,,,62,127
62273,note_on,3,0,0,,4,,,64,127
62273,note_on,0,0,0,,2,,,74,127
62396,note_off,123,0,0,,2,,,74,127
62399,note_on,3,0,0,,0,,,72,127
62522,note_off,123,0,0,,0,,,72,127
62522,note_off,0,0,0,,4,,,64,127
62525,note_on,3,0,0,,6,,,66,127
62525,note_on,0,0,0,,12,,,71,127
62648,note_off,123,0,0,,12,,,71,127
62651,note_on,3,0,0,,10,,,69,127
62774,note_off,123,0,0,,10,,,69,127
62774,note_off,0,0,0,,6,,,66,127
62777,note_on,3,0,0,,7,,,67,127
62777,note_on,0,0,0,,12,,,71,127
62900,note_off,123,0,0,,12,,,71,127
62903,note_on,3,0,0,,4,,,76,127
63026,note_off,123,0,0,,4,,,76,127
63029,note_on,3,0,0,,4,,,76,127
63029,note_on,0,0,0,,2,,,74,127
63152,note_off,123,0,0,,7,,,67,127
63155,note_on,3,0,0,,6,,,66,127
63278,note_off,123,0,0,,6,,,66,127
63281,note_on,3,0,0,,4,,,64,127
63404,note_off,123,0,0,,4,,,64,127
63404,note_off,0,0,0,,2,,,74,127
63404,note_off,0,0,0,,4,,,76,127
63407,note_on,3,0,0,,0,,,60,127
63407,note_on,0,0,0,,0,,,72,127
63530,note_off,123,0,0,,0,,,72,127
63530,note_off,0,0,0,,0,,,60,127
63533,note_on,3,0,0,,7,,,55,127
63533,note_on,0,0,0,,7,,,67,127
63533,note_on,0,0,0,,12,,,71,127
63656,note_off,123,0,0,,12,,,71,127
63659,note_on,3,0,0,,4,,,76,127
63782,note_off,123,0,0,,4,,,76,127
63785,note_on,3,0,0,,4,,,76,127
63785,note_on,0,0,0,,2,,,74,127
63908,note_off,123,0,0,,7,,,67,127
63911,note_on,3,0,0,,6,,,66,127
64034,note_off,123,0,0,,6,,,66,127
64037,note_on,3,0,0,,4,,,64,127
64160,note_off,123,0,0,,4,,,64,127
64160,note_off,0,0,0,,2,,,74,127
64160,note_off,0,0,0,,4,,,76,127
64163,note_on,3,0,0,,0,,,60,127
64163,note_on,0,0,0,,0,,,72,127
64286,note_off,123,0,0,,0,,,72,127
64286,note_off,0,0,0,,0,,,60,127
64287,note_off,1,0,0,,7,,,55,127
64288,note_on,1,0,0,,7,,,55,127
64288,note_on,0,0,0,,7,,,67,127
64288,note_on,0,0,0,,12,,,71,127
64411,note_off,123,0,0,,12,,,71,127
64414,note_on,3,0,0,,10,,,81,127
64537,note_off,123,0,0,,10,,,81,127
64537,note_off,0,0,0,,7,,,55,127
64540,note_on,3,0,0,,10,,,57,127
64540,note_on,0,0,0,,7,,,79,127
64663,note_off,123,0,0,,7,,,79,127
64666,note_off,3,0,0,,7,,,67,127
64666,note_on,0,0,0,,5,,,77,127
64789,note_off,123,0,0,,5,,,77,127
64789,note_off,0,0,0,,10,,,57,127
64792,note_on,3,0,0,,12,,,59,127
64792,note_on,0,0,0,,4,,,76,127
64915,note_off,123,0,0,,4,,,76,127
64918,note_on,3,0,0,,2,,,74,127
65041,note_off,123,0,0,,2,,,74,127
65041,note_off,0,0,0,,12,,,59,127
65044,note_on,3,0,0,,0,,,60,127
65044,note_on,0,0,0,,0,,,72,127
65044,note_on,0,0,0,,4,,,76,127
65167,note_off,123,0,0,,4,,,76,127
65170,note_on,3,0,0,,10,,,81,127
65293,note_off,123,0,0,,10,,,81,127
65296,note_on,3,0,0,,10,,,81,127
65296,note_on,0,0,0,,7,,,79,127
65419,note_off,123,0,0,,0,,,72,127
65422,note_on,3,0,0,,12,,,71,127
65545,note_off,123,0,0,,12,,,71,127
65548,note_on,3,0,0,,10,,,69,127
65671,note_off,123,0,0,,10,,,69,127
65671,note_off,0,0,0,,7,,,79,127
65671,note_off,0,0,0,,10,,,81,127
65674,note_on,3,0,0,,5,,,65,127
65674,note_on,0,0,0,,5,,,77,127
65797,note_off,123,0,0,,5,,,77,127
65797,note_off,0,0,0,,5,,,65,127
65798,note_off,1,0,0,,0,,,60,127
65799,note_on,1,0,0,,0,,,60,127
65799,note_on,0,0,0,,0,,,72,127
65799,note_on,0,0,0,,4,,,76,127
65922,note_off,123,0,0,,4,,,76,127
65925,note_on,3,0,0,,10,,,81,127
66048,note_off,123,0,0,,10,,,81,127
66051,note_on,3,0,0,,10,,,81,127
66051,note_on,0,0,0,,7,,,79,127
66174,note_off,123,0,0,,0,,,72,127
66177,note_on,3,0,0,,12,,,71,127
66300,note_off,123,0,0,,12,,,71,127
66303,note_on,3,0,0,,10,,,69,127
66426,note_off,123,0,0,,10,,,69,127
66426,note_off,0,0,0,,7,,,79,127
66426,note_off,0,0,0,,10,,,81,127
66429,note_on,3,0,0,,5,,,65,127
66429,note_on,0,0,0,,5,,,77,127
66552,note_off,123,0,0,,5,,,77,127
66552,note_off,0,0,0,,5,,,65,127
66553,note_off,1,0,0,,0,,,60,127
66554,note_on,1,0,0,,0,,,72,127
66554,note_on,0,0,0,,0,,,60,127
66554,note_on,0,0,0,,4,,,76,127
66677,note_off,123,0,0,,4,,,76,127
66680,note_on,3,0,0,,2,,,74,127
66803,note_off,123,0,0,,2,,,74,127
66803,note_off,0,0,0,,0,,,60,127
66803,note_off,0,0,0,,0,,,72,127
66806,note_on,3,0,0,,2,,,62,127
66806,note_on,0,0,0,,0,,,72,127
66929,note_off,123,0,0,,0,,,72,127
66932,note_on,3,0,0,,11,,,70,127
67055,note_off,123,0,0,,11,,,70,127
67055,note_off,0,0,0,,2,,,62,127
67058,note_on,3,0,0,,4,,,64,127
67058,note_on,0,0,0,,10,,,69,127
67181,note_off,123,0,0,,10,,,69,127
67184,note_on,3,0,0,,7,,,67,127
67307,note_off,123,0,0,,7,,,67,127
67307,note_off,0,0,0,,4,,,64,127
67310,note_on,3,0,0,,5,,,65,127
67310,note_on,0,0,0,,10,,,69,127
67433,note_off,123,0,0,,10,,,69,127
67433,note_off,0,0,0,,5,,,65,127
67436,note_on,3,0,0,,2,,,62,127
67436,note_on,0,0,0,,5,,,77,127
67559,note_off,123,0,0,,5,,,77,127
67559,note_off,0,0,0,,2,,,62,127
67562,note_on,3,0,0,,4,,,64,127
67562,note_on,0,0,0,,7,,,67,127
67685,note_off,123,0,0,,7,,,67,127
67685,note_off,0,0,0,,4,,,64,127
67688,note_on,3,0,0,,0,,,60,127
67688,note_on,0,0,0,,4,,,76,127
67811,note_off,123,0,0,,4,,,76,127
67811,note_off,0,0,0,,0,,,60,127
67814,note_on,3,0,0,,2,,,62,127
67814,note_on,0,0,0,,5,,,65,127
67937,note_off,123,0,0,,5,,,65,127
67937,note_off,0,0,0,,2,,,62,127
67940,note_on,3,0,0,,11,,,58,127
67940,note_on,0,0,0,,2,,,74,127
68063,note_off,123,0,0,,2,,,74,127
68063,note_off,0,0,0,,11,,,58,127
68066,note_on,3,0,0,,0,,,60,127
68066,note_on,0,0,0,,4,,,64,127
68189,note_off,123,0,0,,4,,,64,127
68189,note_off,0,0,0,,0,,,60,127
68192,note_on,3,0,0,,10,,,57,127
68192,note_on,0,0,0,,0,,,72,127
68315,note_off,123,0,0,,0,,,72,127
68315,note_off,0,0,0,,10,,,57,127
68318,note_on,3,0,0,,11,,,58,127
68318,note_on,0,0,0,,2,,,62,127
68441,note_off,123,0,0,,2,,,62,127
68441,note_off,0,0,0,,11,,,58,127
68444,note_on,3,0,0,,7,,,55,127
68444,note_on,0,0,0,,11,,,70,127
68567,note_off,123,0,0,,11,,,70,127
68567,note_off,0,0,0,,7,,,55,127
68570,note_on,3,0,0,,10,,,57,127
68570,note_on,0,0,0,,0,,,60,127
68693,note_off,123,0,0,,0,,,60,127
68693,note_off,0,0,0,,10,,,57,127
68696,note_on,3,0,0,,5,,,53,127
68696,note_on,0,0,0,,10,,,69,127
68819,note_off,123,0,0,,10,,,69,127
68819,note_off,0,0,0,,5,,,53,127
68822,note_on,3,0,0,,7,,,55,127
68822,note_on,0,0,0,,11,,,58,127
68945,note_off,123,0,0,,11,,,58,127
68945,note_off,0,0,0,,7,,,55,127
68948,note_on,3,0,0,,4,,,52,127
68948,note_on,0,0,0,,7,,,67,127
69071,note_off,123,0,0,,7,,,67,127
69071,note_off,0,0,0,,4,,,52,127
69074,note_on,3,0,0,,5,,,53,127
69074,note_on,0,0,0,,10,,,57,127
69197,note_off,123,0,0,,10,,,57,127
69200,note_on,3,0,0,,5,,,65,127
69323,note_off,123,0,0,,5,,,65,127
69323,note_off,0,0,0,,5,,,53,127
69326,note_on,3,0,0,,2,,,50,127
69326,note_on,0,0,0,,4,,,64,127
69449,note_off,123,0,0,,4,,,64,127
69452,note_on,3,0,0,,2,,,62,127
69575,note_off,123,0,0,,2,,,62,127
69575,note_off,0,0,0,,2,,,50,127
69578,note_on,3,0,0,,0,,,48,127
69578,note_on,0,0,0,,4,,,64,127
69701,note_off,123,0,0,,4,,,64,127
69704,note_on,3,0,0,,2,,,62,127
69827,note_off,123,0,0,,2,,,62,127
69830,note_on,3,0,0,,4,,,64,127
69953,note_off,123,0,0,,4,,,64,127
69956,note_on,3,0,0,,5,,,65,127
70079,note_off,123,0,0,,5,,,65,127
70082,note_on,3,0,0,,7,,,67,127
70330,note_off,248,0,0,,7,,,67,127
70330,note_off,0,0,0,,0,,,48,127
70333,note_on,3,0,0,,5,,,65,127
70333,note_on,0,0,0,,10,,,69,127
70456,note_off,123,0,0,,10,,,69,127
70456,note_off,0,0,0,,5,,,65,127
70459,note_on,3,0,0,,2,,,62,127
70459,note_on,0,0,0,,5,,,77,127
70582,note_off,123,0,0,,5,,,77,127
70582,note_off,0,0,0,,2,,,62,127
70585,note_on,3,0,0,,4,,,64,127
70585,note_on,0,0,0,,7,,,67,127
70708,note_off,123,0,0,,7,,,67,127
70708,note_off,0,0,0,,4,,,64,127
70711,note_on,3,0,0,,0,,,60,127
70711,note_on,0,0,0,,4,,,76,127
70834,note_off,123,0,0,,4,,,76,127
70834,note_off,0,0,0,,0,,,60,127
70837,note_on,3,0,0,,2,,,62,127
70837,note_on,0,0,0,,5,,,65,127
70960,note_off,123,0,0,,5,,,65,127
70960,note_off,0,0,0,,2,,,62,127
70963,note_on,3,0,0,,11,,,58,127
70963,note_on,0,0,0,,2,,,74,127
71086,note_off,123,0,0,,2,,,74,127
71086,note_off,0,0,0,,11,,,58,127
71089,note_on,3,0,0,,0,,,60,127
71089,note_on,0,0,0,,4,,,64,127
71212,note_off,123,0,0,,4,,,64,127
71212,note_off,0,0,0,,0,,,60,127
71215,note_on,3,0,0,,10,,,57,127
71215,note_on,0,0,0,,0,,,72,127
71338,note_off,123,0,0,,0,,,72,127
71338,note_off,0,0,0,,10,,,57,127
71341,note_on,3,0,0,,11,,,58,127
71341,note_on,0,0,0,,2,,,62,127
71464,note_off,123,0,0,,2,,,62,127
71464,note_off,0,0,0,,11,,,58,127
71467,note_on,3,0,0,,7,,,55,127
71467,note_on,0,0,0,,11,,,70,127
71590,note_off,123,0,0,,11,,,70,127
71590,note_off,0,0,0,,7,,,55,127
71593,note_on,3,0,0,,10,,,57,127
71593,note_on,0,0,0,,0,,,60,127
71716,note_off,123,0,0,,0,,,60,127
71716,note_off,0,0,0,,10,,,57,127
71719,note_on,3,0,0,,5,,,53,127
71719,note_on,0,0,0,,10,,,69,127
71842,note_off,123,0,0,,10,,,69,127
71842,note_off,0,0,0,,5,,,53,127
71845,note_on,3,0,0,,7,,,55,127
71845,note_on,0,0,0,,11,,,58,127
71968,note_off,123,0,0,,11,,,58,127
71968,note_off,0,0,0,,7,,,55,127
71971,note_on,3,0,0,,4,,,52,127
71971,note_on,0,0,0,,7,,,67,127
72094,note_off,123,0,0,,7,,,67,127
72094,note_off,0,0,0,,4,,,52,127
72097,note_on,3,0,0,,5,,,53,127
72097,note_on,0,0,0,,10,,,57,127
72220,note_off,123,0,0,,10,,,57,127
72223,note_on,3,0,0,,5,,,65,127
72346,note_off,123,0,0,,5,,,65,127
72346,note_off,0,0,0,,5,,,53,127
72349,note_on,3,0,0,,2,,,50,127
72349,note_on,0,0,0,,4,,,64,127
72472,note_off,123,0,0,,4,,,64,127
72475,note_on,3,0,0,,2,,,62,127
72598,note_off,123,0,0,,2,,,62,127
72598,note_off,0,0,0,,2,,,50,127
72601,note_on,3,0,0,,0,,,48,127
72601,note_on,0,0,0,,4,,,64,127
72724,note_off,123,0,0,,4,,,64,127
72727,note_on,3,0,0,,2,,,62,127
72850,note_off,123,0,0,,2,,,62,127
72853,note_on,3,0,0,,4,,,64,127
72976,note_off,123,0,0,,4,,,64,127
72979,note_on,3,0,0,,5,,,65,127
73102,note_off,123,0,0,,5,,,65,127
73105,note_on,3,0,0,,7,,,67,127
73353,note_off,248,0,0,,7,,,67,127
73353,note_off,0,0,0,,0,,,48,127
73356,note_on,3,0,0,,0,,,60,127
73356,note_on,0,0,0,,4,,,64,127
73479,note_off,123,0,0,,4,,,64,127
73482,note_on,3,0,0,,2,,,62,127
73482,note_on,0,0,0,,5,,,65,127
73605,note_off,123,0,0,,5,,,65,127
73605,note_off,0,0,0,,2,,,62,127
73608,note_on,3,0,0,,4,,,64,127
73608,note_on,0,0,0,,7,,,67,127
73723,note_off,115,0,0,,0,,,60,127
73731,note_off,8,0,0,,7,,,67,127
73731,note_off,0,0,0,,4,,,64,127
73734,note_on,3,0,0,,0,,,60,127
73734,note_on,0,0,0,,4,,,64,127
73857,note_off,123,0,0,,4,,,64,127
73860,note_on,3,0,0,,2,,,62,127
73860,note_on,0,0,0,,5,,,65,127
73983,note_off,123,0,0,,5,,,65,127
73983,note_off,0,0,0,,2,,,62,127
73986,note_on,3,0,0,,4,,,64,127
73986,note_on,0,0,0,,7,,,67,127
74109,note_off,123,0,0,,7,,,67,127
74109,note_off,0,0,0,,4,,,64,127
74112,note_on,3,0,0,,5,,,65,127
74112,note_on,0,0,0,,8,,,68,127
74235,note_off,123,0,0,,8,,,68,127
74235,note_off,0,0,0,,5,,,65,127
74238,note_on,3,0,0,,7,,,67,127
74238,note_on,0,0,0,,11,,,70,127
74361,note_off,123,0,0,,11,,,70,127
74361,note_off,0,0,0,,7,,,67,127
74364,note_on,3,0,0,,8,,,68,127
74364,note_on,0,0,0,,0,,,72,127
74487,note_off,123,0,0,,0,,,72,127
74487,note_off,0,0,0,,8,,,68,127
74490,note_on,3,0,0,,11,,,70,127
74490,note_on,0,0,0,,2,,,74,127
74613,note_off,123,0,0,,2,,,74,127
74613,note_off,0,0,0,,11,,,70,127
74616,note_on,3,0,0,,0,,,72,127
74616,note_on,0,0,0,,4,,,76,127
74739,note_off,123,0,0,,4,,,76,127
74739,note_off,0,0,0,,0,,,72,127
74742,note_on,3,0,0,,1,,,73,127
74742,note_on,0,0,0,,5,,,77,127
74865,note_off,123,0,0,,5,,,77,127
74865,note_off,0,0,0,,1,,,73,127
74868,note_on,3,0,0,,0,,,72,127
74868,note_on,0,0,0,,4,,,76,127
74991,note_off,123,0,0,,4,,,76,127
74994,note_on,3,0,0,,5,,,77,127
75117,note_off,123,0,0,,5,,,77,127
75117,note_off,0,0,0,,0,,,72,127
75120,note_on,3,0,0,,4,,,64,127
75120,note_on,0,0,0,,7,,,79,127
75243,note_off,123,0,0,,7,,,79,127
75246,note_off,3,0,0,,0,,,60,127
75246,note_on,0,0,0,,8,,,80,127
75369,note_off,123,0,0,,8,,,80,127
75369,note_off,0,0,0,,4,,,64,127
75372,note_on,3,0,0,,5,,,65,127
75372,note_on,0,0,0,,11,,,82,127
75495,note_off,123,0,0,,11,,,82,127
75498,note_on,3,0,0,,0,,,84,127
75621,note_off,123,0,0,,0,,,84,127
75621,note_off,0,0,0,,5,,,65,127
75624,note_on,3,0,0,,0,,,60,127
75624,note_on,0,0,0,,5,,,77,127
75684,note_off,60,0,0,,5,,,77,127
75687,note_on,3,0,0,,4,,,76,127
75747,note_off,60,0,0,,4,,,76,127
75750,note_on,3,0,0,,5,,,77,127
75810,note_off,60,0,0,,5,,,77,127
75813,note_on,3,0,0,,4,,,76,127
75998,note_off,185,0,0,,4,,,76,127
76001,note_on,3,0,0,,2,,,74,127
76124,note_off,123,0,0,,2,,,74,127
76127,note_on,3,0,0,,0,,,72,127
76375,note_off,248,0,0,,0,,,72,127
76375,note_off,0,0,0,,0,,,60,127
76378,note_on,3,0,0,,0,,,60,127
76378,note_on,0,0,0,,4,,,64,127
76501,note_off,123,0,0,,4,,,64,127
76504,note_on,3,0,0,,2,,,62,127
76504,note_on,0,0,0,,5,,,65,127
76627,note_off,123,0,0,,5,,,65,127
76627,note_off,0,0,0,,2,,,62,127
76630,note_on,3,0,0,,4,,,64,127
76630,note_on,0,0,0,,7,,,67,127
76745,note_off,115,0,0,,0,,,60,127
76753,note_off,8,0,0,,7,,,67,127
76753,note_off,0,0,0,,4,,,64,127
76756,note_on,3,0,0,,0,,,60,127
76756,note_on,0,0,0,,4,,,64,127
76879,note_off,123,0,0,,4,,,64,127
76882,note_on,3,0,0,,2,,,62,127
76882,note_on,0,0,0,,5,,,65,127
77005,note_off,123,0,0,,5,,,65,127
77005,note_off,0,0,0,,2,,,62,127
77008,note_on,3,0,0,,4,,,64,127
77008,note_on,0,0,0,,7,,,67,127
77131,note_off,123,0,0,,7,,,67,127
77131,note_off,0,0,0,,4,,,64,127
77134,note_on,3,0,0,,5,,,65,127
77134,note_on,0,0,0,,8,,,68,127
77257,note_off,123,0,0,,8,,,68,127
77257,note_off,0,0,0,,5,,,65,127
77260,note_on,3,0,0,,7,,,67,127
77260,note_on,0,0,0,,11,,,70,127
77383,note_off,123,0,0,,11,,,70,127
77383,note_off,0,0,0,,7,,,67,127
77386,note_on,3,0,0,,8,,,68,127
77386,note_on,0,0,0,,0,,,72,127
77509,note_off,123,0,0,,0,,,72,127
77509,note_off,0,0,0,,8,,,68,127
77512,note_on,3,0,0,,11,,,70,127
77512,note_on,0,0,0,,2,,,74,127
77635,note_off,123,0,0,,2,,,74,127
77635,note_off,0,0,0,,11,,,70,127
77638,note_on,3,0,0,,0,,,72,127
77638,note_on,0,0,0,,4,,,76,127
77761,note_off,123,0,0,,4,,,76,127
77761,note_off,0,0,0,,0,,,72,127
77764,note_on,3,0,0,,1,,,73,127
77764,note_on,0,0,0,,5,,,77,127
77887,note_off,123,0,0,,5,,,77,127
77887,note_off,0,0,0,,1,,,73,127
77890,note_on,3,0,0,,0,,,72,127
77890,note_on,0,0,0,,4,,,76,127
78013,note_off,123,0,0,,4,,,76,127
78016,note_on,3,0,0,,5,,,77,127
78139,note_off,123,0,0,,5,,,77,127
78139,note_off,0,0,0,,0,,,72,127
78142,note_on,3,0,0,,4,,,64,127
78142,note_on,0,0,0,,7,,,79,127
78265,note_off,123,0,0,,7,,,79,127
78268,note_off,3,0,0,,0,,,60,127
78268,note_on,0,0,0,,8,,,80,127
78391,note_off,123,0,0,,8,,,80,127
78391,note_off,0,0,0,,4,,,64,127
78394,note_on,3,0,0,,5,,,65,127
78394,note_on,0,0,0,,11,,,82,127
78517,note_off,123,0,0,,11,,,82,127
78520,note_on,3,0,0,,0,,,84,127
78643,note_off,123,0,0,,0,,,84,127
78643,note_off,0,0,0,,5,,,65,127
78646,note_on,3,0,0,,0,,,60,127
78646,note_on,0,0,0,,5,,,77,127
78706,note_off,60,0,0,,5,,,77,127
78709,note_on,3,0,0,,4,,,76,127
78769,note_off,60,0,0,,4,,,76,127
78772,note_on,3,0,0,,5,,,77,127
78832,note_off,60,0,0,,5,,,77,127
78835,note_on,3,0,0,,4,,,76,127
79020,note_off,185,0,0,,4,,,76,127
79023,note_on,3,0,0,,2,,,74,127
79146,note_off,123,0,0,,2,,,74,127
79149,note_on,3,0,0,,0,,,72,127
79397,note_off,248,0,0,,0,,,72,127
79397,note_off,0,0,0,,0,,,60,127
79400,note_on,3,0,0,,4,,,64,127
79400,note_on,0,0,0,,0,,,60,127
79400,note_on,0,0,0,,7,,,67,127
79523,note_off,123,0,0,,7,,,67,127
79523,note_off,0,0,0,,4,,,64,127
79526,note_on,3,0,0,,5,,,65,127
79526,note_on,0,0,0,,8,,,68,127
79649,note_off,123,0,0,,8,,,68,127
79649,note_off,0,0,0,,5,,,65,127
79652,note_on,3,0,0,,7,,,67,127
79652,note_on,0,0,0,,11,,,70,127
79775,note_off,123,0,0,,11,,,70,127
79775,note_off,0,0,0,,7,,,67,127
79778,note_off,3,0,0,,0,,,60,127
79778,note_on,0,0,0,,4,,,64,127
79778,note_on,0,0,0,,7,,,67,127
79901,note_off,123,0,0,,7,,,67,127
79901,note_off,0,0,0,,4,,,64,127
79904,note_on,3,0,0,,5,,,65,127
79904,note_on,0,0,0,,8,,,68,127
80027,note_off,123,0,0,,8,,,68,127
80027,note_off,0,0,0,,5,,,65,127
80030,note_on,3,0,0,,1,,,61,127
80030,note_on,0,0,0,,11,,,70,127
80030,note_on,0,0,0,,5,,,77,127
80153,note_off,123,0,0,,5,,,77,127
80153,note_off,0,0,0,,11,,,70,127
80153,note_off,0,0,0,,1,,,61,127
80156,note_on,3,0,0,,0,,,60,127
80156,note_on,0,0,0,,0,,,72,127
80156,note_on,0,0,0,,4,,,76,127
80279,note_off,123,0,0,,4,,,76,127
80279,note_off,0,0,0,,0,,,72,127
80282,note_on,3,0,0,,4,,,64,127
80282,note_on,0,0,0,,7,,,67,127
80405,note_off,123,0,0,,7,,,67,127
80405,note_off,0,0,0,,4,,,64,127
80408,note_on,3,0,0,,5,,,65,127
80408,note_on,0,0,0,,8,,,68,127
80531,note_off,123,0,0,,8,,,68,127
80531,note_off,0,0,0,,5,,,65,127
80534,note_off,3,0,0,,0,,,60,127
80534,note_on,0,0,0,,1,,,61,127
80534,note_on,0,0,0,,11,,,70,127
80534,note_on,0,0,0,,5,,,77,127
80657,note_off,123,0,0,,5,,,77,127
80657,note_off,0,0,0,,11,,,70,127
80657,note_off,0,0,0,,1,,,61,127
80660,note_on,3,0,0,,0,,,60,127
80660,note_on,0,0,0,,0,,,72,127
80660,note_on,0,0,0,,4,,,76,127
80783,note_off,123,0,0,,4,,,76,127
80783,note_off,0,0,0,,0,,,72,127
80786,note_on,3,0,0,,4,,,64,127
80786,note_on,0,0,0,,7,,,67,127
80909,note_off,123,0,0,,7,,,67,127
80909,note_off,0,0,0,,4,,,64,127
80912,note_on,3,0,0,,5,,,65,127
80912,note_on,0,0,0,,8,,,68,127
81035,note_off,123,0,0,,8,,,68,127
81035,note_off,0,0,0,,5,,,65,127
81038,note_off,3,0,0,,0,,,60,127
81038,note_on,0,0,0,,1,,,61,127
81038,note_on,0,0,0,,11,,,70,127
81038,note_on,0,0,0,,5,,,77,127
81161,note_off,123,0,0,,5,,,77,127
81161,note_off,0,0,0,,11,,,70,127
81161,note_off,0,0,0,,1,,,61,127
81164,note_on,3,0,0,,0,,,60,127
81164,note_on,0,0,0,,0,,,72,127
81164,note_on,0,0,0,,4,,,76,127
81287,note_off,123,0,0,,4,,,76,127
81287,note_off,0,0,0,,0,,,72,127
81290,note_on,3,0,0,,4,,,64,127
81290,note_on,0,0,0,,7,,,67,127
81413,note_off,123,0,0,,7,,,67,127
81413,note_off,0,0,0,,4,,,64,127
81416,note_on,3,0,0,,5,,,65,127
81416,note_on,0,0,0,,8,,,68,127
81539,note_off,123,0,0,,8,,,68,127
81539,note_off,0,0,0,,5,,,65,127
81542,note_off,3,0,0,,0,,,60,127
81542,note_on,0,0,0,,1,,,61,127
81542,note_on,0,0,0,,11,,,70,127
81542,note_on,0,0,0,,5,,,77,127
81665,note_off,123,0,0,,5,,,77,127
81665,note_off,0,0,0,,11,,,70,127
81665,note_off,0,0,0,,1,,,61,127
81668,note_on,3,0,0,,0,,,60,127
81668,note_on,0,0,0,,0,,,72,127
81668,note_on,0,0,0,,4,,,76,127
81791,note_off,123,0,0,,4,,,76,127
81791,note_off,0,0,0,,0,,,72,127
81794,note_on,3,0,0,,1,,,73,127
81917,note_off,123,0,0,,1,,,73,127
81920,note_on,3,0,0,,0,,,72,127
82043,note_off,123,0,0,,0,,,72,127
82046,note_on,3,0,0,,11,,,70,127
82169,note_off,123,0,0,,11,,,70,127
82172,note_on,3,0,0,,8,,,68,127
82295,note_off,123,0,0,,8,,,68,127
82298,note_on,3,0,0,,7,,,67,127
82421,note_off,123,0,0,,7,,,67,127
82421,note_off,0,0,0,,0,,,60,127
82424,note_on,3,0,0,,5,,,65,127
82424,note_on,0,0,0,,8,,,68,127
82547,note_off,123,0,0,,8,,,68,127
82547,note_off,0,0,0,,5,,,65,127
82550,note_on,3,0,0,,1,,,61,127
82550,note_on,0,0,0,,5,,,77,127
82673,note_off,123,0,0,,5,,,77,127
82673,note_off,0,0,0,,1,,,61,127
82676,note_on,3,0,0,,3,,,63,127
82676,note_on,0,0,0,,7,,,67,127
82799,note_off,123,0,0,,7,,,67,127
82799,note_off,0,0,0,,3,,,63,127
82802,note_on,3,0,0,,0,,,60,127
82802,note_on,0,0,0,,3,,,75,127
82925,note_off,123,0,0,,3,,,75,127
82925,note_off,0,0,0,,0,,,60,127
82928,note_on,3,0,0,,1,,,61,127
82928,note_on,0,0,0,,5,,,65,127
83051,note_off,123,0,0,,5,,,65,127
83051,note_off,0,0,0,,1,,,61,127
83054,note_on,3,0,0,,11,,,58,127
83054,note_on,0,0,0,,1,,,73,127
83177,note_off,123,0,0,,1,,,73,127
83177,note_off,0,0,0,,11,,,58,127
83180,note_on,3,0,0,,0,,,60,127
83180,note_on,0,0,0,,4,,,64,127
83303,note_off,123,0,0,,4,,,64,127
83303,note_off,0,0,0,,0,,,60,127
83306,note_on,3,0,0,,8,,,56,127
83306,note_on,0,0,0,,0,,,72,127
83429,note_off,123,0,0,,0,,,72,127
83429,note_off,0,0,0,,8,,,56,127
83432,note_on,3,0,0,,11,,,58,127
83432,note_on,0,0,0,,1,,,61,127
83555,note_off,123,0,0,,1,,,61,127
83555,note_off,0,0,0,,11,,,58,127
83558,note_on,3,0,0,,7,,,55,127
83558,note_on,0,0,0,,11,,,70,127
83681,note_off,123,0,0,,11,,,70,127
83681,note_off,0,0,0,,7,,,55,127
83684,note_on,3,0,0,,8,,,56,127
83684,note_on,0,0,0,,0,,,60,127
83807,note_off,123,0,0,,0,,,60,127
83807,note_off,0,0,0,,8,,,56,127
83810,note_on,3,0,0,,5,,,53,127
83810,note_on,0,0,0,,8,,,68,127
83933,note_off,123,0,0,,8,,,68,127
83933,note_off,0,0,0,,5,,,53,127
83936,note_on,3,0,0,,7,,,55,127
83936,note_on,0,0,0,,11,,,58,127
84059,note_off,123,0,0,,11,,,58,127
84059,note_off,0,0,0,,7,,,55,127
84062,note_on,3,0,0,,4,,,52,127
84062,note_on,0,0,0,,7,,,67,127
84185,note_off,123,0,0,,7,,,67,127
84185,note_off,0,0,0,,4,,,52,127
84188,note_on,3,0,0,,5,,,53,127
84188,note_on,0,0,0,,8,,,56,127
84311,note_off,123,0,0,,8,,,56,127
84314,note_on,3,0,0,,5,,,65,127
84437,note_off,123,0,0,,5,,,65,127
84437,note_off,0,0,0,,5,,,53,127
84440,note_on,3,0,0,,0,,,48,127
84440,note_on,0,0,0,,7,,,55,127
84563,note_off,123,0,0,,7,,,55,127
84566,note_on,3,0,0,,4,,,64,127
84689,note_off,123,0,0,,4,,,64,127
84689,note_off,0,0,0,,0,,,48,127
84692,note_on,3,0,0,,5,,,53,127
84692,note_on,0,0,0,,5,,,65,127
84815,note_off,123,0,0,,5,,,65,127
84818,note_on,3,0,0,,7,,,67,127
84941,note_off,123,0,0,,7,,,67,127
84944,note_on,3,0,0,,8,,,68,127
85067,note_off,123,0,0,,8,,,68,127
85067,note_off,0,0,0,,5,,,53,127
85070,note_on,3,0,0,,7,,,55,127
85070,note_on,0,0,0,,11,,,70,127
85193,note_off,123,0,0,,11,,,70,127
85193,note_off,0,0,0,,7,,,55,127
85196,note_on,3,0,0,,8,,,56,127
85196,note_on,0,0,0,,0,,,72,127
85321,note_on,125,0,0,,0,,,60,127
85444,note_off,123,0,0,,0,,,60,127
85444,note_off,0,0,0,,8,,,56,127
85447,note_on,3,0,0,,11,,,58,127
85447,note_on,0,0,0,,1,,,61,127
85562,note_off,115,0,0,,0,,,72,127
85572,note_on,10,0,0,,11,,,70,127
85695,note_off,123,0,0,,11,,,70,127
85695,note_off,0,0,0,,1,,,61,127
85695,note_off,0,0,0,,11,,,58,127
85698,note_on,3,0,0,,0,,,60,127
85698,note_on,0,0,0,,8,,,68,127
85821,note_off,123,0,0,,8,,,68,127
85824,note_on,3,0,0,,7,,,67,127
85947,note_off,123,0,0,,7,,,67,127
85950,note_on,3,0,0,,0,,,48,127
85950,note_on,0,0,0,,5,,,65,127
86073,note_off,123,0,0,,5,,,65,127
86076,note_on,3,0,0,,4,,,64,127
86196,note_off,120,0,0,,0,,,60,127
86199,note_off,3,0,0,,4,,,64,127
86199,note_off,0,0,0,,0,,,48,127
86202,note_on,3,0,0,,5,,,41,127
86202,note_on,0,0,0,,5,,,65,127
86325,note_off,123,0,0,,5,,,65,127
86328,note_on,3,0,0,,0,,,60,127
86451,note_off,123,0,0,,0,,,60,127
86454,note_on,3,0,0,,8,,,56,127
86577,note_off,123,0,0,,8,,,56,127
86580,note_on,3,0,0,,5,,,53,127
86703,note_off,123,0,0,,5,,,53,127
86706,note_on,3,0,0,,8,,,56,127
86829,note_off,123,0,0,,8,,,56,127
86832,note_off,3,0,0,,5,,,41,127
86832,note_on,0,0,0,,0,,,60,127
86955,note_off,123,0,0,,0,,,60,127
86958,note_on,3,0,0,,5,,,65,127
86958,note_on,0,0,0,,8,,,68,127
87081,note_off,123,0,0,,8,,,68,127
87081,note_off,0,0,0,,5,,,65,127
87084,note_on,3,0,0,,1,,,61,127
87084,note_on,0,0,0,,5,,,77,127
87207,note_off,123,0,0,,5,,,77,127
87207,note_off,0,0,0,,1,,,61,127
87210,note_on,3,0,0,,3,,,63,127
87210,note_on,0,0,0,,7,,,67,127
87333,note_off,123,0,0,,7,,,67,127
87333,note_off,0,0,0,,3,,,63,127
87336,note_on,3,0,0,,0,,,60,127
87336,note_on,0,0,0,,3,,,75,127
87459,note_off,123,0,0,,3,,,75,127
87459,note_off,0,0,0,,0,,,60,127
87462,note_on,3,0,0,,1,,,61,127
87462,note_on,0,0,0,,5,,,65,127
87585,note_off,123,0,0,,5,,,65,127
87585,note_off,0,0,0,,1,,,61,127
87588,note_on,3,0,0,,11,,,58,127
87588,note_on,0,0,0,,1,,,73,127
87711,note_off,123,0,0,,1,,,73,127
87711,note_off,0,0,0,,11,,,58,127
87714,note_on,3,0,0,,0,,,60,127
87714,note_on,0,0,0,,4,,,64,127
87837,note_off,123,0,0,,4,,,64,127
87837,note_off,0,0,0,,0,,,60,127
87840,note_on,3,0,0,,8,,,56,127
87840,note_on,0,0,0,,0,,,72,127
87963,note_off,123,0,0,,0,,,72,127
87963,note_off,0,0,0,,8,,,56,127
87966,note_on,3,0,0,,11,,,58,127
87966,note_on,0,0,0,,1,,,61,127
88089,note_off,123,0,0,,1,,,61,127
88089,note_off,0,0,0,,11,,,58,127
88092,note_on,3,0,0,,7,,,55,127
88092,note_on,0,0,0,,11,,,70,127
88215,note_off,123,0,0,,11,,,70,127
88215,note_off,0,0,0,,7,,,55,127
88218,note_on,3,0,0,,8,,,56,127
88218,note_on,0,0,0,,0,,,60,127
88341,note_off,123,0,0,,0,,,60,127
88341,note_off,0,0,0,,8,,,56,127
88344,note_on,3,0,0,,5,,,53,127
88344,note_on,0,0,0,,8,,,68,127
88467,note_off,123,0,0,,8,,,68,127
88467,note_off,0,0,0,,5,,,53,127
88470,note_on,3,0,0,,7,,,55,127
88470,note_on,0,0,0,,11,,,58,127
88593,note_off,123,0,0,,11,,,58,127
88593,note_off,0,0,0,,7,,,55,127
88596,note_on,3,0,0,,4,,,52,127
88596,note_on,0,0,0,,7,,,67,127
88719,note_off,123,0,0,,7,,,67,127
88719,note_off,0,0,0,,4,,,52,127
88722,note_on,3,0,0,,5,,,53,127
88722,note_on,0,0,0,,8,,,56,127
88845,note_off,123,0,0,,8,,,56,127
88848,note_on,3,0,0,,5,,,65,127
88971,note_off,123,0,0,,5,,,65,127
88971,note_off,0,0,0,,5,,,53,127
88974,note_on,3,0,0,,0,,,48,127
88974,note_on,0,0,0,,7,,,55,127
89097,note_off,123,0,0,,7,,,55,127
89100,note_on,3,0,0,,4,,,64,127
89223,note_off,123,0,0,,4,,,64,127
89223,note_off,0,0,0,,0,,,48,127
89226,note_on,3,0,0,,5,,,53,127
89226,note_on,0,0,0,,5,,,65,127
89349,note_off,123,0,0,,5,,,65,127
89352,note_on,3,0,0,,7,,,67,127
89475,note_off,123,0,0,,7,,,67,127
89478,note_on,3,0,0,,8,,,68,127
89601,note_off,123,0,0,,8,,,68,127
89601,note_off,0,0,0,,5,,,53,127
89604,note_on,3,0,0,,7,,,55,127
89604,note_on,0,0,0,,11,,,70,127
89727,note_off,123,0,0,,11,,,70,127
89727,note_off,0,0,0,,7,,,55,127
89730,note_on,3,0,0,,8,,,56,127
89730,note_on,0,0,0,,0,,,72,127
89855,note_on,125,0,0,,0,,,60,127
89978,note_off,123,0,0,,0,,,60,127
89978,note_off,0,0,0,,8,,,56,127
89981,note_on,3,0,0,,11,,,58,127
89981,note_on,0,0,0,,1,,,61,127
90096,note_off,115,0,0,,0,,,72,127
90106,note_on,10,0,0,,11,,,70,127
90229,note_off,123,0,0,,11,,,70,127
90229,note_off,0,0,0,,1,,,61,127
90229,note_off,0,0,0,,11,,,58,127
90232,note_on,3,0,0,,0,,,60,127
90232,note_on,0,0,0,,8,,,68,127
90355,note_off,123,0,0,,8,,,68,127
90358,note_on,3,0,0,,7,,,67,127
90481,note_off,123,0,0,,7,,,67,127
90484,note_on,3,0,0,,0,,,48,127
90484,note_on,0,0,0,,5,,,65,127
90607,note_off,123,0,0,,5,,,65,127
90610,note_on,3,0,0,,4,,,64,127
90730,note_off,120,0,0,,0,,,60,127
90733,note_off,3,0,0,,4,,,64,127
90733,note_off,0,0,0,,0,,,48,127
90736,note_on,3,0,0,,5,,,53,127
90736,note_on,0,0,0,,5,,,65,127
90859,note_off,123,0,0,,5,,,65,127
90862,note_on,3,0,0,,0,,,72,127
90862,note_on,0,0,0,,0,,,84,127
90985,note_off,123,0,0,,0,,,84,127
90985,note_off,0,0,0,,0,,,72,127
90988,note_on,3,0,0,,0,,,72,127
90988,note_on,0,0,0,,0,,,84,127
91111,note_off,123,0,0,,5,,,53,127
91114,note_on,3,0,0,,7,,,55,127
91237,note_off,123,0,0,,7,,,55,127
91240,note_on,3,0,0,,8,,,56,127
91363,note_off,123,0,0,,8,,,56,127
91366,note_on,3,0,0,,5,,,53,127
91489,note_off,123,0,0,,5,,,53,127
91492,note_on,3,0,0,,11,,,58,127
91615,note_off,123,0,0,,0,,,84,127
91615,note_off,0,0,0,,0,,,72,127
91618,note_on,3,0,0,,1,,,61,127
91618,note_on,0,0,0,,11,,,82,127
91741,note_off,123,0,0,,11,,,82,127
91741,note_off,0,0,0,,1,,,61,127
91741,note_off,0,0,0,,11,,,58,127
91744,note_on,3,0,0,,0,,,60,127
91744,note_on,0,0,0,,8,,,80,127
91867,note_off,123,0,0,,8,,,80,127
91870,note_on,3,0,0,,7,,,79,127
91993,note_off,123,0,0,,7,,,79,127
91996,note_on,3,0,0,,0,,,48,127
91996,note_on,0,0,0,,5,,,77,127
92119,note_off,123,0,0,,5,,,77,127
92122,note_on,3,0,0,,4,,,76,127
92242,note_off,120,0,0,,0,,,60,127
92245,note_off,3,0,0,,4,,,76,127
92245,note_off,0,0,0,,0,,,48,127
92248,note_on,3,0,0,,5,,,53,127
92248,note_on,0,0,0,,5,,,77,127
92371,note_off,123,0,0,,5,,,77,127
92374,note_on,3,0,0,,0,,,72,127
92374,note_on,0,0,0,,5,,,65,127
92497,note_off,123,0,0,,5,,,65,127
92497,note_off,0,0,0,,0,,,72,127
92500,note_on,3,0,0,,5,,,65,127
92500,note_on,0,0,0,,0,,,72,127
92623,note_off,123,0,0,,5,,,53,127
92626,note_on,3,0,0,,7,,,55,127
92749,note_off,123,0,0,,7,,,55,127
92752,note_on,3,0,0,,8,,,56,127
92875,note_off,123,0,0,,8,,,56,127
92878,note_on,3,0,0,,5,,,53,127
93001,note_off,123,0,0,,5,,,53,127
93004,note_on,3,0,0,,11,,,58,127
93127,note_off,123,0,0,,0,,,72,127
93127,note_off,0,0,0,,5,,,65,127
93130,note_on,3,0,0,,1,,,61,127
93130,note_on,0,0,0,,11,,,70,127
93253,note_off,123,0,0,,11,,,70,127
93253,note_off,0,0,0,,1,,,61,127
93253,note_off,0,0,0,,11,,,58,127
93256,note_on,3,0,0,,0,,,60,127
93256,note_on,0,0,0,,8,,,68,127
93379,note_off,123,0,0,,8,,,68,127
93382,note_on,3,0,0,,7,,,67,127
93505,note_off,123,0,0,,7,,,67,127
93508,note_on,3,0,0,,0,,,48,127
93508,note_on,0,0,0,,5,,,65,127
93631,note_off,123,0,0,,5,,,65,127
93634,note_on,3,0,0,,4,,,64,127
93754,note_off,120,0,0,,0,,,60,127
93757,note_off,3,0,0,,4,,,64,127
93757,note_off,0,0,0,,0,,,48,127
93760,note_on,3,0,0,,5,,,53,127
93760,note_on,0,0,0,,5,,,65,127
93883,note_off,123,0,0,,5,,,65,127
93886,note_on,3,0,0,,0,,,72,127
93886,note_on,0,0,0,,0,,,84,127
94009,note_off,123,0,0,,0,,,84,127
94009,note_off,0,0,0,,0,,,72,127
94012,note_on,3,0,0,,0,,,72,127
94012,note_on,0,0,0,,0,,,84,127
94135,note_off,123,0,0,,5,,,53,127
94138,note_on,3,0,0,,7,,,55,127
94261,note_off,123,0,0,,7,,,55,127
94264,note_on,3,0,0,,8,,,56,127
94387,note_off,123,0,0,,8,,,56,127
94390,note_on,3,0,0,,5,,,53,127
94513,note_off,123,0,0,,5,,,53,127
94516,note_on,3,0,0,,11,,,58,127
94639,note_off,123,0,0,,0,,,84,127
94639,note_off,0,0,0,,0,,,72,127
94642,note_on,3,0,0,,1,,,61,127
94642,note_on,0,0,0,,11,,,82,127
94765,note_off,123,0,0,,11,,,82,127
94765,note_off,0,0,0,,1,,,61,127
94765,note_off,0,0,0,,11,,,58,127
94768,note_on,3,0,0,,0,,,60,127
94768,note_on,0,0,0,,8,,,80,127
94891,note_off,123,0,0,,8,,,80,127
94894,note_on,3,0,0,,7,,,79,127
95017,note_off,123,0,0,,7,,,79,127
95020,note_on,3,0,0,,0,,,48,127
95020,note_on,0,0,0,,5,,,77,127
95143,note_off,123,0,0,,5,,,77,127
95146,note_on,3,0,0,,4,,,76,127
95266,note_off,120,0,0,,0,,,60,127
95269,note_off,3,0,0,,4,,,76,127
95269,note_off,0,0,0,,0,,,48,127
95272,note_on,3,0,0,,5,,,53,127
95272,note_on,0,0,0,,5,,,77,127
95395,note_off,123,0,0,,5,,,77,127
95398,note_on,3,0,0,,5,,,65,127
95398,note_on,0,0,0,,0,,,72,127
95521,note_off,123,0,0,,0,,,72,127
95521,note_off,0,0,0,,5,,,65,127
95524,note_on,3,0,0,,5,,,65,127
95524,note_on,0,0,0,,0,,,72,127
95647,note_off,123,0,0,,5,,,53,127
95650,note_on,3,0,0,,7,,,55,127
95773,note_off,123,0,0,,7,,,55,127
95776,note_on,3,0,0,,8,,,56,127
95899,note_off,123,0,0,,8,,,56,127
95902,note_on,3,0,0,,5,,,53,127
96025,note_off,123,0,0,,5,,,53,127
96028,note_on,3,0,0,,11,,,58,127
96151,note_off,123,0,0,,0,,,72,127
96151,note_off,0,0,0,,5,,,65,127
96154,note_on,3,0,0,,1,,,61,127
96154,note_on,0,0,0,,11,,,70,127
96277,note_off,123,0,0,,11,,,70,127
96277,note_off,0,0,0,,1,,,61,127
96277,note_off,0,0,0,,11,,,58,127
96280,note_on,3,0,0,,0,,,60,127
96280,note_on,0,0,0,,8,,,68,127
96403,note_off,123,0,0,,8,,,68,127
96406,note_on,3,0,0,,7,,,67,127
96529,note_off,123,0,0,,7,,,67,127
96532,note_on,3,0,0,,0,,,48,127
96532,note_on,0,0,0,,5,,,65,127
96655,note_off,123,0,0,,5,,,65,127
96658,note_on,3,0,0,,4,,,64,127
96778,note_off,120,0,0,,0,,,60,127
96781,note_off,3,0,0,,4,,,64,127
96781,note_off,0,0,0,,0,,,48,127
96784,note_on,3,0,0,,5,,,65,127
96784,note_on,0,0,0,,5,,,53,127
96907,note_off,123,0,0,,5,,,65,127
96911,note_on,4,0,0,,5,,,77,127
97034,note_off,123,0,0,,5,,,77,127
97038,note_on,4,0,0,,0,,,72,127
97158,note_off,120,0,0,,5,,,53,127
97161,note_off,3,0,0,,0,,,72,127
97165,note_on,4,0,0,,8,,,68,127
97165,note_on,0,0,0,,7,,,55,127
97288,note_off,123,0,0,,7,,,55,127
97288,note_off,0,0,0,,8,,,68,127
97292,note_on,4,0,0,,5,,,65,127
97292,note_on,0,0,0,,8,,,56,127
97415,note_off,123,0,0,,5,,,65,127
97419,note_on,4,0,0,,0,,,72,127
97540,note_off,121,0,0,,8,,,56,127
97541,note_off,1,0,0,,0,,,72,127
97545,note_on,4,0,0,,1,,,73,127
97545,note_on,0,0,0,,11,,,58,127
97668,note_off,123,0,0,,1,,,73,127
97672,note_on,4,0,0,,7,,,67,127
97793,note_off,121,0,0,,11,,,58,127
97794,note_off,1,0,0,,7,,,67,127
97798,note_on,4,0,0,,7,,,67,127
97798,note_on,0,0,0,,8,,,68,127
97798,note_on,0,0,0,,0,,,60,127
97921,note_off,123,0,0,,8,,,68,127
97921,note_off,0,0,0,,7,,,67,127
97925,note_on,4,0,0,,5,,,65,127
98048,note_off,123,0,0,,5,,,65,127
98052,note_on,4,0,0,,5,,,65,127
98052,note_on,0,0,0,,7,,,67,127
98052,note_on,0,0,0,,0,,,48,127
98175,note_off,123,0,0,,7,,,67,127
98175,note_off,0,0,0,,5,,,65,127
98175,note_off,0,0,0,,0,,,60,127
98179,note_on,4,0,0,,4,,,64,127
98300,note_off,121,0,0,,0,,,48,127
98303,note_off,3,0,0,,4,,,64,127
98307,note_on,4,0,0,,5,,,41,127
98307,note_on,0,0,0,,5,,,65,127
98431,note_off,124,0,0,,5,,,65,127
98436,note_on,5,0,0,,5,,,77,127
98560,note_off,124,0,0,,5,,,77,127
98565,note_on,5,0,0,,0,,,72,127
98686,note_off,121,0,0,,5,,,41,127
98689,note_off,3,0,0,,0,,,72,127
98694,note_on,5,0,0,,7,,,43,127
98694,note_on,0,0,0,,8,,,68,127
98818,note_off,124,0,0,,8,,,68,127
98818,note_off,0,0,0,,7,,,43,127
98823,note_on,5,0,0,,8,,,44,127
98823,note_on,0,0,0,,5,,,65,127
98947,note_off,124,0,0,,5,,,65,127
98952,note_on,5,0,0,,0,,,72,127
99075,note_off,123,0,0,,8,,,44,127
99076,note_off,1,0,0,,0,,,72,127
99081,note_on,5,0,0,,11,,,46,127
99081,note_on,0,0,0,,1,,,73,127
99205,note_off,124,0,0,,1,,,73,127
99210,note_on,5,0,0,,7,,,67,127
99333,note_off,123,0,0,,11,,,46,127
99334,note_off,1,0,0,,7,,,67,127
99339,note_on,5,0,0,,0,,,48,127
99339,note_on,0,0,0,,7,,,67,127
99339,note_on,0,0,0,,8,,,68,127
99463,note_off,124,0,0,,8,,,68,127
99463,note_off,0,0,0,,7,,,67,127
99468,note_on,5,0,0,,5,,,65,127
99592,note_off,124,0,0,,5,,,65,127
99597,note_on,5,0,0,,0,,,36,127
99597,note_on,0,0,0,,5,,,65,127
99597,note_on,0,0,0,,7,,,67,127
99721,note_off,124,0,0,,7,,,67,127
99721,note_off,0,0,0,,5,,,65,127
99726,note_on,5,0,0,,4,,,64,127
99843,note_off,117,0,0,,0,,,48,127
99848,note_off,5,0,0,,0,,,36,127
99849,note_off,1,0,0,,4,,,64,127
99853,note_on,4,0,0,,5,,,41,127
99853,note_on,0,0,0,,4,,,64,127
100542,note_off,689,0,0,,4,,,64,127
100542,note_on,0,0,0,,5,,,65,127
102295,note_off,1753,0,0,,5,,,65,127
102295,note_off,0,0,0,,5,,,41,127
107520,end_of_track,5225,1,0,,,,,,
