tick,type,time,meta,track,program,channel,pitch,tempo,note,velocity
0,copyright,0,1,0,,,,,,
0,program_change,0,0,0,6,0,,,,
0,pitchwheel,0,0,0,,0,0,,,
0,program_change,0,0,0,6,1,,,,
0,pitchwheel,0,0,0,,1,-590,,,
0,program_change,0,0,0,6,2,,,,
0,pitchwheel,0,0,0,,2,-272,,,
0,program_change,0,0,0,6,3,,,,
0,pitchwheel,0,0,0,,3,-353,,,
0,program_change,0,0,0,6,4,,,,
0,pitchwheel,0,0,0,,4,-560,,,
0,program_change,0,0,0,6,5,,,,
0,pitchwheel,0,0,0,,5,-80,,,
0,program_change,0,0,0,6,6,,,,
0,pitchwheel,0,0,0,,6,-625,,,
0,program_change,0,0,0,6,7,,,,
0,pitchwheel,0,0,0,,7,-130,,,
0,program_change,0,0,0,6,8,,,,
0,pitchwheel,0,0,0,,8,-512,,,
0,program_change,0,0,0,6,10,,,,
0,pitchwheel,0,0,0,,10,-464,,,
0,program_change,0,0,0,6,11,,,,
0,pitchwheel,0,0,0,,11,-208,,,
0,program_change,0,0,0,6,12,,,,
0,pitchwheel,0,0,0,,12,-553,,,
0,set_tempo,0,1,0,,,,500000,,
72,note_on,72,0,0,,2,,,74,127
215,note_off,143,0,0,,2,,,74,127
216,note_on,1,0,0,,4,,,76,127
359,note_off,143,0,0,,4,,,76,127
360,note_on,1,0,0,,6,,,78,127
503,note_off,143,0,0,,6,,,78,127
504,note_on,1,0,0,,2,,,74,127
647,note_off,143,0,0,,2,,,74,127
648,note_on,1,0,0,,4,,,76,127
791,note_off,143,0,0,,4,,,76,127
792,note_on,1,0,0,,10,,,69,127
935,note_off,143,0,0,,10,,,69,127
936,note_on,1,0,0,,2,,,62,127
1223,note_off,287,0,0,,2,,,62,127
1224,note_on,1,0,0,,2,,,74,127
1367,note_off,143,0,0,,2,,,74,127
1368,note_on,1,0,0,,4,,,76,127
1511,note_off,143,0,0,,4,,,76,127
1512,note_on,1,0,0,,6,,,78,127
1655,note_off,143,0,0,,6,,,78,127
1656,note_on,1,0,0,,2,,,74,127
1799,note_off,143,0,0,,2,,,74,127
1800,note_on,1,0,0,,4,,,76,127
1943,note_off,143,0,0,,4,,,76,127
1944,note_on,1,0,0,,10,,,69,127
2087,note_off,143,0,0,,10,,,69,127
2088,note_on,1,0,0,,2,,,62,127
2375,note_off,287,0,0,,2,,,62,127
2376,note_on,1,0,0,,10,,,81,127
2376,note_on,0,0,0,,2,,,62,127
2519,note_off,143,0,0,,2,,,62,127
2520,note_on,1,0,0,,4,,,64,127
2663,note_off,143,0,0,,4,,,64,127
2664,note_on,1,0,0,,6,,,66,127
2807,note_off,143,0,0,,6,,,66,127
2808,note_on,1,0,0,,2,,,62,127
2951,note_off,143,0,0,,2,,,62,127
2951,note_off,0,0,0,,10,,,81,127
2952,note_on,1,0,0,,7,,,79,127
2952,note_on,0,0,0,,4,,,64,127
3095,note_off,143,0,0,,4,,,64,127
3096,note_on,1,0,0,,10,,,57,127
3239,note_off,143,0,0,,10,,,57,127
3239,note_off,0,0,0,,7,,,79,127
3240,note_on,1,0,0,,6,,,78,127
3240,note_on,0,0,0,,2,,,50,127
3527,note_off,287,0,0,,2,,,50,127
3527,note_off,0,0,0,,6,,,78,127
3528,note_on,1,0,0,,10,,,81,127
3528,note_on,0,0,0,,2,,,62,127
3671,note_off,143,0,0,,2,,,62,127
3672,note_on,1,0,0,,4,,,64,127
3815,note_off,143,0,0,,4,,,64,127
3816,note_on,1,0,0,,6,,,66,127
3959,note_off,143,0,0,,6,,,66,127
3960,note_on,1,0,0,,2,,,62,127
4103,note_off,143,0,0,,2,,,62,127
4103,note_off,0,0,0,,10,,,81,127
4104,note_on,1,0,0,,7,,,79,127
4104,note_on,0,0,0,,4,,,64,127
4247,note_off,143,0,0,,4,,,64,127
4248,note_on,1,0,0,,10,,,57,127
4391,note_off,143,0,0,,10,,,57,127
4391,note_off,0,0,0,,7,,,79,127
4392,note_on,1,0,0,,6,,,78,127
4392,note_on,0,0,0,,2,,,50,127
4463,note_off,71,0,0,,2,,,50,127
4464,note_on,1,0,0,,4,,,52,127
4535,note_off,71,0,0,,4,,,52,127
4536,note_on,1,0,0,,6,,,54,127
4607,note_off,71,0,0,,6,,,54,127
4608,note_on,1,0,0,,7,,,55,127
4679,note_off,71,0,0,,7,,,55,127
4680,note_on,1,0,0,,10,,,57,127
4823,note_off,143,0,0,,10,,,57,127
4824,note_on,1,0,0,,12,,,59,127
4895,note_off,71,0,0,,12,,,59,127
4896,note_on,1,0,0,,1,,,61,127
4967,note_off,71,0,0,,1,,,61,127
4968,note_on,1,0,0,,2,,,62,127
5111,note_off,143,0,0,,2,,,62,127
5112,note_on,1,0,0,,4,,,64,127
5255,note_off,143,0,0,,4,,,64,127
5256,note_on,1,0,0,,6,,,66,127
5399,note_off,143,0,0,,6,,,66,127
5400,note_on,1,0,0,,7,,,67,127
5471,note_off,71,0,0,,7,,,67,127
5472,note_on,1,0,0,,10,,,69,127
5543,note_off,71,0,0,,10,,,69,127
5544,note_on,1,0,0,,10,,,45,127
5831,note_off,287,0,0,,6,,,78,127
5832,note_on,1,0,0,,4,,,76,127
5975,note_off,143,0,0,,4,,,76,127
5976,note_on,1,0,0,,2,,,74,127
6119,note_off,143,0,0,,2,,,74,127
6120,note_on,1,0,0,,1,,,73,127
6263,note_off,143,0,0,,1,,,73,127
6264,note_on,1,0,0,,12,,,71,127
6407,note_off,143,0,0,,12,,,71,127
6408,note_off,1,0,0,,10,,,45,127
6408,note_on,0,0,0,,10,,,69,127
6551,note_off,143,0,0,,10,,,69,127
6552,note_on,1,0,0,,7,,,67,127
6695,note_off,143,0,0,,7,,,67,127
6696,note_on,1,0,0,,6,,,66,127
6696,note_on,0,0,0,,2,,,50,127
6767,note_off,71,0,0,,2,,,50,127
6768,note_on,1,0,0,,4,,,52,127
6839,note_off,71,0,0,,4,,,52,127
6840,note_on,1,0,0,,6,,,54,127
6911,note_off,71,0,0,,6,,,54,127
6912,note_on,1,0,0,,7,,,55,127
6983,note_off,71,0,0,,7,,,55,127
6984,note_on,1,0,0,,10,,,57,127
7127,note_off,143,0,0,,10,,,57,127
7128,note_on,1,0,0,,12,,,59,127
7199,note_off,71,0,0,,12,,,59,127
7200,note_on,1,0,0,,1,,,61,127
7271,note_off,71,0,0,,1,,,61,127
7271,note_off,0,0,0,,6,,,66,127
7272,note_on,1,0,0,,6,,,78,127
7272,note_on,0,0,0,,2,,,62,127
7415,note_off,143,0,0,,2,,,62,127
7416,note_on,1,0,0,,4,,,64,127
7559,note_off,143,0,0,,4,,,64,127
7560,note_on,1,0,0,,6,,,66,127
7703,note_off,143,0,0,,6,,,66,127
7704,note_on,1,0,0,,7,,,67,127
7775,note_off,71,0,0,,7,,,67,127
7776,note_on,1,0,0,,10,,,69,127
7847,note_off,71,0,0,,10,,,69,127
7848,note_on,1,0,0,,10,,,45,127
8135,note_off,287,0,0,,6,,,78,127
8136,note_on,1,0,0,,4,,,76,127
8279,note_off,143,0,0,,4,,,76,127
8280,note_on,1,0,0,,2,,,74,127
8423,note_off,143,0,0,,2,,,74,127
8424,note_on,1,0,0,,1,,,73,127
8567,note_off,143,0,0,,1,,,73,127
8568,note_on,1,0,0,,12,,,71,127
8711,note_off,143,0,0,,12,,,71,127
8712,note_off,1,0,0,,10,,,45,127
8712,note_on,0,0,0,,10,,,69,127
8855,note_off,143,0,0,,10,,,69,127
8856,note_on,1,0,0,,7,,,67,127
8999,note_off,143,0,0,,7,,,67,127
9000,note_on,1,0,0,,6,,,66,127
9000,note_on,0,0,0,,2,,,50,127
9287,note_off,287,0,0,,6,,,66,127
9288,note_on,1,0,0,,6,,,78,127
9431,note_off,143,0,0,,6,,,78,127
9432,note_on,1,0,0,,7,,,79,127
9575,note_off,143,0,0,,7,,,79,127
9575,note_off,0,0,0,,2,,,50,127
9576,note_on,1,0,0,,10,,,81,127
9719,note_off,143,0,0,,10,,,81,127
9720,note_on,1,0,0,,6,,,78,127
9863,note_off,143,0,0,,6,,,78,127
9864,note_on,1,0,0,,6,,,78,127
9864,note_on,0,0,0,,6,,,66,127
10007,note_off,143,0,0,,6,,,78,127
10008,note_on,1,0,0,,2,,,74,127
10151,note_off,143,0,0,,2,,,74,127
10151,note_off,0,0,0,,6,,,66,127
10152,note_on,1,0,0,,2,,,74,127
10152,note_on,0,0,0,,4,,,64,127
10295,note_off,143,0,0,,2,,,74,127
10296,note_on,1,0,0,,1,,,73,127
10439,note_off,143,0,0,,1,,,73,127
10439,note_off,0,0,0,,4,,,64,127
10440,note_on,1,0,0,,1,,,73,127
10440,note_on,0,0,0,,7,,,67,127
10583,note_off,143,0,0,,1,,,73,127
10584,note_on,1,0,0,,2,,,74,127
10727,note_off,143,0,0,,2,,,74,127
10727,note_off,0,0,0,,7,,,67,127
10728,note_on,1,0,0,,2,,,74,127
10728,note_on,0,0,0,,6,,,66,127
10871,note_off,143,0,0,,2,,,74,127
10872,note_on,1,0,0,,1,,,73,127
11015,note_off,143,0,0,,1,,,73,127
11015,note_off,0,0,0,,6,,,66,127
11016,note_on,1,0,0,,1,,,73,127
11016,note_on,0,0,0,,2,,,62,127
11159,note_off,143,0,0,,1,,,73,127
11160,note_on,1,0,0,,2,,,74,127
11303,note_off,143,0,0,,2,,,74,127
11303,note_off,0,0,0,,2,,,62,127
11304,note_on,1,0,0,,4,,,76,127
11304,note_on,0,0,0,,10,,,57,127
11591,note_off,287,0,0,,10,,,57,127
11591,note_off,0,0,0,,4,,,76,127
11592,note_on,1,0,0,,6,,,78,127
11592,note_on,0,0,0,,2,,,62,127
11735,note_off,143,0,0,,6,,,78,127
11736,note_on,1,0,0,,7,,,79,127
11879,note_off,143,0,0,,7,,,79,127
11880,note_on,1,0,0,,10,,,81,127
12023,note_off,143,0,0,,10,,,81,127
12023,note_off,0,0,0,,2,,,62,127
12024,note_on,1,0,0,,6,,,78,127
12167,note_off,143,0,0,,6,,,78,127
12168,note_on,1,0,0,,6,,,78,127
12168,note_on,0,0,0,,6,,,66,127
12311,note_off,143,0,0,,6,,,78,127
12312,note_on,1,0,0,,2,,,74,127
12455,note_off,143,0,0,,2,,,74,127
12455,note_off,0,0,0,,6,,,66,127
12456,note_on,1,0,0,,2,,,74,127
12456,note_on,0,0,0,,4,,,64,127
12599,note_off,143,0,0,,2,,,74,127
12600,note_on,1,0,0,,1,,,73,127
12743,note_off,143,0,0,,1,,,73,127
12743,note_off,0,0,0,,4,,,64,127
12744,note_on,1,0,0,,1,,,73,127
12744,note_on,0,0,0,,7,,,67,127
12887,note_off,143,0,0,,1,,,73,127
12888,note_on,1,0,0,,2,,,74,127
13031,note_off,143,0,0,,2,,,74,127
13031,note_off,0,0,0,,7,,,67,127
13032,note_on,1,0,0,,2,,,74,127
13032,note_on,0,0,0,,6,,,66,127
13175,note_off,143,0,0,,2,,,74,127
13176,note_on,1,0,0,,1,,,73,127
13319,note_off,143,0,0,,1,,,73,127
13319,note_off,0,0,0,,6,,,66,127
13320,note_on,1,0,0,,4,,,76,127
13320,note_on,0,0,0,,2,,,62,127
13391,note_off,71,0,0,,4,,,76,127
13392,note_on,1,0,0,,2,,,74,127
13463,note_off,71,0,0,,2,,,74,127
13464,note_on,1,0,0,,1,,,73,127
13535,note_off,71,0,0,,1,,,73,127
13536,note_on,1,0,0,,2,,,74,127
13607,note_off,71,0,0,,2,,,74,127
13607,note_off,0,0,0,,2,,,62,127
13608,note_on,1,0,0,,4,,,76,127
13608,note_on,0,0,0,,10,,,57,127
13895,note_off,287,0,0,,10,,,57,127
13895,note_off,0,0,0,,4,,,76,127
13896,note_on,1,0,0,,10,,,69,127
13896,note_on,0,0,0,,6,,,66,127
14039,note_off,143,0,0,,6,,,66,127
14040,note_on,1,0,0,,7,,,67,127
14183,note_off,143,0,0,,7,,,67,127
14183,note_off,0,0,0,,10,,,69,127
14184,note_on,1,0,0,,10,,,81,127
14184,note_on,0,0,0,,10,,,69,127
14327,note_off,143,0,0,,10,,,69,127
14328,note_on,1,0,0,,7,,,67,127
14471,note_off,143,0,0,,7,,,67,127
14472,note_on,1,0,0,,7,,,67,127
14615,note_off,143,0,0,,7,,,67,127
14616,note_on,1,0,0,,6,,,66,127
14759,note_off,143,0,0,,6,,,66,127
14760,note_on,1,0,0,,6,,,66,127
14903,note_off,143,0,0,,6,,,66,127
14904,note_on,1,0,0,,4,,,64,127
15047,note_off,143,0,0,,4,,,64,127
15047,note_off,0,0,0,,10,,,81,127
15048,note_on,1,0,0,,7,,,79,127
15048,note_on,0,0,0,,4,,,64,127
15191,note_off,143,0,0,,4,,,64,127
15192,note_on,1,0,0,,2,,,62,127
15335,note_off,143,0,0,,2,,,62,127
15335,note_off,0,0,0,,7,,,79,127
15336,note_on,1,0,0,,6,,,78,127
15336,note_on,0,0,0,,2,,,62,127
15479,note_off,143,0,0,,2,,,62,127
15480,note_on,1,0,0,,1,,,61,127
15623,note_off,143,0,0,,1,,,61,127
15623,note_off,0,0,0,,6,,,78,127
15624,note_on,1,0,0,,4,,,76,127
15624,note_on,0,0,0,,1,,,61,127
15767,note_off,143,0,0,,1,,,61,127
15768,note_on,1,0,0,,12,,,59,127
15911,note_off,143,0,0,,12,,,59,127
15911,note_off,0,0,0,,4,,,76,127
15912,note_on,1,0,0,,2,,,74,127
15912,note_on,0,0,0,,12,,,59,127
16055,note_off,143,0,0,,12,,,59,127
16056,note_on,1,0,0,,10,,,57,127
16199,note_off,143,0,0,,10,,,57,127
16199,note_off,0,0,0,,2,,,74,127
16200,note_on,1,0,0,,1,,,73,127
16200,note_on,0,0,0,,10,,,57,127
16343,note_off,143,0,0,,10,,,57,127
16344,note_on,1,0,0,,7,,,55,127
16487,note_off,143,0,0,,7,,,55,127
16487,note_off,0,0,0,,1,,,73,127
16488,note_on,1,0,0,,12,,,71,127
16488,note_on,0,0,0,,7,,,55,127
16631,note_off,143,0,0,,7,,,55,127
16632,note_on,1,0,0,,6,,,54,127
16775,note_off,143,0,0,,6,,,54,127
16775,note_off,0,0,0,,12,,,71,127
16776,note_on,1,0,0,,10,,,69,127
16776,note_on,0,0,0,,6,,,54,127
16919,note_off,143,0,0,,6,,,54,127
16920,note_on,1,0,0,,4,,,52,127
17063,note_off,143,0,0,,4,,,52,127
17063,note_off,0,0,0,,10,,,69,127
17064,note_on,1,0,0,,7,,,67,127
17064,note_on,0,0,0,,4,,,52,127
17207,note_off,143,0,0,,4,,,52,127
17208,note_on,1,0,0,,2,,,50,127
17351,note_off,143,0,0,,2,,,50,127
17351,note_off,0,0,0,,7,,,67,127
17352,note_on,1,0,0,,6,,,66,127
17352,note_on,0,0,0,,2,,,50,127
17495,note_off,143,0,0,,2,,,50,127
17496,note_on,1,0,0,,1,,,49,127
17639,note_off,143,0,0,,1,,,49,127
17639,note_off,0,0,0,,6,,,66,127
17640,note_on,1,0,0,,4,,,64,127
17640,note_on,0,0,0,,1,,,49,127
17783,note_off,143,0,0,,1,,,49,127
17784,note_on,1,0,0,,12,,,47,127
17927,note_off,143,0,0,,12,,,47,127
17927,note_off,0,0,0,,4,,,64,127
17928,note_on,1,0,0,,2,,,62,127
17928,note_on,0,0,0,,12,,,47,127
18071,note_off,143,0,0,,12,,,47,127
18072,note_on,1,0,0,,10,,,45,127
18215,note_off,143,0,0,,10,,,45,127
18215,note_off,0,0,0,,2,,,62,127
18216,note_on,1,0,0,,1,,,61,127
18216,note_on,0,0,0,,10,,,45,127
18287,note_off,71,0,0,,10,,,45,127
18288,note_on,1,0,0,,12,,,47,127
18359,note_off,71,0,0,,12,,,47,127
18360,note_on,1,0,0,,1,,,49,127
18431,note_off,71,0,0,,1,,,49,127
18432,note_on,1,0,0,,2,,,50,127
18503,note_off,71,0,0,,2,,,50,127
18504,note_on,1,0,0,,4,,,52,127
18647,note_off,143,0,0,,4,,,52,127
18648,note_on,1,0,0,,6,,,54,127
18719,note_off,71,0,0,,6,,,54,127
18720,note_on,1,0,0,,8,,,56,127
18791,note_off,71,0,0,,8,,,56,127
18791,note_off,0,0,0,,1,,,61,127
18792,note_on,1,0,0,,1,,,73,127
18792,note_on,0,0,0,,10,,,57,127
18935,note_off,143,0,0,,10,,,57,127
18936,note_on,1,0,0,,12,,,59,127
19079,note_off,143,0,0,,12,,,59,127
19080,note_on,1,0,0,,1,,,61,127
19223,note_off,143,0,0,,1,,,61,127
19224,note_on,1,0,0,,2,,,62,127
19295,note_off,71,0,0,,2,,,62,127
19296,note_on,1,0,0,,4,,,64,127
19367,note_off,71,0,0,,4,,,64,127
19368,note_on,1,0,0,,4,,,40,127
19655,note_off,287,0,0,,1,,,73,127
19656,note_on,1,0,0,,12,,,71,127
19799,note_off,143,0,0,,12,,,71,127
19800,note_on,1,0,0,,10,,,69,127
19943,note_off,143,0,0,,10,,,69,127
19944,note_on,1,0,0,,8,,,68,127
20087,note_off,143,0,0,,8,,,68,127
20088,note_on,1,0,0,,6,,,66,127
20231,note_off,143,0,0,,6,,,66,127
20232,note_off,1,0,0,,4,,,40,127
20232,note_on,0,0,0,,4,,,64,127
20375,note_off,143,0,0,,4,,,64,127
20376,note_on,1,0,0,,2,,,62,127
20519,note_off,143,0,0,,2,,,62,127
20520,note_on,1,0,0,,1,,,61,127
20520,note_on,0,0,0,,10,,,45,127
20591,note_off,71,0,0,,10,,,45,127
20592,note_on,1,0,0,,12,,,47,127
20663,note_off,71,0,0,,12,,,47,127
20664,note_on,1,0,0,,1,,,49,127
20735,note_off,71,0,0,,1,,,49,127
20736,note_on,1,0,0,,2,,,50,127
20807,note_off,71,0,0,,2,,,50,127
20808,note_on,1,0,0,,4,,,52,127
20951,note_off,143,0,0,,4,,,52,127
20952,note_on,1,0,0,,6,,,54,127
21023,note_off,71,0,0,,6,,,54,127
21024,note_on,1,0,0,,8,,,56,127
21095,note_off,71,0,0,,8,,,56,127
21095,note_off,0,0,0,,1,,,61,127
21096,note_on,1,0,0,,1,,,73,127
21096,note_on,0,0,0,,10,,,57,127
21239,note_off,143,0,0,,10,,,57,127
21240,note_on,1,0,0,,12,,,59,127
21383,note_off,143,0,0,,12,,,59,127
21384,note_on,1,0,0,,1,,,61,127
21527,note_off,143,0,0,,1,,,61,127
21528,note_on,1,0,0,,2,,,62,127
21599,note_off,71,0,0,,2,,,62,127
21600,note_on,1,0,0,,4,,,64,127
21671,note_off,71,0,0,,4,,,64,127
21672,note_on,1,0,0,,4,,,40,127
21959,note_off,287,0,0,,1,,,73,127
21960,note_on,1,0,0,,12,,,71,127
22103,note_off,143,0,0,,12,,,71,127
22104,note_on,1,0,0,,10,,,69,127
22247,note_off,143,0,0,,10,,,69,127
22248,note_on,1,0,0,,8,,,68,127
22391,note_off,143,0,0,,8,,,68,127
22392,note_on,1,0,0,,6,,,66,127
22535,note_off,143,0,0,,6,,,66,127
22536,note_off,1,0,0,,4,,,40,127
22536,note_on,0,0,0,,4,,,64,127
22679,note_off,143,0,0,,4,,,64,127
22680,note_on,1,0,0,,2,,,62,127
22823,note_off,143,0,0,,2,,,62,127
22824,note_on,1,0,0,,1,,,61,127
22824,note_on,0,0,0,,10,,,45,127
22967,note_off,143,0,0,,10,,,45,127
22968,note_on,1,0,0,,12,,,47,127
23111,note_off,143,0,0,,12,,,47,127
23111,note_off,0,0,0,,1,,,61,127
23112,note_on,1,0,0,,2,,,62,127
23112,note_on,0,0,0,,12,,,47,127
23255,note_off,143,0,0,,12,,,47,127
23256,note_on,1,0,0,,1,,,49,127
23399,note_off,143,0,0,,1,,,49,127
23399,note_off,0,0,0,,2,,,62,127
23400,note_on,1,0,0,,4,,,64,127
23400,note_on,0,0,0,,1,,,49,127
23543,note_off,143,0,0,,1,,,49,127
23544,note_on,1,0,0,,2,,,50,127
23687,note_off,143,0,0,,2,,,50,127
23687,note_off,0,0,0,,4,,,64,127
23688,note_on,1,0,0,,6,,,66,127
23688,note_on,0,0,0,,2,,,50,127
23831,note_off,143,0,0,,2,,,50,127
23832,note_on,1,0,0,,4,,,52,127
23975,note_off,143,0,0,,4,,,52,127
23975,note_off,0,0,0,,6,,,66,127
23976,note_on,1,0,0,,8,,,68,127
23976,note_on,0,0,0,,4,,,52,127
24119,note_off,143,0,0,,4,,,52,127
24120,note_on,1,0,0,,6,,,54,127
24263,note_off,143,0,0,,6,,,54,127
24263,note_off,0,0,0,,8,,,68,127
24264,note_on,1,0,0,,10,,,69,127
24264,note_on,0,0,0,,6,,,54,127
24407,note_off,143,0,0,,6,,,54,127
24408,note_on,1,0,0,,8,,,56,127
24551,note_off,143,0,0,,8,,,56,127
24551,note_off,0,0,0,,10,,,69,127
24552,note_on,1,0,0,,12,,,71,127
24552,note_on,0,0,0,,8,,,56,127
24695,note_off,143,0,0,,8,,,56,127
24695,note_off,0,0,0,,12,,,71,127
24696,note_on,1,0,0,,2,,,74,127
24696,note_on,0,0,0,,4,,,52,127
24839,note_off,143,0,0,,4,,,52,127
24839,note_off,0,0,0,,2,,,74,127
24840,note_on,1,0,0,,1,,,73,127
24840,note_on,0,0,0,,10,,,57,127
24983,note_off,143,0,0,,10,,,57,127
24983,note_off,0,0,0,,1,,,73,127
24984,note_on,1,0,0,,10,,,69,127
24984,note_on,0,0,0,,10,,,45,127
25127,note_off,143,0,0,,10,,,45,127
25127,note_off,0,0,0,,10,,,69,127
25128,note_on,1,0,0,,12,,,71,127
25128,note_on,0,0,0,,4,,,40,127
25199,note_off,71,0,0,,12,,,71,127
25200,note_on,1,0,0,,12,,,71,127
25271,note_off,71,0,0,,12,,,71,127
25272,note_on,1,0,0,,12,,,71,127
25343,note_off,71,0,0,,12,,,71,127
25344,note_on,1,0,0,,12,,,71,127
25415,note_off,71,0,0,,12,,,71,127
25416,note_on,1,0,0,,12,,,71,127
25487,note_off,71,0,0,,12,,,71,127
25488,note_on,1,0,0,,12,,,71,127
25559,note_off,71,0,0,,12,,,71,127
25560,note_on,1,0,0,,12,,,71,127
25631,note_off,71,0,0,,12,,,71,127
25632,note_on,1,0,0,,12,,,71,127
25703,note_off,71,0,0,,12,,,71,127
25704,note_on,1,0,0,,4,,,76,127
25775,note_off,71,0,0,,4,,,76,127
25776,note_on,1,0,0,,4,,,76,127
25847,note_off,71,0,0,,4,,,76,127
25848,note_on,1,0,0,,4,,,76,127
25919,note_off,71,0,0,,4,,,76,127
25920,note_on,1,0,0,,4,,,76,127
25991,note_off,71,0,0,,4,,,76,127
25991,note_off,0,0,0,,4,,,40,127
25992,note_on,1,0,0,,2,,,74,127
25992,note_on,0,0,0,,8,,,56,127
26063,note_off,71,0,0,,2,,,74,127
26064,note_on,1,0,0,,2,,,74,127
26135,note_off,71,0,0,,2,,,74,127
26136,note_on,1,0,0,,2,,,74,127
26207,note_off,71,0,0,,2,,,74,127
26208,note_on,1,0,0,,2,,,74,127
26279,note_off,71,0,0,,2,,,74,127
26279,note_off,0,0,0,,8,,,56,127
26280,note_on,1,0,0,,1,,,73,127
26280,note_on,0,0,0,,10,,,57,127
26351,note_off,71,0,0,,1,,,73,127
26352,note_on,1,0,0,,1,,,73,127
26423,note_off,71,0,0,,1,,,73,127
26424,note_on,1,0,0,,1,,,73,127
26495,note_off,71,0,0,,1,,,73,127
26496,note_on,1,0,0,,1,,,73,127
26567,note_off,71,0,0,,1,,,73,127
26567,note_off,0,0,0,,10,,,57,127
26568,note_on,1,0,0,,4,,,76,127
26568,note_on,0,0,0,,10,,,45,127
26639,note_off,71,0,0,,4,,,76,127
26640,note_on,1,0,0,,4,,,76,127
26711,note_off,71,0,0,,4,,,76,127
26712,note_on,1,0,0,,4,,,76,127
26783,note_off,71,0,0,,4,,,76,127
26784,note_on,1,0,0,,4,,,76,127
26855,note_off,71,0,0,,4,,,76,127
26855,note_off,0,0,0,,10,,,45,127
26856,note_on,1,0,0,,4,,,76,127
26856,note_on,0,0,0,,4,,,52,127
26927,note_off,71,0,0,,4,,,76,127
26928,note_on,1,0,0,,4,,,76,127
26999,note_off,71,0,0,,4,,,76,127
27000,note_on,1,0,0,,4,,,76,127
27071,note_off,71,0,0,,4,,,76,127
27072,note_on,1,0,0,,4,,,76,127
27143,note_off,71,0,0,,4,,,76,127
27143,note_off,0,0,0,,4,,,52,127
27144,note_on,1,0,0,,2,,,74,127
27144,note_on,0,0,0,,8,,,56,127
27215,note_off,71,0,0,,2,,,74,127
27216,note_on,1,0,0,,2,,,74,127
27287,note_off,71,0,0,,2,,,74,127
27288,note_on,1,0,0,,2,,,74,127
27359,note_off,71,0,0,,2,,,74,127
27360,note_on,1,0,0,,2,,,74,127
27431,note_off,71,0,0,,2,,,74,127
27431,note_off,0,0,0,,8,,,56,127
27432,note_on,1,0,0,,1,,,73,127
27432,note_on,0,0,0,,10,,,57,127
27503,note_off,71,0,0,,1,,,73,127
27504,note_on,1,0,0,,1,,,73,127
27575,note_off,71,0,0,,1,,,73,127
27576,note_on,1,0,0,,1,,,73,127
27647,note_off,71,0,0,,1,,,73,127
27648,note_on,1,0,0,,1,,,73,127
27719,note_off,71,0,0,,1,,,73,127
27719,note_off,0,0,0,,10,,,57,127
27720,note_on,1,0,0,,4,,,76,127
27720,note_on,0,0,0,,10,,,45,127
27791,note_off,71,0,0,,4,,,76,127
27792,note_on,1,0,0,,4,,,76,127
27863,note_off,71,0,0,,4,,,76,127
27864,note_on,1,0,0,,4,,,76,127
27935,note_off,71,0,0,,4,,,76,127
27936,note_on,1,0,0,,4,,,76,127
28007,note_off,71,0,0,,4,,,76,127
28007,note_off,0,0,0,,10,,,45,127
28008,note_on,1,0,0,,4,,,76,127
28008,note_on,0,0,0,,4,,,52,127
28079,note_off,71,0,0,,4,,,76,127
28080,note_on,1,0,0,,4,,,76,127
28151,note_off,71,0,0,,4,,,76,127
28152,note_on,1,0,0,,4,,,76,127
28223,note_off,71,0,0,,4,,,76,127
28224,note_on,1,0,0,,4,,,76,127
28295,note_off,71,0,0,,4,,,76,127
28295,note_off,0,0,0,,4,,,52,127
28296,note_on,1,0,0,,2,,,74,127
28296,note_on,0,0,0,,8,,,56,127
28367,note_off,71,0,0,,2,,,74,127
28368,note_on,1,0,0,,2,,,74,127
28439,note_off,71,0,0,,2,,,74,127
28440,note_on,1,0,0,,2,,,74,127
28511,note_off,71,0,0,,2,,,74,127
28512,note_on,1,0,0,,2,,,74,127
28583,note_off,71,0,0,,2,,,74,127
28583,note_off,0,0,0,,8,,,56,127
28584,note_on,1,0,0,,1,,,73,127
28584,note_on,0,0,0,,10,,,57,127
28727,note_off,143,0,0,,1,,,73,127
28728,note_on,1,0,0,,10,,,81,127
28871,note_off,143,0,0,,10,,,81,127
28871,note_off,0,0,0,,10,,,57,127
28872,note_on,1,0,0,,6,,,78,127
28872,note_on,0,0,0,,2,,,50,127
29015,note_off,143,0,0,,6,,,78,127
29016,note_on,1,0,0,,2,,,74,127
29159,note_off,143,0,0,,2,,,74,127
29159,note_off,0,0,0,,2,,,50,127
29160,note_on,1,0,0,,1,,,73,127
29160,note_on,0,0,0,,4,,,52,127
29303,note_off,143,0,0,,1,,,73,127
29304,note_on,1,0,0,,10,,,69,127
29447,note_off,143,0,0,,10,,,69,127
29447,note_off,0,0,0,,4,,,52,127
29448,note_on,1,0,0,,12,,,71,127
29448,note_on,0,0,0,,4,,,40,127
29591,note_off,143,0,0,,12,,,71,127
29592,note_on,1,0,0,,8,,,68,127
29735,note_off,143,0,0,,8,,,68,127
29735,note_off,0,0,0,,4,,,40,127
29736,note_on,1,0,0,,1,,,73,127
29736,note_on,0,0,0,,10,,,45,127
29807,note_off,71,0,0,,1,,,73,127
29808,note_on,1,0,0,,1,,,73,127
29879,note_off,71,0,0,,1,,,73,127
29880,note_on,1,0,0,,1,,,73,127
29951,note_off,71,0,0,,1,,,73,127
29952,note_on,1,0,0,,1,,,73,127
30023,note_off,71,0,0,,1,,,73,127
30023,note_off,0,0,0,,10,,,45,127
30024,note_on,1,0,0,,4,,,76,127
30024,note_on,0,0,0,,1,,,49,127
30095,note_off,71,0,0,,4,,,76,127
30096,note_on,1,0,0,,4,,,76,127
30167,note_off,71,0,0,,4,,,76,127
30168,note_on,1,0,0,,4,,,76,127
30239,note_off,71,0,0,,4,,,76,127
30240,note_on,1,0,0,,4,,,76,127
30311,note_off,71,0,0,,4,,,76,127
30311,note_off,0,0,0,,1,,,49,127
30312,note_on,1,0,0,,4,,,76,127
30312,note_on,0,0,0,,4,,,52,127
30383,note_off,71,0,0,,4,,,76,127
30384,note_on,1,0,0,,4,,,76,127
30455,note_off,71,0,0,,4,,,76,127
30456,note_on,1,0,0,,4,,,76,127
30527,note_off,71,0,0,,4,,,76,127
30528,note_on,1,0,0,,4,,,76,127
30599,note_off,71,0,0,,4,,,76,127
30599,note_off,0,0,0,,4,,,52,127
30600,note_on,1,0,0,,2,,,74,127
30600,note_on,0,0,0,,8,,,56,127
30671,note_off,71,0,0,,2,,,74,127
30672,note_on,1,0,0,,2,,,74,127
30743,note_off,71,0,0,,2,,,74,127
30744,note_on,1,0,0,,2,,,74,127
30815,note_off,71,0,0,,2,,,74,127
30816,note_on,1,0,0,,2,,,74,127
30887,note_off,71,0,0,,2,,,74,127
30887,note_off,0,0,0,,8,,,56,127
30888,note_on,1,0,0,,1,,,73,127
30888,note_on,0,0,0,,10,,,57,127
30959,note_off,71,0,0,,1,,,73,127
30960,note_on,1,0,0,,1,,,73,127
31031,note_off,71,0,0,,1,,,73,127
31032,note_on,1,0,0,,1,,,73,127
31103,note_off,71,0,0,,1,,,73,127
31104,note_on,1,0,0,,1,,,73,127
31175,note_off,71,0,0,,1,,,73,127
31175,note_off,0,0,0,,10,,,57,127
31176,note_on,1,0,0,,4,,,76,127
31176,note_on,0,0,0,,10,,,45,127
31247,note_off,71,0,0,,4,,,76,127
31248,note_on,1,0,0,,4,,,76,127
31319,note_off,71,0,0,,4,,,76,127
31320,note_on,1,0,0,,4,,,76,127
31391,note_off,71,0,0,,4,,,76,127
31392,note_on,1,0,0,,4,,,76,127
31463,note_off,71,0,0,,4,,,76,127
31463,note_off,0,0,0,,10,,,45,127
31464,note_on,1,0,0,,4,,,76,127
31464,note_on,0,0,0,,4,,,52,127
31535,note_off,71,0,0,,4,,,76,127
31536,note_on,1,0,0,,4,,,76,127
31607,note_off,71,0,0,,4,,,76,127
31608,note_on,1,0,0,,4,,,76,127
31679,note_off,71,0,0,,4,,,76,127
31680,note_on,1,0,0,,4,,,76,127
31751,note_off,71,0,0,,4,,,76,127
31751,note_off,0,0,0,,4,,,52,127
31752,note_on,1,0,0,,2,,,74,127
31752,note_on,0,0,0,,8,,,56,127
31823,note_off,71,0,0,,2,,,74,127
31824,note_on,1,0,0,,2,,,74,127
31895,note_off,71,0,0,,2,,,74,127
31896,note_on,1,0,0,,2,,,74,127
31967,note_off,71,0,0,,2,,,74,127
31968,note_on,1,0,0,,2,,,74,127
32039,note_off,71,0,0,,2,,,74,127
32039,note_off,0,0,0,,8,,,56,127
32040,note_on,1,0,0,,1,,,73,127
32040,note_on,0,0,0,,10,,,57,127
32111,note_off,71,0,0,,1,,,73,127
32112,note_on,1,0,0,,1,,,73,127
32183,note_off,71,0,0,,1,,,73,127
32184,note_on,1,0,0,,1,,,73,127
32255,note_off,71,0,0,,1,,,73,127
32256,note_on,1,0,0,,1,,,73,127
32327,note_off,71,0,0,,1,,,73,127
32327,note_off,0,0,0,,10,,,57,127
32328,note_on,1,0,0,,4,,,76,127
32328,note_on,0,0,0,,10,,,45,127
32399,note_off,71,0,0,,4,,,76,127
32400,note_on,1,0,0,,4,,,76,127
32471,note_off,71,0,0,,4,,,76,127
32472,note_on,1,0,0,,4,,,76,127
32543,note_off,71,0,0,,4,,,76,127
32544,note_on,1,0,0,,4,,,76,127
32615,note_off,71,0,0,,4,,,76,127
32615,note_off,0,0,0,,10,,,45,127
32616,note_on,1,0,0,,4,,,76,127
32616,note_on,0,0,0,,4,,,52,127
32687,note_off,71,0,0,,4,,,76,127
32688,note_on,1,0,0,,4,,,76,127
32759,note_off,71,0,0,,4,,,76,127
32760,note_on,1,0,0,,4,,,76,127
32831,note_off,71,0,0,,4,,,76,127
32832,note_on,1,0,0,,4,,,76,127
32903,note_off,71,0,0,,4,,,76,127
32903,note_off,0,0,0,,4,,,52,127
32904,note_on,1,0,0,,2,,,74,127
32904,note_on,0,0,0,,8,,,56,127
32975,note_off,71,0,0,,2,,,74,127
32976,note_on,1,0,0,,2,,,74,127
33047,note_off,71,0,0,,2,,,74,127
33048,note_on,1,0,0,,2,,,74,127
33119,note_off,71,0,0,,2,,,74,127
33120,note_on,1,0,0,,2,,,74,127
33191,note_off,71,0,0,,2,,,74,127
33191,note_off,0,0,0,,8,,,56,127
33192,note_on,1,0,0,,1,,,73,127
33192,note_on,0,0,0,,10,,,57,127
33335,note_off,143,0,0,,1,,,73,127
33336,note_on,1,0,0,,10,,,81,127
33479,note_off,143,0,0,,10,,,81,127
33479,note_off,0,0,0,,10,,,57,127
33480,note_on,1,0,0,,6,,,78,127
33480,note_on,0,0,0,,2,,,50,127
33623,note_off,143,0,0,,6,,,78,127
33624,note_on,1,0,0,,2,,,74,127
33767,note_off,143,0,0,,2,,,74,127
33767,note_off,0,0,0,,2,,,50,127
33768,note_on,1,0,0,,1,,,73,127
33768,note_on,0,0,0,,4,,,52,127
33911,note_off,143,0,0,,1,,,73,127
33912,note_on,1,0,0,,10,,,69,127
34055,note_off,143,0,0,,10,,,69,127
34055,note_off,0,0,0,,4,,,52,127
34056,note_on,1,0,0,,12,,,71,127
34056,note_on,0,0,0,,4,,,40,127
34199,note_off,143,0,0,,12,,,71,127
34200,note_on,1,0,0,,8,,,68,127
34343,note_off,143,0,0,,8,,,68,127
34343,note_off,0,0,0,,4,,,40,127
34344,note_on,1,0,0,,10,,,69,127
34344,note_on,0,0,0,,10,,,57,127
34486,note_off,142,0,0,,10,,,69,127
34487,note_off,1,0,0,,10,,,57,127
34488,note_on,1,0,0,,10,,,69,127
34631,note_off,143,0,0,,10,,,69,127
34632,note_on,1,0,0,,1,,,73,127
34632,note_on,0,0,0,,10,,,69,127
34775,note_off,143,0,0,,10,,,69,127
34776,note_on,1,0,0,,8,,,68,127
34919,note_off,143,0,0,,8,,,68,127
34920,note_on,1,0,0,,8,,,68,127
35063,note_off,143,0,0,,8,,,68,127
35064,note_on,1,0,0,,6,,,66,127
35207,note_off,143,0,0,,6,,,66,127
35207,note_off,0,0,0,,1,,,73,127
35208,note_on,1,0,0,,3,,,75,127
35208,note_on,0,0,0,,6,,,66,127
35351,note_off,143,0,0,,6,,,66,127
35352,note_on,1,0,0,,4,,,64,127
35495,note_off,143,0,0,,4,,,64,127
35495,note_off,0,0,0,,3,,,75,127
35496,note_on,1,0,0,,4,,,76,127
35496,note_on,0,0,0,,4,,,64,127
35639,note_off,143,0,0,,4,,,64,127
35640,note_on,1,0,0,,2,,,62,127
35783,note_off,143,0,0,,2,,,62,127
35783,note_off,0,0,0,,4,,,76,127
35784,note_on,1,0,0,,6,,,78,127
35784,note_on,0,0,0,,2,,,62,127
35927,note_off,143,0,0,,2,,,62,127
35928,note_on,1,0,0,,1,,,61,127
36071,note_off,143,0,0,,1,,,61,127
36072,note_on,1,0,0,,1,,,61,127
36215,note_off,143,0,0,,1,,,61,127
36216,note_on,1,0,0,,12,,,59,127
36359,note_off,143,0,0,,12,,,59,127
36359,note_off,0,0,0,,6,,,78,127
36360,note_on,1,0,0,,8,,,80,127
36360,note_on,0,0,0,,12,,,59,127
36503,note_off,143,0,0,,12,,,59,127
36504,note_on,1,0,0,,10,,,57,127
36647,note_off,143,0,0,,10,,,57,127
36647,note_off,0,0,0,,8,,,80,127
36648,note_on,1,0,0,,10,,,81,127
36648,note_on,0,0,0,,10,,,57,127
36791,note_off,143,0,0,,10,,,57,127
36792,note_on,1,0,0,,10,,,69,127
36935,note_off,143,0,0,,10,,,69,127
36935,note_off,0,0,0,,10,,,81,127
36936,note_on,1,0,0,,1,,,73,127
36936,note_on,0,0,0,,10,,,69,127
37079,note_off,143,0,0,,10,,,69,127
37080,note_on,1,0,0,,8,,,68,127
37223,note_off,143,0,0,,8,,,68,127
37224,note_on,1,0,0,,8,,,68,127
37367,note_off,143,0,0,,8,,,68,127
37368,note_on,1,0,0,,6,,,66,127
37511,note_off,143,0,0,,6,,,66,127
37511,note_off,0,0,0,,1,,,73,127
37512,note_on,1,0,0,,3,,,75,127
37512,note_on,0,0,0,,6,,,66,127
37655,note_off,143,0,0,,6,,,66,127
37656,note_on,1,0,0,,4,,,64,127
37799,note_off,143,0,0,,4,,,64,127
37799,note_off,0,0,0,,3,,,75,127
37800,note_on,1,0,0,,4,,,76,127
37800,note_on,0,0,0,,4,,,64,127
37943,note_off,143,0,0,,4,,,64,127
37944,note_on,1,0,0,,2,,,62,127
38087,note_off,143,0,0,,2,,,62,127
38087,note_off,0,0,0,,4,,,76,127
38088,note_on,1,0,0,,6,,,78,127
38088,note_on,0,0,0,,2,,,62,127
38231,note_off,143,0,0,,2,,,62,127
38232,note_on,1,0,0,,1,,,61,127
38375,note_off,143,0,0,,1,,,61,127
38376,note_on,1,0,0,,1,,,61,127
38519,note_off,143,0,0,,1,,,61,127
38520,note_on,1,0,0,,12,,,59,127
38663,note_off,143,0,0,,12,,,59,127
38663,note_off,0,0,0,,6,,,78,127
38664,note_on,1,0,0,,8,,,80,127
38664,note_on,0,0,0,,12,,,59,127
38807,note_off,143,0,0,,12,,,59,127
38808,note_on,1,0,0,,10,,,57,127
38951,note_off,143,0,0,,10,,,57,127
38951,note_off,0,0,0,,8,,,80,127
38952,note_on,1,0,0,,10,,,81,127
38952,note_on,0,0,0,,10,,,57,127
39095,note_off,143,0,0,,10,,,81,127
39096,note_on,1,0,0,,1,,,73,127
39239,note_off,143,0,0,,1,,,73,127
39239,note_off,0,0,0,,10,,,57,127
39240,note_on,1,0,0,,2,,,74,127
39240,note_on,0,0,0,,2,,,50,127
39383,note_off,143,0,0,,2,,,74,127
39384,note_on,1,0,0,,6,,,78,127
39527,note_off,143,0,0,,6,,,78,127
39527,note_off,0,0,0,,2,,,50,127
39528,note_on,1,0,0,,4,,,76,127
39528,note_on,0,0,0,,4,,,52,127
39671,note_off,143,0,0,,4,,,76,127
39672,note_on,1,0,0,,10,,,69,127
39815,note_off,143,0,0,,10,,,69,127
39816,note_on,1,0,0,,8,,,68,127
39816,note_on,0,0,0,,4,,,40,127
39959,note_off,143,0,0,,8,,,68,127
39960,note_on,1,0,0,,12,,,71,127
40103,note_off,143,0,0,,12,,,71,127
40103,note_off,0,0,0,,4,,,40,127
40103,note_off,0,0,0,,4,,,52,127
40104,note_on,1,0,0,,10,,,69,127
40104,note_on,0,0,0,,10,,,45,127
40175,note_off,71,0,0,,10,,,69,127
40176,note_on,1,0,0,,10,,,69,127
40247,note_off,71,0,0,,10,,,69,127
40248,note_on,1,0,0,,10,,,69,127
40319,note_off,71,0,0,,10,,,69,127
40320,note_on,1,0,0,,10,,,69,127
40391,note_off,71,0,0,,10,,,69,127
40391,note_off,0,0,0,,10,,,45,127
40392,note_on,1,0,0,,10,,,81,127
40392,note_on,0,0,0,,1,,,49,127
40463,note_off,71,0,0,,10,,,81,127
40464,note_on,1,0,0,,10,,,81,127
40535,note_off,71,0,0,,10,,,81,127
40536,note_on,1,0,0,,10,,,81,127
40607,note_off,71,0,0,,10,,,81,127
40608,note_on,1,0,0,,10,,,81,127
40679,note_off,71,0,0,,10,,,81,127
40679,note_off,0,0,0,,1,,,49,127
40680,note_on,1,0,0,,6,,,78,127
40680,note_on,0,0,0,,2,,,50,127
40751,note_off,71,0,0,,6,,,78,127
40752,note_on,1,0,0,,6,,,78,127
40823,note_off,71,0,0,,6,,,78,127
40824,note_on,1,0,0,,6,,,78,127
40895,note_off,71,0,0,,6,,,78,127
40896,note_on,1,0,0,,6,,,78,127
40967,note_off,71,0,0,,6,,,78,127
40967,note_off,0,0,0,,2,,,50,127
40968,note_on,1,0,0,,12,,,71,127
40968,note_on,0,0,0,,8,,,56,127
41039,note_off,71,0,0,,12,,,71,127
41040,note_on,1,0,0,,12,,,71,127
41111,note_off,71,0,0,,12,,,71,127
41112,note_on,1,0,0,,12,,,71,127
41183,note_off,71,0,0,,12,,,71,127
41184,note_on,1,0,0,,12,,,71,127
41255,note_off,71,0,0,,12,,,71,127
41255,note_off,0,0,0,,8,,,56,127
41256,note_on,1,0,0,,1,,,73,127
41256,note_on,0,0,0,,10,,,57,127
41327,note_off,71,0,0,,1,,,73,127
41328,note_on,1,0,0,,1,,,73,127
41399,note_off,71,0,0,,1,,,73,127
41400,note_on,1,0,0,,1,,,73,127
41471,note_off,71,0,0,,1,,,73,127
41472,note_on,1,0,0,,1,,,73,127
41543,note_off,71,0,0,,1,,,73,127
41543,note_off,0,0,0,,10,,,57,127
41544,note_on,1,0,0,,4,,,76,127
41544,note_on,0,0,0,,1,,,49,127
41615,note_off,71,0,0,,4,,,76,127
41616,note_on,1,0,0,,4,,,76,127
41687,note_off,71,0,0,,4,,,76,127
41688,note_on,1,0,0,,4,,,76,127
41759,note_off,71,0,0,,4,,,76,127
41760,note_on,1,0,0,,4,,,76,127
41831,note_off,71,0,0,,4,,,76,127
41831,note_off,0,0,0,,1,,,49,127
41832,note_on,1,0,0,,12,,,71,127
41832,note_on,0,0,0,,2,,,50,127
41903,note_off,71,0,0,,12,,,71,127
41904,note_on,1,0,0,,12,,,71,127
41975,note_off,71,0,0,,12,,,71,127
41976,note_on,1,0,0,,12,,,71,127
42047,note_off,71,0,0,,12,,,71,127
42048,note_on,1,0,0,,12,,,71,127
42119,note_off,71,0,0,,12,,,71,127
42119,note_off,0,0,0,,2,,,50,127
42120,note_on,1,0,0,,8,,,68,127
42120,note_on,0,0,0,,4,,,52,127
42191,note_off,71,0,0,,8,,,68,127
42192,note_on,1,0,0,,8,,,68,127
42263,note_off,71,0,0,,8,,,68,127
42264,note_on,1,0,0,,8,,,68,127
42335,note_off,71,0,0,,8,,,68,127
42336,note_on,1,0,0,,8,,,68,127
42407,note_off,71,0,0,,8,,,68,127
42407,note_off,0,0,0,,4,,,52,127
42408,note_on,1,0,0,,10,,,69,127
42408,note_on,0,0,0,,10,,,45,127
42479,note_off,71,0,0,,10,,,69,127
42480,note_on,1,0,0,,10,,,69,127
42551,note_off,71,0,0,,10,,,69,127
42552,note_on,1,0,0,,10,,,69,127
42623,note_off,71,0,0,,10,,,69,127
42624,note_on,1,0,0,,10,,,69,127
42695,note_off,71,0,0,,10,,,69,127
42695,note_off,0,0,0,,10,,,45,127
42696,note_on,1,0,0,,10,,,81,127
42696,note_on,0,0,0,,1,,,49,127
42767,note_off,71,0,0,,10,,,81,127
42768,note_on,1,0,0,,10,,,81,127
42839,note_off,71,0,0,,10,,,81,127
42840,note_on,1,0,0,,10,,,81,127
42911,note_off,71,0,0,,10,,,81,127
42912,note_on,1,0,0,,10,,,81,127
42983,note_off,71,0,0,,10,,,81,127
42983,note_off,0,0,0,,1,,,49,127
42984,note_on,1,0,0,,6,,,78,127
42984,note_on,0,0,0,,2,,,50,127
43055,note_off,71,0,0,,6,,,78,127
43056,note_on,1,0,0,,6,,,78,127
43127,note_off,71,0,0,,6,,,78,127
43128,note_on,1,0,0,,6,,,78,127
43199,note_off,71,0,0,,6,,,78,127
43200,note_on,1,0,0,,6,,,78,127
43271,note_off,71,0,0,,6,,,78,127
43271,note_off,0,0,0,,2,,,50,127
43272,note_on,1,0,0,,12,,,71,127
43272,note_on,0,0,0,,8,,,56,127
43343,note_off,71,0,0,,12,,,71,127
43344,note_on,1,0,0,,12,,,71,127
43415,note_off,71,0,0,,12,,,71,127
43416,note_on,1,0,0,,12,,,71,127
43487,note_off,71,0,0,,12,,,71,127
43488,note_on,1,0,0,,12,,,71,127
43559,note_off,71,0,0,,12,,,71,127
43559,note_off,0,0,0,,8,,,56,127
43560,note_on,1,0,0,,1,,,73,127
43560,note_on,0,0,0,,10,,,57,127
43631,note_off,71,0,0,,1,,,73,127
43632,note_on,1,0,0,,1,,,73,127
43703,note_off,71,0,0,,1,,,73,127
43704,note_on,1,0,0,,1,,,73,127
43775,note_off,71,0,0,,1,,,73,127
43776,note_on,1,0,0,,1,,,73,127
43847,note_off,71,0,0,,1,,,73,127
43847,note_off,0,0,0,,10,,,57,127
43848,note_on,1,0,0,,4,,,76,127
43848,note_on,0,0,0,,1,,,49,127
43919,note_off,71,0,0,,4,,,76,127
43920,note_on,1,0,0,,4,,,76,127
43991,note_off,71,0,0,,4,,,76,127
43992,note_on,1,0,0,,4,,,76,127
44063,note_off,71,0,0,,4,,,76,127
44064,note_on,1,0,0,,4,,,76,127
44135,note_off,71,0,0,,4,,,76,127
44135,note_off,0,0,0,,1,,,49,127
44136,note_on,1,0,0,,12,,,71,127
44136,note_on,0,0,0,,2,,,50,127
44207,note_off,71,0,0,,12,,,71,127
44208,note_on,1,0,0,,12,,,71,127
44279,note_off,71,0,0,,12,,,71,127
44280,note_on,1,0,0,,12,,,71,127
44351,note_off,71,0,0,,12,,,71,127
44352,note_on,1,0,0,,12,,,71,127
44423,note_off,71,0,0,,12,,,71,127
44423,note_off,0,0,0,,2,,,50,127
44424,note_on,1,0,0,,8,,,68,127
44424,note_on,0,0,0,,4,,,52,127
44495,note_off,71,0,0,,8,,,68,127
44496,note_on,1,0,0,,8,,,68,127
44567,note_off,71,0,0,,8,,,68,127
44568,note_on,1,0,0,,8,,,68,127
44639,note_off,71,0,0,,8,,,68,127
44640,note_on,1,0,0,,8,,,68,127
44711,note_off,71,0,0,,8,,,68,127
44711,note_off,0,0,0,,4,,,52,127
44712,note_on,1,0,0,,10,,,69,127
44712,note_on,0,0,0,,10,,,45,127
44855,note_off,143,0,0,,10,,,45,127
44856,note_on,1,0,0,,1,,,49,127
44999,note_off,143,0,0,,1,,,49,127
45000,note_on,1,0,0,,4,,,52,127
45143,note_off,143,0,0,,4,,,52,127
45144,note_on,1,0,0,,10,,,57,127
45287,note_off,143,0,0,,10,,,57,127
45287,note_off,0,0,0,,10,,,69,127
45288,note_on,1,0,0,,10,,,81,127
45288,note_on,0,0,0,,1,,,61,127
45431,note_off,143,0,0,,1,,,61,127
45432,note_on,1,0,0,,4,,,64,127
45575,note_off,143,0,0,,4,,,64,127
45576,note_on,1,0,0,,10,,,69,127
45719,note_off,143,0,0,,10,,,69,127
45720,note_on,1,0,0,,1,,,73,127
45863,note_off,143,0,0,,1,,,73,127
45864,note_on,1,0,0,,4,,,40,127
46007,note_off,143,0,0,,10,,,81,127
46008,note_on,1,0,0,,6,,,78,127
46151,note_off,143,0,0,,6,,,78,127
46152,note_on,1,0,0,,2,,,74,127
46295,note_off,143,0,0,,2,,,74,127
46296,note_on,1,0,0,,12,,,71,127
46439,note_off,143,0,0,,12,,,71,127
46440,note_on,1,0,0,,1,,,73,127
46583,note_off,143,0,0,,1,,,73,127
46584,note_on,1,0,0,,4,,,76,127
46727,note_off,143,0,0,,4,,,76,127
46728,note_off,1,0,0,,4,,,40,127
46728,note_on,0,0,0,,8,,,68,127
46871,note_off,143,0,0,,8,,,68,127
46872,note_on,1,0,0,,12,,,71,127
47015,note_off,143,0,0,,12,,,71,127
47016,note_on,1,0,0,,10,,,69,127
47016,note_on,0,0,0,,10,,,45,127
47159,note_off,143,0,0,,10,,,45,127
47160,note_on,1,0,0,,1,,,49,127
47303,note_off,143,0,0,,1,,,49,127
47304,note_on,1,0,0,,4,,,52,127
47447,note_off,143,0,0,,4,,,52,127
47448,note_on,1,0,0,,10,,,57,127
47591,note_off,143,0,0,,10,,,57,127
47591,note_off,0,0,0,,10,,,69,127
47592,note_on,1,0,0,,10,,,81,127
47592,note_on,0,0,0,,1,,,61,127
47735,note_off,143,0,0,,1,,,61,127
47736,note_on,1,0,0,,4,,,64,127
47879,note_off,143,0,0,,4,,,64,127
47880,note_on,1,0,0,,10,,,69,127
48023,note_off,143,0,0,,10,,,69,127
48024,note_on,1,0,0,,1,,,73,127
48167,note_off,143,0,0,,1,,,73,127
48168,note_on,1,0,0,,4,,,40,127
48311,note_off,143,0,0,,10,,,81,127
48312,note_on,1,0,0,,6,,,78,127
48455,note_off,143,0,0,,6,,,78,127
48456,note_on,1,0,0,,2,,,74,127
48599,note_off,143,0,0,,2,,,74,127
48600,note_on,1,0,0,,12,,,71,127
48743,note_off,143,0,0,,12,,,71,127
48744,note_on,1,0,0,,1,,,73,127
48887,note_off,143,0,0,,1,,,73,127
48888,note_on,1,0,0,,4,,,76,127
49031,note_off,143,0,0,,4,,,76,127
49032,note_off,1,0,0,,4,,,40,127
49032,note_on,0,0,0,,8,,,68,127
49175,note_off,143,0,0,,8,,,68,127
49176,note_on,1,0,0,,12,,,71,127
49319,note_off,143,0,0,,12,,,71,127
49320,note_on,1,0,0,,10,,,69,127
49320,note_on,0,0,0,,10,,,45,127
49391,note_off,71,0,0,,10,,,69,127
49392,note_on,1,0,0,,10,,,69,127
49463,note_off,71,0,0,,10,,,69,127
49464,note_on,1,0,0,,1,,,73,127
49535,note_off,71,0,0,,1,,,73,127
49536,note_on,1,0,0,,1,,,73,127
49607,note_off,71,0,0,,1,,,73,127
49608,note_on,1,0,0,,4,,,76,127
49679,note_off,71,0,0,,4,,,76,127
49680,note_on,1,0,0,,4,,,76,127
49751,note_off,71,0,0,,4,,,76,127
49752,note_on,1,0,0,,10,,,81,127
49823,note_off,71,0,0,,10,,,81,127
49824,note_on,1,0,0,,10,,,81,127
49895,note_off,71,0,0,,10,,,81,127
49896,note_on,1,0,0,,4,,,76,127
49967,note_off,71,0,0,,4,,,76,127
49968,note_on,1,0,0,,4,,,76,127
50039,note_off,71,0,0,,4,,,76,127
50040,note_on,1,0,0,,1,,,73,127
50111,note_off,71,0,0,,1,,,73,127
50112,note_on,1,0,0,,1,,,73,127
50183,note_off,71,0,0,,1,,,73,127
50184,note_on,1,0,0,,10,,,69,127
50255,note_off,71,0,0,,10,,,69,127
50256,note_on,1,0,0,,10,,,69,127
50327,note_off,71,0,0,,10,,,69,127
50328,note_on,1,0,0,,4,,,64,127
50399,note_off,71,0,0,,4,,,64,127
50400,note_on,1,0,0,,4,,,64,127
50471,note_off,71,0,0,,4,,,64,127
50471,note_off,0,0,0,,10,,,45,127
50472,note_on,1,0,0,,1,,,61,127
50472,note_on,0,0,0,,10,,,45,127
50543,note_off,71,0,0,,1,,,61,127
50544,note_on,1,0,0,,1,,,61,127
50615,note_off,71,0,0,,1,,,61,127
50616,note_on,1,0,0,,4,,,76,127
50687,note_off,71,0,0,,4,,,76,127
50688,note_on,1,0,0,,4,,,76,127
50759,note_off,71,0,0,,4,,,76,127
50760,note_on,1,0,0,,1,,,73,127
50831,note_off,71,0,0,,1,,,73,127
50832,note_on,1,0,0,,1,,,73,127
50903,note_off,71,0,0,,1,,,73,127
50904,note_on,1,0,0,,10,,,69,127
50975,note_off,71,0,0,,10,,,69,127
50976,note_on,1,0,0,,10,,,69,127
51047,note_off,71,0,0,,10,,,69,127
51048,note_on,1,0,0,,4,,,64,127
51119,note_off,71,0,0,,4,,,64,127
51120,note_on,1,0,0,,4,,,64,127
51191,note_off,71,0,0,,4,,,64,127
51192,note_on,1,0,0,,1,,,61,127
51263,note_off,71,0,0,,1,,,61,127
51264,note_on,1,0,0,,1,,,61,127
51335,note_off,71,0,0,,1,,,61,127
51335,note_off,0,0,0,,10,,,45,127
51336,note_on,1,0,0,,10,,,57,127
51479,note_off,143,0,0,,10,,,57,127
51480,note_on,1,0,0,,4,,,52,127
51623,note_off,143,0,0,,4,,,52,127
51624,note_on,1,0,0,,10,,,45,127
52488,note_off,864,0,0,,10,,,45,127
52776,note_on,288,0,0,,10,,,57,127
52776,note_on,0,0,0,,1,,,73,127
52919,note_off,143,0,0,,1,,,73,127
52920,note_on,1,0,0,,2,,,74,127
53063,note_off,143,0,0,,2,,,74,127
53064,note_on,1,0,0,,4,,,76,127
53207,note_off,143,0,0,,4,,,76,127
53208,note_on,1,0,0,,10,,,69,127
53351,note_off,143,0,0,,10,,,69,127
53351,note_off,0,0,0,,10,,,57,127
53352,note_on,1,0,0,,4,,,52,127
53352,note_on,0,0,0,,12,,,71,127
53495,note_off,143,0,0,,12,,,71,127
53496,note_on,1,0,0,,8,,,68,127
53639,note_off,143,0,0,,8,,,68,127
53639,note_off,0,0,0,,4,,,52,127
53640,note_on,1,0,0,,1,,,49,127
53640,note_on,0,0,0,,10,,,69,127
53927,note_off,287,0,0,,10,,,69,127
53927,note_off,0,0,0,,1,,,49,127
53928,note_on,1,0,0,,10,,,45,127
53928,note_on,0,0,0,,1,,,73,127
54071,note_off,143,0,0,,1,,,73,127
54072,note_on,1,0,0,,2,,,74,127
54215,note_off,143,0,0,,2,,,74,127
54215,note_off,0,0,0,,10,,,45,127
54216,note_on,1,0,0,,1,,,49,127
54216,note_on,0,0,0,,4,,,76,127
54359,note_off,143,0,0,,4,,,76,127
54360,note_on,1,0,0,,10,,,69,127
54503,note_off,143,0,0,,10,,,69,127
54503,note_off,0,0,0,,1,,,49,127
54504,note_on,1,0,0,,4,,,52,127
54504,note_on,0,0,0,,12,,,71,127
54647,note_off,143,0,0,,12,,,71,127
54648,note_on,1,0,0,,8,,,68,127
54791,note_off,143,0,0,,8,,,68,127
54791,note_off,0,0,0,,4,,,52,127
54792,note_on,1,0,0,,10,,,45,127
54792,note_on,0,0,0,,10,,,69,127
55079,note_off,287,0,0,,10,,,45,127
55080,note_on,1,0,0,,1,,,61,127
55223,note_off,143,0,0,,1,,,61,127
55224,note_on,1,0,0,,2,,,62,127
55367,note_off,143,0,0,,2,,,62,127
55367,note_off,0,0,0,,10,,,69,127
55368,note_on,1,0,0,,4,,,64,127
55368,note_on,0,0,0,,4,,,76,127
55511,note_off,143,0,0,,4,,,64,127
55512,note_on,1,0,0,,2,,,62,127
55655,note_off,143,0,0,,2,,,62,127
55656,note_on,1,0,0,,2,,,62,127
55799,note_off,143,0,0,,2,,,62,127
55800,note_on,1,0,0,,1,,,61,127
55943,note_off,143,0,0,,1,,,61,127
55944,note_on,1,0,0,,1,,,61,127
56087,note_off,143,0,0,,1,,,61,127
56088,note_on,1,0,0,,12,,,59,127
56231,note_off,143,0,0,,12,,,59,127
56232,note_on,1,0,0,,12,,,59,127
56375,note_off,143,0,0,,12,,,59,127
56376,note_on,1,0,0,,11,,,58,127
56519,note_off,143,0,0,,11,,,58,127
56519,note_off,0,0,0,,4,,,76,127
56520,note_on,1,0,0,,11,,,58,127
56520,note_on,0,0,0,,4,,,76,127
56663,note_off,143,0,0,,11,,,58,127
56664,note_on,1,0,0,,7,,,55,127
56807,note_off,143,0,0,,7,,,55,127
56808,note_on,1,0,0,,7,,,55,127
56951,note_off,143,0,0,,7,,,55,127
56952,note_on,1,0,0,,6,,,54,127
57095,note_off,143,0,0,,6,,,54,127
57096,note_on,1,0,0,,6,,,54,127
57239,note_off,143,0,0,,4,,,76,127
57240,note_on,1,0,0,,4,,,76,127
57383,note_off,143,0,0,,4,,,76,127
57384,note_on,1,0,0,,4,,,76,127
57527,note_off,143,0,0,,4,,,76,127
57528,note_on,1,0,0,,2,,,74,127
57671,note_off,143,0,0,,2,,,74,127
57672,note_on,1,0,0,,2,,,74,127
57815,note_off,143,0,0,,2,,,74,127
57816,note_on,1,0,0,,1,,,73,127
57959,note_off,143,0,0,,1,,,73,127
57959,note_off,0,0,0,,6,,,54,127
57960,note_on,1,0,0,,6,,,54,127
57960,note_on,0,0,0,,1,,,73,127
58103,note_off,143,0,0,,1,,,73,127
58104,note_on,1,0,0,,2,,,74,127
58247,note_off,143,0,0,,2,,,74,127
58247,note_off,0,0,0,,6,,,54,127
58248,note_on,1,0,0,,12,,,47,127
58248,note_on,0,0,0,,2,,,74,127
58319,note_off,71,0,0,,2,,,74,127
58320,note_on,1,0,0,,2,,,74,127
58391,note_off,71,0,0,,2,,,74,127
58392,note_on,1,0,0,,2,,,74,127
58463,note_off,71,0,0,,2,,,74,127
58464,note_on,1,0,0,,2,,,74,127
58535,note_off,71,0,0,,2,,,74,127
58535,note_off,0,0,0,,12,,,47,127
58536,note_on,1,0,0,,12,,,59,127
58536,note_on,0,0,0,,6,,,78,127
58607,note_off,71,0,0,,6,,,78,127
58608,note_on,1,0,0,,6,,,78,127
58679,note_off,71,0,0,,6,,,78,127
58680,note_on,1,0,0,,6,,,78,127
58751,note_off,71,0,0,,6,,,78,127
58752,note_on,1,0,0,,6,,,78,127
58823,note_off,71,0,0,,6,,,78,127
58823,note_off,0,0,0,,12,,,59,127
58824,note_on,1,0,0,,6,,,54,127
58824,note_on,0,0,0,,6,,,78,127
58895,note_off,71,0,0,,6,,,78,127
58896,note_on,1,0,0,,6,,,78,127
58967,note_off,71,0,0,,6,,,78,127
58968,note_on,1,0,0,,6,,,78,127
59039,note_off,71,0,0,,6,,,78,127
59040,note_on,1,0,0,,6,,,78,127
59111,note_off,71,0,0,,6,,,78,127
59111,note_off,0,0,0,,6,,,54,127
59112,note_on,1,0,0,,11,,,58,127
59112,note_on,0,0,0,,4,,,76,127
59183,note_off,71,0,0,,4,,,76,127
59184,note_on,1,0,0,,4,,,76,127
59255,note_off,71,0,0,,4,,,76,127
59256,note_on,1,0,0,,4,,,76,127
59327,note_off,71,0,0,,4,,,76,127
59328,note_on,1,0,0,,4,,,76,127
59399,note_off,71,0,0,,4,,,76,127
59399,note_off,0,0,0,,11,,,58,127
59400,note_on,1,0,0,,12,,,59,127
59400,note_on,0,0,0,,2,,,74,127
59471,note_off,71,0,0,,2,,,74,127
59472,note_on,1,0,0,,2,,,74,127
59543,note_off,71,0,0,,2,,,74,127
59544,note_on,1,0,0,,2,,,74,127
59615,note_off,71,0,0,,2,,,74,127
59616,note_on,1,0,0,,2,,,74,127
59687,note_off,71,0,0,,2,,,74,127
59688,note_on,1,0,0,,12,,,47,127
59688,note_on,0,0,0,,6,,,78,127
59759,note_off,71,0,0,,6,,,78,127
59760,note_on,1,0,0,,6,,,78,127
59831,note_off,71,0,0,,6,,,78,127
59832,note_on,1,0,0,,6,,,78,127
59903,note_off,71,0,0,,6,,,78,127
59904,note_on,1,0,0,,6,,,78,127
59975,note_off,71,0,0,,6,,,78,127
59975,note_off,0,0,0,,12,,,47,127
59975,note_off,0,0,0,,12,,,59,127
59976,note_on,1,0,0,,2,,,50,127
59976,note_on,0,0,0,,6,,,78,127
60047,note_off,71,0,0,,6,,,78,127
60048,note_on,1,0,0,,6,,,78,127
60119,note_off,71,0,0,,6,,,78,127
60120,note_on,1,0,0,,6,,,78,127
60191,note_off,71,0,0,,6,,,78,127
60192,note_on,1,0,0,,6,,,78,127
60263,note_off,71,0,0,,6,,,78,127
60263,note_off,0,0,0,,2,,,50,127
60264,note_on,1,0,0,,6,,,54,127
60264,note_on,0,0,0,,4,,,76,127
60335,note_off,71,0,0,,4,,,76,127
60336,note_on,1,0,0,,4,,,76,127
60407,note_off,71,0,0,,4,,,76,127
60408,note_on,1,0,0,,4,,,76,127
60479,note_off,71,0,0,,4,,,76,127
60480,note_on,1,0,0,,4,,,76,127
60551,note_off,71,0,0,,4,,,76,127
60551,note_off,0,0,0,,6,,,54,127
60552,note_on,1,0,0,,12,,,59,127
60552,note_on,0,0,0,,2,,,74,127
60624,note_on,72,0,0,,2,,,62,127
60694,note_off,70,0,0,,2,,,74,127
60695,note_off,1,0,0,,2,,,62,127
60696,note_on,1,0,0,,4,,,64,127
60767,note_off,71,0,0,,4,,,64,127
60768,note_on,1,0,0,,6,,,66,127
60839,note_off,71,0,0,,6,,,66,127
60840,note_on,1,0,0,,12,,,47,127
60840,note_on,0,0,0,,8,,,68,127
60911,note_off,71,0,0,,8,,,68,127
60912,note_on,1,0,0,,10,,,69,127
60983,note_off,71,0,0,,10,,,69,127
60984,note_on,1,0,0,,12,,,71,127
61055,note_off,71,0,0,,12,,,71,127
61056,note_on,1,0,0,,1,,,73,127
61127,note_off,71,0,0,,1,,,73,127
61127,note_off,0,0,0,,12,,,47,127
61127,note_off,0,0,0,,12,,,59,127
61128,note_on,1,0,0,,12,,,59,127
61128,note_on,0,0,0,,2,,,74,127
61199,note_off,71,0,0,,12,,,59,127
61200,note_on,1,0,0,,10,,,57,127
61271,note_off,71,0,0,,10,,,57,127
61271,note_off,0,0,0,,2,,,74,127
61272,note_on,1,0,0,,8,,,56,127
61272,note_on,0,0,0,,1,,,73,127
61343,note_off,71,0,0,,8,,,56,127
61344,note_on,1,0,0,,6,,,54,127
61415,note_off,71,0,0,,6,,,54,127
61415,note_off,0,0,0,,1,,,73,127
61416,note_on,1,0,0,,4,,,52,127
61416,note_on,0,0,0,,1,,,73,127
61487,note_off,71,0,0,,4,,,52,127
61488,note_on,1,0,0,,2,,,50,127
61559,note_off,71,0,0,,2,,,50,127
61559,note_off,0,0,0,,1,,,73,127
61560,note_on,1,0,0,,1,,,49,127
61560,note_on,0,0,0,,12,,,71,127
61631,note_off,71,0,0,,1,,,49,127
61632,note_on,1,0,0,,12,,,47,127
61703,note_off,71,0,0,,12,,,47,127
61703,note_off,0,0,0,,12,,,71,127
61704,note_on,1,0,0,,10,,,45,127
61704,note_on,0,0,0,,1,,,73,127
61776,note_on,72,0,0,,1,,,61,127
61846,note_off,70,0,0,,1,,,73,127
61847,note_off,1,0,0,,1,,,61,127
61848,note_on,1,0,0,,3,,,63,127
61919,note_off,71,0,0,,3,,,63,127
61920,note_on,1,0,0,,5,,,65,127
61991,note_off,71,0,0,,5,,,65,127
61991,note_off,0,0,0,,10,,,45,127
61992,note_on,1,0,0,,10,,,57,127
61992,note_on,0,0,0,,6,,,66,127
62063,note_off,71,0,0,,6,,,66,127
62064,note_on,1,0,0,,8,,,68,127
62135,note_off,71,0,0,,8,,,68,127
62136,note_on,1,0,0,,10,,,69,127
62207,note_off,71,0,0,,10,,,69,127
62208,note_on,1,0,0,,12,,,71,127
62279,note_off,71,0,0,,12,,,71,127
62280,note_on,1,0,0,,1,,,73,127
62351,note_off,71,0,0,,10,,,57,127
62352,note_on,1,0,0,,8,,,56,127
62423,note_off,71,0,0,,8,,,56,127
62423,note_off,0,0,0,,1,,,73,127
62424,note_on,1,0,0,,6,,,54,127
62424,note_on,0,0,0,,12,,,71,127
62495,note_off,71,0,0,,6,,,54,127
62496,note_on,1,0,0,,4,,,52,127
62567,note_off,71,0,0,,4,,,52,127
62567,note_off,0,0,0,,12,,,71,127
62568,note_on,1,0,0,,2,,,50,127
62568,note_on,0,0,0,,12,,,71,127
62639,note_off,71,0,0,,2,,,50,127
62640,note_on,1,0,0,,1,,,49,127
62711,note_off,71,0,0,,1,,,49,127
62711,note_off,0,0,0,,12,,,71,127
62712,note_on,1,0,0,,12,,,47,127
62712,note_on,0,0,0,,10,,,69,127
62783,note_off,71,0,0,,12,,,47,127
62784,note_on,1,0,0,,10,,,45,127
62855,note_off,71,0,0,,10,,,45,127
62855,note_off,0,0,0,,10,,,69,127
62856,note_on,1,0,0,,8,,,44,127
62856,note_on,0,0,0,,12,,,71,127
62928,note_on,72,0,0,,12,,,59,127
62998,note_off,70,0,0,,12,,,71,127
62999,note_off,1,0,0,,12,,,59,127
63000,note_on,1,0,0,,1,,,61,127
63071,note_off,71,0,0,,1,,,61,127
63072,note_on,1,0,0,,3,,,63,127
63143,note_off,71,0,0,,3,,,63,127
63143,note_off,0,0,0,,8,,,44,127
63144,note_on,1,0,0,,8,,,56,127
63144,note_on,0,0,0,,5,,,65,127
63215,note_off,71,0,0,,5,,,65,127
63216,note_on,1,0,0,,6,,,66,127
63287,note_off,71,0,0,,6,,,66,127
63288,note_on,1,0,0,,8,,,68,127
63359,note_off,71,0,0,,8,,,68,127
63360,note_on,1,0,0,,10,,,69,127
63431,note_off,71,0,0,,10,,,69,127
63432,note_on,1,0,0,,12,,,71,127
63503,note_off,71,0,0,,8,,,56,127
63504,note_on,1,0,0,,6,,,54,127
63575,note_off,71,0,0,,6,,,54,127
63575,note_off,0,0,0,,12,,,71,127
63576,note_on,1,0,0,,5,,,53,127
63576,note_on,0,0,0,,10,,,69,127
63647,note_off,71,0,0,,5,,,53,127
63648,note_on,1,0,0,,3,,,51,127
63719,note_off,71,0,0,,3,,,51,127
63719,note_off,0,0,0,,10,,,69,127
63720,note_on,1,0,0,,1,,,49,127
63720,note_on,0,0,0,,10,,,69,127
63791,note_off,71,0,0,,1,,,49,127
63792,note_on,1,0,0,,12,,,47,127
63863,note_off,71,0,0,,12,,,47,127
63863,note_off,0,0,0,,10,,,69,127
63864,note_on,1,0,0,,10,,,45,127
63864,note_on,0,0,0,,8,,,68,127
63935,note_off,71,0,0,,10,,,45,127
63936,note_on,1,0,0,,8,,,44,127
64007,note_off,71,0,0,,8,,,44,127
64007,note_off,0,0,0,,8,,,68,127
64008,note_on,1,0,0,,6,,,42,127
64008,note_on,0,0,0,,10,,,69,127
64151,note_off,143,0,0,,6,,,42,127
64152,note_on,1,0,0,,6,,,66,127
64295,note_off,143,0,0,,6,,,66,127
64296,note_on,1,0,0,,6,,,66,127
64439,note_off,143,0,0,,6,,,66,127
64440,note_on,1,0,0,,4,,,64,127
64583,note_off,143,0,0,,4,,,64,127
64584,note_on,1,0,0,,4,,,64,127
64727,note_off,143,0,0,,4,,,64,127
64728,note_on,1,0,0,,2,,,62,127
64871,note_off,143,0,0,,2,,,62,127
64871,note_off,0,0,0,,10,,,69,127
64872,note_on,1,0,0,,2,,,62,127
64872,note_on,0,0,0,,12,,,71,127
65015,note_off,143,0,0,,2,,,62,127
65016,note_on,1,0,0,,1,,,61,127
65159,note_off,143,0,0,,1,,,61,127
65159,note_off,0,0,0,,12,,,71,127
65160,note_on,1,0,0,,1,,,61,127
65160,note_on,0,0,0,,1,,,73,127
65303,note_off,143,0,0,,1,,,61,127
65304,note_on,1,0,0,,12,,,59,127
65447,note_off,143,0,0,,12,,,59,127
65448,note_on,1,0,0,,12,,,59,127
65591,note_off,143,0,0,,12,,,59,127
65592,note_on,1,0,0,,10,,,57,127
65735,note_off,143,0,0,,10,,,57,127
65736,note_on,1,0,0,,10,,,57,127
65879,note_off,143,0,0,,10,,,57,127
65880,note_on,1,0,0,,8,,,56,127
66023,note_off,143,0,0,,8,,,56,127
66023,note_off,0,0,0,,1,,,73,127
66024,note_on,1,0,0,,8,,,56,127
66024,note_on,0,0,0,,5,,,77,127
66167,note_off,143,0,0,,8,,,56,127
66168,note_on,1,0,0,,6,,,54,127
66311,note_off,143,0,0,,6,,,54,127
66311,note_off,0,0,0,,5,,,77,127
66312,note_on,1,0,0,,6,,,54,127
66312,note_on,0,0,0,,6,,,78,127
66455,note_off,143,0,0,,6,,,54,127
66456,note_on,1,0,0,,6,,,66,127
66599,note_off,143,0,0,,6,,,66,127
66599,note_off,0,0,0,,6,,,78,127
66600,note_on,1,0,0,,6,,,66,127
66600,note_on,0,0,0,,10,,,69,127
66743,note_off,143,0,0,,6,,,66,127
66744,note_on,1,0,0,,4,,,64,127
66887,note_off,143,0,0,,4,,,64,127
66888,note_on,1,0,0,,4,,,64,127
67031,note_off,143,0,0,,4,,,64,127
67032,note_on,1,0,0,,2,,,62,127
67175,note_off,143,0,0,,2,,,62,127
67175,note_off,0,0,0,,10,,,69,127
67176,note_on,1,0,0,,2,,,62,127
67176,note_on,0,0,0,,12,,,71,127
67319,note_off,143,0,0,,2,,,62,127
67320,note_on,1,0,0,,1,,,61,127
67463,note_off,143,0,0,,1,,,61,127
67463,note_off,0,0,0,,12,,,71,127
67464,note_on,1,0,0,,1,,,61,127
67464,note_on,0,0,0,,1,,,73,127
67607,note_off,143,0,0,,1,,,61,127
67608,note_on,1,0,0,,12,,,59,127
67751,note_off,143,0,0,,12,,,59,127
67752,note_on,1,0,0,,12,,,59,127
67895,note_off,143,0,0,,12,,,59,127
67896,note_on,1,0,0,,10,,,57,127
68039,note_off,143,0,0,,10,,,57,127
68040,note_on,1,0,0,,10,,,57,127
68183,note_off,143,0,0,,10,,,57,127
68184,note_on,1,0,0,,8,,,56,127
68327,note_off,143,0,0,,8,,,56,127
68327,note_off,0,0,0,,1,,,73,127
68328,note_on,1,0,0,,8,,,56,127
68328,note_on,0,0,0,,5,,,77,127
68471,note_off,143,0,0,,8,,,56,127
68472,note_on,1,0,0,,6,,,54,127
68615,note_off,143,0,0,,6,,,54,127
68615,note_off,0,0,0,,5,,,77,127
68616,note_on,1,0,0,,6,,,54,127
68616,note_on,0,0,0,,6,,,78,127
68688,note_on,72,0,0,,1,,,73,127
68744,note_off,56,0,0,,6,,,78,127
68760,note_on,16,0,0,,10,,,69,127
68816,note_off,56,0,0,,1,,,73,127
68832,note_on,16,0,0,,1,,,73,127
68888,note_off,56,0,0,,10,,,69,127
68904,note_on,16,0,0,,10,,,81,127
68960,note_off,56,0,0,,1,,,73,127
68976,note_on,16,0,0,,1,,,73,127
69032,note_off,56,0,0,,10,,,81,127
69048,note_on,16,0,0,,10,,,69,127
69104,note_off,56,0,0,,1,,,73,127
69120,note_on,16,0,0,,1,,,73,127
69176,note_off,56,0,0,,10,,,69,127
69192,note_on,16,0,0,,6,,,78,127
69248,note_off,56,0,0,,1,,,73,127
69264,note_on,16,0,0,,1,,,73,127
69320,note_off,56,0,0,,6,,,78,127
69336,note_on,16,0,0,,10,,,69,127
69392,note_off,56,0,0,,1,,,73,127
69408,note_on,16,0,0,,1,,,73,127
69464,note_off,56,0,0,,10,,,69,127
69480,note_off,16,0,0,,6,,,54,127
69481,note_on,1,0,0,,6,,,54,127
69481,note_on,0,0,0,,10,,,81,127
69537,note_off,56,0,0,,1,,,73,127
69553,note_on,16,0,0,,1,,,73,127
69609,note_off,56,0,0,,10,,,81,127
69625,note_on,16,0,0,,10,,,69,127
69681,note_off,56,0,0,,1,,,73,127
69697,note_on,16,0,0,,1,,,73,127
69753,note_off,56,0,0,,10,,,69,127
69769,note_off,16,0,0,,6,,,54,127
69770,note_on,1,0,0,,8,,,56,127
69770,note_on,0,0,0,,6,,,78,127
69826,note_off,56,0,0,,1,,,73,127
69842,note_on,16,0,0,,1,,,73,127
69898,note_off,56,0,0,,6,,,78,127
69914,note_on,16,0,0,,8,,,68,127
69970,note_off,56,0,0,,1,,,73,127
69986,note_on,16,0,0,,1,,,73,127
70042,note_off,56,0,0,,8,,,68,127
70058,note_off,16,0,0,,8,,,56,127
70059,note_on,1,0,0,,8,,,44,127
70059,note_on,0,0,0,,4,,,76,127
70115,note_off,56,0,0,,1,,,73,127
70131,note_on,16,0,0,,1,,,73,127
70187,note_off,56,0,0,,4,,,76,127
70203,note_on,16,0,0,,8,,,68,127
70259,note_off,56,0,0,,1,,,73,127
70275,note_on,16,0,0,,1,,,73,127
70331,note_off,56,0,0,,8,,,68,127
70347,note_off,16,0,0,,8,,,44,127
70348,note_on,1,0,0,,8,,,44,127
70348,note_on,0,0,0,,4,,,76,127
70404,note_off,56,0,0,,1,,,73,127
70420,note_on,16,0,0,,1,,,73,127
70476,note_off,56,0,0,,4,,,76,127
70492,note_on,16,0,0,,8,,,68,127
70548,note_off,56,0,0,,1,,,73,127
70564,note_on,16,0,0,,1,,,73,127
70620,note_off,56,0,0,,8,,,68,127
70636,note_off,16,0,0,,8,,,44,127
70637,note_on,1,0,0,,8,,,44,127
70637,note_on,0,0,0,,3,,,75,127
70693,note_off,56,0,0,,1,,,73,127
70709,note_on,16,0,0,,0,,,72,127
70765,note_off,56,0,0,,3,,,75,127
70781,note_on,16,0,0,,8,,,68,127
70837,note_off,56,0,0,,0,,,72,127
70853,note_on,16,0,0,,0,,,72,127
70909,note_off,56,0,0,,8,,,68,127
70925,note_off,16,0,0,,8,,,44,127
70926,note_on,1,0,0,,1,,,49,127
70926,note_on,0,0,0,,4,,,76,127
70982,note_off,56,0,0,,0,,,72,127
70998,note_on,16,0,0,,1,,,73,127
71054,note_off,56,0,0,,4,,,76,127
71070,note_on,16,0,0,,8,,,68,127
71126,note_off,56,0,0,,1,,,73,127
71142,note_on,16,0,0,,1,,,73,127
71198,note_off,56,0,0,,8,,,68,127
71214,note_on,16,0,0,,8,,,80,127
71270,note_off,56,0,0,,1,,,73,127
71286,note_on,16,0,0,,1,,,73,127
71342,note_off,56,0,0,,8,,,80,127
71358,note_on,16,0,0,,8,,,68,127
71414,note_off,56,0,0,,1,,,73,127
71430,note_on,16,0,0,,1,,,73,127
71486,note_off,56,0,0,,8,,,68,127
71502,note_on,16,0,0,,4,,,76,127
71558,note_off,56,0,0,,1,,,73,127
71574,note_on,16,0,0,,1,,,73,127
71630,note_off,56,0,0,,4,,,76,127
71646,note_on,16,0,0,,8,,,68,127
71702,note_off,56,0,0,,1,,,73,127
71718,note_on,16,0,0,,1,,,73,127
71774,note_off,56,0,0,,8,,,68,127
71790,note_off,16,0,0,,1,,,49,127
71791,note_on,1,0,0,,1,,,49,127
71791,note_on,0,0,0,,8,,,80,127
71847,note_off,56,0,0,,1,,,73,127
71863,note_on,16,0,0,,1,,,73,127
71919,note_off,56,0,0,,8,,,80,127
71935,note_on,16,0,0,,8,,,68,127
71991,note_off,56,0,0,,1,,,73,127
72007,note_on,16,0,0,,1,,,73,127
72063,note_off,56,0,0,,8,,,68,127
72079,note_off,16,0,0,,1,,,49,127
72080,note_on,1,0,0,,6,,,54,127
72080,note_on,0,0,0,,4,,,76,127
72136,note_off,56,0,0,,1,,,73,127
72152,note_on,16,0,0,,1,,,73,127
72208,note_off,56,0,0,,4,,,76,127
72224,note_on,16,0,0,,6,,,66,127
72280,note_off,56,0,0,,1,,,73,127
72296,note_on,16,0,0,,1,,,73,127
72352,note_off,56,0,0,,6,,,66,127
72368,note_on,16,0,0,,6,,,42,127
72368,note_on,0,0,0,,2,,,74,127
72424,note_off,56,0,0,,1,,,73,127
72440,note_on,16,0,0,,12,,,71,127
72496,note_off,56,0,0,,2,,,74,127
72512,note_on,16,0,0,,6,,,66,127
72568,note_off,56,0,0,,12,,,71,127
72584,note_on,16,0,0,,12,,,71,127
72640,note_off,56,0,0,,6,,,66,127
72656,note_off,16,0,0,,6,,,42,127
72656,note_off,0,0,0,,6,,,54,127
72657,note_on,1,0,0,,6,,,42,127
72657,note_on,0,0,0,,2,,,74,127
72713,note_off,56,0,0,,12,,,71,127
72729,note_on,16,0,0,,12,,,71,127
72785,note_off,56,0,0,,2,,,74,127
72801,note_on,16,0,0,,6,,,66,127
72857,note_off,56,0,0,,12,,,71,127
72873,note_on,16,0,0,,12,,,71,127
72929,note_off,56,0,0,,6,,,66,127
72945,note_off,16,0,0,,6,,,42,127
72946,note_on,1,0,0,,6,,,42,127
72946,note_on,0,0,0,,1,,,73,127
73002,note_off,56,0,0,,12,,,71,127
73018,note_on,16,0,0,,11,,,70,127
73074,note_off,56,0,0,,1,,,73,127
73090,note_on,16,0,0,,6,,,66,127
73146,note_off,56,0,0,,11,,,70,127
73162,note_on,16,0,0,,1,,,73,127
73218,note_off,56,0,0,,6,,,66,127
73234,note_off,16,0,0,,6,,,42,127
73235,note_on,1,0,0,,12,,,47,127
73235,note_on,0,0,0,,2,,,74,127
73291,note_off,56,0,0,,1,,,73,127
73307,note_on,16,0,0,,12,,,71,127
73363,note_off,56,0,0,,2,,,74,127
73379,note_on,16,0,0,,6,,,66,127
73435,note_off,56,0,0,,12,,,71,127
73451,note_on,16,0,0,,12,,,71,127
73507,note_off,56,0,0,,6,,,66,127
73523,note_on,16,0,0,,6,,,78,127
73579,note_off,56,0,0,,12,,,71,127
73595,note_on,16,0,0,,12,,,71,127
73651,note_off,56,0,0,,6,,,78,127
73667,note_on,16,0,0,,6,,,66,127
73723,note_off,56,0,0,,12,,,71,127
73739,note_on,16,0,0,,12,,,71,127
73795,note_off,56,0,0,,6,,,66,127
73811,note_on,16,0,0,,2,,,74,127
73867,note_off,56,0,0,,12,,,71,127
73883,note_on,16,0,0,,12,,,71,127
73939,note_off,56,0,0,,2,,,74,127
73955,note_on,16,0,0,,6,,,66,127
74011,note_off,56,0,0,,12,,,71,127
74027,note_on,16,0,0,,12,,,71,127
74083,note_off,56,0,0,,6,,,66,127
74099,note_off,16,0,0,,12,,,47,127
74100,note_on,1,0,0,,12,,,47,127
74100,note_on,0,0,0,,6,,,78,127
74156,note_off,56,0,0,,12,,,71,127
74172,note_on,16,0,0,,12,,,71,127
74228,note_off,56,0,0,,6,,,78,127
74244,note_on,16,0,0,,6,,,66,127
74300,note_off,56,0,0,,12,,,71,127
74316,note_on,16,0,0,,12,,,71,127
74372,note_off,56,0,0,,6,,,66,127
74388,note_off,16,0,0,,12,,,47,127
74389,note_on,1,0,0,,4,,,52,127
74389,note_on,0,0,0,,6,,,78,127
74445,note_off,56,0,0,,12,,,71,127
74461,note_on,16,0,0,,12,,,71,127
74517,note_off,56,0,0,,6,,,78,127
74533,note_on,16,0,0,,8,,,68,127
74589,note_off,56,0,0,,12,,,71,127
74605,note_on,16,0,0,,12,,,71,127
74661,note_off,56,0,0,,8,,,68,127
74677,note_on,16,0,0,,4,,,40,127
74677,note_on,0,0,0,,4,,,76,127
74733,note_off,56,0,0,,12,,,71,127
74749,note_on,16,0,0,,12,,,71,127
74805,note_off,56,0,0,,4,,,76,127
74821,note_on,16,0,0,,8,,,68,127
74877,note_off,56,0,0,,12,,,71,127
74893,note_on,16,0,0,,12,,,71,127
74949,note_off,56,0,0,,8,,,68,127
74965,note_off,16,0,0,,4,,,40,127
74965,note_off,0,0,0,,4,,,52,127
74966,note_on,1,0,0,,4,,,40,127
74966,note_on,0,0,0,,4,,,76,127
75022,note_off,56,0,0,,12,,,71,127
75038,note_on,16,0,0,,12,,,71,127
75094,note_off,56,0,0,,4,,,76,127
75110,note_on,16,0,0,,8,,,68,127
75166,note_off,56,0,0,,12,,,71,127
75182,note_on,16,0,0,,12,,,71,127
75238,note_off,56,0,0,,8,,,68,127
75254,note_off,16,0,0,,4,,,40,127
75255,note_on,1,0,0,,4,,,40,127
75255,note_on,0,0,0,,2,,,74,127
75311,note_off,56,0,0,,12,,,71,127
75327,note_on,16,0,0,,12,,,71,127
75383,note_off,56,0,0,,2,,,74,127
75399,note_on,16,0,0,,8,,,68,127
75455,note_off,56,0,0,,12,,,71,127
75471,note_on,16,0,0,,2,,,74,127
75527,note_off,56,0,0,,8,,,68,127
75543,note_off,16,0,0,,4,,,40,127
75544,note_on,1,0,0,,10,,,45,127
75544,note_on,0,0,0,,7,,,79,127
75600,note_off,56,0,0,,2,,,74,127
75616,note_on,16,0,0,,1,,,73,127
75672,note_off,56,0,0,,7,,,79,127
75688,note_on,16,0,0,,10,,,69,127
75744,note_off,56,0,0,,1,,,73,127
75760,note_on,16,0,0,,1,,,73,127
75816,note_off,56,0,0,,10,,,69,127
75832,note_on,16,0,0,,6,,,78,127
75888,note_off,56,0,0,,1,,,73,127
75904,note_on,16,0,0,,2,,,74,127
75960,note_off,56,0,0,,6,,,78,127
75976,note_on,16,0,0,,10,,,69,127
76032,note_off,56,0,0,,2,,,74,127
76048,note_on,16,0,0,,2,,,74,127
76104,note_off,56,0,0,,10,,,69,127
76120,note_on,16,0,0,,6,,,78,127
76176,note_off,56,0,0,,2,,,74,127
76192,note_on,16,0,0,,2,,,74,127
76248,note_off,56,0,0,,6,,,78,127
76264,note_on,16,0,0,,10,,,69,127
76320,note_off,56,0,0,,2,,,74,127
76336,note_on,16,0,0,,2,,,74,127
76392,note_off,56,0,0,,10,,,69,127
76408,note_off,16,0,0,,10,,,45,127
76409,note_on,1,0,0,,10,,,45,127
76409,note_on,0,0,0,,4,,,76,127
76465,note_off,56,0,0,,2,,,74,127
76481,note_on,16,0,0,,1,,,73,127
76537,note_off,56,0,0,,4,,,76,127
76553,note_on,16,0,0,,10,,,69,127
76609,note_off,56,0,0,,1,,,73,127
76625,note_on,16,0,0,,1,,,73,127
76681,note_off,56,0,0,,10,,,69,127
76697,note_off,16,0,0,,10,,,45,127
76698,note_on,1,0,0,,2,,,50,127
76698,note_on,0,0,0,,6,,,78,127
76754,note_off,56,0,0,,1,,,73,127
76770,note_on,16,0,0,,2,,,74,127
76826,note_off,56,0,0,,6,,,78,127
76842,note_on,16,0,0,,10,,,69,127
76898,note_off,56,0,0,,2,,,74,127
76914,note_on,16,0,0,,6,,,78,127
76970,note_off,56,0,0,,10,,,69,127
76986,note_off,16,0,0,,2,,,50,127
76987,note_on,1,0,0,,6,,,54,127
76987,note_on,0,0,0,,2,,,86,127
77043,note_off,56,0,0,,6,,,78,127
77059,note_on,16,0,0,,6,,,78,127
77115,note_off,56,0,0,,2,,,86,127
77131,note_on,16,0,0,,2,,,74,127
77187,note_off,56,0,0,,6,,,78,127
77203,note_on,16,0,0,,6,,,78,127
77259,note_off,56,0,0,,2,,,74,127
77275,note_off,16,0,0,,6,,,54,127
77276,note_on,1,0,0,,7,,,55,127
77276,note_on,0,0,0,,12,,,83,127
77332,note_off,56,0,0,,6,,,78,127
77348,note_on,16,0,0,,2,,,74,127
77404,note_off,56,0,0,,12,,,83,127
77420,note_on,16,0,0,,12,,,71,127
77476,note_off,56,0,0,,2,,,74,127
77492,note_on,16,0,0,,2,,,74,127
77548,note_off,56,0,0,,12,,,71,127
77564,note_off,16,0,0,,7,,,55,127
77565,note_on,1,0,0,,10,,,57,127
77565,note_on,0,0,0,,4,,,76,127
77621,note_off,56,0,0,,2,,,74,127
77637,note_on,16,0,0,,7,,,67,127
77693,note_off,56,0,0,,4,,,76,127
77709,note_on,16,0,0,,4,,,64,127
77765,note_off,56,0,0,,7,,,67,127
77781,note_on,16,0,0,,7,,,67,127
77837,note_off,56,0,0,,4,,,64,127
77853,note_off,16,0,0,,10,,,57,127
77854,note_on,1,0,0,,2,,,50,127
77854,note_on,0,0,0,,6,,,78,127
77910,note_off,56,0,0,,7,,,67,127
77926,note_on,16,0,0,,2,,,74,127
77982,note_off,56,0,0,,6,,,78,127
77998,note_on,16,0,0,,10,,,69,127
78054,note_off,56,0,0,,2,,,74,127
78070,note_on,16,0,0,,6,,,78,127
78126,note_off,56,0,0,,10,,,69,127
78142,note_off,16,0,0,,2,,,50,127
78143,note_on,1,0,0,,6,,,54,127
78143,note_on,0,0,0,,2,,,86,127
78199,note_off,56,0,0,,6,,,78,127
78215,note_on,16,0,0,,6,,,78,127
78271,note_off,56,0,0,,2,,,86,127
78287,note_on,16,0,0,,2,,,74,127
78343,note_off,56,0,0,,6,,,78,127
78359,note_on,16,0,0,,6,,,78,127
78415,note_off,56,0,0,,2,,,74,127
78431,note_off,16,0,0,,6,,,54,127
78432,note_on,1,0,0,,7,,,55,127
78432,note_on,0,0,0,,12,,,83,127
78488,note_off,56,0,0,,6,,,78,127
78504,note_on,16,0,0,,2,,,74,127
78560,note_off,56,0,0,,12,,,83,127
78576,note_on,16,0,0,,12,,,71,127
78632,note_off,56,0,0,,2,,,74,127
78648,note_on,16,0,0,,2,,,74,127
78704,note_off,56,0,0,,12,,,71,127
78720,note_off,16,0,0,,7,,,55,127
78721,note_on,1,0,0,,10,,,57,127
78721,note_on,0,0,0,,4,,,76,127
78777,note_off,56,0,0,,2,,,74,127
78793,note_on,16,0,0,,7,,,67,127
78849,note_off,56,0,0,,4,,,76,127
78865,note_on,16,0,0,,4,,,64,127
78921,note_off,56,0,0,,7,,,67,127
78937,note_on,16,0,0,,7,,,67,127
78993,note_off,56,0,0,,4,,,64,127
79009,note_off,16,0,0,,10,,,57,127
79010,note_on,1,0,0,,2,,,50,127
79010,note_on,0,0,0,,6,,,78,127
79066,note_off,56,0,0,,7,,,67,127
79154,note_off,88,0,0,,2,,,50,127
79155,note_on,1,0,0,,2,,,74,127
79298,note_off,143,0,0,,2,,,74,127
79299,note_on,1,0,0,,2,,,74,127
79442,note_off,143,0,0,,2,,,74,127
79443,note_on,1,0,0,,1,,,73,127
79586,note_off,143,0,0,,1,,,73,127
79587,note_on,1,0,0,,1,,,73,127
79730,note_off,143,0,0,,1,,,73,127
79731,note_on,1,0,0,,12,,,71,127
79874,note_off,143,0,0,,12,,,71,127
79874,note_off,0,0,0,,6,,,78,127
79875,note_on,1,0,0,,12,,,71,127
79875,note_on,0,0,0,,7,,,79,127
80018,note_off,143,0,0,,12,,,71,127
80019,note_on,1,0,0,,10,,,69,127
80162,note_off,143,0,0,,10,,,69,127
80162,note_off,0,0,0,,7,,,79,127
80163,note_on,1,0,0,,10,,,69,127
80163,note_on,0,0,0,,10,,,81,127
80306,note_off,143,0,0,,10,,,69,127
80307,note_on,1,0,0,,7,,,67,127
80450,note_off,143,0,0,,7,,,67,127
80451,note_on,1,0,0,,7,,,67,127
80594,note_off,143,0,0,,7,,,67,127
80595,note_on,1,0,0,,6,,,66,127
80738,note_off,143,0,0,,6,,,66,127
80739,note_on,1,0,0,,6,,,66,127
80882,note_off,143,0,0,,6,,,66,127
80883,note_on,1,0,0,,4,,,64,127
81026,note_off,143,0,0,,4,,,64,127
81026,note_off,0,0,0,,10,,,81,127
81027,note_on,1,0,0,,4,,,64,127
81027,note_on,0,0,0,,1,,,85,127
81170,note_off,143,0,0,,4,,,64,127
81171,note_on,1,0,0,,2,,,62,127
81314,note_off,143,0,0,,2,,,62,127
81314,note_off,0,0,0,,1,,,85,127
81315,note_on,1,0,0,,2,,,50,127
81315,note_on,0,0,0,,2,,,86,127
81458,note_off,143,0,0,,2,,,50,127
81459,note_on,1,0,0,,2,,,62,127
81602,note_off,143,0,0,,2,,,62,127
81602,note_off,0,0,0,,2,,,86,127
81603,note_on,1,0,0,,2,,,62,127
81603,note_on,0,0,0,,2,,,74,127
81603,note_on,0,0,0,,6,,,78,127
81746,note_off,143,0,0,,2,,,62,127
81747,note_on,1,0,0,,1,,,61,127
81890,note_off,143,0,0,,1,,,61,127
81891,note_on,1,0,0,,1,,,61,127
82034,note_off,143,0,0,,1,,,61,127
82035,note_on,1,0,0,,12,,,59,127
82178,note_off,143,0,0,,12,,,59,127
82178,note_off,0,0,0,,6,,,78,127
82178,note_off,0,0,0,,2,,,74,127
82179,note_on,1,0,0,,12,,,59,127
82179,note_on,0,0,0,,7,,,79,127
82179,note_on,0,0,0,,2,,,74,127
82322,note_off,143,0,0,,12,,,59,127
82323,note_on,1,0,0,,10,,,57,127
82466,note_off,143,0,0,,10,,,57,127
82466,note_off,0,0,0,,2,,,74,127
82466,note_off,0,0,0,,7,,,79,127
82467,note_on,1,0,0,,10,,,57,127
82467,note_on,0,0,0,,10,,,81,127
82467,note_on,0,0,0,,1,,,73,127
82610,note_off,143,0,0,,10,,,57,127
82611,note_on,1,0,0,,7,,,55,127
82754,note_off,143,0,0,,7,,,55,127
82754,note_off,0,0,0,,1,,,73,127
82754,note_off,0,0,0,,10,,,81,127
82755,note_on,1,0,0,,7,,,55,127
82755,note_on,0,0,0,,2,,,74,127
82755,note_on,0,0,0,,12,,,83,127
82898,note_off,143,0,0,,7,,,55,127
82899,note_on,1,0,0,,6,,,54,127
83042,note_off,143,0,0,,6,,,54,127
83043,note_on,1,0,0,,6,,,54,127
83186,note_off,143,0,0,,6,,,54,127
83187,note_on,1,0,0,,4,,,52,127
83330,note_off,143,0,0,,4,,,52,127
83330,note_off,0,0,0,,12,,,83,127
83330,note_off,0,0,0,,2,,,74,127
83331,note_on,1,0,0,,4,,,52,127
83331,note_on,0,0,0,,1,,,85,127
83331,note_on,0,0,0,,4,,,76,127
83474,note_off,143,0,0,,4,,,52,127
83475,note_on,1,0,0,,2,,,50,127
83618,note_off,143,0,0,,2,,,50,127
83618,note_off,0,0,0,,4,,,76,127
83618,note_off,0,0,0,,1,,,85,127
83619,note_on,1,0,0,,2,,,50,127
83619,note_on,0,0,0,,2,,,86,127
83619,note_on,0,0,0,,6,,,78,127
83690,note_off,71,0,0,,2,,,50,127
83691,note_on,1,0,0,,4,,,52,127
83762,note_off,71,0,0,,4,,,52,127
83763,note_on,1,0,0,,6,,,54,127
83834,note_off,71,0,0,,6,,,54,127
83835,note_on,1,0,0,,7,,,55,127
83906,note_off,71,0,0,,7,,,55,127
83907,note_on,1,0,0,,10,,,57,127
84050,note_off,143,0,0,,10,,,57,127
84051,note_on,1,0,0,,12,,,59,127
84122,note_off,71,0,0,,12,,,59,127
84123,note_on,1,0,0,,1,,,61,127
84194,note_off,71,0,0,,1,,,61,127
84194,note_off,0,0,0,,6,,,78,127
84194,note_off,0,0,0,,2,,,86,127
84195,note_on,1,0,0,,2,,,62,127
84195,note_on,0,0,0,,2,,,86,127
84195,note_on,0,0,0,,6,,,78,127
84338,note_off,143,0,0,,2,,,62,127
84339,note_on,1,0,0,,4,,,64,127
84482,note_off,143,0,0,,4,,,64,127
84483,note_on,1,0,0,,6,,,66,127
84626,note_off,143,0,0,,6,,,66,127
84627,note_on,1,0,0,,7,,,67,127
84698,note_off,71,0,0,,7,,,67,127
84699,note_on,1,0,0,,10,,,69,127
84770,note_off,71,0,0,,10,,,69,127
84771,note_on,1,0,0,,10,,,45,127
85058,note_off,287,0,0,,6,,,78,127
85058,note_off,0,0,0,,2,,,86,127
85059,note_on,1,0,0,,4,,,76,127
85059,note_on,0,0,0,,1,,,85,127
85202,note_off,143,0,0,,1,,,85,127
85202,note_off,0,0,0,,4,,,76,127
85203,note_on,1,0,0,,2,,,74,127
85203,note_on,0,0,0,,12,,,83,127
85346,note_off,143,0,0,,12,,,83,127
85346,note_off,0,0,0,,2,,,74,127
85347,note_on,1,0,0,,10,,,81,127
85347,note_on,0,0,0,,1,,,73,127
85490,note_off,143,0,0,,1,,,73,127
85490,note_off,0,0,0,,10,,,81,127
85491,note_on,1,0,0,,7,,,79,127
85491,note_on,0,0,0,,12,,,71,127
85634,note_off,143,0,0,,12,,,71,127
85634,note_off,0,0,0,,7,,,79,127
85635,note_off,1,0,0,,10,,,45,127
85635,note_on,0,0,0,,6,,,78,127
85635,note_on,0,0,0,,10,,,69,127
85778,note_off,143,0,0,,10,,,69,127
85778,note_off,0,0,0,,6,,,78,127
85779,note_on,1,0,0,,7,,,67,127
85779,note_on,0,0,0,,4,,,76,127
85922,note_off,143,0,0,,4,,,76,127
85922,note_off,0,0,0,,7,,,67,127
85923,note_on,1,0,0,,2,,,50,127
85923,note_on,0,0,0,,2,,,74,127
85923,note_on,0,0,0,,6,,,66,127
85994,note_off,71,0,0,,2,,,50,127
85995,note_on,1,0,0,,4,,,52,127
86066,note_off,71,0,0,,4,,,52,127
86067,note_on,1,0,0,,6,,,54,127
86138,note_off,71,0,0,,6,,,54,127
86139,note_on,1,0,0,,7,,,55,127
86210,note_off,71,0,0,,7,,,55,127
86211,note_on,1,0,0,,10,,,57,127
86354,note_off,143,0,0,,10,,,57,127
86355,note_on,1,0,0,,12,,,59,127
86426,note_off,71,0,0,,12,,,59,127
86427,note_on,1,0,0,,1,,,61,127
86498,note_off,71,0,0,,1,,,61,127
86498,note_off,0,0,0,,6,,,66,127
86498,note_off,0,0,0,,2,,,74,127
86499,note_on,1,0,0,,2,,,62,127
86499,note_on,0,0,0,,2,,,86,127
86499,note_on,0,0,0,,6,,,78,127
86642,note_off,143,0,0,,2,,,62,127
86643,note_on,1,0,0,,4,,,64,127
86786,note_off,143,0,0,,4,,,64,127
86787,note_on,1,0,0,,6,,,66,127
86930,note_off,143,0,0,,6,,,66,127
86931,note_on,1,0,0,,7,,,67,127
87002,note_off,71,0,0,,7,,,67,127
87003,note_on,1,0,0,,10,,,69,127
87074,note_off,71,0,0,,10,,,69,127
87075,note_on,1,0,0,,10,,,45,127
87362,note_off,287,0,0,,6,,,78,127
87362,note_off,0,0,0,,2,,,86,127
87363,note_on,1,0,0,,1,,,85,127
87363,note_on,0,0,0,,4,,,76,127
87506,note_off,143,0,0,,4,,,76,127
87506,note_off,0,0,0,,1,,,85,127
87507,note_on,1,0,0,,12,,,83,127
87507,note_on,0,0,0,,2,,,74,127
87650,note_off,143,0,0,,2,,,74,127
87650,note_off,0,0,0,,12,,,83,127
87651,note_on,1,0,0,,10,,,81,127
87651,note_on,0,0,0,,1,,,73,127
87794,note_off,143,0,0,,1,,,73,127
87794,note_off,0,0,0,,10,,,81,127
87795,note_on,1,0,0,,12,,,71,127
87795,note_on,0,0,0,,7,,,79,127
87938,note_off,143,0,0,,7,,,79,127
87938,note_off,0,0,0,,12,,,71,127
87939,note_on,1,0,0,,10,,,69,127
87939,note_on,0,0,0,,6,,,78,127
88082,note_off,143,0,0,,6,,,78,127
88082,note_off,0,0,0,,10,,,69,127
88083,note_on,1,0,0,,4,,,76,127
88083,note_on,0,0,0,,7,,,67,127
88226,note_off,143,0,0,,7,,,67,127
88226,note_off,0,0,0,,4,,,76,127
88226,note_off,0,0,0,,10,,,45,127
88227,note_on,1,0,0,,2,,,38,127
88227,note_on,0,0,0,,6,,,66,127
88227,note_on,0,0,0,,2,,,74,127
88514,note_off,287,0,0,,2,,,74,127
88514,note_off,0,0,0,,6,,,66,127
88514,note_off,0,0,0,,2,,,38,127
88515,note_on,1,0,0,,2,,,50,127
88515,note_on,0,0,0,,10,,,81,127
88586,note_off,71,0,0,,10,,,81,127
88587,note_on,1,0,0,,10,,,81,127
88658,note_off,71,0,0,,10,,,81,127
88659,note_on,1,0,0,,10,,,81,127
88730,note_off,71,0,0,,10,,,81,127
88731,note_on,1,0,0,,10,,,81,127
88802,note_off,71,0,0,,10,,,81,127
88802,note_off,0,0,0,,2,,,50,127
88803,note_on,1,0,0,,6,,,54,127
88803,note_on,0,0,0,,10,,,81,127
88874,note_off,71,0,0,,10,,,81,127
88875,note_on,1,0,0,,10,,,81,127
88946,note_off,71,0,0,,10,,,81,127
88947,note_on,1,0,0,,10,,,81,127
89018,note_off,71,0,0,,10,,,81,127
89019,note_on,1,0,0,,10,,,81,127
89090,note_off,71,0,0,,10,,,81,127
89090,note_off,0,0,0,,6,,,54,127
89091,note_on,1,0,0,,10,,,57,127
89091,note_on,0,0,0,,7,,,79,127
89162,note_off,71,0,0,,7,,,79,127
89163,note_on,1,0,0,,7,,,79,127
89234,note_off,71,0,0,,7,,,79,127
89235,note_on,1,0,0,,7,,,79,127
89306,note_off,71,0,0,,7,,,79,127
89307,note_on,1,0,0,,7,,,79,127
89378,note_off,71,0,0,,7,,,79,127
89378,note_off,0,0,0,,10,,,57,127
89379,note_on,1,0,0,,2,,,62,127
89379,note_on,0,0,0,,6,,,78,127
89450,note_off,71,0,0,,6,,,78,127
89451,note_on,1,0,0,,6,,,78,127
89522,note_off,71,0,0,,6,,,78,127
89523,note_on,1,0,0,,6,,,78,127
89594,note_off,71,0,0,,6,,,78,127
89595,note_on,1,0,0,,6,,,78,127
89666,note_off,71,0,0,,6,,,78,127
89667,note_on,1,0,0,,2,,,50,127
89667,note_on,0,0,0,,10,,,81,127
89738,note_off,71,0,0,,10,,,81,127
89739,note_on,1,0,0,,10,,,81,127
89810,note_off,71,0,0,,10,,,81,127
89811,note_on,1,0,0,,10,,,81,127
89882,note_off,71,0,0,,10,,,81,127
89883,note_on,1,0,0,,10,,,81,127
89954,note_off,71,0,0,,10,,,81,127
89954,note_off,0,0,0,,2,,,50,127
89954,note_off,0,0,0,,2,,,62,127
89955,note_on,1,0,0,,6,,,54,127
89955,note_on,0,0,0,,10,,,81,127
90026,note_off,71,0,0,,10,,,81,127
90027,note_on,1,0,0,,10,,,81,127
90098,note_off,71,0,0,,10,,,81,127
90099,note_on,1,0,0,,10,,,81,127
90170,note_off,71,0,0,,10,,,81,127
90171,note_on,1,0,0,,10,,,81,127
90242,note_off,71,0,0,,10,,,81,127
90242,note_off,0,0,0,,6,,,54,127
90243,note_on,1,0,0,,10,,,57,127
90243,note_on,0,0,0,,7,,,79,127
90314,note_off,71,0,0,,7,,,79,127
90315,note_on,1,0,0,,7,,,79,127
90386,note_off,71,0,0,,7,,,79,127
90387,note_on,1,0,0,,7,,,79,127
90458,note_off,71,0,0,,7,,,79,127
90459,note_on,1,0,0,,7,,,79,127
90530,note_off,71,0,0,,7,,,79,127
90530,note_off,0,0,0,,10,,,57,127
90531,note_on,1,0,0,,2,,,62,127
90531,note_on,0,0,0,,6,,,78,127
90602,note_off,71,0,0,,6,,,78,127
90603,note_on,1,0,0,,6,,,78,127
90674,note_off,71,0,0,,6,,,78,127
90675,note_on,1,0,0,,6,,,78,127
90746,note_off,71,0,0,,6,,,78,127
90747,note_on,1,0,0,,6,,,78,127
90818,note_off,71,0,0,,6,,,78,127
90819,note_on,1,0,0,,2,,,50,127
90819,note_on,0,0,0,,10,,,81,127
90890,note_off,71,0,0,,10,,,81,127
90891,note_on,1,0,0,,10,,,81,127
90962,note_off,71,0,0,,10,,,81,127
90963,note_on,1,0,0,,10,,,81,127
91034,note_off,71,0,0,,10,,,81,127
91035,note_on,1,0,0,,10,,,81,127
91106,note_off,71,0,0,,10,,,81,127
91106,note_off,0,0,0,,2,,,50,127
91106,note_off,0,0,0,,2,,,62,127
91107,note_on,1,0,0,,6,,,54,127
91107,note_on,0,0,0,,10,,,69,127
91178,note_off,71,0,0,,10,,,69,127
91179,note_on,1,0,0,,10,,,69,127
91250,note_off,71,0,0,,10,,,69,127
91251,note_on,1,0,0,,10,,,69,127
91322,note_off,71,0,0,,10,,,69,127
91323,note_on,1,0,0,,10,,,69,127
91394,note_off,71,0,0,,10,,,69,127
91394,note_off,0,0,0,,6,,,54,127
91395,note_on,1,0,0,,10,,,57,127
91395,note_on,0,0,0,,7,,,79,127
91466,note_off,71,0,0,,7,,,79,127
91467,note_on,1,0,0,,7,,,79,127
91538,note_off,71,0,0,,7,,,79,127
91539,note_on,1,0,0,,7,,,79,127
91610,note_off,71,0,0,,7,,,79,127
91611,note_on,1,0,0,,7,,,79,127
91682,note_off,71,0,0,,7,,,79,127
91682,note_off,0,0,0,,10,,,57,127
91683,note_on,1,0,0,,2,,,62,127
91683,note_on,0,0,0,,6,,,78,127
91826,note_off,143,0,0,,6,,,78,127
91827,note_on,1,0,0,,2,,,86,127
91970,note_off,143,0,0,,2,,,86,127
91970,note_off,0,0,0,,2,,,62,127
91971,note_on,1,0,0,,7,,,55,127
91971,note_on,0,0,0,,12,,,83,127
92114,note_off,143,0,0,,12,,,83,127
92115,note_on,1,0,0,,7,,,79,127
92258,note_off,143,0,0,,7,,,79,127
92258,note_off,0,0,0,,7,,,55,127
92259,note_on,1,0,0,,10,,,57,127
92259,note_on,0,0,0,,6,,,78,127
92402,note_off,143,0,0,,6,,,78,127
92403,note_on,1,0,0,,2,,,74,127
92546,note_off,143,0,0,,2,,,74,127
92547,note_on,1,0,0,,10,,,45,127
92547,note_on,0,0,0,,1,,,73,127
92690,note_off,143,0,0,,1,,,73,127
92690,note_off,0,0,0,,10,,,57,127
92691,note_on,1,0,0,,4,,,76,127
92834,note_off,143,0,0,,4,,,76,127
92834,note_off,0,0,0,,10,,,45,127
92835,note_on,1,0,0,,2,,,38,127
92835,note_on,0,0,0,,2,,,74,127
92906,note_off,71,0,0,,2,,,74,127
92907,note_on,1,0,0,,2,,,74,127
92978,note_off,71,0,0,,2,,,74,127
92979,note_on,1,0,0,,2,,,74,127
93050,note_off,71,0,0,,2,,,74,127
93051,note_on,1,0,0,,2,,,74,127
93122,note_off,71,0,0,,2,,,74,127
93122,note_off,0,0,0,,2,,,38,127
93123,note_on,1,0,0,,2,,,50,127
93123,note_on,0,0,0,,10,,,81,127
93194,note_off,71,0,0,,10,,,81,127
93195,note_on,1,0,0,,10,,,81,127
93266,note_off,71,0,0,,10,,,81,127
93267,note_on,1,0,0,,10,,,81,127
93338,note_off,71,0,0,,10,,,81,127
93339,note_on,1,0,0,,10,,,81,127
93410,note_off,71,0,0,,10,,,81,127
93410,note_off,0,0,0,,2,,,50,127
93411,note_on,1,0,0,,6,,,54,127
93411,note_on,0,0,0,,10,,,69,127
93482,note_off,71,0,0,,10,,,69,127
93483,note_on,1,0,0,,10,,,69,127
93554,note_off,71,0,0,,10,,,69,127
93555,note_on,1,0,0,,10,,,69,127
93626,note_off,71,0,0,,10,,,69,127
93627,note_on,1,0,0,,10,,,69,127
93698,note_off,71,0,0,,10,,,69,127
93698,note_off,0,0,0,,6,,,54,127
93699,note_on,1,0,0,,10,,,57,127
93699,note_on,0,0,0,,7,,,79,127
93770,note_off,71,0,0,,7,,,79,127
93771,note_on,1,0,0,,7,,,79,127
93842,note_off,71,0,0,,7,,,79,127
93843,note_on,1,0,0,,7,,,79,127
93914,note_off,71,0,0,,7,,,79,127
93915,note_on,1,0,0,,7,,,79,127
93986,note_off,71,0,0,,7,,,79,127
93986,note_off,0,0,0,,10,,,57,127
93987,note_on,1,0,0,,2,,,62,127
93987,note_on,0,0,0,,6,,,78,127
94058,note_off,71,0,0,,6,,,78,127
94059,note_on,1,0,0,,6,,,78,127
94130,note_off,71,0,0,,6,,,78,127
94131,note_on,1,0,0,,6,,,78,127
94202,note_off,71,0,0,,6,,,78,127
94203,note_on,1,0,0,,6,,,78,127
94274,note_off,71,0,0,,6,,,78,127
94275,note_on,1,0,0,,2,,,50,127
94275,note_on,0,0,0,,10,,,81,127
94346,note_off,71,0,0,,10,,,81,127
94347,note_on,1,0,0,,10,,,81,127
94418,note_off,71,0,0,,10,,,81,127
94419,note_on,1,0,0,,10,,,81,127
94490,note_off,71,0,0,,10,,,81,127
94491,note_on,1,0,0,,10,,,81,127
94562,note_off,71,0,0,,10,,,81,127
94562,note_off,0,0,0,,2,,,50,127
94562,note_off,0,0,0,,2,,,62,127
94563,note_on,1,0,0,,6,,,54,127
94563,note_on,0,0,0,,10,,,69,127
94634,note_off,71,0,0,,10,,,69,127
94635,note_on,1,0,0,,10,,,69,127
94706,note_off,71,0,0,,10,,,69,127
94707,note_on,1,0,0,,10,,,69,127
94778,note_off,71,0,0,,10,,,69,127
94779,note_on,1,0,0,,10,,,69,127
94850,note_off,71,0,0,,10,,,69,127
94850,note_off,0,0,0,,6,,,54,127
94851,note_on,1,0,0,,10,,,57,127
94851,note_on,0,0,0,,7,,,79,127
94922,note_off,71,0,0,,7,,,79,127
94923,note_on,1,0,0,,7,,,79,127
94994,note_off,71,0,0,,7,,,79,127
94995,note_on,1,0,0,,7,,,79,127
95066,note_off,71,0,0,,7,,,79,127
95067,note_on,1,0,0,,7,,,79,127
95138,note_off,71,0,0,,7,,,79,127
95138,note_off,0,0,0,,10,,,57,127
95139,note_on,1,0,0,,2,,,62,127
95139,note_on,0,0,0,,6,,,78,127
95210,note_off,71,0,0,,6,,,78,127
95211,note_on,1,0,0,,6,,,78,127
95282,note_off,71,0,0,,6,,,78,127
95283,note_on,1,0,0,,6,,,78,127
95354,note_off,71,0,0,,6,,,78,127
95355,note_on,1,0,0,,6,,,78,127
95426,note_off,71,0,0,,6,,,78,127
95427,note_on,1,0,0,,2,,,50,127
95427,note_on,0,0,0,,10,,,81,127
95498,note_off,71,0,0,,10,,,81,127
95499,note_on,1,0,0,,10,,,81,127
95570,note_off,71,0,0,,10,,,81,127
95571,note_on,1,0,0,,10,,,81,127
95642,note_off,71,0,0,,10,,,81,127
95643,note_on,1,0,0,,10,,,81,127
95714,note_off,71,0,0,,10,,,81,127
95714,note_off,0,0,0,,2,,,50,127
95714,note_off,0,0,0,,2,,,62,127
95715,note_on,1,0,0,,6,,,54,127
95715,note_on,0,0,0,,10,,,69,127
95786,note_off,71,0,0,,10,,,69,127
95787,note_on,1,0,0,,10,,,69,127
95858,note_off,71,0,0,,10,,,69,127
95859,note_on,1,0,0,,10,,,69,127
95930,note_off,71,0,0,,10,,,69,127
95931,note_on,1,0,0,,10,,,69,127
96002,note_off,71,0,0,,10,,,69,127
96002,note_off,0,0,0,,6,,,54,127
96003,note_on,1,0,0,,10,,,57,127
96003,note_on,0,0,0,,7,,,79,127
96074,note_off,71,0,0,,7,,,79,127
96075,note_on,1,0,0,,7,,,79,127
96146,note_off,71,0,0,,7,,,79,127
96147,note_on,1,0,0,,7,,,79,127
96218,note_off,71,0,0,,7,,,79,127
96219,note_on,1,0,0,,7,,,79,127
96290,note_off,71,0,0,,7,,,79,127
96290,note_off,0,0,0,,10,,,57,127
96291,note_on,1,0,0,,2,,,62,127
96291,note_on,0,0,0,,6,,,78,127
96434,note_off,143,0,0,,6,,,78,127
96435,note_on,1,0,0,,2,,,86,127
96578,note_off,143,0,0,,2,,,86,127
96578,note_off,0,0,0,,2,,,62,127
96579,note_on,1,0,0,,7,,,55,127
96579,note_on,0,0,0,,12,,,83,127
96722,note_off,143,0,0,,12,,,83,127
96723,note_on,1,0,0,,7,,,79,127
96866,note_off,143,0,0,,7,,,79,127
96866,note_off,0,0,0,,7,,,55,127
96867,note_on,1,0,0,,10,,,57,127
96867,note_on,0,0,0,,6,,,78,127
97010,note_off,143,0,0,,6,,,78,127
97011,note_on,1,0,0,,2,,,74,127
97154,note_off,143,0,0,,2,,,74,127
97155,note_on,1,0,0,,10,,,45,127
97155,note_on,0,0,0,,1,,,73,127
97298,note_off,143,0,0,,1,,,73,127
97299,note_on,1,0,0,,4,,,76,127
97442,note_off,143,0,0,,4,,,76,127
97442,note_off,0,0,0,,10,,,45,127
97442,note_off,0,0,0,,10,,,57,127
97443,note_on,1,0,0,,2,,,50,127
97443,note_on,0,0,0,,2,,,74,127
97514,note_off,71,0,0,,2,,,74,127
97515,note_on,1,0,0,,2,,,74,127
97586,note_off,71,0,0,,2,,,74,127
97587,note_on,1,0,0,,2,,,74,127
97658,note_off,71,0,0,,2,,,74,127
97659,note_on,1,0,0,,2,,,74,127
97730,note_off,71,0,0,,2,,,74,127
97730,note_off,0,0,0,,2,,,50,127
97731,note_on,1,0,0,,6,,,54,127
97731,note_on,0,0,0,,2,,,86,127
97802,note_off,71,0,0,,2,,,86,127
97803,note_on,1,0,0,,2,,,86,127
97874,note_off,71,0,0,,2,,,86,127
97875,note_on,1,0,0,,2,,,86,127
97946,note_off,71,0,0,,2,,,86,127
97947,note_on,1,0,0,,2,,,86,127
98018,note_off,71,0,0,,2,,,86,127
98018,note_off,0,0,0,,6,,,54,127
98019,note_on,1,0,0,,7,,,55,127
98019,note_on,0,0,0,,12,,,83,127
98090,note_off,71,0,0,,12,,,83,127
98091,note_on,1,0,0,,12,,,83,127
98162,note_off,71,0,0,,12,,,83,127
98163,note_on,1,0,0,,12,,,83,127
98234,note_off,71,0,0,,12,,,83,127
98235,note_on,1,0,0,,12,,,83,127
98306,note_off,71,0,0,,12,,,83,127
98306,note_off,0,0,0,,7,,,55,127
98307,note_on,1,0,0,,1,,,49,127
98307,note_on,0,0,0,,4,,,76,127
98378,note_off,71,0,0,,4,,,76,127
98379,note_on,1,0,0,,4,,,76,127
98450,note_off,71,0,0,,4,,,76,127
98451,note_on,1,0,0,,4,,,76,127
98522,note_off,71,0,0,,4,,,76,127
98523,note_on,1,0,0,,4,,,76,127
98594,note_off,71,0,0,,4,,,76,127
98594,note_off,0,0,0,,1,,,49,127
98595,note_on,1,0,0,,2,,,50,127
98595,note_on,0,0,0,,6,,,78,127
98666,note_off,71,0,0,,6,,,78,127
98667,note_on,1,0,0,,6,,,78,127
98738,note_off,71,0,0,,6,,,78,127
98739,note_on,1,0,0,,6,,,78,127
98810,note_off,71,0,0,,6,,,78,127
98811,note_on,1,0,0,,6,,,78,127
98882,note_off,71,0,0,,6,,,78,127
98882,note_off,0,0,0,,2,,,50,127
98883,note_on,1,0,0,,6,,,54,127
98883,note_on,0,0,0,,10,,,81,127
98954,note_off,71,0,0,,10,,,81,127
98955,note_on,1,0,0,,10,,,81,127
99026,note_off,71,0,0,,10,,,81,127
99027,note_on,1,0,0,,10,,,81,127
99098,note_off,71,0,0,,10,,,81,127
99099,note_on,1,0,0,,10,,,81,127
99170,note_off,71,0,0,,10,,,81,127
99170,note_off,0,0,0,,6,,,54,127
99171,note_on,1,0,0,,7,,,55,127
99171,note_on,0,0,0,,4,,,76,127
99242,note_off,71,0,0,,4,,,76,127
99243,note_on,1,0,0,,4,,,76,127
99314,note_off,71,0,0,,4,,,76,127
99315,note_on,1,0,0,,4,,,76,127
99386,note_off,71,0,0,,4,,,76,127
99387,note_on,1,0,0,,4,,,76,127
99458,note_off,71,0,0,,4,,,76,127
99458,note_off,0,0,0,,7,,,55,127
99459,note_on,1,0,0,,10,,,57,127
99459,note_on,0,0,0,,1,,,73,127
99530,note_off,71,0,0,,1,,,73,127
99531,note_on,1,0,0,,1,,,73,127
99602,note_off,71,0,0,,1,,,73,127
99603,note_on,1,0,0,,1,,,73,127
99674,note_off,71,0,0,,1,,,73,127
99675,note_on,1,0,0,,1,,,73,127
99746,note_off,71,0,0,,1,,,73,127
99746,note_off,0,0,0,,10,,,57,127
99747,note_on,1,0,0,,2,,,50,127
99747,note_on,0,0,0,,2,,,74,127
99818,note_off,71,0,0,,2,,,74,127
99819,note_on,1,0,0,,2,,,74,127
99890,note_off,71,0,0,,2,,,74,127
99891,note_on,1,0,0,,2,,,74,127
99962,note_off,71,0,0,,2,,,74,127
99963,note_on,1,0,0,,2,,,74,127
100034,note_off,71,0,0,,2,,,74,127
100034,note_off,0,0,0,,2,,,50,127
100035,note_on,1,0,0,,6,,,54,127
100035,note_on,0,0,0,,2,,,86,127
100106,note_off,71,0,0,,2,,,86,127
100107,note_on,1,0,0,,2,,,86,127
100178,note_off,71,0,0,,2,,,86,127
100179,note_on,1,0,0,,2,,,86,127
100250,note_off,71,0,0,,2,,,86,127
100251,note_on,1,0,0,,2,,,86,127
100322,note_off,71,0,0,,2,,,86,127
100322,note_off,0,0,0,,6,,,54,127
100323,note_on,1,0,0,,7,,,55,127
100323,note_on,0,0,0,,12,,,83,127
100394,note_off,71,0,0,,12,,,83,127
100395,note_on,1,0,0,,12,,,83,127
100466,note_off,71,0,0,,12,,,83,127
100467,note_on,1,0,0,,12,,,83,127
100538,note_off,71,0,0,,12,,,83,127
100539,note_on,1,0,0,,12,,,83,127
100610,note_off,71,0,0,,12,,,83,127
100610,note_off,0,0,0,,7,,,55,127
100611,note_on,1,0,0,,1,,,49,127
100611,note_on,0,0,0,,4,,,76,127
100682,note_off,71,0,0,,4,,,76,127
100683,note_on,1,0,0,,4,,,76,127
100754,note_off,71,0,0,,4,,,76,127
100755,note_on,1,0,0,,4,,,76,127
100826,note_off,71,0,0,,4,,,76,127
100827,note_on,1,0,0,,4,,,76,127
100898,note_off,71,0,0,,4,,,76,127
100898,note_off,0,0,0,,1,,,49,127
100899,note_on,1,0,0,,2,,,50,127
100899,note_on,0,0,0,,6,,,78,127
100970,note_off,71,0,0,,6,,,78,127
100971,note_on,1,0,0,,6,,,78,127
101042,note_off,71,0,0,,6,,,78,127
101043,note_on,1,0,0,,6,,,78,127
101114,note_off,71,0,0,,6,,,78,127
101115,note_on,1,0,0,,6,,,78,127
101186,note_off,71,0,0,,6,,,78,127
101186,note_off,0,0,0,,2,,,50,127
101187,note_on,1,0,0,,6,,,54,127
101187,note_on,0,0,0,,10,,,81,127
101258,note_off,71,0,0,,10,,,81,127
101259,note_on,1,0,0,,10,,,81,127
101330,note_off,71,0,0,,10,,,81,127
101331,note_on,1,0,0,,10,,,81,127
101402,note_off,71,0,0,,10,,,81,127
101403,note_on,1,0,0,,10,,,81,127
101474,note_off,71,0,0,,10,,,81,127
101474,note_off,0,0,0,,6,,,54,127
101475,note_on,1,0,0,,7,,,55,127
101475,note_on,0,0,0,,4,,,76,127
101546,note_off,71,0,0,,4,,,76,127
101547,note_on,1,0,0,,4,,,76,127
101618,note_off,71,0,0,,4,,,76,127
101619,note_on,1,0,0,,4,,,76,127
101690,note_off,71,0,0,,4,,,76,127
101691,note_on,1,0,0,,4,,,76,127
101762,note_off,71,0,0,,4,,,76,127
101762,note_off,0,0,0,,7,,,55,127
101763,note_on,1,0,0,,10,,,57,127
101763,note_on,0,0,0,,1,,,73,127
101834,note_off,71,0,0,,1,,,73,127
101835,note_on,1,0,0,,1,,,73,127
101906,note_off,71,0,0,,1,,,73,127
101907,note_on,1,0,0,,1,,,73,127
101978,note_off,71,0,0,,1,,,73,127
101979,note_on,1,0,0,,1,,,73,127
102050,note_off,71,0,0,,1,,,73,127
102050,note_off,0,0,0,,10,,,57,127
102051,note_on,1,0,0,,2,,,50,127
102051,note_on,0,0,0,,2,,,74,127
102194,note_off,143,0,0,,2,,,50,127
102195,note_on,1,0,0,,6,,,54,127
102338,note_off,143,0,0,,6,,,54,127
102339,note_on,1,0,0,,10,,,57,127
102482,note_off,143,0,0,,10,,,57,127
102483,note_on,1,0,0,,2,,,62,127
102626,note_off,143,0,0,,2,,,62,127
102626,note_off,0,0,0,,2,,,74,127
102627,note_on,1,0,0,,6,,,66,127
102627,note_on,0,0,0,,2,,,86,127
102770,note_off,143,0,0,,6,,,66,127
102771,note_on,1,0,0,,10,,,69,127
102914,note_off,143,0,0,,10,,,69,127
102915,note_on,1,0,0,,2,,,74,127
103058,note_off,143,0,0,,2,,,74,127
103059,note_on,1,0,0,,6,,,78,127
103202,note_off,143,0,0,,6,,,78,127
103203,note_on,1,0,0,,10,,,45,127
103274,note_off,71,0,0,,2,,,86,127
103275,note_on,1,0,0,,1,,,85,127
103346,note_off,71,0,0,,1,,,85,127
103347,note_on,1,0,0,,12,,,83,127
103418,note_off,71,0,0,,12,,,83,127
103419,note_on,1,0,0,,10,,,81,127
103490,note_off,71,0,0,,10,,,81,127
103491,note_on,1,0,0,,7,,,79,127
103562,note_off,71,0,0,,7,,,79,127
103563,note_on,1,0,0,,6,,,78,127
103634,note_off,71,0,0,,6,,,78,127
103635,note_on,1,0,0,,4,,,76,127
103706,note_off,71,0,0,,4,,,76,127
103707,note_on,1,0,0,,2,,,74,127
103778,note_off,71,0,0,,2,,,74,127
103779,note_on,1,0,0,,1,,,73,127
103850,note_off,71,0,0,,1,,,73,127
103851,note_on,1,0,0,,12,,,71,127
103922,note_off,71,0,0,,12,,,71,127
103923,note_on,1,0,0,,10,,,69,127
103994,note_off,71,0,0,,10,,,69,127
103995,note_on,1,0,0,,7,,,67,127
104066,note_off,71,0,0,,7,,,67,127
104067,note_off,1,0,0,,10,,,45,127
104067,note_on,0,0,0,,6,,,66,127
104138,note_off,71,0,0,,6,,,66,127
104139,note_on,1,0,0,,4,,,64,127
104210,note_off,71,0,0,,4,,,64,127
104211,note_on,1,0,0,,2,,,62,127
104282,note_off,71,0,0,,2,,,62,127
104283,note_on,1,0,0,,1,,,61,127
104354,note_off,71,0,0,,1,,,61,127
104355,note_on,1,0,0,,2,,,50,127
104355,note_on,0,0,0,,2,,,74,127
104498,note_off,143,0,0,,2,,,50,127
104499,note_on,1,0,0,,6,,,54,127
104642,note_off,143,0,0,,6,,,54,127
104643,note_on,1,0,0,,10,,,57,127
104786,note_off,143,0,0,,10,,,57,127
104787,note_on,1,0,0,,2,,,62,127
104930,note_off,143,0,0,,2,,,62,127
104930,note_off,0,0,0,,2,,,74,127
104931,note_on,1,0,0,,6,,,66,127
104931,note_on,0,0,0,,2,,,86,127
105074,note_off,143,0,0,,6,,,66,127
105075,note_on,1,0,0,,10,,,69,127
105218,note_off,143,0,0,,10,,,69,127
105219,note_on,1,0,0,,2,,,74,127
105362,note_off,143,0,0,,2,,,74,127
105363,note_on,1,0,0,,6,,,78,127
105506,note_off,143,0,0,,6,,,78,127
105507,note_on,1,0,0,,10,,,45,127
105578,note_off,71,0,0,,2,,,86,127
105579,note_on,1,0,0,,1,,,85,127
105650,note_off,71,0,0,,1,,,85,127
105651,note_on,1,0,0,,12,,,83,127
105722,note_off,71,0,0,,12,,,83,127
105723,note_on,1,0,0,,10,,,81,127
105794,note_off,71,0,0,,10,,,81,127
105795,note_on,1,0,0,,7,,,79,127
105866,note_off,71,0,0,,7,,,79,127
105867,note_on,1,0,0,,6,,,78,127
105938,note_off,71,0,0,,6,,,78,127
105939,note_on,1,0,0,,4,,,76,127
106010,note_off,71,0,0,,4,,,76,127
106011,note_on,1,0,0,,2,,,74,127
106082,note_off,71,0,0,,2,,,74,127
106083,note_on,1,0,0,,1,,,73,127
106154,note_off,71,0,0,,1,,,73,127
106155,note_on,1,0,0,,12,,,71,127
106226,note_off,71,0,0,,12,,,71,127
106227,note_on,1,0,0,,10,,,69,127
106298,note_off,71,0,0,,10,,,69,127
106299,note_on,1,0,0,,7,,,67,127
106370,note_off,71,0,0,,7,,,67,127
106371,note_on,1,0,0,,6,,,66,127
106442,note_off,71,0,0,,6,,,66,127
106443,note_on,1,0,0,,4,,,64,127
106514,note_off,71,0,0,,4,,,64,127
106515,note_on,1,0,0,,2,,,62,127
106586,note_off,71,0,0,,2,,,62,127
106587,note_on,1,0,0,,1,,,61,127
106658,note_off,71,0,0,,1,,,61,127
106658,note_off,0,0,0,,10,,,45,127
106659,note_on,1,0,0,,2,,,50,127
106659,note_on,0,0,0,,2,,,62,127
106802,note_off,143,0,0,,2,,,62,127
106803,note_on,1,0,0,,6,,,66,127
106946,note_off,143,0,0,,6,,,66,127
106946,note_off,0,0,0,,2,,,50,127
106947,note_on,1,0,0,,7,,,55,127
106947,note_on,0,0,0,,7,,,67,127
107090,note_off,143,0,0,,7,,,67,127
107091,note_on,1,0,0,,12,,,71,127
107234,note_off,143,0,0,,12,,,71,127
107234,note_off,0,0,0,,7,,,55,127
107235,note_on,1,0,0,,10,,,57,127
107235,note_on,0,0,0,,10,,,69,127
107378,note_off,143,0,0,,10,,,69,127
107379,note_on,1,0,0,,2,,,62,127
107522,note_off,143,0,0,,2,,,62,127
107523,note_on,1,0,0,,10,,,45,127
107523,note_on,0,0,0,,1,,,61,127
107666,note_off,143,0,0,,1,,,61,127
107667,note_on,1,0,0,,4,,,64,127
107810,note_off,143,0,0,,4,,,64,127
107810,note_off,0,0,0,,10,,,45,127
107810,note_off,0,0,0,,10,,,57,127
107811,note_on,1,0,0,,2,,,50,127
107811,note_on,0,0,0,,2,,,62,127
107955,note_on,144,0,0,,2,,,74,127
108096,note_off,141,0,0,,2,,,62,127
108098,note_off,2,0,0,,2,,,74,127
108098,note_off,0,0,0,,2,,,50,127
108099,note_on,1,0,0,,7,,,55,127
108099,note_on,0,0,0,,12,,,71,127
108242,note_off,143,0,0,,12,,,71,127
108243,note_on,1,0,0,,7,,,67,127
108386,note_off,143,0,0,,7,,,67,127
108386,note_off,0,0,0,,7,,,55,127
108387,note_on,1,0,0,,10,,,57,127
108387,note_on,0,0,0,,6,,,66,127
108531,note_on,144,0,0,,2,,,74,127
108672,note_off,141,0,0,,6,,,66,127
108675,note_on,3,0,0,,10,,,45,127
108675,note_on,0,0,0,,4,,,64,127
108816,note_off,141,0,0,,2,,,74,127
108819,note_on,3,0,0,,1,,,73,127
108819,note_on,0,0,0,,4,,,76,127
108960,note_off,141,0,0,,4,,,64,127
108962,note_off,2,0,0,,10,,,45,127
108962,note_off,0,0,0,,10,,,57,127
108963,note_on,1,0,0,,2,,,50,127
108963,note_on,0,0,0,,10,,,69,127
109104,note_off,141,0,0,,4,,,76,127
109104,note_off,0,0,0,,1,,,73,127
109107,note_on,3,0,0,,6,,,78,127
109107,note_on,0,0,0,,2,,,74,127
109248,note_off,141,0,0,,10,,,69,127
109250,note_off,2,0,0,,2,,,50,127
109251,note_on,1,0,0,,7,,,55,127
109251,note_on,0,0,0,,7,,,67,127
109392,note_off,141,0,0,,2,,,74,127
109392,note_off,0,0,0,,6,,,78,127
109395,note_on,3,0,0,,4,,,76,127
109395,note_on,0,0,0,,1,,,73,127
109536,note_off,141,0,0,,7,,,67,127
109538,note_off,2,0,0,,7,,,55,127
109539,note_on,1,0,0,,10,,,57,127
109539,note_on,0,0,0,,6,,,66,127
109680,note_off,141,0,0,,1,,,73,127
109680,note_off,0,0,0,,4,,,76,127
109683,note_on,3,0,0,,2,,,74,127
109824,note_off,141,0,0,,6,,,66,127
109827,note_on,3,0,0,,10,,,45,127
109827,note_on,0,0,0,,4,,,64,127
109968,note_off,141,0,0,,2,,,74,127
109971,note_on,3,0,0,,1,,,73,127
110112,note_off,141,0,0,,4,,,64,127
110114,note_off,2,0,0,,1,,,73,127
110114,note_off,0,0,0,,10,,,45,127
110114,note_off,0,0,0,,10,,,57,127
110115,note_on,1,0,0,,2,,,50,127
110115,note_on,0,0,0,,2,,,62,127
110258,note_off,143,0,0,,2,,,62,127
110259,note_on,1,0,0,,10,,,81,127
110330,note_off,71,0,0,,10,,,81,127
110331,note_on,1,0,0,,10,,,81,127
110402,note_off,71,0,0,,10,,,81,127
110403,note_on,1,0,0,,6,,,78,127
110474,note_off,71,0,0,,6,,,78,127
110475,note_on,1,0,0,,6,,,78,127
110546,note_off,71,0,0,,6,,,78,127
110547,note_on,1,0,0,,2,,,74,127
110618,note_off,71,0,0,,2,,,74,127
110619,note_on,1,0,0,,2,,,74,127
110690,note_off,71,0,0,,2,,,74,127
110691,note_on,1,0,0,,10,,,69,127
110762,note_off,71,0,0,,10,,,69,127
110763,note_on,1,0,0,,10,,,69,127
110834,note_off,71,0,0,,10,,,69,127
110835,note_on,1,0,0,,6,,,66,127
110906,note_off,71,0,0,,6,,,66,127
110907,note_on,1,0,0,,6,,,66,127
110978,note_off,71,0,0,,6,,,66,127
110979,note_on,1,0,0,,2,,,62,127
111050,note_off,71,0,0,,2,,,62,127
111051,note_on,1,0,0,,2,,,62,127
111122,note_off,71,0,0,,2,,,62,127
111123,note_on,1,0,0,,10,,,57,127
111194,note_off,71,0,0,,10,,,57,127
111195,note_on,1,0,0,,10,,,57,127
111266,note_off,71,0,0,,10,,,57,127
111267,note_on,1,0,0,,2,,,38,127
112365,note_off,1098,0,0,,2,,,50,127
113715,note_off,1350,0,0,,2,,,38,127
115200,end_of_track,1485,1,0,,,,,,
