tick,type,time,meta,track,program,channel,pitch,tempo,note,velocity
0,copyright,0,1,0,,,,,,
0,program_change,0,0,0,6,0,,,,
0,pitchwheel,0,0,0,,0,0,,,
0,program_change,0,0,0,6,1,,,,
0,pitchwheel,0,0,0,,1,-590,,,
0,program_change,0,0,0,6,2,,,,
0,pitchwheel,0,0,0,,2,-272,,,
0,program_change,0,0,0,6,3,,,,
0,pitchwheel,0,0,0,,3,-353,,,
0,program_change,0,0,0,6,4,,,,
0,pitchwheel,0,0,0,,4,-560,,,
0,program_change,0,0,0,6,5,,,,
0,pitchwheel,0,0,0,,5,-80,,,
0,program_change,0,0,0,6,6,,,,
0,pitchwheel,0,0,0,,6,-625,,,
0,program_change,0,0,0,6,7,,,,
0,pitchwheel,0,0,0,,7,-130,,,
0,program_change,0,0,0,6,8,,,,
0,pitchwheel,0,0,0,,8,-512,,,
0,program_change,0,0,0,6,10,,,,
0,pitchwheel,0,0,0,,10,-464,,,
0,program_change,0,0,0,6,11,,,,
0,pitchwheel,0,0,0,,11,-208,,,
0,program_change,0,0,0,6,12,,,,
0,pitchwheel,0,0,0,,12,-553,,,
0,set_tempo,0,1,0,,,,500000,,
160,note_on,160,0,0,,2,,,86,127
478,note_off,318,0,0,,2,,,86,127
480,note_on,2,0,0,,10,,,81,127
798,note_off,318,0,0,,10,,,81,127
800,note_on,2,0,0,,6,,,78,127
1118,note_off,318,0,0,,6,,,78,127
1120,note_on,2,0,0,,2,,,74,127
1278,note_off,158,0,0,,2,,,74,127
1280,note_on,2,0,0,,10,,,69,127
1438,note_off,158,0,0,,10,,,69,127
1440,note_on,2,0,0,,6,,,66,127
1598,note_off,158,0,0,,6,,,66,127
1600,note_on,2,0,0,,2,,,62,127
1758,note_off,158,0,0,,2,,,62,127
1760,note_on,2,0,0,,10,,,57,127
1918,note_off,158,0,0,,10,,,57,127
1920,note_on,2,0,0,,6,,,54,127
2078,note_off,158,0,0,,6,,,54,127
2080,note_on,2,0,0,,2,,,50,127
2238,note_off,158,0,0,,2,,,50,127
2240,note_on,2,0,0,,10,,,45,127
2398,note_off,158,0,0,,10,,,45,127
2400,note_on,2,0,0,,6,,,42,127
2558,note_off,158,0,0,,6,,,42,127
2560,note_on,2,0,0,,2,,,38,127
2718,note_off,158,0,0,,2,,,38,127
2720,note_on,2,0,0,,10,,,81,127
2720,note_on,0,0,0,,6,,,78,127
3038,note_off,318,0,0,,6,,,78,127
3038,note_off,0,0,0,,10,,,81,127
3040,note_on,2,0,0,,7,,,55,127
3040,note_on,0,0,0,,7,,,67,127
3198,note_off,158,0,0,,7,,,67,127
3200,note_on,2,0,0,,12,,,83,127
3200,note_on,0,0,0,,7,,,79,127
3358,note_off,158,0,0,,7,,,79,127
3358,note_off,0,0,0,,12,,,83,127
3358,note_off,0,0,0,,7,,,55,127
3360,note_on,2,0,0,,10,,,57,127
3360,note_on,0,0,0,,6,,,66,127
3518,note_off,158,0,0,,6,,,66,127
3520,note_on,2,0,0,,6,,,78,127
3520,note_on,0,0,0,,10,,,81,127
3678,note_off,158,0,0,,10,,,81,127
3678,note_off,0,0,0,,6,,,78,127
3680,note_on,2,0,0,,10,,,45,127
3680,note_on,0,0,0,,4,,,64,127
3838,note_off,158,0,0,,4,,,64,127
3840,note_on,2,0,0,,7,,,79,127
3840,note_on,0,0,0,,4,,,76,127
3998,note_off,158,0,0,,4,,,76,127
3998,note_off,0,0,0,,7,,,79,127
3998,note_off,0,0,0,,10,,,45,127
3998,note_off,0,0,0,,10,,,57,127
4000,note_on,2,0,0,,2,,,38,127
4000,note_on,0,0,0,,6,,,78,127
4000,note_on,0,0,0,,2,,,74,127
4318,note_off,318,0,0,,2,,,74,127
4318,note_off,0,0,0,,6,,,78,127
4320,note_on,2,0,0,,4,,,76,127
4320,note_on,0,0,0,,1,,,73,127
4638,note_off,318,0,0,,1,,,73,127
4638,note_off,0,0,0,,4,,,76,127
4638,note_off,0,0,0,,2,,,38,127
4640,note_on,2,0,0,,2,,,62,127
4640,note_on,0,0,0,,6,,,66,127
4640,note_on,0,0,0,,2,,,74,127
4640,note_on,0,0,0,,6,,,78,127
4958,note_off,318,0,0,,6,,,78,127
4958,note_off,0,0,0,,2,,,74,127
4958,note_off,0,0,0,,6,,,66,127
4958,note_off,0,0,0,,2,,,62,127
4960,note_on,2,0,0,,10,,,45,127
4960,note_on,0,0,0,,7,,,79,127
4960,note_on,0,0,0,,4,,,76,127
5118,note_off,158,0,0,,10,,,45,127
5120,note_on,2,0,0,,1,,,61,127
5120,note_on,0,0,0,,4,,,64,127
5278,note_off,158,0,0,,4,,,64,127
5278,note_off,0,0,0,,1,,,61,127
5278,note_off,0,0,0,,4,,,76,127
5278,note_off,0,0,0,,7,,,79,127
5280,note_on,2,0,0,,2,,,38,127
5280,note_on,0,0,0,,2,,,74,127
5280,note_on,0,0,0,,6,,,78,127
5438,note_off,158,0,0,,2,,,38,127
5440,note_on,2,0,0,,2,,,62,127
5440,note_on,0,0,0,,6,,,66,127
5598,note_off,158,0,0,,6,,,66,127
5598,note_off,0,0,0,,2,,,62,127
5598,note_off,0,0,0,,6,,,78,127
5598,note_off,0,0,0,,2,,,74,127
5600,note_on,2,0,0,,10,,,45,127
5600,note_on,0,0,0,,4,,,76,127
5600,note_on,0,0,0,,7,,,79,127
5758,note_off,158,0,0,,10,,,45,127
5760,note_on,2,0,0,,1,,,61,127
5760,note_on,0,0,0,,4,,,64,127
5918,note_off,158,0,0,,4,,,64,127
5918,note_off,0,0,0,,1,,,61,127
5918,note_off,0,0,0,,7,,,79,127
5918,note_off,0,0,0,,4,,,76,127
5920,note_on,2,0,0,,2,,,38,127
5920,note_on,0,0,0,,2,,,74,127
5920,note_on,0,0,0,,6,,,78,127
6078,note_off,158,0,0,,2,,,38,127
6080,note_on,2,0,0,,6,,,66,127
6080,note_on,0,0,0,,2,,,62,127
6238,note_off,158,0,0,,2,,,62,127
6238,note_off,0,0,0,,6,,,66,127
6238,note_off,0,0,0,,6,,,78,127
6238,note_off,0,0,0,,2,,,74,127
6240,note_on,2,0,0,,10,,,45,127
6240,note_on,0,0,0,,4,,,76,127
6240,note_on,0,0,0,,7,,,79,127
6398,note_off,158,0,0,,10,,,45,127
6400,note_on,2,0,0,,1,,,61,127
6400,note_on,0,0,0,,4,,,64,127
6558,note_off,158,0,0,,4,,,64,127
6558,note_off,0,0,0,,1,,,61,127
6558,note_off,0,0,0,,7,,,79,127
6558,note_off,0,0,0,,4,,,76,127
6560,note_on,2,0,0,,2,,,38,127
6560,note_on,0,0,0,,6,,,78,127
6560,note_on,0,0,0,,2,,,74,127
6718,note_off,158,0,0,,2,,,38,127
6720,note_on,2,0,0,,6,,,66,127
6720,note_on,0,0,0,,2,,,62,127
6878,note_off,158,0,0,,2,,,62,127
6878,note_off,0,0,0,,6,,,66,127
6878,note_off,0,0,0,,2,,,74,127
6878,note_off,0,0,0,,6,,,78,127
6880,note_on,2,0,0,,10,,,45,127
6880,note_on,0,0,0,,4,,,76,127
6880,note_on,0,0,0,,7,,,79,127
7038,note_off,158,0,0,,10,,,45,127
7040,note_on,2,0,0,,4,,,64,127
7040,note_on,0,0,0,,1,,,61,127
7198,note_off,158,0,0,,1,,,61,127
7198,note_off,0,0,0,,4,,,64,127
7198,note_off,0,0,0,,7,,,79,127
7198,note_off,0,0,0,,4,,,76,127
7200,note_on,2,0,0,,2,,,50,127
7200,note_on,0,0,0,,2,,,74,127
7200,note_on,0,0,0,,6,,,78,127
7358,note_off,158,0,0,,2,,,50,127
7360,note_on,2,0,0,,4,,,52,127
7518,note_off,158,0,0,,4,,,52,127
7518,note_off,0,0,0,,6,,,78,127
7518,note_off,0,0,0,,2,,,74,127
7520,note_on,2,0,0,,6,,,54,127
7520,note_on,0,0,0,,2,,,74,127
7678,note_off,158,0,0,,6,,,54,127
7680,note_on,2,0,0,,7,,,55,127
7838,note_off,158,0,0,,7,,,55,127
7838,note_off,0,0,0,,2,,,74,127
7840,note_on,2,0,0,,10,,,45,127
7840,note_on,0,0,0,,1,,,73,127
8158,note_off,318,0,0,,1,,,73,127
8160,note_on,2,0,0,,4,,,76,127
8238,note_off,78,0,0,,4,,,76,127
8240,note_on,2,0,0,,2,,,74,127
8318,note_off,78,0,0,,2,,,74,127
8320,note_on,2,0,0,,1,,,73,127
8398,note_off,78,0,0,,1,,,73,127
8400,note_on,2,0,0,,2,,,74,127
8478,note_off,78,0,0,,2,,,74,127
8480,note_on,2,0,0,,4,,,76,127
8640,note_off,160,0,0,,10,,,45,127
8798,note_off,158,0,0,,4,,,76,127
8800,note_on,2,0,0,,10,,,57,127
8800,note_on,0,0,0,,7,,,67,127
8800,note_on,0,0,0,,11,,,82,127
8800,note_on,0,0,0,,1,,,73,127
8958,note_off,158,0,0,,1,,,73,127
8958,note_off,0,0,0,,11,,,82,127
8960,note_on,2,0,0,,2,,,74,127
8960,note_on,0,0,0,,10,,,81,127
9118,note_off,158,0,0,,10,,,81,127
9118,note_off,0,0,0,,2,,,74,127
9118,note_off,0,0,0,,7,,,67,127
9118,note_off,0,0,0,,10,,,57,127
9120,note_on,2,0,0,,10,,,57,127
9120,note_on,0,0,0,,7,,,67,127
9120,note_on,0,0,0,,4,,,76,127
9120,note_on,0,0,0,,7,,,79,127
9278,note_off,158,0,0,,7,,,79,127
9278,note_off,0,0,0,,4,,,76,127
9280,note_on,2,0,0,,1,,,73,127
9280,note_on,0,0,0,,4,,,76,127
9438,note_off,158,0,0,,4,,,76,127
9438,note_off,0,0,0,,1,,,73,127
9438,note_off,0,0,0,,7,,,67,127
9438,note_off,0,0,0,,10,,,57,127
9440,note_on,2,0,0,,10,,,57,127
9440,note_on,0,0,0,,7,,,67,127
9440,note_on,0,0,0,,5,,,77,127
9440,note_on,0,0,0,,2,,,74,127
9598,note_off,158,0,0,,2,,,74,127
9598,note_off,0,0,0,,5,,,77,127
9600,note_on,2,0,0,,7,,,79,127
9600,note_on,0,0,0,,11,,,70,127
9758,note_off,158,0,0,,11,,,70,127
9758,note_off,0,0,0,,7,,,79,127
9758,note_off,0,0,0,,7,,,67,127
9758,note_off,0,0,0,,10,,,57,127
9760,note_on,2,0,0,,10,,,57,127
9760,note_on,0,0,0,,7,,,67,127
9760,note_on,0,0,0,,10,,,69,127
9760,note_on,0,0,0,,1,,,73,127
9918,note_off,158,0,0,,1,,,73,127
9918,note_off,0,0,0,,7,,,67,127
9920,note_on,2,0,0,,5,,,65,127
9920,note_on,0,0,0,,2,,,74,127
10078,note_off,158,0,0,,2,,,74,127
10078,note_off,0,0,0,,5,,,65,127
10078,note_off,0,0,0,,10,,,69,127
10078,note_off,0,0,0,,10,,,57,127
10080,note_on,2,0,0,,4,,,64,127
10080,note_on,0,0,0,,10,,,57,127
10080,note_on,0,0,0,,4,,,76,127
10158,note_off,78,0,0,,4,,,76,127
10160,note_on,2,0,0,,5,,,77,127
10238,note_off,78,0,0,,5,,,77,127
10238,note_off,0,0,0,,4,,,64,127
10240,note_on,2,0,0,,2,,,62,127
10240,note_on,0,0,0,,7,,,79,127
10318,note_off,78,0,0,,7,,,79,127
10320,note_on,2,0,0,,10,,,81,127
10398,note_off,78,0,0,,10,,,81,127
10398,note_off,0,0,0,,2,,,62,127
10398,note_off,0,0,0,,10,,,57,127
10400,note_on,2,0,0,,4,,,64,127
10400,note_on,0,0,0,,1,,,61,127
10400,note_on,0,0,0,,10,,,57,127
10400,note_on,0,0,0,,10,,,69,127
10718,note_off,318,0,0,,10,,,69,127
10718,note_off,0,0,0,,10,,,57,127
10718,note_off,0,0,0,,1,,,61,127
10718,note_off,0,0,0,,4,,,64,127
10720,note_on,2,0,0,,10,,,57,127
10720,note_on,0,0,0,,7,,,67,127
10720,note_on,0,0,0,,1,,,73,127
10720,note_on,0,0,0,,11,,,82,127
10878,note_off,158,0,0,,11,,,82,127
10878,note_off,0,0,0,,1,,,73,127
10880,note_on,2,0,0,,2,,,74,127
10880,note_on,0,0,0,,10,,,81,127
11038,note_off,158,0,0,,10,,,81,127
11038,note_off,0,0,0,,2,,,74,127
11038,note_off,0,0,0,,7,,,67,127
11038,note_off,0,0,0,,10,,,57,127
11040,note_on,2,0,0,,10,,,57,127
11040,note_on,0,0,0,,7,,,67,127
11040,note_on,0,0,0,,7,,,79,127
11040,note_on,0,0,0,,4,,,76,127
11198,note_off,158,0,0,,4,,,76,127
11198,note_off,0,0,0,,7,,,79,127
11200,note_on,2,0,0,,1,,,73,127
11200,note_on,0,0,0,,4,,,76,127
11358,note_off,158,0,0,,4,,,76,127
11358,note_off,0,0,0,,1,,,73,127
11358,note_off,0,0,0,,7,,,67,127
11358,note_off,0,0,0,,10,,,57,127
11360,note_on,2,0,0,,10,,,57,127
11360,note_on,0,0,0,,7,,,67,127
11360,note_on,0,0,0,,2,,,74,127
11360,note_on,0,0,0,,5,,,77,127
11518,note_off,158,0,0,,5,,,77,127
11518,note_off,0,0,0,,2,,,74,127
11520,note_on,2,0,0,,11,,,70,127
11520,note_on,0,0,0,,7,,,79,127
11678,note_off,158,0,0,,7,,,79,127
11678,note_off,0,0,0,,11,,,70,127
11678,note_off,0,0,0,,7,,,67,127
11678,note_off,0,0,0,,10,,,57,127
11680,note_on,2,0,0,,10,,,57,127
11680,note_on,0,0,0,,7,,,67,127
11680,note_on,0,0,0,,10,,,69,127
11680,note_on,0,0,0,,1,,,73,127
11838,note_off,158,0,0,,1,,,73,127
11838,note_off,0,0,0,,7,,,67,127
11840,note_on,2,0,0,,5,,,65,127
11840,note_on,0,0,0,,2,,,74,127
11998,note_off,158,0,0,,2,,,74,127
11998,note_off,0,0,0,,5,,,65,127
11998,note_off,0,0,0,,10,,,69,127
11998,note_off,0,0,0,,10,,,57,127
12000,note_on,2,0,0,,4,,,64,127
12000,note_on,0,0,0,,10,,,57,127
12000,note_on,0,0,0,,4,,,76,127
12078,note_off,78,0,0,,4,,,76,127
12080,note_on,2,0,0,,5,,,77,127
12158,note_off,78,0,0,,5,,,77,127
12158,note_off,0,0,0,,4,,,64,127
12160,note_on,2,0,0,,2,,,62,127
12160,note_on,0,0,0,,7,,,79,127
12238,note_off,78,0,0,,7,,,79,127
12240,note_on,2,0,0,,10,,,81,127
12318,note_off,78,0,0,,10,,,81,127
12318,note_off,0,0,0,,2,,,62,127
12318,note_off,0,0,0,,10,,,57,127
12320,note_on,2,0,0,,4,,,64,127
12320,note_on,0,0,0,,1,,,61,127
12320,note_on,0,0,0,,10,,,57,127
12320,note_on,0,0,0,,10,,,69,127
12638,note_off,318,0,0,,10,,,69,127
12638,note_off,0,0,0,,10,,,57,127
12638,note_off,0,0,0,,1,,,61,127
12638,note_off,0,0,0,,4,,,64,127
12640,note_on,2,0,0,,11,,,58,127
12640,note_on,0,0,0,,7,,,67,127
12640,note_on,0,0,0,,7,,,79,127
12798,note_off,158,0,0,,7,,,67,127
12798,note_off,0,0,0,,11,,,58,127
12800,note_on,2,0,0,,4,,,64,127
12800,note_on,0,0,0,,0,,,60,127
12958,note_off,158,0,0,,0,,,60,127
12958,note_off,0,0,0,,4,,,64,127
12958,note_off,0,0,0,,7,,,79,127
12960,note_on,2,0,0,,5,,,65,127
12960,note_on,0,0,0,,2,,,62,127
12960,note_on,0,0,0,,5,,,77,127
13118,note_off,158,0,0,,5,,,77,127
13118,note_off,0,0,0,,2,,,62,127
13118,note_off,0,0,0,,5,,,65,127
13120,note_on,2,0,0,,11,,,58,127
13120,note_on,0,0,0,,7,,,67,127
13120,note_on,0,0,0,,11,,,82,127
13278,note_off,158,0,0,,7,,,67,127
13278,note_off,0,0,0,,11,,,58,127
13280,note_on,2,0,0,,0,,,60,127
13280,note_on,0,0,0,,4,,,64,127
13438,note_off,158,0,0,,4,,,64,127
13438,note_off,0,0,0,,0,,,60,127
13438,note_off,0,0,0,,11,,,82,127
13440,note_on,2,0,0,,5,,,65,127
13440,note_on,0,0,0,,10,,,57,127
13440,note_on,0,0,0,,10,,,81,127
13598,note_off,158,0,0,,10,,,57,127
13598,note_off,0,0,0,,5,,,65,127
13600,note_on,2,0,0,,11,,,58,127
13600,note_on,0,0,0,,2,,,62,127
13758,note_off,158,0,0,,2,,,62,127
13758,note_off,0,0,0,,11,,,58,127
13758,note_off,0,0,0,,10,,,81,127
13760,note_on,2,0,0,,4,,,64,127
13760,note_on,0,0,0,,7,,,55,127
13760,note_on,0,0,0,,7,,,79,127
13918,note_off,158,0,0,,7,,,55,127
13918,note_off,0,0,0,,4,,,64,127
13920,note_on,2,0,0,,10,,,57,127
13920,note_on,0,0,0,,1,,,61,127
14078,note_off,158,0,0,,1,,,61,127
14078,note_off,0,0,0,,10,,,57,127
14078,note_off,0,0,0,,7,,,79,127
14080,note_on,2,0,0,,5,,,53,127
14080,note_on,0,0,0,,2,,,62,127
14080,note_on,0,0,0,,5,,,77,127
14238,note_off,158,0,0,,2,,,62,127
14238,note_off,0,0,0,,5,,,53,127
14240,note_on,2,0,0,,11,,,58,127
14240,note_on,0,0,0,,7,,,55,127
14398,note_off,158,0,0,,7,,,55,127
14398,note_off,0,0,0,,11,,,58,127
14398,note_off,0,0,0,,5,,,77,127
14400,note_on,2,0,0,,1,,,61,127
14400,note_on,0,0,0,,4,,,52,127
14400,note_on,0,0,0,,4,,,76,127
14558,note_off,158,0,0,,4,,,76,127
14558,note_off,0,0,0,,4,,,52,127
14558,note_off,0,0,0,,1,,,61,127
14560,note_on,2,0,0,,2,,,62,127
14560,note_on,0,0,0,,10,,,57,127
14560,note_on,0,0,0,,5,,,53,127
14560,note_on,0,0,0,,10,,,81,127
14718,note_off,158,0,0,,10,,,81,127
14720,note_on,2,0,0,,2,,,74,127
14878,note_off,158,0,0,,5,,,53,127
14878,note_off,0,0,0,,10,,,57,127
14878,note_off,0,0,0,,2,,,62,127
14880,note_on,2,0,0,,4,,,52,127
14880,note_on,0,0,0,,1,,,61,127
14880,note_on,0,0,0,,7,,,55,127
14880,note_on,0,0,0,,10,,,57,127
15038,note_off,158,0,0,,2,,,74,127
15040,note_on,2,0,0,,1,,,73,127
15198,note_off,158,0,0,,1,,,73,127
15198,note_off,0,0,0,,10,,,57,127
15198,note_off,0,0,0,,7,,,55,127
15198,note_off,0,0,0,,1,,,61,127
15198,note_off,0,0,0,,4,,,52,127
15200,note_on,2,0,0,,2,,,50,127
15200,note_on,0,0,0,,10,,,57,127
15200,note_on,0,0,0,,2,,,62,127
15200,note_on,0,0,0,,4,,,76,127
15278,note_off,78,0,0,,4,,,76,127
15280,note_on,2,0,0,,2,,,74,127
15358,note_off,78,0,0,,2,,,74,127
15360,note_on,2,0,0,,1,,,73,127
15438,note_off,78,0,0,,1,,,73,127
15440,note_on,2,0,0,,2,,,74,127
15518,note_off,78,0,0,,2,,,74,127
15518,note_off,0,0,0,,2,,,62,127
15518,note_off,0,0,0,,2,,,50,127
15520,note_on,2,0,0,,10,,,45,127
15520,note_on,0,0,0,,2,,,74,127
16153,note_off,633,0,0,,10,,,45,127
16158,note_off,5,0,0,,2,,,74,127
16160,note_on,2,0,0,,4,,,76,127
16478,note_off,318,0,0,,4,,,76,127
16478,note_off,0,0,0,,10,,,57,127
16480,note_on,2,0,0,,10,,,57,127
16480,note_on,0,0,0,,5,,,65,127
16640,note_on,160,0,0,,0,,,84,127
16798,note_off,158,0,0,,5,,,65,127
16798,note_off,0,0,0,,10,,,57,127
16800,note_on,2,0,0,,10,,,57,127
16800,note_on,0,0,0,,5,,,65,127
16958,note_off,158,0,0,,0,,,84,127
16960,note_on,2,0,0,,10,,,81,127
17118,note_off,158,0,0,,10,,,81,127
17118,note_off,0,0,0,,5,,,65,127
17118,note_off,0,0,0,,10,,,57,127
17120,note_on,2,0,0,,10,,,57,127
17120,note_on,0,0,0,,5,,,65,127
17120,note_on,0,0,0,,5,,,77,127
17278,note_off,158,0,0,,5,,,77,127
17280,note_on,2,0,0,,0,,,72,127
17438,note_off,158,0,0,,0,,,72,127
17438,note_off,0,0,0,,5,,,65,127
17438,note_off,0,0,0,,10,,,57,127
17440,note_on,2,0,0,,5,,,65,127
17440,note_on,0,0,0,,11,,,58,127
17440,note_on,0,0,0,,1,,,73,127
17598,note_off,158,0,0,,1,,,73,127
17600,note_on,2,0,0,,2,,,74,127
17758,note_off,158,0,0,,2,,,74,127
17758,note_off,0,0,0,,11,,,58,127
17758,note_off,0,0,0,,5,,,65,127
17760,note_on,2,0,0,,11,,,58,127
17760,note_on,0,0,0,,5,,,65,127
17760,note_on,0,0,0,,5,,,77,127
17760,note_on,0,0,0,,4,,,76,127
17838,note_off,78,0,0,,4,,,76,127
17838,note_off,0,0,0,,5,,,77,127
17840,note_on,2,0,0,,2,,,74,127
17918,note_off,78,0,0,,2,,,74,127
17920,note_on,2,0,0,,4,,,76,127
17998,note_off,78,0,0,,4,,,76,127
18000,note_on,2,0,0,,6,,,78,127
18078,note_off,78,0,0,,6,,,78,127
18078,note_off,0,0,0,,5,,,65,127
18078,note_off,0,0,0,,11,,,58,127
18080,note_on,2,0,0,,11,,,58,127
18080,note_on,0,0,0,,5,,,65,127
18080,note_on,0,0,0,,7,,,79,127
18158,note_off,78,0,0,,7,,,79,127
18160,note_on,2,0,0,,6,,,78,127
18238,note_off,78,0,0,,6,,,78,127
18240,note_on,2,0,0,,7,,,79,127
18318,note_off,78,0,0,,7,,,79,127
18320,note_on,2,0,0,,10,,,81,127
18398,note_off,78,0,0,,10,,,81,127
18398,note_off,0,0,0,,5,,,65,127
18398,note_off,0,0,0,,11,,,58,127
18400,note_on,2,0,0,,11,,,58,127
18400,note_on,0,0,0,,7,,,55,127
18400,note_on,0,0,0,,4,,,64,127
18560,note_on,160,0,0,,11,,,82,127
18718,note_off,158,0,0,,4,,,64,127
18718,note_off,0,0,0,,7,,,55,127
18718,note_off,0,0,0,,11,,,58,127
18720,note_on,2,0,0,,11,,,58,127
18720,note_on,0,0,0,,7,,,55,127
18720,note_on,0,0,0,,4,,,64,127
18878,note_off,158,0,0,,11,,,82,127
18880,note_on,2,0,0,,7,,,79,127
19038,note_off,158,0,0,,7,,,79,127
19038,note_off,0,0,0,,4,,,64,127
19038,note_off,0,0,0,,7,,,55,127
19038,note_off,0,0,0,,11,,,58,127
19040,note_on,2,0,0,,4,,,64,127
19040,note_on,0,0,0,,11,,,58,127
19040,note_on,0,0,0,,7,,,55,127
19040,note_on,0,0,0,,4,,,76,127
19198,note_off,158,0,0,,4,,,76,127
19200,note_on,2,0,0,,11,,,70,127
19358,note_off,158,0,0,,11,,,70,127
19358,note_off,0,0,0,,7,,,55,127
19358,note_off,0,0,0,,11,,,58,127
19358,note_off,0,0,0,,4,,,64,127
19360,note_on,2,0,0,,10,,,57,127
19360,note_on,0,0,0,,0,,,60,127
19360,note_on,0,0,0,,12,,,71,127
19518,note_off,158,0,0,,12,,,71,127
19520,note_on,2,0,0,,0,,,72,127
19678,note_off,158,0,0,,0,,,72,127
19678,note_off,0,0,0,,0,,,60,127
19678,note_off,0,0,0,,10,,,57,127
19680,note_on,2,0,0,,0,,,60,127
19680,note_on,0,0,0,,10,,,57,127
19680,note_on,0,0,0,,4,,,76,127
19680,note_on,0,0,0,,2,,,74,127
19758,note_off,78,0,0,,2,,,74,127
19758,note_off,0,0,0,,4,,,76,127
19760,note_on,2,0,0,,0,,,72,127
19838,note_off,78,0,0,,0,,,72,127
19840,note_on,2,0,0,,2,,,74,127
19918,note_off,78,0,0,,2,,,74,127
19920,note_on,2,0,0,,4,,,76,127
19998,note_off,78,0,0,,4,,,76,127
19998,note_off,0,0,0,,10,,,57,127
19998,note_off,0,0,0,,0,,,60,127
20000,note_on,2,0,0,,11,,,58,127
20000,note_on,0,0,0,,7,,,55,127
20000,note_on,0,0,0,,5,,,77,127
20078,note_off,78,0,0,,5,,,77,127
20080,note_on,2,0,0,,4,,,76,127
20158,note_off,78,0,0,,4,,,76,127
20160,note_on,2,0,0,,5,,,77,127
20238,note_off,78,0,0,,5,,,77,127
20240,note_on,2,0,0,,7,,,79,127
20318,note_off,78,0,0,,7,,,79,127
20318,note_off,0,0,0,,7,,,55,127
20318,note_off,0,0,0,,11,,,58,127
20320,note_on,2,0,0,,5,,,53,127
20320,note_on,0,0,0,,2,,,62,127
20320,note_on,0,0,0,,10,,,57,127
20480,note_on,160,0,0,,10,,,81,127
20638,note_off,158,0,0,,10,,,57,127
20638,note_off,0,0,0,,2,,,62,127
20638,note_off,0,0,0,,5,,,53,127
20640,note_on,2,0,0,,10,,,57,127
20640,note_on,0,0,0,,5,,,53,127
20640,note_on,0,0,0,,2,,,62,127
20798,note_off,158,0,0,,10,,,81,127
20800,note_on,2,0,0,,5,,,77,127
20958,note_off,158,0,0,,5,,,77,127
20958,note_off,0,0,0,,2,,,62,127
20958,note_off,0,0,0,,5,,,53,127
20958,note_off,0,0,0,,10,,,57,127
20960,note_on,2,0,0,,10,,,57,127
20960,note_on,0,0,0,,5,,,53,127
20960,note_on,0,0,0,,2,,,62,127
20960,note_on,0,0,0,,1,,,73,127
21118,note_off,158,0,0,,1,,,73,127
21120,note_on,2,0,0,,2,,,74,127
21278,note_off,158,0,0,,2,,,62,127
21278,note_off,0,0,0,,5,,,53,127
21278,note_off,0,0,0,,10,,,57,127
21280,note_on,2,0,0,,10,,,57,127
21280,note_on,0,0,0,,5,,,53,127
21280,note_on,0,0,0,,2,,,62,127
21360,note_off,80,0,0,,2,,,74,127
21440,note_on,80,0,0,,10,,,81,127
21598,note_off,158,0,0,,2,,,62,127
21598,note_off,0,0,0,,5,,,53,127
21598,note_off,0,0,0,,10,,,57,127
21600,note_on,2,0,0,,10,,,57,127
21600,note_on,0,0,0,,5,,,53,127
21600,note_on,0,0,0,,2,,,62,127
21758,note_off,158,0,0,,10,,,81,127
21760,note_on,2,0,0,,5,,,77,127
21918,note_off,158,0,0,,5,,,77,127
21918,note_off,0,0,0,,2,,,62,127
21918,note_off,0,0,0,,5,,,53,127
21918,note_off,0,0,0,,10,,,57,127
21920,note_on,2,0,0,,10,,,57,127
21920,note_on,0,0,0,,5,,,53,127
21920,note_on,0,0,0,,2,,,62,127
21920,note_on,0,0,0,,1,,,73,127
22078,note_off,158,0,0,,1,,,73,127
22080,note_on,2,0,0,,2,,,74,127
22238,note_off,158,0,0,,2,,,74,127
22238,note_off,0,0,0,,2,,,62,127
22238,note_off,0,0,0,,5,,,53,127
22238,note_off,0,0,0,,10,,,57,127
22240,note_on,2,0,0,,10,,,57,127
22240,note_on,0,0,0,,5,,,53,127
22240,note_on,0,0,0,,2,,,62,127
22240,note_on,0,0,0,,8,,,68,127
22398,note_off,158,0,0,,8,,,68,127
22400,note_on,2,0,0,,10,,,69,127
22558,note_off,158,0,0,,10,,,69,127
22558,note_off,0,0,0,,2,,,62,127
22558,note_off,0,0,0,,5,,,53,127
22558,note_off,0,0,0,,10,,,57,127
22560,note_on,2,0,0,,10,,,57,127
22560,note_on,0,0,0,,5,,,53,127
22560,note_on,0,0,0,,2,,,62,127
22560,note_on,0,0,0,,8,,,80,127
22718,note_off,158,0,0,,8,,,80,127
22720,note_on,2,0,0,,10,,,81,127
22878,note_off,158,0,0,,10,,,81,127
22878,note_off,0,0,0,,2,,,62,127
22878,note_off,0,0,0,,5,,,53,127
22878,note_off,0,0,0,,10,,,57,127
22880,note_on,2,0,0,,10,,,57,127
22880,note_on,0,0,0,,2,,,62,127
22880,note_on,0,0,0,,5,,,53,127
22880,note_on,0,0,0,,4,,,76,127
23038,note_off,158,0,0,,4,,,76,127
23040,note_on,2,0,0,,5,,,77,127
23198,note_off,158,0,0,,5,,,77,127
23198,note_off,0,0,0,,5,,,53,127
23198,note_off,0,0,0,,2,,,62,127
23198,note_off,0,0,0,,10,,,57,127
23200,note_on,2,0,0,,10,,,57,127
23200,note_on,0,0,0,,5,,,53,127
23200,note_on,0,0,0,,2,,,62,127
23200,note_on,0,0,0,,1,,,73,127
23358,note_off,158,0,0,,1,,,73,127
23360,note_on,2,0,0,,2,,,74,127
23518,note_off,158,0,0,,2,,,74,127
23518,note_off,0,0,0,,2,,,62,127
23518,note_off,0,0,0,,5,,,53,127
23518,note_off,0,0,0,,10,,,57,127
23520,note_on,2,0,0,,10,,,57,127
23520,note_on,0,0,0,,5,,,53,127
23520,note_on,0,0,0,,2,,,62,127
23520,note_on,0,0,0,,8,,,68,127
23678,note_off,158,0,0,,8,,,68,127
23680,note_on,2,0,0,,10,,,69,127
23838,note_off,158,0,0,,10,,,69,127
23838,note_off,0,0,0,,2,,,62,127
23838,note_off,0,0,0,,5,,,53,127
23838,note_off,0,0,0,,10,,,57,127
23840,note_on,2,0,0,,10,,,57,127
23840,note_on,0,0,0,,2,,,62,127
23840,note_on,0,0,0,,5,,,53,127
23840,note_on,0,0,0,,3,,,75,127
23998,note_off,158,0,0,,3,,,75,127
24000,note_on,2,0,0,,4,,,76,127
24158,note_off,158,0,0,,4,,,76,127
24158,note_off,0,0,0,,5,,,53,127
24158,note_off,0,0,0,,2,,,62,127
24158,note_off,0,0,0,,10,,,57,127
24160,note_on,2,0,0,,4,,,64,127
24160,note_on,0,0,0,,10,,,69,127
24238,note_off,78,0,0,,10,,,69,127
24240,note_on,2,0,0,,8,,,68,127
24318,note_off,78,0,0,,8,,,68,127
24320,note_on,2,0,0,,10,,,69,127
24398,note_off,78,0,0,,10,,,69,127
24400,note_on,2,0,0,,8,,,68,127
24478,note_off,78,0,0,,8,,,68,127
24480,note_on,2,0,0,,10,,,69,127
24480,note_on,0,0,0,,4,,,52,127
24558,note_off,78,0,0,,10,,,69,127
24560,note_on,2,0,0,,8,,,68,127
24638,note_off,78,0,0,,8,,,68,127
24640,note_off,2,0,0,,4,,,64,127
24640,note_on,0,0,0,,6,,,66,127
24798,note_off,158,0,0,,6,,,66,127
24800,note_on,2,0,0,,4,,,64,127
24800,note_on,0,0,0,,4,,,40,127
25097,note_off,297,0,0,,4,,,52,127
25100,note_off,3,0,0,,4,,,40,127
25118,note_off,18,0,0,,4,,,64,127
25120,note_on,2,0,0,,10,,,57,127
25120,note_on,0,0,0,,10,,,69,127
25278,note_off,158,0,0,,10,,,69,127
25280,note_on,2,0,0,,0,,,84,127
25280,note_on,0,0,0,,10,,,81,127
25438,note_off,158,0,0,,10,,,81,127
25438,note_off,0,0,0,,0,,,84,127
25438,note_off,0,0,0,,10,,,57,127
25440,note_on,2,0,0,,4,,,52,127
25440,note_on,0,0,0,,7,,,67,127
25598,note_off,158,0,0,,7,,,67,127
25600,note_on,2,0,0,,7,,,79,127
25600,note_on,0,0,0,,12,,,83,127
25758,note_off,158,0,0,,12,,,83,127
25758,note_off,0,0,0,,7,,,79,127
25758,note_off,0,0,0,,4,,,52,127
25760,note_on,2,0,0,,5,,,53,127
25760,note_on,0,0,0,,5,,,65,127
25918,note_off,158,0,0,,5,,,65,127
25920,note_on,2,0,0,,5,,,77,127
25920,note_on,0,0,0,,10,,,81,127
26078,note_off,158,0,0,,10,,,81,127
26078,note_off,0,0,0,,5,,,77,127
26078,note_off,0,0,0,,5,,,53,127
26080,note_on,2,0,0,,0,,,48,127
26080,note_on,0,0,0,,4,,,64,127
26238,note_off,158,0,0,,4,,,64,127
26240,note_on,2,0,0,,7,,,79,127
26240,note_on,0,0,0,,4,,,76,127
26398,note_off,158,0,0,,4,,,76,127
26398,note_off,0,0,0,,7,,,79,127
26398,note_off,0,0,0,,0,,,48,127
26400,note_on,2,0,0,,2,,,50,127
26400,note_on,0,0,0,,2,,,62,127
26558,note_off,158,0,0,,2,,,62,127
26560,note_on,2,0,0,,2,,,74,127
26560,note_on,0,0,0,,5,,,77,127
26718,note_off,158,0,0,,5,,,77,127
26718,note_off,0,0,0,,2,,,74,127
26718,note_off,0,0,0,,2,,,50,127
26720,note_on,2,0,0,,10,,,45,127
26720,note_on,0,0,0,,0,,,60,127
26878,note_off,158,0,0,,0,,,60,127
26880,note_on,2,0,0,,0,,,72,127
26880,note_on,0,0,0,,4,,,76,127
27038,note_off,158,0,0,,4,,,76,127
27038,note_off,0,0,0,,0,,,72,127
27038,note_off,0,0,0,,10,,,45,127
27040,note_on,2,0,0,,2,,,50,127
27040,note_on,0,0,0,,12,,,59,127
27198,note_off,158,0,0,,12,,,59,127
27200,note_on,2,0,0,,12,,,71,127
27200,note_on,0,0,0,,2,,,74,127
27358,note_off,158,0,0,,2,,,74,127
27358,note_off,0,0,0,,12,,,71,127
27358,note_off,0,0,0,,2,,,50,127
27360,note_on,2,0,0,,4,,,52,127
27360,note_on,0,0,0,,10,,,57,127
27518,note_off,158,0,0,,10,,,57,127
27520,note_on,2,0,0,,10,,,69,127
27520,note_on,0,0,0,,0,,,72,127
27678,note_off,158,0,0,,0,,,72,127
27678,note_off,0,0,0,,10,,,69,127
27680,note_on,2,0,0,,4,,,40,127
27680,note_on,0,0,0,,12,,,59,127
27838,note_off,158,0,0,,12,,,59,127
27840,note_on,2,0,0,,12,,,71,127
27840,note_on,0,0,0,,8,,,68,127
27998,note_off,158,0,0,,8,,,68,127
27998,note_off,0,0,0,,12,,,71,127
27998,note_off,0,0,0,,4,,,40,127
27998,note_off,0,0,0,,4,,,52,127
28000,note_on,2,0,0,,10,,,45,127
28000,note_on,0,0,0,,0,,,72,127
28000,note_on,0,0,0,,10,,,69,127
28158,note_off,158,0,0,,10,,,45,127
28160,note_on,2,0,0,,0,,,60,127
28160,note_on,0,0,0,,10,,,57,127
28318,note_off,158,0,0,,10,,,57,127
28318,note_off,0,0,0,,0,,,60,127
28318,note_off,0,0,0,,10,,,69,127
28318,note_off,0,0,0,,0,,,72,127
28320,note_on,2,0,0,,7,,,43,127
28320,note_on,0,0,0,,4,,,64,127
28320,note_on,0,0,0,,4,,,76,127
28478,note_off,158,0,0,,7,,,43,127
28480,note_on,2,0,0,,12,,,59,127
28480,note_on,0,0,0,,7,,,55,127
28638,note_off,158,0,0,,7,,,55,127
28638,note_off,0,0,0,,12,,,59,127
28638,note_off,0,0,0,,4,,,76,127
28638,note_off,0,0,0,,4,,,64,127
28640,note_on,2,0,0,,5,,,41,127
28640,note_on,0,0,0,,10,,,81,127
28640,note_on,0,0,0,,10,,,69,127
28798,note_off,158,0,0,,5,,,41,127
28800,note_on,2,0,0,,10,,,57,127
28800,note_on,0,0,0,,5,,,53,127
28958,note_off,158,0,0,,5,,,53,127
28958,note_off,0,0,0,,10,,,57,127
28958,note_off,0,0,0,,10,,,69,127
28958,note_off,0,0,0,,10,,,81,127
28960,note_on,2,0,0,,4,,,40,127
28960,note_on,0,0,0,,12,,,83,127
28960,note_on,0,0,0,,12,,,71,127
29118,note_off,158,0,0,,4,,,40,127
29120,note_on,2,0,0,,8,,,56,127
29120,note_on,0,0,0,,12,,,59,127
29278,note_off,158,0,0,,12,,,59,127
29278,note_off,0,0,0,,8,,,56,127
29278,note_off,0,0,0,,12,,,71,127
29278,note_off,0,0,0,,12,,,83,127
29280,note_on,2,0,0,,2,,,38,127
29280,note_on,0,0,0,,12,,,83,127
29280,note_on,0,0,0,,8,,,80,127
29438,note_off,158,0,0,,2,,,38,127
29440,note_on,2,0,0,,8,,,56,127
29440,note_on,0,0,0,,12,,,59,127
29598,note_off,158,0,0,,12,,,59,127
29598,note_off,0,0,0,,8,,,56,127
29598,note_off,0,0,0,,8,,,80,127
29598,note_off,0,0,0,,12,,,83,127
29600,note_on,2,0,0,,0,,,36,127
29600,note_on,0,0,0,,0,,,84,127
29600,note_on,0,0,0,,10,,,81,127
29758,note_off,158,0,0,,0,,,36,127
29760,note_on,2,0,0,,0,,,60,127
29760,note_on,0,0,0,,10,,,57,127
29918,note_off,158,0,0,,10,,,57,127
29918,note_off,0,0,0,,0,,,60,127
29918,note_off,0,0,0,,10,,,81,127
29918,note_off,0,0,0,,0,,,84,127
29920,note_on,2,0,0,,2,,,38,127
30080,note_on,160,0,0,,2,,,86,127
30080,note_on,0,0,0,,5,,,77,127
30238,note_off,158,0,0,,5,,,77,127
30238,note_off,0,0,0,,2,,,86,127
30238,note_off,0,0,0,,2,,,38,127
30240,note_on,2,0,0,,4,,,40,127
30240,note_on,0,0,0,,4,,,76,127
30240,note_on,0,0,0,,0,,,84,127
30398,note_off,158,0,0,,0,,,84,127
30398,note_off,0,0,0,,4,,,76,127
30400,note_on,2,0,0,,2,,,74,127
30400,note_on,0,0,0,,12,,,83,127
30558,note_off,158,0,0,,12,,,83,127
30558,note_off,0,0,0,,2,,,74,127
30558,note_off,0,0,0,,4,,,40,127
30560,note_on,2,0,0,,4,,,40,127
30560,note_on,0,0,0,,10,,,81,127
30560,note_on,0,0,0,,0,,,72,127
30718,note_off,158,0,0,,0,,,72,127
30718,note_off,0,0,0,,10,,,81,127
30720,note_on,2,0,0,,8,,,80,127
30720,note_on,0,0,0,,12,,,71,127
30878,note_off,158,0,0,,12,,,71,127
30878,note_off,0,0,0,,8,,,80,127
30878,note_off,0,0,0,,4,,,40,127
30880,note_on,2,0,0,,10,,,45,127
30880,note_on,0,0,0,,0,,,72,127
30880,note_on,0,0,0,,10,,,81,127
30880,note_on,0,0,0,,4,,,76,127
31038,note_off,158,0,0,,10,,,45,127
31040,note_on,2,0,0,,0,,,60,127
31040,note_on,0,0,0,,10,,,57,127
31198,note_off,158,0,0,,10,,,57,127
31198,note_off,0,0,0,,0,,,60,127
31198,note_off,0,0,0,,4,,,76,127
31198,note_off,0,0,0,,10,,,81,127
31198,note_off,0,0,0,,0,,,72,127
31200,note_on,2,0,0,,7,,,43,127
31200,note_on,0,0,0,,4,,,76,127
31200,note_on,0,0,0,,12,,,71,127
31358,note_off,158,0,0,,7,,,43,127
31360,note_on,2,0,0,,12,,,59,127
31360,note_on,0,0,0,,7,,,55,127
31518,note_off,158,0,0,,7,,,55,127
31518,note_off,0,0,0,,12,,,59,127
31518,note_off,0,0,0,,12,,,71,127
31518,note_off,0,0,0,,4,,,76,127
31520,note_on,2,0,0,,5,,,41,127
31520,note_on,0,0,0,,2,,,74,127
31520,note_on,0,0,0,,10,,,69,127
31678,note_off,158,0,0,,5,,,41,127
31680,note_on,2,0,0,,10,,,57,127
31680,note_on,0,0,0,,5,,,53,127
31838,note_off,158,0,0,,5,,,53,127
31838,note_off,0,0,0,,10,,,57,127
31838,note_off,0,0,0,,10,,,69,127
31838,note_off,0,0,0,,2,,,74,127
31840,note_on,2,0,0,,4,,,40,127
31840,note_on,0,0,0,,4,,,76,127
31840,note_on,0,0,0,,8,,,68,127
31998,note_off,158,0,0,,4,,,40,127
32000,note_on,2,0,0,,4,,,52,127
32000,note_on,0,0,0,,8,,,56,127
32000,note_on,0,0,0,,12,,,59,127
32158,note_off,158,0,0,,12,,,59,127
32158,note_off,0,0,0,,8,,,56,127
32158,note_off,0,0,0,,4,,,52,127
32158,note_off,0,0,0,,8,,,68,127
32158,note_off,0,0,0,,4,,,76,127
32160,note_on,2,0,0,,2,,,38,127
32160,note_on,0,0,0,,5,,,77,127
32160,note_on,0,0,0,,8,,,68,127
32318,note_off,158,0,0,,2,,,38,127
32320,note_on,2,0,0,,8,,,56,127
32320,note_on,0,0,0,,12,,,59,127
32320,note_on,0,0,0,,2,,,50,127
32478,note_off,158,0,0,,2,,,50,127
32478,note_off,0,0,0,,12,,,59,127
32478,note_off,0,0,0,,8,,,56,127
32478,note_off,0,0,0,,8,,,68,127
32478,note_off,0,0,0,,5,,,77,127
32480,note_on,2,0,0,,0,,,36,127
32480,note_on,0,0,0,,10,,,69,127
32480,note_on,0,0,0,,4,,,76,127
32638,note_off,158,0,0,,0,,,36,127
32640,note_on,2,0,0,,0,,,60,127
32640,note_on,0,0,0,,10,,,57,127
32798,note_off,158,0,0,,10,,,57,127
32798,note_off,0,0,0,,0,,,60,127
32798,note_off,0,0,0,,4,,,76,127
32798,note_off,0,0,0,,10,,,69,127
32800,note_on,2,0,0,,2,,,50,127
32960,note_on,160,0,0,,2,,,74,127
32960,note_on,0,0,0,,5,,,65,127
33118,note_off,158,0,0,,5,,,65,127
33118,note_off,0,0,0,,2,,,74,127
33118,note_off,0,0,0,,2,,,50,127
33120,note_on,2,0,0,,4,,,52,127
33120,note_on,0,0,0,,0,,,72,127
33120,note_on,0,0,0,,4,,,64,127
33278,note_off,158,0,0,,4,,,64,127
33278,note_off,0,0,0,,0,,,72,127
33280,note_on,2,0,0,,12,,,71,127
33280,note_on,0,0,0,,2,,,62,127
33438,note_off,158,0,0,,2,,,62,127
33438,note_off,0,0,0,,12,,,71,127
33440,note_on,2,0,0,,4,,,40,127
33440,note_on,0,0,0,,0,,,60,127
33440,note_on,0,0,0,,10,,,69,127
33598,note_off,158,0,0,,10,,,69,127
33598,note_off,0,0,0,,0,,,60,127
33600,note_on,2,0,0,,12,,,59,127
33600,note_on,0,0,0,,8,,,68,127
33758,note_off,158,0,0,,8,,,68,127
33758,note_off,0,0,0,,12,,,59,127
33758,note_off,0,0,0,,4,,,40,127
33758,note_off,0,0,0,,4,,,52,127
33760,note_on,2,0,0,,10,,,45,127
33760,note_on,0,0,0,,10,,,69,127
33918,note_off,158,0,0,,10,,,69,127
33920,note_on,2,0,0,,10,,,81,127
34078,note_off,158,0,0,,10,,,45,127
34080,note_on,2,0,0,,10,,,57,127
34080,note_on,0,0,0,,10,,,45,127
34203,note_off,123,0,0,,10,,,81,127
34240,note_on,37,0,0,,5,,,77,127
34398,note_off,158,0,0,,5,,,77,127
34398,note_off,0,0,0,,10,,,45,127
34398,note_off,0,0,0,,10,,,57,127
34400,note_on,2,0,0,,10,,,57,127
34400,note_on,0,0,0,,12,,,47,127
34400,note_on,0,0,0,,1,,,73,127
34558,note_off,158,0,0,,1,,,73,127
34560,note_on,2,0,0,,2,,,74,127
34718,note_off,158,0,0,,2,,,74,127
34718,note_off,0,0,0,,12,,,47,127
34718,note_off,0,0,0,,10,,,57,127
34720,note_on,2,0,0,,0,,,48,127
34720,note_on,0,0,0,,10,,,57,127
34720,note_on,0,0,0,,3,,,75,127
34878,note_off,158,0,0,,3,,,75,127
34880,note_on,2,0,0,,4,,,76,127
35038,note_off,158,0,0,,4,,,76,127
35038,note_off,0,0,0,,10,,,57,127
35038,note_off,0,0,0,,0,,,48,127
35040,note_on,2,0,0,,0,,,48,127
35040,note_on,0,0,0,,10,,,57,127
35040,note_on,0,0,0,,8,,,68,127
35198,note_off,158,0,0,,8,,,68,127
35200,note_on,2,0,0,,10,,,69,127
35358,note_off,158,0,0,,10,,,69,127
35358,note_off,0,0,0,,10,,,57,127
35358,note_off,0,0,0,,0,,,48,127
35360,note_on,2,0,0,,0,,,48,127
35360,note_on,0,0,0,,10,,,57,127
35360,note_on,0,0,0,,12,,,71,127
35518,note_off,158,0,0,,12,,,71,127
35520,note_on,2,0,0,,0,,,72,127
35678,note_off,158,0,0,,0,,,72,127
35678,note_off,0,0,0,,10,,,57,127
35678,note_off,0,0,0,,0,,,48,127
35680,note_on,2,0,0,,2,,,62,127
35680,note_on,0,0,0,,2,,,50,127
35680,note_on,0,0,0,,4,,,76,127
35680,note_on,0,0,0,,2,,,74,127
35785,note_off,105,0,0,,2,,,74,127
35785,note_off,0,0,0,,4,,,76,127
35787,note_on,2,0,0,,0,,,72,127
35892,note_off,105,0,0,,0,,,72,127
35894,note_on,2,0,0,,12,,,71,127
35999,note_off,105,0,0,,12,,,71,127
35999,note_off,0,0,0,,2,,,50,127
35999,note_off,0,0,0,,2,,,62,127
36001,note_on,2,0,0,,0,,,60,127
36001,note_on,0,0,0,,4,,,52,127
36001,note_on,0,0,0,,10,,,69,127
36319,note_off,318,0,0,,4,,,52,127
36319,note_off,0,0,0,,0,,,60,127
36321,note_on,2,0,0,,12,,,59,127
36321,note_on,0,0,0,,4,,,52,127
36401,note_off,80,0,0,,10,,,69,127
36401,note_on,0,0,0,,8,,,68,127
36479,note_off,78,0,0,,8,,,68,127
36481,note_on,2,0,0,,6,,,66,127
36559,note_off,78,0,0,,6,,,66,127
36561,note_on,2,0,0,,8,,,68,127
36639,note_off,78,0,0,,8,,,68,127
36639,note_off,0,0,0,,4,,,52,127
36639,note_off,0,0,0,,12,,,59,127
36641,note_on,2,0,0,,10,,,45,127
36641,note_on,0,0,0,,10,,,69,127
36799,note_off,158,0,0,,10,,,69,127
36801,note_on,2,0,0,,10,,,81,127
36959,note_off,158,0,0,,10,,,45,127
36961,note_on,2,0,0,,10,,,45,127
36961,note_on,0,0,0,,10,,,57,127
37084,note_off,123,0,0,,10,,,81,127
37121,note_on,37,0,0,,5,,,77,127
37279,note_off,158,0,0,,5,,,77,127
37279,note_off,0,0,0,,10,,,57,127
37279,note_off,0,0,0,,10,,,45,127
37281,note_on,2,0,0,,12,,,47,127
37281,note_on,0,0,0,,10,,,57,127
37281,note_on,0,0,0,,1,,,73,127
37439,note_off,158,0,0,,1,,,73,127
37441,note_on,2,0,0,,2,,,74,127
37599,note_off,158,0,0,,2,,,74,127
37599,note_off,0,0,0,,10,,,57,127
37599,note_off,0,0,0,,12,,,47,127
37601,note_on,2,0,0,,0,,,48,127
37601,note_on,0,0,0,,10,,,57,127
37601,note_on,0,0,0,,3,,,75,127
37759,note_off,158,0,0,,3,,,75,127
37761,note_on,2,0,0,,4,,,76,127
37919,note_off,158,0,0,,4,,,76,127
37919,note_off,0,0,0,,10,,,57,127
37919,note_off,0,0,0,,0,,,48,127
37921,note_on,2,0,0,,0,,,48,127
37921,note_on,0,0,0,,10,,,57,127
37921,note_on,0,0,0,,8,,,68,127
38079,note_off,158,0,0,,8,,,68,127
38081,note_on,2,0,0,,10,,,69,127
38239,note_off,158,0,0,,10,,,69,127
38239,note_off,0,0,0,,10,,,57,127
38239,note_off,0,0,0,,0,,,48,127
38241,note_on,2,0,0,,0,,,48,127
38241,note_on,0,0,0,,10,,,57,127
38241,note_on,0,0,0,,12,,,71,127
38399,note_off,158,0,0,,12,,,71,127
38401,note_on,2,0,0,,0,,,72,127
38559,note_off,158,0,0,,0,,,72,127
38559,note_off,0,0,0,,10,,,57,127
38559,note_off,0,0,0,,0,,,48,127
38561,note_on,2,0,0,,2,,,50,127
38561,note_on,0,0,0,,2,,,62,127
38561,note_on,0,0,0,,4,,,76,127
38561,note_on,0,0,0,,2,,,74,127
38666,note_off,105,0,0,,2,,,74,127
38666,note_off,0,0,0,,4,,,76,127
38668,note_on,2,0,0,,0,,,72,127
38773,note_off,105,0,0,,0,,,72,127
38775,note_on,2,0,0,,12,,,71,127
38880,note_off,105,0,0,,12,,,71,127
38880,note_off,0,0,0,,2,,,62,127
38880,note_off,0,0,0,,2,,,50,127
38882,note_on,2,0,0,,4,,,52,127
38882,note_on,0,0,0,,0,,,60,127
38882,note_on,0,0,0,,10,,,69,127
39200,note_off,318,0,0,,10,,,69,127
39200,note_off,0,0,0,,0,,,60,127
39200,note_off,0,0,0,,4,,,52,127
39202,note_on,2,0,0,,4,,,52,127
39202,note_on,0,0,0,,12,,,59,127
39202,note_on,0,0,0,,8,,,68,127
39520,note_off,318,0,0,,8,,,68,127
39520,note_off,0,0,0,,12,,,59,127
39520,note_off,0,0,0,,4,,,52,127
39522,note_on,2,0,0,,10,,,45,127
39522,note_on,0,0,0,,10,,,69,127
40155,note_off,633,0,0,,10,,,69,127
40480,note_off,325,0,0,,10,,,45,127
40482,note_on,2,0,0,,10,,,45,127
40482,note_on,0,0,0,,1,,,73,127
40482,note_on,0,0,0,,4,,,76,127
40640,note_off,158,0,0,,10,,,45,127
40642,note_on,2,0,0,,10,,,57,127
40800,note_off,158,0,0,,10,,,57,127
40800,note_off,0,0,0,,4,,,76,127
40800,note_off,0,0,0,,1,,,73,127
40802,note_on,2,0,0,,10,,,45,127
40802,note_on,0,0,0,,4,,,76,127
40802,note_on,0,0,0,,1,,,73,127
40960,note_off,158,0,0,,10,,,45,127
40962,note_on,2,0,0,,10,,,57,127
41120,note_off,158,0,0,,10,,,57,127
41120,note_off,0,0,0,,1,,,73,127
41120,note_off,0,0,0,,4,,,76,127
41122,note_on,2,0,0,,7,,,43,127
41122,note_on,0,0,0,,1,,,73,127
41122,note_on,0,0,0,,4,,,76,127
41280,note_off,158,0,0,,7,,,43,127
41282,note_on,2,0,0,,4,,,64,127
41282,note_on,0,0,0,,1,,,61,127
41440,note_off,158,0,0,,1,,,61,127
41440,note_off,0,0,0,,4,,,64,127
41440,note_off,0,0,0,,4,,,76,127
41440,note_off,0,0,0,,1,,,73,127
41442,note_on,2,0,0,,6,,,42,127
41442,note_on,0,0,0,,2,,,74,127
41442,note_on,0,0,0,,6,,,78,127
41600,note_off,158,0,0,,6,,,42,127
41602,note_on,2,0,0,,2,,,62,127
41602,note_on,0,0,0,,6,,,66,127
41760,note_off,158,0,0,,6,,,66,127
41760,note_off,0,0,0,,2,,,62,127
41760,note_off,0,0,0,,6,,,78,127
41760,note_off,0,0,0,,2,,,74,127
41762,note_on,2,0,0,,4,,,40,127
41762,note_on,0,0,0,,7,,,79,127
41762,note_on,0,0,0,,4,,,76,127
41920,note_off,158,0,0,,4,,,40,127
41922,note_on,2,0,0,,1,,,61,127
41922,note_on,0,0,0,,4,,,64,127
42080,note_off,158,0,0,,4,,,64,127
42080,note_off,0,0,0,,1,,,61,127
42080,note_off,0,0,0,,4,,,76,127
42080,note_off,0,0,0,,7,,,79,127
42082,note_on,2,0,0,,2,,,38,127
42082,note_on,0,0,0,,6,,,78,127
42082,note_on,0,0,0,,10,,,81,127
42240,note_off,158,0,0,,2,,,38,127
42242,note_on,2,0,0,,6,,,66,127
42242,note_on,0,0,0,,2,,,62,127
42400,note_off,158,0,0,,2,,,62,127
42400,note_off,0,0,0,,6,,,66,127
42400,note_off,0,0,0,,10,,,81,127
42400,note_off,0,0,0,,6,,,78,127
42402,note_on,2,0,0,,7,,,43,127
42402,note_on,0,0,0,,12,,,83,127
42562,note_on,160,0,0,,12,,,71,127
42720,note_off,158,0,0,,12,,,71,127
42720,note_off,0,0,0,,12,,,83,127
42720,note_off,0,0,0,,7,,,43,127
42722,note_on,2,0,0,,10,,,45,127
42722,note_on,0,0,0,,10,,,81,127
42722,note_on,0,0,0,,0,,,72,127
42880,note_off,158,0,0,,0,,,72,127
42880,note_off,0,0,0,,10,,,81,127
42882,note_on,2,0,0,,12,,,71,127
42882,note_on,0,0,0,,7,,,79,127
43040,note_off,158,0,0,,7,,,79,127
43040,note_off,0,0,0,,12,,,71,127
43040,note_off,0,0,0,,10,,,45,127
43042,note_on,2,0,0,,10,,,57,127
43042,note_on,0,0,0,,0,,,48,127
43042,note_on,0,0,0,,6,,,78,127
43042,note_on,0,0,0,,10,,,69,127
43200,note_off,158,0,0,,10,,,69,127
43200,note_off,0,0,0,,6,,,78,127
43202,note_on,2,0,0,,4,,,76,127
43202,note_on,0,0,0,,7,,,67,127
43360,note_off,158,0,0,,7,,,67,127
43360,note_off,0,0,0,,4,,,76,127
43360,note_off,0,0,0,,0,,,48,127
43360,note_off,0,0,0,,10,,,57,127
43362,note_on,2,0,0,,12,,,47,127
43362,note_on,0,0,0,,10,,,57,127
43362,note_on,0,0,0,,6,,,66,127
43362,note_on,0,0,0,,3,,,75,127
43520,note_off,158,0,0,,3,,,75,127
43520,note_off,0,0,0,,6,,,66,127
43522,note_on,2,0,0,,12,,,83,127
43680,note_off,158,0,0,,12,,,83,127
43680,note_off,0,0,0,,10,,,57,127
43680,note_off,0,0,0,,12,,,47,127
43682,note_on,2,0,0,,7,,,55,127
43682,note_on,0,0,0,,12,,,47,127
43682,note_on,0,0,0,,12,,,59,127
43682,note_on,0,0,0,,4,,,64,127
43682,note_on,0,0,0,,7,,,67,127
43840,note_off,158,0,0,,7,,,67,127
43840,note_off,0,0,0,,4,,,64,127
43842,note_on,2,0,0,,12,,,83,127
44000,note_off,158,0,0,,12,,,83,127
44000,note_off,0,0,0,,12,,,59,127
44000,note_off,0,0,0,,12,,,47,127
44000,note_off,0,0,0,,7,,,55,127
44002,note_on,2,0,0,,12,,,47,127
44002,note_on,0,0,0,,6,,,54,127
44002,note_on,0,0,0,,10,,,57,127
44002,note_on,0,0,0,,6,,,66,127
44002,note_on,0,0,0,,3,,,63,127
44160,note_off,158,0,0,,3,,,63,127
44160,note_off,0,0,0,,6,,,66,127
44162,note_on,2,0,0,,12,,,83,127
44320,note_off,158,0,0,,12,,,83,127
44320,note_off,0,0,0,,10,,,57,127
44320,note_off,0,0,0,,6,,,54,127
44320,note_off,0,0,0,,12,,,47,127
44322,note_on,2,0,0,,7,,,55,127
44322,note_on,0,0,0,,12,,,59,127
44322,note_on,0,0,0,,12,,,47,127
44322,note_on,0,0,0,,7,,,67,127
44322,note_on,0,0,0,,4,,,64,127
44480,note_off,158,0,0,,4,,,64,127
44480,note_off,0,0,0,,7,,,67,127
44482,note_on,2,0,0,,12,,,83,127
44640,note_off,158,0,0,,12,,,83,127
44640,note_off,0,0,0,,12,,,47,127
44640,note_off,0,0,0,,12,,,59,127
44640,note_off,0,0,0,,7,,,55,127
44642,note_on,2,0,0,,6,,,54,127
44642,note_on,0,0,0,,10,,,57,127
44642,note_on,0,0,0,,12,,,47,127
44642,note_on,0,0,0,,3,,,63,127
44642,note_on,0,0,0,,6,,,66,127
44800,note_off,158,0,0,,6,,,66,127
44800,note_off,0,0,0,,3,,,63,127
44802,note_on,2,0,0,,12,,,83,127
44960,note_off,158,0,0,,12,,,83,127
44960,note_off,0,0,0,,12,,,47,127
44960,note_off,0,0,0,,10,,,57,127
44960,note_off,0,0,0,,6,,,54,127
44962,note_on,2,0,0,,12,,,47,127
44962,note_on,0,0,0,,7,,,55,127
44962,note_on,0,0,0,,4,,,52,127
44962,note_on,0,0,0,,4,,,64,127
44962,note_on,0,0,0,,7,,,67,127
45120,note_off,158,0,0,,7,,,67,127
45120,note_off,0,0,0,,4,,,64,127
45122,note_on,2,0,0,,12,,,83,127
45280,note_off,158,0,0,,12,,,83,127
45280,note_off,0,0,0,,4,,,52,127
45280,note_off,0,0,0,,7,,,55,127
45280,note_off,0,0,0,,12,,,47,127
45282,note_on,2,0,0,,12,,,47,127
45282,note_on,0,0,0,,12,,,59,127
45282,note_on,0,0,0,,3,,,63,127
45282,note_on,0,0,0,,6,,,66,127
45440,note_off,158,0,0,,6,,,66,127
45440,note_off,0,0,0,,3,,,63,127
45442,note_on,2,0,0,,12,,,83,127
45442,note_on,0,0,0,,12,,,71,127
45600,note_off,158,0,0,,12,,,71,127
45600,note_off,0,0,0,,12,,,83,127
45600,note_off,0,0,0,,12,,,59,127
45600,note_off,0,0,0,,12,,,47,127
45602,note_on,2,0,0,,12,,,59,127
45602,note_on,0,0,0,,12,,,47,127
45602,note_on,0,0,0,,0,,,72,127
45602,note_on,0,0,0,,10,,,81,127
45760,note_off,158,0,0,,10,,,81,127
45760,note_off,0,0,0,,0,,,72,127
45762,note_on,2,0,0,,3,,,75,127
45762,note_on,0,0,0,,10,,,69,127
45920,note_off,158,0,0,,10,,,69,127
45920,note_off,0,0,0,,3,,,75,127
45920,note_off,0,0,0,,12,,,47,127
45920,note_off,0,0,0,,12,,,59,127
45922,note_on,2,0,0,,12,,,47,127
45922,note_on,0,0,0,,12,,,59,127
45922,note_on,0,0,0,,4,,,76,127
45922,note_on,0,0,0,,7,,,67,127
46080,note_off,158,0,0,,7,,,67,127
46080,note_off,0,0,0,,4,,,76,127
46082,note_on,2,0,0,,6,,,66,127
46082,note_on,0,0,0,,6,,,78,127
46240,note_off,158,0,0,,6,,,78,127
46240,note_off,0,0,0,,6,,,66,127
46240,note_off,0,0,0,,12,,,59,127
46240,note_off,0,0,0,,12,,,47,127
46242,note_on,2,0,0,,4,,,64,127
46242,note_on,0,0,0,,4,,,52,127
46242,note_on,0,0,0,,7,,,79,127
46242,note_on,0,0,0,,7,,,67,127
46400,note_off,158,0,0,,7,,,67,127
46400,note_off,0,0,0,,4,,,64,127
46402,note_on,2,0,0,,2,,,62,127
46402,note_on,0,0,0,,6,,,78,127
46560,note_off,158,0,0,,6,,,78,127
46560,note_off,0,0,0,,2,,,62,127
46560,note_off,0,0,0,,4,,,52,127
46562,note_on,2,0,0,,1,,,61,127
46562,note_on,0,0,0,,4,,,52,127
46562,note_on,0,0,0,,4,,,76,127
46720,note_off,158,0,0,,4,,,76,127
46720,note_off,0,0,0,,1,,,61,127
46722,note_on,2,0,0,,2,,,62,127
46722,note_on,0,0,0,,2,,,74,127
46880,note_off,158,0,0,,2,,,74,127
46880,note_off,0,0,0,,2,,,62,127
46880,note_off,0,0,0,,4,,,52,127
46882,note_on,2,0,0,,4,,,64,127
46882,note_on,0,0,0,,4,,,52,127
46882,note_on,0,0,0,,1,,,73,127
47040,note_off,158,0,0,,1,,,73,127
47040,note_off,0,0,0,,4,,,64,127
47042,note_on,2,0,0,,2,,,62,127
47042,note_on,0,0,0,,12,,,71,127
47200,note_off,158,0,0,,12,,,71,127
47200,note_off,0,0,0,,2,,,62,127
47200,note_off,0,0,0,,4,,,52,127
47200,note_off,0,0,0,,7,,,79,127
47202,note_on,2,0,0,,6,,,54,127
47202,note_on,0,0,0,,4,,,64,127
47202,note_on,0,0,0,,11,,,70,127
47202,note_on,0,0,0,,7,,,79,127
47360,note_off,158,0,0,,7,,,79,127
47360,note_off,0,0,0,,11,,,70,127
47362,note_on,2,0,0,,6,,,78,127
47362,note_on,0,0,0,,12,,,71,127
47520,note_off,158,0,0,,12,,,71,127
47520,note_off,0,0,0,,6,,,78,127
47520,note_off,0,0,0,,4,,,64,127
47520,note_off,0,0,0,,6,,,54,127
47522,note_on,2,0,0,,6,,,54,127
47522,note_on,0,0,0,,4,,,64,127
47522,note_on,0,0,0,,4,,,76,127
47522,note_on,0,0,0,,1,,,73,127
47680,note_off,158,0,0,,1,,,73,127
47680,note_off,0,0,0,,4,,,76,127
47682,note_on,2,0,0,,11,,,70,127
47682,note_on,0,0,0,,1,,,73,127
47840,note_off,158,0,0,,1,,,73,127
47840,note_off,0,0,0,,11,,,70,127
47840,note_off,0,0,0,,4,,,64,127
47840,note_off,0,0,0,,6,,,54,127
47842,note_on,2,0,0,,6,,,54,127
47842,note_on,0,0,0,,4,,,64,127
47842,note_on,0,0,0,,2,,,74,127
47842,note_on,0,0,0,,12,,,71,127
48000,note_off,158,0,0,,12,,,71,127
48000,note_off,0,0,0,,2,,,74,127
48002,note_on,2,0,0,,4,,,76,127
48002,note_on,0,0,0,,7,,,67,127
48160,note_off,158,0,0,,7,,,67,127
48160,note_off,0,0,0,,4,,,76,127
48160,note_off,0,0,0,,4,,,64,127
48160,note_off,0,0,0,,6,,,54,127
48162,note_on,2,0,0,,6,,,54,127
48162,note_on,0,0,0,,4,,,64,127
48162,note_on,0,0,0,,6,,,66,127
48162,note_on,0,0,0,,11,,,70,127
48320,note_off,158,0,0,,11,,,70,127
48320,note_off,0,0,0,,4,,,64,127
48322,note_on,2,0,0,,2,,,62,127
48322,note_on,0,0,0,,12,,,71,127
48480,note_off,158,0,0,,12,,,71,127
48480,note_off,0,0,0,,2,,,62,127
48480,note_off,0,0,0,,6,,,66,127
48480,note_off,0,0,0,,6,,,54,127
48482,note_on,2,0,0,,6,,,54,127
48482,note_on,0,0,0,,1,,,61,127
48482,note_on,0,0,0,,1,,,73,127
48560,note_off,78,0,0,,1,,,73,127
48562,note_on,2,0,0,,2,,,74,127
48640,note_off,78,0,0,,2,,,74,127
48640,note_off,0,0,0,,1,,,61,127
48642,note_on,2,0,0,,12,,,59,127
48642,note_on,0,0,0,,4,,,76,127
48720,note_off,78,0,0,,4,,,76,127
48722,note_on,2,0,0,,6,,,78,127
48800,note_off,78,0,0,,6,,,78,127
48800,note_off,0,0,0,,12,,,59,127
48800,note_off,0,0,0,,6,,,54,127
48802,note_on,2,0,0,,6,,,54,127
48802,note_on,0,0,0,,11,,,58,127
48802,note_on,0,0,0,,6,,,66,127
49120,note_off,318,0,0,,6,,,66,127
49120,note_off,0,0,0,,11,,,58,127
49120,note_off,0,0,0,,6,,,54,127
49122,note_on,2,0,0,,6,,,54,127
49122,note_on,0,0,0,,4,,,64,127
49122,note_on,0,0,0,,11,,,70,127
49122,note_on,0,0,0,,7,,,79,127
49280,note_off,158,0,0,,7,,,79,127
49280,note_off,0,0,0,,11,,,70,127
49282,note_on,2,0,0,,12,,,71,127
49282,note_on,0,0,0,,6,,,78,127
49440,note_off,158,0,0,,6,,,78,127
49440,note_off,0,0,0,,12,,,71,127
49440,note_off,0,0,0,,4,,,64,127
49440,note_off,0,0,0,,6,,,54,127
49442,note_on,2,0,0,,6,,,54,127
49442,note_on,0,0,0,,4,,,64,127
49442,note_on,0,0,0,,4,,,76,127
49442,note_on,0,0,0,,1,,,73,127
49600,note_off,158,0,0,,1,,,73,127
49600,note_off,0,0,0,,4,,,76,127
49602,note_on,2,0,0,,1,,,73,127
49602,note_on,0,0,0,,11,,,70,127
49760,note_off,158,0,0,,11,,,70,127
49760,note_off,0,0,0,,1,,,73,127
49760,note_off,0,0,0,,4,,,64,127
49760,note_off,0,0,0,,6,,,54,127
49762,note_on,2,0,0,,4,,,64,127
49762,note_on,0,0,0,,6,,,54,127
49762,note_on,0,0,0,,2,,,74,127
49762,note_on,0,0,0,,12,,,71,127
49920,note_off,158,0,0,,12,,,71,127
49920,note_off,0,0,0,,2,,,74,127
49922,note_on,2,0,0,,7,,,67,127
49922,note_on,0,0,0,,4,,,76,127
50080,note_off,158,0,0,,4,,,76,127
50080,note_off,0,0,0,,7,,,67,127
50080,note_off,0,0,0,,6,,,54,127
50080,note_off,0,0,0,,4,,,64,127
50082,note_on,2,0,0,,6,,,54,127
50082,note_on,0,0,0,,4,,,64,127
50082,note_on,0,0,0,,11,,,70,127
50082,note_on,0,0,0,,6,,,66,127
50240,note_off,158,0,0,,11,,,70,127
50240,note_off,0,0,0,,4,,,64,127
50242,note_on,2,0,0,,2,,,62,127
50242,note_on,0,0,0,,12,,,71,127
50400,note_off,158,0,0,,12,,,71,127
50400,note_off,0,0,0,,2,,,62,127
50400,note_off,0,0,0,,6,,,66,127
50400,note_off,0,0,0,,6,,,54,127
50402,note_on,2,0,0,,1,,,61,127
50402,note_on,0,0,0,,6,,,54,127
50402,note_on,0,0,0,,1,,,73,127
50480,note_off,78,0,0,,1,,,73,127
50482,note_on,2,0,0,,2,,,74,127
50560,note_off,78,0,0,,2,,,74,127
50560,note_off,0,0,0,,1,,,61,127
50562,note_on,2,0,0,,12,,,59,127
50562,note_on,0,0,0,,4,,,76,127
50640,note_off,78,0,0,,4,,,76,127
50642,note_on,2,0,0,,6,,,78,127
50720,note_off,78,0,0,,6,,,78,127
50720,note_off,0,0,0,,12,,,59,127
50720,note_off,0,0,0,,6,,,54,127
50722,note_on,2,0,0,,11,,,58,127
50722,note_on,0,0,0,,6,,,54,127
50722,note_on,0,0,0,,6,,,66,127
51040,note_off,318,0,0,,6,,,66,127
51040,note_off,0,0,0,,6,,,54,127
51040,note_off,0,0,0,,11,,,58,127
51042,note_on,2,0,0,,7,,,55,127
51042,note_on,0,0,0,,4,,,64,127
51042,note_on,0,0,0,,7,,,79,127
51200,note_off,158,0,0,,7,,,79,127
51200,note_off,0,0,0,,4,,,64,127
51200,note_off,0,0,0,,7,,,55,127
51202,note_on,2,0,0,,1,,,61,127
51202,note_on,0,0,0,,10,,,57,127
51202,note_on,0,0,0,,4,,,76,127
51360,note_off,158,0,0,,4,,,76,127
51360,note_off,0,0,0,,10,,,57,127
51360,note_off,0,0,0,,1,,,61,127
51362,note_on,2,0,0,,6,,,54,127
51362,note_on,0,0,0,,2,,,62,127
51362,note_on,0,0,0,,6,,,78,127
51520,note_off,158,0,0,,6,,,78,127
51520,note_off,0,0,0,,2,,,62,127
51520,note_off,0,0,0,,6,,,54,127
51522,note_on,2,0,0,,7,,,55,127
51522,note_on,0,0,0,,12,,,59,127
51522,note_on,0,0,0,,2,,,74,127
51680,note_off,158,0,0,,2,,,74,127
51680,note_off,0,0,0,,12,,,59,127
51680,note_off,0,0,0,,7,,,55,127
51682,note_on,2,0,0,,1,,,61,127
51682,note_on,0,0,0,,4,,,52,127
51682,note_on,0,0,0,,4,,,76,127
51840,note_off,158,0,0,,4,,,76,127
51840,note_off,0,0,0,,4,,,52,127
51840,note_off,0,0,0,,1,,,61,127
51842,note_on,2,0,0,,11,,,58,127
51842,note_on,0,0,0,,6,,,54,127
51842,note_on,0,0,0,,1,,,73,127
52000,note_off,158,0,0,,1,,,73,127
52000,note_off,0,0,0,,6,,,54,127
52000,note_off,0,0,0,,11,,,58,127
52002,note_on,2,0,0,,2,,,50,127
52002,note_on,0,0,0,,12,,,59,127
52002,note_on,0,0,0,,6,,,78,127
52160,note_off,158,0,0,,6,,,78,127
52162,note_on,2,0,0,,4,,,76,127
52320,note_off,158,0,0,,4,,,76,127
52320,note_off,0,0,0,,12,,,59,127
52320,note_off,0,0,0,,2,,,50,127
52322,note_on,2,0,0,,12,,,59,127
52322,note_on,0,0,0,,2,,,50,127
52322,note_on,0,0,0,,12,,,83,127
52322,note_on,0,0,0,,2,,,74,127
52480,note_off,158,0,0,,2,,,74,127
52480,note_off,0,0,0,,12,,,83,127
52482,note_on,2,0,0,,10,,,81,127
52482,note_on,0,0,0,,1,,,73,127
52640,note_off,158,0,0,,1,,,73,127
52640,note_off,0,0,0,,10,,,81,127
52640,note_off,0,0,0,,2,,,50,127
52640,note_off,0,0,0,,12,,,59,127
52642,note_on,2,0,0,,12,,,59,127
52642,note_on,0,0,0,,2,,,50,127
52642,note_on,0,0,0,,8,,,80,127
52642,note_on,0,0,0,,12,,,71,127
52800,note_off,158,0,0,,12,,,71,127
52800,note_off,0,0,0,,8,,,80,127
52802,note_on,2,0,0,,10,,,69,127
52802,note_on,0,0,0,,6,,,78,127
52960,note_off,158,0,0,,6,,,78,127
52960,note_off,0,0,0,,10,,,69,127
52960,note_off,0,0,0,,2,,,50,127
52960,note_off,0,0,0,,12,,,59,127
52962,note_on,2,0,0,,1,,,49,127
52962,note_on,0,0,0,,12,,,59,127
52962,note_on,0,0,0,,5,,,77,127
53120,note_off,158,0,0,,5,,,77,127
53120,note_off,0,0,0,,12,,,59,127
53122,note_on,2,0,0,,10,,,57,127
53122,note_on,0,0,0,,6,,,78,127
53280,note_off,158,0,0,,6,,,78,127
53280,note_off,0,0,0,,10,,,57,127
53280,note_off,0,0,0,,1,,,49,127
53282,note_on,2,0,0,,8,,,56,127
53282,note_on,0,0,0,,1,,,49,127
53282,note_on,0,0,0,,8,,,80,127
53360,note_off,78,0,0,,8,,,80,127
53362,note_on,2,0,0,,10,,,81,127
53440,note_off,78,0,0,,10,,,81,127
53440,note_off,0,0,0,,8,,,56,127
53442,note_on,2,0,0,,6,,,54,127
53442,note_on,0,0,0,,12,,,83,127
53520,note_off,78,0,0,,12,,,83,127
53522,note_on,2,0,0,,1,,,85,127
53600,note_off,78,0,0,,1,,,85,127
53600,note_off,0,0,0,,6,,,54,127
53600,note_off,0,0,0,,1,,,49,127
53602,note_on,2,0,0,,8,,,56,127
53602,note_on,0,0,0,,1,,,49,127
53602,note_on,0,0,0,,5,,,53,127
53602,note_on,0,0,0,,1,,,73,127
53920,note_off,318,0,0,,1,,,73,127
53920,note_off,0,0,0,,5,,,53,127
53920,note_off,0,0,0,,1,,,49,127
53920,note_off,0,0,0,,8,,,56,127
53922,note_on,2,0,0,,1,,,49,127
53922,note_on,0,0,0,,1,,,61,127
53922,note_on,0,0,0,,1,,,73,127
54080,note_off,158,0,0,,1,,,73,127
54082,note_on,2,0,0,,3,,,75,127
54240,note_off,158,0,0,,3,,,75,127
54240,note_off,0,0,0,,1,,,61,127
54240,note_off,0,0,0,,1,,,49,127
54242,note_on,2,0,0,,1,,,49,127
54242,note_on,0,0,0,,1,,,61,127
54242,note_on,0,0,0,,6,,,78,127
54242,note_on,0,0,0,,4,,,76,127
54320,note_off,78,0,0,,4,,,76,127
54320,note_off,0,0,0,,6,,,78,127
54322,note_on,2,0,0,,3,,,75,127
54400,note_off,78,0,0,,3,,,75,127
54402,note_on,2,0,0,,4,,,76,127
54480,note_off,78,0,0,,4,,,76,127
54482,note_on,2,0,0,,6,,,78,127
54560,note_off,78,0,0,,6,,,78,127
54560,note_off,0,0,0,,1,,,61,127
54560,note_off,0,0,0,,1,,,49,127
54562,note_on,2,0,0,,1,,,49,127
54562,note_on,0,0,0,,1,,,61,127
54562,note_on,0,0,0,,8,,,80,127
54562,note_on,0,0,0,,10,,,81,127
54640,note_off,78,0,0,,10,,,81,127
54640,note_off,0,0,0,,8,,,80,127
54642,note_on,2,0,0,,6,,,78,127
54720,note_off,78,0,0,,6,,,78,127
54722,note_on,2,0,0,,8,,,80,127
54800,note_off,78,0,0,,8,,,80,127
54802,note_on,2,0,0,,10,,,81,127
54880,note_off,78,0,0,,10,,,81,127
54880,note_off,0,0,0,,1,,,61,127
54880,note_off,0,0,0,,1,,,49,127
54882,note_on,2,0,0,,12,,,59,127
54882,note_on,0,0,0,,1,,,49,127
54882,note_on,0,0,0,,12,,,83,127
54882,note_on,0,0,0,,12,,,71,127
55040,note_off,158,0,0,,12,,,71,127
55042,note_on,2,0,0,,1,,,73,127
55200,note_off,158,0,0,,1,,,73,127
55200,note_off,0,0,0,,12,,,83,127
55200,note_off,0,0,0,,1,,,49,127
55200,note_off,0,0,0,,12,,,59,127
55202,note_on,2,0,0,,12,,,59,127
55202,note_on,0,0,0,,1,,,49,127
55202,note_on,0,0,0,,2,,,74,127
55202,note_on,0,0,0,,4,,,76,127
55280,note_off,78,0,0,,4,,,76,127
55280,note_off,0,0,0,,2,,,74,127
55282,note_on,2,0,0,,1,,,73,127
55360,note_off,78,0,0,,1,,,73,127
55362,note_on,2,0,0,,2,,,74,127
55440,note_off,78,0,0,,2,,,74,127
55442,note_on,2,0,0,,4,,,76,127
55520,note_off,78,0,0,,4,,,76,127
55520,note_off,0,0,0,,1,,,49,127
55520,note_off,0,0,0,,12,,,59,127
55522,note_on,2,0,0,,1,,,49,127
55522,note_on,0,0,0,,12,,,59,127
55522,note_on,0,0,0,,8,,,80,127
55522,note_on,0,0,0,,6,,,78,127
55600,note_off,78,0,0,,6,,,78,127
55600,note_off,0,0,0,,8,,,80,127
55602,note_on,2,0,0,,4,,,76,127
55680,note_off,78,0,0,,4,,,76,127
55682,note_on,2,0,0,,6,,,78,127
55760,note_off,78,0,0,,6,,,78,127
55762,note_on,2,0,0,,8,,,80,127
55840,note_off,78,0,0,,8,,,80,127
55840,note_off,0,0,0,,12,,,59,127
55840,note_off,0,0,0,,1,,,49,127
55842,note_on,2,0,0,,1,,,49,127
55842,note_on,0,0,0,,10,,,57,127
55842,note_on,0,0,0,,10,,,81,127
55842,note_on,0,0,0,,10,,,69,127
56000,note_off,158,0,0,,10,,,69,127
56002,note_on,2,0,0,,12,,,71,127
56160,note_off,158,0,0,,12,,,71,127
56160,note_off,0,0,0,,10,,,81,127
56160,note_off,0,0,0,,10,,,57,127
56160,note_off,0,0,0,,1,,,49,127
56162,note_on,2,0,0,,10,,,57,127
56162,note_on,0,0,0,,1,,,49,127
56162,note_on,0,0,0,,1,,,73,127
56162,note_on,0,0,0,,2,,,74,127
56240,note_off,78,0,0,,2,,,74,127
56240,note_off,0,0,0,,1,,,73,127
56242,note_on,2,0,0,,12,,,71,127
56320,note_off,78,0,0,,12,,,71,127
56322,note_on,2,0,0,,1,,,73,127
56400,note_off,78,0,0,,1,,,73,127
56402,note_on,2,0,0,,2,,,74,127
56480,note_off,78,0,0,,2,,,74,127
56480,note_off,0,0,0,,1,,,49,127
56480,note_off,0,0,0,,10,,,57,127
56482,note_on,2,0,0,,1,,,49,127
56482,note_on,0,0,0,,10,,,57,127
56482,note_on,0,0,0,,4,,,76,127
56482,note_on,0,0,0,,6,,,78,127
56560,note_off,78,0,0,,6,,,78,127
56560,note_off,0,0,0,,4,,,76,127
56562,note_on,2,0,0,,2,,,74,127
56640,note_off,78,0,0,,2,,,74,127
56642,note_on,2,0,0,,4,,,76,127
56720,note_off,78,0,0,,4,,,76,127
56722,note_on,2,0,0,,6,,,78,127
56800,note_off,78,0,0,,6,,,78,127
56800,note_off,0,0,0,,10,,,57,127
56800,note_off,0,0,0,,1,,,49,127
56802,note_on,2,0,0,,12,,,59,127
56802,note_on,0,0,0,,12,,,47,127
56802,note_on,0,0,0,,8,,,80,127
56802,note_on,0,0,0,,12,,,71,127
56960,note_off,158,0,0,,12,,,71,127
56960,note_off,0,0,0,,8,,,80,127
56962,note_on,2,0,0,,1,,,73,127
56962,note_on,0,0,0,,10,,,81,127
57120,note_off,158,0,0,,10,,,81,127
57120,note_off,0,0,0,,1,,,73,127
57120,note_off,0,0,0,,12,,,47,127
57120,note_off,0,0,0,,12,,,59,127
57122,note_on,2,0,0,,4,,,52,127
57122,note_on,0,0,0,,2,,,74,127
57122,note_on,0,0,0,,12,,,83,127
57280,note_off,158,0,0,,12,,,83,127
57280,note_off,0,0,0,,2,,,74,127
57282,note_on,2,0,0,,10,,,81,127
57282,note_on,0,0,0,,1,,,73,127
57440,note_off,158,0,0,,4,,,52,127
57442,note_on,2,0,0,,4,,,40,127
57600,note_off,158,0,0,,1,,,73,127
57600,note_off,0,0,0,,10,,,81,127
57602,note_on,2,0,0,,8,,,80,127
57602,note_on,0,0,0,,12,,,71,127
57760,note_off,158,0,0,,12,,,71,127
57760,note_off,0,0,0,,8,,,80,127
57760,note_off,0,0,0,,4,,,40,127
57762,note_on,2,0,0,,10,,,45,127
57762,note_on,0,0,0,,1,,,73,127
57762,note_on,0,0,0,,10,,,81,127
57920,note_off,158,0,0,,10,,,45,127
57922,note_on,2,0,0,,1,,,61,127
57922,note_on,0,0,0,,4,,,64,127
58080,note_off,158,0,0,,4,,,64,127
58080,note_off,0,0,0,,1,,,61,127
58080,note_off,0,0,0,,10,,,81,127
58080,note_off,0,0,0,,1,,,73,127
58082,note_on,2,0,0,,8,,,44,127
58082,note_on,0,0,0,,4,,,76,127
58082,note_on,0,0,0,,1,,,73,127
58240,note_off,158,0,0,,8,,,44,127
58242,note_on,2,0,0,,1,,,61,127
58242,note_on,0,0,0,,4,,,64,127
58400,note_off,158,0,0,,4,,,64,127
58400,note_off,0,0,0,,1,,,61,127
58400,note_off,0,0,0,,1,,,73,127
58400,note_off,0,0,0,,4,,,76,127
58402,note_on,2,0,0,,7,,,43,127
58402,note_on,0,0,0,,4,,,76,127
58402,note_on,0,0,0,,1,,,73,127
58560,note_off,158,0,0,,7,,,43,127
58562,note_on,2,0,0,,4,,,64,127
58562,note_on,0,0,0,,1,,,61,127
58720,note_off,158,0,0,,1,,,61,127
58720,note_off,0,0,0,,4,,,64,127
58720,note_off,0,0,0,,1,,,73,127
58720,note_off,0,0,0,,4,,,76,127
58722,note_on,2,0,0,,6,,,42,127
58722,note_on,0,0,0,,6,,,78,127
58722,note_on,0,0,0,,2,,,74,127
58880,note_off,158,0,0,,6,,,42,127
58882,note_on,2,0,0,,6,,,66,127
58882,note_on,0,0,0,,2,,,62,127
59040,note_off,158,0,0,,2,,,62,127
59040,note_off,0,0,0,,6,,,66,127
59040,note_off,0,0,0,,2,,,74,127
59040,note_off,0,0,0,,6,,,78,127
59042,note_on,2,0,0,,4,,,40,127
59042,note_on,0,0,0,,7,,,79,127
59042,note_on,0,0,0,,4,,,76,127
59200,note_off,158,0,0,,4,,,40,127
59202,note_on,2,0,0,,4,,,64,127
59202,note_on,0,0,0,,1,,,61,127
59360,note_off,158,0,0,,1,,,61,127
59360,note_off,0,0,0,,4,,,64,127
59360,note_off,0,0,0,,4,,,76,127
59360,note_off,0,0,0,,7,,,79,127
59362,note_on,2,0,0,,2,,,38,127
59362,note_on,0,0,0,,6,,,78,127
59362,note_on,0,0,0,,2,,,74,127
59520,note_off,158,0,0,,2,,,38,127
59522,note_on,2,0,0,,6,,,66,127
59522,note_on,0,0,0,,2,,,62,127
59680,note_off,158,0,0,,2,,,62,127
59680,note_off,0,0,0,,6,,,66,127
59680,note_off,0,0,0,,2,,,74,127
59680,note_off,0,0,0,,6,,,78,127
59682,note_on,2,0,0,,10,,,45,127
59682,note_on,0,0,0,,4,,,76,127
59682,note_on,0,0,0,,1,,,73,127
59840,note_off,158,0,0,,10,,,45,127
59842,note_on,2,0,0,,4,,,64,127
59842,note_on,0,0,0,,1,,,61,127
60000,note_off,158,0,0,,1,,,61,127
60000,note_off,0,0,0,,4,,,64,127
60000,note_off,0,0,0,,1,,,73,127
60000,note_off,0,0,0,,4,,,76,127
60002,note_on,2,0,0,,2,,,38,127
60002,note_on,0,0,0,,6,,,78,127
60002,note_on,0,0,0,,2,,,74,127
60160,note_off,158,0,0,,2,,,38,127
60162,note_on,2,0,0,,6,,,66,127
60162,note_on,0,0,0,,2,,,62,127
60320,note_off,158,0,0,,2,,,62,127
60320,note_off,0,0,0,,6,,,66,127
60320,note_off,0,0,0,,2,,,74,127
60320,note_off,0,0,0,,6,,,78,127
60322,note_on,2,0,0,,10,,,45,127
60322,note_on,0,0,0,,7,,,79,127
60322,note_on,0,0,0,,4,,,76,127
60480,note_off,158,0,0,,10,,,45,127
60482,note_on,2,0,0,,4,,,64,127
60482,note_on,0,0,0,,1,,,61,127
60640,note_off,158,0,0,,1,,,61,127
60640,note_off,0,0,0,,4,,,64,127
60640,note_off,0,0,0,,4,,,76,127
60640,note_off,0,0,0,,7,,,79,127
60642,note_on,2,0,0,,2,,,38,127
60642,note_on,0,0,0,,6,,,78,127
60642,note_on,0,0,0,,2,,,74,127
60800,note_off,158,0,0,,2,,,38,127
60802,note_on,2,0,0,,2,,,62,127
60802,note_on,0,0,0,,6,,,66,127
60960,note_off,158,0,0,,6,,,66,127
60960,note_off,0,0,0,,2,,,62,127
60960,note_off,0,0,0,,2,,,74,127
60960,note_off,0,0,0,,6,,,78,127
60962,note_on,2,0,0,,10,,,45,127
60962,note_on,0,0,0,,1,,,73,127
60962,note_on,0,0,0,,4,,,76,127
61120,note_off,158,0,0,,10,,,45,127
61122,note_on,2,0,0,,4,,,64,127
61122,note_on,0,0,0,,1,,,61,127
61280,note_off,158,0,0,,1,,,61,127
61280,note_off,0,0,0,,4,,,64,127
61280,note_off,0,0,0,,4,,,76,127
61280,note_off,0,0,0,,1,,,73,127
61282,note_on,2,0,0,,2,,,38,127
61282,note_on,0,0,0,,6,,,78,127
61282,note_on,0,0,0,,2,,,74,127
61440,note_off,158,0,0,,2,,,38,127
61442,note_on,2,0,0,,2,,,62,127
61442,note_on,0,0,0,,6,,,66,127
61600,note_off,158,0,0,,6,,,66,127
61600,note_off,0,0,0,,2,,,62,127
61600,note_off,0,0,0,,2,,,74,127
61600,note_off,0,0,0,,6,,,78,127
61602,note_on,2,0,0,,7,,,55,127
61602,note_on,0,0,0,,7,,,43,127
61602,note_on,0,0,0,,12,,,71,127
61760,note_off,158,0,0,,12,,,71,127
61762,note_on,2,0,0,,12,,,83,127
61762,note_on,0,0,0,,7,,,79,127
61920,note_off,158,0,0,,7,,,79,127
61920,note_off,0,0,0,,12,,,83,127
61920,note_off,0,0,0,,7,,,43,127
61920,note_off,0,0,0,,7,,,55,127
61922,note_on,2,0,0,,10,,,57,127
61922,note_on,0,0,0,,10,,,45,127
61922,note_on,0,0,0,,10,,,69,127
62080,note_off,158,0,0,,10,,,69,127
62082,note_on,2,0,0,,10,,,81,127
62082,note_on,0,0,0,,6,,,78,127
62240,note_off,158,0,0,,6,,,78,127
62240,note_off,0,0,0,,10,,,81,127
62240,note_off,0,0,0,,10,,,45,127
62240,note_off,0,0,0,,10,,,57,127
62242,note_on,2,0,0,,1,,,49,127
62242,note_on,0,0,0,,10,,,57,127
62242,note_on,0,0,0,,7,,,67,127
62400,note_off,158,0,0,,7,,,67,127
62402,note_on,2,0,0,,4,,,76,127
62402,note_on,0,0,0,,7,,,79,127
62560,note_off,158,0,0,,7,,,79,127
62560,note_off,0,0,0,,4,,,76,127
62560,note_off,0,0,0,,10,,,57,127
62560,note_off,0,0,0,,1,,,49,127
62562,note_on,2,0,0,,2,,,50,127
62562,note_on,0,0,0,,10,,,57,127
62562,note_on,0,0,0,,6,,,66,127
62720,note_off,158,0,0,,6,,,66,127
62722,note_on,2,0,0,,6,,,78,127
62722,note_on,0,0,0,,2,,,74,127
62880,note_off,158,0,0,,2,,,74,127
62880,note_off,0,0,0,,6,,,78,127
62880,note_off,0,0,0,,10,,,57,127
62880,note_off,0,0,0,,2,,,50,127
62882,note_on,2,0,0,,4,,,52,127
62882,note_on,0,0,0,,7,,,55,127
62882,note_on,0,0,0,,4,,,64,127
63040,note_off,158,0,0,,4,,,64,127
63042,note_on,2,0,0,,4,,,76,127
63042,note_on,0,0,0,,1,,,73,127
63200,note_off,158,0,0,,1,,,73,127
63200,note_off,0,0,0,,4,,,76,127
63200,note_off,0,0,0,,7,,,55,127
63200,note_off,0,0,0,,4,,,52,127
63202,note_on,2,0,0,,10,,,57,127
63202,note_on,0,0,0,,6,,,54,127
63202,note_on,0,0,0,,2,,,62,127
63360,note_off,158,0,0,,2,,,62,127
63362,note_on,2,0,0,,6,,,78,127
63362,note_on,0,0,0,,10,,,81,127
63520,note_off,158,0,0,,10,,,81,127
63520,note_off,0,0,0,,6,,,78,127
63520,note_off,0,0,0,,6,,,54,127
63520,note_off,0,0,0,,10,,,57,127
63522,note_on,2,0,0,,7,,,55,127
63522,note_on,0,0,0,,12,,,71,127
63680,note_off,158,0,0,,12,,,71,127
63682,note_on,2,0,0,,7,,,79,127
63840,note_off,158,0,0,,7,,,79,127
63840,note_off,0,0,0,,7,,,55,127
63842,note_on,2,0,0,,10,,,57,127
63842,note_on,0,0,0,,10,,,69,127
63842,note_on,0,0,0,,6,,,78,127
64000,note_off,158,0,0,,6,,,78,127
64000,note_off,0,0,0,,10,,,69,127
64002,note_on,2,0,0,,4,,,76,127
64002,note_on,0,0,0,,7,,,67,127
64160,note_off,158,0,0,,7,,,67,127
64160,note_off,0,0,0,,4,,,76,127
64162,note_on,2,0,0,,10,,,45,127
64162,note_on,0,0,0,,6,,,66,127
64162,note_on,0,0,0,,2,,,74,127
64320,note_off,158,0,0,,2,,,74,127
64320,note_off,0,0,0,,6,,,66,127
64322,note_on,2,0,0,,1,,,73,127
64322,note_on,0,0,0,,4,,,64,127
64480,note_off,158,0,0,,4,,,64,127
64480,note_off,0,0,0,,1,,,73,127
64480,note_off,0,0,0,,10,,,45,127
64480,note_off,0,0,0,,10,,,57,127
64482,note_on,2,0,0,,2,,,50,127
64482,note_on,0,0,0,,2,,,74,127
64482,note_on,0,0,0,,6,,,66,127
64640,note_off,158,0,0,,6,,,66,127
64640,note_off,0,0,0,,2,,,50,127
64642,note_on,2,0,0,,6,,,66,127
64642,note_on,0,0,0,,2,,,62,127
64800,note_off,158,0,0,,2,,,62,127
64800,note_off,0,0,0,,6,,,66,127
64800,note_off,0,0,0,,2,,,74,127
64802,note_on,2,0,0,,1,,,49,127
64802,note_on,0,0,0,,10,,,81,127
64960,note_off,158,0,0,,1,,,49,127
64962,note_on,2,0,0,,1,,,61,127
64962,note_on,0,0,0,,4,,,64,127
65120,note_off,158,0,0,,4,,,64,127
65120,note_off,0,0,0,,1,,,61,127
65120,note_off,0,0,0,,10,,,81,127
65122,note_on,2,0,0,,12,,,47,127
65122,note_on,0,0,0,,2,,,74,127
65280,note_off,158,0,0,,12,,,47,127
65282,note_on,2,0,0,,2,,,62,127
65282,note_on,0,0,0,,12,,,59,127
65440,note_off,158,0,0,,12,,,59,127
65440,note_off,0,0,0,,2,,,62,127
65440,note_off,0,0,0,,2,,,74,127
65442,note_on,2,0,0,,10,,,45,127
65442,note_on,0,0,0,,4,,,76,127
65442,note_on,0,0,0,,1,,,73,127
65600,note_off,158,0,0,,10,,,45,127
65602,note_on,2,0,0,,1,,,61,127
65602,note_on,0,0,0,,4,,,64,127
65760,note_off,158,0,0,,4,,,64,127
65760,note_off,0,0,0,,1,,,61,127
65760,note_off,0,0,0,,1,,,73,127
65760,note_off,0,0,0,,4,,,76,127
65762,note_on,2,0,0,,7,,,43,127
65762,note_on,0,0,0,,4,,,76,127
65762,note_on,0,0,0,,1,,,73,127
65920,note_off,158,0,0,,7,,,43,127
65922,note_on,2,0,0,,1,,,61,127
65922,note_on,0,0,0,,4,,,64,127
66080,note_off,158,0,0,,4,,,64,127
66080,note_off,0,0,0,,1,,,61,127
66080,note_off,0,0,0,,1,,,73,127
66080,note_off,0,0,0,,4,,,76,127
66082,note_on,2,0,0,,6,,,42,127
66082,note_on,0,0,0,,10,,,81,127
66082,note_on,0,0,0,,6,,,78,127
66240,note_off,158,0,0,,6,,,42,127
66242,note_on,2,0,0,,2,,,62,127
66242,note_on,0,0,0,,6,,,66,127
66400,note_off,158,0,0,,6,,,66,127
66400,note_off,0,0,0,,2,,,62,127
66402,note_on,2,0,0,,7,,,43,127
66482,note_off,80,0,0,,6,,,78,127
66482,note_off,0,0,0,,10,,,81,127
66562,note_on,80,0,0,,12,,,83,127
66562,note_on,0,0,0,,7,,,79,127
66720,note_off,158,0,0,,7,,,79,127
66720,note_off,0,0,0,,12,,,83,127
66720,note_off,0,0,0,,7,,,43,127
66722,note_on,2,0,0,,10,,,45,127
66722,note_on,0,0,0,,10,,,81,127
66722,note_on,0,0,0,,6,,,78,127
66880,note_off,158,0,0,,6,,,78,127
66880,note_off,0,0,0,,10,,,81,127
66882,note_on,2,0,0,,4,,,76,127
66882,note_on,0,0,0,,7,,,79,127
67040,note_off,158,0,0,,7,,,79,127
67040,note_off,0,0,0,,4,,,76,127
67040,note_off,0,0,0,,10,,,45,127
67042,note_on,2,0,0,,10,,,45,127
67042,note_on,0,0,0,,2,,,74,127
67042,note_on,0,0,0,,6,,,78,127
67200,note_off,158,0,0,,6,,,78,127
67200,note_off,0,0,0,,2,,,74,127
67202,note_on,2,0,0,,1,,,73,127
67202,note_on,0,0,0,,4,,,76,127
67360,note_off,158,0,0,,4,,,76,127
67360,note_off,0,0,0,,1,,,73,127
67360,note_off,0,0,0,,10,,,45,127
67362,note_on,2,0,0,,2,,,50,127
67362,note_on,0,0,0,,2,,,74,127
67362,note_on,0,0,0,,6,,,78,127
67520,note_off,158,0,0,,2,,,50,127
67522,note_on,2,0,0,,6,,,66,127
67522,note_on,0,0,0,,2,,,62,127
67680,note_off,158,0,0,,2,,,62,127
67680,note_off,0,0,0,,6,,,66,127
67680,note_off,0,0,0,,6,,,78,127
67680,note_off,0,0,0,,2,,,74,127
67682,note_on,2,0,0,,1,,,49,127
67682,note_on,0,0,0,,10,,,81,127
67840,note_off,158,0,0,,1,,,49,127
67842,note_on,2,0,0,,4,,,64,127
67842,note_on,0,0,0,,1,,,61,127
68000,note_off,158,0,0,,1,,,61,127
68000,note_off,0,0,0,,4,,,64,127
68000,note_off,0,0,0,,10,,,81,127
68002,note_on,2,0,0,,12,,,47,127
68002,note_on,0,0,0,,2,,,74,127
68160,note_off,158,0,0,,12,,,47,127
68162,note_on,2,0,0,,2,,,62,127
68162,note_on,0,0,0,,12,,,59,127
68320,note_off,158,0,0,,12,,,59,127
68320,note_off,0,0,0,,2,,,62,127
68320,note_off,0,0,0,,2,,,74,127
68322,note_on,2,0,0,,10,,,45,127
68322,note_on,0,0,0,,4,,,76,127
68322,note_on,0,0,0,,1,,,73,127
68480,note_off,158,0,0,,10,,,45,127
68482,note_on,2,0,0,,4,,,64,127
68482,note_on,0,0,0,,1,,,61,127
68640,note_off,158,0,0,,1,,,61,127
68640,note_off,0,0,0,,4,,,64,127
68640,note_off,0,0,0,,1,,,73,127
68640,note_off,0,0,0,,4,,,76,127
68642,note_on,2,0,0,,7,,,43,127
68642,note_on,0,0,0,,1,,,73,127
68642,note_on,0,0,0,,4,,,76,127
68800,note_off,158,0,0,,7,,,43,127
68802,note_on,2,0,0,,4,,,64,127
68802,note_on,0,0,0,,1,,,61,127
68960,note_off,158,0,0,,1,,,61,127
68960,note_off,0,0,0,,4,,,64,127
68960,note_off,0,0,0,,4,,,76,127
68960,note_off,0,0,0,,1,,,73,127
68962,note_on,2,0,0,,6,,,42,127
68962,note_on,0,0,0,,6,,,78,127
68962,note_on,0,0,0,,10,,,81,127
69120,note_off,158,0,0,,6,,,42,127
69122,note_on,2,0,0,,6,,,66,127
69122,note_on,0,0,0,,2,,,62,127
69280,note_off,158,0,0,,2,,,62,127
69280,note_off,0,0,0,,6,,,66,127
69282,note_on,2,0,0,,7,,,43,127
69362,note_off,80,0,0,,10,,,81,127
69362,note_off,0,0,0,,6,,,78,127
69442,note_on,80,0,0,,12,,,83,127
69442,note_on,0,0,0,,7,,,79,127
69600,note_off,158,0,0,,7,,,79,127
69600,note_off,0,0,0,,12,,,83,127
69600,note_off,0,0,0,,7,,,43,127
69602,note_on,2,0,0,,10,,,45,127
69602,note_on,0,0,0,,6,,,78,127
69602,note_on,0,0,0,,10,,,81,127
69760,note_off,158,0,0,,10,,,81,127
69760,note_off,0,0,0,,6,,,78,127
69762,note_on,2,0,0,,4,,,76,127
69762,note_on,0,0,0,,7,,,79,127
69920,note_off,158,0,0,,7,,,79,127
69920,note_off,0,0,0,,4,,,76,127
69920,note_off,0,0,0,,10,,,45,127
69922,note_on,2,0,0,,10,,,45,127
69922,note_on,0,0,0,,6,,,78,127
69922,note_on,0,0,0,,2,,,74,127
70080,note_off,158,0,0,,2,,,74,127
70080,note_off,0,0,0,,6,,,78,127
70082,note_on,2,0,0,,4,,,76,127
70082,note_on,0,0,0,,1,,,73,127
70240,note_off,158,0,0,,1,,,73,127
70240,note_off,0,0,0,,4,,,76,127
70240,note_off,0,0,0,,10,,,45,127
70242,note_on,2,0,0,,2,,,38,127
70242,note_on,0,0,0,,2,,,50,127
70402,note_on,160,0,0,,2,,,86,127
70560,note_off,158,0,0,,2,,,50,127
70560,note_off,0,0,0,,2,,,38,127
70562,note_on,2,0,0,,10,,,57,127
70562,note_on,0,0,0,,6,,,54,127
70720,note_off,158,0,0,,2,,,86,127
70722,note_on,2,0,0,,12,,,83,127
70880,note_off,158,0,0,,12,,,83,127
70880,note_off,0,0,0,,6,,,54,127
70880,note_off,0,0,0,,10,,,57,127
70882,note_on,2,0,0,,7,,,55,127
70882,note_on,0,0,0,,4,,,52,127
70882,note_on,0,0,0,,6,,,78,127
71040,note_off,158,0,0,,6,,,78,127
71042,note_on,2,0,0,,7,,,79,127
71200,note_off,158,0,0,,7,,,79,127
71200,note_off,0,0,0,,4,,,52,127
71200,note_off,0,0,0,,7,,,55,127
71202,note_on,2,0,0,,6,,,54,127
71202,note_on,0,0,0,,10,,,57,127
71202,note_on,0,0,0,,8,,,80,127
71360,note_off,158,0,0,,8,,,80,127
71362,note_on,2,0,0,,10,,,81,127
71520,note_off,158,0,0,,10,,,81,127
71520,note_off,0,0,0,,10,,,57,127
71520,note_off,0,0,0,,6,,,54,127
71522,note_on,2,0,0,,6,,,54,127
71522,note_on,0,0,0,,10,,,57,127
71522,note_on,0,0,0,,1,,,73,127
71680,note_off,158,0,0,,1,,,73,127
71682,note_on,2,0,0,,2,,,74,127
71840,note_off,158,0,0,,2,,,74,127
71840,note_off,0,0,0,,10,,,57,127
71840,note_off,0,0,0,,6,,,54,127
71842,note_on,2,0,0,,6,,,54,127
71842,note_on,0,0,0,,10,,,57,127
71842,note_on,0,0,0,,4,,,76,127
72000,note_off,158,0,0,,4,,,76,127
72002,note_on,2,0,0,,6,,,78,127
72160,note_off,158,0,0,,6,,,78,127
72160,note_off,0,0,0,,10,,,57,127
72160,note_off,0,0,0,,6,,,54,127
72162,note_on,2,0,0,,7,,,55,127
72162,note_on,0,0,0,,10,,,81,127
72162,note_on,0,0,0,,7,,,79,127
72267,note_off,105,0,0,,7,,,79,127
72267,note_off,0,0,0,,10,,,81,127
72269,note_on,2,0,0,,6,,,78,127
72322,note_on,53,0,0,,7,,,67,127
72374,note_off,52,0,0,,6,,,78,127
72376,note_on,2,0,0,,4,,,76,127
72481,note_off,105,0,0,,4,,,76,127
72481,note_off,0,0,0,,7,,,67,127
72481,note_off,0,0,0,,7,,,55,127
72483,note_on,2,0,0,,10,,,57,127
72483,note_on,0,0,0,,6,,,66,127
72483,note_on,0,0,0,,2,,,74,127
72641,note_off,158,0,0,,6,,,66,127
72643,note_on,2,0,0,,4,,,64,127
72801,note_off,158,0,0,,4,,,64,127
72801,note_off,0,0,0,,2,,,74,127
72801,note_off,0,0,0,,10,,,57,127
72803,note_on,2,0,0,,10,,,57,127
72803,note_on,0,0,0,,6,,,66,127
72803,note_on,0,0,0,,2,,,74,127
72881,note_off,78,0,0,,2,,,74,127
72883,note_on,2,0,0,,1,,,73,127
72961,note_off,78,0,0,,1,,,73,127
72961,note_off,0,0,0,,6,,,66,127
72963,note_on,2,0,0,,7,,,67,127
72963,note_on,0,0,0,,12,,,71,127
73041,note_off,78,0,0,,12,,,71,127
73043,note_on,2,0,0,,1,,,73,127
73121,note_off,78,0,0,,1,,,73,127
73121,note_off,0,0,0,,7,,,67,127
73123,note_off,2,0,0,,10,,,57,127
73123,note_on,0,0,0,,2,,,50,127
73123,note_on,0,0,0,,2,,,74,127
73281,note_off,158,0,0,,2,,,74,127
73283,note_on,2,0,0,,2,,,86,127
73441,note_off,158,0,0,,2,,,50,127
73443,note_on,2,0,0,,2,,,50,127
73443,note_on,0,0,0,,6,,,54,127
73601,note_off,158,0,0,,2,,,86,127
73603,note_on,2,0,0,,12,,,83,127
73761,note_off,158,0,0,,12,,,83,127
73761,note_off,0,0,0,,6,,,54,127
73761,note_off,0,0,0,,2,,,50,127
73763,note_on,2,0,0,,4,,,52,127
73763,note_on,0,0,0,,7,,,55,127
73763,note_on,0,0,0,,6,,,78,127
73921,note_off,158,0,0,,6,,,78,127
73923,note_on,2,0,0,,7,,,79,127
74081,note_off,158,0,0,,7,,,79,127
74081,note_off,0,0,0,,7,,,55,127
74081,note_off,0,0,0,,4,,,52,127
74083,note_on,2,0,0,,10,,,57,127
74083,note_on,0,0,0,,6,,,54,127
74083,note_on,0,0,0,,8,,,80,127
74241,note_off,158,0,0,,8,,,80,127
74243,note_on,2,0,0,,10,,,81,127
74401,note_off,158,0,0,,10,,,81,127
74401,note_off,0,0,0,,6,,,54,127
74401,note_off,0,0,0,,10,,,57,127
74403,note_on,2,0,0,,6,,,54,127
74403,note_on,0,0,0,,10,,,57,127
74403,note_on,0,0,0,,1,,,73,127
74561,note_off,158,0,0,,1,,,73,127
74563,note_on,2,0,0,,2,,,74,127
74721,note_off,158,0,0,,2,,,74,127
74721,note_off,0,0,0,,10,,,57,127
74723,note_on,2,0,0,,6,,,42,127
74723,note_on,0,0,0,,4,,,76,127
74881,note_off,158,0,0,,4,,,76,127
74883,note_on,2,0,0,,6,,,78,127
75041,note_off,158,0,0,,6,,,78,127
75041,note_off,0,0,0,,6,,,42,127
75041,note_off,0,0,0,,6,,,54,127
75043,note_on,2,0,0,,7,,,43,127
75043,note_on,0,0,0,,12,,,71,127
75043,note_on,0,0,0,,1,,,73,127
75148,note_off,105,0,0,,1,,,73,127
75148,note_off,0,0,0,,12,,,71,127
75150,note_on,2,0,0,,10,,,69,127
75255,note_off,105,0,0,,10,,,69,127
75257,note_on,2,0,0,,7,,,67,127
75362,note_off,105,0,0,,7,,,67,127
75362,note_off,0,0,0,,7,,,43,127
75364,note_on,2,0,0,,10,,,45,127
75364,note_on,0,0,0,,6,,,66,127
75531,note_on,167,0,0,,2,,,74,127
75683,note_off,152,0,0,,6,,,66,127
75683,note_off,0,0,0,,10,,,45,127
75701,note_on,18,0,0,,4,,,64,127
75701,note_on,0,0,0,,10,,,45,127
75868,note_off,167,0,0,,2,,,74,127
75873,note_on,5,0,0,,1,,,73,127
76038,note_off,165,0,0,,10,,,45,127
76038,note_off,0,0,0,,4,,,64,127
76040,note_off,2,0,0,,1,,,73,127
76063,note_on,23,0,0,,2,,,62,127
76063,note_on,0,0,0,,2,,,74,127
76063,note_on,0,0,0,,2,,,38,127
78405,note_off,2342,0,0,,2,,,38,127
78405,note_off,0,0,0,,2,,,74,127
78405,note_off,0,0,0,,2,,,62,127
84480,end_of_track,6075,1,0,,,,,,
