tick,type,time,meta,track,program,channel,pitch,tempo,note,velocity
0,copyright,0,1,0,,,,,,
0,program_change,0,0,0,6,0,,,,
0,pitchwheel,0,0,0,,0,0,,,
0,program_change,0,0,0,6,1,,,,
0,pitchwheel,0,0,0,,1,-590,,,
0,program_change,0,0,0,6,2,,,,
0,pitchwheel,0,0,0,,2,-272,,,
0,program_change,0,0,0,6,3,,,,
0,pitchwheel,0,0,0,,3,-353,,,
0,program_change,0,0,0,6,4,,,,
0,pitchwheel,0,0,0,,4,-560,,,
0,program_change,0,0,0,6,5,,,,
0,pitchwheel,0,0,0,,5,-80,,,
0,program_change,0,0,0,6,6,,,,
0,pitchwheel,0,0,0,,6,-625,,,
0,program_change,0,0,0,6,7,,,,
0,pitchwheel,0,0,0,,7,-130,,,
0,program_change,0,0,0,6,8,,,,
0,pitchwheel,0,0,0,,8,-512,,,
0,program_change,0,0,0,6,10,,,,
0,pitchwheel,0,0,0,,10,-464,,,
0,program_change,0,0,0,6,11,,,,
0,pitchwheel,0,0,0,,11,-208,,,
0,program_change,0,0,0,6,12,,,,
0,pitchwheel,0,0,0,,12,-553,,,
0,set_tempo,0,1,0,,,,500000,,
85,note_on,85,0,0,,10,,,81,127
425,note_off,340,0,0,,10,,,81,127
426,note_on,1,0,0,,4,,,76,127
766,note_off,340,0,0,,4,,,76,127
767,note_on,1,0,0,,2,,,74,127
1107,note_off,340,0,0,,2,,,74,127
1108,note_on,1,0,0,,10,,,69,127
1108,note_on,0,0,0,,1,,,73,127
1448,note_off,340,0,0,,1,,,73,127
1448,note_off,0,0,0,,10,,,69,127
1449,note_on,1,0,0,,4,,,64,127
1449,note_on,0,0,0,,12,,,71,127
1789,note_off,340,0,0,,4,,,64,127
1790,note_on,1,0,0,,2,,,62,127
2009,note_off,219,0,0,,12,,,71,127
2131,note_off,122,0,0,,2,,,62,127
2132,note_on,1,0,0,,1,,,61,127
2132,note_on,0,0,0,,10,,,69,127
2302,note_off,170,0,0,,10,,,69,127
2303,note_on,1,0,0,,4,,,76,127
2473,note_off,170,0,0,,4,,,76,127
2473,note_off,0,0,0,,1,,,61,127
2474,note_on,1,0,0,,10,,,57,127
2474,note_on,0,0,0,,1,,,73,127
2644,note_off,170,0,0,,1,,,73,127
2645,note_on,1,0,0,,10,,,69,127
2815,note_off,170,0,0,,10,,,69,127
2815,note_off,0,0,0,,10,,,57,127
2816,note_on,1,0,0,,4,,,64,127
2816,note_on,0,0,0,,8,,,68,127
2986,note_off,170,0,0,,8,,,68,127
2987,note_on,1,0,0,,12,,,71,127
3157,note_off,170,0,0,,12,,,71,127
3157,note_off,0,0,0,,4,,,64,127
3158,note_on,1,0,0,,1,,,61,127
3158,note_on,0,0,0,,10,,,69,127
3328,note_off,170,0,0,,1,,,61,127
3329,note_on,1,0,0,,4,,,64,127
3499,note_off,170,0,0,,4,,,64,127
3500,note_on,1,0,0,,1,,,61,127
3670,note_off,170,0,0,,1,,,61,127
3671,note_on,1,0,0,,10,,,57,127
3781,note_off,110,0,0,,10,,,69,127
3841,note_off,60,0,0,,10,,,57,127
3842,note_on,1,0,0,,8,,,56,127
3842,note_on,0,0,0,,12,,,71,127
3955,note_off,113,0,0,,12,,,71,127
3956,note_on,1,0,0,,1,,,73,127
4012,note_off,56,0,0,,8,,,56,127
4013,note_on,1,0,0,,4,,,52,127
4069,note_off,56,0,0,,1,,,73,127
4070,note_on,1,0,0,,2,,,74,127
4183,note_off,113,0,0,,2,,,74,127
4183,note_off,0,0,0,,4,,,52,127
4184,note_on,1,0,0,,10,,,57,127
4184,note_on,0,0,0,,1,,,73,127
4354,note_off,170,0,0,,1,,,73,127
4355,note_on,1,0,0,,4,,,76,127
4525,note_off,170,0,0,,4,,,76,127
4526,note_on,1,0,0,,1,,,73,127
4696,note_off,170,0,0,,1,,,73,127
4697,note_on,1,0,0,,10,,,69,127
4867,note_off,170,0,0,,10,,,69,127
4867,note_off,0,0,0,,10,,,57,127
4868,note_on,1,0,0,,4,,,64,127
4868,note_on,0,0,0,,8,,,68,127
5038,note_off,170,0,0,,8,,,68,127
5039,note_on,1,0,0,,12,,,71,127
5209,note_off,170,0,0,,12,,,71,127
5209,note_off,0,0,0,,4,,,64,127
5210,note_on,1,0,0,,1,,,61,127
5210,note_on,0,0,0,,10,,,69,127
5380,note_off,170,0,0,,1,,,61,127
5381,note_on,1,0,0,,4,,,64,127
5551,note_off,170,0,0,,4,,,64,127
5552,note_on,1,0,0,,1,,,61,127
5722,note_off,170,0,0,,1,,,61,127
5723,note_on,1,0,0,,10,,,57,127
5798,note_off,75,0,0,,10,,,69,127
5893,note_off,95,0,0,,10,,,57,127
5894,note_on,1,0,0,,8,,,56,127
5894,note_on,0,0,0,,12,,,71,127
6007,note_off,113,0,0,,12,,,71,127
6008,note_on,1,0,0,,1,,,73,127
6064,note_off,56,0,0,,8,,,56,127
6065,note_on,1,0,0,,4,,,52,127
6121,note_off,56,0,0,,1,,,73,127
6122,note_on,1,0,0,,2,,,74,127
6235,note_off,113,0,0,,2,,,74,127
6235,note_off,0,0,0,,4,,,52,127
6236,note_on,1,0,0,,10,,,57,127
6236,note_on,0,0,0,,1,,,73,127
6406,note_off,170,0,0,,10,,,57,127
6407,note_on,1,0,0,,4,,,64,127
6577,note_off,170,0,0,,4,,,64,127
6577,note_off,0,0,0,,1,,,73,127
6578,note_on,1,0,0,,8,,,56,127
6578,note_on,0,0,0,,12,,,71,127
6748,note_off,170,0,0,,8,,,56,127
6749,note_on,1,0,0,,4,,,64,127
6919,note_off,170,0,0,,4,,,64,127
6920,note_on,1,0,0,,4,,,52,127
7033,note_off,113,0,0,,12,,,71,127
7034,note_on,1,0,0,,1,,,73,127
7090,note_off,56,0,0,,4,,,52,127
7091,note_on,1,0,0,,4,,,64,127
7147,note_off,56,0,0,,1,,,73,127
7148,note_on,1,0,0,,2,,,74,127
7261,note_off,113,0,0,,2,,,74,127
7261,note_off,0,0,0,,4,,,64,127
7262,note_on,1,0,0,,10,,,57,127
7262,note_on,0,0,0,,1,,,73,127
7432,note_off,170,0,0,,10,,,57,127
7433,note_on,1,0,0,,4,,,64,127
7603,note_off,170,0,0,,4,,,64,127
7603,note_off,0,0,0,,1,,,73,127
7604,note_on,1,0,0,,8,,,56,127
7604,note_on,0,0,0,,12,,,71,127
7774,note_off,170,0,0,,8,,,56,127
7775,note_on,1,0,0,,4,,,64,127
7945,note_off,170,0,0,,4,,,64,127
7946,note_on,1,0,0,,4,,,52,127
8059,note_off,113,0,0,,12,,,71,127
8060,note_on,1,0,0,,1,,,73,127
8116,note_off,56,0,0,,4,,,52,127
8117,note_on,1,0,0,,4,,,64,127
8173,note_off,56,0,0,,1,,,73,127
8174,note_on,1,0,0,,2,,,74,127
8287,note_off,113,0,0,,2,,,74,127
8287,note_off,0,0,0,,4,,,64,127
8288,note_on,1,0,0,,10,,,57,127
8288,note_on,0,0,0,,1,,,73,127
8401,note_off,113,0,0,,1,,,73,127
8402,note_on,1,0,0,,2,,,74,127
8515,note_off,113,0,0,,2,,,74,127
8516,note_on,1,0,0,,4,,,76,127
8629,note_off,113,0,0,,4,,,76,127
8629,note_off,0,0,0,,10,,,57,127
8630,note_on,1,0,0,,6,,,54,127
8630,note_on,0,0,0,,2,,,74,127
8800,note_off,170,0,0,,2,,,74,127
8801,note_on,1,0,0,,1,,,73,127
8971,note_off,170,0,0,,1,,,73,127
8971,note_off,0,0,0,,6,,,54,127
8972,note_on,1,0,0,,2,,,50,127
8972,note_on,0,0,0,,12,,,71,127
9142,note_off,170,0,0,,12,,,71,127
9143,note_on,1,0,0,,10,,,69,127
9313,note_off,170,0,0,,2,,,50,127
9314,note_on,1,0,0,,4,,,52,127
9369,note_off,55,0,0,,10,,,69,127
9371,note_on,2,0,0,,8,,,68,127
9427,note_off,56,0,0,,8,,,68,127
9428,note_on,1,0,0,,10,,,69,127
9484,note_off,56,0,0,,10,,,69,127
9485,note_on,1,0,0,,8,,,68,127
9541,note_off,56,0,0,,8,,,68,127
9542,note_on,1,0,0,,10,,,69,127
9598,note_off,56,0,0,,10,,,69,127
9599,note_on,1,0,0,,8,,,68,127
9655,note_off,56,0,0,,8,,,68,127
9656,note_on,1,0,0,,4,,,40,127
9656,note_on,0,0,0,,10,,,69,127
9712,note_off,56,0,0,,10,,,69,127
9713,note_on,1,0,0,,8,,,68,127
9826,note_off,113,0,0,,8,,,68,127
9827,note_on,1,0,0,,6,,,66,127
9997,note_off,170,0,0,,6,,,66,127
9998,note_on,1,0,0,,4,,,64,127
10338,note_off,340,0,0,,4,,,64,127
10338,note_off,0,0,0,,4,,,40,127
10338,note_off,0,0,0,,4,,,52,127
10367,note_on,29,0,0,,4,,,52,127
10367,note_on,0,0,0,,3,,,75,127
10368,note_on,1,0,0,,4,,,76,127
10537,note_off,169,0,0,,4,,,52,127
10538,note_on,1,0,0,,8,,,56,127
10708,note_off,170,0,0,,8,,,56,127
10709,note_off,1,0,0,,4,,,76,127
10709,note_on,0,0,0,,6,,,54,127
10709,note_on,0,0,0,,4,,,76,127
10879,note_off,170,0,0,,6,,,54,127
10880,note_on,1,0,0,,10,,,57,127
11050,note_off,170,0,0,,10,,,57,127
11050,note_off,0,0,0,,4,,,76,127
11051,note_on,1,0,0,,8,,,56,127
11051,note_on,0,0,0,,4,,,76,127
11221,note_off,170,0,0,,8,,,56,127
11222,note_on,1,0,0,,12,,,59,127
11392,note_off,170,0,0,,12,,,59,127
11392,note_off,0,0,0,,4,,,76,127
11392,note_off,0,0,0,,3,,,75,127
11393,note_on,1,0,0,,10,,,57,127
11393,note_on,0,0,0,,4,,,76,127
11563,note_off,170,0,0,,10,,,57,127
11564,note_on,1,0,0,,1,,,61,127
11734,note_off,170,0,0,,1,,,61,127
11735,note_on,1,0,0,,12,,,59,127
11819,note_off,84,0,0,,4,,,76,127
11820,note_on,1,0,0,,2,,,74,127
11904,note_off,84,0,0,,2,,,74,127
11904,note_off,0,0,0,,12,,,59,127
11905,note_on,1,0,0,,2,,,62,127
11905,note_on,0,0,0,,1,,,73,127
11989,note_off,84,0,0,,1,,,73,127
11990,note_on,1,0,0,,12,,,71,127
12074,note_off,84,0,0,,12,,,71,127
12074,note_off,0,0,0,,2,,,62,127
12075,note_on,1,0,0,,1,,,61,127
12075,note_on,0,0,0,,10,,,69,127
12415,note_off,340,0,0,,10,,,69,127
12415,note_off,0,0,0,,1,,,61,127
12416,note_on,1,0,0,,4,,,52,127
12416,note_on,0,0,0,,3,,,75,127
12417,note_on,1,0,0,,4,,,76,127
12586,note_off,169,0,0,,4,,,52,127
12587,note_on,1,0,0,,8,,,56,127
12757,note_off,170,0,0,,8,,,56,127
12758,note_off,1,0,0,,4,,,76,127
12758,note_on,0,0,0,,6,,,54,127
12758,note_on,0,0,0,,4,,,76,127
12928,note_off,170,0,0,,6,,,54,127
12929,note_on,1,0,0,,10,,,57,127
13099,note_off,170,0,0,,10,,,57,127
13099,note_off,0,0,0,,4,,,76,127
13100,note_on,1,0,0,,8,,,56,127
13100,note_on,0,0,0,,4,,,76,127
13270,note_off,170,0,0,,8,,,56,127
13271,note_on,1,0,0,,12,,,59,127
13441,note_off,170,0,0,,12,,,59,127
13441,note_off,0,0,0,,4,,,76,127
13441,note_off,0,0,0,,3,,,75,127
13442,note_on,1,0,0,,10,,,57,127
13442,note_on,0,0,0,,4,,,76,127
13612,note_off,170,0,0,,10,,,57,127
13613,note_on,1,0,0,,1,,,61,127
13783,note_off,170,0,0,,1,,,61,127
13784,note_on,1,0,0,,12,,,59,127
13868,note_off,84,0,0,,4,,,76,127
13869,note_on,1,0,0,,2,,,74,127
13953,note_off,84,0,0,,2,,,74,127
13953,note_off,0,0,0,,12,,,59,127
13954,note_on,1,0,0,,2,,,62,127
13954,note_on,0,0,0,,1,,,73,127
14038,note_off,84,0,0,,1,,,73,127
14039,note_on,1,0,0,,12,,,71,127
14123,note_off,84,0,0,,12,,,71,127
14123,note_off,0,0,0,,2,,,62,127
14124,note_on,1,0,0,,1,,,61,127
14124,note_on,0,0,0,,10,,,69,127
14464,note_off,340,0,0,,10,,,69,127
14464,note_off,0,0,0,,1,,,61,127
14479,note_on,15,0,0,,11,,,82,127
14479,note_on,0,0,0,,12,,,59,127
14480,note_on,1,0,0,,12,,,83,127
14649,note_off,169,0,0,,12,,,59,127
14650,note_on,1,0,0,,3,,,63,127
14820,note_off,170,0,0,,3,,,63,127
14821,note_off,1,0,0,,12,,,83,127
14821,note_on,0,0,0,,12,,,83,127
14821,note_on,0,0,0,,1,,,61,127
14991,note_off,170,0,0,,1,,,61,127
14992,note_on,1,0,0,,4,,,64,127
15162,note_off,170,0,0,,4,,,64,127
15162,note_off,0,0,0,,12,,,83,127
15163,note_on,1,0,0,,12,,,83,127
15163,note_on,0,0,0,,3,,,63,127
15333,note_off,170,0,0,,3,,,63,127
15334,note_on,1,0,0,,6,,,66,127
15504,note_off,170,0,0,,6,,,66,127
15504,note_off,0,0,0,,12,,,83,127
15504,note_off,0,0,0,,11,,,82,127
15505,note_on,1,0,0,,12,,,83,127
15505,note_on,0,0,0,,4,,,64,127
15675,note_off,170,0,0,,4,,,64,127
15676,note_on,1,0,0,,8,,,68,127
15846,note_off,170,0,0,,8,,,68,127
15847,note_on,1,0,0,,6,,,66,127
15931,note_off,84,0,0,,12,,,83,127
15932,note_on,1,0,0,,10,,,81,127
16016,note_off,84,0,0,,10,,,81,127
16016,note_off,0,0,0,,6,,,66,127
16017,note_on,1,0,0,,8,,,80,127
16017,note_on,0,0,0,,10,,,69,127
16101,note_off,84,0,0,,8,,,80,127
16102,note_on,1,0,0,,6,,,78,127
16186,note_off,84,0,0,,6,,,78,127
16186,note_off,0,0,0,,10,,,69,127
16187,note_on,1,0,0,,4,,,76,127
16187,note_on,0,0,0,,8,,,68,127
16527,note_off,340,0,0,,8,,,68,127
16527,note_off,0,0,0,,4,,,76,127
16528,note_on,1,0,0,,11,,,82,127
16528,note_on,0,0,0,,12,,,59,127
16529,note_on,1,0,0,,12,,,83,127
16698,note_off,169,0,0,,12,,,59,127
16699,note_on,1,0,0,,3,,,63,127
16869,note_off,170,0,0,,3,,,63,127
16870,note_off,1,0,0,,12,,,83,127
16870,note_on,0,0,0,,12,,,83,127
16870,note_on,0,0,0,,1,,,61,127
17040,note_off,170,0,0,,1,,,61,127
17041,note_on,1,0,0,,4,,,64,127
17211,note_off,170,0,0,,4,,,64,127
17211,note_off,0,0,0,,12,,,83,127
17212,note_on,1,0,0,,12,,,83,127
17212,note_on,0,0,0,,3,,,63,127
17382,note_off,170,0,0,,3,,,63,127
17383,note_on,1,0,0,,6,,,66,127
17553,note_off,170,0,0,,6,,,66,127
17553,note_off,0,0,0,,12,,,83,127
17553,note_off,0,0,0,,11,,,82,127
17554,note_on,1,0,0,,12,,,83,127
17554,note_on,0,0,0,,4,,,64,127
17724,note_off,170,0,0,,4,,,64,127
17725,note_on,1,0,0,,8,,,68,127
17895,note_off,170,0,0,,8,,,68,127
17896,note_on,1,0,0,,6,,,66,127
17980,note_off,84,0,0,,12,,,83,127
17981,note_on,1,0,0,,10,,,81,127
18065,note_off,84,0,0,,10,,,81,127
18065,note_off,0,0,0,,6,,,66,127
18066,note_on,1,0,0,,8,,,80,127
18066,note_on,0,0,0,,10,,,69,127
18150,note_off,84,0,0,,8,,,80,127
18151,note_on,1,0,0,,6,,,78,127
18235,note_off,84,0,0,,6,,,78,127
18235,note_off,0,0,0,,10,,,69,127
18236,note_on,1,0,0,,4,,,76,127
18236,note_on,0,0,0,,8,,,68,127
18576,note_off,340,0,0,,8,,,68,127
18576,note_off,0,0,0,,4,,,76,127
18591,note_on,15,0,0,,10,,,69,127
18591,note_on,0,0,0,,1,,,85,127
18761,note_off,170,0,0,,1,,,85,127
18762,note_on,1,0,0,,12,,,83,127
18932,note_off,170,0,0,,12,,,83,127
18933,note_on,1,0,0,,10,,,57,127
18933,note_on,0,0,0,,10,,,81,127
19103,note_off,170,0,0,,10,,,81,127
19104,note_on,1,0,0,,8,,,80,127
19274,note_off,170,0,0,,8,,,80,127
19274,note_off,0,0,0,,10,,,57,127
19274,note_off,0,0,0,,10,,,69,127
19275,note_on,1,0,0,,1,,,61,127
19275,note_on,0,0,0,,6,,,78,127
19445,note_off,170,0,0,,6,,,78,127
19446,note_on,1,0,0,,4,,,76,127
19616,note_off,170,0,0,,1,,,61,127
19617,note_on,1,0,0,,12,,,59,127
19672,note_off,55,0,0,,4,,,76,127
19674,note_on,2,0,0,,3,,,75,127
19730,note_off,56,0,0,,3,,,75,127
19731,note_on,1,0,0,,4,,,76,127
19787,note_off,56,0,0,,4,,,76,127
19788,note_on,1,0,0,,3,,,75,127
19844,note_off,56,0,0,,3,,,75,127
19845,note_on,1,0,0,,4,,,76,127
19901,note_off,56,0,0,,4,,,76,127
19902,note_on,1,0,0,,3,,,75,127
19958,note_off,56,0,0,,3,,,75,127
19959,note_on,1,0,0,,12,,,47,127
19959,note_on,0,0,0,,4,,,76,127
20015,note_off,56,0,0,,4,,,76,127
20016,note_on,1,0,0,,3,,,75,127
20129,note_off,113,0,0,,3,,,75,127
20130,note_on,1,0,0,,1,,,73,127
20300,note_off,170,0,0,,1,,,73,127
20301,note_on,1,0,0,,12,,,71,127
20600,note_off,299,0,0,,12,,,47,127
20642,note_off,42,0,0,,12,,,59,127
20686,note_on,44,0,0,,6,,,78,127
20686,note_on,0,0,0,,3,,,63,127
20693,note_off,7,0,0,,12,,,71,127
20856,note_off,163,0,0,,3,,,63,127
20857,note_on,1,0,0,,12,,,71,127
21027,note_off,170,0,0,,12,,,71,127
21028,note_on,1,0,0,,12,,,59,127
21198,note_off,170,0,0,,12,,,59,127
21199,note_on,1,0,0,,12,,,71,127
21369,note_off,170,0,0,,12,,,71,127
21369,note_off,0,0,0,,6,,,78,127
21370,note_on,1,0,0,,8,,,80,127
21370,note_on,0,0,0,,4,,,64,127
21483,note_off,113,0,0,,8,,,80,127
21484,note_on,1,0,0,,10,,,81,127
21540,note_off,56,0,0,,4,,,64,127
21541,note_on,1,0,0,,12,,,71,127
21597,note_off,56,0,0,,10,,,81,127
21598,note_on,1,0,0,,12,,,83,127
21711,note_off,113,0,0,,12,,,83,127
21711,note_off,0,0,0,,12,,,71,127
21712,note_on,1,0,0,,6,,,78,127
21712,note_on,0,0,0,,3,,,63,127
21882,note_off,170,0,0,,3,,,63,127
21883,note_on,1,0,0,,12,,,71,127
22053,note_off,170,0,0,,12,,,71,127
22054,note_on,1,0,0,,12,,,59,127
22224,note_off,170,0,0,,12,,,59,127
22225,note_on,1,0,0,,12,,,71,127
22395,note_off,170,0,0,,12,,,71,127
22395,note_off,0,0,0,,6,,,78,127
22396,note_on,1,0,0,,8,,,80,127
22396,note_on,0,0,0,,4,,,64,127
22509,note_off,113,0,0,,8,,,80,127
22510,note_on,1,0,0,,10,,,81,127
22566,note_off,56,0,0,,4,,,64,127
22567,note_on,1,0,0,,12,,,71,127
22623,note_off,56,0,0,,10,,,81,127
22624,note_on,1,0,0,,12,,,83,127
22737,note_off,113,0,0,,12,,,83,127
22737,note_off,0,0,0,,12,,,71,127
22738,note_on,1,0,0,,6,,,78,127
22738,note_on,0,0,0,,3,,,63,127
22908,note_off,170,0,0,,3,,,63,127
22909,note_on,1,0,0,,12,,,71,127
23079,note_off,170,0,0,,12,,,71,127
23080,note_on,1,0,0,,12,,,59,127
23250,note_off,170,0,0,,12,,,59,127
23251,note_on,1,0,0,,12,,,71,127
23421,note_off,170,0,0,,12,,,71,127
23421,note_off,0,0,0,,6,,,78,127
23422,note_on,1,0,0,,8,,,80,127
23422,note_on,0,0,0,,4,,,64,127
23535,note_off,113,0,0,,8,,,80,127
23536,note_on,1,0,0,,10,,,81,127
23592,note_off,56,0,0,,4,,,64,127
23593,note_on,1,0,0,,12,,,71,127
23649,note_off,56,0,0,,10,,,81,127
23650,note_on,1,0,0,,12,,,83,127
23763,note_off,113,0,0,,12,,,83,127
23763,note_off,0,0,0,,12,,,71,127
23764,note_on,1,0,0,,3,,,75,127
23764,note_on,0,0,0,,12,,,59,127
23934,note_off,170,0,0,,12,,,59,127
23935,note_on,1,0,0,,12,,,71,127
24105,note_off,170,0,0,,12,,,71,127
24106,note_on,1,0,0,,10,,,69,127
24219,note_off,113,0,0,,3,,,75,127
24220,note_on,1,0,0,,4,,,76,127
24276,note_off,56,0,0,,10,,,69,127
24277,note_on,1,0,0,,6,,,66,127
24333,note_off,56,0,0,,4,,,76,127
24334,note_on,1,0,0,,6,,,78,127
24447,note_off,113,0,0,,6,,,78,127
24447,note_off,0,0,0,,6,,,66,127
24448,note_on,1,0,0,,4,,,76,127
24448,note_on,0,0,0,,8,,,68,127
24561,note_off,113,0,0,,4,,,76,127
24562,note_on,1,0,0,,6,,,78,127
24618,note_off,56,0,0,,8,,,68,127
24619,note_on,1,0,0,,4,,,64,127
24675,note_off,56,0,0,,6,,,78,127
24676,note_on,1,0,0,,8,,,80,127
24789,note_off,113,0,0,,8,,,80,127
24789,note_off,0,0,0,,4,,,64,127
24790,note_on,1,0,0,,6,,,78,127
24790,note_on,0,0,0,,10,,,57,127
24903,note_off,113,0,0,,6,,,78,127
24904,note_on,1,0,0,,8,,,80,127
25017,note_off,113,0,0,,8,,,80,127
25018,note_on,1,0,0,,10,,,81,127
25131,note_off,113,0,0,,10,,,81,127
25131,note_off,0,0,0,,10,,,57,127
25132,note_on,1,0,0,,8,,,80,127
25132,note_on,0,0,0,,12,,,59,127
25302,note_off,170,0,0,,8,,,80,127
25303,note_on,1,0,0,,6,,,78,127
25473,note_off,170,0,0,,6,,,78,127
25474,note_on,1,0,0,,4,,,76,127
25474,note_on,0,0,0,,12,,,47,127
25644,note_off,170,0,0,,4,,,76,127
25645,note_on,1,0,0,,3,,,75,127
25815,note_off,170,0,0,,3,,,75,127
25815,note_off,0,0,0,,12,,,47,127
25815,note_off,0,0,0,,12,,,59,127
25816,note_on,1,0,0,,4,,,76,127
25816,note_on,0,0,0,,4,,,52,127
26001,note_on,185,0,0,,10,,,81,127
26012,note_off,11,0,0,,4,,,76,127
26171,note_off,159,0,0,,10,,,81,127
26172,note_on,1,0,0,,7,,,79,127
26342,note_off,170,0,0,,7,,,79,127
26343,note_on,1,0,0,,0,,,84,127
26499,note_off,156,0,0,,4,,,52,127
26513,note_off,14,0,0,,0,,,84,127
26514,note_on,1,0,0,,12,,,83,127
26684,note_off,170,0,0,,12,,,83,127
26685,note_on,1,0,0,,10,,,81,127
26855,note_off,170,0,0,,10,,,81,127
26856,note_on,1,0,0,,7,,,79,127
27026,note_off,170,0,0,,7,,,79,127
27027,note_on,1,0,0,,6,,,78,127
27197,note_off,170,0,0,,6,,,78,127
27198,note_on,1,0,0,,4,,,76,127
27368,note_off,170,0,0,,4,,,76,127
27369,note_on,1,0,0,,2,,,74,127
27539,note_off,170,0,0,,2,,,74,127
27540,note_on,1,0,0,,1,,,73,127
27710,note_off,170,0,0,,1,,,73,127
27711,note_on,1,0,0,,12,,,71,127
27881,note_off,170,0,0,,12,,,71,127
27882,note_on,1,0,0,,11,,,70,127
28052,note_off,170,0,0,,11,,,70,127
28053,note_on,1,0,0,,7,,,67,127
28053,note_on,0,0,0,,4,,,76,127
28223,note_off,170,0,0,,4,,,76,127
28223,note_off,0,0,0,,7,,,67,127
28224,note_on,1,0,0,,6,,,66,127
28224,note_on,0,0,0,,2,,,74,127
28394,note_off,170,0,0,,2,,,74,127
28394,note_off,0,0,0,,6,,,66,127
28395,note_on,1,0,0,,4,,,64,127
28395,note_on,0,0,0,,1,,,73,127
28565,note_off,170,0,0,,1,,,73,127
28565,note_off,0,0,0,,4,,,64,127
28566,note_on,1,0,0,,2,,,62,127
28566,note_on,0,0,0,,12,,,71,127
28736,note_off,170,0,0,,12,,,71,127
28736,note_off,0,0,0,,2,,,62,127
28737,note_on,1,0,0,,1,,,61,127
28737,note_on,0,0,0,,1,,,73,127
28907,note_off,170,0,0,,1,,,73,127
28907,note_off,0,0,0,,1,,,61,127
28908,note_on,1,0,0,,12,,,59,127
28908,note_on,0,0,0,,2,,,74,127
29093,note_on,185,0,0,,7,,,79,127
29104,note_off,11,0,0,,2,,,74,127
29263,note_off,159,0,0,,7,,,79,127
29264,note_on,1,0,0,,6,,,78,127
29434,note_off,170,0,0,,6,,,78,127
29435,note_on,1,0,0,,12,,,83,127
29591,note_off,156,0,0,,12,,,59,127
29605,note_off,14,0,0,,12,,,83,127
29606,note_on,1,0,0,,10,,,81,127
29776,note_off,170,0,0,,10,,,81,127
29777,note_on,1,0,0,,7,,,79,127
29947,note_off,170,0,0,,7,,,79,127
29948,note_on,1,0,0,,6,,,78,127
30118,note_off,170,0,0,,6,,,78,127
30119,note_on,1,0,0,,4,,,76,127
30289,note_off,170,0,0,,4,,,76,127
30290,note_on,1,0,0,,2,,,74,127
30460,note_off,170,0,0,,2,,,74,127
30461,note_on,1,0,0,,0,,,72,127
30631,note_off,170,0,0,,0,,,72,127
30632,note_on,1,0,0,,12,,,71,127
30802,note_off,170,0,0,,12,,,71,127
30803,note_on,1,0,0,,10,,,69,127
30973,note_off,170,0,0,,10,,,69,127
30974,note_on,1,0,0,,8,,,68,127
31144,note_off,170,0,0,,8,,,68,127
31145,note_on,1,0,0,,2,,,74,127
31145,note_on,0,0,0,,5,,,65,127
31315,note_off,170,0,0,,5,,,65,127
31315,note_off,0,0,0,,2,,,74,127
31316,note_on,1,0,0,,0,,,72,127
31316,note_on,0,0,0,,4,,,64,127
31486,note_off,170,0,0,,4,,,64,127
31486,note_off,0,0,0,,0,,,72,127
31487,note_on,1,0,0,,12,,,71,127
31487,note_on,0,0,0,,2,,,62,127
31657,note_off,170,0,0,,2,,,62,127
31657,note_off,0,0,0,,12,,,71,127
31658,note_on,1,0,0,,10,,,69,127
31658,note_on,0,0,0,,0,,,60,127
31828,note_off,170,0,0,,0,,,60,127
31828,note_off,0,0,0,,10,,,69,127
31829,note_on,1,0,0,,12,,,71,127
31829,note_on,0,0,0,,12,,,59,127
31999,note_off,170,0,0,,12,,,59,127
31999,note_off,0,0,0,,12,,,71,127
32000,note_on,1,0,0,,0,,,72,127
32000,note_on,0,0,0,,10,,,57,127
32170,note_off,170,0,0,,0,,,72,127
32185,note_on,15,0,0,,2,,,86,127
32355,note_off,170,0,0,,2,,,86,127
32356,note_on,1,0,0,,0,,,84,127
32526,note_off,170,0,0,,0,,,84,127
32527,note_on,1,0,0,,12,,,83,127
32697,note_off,170,0,0,,12,,,83,127
32698,note_on,1,0,0,,10,,,81,127
32868,note_off,170,0,0,,10,,,81,127
32869,note_on,1,0,0,,7,,,79,127
33025,note_off,156,0,0,,10,,,57,127
33039,note_off,14,0,0,,7,,,79,127
33040,note_on,1,0,0,,10,,,57,127
33040,note_on,0,0,0,,6,,,78,127
33210,note_off,170,0,0,,6,,,78,127
33211,note_on,1,0,0,,12,,,83,127
33381,note_off,170,0,0,,12,,,83,127
33382,note_on,1,0,0,,10,,,81,127
33552,note_off,170,0,0,,10,,,81,127
33553,note_on,1,0,0,,7,,,79,127
33723,note_off,170,0,0,,7,,,79,127
33724,note_on,1,0,0,,6,,,78,127
33894,note_off,170,0,0,,6,,,78,127
33895,note_on,1,0,0,,4,,,76,127
34065,note_off,170,0,0,,4,,,76,127
34065,note_off,0,0,0,,10,,,57,127
34066,note_on,1,0,0,,12,,,59,127
34066,note_on,0,0,0,,3,,,75,127
34395,note_off,329,0,0,,3,,,75,127
34407,note_off,12,0,0,,12,,,59,127
34408,note_on,1,0,0,,0,,,60,127
34408,note_on,0,0,0,,6,,,78,127
34464,note_off,56,0,0,,6,,,78,127
34465,note_on,1,0,0,,4,,,76,127
34521,note_off,56,0,0,,4,,,76,127
34522,note_on,1,0,0,,6,,,78,127
34578,note_off,56,0,0,,6,,,78,127
34579,note_on,1,0,0,,4,,,76,127
34635,note_off,56,0,0,,4,,,76,127
34636,note_on,1,0,0,,6,,,78,127
34692,note_off,56,0,0,,6,,,78,127
34693,note_on,1,0,0,,4,,,76,127
34749,note_off,56,0,0,,4,,,76,127
34750,note_on,1,0,0,,0,,,48,127
34750,note_on,0,0,0,,6,,,78,127
34806,note_off,56,0,0,,6,,,78,127
34807,note_on,1,0,0,,4,,,76,127
34863,note_off,56,0,0,,4,,,76,127
34864,note_on,1,0,0,,6,,,78,127
34920,note_off,56,0,0,,6,,,78,127
34921,note_on,1,0,0,,4,,,76,127
34977,note_off,56,0,0,,4,,,76,127
34978,note_on,1,0,0,,3,,,75,127
35034,note_off,56,0,0,,3,,,75,127
35035,note_on,1,0,0,,4,,,76,127
35091,note_off,56,0,0,,4,,,76,127
35091,note_off,0,0,0,,0,,,48,127
35091,note_off,0,0,0,,0,,,60,127
35092,note_on,1,0,0,,12,,,47,127
35092,note_on,0,0,0,,4,,,76,127
35433,note_on,341,0,0,,12,,,59,127
35773,note_off,340,0,0,,4,,,76,127
35773,note_off,0,0,0,,12,,,47,127
35774,note_on,1,0,0,,6,,,78,127
36114,note_off,340,0,0,,6,,,78,127
36143,note_off,29,0,0,,12,,,59,127
36157,note_on,14,0,0,,6,,,78,127
36157,note_on,0,0,0,,3,,,63,127
36327,note_off,170,0,0,,3,,,63,127
36328,note_on,1,0,0,,12,,,71,127
36498,note_off,170,0,0,,12,,,71,127
36499,note_on,1,0,0,,12,,,59,127
36669,note_off,170,0,0,,12,,,59,127
36670,note_on,1,0,0,,12,,,71,127
36840,note_off,170,0,0,,12,,,71,127
36840,note_off,0,0,0,,6,,,78,127
36841,note_on,1,0,0,,8,,,80,127
36841,note_on,0,0,0,,4,,,64,127
36954,note_off,113,0,0,,8,,,80,127
36955,note_on,1,0,0,,10,,,81,127
37011,note_off,56,0,0,,4,,,64,127
37012,note_on,1,0,0,,12,,,71,127
37068,note_off,56,0,0,,10,,,81,127
37069,note_on,1,0,0,,12,,,83,127
37182,note_off,113,0,0,,12,,,83,127
37182,note_off,0,0,0,,12,,,71,127
37183,note_on,1,0,0,,6,,,78,127
37183,note_on,0,0,0,,3,,,63,127
37353,note_off,170,0,0,,3,,,63,127
37354,note_on,1,0,0,,12,,,71,127
37524,note_off,170,0,0,,12,,,71,127
37525,note_on,1,0,0,,12,,,59,127
37695,note_off,170,0,0,,12,,,59,127
37696,note_on,1,0,0,,12,,,71,127
37866,note_off,170,0,0,,12,,,71,127
37866,note_off,0,0,0,,6,,,78,127
37867,note_on,1,0,0,,8,,,80,127
37867,note_on,0,0,0,,4,,,64,127
37980,note_off,113,0,0,,8,,,80,127
37981,note_on,1,0,0,,10,,,81,127
38037,note_off,56,0,0,,4,,,64,127
38038,note_on,1,0,0,,12,,,71,127
38094,note_off,56,0,0,,10,,,81,127
38095,note_on,1,0,0,,12,,,83,127
38208,note_off,113,0,0,,12,,,83,127
38208,note_off,0,0,0,,12,,,71,127
38209,note_on,1,0,0,,6,,,78,127
38209,note_on,0,0,0,,3,,,63,127
38379,note_off,170,0,0,,3,,,63,127
38380,note_on,1,0,0,,12,,,71,127
38550,note_off,170,0,0,,12,,,71,127
38551,note_on,1,0,0,,12,,,59,127
38721,note_off,170,0,0,,12,,,59,127
38722,note_on,1,0,0,,12,,,71,127
38892,note_off,170,0,0,,12,,,71,127
38892,note_off,0,0,0,,6,,,78,127
38893,note_on,1,0,0,,8,,,80,127
38893,note_on,0,0,0,,4,,,64,127
39006,note_off,113,0,0,,8,,,80,127
39007,note_on,1,0,0,,10,,,81,127
39063,note_off,56,0,0,,4,,,64,127
39064,note_on,1,0,0,,12,,,71,127
39120,note_off,56,0,0,,10,,,81,127
39121,note_on,1,0,0,,12,,,83,127
39234,note_off,113,0,0,,12,,,83,127
39234,note_off,0,0,0,,12,,,71,127
39235,note_on,1,0,0,,3,,,75,127
39235,note_on,0,0,0,,12,,,59,127
39405,note_off,170,0,0,,12,,,59,127
39406,note_on,1,0,0,,12,,,71,127
39576,note_off,170,0,0,,12,,,71,127
39577,note_on,1,0,0,,10,,,69,127
39690,note_off,113,0,0,,3,,,75,127
39691,note_on,1,0,0,,4,,,76,127
39747,note_off,56,0,0,,10,,,69,127
39748,note_on,1,0,0,,6,,,66,127
39804,note_off,56,0,0,,4,,,76,127
39805,note_on,1,0,0,,6,,,78,127
39918,note_off,113,0,0,,6,,,78,127
39918,note_off,0,0,0,,6,,,66,127
39919,note_on,1,0,0,,4,,,76,127
39919,note_on,0,0,0,,8,,,68,127
40032,note_off,113,0,0,,4,,,76,127
40033,note_on,1,0,0,,6,,,78,127
40089,note_off,56,0,0,,8,,,68,127
40090,note_on,1,0,0,,4,,,64,127
40146,note_off,56,0,0,,6,,,78,127
40147,note_on,1,0,0,,8,,,80,127
40260,note_off,113,0,0,,8,,,80,127
40260,note_off,0,0,0,,4,,,64,127
40261,note_on,1,0,0,,6,,,78,127
40261,note_on,0,0,0,,10,,,57,127
40374,note_off,113,0,0,,6,,,78,127
40375,note_on,1,0,0,,8,,,80,127
40488,note_off,113,0,0,,8,,,80,127
40489,note_on,1,0,0,,10,,,81,127
40602,note_off,113,0,0,,10,,,81,127
40602,note_off,0,0,0,,10,,,57,127
40603,note_on,1,0,0,,8,,,80,127
40603,note_on,0,0,0,,12,,,59,127
40773,note_off,170,0,0,,8,,,80,127
40774,note_on,1,0,0,,6,,,78,127
40944,note_off,170,0,0,,6,,,78,127
40945,note_on,1,0,0,,4,,,76,127
40945,note_on,0,0,0,,12,,,47,127
41115,note_off,170,0,0,,4,,,76,127
41116,note_on,1,0,0,,3,,,75,127
41286,note_off,170,0,0,,3,,,75,127
41286,note_off,0,0,0,,12,,,47,127
41286,note_off,0,0,0,,12,,,59,127
41287,note_on,1,0,0,,4,,,76,127
41287,note_on,0,0,0,,4,,,52,127
41472,note_on,185,0,0,,12,,,83,127
41500,note_off,28,0,0,,4,,,76,127
41641,note_off,141,0,0,,12,,,83,127
41642,note_on,1,0,0,,8,,,80,127
41798,note_off,156,0,0,,4,,,52,127
41812,note_off,14,0,0,,8,,,80,127
41813,note_on,1,0,0,,4,,,76,127
41983,note_off,170,0,0,,4,,,76,127
41984,note_on,1,0,0,,8,,,56,127
41984,note_on,0,0,0,,3,,,75,127
42154,note_off,170,0,0,,3,,,75,127
42155,note_on,1,0,0,,12,,,71,127
42325,note_off,170,0,0,,12,,,71,127
42325,note_off,0,0,0,,8,,,56,127
42326,note_on,1,0,0,,10,,,57,127
42326,note_on,0,0,0,,1,,,73,127
42439,note_off,113,0,0,,1,,,73,127
42440,note_on,1,0,0,,3,,,75,127
42553,note_off,113,0,0,,3,,,75,127
42554,note_on,1,0,0,,4,,,76,127
42667,note_off,113,0,0,,4,,,76,127
42667,note_off,0,0,0,,10,,,57,127
42668,note_on,1,0,0,,12,,,59,127
42668,note_on,0,0,0,,8,,,68,127
42838,note_off,170,0,0,,8,,,68,127
42839,note_on,1,0,0,,4,,,76,127
43009,note_off,170,0,0,,4,,,76,127
43009,note_off,0,0,0,,12,,,59,127
43010,note_on,1,0,0,,10,,,57,127
43010,note_on,0,0,0,,6,,,66,127
43180,note_off,170,0,0,,6,,,66,127
43181,note_on,1,0,0,,3,,,75,127
43351,note_off,170,0,0,,3,,,75,127
43351,note_off,0,0,0,,10,,,57,127
43352,note_on,1,0,0,,8,,,56,127
43352,note_on,0,0,0,,4,,,76,127
43522,note_off,170,0,0,,4,,,76,127
43523,note_on,1,0,0,,12,,,83,127
43693,note_off,170,0,0,,12,,,83,127
43693,note_off,0,0,0,,8,,,56,127
43694,note_on,1,0,0,,4,,,52,127
43694,note_on,0,0,0,,8,,,80,127
43864,note_off,170,0,0,,8,,,80,127
43865,note_on,1,0,0,,4,,,76,127
44035,note_off,170,0,0,,4,,,76,127
44035,note_off,0,0,0,,4,,,52,127
44036,note_on,1,0,0,,8,,,56,127
44036,note_on,0,0,0,,3,,,75,127
44206,note_off,170,0,0,,3,,,75,127
44207,note_on,1,0,0,,12,,,71,127
44377,note_off,170,0,0,,12,,,71,127
44377,note_off,0,0,0,,8,,,56,127
44378,note_on,1,0,0,,10,,,57,127
44378,note_on,0,0,0,,1,,,73,127
44548,note_off,170,0,0,,1,,,73,127
44549,note_on,1,0,0,,10,,,69,127
44719,note_off,170,0,0,,10,,,69,127
44719,note_off,0,0,0,,10,,,57,127
44720,note_on,1,0,0,,12,,,59,127
44720,note_on,0,0,0,,8,,,68,127
44890,note_off,170,0,0,,8,,,68,127
44891,note_on,1,0,0,,4,,,64,127
45061,note_off,170,0,0,,4,,,64,127
45062,note_on,1,0,0,,12,,,47,127
45062,note_on,0,0,0,,6,,,66,127
45232,note_off,170,0,0,,6,,,66,127
45233,note_on,1,0,0,,3,,,63,127
45403,note_off,170,0,0,,3,,,63,127
45403,note_off,0,0,0,,12,,,47,127
45403,note_off,0,0,0,,12,,,59,127
45404,note_on,1,0,0,,4,,,52,127
45404,note_on,0,0,0,,4,,,64,127
46382,note_off,978,0,0,,4,,,52,127
46457,note_on,75,0,0,,4,,,76,127
46471,note_off,14,0,0,,4,,,64,127
46797,note_off,326,0,0,,4,,,76,127
46798,note_on,1,0,0,,12,,,71,127
47138,note_off,340,0,0,,12,,,71,127
47139,note_on,1,0,0,,10,,,69,127
47479,note_off,340,0,0,,10,,,69,127
47480,note_on,1,0,0,,4,,,64,127
47480,note_on,0,0,0,,8,,,68,127
47820,note_off,340,0,0,,8,,,68,127
47820,note_off,0,0,0,,4,,,64,127
47821,note_on,1,0,0,,12,,,59,127
47821,note_on,0,0,0,,6,,,66,127
48161,note_off,340,0,0,,12,,,59,127
48162,note_on,1,0,0,,10,,,57,127
48443,note_off,281,0,0,,6,,,66,127
48503,note_off,60,0,0,,10,,,57,127
48504,note_on,1,0,0,,8,,,56,127
48504,note_on,0,0,0,,4,,,64,127
48674,note_off,170,0,0,,4,,,64,127
48675,note_on,1,0,0,,12,,,71,127
48845,note_off,170,0,0,,12,,,71,127
48845,note_off,0,0,0,,8,,,56,127
48846,note_on,1,0,0,,4,,,52,127
48846,note_on,0,0,0,,8,,,68,127
49016,note_off,170,0,0,,8,,,68,127
49017,note_on,1,0,0,,4,,,64,127
49187,note_off,170,0,0,,4,,,64,127
49187,note_off,0,0,0,,4,,,52,127
49188,note_on,1,0,0,,12,,,59,127
49188,note_on,0,0,0,,3,,,63,127
49358,note_off,170,0,0,,3,,,63,127
49359,note_on,1,0,0,,6,,,66,127
49529,note_off,170,0,0,,6,,,66,127
49529,note_off,0,0,0,,12,,,59,127
49530,note_on,1,0,0,,8,,,56,127
49530,note_on,0,0,0,,4,,,64,127
49700,note_off,170,0,0,,8,,,56,127
49701,note_on,1,0,0,,12,,,59,127
49871,note_off,170,0,0,,12,,,59,127
49872,note_on,1,0,0,,8,,,56,127
50042,note_off,170,0,0,,8,,,56,127
50043,note_on,1,0,0,,4,,,52,127
50153,note_off,110,0,0,,4,,,64,127
50213,note_off,60,0,0,,4,,,52,127
50214,note_on,1,0,0,,3,,,51,127
50214,note_on,0,0,0,,6,,,66,127
50327,note_off,113,0,0,,6,,,66,127
50328,note_on,1,0,0,,8,,,68,127
50384,note_off,56,0,0,,3,,,51,127
50385,note_on,1,0,0,,12,,,47,127
50441,note_off,56,0,0,,8,,,68,127
50442,note_on,1,0,0,,10,,,69,127
50555,note_off,113,0,0,,10,,,69,127
50555,note_off,0,0,0,,12,,,47,127
50556,note_on,1,0,0,,4,,,52,127
50556,note_on,0,0,0,,8,,,68,127
50726,note_off,170,0,0,,8,,,68,127
50727,note_on,1,0,0,,12,,,71,127
50897,note_off,170,0,0,,12,,,71,127
50898,note_on,1,0,0,,8,,,68,127
51068,note_off,170,0,0,,8,,,68,127
51069,note_on,1,0,0,,4,,,64,127
51179,note_off,110,0,0,,4,,,52,127
51239,note_off,60,0,0,,4,,,64,127
51240,note_on,1,0,0,,12,,,59,127
51240,note_on,0,0,0,,3,,,63,127
51410,note_off,170,0,0,,3,,,63,127
51411,note_on,1,0,0,,6,,,66,127
51581,note_off,170,0,0,,6,,,66,127
51581,note_off,0,0,0,,12,,,59,127
51582,note_on,1,0,0,,8,,,56,127
51582,note_on,0,0,0,,4,,,64,127
51752,note_off,170,0,0,,8,,,56,127
51753,note_on,1,0,0,,12,,,59,127
51923,note_off,170,0,0,,12,,,59,127
51924,note_on,1,0,0,,8,,,56,127
52094,note_off,170,0,0,,8,,,56,127
52095,note_on,1,0,0,,4,,,52,127
52205,note_off,110,0,0,,4,,,64,127
52265,note_off,60,0,0,,4,,,52,127
52266,note_on,1,0,0,,3,,,51,127
52266,note_on,0,0,0,,6,,,66,127
52379,note_off,113,0,0,,6,,,66,127
52380,note_on,1,0,0,,8,,,68,127
52436,note_off,56,0,0,,3,,,51,127
52437,note_on,1,0,0,,12,,,47,127
52493,note_off,56,0,0,,8,,,68,127
52494,note_on,1,0,0,,10,,,69,127
52607,note_off,113,0,0,,10,,,69,127
52607,note_off,0,0,0,,12,,,47,127
52608,note_on,1,0,0,,4,,,52,127
52608,note_on,0,0,0,,8,,,68,127
52793,note_on,185,0,0,,4,,,76,127
52804,note_off,11,0,0,,8,,,68,127
52963,note_off,159,0,0,,4,,,76,127
52964,note_on,1,0,0,,1,,,73,127
53134,note_off,170,0,0,,1,,,73,127
53135,note_on,1,0,0,,10,,,69,127
53231,note_off,96,0,0,,4,,,52,127
53305,note_off,74,0,0,,10,,,69,127
53306,note_on,1,0,0,,8,,,68,127
53306,note_on,0,0,0,,2,,,62,127
53476,note_off,170,0,0,,8,,,68,127
53477,note_on,1,0,0,,12,,,71,127
53647,note_off,170,0,0,,12,,,71,127
53647,note_off,0,0,0,,2,,,62,127
53648,note_on,1,0,0,,10,,,69,127
53648,note_on,0,0,0,,1,,,61,127
53818,note_off,170,0,0,,1,,,61,127
53819,note_on,1,0,0,,4,,,64,127
53989,note_off,170,0,0,,4,,,64,127
53990,note_on,1,0,0,,1,,,61,127
54160,note_off,170,0,0,,1,,,61,127
54161,note_on,1,0,0,,10,,,57,127
54253,note_off,92,0,0,,10,,,69,127
54330,note_off,77,0,0,,10,,,57,127
54331,note_on,1,0,0,,12,,,71,127
54331,note_on,0,0,0,,8,,,56,127
54444,note_off,113,0,0,,12,,,71,127
54445,note_on,1,0,0,,1,,,73,127
54501,note_off,56,0,0,,8,,,56,127
54502,note_on,1,0,0,,4,,,52,127
54558,note_off,56,0,0,,1,,,73,127
54559,note_on,1,0,0,,2,,,74,127
54672,note_off,113,0,0,,2,,,74,127
54672,note_off,0,0,0,,4,,,52,127
54673,note_on,1,0,0,,1,,,73,127
54673,note_on,0,0,0,,10,,,57,127
54843,note_off,170,0,0,,1,,,73,127
54844,note_on,1,0,0,,10,,,81,127
55014,note_off,170,0,0,,10,,,81,127
55015,note_on,1,0,0,,6,,,78,127
55185,note_off,170,0,0,,6,,,78,127
55186,note_on,1,0,0,,2,,,74,127
55296,note_off,110,0,0,,10,,,57,127
55356,note_off,60,0,0,,2,,,74,127
55357,note_on,1,0,0,,1,,,73,127
55357,note_on,0,0,0,,7,,,67,127
55527,note_off,170,0,0,,1,,,73,127
55528,note_on,1,0,0,,4,,,76,127
55698,note_off,170,0,0,,4,,,76,127
55698,note_off,0,0,0,,7,,,67,127
55699,note_on,1,0,0,,2,,,74,127
55699,note_on,0,0,0,,6,,,66,127
55869,note_off,170,0,0,,6,,,66,127
55870,note_on,1,0,0,,10,,,69,127
56040,note_off,170,0,0,,10,,,69,127
56041,note_on,1,0,0,,6,,,66,127
56211,note_off,170,0,0,,6,,,66,127
56212,note_on,1,0,0,,2,,,62,127
56358,note_off,146,0,0,,2,,,74,127
56382,note_off,24,0,0,,2,,,62,127
56383,note_on,1,0,0,,4,,,76,127
56383,note_on,0,0,0,,1,,,61,127
56496,note_off,113,0,0,,4,,,76,127
56497,note_on,1,0,0,,6,,,78,127
56553,note_off,56,0,0,,1,,,61,127
56554,note_on,1,0,0,,10,,,57,127
56610,note_off,56,0,0,,6,,,78,127
56611,note_on,1,0,0,,7,,,79,127
56724,note_off,113,0,0,,7,,,79,127
56724,note_off,0,0,0,,10,,,57,127
56725,note_on,1,0,0,,6,,,78,127
56725,note_on,0,0,0,,2,,,62,127
56896,note_on,171,0,0,,12,,,71,127
56939,note_off,43,0,0,,6,,,78,127
57066,note_off,127,0,0,,12,,,71,127
57066,note_off,0,0,0,,2,,,62,127
57067,note_on,1,0,0,,11,,,70,127
57067,note_on,0,0,0,,1,,,61,127
57238,note_on,171,0,0,,4,,,76,127
57281,note_off,43,0,0,,11,,,70,127
57408,note_off,127,0,0,,4,,,76,127
57408,note_off,0,0,0,,1,,,61,127
57409,note_on,1,0,0,,2,,,74,127
57409,note_on,0,0,0,,12,,,59,127
57522,note_off,113,0,0,,2,,,74,127
57523,note_on,1,0,0,,1,,,73,127
57636,note_off,113,0,0,,1,,,73,127
57637,note_on,1,0,0,,12,,,71,127
57750,note_off,113,0,0,,12,,,71,127
57750,note_off,0,0,0,,12,,,59,127
57751,note_on,1,0,0,,1,,,73,127
57751,note_on,0,0,0,,6,,,54,127
57921,note_off,170,0,0,,6,,,54,127
57922,note_on,1,0,0,,4,,,64,127
58092,note_off,170,0,0,,4,,,64,127
58093,note_on,1,0,0,,1,,,61,127
58263,note_off,170,0,0,,1,,,61,127
58264,note_on,1,0,0,,11,,,58,127
58339,note_off,75,0,0,,1,,,73,127
58434,note_off,95,0,0,,11,,,58,127
58435,note_on,1,0,0,,2,,,74,127
58435,note_on,0,0,0,,12,,,59,127
58548,note_off,113,0,0,,2,,,74,127
58549,note_on,1,0,0,,4,,,76,127
58662,note_off,113,0,0,,4,,,76,127
58663,note_on,1,0,0,,6,,,78,127
58776,note_off,113,0,0,,6,,,78,127
58776,note_off,0,0,0,,12,,,59,127
58777,note_on,1,0,0,,1,,,73,127
58777,note_on,0,0,0,,6,,,54,127
58947,note_off,170,0,0,,6,,,54,127
58948,note_on,1,0,0,,4,,,64,127
59118,note_off,170,0,0,,4,,,64,127
59119,note_on,1,0,0,,1,,,61,127
59289,note_off,170,0,0,,1,,,61,127
59290,note_on,1,0,0,,11,,,58,127
59382,note_off,92,0,0,,1,,,73,127
59459,note_off,77,0,0,,11,,,58,127
59460,note_on,1,0,0,,2,,,74,127
59460,note_on,0,0,0,,12,,,59,127
59573,note_off,113,0,0,,2,,,74,127
59574,note_on,1,0,0,,4,,,76,127
59687,note_off,113,0,0,,4,,,76,127
59688,note_on,1,0,0,,6,,,78,127
59801,note_off,113,0,0,,6,,,78,127
59801,note_off,0,0,0,,12,,,59,127
59802,note_on,1,0,0,,1,,,73,127
59802,note_on,0,0,0,,6,,,54,127
59972,note_off,170,0,0,,6,,,54,127
59973,note_on,1,0,0,,4,,,64,127
60143,note_off,170,0,0,,4,,,64,127
60144,note_on,1,0,0,,1,,,61,127
60314,note_off,170,0,0,,1,,,61,127
60315,note_on,1,0,0,,11,,,58,127
60407,note_off,92,0,0,,1,,,73,127
60484,note_off,77,0,0,,11,,,58,127
60485,note_on,1,0,0,,2,,,74,127
60485,note_on,0,0,0,,12,,,59,127
60598,note_off,113,0,0,,2,,,74,127
60599,note_on,1,0,0,,4,,,76,127
60712,note_off,113,0,0,,4,,,76,127
60713,note_on,1,0,0,,6,,,78,127
60826,note_off,113,0,0,,6,,,78,127
60826,note_off,0,0,0,,12,,,59,127
60827,note_on,1,0,0,,11,,,70,127
60827,note_on,0,0,0,,6,,,54,127
60940,note_off,113,0,0,,11,,,70,127
60941,note_on,1,0,0,,12,,,71,127
61054,note_off,113,0,0,,12,,,71,127
61055,note_on,1,0,0,,1,,,73,127
61168,note_off,113,0,0,,1,,,73,127
61168,note_off,0,0,0,,6,,,54,127
61169,note_on,1,0,0,,6,,,66,127
61169,note_on,0,0,0,,4,,,52,127
61282,note_off,113,0,0,,6,,,66,127
61283,note_on,1,0,0,,8,,,68,127
61396,note_off,113,0,0,,8,,,68,127
61397,note_on,1,0,0,,11,,,70,127
61510,note_off,113,0,0,,11,,,70,127
61510,note_off,0,0,0,,4,,,52,127
61511,note_on,1,0,0,,12,,,71,127
61511,note_on,0,0,0,,2,,,50,127
61624,note_off,113,0,0,,12,,,71,127
61625,note_on,1,0,0,,1,,,73,127
61738,note_off,113,0,0,,1,,,73,127
61739,note_on,1,0,0,,2,,,74,127
61852,note_off,113,0,0,,2,,,74,127
61852,note_off,0,0,0,,2,,,50,127
61853,note_on,1,0,0,,1,,,73,127
61853,note_on,0,0,0,,4,,,52,127
61966,note_off,113,0,0,,1,,,73,127
61967,note_on,1,0,0,,2,,,74,127
62080,note_off,113,0,0,,2,,,74,127
62081,note_on,1,0,0,,4,,,76,127
62194,note_off,113,0,0,,4,,,76,127
62194,note_off,0,0,0,,4,,,52,127
62195,note_on,1,0,0,,2,,,74,127
62195,note_on,0,0,0,,6,,,54,127
62365,note_off,170,0,0,,2,,,74,127
62366,note_on,1,0,0,,1,,,73,127
62536,note_off,170,0,0,,1,,,73,127
62536,note_off,0,0,0,,6,,,54,127
62537,note_on,1,0,0,,12,,,71,127
62537,note_on,0,0,0,,4,,,52,127
62707,note_off,170,0,0,,12,,,71,127
62708,note_on,1,0,0,,11,,,70,127
62872,note_off,164,0,0,,11,,,70,127
62892,note_off,20,0,0,,4,,,52,127
62893,note_on,1,0,0,,2,,,50,127
62893,note_on,0,0,0,,12,,,71,127
63063,note_off,170,0,0,,12,,,71,127
63064,note_on,1,0,0,,6,,,78,127
63234,note_off,170,0,0,,2,,,50,127
63235,note_on,1,0,0,,2,,,50,127
63405,note_off,170,0,0,,6,,,78,127
63406,note_on,1,0,0,,2,,,74,127
63576,note_off,170,0,0,,2,,,50,127
63577,note_on,1,0,0,,12,,,59,127
63577,note_on,0,0,0,,2,,,50,127
63747,note_off,170,0,0,,2,,,74,127
63748,note_on,1,0,0,,12,,,71,127
63918,note_off,170,0,0,,2,,,50,127
63918,note_off,0,0,0,,12,,,59,127
63919,note_on,1,0,0,,12,,,59,127
63919,note_on,0,0,0,,1,,,49,127
64077,note_off,158,0,0,,12,,,71,127
64089,note_on,12,0,0,,8,,,80,127
64259,note_off,170,0,0,,1,,,49,127
64259,note_off,0,0,0,,12,,,59,127
64260,note_on,1,0,0,,1,,,49,127
64260,note_on,0,0,0,,12,,,59,127
64430,note_off,170,0,0,,8,,,80,127
64431,note_on,1,0,0,,5,,,77,127
64601,note_off,170,0,0,,12,,,59,127
64601,note_off,0,0,0,,1,,,49,127
64602,note_on,1,0,0,,1,,,49,127
64602,note_on,0,0,0,,12,,,59,127
64772,note_off,170,0,0,,5,,,77,127
64773,note_on,1,0,0,,12,,,71,127
64943,note_off,170,0,0,,12,,,59,127
64943,note_off,0,0,0,,1,,,49,127
64944,note_on,1,0,0,,2,,,50,127
64944,note_on,0,0,0,,12,,,59,127
65048,note_off,104,0,0,,12,,,71,127
65058,note_on,10,0,0,,1,,,73,127
65171,note_off,113,0,0,,1,,,73,127
65172,note_on,1,0,0,,2,,,74,127
65285,note_off,113,0,0,,2,,,74,127
65285,note_off,0,0,0,,12,,,59,127
65285,note_off,0,0,0,,2,,,50,127
65286,note_on,1,0,0,,2,,,50,127
65286,note_on,0,0,0,,12,,,59,127
65286,note_on,0,0,0,,12,,,71,127
65456,note_off,170,0,0,,12,,,71,127
65457,note_on,1,0,0,,10,,,81,127
65627,note_off,170,0,0,,10,,,81,127
65627,note_off,0,0,0,,12,,,59,127
65627,note_off,0,0,0,,2,,,50,127
65628,note_on,1,0,0,,2,,,50,127
65628,note_on,0,0,0,,12,,,59,127
65628,note_on,0,0,0,,8,,,80,127
65798,note_off,170,0,0,,8,,,80,127
65799,note_on,1,0,0,,6,,,78,127
65969,note_off,170,0,0,,6,,,78,127
65969,note_off,0,0,0,,12,,,59,127
65969,note_off,0,0,0,,2,,,50,127
65970,note_on,1,0,0,,8,,,56,127
65970,note_on,0,0,0,,2,,,50,127
65970,note_on,0,0,0,,12,,,59,127
65970,note_on,0,0,0,,4,,,76,127
66140,note_off,170,0,0,,4,,,76,127
66141,note_on,1,0,0,,2,,,74,127
66311,note_off,170,0,0,,2,,,74,127
66311,note_off,0,0,0,,12,,,59,127
66311,note_off,0,0,0,,2,,,50,127
66311,note_off,0,0,0,,8,,,56,127
66312,note_on,1,0,0,,2,,,50,127
66312,note_on,0,0,0,,8,,,56,127
66312,note_on,0,0,0,,12,,,59,127
66312,note_on,0,0,0,,1,,,73,127
66482,note_off,170,0,0,,1,,,73,127
66483,note_on,1,0,0,,12,,,71,127
66653,note_off,170,0,0,,12,,,71,127
66653,note_off,0,0,0,,12,,,59,127
66653,note_off,0,0,0,,8,,,56,127
66653,note_off,0,0,0,,2,,,50,127
66654,note_on,1,0,0,,2,,,50,127
66654,note_on,0,0,0,,8,,,56,127
66654,note_on,0,0,0,,12,,,59,127
66654,note_on,0,0,0,,10,,,69,127
66824,note_off,170,0,0,,10,,,69,127
66825,note_on,1,0,0,,8,,,68,127
66995,note_off,170,0,0,,8,,,68,127
66995,note_off,0,0,0,,12,,,59,127
66995,note_off,0,0,0,,8,,,56,127
66995,note_off,0,0,0,,2,,,50,127
66996,note_on,1,0,0,,1,,,49,127
66996,note_on,0,0,0,,10,,,57,127
66996,note_on,0,0,0,,10,,,69,127
67109,note_off,113,0,0,,10,,,69,127
67110,note_on,1,0,0,,12,,,71,127
67223,note_off,113,0,0,,12,,,71,127
67224,note_on,1,0,0,,1,,,73,127
67337,note_off,113,0,0,,1,,,73,127
67337,note_off,0,0,0,,10,,,57,127
67337,note_off,0,0,0,,1,,,49,127
67338,note_on,1,0,0,,8,,,56,127
67338,note_on,0,0,0,,12,,,71,127
67451,note_off,113,0,0,,12,,,71,127
67452,note_on,1,0,0,,1,,,73,127
67565,note_off,113,0,0,,1,,,73,127
67566,note_on,1,0,0,,2,,,74,127
67679,note_off,113,0,0,,2,,,74,127
67679,note_off,0,0,0,,8,,,56,127
67680,note_on,1,0,0,,10,,,57,127
67680,note_on,0,0,0,,1,,,73,127
67793,note_off,113,0,0,,1,,,73,127
67794,note_on,1,0,0,,2,,,74,127
67907,note_off,113,0,0,,2,,,74,127
67908,note_on,1,0,0,,4,,,76,127
68021,note_off,113,0,0,,4,,,76,127
68021,note_off,0,0,0,,10,,,57,127
68022,note_on,1,0,0,,2,,,50,127
68022,note_on,0,0,0,,6,,,78,127
68135,note_off,113,0,0,,6,,,78,127
68136,note_on,1,0,0,,8,,,80,127
68249,note_off,113,0,0,,8,,,80,127
68250,note_on,1,0,0,,10,,,81,127
68363,note_off,113,0,0,,10,,,81,127
68363,note_off,0,0,0,,2,,,50,127
68364,note_on,1,0,0,,2,,,50,127
68364,note_on,0,0,0,,12,,,71,127
68534,note_off,170,0,0,,12,,,71,127
68535,note_on,1,0,0,,1,,,73,127
68705,note_off,170,0,0,,1,,,73,127
68705,note_off,0,0,0,,2,,,50,127
68706,note_on,1,0,0,,2,,,50,127
68706,note_on,0,0,0,,2,,,74,127
68876,note_off,170,0,0,,2,,,74,127
68877,note_on,1,0,0,,4,,,76,127
69047,note_off,170,0,0,,4,,,76,127
69047,note_off,0,0,0,,2,,,50,127
69048,note_on,1,0,0,,4,,,52,127
69048,note_on,0,0,0,,10,,,69,127
69104,note_off,56,0,0,,10,,,69,127
69105,note_on,1,0,0,,8,,,68,127
69161,note_off,56,0,0,,8,,,68,127
69162,note_on,1,0,0,,10,,,69,127
69218,note_off,56,0,0,,10,,,69,127
69219,note_on,1,0,0,,8,,,68,127
69275,note_off,56,0,0,,8,,,68,127
69276,note_on,1,0,0,,10,,,69,127
69332,note_off,56,0,0,,10,,,69,127
69333,note_on,1,0,0,,8,,,68,127
69389,note_off,56,0,0,,8,,,68,127
69390,note_on,1,0,0,,4,,,40,127
69390,note_on,0,0,0,,10,,,69,127
69446,note_off,56,0,0,,10,,,69,127
69447,note_on,1,0,0,,8,,,68,127
69560,note_off,113,0,0,,8,,,68,127
69561,note_on,1,0,0,,6,,,66,127
69731,note_off,170,0,0,,6,,,66,127
69732,note_on,1,0,0,,4,,,64,127
70072,note_off,340,0,0,,4,,,40,127
70072,note_off,0,0,0,,4,,,52,127
70116,note_on,44,0,0,,8,,,56,127
70116,note_on,0,0,0,,12,,,71,127
70123,note_off,7,0,0,,4,,,64,127
70286,note_off,163,0,0,,8,,,56,127
70287,note_on,1,0,0,,4,,,64,127
70457,note_off,170,0,0,,4,,,64,127
70458,note_on,1,0,0,,4,,,52,127
70628,note_off,170,0,0,,4,,,52,127
70629,note_on,1,0,0,,4,,,64,127
70799,note_off,170,0,0,,4,,,64,127
70799,note_off,0,0,0,,12,,,71,127
70800,note_on,1,0,0,,10,,,57,127
70800,note_on,0,0,0,,1,,,73,127
70913,note_off,113,0,0,,1,,,73,127
70914,note_on,1,0,0,,2,,,74,127
70970,note_off,56,0,0,,10,,,57,127
70971,note_on,1,0,0,,4,,,64,127
71027,note_off,56,0,0,,2,,,74,127
71028,note_on,1,0,0,,4,,,76,127
71141,note_off,113,0,0,,4,,,76,127
71141,note_off,0,0,0,,4,,,64,127
71142,note_on,1,0,0,,8,,,56,127
71142,note_on,0,0,0,,12,,,71,127
71312,note_off,170,0,0,,8,,,56,127
71313,note_on,1,0,0,,4,,,64,127
71483,note_off,170,0,0,,4,,,64,127
71484,note_on,1,0,0,,4,,,52,127
71654,note_off,170,0,0,,4,,,52,127
71655,note_on,1,0,0,,4,,,64,127
71825,note_off,170,0,0,,4,,,64,127
71825,note_off,0,0,0,,12,,,71,127
71826,note_on,1,0,0,,10,,,57,127
71826,note_on,0,0,0,,1,,,73,127
71939,note_off,113,0,0,,1,,,73,127
71940,note_on,1,0,0,,2,,,74,127
71996,note_off,56,0,0,,10,,,57,127
71997,note_on,1,0,0,,4,,,64,127
72053,note_off,56,0,0,,2,,,74,127
72054,note_on,1,0,0,,4,,,76,127
72167,note_off,113,0,0,,4,,,76,127
72167,note_off,0,0,0,,4,,,64,127
72168,note_on,1,0,0,,8,,,56,127
72168,note_on,0,0,0,,12,,,71,127
72338,note_off,170,0,0,,8,,,56,127
72339,note_on,1,0,0,,4,,,64,127
72509,note_off,170,0,0,,4,,,64,127
72510,note_on,1,0,0,,4,,,52,127
72680,note_off,170,0,0,,4,,,52,127
72681,note_on,1,0,0,,4,,,64,127
72851,note_off,170,0,0,,4,,,64,127
72851,note_off,0,0,0,,12,,,71,127
72852,note_on,1,0,0,,10,,,57,127
72852,note_on,0,0,0,,1,,,73,127
72965,note_off,113,0,0,,1,,,73,127
72966,note_on,1,0,0,,2,,,74,127
73022,note_off,56,0,0,,10,,,57,127
73023,note_on,1,0,0,,4,,,64,127
73079,note_off,56,0,0,,2,,,74,127
73080,note_on,1,0,0,,4,,,76,127
73193,note_off,113,0,0,,4,,,76,127
73193,note_off,0,0,0,,4,,,64,127
73194,note_on,1,0,0,,4,,,52,127
73194,note_on,0,0,0,,8,,,68,127
73364,note_off,170,0,0,,4,,,52,127
73365,note_on,1,0,0,,4,,,64,127
73535,note_off,170,0,0,,4,,,64,127
73536,note_on,1,0,0,,2,,,62,127
73649,note_off,113,0,0,,8,,,68,127
73650,note_on,1,0,0,,10,,,69,127
73706,note_off,56,0,0,,2,,,62,127
73707,note_on,1,0,0,,12,,,59,127
73763,note_off,56,0,0,,10,,,69,127
73764,note_on,1,0,0,,12,,,71,127
73877,note_off,113,0,0,,12,,,71,127
73877,note_off,0,0,0,,12,,,59,127
73878,note_on,1,0,0,,1,,,61,127
73878,note_on,0,0,0,,10,,,69,127
73991,note_off,113,0,0,,10,,,69,127
73992,note_on,1,0,0,,12,,,71,127
74048,note_off,56,0,0,,1,,,61,127
74049,note_on,1,0,0,,10,,,57,127
74105,note_off,56,0,0,,12,,,71,127
74106,note_on,1,0,0,,1,,,73,127
74219,note_off,113,0,0,,1,,,73,127
74219,note_off,0,0,0,,10,,,57,127
74220,note_on,1,0,0,,2,,,50,127
74220,note_on,0,0,0,,12,,,71,127
74333,note_off,113,0,0,,12,,,71,127
74334,note_on,1,0,0,,1,,,73,127
74447,note_off,113,0,0,,1,,,73,127
74448,note_on,1,0,0,,2,,,74,127
74561,note_off,113,0,0,,2,,,74,127
74561,note_off,0,0,0,,2,,,50,127
74562,note_on,1,0,0,,4,,,52,127
74562,note_on,0,0,0,,1,,,73,127
74732,note_off,170,0,0,,1,,,73,127
74733,note_on,1,0,0,,12,,,71,127
74903,note_off,170,0,0,,12,,,71,127
74904,note_on,1,0,0,,4,,,40,127
74904,note_on,0,0,0,,10,,,69,127
75074,note_off,170,0,0,,10,,,69,127
75075,note_on,1,0,0,,8,,,68,127
75245,note_off,170,0,0,,8,,,68,127
75245,note_off,0,0,0,,4,,,40,127
75245,note_off,0,0,0,,4,,,52,127
75246,note_on,1,0,0,,10,,,45,127
75246,note_on,0,0,0,,10,,,69,127
75442,note_off,196,0,0,,10,,,69,127
75446,note_on,4,0,0,,2,,,74,127
75616,note_off,170,0,0,,2,,,74,127
75617,note_on,1,0,0,,0,,,72,127
75787,note_off,170,0,0,,0,,,72,127
75788,note_on,1,0,0,,5,,,77,127
75958,note_off,170,0,0,,5,,,77,127
75959,note_on,1,0,0,,4,,,76,127
76129,note_off,170,0,0,,4,,,76,127
76130,note_on,1,0,0,,2,,,74,127
76271,note_off,141,0,0,,10,,,45,127
76299,note_off,28,0,0,,2,,,74,127
76300,note_on,1,0,0,,10,,,45,127
76300,note_on,0,0,0,,0,,,72,127
76470,note_off,170,0,0,,0,,,72,127
76471,note_on,1,0,0,,12,,,71,127
76641,note_off,170,0,0,,12,,,71,127
76642,note_on,1,0,0,,10,,,69,127
76812,note_off,170,0,0,,10,,,69,127
76813,note_on,1,0,0,,7,,,67,127
76983,note_off,170,0,0,,7,,,67,127
76984,note_on,1,0,0,,5,,,65,127
77154,note_off,170,0,0,,5,,,65,127
77155,note_on,1,0,0,,4,,,64,127
77325,note_off,170,0,0,,4,,,64,127
77325,note_off,0,0,0,,10,,,45,127
77326,note_on,1,0,0,,12,,,47,127
77326,note_on,0,0,0,,2,,,62,127
77496,note_off,170,0,0,,2,,,62,127
77497,note_on,1,0,0,,10,,,69,127
77682,note_on,185,0,0,,8,,,68,127
77693,note_off,11,0,0,,10,,,69,127
77852,note_off,159,0,0,,8,,,68,127
77853,note_on,1,0,0,,0,,,72,127
78023,note_off,170,0,0,,0,,,72,127
78024,note_on,1,0,0,,12,,,71,127
78194,note_off,170,0,0,,12,,,71,127
78195,note_on,1,0,0,,4,,,76,127
78351,note_off,156,0,0,,12,,,47,127
78365,note_off,14,0,0,,4,,,76,127
78366,note_on,1,0,0,,2,,,74,127
78366,note_on,0,0,0,,4,,,52,127
78536,note_off,170,0,0,,2,,,74,127
78537,note_on,1,0,0,,10,,,81,127
78707,note_off,170,0,0,,10,,,81,127
78708,note_on,1,0,0,,8,,,80,127
78878,note_off,170,0,0,,8,,,80,127
78879,note_on,1,0,0,,0,,,84,127
79049,note_off,170,0,0,,0,,,84,127
79050,note_on,1,0,0,,12,,,83,127
79220,note_off,170,0,0,,12,,,83,127
79221,note_on,1,0,0,,2,,,86,127
79381,note_off,160,0,0,,4,,,52,127
79391,note_off,10,0,0,,2,,,86,127
79392,note_on,1,0,0,,0,,,84,127
79392,note_on,0,0,0,,10,,,57,127
79577,note_on,185,0,0,,8,,,80,127
79588,note_off,11,0,0,,0,,,84,127
79747,note_off,159,0,0,,8,,,80,127
79748,note_on,1,0,0,,10,,,81,127
79918,note_off,170,0,0,,10,,,81,127
79919,note_on,1,0,0,,4,,,76,127
80089,note_off,170,0,0,,4,,,76,127
80090,note_on,1,0,0,,5,,,77,127
80260,note_off,170,0,0,,5,,,77,127
80261,note_on,1,0,0,,1,,,73,127
80417,note_off,156,0,0,,10,,,57,127
80431,note_off,14,0,0,,1,,,73,127
80432,note_on,1,0,0,,2,,,50,127
80432,note_on,0,0,0,,2,,,74,127
80602,note_off,170,0,0,,2,,,74,127
80603,note_on,1,0,0,,4,,,76,127
80773,note_off,170,0,0,,4,,,76,127
80774,note_on,1,0,0,,5,,,77,127
80944,note_off,170,0,0,,5,,,77,127
80945,note_on,1,0,0,,12,,,71,127
81115,note_off,170,0,0,,12,,,71,127
81116,note_on,1,0,0,,0,,,72,127
81286,note_off,170,0,0,,0,,,72,127
81287,note_on,1,0,0,,2,,,74,127
81457,note_off,170,0,0,,2,,,74,127
81457,note_off,0,0,0,,2,,,50,127
81458,note_on,1,0,0,,4,,,52,127
81458,note_on,0,0,0,,10,,,69,127
81514,note_off,56,0,0,,10,,,69,127
81515,note_on,1,0,0,,8,,,68,127
81571,note_off,56,0,0,,8,,,68,127
81572,note_on,1,0,0,,10,,,69,127
81628,note_off,56,0,0,,10,,,69,127
81629,note_on,1,0,0,,8,,,68,127
81685,note_off,56,0,0,,8,,,68,127
81686,note_on,1,0,0,,10,,,69,127
81742,note_off,56,0,0,,10,,,69,127
81743,note_on,1,0,0,,8,,,68,127
81799,note_off,56,0,0,,8,,,68,127
81800,note_on,1,0,0,,4,,,40,127
81800,note_on,0,0,0,,10,,,69,127
81856,note_off,56,0,0,,10,,,69,127
81857,note_on,1,0,0,,8,,,68,127
81970,note_off,113,0,0,,8,,,68,127
81971,note_on,1,0,0,,6,,,66,127
82141,note_off,170,0,0,,6,,,66,127
82142,note_on,1,0,0,,4,,,64,127
82482,note_off,340,0,0,,4,,,40,127
82482,note_off,0,0,0,,4,,,52,127
82526,note_on,44,0,0,,12,,,71,127
82526,note_on,0,0,0,,8,,,56,127
82569,note_off,43,0,0,,4,,,64,127
82696,note_off,127,0,0,,8,,,56,127
82697,note_on,1,0,0,,4,,,64,127
82867,note_off,170,0,0,,4,,,64,127
82868,note_on,1,0,0,,4,,,52,127
83038,note_off,170,0,0,,4,,,52,127
83039,note_on,1,0,0,,4,,,64,127
83209,note_off,170,0,0,,4,,,64,127
83209,note_off,0,0,0,,12,,,71,127
83210,note_on,1,0,0,,1,,,73,127
83210,note_on,0,0,0,,10,,,57,127
83323,note_off,113,0,0,,1,,,73,127
83324,note_on,1,0,0,,2,,,74,127
83380,note_off,56,0,0,,10,,,57,127
83381,note_on,1,0,0,,4,,,64,127
83437,note_off,56,0,0,,2,,,74,127
83438,note_on,1,0,0,,4,,,76,127
83551,note_off,113,0,0,,4,,,76,127
83551,note_off,0,0,0,,4,,,64,127
83552,note_on,1,0,0,,12,,,71,127
83552,note_on,0,0,0,,8,,,56,127
83722,note_off,170,0,0,,8,,,56,127
83723,note_on,1,0,0,,4,,,64,127
83893,note_off,170,0,0,,4,,,64,127
83894,note_on,1,0,0,,4,,,52,127
84064,note_off,170,0,0,,4,,,52,127
84065,note_on,1,0,0,,4,,,64,127
84235,note_off,170,0,0,,4,,,64,127
84235,note_off,0,0,0,,12,,,71,127
84236,note_on,1,0,0,,1,,,73,127
84236,note_on,0,0,0,,10,,,57,127
84349,note_off,113,0,0,,1,,,73,127
84350,note_on,1,0,0,,2,,,74,127
84406,note_off,56,0,0,,10,,,57,127
84407,note_on,1,0,0,,4,,,64,127
84463,note_off,56,0,0,,2,,,74,127
84464,note_on,1,0,0,,4,,,76,127
84577,note_off,113,0,0,,4,,,76,127
84577,note_off,0,0,0,,4,,,64,127
84578,note_on,1,0,0,,12,,,71,127
84578,note_on,0,0,0,,8,,,56,127
84748,note_off,170,0,0,,8,,,56,127
84749,note_on,1,0,0,,4,,,64,127
84919,note_off,170,0,0,,4,,,64,127
84920,note_on,1,0,0,,4,,,52,127
85090,note_off,170,0,0,,4,,,52,127
85091,note_on,1,0,0,,4,,,64,127
85261,note_off,170,0,0,,4,,,64,127
85261,note_off,0,0,0,,12,,,71,127
85262,note_on,1,0,0,,1,,,73,127
85262,note_on,0,0,0,,10,,,57,127
85375,note_off,113,0,0,,1,,,73,127
85376,note_on,1,0,0,,2,,,74,127
85432,note_off,56,0,0,,10,,,57,127
85433,note_on,1,0,0,,4,,,64,127
85489,note_off,56,0,0,,2,,,74,127
85490,note_on,1,0,0,,4,,,76,127
85603,note_off,113,0,0,,4,,,76,127
85603,note_off,0,0,0,,4,,,64,127
85604,note_on,1,0,0,,8,,,68,127
85604,note_on,0,0,0,,4,,,52,127
85774,note_off,170,0,0,,4,,,52,127
85775,note_on,1,0,0,,4,,,64,127
85945,note_off,170,0,0,,4,,,64,127
85946,note_on,1,0,0,,2,,,62,127
86059,note_off,113,0,0,,8,,,68,127
86060,note_on,1,0,0,,10,,,69,127
86116,note_off,56,0,0,,2,,,62,127
86117,note_on,1,0,0,,12,,,59,127
86173,note_off,56,0,0,,10,,,69,127
86174,note_on,1,0,0,,12,,,71,127
86287,note_off,113,0,0,,12,,,71,127
86287,note_off,0,0,0,,12,,,59,127
86288,note_on,1,0,0,,10,,,69,127
86288,note_on,0,0,0,,1,,,61,127
86401,note_off,113,0,0,,10,,,69,127
86402,note_on,1,0,0,,12,,,71,127
86458,note_off,56,0,0,,1,,,61,127
86459,note_on,1,0,0,,10,,,57,127
86515,note_off,56,0,0,,12,,,71,127
86516,note_on,1,0,0,,1,,,73,127
86629,note_off,113,0,0,,1,,,73,127
86629,note_off,0,0,0,,10,,,57,127
86630,note_on,1,0,0,,12,,,71,127
86630,note_on,0,0,0,,2,,,62,127
86800,note_off,170,0,0,,12,,,71,127
86801,note_on,1,0,0,,6,,,78,127
86971,note_off,170,0,0,,6,,,78,127
86971,note_off,0,0,0,,2,,,62,127
86972,note_on,1,0,0,,4,,,76,127
86972,note_on,0,0,0,,12,,,59,127
87142,note_off,170,0,0,,4,,,76,127
87143,note_on,1,0,0,,2,,,74,127
87313,note_off,170,0,0,,2,,,74,127
87313,note_off,0,0,0,,12,,,59,127
87314,note_on,1,0,0,,1,,,73,127
87314,note_on,0,0,0,,8,,,56,127
87484,note_off,170,0,0,,1,,,73,127
87485,note_on,1,0,0,,12,,,71,127
87655,note_off,170,0,0,,12,,,71,127
87655,note_off,0,0,0,,8,,,56,127
87670,note_on,15,0,0,,10,,,45,127
87670,note_on,0,0,0,,10,,,57,127
87670,note_on,0,0,0,,1,,,73,127
87840,note_off,170,0,0,,1,,,73,127
87841,note_on,1,0,0,,10,,,81,127
88011,note_off,170,0,0,,10,,,45,127
88012,note_on,1,0,0,,12,,,47,127
88124,note_off,112,0,0,,10,,,81,127
88126,note_on,2,0,0,,8,,,80,127
88239,note_off,113,0,0,,8,,,80,127
88240,note_on,1,0,0,,6,,,78,127
88353,note_off,113,0,0,,6,,,78,127
88353,note_off,0,0,0,,12,,,47,127
88354,note_on,1,0,0,,1,,,49,127
88354,note_on,0,0,0,,4,,,76,127
88467,note_off,113,0,0,,4,,,76,127
88468,note_on,1,0,0,,2,,,74,127
88581,note_off,113,0,0,,2,,,74,127
88582,note_on,1,0,0,,1,,,73,127
88694,note_off,112,0,0,,10,,,57,127
88695,note_off,1,0,0,,1,,,73,127
88695,note_off,0,0,0,,1,,,49,127
88696,note_on,1,0,0,,2,,,50,127
88696,note_on,0,0,0,,6,,,78,127
88809,note_off,113,0,0,,6,,,78,127
88810,note_on,1,0,0,,4,,,76,127
88923,note_off,113,0,0,,4,,,76,127
88924,note_on,1,0,0,,2,,,74,127
89037,note_off,113,0,0,,2,,,74,127
89037,note_off,0,0,0,,2,,,50,127
89038,note_on,1,0,0,,4,,,52,127
89038,note_on,0,0,0,,1,,,73,127
89151,note_off,113,0,0,,1,,,73,127
89152,note_on,1,0,0,,12,,,71,127
89265,note_off,113,0,0,,12,,,71,127
89266,note_on,1,0,0,,10,,,69,127
89379,note_off,113,0,0,,10,,,69,127
89380,note_on,1,0,0,,4,,,40,127
89380,note_on,0,0,0,,12,,,71,127
89493,note_off,113,0,0,,12,,,71,127
89494,note_on,1,0,0,,1,,,73,127
89607,note_off,113,0,0,,1,,,73,127
89608,note_on,1,0,0,,2,,,74,127
89721,note_off,113,0,0,,2,,,74,127
89721,note_off,0,0,0,,4,,,40,127
89721,note_off,0,0,0,,4,,,52,127
89722,note_on,1,0,0,,10,,,45,127
89722,note_on,0,0,0,,1,,,73,127
89907,note_on,185,0,0,,10,,,81,127
89935,note_off,28,0,0,,1,,,73,127
90062,note_off,127,0,0,,10,,,45,127
90077,note_on,15,0,0,,12,,,47,127
90189,note_off,112,0,0,,10,,,81,127
90191,note_on,2,0,0,,8,,,80,127
90304,note_off,113,0,0,,8,,,80,127
90305,note_on,1,0,0,,6,,,78,127
90418,note_off,113,0,0,,6,,,78,127
90418,note_off,0,0,0,,12,,,47,127
90419,note_on,1,0,0,,4,,,76,127
90419,note_on,0,0,0,,1,,,49,127
90532,note_off,113,0,0,,4,,,76,127
90533,note_on,1,0,0,,2,,,74,127
90646,note_off,113,0,0,,2,,,74,127
90647,note_on,1,0,0,,1,,,73,127
90760,note_off,113,0,0,,1,,,73,127
90760,note_off,0,0,0,,1,,,49,127
90761,note_on,1,0,0,,6,,,78,127
90761,note_on,0,0,0,,2,,,50,127
90874,note_off,113,0,0,,6,,,78,127
90875,note_on,1,0,0,,4,,,76,127
90988,note_off,113,0,0,,4,,,76,127
90989,note_on,1,0,0,,2,,,74,127
91102,note_off,113,0,0,,2,,,74,127
91102,note_off,0,0,0,,2,,,50,127
91103,note_on,1,0,0,,1,,,73,127
91103,note_on,0,0,0,,4,,,52,127
91216,note_off,113,0,0,,1,,,73,127
91217,note_on,1,0,0,,12,,,71,127
91330,note_off,113,0,0,,12,,,71,127
91331,note_on,1,0,0,,10,,,69,127
91444,note_off,113,0,0,,10,,,69,127
91445,note_on,1,0,0,,12,,,71,127
91445,note_on,0,0,0,,4,,,40,127
91558,note_off,113,0,0,,12,,,71,127
91559,note_on,1,0,0,,10,,,69,127
91672,note_off,113,0,0,,10,,,69,127
91673,note_on,1,0,0,,8,,,68,127
91786,note_off,113,0,0,,8,,,68,127
91786,note_off,0,0,0,,4,,,40,127
91786,note_off,0,0,0,,4,,,52,127
91787,note_on,1,0,0,,10,,,69,127
91787,note_on,0,0,0,,10,,,45,127
93835,note_off,2048,0,0,,10,,,45,127
93835,note_off,0,0,0,,10,,,69,127
95232,end_of_track,1397,1,0,,,,,,
