tick,type,time,meta,track,program,channel,pitch,tempo,note,velocity
0,copyright,0,1,0,,,,,,
0,program_change,0,0,0,6,0,,,,
0,pitchwheel,0,0,0,,0,0,,,
0,program_change,0,0,0,6,1,,,,
0,pitchwheel,0,0,0,,1,-590,,,
0,program_change,0,0,0,6,2,,,,
0,pitchwheel,0,0,0,,2,-272,,,
0,program_change,0,0,0,6,3,,,,
0,pitchwheel,0,0,0,,3,-353,,,
0,program_change,0,0,0,6,4,,,,
0,pitchwheel,0,0,0,,4,-560,,,
0,program_change,0,0,0,6,5,,,,
0,pitchwheel,0,0,0,,5,-80,,,
0,program_change,0,0,0,6,6,,,,
0,pitchwheel,0,0,0,,6,-625,,,
0,program_change,0,0,0,6,7,,,,
0,pitchwheel,0,0,0,,7,-130,,,
0,program_change,0,0,0,6,8,,,,
0,pitchwheel,0,0,0,,8,-512,,,
0,program_change,0,0,0,6,10,,,,
0,pitchwheel,0,0,0,,10,-464,,,
0,program_change,0,0,0,6,11,,,,
0,pitchwheel,0,0,0,,11,-208,,,
0,program_change,0,0,0,6,12,,,,
0,pitchwheel,0,0,0,,12,-553,,,
0,set_tempo,0,1,0,,,,500000,,
105,note_on,105,0,0,,10,,,57,127
105,note_on,0,0,0,,6,,,78,127
175,note_on,70,0,0,,4,,,76,127
208,note_off,33,0,0,,6,,,78,127
245,note_on,37,0,0,,6,,,78,127
278,note_off,33,0,0,,4,,,76,127
315,note_on,37,0,0,,4,,,76,127
348,note_off,33,0,0,,6,,,78,127
385,note_on,37,0,0,,6,,,78,127
418,note_off,33,0,0,,4,,,76,127
455,note_on,37,0,0,,4,,,76,127
488,note_off,33,0,0,,6,,,78,127
523,note_off,35,0,0,,10,,,57,127
525,note_on,2,0,0,,1,,,61,127
525,note_on,0,0,0,,6,,,78,127
558,note_off,33,0,0,,4,,,76,127
595,note_on,37,0,0,,4,,,76,127
628,note_off,33,0,0,,6,,,78,127
665,note_on,37,0,0,,6,,,78,127
698,note_off,33,0,0,,4,,,76,127
735,note_on,37,0,0,,4,,,76,127
768,note_off,33,0,0,,6,,,78,127
805,note_on,37,0,0,,2,,,74,127
838,note_off,33,0,0,,4,,,76,127
875,note_on,37,0,0,,4,,,76,127
908,note_off,33,0,0,,2,,,74,127
943,note_off,35,0,0,,1,,,61,127
944,note_off,1,0,0,,4,,,76,127
945,note_on,1,0,0,,2,,,62,127
945,note_on,0,0,0,,6,,,78,127
1152,note_off,207,0,0,,6,,,78,127
1154,note_on,2,0,0,,8,,,80,127
1257,note_off,103,0,0,,8,,,80,127
1259,note_on,2,0,0,,10,,,81,127
1362,note_off,103,0,0,,10,,,81,127
1362,note_off,0,0,0,,2,,,62,127
1364,note_on,2,0,0,,8,,,56,127
1364,note_on,0,0,0,,4,,,64,127
1364,note_on,0,0,0,,12,,,71,127
1571,note_off,207,0,0,,12,,,71,127
1573,note_on,2,0,0,,1,,,73,127
1676,note_off,103,0,0,,1,,,73,127
1678,note_on,2,0,0,,2,,,74,127
1781,note_off,103,0,0,,2,,,74,127
1781,note_off,0,0,0,,8,,,56,127
1783,note_on,2,0,0,,10,,,57,127
1783,note_on,0,0,0,,1,,,73,127
1990,note_off,207,0,0,,1,,,73,127
1992,note_on,2,0,0,,2,,,74,127
2095,note_off,103,0,0,,2,,,74,127
2097,note_on,2,0,0,,4,,,76,127
2200,note_off,103,0,0,,4,,,76,127
2200,note_off,0,0,0,,10,,,57,127
2201,note_off,1,0,0,,4,,,64,127
2202,note_on,1,0,0,,1,,,61,127
2202,note_on,0,0,0,,10,,,69,127
2409,note_off,207,0,0,,10,,,69,127
2411,note_on,2,0,0,,12,,,71,127
2514,note_off,103,0,0,,12,,,71,127
2516,note_on,2,0,0,,1,,,73,127
2619,note_off,103,0,0,,1,,,73,127
2619,note_off,0,0,0,,1,,,61,127
2621,note_on,2,0,0,,2,,,62,127
2621,note_on,0,0,0,,6,,,66,127
2828,note_off,207,0,0,,6,,,66,127
2830,note_on,2,0,0,,2,,,74,127
3037,note_off,207,0,0,,2,,,74,127
3037,note_off,0,0,0,,2,,,62,127
3039,note_on,2,0,0,,4,,,64,127
3039,note_on,0,0,0,,1,,,73,127
3142,note_off,103,0,0,,1,,,73,127
3144,note_on,2,0,0,,12,,,71,127
3247,note_off,103,0,0,,12,,,71,127
3249,note_on,2,0,0,,10,,,69,127
3352,note_off,103,0,0,,10,,,69,127
3354,note_on,2,0,0,,8,,,68,127
3430,note_off,76,0,0,,8,,,68,127
3456,note_off,26,0,0,,4,,,64,127
3458,note_on,2,0,0,,10,,,57,127
3458,note_on,0,0,0,,1,,,73,127
3665,note_off,207,0,0,,1,,,73,127
3667,note_on,2,0,0,,2,,,74,127
3770,note_off,103,0,0,,2,,,74,127
3772,note_on,2,0,0,,4,,,76,127
3875,note_off,103,0,0,,4,,,76,127
3875,note_off,0,0,0,,10,,,57,127
3877,note_on,2,0,0,,1,,,61,127
3877,note_on,0,0,0,,10,,,69,127
4084,note_off,207,0,0,,10,,,69,127
4086,note_on,2,0,0,,12,,,71,127
4189,note_off,103,0,0,,12,,,71,127
4191,note_on,2,0,0,,1,,,73,127
4294,note_off,103,0,0,,1,,,73,127
4294,note_off,0,0,0,,1,,,61,127
4296,note_on,2,0,0,,2,,,62,127
4296,note_on,0,0,0,,6,,,66,127
4503,note_off,207,0,0,,6,,,66,127
4505,note_on,2,0,0,,2,,,74,127
4712,note_off,207,0,0,,2,,,74,127
4712,note_off,0,0,0,,2,,,62,127
4714,note_on,2,0,0,,4,,,64,127
4714,note_on,0,0,0,,1,,,73,127
4817,note_off,103,0,0,,1,,,73,127
4819,note_on,2,0,0,,12,,,71,127
4922,note_off,103,0,0,,12,,,71,127
4924,note_on,2,0,0,,10,,,69,127
5027,note_off,103,0,0,,10,,,69,127
5029,note_on,2,0,0,,8,,,68,127
5132,note_off,103,0,0,,8,,,68,127
5132,note_off,0,0,0,,4,,,64,127
5134,note_on,2,0,0,,10,,,57,127
5134,note_on,0,0,0,,10,,,69,127
5341,note_off,207,0,0,,10,,,69,127
5343,note_on,2,0,0,,10,,,81,127
5446,note_off,103,0,0,,10,,,81,127
5448,note_on,2,0,0,,6,,,78,127
5551,note_off,103,0,0,,6,,,78,127
5553,note_on,2,0,0,,4,,,76,127
5760,note_off,207,0,0,,10,,,57,127
5762,note_on,2,0,0,,10,,,69,127
5969,note_off,207,0,0,,10,,,69,127
5971,note_on,2,0,0,,8,,,68,127
6074,note_off,103,0,0,,4,,,76,127
6076,note_on,2,0,0,,1,,,73,127
6179,note_off,103,0,0,,1,,,73,127
6179,note_off,0,0,0,,8,,,68,127
6181,note_on,2,0,0,,6,,,66,127
6181,note_on,0,0,0,,2,,,74,127
6284,note_off,103,0,0,,2,,,74,127
6286,note_on,2,0,0,,12,,,71,127
6389,note_off,103,0,0,,12,,,71,127
6389,note_off,0,0,0,,6,,,66,127
6391,note_on,2,0,0,,4,,,64,127
6391,note_on,0,0,0,,1,,,73,127
6494,note_off,103,0,0,,1,,,73,127
6496,note_on,2,0,0,,10,,,69,127
6599,note_off,103,0,0,,10,,,69,127
6599,note_off,0,0,0,,4,,,64,127
6601,note_on,2,0,0,,2,,,62,127
6601,note_on,0,0,0,,12,,,71,127
6704,note_off,103,0,0,,12,,,71,127
6706,note_on,2,0,0,,8,,,68,127
6809,note_off,103,0,0,,8,,,68,127
6809,note_off,0,0,0,,2,,,62,127
6811,note_on,2,0,0,,1,,,61,127
6811,note_on,0,0,0,,10,,,69,127
7020,note_on,209,0,0,,10,,,81,127
7123,note_off,103,0,0,,10,,,81,127
7125,note_on,2,0,0,,6,,,78,127
7228,note_off,103,0,0,,6,,,78,127
7230,note_on,2,0,0,,4,,,76,127
7335,note_off,105,0,0,,1,,,61,127
7439,note_off,104,0,0,,10,,,69,127
7440,note_on,1,0,0,,10,,,69,127
7647,note_off,207,0,0,,10,,,69,127
7649,note_on,2,0,0,,8,,,68,127
7752,note_off,103,0,0,,4,,,76,127
7754,note_on,2,0,0,,1,,,73,127
7857,note_off,103,0,0,,1,,,73,127
7857,note_off,0,0,0,,8,,,68,127
7859,note_on,2,0,0,,6,,,66,127
7859,note_on,0,0,0,,2,,,74,127
7962,note_off,103,0,0,,2,,,74,127
7964,note_on,2,0,0,,12,,,71,127
8067,note_off,103,0,0,,12,,,71,127
8067,note_off,0,0,0,,6,,,66,127
8069,note_on,2,0,0,,4,,,64,127
8069,note_on,0,0,0,,1,,,73,127
8172,note_off,103,0,0,,1,,,73,127
8174,note_on,2,0,0,,10,,,69,127
8277,note_off,103,0,0,,10,,,69,127
8277,note_off,0,0,0,,4,,,64,127
8279,note_on,2,0,0,,2,,,62,127
8279,note_on,0,0,0,,12,,,71,127
8382,note_off,103,0,0,,12,,,71,127
8384,note_on,2,0,0,,8,,,68,127
8487,note_off,103,0,0,,8,,,68,127
8487,note_off,0,0,0,,2,,,62,127
8489,note_on,2,0,0,,1,,,61,127
8489,note_on,0,0,0,,10,,,69,127
8696,note_off,207,0,0,,10,,,69,127
8698,note_on,2,0,0,,4,,,76,127
8801,note_off,103,0,0,,4,,,76,127
8803,note_on,2,0,0,,6,,,78,127
8882,note_off,79,0,0,,1,,,61,127
8906,note_off,24,0,0,,6,,,78,127
8908,note_on,2,0,0,,8,,,56,127
8908,note_on,0,0,0,,4,,,64,127
8908,note_on,0,0,0,,4,,,76,127
9115,note_off,207,0,0,,4,,,76,127
9117,note_on,2,0,0,,2,,,74,127
9324,note_off,207,0,0,,2,,,74,127
9324,note_off,0,0,0,,4,,,64,127
9324,note_off,0,0,0,,8,,,56,127
9326,note_on,2,0,0,,10,,,57,127
9326,note_on,0,0,0,,4,,,64,127
9326,note_on,0,0,0,,1,,,73,127
9533,note_off,207,0,0,,1,,,73,127
9535,note_on,2,0,0,,4,,,76,127
9638,note_off,103,0,0,,4,,,76,127
9640,note_on,2,0,0,,6,,,78,127
9743,note_off,103,0,0,,6,,,78,127
9743,note_off,0,0,0,,4,,,64,127
9743,note_off,0,0,0,,10,,,57,127
9745,note_on,2,0,0,,8,,,56,127
9745,note_on,0,0,0,,4,,,64,127
9745,note_on,0,0,0,,4,,,76,127
9952,note_off,207,0,0,,4,,,76,127
9954,note_on,2,0,0,,2,,,74,127
10161,note_off,207,0,0,,2,,,74,127
10161,note_off,0,0,0,,4,,,64,127
10161,note_off,0,0,0,,8,,,56,127
10163,note_on,2,0,0,,10,,,57,127
10163,note_on,0,0,0,,4,,,64,127
10163,note_on,0,0,0,,1,,,73,127
10359,note_off,196,0,0,,1,,,73,127
10372,note_on,13,0,0,,1,,,73,127
10475,note_off,103,0,0,,1,,,73,127
10477,note_on,2,0,0,,2,,,74,127
10580,note_off,103,0,0,,2,,,74,127
10580,note_off,0,0,0,,4,,,64,127
10580,note_off,0,0,0,,10,,,57,127
10582,note_on,2,0,0,,7,,,55,127
10582,note_on,0,0,0,,4,,,64,127
10582,note_on,0,0,0,,1,,,73,127
10789,note_off,207,0,0,,1,,,73,127
10791,note_on,2,0,0,,12,,,71,127
10998,note_off,207,0,0,,12,,,71,127
10998,note_off,0,0,0,,4,,,64,127
10998,note_off,0,0,0,,7,,,55,127
11000,note_on,2,0,0,,6,,,54,127
11000,note_on,0,0,0,,4,,,64,127
11000,note_on,0,0,0,,11,,,70,127
11207,note_off,207,0,0,,11,,,70,127
11209,note_on,2,0,0,,1,,,73,127
11312,note_off,103,0,0,,1,,,73,127
11314,note_on,2,0,0,,2,,,74,127
11417,note_off,103,0,0,,2,,,74,127
11417,note_off,0,0,0,,4,,,64,127
11417,note_off,0,0,0,,6,,,54,127
11419,note_on,2,0,0,,4,,,64,127
11419,note_on,0,0,0,,7,,,55,127
11419,note_on,0,0,0,,1,,,73,127
11626,note_off,207,0,0,,1,,,73,127
11628,note_on,2,0,0,,12,,,71,127
11835,note_off,207,0,0,,12,,,71,127
11835,note_off,0,0,0,,7,,,55,127
11835,note_off,0,0,0,,4,,,64,127
11837,note_on,2,0,0,,4,,,64,127
11837,note_on,0,0,0,,6,,,54,127
11837,note_on,0,0,0,,11,,,70,127
12044,note_off,207,0,0,,4,,,64,127
12046,note_on,2,0,0,,2,,,62,127
12149,note_off,103,0,0,,2,,,62,127
12151,note_on,2,0,0,,1,,,61,127
12254,note_off,103,0,0,,1,,,61,127
12254,note_off,0,0,0,,11,,,70,127
12256,note_on,2,0,0,,2,,,62,127
12256,note_on,0,0,0,,12,,,71,127
12463,note_off,207,0,0,,2,,,62,127
12464,note_off,1,0,0,,6,,,54,127
12465,note_on,1,0,0,,1,,,61,127
12568,note_off,103,0,0,,1,,,61,127
12570,note_on,2,0,0,,12,,,59,127
12673,note_off,103,0,0,,12,,,59,127
12673,note_off,0,0,0,,12,,,71,127
12675,note_on,2,0,0,,11,,,58,127
12675,note_on,0,0,0,,1,,,73,127
12882,note_off,207,0,0,,1,,,73,127
12884,note_on,2,0,0,,2,,,74,127
12987,note_off,103,0,0,,2,,,74,127
12989,note_on,2,0,0,,4,,,76,127
13092,note_off,103,0,0,,4,,,76,127
13092,note_off,0,0,0,,11,,,58,127
13094,note_on,2,0,0,,12,,,59,127
13094,note_on,0,0,0,,2,,,74,127
13301,note_off,207,0,0,,2,,,74,127
13303,note_on,2,0,0,,1,,,73,127
13406,note_off,103,0,0,,1,,,73,127
13408,note_on,2,0,0,,12,,,71,127
13511,note_off,103,0,0,,12,,,71,127
13511,note_off,0,0,0,,12,,,59,127
13513,note_on,2,0,0,,6,,,54,127
13513,note_on,0,0,0,,1,,,73,127
13709,note_off,196,0,0,,1,,,73,127
13722,note_on,13,0,0,,6,,,78,127
13825,note_off,103,0,0,,6,,,78,127
13827,note_on,2,0,0,,7,,,79,127
13930,note_off,103,0,0,,7,,,79,127
13930,note_off,0,0,0,,6,,,54,127
13932,note_on,2,0,0,,1,,,61,127
13932,note_on,0,0,0,,11,,,58,127
13932,note_on,0,0,0,,6,,,78,127
14139,note_off,207,0,0,,6,,,78,127
14141,note_on,2,0,0,,4,,,76,127
14348,note_off,207,0,0,,4,,,76,127
14348,note_off,0,0,0,,11,,,58,127
14348,note_off,0,0,0,,1,,,61,127
14350,note_on,2,0,0,,12,,,59,127
14350,note_on,0,0,0,,2,,,62,127
14350,note_on,0,0,0,,2,,,74,127
14557,note_off,207,0,0,,2,,,74,127
14559,note_on,2,0,0,,6,,,78,127
14662,note_off,103,0,0,,6,,,78,127
14664,note_on,2,0,0,,7,,,79,127
14767,note_off,103,0,0,,7,,,79,127
14767,note_off,0,0,0,,2,,,62,127
14767,note_off,0,0,0,,12,,,59,127
14769,note_on,2,0,0,,1,,,61,127
14769,note_on,0,0,0,,11,,,58,127
14769,note_on,0,0,0,,6,,,78,127
14976,note_off,207,0,0,,6,,,78,127
14978,note_on,2,0,0,,4,,,76,127
15185,note_off,207,0,0,,4,,,76,127
15185,note_off,0,0,0,,11,,,58,127
15185,note_off,0,0,0,,1,,,61,127
15187,note_on,2,0,0,,2,,,62,127
15187,note_on,0,0,0,,12,,,59,127
15187,note_on,0,0,0,,2,,,74,127
15394,note_off,207,0,0,,12,,,59,127
15394,note_off,0,0,0,,2,,,62,127
15396,note_on,2,0,0,,12,,,71,127
15499,note_off,103,0,0,,12,,,71,127
15501,note_on,2,0,0,,10,,,69,127
15569,note_off,68,0,0,,2,,,74,127
15604,note_off,35,0,0,,10,,,69,127
15606,note_on,2,0,0,,8,,,68,127
15606,note_on,0,0,0,,12,,,83,127
15813,note_off,207,0,0,,8,,,68,127
15815,note_on,2,0,0,,6,,,66,127
16022,note_off,207,0,0,,6,,,66,127
16024,note_on,2,0,0,,4,,,64,127
16127,note_off,103,0,0,,12,,,83,127
16129,note_on,2,0,0,,8,,,80,127
16232,note_off,103,0,0,,8,,,80,127
16234,note_on,2,0,0,,10,,,81,127
16337,note_off,103,0,0,,10,,,81,127
16339,note_on,2,0,0,,6,,,78,127
16442,note_off,103,0,0,,6,,,78,127
16444,note_on,2,0,0,,4,,,52,127
16444,note_on,0,0,0,,8,,,80,127
16547,note_off,103,0,0,,8,,,80,127
16549,note_on,2,0,0,,4,,,76,127
16652,note_off,103,0,0,,4,,,76,127
16654,note_on,2,0,0,,6,,,78,127
16757,note_off,103,0,0,,6,,,78,127
16759,note_on,2,0,0,,2,,,74,127
16862,note_off,103,0,0,,2,,,74,127
16862,note_off,0,0,0,,4,,,52,127
16863,note_off,1,0,0,,4,,,64,127
16864,note_on,1,0,0,,10,,,57,127
16864,note_on,0,0,0,,1,,,73,127
17071,note_off,207,0,0,,10,,,57,127
17073,note_on,2,0,0,,10,,,69,127
17176,note_off,103,0,0,,10,,,69,127
17178,note_on,2,0,0,,8,,,68,127
17213,note_off,35,0,0,,1,,,73,127
17281,note_off,68,0,0,,8,,,68,127
17283,note_on,2,0,0,,6,,,66,127
17283,note_on,0,0,0,,10,,,81,127
17490,note_off,207,0,0,,6,,,66,127
17492,note_on,2,0,0,,4,,,64,127
17699,note_off,207,0,0,,4,,,64,127
17701,note_on,2,0,0,,2,,,62,127
17804,note_off,103,0,0,,10,,,81,127
17806,note_on,2,0,0,,8,,,80,127
17909,note_off,103,0,0,,8,,,80,127
17911,note_on,2,0,0,,6,,,78,127
18014,note_off,103,0,0,,6,,,78,127
18016,note_on,2,0,0,,4,,,76,127
18119,note_off,103,0,0,,4,,,76,127
18121,note_on,2,0,0,,2,,,50,127
18121,note_on,0,0,0,,2,,,74,127
18224,note_off,103,0,0,,2,,,74,127
18226,note_on,2,0,0,,1,,,73,127
18329,note_off,103,0,0,,1,,,73,127
18331,note_on,2,0,0,,12,,,71,127
18434,note_off,103,0,0,,12,,,71,127
18436,note_on,2,0,0,,10,,,69,127
18539,note_off,103,0,0,,10,,,69,127
18539,note_off,0,0,0,,2,,,50,127
18540,note_off,1,0,0,,2,,,62,127
18541,note_on,1,0,0,,4,,,52,127
18541,note_on,0,0,0,,8,,,68,127
18748,note_off,207,0,0,,8,,,68,127
18750,note_on,2,0,0,,4,,,76,127
18853,note_off,103,0,0,,4,,,76,127
18855,note_on,2,0,0,,6,,,78,127
18958,note_off,103,0,0,,6,,,78,127
18958,note_off,0,0,0,,4,,,52,127
18960,note_on,2,0,0,,8,,,56,127
18960,note_on,0,0,0,,4,,,64,127
18960,note_on,0,0,0,,4,,,76,127
19167,note_off,207,0,0,,4,,,76,127
19169,note_on,2,0,0,,2,,,74,127
19376,note_off,207,0,0,,2,,,74,127
19376,note_off,0,0,0,,4,,,64,127
19376,note_off,0,0,0,,8,,,56,127
19378,note_on,2,0,0,,4,,,64,127
19378,note_on,0,0,0,,10,,,57,127
19378,note_on,0,0,0,,1,,,73,127
19585,note_off,207,0,0,,1,,,73,127
19587,note_on,2,0,0,,4,,,76,127
19690,note_off,103,0,0,,4,,,76,127
19692,note_on,2,0,0,,6,,,78,127
19795,note_off,103,0,0,,6,,,78,127
19795,note_off,0,0,0,,10,,,57,127
19795,note_off,0,0,0,,4,,,64,127
19797,note_on,2,0,0,,8,,,56,127
19797,note_on,0,0,0,,4,,,64,127
19797,note_on,0,0,0,,4,,,76,127
20004,note_off,207,0,0,,4,,,76,127
20006,note_on,2,0,0,,2,,,74,127
20213,note_off,207,0,0,,2,,,74,127
20213,note_off,0,0,0,,4,,,64,127
20213,note_off,0,0,0,,8,,,56,127
20215,note_on,2,0,0,,4,,,64,127
20215,note_on,0,0,0,,10,,,57,127
20215,note_on,0,0,0,,1,,,73,127
20411,note_off,196,0,0,,1,,,73,127
20424,note_on,13,0,0,,10,,,81,127
20631,note_off,207,0,0,,10,,,57,127
20631,note_off,0,0,0,,4,,,64,127
20633,note_on,2,0,0,,1,,,61,127
20838,note_off,205,0,0,,10,,,81,127
20842,note_on,4,0,0,,8,,,80,127
20945,note_off,103,0,0,,8,,,80,127
20947,note_on,2,0,0,,10,,,81,127
21050,note_off,103,0,0,,10,,,81,127
21050,note_off,0,0,0,,1,,,61,127
21052,note_on,2,0,0,,3,,,63,127
21052,note_on,0,0,0,,12,,,71,127
21259,note_off,207,0,0,,12,,,71,127
21261,note_on,2,0,0,,8,,,80,127
21468,note_off,207,0,0,,3,,,63,127
21470,note_on,2,0,0,,4,,,64,127
21677,note_off,207,0,0,,8,,,80,127
21679,note_on,2,0,0,,6,,,78,127
21782,note_off,103,0,0,,6,,,78,127
21784,note_on,2,0,0,,8,,,80,127
21887,note_off,103,0,0,,8,,,80,127
21887,note_off,0,0,0,,4,,,64,127
21889,note_on,2,0,0,,1,,,61,127
21889,note_on,0,0,0,,10,,,69,127
22096,note_off,207,0,0,,10,,,69,127
22098,note_on,2,0,0,,6,,,78,127
22305,note_off,207,0,0,,1,,,61,127
22307,note_on,2,0,0,,3,,,63,127
22514,note_off,207,0,0,,6,,,78,127
22516,note_on,2,0,0,,4,,,76,127
22619,note_off,103,0,0,,4,,,76,127
22621,note_on,2,0,0,,6,,,78,127
22724,note_off,103,0,0,,6,,,78,127
22724,note_off,0,0,0,,3,,,63,127
22726,note_on,2,0,0,,4,,,64,127
22726,note_on,0,0,0,,8,,,68,127
22933,note_off,207,0,0,,8,,,68,127
22935,note_on,2,0,0,,12,,,71,127
23038,note_off,103,0,0,,12,,,71,127
23040,note_on,2,0,0,,4,,,76,127
23143,note_off,103,0,0,,4,,,76,127
23143,note_off,0,0,0,,4,,,64,127
23145,note_on,2,0,0,,8,,,56,127
23145,note_on,0,0,0,,4,,,64,127
23145,note_on,0,0,0,,12,,,71,127
23352,note_off,207,0,0,,12,,,71,127
23354,note_on,2,0,0,,4,,,76,127
23561,note_off,207,0,0,,4,,,76,127
23561,note_off,0,0,0,,4,,,64,127
23561,note_off,0,0,0,,8,,,56,127
23563,note_on,2,0,0,,10,,,57,127
23563,note_on,0,0,0,,4,,,64,127
23563,note_on,0,0,0,,1,,,73,127
23770,note_off,207,0,0,,1,,,73,127
23772,note_on,2,0,0,,4,,,76,127
23875,note_off,103,0,0,,4,,,76,127
23877,note_on,2,0,0,,10,,,81,127
23980,note_off,103,0,0,,10,,,81,127
23980,note_off,0,0,0,,4,,,64,127
23980,note_off,0,0,0,,10,,,57,127
23982,note_on,2,0,0,,4,,,64,127
23982,note_on,0,0,0,,10,,,57,127
23982,note_on,0,0,0,,4,,,76,127
24189,note_off,207,0,0,,4,,,76,127
24191,note_on,2,0,0,,10,,,81,127
24398,note_off,207,0,0,,10,,,81,127
24398,note_off,0,0,0,,10,,,57,127
24398,note_off,0,0,0,,4,,,64,127
24400,note_on,2,0,0,,8,,,56,127
24400,note_on,0,0,0,,4,,,64,127
24400,note_on,0,0,0,,4,,,76,127
24607,note_off,207,0,0,,4,,,76,127
24609,note_on,2,0,0,,12,,,71,127
24712,note_off,103,0,0,,12,,,71,127
24714,note_on,2,0,0,,4,,,76,127
24817,note_off,103,0,0,,4,,,76,127
24817,note_off,0,0,0,,4,,,64,127
24817,note_off,0,0,0,,8,,,56,127
24819,note_on,2,0,0,,8,,,56,127
24819,note_on,0,0,0,,4,,,64,127
24819,note_on,0,0,0,,12,,,71,127
25026,note_off,207,0,0,,12,,,71,127
25028,note_on,2,0,0,,4,,,76,127
25235,note_off,207,0,0,,4,,,76,127
25235,note_off,0,0,0,,4,,,64,127
25235,note_off,0,0,0,,8,,,56,127
25237,note_on,2,0,0,,4,,,64,127
25237,note_on,0,0,0,,10,,,57,127
25237,note_on,0,0,0,,1,,,73,127
25444,note_off,207,0,0,,1,,,73,127
25446,note_on,2,0,0,,4,,,76,127
25549,note_off,103,0,0,,4,,,76,127
25551,note_on,2,0,0,,10,,,81,127
25654,note_off,103,0,0,,10,,,81,127
25654,note_off,0,0,0,,10,,,57,127
25654,note_off,0,0,0,,4,,,64,127
25656,note_on,2,0,0,,4,,,64,127
25656,note_on,0,0,0,,10,,,57,127
25656,note_on,0,0,0,,4,,,76,127
25863,note_off,207,0,0,,4,,,76,127
25865,note_on,2,0,0,,10,,,81,127
26072,note_off,207,0,0,,10,,,81,127
26072,note_off,0,0,0,,10,,,57,127
26072,note_off,0,0,0,,4,,,64,127
26074,note_on,2,0,0,,8,,,56,127
26074,note_on,0,0,0,,4,,,64,127
26074,note_on,0,0,0,,4,,,76,127
26281,note_off,207,0,0,,4,,,76,127
26283,note_on,2,0,0,,12,,,83,127
26386,note_off,103,0,0,,12,,,83,127
26388,note_on,2,0,0,,10,,,81,127
26491,note_off,103,0,0,,10,,,81,127
26491,note_off,0,0,0,,4,,,64,127
26491,note_off,0,0,0,,8,,,56,127
26493,note_on,2,0,0,,4,,,64,127
26493,note_on,0,0,0,,8,,,56,127
26493,note_on,0,0,0,,8,,,80,127
26596,note_off,103,0,0,,8,,,80,127
26598,note_on,2,0,0,,6,,,78,127
26701,note_off,103,0,0,,6,,,78,127
26703,note_on,2,0,0,,4,,,76,127
26806,note_off,103,0,0,,4,,,76,127
26808,note_on,2,0,0,,3,,,75,127
26911,note_off,103,0,0,,3,,,75,127
26911,note_off,0,0,0,,8,,,56,127
26911,note_off,0,0,0,,4,,,64,127
26913,note_on,2,0,0,,10,,,57,127
26913,note_on,0,0,0,,4,,,64,127
26913,note_on,0,0,0,,1,,,73,127
27016,note_off,103,0,0,,1,,,73,127
27018,note_on,2,0,0,,12,,,71,127
27121,note_off,103,0,0,,12,,,71,127
27123,note_on,2,0,0,,10,,,69,127
27226,note_off,103,0,0,,10,,,69,127
27228,note_on,2,0,0,,8,,,68,127
27331,note_off,103,0,0,,8,,,68,127
27331,note_off,0,0,0,,4,,,64,127
27333,note_on,2,0,0,,10,,,45,127
27333,note_on,0,0,0,,6,,,66,127
27436,note_off,103,0,0,,6,,,66,127
27438,note_on,2,0,0,,4,,,64,127
27541,note_off,103,0,0,,4,,,64,127
27543,note_on,2,0,0,,3,,,63,127
27646,note_off,103,0,0,,3,,,63,127
27648,note_on,2,0,0,,1,,,61,127
27751,note_off,103,0,0,,1,,,61,127
27751,note_off,0,0,0,,10,,,45,127
27752,note_off,1,0,0,,10,,,57,127
27753,note_on,1,0,0,,12,,,47,127
27753,note_on,0,0,0,,1,,,61,127
27803,note_off,50,0,0,,1,,,61,127
27805,note_on,2,0,0,,12,,,59,127
27855,note_off,50,0,0,,12,,,59,127
27857,note_on,2,0,0,,1,,,61,127
27907,note_off,50,0,0,,1,,,61,127
27909,note_on,2,0,0,,12,,,59,127
28564,note_off,655,0,0,,12,,,59,127
28589,note_off,25,0,0,,12,,,47,127
28922,note_on,333,0,0,,3,,,75,127
29025,note_off,103,0,0,,3,,,75,127
29027,note_on,2,0,0,,4,,,76,127
29130,note_off,103,0,0,,4,,,76,127
29132,note_on,2,0,0,,6,,,78,127
29132,note_on,0,0,0,,12,,,47,127
29235,note_off,103,0,0,,6,,,78,127
29237,note_on,2,0,0,,12,,,71,127
29340,note_off,103,0,0,,12,,,71,127
29342,note_on,2,0,0,,8,,,80,127
29445,note_off,103,0,0,,8,,,80,127
29447,note_on,2,0,0,,12,,,71,127
29550,note_off,103,0,0,,12,,,71,127
29552,note_on,2,0,0,,10,,,81,127
29655,note_off,103,0,0,,10,,,81,127
29657,note_on,2,0,0,,12,,,71,127
29760,note_off,103,0,0,,12,,,71,127
29762,note_on,2,0,0,,11,,,82,127
29865,note_off,103,0,0,,11,,,82,127
29867,note_on,2,0,0,,12,,,83,127
29970,note_off,103,0,0,,12,,,83,127
29972,note_on,2,0,0,,8,,,80,127
30022,note_off,50,0,0,,8,,,80,127
30024,note_on,2,0,0,,6,,,78,127
30074,note_off,50,0,0,,6,,,78,127
30076,note_on,2,0,0,,8,,,80,127
30124,note_off,48,0,0,,12,,,47,127
30126,note_off,2,0,0,,8,,,80,127
30128,note_on,2,0,0,,6,,,78,127
30180,note_on,52,0,0,,11,,,58,127
30283,note_off,103,0,0,,11,,,58,127
30285,note_on,2,0,0,,12,,,59,127
30388,note_off,103,0,0,,12,,,59,127
30390,note_on,2,0,0,,12,,,47,127
30597,note_off,207,0,0,,6,,,78,127
30599,note_on,2,0,0,,3,,,75,127
30702,note_off,103,0,0,,3,,,75,127
30704,note_on,2,0,0,,4,,,76,127
30807,note_off,103,0,0,,4,,,76,127
30809,note_on,2,0,0,,6,,,78,127
30912,note_off,103,0,0,,6,,,78,127
30914,note_on,2,0,0,,12,,,71,127
31017,note_off,103,0,0,,12,,,71,127
31019,note_on,2,0,0,,8,,,80,127
31122,note_off,103,0,0,,8,,,80,127
31124,note_on,2,0,0,,12,,,71,127
31227,note_off,103,0,0,,12,,,71,127
31229,note_on,2,0,0,,10,,,81,127
31332,note_off,103,0,0,,10,,,81,127
31334,note_on,2,0,0,,12,,,71,127
31437,note_off,103,0,0,,12,,,71,127
31439,note_on,2,0,0,,11,,,82,127
31542,note_off,103,0,0,,11,,,82,127
31544,note_on,2,0,0,,12,,,83,127
31647,note_off,103,0,0,,12,,,83,127
31649,note_on,2,0,0,,8,,,80,127
31699,note_off,50,0,0,,8,,,80,127
31701,note_on,2,0,0,,6,,,78,127
31751,note_off,50,0,0,,6,,,78,127
31753,note_on,2,0,0,,8,,,80,127
31801,note_off,48,0,0,,12,,,47,127
31803,note_off,2,0,0,,8,,,80,127
31805,note_on,2,0,0,,6,,,78,127
31857,note_on,52,0,0,,11,,,58,127
31960,note_off,103,0,0,,11,,,58,127
31962,note_on,2,0,0,,12,,,59,127
32065,note_off,103,0,0,,12,,,59,127
32067,note_on,2,0,0,,12,,,47,127
32274,note_off,207,0,0,,6,,,78,127
32276,note_on,2,0,0,,3,,,75,127
32379,note_off,103,0,0,,3,,,75,127
32381,note_on,2,0,0,,4,,,76,127
32484,note_off,103,0,0,,4,,,76,127
32486,note_on,2,0,0,,6,,,78,127
32589,note_off,103,0,0,,6,,,78,127
32591,note_on,2,0,0,,12,,,71,127
32694,note_off,103,0,0,,12,,,71,127
32696,note_on,2,0,0,,8,,,80,127
32799,note_off,103,0,0,,8,,,80,127
32801,note_on,2,0,0,,12,,,71,127
32904,note_off,103,0,0,,12,,,71,127
32906,note_on,2,0,0,,10,,,81,127
33009,note_off,103,0,0,,10,,,81,127
33011,note_on,2,0,0,,12,,,71,127
33050,note_off,39,0,0,,12,,,47,127
33113,note_off,63,0,0,,12,,,71,127
33115,note_on,2,0,0,,12,,,83,127
33218,note_off,103,0,0,,12,,,83,127
33220,note_on,2,0,0,,12,,,71,127
33323,note_off,103,0,0,,12,,,71,127
33325,note_on,2,0,0,,1,,,85,127
33325,note_on,0,0,0,,10,,,57,127
33532,note_off,207,0,0,,10,,,57,127
33534,note_on,2,0,0,,10,,,69,127
33741,note_off,207,0,0,,10,,,69,127
33743,note_on,2,0,0,,6,,,66,127
33950,note_off,207,0,0,,6,,,66,127
33950,note_off,0,0,0,,1,,,85,127
33952,note_on,2,0,0,,12,,,83,127
33952,note_on,0,0,0,,3,,,63,127
34055,note_off,103,0,0,,12,,,83,127
34057,note_on,2,0,0,,10,,,81,127
34160,note_off,103,0,0,,10,,,81,127
34160,note_off,0,0,0,,3,,,63,127
34162,note_on,2,0,0,,8,,,80,127
34162,note_on,0,0,0,,4,,,64,127
34265,note_off,103,0,0,,8,,,80,127
34267,note_on,2,0,0,,10,,,81,127
34370,note_off,103,0,0,,10,,,81,127
34370,note_off,0,0,0,,4,,,64,127
34372,note_on,2,0,0,,12,,,83,127
34372,note_on,0,0,0,,8,,,56,127
34475,note_off,103,0,0,,12,,,83,127
34477,note_on,2,0,0,,4,,,76,127
34580,note_off,103,0,0,,4,,,76,127
34580,note_off,0,0,0,,8,,,56,127
34582,note_on,2,0,0,,8,,,80,127
34582,note_on,0,0,0,,10,,,57,127
34685,note_off,103,0,0,,8,,,80,127
34687,note_on,2,0,0,,6,,,78,127
34790,note_off,103,0,0,,6,,,78,127
34790,note_off,0,0,0,,10,,,57,127
34792,note_on,2,0,0,,4,,,76,127
34792,note_on,0,0,0,,12,,,59,127
34895,note_off,103,0,0,,4,,,76,127
34897,note_on,2,0,0,,3,,,75,127
35000,note_off,103,0,0,,3,,,75,127
35000,note_off,0,0,0,,12,,,59,127
35002,note_on,2,0,0,,4,,,76,127
35002,note_on,0,0,0,,4,,,52,127
35417,note_off,415,0,0,,4,,,76,127
35419,note_off,2,0,0,,4,,,52,127
35447,note_on,28,0,0,,12,,,47,127
35656,note_on,209,0,0,,3,,,75,127
35759,note_off,103,0,0,,3,,,75,127
35761,note_on,2,0,0,,4,,,76,127
35864,note_off,103,0,0,,4,,,76,127
35866,note_on,2,0,0,,6,,,78,127
35969,note_off,103,0,0,,6,,,78,127
35971,note_on,2,0,0,,12,,,71,127
36074,note_off,103,0,0,,12,,,71,127
36076,note_on,2,0,0,,8,,,80,127
36179,note_off,103,0,0,,8,,,80,127
36181,note_on,2,0,0,,12,,,71,127
36284,note_off,103,0,0,,12,,,71,127
36284,note_off,0,0,0,,12,,,47,127
36286,note_on,2,0,0,,12,,,47,127
36286,note_on,0,0,0,,10,,,81,127
36389,note_off,103,0,0,,10,,,81,127
36391,note_on,2,0,0,,12,,,71,127
36494,note_off,103,0,0,,12,,,71,127
36496,note_on,2,0,0,,11,,,82,127
36599,note_off,103,0,0,,11,,,82,127
36601,note_on,2,0,0,,12,,,83,127
36704,note_off,103,0,0,,12,,,83,127
36706,note_on,2,0,0,,8,,,80,127
36756,note_off,50,0,0,,8,,,80,127
36758,note_on,2,0,0,,6,,,78,127
36808,note_off,50,0,0,,6,,,78,127
36810,note_on,2,0,0,,8,,,80,127
36860,note_off,50,0,0,,8,,,80,127
36862,note_on,2,0,0,,6,,,78,127
36912,note_off,50,0,0,,12,,,47,127
36914,note_on,2,0,0,,11,,,58,127
37017,note_off,103,0,0,,11,,,58,127
37019,note_on,2,0,0,,12,,,59,127
37122,note_off,103,0,0,,12,,,59,127
37124,note_on,2,0,0,,12,,,47,127
37331,note_off,207,0,0,,6,,,78,127
37333,note_on,2,0,0,,3,,,75,127
37436,note_off,103,0,0,,3,,,75,127
37438,note_on,2,0,0,,4,,,76,127
37541,note_off,103,0,0,,4,,,76,127
37543,note_on,2,0,0,,6,,,78,127
37646,note_off,103,0,0,,6,,,78,127
37648,note_on,2,0,0,,12,,,71,127
37751,note_off,103,0,0,,12,,,71,127
37753,note_on,2,0,0,,8,,,80,127
37856,note_off,103,0,0,,8,,,80,127
37858,note_on,2,0,0,,12,,,71,127
37961,note_off,103,0,0,,12,,,71,127
37961,note_off,0,0,0,,12,,,47,127
37963,note_on,2,0,0,,12,,,47,127
37963,note_on,0,0,0,,10,,,81,127
38066,note_off,103,0,0,,10,,,81,127
38068,note_on,2,0,0,,12,,,71,127
38171,note_off,103,0,0,,12,,,71,127
38173,note_on,2,0,0,,11,,,82,127
38276,note_off,103,0,0,,11,,,82,127
38278,note_on,2,0,0,,12,,,83,127
38381,note_off,103,0,0,,12,,,83,127
38383,note_on,2,0,0,,8,,,80,127
38433,note_off,50,0,0,,8,,,80,127
38435,note_on,2,0,0,,6,,,78,127
38485,note_off,50,0,0,,6,,,78,127
38487,note_on,2,0,0,,8,,,80,127
38537,note_off,50,0,0,,8,,,80,127
38539,note_on,2,0,0,,6,,,78,127
38590,note_off,51,0,0,,12,,,47,127
38591,note_on,1,0,0,,11,,,58,127
38694,note_off,103,0,0,,11,,,58,127
38696,note_on,2,0,0,,12,,,59,127
38799,note_off,103,0,0,,12,,,59,127
38801,note_on,2,0,0,,12,,,47,127
39008,note_off,207,0,0,,6,,,78,127
39010,note_on,2,0,0,,3,,,75,127
39113,note_off,103,0,0,,3,,,75,127
39115,note_on,2,0,0,,4,,,76,127
39218,note_off,103,0,0,,4,,,76,127
39220,note_on,2,0,0,,6,,,78,127
39323,note_off,103,0,0,,6,,,78,127
39325,note_on,2,0,0,,12,,,71,127
39428,note_off,103,0,0,,12,,,71,127
39430,note_on,2,0,0,,8,,,80,127
39533,note_off,103,0,0,,8,,,80,127
39535,note_on,2,0,0,,12,,,71,127
39638,note_off,103,0,0,,12,,,71,127
39638,note_off,0,0,0,,12,,,47,127
39640,note_on,2,0,0,,12,,,47,127
39640,note_on,0,0,0,,10,,,81,127
39743,note_off,103,0,0,,10,,,81,127
39745,note_on,2,0,0,,12,,,71,127
39848,note_off,103,0,0,,12,,,71,127
39850,note_on,2,0,0,,12,,,83,127
39953,note_off,103,0,0,,12,,,83,127
39955,note_on,2,0,0,,12,,,71,127
40044,note_off,89,0,0,,12,,,47,127
40057,note_off,13,0,0,,12,,,71,127
40059,note_on,2,0,0,,10,,,57,127
40059,note_on,0,0,0,,1,,,85,127
40266,note_off,207,0,0,,10,,,57,127
40268,note_on,2,0,0,,10,,,69,127
40475,note_off,207,0,0,,10,,,69,127
40477,note_on,2,0,0,,6,,,66,127
40684,note_off,207,0,0,,6,,,66,127
40684,note_off,0,0,0,,1,,,85,127
40686,note_on,2,0,0,,3,,,63,127
40686,note_on,0,0,0,,12,,,83,127
40789,note_off,103,0,0,,12,,,83,127
40791,note_on,2,0,0,,10,,,81,127
40894,note_off,103,0,0,,10,,,81,127
40894,note_off,0,0,0,,3,,,63,127
40896,note_on,2,0,0,,4,,,64,127
40896,note_on,0,0,0,,8,,,80,127
40999,note_off,103,0,0,,8,,,80,127
41001,note_on,2,0,0,,10,,,81,127
41104,note_off,103,0,0,,10,,,81,127
41104,note_off,0,0,0,,4,,,64,127
41106,note_on,2,0,0,,8,,,56,127
41106,note_on,0,0,0,,12,,,83,127
41209,note_off,103,0,0,,12,,,83,127
41211,note_on,2,0,0,,4,,,76,127
41314,note_off,103,0,0,,4,,,76,127
41314,note_off,0,0,0,,8,,,56,127
41316,note_on,2,0,0,,10,,,57,127
41316,note_on,0,0,0,,8,,,80,127
41419,note_off,103,0,0,,8,,,80,127
41421,note_on,2,0,0,,6,,,78,127
41524,note_off,103,0,0,,6,,,78,127
41524,note_off,0,0,0,,10,,,57,127
41526,note_on,2,0,0,,12,,,59,127
41526,note_on,0,0,0,,4,,,76,127
41629,note_off,103,0,0,,4,,,76,127
41631,note_on,2,0,0,,3,,,75,127
41734,note_off,103,0,0,,3,,,75,127
41734,note_off,0,0,0,,12,,,59,127
41736,note_on,2,0,0,,4,,,52,127
41736,note_on,0,0,0,,4,,,76,127
41943,note_off,207,0,0,,4,,,76,127
41963,note_on,20,0,0,,12,,,71,127
42153,note_off,190,0,0,,4,,,52,127
42170,note_off,17,0,0,,12,,,71,127
42172,note_on,2,0,0,,1,,,73,127
42172,note_on,0,0,0,,10,,,57,127
42172,note_on,0,0,0,,10,,,45,127
42275,note_off,103,0,0,,1,,,73,127
42277,note_on,2,0,0,,3,,,75,127
42380,note_off,103,0,0,,3,,,75,127
42382,note_on,2,0,0,,4,,,76,127
42485,note_off,103,0,0,,4,,,76,127
42487,note_on,2,0,0,,1,,,73,127
42590,note_off,103,0,0,,1,,,73,127
42590,note_off,0,0,0,,10,,,45,127
42590,note_off,0,0,0,,10,,,57,127
42592,note_on,2,0,0,,12,,,71,127
42592,note_on,0,0,0,,12,,,59,127
42592,note_on,0,0,0,,4,,,52,127
42799,note_off,207,0,0,,12,,,71,127
42801,note_on,2,0,0,,10,,,69,127
42904,note_off,103,0,0,,10,,,69,127
42906,note_on,2,0,0,,8,,,68,127
43009,note_off,103,0,0,,8,,,68,127
43009,note_off,0,0,0,,4,,,52,127
43009,note_off,0,0,0,,12,,,59,127
43011,note_on,2,0,0,,10,,,69,127
43011,note_on,0,0,0,,12,,,59,127
43011,note_on,0,0,0,,12,,,47,127
43114,note_off,103,0,0,,10,,,69,127
43116,note_on,2,0,0,,12,,,71,127
43219,note_off,103,0,0,,12,,,71,127
43221,note_on,2,0,0,,1,,,73,127
43324,note_off,103,0,0,,1,,,73,127
43326,note_on,2,0,0,,10,,,69,127
43429,note_off,103,0,0,,10,,,69,127
43429,note_off,0,0,0,,12,,,47,127
43429,note_off,0,0,0,,12,,,59,127
43431,note_on,2,0,0,,8,,,68,127
43431,note_on,0,0,0,,12,,,59,127
43431,note_on,0,0,0,,4,,,52,127
43638,note_off,207,0,0,,8,,,68,127
43640,note_on,2,0,0,,4,,,76,127
43847,note_off,207,0,0,,4,,,52,127
43847,note_off,0,0,0,,12,,,59,127
43849,note_on,2,0,0,,8,,,56,127
43849,note_on,0,0,0,,12,,,59,127
44056,note_off,207,0,0,,4,,,76,127
44058,note_on,2,0,0,,3,,,75,127
44161,note_off,103,0,0,,3,,,75,127
44163,note_on,2,0,0,,4,,,76,127
44266,note_off,103,0,0,,4,,,76,127
44266,note_off,0,0,0,,12,,,59,127
44266,note_off,0,0,0,,8,,,56,127
44268,note_on,2,0,0,,6,,,66,127
44268,note_on,0,0,0,,10,,,45,127
44268,note_on,0,0,0,,10,,,57,127
44475,note_off,207,0,0,,6,,,66,127
44477,note_on,2,0,0,,1,,,73,127
44580,note_off,103,0,0,,1,,,73,127
44582,note_on,2,0,0,,10,,,69,127
44685,note_off,103,0,0,,10,,,69,127
44685,note_off,0,0,0,,10,,,57,127
44685,note_off,0,0,0,,10,,,45,127
44687,note_on,2,0,0,,8,,,68,127
44687,note_on,0,0,0,,4,,,64,127
44687,note_on,0,0,0,,12,,,47,127
44687,note_on,0,0,0,,12,,,59,127
44894,note_off,207,0,0,,4,,,64,127
44894,note_off,0,0,0,,8,,,68,127
44896,note_on,2,0,0,,3,,,63,127
44896,note_on,0,0,0,,6,,,66,127
45103,note_off,207,0,0,,6,,,66,127
45103,note_off,0,0,0,,3,,,63,127
45103,note_off,0,0,0,,12,,,59,127
45103,note_off,0,0,0,,12,,,47,127
45105,note_on,2,0,0,,4,,,64,127
45105,note_on,0,0,0,,4,,,52,127
45312,note_off,207,0,0,,4,,,64,127
45329,note_on,17,0,0,,8,,,80,127
45432,note_off,103,0,0,,8,,,80,127
45436,note_on,4,0,0,,4,,,76,127
45521,note_off,85,0,0,,4,,,52,127
45538,note_off,17,0,0,,4,,,76,127
45540,note_on,2,0,0,,8,,,56,127
45540,note_on,0,0,0,,4,,,64,127
45540,note_on,0,0,0,,4,,,76,127
45747,note_off,207,0,0,,4,,,76,127
45749,note_on,2,0,0,,4,,,76,127
45956,note_off,207,0,0,,4,,,76,127
45956,note_off,0,0,0,,4,,,64,127
45956,note_off,0,0,0,,8,,,56,127
45958,note_on,2,0,0,,4,,,64,127
45958,note_on,0,0,0,,10,,,57,127
45958,note_on,0,0,0,,1,,,73,127
46165,note_off,207,0,0,,1,,,73,127
46167,note_on,2,0,0,,8,,,80,127
46270,note_off,103,0,0,,8,,,80,127
46272,note_on,2,0,0,,4,,,76,127
46375,note_off,103,0,0,,4,,,76,127
46375,note_off,0,0,0,,10,,,57,127
46375,note_off,0,0,0,,4,,,64,127
46377,note_on,2,0,0,,4,,,64,127
46377,note_on,0,0,0,,10,,,57,127
46377,note_on,0,0,0,,1,,,73,127
46584,note_off,207,0,0,,1,,,73,127
46586,note_on,2,0,0,,1,,,73,127
46793,note_off,207,0,0,,1,,,73,127
46793,note_off,0,0,0,,10,,,57,127
46793,note_off,0,0,0,,4,,,64,127
46795,note_on,2,0,0,,8,,,56,127
46795,note_on,0,0,0,,4,,,64,127
46795,note_on,0,0,0,,12,,,71,127
47002,note_off,207,0,0,,12,,,71,127
47004,note_on,2,0,0,,8,,,80,127
47107,note_off,103,0,0,,8,,,80,127
47109,note_on,2,0,0,,4,,,76,127
47212,note_off,103,0,0,,4,,,76,127
47212,note_off,0,0,0,,4,,,64,127
47212,note_off,0,0,0,,8,,,56,127
47214,note_on,2,0,0,,8,,,56,127
47214,note_on,0,0,0,,4,,,64,127
47214,note_on,0,0,0,,12,,,71,127
47421,note_off,207,0,0,,12,,,71,127
47423,note_on,2,0,0,,12,,,83,127
47630,note_off,207,0,0,,12,,,83,127
47630,note_off,0,0,0,,4,,,64,127
47630,note_off,0,0,0,,8,,,56,127
47632,note_on,2,0,0,,10,,,57,127
47632,note_on,0,0,0,,4,,,64,127
47632,note_on,0,0,0,,10,,,81,127
47735,note_off,103,0,0,,10,,,81,127
47737,note_on,2,0,0,,8,,,80,127
47840,note_off,103,0,0,,8,,,80,127
47842,note_on,2,0,0,,6,,,78,127
47945,note_off,103,0,0,,6,,,78,127
47947,note_on,2,0,0,,4,,,76,127
48050,note_off,103,0,0,,4,,,76,127
48050,note_off,0,0,0,,4,,,64,127
48050,note_off,0,0,0,,10,,,57,127
48052,note_on,2,0,0,,12,,,59,127
48052,note_on,0,0,0,,12,,,47,127
48052,note_on,0,0,0,,1,,,73,127
48259,note_off,207,0,0,,1,,,73,127
48261,note_on,2,0,0,,3,,,75,127
48468,note_off,207,0,0,,3,,,75,127
48468,note_off,0,0,0,,12,,,47,127
48468,note_off,0,0,0,,12,,,59,127
48470,note_on,2,0,0,,4,,,52,127
48470,note_on,0,0,0,,4,,,76,127
48677,note_off,207,0,0,,4,,,76,127
48697,note_on,20,0,0,,8,,,80,127
48800,note_off,103,0,0,,8,,,80,127
48802,note_on,2,0,0,,4,,,76,127
48887,note_off,85,0,0,,4,,,52,127
48904,note_off,17,0,0,,4,,,76,127
48906,note_on,2,0,0,,4,,,76,127
48906,note_on,0,0,0,,4,,,64,127
48906,note_on,0,0,0,,8,,,56,127
49113,note_off,207,0,0,,4,,,76,127
49115,note_on,2,0,0,,4,,,76,127
49322,note_off,207,0,0,,4,,,76,127
49322,note_off,0,0,0,,8,,,56,127
49322,note_off,0,0,0,,4,,,64,127
49324,note_on,2,0,0,,1,,,73,127
49324,note_on,0,0,0,,10,,,57,127
49324,note_on,0,0,0,,4,,,64,127
49531,note_off,207,0,0,,1,,,73,127
49533,note_on,2,0,0,,8,,,80,127
49636,note_off,103,0,0,,8,,,80,127
49638,note_on,2,0,0,,4,,,76,127
49741,note_off,103,0,0,,4,,,76,127
49741,note_off,0,0,0,,4,,,64,127
49741,note_off,0,0,0,,10,,,57,127
49743,note_on,2,0,0,,1,,,73,127
49743,note_on,0,0,0,,4,,,64,127
49743,note_on,0,0,0,,10,,,57,127
49950,note_off,207,0,0,,1,,,73,127
49952,note_on,2,0,0,,1,,,73,127
50159,note_off,207,0,0,,1,,,73,127
50159,note_off,0,0,0,,10,,,57,127
50159,note_off,0,0,0,,4,,,64,127
50161,note_on,2,0,0,,12,,,71,127
50161,note_on,0,0,0,,4,,,64,127
50161,note_on,0,0,0,,8,,,56,127
50368,note_off,207,0,0,,12,,,71,127
50370,note_on,2,0,0,,8,,,80,127
50473,note_off,103,0,0,,8,,,80,127
50475,note_on,2,0,0,,4,,,76,127
50578,note_off,103,0,0,,4,,,76,127
50578,note_off,0,0,0,,8,,,56,127
50578,note_off,0,0,0,,4,,,64,127
50580,note_on,2,0,0,,12,,,71,127
50580,note_on,0,0,0,,8,,,56,127
50580,note_on,0,0,0,,4,,,64,127
50789,note_on,209,0,0,,12,,,83,127
50994,note_off,205,0,0,,12,,,71,127
50996,note_off,2,0,0,,12,,,83,127
50996,note_off,0,0,0,,4,,,64,127
50996,note_off,0,0,0,,8,,,56,127
50998,note_on,2,0,0,,10,,,81,127
50998,note_on,0,0,0,,4,,,64,127
50998,note_on,0,0,0,,10,,,57,127
51101,note_off,103,0,0,,10,,,81,127
51103,note_on,2,0,0,,8,,,80,127
51206,note_off,103,0,0,,8,,,80,127
51208,note_on,2,0,0,,6,,,78,127
51311,note_off,103,0,0,,6,,,78,127
51313,note_on,2,0,0,,4,,,76,127
51416,note_off,103,0,0,,4,,,76,127
51416,note_off,0,0,0,,10,,,57,127
51416,note_off,0,0,0,,4,,,64,127
51418,note_on,2,0,0,,1,,,73,127
51418,note_on,0,0,0,,12,,,59,127
51418,note_on,0,0,0,,12,,,47,127
51625,note_off,207,0,0,,1,,,73,127
51627,note_on,2,0,0,,3,,,75,127
51834,note_off,207,0,0,,3,,,75,127
51834,note_off,0,0,0,,12,,,47,127
51834,note_off,0,0,0,,12,,,59,127
51836,note_on,2,0,0,,4,,,76,127
51836,note_on,0,0,0,,4,,,52,127
52043,note_off,207,0,0,,4,,,76,127
52045,note_on,2,0,0,,12,,,71,127
52148,note_off,103,0,0,,12,,,71,127
52150,note_on,2,0,0,,8,,,68,127
52253,note_off,103,0,0,,8,,,68,127
52253,note_off,0,0,0,,4,,,52,127
52255,note_on,2,0,0,,4,,,64,127
52255,note_on,0,0,0,,8,,,56,127
52255,note_on,0,0,0,,8,,,44,127
52462,note_off,207,0,0,,4,,,64,127
52464,note_on,2,0,0,,4,,,64,127
52671,note_off,207,0,0,,4,,,64,127
52671,note_off,0,0,0,,8,,,44,127
52671,note_off,0,0,0,,8,,,56,127
52673,note_on,2,0,0,,6,,,66,127
52673,note_on,0,0,0,,10,,,45,127
52673,note_on,0,0,0,,10,,,57,127
52880,note_off,207,0,0,,6,,,66,127
52882,note_on,2,0,0,,8,,,68,127
52985,note_off,103,0,0,,8,,,68,127
52987,note_on,2,0,0,,10,,,69,127
53090,note_off,103,0,0,,10,,,69,127
53090,note_off,0,0,0,,10,,,57,127
53090,note_off,0,0,0,,10,,,45,127
53092,note_on,2,0,0,,8,,,68,127
53092,note_on,0,0,0,,4,,,64,127
53092,note_on,0,0,0,,12,,,59,127
53092,note_on,0,0,0,,12,,,47,127
53299,note_off,207,0,0,,4,,,64,127
53299,note_off,0,0,0,,8,,,68,127
53301,note_on,2,0,0,,3,,,63,127
53301,note_on,0,0,0,,6,,,66,127
53508,note_off,207,0,0,,6,,,66,127
53508,note_off,0,0,0,,3,,,63,127
53508,note_off,0,0,0,,12,,,47,127
53508,note_off,0,0,0,,12,,,59,127
53510,note_on,2,0,0,,4,,,64,127
53510,note_on,0,0,0,,4,,,40,127
53510,note_on,0,0,0,,4,,,52,127
54137,note_off,627,0,0,,4,,,64,127
54345,note_off,208,0,0,,4,,,52,127
54345,note_off,0,0,0,,4,,,40,127
54417,note_on,72,0,0,,1,,,73,127
54417,note_on,0,0,0,,4,,,52,127
54487,note_on,70,0,0,,12,,,71,127
54520,note_off,33,0,0,,1,,,73,127
54557,note_on,37,0,0,,1,,,73,127
54590,note_off,33,0,0,,12,,,71,127
54627,note_on,37,0,0,,12,,,71,127
54660,note_off,33,0,0,,1,,,73,127
54697,note_on,37,0,0,,1,,,73,127
54730,note_off,33,0,0,,12,,,71,127
54767,note_on,37,0,0,,12,,,71,127
54800,note_off,33,0,0,,1,,,73,127
54835,note_off,35,0,0,,4,,,52,127
54837,note_on,2,0,0,,1,,,73,127
54837,note_on,0,0,0,,8,,,56,127
54870,note_off,33,0,0,,12,,,71,127
54907,note_on,37,0,0,,12,,,71,127
54940,note_off,33,0,0,,1,,,73,127
54977,note_on,37,0,0,,1,,,73,127
55010,note_off,33,0,0,,12,,,71,127
55047,note_on,37,0,0,,12,,,71,127
55080,note_off,33,0,0,,1,,,73,127
55117,note_on,37,0,0,,10,,,69,127
55150,note_off,33,0,0,,12,,,71,127
55187,note_on,37,0,0,,12,,,71,127
55220,note_off,33,0,0,,10,,,69,127
55255,note_off,35,0,0,,8,,,56,127
55256,note_off,1,0,0,,12,,,71,127
55257,note_on,1,0,0,,1,,,73,127
55257,note_on,0,0,0,,10,,,57,127
55464,note_off,207,0,0,,1,,,73,127
55466,note_on,2,0,0,,2,,,74,127
55569,note_off,103,0,0,,2,,,74,127
55571,note_on,2,0,0,,4,,,76,127
55674,note_off,103,0,0,,4,,,76,127
55674,note_off,0,0,0,,10,,,57,127
55676,note_on,2,0,0,,8,,,68,127
55676,note_on,0,0,0,,12,,,59,127
55883,note_off,207,0,0,,8,,,68,127
55885,note_on,2,0,0,,10,,,69,127
55988,note_off,103,0,0,,10,,,69,127
55990,note_on,2,0,0,,12,,,71,127
56093,note_off,103,0,0,,12,,,71,127
56093,note_off,0,0,0,,12,,,59,127
56095,note_on,2,0,0,,4,,,64,127
56095,note_on,0,0,0,,1,,,61,127
56302,note_off,207,0,0,,4,,,64,127
56304,note_on,2,0,0,,4,,,76,127
56511,note_off,207,0,0,,4,,,76,127
56511,note_off,0,0,0,,1,,,61,127
56513,note_on,2,0,0,,6,,,78,127
56513,note_on,0,0,0,,2,,,62,127
56720,note_off,207,0,0,,6,,,78,127
56722,note_on,2,0,0,,8,,,80,127
56825,note_off,103,0,0,,8,,,80,127
56827,note_on,2,0,0,,10,,,81,127
56930,note_off,103,0,0,,10,,,81,127
56930,note_off,0,0,0,,2,,,62,127
56932,note_on,2,0,0,,4,,,76,127
56932,note_on,0,0,0,,1,,,61,127
57139,note_off,207,0,0,,1,,,61,127
57141,note_on,2,0,0,,10,,,57,127
57348,note_off,207,0,0,,10,,,57,127
57348,note_off,0,0,0,,4,,,76,127
57350,note_on,2,0,0,,4,,,76,127
57350,note_on,0,0,0,,12,,,59,127
57453,note_off,103,0,0,,4,,,76,127
57455,note_on,2,0,0,,2,,,74,127
57558,note_off,103,0,0,,2,,,74,127
57558,note_off,0,0,0,,12,,,59,127
57560,note_on,2,0,0,,1,,,73,127
57560,note_on,0,0,0,,4,,,52,127
57663,note_off,103,0,0,,1,,,73,127
57665,note_on,2,0,0,,2,,,74,127
57768,note_off,103,0,0,,2,,,74,127
57768,note_off,0,0,0,,4,,,52,127
57770,note_on,2,0,0,,1,,,73,127
57770,note_on,0,0,0,,10,,,57,127
57977,note_off,207,0,0,,1,,,73,127
57997,note_on,20,0,0,,10,,,81,127
58100,note_off,103,0,0,,10,,,81,127
58102,note_on,2,0,0,,8,,,80,127
58205,note_off,103,0,0,,8,,,80,127
58207,note_on,2,0,0,,6,,,78,127
58398,note_off,191,0,0,,10,,,57,127
58414,note_off,16,0,0,,6,,,78,127
58416,note_on,2,0,0,,4,,,76,127
58623,note_off,207,0,0,,4,,,76,127
58625,note_on,2,0,0,,10,,,57,127
58625,note_on,0,0,0,,3,,,75,127
58832,note_off,207,0,0,,3,,,75,127
58834,note_on,2,0,0,,1,,,73,127
59041,note_off,207,0,0,,1,,,73,127
59041,note_off,0,0,0,,10,,,57,127
59043,note_on,2,0,0,,10,,,57,127
59043,note_on,0,0,0,,0,,,72,127
59250,note_off,207,0,0,,0,,,72,127
59252,note_on,2,0,0,,1,,,73,127
59459,note_off,207,0,0,,1,,,73,127
59459,note_off,0,0,0,,10,,,57,127
59461,note_on,2,0,0,,8,,,56,127
59461,note_on,0,0,0,,6,,,66,127
59461,note_on,0,0,0,,3,,,75,127
59668,note_off,207,0,0,,3,,,75,127
59670,note_on,2,0,0,,3,,,75,127
59773,note_off,103,0,0,,3,,,75,127
59775,note_on,2,0,0,,4,,,76,127
59878,note_off,103,0,0,,4,,,76,127
59878,note_off,0,0,0,,6,,,66,127
59878,note_off,0,0,0,,8,,,56,127
59880,note_on,2,0,0,,4,,,64,127
59880,note_on,0,0,0,,8,,,56,127
59880,note_on,0,0,0,,3,,,75,127
60087,note_off,207,0,0,,3,,,75,127
60089,note_on,2,0,0,,1,,,73,127
60296,note_off,207,0,0,,1,,,73,127
60296,note_off,0,0,0,,8,,,56,127
60296,note_off,0,0,0,,4,,,64,127
60298,note_on,2,0,0,,8,,,56,127
60298,note_on,0,0,0,,3,,,63,127
60298,note_on,0,0,0,,0,,,72,127
60505,note_off,207,0,0,,0,,,72,127
60507,note_on,2,0,0,,3,,,75,127
60610,note_off,103,0,0,,3,,,75,127
60612,note_on,2,0,0,,4,,,76,127
60715,note_off,103,0,0,,4,,,76,127
60715,note_off,0,0,0,,3,,,63,127
60715,note_off,0,0,0,,8,,,56,127
60717,note_on,2,0,0,,10,,,57,127
60717,note_on,0,0,0,,1,,,61,127
60717,note_on,0,0,0,,3,,,75,127
60924,note_off,207,0,0,,3,,,75,127
60926,note_on,2,0,0,,1,,,73,127
61133,note_off,207,0,0,,1,,,73,127
61133,note_off,0,0,0,,1,,,61,127
61133,note_off,0,0,0,,10,,,57,127
61135,note_on,2,0,0,,8,,,56,127
61135,note_on,0,0,0,,3,,,63,127
61135,note_on,0,0,0,,0,,,72,127
61342,note_off,207,0,0,,0,,,72,127
61362,note_on,20,0,0,,8,,,80,127
61465,note_off,103,0,0,,8,,,80,127
61467,note_on,2,0,0,,10,,,81,127
61552,note_off,85,0,0,,3,,,63,127
61552,note_off,0,0,0,,8,,,56,127
61569,note_off,17,0,0,,10,,,81,127
61571,note_on,2,0,0,,8,,,80,127
61571,note_on,0,0,0,,3,,,63,127
61571,note_on,0,0,0,,0,,,60,127
61778,note_off,207,0,0,,8,,,80,127
61780,note_on,2,0,0,,6,,,78,127
61987,note_off,207,0,0,,6,,,78,127
61987,note_off,0,0,0,,0,,,60,127
61987,note_off,0,0,0,,3,,,63,127
61989,note_on,2,0,0,,4,,,76,127
61989,note_on,0,0,0,,4,,,64,127
61989,note_on,0,0,0,,1,,,61,127
62196,note_off,207,0,0,,4,,,76,127
62198,note_on,2,0,0,,8,,,80,127
62301,note_off,103,0,0,,8,,,80,127
62303,note_on,2,0,0,,10,,,81,127
62406,note_off,103,0,0,,10,,,81,127
62406,note_off,0,0,0,,1,,,61,127
62406,note_off,0,0,0,,4,,,64,127
62408,note_on,2,0,0,,8,,,80,127
62408,note_on,0,0,0,,0,,,60,127
62408,note_on,0,0,0,,3,,,63,127
62615,note_off,207,0,0,,8,,,80,127
62617,note_on,2,0,0,,6,,,78,127
62824,note_off,207,0,0,,6,,,78,127
62824,note_off,0,0,0,,3,,,63,127
62824,note_off,0,0,0,,0,,,60,127
62826,note_on,2,0,0,,4,,,76,127
62826,note_on,0,0,0,,4,,,64,127
62826,note_on,0,0,0,,1,,,61,127
63033,note_off,207,0,0,,4,,,76,127
63035,note_on,2,0,0,,8,,,80,127
63138,note_off,103,0,0,,8,,,80,127
63140,note_on,2,0,0,,6,,,78,127
63243,note_off,103,0,0,,6,,,78,127
63243,note_off,0,0,0,,1,,,61,127
63243,note_off,0,0,0,,4,,,64,127
63245,note_on,2,0,0,,4,,,76,127
63245,note_on,0,0,0,,4,,,64,127
63245,note_on,0,0,0,,1,,,61,127
63348,note_off,103,0,0,,4,,,76,127
63350,note_on,2,0,0,,3,,,75,127
63453,note_off,103,0,0,,3,,,75,127
63455,note_on,2,0,0,,1,,,73,127
63558,note_off,103,0,0,,1,,,73,127
63560,note_on,2,0,0,,12,,,71,127
63663,note_off,103,0,0,,12,,,71,127
63663,note_off,0,0,0,,1,,,61,127
63663,note_off,0,0,0,,4,,,64,127
63665,note_on,2,0,0,,11,,,70,127
63665,note_on,0,0,0,,4,,,64,127
63665,note_on,0,0,0,,1,,,61,127
63665,note_on,0,0,0,,6,,,54,127
63872,note_off,207,0,0,,11,,,70,127
63892,note_on,20,0,0,,6,,,78,127
63995,note_off,103,0,0,,6,,,78,127
63997,note_on,2,0,0,,8,,,80,127
64082,note_off,85,0,0,,6,,,54,127
64082,note_off,0,0,0,,1,,,61,127
64082,note_off,0,0,0,,4,,,64,127
64099,note_off,17,0,0,,8,,,80,127
64101,note_on,2,0,0,,6,,,54,127
64101,note_on,0,0,0,,1,,,61,127
64101,note_on,0,0,0,,6,,,78,127
64308,note_off,207,0,0,,6,,,78,127
64310,note_on,2,0,0,,4,,,76,127
64517,note_off,207,0,0,,4,,,76,127
64517,note_off,0,0,0,,1,,,61,127
64517,note_off,0,0,0,,6,,,54,127
64519,note_on,2,0,0,,12,,,59,127
64519,note_on,0,0,0,,3,,,63,127
64519,note_on,0,0,0,,3,,,75,127
64726,note_off,207,0,0,,3,,,75,127
64728,note_on,2,0,0,,6,,,78,127
64831,note_off,103,0,0,,6,,,78,127
64833,note_on,2,0,0,,8,,,80,127
64936,note_off,103,0,0,,8,,,80,127
64936,note_off,0,0,0,,3,,,63,127
64936,note_off,0,0,0,,12,,,59,127
64938,note_on,2,0,0,,11,,,58,127
64938,note_on,0,0,0,,1,,,61,127
64938,note_on,0,0,0,,6,,,78,127
65145,note_off,207,0,0,,6,,,78,127
65147,note_on,2,0,0,,4,,,76,127
65354,note_off,207,0,0,,4,,,76,127
65354,note_off,0,0,0,,1,,,61,127
65354,note_off,0,0,0,,11,,,58,127
65356,note_on,2,0,0,,12,,,59,127
65356,note_on,0,0,0,,3,,,63,127
65356,note_on,0,0,0,,3,,,75,127
65563,note_off,207,0,0,,3,,,75,127
65565,note_on,2,0,0,,6,,,78,127
65668,note_off,103,0,0,,6,,,78,127
65670,note_on,2,0,0,,4,,,76,127
65773,note_off,103,0,0,,4,,,76,127
65773,note_off,0,0,0,,3,,,63,127
65773,note_off,0,0,0,,12,,,59,127
65775,note_on,2,0,0,,12,,,59,127
65775,note_on,0,0,0,,3,,,51,127
65775,note_on,0,0,0,,3,,,75,127
65878,note_off,103,0,0,,3,,,75,127
65880,note_on,2,0,0,,1,,,73,127
65983,note_off,103,0,0,,1,,,73,127
65985,note_on,2,0,0,,12,,,71,127
66088,note_off,103,0,0,,12,,,71,127
66090,note_on,2,0,0,,10,,,69,127
66193,note_off,103,0,0,,10,,,69,127
66193,note_off,0,0,0,,3,,,51,127
66193,note_off,0,0,0,,12,,,59,127
66195,note_on,2,0,0,,4,,,52,127
66195,note_on,0,0,0,,12,,,59,127
66195,note_on,0,0,0,,8,,,68,127
66402,note_off,207,0,0,,8,,,68,127
66422,note_on,20,0,0,,12,,,71,127
66525,note_off,103,0,0,,12,,,71,127
66527,note_on,2,0,0,,4,,,76,127
66612,note_off,85,0,0,,12,,,59,127
66612,note_off,0,0,0,,4,,,52,127
66629,note_off,17,0,0,,4,,,76,127
66631,note_on,2,0,0,,12,,,71,127
66631,note_on,0,0,0,,12,,,59,127
66631,note_on,0,0,0,,4,,,52,127
66838,note_off,207,0,0,,12,,,71,127
66840,note_on,2,0,0,,4,,,76,127
67047,note_off,207,0,0,,4,,,76,127
67047,note_off,0,0,0,,4,,,52,127
67047,note_off,0,0,0,,12,,,59,127
67049,note_on,2,0,0,,12,,,71,127
67049,note_on,0,0,0,,12,,,59,127
67049,note_on,0,0,0,,3,,,51,127
67256,note_off,207,0,0,,12,,,71,127
67258,note_on,2,0,0,,3,,,75,127
67361,note_off,103,0,0,,3,,,75,127
67363,note_on,2,0,0,,6,,,78,127
67466,note_off,103,0,0,,6,,,78,127
67466,note_off,0,0,0,,3,,,51,127
67466,note_off,0,0,0,,12,,,59,127
67468,note_on,2,0,0,,12,,,71,127
67468,note_on,0,0,0,,12,,,59,127
67468,note_on,0,0,0,,2,,,50,127
67675,note_off,207,0,0,,12,,,71,127
67677,note_on,2,0,0,,6,,,78,127
67884,note_off,207,0,0,,6,,,78,127
67884,note_off,0,0,0,,2,,,50,127
67884,note_off,0,0,0,,12,,,59,127
67886,note_on,2,0,0,,12,,,71,127
67886,note_on,0,0,0,,12,,,59,127
67886,note_on,0,0,0,,1,,,49,127
68093,note_off,207,0,0,,12,,,71,127
68095,note_on,2,0,0,,8,,,80,127
68198,note_off,103,0,0,,8,,,80,127
68200,note_on,2,0,0,,12,,,83,127
68303,note_off,103,0,0,,1,,,49,127
68303,note_off,0,0,0,,12,,,59,127
68305,note_on,2,0,0,,12,,,71,127
68305,note_on,0,0,0,,12,,,59,127
68305,note_on,0,0,0,,1,,,49,127
68506,note_off,201,0,0,,12,,,83,127
68515,note_on,9,0,0,,12,,,83,127
68720,note_off,205,0,0,,12,,,71,127
68722,note_off,2,0,0,,1,,,49,127
68722,note_off,0,0,0,,12,,,59,127
68724,note_on,2,0,0,,12,,,59,127
68724,note_on,0,0,0,,1,,,49,127
68827,note_off,103,0,0,,12,,,83,127
68829,note_on,2,0,0,,10,,,81,127
68932,note_off,103,0,0,,10,,,81,127
68934,note_on,2,0,0,,8,,,80,127
69037,note_off,103,0,0,,8,,,80,127
69039,note_on,2,0,0,,6,,,78,127
69142,note_off,103,0,0,,6,,,78,127
69142,note_off,0,0,0,,1,,,49,127
69142,note_off,0,0,0,,12,,,59,127
69144,note_on,2,0,0,,5,,,77,127
69144,note_on,0,0,0,,12,,,59,127
69144,note_on,0,0,0,,1,,,49,127
69247,note_off,103,0,0,,5,,,77,127
69249,note_on,2,0,0,,2,,,74,127
69352,note_off,103,0,0,,2,,,74,127
69354,note_on,2,0,0,,1,,,73,127
69457,note_off,103,0,0,,1,,,73,127
69459,note_on,2,0,0,,12,,,71,127
69562,note_off,103,0,0,,12,,,71,127
69562,note_off,0,0,0,,1,,,49,127
69562,note_off,0,0,0,,12,,,59,127
69564,note_on,2,0,0,,10,,,69,127
69564,note_on,0,0,0,,10,,,57,127
69564,note_on,0,0,0,,6,,,54,127
69771,note_off,207,0,0,,10,,,69,127
69791,note_on,20,0,0,,10,,,81,127
69981,note_off,190,0,0,,6,,,54,127
69981,note_off,0,0,0,,10,,,57,127
70001,note_on,20,0,0,,1,,,49,127
70001,note_on,0,0,0,,10,,,57,127
70208,note_off,207,0,0,,10,,,81,127
70210,note_on,2,0,0,,8,,,80,127
70313,note_off,103,0,0,,8,,,80,127
70315,note_on,2,0,0,,10,,,81,127
70418,note_off,103,0,0,,10,,,81,127
70418,note_off,0,0,0,,10,,,57,127
70418,note_off,0,0,0,,1,,,49,127
70420,note_on,2,0,0,,2,,,50,127
70420,note_on,0,0,0,,10,,,57,127
70420,note_on,0,0,0,,12,,,71,127
70616,note_off,196,0,0,,12,,,71,127
70629,note_on,13,0,0,,8,,,80,127
70836,note_off,207,0,0,,10,,,57,127
70836,note_off,0,0,0,,2,,,50,127
70838,note_on,2,0,0,,4,,,52,127
70838,note_on,0,0,0,,12,,,59,127
71045,note_off,207,0,0,,8,,,80,127
71047,note_on,2,0,0,,6,,,78,127
71150,note_off,103,0,0,,6,,,78,127
71152,note_on,2,0,0,,8,,,80,127
71255,note_off,103,0,0,,8,,,80,127
71255,note_off,0,0,0,,12,,,59,127
71255,note_off,0,0,0,,4,,,52,127
71257,note_on,2,0,0,,6,,,54,127
71257,note_on,0,0,0,,10,,,57,127
71257,note_on,0,0,0,,10,,,69,127
71453,note_off,196,0,0,,10,,,69,127
71466,note_on,13,0,0,,6,,,78,127
71673,note_off,207,0,0,,10,,,57,127
71673,note_off,0,0,0,,6,,,54,127
71675,note_on,2,0,0,,2,,,50,127
71882,note_off,207,0,0,,6,,,78,127
71884,note_on,2,0,0,,4,,,76,127
71987,note_off,103,0,0,,4,,,76,127
71989,note_on,2,0,0,,6,,,78,127
72092,note_off,103,0,0,,6,,,78,127
72092,note_off,0,0,0,,2,,,50,127
72094,note_on,2,0,0,,4,,,52,127
72094,note_on,0,0,0,,8,,,68,127
72312,note_off,218,0,0,,8,,,68,127
72321,note_on,9,0,0,,12,,,71,127
72424,note_off,103,0,0,,12,,,71,127
72426,note_on,2,0,0,,4,,,76,127
72511,note_off,85,0,0,,4,,,52,127
72528,note_off,17,0,0,,4,,,76,127
72530,note_on,2,0,0,,12,,,71,127
72530,note_on,0,0,0,,8,,,56,127
72530,note_on,0,0,0,,4,,,64,127
72737,note_off,207,0,0,,12,,,71,127
72739,note_on,2,0,0,,4,,,76,127
72946,note_off,207,0,0,,4,,,76,127
72946,note_off,0,0,0,,4,,,64,127
72946,note_off,0,0,0,,8,,,56,127
72948,note_on,2,0,0,,1,,,73,127
72948,note_on,0,0,0,,4,,,64,127
72948,note_on,0,0,0,,10,,,57,127
73155,note_off,207,0,0,,1,,,73,127
73157,note_on,2,0,0,,4,,,76,127
73260,note_off,103,0,0,,4,,,76,127
73262,note_on,2,0,0,,10,,,81,127
73365,note_off,103,0,0,,10,,,81,127
73365,note_off,0,0,0,,10,,,57,127
73365,note_off,0,0,0,,4,,,64,127
73367,note_on,2,0,0,,4,,,76,127
73367,note_on,0,0,0,,4,,,64,127
73367,note_on,0,0,0,,10,,,57,127
73574,note_off,207,0,0,,4,,,76,127
73576,note_on,2,0,0,,10,,,81,127
73783,note_off,207,0,0,,10,,,81,127
73783,note_off,0,0,0,,10,,,57,127
73783,note_off,0,0,0,,4,,,64,127
73785,note_on,2,0,0,,12,,,71,127
73785,note_on,0,0,0,,4,,,64,127
73785,note_on,0,0,0,,8,,,56,127
73981,note_off,196,0,0,,12,,,71,127
73994,note_on,13,0,0,,4,,,76,127
74097,note_off,103,0,0,,4,,,76,127
74099,note_on,2,0,0,,6,,,78,127
74202,note_off,103,0,0,,6,,,78,127
74202,note_off,0,0,0,,8,,,56,127
74202,note_off,0,0,0,,4,,,64,127
74204,note_on,2,0,0,,4,,,76,127
74204,note_on,0,0,0,,8,,,56,127
74204,note_on,0,0,0,,4,,,64,127
74411,note_off,207,0,0,,4,,,76,127
74413,note_on,2,0,0,,2,,,74,127
74620,note_off,207,0,0,,2,,,74,127
74620,note_off,0,0,0,,4,,,64,127
74620,note_off,0,0,0,,8,,,56,127
74622,note_on,2,0,0,,1,,,73,127
74622,note_on,0,0,0,,10,,,57,127
74622,note_on,0,0,0,,4,,,64,127
74829,note_off,207,0,0,,1,,,73,127
74831,note_on,2,0,0,,4,,,76,127
74934,note_off,103,0,0,,4,,,76,127
74936,note_on,2,0,0,,6,,,78,127
75039,note_off,103,0,0,,6,,,78,127
75039,note_off,0,0,0,,4,,,64,127
75039,note_off,0,0,0,,10,,,57,127
75041,note_on,2,0,0,,4,,,76,127
75041,note_on,0,0,0,,4,,,64,127
75041,note_on,0,0,0,,8,,,56,127
75248,note_off,207,0,0,,4,,,76,127
75250,note_on,2,0,0,,2,,,74,127
75457,note_off,207,0,0,,2,,,74,127
75457,note_off,0,0,0,,8,,,56,127
75457,note_off,0,0,0,,4,,,64,127
75459,note_on,2,0,0,,1,,,73,127
75459,note_on,0,0,0,,4,,,64,127
75459,note_on,0,0,0,,10,,,57,127
75666,note_off,207,0,0,,1,,,73,127
75668,note_on,2,0,0,,10,,,81,127
75771,note_off,103,0,0,,10,,,81,127
75773,note_on,2,0,0,,12,,,83,127
75876,note_off,103,0,0,,12,,,83,127
75878,note_on,2,0,0,,1,,,85,127
75981,note_off,103,0,0,,1,,,85,127
75983,note_on,2,0,0,,12,,,83,127
76086,note_off,103,0,0,,12,,,83,127
76087,note_off,1,0,0,,10,,,57,127
76087,note_off,0,0,0,,4,,,64,127
76088,note_on,1,0,0,,10,,,81,127
76191,note_off,103,0,0,,10,,,81,127
76193,note_on,2,0,0,,8,,,80,127
76296,note_off,103,0,0,,8,,,80,127
76298,note_on,2,0,0,,6,,,78,127
76298,note_on,0,0,0,,2,,,62,127
76401,note_off,103,0,0,,6,,,78,127
76403,note_on,2,0,0,,4,,,76,127
76506,note_off,103,0,0,,4,,,76,127
76508,note_on,2,0,0,,2,,,74,127
76611,note_off,103,0,0,,2,,,74,127
76613,note_on,2,0,0,,1,,,73,127
76716,note_off,103,0,0,,1,,,73,127
76718,note_on,2,0,0,,12,,,71,127
76718,note_on,0,0,0,,2,,,50,127
76821,note_off,103,0,0,,12,,,71,127
76823,note_on,2,0,0,,10,,,69,127
76926,note_off,103,0,0,,10,,,69,127
76928,note_on,2,0,0,,8,,,68,127
77031,note_off,103,0,0,,8,,,68,127
77033,note_on,2,0,0,,6,,,66,127
77136,note_off,103,0,0,,6,,,66,127
77136,note_off,0,0,0,,2,,,50,127
77137,note_off,1,0,0,,2,,,62,127
77138,note_on,1,0,0,,6,,,66,127
77138,note_on,0,0,0,,4,,,52,127
77188,note_off,50,0,0,,6,,,66,127
77190,note_on,2,0,0,,4,,,64,127
77240,note_off,50,0,0,,4,,,64,127
77242,note_on,2,0,0,,6,,,66,127
77292,note_off,50,0,0,,6,,,66,127
77294,note_on,2,0,0,,4,,,64,127
77705,note_on,411,0,0,,4,,,40,127
77763,note_off,58,0,0,,4,,,64,127
77974,note_off,211,0,0,,4,,,52,127
78324,note_on,350,0,0,,8,,,68,127
78327,note_off,3,0,0,,4,,,40,127
78426,note_off,99,0,0,,8,,,68,127
78428,note_on,2,0,0,,10,,,69,127
78531,note_off,103,0,0,,10,,,69,127
78533,note_on,2,0,0,,4,,,52,127
78533,note_on,0,0,0,,12,,,71,127
78636,note_off,103,0,0,,12,,,71,127
78638,note_on,2,0,0,,4,,,64,127
78741,note_off,103,0,0,,4,,,64,127
78743,note_on,2,0,0,,1,,,73,127
78846,note_off,103,0,0,,1,,,73,127
78848,note_on,2,0,0,,4,,,64,127
78951,note_off,103,0,0,,4,,,64,127
78953,note_on,2,0,0,,2,,,74,127
79056,note_off,103,0,0,,2,,,74,127
79058,note_on,2,0,0,,4,,,64,127
79161,note_off,103,0,0,,4,,,64,127
79163,note_on,2,0,0,,3,,,75,127
79266,note_off,103,0,0,,3,,,75,127
79268,note_on,2,0,0,,4,,,76,127
79371,note_off,103,0,0,,4,,,76,127
79373,note_on,2,0,0,,1,,,73,127
79423,note_off,50,0,0,,1,,,73,127
79425,note_on,2,0,0,,12,,,71,127
79476,note_off,51,0,0,,12,,,71,127
79477,note_on,1,0,0,,1,,,73,127
79527,note_off,50,0,0,,1,,,73,127
79529,note_on,2,0,0,,12,,,71,127
79579,note_off,50,0,0,,4,,,52,127
79581,note_on,2,0,0,,3,,,51,127
79684,note_off,103,0,0,,3,,,51,127
79686,note_on,2,0,0,,4,,,52,127
79789,note_off,103,0,0,,4,,,52,127
79791,note_on,2,0,0,,4,,,40,127
79998,note_off,207,0,0,,12,,,71,127
80018,note_on,20,0,0,,8,,,68,127
80121,note_off,103,0,0,,8,,,68,127
80123,note_on,2,0,0,,10,,,69,127
80208,note_off,85,0,0,,4,,,40,127
80225,note_off,17,0,0,,10,,,69,127
80227,note_on,2,0,0,,12,,,71,127
80227,note_on,0,0,0,,4,,,52,127
80330,note_off,103,0,0,,12,,,71,127
80332,note_on,2,0,0,,4,,,64,127
80435,note_off,103,0,0,,4,,,64,127
80437,note_on,2,0,0,,1,,,73,127
80540,note_off,103,0,0,,1,,,73,127
80542,note_on,2,0,0,,4,,,64,127
80645,note_off,103,0,0,,4,,,64,127
80647,note_on,2,0,0,,2,,,74,127
80750,note_off,103,0,0,,2,,,74,127
80752,note_on,2,0,0,,4,,,64,127
80855,note_off,103,0,0,,4,,,64,127
80857,note_on,2,0,0,,3,,,75,127
80960,note_off,103,0,0,,3,,,75,127
80962,note_on,2,0,0,,4,,,76,127
81065,note_off,103,0,0,,4,,,76,127
81067,note_on,2,0,0,,1,,,73,127
81117,note_off,50,0,0,,1,,,73,127
81119,note_on,2,0,0,,12,,,71,127
81169,note_off,50,0,0,,12,,,71,127
81171,note_on,2,0,0,,1,,,73,127
81221,note_off,50,0,0,,1,,,73,127
81223,note_on,2,0,0,,12,,,71,127
81273,note_off,50,0,0,,4,,,52,127
81275,note_on,2,0,0,,3,,,51,127
81378,note_off,103,0,0,,3,,,51,127
81380,note_on,2,0,0,,4,,,52,127
81483,note_off,103,0,0,,4,,,52,127
81485,note_on,2,0,0,,4,,,40,127
81692,note_off,207,0,0,,12,,,71,127
81712,note_on,20,0,0,,8,,,68,127
81815,note_off,103,0,0,,8,,,68,127
81817,note_on,2,0,0,,10,,,69,127
81902,note_off,85,0,0,,4,,,40,127
81919,note_off,17,0,0,,10,,,69,127
81921,note_on,2,0,0,,4,,,52,127
81921,note_on,0,0,0,,12,,,71,127
82024,note_off,103,0,0,,12,,,71,127
82026,note_on,2,0,0,,4,,,64,127
82129,note_off,103,0,0,,4,,,64,127
82131,note_on,2,0,0,,1,,,73,127
82234,note_off,103,0,0,,1,,,73,127
82236,note_on,2,0,0,,4,,,64,127
82339,note_off,103,0,0,,4,,,64,127
82339,note_off,0,0,0,,4,,,52,127
82341,note_on,2,0,0,,4,,,52,127
82341,note_on,0,0,0,,2,,,74,127
82444,note_off,103,0,0,,2,,,74,127
82446,note_on,2,0,0,,4,,,64,127
82549,note_off,103,0,0,,4,,,64,127
82551,note_on,2,0,0,,4,,,76,127
82654,note_off,103,0,0,,4,,,76,127
82656,note_on,2,0,0,,4,,,64,127
82759,note_off,103,0,0,,4,,,64,127
82759,note_off,0,0,0,,4,,,52,127
82761,note_on,2,0,0,,2,,,50,127
82761,note_on,0,0,0,,6,,,78,127
82968,note_off,207,0,0,,2,,,50,127
82970,note_on,2,0,0,,2,,,62,127
83177,note_off,207,0,0,,2,,,62,127
83179,note_on,2,0,0,,12,,,59,127
83386,note_off,207,0,0,,12,,,59,127
83386,note_off,0,0,0,,6,,,78,127
83388,note_on,2,0,0,,8,,,56,127
83388,note_on,0,0,0,,4,,,76,127
83491,note_off,103,0,0,,4,,,76,127
83493,note_on,2,0,0,,2,,,74,127
83596,note_off,103,0,0,,2,,,74,127
83596,note_off,0,0,0,,8,,,56,127
83598,note_on,2,0,0,,10,,,57,127
83598,note_on,0,0,0,,1,,,73,127
83701,note_off,103,0,0,,1,,,73,127
83703,note_on,2,0,0,,2,,,74,127
83806,note_off,103,0,0,,2,,,74,127
83806,note_off,0,0,0,,10,,,57,127
83808,note_on,2,0,0,,1,,,49,127
83808,note_on,0,0,0,,4,,,76,127
83911,note_off,103,0,0,,4,,,76,127
83913,note_on,2,0,0,,10,,,69,127
84016,note_off,103,0,0,,10,,,69,127
84016,note_off,0,0,0,,1,,,49,127
84018,note_on,2,0,0,,2,,,50,127
84018,note_on,0,0,0,,1,,,73,127
84121,note_off,103,0,0,,1,,,73,127
84123,note_on,2,0,0,,12,,,71,127
84226,note_off,103,0,0,,12,,,71,127
84226,note_off,0,0,0,,2,,,50,127
84228,note_on,2,0,0,,4,,,52,127
84228,note_on,0,0,0,,10,,,69,127
84331,note_off,103,0,0,,10,,,69,127
84333,note_on,2,0,0,,8,,,68,127
84436,note_off,103,0,0,,8,,,68,127
84436,note_off,0,0,0,,4,,,52,127
84438,note_on,2,0,0,,10,,,45,127
84438,note_on,0,0,0,,10,,,69,127
84853,note_off,415,0,0,,10,,,69,127
84855,note_off,2,0,0,,10,,,45,127
84875,note_on,20,0,0,,4,,,40,127
85084,note_on,209,0,0,,8,,,68,127
85187,note_off,103,0,0,,8,,,68,127
85189,note_on,2,0,0,,10,,,69,127
85292,note_off,103,0,0,,10,,,69,127
85292,note_off,0,0,0,,4,,,40,127
85294,note_on,2,0,0,,12,,,71,127
85294,note_on,0,0,0,,4,,,52,127
85397,note_off,103,0,0,,12,,,71,127
85399,note_on,2,0,0,,4,,,64,127
85502,note_off,103,0,0,,4,,,64,127
85504,note_on,2,0,0,,1,,,73,127
85607,note_off,103,0,0,,1,,,73,127
85609,note_on,2,0,0,,4,,,64,127
85712,note_off,103,0,0,,4,,,64,127
85714,note_on,2,0,0,,2,,,74,127
85817,note_off,103,0,0,,2,,,74,127
85819,note_on,2,0,0,,4,,,64,127
85922,note_off,103,0,0,,4,,,64,127
85924,note_on,2,0,0,,3,,,75,127
86027,note_off,103,0,0,,3,,,75,127
86029,note_on,2,0,0,,4,,,76,127
86132,note_off,103,0,0,,4,,,76,127
86134,note_on,2,0,0,,1,,,73,127
86184,note_off,50,0,0,,1,,,73,127
86186,note_on,2,0,0,,12,,,71,127
86236,note_off,50,0,0,,12,,,71,127
86238,note_on,2,0,0,,1,,,73,127
86288,note_off,50,0,0,,1,,,73,127
86290,note_on,2,0,0,,12,,,71,127
86340,note_off,50,0,0,,4,,,52,127
86342,note_on,2,0,0,,3,,,51,127
86445,note_off,103,0,0,,3,,,51,127
86447,note_on,2,0,0,,4,,,52,127
86550,note_off,103,0,0,,4,,,52,127
86552,note_on,2,0,0,,4,,,40,127
86759,note_off,207,0,0,,12,,,71,127
86779,note_on,20,0,0,,8,,,68,127
86882,note_off,103,0,0,,8,,,68,127
86884,note_on,2,0,0,,10,,,69,127
86969,note_off,85,0,0,,4,,,40,127
86986,note_off,17,0,0,,10,,,69,127
86988,note_on,2,0,0,,4,,,52,127
86988,note_on,0,0,0,,12,,,71,127
87091,note_off,103,0,0,,12,,,71,127
87093,note_on,2,0,0,,4,,,64,127
87196,note_off,103,0,0,,4,,,64,127
87198,note_on,2,0,0,,1,,,73,127
87301,note_off,103,0,0,,1,,,73,127
87303,note_on,2,0,0,,4,,,64,127
87406,note_off,103,0,0,,4,,,64,127
87408,note_on,2,0,0,,2,,,74,127
87511,note_off,103,0,0,,2,,,74,127
87513,note_on,2,0,0,,4,,,64,127
87616,note_off,103,0,0,,4,,,64,127
87618,note_on,2,0,0,,3,,,75,127
87721,note_off,103,0,0,,3,,,75,127
87723,note_on,2,0,0,,4,,,76,127
87826,note_off,103,0,0,,4,,,76,127
87828,note_on,2,0,0,,1,,,73,127
87878,note_off,50,0,0,,1,,,73,127
87880,note_on,2,0,0,,12,,,71,127
87930,note_off,50,0,0,,12,,,71,127
87932,note_on,2,0,0,,1,,,73,127
87982,note_off,50,0,0,,1,,,73,127
87984,note_on,2,0,0,,12,,,71,127
88034,note_off,50,0,0,,4,,,52,127
88036,note_on,2,0,0,,3,,,51,127
88139,note_off,103,0,0,,3,,,51,127
88141,note_on,2,0,0,,4,,,52,127
88244,note_off,103,0,0,,4,,,52,127
88246,note_on,2,0,0,,4,,,40,127
88453,note_off,207,0,0,,12,,,71,127
88473,note_on,20,0,0,,8,,,68,127
88576,note_off,103,0,0,,8,,,68,127
88578,note_on,2,0,0,,10,,,69,127
88663,note_off,85,0,0,,4,,,40,127
88680,note_off,17,0,0,,10,,,69,127
88682,note_on,2,0,0,,12,,,71,127
88682,note_on,0,0,0,,4,,,52,127
88785,note_off,103,0,0,,12,,,71,127
88787,note_on,2,0,0,,4,,,64,127
88890,note_off,103,0,0,,4,,,64,127
88892,note_on,2,0,0,,1,,,73,127
88995,note_off,103,0,0,,1,,,73,127
88997,note_on,2,0,0,,4,,,64,127
89100,note_off,103,0,0,,4,,,64,127
89100,note_off,0,0,0,,4,,,52,127
89102,note_on,2,0,0,,2,,,74,127
89102,note_on,0,0,0,,4,,,52,127
89205,note_off,103,0,0,,2,,,74,127
89207,note_on,2,0,0,,4,,,64,127
89310,note_off,103,0,0,,4,,,64,127
89312,note_on,2,0,0,,4,,,76,127
89415,note_off,103,0,0,,4,,,76,127
89417,note_on,2,0,0,,4,,,64,127
89520,note_off,103,0,0,,4,,,64,127
89520,note_off,0,0,0,,4,,,52,127
89522,note_on,2,0,0,,6,,,78,127
89522,note_on,0,0,0,,2,,,50,127
89729,note_off,207,0,0,,2,,,50,127
89731,note_on,2,0,0,,2,,,62,127
89938,note_off,207,0,0,,2,,,62,127
89940,note_on,2,0,0,,12,,,59,127
90147,note_off,207,0,0,,12,,,59,127
90147,note_off,0,0,0,,6,,,78,127
90149,note_on,2,0,0,,4,,,76,127
90149,note_on,0,0,0,,8,,,56,127
90252,note_off,103,0,0,,4,,,76,127
90254,note_on,2,0,0,,2,,,74,127
90357,note_off,103,0,0,,2,,,74,127
90357,note_off,0,0,0,,8,,,56,127
90359,note_on,2,0,0,,1,,,73,127
90359,note_on,0,0,0,,10,,,57,127
90462,note_off,103,0,0,,1,,,73,127
90464,note_on,2,0,0,,2,,,74,127
90567,note_off,103,0,0,,2,,,74,127
90567,note_off,0,0,0,,10,,,57,127
90569,note_on,2,0,0,,4,,,76,127
90569,note_on,0,0,0,,1,,,49,127
90672,note_off,103,0,0,,4,,,76,127
90674,note_on,2,0,0,,10,,,69,127
90777,note_off,103,0,0,,10,,,69,127
90777,note_off,0,0,0,,1,,,49,127
90779,note_on,2,0,0,,1,,,73,127
90779,note_on,0,0,0,,2,,,50,127
90882,note_off,103,0,0,,1,,,73,127
90884,note_on,2,0,0,,12,,,71,127
90987,note_off,103,0,0,,12,,,71,127
90987,note_off,0,0,0,,2,,,50,127
90989,note_on,2,0,0,,10,,,69,127
90989,note_on,0,0,0,,4,,,52,127
91092,note_off,103,0,0,,10,,,69,127
91094,note_on,2,0,0,,8,,,68,127
91197,note_off,103,0,0,,8,,,68,127
91197,note_off,0,0,0,,4,,,52,127
91199,note_on,2,0,0,,10,,,69,127
91199,note_on,0,0,0,,10,,,45,127
91406,note_off,207,0,0,,10,,,69,127
91434,note_on,28,0,0,,4,,,76,127
91615,note_off,181,0,0,,10,,,45,127
91652,note_off,37,0,0,,4,,,76,127
91652,note_on,0,0,0,,6,,,78,127
91652,note_on,0,0,0,,10,,,57,127
91652,note_on,0,0,0,,2,,,50,127
91755,note_off,103,0,0,,6,,,78,127
91757,note_on,2,0,0,,8,,,80,127
91860,note_off,103,0,0,,8,,,80,127
91862,note_on,2,0,0,,10,,,81,127
91965,note_off,103,0,0,,10,,,81,127
91967,note_on,2,0,0,,6,,,78,127
92070,note_off,103,0,0,,6,,,78,127
92070,note_off,0,0,0,,2,,,50,127
92070,note_off,0,0,0,,10,,,57,127
92072,note_on,2,0,0,,4,,,76,127
92072,note_on,0,0,0,,10,,,57,127
92072,note_on,0,0,0,,4,,,52,127
92279,note_off,207,0,0,,4,,,76,127
92281,note_on,2,0,0,,2,,,74,127
92384,note_off,103,0,0,,2,,,74,127
92386,note_on,2,0,0,,1,,,73,127
92489,note_off,103,0,0,,1,,,73,127
92489,note_off,0,0,0,,4,,,52,127
92489,note_off,0,0,0,,10,,,57,127
92491,note_on,2,0,0,,2,,,74,127
92491,note_on,0,0,0,,4,,,52,127
92491,note_on,0,0,0,,8,,,56,127
92594,note_off,103,0,0,,2,,,74,127
92596,note_on,2,0,0,,4,,,76,127
92699,note_off,103,0,0,,4,,,76,127
92701,note_on,2,0,0,,6,,,78,127
92804,note_off,103,0,0,,6,,,78,127
92806,note_on,2,0,0,,2,,,74,127
92909,note_off,103,0,0,,2,,,74,127
92909,note_off,0,0,0,,8,,,56,127
92909,note_off,0,0,0,,4,,,52,127
92911,note_on,2,0,0,,1,,,73,127
92911,note_on,0,0,0,,10,,,45,127
93107,note_off,196,0,0,,1,,,73,127
93120,note_on,13,0,0,,10,,,81,127
93327,note_off,207,0,0,,10,,,45,127
93329,note_on,2,0,0,,1,,,49,127
93536,note_off,207,0,0,,10,,,81,127
93538,note_on,2,0,0,,8,,,80,127
93641,note_off,103,0,0,,8,,,80,127
93643,note_on,2,0,0,,10,,,81,127
93746,note_off,103,0,0,,10,,,81,127
93746,note_off,0,0,0,,1,,,49,127
93748,note_on,2,0,0,,12,,,71,127
93748,note_on,0,0,0,,2,,,50,127
93955,note_off,207,0,0,,12,,,71,127
93957,note_on,2,0,0,,1,,,73,127
94060,note_off,103,0,0,,1,,,73,127
94062,note_on,2,0,0,,2,,,74,127
94165,note_off,103,0,0,,2,,,74,127
94165,note_off,0,0,0,,2,,,50,127
94167,note_on,2,0,0,,1,,,73,127
94167,note_on,0,0,0,,4,,,52,127
94270,note_off,103,0,0,,1,,,73,127
94272,note_on,2,0,0,,12,,,71,127
94375,note_off,103,0,0,,12,,,71,127
94377,note_on,2,0,0,,10,,,69,127
94480,note_off,103,0,0,,10,,,69,127
94482,note_on,2,0,0,,8,,,68,127
94585,note_off,103,0,0,,8,,,68,127
94585,note_off,0,0,0,,4,,,52,127
94587,note_on,2,0,0,,10,,,69,127
94587,note_on,0,0,0,,10,,,45,127
94794,note_off,207,0,0,,10,,,69,127
94814,note_on,20,0,0,,4,,,76,127
94917,note_off,103,0,0,,4,,,76,127
94919,note_on,2,0,0,,1,,,73,127
95004,note_off,85,0,0,,10,,,45,127
95021,note_off,17,0,0,,1,,,73,127
95023,note_on,2,0,0,,10,,,57,127
95023,note_on,0,0,0,,1,,,49,127
95023,note_on,0,0,0,,10,,,69,127
95230,note_off,207,0,0,,10,,,69,127
95232,note_on,2,0,0,,10,,,69,127
95439,note_off,207,0,0,,10,,,69,127
95439,note_off,0,0,0,,1,,,49,127
95439,note_off,0,0,0,,10,,,57,127
95441,note_on,2,0,0,,10,,,57,127
95441,note_on,0,0,0,,2,,,50,127
95441,note_on,0,0,0,,10,,,69,127
95648,note_off,207,0,0,,10,,,69,127
95650,note_on,2,0,0,,6,,,78,127
95753,note_off,103,0,0,,6,,,78,127
95755,note_on,2,0,0,,2,,,74,127
95858,note_off,103,0,0,,2,,,74,127
95858,note_off,0,0,0,,2,,,50,127
95858,note_off,0,0,0,,10,,,57,127
95860,note_on,2,0,0,,2,,,50,127
95860,note_on,0,0,0,,10,,,57,127
95860,note_on,0,0,0,,10,,,69,127
96067,note_off,207,0,0,,10,,,69,127
96069,note_on,2,0,0,,10,,,69,127
96276,note_off,207,0,0,,10,,,69,127
96276,note_off,0,0,0,,10,,,57,127
96276,note_off,0,0,0,,2,,,50,127
96278,note_on,2,0,0,,1,,,49,127
96278,note_on,0,0,0,,10,,,57,127
96278,note_on,0,0,0,,10,,,69,127
96485,note_off,207,0,0,,10,,,69,127
96487,note_on,2,0,0,,10,,,81,127
96590,note_off,103,0,0,,10,,,81,127
96592,note_on,2,0,0,,4,,,76,127
96695,note_off,103,0,0,,4,,,76,127
96695,note_off,0,0,0,,10,,,57,127
96695,note_off,0,0,0,,1,,,49,127
96697,note_on,2,0,0,,1,,,49,127
96697,note_on,0,0,0,,10,,,57,127
96697,note_on,0,0,0,,10,,,69,127
96904,note_off,207,0,0,,10,,,69,127
96906,note_on,2,0,0,,10,,,69,127
97113,note_off,207,0,0,,10,,,69,127
97113,note_off,0,0,0,,10,,,57,127
97113,note_off,0,0,0,,1,,,49,127
97115,note_on,2,0,0,,2,,,50,127
97115,note_on,0,0,0,,2,,,74,127
97322,note_off,207,0,0,,2,,,74,127
97324,note_on,2,0,0,,4,,,76,127
97427,note_off,103,0,0,,4,,,76,127
97429,note_on,2,0,0,,6,,,78,127
97532,note_off,103,0,0,,6,,,78,127
97532,note_off,0,0,0,,2,,,50,127
97534,note_on,2,0,0,,4,,,40,127
97534,note_on,0,0,0,,4,,,52,127
97534,note_on,0,0,0,,4,,,76,127
97637,note_off,103,0,0,,4,,,76,127
97639,note_on,2,0,0,,2,,,74,127
97742,note_off,103,0,0,,2,,,74,127
97744,note_on,2,0,0,,1,,,73,127
97847,note_off,103,0,0,,1,,,73,127
97849,note_on,2,0,0,,12,,,71,127
97952,note_off,103,0,0,,12,,,71,127
97952,note_off,0,0,0,,4,,,52,127
97952,note_off,0,0,0,,4,,,40,127
97954,note_on,2,0,0,,10,,,45,127
97954,note_on,0,0,0,,10,,,69,127
98161,note_off,207,0,0,,10,,,69,127
98181,note_on,20,0,0,,4,,,76,127
98284,note_off,103,0,0,,4,,,76,127
98286,note_on,2,0,0,,1,,,73,127
98371,note_off,85,0,0,,10,,,45,127
98388,note_off,17,0,0,,1,,,73,127
98390,note_on,2,0,0,,10,,,69,127
98390,note_on,0,0,0,,10,,,57,127
98390,note_on,0,0,0,,1,,,49,127
98597,note_off,207,0,0,,10,,,69,127
98599,note_on,2,0,0,,10,,,69,127
98806,note_off,207,0,0,,10,,,69,127
98806,note_off,0,0,0,,1,,,49,127
98806,note_off,0,0,0,,10,,,57,127
98808,note_on,2,0,0,,10,,,69,127
98808,note_on,0,0,0,,2,,,50,127
98808,note_on,0,0,0,,10,,,57,127
99015,note_off,207,0,0,,10,,,69,127
99017,note_on,2,0,0,,6,,,78,127
99120,note_off,103,0,0,,6,,,78,127
99122,note_on,2,0,0,,2,,,74,127
99225,note_off,103,0,0,,2,,,74,127
99225,note_off,0,0,0,,10,,,57,127
99225,note_off,0,0,0,,2,,,50,127
99227,note_on,2,0,0,,10,,,69,127
99227,note_on,0,0,0,,2,,,50,127
99227,note_on,0,0,0,,10,,,57,127
99434,note_off,207,0,0,,10,,,69,127
99436,note_on,2,0,0,,10,,,69,127
99643,note_off,207,0,0,,10,,,69,127
99643,note_off,0,0,0,,10,,,57,127
99643,note_off,0,0,0,,2,,,50,127
99645,note_on,2,0,0,,10,,,69,127
99645,note_on,0,0,0,,10,,,57,127
99645,note_on,0,0,0,,1,,,49,127
99852,note_off,207,0,0,,10,,,69,127
99854,note_on,2,0,0,,10,,,81,127
99957,note_off,103,0,0,,10,,,81,127
99959,note_on,2,0,0,,4,,,76,127
100062,note_off,103,0,0,,4,,,76,127
100062,note_off,0,0,0,,1,,,49,127
100062,note_off,0,0,0,,10,,,57,127
100064,note_on,2,0,0,,10,,,69,127
100064,note_on,0,0,0,,10,,,57,127
100064,note_on,0,0,0,,1,,,49,127
100271,note_off,207,0,0,,10,,,69,127
100273,note_on,2,0,0,,10,,,69,127
100480,note_off,207,0,0,,10,,,69,127
100480,note_off,0,0,0,,1,,,49,127
100480,note_off,0,0,0,,10,,,57,127
100482,note_on,2,0,0,,2,,,74,127
100482,note_on,0,0,0,,2,,,50,127
100689,note_off,207,0,0,,2,,,74,127
100691,note_on,2,0,0,,4,,,76,127
100794,note_off,103,0,0,,4,,,76,127
100796,note_on,2,0,0,,6,,,78,127
100899,note_off,103,0,0,,6,,,78,127
100899,note_off,0,0,0,,2,,,50,127
100901,note_on,2,0,0,,4,,,76,127
100901,note_on,0,0,0,,4,,,52,127
101004,note_off,103,0,0,,4,,,76,127
101006,note_on,2,0,0,,2,,,74,127
101109,note_off,103,0,0,,2,,,74,127
101111,note_on,2,0,0,,1,,,73,127
101214,note_off,103,0,0,,1,,,73,127
101216,note_on,2,0,0,,12,,,71,127
101319,note_off,103,0,0,,12,,,71,127
101319,note_off,0,0,0,,4,,,52,127
101321,note_on,2,0,0,,1,,,73,127
101321,note_on,0,0,0,,10,,,45,127
101424,note_off,103,0,0,,1,,,73,127
101426,note_on,2,0,0,,10,,,81,127
101529,note_off,103,0,0,,10,,,81,127
101531,note_on,2,0,0,,8,,,80,127
101634,note_off,103,0,0,,8,,,80,127
101636,note_on,2,0,0,,6,,,78,127
101739,note_off,103,0,0,,6,,,78,127
101741,note_on,2,0,0,,4,,,76,127
101844,note_off,103,0,0,,4,,,76,127
101846,note_on,2,0,0,,2,,,74,127
101949,note_off,103,0,0,,2,,,74,127
101950,note_off,1,0,0,,10,,,45,127
101951,note_on,1,0,0,,1,,,73,127
102054,note_off,103,0,0,,1,,,73,127
102056,note_on,2,0,0,,12,,,71,127
102159,note_off,103,0,0,,12,,,71,127
102161,note_on,2,0,0,,1,,,73,127
102161,note_on,0,0,0,,4,,,52,127
102264,note_off,103,0,0,,1,,,73,127
102266,note_on,2,0,0,,4,,,76,127
102369,note_off,103,0,0,,4,,,76,127
102371,note_on,2,0,0,,1,,,73,127
102474,note_off,103,0,0,,1,,,73,127
102476,note_on,2,0,0,,10,,,69,127
102579,note_off,103,0,0,,10,,,69,127
102581,note_on,2,0,0,,1,,,73,127
102581,note_on,0,0,0,,4,,,40,127
102684,note_off,103,0,0,,1,,,73,127
102686,note_on,2,0,0,,12,,,71,127
102789,note_off,103,0,0,,12,,,71,127
102791,note_on,2,0,0,,10,,,69,127
102894,note_off,103,0,0,,10,,,69,127
102896,note_on,2,0,0,,8,,,68,127
102999,note_off,103,0,0,,8,,,68,127
102999,note_off,0,0,0,,4,,,40,127
103000,note_off,1,0,0,,4,,,52,127
103001,note_on,1,0,0,,10,,,69,127
103001,note_on,0,0,0,,10,,,45,127
103106,note_on,105,0,0,,10,,,81,127
103209,note_off,103,0,0,,10,,,81,127
103209,note_off,0,0,0,,10,,,69,127
103211,note_on,2,0,0,,8,,,80,127
103314,note_off,103,0,0,,8,,,80,127
103316,note_on,2,0,0,,6,,,78,127
103419,note_off,103,0,0,,6,,,78,127
103421,note_on,2,0,0,,4,,,76,127
103524,note_off,103,0,0,,4,,,76,127
103526,note_on,2,0,0,,2,,,74,127
103629,note_off,103,0,0,,2,,,74,127
103630,note_off,1,0,0,,10,,,45,127
103631,note_on,1,0,0,,1,,,73,127
103734,note_off,103,0,0,,1,,,73,127
103736,note_on,2,0,0,,12,,,71,127
103839,note_off,103,0,0,,12,,,71,127
103841,note_on,2,0,0,,1,,,73,127
103841,note_on,0,0,0,,4,,,52,127
103944,note_off,103,0,0,,1,,,73,127
103946,note_on,2,0,0,,4,,,76,127
104050,note_off,104,0,0,,4,,,76,127
104053,note_on,3,0,0,,1,,,73,127
104157,note_off,104,0,0,,1,,,73,127
104160,note_on,3,0,0,,10,,,69,127
104264,note_off,104,0,0,,10,,,69,127
104267,note_on,3,0,0,,4,,,40,127
104267,note_on,0,0,0,,1,,,73,127
104371,note_off,104,0,0,,1,,,73,127
104374,note_on,3,0,0,,12,,,71,127
104478,note_off,104,0,0,,12,,,71,127
104481,note_on,3,0,0,,10,,,69,127
104585,note_off,104,0,0,,10,,,69,127
104588,note_on,3,0,0,,8,,,68,127
104679,note_off,91,0,0,,4,,,52,127
104692,note_off,13,0,0,,8,,,68,127
104692,note_off,0,0,0,,4,,,40,127
104723,note_on,31,0,0,,10,,,69,127
104723,note_on,0,0,0,,10,,,45,127
106522,note_off,1799,0,0,,10,,,45,127
106522,note_off,0,0,0,,10,,,69,127
113664,end_of_track,7142,1,0,,,,,,
