tick,type,time,meta,track,program,channel,pitch,tempo,note,velocity
0,copyright,0,1,0,,,,,,
0,program_change,0,0,0,6,0,,,,
0,pitchwheel,0,0,0,,0,0,,,
0,program_change,0,0,0,6,1,,,,
0,pitchwheel,0,0,0,,1,-590,,,
0,program_change,0,0,0,6,2,,,,
0,pitchwheel,0,0,0,,2,-272,,,
0,program_change,0,0,0,6,3,,,,
0,pitchwheel,0,0,0,,3,-353,,,
0,program_change,0,0,0,6,4,,,,
0,pitchwheel,0,0,0,,4,-560,,,
0,program_change,0,0,0,6,5,,,,
0,pitchwheel,0,0,0,,5,-80,,,
0,program_change,0,0,0,6,6,,,,
0,pitchwheel,0,0,0,,6,-625,,,
0,program_change,0,0,0,6,7,,,,
0,pitchwheel,0,0,0,,7,-130,,,
0,program_change,0,0,0,6,8,,,,
0,pitchwheel,0,0,0,,8,-512,,,
0,program_change,0,0,0,6,10,,,,
0,pitchwheel,0,0,0,,10,-464,,,
0,program_change,0,0,0,6,11,,,,
0,pitchwheel,0,0,0,,11,-208,,,
0,program_change,0,0,0,6,12,,,,
0,pitchwheel,0,0,0,,12,-553,,,
0,set_tempo,0,1,0,,,,500000,,
85,note_on,85,0,0,,0,,,60,127
85,note_on,0,0,0,,7,,,79,127
198,note_off,113,0,0,,0,,,60,127
199,note_on,1,0,0,,12,,,59,127
312,note_off,113,0,0,,12,,,59,127
313,note_on,1,0,0,,0,,,60,127
426,note_off,113,0,0,,0,,,60,127
426,note_off,0,0,0,,7,,,79,127
427,note_on,1,0,0,,3,,,63,127
427,note_on,0,0,0,,0,,,72,127
540,note_off,113,0,0,,3,,,63,127
541,note_on,1,0,0,,2,,,62,127
654,note_off,113,0,0,,2,,,62,127
655,note_on,1,0,0,,3,,,63,127
768,note_off,113,0,0,,3,,,63,127
768,note_off,0,0,0,,0,,,72,127
769,note_on,1,0,0,,8,,,68,127
769,note_on,0,0,0,,0,,,84,127
882,note_off,113,0,0,,8,,,68,127
883,note_on,1,0,0,,7,,,67,127
996,note_off,113,0,0,,7,,,67,127
997,note_on,1,0,0,,5,,,65,127
1110,note_off,113,0,0,,5,,,65,127
1111,note_on,1,0,0,,7,,,67,127
1224,note_off,113,0,0,,0,,,84,127
1225,note_on,1,0,0,,12,,,83,127
1338,note_off,113,0,0,,12,,,83,127
1339,note_on,1,0,0,,0,,,84,127
1452,note_off,113,0,0,,0,,,84,127
1453,note_on,1,0,0,,2,,,86,127
1566,note_off,113,0,0,,2,,,86,127
1567,note_on,1,0,0,,8,,,80,127
1680,note_off,113,0,0,,8,,,80,127
1681,note_on,1,0,0,,7,,,79,127
1794,note_off,113,0,0,,7,,,79,127
1795,note_on,1,0,0,,5,,,77,127
1908,note_off,113,0,0,,5,,,77,127
1909,note_on,1,0,0,,3,,,75,127
2022,note_off,113,0,0,,3,,,75,127
2023,note_on,1,0,0,,2,,,74,127
2136,note_off,113,0,0,,2,,,74,127
2136,note_off,0,0,0,,7,,,67,127
2137,note_on,1,0,0,,0,,,60,127
2137,note_on,0,0,0,,3,,,75,127
2250,note_off,113,0,0,,0,,,60,127
2251,note_on,1,0,0,,12,,,59,127
2364,note_off,113,0,0,,12,,,59,127
2365,note_on,1,0,0,,0,,,60,127
2478,note_off,113,0,0,,0,,,60,127
2478,note_off,0,0,0,,3,,,75,127
2479,note_on,1,0,0,,3,,,63,127
2479,note_on,0,0,0,,0,,,72,127
2592,note_off,113,0,0,,3,,,63,127
2593,note_on,1,0,0,,2,,,62,127
2706,note_off,113,0,0,,2,,,62,127
2707,note_on,1,0,0,,3,,,63,127
2820,note_off,113,0,0,,3,,,63,127
2820,note_off,0,0,0,,0,,,72,127
2821,note_on,1,0,0,,8,,,68,127
2821,note_on,0,0,0,,0,,,84,127
2934,note_off,113,0,0,,8,,,68,127
2935,note_on,1,0,0,,7,,,67,127
3048,note_off,113,0,0,,7,,,67,127
3049,note_on,1,0,0,,5,,,65,127
3162,note_off,113,0,0,,5,,,65,127
3163,note_on,1,0,0,,7,,,67,127
3276,note_off,113,0,0,,0,,,84,127
3277,note_on,1,0,0,,12,,,83,127
3390,note_off,113,0,0,,12,,,83,127
3391,note_on,1,0,0,,0,,,84,127
3504,note_off,113,0,0,,0,,,84,127
3505,note_on,1,0,0,,2,,,86,127
3618,note_off,113,0,0,,2,,,86,127
3619,note_on,1,0,0,,8,,,80,127
3732,note_off,113,0,0,,8,,,80,127
3733,note_on,1,0,0,,7,,,79,127
3846,note_off,113,0,0,,7,,,79,127
3847,note_on,1,0,0,,7,,,55,127
3847,note_on,0,0,0,,5,,,77,127
3960,note_off,113,0,0,,5,,,77,127
3961,note_on,1,0,0,,3,,,75,127
4074,note_off,113,0,0,,3,,,75,127
4075,note_on,1,0,0,,2,,,74,127
4187,note_off,112,0,0,,7,,,67,127
4188,note_off,1,0,0,,2,,,74,127
4188,note_off,0,0,0,,7,,,55,127
4189,note_on,1,0,0,,0,,,48,127
4189,note_on,0,0,0,,5,,,77,127
4302,note_off,113,0,0,,5,,,77,127
4303,note_on,1,0,0,,3,,,75,127
4360,note_off,57,0,0,,3,,,75,127
4360,note_on,0,0,0,,5,,,77,127
4417,note_off,57,0,0,,5,,,77,127
4417,note_on,0,0,0,,3,,,75,127
4474,note_off,57,0,0,,3,,,75,127
4474,note_on,0,0,0,,5,,,77,127
4531,note_off,57,0,0,,5,,,77,127
4531,note_on,0,0,0,,3,,,75,127
4758,note_off,227,0,0,,3,,,75,127
4759,note_on,1,0,0,,2,,,74,127
4872,note_off,113,0,0,,2,,,74,127
4873,note_on,1,0,0,,0,,,72,127
5213,note_off,340,0,0,,0,,,72,127
5213,note_off,0,0,0,,0,,,48,127
5214,note_on,1,0,0,,0,,,60,127
5214,note_on,0,0,0,,3,,,75,127
5214,note_on,0,0,0,,5,,,77,127
5327,note_off,113,0,0,,5,,,77,127
5327,note_off,0,0,0,,3,,,75,127
5328,note_on,1,0,0,,2,,,74,127
5441,note_off,113,0,0,,2,,,74,127
5442,note_on,1,0,0,,3,,,75,127
5555,note_off,113,0,0,,3,,,75,127
5556,note_on,1,0,0,,7,,,67,127
5556,note_on,0,0,0,,5,,,77,127
5556,note_on,0,0,0,,3,,,75,127
5669,note_off,113,0,0,,3,,,75,127
5669,note_off,0,0,0,,5,,,77,127
5670,note_on,1,0,0,,2,,,74,127
5783,note_off,113,0,0,,2,,,74,127
5784,note_on,1,0,0,,3,,,75,127
5897,note_off,113,0,0,,3,,,75,127
5897,note_off,0,0,0,,7,,,67,127
5898,note_on,1,0,0,,10,,,69,127
5898,note_on,0,0,0,,5,,,77,127
5898,note_on,0,0,0,,3,,,75,127
6011,note_off,113,0,0,,3,,,75,127
6011,note_off,0,0,0,,5,,,77,127
6012,note_on,1,0,0,,2,,,74,127
6125,note_off,113,0,0,,2,,,74,127
6126,note_on,1,0,0,,3,,,75,127
6239,note_off,113,0,0,,3,,,75,127
6239,note_off,0,0,0,,10,,,69,127
6239,note_off,0,0,0,,0,,,60,127
6240,note_on,1,0,0,,11,,,58,127
6240,note_on,0,0,0,,8,,,80,127
6353,note_off,113,0,0,,11,,,58,127
6354,note_on,1,0,0,,3,,,63,127
6467,note_off,113,0,0,,3,,,63,127
6467,note_off,0,0,0,,8,,,80,127
6468,note_on,1,0,0,,7,,,67,127
6468,note_on,0,0,0,,7,,,79,127
6581,note_off,113,0,0,,7,,,67,127
6582,note_on,1,0,0,,11,,,70,127
6809,note_off,227,0,0,,7,,,79,127
6810,note_on,1,0,0,,5,,,77,127
6866,note_off,56,0,0,,5,,,77,127
6867,note_on,1,0,0,,3,,,75,127
6923,note_off,56,0,0,,3,,,75,127
6924,note_on,1,0,0,,2,,,74,127
7264,note_off,340,0,0,,2,,,74,127
7264,note_off,0,0,0,,11,,,70,127
7265,note_on,1,0,0,,11,,,58,127
7265,note_on,0,0,0,,3,,,75,127
7265,note_on,0,0,0,,2,,,74,127
7378,note_off,113,0,0,,2,,,74,127
7378,note_off,0,0,0,,3,,,75,127
7379,note_on,1,0,0,,0,,,72,127
7492,note_off,113,0,0,,0,,,72,127
7493,note_on,1,0,0,,2,,,74,127
7606,note_off,113,0,0,,2,,,74,127
7607,note_on,1,0,0,,5,,,65,127
7607,note_on,0,0,0,,3,,,75,127
7607,note_on,0,0,0,,2,,,74,127
7720,note_off,113,0,0,,2,,,74,127
7720,note_off,0,0,0,,3,,,75,127
7721,note_on,1,0,0,,0,,,72,127
7834,note_off,113,0,0,,0,,,72,127
7835,note_on,1,0,0,,2,,,74,127
7948,note_off,113,0,0,,2,,,74,127
7948,note_off,0,0,0,,5,,,65,127
7949,note_on,1,0,0,,7,,,67,127
7949,note_on,0,0,0,,2,,,74,127
7949,note_on,0,0,0,,3,,,75,127
8062,note_off,113,0,0,,3,,,75,127
8062,note_off,0,0,0,,2,,,74,127
8063,note_on,1,0,0,,0,,,72,127
8176,note_off,113,0,0,,0,,,72,127
8177,note_on,1,0,0,,2,,,74,127
8290,note_off,113,0,0,,2,,,74,127
8290,note_off,0,0,0,,7,,,67,127
8290,note_off,0,0,0,,11,,,58,127
8291,note_on,1,0,0,,8,,,56,127
8291,note_on,0,0,0,,7,,,79,127
8404,note_off,113,0,0,,8,,,56,127
8405,note_on,1,0,0,,2,,,62,127
8518,note_off,113,0,0,,2,,,62,127
8518,note_off,0,0,0,,7,,,79,127
8519,note_on,1,0,0,,5,,,65,127
8519,note_on,0,0,0,,5,,,77,127
8632,note_off,113,0,0,,5,,,65,127
8633,note_on,1,0,0,,8,,,68,127
8860,note_off,227,0,0,,5,,,77,127
8861,note_on,1,0,0,,3,,,75,127
8917,note_off,56,0,0,,3,,,75,127
8918,note_on,1,0,0,,2,,,74,127
8974,note_off,56,0,0,,2,,,74,127
8975,note_on,1,0,0,,0,,,72,127
9315,note_off,340,0,0,,0,,,72,127
9315,note_off,0,0,0,,8,,,68,127
9316,note_on,1,0,0,,8,,,56,127
9316,note_on,0,0,0,,0,,,72,127
9316,note_on,0,0,0,,2,,,74,127
9429,note_off,113,0,0,,2,,,74,127
9429,note_off,0,0,0,,0,,,72,127
9430,note_on,1,0,0,,12,,,71,127
9543,note_off,113,0,0,,12,,,71,127
9544,note_on,1,0,0,,0,,,72,127
9657,note_off,113,0,0,,0,,,72,127
9658,note_on,1,0,0,,3,,,63,127
9658,note_on,0,0,0,,0,,,72,127
9658,note_on,0,0,0,,2,,,74,127
9771,note_off,113,0,0,,2,,,74,127
9771,note_off,0,0,0,,0,,,72,127
9772,note_on,1,0,0,,12,,,71,127
9885,note_off,113,0,0,,12,,,71,127
9886,note_on,1,0,0,,0,,,72,127
9999,note_off,113,0,0,,0,,,72,127
9999,note_off,0,0,0,,3,,,63,127
10000,note_on,1,0,0,,5,,,65,127
10000,note_on,0,0,0,,0,,,72,127
10000,note_on,0,0,0,,2,,,74,127
10113,note_off,113,0,0,,2,,,74,127
10113,note_off,0,0,0,,0,,,72,127
10114,note_on,1,0,0,,12,,,71,127
10227,note_off,113,0,0,,12,,,71,127
10228,note_on,1,0,0,,0,,,72,127
10341,note_off,113,0,0,,0,,,72,127
10341,note_off,0,0,0,,5,,,65,127
10341,note_off,0,0,0,,8,,,56,127
10342,note_on,1,0,0,,7,,,55,127
10342,note_on,0,0,0,,5,,,77,127
10456,note_on,114,0,0,,0,,,60,127
10569,note_off,113,0,0,,0,,,60,127
10569,note_off,0,0,0,,5,,,77,127
10570,note_on,1,0,0,,3,,,63,127
10570,note_on,0,0,0,,3,,,75,127
10683,note_off,113,0,0,,3,,,63,127
10684,note_on,1,0,0,,7,,,67,127
10911,note_off,227,0,0,,3,,,75,127
10912,note_on,1,0,0,,2,,,74,127
10968,note_off,56,0,0,,2,,,74,127
10969,note_on,1,0,0,,0,,,72,127
11025,note_off,56,0,0,,0,,,72,127
11025,note_off,0,0,0,,7,,,67,127
11026,note_on,1,0,0,,2,,,62,127
11026,note_on,0,0,0,,12,,,71,127
11366,note_off,340,0,0,,12,,,71,127
11366,note_off,0,0,0,,2,,,62,127
11366,note_off,0,0,0,,7,,,55,127
11367,note_on,1,0,0,,7,,,67,127
11480,note_off,113,0,0,,7,,,67,127
11481,note_on,1,0,0,,6,,,66,127
11594,note_off,113,0,0,,6,,,66,127
11595,note_on,1,0,0,,7,,,67,127
11708,note_off,113,0,0,,7,,,67,127
11709,note_on,1,0,0,,7,,,55,127
11709,note_on,0,0,0,,12,,,71,127
11822,note_off,113,0,0,,12,,,71,127
11823,note_on,1,0,0,,10,,,69,127
11936,note_off,113,0,0,,10,,,69,127
11937,note_on,1,0,0,,12,,,71,127
12050,note_off,113,0,0,,12,,,71,127
12051,note_on,1,0,0,,5,,,65,127
12051,note_on,0,0,0,,2,,,74,127
12164,note_off,113,0,0,,2,,,74,127
12165,note_on,1,0,0,,0,,,72,127
12278,note_off,113,0,0,,0,,,72,127
12279,note_on,1,0,0,,2,,,74,127
12392,note_off,113,0,0,,2,,,74,127
12392,note_off,0,0,0,,5,,,65,127
12393,note_on,1,0,0,,3,,,63,127
12393,note_on,0,0,0,,7,,,67,127
12506,note_off,113,0,0,,7,,,67,127
12507,note_on,1,0,0,,6,,,66,127
12620,note_off,113,0,0,,6,,,66,127
12621,note_on,1,0,0,,7,,,67,127
12734,note_off,113,0,0,,7,,,67,127
12734,note_off,0,0,0,,3,,,63,127
12735,note_on,1,0,0,,2,,,62,127
12735,note_on,0,0,0,,0,,,72,127
12848,note_off,113,0,0,,0,,,72,127
12849,note_on,1,0,0,,12,,,71,127
12962,note_off,113,0,0,,12,,,71,127
12963,note_on,1,0,0,,0,,,72,127
13076,note_off,113,0,0,,0,,,72,127
13076,note_off,0,0,0,,2,,,62,127
13077,note_on,1,0,0,,0,,,60,127
13077,note_on,0,0,0,,3,,,75,127
13190,note_off,113,0,0,,3,,,75,127
13191,note_on,1,0,0,,2,,,74,127
13304,note_off,113,0,0,,2,,,74,127
13305,note_on,1,0,0,,3,,,75,127
13418,note_off,113,0,0,,3,,,75,127
13418,note_off,0,0,0,,0,,,60,127
13418,note_off,0,0,0,,7,,,55,127
13419,note_on,1,0,0,,12,,,59,127
13419,note_on,0,0,0,,7,,,67,127
13532,note_off,113,0,0,,7,,,67,127
13533,note_on,1,0,0,,6,,,66,127
13646,note_off,113,0,0,,6,,,66,127
13647,note_on,1,0,0,,7,,,67,127
13760,note_off,113,0,0,,7,,,67,127
13760,note_off,0,0,0,,12,,,59,127
13761,note_on,1,0,0,,10,,,57,127
13761,note_on,0,0,0,,2,,,74,127
13874,note_off,113,0,0,,2,,,74,127
13875,note_on,1,0,0,,0,,,72,127
13988,note_off,113,0,0,,0,,,72,127
13989,note_on,1,0,0,,2,,,74,127
14102,note_off,113,0,0,,2,,,74,127
14102,note_off,0,0,0,,10,,,57,127
14103,note_on,1,0,0,,7,,,55,127
14103,note_on,0,0,0,,5,,,77,127
14216,note_off,113,0,0,,5,,,77,127
14217,note_on,1,0,0,,3,,,75,127
14330,note_off,113,0,0,,3,,,75,127
14331,note_on,1,0,0,,2,,,74,127
14444,note_off,113,0,0,,2,,,74,127
14444,note_off,0,0,0,,7,,,55,127
14445,note_on,1,0,0,,0,,,60,127
14445,note_on,0,0,0,,5,,,77,127
14501,note_off,56,0,0,,5,,,77,127
14502,note_on,1,0,0,,3,,,75,127
14558,note_off,56,0,0,,3,,,75,127
14559,note_on,1,0,0,,5,,,77,127
14615,note_off,56,0,0,,5,,,77,127
14616,note_on,1,0,0,,3,,,75,127
14672,note_off,56,0,0,,3,,,75,127
14673,note_on,1,0,0,,5,,,77,127
14729,note_off,56,0,0,,5,,,77,127
14730,note_on,1,0,0,,3,,,75,127
14786,note_off,56,0,0,,3,,,75,127
14787,note_on,1,0,0,,5,,,77,127
14843,note_off,56,0,0,,5,,,77,127
14844,note_on,1,0,0,,3,,,75,127
14900,note_off,56,0,0,,3,,,75,127
14901,note_on,1,0,0,,5,,,77,127
14957,note_off,56,0,0,,5,,,77,127
14958,note_on,1,0,0,,3,,,75,127
15014,note_off,56,0,0,,3,,,75,127
15015,note_on,1,0,0,,2,,,74,127
15071,note_off,56,0,0,,2,,,74,127
15072,note_on,1,0,0,,3,,,75,127
15128,note_off,56,0,0,,3,,,75,127
15128,note_off,0,0,0,,0,,,60,127
15129,note_on,1,0,0,,7,,,55,127
15129,note_on,0,0,0,,2,,,74,127
15469,note_off,340,0,0,,2,,,74,127
15469,note_off,0,0,0,,7,,,55,127
15470,note_on,1,0,0,,7,,,55,127
15583,note_off,113,0,0,,7,,,55,127
15584,note_on,1,0,0,,6,,,54,127
15697,note_off,113,0,0,,6,,,54,127
15698,note_on,1,0,0,,7,,,55,127
15811,note_off,113,0,0,,7,,,55,127
15812,note_on,1,0,0,,12,,,59,127
15812,note_on,0,0,0,,2,,,74,127
15925,note_off,113,0,0,,12,,,59,127
15926,note_on,1,0,0,,10,,,57,127
16039,note_off,113,0,0,,10,,,57,127
16040,note_on,1,0,0,,12,,,59,127
16153,note_off,113,0,0,,12,,,59,127
16153,note_off,0,0,0,,2,,,74,127
16154,note_on,1,0,0,,2,,,62,127
16154,note_on,0,0,0,,12,,,71,127
16267,note_off,113,0,0,,2,,,62,127
16268,note_on,1,0,0,,0,,,60,127
16381,note_off,113,0,0,,0,,,60,127
16382,note_on,1,0,0,,2,,,62,127
16495,note_off,113,0,0,,2,,,62,127
16495,note_off,0,0,0,,12,,,71,127
16496,note_on,1,0,0,,7,,,55,127
16609,note_off,113,0,0,,7,,,55,127
16610,note_on,1,0,0,,6,,,54,127
16723,note_off,113,0,0,,6,,,54,127
16724,note_on,1,0,0,,7,,,55,127
16837,note_off,113,0,0,,7,,,55,127
16838,note_on,1,0,0,,0,,,60,127
16838,note_on,0,0,0,,3,,,75,127
16951,note_off,113,0,0,,0,,,60,127
16952,note_on,1,0,0,,12,,,59,127
17065,note_off,113,0,0,,12,,,59,127
17066,note_on,1,0,0,,0,,,60,127
17179,note_off,113,0,0,,0,,,60,127
17179,note_off,0,0,0,,3,,,75,127
17180,note_on,1,0,0,,3,,,63,127
17180,note_on,0,0,0,,0,,,72,127
17293,note_off,113,0,0,,3,,,63,127
17294,note_on,1,0,0,,2,,,62,127
17407,note_off,113,0,0,,2,,,62,127
17408,note_on,1,0,0,,3,,,63,127
17521,note_off,113,0,0,,3,,,63,127
17521,note_off,0,0,0,,0,,,72,127
17522,note_on,1,0,0,,7,,,55,127
17635,note_off,113,0,0,,7,,,55,127
17636,note_on,1,0,0,,6,,,54,127
17749,note_off,113,0,0,,6,,,54,127
17750,note_on,1,0,0,,7,,,55,127
17863,note_off,113,0,0,,7,,,55,127
17864,note_on,1,0,0,,2,,,62,127
17864,note_on,0,0,0,,5,,,77,127
17977,note_off,113,0,0,,2,,,62,127
17978,note_on,1,0,0,,0,,,60,127
18091,note_off,113,0,0,,0,,,60,127
18092,note_on,1,0,0,,2,,,62,127
18205,note_off,113,0,0,,2,,,62,127
18205,note_off,0,0,0,,5,,,77,127
18206,note_on,1,0,0,,5,,,65,127
18206,note_on,0,0,0,,2,,,74,127
18319,note_off,113,0,0,,5,,,65,127
18320,note_on,1,0,0,,3,,,63,127
18433,note_off,113,0,0,,3,,,63,127
18434,note_on,1,0,0,,2,,,62,127
18547,note_off,113,0,0,,2,,,62,127
18548,note_on,1,0,0,,3,,,63,127
18661,note_off,113,0,0,,2,,,74,127
18662,note_on,1,0,0,,7,,,79,127
18775,note_off,113,0,0,,7,,,79,127
18776,note_on,1,0,0,,5,,,77,127
18889,note_off,113,0,0,,5,,,77,127
18890,note_on,1,0,0,,3,,,75,127
19003,note_off,113,0,0,,3,,,75,127
19004,note_on,1,0,0,,2,,,74,127
19117,note_off,113,0,0,,2,,,74,127
19118,note_on,1,0,0,,0,,,72,127
19231,note_off,113,0,0,,0,,,72,127
19231,note_off,0,0,0,,3,,,63,127
19232,note_on,1,0,0,,2,,,62,127
19232,note_on,0,0,0,,12,,,71,127
19345,note_off,113,0,0,,12,,,71,127
19346,note_on,1,0,0,,0,,,72,127
19459,note_off,113,0,0,,0,,,72,127
19460,note_on,1,0,0,,2,,,74,127
19573,note_off,113,0,0,,2,,,74,127
19573,note_off,0,0,0,,2,,,62,127
19574,note_on,1,0,0,,0,,,60,127
19574,note_on,0,0,0,,3,,,75,127
19687,note_off,113,0,0,,3,,,75,127
19688,note_on,1,0,0,,7,,,79,127
19801,note_off,113,0,0,,7,,,79,127
19802,note_on,1,0,0,,5,,,77,127
19915,note_off,113,0,0,,5,,,77,127
19916,note_on,1,0,0,,5,,,77,127
20029,note_off,113,0,0,,5,,,77,127
20030,note_on,1,0,0,,3,,,75,127
20143,note_off,113,0,0,,3,,,75,127
20144,note_on,1,0,0,,2,,,74,127
20257,note_off,113,0,0,,2,,,74,127
20257,note_off,0,0,0,,0,,,60,127
20258,note_on,1,0,0,,3,,,51,127
20258,note_on,0,0,0,,2,,,74,127
20371,note_off,113,0,0,,2,,,74,127
20372,note_on,1,0,0,,0,,,72,127
20485,note_off,113,0,0,,0,,,72,127
20486,note_on,1,0,0,,11,,,70,127
20599,note_off,113,0,0,,11,,,70,127
20599,note_off,0,0,0,,3,,,51,127
20600,note_on,1,0,0,,5,,,53,127
20600,note_on,0,0,0,,8,,,68,127
20713,note_off,113,0,0,,8,,,68,127
20714,note_on,1,0,0,,0,,,72,127
20827,note_off,113,0,0,,0,,,72,127
20828,note_on,1,0,0,,11,,,70,127
20941,note_off,113,0,0,,11,,,70,127
20942,note_on,1,0,0,,11,,,70,127
21055,note_off,113,0,0,,11,,,70,127
21056,note_on,1,0,0,,8,,,68,127
21169,note_off,113,0,0,,8,,,68,127
21170,note_on,1,0,0,,7,,,67,127
21283,note_off,113,0,0,,7,,,67,127
21283,note_off,0,0,0,,5,,,53,127
21284,note_on,1,0,0,,8,,,56,127
21284,note_on,0,0,0,,7,,,67,127
21397,note_off,113,0,0,,7,,,67,127
21398,note_on,1,0,0,,5,,,65,127
21511,note_off,113,0,0,,5,,,65,127
21512,note_on,1,0,0,,3,,,63,127
21625,note_off,113,0,0,,3,,,63,127
21625,note_off,0,0,0,,8,,,56,127
21626,note_on,1,0,0,,11,,,58,127
21626,note_on,0,0,0,,2,,,62,127
21739,note_off,113,0,0,,2,,,62,127
21740,note_on,1,0,0,,5,,,65,127
21853,note_off,113,0,0,,5,,,65,127
21854,note_on,1,0,0,,3,,,63,127
21967,note_off,113,0,0,,3,,,63,127
21968,note_on,1,0,0,,3,,,63,127
22081,note_off,113,0,0,,3,,,63,127
22082,note_on,1,0,0,,2,,,62,127
22195,note_off,113,0,0,,2,,,62,127
22196,note_on,1,0,0,,0,,,60,127
22309,note_off,113,0,0,,0,,,60,127
22309,note_off,0,0,0,,11,,,58,127
22310,note_on,1,0,0,,2,,,50,127
22310,note_on,0,0,0,,0,,,60,127
22423,note_off,113,0,0,,0,,,60,127
22424,note_on,1,0,0,,11,,,58,127
22537,note_off,113,0,0,,11,,,58,127
22538,note_on,1,0,0,,8,,,56,127
22651,note_off,113,0,0,,8,,,56,127
22651,note_off,0,0,0,,2,,,50,127
22652,note_on,1,0,0,,3,,,51,127
22652,note_on,0,0,0,,11,,,58,127
22708,note_off,56,0,0,,11,,,58,127
22709,note_on,1,0,0,,8,,,56,127
22765,note_off,56,0,0,,8,,,56,127
22766,note_on,1,0,0,,11,,,58,127
22822,note_off,56,0,0,,11,,,58,127
22823,note_on,1,0,0,,8,,,56,127
22879,note_off,56,0,0,,8,,,56,127
22880,note_on,1,0,0,,11,,,58,127
22936,note_off,56,0,0,,11,,,58,127
22937,note_on,1,0,0,,8,,,56,127
22993,note_off,56,0,0,,8,,,56,127
22994,note_on,1,0,0,,11,,,58,127
23050,note_off,56,0,0,,11,,,58,127
23051,note_on,1,0,0,,8,,,56,127
23107,note_off,56,0,0,,8,,,56,127
23108,note_on,1,0,0,,11,,,58,127
23164,note_off,56,0,0,,11,,,58,127
23165,note_on,1,0,0,,8,,,56,127
23221,note_off,56,0,0,,8,,,56,127
23222,note_on,1,0,0,,7,,,55,127
23278,note_off,56,0,0,,7,,,55,127
23279,note_on,1,0,0,,8,,,56,127
23335,note_off,56,0,0,,8,,,56,127
23335,note_off,0,0,0,,3,,,51,127
23336,note_on,1,0,0,,3,,,39,127
23336,note_on,0,0,0,,7,,,55,127
23676,note_off,340,0,0,,7,,,55,127
23676,note_off,0,0,0,,3,,,39,127
23677,note_on,1,0,0,,3,,,51,127
23677,note_on,0,0,0,,3,,,75,127
23790,note_off,113,0,0,,3,,,75,127
23791,note_on,1,0,0,,7,,,67,127
23904,note_off,113,0,0,,7,,,67,127
23905,note_on,1,0,0,,8,,,68,127
24018,note_off,113,0,0,,8,,,68,127
24018,note_off,0,0,0,,3,,,51,127
24019,note_on,1,0,0,,3,,,63,127
24019,note_on,0,0,0,,11,,,70,127
24132,note_off,113,0,0,,11,,,70,127
24133,note_on,1,0,0,,0,,,72,127
24246,note_off,113,0,0,,0,,,72,127
24247,note_on,1,0,0,,2,,,74,127
24360,note_off,113,0,0,,2,,,74,127
24360,note_off,0,0,0,,3,,,63,127
24361,note_on,1,0,0,,2,,,62,127
24361,note_on,0,0,0,,3,,,75,127
24474,note_off,113,0,0,,3,,,75,127
24475,note_on,1,0,0,,5,,,77,127
24588,note_off,113,0,0,,5,,,77,127
24589,note_on,1,0,0,,7,,,79,127
24702,note_off,113,0,0,,7,,,79,127
24702,note_off,0,0,0,,2,,,62,127
24703,note_on,1,0,0,,0,,,60,127
24703,note_on,0,0,0,,3,,,75,127
24816,note_off,113,0,0,,3,,,75,127
24817,note_on,1,0,0,,7,,,67,127
24930,note_off,113,0,0,,7,,,67,127
24931,note_on,1,0,0,,8,,,68,127
25044,note_off,113,0,0,,8,,,68,127
25044,note_off,0,0,0,,0,,,60,127
25045,note_on,1,0,0,,11,,,58,127
25045,note_on,0,0,0,,11,,,70,127
25158,note_off,113,0,0,,11,,,70,127
25159,note_on,1,0,0,,0,,,72,127
25272,note_off,113,0,0,,0,,,72,127
25273,note_on,1,0,0,,2,,,74,127
25386,note_off,113,0,0,,2,,,74,127
25386,note_off,0,0,0,,11,,,58,127
25387,note_on,1,0,0,,8,,,56,127
25387,note_on,0,0,0,,3,,,75,127
25500,note_off,113,0,0,,3,,,75,127
25501,note_on,1,0,0,,5,,,77,127
25614,note_off,113,0,0,,5,,,77,127
25615,note_on,1,0,0,,7,,,79,127
25728,note_off,113,0,0,,7,,,79,127
25728,note_off,0,0,0,,8,,,56,127
25729,note_on,1,0,0,,7,,,55,127
25729,note_on,0,0,0,,3,,,75,127
25842,note_off,113,0,0,,3,,,75,127
25843,note_on,1,0,0,,7,,,67,127
25956,note_off,113,0,0,,7,,,67,127
25957,note_on,1,0,0,,8,,,68,127
26070,note_off,113,0,0,,8,,,68,127
26070,note_off,0,0,0,,7,,,55,127
26071,note_on,1,0,0,,5,,,53,127
26071,note_on,0,0,0,,11,,,70,127
26184,note_off,113,0,0,,11,,,70,127
26185,note_on,1,0,0,,0,,,72,127
26298,note_off,113,0,0,,0,,,72,127
26299,note_on,1,0,0,,2,,,74,127
26412,note_off,113,0,0,,2,,,74,127
26412,note_off,0,0,0,,5,,,53,127
26413,note_on,1,0,0,,3,,,51,127
26413,note_on,0,0,0,,3,,,75,127
26526,note_off,113,0,0,,3,,,75,127
26527,note_on,1,0,0,,5,,,77,127
26640,note_off,113,0,0,,5,,,77,127
26641,note_on,1,0,0,,7,,,79,127
26754,note_off,113,0,0,,7,,,79,127
26754,note_off,0,0,0,,3,,,51,127
26755,note_on,1,0,0,,11,,,58,127
26755,note_on,0,0,0,,7,,,79,127
26868,note_off,113,0,0,,7,,,79,127
26869,note_on,1,0,0,,11,,,82,127
26982,note_off,113,0,0,,11,,,82,127
26983,note_on,1,0,0,,8,,,80,127
27096,note_off,113,0,0,,8,,,80,127
27097,note_on,1,0,0,,11,,,46,127
27097,note_on,0,0,0,,7,,,79,127
27210,note_off,113,0,0,,7,,,79,127
27211,note_on,1,0,0,,5,,,77,127
27324,note_off,113,0,0,,5,,,77,127
27325,note_on,1,0,0,,3,,,75,127
27438,note_off,113,0,0,,3,,,75,127
27439,note_on,1,0,0,,7,,,79,127
27496,note_off,57,0,0,,7,,,79,127
27496,note_on,0,0,0,,5,,,77,127
27553,note_off,57,0,0,,5,,,77,127
27553,note_on,0,0,0,,7,,,79,127
27610,note_off,57,0,0,,7,,,79,127
27610,note_on,0,0,0,,5,,,77,127
27779,note_off,169,0,0,,11,,,58,127
27780,note_off,1,0,0,,11,,,46,127
27781,note_on,1,0,0,,3,,,63,127
27830,note_off,49,0,0,,5,,,77,127
27894,note_off,64,0,0,,3,,,63,127
27895,note_on,1,0,0,,7,,,55,127
28008,note_off,113,0,0,,7,,,55,127
28009,note_on,1,0,0,,8,,,56,127
28122,note_off,113,0,0,,8,,,56,127
28123,note_on,1,0,0,,11,,,58,127
28123,note_on,0,0,0,,11,,,82,127
28236,note_off,113,0,0,,11,,,58,127
28237,note_on,1,0,0,,0,,,60,127
28350,note_off,113,0,0,,0,,,60,127
28351,note_on,1,0,0,,2,,,62,127
28464,note_off,113,0,0,,2,,,62,127
28464,note_off,0,0,0,,11,,,82,127
28465,note_on,1,0,0,,3,,,63,127
28465,note_on,0,0,0,,7,,,79,127
28578,note_off,113,0,0,,3,,,63,127
28579,note_on,1,0,0,,5,,,65,127
28692,note_off,113,0,0,,5,,,65,127
28693,note_on,1,0,0,,7,,,67,127
28806,note_off,113,0,0,,7,,,67,127
28806,note_off,0,0,0,,7,,,79,127
28807,note_on,1,0,0,,3,,,63,127
28920,note_off,113,0,0,,3,,,63,127
28921,note_on,1,0,0,,7,,,55,127
29034,note_off,113,0,0,,7,,,55,127
29035,note_on,1,0,0,,8,,,56,127
29148,note_off,113,0,0,,8,,,56,127
29149,note_on,1,0,0,,11,,,58,127
29149,note_on,0,0,0,,11,,,82,127
29262,note_off,113,0,0,,11,,,58,127
29263,note_on,1,0,0,,0,,,60,127
29376,note_off,113,0,0,,0,,,60,127
29377,note_on,1,0,0,,2,,,62,127
29490,note_off,113,0,0,,2,,,62,127
29490,note_off,0,0,0,,11,,,82,127
29491,note_on,1,0,0,,3,,,63,127
29491,note_on,0,0,0,,7,,,79,127
29604,note_off,113,0,0,,3,,,63,127
29605,note_on,1,0,0,,5,,,65,127
29718,note_off,113,0,0,,5,,,65,127
29719,note_on,1,0,0,,7,,,67,127
29832,note_off,113,0,0,,7,,,67,127
29832,note_off,0,0,0,,7,,,79,127
29833,note_on,1,0,0,,3,,,63,127
29946,note_off,113,0,0,,3,,,63,127
29947,note_on,1,0,0,,7,,,55,127
30060,note_off,113,0,0,,7,,,55,127
30061,note_on,1,0,0,,8,,,56,127
30174,note_off,113,0,0,,8,,,56,127
30175,note_on,1,0,0,,11,,,58,127
30175,note_on,0,0,0,,11,,,82,127
30288,note_off,113,0,0,,11,,,58,127
30289,note_on,1,0,0,,0,,,60,127
30402,note_off,113,0,0,,0,,,60,127
30403,note_on,1,0,0,,2,,,62,127
30516,note_off,113,0,0,,2,,,62,127
30516,note_off,0,0,0,,11,,,82,127
30517,note_on,1,0,0,,3,,,63,127
30517,note_on,0,0,0,,7,,,79,127
30630,note_off,113,0,0,,3,,,63,127
30631,note_on,1,0,0,,5,,,65,127
30744,note_off,113,0,0,,5,,,65,127
30745,note_on,1,0,0,,7,,,67,127
30858,note_off,113,0,0,,7,,,67,127
30859,note_on,1,0,0,,11,,,58,127
30972,note_off,113,0,0,,7,,,79,127
30973,note_on,1,0,0,,11,,,82,127
31086,note_off,113,0,0,,11,,,82,127
31087,note_on,1,0,0,,8,,,80,127
31200,note_off,113,0,0,,8,,,80,127
31201,note_on,1,0,0,,7,,,79,127
31314,note_off,113,0,0,,7,,,79,127
31315,note_on,1,0,0,,5,,,77,127
31428,note_off,113,0,0,,5,,,77,127
31429,note_on,1,0,0,,3,,,75,127
31542,note_off,113,0,0,,3,,,75,127
31543,note_on,1,0,0,,11,,,46,127
31543,note_on,0,0,0,,7,,,79,127
31600,note_off,57,0,0,,7,,,79,127
31600,note_on,0,0,0,,5,,,77,127
31657,note_off,57,0,0,,5,,,77,127
31657,note_on,0,0,0,,7,,,79,127
31714,note_off,57,0,0,,7,,,79,127
31714,note_on,0,0,0,,5,,,77,127
31883,note_off,169,0,0,,11,,,58,127
31884,note_off,1,0,0,,11,,,46,127
31885,note_on,1,0,0,,11,,,58,127
31934,note_off,49,0,0,,5,,,77,127
31999,note_on,65,0,0,,8,,,80,127
32112,note_off,113,0,0,,8,,,80,127
32113,note_on,1,0,0,,7,,,79,127
32226,note_off,113,0,0,,7,,,79,127
32227,note_on,1,0,0,,8,,,68,127
32227,note_on,0,0,0,,7,,,79,127
32340,note_off,113,0,0,,7,,,79,127
32341,note_on,1,0,0,,5,,,77,127
32454,note_off,113,0,0,,5,,,77,127
32455,note_on,1,0,0,,3,,,75,127
32568,note_off,113,0,0,,3,,,75,127
32568,note_off,0,0,0,,8,,,68,127
32569,note_on,1,0,0,,7,,,67,127
32569,note_on,0,0,0,,3,,,75,127
32569,note_on,0,0,0,,5,,,77,127
32682,note_off,113,0,0,,5,,,77,127
32682,note_off,0,0,0,,3,,,75,127
32683,note_on,1,0,0,,2,,,74,127
32796,note_off,113,0,0,,2,,,74,127
32797,note_on,1,0,0,,3,,,75,127
32910,note_off,113,0,0,,3,,,75,127
32910,note_off,0,0,0,,7,,,67,127
32910,note_off,0,0,0,,11,,,58,127
32911,note_on,1,0,0,,11,,,58,127
32911,note_on,0,0,0,,5,,,65,127
32911,note_on,0,0,0,,2,,,74,127
33024,note_off,113,0,0,,2,,,74,127
33025,note_on,1,0,0,,8,,,80,127
33138,note_off,113,0,0,,8,,,80,127
33139,note_on,1,0,0,,7,,,79,127
33252,note_off,113,0,0,,7,,,79,127
33252,note_off,0,0,0,,5,,,65,127
33253,note_on,1,0,0,,8,,,68,127
33253,note_on,0,0,0,,7,,,79,127
33366,note_off,113,0,0,,7,,,79,127
33367,note_on,1,0,0,,5,,,77,127
33480,note_off,113,0,0,,5,,,77,127
33481,note_on,1,0,0,,3,,,75,127
33594,note_off,113,0,0,,3,,,75,127
33594,note_off,0,0,0,,8,,,68,127
33595,note_on,1,0,0,,7,,,67,127
33595,note_on,0,0,0,,3,,,75,127
33595,note_on,0,0,0,,5,,,77,127
33708,note_off,113,0,0,,5,,,77,127
33708,note_off,0,0,0,,3,,,75,127
33709,note_on,1,0,0,,2,,,74,127
33822,note_off,113,0,0,,2,,,74,127
33823,note_on,1,0,0,,3,,,75,127
33936,note_off,113,0,0,,3,,,75,127
33936,note_off,0,0,0,,7,,,67,127
33936,note_off,0,0,0,,11,,,58,127
33937,note_on,1,0,0,,5,,,65,127
33937,note_on,0,0,0,,11,,,58,127
33937,note_on,0,0,0,,2,,,74,127
34050,note_off,113,0,0,,2,,,74,127
34051,note_on,1,0,0,,11,,,82,127
34164,note_off,113,0,0,,11,,,82,127
34165,note_on,1,0,0,,8,,,80,127
34278,note_off,113,0,0,,8,,,80,127
34278,note_off,0,0,0,,5,,,65,127
34279,note_on,1,0,0,,11,,,70,127
34279,note_on,0,0,0,,8,,,80,127
34392,note_off,113,0,0,,8,,,80,127
34393,note_on,1,0,0,,7,,,79,127
34506,note_off,113,0,0,,7,,,79,127
34507,note_on,1,0,0,,5,,,77,127
34620,note_off,113,0,0,,5,,,77,127
34620,note_off,0,0,0,,11,,,58,127
34621,note_on,1,0,0,,1,,,61,127
34621,note_on,0,0,0,,5,,,77,127
34621,note_on,0,0,0,,7,,,79,127
34734,note_off,113,0,0,,7,,,79,127
34734,note_off,0,0,0,,5,,,77,127
34735,note_on,1,0,0,,4,,,76,127
34848,note_off,113,0,0,,4,,,76,127
34849,note_on,1,0,0,,5,,,77,127
34962,note_off,113,0,0,,5,,,77,127
34962,note_off,0,0,0,,1,,,61,127
34963,note_on,1,0,0,,0,,,60,127
34963,note_on,0,0,0,,4,,,76,127
35076,note_off,113,0,0,,4,,,76,127
35077,note_on,1,0,0,,11,,,82,127
35190,note_off,113,0,0,,11,,,82,127
35191,note_on,1,0,0,,8,,,80,127
35304,note_off,113,0,0,,8,,,80,127
35304,note_off,0,0,0,,11,,,70,127
35305,note_on,1,0,0,,11,,,70,127
35305,note_on,0,0,0,,8,,,80,127
35418,note_off,113,0,0,,8,,,80,127
35419,note_on,1,0,0,,7,,,79,127
35532,note_off,113,0,0,,7,,,79,127
35533,note_on,1,0,0,,5,,,77,127
35646,note_off,113,0,0,,5,,,77,127
35646,note_off,0,0,0,,11,,,70,127
35647,note_on,1,0,0,,8,,,68,127
35647,note_on,0,0,0,,5,,,77,127
35647,note_on,0,0,0,,7,,,79,127
35760,note_off,113,0,0,,7,,,79,127
35760,note_off,0,0,0,,5,,,77,127
35761,note_on,1,0,0,,4,,,76,127
35874,note_off,113,0,0,,4,,,76,127
35875,note_on,1,0,0,,5,,,77,127
35988,note_off,113,0,0,,5,,,77,127
35988,note_off,0,0,0,,8,,,68,127
35988,note_off,0,0,0,,0,,,60,127
35989,note_on,1,0,0,,7,,,67,127
35989,note_on,0,0,0,,0,,,60,127
35989,note_on,0,0,0,,4,,,76,127
36102,note_off,113,0,0,,4,,,76,127
36103,note_on,1,0,0,,0,,,84,127
36216,note_off,113,0,0,,0,,,84,127
36217,note_on,1,0,0,,11,,,82,127
36330,note_off,113,0,0,,11,,,82,127
36330,note_off,0,0,0,,7,,,67,127
36331,note_on,1,0,0,,0,,,72,127
36331,note_on,0,0,0,,11,,,82,127
36444,note_off,113,0,0,,11,,,82,127
36445,note_on,1,0,0,,10,,,81,127
36558,note_off,113,0,0,,10,,,81,127
36559,note_on,1,0,0,,7,,,79,127
36672,note_off,113,0,0,,7,,,79,127
36672,note_off,0,0,0,,0,,,60,127
36673,note_on,1,0,0,,3,,,63,127
36673,note_on,0,0,0,,7,,,79,127
36673,note_on,0,0,0,,10,,,81,127
36786,note_off,113,0,0,,10,,,81,127
36786,note_off,0,0,0,,7,,,79,127
36787,note_on,1,0,0,,6,,,78,127
36900,note_off,113,0,0,,6,,,78,127
36901,note_on,1,0,0,,7,,,79,127
37014,note_off,113,0,0,,7,,,79,127
37014,note_off,0,0,0,,3,,,63,127
37015,note_on,1,0,0,,2,,,62,127
37015,note_on,0,0,0,,6,,,78,127
37128,note_off,113,0,0,,6,,,78,127
37129,note_on,1,0,0,,0,,,84,127
37242,note_off,113,0,0,,0,,,84,127
37243,note_on,1,0,0,,11,,,82,127
37356,note_off,113,0,0,,11,,,82,127
37356,note_off,0,0,0,,0,,,72,127
37357,note_on,1,0,0,,0,,,72,127
37357,note_on,0,0,0,,11,,,82,127
37470,note_off,113,0,0,,11,,,82,127
37471,note_on,1,0,0,,10,,,81,127
37584,note_off,113,0,0,,10,,,81,127
37585,note_on,1,0,0,,7,,,79,127
37698,note_off,113,0,0,,7,,,79,127
37698,note_off,0,0,0,,0,,,72,127
37699,note_on,1,0,0,,11,,,70,127
37699,note_on,0,0,0,,10,,,81,127
37699,note_on,0,0,0,,7,,,79,127
37812,note_off,113,0,0,,7,,,79,127
37812,note_off,0,0,0,,10,,,81,127
37813,note_on,1,0,0,,6,,,78,127
37926,note_off,113,0,0,,6,,,78,127
37927,note_on,1,0,0,,7,,,79,127
38040,note_off,113,0,0,,7,,,79,127
38040,note_off,0,0,0,,11,,,70,127
38040,note_off,0,0,0,,2,,,62,127
38041,note_on,1,0,0,,10,,,69,127
38041,note_on,0,0,0,,2,,,62,127
38041,note_on,0,0,0,,6,,,78,127
38154,note_off,113,0,0,,6,,,78,127
38155,note_on,1,0,0,,7,,,79,127
38268,note_off,113,0,0,,7,,,79,127
38269,note_on,1,0,0,,10,,,81,127
38382,note_off,113,0,0,,10,,,81,127
38382,note_off,0,0,0,,10,,,69,127
38383,note_on,1,0,0,,7,,,67,127
38383,note_on,0,0,0,,11,,,70,127
38383,note_on,0,0,0,,11,,,82,127
38496,note_off,113,0,0,,11,,,82,127
38497,note_on,1,0,0,,0,,,84,127
38610,note_off,113,0,0,,0,,,84,127
38611,note_on,1,0,0,,2,,,86,127
38724,note_off,113,0,0,,2,,,86,127
38724,note_off,0,0,0,,2,,,62,127
38725,note_on,1,0,0,,1,,,61,127
38725,note_on,0,0,0,,11,,,82,127
38838,note_off,113,0,0,,11,,,82,127
38839,note_on,1,0,0,,10,,,81,127
38952,note_off,113,0,0,,10,,,81,127
38953,note_on,1,0,0,,7,,,79,127
39066,note_off,113,0,0,,7,,,79,127
39066,note_off,0,0,0,,1,,,61,127
39066,note_off,0,0,0,,11,,,70,127
39066,note_off,0,0,0,,7,,,67,127
39067,note_on,1,0,0,,2,,,62,127
39067,note_on,0,0,0,,10,,,69,127
39067,note_on,0,0,0,,6,,,78,127
39180,note_off,113,0,0,,6,,,78,127
39181,note_on,1,0,0,,7,,,79,127
39294,note_off,113,0,0,,7,,,79,127
39295,note_on,1,0,0,,10,,,81,127
39408,note_off,113,0,0,,10,,,81,127
39408,note_off,0,0,0,,10,,,69,127
39409,note_on,1,0,0,,7,,,67,127
39409,note_on,0,0,0,,11,,,70,127
39409,note_on,0,0,0,,11,,,82,127
39522,note_off,113,0,0,,11,,,82,127
39523,note_on,1,0,0,,0,,,84,127
39636,note_off,113,0,0,,0,,,84,127
39637,note_on,1,0,0,,2,,,86,127
39750,note_off,113,0,0,,2,,,86,127
39750,note_off,0,0,0,,2,,,62,127
39751,note_on,1,0,0,,1,,,61,127
39751,note_on,0,0,0,,11,,,82,127
39864,note_off,113,0,0,,11,,,82,127
39865,note_on,1,0,0,,10,,,81,127
39978,note_off,113,0,0,,10,,,81,127
39979,note_on,1,0,0,,7,,,79,127
40092,note_off,113,0,0,,7,,,79,127
40092,note_off,0,0,0,,1,,,61,127
40092,note_off,0,0,0,,11,,,70,127
40092,note_off,0,0,0,,7,,,67,127
40093,note_on,1,0,0,,10,,,69,127
40093,note_on,0,0,0,,2,,,62,127
40093,note_on,0,0,0,,6,,,78,127
40206,note_off,113,0,0,,6,,,78,127
40207,note_on,1,0,0,,7,,,79,127
40320,note_off,113,0,0,,7,,,79,127
40321,note_on,1,0,0,,10,,,81,127
40434,note_off,113,0,0,,10,,,81,127
40434,note_off,0,0,0,,10,,,69,127
40435,note_on,1,0,0,,7,,,67,127
40435,note_on,0,0,0,,11,,,70,127
40435,note_on,0,0,0,,11,,,82,127
40548,note_off,113,0,0,,11,,,82,127
40549,note_on,1,0,0,,0,,,84,127
40662,note_off,113,0,0,,0,,,84,127
40663,note_on,1,0,0,,2,,,86,127
40776,note_off,113,0,0,,2,,,86,127
40776,note_off,0,0,0,,2,,,62,127
40777,note_on,1,0,0,,1,,,61,127
40777,note_on,0,0,0,,11,,,82,127
40890,note_off,113,0,0,,11,,,82,127
40891,note_on,1,0,0,,10,,,81,127
41004,note_off,113,0,0,,10,,,81,127
41005,note_on,1,0,0,,7,,,79,127
41118,note_off,113,0,0,,1,,,61,127
41118,note_off,0,0,0,,11,,,70,127
41118,note_off,0,0,0,,7,,,67,127
41119,note_on,1,0,0,,2,,,62,127
41232,note_off,113,0,0,,7,,,79,127
41233,note_on,1,0,0,,6,,,78,127
41290,note_off,57,0,0,,6,,,78,127
41290,note_on,0,0,0,,7,,,79,127
41347,note_off,57,0,0,,7,,,79,127
41347,note_on,0,0,0,,6,,,78,127
41404,note_off,57,0,0,,6,,,78,127
41404,note_on,0,0,0,,7,,,79,127
41461,note_off,57,0,0,,7,,,79,127
41461,note_on,0,0,0,,2,,,50,127
41461,note_on,0,0,0,,6,,,78,127
41688,note_off,227,0,0,,6,,,78,127
41689,note_on,1,0,0,,4,,,76,127
41802,note_off,113,0,0,,4,,,76,127
41802,note_off,0,0,0,,2,,,62,127
41803,note_on,1,0,0,,2,,,74,127
42143,note_off,340,0,0,,2,,,74,127
42143,note_off,0,0,0,,2,,,50,127
42144,note_on,1,0,0,,2,,,38,127
42144,note_on,0,0,0,,2,,,50,127
42258,note_on,114,0,0,,2,,,86,127
42371,note_off,113,0,0,,2,,,86,127
42372,note_on,1,0,0,,10,,,81,127
42485,note_off,113,0,0,,10,,,81,127
42486,note_on,1,0,0,,6,,,78,127
42599,note_off,113,0,0,,6,,,78,127
42600,note_on,1,0,0,,2,,,74,127
42713,note_off,113,0,0,,2,,,74,127
42714,note_on,1,0,0,,10,,,69,127
42827,note_off,113,0,0,,10,,,69,127
42828,note_on,1,0,0,,6,,,66,127
42941,note_off,113,0,0,,6,,,66,127
42942,note_on,1,0,0,,2,,,62,127
43055,note_off,113,0,0,,2,,,62,127
43056,note_on,1,0,0,,4,,,76,127
43056,note_on,0,0,0,,0,,,72,127
43169,note_off,113,0,0,,0,,,72,127
43169,note_off,0,0,0,,4,,,76,127
43169,note_off,0,0,0,,2,,,50,127
43169,note_off,0,0,0,,2,,,38,127
43170,note_on,1,0,0,,7,,,67,127
43170,note_on,0,0,0,,2,,,74,127
43170,note_on,0,0,0,,12,,,71,127
43283,note_off,113,0,0,,7,,,67,127
43284,note_on,1,0,0,,2,,,62,127
43397,note_off,113,0,0,,2,,,62,127
43398,note_on,1,0,0,,12,,,59,127
43511,note_off,113,0,0,,12,,,59,127
43512,note_on,1,0,0,,7,,,55,127
43625,note_off,113,0,0,,7,,,55,127
43626,note_on,1,0,0,,2,,,50,127
43739,note_off,113,0,0,,2,,,50,127
43740,note_on,1,0,0,,12,,,47,127
43853,note_off,113,0,0,,12,,,47,127
43854,note_on,1,0,0,,7,,,43,127
43967,note_off,113,0,0,,7,,,43,127
43968,note_on,1,0,0,,1,,,49,127
44081,note_off,113,0,0,,1,,,49,127
44082,note_on,1,0,0,,2,,,50,127
44195,note_off,113,0,0,,2,,,50,127
44196,note_on,1,0,0,,2,,,38,127
44309,note_off,113,0,0,,12,,,71,127
44309,note_off,0,0,0,,2,,,74,127
44310,note_on,1,0,0,,2,,,86,127
44423,note_off,113,0,0,,2,,,86,127
44424,note_on,1,0,0,,10,,,81,127
44537,note_off,113,0,0,,10,,,81,127
44538,note_on,1,0,0,,6,,,78,127
44651,note_off,113,0,0,,6,,,78,127
44652,note_on,1,0,0,,2,,,74,127
44765,note_off,113,0,0,,2,,,74,127
44766,note_on,1,0,0,,10,,,69,127
44879,note_off,113,0,0,,10,,,69,127
44880,note_on,1,0,0,,6,,,66,127
44993,note_off,113,0,0,,6,,,66,127
44994,note_on,1,0,0,,2,,,62,127
45107,note_off,113,0,0,,2,,,62,127
45108,note_on,1,0,0,,0,,,72,127
45108,note_on,0,0,0,,4,,,76,127
45221,note_off,113,0,0,,4,,,76,127
45221,note_off,0,0,0,,0,,,72,127
45221,note_off,0,0,0,,2,,,38,127
45222,note_on,1,0,0,,7,,,67,127
45222,note_on,0,0,0,,12,,,71,127
45222,note_on,0,0,0,,2,,,74,127
45335,note_off,113,0,0,,7,,,67,127
45336,note_on,1,0,0,,2,,,62,127
45449,note_off,113,0,0,,2,,,62,127
45450,note_on,1,0,0,,12,,,59,127
45563,note_off,113,0,0,,12,,,59,127
45564,note_on,1,0,0,,7,,,55,127
45677,note_off,113,0,0,,7,,,55,127
45678,note_on,1,0,0,,2,,,50,127
45791,note_off,113,0,0,,2,,,50,127
45792,note_on,1,0,0,,12,,,47,127
45905,note_off,113,0,0,,12,,,47,127
45906,note_on,1,0,0,,7,,,43,127
46019,note_off,113,0,0,,7,,,43,127
46020,note_on,1,0,0,,1,,,49,127
46133,note_off,113,0,0,,1,,,49,127
46134,note_on,1,0,0,,2,,,50,127
46247,note_off,113,0,0,,2,,,50,127
46248,note_on,1,0,0,,2,,,38,127
46361,note_off,113,0,0,,2,,,74,127
46361,note_off,0,0,0,,12,,,71,127
46362,note_on,1,0,0,,2,,,86,127
46475,note_off,113,0,0,,2,,,86,127
46476,note_on,1,0,0,,10,,,81,127
46589,note_off,113,0,0,,10,,,81,127
46590,note_on,1,0,0,,6,,,78,127
46703,note_off,113,0,0,,6,,,78,127
46704,note_on,1,0,0,,2,,,74,127
46817,note_off,113,0,0,,2,,,74,127
46818,note_on,1,0,0,,10,,,69,127
46931,note_off,113,0,0,,10,,,69,127
46932,note_on,1,0,0,,6,,,66,127
47045,note_off,113,0,0,,6,,,66,127
47046,note_on,1,0,0,,2,,,62,127
47159,note_off,113,0,0,,2,,,62,127
47160,note_on,1,0,0,,0,,,72,127
47273,note_off,113,0,0,,0,,,72,127
47273,note_off,0,0,0,,2,,,38,127
47274,note_on,1,0,0,,7,,,43,127
47274,note_on,0,0,0,,12,,,71,127
47387,note_off,113,0,0,,12,,,71,127
47388,note_on,1,0,0,,6,,,66,127
47501,note_off,113,0,0,,6,,,66,127
47502,note_on,1,0,0,,7,,,67,127
47615,note_off,113,0,0,,7,,,67,127
47616,note_on,1,0,0,,2,,,62,127
47729,note_off,113,0,0,,2,,,62,127
47730,note_on,1,0,0,,1,,,73,127
47843,note_off,113,0,0,,1,,,73,127
47844,note_on,1,0,0,,2,,,74,127
47957,note_off,113,0,0,,2,,,74,127
47957,note_off,0,0,0,,7,,,43,127
47958,note_on,1,0,0,,12,,,47,127
47958,note_on,0,0,0,,2,,,62,127
48071,note_off,113,0,0,,2,,,62,127
48072,note_on,1,0,0,,3,,,75,127
48185,note_off,113,0,0,,3,,,75,127
48186,note_on,1,0,0,,4,,,76,127
48299,note_off,113,0,0,,4,,,76,127
48299,note_off,0,0,0,,12,,,47,127
48300,note_on,1,0,0,,0,,,48,127
48300,note_on,0,0,0,,4,,,64,127
48413,note_off,113,0,0,,4,,,64,127
48414,note_on,1,0,0,,0,,,72,127
48527,note_off,113,0,0,,0,,,72,127
48528,note_on,1,0,0,,10,,,69,127
48641,note_off,113,0,0,,10,,,69,127
48641,note_off,0,0,0,,0,,,48,127
48642,note_on,1,0,0,,2,,,50,127
48642,note_on,0,0,0,,7,,,67,127
48769,note_off,127,0,0,,7,,,67,127
48770,note_on,1,0,0,,10,,,69,127
48812,note_off,42,0,0,,10,,,69,127
48813,note_on,1,0,0,,7,,,67,127
48855,note_off,42,0,0,,7,,,67,127
48856,note_on,1,0,0,,6,,,66,127
48898,note_off,42,0,0,,6,,,66,127
48899,note_on,1,0,0,,7,,,67,127
48941,note_off,42,0,0,,7,,,67,127
48942,note_on,1,0,0,,10,,,69,127
48984,note_off,42,0,0,,10,,,69,127
48984,note_off,0,0,0,,2,,,50,127
48985,note_on,1,0,0,,2,,,38,127
48985,note_on,0,0,0,,12,,,71,127
49027,note_off,42,0,0,,12,,,71,127
49028,note_on,1,0,0,,10,,,69,127
49070,note_off,42,0,0,,10,,,69,127
49071,note_on,1,0,0,,12,,,71,127
49113,note_off,42,0,0,,12,,,71,127
49114,note_on,1,0,0,,10,,,69,127
49156,note_off,42,0,0,,10,,,69,127
49157,note_on,1,0,0,,12,,,71,127
49199,note_off,42,0,0,,12,,,71,127
49200,note_on,1,0,0,,10,,,69,127
49242,note_off,42,0,0,,10,,,69,127
49243,note_on,1,0,0,,7,,,67,127
49285,note_off,42,0,0,,7,,,67,127
49286,note_on,1,0,0,,10,,,69,127
49328,note_off,42,0,0,,10,,,69,127
49328,note_off,0,0,0,,2,,,38,127
49329,note_on,1,0,0,,7,,,43,127
49329,note_on,0,0,0,,7,,,67,127
49442,note_off,113,0,0,,7,,,67,127
49443,note_on,1,0,0,,10,,,69,127
49556,note_off,113,0,0,,10,,,69,127
49557,note_on,1,0,0,,12,,,71,127
49670,note_off,113,0,0,,12,,,71,127
49671,note_on,1,0,0,,12,,,71,127
49784,note_off,113,0,0,,12,,,71,127
49785,note_on,1,0,0,,0,,,72,127
49898,note_off,113,0,0,,0,,,72,127
49899,note_on,1,0,0,,2,,,74,127
50012,note_off,113,0,0,,2,,,74,127
50012,note_off,0,0,0,,7,,,43,127
50013,note_on,1,0,0,,2,,,74,127
50013,note_on,0,0,0,,4,,,76,127
50126,note_off,113,0,0,,4,,,76,127
50126,note_off,0,0,0,,2,,,74,127
50127,note_on,1,0,0,,0,,,72,127
50240,note_off,113,0,0,,0,,,72,127
50241,note_on,1,0,0,,2,,,74,127
50355,note_on,114,0,0,,2,,,50,127
50355,note_on,0,0,0,,2,,,38,127
50468,note_off,113,0,0,,2,,,74,127
50469,note_on,1,0,0,,2,,,86,127
50582,note_off,113,0,0,,2,,,86,127
50583,note_on,1,0,0,,10,,,81,127
50696,note_off,113,0,0,,10,,,81,127
50697,note_on,1,0,0,,6,,,78,127
50810,note_off,113,0,0,,6,,,78,127
50811,note_on,1,0,0,,2,,,74,127
50924,note_off,113,0,0,,2,,,74,127
50925,note_on,1,0,0,,10,,,69,127
51038,note_off,113,0,0,,10,,,69,127
51039,note_on,1,0,0,,6,,,66,127
51152,note_off,113,0,0,,6,,,66,127
51153,note_on,1,0,0,,2,,,62,127
51266,note_off,113,0,0,,2,,,62,127
51267,note_on,1,0,0,,4,,,76,127
51267,note_on,0,0,0,,0,,,72,127
51380,note_off,113,0,0,,0,,,72,127
51380,note_off,0,0,0,,4,,,76,127
51380,note_off,0,0,0,,2,,,38,127
51380,note_off,0,0,0,,2,,,50,127
51381,note_on,1,0,0,,7,,,67,127
51381,note_on,0,0,0,,12,,,71,127
51381,note_on,0,0,0,,2,,,74,127
51494,note_off,113,0,0,,7,,,67,127
51495,note_on,1,0,0,,2,,,62,127
51608,note_off,113,0,0,,2,,,62,127
51609,note_on,1,0,0,,12,,,59,127
51722,note_off,113,0,0,,12,,,59,127
51723,note_on,1,0,0,,7,,,55,127
51836,note_off,113,0,0,,7,,,55,127
51837,note_on,1,0,0,,2,,,50,127
51950,note_off,113,0,0,,2,,,50,127
51951,note_on,1,0,0,,12,,,47,127
52064,note_off,113,0,0,,12,,,47,127
52065,note_on,1,0,0,,7,,,43,127
52178,note_off,113,0,0,,7,,,43,127
52179,note_on,1,0,0,,1,,,49,127
52292,note_off,113,0,0,,1,,,49,127
52293,note_on,1,0,0,,2,,,50,127
52406,note_off,113,0,0,,2,,,50,127
52407,note_on,1,0,0,,2,,,38,127
52520,note_off,113,0,0,,2,,,74,127
52520,note_off,0,0,0,,12,,,71,127
52521,note_on,1,0,0,,2,,,86,127
52634,note_off,113,0,0,,2,,,86,127
52635,note_on,1,0,0,,10,,,81,127
52748,note_off,113,0,0,,10,,,81,127
52749,note_on,1,0,0,,6,,,78,127
52862,note_off,113,0,0,,6,,,78,127
52863,note_on,1,0,0,,2,,,74,127
52976,note_off,113,0,0,,2,,,74,127
52977,note_on,1,0,0,,10,,,69,127
53090,note_off,113,0,0,,10,,,69,127
53091,note_on,1,0,0,,6,,,66,127
53204,note_off,113,0,0,,6,,,66,127
53205,note_on,1,0,0,,2,,,62,127
53318,note_off,113,0,0,,2,,,62,127
53319,note_on,1,0,0,,0,,,72,127
53319,note_on,0,0,0,,4,,,76,127
53432,note_off,113,0,0,,4,,,76,127
53432,note_off,0,0,0,,0,,,72,127
53432,note_off,0,0,0,,2,,,38,127
53433,note_on,1,0,0,,7,,,67,127
53433,note_on,0,0,0,,12,,,71,127
53433,note_on,0,0,0,,2,,,74,127
53546,note_off,113,0,0,,7,,,67,127
53547,note_on,1,0,0,,2,,,62,127
53660,note_off,113,0,0,,2,,,62,127
53661,note_on,1,0,0,,12,,,59,127
53774,note_off,113,0,0,,12,,,59,127
53775,note_on,1,0,0,,7,,,55,127
53888,note_off,113,0,0,,7,,,55,127
53889,note_on,1,0,0,,2,,,50,127
54002,note_off,113,0,0,,2,,,50,127
54003,note_on,1,0,0,,12,,,47,127
54116,note_off,113,0,0,,12,,,47,127
54117,note_on,1,0,0,,7,,,43,127
54230,note_off,113,0,0,,7,,,43,127
54231,note_on,1,0,0,,1,,,49,127
54344,note_off,113,0,0,,1,,,49,127
54345,note_on,1,0,0,,2,,,50,127
54458,note_off,113,0,0,,2,,,50,127
54459,note_on,1,0,0,,2,,,38,127
54572,note_off,113,0,0,,2,,,74,127
54572,note_off,0,0,0,,12,,,71,127
54573,note_on,1,0,0,,2,,,86,127
54686,note_off,113,0,0,,2,,,86,127
54687,note_on,1,0,0,,10,,,81,127
54800,note_off,113,0,0,,10,,,81,127
54801,note_on,1,0,0,,6,,,78,127
54914,note_off,113,0,0,,6,,,78,127
54915,note_on,1,0,0,,2,,,74,127
55028,note_off,113,0,0,,2,,,74,127
55029,note_on,1,0,0,,10,,,69,127
55142,note_off,113,0,0,,10,,,69,127
55143,note_on,1,0,0,,6,,,66,127
55256,note_off,113,0,0,,6,,,66,127
55257,note_on,1,0,0,,2,,,62,127
55370,note_off,113,0,0,,2,,,62,127
55371,note_on,1,0,0,,0,,,72,127
55484,note_off,113,0,0,,0,,,72,127
55484,note_off,0,0,0,,2,,,38,127
55485,note_on,1,0,0,,7,,,43,127
55485,note_on,0,0,0,,12,,,71,127
55598,note_off,113,0,0,,12,,,71,127
55599,note_on,1,0,0,,6,,,66,127
55712,note_off,113,0,0,,6,,,66,127
55713,note_on,1,0,0,,7,,,67,127
55826,note_off,113,0,0,,7,,,67,127
55827,note_on,1,0,0,,2,,,62,127
55940,note_off,113,0,0,,2,,,62,127
55941,note_on,1,0,0,,1,,,73,127
56054,note_off,113,0,0,,1,,,73,127
56055,note_on,1,0,0,,2,,,74,127
56168,note_off,113,0,0,,2,,,74,127
56168,note_off,0,0,0,,7,,,43,127
56169,note_on,1,0,0,,12,,,47,127
56169,note_on,0,0,0,,2,,,62,127
56282,note_off,113,0,0,,2,,,62,127
56283,note_on,1,0,0,,3,,,75,127
56396,note_off,113,0,0,,3,,,75,127
56397,note_on,1,0,0,,4,,,76,127
56510,note_off,113,0,0,,4,,,76,127
56510,note_off,0,0,0,,12,,,47,127
56511,note_on,1,0,0,,0,,,48,127
56511,note_on,0,0,0,,4,,,64,127
56624,note_off,113,0,0,,4,,,64,127
56625,note_on,1,0,0,,0,,,72,127
56738,note_off,113,0,0,,0,,,72,127
56739,note_on,1,0,0,,10,,,69,127
56852,note_off,113,0,0,,10,,,69,127
56852,note_off,0,0,0,,0,,,48,127
56853,note_on,1,0,0,,2,,,50,127
56853,note_on,0,0,0,,7,,,67,127
56980,note_off,127,0,0,,7,,,67,127
56981,note_on,1,0,0,,10,,,69,127
57023,note_off,42,0,0,,10,,,69,127
57024,note_on,1,0,0,,7,,,67,127
57066,note_off,42,0,0,,7,,,67,127
57067,note_on,1,0,0,,6,,,66,127
57109,note_off,42,0,0,,6,,,66,127
57110,note_on,1,0,0,,7,,,67,127
57152,note_off,42,0,0,,7,,,67,127
57153,note_on,1,0,0,,10,,,69,127
57195,note_off,42,0,0,,10,,,69,127
57195,note_off,0,0,0,,2,,,50,127
57196,note_on,1,0,0,,2,,,38,127
57196,note_on,0,0,0,,12,,,71,127
57238,note_off,42,0,0,,12,,,71,127
57239,note_on,1,0,0,,10,,,69,127
57281,note_off,42,0,0,,10,,,69,127
57282,note_on,1,0,0,,12,,,71,127
57324,note_off,42,0,0,,12,,,71,127
57325,note_on,1,0,0,,10,,,69,127
57367,note_off,42,0,0,,10,,,69,127
57368,note_on,1,0,0,,12,,,71,127
57410,note_off,42,0,0,,12,,,71,127
57411,note_on,1,0,0,,10,,,69,127
57453,note_off,42,0,0,,10,,,69,127
57454,note_on,1,0,0,,7,,,67,127
57496,note_off,42,0,0,,7,,,67,127
57497,note_on,1,0,0,,10,,,69,127
57539,note_off,42,0,0,,10,,,69,127
57539,note_off,0,0,0,,2,,,38,127
57540,note_on,1,0,0,,7,,,43,127
57540,note_on,0,0,0,,7,,,67,127
58032,note_off,492,0,0,,7,,,67,127
58033,note_on,1,0,0,,2,,,86,127
58070,note_off,37,0,0,,2,,,86,127
58071,note_on,1,0,0,,0,,,84,127
58108,note_off,37,0,0,,0,,,84,127
58109,note_on,1,0,0,,12,,,83,127
58145,note_off,36,0,0,,12,,,83,127
58146,note_on,1,0,0,,10,,,81,127
58183,note_off,37,0,0,,10,,,81,127
58184,note_on,1,0,0,,7,,,79,127
58221,note_off,37,0,0,,7,,,79,127
58222,note_on,1,0,0,,6,,,78,127
58258,note_off,36,0,0,,6,,,78,127
58259,note_on,1,0,0,,4,,,76,127
58296,note_off,37,0,0,,4,,,76,127
58297,note_on,1,0,0,,2,,,74,127
58334,note_off,37,0,0,,2,,,74,127
58335,note_on,1,0,0,,0,,,72,127
58371,note_off,36,0,0,,0,,,72,127
58372,note_on,1,0,0,,12,,,71,127
58409,note_off,37,0,0,,12,,,71,127
58410,note_on,1,0,0,,10,,,69,127
58447,note_off,37,0,0,,10,,,69,127
58448,note_on,1,0,0,,7,,,67,127
58484,note_off,36,0,0,,7,,,67,127
58485,note_on,1,0,0,,6,,,66,127
58522,note_off,37,0,0,,6,,,66,127
58523,note_on,1,0,0,,4,,,64,127
58560,note_off,37,0,0,,4,,,64,127
58560,note_off,0,0,0,,7,,,43,127
58561,note_on,1,0,0,,7,,,43,127
58561,note_on,0,0,0,,2,,,62,127
58597,note_off,36,0,0,,2,,,62,127
58598,note_on,1,0,0,,0,,,60,127
58635,note_off,37,0,0,,0,,,60,127
58636,note_on,1,0,0,,12,,,59,127
58673,note_off,37,0,0,,12,,,59,127
58674,note_on,1,0,0,,10,,,57,127
58710,note_off,36,0,0,,10,,,57,127
58711,note_on,1,0,0,,7,,,55,127
58760,note_off,49,0,0,,7,,,55,127
58761,note_on,1,0,0,,6,,,54,127
58805,note_off,44,0,0,,6,,,54,127
58806,note_on,1,0,0,,7,,,55,127
58852,note_off,46,0,0,,7,,,55,127
58853,note_on,1,0,0,,10,,,57,127
58900,note_off,47,0,0,,10,,,57,127
58900,note_off,0,0,0,,7,,,43,127
58901,note_on,1,0,0,,2,,,50,127
58901,note_on,0,0,0,,12,,,59,127
58943,note_off,42,0,0,,12,,,59,127
58944,note_on,1,0,0,,10,,,57,127
58986,note_off,42,0,0,,10,,,57,127
58987,note_on,1,0,0,,12,,,59,127
59029,note_off,42,0,0,,12,,,59,127
59030,note_on,1,0,0,,10,,,57,127
59072,note_off,42,0,0,,10,,,57,127
59073,note_on,1,0,0,,12,,,59,127
59115,note_off,42,0,0,,12,,,59,127
59116,note_on,1,0,0,,10,,,57,127
59158,note_off,42,0,0,,10,,,57,127
59159,note_on,1,0,0,,12,,,59,127
59201,note_off,42,0,0,,12,,,59,127
59202,note_on,1,0,0,,10,,,57,127
59244,note_off,42,0,0,,10,,,57,127
59245,note_on,1,0,0,,2,,,38,127
59245,note_on,0,0,0,,12,,,59,127
59287,note_off,42,0,0,,12,,,59,127
59288,note_on,1,0,0,,10,,,57,127
59330,note_off,42,0,0,,10,,,57,127
59331,note_on,1,0,0,,12,,,59,127
59373,note_off,42,0,0,,12,,,59,127
59374,note_on,1,0,0,,10,,,57,127
59416,note_off,42,0,0,,10,,,57,127
59417,note_on,1,0,0,,12,,,59,127
59459,note_off,42,0,0,,12,,,59,127
59460,note_on,1,0,0,,10,,,57,127
59502,note_off,42,0,0,,10,,,57,127
59503,note_on,1,0,0,,7,,,55,127
59545,note_off,42,0,0,,7,,,55,127
59546,note_on,1,0,0,,10,,,57,127
59588,note_off,42,0,0,,10,,,57,127
59588,note_off,0,0,0,,2,,,38,127
59588,note_off,0,0,0,,2,,,50,127
59589,note_on,1,0,0,,7,,,43,127
59589,note_on,0,0,0,,7,,,55,127
60081,note_off,492,0,0,,7,,,55,127
60082,note_on,1,0,0,,2,,,86,127
60119,note_off,37,0,0,,2,,,86,127
60120,note_on,1,0,0,,0,,,84,127
60157,note_off,37,0,0,,0,,,84,127
60158,note_on,1,0,0,,12,,,83,127
60194,note_off,36,0,0,,12,,,83,127
60195,note_on,1,0,0,,10,,,81,127
60232,note_off,37,0,0,,10,,,81,127
60233,note_on,1,0,0,,7,,,79,127
60270,note_off,37,0,0,,7,,,79,127
60271,note_on,1,0,0,,6,,,78,127
60307,note_off,36,0,0,,6,,,78,127
60308,note_on,1,0,0,,4,,,76,127
60345,note_off,37,0,0,,4,,,76,127
60346,note_on,1,0,0,,2,,,74,127
60383,note_off,37,0,0,,2,,,74,127
60384,note_on,1,0,0,,0,,,72,127
60420,note_off,36,0,0,,0,,,72,127
60421,note_on,1,0,0,,12,,,71,127
60458,note_off,37,0,0,,12,,,71,127
60459,note_on,1,0,0,,10,,,69,127
60496,note_off,37,0,0,,10,,,69,127
60497,note_on,1,0,0,,7,,,67,127
60533,note_off,36,0,0,,7,,,67,127
60534,note_on,1,0,0,,6,,,66,127
60571,note_off,37,0,0,,6,,,66,127
60572,note_on,1,0,0,,4,,,64,127
60609,note_off,37,0,0,,4,,,64,127
60609,note_off,0,0,0,,7,,,43,127
60610,note_on,1,0,0,,7,,,43,127
60610,note_on,0,0,0,,2,,,62,127
60646,note_off,36,0,0,,2,,,62,127
60647,note_on,1,0,0,,0,,,60,127
60684,note_off,37,0,0,,0,,,60,127
60685,note_on,1,0,0,,12,,,59,127
60722,note_off,37,0,0,,12,,,59,127
60723,note_on,1,0,0,,10,,,57,127
60759,note_off,36,0,0,,10,,,57,127
60760,note_on,1,0,0,,7,,,55,127
60809,note_off,49,0,0,,7,,,55,127
60810,note_on,1,0,0,,6,,,54,127
60854,note_off,44,0,0,,6,,,54,127
60855,note_on,1,0,0,,7,,,55,127
60901,note_off,46,0,0,,7,,,55,127
60902,note_on,1,0,0,,10,,,57,127
60949,note_off,47,0,0,,10,,,57,127
60949,note_off,0,0,0,,7,,,43,127
60950,note_on,1,0,0,,2,,,50,127
60950,note_on,0,0,0,,12,,,59,127
60992,note_off,42,0,0,,12,,,59,127
60993,note_on,1,0,0,,10,,,57,127
61035,note_off,42,0,0,,10,,,57,127
61036,note_on,1,0,0,,12,,,59,127
61078,note_off,42,0,0,,12,,,59,127
61079,note_on,1,0,0,,10,,,57,127
61121,note_off,42,0,0,,10,,,57,127
61122,note_on,1,0,0,,12,,,59,127
61164,note_off,42,0,0,,12,,,59,127
61165,note_on,1,0,0,,10,,,57,127
61207,note_off,42,0,0,,10,,,57,127
61208,note_on,1,0,0,,12,,,59,127
61250,note_off,42,0,0,,12,,,59,127
61251,note_on,1,0,0,,10,,,57,127
61293,note_off,42,0,0,,10,,,57,127
61294,note_on,1,0,0,,2,,,38,127
61294,note_on,0,0,0,,12,,,59,127
61336,note_off,42,0,0,,12,,,59,127
61337,note_on,1,0,0,,10,,,57,127
61379,note_off,42,0,0,,10,,,57,127
61380,note_on,1,0,0,,12,,,59,127
61422,note_off,42,0,0,,12,,,59,127
61423,note_on,1,0,0,,10,,,57,127
61465,note_off,42,0,0,,10,,,57,127
61466,note_on,1,0,0,,12,,,59,127
61508,note_off,42,0,0,,12,,,59,127
61509,note_on,1,0,0,,10,,,57,127
61551,note_off,42,0,0,,10,,,57,127
61552,note_on,1,0,0,,7,,,55,127
61594,note_off,42,0,0,,7,,,55,127
61595,note_on,1,0,0,,10,,,57,127
61637,note_off,42,0,0,,10,,,57,127
61637,note_off,0,0,0,,2,,,38,127
61637,note_off,0,0,0,,2,,,50,127
61638,note_on,1,0,0,,7,,,43,127
61638,note_on,0,0,0,,7,,,55,127
62320,note_off,682,0,0,,7,,,43,127
62661,note_off,341,0,0,,7,,,55,127
62662,note_on,1,0,0,,7,,,55,127
62775,note_off,113,0,0,,7,,,55,127
62776,note_on,1,0,0,,6,,,54,127
62889,note_off,113,0,0,,6,,,54,127
62890,note_on,1,0,0,,7,,,55,127
63003,note_off,113,0,0,,7,,,55,127
63004,note_on,1,0,0,,12,,,59,127
63004,note_on,0,0,0,,2,,,74,127
63117,note_off,113,0,0,,12,,,59,127
63118,note_on,1,0,0,,10,,,57,127
63231,note_off,113,0,0,,10,,,57,127
63232,note_on,1,0,0,,12,,,59,127
63345,note_off,113,0,0,,12,,,59,127
63345,note_off,0,0,0,,2,,,74,127
63346,note_on,1,0,0,,2,,,62,127
63346,note_on,0,0,0,,12,,,71,127
63459,note_off,113,0,0,,2,,,62,127
63460,note_on,1,0,0,,0,,,60,127
63573,note_off,113,0,0,,0,,,60,127
63574,note_on,1,0,0,,2,,,62,127
63687,note_off,113,0,0,,2,,,62,127
63687,note_off,0,0,0,,12,,,71,127
63688,note_on,1,0,0,,5,,,53,127
63801,note_off,113,0,0,,5,,,53,127
63802,note_on,1,0,0,,4,,,52,127
63915,note_off,113,0,0,,4,,,52,127
63916,note_on,1,0,0,,5,,,53,127
64029,note_off,113,0,0,,5,,,53,127
64030,note_on,1,0,0,,12,,,59,127
64030,note_on,0,0,0,,2,,,74,127
64143,note_off,113,0,0,,12,,,59,127
64144,note_on,1,0,0,,10,,,57,127
64257,note_off,113,0,0,,10,,,57,127
64258,note_on,1,0,0,,12,,,59,127
64371,note_off,113,0,0,,12,,,59,127
64371,note_off,0,0,0,,2,,,74,127
64372,note_on,1,0,0,,2,,,62,127
64372,note_on,0,0,0,,12,,,71,127
64485,note_off,113,0,0,,2,,,62,127
64486,note_on,1,0,0,,0,,,60,127
64599,note_off,113,0,0,,0,,,60,127
64600,note_on,1,0,0,,2,,,62,127
64713,note_off,113,0,0,,2,,,62,127
64714,note_on,1,0,0,,4,,,52,127
64827,note_off,113,0,0,,12,,,71,127
64828,note_on,1,0,0,,2,,,74,127
64941,note_off,113,0,0,,2,,,74,127
64942,note_on,1,0,0,,0,,,72,127
65055,note_off,113,0,0,,0,,,72,127
65056,note_on,1,0,0,,10,,,57,127
65056,note_on,0,0,0,,0,,,72,127
65169,note_off,113,0,0,,0,,,72,127
65170,note_on,1,0,0,,12,,,71,127
65283,note_off,113,0,0,,12,,,71,127
65284,note_on,1,0,0,,10,,,69,127
65397,note_off,113,0,0,,10,,,69,127
65397,note_off,0,0,0,,10,,,57,127
65398,note_on,1,0,0,,0,,,60,127
65398,note_on,0,0,0,,12,,,71,127
65398,note_on,0,0,0,,10,,,69,127
65511,note_off,113,0,0,,10,,,69,127
65511,note_off,0,0,0,,12,,,71,127
65512,note_on,1,0,0,,8,,,68,127
65625,note_off,113,0,0,,8,,,68,127
65626,note_on,1,0,0,,10,,,69,127
65739,note_off,113,0,0,,10,,,69,127
65739,note_off,0,0,0,,0,,,60,127
65739,note_off,0,0,0,,4,,,52,127
65740,note_on,1,0,0,,4,,,52,127
65740,note_on,0,0,0,,8,,,68,127
65853,note_off,113,0,0,,8,,,68,127
65854,note_on,1,0,0,,5,,,77,127
65967,note_off,113,0,0,,5,,,77,127
65968,note_on,1,0,0,,4,,,76,127
66081,note_off,113,0,0,,4,,,76,127
66082,note_on,1,0,0,,12,,,59,127
66082,note_on,0,0,0,,4,,,76,127
66195,note_off,113,0,0,,4,,,76,127
66196,note_on,1,0,0,,2,,,74,127
66309,note_off,113,0,0,,2,,,74,127
66310,note_on,1,0,0,,0,,,72,127
66423,note_off,113,0,0,,0,,,72,127
66423,note_off,0,0,0,,12,,,59,127
66423,note_off,0,0,0,,4,,,52,127
66424,note_on,1,0,0,,8,,,56,127
66424,note_on,0,0,0,,2,,,74,127
66537,note_off,113,0,0,,2,,,74,127
66538,note_on,1,0,0,,0,,,72,127
66651,note_off,113,0,0,,0,,,72,127
66652,note_on,1,0,0,,12,,,71,127
66765,note_off,113,0,0,,12,,,71,127
66765,note_off,0,0,0,,8,,,56,127
66766,note_on,1,0,0,,10,,,57,127
66766,note_on,0,0,0,,2,,,74,127
66879,note_off,113,0,0,,2,,,74,127
66880,note_on,1,0,0,,0,,,72,127
66937,note_off,57,0,0,,0,,,72,127
66937,note_on,0,0,0,,2,,,74,127
66994,note_off,57,0,0,,2,,,74,127
66994,note_on,0,0,0,,0,,,72,127
67051,note_off,57,0,0,,0,,,72,127
67051,note_on,0,0,0,,2,,,74,127
67108,note_off,57,0,0,,2,,,74,127
67108,note_on,0,0,0,,10,,,45,127
67108,note_on,0,0,0,,0,,,72,127
67335,note_off,227,0,0,,0,,,72,127
67336,note_on,1,0,0,,12,,,71,127
67449,note_off,113,0,0,,12,,,71,127
67449,note_off,0,0,0,,10,,,57,127
67450,note_on,1,0,0,,10,,,69,127
67790,note_off,340,0,0,,10,,,69,127
67790,note_off,0,0,0,,10,,,45,127
67791,note_on,1,0,0,,10,,,57,127
67904,note_off,113,0,0,,10,,,57,127
67905,note_on,1,0,0,,8,,,56,127
68018,note_off,113,0,0,,8,,,56,127
68019,note_on,1,0,0,,10,,,57,127
68132,note_off,113,0,0,,10,,,57,127
68133,note_on,1,0,0,,0,,,60,127
68133,note_on,0,0,0,,4,,,76,127
68246,note_off,113,0,0,,0,,,60,127
68247,note_on,1,0,0,,12,,,59,127
68360,note_off,113,0,0,,12,,,59,127
68361,note_on,1,0,0,,0,,,60,127
68474,note_off,113,0,0,,0,,,60,127
68474,note_off,0,0,0,,4,,,76,127
68475,note_on,1,0,0,,4,,,64,127
68475,note_on,0,0,0,,10,,,69,127
68588,note_off,113,0,0,,4,,,64,127
68589,note_on,1,0,0,,2,,,62,127
68702,note_off,113,0,0,,2,,,62,127
68703,note_on,1,0,0,,4,,,64,127
68816,note_off,113,0,0,,4,,,64,127
68816,note_off,0,0,0,,10,,,69,127
68817,note_on,1,0,0,,7,,,55,127
68930,note_off,113,0,0,,7,,,55,127
68931,note_on,1,0,0,,5,,,53,127
69044,note_off,113,0,0,,5,,,53,127
69045,note_on,1,0,0,,7,,,55,127
69158,note_off,113,0,0,,7,,,55,127
69159,note_on,1,0,0,,1,,,61,127
69159,note_on,0,0,0,,4,,,76,127
69272,note_off,113,0,0,,1,,,61,127
69273,note_on,1,0,0,,12,,,59,127
69386,note_off,113,0,0,,12,,,59,127
69387,note_on,1,0,0,,1,,,61,127
69500,note_off,113,0,0,,1,,,61,127
69500,note_off,0,0,0,,4,,,76,127
69501,note_on,1,0,0,,4,,,64,127
69501,note_on,0,0,0,,1,,,73,127
69614,note_off,113,0,0,,4,,,64,127
69615,note_on,1,0,0,,2,,,62,127
69728,note_off,113,0,0,,2,,,62,127
69729,note_on,1,0,0,,4,,,64,127
69842,note_off,113,0,0,,4,,,64,127
69843,note_on,1,0,0,,5,,,53,127
69857,note_off,14,0,0,,1,,,73,127
69957,note_on,100,0,0,,10,,,81,127
70070,note_off,113,0,0,,10,,,81,127
70071,note_on,1,0,0,,7,,,79,127
70184,note_off,113,0,0,,7,,,79,127
70185,note_on,1,0,0,,2,,,62,127
70185,note_on,0,0,0,,7,,,79,127
70298,note_off,113,0,0,,7,,,79,127
70299,note_on,1,0,0,,5,,,77,127
70412,note_off,113,0,0,,5,,,77,127
70413,note_on,1,0,0,,4,,,76,127
70526,note_off,113,0,0,,4,,,76,127
70526,note_off,0,0,0,,2,,,62,127
70526,note_off,0,0,0,,5,,,53,127
70527,note_on,1,0,0,,5,,,53,127
70527,note_on,0,0,0,,4,,,76,127
70640,note_off,113,0,0,,4,,,76,127
70641,note_on,1,0,0,,2,,,74,127
70754,note_off,113,0,0,,2,,,74,127
70755,note_on,1,0,0,,0,,,72,127
70868,note_off,113,0,0,,0,,,72,127
70868,note_off,0,0,0,,5,,,53,127
70869,note_on,1,0,0,,7,,,55,127
70869,note_on,0,0,0,,11,,,70,127
70982,note_off,113,0,0,,11,,,70,127
70983,note_on,1,0,0,,2,,,74,127
71096,note_off,113,0,0,,2,,,74,127
71097,note_on,1,0,0,,0,,,72,127
71210,note_off,113,0,0,,0,,,72,127
71211,note_on,1,0,0,,0,,,72,127
71324,note_off,113,0,0,,0,,,72,127
71325,note_on,1,0,0,,11,,,70,127
71438,note_off,113,0,0,,11,,,70,127
71439,note_on,1,0,0,,10,,,69,127
71552,note_off,113,0,0,,10,,,69,127
71552,note_off,0,0,0,,7,,,55,127
71553,note_on,1,0,0,,11,,,58,127
71553,note_on,0,0,0,,10,,,69,127
71666,note_off,113,0,0,,10,,,69,127
71667,note_on,1,0,0,,7,,,67,127
71780,note_off,113,0,0,,7,,,67,127
71781,note_on,1,0,0,,5,,,65,127
71894,note_off,113,0,0,,5,,,65,127
71894,note_off,0,0,0,,11,,,58,127
71895,note_on,1,0,0,,0,,,60,127
71895,note_on,0,0,0,,4,,,64,127
72008,note_off,113,0,0,,4,,,64,127
72009,note_on,1,0,0,,7,,,67,127
72122,note_off,113,0,0,,7,,,67,127
72123,note_on,1,0,0,,5,,,65,127
72236,note_off,113,0,0,,5,,,65,127
72237,note_on,1,0,0,,5,,,65,127
72350,note_off,113,0,0,,5,,,65,127
72351,note_on,1,0,0,,4,,,64,127
72464,note_off,113,0,0,,4,,,64,127
72465,note_on,1,0,0,,2,,,62,127
72578,note_off,113,0,0,,2,,,62,127
72578,note_off,0,0,0,,0,,,60,127
72579,note_on,1,0,0,,4,,,52,127
72579,note_on,0,0,0,,2,,,62,127
72692,note_off,113,0,0,,2,,,62,127
72693,note_on,1,0,0,,0,,,60,127
72806,note_off,113,0,0,,0,,,60,127
72807,note_on,1,0,0,,11,,,58,127
72920,note_off,113,0,0,,11,,,58,127
72920,note_off,0,0,0,,4,,,52,127
72921,note_on,1,0,0,,5,,,53,127
72921,note_on,0,0,0,,0,,,60,127
72977,note_off,56,0,0,,0,,,60,127
72978,note_on,1,0,0,,11,,,58,127
73034,note_off,56,0,0,,11,,,58,127
73035,note_on,1,0,0,,0,,,60,127
73091,note_off,56,0,0,,0,,,60,127
73092,note_on,1,0,0,,11,,,58,127
73148,note_off,56,0,0,,11,,,58,127
73149,note_on,1,0,0,,0,,,60,127
73205,note_off,56,0,0,,0,,,60,127
73206,note_on,1,0,0,,11,,,58,127
73262,note_off,56,0,0,,11,,,58,127
73263,note_on,1,0,0,,5,,,41,127
73263,note_on,0,0,0,,0,,,60,127
73319,note_off,56,0,0,,0,,,60,127
73320,note_on,1,0,0,,11,,,58,127
73376,note_off,56,0,0,,11,,,58,127
73377,note_on,1,0,0,,0,,,60,127
73433,note_off,56,0,0,,0,,,60,127
73434,note_on,1,0,0,,11,,,58,127
73490,note_off,56,0,0,,11,,,58,127
73491,note_on,1,0,0,,10,,,57,127
73547,note_off,56,0,0,,10,,,57,127
73548,note_on,1,0,0,,11,,,58,127
73604,note_off,56,0,0,,11,,,58,127
73604,note_off,0,0,0,,5,,,53,127
73605,note_on,1,0,0,,10,,,57,127
73904,note_off,299,0,0,,5,,,41,127
73946,note_off,42,0,0,,10,,,57,127
73947,note_on,1,0,0,,5,,,53,127
73947,note_on,0,0,0,,5,,,77,127
74060,note_off,113,0,0,,5,,,77,127
74061,note_on,1,0,0,,10,,,69,127
74174,note_off,113,0,0,,10,,,69,127
74175,note_on,1,0,0,,11,,,70,127
74288,note_off,113,0,0,,11,,,70,127
74289,note_on,1,0,0,,5,,,65,127
74289,note_on,0,0,0,,0,,,72,127
74402,note_off,113,0,0,,0,,,72,127
74403,note_on,1,0,0,,2,,,74,127
74516,note_off,113,0,0,,2,,,74,127
74517,note_on,1,0,0,,4,,,76,127
74630,note_off,113,0,0,,4,,,76,127
74630,note_off,0,0,0,,5,,,65,127
74630,note_off,0,0,0,,5,,,53,127
74631,note_on,1,0,0,,4,,,64,127
74631,note_on,0,0,0,,5,,,77,127
74744,note_off,113,0,0,,5,,,77,127
74745,note_on,1,0,0,,7,,,79,127
74858,note_off,113,0,0,,7,,,79,127
74859,note_on,1,0,0,,10,,,81,127
74972,note_off,113,0,0,,10,,,81,127
74972,note_off,0,0,0,,4,,,64,127
74973,note_on,1,0,0,,2,,,62,127
74973,note_on,0,0,0,,5,,,77,127
75086,note_off,113,0,0,,5,,,77,127
75087,note_on,1,0,0,,10,,,69,127
75200,note_off,113,0,0,,10,,,69,127
75201,note_on,1,0,0,,11,,,70,127
75314,note_off,113,0,0,,11,,,70,127
75314,note_off,0,0,0,,2,,,62,127
75315,note_on,1,0,0,,0,,,60,127
75315,note_on,0,0,0,,0,,,72,127
75428,note_off,113,0,0,,0,,,72,127
75429,note_on,1,0,0,,2,,,74,127
75542,note_off,113,0,0,,2,,,74,127
75543,note_on,1,0,0,,4,,,76,127
75656,note_off,113,0,0,,4,,,76,127
75656,note_off,0,0,0,,0,,,60,127
75657,note_on,1,0,0,,11,,,58,127
75657,note_on,0,0,0,,5,,,77,127
75770,note_off,113,0,0,,5,,,77,127
75771,note_on,1,0,0,,7,,,79,127
75884,note_off,113,0,0,,7,,,79,127
75885,note_on,1,0,0,,10,,,81,127
75998,note_off,113,0,0,,10,,,81,127
75998,note_off,0,0,0,,11,,,58,127
75999,note_on,1,0,0,,10,,,57,127
75999,note_on,0,0,0,,5,,,77,127
76112,note_off,113,0,0,,5,,,77,127
76113,note_on,1,0,0,,10,,,69,127
76226,note_off,113,0,0,,10,,,69,127
76227,note_on,1,0,0,,11,,,70,127
76340,note_off,113,0,0,,11,,,70,127
76340,note_off,0,0,0,,10,,,57,127
76341,note_on,1,0,0,,7,,,55,127
76341,note_on,0,0,0,,0,,,72,127
76454,note_off,113,0,0,,0,,,72,127
76455,note_on,1,0,0,,2,,,74,127
76568,note_off,113,0,0,,2,,,74,127
76569,note_on,1,0,0,,4,,,76,127
76682,note_off,113,0,0,,4,,,76,127
76682,note_off,0,0,0,,7,,,55,127
76683,note_on,1,0,0,,5,,,53,127
76683,note_on,0,0,0,,5,,,77,127
76796,note_off,113,0,0,,5,,,77,127
76797,note_on,1,0,0,,7,,,79,127
76910,note_off,113,0,0,,7,,,79,127
76911,note_on,1,0,0,,10,,,81,127
77024,note_off,113,0,0,,10,,,81,127
77024,note_off,0,0,0,,5,,,53,127
77025,note_on,1,0,0,,0,,,60,127
77025,note_on,0,0,0,,10,,,81,127
77138,note_off,113,0,0,,10,,,81,127
77139,note_on,1,0,0,,0,,,84,127
77252,note_off,113,0,0,,0,,,84,127
77253,note_on,1,0,0,,11,,,82,127
77366,note_off,113,0,0,,11,,,82,127
77367,note_on,1,0,0,,0,,,48,127
77367,note_on,0,0,0,,10,,,81,127
77480,note_off,113,0,0,,10,,,81,127
77481,note_on,1,0,0,,7,,,79,127
77594,note_off,113,0,0,,7,,,79,127
77595,note_on,1,0,0,,5,,,77,127
77708,note_off,113,0,0,,5,,,77,127
77708,note_off,0,0,0,,0,,,60,127
77709,note_on,1,0,0,,10,,,81,127
77766,note_off,57,0,0,,10,,,81,127
77766,note_on,0,0,0,,7,,,79,127
77823,note_off,57,0,0,,7,,,79,127
77823,note_on,0,0,0,,10,,,81,127
77880,note_off,57,0,0,,10,,,81,127
77880,note_on,0,0,0,,7,,,79,127
77990,note_off,110,0,0,,0,,,48,127
78050,note_on,60,0,0,,5,,,65,127
78099,note_off,49,0,0,,7,,,79,127
78163,note_off,64,0,0,,5,,,65,127
78164,note_on,1,0,0,,10,,,57,127
78277,note_off,113,0,0,,10,,,57,127
78278,note_on,1,0,0,,11,,,58,127
78391,note_off,113,0,0,,11,,,58,127
78392,note_on,1,0,0,,0,,,60,127
78392,note_on,0,0,0,,0,,,84,127
78505,note_off,113,0,0,,0,,,60,127
78506,note_on,1,0,0,,2,,,62,127
78619,note_off,113,0,0,,2,,,62,127
78620,note_on,1,0,0,,4,,,64,127
78733,note_off,113,0,0,,4,,,64,127
78733,note_off,0,0,0,,0,,,84,127
78734,note_on,1,0,0,,5,,,65,127
78734,note_on,0,0,0,,10,,,81,127
78847,note_off,113,0,0,,5,,,65,127
78848,note_on,1,0,0,,7,,,67,127
78961,note_off,113,0,0,,7,,,67,127
78962,note_on,1,0,0,,10,,,69,127
79075,note_off,113,0,0,,10,,,69,127
79075,note_off,0,0,0,,10,,,81,127
79076,note_on,1,0,0,,5,,,65,127
79189,note_off,113,0,0,,5,,,65,127
79190,note_on,1,0,0,,10,,,57,127
79303,note_off,113,0,0,,10,,,57,127
79304,note_on,1,0,0,,11,,,58,127
79417,note_off,113,0,0,,11,,,58,127
79418,note_on,1,0,0,,0,,,60,127
79418,note_on,0,0,0,,0,,,84,127
79531,note_off,113,0,0,,0,,,60,127
79532,note_on,1,0,0,,2,,,62,127
79645,note_off,113,0,0,,2,,,62,127
79646,note_on,1,0,0,,4,,,64,127
79759,note_off,113,0,0,,4,,,64,127
79759,note_off,0,0,0,,0,,,84,127
79760,note_on,1,0,0,,5,,,65,127
79760,note_on,0,0,0,,10,,,81,127
79873,note_off,113,0,0,,5,,,65,127
79874,note_on,1,0,0,,7,,,67,127
79987,note_off,113,0,0,,7,,,67,127
79988,note_on,1,0,0,,10,,,69,127
80101,note_off,113,0,0,,10,,,69,127
80101,note_off,0,0,0,,10,,,81,127
80102,note_on,1,0,0,,5,,,65,127
80215,note_off,113,0,0,,5,,,65,127
80216,note_on,1,0,0,,10,,,57,127
80329,note_off,113,0,0,,10,,,57,127
80330,note_on,1,0,0,,11,,,58,127
80443,note_off,113,0,0,,11,,,58,127
80444,note_on,1,0,0,,0,,,60,127
80444,note_on,0,0,0,,0,,,84,127
80557,note_off,113,0,0,,0,,,60,127
80558,note_on,1,0,0,,2,,,62,127
80671,note_off,113,0,0,,2,,,62,127
80672,note_on,1,0,0,,4,,,64,127
80785,note_off,113,0,0,,4,,,64,127
80785,note_off,0,0,0,,0,,,84,127
80786,note_on,1,0,0,,5,,,65,127
80786,note_on,0,0,0,,10,,,81,127
80899,note_off,113,0,0,,5,,,65,127
80900,note_on,1,0,0,,7,,,67,127
81013,note_off,113,0,0,,7,,,67,127
81014,note_on,1,0,0,,10,,,69,127
81127,note_off,113,0,0,,10,,,69,127
81128,note_on,1,0,0,,0,,,60,127
81241,note_off,113,0,0,,10,,,81,127
81242,note_on,1,0,0,,0,,,84,127
81355,note_off,113,0,0,,0,,,84,127
81356,note_on,1,0,0,,11,,,82,127
81469,note_off,113,0,0,,11,,,82,127
81470,note_on,1,0,0,,10,,,81,127
81583,note_off,113,0,0,,10,,,81,127
81584,note_on,1,0,0,,7,,,79,127
81697,note_off,113,0,0,,7,,,79,127
81698,note_on,1,0,0,,5,,,77,127
81811,note_off,113,0,0,,5,,,77,127
81812,note_on,1,0,0,,0,,,48,127
81812,note_on,0,0,0,,10,,,81,127
81869,note_off,57,0,0,,10,,,81,127
81869,note_on,0,0,0,,7,,,79,127
81926,note_off,57,0,0,,7,,,79,127
81926,note_on,0,0,0,,10,,,81,127
81983,note_off,57,0,0,,10,,,81,127
81983,note_on,0,0,0,,7,,,79,127
82152,note_off,169,0,0,,0,,,60,127
82153,note_off,1,0,0,,0,,,48,127
82154,note_on,1,0,0,,0,,,60,127
82203,note_off,49,0,0,,7,,,79,127
82268,note_on,65,0,0,,0,,,84,127
82381,note_off,113,0,0,,0,,,84,127
82382,note_on,1,0,0,,11,,,82,127
82495,note_off,113,0,0,,11,,,82,127
82496,note_on,1,0,0,,0,,,72,127
82496,note_on,0,0,0,,11,,,82,127
82609,note_off,113,0,0,,11,,,82,127
82610,note_on,1,0,0,,10,,,81,127
82723,note_off,113,0,0,,10,,,81,127
82724,note_on,1,0,0,,7,,,79,127
82837,note_off,113,0,0,,7,,,79,127
82837,note_off,0,0,0,,0,,,60,127
82838,note_on,1,0,0,,3,,,63,127
82838,note_on,0,0,0,,10,,,81,127
82838,note_on,0,0,0,,7,,,79,127
82951,note_off,113,0,0,,7,,,79,127
82951,note_off,0,0,0,,10,,,81,127
82952,note_on,1,0,0,,6,,,78,127
83065,note_off,113,0,0,,6,,,78,127
83066,note_on,1,0,0,,7,,,79,127
83179,note_off,113,0,0,,7,,,79,127
83179,note_off,0,0,0,,3,,,63,127
83180,note_on,1,0,0,,2,,,62,127
83180,note_on,0,0,0,,6,,,78,127
83293,note_off,113,0,0,,6,,,78,127
83294,note_on,1,0,0,,10,,,81,127
83407,note_off,113,0,0,,10,,,81,127
83408,note_on,1,0,0,,7,,,79,127
83521,note_off,113,0,0,,7,,,79,127
83521,note_off,0,0,0,,0,,,72,127
83522,note_on,1,0,0,,6,,,78,127
83635,note_off,113,0,0,,6,,,78,127
83636,note_on,1,0,0,,3,,,75,127
83749,note_off,113,0,0,,3,,,75,127
83750,note_on,1,0,0,,2,,,74,127
83863,note_off,113,0,0,,2,,,74,127
83863,note_off,0,0,0,,2,,,62,127
83864,note_on,1,0,0,,6,,,66,127
83864,note_on,0,0,0,,2,,,74,127
83864,note_on,0,0,0,,0,,,72,127
83977,note_off,113,0,0,,0,,,72,127
83977,note_off,0,0,0,,2,,,74,127
83978,note_on,1,0,0,,12,,,71,127
84091,note_off,113,0,0,,12,,,71,127
84092,note_on,1,0,0,,0,,,72,127
84205,note_off,113,0,0,,0,,,72,127
84205,note_off,0,0,0,,6,,,66,127
84206,note_on,1,0,0,,7,,,67,127
84206,note_on,0,0,0,,12,,,71,127
84319,note_off,113,0,0,,12,,,71,127
84320,note_on,1,0,0,,2,,,86,127
84433,note_off,113,0,0,,2,,,86,127
84434,note_on,1,0,0,,0,,,84,127
84547,note_off,113,0,0,,0,,,84,127
84548,note_on,1,0,0,,12,,,83,127
84661,note_off,113,0,0,,12,,,83,127
84662,note_on,1,0,0,,8,,,80,127
84775,note_off,113,0,0,,8,,,80,127
84776,note_on,1,0,0,,7,,,79,127
84889,note_off,113,0,0,,7,,,79,127
84889,note_off,0,0,0,,7,,,67,127
84890,note_on,1,0,0,,12,,,59,127
84890,note_on,0,0,0,,7,,,79,127
84890,note_on,0,0,0,,5,,,77,127
85003,note_off,113,0,0,,5,,,77,127
85003,note_off,0,0,0,,7,,,79,127
85004,note_on,1,0,0,,3,,,75,127
85117,note_off,113,0,0,,3,,,75,127
85118,note_on,1,0,0,,2,,,74,127
85231,note_off,113,0,0,,2,,,74,127
85231,note_off,0,0,0,,12,,,59,127
85232,note_on,1,0,0,,0,,,60,127
85232,note_on,0,0,0,,3,,,75,127
85345,note_off,113,0,0,,3,,,75,127
85346,note_on,1,0,0,,5,,,77,127
85459,note_off,113,0,0,,5,,,77,127
85460,note_on,1,0,0,,7,,,79,127
85573,note_off,113,0,0,,7,,,79,127
85573,note_off,0,0,0,,0,,,60,127
85574,note_on,1,0,0,,8,,,56,127
85574,note_on,0,0,0,,5,,,77,127
85687,note_off,113,0,0,,5,,,77,127
85688,note_on,1,0,0,,7,,,79,127
85801,note_off,113,0,0,,7,,,79,127
85802,note_on,1,0,0,,8,,,80,127
85915,note_off,113,0,0,,8,,,80,127
85915,note_off,0,0,0,,8,,,56,127
85916,note_on,1,0,0,,5,,,53,127
85916,note_on,0,0,0,,2,,,74,127
86029,note_off,113,0,0,,2,,,74,127
86030,note_on,1,0,0,,3,,,75,127
86143,note_off,113,0,0,,3,,,75,127
86144,note_on,1,0,0,,5,,,77,127
86257,note_off,113,0,0,,5,,,77,127
86257,note_off,0,0,0,,5,,,53,127
86258,note_on,1,0,0,,7,,,55,127
86258,note_on,0,0,0,,0,,,72,127
86428,note_off,170,0,0,,0,,,72,127
86429,note_on,1,0,0,,12,,,71,127
86486,note_off,57,0,0,,12,,,71,127
86486,note_on,0,0,0,,0,,,72,127
86543,note_off,57,0,0,,0,,,72,127
86543,note_on,0,0,0,,12,,,71,127
86600,note_off,57,0,0,,12,,,71,127
86600,note_on,0,0,0,,7,,,43,127
86600,note_on,0,0,0,,0,,,72,127
86657,note_off,57,0,0,,0,,,72,127
86657,note_on,0,0,0,,12,,,71,127
86714,note_off,57,0,0,,12,,,71,127
86714,note_on,0,0,0,,0,,,72,127
86771,note_off,57,0,0,,0,,,72,127
86771,note_on,0,0,0,,12,,,71,127
86828,note_off,57,0,0,,12,,,71,127
86828,note_on,0,0,0,,0,,,72,127
86885,note_off,57,0,0,,0,,,72,127
86885,note_on,0,0,0,,12,,,71,127
87223,note_off,338,0,0,,12,,,71,127
87282,note_off,59,0,0,,7,,,55,127
87283,note_off,1,0,0,,7,,,43,127
87284,note_on,1,0,0,,0,,,48,127
87284,note_on,0,0,0,,0,,,36,127
87398,note_on,114,0,0,,0,,,84,127
87511,note_off,113,0,0,,0,,,84,127
87512,note_on,1,0,0,,7,,,79,127
87625,note_off,113,0,0,,7,,,79,127
87626,note_on,1,0,0,,4,,,76,127
87739,note_off,113,0,0,,4,,,76,127
87740,note_on,1,0,0,,0,,,72,127
87853,note_off,113,0,0,,0,,,72,127
87854,note_on,1,0,0,,7,,,67,127
87967,note_off,113,0,0,,7,,,67,127
87968,note_on,1,0,0,,4,,,64,127
88081,note_off,113,0,0,,4,,,64,127
88082,note_on,1,0,0,,0,,,60,127
88195,note_off,113,0,0,,0,,,60,127
88196,note_on,1,0,0,,4,,,76,127
88196,note_on,0,0,0,,0,,,72,127
88309,note_off,113,0,0,,0,,,72,127
88309,note_off,0,0,0,,4,,,76,127
88309,note_off,0,0,0,,0,,,36,127
88309,note_off,0,0,0,,0,,,48,127
88310,note_on,1,0,0,,7,,,67,127
88310,note_on,0,0,0,,12,,,71,127
88310,note_on,0,0,0,,2,,,74,127
88423,note_off,113,0,0,,7,,,67,127
88424,note_on,1,0,0,,2,,,62,127
88537,note_off,113,0,0,,2,,,62,127
88538,note_on,1,0,0,,12,,,59,127
88651,note_off,113,0,0,,12,,,59,127
88652,note_on,1,0,0,,7,,,55,127
88765,note_off,113,0,0,,7,,,55,127
88766,note_on,1,0,0,,2,,,50,127
88879,note_off,113,0,0,,2,,,50,127
88880,note_on,1,0,0,,12,,,47,127
88993,note_off,113,0,0,,12,,,47,127
88994,note_on,1,0,0,,7,,,43,127
89107,note_off,113,0,0,,7,,,43,127
89108,note_on,1,0,0,,2,,,50,127
89221,note_off,113,0,0,,2,,,50,127
89222,note_on,1,0,0,,12,,,47,127
89335,note_off,113,0,0,,12,,,47,127
89336,note_on,1,0,0,,0,,,48,127
89336,note_on,0,0,0,,0,,,36,127
89449,note_off,113,0,0,,2,,,74,127
89449,note_off,0,0,0,,12,,,71,127
89450,note_on,1,0,0,,0,,,84,127
89563,note_off,113,0,0,,0,,,84,127
89564,note_on,1,0,0,,7,,,79,127
89677,note_off,113,0,0,,7,,,79,127
89678,note_on,1,0,0,,4,,,76,127
89791,note_off,113,0,0,,4,,,76,127
89792,note_on,1,0,0,,0,,,72,127
89905,note_off,113,0,0,,0,,,72,127
89906,note_on,1,0,0,,7,,,67,127
90019,note_off,113,0,0,,7,,,67,127
90020,note_on,1,0,0,,4,,,64,127
90133,note_off,113,0,0,,4,,,64,127
90134,note_on,1,0,0,,0,,,60,127
90247,note_off,113,0,0,,0,,,60,127
90248,note_on,1,0,0,,4,,,76,127
90248,note_on,0,0,0,,0,,,72,127
90361,note_off,113,0,0,,0,,,72,127
90361,note_off,0,0,0,,4,,,76,127
90361,note_off,0,0,0,,0,,,36,127
90361,note_off,0,0,0,,0,,,48,127
90362,note_on,1,0,0,,7,,,67,127
90362,note_on,0,0,0,,2,,,74,127
90362,note_on,0,0,0,,12,,,71,127
90475,note_off,113,0,0,,7,,,67,127
90476,note_on,1,0,0,,2,,,62,127
90589,note_off,113,0,0,,2,,,62,127
90590,note_on,1,0,0,,12,,,59,127
90703,note_off,113,0,0,,12,,,59,127
90704,note_on,1,0,0,,7,,,55,127
90817,note_off,113,0,0,,7,,,55,127
90818,note_on,1,0,0,,2,,,50,127
90931,note_off,113,0,0,,2,,,50,127
90932,note_on,1,0,0,,12,,,47,127
91045,note_off,113,0,0,,12,,,47,127
91046,note_on,1,0,0,,7,,,43,127
91159,note_off,113,0,0,,7,,,43,127
91160,note_on,1,0,0,,2,,,50,127
91273,note_off,113,0,0,,2,,,50,127
91274,note_on,1,0,0,,12,,,47,127
91387,note_off,113,0,0,,12,,,47,127
91388,note_on,1,0,0,,0,,,36,127
91501,note_off,113,0,0,,12,,,71,127
91501,note_off,0,0,0,,2,,,74,127
91502,note_on,1,0,0,,12,,,71,127
91615,note_off,113,0,0,,12,,,71,127
91616,note_on,1,0,0,,0,,,72,127
91729,note_off,113,0,0,,0,,,72,127
91730,note_on,1,0,0,,7,,,67,127
91843,note_off,113,0,0,,7,,,67,127
91844,note_on,1,0,0,,6,,,78,127
91957,note_off,113,0,0,,6,,,78,127
91958,note_on,1,0,0,,7,,,79,127
92071,note_off,113,0,0,,7,,,79,127
92071,note_off,0,0,0,,0,,,36,127
92072,note_on,1,0,0,,4,,,52,127
92072,note_on,0,0,0,,7,,,67,127
92185,note_off,113,0,0,,7,,,67,127
92186,note_on,1,0,0,,8,,,80,127
92299,note_off,113,0,0,,8,,,80,127
92300,note_on,1,0,0,,10,,,81,127
92413,note_off,113,0,0,,10,,,81,127
92413,note_off,0,0,0,,4,,,52,127
92414,note_on,1,0,0,,5,,,53,127
92414,note_on,0,0,0,,10,,,69,127
92527,note_off,113,0,0,,10,,,69,127
92528,note_on,1,0,0,,5,,,77,127
92641,note_off,113,0,0,,5,,,77,127
92642,note_on,1,0,0,,2,,,74,127
92755,note_off,113,0,0,,2,,,74,127
92755,note_off,0,0,0,,5,,,53,127
92756,note_on,1,0,0,,7,,,55,127
92756,note_on,0,0,0,,0,,,72,127
92883,note_off,127,0,0,,0,,,72,127
92884,note_on,1,0,0,,2,,,74,127
92926,note_off,42,0,0,,2,,,74,127
92927,note_on,1,0,0,,0,,,72,127
92969,note_off,42,0,0,,0,,,72,127
92970,note_on,1,0,0,,12,,,71,127
93012,note_off,42,0,0,,12,,,71,127
93013,note_on,1,0,0,,0,,,72,127
93055,note_off,42,0,0,,0,,,72,127
93056,note_on,1,0,0,,2,,,74,127
93098,note_off,42,0,0,,2,,,74,127
93099,note_on,1,0,0,,7,,,43,127
93099,note_on,0,0,0,,4,,,76,127
93141,note_off,42,0,0,,4,,,76,127
93142,note_on,1,0,0,,2,,,74,127
93184,note_off,42,0,0,,2,,,74,127
93185,note_on,1,0,0,,4,,,76,127
93227,note_off,42,0,0,,4,,,76,127
93228,note_on,1,0,0,,2,,,74,127
93270,note_off,42,0,0,,2,,,74,127
93271,note_on,1,0,0,,4,,,76,127
93313,note_off,42,0,0,,4,,,76,127
93314,note_on,1,0,0,,2,,,74,127
93356,note_off,42,0,0,,2,,,74,127
93357,note_on,1,0,0,,0,,,72,127
93399,note_off,42,0,0,,0,,,72,127
93400,note_on,1,0,0,,2,,,74,127
93442,note_off,42,0,0,,2,,,74,127
93442,note_off,0,0,0,,7,,,43,127
93442,note_off,0,0,0,,7,,,55,127
93443,note_on,1,0,0,,0,,,48,127
93443,note_on,0,0,0,,0,,,72,127
93556,note_off,113,0,0,,0,,,72,127
93557,note_on,1,0,0,,0,,,84,127
93670,note_off,113,0,0,,0,,,84,127
93671,note_on,1,0,0,,7,,,79,127
93784,note_off,113,0,0,,7,,,79,127
93785,note_on,1,0,0,,4,,,76,127
93898,note_off,113,0,0,,4,,,76,127
93899,note_on,1,0,0,,0,,,72,127
94012,note_off,113,0,0,,0,,,72,127
94013,note_on,1,0,0,,7,,,67,127
94126,note_off,113,0,0,,7,,,67,127
94127,note_on,1,0,0,,4,,,64,127
94240,note_off,113,0,0,,4,,,64,127
94241,note_on,1,0,0,,0,,,60,127
94354,note_off,113,0,0,,0,,,60,127
94355,note_on,1,0,0,,4,,,76,127
94355,note_on,0,0,0,,0,,,72,127
94468,note_off,113,0,0,,0,,,72,127
94468,note_off,0,0,0,,4,,,76,127
94468,note_off,0,0,0,,0,,,48,127
94469,note_on,1,0,0,,7,,,67,127
94469,note_on,0,0,0,,2,,,74,127
94469,note_on,0,0,0,,12,,,71,127
94582,note_off,113,0,0,,7,,,67,127
94583,note_on,1,0,0,,2,,,62,127
94696,note_off,113,0,0,,2,,,62,127
94697,note_on,1,0,0,,12,,,59,127
94810,note_off,113,0,0,,12,,,59,127
94811,note_on,1,0,0,,7,,,55,127
94924,note_off,113,0,0,,7,,,55,127
94925,note_on,1,0,0,,2,,,50,127
95038,note_off,113,0,0,,2,,,50,127
95039,note_on,1,0,0,,12,,,47,127
95152,note_off,113,0,0,,12,,,47,127
95153,note_on,1,0,0,,7,,,43,127
95266,note_off,113,0,0,,7,,,43,127
95267,note_on,1,0,0,,2,,,50,127
95380,note_off,113,0,0,,2,,,50,127
95381,note_on,1,0,0,,12,,,47,127
95494,note_off,113,0,0,,12,,,47,127
95495,note_on,1,0,0,,0,,,36,127
95495,note_on,0,0,0,,0,,,48,127
95608,note_off,113,0,0,,12,,,71,127
95608,note_off,0,0,0,,2,,,74,127
95609,note_on,1,0,0,,0,,,84,127
95722,note_off,113,0,0,,0,,,84,127
95723,note_on,1,0,0,,7,,,79,127
95836,note_off,113,0,0,,7,,,79,127
95837,note_on,1,0,0,,4,,,76,127
95950,note_off,113,0,0,,4,,,76,127
95951,note_on,1,0,0,,0,,,72,127
96064,note_off,113,0,0,,0,,,72,127
96065,note_on,1,0,0,,7,,,67,127
96178,note_off,113,0,0,,7,,,67,127
96179,note_on,1,0,0,,4,,,64,127
96292,note_off,113,0,0,,4,,,64,127
96293,note_on,1,0,0,,0,,,60,127
96406,note_off,113,0,0,,0,,,60,127
96407,note_on,1,0,0,,0,,,72,127
96407,note_on,0,0,0,,4,,,76,127
96520,note_off,113,0,0,,4,,,76,127
96520,note_off,0,0,0,,0,,,72,127
96520,note_off,0,0,0,,0,,,48,127
96520,note_off,0,0,0,,0,,,36,127
96521,note_on,1,0,0,,7,,,67,127
96521,note_on,0,0,0,,2,,,74,127
96521,note_on,0,0,0,,12,,,71,127
96634,note_off,113,0,0,,7,,,67,127
96635,note_on,1,0,0,,2,,,62,127
96748,note_off,113,0,0,,2,,,62,127
96749,note_on,1,0,0,,12,,,59,127
96862,note_off,113,0,0,,12,,,59,127
96863,note_on,1,0,0,,7,,,55,127
96976,note_off,113,0,0,,7,,,55,127
96977,note_on,1,0,0,,2,,,50,127
97090,note_off,113,0,0,,2,,,50,127
97091,note_on,1,0,0,,12,,,47,127
97204,note_off,113,0,0,,12,,,47,127
97205,note_on,1,0,0,,7,,,43,127
97318,note_off,113,0,0,,7,,,43,127
97319,note_on,1,0,0,,2,,,50,127
97432,note_off,113,0,0,,2,,,50,127
97433,note_on,1,0,0,,12,,,47,127
97546,note_off,113,0,0,,12,,,47,127
97547,note_on,1,0,0,,0,,,36,127
97660,note_off,113,0,0,,12,,,71,127
97660,note_off,0,0,0,,2,,,74,127
97661,note_on,1,0,0,,12,,,71,127
97774,note_off,113,0,0,,12,,,71,127
97775,note_on,1,0,0,,0,,,72,127
97888,note_off,113,0,0,,0,,,72,127
97889,note_on,1,0,0,,7,,,67,127
98002,note_off,113,0,0,,7,,,67,127
98003,note_on,1,0,0,,6,,,78,127
98116,note_off,113,0,0,,6,,,78,127
98117,note_on,1,0,0,,7,,,79,127
98230,note_off,113,0,0,,7,,,79,127
98230,note_off,0,0,0,,0,,,36,127
98231,note_on,1,0,0,,4,,,52,127
98231,note_on,0,0,0,,7,,,67,127
98344,note_off,113,0,0,,7,,,67,127
98345,note_on,1,0,0,,8,,,80,127
98458,note_off,113,0,0,,8,,,80,127
98459,note_on,1,0,0,,10,,,81,127
98572,note_off,113,0,0,,10,,,81,127
98572,note_off,0,0,0,,4,,,52,127
98573,note_on,1,0,0,,5,,,53,127
98573,note_on,0,0,0,,10,,,69,127
98686,note_off,113,0,0,,10,,,69,127
98687,note_on,1,0,0,,5,,,77,127
98800,note_off,113,0,0,,5,,,77,127
98801,note_on,1,0,0,,2,,,74,127
98914,note_off,113,0,0,,2,,,74,127
98914,note_off,0,0,0,,5,,,53,127
98915,note_on,1,0,0,,7,,,55,127
98915,note_on,0,0,0,,0,,,72,127
99042,note_off,127,0,0,,0,,,72,127
99043,note_on,1,0,0,,2,,,74,127
99085,note_off,42,0,0,,2,,,74,127
99086,note_on,1,0,0,,0,,,72,127
99128,note_off,42,0,0,,0,,,72,127
99129,note_on,1,0,0,,12,,,71,127
99171,note_off,42,0,0,,12,,,71,127
99172,note_on,1,0,0,,0,,,72,127
99214,note_off,42,0,0,,0,,,72,127
99215,note_on,1,0,0,,2,,,74,127
99257,note_off,42,0,0,,2,,,74,127
99258,note_on,1,0,0,,7,,,43,127
99258,note_on,0,0,0,,4,,,76,127
99300,note_off,42,0,0,,4,,,76,127
99301,note_on,1,0,0,,2,,,74,127
99343,note_off,42,0,0,,2,,,74,127
99344,note_on,1,0,0,,4,,,76,127
99386,note_off,42,0,0,,4,,,76,127
99387,note_on,1,0,0,,2,,,74,127
99429,note_off,42,0,0,,2,,,74,127
99430,note_on,1,0,0,,4,,,76,127
99472,note_off,42,0,0,,4,,,76,127
99473,note_on,1,0,0,,2,,,74,127
99515,note_off,42,0,0,,2,,,74,127
99516,note_on,1,0,0,,0,,,72,127
99558,note_off,42,0,0,,0,,,72,127
99559,note_on,1,0,0,,2,,,74,127
99601,note_off,42,0,0,,2,,,74,127
99601,note_off,0,0,0,,7,,,43,127
99601,note_off,0,0,0,,7,,,55,127
99602,note_on,1,0,0,,0,,,36,127
99602,note_on,0,0,0,,0,,,72,127
99942,note_off,340,0,0,,0,,,72,127
99943,note_on,1,0,0,,0,,,84,127
99999,note_off,56,0,0,,0,,,84,127
100000,note_on,1,0,0,,12,,,83,127
100056,note_off,56,0,0,,12,,,83,127
100057,note_on,1,0,0,,10,,,81,127
100113,note_off,56,0,0,,10,,,81,127
100114,note_on,1,0,0,,7,,,79,127
100170,note_off,56,0,0,,7,,,79,127
100171,note_on,1,0,0,,5,,,77,127
100227,note_off,56,0,0,,5,,,77,127
100228,note_on,1,0,0,,4,,,76,127
100284,note_off,56,0,0,,4,,,76,127
100285,note_on,1,0,0,,2,,,74,127
100341,note_off,56,0,0,,2,,,74,127
100342,note_on,1,0,0,,0,,,72,127
100398,note_off,56,0,0,,0,,,72,127
100399,note_on,1,0,0,,12,,,71,127
100455,note_off,56,0,0,,12,,,71,127
100456,note_on,1,0,0,,10,,,69,127
100512,note_off,56,0,0,,10,,,69,127
100513,note_on,1,0,0,,7,,,67,127
100569,note_off,56,0,0,,7,,,67,127
100570,note_on,1,0,0,,5,,,65,127
100626,note_off,56,0,0,,5,,,65,127
100626,note_off,0,0,0,,0,,,36,127
100627,note_on,1,0,0,,0,,,48,127
100627,note_on,0,0,0,,4,,,64,127
100683,note_off,56,0,0,,4,,,64,127
100684,note_on,1,0,0,,2,,,62,127
100740,note_off,56,0,0,,2,,,62,127
100741,note_on,1,0,0,,0,,,60,127
100797,note_off,56,0,0,,0,,,60,127
100798,note_on,1,0,0,,12,,,59,127
100854,note_off,56,0,0,,12,,,59,127
100855,note_on,1,0,0,,10,,,57,127
100911,note_off,56,0,0,,10,,,57,127
100912,note_on,1,0,0,,7,,,55,127
100968,note_off,56,0,0,,7,,,55,127
100968,note_off,0,0,0,,0,,,48,127
100969,note_on,1,0,0,,7,,,55,127
100969,note_on,0,0,0,,4,,,64,127
101011,note_off,42,0,0,,4,,,64,127
101012,note_on,1,0,0,,2,,,62,127
101054,note_off,42,0,0,,2,,,62,127
101055,note_on,1,0,0,,4,,,64,127
101097,note_off,42,0,0,,4,,,64,127
101098,note_on,1,0,0,,2,,,62,127
101140,note_off,42,0,0,,2,,,62,127
101141,note_on,1,0,0,,4,,,64,127
101183,note_off,42,0,0,,4,,,64,127
101184,note_on,1,0,0,,2,,,62,127
101226,note_off,42,0,0,,2,,,62,127
101227,note_on,1,0,0,,4,,,64,127
101269,note_off,42,0,0,,4,,,64,127
101270,note_on,1,0,0,,2,,,62,127
101312,note_off,42,0,0,,2,,,62,127
101313,note_on,1,0,0,,7,,,43,127
101313,note_on,0,0,0,,4,,,64,127
101355,note_off,42,0,0,,4,,,64,127
101356,note_on,1,0,0,,2,,,62,127
101398,note_off,42,0,0,,2,,,62,127
101399,note_on,1,0,0,,4,,,64,127
101441,note_off,42,0,0,,4,,,64,127
101442,note_on,1,0,0,,2,,,62,127
101484,note_off,42,0,0,,2,,,62,127
101485,note_on,1,0,0,,4,,,64,127
101527,note_off,42,0,0,,4,,,64,127
101528,note_on,1,0,0,,2,,,62,127
101570,note_off,42,0,0,,2,,,62,127
101571,note_on,1,0,0,,0,,,60,127
101613,note_off,42,0,0,,0,,,60,127
101614,note_on,1,0,0,,2,,,62,127
101656,note_off,42,0,0,,2,,,62,127
101656,note_off,0,0,0,,7,,,43,127
101656,note_off,0,0,0,,7,,,55,127
101657,note_on,1,0,0,,0,,,48,127
101657,note_on,0,0,0,,0,,,60,127
101997,note_off,340,0,0,,0,,,60,127
102012,note_on,15,0,0,,0,,,84,127
102053,note_on,41,0,0,,12,,,83,127
102068,note_off,15,0,0,,0,,,84,127
102094,note_on,26,0,0,,10,,,81,127
102109,note_off,15,0,0,,12,,,83,127
102135,note_on,26,0,0,,7,,,79,127
102150,note_off,15,0,0,,10,,,81,127
102178,note_on,28,0,0,,5,,,77,127
102190,note_off,12,0,0,,7,,,79,127
102219,note_on,29,0,0,,4,,,76,127
102233,note_off,14,0,0,,5,,,77,127
102260,note_on,27,0,0,,2,,,74,127
102275,note_off,15,0,0,,4,,,76,127
102302,note_on,27,0,0,,0,,,72,127
102316,note_off,14,0,0,,2,,,74,127
102344,note_on,28,0,0,,12,,,71,127
102357,note_off,13,0,0,,0,,,72,127
102385,note_on,28,0,0,,10,,,69,127
102399,note_off,14,0,0,,12,,,71,127
102427,note_on,28,0,0,,7,,,67,127
102441,note_off,14,0,0,,10,,,69,127
102445,note_off,4,0,0,,0,,,48,127
102467,note_on,22,0,0,,5,,,65,127
102482,note_off,15,0,0,,7,,,67,127
102510,note_on,28,0,0,,4,,,64,127
102510,note_on,0,0,0,,0,,,48,127
102523,note_off,13,0,0,,5,,,65,127
102551,note_on,28,0,0,,2,,,62,127
102565,note_off,14,0,0,,4,,,64,127
102593,note_on,28,0,0,,0,,,60,127
102607,note_off,14,0,0,,2,,,62,127
102635,note_on,28,0,0,,12,,,59,127
102649,note_off,14,0,0,,0,,,60,127
102677,note_on,28,0,0,,10,,,57,127
102691,note_off,14,0,0,,12,,,59,127
102719,note_on,28,0,0,,7,,,55,127
102733,note_off,14,0,0,,10,,,57,127
102777,note_on,44,0,0,,4,,,64,127
102834,note_off,57,0,0,,4,,,64,127
102834,note_on,0,0,0,,2,,,62,127
102850,note_off,16,0,0,,0,,,48,127
102891,note_off,41,0,0,,2,,,62,127
102891,note_on,0,0,0,,4,,,64,127
102948,note_off,57,0,0,,4,,,64,127
102948,note_on,0,0,0,,2,,,62,127
103005,note_off,57,0,0,,2,,,62,127
103005,note_on,0,0,0,,4,,,64,127
103062,note_off,57,0,0,,4,,,64,127
103062,note_on,0,0,0,,2,,,62,127
103119,note_off,57,0,0,,2,,,62,127
103119,note_on,0,0,0,,7,,,43,127
103119,note_on,0,0,0,,4,,,64,127
103161,note_off,42,0,0,,4,,,64,127
103162,note_on,1,0,0,,2,,,62,127
103204,note_off,42,0,0,,2,,,62,127
103205,note_on,1,0,0,,4,,,64,127
103247,note_off,42,0,0,,4,,,64,127
103248,note_on,1,0,0,,2,,,62,127
103290,note_off,42,0,0,,2,,,62,127
103291,note_on,1,0,0,,4,,,64,127
103333,note_off,42,0,0,,4,,,64,127
103334,note_on,1,0,0,,2,,,62,127
103376,note_off,42,0,0,,2,,,62,127
103377,note_on,1,0,0,,0,,,60,127
103403,note_off,26,0,0,,7,,,55,127
103419,note_off,16,0,0,,0,,,60,127
103420,note_on,1,0,0,,2,,,62,127
103462,note_off,42,0,0,,2,,,62,127
103462,note_off,0,0,0,,7,,,43,127
103463,note_on,1,0,0,,0,,,48,127
103463,note_on,0,0,0,,0,,,36,127
103463,note_on,0,0,0,,0,,,60,127
105340,note_off,1877,0,0,,0,,,60,127
105340,note_off,0,0,0,,0,,,36,127
105340,note_off,0,0,0,,0,,,48,127
109056,end_of_track,3716,1,0,,,,,,
