tick,type,time,meta,track,program,channel,pitch,tempo,note,velocity
0,copyright,0,1,0,,,,,,
0,program_change,0,0,0,6,0,,,,
0,pitchwheel,0,0,0,,0,0,,,
0,program_change,0,0,0,6,1,,,,
0,pitchwheel,0,0,0,,1,-590,,,
0,program_change,0,0,0,6,2,,,,
0,pitchwheel,0,0,0,,2,-272,,,
0,program_change,0,0,0,6,3,,,,
0,pitchwheel,0,0,0,,3,-353,,,
0,program_change,0,0,0,6,4,,,,
0,pitchwheel,0,0,0,,4,-560,,,
0,program_change,0,0,0,6,5,,,,
0,pitchwheel,0,0,0,,5,-80,,,
0,program_change,0,0,0,6,6,,,,
0,pitchwheel,0,0,0,,6,-625,,,
0,program_change,0,0,0,6,7,,,,
0,pitchwheel,0,0,0,,7,-130,,,
0,program_change,0,0,0,6,8,,,,
0,pitchwheel,0,0,0,,8,-512,,,
0,program_change,0,0,0,6,10,,,,
0,pitchwheel,0,0,0,,10,-464,,,
0,program_change,0,0,0,6,11,,,,
0,pitchwheel,0,0,0,,11,-208,,,
0,program_change,0,0,0,6,12,,,,
0,pitchwheel,0,0,0,,12,-553,,,
0,set_tempo,0,1,0,,,,500000,,
128,note_on,128,0,0,,8,,,80,127
128,note_on,0,0,0,,0,,,60,127
191,note_off,63,0,0,,8,,,80,127
192,note_on,1,0,0,,7,,,79,127
255,note_off,63,0,0,,7,,,79,127
256,note_on,1,0,0,,8,,,80,127
319,note_off,63,0,0,,8,,,80,127
320,note_on,1,0,0,,7,,,79,127
383,note_off,63,0,0,,7,,,79,127
384,note_on,1,0,0,,8,,,80,127
384,note_on,0,0,0,,0,,,72,127
447,note_off,63,0,0,,8,,,80,127
448,note_on,1,0,0,,7,,,79,127
511,note_off,63,0,0,,7,,,79,127
512,note_on,1,0,0,,5,,,77,127
575,note_off,63,0,0,,5,,,77,127
576,note_on,1,0,0,,7,,,79,127
639,note_off,63,0,0,,7,,,79,127
640,note_on,1,0,0,,8,,,80,127
895,note_off,255,0,0,,8,,,80,127
895,note_off,0,0,0,,0,,,60,127
896,note_on,1,0,0,,8,,,80,127
896,note_on,0,0,0,,0,,,60,127
959,note_off,63,0,0,,8,,,80,127
960,note_on,1,0,0,,7,,,79,127
1023,note_off,63,0,0,,7,,,79,127
1024,note_on,1,0,0,,8,,,80,127
1087,note_off,63,0,0,,8,,,80,127
1088,note_on,1,0,0,,7,,,79,127
1151,note_off,63,0,0,,7,,,79,127
1151,note_off,0,0,0,,0,,,72,127
1152,note_on,1,0,0,,8,,,80,127
1152,note_on,0,0,0,,0,,,72,127
1215,note_off,63,0,0,,8,,,80,127
1216,note_on,1,0,0,,7,,,79,127
1279,note_off,63,0,0,,7,,,79,127
1280,note_on,1,0,0,,5,,,77,127
1343,note_off,63,0,0,,5,,,77,127
1344,note_on,1,0,0,,7,,,79,127
1407,note_off,63,0,0,,7,,,79,127
1408,note_on,1,0,0,,8,,,80,127
1663,note_off,255,0,0,,8,,,80,127
1663,note_off,0,0,0,,0,,,60,127
1664,note_on,1,0,0,,7,,,79,127
1664,note_on,0,0,0,,0,,,60,127
1919,note_off,255,0,0,,7,,,79,127
1919,note_off,0,0,0,,0,,,72,127
1920,note_on,1,0,0,,5,,,77,127
1920,note_on,0,0,0,,0,,,72,127
2047,note_off,127,0,0,,5,,,77,127
2048,note_on,1,0,0,,3,,,75,127
2175,note_off,127,0,0,,3,,,75,127
2175,note_off,0,0,0,,0,,,72,127
2175,note_off,0,0,0,,0,,,60,127
2176,note_on,1,0,0,,2,,,74,127
2176,note_on,0,0,0,,8,,,68,127
2303,note_off,127,0,0,,2,,,74,127
2304,note_on,1,0,0,,0,,,72,127
2431,note_off,127,0,0,,0,,,72,127
2431,note_off,0,0,0,,8,,,68,127
2432,note_on,1,0,0,,12,,,71,127
2432,note_on,0,0,0,,8,,,68,127
2495,note_off,63,0,0,,8,,,68,127
2496,note_on,1,0,0,,7,,,67,127
2559,note_off,63,0,0,,7,,,67,127
2560,note_on,1,0,0,,8,,,68,127
2623,note_off,63,0,0,,8,,,68,127
2624,note_on,1,0,0,,7,,,67,127
2687,note_off,63,0,0,,7,,,67,127
2687,note_off,0,0,0,,12,,,71,127
2688,note_on,1,0,0,,2,,,74,127
2688,note_on,0,0,0,,8,,,68,127
2751,note_off,63,0,0,,8,,,68,127
2752,note_on,1,0,0,,7,,,67,127
2815,note_off,63,0,0,,7,,,67,127
2816,note_on,1,0,0,,5,,,65,127
2879,note_off,63,0,0,,5,,,65,127
2880,note_on,1,0,0,,7,,,67,127
2943,note_off,63,0,0,,7,,,67,127
2943,note_off,0,0,0,,2,,,74,127
2944,note_on,1,0,0,,0,,,72,127
2944,note_on,0,0,0,,8,,,68,127
3199,note_off,255,0,0,,8,,,68,127
3199,note_off,0,0,0,,0,,,72,127
3200,note_on,1,0,0,,12,,,71,127
3200,note_on,0,0,0,,8,,,68,127
3263,note_off,63,0,0,,8,,,68,127
3264,note_on,1,0,0,,7,,,67,127
3327,note_off,63,0,0,,7,,,67,127
3328,note_on,1,0,0,,8,,,68,127
3391,note_off,63,0,0,,8,,,68,127
3392,note_on,1,0,0,,7,,,67,127
3455,note_off,63,0,0,,7,,,67,127
3455,note_off,0,0,0,,12,,,71,127
3456,note_on,1,0,0,,2,,,74,127
3456,note_on,0,0,0,,8,,,68,127
3519,note_off,63,0,0,,8,,,68,127
3520,note_on,1,0,0,,7,,,67,127
3583,note_off,63,0,0,,7,,,67,127
3584,note_on,1,0,0,,5,,,65,127
3647,note_off,63,0,0,,5,,,65,127
3648,note_on,1,0,0,,7,,,67,127
3711,note_off,63,0,0,,7,,,67,127
3711,note_off,0,0,0,,2,,,74,127
3712,note_on,1,0,0,,0,,,72,127
3712,note_on,0,0,0,,8,,,68,127
3967,note_off,255,0,0,,8,,,68,127
3967,note_off,0,0,0,,0,,,72,127
3968,note_on,1,0,0,,12,,,71,127
3968,note_on,0,0,0,,7,,,67,127
4095,note_off,127,0,0,,7,,,67,127
4096,note_on,1,0,0,,5,,,65,127
4223,note_off,127,0,0,,5,,,65,127
4223,note_off,0,0,0,,12,,,71,127
4224,note_on,1,0,0,,0,,,72,127
4224,note_on,0,0,0,,3,,,63,127
4351,note_off,127,0,0,,3,,,63,127
4352,note_on,1,0,0,,2,,,62,127
4479,note_off,127,0,0,,2,,,62,127
4479,note_off,0,0,0,,0,,,72,127
4480,note_on,1,0,0,,2,,,74,127
4480,note_on,0,0,0,,0,,,60,127
4607,note_off,127,0,0,,0,,,60,127
4608,note_on,1,0,0,,12,,,59,127
4735,note_off,127,0,0,,12,,,59,127
4735,note_off,0,0,0,,2,,,74,127
4736,note_on,1,0,0,,3,,,75,127
4736,note_on,0,0,0,,0,,,60,127
4863,note_off,127,0,0,,0,,,60,127
4864,note_on,1,0,0,,11,,,58,127
4991,note_off,127,0,0,,11,,,58,127
4991,note_off,0,0,0,,3,,,75,127
4992,note_on,1,0,0,,5,,,77,127
4992,note_on,0,0,0,,8,,,56,127
5119,note_off,127,0,0,,8,,,56,127
5120,note_on,1,0,0,,7,,,55,127
5247,note_off,127,0,0,,7,,,55,127
5247,note_off,0,0,0,,5,,,77,127
5248,note_on,1,0,0,,7,,,79,127
5248,note_on,0,0,0,,5,,,53,127
5375,note_off,127,0,0,,5,,,53,127
5376,note_on,1,0,0,,4,,,52,127
5503,note_off,127,0,0,,4,,,52,127
5503,note_off,0,0,0,,7,,,79,127
5504,note_on,1,0,0,,11,,,82,127
5504,note_on,0,0,0,,5,,,53,127
5631,note_off,127,0,0,,11,,,82,127
5632,note_on,1,0,0,,8,,,80,127
5759,note_off,127,0,0,,8,,,80,127
5759,note_off,0,0,0,,5,,,53,127
5760,note_on,1,0,0,,7,,,79,127
5760,note_on,0,0,0,,7,,,55,127
5887,note_off,127,0,0,,7,,,79,127
5888,note_on,1,0,0,,5,,,77,127
6015,note_off,127,0,0,,5,,,77,127
6016,note_on,1,0,0,,3,,,75,127
6016,note_on,0,0,0,,7,,,43,127
6143,note_off,127,0,0,,3,,,75,127
6144,note_on,1,0,0,,2,,,74,127
6271,note_off,127,0,0,,2,,,74,127
6271,note_off,0,0,0,,7,,,43,127
6271,note_off,0,0,0,,7,,,55,127
6272,note_on,1,0,0,,5,,,77,127
6272,note_on,0,0,0,,0,,,48,127
6335,note_off,63,0,0,,5,,,77,127
6336,note_on,1,0,0,,3,,,75,127
6399,note_off,63,0,0,,3,,,75,127
6400,note_on,1,0,0,,5,,,77,127
6463,note_off,63,0,0,,5,,,77,127
6464,note_on,1,0,0,,3,,,75,127
6527,note_off,63,0,0,,3,,,75,127
6528,note_on,1,0,0,,5,,,77,127
6528,note_on,0,0,0,,0,,,36,127
6591,note_off,63,0,0,,5,,,77,127
6592,note_on,1,0,0,,3,,,75,127
6655,note_off,63,0,0,,3,,,75,127
6656,note_on,1,0,0,,2,,,74,127
6783,note_off,127,0,0,,2,,,74,127
6783,note_off,0,0,0,,0,,,48,127
6784,note_on,1,0,0,,0,,,72,127
7039,note_off,255,0,0,,0,,,72,127
7039,note_off,0,0,0,,0,,,36,127
7040,note_on,1,0,0,,3,,,75,127
7551,note_off,511,0,0,,3,,,75,127
7552,note_on,1,0,0,,5,,,77,127
7807,note_off,255,0,0,,5,,,77,127
7808,note_on,1,0,0,,5,,,77,127
7808,note_on,0,0,0,,0,,,72,127
7871,note_off,63,0,0,,5,,,77,127
7872,note_on,1,0,0,,3,,,75,127
7935,note_off,63,0,0,,3,,,75,127
7936,note_on,1,0,0,,5,,,77,127
7999,note_off,63,0,0,,5,,,77,127
8000,note_on,1,0,0,,3,,,75,127
8063,note_off,63,0,0,,3,,,75,127
8063,note_off,0,0,0,,0,,,72,127
8064,note_on,1,0,0,,5,,,77,127
8064,note_on,0,0,0,,11,,,70,127
8127,note_off,63,0,0,,5,,,77,127
8128,note_on,1,0,0,,3,,,75,127
8191,note_off,63,0,0,,3,,,75,127
8192,note_on,1,0,0,,2,,,74,127
8255,note_off,63,0,0,,2,,,74,127
8256,note_on,1,0,0,,3,,,75,127
8319,note_off,63,0,0,,3,,,75,127
8319,note_off,0,0,0,,11,,,70,127
8320,note_on,1,0,0,,5,,,77,127
8320,note_on,0,0,0,,8,,,68,127
8575,note_off,255,0,0,,8,,,68,127
8575,note_off,0,0,0,,5,,,77,127
8576,note_on,1,0,0,,5,,,77,127
8576,note_on,0,0,0,,7,,,67,127
8639,note_off,63,0,0,,5,,,77,127
8640,note_on,1,0,0,,3,,,75,127
8703,note_off,63,0,0,,3,,,75,127
8704,note_on,1,0,0,,5,,,77,127
8767,note_off,63,0,0,,5,,,77,127
8768,note_on,1,0,0,,3,,,75,127
8831,note_off,63,0,0,,3,,,75,127
8832,note_on,1,0,0,,5,,,77,127
8832,note_on,0,0,0,,11,,,70,127
8895,note_off,63,0,0,,5,,,77,127
8896,note_on,1,0,0,,3,,,75,127
8959,note_off,63,0,0,,3,,,75,127
8960,note_on,1,0,0,,2,,,74,127
9023,note_off,63,0,0,,2,,,74,127
9024,note_on,1,0,0,,3,,,75,127
9087,note_off,63,0,0,,3,,,75,127
9087,note_off,0,0,0,,11,,,70,127
9087,note_off,0,0,0,,7,,,67,127
9088,note_on,1,0,0,,5,,,77,127
9088,note_on,0,0,0,,0,,,72,127
9088,note_on,0,0,0,,8,,,68,127
9343,note_off,255,0,0,,8,,,68,127
9343,note_off,0,0,0,,0,,,72,127
9344,note_on,1,0,0,,7,,,67,127
9344,note_on,0,0,0,,11,,,70,127
9599,note_off,255,0,0,,5,,,77,127
9600,note_on,1,0,0,,4,,,76,127
9855,note_off,255,0,0,,4,,,76,127
9855,note_off,0,0,0,,7,,,67,127
9856,note_on,1,0,0,,5,,,77,127
9856,note_on,0,0,0,,1,,,73,127
9856,note_on,0,0,0,,5,,,65,127
10111,note_off,255,0,0,,5,,,65,127
10111,note_off,0,0,0,,1,,,73,127
10111,note_off,0,0,0,,5,,,77,127
10112,note_on,1,0,0,,7,,,79,127
10112,note_on,0,0,0,,4,,,64,127
10367,note_off,255,0,0,,7,,,79,127
10367,note_off,0,0,0,,11,,,70,127
10368,note_on,1,0,0,,0,,,72,127
10623,note_off,255,0,0,,0,,,72,127
10623,note_off,0,0,0,,4,,,64,127
10624,note_on,1,0,0,,11,,,70,127
10624,note_on,0,0,0,,4,,,76,127
10624,note_on,0,0,0,,0,,,60,127
10879,note_off,255,0,0,,0,,,60,127
10879,note_off,0,0,0,,4,,,76,127
10879,note_off,0,0,0,,11,,,70,127
10880,note_on,1,0,0,,5,,,77,127
10880,note_on,0,0,0,,5,,,65,127
11135,note_off,255,0,0,,5,,,77,127
11136,note_on,1,0,0,,8,,,68,127
11136,note_on,0,0,0,,5,,,53,127
11263,note_off,127,0,0,,8,,,68,127
11264,note_on,1,0,0,,7,,,67,127
11391,note_off,127,0,0,,7,,,67,127
11391,note_off,0,0,0,,5,,,65,127
11392,note_on,1,0,0,,5,,,65,127
11647,note_off,255,0,0,,5,,,65,127
11647,note_off,0,0,0,,5,,,53,127
11648,note_on,1,0,0,,7,,,79,127
11648,note_on,0,0,0,,8,,,68,127
11711,note_off,63,0,0,,7,,,79,127
11712,note_on,1,0,0,,5,,,77,127
11775,note_off,63,0,0,,5,,,77,127
11776,note_on,1,0,0,,7,,,79,127
11839,note_off,63,0,0,,7,,,79,127
11840,note_on,1,0,0,,5,,,77,127
11903,note_off,63,0,0,,5,,,77,127
11904,note_on,1,0,0,,7,,,79,127
11904,note_on,0,0,0,,0,,,72,127
11967,note_off,63,0,0,,7,,,79,127
11968,note_on,1,0,0,,5,,,77,127
12031,note_off,63,0,0,,5,,,77,127
12032,note_on,1,0,0,,4,,,76,127
12095,note_off,63,0,0,,4,,,76,127
12096,note_on,1,0,0,,5,,,77,127
12159,note_off,63,0,0,,5,,,77,127
12159,note_off,0,0,0,,0,,,72,127
12159,note_off,0,0,0,,8,,,68,127
12160,note_on,1,0,0,,7,,,79,127
12160,note_on,0,0,0,,1,,,73,127
12160,note_on,0,0,0,,11,,,70,127
12415,note_off,255,0,0,,11,,,70,127
12415,note_off,0,0,0,,1,,,73,127
12415,note_off,0,0,0,,7,,,79,127
12416,note_on,1,0,0,,7,,,79,127
12416,note_on,0,0,0,,8,,,68,127
12479,note_off,63,0,0,,7,,,79,127
12480,note_on,1,0,0,,5,,,77,127
12543,note_off,63,0,0,,5,,,77,127
12544,note_on,1,0,0,,7,,,79,127
12607,note_off,63,0,0,,7,,,79,127
12608,note_on,1,0,0,,5,,,77,127
12671,note_off,63,0,0,,5,,,77,127
12672,note_on,1,0,0,,7,,,79,127
12672,note_on,0,0,0,,0,,,72,127
12735,note_off,63,0,0,,7,,,79,127
12736,note_on,1,0,0,,5,,,77,127
12799,note_off,63,0,0,,5,,,77,127
12800,note_on,1,0,0,,4,,,76,127
12863,note_off,63,0,0,,4,,,76,127
12864,note_on,1,0,0,,5,,,77,127
12927,note_off,63,0,0,,5,,,77,127
12927,note_off,0,0,0,,0,,,72,127
12927,note_off,0,0,0,,8,,,68,127
12928,note_on,1,0,0,,7,,,79,127
12928,note_on,0,0,0,,11,,,70,127
12928,note_on,0,0,0,,1,,,73,127
13183,note_off,255,0,0,,1,,,73,127
13183,note_off,0,0,0,,11,,,70,127
13184,note_on,1,0,0,,0,,,72,127
13184,note_on,0,0,0,,8,,,68,127
13439,note_off,255,0,0,,7,,,79,127
13440,note_on,1,0,0,,5,,,77,127
13695,note_off,255,0,0,,5,,,77,127
13695,note_off,0,0,0,,8,,,68,127
13696,note_on,1,0,0,,3,,,75,127
13696,note_on,0,0,0,,7,,,79,127
13696,note_on,0,0,0,,7,,,67,127
13951,note_off,255,0,0,,7,,,67,127
13951,note_off,0,0,0,,7,,,79,127
13952,note_on,1,0,0,,10,,,81,127
13952,note_on,0,0,0,,6,,,66,127
14207,note_off,255,0,0,,3,,,75,127
14207,note_off,0,0,0,,0,,,72,127
14208,note_on,1,0,0,,2,,,74,127
14463,note_off,255,0,0,,2,,,74,127
14463,note_off,0,0,0,,6,,,66,127
14463,note_off,0,0,0,,10,,,81,127
14464,note_on,1,0,0,,0,,,72,127
14464,note_on,0,0,0,,6,,,78,127
14464,note_on,0,0,0,,2,,,62,127
14719,note_off,255,0,0,,2,,,62,127
14719,note_off,0,0,0,,6,,,78,127
14720,note_on,1,0,0,,7,,,79,127
14720,note_on,0,0,0,,7,,,55,127
14720,note_on,0,0,0,,7,,,67,127
14975,note_off,255,0,0,,7,,,67,127
14975,note_off,0,0,0,,7,,,55,127
14975,note_off,0,0,0,,0,,,72,127
14976,note_on,1,0,0,,12,,,71,127
14976,note_on,0,0,0,,5,,,65,127
15231,note_off,255,0,0,,5,,,65,127
15231,note_off,0,0,0,,12,,,71,127
15232,note_on,1,0,0,,0,,,72,127
15232,note_on,0,0,0,,3,,,63,127
15487,note_off,255,0,0,,3,,,63,127
15487,note_off,0,0,0,,0,,,72,127
15487,note_off,0,0,0,,7,,,79,127
15488,note_on,1,0,0,,2,,,74,127
15488,note_on,0,0,0,,2,,,62,127
15743,note_off,255,0,0,,2,,,62,127
15743,note_off,0,0,0,,2,,,74,127
15744,note_on,1,0,0,,5,,,77,127
15744,note_on,0,0,0,,0,,,60,127
15807,note_off,63,0,0,,5,,,77,127
15808,note_on,1,0,0,,3,,,75,127
15871,note_off,63,0,0,,3,,,75,127
15872,note_on,1,0,0,,5,,,77,127
15935,note_off,63,0,0,,5,,,77,127
15936,note_on,1,0,0,,3,,,75,127
15999,note_off,63,0,0,,3,,,75,127
16000,note_on,1,0,0,,5,,,77,127
16000,note_on,0,0,0,,0,,,48,127
16063,note_off,63,0,0,,5,,,77,127
16064,note_on,1,0,0,,3,,,75,127
16127,note_off,63,0,0,,3,,,75,127
16128,note_on,1,0,0,,2,,,74,127
16191,note_off,63,0,0,,2,,,74,127
16192,note_on,1,0,0,,3,,,75,127
16255,note_off,63,0,0,,3,,,75,127
16255,note_off,0,0,0,,0,,,48,127
16255,note_off,0,0,0,,0,,,60,127
16256,note_on,1,0,0,,2,,,74,127
16256,note_on,0,0,0,,7,,,55,127
16511,note_off,255,0,0,,7,,,55,127
16511,note_off,0,0,0,,2,,,74,127
16512,note_on,1,0,0,,12,,,71,127
16512,note_on,0,0,0,,8,,,80,127
16512,note_on,0,0,0,,5,,,53,127
16767,note_off,255,0,0,,5,,,53,127
16767,note_off,0,0,0,,8,,,80,127
16767,note_off,0,0,0,,12,,,71,127
16768,note_on,1,0,0,,7,,,79,127
16768,note_on,0,0,0,,0,,,72,127
16768,note_on,0,0,0,,3,,,51,127
17023,note_off,255,0,0,,3,,,51,127
17023,note_off,0,0,0,,0,,,72,127
17023,note_off,0,0,0,,7,,,79,127
17024,note_on,1,0,0,,2,,,74,127
17024,note_on,0,0,0,,5,,,77,127
17024,note_on,0,0,0,,2,,,50,127
17279,note_off,255,0,0,,2,,,50,127
17279,note_off,0,0,0,,2,,,74,127
17280,note_on,1,0,0,,0,,,48,127
17344,note_off,64,0,0,,5,,,77,127
17344,note_on,0,0,0,,3,,,75,127
17407,note_off,63,0,0,,3,,,75,127
17408,note_on,1,0,0,,5,,,77,127
17471,note_off,63,0,0,,5,,,77,127
17472,note_on,1,0,0,,3,,,75,127
17535,note_off,63,0,0,,3,,,75,127
17535,note_off,0,0,0,,0,,,48,127
17536,note_on,1,0,0,,5,,,77,127
17536,note_on,0,0,0,,6,,,54,127
17599,note_off,63,0,0,,5,,,77,127
17600,note_on,1,0,0,,3,,,75,127
17663,note_off,63,0,0,,3,,,75,127
17664,note_on,1,0,0,,2,,,74,127
17727,note_off,63,0,0,,2,,,74,127
17728,note_on,1,0,0,,3,,,75,127
17791,note_off,63,0,0,,3,,,75,127
17791,note_off,0,0,0,,6,,,54,127
17792,note_on,1,0,0,,3,,,75,127
17792,note_on,0,0,0,,7,,,55,127
18047,note_off,255,0,0,,3,,,75,127
18048,note_on,1,0,0,,2,,,74,127
18304,note_on,256,0,0,,7,,,43,127
18557,note_off,253,0,0,,7,,,43,127
18558,note_off,1,0,0,,2,,,74,127
18558,note_off,0,0,0,,7,,,55,127
18559,note_on,1,0,0,,3,,,63,127
18622,note_off,63,0,0,,3,,,63,127
18623,note_on,1,0,0,,2,,,62,127
18686,note_off,63,0,0,,2,,,62,127
18687,note_on,1,0,0,,3,,,63,127
18750,note_off,63,0,0,,3,,,63,127
18751,note_on,1,0,0,,2,,,62,127
18814,note_off,63,0,0,,2,,,62,127
18815,note_on,1,0,0,,12,,,71,127
18815,note_on,0,0,0,,8,,,80,127
18815,note_on,0,0,0,,3,,,63,127
18878,note_off,63,0,0,,3,,,63,127
18879,note_on,1,0,0,,2,,,62,127
18942,note_off,63,0,0,,2,,,62,127
18943,note_on,1,0,0,,0,,,60,127
19006,note_off,63,0,0,,0,,,60,127
19007,note_on,1,0,0,,2,,,62,127
19070,note_off,63,0,0,,2,,,62,127
19070,note_off,0,0,0,,8,,,80,127
19070,note_off,0,0,0,,12,,,71,127
19071,note_on,1,0,0,,0,,,72,127
19071,note_on,0,0,0,,7,,,79,127
19071,note_on,0,0,0,,3,,,63,127
19326,note_off,255,0,0,,3,,,63,127
19326,note_off,0,0,0,,7,,,79,127
19326,note_off,0,0,0,,0,,,72,127
19327,note_on,1,0,0,,0,,,60,127
19390,note_off,63,0,0,,0,,,60,127
19391,note_on,1,0,0,,12,,,59,127
19454,note_off,63,0,0,,12,,,59,127
19455,note_on,1,0,0,,0,,,60,127
19518,note_off,63,0,0,,0,,,60,127
19519,note_on,1,0,0,,12,,,59,127
19582,note_off,63,0,0,,12,,,59,127
19583,note_on,1,0,0,,7,,,67,127
19583,note_on,0,0,0,,5,,,77,127
19583,note_on,0,0,0,,0,,,60,127
19646,note_off,63,0,0,,0,,,60,127
19647,note_on,1,0,0,,12,,,59,127
19710,note_off,63,0,0,,12,,,59,127
19711,note_on,1,0,0,,10,,,57,127
19774,note_off,63,0,0,,10,,,57,127
19775,note_on,1,0,0,,12,,,59,127
19838,note_off,63,0,0,,12,,,59,127
19838,note_off,0,0,0,,5,,,77,127
19838,note_off,0,0,0,,7,,,67,127
19839,note_on,1,0,0,,3,,,75,127
19839,note_on,0,0,0,,7,,,67,127
19839,note_on,0,0,0,,0,,,60,127
20094,note_off,255,0,0,,0,,,60,127
20094,note_off,0,0,0,,7,,,67,127
20094,note_off,0,0,0,,3,,,75,127
20095,note_on,1,0,0,,11,,,58,127
20158,note_off,63,0,0,,11,,,58,127
20159,note_on,1,0,0,,10,,,57,127
20222,note_off,63,0,0,,10,,,57,127
20223,note_on,1,0,0,,11,,,58,127
20286,note_off,63,0,0,,11,,,58,127
20287,note_on,1,0,0,,10,,,57,127
20350,note_off,63,0,0,,10,,,57,127
20351,note_on,1,0,0,,5,,,65,127
20351,note_on,0,0,0,,3,,,75,127
20351,note_on,0,0,0,,11,,,58,127
20414,note_off,63,0,0,,11,,,58,127
20415,note_on,1,0,0,,10,,,57,127
20478,note_off,63,0,0,,10,,,57,127
20479,note_on,1,0,0,,7,,,55,127
20542,note_off,63,0,0,,7,,,55,127
20543,note_on,1,0,0,,10,,,57,127
20606,note_off,63,0,0,,10,,,57,127
20606,note_off,0,0,0,,3,,,75,127
20606,note_off,0,0,0,,5,,,65,127
20607,note_on,1,0,0,,2,,,74,127
20607,note_on,0,0,0,,5,,,65,127
20607,note_on,0,0,0,,11,,,58,127
20862,note_off,255,0,0,,11,,,58,127
20862,note_off,0,0,0,,5,,,65,127
20862,note_off,0,0,0,,2,,,74,127
20863,note_on,1,0,0,,10,,,57,127
20926,note_off,63,0,0,,10,,,57,127
20927,note_on,1,0,0,,7,,,55,127
20990,note_off,63,0,0,,7,,,55,127
20991,note_on,1,0,0,,10,,,57,127
21054,note_off,63,0,0,,10,,,57,127
21055,note_on,1,0,0,,7,,,55,127
21118,note_off,63,0,0,,7,,,55,127
21119,note_on,1,0,0,,2,,,74,127
21119,note_on,0,0,0,,3,,,63,127
21119,note_on,0,0,0,,10,,,57,127
21182,note_off,63,0,0,,10,,,57,127
21183,note_on,1,0,0,,7,,,55,127
21246,note_off,63,0,0,,7,,,55,127
21247,note_on,1,0,0,,6,,,54,127
21310,note_off,63,0,0,,6,,,54,127
21311,note_on,1,0,0,,7,,,55,127
21374,note_off,63,0,0,,7,,,55,127
21374,note_off,0,0,0,,3,,,63,127
21374,note_off,0,0,0,,2,,,74,127
21375,note_on,1,0,0,,0,,,72,127
21375,note_on,0,0,0,,3,,,63,127
21375,note_on,0,0,0,,10,,,57,127
21630,note_off,255,0,0,,10,,,57,127
21630,note_off,0,0,0,,3,,,63,127
21630,note_off,0,0,0,,0,,,72,127
21631,note_on,1,0,0,,7,,,55,127
21694,note_off,63,0,0,,7,,,55,127
21695,note_on,1,0,0,,6,,,54,127
21758,note_off,63,0,0,,6,,,54,127
21759,note_on,1,0,0,,7,,,55,127
21822,note_off,63,0,0,,7,,,55,127
21823,note_on,1,0,0,,6,,,54,127
21886,note_off,63,0,0,,6,,,54,127
21887,note_on,1,0,0,,2,,,62,127
21887,note_on,0,0,0,,0,,,72,127
21887,note_on,0,0,0,,7,,,55,127
21950,note_off,63,0,0,,7,,,55,127
21951,note_on,1,0,0,,6,,,54,127
22014,note_off,63,0,0,,6,,,54,127
22015,note_on,1,0,0,,4,,,52,127
22078,note_off,63,0,0,,4,,,52,127
22079,note_on,1,0,0,,6,,,54,127
22142,note_off,63,0,0,,6,,,54,127
22142,note_off,0,0,0,,0,,,72,127
22142,note_off,0,0,0,,2,,,62,127
22143,note_on,1,0,0,,11,,,70,127
22143,note_on,0,0,0,,2,,,62,127
22143,note_on,0,0,0,,7,,,55,127
22398,note_off,255,0,0,,7,,,55,127
22398,note_off,0,0,0,,2,,,62,127
22399,note_on,1,0,0,,3,,,63,127
22399,note_on,0,0,0,,0,,,48,127
22654,note_off,255,0,0,,11,,,70,127
22655,note_on,1,0,0,,10,,,69,127
22910,note_off,255,0,0,,10,,,69,127
22910,note_off,0,0,0,,0,,,48,127
22911,note_on,1,0,0,,7,,,67,127
22911,note_on,0,0,0,,0,,,60,127
23166,note_off,255,0,0,,3,,,63,127
23167,note_on,1,0,0,,2,,,62,127
23422,note_off,255,0,0,,7,,,67,127
23423,note_on,1,0,0,,6,,,66,127
23678,note_off,255,0,0,,6,,,66,127
23678,note_off,0,0,0,,0,,,60,127
23679,note_on,1,0,0,,7,,,67,127
23679,note_on,0,0,0,,11,,,58,127
23934,note_off,255,0,0,,11,,,58,127
23934,note_off,0,0,0,,7,,,67,127
23934,note_off,0,0,0,,2,,,62,127
23935,note_on,1,0,0,,10,,,69,127
23935,note_on,0,0,0,,10,,,57,127
24190,note_off,255,0,0,,10,,,57,127
24190,note_off,0,0,0,,10,,,69,127
24191,note_on,1,0,0,,0,,,72,127
24191,note_on,0,0,0,,7,,,55,127
24254,note_off,63,0,0,,0,,,72,127
24255,note_on,1,0,0,,11,,,70,127
24318,note_off,63,0,0,,11,,,70,127
24319,note_on,1,0,0,,0,,,72,127
24382,note_off,63,0,0,,0,,,72,127
24383,note_on,1,0,0,,11,,,70,127
24446,note_off,63,0,0,,11,,,70,127
24447,note_on,1,0,0,,0,,,72,127
24447,note_on,0,0,0,,7,,,43,127
24510,note_off,63,0,0,,0,,,72,127
24511,note_on,1,0,0,,11,,,70,127
24574,note_off,63,0,0,,11,,,70,127
24575,note_on,1,0,0,,10,,,69,127
24638,note_off,63,0,0,,10,,,69,127
24639,note_on,1,0,0,,11,,,70,127
24702,note_off,63,0,0,,11,,,70,127
24702,note_off,0,0,0,,7,,,43,127
24702,note_off,0,0,0,,7,,,55,127
24703,note_on,1,0,0,,10,,,69,127
24703,note_on,0,0,0,,2,,,50,127
24703,note_on,0,0,0,,2,,,62,127
24958,note_off,255,0,0,,2,,,62,127
24958,note_off,0,0,0,,2,,,50,127
24958,note_off,0,0,0,,10,,,69,127
24959,note_on,1,0,0,,3,,,75,127
24959,note_on,0,0,0,,6,,,66,127
24959,note_on,0,0,0,,0,,,60,127
25214,note_off,255,0,0,,0,,,60,127
25214,note_off,0,0,0,,6,,,66,127
25214,note_off,0,0,0,,3,,,75,127
25215,note_on,1,0,0,,7,,,67,127
25215,note_on,0,0,0,,2,,,74,127
25215,note_on,0,0,0,,11,,,58,127
25470,note_off,255,0,0,,11,,,58,127
25470,note_off,0,0,0,,2,,,74,127
25470,note_off,0,0,0,,7,,,67,127
25471,note_on,1,0,0,,10,,,69,127
25471,note_on,0,0,0,,0,,,72,127
25471,note_on,0,0,0,,10,,,57,127
25726,note_off,255,0,0,,10,,,57,127
25726,note_off,0,0,0,,10,,,69,127
25727,note_on,1,0,0,,7,,,55,127
25791,note_off,64,0,0,,0,,,72,127
25791,note_on,0,0,0,,11,,,70,127
25854,note_off,63,0,0,,11,,,70,127
25855,note_on,1,0,0,,0,,,72,127
25918,note_off,63,0,0,,0,,,72,127
25919,note_on,1,0,0,,11,,,70,127
25982,note_off,63,0,0,,11,,,70,127
25983,note_on,1,0,0,,0,,,72,127
25983,note_on,0,0,0,,1,,,61,127
26046,note_off,63,0,0,,0,,,72,127
26047,note_on,1,0,0,,11,,,70,127
26110,note_off,63,0,0,,11,,,70,127
26111,note_on,1,0,0,,10,,,69,127
26174,note_off,63,0,0,,10,,,69,127
26175,note_on,1,0,0,,11,,,70,127
26238,note_off,63,0,0,,11,,,70,127
26238,note_off,0,0,0,,1,,,61,127
26238,note_off,0,0,0,,7,,,55,127
26239,note_on,1,0,0,,10,,,69,127
26239,note_on,0,0,0,,2,,,62,127
26239,note_on,0,0,0,,2,,,50,127
26494,note_off,255,0,0,,2,,,50,127
26494,note_off,0,0,0,,2,,,62,127
26494,note_off,0,0,0,,10,,,69,127
26495,note_on,1,0,0,,3,,,75,127
26495,note_on,0,0,0,,6,,,66,127
26495,note_on,0,0,0,,0,,,60,127
26750,note_off,255,0,0,,0,,,60,127
26750,note_off,0,0,0,,6,,,66,127
26750,note_off,0,0,0,,3,,,75,127
26751,note_on,1,0,0,,7,,,67,127
26751,note_on,0,0,0,,2,,,74,127
26751,note_on,0,0,0,,11,,,58,127
27006,note_off,255,0,0,,11,,,58,127
27006,note_off,0,0,0,,2,,,74,127
27006,note_off,0,0,0,,7,,,67,127
27007,note_on,1,0,0,,10,,,69,127
27007,note_on,0,0,0,,0,,,72,127
27007,note_on,0,0,0,,10,,,57,127
27262,note_off,255,0,0,,10,,,57,127
27262,note_off,0,0,0,,10,,,69,127
27263,note_on,1,0,0,,7,,,55,127
27327,note_off,64,0,0,,0,,,72,127
27327,note_on,0,0,0,,11,,,70,127
27390,note_off,63,0,0,,11,,,70,127
27391,note_on,1,0,0,,0,,,72,127
27454,note_off,63,0,0,,0,,,72,127
27455,note_on,1,0,0,,11,,,70,127
27518,note_off,63,0,0,,11,,,70,127
27519,note_on,1,0,0,,0,,,72,127
27519,note_on,0,0,0,,1,,,61,127
27582,note_off,63,0,0,,0,,,72,127
27583,note_on,1,0,0,,11,,,70,127
27646,note_off,63,0,0,,11,,,70,127
27647,note_on,1,0,0,,10,,,69,127
27710,note_off,63,0,0,,10,,,69,127
27711,note_on,1,0,0,,11,,,70,127
27774,note_off,63,0,0,,11,,,70,127
27774,note_off,0,0,0,,1,,,61,127
27774,note_off,0,0,0,,7,,,55,127
27775,note_on,1,0,0,,11,,,70,127
27775,note_on,0,0,0,,2,,,50,127
28030,note_off,255,0,0,,11,,,70,127
28031,note_on,1,0,0,,10,,,69,127
28287,note_on,256,0,0,,2,,,38,127
28540,note_off,253,0,0,,2,,,38,127
28541,note_off,1,0,0,,10,,,69,127
28541,note_off,0,0,0,,2,,,50,127
28542,note_on,1,0,0,,11,,,82,127
28542,note_on,0,0,0,,6,,,66,127
28605,note_off,63,0,0,,11,,,82,127
28606,note_on,1,0,0,,10,,,81,127
28669,note_off,63,0,0,,10,,,81,127
28670,note_on,1,0,0,,11,,,82,127
28733,note_off,63,0,0,,11,,,82,127
28734,note_on,1,0,0,,10,,,81,127
28797,note_off,63,0,0,,10,,,81,127
28797,note_off,0,0,0,,6,,,66,127
28798,note_on,1,0,0,,11,,,82,127
28798,note_on,0,0,0,,2,,,62,127
28861,note_off,63,0,0,,11,,,82,127
28862,note_on,1,0,0,,10,,,81,127
28925,note_off,63,0,0,,10,,,81,127
28926,note_on,1,0,0,,7,,,79,127
28989,note_off,63,0,0,,7,,,79,127
28990,note_on,1,0,0,,10,,,81,127
29053,note_off,63,0,0,,10,,,81,127
29053,note_off,0,0,0,,2,,,62,127
29054,note_on,1,0,0,,11,,,82,127
29054,note_on,0,0,0,,7,,,67,127
29309,note_off,255,0,0,,7,,,67,127
29309,note_off,0,0,0,,11,,,82,127
29310,note_on,1,0,0,,10,,,81,127
29310,note_on,0,0,0,,3,,,75,127
29310,note_on,0,0,0,,6,,,66,127
29373,note_off,63,0,0,,3,,,75,127
29374,note_on,1,0,0,,2,,,74,127
29437,note_off,63,0,0,,2,,,74,127
29438,note_on,1,0,0,,3,,,75,127
29501,note_off,63,0,0,,3,,,75,127
29502,note_on,1,0,0,,2,,,74,127
29565,note_off,63,0,0,,2,,,74,127
29565,note_off,0,0,0,,6,,,66,127
29566,note_on,1,0,0,,3,,,75,127
29566,note_on,0,0,0,,2,,,62,127
29629,note_off,63,0,0,,3,,,75,127
29630,note_on,1,0,0,,2,,,74,127
29693,note_off,63,0,0,,2,,,74,127
29694,note_on,1,0,0,,0,,,72,127
29757,note_off,63,0,0,,0,,,72,127
29758,note_on,1,0,0,,2,,,74,127
29821,note_off,63,0,0,,2,,,74,127
29821,note_off,0,0,0,,2,,,62,127
29821,note_off,0,0,0,,10,,,81,127
29822,note_on,1,0,0,,3,,,75,127
29822,note_on,0,0,0,,7,,,79,127
29822,note_on,0,0,0,,0,,,60,127
30077,note_off,255,0,0,,0,,,60,127
30077,note_off,0,0,0,,7,,,79,127
30077,note_off,0,0,0,,3,,,75,127
30078,note_on,1,0,0,,11,,,82,127
30078,note_on,0,0,0,,6,,,66,127
30141,note_off,63,0,0,,11,,,82,127
30142,note_on,1,0,0,,10,,,81,127
30205,note_off,63,0,0,,10,,,81,127
30206,note_on,1,0,0,,11,,,82,127
30269,note_off,63,0,0,,11,,,82,127
30270,note_on,1,0,0,,10,,,81,127
30333,note_off,63,0,0,,10,,,81,127
30333,note_off,0,0,0,,6,,,66,127
30334,note_on,1,0,0,,11,,,82,127
30334,note_on,0,0,0,,2,,,62,127
30397,note_off,63,0,0,,11,,,82,127
30398,note_on,1,0,0,,10,,,81,127
30461,note_off,63,0,0,,10,,,81,127
30462,note_on,1,0,0,,7,,,79,127
30525,note_off,63,0,0,,7,,,79,127
30526,note_on,1,0,0,,10,,,81,127
30589,note_off,63,0,0,,10,,,81,127
30589,note_off,0,0,0,,2,,,62,127
30590,note_on,1,0,0,,2,,,74,127
30590,note_on,0,0,0,,11,,,82,127
30590,note_on,0,0,0,,7,,,67,127
30845,note_off,255,0,0,,7,,,67,127
30845,note_off,0,0,0,,11,,,82,127
30845,note_off,0,0,0,,2,,,74,127
30846,note_on,1,0,0,,3,,,75,127
30846,note_on,0,0,0,,10,,,81,127
30846,note_on,0,0,0,,6,,,66,127
30909,note_off,63,0,0,,3,,,75,127
30910,note_on,1,0,0,,2,,,74,127
30973,note_off,63,0,0,,2,,,74,127
30974,note_on,1,0,0,,3,,,75,127
31037,note_off,63,0,0,,3,,,75,127
31038,note_on,1,0,0,,2,,,74,127
31101,note_off,63,0,0,,2,,,74,127
31101,note_off,0,0,0,,6,,,66,127
31102,note_on,1,0,0,,3,,,75,127
31102,note_on,0,0,0,,2,,,62,127
31165,note_off,63,0,0,,3,,,75,127
31166,note_on,1,0,0,,2,,,74,127
31229,note_off,63,0,0,,2,,,74,127
31230,note_on,1,0,0,,0,,,72,127
31293,note_off,63,0,0,,0,,,72,127
31294,note_on,1,0,0,,2,,,74,127
31357,note_off,63,0,0,,2,,,74,127
31357,note_off,0,0,0,,2,,,62,127
31357,note_off,0,0,0,,10,,,81,127
31358,note_on,1,0,0,,7,,,79,127
31358,note_on,0,0,0,,3,,,75,127
31358,note_on,0,0,0,,0,,,60,127
31613,note_off,255,0,0,,0,,,60,127
31613,note_off,0,0,0,,3,,,75,127
31613,note_off,0,0,0,,7,,,79,127
31614,note_on,1,0,0,,10,,,81,127
31614,note_on,0,0,0,,6,,,66,127
31869,note_off,255,0,0,,10,,,81,127
31870,note_on,1,0,0,,0,,,84,127
32125,note_off,255,0,0,,0,,,84,127
32125,note_off,0,0,0,,6,,,66,127
32126,note_on,1,0,0,,11,,,82,127
32126,note_on,0,0,0,,2,,,74,127
32126,note_on,0,0,0,,7,,,67,127
32381,note_off,255,0,0,,7,,,67,127
32381,note_off,0,0,0,,2,,,74,127
32382,note_on,1,0,0,,2,,,74,127
32382,note_on,0,0,0,,2,,,62,127
32637,note_off,255,0,0,,2,,,74,127
32637,note_off,0,0,0,,11,,,82,127
32638,note_on,1,0,0,,10,,,81,127
32638,note_on,0,0,0,,0,,,72,127
32893,note_off,255,0,0,,0,,,72,127
32893,note_off,0,0,0,,10,,,81,127
32893,note_off,0,0,0,,2,,,62,127
32894,note_on,1,0,0,,11,,,70,127
32894,note_on,0,0,0,,7,,,79,127
32894,note_on,0,0,0,,3,,,63,127
33149,note_off,255,0,0,,3,,,63,127
33149,note_off,0,0,0,,7,,,79,127
33149,note_off,0,0,0,,11,,,70,127
33150,note_on,1,0,0,,0,,,72,127
33150,note_on,0,0,0,,10,,,81,127
33150,note_on,0,0,0,,0,,,60,127
33405,note_off,255,0,0,,0,,,60,127
33405,note_off,0,0,0,,10,,,81,127
33405,note_off,0,0,0,,0,,,72,127
33406,note_on,1,0,0,,7,,,79,127
33406,note_on,0,0,0,,11,,,70,127
33406,note_on,0,0,0,,2,,,62,127
33661,note_off,255,0,0,,11,,,70,127
33661,note_off,0,0,0,,7,,,79,127
33662,note_on,1,0,0,,6,,,78,127
33662,note_on,0,0,0,,10,,,69,127
33662,note_on,0,0,0,,2,,,50,127
33913,note_off,251,0,0,,2,,,62,127
33917,note_off,4,0,0,,2,,,50,127
33917,note_off,0,0,0,,10,,,69,127
33917,note_off,0,0,0,,6,,,78,127
33918,note_on,1,0,0,,6,,,78,127
33918,note_on,0,0,0,,10,,,69,127
33918,note_on,0,0,0,,7,,,55,127
33918,note_on,0,0,0,,7,,,43,127
34173,note_off,255,0,0,,10,,,69,127
34173,note_off,0,0,0,,6,,,78,127
34174,note_on,1,0,0,,11,,,70,127
34174,note_on,0,0,0,,7,,,79,127
34425,note_off,251,0,0,,7,,,43,127
34429,note_off,4,0,0,,11,,,70,127
34430,note_on,1,0,0,,7,,,67,127
34685,note_off,255,0,0,,7,,,67,127
34685,note_off,0,0,0,,7,,,79,127
34685,note_off,0,0,0,,7,,,55,127
34686,note_on,1,0,0,,11,,,82,127
34686,note_on,0,0,0,,6,,,66,127
34749,note_off,63,0,0,,11,,,82,127
34750,note_on,1,0,0,,10,,,81,127
34813,note_off,63,0,0,,10,,,81,127
34814,note_on,1,0,0,,11,,,82,127
34877,note_off,63,0,0,,11,,,82,127
34878,note_on,1,0,0,,10,,,81,127
34941,note_off,63,0,0,,10,,,81,127
34941,note_off,0,0,0,,6,,,66,127
34942,note_on,1,0,0,,11,,,82,127
34942,note_on,0,0,0,,2,,,62,127
35005,note_off,63,0,0,,11,,,82,127
35006,note_on,1,0,0,,10,,,81,127
35069,note_off,63,0,0,,10,,,81,127
35070,note_on,1,0,0,,7,,,79,127
35133,note_off,63,0,0,,7,,,79,127
35134,note_on,1,0,0,,10,,,81,127
35197,note_off,63,0,0,,10,,,81,127
35197,note_off,0,0,0,,2,,,62,127
35198,note_on,1,0,0,,2,,,74,127
35198,note_on,0,0,0,,11,,,82,127
35198,note_on,0,0,0,,7,,,67,127
35453,note_off,255,0,0,,7,,,67,127
35453,note_off,0,0,0,,11,,,82,127
35453,note_off,0,0,0,,2,,,74,127
35454,note_on,1,0,0,,3,,,75,127
35454,note_on,0,0,0,,10,,,81,127
35454,note_on,0,0,0,,6,,,66,127
35517,note_off,63,0,0,,3,,,75,127
35518,note_on,1,0,0,,2,,,74,127
35581,note_off,63,0,0,,2,,,74,127
35582,note_on,1,0,0,,3,,,75,127
35645,note_off,63,0,0,,3,,,75,127
35646,note_on,1,0,0,,2,,,74,127
35709,note_off,63,0,0,,2,,,74,127
35709,note_off,0,0,0,,6,,,66,127
35710,note_on,1,0,0,,3,,,75,127
35710,note_on,0,0,0,,2,,,62,127
35773,note_off,63,0,0,,3,,,75,127
35774,note_on,1,0,0,,2,,,74,127
35837,note_off,63,0,0,,2,,,74,127
35838,note_on,1,0,0,,0,,,72,127
35901,note_off,63,0,0,,0,,,72,127
35902,note_on,1,0,0,,2,,,74,127
35965,note_off,63,0,0,,2,,,74,127
35965,note_off,0,0,0,,2,,,62,127
35965,note_off,0,0,0,,10,,,81,127
35966,note_on,1,0,0,,7,,,79,127
35966,note_on,0,0,0,,3,,,75,127
35966,note_on,0,0,0,,0,,,60,127
36221,note_off,255,0,0,,0,,,60,127
36221,note_off,0,0,0,,3,,,75,127
36221,note_off,0,0,0,,7,,,79,127
36222,note_on,1,0,0,,11,,,82,127
36222,note_on,0,0,0,,6,,,66,127
36285,note_off,63,0,0,,11,,,82,127
36286,note_on,1,0,0,,10,,,81,127
36349,note_off,63,0,0,,10,,,81,127
36350,note_on,1,0,0,,11,,,82,127
36413,note_off,63,0,0,,11,,,82,127
36414,note_on,1,0,0,,10,,,81,127
36477,note_off,63,0,0,,10,,,81,127
36477,note_off,0,0,0,,6,,,66,127
36478,note_on,1,0,0,,11,,,82,127
36478,note_on,0,0,0,,2,,,62,127
36541,note_off,63,0,0,,11,,,82,127
36542,note_on,1,0,0,,10,,,81,127
36605,note_off,63,0,0,,10,,,81,127
36606,note_on,1,0,0,,7,,,79,127
36669,note_off,63,0,0,,7,,,79,127
36670,note_on,1,0,0,,10,,,81,127
36733,note_off,63,0,0,,10,,,81,127
36733,note_off,0,0,0,,2,,,62,127
36734,note_on,1,0,0,,11,,,82,127
36734,note_on,0,0,0,,2,,,74,127
36734,note_on,0,0,0,,7,,,67,127
36989,note_off,255,0,0,,7,,,67,127
36989,note_off,0,0,0,,2,,,74,127
36989,note_off,0,0,0,,11,,,82,127
36990,note_on,1,0,0,,3,,,75,127
36990,note_on,0,0,0,,10,,,81,127
36990,note_on,0,0,0,,6,,,66,127
37053,note_off,63,0,0,,3,,,75,127
37054,note_on,1,0,0,,2,,,74,127
37117,note_off,63,0,0,,2,,,74,127
37118,note_on,1,0,0,,3,,,75,127
37181,note_off,63,0,0,,3,,,75,127
37182,note_on,1,0,0,,2,,,74,127
37245,note_off,63,0,0,,2,,,74,127
37245,note_off,0,0,0,,6,,,66,127
37246,note_on,1,0,0,,3,,,75,127
37246,note_on,0,0,0,,2,,,62,127
37309,note_off,63,0,0,,3,,,75,127
37310,note_on,1,0,0,,2,,,74,127
37373,note_off,63,0,0,,2,,,74,127
37374,note_on,1,0,0,,0,,,72,127
37437,note_off,63,0,0,,0,,,72,127
37438,note_on,1,0,0,,2,,,74,127
37501,note_off,63,0,0,,2,,,74,127
37501,note_off,0,0,0,,2,,,62,127
37501,note_off,0,0,0,,10,,,81,127
37502,note_on,1,0,0,,7,,,79,127
37502,note_on,0,0,0,,3,,,75,127
37502,note_on,0,0,0,,0,,,60,127
37757,note_off,255,0,0,,0,,,60,127
37757,note_off,0,0,0,,3,,,75,127
37757,note_off,0,0,0,,7,,,79,127
37758,note_on,1,0,0,,10,,,81,127
37758,note_on,0,0,0,,6,,,66,127
38013,note_off,255,0,0,,10,,,81,127
38014,note_on,1,0,0,,0,,,84,127
38269,note_off,255,0,0,,0,,,84,127
38269,note_off,0,0,0,,6,,,66,127
38270,note_on,1,0,0,,11,,,82,127
38270,note_on,0,0,0,,2,,,74,127
38270,note_on,0,0,0,,7,,,67,127
38525,note_off,255,0,0,,7,,,67,127
38525,note_off,0,0,0,,2,,,74,127
38526,note_on,1,0,0,,2,,,74,127
38526,note_on,0,0,0,,2,,,62,127
38781,note_off,255,0,0,,2,,,74,127
38781,note_off,0,0,0,,11,,,82,127
38782,note_on,1,0,0,,0,,,72,127
38782,note_on,0,0,0,,10,,,81,127
39037,note_off,255,0,0,,10,,,81,127
39037,note_off,0,0,0,,0,,,72,127
39037,note_off,0,0,0,,2,,,62,127
39038,note_on,1,0,0,,11,,,70,127
39038,note_on,0,0,0,,7,,,79,127
39038,note_on,0,0,0,,3,,,63,127
39293,note_off,255,0,0,,3,,,63,127
39293,note_off,0,0,0,,7,,,79,127
39293,note_off,0,0,0,,11,,,70,127
39294,note_on,1,0,0,,0,,,72,127
39294,note_on,0,0,0,,10,,,81,127
39294,note_on,0,0,0,,0,,,60,127
39549,note_off,255,0,0,,0,,,60,127
39549,note_off,0,0,0,,10,,,81,127
39549,note_off,0,0,0,,0,,,72,127
39550,note_on,1,0,0,,11,,,70,127
39550,note_on,0,0,0,,7,,,79,127
39550,note_on,0,0,0,,2,,,62,127
39805,note_off,255,0,0,,7,,,79,127
39805,note_off,0,0,0,,11,,,70,127
39806,note_on,1,0,0,,10,,,69,127
39806,note_on,0,0,0,,6,,,78,127
39806,note_on,0,0,0,,2,,,50,127
40057,note_off,251,0,0,,2,,,62,127
40061,note_off,4,0,0,,2,,,50,127
40061,note_off,0,0,0,,6,,,78,127
40061,note_off,0,0,0,,10,,,69,127
40062,note_on,1,0,0,,7,,,79,127
40062,note_on,0,0,0,,7,,,55,127
40317,note_off,255,0,0,,7,,,55,127
40318,note_on,1,0,0,,10,,,57,127
40573,note_off,255,0,0,,10,,,57,127
40573,note_off,0,0,0,,7,,,79,127
40574,note_on,1,0,0,,5,,,77,127
40574,note_on,0,0,0,,12,,,59,127
40829,note_off,255,0,0,,12,,,59,127
40829,note_off,0,0,0,,5,,,77,127
40830,note_on,1,0,0,,3,,,75,127
40830,note_on,0,0,0,,0,,,60,127
40914,note_off,84,0,0,,3,,,75,127
40915,note_on,1,0,0,,2,,,74,127
40999,note_off,84,0,0,,2,,,74,127
41000,note_on,1,0,0,,0,,,72,127
41084,note_off,84,0,0,,0,,,72,127
41084,note_off,0,0,0,,0,,,60,127
41085,note_on,1,0,0,,0,,,72,127
41085,note_on,0,0,0,,10,,,57,127
41340,note_off,255,0,0,,10,,,57,127
41341,note_on,1,0,0,,6,,,54,127
41596,note_off,255,0,0,,6,,,54,127
41596,note_off,0,0,0,,0,,,72,127
41597,note_on,1,0,0,,11,,,70,127
41597,note_on,0,0,0,,7,,,55,127
41681,note_off,84,0,0,,11,,,70,127
41682,note_on,1,0,0,,0,,,72,127
41766,note_off,84,0,0,,0,,,72,127
41767,note_on,1,0,0,,2,,,74,127
41851,note_off,84,0,0,,2,,,74,127
41851,note_off,0,0,0,,7,,,55,127
41852,note_on,1,0,0,,2,,,74,127
41852,note_on,0,0,0,,10,,,57,127
42107,note_off,255,0,0,,10,,,57,127
42108,note_on,1,0,0,,11,,,58,127
42363,note_off,255,0,0,,11,,,58,127
42363,note_off,0,0,0,,2,,,74,127
42364,note_on,1,0,0,,3,,,75,127
42364,note_on,0,0,0,,0,,,60,127
42619,note_off,255,0,0,,0,,,60,127
42619,note_off,0,0,0,,3,,,75,127
42620,note_on,1,0,0,,7,,,67,127
42620,note_on,0,0,0,,2,,,62,127
42875,note_off,255,0,0,,7,,,67,127
42876,note_on,1,0,0,,6,,,66,127
42876,note_on,0,0,0,,2,,,50,127
43127,note_off,251,0,0,,2,,,62,127
43131,note_off,4,0,0,,2,,,50,127
43131,note_off,0,0,0,,6,,,66,127
43132,note_on,1,0,0,,7,,,79,127
43132,note_on,0,0,0,,7,,,55,127
43387,note_off,255,0,0,,7,,,55,127
43388,note_on,1,0,0,,10,,,57,127
43643,note_off,255,0,0,,10,,,57,127
43643,note_off,0,0,0,,7,,,79,127
43644,note_on,1,0,0,,5,,,77,127
43644,note_on,0,0,0,,12,,,59,127
43899,note_off,255,0,0,,12,,,59,127
43899,note_off,0,0,0,,5,,,77,127
43900,note_on,1,0,0,,3,,,75,127
43900,note_on,0,0,0,,0,,,60,127
43984,note_off,84,0,0,,3,,,75,127
43985,note_on,1,0,0,,2,,,74,127
44069,note_off,84,0,0,,2,,,74,127
44070,note_on,1,0,0,,0,,,72,127
44154,note_off,84,0,0,,0,,,72,127
44154,note_off,0,0,0,,0,,,60,127
44155,note_on,1,0,0,,0,,,72,127
44155,note_on,0,0,0,,10,,,57,127
44410,note_off,255,0,0,,10,,,57,127
44411,note_on,1,0,0,,6,,,54,127
44666,note_off,255,0,0,,6,,,54,127
44666,note_off,0,0,0,,0,,,72,127
44667,note_on,1,0,0,,11,,,70,127
44667,note_on,0,0,0,,7,,,55,127
44751,note_off,84,0,0,,11,,,70,127
44752,note_on,1,0,0,,0,,,72,127
44836,note_off,84,0,0,,0,,,72,127
44837,note_on,1,0,0,,2,,,74,127
44921,note_off,84,0,0,,2,,,74,127
44921,note_off,0,0,0,,7,,,55,127
44922,note_on,1,0,0,,2,,,74,127
44922,note_on,0,0,0,,10,,,57,127
45177,note_off,255,0,0,,10,,,57,127
45178,note_on,1,0,0,,11,,,58,127
45433,note_off,255,0,0,,11,,,58,127
45433,note_off,0,0,0,,2,,,74,127
45434,note_on,1,0,0,,3,,,75,127
45434,note_on,0,0,0,,0,,,60,127
45689,note_off,255,0,0,,0,,,60,127
45689,note_off,0,0,0,,3,,,75,127
45690,note_on,1,0,0,,7,,,67,127
45690,note_on,0,0,0,,2,,,62,127
45945,note_off,255,0,0,,7,,,67,127
45946,note_on,1,0,0,,6,,,66,127
45946,note_on,0,0,0,,2,,,50,127
46197,note_off,251,0,0,,2,,,62,127
46201,note_off,4,0,0,,2,,,50,127
46201,note_off,0,0,0,,6,,,66,127
46202,note_on,1,0,0,,7,,,67,127
46202,note_on,0,0,0,,7,,,55,127
46202,note_on,0,0,0,,7,,,43,127
46286,note_off,84,0,0,,7,,,67,127
46287,note_on,1,0,0,,11,,,70,127
46371,note_off,84,0,0,,11,,,70,127
46372,note_on,1,0,0,,2,,,74,127
46456,note_off,84,0,0,,2,,,74,127
46457,note_on,1,0,0,,7,,,79,127
46712,note_off,255,0,0,,7,,,79,127
46713,note_on,1,0,0,,2,,,86,127
46968,note_off,255,0,0,,7,,,43,127
46968,note_off,0,0,0,,7,,,55,127
46969,note_on,1,0,0,,2,,,50,127
46969,note_on,0,0,0,,2,,,38,127
47224,note_off,255,0,0,,2,,,86,127
47225,note_on,1,0,0,,7,,,79,127
47480,note_off,255,0,0,,7,,,79,127
47481,note_on,1,0,0,,6,,,78,127
47736,note_off,255,0,0,,6,,,78,127
47736,note_off,0,0,0,,2,,,38,127
47736,note_off,0,0,0,,2,,,50,127
47737,note_on,1,0,0,,7,,,67,127
47737,note_on,0,0,0,,7,,,55,127
47737,note_on,0,0,0,,7,,,43,127
47821,note_off,84,0,0,,7,,,67,127
47822,note_on,1,0,0,,11,,,70,127
47906,note_off,84,0,0,,11,,,70,127
47907,note_on,1,0,0,,2,,,74,127
47991,note_off,84,0,0,,2,,,74,127
47992,note_on,1,0,0,,7,,,79,127
48247,note_off,255,0,0,,7,,,79,127
48248,note_on,1,0,0,,2,,,86,127
48503,note_off,255,0,0,,7,,,43,127
48503,note_off,0,0,0,,7,,,55,127
48504,note_on,1,0,0,,2,,,50,127
48504,note_on,0,0,0,,2,,,38,127
48759,note_off,255,0,0,,2,,,86,127
48760,note_on,1,0,0,,7,,,79,127
49015,note_off,255,0,0,,7,,,79,127
49016,note_on,1,0,0,,6,,,78,127
49271,note_off,255,0,0,,6,,,78,127
49271,note_off,0,0,0,,2,,,38,127
49271,note_off,0,0,0,,2,,,50,127
49272,note_on,1,0,0,,6,,,78,127
49272,note_on,0,0,0,,7,,,31,127
49272,note_on,0,0,0,,7,,,43,127
49527,note_off,255,0,0,,6,,,78,127
49528,note_on,1,0,0,,7,,,79,127
50039,note_off,511,0,0,,7,,,79,127
50039,note_off,0,0,0,,7,,,43,127
50039,note_off,0,0,0,,7,,,31,127
50040,note_on,1,0,0,,3,,,75,127
50040,note_on,0,0,0,,7,,,55,127
50103,note_off,63,0,0,,3,,,75,127
50104,note_on,1,0,0,,2,,,74,127
50167,note_off,63,0,0,,2,,,74,127
50168,note_on,1,0,0,,3,,,75,127
50231,note_off,63,0,0,,3,,,75,127
50232,note_on,1,0,0,,2,,,74,127
50295,note_off,63,0,0,,2,,,74,127
50296,note_on,1,0,0,,3,,,75,127
50296,note_on,0,0,0,,12,,,59,127
50359,note_off,63,0,0,,3,,,75,127
50360,note_on,1,0,0,,2,,,74,127
50423,note_off,63,0,0,,2,,,74,127
50424,note_on,1,0,0,,0,,,72,127
50487,note_off,63,0,0,,0,,,72,127
50488,note_on,1,0,0,,2,,,74,127
50551,note_off,63,0,0,,2,,,74,127
50551,note_off,0,0,0,,12,,,59,127
50552,note_on,1,0,0,,3,,,75,127
50552,note_on,0,0,0,,0,,,60,127
50807,note_off,255,0,0,,0,,,60,127
50807,note_off,0,0,0,,3,,,75,127
50807,note_off,0,0,0,,7,,,55,127
50808,note_on,1,0,0,,0,,,72,127
50808,note_on,0,0,0,,7,,,55,127
50871,note_off,63,0,0,,0,,,72,127
50872,note_on,1,0,0,,12,,,71,127
50935,note_off,63,0,0,,12,,,71,127
50936,note_on,1,0,0,,0,,,72,127
50999,note_off,63,0,0,,0,,,72,127
51000,note_on,1,0,0,,12,,,71,127
51063,note_off,63,0,0,,12,,,71,127
51064,note_on,1,0,0,,0,,,72,127
51064,note_on,0,0,0,,2,,,62,127
51127,note_off,63,0,0,,0,,,72,127
51128,note_on,1,0,0,,12,,,71,127
51191,note_off,63,0,0,,12,,,71,127
51192,note_on,1,0,0,,10,,,69,127
51255,note_off,63,0,0,,10,,,69,127
51256,note_on,1,0,0,,12,,,71,127
51319,note_off,63,0,0,,12,,,71,127
51319,note_off,0,0,0,,2,,,62,127
51320,note_on,1,0,0,,0,,,72,127
51320,note_on,0,0,0,,3,,,63,127
51575,note_off,255,0,0,,3,,,63,127
51575,note_off,0,0,0,,0,,,72,127
51575,note_off,0,0,0,,7,,,55,127
51576,note_on,1,0,0,,3,,,75,127
51576,note_on,0,0,0,,7,,,55,127
51639,note_off,63,0,0,,3,,,75,127
51640,note_on,1,0,0,,2,,,74,127
51703,note_off,63,0,0,,2,,,74,127
51704,note_on,1,0,0,,3,,,75,127
51767,note_off,63,0,0,,3,,,75,127
51768,note_on,1,0,0,,2,,,74,127
51831,note_off,63,0,0,,2,,,74,127
51832,note_on,1,0,0,,3,,,75,127
51832,note_on,0,0,0,,12,,,59,127
51895,note_off,63,0,0,,3,,,75,127
51896,note_on,1,0,0,,2,,,74,127
51959,note_off,63,0,0,,2,,,74,127
51960,note_on,1,0,0,,0,,,72,127
52023,note_off,63,0,0,,0,,,72,127
52024,note_on,1,0,0,,2,,,74,127
52087,note_off,63,0,0,,2,,,74,127
52087,note_off,0,0,0,,12,,,59,127
52088,note_on,1,0,0,,3,,,75,127
52088,note_on,0,0,0,,0,,,60,127
52343,note_off,255,0,0,,0,,,60,127
52343,note_off,0,0,0,,3,,,75,127
52343,note_off,0,0,0,,7,,,55,127
52344,note_on,1,0,0,,0,,,72,127
52344,note_on,0,0,0,,7,,,55,127
52407,note_off,63,0,0,,0,,,72,127
52408,note_on,1,0,0,,12,,,71,127
52471,note_off,63,0,0,,12,,,71,127
52472,note_on,1,0,0,,0,,,72,127
52535,note_off,63,0,0,,0,,,72,127
52536,note_on,1,0,0,,12,,,71,127
52599,note_off,63,0,0,,12,,,71,127
52600,note_on,1,0,0,,0,,,72,127
52600,note_on,0,0,0,,2,,,62,127
52663,note_off,63,0,0,,0,,,72,127
52664,note_on,1,0,0,,12,,,71,127
52727,note_off,63,0,0,,12,,,71,127
52728,note_on,1,0,0,,10,,,69,127
52791,note_off,63,0,0,,10,,,69,127
52792,note_on,1,0,0,,12,,,71,127
52855,note_off,63,0,0,,12,,,71,127
52855,note_off,0,0,0,,2,,,62,127
52856,note_on,1,0,0,,0,,,72,127
52856,note_on,0,0,0,,3,,,63,127
53111,note_off,255,0,0,,3,,,63,127
53111,note_off,0,0,0,,0,,,72,127
53111,note_off,0,0,0,,7,,,55,127
53112,note_on,1,0,0,,7,,,67,127
53112,note_on,0,0,0,,12,,,71,127
53112,note_on,0,0,0,,8,,,56,127
53175,note_off,63,0,0,,8,,,56,127
53176,note_on,1,0,0,,7,,,55,127
53239,note_off,63,0,0,,7,,,55,127
53240,note_on,1,0,0,,8,,,56,127
53303,note_off,63,0,0,,8,,,56,127
53304,note_on,1,0,0,,7,,,55,127
53367,note_off,63,0,0,,7,,,55,127
53367,note_off,0,0,0,,12,,,71,127
53368,note_on,1,0,0,,2,,,74,127
53368,note_on,0,0,0,,8,,,56,127
53431,note_off,63,0,0,,8,,,56,127
53432,note_on,1,0,0,,7,,,55,127
53495,note_off,63,0,0,,7,,,55,127
53496,note_on,1,0,0,,5,,,53,127
53559,note_off,63,0,0,,5,,,53,127
53560,note_on,1,0,0,,7,,,55,127
53623,note_off,63,0,0,,7,,,55,127
53623,note_off,0,0,0,,2,,,74,127
53623,note_off,0,0,0,,7,,,67,127
53624,note_on,1,0,0,,5,,,65,127
53624,note_on,0,0,0,,0,,,72,127
53624,note_on,0,0,0,,8,,,56,127
53879,note_off,255,0,0,,8,,,56,127
53879,note_off,0,0,0,,0,,,72,127
53879,note_off,0,0,0,,5,,,65,127
53880,note_on,1,0,0,,7,,,67,127
53880,note_on,0,0,0,,12,,,71,127
53880,note_on,0,0,0,,8,,,56,127
53943,note_off,63,0,0,,8,,,56,127
53944,note_on,1,0,0,,7,,,55,127
54007,note_off,63,0,0,,7,,,55,127
54008,note_on,1,0,0,,8,,,56,127
54071,note_off,63,0,0,,8,,,56,127
54072,note_on,1,0,0,,7,,,55,127
54135,note_off,63,0,0,,7,,,55,127
54135,note_off,0,0,0,,12,,,71,127
54136,note_on,1,0,0,,2,,,74,127
54136,note_on,0,0,0,,8,,,56,127
54199,note_off,63,0,0,,8,,,56,127
54200,note_on,1,0,0,,7,,,55,127
54263,note_off,63,0,0,,7,,,55,127
54264,note_on,1,0,0,,5,,,53,127
54327,note_off,63,0,0,,5,,,53,127
54328,note_on,1,0,0,,7,,,55,127
54391,note_off,63,0,0,,7,,,55,127
54391,note_off,0,0,0,,2,,,74,127
54391,note_off,0,0,0,,7,,,67,127
54392,note_on,1,0,0,,5,,,65,127
54392,note_on,0,0,0,,0,,,72,127
54392,note_on,0,0,0,,8,,,56,127
54647,note_off,255,0,0,,8,,,56,127
54647,note_off,0,0,0,,0,,,72,127
54647,note_off,0,0,0,,5,,,65,127
54648,note_on,1,0,0,,7,,,67,127
54648,note_on,0,0,0,,5,,,53,127
54711,note_off,63,0,0,,5,,,53,127
54712,note_on,1,0,0,,4,,,52,127
54775,note_off,63,0,0,,4,,,52,127
54776,note_on,1,0,0,,5,,,53,127
54839,note_off,63,0,0,,5,,,53,127
54840,note_on,1,0,0,,4,,,52,127
54903,note_off,63,0,0,,4,,,52,127
54904,note_on,1,0,0,,11,,,70,127
54904,note_on,0,0,0,,5,,,53,127
54967,note_off,63,0,0,,5,,,53,127
54968,note_on,1,0,0,,4,,,52,127
55031,note_off,63,0,0,,4,,,52,127
55032,note_on,1,0,0,,2,,,50,127
55095,note_off,63,0,0,,2,,,50,127
55096,note_on,1,0,0,,4,,,52,127
55159,note_off,63,0,0,,4,,,52,127
55159,note_off,0,0,0,,11,,,70,127
55159,note_off,0,0,0,,7,,,67,127
55160,note_on,1,0,0,,5,,,65,127
55160,note_on,0,0,0,,8,,,68,127
55160,note_on,0,0,0,,5,,,53,127
55415,note_off,255,0,0,,5,,,53,127
55415,note_off,0,0,0,,8,,,68,127
55415,note_off,0,0,0,,5,,,65,127
55416,note_on,1,0,0,,7,,,67,127
55416,note_on,0,0,0,,5,,,53,127
55479,note_off,63,0,0,,5,,,53,127
55480,note_on,1,0,0,,4,,,52,127
55543,note_off,63,0,0,,4,,,52,127
55544,note_on,1,0,0,,5,,,53,127
55607,note_off,63,0,0,,5,,,53,127
55608,note_on,1,0,0,,4,,,52,127
55671,note_off,63,0,0,,4,,,52,127
55672,note_on,1,0,0,,11,,,70,127
55672,note_on,0,0,0,,5,,,53,127
55735,note_off,63,0,0,,5,,,53,127
55736,note_on,1,0,0,,4,,,52,127
55799,note_off,63,0,0,,4,,,52,127
55800,note_on,1,0,0,,2,,,50,127
55863,note_off,63,0,0,,2,,,50,127
55864,note_on,1,0,0,,4,,,52,127
55927,note_off,63,0,0,,4,,,52,127
55927,note_off,0,0,0,,11,,,70,127
55927,note_off,0,0,0,,7,,,67,127
55928,note_on,1,0,0,,5,,,65,127
55928,note_on,0,0,0,,8,,,68,127
55928,note_on,0,0,0,,5,,,53,127
56183,note_off,255,0,0,,5,,,53,127
56183,note_off,0,0,0,,8,,,68,127
56183,note_off,0,0,0,,5,,,65,127
56184,note_on,1,0,0,,5,,,65,127
56184,note_on,0,0,0,,3,,,51,127
56247,note_off,63,0,0,,3,,,51,127
56248,note_on,1,0,0,,2,,,50,127
56311,note_off,63,0,0,,2,,,50,127
56312,note_on,1,0,0,,3,,,51,127
56375,note_off,63,0,0,,3,,,51,127
56376,note_on,1,0,0,,2,,,50,127
56439,note_off,63,0,0,,2,,,50,127
56440,note_on,1,0,0,,8,,,68,127
56440,note_on,0,0,0,,3,,,51,127
56503,note_off,63,0,0,,3,,,51,127
56504,note_on,1,0,0,,2,,,50,127
56567,note_off,63,0,0,,2,,,50,127
56568,note_on,1,0,0,,0,,,48,127
56631,note_off,63,0,0,,0,,,48,127
56632,note_on,1,0,0,,2,,,50,127
56695,note_off,63,0,0,,2,,,50,127
56695,note_off,0,0,0,,8,,,68,127
56695,note_off,0,0,0,,5,,,65,127
56696,note_on,1,0,0,,3,,,63,127
56696,note_on,0,0,0,,7,,,67,127
56696,note_on,0,0,0,,3,,,51,127
56951,note_off,255,0,0,,3,,,51,127
56951,note_off,0,0,0,,7,,,67,127
56952,note_on,1,0,0,,8,,,68,127
56952,note_on,0,0,0,,7,,,55,127
57015,note_off,63,0,0,,7,,,55,127
57016,note_on,1,0,0,,5,,,53,127
57079,note_off,63,0,0,,5,,,53,127
57080,note_on,1,0,0,,7,,,55,127
57143,note_off,63,0,0,,7,,,55,127
57144,note_on,1,0,0,,5,,,53,127
57207,note_off,63,0,0,,5,,,53,127
57207,note_off,0,0,0,,8,,,68,127
57208,note_on,1,0,0,,11,,,70,127
57208,note_on,0,0,0,,7,,,55,127
57271,note_off,63,0,0,,7,,,55,127
57272,note_on,1,0,0,,5,,,53,127
57335,note_off,63,0,0,,5,,,53,127
57336,note_on,1,0,0,,3,,,51,127
57399,note_off,63,0,0,,3,,,51,127
57400,note_on,1,0,0,,5,,,53,127
57463,note_off,63,0,0,,5,,,53,127
57463,note_off,0,0,0,,3,,,63,127
57464,note_on,1,0,0,,3,,,63,127
57464,note_on,0,0,0,,7,,,55,127
57719,note_off,255,0,0,,7,,,55,127
57719,note_off,0,0,0,,11,,,70,127
57720,note_on,1,0,0,,0,,,72,127
57720,note_on,0,0,0,,11,,,58,127
57783,note_off,63,0,0,,11,,,58,127
57784,note_on,1,0,0,,8,,,56,127
57847,note_off,63,0,0,,8,,,56,127
57848,note_on,1,0,0,,11,,,58,127
57911,note_off,63,0,0,,11,,,58,127
57912,note_on,1,0,0,,8,,,56,127
57975,note_off,63,0,0,,8,,,56,127
57975,note_off,0,0,0,,0,,,72,127
57976,note_on,1,0,0,,2,,,74,127
57976,note_on,0,0,0,,11,,,58,127
58039,note_off,63,0,0,,11,,,58,127
58040,note_on,1,0,0,,8,,,56,127
58103,note_off,63,0,0,,8,,,56,127
58104,note_on,1,0,0,,7,,,55,127
58167,note_off,63,0,0,,7,,,55,127
58168,note_on,1,0,0,,8,,,56,127
58231,note_off,63,0,0,,8,,,56,127
58231,note_off,0,0,0,,3,,,63,127
58232,note_on,1,0,0,,7,,,67,127
58232,note_on,0,0,0,,11,,,58,127
58487,note_off,255,0,0,,11,,,58,127
58487,note_off,0,0,0,,2,,,74,127
58488,note_on,1,0,0,,3,,,75,127
58488,note_on,0,0,0,,2,,,62,127
58551,note_off,63,0,0,,2,,,62,127
58552,note_on,1,0,0,,0,,,60,127
58615,note_off,63,0,0,,0,,,60,127
58616,note_on,1,0,0,,2,,,62,127
58679,note_off,63,0,0,,2,,,62,127
58680,note_on,1,0,0,,0,,,60,127
58743,note_off,63,0,0,,0,,,60,127
58743,note_off,0,0,0,,3,,,75,127
58744,note_on,1,0,0,,5,,,77,127
58744,note_on,0,0,0,,2,,,62,127
58807,note_off,63,0,0,,2,,,62,127
58808,note_on,1,0,0,,0,,,60,127
58871,note_off,63,0,0,,0,,,60,127
58872,note_on,1,0,0,,11,,,58,127
58935,note_off,63,0,0,,11,,,58,127
58936,note_on,1,0,0,,0,,,60,127
58999,note_off,63,0,0,,0,,,60,127
58999,note_off,0,0,0,,7,,,67,127
59000,note_on,1,0,0,,11,,,70,127
59000,note_on,0,0,0,,2,,,62,127
59255,note_off,255,0,0,,2,,,62,127
59255,note_off,0,0,0,,5,,,77,127
59256,note_on,1,0,0,,7,,,79,127
59256,note_on,0,0,0,,5,,,65,127
59319,note_off,63,0,0,,5,,,65,127
59320,note_on,1,0,0,,3,,,63,127
59383,note_off,63,0,0,,3,,,63,127
59384,note_on,1,0,0,,5,,,65,127
59447,note_off,63,0,0,,5,,,65,127
59448,note_on,1,0,0,,3,,,63,127
59511,note_off,63,0,0,,3,,,63,127
59511,note_off,0,0,0,,7,,,79,127
59512,note_on,1,0,0,,8,,,80,127
59512,note_on,0,0,0,,5,,,65,127
59575,note_off,63,0,0,,5,,,65,127
59576,note_on,1,0,0,,3,,,63,127
59639,note_off,63,0,0,,3,,,63,127
59640,note_on,1,0,0,,2,,,62,127
59703,note_off,63,0,0,,2,,,62,127
59704,note_on,1,0,0,,3,,,63,127
59767,note_off,63,0,0,,3,,,63,127
59767,note_off,0,0,0,,11,,,70,127
59768,note_on,1,0,0,,2,,,74,127
59768,note_on,0,0,0,,5,,,65,127
60023,note_off,255,0,0,,5,,,65,127
60023,note_off,0,0,0,,8,,,80,127
60024,note_on,1,0,0,,11,,,82,127
60024,note_on,0,0,0,,8,,,68,127
60087,note_off,63,0,0,,8,,,68,127
60088,note_on,1,0,0,,7,,,67,127
60151,note_off,63,0,0,,7,,,67,127
60152,note_on,1,0,0,,8,,,68,127
60215,note_off,63,0,0,,8,,,68,127
60216,note_on,1,0,0,,7,,,67,127
60279,note_off,63,0,0,,7,,,67,127
60279,note_off,0,0,0,,11,,,82,127
60280,note_on,1,0,0,,0,,,84,127
60280,note_on,0,0,0,,8,,,68,127
60343,note_off,63,0,0,,8,,,68,127
60344,note_on,1,0,0,,7,,,67,127
60407,note_off,63,0,0,,7,,,67,127
60408,note_on,1,0,0,,5,,,65,127
60471,note_off,63,0,0,,5,,,65,127
60472,note_on,1,0,0,,7,,,67,127
60535,note_off,63,0,0,,7,,,67,127
60535,note_off,0,0,0,,0,,,84,127
60535,note_off,0,0,0,,2,,,74,127
60536,note_on,1,0,0,,3,,,75,127
60536,note_on,0,0,0,,8,,,68,127
60791,note_off,255,0,0,,8,,,68,127
60791,note_off,0,0,0,,3,,,75,127
60792,note_on,1,0,0,,2,,,74,127
60792,note_on,0,0,0,,3,,,75,127
60792,note_on,0,0,0,,11,,,70,127
61047,note_off,255,0,0,,3,,,75,127
61047,note_off,0,0,0,,2,,,74,127
61048,note_on,1,0,0,,0,,,72,127
61303,note_off,255,0,0,,0,,,72,127
61303,note_off,0,0,0,,11,,,70,127
61304,note_on,1,0,0,,11,,,70,127
61304,note_on,0,0,0,,11,,,58,127
61559,note_off,255,0,0,,11,,,58,127
61559,note_off,0,0,0,,11,,,70,127
61560,note_on,1,0,0,,0,,,84,127
61560,note_on,0,0,0,,7,,,55,127
61623,note_off,63,0,0,,0,,,84,127
61624,note_on,1,0,0,,11,,,82,127
61687,note_off,63,0,0,,11,,,82,127
61688,note_on,1,0,0,,0,,,84,127
61751,note_off,63,0,0,,0,,,84,127
61752,note_on,1,0,0,,11,,,82,127
61815,note_off,63,0,0,,11,,,82,127
61816,note_on,1,0,0,,0,,,84,127
61816,note_on,0,0,0,,7,,,67,127
61879,note_off,63,0,0,,0,,,84,127
61880,note_on,1,0,0,,11,,,82,127
61943,note_off,63,0,0,,11,,,82,127
61944,note_on,1,0,0,,8,,,80,127
62007,note_off,63,0,0,,8,,,80,127
62008,note_on,1,0,0,,11,,,82,127
62071,note_off,63,0,0,,11,,,82,127
62071,note_off,0,0,0,,7,,,67,127
62071,note_off,0,0,0,,7,,,55,127
62072,note_on,1,0,0,,3,,,75,127
62072,note_on,0,0,0,,0,,,84,127
62072,note_on,0,0,0,,8,,,68,127
62327,note_off,255,0,0,,8,,,68,127
62327,note_off,0,0,0,,0,,,84,127
62327,note_off,0,0,0,,3,,,75,127
62328,note_on,1,0,0,,3,,,75,127
62328,note_on,0,0,0,,11,,,58,127
62391,note_off,63,0,0,,3,,,75,127
62392,note_on,1,0,0,,2,,,74,127
62455,note_off,63,0,0,,2,,,74,127
62456,note_on,1,0,0,,3,,,75,127
62519,note_off,63,0,0,,3,,,75,127
62520,note_on,1,0,0,,2,,,74,127
62583,note_off,63,0,0,,2,,,74,127
62584,note_on,1,0,0,,3,,,75,127
62584,note_on,0,0,0,,11,,,70,127
62647,note_off,63,0,0,,3,,,75,127
62648,note_on,1,0,0,,2,,,74,127
62711,note_off,63,0,0,,2,,,74,127
62712,note_on,1,0,0,,0,,,72,127
62775,note_off,63,0,0,,0,,,72,127
62776,note_on,1,0,0,,2,,,74,127
62839,note_off,63,0,0,,2,,,74,127
62839,note_off,0,0,0,,11,,,70,127
62839,note_off,0,0,0,,11,,,58,127
62840,note_on,1,0,0,,3,,,75,127
62840,note_on,0,0,0,,0,,,72,127
63095,note_off,255,0,0,,0,,,72,127
63095,note_off,0,0,0,,3,,,75,127
63096,note_on,1,0,0,,0,,,84,127
63096,note_on,0,0,0,,7,,,55,127
63159,note_off,63,0,0,,0,,,84,127
63160,note_on,1,0,0,,11,,,82,127
63223,note_off,63,0,0,,11,,,82,127
63224,note_on,1,0,0,,0,,,84,127
63287,note_off,63,0,0,,0,,,84,127
63288,note_on,1,0,0,,11,,,82,127
63351,note_off,63,0,0,,11,,,82,127
63352,note_on,1,0,0,,0,,,84,127
63352,note_on,0,0,0,,7,,,67,127
63415,note_off,63,0,0,,0,,,84,127
63416,note_on,1,0,0,,11,,,82,127
63479,note_off,63,0,0,,11,,,82,127
63480,note_on,1,0,0,,8,,,80,127
63543,note_off,63,0,0,,8,,,80,127
63544,note_on,1,0,0,,11,,,82,127
63607,note_off,63,0,0,,11,,,82,127
63607,note_off,0,0,0,,7,,,67,127
63607,note_off,0,0,0,,7,,,55,127
63608,note_on,1,0,0,,3,,,75,127
63608,note_on,0,0,0,,0,,,84,127
63608,note_on,0,0,0,,8,,,68,127
63863,note_off,255,0,0,,8,,,68,127
63863,note_off,0,0,0,,0,,,84,127
63863,note_off,0,0,0,,3,,,75,127
63864,note_on,1,0,0,,3,,,75,127
63864,note_on,0,0,0,,11,,,70,127
63927,note_off,63,0,0,,3,,,75,127
63928,note_on,1,0,0,,2,,,74,127
63991,note_off,63,0,0,,2,,,74,127
63992,note_on,1,0,0,,3,,,75,127
64055,note_off,63,0,0,,3,,,75,127
64056,note_on,1,0,0,,2,,,74,127
64119,note_off,63,0,0,,2,,,74,127
64119,note_off,0,0,0,,11,,,70,127
64120,note_on,1,0,0,,3,,,75,127
64120,note_on,0,0,0,,8,,,68,127
64183,note_off,63,0,0,,3,,,75,127
64184,note_on,1,0,0,,2,,,74,127
64247,note_off,63,0,0,,2,,,74,127
64248,note_on,1,0,0,,0,,,72,127
64311,note_off,63,0,0,,0,,,72,127
64312,note_on,1,0,0,,2,,,74,127
64375,note_off,63,0,0,,2,,,74,127
64375,note_off,0,0,0,,8,,,68,127
64376,note_on,1,0,0,,3,,,75,127
64376,note_on,0,0,0,,7,,,67,127
64631,note_off,255,0,0,,7,,,67,127
64631,note_off,0,0,0,,3,,,75,127
64632,note_on,1,0,0,,5,,,77,127
64632,note_on,0,0,0,,8,,,56,127
64716,note_off,84,0,0,,5,,,77,127
64717,note_on,1,0,0,,7,,,79,127
64801,note_off,84,0,0,,7,,,79,127
64802,note_on,1,0,0,,8,,,80,127
64886,note_off,84,0,0,,8,,,80,127
64886,note_off,0,0,0,,8,,,56,127
64887,note_on,1,0,0,,7,,,79,127
64887,note_on,0,0,0,,3,,,75,127
64887,note_on,0,0,0,,11,,,58,127
65142,note_off,255,0,0,,3,,,75,127
65142,note_off,0,0,0,,7,,,79,127
65143,note_on,1,0,0,,1,,,73,127
65143,note_on,0,0,0,,5,,,77,127
65143,note_on,0,0,0,,11,,,70,127
65398,note_off,255,0,0,,1,,,73,127
65398,note_off,0,0,0,,11,,,58,127
65399,note_on,1,0,0,,0,,,72,127
65399,note_on,0,0,0,,0,,,60,127
65654,note_off,255,0,0,,0,,,72,127
65654,note_off,0,0,0,,11,,,70,127
65654,note_off,0,0,0,,5,,,77,127
65655,note_on,1,0,0,,4,,,76,127
65655,note_on,0,0,0,,11,,,70,127
65910,note_off,255,0,0,,11,,,70,127
65910,note_off,0,0,0,,4,,,76,127
65911,note_on,1,0,0,,5,,,77,127
65911,note_on,0,0,0,,8,,,68,127
66166,note_off,255,0,0,,8,,,68,127
66166,note_off,0,0,0,,5,,,77,127
66166,note_off,0,0,0,,0,,,60,127
66167,note_on,1,0,0,,7,,,79,127
66167,note_on,0,0,0,,11,,,58,127
66251,note_off,84,0,0,,7,,,79,127
66252,note_on,1,0,0,,8,,,80,127
66336,note_off,84,0,0,,8,,,80,127
66337,note_on,1,0,0,,11,,,82,127
66421,note_off,84,0,0,,11,,,82,127
66421,note_off,0,0,0,,11,,,58,127
66422,note_on,1,0,0,,5,,,77,127
66422,note_on,0,0,0,,8,,,80,127
66422,note_on,0,0,0,,0,,,60,127
66677,note_off,255,0,0,,8,,,80,127
66677,note_off,0,0,0,,5,,,77,127
66678,note_on,1,0,0,,7,,,79,127
66678,note_on,0,0,0,,3,,,75,127
66678,note_on,0,0,0,,0,,,72,127
66933,note_off,255,0,0,,0,,,72,127
66933,note_off,0,0,0,,3,,,75,127
66933,note_off,0,0,0,,0,,,60,127
66934,note_on,1,0,0,,2,,,74,127
66934,note_on,0,0,0,,2,,,62,127
67189,note_off,255,0,0,,2,,,74,127
67189,note_off,0,0,0,,7,,,79,127
67190,note_on,1,0,0,,6,,,78,127
67190,note_on,0,0,0,,0,,,72,127
67445,note_off,255,0,0,,0,,,72,127
67445,note_off,0,0,0,,6,,,78,127
67446,note_on,1,0,0,,7,,,79,127
67446,note_on,0,0,0,,11,,,70,127
67701,note_off,255,0,0,,11,,,70,127
67701,note_off,0,0,0,,7,,,79,127
67701,note_off,0,0,0,,2,,,62,127
67702,note_on,1,0,0,,10,,,81,127
67702,note_on,0,0,0,,0,,,60,127
67786,note_off,84,0,0,,10,,,81,127
67787,note_on,1,0,0,,11,,,82,127
67871,note_off,84,0,0,,11,,,82,127
67872,note_on,1,0,0,,0,,,84,127
67956,note_off,84,0,0,,0,,,84,127
67956,note_off,0,0,0,,0,,,60,127
67957,note_on,1,0,0,,7,,,79,127
67957,note_on,0,0,0,,11,,,82,127
67957,note_on,0,0,0,,2,,,62,127
68212,note_off,255,0,0,,11,,,82,127
68212,note_off,0,0,0,,7,,,79,127
68213,note_on,1,0,0,,10,,,81,127
68213,note_on,0,0,0,,6,,,78,127
68213,note_on,0,0,0,,2,,,74,127
68468,note_off,255,0,0,,2,,,74,127
68468,note_off,0,0,0,,6,,,78,127
68468,note_off,0,0,0,,10,,,81,127
68468,note_off,0,0,0,,2,,,62,127
68469,note_on,1,0,0,,7,,,79,127
68469,note_on,0,0,0,,12,,,59,127
68724,note_off,255,0,0,,7,,,79,127
68725,note_on,1,0,0,,2,,,74,127
68725,note_on,0,0,0,,7,,,67,127
68980,note_off,255,0,0,,7,,,67,127
68980,note_off,0,0,0,,2,,,74,127
68980,note_off,0,0,0,,12,,,59,127
68981,note_on,1,0,0,,3,,,75,127
68981,note_on,0,0,0,,0,,,60,127
69236,note_off,255,0,0,,0,,,60,127
69236,note_off,0,0,0,,3,,,75,127
69237,note_on,1,0,0,,5,,,77,127
69237,note_on,0,0,0,,8,,,56,127
69492,note_off,255,0,0,,5,,,77,127
69493,note_on,1,0,0,,12,,,71,127
69493,note_on,0,0,0,,5,,,65,127
69748,note_off,255,0,0,,5,,,65,127
69748,note_off,0,0,0,,12,,,71,127
69748,note_off,0,0,0,,8,,,56,127
69749,note_on,1,0,0,,0,,,72,127
69749,note_on,0,0,0,,8,,,56,127
70004,note_off,255,0,0,,8,,,56,127
70004,note_off,0,0,0,,0,,,72,127
70005,note_on,1,0,0,,2,,,74,127
70005,note_on,0,0,0,,7,,,67,127
70005,note_on,0,0,0,,7,,,55,127
70260,note_off,255,0,0,,7,,,55,127
70260,note_off,0,0,0,,7,,,67,127
70260,note_off,0,0,0,,2,,,74,127
70261,note_on,1,0,0,,12,,,71,127
70261,note_on,0,0,0,,8,,,80,127
70261,note_on,0,0,0,,5,,,65,127
70516,note_off,255,0,0,,5,,,65,127
70516,note_off,0,0,0,,8,,,80,127
70516,note_off,0,0,0,,12,,,71,127
70517,note_on,1,0,0,,0,,,72,127
70517,note_on,0,0,0,,7,,,79,127
70517,note_on,0,0,0,,3,,,63,127
70772,note_off,255,0,0,,3,,,63,127
70772,note_off,0,0,0,,7,,,79,127
70772,note_off,0,0,0,,0,,,72,127
70773,note_on,1,0,0,,2,,,74,127
70773,note_on,0,0,0,,5,,,77,127
70773,note_on,0,0,0,,2,,,62,127
71028,note_off,255,0,0,,2,,,62,127
71028,note_off,0,0,0,,2,,,74,127
71029,note_on,1,0,0,,0,,,60,127
71093,note_off,64,0,0,,5,,,77,127
71093,note_on,0,0,0,,3,,,75,127
71156,note_off,63,0,0,,3,,,75,127
71157,note_on,1,0,0,,5,,,77,127
71220,note_off,63,0,0,,5,,,77,127
71221,note_on,1,0,0,,3,,,75,127
71284,note_off,63,0,0,,3,,,75,127
71285,note_on,1,0,0,,5,,,77,127
71285,note_on,0,0,0,,0,,,48,127
71348,note_off,63,0,0,,5,,,77,127
71349,note_on,1,0,0,,3,,,75,127
71412,note_off,63,0,0,,3,,,75,127
71413,note_on,1,0,0,,2,,,74,127
71476,note_off,63,0,0,,2,,,74,127
71477,note_on,1,0,0,,3,,,75,127
71540,note_off,63,0,0,,3,,,75,127
71540,note_off,0,0,0,,0,,,48,127
71540,note_off,0,0,0,,0,,,60,127
71541,note_on,1,0,0,,2,,,74,127
71541,note_on,0,0,0,,7,,,55,127
71796,note_off,255,0,0,,7,,,55,127
71796,note_off,0,0,0,,2,,,74,127
71797,note_on,1,0,0,,12,,,71,127
71797,note_on,0,0,0,,5,,,53,127
72052,note_off,255,0,0,,5,,,53,127
72052,note_off,0,0,0,,12,,,71,127
72053,note_on,1,0,0,,0,,,72,127
72053,note_on,0,0,0,,3,,,51,127
72308,note_off,255,0,0,,3,,,51,127
72308,note_off,0,0,0,,0,,,72,127
72309,note_on,1,0,0,,12,,,71,127
72309,note_on,0,0,0,,2,,,50,127
72564,note_off,255,0,0,,2,,,50,127
72564,note_off,0,0,0,,12,,,71,127
72565,note_on,1,0,0,,2,,,74,127
72565,note_on,0,0,0,,3,,,51,127
72628,note_off,63,0,0,,2,,,74,127
72629,note_on,1,0,0,,0,,,72,127
72692,note_off,63,0,0,,0,,,72,127
72693,note_on,1,0,0,,2,,,74,127
72756,note_off,63,0,0,,2,,,74,127
72757,note_on,1,0,0,,0,,,72,127
72820,note_off,63,0,0,,0,,,72,127
72820,note_off,0,0,0,,3,,,51,127
72821,note_on,1,0,0,,2,,,74,127
72821,note_on,0,0,0,,0,,,48,127
72884,note_off,63,0,0,,2,,,74,127
72885,note_on,1,0,0,,0,,,72,127
72948,note_off,63,0,0,,0,,,72,127
72949,note_on,1,0,0,,12,,,71,127
73012,note_off,63,0,0,,12,,,71,127
73013,note_on,1,0,0,,0,,,72,127
73076,note_off,63,0,0,,0,,,72,127
73076,note_off,0,0,0,,0,,,48,127
73077,note_on,1,0,0,,0,,,72,127
73077,note_on,0,0,0,,7,,,55,127
73332,note_off,255,0,0,,0,,,72,127
73333,note_on,1,0,0,,2,,,74,127
73589,note_on,256,0,0,,7,,,43,127
73842,note_off,253,0,0,,7,,,43,127
73843,note_off,1,0,0,,2,,,74,127
73843,note_off,0,0,0,,7,,,55,127
73844,note_on,1,0,0,,3,,,75,127
73844,note_on,0,0,0,,12,,,59,127
73907,note_off,63,0,0,,3,,,75,127
73908,note_on,1,0,0,,2,,,74,127
73971,note_off,63,0,0,,2,,,74,127
73972,note_on,1,0,0,,3,,,75,127
74035,note_off,63,0,0,,3,,,75,127
74036,note_on,1,0,0,,2,,,74,127
74099,note_off,63,0,0,,2,,,74,127
74099,note_off,0,0,0,,12,,,59,127
74100,note_on,1,0,0,,3,,,75,127
74100,note_on,0,0,0,,7,,,55,127
74163,note_off,63,0,0,,3,,,75,127
74164,note_on,1,0,0,,2,,,74,127
74227,note_off,63,0,0,,2,,,74,127
74228,note_on,1,0,0,,0,,,72,127
74291,note_off,63,0,0,,0,,,72,127
74292,note_on,1,0,0,,2,,,74,127
74355,note_off,63,0,0,,2,,,74,127
74355,note_off,0,0,0,,7,,,55,127
74356,note_on,1,0,0,,7,,,67,127
74356,note_on,0,0,0,,3,,,75,127
74356,note_on,0,0,0,,0,,,60,127
74611,note_off,255,0,0,,0,,,60,127
74611,note_off,0,0,0,,3,,,75,127
74611,note_off,0,0,0,,7,,,67,127
74612,note_on,1,0,0,,2,,,74,127
74612,note_on,0,0,0,,8,,,68,127
74612,note_on,0,0,0,,12,,,59,127
74675,note_off,63,0,0,,8,,,68,127
74676,note_on,1,0,0,,7,,,67,127
74739,note_off,63,0,0,,7,,,67,127
74740,note_on,1,0,0,,8,,,68,127
74803,note_off,63,0,0,,8,,,68,127
74804,note_on,1,0,0,,7,,,67,127
74867,note_off,63,0,0,,7,,,67,127
74867,note_off,0,0,0,,12,,,59,127
74868,note_on,1,0,0,,8,,,68,127
74868,note_on,0,0,0,,7,,,55,127
74931,note_off,63,0,0,,8,,,68,127
74932,note_on,1,0,0,,7,,,67,127
74995,note_off,63,0,0,,7,,,67,127
74996,note_on,1,0,0,,5,,,65,127
75059,note_off,63,0,0,,5,,,65,127
75060,note_on,1,0,0,,7,,,67,127
75123,note_off,63,0,0,,7,,,67,127
75123,note_off,0,0,0,,7,,,55,127
75123,note_off,0,0,0,,2,,,74,127
75124,note_on,1,0,0,,0,,,72,127
75124,note_on,0,0,0,,8,,,68,127
75124,note_on,0,0,0,,5,,,53,127
75379,note_off,255,0,0,,5,,,53,127
75379,note_off,0,0,0,,8,,,68,127
75379,note_off,0,0,0,,0,,,72,127
75380,note_on,1,0,0,,3,,,75,127
75380,note_on,0,0,0,,12,,,59,127
75443,note_off,63,0,0,,3,,,75,127
75444,note_on,1,0,0,,2,,,74,127
75507,note_off,63,0,0,,2,,,74,127
75508,note_on,1,0,0,,3,,,75,127
75571,note_off,63,0,0,,3,,,75,127
75572,note_on,1,0,0,,2,,,74,127
75635,note_off,63,0,0,,2,,,74,127
75635,note_off,0,0,0,,12,,,59,127
75636,note_on,1,0,0,,3,,,75,127
75636,note_on,0,0,0,,7,,,55,127
75699,note_off,63,0,0,,3,,,75,127
75700,note_on,1,0,0,,2,,,74,127
75763,note_off,63,0,0,,2,,,74,127
75764,note_on,1,0,0,,0,,,72,127
75827,note_off,63,0,0,,0,,,72,127
75828,note_on,1,0,0,,2,,,74,127
75891,note_off,63,0,0,,2,,,74,127
75891,note_off,0,0,0,,7,,,55,127
75892,note_on,1,0,0,,7,,,67,127
75892,note_on,0,0,0,,3,,,75,127
75892,note_on,0,0,0,,0,,,60,127
76147,note_off,255,0,0,,0,,,60,127
76147,note_off,0,0,0,,3,,,75,127
76147,note_off,0,0,0,,7,,,67,127
76148,note_on,1,0,0,,2,,,74,127
76148,note_on,0,0,0,,8,,,68,127
76148,note_on,0,0,0,,12,,,59,127
76211,note_off,63,0,0,,8,,,68,127
76212,note_on,1,0,0,,7,,,67,127
76275,note_off,63,0,0,,7,,,67,127
76276,note_on,1,0,0,,8,,,68,127
76339,note_off,63,0,0,,8,,,68,127
76340,note_on,1,0,0,,7,,,67,127
76403,note_off,63,0,0,,7,,,67,127
76403,note_off,0,0,0,,12,,,59,127
76404,note_on,1,0,0,,8,,,68,127
76404,note_on,0,0,0,,7,,,55,127
76467,note_off,63,0,0,,8,,,68,127
76468,note_on,1,0,0,,7,,,67,127
76531,note_off,63,0,0,,7,,,67,127
76532,note_on,1,0,0,,5,,,65,127
76595,note_off,63,0,0,,5,,,65,127
76596,note_on,1,0,0,,7,,,67,127
76659,note_off,63,0,0,,7,,,67,127
76659,note_off,0,0,0,,7,,,55,127
76659,note_off,0,0,0,,2,,,74,127
76660,note_on,1,0,0,,0,,,72,127
76660,note_on,0,0,0,,8,,,68,127
76660,note_on,0,0,0,,5,,,53,127
76915,note_off,255,0,0,,5,,,53,127
76915,note_off,0,0,0,,8,,,68,127
76915,note_off,0,0,0,,0,,,72,127
76916,note_on,1,0,0,,2,,,74,127
76916,note_on,0,0,0,,12,,,59,127
77171,note_off,255,0,0,,2,,,74,127
77172,note_on,1,0,0,,5,,,77,127
77427,note_off,255,0,0,,5,,,77,127
77427,note_off,0,0,0,,12,,,59,127
77428,note_on,1,0,0,,3,,,75,127
77428,note_on,0,0,0,,7,,,67,127
77428,note_on,0,0,0,,0,,,60,127
77683,note_off,255,0,0,,0,,,60,127
77683,note_off,0,0,0,,7,,,67,127
77684,note_on,1,0,0,,7,,,67,127
77684,note_on,0,0,0,,7,,,55,127
77939,note_off,255,0,0,,7,,,67,127
77939,note_off,0,0,0,,3,,,75,127
77940,note_on,1,0,0,,5,,,65,127
77940,note_on,0,0,0,,2,,,74,127
78195,note_off,255,0,0,,2,,,74,127
78195,note_off,0,0,0,,5,,,65,127
78195,note_off,0,0,0,,7,,,55,127
78196,note_on,1,0,0,,3,,,63,127
78196,note_on,0,0,0,,0,,,72,127
78196,note_on,0,0,0,,8,,,56,127
78451,note_off,255,0,0,,8,,,56,127
78451,note_off,0,0,0,,0,,,72,127
78451,note_off,0,0,0,,3,,,63,127
78452,note_on,1,0,0,,5,,,65,127
78452,note_on,0,0,0,,2,,,74,127
78452,note_on,0,0,0,,5,,,53,127
78707,note_off,255,0,0,,5,,,53,127
78707,note_off,0,0,0,,2,,,74,127
78707,note_off,0,0,0,,5,,,65,127
78708,note_on,1,0,0,,3,,,63,127
78708,note_on,0,0,0,,0,,,72,127
78708,note_on,0,0,0,,7,,,55,127
78963,note_off,255,0,0,,0,,,72,127
78963,note_off,0,0,0,,3,,,63,127
78964,note_on,1,0,0,,12,,,71,127
78964,note_on,0,0,0,,2,,,62,127
78964,note_on,0,0,0,,7,,,43,127
79215,note_off,251,0,0,,7,,,55,127
79219,note_off,4,0,0,,7,,,43,127
79219,note_off,0,0,0,,2,,,62,127
79219,note_off,0,0,0,,12,,,71,127
79220,note_on,1,0,0,,12,,,71,127
79220,note_on,0,0,0,,2,,,62,127
79220,note_on,0,0,0,,0,,,48,127
79475,note_off,255,0,0,,2,,,62,127
79475,note_off,0,0,0,,12,,,71,127
79476,note_on,1,0,0,,3,,,63,127
79476,note_on,0,0,0,,0,,,72,127
79476,note_on,0,0,0,,0,,,36,127
79731,note_off,255,0,0,,3,,,63,127
79731,note_off,0,0,0,,0,,,48,127
79732,note_on,1,0,0,,0,,,60,127
79987,note_off,255,0,0,,0,,,60,127
79987,note_off,0,0,0,,0,,,36,127
79987,note_off,0,0,0,,0,,,72,127
79988,note_on,1,0,0,,3,,,75,127
79988,note_on,0,0,0,,12,,,59,127
80051,note_off,63,0,0,,3,,,75,127
80052,note_on,1,0,0,,2,,,74,127
80115,note_off,63,0,0,,2,,,74,127
80116,note_on,1,0,0,,3,,,75,127
80179,note_off,63,0,0,,3,,,75,127
80180,note_on,1,0,0,,2,,,74,127
80243,note_off,63,0,0,,2,,,74,127
80243,note_off,0,0,0,,12,,,59,127
80244,note_on,1,0,0,,3,,,75,127
80244,note_on,0,0,0,,7,,,55,127
80307,note_off,63,0,0,,3,,,75,127
80308,note_on,1,0,0,,2,,,74,127
80371,note_off,63,0,0,,2,,,74,127
80372,note_on,1,0,0,,0,,,72,127
80435,note_off,63,0,0,,0,,,72,127
80436,note_on,1,0,0,,2,,,74,127
80499,note_off,63,0,0,,2,,,74,127
80499,note_off,0,0,0,,7,,,55,127
80500,note_on,1,0,0,,3,,,75,127
80500,note_on,0,0,0,,7,,,67,127
80500,note_on,0,0,0,,0,,,60,127
80755,note_off,255,0,0,,0,,,60,127
80755,note_off,0,0,0,,7,,,67,127
80755,note_off,0,0,0,,3,,,75,127
80756,note_on,1,0,0,,2,,,74,127
80756,note_on,0,0,0,,8,,,68,127
80756,note_on,0,0,0,,12,,,59,127
80819,note_off,63,0,0,,8,,,68,127
80820,note_on,1,0,0,,7,,,67,127
80883,note_off,63,0,0,,7,,,67,127
80884,note_on,1,0,0,,8,,,68,127
80947,note_off,63,0,0,,8,,,68,127
80948,note_on,1,0,0,,7,,,67,127
81011,note_off,63,0,0,,7,,,67,127
81011,note_off,0,0,0,,12,,,59,127
81012,note_on,1,0,0,,8,,,68,127
81012,note_on,0,0,0,,7,,,55,127
81075,note_off,63,0,0,,8,,,68,127
81076,note_on,1,0,0,,7,,,67,127
81139,note_off,63,0,0,,7,,,67,127
81140,note_on,1,0,0,,5,,,65,127
81203,note_off,63,0,0,,5,,,65,127
81204,note_on,1,0,0,,7,,,67,127
81267,note_off,63,0,0,,7,,,67,127
81267,note_off,0,0,0,,7,,,55,127
81267,note_off,0,0,0,,2,,,74,127
81268,note_on,1,0,0,,8,,,68,127
81268,note_on,0,0,0,,0,,,72,127
81268,note_on,0,0,0,,5,,,53,127
81523,note_off,255,0,0,,5,,,53,127
81523,note_off,0,0,0,,0,,,72,127
81523,note_off,0,0,0,,8,,,68,127
81524,note_on,1,0,0,,3,,,75,127
81524,note_on,0,0,0,,12,,,59,127
81587,note_off,63,0,0,,3,,,75,127
81588,note_on,1,0,0,,2,,,74,127
81651,note_off,63,0,0,,2,,,74,127
81652,note_on,1,0,0,,3,,,75,127
81715,note_off,63,0,0,,3,,,75,127
81716,note_on,1,0,0,,2,,,74,127
81779,note_off,63,0,0,,2,,,74,127
81779,note_off,0,0,0,,12,,,59,127
81780,note_on,1,0,0,,3,,,75,127
81780,note_on,0,0,0,,7,,,55,127
81843,note_off,63,0,0,,3,,,75,127
81844,note_on,1,0,0,,2,,,74,127
81907,note_off,63,0,0,,2,,,74,127
81908,note_on,1,0,0,,0,,,72,127
81971,note_off,63,0,0,,0,,,72,127
81972,note_on,1,0,0,,2,,,74,127
82035,note_off,63,0,0,,2,,,74,127
82035,note_off,0,0,0,,7,,,55,127
82036,note_on,1,0,0,,3,,,75,127
82036,note_on,0,0,0,,7,,,67,127
82036,note_on,0,0,0,,0,,,60,127
82291,note_off,255,0,0,,0,,,60,127
82291,note_off,0,0,0,,7,,,67,127
82291,note_off,0,0,0,,3,,,75,127
82292,note_on,1,0,0,,2,,,74,127
82292,note_on,0,0,0,,8,,,68,127
82292,note_on,0,0,0,,12,,,59,127
82355,note_off,63,0,0,,8,,,68,127
82356,note_on,1,0,0,,7,,,67,127
82419,note_off,63,0,0,,7,,,67,127
82420,note_on,1,0,0,,8,,,68,127
82483,note_off,63,0,0,,8,,,68,127
82484,note_on,1,0,0,,7,,,67,127
82547,note_off,63,0,0,,7,,,67,127
82547,note_off,0,0,0,,12,,,59,127
82548,note_on,1,0,0,,8,,,68,127
82548,note_on,0,0,0,,7,,,55,127
82611,note_off,63,0,0,,8,,,68,127
82612,note_on,1,0,0,,7,,,67,127
82675,note_off,63,0,0,,7,,,67,127
82676,note_on,1,0,0,,5,,,65,127
82739,note_off,63,0,0,,5,,,65,127
82740,note_on,1,0,0,,7,,,67,127
82803,note_off,63,0,0,,7,,,67,127
82803,note_off,0,0,0,,7,,,55,127
82803,note_off,0,0,0,,2,,,74,127
82804,note_on,1,0,0,,0,,,72,127
82804,note_on,0,0,0,,8,,,68,127
82804,note_on,0,0,0,,5,,,53,127
83059,note_off,255,0,0,,5,,,53,127
83059,note_off,0,0,0,,8,,,68,127
83059,note_off,0,0,0,,0,,,72,127
83060,note_on,1,0,0,,2,,,74,127
83060,note_on,0,0,0,,12,,,59,127
83315,note_off,255,0,0,,2,,,74,127
83316,note_on,1,0,0,,5,,,77,127
83571,note_off,255,0,0,,5,,,77,127
83571,note_off,0,0,0,,12,,,59,127
83572,note_on,1,0,0,,7,,,67,127
83572,note_on,0,0,0,,3,,,75,127
83572,note_on,0,0,0,,0,,,60,127
83827,note_off,255,0,0,,0,,,60,127
83827,note_off,0,0,0,,7,,,67,127
83828,note_on,1,0,0,,7,,,67,127
83828,note_on,0,0,0,,7,,,55,127
84083,note_off,255,0,0,,7,,,67,127
84083,note_off,0,0,0,,3,,,75,127
84084,note_on,1,0,0,,5,,,65,127
84084,note_on,0,0,0,,2,,,74,127
84339,note_off,255,0,0,,2,,,74,127
84339,note_off,0,0,0,,5,,,65,127
84339,note_off,0,0,0,,7,,,55,127
84340,note_on,1,0,0,,0,,,72,127
84340,note_on,0,0,0,,3,,,63,127
84340,note_on,0,0,0,,8,,,56,127
84595,note_off,255,0,0,,8,,,56,127
84595,note_off,0,0,0,,3,,,63,127
84595,note_off,0,0,0,,0,,,72,127
84596,note_on,1,0,0,,5,,,65,127
84596,note_on,0,0,0,,2,,,74,127
84596,note_on,0,0,0,,5,,,53,127
84851,note_off,255,0,0,,5,,,53,127
84851,note_off,0,0,0,,2,,,74,127
84851,note_off,0,0,0,,5,,,65,127
84852,note_on,1,0,0,,3,,,63,127
84852,note_on,0,0,0,,0,,,72,127
84852,note_on,0,0,0,,7,,,55,127
85107,note_off,255,0,0,,0,,,72,127
85107,note_off,0,0,0,,3,,,63,127
85108,note_on,1,0,0,,2,,,62,127
85108,note_on,0,0,0,,12,,,71,127
85108,note_on,0,0,0,,7,,,43,127
85363,note_off,255,0,0,,7,,,43,127
85363,note_off,0,0,0,,12,,,71,127
85363,note_off,0,0,0,,2,,,62,127
85363,note_off,0,0,0,,7,,,55,127
85364,note_on,1,0,0,,0,,,60,127
85364,note_on,0,0,0,,0,,,48,127
85448,note_off,84,0,0,,0,,,60,127
85449,note_on,1,0,0,,3,,,63,127
85533,note_off,84,0,0,,3,,,63,127
85534,note_on,1,0,0,,7,,,67,127
85618,note_off,84,0,0,,7,,,67,127
85619,note_on,1,0,0,,0,,,72,127
85703,note_off,84,0,0,,0,,,72,127
85704,note_on,1,0,0,,3,,,75,127
85788,note_off,84,0,0,,3,,,75,127
85789,note_on,1,0,0,,7,,,79,127
85873,note_off,84,0,0,,7,,,79,127
85874,note_on,1,0,0,,0,,,84,127
86129,note_off,255,0,0,,0,,,48,127
86130,note_on,1,0,0,,7,,,43,127
86385,note_off,255,0,0,,0,,,84,127
86386,note_on,1,0,0,,3,,,63,127
86386,note_on,0,0,0,,0,,,72,127
86641,note_off,255,0,0,,0,,,72,127
86641,note_off,0,0,0,,3,,,63,127
86642,note_on,1,0,0,,2,,,62,127
86642,note_on,0,0,0,,12,,,71,127
86897,note_off,255,0,0,,12,,,71,127
86897,note_off,0,0,0,,2,,,62,127
86897,note_off,0,0,0,,7,,,43,127
86901,note_on,4,0,0,,0,,,36,127
86901,note_on,0,0,0,,0,,,48,127
86901,note_on,0,0,0,,0,,,60,127
86986,note_off,85,0,0,,0,,,60,127
86989,note_on,3,0,0,,3,,,63,127
87074,note_off,85,0,0,,3,,,63,127
87077,note_on,3,0,0,,7,,,67,127
87162,note_off,85,0,0,,7,,,67,127
87165,note_on,3,0,0,,0,,,72,127
87250,note_off,85,0,0,,0,,,72,127
87253,note_on,3,0,0,,3,,,75,127
87338,note_off,85,0,0,,3,,,75,127
87341,note_on,3,0,0,,7,,,79,127
87426,note_off,85,0,0,,7,,,79,127
87429,note_on,3,0,0,,0,,,84,127
87690,note_off,261,0,0,,0,,,48,127
87690,note_off,0,0,0,,0,,,36,127
87693,note_on,3,0,0,,7,,,43,127
87693,note_on,0,0,0,,7,,,31,127
87954,note_off,261,0,0,,0,,,84,127
87955,note_on,1,0,0,,0,,,72,127
87955,note_on,0,0,0,,3,,,63,127
88216,note_off,261,0,0,,3,,,63,127
88216,note_off,0,0,0,,0,,,72,127
88219,note_on,3,0,0,,2,,,62,127
88219,note_on,0,0,0,,12,,,71,127
88480,note_off,261,0,0,,12,,,71,127
88480,note_off,0,0,0,,2,,,62,127
88481,note_off,1,0,0,,7,,,31,127
88481,note_off,0,0,0,,7,,,43,127
88482,note_on,1,0,0,,0,,,36,127
88482,note_on,0,0,0,,0,,,48,127
88482,note_on,0,0,0,,12,,,71,127
88482,note_on,0,0,0,,2,,,62,127
89009,note_off,527,0,0,,2,,,62,127
89009,note_off,0,0,0,,12,,,71,127
89009,note_on,0,0,0,,0,,,72,127
89009,note_on,0,0,0,,3,,,63,127
90590,note_off,1581,0,0,,3,,,63,127
90590,note_off,0,0,0,,0,,,72,127
90591,note_off,1,0,0,,0,,,48,127
90591,note_off,0,0,0,,0,,,36,127
95232,end_of_track,4641,1,0,,,,,,
