tick,type,time,meta,track,program,channel,pitch,tempo,note,velocity
0,copyright,0,1,0,,,,,,
0,program_change,0,0,0,6,0,,,,
0,pitchwheel,0,0,0,,0,0,,,
0,program_change,0,0,0,6,1,,,,
0,pitchwheel,0,0,0,,1,-590,,,
0,program_change,0,0,0,6,2,,,,
0,pitchwheel,0,0,0,,2,-272,,,
0,program_change,0,0,0,6,3,,,,
0,pitchwheel,0,0,0,,3,-353,,,
0,program_change,0,0,0,6,4,,,,
0,pitchwheel,0,0,0,,4,-560,,,
0,program_change,0,0,0,6,5,,,,
0,pitchwheel,0,0,0,,5,-80,,,
0,program_change,0,0,0,6,6,,,,
0,pitchwheel,0,0,0,,6,-625,,,
0,program_change,0,0,0,6,7,,,,
0,pitchwheel,0,0,0,,7,-130,,,
0,program_change,0,0,0,6,8,,,,
0,pitchwheel,0,0,0,,8,-512,,,
0,program_change,0,0,0,6,10,,,,
0,pitchwheel,0,0,0,,10,-464,,,
0,program_change,0,0,0,6,11,,,,
0,pitchwheel,0,0,0,,11,-208,,,
0,program_change,0,0,0,6,12,,,,
0,pitchwheel,0,0,0,,12,-553,,,
0,set_tempo,0,1,0,,,,500000,,
125,note_on,125,0,0,,7,,,43,127
375,note_on,250,0,0,,2,,,74,127
375,note_on,0,0,0,,12,,,71,127
499,note_off,124,0,0,,2,,,74,127
500,note_on,1,0,0,,4,,,76,127
624,note_off,124,0,0,,4,,,76,127
624,note_off,0,0,0,,12,,,71,127
625,note_on,1,0,0,,12,,,71,127
625,note_on,0,0,0,,2,,,74,127
874,note_off,249,0,0,,2,,,74,127
874,note_off,0,0,0,,12,,,71,127
874,note_off,0,0,0,,7,,,43,127
875,note_on,1,0,0,,7,,,55,127
875,note_on,0,0,0,,12,,,71,127
875,note_on,0,0,0,,2,,,74,127
1124,note_off,249,0,0,,2,,,74,127
1124,note_off,0,0,0,,12,,,71,127
1124,note_off,0,0,0,,7,,,55,127
1125,note_on,1,0,0,,7,,,55,127
1125,note_on,0,0,0,,7,,,79,127
1374,note_off,249,0,0,,7,,,79,127
1374,note_off,0,0,0,,7,,,55,127
1375,note_on,1,0,0,,7,,,55,127
1375,note_on,0,0,0,,12,,,71,127
1375,note_on,0,0,0,,2,,,74,127
1499,note_off,124,0,0,,2,,,74,127
1500,note_on,1,0,0,,4,,,76,127
1624,note_off,124,0,0,,4,,,76,127
1624,note_off,0,0,0,,12,,,71,127
1625,note_on,1,0,0,,12,,,71,127
1625,note_on,0,0,0,,2,,,74,127
1750,note_off,125,0,0,,7,,,55,127
1874,note_off,124,0,0,,2,,,74,127
1874,note_off,0,0,0,,12,,,71,127
1875,note_on,1,0,0,,7,,,55,127
1875,note_on,0,0,0,,12,,,71,127
1875,note_on,0,0,0,,2,,,74,127
2124,note_off,249,0,0,,2,,,74,127
2124,note_off,0,0,0,,12,,,71,127
2124,note_off,0,0,0,,7,,,55,127
2125,note_on,1,0,0,,7,,,55,127
2125,note_on,0,0,0,,7,,,79,127
2374,note_off,249,0,0,,7,,,79,127
2374,note_off,0,0,0,,7,,,55,127
2375,note_on,1,0,0,,7,,,67,127
2375,note_on,0,0,0,,12,,,71,127
2375,note_on,0,0,0,,2,,,74,127
2624,note_off,249,0,0,,2,,,74,127
2624,note_off,0,0,0,,12,,,71,127
2624,note_off,0,0,0,,7,,,67,127
2625,note_on,1,0,0,,0,,,60,127
2625,note_on,0,0,0,,0,,,72,127
2625,note_on,0,0,0,,4,,,76,127
2874,note_off,249,0,0,,4,,,76,127
2874,note_off,0,0,0,,0,,,72,127
2874,note_off,0,0,0,,0,,,60,127
2875,note_on,1,0,0,,6,,,66,127
2875,note_on,0,0,0,,10,,,69,127
2875,note_on,0,0,0,,0,,,72,127
3124,note_off,249,0,0,,0,,,72,127
3124,note_off,0,0,0,,10,,,69,127
3124,note_off,0,0,0,,6,,,66,127
3125,note_on,1,0,0,,12,,,59,127
3125,note_on,0,0,0,,12,,,71,127
3125,note_on,0,0,0,,2,,,74,127
3374,note_off,249,0,0,,2,,,74,127
3374,note_off,0,0,0,,12,,,71,127
3374,note_off,0,0,0,,12,,,59,127
3375,note_on,1,0,0,,4,,,64,127
3375,note_on,0,0,0,,7,,,67,127
3375,note_on,0,0,0,,12,,,71,127
3624,note_off,249,0,0,,12,,,71,127
3624,note_off,0,0,0,,7,,,67,127
3624,note_off,0,0,0,,4,,,64,127
3625,note_on,1,0,0,,10,,,57,127
3625,note_on,0,0,0,,10,,,69,127
3625,note_on,0,0,0,,0,,,72,127
3874,note_off,249,0,0,,0,,,72,127
3874,note_off,0,0,0,,10,,,69,127
3874,note_off,0,0,0,,10,,,57,127
3875,note_on,1,0,0,,2,,,62,127
3875,note_on,0,0,0,,10,,,69,127
3875,note_on,0,0,0,,6,,,66,127
4124,note_off,249,0,0,,6,,,66,127
4124,note_off,0,0,0,,10,,,69,127
4124,note_off,0,0,0,,2,,,62,127
4125,note_on,1,0,0,,7,,,55,127
4125,note_on,0,0,0,,12,,,71,127
4374,note_off,249,0,0,,12,,,71,127
4374,note_off,0,0,0,,7,,,55,127
4375,note_on,1,0,0,,7,,,67,127
4375,note_on,0,0,0,,12,,,83,127
4624,note_off,249,0,0,,12,,,83,127
4625,note_on,1,0,0,,7,,,79,127
4625,note_on,0,0,0,,10,,,81,127
4750,note_off,125,0,0,,7,,,67,127
4874,note_off,124,0,0,,10,,,81,127
4874,note_off,0,0,0,,7,,,79,127
4875,note_on,1,0,0,,7,,,67,127
4875,note_on,0,0,0,,4,,,76,127
5124,note_off,249,0,0,,4,,,76,127
5124,note_off,0,0,0,,7,,,67,127
5125,note_on,1,0,0,,7,,,67,127
5125,note_on,0,0,0,,11,,,70,127
5249,note_off,124,0,0,,11,,,70,127
5250,note_on,1,0,0,,12,,,71,127
5374,note_off,124,0,0,,12,,,71,127
5374,note_off,0,0,0,,7,,,67,127
5375,note_on,1,0,0,,7,,,67,127
5375,note_on,0,0,0,,1,,,73,127
5499,note_off,124,0,0,,1,,,73,127
5500,note_on,1,0,0,,2,,,74,127
5624,note_off,124,0,0,,2,,,74,127
5625,note_on,1,0,0,,4,,,76,127
5749,note_off,124,0,0,,4,,,76,127
5750,note_off,1,0,0,,7,,,67,127
5750,note_on,0,0,0,,6,,,78,127
5874,note_off,124,0,0,,6,,,78,127
5875,note_on,1,0,0,,7,,,67,127
5875,note_on,0,0,0,,7,,,79,127
5999,note_off,124,0,0,,7,,,79,127
6000,note_on,1,0,0,,8,,,80,127
6124,note_off,124,0,0,,8,,,80,127
6124,note_off,0,0,0,,7,,,67,127
6125,note_on,1,0,0,,7,,,67,127
6125,note_on,0,0,0,,10,,,81,127
6374,note_off,249,0,0,,10,,,81,127
6374,note_off,0,0,0,,7,,,67,127
6375,note_on,1,0,0,,6,,,66,127
6375,note_on,0,0,0,,10,,,81,127
6624,note_off,249,0,0,,10,,,81,127
6625,note_on,1,0,0,,6,,,78,127
6625,note_on,0,0,0,,7,,,79,127
6750,note_off,125,0,0,,6,,,66,127
6874,note_off,124,0,0,,7,,,79,127
6874,note_off,0,0,0,,6,,,78,127
6875,note_on,1,0,0,,6,,,66,127
6875,note_on,0,0,0,,2,,,74,127
7124,note_off,249,0,0,,2,,,74,127
7124,note_off,0,0,0,,6,,,66,127
7125,note_on,1,0,0,,6,,,66,127
7125,note_on,0,0,0,,8,,,68,127
7249,note_off,124,0,0,,8,,,68,127
7250,note_on,1,0,0,,10,,,69,127
7374,note_off,124,0,0,,10,,,69,127
7374,note_off,0,0,0,,6,,,66,127
7375,note_on,1,0,0,,6,,,66,127
7375,note_on,0,0,0,,11,,,70,127
7499,note_off,124,0,0,,11,,,70,127
7500,note_on,1,0,0,,12,,,71,127
7624,note_off,124,0,0,,12,,,71,127
7625,note_on,1,0,0,,1,,,73,127
7749,note_off,124,0,0,,1,,,73,127
7750,note_off,1,0,0,,6,,,66,127
7750,note_on,0,0,0,,2,,,74,127
7874,note_off,124,0,0,,2,,,74,127
7875,note_on,1,0,0,,4,,,76,127
7999,note_off,124,0,0,,4,,,76,127
8000,note_on,1,0,0,,6,,,78,127
8124,note_off,124,0,0,,6,,,78,127
8125,note_on,1,0,0,,7,,,79,127
8249,note_off,124,0,0,,7,,,79,127
8250,note_on,1,0,0,,8,,,80,127
8374,note_off,124,0,0,,8,,,80,127
8375,note_on,1,0,0,,2,,,62,127
8375,note_on,0,0,0,,10,,,81,127
8499,note_off,124,0,0,,10,,,81,127
8500,note_on,1,0,0,,6,,,78,127
8624,note_off,124,0,0,,6,,,78,127
8624,note_off,0,0,0,,2,,,62,127
8625,note_on,1,0,0,,1,,,61,127
8625,note_on,0,0,0,,7,,,79,127
8749,note_off,124,0,0,,7,,,79,127
8750,note_on,1,0,0,,4,,,76,127
8874,note_off,124,0,0,,4,,,76,127
8874,note_off,0,0,0,,1,,,61,127
8875,note_on,1,0,0,,10,,,57,127
8875,note_on,0,0,0,,10,,,81,127
8999,note_off,124,0,0,,10,,,81,127
9000,note_on,1,0,0,,7,,,79,127
9124,note_off,124,0,0,,7,,,79,127
9124,note_off,0,0,0,,10,,,57,127
9125,note_on,1,0,0,,2,,,62,127
9125,note_on,0,0,0,,6,,,78,127
9374,note_off,249,0,0,,6,,,78,127
9375,note_on,1,0,0,,2,,,50,127
9375,note_on,0,0,0,,10,,,81,127
9499,note_off,124,0,0,,10,,,81,127
9500,note_on,1,0,0,,6,,,78,127
9624,note_off,124,0,0,,6,,,78,127
9625,note_on,1,0,0,,2,,,74,127
9749,note_off,124,0,0,,2,,,74,127
9750,note_on,1,0,0,,10,,,69,127
9874,note_off,124,0,0,,10,,,69,127
9874,note_off,0,0,0,,2,,,50,127
9874,note_off,0,0,0,,2,,,62,127
9875,note_on,1,0,0,,2,,,62,127
9875,note_on,0,0,0,,6,,,66,127
9999,note_off,124,0,0,,6,,,66,127
10000,note_on,1,0,0,,8,,,68,127
10124,note_off,124,0,0,,8,,,68,127
10124,note_off,0,0,0,,2,,,62,127
10125,note_on,1,0,0,,1,,,61,127
10125,note_on,0,0,0,,10,,,69,127
10374,note_off,249,0,0,,10,,,69,127
10375,note_on,1,0,0,,1,,,49,127
10375,note_on,0,0,0,,10,,,81,127
10499,note_off,124,0,0,,10,,,81,127
10500,note_on,1,0,0,,4,,,76,127
10624,note_off,124,0,0,,4,,,76,127
10625,note_on,1,0,0,,1,,,73,127
10749,note_off,124,0,0,,1,,,73,127
10750,note_on,1,0,0,,10,,,69,127
10874,note_off,124,0,0,,10,,,69,127
10874,note_off,0,0,0,,1,,,49,127
10874,note_off,0,0,0,,1,,,61,127
10875,note_on,1,0,0,,1,,,61,127
10875,note_on,0,0,0,,4,,,64,127
10999,note_off,124,0,0,,4,,,64,127
11000,note_on,1,0,0,,6,,,66,127
11124,note_off,124,0,0,,6,,,66,127
11124,note_off,0,0,0,,1,,,61,127
11125,note_on,1,0,0,,12,,,59,127
11125,note_on,0,0,0,,7,,,67,127
11249,note_off,124,0,0,,7,,,67,127
11250,note_on,1,0,0,,1,,,73,127
11374,note_off,124,0,0,,1,,,73,127
11374,note_off,0,0,0,,12,,,59,127
11375,note_on,1,0,0,,12,,,59,127
11375,note_on,0,0,0,,2,,,74,127
11499,note_off,124,0,0,,2,,,74,127
11500,note_on,1,0,0,,4,,,64,127
11624,note_off,124,0,0,,4,,,64,127
11624,note_off,0,0,0,,12,,,59,127
11625,note_on,1,0,0,,10,,,57,127
11625,note_on,0,0,0,,6,,,66,127
11749,note_off,124,0,0,,6,,,66,127
11750,note_on,1,0,0,,1,,,73,127
11874,note_off,124,0,0,,1,,,73,127
11874,note_off,0,0,0,,10,,,57,127
11875,note_on,1,0,0,,10,,,57,127
11875,note_on,0,0,0,,2,,,74,127
11999,note_off,124,0,0,,2,,,74,127
12000,note_on,1,0,0,,2,,,62,127
12124,note_off,124,0,0,,2,,,62,127
12124,note_off,0,0,0,,10,,,57,127
12125,note_on,1,0,0,,7,,,55,127
12125,note_on,0,0,0,,4,,,64,127
12249,note_off,124,0,0,,4,,,64,127
12250,note_on,1,0,0,,6,,,66,127
12374,note_off,124,0,0,,6,,,66,127
12375,note_on,1,0,0,,7,,,67,127
12499,note_off,124,0,0,,7,,,67,127
12500,note_on,1,0,0,,10,,,69,127
12624,note_off,124,0,0,,10,,,69,127
12625,note_on,1,0,0,,12,,,71,127
12749,note_off,124,0,0,,12,,,71,127
12750,note_on,1,0,0,,3,,,75,127
12874,note_off,124,0,0,,3,,,75,127
12875,note_on,1,0,0,,4,,,76,127
12999,note_off,124,0,0,,4,,,76,127
13000,note_on,1,0,0,,6,,,78,127
13124,note_off,124,0,0,,6,,,78,127
13124,note_off,0,0,0,,7,,,55,127
13125,note_on,1,0,0,,7,,,79,127
13249,note_off,124,0,0,,7,,,79,127
13250,note_on,1,0,0,,11,,,82,127
13374,note_off,124,0,0,,11,,,82,127
13375,note_on,1,0,0,,12,,,83,127
13499,note_off,124,0,0,,12,,,83,127
13500,note_on,1,0,0,,6,,,78,127
13624,note_off,124,0,0,,6,,,78,127
13625,note_on,1,0,0,,7,,,79,127
13749,note_off,124,0,0,,7,,,79,127
13750,note_on,1,0,0,,2,,,74,127
13874,note_off,124,0,0,,2,,,74,127
13875,note_on,1,0,0,,4,,,64,127
13875,note_on,0,0,0,,7,,,55,127
13875,note_on,0,0,0,,4,,,76,127
13999,note_off,124,0,0,,4,,,76,127
14000,note_on,1,0,0,,12,,,71,127
14124,note_off,124,0,0,,12,,,71,127
14124,note_off,0,0,0,,7,,,55,127
14124,note_off,0,0,0,,4,,,64,127
14125,note_on,1,0,0,,4,,,64,127
14125,note_on,0,0,0,,7,,,55,127
14125,note_on,0,0,0,,2,,,74,127
14186,note_off,61,0,0,,2,,,74,127
14187,note_on,1,0,0,,1,,,73,127
14248,note_off,61,0,0,,1,,,73,127
14249,note_on,1,0,0,,12,,,71,127
14310,note_off,61,0,0,,12,,,71,127
14311,note_on,1,0,0,,1,,,73,127
14372,note_off,61,0,0,,1,,,73,127
14372,note_off,0,0,0,,7,,,55,127
14372,note_off,0,0,0,,4,,,64,127
14373,note_on,1,0,0,,2,,,62,127
14373,note_on,0,0,0,,6,,,54,127
14373,note_on,0,0,0,,2,,,74,127
14622,note_off,249,0,0,,6,,,54,127
14622,note_off,0,0,0,,2,,,62,127
14623,note_on,1,0,0,,2,,,62,127
14623,note_on,0,0,0,,6,,,54,127
14872,note_off,249,0,0,,6,,,54,127
14872,note_off,0,0,0,,2,,,62,127
14872,note_off,0,0,0,,2,,,74,127
14873,note_on,1,0,0,,2,,,62,127
14873,note_on,0,0,0,,6,,,54,127
14873,note_on,0,0,0,,10,,,81,127
15122,note_off,249,0,0,,10,,,81,127
15122,note_off,0,0,0,,6,,,54,127
15122,note_off,0,0,0,,2,,,62,127
15123,note_on,1,0,0,,2,,,62,127
15123,note_on,0,0,0,,7,,,55,127
15123,note_on,0,0,0,,11,,,82,127
15247,note_off,124,0,0,,11,,,82,127
15248,note_on,1,0,0,,12,,,83,127
15372,note_off,124,0,0,,12,,,83,127
15373,note_on,1,0,0,,10,,,81,127
15373,note_on,0,0,0,,7,,,79,127
15434,note_off,61,0,0,,7,,,79,127
15434,note_off,0,0,0,,10,,,81,127
15435,note_on,1,0,0,,6,,,78,127
15496,note_off,61,0,0,,6,,,78,127
15497,note_on,1,0,0,,4,,,76,127
15621,note_off,124,0,0,,4,,,76,127
15622,note_on,1,0,0,,3,,,75,127
15746,note_off,124,0,0,,3,,,75,127
15747,note_off,1,0,0,,7,,,55,127
15747,note_off,0,0,0,,2,,,62,127
15747,note_on,0,0,0,,4,,,76,127
15871,note_off,124,0,0,,4,,,76,127
15872,note_on,1,0,0,,7,,,55,127
15872,note_on,0,0,0,,2,,,62,127
15872,note_on,0,0,0,,6,,,78,127
15996,note_off,124,0,0,,6,,,78,127
15997,note_on,1,0,0,,7,,,79,127
16121,note_off,124,0,0,,7,,,79,127
16121,note_off,0,0,0,,2,,,62,127
16121,note_off,0,0,0,,7,,,55,127
16122,note_on,1,0,0,,2,,,62,127
16122,note_on,0,0,0,,6,,,54,127
16122,note_on,0,0,0,,8,,,80,127
16246,note_off,124,0,0,,8,,,80,127
16247,note_on,1,0,0,,10,,,81,127
16371,note_off,124,0,0,,10,,,81,127
16372,note_on,1,0,0,,6,,,78,127
16372,note_on,0,0,0,,7,,,79,127
16433,note_off,61,0,0,,7,,,79,127
16433,note_off,0,0,0,,6,,,78,127
16434,note_on,1,0,0,,4,,,76,127
16495,note_off,61,0,0,,4,,,76,127
16496,note_on,1,0,0,,2,,,74,127
16620,note_off,124,0,0,,2,,,74,127
16621,note_on,1,0,0,,1,,,73,127
16745,note_off,124,0,0,,1,,,73,127
16746,note_off,1,0,0,,6,,,54,127
16746,note_off,0,0,0,,2,,,62,127
16746,note_on,0,0,0,,2,,,74,127
16870,note_off,124,0,0,,2,,,74,127
16871,note_on,1,0,0,,2,,,62,127
16871,note_on,0,0,0,,6,,,54,127
16871,note_on,0,0,0,,4,,,76,127
16995,note_off,124,0,0,,4,,,76,127
16996,note_on,1,0,0,,6,,,78,127
17120,note_off,124,0,0,,6,,,78,127
17120,note_off,0,0,0,,6,,,54,127
17120,note_off,0,0,0,,2,,,62,127
17121,note_on,1,0,0,,7,,,55,127
17121,note_on,0,0,0,,11,,,70,127
17245,note_off,124,0,0,,11,,,70,127
17246,note_on,1,0,0,,12,,,71,127
17370,note_off,124,0,0,,12,,,71,127
17371,note_on,1,0,0,,7,,,67,127
17371,note_on,0,0,0,,10,,,81,127
17371,note_on,0,0,0,,7,,,79,127
17432,note_off,61,0,0,,7,,,79,127
17432,note_off,0,0,0,,10,,,81,127
17433,note_on,1,0,0,,6,,,78,127
17494,note_off,61,0,0,,6,,,78,127
17495,note_on,1,0,0,,4,,,76,127
17619,note_off,124,0,0,,4,,,76,127
17619,note_off,0,0,0,,7,,,67,127
17619,note_off,0,0,0,,7,,,55,127
17620,note_on,1,0,0,,6,,,66,127
17620,note_on,0,0,0,,10,,,57,127
17620,note_on,0,0,0,,2,,,74,127
17869,note_off,249,0,0,,6,,,66,127
17870,note_on,1,0,0,,4,,,64,127
17933,note_off,63,0,0,,2,,,74,127
17933,note_on,0,0,0,,1,,,73,127
17994,note_off,61,0,0,,1,,,73,127
17995,note_on,1,0,0,,2,,,74,127
18056,note_off,61,0,0,,2,,,74,127
18057,note_on,1,0,0,,1,,,73,127
18118,note_off,61,0,0,,4,,,64,127
18118,note_off,0,0,0,,10,,,57,127
18119,note_on,1,0,0,,7,,,55,127
18243,note_off,124,0,0,,1,,,73,127
18244,note_on,1,0,0,,12,,,83,127
18368,note_off,124,0,0,,12,,,83,127
18369,note_on,1,0,0,,7,,,67,127
18369,note_on,0,0,0,,7,,,79,127
18493,note_off,124,0,0,,7,,,79,127
18494,note_on,1,0,0,,4,,,76,127
18618,note_off,124,0,0,,4,,,76,127
18618,note_off,0,0,0,,7,,,67,127
18618,note_off,0,0,0,,7,,,55,127
18619,note_on,1,0,0,,10,,,57,127
18619,note_on,0,0,0,,6,,,66,127
18619,note_on,0,0,0,,2,,,74,127
18868,note_off,249,0,0,,6,,,66,127
18869,note_on,1,0,0,,4,,,64,127
18932,note_off,63,0,0,,2,,,74,127
18932,note_on,0,0,0,,1,,,73,127
18993,note_off,61,0,0,,1,,,73,127
18994,note_on,1,0,0,,2,,,74,127
19055,note_off,61,0,0,,2,,,74,127
19056,note_on,1,0,0,,1,,,73,127
19117,note_off,61,0,0,,1,,,73,127
19117,note_off,0,0,0,,4,,,64,127
19117,note_off,0,0,0,,10,,,57,127
19118,note_on,1,0,0,,7,,,55,127
19118,note_on,0,0,0,,2,,,74,127
19242,note_off,124,0,0,,2,,,74,127
19243,note_on,1,0,0,,3,,,75,127
19367,note_off,124,0,0,,3,,,75,127
19368,note_on,1,0,0,,7,,,67,127
19368,note_on,0,0,0,,4,,,76,127
19492,note_off,124,0,0,,4,,,76,127
19493,note_on,1,0,0,,6,,,78,127
19617,note_off,124,0,0,,6,,,78,127
19617,note_off,0,0,0,,7,,,67,127
19617,note_off,0,0,0,,7,,,55,127
19618,note_on,1,0,0,,7,,,79,127
19742,note_off,124,0,0,,7,,,79,127
19743,note_on,1,0,0,,10,,,81,127
19867,note_off,124,0,0,,10,,,81,127
19868,note_on,1,0,0,,11,,,82,127
19992,note_off,124,0,0,,11,,,82,127
19993,note_on,1,0,0,,12,,,83,127
20117,note_off,124,0,0,,12,,,83,127
20118,note_on,1,0,0,,2,,,74,127
20368,note_on,250,0,0,,2,,,62,127
20368,note_on,0,0,0,,6,,,54,127
20617,note_off,249,0,0,,6,,,54,127
20617,note_off,0,0,0,,2,,,74,127
20618,note_on,1,0,0,,7,,,55,127
20618,note_on,0,0,0,,6,,,78,127
20679,note_off,61,0,0,,6,,,78,127
20680,note_on,1,0,0,,4,,,76,127
20741,note_off,61,0,0,,4,,,76,127
20742,note_on,1,0,0,,6,,,78,127
20803,note_off,61,0,0,,6,,,78,127
20804,note_on,1,0,0,,4,,,76,127
20865,note_off,61,0,0,,4,,,76,127
20865,note_off,0,0,0,,7,,,55,127
20865,note_off,0,0,0,,2,,,62,127
20866,note_on,1,0,0,,10,,,57,127
20866,note_on,0,0,0,,1,,,61,127
20866,note_on,0,0,0,,6,,,78,127
20927,note_off,61,0,0,,6,,,78,127
20928,note_on,1,0,0,,4,,,76,127
20989,note_off,61,0,0,,4,,,76,127
20990,note_on,1,0,0,,2,,,74,127
21051,note_off,61,0,0,,2,,,74,127
21052,note_on,1,0,0,,4,,,76,127
21113,note_off,61,0,0,,4,,,76,127
21113,note_off,0,0,0,,1,,,61,127
21113,note_off,0,0,0,,10,,,57,127
21114,note_on,1,0,0,,2,,,62,127
21114,note_on,0,0,0,,12,,,59,127
21114,note_on,0,0,0,,2,,,74,127
21363,note_off,249,0,0,,2,,,74,127
21363,note_off,0,0,0,,12,,,59,127
21364,note_on,1,0,0,,7,,,55,127
21364,note_on,0,0,0,,2,,,86,127
21613,note_off,249,0,0,,2,,,86,127
21613,note_off,0,0,0,,2,,,62,127
21614,note_on,1,0,0,,12,,,83,127
21614,note_on,0,0,0,,0,,,84,127
21675,note_off,61,0,0,,0,,,84,127
21675,note_off,0,0,0,,12,,,83,127
21676,note_on,1,0,0,,10,,,81,127
21737,note_off,61,0,0,,10,,,81,127
21738,note_off,1,0,0,,7,,,55,127
21738,note_on,0,0,0,,7,,,79,127
21863,note_on,125,0,0,,1,,,61,127
22112,note_off,249,0,0,,1,,,61,127
22112,note_off,0,0,0,,7,,,79,127
22113,note_on,1,0,0,,2,,,62,127
22113,note_on,0,0,0,,7,,,79,127
22113,note_on,0,0,0,,6,,,78,127
22174,note_off,61,0,0,,6,,,78,127
22174,note_off,0,0,0,,7,,,79,127
22175,note_on,1,0,0,,4,,,76,127
22236,note_off,61,0,0,,4,,,76,127
22237,note_on,1,0,0,,2,,,74,127
22362,note_on,125,0,0,,2,,,50,127
22607,note_off,245,0,0,,2,,,62,127
22611,note_off,4,0,0,,2,,,50,127
22611,note_off,0,0,0,,2,,,74,127
22612,note_on,1,0,0,,4,,,52,127
22612,note_on,0,0,0,,0,,,72,127
22612,note_on,0,0,0,,2,,,74,127
22673,note_off,61,0,0,,2,,,74,127
22673,note_off,0,0,0,,0,,,72,127
22674,note_on,1,0,0,,12,,,71,127
22735,note_off,61,0,0,,12,,,71,127
22736,note_on,1,0,0,,11,,,70,127
22860,note_off,124,0,0,,4,,,52,127
22861,note_on,1,0,0,,6,,,54,127
23110,note_off,249,0,0,,6,,,54,127
23110,note_off,0,0,0,,11,,,70,127
23111,note_on,1,0,0,,7,,,55,127
23111,note_on,0,0,0,,12,,,71,127
23172,note_off,61,0,0,,12,,,71,127
23173,note_on,1,0,0,,10,,,69,127
23234,note_off,61,0,0,,10,,,69,127
23235,note_on,1,0,0,,7,,,67,127
23359,note_off,124,0,0,,7,,,67,127
23359,note_off,0,0,0,,7,,,55,127
23360,note_on,1,0,0,,7,,,55,127
23360,note_on,0,0,0,,6,,,66,127
23421,note_off,61,0,0,,6,,,66,127
23422,note_on,1,0,0,,4,,,64,127
23483,note_off,61,0,0,,4,,,64,127
23484,note_on,1,0,0,,2,,,62,127
23608,note_off,124,0,0,,2,,,62,127
23608,note_off,0,0,0,,7,,,55,127
23609,note_on,1,0,0,,10,,,57,127
23609,note_on,0,0,0,,6,,,66,127
23670,note_off,61,0,0,,6,,,66,127
23671,note_on,1,0,0,,4,,,64,127
23732,note_off,61,0,0,,4,,,64,127
23733,note_on,1,0,0,,6,,,66,127
23794,note_off,61,0,0,,6,,,66,127
23795,note_on,1,0,0,,4,,,64,127
23856,note_off,61,0,0,,4,,,64,127
23857,note_on,1,0,0,,10,,,45,127
23857,note_on,0,0,0,,6,,,66,127
23918,note_off,61,0,0,,6,,,66,127
23919,note_on,1,0,0,,4,,,64,127
23980,note_off,61,0,0,,4,,,64,127
23981,note_on,1,0,0,,2,,,62,127
24042,note_off,61,0,0,,2,,,62,127
24043,note_on,1,0,0,,4,,,64,127
24100,note_off,57,0,0,,10,,,57,127
24104,note_off,4,0,0,,4,,,64,127
24104,note_off,0,0,0,,10,,,45,127
24105,note_on,1,0,0,,2,,,50,127
24105,note_on,0,0,0,,2,,,62,127
24855,note_off,750,0,0,,2,,,62,127
25105,note_off,250,0,0,,2,,,50,127
25106,note_on,1,0,0,,7,,,55,127
25356,note_on,250,0,0,,12,,,71,127
25356,note_on,0,0,0,,2,,,74,127
25480,note_off,124,0,0,,2,,,74,127
25481,note_on,1,0,0,,4,,,76,127
25605,note_off,124,0,0,,4,,,76,127
25605,note_off,0,0,0,,12,,,71,127
25606,note_on,1,0,0,,2,,,74,127
25606,note_on,0,0,0,,12,,,71,127
25731,note_off,125,0,0,,7,,,55,127
25855,note_off,124,0,0,,12,,,71,127
25855,note_off,0,0,0,,2,,,74,127
25856,note_on,1,0,0,,7,,,67,127
25856,note_on,0,0,0,,2,,,74,127
25856,note_on,0,0,0,,12,,,71,127
26105,note_off,249,0,0,,7,,,67,127
26106,note_on,1,0,0,,5,,,65,127
26231,note_off,125,0,0,,12,,,71,127
26231,note_off,0,0,0,,2,,,74,127
26355,note_off,124,0,0,,5,,,65,127
26356,note_on,1,0,0,,5,,,65,127
26356,note_on,0,0,0,,2,,,74,127
26356,note_on,0,0,0,,10,,,69,127
26480,note_off,124,0,0,,2,,,74,127
26481,note_on,1,0,0,,4,,,76,127
26605,note_off,124,0,0,,4,,,76,127
26605,note_off,0,0,0,,10,,,69,127
26606,note_on,1,0,0,,2,,,74,127
26606,note_on,0,0,0,,10,,,69,127
26731,note_off,125,0,0,,5,,,65,127
26855,note_off,124,0,0,,10,,,69,127
26855,note_off,0,0,0,,2,,,74,127
26856,note_on,1,0,0,,5,,,65,127
26856,note_on,0,0,0,,10,,,69,127
26856,note_on,0,0,0,,2,,,74,127
27105,note_off,249,0,0,,10,,,69,127
27105,note_off,0,0,0,,5,,,65,127
27106,note_on,1,0,0,,7,,,67,127
27106,note_on,0,0,0,,4,,,64,127
27231,note_off,125,0,0,,2,,,74,127
27231,note_on,0,0,0,,1,,,73,127
27355,note_off,124,0,0,,1,,,73,127
27355,note_off,0,0,0,,4,,,64,127
27356,note_on,1,0,0,,2,,,62,127
27356,note_on,0,0,0,,7,,,79,127
27480,note_off,124,0,0,,7,,,79,127
27481,note_on,1,0,0,,5,,,77,127
27605,note_off,124,0,0,,5,,,77,127
27605,note_off,0,0,0,,2,,,62,127
27605,note_off,0,0,0,,7,,,67,127
27606,note_on,1,0,0,,1,,,61,127
27606,note_on,0,0,0,,10,,,69,127
27606,note_on,0,0,0,,5,,,77,127
27730,note_off,124,0,0,,5,,,77,127
27731,note_on,1,0,0,,4,,,76,127
27855,note_off,124,0,0,,4,,,76,127
27855,note_off,0,0,0,,1,,,61,127
27856,note_on,1,0,0,,10,,,57,127
27856,note_on,0,0,0,,10,,,81,127
27980,note_off,124,0,0,,10,,,81,127
27981,note_on,1,0,0,,7,,,79,127
28105,note_off,124,0,0,,10,,,57,127
28105,note_off,0,0,0,,10,,,69,127
28106,note_on,1,0,0,,2,,,62,127
28356,note_off,250,0,0,,7,,,79,127
28356,note_on,0,0,0,,2,,,50,127
28356,note_on,0,0,0,,10,,,69,127
28356,note_on,0,0,0,,5,,,77,127
28480,note_off,124,0,0,,5,,,77,127
28480,note_off,0,0,0,,10,,,69,127
28481,note_on,1,0,0,,4,,,76,127
28481,note_on,0,0,0,,8,,,68,127
28605,note_off,124,0,0,,8,,,68,127
28605,note_off,0,0,0,,4,,,76,127
28606,note_on,1,0,0,,5,,,77,127
28606,note_on,0,0,0,,10,,,69,127
28731,note_off,125,0,0,,2,,,50,127
28855,note_off,124,0,0,,10,,,69,127
28855,note_off,0,0,0,,5,,,77,127
28855,note_off,0,0,0,,2,,,62,127
28856,note_on,1,0,0,,2,,,62,127
28856,note_on,0,0,0,,5,,,77,127
28856,note_on,0,0,0,,10,,,69,127
29105,note_off,249,0,0,,2,,,62,127
29106,note_on,1,0,0,,0,,,60,127
29355,note_off,249,0,0,,10,,,69,127
29355,note_off,0,0,0,,5,,,77,127
29356,note_on,1,0,0,,0,,,48,127
29356,note_on,0,0,0,,0,,,72,127
29356,note_on,0,0,0,,4,,,76,127
29480,note_off,124,0,0,,4,,,76,127
29480,note_off,0,0,0,,0,,,72,127
29481,note_on,1,0,0,,12,,,71,127
29481,note_on,0,0,0,,2,,,74,127
29605,note_off,124,0,0,,2,,,74,127
29605,note_off,0,0,0,,12,,,71,127
29606,note_on,1,0,0,,0,,,72,127
29606,note_on,0,0,0,,4,,,76,127
29731,note_off,125,0,0,,0,,,48,127
29855,note_off,124,0,0,,4,,,76,127
29855,note_off,0,0,0,,0,,,72,127
29855,note_off,0,0,0,,0,,,60,127
29856,note_on,1,0,0,,0,,,60,127
29856,note_on,0,0,0,,4,,,76,127
29856,note_on,0,0,0,,0,,,72,127
30105,note_off,249,0,0,,0,,,72,127
30105,note_off,0,0,0,,0,,,60,127
30106,note_on,1,0,0,,12,,,59,127
30106,note_on,0,0,0,,2,,,62,127
30231,note_off,125,0,0,,4,,,76,127
30231,note_on,0,0,0,,2,,,74,127
30355,note_off,124,0,0,,2,,,74,127
30355,note_off,0,0,0,,12,,,59,127
30356,note_on,1,0,0,,10,,,57,127
30356,note_on,0,0,0,,2,,,74,127
30480,note_off,124,0,0,,2,,,74,127
30481,note_on,1,0,0,,0,,,72,127
30605,note_off,124,0,0,,0,,,72,127
30605,note_off,0,0,0,,10,,,57,127
30605,note_off,0,0,0,,2,,,62,127
30606,note_on,1,0,0,,4,,,64,127
30606,note_on,0,0,0,,8,,,56,127
30606,note_on,0,0,0,,0,,,72,127
30730,note_off,124,0,0,,0,,,72,127
30731,note_on,1,0,0,,12,,,71,127
30855,note_off,124,0,0,,12,,,71,127
30855,note_off,0,0,0,,8,,,56,127
30856,note_on,1,0,0,,4,,,52,127
30856,note_on,0,0,0,,4,,,76,127
30980,note_off,124,0,0,,4,,,76,127
30981,note_on,1,0,0,,2,,,74,127
31105,note_off,124,0,0,,4,,,52,127
31105,note_off,0,0,0,,4,,,64,127
31106,note_on,1,0,0,,10,,,57,127
31163,note_off,57,0,0,,2,,,74,127
31168,note_on,5,0,0,,0,,,72,127
31229,note_off,61,0,0,,0,,,72,127
31230,note_on,1,0,0,,2,,,74,127
31291,note_off,61,0,0,,2,,,74,127
31292,note_on,1,0,0,,0,,,72,127
31353,note_off,61,0,0,,0,,,72,127
31354,note_on,1,0,0,,10,,,81,127
31354,note_on,0,0,0,,0,,,72,127
31478,note_off,124,0,0,,0,,,72,127
31478,note_off,0,0,0,,10,,,81,127
31479,note_on,1,0,0,,8,,,80,127
31479,note_on,0,0,0,,12,,,71,127
31603,note_off,124,0,0,,12,,,71,127
31603,note_off,0,0,0,,8,,,80,127
31604,note_on,1,0,0,,10,,,81,127
31604,note_on,0,0,0,,0,,,72,127
31729,note_off,125,0,0,,10,,,57,127
31853,note_off,124,0,0,,0,,,72,127
31853,note_off,0,0,0,,10,,,81,127
31854,note_on,1,0,0,,5,,,65,127
31854,note_on,0,0,0,,10,,,81,127
31854,note_on,0,0,0,,0,,,72,127
31978,note_off,124,0,0,,5,,,65,127
31979,note_on,1,0,0,,4,,,64,127
32103,note_off,124,0,0,,4,,,64,127
32104,note_on,1,0,0,,5,,,65,127
32353,note_off,249,0,0,,0,,,72,127
32353,note_off,0,0,0,,10,,,81,127
32354,note_on,1,0,0,,5,,,53,127
32354,note_on,0,0,0,,0,,,84,127
32478,note_off,124,0,0,,0,,,84,127
32479,note_on,1,0,0,,10,,,81,127
32603,note_off,124,0,0,,10,,,81,127
32604,note_on,1,0,0,,5,,,77,127
32728,note_off,124,0,0,,5,,,77,127
32729,note_off,1,0,0,,5,,,53,127
32729,note_on,0,0,0,,0,,,72,127
32853,note_off,124,0,0,,0,,,72,127
32853,note_off,0,0,0,,5,,,65,127
32854,note_on,1,0,0,,5,,,65,127
32854,note_on,0,0,0,,10,,,69,127
32978,note_off,124,0,0,,10,,,69,127
32979,note_on,1,0,0,,12,,,71,127
33103,note_off,124,0,0,,12,,,71,127
33103,note_off,0,0,0,,5,,,65,127
33104,note_on,1,0,0,,4,,,64,127
33104,note_on,0,0,0,,0,,,72,127
33353,note_off,249,0,0,,0,,,72,127
33354,note_on,1,0,0,,4,,,52,127
33354,note_on,0,0,0,,0,,,84,127
33478,note_off,124,0,0,,0,,,84,127
33479,note_on,1,0,0,,7,,,79,127
33603,note_off,124,0,0,,7,,,79,127
33604,note_on,1,0,0,,4,,,76,127
33728,note_off,124,0,0,,4,,,76,127
33729,note_off,1,0,0,,4,,,52,127
33729,note_on,0,0,0,,0,,,72,127
33853,note_off,124,0,0,,0,,,72,127
33853,note_off,0,0,0,,4,,,64,127
33854,note_on,1,0,0,,4,,,64,127
33854,note_on,0,0,0,,7,,,67,127
33978,note_off,124,0,0,,7,,,67,127
33979,note_on,1,0,0,,10,,,69,127
34103,note_off,124,0,0,,10,,,69,127
34103,note_off,0,0,0,,4,,,64,127
34104,note_on,1,0,0,,2,,,62,127
34104,note_on,0,0,0,,12,,,71,127
34228,note_off,124,0,0,,12,,,71,127
34229,note_on,1,0,0,,5,,,77,127
34353,note_off,124,0,0,,2,,,62,127
34354,note_on,1,0,0,,0,,,60,127
34478,note_off,124,0,0,,5,,,77,127
34479,note_on,1,0,0,,10,,,69,127
34603,note_off,124,0,0,,10,,,69,127
34603,note_off,0,0,0,,0,,,60,127
34604,note_on,1,0,0,,12,,,59,127
34604,note_on,0,0,0,,10,,,69,127
34728,note_off,124,0,0,,10,,,69,127
34729,note_on,1,0,0,,7,,,67,127
34853,note_off,124,0,0,,7,,,67,127
34853,note_off,0,0,0,,12,,,59,127
34854,note_on,1,0,0,,7,,,55,127
34854,note_on,0,0,0,,7,,,67,127
34978,note_off,124,0,0,,7,,,67,127
34979,note_on,1,0,0,,5,,,65,127
35103,note_off,124,0,0,,5,,,65,127
35103,note_off,0,0,0,,7,,,55,127
35104,note_on,1,0,0,,0,,,60,127
35104,note_on,0,0,0,,3,,,63,127
35228,note_off,124,0,0,,3,,,63,127
35229,note_on,1,0,0,,4,,,64,127
35353,note_off,124,0,0,,4,,,64,127
35354,note_on,1,0,0,,0,,,48,127
35354,note_on,0,0,0,,6,,,66,127
35478,note_off,124,0,0,,6,,,66,127
35479,note_on,1,0,0,,7,,,67,127
35603,note_off,124,0,0,,7,,,67,127
35604,note_on,1,0,0,,10,,,69,127
35728,note_off,124,0,0,,10,,,69,127
35729,note_off,1,0,0,,0,,,48,127
35729,note_on,0,0,0,,12,,,71,127
35853,note_off,124,0,0,,12,,,71,127
35853,note_off,0,0,0,,0,,,60,127
35854,note_on,1,0,0,,0,,,60,127
35854,note_on,0,0,0,,0,,,72,127
35978,note_off,124,0,0,,0,,,72,127
35979,note_on,1,0,0,,1,,,73,127
36103,note_off,124,0,0,,1,,,73,127
36103,note_off,0,0,0,,0,,,60,127
36104,note_on,1,0,0,,0,,,60,127
36104,note_on,0,0,0,,2,,,74,127
36228,note_off,124,0,0,,2,,,74,127
36229,note_on,1,0,0,,2,,,74,127
36353,note_off,124,0,0,,2,,,74,127
36353,note_off,0,0,0,,0,,,60,127
36354,note_on,1,0,0,,12,,,59,127
36354,note_on,0,0,0,,4,,,76,127
36478,note_off,124,0,0,,4,,,76,127
36479,note_on,1,0,0,,6,,,78,127
36603,note_off,124,0,0,,6,,,78,127
36604,note_on,1,0,0,,7,,,79,127
36728,note_off,124,0,0,,7,,,79,127
36729,note_off,1,0,0,,12,,,59,127
36729,note_on,0,0,0,,7,,,79,127
36853,note_off,124,0,0,,7,,,79,127
36854,note_on,1,0,0,,2,,,62,127
36854,note_on,0,0,0,,12,,,59,127
36854,note_on,0,0,0,,10,,,81,127
36978,note_off,124,0,0,,10,,,81,127
36979,note_on,1,0,0,,12,,,83,127
37103,note_off,124,0,0,,12,,,83,127
37103,note_off,0,0,0,,12,,,59,127
37103,note_off,0,0,0,,2,,,62,127
37104,note_on,1,0,0,,0,,,60,127
37104,note_on,0,0,0,,10,,,57,127
37104,note_on,0,0,0,,0,,,72,127
37228,note_off,124,0,0,,0,,,72,127
37229,note_on,1,0,0,,0,,,72,127
37353,note_off,124,0,0,,0,,,72,127
37353,note_off,0,0,0,,10,,,57,127
37354,note_on,1,0,0,,7,,,55,127
37354,note_on,0,0,0,,2,,,74,127
37478,note_off,124,0,0,,2,,,74,127
37479,note_on,1,0,0,,4,,,76,127
37603,note_off,124,0,0,,4,,,76,127
37603,note_off,0,0,0,,7,,,55,127
37603,note_off,0,0,0,,0,,,60,127
37604,note_on,1,0,0,,2,,,62,127
37604,note_on,0,0,0,,6,,,54,127
37604,note_on,0,0,0,,6,,,78,127
37728,note_off,124,0,0,,6,,,78,127
37729,note_on,1,0,0,,7,,,79,127
37853,note_off,124,0,0,,7,,,79,127
37853,note_off,0,0,0,,6,,,54,127
37854,note_on,1,0,0,,2,,,50,127
37854,note_on,0,0,0,,10,,,81,127
37978,note_off,124,0,0,,10,,,81,127
37979,note_on,1,0,0,,0,,,72,127
38103,note_off,124,0,0,,0,,,72,127
38103,note_off,0,0,0,,2,,,50,127
38103,note_off,0,0,0,,2,,,62,127
38104,note_on,1,0,0,,7,,,55,127
38104,note_on,0,0,0,,2,,,74,127
38165,note_off,61,0,0,,2,,,74,127
38166,note_on,1,0,0,,0,,,72,127
38227,note_off,61,0,0,,0,,,72,127
38228,note_on,1,0,0,,12,,,71,127
38289,note_off,61,0,0,,12,,,71,127
38290,note_on,1,0,0,,0,,,72,127
38351,note_off,61,0,0,,0,,,72,127
38352,note_on,1,0,0,,7,,,43,127
38352,note_on,0,0,0,,12,,,71,127
38597,note_off,245,0,0,,7,,,55,127
38601,note_off,4,0,0,,7,,,43,127
38602,note_on,1,0,0,,7,,,43,127
38851,note_off,249,0,0,,12,,,71,127
38852,note_on,1,0,0,,2,,,74,127
39101,note_off,249,0,0,,2,,,74,127
39102,note_on,1,0,0,,3,,,75,127
39226,note_off,124,0,0,,3,,,75,127
39227,note_off,1,0,0,,7,,,43,127
39227,note_on,0,0,0,,4,,,76,127
39351,note_off,124,0,0,,4,,,76,127
39352,note_on,1,0,0,,0,,,60,127
39352,note_on,0,0,0,,2,,,74,127
39352,note_on,0,0,0,,0,,,72,127
39413,note_off,61,0,0,,0,,,72,127
39413,note_off,0,0,0,,2,,,74,127
39414,note_on,1,0,0,,12,,,71,127
39475,note_off,61,0,0,,12,,,71,127
39476,note_on,1,0,0,,10,,,69,127
39600,note_off,124,0,0,,10,,,69,127
39600,note_off,0,0,0,,0,,,60,127
39601,note_on,1,0,0,,0,,,60,127
39601,note_on,0,0,0,,8,,,68,127
39725,note_off,124,0,0,,8,,,68,127
39726,note_on,1,0,0,,10,,,69,127
39850,note_off,124,0,0,,10,,,69,127
39850,note_off,0,0,0,,0,,,60,127
39851,note_on,1,0,0,,0,,,60,127
39851,note_on,0,0,0,,12,,,71,127
39975,note_off,124,0,0,,12,,,71,127
39976,note_on,1,0,0,,0,,,72,127
40100,note_off,124,0,0,,0,,,72,127
40100,note_off,0,0,0,,0,,,60,127
40101,note_on,1,0,0,,0,,,60,127
40101,note_on,0,0,0,,1,,,73,127
40225,note_off,124,0,0,,1,,,73,127
40226,note_on,1,0,0,,2,,,74,127
40350,note_off,124,0,0,,2,,,74,127
40350,note_off,0,0,0,,0,,,60,127
40351,note_on,1,0,0,,12,,,59,127
40351,note_on,0,0,0,,12,,,71,127
40351,note_on,0,0,0,,0,,,72,127
40412,note_off,61,0,0,,0,,,72,127
40412,note_off,0,0,0,,12,,,71,127
40413,note_on,1,0,0,,10,,,69,127
40474,note_off,61,0,0,,10,,,69,127
40475,note_on,1,0,0,,7,,,67,127
40599,note_off,124,0,0,,7,,,67,127
40600,note_on,1,0,0,,6,,,66,127
40724,note_off,124,0,0,,6,,,66,127
40725,note_off,1,0,0,,12,,,59,127
40725,note_on,0,0,0,,7,,,67,127
40849,note_off,124,0,0,,7,,,67,127
40850,note_on,1,0,0,,12,,,59,127
40850,note_on,0,0,0,,10,,,69,127
40974,note_off,124,0,0,,10,,,69,127
40975,note_on,1,0,0,,12,,,71,127
41099,note_off,124,0,0,,12,,,71,127
41099,note_off,0,0,0,,12,,,59,127
41100,note_on,1,0,0,,0,,,48,127
41100,note_on,0,0,0,,3,,,75,127
41224,note_off,124,0,0,,3,,,75,127
41225,note_on,1,0,0,,4,,,76,127
41349,note_off,124,0,0,,4,,,76,127
41350,note_on,1,0,0,,0,,,60,127
41350,note_on,0,0,0,,0,,,72,127
41350,note_on,0,0,0,,2,,,74,127
41411,note_off,61,0,0,,2,,,74,127
41411,note_off,0,0,0,,0,,,72,127
41412,note_on,1,0,0,,12,,,71,127
41473,note_off,61,0,0,,12,,,71,127
41474,note_on,1,0,0,,10,,,69,127
41598,note_off,124,0,0,,10,,,69,127
41598,note_off,0,0,0,,0,,,60,127
41598,note_off,0,0,0,,0,,,48,127
41599,note_on,1,0,0,,12,,,59,127
41599,note_on,0,0,0,,2,,,50,127
41599,note_on,0,0,0,,7,,,67,127
41848,note_off,249,0,0,,12,,,59,127
41849,note_on,1,0,0,,10,,,57,127
41912,note_off,63,0,0,,7,,,67,127
41912,note_on,0,0,0,,6,,,66,127
41973,note_off,61,0,0,,6,,,66,127
41974,note_on,1,0,0,,7,,,67,127
42035,note_off,61,0,0,,7,,,67,127
42036,note_on,1,0,0,,6,,,66,127
42097,note_off,61,0,0,,10,,,57,127
42097,note_off,0,0,0,,2,,,50,127
42098,note_on,1,0,0,,0,,,48,127
42222,note_off,124,0,0,,6,,,66,127
42223,note_on,1,0,0,,4,,,76,127
42347,note_off,124,0,0,,4,,,76,127
42348,note_on,1,0,0,,0,,,60,127
42348,note_on,0,0,0,,0,,,72,127
42472,note_off,124,0,0,,0,,,72,127
42473,note_on,1,0,0,,10,,,69,127
42597,note_off,124,0,0,,10,,,69,127
42597,note_off,0,0,0,,0,,,60,127
42597,note_off,0,0,0,,0,,,48,127
42598,note_on,1,0,0,,12,,,59,127
42598,note_on,0,0,0,,2,,,50,127
42598,note_on,0,0,0,,7,,,67,127
42847,note_off,249,0,0,,12,,,59,127
42848,note_on,1,0,0,,10,,,57,127
42911,note_off,63,0,0,,7,,,67,127
42911,note_on,0,0,0,,6,,,66,127
42972,note_off,61,0,0,,6,,,66,127
42973,note_on,1,0,0,,7,,,67,127
43034,note_off,61,0,0,,7,,,67,127
43035,note_on,1,0,0,,6,,,66,127
43096,note_off,61,0,0,,10,,,57,127
43096,note_off,0,0,0,,2,,,50,127
43097,note_on,1,0,0,,0,,,48,127
43221,note_off,124,0,0,,6,,,66,127
43222,note_on,1,0,0,,8,,,68,127
43346,note_off,124,0,0,,8,,,68,127
43347,note_on,1,0,0,,0,,,60,127
43347,note_on,0,0,0,,10,,,69,127
43471,note_off,124,0,0,,10,,,69,127
43472,note_on,1,0,0,,12,,,71,127
43596,note_off,124,0,0,,12,,,71,127
43596,note_off,0,0,0,,0,,,60,127
43596,note_off,0,0,0,,0,,,48,127
43597,note_on,1,0,0,,0,,,72,127
43721,note_off,124,0,0,,0,,,72,127
43722,note_on,1,0,0,,2,,,74,127
43846,note_off,124,0,0,,2,,,74,127
43847,note_on,1,0,0,,3,,,75,127
43971,note_off,124,0,0,,3,,,75,127
43972,note_on,1,0,0,,4,,,76,127
44096,note_off,124,0,0,,4,,,76,127
44097,note_on,1,0,0,,7,,,79,127
44347,note_on,250,0,0,,7,,,67,127
44347,note_on,0,0,0,,12,,,59,127
44596,note_off,249,0,0,,12,,,59,127
44596,note_off,0,0,0,,7,,,79,127
44597,note_on,1,0,0,,0,,,60,127
44597,note_on,0,0,0,,12,,,83,127
44658,note_off,61,0,0,,12,,,83,127
44659,note_on,1,0,0,,10,,,81,127
44720,note_off,61,0,0,,10,,,81,127
44721,note_on,1,0,0,,12,,,83,127
44782,note_off,61,0,0,,12,,,83,127
44783,note_on,1,0,0,,10,,,81,127
44844,note_off,61,0,0,,10,,,81,127
44844,note_off,0,0,0,,0,,,60,127
44844,note_off,0,0,0,,7,,,67,127
44845,note_on,1,0,0,,6,,,66,127
44845,note_on,0,0,0,,2,,,62,127
44845,note_on,0,0,0,,12,,,83,127
44906,note_off,61,0,0,,12,,,83,127
44907,note_on,1,0,0,,10,,,81,127
44968,note_off,61,0,0,,10,,,81,127
44969,note_on,1,0,0,,7,,,79,127
45030,note_off,61,0,0,,7,,,79,127
45031,note_on,1,0,0,,10,,,81,127
45092,note_off,61,0,0,,10,,,81,127
45092,note_off,0,0,0,,2,,,62,127
45092,note_off,0,0,0,,6,,,66,127
45093,note_on,1,0,0,,7,,,55,127
45093,note_on,0,0,0,,12,,,83,127
45342,note_off,249,0,0,,12,,,83,127
45343,note_on,1,0,0,,2,,,86,127
45592,note_off,249,0,0,,2,,,86,127
45593,note_on,1,0,0,,12,,,83,127
45654,note_off,61,0,0,,12,,,83,127
45655,note_on,1,0,0,,10,,,81,127
45716,note_off,61,0,0,,10,,,81,127
45717,note_off,1,0,0,,7,,,55,127
45717,note_on,0,0,0,,7,,,79,127
45841,note_off,124,0,0,,7,,,79,127
45842,note_on,1,0,0,,12,,,59,127
45842,note_on,0,0,0,,6,,,78,127
45903,note_off,61,0,0,,6,,,78,127
45904,note_on,1,0,0,,4,,,76,127
45965,note_off,61,0,0,,4,,,76,127
45966,note_on,1,0,0,,3,,,75,127
46090,note_off,124,0,0,,3,,,75,127
46090,note_off,0,0,0,,12,,,59,127
46091,note_on,1,0,0,,0,,,60,127
46091,note_on,0,0,0,,4,,,76,127
46215,note_off,124,0,0,,4,,,76,127
46216,note_on,1,0,0,,6,,,78,127
46340,note_off,124,0,0,,6,,,78,127
46341,note_on,1,0,0,,0,,,48,127
46341,note_on,0,0,0,,7,,,79,127
46465,note_off,124,0,0,,7,,,79,127
46466,note_on,1,0,0,,10,,,69,127
46586,note_off,120,0,0,,0,,,60,127
46590,note_off,4,0,0,,10,,,69,127
46591,note_on,1,0,0,,12,,,71,127
46652,note_off,61,0,0,,12,,,71,127
46653,note_on,1,0,0,,10,,,69,127
46714,note_off,61,0,0,,10,,,69,127
46715,note_off,1,0,0,,0,,,48,127
46715,note_on,0,0,0,,12,,,71,127
46776,note_off,61,0,0,,12,,,71,127
46777,note_on,1,0,0,,10,,,69,127
46838,note_off,61,0,0,,10,,,69,127
46839,note_on,1,0,0,,2,,,62,127
46839,note_on,0,0,0,,12,,,71,127
46900,note_off,61,0,0,,12,,,71,127
46901,note_on,1,0,0,,10,,,69,127
46962,note_off,61,0,0,,10,,,69,127
46963,note_on,1,0,0,,12,,,71,127
47024,note_off,61,0,0,,12,,,71,127
47025,note_on,1,0,0,,10,,,69,127
47086,note_off,61,0,0,,2,,,62,127
47087,note_on,1,0,0,,0,,,60,127
47211,note_off,124,0,0,,10,,,69,127
47212,note_on,1,0,0,,8,,,80,127
47336,note_off,124,0,0,,8,,,80,127
47337,note_on,1,0,0,,0,,,48,127
47337,note_on,0,0,0,,10,,,81,127
47461,note_off,124,0,0,,10,,,81,127
47462,note_on,1,0,0,,10,,,69,127
47582,note_off,120,0,0,,0,,,60,127
47586,note_off,4,0,0,,10,,,69,127
47587,note_on,1,0,0,,12,,,71,127
47648,note_off,61,0,0,,12,,,71,127
47649,note_on,1,0,0,,10,,,69,127
47710,note_off,61,0,0,,10,,,69,127
47711,note_off,1,0,0,,0,,,48,127
47711,note_on,0,0,0,,12,,,71,127
47772,note_off,61,0,0,,12,,,71,127
47773,note_on,1,0,0,,10,,,69,127
47834,note_off,61,0,0,,10,,,69,127
47835,note_on,1,0,0,,2,,,62,127
47835,note_on,0,0,0,,12,,,71,127
47896,note_off,61,0,0,,12,,,71,127
47897,note_on,1,0,0,,10,,,69,127
47958,note_off,61,0,0,,10,,,69,127
47959,note_on,1,0,0,,12,,,71,127
48020,note_off,61,0,0,,12,,,71,127
48021,note_on,1,0,0,,10,,,69,127
48082,note_off,61,0,0,,2,,,62,127
48083,note_on,1,0,0,,0,,,60,127
48207,note_off,124,0,0,,10,,,69,127
48208,note_on,1,0,0,,12,,,83,127
48332,note_off,124,0,0,,12,,,83,127
48333,note_on,1,0,0,,0,,,48,127
48333,note_on,0,0,0,,0,,,84,127
48457,note_off,124,0,0,,0,,,84,127
48458,note_on,1,0,0,,4,,,76,127
48578,note_off,120,0,0,,0,,,60,127
48582,note_off,4,0,0,,4,,,76,127
48582,note_off,0,0,0,,0,,,48,127
48583,note_on,1,0,0,,2,,,62,127
48583,note_on,0,0,0,,7,,,79,127
48644,note_off,61,0,0,,7,,,79,127
48645,note_on,1,0,0,,6,,,78,127
48706,note_off,61,0,0,,6,,,78,127
48707,note_on,1,0,0,,7,,,79,127
48768,note_off,61,0,0,,7,,,79,127
48769,note_on,1,0,0,,6,,,78,127
48830,note_off,61,0,0,,6,,,78,127
48830,note_off,0,0,0,,2,,,62,127
48831,note_on,1,0,0,,0,,,60,127
48831,note_on,0,0,0,,7,,,79,127
48892,note_off,61,0,0,,7,,,79,127
48893,note_on,1,0,0,,6,,,78,127
48954,note_off,61,0,0,,6,,,78,127
48955,note_on,1,0,0,,4,,,76,127
49016,note_off,61,0,0,,4,,,76,127
49017,note_on,1,0,0,,6,,,78,127
49078,note_off,61,0,0,,6,,,78,127
49078,note_off,0,0,0,,0,,,60,127
49079,note_on,1,0,0,,12,,,59,127
49079,note_on,0,0,0,,7,,,79,127
49203,note_off,124,0,0,,7,,,79,127
49204,note_on,1,0,0,,2,,,74,127
49328,note_off,124,0,0,,2,,,74,127
49328,note_off,0,0,0,,12,,,59,127
49329,note_on,1,0,0,,0,,,60,127
49329,note_on,0,0,0,,4,,,76,127
49453,note_off,124,0,0,,4,,,76,127
49454,note_on,1,0,0,,7,,,67,127
49578,note_off,124,0,0,,7,,,67,127
49578,note_off,0,0,0,,0,,,60,127
49579,note_on,1,0,0,,2,,,62,127
49579,note_on,0,0,0,,7,,,67,127
49828,note_off,249,0,0,,7,,,67,127
49829,note_on,1,0,0,,2,,,50,127
49829,note_on,0,0,0,,12,,,71,127
49890,note_off,61,0,0,,12,,,71,127
49891,note_on,1,0,0,,10,,,69,127
49952,note_off,61,0,0,,10,,,69,127
49953,note_on,1,0,0,,7,,,67,127
50014,note_off,61,0,0,,7,,,67,127
50015,note_on,1,0,0,,10,,,69,127
50072,note_off,57,0,0,,2,,,62,127
50076,note_off,4,0,0,,10,,,69,127
50076,note_off,0,0,0,,2,,,50,127
50090,note_on,14,0,0,,7,,,43,127
50090,note_on,0,0,0,,7,,,67,127
51968,note_off,1878,0,0,,7,,,67,127
51968,note_off,0,0,0,,7,,,43,127
53760,end_of_track,1792,1,0,,,,,,
