tick,type,time,meta,track,program,channel,pitch,tempo,note,velocity
0,copyright,0,1,0,,,,,,
0,program_change,0,0,0,6,0,,,,
0,pitchwheel,0,0,0,,0,0,,,
0,program_change,0,0,0,6,1,,,,
0,pitchwheel,0,0,0,,1,-590,,,
0,program_change,0,0,0,6,2,,,,
0,pitchwheel,0,0,0,,2,-272,,,
0,program_change,0,0,0,6,3,,,,
0,pitchwheel,0,0,0,,3,-353,,,
0,program_change,0,0,0,6,4,,,,
0,pitchwheel,0,0,0,,4,-560,,,
0,program_change,0,0,0,6,5,,,,
0,pitchwheel,0,0,0,,5,-80,,,
0,program_change,0,0,0,6,6,,,,
0,pitchwheel,0,0,0,,6,-625,,,
0,program_change,0,0,0,6,7,,,,
0,pitchwheel,0,0,0,,7,-130,,,
0,program_change,0,0,0,6,8,,,,
0,pitchwheel,0,0,0,,8,-512,,,
0,program_change,0,0,0,6,10,,,,
0,pitchwheel,0,0,0,,10,-464,,,
0,program_change,0,0,0,6,11,,,,
0,pitchwheel,0,0,0,,11,-208,,,
0,program_change,0,0,0,6,12,,,,
0,pitchwheel,0,0,0,,12,-553,,,
0,set_tempo,0,1,0,,,,500000,,
89,note_on,89,0,0,,7,,,43,127
266,note_on,177,0,0,,7,,,79,127
441,note_off,175,0,0,,7,,,79,127
443,note_on,2,0,0,,2,,,74,127
618,note_off,175,0,0,,2,,,74,127
620,note_on,2,0,0,,12,,,71,127
795,note_off,175,0,0,,12,,,71,127
797,note_on,2,0,0,,7,,,67,127
972,note_off,175,0,0,,7,,,67,127
974,note_on,2,0,0,,4,,,76,127
1149,note_off,175,0,0,,4,,,76,127
1151,note_on,2,0,0,,0,,,72,127
1326,note_off,175,0,0,,0,,,72,127
1328,note_on,2,0,0,,10,,,69,127
1503,note_off,175,0,0,,10,,,69,127
1505,note_on,2,0,0,,2,,,74,127
1680,note_off,175,0,0,,2,,,74,127
1682,note_on,2,0,0,,12,,,71,127
1857,note_off,175,0,0,,12,,,71,127
1859,note_on,2,0,0,,7,,,79,127
2034,note_off,175,0,0,,7,,,79,127
2036,note_on,2,0,0,,4,,,76,127
2211,note_off,175,0,0,,4,,,76,127
2213,note_on,2,0,0,,0,,,72,127
2388,note_off,175,0,0,,0,,,72,127
2390,note_on,2,0,0,,10,,,69,127
2565,note_off,175,0,0,,10,,,69,127
2567,note_on,2,0,0,,6,,,66,127
2742,note_off,175,0,0,,6,,,66,127
2744,note_on,2,0,0,,7,,,67,127
2919,note_off,175,0,0,,7,,,67,127
2919,note_off,0,0,0,,7,,,43,127
2921,note_on,2,0,0,,7,,,67,127
3098,note_on,177,0,0,,2,,,62,127
3273,note_off,175,0,0,,2,,,62,127
3275,note_on,2,0,0,,12,,,59,127
3450,note_off,175,0,0,,12,,,59,127
3452,note_on,2,0,0,,7,,,55,127
3627,note_off,175,0,0,,7,,,55,127
3628,note_off,1,0,0,,7,,,67,127
3629,note_on,1,0,0,,4,,,64,127
3629,note_on,0,0,0,,7,,,67,127
3804,note_off,175,0,0,,4,,,64,127
3806,note_on,2,0,0,,0,,,60,127
3981,note_off,175,0,0,,0,,,60,127
3983,note_on,2,0,0,,10,,,57,127
4158,note_off,175,0,0,,10,,,57,127
4158,note_off,0,0,0,,7,,,67,127
4160,note_on,2,0,0,,2,,,62,127
4160,note_on,0,0,0,,10,,,69,127
4335,note_off,175,0,0,,2,,,62,127
4337,note_on,2,0,0,,12,,,59,127
4512,note_off,175,0,0,,12,,,59,127
4514,note_on,2,0,0,,7,,,67,127
4689,note_off,175,0,0,,7,,,67,127
4689,note_off,0,0,0,,10,,,69,127
4691,note_on,2,0,0,,4,,,64,127
4691,note_on,0,0,0,,12,,,71,127
4866,note_off,175,0,0,,4,,,64,127
4868,note_on,2,0,0,,0,,,60,127
5043,note_off,175,0,0,,0,,,60,127
5045,note_on,2,0,0,,10,,,57,127
5220,note_off,175,0,0,,10,,,57,127
5220,note_off,0,0,0,,12,,,71,127
5222,note_on,2,0,0,,6,,,54,127
5222,note_on,0,0,0,,0,,,72,127
5397,note_off,175,0,0,,0,,,72,127
5397,note_off,0,0,0,,6,,,54,127
5399,note_on,2,0,0,,7,,,55,127
5399,note_on,0,0,0,,12,,,71,127
5574,note_off,175,0,0,,12,,,71,127
5576,note_on,2,0,0,,2,,,74,127
5753,note_on,177,0,0,,2,,,62,127
5928,note_off,175,0,0,,2,,,62,127
5928,note_off,0,0,0,,7,,,55,127
5930,note_on,2,0,0,,7,,,55,127
5930,note_on,0,0,0,,7,,,43,127
5930,note_on,0,0,0,,4,,,64,127
6106,note_off,176,0,0,,2,,,74,127
6107,note_on,1,0,0,,0,,,72,127
6281,note_off,174,0,0,,4,,,64,127
6283,note_off,2,0,0,,0,,,72,127
6285,note_on,2,0,0,,6,,,66,127
6285,note_on,0,0,0,,10,,,69,127
6460,note_off,175,0,0,,10,,,69,127
6460,note_off,0,0,0,,6,,,66,127
6460,note_off,0,0,0,,7,,,43,127
6460,note_off,0,0,0,,7,,,55,127
6462,note_on,2,0,0,,7,,,55,127
6462,note_on,0,0,0,,7,,,43,127
6462,note_on,0,0,0,,7,,,67,127
6462,note_on,0,0,0,,12,,,71,127
6637,note_off,175,0,0,,12,,,71,127
6639,note_on,2,0,0,,2,,,74,127
6813,note_off,174,0,0,,7,,,67,127
6817,note_on,4,0,0,,2,,,62,127
6992,note_off,175,0,0,,2,,,62,127
6992,note_off,0,0,0,,7,,,43,127
6992,note_off,0,0,0,,7,,,55,127
6994,note_on,2,0,0,,7,,,43,127
6994,note_on,0,0,0,,7,,,55,127
6994,note_on,0,0,0,,4,,,64,127
7170,note_off,176,0,0,,2,,,74,127
7171,note_on,1,0,0,,0,,,72,127
7345,note_off,174,0,0,,4,,,64,127
7347,note_off,2,0,0,,0,,,72,127
7349,note_on,2,0,0,,6,,,66,127
7349,note_on,0,0,0,,10,,,69,127
7524,note_off,175,0,0,,10,,,69,127
7524,note_off,0,0,0,,6,,,66,127
7524,note_off,0,0,0,,7,,,55,127
7524,note_off,0,0,0,,7,,,43,127
7526,note_on,2,0,0,,7,,,43,127
7526,note_on,0,0,0,,7,,,55,127
7526,note_on,0,0,0,,7,,,67,127
7526,note_on,0,0,0,,12,,,71,127
7701,note_off,175,0,0,,12,,,71,127
7701,note_off,0,0,0,,7,,,67,127
7703,note_on,2,0,0,,7,,,67,127
7878,note_off,175,0,0,,7,,,67,127
7880,note_on,2,0,0,,2,,,74,127
8055,note_off,175,0,0,,2,,,74,127
8055,note_off,0,0,0,,7,,,55,127
8055,note_off,0,0,0,,7,,,43,127
8057,note_on,2,0,0,,10,,,45,127
8057,note_on,0,0,0,,2,,,74,127
8232,note_off,175,0,0,,2,,,74,127
8234,note_on,2,0,0,,1,,,73,127
8409,note_off,175,0,0,,1,,,73,127
8411,note_on,2,0,0,,4,,,76,127
8586,note_off,175,0,0,,4,,,76,127
8586,note_off,0,0,0,,10,,,45,127
8588,note_on,2,0,0,,12,,,47,127
8588,note_on,0,0,0,,4,,,76,127
8763,note_off,175,0,0,,4,,,76,127
8765,note_on,2,0,0,,2,,,74,127
8940,note_off,175,0,0,,2,,,74,127
8942,note_on,2,0,0,,6,,,78,127
9117,note_off,175,0,0,,6,,,78,127
9117,note_off,0,0,0,,12,,,47,127
9119,note_on,2,0,0,,1,,,49,127
9119,note_on,0,0,0,,6,,,78,127
9294,note_off,175,0,0,,6,,,78,127
9296,note_on,2,0,0,,4,,,76,127
9471,note_off,175,0,0,,4,,,76,127
9473,note_on,2,0,0,,7,,,79,127
9648,note_off,175,0,0,,7,,,79,127
9648,note_off,0,0,0,,1,,,49,127
9650,note_on,2,0,0,,2,,,50,127
9650,note_on,0,0,0,,2,,,38,127
9650,note_on,0,0,0,,6,,,78,127
9825,note_off,175,0,0,,6,,,78,127
9827,note_on,2,0,0,,10,,,81,127
10004,note_on,177,0,0,,10,,,69,127
10179,note_off,175,0,0,,10,,,69,127
10179,note_off,0,0,0,,2,,,38,127
10179,note_off,0,0,0,,2,,,50,127
10181,note_on,2,0,0,,2,,,38,127
10181,note_on,0,0,0,,2,,,50,127
10181,note_on,0,0,0,,12,,,71,127
10357,note_off,176,0,0,,10,,,81,127
10358,note_on,1,0,0,,7,,,79,127
10532,note_off,174,0,0,,12,,,71,127
10534,note_off,2,0,0,,7,,,79,127
10536,note_on,2,0,0,,4,,,76,127
10536,note_on,0,0,0,,1,,,73,127
10711,note_off,175,0,0,,1,,,73,127
10711,note_off,0,0,0,,4,,,76,127
10711,note_off,0,0,0,,2,,,50,127
10711,note_off,0,0,0,,2,,,38,127
10713,note_on,2,0,0,,2,,,38,127
10713,note_on,0,0,0,,2,,,50,127
10713,note_on,0,0,0,,6,,,78,127
10713,note_on,0,0,0,,2,,,74,127
10888,note_off,175,0,0,,6,,,78,127
10890,note_on,2,0,0,,10,,,81,127
11064,note_off,174,0,0,,2,,,74,127
11068,note_on,4,0,0,,10,,,69,127
11243,note_off,175,0,0,,10,,,69,127
11243,note_off,0,0,0,,2,,,50,127
11243,note_off,0,0,0,,2,,,38,127
11245,note_on,2,0,0,,2,,,38,127
11245,note_on,0,0,0,,2,,,50,127
11245,note_on,0,0,0,,12,,,71,127
11421,note_off,176,0,0,,10,,,81,127
11422,note_on,1,0,0,,7,,,79,127
11596,note_off,174,0,0,,12,,,71,127
11598,note_off,2,0,0,,7,,,79,127
11600,note_on,2,0,0,,4,,,76,127
11600,note_on,0,0,0,,1,,,73,127
11775,note_off,175,0,0,,1,,,73,127
11775,note_off,0,0,0,,4,,,76,127
11775,note_off,0,0,0,,2,,,50,127
11775,note_off,0,0,0,,2,,,38,127
11777,note_on,2,0,0,,2,,,38,127
11777,note_on,0,0,0,,2,,,50,127
11777,note_on,0,0,0,,6,,,78,127
11777,note_on,0,0,0,,2,,,74,127
11952,note_off,175,0,0,,2,,,74,127
11952,note_off,0,0,0,,6,,,78,127
11954,note_on,2,0,0,,2,,,74,127
12129,note_off,175,0,0,,2,,,74,127
12131,note_on,2,0,0,,2,,,86,127
12306,note_off,175,0,0,,2,,,86,127
12306,note_off,0,0,0,,2,,,50,127
12306,note_off,0,0,0,,2,,,38,127
12308,note_on,2,0,0,,10,,,69,127
12308,note_on,0,0,0,,2,,,86,127
12483,note_off,175,0,0,,2,,,86,127
12485,note_on,2,0,0,,1,,,85,127
12660,note_off,175,0,0,,1,,,85,127
12660,note_off,0,0,0,,10,,,69,127
12662,note_on,2,0,0,,7,,,67,127
12662,note_on,0,0,0,,12,,,83,127
12837,note_off,175,0,0,,12,,,83,127
12837,note_off,0,0,0,,7,,,67,127
12839,note_on,2,0,0,,6,,,66,127
12839,note_on,0,0,0,,12,,,83,127
13014,note_off,175,0,0,,12,,,83,127
13016,note_on,2,0,0,,10,,,81,127
13191,note_off,175,0,0,,10,,,81,127
13191,note_off,0,0,0,,6,,,66,127
13193,note_on,2,0,0,,4,,,64,127
13193,note_on,0,0,0,,7,,,79,127
13368,note_off,175,0,0,,7,,,79,127
13368,note_off,0,0,0,,4,,,64,127
13370,note_on,2,0,0,,2,,,62,127
13370,note_on,0,0,0,,7,,,79,127
13545,note_off,175,0,0,,7,,,79,127
13547,note_on,2,0,0,,6,,,78,127
13722,note_off,175,0,0,,6,,,78,127
13722,note_off,0,0,0,,2,,,62,127
13724,note_on,2,0,0,,1,,,61,127
13724,note_on,0,0,0,,4,,,76,127
13899,note_off,175,0,0,,4,,,76,127
13899,note_off,0,0,0,,1,,,61,127
13901,note_on,2,0,0,,2,,,62,127
13901,note_on,0,0,0,,6,,,78,127
14076,note_off,175,0,0,,6,,,78,127
14078,note_on,2,0,0,,10,,,81,127
14253,note_off,175,0,0,,10,,,81,127
14255,note_on,2,0,0,,2,,,74,127
14344,note_off,89,0,0,,2,,,62,127
14431,note_off,87,0,0,,2,,,74,127
14433,note_on,2,0,0,,10,,,57,127
14433,note_on,0,0,0,,2,,,74,127
14608,note_off,175,0,0,,2,,,74,127
14610,note_on,2,0,0,,1,,,73,127
14785,note_off,175,0,0,,1,,,73,127
14785,note_off,0,0,0,,10,,,57,127
14787,note_on,2,0,0,,7,,,55,127
14787,note_on,0,0,0,,12,,,71,127
14962,note_off,175,0,0,,12,,,71,127
14962,note_off,0,0,0,,7,,,55,127
14964,note_on,2,0,0,,6,,,54,127
14964,note_on,0,0,0,,12,,,71,127
15139,note_off,175,0,0,,12,,,71,127
15141,note_on,2,0,0,,10,,,69,127
15316,note_off,175,0,0,,10,,,69,127
15316,note_off,0,0,0,,6,,,54,127
15318,note_on,2,0,0,,4,,,52,127
15318,note_on,0,0,0,,7,,,67,127
15493,note_off,175,0,0,,7,,,67,127
15493,note_off,0,0,0,,4,,,52,127
15495,note_on,2,0,0,,2,,,50,127
15495,note_on,0,0,0,,7,,,67,127
15670,note_off,175,0,0,,7,,,67,127
15672,note_on,2,0,0,,6,,,66,127
15847,note_off,175,0,0,,6,,,66,127
15847,note_off,0,0,0,,2,,,50,127
15849,note_on,2,0,0,,1,,,49,127
15849,note_on,0,0,0,,4,,,64,127
16024,note_off,175,0,0,,4,,,64,127
16024,note_off,0,0,0,,1,,,49,127
16026,note_on,2,0,0,,2,,,50,127
16026,note_on,0,0,0,,6,,,66,127
16201,note_off,175,0,0,,6,,,66,127
16203,note_on,2,0,0,,2,,,62,127
16378,note_off,175,0,0,,2,,,62,127
16380,note_on,2,0,0,,2,,,74,127
16555,note_off,175,0,0,,2,,,74,127
16555,note_off,0,0,0,,2,,,50,127
16557,note_on,2,0,0,,10,,,69,127
16557,note_on,0,0,0,,1,,,73,127
16644,note_off,87,0,0,,10,,,69,127
16646,note_on,2,0,0,,7,,,67,127
16733,note_off,87,0,0,,7,,,67,127
16733,note_off,0,0,0,,1,,,73,127
16735,note_on,2,0,0,,6,,,66,127
16735,note_on,0,0,0,,2,,,74,127
16822,note_off,87,0,0,,6,,,66,127
16824,note_on,2,0,0,,4,,,64,127
16911,note_off,87,0,0,,4,,,64,127
16911,note_off,0,0,0,,2,,,74,127
16913,note_on,2,0,0,,2,,,62,127
16913,note_on,0,0,0,,4,,,76,127
17000,note_off,87,0,0,,2,,,62,127
17002,note_on,2,0,0,,1,,,61,127
17089,note_off,87,0,0,,1,,,61,127
17089,note_off,0,0,0,,4,,,76,127
17091,note_on,2,0,0,,2,,,62,127
17091,note_on,0,0,0,,6,,,78,127
17266,note_off,175,0,0,,6,,,78,127
17268,note_on,2,0,0,,7,,,79,127
17443,note_off,175,0,0,,7,,,79,127
17445,note_on,2,0,0,,10,,,81,127
17534,note_off,89,0,0,,2,,,62,127
17621,note_off,87,0,0,,10,,,81,127
17623,note_on,2,0,0,,10,,,57,127
17623,note_on,0,0,0,,1,,,73,127
17710,note_off,87,0,0,,10,,,57,127
17712,note_on,2,0,0,,7,,,55,127
17799,note_off,87,0,0,,7,,,55,127
17799,note_off,0,0,0,,1,,,73,127
17801,note_on,2,0,0,,6,,,54,127
17801,note_on,0,0,0,,2,,,74,127
17888,note_off,87,0,0,,6,,,54,127
17890,note_on,2,0,0,,4,,,52,127
17977,note_off,87,0,0,,4,,,52,127
17977,note_off,0,0,0,,2,,,74,127
17979,note_on,2,0,0,,2,,,50,127
17979,note_on,0,0,0,,4,,,76,127
18066,note_off,87,0,0,,2,,,50,127
18068,note_on,2,0,0,,1,,,49,127
18155,note_off,87,0,0,,1,,,49,127
18155,note_off,0,0,0,,4,,,76,127
18157,note_on,2,0,0,,2,,,50,127
18157,note_on,0,0,0,,6,,,78,127
18332,note_off,175,0,0,,6,,,78,127
18334,note_on,2,0,0,,7,,,79,127
18509,note_off,175,0,0,,7,,,79,127
18511,note_on,2,0,0,,10,,,81,127
18600,note_off,89,0,0,,2,,,50,127
18687,note_off,87,0,0,,10,,,81,127
18689,note_on,2,0,0,,2,,,62,127
18689,note_on,0,0,0,,6,,,66,127
18776,note_off,87,0,0,,2,,,62,127
18778,note_on,2,0,0,,0,,,60,127
18865,note_off,87,0,0,,0,,,60,127
18865,note_off,0,0,0,,6,,,66,127
18867,note_on,2,0,0,,12,,,59,127
18867,note_on,0,0,0,,7,,,67,127
18954,note_off,87,0,0,,12,,,59,127
18956,note_on,2,0,0,,10,,,57,127
19043,note_off,87,0,0,,10,,,57,127
19043,note_off,0,0,0,,7,,,67,127
19045,note_on,2,0,0,,7,,,55,127
19045,note_on,0,0,0,,10,,,69,127
19132,note_off,87,0,0,,7,,,55,127
19134,note_on,2,0,0,,6,,,54,127
19221,note_off,87,0,0,,6,,,54,127
19221,note_off,0,0,0,,10,,,69,127
19223,note_on,2,0,0,,7,,,55,127
19223,note_on,0,0,0,,12,,,71,127
19398,note_off,175,0,0,,12,,,71,127
19400,note_on,2,0,0,,0,,,72,127
19575,note_off,175,0,0,,0,,,72,127
19577,note_on,2,0,0,,2,,,74,127
19666,note_off,89,0,0,,7,,,55,127
19753,note_off,87,0,0,,2,,,74,127
19755,note_on,2,0,0,,2,,,50,127
19755,note_on,0,0,0,,6,,,66,127
19842,note_off,87,0,0,,2,,,50,127
19844,note_on,2,0,0,,0,,,48,127
19931,note_off,87,0,0,,0,,,48,127
19931,note_off,0,0,0,,6,,,66,127
19933,note_on,2,0,0,,12,,,47,127
19933,note_on,0,0,0,,7,,,67,127
20020,note_off,87,0,0,,12,,,47,127
20022,note_on,2,0,0,,10,,,45,127
20109,note_off,87,0,0,,10,,,45,127
20109,note_off,0,0,0,,7,,,67,127
20111,note_on,2,0,0,,7,,,43,127
20111,note_on,0,0,0,,10,,,69,127
20198,note_off,87,0,0,,7,,,43,127
20200,note_on,2,0,0,,6,,,42,127
20287,note_off,87,0,0,,6,,,42,127
20287,note_off,0,0,0,,10,,,69,127
20289,note_on,2,0,0,,7,,,43,127
20289,note_on,0,0,0,,12,,,71,127
20464,note_off,175,0,0,,12,,,71,127
20464,note_off,0,0,0,,7,,,43,127
20466,note_on,2,0,0,,10,,,45,127
20466,note_on,0,0,0,,1,,,73,127
20641,note_off,175,0,0,,1,,,73,127
20641,note_off,0,0,0,,10,,,45,127
20643,note_on,2,0,0,,12,,,47,127
20643,note_on,0,0,0,,2,,,74,127
20818,note_off,175,0,0,,2,,,74,127
20818,note_off,0,0,0,,12,,,47,127
20820,note_on,2,0,0,,1,,,49,127
20820,note_on,0,0,0,,2,,,74,127
20995,note_off,175,0,0,,2,,,74,127
20997,note_on,2,0,0,,4,,,76,127
21172,note_off,175,0,0,,4,,,76,127
21174,note_on,2,0,0,,7,,,67,127
21349,note_off,175,0,0,,7,,,67,127
21349,note_off,0,0,0,,1,,,49,127
21351,note_on,2,0,0,,2,,,50,127
21351,note_on,0,0,0,,6,,,66,127
21526,note_off,175,0,0,,6,,,66,127
21526,note_off,0,0,0,,2,,,50,127
21528,note_on,2,0,0,,4,,,52,127
21528,note_on,0,0,0,,7,,,67,127
21703,note_off,175,0,0,,7,,,67,127
21703,note_off,0,0,0,,4,,,52,127
21705,note_on,2,0,0,,6,,,54,127
21705,note_on,0,0,0,,10,,,69,127
21880,note_off,175,0,0,,10,,,69,127
21880,note_off,0,0,0,,6,,,54,127
21882,note_on,2,0,0,,7,,,55,127
21882,note_on,0,0,0,,10,,,69,127
22057,note_off,175,0,0,,10,,,69,127
22059,note_on,2,0,0,,12,,,71,127
22234,note_off,175,0,0,,12,,,71,127
22236,note_on,2,0,0,,2,,,62,127
22411,note_off,175,0,0,,2,,,62,127
22411,note_off,0,0,0,,7,,,55,127
22413,note_on,2,0,0,,10,,,57,127
22413,note_on,0,0,0,,2,,,62,127
22529,note_off,116,0,0,,2,,,62,127
22531,note_on,2,0,0,,1,,,61,127
22588,note_off,57,0,0,,1,,,61,127
22590,note_on,2,0,0,,2,,,62,127
22647,note_off,57,0,0,,2,,,62,127
22649,note_on,2,0,0,,1,,,61,127
22706,note_off,57,0,0,,1,,,61,127
22708,note_on,2,0,0,,2,,,62,127
22765,note_off,57,0,0,,2,,,62,127
22767,note_on,2,0,0,,1,,,61,127
22942,note_off,175,0,0,,1,,,61,127
22942,note_off,0,0,0,,10,,,57,127
22944,note_on,2,0,0,,10,,,45,127
22944,note_on,0,0,0,,10,,,57,127
22944,note_on,0,0,0,,10,,,69,127
23031,note_off,87,0,0,,10,,,69,127
23033,note_on,2,0,0,,1,,,73,127
23120,note_off,87,0,0,,1,,,73,127
23122,note_on,2,0,0,,12,,,71,127
23209,note_off,87,0,0,,12,,,71,127
23211,note_on,2,0,0,,10,,,69,127
23300,note_on,89,0,0,,10,,,81,127
23387,note_off,87,0,0,,10,,,81,127
23387,note_off,0,0,0,,10,,,69,127
23389,note_on,2,0,0,,7,,,79,127
23476,note_off,87,0,0,,7,,,79,127
23476,note_off,0,0,0,,10,,,57,127
23476,note_off,0,0,0,,10,,,45,127
23478,note_on,2,0,0,,10,,,45,127
23478,note_on,0,0,0,,10,,,57,127
23478,note_on,0,0,0,,5,,,77,127
23653,note_off,175,0,0,,5,,,77,127
23655,note_on,2,0,0,,4,,,76,127
23830,note_off,175,0,0,,4,,,76,127
23832,note_on,2,0,0,,2,,,74,127
24007,note_off,175,0,0,,2,,,74,127
24007,note_off,0,0,0,,10,,,57,127
24007,note_off,0,0,0,,10,,,45,127
24009,note_on,2,0,0,,10,,,57,127
24009,note_on,0,0,0,,10,,,45,127
24009,note_on,0,0,0,,0,,,72,127
24184,note_off,175,0,0,,0,,,72,127
24186,note_on,2,0,0,,11,,,70,127
24361,note_off,175,0,0,,11,,,70,127
24363,note_on,2,0,0,,10,,,69,127
24538,note_off,175,0,0,,10,,,69,127
24538,note_off,0,0,0,,10,,,45,127
24538,note_off,0,0,0,,10,,,57,127
24540,note_on,2,0,0,,10,,,45,127
24540,note_on,0,0,0,,10,,,57,127
24540,note_on,0,0,0,,8,,,68,127
24715,note_off,175,0,0,,8,,,68,127
24717,note_on,2,0,0,,10,,,69,127
24892,note_off,175,0,0,,10,,,69,127
24894,note_on,2,0,0,,12,,,71,127
25069,note_off,175,0,0,,12,,,71,127
25069,note_off,0,0,0,,10,,,57,127
25069,note_off,0,0,0,,10,,,45,127
25071,note_on,2,0,0,,10,,,45,127
25071,note_on,0,0,0,,10,,,57,127
25071,note_on,0,0,0,,1,,,73,127
25158,note_off,87,0,0,,1,,,73,127
25160,note_on,2,0,0,,4,,,76,127
25247,note_off,87,0,0,,4,,,76,127
25249,note_on,2,0,0,,2,,,74,127
25336,note_off,87,0,0,,2,,,74,127
25338,note_on,2,0,0,,1,,,73,127
25425,note_off,87,0,0,,1,,,73,127
25427,note_on,2,0,0,,10,,,81,127
25514,note_off,87,0,0,,10,,,81,127
25516,note_on,2,0,0,,7,,,79,127
25603,note_off,87,0,0,,7,,,79,127
25603,note_off,0,0,0,,10,,,57,127
25603,note_off,0,0,0,,10,,,45,127
25605,note_on,2,0,0,,10,,,45,127
25605,note_on,0,0,0,,10,,,57,127
25605,note_on,0,0,0,,5,,,77,127
25780,note_off,175,0,0,,5,,,77,127
25782,note_on,2,0,0,,4,,,76,127
25957,note_off,175,0,0,,4,,,76,127
25959,note_on,2,0,0,,2,,,74,127
26134,note_off,175,0,0,,2,,,74,127
26134,note_off,0,0,0,,10,,,57,127
26134,note_off,0,0,0,,10,,,45,127
26136,note_on,2,0,0,,10,,,45,127
26136,note_on,0,0,0,,10,,,57,127
26136,note_on,0,0,0,,0,,,72,127
26311,note_off,175,0,0,,0,,,72,127
26313,note_on,2,0,0,,11,,,70,127
26488,note_off,175,0,0,,11,,,70,127
26490,note_on,2,0,0,,10,,,69,127
26665,note_off,175,0,0,,10,,,69,127
26665,note_off,0,0,0,,10,,,57,127
26665,note_off,0,0,0,,10,,,45,127
26667,note_on,2,0,0,,10,,,45,127
26667,note_on,0,0,0,,10,,,57,127
26667,note_on,0,0,0,,8,,,68,127
26842,note_off,175,0,0,,8,,,68,127
26844,note_on,2,0,0,,10,,,69,127
27019,note_off,175,0,0,,10,,,69,127
27021,note_on,2,0,0,,12,,,71,127
27196,note_off,175,0,0,,12,,,71,127
27196,note_off,0,0,0,,10,,,57,127
27196,note_off,0,0,0,,10,,,45,127
27198,note_on,2,0,0,,10,,,45,127
27198,note_on,0,0,0,,1,,,73,127
27285,note_off,87,0,0,,1,,,73,127
27287,note_on,2,0,0,,4,,,76,127
27374,note_off,87,0,0,,4,,,76,127
27376,note_on,2,0,0,,2,,,74,127
27463,note_off,87,0,0,,2,,,74,127
27465,note_on,2,0,0,,1,,,73,127
27552,note_off,87,0,0,,1,,,73,127
27554,note_on,2,0,0,,7,,,79,127
27729,note_off,175,0,0,,7,,,79,127
27729,note_off,0,0,0,,10,,,45,127
27731,note_on,2,0,0,,2,,,50,127
27731,note_on,0,0,0,,10,,,69,127
27818,note_off,87,0,0,,10,,,69,127
27820,note_on,2,0,0,,6,,,78,127
27907,note_off,87,0,0,,6,,,78,127
27909,note_on,2,0,0,,4,,,76,127
27996,note_off,87,0,0,,4,,,76,127
27998,note_on,2,0,0,,2,,,74,127
28085,note_off,87,0,0,,2,,,74,127
28087,note_on,2,0,0,,10,,,81,127
28262,note_off,175,0,0,,10,,,81,127
28262,note_off,0,0,0,,2,,,50,127
28264,note_on,2,0,0,,1,,,49,127
28264,note_on,0,0,0,,10,,,69,127
28351,note_off,87,0,0,,10,,,69,127
28353,note_on,2,0,0,,1,,,73,127
28440,note_off,87,0,0,,1,,,73,127
28442,note_on,2,0,0,,12,,,71,127
28529,note_off,87,0,0,,12,,,71,127
28531,note_on,2,0,0,,10,,,69,127
28618,note_off,87,0,0,,10,,,69,127
28620,note_on,2,0,0,,7,,,79,127
28795,note_off,175,0,0,,7,,,79,127
28795,note_off,0,0,0,,1,,,49,127
28797,note_on,2,0,0,,2,,,50,127
28797,note_on,0,0,0,,10,,,69,127
28884,note_off,87,0,0,,10,,,69,127
28886,note_on,2,0,0,,6,,,78,127
28973,note_off,87,0,0,,6,,,78,127
28975,note_on,2,0,0,,4,,,76,127
29062,note_off,87,0,0,,4,,,76,127
29064,note_on,2,0,0,,2,,,74,127
29151,note_off,87,0,0,,2,,,74,127
29153,note_on,2,0,0,,10,,,81,127
29328,note_off,175,0,0,,10,,,81,127
29328,note_off,0,0,0,,2,,,50,127
29330,note_on,2,0,0,,10,,,57,127
29330,note_on,0,0,0,,10,,,69,127
29417,note_off,87,0,0,,10,,,69,127
29419,note_on,2,0,0,,1,,,73,127
29506,note_off,87,0,0,,1,,,73,127
29508,note_on,2,0,0,,12,,,71,127
29595,note_off,87,0,0,,12,,,71,127
29597,note_on,2,0,0,,10,,,69,127
29684,note_off,87,0,0,,10,,,69,127
29684,note_off,0,0,0,,10,,,57,127
29686,note_on,2,0,0,,7,,,55,127
29686,note_on,0,0,0,,1,,,85,127
29861,note_off,175,0,0,,1,,,85,127
29861,note_off,0,0,0,,7,,,55,127
29863,note_on,2,0,0,,6,,,54,127
29863,note_on,0,0,0,,2,,,86,127
30038,note_off,175,0,0,,2,,,86,127
30040,note_on,2,0,0,,10,,,81,127
30215,note_off,175,0,0,,10,,,81,127
30215,note_off,0,0,0,,6,,,54,127
30217,note_on,2,0,0,,7,,,55,127
30217,note_on,0,0,0,,7,,,79,127
30392,note_off,175,0,0,,7,,,79,127
30392,note_off,0,0,0,,7,,,55,127
30394,note_on,2,0,0,,10,,,57,127
30394,note_on,0,0,0,,7,,,79,127
30481,note_off,87,0,0,,7,,,79,127
30483,note_on,2,0,0,,6,,,78,127
30570,note_off,87,0,0,,6,,,78,127
30572,note_on,2,0,0,,4,,,76,127
30659,note_off,87,0,0,,4,,,76,127
30661,note_on,2,0,0,,2,,,74,127
30748,note_off,87,0,0,,2,,,74,127
30750,note_on,2,0,0,,10,,,45,127
30750,note_on,0,0,0,,4,,,76,127
30837,note_off,87,0,0,,4,,,76,127
30839,note_on,2,0,0,,1,,,73,127
30894,note_off,55,0,0,,10,,,57,127
30925,note_off,31,0,0,,1,,,73,127
30925,note_off,0,0,0,,10,,,45,127
30927,note_on,2,0,0,,2,,,38,127
30927,note_on,0,0,0,,1,,,73,127
31280,note_off,353,0,0,,1,,,73,127
31282,note_on,2,0,0,,2,,,74,127
31457,note_off,175,0,0,,2,,,74,127
31457,note_off,0,0,0,,2,,,38,127
31459,note_on,2,0,0,,1,,,49,127
31459,note_on,0,0,0,,10,,,69,127
31546,note_off,87,0,0,,10,,,69,127
31548,note_on,2,0,0,,1,,,73,127
31635,note_off,87,0,0,,1,,,73,127
31637,note_on,2,0,0,,12,,,71,127
31724,note_off,87,0,0,,12,,,71,127
31726,note_on,2,0,0,,10,,,69,127
31813,note_off,87,0,0,,10,,,69,127
31815,note_on,2,0,0,,7,,,79,127
31990,note_off,175,0,0,,7,,,79,127
31990,note_off,0,0,0,,1,,,49,127
31992,note_on,2,0,0,,2,,,50,127
31992,note_on,0,0,0,,10,,,69,127
32079,note_off,87,0,0,,10,,,69,127
32081,note_on,2,0,0,,6,,,78,127
32168,note_off,87,0,0,,6,,,78,127
32170,note_on,2,0,0,,4,,,76,127
32257,note_off,87,0,0,,4,,,76,127
32259,note_on,2,0,0,,2,,,74,127
32346,note_off,87,0,0,,2,,,74,127
32348,note_on,2,0,0,,10,,,81,127
32523,note_off,175,0,0,,10,,,81,127
32523,note_off,0,0,0,,2,,,50,127
32525,note_on,2,0,0,,1,,,49,127
32525,note_on,0,0,0,,10,,,69,127
32612,note_off,87,0,0,,10,,,69,127
32614,note_on,2,0,0,,1,,,73,127
32701,note_off,87,0,0,,1,,,73,127
32703,note_on,2,0,0,,12,,,71,127
32790,note_off,87,0,0,,12,,,71,127
32792,note_on,2,0,0,,10,,,69,127
32879,note_off,87,0,0,,10,,,69,127
32881,note_on,2,0,0,,7,,,79,127
33056,note_off,175,0,0,,7,,,79,127
33056,note_off,0,0,0,,1,,,49,127
33058,note_on,2,0,0,,2,,,50,127
33058,note_on,0,0,0,,10,,,69,127
33145,note_off,87,0,0,,10,,,69,127
33147,note_on,2,0,0,,6,,,78,127
33234,note_off,87,0,0,,6,,,78,127
33236,note_on,2,0,0,,4,,,76,127
33323,note_off,87,0,0,,4,,,76,127
33325,note_on,2,0,0,,2,,,74,127
33412,note_off,87,0,0,,2,,,74,127
33414,note_on,2,0,0,,10,,,81,127
33589,note_off,175,0,0,,10,,,81,127
33589,note_off,0,0,0,,2,,,50,127
33591,note_on,2,0,0,,10,,,57,127
33591,note_on,0,0,0,,10,,,69,127
33678,note_off,87,0,0,,10,,,69,127
33680,note_on,2,0,0,,1,,,73,127
33767,note_off,87,0,0,,1,,,73,127
33769,note_on,2,0,0,,12,,,71,127
33856,note_off,87,0,0,,12,,,71,127
33858,note_on,2,0,0,,10,,,69,127
33945,note_off,87,0,0,,10,,,69,127
33945,note_off,0,0,0,,10,,,57,127
33947,note_on,2,0,0,,7,,,55,127
33947,note_on,0,0,0,,1,,,85,127
34122,note_off,175,0,0,,1,,,85,127
34122,note_off,0,0,0,,7,,,55,127
34124,note_on,2,0,0,,6,,,54,127
34124,note_on,0,0,0,,2,,,86,127
34299,note_off,175,0,0,,2,,,86,127
34301,note_on,2,0,0,,10,,,81,127
34476,note_off,175,0,0,,10,,,81,127
34476,note_off,0,0,0,,6,,,54,127
34478,note_on,2,0,0,,7,,,55,127
34478,note_on,0,0,0,,7,,,79,127
34653,note_off,175,0,0,,7,,,79,127
34653,note_off,0,0,0,,7,,,55,127
34655,note_on,2,0,0,,10,,,57,127
34655,note_on,0,0,0,,7,,,79,127
34742,note_off,87,0,0,,7,,,79,127
34744,note_on,2,0,0,,6,,,78,127
34831,note_off,87,0,0,,6,,,78,127
34833,note_on,2,0,0,,4,,,76,127
34920,note_off,87,0,0,,4,,,76,127
34922,note_on,2,0,0,,2,,,74,127
35009,note_off,87,0,0,,2,,,74,127
35011,note_on,2,0,0,,10,,,45,127
35011,note_on,0,0,0,,4,,,76,127
35098,note_off,87,0,0,,4,,,76,127
35100,note_on,2,0,0,,1,,,73,127
35187,note_off,87,0,0,,1,,,73,127
35187,note_off,0,0,0,,10,,,45,127
35188,note_off,1,0,0,,10,,,57,127
35189,note_on,1,0,0,,2,,,50,127
35189,note_on,0,0,0,,4,,,76,127
35246,note_off,57,0,0,,4,,,76,127
35248,note_on,2,0,0,,2,,,74,127
35305,note_off,57,0,0,,2,,,74,127
35307,note_on,2,0,0,,4,,,76,127
35364,note_off,57,0,0,,4,,,76,127
35364,note_off,0,0,0,,2,,,50,127
35366,note_on,2,0,0,,4,,,52,127
35366,note_on,0,0,0,,2,,,74,127
35423,note_off,57,0,0,,2,,,74,127
35425,note_on,2,0,0,,4,,,76,127
35482,note_off,57,0,0,,4,,,76,127
35484,note_on,2,0,0,,2,,,74,127
35541,note_off,57,0,0,,2,,,74,127
35541,note_off,0,0,0,,4,,,52,127
35543,note_on,2,0,0,,6,,,54,127
35543,note_on,0,0,0,,4,,,76,127
35600,note_off,57,0,0,,4,,,76,127
35602,note_on,2,0,0,,2,,,74,127
35718,note_off,116,0,0,,6,,,54,127
35720,note_on,2,0,0,,7,,,55,127
35807,note_off,87,0,0,,2,,,74,127
35809,note_on,2,0,0,,1,,,73,127
35896,note_off,87,0,0,,1,,,73,127
35898,note_on,2,0,0,,4,,,76,127
35985,note_off,87,0,0,,4,,,76,127
35987,note_on,2,0,0,,2,,,74,127
36074,note_off,87,0,0,,2,,,74,127
36076,note_on,2,0,0,,6,,,78,127
36163,note_off,87,0,0,,6,,,78,127
36165,note_on,2,0,0,,4,,,76,127
36252,note_off,87,0,0,,4,,,76,127
36252,note_off,0,0,0,,7,,,55,127
36254,note_on,2,0,0,,6,,,54,127
36254,note_on,0,0,0,,4,,,76,127
36311,note_off,57,0,0,,4,,,76,127
36313,note_on,2,0,0,,2,,,74,127
36370,note_off,57,0,0,,2,,,74,127
36372,note_on,2,0,0,,4,,,76,127
36429,note_off,57,0,0,,4,,,76,127
36429,note_off,0,0,0,,6,,,54,127
36431,note_on,2,0,0,,4,,,52,127
36431,note_on,0,0,0,,2,,,74,127
36488,note_off,57,0,0,,2,,,74,127
36490,note_on,2,0,0,,4,,,76,127
36547,note_off,57,0,0,,4,,,76,127
36549,note_on,2,0,0,,2,,,74,127
36606,note_off,57,0,0,,2,,,74,127
36606,note_off,0,0,0,,4,,,52,127
36608,note_on,2,0,0,,2,,,50,127
36608,note_on,0,0,0,,4,,,76,127
36665,note_off,57,0,0,,4,,,76,127
36667,note_on,2,0,0,,2,,,74,127
36783,note_off,116,0,0,,2,,,50,127
36785,note_on,2,0,0,,7,,,55,127
36872,note_off,87,0,0,,2,,,74,127
36874,note_on,2,0,0,,1,,,73,127
36961,note_off,87,0,0,,1,,,73,127
36963,note_on,2,0,0,,4,,,76,127
37050,note_off,87,0,0,,4,,,76,127
37052,note_on,2,0,0,,2,,,74,127
37139,note_off,87,0,0,,2,,,74,127
37141,note_on,2,0,0,,6,,,78,127
37228,note_off,87,0,0,,6,,,78,127
37230,note_on,2,0,0,,4,,,76,127
37317,note_off,87,0,0,,4,,,76,127
37317,note_off,0,0,0,,7,,,55,127
37319,note_on,2,0,0,,6,,,54,127
37319,note_on,0,0,0,,4,,,76,127
37376,note_off,57,0,0,,4,,,76,127
37378,note_on,2,0,0,,2,,,74,127
37435,note_off,57,0,0,,2,,,74,127
37437,note_on,2,0,0,,4,,,76,127
37494,note_off,57,0,0,,4,,,76,127
37494,note_off,0,0,0,,6,,,54,127
37496,note_on,2,0,0,,4,,,52,127
37496,note_on,0,0,0,,2,,,74,127
37553,note_off,57,0,0,,2,,,74,127
37555,note_on,2,0,0,,4,,,76,127
37612,note_off,57,0,0,,4,,,76,127
37614,note_on,2,0,0,,2,,,74,127
37671,note_off,57,0,0,,2,,,74,127
37671,note_off,0,0,0,,4,,,52,127
37673,note_on,2,0,0,,2,,,50,127
37673,note_on,0,0,0,,4,,,76,127
37730,note_off,57,0,0,,4,,,76,127
37732,note_on,2,0,0,,2,,,74,127
37848,note_off,116,0,0,,2,,,50,127
37850,note_on,2,0,0,,7,,,55,127
38025,note_off,175,0,0,,2,,,74,127
38027,note_on,2,0,0,,4,,,76,127
38084,note_off,57,0,0,,4,,,76,127
38086,note_on,2,0,0,,6,,,78,127
38143,note_off,57,0,0,,6,,,78,127
38145,note_on,2,0,0,,7,,,79,127
38202,note_off,57,0,0,,7,,,79,127
38204,note_on,2,0,0,,10,,,81,127
38261,note_off,57,0,0,,10,,,81,127
38263,note_on,2,0,0,,12,,,83,127
38320,note_off,57,0,0,,12,,,83,127
38322,note_on,2,0,0,,1,,,85,127
38379,note_off,57,0,0,,1,,,85,127
38379,note_off,0,0,0,,7,,,55,127
38381,note_on,2,0,0,,6,,,54,127
38381,note_on,0,0,0,,2,,,86,127
38556,note_off,175,0,0,,2,,,86,127
38558,note_on,2,0,0,,10,,,81,127
38733,note_off,175,0,0,,10,,,81,127
38733,note_off,0,0,0,,6,,,54,127
38735,note_on,2,0,0,,7,,,55,127
38735,note_on,0,0,0,,7,,,79,127
38910,note_off,175,0,0,,7,,,79,127
38910,note_off,0,0,0,,7,,,55,127
38912,note_on,2,0,0,,10,,,57,127
38912,note_on,0,0,0,,7,,,79,127
38999,note_off,87,0,0,,7,,,79,127
39001,note_on,2,0,0,,6,,,78,127
39088,note_off,87,0,0,,6,,,78,127
39090,note_on,2,0,0,,4,,,76,127
39177,note_off,87,0,0,,4,,,76,127
39179,note_on,2,0,0,,2,,,74,127
39266,note_off,87,0,0,,2,,,74,127
39266,note_off,0,0,0,,10,,,57,127
39268,note_on,2,0,0,,7,,,55,127
39268,note_on,0,0,0,,4,,,76,127
39355,note_off,87,0,0,,4,,,76,127
39357,note_on,2,0,0,,1,,,73,127
39444,note_off,87,0,0,,1,,,73,127
39444,note_off,0,0,0,,7,,,55,127
39446,note_on,2,0,0,,6,,,54,127
39446,note_on,0,0,0,,2,,,74,127
39621,note_off,175,0,0,,2,,,74,127
39623,note_on,2,0,0,,10,,,69,127
39798,note_off,175,0,0,,10,,,69,127
39798,note_off,0,0,0,,6,,,54,127
39800,note_on,2,0,0,,7,,,55,127
39800,note_on,0,0,0,,7,,,67,127
39975,note_off,175,0,0,,7,,,67,127
39975,note_off,0,0,0,,7,,,55,127
39977,note_on,2,0,0,,10,,,57,127
39977,note_on,0,0,0,,7,,,67,127
40064,note_off,87,0,0,,7,,,67,127
40066,note_on,2,0,0,,6,,,66,127
40153,note_off,87,0,0,,6,,,66,127
40155,note_on,2,0,0,,4,,,64,127
40242,note_off,87,0,0,,4,,,64,127
40244,note_on,2,0,0,,2,,,62,127
40331,note_off,87,0,0,,2,,,62,127
40333,note_on,2,0,0,,10,,,45,127
40333,note_on,0,0,0,,4,,,64,127
40420,note_off,87,0,0,,4,,,64,127
40422,note_on,2,0,0,,1,,,61,127
40509,note_off,87,0,0,,1,,,61,127
40509,note_off,0,0,0,,10,,,45,127
40510,note_off,1,0,0,,10,,,57,127
40511,note_on,1,0,0,,2,,,38,127
40511,note_on,0,0,0,,2,,,50,127
40511,note_on,0,0,0,,2,,,62,127
41041,note_off,530,0,0,,2,,,50,127
41041,note_off,0,0,0,,2,,,38,127
41043,note_on,2,0,0,,2,,,50,127
41043,note_on,0,0,0,,2,,,74,127
41219,note_off,176,0,0,,2,,,62,127
41220,note_on,1,0,0,,2,,,62,127
41394,note_off,174,0,0,,2,,,50,127
41396,note_off,2,0,0,,2,,,62,127
41398,note_on,2,0,0,,2,,,62,127
41573,note_off,175,0,0,,2,,,62,127
41573,note_off,0,0,0,,2,,,74,127
41575,note_on,2,0,0,,0,,,60,127
41575,note_on,0,0,0,,2,,,74,127
41750,note_off,175,0,0,,0,,,60,127
41752,note_on,2,0,0,,0,,,60,127
41927,note_off,175,0,0,,0,,,60,127
41927,note_off,0,0,0,,2,,,74,127
41929,note_on,2,0,0,,0,,,60,127
41929,note_on,0,0,0,,5,,,77,127
42104,note_off,175,0,0,,5,,,77,127
42104,note_off,0,0,0,,0,,,60,127
42106,note_on,2,0,0,,12,,,59,127
42106,note_on,0,0,0,,2,,,74,127
42281,note_off,175,0,0,,12,,,59,127
42283,note_on,2,0,0,,12,,,59,127
42458,note_off,175,0,0,,12,,,59,127
42460,note_on,2,0,0,,12,,,59,127
42635,note_off,175,0,0,,12,,,59,127
42635,note_off,0,0,0,,2,,,74,127
42637,note_on,2,0,0,,10,,,57,127
42637,note_on,0,0,0,,2,,,74,127
42812,note_off,175,0,0,,10,,,57,127
42814,note_on,2,0,0,,10,,,57,127
42989,note_off,175,0,0,,10,,,57,127
42989,note_off,0,0,0,,2,,,74,127
42991,note_on,2,0,0,,10,,,57,127
42991,note_on,0,0,0,,5,,,77,127
43166,note_off,175,0,0,,5,,,77,127
43166,note_off,0,0,0,,10,,,57,127
43168,note_on,2,0,0,,8,,,56,127
43168,note_on,0,0,0,,2,,,74,127
43343,note_off,175,0,0,,8,,,56,127
43345,note_on,2,0,0,,8,,,56,127
43520,note_off,175,0,0,,8,,,56,127
43520,note_off,0,0,0,,2,,,74,127
43522,note_on,2,0,0,,8,,,56,127
43522,note_on,0,0,0,,5,,,77,127
43697,note_off,175,0,0,,5,,,77,127
43697,note_off,0,0,0,,8,,,56,127
43699,note_on,2,0,0,,5,,,53,127
43699,note_on,0,0,0,,2,,,74,127
43874,note_off,175,0,0,,5,,,53,127
43876,note_on,2,0,0,,5,,,53,127
44051,note_off,175,0,0,,5,,,53,127
44051,note_off,0,0,0,,2,,,74,127
44053,note_on,2,0,0,,5,,,53,127
44053,note_on,0,0,0,,5,,,77,127
44228,note_off,175,0,0,,5,,,77,127
44228,note_off,0,0,0,,5,,,53,127
44230,note_on,2,0,0,,4,,,40,127
44230,note_on,0,0,0,,4,,,52,127
44230,note_on,0,0,0,,2,,,74,127
44407,note_on,177,0,0,,2,,,86,127
44581,note_off,174,0,0,,2,,,74,127
44583,note_off,2,0,0,,2,,,86,127
44585,note_on,2,0,0,,12,,,83,127
44760,note_off,175,0,0,,12,,,83,127
44760,note_off,0,0,0,,4,,,52,127
44760,note_off,0,0,0,,4,,,40,127
44762,note_on,2,0,0,,4,,,40,127
44762,note_on,0,0,0,,4,,,52,127
44762,note_on,0,0,0,,8,,,80,127
44937,note_off,175,0,0,,8,,,80,127
44939,note_on,2,0,0,,5,,,77,127
45114,note_off,175,0,0,,5,,,77,127
45116,note_on,2,0,0,,2,,,74,127
45291,note_off,175,0,0,,2,,,74,127
45291,note_off,0,0,0,,4,,,52,127
45291,note_off,0,0,0,,4,,,40,127
45293,note_on,2,0,0,,4,,,40,127
45293,note_on,0,0,0,,4,,,52,127
45293,note_on,0,0,0,,12,,,71,127
45468,note_off,175,0,0,,12,,,71,127
45470,note_on,2,0,0,,8,,,68,127
45645,note_off,175,0,0,,8,,,68,127
45647,note_on,2,0,0,,4,,,64,127
45822,note_off,175,0,0,,4,,,64,127
45822,note_off,0,0,0,,4,,,52,127
45822,note_off,0,0,0,,4,,,40,127
45824,note_on,2,0,0,,4,,,40,127
45824,note_on,0,0,0,,4,,,52,127
45824,note_on,0,0,0,,2,,,74,127
45999,note_off,175,0,0,,2,,,74,127
46001,note_on,2,0,0,,0,,,72,127
46176,note_off,175,0,0,,0,,,72,127
46178,note_on,2,0,0,,12,,,71,127
46353,note_off,175,0,0,,12,,,71,127
46353,note_off,0,0,0,,4,,,52,127
46353,note_off,0,0,0,,4,,,40,127
46355,note_on,2,0,0,,10,,,45,127
46355,note_on,0,0,0,,2,,,74,127
46442,note_off,87,0,0,,2,,,74,127
46444,note_on,2,0,0,,0,,,72,127
46531,note_off,87,0,0,,0,,,72,127
46533,note_on,2,0,0,,12,,,71,127
46708,note_off,175,0,0,,12,,,71,127
46710,note_on,2,0,0,,10,,,69,127
46885,note_off,175,0,0,,10,,,69,127
46885,note_off,0,0,0,,10,,,45,127
46887,note_on,2,0,0,,4,,,52,127
46887,note_on,0,0,0,,4,,,76,127
47062,note_off,175,0,0,,4,,,52,127
47064,note_on,2,0,0,,4,,,64,127
47239,note_off,175,0,0,,4,,,64,127
47241,note_on,2,0,0,,4,,,64,127
47416,note_off,175,0,0,,4,,,64,127
47416,note_off,0,0,0,,4,,,76,127
47418,note_on,2,0,0,,2,,,62,127
47418,note_on,0,0,0,,4,,,76,127
47593,note_off,175,0,0,,2,,,62,127
47595,note_on,2,0,0,,2,,,62,127
47770,note_off,175,0,0,,2,,,62,127
47770,note_off,0,0,0,,4,,,76,127
47772,note_on,2,0,0,,2,,,62,127
47772,note_on,0,0,0,,7,,,79,127
47947,note_off,175,0,0,,7,,,79,127
47947,note_off,0,0,0,,2,,,62,127
47949,note_on,2,0,0,,1,,,61,127
47949,note_on,0,0,0,,4,,,76,127
48124,note_off,175,0,0,,1,,,61,127
48126,note_on,2,0,0,,1,,,61,127
48301,note_off,175,0,0,,1,,,61,127
48303,note_on,2,0,0,,1,,,61,127
48478,note_off,175,0,0,,1,,,61,127
48478,note_off,0,0,0,,4,,,76,127
48480,note_on,2,0,0,,12,,,59,127
48480,note_on,0,0,0,,4,,,76,127
48655,note_off,175,0,0,,12,,,59,127
48657,note_on,2,0,0,,12,,,59,127
48832,note_off,175,0,0,,12,,,59,127
48832,note_off,0,0,0,,4,,,76,127
48834,note_on,2,0,0,,12,,,59,127
48834,note_on,0,0,0,,7,,,79,127
49009,note_off,175,0,0,,7,,,79,127
49009,note_off,0,0,0,,12,,,59,127
49011,note_on,2,0,0,,11,,,58,127
49011,note_on,0,0,0,,4,,,76,127
49186,note_off,175,0,0,,11,,,58,127
49188,note_on,2,0,0,,11,,,58,127
49363,note_off,175,0,0,,11,,,58,127
49363,note_off,0,0,0,,4,,,76,127
49365,note_on,2,0,0,,11,,,58,127
49365,note_on,0,0,0,,7,,,79,127
49540,note_off,175,0,0,,7,,,79,127
49540,note_off,0,0,0,,11,,,58,127
49542,note_on,2,0,0,,7,,,55,127
49542,note_on,0,0,0,,4,,,76,127
49717,note_off,175,0,0,,7,,,55,127
49719,note_on,2,0,0,,7,,,55,127
49894,note_off,175,0,0,,7,,,55,127
49894,note_off,0,0,0,,4,,,76,127
49896,note_on,2,0,0,,7,,,55,127
49896,note_on,0,0,0,,7,,,79,127
50071,note_off,175,0,0,,7,,,79,127
50071,note_off,0,0,0,,7,,,55,127
50073,note_on,2,0,0,,6,,,54,127
50073,note_on,0,0,0,,6,,,42,127
50073,note_on,0,0,0,,4,,,76,127
50248,note_off,175,0,0,,4,,,76,127
50250,note_on,2,0,0,,1,,,85,127
50425,note_off,175,0,0,,1,,,85,127
50427,note_on,2,0,0,,11,,,82,127
50602,note_off,175,0,0,,11,,,82,127
50602,note_off,0,0,0,,6,,,42,127
50602,note_off,0,0,0,,6,,,54,127
50604,note_on,2,0,0,,6,,,42,127
50604,note_on,0,0,0,,6,,,54,127
50604,note_on,0,0,0,,7,,,79,127
50779,note_off,175,0,0,,7,,,79,127
50781,note_on,2,0,0,,4,,,76,127
50956,note_off,175,0,0,,4,,,76,127
50958,note_on,2,0,0,,1,,,73,127
51133,note_off,175,0,0,,1,,,73,127
51133,note_off,0,0,0,,6,,,54,127
51133,note_off,0,0,0,,6,,,42,127
51135,note_on,2,0,0,,6,,,42,127
51135,note_on,0,0,0,,6,,,54,127
51135,note_on,0,0,0,,11,,,70,127
51310,note_off,175,0,0,,11,,,70,127
51312,note_on,2,0,0,,6,,,66,127
51487,note_off,175,0,0,,6,,,66,127
51489,note_on,2,0,0,,1,,,73,127
51664,note_off,175,0,0,,1,,,73,127
51664,note_off,0,0,0,,6,,,54,127
51664,note_off,0,0,0,,6,,,42,127
51666,note_on,2,0,0,,6,,,42,127
51666,note_on,0,0,0,,6,,,54,127
51666,note_on,0,0,0,,4,,,76,127
51841,note_off,175,0,0,,4,,,76,127
51843,note_on,2,0,0,,2,,,74,127
52018,note_off,175,0,0,,2,,,74,127
52020,note_on,2,0,0,,1,,,73,127
52195,note_off,175,0,0,,1,,,73,127
52195,note_off,0,0,0,,6,,,54,127
52195,note_off,0,0,0,,6,,,42,127
52197,note_on,2,0,0,,12,,,47,127
52197,note_on,0,0,0,,4,,,76,127
52284,note_off,87,0,0,,4,,,76,127
52286,note_on,2,0,0,,2,,,74,127
52373,note_off,87,0,0,,2,,,74,127
52375,note_on,2,0,0,,1,,,73,127
52550,note_off,175,0,0,,1,,,73,127
52552,note_on,2,0,0,,12,,,71,127
52727,note_off,175,0,0,,12,,,71,127
52727,note_off,0,0,0,,12,,,47,127
52729,note_on,2,0,0,,12,,,59,127
52729,note_on,0,0,0,,12,,,47,127
52729,note_on,0,0,0,,12,,,71,127
52816,note_off,87,0,0,,12,,,71,127
52818,note_on,2,0,0,,3,,,75,127
52905,note_off,87,0,0,,3,,,75,127
52907,note_on,2,0,0,,1,,,73,127
52994,note_off,87,0,0,,1,,,73,127
52996,note_on,2,0,0,,12,,,71,127
53085,note_on,89,0,0,,12,,,83,127
53172,note_off,87,0,0,,12,,,83,127
53172,note_off,0,0,0,,12,,,71,127
53174,note_on,2,0,0,,10,,,81,127
53261,note_off,87,0,0,,10,,,81,127
53261,note_off,0,0,0,,12,,,47,127
53261,note_off,0,0,0,,12,,,59,127
53263,note_on,2,0,0,,12,,,59,127
53263,note_on,0,0,0,,12,,,47,127
53263,note_on,0,0,0,,7,,,79,127
53438,note_off,175,0,0,,7,,,79,127
53440,note_on,2,0,0,,6,,,78,127
53615,note_off,175,0,0,,6,,,78,127
53617,note_on,2,0,0,,4,,,76,127
53792,note_off,175,0,0,,4,,,76,127
53792,note_off,0,0,0,,12,,,47,127
53792,note_off,0,0,0,,12,,,59,127
53794,note_on,2,0,0,,12,,,47,127
53794,note_on,0,0,0,,12,,,59,127
53794,note_on,0,0,0,,2,,,74,127
53969,note_off,175,0,0,,2,,,74,127
53971,note_on,2,0,0,,0,,,72,127
54146,note_off,175,0,0,,0,,,72,127
54148,note_on,2,0,0,,12,,,71,127
54323,note_off,175,0,0,,12,,,71,127
54323,note_off,0,0,0,,12,,,59,127
54323,note_off,0,0,0,,12,,,47,127
54325,note_on,2,0,0,,12,,,47,127
54325,note_on,0,0,0,,12,,,59,127
54325,note_on,0,0,0,,11,,,70,127
54500,note_off,175,0,0,,11,,,70,127
54502,note_on,2,0,0,,12,,,71,127
54677,note_off,175,0,0,,12,,,71,127
54679,note_on,2,0,0,,1,,,73,127
54854,note_off,175,0,0,,1,,,73,127
54854,note_off,0,0,0,,12,,,59,127
54854,note_off,0,0,0,,12,,,47,127
54856,note_on,2,0,0,,12,,,47,127
54856,note_on,0,0,0,,12,,,59,127
54856,note_on,0,0,0,,3,,,75,127
54943,note_off,87,0,0,,3,,,75,127
54945,note_on,2,0,0,,6,,,78,127
55032,note_off,87,0,0,,6,,,78,127
55034,note_on,2,0,0,,4,,,76,127
55121,note_off,87,0,0,,4,,,76,127
55123,note_on,2,0,0,,3,,,75,127
55210,note_off,87,0,0,,3,,,75,127
55212,note_on,2,0,0,,12,,,83,127
55299,note_off,87,0,0,,12,,,83,127
55301,note_on,2,0,0,,10,,,81,127
55388,note_off,87,0,0,,10,,,81,127
55388,note_off,0,0,0,,12,,,59,127
55388,note_off,0,0,0,,12,,,47,127
55390,note_on,2,0,0,,12,,,47,127
55390,note_on,0,0,0,,12,,,59,127
55390,note_on,0,0,0,,7,,,79,127
55565,note_off,175,0,0,,7,,,79,127
55567,note_on,2,0,0,,6,,,78,127
55742,note_off,175,0,0,,6,,,78,127
55744,note_on,2,0,0,,4,,,76,127
55919,note_off,175,0,0,,4,,,76,127
55919,note_off,0,0,0,,12,,,59,127
55919,note_off,0,0,0,,12,,,47,127
55921,note_on,2,0,0,,12,,,59,127
55921,note_on,0,0,0,,12,,,47,127
55921,note_on,0,0,0,,2,,,74,127
56096,note_off,175,0,0,,2,,,74,127
56098,note_on,2,0,0,,0,,,72,127
56273,note_off,175,0,0,,0,,,72,127
56275,note_on,2,0,0,,12,,,71,127
56450,note_off,175,0,0,,12,,,71,127
56450,note_off,0,0,0,,12,,,47,127
56450,note_off,0,0,0,,12,,,59,127
56452,note_on,2,0,0,,12,,,59,127
56452,note_on,0,0,0,,12,,,47,127
56452,note_on,0,0,0,,11,,,70,127
56627,note_off,175,0,0,,11,,,70,127
56629,note_on,2,0,0,,12,,,71,127
56804,note_off,175,0,0,,12,,,71,127
56806,note_on,2,0,0,,1,,,73,127
56981,note_off,175,0,0,,1,,,73,127
56981,note_off,0,0,0,,12,,,47,127
56981,note_off,0,0,0,,12,,,59,127
56983,note_on,2,0,0,,12,,,59,127
56983,note_on,0,0,0,,2,,,74,127
57070,note_off,87,0,0,,2,,,74,127
57072,note_on,2,0,0,,6,,,78,127
57159,note_off,87,0,0,,6,,,78,127
57161,note_on,2,0,0,,4,,,76,127
57248,note_off,87,0,0,,4,,,76,127
57250,note_on,2,0,0,,2,,,74,127
57337,note_off,87,0,0,,2,,,74,127
57339,note_on,2,0,0,,12,,,83,127
57514,note_off,175,0,0,,12,,,83,127
57514,note_off,0,0,0,,12,,,59,127
57516,note_on,2,0,0,,7,,,55,127
57516,note_on,0,0,0,,12,,,71,127
57603,note_off,87,0,0,,12,,,71,127
57605,note_on,2,0,0,,2,,,74,127
57692,note_off,87,0,0,,2,,,74,127
57694,note_on,2,0,0,,1,,,73,127
57781,note_off,87,0,0,,1,,,73,127
57783,note_on,2,0,0,,12,,,71,127
57870,note_off,87,0,0,,12,,,71,127
57872,note_on,2,0,0,,7,,,79,127
58047,note_off,175,0,0,,7,,,79,127
58047,note_off,0,0,0,,7,,,55,127
58049,note_on,2,0,0,,4,,,52,127
58049,note_on,0,0,0,,7,,,67,127
58136,note_off,87,0,0,,7,,,67,127
58138,note_on,2,0,0,,12,,,71,127
58225,note_off,87,0,0,,12,,,71,127
58227,note_on,2,0,0,,10,,,69,127
58314,note_off,87,0,0,,10,,,69,127
58316,note_on,2,0,0,,7,,,67,127
58403,note_off,87,0,0,,7,,,67,127
58405,note_on,2,0,0,,4,,,76,127
58580,note_off,175,0,0,,4,,,76,127
58580,note_off,0,0,0,,4,,,52,127
58582,note_on,2,0,0,,10,,,45,127
58582,note_on,0,0,0,,2,,,74,127
58669,note_off,87,0,0,,2,,,74,127
58671,note_on,2,0,0,,0,,,72,127
58758,note_off,87,0,0,,0,,,72,127
58760,note_on,2,0,0,,12,,,71,127
58935,note_off,175,0,0,,12,,,71,127
58937,note_on,2,0,0,,0,,,72,127
59112,note_off,175,0,0,,0,,,72,127
59112,note_off,0,0,0,,10,,,45,127
59114,note_on,2,0,0,,10,,,57,127
59114,note_on,0,0,0,,0,,,72,127
59201,note_off,87,0,0,,0,,,72,127
59203,note_on,2,0,0,,4,,,76,127
59290,note_off,87,0,0,,4,,,76,127
59292,note_on,2,0,0,,2,,,74,127
59379,note_off,87,0,0,,2,,,74,127
59381,note_on,2,0,0,,0,,,72,127
59468,note_off,87,0,0,,0,,,72,127
59470,note_on,2,0,0,,10,,,81,127
59645,note_off,175,0,0,,10,,,81,127
59645,note_off,0,0,0,,10,,,57,127
59647,note_on,2,0,0,,6,,,54,127
59647,note_on,0,0,0,,10,,,69,127
59734,note_off,87,0,0,,10,,,69,127
59736,note_on,2,0,0,,0,,,72,127
59823,note_off,87,0,0,,0,,,72,127
59825,note_on,2,0,0,,12,,,71,127
59912,note_off,87,0,0,,12,,,71,127
59914,note_on,2,0,0,,10,,,69,127
60001,note_off,87,0,0,,10,,,69,127
60003,note_on,2,0,0,,6,,,78,127
60178,note_off,175,0,0,,6,,,78,127
60178,note_off,0,0,0,,6,,,54,127
60180,note_on,2,0,0,,2,,,50,127
60180,note_on,0,0,0,,6,,,66,127
60267,note_off,87,0,0,,6,,,66,127
60269,note_on,2,0,0,,10,,,69,127
60356,note_off,87,0,0,,10,,,69,127
60358,note_on,2,0,0,,7,,,67,127
60445,note_off,87,0,0,,7,,,67,127
60447,note_on,2,0,0,,6,,,66,127
60534,note_off,87,0,0,,6,,,66,127
60536,note_on,2,0,0,,2,,,74,127
60711,note_off,175,0,0,,2,,,74,127
60711,note_off,0,0,0,,2,,,50,127
60713,note_on,2,0,0,,7,,,43,127
60713,note_on,0,0,0,,0,,,72,127
60800,note_off,87,0,0,,0,,,72,127
60802,note_on,2,0,0,,12,,,71,127
60889,note_off,87,0,0,,12,,,71,127
60891,note_on,2,0,0,,10,,,69,127
61066,note_off,175,0,0,,10,,,69,127
61068,note_on,2,0,0,,12,,,71,127
61243,note_off,175,0,0,,12,,,71,127
61243,note_off,0,0,0,,7,,,43,127
61245,note_on,2,0,0,,7,,,55,127
61245,note_on,0,0,0,,12,,,71,127
61332,note_off,87,0,0,,12,,,71,127
61334,note_on,2,0,0,,2,,,74,127
61421,note_off,87,0,0,,2,,,74,127
61423,note_on,2,0,0,,0,,,72,127
61510,note_off,87,0,0,,0,,,72,127
61512,note_on,2,0,0,,12,,,71,127
61599,note_off,87,0,0,,12,,,71,127
61601,note_on,2,0,0,,7,,,79,127
61776,note_off,175,0,0,,7,,,79,127
61776,note_off,0,0,0,,7,,,55,127
61778,note_on,2,0,0,,4,,,52,127
61778,note_on,0,0,0,,7,,,67,127
61865,note_off,87,0,0,,7,,,67,127
61867,note_on,2,0,0,,12,,,71,127
61954,note_off,87,0,0,,12,,,71,127
61956,note_on,2,0,0,,10,,,69,127
62043,note_off,87,0,0,,10,,,69,127
62045,note_on,2,0,0,,7,,,67,127
62132,note_off,87,0,0,,7,,,67,127
62134,note_on,2,0,0,,4,,,76,127
62309,note_off,175,0,0,,4,,,76,127
62309,note_off,0,0,0,,4,,,52,127
62311,note_on,2,0,0,,0,,,48,127
62311,note_on,0,0,0,,4,,,64,127
62398,note_off,87,0,0,,4,,,64,127
62400,note_on,2,0,0,,7,,,67,127
62487,note_off,87,0,0,,7,,,67,127
62489,note_on,2,0,0,,6,,,66,127
62576,note_off,87,0,0,,6,,,66,127
62578,note_on,2,0,0,,4,,,64,127
62665,note_off,87,0,0,,4,,,64,127
62667,note_on,2,0,0,,0,,,72,127
62842,note_off,175,0,0,,0,,,72,127
62842,note_off,0,0,0,,0,,,48,127
62844,note_on,2,0,0,,2,,,50,127
62844,note_on,0,0,0,,7,,,67,127
62931,note_off,87,0,0,,7,,,67,127
62933,note_on,2,0,0,,6,,,66,127
63020,note_off,87,0,0,,6,,,66,127
63022,note_on,2,0,0,,4,,,64,127
63197,note_off,175,0,0,,4,,,64,127
63199,note_on,2,0,0,,6,,,66,127
63374,note_off,175,0,0,,6,,,66,127
63374,note_off,0,0,0,,2,,,50,127
63376,note_on,2,0,0,,2,,,38,127
63376,note_on,0,0,0,,2,,,50,127
63376,note_on,0,0,0,,2,,,74,127
63463,note_off,87,0,0,,2,,,74,127
63465,note_on,2,0,0,,6,,,78,127
63552,note_off,87,0,0,,6,,,78,127
63554,note_on,2,0,0,,4,,,76,127
63641,note_off,87,0,0,,4,,,76,127
63643,note_on,2,0,0,,2,,,74,127
63732,note_on,89,0,0,,2,,,86,127
63819,note_off,87,0,0,,2,,,86,127
63819,note_off,0,0,0,,2,,,74,127
63821,note_on,2,0,0,,0,,,84,127
63908,note_off,87,0,0,,0,,,84,127
63908,note_off,0,0,0,,2,,,50,127
63908,note_off,0,0,0,,2,,,38,127
63910,note_on,2,0,0,,2,,,50,127
63910,note_on,0,0,0,,2,,,38,127
63910,note_on,0,0,0,,11,,,82,127
64085,note_off,175,0,0,,11,,,82,127
64087,note_on,2,0,0,,10,,,81,127
64262,note_off,175,0,0,,10,,,81,127
64264,note_on,2,0,0,,7,,,79,127
64439,note_off,175,0,0,,7,,,79,127
64439,note_off,0,0,0,,2,,,38,127
64439,note_off,0,0,0,,2,,,50,127
64441,note_on,2,0,0,,2,,,38,127
64441,note_on,0,0,0,,2,,,50,127
64441,note_on,0,0,0,,5,,,77,127
64616,note_off,175,0,0,,5,,,77,127
64618,note_on,2,0,0,,3,,,75,127
64793,note_off,175,0,0,,3,,,75,127
64795,note_on,2,0,0,,2,,,74,127
64970,note_off,175,0,0,,2,,,74,127
64970,note_off,0,0,0,,2,,,50,127
64970,note_off,0,0,0,,2,,,38,127
64972,note_on,2,0,0,,2,,,38,127
64972,note_on,0,0,0,,2,,,50,127
64972,note_on,0,0,0,,1,,,73,127
65147,note_off,175,0,0,,1,,,73,127
65149,note_on,2,0,0,,2,,,74,127
65324,note_off,175,0,0,,2,,,74,127
65326,note_on,2,0,0,,4,,,76,127
65501,note_off,175,0,0,,4,,,76,127
65501,note_off,0,0,0,,2,,,50,127
65501,note_off,0,0,0,,2,,,38,127
65503,note_on,2,0,0,,2,,,50,127
65503,note_on,0,0,0,,2,,,38,127
65503,note_on,0,0,0,,6,,,78,127
65590,note_off,87,0,0,,6,,,78,127
65592,note_on,2,0,0,,10,,,81,127
65679,note_off,87,0,0,,10,,,81,127
65681,note_on,2,0,0,,7,,,79,127
65768,note_off,87,0,0,,7,,,79,127
65770,note_on,2,0,0,,6,,,78,127
65857,note_off,87,0,0,,6,,,78,127
65859,note_on,2,0,0,,2,,,86,127
65946,note_off,87,0,0,,2,,,86,127
65948,note_on,2,0,0,,0,,,84,127
66035,note_off,87,0,0,,0,,,84,127
66035,note_off,0,0,0,,2,,,38,127
66035,note_off,0,0,0,,2,,,50,127
66037,note_on,2,0,0,,2,,,50,127
66037,note_on,0,0,0,,2,,,38,127
66037,note_on,0,0,0,,11,,,82,127
66212,note_off,175,0,0,,11,,,82,127
66214,note_on,2,0,0,,10,,,81,127
66389,note_off,175,0,0,,10,,,81,127
66391,note_on,2,0,0,,7,,,79,127
66566,note_off,175,0,0,,7,,,79,127
66566,note_off,0,0,0,,2,,,38,127
66566,note_off,0,0,0,,2,,,50,127
66568,note_on,2,0,0,,2,,,38,127
66568,note_on,0,0,0,,2,,,50,127
66568,note_on,0,0,0,,5,,,77,127
66743,note_off,175,0,0,,5,,,77,127
66745,note_on,2,0,0,,3,,,75,127
66920,note_off,175,0,0,,3,,,75,127
66922,note_on,2,0,0,,2,,,74,127
67097,note_off,175,0,0,,2,,,74,127
67097,note_off,0,0,0,,2,,,50,127
67097,note_off,0,0,0,,2,,,38,127
67099,note_on,2,0,0,,2,,,38,127
67099,note_on,0,0,0,,2,,,50,127
67099,note_on,0,0,0,,1,,,73,127
67274,note_off,175,0,0,,1,,,73,127
67276,note_on,2,0,0,,2,,,74,127
67451,note_off,175,0,0,,2,,,74,127
67453,note_on,2,0,0,,4,,,76,127
67628,note_off,175,0,0,,4,,,76,127
67628,note_off,0,0,0,,2,,,50,127
67628,note_off,0,0,0,,2,,,38,127
67630,note_on,2,0,0,,2,,,50,127
67630,note_on,0,0,0,,6,,,78,127
67717,note_off,87,0,0,,6,,,78,127
67719,note_on,2,0,0,,10,,,81,127
67806,note_off,87,0,0,,10,,,81,127
67808,note_on,2,0,0,,7,,,79,127
67895,note_off,87,0,0,,7,,,79,127
67897,note_on,2,0,0,,6,,,78,127
67984,note_off,87,0,0,,6,,,78,127
67986,note_on,2,0,0,,0,,,84,127
68161,note_off,175,0,0,,0,,,84,127
68161,note_off,0,0,0,,2,,,50,127
68163,note_on,2,0,0,,7,,,55,127
68163,note_on,0,0,0,,2,,,74,127
68250,note_off,87,0,0,,2,,,74,127
68252,note_on,2,0,0,,12,,,83,127
68339,note_off,87,0,0,,12,,,83,127
68341,note_on,2,0,0,,10,,,81,127
68428,note_off,87,0,0,,10,,,81,127
68430,note_on,2,0,0,,7,,,79,127
68517,note_off,87,0,0,,7,,,79,127
68519,note_on,2,0,0,,2,,,86,127
68694,note_off,175,0,0,,2,,,86,127
68694,note_off,0,0,0,,7,,,55,127
68696,note_on,2,0,0,,6,,,54,127
68696,note_on,0,0,0,,2,,,74,127
68783,note_off,87,0,0,,2,,,74,127
68785,note_on,2,0,0,,6,,,78,127
68872,note_off,87,0,0,,6,,,78,127
68874,note_on,2,0,0,,4,,,76,127
68961,note_off,87,0,0,,4,,,76,127
68963,note_on,2,0,0,,2,,,74,127
69050,note_off,87,0,0,,2,,,74,127
69052,note_on,2,0,0,,0,,,84,127
69227,note_off,175,0,0,,0,,,84,127
69227,note_off,0,0,0,,6,,,54,127
69229,note_on,2,0,0,,7,,,55,127
69229,note_on,0,0,0,,2,,,74,127
69316,note_off,87,0,0,,2,,,74,127
69318,note_on,2,0,0,,12,,,83,127
69405,note_off,87,0,0,,12,,,83,127
69407,note_on,2,0,0,,10,,,81,127
69494,note_off,87,0,0,,10,,,81,127
69496,note_on,2,0,0,,7,,,79,127
69583,note_off,87,0,0,,7,,,79,127
69585,note_on,2,0,0,,2,,,86,127
69760,note_off,175,0,0,,2,,,86,127
69760,note_off,0,0,0,,7,,,55,127
69762,note_on,2,0,0,,2,,,62,127
69762,note_on,0,0,0,,2,,,74,127
69849,note_off,87,0,0,,2,,,74,127
69851,note_on,2,0,0,,0,,,84,127
69938,note_off,87,0,0,,0,,,84,127
69940,note_on,2,0,0,,12,,,83,127
70027,note_off,87,0,0,,12,,,83,127
70029,note_on,2,0,0,,10,,,81,127
70116,note_off,87,0,0,,10,,,81,127
70116,note_off,0,0,0,,2,,,62,127
70118,note_on,2,0,0,,0,,,60,127
70118,note_on,0,0,0,,7,,,79,127
70205,note_off,87,0,0,,7,,,79,127
70207,note_on,2,0,0,,6,,,78,127
70294,note_off,87,0,0,,6,,,78,127
70294,note_off,0,0,0,,0,,,60,127
70296,note_on,2,0,0,,12,,,59,127
70296,note_on,0,0,0,,7,,,79,127
70471,note_off,175,0,0,,7,,,79,127
70473,note_on,2,0,0,,2,,,74,127
70648,note_off,175,0,0,,2,,,74,127
70648,note_off,0,0,0,,12,,,59,127
70650,note_on,2,0,0,,0,,,60,127
70650,note_on,0,0,0,,0,,,72,127
70825,note_off,175,0,0,,0,,,72,127
70825,note_off,0,0,0,,0,,,60,127
70827,note_on,2,0,0,,2,,,62,127
70827,note_on,0,0,0,,0,,,72,127
70914,note_off,87,0,0,,0,,,72,127
70916,note_on,2,0,0,,12,,,71,127
71003,note_off,87,0,0,,12,,,71,127
71005,note_on,2,0,0,,10,,,69,127
71092,note_off,87,0,0,,10,,,69,127
71094,note_on,2,0,0,,7,,,67,127
71181,note_off,87,0,0,,7,,,67,127
71181,note_off,0,0,0,,2,,,62,127
71183,note_on,2,0,0,,2,,,50,127
71183,note_on,0,0,0,,10,,,69,127
71270,note_off,87,0,0,,10,,,69,127
71272,note_on,2,0,0,,6,,,66,127
71359,note_off,87,0,0,,6,,,66,127
71359,note_off,0,0,0,,2,,,50,127
71361,note_on,2,0,0,,7,,,43,127
71361,note_on,0,0,0,,7,,,55,127
71361,note_on,0,0,0,,6,,,66,127
71714,note_off,353,0,0,,6,,,66,127
71716,note_on,2,0,0,,7,,,67,127
71891,note_off,175,0,0,,7,,,67,127
71891,note_off,0,0,0,,7,,,55,127
71891,note_off,0,0,0,,7,,,43,127
71893,note_on,2,0,0,,6,,,54,127
71893,note_on,0,0,0,,2,,,62,127
71980,note_off,87,0,0,,2,,,62,127
71982,note_on,2,0,0,,6,,,66,127
72069,note_off,87,0,0,,6,,,66,127
72071,note_on,2,0,0,,4,,,64,127
72158,note_off,87,0,0,,4,,,64,127
72160,note_on,2,0,0,,2,,,62,127
72247,note_off,87,0,0,,2,,,62,127
72249,note_on,2,0,0,,0,,,72,127
72424,note_off,175,0,0,,0,,,72,127
72424,note_off,0,0,0,,6,,,54,127
72426,note_on,2,0,0,,7,,,55,127
72426,note_on,0,0,0,,2,,,62,127
72513,note_off,87,0,0,,2,,,62,127
72515,note_on,2,0,0,,12,,,71,127
72602,note_off,87,0,0,,12,,,71,127
72604,note_on,2,0,0,,10,,,69,127
72691,note_off,87,0,0,,10,,,69,127
72693,note_on,2,0,0,,7,,,67,127
72780,note_off,87,0,0,,7,,,67,127
72782,note_on,2,0,0,,2,,,74,127
72957,note_off,175,0,0,,2,,,74,127
72957,note_off,0,0,0,,7,,,55,127
72959,note_on,2,0,0,,6,,,54,127
72959,note_on,0,0,0,,2,,,62,127
73046,note_off,87,0,0,,2,,,62,127
73048,note_on,2,0,0,,6,,,66,127
73135,note_off,87,0,0,,6,,,66,127
73137,note_on,2,0,0,,4,,,64,127
73224,note_off,87,0,0,,4,,,64,127
73226,note_on,2,0,0,,2,,,62,127
73313,note_off,87,0,0,,2,,,62,127
73315,note_on,2,0,0,,0,,,72,127
73490,note_off,175,0,0,,0,,,72,127
73490,note_off,0,0,0,,6,,,54,127
73492,note_on,2,0,0,,7,,,55,127
73492,note_on,0,0,0,,2,,,62,127
73579,note_off,87,0,0,,2,,,62,127
73581,note_on,2,0,0,,12,,,71,127
73668,note_off,87,0,0,,12,,,71,127
73670,note_on,2,0,0,,10,,,69,127
73757,note_off,87,0,0,,10,,,69,127
73759,note_on,2,0,0,,7,,,67,127
73846,note_off,87,0,0,,7,,,67,127
73848,note_on,2,0,0,,2,,,74,127
74023,note_off,175,0,0,,2,,,74,127
74023,note_off,0,0,0,,7,,,55,127
74025,note_on,2,0,0,,2,,,50,127
74025,note_on,0,0,0,,2,,,62,127
74112,note_off,87,0,0,,2,,,62,127
74114,note_on,2,0,0,,6,,,66,127
74201,note_off,87,0,0,,6,,,66,127
74203,note_on,2,0,0,,4,,,64,127
74290,note_off,87,0,0,,4,,,64,127
74292,note_on,2,0,0,,2,,,62,127
74379,note_off,87,0,0,,2,,,62,127
74379,note_off,0,0,0,,2,,,50,127
74381,note_on,2,0,0,,0,,,48,127
74381,note_on,0,0,0,,6,,,78,127
74556,note_off,175,0,0,,6,,,78,127
74556,note_off,0,0,0,,0,,,48,127
74558,note_on,2,0,0,,12,,,47,127
74558,note_on,0,0,0,,7,,,79,127
74733,note_off,175,0,0,,7,,,79,127
74735,note_on,2,0,0,,2,,,74,127
74910,note_off,175,0,0,,2,,,74,127
74910,note_off,0,0,0,,12,,,47,127
74912,note_on,2,0,0,,0,,,48,127
74912,note_on,0,0,0,,0,,,72,127
75087,note_off,175,0,0,,0,,,72,127
75087,note_off,0,0,0,,0,,,48,127
75089,note_on,2,0,0,,2,,,50,127
75089,note_on,0,0,0,,0,,,72,127
75176,note_off,87,0,0,,0,,,72,127
75178,note_on,2,0,0,,12,,,71,127
75265,note_off,87,0,0,,12,,,71,127
75267,note_on,2,0,0,,10,,,69,127
75354,note_off,87,0,0,,10,,,69,127
75356,note_on,2,0,0,,7,,,67,127
75443,note_off,87,0,0,,7,,,67,127
75445,note_on,2,0,0,,2,,,38,127
75445,note_on,0,0,0,,10,,,69,127
75532,note_off,87,0,0,,10,,,69,127
75534,note_on,2,0,0,,6,,,66,127
75621,note_off,87,0,0,,6,,,66,127
75621,note_off,0,0,0,,2,,,38,127
75622,note_off,1,0,0,,2,,,50,127
75623,note_on,1,0,0,,7,,,55,127
75623,note_on,0,0,0,,12,,,59,127
75623,note_on,0,0,0,,7,,,67,127
75623,note_on,0,0,0,,7,,,79,127
75798,note_off,175,0,0,,12,,,59,127
75798,note_off,0,0,0,,7,,,55,127
75800,note_on,2,0,0,,0,,,60,127
75800,note_on,0,0,0,,10,,,57,127
75975,note_off,175,0,0,,10,,,57,127
75975,note_off,0,0,0,,0,,,60,127
75977,note_on,2,0,0,,2,,,62,127
75977,note_on,0,0,0,,12,,,59,127
76152,note_off,175,0,0,,12,,,59,127
76152,note_off,0,0,0,,2,,,62,127
76154,note_on,2,0,0,,0,,,60,127
76154,note_on,0,0,0,,4,,,64,127
76241,note_off,87,0,0,,7,,,79,127
76241,note_off,0,0,0,,7,,,67,127
76243,note_on,2,0,0,,6,,,78,127
76330,note_off,87,0,0,,6,,,78,127
76332,note_on,2,0,0,,10,,,81,127
76419,note_off,87,0,0,,10,,,81,127
76421,note_on,2,0,0,,7,,,79,127
76508,note_off,87,0,0,,7,,,79,127
76510,note_on,2,0,0,,12,,,83,127
76597,note_off,87,0,0,,12,,,83,127
76599,note_on,2,0,0,,10,,,81,127
76686,note_off,87,0,0,,10,,,81,127
76686,note_off,0,0,0,,4,,,64,127
76686,note_off,0,0,0,,0,,,60,127
76688,note_on,2,0,0,,12,,,59,127
76688,note_on,0,0,0,,2,,,62,127
76688,note_on,0,0,0,,7,,,79,127
76688,note_on,0,0,0,,7,,,67,127
76863,note_off,175,0,0,,12,,,59,127
76865,note_on,2,0,0,,10,,,57,127
77040,note_off,175,0,0,,10,,,57,127
77042,note_on,2,0,0,,7,,,55,127
77217,note_off,175,0,0,,7,,,55,127
77218,note_off,1,0,0,,2,,,62,127
77219,note_on,1,0,0,,0,,,60,127
77219,note_on,0,0,0,,4,,,64,127
77306,note_off,87,0,0,,7,,,67,127
77306,note_off,0,0,0,,7,,,79,127
77308,note_on,2,0,0,,6,,,66,127
77395,note_off,87,0,0,,6,,,66,127
77397,note_on,2,0,0,,10,,,69,127
77484,note_off,87,0,0,,10,,,69,127
77486,note_on,2,0,0,,7,,,67,127
77573,note_off,87,0,0,,7,,,67,127
77575,note_on,2,0,0,,12,,,71,127
77662,note_off,87,0,0,,12,,,71,127
77664,note_on,2,0,0,,10,,,69,127
77751,note_off,87,0,0,,10,,,69,127
77751,note_off,0,0,0,,4,,,64,127
77751,note_off,0,0,0,,0,,,60,127
77753,note_on,2,0,0,,7,,,55,127
77753,note_on,0,0,0,,12,,,59,127
77753,note_on,0,0,0,,7,,,67,127
77753,note_on,0,0,0,,7,,,79,127
77928,note_off,175,0,0,,12,,,59,127
77928,note_off,0,0,0,,7,,,55,127
77930,note_on,2,0,0,,0,,,60,127
77930,note_on,0,0,0,,10,,,57,127
78105,note_off,175,0,0,,10,,,57,127
78105,note_off,0,0,0,,0,,,60,127
78107,note_on,2,0,0,,2,,,62,127
78107,note_on,0,0,0,,12,,,59,127
78282,note_off,175,0,0,,12,,,59,127
78282,note_off,0,0,0,,2,,,62,127
78284,note_on,2,0,0,,0,,,60,127
78284,note_on,0,0,0,,4,,,64,127
78371,note_off,87,0,0,,7,,,79,127
78371,note_off,0,0,0,,7,,,67,127
78373,note_on,2,0,0,,6,,,78,127
78460,note_off,87,0,0,,6,,,78,127
78462,note_on,2,0,0,,10,,,81,127
78549,note_off,87,0,0,,10,,,81,127
78551,note_on,2,0,0,,7,,,79,127
78638,note_off,87,0,0,,7,,,79,127
78640,note_on,2,0,0,,12,,,83,127
78727,note_off,87,0,0,,12,,,83,127
78729,note_on,2,0,0,,10,,,81,127
78816,note_off,87,0,0,,10,,,81,127
78816,note_off,0,0,0,,4,,,64,127
78816,note_off,0,0,0,,0,,,60,127
78818,note_on,2,0,0,,2,,,62,127
78818,note_on,0,0,0,,12,,,59,127
78818,note_on,0,0,0,,10,,,81,127
78905,note_off,87,0,0,,10,,,81,127
78907,note_on,2,0,0,,7,,,79,127
78994,note_off,87,0,0,,7,,,79,127
78996,note_on,2,0,0,,6,,,78,127
79083,note_off,87,0,0,,6,,,78,127
79085,note_on,2,0,0,,4,,,76,127
79172,note_off,87,0,0,,4,,,76,127
79172,note_off,0,0,0,,12,,,59,127
79172,note_off,0,0,0,,2,,,62,127
79174,note_on,2,0,0,,0,,,60,127
79174,note_on,0,0,0,,2,,,74,127
79261,note_off,87,0,0,,2,,,74,127
79263,note_on,2,0,0,,0,,,72,127
79350,note_off,87,0,0,,0,,,72,127
79350,note_off,0,0,0,,0,,,60,127
79352,note_on,2,0,0,,2,,,62,127
79352,note_on,0,0,0,,0,,,72,127
79439,note_off,87,0,0,,0,,,72,127
79441,note_on,2,0,0,,12,,,71,127
79528,note_off,87,0,0,,12,,,71,127
79530,note_on,2,0,0,,10,,,69,127
79617,note_off,87,0,0,,10,,,69,127
79619,note_on,2,0,0,,7,,,67,127
79706,note_off,87,0,0,,7,,,67,127
79708,note_on,2,0,0,,2,,,50,127
79708,note_on,0,0,0,,10,,,69,127
79795,note_off,87,0,0,,10,,,69,127
79797,note_on,2,0,0,,6,,,66,127
79884,note_off,87,0,0,,6,,,66,127
79884,note_off,0,0,0,,2,,,50,127
79885,note_off,1,0,0,,2,,,62,127
79887,note_on,2,0,0,,10,,,69,127
79887,note_on,0,0,0,,12,,,47,127
79976,note_off,89,0,0,,10,,,69,127
79980,note_on,4,0,0,,7,,,67,127
80069,note_off,89,0,0,,7,,,67,127
80073,note_on,4,0,0,,6,,,66,127
80162,note_off,89,0,0,,6,,,66,127
80165,note_on,3,0,0,,4,,,64,127
80252,note_off,87,0,0,,12,,,47,127
80254,note_off,2,0,0,,4,,,64,127
80258,note_on,4,0,0,,2,,,62,127
80258,note_on,0,0,0,,0,,,48,127
80347,note_off,89,0,0,,2,,,62,127
80351,note_on,4,0,0,,0,,,60,127
80439,note_off,88,0,0,,0,,,48,127
80440,note_off,1,0,0,,0,,,60,127
80444,note_on,4,0,0,,0,,,60,127
80444,note_on,0,0,0,,2,,,50,127
80533,note_off,89,0,0,,0,,,60,127
80537,note_on,4,0,0,,12,,,59,127
80626,note_off,89,0,0,,12,,,59,127
80630,note_on,4,0,0,,10,,,57,127
80719,note_off,89,0,0,,10,,,57,127
80723,note_on,4,0,0,,7,,,55,127
80812,note_off,89,0,0,,7,,,55,127
80815,note_on,3,0,0,,10,,,57,127
80815,note_on,0,0,0,,2,,,38,127
80904,note_off,89,0,0,,10,,,57,127
80908,note_on,4,0,0,,6,,,54,127
80994,note_off,86,0,0,,2,,,50,127
80996,note_off,2,0,0,,2,,,38,127
80997,note_off,1,0,0,,6,,,54,127
81001,note_on,4,0,0,,6,,,54,127
81001,note_on,0,0,0,,7,,,43,127
81731,note_off,730,0,0,,6,,,54,127
81738,note_on,7,0,0,,7,,,55,127
83099,note_off,1361,0,0,,7,,,43,127
83106,note_off,7,0,0,,7,,,55,127
89088,end_of_track,5982,1,0,,,,,,
