tick,type,time,meta,track,program,channel,pitch,tempo,note,velocity
0,copyright,0,1,0,,,,,,
0,program_change,0,0,0,6,0,,,,
0,pitchwheel,0,0,0,,0,0,,,
0,program_change,0,0,0,6,1,,,,
0,pitchwheel,0,0,0,,1,-590,,,
0,program_change,0,0,0,6,2,,,,
0,pitchwheel,0,0,0,,2,-272,,,
0,program_change,0,0,0,6,3,,,,
0,pitchwheel,0,0,0,,3,-353,,,
0,program_change,0,0,0,6,4,,,,
0,pitchwheel,0,0,0,,4,-560,,,
0,program_change,0,0,0,6,5,,,,
0,pitchwheel,0,0,0,,5,-80,,,
0,program_change,0,0,0,6,6,,,,
0,pitchwheel,0,0,0,,6,-625,,,
0,program_change,0,0,0,6,7,,,,
0,pitchwheel,0,0,0,,7,-130,,,
0,program_change,0,0,0,6,8,,,,
0,pitchwheel,0,0,0,,8,-512,,,
0,program_change,0,0,0,6,10,,,,
0,pitchwheel,0,0,0,,10,-464,,,
0,program_change,0,0,0,6,11,,,,
0,pitchwheel,0,0,0,,11,-208,,,
0,program_change,0,0,0,6,12,,,,
0,pitchwheel,0,0,0,,12,-553,,,
0,set_tempo,0,1,0,,,,500000,,
0,note_on,0,0,0,,3,,,75,127
0,note_on,0,0,0,,3,,,63,127
404,note_off,404,0,0,,3,,,75,127
407,note_on,3,0,0,,2,,,74,127
472,note_off,65,0,0,,2,,,74,127
475,note_on,3,0,0,,0,,,72,127
540,note_off,65,0,0,,0,,,72,127
543,note_on,3,0,0,,11,,,70,127
811,note_off,268,0,0,,3,,,63,127
814,note_on,3,0,0,,8,,,68,127
814,note_on,0,0,0,,5,,,65,127
1082,note_off,268,0,0,,5,,,65,127
1082,note_off,0,0,0,,8,,,68,127
1083,note_off,1,0,0,,11,,,70,127
1084,note_on,1,0,0,,7,,,67,127
1084,note_on,0,0,0,,11,,,70,127
1220,note_on,136,0,0,,7,,,79,127
1353,note_off,133,0,0,,7,,,79,127
1353,note_off,0,0,0,,11,,,70,127
1353,note_off,0,0,0,,7,,,67,127
1356,note_on,3,0,0,,7,,,79,127
1356,note_on,0,0,0,,8,,,68,127
1356,note_on,0,0,0,,0,,,72,127
1489,note_off,133,0,0,,7,,,79,127
1492,note_on,3,0,0,,5,,,77,127
1625,note_off,133,0,0,,5,,,77,127
1625,note_off,0,0,0,,0,,,72,127
1625,note_off,0,0,0,,8,,,68,127
1628,note_on,3,0,0,,5,,,77,127
1628,note_on,0,0,0,,7,,,67,127
1628,note_on,0,0,0,,11,,,70,127
1761,note_off,133,0,0,,5,,,77,127
1764,note_on,3,0,0,,3,,,75,127
1897,note_off,133,0,0,,3,,,75,127
1897,note_off,0,0,0,,11,,,70,127
1897,note_off,0,0,0,,7,,,67,127
1900,note_on,3,0,0,,3,,,75,127
1900,note_on,0,0,0,,8,,,68,127
1900,note_on,0,0,0,,5,,,65,127
2033,note_off,133,0,0,,3,,,75,127
2036,note_on,3,0,0,,2,,,74,127
2169,note_off,133,0,0,,2,,,74,127
2169,note_off,0,0,0,,5,,,65,127
2169,note_off,0,0,0,,8,,,68,127
2172,note_on,3,0,0,,3,,,75,127
2172,note_on,0,0,0,,11,,,70,127
2172,note_on,0,0,0,,7,,,67,127
2305,note_off,133,0,0,,3,,,75,127
2308,note_on,3,0,0,,7,,,79,127
2441,note_off,133,0,0,,7,,,79,127
2441,note_off,0,0,0,,7,,,67,127
2441,note_off,0,0,0,,11,,,70,127
2444,note_on,3,0,0,,7,,,79,127
2444,note_on,0,0,0,,8,,,68,127
2444,note_on,0,0,0,,0,,,72,127
2577,note_off,133,0,0,,7,,,79,127
2580,note_on,3,0,0,,5,,,77,127
2713,note_off,133,0,0,,5,,,77,127
2713,note_off,0,0,0,,0,,,72,127
2713,note_off,0,0,0,,8,,,68,127
2716,note_on,3,0,0,,5,,,77,127
2716,note_on,0,0,0,,7,,,67,127
2716,note_on,0,0,0,,11,,,70,127
2849,note_off,133,0,0,,5,,,77,127
2852,note_on,3,0,0,,3,,,75,127
2985,note_off,133,0,0,,3,,,75,127
2985,note_off,0,0,0,,11,,,70,127
2985,note_off,0,0,0,,7,,,67,127
2988,note_on,3,0,0,,3,,,75,127
2988,note_on,0,0,0,,8,,,68,127
2988,note_on,0,0,0,,5,,,65,127
3121,note_off,133,0,0,,3,,,75,127
3124,note_on,3,0,0,,2,,,74,127
3257,note_off,133,0,0,,2,,,74,127
3257,note_off,0,0,0,,5,,,65,127
3257,note_off,0,0,0,,8,,,68,127
3260,note_on,3,0,0,,3,,,75,127
3260,note_on,0,0,0,,11,,,70,127
3260,note_on,0,0,0,,7,,,67,127
3393,note_off,133,0,0,,3,,,75,127
3396,note_on,3,0,0,,11,,,82,127
3529,note_off,133,0,0,,11,,,82,127
3532,note_on,3,0,0,,11,,,82,127
3665,note_off,133,0,0,,11,,,82,127
3668,note_on,3,0,0,,7,,,79,127
3801,note_off,133,0,0,,7,,,79,127
3804,note_on,3,0,0,,7,,,79,127
3937,note_off,133,0,0,,7,,,79,127
3940,note_on,3,0,0,,3,,,75,127
4073,note_off,133,0,0,,3,,,75,127
4073,note_off,0,0,0,,7,,,67,127
4073,note_off,0,0,0,,11,,,70,127
4076,note_on,3,0,0,,3,,,75,127
4076,note_on,0,0,0,,7,,,55,127
4209,note_off,133,0,0,,3,,,75,127
4212,note_on,3,0,0,,0,,,72,127
4345,note_off,133,0,0,,0,,,72,127
4345,note_off,0,0,0,,7,,,55,127
4348,note_on,3,0,0,,0,,,72,127
4348,note_on,0,0,0,,8,,,56,127
4481,note_off,133,0,0,,0,,,72,127
4484,note_on,3,0,0,,8,,,68,127
4617,note_off,133,0,0,,8,,,68,127
4620,note_on,3,0,0,,8,,,68,127
4753,note_off,133,0,0,,8,,,68,127
4756,note_on,3,0,0,,5,,,65,127
4889,note_off,133,0,0,,5,,,65,127
4889,note_off,0,0,0,,8,,,56,127
4892,note_on,3,0,0,,5,,,65,127
4892,note_on,0,0,0,,11,,,58,127
5025,note_off,133,0,0,,5,,,65,127
5028,note_on,3,0,0,,11,,,70,127
5161,note_off,133,0,0,,11,,,70,127
5164,note_on,3,0,0,,11,,,70,127
5297,note_off,133,0,0,,11,,,70,127
5300,note_on,3,0,0,,8,,,68,127
5433,note_off,133,0,0,,8,,,68,127
5433,note_off,0,0,0,,11,,,58,127
5436,note_on,3,0,0,,7,,,67,127
5436,note_on,0,0,0,,3,,,51,127
5569,note_off,133,0,0,,3,,,51,127
5572,note_on,3,0,0,,3,,,63,127
5705,note_off,133,0,0,,3,,,63,127
5708,note_on,3,0,0,,3,,,63,127
5841,note_off,133,0,0,,3,,,63,127
5844,note_on,3,0,0,,2,,,62,127
5977,note_off,133,0,0,,2,,,62,127
5980,note_on,3,0,0,,2,,,62,127
6113,note_off,133,0,0,,2,,,62,127
6116,note_on,3,0,0,,0,,,60,127
6184,note_off,68,0,0,,7,,,67,127
6249,note_off,65,0,0,,0,,,60,127
6252,note_on,3,0,0,,3,,,75,127
6252,note_on,0,0,0,,0,,,60,127
6385,note_off,133,0,0,,0,,,60,127
6388,note_on,3,0,0,,11,,,58,127
6521,note_off,133,0,0,,11,,,58,127
6521,note_off,0,0,0,,3,,,75,127
6524,note_on,3,0,0,,2,,,74,127
6524,note_on,0,0,0,,11,,,58,127
6657,note_off,133,0,0,,11,,,58,127
6660,note_on,3,0,0,,8,,,56,127
6793,note_off,133,0,0,,8,,,56,127
6793,note_off,0,0,0,,2,,,74,127
6796,note_on,3,0,0,,0,,,72,127
6796,note_on,0,0,0,,8,,,56,127
6929,note_off,133,0,0,,8,,,56,127
6932,note_on,3,0,0,,7,,,55,127
7065,note_off,133,0,0,,7,,,55,127
7065,note_off,0,0,0,,0,,,72,127
7068,note_on,3,0,0,,11,,,70,127
7068,note_on,0,0,0,,7,,,55,127
7201,note_off,133,0,0,,7,,,55,127
7204,note_on,3,0,0,,5,,,53,127
7337,note_off,133,0,0,,5,,,53,127
7337,note_off,0,0,0,,11,,,70,127
7340,note_on,3,0,0,,8,,,68,127
7340,note_on,0,0,0,,5,,,53,127
7473,note_off,133,0,0,,5,,,53,127
7476,note_on,3,0,0,,3,,,51,127
7609,note_off,133,0,0,,3,,,51,127
7609,note_off,0,0,0,,8,,,68,127
7612,note_on,3,0,0,,7,,,67,127
7612,note_on,0,0,0,,3,,,51,127
7745,note_off,133,0,0,,3,,,51,127
7748,note_on,3,0,0,,3,,,63,127
7881,note_off,133,0,0,,3,,,63,127
7884,note_on,3,0,0,,3,,,63,127
8017,note_off,133,0,0,,3,,,63,127
8020,note_on,3,0,0,,2,,,62,127
8153,note_off,133,0,0,,2,,,62,127
8156,note_on,3,0,0,,2,,,62,127
8289,note_off,133,0,0,,2,,,62,127
8292,note_on,3,0,0,,0,,,60,127
8360,note_off,68,0,0,,7,,,67,127
8425,note_off,65,0,0,,0,,,60,127
8428,note_on,3,0,0,,3,,,75,127
8428,note_on,0,0,0,,0,,,60,127
8561,note_off,133,0,0,,0,,,60,127
8564,note_on,3,0,0,,11,,,58,127
8697,note_off,133,0,0,,11,,,58,127
8697,note_off,0,0,0,,3,,,75,127
8700,note_on,3,0,0,,2,,,74,127
8700,note_on,0,0,0,,11,,,58,127
8833,note_off,133,0,0,,11,,,58,127
8836,note_on,3,0,0,,8,,,56,127
8969,note_off,133,0,0,,8,,,56,127
8969,note_off,0,0,0,,2,,,74,127
8972,note_on,3,0,0,,0,,,72,127
8972,note_on,0,0,0,,8,,,56,127
9105,note_off,133,0,0,,8,,,56,127
9108,note_on,3,0,0,,7,,,55,127
9241,note_off,133,0,0,,7,,,55,127
9241,note_off,0,0,0,,0,,,72,127
9244,note_on,3,0,0,,11,,,70,127
9244,note_on,0,0,0,,7,,,55,127
9377,note_off,133,0,0,,7,,,55,127
9380,note_on,3,0,0,,5,,,53,127
9513,note_off,133,0,0,,5,,,53,127
9513,note_off,0,0,0,,11,,,70,127
9516,note_on,3,0,0,,8,,,68,127
9516,note_on,0,0,0,,5,,,53,127
9649,note_off,133,0,0,,5,,,53,127
9652,note_on,3,0,0,,3,,,51,127
9785,note_off,133,0,0,,3,,,51,127
9785,note_off,0,0,0,,8,,,68,127
9788,note_on,3,0,0,,7,,,67,127
9788,note_on,0,0,0,,3,,,51,127
9924,note_on,136,0,0,,7,,,79,127
10057,note_off,133,0,0,,7,,,79,127
10060,note_on,3,0,0,,7,,,79,127
10193,note_off,133,0,0,,7,,,79,127
10196,note_on,3,0,0,,5,,,77,127
10329,note_off,133,0,0,,5,,,77,127
10330,note_off,1,0,0,,7,,,67,127
10331,note_on,1,0,0,,5,,,77,127
10464,note_off,133,0,0,,5,,,77,127
10467,note_on,3,0,0,,3,,,75,127
10600,note_off,133,0,0,,3,,,75,127
10600,note_off,0,0,0,,3,,,51,127
10603,note_on,3,0,0,,3,,,75,127
10603,note_on,0,0,0,,5,,,53,127
10736,note_off,133,0,0,,3,,,75,127
10739,note_on,3,0,0,,2,,,74,127
10872,note_off,133,0,0,,2,,,74,127
10872,note_off,0,0,0,,5,,,53,127
10875,note_on,3,0,0,,2,,,74,127
10875,note_on,0,0,0,,7,,,55,127
11008,note_off,133,0,0,,2,,,74,127
11011,note_on,3,0,0,,0,,,72,127
11144,note_off,133,0,0,,0,,,72,127
11147,note_on,3,0,0,,0,,,72,127
11280,note_off,133,0,0,,0,,,72,127
11283,note_on,3,0,0,,11,,,70,127
11416,note_off,133,0,0,,11,,,70,127
11416,note_off,0,0,0,,7,,,55,127
11419,note_on,3,0,0,,0,,,72,127
11419,note_on,0,0,0,,3,,,51,127
11484,note_off,65,0,0,,0,,,72,127
11487,note_on,3,0,0,,11,,,70,127
11552,note_off,65,0,0,,11,,,70,127
11555,note_on,3,0,0,,0,,,72,127
11620,note_off,65,0,0,,0,,,72,127
11623,note_on,3,0,0,,11,,,70,127
11688,note_off,65,0,0,,11,,,70,127
11691,note_on,3,0,0,,0,,,72,127
11756,note_off,65,0,0,,0,,,72,127
11759,note_on,3,0,0,,11,,,70,127
11824,note_off,65,0,0,,11,,,70,127
11827,note_on,3,0,0,,10,,,69,127
11892,note_off,65,0,0,,10,,,69,127
11895,note_on,3,0,0,,11,,,70,127
11960,note_off,65,0,0,,11,,,70,127
11960,note_off,0,0,0,,3,,,51,127
11963,note_on,3,0,0,,10,,,69,127
11963,note_on,0,0,0,,5,,,53,127
12096,note_off,133,0,0,,5,,,53,127
12099,note_on,3,0,0,,5,,,65,127
12232,note_off,133,0,0,,5,,,65,127
12235,note_on,3,0,0,,5,,,65,127
12368,note_off,133,0,0,,5,,,65,127
12371,note_on,3,0,0,,3,,,63,127
12504,note_off,133,0,0,,3,,,63,127
12507,note_on,3,0,0,,3,,,63,127
12640,note_off,133,0,0,,3,,,63,127
12643,note_on,3,0,0,,2,,,62,127
12711,note_off,68,0,0,,10,,,69,127
12776,note_off,65,0,0,,2,,,62,127
12779,note_on,3,0,0,,11,,,70,127
12779,note_on,0,0,0,,2,,,62,127
12912,note_off,133,0,0,,2,,,62,127
12915,note_on,3,0,0,,0,,,60,127
13048,note_off,133,0,0,,0,,,60,127
13048,note_off,0,0,0,,11,,,70,127
13051,note_on,3,0,0,,10,,,69,127
13051,note_on,0,0,0,,0,,,60,127
13184,note_off,133,0,0,,0,,,60,127
13187,note_on,3,0,0,,11,,,58,127
13320,note_off,133,0,0,,11,,,58,127
13320,note_off,0,0,0,,10,,,69,127
13323,note_on,3,0,0,,11,,,70,127
13323,note_on,0,0,0,,11,,,58,127
13456,note_off,133,0,0,,11,,,58,127
13459,note_on,3,0,0,,10,,,57,127
13592,note_off,133,0,0,,10,,,57,127
13592,note_off,0,0,0,,11,,,70,127
13595,note_on,3,0,0,,0,,,72,127
13595,note_on,0,0,0,,10,,,57,127
13728,note_off,133,0,0,,10,,,57,127
13731,note_on,3,0,0,,7,,,55,127
13864,note_off,133,0,0,,7,,,55,127
13864,note_off,0,0,0,,0,,,72,127
13867,note_on,3,0,0,,2,,,74,127
13867,note_on,0,0,0,,7,,,55,127
14000,note_off,133,0,0,,7,,,55,127
14003,note_on,3,0,0,,5,,,53,127
14136,note_off,133,0,0,,5,,,53,127
14136,note_off,0,0,0,,2,,,74,127
14139,note_on,3,0,0,,3,,,75,127
14139,note_on,0,0,0,,5,,,53,127
14272,note_off,133,0,0,,5,,,53,127
14275,note_on,3,0,0,,5,,,53,127
14408,note_off,133,0,0,,5,,,53,127
14408,note_off,0,0,0,,3,,,75,127
14411,note_on,3,0,0,,2,,,74,127
14411,note_on,0,0,0,,11,,,58,127
14544,note_off,133,0,0,,11,,,58,127
14547,note_on,3,0,0,,11,,,58,127
14680,note_off,133,0,0,,11,,,58,127
14683,note_on,3,0,0,,7,,,79,127
14683,note_on,0,0,0,,3,,,51,127
14816,note_off,133,0,0,,3,,,51,127
14819,note_off,3,0,0,,2,,,74,127
14819,note_on,0,0,0,,3,,,51,127
14952,note_off,133,0,0,,3,,,51,127
14955,note_on,3,0,0,,0,,,72,127
14955,note_on,0,0,0,,10,,,57,127
15088,note_off,133,0,0,,10,,,57,127
15091,note_off,3,0,0,,7,,,79,127
15091,note_on,0,0,0,,10,,,57,127
15224,note_off,133,0,0,,10,,,57,127
15227,note_on,3,0,0,,5,,,77,127
15227,note_on,0,0,0,,2,,,50,127
15360,note_off,133,0,0,,2,,,50,127
15363,note_off,3,0,0,,0,,,72,127
15363,note_on,0,0,0,,2,,,50,127
15496,note_off,133,0,0,,2,,,50,127
15499,note_on,3,0,0,,11,,,70,127
15499,note_on,0,0,0,,7,,,55,127
15632,note_off,133,0,0,,7,,,55,127
15635,note_off,3,0,0,,5,,,77,127
15635,note_on,0,0,0,,7,,,55,127
15768,note_off,133,0,0,,7,,,55,127
15768,note_off,0,0,0,,11,,,70,127
15771,note_on,3,0,0,,5,,,77,127
15771,note_on,0,0,0,,0,,,48,127
15904,note_off,133,0,0,,0,,,48,127
15904,note_off,0,0,0,,5,,,77,127
15907,note_on,3,0,0,,3,,,75,127
15907,note_on,0,0,0,,0,,,48,127
16040,note_off,133,0,0,,0,,,48,127
16040,note_off,0,0,0,,3,,,75,127
16043,note_on,3,0,0,,2,,,74,127
16043,note_on,0,0,0,,5,,,53,127
16176,note_off,133,0,0,,5,,,53,127
16176,note_off,0,0,0,,2,,,74,127
16179,note_on,3,0,0,,0,,,72,127
16179,note_on,0,0,0,,5,,,53,127
16312,note_off,133,0,0,,5,,,53,127
16312,note_off,0,0,0,,0,,,72,127
16315,note_on,3,0,0,,2,,,74,127
16315,note_on,0,0,0,,11,,,46,127
16448,note_off,133,0,0,,2,,,74,127
16451,note_on,3,0,0,,0,,,72,127
16584,note_off,133,0,0,,0,,,72,127
16587,note_on,3,0,0,,0,,,72,127
16720,note_off,133,0,0,,0,,,72,127
16723,note_on,3,0,0,,11,,,70,127
16856,note_off,133,0,0,,11,,,70,127
16856,note_off,0,0,0,,11,,,46,127
16859,note_on,3,0,0,,11,,,70,127
16859,note_on,0,0,0,,11,,,58,127
16992,note_off,133,0,0,,11,,,70,127
16995,note_on,3,0,0,,10,,,69,127
17128,note_off,133,0,0,,10,,,69,127
17131,note_on,3,0,0,,10,,,69,127
17264,note_off,133,0,0,,10,,,69,127
17267,note_on,3,0,0,,7,,,67,127
17400,note_off,133,0,0,,7,,,67,127
17400,note_off,0,0,0,,11,,,58,127
17403,note_on,3,0,0,,7,,,67,127
17403,note_on,0,0,0,,0,,,48,127
17536,note_off,133,0,0,,7,,,67,127
17539,note_on,3,0,0,,5,,,65,127
17672,note_off,133,0,0,,5,,,65,127
17675,note_on,3,0,0,,5,,,65,127
17808,note_off,133,0,0,,5,,,65,127
17811,note_on,3,0,0,,4,,,64,127
17944,note_off,133,0,0,,4,,,64,127
17944,note_off,0,0,0,,0,,,48,127
17947,note_on,3,0,0,,4,,,64,127
17947,note_on,0,0,0,,0,,,60,127
18080,note_off,133,0,0,,4,,,64,127
18083,note_on,3,0,0,,7,,,67,127
18216,note_off,133,0,0,,7,,,67,127
18216,note_off,0,0,0,,0,,,60,127
18219,note_on,3,0,0,,7,,,67,127
18219,note_on,0,0,0,,11,,,58,127
18352,note_off,133,0,0,,7,,,67,127
18355,note_on,3,0,0,,6,,,66,127
18488,note_off,133,0,0,,6,,,66,127
18488,note_off,0,0,0,,11,,,58,127
18491,note_on,3,0,0,,6,,,66,127
18491,note_on,0,0,0,,10,,,57,127
18624,note_off,133,0,0,,6,,,66,127
18627,note_on,3,0,0,,10,,,69,127
18760,note_off,133,0,0,,10,,,69,127
18760,note_off,0,0,0,,10,,,57,127
18763,note_on,3,0,0,,10,,,69,127
18763,note_on,0,0,0,,0,,,60,127
18896,note_off,133,0,0,,10,,,69,127
18899,note_on,3,0,0,,7,,,67,127
19032,note_off,133,0,0,,7,,,67,127
19032,note_off,0,0,0,,0,,,60,127
19035,note_on,3,0,0,,7,,,67,127
19035,note_on,0,0,0,,11,,,58,127
19168,note_off,133,0,0,,7,,,67,127
19171,note_on,3,0,0,,11,,,70,127
19304,note_off,133,0,0,,11,,,70,127
19304,note_off,0,0,0,,11,,,58,127
19307,note_on,3,0,0,,11,,,70,127
19307,note_on,0,0,0,,7,,,55,127
19440,note_off,133,0,0,,11,,,70,127
19443,note_on,3,0,0,,10,,,69,127
19576,note_off,133,0,0,,10,,,69,127
19576,note_off,0,0,0,,7,,,55,127
19579,note_on,3,0,0,,10,,,69,127
19579,note_on,0,0,0,,6,,,54,127
19712,note_off,133,0,0,,10,,,69,127
19715,note_on,3,0,0,,0,,,72,127
19848,note_off,133,0,0,,0,,,72,127
19848,note_off,0,0,0,,6,,,54,127
19851,note_on,3,0,0,,0,,,72,127
19851,note_on,0,0,0,,2,,,50,127
19984,note_off,133,0,0,,0,,,72,127
19987,note_on,3,0,0,,11,,,70,127
20120,note_off,133,0,0,,11,,,70,127
20120,note_off,0,0,0,,2,,,50,127
20123,note_on,3,0,0,,11,,,70,127
20123,note_on,0,0,0,,7,,,55,127
20123,note_on,0,0,0,,7,,,67,127
20256,note_off,133,0,0,,11,,,70,127
20259,note_on,3,0,0,,2,,,74,127
20392,note_off,133,0,0,,2,,,74,127
20392,note_off,0,0,0,,7,,,67,127
20395,note_on,3,0,0,,2,,,74,127
20395,note_on,0,0,0,,5,,,65,127
20528,note_off,133,0,0,,2,,,74,127
20531,note_on,3,0,0,,1,,,73,127
20664,note_off,133,0,0,,1,,,73,127
20664,note_off,0,0,0,,5,,,65,127
20665,note_off,1,0,0,,7,,,55,127
20666,note_on,1,0,0,,1,,,73,127
20666,note_on,0,0,0,,10,,,57,127
20666,note_on,0,0,0,,4,,,64,127
20799,note_off,133,0,0,,1,,,73,127
20802,note_on,3,0,0,,4,,,76,127
20935,note_off,133,0,0,,4,,,76,127
20935,note_off,0,0,0,,4,,,64,127
20938,note_on,3,0,0,,4,,,76,127
20938,note_on,0,0,0,,7,,,67,127
21071,note_off,133,0,0,,4,,,76,127
21074,note_on,3,0,0,,2,,,74,127
21207,note_off,133,0,0,,2,,,74,127
21207,note_off,0,0,0,,7,,,67,127
21208,note_off,1,0,0,,10,,,57,127
21209,note_on,1,0,0,,2,,,74,127
21209,note_on,0,0,0,,5,,,65,127
21342,note_off,133,0,0,,2,,,74,127
21345,note_on,3,0,0,,5,,,77,127
21478,note_off,133,0,0,,5,,,77,127
21478,note_off,0,0,0,,5,,,65,127
21481,note_on,3,0,0,,5,,,77,127
21481,note_on,0,0,0,,2,,,62,127
21614,note_off,133,0,0,,5,,,77,127
21617,note_on,3,0,0,,4,,,76,127
21750,note_off,133,0,0,,4,,,76,127
21750,note_off,0,0,0,,2,,,62,127
21753,note_on,3,0,0,,4,,,76,127
21753,note_on,0,0,0,,1,,,61,127
21886,note_off,133,0,0,,4,,,76,127
21889,note_on,3,0,0,,7,,,79,127
22022,note_off,133,0,0,,7,,,79,127
22022,note_off,0,0,0,,1,,,61,127
22025,note_on,3,0,0,,7,,,79,127
22025,note_on,0,0,0,,10,,,57,127
22158,note_off,133,0,0,,7,,,79,127
22161,note_on,3,0,0,,5,,,77,127
22294,note_off,133,0,0,,5,,,77,127
22294,note_off,0,0,0,,10,,,57,127
22297,note_on,3,0,0,,5,,,77,127
22297,note_on,0,0,0,,2,,,62,127
22430,note_off,133,0,0,,5,,,77,127
22433,note_on,3,0,0,,10,,,81,127
22566,note_off,133,0,0,,10,,,81,127
22569,note_on,3,0,0,,10,,,81,127
22702,note_off,133,0,0,,10,,,81,127
22705,note_on,3,0,0,,7,,,79,127
22838,note_off,133,0,0,,7,,,79,127
22838,note_off,0,0,0,,2,,,62,127
22841,note_on,3,0,0,,7,,,79,127
22841,note_on,0,0,0,,2,,,50,127
22974,note_off,133,0,0,,7,,,79,127
22977,note_on,3,0,0,,5,,,77,127
23110,note_off,133,0,0,,5,,,77,127
23110,note_off,0,0,0,,2,,,50,127
23113,note_on,3,0,0,,5,,,77,127
23113,note_on,0,0,0,,4,,,52,127
23246,note_off,133,0,0,,5,,,77,127
23249,note_on,3,0,0,,4,,,76,127
23382,note_off,133,0,0,,4,,,76,127
23382,note_off,0,0,0,,4,,,52,127
23385,note_on,3,0,0,,4,,,76,127
23385,note_on,0,0,0,,5,,,53,127
23518,note_off,133,0,0,,4,,,76,127
23521,note_on,3,0,0,,2,,,74,127
23654,note_off,133,0,0,,2,,,74,127
23657,note_on,3,0,0,,2,,,74,127
23657,note_on,0,0,0,,5,,,65,127
23790,note_off,133,0,0,,2,,,74,127
23793,note_on,3,0,0,,0,,,72,127
23926,note_off,133,0,0,,0,,,72,127
23926,note_off,0,0,0,,5,,,65,127
23927,note_off,1,0,0,,5,,,53,127
23928,note_on,1,0,0,,0,,,72,127
23928,note_on,0,0,0,,7,,,55,127
23993,note_off,65,0,0,,0,,,72,127
23996,note_on,3,0,0,,11,,,70,127
24061,note_off,65,0,0,,11,,,70,127
24064,note_on,3,0,0,,0,,,72,127
24129,note_off,65,0,0,,0,,,72,127
24132,note_on,3,0,0,,11,,,70,127
24197,note_off,65,0,0,,11,,,70,127
24200,note_on,3,0,0,,0,,,72,127
24200,note_on,0,0,0,,7,,,67,127
24265,note_off,65,0,0,,0,,,72,127
24268,note_on,3,0,0,,11,,,70,127
24333,note_off,65,0,0,,11,,,70,127
24336,note_on,3,0,0,,10,,,69,127
24401,note_off,65,0,0,,10,,,69,127
24404,note_on,3,0,0,,11,,,70,127
24469,note_off,65,0,0,,11,,,70,127
24469,note_off,0,0,0,,7,,,67,127
24470,note_off,1,0,0,,7,,,55,127
24471,note_on,1,0,0,,10,,,69,127
24471,note_on,0,0,0,,10,,,57,127
24605,note_off,134,0,0,,10,,,69,127
24606,note_on,1,0,0,,10,,,69,127
24739,note_off,133,0,0,,10,,,69,127
24740,note_off,1,0,0,,10,,,57,127
24741,note_on,1,0,0,,10,,,69,127
24874,note_off,133,0,0,,10,,,69,127
24877,note_on,3,0,0,,7,,,67,127
25010,note_off,133,0,0,,7,,,67,127
25013,note_on,3,0,0,,7,,,67,127
25146,note_off,133,0,0,,7,,,67,127
25149,note_on,3,0,0,,5,,,65,127
25282,note_off,133,0,0,,5,,,65,127
25285,note_on,3,0,0,,12,,,71,127
25285,note_on,0,0,0,,5,,,65,127
25418,note_off,133,0,0,,5,,,65,127
25421,note_on,3,0,0,,4,,,64,127
25554,note_off,133,0,0,,4,,,64,127
25554,note_off,0,0,0,,12,,,71,127
25557,note_on,3,0,0,,0,,,72,127
25557,note_on,0,0,0,,4,,,64,127
25690,note_off,133,0,0,,4,,,64,127
25693,note_on,3,0,0,,2,,,62,127
25826,note_off,133,0,0,,2,,,62,127
25826,note_off,0,0,0,,0,,,72,127
25829,note_on,3,0,0,,2,,,74,127
25829,note_on,0,0,0,,2,,,62,127
25962,note_off,133,0,0,,2,,,62,127
25965,note_on,3,0,0,,0,,,60,127
26098,note_off,133,0,0,,0,,,60,127
26098,note_off,0,0,0,,2,,,74,127
26101,note_on,3,0,0,,4,,,76,127
26101,note_on,0,0,0,,0,,,60,127
26234,note_off,133,0,0,,0,,,60,127
26237,note_on,3,0,0,,11,,,58,127
26370,note_off,133,0,0,,11,,,58,127
26370,note_off,0,0,0,,4,,,76,127
26373,note_on,3,0,0,,5,,,77,127
26373,note_on,0,0,0,,11,,,58,127
26506,note_off,133,0,0,,11,,,58,127
26509,note_on,3,0,0,,10,,,57,127
26642,note_off,133,0,0,,10,,,57,127
26642,note_off,0,0,0,,5,,,77,127
26645,note_on,3,0,0,,7,,,79,127
26645,note_on,0,0,0,,10,,,57,127
26778,note_off,133,0,0,,10,,,57,127
26781,note_on,3,0,0,,10,,,57,127
26914,note_off,133,0,0,,10,,,57,127
26914,note_off,0,0,0,,7,,,79,127
26917,note_on,3,0,0,,5,,,77,127
26917,note_on,0,0,0,,2,,,62,127
27050,note_off,133,0,0,,2,,,62,127
27053,note_on,3,0,0,,2,,,62,127
27186,note_off,133,0,0,,2,,,62,127
27189,note_on,3,0,0,,11,,,82,127
27189,note_on,0,0,0,,7,,,55,127
27322,note_off,133,0,0,,7,,,55,127
27325,note_off,3,0,0,,5,,,77,127
27325,note_on,0,0,0,,7,,,55,127
27458,note_off,133,0,0,,7,,,55,127
27461,note_on,3,0,0,,4,,,76,127
27461,note_on,0,0,0,,0,,,60,127
27594,note_off,133,0,0,,0,,,60,127
27597,note_off,3,0,0,,11,,,82,127
27597,note_on,0,0,0,,0,,,60,127
27730,note_off,133,0,0,,0,,,60,127
27733,note_on,3,0,0,,10,,,81,127
27733,note_on,0,0,0,,5,,,53,127
27866,note_off,133,0,0,,5,,,53,127
27869,note_off,3,0,0,,4,,,76,127
27869,note_on,0,0,0,,5,,,53,127
28002,note_off,133,0,0,,5,,,53,127
28005,note_on,3,0,0,,2,,,74,127
28005,note_on,0,0,0,,11,,,58,127
28138,note_off,133,0,0,,11,,,58,127
28141,note_off,3,0,0,,10,,,81,127
28141,note_on,0,0,0,,11,,,58,127
28274,note_off,133,0,0,,11,,,58,127
28274,note_off,0,0,0,,2,,,74,127
28277,note_on,3,0,0,,10,,,81,127
28277,note_on,0,0,0,,4,,,52,127
28410,note_off,133,0,0,,4,,,52,127
28410,note_off,0,0,0,,10,,,81,127
28413,note_on,3,0,0,,7,,,79,127
28413,note_on,0,0,0,,4,,,52,127
28546,note_off,133,0,0,,4,,,52,127
28546,note_off,0,0,0,,7,,,79,127
28549,note_on,3,0,0,,5,,,77,127
28549,note_on,0,0,0,,10,,,57,127
28682,note_off,133,0,0,,10,,,57,127
28682,note_off,0,0,0,,5,,,77,127
28685,note_on,3,0,0,,4,,,76,127
28685,note_on,0,0,0,,10,,,57,127
28818,note_off,133,0,0,,10,,,57,127
28818,note_off,0,0,0,,4,,,76,127
28821,note_on,3,0,0,,5,,,77,127
28821,note_on,0,0,0,,2,,,50,127
28957,note_on,136,0,0,,5,,,65,127
29090,note_off,133,0,0,,5,,,65,127
29090,note_off,0,0,0,,2,,,50,127
29090,note_off,0,0,0,,5,,,77,127
29093,note_on,3,0,0,,5,,,65,127
29093,note_on,0,0,0,,2,,,62,127
29226,note_off,133,0,0,,5,,,65,127
29229,note_on,3,0,0,,5,,,65,127
29362,note_off,133,0,0,,5,,,65,127
29365,note_on,3,0,0,,4,,,64,127
29498,note_off,133,0,0,,4,,,64,127
29501,note_on,3,0,0,,4,,,64,127
29634,note_off,133,0,0,,4,,,64,127
29634,note_off,0,0,0,,2,,,62,127
29637,note_on,3,0,0,,10,,,69,127
29637,note_on,0,0,0,,0,,,60,127
29770,note_off,133,0,0,,10,,,69,127
29773,note_on,3,0,0,,10,,,69,127
29906,note_off,133,0,0,,0,,,60,127
29909,note_on,3,0,0,,2,,,74,127
29909,note_on,0,0,0,,11,,,58,127
29977,note_off,68,0,0,,10,,,69,127
30042,note_off,65,0,0,,11,,,58,127
30045,note_on,3,0,0,,11,,,58,127
30178,note_off,133,0,0,,11,,,58,127
30181,note_on,3,0,0,,11,,,70,127
30181,note_on,0,0,0,,7,,,67,127
30314,note_off,133,0,0,,7,,,67,127
30317,note_off,3,0,0,,2,,,74,127
30317,note_on,0,0,0,,7,,,67,127
30450,note_off,133,0,0,,7,,,67,127
30453,note_on,3,0,0,,0,,,72,127
30453,note_on,0,0,0,,10,,,57,127
30586,note_off,133,0,0,,10,,,57,127
30589,note_off,3,0,0,,11,,,70,127
30589,note_on,0,0,0,,10,,,57,127
30722,note_off,133,0,0,,10,,,57,127
30725,note_on,3,0,0,,10,,,69,127
30725,note_on,0,0,0,,5,,,65,127
30858,note_off,133,0,0,,5,,,65,127
30861,note_off,3,0,0,,0,,,72,127
30861,note_on,0,0,0,,5,,,65,127
30994,note_off,133,0,0,,5,,,65,127
30994,note_off,0,0,0,,10,,,69,127
30997,note_on,3,0,0,,0,,,72,127
30997,note_on,0,0,0,,7,,,55,127
31130,note_off,133,0,0,,7,,,55,127
31130,note_off,0,0,0,,0,,,72,127
31133,note_on,3,0,0,,11,,,70,127
31133,note_on,0,0,0,,7,,,55,127
31266,note_off,133,0,0,,7,,,55,127
31266,note_off,0,0,0,,11,,,70,127
31269,note_on,3,0,0,,10,,,69,127
31269,note_on,0,0,0,,4,,,64,127
31402,note_off,133,0,0,,4,,,64,127
31402,note_off,0,0,0,,10,,,69,127
31405,note_on,3,0,0,,7,,,67,127
31405,note_on,0,0,0,,4,,,64,127
31538,note_off,133,0,0,,4,,,64,127
31538,note_off,0,0,0,,7,,,67,127
31541,note_on,3,0,0,,10,,,69,127
31541,note_on,0,0,0,,5,,,53,127
31674,note_off,133,0,0,,10,,,69,127
31677,note_on,3,0,0,,10,,,69,127
31810,note_off,133,0,0,,10,,,69,127
31810,note_off,0,0,0,,5,,,53,127
31813,note_on,3,0,0,,10,,,69,127
31813,note_on,0,0,0,,5,,,65,127
31946,note_off,133,0,0,,10,,,69,127
31949,note_on,3,0,0,,10,,,69,127
32082,note_off,133,0,0,,10,,,69,127
32085,note_on,3,0,0,,7,,,67,127
32218,note_off,133,0,0,,7,,,67,127
32221,note_on,3,0,0,,7,,,67,127
32354,note_off,133,0,0,,7,,,67,127
32354,note_off,0,0,0,,5,,,65,127
32357,note_on,3,0,0,,0,,,72,127
32357,note_on,0,0,0,,3,,,63,127
32490,note_off,133,0,0,,0,,,72,127
32493,note_on,3,0,0,,0,,,72,127
32626,note_off,133,0,0,,3,,,63,127
32629,note_on,3,0,0,,5,,,77,127
32629,note_on,0,0,0,,2,,,62,127
32697,note_off,68,0,0,,0,,,72,127
32762,note_off,65,0,0,,2,,,62,127
32765,note_on,3,0,0,,2,,,62,127
32898,note_off,133,0,0,,2,,,62,127
32901,note_on,3,0,0,,2,,,74,127
32901,note_on,0,0,0,,7,,,67,127
33034,note_off,133,0,0,,7,,,67,127
33037,note_off,3,0,0,,5,,,77,127
33037,note_on,0,0,0,,7,,,67,127
33170,note_off,133,0,0,,7,,,67,127
33171,note_off,1,0,0,,2,,,74,127
33172,note_on,1,0,0,,5,,,77,127
33172,note_on,0,0,0,,0,,,60,127
33305,note_off,133,0,0,,0,,,60,127
33305,note_off,0,0,0,,5,,,77,127
33308,note_on,3,0,0,,3,,,75,127
33308,note_on,0,0,0,,0,,,60,127
33441,note_off,133,0,0,,0,,,60,127
33441,note_off,0,0,0,,3,,,75,127
33444,note_on,3,0,0,,2,,,74,127
33444,note_on,0,0,0,,5,,,65,127
33577,note_off,133,0,0,,5,,,65,127
33577,note_off,0,0,0,,2,,,74,127
33580,note_on,3,0,0,,0,,,72,127
33580,note_on,0,0,0,,5,,,65,127
33713,note_off,133,0,0,,5,,,65,127
33713,note_off,0,0,0,,0,,,72,127
33716,note_on,3,0,0,,2,,,74,127
33716,note_on,0,0,0,,11,,,58,127
33849,note_off,133,0,0,,2,,,74,127
33852,note_on,3,0,0,,5,,,77,127
33985,note_off,133,0,0,,5,,,77,127
33985,note_off,0,0,0,,11,,,58,127
33988,note_on,3,0,0,,5,,,77,127
33988,note_on,0,0,0,,2,,,62,127
34121,note_off,133,0,0,,5,,,77,127
34124,note_on,3,0,0,,11,,,70,127
34257,note_off,133,0,0,,11,,,70,127
34257,note_off,0,0,0,,2,,,62,127
34260,note_on,3,0,0,,0,,,72,127
34260,note_on,0,0,0,,11,,,70,127
34260,note_on,0,0,0,,0,,,60,127
34393,note_off,133,0,0,,11,,,70,127
34393,note_off,0,0,0,,0,,,72,127
34396,note_on,3,0,0,,10,,,69,127
34529,note_off,133,0,0,,10,,,69,127
34529,note_off,0,0,0,,0,,,60,127
34532,note_on,3,0,0,,10,,,69,127
34532,note_on,0,0,0,,11,,,58,127
34665,note_off,133,0,0,,10,,,69,127
34668,note_on,3,0,0,,11,,,70,127
34801,note_off,133,0,0,,11,,,70,127
34801,note_off,0,0,0,,11,,,58,127
34804,note_on,3,0,0,,0,,,72,127
34804,note_on,0,0,0,,5,,,53,127
34940,note_on,136,0,0,,5,,,77,127
34974,note_off,34,0,0,,0,,,72,127
35073,note_off,99,0,0,,5,,,77,127
35073,note_off,0,0,0,,5,,,53,127
35076,note_on,3,0,0,,5,,,77,127
35076,note_on,0,0,0,,2,,,62,127
35209,note_off,133,0,0,,5,,,77,127
35212,note_on,3,0,0,,11,,,70,127
35345,note_off,133,0,0,,11,,,70,127
35345,note_off,0,0,0,,2,,,62,127
35348,note_on,3,0,0,,11,,,70,127
35348,note_on,0,0,0,,0,,,72,127
35348,note_on,0,0,0,,0,,,60,127
35481,note_off,133,0,0,,0,,,72,127
35481,note_off,0,0,0,,11,,,70,127
35484,note_on,3,0,0,,10,,,69,127
35617,note_off,133,0,0,,10,,,69,127
35617,note_off,0,0,0,,0,,,60,127
35620,note_on,3,0,0,,10,,,69,127
35620,note_on,0,0,0,,11,,,58,127
35753,note_off,133,0,0,,10,,,69,127
35756,note_on,3,0,0,,11,,,70,127
35889,note_off,133,0,0,,11,,,70,127
35889,note_off,0,0,0,,11,,,58,127
35892,note_on,3,0,0,,0,,,72,127
35892,note_on,0,0,0,,5,,,53,127
35892,note_on,0,0,0,,5,,,65,127
36025,note_off,133,0,0,,0,,,72,127
36028,note_on,3,0,0,,5,,,77,127
36161,note_off,133,0,0,,5,,,77,127
36161,note_off,0,0,0,,5,,,65,127
36161,note_off,0,0,0,,5,,,53,127
36164,note_on,3,0,0,,5,,,77,127
36164,note_on,0,0,0,,7,,,79,127
36164,note_on,0,0,0,,5,,,53,127
36164,note_on,0,0,0,,5,,,65,127
36297,note_off,133,0,0,,7,,,79,127
36297,note_off,0,0,0,,5,,,77,127
36300,note_on,3,0,0,,4,,,76,127
36433,note_off,133,0,0,,4,,,76,127
36433,note_off,0,0,0,,5,,,65,127
36433,note_off,0,0,0,,5,,,53,127
36436,note_on,3,0,0,,4,,,76,127
36436,note_on,0,0,0,,4,,,64,127
36436,note_on,0,0,0,,7,,,55,127
36436,note_on,0,0,0,,11,,,58,127
36569,note_off,133,0,0,,4,,,76,127
36572,note_on,3,0,0,,5,,,77,127
36705,note_off,133,0,0,,5,,,77,127
36705,note_off,0,0,0,,11,,,58,127
36705,note_off,0,0,0,,7,,,55,127
36705,note_off,0,0,0,,4,,,64,127
36708,note_on,3,0,0,,5,,,77,127
36708,note_on,0,0,0,,7,,,79,127
36708,note_on,0,0,0,,7,,,55,127
36708,note_on,0,0,0,,11,,,58,127
36708,note_on,0,0,0,,4,,,64,127
36841,note_off,133,0,0,,7,,,79,127
36841,note_off,0,0,0,,5,,,77,127
36844,note_on,3,0,0,,4,,,76,127
36977,note_off,133,0,0,,4,,,76,127
36977,note_off,0,0,0,,4,,,64,127
36977,note_off,0,0,0,,11,,,58,127
36977,note_off,0,0,0,,7,,,55,127
36980,note_on,3,0,0,,4,,,76,127
36980,note_on,0,0,0,,10,,,57,127
36980,note_on,0,0,0,,0,,,60,127
36980,note_on,0,0,0,,5,,,65,127
37113,note_off,133,0,0,,4,,,76,127
37116,note_on,3,0,0,,5,,,77,127
37249,note_off,133,0,0,,5,,,77,127
37249,note_off,0,0,0,,5,,,65,127
37249,note_off,0,0,0,,0,,,60,127
37249,note_off,0,0,0,,10,,,57,127
37252,note_on,3,0,0,,5,,,77,127
37252,note_on,0,0,0,,7,,,79,127
37252,note_on,0,0,0,,10,,,57,127
37252,note_on,0,0,0,,5,,,65,127
37252,note_on,0,0,0,,0,,,60,127
37385,note_off,133,0,0,,7,,,79,127
37385,note_off,0,0,0,,5,,,77,127
37388,note_on,3,0,0,,4,,,76,127
37521,note_off,133,0,0,,4,,,76,127
37521,note_off,0,0,0,,0,,,60,127
37521,note_off,0,0,0,,5,,,65,127
37521,note_off,0,0,0,,10,,,57,127
37524,note_on,3,0,0,,4,,,76,127
37524,note_on,0,0,0,,7,,,55,127
37524,note_on,0,0,0,,11,,,58,127
37524,note_on,0,0,0,,4,,,64,127
37657,note_off,133,0,0,,4,,,76,127
37660,note_on,3,0,0,,5,,,77,127
37793,note_off,133,0,0,,5,,,77,127
37793,note_off,0,0,0,,4,,,64,127
37793,note_off,0,0,0,,11,,,58,127
37793,note_off,0,0,0,,7,,,55,127
37796,note_on,3,0,0,,5,,,77,127
37796,note_on,0,0,0,,7,,,79,127
37796,note_on,0,0,0,,11,,,58,127
37796,note_on,0,0,0,,7,,,55,127
37796,note_on,0,0,0,,4,,,64,127
37929,note_off,133,0,0,,7,,,79,127
37929,note_off,0,0,0,,5,,,77,127
37932,note_on,3,0,0,,4,,,76,127
38065,note_off,133,0,0,,4,,,76,127
38065,note_off,0,0,0,,4,,,64,127
38065,note_off,0,0,0,,7,,,55,127
38065,note_off,0,0,0,,11,,,58,127
38068,note_on,3,0,0,,4,,,76,127
38068,note_on,0,0,0,,5,,,41,127
38068,note_on,0,0,0,,5,,,53,127
38336,note_off,268,0,0,,4,,,76,127
38339,note_on,3,0,0,,5,,,77,127
39056,note_off,717,0,0,,5,,,41,127
39149,note_off,93,0,0,,5,,,53,127
39152,note_on,3,0,0,,5,,,65,127
39285,note_off,133,0,0,,5,,,77,127
39288,note_on,3,0,0,,0,,,72,127
39421,note_off,133,0,0,,0,,,72,127
39424,note_on,3,0,0,,0,,,72,127
39557,note_off,133,0,0,,0,,,72,127
39560,note_on,3,0,0,,0,,,72,127
39693,note_off,133,0,0,,0,,,72,127
39693,note_off,0,0,0,,5,,,65,127
39696,note_on,3,0,0,,1,,,73,127
39696,note_on,0,0,0,,5,,,65,127
39829,note_off,133,0,0,,1,,,73,127
39832,note_on,3,0,0,,11,,,70,127
39965,note_off,133,0,0,,11,,,70,127
39968,note_on,3,0,0,,4,,,76,127
40101,note_off,133,0,0,,4,,,76,127
40104,note_on,3,0,0,,7,,,67,127
40104,note_on,0,0,0,,0,,,72,127
40237,note_off,133,0,0,,0,,,72,127
40237,note_off,0,0,0,,7,,,67,127
40237,note_off,0,0,0,,5,,,65,127
40240,note_on,3,0,0,,5,,,77,127
40240,note_on,0,0,0,,10,,,69,127
40240,note_on,0,0,0,,5,,,65,127
40373,note_off,133,0,0,,5,,,77,127
40376,note_on,3,0,0,,0,,,72,127
40509,note_off,133,0,0,,0,,,72,127
40512,note_on,3,0,0,,0,,,72,127
40645,note_off,133,0,0,,0,,,72,127
40648,note_on,3,0,0,,0,,,72,127
40781,note_off,133,0,0,,0,,,72,127
40781,note_off,0,0,0,,5,,,65,127
40782,note_off,1,0,0,,10,,,69,127
40783,note_on,1,0,0,,1,,,73,127
40783,note_on,0,0,0,,5,,,65,127
40916,note_off,133,0,0,,1,,,73,127
40919,note_on,3,0,0,,11,,,70,127
41052,note_off,133,0,0,,11,,,70,127
41055,note_on,3,0,0,,4,,,76,127
41188,note_off,133,0,0,,4,,,76,127
41191,note_on,3,0,0,,7,,,67,127
41191,note_on,0,0,0,,0,,,72,127
41324,note_off,133,0,0,,0,,,72,127
41324,note_off,0,0,0,,7,,,67,127
41324,note_off,0,0,0,,5,,,65,127
41327,note_on,3,0,0,,5,,,77,127
41327,note_on,0,0,0,,10,,,69,127
41327,note_on,0,0,0,,5,,,65,127
41460,note_off,133,0,0,,5,,,65,127
41461,note_off,1,0,0,,10,,,69,127
41462,note_on,1,0,0,,10,,,69,127
41595,note_off,133,0,0,,10,,,69,127
41595,note_off,0,0,0,,5,,,77,127
41598,note_on,3,0,0,,0,,,72,127
41598,note_on,0,0,0,,10,,,69,127
41731,note_off,133,0,0,,10,,,69,127
41734,note_on,3,0,0,,10,,,69,127
41867,note_off,133,0,0,,10,,,69,127
41867,note_off,0,0,0,,0,,,72,127
41870,note_on,3,0,0,,1,,,73,127
41870,note_on,0,0,0,,11,,,70,127
42003,note_off,133,0,0,,11,,,70,127
42006,note_on,3,0,0,,11,,,70,127
42139,note_off,133,0,0,,11,,,70,127
42139,note_off,0,0,0,,1,,,73,127
42142,note_on,3,0,0,,3,,,75,127
42142,note_on,0,0,0,,11,,,70,127
42142,note_on,0,0,0,,6,,,66,127
42275,note_off,133,0,0,,6,,,66,127
42278,note_on,3,0,0,,6,,,66,127
42411,note_off,133,0,0,,6,,,66,127
42411,note_off,0,0,0,,11,,,70,127
42411,note_off,0,0,0,,3,,,75,127
42414,note_on,3,0,0,,5,,,77,127
42414,note_on,0,0,0,,10,,,69,127
42414,note_on,0,0,0,,5,,,65,127
42547,note_off,133,0,0,,5,,,65,127
42550,note_on,3,0,0,,5,,,65,127
42683,note_off,133,0,0,,5,,,65,127
42683,note_off,0,0,0,,10,,,69,127
42686,note_on,3,0,0,,0,,,72,127
42686,note_on,0,0,0,,10,,,69,127
42819,note_off,133,0,0,,10,,,69,127
42822,note_on,3,0,0,,10,,,69,127
42955,note_off,133,0,0,,10,,,69,127
42955,note_off,0,0,0,,0,,,72,127
42956,note_off,1,0,0,,5,,,77,127
42957,note_on,1,0,0,,1,,,73,127
42957,note_on,0,0,0,,11,,,70,127
43090,note_off,133,0,0,,11,,,70,127
43093,note_on,3,0,0,,11,,,70,127
43226,note_off,133,0,0,,11,,,70,127
43226,note_off,0,0,0,,1,,,73,127
43229,note_on,3,0,0,,3,,,75,127
43229,note_on,0,0,0,,11,,,70,127
43229,note_on,0,0,0,,6,,,66,127
43362,note_off,133,0,0,,6,,,66,127
43365,note_on,3,0,0,,6,,,66,127
43498,note_off,133,0,0,,6,,,66,127
43498,note_off,0,0,0,,11,,,70,127
43498,note_off,0,0,0,,3,,,75,127
43501,note_on,3,0,0,,10,,,69,127
43501,note_on,0,0,0,,5,,,77,127
43501,note_on,0,0,0,,5,,,65,127
43634,note_off,133,0,0,,5,,,65,127
43637,note_on,3,0,0,,5,,,65,127
43770,note_off,133,0,0,,5,,,65,127
43770,note_off,0,0,0,,10,,,69,127
43773,note_on,3,0,0,,10,,,69,127
43773,note_on,0,0,0,,5,,,65,127
43906,note_off,133,0,0,,5,,,65,127
43909,note_on,3,0,0,,5,,,65,127
44042,note_off,133,0,0,,5,,,65,127
44042,note_off,0,0,0,,10,,,69,127
44045,note_on,3,0,0,,11,,,70,127
44045,note_on,0,0,0,,6,,,66,127
44178,note_off,133,0,0,,6,,,66,127
44181,note_on,3,0,0,,6,,,66,127
44314,note_off,133,0,0,,6,,,66,127
44314,note_off,0,0,0,,11,,,70,127
44315,note_off,1,0,0,,5,,,77,127
44316,note_on,1,0,0,,6,,,78,127
44316,note_on,0,0,0,,3,,,63,127
44449,note_off,133,0,0,,3,,,63,127
44452,note_on,3,0,0,,3,,,63,127
44585,note_off,133,0,0,,3,,,63,127
44585,note_off,0,0,0,,6,,,78,127
44588,note_on,3,0,0,,5,,,77,127
44588,note_on,0,0,0,,5,,,65,127
44721,note_off,133,0,0,,5,,,65,127
44724,note_on,3,0,0,,5,,,65,127
44857,note_off,133,0,0,,5,,,65,127
44860,note_on,3,0,0,,10,,,69,127
44860,note_on,0,0,0,,0,,,60,127
44993,note_off,133,0,0,,0,,,60,127
44996,note_on,3,0,0,,0,,,60,127
45129,note_off,133,0,0,,0,,,60,127
45129,note_off,0,0,0,,10,,,69,127
45132,note_on,3,0,0,,11,,,70,127
45132,note_on,0,0,0,,1,,,61,127
45265,note_off,133,0,0,,1,,,61,127
45268,note_on,3,0,0,,1,,,61,127
45401,note_off,133,0,0,,1,,,61,127
45401,note_off,0,0,0,,11,,,70,127
45402,note_off,1,0,0,,5,,,77,127
45403,note_on,1,0,0,,0,,,72,127
45403,note_on,0,0,0,,10,,,57,127
45536,note_off,133,0,0,,10,,,57,127
45539,note_on,3,0,0,,10,,,57,127
45672,note_off,133,0,0,,10,,,57,127
45672,note_off,0,0,0,,0,,,72,127
45675,note_on,3,0,0,,1,,,73,127
45675,note_on,0,0,0,,11,,,58,127
45808,note_off,133,0,0,,11,,,58,127
45811,note_on,3,0,0,,11,,,58,127
45944,note_off,133,0,0,,11,,,58,127
45944,note_off,0,0,0,,1,,,73,127
45947,note_on,3,0,0,,10,,,69,127
45947,note_on,0,0,0,,5,,,53,127
46080,note_off,133,0,0,,5,,,53,127
46083,note_on,3,0,0,,5,,,53,127
46216,note_off,133,0,0,,5,,,53,127
46216,note_off,0,0,0,,10,,,69,127
46219,note_on,3,0,0,,11,,,70,127
46219,note_on,0,0,0,,6,,,54,127
46352,note_off,133,0,0,,6,,,54,127
46355,note_on,3,0,0,,6,,,54,127
46488,note_off,133,0,0,,6,,,54,127
46488,note_off,0,0,0,,11,,,70,127
46491,note_on,3,0,0,,6,,,78,127
46491,note_on,0,0,0,,3,,,51,127
46624,note_off,133,0,0,,3,,,51,127
46627,note_on,3,0,0,,3,,,51,127
46760,note_off,133,0,0,,3,,,51,127
46760,note_off,0,0,0,,6,,,78,127
46763,note_on,3,0,0,,5,,,77,127
46763,note_on,0,0,0,,5,,,53,127
46896,note_off,133,0,0,,5,,,53,127
46899,note_on,3,0,0,,5,,,53,127
47032,note_off,133,0,0,,5,,,53,127
47035,note_on,3,0,0,,10,,,69,127
47035,note_on,0,0,0,,0,,,48,127
47168,note_off,133,0,0,,0,,,48,127
47171,note_on,3,0,0,,0,,,48,127
47304,note_off,133,0,0,,0,,,48,127
47304,note_off,0,0,0,,10,,,69,127
47305,note_off,1,0,0,,5,,,77,127
47306,note_on,1,0,0,,11,,,70,127
47306,note_on,0,0,0,,1,,,49,127
47439,note_off,133,0,0,,1,,,49,127
47442,note_on,3,0,0,,1,,,49,127
47575,note_off,133,0,0,,1,,,49,127
47575,note_off,0,0,0,,11,,,70,127
47578,note_on,3,0,0,,0,,,72,127
47578,note_on,0,0,0,,10,,,45,127
47711,note_off,133,0,0,,10,,,45,127
47714,note_on,3,0,0,,10,,,45,127
47847,note_off,133,0,0,,10,,,45,127
47847,note_off,0,0,0,,0,,,72,127
47850,note_on,3,0,0,,1,,,73,127
47850,note_on,0,0,0,,11,,,46,127
47983,note_off,133,0,0,,1,,,73,127
47986,note_on,3,0,0,,5,,,77,127
48119,note_off,133,0,0,,5,,,77,127
48119,note_off,0,0,0,,11,,,46,127
48122,note_on,3,0,0,,3,,,75,127
48122,note_on,0,0,0,,3,,,51,127
48255,note_off,133,0,0,,3,,,75,127
48258,note_on,3,0,0,,0,,,72,127
48391,note_off,133,0,0,,0,,,72,127
48391,note_off,0,0,0,,3,,,51,127
48394,note_on,3,0,0,,1,,,73,127
48394,note_on,0,0,0,,5,,,53,127
48527,note_off,133,0,0,,1,,,73,127
48530,note_on,3,0,0,,11,,,70,127
48663,note_off,133,0,0,,11,,,70,127
48663,note_off,0,0,0,,5,,,53,127
48666,note_on,3,0,0,,10,,,69,127
48666,note_on,0,0,0,,6,,,54,127
48799,note_off,133,0,0,,10,,,69,127
48802,note_on,3,0,0,,11,,,70,127
48935,note_off,133,0,0,,11,,,70,127
48935,note_off,0,0,0,,6,,,54,127
48938,note_on,3,0,0,,0,,,72,127
48938,note_on,0,0,0,,5,,,53,127
49071,note_off,133,0,0,,5,,,53,127
49074,note_on,3,0,0,,5,,,65,127
49207,note_off,133,0,0,,5,,,65,127
49207,note_off,0,0,0,,0,,,72,127
49210,note_on,3,0,0,,10,,,69,127
49210,note_on,0,0,0,,5,,,65,127
49343,note_off,133,0,0,,5,,,65,127
49346,note_on,3,0,0,,5,,,65,127
49479,note_off,133,0,0,,5,,,65,127
49479,note_off,0,0,0,,10,,,69,127
49482,note_on,3,0,0,,11,,,70,127
49482,note_on,0,0,0,,6,,,66,127
49615,note_off,133,0,0,,6,,,66,127
49618,note_on,3,0,0,,6,,,66,127
49751,note_off,133,0,0,,6,,,66,127
49751,note_off,0,0,0,,11,,,70,127
49754,note_on,3,0,0,,6,,,78,127
49754,note_on,0,0,0,,3,,,63,127
49887,note_off,133,0,0,,3,,,63,127
49890,note_on,3,0,0,,3,,,63,127
50023,note_off,133,0,0,,3,,,63,127
50023,note_off,0,0,0,,6,,,78,127
50026,note_on,3,0,0,,5,,,77,127
50026,note_on,0,0,0,,5,,,65,127
50159,note_off,133,0,0,,5,,,65,127
50162,note_on,3,0,0,,5,,,65,127
50295,note_off,133,0,0,,5,,,65,127
50298,note_on,3,0,0,,10,,,69,127
50298,note_on,0,0,0,,0,,,60,127
50431,note_off,133,0,0,,0,,,60,127
50434,note_on,3,0,0,,0,,,60,127
50567,note_off,133,0,0,,0,,,60,127
50567,note_off,0,0,0,,10,,,69,127
50570,note_on,3,0,0,,11,,,70,127
50570,note_on,0,0,0,,1,,,61,127
50703,note_off,133,0,0,,1,,,61,127
50706,note_on,3,0,0,,1,,,61,127
50839,note_off,133,0,0,,1,,,61,127
50839,note_off,0,0,0,,11,,,70,127
50840,note_off,1,0,0,,5,,,77,127
50841,note_on,1,0,0,,0,,,72,127
50841,note_on,0,0,0,,10,,,57,127
50974,note_off,133,0,0,,10,,,57,127
50977,note_on,3,0,0,,10,,,57,127
51110,note_off,133,0,0,,10,,,57,127
51110,note_off,0,0,0,,0,,,72,127
51113,note_on,3,0,0,,1,,,73,127
51113,note_on,0,0,0,,11,,,58,127
51246,note_off,133,0,0,,11,,,58,127
51249,note_on,3,0,0,,11,,,58,127
51382,note_off,133,0,0,,11,,,58,127
51382,note_off,0,0,0,,1,,,73,127
51385,note_on,3,0,0,,10,,,69,127
51385,note_on,0,0,0,,5,,,53,127
51518,note_off,133,0,0,,5,,,53,127
51521,note_on,3,0,0,,5,,,53,127
51654,note_off,133,0,0,,5,,,53,127
51654,note_off,0,0,0,,10,,,69,127
51657,note_on,3,0,0,,11,,,70,127
51657,note_on,0,0,0,,6,,,54,127
51790,note_off,133,0,0,,6,,,54,127
51793,note_on,3,0,0,,6,,,54,127
51926,note_off,133,0,0,,6,,,54,127
51926,note_off,0,0,0,,11,,,70,127
51929,note_on,3,0,0,,6,,,78,127
51929,note_on,0,0,0,,3,,,51,127
52062,note_off,133,0,0,,3,,,51,127
52065,note_on,3,0,0,,3,,,51,127
52198,note_off,133,0,0,,3,,,51,127
52198,note_off,0,0,0,,6,,,78,127
52201,note_on,3,0,0,,5,,,77,127
52201,note_on,0,0,0,,5,,,53,127
52334,note_off,133,0,0,,5,,,53,127
52337,note_on,3,0,0,,5,,,53,127
52470,note_off,133,0,0,,5,,,53,127
52473,note_on,3,0,0,,10,,,69,127
52473,note_on,0,0,0,,0,,,48,127
52606,note_off,133,0,0,,0,,,48,127
52609,note_on,3,0,0,,0,,,48,127
52742,note_off,133,0,0,,0,,,48,127
52742,note_off,0,0,0,,10,,,69,127
52743,note_off,1,0,0,,5,,,77,127
52744,note_on,1,0,0,,11,,,70,127
52744,note_on,0,0,0,,1,,,49,127
52877,note_off,133,0,0,,1,,,49,127
52880,note_on,3,0,0,,1,,,49,127
53013,note_off,133,0,0,,1,,,49,127
53013,note_off,0,0,0,,11,,,70,127
53016,note_on,3,0,0,,0,,,72,127
53016,note_on,0,0,0,,10,,,45,127
53149,note_off,133,0,0,,10,,,45,127
53152,note_on,3,0,0,,10,,,45,127
53285,note_off,133,0,0,,10,,,45,127
53285,note_off,0,0,0,,0,,,72,127
53288,note_on,3,0,0,,1,,,73,127
53288,note_on,0,0,0,,11,,,46,127
53421,note_off,133,0,0,,1,,,73,127
53424,note_on,3,0,0,,5,,,77,127
53557,note_off,133,0,0,,5,,,77,127
53557,note_off,0,0,0,,11,,,46,127
53560,note_on,3,0,0,,0,,,72,127
53560,note_on,0,0,0,,3,,,51,127
53693,note_off,133,0,0,,0,,,72,127
53696,note_on,3,0,0,,3,,,75,127
53829,note_off,133,0,0,,3,,,75,127
53829,note_off,0,0,0,,3,,,51,127
53832,note_on,3,0,0,,11,,,70,127
53832,note_on,0,0,0,,5,,,53,127
53965,note_off,133,0,0,,11,,,70,127
53968,note_on,3,0,0,,1,,,73,127
54101,note_off,133,0,0,,1,,,73,127
54104,note_on,3,0,0,,10,,,69,127
54104,note_on,0,0,0,,5,,,41,127
54237,note_off,133,0,0,,10,,,69,127
54240,note_on,3,0,0,,0,,,72,127
54323,note_off,83,0,0,,5,,,41,127
54372,note_off,49,0,0,,0,,,72,127
54373,note_off,1,0,0,,5,,,53,127
54374,note_on,1,0,0,,11,,,70,127
54374,note_on,0,0,0,,11,,,46,127
54507,note_off,133,0,0,,11,,,70,127
54510,note_on,3,0,0,,5,,,77,127
54643,note_off,133,0,0,,5,,,77,127
54646,note_on,3,0,0,,5,,,77,127
54779,note_off,133,0,0,,5,,,77,127
54782,note_on,3,0,0,,3,,,75,127
54915,note_off,133,0,0,,3,,,75,127
54918,note_on,3,0,0,,3,,,75,127
55051,note_off,133,0,0,,3,,,75,127
55054,note_on,3,0,0,,2,,,74,127
55187,note_off,133,0,0,,2,,,74,127
55187,note_off,0,0,0,,11,,,46,127
55190,note_on,3,0,0,,2,,,74,127
55190,note_on,0,0,0,,0,,,48,127
55323,note_off,133,0,0,,2,,,74,127
55326,note_on,3,0,0,,0,,,72,127
55459,note_off,133,0,0,,0,,,72,127
55459,note_off,0,0,0,,0,,,48,127
55462,note_on,3,0,0,,0,,,72,127
55462,note_on,0,0,0,,2,,,50,127
55595,note_off,133,0,0,,0,,,72,127
55598,note_on,3,0,0,,11,,,70,127
55731,note_off,133,0,0,,11,,,70,127
55734,note_on,3,0,0,,11,,,70,127
55867,note_off,133,0,0,,11,,,70,127
55870,note_on,3,0,0,,10,,,69,127
56003,note_off,133,0,0,,10,,,69,127
56003,note_off,0,0,0,,2,,,50,127
56006,note_on,3,0,0,,10,,,69,127
56006,note_on,0,0,0,,3,,,51,127
56139,note_off,133,0,0,,10,,,69,127
56142,note_on,3,0,0,,7,,,67,127
56275,note_off,133,0,0,,7,,,67,127
56278,note_on,3,0,0,,7,,,67,127
56411,note_off,133,0,0,,7,,,67,127
56414,note_on,3,0,0,,5,,,65,127
56547,note_off,133,0,0,,5,,,65,127
56547,note_off,0,0,0,,3,,,51,127
56550,note_on,3,0,0,,5,,,65,127
56550,note_on,0,0,0,,5,,,53,127
56683,note_off,133,0,0,,5,,,65,127
56686,note_on,3,0,0,,7,,,79,127
56819,note_off,133,0,0,,7,,,79,127
56822,note_on,3,0,0,,7,,,79,127
56955,note_off,133,0,0,,7,,,79,127
56958,note_on,3,0,0,,5,,,77,127
57091,note_off,133,0,0,,5,,,77,127
57094,note_on,3,0,0,,5,,,77,127
57227,note_off,133,0,0,,5,,,77,127
57230,note_on,3,0,0,,3,,,75,127
57363,note_off,133,0,0,,3,,,75,127
57363,note_off,0,0,0,,5,,,53,127
57366,note_on,3,0,0,,3,,,75,127
57366,note_on,0,0,0,,10,,,57,127
57499,note_off,133,0,0,,3,,,75,127
57502,note_on,3,0,0,,2,,,74,127
57635,note_off,133,0,0,,2,,,74,127
57635,note_off,0,0,0,,10,,,57,127
57638,note_on,3,0,0,,2,,,74,127
57638,note_on,0,0,0,,11,,,58,127
57774,note_on,136,0,0,,5,,,77,127
57808,note_off,34,0,0,,2,,,74,127
57907,note_off,99,0,0,,5,,,77,127
57907,note_off,0,0,0,,11,,,58,127
57910,note_on,3,0,0,,0,,,72,127
57910,note_on,0,0,0,,3,,,51,127
58046,note_on,136,0,0,,3,,,75,127
58080,note_off,34,0,0,,0,,,72,127
58179,note_off,99,0,0,,3,,,75,127
58179,note_off,0,0,0,,3,,,51,127
58182,note_on,3,0,0,,11,,,70,127
58182,note_on,0,0,0,,5,,,53,127
58318,note_on,136,0,0,,2,,,74,127
58352,note_off,34,0,0,,11,,,70,127
58451,note_off,99,0,0,,2,,,74,127
58454,note_on,3,0,0,,10,,,69,127
58454,note_on,0,0,0,,5,,,41,127
58590,note_on,136,0,0,,0,,,72,127
58624,note_off,34,0,0,,10,,,69,127
58723,note_off,99,0,0,,0,,,72,127
58723,note_off,0,0,0,,5,,,41,127
58724,note_off,1,0,0,,5,,,53,127
58725,note_on,1,0,0,,11,,,70,127
58725,note_on,0,0,0,,11,,,46,127
58858,note_off,133,0,0,,11,,,70,127
58861,note_on,3,0,0,,5,,,77,127
58994,note_off,133,0,0,,5,,,77,127
58997,note_on,3,0,0,,5,,,77,127
59130,note_off,133,0,0,,5,,,77,127
59133,note_on,3,0,0,,3,,,75,127
59266,note_off,133,0,0,,3,,,75,127
59269,note_on,3,0,0,,3,,,75,127
59402,note_off,133,0,0,,3,,,75,127
59405,note_on,3,0,0,,2,,,74,127
59532,note_off,127,0,0,,11,,,46,127
59538,note_off,6,0,0,,2,,,74,127
59541,note_on,3,0,0,,2,,,74,127
59541,note_on,0,0,0,,0,,,48,127
59674,note_off,133,0,0,,2,,,74,127
59677,note_on,3,0,0,,0,,,72,127
59810,note_off,133,0,0,,0,,,72,127
59810,note_off,0,0,0,,0,,,48,127
59813,note_on,3,0,0,,0,,,72,127
59813,note_on,0,0,0,,2,,,50,127
59946,note_off,133,0,0,,0,,,72,127
59949,note_on,3,0,0,,11,,,70,127
60082,note_off,133,0,0,,11,,,70,127
60085,note_on,3,0,0,,11,,,70,127
60218,note_off,133,0,0,,11,,,70,127
60221,note_on,3,0,0,,10,,,69,127
60354,note_off,133,0,0,,10,,,69,127
60354,note_off,0,0,0,,2,,,50,127
60357,note_on,3,0,0,,10,,,69,127
60357,note_on,0,0,0,,3,,,51,127
60490,note_off,133,0,0,,10,,,69,127
60493,note_on,3,0,0,,7,,,67,127
60626,note_off,133,0,0,,7,,,67,127
60629,note_on,3,0,0,,7,,,67,127
60762,note_off,133,0,0,,7,,,67,127
60765,note_on,3,0,0,,5,,,65,127
60898,note_off,133,0,0,,5,,,65,127
60898,note_off,0,0,0,,3,,,51,127
60901,note_on,3,0,0,,5,,,65,127
60901,note_on,0,0,0,,5,,,53,127
61034,note_off,133,0,0,,5,,,65,127
61037,note_on,3,0,0,,7,,,79,127
61170,note_off,133,0,0,,7,,,79,127
61173,note_on,3,0,0,,7,,,79,127
61306,note_off,133,0,0,,7,,,79,127
61309,note_on,3,0,0,,5,,,77,127
61442,note_off,133,0,0,,5,,,77,127
61445,note_on,3,0,0,,5,,,77,127
61578,note_off,133,0,0,,5,,,77,127
61581,note_on,3,0,0,,3,,,75,127
61609,note_off,28,0,0,,5,,,53,127
61713,note_off,104,0,0,,3,,,75,127
61716,note_on,3,0,0,,3,,,75,127
61716,note_on,0,0,0,,10,,,57,127
61849,note_off,133,0,0,,3,,,75,127
61852,note_on,3,0,0,,2,,,74,127
61985,note_off,133,0,0,,2,,,74,127
61985,note_off,0,0,0,,10,,,57,127
61988,note_on,3,0,0,,2,,,74,127
61988,note_on,0,0,0,,11,,,58,127
62121,note_off,133,0,0,,2,,,74,127
62124,note_on,3,0,0,,5,,,77,127
62257,note_off,133,0,0,,11,,,58,127
62260,note_on,3,0,0,,0,,,72,127
62260,note_on,0,0,0,,3,,,51,127
62328,note_off,68,0,0,,5,,,77,127
62393,note_off,65,0,0,,0,,,72,127
62396,note_on,3,0,0,,3,,,75,127
62529,note_off,133,0,0,,3,,,51,127
62532,note_on,3,0,0,,11,,,70,127
62532,note_on,0,0,0,,5,,,53,127
62600,note_off,68,0,0,,3,,,75,127
62665,note_off,65,0,0,,11,,,70,127
62668,note_on,3,0,0,,2,,,74,127
62804,note_on,136,0,0,,10,,,69,127
62804,note_on,0,0,0,,5,,,41,127
62872,note_off,68,0,0,,2,,,74,127
62937,note_off,65,0,0,,10,,,69,127
62940,note_on,3,0,0,,0,,,72,127
63073,note_off,133,0,0,,0,,,72,127
63073,note_off,0,0,0,,5,,,41,127
63074,note_off,1,0,0,,5,,,53,127
63075,note_on,1,0,0,,11,,,70,127
63075,note_on,0,0,0,,11,,,58,127
63208,note_off,133,0,0,,11,,,58,127
63211,note_on,3,0,0,,5,,,65,127
63344,note_off,133,0,0,,5,,,65,127
63347,note_on,3,0,0,,11,,,82,127
63347,note_on,0,0,0,,2,,,62,127
63480,note_off,133,0,0,,2,,,62,127
63483,note_off,3,0,0,,11,,,70,127
63483,note_on,0,0,0,,11,,,58,127
63616,note_off,133,0,0,,11,,,58,127
63619,note_on,3,0,0,,10,,,57,127
63752,note_off,133,0,0,,11,,,82,127
63755,note_on,3,0,0,,0,,,84,127
63888,note_off,133,0,0,,0,,,84,127
63888,note_off,0,0,0,,10,,,57,127
63891,note_on,3,0,0,,0,,,72,127
63891,note_on,0,0,0,,5,,,53,127
64024,note_off,133,0,0,,0,,,72,127
64027,note_on,3,0,0,,3,,,75,127
64160,note_off,133,0,0,,3,,,75,127
64160,note_off,0,0,0,,5,,,53,127
64163,note_on,3,0,0,,2,,,74,127
64163,note_on,0,0,0,,11,,,58,127
64296,note_off,133,0,0,,11,,,58,127
64299,note_on,3,0,0,,5,,,65,127
64432,note_off,133,0,0,,5,,,65,127
64432,note_off,0,0,0,,2,,,74,127
64435,note_on,3,0,0,,11,,,82,127
64435,note_on,0,0,0,,2,,,62,127
64568,note_off,133,0,0,,2,,,62,127
64571,note_on,3,0,0,,11,,,58,127
64704,note_off,133,0,0,,11,,,58,127
64707,note_on,3,0,0,,10,,,57,127
64840,note_off,133,0,0,,11,,,82,127
64843,note_on,3,0,0,,0,,,84,127
64976,note_off,133,0,0,,0,,,84,127
64976,note_off,0,0,0,,10,,,57,127
64979,note_on,3,0,0,,0,,,72,127
64979,note_on,0,0,0,,5,,,53,127
65112,note_off,133,0,0,,0,,,72,127
65115,note_on,3,0,0,,3,,,75,127
65248,note_off,133,0,0,,3,,,75,127
65248,note_off,0,0,0,,5,,,53,127
65251,note_on,3,0,0,,2,,,74,127
65251,note_on,0,0,0,,11,,,58,127
65387,note_on,136,0,0,,11,,,82,127
65455,note_off,68,0,0,,2,,,74,127
65520,note_off,65,0,0,,11,,,82,127
65520,note_off,0,0,0,,11,,,58,127
65523,note_on,3,0,0,,7,,,79,127
65523,note_on,0,0,0,,3,,,51,127
65656,note_off,133,0,0,,7,,,79,127
65659,note_on,3,0,0,,3,,,75,127
65792,note_off,133,0,0,,3,,,75,127
65792,note_off,0,0,0,,3,,,51,127
65795,note_on,3,0,0,,2,,,74,127
65795,note_on,0,0,0,,5,,,53,127
65928,note_off,133,0,0,,2,,,74,127
65931,note_on,3,0,0,,5,,,77,127
66064,note_off,133,0,0,,5,,,77,127
66067,note_on,3,0,0,,10,,,69,127
66067,note_on,0,0,0,,5,,,41,127
66200,note_off,133,0,0,,10,,,69,127
66203,note_on,3,0,0,,0,,,72,127
66333,note_off,130,0,0,,5,,,53,127
66336,note_off,3,0,0,,0,,,72,127
66336,note_off,0,0,0,,5,,,41,127
66339,note_on,3,0,0,,11,,,70,127
66339,note_on,0,0,0,,7,,,55,127
66472,note_off,133,0,0,,11,,,70,127
66475,note_on,3,0,0,,2,,,74,127
66608,note_off,133,0,0,,2,,,74,127
66608,note_off,0,0,0,,7,,,55,127
66611,note_on,3,0,0,,7,,,67,127
66611,note_on,0,0,0,,3,,,51,127
66744,note_off,133,0,0,,7,,,67,127
66747,note_on,3,0,0,,11,,,70,127
66880,note_off,133,0,0,,11,,,70,127
66880,note_off,0,0,0,,3,,,51,127
66883,note_on,3,0,0,,3,,,63,127
66883,note_on,0,0,0,,5,,,53,127
67016,note_off,133,0,0,,3,,,63,127
67019,note_on,3,0,0,,11,,,70,127
67152,note_off,133,0,0,,11,,,70,127
67155,note_on,3,0,0,,0,,,60,127
67155,note_on,0,0,0,,5,,,41,127
67288,note_off,133,0,0,,0,,,60,127
67291,note_on,3,0,0,,10,,,69,127
67424,note_off,133,0,0,,10,,,69,127
67424,note_off,0,0,0,,5,,,41,127
67425,note_off,1,0,0,,5,,,53,127
67426,note_on,1,0,0,,10,,,69,127
67426,note_on,0,0,0,,11,,,46,127
67426,note_on,0,0,0,,11,,,58,127
67694,note_off,268,0,0,,10,,,69,127
67697,note_on,3,0,0,,11,,,70,127
68414,note_off,717,0,0,,11,,,46,127
68507,note_off,93,0,0,,11,,,70,127
68508,note_off,1,0,0,,11,,,58,127
68509,note_on,1,0,0,,0,,,72,127
68509,note_on,0,0,0,,5,,,65,127
68645,note_on,136,0,0,,8,,,56,127
68778,note_off,133,0,0,,8,,,56,127
68778,note_off,0,0,0,,0,,,72,127
68781,note_on,3,0,0,,12,,,71,127
68781,note_on,0,0,0,,8,,,56,127
68914,note_off,133,0,0,,8,,,56,127
68917,note_on,3,0,0,,8,,,56,127
69050,note_off,133,0,0,,8,,,56,127
69053,note_on,3,0,0,,8,,,56,127
69186,note_off,133,0,0,,8,,,56,127
69189,note_on,3,0,0,,8,,,56,127
69322,note_off,133,0,0,,8,,,56,127
69322,note_off,0,0,0,,12,,,71,127
69325,note_on,3,0,0,,0,,,72,127
69325,note_on,0,0,0,,8,,,56,127
69458,note_off,133,0,0,,8,,,56,127
69461,note_on,3,0,0,,8,,,56,127
69594,note_off,133,0,0,,8,,,56,127
69594,note_off,0,0,0,,0,,,72,127
69595,note_off,1,0,0,,5,,,65,127
69596,note_on,1,0,0,,2,,,74,127
69596,note_on,0,0,0,,7,,,67,127
69596,note_on,0,0,0,,7,,,55,127
69729,note_off,133,0,0,,7,,,55,127
69732,note_on,3,0,0,,7,,,55,127
69865,note_off,133,0,0,,7,,,55,127
69865,note_off,0,0,0,,2,,,74,127
69868,note_on,3,0,0,,12,,,71,127
69868,note_on,0,0,0,,7,,,55,127
70001,note_off,133,0,0,,7,,,55,127
70004,note_on,3,0,0,,7,,,55,127
70137,note_off,133,0,0,,7,,,55,127
70138,note_off,1,0,0,,7,,,67,127
70139,note_on,1,0,0,,5,,,65,127
70139,note_on,0,0,0,,8,,,56,127
70272,note_off,133,0,0,,8,,,56,127
70275,note_on,3,0,0,,8,,,56,127
70408,note_off,133,0,0,,8,,,56,127
70409,note_off,1,0,0,,12,,,71,127
70410,note_on,1,0,0,,0,,,72,127
70410,note_on,0,0,0,,8,,,56,127
70543,note_off,133,0,0,,8,,,56,127
70546,note_on,3,0,0,,8,,,56,127
70679,note_off,133,0,0,,8,,,56,127
70679,note_off,0,0,0,,0,,,72,127
70680,note_off,1,0,0,,5,,,65,127
70681,note_on,1,0,0,,7,,,67,127
70681,note_on,0,0,0,,2,,,74,127
70681,note_on,0,0,0,,7,,,55,127
70814,note_off,133,0,0,,7,,,55,127
70817,note_on,3,0,0,,7,,,55,127
70950,note_off,133,0,0,,7,,,55,127
70950,note_off,0,0,0,,2,,,74,127
70953,note_on,3,0,0,,12,,,71,127
70953,note_on,0,0,0,,7,,,55,127
71086,note_off,133,0,0,,7,,,55,127
71089,note_on,3,0,0,,7,,,55,127
71222,note_off,133,0,0,,7,,,55,127
71223,note_off,1,0,0,,7,,,67,127
71224,note_on,1,0,0,,5,,,65,127
71224,note_on,0,0,0,,8,,,56,127
71357,note_off,133,0,0,,8,,,56,127
71360,note_on,3,0,0,,8,,,56,127
71493,note_off,133,0,0,,8,,,56,127
71494,note_off,1,0,0,,12,,,71,127
71495,note_on,1,0,0,,0,,,72,127
71495,note_on,0,0,0,,8,,,56,127
71628,note_off,133,0,0,,8,,,56,127
71631,note_on,3,0,0,,8,,,56,127
71764,note_off,133,0,0,,8,,,56,127
71764,note_off,0,0,0,,0,,,72,127
71765,note_off,1,0,0,,5,,,65,127
71766,note_on,1,0,0,,2,,,74,127
71766,note_on,0,0,0,,7,,,55,127
71899,note_off,133,0,0,,7,,,55,127
71902,note_on,3,0,0,,7,,,55,127
72035,note_off,133,0,0,,7,,,55,127
72035,note_off,0,0,0,,2,,,74,127
72038,note_on,3,0,0,,3,,,75,127
72038,note_on,0,0,0,,0,,,60,127
72171,note_off,133,0,0,,0,,,60,127
72174,note_on,3,0,0,,0,,,60,127
72307,note_off,133,0,0,,0,,,60,127
72310,note_on,3,0,0,,8,,,80,127
72310,note_on,0,0,0,,5,,,53,127
72443,note_off,133,0,0,,5,,,53,127
72446,note_off,3,0,0,,3,,,75,127
72446,note_on,0,0,0,,5,,,53,127
72579,note_off,133,0,0,,5,,,53,127
72582,note_on,3,0,0,,2,,,74,127
72582,note_on,0,0,0,,11,,,58,127
72715,note_off,133,0,0,,11,,,58,127
72718,note_off,3,0,0,,8,,,80,127
72718,note_on,0,0,0,,11,,,58,127
72851,note_off,133,0,0,,11,,,58,127
72854,note_on,3,0,0,,7,,,79,127
72854,note_on,0,0,0,,3,,,51,127
72987,note_off,133,0,0,,3,,,51,127
72990,note_off,3,0,0,,2,,,74,127
72990,note_on,0,0,0,,3,,,51,127
73123,note_off,133,0,0,,3,,,51,127
73126,note_on,3,0,0,,0,,,72,127
73126,note_on,0,0,0,,8,,,56,127
73259,note_off,133,0,0,,8,,,56,127
73262,note_off,3,0,0,,7,,,79,127
73262,note_on,0,0,0,,8,,,56,127
73395,note_off,133,0,0,,8,,,56,127
73395,note_off,0,0,0,,0,,,72,127
73398,note_on,3,0,0,,7,,,79,127
73398,note_on,0,0,0,,2,,,50,127
73531,note_off,133,0,0,,2,,,50,127
73531,note_off,0,0,0,,7,,,79,127
73534,note_on,3,0,0,,5,,,77,127
73534,note_on,0,0,0,,2,,,50,127
73667,note_off,133,0,0,,2,,,50,127
73667,note_off,0,0,0,,5,,,77,127
73670,note_on,3,0,0,,3,,,75,127
73670,note_on,0,0,0,,7,,,55,127
73803,note_off,133,0,0,,7,,,55,127
73803,note_off,0,0,0,,3,,,75,127
73806,note_on,3,0,0,,2,,,74,127
73806,note_on,0,0,0,,7,,,55,127
73939,note_off,133,0,0,,7,,,55,127
73939,note_off,0,0,0,,2,,,74,127
73942,note_on,3,0,0,,3,,,75,127
73942,note_on,0,0,0,,0,,,60,127
74075,note_off,133,0,0,,3,,,75,127
74078,note_on,3,0,0,,7,,,79,127
74211,note_off,133,0,0,,7,,,79,127
74214,note_on,3,0,0,,7,,,79,127
74347,note_off,133,0,0,,7,,,79,127
74350,note_on,3,0,0,,5,,,77,127
74483,note_off,133,0,0,,5,,,77,127
74483,note_off,0,0,0,,0,,,60,127
74486,note_on,3,0,0,,5,,,77,127
74486,note_on,0,0,0,,0,,,48,127
74619,note_off,133,0,0,,5,,,77,127
74622,note_on,3,0,0,,3,,,75,127
74755,note_off,133,0,0,,3,,,75,127
74755,note_off,0,0,0,,0,,,48,127
74758,note_on,3,0,0,,3,,,75,127
74758,note_on,0,0,0,,2,,,50,127
74891,note_off,133,0,0,,3,,,75,127
74894,note_on,3,0,0,,2,,,74,127
75027,note_off,133,0,0,,2,,,74,127
75027,note_off,0,0,0,,2,,,50,127
75030,note_on,3,0,0,,2,,,74,127
75030,note_on,0,0,0,,3,,,51,127
75163,note_off,133,0,0,,2,,,74,127
75166,note_on,3,0,0,,0,,,72,127
75299,note_off,133,0,0,,0,,,72,127
75302,note_on,3,0,0,,0,,,72,127
75435,note_off,133,0,0,,0,,,72,127
75438,note_on,3,0,0,,11,,,70,127
75571,note_off,133,0,0,,11,,,70,127
75571,note_off,0,0,0,,3,,,51,127
75574,note_on,3,0,0,,11,,,70,127
75574,note_on,0,0,0,,0,,,48,127
75707,note_off,133,0,0,,11,,,70,127
75710,note_on,3,0,0,,10,,,69,127
75843,note_off,133,0,0,,10,,,69,127
75846,note_on,3,0,0,,10,,,69,127
75979,note_off,133,0,0,,10,,,69,127
75982,note_on,3,0,0,,7,,,67,127
76115,note_off,133,0,0,,7,,,67,127
76115,note_off,0,0,0,,0,,,48,127
76118,note_on,3,0,0,,6,,,66,127
76118,note_on,0,0,0,,2,,,50,127
76251,note_off,133,0,0,,2,,,50,127
76254,note_on,3,0,0,,2,,,62,127
76387,note_off,133,0,0,,2,,,62,127
76390,note_on,3,0,0,,2,,,62,127
76523,note_off,133,0,0,,2,,,62,127
76526,note_on,3,0,0,,0,,,60,127
76659,note_off,133,0,0,,0,,,60,127
76662,note_on,3,0,0,,0,,,60,127
76795,note_off,133,0,0,,0,,,60,127
76798,note_on,3,0,0,,11,,,58,127
76931,note_off,133,0,0,,11,,,58,127
76931,note_off,0,0,0,,6,,,66,127
76934,note_on,3,0,0,,7,,,67,127
76934,note_on,0,0,0,,11,,,58,127
77067,note_off,133,0,0,,11,,,58,127
77070,note_on,3,0,0,,10,,,57,127
77203,note_off,133,0,0,,10,,,57,127
77203,note_off,0,0,0,,7,,,67,127
77206,note_on,3,0,0,,6,,,66,127
77206,note_on,0,0,0,,10,,,57,127
77339,note_off,133,0,0,,10,,,57,127
77342,note_on,3,0,0,,7,,,55,127
77475,note_off,133,0,0,,7,,,55,127
77475,note_off,0,0,0,,6,,,66,127
77478,note_on,3,0,0,,7,,,67,127
77478,note_on,0,0,0,,7,,,55,127
77611,note_off,133,0,0,,7,,,55,127
77614,note_on,3,0,0,,6,,,54,127
77747,note_off,133,0,0,,6,,,54,127
77747,note_off,0,0,0,,7,,,67,127
77750,note_on,3,0,0,,10,,,69,127
77750,note_on,0,0,0,,6,,,54,127
77883,note_off,133,0,0,,6,,,54,127
77886,note_on,3,0,0,,4,,,52,127
78019,note_off,133,0,0,,4,,,52,127
78019,note_off,0,0,0,,10,,,69,127
78022,note_on,3,0,0,,11,,,70,127
78022,note_on,0,0,0,,4,,,52,127
78155,note_off,133,0,0,,4,,,52,127
78158,note_on,3,0,0,,2,,,50,127
78291,note_off,133,0,0,,2,,,50,127
78291,note_off,0,0,0,,11,,,70,127
78294,note_on,3,0,0,,0,,,72,127
78294,note_on,0,0,0,,2,,,50,127
78427,note_off,133,0,0,,2,,,50,127
78430,note_on,3,0,0,,2,,,50,127
78563,note_off,133,0,0,,2,,,50,127
78563,note_off,0,0,0,,0,,,72,127
78566,note_on,3,0,0,,11,,,70,127
78566,note_on,0,0,0,,7,,,55,127
78699,note_off,133,0,0,,7,,,55,127
78702,note_on,3,0,0,,7,,,55,127
78835,note_off,133,0,0,,7,,,55,127
78838,note_on,3,0,0,,3,,,75,127
78838,note_on,0,0,0,,0,,,48,127
78971,note_off,133,0,0,,0,,,48,127
78974,note_off,3,0,0,,11,,,70,127
78974,note_on,0,0,0,,0,,,48,127
79107,note_off,133,0,0,,0,,,48,127
79110,note_on,3,0,0,,10,,,69,127
79110,note_on,0,0,0,,5,,,53,127
79243,note_off,133,0,0,,5,,,53,127
79246,note_off,3,0,0,,3,,,75,127
79246,note_on,0,0,0,,5,,,53,127
79379,note_off,133,0,0,,5,,,53,127
79382,note_on,3,0,0,,2,,,74,127
79382,note_on,0,0,0,,11,,,46,127
79515,note_off,133,0,0,,11,,,46,127
79518,note_off,3,0,0,,10,,,69,127
79518,note_on,0,0,0,,11,,,46,127
79651,note_off,133,0,0,,11,,,46,127
79654,note_on,3,0,0,,7,,,67,127
79654,note_on,0,0,0,,3,,,51,127
79787,note_off,133,0,0,,3,,,51,127
79790,note_off,3,0,0,,2,,,74,127
79790,note_on,0,0,0,,3,,,51,127
79923,note_off,133,0,0,,3,,,51,127
79923,note_off,0,0,0,,7,,,67,127
79926,note_on,3,0,0,,2,,,74,127
79926,note_on,0,0,0,,10,,,45,127
80059,note_off,133,0,0,,10,,,45,127
80059,note_off,0,0,0,,2,,,74,127
80062,note_on,3,0,0,,0,,,72,127
80062,note_on,0,0,0,,10,,,45,127
80195,note_off,133,0,0,,10,,,45,127
80195,note_off,0,0,0,,0,,,72,127
80198,note_on,3,0,0,,11,,,70,127
80198,note_on,0,0,0,,2,,,50,127
80331,note_off,133,0,0,,2,,,50,127
80331,note_off,0,0,0,,11,,,70,127
80334,note_on,3,0,0,,10,,,69,127
80334,note_on,0,0,0,,2,,,50,127
80467,note_off,133,0,0,,2,,,50,127
80467,note_off,0,0,0,,10,,,69,127
80470,note_on,3,0,0,,11,,,70,127
80470,note_on,0,0,0,,7,,,43,127
80603,note_off,133,0,0,,11,,,70,127
80606,note_on,3,0,0,,11,,,70,127
80739,note_off,133,0,0,,11,,,70,127
80739,note_off,0,0,0,,7,,,43,127
80742,note_on,3,0,0,,11,,,70,127
80742,note_on,0,0,0,,7,,,67,127
80875,note_off,133,0,0,,11,,,70,127
80878,note_on,3,0,0,,11,,,70,127
81011,note_off,133,0,0,,11,,,70,127
81014,note_on,3,0,0,,10,,,69,127
81147,note_off,133,0,0,,10,,,69,127
81150,note_on,3,0,0,,10,,,69,127
81283,note_off,133,0,0,,10,,,69,127
81283,note_off,0,0,0,,7,,,67,127
81286,note_on,3,0,0,,2,,,74,127
81286,note_on,0,0,0,,5,,,65,127
81419,note_off,133,0,0,,2,,,74,127
81422,note_on,3,0,0,,2,,,74,127
81555,note_off,133,0,0,,2,,,74,127
81558,note_on,3,0,0,,7,,,67,127
81691,note_off,133,0,0,,7,,,67,127
81694,note_on,3,0,0,,7,,,67,127
81827,note_off,133,0,0,,7,,,67,127
81827,note_off,0,0,0,,5,,,65,127
81830,note_on,3,0,0,,0,,,72,127
81830,note_on,0,0,0,,3,,,63,127
81963,note_off,133,0,0,,0,,,72,127
81966,note_on,3,0,0,,0,,,72,127
82099,note_off,133,0,0,,0,,,72,127
82099,note_off,0,0,0,,3,,,63,127
82102,note_on,3,0,0,,5,,,77,127
82102,note_on,0,0,0,,2,,,62,127
82235,note_off,133,0,0,,2,,,62,127
82238,note_on,3,0,0,,2,,,62,127
82371,note_off,133,0,0,,2,,,62,127
82371,note_off,0,0,0,,5,,,77,127
82374,note_on,3,0,0,,2,,,74,127
82374,note_on,0,0,0,,7,,,67,127
82507,note_off,133,0,0,,7,,,67,127
82510,note_on,3,0,0,,7,,,67,127
82643,note_off,133,0,0,,7,,,67,127
82643,note_off,0,0,0,,2,,,74,127
82646,note_on,3,0,0,,5,,,77,127
82646,note_on,0,0,0,,0,,,60,127
82779,note_off,133,0,0,,0,,,60,127
82779,note_off,0,0,0,,5,,,77,127
82782,note_on,3,0,0,,3,,,75,127
82782,note_on,0,0,0,,0,,,60,127
82915,note_off,133,0,0,,0,,,60,127
82915,note_off,0,0,0,,3,,,75,127
82918,note_on,3,0,0,,2,,,74,127
82918,note_on,0,0,0,,5,,,65,127
83051,note_off,133,0,0,,5,,,65,127
83051,note_off,0,0,0,,2,,,74,127
83054,note_on,3,0,0,,0,,,72,127
83054,note_on,0,0,0,,5,,,65,127
83187,note_off,133,0,0,,5,,,65,127
83187,note_off,0,0,0,,0,,,72,127
83190,note_on,3,0,0,,2,,,74,127
83190,note_on,0,0,0,,11,,,58,127
83323,note_off,133,0,0,,2,,,74,127
83326,note_on,3,0,0,,2,,,74,127
83459,note_off,133,0,0,,2,,,74,127
83459,note_off,0,0,0,,11,,,58,127
83462,note_on,3,0,0,,2,,,74,127
83462,note_on,0,0,0,,11,,,70,127
83595,note_off,133,0,0,,2,,,74,127
83598,note_on,3,0,0,,2,,,74,127
83731,note_off,133,0,0,,2,,,74,127
83734,note_on,3,0,0,,0,,,72,127
83867,note_off,133,0,0,,0,,,72,127
83870,note_on,3,0,0,,0,,,72,127
84003,note_off,133,0,0,,0,,,72,127
84003,note_off,0,0,0,,11,,,70,127
84006,note_on,3,0,0,,5,,,77,127
84006,note_on,0,0,0,,8,,,68,127
84139,note_off,133,0,0,,5,,,77,127
84142,note_on,3,0,0,,5,,,77,127
84275,note_off,133,0,0,,5,,,77,127
84275,note_off,0,0,0,,8,,,68,127
84278,note_on,3,0,0,,11,,,82,127
84278,note_on,0,0,0,,7,,,67,127
84411,note_off,133,0,0,,7,,,67,127
84414,note_on,3,0,0,,7,,,67,127
84547,note_off,133,0,0,,7,,,67,127
84547,note_off,0,0,0,,11,,,82,127
84550,note_on,3,0,0,,3,,,75,127
84550,note_on,0,0,0,,0,,,72,127
84683,note_off,133,0,0,,0,,,72,127
84686,note_on,3,0,0,,0,,,72,127
84819,note_off,133,0,0,,0,,,72,127
84819,note_off,0,0,0,,3,,,75,127
84822,note_on,3,0,0,,11,,,82,127
84822,note_on,0,0,0,,5,,,65,127
84955,note_off,133,0,0,,5,,,65,127
84955,note_off,0,0,0,,11,,,82,127
84958,note_on,3,0,0,,8,,,80,127
84958,note_on,0,0,0,,5,,,65,127
85091,note_off,133,0,0,,5,,,65,127
85091,note_off,0,0,0,,8,,,80,127
85094,note_on,3,0,0,,7,,,79,127
85094,note_on,0,0,0,,11,,,70,127
85227,note_off,133,0,0,,11,,,70,127
85227,note_off,0,0,0,,7,,,79,127
85230,note_on,3,0,0,,5,,,77,127
85230,note_on,0,0,0,,11,,,70,127
85363,note_off,133,0,0,,11,,,70,127
85363,note_off,0,0,0,,5,,,77,127
85366,note_on,3,0,0,,7,,,79,127
85366,note_on,0,0,0,,3,,,63,127
85499,note_off,133,0,0,,7,,,79,127
85502,note_on,3,0,0,,11,,,82,127
85635,note_off,133,0,0,,11,,,82,127
85635,note_off,0,0,0,,3,,,63,127
85638,note_on,3,0,0,,11,,,82,127
85638,note_on,0,0,0,,7,,,67,127
85771,note_off,133,0,0,,11,,,82,127
85774,note_on,3,0,0,,3,,,75,127
85907,note_off,133,0,0,,3,,,75,127
85907,note_off,0,0,0,,7,,,67,127
85910,note_on,3,0,0,,3,,,75,127
85910,note_on,0,0,0,,5,,,77,127
85910,note_on,0,0,0,,5,,,65,127
86043,note_off,133,0,0,,5,,,77,127
86043,note_off,0,0,0,,3,,,75,127
86046,note_on,3,0,0,,2,,,74,127
86179,note_off,133,0,0,,2,,,74,127
86179,note_off,0,0,0,,5,,,65,127
86182,note_on,3,0,0,,2,,,74,127
86182,note_on,0,0,0,,3,,,63,127
86315,note_off,133,0,0,,2,,,74,127
86318,note_on,3,0,0,,3,,,75,127
86451,note_off,133,0,0,,3,,,75,127
86451,note_off,0,0,0,,3,,,63,127
86454,note_on,3,0,0,,5,,,77,127
86454,note_on,0,0,0,,11,,,58,127
86587,note_off,133,0,0,,5,,,77,127
86590,note_on,3,0,0,,11,,,82,127
86723,note_off,133,0,0,,11,,,82,127
86723,note_off,0,0,0,,11,,,58,127
86726,note_on,3,0,0,,11,,,82,127
86726,note_on,0,0,0,,7,,,67,127
86859,note_off,133,0,0,,11,,,82,127
86862,note_on,3,0,0,,3,,,75,127
86995,note_off,133,0,0,,3,,,75,127
86995,note_off,0,0,0,,7,,,67,127
86998,note_on,3,0,0,,3,,,75,127
86998,note_on,0,0,0,,5,,,77,127
86998,note_on,0,0,0,,5,,,65,127
87131,note_off,133,0,0,,5,,,77,127
87131,note_off,0,0,0,,3,,,75,127
87134,note_on,3,0,0,,2,,,74,127
87267,note_off,133,0,0,,2,,,74,127
87267,note_off,0,0,0,,5,,,65,127
87270,note_on,3,0,0,,2,,,74,127
87270,note_on,0,0,0,,3,,,63,127
87403,note_off,133,0,0,,2,,,74,127
87406,note_on,3,0,0,,3,,,75,127
87539,note_off,133,0,0,,3,,,75,127
87539,note_off,0,0,0,,3,,,63,127
87542,note_on,3,0,0,,5,,,77,127
87542,note_on,0,0,0,,11,,,58,127
87542,note_on,0,0,0,,11,,,70,127
87675,note_off,133,0,0,,5,,,77,127
87678,note_on,3,0,0,,11,,,82,127
87811,note_off,133,0,0,,11,,,82,127
87811,note_off,0,0,0,,11,,,70,127
87811,note_off,0,0,0,,11,,,58,127
87814,note_on,3,0,0,,11,,,82,127
87814,note_on,0,0,0,,0,,,84,127
87814,note_on,0,0,0,,11,,,58,127
87814,note_on,0,0,0,,11,,,70,127
87947,note_off,133,0,0,,0,,,84,127
87947,note_off,0,0,0,,11,,,82,127
87950,note_on,3,0,0,,10,,,81,127
88083,note_off,133,0,0,,10,,,81,127
88083,note_off,0,0,0,,11,,,70,127
88083,note_off,0,0,0,,11,,,58,127
88086,note_on,3,0,0,,10,,,81,127
88086,note_on,0,0,0,,3,,,63,127
88086,note_on,0,0,0,,0,,,60,127
88086,note_on,0,0,0,,10,,,69,127
88219,note_off,133,0,0,,10,,,81,127
88222,note_on,3,0,0,,11,,,82,127
88355,note_off,133,0,0,,11,,,82,127
88355,note_off,0,0,0,,10,,,69,127
88355,note_off,0,0,0,,0,,,60,127
88355,note_off,0,0,0,,3,,,63,127
88358,note_on,3,0,0,,11,,,82,127
88358,note_on,0,0,0,,0,,,84,127
88358,note_on,0,0,0,,3,,,63,127
88358,note_on,0,0,0,,0,,,60,127
88358,note_on,0,0,0,,10,,,69,127
88491,note_off,133,0,0,,0,,,84,127
88491,note_off,0,0,0,,11,,,82,127
88494,note_on,3,0,0,,10,,,81,127
88627,note_off,133,0,0,,10,,,81,127
88627,note_off,0,0,0,,10,,,69,127
88627,note_off,0,0,0,,0,,,60,127
88627,note_off,0,0,0,,3,,,63,127
88630,note_on,3,0,0,,10,,,81,127
88630,note_on,0,0,0,,2,,,62,127
88630,note_on,0,0,0,,5,,,65,127
88630,note_on,0,0,0,,11,,,70,127
88763,note_off,133,0,0,,10,,,81,127
88766,note_on,3,0,0,,11,,,82,127
88899,note_off,133,0,0,,11,,,82,127
88899,note_off,0,0,0,,11,,,70,127
88899,note_off,0,0,0,,5,,,65,127
88899,note_off,0,0,0,,2,,,62,127
88902,note_on,3,0,0,,0,,,84,127
88902,note_on,0,0,0,,11,,,82,127
88902,note_on,0,0,0,,11,,,70,127
88902,note_on,0,0,0,,5,,,65,127
88902,note_on,0,0,0,,2,,,62,127
89035,note_off,133,0,0,,11,,,82,127
89035,note_off,0,0,0,,0,,,84,127
89038,note_on,3,0,0,,10,,,81,127
89171,note_off,133,0,0,,10,,,81,127
89171,note_off,0,0,0,,2,,,62,127
89171,note_off,0,0,0,,5,,,65,127
89171,note_off,0,0,0,,11,,,70,127
89174,note_on,3,0,0,,10,,,81,127
89174,note_on,0,0,0,,3,,,63,127
89174,note_on,0,0,0,,0,,,60,127
89174,note_on,0,0,0,,10,,,69,127
89307,note_off,133,0,0,,10,,,81,127
89310,note_on,3,0,0,,11,,,82,127
89443,note_off,133,0,0,,11,,,82,127
89443,note_off,0,0,0,,10,,,69,127
89443,note_off,0,0,0,,0,,,60,127
89443,note_off,0,0,0,,3,,,63,127
89446,note_on,3,0,0,,11,,,82,127
89446,note_on,0,0,0,,0,,,84,127
89446,note_on,0,0,0,,0,,,60,127
89446,note_on,0,0,0,,3,,,63,127
89446,note_on,0,0,0,,10,,,69,127
89579,note_off,133,0,0,,0,,,84,127
89579,note_off,0,0,0,,11,,,82,127
89582,note_on,3,0,0,,10,,,81,127
89715,note_off,133,0,0,,10,,,81,127
89715,note_off,0,0,0,,10,,,69,127
89715,note_off,0,0,0,,3,,,63,127
89715,note_off,0,0,0,,0,,,60,127
89718,note_on,3,0,0,,10,,,81,127
89718,note_on,0,0,0,,11,,,70,127
89718,note_on,0,0,0,,11,,,58,127
89986,note_off,268,0,0,,10,,,81,127
89989,note_on,3,0,0,,11,,,82,127
90257,note_off,268,0,0,,11,,,58,127
90529,note_off,272,0,0,,11,,,70,127
90609,note_off,80,0,0,,11,,,82,127
90801,note_on,192,0,0,,11,,,70,127
90937,note_on,136,0,0,,5,,,77,127
91070,note_off,133,0,0,,5,,,77,127
91073,note_on,3,0,0,,5,,,77,127
91206,note_off,133,0,0,,5,,,77,127
91209,note_on,3,0,0,,5,,,77,127
91342,note_off,133,0,0,,5,,,77,127
91342,note_off,0,0,0,,11,,,70,127
91345,note_on,3,0,0,,11,,,70,127
91345,note_on,0,0,0,,6,,,78,127
91478,note_off,133,0,0,,6,,,78,127
91481,note_on,3,0,0,,3,,,75,127
91614,note_off,133,0,0,,3,,,75,127
91617,note_on,3,0,0,,10,,,81,127
91750,note_off,133,0,0,,10,,,81,127
91753,note_on,3,0,0,,0,,,72,127
91753,note_on,0,0,0,,5,,,77,127
91886,note_off,133,0,0,,5,,,77,127
91886,note_off,0,0,0,,0,,,72,127
91886,note_off,0,0,0,,11,,,70,127
91889,note_on,3,0,0,,11,,,70,127
91889,note_on,0,0,0,,11,,,82,127
91889,note_on,0,0,0,,1,,,73,127
92022,note_off,133,0,0,,11,,,82,127
92025,note_on,3,0,0,,5,,,77,127
92158,note_off,133,0,0,,5,,,77,127
92161,note_on,3,0,0,,5,,,77,127
92294,note_off,133,0,0,,5,,,77,127
92297,note_on,3,0,0,,5,,,77,127
92430,note_off,133,0,0,,5,,,77,127
92430,note_off,0,0,0,,11,,,70,127
92431,note_off,1,0,0,,1,,,73,127
92432,note_on,1,0,0,,11,,,70,127
92432,note_on,0,0,0,,6,,,78,127
92565,note_off,133,0,0,,6,,,78,127
92568,note_on,3,0,0,,3,,,75,127
92701,note_off,133,0,0,,3,,,75,127
92704,note_on,3,0,0,,10,,,81,127
92837,note_off,133,0,0,,10,,,81,127
92840,note_on,3,0,0,,5,,,77,127
92840,note_on,0,0,0,,0,,,72,127
92973,note_off,133,0,0,,0,,,72,127
92973,note_off,0,0,0,,5,,,77,127
92973,note_off,0,0,0,,11,,,70,127
92976,note_on,3,0,0,,11,,,70,127
92976,note_on,0,0,0,,11,,,82,127
92976,note_on,0,0,0,,2,,,74,127
93109,note_off,133,0,0,,11,,,70,127
93110,note_off,1,0,0,,2,,,74,127
93111,note_on,1,0,0,,2,,,74,127
93244,note_off,133,0,0,,2,,,74,127
93244,note_off,0,0,0,,11,,,82,127
93247,note_on,3,0,0,,2,,,74,127
93247,note_on,0,0,0,,5,,,77,127
93380,note_off,133,0,0,,2,,,74,127
93383,note_on,3,0,0,,2,,,74,127
93516,note_off,133,0,0,,2,,,74,127
93516,note_off,0,0,0,,5,,,77,127
93519,note_on,3,0,0,,3,,,75,127
93519,note_on,0,0,0,,6,,,78,127
93652,note_off,133,0,0,,3,,,75,127
93655,note_on,3,0,0,,3,,,75,127
93788,note_off,133,0,0,,3,,,75,127
93788,note_off,0,0,0,,6,,,78,127
93791,note_on,3,0,0,,12,,,71,127
93791,note_on,0,0,0,,8,,,80,127
93791,note_on,0,0,0,,3,,,75,127
93924,note_off,133,0,0,,12,,,71,127
93927,note_on,3,0,0,,12,,,71,127
94060,note_off,133,0,0,,12,,,71,127
94060,note_off,0,0,0,,3,,,75,127
94060,note_off,0,0,0,,8,,,80,127
94063,note_on,3,0,0,,11,,,70,127
94063,note_on,0,0,0,,11,,,82,127
94063,note_on,0,0,0,,2,,,74,127
94196,note_off,133,0,0,,11,,,70,127
94199,note_on,3,0,0,,11,,,70,127
94332,note_off,133,0,0,,11,,,70,127
94332,note_off,0,0,0,,2,,,74,127
94335,note_on,3,0,0,,2,,,74,127
94335,note_on,0,0,0,,5,,,77,127
94468,note_off,133,0,0,,2,,,74,127
94471,note_on,3,0,0,,2,,,74,127
94604,note_off,133,0,0,,2,,,74,127
94604,note_off,0,0,0,,5,,,77,127
94605,note_off,1,0,0,,11,,,82,127
94606,note_on,1,0,0,,3,,,75,127
94606,note_on,0,0,0,,6,,,78,127
94739,note_off,133,0,0,,3,,,75,127
94742,note_on,3,0,0,,3,,,75,127
94875,note_off,133,0,0,,3,,,75,127
94875,note_off,0,0,0,,6,,,78,127
94878,note_on,3,0,0,,12,,,71,127
94878,note_on,0,0,0,,3,,,75,127
94878,note_on,0,0,0,,8,,,80,127
95011,note_off,133,0,0,,12,,,71,127
95014,note_on,3,0,0,,12,,,71,127
95147,note_off,133,0,0,,12,,,71,127
95147,note_off,0,0,0,,8,,,80,127
95147,note_off,0,0,0,,3,,,75,127
95150,note_on,3,0,0,,11,,,70,127
95150,note_on,0,0,0,,2,,,74,127
95150,note_on,0,0,0,,11,,,82,127
95283,note_off,133,0,0,,11,,,70,127
95286,note_on,3,0,0,,11,,,70,127
95419,note_off,133,0,0,,11,,,70,127
95419,note_off,0,0,0,,2,,,74,127
95422,note_on,3,0,0,,11,,,70,127
95422,note_on,0,0,0,,2,,,74,127
95555,note_off,133,0,0,,11,,,70,127
95558,note_on,3,0,0,,11,,,70,127
95691,note_off,133,0,0,,11,,,70,127
95691,note_off,0,0,0,,2,,,74,127
95694,note_on,3,0,0,,12,,,71,127
95694,note_on,0,0,0,,3,,,75,127
95827,note_off,133,0,0,,12,,,71,127
95830,note_on,3,0,0,,12,,,71,127
95963,note_off,133,0,0,,12,,,71,127
95963,note_off,0,0,0,,3,,,75,127
95964,note_off,1,0,0,,11,,,82,127
95965,note_on,1,0,0,,8,,,68,127
95965,note_on,0,0,0,,12,,,83,127
96098,note_off,133,0,0,,8,,,68,127
96101,note_on,3,0,0,,8,,,68,127
96234,note_off,133,0,0,,8,,,68,127
96234,note_off,0,0,0,,12,,,83,127
96237,note_on,3,0,0,,11,,,70,127
96237,note_on,0,0,0,,11,,,82,127
96370,note_off,133,0,0,,11,,,70,127
96373,note_on,3,0,0,,11,,,70,127
96506,note_off,133,0,0,,11,,,70,127
96509,note_on,3,0,0,,5,,,65,127
96509,note_on,0,0,0,,2,,,74,127
96642,note_off,133,0,0,,5,,,65,127
96645,note_on,3,0,0,,5,,,65,127
96778,note_off,133,0,0,,5,,,65,127
96778,note_off,0,0,0,,2,,,74,127
96779,note_off,1,0,0,,11,,,82,127
96780,note_on,1,0,0,,6,,,66,127
96780,note_on,0,0,0,,3,,,75,127
96913,note_off,133,0,0,,6,,,66,127
96916,note_on,3,0,0,,6,,,66,127
97049,note_off,133,0,0,,6,,,66,127
97049,note_off,0,0,0,,3,,,75,127
97052,note_on,3,0,0,,2,,,62,127
97052,note_on,0,0,0,,5,,,77,127
97185,note_off,133,0,0,,2,,,62,127
97188,note_on,3,0,0,,2,,,62,127
97321,note_off,133,0,0,,2,,,62,127
97321,note_off,0,0,0,,5,,,77,127
97324,note_on,3,0,0,,3,,,63,127
97324,note_on,0,0,0,,6,,,78,127
97457,note_off,133,0,0,,3,,,63,127
97460,note_on,3,0,0,,3,,,63,127
97593,note_off,133,0,0,,3,,,63,127
97593,note_off,0,0,0,,6,,,78,127
97596,note_on,3,0,0,,11,,,58,127
97596,note_on,0,0,0,,2,,,74,127
97729,note_off,133,0,0,,11,,,58,127
97732,note_on,3,0,0,,11,,,58,127
97865,note_off,133,0,0,,11,,,58,127
97865,note_off,0,0,0,,2,,,74,127
97868,note_on,3,0,0,,12,,,59,127
97868,note_on,0,0,0,,3,,,75,127
98001,note_off,133,0,0,,12,,,59,127
98004,note_on,3,0,0,,12,,,59,127
98137,note_off,133,0,0,,12,,,59,127
98137,note_off,0,0,0,,3,,,75,127
98140,note_on,3,0,0,,8,,,56,127
98140,note_on,0,0,0,,12,,,83,127
98273,note_off,133,0,0,,8,,,56,127
98276,note_on,3,0,0,,8,,,56,127
98409,note_off,133,0,0,,8,,,56,127
98409,note_off,0,0,0,,12,,,83,127
98412,note_on,3,0,0,,11,,,58,127
98412,note_on,0,0,0,,11,,,82,127
98545,note_off,133,0,0,,11,,,58,127
98548,note_on,3,0,0,,11,,,58,127
98681,note_off,133,0,0,,11,,,58,127
98684,note_on,3,0,0,,5,,,53,127
98684,note_on,0,0,0,,2,,,74,127
98817,note_off,133,0,0,,5,,,53,127
98820,note_on,3,0,0,,5,,,53,127
98953,note_off,133,0,0,,5,,,53,127
98953,note_off,0,0,0,,2,,,74,127
98954,note_off,1,0,0,,11,,,82,127
98955,note_on,1,0,0,,6,,,54,127
98955,note_on,0,0,0,,3,,,75,127
99088,note_off,133,0,0,,6,,,54,127
99091,note_on,3,0,0,,6,,,54,127
99224,note_off,133,0,0,,6,,,54,127
99224,note_off,0,0,0,,3,,,75,127
99227,note_on,3,0,0,,2,,,50,127
99227,note_on,0,0,0,,5,,,77,127
99360,note_off,133,0,0,,2,,,50,127
99363,note_on,3,0,0,,2,,,50,127
99496,note_off,133,0,0,,2,,,50,127
99496,note_off,0,0,0,,5,,,77,127
99499,note_on,3,0,0,,3,,,51,127
99499,note_on,0,0,0,,6,,,78,127
99632,note_off,133,0,0,,6,,,78,127
99635,note_on,3,0,0,,11,,,82,127
99768,note_off,133,0,0,,11,,,82,127
99768,note_off,0,0,0,,3,,,51,127
99771,note_on,3,0,0,,8,,,56,127
99771,note_on,0,0,0,,8,,,80,127
99904,note_off,133,0,0,,8,,,80,127
99907,note_on,3,0,0,,5,,,77,127
100040,note_off,133,0,0,,5,,,77,127
100040,note_off,0,0,0,,8,,,56,127
100043,note_on,3,0,0,,11,,,58,127
100043,note_on,0,0,0,,6,,,78,127
100176,note_off,133,0,0,,6,,,78,127
100179,note_on,3,0,0,,3,,,75,127
100312,note_off,133,0,0,,3,,,75,127
100312,note_off,0,0,0,,11,,,58,127
100315,note_on,3,0,0,,12,,,59,127
100315,note_on,0,0,0,,2,,,74,127
100448,note_off,133,0,0,,2,,,74,127
100451,note_on,3,0,0,,3,,,75,127
100584,note_off,133,0,0,,3,,,75,127
100584,note_off,0,0,0,,12,,,59,127
100587,note_on,3,0,0,,11,,,58,127
100587,note_on,0,0,0,,5,,,77,127
100720,note_off,133,0,0,,11,,,58,127
100723,note_on,3,0,0,,11,,,70,127
100856,note_off,133,0,0,,11,,,70,127
100856,note_off,0,0,0,,5,,,77,127
100859,note_on,3,0,0,,11,,,70,127
100859,note_on,0,0,0,,2,,,74,127
100992,note_off,133,0,0,,11,,,70,127
100995,note_on,3,0,0,,11,,,70,127
101128,note_off,133,0,0,,11,,,70,127
101128,note_off,0,0,0,,2,,,74,127
101131,note_on,3,0,0,,12,,,71,127
101131,note_on,0,0,0,,3,,,75,127
101264,note_off,133,0,0,,12,,,71,127
101267,note_on,3,0,0,,12,,,71,127
101400,note_off,133,0,0,,12,,,71,127
101400,note_off,0,0,0,,3,,,75,127
101403,note_on,3,0,0,,8,,,68,127
101403,note_on,0,0,0,,12,,,83,127
101536,note_off,133,0,0,,8,,,68,127
101539,note_on,3,0,0,,8,,,68,127
101672,note_off,133,0,0,,8,,,68,127
101672,note_off,0,0,0,,12,,,83,127
101675,note_on,3,0,0,,11,,,70,127
101675,note_on,0,0,0,,11,,,82,127
101808,note_off,133,0,0,,11,,,70,127
101811,note_on,3,0,0,,11,,,70,127
101944,note_off,133,0,0,,11,,,70,127
101947,note_on,3,0,0,,5,,,65,127
101947,note_on,0,0,0,,2,,,74,127
102080,note_off,133,0,0,,5,,,65,127
102083,note_on,3,0,0,,5,,,65,127
102216,note_off,133,0,0,,5,,,65,127
102216,note_off,0,0,0,,2,,,74,127
102217,note_off,1,0,0,,11,,,82,127
102218,note_on,1,0,0,,6,,,66,127
102218,note_on,0,0,0,,3,,,75,127
102351,note_off,133,0,0,,6,,,66,127
102354,note_on,3,0,0,,6,,,66,127
102487,note_off,133,0,0,,6,,,66,127
102487,note_off,0,0,0,,3,,,75,127
102490,note_on,3,0,0,,2,,,62,127
102490,note_on,0,0,0,,5,,,77,127
102623,note_off,133,0,0,,2,,,62,127
102626,note_on,3,0,0,,2,,,62,127
102759,note_off,133,0,0,,2,,,62,127
102759,note_off,0,0,0,,5,,,77,127
102762,note_on,3,0,0,,3,,,63,127
102762,note_on,0,0,0,,6,,,78,127
102895,note_off,133,0,0,,3,,,63,127
102898,note_on,3,0,0,,3,,,63,127
103031,note_off,133,0,0,,3,,,63,127
103031,note_off,0,0,0,,6,,,78,127
103034,note_on,3,0,0,,11,,,58,127
103034,note_on,0,0,0,,2,,,74,127
103167,note_off,133,0,0,,11,,,58,127
103170,note_on,3,0,0,,11,,,58,127
103303,note_off,133,0,0,,11,,,58,127
103303,note_off,0,0,0,,2,,,74,127
103306,note_on,3,0,0,,12,,,59,127
103306,note_on,0,0,0,,3,,,75,127
103439,note_off,133,0,0,,12,,,59,127
103442,note_on,3,0,0,,12,,,59,127
103575,note_off,133,0,0,,12,,,59,127
103575,note_off,0,0,0,,3,,,75,127
103578,note_on,3,0,0,,8,,,56,127
103578,note_on,0,0,0,,12,,,83,127
103711,note_off,133,0,0,,8,,,56,127
103714,note_on,3,0,0,,8,,,56,127
103847,note_off,133,0,0,,8,,,56,127
103847,note_off,0,0,0,,12,,,83,127
103850,note_on,3,0,0,,11,,,58,127
103850,note_on,0,0,0,,11,,,82,127
103983,note_off,133,0,0,,11,,,58,127
103986,note_on,3,0,0,,11,,,58,127
104119,note_off,133,0,0,,11,,,58,127
104122,note_on,3,0,0,,5,,,53,127
104122,note_on,0,0,0,,2,,,74,127
104255,note_off,133,0,0,,5,,,53,127
104258,note_on,3,0,0,,5,,,53,127
104391,note_off,133,0,0,,5,,,53,127
104391,note_off,0,0,0,,2,,,74,127
104392,note_off,1,0,0,,11,,,82,127
104393,note_on,1,0,0,,6,,,54,127
104393,note_on,0,0,0,,3,,,75,127
104526,note_off,133,0,0,,6,,,54,127
104529,note_on,3,0,0,,6,,,54,127
104662,note_off,133,0,0,,6,,,54,127
104662,note_off,0,0,0,,3,,,75,127
104665,note_on,3,0,0,,2,,,50,127
104665,note_on,0,0,0,,5,,,77,127
104798,note_off,133,0,0,,2,,,50,127
104801,note_on,3,0,0,,2,,,50,127
104934,note_off,133,0,0,,2,,,50,127
104934,note_off,0,0,0,,5,,,77,127
104937,note_on,3,0,0,,3,,,51,127
104937,note_on,0,0,0,,6,,,78,127
105070,note_off,133,0,0,,6,,,78,127
105073,note_on,3,0,0,,11,,,82,127
105206,note_off,133,0,0,,11,,,82,127
105206,note_off,0,0,0,,3,,,51,127
105209,note_on,3,0,0,,8,,,56,127
105209,note_on,0,0,0,,5,,,77,127
105342,note_off,133,0,0,,5,,,77,127
105345,note_on,3,0,0,,8,,,80,127
105478,note_off,133,0,0,,8,,,80,127
105478,note_off,0,0,0,,8,,,56,127
105481,note_on,3,0,0,,11,,,58,127
105481,note_on,0,0,0,,3,,,75,127
105614,note_off,133,0,0,,3,,,75,127
105617,note_on,3,0,0,,6,,,78,127
105750,note_off,133,0,0,,6,,,78,127
105753,note_on,3,0,0,,11,,,46,127
105753,note_on,0,0,0,,2,,,74,127
105886,note_off,133,0,0,,2,,,74,127
105889,note_on,3,0,0,,5,,,77,127
106019,note_off,130,0,0,,11,,,58,127
106022,note_off,3,0,0,,5,,,77,127
106022,note_off,0,0,0,,11,,,46,127
106025,note_on,3,0,0,,3,,,51,127
106025,note_on,0,0,0,,3,,,75,127
106158,note_off,133,0,0,,3,,,75,127
106161,note_on,3,0,0,,11,,,82,127
106294,note_off,133,0,0,,11,,,82,127
106297,note_on,3,0,0,,11,,,82,127
106430,note_off,133,0,0,,11,,,82,127
106433,note_on,3,0,0,,8,,,80,127
106566,note_off,133,0,0,,8,,,80,127
106569,note_on,3,0,0,,8,,,80,127
106702,note_off,133,0,0,,8,,,80,127
106705,note_on,3,0,0,,7,,,79,127
106838,note_off,133,0,0,,7,,,79,127
106838,note_off,0,0,0,,3,,,51,127
106841,note_on,3,0,0,,5,,,53,127
106841,note_on,0,0,0,,7,,,79,127
106974,note_off,133,0,0,,7,,,79,127
106977,note_on,3,0,0,,5,,,77,127
107110,note_off,133,0,0,,5,,,77,127
107110,note_off,0,0,0,,5,,,53,127
107113,note_on,3,0,0,,7,,,55,127
107113,note_on,0,0,0,,5,,,77,127
107246,note_off,133,0,0,,5,,,77,127
107249,note_on,3,0,0,,3,,,75,127
107382,note_off,133,0,0,,3,,,75,127
107385,note_on,3,0,0,,3,,,75,127
107518,note_off,133,0,0,,3,,,75,127
107521,note_on,3,0,0,,2,,,74,127
107654,note_off,133,0,0,,2,,,74,127
107654,note_off,0,0,0,,7,,,55,127
107657,note_on,3,0,0,,8,,,56,127
107657,note_on,0,0,0,,2,,,74,127
107790,note_off,133,0,0,,2,,,74,127
107793,note_on,3,0,0,,0,,,72,127
107926,note_off,133,0,0,,0,,,72,127
107929,note_on,3,0,0,,0,,,72,127
108062,note_off,133,0,0,,0,,,72,127
108065,note_on,3,0,0,,11,,,70,127
108198,note_off,133,0,0,,11,,,70,127
108198,note_off,0,0,0,,8,,,56,127
108201,note_on,3,0,0,,11,,,58,127
108201,note_on,0,0,0,,11,,,70,127
108334,note_off,133,0,0,,11,,,70,127
108337,note_on,3,0,0,,0,,,84,127
108470,note_off,133,0,0,,0,,,84,127
108473,note_on,3,0,0,,0,,,84,127
108606,note_off,133,0,0,,0,,,84,127
108609,note_on,3,0,0,,11,,,82,127
108742,note_off,133,0,0,,11,,,82,127
108745,note_on,3,0,0,,11,,,82,127
108878,note_off,133,0,0,,11,,,82,127
108881,note_on,3,0,0,,8,,,80,127
109014,note_off,133,0,0,,8,,,80,127
109014,note_off,0,0,0,,11,,,58,127
109017,note_on,3,0,0,,2,,,62,127
109017,note_on,0,0,0,,8,,,80,127
109150,note_off,133,0,0,,8,,,80,127
109153,note_on,3,0,0,,7,,,79,127
109286,note_off,133,0,0,,7,,,79,127
109286,note_off,0,0,0,,2,,,62,127
109289,note_on,3,0,0,,3,,,63,127
109289,note_on,0,0,0,,7,,,79,127
109422,note_off,133,0,0,,7,,,79,127
109425,note_on,3,0,0,,11,,,82,127
109558,note_off,133,0,0,,11,,,82,127
109558,note_off,0,0,0,,3,,,63,127
109561,note_on,3,0,0,,8,,,56,127
109561,note_on,0,0,0,,5,,,77,127
109694,note_off,133,0,0,,5,,,77,127
109697,note_on,3,0,0,,8,,,80,127
109830,note_off,133,0,0,,8,,,80,127
109830,note_off,0,0,0,,8,,,56,127
109833,note_on,3,0,0,,11,,,58,127
109833,note_on,0,0,0,,3,,,75,127
109966,note_off,133,0,0,,3,,,75,127
109969,note_on,3,0,0,,7,,,79,127
110102,note_off,133,0,0,,7,,,79,127
110105,note_on,3,0,0,,11,,,46,127
110105,note_on,0,0,0,,2,,,74,127
110238,note_off,133,0,0,,2,,,74,127
110241,note_on,3,0,0,,5,,,77,127
110371,note_off,130,0,0,,11,,,58,127
110374,note_off,3,0,0,,5,,,77,127
110374,note_off,0,0,0,,11,,,46,127
110377,note_on,3,0,0,,3,,,51,127
110377,note_on,0,0,0,,3,,,75,127
110510,note_off,133,0,0,,3,,,75,127
110513,note_on,3,0,0,,11,,,82,127
110646,note_off,133,0,0,,11,,,82,127
110649,note_on,3,0,0,,11,,,82,127
110782,note_off,133,0,0,,11,,,82,127
110785,note_on,3,0,0,,8,,,80,127
110918,note_off,133,0,0,,8,,,80,127
110921,note_on,3,0,0,,8,,,80,127
111054,note_off,133,0,0,,8,,,80,127
111057,note_on,3,0,0,,7,,,79,127
111190,note_off,133,0,0,,7,,,79,127
111190,note_off,0,0,0,,3,,,51,127
111193,note_on,3,0,0,,5,,,53,127
111193,note_on,0,0,0,,7,,,79,127
111326,note_off,133,0,0,,7,,,79,127
111329,note_on,3,0,0,,5,,,77,127
111462,note_off,133,0,0,,5,,,77,127
111462,note_off,0,0,0,,5,,,53,127
111465,note_on,3,0,0,,7,,,55,127
111465,note_on,0,0,0,,5,,,77,127
111598,note_off,133,0,0,,5,,,77,127
111601,note_on,3,0,0,,3,,,75,127
111734,note_off,133,0,0,,3,,,75,127
111737,note_on,3,0,0,,3,,,75,127
111870,note_off,133,0,0,,3,,,75,127
111873,note_on,3,0,0,,2,,,74,127
112006,note_off,133,0,0,,2,,,74,127
112006,note_off,0,0,0,,7,,,55,127
112009,note_on,3,0,0,,8,,,56,127
112009,note_on,0,0,0,,2,,,74,127
112142,note_off,133,0,0,,2,,,74,127
112145,note_on,3,0,0,,0,,,72,127
112278,note_off,133,0,0,,0,,,72,127
112281,note_on,3,0,0,,0,,,72,127
112414,note_off,133,0,0,,0,,,72,127
112417,note_on,3,0,0,,11,,,70,127
112550,note_off,133,0,0,,11,,,70,127
112550,note_off,0,0,0,,8,,,56,127
112553,note_on,3,0,0,,11,,,58,127
112553,note_on,0,0,0,,11,,,70,127
112686,note_off,133,0,0,,11,,,70,127
112689,note_on,3,0,0,,0,,,84,127
112822,note_off,133,0,0,,0,,,84,127
112825,note_on,3,0,0,,0,,,84,127
112958,note_off,133,0,0,,0,,,84,127
112961,note_on,3,0,0,,11,,,82,127
113094,note_off,133,0,0,,11,,,82,127
113097,note_on,3,0,0,,11,,,82,127
113230,note_off,133,0,0,,11,,,82,127
113233,note_on,3,0,0,,8,,,80,127
113366,note_off,133,0,0,,8,,,80,127
113366,note_off,0,0,0,,11,,,58,127
113369,note_on,3,0,0,,2,,,62,127
113369,note_on,0,0,0,,8,,,80,127
113502,note_off,133,0,0,,8,,,80,127
113505,note_on,3,0,0,,7,,,79,127
113638,note_off,133,0,0,,7,,,79,127
113638,note_off,0,0,0,,2,,,62,127
113641,note_on,3,0,0,,3,,,63,127
113641,note_on,0,0,0,,7,,,79,127
113774,note_off,133,0,0,,7,,,79,127
113777,note_on,3,0,0,,11,,,82,127
113910,note_off,133,0,0,,11,,,82,127
113910,note_off,0,0,0,,3,,,63,127
113913,note_on,3,0,0,,8,,,56,127
113913,note_on,0,0,0,,5,,,77,127
114046,note_off,133,0,0,,5,,,77,127
114049,note_on,3,0,0,,8,,,80,127
114182,note_off,133,0,0,,8,,,80,127
114182,note_off,0,0,0,,8,,,56,127
114185,note_on,3,0,0,,11,,,58,127
114185,note_on,0,0,0,,3,,,75,127
114318,note_off,133,0,0,,3,,,75,127
114321,note_on,3,0,0,,7,,,79,127
114454,note_off,133,0,0,,7,,,79,127
114457,note_on,3,0,0,,11,,,46,127
114457,note_on,0,0,0,,2,,,74,127
114590,note_off,133,0,0,,2,,,74,127
114593,note_on,3,0,0,,5,,,77,127
114723,note_off,130,0,0,,11,,,58,127
114726,note_off,3,0,0,,5,,,77,127
114726,note_off,0,0,0,,11,,,46,127
114729,note_on,3,0,0,,3,,,51,127
114729,note_on,0,0,0,,3,,,75,127
114862,note_off,133,0,0,,3,,,51,127
114865,note_on,3,0,0,,3,,,63,127
114998,note_off,133,0,0,,3,,,63,127
115001,note_on,3,0,0,,7,,,67,127
115134,note_off,133,0,0,,7,,,67,127
115137,note_on,3,0,0,,3,,,63,127
115270,note_off,133,0,0,,3,,,63,127
115273,note_on,3,0,0,,2,,,62,127
115406,note_off,133,0,0,,3,,,75,127
115409,note_on,3,0,0,,5,,,77,127
115542,note_off,133,0,0,,5,,,77,127
115542,note_off,0,0,0,,2,,,62,127
115545,note_on,3,0,0,,11,,,58,127
115545,note_on,0,0,0,,5,,,65,127
115678,note_off,133,0,0,,5,,,65,127
115681,note_on,3,0,0,,8,,,68,127
115814,note_off,133,0,0,,8,,,68,127
115814,note_off,0,0,0,,11,,,58,127
115817,note_on,3,0,0,,3,,,51,127
115817,note_on,0,0,0,,7,,,67,127
115950,note_off,133,0,0,,3,,,51,127
115953,note_on,3,0,0,,3,,,63,127
116086,note_off,133,0,0,,3,,,63,127
116086,note_off,0,0,0,,7,,,67,127
116089,note_on,3,0,0,,7,,,67,127
116089,note_on,0,0,0,,3,,,75,127
116222,note_off,133,0,0,,7,,,67,127
116225,note_on,3,0,0,,3,,,63,127
116358,note_off,133,0,0,,3,,,63,127
116361,note_on,3,0,0,,2,,,62,127
116494,note_off,133,0,0,,3,,,75,127
116497,note_on,3,0,0,,5,,,77,127
116630,note_off,133,0,0,,5,,,77,127
116630,note_off,0,0,0,,2,,,62,127
116633,note_on,3,0,0,,11,,,58,127
116633,note_on,0,0,0,,5,,,65,127
116766,note_off,133,0,0,,5,,,65,127
116769,note_on,3,0,0,,8,,,68,127
116902,note_off,133,0,0,,8,,,68,127
116902,note_off,0,0,0,,11,,,58,127
116905,note_on,3,0,0,,3,,,63,127
116905,note_on,0,0,0,,7,,,67,127
117038,note_off,133,0,0,,7,,,67,127
117041,note_on,3,0,0,,3,,,75,127
117174,note_off,133,0,0,,3,,,75,127
117174,note_off,0,0,0,,3,,,63,127
117177,note_on,3,0,0,,8,,,56,127
117177,note_on,0,0,0,,0,,,72,127
117310,note_off,133,0,0,,0,,,72,127
117313,note_on,3,0,0,,8,,,68,127
117446,note_off,133,0,0,,8,,,68,127
117446,note_off,0,0,0,,8,,,56,127
117449,note_on,3,0,0,,11,,,58,127
117449,note_on,0,0,0,,7,,,67,127
117585,note_on,136,0,0,,3,,,75,127
117619,note_off,34,0,0,,7,,,67,127
117721,note_on,102,0,0,,11,,,46,127
117721,note_on,0,0,0,,5,,,65,127
117755,note_off,34,0,0,,3,,,75,127
117857,note_on,102,0,0,,2,,,74,127
117891,note_off,34,0,0,,5,,,65,127
117987,note_off,96,0,0,,11,,,58,127
117990,note_off,3,0,0,,11,,,46,127
117993,note_on,3,0,0,,0,,,60,127
117993,note_on,0,0,0,,7,,,67,127
118027,note_off,34,0,0,,2,,,74,127
118129,note_on,102,0,0,,3,,,75,127
118163,note_off,34,0,0,,7,,,67,127
118262,note_off,99,0,0,,3,,,75,127
118262,note_off,0,0,0,,0,,,60,127
118265,note_on,3,0,0,,8,,,56,127
118265,note_on,0,0,0,,0,,,72,127
118398,note_off,133,0,0,,0,,,72,127
118401,note_on,3,0,0,,8,,,68,127
118534,note_off,133,0,0,,8,,,68,127
118534,note_off,0,0,0,,8,,,56,127
118537,note_on,3,0,0,,11,,,58,127
118537,note_on,0,0,0,,7,,,67,127
118673,note_on,136,0,0,,3,,,75,127
118707,note_off,34,0,0,,7,,,67,127
118809,note_on,102,0,0,,11,,,46,127
118809,note_on,0,0,0,,5,,,65,127
118843,note_off,34,0,0,,3,,,75,127
118945,note_on,102,0,0,,2,,,74,127
118979,note_off,34,0,0,,5,,,65,127
119075,note_off,96,0,0,,11,,,58,127
119078,note_off,3,0,0,,2,,,74,127
119078,note_off,0,0,0,,11,,,46,127
119081,note_on,3,0,0,,3,,,51,127
119081,note_on,0,0,0,,3,,,39,127
119081,note_on,0,0,0,,2,,,74,127
119623,note_off,542,0,0,,2,,,74,127
119623,note_on,0,0,0,,3,,,75,127
121249,note_off,1626,0,0,,3,,,75,127
121249,note_off,0,0,0,,3,,,39,127
121249,note_off,0,0,0,,3,,,51,127
122880,end_of_track,1631,1,0,,,,,,
