tick,type,time,meta,track,program,channel,pitch,tempo,note,velocity
0,copyright,0,1,0,,,,,,
0,program_change,0,0,0,6,0,,,,
0,pitchwheel,0,0,0,,0,0,,,
0,program_change,0,0,0,6,1,,,,
0,pitchwheel,0,0,0,,1,-590,,,
0,program_change,0,0,0,6,2,,,,
0,pitchwheel,0,0,0,,2,-272,,,
0,program_change,0,0,0,6,3,,,,
0,pitchwheel,0,0,0,,3,-353,,,
0,program_change,0,0,0,6,4,,,,
0,pitchwheel,0,0,0,,4,-560,,,
0,program_change,0,0,0,6,5,,,,
0,pitchwheel,0,0,0,,5,-80,,,
0,program_change,0,0,0,6,6,,,,
0,pitchwheel,0,0,0,,6,-625,,,
0,program_change,0,0,0,6,7,,,,
0,pitchwheel,0,0,0,,7,-130,,,
0,program_change,0,0,0,6,8,,,,
0,pitchwheel,0,0,0,,8,-512,,,
0,program_change,0,0,0,6,10,,,,
0,pitchwheel,0,0,0,,10,-464,,,
0,program_change,0,0,0,6,11,,,,
0,pitchwheel,0,0,0,,11,-208,,,
0,program_change,0,0,0,6,12,,,,
0,pitchwheel,0,0,0,,12,-553,,,
0,set_tempo,0,1,0,,,,500000,,
105,note_on,105,0,0,,3,,,63,127
210,note_on,105,0,0,,7,,,79,127
310,note_off,100,0,0,,7,,,79,127
314,note_on,4,0,0,,5,,,77,127
414,note_off,100,0,0,,5,,,77,127
418,note_on,4,0,0,,3,,,75,127
518,note_off,100,0,0,,3,,,75,127
522,note_on,4,0,0,,2,,,74,127
622,note_off,100,0,0,,2,,,74,127
626,note_on,4,0,0,,3,,,75,127
726,note_off,100,0,0,,3,,,75,127
729,note_off,3,0,0,,3,,,63,127
730,note_on,1,0,0,,8,,,68,127
730,note_on,0,0,0,,0,,,72,127
835,note_on,105,0,0,,7,,,79,127
861,note_off,26,0,0,,0,,,72,127
935,note_off,74,0,0,,7,,,79,127
939,note_on,4,0,0,,5,,,77,127
1039,note_off,100,0,0,,5,,,77,127
1043,note_on,4,0,0,,3,,,75,127
1143,note_off,100,0,0,,3,,,75,127
1147,note_on,4,0,0,,2,,,74,127
1247,note_off,100,0,0,,2,,,74,127
1251,note_on,4,0,0,,3,,,75,127
1351,note_off,100,0,0,,3,,,75,127
1354,note_off,3,0,0,,8,,,68,127
1355,note_on,1,0,0,,7,,,67,127
1355,note_on,0,0,0,,11,,,70,127
1460,note_on,105,0,0,,7,,,79,127
1486,note_off,26,0,0,,11,,,70,127
1560,note_off,74,0,0,,7,,,79,127
1564,note_on,4,0,0,,5,,,77,127
1664,note_off,100,0,0,,5,,,77,127
1668,note_on,4,0,0,,3,,,75,127
1768,note_off,100,0,0,,3,,,75,127
1772,note_on,4,0,0,,2,,,74,127
1872,note_off,100,0,0,,2,,,74,127
1876,note_on,4,0,0,,3,,,75,127
1976,note_off,100,0,0,,3,,,75,127
1979,note_off,3,0,0,,7,,,67,127
1980,note_on,1,0,0,,5,,,65,127
1980,note_on,0,0,0,,8,,,68,127
2085,note_on,105,0,0,,7,,,79,127
2111,note_off,26,0,0,,8,,,68,127
2185,note_off,74,0,0,,7,,,79,127
2189,note_on,4,0,0,,5,,,77,127
2289,note_off,100,0,0,,5,,,77,127
2293,note_on,4,0,0,,3,,,75,127
2393,note_off,100,0,0,,3,,,75,127
2397,note_on,4,0,0,,2,,,74,127
2497,note_off,100,0,0,,2,,,74,127
2501,note_on,4,0,0,,3,,,75,127
2601,note_off,100,0,0,,3,,,75,127
2604,note_off,3,0,0,,5,,,65,127
2605,note_on,1,0,0,,3,,,63,127
2605,note_on,0,0,0,,7,,,67,127
2709,note_off,104,0,0,,7,,,67,127
2709,note_off,0,0,0,,3,,,63,127
2710,note_on,1,0,0,,7,,,67,127
2815,note_on,105,0,0,,5,,,65,127
2919,note_off,104,0,0,,5,,,65,127
2920,note_on,1,0,0,,3,,,63,127
3024,note_off,104,0,0,,3,,,63,127
3025,note_on,1,0,0,,2,,,62,127
3129,note_off,104,0,0,,2,,,62,127
3130,note_on,1,0,0,,3,,,63,127
3234,note_off,104,0,0,,3,,,63,127
3234,note_off,0,0,0,,7,,,67,127
3235,note_on,1,0,0,,0,,,60,127
3235,note_on,0,0,0,,5,,,77,127
3297,note_on,62,0,0,,3,,,75,127
3304,note_off,7,0,0,,5,,,77,127
3340,note_on,36,0,0,,7,,,67,127
3361,note_on,21,0,0,,5,,,77,127
3366,note_off,5,0,0,,3,,,75,127
3366,note_off,0,0,0,,0,,,60,127
3423,note_on,57,0,0,,3,,,75,127
3430,note_off,7,0,0,,5,,,77,127
3444,note_off,14,0,0,,7,,,67,127
3445,note_on,1,0,0,,5,,,65,127
3486,note_on,41,0,0,,5,,,77,127
3491,note_off,5,0,0,,3,,,75,127
3548,note_off,57,0,0,,5,,,65,127
3549,note_on,1,0,0,,3,,,63,127
3549,note_on,0,0,0,,3,,,75,127
3554,note_off,5,0,0,,5,,,77,127
3611,note_on,57,0,0,,5,,,77,127
3618,note_off,7,0,0,,3,,,75,127
3653,note_off,35,0,0,,3,,,63,127
3654,note_on,1,0,0,,2,,,62,127
3675,note_on,21,0,0,,3,,,75,127
3680,note_off,5,0,0,,5,,,77,127
3737,note_on,57,0,0,,5,,,77,127
3744,note_off,7,0,0,,3,,,75,127
3758,note_off,14,0,0,,2,,,62,127
3759,note_on,1,0,0,,3,,,63,127
3800,note_on,41,0,0,,3,,,75,127
3805,note_off,5,0,0,,5,,,77,127
3862,note_off,57,0,0,,3,,,63,127
3863,note_on,1,0,0,,11,,,58,127
3863,note_on,0,0,0,,5,,,77,127
3868,note_off,5,0,0,,3,,,75,127
3925,note_on,57,0,0,,3,,,75,127
3932,note_off,7,0,0,,5,,,77,127
3968,note_on,36,0,0,,7,,,67,127
3989,note_on,21,0,0,,5,,,77,127
3994,note_off,5,0,0,,3,,,75,127
3994,note_off,0,0,0,,11,,,58,127
4051,note_on,57,0,0,,3,,,75,127
4058,note_off,7,0,0,,5,,,77,127
4072,note_off,14,0,0,,7,,,67,127
4073,note_on,1,0,0,,5,,,65,127
4114,note_on,41,0,0,,5,,,77,127
4119,note_off,5,0,0,,3,,,75,127
4176,note_off,57,0,0,,5,,,65,127
4177,note_on,1,0,0,,3,,,63,127
4177,note_on,0,0,0,,3,,,75,127
4182,note_off,5,0,0,,5,,,77,127
4239,note_on,57,0,0,,5,,,77,127
4246,note_off,7,0,0,,3,,,75,127
4281,note_off,35,0,0,,3,,,63,127
4282,note_on,1,0,0,,2,,,62,127
4303,note_on,21,0,0,,3,,,75,127
4308,note_off,5,0,0,,5,,,77,127
4365,note_on,57,0,0,,5,,,77,127
4372,note_off,7,0,0,,3,,,75,127
4386,note_off,14,0,0,,2,,,62,127
4387,note_on,1,0,0,,3,,,63,127
4428,note_on,41,0,0,,3,,,75,127
4433,note_off,5,0,0,,5,,,77,127
4490,note_off,57,0,0,,3,,,63,127
4491,note_on,1,0,0,,8,,,56,127
4491,note_on,0,0,0,,5,,,77,127
4496,note_off,5,0,0,,3,,,75,127
4553,note_on,57,0,0,,3,,,75,127
4560,note_off,7,0,0,,5,,,77,127
4596,note_on,36,0,0,,7,,,67,127
4617,note_on,21,0,0,,5,,,77,127
4622,note_off,5,0,0,,3,,,75,127
4622,note_off,0,0,0,,8,,,56,127
4679,note_on,57,0,0,,3,,,75,127
4686,note_off,7,0,0,,5,,,77,127
4700,note_off,14,0,0,,7,,,67,127
4701,note_on,1,0,0,,5,,,65,127
4742,note_on,41,0,0,,5,,,77,127
4747,note_off,5,0,0,,3,,,75,127
4804,note_off,57,0,0,,5,,,65,127
4805,note_on,1,0,0,,3,,,63,127
4805,note_on,0,0,0,,3,,,75,127
4810,note_off,5,0,0,,5,,,77,127
4867,note_on,57,0,0,,5,,,77,127
4874,note_off,7,0,0,,3,,,75,127
4909,note_off,35,0,0,,3,,,63,127
4910,note_on,1,0,0,,2,,,62,127
4931,note_on,21,0,0,,3,,,75,127
4936,note_off,5,0,0,,5,,,77,127
4993,note_on,57,0,0,,5,,,77,127
5000,note_off,7,0,0,,3,,,75,127
5014,note_off,14,0,0,,2,,,62,127
5015,note_on,1,0,0,,3,,,63,127
5056,note_on,41,0,0,,3,,,75,127
5061,note_off,5,0,0,,5,,,77,127
5118,note_off,57,0,0,,3,,,63,127
5119,note_on,1,0,0,,7,,,55,127
5224,note_on,105,0,0,,7,,,79,127
5234,note_off,10,0,0,,3,,,75,127
5325,note_off,91,0,0,,7,,,79,127
5329,note_on,4,0,0,,5,,,77,127
5429,note_off,100,0,0,,5,,,77,127
5433,note_on,4,0,0,,3,,,75,127
5533,note_off,100,0,0,,3,,,75,127
5537,note_on,4,0,0,,2,,,74,127
5637,note_off,100,0,0,,2,,,74,127
5641,note_on,4,0,0,,3,,,75,127
5741,note_off,100,0,0,,3,,,75,127
5744,note_off,3,0,0,,7,,,55,127
5745,note_on,1,0,0,,8,,,56,127
5745,note_on,0,0,0,,0,,,72,127
5850,note_on,105,0,0,,7,,,79,127
5902,note_off,52,0,0,,0,,,72,127
5950,note_off,48,0,0,,7,,,79,127
5954,note_on,4,0,0,,5,,,77,127
6054,note_off,100,0,0,,5,,,77,127
6058,note_on,4,0,0,,3,,,75,127
6158,note_off,100,0,0,,3,,,75,127
6162,note_on,4,0,0,,2,,,74,127
6262,note_off,100,0,0,,2,,,74,127
6266,note_on,4,0,0,,3,,,75,127
6366,note_off,100,0,0,,3,,,75,127
6369,note_off,3,0,0,,8,,,56,127
6370,note_on,1,0,0,,7,,,55,127
6370,note_on,0,0,0,,11,,,70,127
6475,note_on,105,0,0,,7,,,79,127
6527,note_off,52,0,0,,11,,,70,127
6575,note_off,48,0,0,,7,,,79,127
6579,note_on,4,0,0,,5,,,77,127
6679,note_off,100,0,0,,5,,,77,127
6683,note_on,4,0,0,,3,,,75,127
6783,note_off,100,0,0,,3,,,75,127
6787,note_on,4,0,0,,2,,,74,127
6887,note_off,100,0,0,,2,,,74,127
6891,note_on,4,0,0,,3,,,75,127
6991,note_off,100,0,0,,3,,,75,127
6994,note_off,3,0,0,,7,,,55,127
6995,note_on,1,0,0,,5,,,53,127
6995,note_on,0,0,0,,10,,,69,127
7100,note_on,105,0,0,,7,,,79,127
7152,note_off,52,0,0,,10,,,69,127
7200,note_off,48,0,0,,7,,,79,127
7204,note_on,4,0,0,,5,,,77,127
7304,note_off,100,0,0,,5,,,77,127
7308,note_on,4,0,0,,3,,,75,127
7408,note_off,100,0,0,,3,,,75,127
7412,note_on,4,0,0,,2,,,74,127
7512,note_off,100,0,0,,2,,,74,127
7516,note_on,4,0,0,,0,,,72,127
7616,note_off,100,0,0,,0,,,72,127
7619,note_off,3,0,0,,5,,,53,127
7620,note_on,1,0,0,,11,,,46,127
7620,note_on,0,0,0,,2,,,74,127
7724,note_off,104,0,0,,11,,,46,127
7725,note_on,1,0,0,,7,,,67,127
7829,note_off,104,0,0,,7,,,67,127
7830,note_on,1,0,0,,5,,,65,127
7934,note_off,104,0,0,,5,,,65,127
7935,note_on,1,0,0,,3,,,63,127
8039,note_off,104,0,0,,3,,,63,127
8040,note_on,1,0,0,,2,,,62,127
8144,note_off,104,0,0,,2,,,62,127
8145,note_on,1,0,0,,3,,,63,127
8249,note_off,104,0,0,,3,,,63,127
8249,note_off,0,0,0,,2,,,74,127
8250,note_on,1,0,0,,0,,,60,127
8250,note_on,0,0,0,,5,,,77,127
8312,note_on,62,0,0,,3,,,75,127
8319,note_off,7,0,0,,5,,,77,127
8355,note_on,36,0,0,,7,,,67,127
8376,note_on,21,0,0,,5,,,77,127
8381,note_off,5,0,0,,3,,,75,127
8381,note_off,0,0,0,,0,,,60,127
8438,note_on,57,0,0,,3,,,75,127
8445,note_off,7,0,0,,5,,,77,127
8459,note_off,14,0,0,,7,,,67,127
8460,note_on,1,0,0,,5,,,65,127
8501,note_on,41,0,0,,5,,,77,127
8506,note_off,5,0,0,,3,,,75,127
8563,note_off,57,0,0,,5,,,65,127
8564,note_on,1,0,0,,3,,,63,127
8564,note_on,0,0,0,,3,,,75,127
8569,note_off,5,0,0,,5,,,77,127
8626,note_on,57,0,0,,5,,,77,127
8633,note_off,7,0,0,,3,,,75,127
8668,note_off,35,0,0,,3,,,63,127
8669,note_on,1,0,0,,2,,,62,127
8690,note_on,21,0,0,,3,,,75,127
8695,note_off,5,0,0,,5,,,77,127
8752,note_on,57,0,0,,5,,,77,127
8759,note_off,7,0,0,,3,,,75,127
8773,note_off,14,0,0,,2,,,62,127
8774,note_on,1,0,0,,3,,,63,127
8815,note_on,41,0,0,,3,,,75,127
8820,note_off,5,0,0,,5,,,77,127
8877,note_off,57,0,0,,3,,,63,127
8878,note_on,1,0,0,,11,,,58,127
8878,note_on,0,0,0,,5,,,77,127
8883,note_off,5,0,0,,3,,,75,127
8940,note_on,57,0,0,,3,,,75,127
8947,note_off,7,0,0,,5,,,77,127
8983,note_on,36,0,0,,7,,,67,127
9004,note_on,21,0,0,,5,,,77,127
9009,note_off,5,0,0,,3,,,75,127
9009,note_off,0,0,0,,11,,,58,127
9066,note_on,57,0,0,,3,,,75,127
9073,note_off,7,0,0,,5,,,77,127
9087,note_off,14,0,0,,7,,,67,127
9088,note_on,1,0,0,,5,,,65,127
9129,note_on,41,0,0,,5,,,77,127
9134,note_off,5,0,0,,3,,,75,127
9191,note_off,57,0,0,,5,,,65,127
9192,note_on,1,0,0,,3,,,63,127
9192,note_on,0,0,0,,3,,,75,127
9197,note_off,5,0,0,,5,,,77,127
9254,note_on,57,0,0,,5,,,77,127
9261,note_off,7,0,0,,3,,,75,127
9296,note_off,35,0,0,,3,,,63,127
9297,note_on,1,0,0,,2,,,62,127
9318,note_on,21,0,0,,3,,,75,127
9323,note_off,5,0,0,,5,,,77,127
9380,note_on,57,0,0,,5,,,77,127
9387,note_off,7,0,0,,3,,,75,127
9401,note_off,14,0,0,,2,,,62,127
9402,note_on,1,0,0,,3,,,63,127
9443,note_on,41,0,0,,3,,,75,127
9448,note_off,5,0,0,,5,,,77,127
9505,note_off,57,0,0,,3,,,63,127
9506,note_on,1,0,0,,10,,,57,127
9506,note_on,0,0,0,,5,,,77,127
9511,note_off,5,0,0,,3,,,75,127
9568,note_on,57,0,0,,3,,,75,127
9575,note_off,7,0,0,,5,,,77,127
9611,note_on,36,0,0,,7,,,67,127
9632,note_on,21,0,0,,5,,,77,127
9637,note_off,5,0,0,,3,,,75,127
9637,note_off,0,0,0,,10,,,57,127
9694,note_on,57,0,0,,3,,,75,127
9701,note_off,7,0,0,,5,,,77,127
9715,note_off,14,0,0,,7,,,67,127
9716,note_on,1,0,0,,5,,,65,127
9757,note_on,41,0,0,,5,,,77,127
9762,note_off,5,0,0,,3,,,75,127
9819,note_off,57,0,0,,5,,,65,127
9820,note_on,1,0,0,,3,,,63,127
9820,note_on,0,0,0,,3,,,75,127
9825,note_off,5,0,0,,5,,,77,127
9882,note_on,57,0,0,,5,,,77,127
9889,note_off,7,0,0,,3,,,75,127
9924,note_off,35,0,0,,3,,,63,127
9925,note_on,1,0,0,,2,,,62,127
9946,note_on,21,0,0,,3,,,75,127
9951,note_off,5,0,0,,5,,,77,127
10008,note_on,57,0,0,,5,,,77,127
10015,note_off,7,0,0,,3,,,75,127
10029,note_off,14,0,0,,2,,,62,127
10030,note_on,1,0,0,,0,,,60,127
10071,note_on,41,0,0,,3,,,75,127
10076,note_off,5,0,0,,5,,,77,127
10133,note_off,57,0,0,,0,,,60,127
10134,note_on,1,0,0,,2,,,62,127
10239,note_on,105,0,0,,5,,,77,127
10249,note_off,10,0,0,,3,,,75,127
10340,note_off,91,0,0,,5,,,77,127
10344,note_on,4,0,0,,3,,,75,127
10444,note_off,100,0,0,,3,,,75,127
10448,note_on,4,0,0,,2,,,74,127
10548,note_off,100,0,0,,2,,,74,127
10552,note_on,4,0,0,,3,,,75,127
10652,note_off,100,0,0,,3,,,75,127
10656,note_on,4,0,0,,5,,,77,127
10756,note_off,100,0,0,,5,,,77,127
10759,note_off,3,0,0,,2,,,62,127
10760,note_on,1,0,0,,3,,,51,127
10760,note_on,0,0,0,,7,,,79,127
10860,note_off,100,0,0,,7,,,79,127
10864,note_on,4,0,0,,5,,,77,127
10964,note_off,100,0,0,,5,,,77,127
10968,note_on,4,0,0,,3,,,75,127
11068,note_off,100,0,0,,3,,,75,127
11072,note_on,4,0,0,,2,,,74,127
11172,note_off,100,0,0,,2,,,74,127
11176,note_on,4,0,0,,0,,,72,127
11276,note_off,100,0,0,,0,,,72,127
11280,note_on,4,0,0,,11,,,70,127
11380,note_off,100,0,0,,11,,,70,127
11383,note_off,3,0,0,,3,,,51,127
11384,note_on,1,0,0,,5,,,53,127
11384,note_on,0,0,0,,10,,,69,127
11489,note_on,105,0,0,,5,,,65,127
11589,note_off,100,0,0,,5,,,65,127
11593,note_on,4,0,0,,7,,,67,127
11693,note_off,100,0,0,,7,,,67,127
11697,note_on,4,0,0,,5,,,65,127
11797,note_off,100,0,0,,5,,,65,127
11800,note_off,3,0,0,,10,,,69,127
11800,note_off,0,0,0,,5,,,53,127
11801,note_on,1,0,0,,3,,,63,127
11801,note_on,0,0,0,,10,,,69,127
11906,note_on,105,0,0,,5,,,65,127
12006,note_off,100,0,0,,5,,,65,127
12009,note_off,3,0,0,,10,,,69,127
12009,note_off,0,0,0,,3,,,63,127
12010,note_on,1,0,0,,2,,,62,127
12010,note_on,0,0,0,,11,,,70,127
12115,note_on,105,0,0,,5,,,65,127
12215,note_off,100,0,0,,5,,,65,127
12218,note_off,3,0,0,,11,,,70,127
12218,note_off,0,0,0,,2,,,62,127
12219,note_on,1,0,0,,0,,,60,127
12219,note_on,0,0,0,,10,,,69,127
12324,note_on,105,0,0,,5,,,65,127
12424,note_off,100,0,0,,5,,,65,127
12427,note_off,3,0,0,,10,,,69,127
12427,note_off,0,0,0,,0,,,60,127
12428,note_on,1,0,0,,11,,,58,127
12428,note_on,0,0,0,,11,,,70,127
12533,note_on,105,0,0,,5,,,65,127
12633,note_off,100,0,0,,5,,,65,127
12636,note_off,3,0,0,,11,,,70,127
12636,note_off,0,0,0,,11,,,58,127
12637,note_on,1,0,0,,10,,,57,127
12637,note_on,0,0,0,,0,,,72,127
12742,note_on,105,0,0,,5,,,65,127
12842,note_off,100,0,0,,5,,,65,127
12845,note_off,3,0,0,,0,,,72,127
12845,note_off,0,0,0,,10,,,57,127
12846,note_on,1,0,0,,7,,,55,127
12846,note_on,0,0,0,,2,,,74,127
12951,note_on,105,0,0,,5,,,65,127
13051,note_off,100,0,0,,5,,,65,127
13054,note_off,3,0,0,,2,,,74,127
13054,note_off,0,0,0,,7,,,55,127
13055,note_on,1,0,0,,5,,,53,127
13055,note_on,0,0,0,,3,,,75,127
13160,note_on,105,0,0,,5,,,65,127
13260,note_off,100,0,0,,5,,,65,127
13263,note_off,3,0,0,,3,,,75,127
13263,note_off,0,0,0,,5,,,53,127
13264,note_on,1,0,0,,11,,,58,127
13264,note_on,0,0,0,,2,,,74,127
13369,note_on,105,0,0,,5,,,65,127
13469,note_off,100,0,0,,5,,,65,127
13472,note_off,3,0,0,,2,,,74,127
13472,note_off,0,0,0,,11,,,58,127
13473,note_on,1,0,0,,10,,,57,127
13473,note_on,0,0,0,,3,,,75,127
13578,note_on,105,0,0,,5,,,65,127
13678,note_off,100,0,0,,5,,,65,127
13681,note_off,3,0,0,,3,,,75,127
13681,note_off,0,0,0,,10,,,57,127
13682,note_on,1,0,0,,11,,,58,127
13682,note_on,0,0,0,,2,,,74,127
13787,note_on,105,0,0,,5,,,65,127
13887,note_off,100,0,0,,5,,,65,127
13890,note_off,3,0,0,,2,,,74,127
13890,note_off,0,0,0,,11,,,58,127
13891,note_on,1,0,0,,10,,,57,127
13891,note_on,0,0,0,,0,,,72,127
13996,note_on,105,0,0,,5,,,53,127
14100,note_off,104,0,0,,5,,,53,127
14101,note_on,1,0,0,,7,,,55,127
14205,note_off,104,0,0,,7,,,55,127
14206,note_on,1,0,0,,5,,,53,127
14310,note_off,104,0,0,,5,,,53,127
14310,note_off,0,0,0,,10,,,57,127
14311,note_on,1,0,0,,10,,,57,127
14416,note_on,105,0,0,,5,,,53,127
14520,note_off,104,0,0,,5,,,53,127
14520,note_off,0,0,0,,10,,,57,127
14520,note_off,0,0,0,,0,,,72,127
14521,note_on,1,0,0,,11,,,58,127
14521,note_on,0,0,0,,2,,,74,127
14626,note_on,105,0,0,,5,,,53,127
14730,note_off,104,0,0,,5,,,53,127
14730,note_off,0,0,0,,2,,,74,127
14731,note_on,1,0,0,,7,,,55,127
14731,note_on,0,0,0,,3,,,75,127
14835,note_off,104,0,0,,7,,,55,127
14836,note_on,1,0,0,,5,,,53,127
14940,note_off,104,0,0,,5,,,53,127
14940,note_off,0,0,0,,3,,,75,127
14940,note_off,0,0,0,,11,,,58,127
14941,note_on,1,0,0,,11,,,58,127
14941,note_on,0,0,0,,2,,,74,127
15046,note_on,105,0,0,,5,,,53,127
15150,note_off,104,0,0,,5,,,53,127
15150,note_off,0,0,0,,2,,,74,127
15150,note_off,0,0,0,,11,,,58,127
15151,note_on,1,0,0,,0,,,60,127
15151,note_on,0,0,0,,0,,,72,127
15256,note_on,105,0,0,,5,,,53,127
15360,note_off,104,0,0,,5,,,53,127
15360,note_off,0,0,0,,0,,,72,127
15361,note_on,1,0,0,,7,,,55,127
15361,note_on,0,0,0,,11,,,70,127
15465,note_off,104,0,0,,7,,,55,127
15466,note_on,1,0,0,,5,,,53,127
15570,note_off,104,0,0,,5,,,53,127
15570,note_off,0,0,0,,11,,,70,127
15570,note_off,0,0,0,,0,,,60,127
15571,note_on,1,0,0,,0,,,60,127
15571,note_on,0,0,0,,10,,,69,127
15676,note_on,105,0,0,,5,,,53,127
15780,note_off,104,0,0,,5,,,53,127
15780,note_off,0,0,0,,10,,,69,127
15780,note_off,0,0,0,,0,,,60,127
15781,note_on,1,0,0,,2,,,62,127
15781,note_on,0,0,0,,11,,,70,127
15886,note_on,105,0,0,,5,,,53,127
15990,note_off,104,0,0,,5,,,53,127
15990,note_off,0,0,0,,11,,,70,127
15990,note_off,0,0,0,,2,,,62,127
15991,note_on,1,0,0,,3,,,63,127
15991,note_on,0,0,0,,10,,,69,127
16096,note_on,105,0,0,,5,,,53,127
16200,note_off,104,0,0,,5,,,53,127
16200,note_off,0,0,0,,10,,,69,127
16200,note_off,0,0,0,,3,,,63,127
16201,note_on,1,0,0,,2,,,62,127
16201,note_on,0,0,0,,11,,,70,127
16306,note_on,105,0,0,,5,,,53,127
16410,note_off,104,0,0,,5,,,53,127
16410,note_off,0,0,0,,11,,,70,127
16410,note_off,0,0,0,,2,,,62,127
16411,note_on,1,0,0,,0,,,60,127
16411,note_on,0,0,0,,0,,,72,127
16516,note_on,105,0,0,,5,,,53,127
16620,note_off,104,0,0,,5,,,53,127
16620,note_off,0,0,0,,0,,,72,127
16620,note_off,0,0,0,,0,,,60,127
16621,note_on,1,0,0,,11,,,58,127
16621,note_on,0,0,0,,2,,,74,127
16726,note_on,105,0,0,,5,,,53,127
16830,note_off,104,0,0,,5,,,53,127
16830,note_off,0,0,0,,2,,,74,127
16830,note_off,0,0,0,,11,,,58,127
16831,note_on,1,0,0,,10,,,57,127
16831,note_on,0,0,0,,3,,,75,127
16936,note_on,105,0,0,,5,,,53,127
17040,note_off,104,0,0,,5,,,53,127
17040,note_off,0,0,0,,3,,,75,127
17040,note_off,0,0,0,,10,,,57,127
17041,note_on,1,0,0,,11,,,58,127
17041,note_on,0,0,0,,2,,,74,127
17141,note_off,100,0,0,,2,,,74,127
17145,note_on,4,0,0,,5,,,77,127
17245,note_off,100,0,0,,5,,,77,127
17248,note_off,3,0,0,,11,,,58,127
17249,note_on,1,0,0,,7,,,55,127
17249,note_on,0,0,0,,3,,,75,127
17349,note_off,100,0,0,,3,,,75,127
17353,note_on,4,0,0,,2,,,74,127
17453,note_off,100,0,0,,2,,,74,127
17456,note_off,3,0,0,,7,,,55,127
17457,note_on,1,0,0,,3,,,51,127
17457,note_on,0,0,0,,0,,,72,127
17557,note_off,100,0,0,,0,,,72,127
17561,note_on,4,0,0,,11,,,70,127
17661,note_off,100,0,0,,11,,,70,127
17664,note_off,3,0,0,,3,,,51,127
17665,note_on,1,0,0,,5,,,53,127
17665,note_on,0,0,0,,10,,,69,127
17765,note_off,100,0,0,,10,,,69,127
17769,note_on,4,0,0,,7,,,67,127
17869,note_off,100,0,0,,7,,,67,127
17872,note_off,3,0,0,,5,,,53,127
17873,note_on,1,0,0,,7,,,55,127
17873,note_on,0,0,0,,5,,,65,127
17973,note_off,100,0,0,,5,,,65,127
17977,note_on,4,0,0,,3,,,63,127
18077,note_off,100,0,0,,3,,,63,127
18080,note_off,3,0,0,,7,,,55,127
18081,note_on,1,0,0,,10,,,57,127
18081,note_on,0,0,0,,2,,,62,127
18181,note_off,100,0,0,,2,,,62,127
18185,note_on,4,0,0,,0,,,60,127
18285,note_off,100,0,0,,0,,,60,127
18288,note_off,3,0,0,,10,,,57,127
18289,note_on,1,0,0,,11,,,58,127
18289,note_on,0,0,0,,2,,,62,127
18389,note_off,100,0,0,,2,,,62,127
18393,note_on,4,0,0,,5,,,65,127
18493,note_off,100,0,0,,5,,,65,127
18496,note_off,3,0,0,,11,,,58,127
18497,note_on,1,0,0,,7,,,55,127
18497,note_on,0,0,0,,3,,,63,127
18597,note_off,100,0,0,,3,,,63,127
18601,note_on,4,0,0,,2,,,62,127
18701,note_off,100,0,0,,2,,,62,127
18704,note_off,3,0,0,,7,,,55,127
18705,note_on,1,0,0,,3,,,51,127
18705,note_on,0,0,0,,0,,,60,127
18805,note_off,100,0,0,,0,,,60,127
18809,note_on,4,0,0,,11,,,58,127
18909,note_off,100,0,0,,11,,,58,127
18912,note_off,3,0,0,,3,,,51,127
18913,note_on,1,0,0,,5,,,53,127
18913,note_on,0,0,0,,7,,,67,127
18975,note_on,62,0,0,,5,,,65,127
18982,note_off,7,0,0,,7,,,67,127
19039,note_on,57,0,0,,7,,,67,127
19044,note_off,5,0,0,,5,,,65,127
19101,note_on,57,0,0,,5,,,65,127
19108,note_off,7,0,0,,7,,,67,127
19165,note_on,57,0,0,,7,,,67,127
19170,note_off,5,0,0,,5,,,65,127
19228,note_on,58,0,0,,5,,,65,127
19233,note_off,5,0,0,,7,,,67,127
19290,note_on,57,0,0,,7,,,67,127
19297,note_off,7,0,0,,5,,,65,127
19354,note_on,57,0,0,,5,,,65,127
19359,note_off,5,0,0,,7,,,67,127
19416,note_on,57,0,0,,7,,,67,127
19423,note_off,7,0,0,,5,,,65,127
19480,note_on,57,0,0,,5,,,65,127
19485,note_off,5,0,0,,7,,,67,127
19543,note_on,58,0,0,,7,,,79,127
19548,note_off,5,0,0,,5,,,65,127
19605,note_on,57,0,0,,5,,,77,127
19612,note_off,7,0,0,,7,,,79,127
19647,note_off,35,0,0,,5,,,53,127
19648,note_on,1,0,0,,10,,,69,127
19669,note_on,21,0,0,,7,,,79,127
19674,note_off,5,0,0,,5,,,77,127
19731,note_on,57,0,0,,5,,,77,127
19738,note_off,7,0,0,,7,,,79,127
19752,note_off,14,0,0,,10,,,69,127
19753,note_on,1,0,0,,7,,,67,127
19794,note_on,41,0,0,,7,,,79,127
19799,note_off,5,0,0,,5,,,77,127
19856,note_off,57,0,0,,7,,,67,127
19857,note_on,1,0,0,,5,,,65,127
19857,note_on,0,0,0,,5,,,77,127
19862,note_off,5,0,0,,7,,,79,127
19919,note_on,57,0,0,,7,,,79,127
19926,note_off,7,0,0,,5,,,77,127
19961,note_off,35,0,0,,5,,,65,127
19962,note_on,1,0,0,,7,,,67,127
19983,note_on,21,0,0,,5,,,77,127
19988,note_off,5,0,0,,7,,,79,127
20045,note_on,57,0,0,,7,,,79,127
20052,note_off,7,0,0,,5,,,77,127
20066,note_off,14,0,0,,7,,,67,127
20067,note_on,1,0,0,,10,,,69,127
20108,note_on,41,0,0,,5,,,77,127
20113,note_off,5,0,0,,7,,,79,127
20170,note_off,57,0,0,,10,,,69,127
20171,note_on,1,0,0,,11,,,70,127
20171,note_on,0,0,0,,7,,,79,127
20176,note_off,5,0,0,,5,,,77,127
20233,note_on,57,0,0,,5,,,77,127
20240,note_off,7,0,0,,7,,,79,127
20275,note_off,35,0,0,,11,,,70,127
20276,note_on,1,0,0,,2,,,74,127
20297,note_on,21,0,0,,7,,,79,127
20302,note_off,5,0,0,,5,,,77,127
20359,note_on,57,0,0,,5,,,77,127
20366,note_off,7,0,0,,7,,,79,127
20380,note_off,14,0,0,,2,,,74,127
20381,note_on,1,0,0,,11,,,70,127
20422,note_on,41,0,0,,7,,,79,127
20427,note_off,5,0,0,,5,,,77,127
20484,note_off,57,0,0,,11,,,70,127
20485,note_on,1,0,0,,5,,,65,127
20485,note_on,0,0,0,,5,,,77,127
20490,note_off,5,0,0,,7,,,79,127
20547,note_on,57,0,0,,7,,,79,127
20554,note_off,7,0,0,,5,,,77,127
20589,note_off,35,0,0,,5,,,65,127
20590,note_on,1,0,0,,2,,,62,127
20611,note_on,21,0,0,,5,,,77,127
20616,note_off,5,0,0,,7,,,79,127
20673,note_on,57,0,0,,7,,,79,127
20680,note_off,7,0,0,,5,,,77,127
20694,note_off,14,0,0,,2,,,62,127
20695,note_on,1,0,0,,11,,,58,127
20736,note_on,41,0,0,,5,,,77,127
20741,note_off,5,0,0,,7,,,79,127
20798,note_off,57,0,0,,11,,,58,127
20799,note_on,1,0,0,,5,,,53,127
20799,note_on,0,0,0,,7,,,79,127
20804,note_off,5,0,0,,5,,,77,127
20861,note_on,57,0,0,,5,,,77,127
20868,note_off,7,0,0,,7,,,79,127
20903,note_off,35,0,0,,5,,,53,127
20904,note_on,1,0,0,,10,,,69,127
20925,note_on,21,0,0,,7,,,79,127
20930,note_off,5,0,0,,5,,,77,127
20987,note_on,57,0,0,,5,,,77,127
20994,note_off,7,0,0,,7,,,79,127
21008,note_off,14,0,0,,10,,,69,127
21009,note_on,1,0,0,,7,,,67,127
21050,note_on,41,0,0,,7,,,79,127
21055,note_off,5,0,0,,5,,,77,127
21112,note_off,57,0,0,,7,,,67,127
21113,note_on,1,0,0,,5,,,65,127
21113,note_on,0,0,0,,5,,,77,127
21118,note_off,5,0,0,,7,,,79,127
21175,note_on,57,0,0,,7,,,79,127
21182,note_off,7,0,0,,5,,,77,127
21217,note_off,35,0,0,,5,,,65,127
21218,note_on,1,0,0,,7,,,67,127
21239,note_on,21,0,0,,5,,,77,127
21244,note_off,5,0,0,,7,,,79,127
21301,note_on,57,0,0,,7,,,79,127
21308,note_off,7,0,0,,5,,,77,127
21322,note_off,14,0,0,,7,,,67,127
21323,note_on,1,0,0,,10,,,69,127
21364,note_on,41,0,0,,5,,,77,127
21369,note_off,5,0,0,,7,,,79,127
21426,note_off,57,0,0,,10,,,69,127
21427,note_on,1,0,0,,11,,,70,127
21427,note_on,0,0,0,,7,,,79,127
21432,note_off,5,0,0,,5,,,77,127
21489,note_on,57,0,0,,5,,,77,127
21496,note_off,7,0,0,,7,,,79,127
21531,note_off,35,0,0,,11,,,70,127
21532,note_on,1,0,0,,2,,,74,127
21553,note_on,21,0,0,,7,,,79,127
21558,note_off,5,0,0,,5,,,77,127
21615,note_on,57,0,0,,5,,,77,127
21622,note_off,7,0,0,,7,,,79,127
21636,note_off,14,0,0,,2,,,74,127
21637,note_on,1,0,0,,11,,,70,127
21678,note_on,41,0,0,,7,,,79,127
21683,note_off,5,0,0,,5,,,77,127
21740,note_off,57,0,0,,11,,,70,127
21741,note_on,1,0,0,,5,,,65,127
21741,note_on,0,0,0,,5,,,77,127
21746,note_off,5,0,0,,7,,,79,127
21803,note_on,57,0,0,,7,,,79,127
21810,note_off,7,0,0,,5,,,77,127
21845,note_off,35,0,0,,5,,,65,127
21846,note_on,1,0,0,,2,,,62,127
21867,note_on,21,0,0,,5,,,77,127
21872,note_off,5,0,0,,7,,,79,127
21929,note_on,57,0,0,,7,,,79,127
21936,note_off,7,0,0,,5,,,77,127
21950,note_off,14,0,0,,2,,,62,127
21951,note_on,1,0,0,,11,,,58,127
21992,note_on,41,0,0,,5,,,77,127
21997,note_off,5,0,0,,7,,,79,127
22054,note_off,57,0,0,,11,,,58,127
22055,note_on,1,0,0,,5,,,53,127
22055,note_on,0,0,0,,7,,,79,127
22060,note_off,5,0,0,,5,,,77,127
22117,note_on,57,0,0,,5,,,77,127
22124,note_off,7,0,0,,7,,,79,127
22159,note_off,35,0,0,,5,,,53,127
22160,note_on,1,0,0,,10,,,69,127
22181,note_on,21,0,0,,7,,,79,127
22186,note_off,5,0,0,,5,,,77,127
22243,note_on,57,0,0,,5,,,77,127
22250,note_off,7,0,0,,7,,,79,127
22264,note_off,14,0,0,,10,,,69,127
22265,note_on,1,0,0,,7,,,67,127
22306,note_on,41,0,0,,7,,,79,127
22311,note_off,5,0,0,,5,,,77,127
22368,note_off,57,0,0,,7,,,67,127
22369,note_on,1,0,0,,5,,,65,127
22369,note_on,0,0,0,,5,,,77,127
22374,note_off,5,0,0,,7,,,79,127
22431,note_on,57,0,0,,7,,,79,127
22438,note_off,7,0,0,,5,,,77,127
22473,note_off,35,0,0,,5,,,65,127
22474,note_on,1,0,0,,7,,,67,127
22495,note_on,21,0,0,,5,,,77,127
22500,note_off,5,0,0,,7,,,79,127
22557,note_on,57,0,0,,7,,,79,127
22564,note_off,7,0,0,,5,,,77,127
22578,note_off,14,0,0,,7,,,67,127
22579,note_on,1,0,0,,10,,,69,127
22620,note_on,41,0,0,,5,,,77,127
22625,note_off,5,0,0,,7,,,79,127
22682,note_off,57,0,0,,10,,,69,127
22683,note_on,1,0,0,,11,,,58,127
22683,note_on,0,0,0,,2,,,74,127
22688,note_off,5,0,0,,5,,,77,127
22783,note_off,95,0,0,,2,,,74,127
22787,note_on,4,0,0,,5,,,77,127
22887,note_off,100,0,0,,5,,,77,127
22891,note_on,4,0,0,,3,,,75,127
22991,note_off,100,0,0,,3,,,75,127
22995,note_on,4,0,0,,2,,,74,127
23095,note_off,100,0,0,,2,,,74,127
23098,note_off,3,0,0,,11,,,58,127
23099,note_on,1,0,0,,2,,,50,127
23099,note_on,0,0,0,,0,,,72,127
23199,note_off,100,0,0,,0,,,72,127
23203,note_on,4,0,0,,11,,,70,127
23303,note_off,100,0,0,,11,,,70,127
23306,note_off,3,0,0,,2,,,50,127
23307,note_on,1,0,0,,3,,,51,127
23307,note_on,0,0,0,,0,,,72,127
23407,note_off,100,0,0,,0,,,72,127
23411,note_on,4,0,0,,3,,,75,127
23511,note_off,100,0,0,,3,,,75,127
23514,note_off,3,0,0,,3,,,51,127
23515,note_on,1,0,0,,5,,,53,127
23515,note_on,0,0,0,,2,,,74,127
23615,note_off,100,0,0,,2,,,74,127
23619,note_on,4,0,0,,0,,,72,127
23719,note_off,100,0,0,,0,,,72,127
23723,note_on,4,0,0,,5,,,41,127
23723,note_on,0,0,0,,11,,,70,127
23823,note_off,100,0,0,,11,,,70,127
23827,note_on,4,0,0,,10,,,69,127
23927,note_off,100,0,0,,10,,,69,127
23927,note_off,0,0,0,,5,,,53,127
23930,note_off,3,0,0,,5,,,41,127
23931,note_on,1,0,0,,11,,,46,127
23931,note_on,0,0,0,,11,,,70,127
24031,note_off,100,0,0,,11,,,70,127
24035,note_on,4,0,0,,0,,,72,127
24135,note_off,100,0,0,,0,,,72,127
24139,note_on,4,0,0,,2,,,74,127
24239,note_off,100,0,0,,2,,,74,127
24243,note_on,4,0,0,,3,,,75,127
24343,note_off,100,0,0,,3,,,75,127
24347,note_on,4,0,0,,5,,,77,127
24447,note_off,100,0,0,,5,,,77,127
24451,note_on,4,0,0,,7,,,79,127
24551,note_off,100,0,0,,7,,,79,127
24555,note_on,4,0,0,,5,,,65,127
24555,note_on,0,0,0,,3,,,75,127
24555,note_on,0,0,0,,5,,,77,127
24659,note_off,104,0,0,,11,,,46,127
24660,note_on,1,0,0,,10,,,57,127
24764,note_off,104,0,0,,10,,,57,127
24765,note_on,1,0,0,,7,,,55,127
24869,note_off,104,0,0,,7,,,55,127
24870,note_on,1,0,0,,5,,,53,127
24974,note_off,104,0,0,,5,,,53,127
24975,note_on,1,0,0,,7,,,55,127
25079,note_off,104,0,0,,7,,,55,127
25080,note_on,1,0,0,,10,,,57,127
25184,note_off,104,0,0,,10,,,57,127
25184,note_off,0,0,0,,5,,,77,127
25184,note_off,0,0,0,,3,,,75,127
25184,note_off,0,0,0,,5,,,65,127
25185,note_on,1,0,0,,11,,,58,127
25185,note_on,0,0,0,,2,,,74,127
25185,note_on,0,0,0,,5,,,65,127
25289,note_off,104,0,0,,11,,,58,127
25290,note_on,1,0,0,,2,,,62,127
25394,note_off,104,0,0,,2,,,62,127
25395,note_on,1,0,0,,11,,,58,127
25499,note_off,104,0,0,,11,,,58,127
25500,note_on,1,0,0,,5,,,53,127
25604,note_off,104,0,0,,5,,,53,127
25605,note_on,1,0,0,,2,,,50,127
25709,note_off,104,0,0,,2,,,50,127
25710,note_on,1,0,0,,11,,,46,127
25814,note_off,104,0,0,,11,,,46,127
25814,note_off,0,0,0,,5,,,65,127
25814,note_off,0,0,0,,2,,,74,127
25815,note_on,1,0,0,,5,,,41,127
25815,note_on,0,0,0,,3,,,75,127
25815,note_on,0,0,0,,5,,,65,127
25815,note_on,0,0,0,,5,,,77,127
25919,note_off,104,0,0,,5,,,41,127
25920,note_on,1,0,0,,10,,,57,127
26024,note_off,104,0,0,,10,,,57,127
26025,note_on,1,0,0,,7,,,55,127
26129,note_off,104,0,0,,7,,,55,127
26130,note_on,1,0,0,,5,,,53,127
26234,note_off,104,0,0,,5,,,53,127
26235,note_on,1,0,0,,7,,,55,127
26339,note_off,104,0,0,,7,,,55,127
26340,note_on,1,0,0,,10,,,57,127
26444,note_off,104,0,0,,10,,,57,127
26444,note_off,0,0,0,,5,,,77,127
26444,note_off,0,0,0,,5,,,65,127
26444,note_off,0,0,0,,3,,,75,127
26445,note_on,1,0,0,,11,,,58,127
26445,note_on,0,0,0,,2,,,74,127
26445,note_on,0,0,0,,5,,,65,127
26549,note_off,104,0,0,,11,,,58,127
26550,note_on,1,0,0,,2,,,62,127
26654,note_off,104,0,0,,2,,,62,127
26655,note_on,1,0,0,,11,,,58,127
26759,note_off,104,0,0,,11,,,58,127
26760,note_on,1,0,0,,5,,,53,127
26864,note_off,104,0,0,,5,,,53,127
26865,note_on,1,0,0,,2,,,50,127
26969,note_off,104,0,0,,2,,,50,127
26970,note_on,1,0,0,,11,,,46,127
27074,note_off,104,0,0,,11,,,46,127
27074,note_off,0,0,0,,5,,,65,127
27074,note_off,0,0,0,,2,,,74,127
27075,note_on,1,0,0,,5,,,41,127
27075,note_on,0,0,0,,5,,,65,127
27075,note_on,0,0,0,,3,,,75,127
27075,note_on,0,0,0,,5,,,77,127
27179,note_off,104,0,0,,5,,,41,127
27180,note_on,1,0,0,,10,,,57,127
27284,note_off,104,0,0,,10,,,57,127
27285,note_on,1,0,0,,7,,,55,127
27389,note_off,104,0,0,,7,,,55,127
27390,note_on,1,0,0,,5,,,53,127
27494,note_off,104,0,0,,5,,,53,127
27495,note_on,1,0,0,,7,,,55,127
27599,note_off,104,0,0,,7,,,55,127
27600,note_on,1,0,0,,10,,,57,127
27704,note_off,104,0,0,,10,,,57,127
27704,note_off,0,0,0,,5,,,77,127
27704,note_off,0,0,0,,3,,,75,127
27704,note_off,0,0,0,,5,,,65,127
27705,note_on,1,0,0,,11,,,58,127
27705,note_on,0,0,0,,2,,,74,127
27805,note_off,100,0,0,,2,,,74,127
27809,note_on,4,0,0,,0,,,72,127
27909,note_off,100,0,0,,0,,,72,127
27913,note_on,4,0,0,,2,,,74,127
28013,note_off,100,0,0,,2,,,74,127
28017,note_on,4,0,0,,3,,,75,127
28117,note_off,100,0,0,,3,,,75,127
28120,note_off,3,0,0,,11,,,58,127
28121,note_on,1,0,0,,2,,,50,127
28121,note_on,0,0,0,,5,,,77,127
28221,note_off,100,0,0,,5,,,77,127
28225,note_on,4,0,0,,2,,,74,127
28325,note_off,100,0,0,,2,,,74,127
28328,note_off,3,0,0,,2,,,50,127
28329,note_on,1,0,0,,3,,,51,127
28329,note_on,0,0,0,,7,,,79,127
28429,note_off,100,0,0,,7,,,79,127
28433,note_on,4,0,0,,3,,,75,127
28533,note_off,100,0,0,,3,,,75,127
28536,note_off,3,0,0,,3,,,51,127
28537,note_on,1,0,0,,5,,,53,127
28537,note_on,0,0,0,,2,,,74,127
28637,note_off,100,0,0,,2,,,74,127
28641,note_on,4,0,0,,0,,,72,127
28741,note_off,100,0,0,,0,,,72,127
28745,note_on,4,0,0,,5,,,41,127
28745,note_on,0,0,0,,11,,,70,127
28845,note_off,100,0,0,,11,,,70,127
28849,note_on,4,0,0,,10,,,69,127
28949,note_off,100,0,0,,10,,,69,127
28952,note_off,3,0,0,,5,,,41,127
28952,note_off,0,0,0,,5,,,53,127
28953,note_on,1,0,0,,11,,,46,127
28953,note_on,0,0,0,,11,,,70,127
29058,note_on,105,0,0,,11,,,82,127
29158,note_off,100,0,0,,11,,,82,127
29161,note_off,3,0,0,,11,,,70,127
29162,note_on,1,0,0,,5,,,77,127
29262,note_off,100,0,0,,5,,,77,127
29266,note_off,4,0,0,,11,,,46,127
29266,note_on,0,0,0,,2,,,74,127
29366,note_off,100,0,0,,2,,,74,127
29370,note_on,4,0,0,,2,,,62,127
29370,note_on,0,0,0,,3,,,75,127
29470,note_off,100,0,0,,3,,,75,127
29474,note_on,4,0,0,,5,,,77,127
29574,note_off,100,0,0,,5,,,77,127
29577,note_off,3,0,0,,2,,,62,127
29578,note_on,1,0,0,,0,,,60,127
29578,note_on,0,0,0,,3,,,75,127
29678,note_off,100,0,0,,3,,,75,127
29682,note_on,4,0,0,,7,,,79,127
29782,note_off,100,0,0,,7,,,79,127
29786,note_on,4,0,0,,3,,,75,127
29886,note_off,100,0,0,,3,,,75,127
29890,note_on,4,0,0,,0,,,72,127
29990,note_off,100,0,0,,0,,,72,127
29993,note_off,3,0,0,,0,,,60,127
29994,note_on,1,0,0,,10,,,57,127
29994,note_on,0,0,0,,2,,,74,127
30094,note_off,100,0,0,,2,,,74,127
30098,note_on,4,0,0,,3,,,75,127
30198,note_off,100,0,0,,3,,,75,127
30201,note_off,3,0,0,,10,,,57,127
30202,note_on,1,0,0,,11,,,58,127
30202,note_on,0,0,0,,2,,,74,127
30302,note_off,100,0,0,,2,,,74,127
30306,note_on,4,0,0,,5,,,77,127
30406,note_off,100,0,0,,5,,,77,127
30410,note_on,4,0,0,,2,,,74,127
30510,note_off,100,0,0,,2,,,74,127
30514,note_on,4,0,0,,11,,,70,127
30614,note_off,100,0,0,,11,,,70,127
30617,note_off,3,0,0,,11,,,58,127
30618,note_on,1,0,0,,2,,,50,127
30618,note_on,0,0,0,,0,,,72,127
30718,note_off,100,0,0,,0,,,72,127
30722,note_on,4,0,0,,2,,,74,127
30822,note_off,100,0,0,,2,,,74,127
30825,note_off,3,0,0,,2,,,50,127
30826,note_on,1,0,0,,3,,,51,127
30826,note_on,0,0,0,,0,,,72,127
30926,note_off,100,0,0,,0,,,72,127
30930,note_on,4,0,0,,3,,,75,127
31030,note_off,100,0,0,,3,,,75,127
31033,note_off,3,0,0,,3,,,51,127
31034,note_on,1,0,0,,5,,,53,127
31034,note_on,0,0,0,,0,,,72,127
31134,note_off,100,0,0,,0,,,72,127
31138,note_on,4,0,0,,10,,,69,127
31238,note_off,100,0,0,,10,,,69,127
31242,note_on,4,0,0,,5,,,41,127
31242,note_on,0,0,0,,11,,,70,127
31342,note_off,100,0,0,,11,,,70,127
31346,note_on,4,0,0,,0,,,72,127
31446,note_off,100,0,0,,0,,,72,127
31449,note_off,3,0,0,,5,,,41,127
31449,note_off,0,0,0,,5,,,53,127
31450,note_on,1,0,0,,11,,,46,127
31450,note_on,0,0,0,,11,,,70,127
31555,note_on,105,0,0,,11,,,82,127
31655,note_off,100,0,0,,11,,,82,127
31658,note_off,3,0,0,,11,,,70,127
31659,note_on,1,0,0,,5,,,77,127
31759,note_off,100,0,0,,5,,,77,127
31763,note_on,4,0,0,,2,,,74,127
31863,note_off,100,0,0,,2,,,74,127
31866,note_off,3,0,0,,11,,,46,127
31867,note_on,1,0,0,,2,,,62,127
31867,note_on,0,0,0,,3,,,75,127
31967,note_off,100,0,0,,3,,,75,127
31971,note_on,4,0,0,,5,,,77,127
32071,note_off,100,0,0,,5,,,77,127
32074,note_off,3,0,0,,2,,,62,127
32075,note_on,1,0,0,,0,,,60,127
32075,note_on,0,0,0,,3,,,75,127
32175,note_off,100,0,0,,3,,,75,127
32179,note_on,4,0,0,,7,,,79,127
32279,note_off,100,0,0,,7,,,79,127
32283,note_on,4,0,0,,3,,,75,127
32383,note_off,100,0,0,,3,,,75,127
32387,note_on,4,0,0,,0,,,72,127
32487,note_off,100,0,0,,0,,,72,127
32490,note_off,3,0,0,,0,,,60,127
32491,note_on,1,0,0,,10,,,57,127
32491,note_on,0,0,0,,2,,,74,127
32591,note_off,100,0,0,,2,,,74,127
32595,note_on,4,0,0,,3,,,75,127
32695,note_off,100,0,0,,3,,,75,127
32698,note_off,3,0,0,,10,,,57,127
32699,note_on,1,0,0,,11,,,58,127
32699,note_on,0,0,0,,2,,,74,127
32799,note_off,100,0,0,,2,,,74,127
32803,note_on,4,0,0,,5,,,77,127
32903,note_off,100,0,0,,5,,,77,127
32907,note_on,4,0,0,,2,,,74,127
33007,note_off,100,0,0,,2,,,74,127
33011,note_on,4,0,0,,11,,,70,127
33111,note_off,100,0,0,,11,,,70,127
33114,note_off,3,0,0,,11,,,58,127
33115,note_on,1,0,0,,2,,,50,127
33115,note_on,0,0,0,,0,,,72,127
33215,note_off,100,0,0,,0,,,72,127
33219,note_on,4,0,0,,2,,,74,127
33319,note_off,100,0,0,,2,,,74,127
33322,note_off,3,0,0,,2,,,50,127
33323,note_on,1,0,0,,3,,,51,127
33323,note_on,0,0,0,,0,,,72,127
33423,note_off,100,0,0,,0,,,72,127
33427,note_on,4,0,0,,3,,,75,127
33527,note_off,100,0,0,,3,,,75,127
33530,note_off,3,0,0,,3,,,51,127
33531,note_on,1,0,0,,5,,,53,127
33531,note_on,0,0,0,,0,,,72,127
33631,note_off,100,0,0,,0,,,72,127
33635,note_on,4,0,0,,10,,,69,127
33735,note_off,100,0,0,,10,,,69,127
33739,note_on,4,0,0,,5,,,41,127
33739,note_on,0,0,0,,11,,,70,127
33839,note_off,100,0,0,,11,,,70,127
33843,note_on,4,0,0,,0,,,72,127
33947,note_off,104,0,0,,5,,,41,127
33947,note_off,0,0,0,,5,,,53,127
33948,note_on,1,0,0,,11,,,46,127
33948,note_on,0,0,0,,11,,,58,127
34010,note_on,62,0,0,,11,,,70,127
34036,note_off,26,0,0,,0,,,72,127
34073,note_on,37,0,0,,0,,,72,127
34078,note_off,5,0,0,,11,,,70,127
34135,note_on,57,0,0,,11,,,70,127
34142,note_off,7,0,0,,0,,,72,127
34199,note_on,57,0,0,,0,,,72,127
34204,note_off,5,0,0,,11,,,70,127
34262,note_on,58,0,0,,11,,,70,127
34267,note_off,5,0,0,,0,,,72,127
34324,note_on,57,0,0,,0,,,72,127
34331,note_off,7,0,0,,11,,,70,127
34388,note_on,57,0,0,,11,,,70,127
34393,note_off,5,0,0,,0,,,72,127
34450,note_on,57,0,0,,0,,,72,127
34457,note_off,7,0,0,,11,,,70,127
34514,note_on,57,0,0,,11,,,70,127
34519,note_off,5,0,0,,0,,,72,127
34576,note_off,57,0,0,,11,,,58,127
34576,note_off,0,0,0,,11,,,46,127
34577,note_on,1,0,0,,11,,,58,127
34577,note_on,0,0,0,,7,,,67,127
34586,note_off,9,0,0,,11,,,70,127
34681,note_off,95,0,0,,7,,,67,127
34682,note_on,1,0,0,,11,,,82,127
34782,note_off,100,0,0,,11,,,82,127
34786,note_on,4,0,0,,10,,,81,127
34886,note_off,100,0,0,,10,,,81,127
34890,note_on,4,0,0,,7,,,79,127
34990,note_off,100,0,0,,7,,,79,127
34994,note_on,4,0,0,,6,,,78,127
35094,note_off,100,0,0,,6,,,78,127
35098,note_on,4,0,0,,7,,,79,127
35198,note_off,100,0,0,,7,,,79,127
35201,note_off,3,0,0,,11,,,58,127
35202,note_on,1,0,0,,0,,,60,127
35202,note_on,0,0,0,,3,,,75,127
35307,note_on,105,0,0,,11,,,82,127
35359,note_off,52,0,0,,3,,,75,127
35407,note_off,48,0,0,,11,,,82,127
35411,note_on,4,0,0,,10,,,81,127
35511,note_off,100,0,0,,10,,,81,127
35515,note_on,4,0,0,,7,,,79,127
35615,note_off,100,0,0,,7,,,79,127
35619,note_on,4,0,0,,6,,,78,127
35719,note_off,100,0,0,,6,,,78,127
35723,note_on,4,0,0,,7,,,79,127
35823,note_off,100,0,0,,7,,,79,127
35826,note_off,3,0,0,,0,,,60,127
35827,note_on,1,0,0,,11,,,58,127
35827,note_on,0,0,0,,2,,,74,127
35932,note_on,105,0,0,,11,,,82,127
35984,note_off,52,0,0,,2,,,74,127
36032,note_off,48,0,0,,11,,,82,127
36036,note_on,4,0,0,,10,,,81,127
36136,note_off,100,0,0,,10,,,81,127
36140,note_on,4,0,0,,7,,,79,127
36240,note_off,100,0,0,,7,,,79,127
36244,note_on,4,0,0,,6,,,78,127
36344,note_off,100,0,0,,6,,,78,127
36348,note_on,4,0,0,,7,,,79,127
36448,note_off,100,0,0,,7,,,79,127
36451,note_off,3,0,0,,11,,,58,127
36452,note_on,1,0,0,,10,,,57,127
36452,note_on,0,0,0,,0,,,72,127
36557,note_on,105,0,0,,11,,,82,127
36609,note_off,52,0,0,,0,,,72,127
36657,note_off,48,0,0,,11,,,82,127
36661,note_on,4,0,0,,10,,,81,127
36761,note_off,100,0,0,,10,,,81,127
36765,note_on,4,0,0,,7,,,79,127
36865,note_off,100,0,0,,7,,,79,127
36869,note_on,4,0,0,,6,,,78,127
36969,note_off,100,0,0,,6,,,78,127
36973,note_on,4,0,0,,7,,,79,127
37073,note_off,100,0,0,,7,,,79,127
37076,note_off,3,0,0,,10,,,57,127
37077,note_on,1,0,0,,7,,,55,127
37077,note_on,0,0,0,,11,,,70,127
37181,note_off,104,0,0,,11,,,70,127
37181,note_off,0,0,0,,7,,,55,127
37182,note_on,1,0,0,,11,,,70,127
37287,note_on,105,0,0,,10,,,69,127
37391,note_off,104,0,0,,10,,,69,127
37392,note_on,1,0,0,,7,,,67,127
37496,note_off,104,0,0,,7,,,67,127
37497,note_on,1,0,0,,6,,,66,127
37601,note_off,104,0,0,,6,,,66,127
37602,note_on,1,0,0,,7,,,67,127
37706,note_off,104,0,0,,7,,,67,127
37706,note_off,0,0,0,,11,,,70,127
37707,note_on,1,0,0,,3,,,63,127
37707,note_on,0,0,0,,10,,,81,127
37769,note_on,62,0,0,,7,,,79,127
37776,note_off,7,0,0,,10,,,81,127
37812,note_on,36,0,0,,11,,,70,127
37833,note_on,21,0,0,,10,,,81,127
37838,note_off,5,0,0,,7,,,79,127
37838,note_off,0,0,0,,3,,,63,127
37895,note_on,57,0,0,,7,,,79,127
37902,note_off,7,0,0,,10,,,81,127
37916,note_off,14,0,0,,11,,,70,127
37917,note_on,1,0,0,,10,,,69,127
37958,note_on,41,0,0,,10,,,81,127
37963,note_off,5,0,0,,7,,,79,127
38020,note_off,57,0,0,,10,,,69,127
38021,note_on,1,0,0,,7,,,67,127
38021,note_on,0,0,0,,7,,,79,127
38026,note_off,5,0,0,,10,,,81,127
38083,note_on,57,0,0,,10,,,81,127
38090,note_off,7,0,0,,7,,,79,127
38125,note_off,35,0,0,,7,,,67,127
38126,note_on,1,0,0,,6,,,66,127
38147,note_on,21,0,0,,7,,,79,127
38152,note_off,5,0,0,,10,,,81,127
38209,note_on,57,0,0,,10,,,81,127
38216,note_off,7,0,0,,7,,,79,127
38230,note_off,14,0,0,,6,,,66,127
38231,note_on,1,0,0,,7,,,67,127
38272,note_on,41,0,0,,7,,,79,127
38277,note_off,5,0,0,,10,,,81,127
38334,note_off,57,0,0,,7,,,67,127
38335,note_on,1,0,0,,2,,,62,127
38335,note_on,0,0,0,,10,,,81,127
38340,note_off,5,0,0,,7,,,79,127
38397,note_on,57,0,0,,7,,,79,127
38404,note_off,7,0,0,,10,,,81,127
38440,note_on,36,0,0,,11,,,70,127
38461,note_on,21,0,0,,10,,,81,127
38466,note_off,5,0,0,,7,,,79,127
38466,note_off,0,0,0,,2,,,62,127
38523,note_on,57,0,0,,7,,,79,127
38530,note_off,7,0,0,,10,,,81,127
38544,note_off,14,0,0,,11,,,70,127
38545,note_on,1,0,0,,10,,,69,127
38586,note_on,41,0,0,,10,,,81,127
38591,note_off,5,0,0,,7,,,79,127
38648,note_off,57,0,0,,10,,,69,127
38649,note_on,1,0,0,,7,,,67,127
38649,note_on,0,0,0,,7,,,79,127
38654,note_off,5,0,0,,10,,,81,127
38711,note_on,57,0,0,,10,,,81,127
38718,note_off,7,0,0,,7,,,79,127
38753,note_off,35,0,0,,7,,,67,127
38754,note_on,1,0,0,,6,,,66,127
38775,note_on,21,0,0,,7,,,79,127
38780,note_off,5,0,0,,10,,,81,127
38837,note_on,57,0,0,,10,,,81,127
38844,note_off,7,0,0,,7,,,79,127
38858,note_off,14,0,0,,6,,,66,127
38859,note_on,1,0,0,,7,,,67,127
38900,note_on,41,0,0,,7,,,79,127
38905,note_off,5,0,0,,10,,,81,127
38962,note_off,57,0,0,,7,,,67,127
38963,note_on,1,0,0,,0,,,60,127
38963,note_on,0,0,0,,10,,,81,127
38968,note_off,5,0,0,,7,,,79,127
39025,note_on,57,0,0,,7,,,79,127
39032,note_off,7,0,0,,10,,,81,127
39068,note_on,36,0,0,,11,,,70,127
39089,note_on,21,0,0,,10,,,81,127
39094,note_off,5,0,0,,7,,,79,127
39094,note_off,0,0,0,,0,,,60,127
39151,note_on,57,0,0,,7,,,79,127
39158,note_off,7,0,0,,10,,,81,127
39172,note_off,14,0,0,,11,,,70,127
39173,note_on,1,0,0,,10,,,69,127
39214,note_on,41,0,0,,10,,,81,127
39219,note_off,5,0,0,,7,,,79,127
39276,note_off,57,0,0,,10,,,69,127
39277,note_on,1,0,0,,7,,,67,127
39277,note_on,0,0,0,,7,,,79,127
39282,note_off,5,0,0,,10,,,81,127
39339,note_on,57,0,0,,10,,,81,127
39346,note_off,7,0,0,,7,,,79,127
39381,note_off,35,0,0,,7,,,67,127
39382,note_on,1,0,0,,6,,,66,127
39403,note_on,21,0,0,,7,,,79,127
39408,note_off,5,0,0,,10,,,81,127
39465,note_on,57,0,0,,10,,,81,127
39472,note_off,7,0,0,,7,,,79,127
39486,note_off,14,0,0,,6,,,66,127
39487,note_on,1,0,0,,7,,,67,127
39528,note_on,41,0,0,,7,,,79,127
39533,note_off,5,0,0,,10,,,81,127
39579,note_off,46,0,0,,7,,,79,127
39590,note_off,11,0,0,,7,,,67,127
39591,note_on,1,0,0,,7,,,55,127
39591,note_on,0,0,0,,11,,,82,127
39691,note_off,100,0,0,,11,,,82,127
39695,note_on,4,0,0,,10,,,81,127
39795,note_off,100,0,0,,10,,,81,127
39799,note_on,4,0,0,,7,,,79,127
39899,note_off,100,0,0,,7,,,79,127
39903,note_on,4,0,0,,5,,,77,127
40003,note_off,100,0,0,,5,,,77,127
40007,note_on,4,0,0,,4,,,76,127
40107,note_off,100,0,0,,4,,,76,127
40111,note_on,4,0,0,,2,,,74,127
40211,note_off,100,0,0,,2,,,74,127
40214,note_off,3,0,0,,7,,,55,127
40215,note_on,1,0,0,,10,,,57,127
40215,note_on,0,0,0,,1,,,73,127
40315,note_off,100,0,0,,1,,,73,127
40319,note_on,4,0,0,,12,,,71,127
40419,note_off,100,0,0,,12,,,71,127
40423,note_on,4,0,0,,10,,,69,127
40523,note_off,100,0,0,,10,,,69,127
40527,note_on,4,0,0,,7,,,67,127
40627,note_off,100,0,0,,7,,,67,127
40631,note_on,4,0,0,,5,,,65,127
40731,note_off,100,0,0,,5,,,65,127
40735,note_on,4,0,0,,4,,,64,127
40835,note_off,100,0,0,,4,,,64,127
40838,note_off,3,0,0,,10,,,57,127
40839,note_on,1,0,0,,2,,,50,127
40839,note_on,0,0,0,,10,,,81,127
40939,note_off,100,0,0,,10,,,81,127
40943,note_on,4,0,0,,7,,,79,127
41043,note_off,100,0,0,,7,,,79,127
41047,note_on,4,0,0,,5,,,77,127
41147,note_off,100,0,0,,5,,,77,127
41151,note_on,4,0,0,,3,,,75,127
41251,note_off,100,0,0,,3,,,75,127
41255,note_on,4,0,0,,2,,,74,127
41355,note_off,100,0,0,,2,,,74,127
41359,note_on,4,0,0,,0,,,72,127
41459,note_off,100,0,0,,0,,,72,127
41462,note_off,3,0,0,,2,,,50,127
41463,note_on,1,0,0,,7,,,55,127
41463,note_on,0,0,0,,12,,,71,127
41563,note_off,100,0,0,,12,,,71,127
41567,note_on,4,0,0,,8,,,68,127
41667,note_off,100,0,0,,8,,,68,127
41671,note_on,4,0,0,,7,,,67,127
41771,note_off,100,0,0,,7,,,67,127
41775,note_on,4,0,0,,5,,,65,127
41875,note_off,100,0,0,,5,,,65,127
41879,note_on,4,0,0,,3,,,63,127
41979,note_off,100,0,0,,3,,,63,127
41983,note_on,4,0,0,,2,,,62,127
42083,note_off,100,0,0,,2,,,62,127
42086,note_off,3,0,0,,7,,,55,127
42087,note_on,1,0,0,,0,,,48,127
42087,note_on,0,0,0,,7,,,79,127
42187,note_off,100,0,0,,7,,,79,127
42191,note_on,4,0,0,,5,,,77,127
42291,note_off,100,0,0,,5,,,77,127
42295,note_on,4,0,0,,3,,,75,127
42395,note_off,100,0,0,,3,,,75,127
42399,note_on,4,0,0,,2,,,74,127
42499,note_off,100,0,0,,2,,,74,127
42503,note_on,4,0,0,,0,,,72,127
42603,note_off,100,0,0,,0,,,72,127
42607,note_on,4,0,0,,11,,,82,127
42707,note_off,100,0,0,,11,,,82,127
42710,note_off,3,0,0,,0,,,48,127
42711,note_on,1,0,0,,5,,,53,127
42711,note_on,0,0,0,,8,,,80,127
42811,note_off,100,0,0,,8,,,80,127
42815,note_on,4,0,0,,7,,,79,127
42915,note_off,100,0,0,,7,,,79,127
42919,note_on,4,0,0,,5,,,77,127
43019,note_off,100,0,0,,5,,,77,127
43023,note_on,4,0,0,,3,,,75,127
43123,note_off,100,0,0,,3,,,75,127
43127,note_on,4,0,0,,2,,,74,127
43227,note_off,100,0,0,,2,,,74,127
43231,note_on,4,0,0,,0,,,72,127
43331,note_off,100,0,0,,0,,,72,127
43334,note_off,3,0,0,,5,,,53,127
43335,note_on,1,0,0,,7,,,55,127
43335,note_on,0,0,0,,0,,,72,127
43397,note_on,62,0,0,,12,,,71,127
43404,note_off,7,0,0,,0,,,72,127
43439,note_off,35,0,0,,7,,,55,127
43440,note_on,1,0,0,,7,,,67,127
43461,note_on,21,0,0,,0,,,72,127
43466,note_off,5,0,0,,12,,,71,127
43523,note_on,57,0,0,,12,,,71,127
43530,note_off,7,0,0,,0,,,72,127
43544,note_off,14,0,0,,7,,,67,127
43545,note_on,1,0,0,,5,,,65,127
43586,note_on,41,0,0,,0,,,72,127
43591,note_off,5,0,0,,12,,,71,127
43648,note_off,57,0,0,,5,,,65,127
43649,note_on,1,0,0,,3,,,63,127
43649,note_on,0,0,0,,12,,,71,127
43654,note_off,5,0,0,,0,,,72,127
43711,note_on,57,0,0,,0,,,72,127
43718,note_off,7,0,0,,12,,,71,127
43753,note_off,35,0,0,,3,,,63,127
43754,note_on,1,0,0,,2,,,62,127
43775,note_on,21,0,0,,12,,,71,127
43780,note_off,5,0,0,,0,,,72,127
43837,note_on,57,0,0,,0,,,72,127
43844,note_off,7,0,0,,12,,,71,127
43858,note_off,14,0,0,,2,,,62,127
43859,note_on,1,0,0,,3,,,63,127
43900,note_on,41,0,0,,12,,,71,127
43905,note_off,5,0,0,,0,,,72,127
43961,note_off,56,0,0,,12,,,71,127
43962,note_off,1,0,0,,3,,,63,127
43963,note_on,1,0,0,,0,,,60,127
43963,note_on,0,0,0,,5,,,77,127
44025,note_on,62,0,0,,3,,,75,127
44032,note_off,7,0,0,,5,,,77,127
44067,note_off,35,0,0,,0,,,60,127
44068,note_on,1,0,0,,7,,,67,127
44089,note_on,21,0,0,,5,,,77,127
44094,note_off,5,0,0,,3,,,75,127
44151,note_on,57,0,0,,3,,,75,127
44158,note_off,7,0,0,,5,,,77,127
44172,note_off,14,0,0,,7,,,67,127
44173,note_on,1,0,0,,5,,,65,127
44214,note_on,41,0,0,,5,,,77,127
44219,note_off,5,0,0,,3,,,75,127
44276,note_off,57,0,0,,5,,,65,127
44277,note_on,1,0,0,,3,,,63,127
44277,note_on,0,0,0,,3,,,75,127
44282,note_off,5,0,0,,5,,,77,127
44339,note_on,57,0,0,,5,,,77,127
44346,note_off,7,0,0,,3,,,75,127
44381,note_off,35,0,0,,3,,,63,127
44382,note_on,1,0,0,,2,,,62,127
44403,note_on,21,0,0,,3,,,75,127
44408,note_off,5,0,0,,5,,,77,127
44465,note_on,57,0,0,,5,,,77,127
44472,note_off,7,0,0,,3,,,75,127
44486,note_off,14,0,0,,2,,,62,127
44487,note_on,1,0,0,,3,,,63,127
44528,note_on,41,0,0,,3,,,75,127
44533,note_off,5,0,0,,5,,,77,127
44590,note_off,57,0,0,,3,,,63,127
44591,note_on,1,0,0,,11,,,58,127
44653,note_on,62,0,0,,2,,,74,127
44666,note_off,13,0,0,,3,,,75,127
44694,note_off,28,0,0,,11,,,58,127
44695,note_on,1,0,0,,7,,,67,127
44716,note_on,21,0,0,,3,,,75,127
44721,note_off,5,0,0,,2,,,74,127
44778,note_on,57,0,0,,2,,,74,127
44785,note_off,7,0,0,,3,,,75,127
44799,note_off,14,0,0,,7,,,67,127
44800,note_on,1,0,0,,5,,,65,127
44841,note_on,41,0,0,,3,,,75,127
44846,note_off,5,0,0,,2,,,74,127
44903,note_off,57,0,0,,5,,,65,127
44904,note_on,1,0,0,,3,,,63,127
44904,note_on,0,0,0,,2,,,74,127
44909,note_off,5,0,0,,3,,,75,127
44966,note_on,57,0,0,,3,,,75,127
44973,note_off,7,0,0,,2,,,74,127
45008,note_off,35,0,0,,3,,,63,127
45009,note_on,1,0,0,,2,,,62,127
45030,note_on,21,0,0,,2,,,74,127
45035,note_off,5,0,0,,3,,,75,127
45092,note_on,57,0,0,,3,,,75,127
45099,note_off,7,0,0,,2,,,74,127
45113,note_off,14,0,0,,2,,,62,127
45114,note_on,1,0,0,,3,,,63,127
45155,note_on,41,0,0,,2,,,74,127
45160,note_off,5,0,0,,3,,,75,127
45217,note_off,57,0,0,,3,,,63,127
45218,note_on,1,0,0,,8,,,56,127
45280,note_on,62,0,0,,0,,,72,127
45293,note_off,13,0,0,,2,,,74,127
45321,note_off,28,0,0,,8,,,56,127
45322,note_on,1,0,0,,7,,,67,127
45343,note_on,21,0,0,,2,,,74,127
45348,note_off,5,0,0,,0,,,72,127
45405,note_on,57,0,0,,0,,,72,127
45412,note_off,7,0,0,,2,,,74,127
45426,note_off,14,0,0,,7,,,67,127
45427,note_on,1,0,0,,5,,,65,127
45468,note_on,41,0,0,,2,,,74,127
45473,note_off,5,0,0,,0,,,72,127
45530,note_off,57,0,0,,5,,,65,127
45531,note_on,1,0,0,,3,,,63,127
45531,note_on,0,0,0,,0,,,72,127
45536,note_off,5,0,0,,2,,,74,127
45593,note_on,57,0,0,,2,,,74,127
45600,note_off,7,0,0,,0,,,72,127
45635,note_off,35,0,0,,3,,,63,127
45636,note_on,1,0,0,,2,,,62,127
45657,note_on,21,0,0,,0,,,72,127
45662,note_off,5,0,0,,2,,,74,127
45719,note_on,57,0,0,,2,,,74,127
45726,note_off,7,0,0,,0,,,72,127
45740,note_off,14,0,0,,2,,,62,127
45741,note_on,1,0,0,,3,,,63,127
45782,note_on,41,0,0,,0,,,72,127
45787,note_off,5,0,0,,2,,,74,127
45844,note_off,57,0,0,,3,,,63,127
45845,note_on,1,0,0,,7,,,55,127
45845,note_on,0,0,0,,2,,,74,127
45850,note_off,5,0,0,,0,,,72,127
45945,note_off,95,0,0,,2,,,74,127
45949,note_on,4,0,0,,7,,,67,127
46049,note_off,100,0,0,,7,,,67,127
46053,note_on,4,0,0,,7,,,79,127
46153,note_off,100,0,0,,7,,,79,127
46157,note_on,4,0,0,,5,,,77,127
46257,note_off,100,0,0,,5,,,77,127
46261,note_on,4,0,0,,3,,,75,127
46361,note_off,100,0,0,,3,,,75,127
46365,note_on,4,0,0,,2,,,74,127
46465,note_off,100,0,0,,2,,,74,127
46468,note_off,3,0,0,,7,,,55,127
46469,note_on,1,0,0,,0,,,60,127
46469,note_on,0,0,0,,3,,,75,127
46569,note_off,100,0,0,,3,,,75,127
46573,note_on,4,0,0,,0,,,72,127
46673,note_off,100,0,0,,0,,,72,127
46677,note_on,4,0,0,,0,,,84,127
46777,note_off,100,0,0,,0,,,84,127
46781,note_on,4,0,0,,11,,,82,127
46881,note_off,100,0,0,,11,,,82,127
46885,note_on,4,0,0,,8,,,80,127
46985,note_off,100,0,0,,8,,,80,127
46989,note_on,4,0,0,,7,,,79,127
47089,note_off,100,0,0,,7,,,79,127
47092,note_off,3,0,0,,0,,,60,127
47093,note_on,1,0,0,,5,,,53,127
47093,note_on,0,0,0,,8,,,80,127
47193,note_off,100,0,0,,8,,,80,127
47197,note_on,4,0,0,,7,,,79,127
47297,note_off,100,0,0,,7,,,79,127
47301,note_on,4,0,0,,5,,,77,127
47401,note_off,100,0,0,,5,,,77,127
47405,note_on,4,0,0,,3,,,75,127
47505,note_off,100,0,0,,3,,,75,127
47509,note_on,4,0,0,,2,,,74,127
47609,note_off,100,0,0,,2,,,74,127
47613,note_on,4,0,0,,0,,,72,127
47713,note_off,100,0,0,,0,,,72,127
47716,note_off,3,0,0,,5,,,53,127
47717,note_on,1,0,0,,11,,,58,127
47717,note_on,0,0,0,,2,,,74,127
47817,note_off,100,0,0,,2,,,74,127
47821,note_on,4,0,0,,0,,,72,127
47921,note_off,100,0,0,,0,,,72,127
47925,note_on,4,0,0,,11,,,70,127
48025,note_off,100,0,0,,11,,,70,127
48029,note_on,4,0,0,,8,,,68,127
48129,note_off,100,0,0,,8,,,68,127
48133,note_on,4,0,0,,7,,,67,127
48233,note_off,100,0,0,,7,,,67,127
48237,note_on,4,0,0,,5,,,65,127
48337,note_off,100,0,0,,5,,,65,127
48340,note_off,3,0,0,,11,,,58,127
48341,note_on,1,0,0,,3,,,51,127
48341,note_on,0,0,0,,11,,,70,127
48341,note_on,0,0,0,,7,,,67,127
48445,note_off,104,0,0,,3,,,51,127
48446,note_on,1,0,0,,7,,,55,127
48550,note_off,104,0,0,,7,,,55,127
48551,note_on,1,0,0,,5,,,53,127
48655,note_off,104,0,0,,5,,,53,127
48656,note_on,1,0,0,,3,,,51,127
48760,note_off,104,0,0,,3,,,51,127
48761,note_on,1,0,0,,5,,,53,127
48865,note_off,104,0,0,,5,,,53,127
48866,note_on,1,0,0,,7,,,55,127
48970,note_off,104,0,0,,7,,,55,127
48970,note_off,0,0,0,,7,,,67,127
48970,note_off,0,0,0,,11,,,70,127
48971,note_on,1,0,0,,11,,,58,127
48971,note_on,0,0,0,,5,,,65,127
48971,note_on,0,0,0,,11,,,70,127
48971,note_on,0,0,0,,8,,,68,127
49075,note_off,104,0,0,,11,,,58,127
49076,note_on,1,0,0,,2,,,62,127
49180,note_off,104,0,0,,2,,,62,127
49181,note_on,1,0,0,,0,,,60,127
49285,note_off,104,0,0,,0,,,60,127
49286,note_on,1,0,0,,11,,,58,127
49390,note_off,104,0,0,,11,,,58,127
49391,note_on,1,0,0,,0,,,60,127
49495,note_off,104,0,0,,0,,,60,127
49496,note_on,1,0,0,,2,,,62,127
49600,note_off,104,0,0,,2,,,62,127
49600,note_off,0,0,0,,8,,,68,127
49600,note_off,0,0,0,,11,,,70,127
49600,note_off,0,0,0,,5,,,65,127
49601,note_on,1,0,0,,3,,,63,127
49601,note_on,0,0,0,,11,,,70,127
49601,note_on,0,0,0,,7,,,67,127
49705,note_off,104,0,0,,3,,,63,127
49706,note_on,1,0,0,,7,,,55,127
49810,note_off,104,0,0,,7,,,55,127
49811,note_on,1,0,0,,5,,,53,127
49915,note_off,104,0,0,,5,,,53,127
49916,note_on,1,0,0,,3,,,51,127
50020,note_off,104,0,0,,3,,,51,127
50021,note_on,1,0,0,,5,,,53,127
50125,note_off,104,0,0,,5,,,53,127
50126,note_on,1,0,0,,7,,,55,127
50230,note_off,104,0,0,,7,,,55,127
50230,note_off,0,0,0,,7,,,67,127
50230,note_off,0,0,0,,11,,,70,127
50231,note_on,1,0,0,,11,,,58,127
50231,note_on,0,0,0,,11,,,70,127
50231,note_on,0,0,0,,8,,,68,127
50231,note_on,0,0,0,,5,,,65,127
50335,note_off,104,0,0,,11,,,58,127
50336,note_on,1,0,0,,2,,,62,127
50440,note_off,104,0,0,,2,,,62,127
50441,note_on,1,0,0,,0,,,60,127
50545,note_off,104,0,0,,0,,,60,127
50546,note_on,1,0,0,,11,,,58,127
50650,note_off,104,0,0,,11,,,58,127
50651,note_on,1,0,0,,0,,,60,127
50755,note_off,104,0,0,,0,,,60,127
50756,note_on,1,0,0,,2,,,62,127
50860,note_off,104,0,0,,2,,,62,127
50860,note_off,0,0,0,,5,,,65,127
50860,note_off,0,0,0,,8,,,68,127
50860,note_off,0,0,0,,11,,,70,127
50861,note_on,1,0,0,,3,,,63,127
50861,note_on,0,0,0,,7,,,67,127
50961,note_off,100,0,0,,7,,,67,127
50965,note_on,4,0,0,,5,,,65,127
51065,note_off,100,0,0,,5,,,65,127
51069,note_on,4,0,0,,7,,,67,127
51169,note_off,100,0,0,,7,,,67,127
51173,note_on,4,0,0,,8,,,68,127
51273,note_off,100,0,0,,8,,,68,127
51277,note_on,4,0,0,,11,,,70,127
51377,note_off,100,0,0,,11,,,70,127
51381,note_on,4,0,0,,7,,,67,127
51481,note_off,100,0,0,,7,,,67,127
51484,note_off,3,0,0,,3,,,63,127
51485,note_on,1,0,0,,8,,,56,127
51485,note_on,0,0,0,,0,,,72,127
51585,note_off,100,0,0,,0,,,72,127
51589,note_on,4,0,0,,11,,,70,127
51689,note_off,100,0,0,,11,,,70,127
51693,note_on,4,0,0,,8,,,68,127
51793,note_off,100,0,0,,8,,,68,127
51797,note_on,4,0,0,,7,,,67,127
51897,note_off,100,0,0,,7,,,67,127
51901,note_on,4,0,0,,5,,,65,127
52001,note_off,100,0,0,,5,,,65,127
52005,note_on,4,0,0,,3,,,63,127
52105,note_off,100,0,0,,3,,,63,127
52108,note_off,3,0,0,,8,,,56,127
52109,note_on,1,0,0,,11,,,46,127
52109,note_on,0,0,0,,0,,,60,127
52171,note_on,62,0,0,,11,,,58,127
52178,note_off,7,0,0,,0,,,60,127
52235,note_on,57,0,0,,0,,,60,127
52240,note_off,5,0,0,,11,,,58,127
52297,note_on,57,0,0,,11,,,58,127
52304,note_off,7,0,0,,0,,,60,127
52361,note_on,57,0,0,,0,,,60,127
52366,note_off,5,0,0,,11,,,58,127
52424,note_on,58,0,0,,11,,,58,127
52429,note_off,5,0,0,,0,,,60,127
52486,note_on,57,0,0,,0,,,60,127
52493,note_off,7,0,0,,11,,,58,127
52550,note_on,57,0,0,,11,,,58,127
52555,note_off,5,0,0,,0,,,60,127
52612,note_on,57,0,0,,0,,,60,127
52619,note_off,7,0,0,,11,,,58,127
52676,note_on,57,0,0,,11,,,58,127
52681,note_off,5,0,0,,0,,,60,127
52727,note_off,46,0,0,,11,,,58,127
52739,note_on,12,0,0,,5,,,77,127
52739,note_on,0,0,0,,2,,,74,127
52843,note_off,104,0,0,,11,,,46,127
52844,note_on,1,0,0,,2,,,62,127
52948,note_off,104,0,0,,2,,,62,127
52949,note_on,1,0,0,,0,,,60,127
53053,note_off,104,0,0,,0,,,60,127
53054,note_on,1,0,0,,11,,,58,127
53158,note_off,104,0,0,,11,,,58,127
53159,note_on,1,0,0,,0,,,60,127
53263,note_off,104,0,0,,0,,,60,127
53264,note_on,1,0,0,,2,,,62,127
53368,note_off,104,0,0,,2,,,62,127
53368,note_off,0,0,0,,2,,,74,127
53368,note_off,0,0,0,,5,,,77,127
53369,note_on,1,0,0,,3,,,63,127
53369,note_on,0,0,0,,3,,,75,127
53369,note_on,0,0,0,,7,,,79,127
53473,note_off,104,0,0,,3,,,63,127
53474,note_on,1,0,0,,7,,,67,127
53578,note_off,104,0,0,,7,,,67,127
53579,note_on,1,0,0,,3,,,63,127
53683,note_off,104,0,0,,3,,,63,127
53684,note_on,1,0,0,,11,,,58,127
53788,note_off,104,0,0,,11,,,58,127
53789,note_on,1,0,0,,7,,,55,127
53893,note_off,104,0,0,,7,,,55,127
53894,note_on,1,0,0,,3,,,51,127
53998,note_off,104,0,0,,3,,,51,127
53998,note_off,0,0,0,,7,,,79,127
53998,note_off,0,0,0,,3,,,75,127
53999,note_on,1,0,0,,11,,,46,127
53999,note_on,0,0,0,,5,,,77,127
53999,note_on,0,0,0,,2,,,74,127
54103,note_off,104,0,0,,11,,,46,127
54104,note_on,1,0,0,,2,,,62,127
54208,note_off,104,0,0,,2,,,62,127
54209,note_on,1,0,0,,0,,,60,127
54313,note_off,104,0,0,,0,,,60,127
54314,note_on,1,0,0,,11,,,58,127
54418,note_off,104,0,0,,11,,,58,127
54419,note_on,1,0,0,,0,,,60,127
54523,note_off,104,0,0,,0,,,60,127
54524,note_on,1,0,0,,2,,,62,127
54628,note_off,104,0,0,,2,,,62,127
54628,note_off,0,0,0,,2,,,74,127
54628,note_off,0,0,0,,5,,,77,127
54629,note_on,1,0,0,,3,,,63,127
54629,note_on,0,0,0,,3,,,75,127
54629,note_on,0,0,0,,7,,,79,127
54733,note_off,104,0,0,,3,,,63,127
54734,note_on,1,0,0,,7,,,67,127
54838,note_off,104,0,0,,7,,,67,127
54839,note_on,1,0,0,,3,,,63,127
54943,note_off,104,0,0,,3,,,63,127
54944,note_on,1,0,0,,11,,,58,127
55048,note_off,104,0,0,,11,,,58,127
55049,note_on,1,0,0,,7,,,55,127
55153,note_off,104,0,0,,7,,,55,127
55154,note_on,1,0,0,,3,,,51,127
55258,note_off,104,0,0,,3,,,51,127
55258,note_off,0,0,0,,7,,,79,127
55258,note_off,0,0,0,,3,,,75,127
55259,note_on,1,0,0,,11,,,46,127
55259,note_on,0,0,0,,2,,,74,127
55259,note_on,0,0,0,,5,,,77,127
55363,note_off,104,0,0,,11,,,46,127
55364,note_on,1,0,0,,2,,,62,127
55468,note_off,104,0,0,,2,,,62,127
55469,note_on,1,0,0,,0,,,60,127
55573,note_off,104,0,0,,0,,,60,127
55574,note_on,1,0,0,,11,,,58,127
55678,note_off,104,0,0,,11,,,58,127
55679,note_on,1,0,0,,0,,,60,127
55783,note_off,104,0,0,,0,,,60,127
55784,note_on,1,0,0,,2,,,62,127
55888,note_off,104,0,0,,2,,,62,127
55888,note_off,0,0,0,,5,,,77,127
55888,note_off,0,0,0,,2,,,74,127
55889,note_on,1,0,0,,3,,,63,127
55889,note_on,0,0,0,,7,,,79,127
55989,note_off,100,0,0,,7,,,79,127
55993,note_on,4,0,0,,5,,,77,127
56093,note_off,100,0,0,,5,,,77,127
56097,note_on,4,0,0,,7,,,79,127
56197,note_off,100,0,0,,7,,,79,127
56201,note_on,4,0,0,,8,,,80,127
56301,note_off,100,0,0,,8,,,80,127
56304,note_off,3,0,0,,3,,,63,127
56305,note_on,1,0,0,,7,,,55,127
56305,note_on,0,0,0,,11,,,82,127
56405,note_off,100,0,0,,11,,,82,127
56409,note_on,4,0,0,,7,,,79,127
56509,note_off,100,0,0,,7,,,79,127
56512,note_off,3,0,0,,7,,,55,127
56513,note_on,1,0,0,,8,,,56,127
56513,note_on,0,0,0,,0,,,84,127
56613,note_off,100,0,0,,0,,,84,127
56617,note_on,4,0,0,,8,,,80,127
56717,note_off,100,0,0,,8,,,80,127
56720,note_off,3,0,0,,8,,,56,127
56721,note_on,1,0,0,,11,,,58,127
56721,note_on,0,0,0,,7,,,79,127
56821,note_off,100,0,0,,7,,,79,127
56825,note_on,4,0,0,,5,,,77,127
56925,note_off,100,0,0,,5,,,77,127
56929,note_on,4,0,0,,11,,,46,127
56929,note_on,0,0,0,,3,,,75,127
57029,note_off,100,0,0,,3,,,75,127
57033,note_on,4,0,0,,2,,,74,127
57133,note_off,100,0,0,,2,,,74,127
57133,note_off,0,0,0,,11,,,58,127
57136,note_off,3,0,0,,11,,,46,127
57137,note_on,1,0,0,,3,,,51,127
57137,note_on,0,0,0,,3,,,75,127
57237,note_off,100,0,0,,3,,,75,127
57241,note_on,4,0,0,,5,,,77,127
57341,note_off,100,0,0,,5,,,77,127
57345,note_on,4,0,0,,7,,,79,127
57445,note_off,100,0,0,,7,,,79,127
57449,note_on,4,0,0,,8,,,80,127
57549,note_off,100,0,0,,8,,,80,127
57553,note_on,4,0,0,,11,,,82,127
57653,note_off,100,0,0,,11,,,82,127
57657,note_on,4,0,0,,0,,,84,127
57757,note_off,100,0,0,,0,,,84,127
57761,note_on,4,0,0,,11,,,70,127
57761,note_on,0,0,0,,8,,,80,127
57761,note_on,0,0,0,,11,,,82,127
57865,note_off,104,0,0,,3,,,51,127
57866,note_on,1,0,0,,2,,,62,127
57970,note_off,104,0,0,,2,,,62,127
57971,note_on,1,0,0,,0,,,60,127
58075,note_off,104,0,0,,0,,,60,127
58076,note_on,1,0,0,,11,,,58,127
58180,note_off,104,0,0,,11,,,58,127
58181,note_on,1,0,0,,0,,,60,127
58285,note_off,104,0,0,,0,,,60,127
58286,note_on,1,0,0,,2,,,62,127
58390,note_off,104,0,0,,2,,,62,127
58390,note_off,0,0,0,,11,,,82,127
58390,note_off,0,0,0,,8,,,80,127
58390,note_off,0,0,0,,11,,,70,127
58391,note_on,1,0,0,,3,,,63,127
58391,note_on,0,0,0,,11,,,70,127
58391,note_on,0,0,0,,7,,,79,127
58495,note_off,104,0,0,,3,,,63,127
58496,note_on,1,0,0,,7,,,67,127
58600,note_off,104,0,0,,7,,,67,127
58601,note_on,1,0,0,,3,,,63,127
58705,note_off,104,0,0,,3,,,63,127
58706,note_on,1,0,0,,11,,,58,127
58810,note_off,104,0,0,,11,,,58,127
58811,note_on,1,0,0,,7,,,55,127
58915,note_off,104,0,0,,7,,,55,127
58916,note_on,1,0,0,,3,,,51,127
59020,note_off,104,0,0,,3,,,51,127
59020,note_off,0,0,0,,7,,,79,127
59020,note_off,0,0,0,,11,,,70,127
59021,note_on,1,0,0,,11,,,46,127
59021,note_on,0,0,0,,11,,,70,127
59021,note_on,0,0,0,,11,,,82,127
59021,note_on,0,0,0,,8,,,80,127
59125,note_off,104,0,0,,11,,,46,127
59126,note_on,1,0,0,,2,,,62,127
59230,note_off,104,0,0,,2,,,62,127
59231,note_on,1,0,0,,0,,,60,127
59335,note_off,104,0,0,,0,,,60,127
59336,note_on,1,0,0,,11,,,58,127
59440,note_off,104,0,0,,11,,,58,127
59441,note_on,1,0,0,,0,,,60,127
59545,note_off,104,0,0,,0,,,60,127
59546,note_on,1,0,0,,2,,,62,127
59650,note_off,104,0,0,,2,,,62,127
59650,note_off,0,0,0,,8,,,80,127
59650,note_off,0,0,0,,11,,,82,127
59650,note_off,0,0,0,,11,,,70,127
59651,note_on,1,0,0,,3,,,63,127
59651,note_on,0,0,0,,7,,,79,127
59651,note_on,0,0,0,,11,,,70,127
59755,note_off,104,0,0,,3,,,63,127
59756,note_on,1,0,0,,7,,,67,127
59860,note_off,104,0,0,,7,,,67,127
59861,note_on,1,0,0,,3,,,63,127
59965,note_off,104,0,0,,3,,,63,127
59966,note_on,1,0,0,,11,,,58,127
60070,note_off,104,0,0,,11,,,58,127
60071,note_on,1,0,0,,7,,,55,127
60175,note_off,104,0,0,,7,,,55,127
60176,note_on,1,0,0,,3,,,51,127
60280,note_off,104,0,0,,3,,,51,127
60280,note_off,0,0,0,,11,,,70,127
60280,note_off,0,0,0,,7,,,79,127
60281,note_on,1,0,0,,11,,,46,127
60281,note_on,0,0,0,,8,,,80,127
60281,note_on,0,0,0,,11,,,70,127
60281,note_on,0,0,0,,11,,,82,127
60385,note_off,104,0,0,,11,,,46,127
60386,note_on,1,0,0,,2,,,62,127
60490,note_off,104,0,0,,2,,,62,127
60491,note_on,1,0,0,,0,,,60,127
60595,note_off,104,0,0,,0,,,60,127
60596,note_on,1,0,0,,11,,,58,127
60700,note_off,104,0,0,,11,,,58,127
60701,note_on,1,0,0,,0,,,60,127
60805,note_off,104,0,0,,0,,,60,127
60806,note_on,1,0,0,,2,,,62,127
60910,note_off,104,0,0,,2,,,62,127
60910,note_off,0,0,0,,11,,,82,127
60910,note_off,0,0,0,,11,,,70,127
60910,note_off,0,0,0,,8,,,80,127
60911,note_on,1,0,0,,3,,,63,127
60911,note_on,0,0,0,,7,,,79,127
61011,note_off,100,0,0,,7,,,79,127
61015,note_on,4,0,0,,5,,,77,127
61115,note_off,100,0,0,,5,,,77,127
61119,note_on,4,0,0,,7,,,79,127
61219,note_off,100,0,0,,7,,,79,127
61223,note_on,4,0,0,,8,,,80,127
61323,note_off,100,0,0,,8,,,80,127
61326,note_off,3,0,0,,3,,,63,127
61327,note_on,1,0,0,,7,,,55,127
61327,note_on,0,0,0,,11,,,82,127
61427,note_off,100,0,0,,11,,,82,127
61431,note_on,4,0,0,,7,,,79,127
61531,note_off,100,0,0,,7,,,79,127
61534,note_off,3,0,0,,7,,,55,127
61535,note_on,1,0,0,,8,,,56,127
61535,note_on,0,0,0,,0,,,84,127
61635,note_off,100,0,0,,0,,,84,127
61639,note_on,4,0,0,,8,,,80,127
61739,note_off,100,0,0,,8,,,80,127
61742,note_off,3,0,0,,8,,,56,127
61743,note_on,1,0,0,,11,,,58,127
61743,note_on,0,0,0,,7,,,79,127
61843,note_off,100,0,0,,7,,,79,127
61847,note_on,4,0,0,,5,,,77,127
61947,note_off,100,0,0,,5,,,77,127
61951,note_on,4,0,0,,11,,,46,127
61951,note_on,0,0,0,,3,,,75,127
62051,note_off,100,0,0,,3,,,75,127
62055,note_on,4,0,0,,2,,,74,127
62155,note_off,100,0,0,,2,,,74,127
62155,note_off,0,0,0,,11,,,58,127
62158,note_off,3,0,0,,11,,,46,127
62159,note_on,1,0,0,,3,,,51,127
62159,note_on,0,0,0,,3,,,75,127
62259,note_off,100,0,0,,3,,,75,127
62263,note_on,4,0,0,,0,,,84,127
62363,note_off,100,0,0,,0,,,84,127
62367,note_on,4,0,0,,11,,,82,127
62467,note_off,100,0,0,,11,,,82,127
62471,note_off,4,0,0,,3,,,51,127
62471,note_on,0,0,0,,7,,,79,127
62571,note_off,100,0,0,,7,,,79,127
62575,note_on,4,0,0,,7,,,55,127
62575,note_on,0,0,0,,8,,,80,127
62675,note_off,100,0,0,,8,,,80,127
62679,note_on,4,0,0,,11,,,82,127
62779,note_off,100,0,0,,11,,,82,127
62782,note_off,3,0,0,,7,,,55,127
62783,note_on,1,0,0,,5,,,53,127
62783,note_on,0,0,0,,8,,,80,127
62883,note_off,100,0,0,,8,,,80,127
62887,note_on,4,0,0,,0,,,84,127
62987,note_off,100,0,0,,0,,,84,127
62991,note_on,4,0,0,,8,,,80,127
63091,note_off,100,0,0,,8,,,80,127
63095,note_on,4,0,0,,5,,,77,127
63195,note_off,100,0,0,,5,,,77,127
63198,note_off,3,0,0,,5,,,53,127
63199,note_on,1,0,0,,11,,,46,127
63199,note_on,0,0,0,,7,,,79,127
63299,note_off,100,0,0,,7,,,79,127
63303,note_on,4,0,0,,8,,,80,127
63403,note_off,100,0,0,,8,,,80,127
63406,note_off,3,0,0,,11,,,46,127
63407,note_on,1,0,0,,3,,,51,127
63407,note_on,0,0,0,,7,,,79,127
63507,note_off,100,0,0,,7,,,79,127
63511,note_on,4,0,0,,11,,,82,127
63611,note_off,100,0,0,,11,,,82,127
63615,note_on,4,0,0,,7,,,79,127
63715,note_off,100,0,0,,7,,,79,127
63719,note_on,4,0,0,,3,,,75,127
63819,note_off,100,0,0,,3,,,75,127
63822,note_off,3,0,0,,3,,,51,127
63823,note_on,1,0,0,,7,,,55,127
63823,note_on,0,0,0,,5,,,77,127
63923,note_off,100,0,0,,5,,,77,127
63927,note_on,4,0,0,,7,,,79,127
64027,note_off,100,0,0,,7,,,79,127
64030,note_off,3,0,0,,7,,,55,127
64031,note_on,1,0,0,,8,,,56,127
64031,note_on,0,0,0,,5,,,77,127
64131,note_off,100,0,0,,5,,,77,127
64135,note_on,4,0,0,,8,,,80,127
64235,note_off,100,0,0,,8,,,80,127
64238,note_off,3,0,0,,8,,,56,127
64239,note_on,1,0,0,,11,,,58,127
64239,note_on,0,0,0,,5,,,77,127
64339,note_off,100,0,0,,5,,,77,127
64343,note_on,4,0,0,,2,,,74,127
64443,note_off,100,0,0,,2,,,74,127
64447,note_on,4,0,0,,11,,,46,127
64447,note_on,0,0,0,,3,,,75,127
64547,note_off,100,0,0,,3,,,75,127
64551,note_on,4,0,0,,5,,,77,127
64651,note_off,100,0,0,,5,,,77,127
64651,note_off,0,0,0,,11,,,58,127
64654,note_off,3,0,0,,11,,,46,127
64655,note_on,1,0,0,,3,,,51,127
64655,note_on,0,0,0,,3,,,75,127
64755,note_off,100,0,0,,3,,,75,127
64759,note_on,4,0,0,,0,,,72,127
64859,note_off,100,0,0,,0,,,72,127
64863,note_on,4,0,0,,11,,,70,127
64963,note_off,100,0,0,,11,,,70,127
64967,note_on,4,0,0,,7,,,67,127
65067,note_off,100,0,0,,7,,,67,127
65070,note_off,3,0,0,,3,,,51,127
65071,note_on,1,0,0,,7,,,55,127
65071,note_on,0,0,0,,8,,,68,127
65171,note_off,100,0,0,,8,,,68,127
65175,note_on,4,0,0,,11,,,70,127
65275,note_off,100,0,0,,11,,,70,127
65278,note_off,3,0,0,,7,,,55,127
65279,note_on,1,0,0,,5,,,53,127
65279,note_on,0,0,0,,8,,,68,127
65379,note_off,100,0,0,,8,,,68,127
65383,note_on,4,0,0,,0,,,72,127
65483,note_off,100,0,0,,0,,,72,127
65487,note_on,4,0,0,,8,,,68,127
65587,note_off,100,0,0,,8,,,68,127
65591,note_on,4,0,0,,5,,,65,127
65691,note_off,100,0,0,,5,,,65,127
65694,note_off,3,0,0,,5,,,53,127
65695,note_on,1,0,0,,11,,,46,127
65695,note_on,0,0,0,,7,,,67,127
65795,note_off,100,0,0,,7,,,67,127
65799,note_on,4,0,0,,8,,,68,127
65899,note_off,100,0,0,,8,,,68,127
65902,note_off,3,0,0,,11,,,46,127
65903,note_on,1,0,0,,3,,,51,127
65903,note_on,0,0,0,,7,,,67,127
66003,note_off,100,0,0,,7,,,67,127
66007,note_on,4,0,0,,11,,,70,127
66107,note_off,100,0,0,,11,,,70,127
66111,note_on,4,0,0,,7,,,67,127
66211,note_off,100,0,0,,7,,,67,127
66215,note_on,4,0,0,,3,,,63,127
66315,note_off,100,0,0,,3,,,63,127
66318,note_off,3,0,0,,3,,,51,127
66319,note_on,1,0,0,,7,,,43,127
66319,note_on,0,0,0,,5,,,65,127
66419,note_off,100,0,0,,5,,,65,127
66423,note_on,4,0,0,,7,,,67,127
66523,note_off,100,0,0,,7,,,67,127
66526,note_off,3,0,0,,7,,,43,127
66528,note_on,2,0,0,,5,,,65,127
66528,note_on,0,0,0,,8,,,44,127
66632,note_off,104,0,0,,5,,,65,127
66639,note_on,7,0,0,,8,,,68,127
66743,note_off,104,0,0,,8,,,68,127
66745,note_off,2,0,0,,8,,,44,127
66749,note_on,4,0,0,,5,,,65,127
66749,note_on,0,0,0,,11,,,46,127
66853,note_off,104,0,0,,5,,,65,127
66858,note_on,5,0,0,,2,,,62,127
66962,note_off,104,0,0,,2,,,62,127
66965,note_off,3,0,0,,11,,,46,127
66968,note_on,3,0,0,,3,,,63,127
66968,note_on,0,0,0,,11,,,46,127
67072,note_off,104,0,0,,3,,,63,127
67079,note_on,7,0,0,,5,,,65,127
67183,note_off,104,0,0,,5,,,65,127
67185,note_off,2,0,0,,11,,,46,127
67200,note_on,15,0,0,,3,,,39,127
67200,note_on,0,0,0,,3,,,51,127
67200,note_on,0,0,0,,5,,,65,127
67255,note_on,55,0,0,,3,,,63,127
67271,note_off,16,0,0,,5,,,65,127
67310,note_on,39,0,0,,5,,,65,127
67325,note_off,15,0,0,,3,,,63,127
67364,note_on,39,0,0,,3,,,63,127
67380,note_off,16,0,0,,5,,,65,127
68947,note_off,1567,0,0,,3,,,63,127
68947,note_off,0,0,0,,3,,,51,127
68947,note_off,0,0,0,,3,,,39,127
73728,end_of_track,4781,1,0,,,,,,
