tick,type,time,meta,track,program,channel,pitch,tempo,note,velocity
0,copyright,0,1,0,,,,,,
0,program_change,0,0,0,6,0,,,,
0,pitchwheel,0,0,0,,0,0,,,
0,program_change,0,0,0,6,1,,,,
0,pitchwheel,0,0,0,,1,-590,,,
0,program_change,0,0,0,6,2,,,,
0,pitchwheel,0,0,0,,2,-272,,,
0,program_change,0,0,0,6,3,,,,
0,pitchwheel,0,0,0,,3,-353,,,
0,program_change,0,0,0,6,4,,,,
0,pitchwheel,0,0,0,,4,-560,,,
0,program_change,0,0,0,6,5,,,,
0,pitchwheel,0,0,0,,5,-80,,,
0,program_change,0,0,0,6,6,,,,
0,pitchwheel,0,0,0,,6,-625,,,
0,program_change,0,0,0,6,7,,,,
0,pitchwheel,0,0,0,,7,-130,,,
0,program_change,0,0,0,6,8,,,,
0,pitchwheel,0,0,0,,8,-512,,,
0,program_change,0,0,0,6,10,,,,
0,pitchwheel,0,0,0,,10,-464,,,
0,program_change,0,0,0,6,11,,,,
0,pitchwheel,0,0,0,,11,-208,,,
0,program_change,0,0,0,6,12,,,,
0,pitchwheel,0,0,0,,12,-553,,,
0,set_tempo,0,1,0,,,,500000,,
121,note_on,121,0,0,,7,,,79,127
606,note_on,485,0,0,,0,,,60,127
726,note_off,120,0,0,,7,,,79,127
727,note_on,1,0,0,,4,,,76,127
847,note_off,120,0,0,,4,,,76,127
848,note_on,1,0,0,,5,,,77,127
968,note_off,120,0,0,,5,,,77,127
969,note_on,1,0,0,,7,,,79,127
1089,note_off,120,0,0,,7,,,79,127
1089,note_off,0,0,0,,0,,,60,127
1090,note_on,1,0,0,,0,,,60,127
1090,note_on,0,0,0,,4,,,76,127
1575,note_on,485,0,0,,0,,,48,127
1695,note_off,120,0,0,,4,,,76,127
1696,note_on,1,0,0,,0,,,72,127
1816,note_off,120,0,0,,0,,,72,127
1817,note_on,1,0,0,,2,,,74,127
1937,note_off,120,0,0,,2,,,74,127
1938,note_on,1,0,0,,4,,,76,127
2058,note_off,120,0,0,,4,,,76,127
2058,note_off,0,0,0,,0,,,60,127
2059,note_off,1,0,0,,0,,,48,127
2059,note_on,0,0,0,,2,,,74,127
2300,note_off,241,0,0,,2,,,74,127
2301,note_on,1,0,0,,0,,,72,127
2544,note_on,243,0,0,,0,,,60,127
2544,note_on,0,0,0,,4,,,64,127
3028,note_off,484,0,0,,4,,,64,127
3028,note_off,0,0,0,,0,,,60,127
3029,note_off,1,0,0,,0,,,72,127
3029,note_on,0,0,0,,7,,,67,127
3029,note_on,0,0,0,,4,,,64,127
3513,note_off,484,0,0,,4,,,64,127
3513,note_off,0,0,0,,7,,,67,127
3514,note_on,1,0,0,,4,,,64,127
3514,note_on,0,0,0,,0,,,60,127
3514,note_on,0,0,0,,4,,,76,127
3998,note_off,484,0,0,,4,,,76,127
3998,note_off,0,0,0,,0,,,60,127
3998,note_off,0,0,0,,4,,,64,127
3999,note_on,1,0,0,,10,,,69,127
3999,note_on,0,0,0,,5,,,65,127
3999,note_on,0,0,0,,4,,,76,127
4240,note_off,241,0,0,,4,,,76,127
4241,note_on,1,0,0,,2,,,74,127
4482,note_off,241,0,0,,2,,,74,127
4483,note_on,1,0,0,,10,,,81,127
4724,note_off,241,0,0,,10,,,81,127
4725,note_on,1,0,0,,7,,,79,127
4966,note_off,241,0,0,,7,,,79,127
4967,note_off,1,0,0,,5,,,65,127
4967,note_off,0,0,0,,10,,,69,127
4967,note_on,0,0,0,,0,,,72,127
5087,note_off,120,0,0,,0,,,72,127
5088,note_on,1,0,0,,12,,,71,127
5208,note_off,120,0,0,,12,,,71,127
5209,note_on,1,0,0,,0,,,72,127
5329,note_off,120,0,0,,0,,,72,127
5330,note_on,1,0,0,,12,,,71,127
5450,note_off,120,0,0,,12,,,71,127
5451,note_on,1,0,0,,2,,,62,127
5451,note_on,0,0,0,,5,,,65,127
5451,note_on,0,0,0,,0,,,72,127
5571,note_off,120,0,0,,0,,,72,127
5572,note_on,1,0,0,,12,,,71,127
5692,note_off,120,0,0,,12,,,71,127
5693,note_on,1,0,0,,10,,,69,127
5813,note_off,120,0,0,,10,,,69,127
5814,note_on,1,0,0,,12,,,71,127
5934,note_off,120,0,0,,12,,,71,127
5934,note_off,0,0,0,,5,,,65,127
5934,note_off,0,0,0,,2,,,62,127
5935,note_on,1,0,0,,7,,,67,127
5935,note_on,0,0,0,,4,,,64,127
5935,note_on,0,0,0,,0,,,72,127
6419,note_off,484,0,0,,4,,,64,127
6419,note_off,0,0,0,,7,,,67,127
6420,note_on,1,0,0,,2,,,62,127
6420,note_on,0,0,0,,5,,,65,127
6904,note_off,484,0,0,,5,,,65,127
6904,note_off,0,0,0,,2,,,62,127
6905,note_off,1,0,0,,0,,,72,127
6905,note_on,0,0,0,,7,,,67,127
6905,note_on,0,0,0,,4,,,64,127
7389,note_off,484,0,0,,4,,,64,127
7389,note_off,0,0,0,,7,,,67,127
7390,note_on,1,0,0,,4,,,64,127
7390,note_on,0,0,0,,0,,,60,127
7390,note_on,0,0,0,,0,,,72,127
7874,note_off,484,0,0,,0,,,72,127
7874,note_off,0,0,0,,0,,,60,127
7874,note_off,0,0,0,,4,,,64,127
7875,note_on,1,0,0,,2,,,62,127
7875,note_on,0,0,0,,5,,,65,127
7875,note_on,0,0,0,,0,,,72,127
8116,note_off,241,0,0,,0,,,72,127
8117,note_on,1,0,0,,12,,,71,127
8358,note_off,241,0,0,,12,,,71,127
8359,note_on,1,0,0,,4,,,76,127
8600,note_off,241,0,0,,4,,,76,127
8601,note_on,1,0,0,,2,,,74,127
8842,note_off,241,0,0,,2,,,74,127
8843,note_off,1,0,0,,5,,,65,127
8843,note_off,0,0,0,,2,,,62,127
8843,note_on,0,0,0,,7,,,67,127
8963,note_off,120,0,0,,7,,,67,127
8964,note_on,1,0,0,,5,,,65,127
9084,note_off,120,0,0,,5,,,65,127
9085,note_on,1,0,0,,7,,,67,127
9205,note_off,120,0,0,,7,,,67,127
9206,note_on,1,0,0,,5,,,65,127
9326,note_off,120,0,0,,5,,,65,127
9327,note_on,1,0,0,,7,,,55,127
9327,note_on,0,0,0,,7,,,67,127
9447,note_off,120,0,0,,7,,,67,127
9448,note_on,1,0,0,,5,,,65,127
9568,note_off,120,0,0,,5,,,65,127
9569,note_on,1,0,0,,4,,,64,127
9689,note_off,120,0,0,,4,,,64,127
9690,note_on,1,0,0,,5,,,65,127
9810,note_off,120,0,0,,7,,,55,127
9811,note_on,1,0,0,,0,,,60,127
10054,note_off,243,0,0,,5,,,65,127
10054,note_on,0,0,0,,4,,,64,127
10297,note_on,243,0,0,,0,,,48,127
10661,note_off,364,0,0,,4,,,64,127
10781,note_off,120,0,0,,0,,,48,127
10781,note_off,0,0,0,,0,,,60,127
10782,note_on,1,0,0,,4,,,52,127
11266,note_off,484,0,0,,4,,,52,127
11267,note_on,1,0,0,,0,,,48,127
11267,note_on,0,0,0,,0,,,72,127
11720,note_off,453,0,0,,0,,,48,127
11750,note_off,30,0,0,,0,,,72,127
11751,note_on,1,0,0,,0,,,72,127
11872,note_off,121,0,0,,0,,,72,127
11872,note_on,0,0,0,,12,,,71,127
11992,note_off,120,0,0,,12,,,71,127
11993,note_on,1,0,0,,4,,,76,127
12113,note_off,120,0,0,,4,,,76,127
12114,note_on,1,0,0,,2,,,74,127
12234,note_off,120,0,0,,2,,,74,127
12235,note_on,1,0,0,,7,,,55,127
12235,note_on,0,0,0,,12,,,59,127
12235,note_on,0,0,0,,2,,,74,127
12719,note_off,484,0,0,,12,,,59,127
12719,note_off,0,0,0,,7,,,55,127
12720,note_on,1,0,0,,0,,,60,127
12720,note_on,0,0,0,,10,,,57,127
12963,note_off,243,0,0,,2,,,74,127
13204,note_off,241,0,0,,10,,,57,127
13204,note_off,0,0,0,,0,,,60,127
13205,note_on,1,0,0,,12,,,59,127
13205,note_on,0,0,0,,2,,,62,127
13205,note_on,0,0,0,,5,,,65,127
13689,note_off,484,0,0,,5,,,65,127
13689,note_off,0,0,0,,2,,,62,127
13689,note_off,0,0,0,,12,,,59,127
13690,note_on,1,0,0,,0,,,60,127
13690,note_on,0,0,0,,5,,,65,127
13811,note_off,121,0,0,,5,,,65,127
13811,note_on,0,0,0,,4,,,64,127
13931,note_off,120,0,0,,4,,,64,127
13932,note_on,1,0,0,,10,,,69,127
14052,note_off,120,0,0,,10,,,69,127
14053,note_on,1,0,0,,7,,,67,127
14173,note_off,120,0,0,,7,,,67,127
14174,note_on,1,0,0,,0,,,48,127
14174,note_on,0,0,0,,7,,,67,127
14658,note_off,484,0,0,,0,,,48,127
14658,note_off,0,0,0,,0,,,60,127
14659,note_on,1,0,0,,4,,,52,127
14902,note_off,243,0,0,,7,,,67,127
15143,note_off,241,0,0,,4,,,52,127
15144,note_on,1,0,0,,0,,,48,127
15144,note_on,0,0,0,,0,,,72,127
15628,note_off,484,0,0,,0,,,72,127
15629,note_off,1,0,0,,0,,,48,127
15629,note_on,0,0,0,,0,,,72,127
15749,note_off,120,0,0,,0,,,72,127
15750,note_on,1,0,0,,12,,,71,127
15870,note_off,120,0,0,,12,,,71,127
15871,note_on,1,0,0,,4,,,76,127
15991,note_off,120,0,0,,4,,,76,127
15992,note_on,1,0,0,,2,,,74,127
16112,note_off,120,0,0,,2,,,74,127
16113,note_on,1,0,0,,7,,,55,127
16113,note_on,0,0,0,,12,,,59,127
16113,note_on,0,0,0,,2,,,74,127
16597,note_off,484,0,0,,12,,,59,127
16597,note_off,0,0,0,,7,,,55,127
16598,note_on,1,0,0,,10,,,57,127
16598,note_on,0,0,0,,0,,,60,127
16841,note_off,243,0,0,,2,,,74,127
17082,note_off,241,0,0,,0,,,60,127
17082,note_off,0,0,0,,10,,,57,127
17083,note_on,1,0,0,,12,,,59,127
17083,note_on,0,0,0,,2,,,62,127
17083,note_on,0,0,0,,5,,,65,127
17567,note_off,484,0,0,,5,,,65,127
17567,note_off,0,0,0,,2,,,62,127
17567,note_off,0,0,0,,12,,,59,127
17568,note_on,1,0,0,,0,,,60,127
17568,note_on,0,0,0,,5,,,65,127
17688,note_off,120,0,0,,5,,,65,127
17689,note_on,1,0,0,,4,,,64,127
17809,note_off,120,0,0,,4,,,64,127
17810,note_on,1,0,0,,10,,,69,127
17930,note_off,120,0,0,,10,,,69,127
17931,note_on,1,0,0,,7,,,67,127
18051,note_off,120,0,0,,7,,,67,127
18051,note_off,0,0,0,,0,,,60,127
18052,note_on,1,0,0,,0,,,48,127
18052,note_on,0,0,0,,7,,,67,127
18536,note_off,484,0,0,,0,,,48,127
18537,note_on,1,0,0,,4,,,52,127
18780,note_off,243,0,0,,7,,,67,127
19021,note_off,241,0,0,,4,,,52,127
19022,note_on,1,0,0,,0,,,48,127
19022,note_on,0,0,0,,4,,,76,127
19506,note_off,484,0,0,,4,,,76,127
19507,note_off,1,0,0,,0,,,48,127
19507,note_on,0,0,0,,4,,,76,127
19627,note_off,120,0,0,,4,,,76,127
19628,note_on,1,0,0,,2,,,74,127
19749,note_on,121,0,0,,5,,,77,127
19758,note_off,9,0,0,,2,,,74,127
19869,note_off,111,0,0,,5,,,77,127
19870,note_on,1,0,0,,4,,,76,127
19990,note_off,120,0,0,,4,,,76,127
19991,note_on,1,0,0,,5,,,53,127
19991,note_on,0,0,0,,10,,,57,127
19991,note_on,0,0,0,,2,,,74,127
20475,note_off,484,0,0,,10,,,57,127
20475,note_off,0,0,0,,5,,,53,127
20476,note_on,1,0,0,,10,,,57,127
20476,note_on,0,0,0,,5,,,53,127
20719,note_off,243,0,0,,2,,,74,127
20960,note_off,241,0,0,,5,,,53,127
20960,note_off,0,0,0,,10,,,57,127
20961,note_on,1,0,0,,10,,,57,127
20961,note_on,0,0,0,,5,,,53,127
20961,note_on,0,0,0,,10,,,81,127
21445,note_off,484,0,0,,10,,,81,127
21446,note_off,1,0,0,,5,,,53,127
21446,note_off,0,0,0,,10,,,57,127
21446,note_on,0,0,0,,10,,,81,127
21566,note_off,120,0,0,,10,,,81,127
21567,note_on,1,0,0,,8,,,80,127
21687,note_off,120,0,0,,8,,,80,127
21688,note_on,1,0,0,,12,,,83,127
21808,note_off,120,0,0,,12,,,83,127
21809,note_on,1,0,0,,10,,,81,127
21929,note_off,120,0,0,,10,,,81,127
21930,note_on,1,0,0,,4,,,52,127
21930,note_on,0,0,0,,12,,,59,127
21930,note_on,0,0,0,,2,,,74,127
22414,note_off,484,0,0,,12,,,59,127
22414,note_off,0,0,0,,4,,,52,127
22415,note_on,1,0,0,,4,,,52,127
22415,note_on,0,0,0,,12,,,59,127
22658,note_off,243,0,0,,2,,,74,127
22899,note_off,241,0,0,,12,,,59,127
22899,note_off,0,0,0,,4,,,52,127
22900,note_on,1,0,0,,4,,,52,127
22900,note_on,0,0,0,,12,,,59,127
22900,note_on,0,0,0,,2,,,74,127
23384,note_off,484,0,0,,2,,,74,127
23385,note_off,1,0,0,,12,,,59,127
23385,note_off,0,0,0,,4,,,52,127
23385,note_on,0,0,0,,2,,,74,127
23506,note_on,121,0,0,,0,,,72,127
23509,note_off,3,0,0,,2,,,74,127
23628,note_on,119,0,0,,4,,,76,127
23631,note_off,3,0,0,,0,,,72,127
23748,note_off,117,0,0,,4,,,76,127
23749,note_on,1,0,0,,2,,,74,127
23869,note_off,120,0,0,,2,,,74,127
23870,note_on,1,0,0,,10,,,57,127
23870,note_on,0,0,0,,4,,,64,127
23870,note_on,0,0,0,,0,,,72,127
24354,note_off,484,0,0,,4,,,64,127
24354,note_off,0,0,0,,10,,,57,127
24355,note_on,1,0,0,,10,,,57,127
24355,note_on,0,0,0,,4,,,64,127
24598,note_off,243,0,0,,0,,,72,127
24839,note_off,241,0,0,,4,,,64,127
24839,note_off,0,0,0,,10,,,57,127
24840,note_on,1,0,0,,4,,,64,127
24840,note_on,0,0,0,,10,,,57,127
24840,note_on,0,0,0,,7,,,79,127
25324,note_off,484,0,0,,7,,,79,127
25325,note_off,1,0,0,,10,,,57,127
25325,note_off,0,0,0,,4,,,64,127
25325,note_on,0,0,0,,7,,,79,127
25445,note_off,120,0,0,,7,,,79,127
25446,note_on,1,0,0,,6,,,78,127
25566,note_off,120,0,0,,6,,,78,127
25567,note_on,1,0,0,,10,,,81,127
25687,note_off,120,0,0,,10,,,81,127
25688,note_on,1,0,0,,7,,,79,127
25808,note_off,120,0,0,,7,,,79,127
25809,note_on,1,0,0,,2,,,50,127
25809,note_on,0,0,0,,10,,,57,127
25809,note_on,0,0,0,,0,,,72,127
26293,note_off,484,0,0,,10,,,57,127
26293,note_off,0,0,0,,2,,,50,127
26294,note_on,1,0,0,,2,,,50,127
26294,note_on,0,0,0,,10,,,57,127
26537,note_off,243,0,0,,0,,,72,127
26778,note_off,241,0,0,,10,,,57,127
26778,note_off,0,0,0,,2,,,50,127
26779,note_on,1,0,0,,2,,,50,127
26779,note_on,0,0,0,,10,,,57,127
26779,note_on,0,0,0,,0,,,72,127
27263,note_off,484,0,0,,0,,,72,127
27264,note_off,1,0,0,,10,,,57,127
27264,note_off,0,0,0,,2,,,50,127
27264,note_on,0,0,0,,0,,,72,127
27385,note_on,121,0,0,,12,,,71,127
27391,note_off,6,0,0,,0,,,72,127
27505,note_off,114,0,0,,12,,,71,127
27506,note_on,1,0,0,,4,,,76,127
27627,note_off,121,0,0,,4,,,76,127
27627,note_on,0,0,0,,2,,,74,127
27747,note_off,120,0,0,,2,,,74,127
27748,note_on,1,0,0,,7,,,55,127
27748,note_on,0,0,0,,12,,,59,127
27748,note_on,0,0,0,,2,,,74,127
28232,note_off,484,0,0,,12,,,59,127
28232,note_off,0,0,0,,7,,,55,127
28233,note_on,1,0,0,,0,,,60,127
28233,note_on,0,0,0,,10,,,57,127
28476,note_off,243,0,0,,2,,,74,127
28717,note_off,241,0,0,,10,,,57,127
28717,note_off,0,0,0,,0,,,60,127
28718,note_on,1,0,0,,12,,,59,127
28718,note_on,0,0,0,,2,,,62,127
28718,note_on,0,0,0,,7,,,67,127
29202,note_off,484,0,0,,7,,,67,127
29202,note_off,0,0,0,,2,,,62,127
29202,note_off,0,0,0,,12,,,59,127
29203,note_on,1,0,0,,0,,,60,127
29203,note_on,0,0,0,,7,,,67,127
29323,note_off,120,0,0,,7,,,67,127
29324,note_on,1,0,0,,6,,,66,127
29444,note_off,120,0,0,,6,,,66,127
29445,note_on,1,0,0,,12,,,71,127
29565,note_off,120,0,0,,12,,,71,127
29566,note_on,1,0,0,,10,,,69,127
29686,note_off,120,0,0,,10,,,69,127
29687,note_on,1,0,0,,0,,,48,127
29687,note_on,0,0,0,,10,,,69,127
30171,note_off,484,0,0,,0,,,48,127
30171,note_off,0,0,0,,0,,,60,127
30172,note_on,1,0,0,,2,,,50,127
30415,note_off,243,0,0,,10,,,69,127
30656,note_off,241,0,0,,2,,,50,127
30657,note_on,1,0,0,,2,,,50,127
30657,note_on,0,0,0,,0,,,72,127
31141,note_off,484,0,0,,0,,,72,127
31142,note_off,1,0,0,,2,,,50,127
31142,note_on,0,0,0,,0,,,72,127
31263,note_on,121,0,0,,12,,,71,127
31269,note_off,6,0,0,,0,,,72,127
31384,note_on,115,0,0,,4,,,76,127
31387,note_off,3,0,0,,12,,,71,127
31504,note_off,117,0,0,,4,,,76,127
31505,note_on,1,0,0,,2,,,74,127
31625,note_off,120,0,0,,2,,,74,127
31626,note_on,1,0,0,,7,,,55,127
31626,note_on,0,0,0,,12,,,59,127
31626,note_on,0,0,0,,2,,,74,127
32110,note_off,484,0,0,,12,,,59,127
32110,note_off,0,0,0,,7,,,55,127
32111,note_on,1,0,0,,10,,,57,127
32111,note_on,0,0,0,,0,,,60,127
32354,note_off,243,0,0,,2,,,74,127
32595,note_off,241,0,0,,0,,,60,127
32595,note_off,0,0,0,,10,,,57,127
32596,note_on,1,0,0,,12,,,59,127
32596,note_on,0,0,0,,2,,,62,127
32596,note_on,0,0,0,,7,,,67,127
33080,note_off,484,0,0,,7,,,67,127
33080,note_off,0,0,0,,2,,,62,127
33080,note_off,0,0,0,,12,,,59,127
33081,note_on,1,0,0,,0,,,60,127
33081,note_on,0,0,0,,7,,,67,127
33201,note_off,120,0,0,,7,,,67,127
33202,note_on,1,0,0,,6,,,66,127
33323,note_on,121,0,0,,12,,,71,127
33328,note_off,5,0,0,,6,,,66,127
33443,note_off,115,0,0,,12,,,71,127
33444,note_on,1,0,0,,10,,,69,127
33564,note_off,120,0,0,,10,,,69,127
33564,note_off,0,0,0,,0,,,60,127
33565,note_on,1,0,0,,0,,,48,127
33565,note_on,0,0,0,,10,,,69,127
34049,note_off,484,0,0,,0,,,48,127
34050,note_on,1,0,0,,2,,,50,127
34293,note_off,243,0,0,,10,,,69,127
34534,note_off,241,0,0,,2,,,50,127
34535,note_on,1,0,0,,2,,,50,127
34535,note_on,0,0,0,,0,,,72,127
35019,note_off,484,0,0,,0,,,72,127
35020,note_off,1,0,0,,2,,,50,127
35020,note_on,0,0,0,,0,,,72,127
35140,note_off,120,0,0,,0,,,72,127
35141,note_on,1,0,0,,12,,,71,127
35261,note_off,120,0,0,,12,,,71,127
35262,note_on,1,0,0,,4,,,76,127
35383,note_off,121,0,0,,4,,,76,127
35383,note_on,0,0,0,,2,,,74,127
35503,note_off,120,0,0,,2,,,74,127
35504,note_on,1,0,0,,12,,,59,127
35504,note_on,0,0,0,,7,,,55,127
35504,note_on,0,0,0,,2,,,74,127
35988,note_off,484,0,0,,7,,,55,127
35988,note_off,0,0,0,,12,,,59,127
35989,note_on,1,0,0,,10,,,57,127
35989,note_on,0,0,0,,0,,,60,127
36473,note_off,484,0,0,,0,,,60,127
36473,note_off,0,0,0,,10,,,57,127
36474,note_off,1,0,0,,2,,,74,127
36474,note_on,0,0,0,,2,,,62,127
36474,note_on,0,0,0,,12,,,59,127
36474,note_on,0,0,0,,7,,,67,127
36958,note_off,484,0,0,,7,,,67,127
36959,note_off,1,0,0,,12,,,59,127
36959,note_off,0,0,0,,2,,,62,127
36959,note_on,0,0,0,,7,,,67,127
37079,note_off,120,0,0,,7,,,67,127
37080,note_on,1,0,0,,6,,,66,127
37200,note_off,120,0,0,,6,,,66,127
37201,note_on,1,0,0,,10,,,69,127
37321,note_off,120,0,0,,10,,,69,127
37322,note_on,1,0,0,,8,,,68,127
37442,note_off,120,0,0,,8,,,68,127
37443,note_on,1,0,0,,0,,,48,127
37443,note_on,0,0,0,,0,,,60,127
37443,note_on,0,0,0,,12,,,71,127
37563,note_off,120,0,0,,12,,,71,127
37564,note_on,1,0,0,,10,,,69,127
37684,note_off,120,0,0,,10,,,69,127
37685,note_on,1,0,0,,0,,,72,127
37805,note_off,120,0,0,,0,,,72,127
37806,note_on,1,0,0,,12,,,71,127
37926,note_off,120,0,0,,12,,,71,127
37926,note_off,0,0,0,,0,,,60,127
37926,note_off,0,0,0,,0,,,48,127
37927,note_on,1,0,0,,0,,,48,127
37927,note_on,0,0,0,,0,,,60,127
37927,note_on,0,0,0,,4,,,76,127
38411,note_off,484,0,0,,4,,,76,127
38411,note_off,0,0,0,,0,,,60,127
38411,note_off,0,0,0,,0,,,48,127
38412,note_on,1,0,0,,0,,,48,127
38412,note_on,0,0,0,,0,,,60,127
38412,note_on,0,0,0,,7,,,67,127
38896,note_off,484,0,0,,7,,,67,127
38896,note_off,0,0,0,,0,,,60,127
38896,note_off,0,0,0,,0,,,48,127
38897,note_on,1,0,0,,2,,,50,127
38897,note_on,0,0,0,,10,,,69,127
39017,note_off,120,0,0,,10,,,69,127
39018,note_on,1,0,0,,7,,,67,127
39138,note_off,120,0,0,,7,,,67,127
39139,note_on,1,0,0,,6,,,66,127
39259,note_off,120,0,0,,6,,,66,127
39263,note_on,4,0,0,,7,,,67,127
39383,note_off,120,0,0,,7,,,67,127
39392,note_on,9,0,0,,2,,,38,127
39392,note_on,0,0,0,,6,,,66,127
40352,note_off,960,0,0,,2,,,50,127
40605,note_off,253,0,0,,6,,,66,127
40782,note_off,177,0,0,,2,,,38,127
40878,note_on,96,0,0,,4,,,52,127
40878,note_on,0,0,0,,7,,,55,127
41121,note_on,243,0,0,,7,,,79,127
41362,note_off,241,0,0,,7,,,79,127
41362,note_off,0,0,0,,7,,,55,127
41362,note_off,0,0,0,,4,,,52,127
41363,note_on,1,0,0,,7,,,55,127
41363,note_on,0,0,0,,4,,,52,127
41363,note_on,0,0,0,,6,,,78,127
41483,note_off,120,0,0,,6,,,78,127
41484,note_on,1,0,0,,4,,,76,127
41604,note_off,120,0,0,,4,,,76,127
41605,note_on,1,0,0,,2,,,74,127
41846,note_off,241,0,0,,2,,,74,127
41847,note_off,1,0,0,,4,,,52,127
41847,note_off,0,0,0,,7,,,55,127
41847,note_on,0,0,0,,4,,,76,127
41967,note_off,120,0,0,,4,,,76,127
41968,note_on,1,0,0,,2,,,74,127
42088,note_off,120,0,0,,2,,,74,127
42089,note_on,1,0,0,,1,,,73,127
42330,note_off,241,0,0,,1,,,73,127
42331,note_on,1,0,0,,7,,,55,127
42331,note_on,0,0,0,,4,,,52,127
42331,note_on,0,0,0,,2,,,74,127
42572,note_off,241,0,0,,2,,,74,127
42573,note_on,1,0,0,,4,,,76,127
42814,note_off,241,0,0,,4,,,52,127
42814,note_off,0,0,0,,7,,,55,127
42815,note_on,1,0,0,,6,,,54,127
42815,note_on,0,0,0,,10,,,57,127
42936,note_off,121,0,0,,4,,,76,127
43057,note_on,121,0,0,,4,,,76,127
43298,note_off,241,0,0,,4,,,76,127
43298,note_off,0,0,0,,10,,,57,127
43298,note_off,0,0,0,,6,,,54,127
43299,note_on,1,0,0,,10,,,57,127
43299,note_on,0,0,0,,6,,,54,127
43299,note_on,0,0,0,,2,,,74,127
43419,note_off,120,0,0,,2,,,74,127
43420,note_on,1,0,0,,0,,,72,127
43540,note_off,120,0,0,,0,,,72,127
43541,note_on,1,0,0,,12,,,71,127
43782,note_off,241,0,0,,12,,,71,127
43783,note_off,1,0,0,,6,,,54,127
43783,note_off,0,0,0,,10,,,57,127
43783,note_on,0,0,0,,0,,,72,127
43903,note_off,120,0,0,,0,,,72,127
43904,note_on,1,0,0,,12,,,71,127
44024,note_off,120,0,0,,12,,,71,127
44025,note_on,1,0,0,,10,,,69,127
44266,note_off,241,0,0,,10,,,69,127
44267,note_on,1,0,0,,10,,,57,127
44267,note_on,0,0,0,,6,,,54,127
44267,note_on,0,0,0,,12,,,71,127
44508,note_off,241,0,0,,12,,,71,127
44509,note_on,1,0,0,,0,,,72,127
44750,note_off,241,0,0,,6,,,54,127
44750,note_off,0,0,0,,10,,,57,127
44751,note_on,1,0,0,,12,,,59,127
44751,note_on,0,0,0,,7,,,55,127
44872,note_off,121,0,0,,0,,,72,127
44993,note_on,121,0,0,,2,,,74,127
45234,note_off,241,0,0,,2,,,74,127
45234,note_off,0,0,0,,7,,,55,127
45234,note_off,0,0,0,,12,,,59,127
45235,note_on,1,0,0,,12,,,59,127
45235,note_on,0,0,0,,7,,,55,127
45235,note_on,0,0,0,,0,,,72,127
45355,note_off,120,0,0,,0,,,72,127
45356,note_on,1,0,0,,12,,,71,127
45476,note_off,120,0,0,,12,,,71,127
45477,note_on,1,0,0,,10,,,69,127
45718,note_off,241,0,0,,10,,,69,127
45719,note_off,1,0,0,,7,,,55,127
45719,note_off,0,0,0,,12,,,59,127
45719,note_on,0,0,0,,12,,,71,127
45839,note_off,120,0,0,,12,,,71,127
45840,note_on,1,0,0,,10,,,69,127
45960,note_off,120,0,0,,10,,,69,127
45961,note_on,1,0,0,,7,,,67,127
46202,note_off,241,0,0,,7,,,67,127
46203,note_on,1,0,0,,12,,,47,127
46203,note_on,0,0,0,,7,,,55,127
46203,note_on,0,0,0,,10,,,69,127
46444,note_off,241,0,0,,10,,,69,127
46445,note_on,1,0,0,,12,,,71,127
46686,note_off,241,0,0,,12,,,71,127
46686,note_off,0,0,0,,7,,,55,127
46686,note_off,0,0,0,,12,,,47,127
46687,note_on,1,0,0,,0,,,48,127
46687,note_on,0,0,0,,4,,,76,127
46928,note_off,241,0,0,,4,,,76,127
46929,note_on,1,0,0,,0,,,72,127
47170,note_off,241,0,0,,0,,,72,127
47170,note_off,0,0,0,,0,,,48,127
47171,note_on,1,0,0,,0,,,60,127
47171,note_on,0,0,0,,0,,,48,127
47171,note_on,0,0,0,,4,,,64,127
47412,note_off,241,0,0,,4,,,64,127
47413,note_on,1,0,0,,10,,,69,127
47654,note_off,241,0,0,,10,,,69,127
47654,note_off,0,0,0,,0,,,48,127
47654,note_off,0,0,0,,0,,,60,127
47655,note_on,1,0,0,,2,,,50,127
47655,note_on,0,0,0,,12,,,59,127
47655,note_on,0,0,0,,7,,,67,127
48139,note_off,484,0,0,,12,,,59,127
48139,note_off,0,0,0,,2,,,50,127
48140,note_on,1,0,0,,2,,,50,127
48140,note_on,0,0,0,,10,,,57,127
48260,note_off,120,0,0,,7,,,67,127
48261,note_on,1,0,0,,6,,,66,127
48381,note_off,120,0,0,,6,,,66,127
48382,note_on,1,0,0,,4,,,64,127
48502,note_off,120,0,0,,4,,,64,127
48503,note_on,1,0,0,,6,,,66,127
48623,note_off,120,0,0,,10,,,57,127
48623,note_off,0,0,0,,2,,,50,127
48624,note_off,1,0,0,,6,,,66,127
48644,note_on,20,0,0,,7,,,55,127
48644,note_on,0,0,0,,4,,,52,127
48887,note_on,243,0,0,,7,,,79,127
49128,note_off,241,0,0,,7,,,79,127
49128,note_off,0,0,0,,4,,,52,127
49128,note_off,0,0,0,,7,,,55,127
49129,note_on,1,0,0,,6,,,78,127
49129,note_on,0,0,0,,7,,,55,127
49129,note_on,0,0,0,,4,,,52,127
49249,note_off,120,0,0,,6,,,78,127
49250,note_on,1,0,0,,4,,,76,127
49370,note_off,120,0,0,,4,,,76,127
49371,note_on,1,0,0,,2,,,74,127
49612,note_off,241,0,0,,2,,,74,127
49613,note_off,1,0,0,,4,,,52,127
49613,note_off,0,0,0,,7,,,55,127
49613,note_on,0,0,0,,4,,,76,127
49733,note_off,120,0,0,,4,,,76,127
49734,note_on,1,0,0,,2,,,74,127
49854,note_off,120,0,0,,2,,,74,127
49855,note_on,1,0,0,,1,,,73,127
50096,note_off,241,0,0,,1,,,73,127
50097,note_on,1,0,0,,2,,,74,127
50097,note_on,0,0,0,,7,,,55,127
50097,note_on,0,0,0,,4,,,52,127
50338,note_off,241,0,0,,2,,,74,127
50339,note_on,1,0,0,,4,,,76,127
50580,note_off,241,0,0,,4,,,52,127
50580,note_off,0,0,0,,7,,,55,127
50581,note_on,1,0,0,,6,,,54,127
50581,note_on,0,0,0,,10,,,57,127
50702,note_off,121,0,0,,4,,,76,127
50823,note_on,121,0,0,,4,,,76,127
51064,note_off,241,0,0,,4,,,76,127
51064,note_off,0,0,0,,10,,,57,127
51064,note_off,0,0,0,,6,,,54,127
51065,note_on,1,0,0,,2,,,74,127
51065,note_on,0,0,0,,10,,,57,127
51065,note_on,0,0,0,,6,,,54,127
51185,note_off,120,0,0,,2,,,74,127
51186,note_on,1,0,0,,0,,,72,127
51306,note_off,120,0,0,,0,,,72,127
51307,note_on,1,0,0,,12,,,71,127
51548,note_off,241,0,0,,12,,,71,127
51549,note_off,1,0,0,,6,,,54,127
51549,note_off,0,0,0,,10,,,57,127
51549,note_on,0,0,0,,0,,,72,127
51669,note_off,120,0,0,,0,,,72,127
51670,note_on,1,0,0,,12,,,71,127
51790,note_off,120,0,0,,12,,,71,127
51791,note_on,1,0,0,,10,,,69,127
52032,note_off,241,0,0,,10,,,69,127
52033,note_on,1,0,0,,12,,,71,127
52033,note_on,0,0,0,,6,,,54,127
52033,note_on,0,0,0,,10,,,57,127
52274,note_off,241,0,0,,12,,,71,127
52275,note_on,1,0,0,,0,,,72,127
52516,note_off,241,0,0,,10,,,57,127
52516,note_off,0,0,0,,6,,,54,127
52517,note_on,1,0,0,,12,,,59,127
52517,note_on,0,0,0,,7,,,55,127
52638,note_off,121,0,0,,0,,,72,127
52759,note_on,121,0,0,,2,,,74,127
53000,note_off,241,0,0,,2,,,74,127
53000,note_off,0,0,0,,7,,,55,127
53000,note_off,0,0,0,,12,,,59,127
53001,note_on,1,0,0,,0,,,72,127
53001,note_on,0,0,0,,12,,,59,127
53001,note_on,0,0,0,,7,,,55,127
53121,note_off,120,0,0,,0,,,72,127
53122,note_on,1,0,0,,12,,,71,127
53242,note_off,120,0,0,,12,,,71,127
53243,note_on,1,0,0,,10,,,69,127
53484,note_off,241,0,0,,10,,,69,127
53485,note_off,1,0,0,,7,,,55,127
53485,note_off,0,0,0,,12,,,59,127
53485,note_on,0,0,0,,12,,,71,127
53605,note_off,120,0,0,,12,,,71,127
53606,note_on,1,0,0,,10,,,69,127
53726,note_off,120,0,0,,10,,,69,127
53727,note_on,1,0,0,,7,,,67,127
53968,note_off,241,0,0,,7,,,67,127
53969,note_on,1,0,0,,10,,,69,127
53969,note_on,0,0,0,,12,,,47,127
53969,note_on,0,0,0,,7,,,55,127
54210,note_off,241,0,0,,10,,,69,127
54211,note_on,1,0,0,,12,,,71,127
54452,note_off,241,0,0,,12,,,71,127
54452,note_off,0,0,0,,7,,,55,127
54452,note_off,0,0,0,,12,,,47,127
54453,note_on,1,0,0,,4,,,76,127
54453,note_on,0,0,0,,0,,,48,127
54694,note_off,241,0,0,,4,,,76,127
54695,note_on,1,0,0,,0,,,72,127
54936,note_off,241,0,0,,0,,,72,127
54936,note_off,0,0,0,,0,,,48,127
54937,note_on,1,0,0,,4,,,64,127
54937,note_on,0,0,0,,0,,,48,127
54937,note_on,0,0,0,,0,,,60,127
55178,note_off,241,0,0,,4,,,64,127
55179,note_on,1,0,0,,10,,,69,127
55420,note_off,241,0,0,,10,,,69,127
55420,note_off,0,0,0,,0,,,60,127
55420,note_off,0,0,0,,0,,,48,127
55421,note_on,1,0,0,,7,,,67,127
55421,note_on,0,0,0,,2,,,50,127
55421,note_on,0,0,0,,12,,,59,127
55905,note_off,484,0,0,,12,,,59,127
55905,note_off,0,0,0,,2,,,50,127
55906,note_on,1,0,0,,2,,,50,127
55906,note_on,0,0,0,,10,,,57,127
56026,note_off,120,0,0,,7,,,67,127
56027,note_on,1,0,0,,6,,,66,127
56147,note_off,120,0,0,,6,,,66,127
56148,note_on,1,0,0,,4,,,64,127
56268,note_off,120,0,0,,4,,,64,127
56269,note_on,1,0,0,,6,,,66,127
56389,note_off,120,0,0,,10,,,57,127
56389,note_off,0,0,0,,2,,,50,127
56390,note_off,1,0,0,,6,,,66,127
56410,note_on,20,0,0,,7,,,55,127
56410,note_on,0,0,0,,4,,,52,127
56653,note_on,243,0,0,,7,,,67,127
56773,note_off,120,0,0,,7,,,67,127
56774,note_on,1,0,0,,10,,,69,127
56894,note_off,120,0,0,,10,,,69,127
56894,note_off,0,0,0,,4,,,52,127
56894,note_off,0,0,0,,7,,,55,127
56895,note_on,1,0,0,,0,,,48,127
56895,note_on,0,0,0,,12,,,71,127
57015,note_off,120,0,0,,12,,,71,127
57016,note_on,1,0,0,,0,,,72,127
57136,note_off,120,0,0,,0,,,72,127
57137,note_on,1,0,0,,2,,,74,127
57257,note_off,120,0,0,,2,,,74,127
57258,note_on,1,0,0,,4,,,76,127
57378,note_off,120,0,0,,4,,,76,127
57379,note_off,1,0,0,,0,,,48,127
57379,note_on,0,0,0,,4,,,76,127
57620,note_off,241,0,0,,4,,,76,127
57621,note_on,1,0,0,,2,,,74,127
57864,note_on,243,0,0,,2,,,50,127
57864,note_on,0,0,0,,2,,,62,127
58105,note_off,241,0,0,,2,,,50,127
58106,note_on,1,0,0,,6,,,54,127
58347,note_off,241,0,0,,6,,,54,127
58348,note_off,1,0,0,,2,,,62,127
58348,note_off,0,0,0,,2,,,74,127
58348,note_on,0,0,0,,4,,,52,127
58348,note_on,0,0,0,,7,,,55,127
58611,note_on,263,0,0,,7,,,67,127
58731,note_off,120,0,0,,7,,,67,127
58732,note_on,1,0,0,,10,,,69,127
58832,note_off,100,0,0,,7,,,55,127
58832,note_off,0,0,0,,4,,,52,127
58852,note_off,20,0,0,,10,,,69,127
58853,note_on,1,0,0,,12,,,71,127
58853,note_on,0,0,0,,0,,,48,127
58973,note_off,120,0,0,,12,,,71,127
58974,note_on,1,0,0,,0,,,72,127
59094,note_off,120,0,0,,0,,,72,127
59095,note_on,1,0,0,,2,,,74,127
59215,note_off,120,0,0,,2,,,74,127
59216,note_on,1,0,0,,4,,,76,127
59336,note_off,120,0,0,,4,,,76,127
59337,note_off,1,0,0,,0,,,48,127
59337,note_on,0,0,0,,4,,,76,127
59578,note_off,241,0,0,,4,,,76,127
59579,note_on,1,0,0,,2,,,74,127
59822,note_on,243,0,0,,2,,,62,127
59822,note_on,0,0,0,,2,,,50,127
60063,note_off,241,0,0,,2,,,50,127
60064,note_on,1,0,0,,6,,,54,127
60305,note_off,241,0,0,,6,,,54,127
60306,note_off,1,0,0,,2,,,62,127
60306,note_off,0,0,0,,2,,,74,127
60306,note_on,0,0,0,,7,,,55,127
60306,note_on,0,0,0,,4,,,52,127
60569,note_on,263,0,0,,7,,,67,127
60689,note_off,120,0,0,,7,,,67,127
60690,note_on,1,0,0,,10,,,69,127
60790,note_off,100,0,0,,4,,,52,127
60790,note_off,0,0,0,,7,,,55,127
60810,note_off,20,0,0,,10,,,69,127
60811,note_on,1,0,0,,0,,,48,127
60811,note_on,0,0,0,,12,,,71,127
60931,note_off,120,0,0,,12,,,71,127
60932,note_on,1,0,0,,0,,,72,127
61052,note_off,120,0,0,,0,,,72,127
61053,note_on,1,0,0,,2,,,74,127
61173,note_off,120,0,0,,2,,,74,127
61174,note_on,1,0,0,,4,,,76,127
61294,note_off,120,0,0,,4,,,76,127
61295,note_off,1,0,0,,0,,,48,127
61295,note_on,0,0,0,,4,,,76,127
61536,note_off,241,0,0,,4,,,76,127
61537,note_on,1,0,0,,2,,,74,127
61780,note_on,243,0,0,,6,,,54,127
61780,note_on,0,0,0,,10,,,57,127
61901,note_off,121,0,0,,2,,,74,127
62022,note_on,121,0,0,,2,,,74,127
62263,note_off,241,0,0,,2,,,74,127
62263,note_off,0,0,0,,10,,,57,127
62263,note_off,0,0,0,,6,,,54,127
62264,note_on,1,0,0,,7,,,55,127
62264,note_on,0,0,0,,4,,,76,127
62384,note_off,120,0,0,,4,,,76,127
62385,note_on,1,0,0,,2,,,74,127
62505,note_off,120,0,0,,2,,,74,127
62506,note_on,1,0,0,,0,,,72,127
62626,note_off,120,0,0,,0,,,72,127
62627,note_on,1,0,0,,12,,,71,127
62747,note_off,120,0,0,,12,,,71,127
62747,note_off,0,0,0,,7,,,55,127
62748,note_on,1,0,0,,12,,,47,127
62748,note_on,0,0,0,,7,,,55,127
62748,note_on,0,0,0,,0,,,72,127
62868,note_off,120,0,0,,0,,,72,127
62869,note_on,1,0,0,,12,,,71,127
62989,note_off,120,0,0,,12,,,71,127
62990,note_on,1,0,0,,10,,,69,127
63110,note_off,120,0,0,,10,,,69,127
63111,note_on,1,0,0,,7,,,67,127
63231,note_off,120,0,0,,7,,,67,127
63231,note_off,0,0,0,,7,,,55,127
63231,note_off,0,0,0,,12,,,47,127
63232,note_on,1,0,0,,0,,,48,127
63232,note_on,0,0,0,,7,,,55,127
63232,note_on,0,0,0,,10,,,69,127
63352,note_off,120,0,0,,10,,,69,127
63353,note_on,1,0,0,,7,,,67,127
63473,note_off,120,0,0,,7,,,67,127
63474,note_on,1,0,0,,6,,,66,127
63594,note_off,120,0,0,,6,,,66,127
63595,note_on,1,0,0,,4,,,64,127
63715,note_off,120,0,0,,4,,,64,127
63715,note_off,0,0,0,,7,,,55,127
63715,note_off,0,0,0,,0,,,48,127
63716,note_on,1,0,0,,2,,,50,127
63716,note_on,0,0,0,,10,,,69,127
63957,note_off,241,0,0,,10,,,69,127
63958,note_on,1,0,0,,2,,,74,127
64170,note_off,212,0,0,,2,,,50,127
64199,note_off,29,0,0,,2,,,74,127
64200,note_on,1,0,0,,4,,,76,127
64320,note_off,120,0,0,,4,,,76,127
64321,note_on,1,0,0,,2,,,74,127
64441,note_off,120,0,0,,2,,,74,127
64442,note_on,1,0,0,,0,,,72,127
64562,note_off,120,0,0,,0,,,72,127
64563,note_on,1,0,0,,12,,,71,127
64683,note_off,120,0,0,,12,,,71,127
64684,note_on,1,0,0,,7,,,55,127
64684,note_on,0,0,0,,12,,,47,127
64684,note_on,0,0,0,,0,,,72,127
64804,note_off,120,0,0,,0,,,72,127
64805,note_on,1,0,0,,12,,,71,127
64925,note_off,120,0,0,,12,,,71,127
64926,note_on,1,0,0,,10,,,69,127
65046,note_off,120,0,0,,10,,,69,127
65047,note_on,1,0,0,,7,,,67,127
65167,note_off,120,0,0,,7,,,67,127
65167,note_off,0,0,0,,12,,,47,127
65167,note_off,0,0,0,,7,,,55,127
65168,note_on,1,0,0,,0,,,48,127
65168,note_on,0,0,0,,7,,,55,127
65168,note_on,0,0,0,,10,,,69,127
65288,note_off,120,0,0,,10,,,69,127
65289,note_on,1,0,0,,7,,,67,127
65409,note_off,120,0,0,,7,,,67,127
65410,note_on,1,0,0,,6,,,66,127
65530,note_off,120,0,0,,6,,,66,127
65531,note_on,1,0,0,,4,,,64,127
65651,note_off,120,0,0,,4,,,64,127
65651,note_off,0,0,0,,7,,,55,127
65651,note_off,0,0,0,,0,,,48,127
65652,note_on,1,0,0,,2,,,50,127
65652,note_on,0,0,0,,12,,,71,127
65733,note_off,81,0,0,,12,,,71,127
65733,note_on,0,0,0,,10,,,69,127
65814,note_off,81,0,0,,10,,,69,127
65814,note_on,0,0,0,,12,,,71,127
65895,note_off,81,0,0,,12,,,71,127
65895,note_on,0,0,0,,10,,,69,127
65976,note_off,81,0,0,,10,,,69,127
65976,note_on,0,0,0,,7,,,67,127
66057,note_off,81,0,0,,7,,,67,127
66057,note_on,0,0,0,,10,,,69,127
66137,note_off,80,0,0,,2,,,50,127
66138,note_off,1,0,0,,10,,,69,127
66138,note_on,0,0,0,,7,,,43,127
66138,note_on,0,0,0,,7,,,67,127
67654,note_off,1516,0,0,,7,,,67,127
68078,note_off,424,0,0,,7,,,43,127
68098,note_on,20,0,0,,2,,,74,127
68583,note_on,485,0,0,,7,,,55,127
68703,note_off,120,0,0,,2,,,74,127
68704,note_on,1,0,0,,12,,,71,127
68824,note_off,120,0,0,,12,,,71,127
68825,note_on,1,0,0,,0,,,72,127
68945,note_off,120,0,0,,0,,,72,127
68946,note_on,1,0,0,,2,,,74,127
69066,note_off,120,0,0,,2,,,74,127
69066,note_off,0,0,0,,7,,,55,127
69067,note_on,1,0,0,,12,,,71,127
69067,note_on,0,0,0,,7,,,55,127
69552,note_on,485,0,0,,7,,,43,127
69672,note_off,120,0,0,,12,,,71,127
69673,note_on,1,0,0,,7,,,67,127
69793,note_off,120,0,0,,7,,,67,127
69794,note_on,1,0,0,,10,,,69,127
69914,note_off,120,0,0,,10,,,69,127
69915,note_on,1,0,0,,12,,,71,127
70035,note_off,120,0,0,,12,,,71,127
70035,note_off,0,0,0,,7,,,55,127
70036,note_off,1,0,0,,7,,,43,127
70036,note_on,0,0,0,,10,,,69,127
70277,note_off,241,0,0,,10,,,69,127
70278,note_on,1,0,0,,7,,,67,127
70521,note_on,243,0,0,,12,,,59,127
70521,note_on,0,0,0,,7,,,55,127
71005,note_off,484,0,0,,7,,,55,127
71005,note_off,0,0,0,,12,,,59,127
71006,note_on,1,0,0,,10,,,57,127
71006,note_on,0,0,0,,0,,,60,127
71249,note_off,243,0,0,,7,,,67,127
71490,note_off,241,0,0,,0,,,60,127
71490,note_off,0,0,0,,10,,,57,127
71491,note_on,1,0,0,,5,,,77,127
71491,note_on,0,0,0,,2,,,62,127
71491,note_on,0,0,0,,12,,,59,127
71975,note_off,484,0,0,,5,,,77,127
71976,note_off,1,0,0,,12,,,59,127
71976,note_off,0,0,0,,2,,,62,127
71976,note_on,0,0,0,,5,,,77,127
72096,note_off,120,0,0,,5,,,77,127
72097,note_on,1,0,0,,4,,,76,127
72217,note_off,120,0,0,,4,,,76,127
72218,note_on,1,0,0,,10,,,81,127
72338,note_off,120,0,0,,10,,,81,127
72339,note_on,1,0,0,,7,,,79,127
72459,note_off,120,0,0,,7,,,79,127
72460,note_on,1,0,0,,7,,,79,127
72460,note_on,0,0,0,,4,,,64,127
72460,note_on,0,0,0,,0,,,60,127
72944,note_off,484,0,0,,0,,,60,127
72944,note_off,0,0,0,,4,,,64,127
72945,note_on,1,0,0,,5,,,65,127
72945,note_on,0,0,0,,2,,,62,127
73188,note_off,243,0,0,,7,,,79,127
73429,note_off,241,0,0,,2,,,62,127
73429,note_off,0,0,0,,5,,,65,127
73430,note_on,1,0,0,,11,,,70,127
73430,note_on,0,0,0,,4,,,64,127
73430,note_on,0,0,0,,7,,,67,127
73914,note_off,484,0,0,,11,,,70,127
73915,note_off,1,0,0,,7,,,67,127
73915,note_off,0,0,0,,4,,,64,127
73915,note_on,0,0,0,,11,,,70,127
74035,note_off,120,0,0,,11,,,70,127
74036,note_on,1,0,0,,10,,,69,127
74156,note_off,120,0,0,,10,,,69,127
74157,note_on,1,0,0,,2,,,74,127
74277,note_off,120,0,0,,2,,,74,127
74278,note_on,1,0,0,,0,,,72,127
74398,note_off,120,0,0,,0,,,72,127
74399,note_on,1,0,0,,0,,,72,127
74399,note_on,0,0,0,,5,,,53,127
74399,note_on,0,0,0,,10,,,57,127
74883,note_off,484,0,0,,10,,,57,127
74883,note_off,0,0,0,,5,,,53,127
74884,note_on,1,0,0,,7,,,55,127
74884,note_on,0,0,0,,11,,,58,127
75127,note_off,243,0,0,,0,,,72,127
75368,note_off,241,0,0,,11,,,58,127
75368,note_off,0,0,0,,7,,,55,127
75369,note_on,1,0,0,,5,,,77,127
75369,note_on,0,0,0,,10,,,57,127
75369,note_on,0,0,0,,0,,,60,127
75853,note_off,484,0,0,,5,,,77,127
75854,note_off,1,0,0,,0,,,60,127
75854,note_off,0,0,0,,10,,,57,127
75854,note_on,0,0,0,,5,,,77,127
75974,note_off,120,0,0,,5,,,77,127
75975,note_on,1,0,0,,4,,,76,127
76095,note_off,120,0,0,,4,,,76,127
76096,note_on,1,0,0,,10,,,81,127
76216,note_off,120,0,0,,10,,,81,127
76217,note_on,1,0,0,,7,,,79,127
76337,note_off,120,0,0,,7,,,79,127
76338,note_on,1,0,0,,7,,,79,127
76338,note_on,0,0,0,,11,,,58,127
76338,note_on,0,0,0,,2,,,62,127
76822,note_off,484,0,0,,2,,,62,127
76822,note_off,0,0,0,,11,,,58,127
76823,note_on,1,0,0,,11,,,58,127
76823,note_on,0,0,0,,2,,,62,127
77066,note_off,243,0,0,,7,,,79,127
77066,note_on,0,0,0,,5,,,77,127
77307,note_off,241,0,0,,5,,,77,127
77307,note_off,0,0,0,,2,,,62,127
77307,note_off,0,0,0,,11,,,58,127
77308,note_on,1,0,0,,4,,,76,127
77308,note_on,0,0,0,,8,,,80,127
77308,note_on,0,0,0,,2,,,62,127
77308,note_on,0,0,0,,11,,,58,127
77549,note_off,241,0,0,,4,,,76,127
77550,note_on,1,0,0,,2,,,74,127
77791,note_off,241,0,0,,2,,,74,127
77791,note_off,0,0,0,,11,,,58,127
77791,note_off,0,0,0,,2,,,62,127
77792,note_off,1,0,0,,8,,,80,127
77792,note_on,0,0,0,,2,,,74,127
77792,note_on,0,0,0,,10,,,81,127
77792,note_on,0,0,0,,10,,,57,127
78033,note_off,241,0,0,,2,,,74,127
78034,note_on,1,0,0,,1,,,73,127
78275,note_off,241,0,0,,1,,,73,127
78276,note_on,1,0,0,,1,,,73,127
78276,note_on,0,0,0,,10,,,45,127
78517,note_off,241,0,0,,1,,,73,127
78518,note_on,1,0,0,,2,,,74,127
78759,note_off,241,0,0,,2,,,74,127
78759,note_off,0,0,0,,10,,,45,127
78759,note_off,0,0,0,,10,,,57,127
78760,note_on,1,0,0,,4,,,76,127
78760,note_on,0,0,0,,10,,,45,127
79001,note_off,241,0,0,,4,,,76,127
79002,note_off,1,0,0,,10,,,81,127
79002,note_on,0,0,0,,7,,,79,127
79243,note_off,241,0,0,,7,,,79,127
79243,note_off,0,0,0,,10,,,45,127
79244,note_on,1,0,0,,5,,,77,127
79244,note_on,0,0,0,,10,,,45,127
79485,note_off,241,0,0,,5,,,77,127
79486,note_on,1,0,0,,4,,,76,127
79727,note_off,241,0,0,,4,,,76,127
79728,note_off,1,0,0,,10,,,45,127
79728,note_on,0,0,0,,5,,,77,127
79971,note_on,243,0,0,,2,,,74,127
80006,note_off,35,0,0,,5,,,77,127
80212,note_off,206,0,0,,2,,,74,127
80213,note_on,1,0,0,,12,,,71,127
80213,note_on,0,0,0,,2,,,50,127
80213,note_on,0,0,0,,12,,,59,127
80454,note_off,241,0,0,,12,,,71,127
80455,note_on,1,0,0,,8,,,68,127
80696,note_off,241,0,0,,8,,,68,127
80696,note_off,0,0,0,,12,,,59,127
80696,note_off,0,0,0,,2,,,50,127
80697,note_on,1,0,0,,5,,,77,127
80697,note_on,0,0,0,,12,,,59,127
80697,note_on,0,0,0,,2,,,50,127
80938,note_off,241,0,0,,5,,,77,127
80939,note_on,1,0,0,,4,,,76,127
81180,note_off,241,0,0,,4,,,76,127
81180,note_off,0,0,0,,2,,,50,127
81180,note_off,0,0,0,,12,,,59,127
81181,note_on,1,0,0,,4,,,76,127
81181,note_on,0,0,0,,12,,,59,127
81181,note_on,0,0,0,,2,,,50,127
81422,note_off,241,0,0,,4,,,76,127
81423,note_on,1,0,0,,2,,,74,127
81664,note_off,241,0,0,,2,,,74,127
81665,note_off,1,0,0,,2,,,50,127
81665,note_off,0,0,0,,12,,,59,127
81665,note_on,0,0,0,,4,,,76,127
81908,note_on,243,0,0,,0,,,72,127
81943,note_off,35,0,0,,4,,,76,127
82149,note_off,206,0,0,,0,,,72,127
82150,note_on,1,0,0,,10,,,69,127
82150,note_on,0,0,0,,0,,,48,127
82150,note_on,0,0,0,,10,,,57,127
82391,note_off,241,0,0,,10,,,69,127
82392,note_on,1,0,0,,4,,,64,127
82633,note_off,241,0,0,,4,,,64,127
82633,note_off,0,0,0,,10,,,57,127
82633,note_off,0,0,0,,0,,,48,127
82634,note_on,1,0,0,,4,,,76,127
82634,note_on,0,0,0,,10,,,57,127
82634,note_on,0,0,0,,0,,,48,127
82875,note_off,241,0,0,,4,,,76,127
82876,note_on,1,0,0,,2,,,74,127
83117,note_off,241,0,0,,2,,,74,127
83117,note_off,0,0,0,,0,,,48,127
83117,note_off,0,0,0,,10,,,57,127
83118,note_on,1,0,0,,2,,,74,127
83118,note_on,0,0,0,,10,,,57,127
83118,note_on,0,0,0,,0,,,48,127
83359,note_off,241,0,0,,2,,,74,127
83360,note_on,1,0,0,,0,,,72,127
83601,note_off,241,0,0,,0,,,72,127
83602,note_off,1,0,0,,0,,,48,127
83602,note_off,0,0,0,,10,,,57,127
83602,note_on,0,0,0,,0,,,72,127
83843,note_off,241,0,0,,0,,,72,127
83844,note_on,1,0,0,,12,,,71,127
84085,note_off,241,0,0,,12,,,71,127
84086,note_on,1,0,0,,2,,,74,127
84086,note_on,0,0,0,,10,,,57,127
84086,note_on,0,0,0,,5,,,53,127
84327,note_off,241,0,0,,2,,,74,127
84328,note_on,1,0,0,,0,,,72,127
84569,note_off,241,0,0,,0,,,72,127
84569,note_off,0,0,0,,5,,,53,127
84569,note_off,0,0,0,,10,,,57,127
84570,note_on,1,0,0,,0,,,72,127
84570,note_on,0,0,0,,5,,,53,127
84570,note_on,0,0,0,,10,,,57,127
84811,note_off,241,0,0,,0,,,72,127
84812,note_on,1,0,0,,12,,,71,127
85053,note_off,241,0,0,,12,,,71,127
85053,note_off,0,0,0,,10,,,57,127
85053,note_off,0,0,0,,5,,,53,127
85054,note_on,1,0,0,,3,,,75,127
85054,note_on,0,0,0,,12,,,71,127
85054,note_on,0,0,0,,5,,,53,127
85054,note_on,0,0,0,,10,,,57,127
85295,note_off,241,0,0,,12,,,71,127
85296,note_on,1,0,0,,10,,,69,127
85537,note_off,241,0,0,,10,,,69,127
85538,note_off,1,0,0,,10,,,57,127
85538,note_off,0,0,0,,5,,,53,127
85538,note_off,0,0,0,,3,,,75,127
85538,note_on,0,0,0,,10,,,69,127
85538,note_on,0,0,0,,4,,,76,127
85779,note_off,241,0,0,,10,,,69,127
85780,note_on,1,0,0,,8,,,68,127
86021,note_off,241,0,0,,8,,,68,127
86022,note_on,1,0,0,,8,,,68,127
86022,note_on,0,0,0,,12,,,59,127
86022,note_on,0,0,0,,4,,,52,127
86263,note_off,241,0,0,,8,,,68,127
86264,note_on,1,0,0,,10,,,69,127
86505,note_off,241,0,0,,10,,,69,127
86505,note_off,0,0,0,,4,,,52,127
86505,note_off,0,0,0,,12,,,59,127
86506,note_on,1,0,0,,12,,,71,127
86506,note_on,0,0,0,,12,,,59,127
86506,note_on,0,0,0,,4,,,52,127
86747,note_off,241,0,0,,12,,,71,127
86748,note_off,1,0,0,,4,,,76,127
86748,note_on,0,0,0,,2,,,74,127
86989,note_off,241,0,0,,2,,,74,127
86989,note_off,0,0,0,,4,,,52,127
86989,note_off,0,0,0,,12,,,59,127
86990,note_on,1,0,0,,0,,,72,127
86990,note_on,0,0,0,,12,,,59,127
86990,note_on,0,0,0,,4,,,52,127
87231,note_off,241,0,0,,0,,,72,127
87232,note_on,1,0,0,,12,,,71,127
87475,note_off,243,0,0,,4,,,52,127
87475,note_off,0,0,0,,12,,,59,127
87485,note_on,10,0,0,,0,,,72,127
87488,note_off,3,0,0,,12,,,71,127
87727,note_off,239,0,0,,0,,,72,127
87728,note_on,1,0,0,,4,,,76,127
87969,note_off,241,0,0,,4,,,76,127
87970,note_on,1,0,0,,2,,,74,127
87970,note_on,0,0,0,,0,,,60,127
87970,note_on,0,0,0,,10,,,57,127
88090,note_off,120,0,0,,2,,,74,127
88091,note_on,1,0,0,,0,,,72,127
88211,note_off,120,0,0,,0,,,72,127
88212,note_on,1,0,0,,12,,,71,127
88453,note_off,241,0,0,,12,,,71,127
88453,note_off,0,0,0,,10,,,57,127
88453,note_off,0,0,0,,0,,,60,127
88454,note_on,1,0,0,,0,,,72,127
88454,note_on,0,0,0,,10,,,57,127
88454,note_on,0,0,0,,0,,,60,127
88574,note_off,120,0,0,,0,,,72,127
88575,note_on,1,0,0,,12,,,71,127
88695,note_off,120,0,0,,12,,,71,127
88696,note_on,1,0,0,,10,,,69,127
88937,note_off,241,0,0,,10,,,69,127
88937,note_off,0,0,0,,0,,,60,127
88937,note_off,0,0,0,,10,,,57,127
88938,note_on,1,0,0,,12,,,71,127
88938,note_on,0,0,0,,0,,,60,127
88938,note_on,0,0,0,,10,,,57,127
89179,note_off,241,0,0,,12,,,71,127
89180,note_on,1,0,0,,0,,,72,127
89421,note_off,241,0,0,,10,,,57,127
89421,note_off,0,0,0,,0,,,60,127
89432,note_on,11,0,0,,2,,,62,127
89432,note_on,0,0,0,,5,,,53,127
89543,note_off,111,0,0,,0,,,72,127
89674,note_on,131,0,0,,5,,,77,127
89915,note_off,241,0,0,,5,,,77,127
89915,note_off,0,0,0,,5,,,53,127
89915,note_off,0,0,0,,2,,,62,127
89916,note_on,1,0,0,,4,,,76,127
89916,note_on,0,0,0,,2,,,62,127
89916,note_on,0,0,0,,5,,,53,127
90036,note_off,120,0,0,,4,,,76,127
90037,note_on,1,0,0,,2,,,74,127
90157,note_off,120,0,0,,2,,,74,127
90158,note_on,1,0,0,,0,,,72,127
90399,note_off,241,0,0,,0,,,72,127
90399,note_off,0,0,0,,5,,,53,127
90399,note_off,0,0,0,,2,,,62,127
90400,note_on,1,0,0,,2,,,74,127
90400,note_on,0,0,0,,2,,,62,127
90400,note_on,0,0,0,,5,,,53,127
90520,note_off,120,0,0,,2,,,74,127
90521,note_on,1,0,0,,0,,,72,127
90641,note_off,120,0,0,,0,,,72,127
90642,note_on,1,0,0,,12,,,71,127
90883,note_off,241,0,0,,12,,,71,127
90883,note_off,0,0,0,,5,,,53,127
90883,note_off,0,0,0,,2,,,62,127
90884,note_on,1,0,0,,0,,,72,127
90884,note_on,0,0,0,,2,,,62,127
90884,note_on,0,0,0,,5,,,53,127
91125,note_off,241,0,0,,0,,,72,127
91126,note_on,1,0,0,,2,,,74,127
91367,note_off,241,0,0,,2,,,62,127
91368,note_off,1,0,0,,5,,,53,127
91378,note_on,10,0,0,,0,,,60,127
91378,note_on,0,0,0,,4,,,52,127
91489,note_off,111,0,0,,2,,,74,127
91620,note_on,131,0,0,,7,,,79,127
91861,note_off,241,0,0,,7,,,79,127
91861,note_off,0,0,0,,4,,,52,127
91861,note_off,0,0,0,,0,,,60,127
91862,note_on,1,0,0,,5,,,77,127
91862,note_on,0,0,0,,0,,,60,127
91862,note_on,0,0,0,,4,,,52,127
91982,note_off,120,0,0,,5,,,77,127
91983,note_on,1,0,0,,4,,,76,127
92103,note_off,120,0,0,,4,,,76,127
92104,note_on,1,0,0,,2,,,74,127
92345,note_off,241,0,0,,2,,,74,127
92345,note_off,0,0,0,,4,,,52,127
92345,note_off,0,0,0,,0,,,60,127
92346,note_on,1,0,0,,4,,,76,127
92346,note_on,0,0,0,,0,,,60,127
92346,note_on,0,0,0,,4,,,52,127
92466,note_off,120,0,0,,4,,,76,127
92467,note_on,1,0,0,,2,,,74,127
92587,note_off,120,0,0,,2,,,74,127
92588,note_on,1,0,0,,0,,,72,127
92829,note_off,241,0,0,,0,,,72,127
92829,note_off,0,0,0,,4,,,52,127
92829,note_off,0,0,0,,0,,,60,127
92830,note_on,1,0,0,,2,,,74,127
92830,note_on,0,0,0,,0,,,60,127
92830,note_on,0,0,0,,4,,,52,127
93071,note_off,241,0,0,,2,,,74,127
93072,note_on,1,0,0,,4,,,76,127
93313,note_off,241,0,0,,4,,,76,127
93313,note_off,0,0,0,,4,,,52,127
93313,note_off,0,0,0,,0,,,60,127
93324,note_on,11,0,0,,0,,,72,127
93324,note_on,0,0,0,,5,,,53,127
93324,note_on,0,0,0,,0,,,60,127
93444,note_off,120,0,0,,0,,,72,127
93445,note_on,1,0,0,,12,,,71,127
93565,note_off,120,0,0,,12,,,71,127
93566,note_on,1,0,0,,2,,,74,127
93686,note_off,120,0,0,,2,,,74,127
93687,note_on,1,0,0,,0,,,72,127
93807,note_off,120,0,0,,0,,,72,127
93807,note_off,0,0,0,,0,,,60,127
93807,note_off,0,0,0,,5,,,53,127
93808,note_on,1,0,0,,4,,,76,127
93808,note_on,0,0,0,,0,,,60,127
93808,note_on,0,0,0,,5,,,53,127
93928,note_off,120,0,0,,4,,,76,127
93929,note_on,1,0,0,,2,,,74,127
94049,note_off,120,0,0,,2,,,74,127
94050,note_on,1,0,0,,5,,,77,127
94170,note_off,120,0,0,,5,,,77,127
94171,note_on,1,0,0,,4,,,76,127
94291,note_off,120,0,0,,4,,,76,127
94291,note_off,0,0,0,,5,,,53,127
94291,note_off,0,0,0,,0,,,60,127
94292,note_on,1,0,0,,10,,,81,127
94292,note_on,0,0,0,,6,,,54,127
94292,note_on,0,0,0,,0,,,60,127
94776,note_off,484,0,0,,0,,,60,127
94776,note_off,0,0,0,,6,,,54,127
94776,note_off,0,0,0,,10,,,81,127
94777,note_on,1,0,0,,0,,,72,127
94777,note_on,0,0,0,,6,,,54,127
94777,note_on,0,0,0,,0,,,60,127
95261,note_off,484,0,0,,0,,,60,127
95261,note_off,0,0,0,,6,,,54,127
95261,note_off,0,0,0,,0,,,72,127
95262,note_on,1,0,0,,2,,,74,127
95262,note_on,0,0,0,,2,,,62,127
95262,note_on,0,0,0,,7,,,55,127
95382,note_off,120,0,0,,2,,,74,127
95383,note_on,1,0,0,,0,,,72,127
95503,note_off,120,0,0,,0,,,72,127
95504,note_on,1,0,0,,12,,,71,127
95624,note_off,120,0,0,,12,,,71,127
95625,note_on,1,0,0,,0,,,72,127
95745,note_off,120,0,0,,0,,,72,127
95745,note_off,0,0,0,,2,,,62,127
95746,note_on,1,0,0,,12,,,71,127
95746,note_on,0,0,0,,7,,,43,127
96230,note_off,484,0,0,,7,,,55,127
96959,note_off,729,0,0,,12,,,71,127
97200,note_off,241,0,0,,7,,,43,127
97232,note_on,32,0,0,,0,,,60,127
97232,note_on,0,0,0,,10,,,57,127
97475,note_on,243,0,0,,0,,,84,127
97716,note_off,241,0,0,,0,,,84,127
97716,note_off,0,0,0,,10,,,57,127
97716,note_off,0,0,0,,0,,,60,127
97717,note_on,1,0,0,,0,,,60,127
97717,note_on,0,0,0,,10,,,57,127
97717,note_on,0,0,0,,12,,,83,127
97837,note_off,120,0,0,,12,,,83,127
97838,note_on,1,0,0,,10,,,81,127
97958,note_off,120,0,0,,10,,,81,127
97959,note_on,1,0,0,,7,,,79,127
98200,note_off,241,0,0,,7,,,79,127
98201,note_off,1,0,0,,10,,,57,127
98201,note_off,0,0,0,,0,,,60,127
98201,note_on,0,0,0,,10,,,81,127
98321,note_off,120,0,0,,10,,,81,127
98322,note_on,1,0,0,,7,,,79,127
98442,note_off,120,0,0,,7,,,79,127
98443,note_on,1,0,0,,6,,,78,127
98684,note_off,241,0,0,,6,,,78,127
98685,note_on,1,0,0,,10,,,57,127
98685,note_on,0,0,0,,0,,,60,127
98685,note_on,0,0,0,,7,,,79,127
98926,note_off,241,0,0,,7,,,79,127
98927,note_on,1,0,0,,10,,,81,127
99168,note_off,241,0,0,,0,,,60,127
99168,note_off,0,0,0,,10,,,57,127
99169,note_on,1,0,0,,12,,,59,127
99169,note_on,0,0,0,,2,,,62,127
99290,note_off,121,0,0,,10,,,81,127
99411,note_on,121,0,0,,10,,,81,127
99652,note_off,241,0,0,,10,,,81,127
99652,note_off,0,0,0,,2,,,62,127
99652,note_off,0,0,0,,12,,,59,127
99653,note_on,1,0,0,,12,,,59,127
99653,note_on,0,0,0,,2,,,62,127
99653,note_on,0,0,0,,7,,,79,127
99773,note_off,120,0,0,,7,,,79,127
99774,note_on,1,0,0,,5,,,77,127
99894,note_off,120,0,0,,5,,,77,127
99895,note_on,1,0,0,,4,,,76,127
100136,note_off,241,0,0,,4,,,76,127
100137,note_off,1,0,0,,2,,,62,127
100137,note_off,0,0,0,,12,,,59,127
100137,note_on,0,0,0,,5,,,77,127
100257,note_off,120,0,0,,5,,,77,127
100258,note_on,1,0,0,,4,,,76,127
100378,note_off,120,0,0,,4,,,76,127
100379,note_on,1,0,0,,2,,,74,127
100620,note_off,241,0,0,,2,,,74,127
100621,note_on,1,0,0,,2,,,62,127
100621,note_on,0,0,0,,12,,,59,127
100621,note_on,0,0,0,,4,,,76,127
100862,note_off,241,0,0,,4,,,76,127
100863,note_on,1,0,0,,5,,,77,127
101104,note_off,241,0,0,,12,,,59,127
101104,note_off,0,0,0,,2,,,62,127
101105,note_on,1,0,0,,0,,,60,127
101105,note_on,0,0,0,,4,,,64,127
101226,note_off,121,0,0,,5,,,77,127
101347,note_on,121,0,0,,7,,,79,127
101588,note_off,241,0,0,,7,,,79,127
101588,note_off,0,0,0,,4,,,64,127
101588,note_off,0,0,0,,0,,,60,127
101589,note_on,1,0,0,,4,,,64,127
101589,note_on,0,0,0,,0,,,60,127
101589,note_on,0,0,0,,5,,,77,127
101709,note_off,120,0,0,,5,,,77,127
101710,note_on,1,0,0,,4,,,76,127
101830,note_off,120,0,0,,4,,,76,127
101831,note_on,1,0,0,,2,,,74,127
102072,note_off,241,0,0,,2,,,74,127
102073,note_off,1,0,0,,0,,,60,127
102073,note_off,0,0,0,,4,,,64,127
102073,note_on,0,0,0,,4,,,76,127
102193,note_off,120,0,0,,4,,,76,127
102194,note_on,1,0,0,,2,,,74,127
102314,note_off,120,0,0,,2,,,74,127
102315,note_on,1,0,0,,0,,,72,127
102556,note_off,241,0,0,,0,,,72,127
102557,note_on,1,0,0,,4,,,52,127
102557,note_on,0,0,0,,0,,,60,127
102557,note_on,0,0,0,,2,,,74,127
102798,note_off,241,0,0,,2,,,74,127
102799,note_on,1,0,0,,4,,,76,127
103040,note_off,241,0,0,,4,,,76,127
103040,note_off,0,0,0,,0,,,60,127
103040,note_off,0,0,0,,4,,,52,127
103041,note_on,1,0,0,,5,,,53,127
103041,note_on,0,0,0,,10,,,81,127
103282,note_off,241,0,0,,10,,,81,127
103283,note_on,1,0,0,,5,,,77,127
103524,note_off,241,0,0,,5,,,77,127
103524,note_off,0,0,0,,5,,,53,127
103525,note_on,1,0,0,,5,,,65,127
103525,note_on,0,0,0,,5,,,53,127
103525,note_on,0,0,0,,10,,,69,127
103766,note_off,241,0,0,,10,,,69,127
103767,note_on,1,0,0,,2,,,74,127
104008,note_off,241,0,0,,2,,,74,127
104008,note_off,0,0,0,,5,,,53,127
104008,note_off,0,0,0,,5,,,65,127
104009,note_on,1,0,0,,7,,,55,127
104009,note_on,0,0,0,,4,,,64,127
104009,note_on,0,0,0,,0,,,72,127
104493,note_off,484,0,0,,4,,,64,127
104493,note_off,0,0,0,,7,,,55,127
104494,note_on,1,0,0,,7,,,55,127
104494,note_on,0,0,0,,2,,,62,127
104615,note_off,121,0,0,,0,,,72,127
104615,note_on,0,0,0,,12,,,71,127
104735,note_off,120,0,0,,12,,,71,127
104736,note_on,1,0,0,,10,,,69,127
104856,note_off,120,0,0,,10,,,69,127
104857,note_on,1,0,0,,12,,,71,127
104977,note_off,120,0,0,,2,,,62,127
104977,note_off,0,0,0,,7,,,55,127
104978,note_off,1,0,0,,12,,,71,127
104998,note_on,20,0,0,,10,,,57,127
104998,note_on,0,0,0,,0,,,60,127
105241,note_on,243,0,0,,0,,,84,127
105482,note_off,241,0,0,,0,,,84,127
105482,note_off,0,0,0,,0,,,60,127
105482,note_off,0,0,0,,10,,,57,127
105483,note_on,1,0,0,,12,,,83,127
105483,note_on,0,0,0,,0,,,60,127
105483,note_on,0,0,0,,10,,,57,127
105603,note_off,120,0,0,,12,,,83,127
105604,note_on,1,0,0,,10,,,81,127
105724,note_off,120,0,0,,10,,,81,127
105725,note_on,1,0,0,,7,,,79,127
105966,note_off,241,0,0,,7,,,79,127
105967,note_off,1,0,0,,10,,,57,127
105967,note_off,0,0,0,,0,,,60,127
105967,note_on,0,0,0,,10,,,81,127
106087,note_off,120,0,0,,10,,,81,127
106088,note_on,1,0,0,,7,,,79,127
106208,note_off,120,0,0,,7,,,79,127
106209,note_on,1,0,0,,6,,,78,127
106450,note_off,241,0,0,,6,,,78,127
106451,note_on,1,0,0,,7,,,79,127
106451,note_on,0,0,0,,0,,,60,127
106451,note_on,0,0,0,,10,,,57,127
106692,note_off,241,0,0,,7,,,79,127
106693,note_on,1,0,0,,10,,,81,127
106934,note_off,241,0,0,,10,,,57,127
106934,note_off,0,0,0,,0,,,60,127
106935,note_on,1,0,0,,2,,,62,127
106935,note_on,0,0,0,,12,,,59,127
107056,note_off,121,0,0,,10,,,81,127
107177,note_on,121,0,0,,10,,,81,127
107418,note_off,241,0,0,,10,,,81,127
107418,note_off,0,0,0,,12,,,59,127
107418,note_off,0,0,0,,2,,,62,127
107419,note_on,1,0,0,,7,,,79,127
107419,note_on,0,0,0,,2,,,62,127
107419,note_on,0,0,0,,12,,,59,127
107539,note_off,120,0,0,,7,,,79,127
107540,note_on,1,0,0,,5,,,77,127
107660,note_off,120,0,0,,5,,,77,127
107661,note_on,1,0,0,,4,,,76,127
107902,note_off,241,0,0,,4,,,76,127
107903,note_off,1,0,0,,12,,,59,127
107903,note_off,0,0,0,,2,,,62,127
107903,note_on,0,0,0,,5,,,77,127
108023,note_off,120,0,0,,5,,,77,127
108024,note_on,1,0,0,,4,,,76,127
108144,note_off,120,0,0,,4,,,76,127
108145,note_on,1,0,0,,2,,,74,127
108386,note_off,241,0,0,,2,,,74,127
108387,note_on,1,0,0,,4,,,76,127
108387,note_on,0,0,0,,2,,,62,127
108387,note_on,0,0,0,,12,,,59,127
108628,note_off,241,0,0,,4,,,76,127
108629,note_on,1,0,0,,5,,,77,127
108870,note_off,241,0,0,,12,,,59,127
108870,note_off,0,0,0,,2,,,62,127
108871,note_on,1,0,0,,0,,,60,127
108871,note_on,0,0,0,,4,,,64,127
108992,note_off,121,0,0,,5,,,77,127
109113,note_on,121,0,0,,7,,,79,127
109354,note_off,241,0,0,,7,,,79,127
109354,note_off,0,0,0,,4,,,64,127
109354,note_off,0,0,0,,0,,,60,127
109355,note_on,1,0,0,,5,,,77,127
109355,note_on,0,0,0,,0,,,60,127
109355,note_on,0,0,0,,4,,,64,127
109475,note_off,120,0,0,,5,,,77,127
109476,note_on,1,0,0,,4,,,76,127
109596,note_off,120,0,0,,4,,,76,127
109597,note_on,1,0,0,,2,,,74,127
109838,note_off,241,0,0,,2,,,74,127
109839,note_off,1,0,0,,4,,,64,127
109839,note_off,0,0,0,,0,,,60,127
109839,note_on,0,0,0,,4,,,76,127
109959,note_off,120,0,0,,4,,,76,127
109960,note_on,1,0,0,,2,,,74,127
110080,note_off,120,0,0,,2,,,74,127
110081,note_on,1,0,0,,0,,,72,127
110322,note_off,241,0,0,,0,,,72,127
110323,note_on,1,0,0,,2,,,74,127
110323,note_on,0,0,0,,4,,,52,127
110323,note_on,0,0,0,,0,,,60,127
110564,note_off,241,0,0,,2,,,74,127
110565,note_on,1,0,0,,4,,,76,127
110806,note_off,241,0,0,,4,,,76,127
110806,note_off,0,0,0,,0,,,60,127
110806,note_off,0,0,0,,4,,,52,127
110807,note_on,1,0,0,,10,,,81,127
110807,note_on,0,0,0,,5,,,53,127
110807,note_on,0,0,0,,0,,,60,127
111048,note_off,241,0,0,,10,,,81,127
111049,note_on,1,0,0,,5,,,77,127
111290,note_off,241,0,0,,5,,,77,127
111290,note_off,0,0,0,,0,,,60,127
111290,note_off,0,0,0,,5,,,53,127
111291,note_on,1,0,0,,10,,,69,127
111291,note_on,0,0,0,,5,,,53,127
111291,note_on,0,0,0,,5,,,65,127
111532,note_off,241,0,0,,10,,,69,127
111533,note_on,1,0,0,,2,,,74,127
111774,note_off,241,0,0,,2,,,74,127
111774,note_off,0,0,0,,5,,,65,127
111774,note_off,0,0,0,,5,,,53,127
111775,note_on,1,0,0,,0,,,72,127
111775,note_on,0,0,0,,4,,,64,127
111775,note_on,0,0,0,,7,,,55,127
112259,note_off,484,0,0,,7,,,55,127
112259,note_off,0,0,0,,4,,,64,127
112260,note_on,1,0,0,,2,,,62,127
112260,note_on,0,0,0,,7,,,55,127
112381,note_off,121,0,0,,0,,,72,127
112381,note_on,0,0,0,,12,,,71,127
112501,note_off,120,0,0,,12,,,71,127
112502,note_on,1,0,0,,10,,,69,127
112622,note_off,120,0,0,,10,,,69,127
112623,note_on,1,0,0,,12,,,71,127
112743,note_off,120,0,0,,7,,,55,127
112743,note_off,0,0,0,,2,,,62,127
112744,note_off,1,0,0,,12,,,71,127
112764,note_on,20,0,0,,10,,,57,127
112764,note_on,0,0,0,,0,,,60,127
113007,note_on,243,0,0,,0,,,72,127
113127,note_off,120,0,0,,0,,,72,127
113128,note_on,1,0,0,,2,,,74,127
113248,note_off,120,0,0,,2,,,74,127
113248,note_off,0,0,0,,0,,,60,127
113248,note_off,0,0,0,,10,,,57,127
113249,note_on,1,0,0,,5,,,53,127
113249,note_on,0,0,0,,4,,,76,127
113369,note_off,120,0,0,,4,,,76,127
113370,note_on,1,0,0,,5,,,77,127
113490,note_off,120,0,0,,5,,,77,127
113491,note_on,1,0,0,,7,,,79,127
113611,note_off,120,0,0,,7,,,79,127
113612,note_on,1,0,0,,10,,,81,127
113732,note_off,120,0,0,,10,,,81,127
113733,note_off,1,0,0,,5,,,53,127
113733,note_on,0,0,0,,10,,,81,127
113974,note_off,241,0,0,,10,,,81,127
113975,note_on,1,0,0,,7,,,79,127
114218,note_on,243,0,0,,7,,,55,127
114218,note_on,0,0,0,,7,,,67,127
114459,note_off,241,0,0,,7,,,55,127
114460,note_on,1,0,0,,12,,,59,127
114701,note_off,241,0,0,,12,,,59,127
114702,note_off,1,0,0,,7,,,67,127
114702,note_off,0,0,0,,7,,,79,127
114702,note_on,0,0,0,,10,,,57,127
114702,note_on,0,0,0,,0,,,60,127
114945,note_on,243,0,0,,0,,,72,127
115065,note_off,120,0,0,,0,,,72,127
115066,note_on,1,0,0,,2,,,74,127
115186,note_off,120,0,0,,2,,,74,127
115186,note_off,0,0,0,,0,,,60,127
115186,note_off,0,0,0,,10,,,57,127
115187,note_on,1,0,0,,5,,,53,127
115187,note_on,0,0,0,,4,,,76,127
115307,note_off,120,0,0,,4,,,76,127
115308,note_on,1,0,0,,5,,,77,127
115428,note_off,120,0,0,,5,,,77,127
115429,note_on,1,0,0,,7,,,79,127
115549,note_off,120,0,0,,7,,,79,127
115550,note_on,1,0,0,,10,,,81,127
115670,note_off,120,0,0,,10,,,81,127
115671,note_off,1,0,0,,5,,,53,127
115671,note_on,0,0,0,,10,,,81,127
115912,note_off,241,0,0,,10,,,81,127
115913,note_on,1,0,0,,7,,,79,127
116156,note_on,243,0,0,,7,,,55,127
116156,note_on,0,0,0,,7,,,67,127
116397,note_off,241,0,0,,7,,,55,127
116398,note_on,1,0,0,,12,,,59,127
116639,note_off,241,0,0,,12,,,59,127
116640,note_off,1,0,0,,7,,,67,127
116640,note_off,0,0,0,,7,,,79,127
116640,note_on,0,0,0,,0,,,60,127
116640,note_on,0,0,0,,10,,,57,127
116883,note_on,243,0,0,,0,,,72,127
117003,note_off,120,0,0,,0,,,72,127
117004,note_on,1,0,0,,2,,,74,127
117124,note_off,120,0,0,,2,,,74,127
117124,note_off,0,0,0,,10,,,57,127
117124,note_off,0,0,0,,0,,,60,127
117125,note_on,1,0,0,,5,,,53,127
117125,note_on,0,0,0,,4,,,76,127
117245,note_off,120,0,0,,4,,,76,127
117246,note_on,1,0,0,,5,,,77,127
117366,note_off,120,0,0,,5,,,77,127
117367,note_on,1,0,0,,7,,,79,127
117487,note_off,120,0,0,,7,,,79,127
117488,note_on,1,0,0,,10,,,81,127
117608,note_off,120,0,0,,10,,,81,127
117609,note_off,1,0,0,,5,,,53,127
117609,note_on,0,0,0,,10,,,81,127
117850,note_off,241,0,0,,10,,,81,127
117851,note_on,1,0,0,,7,,,79,127
118094,note_on,243,0,0,,12,,,59,127
118094,note_on,0,0,0,,2,,,62,127
118335,note_off,241,0,0,,7,,,79,127
118336,note_on,1,0,0,,7,,,79,127
118577,note_off,241,0,0,,7,,,79,127
118577,note_off,0,0,0,,2,,,62,127
118577,note_off,0,0,0,,12,,,59,127
118588,note_on,11,0,0,,10,,,81,127
118588,note_on,0,0,0,,0,,,60,127
118588,note_on,0,0,0,,4,,,64,127
118708,note_off,120,0,0,,10,,,81,127
118711,note_on,3,0,0,,7,,,79,127
118831,note_off,120,0,0,,7,,,79,127
118832,note_on,1,0,0,,5,,,77,127
118952,note_off,120,0,0,,5,,,77,127
118955,note_on,3,0,0,,4,,,76,127
119072,note_off,117,0,0,,4,,,64,127
119072,note_off,0,0,0,,0,,,60,127
119075,note_off,3,0,0,,4,,,76,127
119078,note_on,3,0,0,,5,,,77,127
119078,note_on,0,0,0,,0,,,60,127
119078,note_on,0,0,0,,4,,,52,127
119198,note_off,120,0,0,,5,,,77,127
119201,note_on,3,0,0,,4,,,76,127
119321,note_off,120,0,0,,4,,,76,127
119324,note_on,3,0,0,,2,,,74,127
119444,note_off,120,0,0,,2,,,74,127
119447,note_on,3,0,0,,0,,,72,127
119563,note_off,116,0,0,,4,,,52,127
119563,note_off,0,0,0,,0,,,60,127
119567,note_off,4,0,0,,0,,,72,127
119570,note_on,3,0,0,,2,,,74,127
119570,note_on,0,0,0,,5,,,53,127
119570,note_on,0,0,0,,0,,,60,127
119690,note_off,120,0,0,,2,,,74,127
119693,note_on,3,0,0,,0,,,72,127
119813,note_off,120,0,0,,0,,,72,127
119816,note_on,3,0,0,,12,,,71,127
119936,note_off,120,0,0,,12,,,71,127
119939,note_on,3,0,0,,10,,,69,127
120055,note_off,116,0,0,,0,,,60,127
120055,note_off,0,0,0,,5,,,53,127
120059,note_off,4,0,0,,10,,,69,127
120062,note_on,3,0,0,,2,,,74,127
120062,note_on,0,0,0,,7,,,55,127
120062,note_on,0,0,0,,12,,,47,127
120303,note_off,241,0,0,,2,,,74,127
120309,note_on,6,0,0,,7,,,79,127
120545,note_off,236,0,0,,12,,,47,127
120545,note_off,0,0,0,,7,,,55,127
120568,note_off,23,0,0,,7,,,79,127
120569,note_on,1,0,0,,10,,,81,127
120569,note_on,0,0,0,,7,,,55,127
120569,note_on,0,0,0,,0,,,48,127
120690,note_off,121,0,0,,10,,,81,127
120695,note_on,5,0,0,,7,,,79,127
120816,note_off,121,0,0,,7,,,79,127
120822,note_on,6,0,0,,5,,,77,127
120943,note_off,121,0,0,,5,,,77,127
120949,note_on,6,0,0,,4,,,76,127
121064,note_off,115,0,0,,0,,,48,127
121064,note_off,0,0,0,,7,,,55,127
121070,note_off,6,0,0,,4,,,76,127
121076,note_on,6,0,0,,5,,,77,127
121076,note_on,0,0,0,,4,,,52,127
121076,note_on,0,0,0,,4,,,40,127
121197,note_off,121,0,0,,5,,,77,127
121203,note_on,6,0,0,,4,,,76,127
121324,note_off,121,0,0,,4,,,76,127
121330,note_on,6,0,0,,2,,,74,127
121451,note_off,121,0,0,,2,,,74,127
121457,note_on,6,0,0,,0,,,72,127
121571,note_off,114,0,0,,4,,,40,127
121571,note_off,0,0,0,,4,,,52,127
121579,note_off,8,0,0,,0,,,72,127
121585,note_on,6,0,0,,2,,,74,127
121585,note_on,0,0,0,,5,,,41,127
121585,note_on,0,0,0,,5,,,53,127
121706,note_off,121,0,0,,2,,,74,127
121712,note_on,6,0,0,,0,,,72,127
121833,note_off,121,0,0,,0,,,72,127
121839,note_on,6,0,0,,12,,,71,127
121960,note_off,121,0,0,,12,,,71,127
121966,note_on,6,0,0,,10,,,69,127
122080,note_off,114,0,0,,5,,,53,127
122080,note_off,0,0,0,,5,,,41,127
122101,note_off,21,0,0,,10,,,69,127
122114,note_on,13,0,0,,7,,,43,127
122114,note_on,0,0,0,,7,,,55,127
122114,note_on,0,0,0,,4,,,76,127
122197,note_off,83,0,0,,4,,,76,127
122201,note_on,4,0,0,,2,,,74,127
122284,note_off,83,0,0,,2,,,74,127
122287,note_on,3,0,0,,4,,,76,127
122370,note_off,83,0,0,,4,,,76,127
122375,note_on,5,0,0,,2,,,74,127
122458,note_off,83,0,0,,2,,,74,127
122463,note_on,5,0,0,,0,,,72,127
122546,note_off,83,0,0,,0,,,72,127
122549,note_on,3,0,0,,2,,,74,127
122618,note_off,69,0,0,,7,,,55,127
122618,note_off,0,0,0,,7,,,43,127
122632,note_off,14,0,0,,2,,,74,127
122659,note_on,27,0,0,,0,,,36,127
122659,note_on,0,0,0,,0,,,48,127
122659,note_on,0,0,0,,0,,,72,127
125115,note_off,2456,0,0,,0,,,72,127
125115,note_off,0,0,0,,0,,,48,127
125115,note_off,0,0,0,,0,,,36,127
125952,end_of_track,837,1,0,,,,,,
