tick,type,time,meta,track,program,channel,pitch,tempo,note,velocity
0,copyright,0,1,0,,,,,,
0,program_change,0,0,0,6,0,,,,
0,pitchwheel,0,0,0,,0,0,,,
0,program_change,0,0,0,6,1,,,,
0,pitchwheel,0,0,0,,1,-590,,,
0,program_change,0,0,0,6,2,,,,
0,pitchwheel,0,0,0,,2,-272,,,
0,program_change,0,0,0,6,3,,,,
0,pitchwheel,0,0,0,,3,-353,,,
0,program_change,0,0,0,6,4,,,,
0,pitchwheel,0,0,0,,4,-560,,,
0,program_change,0,0,0,6,5,,,,
0,pitchwheel,0,0,0,,5,-80,,,
0,program_change,0,0,0,6,6,,,,
0,pitchwheel,0,0,0,,6,-625,,,
0,program_change,0,0,0,6,7,,,,
0,pitchwheel,0,0,0,,7,-130,,,
0,program_change,0,0,0,6,8,,,,
0,pitchwheel,0,0,0,,8,-512,,,
0,program_change,0,0,0,6,10,,,,
0,pitchwheel,0,0,0,,10,-464,,,
0,program_change,0,0,0,6,11,,,,
0,pitchwheel,0,0,0,,11,-208,,,
0,program_change,0,0,0,6,12,,,,
0,pitchwheel,0,0,0,,12,-553,,,
0,set_tempo,0,1,0,,,,500000,,
110,note_on,110,0,0,,0,,,48,127
329,note_on,219,0,0,,7,,,79,127
547,note_off,218,0,0,,7,,,79,127
548,note_on,1,0,0,,10,,,81,127
620,note_off,72,0,0,,10,,,81,127
621,note_on,1,0,0,,7,,,79,127
693,note_off,72,0,0,,7,,,79,127
694,note_on,1,0,0,,5,,,77,127
766,note_off,72,0,0,,5,,,77,127
766,note_off,0,0,0,,0,,,48,127
767,note_on,1,0,0,,0,,,60,127
767,note_on,0,0,0,,4,,,76,127
985,note_off,218,0,0,,0,,,60,127
986,note_off,1,0,0,,4,,,76,127
986,note_on,0,0,0,,0,,,60,127
1204,note_off,218,0,0,,0,,,60,127
1205,note_on,1,0,0,,0,,,48,127
1205,note_on,0,0,0,,7,,,79,127
1423,note_off,218,0,0,,7,,,79,127
1424,note_on,1,0,0,,10,,,81,127
1496,note_off,72,0,0,,10,,,81,127
1497,note_on,1,0,0,,7,,,79,127
1569,note_off,72,0,0,,7,,,79,127
1570,note_on,1,0,0,,5,,,77,127
1642,note_off,72,0,0,,5,,,77,127
1642,note_off,0,0,0,,0,,,48,127
1643,note_on,1,0,0,,0,,,48,127
1643,note_on,0,0,0,,4,,,76,127
1861,note_off,218,0,0,,0,,,48,127
1862,note_off,1,0,0,,4,,,76,127
1862,note_on,0,0,0,,5,,,53,127
1972,note_on,110,0,0,,10,,,81,127
2081,note_off,109,0,0,,10,,,81,127
2081,note_off,0,0,0,,5,,,53,127
2082,note_on,1,0,0,,10,,,57,127
2082,note_on,0,0,0,,7,,,79,127
2191,note_off,109,0,0,,7,,,79,127
2192,note_on,1,0,0,,5,,,77,127
2301,note_off,109,0,0,,5,,,77,127
2301,note_off,0,0,0,,10,,,57,127
2302,note_on,1,0,0,,7,,,55,127
2302,note_on,0,0,0,,4,,,76,127
2411,note_off,109,0,0,,4,,,76,127
2412,note_on,1,0,0,,2,,,74,127
2521,note_off,109,0,0,,2,,,74,127
2521,note_off,0,0,0,,7,,,55,127
2522,note_on,1,0,0,,5,,,53,127
2522,note_on,0,0,0,,0,,,72,127
2631,note_off,109,0,0,,0,,,72,127
2632,note_on,1,0,0,,12,,,71,127
2741,note_off,109,0,0,,12,,,71,127
2741,note_off,0,0,0,,5,,,53,127
2742,note_on,1,0,0,,4,,,52,127
2742,note_on,0,0,0,,0,,,84,127
2961,note_on,219,0,0,,0,,,72,127
3176,note_off,215,0,0,,0,,,84,127
3179,note_off,3,0,0,,0,,,72,127
3180,note_on,1,0,0,,2,,,74,127
3234,note_off,54,0,0,,2,,,74,127
3235,note_on,1,0,0,,0,,,72,127
3289,note_off,54,0,0,,0,,,72,127
3290,note_on,1,0,0,,2,,,74,127
3344,note_off,54,0,0,,2,,,74,127
3345,note_on,1,0,0,,0,,,72,127
3399,note_off,54,0,0,,0,,,72,127
3399,note_off,0,0,0,,4,,,52,127
3400,note_on,1,0,0,,4,,,52,127
3400,note_on,0,0,0,,2,,,74,127
3454,note_off,54,0,0,,2,,,74,127
3455,note_on,1,0,0,,0,,,72,127
3509,note_off,54,0,0,,0,,,72,127
3510,note_on,1,0,0,,12,,,71,127
3564,note_off,54,0,0,,12,,,71,127
3565,note_on,1,0,0,,0,,,72,127
3629,note_on,64,0,0,,5,,,53,127
3632,note_off,3,0,0,,4,,,52,127
3728,note_off,96,0,0,,0,,,72,127
3738,note_on,10,0,0,,10,,,81,127
3847,note_off,109,0,0,,10,,,81,127
3847,note_off,0,0,0,,5,,,53,127
3848,note_on,1,0,0,,10,,,57,127
3848,note_on,0,0,0,,7,,,79,127
3957,note_off,109,0,0,,7,,,79,127
3958,note_on,1,0,0,,5,,,77,127
4067,note_off,109,0,0,,5,,,77,127
4067,note_off,0,0,0,,10,,,57,127
4068,note_on,1,0,0,,7,,,55,127
4068,note_on,0,0,0,,4,,,76,127
4177,note_off,109,0,0,,4,,,76,127
4178,note_on,1,0,0,,2,,,74,127
4287,note_off,109,0,0,,2,,,74,127
4287,note_off,0,0,0,,7,,,55,127
4288,note_on,1,0,0,,5,,,53,127
4288,note_on,0,0,0,,0,,,72,127
4397,note_off,109,0,0,,0,,,72,127
4398,note_on,1,0,0,,12,,,71,127
4507,note_off,109,0,0,,12,,,71,127
4507,note_off,0,0,0,,5,,,53,127
4508,note_on,1,0,0,,4,,,52,127
4508,note_on,0,0,0,,0,,,84,127
4727,note_on,219,0,0,,0,,,72,127
4942,note_off,215,0,0,,0,,,84,127
4945,note_off,3,0,0,,0,,,72,127
4946,note_on,1,0,0,,2,,,74,127
5000,note_off,54,0,0,,2,,,74,127
5001,note_on,1,0,0,,0,,,72,127
5055,note_off,54,0,0,,0,,,72,127
5056,note_on,1,0,0,,2,,,74,127
5110,note_off,54,0,0,,2,,,74,127
5111,note_on,1,0,0,,0,,,72,127
5165,note_off,54,0,0,,0,,,72,127
5165,note_off,0,0,0,,4,,,52,127
5166,note_on,1,0,0,,4,,,52,127
5166,note_on,0,0,0,,2,,,74,127
5220,note_off,54,0,0,,2,,,74,127
5221,note_on,1,0,0,,0,,,72,127
5275,note_off,54,0,0,,0,,,72,127
5276,note_on,1,0,0,,12,,,71,127
5330,note_off,54,0,0,,12,,,71,127
5331,note_on,1,0,0,,0,,,72,127
5385,note_off,54,0,0,,4,,,52,127
5395,note_on,10,0,0,,5,,,53,127
5494,note_off,99,0,0,,0,,,72,127
5504,note_on,10,0,0,,4,,,76,127
5613,note_off,109,0,0,,4,,,76,127
5613,note_off,0,0,0,,5,,,53,127
5614,note_on,1,0,0,,5,,,53,127
5614,note_on,0,0,0,,2,,,74,127
5723,note_off,109,0,0,,2,,,74,127
5724,note_on,1,0,0,,0,,,72,127
5833,note_off,109,0,0,,0,,,72,127
5833,note_off,0,0,0,,5,,,53,127
5834,note_on,1,0,0,,7,,,55,127
5834,note_on,0,0,0,,12,,,71,127
5943,note_off,109,0,0,,12,,,71,127
5944,note_on,1,0,0,,10,,,69,127
6053,note_off,109,0,0,,10,,,69,127
6054,note_on,1,0,0,,7,,,43,127
6054,note_on,0,0,0,,7,,,67,127
6163,note_off,109,0,0,,7,,,67,127
6164,note_on,1,0,0,,5,,,65,127
6269,note_off,105,0,0,,7,,,55,127
6272,note_off,3,0,0,,5,,,65,127
6272,note_off,0,0,0,,7,,,43,127
6273,note_on,1,0,0,,0,,,48,127
6273,note_on,0,0,0,,4,,,64,127
6491,note_off,218,0,0,,4,,,64,127
6492,note_on,1,0,0,,7,,,67,127
6710,note_off,218,0,0,,7,,,67,127
6711,note_on,1,0,0,,10,,,69,127
6783,note_off,72,0,0,,10,,,69,127
6784,note_on,1,0,0,,7,,,67,127
6856,note_off,72,0,0,,7,,,67,127
6857,note_on,1,0,0,,5,,,65,127
6929,note_off,72,0,0,,5,,,65,127
6929,note_off,0,0,0,,0,,,48,127
6930,note_on,1,0,0,,0,,,60,127
6930,note_on,0,0,0,,4,,,64,127
7148,note_off,218,0,0,,0,,,60,127
7149,note_off,1,0,0,,4,,,64,127
7149,note_on,0,0,0,,0,,,60,127
7367,note_off,218,0,0,,0,,,60,127
7368,note_on,1,0,0,,0,,,48,127
7368,note_on,0,0,0,,7,,,67,127
7586,note_off,218,0,0,,7,,,67,127
7587,note_on,1,0,0,,10,,,69,127
7659,note_off,72,0,0,,10,,,69,127
7660,note_on,1,0,0,,7,,,67,127
7732,note_off,72,0,0,,7,,,67,127
7733,note_on,1,0,0,,5,,,65,127
7805,note_off,72,0,0,,5,,,65,127
7806,note_off,1,0,0,,0,,,48,127
7806,note_on,0,0,0,,4,,,64,127
8035,note_off,229,0,0,,4,,,64,127
8044,note_on,9,0,0,,4,,,76,127
8263,note_on,219,0,0,,0,,,60,127
8481,note_off,218,0,0,,0,,,60,127
8482,note_on,1,0,0,,0,,,60,127
8700,note_off,218,0,0,,0,,,60,127
8701,note_on,1,0,0,,0,,,60,127
8919,note_off,218,0,0,,0,,,60,127
8919,note_off,0,0,0,,4,,,76,127
8920,note_on,1,0,0,,11,,,58,127
8920,note_on,0,0,0,,7,,,67,127
9138,note_off,218,0,0,,11,,,58,127
9139,note_on,1,0,0,,11,,,58,127
9357,note_off,218,0,0,,11,,,58,127
9358,note_on,1,0,0,,11,,,58,127
9576,note_off,218,0,0,,11,,,58,127
9577,note_on,1,0,0,,11,,,58,127
9795,note_off,218,0,0,,11,,,58,127
9795,note_off,0,0,0,,7,,,67,127
9796,note_on,1,0,0,,10,,,57,127
9796,note_on,0,0,0,,4,,,64,127
9796,note_on,0,0,0,,1,,,73,127
10014,note_off,218,0,0,,4,,,64,127
10014,note_off,0,0,0,,10,,,57,127
10015,note_on,1,0,0,,4,,,64,127
10015,note_on,0,0,0,,10,,,57,127
10233,note_off,218,0,0,,10,,,57,127
10233,note_off,0,0,0,,4,,,64,127
10234,note_on,1,0,0,,10,,,57,127
10234,note_on,0,0,0,,4,,,64,127
10452,note_off,218,0,0,,4,,,64,127
10452,note_off,0,0,0,,10,,,57,127
10453,note_on,1,0,0,,4,,,64,127
10453,note_on,0,0,0,,10,,,57,127
10671,note_off,218,0,0,,10,,,57,127
10671,note_off,0,0,0,,4,,,64,127
10671,note_off,0,0,0,,1,,,73,127
10672,note_on,1,0,0,,4,,,64,127
10672,note_on,0,0,0,,7,,,55,127
10672,note_on,0,0,0,,11,,,82,127
10890,note_off,218,0,0,,7,,,55,127
10890,note_off,0,0,0,,4,,,64,127
10891,note_on,1,0,0,,4,,,64,127
10891,note_on,0,0,0,,7,,,55,127
11109,note_off,218,0,0,,7,,,55,127
11109,note_off,0,0,0,,4,,,64,127
11110,note_on,1,0,0,,4,,,64,127
11110,note_on,0,0,0,,7,,,55,127
11328,note_off,218,0,0,,7,,,55,127
11328,note_off,0,0,0,,4,,,64,127
11329,note_on,1,0,0,,4,,,64,127
11329,note_on,0,0,0,,7,,,55,127
11547,note_off,218,0,0,,7,,,55,127
11547,note_off,0,0,0,,4,,,64,127
11548,note_off,1,0,0,,11,,,82,127
11548,note_on,0,0,0,,2,,,62,127
11548,note_on,0,0,0,,5,,,53,127
11767,note_on,219,0,0,,10,,,81,127
11985,note_off,218,0,0,,10,,,81,127
11986,note_on,1,0,0,,7,,,79,127
12058,note_off,72,0,0,,7,,,79,127
12059,note_on,1,0,0,,5,,,77,127
12131,note_off,72,0,0,,5,,,77,127
12132,note_on,1,0,0,,4,,,76,127
12204,note_off,72,0,0,,4,,,76,127
12204,note_off,0,0,0,,5,,,53,127
12204,note_off,0,0,0,,2,,,62,127
12205,note_on,1,0,0,,2,,,62,127
12205,note_on,0,0,0,,5,,,53,127
12205,note_on,0,0,0,,2,,,74,127
12423,note_off,218,0,0,,5,,,53,127
12423,note_off,0,0,0,,2,,,62,127
12424,note_off,1,0,0,,2,,,74,127
12424,note_on,0,0,0,,7,,,55,127
12643,note_on,219,0,0,,7,,,79,127
12861,note_off,218,0,0,,7,,,79,127
12861,note_off,0,0,0,,7,,,55,127
12862,note_on,1,0,0,,10,,,57,127
12862,note_on,0,0,0,,5,,,77,127
12934,note_off,72,0,0,,5,,,77,127
12935,note_on,1,0,0,,4,,,76,127
13007,note_off,72,0,0,,4,,,76,127
13008,note_on,1,0,0,,2,,,74,127
13080,note_off,72,0,0,,2,,,74,127
13081,note_on,1,0,0,,1,,,73,127
13299,note_off,218,0,0,,1,,,73,127
13299,note_off,0,0,0,,10,,,57,127
13300,note_on,1,0,0,,2,,,50,127
13300,note_on,0,0,0,,5,,,77,127
13518,note_off,218,0,0,,2,,,50,127
13519,note_on,1,0,0,,2,,,62,127
13737,note_off,218,0,0,,2,,,62,127
13738,note_on,1,0,0,,2,,,62,127
13956,note_off,218,0,0,,2,,,62,127
13957,note_on,1,0,0,,2,,,62,127
14175,note_off,218,0,0,,5,,,77,127
14176,note_on,1,0,0,,5,,,65,127
14394,note_off,218,0,0,,2,,,62,127
14395,note_on,1,0,0,,12,,,59,127
14395,note_on,0,0,0,,2,,,62,127
14613,note_off,218,0,0,,2,,,62,127
14613,note_off,0,0,0,,12,,,59,127
14614,note_on,1,0,0,,12,,,59,127
14614,note_on,0,0,0,,2,,,62,127
14832,note_off,218,0,0,,2,,,62,127
14832,note_off,0,0,0,,12,,,59,127
14833,note_on,1,0,0,,2,,,62,127
14833,note_on,0,0,0,,12,,,59,127
15051,note_off,218,0,0,,5,,,65,127
15052,note_on,1,0,0,,12,,,71,127
15270,note_off,218,0,0,,12,,,59,127
15270,note_off,0,0,0,,2,,,62,127
15271,note_on,1,0,0,,2,,,62,127
15271,note_on,0,0,0,,5,,,53,127
15489,note_off,218,0,0,,5,,,53,127
15489,note_off,0,0,0,,2,,,62,127
15490,note_on,1,0,0,,2,,,62,127
15490,note_on,0,0,0,,5,,,53,127
15708,note_off,218,0,0,,5,,,53,127
15708,note_off,0,0,0,,2,,,62,127
15709,note_on,1,0,0,,2,,,62,127
15709,note_on,0,0,0,,5,,,53,127
15927,note_off,218,0,0,,5,,,53,127
15927,note_off,0,0,0,,2,,,62,127
15927,note_off,0,0,0,,12,,,71,127
15928,note_on,1,0,0,,2,,,62,127
15928,note_on,0,0,0,,4,,,52,127
15928,note_on,0,0,0,,8,,,80,127
16146,note_off,218,0,0,,4,,,52,127
16146,note_off,0,0,0,,2,,,62,127
16147,note_on,1,0,0,,4,,,52,127
16147,note_on,0,0,0,,2,,,62,127
16365,note_off,218,0,0,,2,,,62,127
16365,note_off,0,0,0,,4,,,52,127
16366,note_on,1,0,0,,2,,,62,127
16366,note_on,0,0,0,,4,,,52,127
16584,note_off,218,0,0,,4,,,52,127
16584,note_off,0,0,0,,2,,,62,127
16585,note_on,1,0,0,,2,,,62,127
16585,note_on,0,0,0,,4,,,52,127
16803,note_off,218,0,0,,4,,,52,127
16803,note_off,0,0,0,,2,,,62,127
16803,note_off,0,0,0,,8,,,80,127
16804,note_on,1,0,0,,2,,,62,127
16804,note_on,0,0,0,,4,,,52,127
16804,note_on,0,0,0,,2,,,86,127
17022,note_off,218,0,0,,4,,,52,127
17022,note_off,0,0,0,,2,,,62,127
17023,note_on,1,0,0,,2,,,62,127
17023,note_on,0,0,0,,4,,,52,127
17241,note_off,218,0,0,,4,,,52,127
17241,note_off,0,0,0,,2,,,62,127
17242,note_on,1,0,0,,2,,,62,127
17242,note_on,0,0,0,,4,,,52,127
17460,note_off,218,0,0,,4,,,52,127
17460,note_off,0,0,0,,2,,,62,127
17461,note_on,1,0,0,,2,,,62,127
17461,note_on,0,0,0,,4,,,52,127
17679,note_off,218,0,0,,4,,,52,127
17679,note_off,0,0,0,,2,,,62,127
17679,note_off,0,0,0,,2,,,86,127
17680,note_on,1,0,0,,10,,,57,127
17680,note_on,0,0,0,,0,,,60,127
17680,note_on,0,0,0,,0,,,84,127
17789,note_off,109,0,0,,0,,,84,127
17790,note_on,1,0,0,,12,,,83,127
17899,note_off,109,0,0,,12,,,83,127
17900,note_on,1,0,0,,10,,,81,127
18009,note_off,109,0,0,,10,,,81,127
18010,note_on,1,0,0,,7,,,79,127
18119,note_off,109,0,0,,7,,,79,127
18120,note_on,1,0,0,,6,,,78,127
18229,note_off,109,0,0,,6,,,78,127
18230,note_on,1,0,0,,4,,,76,127
18339,note_off,109,0,0,,4,,,76,127
18340,note_on,1,0,0,,2,,,74,127
18449,note_off,109,0,0,,2,,,74,127
18450,note_on,1,0,0,,0,,,72,127
18559,note_off,109,0,0,,0,,,72,127
18560,note_off,1,0,0,,0,,,60,127
18560,note_off,0,0,0,,10,,,57,127
18560,note_on,0,0,0,,0,,,84,127
18779,note_on,219,0,0,,0,,,60,127
18779,note_on,0,0,0,,2,,,50,127
18997,note_off,218,0,0,,2,,,50,127
18997,note_off,0,0,0,,0,,,60,127
18998,note_on,1,0,0,,0,,,60,127
18998,note_on,0,0,0,,2,,,50,127
19216,note_off,218,0,0,,2,,,50,127
19216,note_off,0,0,0,,0,,,60,127
19217,note_on,1,0,0,,0,,,60,127
19217,note_on,0,0,0,,2,,,50,127
19435,note_off,218,0,0,,2,,,50,127
19435,note_off,0,0,0,,0,,,60,127
19435,note_off,0,0,0,,0,,,84,127
19436,note_on,1,0,0,,7,,,55,127
19436,note_on,0,0,0,,12,,,59,127
19436,note_on,0,0,0,,12,,,83,127
19545,note_off,109,0,0,,12,,,83,127
19546,note_on,1,0,0,,10,,,81,127
19655,note_off,109,0,0,,10,,,81,127
19656,note_on,1,0,0,,7,,,79,127
19765,note_off,109,0,0,,7,,,79,127
19766,note_on,1,0,0,,6,,,78,127
19875,note_off,109,0,0,,6,,,78,127
19876,note_on,1,0,0,,4,,,76,127
19985,note_off,109,0,0,,4,,,76,127
19986,note_on,1,0,0,,2,,,74,127
20095,note_off,109,0,0,,2,,,74,127
20096,note_on,1,0,0,,0,,,72,127
20205,note_off,109,0,0,,0,,,72,127
20206,note_on,1,0,0,,12,,,71,127
20315,note_off,109,0,0,,12,,,71,127
20316,note_off,1,0,0,,12,,,59,127
20316,note_off,0,0,0,,7,,,55,127
20316,note_on,0,0,0,,12,,,83,127
20535,note_on,219,0,0,,7,,,55,127
20535,note_on,0,0,0,,12,,,47,127
20753,note_off,218,0,0,,12,,,47,127
20753,note_off,0,0,0,,7,,,55,127
20754,note_on,1,0,0,,7,,,55,127
20754,note_on,0,0,0,,12,,,47,127
20972,note_off,218,0,0,,12,,,47,127
20972,note_off,0,0,0,,7,,,55,127
20973,note_on,1,0,0,,7,,,55,127
20973,note_on,0,0,0,,12,,,47,127
21191,note_off,218,0,0,,12,,,47,127
21191,note_off,0,0,0,,7,,,55,127
21191,note_off,0,0,0,,12,,,83,127
21192,note_on,1,0,0,,7,,,55,127
21192,note_on,0,0,0,,0,,,48,127
21192,note_on,0,0,0,,4,,,76,127
21410,note_off,218,0,0,,0,,,48,127
21410,note_off,0,0,0,,7,,,55,127
21411,note_on,1,0,0,,7,,,55,127
21411,note_on,0,0,0,,0,,,48,127
21629,note_off,218,0,0,,0,,,48,127
21629,note_off,0,0,0,,7,,,55,127
21630,note_on,1,0,0,,7,,,55,127
21630,note_on,0,0,0,,0,,,48,127
21848,note_off,218,0,0,,0,,,48,127
21848,note_off,0,0,0,,7,,,55,127
21848,note_off,0,0,0,,4,,,76,127
21849,note_on,1,0,0,,7,,,55,127
21849,note_on,0,0,0,,0,,,48,127
21849,note_on,0,0,0,,6,,,78,127
21958,note_off,109,0,0,,6,,,78,127
21959,note_on,1,0,0,,7,,,79,127
22068,note_off,109,0,0,,7,,,79,127
22068,note_off,0,0,0,,0,,,48,127
22068,note_off,0,0,0,,7,,,55,127
22069,note_on,1,0,0,,7,,,55,127
22069,note_on,0,0,0,,1,,,49,127
22069,note_on,0,0,0,,12,,,71,127
22287,note_off,218,0,0,,1,,,49,127
22287,note_off,0,0,0,,7,,,55,127
22288,note_on,1,0,0,,1,,,49,127
22288,note_on,0,0,0,,7,,,55,127
22506,note_off,218,0,0,,7,,,55,127
22506,note_off,0,0,0,,1,,,49,127
22507,note_on,1,0,0,,7,,,55,127
22507,note_on,0,0,0,,1,,,49,127
22725,note_off,218,0,0,,1,,,49,127
22725,note_off,0,0,0,,7,,,55,127
22725,note_off,0,0,0,,12,,,71,127
22726,note_on,1,0,0,,1,,,49,127
22726,note_on,0,0,0,,7,,,55,127
22726,note_on,0,0,0,,0,,,72,127
22835,note_off,109,0,0,,0,,,72,127
22836,note_on,1,0,0,,2,,,74,127
22945,note_off,109,0,0,,2,,,74,127
22945,note_off,0,0,0,,7,,,55,127
22945,note_off,0,0,0,,1,,,49,127
22946,note_on,1,0,0,,2,,,50,127
22946,note_on,0,0,0,,12,,,71,127
23164,note_off,218,0,0,,12,,,71,127
23165,note_on,1,0,0,,10,,,69,127
23274,note_off,109,0,0,,10,,,69,127
23275,note_on,1,0,0,,7,,,67,127
23384,note_off,109,0,0,,7,,,67,127
23385,note_on,1,0,0,,2,,,38,127
23385,note_on,0,0,0,,12,,,71,127
23443,note_off,58,0,0,,12,,,71,127
23446,note_on,3,0,0,,10,,,69,127
23504,note_off,58,0,0,,10,,,69,127
23506,note_on,2,0,0,,12,,,71,127
23564,note_off,58,0,0,,12,,,71,127
23567,note_on,3,0,0,,10,,,69,127
23625,note_off,58,0,0,,10,,,69,127
23628,note_on,3,0,0,,12,,,71,127
23686,note_off,58,0,0,,12,,,71,127
23692,note_on,6,0,0,,10,,,69,127
23756,note_off,64,0,0,,10,,,69,127
23758,note_on,2,0,0,,7,,,67,127
23833,note_on,75,0,0,,10,,,69,127
23844,note_off,11,0,0,,7,,,67,127
23881,note_off,37,0,0,,2,,,50,127
23894,note_on,13,0,0,,7,,,43,127
23894,note_on,0,0,0,,7,,,55,127
23921,note_off,27,0,0,,10,,,69,127
23966,note_off,45,0,0,,2,,,38,127
24113,note_on,147,0,0,,7,,,79,127
24222,note_off,109,0,0,,7,,,79,127
24223,note_on,1,0,0,,2,,,74,127
24332,note_off,109,0,0,,2,,,74,127
24333,note_on,1,0,0,,4,,,76,127
24442,note_off,109,0,0,,4,,,76,127
24443,note_on,1,0,0,,0,,,72,127
24552,note_off,109,0,0,,0,,,72,127
24553,note_on,1,0,0,,12,,,71,127
24662,note_off,109,0,0,,12,,,71,127
24663,note_on,1,0,0,,10,,,69,127
24772,note_off,109,0,0,,10,,,69,127
24772,note_off,0,0,0,,7,,,55,127
24772,note_off,0,0,0,,7,,,43,127
24773,note_on,1,0,0,,12,,,71,127
24773,note_on,0,0,0,,7,,,43,127
24773,note_on,0,0,0,,7,,,55,127
24991,note_off,218,0,0,,12,,,71,127
24992,note_on,1,0,0,,7,,,79,127
25101,note_off,109,0,0,,7,,,79,127
25102,note_on,1,0,0,,2,,,74,127
25211,note_off,109,0,0,,2,,,74,127
25212,note_on,1,0,0,,4,,,76,127
25321,note_off,109,0,0,,4,,,76,127
25322,note_on,1,0,0,,0,,,72,127
25431,note_off,109,0,0,,0,,,72,127
25432,note_on,1,0,0,,12,,,71,127
25541,note_off,109,0,0,,12,,,71,127
25542,note_on,1,0,0,,10,,,69,127
25651,note_off,109,0,0,,10,,,69,127
25651,note_off,0,0,0,,7,,,55,127
25651,note_off,0,0,0,,7,,,43,127
25652,note_on,1,0,0,,12,,,71,127
25652,note_on,0,0,0,,7,,,43,127
25652,note_on,0,0,0,,7,,,55,127
25870,note_off,218,0,0,,12,,,71,127
25871,note_on,1,0,0,,12,,,83,127
25980,note_off,109,0,0,,12,,,83,127
25981,note_on,1,0,0,,6,,,78,127
26090,note_off,109,0,0,,6,,,78,127
26091,note_on,1,0,0,,7,,,79,127
26200,note_off,109,0,0,,7,,,79,127
26201,note_on,1,0,0,,4,,,76,127
26310,note_off,109,0,0,,4,,,76,127
26311,note_on,1,0,0,,2,,,74,127
26420,note_off,109,0,0,,2,,,74,127
26421,note_on,1,0,0,,0,,,72,127
26530,note_off,109,0,0,,0,,,72,127
26530,note_off,0,0,0,,7,,,55,127
26530,note_off,0,0,0,,7,,,43,127
26531,note_on,1,0,0,,2,,,74,127
26531,note_on,0,0,0,,7,,,43,127
26531,note_on,0,0,0,,7,,,55,127
26749,note_off,218,0,0,,2,,,74,127
26750,note_on,1,0,0,,12,,,83,127
26859,note_off,109,0,0,,12,,,83,127
26860,note_on,1,0,0,,6,,,78,127
26969,note_off,109,0,0,,6,,,78,127
26970,note_on,1,0,0,,7,,,79,127
27079,note_off,109,0,0,,7,,,79,127
27080,note_on,1,0,0,,4,,,76,127
27189,note_off,109,0,0,,4,,,76,127
27190,note_on,1,0,0,,2,,,74,127
27299,note_off,109,0,0,,2,,,74,127
27300,note_on,1,0,0,,0,,,72,127
27409,note_off,109,0,0,,0,,,72,127
27409,note_off,0,0,0,,7,,,55,127
27409,note_off,0,0,0,,7,,,43,127
27410,note_on,1,0,0,,2,,,74,127
27410,note_on,0,0,0,,7,,,43,127
27410,note_on,0,0,0,,7,,,55,127
27628,note_off,218,0,0,,2,,,74,127
27629,note_on,1,0,0,,2,,,86,127
27738,note_off,109,0,0,,2,,,86,127
27739,note_on,1,0,0,,10,,,81,127
27848,note_off,109,0,0,,10,,,81,127
27849,note_on,1,0,0,,12,,,83,127
27958,note_off,109,0,0,,12,,,83,127
27959,note_on,1,0,0,,6,,,78,127
28068,note_off,109,0,0,,6,,,78,127
28068,note_off,0,0,0,,7,,,55,127
28068,note_off,0,0,0,,7,,,43,127
28069,note_on,1,0,0,,7,,,79,127
28069,note_on,0,0,0,,12,,,47,127
28178,note_off,109,0,0,,7,,,79,127
28179,note_on,1,0,0,,2,,,74,127
28288,note_off,109,0,0,,2,,,74,127
28288,note_off,0,0,0,,12,,,47,127
28289,note_on,1,0,0,,4,,,76,127
28289,note_on,0,0,0,,0,,,48,127
28398,note_off,109,0,0,,4,,,76,127
28399,note_on,1,0,0,,6,,,78,127
28508,note_off,109,0,0,,6,,,78,127
28508,note_off,0,0,0,,0,,,48,127
28509,note_on,1,0,0,,7,,,79,127
28509,note_on,0,0,0,,4,,,52,127
28618,note_off,109,0,0,,7,,,79,127
28619,note_on,1,0,0,,10,,,69,127
28728,note_off,109,0,0,,10,,,69,127
28728,note_off,0,0,0,,4,,,52,127
28729,note_on,1,0,0,,12,,,71,127
28729,note_on,0,0,0,,2,,,50,127
28783,note_off,54,0,0,,12,,,71,127
28784,note_on,1,0,0,,10,,,69,127
28838,note_off,54,0,0,,10,,,69,127
28839,note_on,1,0,0,,12,,,71,127
28893,note_off,54,0,0,,12,,,71,127
28894,note_on,1,0,0,,10,,,69,127
28948,note_off,54,0,0,,10,,,69,127
28949,note_on,1,0,0,,12,,,71,127
28949,note_on,0,0,0,,2,,,38,127
29003,note_off,54,0,0,,12,,,71,127
29004,note_on,1,0,0,,10,,,69,127
29058,note_off,54,0,0,,10,,,69,127
29061,note_on,3,0,0,,7,,,67,127
29119,note_off,58,0,0,,7,,,67,127
29119,note_on,0,0,0,,10,,,69,127
29164,note_off,45,0,0,,2,,,50,127
29169,note_off,5,0,0,,2,,,38,127
29187,note_off,18,0,0,,10,,,69,127
29196,note_on,9,0,0,,7,,,67,127
29415,note_on,219,0,0,,2,,,62,127
29415,note_on,0,0,0,,11,,,58,127
29633,note_off,218,0,0,,11,,,58,127
29633,note_off,0,0,0,,2,,,62,127
29634,note_on,1,0,0,,11,,,58,127
29634,note_on,0,0,0,,2,,,62,127
29852,note_off,218,0,0,,2,,,62,127
29852,note_off,0,0,0,,11,,,58,127
29853,note_on,1,0,0,,2,,,62,127
29853,note_on,0,0,0,,11,,,58,127
30071,note_off,218,0,0,,7,,,67,127
30072,note_on,1,0,0,,10,,,69,127
30181,note_off,109,0,0,,10,,,69,127
30182,note_on,1,0,0,,7,,,67,127
30291,note_off,109,0,0,,11,,,58,127
30291,note_off,0,0,0,,2,,,62,127
30292,note_on,1,0,0,,10,,,57,127
30292,note_on,0,0,0,,1,,,61,127
30510,note_off,218,0,0,,1,,,61,127
30510,note_off,0,0,0,,10,,,57,127
30511,note_on,1,0,0,,10,,,57,127
30511,note_on,0,0,0,,1,,,61,127
30729,note_off,218,0,0,,1,,,61,127
30729,note_off,0,0,0,,10,,,57,127
30730,note_on,1,0,0,,1,,,61,127
30730,note_on,0,0,0,,10,,,57,127
30948,note_off,218,0,0,,7,,,67,127
30949,note_on,1,0,0,,10,,,69,127
31058,note_off,109,0,0,,10,,,69,127
31059,note_on,1,0,0,,7,,,67,127
31141,note_off,82,0,0,,10,,,57,127
31141,note_off,0,0,0,,1,,,61,127
31168,note_on,27,0,0,,2,,,62,127
31168,note_on,0,0,0,,11,,,58,127
31386,note_off,218,0,0,,11,,,58,127
31386,note_off,0,0,0,,2,,,62,127
31387,note_on,1,0,0,,2,,,62,127
31387,note_on,0,0,0,,11,,,58,127
31605,note_off,218,0,0,,11,,,58,127
31605,note_off,0,0,0,,2,,,62,127
31606,note_on,1,0,0,,11,,,58,127
31606,note_on,0,0,0,,2,,,62,127
31824,note_off,218,0,0,,7,,,67,127
31825,note_on,1,0,0,,10,,,81,127
31934,note_off,109,0,0,,10,,,81,127
31935,note_on,1,0,0,,7,,,79,127
31949,note_off,14,0,0,,2,,,62,127
31949,note_off,0,0,0,,11,,,58,127
32045,note_on,96,0,0,,1,,,61,127
32045,note_on,0,0,0,,10,,,57,127
32263,note_off,218,0,0,,10,,,57,127
32263,note_off,0,0,0,,1,,,61,127
32264,note_on,1,0,0,,1,,,61,127
32264,note_on,0,0,0,,10,,,57,127
32482,note_off,218,0,0,,10,,,57,127
32482,note_off,0,0,0,,1,,,61,127
32483,note_on,1,0,0,,1,,,61,127
32483,note_on,0,0,0,,10,,,57,127
32701,note_off,218,0,0,,10,,,57,127
32701,note_off,0,0,0,,1,,,61,127
32701,note_off,0,0,0,,7,,,79,127
32702,note_on,1,0,0,,2,,,62,127
32702,note_on,0,0,0,,2,,,50,127
32702,note_on,0,0,0,,6,,,78,127
32811,note_off,109,0,0,,6,,,78,127
32812,note_on,1,0,0,,7,,,79,127
32921,note_off,109,0,0,,7,,,79,127
32922,note_on,1,0,0,,10,,,81,127
33031,note_off,109,0,0,,10,,,81,127
33032,note_on,1,0,0,,7,,,79,127
33141,note_off,109,0,0,,7,,,79,127
33142,note_on,1,0,0,,6,,,78,127
33251,note_off,109,0,0,,6,,,78,127
33252,note_on,1,0,0,,4,,,76,127
33361,note_off,109,0,0,,4,,,76,127
33362,note_on,1,0,0,,2,,,74,127
33471,note_off,109,0,0,,2,,,74,127
33472,note_on,1,0,0,,0,,,72,127
33581,note_off,109,0,0,,0,,,72,127
33581,note_off,0,0,0,,2,,,50,127
33581,note_off,0,0,0,,2,,,62,127
33587,note_on,6,0,0,,12,,,71,127
33587,note_on,0,0,0,,7,,,55,127
33587,note_on,0,0,0,,7,,,43,127
33805,note_off,218,0,0,,12,,,71,127
33806,note_on,1,0,0,,7,,,79,127
33915,note_off,109,0,0,,7,,,79,127
33916,note_on,1,0,0,,2,,,74,127
34025,note_off,109,0,0,,2,,,74,127
34026,note_on,1,0,0,,4,,,76,127
34135,note_off,109,0,0,,4,,,76,127
34136,note_on,1,0,0,,0,,,72,127
34245,note_off,109,0,0,,0,,,72,127
34246,note_on,1,0,0,,12,,,71,127
34355,note_off,109,0,0,,12,,,71,127
34356,note_on,1,0,0,,10,,,69,127
34465,note_off,109,0,0,,10,,,69,127
34465,note_off,0,0,0,,7,,,43,127
34465,note_off,0,0,0,,7,,,55,127
34466,note_on,1,0,0,,12,,,71,127
34466,note_on,0,0,0,,7,,,43,127
34466,note_on,0,0,0,,7,,,55,127
34684,note_off,218,0,0,,12,,,71,127
34685,note_on,1,0,0,,12,,,83,127
34794,note_off,109,0,0,,12,,,83,127
34795,note_on,1,0,0,,6,,,78,127
34904,note_off,109,0,0,,6,,,78,127
34905,note_on,1,0,0,,7,,,79,127
35014,note_off,109,0,0,,7,,,79,127
35015,note_on,1,0,0,,4,,,76,127
35124,note_off,109,0,0,,4,,,76,127
35125,note_on,1,0,0,,2,,,74,127
35234,note_off,109,0,0,,2,,,74,127
35235,note_on,1,0,0,,0,,,72,127
35344,note_off,109,0,0,,0,,,72,127
35344,note_off,0,0,0,,7,,,55,127
35344,note_off,0,0,0,,7,,,43,127
35345,note_on,1,0,0,,2,,,74,127
35345,note_on,0,0,0,,7,,,43,127
35345,note_on,0,0,0,,7,,,55,127
35563,note_off,218,0,0,,2,,,74,127
35564,note_on,1,0,0,,2,,,86,127
35673,note_off,109,0,0,,2,,,86,127
35674,note_on,1,0,0,,10,,,81,127
35783,note_off,109,0,0,,10,,,81,127
35784,note_on,1,0,0,,12,,,83,127
35893,note_off,109,0,0,,12,,,83,127
35894,note_on,1,0,0,,6,,,78,127
36003,note_off,109,0,0,,6,,,78,127
36003,note_off,0,0,0,,7,,,55,127
36003,note_off,0,0,0,,7,,,43,127
36004,note_on,1,0,0,,7,,,79,127
36004,note_on,0,0,0,,12,,,47,127
36113,note_off,109,0,0,,7,,,79,127
36114,note_on,1,0,0,,2,,,74,127
36223,note_off,109,0,0,,2,,,74,127
36223,note_off,0,0,0,,12,,,47,127
36224,note_on,1,0,0,,4,,,76,127
36224,note_on,0,0,0,,0,,,48,127
36333,note_off,109,0,0,,4,,,76,127
36334,note_on,1,0,0,,6,,,78,127
36443,note_off,109,0,0,,6,,,78,127
36443,note_off,0,0,0,,0,,,48,127
36444,note_on,1,0,0,,7,,,79,127
36444,note_on,0,0,0,,4,,,52,127
36553,note_off,109,0,0,,7,,,79,127
36554,note_on,1,0,0,,10,,,69,127
36663,note_off,109,0,0,,10,,,69,127
36663,note_off,0,0,0,,4,,,52,127
36664,note_on,1,0,0,,12,,,71,127
36664,note_on,0,0,0,,2,,,50,127
36718,note_off,54,0,0,,12,,,71,127
36719,note_on,1,0,0,,10,,,69,127
36773,note_off,54,0,0,,10,,,69,127
36774,note_on,1,0,0,,12,,,71,127
36828,note_off,54,0,0,,12,,,71,127
36829,note_on,1,0,0,,10,,,69,127
36883,note_off,54,0,0,,10,,,69,127
36884,note_on,1,0,0,,12,,,71,127
36884,note_on,0,0,0,,2,,,38,127
36938,note_off,54,0,0,,12,,,71,127
36939,note_on,1,0,0,,10,,,69,127
36993,note_off,54,0,0,,10,,,69,127
36994,note_on,1,0,0,,7,,,67,127
37048,note_off,54,0,0,,7,,,67,127
37049,note_on,1,0,0,,10,,,69,127
37099,note_off,50,0,0,,2,,,50,127
37102,note_off,3,0,0,,10,,,69,127
37102,note_off,0,0,0,,2,,,38,127
37103,note_on,1,0,0,,7,,,67,127
37103,note_on,0,0,0,,7,,,43,127
37103,note_on,0,0,0,,7,,,55,127
37212,note_off,109,0,0,,7,,,67,127
37213,note_on,1,0,0,,4,,,76,127
37322,note_off,109,0,0,,4,,,76,127
37323,note_on,1,0,0,,2,,,74,127
37541,note_off,218,0,0,,7,,,55,127
37541,note_off,0,0,0,,7,,,43,127
37542,note_on,1,0,0,,6,,,54,127
37651,note_off,109,0,0,,2,,,74,127
37652,note_on,1,0,0,,2,,,74,127
37761,note_off,109,0,0,,2,,,74,127
37762,note_on,1,0,0,,0,,,72,127
37980,note_off,218,0,0,,6,,,54,127
37981,note_on,1,0,0,,7,,,55,127
38090,note_off,109,0,0,,0,,,72,127
38091,note_on,1,0,0,,0,,,72,127
38200,note_off,109,0,0,,0,,,72,127
38201,note_on,1,0,0,,12,,,71,127
38419,note_off,218,0,0,,7,,,55,127
38420,note_on,1,0,0,,2,,,50,127
38529,note_off,109,0,0,,12,,,71,127
38530,note_on,1,0,0,,12,,,71,127
38639,note_off,109,0,0,,12,,,71,127
38640,note_on,1,0,0,,10,,,69,127
38858,note_off,218,0,0,,10,,,69,127
38858,note_off,0,0,0,,2,,,50,127
38859,note_on,1,0,0,,7,,,67,127
38859,note_on,0,0,0,,7,,,43,127
38968,note_off,109,0,0,,7,,,67,127
38969,note_on,1,0,0,,4,,,76,127
39078,note_off,109,0,0,,4,,,76,127
39079,note_on,1,0,0,,2,,,74,127
39297,note_off,218,0,0,,7,,,43,127
39298,note_on,1,0,0,,6,,,54,127
39407,note_off,109,0,0,,2,,,74,127
39408,note_on,1,0,0,,2,,,74,127
39517,note_off,109,0,0,,2,,,74,127
39518,note_on,1,0,0,,0,,,72,127
39736,note_off,218,0,0,,6,,,54,127
39737,note_on,1,0,0,,7,,,55,127
39846,note_off,109,0,0,,0,,,72,127
39847,note_on,1,0,0,,0,,,72,127
39956,note_off,109,0,0,,0,,,72,127
39957,note_on,1,0,0,,12,,,71,127
40175,note_off,218,0,0,,7,,,55,127
40176,note_on,1,0,0,,2,,,50,127
40285,note_off,109,0,0,,12,,,71,127
40286,note_on,1,0,0,,12,,,71,127
40395,note_off,109,0,0,,12,,,71,127
40396,note_on,1,0,0,,10,,,69,127
40614,note_off,218,0,0,,10,,,69,127
40614,note_off,0,0,0,,2,,,50,127
40615,note_on,1,0,0,,7,,,67,127
40615,note_on,0,0,0,,7,,,43,127
40833,note_off,218,0,0,,7,,,43,127
40833,note_off,0,0,0,,7,,,67,127
40834,note_on,1,0,0,,7,,,79,127
40834,note_on,0,0,0,,12,,,47,127
40943,note_off,109,0,0,,7,,,79,127
40944,note_on,1,0,0,,2,,,74,127
41053,note_off,109,0,0,,2,,,74,127
41053,note_off,0,0,0,,12,,,47,127
41054,note_on,1,0,0,,4,,,76,127
41054,note_on,0,0,0,,0,,,48,127
41163,note_off,109,0,0,,4,,,76,127
41164,note_on,1,0,0,,0,,,72,127
41273,note_off,109,0,0,,0,,,72,127
41273,note_off,0,0,0,,0,,,48,127
41274,note_on,1,0,0,,6,,,78,127
41274,note_on,0,0,0,,10,,,45,127
41383,note_off,109,0,0,,6,,,78,127
41384,note_on,1,0,0,,2,,,74,127
41493,note_off,109,0,0,,2,,,74,127
41493,note_off,0,0,0,,10,,,45,127
41494,note_on,1,0,0,,7,,,79,127
41494,note_on,0,0,0,,12,,,47,127
41604,note_on,110,0,0,,7,,,67,127
41711,note_off,107,0,0,,7,,,79,127
41712,note_off,1,0,0,,7,,,67,127
41712,note_off,0,0,0,,12,,,47,127
41713,note_on,1,0,0,,0,,,72,127
41713,note_on,0,0,0,,0,,,48,127
41822,note_off,109,0,0,,0,,,72,127
41823,note_on,1,0,0,,10,,,69,127
41932,note_off,109,0,0,,10,,,69,127
41932,note_off,0,0,0,,0,,,48,127
41933,note_on,1,0,0,,12,,,71,127
41933,note_on,0,0,0,,2,,,50,127
41987,note_off,54,0,0,,12,,,71,127
41988,note_on,1,0,0,,10,,,69,127
42042,note_off,54,0,0,,10,,,69,127
42043,note_on,1,0,0,,12,,,71,127
42097,note_off,54,0,0,,12,,,71,127
42098,note_on,1,0,0,,10,,,69,127
42152,note_off,54,0,0,,10,,,69,127
42152,note_off,0,0,0,,2,,,50,127
42153,note_on,1,0,0,,12,,,71,127
42153,note_on,0,0,0,,0,,,48,127
42207,note_off,54,0,0,,12,,,71,127
42208,note_on,1,0,0,,10,,,69,127
42262,note_off,54,0,0,,10,,,69,127
42263,note_on,1,0,0,,7,,,67,127
42317,note_off,54,0,0,,7,,,67,127
42318,note_on,1,0,0,,10,,,69,127
42372,note_off,54,0,0,,10,,,69,127
42372,note_off,0,0,0,,0,,,48,127
42373,note_on,1,0,0,,7,,,79,127
42373,note_on,0,0,0,,12,,,47,127
42483,note_on,110,0,0,,7,,,67,127
42590,note_off,107,0,0,,7,,,79,127
42591,note_off,1,0,0,,7,,,67,127
42591,note_off,0,0,0,,12,,,47,127
42592,note_on,1,0,0,,0,,,72,127
42592,note_on,0,0,0,,0,,,48,127
42701,note_off,109,0,0,,0,,,72,127
42702,note_on,1,0,0,,10,,,69,127
42811,note_off,109,0,0,,10,,,69,127
42811,note_off,0,0,0,,0,,,48,127
42812,note_on,1,0,0,,12,,,71,127
42812,note_on,0,0,0,,2,,,50,127
42866,note_off,54,0,0,,12,,,71,127
42867,note_on,1,0,0,,10,,,69,127
42921,note_off,54,0,0,,10,,,69,127
42922,note_on,1,0,0,,12,,,71,127
42976,note_off,54,0,0,,12,,,71,127
42977,note_on,1,0,0,,10,,,69,127
43031,note_off,54,0,0,,10,,,69,127
43031,note_off,0,0,0,,2,,,50,127
43032,note_on,1,0,0,,12,,,71,127
43032,note_on,0,0,0,,0,,,48,127
43086,note_off,54,0,0,,12,,,71,127
43087,note_on,1,0,0,,10,,,69,127
43141,note_off,54,0,0,,10,,,69,127
43142,note_on,1,0,0,,7,,,67,127
43196,note_off,54,0,0,,7,,,67,127
43197,note_on,1,0,0,,10,,,69,127
43251,note_off,54,0,0,,10,,,69,127
43251,note_off,0,0,0,,0,,,48,127
43252,note_on,1,0,0,,7,,,79,127
43252,note_on,0,0,0,,12,,,47,127
43362,note_on,110,0,0,,7,,,67,127
43469,note_off,107,0,0,,7,,,79,127
43470,note_off,1,0,0,,7,,,67,127
43470,note_off,0,0,0,,12,,,47,127
43471,note_on,1,0,0,,0,,,72,127
43471,note_on,0,0,0,,0,,,48,127
43580,note_off,109,0,0,,0,,,72,127
43581,note_on,1,0,0,,10,,,69,127
43690,note_off,109,0,0,,10,,,69,127
43690,note_off,0,0,0,,0,,,48,127
43691,note_on,1,0,0,,12,,,71,127
43691,note_on,0,0,0,,2,,,50,127
43745,note_off,54,0,0,,12,,,71,127
43746,note_on,1,0,0,,10,,,69,127
43800,note_off,54,0,0,,10,,,69,127
43801,note_on,1,0,0,,12,,,71,127
43855,note_off,54,0,0,,12,,,71,127
43856,note_on,1,0,0,,10,,,69,127
43910,note_off,54,0,0,,10,,,69,127
43911,note_on,1,0,0,,12,,,71,127
43911,note_on,0,0,0,,2,,,38,127
43965,note_off,54,0,0,,12,,,71,127
43966,note_on,1,0,0,,10,,,69,127
44020,note_off,54,0,0,,10,,,69,127
44021,note_on,1,0,0,,7,,,67,127
44075,note_off,54,0,0,,7,,,67,127
44076,note_on,1,0,0,,10,,,69,127
44126,note_off,50,0,0,,2,,,50,127
44129,note_off,3,0,0,,10,,,69,127
44129,note_off,0,0,0,,2,,,38,127
44130,note_on,1,0,0,,7,,,67,127
44130,note_on,0,0,0,,7,,,43,127
45007,note_off,877,0,0,,7,,,43,127
45008,note_off,1,0,0,,7,,,67,127
45035,note_on,27,0,0,,7,,,43,127
45254,note_on,219,0,0,,2,,,74,127
45472,note_off,218,0,0,,2,,,74,127
45473,note_on,1,0,0,,4,,,76,127
45545,note_off,72,0,0,,4,,,76,127
45546,note_on,1,0,0,,2,,,74,127
45618,note_off,72,0,0,,2,,,74,127
45619,note_on,1,0,0,,0,,,72,127
45691,note_off,72,0,0,,0,,,72,127
45691,note_off,0,0,0,,7,,,43,127
45692,note_on,1,0,0,,7,,,55,127
45692,note_on,0,0,0,,12,,,71,127
45910,note_off,218,0,0,,7,,,55,127
45911,note_off,1,0,0,,12,,,71,127
45911,note_on,0,0,0,,7,,,55,127
46130,note_on,219,0,0,,7,,,43,127
46130,note_on,0,0,0,,2,,,74,127
46345,note_off,215,0,0,,7,,,55,127
46348,note_off,3,0,0,,2,,,74,127
46349,note_on,1,0,0,,4,,,76,127
46421,note_off,72,0,0,,4,,,76,127
46422,note_on,1,0,0,,2,,,74,127
46494,note_off,72,0,0,,2,,,74,127
46497,note_on,3,0,0,,0,,,72,127
46569,note_off,72,0,0,,0,,,72,127
46577,note_on,8,0,0,,7,,,55,127
46577,note_on,0,0,0,,12,,,71,127
46580,note_off,3,0,0,,7,,,43,127
46795,note_off,215,0,0,,7,,,55,127
46796,note_off,1,0,0,,12,,,71,127
46805,note_on,9,0,0,,2,,,50,127
46915,note_on,110,0,0,,5,,,77,127
47024,note_off,109,0,0,,5,,,77,127
47024,note_off,0,0,0,,2,,,50,127
47025,note_on,1,0,0,,4,,,76,127
47025,note_on,0,0,0,,5,,,53,127
47134,note_off,109,0,0,,4,,,76,127
47135,note_on,1,0,0,,2,,,74,127
47244,note_off,109,0,0,,2,,,74,127
47244,note_off,0,0,0,,5,,,53,127
47245,note_on,1,0,0,,0,,,72,127
47245,note_on,0,0,0,,4,,,52,127
47354,note_off,109,0,0,,0,,,72,127
47355,note_on,1,0,0,,12,,,71,127
47464,note_off,109,0,0,,12,,,71,127
47464,note_off,0,0,0,,4,,,52,127
47465,note_on,1,0,0,,10,,,69,127
47465,note_on,0,0,0,,2,,,50,127
47574,note_off,109,0,0,,10,,,69,127
47575,note_on,1,0,0,,8,,,68,127
47684,note_off,109,0,0,,8,,,68,127
47684,note_off,0,0,0,,2,,,50,127
47685,note_on,1,0,0,,10,,,81,127
47685,note_on,0,0,0,,0,,,48,127
47904,note_on,219,0,0,,10,,,69,127
48119,note_off,215,0,0,,10,,,81,127
48122,note_off,3,0,0,,10,,,69,127
48123,note_on,1,0,0,,12,,,71,127
48177,note_off,54,0,0,,12,,,71,127
48178,note_on,1,0,0,,10,,,69,127
48232,note_off,54,0,0,,10,,,69,127
48233,note_on,1,0,0,,12,,,71,127
48287,note_off,54,0,0,,12,,,71,127
48288,note_on,1,0,0,,10,,,69,127
48342,note_off,54,0,0,,10,,,69,127
48342,note_off,0,0,0,,0,,,48,127
48343,note_on,1,0,0,,12,,,71,127
48343,note_on,0,0,0,,0,,,48,127
48397,note_off,54,0,0,,12,,,71,127
48398,note_on,1,0,0,,10,,,69,127
48452,note_off,54,0,0,,10,,,69,127
48453,note_on,1,0,0,,8,,,68,127
48507,note_off,54,0,0,,8,,,68,127
48508,note_on,1,0,0,,10,,,69,127
48562,note_off,54,0,0,,0,,,48,127
48563,note_off,1,0,0,,10,,,69,127
48572,note_on,9,0,0,,2,,,50,127
48682,note_on,110,0,0,,5,,,77,127
48791,note_off,109,0,0,,5,,,77,127
48791,note_off,0,0,0,,2,,,50,127
48792,note_on,1,0,0,,4,,,76,127
48792,note_on,0,0,0,,5,,,53,127
48901,note_off,109,0,0,,4,,,76,127
48902,note_on,1,0,0,,2,,,74,127
49011,note_off,109,0,0,,2,,,74,127
49011,note_off,0,0,0,,5,,,53,127
49012,note_on,1,0,0,,0,,,72,127
49012,note_on,0,0,0,,4,,,52,127
49121,note_off,109,0,0,,0,,,72,127
49122,note_on,1,0,0,,12,,,71,127
49231,note_off,109,0,0,,12,,,71,127
49231,note_off,0,0,0,,4,,,52,127
49232,note_on,1,0,0,,10,,,69,127
49232,note_on,0,0,0,,2,,,50,127
49341,note_off,109,0,0,,10,,,69,127
49342,note_on,1,0,0,,8,,,68,127
49451,note_off,109,0,0,,8,,,68,127
49451,note_off,0,0,0,,2,,,50,127
49452,note_on,1,0,0,,10,,,81,127
49452,note_on,0,0,0,,0,,,48,127
49671,note_on,219,0,0,,10,,,69,127
49886,note_off,215,0,0,,10,,,81,127
49889,note_off,3,0,0,,10,,,69,127
49890,note_on,1,0,0,,12,,,71,127
49944,note_off,54,0,0,,12,,,71,127
49945,note_on,1,0,0,,10,,,69,127
49999,note_off,54,0,0,,10,,,69,127
50000,note_on,1,0,0,,12,,,71,127
50054,note_off,54,0,0,,12,,,71,127
50055,note_on,1,0,0,,10,,,69,127
50109,note_off,54,0,0,,10,,,69,127
50109,note_off,0,0,0,,0,,,48,127
50110,note_on,1,0,0,,12,,,71,127
50110,note_on,0,0,0,,0,,,48,127
50164,note_off,54,0,0,,12,,,71,127
50165,note_on,1,0,0,,10,,,69,127
50219,note_off,54,0,0,,10,,,69,127
50220,note_on,1,0,0,,8,,,68,127
50274,note_off,54,0,0,,8,,,68,127
50275,note_on,1,0,0,,10,,,69,127
50329,note_off,54,0,0,,0,,,48,127
50330,note_off,1,0,0,,10,,,69,127
50330,note_on,0,0,0,,2,,,50,127
50440,note_on,110,0,0,,0,,,72,127
50549,note_off,109,0,0,,0,,,72,127
50549,note_off,0,0,0,,2,,,50,127
50550,note_on,1,0,0,,12,,,71,127
50550,note_on,0,0,0,,2,,,50,127
50659,note_off,109,0,0,,12,,,71,127
50660,note_on,1,0,0,,10,,,69,127
50769,note_off,109,0,0,,10,,,69,127
50769,note_off,0,0,0,,2,,,50,127
50770,note_on,1,0,0,,8,,,68,127
50770,note_on,0,0,0,,4,,,52,127
50879,note_off,109,0,0,,8,,,68,127
50880,note_on,1,0,0,,5,,,65,127
50989,note_off,109,0,0,,5,,,65,127
50990,note_on,1,0,0,,4,,,64,127
50990,note_on,0,0,0,,4,,,40,127
51099,note_off,109,0,0,,4,,,64,127
51100,note_on,1,0,0,,2,,,62,127
51205,note_off,105,0,0,,4,,,52,127
51208,note_off,3,0,0,,2,,,62,127
51208,note_off,0,0,0,,4,,,40,127
51209,note_on,1,0,0,,0,,,60,127
51209,note_on,0,0,0,,10,,,45,127
51427,note_off,218,0,0,,0,,,60,127
51428,note_on,1,0,0,,4,,,64,127
51646,note_off,218,0,0,,4,,,64,127
51647,note_on,1,0,0,,5,,,65,127
51719,note_off,72,0,0,,5,,,65,127
51720,note_on,1,0,0,,4,,,64,127
51792,note_off,72,0,0,,4,,,64,127
51793,note_on,1,0,0,,2,,,62,127
51865,note_off,72,0,0,,2,,,62,127
51865,note_off,0,0,0,,10,,,45,127
51866,note_on,1,0,0,,0,,,60,127
51866,note_on,0,0,0,,10,,,57,127
52084,note_off,218,0,0,,10,,,57,127
52085,note_off,1,0,0,,0,,,60,127
52085,note_on,0,0,0,,10,,,57,127
52304,note_on,219,0,0,,4,,,64,127
52304,note_on,0,0,0,,10,,,45,127
52519,note_off,215,0,0,,10,,,57,127
52522,note_off,3,0,0,,4,,,64,127
52523,note_on,1,0,0,,5,,,65,127
52595,note_off,72,0,0,,5,,,65,127
52596,note_on,1,0,0,,4,,,64,127
52668,note_off,72,0,0,,4,,,64,127
52669,note_on,1,0,0,,2,,,62,127
52741,note_off,72,0,0,,2,,,62,127
52742,note_off,1,0,0,,10,,,45,127
52742,note_on,0,0,0,,0,,,60,127
52960,note_off,218,0,0,,0,,,60,127
52970,note_on,10,0,0,,0,,,72,127
53189,note_on,219,0,0,,10,,,57,127
53407,note_off,218,0,0,,10,,,57,127
53408,note_on,1,0,0,,10,,,57,127
53626,note_off,218,0,0,,10,,,57,127
53627,note_on,1,0,0,,10,,,57,127
53845,note_off,218,0,0,,0,,,72,127
53846,note_on,1,0,0,,10,,,81,127
54064,note_off,218,0,0,,10,,,57,127
54065,note_on,1,0,0,,5,,,53,127
54065,note_on,0,0,0,,0,,,60,127
54283,note_off,218,0,0,,0,,,60,127
54283,note_off,0,0,0,,5,,,53,127
54284,note_on,1,0,0,,5,,,53,127
54284,note_on,0,0,0,,0,,,60,127
54502,note_off,218,0,0,,0,,,60,127
54502,note_off,0,0,0,,5,,,53,127
54503,note_on,1,0,0,,5,,,53,127
54503,note_on,0,0,0,,0,,,60,127
54721,note_off,218,0,0,,10,,,81,127
54722,note_on,1,0,0,,0,,,72,127
54940,note_off,218,0,0,,0,,,60,127
54940,note_off,0,0,0,,5,,,53,127
54941,note_on,1,0,0,,3,,,51,127
54941,note_on,0,0,0,,0,,,60,127
55159,note_off,218,0,0,,0,,,60,127
55159,note_off,0,0,0,,3,,,51,127
55160,note_on,1,0,0,,3,,,51,127
55160,note_on,0,0,0,,0,,,60,127
55378,note_off,218,0,0,,0,,,60,127
55378,note_off,0,0,0,,3,,,51,127
55379,note_on,1,0,0,,3,,,51,127
55379,note_on,0,0,0,,0,,,60,127
55597,note_off,218,0,0,,0,,,60,127
55597,note_off,0,0,0,,3,,,51,127
55597,note_off,0,0,0,,0,,,72,127
55598,note_on,1,0,0,,6,,,78,127
55598,note_on,0,0,0,,2,,,50,127
55598,note_on,0,0,0,,0,,,60,127
55816,note_off,218,0,0,,0,,,60,127
55816,note_off,0,0,0,,2,,,50,127
55817,note_on,1,0,0,,2,,,50,127
55817,note_on,0,0,0,,0,,,60,127
56035,note_off,218,0,0,,0,,,60,127
56035,note_off,0,0,0,,2,,,50,127
56036,note_on,1,0,0,,2,,,50,127
56036,note_on,0,0,0,,0,,,60,127
56254,note_off,218,0,0,,0,,,60,127
56254,note_off,0,0,0,,2,,,50,127
56255,note_on,1,0,0,,2,,,50,127
56255,note_on,0,0,0,,0,,,60,127
56473,note_off,218,0,0,,0,,,60,127
56473,note_off,0,0,0,,2,,,50,127
56473,note_off,0,0,0,,6,,,78,127
56474,note_on,1,0,0,,10,,,81,127
56474,note_on,0,0,0,,3,,,51,127
56474,note_on,0,0,0,,12,,,59,127
56692,note_off,218,0,0,,12,,,59,127
56692,note_off,0,0,0,,3,,,51,127
56693,note_on,1,0,0,,12,,,59,127
56693,note_on,0,0,0,,3,,,51,127
56911,note_off,218,0,0,,3,,,51,127
56911,note_off,0,0,0,,12,,,59,127
56912,note_on,1,0,0,,3,,,51,127
56912,note_on,0,0,0,,12,,,59,127
57130,note_off,218,0,0,,12,,,59,127
57130,note_off,0,0,0,,3,,,51,127
57131,note_on,1,0,0,,3,,,51,127
57131,note_on,0,0,0,,12,,,59,127
57349,note_off,218,0,0,,12,,,59,127
57349,note_off,0,0,0,,3,,,51,127
57349,note_off,0,0,0,,10,,,81,127
57350,note_on,1,0,0,,7,,,79,127
57350,note_on,0,0,0,,4,,,52,127
57350,note_on,0,0,0,,12,,,59,127
57459,note_off,109,0,0,,7,,,79,127
57460,note_on,1,0,0,,6,,,78,127
57569,note_off,109,0,0,,6,,,78,127
57570,note_on,1,0,0,,4,,,76,127
57679,note_off,109,0,0,,4,,,76,127
57680,note_on,1,0,0,,2,,,74,127
57789,note_off,109,0,0,,2,,,74,127
57790,note_on,1,0,0,,0,,,72,127
57899,note_off,109,0,0,,0,,,72,127
57900,note_on,1,0,0,,12,,,71,127
58009,note_off,109,0,0,,12,,,71,127
58010,note_on,1,0,0,,10,,,69,127
58119,note_off,109,0,0,,10,,,69,127
58120,note_on,1,0,0,,7,,,67,127
58229,note_off,109,0,0,,7,,,67,127
58230,note_on,1,0,0,,7,,,79,127
58448,note_off,218,0,0,,12,,,59,127
58448,note_off,0,0,0,,4,,,52,127
58449,note_on,1,0,0,,4,,,52,127
58449,note_on,0,0,0,,7,,,55,127
58667,note_off,218,0,0,,7,,,55,127
58667,note_off,0,0,0,,4,,,52,127
58668,note_on,1,0,0,,7,,,55,127
58668,note_on,0,0,0,,4,,,52,127
58886,note_off,218,0,0,,4,,,52,127
58886,note_off,0,0,0,,7,,,55,127
58887,note_on,1,0,0,,7,,,55,127
58887,note_on,0,0,0,,4,,,52,127
59105,note_off,218,0,0,,4,,,52,127
59105,note_off,0,0,0,,7,,,55,127
59105,note_off,0,0,0,,7,,,79,127
59106,note_on,1,0,0,,1,,,73,127
59106,note_on,0,0,0,,10,,,45,127
59106,note_on,0,0,0,,7,,,55,127
59324,note_off,218,0,0,,7,,,55,127
59324,note_off,0,0,0,,10,,,45,127
59325,note_on,1,0,0,,7,,,55,127
59325,note_on,0,0,0,,10,,,45,127
59543,note_off,218,0,0,,10,,,45,127
59543,note_off,0,0,0,,7,,,55,127
59544,note_on,1,0,0,,10,,,45,127
59544,note_on,0,0,0,,7,,,55,127
59762,note_off,218,0,0,,7,,,55,127
59762,note_off,0,0,0,,10,,,45,127
59763,note_on,1,0,0,,10,,,45,127
59763,note_on,0,0,0,,7,,,55,127
59981,note_off,218,0,0,,7,,,55,127
59981,note_off,0,0,0,,10,,,45,127
59981,note_off,0,0,0,,1,,,73,127
59982,note_on,1,0,0,,2,,,74,127
59982,note_on,0,0,0,,11,,,46,127
59982,note_on,0,0,0,,7,,,55,127
60200,note_off,218,0,0,,7,,,55,127
60200,note_off,0,0,0,,11,,,46,127
60201,note_on,1,0,0,,11,,,46,127
60201,note_on,0,0,0,,7,,,55,127
60419,note_off,218,0,0,,7,,,55,127
60419,note_off,0,0,0,,11,,,46,127
60420,note_on,1,0,0,,7,,,55,127
60420,note_on,0,0,0,,11,,,46,127
60638,note_off,218,0,0,,11,,,46,127
60638,note_off,0,0,0,,7,,,55,127
60639,note_on,1,0,0,,11,,,46,127
60639,note_on,0,0,0,,7,,,55,127
60857,note_off,218,0,0,,7,,,55,127
60857,note_off,0,0,0,,11,,,46,127
60857,note_off,0,0,0,,2,,,74,127
60858,note_on,1,0,0,,7,,,79,127
60858,note_on,0,0,0,,10,,,57,127
60858,note_on,0,0,0,,1,,,49,127
61076,note_off,218,0,0,,1,,,49,127
61076,note_off,0,0,0,,10,,,57,127
61077,note_on,1,0,0,,1,,,49,127
61077,note_on,0,0,0,,10,,,57,127
61295,note_off,218,0,0,,10,,,57,127
61295,note_off,0,0,0,,1,,,49,127
61296,note_on,1,0,0,,10,,,57,127
61296,note_on,0,0,0,,1,,,49,127
61514,note_off,218,0,0,,1,,,49,127
61514,note_off,0,0,0,,10,,,57,127
61515,note_on,1,0,0,,1,,,49,127
61515,note_on,0,0,0,,10,,,57,127
61733,note_off,218,0,0,,10,,,57,127
61733,note_off,0,0,0,,1,,,49,127
61733,note_off,0,0,0,,7,,,79,127
61734,note_on,1,0,0,,5,,,77,127
61734,note_on,0,0,0,,2,,,50,127
61734,note_on,0,0,0,,10,,,57,127
61843,note_off,109,0,0,,5,,,77,127
61844,note_on,1,0,0,,4,,,76,127
61953,note_off,109,0,0,,4,,,76,127
61954,note_on,1,0,0,,2,,,74,127
62063,note_off,109,0,0,,2,,,74,127
62064,note_on,1,0,0,,0,,,72,127
62173,note_off,109,0,0,,0,,,72,127
62174,note_on,1,0,0,,11,,,70,127
62283,note_off,109,0,0,,11,,,70,127
62284,note_on,1,0,0,,10,,,69,127
62393,note_off,109,0,0,,10,,,69,127
62394,note_on,1,0,0,,7,,,67,127
62503,note_off,109,0,0,,7,,,67,127
62504,note_on,1,0,0,,5,,,65,127
62614,note_off,110,0,0,,10,,,57,127
62614,note_off,0,0,0,,2,,,50,127
62614,note_on,0,0,0,,5,,,77,127
62721,note_off,107,0,0,,5,,,65,127
62833,note_on,112,0,0,,5,,,65,127
62833,note_on,0,0,0,,2,,,62,127
63051,note_off,218,0,0,,2,,,62,127
63051,note_off,0,0,0,,5,,,65,127
63052,note_on,1,0,0,,2,,,62,127
63052,note_on,0,0,0,,5,,,65,127
63270,note_off,218,0,0,,5,,,65,127
63270,note_off,0,0,0,,2,,,62,127
63271,note_on,1,0,0,,2,,,62,127
63271,note_on,0,0,0,,5,,,65,127
63489,note_off,218,0,0,,5,,,77,127
63490,note_on,1,0,0,,5,,,77,127
63708,note_off,218,0,0,,5,,,65,127
63708,note_off,0,0,0,,2,,,62,127
63709,note_on,1,0,0,,2,,,62,127
63709,note_on,0,0,0,,11,,,58,127
63927,note_off,218,0,0,,11,,,58,127
63927,note_off,0,0,0,,2,,,62,127
63928,note_on,1,0,0,,11,,,58,127
63928,note_on,0,0,0,,2,,,62,127
64146,note_off,218,0,0,,2,,,62,127
64146,note_off,0,0,0,,11,,,58,127
64147,note_on,1,0,0,,11,,,58,127
64147,note_on,0,0,0,,2,,,62,127
64365,note_off,218,0,0,,2,,,62,127
64365,note_off,0,0,0,,11,,,58,127
64365,note_off,0,0,0,,5,,,77,127
64366,note_on,1,0,0,,5,,,77,127
64366,note_on,0,0,0,,8,,,56,127
64366,note_on,0,0,0,,5,,,65,127
64584,note_off,218,0,0,,5,,,65,127
64584,note_off,0,0,0,,8,,,56,127
64585,note_on,1,0,0,,5,,,65,127
64585,note_on,0,0,0,,8,,,56,127
64803,note_off,218,0,0,,8,,,56,127
64803,note_off,0,0,0,,5,,,65,127
64804,note_on,1,0,0,,5,,,65,127
64804,note_on,0,0,0,,8,,,56,127
65022,note_off,218,0,0,,8,,,56,127
65022,note_off,0,0,0,,5,,,65,127
65023,note_on,1,0,0,,8,,,56,127
65023,note_on,0,0,0,,5,,,65,127
65241,note_off,218,0,0,,5,,,65,127
65241,note_off,0,0,0,,8,,,56,127
65241,note_off,0,0,0,,5,,,77,127
65242,note_on,1,0,0,,12,,,83,127
65242,note_on,0,0,0,,7,,,55,127
65242,note_on,0,0,0,,5,,,65,127
65460,note_off,218,0,0,,5,,,65,127
65460,note_off,0,0,0,,7,,,55,127
65461,note_on,1,0,0,,7,,,55,127
65461,note_on,0,0,0,,5,,,65,127
65679,note_off,218,0,0,,5,,,65,127
65679,note_off,0,0,0,,7,,,55,127
65680,note_on,1,0,0,,7,,,55,127
65680,note_on,0,0,0,,5,,,65,127
65898,note_off,218,0,0,,5,,,65,127
65898,note_off,0,0,0,,7,,,55,127
65899,note_on,1,0,0,,7,,,55,127
65899,note_on,0,0,0,,5,,,65,127
66117,note_off,218,0,0,,5,,,65,127
66117,note_off,0,0,0,,7,,,55,127
66117,note_off,0,0,0,,12,,,83,127
66118,note_on,1,0,0,,5,,,77,127
66118,note_on,0,0,0,,7,,,55,127
66118,note_on,0,0,0,,5,,,65,127
66336,note_off,218,0,0,,5,,,65,127
66336,note_off,0,0,0,,7,,,55,127
66337,note_on,1,0,0,,7,,,55,127
66337,note_on,0,0,0,,5,,,65,127
66555,note_off,218,0,0,,5,,,65,127
66555,note_off,0,0,0,,7,,,55,127
66556,note_on,1,0,0,,5,,,65,127
66556,note_on,0,0,0,,7,,,55,127
66774,note_off,218,0,0,,7,,,55,127
66774,note_off,0,0,0,,5,,,65,127
66775,note_on,1,0,0,,7,,,55,127
66775,note_on,0,0,0,,5,,,65,127
66993,note_off,218,0,0,,5,,,65,127
66993,note_off,0,0,0,,7,,,55,127
66993,note_off,0,0,0,,5,,,77,127
66994,note_on,1,0,0,,4,,,76,127
66994,note_on,0,0,0,,0,,,60,127
66994,note_on,0,0,0,,0,,,48,127
67212,note_off,218,0,0,,4,,,76,127
67213,note_on,1,0,0,,0,,,84,127
67322,note_off,109,0,0,,0,,,84,127
67323,note_on,1,0,0,,7,,,79,127
67432,note_off,109,0,0,,7,,,79,127
67433,note_on,1,0,0,,10,,,81,127
67542,note_off,109,0,0,,10,,,81,127
67543,note_on,1,0,0,,5,,,77,127
67652,note_off,109,0,0,,5,,,77,127
67653,note_on,1,0,0,,4,,,76,127
67762,note_off,109,0,0,,4,,,76,127
67763,note_on,1,0,0,,2,,,74,127
67872,note_off,109,0,0,,2,,,74,127
67872,note_off,0,0,0,,0,,,48,127
67872,note_off,0,0,0,,0,,,60,127
67873,note_on,1,0,0,,4,,,76,127
67873,note_on,0,0,0,,0,,,48,127
67873,note_on,0,0,0,,0,,,60,127
68091,note_off,218,0,0,,4,,,76,127
68092,note_on,1,0,0,,7,,,79,127
68201,note_off,109,0,0,,7,,,79,127
68202,note_on,1,0,0,,12,,,71,127
68311,note_off,109,0,0,,12,,,71,127
68312,note_on,1,0,0,,0,,,72,127
68421,note_off,109,0,0,,0,,,72,127
68422,note_on,1,0,0,,2,,,74,127
68531,note_off,109,0,0,,2,,,74,127
68532,note_on,1,0,0,,4,,,76,127
68641,note_off,109,0,0,,4,,,76,127
68642,note_on,1,0,0,,7,,,67,127
68751,note_off,109,0,0,,7,,,67,127
68752,note_off,1,0,0,,0,,,60,127
68752,note_off,0,0,0,,0,,,48,127
68752,note_on,0,0,0,,10,,,69,127
68971,note_on,219,0,0,,5,,,53,127
68971,note_on,0,0,0,,0,,,60,127
69189,note_off,218,0,0,,0,,,60,127
69189,note_off,0,0,0,,5,,,53,127
69190,note_on,1,0,0,,0,,,60,127
69190,note_on,0,0,0,,5,,,53,127
69408,note_off,218,0,0,,5,,,53,127
69408,note_off,0,0,0,,0,,,60,127
69408,note_off,0,0,0,,10,,,69,127
69409,note_on,1,0,0,,12,,,71,127
69409,note_on,0,0,0,,5,,,53,127
69409,note_on,0,0,0,,0,,,60,127
69518,note_off,109,0,0,,12,,,71,127
69519,note_on,1,0,0,,0,,,72,127
69628,note_off,109,0,0,,0,,,72,127
69628,note_off,0,0,0,,0,,,60,127
69628,note_off,0,0,0,,5,,,53,127
69629,note_on,1,0,0,,4,,,64,127
69629,note_on,0,0,0,,6,,,54,127
69629,note_on,0,0,0,,0,,,60,127
69847,note_off,218,0,0,,0,,,60,127
69847,note_off,0,0,0,,6,,,54,127
69848,note_on,1,0,0,,6,,,54,127
69848,note_on,0,0,0,,0,,,60,127
70066,note_off,218,0,0,,0,,,60,127
70066,note_off,0,0,0,,6,,,54,127
70067,note_on,1,0,0,,6,,,54,127
70067,note_on,0,0,0,,0,,,60,127
70285,note_off,218,0,0,,0,,,60,127
70285,note_off,0,0,0,,6,,,54,127
70285,note_off,0,0,0,,4,,,64,127
70286,note_on,1,0,0,,5,,,65,127
70286,note_on,0,0,0,,6,,,54,127
70286,note_on,0,0,0,,0,,,60,127
70395,note_off,109,0,0,,5,,,65,127
70396,note_on,1,0,0,,7,,,67,127
70505,note_off,109,0,0,,7,,,67,127
70505,note_off,0,0,0,,0,,,60,127
70505,note_off,0,0,0,,6,,,54,127
70506,note_on,1,0,0,,4,,,64,127
70506,note_on,0,0,0,,7,,,55,127
70724,note_off,218,0,0,,4,,,64,127
70725,note_on,1,0,0,,2,,,62,127
70834,note_off,109,0,0,,2,,,62,127
70835,note_on,1,0,0,,0,,,60,127
70944,note_off,109,0,0,,0,,,60,127
70944,note_off,0,0,0,,7,,,55,127
70945,note_on,1,0,0,,4,,,64,127
70945,note_on,0,0,0,,7,,,43,127
70999,note_off,54,0,0,,4,,,64,127
71000,note_on,1,0,0,,2,,,62,127
71054,note_off,54,0,0,,2,,,62,127
71055,note_on,1,0,0,,4,,,64,127
71109,note_off,54,0,0,,4,,,64,127
71110,note_on,1,0,0,,2,,,62,127
71164,note_off,54,0,0,,2,,,62,127
71165,note_on,1,0,0,,4,,,64,127
71219,note_off,54,0,0,,4,,,64,127
71220,note_on,1,0,0,,2,,,62,127
71274,note_off,54,0,0,,2,,,62,127
71275,note_on,1,0,0,,0,,,60,127
71329,note_off,54,0,0,,0,,,60,127
71330,note_on,1,0,0,,2,,,62,127
71384,note_off,54,0,0,,7,,,43,127
71385,note_off,1,0,0,,2,,,62,127
71412,note_on,27,0,0,,7,,,55,127
71631,note_on,219,0,0,,7,,,79,127
71740,note_off,109,0,0,,7,,,79,127
71741,note_on,1,0,0,,2,,,74,127
71850,note_off,109,0,0,,2,,,74,127
71851,note_on,1,0,0,,4,,,76,127
71960,note_off,109,0,0,,4,,,76,127
71961,note_on,1,0,0,,0,,,72,127
72070,note_off,109,0,0,,0,,,72,127
72071,note_on,1,0,0,,12,,,71,127
72180,note_off,109,0,0,,12,,,71,127
72181,note_on,1,0,0,,10,,,69,127
72290,note_off,109,0,0,,10,,,69,127
72290,note_off,0,0,0,,7,,,55,127
72291,note_on,1,0,0,,5,,,53,127
72291,note_on,0,0,0,,12,,,71,127
72509,note_off,218,0,0,,12,,,71,127
72510,note_on,1,0,0,,7,,,79,127
72619,note_off,109,0,0,,7,,,79,127
72620,note_on,1,0,0,,2,,,74,127
72729,note_off,109,0,0,,2,,,74,127
72730,note_on,1,0,0,,4,,,76,127
72839,note_off,109,0,0,,4,,,76,127
72840,note_on,1,0,0,,0,,,72,127
72949,note_off,109,0,0,,0,,,72,127
72950,note_on,1,0,0,,2,,,74,127
73059,note_off,109,0,0,,2,,,74,127
73060,note_on,1,0,0,,12,,,71,127
73169,note_off,109,0,0,,12,,,71,127
73169,note_off,0,0,0,,5,,,53,127
73170,note_on,1,0,0,,0,,,60,127
73170,note_on,0,0,0,,4,,,52,127
73170,note_on,0,0,0,,0,,,72,127
73388,note_off,218,0,0,,0,,,72,127
73389,note_on,1,0,0,,0,,,84,127
73498,note_off,109,0,0,,0,,,84,127
73499,note_on,1,0,0,,7,,,79,127
73608,note_off,109,0,0,,7,,,79,127
73608,note_off,0,0,0,,4,,,52,127
73608,note_off,0,0,0,,0,,,60,127
73609,note_on,1,0,0,,5,,,53,127
73609,note_on,0,0,0,,10,,,81,127
73718,note_off,109,0,0,,10,,,81,127
73719,note_on,1,0,0,,5,,,77,127
73828,note_off,109,0,0,,5,,,77,127
73829,note_on,1,0,0,,4,,,76,127
73938,note_off,109,0,0,,4,,,76,127
73939,note_on,1,0,0,,2,,,74,127
74048,note_off,109,0,0,,2,,,74,127
74048,note_off,0,0,0,,5,,,53,127
74049,note_on,1,0,0,,7,,,55,127
74049,note_on,0,0,0,,0,,,72,127
74158,note_off,109,0,0,,0,,,72,127
74159,note_on,1,0,0,,12,,,71,127
74268,note_off,109,0,0,,12,,,71,127
74269,note_on,1,0,0,,0,,,72,127
74378,note_off,109,0,0,,0,,,72,127
74379,note_on,1,0,0,,2,,,74,127
74488,note_off,109,0,0,,2,,,74,127
74489,note_on,1,0,0,,7,,,43,127
74489,note_on,0,0,0,,4,,,76,127
74543,note_off,54,0,0,,4,,,76,127
74544,note_on,1,0,0,,2,,,74,127
74598,note_off,54,0,0,,2,,,74,127
74599,note_on,1,0,0,,4,,,76,127
74653,note_off,54,0,0,,4,,,76,127
74654,note_on,1,0,0,,2,,,74,127
74708,note_off,54,0,0,,2,,,74,127
74709,note_on,1,0,0,,4,,,76,127
74763,note_off,54,0,0,,4,,,76,127
74764,note_on,1,0,0,,2,,,74,127
74818,note_off,54,0,0,,2,,,74,127
74821,note_on,3,0,0,,0,,,72,127
74875,note_off,54,0,0,,0,,,72,127
74877,note_on,2,0,0,,2,,,74,127
74927,note_off,50,0,0,,7,,,55,127
74928,note_off,1,0,0,,7,,,43,127
74930,note_off,2,0,0,,2,,,74,127
74964,note_on,34,0,0,,0,,,72,127
75183,note_on,219,0,0,,0,,,60,127
75183,note_on,0,0,0,,8,,,56,127
75401,note_off,218,0,0,,8,,,56,127
75401,note_off,0,0,0,,0,,,60,127
75402,note_on,1,0,0,,0,,,60,127
75402,note_on,0,0,0,,8,,,56,127
75620,note_off,218,0,0,,8,,,56,127
75620,note_off,0,0,0,,0,,,60,127
75621,note_on,1,0,0,,0,,,60,127
75621,note_on,0,0,0,,8,,,56,127
75839,note_off,218,0,0,,0,,,72,127
75840,note_on,1,0,0,,3,,,75,127
76058,note_off,218,0,0,,8,,,56,127
76058,note_off,0,0,0,,0,,,60,127
76059,note_on,1,0,0,,0,,,60,127
76059,note_on,0,0,0,,3,,,51,127
76277,note_off,218,0,0,,3,,,51,127
76277,note_off,0,0,0,,0,,,60,127
76278,note_on,1,0,0,,0,,,60,127
76278,note_on,0,0,0,,3,,,51,127
76496,note_off,218,0,0,,3,,,51,127
76496,note_off,0,0,0,,0,,,60,127
76497,note_on,1,0,0,,0,,,60,127
76497,note_on,0,0,0,,3,,,51,127
76715,note_off,218,0,0,,3,,,75,127
76716,note_on,1,0,0,,2,,,74,127
76934,note_off,218,0,0,,3,,,51,127
76934,note_off,0,0,0,,0,,,60,127
76935,note_on,1,0,0,,0,,,60,127
76935,note_on,0,0,0,,5,,,53,127
77153,note_off,218,0,0,,5,,,53,127
77153,note_off,0,0,0,,0,,,60,127
77154,note_on,1,0,0,,0,,,60,127
77154,note_on,0,0,0,,5,,,53,127
77372,note_off,218,0,0,,5,,,53,127
77372,note_off,0,0,0,,0,,,60,127
77373,note_on,1,0,0,,0,,,60,127
77373,note_on,0,0,0,,5,,,53,127
77591,note_off,218,0,0,,5,,,53,127
77591,note_off,0,0,0,,0,,,60,127
77591,note_off,0,0,0,,2,,,74,127
77592,note_on,1,0,0,,0,,,60,127
77592,note_on,0,0,0,,6,,,54,127
77592,note_on,0,0,0,,0,,,72,127
77810,note_off,218,0,0,,6,,,54,127
77810,note_off,0,0,0,,0,,,60,127
77811,note_on,1,0,0,,0,,,60,127
77811,note_on,0,0,0,,6,,,54,127
78029,note_off,218,0,0,,6,,,54,127
78029,note_off,0,0,0,,0,,,60,127
78030,note_on,1,0,0,,6,,,54,127
78030,note_on,0,0,0,,0,,,60,127
78248,note_off,218,0,0,,0,,,60,127
78248,note_off,0,0,0,,6,,,54,127
78249,note_on,1,0,0,,0,,,60,127
78249,note_on,0,0,0,,6,,,54,127
78467,note_off,218,0,0,,6,,,54,127
78467,note_off,0,0,0,,0,,,60,127
78467,note_off,0,0,0,,0,,,72,127
78468,note_on,1,0,0,,2,,,62,127
78468,note_on,0,0,0,,7,,,55,127
78468,note_on,0,0,0,,12,,,71,127
78686,note_off,218,0,0,,12,,,71,127
78687,note_on,1,0,0,,7,,,79,127
78796,note_off,109,0,0,,7,,,79,127
78797,note_on,1,0,0,,2,,,74,127
78906,note_off,109,0,0,,2,,,74,127
78907,note_on,1,0,0,,4,,,76,127
79016,note_off,109,0,0,,4,,,76,127
79017,note_on,1,0,0,,0,,,72,127
79126,note_off,109,0,0,,0,,,72,127
79127,note_on,1,0,0,,12,,,71,127
79236,note_off,109,0,0,,12,,,71,127
79237,note_on,1,0,0,,10,,,69,127
79346,note_off,109,0,0,,10,,,69,127
79346,note_off,0,0,0,,7,,,55,127
79346,note_off,0,0,0,,2,,,62,127
79347,note_on,1,0,0,,5,,,53,127
79347,note_on,0,0,0,,12,,,71,127
79565,note_off,218,0,0,,12,,,71,127
79566,note_on,1,0,0,,7,,,79,127
79675,note_off,109,0,0,,7,,,79,127
79676,note_on,1,0,0,,2,,,74,127
79785,note_off,109,0,0,,2,,,74,127
79786,note_on,1,0,0,,4,,,76,127
79895,note_off,109,0,0,,4,,,76,127
79896,note_on,1,0,0,,0,,,72,127
80005,note_off,109,0,0,,0,,,72,127
80006,note_on,1,0,0,,2,,,74,127
80115,note_off,109,0,0,,2,,,74,127
80116,note_on,1,0,0,,12,,,71,127
80225,note_off,109,0,0,,12,,,71,127
80225,note_off,0,0,0,,5,,,53,127
80226,note_on,1,0,0,,0,,,60,127
80226,note_on,0,0,0,,4,,,52,127
80226,note_on,0,0,0,,0,,,72,127
80444,note_off,218,0,0,,0,,,72,127
80445,note_on,1,0,0,,0,,,84,127
80554,note_off,109,0,0,,0,,,84,127
80555,note_on,1,0,0,,7,,,79,127
80664,note_off,109,0,0,,7,,,79,127
80664,note_off,0,0,0,,4,,,52,127
80664,note_off,0,0,0,,0,,,60,127
80665,note_on,1,0,0,,5,,,53,127
80665,note_on,0,0,0,,10,,,81,127
80774,note_off,109,0,0,,10,,,81,127
80775,note_on,1,0,0,,5,,,77,127
80884,note_off,109,0,0,,5,,,77,127
80885,note_on,1,0,0,,4,,,76,127
80994,note_off,109,0,0,,4,,,76,127
80995,note_on,1,0,0,,2,,,74,127
81104,note_off,109,0,0,,2,,,74,127
81104,note_off,0,0,0,,5,,,53,127
81105,note_on,1,0,0,,7,,,55,127
81105,note_on,0,0,0,,0,,,72,127
81214,note_off,109,0,0,,0,,,72,127
81215,note_on,1,0,0,,12,,,71,127
81324,note_off,109,0,0,,12,,,71,127
81325,note_on,1,0,0,,0,,,72,127
81434,note_off,109,0,0,,0,,,72,127
81435,note_on,1,0,0,,2,,,74,127
81544,note_off,109,0,0,,2,,,74,127
81545,note_on,1,0,0,,7,,,43,127
81545,note_on,0,0,0,,4,,,76,127
81599,note_off,54,0,0,,4,,,76,127
81600,note_on,1,0,0,,2,,,74,127
81654,note_off,54,0,0,,2,,,74,127
81655,note_on,1,0,0,,4,,,76,127
81709,note_off,54,0,0,,4,,,76,127
81710,note_on,1,0,0,,2,,,74,127
81764,note_off,54,0,0,,2,,,74,127
81765,note_on,1,0,0,,4,,,76,127
81819,note_off,54,0,0,,4,,,76,127
81820,note_on,1,0,0,,2,,,74,127
81874,note_off,54,0,0,,2,,,74,127
81875,note_on,1,0,0,,0,,,72,127
81929,note_off,54,0,0,,0,,,72,127
81930,note_on,1,0,0,,2,,,74,127
81984,note_off,54,0,0,,2,,,74,127
81984,note_off,0,0,0,,7,,,43,127
81984,note_off,0,0,0,,7,,,55,127
82003,note_on,19,0,0,,0,,,72,127
82003,note_on,0,0,0,,0,,,48,127
82112,note_off,109,0,0,,0,,,72,127
82113,note_on,1,0,0,,10,,,81,127
82222,note_off,109,0,0,,10,,,81,127
82223,note_on,1,0,0,,7,,,79,127
82441,note_off,218,0,0,,0,,,48,127
82442,note_on,1,0,0,,12,,,59,127
82551,note_off,109,0,0,,7,,,79,127
82552,note_on,1,0,0,,7,,,79,127
82661,note_off,109,0,0,,7,,,79,127
82662,note_on,1,0,0,,5,,,77,127
82880,note_off,218,0,0,,12,,,59,127
82881,note_on,1,0,0,,0,,,60,127
82990,note_off,109,0,0,,5,,,77,127
82991,note_on,1,0,0,,5,,,77,127
83100,note_off,109,0,0,,5,,,77,127
83101,note_on,1,0,0,,4,,,76,127
83319,note_off,218,0,0,,0,,,60,127
83320,note_on,1,0,0,,7,,,55,127
83429,note_off,109,0,0,,4,,,76,127
83430,note_on,1,0,0,,4,,,76,127
83539,note_off,109,0,0,,4,,,76,127
83540,note_on,1,0,0,,2,,,74,127
83758,note_off,218,0,0,,2,,,74,127
83758,note_off,0,0,0,,7,,,55,127
83759,note_on,1,0,0,,0,,,72,127
83759,note_on,0,0,0,,0,,,48,127
83868,note_off,109,0,0,,0,,,72,127
83869,note_on,1,0,0,,10,,,81,127
83978,note_off,109,0,0,,10,,,81,127
83979,note_on,1,0,0,,7,,,79,127
84197,note_off,218,0,0,,0,,,48,127
84198,note_on,1,0,0,,12,,,59,127
84307,note_off,109,0,0,,7,,,79,127
84308,note_on,1,0,0,,7,,,79,127
84417,note_off,109,0,0,,7,,,79,127
84418,note_on,1,0,0,,5,,,77,127
84636,note_off,218,0,0,,12,,,59,127
84637,note_on,1,0,0,,0,,,60,127
84746,note_off,109,0,0,,5,,,77,127
84747,note_on,1,0,0,,5,,,77,127
84856,note_off,109,0,0,,5,,,77,127
84857,note_on,1,0,0,,4,,,76,127
85075,note_off,218,0,0,,0,,,60,127
85076,note_on,1,0,0,,7,,,55,127
85185,note_off,109,0,0,,4,,,76,127
85186,note_on,1,0,0,,4,,,76,127
85295,note_off,109,0,0,,4,,,76,127
85296,note_on,1,0,0,,2,,,74,127
85514,note_off,218,0,0,,2,,,74,127
85514,note_off,0,0,0,,7,,,55,127
85515,note_on,1,0,0,,0,,,72,127
85515,note_on,0,0,0,,0,,,48,127
85733,note_off,218,0,0,,0,,,48,127
85733,note_off,0,0,0,,0,,,72,127
85734,note_on,1,0,0,,0,,,84,127
85734,note_on,0,0,0,,4,,,52,127
85843,note_off,109,0,0,,0,,,84,127
85844,note_on,1,0,0,,7,,,79,127
85953,note_off,109,0,0,,7,,,79,127
85953,note_off,0,0,0,,4,,,52,127
85954,note_on,1,0,0,,10,,,81,127
85954,note_on,0,0,0,,5,,,53,127
86063,note_off,109,0,0,,10,,,81,127
86064,note_on,1,0,0,,5,,,77,127
86173,note_off,109,0,0,,5,,,77,127
86173,note_off,0,0,0,,5,,,53,127
86174,note_on,1,0,0,,12,,,83,127
86174,note_on,0,0,0,,2,,,50,127
86283,note_off,109,0,0,,12,,,83,127
86284,note_on,1,0,0,,7,,,79,127
86393,note_off,109,0,0,,7,,,79,127
86393,note_off,0,0,0,,2,,,50,127
86403,note_on,10,0,0,,0,,,84,127
86403,note_on,0,0,0,,4,,,52,127
86513,note_on,110,0,0,,0,,,72,127
86620,note_off,107,0,0,,0,,,84,127
86621,note_off,1,0,0,,0,,,72,127
86621,note_off,0,0,0,,4,,,52,127
86622,note_on,1,0,0,,5,,,77,127
86622,note_on,0,0,0,,5,,,53,127
86731,note_off,109,0,0,,5,,,77,127
86732,note_on,1,0,0,,2,,,74,127
86841,note_off,109,0,0,,2,,,74,127
86841,note_off,0,0,0,,5,,,53,127
86842,note_on,1,0,0,,4,,,76,127
86842,note_on,0,0,0,,7,,,55,127
86896,note_off,54,0,0,,4,,,76,127
86897,note_on,1,0,0,,2,,,74,127
86951,note_off,54,0,0,,2,,,74,127
86952,note_on,1,0,0,,4,,,76,127
87006,note_off,54,0,0,,4,,,76,127
87007,note_on,1,0,0,,2,,,74,127
87061,note_off,54,0,0,,2,,,74,127
87061,note_off,0,0,0,,7,,,55,127
87062,note_on,1,0,0,,4,,,76,127
87062,note_on,0,0,0,,5,,,53,127
87116,note_off,54,0,0,,4,,,76,127
87117,note_on,1,0,0,,2,,,74,127
87171,note_off,54,0,0,,2,,,74,127
87172,note_on,1,0,0,,0,,,72,127
87226,note_off,54,0,0,,0,,,72,127
87227,note_on,1,0,0,,2,,,74,127
87281,note_off,54,0,0,,5,,,53,127
87296,note_off,15,0,0,,2,,,74,127
87301,note_on,5,0,0,,0,,,84,127
87301,note_on,0,0,0,,4,,,52,127
87411,note_on,110,0,0,,0,,,72,127
87518,note_off,107,0,0,,0,,,84,127
87519,note_off,1,0,0,,0,,,72,127
87519,note_off,0,0,0,,4,,,52,127
87520,note_on,1,0,0,,5,,,77,127
87520,note_on,0,0,0,,5,,,53,127
87629,note_off,109,0,0,,5,,,77,127
87630,note_on,1,0,0,,2,,,74,127
87739,note_off,109,0,0,,2,,,74,127
87739,note_off,0,0,0,,5,,,53,127
87740,note_on,1,0,0,,4,,,76,127
87740,note_on,0,0,0,,7,,,55,127
87794,note_off,54,0,0,,4,,,76,127
87795,note_on,1,0,0,,2,,,74,127
87849,note_off,54,0,0,,2,,,74,127
87850,note_on,1,0,0,,4,,,76,127
87904,note_off,54,0,0,,4,,,76,127
87905,note_on,1,0,0,,2,,,74,127
87959,note_off,54,0,0,,2,,,74,127
87959,note_off,0,0,0,,7,,,55,127
87960,note_on,1,0,0,,4,,,76,127
87960,note_on,0,0,0,,5,,,53,127
88014,note_off,54,0,0,,4,,,76,127
88015,note_on,1,0,0,,2,,,74,127
88069,note_off,54,0,0,,2,,,74,127
88070,note_on,1,0,0,,0,,,72,127
88124,note_off,54,0,0,,0,,,72,127
88125,note_on,1,0,0,,2,,,74,127
88179,note_off,54,0,0,,2,,,74,127
88179,note_off,0,0,0,,5,,,53,127
88198,note_on,19,0,0,,4,,,52,127
88198,note_on,0,0,0,,0,,,84,127
88309,note_on,111,0,0,,0,,,72,127
88415,note_off,106,0,0,,0,,,84,127
88416,note_off,1,0,0,,4,,,52,127
88418,note_off,2,0,0,,0,,,72,127
88421,note_on,3,0,0,,5,,,77,127
88421,note_on,0,0,0,,5,,,53,127
88531,note_off,110,0,0,,5,,,77,127
88534,note_on,3,0,0,,2,,,74,127
88643,note_off,109,0,0,,5,,,53,127
88644,note_off,1,0,0,,2,,,74,127
88647,note_on,3,0,0,,4,,,76,127
88647,note_on,0,0,0,,7,,,55,127
88701,note_off,54,0,0,,4,,,76,127
88704,note_on,3,0,0,,2,,,74,127
88760,note_on,56,0,0,,4,,,76,127
88762,note_off,2,0,0,,2,,,74,127
88816,note_on,54,0,0,,2,,,74,127
88818,note_off,2,0,0,,4,,,76,127
88873,note_on,55,0,0,,4,,,76,127
88873,note_on,0,0,0,,7,,,43,127
88874,note_off,1,0,0,,2,,,74,127
88929,note_on,55,0,0,,2,,,74,127
88931,note_off,2,0,0,,4,,,76,127
88986,note_on,55,0,0,,0,,,72,127
88987,note_off,1,0,0,,2,,,74,127
89042,note_on,55,0,0,,2,,,74,127
89044,note_off,2,0,0,,0,,,72,127
89089,note_off,45,0,0,,7,,,55,127
89119,note_off,30,0,0,,7,,,43,127
89127,note_off,8,0,0,,2,,,74,127
89143,note_on,16,0,0,,0,,,48,127
89143,note_on,0,0,0,,0,,,72,127
90932,note_off,1789,0,0,,0,,,72,127
90932,note_off,0,0,0,,0,,,48,127
96768,end_of_track,5836,1,0,,,,,,
