tick,type,time,meta,track,program,channel,pitch,tempo,note,velocity
0,copyright,0,1,0,,,,,,
0,program_change,0,0,0,6,0,,,,
0,pitchwheel,0,0,0,,0,0,,,
0,program_change,0,0,0,6,1,,,,
0,pitchwheel,0,0,0,,1,-590,,,
0,program_change,0,0,0,6,2,,,,
0,pitchwheel,0,0,0,,2,-272,,,
0,program_change,0,0,0,6,3,,,,
0,pitchwheel,0,0,0,,3,-353,,,
0,program_change,0,0,0,6,4,,,,
0,pitchwheel,0,0,0,,4,-560,,,
0,program_change,0,0,0,6,5,,,,
0,pitchwheel,0,0,0,,5,-80,,,
0,program_change,0,0,0,6,6,,,,
0,pitchwheel,0,0,0,,6,-625,,,
0,program_change,0,0,0,6,7,,,,
0,pitchwheel,0,0,0,,7,-130,,,
0,program_change,0,0,0,6,8,,,,
0,pitchwheel,0,0,0,,8,-512,,,
0,program_change,0,0,0,6,10,,,,
0,pitchwheel,0,0,0,,10,-464,,,
0,program_change,0,0,0,6,11,,,,
0,pitchwheel,0,0,0,,11,-208,,,
0,program_change,0,0,0,6,12,,,,
0,pitchwheel,0,0,0,,12,-553,,,
0,set_tempo,0,1,0,,,,500000,,
72,note_on,72,0,0,,11,,,58,127
72,note_on,0,0,0,,2,,,74,127
358,note_off,286,0,0,,2,,,74,127
360,note_on,2,0,0,,0,,,72,127
502,note_off,142,0,0,,0,,,72,127
504,note_on,2,0,0,,11,,,70,127
646,note_off,142,0,0,,11,,,70,127
646,note_off,0,0,0,,11,,,58,127
648,note_on,2,0,0,,2,,,62,127
648,note_on,0,0,0,,5,,,77,127
934,note_off,286,0,0,,5,,,77,127
936,note_on,2,0,0,,3,,,75,127
1078,note_off,142,0,0,,3,,,75,127
1080,note_on,2,0,0,,2,,,74,127
1222,note_off,142,0,0,,2,,,74,127
1222,note_off,0,0,0,,2,,,62,127
1224,note_on,2,0,0,,3,,,63,127
1224,note_on,0,0,0,,7,,,79,127
1510,note_off,286,0,0,,7,,,79,127
1512,note_on,2,0,0,,5,,,77,127
1798,note_off,286,0,0,,3,,,63,127
1800,note_on,2,0,0,,5,,,65,127
1896,note_off,96,0,0,,5,,,77,127
1896,note_on,0,0,0,,3,,,75,127
1990,note_off,94,0,0,,3,,,75,127
1992,note_on,2,0,0,,5,,,77,127
2086,note_off,94,0,0,,5,,,77,127
2086,note_off,0,0,0,,5,,,65,127
2088,note_on,2,0,0,,7,,,67,127
2088,note_on,0,0,0,,3,,,75,127
2182,note_off,94,0,0,,3,,,75,127
2183,note_on,1,0,0,,2,,,74,127
2277,note_off,94,0,0,,2,,,74,127
2277,note_off,0,0,0,,7,,,67,127
2278,note_on,1,0,0,,10,,,69,127
2278,note_on,0,0,0,,3,,,75,127
2367,note_off,89,0,0,,3,,,75,127
2367,note_off,0,0,0,,10,,,69,127
2375,note_on,8,0,0,,11,,,70,127
2375,note_on,0,0,0,,2,,,74,127
2661,note_off,286,0,0,,2,,,74,127
2663,note_on,2,0,0,,0,,,72,127
2805,note_off,142,0,0,,0,,,72,127
2806,note_off,1,0,0,,11,,,70,127
2807,note_on,1,0,0,,11,,,70,127
2949,note_off,142,0,0,,11,,,70,127
2951,note_on,2,0,0,,2,,,62,127
2951,note_on,0,0,0,,5,,,77,127
3236,note_off,285,0,0,,5,,,77,127
3239,note_on,3,0,0,,3,,,75,127
3381,note_off,142,0,0,,3,,,75,127
3383,note_on,2,0,0,,2,,,74,127
3525,note_off,142,0,0,,2,,,74,127
3525,note_off,0,0,0,,2,,,62,127
3527,note_on,2,0,0,,3,,,63,127
3527,note_on,0,0,0,,7,,,79,127
3813,note_off,286,0,0,,7,,,79,127
3815,note_on,2,0,0,,11,,,70,127
4101,note_off,286,0,0,,3,,,63,127
4103,note_on,2,0,0,,5,,,65,127
4199,note_off,96,0,0,,11,,,70,127
4199,note_on,0,0,0,,10,,,69,127
4293,note_off,94,0,0,,10,,,69,127
4295,note_on,2,0,0,,11,,,70,127
4389,note_off,94,0,0,,11,,,70,127
4389,note_off,0,0,0,,5,,,65,127
4391,note_on,2,0,0,,3,,,63,127
4391,note_on,0,0,0,,10,,,69,127
4485,note_off,94,0,0,,10,,,69,127
4487,note_on,2,0,0,,7,,,67,127
4581,note_off,94,0,0,,7,,,67,127
4583,note_on,2,0,0,,10,,,69,127
4677,note_off,94,0,0,,10,,,69,127
4677,note_off,0,0,0,,3,,,63,127
4679,note_on,2,0,0,,2,,,62,127
4679,note_on,0,0,0,,11,,,70,127
4965,note_off,286,0,0,,11,,,70,127
4967,note_on,2,0,0,,5,,,65,127
5111,note_on,144,0,0,,5,,,77,127
5252,note_off,141,0,0,,5,,,65,127
5254,note_off,2,0,0,,5,,,77,127
5254,note_off,0,0,0,,2,,,62,127
5256,note_on,2,0,0,,10,,,57,127
5256,note_on,0,0,0,,5,,,77,127
5542,note_off,286,0,0,,5,,,77,127
5544,note_on,2,0,0,,3,,,75,127
5830,note_off,286,0,0,,3,,,75,127
5830,note_off,0,0,0,,10,,,57,127
5832,note_on,2,0,0,,11,,,58,127
5832,note_on,0,0,0,,2,,,74,127
6118,note_off,286,0,0,,2,,,74,127
6120,note_on,2,0,0,,5,,,65,127
6264,note_on,144,0,0,,5,,,77,127
6405,note_off,141,0,0,,5,,,65,127
6407,note_off,2,0,0,,5,,,77,127
6407,note_off,0,0,0,,11,,,58,127
6409,note_on,2,0,0,,10,,,57,127
6409,note_on,0,0,0,,5,,,77,127
6695,note_off,286,0,0,,5,,,77,127
6697,note_on,2,0,0,,3,,,75,127
6983,note_off,286,0,0,,3,,,75,127
6983,note_off,0,0,0,,10,,,57,127
6985,note_on,2,0,0,,11,,,58,127
6985,note_on,0,0,0,,2,,,74,127
7271,note_off,286,0,0,,2,,,74,127
7273,note_on,2,0,0,,11,,,70,127
7415,note_off,142,0,0,,11,,,70,127
7417,note_on,2,0,0,,5,,,77,127
7559,note_off,142,0,0,,5,,,77,127
7559,note_off,0,0,0,,11,,,58,127
7561,note_on,2,0,0,,2,,,62,127
7561,note_on,0,0,0,,5,,,77,127
7847,note_off,286,0,0,,5,,,77,127
7849,note_on,2,0,0,,8,,,68,127
8135,note_off,286,0,0,,8,,,68,127
8135,note_off,0,0,0,,2,,,62,127
8137,note_on,2,0,0,,3,,,63,127
8137,note_on,0,0,0,,11,,,70,127
8207,note_off,70,0,0,,11,,,70,127
8209,note_on,2,0,0,,8,,,68,127
8279,note_off,70,0,0,,8,,,68,127
8281,note_on,2,0,0,,11,,,70,127
8351,note_off,70,0,0,,11,,,70,127
8353,note_on,2,0,0,,8,,,68,127
8423,note_off,70,0,0,,8,,,68,127
8425,note_on,2,0,0,,7,,,67,127
8569,note_on,144,0,0,,7,,,79,127
8710,note_off,141,0,0,,7,,,67,127
8712,note_off,2,0,0,,7,,,79,127
8712,note_off,0,0,0,,3,,,63,127
8714,note_on,2,0,0,,4,,,64,127
8714,note_on,0,0,0,,7,,,79,127
8999,note_off,285,0,0,,7,,,79,127
9002,note_on,3,0,0,,11,,,70,127
9287,note_off,285,0,0,,11,,,70,127
9289,note_off,2,0,0,,4,,,64,127
9291,note_on,2,0,0,,5,,,65,127
9291,note_on,0,0,0,,0,,,72,127
9361,note_off,70,0,0,,0,,,72,127
9363,note_on,2,0,0,,11,,,70,127
9433,note_off,70,0,0,,11,,,70,127
9435,note_on,2,0,0,,0,,,72,127
9505,note_off,70,0,0,,0,,,72,127
9507,note_on,2,0,0,,11,,,70,127
9577,note_off,70,0,0,,11,,,70,127
9579,note_on,2,0,0,,10,,,69,127
9721,note_off,142,0,0,,10,,,69,127
9723,note_on,2,0,0,,7,,,79,127
9865,note_off,142,0,0,,7,,,79,127
9865,note_off,0,0,0,,5,,,65,127
9867,note_on,2,0,0,,4,,,64,127
9867,note_on,0,0,0,,7,,,79,127
10153,note_off,286,0,0,,7,,,79,127
10155,note_on,2,0,0,,11,,,70,127
10441,note_off,286,0,0,,11,,,70,127
10441,note_off,0,0,0,,4,,,64,127
10443,note_on,2,0,0,,5,,,65,127
10443,note_on,0,0,0,,0,,,72,127
10513,note_off,70,0,0,,0,,,72,127
10515,note_on,2,0,0,,11,,,70,127
10585,note_off,70,0,0,,11,,,70,127
10587,note_on,2,0,0,,0,,,72,127
10657,note_off,70,0,0,,0,,,72,127
10659,note_on,2,0,0,,11,,,70,127
10729,note_off,70,0,0,,11,,,70,127
10731,note_on,2,0,0,,10,,,69,127
10947,note_off,216,0,0,,10,,,69,127
11017,note_off,70,0,0,,5,,,65,127
11019,note_on,2,0,0,,10,,,57,127
11019,note_on,0,0,0,,10,,,81,127
11113,note_off,94,0,0,,10,,,81,127
11115,note_on,2,0,0,,7,,,79,127
11209,note_off,94,0,0,,7,,,79,127
11211,note_on,2,0,0,,5,,,77,127
11305,note_off,94,0,0,,5,,,77,127
11307,note_on,2,0,0,,5,,,77,127
11593,note_off,286,0,0,,5,,,77,127
11593,note_off,0,0,0,,10,,,57,127
11595,note_on,2,0,0,,11,,,58,127
11595,note_on,0,0,0,,5,,,77,127
11689,note_off,94,0,0,,5,,,77,127
11691,note_on,2,0,0,,4,,,76,127
11785,note_off,94,0,0,,4,,,76,127
11787,note_on,2,0,0,,2,,,74,127
11881,note_off,94,0,0,,2,,,74,127
11883,note_on,2,0,0,,2,,,74,127
12169,note_off,286,0,0,,2,,,74,127
12169,note_off,0,0,0,,11,,,58,127
12171,note_on,2,0,0,,0,,,60,127
12171,note_on,0,0,0,,2,,,74,127
12265,note_off,94,0,0,,2,,,74,127
12267,note_on,2,0,0,,0,,,72,127
12361,note_off,94,0,0,,0,,,72,127
12363,note_on,2,0,0,,11,,,70,127
12457,note_off,94,0,0,,11,,,70,127
12459,note_on,2,0,0,,11,,,70,127
12745,note_off,286,0,0,,11,,,70,127
12745,note_off,0,0,0,,0,,,60,127
12747,note_on,2,0,0,,5,,,65,127
12747,note_on,0,0,0,,0,,,72,127
12817,note_off,70,0,0,,0,,,72,127
12819,note_on,2,0,0,,11,,,70,127
12889,note_off,70,0,0,,11,,,70,127
12891,note_on,2,0,0,,0,,,72,127
12961,note_off,70,0,0,,0,,,72,127
12963,note_on,2,0,0,,11,,,70,127
13033,note_off,70,0,0,,11,,,70,127
13035,note_on,2,0,0,,0,,,72,127
13105,note_off,70,0,0,,0,,,72,127
13107,note_on,2,0,0,,11,,,70,127
13177,note_off,70,0,0,,11,,,70,127
13179,note_on,2,0,0,,10,,,69,127
13321,note_off,142,0,0,,5,,,65,127
13323,note_on,2,0,0,,10,,,57,127
13323,note_on,0,0,0,,10,,,81,127
13417,note_off,94,0,0,,10,,,81,127
13419,note_on,2,0,0,,7,,,79,127
13465,note_off,46,0,0,,10,,,69,127
13513,note_off,48,0,0,,7,,,79,127
13515,note_on,2,0,0,,5,,,77,127
13609,note_off,94,0,0,,5,,,77,127
13611,note_on,2,0,0,,5,,,77,127
13897,note_off,286,0,0,,5,,,77,127
13897,note_off,0,0,0,,10,,,57,127
13899,note_on,2,0,0,,11,,,58,127
13899,note_on,0,0,0,,5,,,77,127
13993,note_off,94,0,0,,5,,,77,127
13995,note_on,2,0,0,,4,,,76,127
14089,note_off,94,0,0,,4,,,76,127
14091,note_on,2,0,0,,2,,,74,127
14185,note_off,94,0,0,,2,,,74,127
14187,note_on,2,0,0,,2,,,74,127
14473,note_off,286,0,0,,2,,,74,127
14473,note_off,0,0,0,,11,,,58,127
14475,note_on,2,0,0,,0,,,60,127
14475,note_on,0,0,0,,2,,,74,127
14569,note_off,94,0,0,,2,,,74,127
14571,note_on,2,0,0,,0,,,72,127
14665,note_off,94,0,0,,0,,,72,127
14667,note_on,2,0,0,,11,,,70,127
14761,note_off,94,0,0,,11,,,70,127
14763,note_on,2,0,0,,11,,,70,127
15049,note_off,286,0,0,,11,,,70,127
15049,note_off,0,0,0,,0,,,60,127
15051,note_on,2,0,0,,5,,,65,127
15051,note_on,0,0,0,,0,,,72,127
15121,note_off,70,0,0,,0,,,72,127
15123,note_on,2,0,0,,11,,,70,127
15193,note_off,70,0,0,,11,,,70,127
15195,note_on,2,0,0,,0,,,72,127
15265,note_off,70,0,0,,0,,,72,127
15267,note_on,2,0,0,,11,,,70,127
15337,note_off,70,0,0,,11,,,70,127
15339,note_on,2,0,0,,10,,,69,127
15587,note_off,248,0,0,,10,,,69,127
15626,note_off,39,0,0,,5,,,65,127
15628,note_on,2,0,0,,5,,,53,127
15628,note_on,0,0,0,,10,,,81,127
15722,note_off,94,0,0,,10,,,81,127
15724,note_on,2,0,0,,7,,,79,127
15818,note_off,94,0,0,,7,,,79,127
15820,note_on,2,0,0,,5,,,77,127
15914,note_off,94,0,0,,5,,,77,127
15916,note_on,2,0,0,,5,,,77,127
16202,note_off,286,0,0,,5,,,77,127
16202,note_off,0,0,0,,5,,,53,127
16204,note_on,2,0,0,,7,,,55,127
16204,note_on,0,0,0,,5,,,77,127
16298,note_off,94,0,0,,5,,,77,127
16300,note_on,2,0,0,,4,,,76,127
16394,note_off,94,0,0,,4,,,76,127
16396,note_on,2,0,0,,5,,,77,127
16490,note_off,94,0,0,,5,,,77,127
16492,note_on,2,0,0,,7,,,79,127
16778,note_off,286,0,0,,7,,,79,127
16778,note_off,0,0,0,,7,,,55,127
16780,note_on,2,0,0,,8,,,56,127
16780,note_on,0,0,0,,5,,,77,127
16874,note_off,94,0,0,,5,,,77,127
16876,note_on,2,0,0,,4,,,76,127
16970,note_off,94,0,0,,4,,,76,127
16972,note_on,2,0,0,,2,,,74,127
17066,note_off,94,0,0,,2,,,74,127
17068,note_on,2,0,0,,2,,,74,127
17354,note_off,286,0,0,,2,,,74,127
17354,note_off,0,0,0,,8,,,56,127
17356,note_on,2,0,0,,10,,,57,127
17356,note_on,0,0,0,,4,,,76,127
17426,note_off,70,0,0,,4,,,76,127
17428,note_on,2,0,0,,2,,,74,127
17498,note_off,70,0,0,,2,,,74,127
17500,note_on,2,0,0,,4,,,76,127
17570,note_off,70,0,0,,4,,,76,127
17572,note_on,2,0,0,,2,,,74,127
17642,note_off,70,0,0,,2,,,74,127
17644,note_on,2,0,0,,4,,,76,127
17714,note_off,70,0,0,,4,,,76,127
17716,note_on,2,0,0,,2,,,74,127
17786,note_off,70,0,0,,2,,,74,127
17788,note_on,2,0,0,,1,,,73,127
17930,note_off,142,0,0,,1,,,73,127
17930,note_off,0,0,0,,10,,,57,127
17932,note_on,2,0,0,,5,,,53,127
17932,note_on,0,0,0,,10,,,81,127
18026,note_off,94,0,0,,10,,,81,127
18028,note_on,2,0,0,,7,,,79,127
18122,note_off,94,0,0,,7,,,79,127
18124,note_on,2,0,0,,5,,,77,127
18218,note_off,94,0,0,,5,,,77,127
18220,note_on,2,0,0,,5,,,77,127
18506,note_off,286,0,0,,5,,,77,127
18506,note_off,0,0,0,,5,,,53,127
18508,note_on,2,0,0,,11,,,58,127
18508,note_on,0,0,0,,5,,,77,127
18602,note_off,94,0,0,,5,,,77,127
18604,note_on,2,0,0,,4,,,76,127
18698,note_off,94,0,0,,4,,,76,127
18700,note_on,2,0,0,,5,,,77,127
18794,note_off,94,0,0,,5,,,77,127
18796,note_on,2,0,0,,7,,,79,127
19082,note_off,286,0,0,,7,,,79,127
19082,note_off,0,0,0,,11,,,58,127
19084,note_on,2,0,0,,7,,,55,127
19084,note_on,0,0,0,,5,,,77,127
19178,note_off,94,0,0,,5,,,77,127
19180,note_on,2,0,0,,4,,,76,127
19274,note_off,94,0,0,,4,,,76,127
19276,note_on,2,0,0,,2,,,74,127
19370,note_off,94,0,0,,2,,,74,127
19372,note_on,2,0,0,,2,,,74,127
19658,note_off,286,0,0,,2,,,74,127
19658,note_off,0,0,0,,7,,,55,127
19660,note_on,2,0,0,,10,,,57,127
19660,note_on,0,0,0,,4,,,76,127
19730,note_off,70,0,0,,4,,,76,127
19732,note_on,2,0,0,,2,,,74,127
19802,note_off,70,0,0,,2,,,74,127
19804,note_on,2,0,0,,4,,,76,127
19874,note_off,70,0,0,,4,,,76,127
19876,note_on,2,0,0,,2,,,74,127
19946,note_off,70,0,0,,2,,,74,127
19948,note_on,2,0,0,,0,,,72,127
20090,note_off,142,0,0,,0,,,72,127
20092,note_on,2,0,0,,10,,,81,127
20234,note_off,142,0,0,,10,,,81,127
20234,note_off,0,0,0,,10,,,57,127
20236,note_on,2,0,0,,6,,,54,127
20236,note_on,0,0,0,,10,,,81,127
20522,note_off,286,0,0,,10,,,81,127
20524,note_on,2,0,0,,0,,,72,127
20810,note_off,286,0,0,,0,,,72,127
20810,note_off,0,0,0,,6,,,54,127
20812,note_on,2,0,0,,7,,,55,127
20812,note_on,0,0,0,,2,,,74,127
20882,note_off,70,0,0,,2,,,74,127
20884,note_on,2,0,0,,0,,,72,127
20954,note_off,70,0,0,,0,,,72,127
20956,note_on,2,0,0,,2,,,74,127
21026,note_off,70,0,0,,2,,,74,127
21028,note_on,2,0,0,,0,,,72,127
21098,note_off,70,0,0,,0,,,72,127
21100,note_on,2,0,0,,11,,,70,127
21242,note_off,142,0,0,,11,,,70,127
21244,note_on,2,0,0,,7,,,79,127
21386,note_off,142,0,0,,7,,,79,127
21386,note_off,0,0,0,,7,,,55,127
21388,note_on,2,0,0,,4,,,52,127
21388,note_on,0,0,0,,7,,,79,127
21674,note_off,286,0,0,,7,,,79,127
21676,note_on,2,0,0,,11,,,70,127
21962,note_off,286,0,0,,11,,,70,127
21962,note_off,0,0,0,,4,,,52,127
21964,note_on,2,0,0,,5,,,53,127
21964,note_on,0,0,0,,0,,,72,127
22034,note_off,70,0,0,,0,,,72,127
22036,note_on,2,0,0,,11,,,70,127
22106,note_off,70,0,0,,11,,,70,127
22108,note_on,2,0,0,,0,,,72,127
22178,note_off,70,0,0,,0,,,72,127
22180,note_on,2,0,0,,11,,,70,127
22250,note_off,70,0,0,,11,,,70,127
22252,note_on,2,0,0,,10,,,69,127
22394,note_off,142,0,0,,10,,,69,127
22396,note_on,2,0,0,,0,,,84,127
22538,note_off,142,0,0,,0,,,84,127
22538,note_off,0,0,0,,5,,,53,127
22540,note_on,2,0,0,,10,,,57,127
22540,note_on,0,0,0,,0,,,84,127
22826,note_off,286,0,0,,0,,,84,127
22828,note_on,2,0,0,,3,,,75,127
23114,note_off,286,0,0,,3,,,75,127
23114,note_off,0,0,0,,10,,,57,127
23116,note_on,2,0,0,,11,,,58,127
23116,note_on,0,0,0,,5,,,77,127
23186,note_off,70,0,0,,5,,,77,127
23188,note_on,2,0,0,,3,,,75,127
23258,note_off,70,0,0,,3,,,75,127
23260,note_on,2,0,0,,5,,,77,127
23330,note_off,70,0,0,,5,,,77,127
23332,note_on,2,0,0,,3,,,75,127
23402,note_off,70,0,0,,3,,,75,127
23404,note_on,2,0,0,,2,,,74,127
23548,note_on,144,0,0,,2,,,86,127
23689,note_off,141,0,0,,2,,,74,127
23691,note_off,2,0,0,,2,,,86,127
23691,note_off,0,0,0,,11,,,58,127
23693,note_on,2,0,0,,12,,,59,127
23693,note_on,0,0,0,,2,,,86,127
23979,note_off,286,0,0,,2,,,86,127
23981,note_on,2,0,0,,5,,,77,127
24267,note_off,286,0,0,,5,,,77,127
24267,note_off,0,0,0,,12,,,59,127
24269,note_on,2,0,0,,0,,,60,127
24269,note_on,0,0,0,,4,,,76,127
24363,note_off,94,0,0,,4,,,76,127
24365,note_on,2,0,0,,2,,,74,127
24459,note_off,94,0,0,,2,,,74,127
24461,note_on,2,0,0,,0,,,72,127
24555,note_off,94,0,0,,0,,,72,127
24557,note_on,2,0,0,,0,,,72,127
24843,note_off,286,0,0,,0,,,72,127
24843,note_off,0,0,0,,0,,,60,127
24845,note_on,2,0,0,,4,,,64,127
24845,note_on,0,0,0,,0,,,72,127
25131,note_off,286,0,0,,0,,,72,127
25133,note_on,2,0,0,,0,,,72,127
25385,note_off,252,0,0,,4,,,64,127
25419,note_off,34,0,0,,0,,,72,127
25421,note_on,2,0,0,,5,,,65,127
25421,note_on,0,0,0,,10,,,69,127
25515,note_off,94,0,0,,10,,,69,127
25517,note_on,2,0,0,,11,,,70,127
25611,note_off,94,0,0,,11,,,70,127
25613,note_on,2,0,0,,0,,,72,127
25707,note_off,94,0,0,,0,,,72,127
25709,note_on,2,0,0,,0,,,72,127
25995,note_off,286,0,0,,0,,,72,127
25995,note_off,0,0,0,,5,,,65,127
25997,note_on,2,0,0,,5,,,65,127
25997,note_on,0,0,0,,0,,,72,127
26283,note_off,286,0,0,,0,,,72,127
26285,note_on,2,0,0,,0,,,72,127
26571,note_off,286,0,0,,0,,,72,127
26571,note_off,0,0,0,,5,,,65,127
26573,note_on,2,0,0,,0,,,60,127
26573,note_on,0,0,0,,4,,,76,127
26667,note_off,94,0,0,,4,,,76,127
26669,note_on,2,0,0,,2,,,74,127
26763,note_off,94,0,0,,2,,,74,127
26765,note_on,2,0,0,,0,,,72,127
26859,note_off,94,0,0,,0,,,72,127
26861,note_on,2,0,0,,0,,,72,127
27147,note_off,286,0,0,,0,,,72,127
27147,note_off,0,0,0,,0,,,60,127
27149,note_on,2,0,0,,4,,,64,127
27149,note_on,0,0,0,,0,,,72,127
27435,note_off,286,0,0,,0,,,72,127
27437,note_on,2,0,0,,0,,,72,127
27723,note_off,286,0,0,,0,,,72,127
27723,note_off,0,0,0,,4,,,64,127
27725,note_on,2,0,0,,5,,,65,127
27725,note_on,0,0,0,,10,,,69,127
27819,note_off,94,0,0,,10,,,69,127
27821,note_on,2,0,0,,11,,,70,127
27915,note_off,94,0,0,,11,,,70,127
27917,note_on,2,0,0,,0,,,72,127
28011,note_off,94,0,0,,0,,,72,127
28013,note_on,2,0,0,,0,,,72,127
28299,note_off,286,0,0,,0,,,72,127
28299,note_off,0,0,0,,5,,,65,127
28301,note_on,2,0,0,,10,,,57,127
28301,note_on,0,0,0,,0,,,72,127
28587,note_off,286,0,0,,0,,,72,127
28589,note_on,2,0,0,,1,,,73,127
28875,note_off,286,0,0,,1,,,73,127
28875,note_off,0,0,0,,10,,,57,127
28877,note_on,2,0,0,,11,,,58,127
28877,note_on,0,0,0,,2,,,74,127
29163,note_off,286,0,0,,2,,,74,127
29165,note_on,2,0,0,,6,,,78,127
29451,note_off,286,0,0,,6,,,78,127
29451,note_off,0,0,0,,11,,,58,127
29453,note_on,2,0,0,,11,,,58,127
29453,note_on,0,0,0,,7,,,79,127
29739,note_off,286,0,0,,7,,,79,127
29741,note_on,2,0,0,,10,,,81,127
29883,note_off,142,0,0,,10,,,81,127
29885,note_on,2,0,0,,11,,,82,127
30027,note_off,142,0,0,,11,,,82,127
30027,note_off,0,0,0,,11,,,58,127
30029,note_on,2,0,0,,11,,,58,127
30029,note_on,0,0,0,,0,,,72,127
30315,note_off,286,0,0,,0,,,72,127
30317,note_on,2,0,0,,0,,,84,127
30459,note_off,142,0,0,,0,,,84,127
30461,note_on,2,0,0,,4,,,76,127
30603,note_off,142,0,0,,4,,,76,127
30603,note_off,0,0,0,,11,,,58,127
30605,note_on,2,0,0,,10,,,57,127
30605,note_on,0,0,0,,5,,,77,127
30891,note_off,286,0,0,,5,,,77,127
30893,note_on,2,0,0,,10,,,81,127
31035,note_off,142,0,0,,10,,,81,127
31037,note_on,2,0,0,,0,,,72,127
31179,note_off,142,0,0,,0,,,72,127
31179,note_off,0,0,0,,10,,,57,127
31181,note_on,2,0,0,,11,,,58,127
31181,note_on,0,0,0,,2,,,74,127
31467,note_off,286,0,0,,2,,,74,127
31469,note_on,2,0,0,,5,,,77,127
31611,note_off,142,0,0,,5,,,77,127
31613,note_on,2,0,0,,10,,,69,127
31755,note_off,142,0,0,,10,,,69,127
31755,note_off,0,0,0,,11,,,58,127
31757,note_on,2,0,0,,11,,,58,127
31757,note_on,0,0,0,,11,,,70,127
32043,note_off,286,0,0,,11,,,70,127
32045,note_on,2,0,0,,2,,,74,127
32187,note_off,142,0,0,,2,,,74,127
32189,note_on,2,0,0,,7,,,67,127
32331,note_off,142,0,0,,7,,,67,127
32331,note_off,0,0,0,,11,,,58,127
32333,note_on,2,0,0,,0,,,60,127
32333,note_on,0,0,0,,10,,,69,127
32619,note_off,286,0,0,,10,,,69,127
32621,note_on,2,0,0,,12,,,71,127
32909,note_on,288,0,0,,0,,,48,127
33197,note_off,288,0,0,,0,,,60,127
33293,note_on,96,0,0,,0,,,72,127
33296,note_off,3,0,0,,12,,,71,127
33388,note_off,92,0,0,,0,,,72,127
33389,note_on,1,0,0,,10,,,69,127
33485,note_on,96,0,0,,0,,,36,127
33555,note_off,70,0,0,,10,,,69,127
33557,note_on,2,0,0,,7,,,67,127
33627,note_off,70,0,0,,7,,,67,127
33629,note_on,2,0,0,,10,,,69,127
33699,note_off,70,0,0,,10,,,69,127
33701,note_on,2,0,0,,7,,,67,127
33771,note_off,70,0,0,,7,,,67,127
33773,note_on,2,0,0,,10,,,69,127
33843,note_off,70,0,0,,10,,,69,127
33845,note_on,2,0,0,,7,,,67,127
34058,note_off,213,0,0,,0,,,48,127
34349,note_off,291,0,0,,0,,,36,127
34420,note_off,71,0,0,,7,,,67,127
34925,note_on,505,0,0,,7,,,79,127
34925,note_on,0,0,0,,0,,,60,127
35019,note_off,94,0,0,,7,,,79,127
35021,note_on,2,0,0,,5,,,77,127
35115,note_off,94,0,0,,5,,,77,127
35117,note_on,2,0,0,,4,,,76,127
35211,note_off,94,0,0,,4,,,76,127
35213,note_on,2,0,0,,4,,,76,127
35355,note_off,142,0,0,,4,,,76,127
35357,note_on,2,0,0,,0,,,72,127
35499,note_off,142,0,0,,0,,,72,127
35500,note_off,1,0,0,,0,,,60,127
35501,note_on,1,0,0,,11,,,82,127
35501,note_on,0,0,0,,7,,,79,127
35645,note_on,144,0,0,,7,,,67,127
35787,note_off,142,0,0,,7,,,67,127
35789,note_on,2,0,0,,4,,,64,127
35931,note_off,142,0,0,,4,,,64,127
35933,note_on,2,0,0,,0,,,60,127
36075,note_off,142,0,0,,0,,,60,127
36075,note_off,0,0,0,,7,,,79,127
36075,note_off,0,0,0,,11,,,82,127
36077,note_on,2,0,0,,10,,,81,127
36077,note_on,0,0,0,,5,,,65,127
36171,note_off,94,0,0,,10,,,81,127
36173,note_on,2,0,0,,7,,,79,127
36267,note_off,94,0,0,,7,,,79,127
36269,note_on,2,0,0,,5,,,77,127
36363,note_off,94,0,0,,5,,,77,127
36365,note_on,2,0,0,,5,,,77,127
36507,note_off,142,0,0,,5,,,77,127
36509,note_on,2,0,0,,0,,,72,127
36651,note_off,142,0,0,,0,,,72,127
36652,note_off,1,0,0,,5,,,65,127
36653,note_on,1,0,0,,10,,,81,127
36653,note_on,0,0,0,,5,,,77,127
36797,note_on,144,0,0,,12,,,59,127
36939,note_off,142,0,0,,12,,,59,127
36941,note_on,2,0,0,,0,,,60,127
37083,note_off,142,0,0,,0,,,60,127
37085,note_on,2,0,0,,12,,,59,127
37227,note_off,142,0,0,,12,,,59,127
37227,note_off,0,0,0,,5,,,77,127
37227,note_off,0,0,0,,10,,,81,127
37229,note_on,2,0,0,,7,,,79,127
37229,note_on,0,0,0,,0,,,60,127
37323,note_off,94,0,0,,7,,,79,127
37325,note_on,2,0,0,,5,,,77,127
37419,note_off,94,0,0,,5,,,77,127
37421,note_on,2,0,0,,4,,,76,127
37515,note_off,94,0,0,,4,,,76,127
37517,note_on,2,0,0,,4,,,76,127
37659,note_off,142,0,0,,4,,,76,127
37661,note_on,2,0,0,,0,,,72,127
37803,note_off,142,0,0,,0,,,72,127
37804,note_off,1,0,0,,0,,,60,127
37805,note_on,1,0,0,,11,,,82,127
37805,note_on,0,0,0,,7,,,79,127
37949,note_on,144,0,0,,7,,,67,127
38091,note_off,142,0,0,,7,,,67,127
38093,note_on,2,0,0,,4,,,64,127
38235,note_off,142,0,0,,4,,,64,127
38237,note_on,2,0,0,,0,,,60,127
38379,note_off,142,0,0,,0,,,60,127
38379,note_off,0,0,0,,7,,,79,127
38379,note_off,0,0,0,,11,,,82,127
38381,note_on,2,0,0,,10,,,81,127
38381,note_on,0,0,0,,5,,,65,127
38475,note_off,94,0,0,,10,,,81,127
38477,note_on,2,0,0,,7,,,79,127
38571,note_off,94,0,0,,7,,,79,127
38573,note_on,2,0,0,,5,,,77,127
38667,note_off,94,0,0,,5,,,77,127
38669,note_on,2,0,0,,5,,,77,127
38811,note_off,142,0,0,,5,,,77,127
38813,note_on,2,0,0,,0,,,72,127
38955,note_off,142,0,0,,0,,,72,127
38956,note_off,1,0,0,,5,,,65,127
38957,note_on,1,0,0,,10,,,81,127
38957,note_on,0,0,0,,5,,,77,127
39101,note_on,144,0,0,,12,,,59,127
39243,note_off,142,0,0,,12,,,59,127
39245,note_on,2,0,0,,0,,,60,127
39387,note_off,142,0,0,,0,,,60,127
39389,note_on,2,0,0,,12,,,59,127
39531,note_off,142,0,0,,12,,,59,127
39531,note_off,0,0,0,,5,,,77,127
39531,note_off,0,0,0,,10,,,81,127
39533,note_on,2,0,0,,7,,,79,127
39533,note_on,0,0,0,,0,,,60,127
39819,note_off,286,0,0,,7,,,79,127
39821,note_on,2,0,0,,0,,,84,127
40107,note_off,286,0,0,,0,,,84,127
40107,note_off,0,0,0,,0,,,60,127
40109,note_on,2,0,0,,0,,,84,127
40109,note_on,0,0,0,,10,,,57,127
40203,note_off,94,0,0,,0,,,84,127
40205,note_on,2,0,0,,11,,,82,127
40299,note_off,94,0,0,,11,,,82,127
40301,note_on,2,0,0,,10,,,81,127
40395,note_off,94,0,0,,10,,,81,127
40397,note_on,2,0,0,,10,,,81,127
40683,note_off,286,0,0,,10,,,81,127
40683,note_off,0,0,0,,10,,,57,127
40685,note_on,2,0,0,,10,,,81,127
40685,note_on,0,0,0,,2,,,62,127
40779,note_off,94,0,0,,10,,,81,127
40781,note_on,2,0,0,,7,,,79,127
40875,note_off,94,0,0,,7,,,79,127
40877,note_on,2,0,0,,5,,,77,127
40971,note_off,94,0,0,,5,,,77,127
40973,note_on,2,0,0,,5,,,77,127
41259,note_off,286,0,0,,5,,,77,127
41259,note_off,0,0,0,,2,,,62,127
41261,note_on,2,0,0,,5,,,77,127
41261,note_on,0,0,0,,2,,,62,127
41376,note_off,115,0,0,,5,,,77,127
41377,note_on,1,0,0,,4,,,76,127
41490,note_off,113,0,0,,4,,,76,127
41492,note_on,2,0,0,,2,,,74,127
41606,note_on,114,0,0,,0,,,72,127
41607,note_off,1,0,0,,2,,,74,127
41719,note_off,112,0,0,,0,,,72,127
41721,note_on,2,0,0,,12,,,71,127
41835,note_off,114,0,0,,2,,,62,127
41836,note_off,1,0,0,,12,,,71,127
41837,note_on,1,0,0,,5,,,77,127
41837,note_on,0,0,0,,2,,,62,127
42122,note_off,285,0,0,,5,,,77,127
42125,note_on,3,0,0,,4,,,76,127
42195,note_off,70,0,0,,4,,,76,127
42197,note_on,2,0,0,,2,,,74,127
42267,note_off,70,0,0,,2,,,74,127
42269,note_on,2,0,0,,0,,,72,127
42339,note_off,70,0,0,,0,,,72,127
42341,note_on,2,0,0,,12,,,71,127
42411,note_off,70,0,0,,2,,,62,127
42413,note_on,2,0,0,,5,,,77,127
42413,note_on,0,0,0,,2,,,62,127
42436,note_off,23,0,0,,12,,,71,127
42797,note_off,361,0,0,,5,,,77,127
42797,note_on,0,0,0,,4,,,76,127
42844,note_off,47,0,0,,4,,,76,127
42845,note_on,1,0,0,,2,,,74,127
42892,note_off,47,0,0,,2,,,74,127
42893,note_on,1,0,0,,0,,,72,127
42940,note_off,47,0,0,,0,,,72,127
42941,note_on,1,0,0,,12,,,71,127
42987,note_off,46,0,0,,12,,,71,127
42987,note_off,0,0,0,,2,,,62,127
42989,note_on,2,0,0,,12,,,71,127
42989,note_on,0,0,0,,0,,,48,127
43131,note_off,142,0,0,,12,,,71,127
43133,note_on,2,0,0,,2,,,74,127
43203,note_off,70,0,0,,2,,,74,127
43205,note_on,2,0,0,,0,,,72,127
43275,note_off,70,0,0,,0,,,72,127
43277,note_on,2,0,0,,2,,,74,127
43347,note_off,70,0,0,,2,,,74,127
43349,note_on,2,0,0,,0,,,72,127
43419,note_off,70,0,0,,0,,,72,127
43421,note_on,2,0,0,,2,,,74,127
43491,note_off,70,0,0,,2,,,74,127
43493,note_on,2,0,0,,0,,,72,127
44213,note_off,720,0,0,,0,,,72,127
44285,note_off,72,0,0,,0,,,48,127
44789,note_on,504,0,0,,7,,,79,127
44789,note_on,0,0,0,,0,,,60,127
44883,note_off,94,0,0,,7,,,79,127
44885,note_on,2,0,0,,5,,,77,127
44979,note_off,94,0,0,,5,,,77,127
44981,note_on,2,0,0,,4,,,76,127
45075,note_off,94,0,0,,4,,,76,127
45077,note_on,2,0,0,,4,,,76,127
45219,note_off,142,0,0,,4,,,76,127
45221,note_on,2,0,0,,0,,,72,127
45363,note_off,142,0,0,,0,,,72,127
45364,note_off,1,0,0,,0,,,60,127
45365,note_on,1,0,0,,11,,,82,127
45365,note_on,0,0,0,,7,,,79,127
45509,note_on,144,0,0,,7,,,67,127
45651,note_off,142,0,0,,7,,,67,127
45653,note_on,2,0,0,,4,,,64,127
45795,note_off,142,0,0,,4,,,64,127
45797,note_on,2,0,0,,0,,,60,127
45939,note_off,142,0,0,,0,,,60,127
45939,note_off,0,0,0,,7,,,79,127
45939,note_off,0,0,0,,11,,,82,127
45941,note_on,2,0,0,,10,,,81,127
45941,note_on,0,0,0,,5,,,65,127
46035,note_off,94,0,0,,10,,,81,127
46037,note_on,2,0,0,,7,,,79,127
46131,note_off,94,0,0,,7,,,79,127
46133,note_on,2,0,0,,5,,,77,127
46227,note_off,94,0,0,,5,,,77,127
46229,note_on,2,0,0,,5,,,77,127
46371,note_off,142,0,0,,5,,,77,127
46373,note_on,2,0,0,,0,,,72,127
46515,note_off,142,0,0,,0,,,72,127
46516,note_off,1,0,0,,5,,,65,127
46517,note_on,1,0,0,,10,,,81,127
46517,note_on,0,0,0,,5,,,77,127
46661,note_on,144,0,0,,12,,,59,127
46803,note_off,142,0,0,,12,,,59,127
46805,note_on,2,0,0,,0,,,60,127
46947,note_off,142,0,0,,0,,,60,127
46949,note_on,2,0,0,,12,,,59,127
47091,note_off,142,0,0,,12,,,59,127
47091,note_off,0,0,0,,5,,,77,127
47091,note_off,0,0,0,,10,,,81,127
47093,note_on,2,0,0,,7,,,79,127
47093,note_on,0,0,0,,0,,,60,127
47187,note_off,94,0,0,,7,,,79,127
47189,note_on,2,0,0,,5,,,77,127
47283,note_off,94,0,0,,5,,,77,127
47285,note_on,2,0,0,,4,,,76,127
47379,note_off,94,0,0,,4,,,76,127
47381,note_on,2,0,0,,4,,,76,127
47523,note_off,142,0,0,,4,,,76,127
47525,note_on,2,0,0,,0,,,72,127
47667,note_off,142,0,0,,0,,,72,127
47668,note_off,1,0,0,,0,,,60,127
47669,note_on,1,0,0,,11,,,82,127
47669,note_on,0,0,0,,7,,,79,127
47813,note_on,144,0,0,,7,,,67,127
47955,note_off,142,0,0,,7,,,67,127
47957,note_on,2,0,0,,4,,,64,127
48099,note_off,142,0,0,,4,,,64,127
48101,note_on,2,0,0,,0,,,60,127
48243,note_off,142,0,0,,0,,,60,127
48243,note_off,0,0,0,,7,,,79,127
48243,note_off,0,0,0,,11,,,82,127
48245,note_on,2,0,0,,10,,,81,127
48245,note_on,0,0,0,,5,,,65,127
48339,note_off,94,0,0,,10,,,81,127
48341,note_on,2,0,0,,7,,,79,127
48435,note_off,94,0,0,,7,,,79,127
48437,note_on,2,0,0,,5,,,77,127
48531,note_off,94,0,0,,5,,,77,127
48533,note_on,2,0,0,,5,,,77,127
48675,note_off,142,0,0,,5,,,77,127
48677,note_on,2,0,0,,0,,,72,127
48819,note_off,142,0,0,,0,,,72,127
48820,note_off,1,0,0,,5,,,65,127
48821,note_on,1,0,0,,10,,,81,127
48821,note_on,0,0,0,,5,,,77,127
48965,note_on,144,0,0,,12,,,59,127
49107,note_off,142,0,0,,12,,,59,127
49109,note_on,2,0,0,,0,,,60,127
49251,note_off,142,0,0,,0,,,60,127
49253,note_on,2,0,0,,12,,,59,127
49395,note_off,142,0,0,,12,,,59,127
49395,note_off,0,0,0,,5,,,77,127
49395,note_off,0,0,0,,10,,,81,127
49397,note_on,2,0,0,,7,,,79,127
49397,note_on,0,0,0,,0,,,60,127
49683,note_off,286,0,0,,7,,,79,127
49685,note_on,2,0,0,,0,,,84,127
49971,note_off,286,0,0,,0,,,84,127
49971,note_off,0,0,0,,0,,,60,127
49973,note_on,2,0,0,,0,,,84,127
49973,note_on,0,0,0,,10,,,57,127
50067,note_off,94,0,0,,0,,,84,127
50069,note_on,2,0,0,,11,,,82,127
50163,note_off,94,0,0,,11,,,82,127
50165,note_on,2,0,0,,10,,,81,127
50259,note_off,94,0,0,,10,,,81,127
50261,note_on,2,0,0,,10,,,81,127
50547,note_off,286,0,0,,10,,,81,127
50547,note_off,0,0,0,,10,,,57,127
50549,note_on,2,0,0,,10,,,81,127
50549,note_on,0,0,0,,11,,,58,127
50643,note_off,94,0,0,,10,,,81,127
50645,note_on,2,0,0,,7,,,79,127
50739,note_off,94,0,0,,7,,,79,127
50741,note_on,2,0,0,,5,,,77,127
50835,note_off,94,0,0,,5,,,77,127
50837,note_on,2,0,0,,5,,,77,127
51123,note_off,286,0,0,,5,,,77,127
51123,note_off,0,0,0,,11,,,58,127
51125,note_on,2,0,0,,5,,,77,127
51125,note_on,0,0,0,,2,,,62,127
51219,note_off,94,0,0,,5,,,77,127
51221,note_on,2,0,0,,4,,,76,127
51315,note_off,94,0,0,,4,,,76,127
51317,note_on,2,0,0,,2,,,74,127
51411,note_off,94,0,0,,2,,,74,127
51413,note_on,2,0,0,,2,,,74,127
51699,note_off,286,0,0,,2,,,74,127
51699,note_off,0,0,0,,2,,,62,127
51701,note_on,2,0,0,,2,,,74,127
51701,note_on,0,0,0,,4,,,64,127
51795,note_off,94,0,0,,2,,,74,127
51797,note_on,2,0,0,,0,,,72,127
51891,note_off,94,0,0,,0,,,72,127
51893,note_on,2,0,0,,11,,,70,127
51987,note_off,94,0,0,,11,,,70,127
51989,note_on,2,0,0,,11,,,70,127
52275,note_off,286,0,0,,11,,,70,127
52275,note_off,0,0,0,,4,,,64,127
52277,note_on,2,0,0,,10,,,69,127
52277,note_on,0,0,0,,5,,,65,127
52371,note_off,94,0,0,,10,,,69,127
52373,note_on,2,0,0,,11,,,70,127
52467,note_off,94,0,0,,11,,,70,127
52469,note_on,2,0,0,,0,,,72,127
52563,note_off,94,0,0,,0,,,72,127
52565,note_on,2,0,0,,0,,,72,127
52851,note_off,286,0,0,,0,,,72,127
52851,note_off,0,0,0,,5,,,65,127
52853,note_on,2,0,0,,1,,,73,127
52853,note_on,0,0,0,,11,,,58,127
53139,note_off,286,0,0,,1,,,73,127
53141,note_on,2,0,0,,2,,,74,127
53427,note_off,286,0,0,,11,,,58,127
53429,note_on,2,0,0,,11,,,58,127
53571,note_off,142,0,0,,2,,,74,127
53573,note_on,2,0,0,,10,,,81,127
53715,note_off,142,0,0,,10,,,81,127
53717,note_on,2,0,0,,11,,,82,127
53859,note_off,142,0,0,,11,,,82,127
53861,note_on,2,0,0,,7,,,79,127
54003,note_off,142,0,0,,7,,,79,127
54003,note_off,0,0,0,,11,,,58,127
54005,note_on,2,0,0,,5,,,77,127
54005,note_on,0,0,0,,0,,,60,127
54099,note_off,94,0,0,,5,,,77,127
54101,note_on,2,0,0,,7,,,79,127
54195,note_off,94,0,0,,7,,,79,127
54197,note_on,2,0,0,,5,,,77,127
54291,note_off,94,0,0,,5,,,77,127
54293,note_on,2,0,0,,4,,,76,127
54387,note_off,94,0,0,,4,,,76,127
54389,note_on,2,0,0,,5,,,77,127
54483,note_off,94,0,0,,5,,,77,127
54485,note_on,2,0,0,,7,,,79,127
54579,note_off,94,0,0,,7,,,79,127
54581,note_on,2,0,0,,10,,,81,127
54581,note_on,0,0,0,,0,,,48,127
54675,note_off,94,0,0,,10,,,81,127
54677,note_on,2,0,0,,7,,,79,127
54771,note_off,94,0,0,,7,,,79,127
54773,note_on,2,0,0,,10,,,81,127
54867,note_off,94,0,0,,10,,,81,127
54869,note_on,2,0,0,,7,,,79,127
55011,note_off,142,0,0,,7,,,79,127
55013,note_on,2,0,0,,5,,,77,127
55133,note_off,120,0,0,,5,,,77,127
55153,note_off,20,0,0,,0,,,60,127
55157,note_off,4,0,0,,0,,,48,127
55170,note_on,13,0,0,,12,,,83,127
55456,note_off,286,0,0,,12,,,83,127
55458,note_on,2,0,0,,0,,,84,127
55746,note_on,288,0,0,,4,,,64,127
55888,note_off,142,0,0,,0,,,84,127
55890,note_on,2,0,0,,11,,,82,127
56032,note_off,142,0,0,,11,,,82,127
56034,note_on,2,0,0,,10,,,81,127
56176,note_off,142,0,0,,10,,,81,127
56178,note_on,2,0,0,,7,,,79,127
56320,note_off,142,0,0,,7,,,79,127
56320,note_off,0,0,0,,4,,,64,127
56322,note_on,2,0,0,,5,,,65,127
56322,note_on,0,0,0,,10,,,81,127
56464,note_off,142,0,0,,10,,,81,127
56466,note_on,2,0,0,,11,,,82,127
56608,note_off,142,0,0,,11,,,82,127
56610,note_on,2,0,0,,0,,,84,127
56752,note_off,142,0,0,,0,,,84,127
56754,note_on,2,0,0,,1,,,85,127
56896,note_off,142,0,0,,1,,,85,127
56896,note_off,0,0,0,,5,,,65,127
56898,note_on,2,0,0,,11,,,58,127
56898,note_on,0,0,0,,2,,,86,127
57040,note_off,142,0,0,,2,,,86,127
57042,note_on,2,0,0,,11,,,82,127
57184,note_off,142,0,0,,11,,,82,127
57186,note_on,2,0,0,,10,,,81,127
57328,note_off,142,0,0,,10,,,81,127
57330,note_on,2,0,0,,7,,,79,127
57472,note_off,142,0,0,,7,,,79,127
57472,note_off,0,0,0,,11,,,58,127
57474,note_on,2,0,0,,0,,,60,127
57474,note_on,0,0,0,,5,,,77,127
57689,note_off,215,0,0,,5,,,77,127
57690,note_on,1,0,0,,7,,,79,127
57761,note_off,71,0,0,,7,,,79,127
57762,note_on,1,0,0,,5,,,77,127
57833,note_off,71,0,0,,5,,,77,127
57834,note_on,1,0,0,,4,,,76,127
57905,note_off,71,0,0,,4,,,76,127
57906,note_on,1,0,0,,5,,,77,127
57977,note_off,71,0,0,,5,,,77,127
57978,note_on,1,0,0,,7,,,79,127
58049,note_off,71,0,0,,7,,,79,127
58050,note_on,1,0,0,,0,,,48,127
58050,note_on,0,0,0,,10,,,81,127
58121,note_off,71,0,0,,10,,,81,127
58122,note_on,1,0,0,,7,,,79,127
58193,note_off,71,0,0,,7,,,79,127
58194,note_on,1,0,0,,10,,,81,127
58265,note_off,71,0,0,,10,,,81,127
58266,note_on,1,0,0,,7,,,79,127
58337,note_off,71,0,0,,7,,,79,127
58338,note_on,1,0,0,,10,,,81,127
58374,note_off,36,0,0,,0,,,60,127
58409,note_off,35,0,0,,10,,,81,127
58410,note_on,1,0,0,,7,,,79,127
58481,note_off,71,0,0,,7,,,79,127
58482,note_on,1,0,0,,5,,,77,127
58624,note_off,142,0,0,,5,,,77,127
58624,note_off,0,0,0,,0,,,48,127
58626,note_on,2,0,0,,5,,,41,127
58626,note_on,0,0,0,,5,,,77,127
59526,note_off,900,0,0,,5,,,77,127
59776,note_off,250,0,0,,5,,,41,127
59778,note_on,2,0,0,,5,,,53,127
60066,note_on,288,0,0,,5,,,77,127
60352,note_off,286,0,0,,5,,,77,127
60352,note_off,0,0,0,,5,,,53,127
60354,note_on,2,0,0,,5,,,65,127
60354,note_on,0,0,0,,5,,,77,127
60496,note_off,142,0,0,,5,,,77,127
60498,note_on,2,0,0,,4,,,76,127
60640,note_off,142,0,0,,4,,,76,127
60642,note_on,2,0,0,,5,,,77,127
60927,note_off,285,0,0,,5,,,77,127
60929,note_off,2,0,0,,5,,,65,127
60931,note_on,2,0,0,,1,,,61,127
60931,note_on,0,0,0,,5,,,77,127
61025,note_off,94,0,0,,5,,,77,127
61027,note_on,2,0,0,,4,,,76,127
61121,note_off,94,0,0,,4,,,76,127
61123,note_on,2,0,0,,5,,,77,127
61217,note_off,94,0,0,,5,,,77,127
61219,note_on,2,0,0,,5,,,77,127
61505,note_off,286,0,0,,5,,,77,127
61505,note_off,0,0,0,,1,,,61,127
61507,note_on,2,0,0,,11,,,58,127
61507,note_on,0,0,0,,5,,,77,127
61601,note_off,94,0,0,,5,,,77,127
61603,note_on,2,0,0,,4,,,76,127
61697,note_off,94,0,0,,4,,,76,127
61699,note_on,2,0,0,,5,,,77,127
61793,note_off,94,0,0,,5,,,77,127
61795,note_on,2,0,0,,5,,,77,127
62081,note_off,286,0,0,,5,,,77,127
62081,note_off,0,0,0,,11,,,58,127
62083,note_on,2,0,0,,8,,,56,127
62083,note_on,0,0,0,,5,,,77,127
62369,note_off,286,0,0,,5,,,77,127
62371,note_on,2,0,0,,8,,,80,127
62657,note_off,286,0,0,,8,,,80,127
62657,note_off,0,0,0,,8,,,56,127
62659,note_on,2,0,0,,5,,,53,127
62659,note_on,0,0,0,,8,,,80,127
62753,note_off,94,0,0,,8,,,80,127
62755,note_on,2,0,0,,7,,,79,127
62849,note_off,94,0,0,,7,,,79,127
62851,note_on,2,0,0,,8,,,80,127
62945,note_off,94,0,0,,8,,,80,127
62947,note_on,2,0,0,,8,,,80,127
63233,note_off,286,0,0,,8,,,80,127
63233,note_off,0,0,0,,5,,,53,127
63235,note_on,2,0,0,,1,,,49,127
63235,note_on,0,0,0,,8,,,80,127
63377,note_off,142,0,0,,8,,,80,127
63379,note_on,2,0,0,,7,,,79,127
63521,note_off,142,0,0,,7,,,79,127
63523,note_on,2,0,0,,8,,,80,127
63665,note_off,142,0,0,,8,,,80,127
63667,note_on,2,0,0,,11,,,82,127
63809,note_off,142,0,0,,11,,,82,127
63809,note_off,0,0,0,,1,,,49,127
63811,note_on,2,0,0,,8,,,80,127
63811,note_on,0,0,0,,11,,,46,127
63953,note_off,142,0,0,,8,,,80,127
63955,note_on,2,0,0,,7,,,79,127
64240,note_off,285,0,0,,7,,,79,127
64243,note_on,3,0,0,,5,,,77,127
64385,note_off,142,0,0,,5,,,77,127
64385,note_off,0,0,0,,11,,,46,127
64387,note_on,2,0,0,,0,,,48,127
64387,note_on,0,0,0,,4,,,76,127
64481,note_off,94,0,0,,4,,,76,127
64483,note_on,2,0,0,,2,,,74,127
64577,note_off,94,0,0,,2,,,74,127
64579,note_on,2,0,0,,0,,,72,127
64673,note_off,94,0,0,,0,,,72,127
64675,note_on,2,0,0,,0,,,72,127
64961,note_off,286,0,0,,0,,,72,127
64961,note_off,0,0,0,,0,,,48,127
64963,note_on,2,0,0,,4,,,64,127
64963,note_on,0,0,0,,0,,,72,127
65249,note_off,286,0,0,,0,,,72,127
65251,note_on,2,0,0,,0,,,72,127
65488,note_off,237,0,0,,4,,,64,127
65538,note_off,50,0,0,,0,,,72,127
65540,note_on,2,0,0,,5,,,65,127
65540,note_on,0,0,0,,8,,,68,127
65634,note_off,94,0,0,,8,,,68,127
65636,note_on,2,0,0,,11,,,70,127
65730,note_off,94,0,0,,11,,,70,127
65732,note_on,2,0,0,,0,,,72,127
65827,note_off,95,0,0,,0,,,72,127
65828,note_on,1,0,0,,0,,,72,127
66113,note_off,285,0,0,,0,,,72,127
66115,note_off,2,0,0,,5,,,65,127
66117,note_on,2,0,0,,4,,,64,127
66117,note_on,0,0,0,,0,,,72,127
66403,note_off,286,0,0,,0,,,72,127
66405,note_on,2,0,0,,0,,,72,127
66691,note_off,286,0,0,,0,,,72,127
66691,note_off,0,0,0,,4,,,64,127
66693,note_on,2,0,0,,5,,,65,127
66693,note_on,0,0,0,,8,,,68,127
66787,note_off,94,0,0,,8,,,68,127
66789,note_on,2,0,0,,11,,,70,127
66883,note_off,94,0,0,,11,,,70,127
66885,note_on,2,0,0,,0,,,72,127
66979,note_off,94,0,0,,0,,,72,127
66981,note_on,2,0,0,,0,,,72,127
67267,note_off,286,0,0,,0,,,72,127
67267,note_off,0,0,0,,5,,,65,127
67269,note_on,2,0,0,,3,,,63,127
67269,note_on,0,0,0,,0,,,72,127
67555,note_off,286,0,0,,0,,,72,127
67557,note_on,2,0,0,,0,,,72,127
67843,note_off,286,0,0,,0,,,72,127
67843,note_off,0,0,0,,3,,,63,127
67845,note_on,2,0,0,,2,,,62,127
67845,note_on,0,0,0,,2,,,74,127
67939,note_off,94,0,0,,2,,,74,127
67941,note_on,2,0,0,,4,,,76,127
68035,note_off,94,0,0,,4,,,76,127
68037,note_on,2,0,0,,5,,,77,127
68131,note_off,94,0,0,,5,,,77,127
68133,note_on,2,0,0,,5,,,77,127
68419,note_off,286,0,0,,5,,,77,127
68419,note_off,0,0,0,,2,,,62,127
68421,note_on,2,0,0,,12,,,59,127
68421,note_on,0,0,0,,5,,,77,127
68707,note_off,286,0,0,,5,,,77,127
68709,note_on,2,0,0,,5,,,77,127
68995,note_off,286,0,0,,5,,,77,127
68995,note_off,0,0,0,,12,,,59,127
68997,note_on,2,0,0,,0,,,60,127
68997,note_on,0,0,0,,7,,,79,127
69067,note_off,70,0,0,,7,,,79,127
69069,note_on,2,0,0,,5,,,77,127
69139,note_off,70,0,0,,5,,,77,127
69141,note_on,2,0,0,,7,,,79,127
69211,note_off,70,0,0,,7,,,79,127
69213,note_on,2,0,0,,5,,,77,127
69283,note_off,70,0,0,,5,,,77,127
69285,note_on,2,0,0,,3,,,75,127
69427,note_off,142,0,0,,3,,,75,127
69429,note_on,2,0,0,,0,,,84,127
69571,note_off,142,0,0,,0,,,84,127
69571,note_off,0,0,0,,0,,,60,127
69573,note_on,2,0,0,,10,,,57,127
69573,note_on,0,0,0,,0,,,84,127
69859,note_off,286,0,0,,0,,,84,127
69861,note_on,2,0,0,,3,,,75,127
70147,note_off,286,0,0,,3,,,75,127
70147,note_off,0,0,0,,10,,,57,127
70149,note_on,2,0,0,,6,,,54,127
70149,note_on,0,0,0,,5,,,77,127
70219,note_off,70,0,0,,5,,,77,127
70221,note_on,2,0,0,,3,,,75,127
70291,note_off,70,0,0,,3,,,75,127
70293,note_on,2,0,0,,5,,,77,127
70363,note_off,70,0,0,,5,,,77,127
70365,note_on,2,0,0,,3,,,75,127
70435,note_off,70,0,0,,3,,,75,127
70437,note_on,2,0,0,,2,,,74,127
70579,note_off,142,0,0,,2,,,74,127
70581,note_on,2,0,0,,11,,,82,127
70723,note_off,142,0,0,,11,,,82,127
70723,note_off,0,0,0,,6,,,54,127
70725,note_on,2,0,0,,7,,,55,127
70725,note_on,0,0,0,,11,,,82,127
71011,note_off,286,0,0,,11,,,82,127
71013,note_on,2,0,0,,2,,,74,127
71299,note_off,286,0,0,,2,,,74,127
71299,note_off,0,0,0,,7,,,55,127
71301,note_on,2,0,0,,8,,,56,127
71301,note_on,0,0,0,,3,,,75,127
71371,note_off,70,0,0,,3,,,75,127
71373,note_on,2,0,0,,2,,,74,127
71443,note_off,70,0,0,,2,,,74,127
71445,note_on,2,0,0,,3,,,75,127
71515,note_off,70,0,0,,3,,,75,127
71517,note_on,2,0,0,,2,,,74,127
71587,note_off,70,0,0,,2,,,74,127
71589,note_on,2,0,0,,0,,,72,127
71731,note_off,142,0,0,,0,,,72,127
71733,note_on,2,0,0,,8,,,80,127
71875,note_off,142,0,0,,8,,,80,127
71875,note_off,0,0,0,,8,,,56,127
71877,note_on,2,0,0,,5,,,53,127
71877,note_on,0,0,0,,8,,,80,127
72163,note_off,286,0,0,,8,,,80,127
72165,note_on,2,0,0,,0,,,72,127
72451,note_off,286,0,0,,0,,,72,127
72451,note_off,0,0,0,,5,,,53,127
72453,note_on,2,0,0,,2,,,50,127
72453,note_on,0,0,0,,2,,,74,127
72523,note_off,70,0,0,,2,,,74,127
72525,note_on,2,0,0,,0,,,72,127
72595,note_off,70,0,0,,0,,,72,127
72597,note_on,2,0,0,,2,,,74,127
72667,note_off,70,0,0,,2,,,74,127
72669,note_on,2,0,0,,0,,,72,127
72739,note_off,70,0,0,,0,,,72,127
72741,note_on,2,0,0,,11,,,70,127
72883,note_off,142,0,0,,11,,,70,127
72885,note_on,2,0,0,,7,,,79,127
73027,note_off,142,0,0,,7,,,79,127
73027,note_off,0,0,0,,2,,,50,127
73029,note_on,2,0,0,,3,,,51,127
73029,note_on,0,0,0,,7,,,79,127
73315,note_off,286,0,0,,7,,,79,127
73317,note_on,2,0,0,,11,,,70,127
73603,note_off,286,0,0,,11,,,70,127
73603,note_off,0,0,0,,3,,,51,127
73605,note_on,2,0,0,,5,,,53,127
73605,note_on,0,0,0,,0,,,72,127
73675,note_off,70,0,0,,0,,,72,127
73677,note_on,2,0,0,,11,,,70,127
73747,note_off,70,0,0,,11,,,70,127
73749,note_on,2,0,0,,0,,,72,127
73819,note_off,70,0,0,,0,,,72,127
73821,note_on,2,0,0,,11,,,70,127
73891,note_off,70,0,0,,11,,,70,127
73893,note_on,2,0,0,,8,,,68,127
74035,note_off,142,0,0,,8,,,68,127
74037,note_on,2,0,0,,5,,,77,127
74179,note_off,142,0,0,,5,,,77,127
74179,note_off,0,0,0,,5,,,53,127
74181,note_on,2,0,0,,2,,,50,127
74181,note_on,0,0,0,,5,,,77,127
74467,note_off,286,0,0,,5,,,77,127
74469,note_on,2,0,0,,8,,,68,127
74755,note_off,286,0,0,,8,,,68,127
74755,note_off,0,0,0,,2,,,50,127
74757,note_on,2,0,0,,3,,,51,127
74757,note_on,0,0,0,,11,,,70,127
74827,note_off,70,0,0,,11,,,70,127
74829,note_on,2,0,0,,8,,,68,127
74899,note_off,70,0,0,,8,,,68,127
74901,note_on,2,0,0,,11,,,70,127
74971,note_off,70,0,0,,11,,,70,127
74973,note_on,2,0,0,,8,,,68,127
75043,note_off,70,0,0,,8,,,68,127
75045,note_on,2,0,0,,7,,,67,127
75285,note_off,240,0,0,,7,,,67,127
75331,note_off,46,0,0,,3,,,51,127
75333,note_on,2,0,0,,3,,,63,127
75333,note_on,0,0,0,,7,,,79,127
75427,note_off,94,0,0,,7,,,79,127
75429,note_on,2,0,0,,5,,,77,127
75523,note_off,94,0,0,,5,,,77,127
75525,note_on,2,0,0,,3,,,75,127
75619,note_off,94,0,0,,3,,,75,127
75621,note_on,2,0,0,,3,,,75,127
75907,note_off,286,0,0,,3,,,75,127
75907,note_off,0,0,0,,3,,,63,127
75909,note_on,2,0,0,,5,,,65,127
75909,note_on,0,0,0,,3,,,75,127
76003,note_off,94,0,0,,3,,,75,127
76005,note_on,2,0,0,,2,,,74,127
76099,note_off,94,0,0,,2,,,74,127
76101,note_on,2,0,0,,0,,,72,127
76195,note_off,94,0,0,,0,,,72,127
76197,note_on,2,0,0,,0,,,72,127
76483,note_off,286,0,0,,0,,,72,127
76483,note_off,0,0,0,,5,,,65,127
76485,note_on,2,0,0,,3,,,63,127
76485,note_on,0,0,0,,0,,,72,127
76579,note_off,94,0,0,,0,,,72,127
76581,note_on,2,0,0,,11,,,70,127
76675,note_off,94,0,0,,11,,,70,127
76677,note_on,2,0,0,,10,,,69,127
76771,note_off,94,0,0,,10,,,69,127
76773,note_on,2,0,0,,10,,,69,127
77059,note_off,286,0,0,,10,,,69,127
77059,note_off,0,0,0,,3,,,63,127
77061,note_on,2,0,0,,2,,,62,127
77061,note_on,0,0,0,,11,,,70,127
77155,note_off,94,0,0,,11,,,70,127
77157,note_on,2,0,0,,0,,,72,127
77251,note_off,94,0,0,,0,,,72,127
77253,note_on,2,0,0,,2,,,74,127
77347,note_off,94,0,0,,2,,,74,127
77349,note_on,2,0,0,,2,,,74,127
77635,note_off,286,0,0,,2,,,74,127
77635,note_off,0,0,0,,2,,,62,127
77637,note_on,2,0,0,,10,,,57,127
77637,note_on,0,0,0,,0,,,72,127
77731,note_off,94,0,0,,0,,,72,127
77733,note_on,2,0,0,,2,,,74,127
77827,note_off,94,0,0,,2,,,74,127
77829,note_on,2,0,0,,3,,,75,127
77923,note_off,94,0,0,,3,,,75,127
77925,note_on,2,0,0,,3,,,75,127
78211,note_off,286,0,0,,3,,,75,127
78211,note_off,0,0,0,,10,,,57,127
78213,note_on,2,0,0,,11,,,58,127
78213,note_on,0,0,0,,2,,,74,127
78307,note_off,94,0,0,,2,,,74,127
78309,note_on,2,0,0,,3,,,75,127
78403,note_off,94,0,0,,3,,,75,127
78405,note_on,2,0,0,,5,,,77,127
78499,note_off,94,0,0,,5,,,77,127
78501,note_on,2,0,0,,5,,,77,127
78787,note_off,286,0,0,,5,,,77,127
78787,note_off,0,0,0,,11,,,58,127
78789,note_on,2,0,0,,2,,,50,127
78789,note_on,0,0,0,,5,,,77,127
78883,note_off,94,0,0,,5,,,77,127
78885,note_on,2,0,0,,7,,,79,127
78979,note_off,94,0,0,,7,,,79,127
78981,note_on,2,0,0,,10,,,81,127
79075,note_off,94,0,0,,10,,,81,127
79077,note_on,2,0,0,,11,,,82,127
79219,note_off,142,0,0,,11,,,82,127
79221,note_on,2,0,0,,10,,,81,127
79363,note_off,142,0,0,,10,,,81,127
79363,note_off,0,0,0,,2,,,50,127
79365,note_on,2,0,0,,3,,,51,127
79365,note_on,0,0,0,,7,,,79,127
79507,note_off,142,0,0,,7,,,79,127
79509,note_on,2,0,0,,5,,,77,127
79651,note_off,142,0,0,,5,,,77,127
79653,note_on,2,0,0,,3,,,75,127
79795,note_off,142,0,0,,3,,,75,127
79797,note_on,2,0,0,,2,,,74,127
79939,note_off,142,0,0,,2,,,74,127
79939,note_off,0,0,0,,3,,,51,127
79941,note_on,2,0,0,,4,,,52,127
79941,note_on,0,0,0,,7,,,79,127
80083,note_off,142,0,0,,7,,,79,127
80085,note_on,2,0,0,,4,,,76,127
80227,note_off,142,0,0,,4,,,76,127
80229,note_on,2,0,0,,0,,,72,127
80371,note_off,142,0,0,,0,,,72,127
80373,note_on,2,0,0,,11,,,70,127
80515,note_off,142,0,0,,11,,,70,127
80515,note_off,0,0,0,,4,,,52,127
80517,note_on,2,0,0,,5,,,53,127
80517,note_on,0,0,0,,0,,,72,127
80588,note_off,71,0,0,,0,,,72,127
80589,note_on,1,0,0,,11,,,70,127
80659,note_off,70,0,0,,11,,,70,127
80661,note_on,2,0,0,,0,,,72,127
80731,note_off,70,0,0,,0,,,72,127
80733,note_on,2,0,0,,11,,,70,127
80803,note_off,70,0,0,,11,,,70,127
80805,note_on,2,0,0,,0,,,72,127
80875,note_off,70,0,0,,0,,,72,127
80877,note_on,2,0,0,,11,,,70,127
80947,note_off,70,0,0,,11,,,70,127
80949,note_on,2,0,0,,10,,,69,127
81129,note_on,180,0,0,,5,,,41,127
81657,note_off,528,0,0,,5,,,53,127
81729,note_off,72,0,0,,10,,,69,127
82233,note_off,504,0,0,,5,,,41,127
82533,note_on,300,0,0,,0,,,72,127
82533,note_on,0,0,0,,5,,,53,127
82627,note_off,94,0,0,,0,,,72,127
82629,note_on,2,0,0,,11,,,70,127
82723,note_off,94,0,0,,11,,,70,127
82725,note_on,2,0,0,,10,,,69,127
82819,note_off,94,0,0,,10,,,69,127
82821,note_on,2,0,0,,10,,,69,127
82963,note_off,142,0,0,,10,,,69,127
82965,note_on,2,0,0,,5,,,65,127
83107,note_off,142,0,0,,5,,,65,127
83108,note_off,1,0,0,,5,,,53,127
83109,note_on,1,0,0,,3,,,75,127
83109,note_on,0,0,0,,0,,,72,127
83253,note_on,144,0,0,,0,,,60,127
83395,note_off,142,0,0,,0,,,60,127
83397,note_on,2,0,0,,10,,,57,127
83539,note_off,142,0,0,,10,,,57,127
83541,note_on,2,0,0,,5,,,53,127
83683,note_off,142,0,0,,5,,,53,127
83683,note_off,0,0,0,,0,,,72,127
83683,note_off,0,0,0,,3,,,75,127
83685,note_on,2,0,0,,2,,,74,127
83685,note_on,0,0,0,,11,,,58,127
83779,note_off,94,0,0,,2,,,74,127
83781,note_on,2,0,0,,0,,,72,127
83875,note_off,94,0,0,,0,,,72,127
83877,note_on,2,0,0,,11,,,70,127
83971,note_off,94,0,0,,11,,,70,127
83973,note_on,2,0,0,,11,,,70,127
84115,note_off,142,0,0,,11,,,70,127
84117,note_on,2,0,0,,5,,,65,127
84259,note_off,142,0,0,,5,,,65,127
84260,note_off,1,0,0,,11,,,58,127
84261,note_on,1,0,0,,2,,,74,127
84261,note_on,0,0,0,,11,,,70,127
84405,note_on,144,0,0,,4,,,52,127
84547,note_off,142,0,0,,4,,,52,127
84549,note_on,2,0,0,,5,,,53,127
84691,note_off,142,0,0,,5,,,53,127
84693,note_on,2,0,0,,4,,,52,127
84835,note_off,142,0,0,,4,,,52,127
84835,note_off,0,0,0,,11,,,70,127
84835,note_off,0,0,0,,2,,,74,127
84837,note_on,2,0,0,,0,,,72,127
84837,note_on,0,0,0,,5,,,53,127
84931,note_off,94,0,0,,0,,,72,127
84933,note_on,2,0,0,,11,,,70,127
85027,note_off,94,0,0,,11,,,70,127
85029,note_on,2,0,0,,10,,,69,127
85123,note_off,94,0,0,,10,,,69,127
85125,note_on,2,0,0,,10,,,69,127
85267,note_off,142,0,0,,10,,,69,127
85269,note_on,2,0,0,,5,,,65,127
85411,note_off,142,0,0,,5,,,65,127
85412,note_off,1,0,0,,5,,,53,127
85413,note_on,1,0,0,,3,,,75,127
85413,note_on,0,0,0,,0,,,72,127
85557,note_on,144,0,0,,0,,,60,127
85699,note_off,142,0,0,,0,,,60,127
85701,note_on,2,0,0,,10,,,57,127
85843,note_off,142,0,0,,10,,,57,127
85845,note_on,2,0,0,,5,,,53,127
85987,note_off,142,0,0,,5,,,53,127
85987,note_off,0,0,0,,0,,,72,127
85987,note_off,0,0,0,,3,,,75,127
85989,note_on,2,0,0,,2,,,74,127
85989,note_on,0,0,0,,11,,,58,127
86083,note_off,94,0,0,,2,,,74,127
86085,note_on,2,0,0,,0,,,72,127
86179,note_off,94,0,0,,0,,,72,127
86181,note_on,2,0,0,,11,,,70,127
86275,note_off,94,0,0,,11,,,70,127
86277,note_on,2,0,0,,11,,,70,127
86419,note_off,142,0,0,,11,,,70,127
86421,note_on,2,0,0,,5,,,65,127
86563,note_off,142,0,0,,5,,,65,127
86564,note_off,1,0,0,,11,,,58,127
86565,note_on,1,0,0,,11,,,70,127
86565,note_on,0,0,0,,2,,,74,127
86709,note_on,144,0,0,,4,,,52,127
86851,note_off,142,0,0,,4,,,52,127
86853,note_on,2,0,0,,5,,,53,127
86995,note_off,142,0,0,,5,,,53,127
86997,note_on,2,0,0,,4,,,52,127
87139,note_off,142,0,0,,4,,,52,127
87139,note_off,0,0,0,,2,,,74,127
87139,note_off,0,0,0,,11,,,70,127
87141,note_on,2,0,0,,0,,,72,127
87141,note_on,0,0,0,,5,,,53,127
87427,note_off,286,0,0,,0,,,72,127
87429,note_on,2,0,0,,5,,,77,127
87715,note_off,286,0,0,,5,,,77,127
87715,note_off,0,0,0,,5,,,53,127
87717,note_on,2,0,0,,5,,,77,127
87717,note_on,0,0,0,,2,,,50,127
87811,note_off,94,0,0,,5,,,77,127
87813,note_on,2,0,0,,3,,,75,127
87907,note_off,94,0,0,,3,,,75,127
87909,note_on,2,0,0,,2,,,74,127
88003,note_off,94,0,0,,2,,,74,127
88005,note_on,2,0,0,,2,,,74,127
88291,note_off,286,0,0,,2,,,74,127
88291,note_off,0,0,0,,2,,,50,127
88293,note_on,2,0,0,,2,,,74,127
88293,note_on,0,0,0,,7,,,55,127
88387,note_off,94,0,0,,2,,,74,127
88389,note_on,2,0,0,,0,,,72,127
88483,note_off,94,0,0,,0,,,72,127
88485,note_on,2,0,0,,11,,,70,127
88579,note_off,94,0,0,,11,,,70,127
88581,note_on,2,0,0,,11,,,70,127
88867,note_off,286,0,0,,11,,,70,127
88867,note_off,0,0,0,,7,,,55,127
88869,note_on,2,0,0,,11,,,70,127
88869,note_on,0,0,0,,7,,,55,127
88983,note_off,114,0,0,,11,,,70,127
88985,note_on,2,0,0,,10,,,69,127
89098,note_off,113,0,0,,10,,,69,127
89100,note_on,2,0,0,,7,,,67,127
89214,note_off,114,0,0,,7,,,67,127
89214,note_on,0,0,0,,5,,,65,127
89327,note_off,113,0,0,,5,,,65,127
89329,note_on,2,0,0,,4,,,64,127
89443,note_off,114,0,0,,4,,,64,127
89443,note_off,0,0,0,,7,,,55,127
89445,note_on,2,0,0,,11,,,70,127
89445,note_on,0,0,0,,7,,,55,127
89730,note_off,285,0,0,,11,,,70,127
89733,note_on,3,0,0,,10,,,69,127
89804,note_off,71,0,0,,10,,,69,127
89805,note_on,1,0,0,,7,,,67,127
89876,note_off,71,0,0,,7,,,67,127
89877,note_on,1,0,0,,5,,,65,127
89948,note_off,71,0,0,,5,,,65,127
89949,note_on,1,0,0,,4,,,64,127
90019,note_off,70,0,0,,7,,,55,127
90020,note_off,1,0,0,,4,,,64,127
90021,note_on,1,0,0,,11,,,82,127
90021,note_on,0,0,0,,7,,,55,127
90405,note_off,384,0,0,,11,,,82,127
90405,note_on,0,0,0,,10,,,81,127
90452,note_off,47,0,0,,10,,,81,127
90453,note_on,1,0,0,,7,,,79,127
90500,note_off,47,0,0,,7,,,79,127
90501,note_on,1,0,0,,5,,,77,127
90548,note_off,47,0,0,,5,,,77,127
90549,note_on,1,0,0,,4,,,76,127
90595,note_off,46,0,0,,4,,,76,127
90595,note_off,0,0,0,,7,,,55,127
90597,note_on,2,0,0,,4,,,76,127
90597,note_on,0,0,0,,5,,,53,127
90739,note_off,142,0,0,,4,,,76,127
90741,note_on,2,0,0,,7,,,79,127
90811,note_off,70,0,0,,7,,,79,127
90813,note_on,2,0,0,,5,,,77,127
90883,note_off,70,0,0,,5,,,77,127
90885,note_on,2,0,0,,7,,,79,127
90955,note_off,70,0,0,,7,,,79,127
90957,note_on,2,0,0,,5,,,77,127
91027,note_off,70,0,0,,5,,,77,127
91029,note_on,2,0,0,,7,,,79,127
91099,note_off,70,0,0,,7,,,79,127
91101,note_on,2,0,0,,5,,,77,127
91676,note_off,575,0,0,,5,,,77,127
91746,note_off,70,0,0,,5,,,53,127
92037,note_on,291,0,0,,5,,,53,127
92037,note_on,0,0,0,,0,,,72,127
92131,note_off,94,0,0,,0,,,72,127
92133,note_on,2,0,0,,11,,,70,127
92227,note_off,94,0,0,,11,,,70,127
92229,note_on,2,0,0,,10,,,69,127
92323,note_off,94,0,0,,10,,,69,127
92325,note_on,2,0,0,,10,,,69,127
92467,note_off,142,0,0,,10,,,69,127
92469,note_on,2,0,0,,5,,,65,127
92611,note_off,142,0,0,,5,,,65,127
92612,note_off,1,0,0,,5,,,53,127
92613,note_on,1,0,0,,0,,,72,127
92613,note_on,0,0,0,,3,,,75,127
92757,note_on,144,0,0,,0,,,60,127
92899,note_off,142,0,0,,0,,,60,127
92901,note_on,2,0,0,,10,,,57,127
93043,note_off,142,0,0,,10,,,57,127
93045,note_on,2,0,0,,5,,,53,127
93187,note_off,142,0,0,,5,,,53,127
93187,note_off,0,0,0,,3,,,75,127
93187,note_off,0,0,0,,0,,,72,127
93189,note_on,2,0,0,,11,,,58,127
93189,note_on,0,0,0,,2,,,74,127
93283,note_off,94,0,0,,2,,,74,127
93285,note_on,2,0,0,,0,,,72,127
93379,note_off,94,0,0,,0,,,72,127
93381,note_on,2,0,0,,11,,,70,127
93475,note_off,94,0,0,,11,,,70,127
93477,note_on,2,0,0,,11,,,70,127
93619,note_off,142,0,0,,11,,,70,127
93621,note_on,2,0,0,,5,,,65,127
93763,note_off,142,0,0,,5,,,65,127
93764,note_off,1,0,0,,11,,,58,127
93765,note_on,1,0,0,,11,,,70,127
93765,note_on,0,0,0,,2,,,74,127
93909,note_on,144,0,0,,4,,,52,127
94051,note_off,142,0,0,,4,,,52,127
94053,note_on,2,0,0,,5,,,53,127
94195,note_off,142,0,0,,5,,,53,127
94197,note_on,2,0,0,,4,,,52,127
94339,note_off,142,0,0,,4,,,52,127
94339,note_off,0,0,0,,2,,,74,127
94339,note_off,0,0,0,,11,,,70,127
94341,note_on,2,0,0,,5,,,53,127
94341,note_on,0,0,0,,0,,,72,127
94435,note_off,94,0,0,,0,,,72,127
94437,note_on,2,0,0,,11,,,70,127
94531,note_off,94,0,0,,11,,,70,127
94533,note_on,2,0,0,,10,,,69,127
94627,note_off,94,0,0,,10,,,69,127
94629,note_on,2,0,0,,10,,,69,127
94771,note_off,142,0,0,,10,,,69,127
94773,note_on,2,0,0,,5,,,65,127
94915,note_off,142,0,0,,5,,,65,127
94916,note_off,1,0,0,,5,,,53,127
94917,note_on,1,0,0,,3,,,75,127
94917,note_on,0,0,0,,0,,,72,127
95061,note_on,144,0,0,,0,,,60,127
95203,note_off,142,0,0,,0,,,60,127
95205,note_on,2,0,0,,10,,,57,127
95347,note_off,142,0,0,,10,,,57,127
95349,note_on,2,0,0,,5,,,53,127
95491,note_off,142,0,0,,5,,,53,127
95491,note_off,0,0,0,,0,,,72,127
95491,note_off,0,0,0,,3,,,75,127
95493,note_on,2,0,0,,11,,,58,127
95493,note_on,0,0,0,,2,,,74,127
95587,note_off,94,0,0,,2,,,74,127
95589,note_on,2,0,0,,0,,,72,127
95683,note_off,94,0,0,,0,,,72,127
95685,note_on,2,0,0,,11,,,70,127
95779,note_off,94,0,0,,11,,,70,127
95781,note_on,2,0,0,,11,,,70,127
95923,note_off,142,0,0,,11,,,70,127
95925,note_on,2,0,0,,5,,,65,127
96067,note_off,142,0,0,,5,,,65,127
96068,note_off,1,0,0,,11,,,58,127
96069,note_on,1,0,0,,11,,,70,127
96069,note_on,0,0,0,,2,,,74,127
96213,note_on,144,0,0,,4,,,52,127
96355,note_off,142,0,0,,4,,,52,127
96357,note_on,2,0,0,,5,,,53,127
96499,note_off,142,0,0,,5,,,53,127
96501,note_on,2,0,0,,4,,,52,127
96643,note_off,142,0,0,,4,,,52,127
96643,note_off,0,0,0,,2,,,74,127
96643,note_off,0,0,0,,11,,,70,127
96645,note_on,2,0,0,,5,,,53,127
96645,note_on,0,0,0,,0,,,72,127
96931,note_off,286,0,0,,0,,,72,127
96933,note_on,2,0,0,,5,,,77,127
97219,note_off,286,0,0,,5,,,77,127
97219,note_off,0,0,0,,5,,,53,127
97221,note_on,2,0,0,,2,,,50,127
97221,note_on,0,0,0,,5,,,77,127
97315,note_off,94,0,0,,5,,,77,127
97317,note_on,2,0,0,,3,,,75,127
97411,note_off,94,0,0,,3,,,75,127
97413,note_on,2,0,0,,2,,,74,127
97507,note_off,94,0,0,,2,,,74,127
97509,note_on,2,0,0,,2,,,74,127
97795,note_off,286,0,0,,2,,,74,127
97795,note_off,0,0,0,,2,,,50,127
97797,note_on,2,0,0,,7,,,55,127
97797,note_on,0,0,0,,2,,,74,127
97891,note_off,94,0,0,,2,,,74,127
97893,note_on,2,0,0,,0,,,72,127
97987,note_off,94,0,0,,0,,,72,127
97989,note_on,2,0,0,,11,,,70,127
98083,note_off,94,0,0,,11,,,70,127
98085,note_on,2,0,0,,11,,,70,127
98371,note_off,286,0,0,,11,,,70,127
98371,note_off,0,0,0,,7,,,55,127
98373,note_on,2,0,0,,7,,,55,127
98373,note_on,0,0,0,,11,,,82,127
98467,note_off,94,0,0,,11,,,82,127
98469,note_on,2,0,0,,10,,,81,127
98563,note_off,94,0,0,,10,,,81,127
98565,note_on,2,0,0,,7,,,79,127
98659,note_off,94,0,0,,7,,,79,127
98661,note_on,2,0,0,,7,,,79,127
98947,note_off,286,0,0,,7,,,79,127
98947,note_off,0,0,0,,7,,,55,127
98949,note_on,2,0,0,,10,,,57,127
98949,note_on,0,0,0,,7,,,79,127
99043,note_off,94,0,0,,7,,,79,127
99045,note_on,2,0,0,,5,,,77,127
99139,note_off,94,0,0,,5,,,77,127
99141,note_on,2,0,0,,3,,,75,127
99235,note_off,94,0,0,,3,,,75,127
99237,note_on,2,0,0,,3,,,75,127
99523,note_off,286,0,0,,3,,,75,127
99523,note_off,0,0,0,,10,,,57,127
99525,note_on,2,0,0,,11,,,58,127
99525,note_on,0,0,0,,2,,,74,127
99619,note_off,94,0,0,,2,,,74,127
99621,note_on,2,0,0,,3,,,75,127
99715,note_off,94,0,0,,3,,,75,127
99717,note_on,2,0,0,,5,,,77,127
99811,note_off,94,0,0,,5,,,77,127
99813,note_on,2,0,0,,5,,,77,127
100099,note_off,286,0,0,,5,,,77,127
100099,note_off,0,0,0,,11,,,58,127
100101,note_on,2,0,0,,3,,,51,127
100101,note_on,0,0,0,,6,,,78,127
100387,note_off,286,0,0,,6,,,78,127
100389,note_on,2,0,0,,7,,,79,127
100675,note_off,286,0,0,,3,,,51,127
100677,note_on,2,0,0,,3,,,51,127
100819,note_off,142,0,0,,7,,,79,127
100821,note_on,2,0,0,,3,,,75,127
100963,note_off,142,0,0,,3,,,75,127
100965,note_on,2,0,0,,2,,,74,127
101107,note_off,142,0,0,,2,,,74,127
101109,note_on,2,0,0,,0,,,72,127
101251,note_off,142,0,0,,0,,,72,127
101251,note_off,0,0,0,,3,,,51,127
101253,note_on,2,0,0,,5,,,53,127
101253,note_on,0,0,0,,11,,,70,127
101683,note_off,430,0,0,,11,,,70,127
101685,note_on,2,0,0,,0,,,72,127
101827,note_off,142,0,0,,0,,,72,127
101827,note_off,0,0,0,,5,,,53,127
101829,note_on,2,0,0,,5,,,41,127
101829,note_on,0,0,0,,2,,,74,127
101923,note_off,94,0,0,,2,,,74,127
101925,note_on,2,0,0,,0,,,72,127
102019,note_off,94,0,0,,0,,,72,127
102021,note_on,2,0,0,,2,,,74,127
102115,note_off,94,0,0,,2,,,74,127
102117,note_on,2,0,0,,0,,,72,127
102212,note_off,95,0,0,,0,,,72,127
102213,note_on,1,0,0,,11,,,70,127
102355,note_off,142,0,0,,11,,,70,127
102404,note_off,49,0,0,,5,,,41,127
102405,note_on,1,0,0,,4,,,76,127
102691,note_off,286,0,0,,4,,,76,127
102693,note_on,2,0,0,,5,,,77,127
102981,note_on,288,0,0,,10,,,57,127
103123,note_off,142,0,0,,5,,,77,127
103125,note_on,2,0,0,,3,,,75,127
103267,note_off,142,0,0,,3,,,75,127
103269,note_on,2,0,0,,2,,,74,127
103411,note_off,142,0,0,,2,,,74,127
103413,note_on,2,0,0,,0,,,72,127
103555,note_off,142,0,0,,0,,,72,127
103555,note_off,0,0,0,,10,,,57,127
103557,note_on,2,0,0,,11,,,58,127
103557,note_on,0,0,0,,2,,,74,127
103699,note_off,142,0,0,,2,,,74,127
103701,note_on,2,0,0,,3,,,75,127
103843,note_off,142,0,0,,3,,,75,127
103845,note_on,2,0,0,,5,,,77,127
103987,note_off,142,0,0,,5,,,77,127
103989,note_on,2,0,0,,6,,,78,127
104131,note_off,142,0,0,,6,,,78,127
104131,note_off,0,0,0,,11,,,58,127
104133,note_on,2,0,0,,3,,,51,127
104133,note_on,0,0,0,,7,,,79,127
104275,note_off,142,0,0,,7,,,79,127
104277,note_on,2,0,0,,3,,,75,127
104419,note_off,142,0,0,,3,,,75,127
104421,note_on,2,0,0,,2,,,74,127
104563,note_off,142,0,0,,2,,,74,127
104565,note_on,2,0,0,,0,,,72,127
104707,note_off,142,0,0,,0,,,72,127
104707,note_off,0,0,0,,3,,,51,127
104709,note_on,2,0,0,,5,,,53,127
104709,note_on,0,0,0,,11,,,70,127
104924,note_off,215,0,0,,11,,,70,127
104925,note_on,1,0,0,,0,,,72,127
104996,note_off,71,0,0,,0,,,72,127
104997,note_on,1,0,0,,11,,,70,127
105068,note_off,71,0,0,,11,,,70,127
105069,note_on,1,0,0,,10,,,69,127
105140,note_off,71,0,0,,10,,,69,127
105141,note_on,1,0,0,,11,,,70,127
105212,note_off,71,0,0,,11,,,70,127
105213,note_on,1,0,0,,0,,,72,127
105283,note_off,70,0,0,,5,,,53,127
105284,note_off,1,0,0,,0,,,72,127
105285,note_on,1,0,0,,3,,,51,127
105285,note_on,0,0,0,,2,,,74,127
105356,note_off,71,0,0,,2,,,74,127
105357,note_on,1,0,0,,0,,,72,127
105428,note_off,71,0,0,,0,,,72,127
105429,note_on,1,0,0,,2,,,74,127
105500,note_off,71,0,0,,2,,,74,127
105501,note_on,1,0,0,,0,,,72,127
105572,note_off,71,0,0,,0,,,72,127
105573,note_on,1,0,0,,2,,,74,127
105644,note_off,71,0,0,,2,,,74,127
105645,note_on,1,0,0,,0,,,72,127
105716,note_off,71,0,0,,0,,,72,127
105717,note_on,1,0,0,,11,,,70,127
105859,note_off,142,0,0,,3,,,51,127
105897,note_off,38,0,0,,11,,,70,127
105897,note_on,0,0,0,,11,,,82,127
105897,note_on,0,0,0,,2,,,50,127
106039,note_off,142,0,0,,11,,,82,127
106041,note_on,2,0,0,,10,,,81,127
106183,note_off,142,0,0,,10,,,81,127
106185,note_on,2,0,0,,7,,,79,127
106327,note_off,142,0,0,,7,,,79,127
106329,note_on,2,0,0,,5,,,77,127
106471,note_off,142,0,0,,5,,,77,127
106471,note_off,0,0,0,,2,,,50,127
106473,note_on,2,0,0,,3,,,75,127
106473,note_on,0,0,0,,3,,,51,127
106615,note_off,142,0,0,,3,,,75,127
106617,note_on,2,0,0,,2,,,74,127
106759,note_off,142,0,0,,2,,,74,127
106761,note_on,2,0,0,,0,,,72,127
106903,note_off,142,0,0,,0,,,72,127
106905,note_on,2,0,0,,11,,,70,127
107047,note_off,142,0,0,,11,,,70,127
107047,note_off,0,0,0,,3,,,51,127
107049,note_on,2,0,0,,5,,,65,127
107049,note_on,0,0,0,,5,,,53,127
107407,note_off,358,0,0,,5,,,65,127
107409,note_on,2,0,0,,7,,,67,127
107479,note_off,70,0,0,,7,,,67,127
107481,note_on,2,0,0,,10,,,69,127
107551,note_off,70,0,0,,10,,,69,127
107553,note_on,2,0,0,,11,,,70,127
107623,note_off,70,0,0,,11,,,70,127
107625,note_on,2,0,0,,0,,,72,127
107695,note_off,70,0,0,,0,,,72,127
107697,note_on,2,0,0,,2,,,74,127
107697,note_on,0,0,0,,5,,,41,127
107767,note_off,70,0,0,,2,,,74,127
107769,note_on,2,0,0,,0,,,72,127
107839,note_off,70,0,0,,0,,,72,127
107841,note_on,2,0,0,,2,,,74,127
107911,note_off,70,0,0,,2,,,74,127
107913,note_on,2,0,0,,0,,,72,127
107983,note_off,70,0,0,,0,,,72,127
107985,note_on,2,0,0,,2,,,74,127
108055,note_off,70,0,0,,2,,,74,127
108057,note_on,2,0,0,,0,,,72,127
108127,note_off,70,0,0,,0,,,72,127
108129,note_on,2,0,0,,11,,,70,127
108198,note_off,69,0,0,,5,,,53,127
108272,note_off,74,0,0,,11,,,70,127
108272,note_off,0,0,0,,5,,,41,127
108282,note_on,10,0,0,,11,,,46,127
108282,note_on,0,0,0,,11,,,70,127
110550,note_off,2268,0,0,,11,,,70,127
110550,note_off,0,0,0,,11,,,46,127
112128,end_of_track,1578,1,0,,,,,,
