tick,type,time,meta,track,program,channel,pitch,tempo,note,velocity
0,copyright,0,1,0,,,,,,
0,program_change,0,0,0,6,0,,,,
0,pitchwheel,0,0,0,,0,0,,,
0,program_change,0,0,0,6,1,,,,
0,pitchwheel,0,0,0,,1,-590,,,
0,program_change,0,0,0,6,2,,,,
0,pitchwheel,0,0,0,,2,-272,,,
0,program_change,0,0,0,6,3,,,,
0,pitchwheel,0,0,0,,3,-353,,,
0,program_change,0,0,0,6,4,,,,
0,pitchwheel,0,0,0,,4,-560,,,
0,program_change,0,0,0,6,5,,,,
0,pitchwheel,0,0,0,,5,-80,,,
0,program_change,0,0,0,6,6,,,,
0,pitchwheel,0,0,0,,6,-625,,,
0,program_change,0,0,0,6,7,,,,
0,pitchwheel,0,0,0,,7,-130,,,
0,program_change,0,0,0,6,8,,,,
0,pitchwheel,0,0,0,,8,-512,,,
0,program_change,0,0,0,6,10,,,,
0,pitchwheel,0,0,0,,10,-464,,,
0,program_change,0,0,0,6,11,,,,
0,pitchwheel,0,0,0,,11,-208,,,
0,program_change,0,0,0,6,12,,,,
0,pitchwheel,0,0,0,,12,-553,,,
0,set_tempo,0,1,0,,,,500000,,
110,note_on,110,0,0,,11,,,58,127
110,note_on,0,0,0,,5,,,77,127
328,note_off,218,0,0,,5,,,77,127
329,note_on,1,0,0,,2,,,74,127
547,note_off,218,0,0,,2,,,74,127
547,note_off,0,0,0,,11,,,58,127
548,note_on,1,0,0,,3,,,63,127
548,note_on,0,0,0,,7,,,79,127
766,note_off,218,0,0,,7,,,79,127
766,note_off,0,0,0,,3,,,63,127
767,note_on,1,0,0,,2,,,62,127
767,note_on,0,0,0,,5,,,77,127
985,note_off,218,0,0,,5,,,77,127
986,note_on,1,0,0,,2,,,74,127
1204,note_off,218,0,0,,2,,,74,127
1204,note_off,0,0,0,,2,,,62,127
1205,note_on,1,0,0,,2,,,62,127
1205,note_on,0,0,0,,11,,,70,127
1423,note_off,218,0,0,,11,,,70,127
1423,note_off,0,0,0,,2,,,62,127
1424,note_on,1,0,0,,0,,,60,127
1424,note_on,0,0,0,,3,,,75,127
1642,note_off,218,0,0,,3,,,75,127
1643,note_on,1,0,0,,0,,,72,127
1861,note_off,218,0,0,,0,,,72,127
1861,note_off,0,0,0,,0,,,60,127
1862,note_on,1,0,0,,5,,,65,127
1862,note_on,0,0,0,,10,,,69,127
2080,note_off,218,0,0,,10,,,69,127
2080,note_off,0,0,0,,5,,,65,127
2081,note_on,1,0,0,,2,,,62,127
2081,note_on,0,0,0,,11,,,70,127
2299,note_off,218,0,0,,11,,,70,127
2300,note_on,1,0,0,,5,,,65,127
2518,note_off,218,0,0,,5,,,65,127
2518,note_off,0,0,0,,2,,,62,127
2519,note_on,1,0,0,,2,,,62,127
2519,note_on,0,0,0,,11,,,82,127
2730,note_off,211,0,0,,11,,,82,127
2737,note_off,7,0,0,,2,,,62,127
2738,note_on,1,0,0,,0,,,60,127
2738,note_on,0,0,0,,0,,,84,127
2738,note_on,0,0,0,,11,,,82,127
2956,note_off,218,0,0,,11,,,82,127
2956,note_off,0,0,0,,0,,,84,127
2957,note_on,1,0,0,,10,,,81,127
3175,note_off,218,0,0,,10,,,81,127
3175,note_off,0,0,0,,0,,,60,127
3176,note_on,1,0,0,,10,,,57,127
3176,note_on,0,0,0,,3,,,75,127
3387,note_off,211,0,0,,3,,,75,127
3394,note_off,7,0,0,,10,,,57,127
3395,note_on,1,0,0,,11,,,58,127
3395,note_on,0,0,0,,5,,,77,127
3395,note_on,0,0,0,,3,,,75,127
3613,note_off,218,0,0,,3,,,75,127
3613,note_off,0,0,0,,5,,,77,127
3614,note_on,1,0,0,,2,,,74,127
3832,note_off,218,0,0,,2,,,74,127
3832,note_off,0,0,0,,11,,,58,127
3833,note_on,1,0,0,,2,,,62,127
3833,note_on,0,0,0,,11,,,70,127
4044,note_off,211,0,0,,11,,,70,127
4051,note_off,7,0,0,,2,,,62,127
4052,note_on,1,0,0,,0,,,60,127
4052,note_on,0,0,0,,11,,,70,127
4052,note_on,0,0,0,,0,,,72,127
4270,note_off,218,0,0,,0,,,72,127
4270,note_off,0,0,0,,11,,,70,127
4271,note_on,1,0,0,,10,,,69,127
4489,note_off,218,0,0,,10,,,69,127
4489,note_off,0,0,0,,0,,,60,127
4490,note_on,1,0,0,,10,,,57,127
4490,note_on,0,0,0,,3,,,63,127
4701,note_off,211,0,0,,3,,,63,127
4708,note_off,7,0,0,,10,,,57,127
4709,note_on,1,0,0,,11,,,58,127
4709,note_on,0,0,0,,3,,,63,127
4709,note_on,0,0,0,,5,,,65,127
4927,note_off,218,0,0,,5,,,65,127
4927,note_off,0,0,0,,3,,,63,127
4928,note_on,1,0,0,,2,,,62,127
5146,note_off,218,0,0,,2,,,62,127
5146,note_off,0,0,0,,11,,,58,127
5147,note_on,1,0,0,,11,,,58,127
5147,note_on,0,0,0,,5,,,65,127
5365,note_off,218,0,0,,11,,,58,127
5366,note_on,1,0,0,,8,,,56,127
5584,note_off,218,0,0,,5,,,65,127
5585,note_on,1,0,0,,7,,,67,127
5803,note_off,218,0,0,,7,,,67,127
5803,note_off,0,0,0,,8,,,56,127
5804,note_on,1,0,0,,8,,,56,127
5804,note_on,0,0,0,,8,,,68,127
6022,note_off,218,0,0,,8,,,68,127
6022,note_off,0,0,0,,8,,,56,127
6023,note_on,1,0,0,,7,,,55,127
6023,note_on,0,0,0,,8,,,68,127
6241,note_off,218,0,0,,8,,,68,127
6242,note_on,1,0,0,,11,,,70,127
6460,note_off,218,0,0,,11,,,70,127
6460,note_off,0,0,0,,7,,,55,127
6461,note_on,1,0,0,,7,,,55,127
6461,note_on,0,0,0,,4,,,64,127
6679,note_off,218,0,0,,7,,,55,127
6680,note_on,1,0,0,,0,,,60,127
6898,note_off,218,0,0,,4,,,64,127
6899,note_on,1,0,0,,5,,,65,127
7117,note_off,218,0,0,,5,,,65,127
7117,note_off,0,0,0,,0,,,60,127
7118,note_on,1,0,0,,4,,,52,127
7118,note_on,0,0,0,,7,,,67,127
7336,note_off,218,0,0,,7,,,67,127
7336,note_off,0,0,0,,4,,,52,127
7337,note_on,1,0,0,,5,,,53,127
7337,note_on,0,0,0,,7,,,67,127
7555,note_off,218,0,0,,7,,,67,127
7556,note_on,1,0,0,,8,,,68,127
7774,note_off,218,0,0,,8,,,68,127
7774,note_off,0,0,0,,5,,,53,127
7775,note_on,1,0,0,,5,,,65,127
7775,note_on,0,0,0,,0,,,72,127
7993,note_off,218,0,0,,5,,,65,127
7994,note_on,1,0,0,,3,,,63,127
8212,note_off,218,0,0,,0,,,72,127
8213,note_on,1,0,0,,2,,,74,127
8431,note_off,218,0,0,,2,,,74,127
8431,note_off,0,0,0,,3,,,63,127
8432,note_on,1,0,0,,3,,,63,127
8432,note_on,0,0,0,,3,,,75,127
8650,note_off,218,0,0,,3,,,75,127
8650,note_off,0,0,0,,3,,,63,127
8651,note_on,1,0,0,,2,,,62,127
8651,note_on,0,0,0,,3,,,75,127
8869,note_off,218,0,0,,3,,,75,127
8870,note_on,1,0,0,,5,,,77,127
9088,note_off,218,0,0,,5,,,77,127
9088,note_off,0,0,0,,2,,,62,127
9089,note_on,1,0,0,,2,,,62,127
9089,note_on,0,0,0,,12,,,71,127
9307,note_off,218,0,0,,2,,,62,127
9308,note_on,1,0,0,,7,,,67,127
9526,note_off,218,0,0,,12,,,71,127
9527,note_on,1,0,0,,0,,,72,127
9745,note_off,218,0,0,,0,,,72,127
9745,note_off,0,0,0,,7,,,67,127
9746,note_on,1,0,0,,12,,,59,127
9746,note_on,0,0,0,,2,,,74,127
9964,note_off,218,0,0,,2,,,74,127
9964,note_off,0,0,0,,12,,,59,127
9965,note_on,1,0,0,,0,,,60,127
9965,note_on,0,0,0,,3,,,75,127
10074,note_off,109,0,0,,3,,,75,127
10075,note_on,1,0,0,,0,,,72,127
10184,note_off,109,0,0,,0,,,72,127
10185,note_on,1,0,0,,7,,,79,127
10294,note_off,109,0,0,,7,,,79,127
10295,note_on,1,0,0,,3,,,75,127
10404,note_off,109,0,0,,3,,,75,127
10404,note_off,0,0,0,,0,,,60,127
10405,note_on,1,0,0,,0,,,60,127
10405,note_on,0,0,0,,0,,,84,127
10623,note_off,218,0,0,,0,,,84,127
10623,note_off,0,0,0,,0,,,60,127
10624,note_on,1,0,0,,11,,,58,127
10624,note_on,0,0,0,,3,,,75,127
10733,note_off,109,0,0,,3,,,75,127
10734,note_on,1,0,0,,0,,,72,127
10843,note_off,109,0,0,,0,,,72,127
10844,note_on,1,0,0,,7,,,79,127
10953,note_off,109,0,0,,7,,,79,127
10954,note_on,1,0,0,,3,,,75,127
11063,note_off,109,0,0,,3,,,75,127
11063,note_off,0,0,0,,11,,,58,127
11064,note_on,1,0,0,,11,,,58,127
11064,note_on,0,0,0,,0,,,84,127
11282,note_off,218,0,0,,0,,,84,127
11282,note_off,0,0,0,,11,,,58,127
11283,note_on,1,0,0,,8,,,56,127
11283,note_on,0,0,0,,3,,,75,127
11392,note_off,109,0,0,,3,,,75,127
11393,note_on,1,0,0,,0,,,72,127
11502,note_off,109,0,0,,0,,,72,127
11503,note_on,1,0,0,,8,,,80,127
11612,note_off,109,0,0,,8,,,80,127
11613,note_on,1,0,0,,3,,,75,127
11722,note_off,109,0,0,,3,,,75,127
11722,note_off,0,0,0,,8,,,56,127
11723,note_on,1,0,0,,8,,,56,127
11723,note_on,0,0,0,,0,,,84,127
11941,note_off,218,0,0,,0,,,84,127
11941,note_off,0,0,0,,8,,,56,127
11942,note_on,1,0,0,,7,,,55,127
11942,note_on,0,0,0,,11,,,82,127
12160,note_off,218,0,0,,11,,,82,127
12161,note_on,1,0,0,,7,,,79,127
12379,note_off,218,0,0,,7,,,79,127
12379,note_off,0,0,0,,7,,,55,127
12380,note_on,1,0,0,,7,,,55,127
12380,note_on,0,0,0,,3,,,75,127
12598,note_off,218,0,0,,3,,,75,127
12598,note_off,0,0,0,,7,,,55,127
12599,note_on,1,0,0,,5,,,53,127
12599,note_on,0,0,0,,5,,,77,127
12653,note_off,54,0,0,,5,,,77,127
12654,note_on,1,0,0,,3,,,75,127
12708,note_off,54,0,0,,3,,,75,127
12709,note_on,1,0,0,,5,,,77,127
12763,note_off,54,0,0,,5,,,77,127
12764,note_on,1,0,0,,3,,,75,127
12818,note_off,54,0,0,,3,,,75,127
12819,note_on,1,0,0,,2,,,74,127
13037,note_off,218,0,0,,2,,,74,127
13037,note_off,0,0,0,,5,,,53,127
13038,note_on,1,0,0,,3,,,51,127
13038,note_on,0,0,0,,7,,,79,127
13256,note_off,218,0,0,,3,,,51,127
13257,note_on,1,0,0,,2,,,50,127
13475,note_off,218,0,0,,7,,,79,127
13476,note_on,1,0,0,,5,,,77,127
13694,note_off,218,0,0,,5,,,77,127
13694,note_off,0,0,0,,2,,,50,127
13695,note_on,1,0,0,,2,,,50,127
13695,note_on,0,0,0,,8,,,68,127
13913,note_off,218,0,0,,8,,,68,127
13913,note_off,0,0,0,,2,,,50,127
13914,note_on,1,0,0,,3,,,51,127
13914,note_on,0,0,0,,11,,,70,127
13968,note_off,54,0,0,,11,,,70,127
13969,note_on,1,0,0,,8,,,68,127
14023,note_off,54,0,0,,8,,,68,127
14024,note_on,1,0,0,,11,,,70,127
14078,note_off,54,0,0,,11,,,70,127
14079,note_on,1,0,0,,8,,,68,127
14133,note_off,54,0,0,,8,,,68,127
14134,note_on,1,0,0,,7,,,67,127
14352,note_off,218,0,0,,7,,,67,127
14352,note_off,0,0,0,,3,,,51,127
14353,note_on,1,0,0,,3,,,51,127
14353,note_on,0,0,0,,3,,,75,127
14571,note_off,218,0,0,,3,,,75,127
14571,note_off,0,0,0,,3,,,51,127
14572,note_on,1,0,0,,3,,,51,127
14572,note_on,0,0,0,,0,,,72,127
14681,note_off,109,0,0,,0,,,72,127
14682,note_on,1,0,0,,10,,,69,127
14791,note_off,109,0,0,,10,,,69,127
14792,note_on,1,0,0,,3,,,75,127
14901,note_off,109,0,0,,3,,,75,127
14902,note_on,1,0,0,,0,,,72,127
15011,note_off,109,0,0,,0,,,72,127
15011,note_off,0,0,0,,3,,,51,127
15012,note_on,1,0,0,,3,,,51,127
15012,note_on,0,0,0,,7,,,79,127
15230,note_off,218,0,0,,7,,,79,127
15230,note_off,0,0,0,,3,,,51,127
15231,note_on,1,0,0,,2,,,50,127
15231,note_on,0,0,0,,5,,,77,127
15449,note_off,218,0,0,,5,,,77,127
15450,note_on,1,0,0,,2,,,74,127
15668,note_off,218,0,0,,2,,,74,127
15668,note_off,0,0,0,,2,,,50,127
15669,note_on,1,0,0,,3,,,51,127
15669,note_on,0,0,0,,11,,,70,127
15887,note_off,218,0,0,,11,,,70,127
15887,note_off,0,0,0,,3,,,51,127
15888,note_on,1,0,0,,5,,,53,127
15888,note_on,0,0,0,,10,,,69,127
15997,note_off,109,0,0,,10,,,69,127
15998,note_on,1,0,0,,5,,,65,127
16107,note_off,109,0,0,,5,,,65,127
16108,note_on,1,0,0,,0,,,72,127
16217,note_off,109,0,0,,0,,,72,127
16218,note_on,1,0,0,,10,,,69,127
16327,note_off,109,0,0,,10,,,69,127
16328,note_on,1,0,0,,5,,,41,127
16328,note_on,0,0,0,,3,,,75,127
16546,note_off,218,0,0,,3,,,75,127
16546,note_off,0,0,0,,5,,,41,127
16546,note_off,0,0,0,,5,,,53,127
16547,note_on,1,0,0,,11,,,46,127
16547,note_on,0,0,0,,2,,,74,127
16765,note_off,218,0,0,,2,,,74,127
16766,note_on,1,0,0,,11,,,70,127
16984,note_off,218,0,0,,11,,,70,127
16985,note_on,1,0,0,,5,,,65,127
17095,note_off,110,0,0,,11,,,46,127
17204,note_off,109,0,0,,5,,,65,127
17205,note_on,1,0,0,,11,,,58,127
17205,note_on,0,0,0,,2,,,74,127
17259,note_off,54,0,0,,2,,,74,127
17260,note_on,1,0,0,,0,,,72,127
17314,note_off,54,0,0,,0,,,72,127
17315,note_on,1,0,0,,11,,,70,127
17424,note_off,109,0,0,,11,,,70,127
17425,note_on,1,0,0,,10,,,69,127
17479,note_off,54,0,0,,10,,,69,127
17480,note_on,1,0,0,,7,,,67,127
17534,note_off,54,0,0,,7,,,67,127
17535,note_on,1,0,0,,5,,,65,127
17644,note_off,109,0,0,,5,,,65,127
17645,note_on,1,0,0,,4,,,64,127
17863,note_off,218,0,0,,4,,,64,127
17863,note_off,0,0,0,,11,,,58,127
17864,note_on,1,0,0,,11,,,58,127
17864,note_on,0,0,0,,7,,,67,127
17918,note_off,54,0,0,,7,,,67,127
17919,note_on,1,0,0,,5,,,65,127
17973,note_off,54,0,0,,5,,,65,127
17974,note_on,1,0,0,,7,,,67,127
18028,note_off,54,0,0,,7,,,67,127
18029,note_on,1,0,0,,5,,,65,127
18083,note_off,54,0,0,,5,,,65,127
18083,note_off,0,0,0,,11,,,58,127
18084,note_on,1,0,0,,10,,,57,127
18084,note_on,0,0,0,,4,,,64,127
18302,note_off,218,0,0,,4,,,64,127
18303,note_on,1,0,0,,5,,,65,127
18521,note_off,218,0,0,,5,,,65,127
18521,note_off,0,0,0,,10,,,57,127
18522,note_on,1,0,0,,5,,,53,127
18522,note_on,0,0,0,,10,,,81,127
18576,note_off,54,0,0,,10,,,81,127
18577,note_on,1,0,0,,7,,,79,127
18631,note_off,54,0,0,,7,,,79,127
18632,note_on,1,0,0,,5,,,77,127
18741,note_off,109,0,0,,5,,,77,127
18742,note_on,1,0,0,,4,,,76,127
18796,note_off,54,0,0,,4,,,76,127
18797,note_on,1,0,0,,2,,,74,127
18851,note_off,54,0,0,,2,,,74,127
18852,note_on,1,0,0,,0,,,72,127
18961,note_off,109,0,0,,0,,,72,127
18962,note_on,1,0,0,,12,,,71,127
19180,note_off,218,0,0,,12,,,71,127
19180,note_off,0,0,0,,5,,,53,127
19181,note_on,1,0,0,,4,,,52,127
19181,note_on,0,0,0,,2,,,74,127
19235,note_off,54,0,0,,2,,,74,127
19236,note_on,1,0,0,,0,,,72,127
19290,note_off,54,0,0,,0,,,72,127
19291,note_on,1,0,0,,2,,,74,127
19345,note_off,54,0,0,,2,,,74,127
19346,note_on,1,0,0,,0,,,72,127
19400,note_off,54,0,0,,0,,,72,127
19401,note_on,1,0,0,,12,,,71,127
19619,note_off,218,0,0,,12,,,71,127
19620,note_on,1,0,0,,0,,,72,127
19838,note_off,218,0,0,,0,,,72,127
19838,note_off,0,0,0,,4,,,52,127
19839,note_on,1,0,0,,4,,,52,127
19949,note_on,110,0,0,,7,,,79,127
20003,note_off,54,0,0,,7,,,79,127
20004,note_on,1,0,0,,5,,,77,127
20058,note_off,54,0,0,,5,,,77,127
20059,note_on,1,0,0,,4,,,76,127
20113,note_off,54,0,0,,4,,,76,127
20114,note_on,1,0,0,,2,,,74,127
20168,note_off,54,0,0,,2,,,74,127
20169,note_on,1,0,0,,0,,,72,127
20278,note_off,109,0,0,,0,,,72,127
20279,note_on,1,0,0,,11,,,70,127
20497,note_off,218,0,0,,11,,,70,127
20497,note_off,0,0,0,,4,,,52,127
20498,note_on,1,0,0,,5,,,53,127
20608,note_on,110,0,0,,5,,,77,127
20662,note_off,54,0,0,,5,,,77,127
20663,note_on,1,0,0,,4,,,76,127
20717,note_off,54,0,0,,4,,,76,127
20718,note_on,1,0,0,,2,,,74,127
20772,note_off,54,0,0,,2,,,74,127
20773,note_on,1,0,0,,0,,,72,127
20827,note_off,54,0,0,,0,,,72,127
20828,note_on,1,0,0,,11,,,70,127
20937,note_off,109,0,0,,11,,,70,127
20938,note_on,1,0,0,,10,,,69,127
21156,note_off,218,0,0,,10,,,69,127
21156,note_off,0,0,0,,5,,,53,127
21157,note_on,1,0,0,,11,,,46,127
21267,note_on,110,0,0,,2,,,74,127
21321,note_off,54,0,0,,2,,,74,127
21322,note_on,1,0,0,,0,,,72,127
21376,note_off,54,0,0,,0,,,72,127
21377,note_on,1,0,0,,11,,,70,127
21431,note_off,54,0,0,,11,,,70,127
21432,note_on,1,0,0,,10,,,69,127
21486,note_off,54,0,0,,10,,,69,127
21487,note_on,1,0,0,,7,,,67,127
21596,note_off,109,0,0,,7,,,67,127
21597,note_on,1,0,0,,5,,,65,127
21815,note_off,218,0,0,,5,,,65,127
21815,note_off,0,0,0,,11,,,46,127
21816,note_on,1,0,0,,0,,,48,127
21816,note_on,0,0,0,,5,,,65,127
21870,note_off,54,0,0,,5,,,65,127
21871,note_on,1,0,0,,4,,,64,127
21925,note_off,54,0,0,,4,,,64,127
21926,note_on,1,0,0,,5,,,65,127
21980,note_off,54,0,0,,5,,,65,127
21981,note_on,1,0,0,,4,,,64,127
22035,note_off,54,0,0,,4,,,64,127
22036,note_on,1,0,0,,5,,,65,127
22090,note_off,54,0,0,,5,,,65,127
22091,note_on,1,0,0,,4,,,64,127
22145,note_off,54,0,0,,4,,,64,127
22146,note_on,1,0,0,,2,,,62,127
22255,note_off,109,0,0,,2,,,62,127
22256,note_on,1,0,0,,0,,,60,127
22474,note_off,218,0,0,,0,,,60,127
22474,note_off,0,0,0,,0,,,48,127
22475,note_on,1,0,0,,0,,,36,127
22475,note_on,0,0,0,,4,,,64,127
22584,note_off,109,0,0,,4,,,64,127
22585,note_on,1,0,0,,5,,,65,127
22694,note_off,109,0,0,,5,,,65,127
22695,note_on,1,0,0,,7,,,67,127
22804,note_off,109,0,0,,7,,,67,127
22805,note_on,1,0,0,,4,,,64,127
22914,note_off,109,0,0,,4,,,64,127
22915,note_on,1,0,0,,10,,,69,127
23024,note_off,109,0,0,,10,,,69,127
23025,note_on,1,0,0,,5,,,65,127
23134,note_off,109,0,0,,5,,,65,127
23134,note_off,0,0,0,,0,,,36,127
23135,note_on,1,0,0,,0,,,36,127
23135,note_on,0,0,0,,11,,,70,127
23244,note_off,109,0,0,,11,,,70,127
23245,note_on,1,0,0,,7,,,67,127
23354,note_off,109,0,0,,7,,,67,127
23355,note_on,1,0,0,,12,,,71,127
23464,note_off,109,0,0,,12,,,71,127
23465,note_on,1,0,0,,7,,,67,127
23574,note_off,109,0,0,,7,,,67,127
23575,note_on,1,0,0,,0,,,72,127
23684,note_off,109,0,0,,0,,,72,127
23685,note_on,1,0,0,,10,,,69,127
23794,note_off,109,0,0,,10,,,69,127
23794,note_off,0,0,0,,0,,,36,127
23795,note_on,1,0,0,,0,,,36,127
23795,note_on,0,0,0,,2,,,74,127
23904,note_off,109,0,0,,2,,,74,127
23905,note_on,1,0,0,,12,,,71,127
24014,note_off,109,0,0,,12,,,71,127
24015,note_on,1,0,0,,4,,,76,127
24124,note_off,109,0,0,,4,,,76,127
24125,note_on,1,0,0,,0,,,72,127
24234,note_off,109,0,0,,0,,,72,127
24235,note_on,1,0,0,,5,,,77,127
24344,note_off,109,0,0,,5,,,77,127
24345,note_on,1,0,0,,2,,,74,127
24454,note_off,109,0,0,,2,,,74,127
24454,note_off,0,0,0,,0,,,36,127
24455,note_on,1,0,0,,0,,,36,127
24455,note_on,0,0,0,,7,,,79,127
24673,note_off,218,0,0,,7,,,79,127
24674,note_on,1,0,0,,7,,,79,127
24728,note_off,54,0,0,,7,,,79,127
24729,note_on,1,0,0,,5,,,77,127
24783,note_off,54,0,0,,5,,,77,127
24784,note_on,1,0,0,,4,,,76,127
24838,note_off,54,0,0,,4,,,76,127
24839,note_on,1,0,0,,5,,,77,127
24893,note_off,54,0,0,,5,,,77,127
24894,note_on,1,0,0,,7,,,79,127
25112,note_off,218,0,0,,7,,,79,127
25112,note_off,0,0,0,,0,,,36,127
25113,note_on,1,0,0,,0,,,36,127
25113,note_on,0,0,0,,4,,,64,127
25222,note_off,109,0,0,,4,,,64,127
25223,note_on,1,0,0,,5,,,65,127
25332,note_off,109,0,0,,5,,,65,127
25333,note_on,1,0,0,,7,,,67,127
25442,note_off,109,0,0,,7,,,67,127
25443,note_on,1,0,0,,4,,,64,127
25552,note_off,109,0,0,,4,,,64,127
25553,note_on,1,0,0,,10,,,69,127
25662,note_off,109,0,0,,10,,,69,127
25663,note_on,1,0,0,,5,,,65,127
25772,note_off,109,0,0,,5,,,65,127
25772,note_off,0,0,0,,0,,,36,127
25773,note_on,1,0,0,,0,,,36,127
25773,note_on,0,0,0,,11,,,70,127
25882,note_off,109,0,0,,11,,,70,127
25883,note_on,1,0,0,,7,,,67,127
25992,note_off,109,0,0,,7,,,67,127
25993,note_on,1,0,0,,0,,,72,127
26102,note_off,109,0,0,,0,,,72,127
26103,note_on,1,0,0,,10,,,69,127
26212,note_off,109,0,0,,10,,,69,127
26213,note_on,1,0,0,,2,,,74,127
26322,note_off,109,0,0,,2,,,74,127
26323,note_on,1,0,0,,11,,,70,127
26432,note_off,109,0,0,,11,,,70,127
26432,note_off,0,0,0,,0,,,36,127
26433,note_on,1,0,0,,0,,,36,127
26433,note_on,0,0,0,,4,,,76,127
26542,note_off,109,0,0,,4,,,76,127
26543,note_on,1,0,0,,0,,,72,127
26652,note_off,109,0,0,,0,,,72,127
26653,note_on,1,0,0,,5,,,77,127
26762,note_off,109,0,0,,5,,,77,127
26763,note_on,1,0,0,,2,,,74,127
26872,note_off,109,0,0,,2,,,74,127
26873,note_on,1,0,0,,7,,,79,127
26982,note_off,109,0,0,,7,,,79,127
26983,note_on,1,0,0,,4,,,76,127
27092,note_off,109,0,0,,4,,,76,127
27092,note_off,0,0,0,,0,,,36,127
27093,note_on,1,0,0,,5,,,41,127
27093,note_on,0,0,0,,10,,,81,127
27311,note_off,218,0,0,,10,,,81,127
27312,note_on,1,0,0,,10,,,81,127
27366,note_off,54,0,0,,10,,,81,127
27367,note_on,1,0,0,,7,,,79,127
27421,note_off,54,0,0,,7,,,79,127
27422,note_on,1,0,0,,5,,,77,127
27476,note_off,54,0,0,,5,,,77,127
27477,note_on,1,0,0,,7,,,79,127
27531,note_off,54,0,0,,7,,,79,127
27532,note_on,1,0,0,,10,,,81,127
27750,note_off,218,0,0,,10,,,81,127
27750,note_off,0,0,0,,5,,,41,127
27751,note_on,1,0,0,,5,,,53,127
27860,note_off,109,0,0,,5,,,53,127
27861,note_on,1,0,0,,7,,,55,127
27970,note_off,109,0,0,,7,,,55,127
27971,note_on,1,0,0,,10,,,57,127
27971,note_on,0,0,0,,0,,,72,127
28080,note_off,109,0,0,,10,,,57,127
28081,note_on,1,0,0,,5,,,53,127
28190,note_off,109,0,0,,5,,,53,127
28190,note_off,0,0,0,,0,,,72,127
28191,note_on,1,0,0,,11,,,58,127
28191,note_on,0,0,0,,2,,,74,127
28300,note_off,109,0,0,,11,,,58,127
28301,note_on,1,0,0,,7,,,55,127
28410,note_off,109,0,0,,7,,,55,127
28410,note_off,0,0,0,,2,,,74,127
28411,note_on,1,0,0,,0,,,60,127
28411,note_on,0,0,0,,4,,,76,127
28520,note_off,109,0,0,,0,,,60,127
28521,note_on,1,0,0,,10,,,57,127
28630,note_off,109,0,0,,10,,,57,127
28630,note_off,0,0,0,,4,,,76,127
28631,note_on,1,0,0,,2,,,62,127
28631,note_on,0,0,0,,5,,,77,127
28740,note_off,109,0,0,,2,,,62,127
28741,note_on,1,0,0,,11,,,58,127
28850,note_off,109,0,0,,11,,,58,127
28850,note_off,0,0,0,,5,,,77,127
28851,note_on,1,0,0,,4,,,64,127
28851,note_on,0,0,0,,7,,,79,127
28960,note_off,109,0,0,,4,,,64,127
28961,note_on,1,0,0,,0,,,60,127
29070,note_off,109,0,0,,0,,,60,127
29070,note_off,0,0,0,,7,,,79,127
29071,note_on,1,0,0,,5,,,65,127
29071,note_on,0,0,0,,10,,,81,127
29180,note_off,109,0,0,,5,,,65,127
29181,note_on,1,0,0,,0,,,60,127
29290,note_off,109,0,0,,0,,,60,127
29291,note_on,1,0,0,,10,,,57,127
29400,note_off,109,0,0,,10,,,57,127
29400,note_off,0,0,0,,10,,,81,127
29401,note_on,1,0,0,,5,,,53,127
29401,note_on,0,0,0,,5,,,77,127
29510,note_off,109,0,0,,5,,,77,127
29510,note_off,0,0,0,,5,,,53,127
29511,note_on,1,0,0,,0,,,48,127
29511,note_on,0,0,0,,7,,,79,127
29694,note_off,183,0,0,,7,,,79,127
29729,note_off,35,0,0,,0,,,48,127
29730,note_on,1,0,0,,5,,,65,127
29730,note_on,0,0,0,,10,,,81,127
29839,note_off,109,0,0,,5,,,65,127
29840,note_on,1,0,0,,0,,,60,127
29949,note_off,109,0,0,,0,,,60,127
29950,note_on,1,0,0,,10,,,57,127
30059,note_off,109,0,0,,10,,,57,127
30059,note_off,0,0,0,,10,,,81,127
30060,note_on,1,0,0,,5,,,53,127
30060,note_on,0,0,0,,5,,,77,127
30169,note_off,109,0,0,,5,,,77,127
30169,note_off,0,0,0,,5,,,53,127
30170,note_on,1,0,0,,0,,,48,127
30170,note_on,0,0,0,,7,,,79,127
30364,note_off,194,0,0,,7,,,79,127
30388,note_off,24,0,0,,0,,,48,127
30389,note_on,1,0,0,,5,,,53,127
30389,note_on,0,0,0,,10,,,81,127
30498,note_off,109,0,0,,10,,,81,127
30499,note_on,1,0,0,,5,,,77,127
30608,note_off,109,0,0,,5,,,77,127
30608,note_off,0,0,0,,5,,,53,127
30609,note_on,1,0,0,,7,,,55,127
30609,note_on,0,0,0,,10,,,81,127
30718,note_off,109,0,0,,10,,,81,127
30719,note_on,1,0,0,,11,,,82,127
30828,note_off,109,0,0,,11,,,82,127
30828,note_off,0,0,0,,7,,,55,127
30829,note_on,1,0,0,,10,,,57,127
30829,note_on,0,0,0,,0,,,84,127
30938,note_off,109,0,0,,0,,,84,127
30939,note_on,1,0,0,,11,,,82,127
31048,note_off,109,0,0,,11,,,82,127
31048,note_off,0,0,0,,10,,,57,127
31049,note_on,1,0,0,,11,,,58,127
31049,note_on,0,0,0,,10,,,81,127
31158,note_off,109,0,0,,10,,,81,127
31159,note_on,1,0,0,,7,,,79,127
31268,note_off,109,0,0,,7,,,79,127
31268,note_off,0,0,0,,11,,,58,127
31269,note_on,1,0,0,,0,,,60,127
31269,note_on,0,0,0,,10,,,81,127
31488,note_on,219,0,0,,0,,,48,127
31541,note_off,53,0,0,,10,,,81,127
31543,note_on,2,0,0,,7,,,79,127
31597,note_off,54,0,0,,7,,,79,127
31598,note_on,1,0,0,,10,,,81,127
31652,note_off,54,0,0,,10,,,81,127
31653,note_on,1,0,0,,7,,,79,127
31707,note_off,54,0,0,,7,,,79,127
31707,note_off,0,0,0,,0,,,48,127
31707,note_off,0,0,0,,0,,,60,127
31708,note_on,1,0,0,,5,,,53,127
31708,note_on,0,0,0,,5,,,77,127
31926,note_off,218,0,0,,5,,,53,127
31927,note_on,1,0,0,,4,,,52,127
32145,note_off,218,0,0,,4,,,52,127
32146,note_on,1,0,0,,2,,,50,127
32256,note_off,110,0,0,,5,,,77,127
32365,note_off,109,0,0,,2,,,50,127
32366,note_on,1,0,0,,0,,,36,127
32366,note_on,0,0,0,,4,,,64,127
32475,note_off,109,0,0,,4,,,64,127
32476,note_on,1,0,0,,5,,,65,127
32585,note_off,109,0,0,,5,,,65,127
32586,note_on,1,0,0,,7,,,67,127
32695,note_off,109,0,0,,7,,,67,127
32696,note_on,1,0,0,,4,,,64,127
32805,note_off,109,0,0,,4,,,64,127
32806,note_on,1,0,0,,10,,,69,127
32915,note_off,109,0,0,,10,,,69,127
32916,note_on,1,0,0,,5,,,65,127
33025,note_off,109,0,0,,5,,,65,127
33025,note_off,0,0,0,,0,,,36,127
33026,note_on,1,0,0,,0,,,36,127
33026,note_on,0,0,0,,11,,,70,127
33135,note_off,109,0,0,,11,,,70,127
33136,note_on,1,0,0,,7,,,67,127
33245,note_off,109,0,0,,7,,,67,127
33246,note_on,1,0,0,,12,,,71,127
33355,note_off,109,0,0,,12,,,71,127
33356,note_on,1,0,0,,7,,,67,127
33465,note_off,109,0,0,,7,,,67,127
33466,note_on,1,0,0,,0,,,72,127
33575,note_off,109,0,0,,0,,,72,127
33576,note_on,1,0,0,,10,,,69,127
33685,note_off,109,0,0,,10,,,69,127
33685,note_off,0,0,0,,0,,,36,127
33686,note_on,1,0,0,,0,,,36,127
33686,note_on,0,0,0,,2,,,74,127
33795,note_off,109,0,0,,2,,,74,127
33796,note_on,1,0,0,,12,,,71,127
33905,note_off,109,0,0,,12,,,71,127
33906,note_on,1,0,0,,4,,,76,127
34015,note_off,109,0,0,,4,,,76,127
34016,note_on,1,0,0,,0,,,72,127
34125,note_off,109,0,0,,0,,,72,127
34126,note_on,1,0,0,,5,,,77,127
34235,note_off,109,0,0,,5,,,77,127
34236,note_on,1,0,0,,2,,,74,127
34345,note_off,109,0,0,,2,,,74,127
34345,note_off,0,0,0,,0,,,36,127
34346,note_on,1,0,0,,0,,,36,127
34346,note_on,0,0,0,,7,,,79,127
34564,note_off,218,0,0,,7,,,79,127
34565,note_on,1,0,0,,7,,,79,127
34619,note_off,54,0,0,,7,,,79,127
34620,note_on,1,0,0,,5,,,77,127
34674,note_off,54,0,0,,5,,,77,127
34675,note_on,1,0,0,,4,,,76,127
34729,note_off,54,0,0,,4,,,76,127
34730,note_on,1,0,0,,5,,,77,127
34784,note_off,54,0,0,,5,,,77,127
34785,note_on,1,0,0,,7,,,79,127
35003,note_off,218,0,0,,7,,,79,127
35003,note_off,0,0,0,,0,,,36,127
35004,note_on,1,0,0,,0,,,36,127
35004,note_on,0,0,0,,4,,,64,127
35113,note_off,109,0,0,,4,,,64,127
35114,note_on,1,0,0,,5,,,65,127
35223,note_off,109,0,0,,5,,,65,127
35224,note_on,1,0,0,,7,,,67,127
35333,note_off,109,0,0,,7,,,67,127
35334,note_on,1,0,0,,4,,,64,127
35443,note_off,109,0,0,,4,,,64,127
35444,note_on,1,0,0,,10,,,69,127
35553,note_off,109,0,0,,10,,,69,127
35554,note_on,1,0,0,,5,,,65,127
35663,note_off,109,0,0,,5,,,65,127
35663,note_off,0,0,0,,0,,,36,127
35664,note_on,1,0,0,,0,,,36,127
35664,note_on,0,0,0,,11,,,70,127
35773,note_off,109,0,0,,11,,,70,127
35774,note_on,1,0,0,,7,,,67,127
35883,note_off,109,0,0,,7,,,67,127
35884,note_on,1,0,0,,0,,,72,127
35993,note_off,109,0,0,,0,,,72,127
35994,note_on,1,0,0,,10,,,69,127
36103,note_off,109,0,0,,10,,,69,127
36104,note_on,1,0,0,,2,,,74,127
36213,note_off,109,0,0,,2,,,74,127
36214,note_on,1,0,0,,11,,,70,127
36323,note_off,109,0,0,,11,,,70,127
36323,note_off,0,0,0,,0,,,36,127
36324,note_on,1,0,0,,0,,,36,127
36324,note_on,0,0,0,,4,,,76,127
36433,note_off,109,0,0,,4,,,76,127
36434,note_on,1,0,0,,0,,,72,127
36543,note_off,109,0,0,,0,,,72,127
36544,note_on,1,0,0,,5,,,77,127
36653,note_off,109,0,0,,5,,,77,127
36654,note_on,1,0,0,,2,,,74,127
36763,note_off,109,0,0,,2,,,74,127
36764,note_on,1,0,0,,7,,,79,127
36873,note_off,109,0,0,,7,,,79,127
36874,note_on,1,0,0,,4,,,76,127
36983,note_off,109,0,0,,4,,,76,127
36983,note_off,0,0,0,,0,,,36,127
36984,note_on,1,0,0,,5,,,41,127
36984,note_on,0,0,0,,10,,,81,127
37202,note_off,218,0,0,,10,,,81,127
37203,note_on,1,0,0,,10,,,81,127
37257,note_off,54,0,0,,10,,,81,127
37258,note_on,1,0,0,,7,,,79,127
37312,note_off,54,0,0,,7,,,79,127
37313,note_on,1,0,0,,5,,,77,127
37367,note_off,54,0,0,,5,,,77,127
37368,note_on,1,0,0,,7,,,79,127
37422,note_off,54,0,0,,7,,,79,127
37423,note_on,1,0,0,,10,,,81,127
37641,note_off,218,0,0,,10,,,81,127
37641,note_off,0,0,0,,5,,,41,127
37642,note_on,1,0,0,,5,,,53,127
37751,note_off,109,0,0,,5,,,53,127
37752,note_on,1,0,0,,7,,,55,127
37861,note_off,109,0,0,,7,,,55,127
37862,note_on,1,0,0,,10,,,57,127
37862,note_on,0,0,0,,0,,,72,127
37971,note_off,109,0,0,,10,,,57,127
37972,note_on,1,0,0,,5,,,53,127
38081,note_off,109,0,0,,5,,,53,127
38081,note_off,0,0,0,,0,,,72,127
38082,note_on,1,0,0,,11,,,58,127
38082,note_on,0,0,0,,2,,,74,127
38191,note_off,109,0,0,,11,,,58,127
38192,note_on,1,0,0,,7,,,55,127
38301,note_off,109,0,0,,7,,,55,127
38301,note_off,0,0,0,,2,,,74,127
38302,note_on,1,0,0,,0,,,60,127
38302,note_on,0,0,0,,4,,,76,127
38411,note_off,109,0,0,,0,,,60,127
38412,note_on,1,0,0,,10,,,57,127
38521,note_off,109,0,0,,10,,,57,127
38521,note_off,0,0,0,,4,,,76,127
38522,note_on,1,0,0,,2,,,62,127
38522,note_on,0,0,0,,5,,,77,127
38631,note_off,109,0,0,,2,,,62,127
38632,note_on,1,0,0,,11,,,58,127
38741,note_off,109,0,0,,11,,,58,127
38741,note_off,0,0,0,,5,,,77,127
38742,note_on,1,0,0,,4,,,64,127
38742,note_on,0,0,0,,7,,,79,127
38851,note_off,109,0,0,,4,,,64,127
38852,note_on,1,0,0,,0,,,60,127
38961,note_off,109,0,0,,0,,,60,127
38961,note_off,0,0,0,,7,,,79,127
38962,note_on,1,0,0,,5,,,65,127
38962,note_on,0,0,0,,10,,,81,127
39071,note_off,109,0,0,,5,,,65,127
39072,note_on,1,0,0,,0,,,60,127
39181,note_off,109,0,0,,0,,,60,127
39182,note_on,1,0,0,,10,,,57,127
39291,note_off,109,0,0,,10,,,57,127
39291,note_off,0,0,0,,10,,,81,127
39292,note_on,1,0,0,,5,,,53,127
39292,note_on,0,0,0,,5,,,77,127
39401,note_off,109,0,0,,5,,,77,127
39401,note_off,0,0,0,,5,,,53,127
39402,note_on,1,0,0,,0,,,48,127
39402,note_on,0,0,0,,7,,,79,127
39596,note_off,194,0,0,,7,,,79,127
39620,note_off,24,0,0,,0,,,48,127
39621,note_on,1,0,0,,5,,,65,127
39621,note_on,0,0,0,,10,,,81,127
39730,note_off,109,0,0,,5,,,65,127
39731,note_on,1,0,0,,0,,,60,127
39840,note_off,109,0,0,,0,,,60,127
39841,note_on,1,0,0,,10,,,57,127
39950,note_off,109,0,0,,10,,,57,127
39950,note_off,0,0,0,,10,,,81,127
39951,note_on,1,0,0,,5,,,53,127
39951,note_on,0,0,0,,5,,,77,127
40060,note_off,109,0,0,,5,,,77,127
40060,note_off,0,0,0,,5,,,53,127
40061,note_on,1,0,0,,0,,,48,127
40061,note_on,0,0,0,,7,,,79,127
40261,note_off,200,0,0,,7,,,79,127
40279,note_off,18,0,0,,0,,,48,127
40280,note_on,1,0,0,,5,,,53,127
40280,note_on,0,0,0,,10,,,81,127
40389,note_off,109,0,0,,10,,,81,127
40390,note_on,1,0,0,,5,,,77,127
40499,note_off,109,0,0,,5,,,77,127
40499,note_off,0,0,0,,5,,,53,127
40500,note_on,1,0,0,,7,,,55,127
40500,note_on,0,0,0,,10,,,81,127
40609,note_off,109,0,0,,10,,,81,127
40610,note_on,1,0,0,,11,,,82,127
40719,note_off,109,0,0,,11,,,82,127
40719,note_off,0,0,0,,7,,,55,127
40720,note_on,1,0,0,,10,,,57,127
40720,note_on,0,0,0,,0,,,84,127
40829,note_off,109,0,0,,0,,,84,127
40830,note_on,1,0,0,,11,,,82,127
40939,note_off,109,0,0,,11,,,82,127
40939,note_off,0,0,0,,10,,,57,127
40940,note_on,1,0,0,,11,,,58,127
40940,note_on,0,0,0,,10,,,81,127
41049,note_off,109,0,0,,10,,,81,127
41050,note_on,1,0,0,,7,,,79,127
41159,note_off,109,0,0,,7,,,79,127
41159,note_off,0,0,0,,11,,,58,127
41160,note_on,1,0,0,,0,,,60,127
41160,note_on,0,0,0,,10,,,81,127
41379,note_on,219,0,0,,0,,,48,127
41432,note_off,53,0,0,,10,,,81,127
41434,note_on,2,0,0,,7,,,79,127
41488,note_off,54,0,0,,7,,,79,127
41489,note_on,1,0,0,,10,,,81,127
41543,note_off,54,0,0,,10,,,81,127
41544,note_on,1,0,0,,7,,,79,127
41598,note_off,54,0,0,,7,,,79,127
41598,note_off,0,0,0,,0,,,48,127
41598,note_off,0,0,0,,0,,,60,127
41599,note_on,1,0,0,,5,,,65,127
41599,note_on,0,0,0,,5,,,77,127
41708,note_off,109,0,0,,5,,,65,127
41709,note_on,1,0,0,,0,,,60,127
41818,note_off,109,0,0,,0,,,60,127
41818,note_off,0,0,0,,5,,,77,127
41819,note_on,1,0,0,,10,,,57,127
41928,note_off,109,0,0,,10,,,57,127
41929,note_on,1,0,0,,5,,,53,127
41929,note_on,0,0,0,,10,,,81,127
42038,note_off,109,0,0,,5,,,53,127
42039,note_on,1,0,0,,0,,,48,127
42093,note_off,54,0,0,,10,,,81,127
42094,note_on,1,0,0,,7,,,79,127
42148,note_off,54,0,0,,7,,,79,127
42149,note_on,1,0,0,,10,,,81,127
42203,note_off,54,0,0,,10,,,81,127
42204,note_on,1,0,0,,7,,,79,127
42258,note_off,54,0,0,,0,,,48,127
42259,note_on,1,0,0,,5,,,65,127
42313,note_off,54,0,0,,7,,,79,127
42368,note_off,55,0,0,,5,,,65,127
42369,note_on,1,0,0,,0,,,60,127
42478,note_off,109,0,0,,0,,,60,127
42479,note_on,1,0,0,,10,,,57,127
42588,note_off,109,0,0,,10,,,57,127
42589,note_on,1,0,0,,5,,,53,127
42589,note_on,0,0,0,,10,,,81,127
42698,note_off,109,0,0,,5,,,53,127
42699,note_on,1,0,0,,0,,,48,127
42753,note_off,54,0,0,,10,,,81,127
42754,note_on,1,0,0,,7,,,79,127
42808,note_off,54,0,0,,7,,,79,127
42809,note_on,1,0,0,,10,,,81,127
42863,note_off,54,0,0,,10,,,81,127
42864,note_on,1,0,0,,7,,,79,127
42918,note_off,54,0,0,,7,,,79,127
42918,note_off,0,0,0,,0,,,48,127
42919,note_on,1,0,0,,5,,,53,127
42919,note_on,0,0,0,,10,,,81,127
43028,note_off,109,0,0,,10,,,81,127
43029,note_on,1,0,0,,0,,,84,127
43138,note_off,109,0,0,,0,,,84,127
43138,note_off,0,0,0,,5,,,53,127
43139,note_on,1,0,0,,7,,,55,127
43139,note_on,0,0,0,,5,,,77,127
43248,note_off,109,0,0,,5,,,77,127
43249,note_on,1,0,0,,4,,,76,127
43358,note_off,109,0,0,,4,,,76,127
43358,note_off,0,0,0,,7,,,55,127
43359,note_on,1,0,0,,10,,,57,127
43359,note_on,0,0,0,,5,,,77,127
43468,note_off,109,0,0,,5,,,77,127
43469,note_on,1,0,0,,0,,,72,127
43578,note_off,109,0,0,,0,,,72,127
43578,note_off,0,0,0,,10,,,57,127
43579,note_on,1,0,0,,11,,,58,127
43579,note_on,0,0,0,,2,,,74,127
43688,note_off,109,0,0,,2,,,74,127
43689,note_on,1,0,0,,11,,,70,127
43798,note_off,109,0,0,,11,,,70,127
43798,note_off,0,0,0,,11,,,58,127
43799,note_on,1,0,0,,0,,,60,127
43799,note_on,0,0,0,,10,,,69,127
44018,note_on,219,0,0,,0,,,48,127
44071,note_off,53,0,0,,10,,,69,127
44073,note_on,2,0,0,,7,,,67,127
44127,note_off,54,0,0,,7,,,67,127
44128,note_on,1,0,0,,10,,,69,127
44182,note_off,54,0,0,,10,,,69,127
44183,note_on,1,0,0,,7,,,67,127
44237,note_off,54,0,0,,7,,,67,127
44237,note_off,0,0,0,,0,,,48,127
44237,note_off,0,0,0,,0,,,60,127
44238,note_on,1,0,0,,5,,,53,127
44238,note_on,0,0,0,,10,,,81,127
44347,note_off,109,0,0,,10,,,81,127
44348,note_on,1,0,0,,0,,,84,127
44457,note_off,109,0,0,,0,,,84,127
44457,note_off,0,0,0,,5,,,53,127
44458,note_on,1,0,0,,7,,,55,127
44458,note_on,0,0,0,,5,,,77,127
44567,note_off,109,0,0,,5,,,77,127
44568,note_on,1,0,0,,4,,,76,127
44677,note_off,109,0,0,,4,,,76,127
44677,note_off,0,0,0,,7,,,55,127
44678,note_on,1,0,0,,10,,,57,127
44678,note_on,0,0,0,,5,,,77,127
44787,note_off,109,0,0,,5,,,77,127
44788,note_on,1,0,0,,0,,,72,127
44897,note_off,109,0,0,,0,,,72,127
44897,note_off,0,0,0,,10,,,57,127
44898,note_on,1,0,0,,11,,,58,127
44898,note_on,0,0,0,,2,,,74,127
45007,note_off,109,0,0,,2,,,74,127
45008,note_on,1,0,0,,11,,,70,127
45117,note_off,109,0,0,,11,,,70,127
45117,note_off,0,0,0,,11,,,58,127
45118,note_on,1,0,0,,0,,,60,127
45118,note_on,0,0,0,,10,,,69,127
45337,note_on,219,0,0,,0,,,48,127
45390,note_off,53,0,0,,10,,,69,127
45392,note_on,2,0,0,,7,,,67,127
45446,note_off,54,0,0,,7,,,67,127
45447,note_on,1,0,0,,10,,,69,127
45501,note_off,54,0,0,,10,,,69,127
45502,note_on,1,0,0,,7,,,67,127
45556,note_off,54,0,0,,7,,,67,127
45556,note_off,0,0,0,,0,,,48,127
45556,note_off,0,0,0,,0,,,60,127
45557,note_on,1,0,0,,5,,,53,127
45557,note_on,0,0,0,,10,,,81,127
45666,note_off,109,0,0,,10,,,81,127
45667,note_on,1,0,0,,0,,,84,127
45776,note_off,109,0,0,,0,,,84,127
45776,note_off,0,0,0,,5,,,53,127
45777,note_on,1,0,0,,7,,,55,127
45777,note_on,0,0,0,,5,,,77,127
45886,note_off,109,0,0,,5,,,77,127
45887,note_on,1,0,0,,4,,,76,127
45996,note_off,109,0,0,,4,,,76,127
45996,note_off,0,0,0,,7,,,55,127
45997,note_on,1,0,0,,10,,,57,127
45997,note_on,0,0,0,,5,,,77,127
46106,note_off,109,0,0,,5,,,77,127
46107,note_on,1,0,0,,0,,,72,127
46216,note_off,109,0,0,,0,,,72,127
46216,note_off,0,0,0,,10,,,57,127
46217,note_on,1,0,0,,11,,,58,127
46217,note_on,0,0,0,,2,,,74,127
46326,note_off,109,0,0,,2,,,74,127
46327,note_on,1,0,0,,11,,,70,127
46436,note_off,109,0,0,,11,,,70,127
46436,note_off,0,0,0,,11,,,58,127
46437,note_on,1,0,0,,0,,,60,127
46437,note_on,0,0,0,,10,,,69,127
46656,note_on,219,0,0,,0,,,48,127
46709,note_off,53,0,0,,10,,,69,127
46711,note_on,2,0,0,,7,,,67,127
46765,note_off,54,0,0,,7,,,67,127
46766,note_on,1,0,0,,10,,,69,127
46820,note_off,54,0,0,,10,,,69,127
46821,note_on,1,0,0,,7,,,67,127
46875,note_off,54,0,0,,7,,,67,127
46875,note_off,0,0,0,,0,,,48,127
46875,note_off,0,0,0,,0,,,60,127
46876,note_on,1,0,0,,5,,,53,127
46876,note_on,0,0,0,,5,,,65,127
47310,note_off,434,0,0,,5,,,65,127
47533,note_off,223,0,0,,5,,,53,127
47534,note_on,1,0,0,,5,,,53,127
47534,note_on,0,0,0,,0,,,60,127
47534,note_on,0,0,0,,0,,,72,127
47752,note_off,218,0,0,,0,,,72,127
47753,note_on,1,0,0,,10,,,69,127
47971,note_off,218,0,0,,10,,,69,127
47972,note_on,1,0,0,,2,,,74,127
48190,note_off,218,0,0,,2,,,74,127
48190,note_off,0,0,0,,0,,,60,127
48190,note_off,0,0,0,,5,,,53,127
48191,note_on,1,0,0,,4,,,52,127
48191,note_on,0,0,0,,0,,,60,127
48191,note_on,0,0,0,,0,,,72,127
48409,note_off,218,0,0,,0,,,72,127
48410,note_on,1,0,0,,7,,,67,127
48628,note_off,218,0,0,,7,,,67,127
48629,note_on,1,0,0,,2,,,74,127
48847,note_off,218,0,0,,2,,,74,127
48847,note_off,0,0,0,,0,,,60,127
48847,note_off,0,0,0,,4,,,52,127
48848,note_on,1,0,0,,0,,,60,127
48848,note_on,0,0,0,,2,,,50,127
48848,note_on,0,0,0,,0,,,72,127
49066,note_off,218,0,0,,0,,,72,127
49067,note_on,1,0,0,,6,,,66,127
49285,note_off,218,0,0,,6,,,66,127
49286,note_on,1,0,0,,0,,,72,127
49504,note_off,218,0,0,,2,,,50,127
49504,note_off,0,0,0,,0,,,60,127
49505,note_on,1,0,0,,7,,,55,127
49505,note_on,0,0,0,,2,,,62,127
49779,note_on,274,0,0,,11,,,70,127
49786,note_off,7,0,0,,0,,,72,127
49833,note_off,47,0,0,,11,,,70,127
49834,note_on,1,0,0,,10,,,69,127
49943,note_off,109,0,0,,10,,,69,127
49944,note_on,1,0,0,,7,,,67,127
50162,note_off,218,0,0,,7,,,67,127
50162,note_off,0,0,0,,2,,,62,127
50162,note_off,0,0,0,,7,,,55,127
50163,note_on,1,0,0,,7,,,55,127
50163,note_on,0,0,0,,2,,,62,127
50163,note_on,0,0,0,,2,,,74,127
50381,note_off,218,0,0,,2,,,74,127
50382,note_on,1,0,0,,11,,,70,127
50600,note_off,218,0,0,,11,,,70,127
50601,note_on,1,0,0,,3,,,75,127
50819,note_off,218,0,0,,3,,,75,127
50819,note_off,0,0,0,,2,,,62,127
50819,note_off,0,0,0,,7,,,55,127
50820,note_on,1,0,0,,5,,,53,127
50820,note_on,0,0,0,,2,,,62,127
50820,note_on,0,0,0,,2,,,74,127
51038,note_off,218,0,0,,2,,,74,127
51039,note_on,1,0,0,,10,,,69,127
51257,note_off,218,0,0,,10,,,69,127
51258,note_on,1,0,0,,4,,,76,127
51476,note_off,218,0,0,,4,,,76,127
51476,note_off,0,0,0,,2,,,62,127
51476,note_off,0,0,0,,5,,,53,127
51477,note_on,1,0,0,,4,,,52,127
51477,note_on,0,0,0,,2,,,62,127
51477,note_on,0,0,0,,2,,,74,127
51695,note_off,218,0,0,,2,,,74,127
51696,note_on,1,0,0,,8,,,68,127
51914,note_off,218,0,0,,8,,,68,127
51915,note_on,1,0,0,,2,,,74,127
52133,note_off,218,0,0,,2,,,62,127
52133,note_off,0,0,0,,4,,,52,127
52134,note_on,1,0,0,,10,,,57,127
52134,note_on,0,0,0,,4,,,64,127
52408,note_on,274,0,0,,1,,,73,127
52415,note_off,7,0,0,,2,,,74,127
52462,note_off,47,0,0,,1,,,73,127
52463,note_on,1,0,0,,12,,,71,127
52572,note_off,109,0,0,,12,,,71,127
52573,note_on,1,0,0,,10,,,69,127
52791,note_off,218,0,0,,10,,,69,127
52791,note_off,0,0,0,,4,,,64,127
52791,note_off,0,0,0,,10,,,57,127
52792,note_on,1,0,0,,7,,,67,127
52792,note_on,0,0,0,,10,,,57,127
52792,note_on,0,0,0,,1,,,73,127
52901,note_off,109,0,0,,1,,,73,127
52902,note_on,1,0,0,,10,,,69,127
53011,note_off,109,0,0,,10,,,69,127
53012,note_on,1,0,0,,4,,,76,127
53121,note_off,109,0,0,,4,,,76,127
53122,note_on,1,0,0,,1,,,73,127
53231,note_off,109,0,0,,1,,,73,127
53232,note_on,1,0,0,,10,,,81,127
53450,note_off,218,0,0,,10,,,81,127
53450,note_off,0,0,0,,10,,,57,127
53450,note_off,0,0,0,,7,,,67,127
53451,note_on,1,0,0,,5,,,65,127
53451,note_on,0,0,0,,10,,,57,127
53451,note_on,0,0,0,,2,,,74,127
53560,note_off,109,0,0,,2,,,74,127
53561,note_on,1,0,0,,10,,,69,127
53670,note_off,109,0,0,,10,,,69,127
53671,note_on,1,0,0,,5,,,77,127
53780,note_off,109,0,0,,5,,,77,127
53781,note_on,1,0,0,,2,,,74,127
53890,note_off,109,0,0,,2,,,74,127
53891,note_on,1,0,0,,10,,,81,127
54109,note_off,218,0,0,,10,,,81,127
54109,note_off,0,0,0,,10,,,57,127
54109,note_off,0,0,0,,5,,,65,127
54110,note_on,1,0,0,,4,,,64,127
54110,note_on,0,0,0,,10,,,57,127
54110,note_on,0,0,0,,1,,,73,127
54219,note_off,109,0,0,,1,,,73,127
54220,note_on,1,0,0,,10,,,69,127
54329,note_off,109,0,0,,10,,,69,127
54330,note_on,1,0,0,,4,,,76,127
54439,note_off,109,0,0,,4,,,76,127
54440,note_on,1,0,0,,1,,,73,127
54549,note_off,109,0,0,,1,,,73,127
54550,note_on,1,0,0,,7,,,79,127
54768,note_off,218,0,0,,10,,,57,127
54768,note_off,0,0,0,,4,,,64,127
54769,note_on,1,0,0,,2,,,62,127
54769,note_on,0,0,0,,2,,,50,127
54823,note_off,54,0,0,,7,,,79,127
54824,note_on,1,0,0,,5,,,77,127
54878,note_off,54,0,0,,5,,,77,127
54879,note_on,1,0,0,,7,,,79,127
54933,note_off,54,0,0,,7,,,79,127
54934,note_on,1,0,0,,5,,,77,127
54988,note_off,54,0,0,,5,,,77,127
54989,note_on,1,0,0,,4,,,76,127
55207,note_off,218,0,0,,4,,,76,127
55208,note_on,1,0,0,,2,,,74,127
55426,note_off,218,0,0,,2,,,74,127
55426,note_off,0,0,0,,2,,,50,127
55426,note_off,0,0,0,,2,,,62,127
55427,note_on,1,0,0,,5,,,65,127
55427,note_on,0,0,0,,7,,,55,127
55427,note_on,0,0,0,,12,,,71,127
55536,note_off,109,0,0,,12,,,71,127
55537,note_on,1,0,0,,7,,,67,127
55646,note_off,109,0,0,,7,,,67,127
55647,note_on,1,0,0,,2,,,74,127
55756,note_off,109,0,0,,2,,,74,127
55757,note_on,1,0,0,,12,,,71,127
55866,note_off,109,0,0,,12,,,71,127
55867,note_on,1,0,0,,7,,,79,127
56085,note_off,218,0,0,,7,,,79,127
56085,note_off,0,0,0,,7,,,55,127
56085,note_off,0,0,0,,5,,,65,127
56086,note_on,1,0,0,,7,,,55,127
56086,note_on,0,0,0,,4,,,64,127
56086,note_on,0,0,0,,0,,,72,127
56195,note_off,109,0,0,,0,,,72,127
56196,note_on,1,0,0,,7,,,67,127
56305,note_off,109,0,0,,7,,,67,127
56306,note_on,1,0,0,,4,,,76,127
56415,note_off,109,0,0,,4,,,76,127
56416,note_on,1,0,0,,0,,,72,127
56525,note_off,109,0,0,,0,,,72,127
56526,note_on,1,0,0,,7,,,79,127
56744,note_off,218,0,0,,7,,,79,127
56744,note_off,0,0,0,,4,,,64,127
56744,note_off,0,0,0,,7,,,55,127
56745,note_on,1,0,0,,7,,,55,127
56745,note_on,0,0,0,,2,,,62,127
56745,note_on,0,0,0,,12,,,71,127
56854,note_off,109,0,0,,12,,,71,127
56855,note_on,1,0,0,,7,,,67,127
56964,note_off,109,0,0,,7,,,67,127
56965,note_on,1,0,0,,2,,,74,127
57074,note_off,109,0,0,,2,,,74,127
57075,note_on,1,0,0,,12,,,71,127
57184,note_off,109,0,0,,12,,,71,127
57185,note_on,1,0,0,,5,,,77,127
57403,note_off,218,0,0,,2,,,62,127
57403,note_off,0,0,0,,7,,,55,127
57404,note_on,1,0,0,,0,,,48,127
57404,note_on,0,0,0,,0,,,60,127
57458,note_off,54,0,0,,5,,,77,127
57459,note_on,1,0,0,,4,,,76,127
57513,note_off,54,0,0,,4,,,76,127
57514,note_on,1,0,0,,5,,,77,127
57568,note_off,54,0,0,,5,,,77,127
57569,note_on,1,0,0,,4,,,76,127
57623,note_off,54,0,0,,4,,,76,127
57624,note_on,1,0,0,,2,,,74,127
57842,note_off,218,0,0,,2,,,74,127
57843,note_on,1,0,0,,0,,,72,127
57998,note_off,155,0,0,,0,,,48,127
58061,note_off,63,0,0,,0,,,72,127
58061,note_off,0,0,0,,0,,,60,127
58062,note_on,1,0,0,,0,,,60,127
58062,note_on,0,0,0,,3,,,75,127
58171,note_off,109,0,0,,3,,,75,127
58172,note_on,1,0,0,,0,,,72,127
58281,note_off,109,0,0,,0,,,72,127
58282,note_on,1,0,0,,7,,,79,127
58391,note_off,109,0,0,,7,,,79,127
58392,note_on,1,0,0,,3,,,75,127
58501,note_off,109,0,0,,3,,,75,127
58502,note_on,1,0,0,,0,,,84,127
58720,note_off,218,0,0,,0,,,84,127
58720,note_off,0,0,0,,0,,,60,127
58721,note_on,1,0,0,,8,,,56,127
58721,note_on,0,0,0,,3,,,75,127
58830,note_off,109,0,0,,3,,,75,127
58831,note_on,1,0,0,,0,,,72,127
58940,note_off,109,0,0,,0,,,72,127
58941,note_on,1,0,0,,8,,,80,127
59050,note_off,109,0,0,,8,,,80,127
59051,note_on,1,0,0,,3,,,75,127
59160,note_off,109,0,0,,3,,,75,127
59161,note_on,1,0,0,,0,,,84,127
59379,note_off,218,0,0,,0,,,84,127
59379,note_off,0,0,0,,8,,,56,127
59380,note_on,1,0,0,,7,,,55,127
59380,note_on,0,0,0,,11,,,82,127
59598,note_off,218,0,0,,11,,,82,127
59599,note_on,1,0,0,,7,,,79,127
59817,note_off,218,0,0,,7,,,79,127
59817,note_off,0,0,0,,7,,,55,127
59818,note_on,1,0,0,,8,,,56,127
59818,note_on,0,0,0,,3,,,75,127
60036,note_off,218,0,0,,3,,,75,127
60036,note_off,0,0,0,,8,,,56,127
60037,note_on,1,0,0,,11,,,58,127
60037,note_on,0,0,0,,5,,,77,127
60091,note_off,54,0,0,,5,,,77,127
60092,note_on,1,0,0,,3,,,75,127
60146,note_off,54,0,0,,3,,,75,127
60147,note_on,1,0,0,,5,,,77,127
60201,note_off,54,0,0,,5,,,77,127
60202,note_on,1,0,0,,3,,,75,127
60256,note_off,54,0,0,,3,,,75,127
60257,note_on,1,0,0,,2,,,74,127
60476,note_on,219,0,0,,11,,,46,127
60634,note_off,158,0,0,,2,,,74,127
60695,note_off,61,0,0,,11,,,46,127
60695,note_off,0,0,0,,11,,,58,127
60696,note_on,1,0,0,,2,,,50,127
60696,note_on,0,0,0,,11,,,70,127
60805,note_off,109,0,0,,11,,,70,127
60806,note_on,1,0,0,,5,,,65,127
60915,note_off,109,0,0,,5,,,65,127
60916,note_on,1,0,0,,2,,,74,127
61025,note_off,109,0,0,,2,,,74,127
61026,note_on,1,0,0,,11,,,70,127
61135,note_off,109,0,0,,11,,,70,127
61136,note_on,1,0,0,,5,,,77,127
61354,note_off,218,0,0,,5,,,77,127
61354,note_off,0,0,0,,2,,,50,127
61355,note_on,1,0,0,,3,,,51,127
61355,note_on,0,0,0,,11,,,70,127
61464,note_off,109,0,0,,11,,,70,127
61465,note_on,1,0,0,,7,,,67,127
61574,note_off,109,0,0,,7,,,67,127
61575,note_on,1,0,0,,3,,,75,127
61684,note_off,109,0,0,,3,,,75,127
61685,note_on,1,0,0,,11,,,70,127
61794,note_off,109,0,0,,11,,,70,127
61795,note_on,1,0,0,,7,,,79,127
62013,note_off,218,0,0,,3,,,51,127
62014,note_on,1,0,0,,4,,,52,127
62232,note_off,218,0,0,,7,,,79,127
62233,note_on,1,0,0,,0,,,72,127
62451,note_off,218,0,0,,0,,,72,127
62452,note_on,1,0,0,,11,,,70,127
62670,note_off,218,0,0,,11,,,70,127
62670,note_off,0,0,0,,4,,,52,127
62671,note_on,1,0,0,,5,,,53,127
62671,note_on,0,0,0,,0,,,72,127
62725,note_off,54,0,0,,0,,,72,127
62726,note_on,1,0,0,,11,,,70,127
62780,note_off,54,0,0,,11,,,70,127
62781,note_on,1,0,0,,0,,,72,127
62835,note_off,54,0,0,,0,,,72,127
62836,note_on,1,0,0,,11,,,70,127
62890,note_off,54,0,0,,11,,,70,127
62891,note_on,1,0,0,,10,,,69,127
63110,note_on,219,0,0,,5,,,41,127
63220,note_off,110,0,0,,10,,,69,127
63329,note_off,109,0,0,,5,,,41,127
63329,note_off,0,0,0,,5,,,53,127
63330,note_on,1,0,0,,5,,,41,127
63330,note_on,0,0,0,,10,,,69,127
63439,note_off,109,0,0,,10,,,69,127
63440,note_on,1,0,0,,11,,,70,127
63549,note_off,109,0,0,,11,,,70,127
63550,note_on,1,0,0,,0,,,72,127
63659,note_off,109,0,0,,0,,,72,127
63660,note_on,1,0,0,,10,,,69,127
63769,note_off,109,0,0,,10,,,69,127
63770,note_on,1,0,0,,2,,,74,127
63879,note_off,109,0,0,,2,,,74,127
63880,note_on,1,0,0,,11,,,70,127
63989,note_off,109,0,0,,11,,,70,127
63989,note_off,0,0,0,,5,,,41,127
63990,note_on,1,0,0,,5,,,41,127
63990,note_on,0,0,0,,3,,,75,127
64099,note_off,109,0,0,,3,,,75,127
64100,note_on,1,0,0,,0,,,72,127
64209,note_off,109,0,0,,0,,,72,127
64210,note_on,1,0,0,,4,,,76,127
64319,note_off,109,0,0,,4,,,76,127
64320,note_on,1,0,0,,0,,,72,127
64429,note_off,109,0,0,,0,,,72,127
64430,note_on,1,0,0,,5,,,77,127
64539,note_off,109,0,0,,5,,,77,127
64540,note_on,1,0,0,,2,,,74,127
64649,note_off,109,0,0,,2,,,74,127
64649,note_off,0,0,0,,5,,,41,127
64650,note_on,1,0,0,,5,,,41,127
64650,note_on,0,0,0,,7,,,79,127
64759,note_off,109,0,0,,7,,,79,127
64760,note_on,1,0,0,,4,,,76,127
64869,note_off,109,0,0,,4,,,76,127
64870,note_on,1,0,0,,10,,,81,127
64979,note_off,109,0,0,,10,,,81,127
64980,note_on,1,0,0,,5,,,77,127
65089,note_off,109,0,0,,5,,,77,127
65090,note_on,1,0,0,,11,,,82,127
65199,note_off,109,0,0,,11,,,82,127
65200,note_on,1,0,0,,7,,,79,127
65309,note_off,109,0,0,,7,,,79,127
65309,note_off,0,0,0,,5,,,41,127
65310,note_on,1,0,0,,5,,,41,127
65310,note_on,0,0,0,,0,,,84,127
65528,note_off,218,0,0,,0,,,84,127
65529,note_on,1,0,0,,0,,,84,127
65583,note_off,54,0,0,,0,,,84,127
65584,note_on,1,0,0,,11,,,82,127
65638,note_off,54,0,0,,11,,,82,127
65639,note_on,1,0,0,,10,,,81,127
65693,note_off,54,0,0,,10,,,81,127
65694,note_on,1,0,0,,11,,,82,127
65748,note_off,54,0,0,,11,,,82,127
65749,note_on,1,0,0,,0,,,84,127
65967,note_off,218,0,0,,0,,,84,127
65967,note_off,0,0,0,,5,,,41,127
65968,note_on,1,0,0,,5,,,41,127
65968,note_on,0,0,0,,10,,,69,127
66077,note_off,109,0,0,,10,,,69,127
66078,note_on,1,0,0,,11,,,70,127
66187,note_off,109,0,0,,11,,,70,127
66188,note_on,1,0,0,,0,,,72,127
66297,note_off,109,0,0,,0,,,72,127
66298,note_on,1,0,0,,10,,,69,127
66407,note_off,109,0,0,,10,,,69,127
66408,note_on,1,0,0,,2,,,74,127
66517,note_off,109,0,0,,2,,,74,127
66518,note_on,1,0,0,,11,,,70,127
66627,note_off,109,0,0,,11,,,70,127
66627,note_off,0,0,0,,5,,,41,127
66628,note_on,1,0,0,,5,,,41,127
66628,note_on,0,0,0,,3,,,75,127
66737,note_off,109,0,0,,3,,,75,127
66738,note_on,1,0,0,,0,,,72,127
66847,note_off,109,0,0,,0,,,72,127
66848,note_on,1,0,0,,5,,,77,127
66957,note_off,109,0,0,,5,,,77,127
66958,note_on,1,0,0,,2,,,74,127
67067,note_off,109,0,0,,2,,,74,127
67068,note_on,1,0,0,,7,,,79,127
67177,note_off,109,0,0,,7,,,79,127
67178,note_on,1,0,0,,3,,,75,127
67287,note_off,109,0,0,,3,,,75,127
67287,note_off,0,0,0,,5,,,41,127
67288,note_on,1,0,0,,5,,,41,127
67288,note_on,0,0,0,,10,,,81,127
67397,note_off,109,0,0,,10,,,81,127
67398,note_on,1,0,0,,5,,,77,127
67507,note_off,109,0,0,,5,,,77,127
67508,note_on,1,0,0,,11,,,82,127
67617,note_off,109,0,0,,11,,,82,127
67618,note_on,1,0,0,,7,,,79,127
67727,note_off,109,0,0,,7,,,79,127
67728,note_on,1,0,0,,0,,,84,127
67837,note_off,109,0,0,,0,,,84,127
67838,note_on,1,0,0,,10,,,81,127
67947,note_off,109,0,0,,10,,,81,127
67947,note_off,0,0,0,,5,,,41,127
67948,note_on,1,0,0,,11,,,46,127
67948,note_on,0,0,0,,2,,,86,127
68166,note_off,218,0,0,,2,,,86,127
68167,note_on,1,0,0,,2,,,86,127
68221,note_off,54,0,0,,2,,,86,127
68222,note_on,1,0,0,,0,,,84,127
68276,note_off,54,0,0,,0,,,84,127
68277,note_on,1,0,0,,11,,,82,127
68331,note_off,54,0,0,,11,,,82,127
68332,note_on,1,0,0,,0,,,84,127
68386,note_off,54,0,0,,0,,,84,127
68387,note_on,1,0,0,,2,,,86,127
68605,note_off,218,0,0,,2,,,86,127
68605,note_off,0,0,0,,11,,,46,127
68606,note_on,1,0,0,,11,,,58,127
68715,note_off,109,0,0,,11,,,58,127
68716,note_on,1,0,0,,0,,,60,127
68825,note_off,109,0,0,,0,,,60,127
68826,note_on,1,0,0,,2,,,62,127
68826,note_on,0,0,0,,5,,,77,127
68935,note_off,109,0,0,,2,,,62,127
68936,note_on,1,0,0,,11,,,58,127
69045,note_off,109,0,0,,11,,,58,127
69045,note_off,0,0,0,,5,,,77,127
69046,note_on,1,0,0,,3,,,63,127
69046,note_on,0,0,0,,7,,,79,127
69155,note_off,109,0,0,,3,,,63,127
69156,note_on,1,0,0,,0,,,60,127
69265,note_off,109,0,0,,0,,,60,127
69265,note_off,0,0,0,,7,,,79,127
69266,note_on,1,0,0,,5,,,65,127
69266,note_on,0,0,0,,10,,,81,127
69375,note_off,109,0,0,,5,,,65,127
69376,note_on,1,0,0,,2,,,62,127
69485,note_off,109,0,0,,2,,,62,127
69485,note_off,0,0,0,,10,,,81,127
69486,note_on,1,0,0,,7,,,67,127
69486,note_on,0,0,0,,11,,,82,127
69595,note_off,109,0,0,,7,,,67,127
69596,note_on,1,0,0,,3,,,63,127
69705,note_off,109,0,0,,3,,,63,127
69705,note_off,0,0,0,,11,,,82,127
69706,note_on,1,0,0,,10,,,69,127
69706,note_on,0,0,0,,0,,,84,127
69815,note_off,109,0,0,,10,,,69,127
69816,note_on,1,0,0,,5,,,65,127
69925,note_off,109,0,0,,5,,,65,127
69925,note_off,0,0,0,,0,,,84,127
69926,note_on,1,0,0,,11,,,70,127
69926,note_on,0,0,0,,2,,,86,127
70035,note_off,109,0,0,,11,,,70,127
70036,note_on,1,0,0,,5,,,65,127
70145,note_off,109,0,0,,5,,,65,127
70146,note_on,1,0,0,,2,,,62,127
70255,note_off,109,0,0,,2,,,62,127
70255,note_off,0,0,0,,2,,,86,127
70256,note_on,1,0,0,,11,,,58,127
70256,note_on,0,0,0,,11,,,82,127
70365,note_off,109,0,0,,11,,,82,127
70365,note_off,0,0,0,,11,,,58,127
70366,note_on,1,0,0,,5,,,53,127
70366,note_on,0,0,0,,0,,,84,127
70560,note_off,194,0,0,,0,,,84,127
70584,note_off,24,0,0,,5,,,53,127
70585,note_on,1,0,0,,11,,,70,127
70585,note_on,0,0,0,,2,,,86,127
70694,note_off,109,0,0,,11,,,70,127
70695,note_on,1,0,0,,5,,,65,127
70804,note_off,109,0,0,,5,,,65,127
70805,note_on,1,0,0,,2,,,62,127
70914,note_off,109,0,0,,2,,,62,127
70914,note_off,0,0,0,,2,,,86,127
70915,note_on,1,0,0,,11,,,58,127
70915,note_on,0,0,0,,11,,,82,127
71024,note_off,109,0,0,,11,,,82,127
71024,note_off,0,0,0,,11,,,58,127
71025,note_on,1,0,0,,5,,,53,127
71025,note_on,0,0,0,,0,,,84,127
71225,note_off,200,0,0,,0,,,84,127
71243,note_off,18,0,0,,5,,,53,127
71244,note_on,1,0,0,,11,,,58,127
71244,note_on,0,0,0,,2,,,86,127
71353,note_off,109,0,0,,2,,,86,127
71354,note_on,1,0,0,,0,,,84,127
71463,note_off,109,0,0,,0,,,84,127
71463,note_off,0,0,0,,11,,,58,127
71464,note_on,1,0,0,,0,,,60,127
71464,note_on,0,0,0,,11,,,82,127
71573,note_off,109,0,0,,11,,,82,127
71574,note_on,1,0,0,,10,,,81,127
71683,note_off,109,0,0,,10,,,81,127
71683,note_off,0,0,0,,0,,,60,127
71684,note_on,1,0,0,,2,,,62,127
71684,note_on,0,0,0,,11,,,82,127
71793,note_off,109,0,0,,11,,,82,127
71794,note_on,1,0,0,,5,,,77,127
71903,note_off,109,0,0,,5,,,77,127
71903,note_off,0,0,0,,2,,,62,127
71904,note_on,1,0,0,,3,,,63,127
71904,note_on,0,0,0,,7,,,79,127
72013,note_off,109,0,0,,7,,,79,127
72014,note_on,1,0,0,,3,,,75,127
72123,note_off,109,0,0,,3,,,75,127
72123,note_off,0,0,0,,3,,,63,127
72124,note_on,1,0,0,,5,,,65,127
72124,note_on,0,0,0,,2,,,74,127
72233,note_off,109,0,0,,2,,,74,127
72234,note_on,1,0,0,,0,,,72,127
72343,note_off,109,0,0,,0,,,72,127
72344,note_on,1,0,0,,5,,,53,127
72344,note_on,0,0,0,,11,,,70,127
72453,note_off,109,0,0,,11,,,70,127
72454,note_on,1,0,0,,10,,,69,127
72563,note_off,109,0,0,,10,,,69,127
72563,note_off,0,0,0,,5,,,53,127
72563,note_off,0,0,0,,5,,,65,127
72564,note_on,1,0,0,,11,,,58,127
72564,note_on,0,0,0,,11,,,70,127
72673,note_off,109,0,0,,11,,,70,127
72674,note_on,1,0,0,,5,,,65,127
72783,note_off,109,0,0,,5,,,65,127
72784,note_on,1,0,0,,2,,,74,127
72893,note_off,109,0,0,,2,,,74,127
72894,note_on,1,0,0,,11,,,70,127
73003,note_off,109,0,0,,11,,,70,127
73004,note_on,1,0,0,,5,,,77,127
73222,note_off,218,0,0,,5,,,77,127
73222,note_off,0,0,0,,11,,,58,127
73223,note_on,1,0,0,,11,,,58,127
73223,note_on,0,0,0,,8,,,68,127
73332,note_off,109,0,0,,8,,,68,127
73333,note_on,1,0,0,,5,,,65,127
73442,note_off,109,0,0,,5,,,65,127
73443,note_on,1,0,0,,2,,,74,127
73552,note_off,109,0,0,,2,,,74,127
73553,note_on,1,0,0,,11,,,70,127
73662,note_off,109,0,0,,11,,,70,127
73663,note_on,1,0,0,,5,,,77,127
73881,note_off,218,0,0,,5,,,77,127
73881,note_off,0,0,0,,11,,,58,127
73882,note_on,1,0,0,,12,,,59,127
73882,note_on,0,0,0,,8,,,68,127
73991,note_off,109,0,0,,8,,,68,127
73992,note_on,1,0,0,,5,,,65,127
74101,note_off,109,0,0,,5,,,65,127
74102,note_on,1,0,0,,2,,,74,127
74211,note_off,109,0,0,,2,,,74,127
74212,note_on,1,0,0,,12,,,71,127
74321,note_off,109,0,0,,12,,,71,127
74322,note_on,1,0,0,,5,,,77,127
74540,note_off,218,0,0,,5,,,77,127
74540,note_off,0,0,0,,12,,,59,127
74541,note_on,1,0,0,,12,,,59,127
74541,note_on,0,0,0,,8,,,68,127
74650,note_off,109,0,0,,8,,,68,127
74651,note_on,1,0,0,,5,,,65,127
74760,note_off,109,0,0,,5,,,65,127
74761,note_on,1,0,0,,2,,,74,127
74870,note_off,109,0,0,,2,,,74,127
74871,note_on,1,0,0,,12,,,71,127
74980,note_off,109,0,0,,12,,,71,127
74981,note_on,1,0,0,,5,,,77,127
75199,note_off,218,0,0,,12,,,59,127
75200,note_on,1,0,0,,0,,,60,127
75473,note_off,273,0,0,,5,,,77,127
75474,note_on,1,0,0,,4,,,76,127
75528,note_off,54,0,0,,4,,,76,127
75529,note_on,1,0,0,,2,,,74,127
75638,note_off,109,0,0,,2,,,74,127
75639,note_on,1,0,0,,0,,,72,127
75804,note_off,165,0,0,,0,,,72,127
75858,note_off,54,0,0,,0,,,60,127
75859,note_on,1,0,0,,0,,,48,127
75859,note_on,0,0,0,,11,,,70,127
75968,note_off,109,0,0,,11,,,70,127
75969,note_on,1,0,0,,7,,,67,127
76078,note_off,109,0,0,,7,,,67,127
76079,note_on,1,0,0,,4,,,76,127
76188,note_off,109,0,0,,4,,,76,127
76189,note_on,1,0,0,,11,,,70,127
76298,note_off,109,0,0,,11,,,70,127
76299,note_on,1,0,0,,7,,,79,127
76517,note_off,218,0,0,,7,,,79,127
76517,note_off,0,0,0,,0,,,48,127
76518,note_on,1,0,0,,0,,,48,127
76518,note_on,0,0,0,,11,,,70,127
76627,note_off,109,0,0,,11,,,70,127
76628,note_on,1,0,0,,7,,,67,127
76737,note_off,109,0,0,,7,,,67,127
76738,note_on,1,0,0,,4,,,76,127
76847,note_off,109,0,0,,4,,,76,127
76848,note_on,1,0,0,,11,,,70,127
76957,note_off,109,0,0,,11,,,70,127
76958,note_on,1,0,0,,7,,,79,127
77176,note_off,218,0,0,,0,,,48,127
77177,note_on,1,0,0,,4,,,52,127
77395,note_off,218,0,0,,7,,,79,127
77396,note_on,1,0,0,,0,,,72,127
77614,note_off,218,0,0,,0,,,72,127
77615,note_on,1,0,0,,11,,,70,127
77833,note_off,218,0,0,,11,,,70,127
77833,note_off,0,0,0,,4,,,52,127
77834,note_on,1,0,0,,5,,,53,127
77834,note_on,0,0,0,,0,,,72,127
77888,note_off,54,0,0,,0,,,72,127
77889,note_on,1,0,0,,11,,,70,127
77943,note_off,54,0,0,,11,,,70,127
77944,note_on,1,0,0,,0,,,72,127
77998,note_off,54,0,0,,0,,,72,127
77999,note_on,1,0,0,,11,,,70,127
78053,note_off,54,0,0,,11,,,70,127
78054,note_on,1,0,0,,10,,,69,127
78273,note_on,219,0,0,,5,,,41,127
78383,note_off,110,0,0,,10,,,69,127
78492,note_off,109,0,0,,5,,,41,127
78492,note_off,0,0,0,,5,,,53,127
78493,note_on,1,0,0,,5,,,41,127
78493,note_on,0,0,0,,10,,,69,127
78602,note_off,109,0,0,,10,,,69,127
78603,note_on,1,0,0,,11,,,70,127
78712,note_off,109,0,0,,11,,,70,127
78713,note_on,1,0,0,,0,,,72,127
78822,note_off,109,0,0,,0,,,72,127
78823,note_on,1,0,0,,10,,,69,127
78932,note_off,109,0,0,,10,,,69,127
78933,note_on,1,0,0,,2,,,74,127
79042,note_off,109,0,0,,2,,,74,127
79043,note_on,1,0,0,,11,,,70,127
79152,note_off,109,0,0,,11,,,70,127
79152,note_off,0,0,0,,5,,,41,127
79153,note_on,1,0,0,,5,,,41,127
79153,note_on,0,0,0,,3,,,75,127
79262,note_off,109,0,0,,3,,,75,127
79263,note_on,1,0,0,,0,,,72,127
79372,note_off,109,0,0,,0,,,72,127
79373,note_on,1,0,0,,4,,,76,127
79482,note_off,109,0,0,,4,,,76,127
79483,note_on,1,0,0,,0,,,72,127
79592,note_off,109,0,0,,0,,,72,127
79593,note_on,1,0,0,,5,,,77,127
79702,note_off,109,0,0,,5,,,77,127
79703,note_on,1,0,0,,2,,,74,127
79812,note_off,109,0,0,,2,,,74,127
79812,note_off,0,0,0,,5,,,41,127
79813,note_on,1,0,0,,5,,,41,127
79813,note_on,0,0,0,,7,,,79,127
79922,note_off,109,0,0,,7,,,79,127
79923,note_on,1,0,0,,4,,,76,127
80032,note_off,109,0,0,,4,,,76,127
80033,note_on,1,0,0,,10,,,81,127
80142,note_off,109,0,0,,10,,,81,127
80143,note_on,1,0,0,,5,,,77,127
80252,note_off,109,0,0,,5,,,77,127
80253,note_on,1,0,0,,11,,,82,127
80362,note_off,109,0,0,,11,,,82,127
80363,note_on,1,0,0,,7,,,79,127
80472,note_off,109,0,0,,7,,,79,127
80472,note_off,0,0,0,,5,,,41,127
80473,note_on,1,0,0,,5,,,41,127
80473,note_on,0,0,0,,0,,,84,127
80691,note_off,218,0,0,,0,,,84,127
80692,note_on,1,0,0,,0,,,84,127
80746,note_off,54,0,0,,0,,,84,127
80747,note_on,1,0,0,,11,,,82,127
80801,note_off,54,0,0,,11,,,82,127
80802,note_on,1,0,0,,10,,,81,127
80856,note_off,54,0,0,,10,,,81,127
80857,note_on,1,0,0,,11,,,82,127
80911,note_off,54,0,0,,11,,,82,127
80912,note_on,1,0,0,,0,,,84,127
81130,note_off,218,0,0,,0,,,84,127
81130,note_off,0,0,0,,5,,,41,127
81131,note_on,1,0,0,,5,,,41,127
81131,note_on,0,0,0,,10,,,69,127
81240,note_off,109,0,0,,10,,,69,127
81241,note_on,1,0,0,,11,,,70,127
81350,note_off,109,0,0,,11,,,70,127
81351,note_on,1,0,0,,0,,,72,127
81460,note_off,109,0,0,,0,,,72,127
81461,note_on,1,0,0,,10,,,69,127
81570,note_off,109,0,0,,10,,,69,127
81571,note_on,1,0,0,,2,,,74,127
81680,note_off,109,0,0,,2,,,74,127
81681,note_on,1,0,0,,11,,,70,127
81790,note_off,109,0,0,,11,,,70,127
81790,note_off,0,0,0,,5,,,41,127
81791,note_on,1,0,0,,5,,,41,127
81791,note_on,0,0,0,,3,,,75,127
81900,note_off,109,0,0,,3,,,75,127
81901,note_on,1,0,0,,0,,,72,127
82010,note_off,109,0,0,,0,,,72,127
82011,note_on,1,0,0,,5,,,77,127
82120,note_off,109,0,0,,5,,,77,127
82121,note_on,1,0,0,,2,,,74,127
82230,note_off,109,0,0,,2,,,74,127
82231,note_on,1,0,0,,7,,,79,127
82340,note_off,109,0,0,,7,,,79,127
82341,note_on,1,0,0,,3,,,75,127
82450,note_off,109,0,0,,3,,,75,127
82450,note_off,0,0,0,,5,,,41,127
82451,note_on,1,0,0,,5,,,41,127
82451,note_on,0,0,0,,10,,,81,127
82560,note_off,109,0,0,,10,,,81,127
82561,note_on,1,0,0,,5,,,77,127
82670,note_off,109,0,0,,5,,,77,127
82671,note_on,1,0,0,,11,,,82,127
82780,note_off,109,0,0,,11,,,82,127
82781,note_on,1,0,0,,7,,,79,127
82890,note_off,109,0,0,,7,,,79,127
82891,note_on,1,0,0,,0,,,84,127
83000,note_off,109,0,0,,0,,,84,127
83001,note_on,1,0,0,,10,,,81,127
83110,note_off,109,0,0,,10,,,81,127
83110,note_off,0,0,0,,5,,,41,127
83111,note_on,1,0,0,,11,,,46,127
83111,note_on,0,0,0,,2,,,86,127
83329,note_off,218,0,0,,2,,,86,127
83330,note_on,1,0,0,,2,,,86,127
83384,note_off,54,0,0,,2,,,86,127
83385,note_on,1,0,0,,0,,,84,127
83439,note_off,54,0,0,,0,,,84,127
83440,note_on,1,0,0,,11,,,82,127
83494,note_off,54,0,0,,11,,,82,127
83495,note_on,1,0,0,,0,,,84,127
83549,note_off,54,0,0,,0,,,84,127
83550,note_on,1,0,0,,2,,,86,127
83768,note_off,218,0,0,,2,,,86,127
83768,note_off,0,0,0,,11,,,46,127
83769,note_on,1,0,0,,11,,,58,127
83878,note_off,109,0,0,,11,,,58,127
83879,note_on,1,0,0,,0,,,60,127
83988,note_off,109,0,0,,0,,,60,127
83989,note_on,1,0,0,,2,,,62,127
83989,note_on,0,0,0,,5,,,77,127
84098,note_off,109,0,0,,2,,,62,127
84099,note_on,1,0,0,,11,,,58,127
84208,note_off,109,0,0,,11,,,58,127
84208,note_off,0,0,0,,5,,,77,127
84209,note_on,1,0,0,,3,,,63,127
84209,note_on,0,0,0,,7,,,79,127
84318,note_off,109,0,0,,3,,,63,127
84319,note_on,1,0,0,,0,,,60,127
84428,note_off,109,0,0,,0,,,60,127
84428,note_off,0,0,0,,7,,,79,127
84429,note_on,1,0,0,,5,,,65,127
84429,note_on,0,0,0,,10,,,81,127
84538,note_off,109,0,0,,5,,,65,127
84539,note_on,1,0,0,,2,,,62,127
84648,note_off,109,0,0,,2,,,62,127
84648,note_off,0,0,0,,10,,,81,127
84649,note_on,1,0,0,,7,,,67,127
84649,note_on,0,0,0,,11,,,82,127
84758,note_off,109,0,0,,7,,,67,127
84759,note_on,1,0,0,,3,,,63,127
84868,note_off,109,0,0,,3,,,63,127
84868,note_off,0,0,0,,11,,,82,127
84869,note_on,1,0,0,,10,,,69,127
84869,note_on,0,0,0,,0,,,84,127
84978,note_off,109,0,0,,10,,,69,127
84979,note_on,1,0,0,,5,,,65,127
85088,note_off,109,0,0,,5,,,65,127
85088,note_off,0,0,0,,0,,,84,127
85089,note_on,1,0,0,,11,,,70,127
85089,note_on,0,0,0,,2,,,86,127
85198,note_off,109,0,0,,11,,,70,127
85199,note_on,1,0,0,,5,,,65,127
85308,note_off,109,0,0,,5,,,65,127
85309,note_on,1,0,0,,2,,,62,127
85418,note_off,109,0,0,,2,,,62,127
85418,note_off,0,0,0,,2,,,86,127
85419,note_on,1,0,0,,11,,,58,127
85419,note_on,0,0,0,,11,,,82,127
85528,note_off,109,0,0,,11,,,82,127
85528,note_off,0,0,0,,11,,,58,127
85529,note_on,1,0,0,,5,,,53,127
85529,note_on,0,0,0,,0,,,84,127
85729,note_off,200,0,0,,0,,,84,127
85747,note_off,18,0,0,,5,,,53,127
85748,note_on,1,0,0,,11,,,70,127
85748,note_on,0,0,0,,2,,,86,127
85857,note_off,109,0,0,,11,,,70,127
85858,note_on,1,0,0,,5,,,65,127
85967,note_off,109,0,0,,5,,,65,127
85968,note_on,1,0,0,,2,,,62,127
86077,note_off,109,0,0,,2,,,62,127
86077,note_off,0,0,0,,2,,,86,127
86078,note_on,1,0,0,,11,,,58,127
86078,note_on,0,0,0,,11,,,82,127
86187,note_off,109,0,0,,11,,,82,127
86187,note_off,0,0,0,,11,,,58,127
86188,note_on,1,0,0,,5,,,53,127
86188,note_on,0,0,0,,0,,,84,127
86388,note_off,200,0,0,,0,,,84,127
86406,note_off,18,0,0,,5,,,53,127
86407,note_on,1,0,0,,11,,,58,127
86407,note_on,0,0,0,,2,,,86,127
86516,note_off,109,0,0,,2,,,86,127
86517,note_on,1,0,0,,0,,,84,127
86626,note_off,109,0,0,,0,,,84,127
86626,note_off,0,0,0,,11,,,58,127
86627,note_on,1,0,0,,0,,,60,127
86627,note_on,0,0,0,,11,,,82,127
86736,note_off,109,0,0,,11,,,82,127
86737,note_on,1,0,0,,10,,,81,127
86846,note_off,109,0,0,,10,,,81,127
86846,note_off,0,0,0,,0,,,60,127
86847,note_on,1,0,0,,2,,,62,127
86847,note_on,0,0,0,,11,,,82,127
86956,note_off,109,0,0,,11,,,82,127
86957,note_on,1,0,0,,5,,,77,127
87066,note_off,109,0,0,,5,,,77,127
87066,note_off,0,0,0,,2,,,62,127
87067,note_on,1,0,0,,3,,,63,127
87067,note_on,0,0,0,,7,,,79,127
87176,note_off,109,0,0,,7,,,79,127
87177,note_on,1,0,0,,3,,,75,127
87286,note_off,109,0,0,,3,,,75,127
87286,note_off,0,0,0,,3,,,63,127
87287,note_on,1,0,0,,5,,,65,127
87287,note_on,0,0,0,,2,,,74,127
87396,note_off,109,0,0,,2,,,74,127
87397,note_on,1,0,0,,0,,,72,127
87506,note_off,109,0,0,,0,,,72,127
87507,note_on,1,0,0,,5,,,53,127
87507,note_on,0,0,0,,11,,,70,127
87616,note_off,109,0,0,,11,,,70,127
87617,note_on,1,0,0,,10,,,69,127
87726,note_off,109,0,0,,10,,,69,127
87726,note_off,0,0,0,,5,,,53,127
87726,note_off,0,0,0,,5,,,65,127
87727,note_on,1,0,0,,11,,,58,127
87727,note_on,0,0,0,,11,,,70,127
87836,note_off,109,0,0,,11,,,58,127
87837,note_on,1,0,0,,5,,,53,127
87946,note_off,109,0,0,,5,,,53,127
87946,note_off,0,0,0,,11,,,70,127
87947,note_on,1,0,0,,2,,,50,127
88056,note_off,109,0,0,,2,,,50,127
88057,note_on,1,0,0,,11,,,46,127
88057,note_on,0,0,0,,2,,,74,127
88166,note_off,109,0,0,,11,,,46,127
88167,note_on,1,0,0,,5,,,41,127
88221,note_off,54,0,0,,2,,,74,127
88222,note_on,1,0,0,,0,,,72,127
88276,note_off,54,0,0,,0,,,72,127
88277,note_on,1,0,0,,2,,,74,127
88331,note_off,54,0,0,,2,,,74,127
88332,note_on,1,0,0,,0,,,72,127
88386,note_off,54,0,0,,5,,,41,127
88387,note_on,1,0,0,,11,,,58,127
88441,note_off,54,0,0,,0,,,72,127
88496,note_off,55,0,0,,11,,,58,127
88497,note_on,1,0,0,,5,,,53,127
88606,note_off,109,0,0,,5,,,53,127
88607,note_on,1,0,0,,2,,,50,127
88716,note_off,109,0,0,,2,,,50,127
88717,note_on,1,0,0,,11,,,46,127
88717,note_on,0,0,0,,2,,,74,127
88826,note_off,109,0,0,,11,,,46,127
88827,note_on,1,0,0,,5,,,41,127
88881,note_off,54,0,0,,2,,,74,127
88882,note_on,1,0,0,,0,,,72,127
88936,note_off,54,0,0,,0,,,72,127
88937,note_on,1,0,0,,2,,,74,127
88991,note_off,54,0,0,,2,,,74,127
88992,note_on,1,0,0,,0,,,72,127
89046,note_off,54,0,0,,0,,,72,127
89046,note_off,0,0,0,,5,,,41,127
89047,note_on,1,0,0,,11,,,46,127
89047,note_on,0,0,0,,2,,,74,127
89156,note_off,109,0,0,,2,,,74,127
89157,note_on,1,0,0,,5,,,77,127
89266,note_off,109,0,0,,5,,,77,127
89266,note_off,0,0,0,,11,,,46,127
89267,note_on,1,0,0,,0,,,48,127
89267,note_on,0,0,0,,11,,,70,127
89376,note_off,109,0,0,,11,,,70,127
89377,note_on,1,0,0,,10,,,69,127
89486,note_off,109,0,0,,10,,,69,127
89486,note_off,0,0,0,,0,,,48,127
89487,note_on,1,0,0,,2,,,50,127
89487,note_on,0,0,0,,11,,,70,127
89596,note_off,109,0,0,,11,,,70,127
89597,note_on,1,0,0,,2,,,74,127
89706,note_off,109,0,0,,2,,,74,127
89706,note_off,0,0,0,,2,,,50,127
89707,note_on,1,0,0,,3,,,51,127
89707,note_on,0,0,0,,0,,,72,127
89816,note_off,109,0,0,,0,,,72,127
89817,note_on,1,0,0,,3,,,75,127
89926,note_off,109,0,0,,3,,,75,127
89926,note_off,0,0,0,,3,,,51,127
89927,note_on,1,0,0,,5,,,53,127
89927,note_on,0,0,0,,2,,,74,127
90036,note_off,109,0,0,,2,,,74,127
90037,note_on,1,0,0,,0,,,72,127
90146,note_off,109,0,0,,0,,,72,127
90146,note_off,0,0,0,,5,,,53,127
90147,note_on,1,0,0,,3,,,51,127
90147,note_on,0,0,0,,11,,,70,127
90256,note_off,109,0,0,,11,,,70,127
90257,note_on,1,0,0,,10,,,69,127
90366,note_off,109,0,0,,10,,,69,127
90366,note_off,0,0,0,,3,,,51,127
90392,note_on,26,0,0,,2,,,50,127
90392,note_on,0,0,0,,11,,,82,127
90503,note_off,111,0,0,,11,,,82,127
90508,note_on,5,0,0,,5,,,77,127
90619,note_off,111,0,0,,5,,,77,127
90624,note_on,5,0,0,,2,,,74,127
90735,note_off,111,0,0,,2,,,74,127
90740,note_on,5,0,0,,11,,,70,127
90851,note_off,111,0,0,,11,,,70,127
90854,note_on,3,0,0,,2,,,74,127
90965,note_off,111,0,0,,2,,,74,127
90970,note_on,5,0,0,,5,,,77,127
91076,note_off,106,0,0,,2,,,50,127
91081,note_off,5,0,0,,5,,,77,127
91086,note_on,5,0,0,,2,,,50,127
91086,note_on,0,0,0,,11,,,82,127
91197,note_off,111,0,0,,11,,,82,127
91200,note_on,3,0,0,,5,,,77,127
91311,note_off,111,0,0,,5,,,77,127
91316,note_on,5,0,0,,2,,,74,127
91427,note_off,111,0,0,,2,,,74,127
91432,note_on,5,0,0,,11,,,70,127
91541,note_off,109,0,0,,2,,,50,127
91543,note_off,2,0,0,,11,,,70,127
91548,note_on,5,0,0,,2,,,50,127
91548,note_on,0,0,0,,2,,,74,127
91659,note_off,111,0,0,,2,,,74,127
91664,note_on,5,0,0,,5,,,77,127
91774,note_off,110,0,0,,2,,,50,127
91775,note_off,1,0,0,,5,,,77,127
91780,note_on,5,0,0,,3,,,51,127
91780,note_on,0,0,0,,7,,,79,127
92005,note_off,225,0,0,,7,,,79,127
92005,note_off,0,0,0,,3,,,51,127
92010,note_on,5,0,0,,5,,,53,127
92010,note_on,0,0,0,,2,,,74,127
92010,note_on,0,0,0,,10,,,69,127
92065,note_off,55,0,0,,2,,,74,127
92068,note_on,3,0,0,,0,,,72,127
92123,note_off,55,0,0,,0,,,72,127
92125,note_on,2,0,0,,2,,,74,127
92180,note_off,55,0,0,,2,,,74,127
92183,note_on,3,0,0,,0,,,72,127
92238,note_off,55,0,0,,0,,,72,127
92240,note_on,2,0,0,,5,,,41,127
92240,note_on,0,0,0,,2,,,74,127
92295,note_off,55,0,0,,2,,,74,127
92297,note_on,2,0,0,,0,,,72,127
92352,note_off,55,0,0,,0,,,72,127
92355,note_on,3,0,0,,11,,,70,127
92410,note_off,55,0,0,,11,,,70,127
92412,note_on,2,0,0,,0,,,72,127
92462,note_off,50,0,0,,10,,,69,127
92462,note_off,0,0,0,,5,,,53,127
92464,note_off,2,0,0,,5,,,41,127
92483,note_off,19,0,0,,0,,,72,127
92493,note_on,10,0,0,,11,,,46,127
92493,note_on,0,0,0,,11,,,70,127
94539,note_off,2046,0,0,,11,,,70,127
94539,note_off,0,0,0,,11,,,46,127
99840,end_of_track,5301,1,0,,,,,,
