tick,type,time,meta,track,program,channel,pitch,tempo,note,velocity
0,copyright,0,1,0,,,,,,
0,program_change,0,0,0,6,0,,,,
0,pitchwheel,0,0,0,,0,0,,,
0,program_change,0,0,0,6,1,,,,
0,pitchwheel,0,0,0,,1,-590,,,
0,program_change,0,0,0,6,2,,,,
0,pitchwheel,0,0,0,,2,-272,,,
0,program_change,0,0,0,6,3,,,,
0,pitchwheel,0,0,0,,3,-353,,,
0,program_change,0,0,0,6,4,,,,
0,pitchwheel,0,0,0,,4,-560,,,
0,program_change,0,0,0,6,5,,,,
0,pitchwheel,0,0,0,,5,-80,,,
0,program_change,0,0,0,6,6,,,,
0,pitchwheel,0,0,0,,6,-625,,,
0,program_change,0,0,0,6,7,,,,
0,pitchwheel,0,0,0,,7,-130,,,
0,program_change,0,0,0,6,8,,,,
0,pitchwheel,0,0,0,,8,-512,,,
0,program_change,0,0,0,6,10,,,,
0,pitchwheel,0,0,0,,10,-464,,,
0,program_change,0,0,0,6,11,,,,
0,pitchwheel,0,0,0,,11,-208,,,
0,program_change,0,0,0,6,12,,,,
0,pitchwheel,0,0,0,,12,-553,,,
0,set_tempo,0,1,0,,,,500000,,
115,note_on,115,0,0,,2,,,62,127
344,note_off,229,0,0,,2,,,62,127
345,note_on,1,0,0,,6,,,66,127
459,note_off,114,0,0,,6,,,66,127
460,note_on,1,0,0,,10,,,69,127
574,note_off,114,0,0,,10,,,69,127
575,note_on,1,0,0,,2,,,74,127
804,note_off,229,0,0,,2,,,74,127
805,note_on,1,0,0,,10,,,69,127
805,note_on,0,0,0,,4,,,76,127
1034,note_off,229,0,0,,4,,,76,127
1034,note_off,0,0,0,,10,,,69,127
1035,note_on,1,0,0,,2,,,74,127
1035,note_on,0,0,0,,6,,,78,127
1264,note_off,229,0,0,,6,,,78,127
1264,note_off,0,0,0,,2,,,74,127
1265,note_on,1,0,0,,12,,,71,127
1265,note_on,0,0,0,,7,,,79,127
1494,note_off,229,0,0,,7,,,79,127
1494,note_off,0,0,0,,12,,,71,127
1495,note_on,1,0,0,,1,,,73,127
1495,note_on,0,0,0,,10,,,81,127
1609,note_off,114,0,0,,10,,,81,127
1610,note_on,1,0,0,,7,,,79,127
1724,note_off,114,0,0,,7,,,79,127
1724,note_off,0,0,0,,1,,,73,127
1725,note_on,1,0,0,,10,,,69,127
1725,note_on,0,0,0,,6,,,78,127
1839,note_off,114,0,0,,6,,,78,127
1840,note_on,1,0,0,,4,,,76,127
1954,note_off,114,0,0,,4,,,76,127
1954,note_off,0,0,0,,10,,,69,127
1955,note_on,1,0,0,,2,,,74,127
1955,note_on,0,0,0,,6,,,78,127
2184,note_off,229,0,0,,6,,,78,127
2184,note_off,0,0,0,,2,,,74,127
2185,note_on,1,0,0,,12,,,71,127
2185,note_on,0,0,0,,7,,,79,127
2414,note_off,229,0,0,,7,,,79,127
2414,note_off,0,0,0,,12,,,71,127
2415,note_on,1,0,0,,1,,,73,127
2415,note_on,0,0,0,,10,,,81,127
2529,note_off,114,0,0,,10,,,81,127
2530,note_on,1,0,0,,7,,,79,127
2644,note_off,114,0,0,,7,,,79,127
2644,note_off,0,0,0,,1,,,73,127
2645,note_on,1,0,0,,10,,,69,127
2645,note_on,0,0,0,,6,,,78,127
2759,note_off,114,0,0,,6,,,78,127
2760,note_on,1,0,0,,4,,,76,127
2874,note_off,114,0,0,,4,,,76,127
2874,note_off,0,0,0,,10,,,69,127
2875,note_on,1,0,0,,2,,,50,127
2875,note_on,0,0,0,,6,,,78,127
2875,note_on,0,0,0,,2,,,74,127
3104,note_off,229,0,0,,2,,,50,127
3105,note_on,1,0,0,,6,,,54,127
3219,note_off,114,0,0,,6,,,54,127
3220,note_on,1,0,0,,10,,,57,127
3334,note_off,114,0,0,,10,,,57,127
3335,note_on,1,0,0,,2,,,62,127
3564,note_off,229,0,0,,2,,,62,127
3564,note_off,0,0,0,,2,,,74,127
3564,note_off,0,0,0,,6,,,78,127
3565,note_on,1,0,0,,4,,,64,127
3565,note_on,0,0,0,,10,,,57,127
3565,note_on,0,0,0,,10,,,81,127
3794,note_off,229,0,0,,10,,,81,127
3794,note_off,0,0,0,,10,,,57,127
3794,note_off,0,0,0,,4,,,64,127
3795,note_on,1,0,0,,6,,,66,127
3795,note_on,0,0,0,,2,,,62,127
3795,note_on,0,0,0,,10,,,81,127
4024,note_off,229,0,0,,2,,,62,127
4024,note_off,0,0,0,,6,,,66,127
4025,note_on,1,0,0,,12,,,59,127
4025,note_on,0,0,0,,7,,,67,127
4254,note_off,229,0,0,,7,,,67,127
4254,note_off,0,0,0,,12,,,59,127
4254,note_off,0,0,0,,10,,,81,127
4255,note_on,1,0,0,,10,,,69,127
4255,note_on,0,0,0,,1,,,61,127
4255,note_on,0,0,0,,10,,,81,127
4369,note_off,114,0,0,,10,,,69,127
4370,note_on,1,0,0,,7,,,67,127
4483,note_off,113,0,0,,1,,,61,127
4484,note_off,1,0,0,,7,,,67,127
4485,note_on,1,0,0,,10,,,57,127
4485,note_on,0,0,0,,6,,,66,127
4599,note_off,114,0,0,,6,,,66,127
4600,note_on,1,0,0,,4,,,64,127
4713,note_off,113,0,0,,10,,,57,127
4714,note_off,1,0,0,,4,,,64,127
4714,note_off,0,0,0,,10,,,81,127
4715,note_on,1,0,0,,6,,,66,127
4715,note_on,0,0,0,,2,,,62,127
4715,note_on,0,0,0,,10,,,81,127
4944,note_off,229,0,0,,2,,,62,127
4944,note_off,0,0,0,,6,,,66,127
4945,note_on,1,0,0,,12,,,59,127
4945,note_on,0,0,0,,7,,,67,127
5174,note_off,229,0,0,,7,,,67,127
5174,note_off,0,0,0,,12,,,59,127
5174,note_off,0,0,0,,10,,,81,127
5175,note_on,1,0,0,,10,,,69,127
5175,note_on,0,0,0,,1,,,61,127
5175,note_on,0,0,0,,10,,,81,127
5289,note_off,114,0,0,,10,,,69,127
5290,note_on,1,0,0,,7,,,67,127
5403,note_off,113,0,0,,1,,,61,127
5404,note_off,1,0,0,,7,,,67,127
5405,note_on,1,0,0,,10,,,57,127
5405,note_on,0,0,0,,6,,,66,127
5519,note_off,114,0,0,,6,,,66,127
5520,note_on,1,0,0,,4,,,64,127
5633,note_off,113,0,0,,10,,,57,127
5634,note_off,1,0,0,,4,,,64,127
5634,note_off,0,0,0,,10,,,81,127
5635,note_on,1,0,0,,6,,,66,127
5635,note_on,0,0,0,,2,,,62,127
5635,note_on,0,0,0,,10,,,81,127
5749,note_off,114,0,0,,10,,,81,127
5750,note_on,1,0,0,,6,,,78,127
5864,note_off,114,0,0,,6,,,78,127
5865,note_on,1,0,0,,7,,,79,127
5979,note_off,114,0,0,,7,,,79,127
5980,note_on,1,0,0,,4,,,76,127
6094,note_off,114,0,0,,4,,,76,127
6095,note_on,1,0,0,,2,,,74,127
6209,note_off,114,0,0,,2,,,74,127
6210,note_on,1,0,0,,10,,,69,127
6324,note_off,114,0,0,,10,,,69,127
6325,note_on,1,0,0,,12,,,71,127
6439,note_off,114,0,0,,12,,,71,127
6440,note_off,1,0,0,,6,,,66,127
6440,note_on,0,0,0,,7,,,67,127
6554,note_off,114,0,0,,7,,,67,127
6554,note_off,0,0,0,,2,,,62,127
6555,note_on,1,0,0,,2,,,62,127
6555,note_on,0,0,0,,6,,,66,127
6669,note_off,114,0,0,,2,,,62,127
6670,note_on,1,0,0,,10,,,57,127
6784,note_off,114,0,0,,10,,,57,127
6785,note_on,1,0,0,,12,,,59,127
6899,note_off,114,0,0,,12,,,59,127
6900,note_on,1,0,0,,7,,,55,127
7010,note_off,110,0,0,,6,,,66,127
7014,note_off,4,0,0,,7,,,55,127
7015,note_on,1,0,0,,6,,,54,127
7129,note_off,114,0,0,,6,,,54,127
7130,note_on,1,0,0,,2,,,50,127
7244,note_off,114,0,0,,2,,,50,127
7245,note_on,1,0,0,,4,,,52,127
7359,note_off,114,0,0,,4,,,52,127
7360,note_on,1,0,0,,1,,,49,127
7474,note_off,114,0,0,,1,,,49,127
7475,note_on,1,0,0,,2,,,50,127
7704,note_off,229,0,0,,2,,,50,127
7705,note_on,1,0,0,,2,,,62,127
7705,note_on,0,0,0,,6,,,66,127
7934,note_off,229,0,0,,6,,,66,127
7934,note_off,0,0,0,,2,,,62,127
7935,note_on,1,0,0,,2,,,62,127
7935,note_on,0,0,0,,7,,,67,127
7991,note_off,56,0,0,,7,,,67,127
7992,note_on,1,0,0,,6,,,66,127
8048,note_off,56,0,0,,6,,,66,127
8049,note_on,1,0,0,,7,,,67,127
8105,note_off,56,0,0,,7,,,67,127
8106,note_on,1,0,0,,6,,,66,127
8162,note_off,56,0,0,,6,,,66,127
8162,note_off,0,0,0,,2,,,62,127
8163,note_on,1,0,0,,1,,,61,127
8163,note_on,0,0,0,,7,,,67,127
8219,note_off,56,0,0,,7,,,67,127
8220,note_on,1,0,0,,6,,,66,127
8276,note_off,56,0,0,,6,,,66,127
8277,note_on,1,0,0,,4,,,64,127
8333,note_off,56,0,0,,4,,,64,127
8334,note_on,1,0,0,,6,,,66,127
8390,note_off,56,0,0,,6,,,66,127
8390,note_off,0,0,0,,1,,,61,127
8391,note_on,1,0,0,,12,,,47,127
8391,note_on,0,0,0,,1,,,73,127
8620,note_off,229,0,0,,1,,,73,127
8621,note_on,1,0,0,,12,,,59,127
8621,note_on,0,0,0,,2,,,74,127
8847,note_off,226,0,0,,12,,,47,127
8851,note_off,4,0,0,,2,,,74,127
8851,note_off,0,0,0,,12,,,59,127
8852,note_on,1,0,0,,12,,,59,127
8852,note_on,0,0,0,,4,,,76,127
8908,note_off,56,0,0,,4,,,76,127
8909,note_on,1,0,0,,2,,,74,127
8965,note_off,56,0,0,,2,,,74,127
8966,note_on,1,0,0,,4,,,76,127
9022,note_off,56,0,0,,4,,,76,127
9023,note_on,1,0,0,,2,,,74,127
9079,note_off,56,0,0,,2,,,74,127
9079,note_off,0,0,0,,12,,,59,127
9080,note_on,1,0,0,,10,,,57,127
9080,note_on,0,0,0,,4,,,76,127
9136,note_off,56,0,0,,4,,,76,127
9137,note_on,1,0,0,,2,,,74,127
9193,note_off,56,0,0,,2,,,74,127
9194,note_on,1,0,0,,1,,,73,127
9250,note_off,56,0,0,,1,,,73,127
9251,note_on,1,0,0,,2,,,74,127
9307,note_off,56,0,0,,2,,,74,127
9307,note_off,0,0,0,,10,,,57,127
9308,note_on,1,0,0,,7,,,43,127
9308,note_on,0,0,0,,11,,,82,127
9537,note_off,229,0,0,,11,,,82,127
9538,note_on,1,0,0,,7,,,55,127
9538,note_on,0,0,0,,12,,,83,127
9764,note_off,226,0,0,,7,,,43,127
9768,note_off,4,0,0,,12,,,83,127
9768,note_off,0,0,0,,7,,,55,127
9769,note_on,1,0,0,,7,,,55,127
9769,note_on,0,0,0,,1,,,73,127
9825,note_off,56,0,0,,1,,,73,127
9826,note_on,1,0,0,,12,,,71,127
9882,note_off,56,0,0,,12,,,71,127
9883,note_on,1,0,0,,1,,,73,127
9939,note_off,56,0,0,,1,,,73,127
9940,note_on,1,0,0,,12,,,71,127
9996,note_off,56,0,0,,12,,,71,127
9996,note_off,0,0,0,,7,,,55,127
9997,note_on,1,0,0,,6,,,54,127
9997,note_on,0,0,0,,1,,,73,127
10053,note_off,56,0,0,,1,,,73,127
10054,note_on,1,0,0,,12,,,71,127
10110,note_off,56,0,0,,12,,,71,127
10111,note_on,1,0,0,,11,,,70,127
10167,note_off,56,0,0,,11,,,70,127
10168,note_on,1,0,0,,12,,,71,127
10224,note_off,56,0,0,,12,,,71,127
10224,note_off,0,0,0,,6,,,54,127
10225,note_on,1,0,0,,4,,,52,127
10225,note_on,0,0,0,,6,,,78,127
10454,note_off,229,0,0,,6,,,78,127
10454,note_off,0,0,0,,4,,,52,127
10455,note_on,1,0,0,,4,,,64,127
10455,note_on,0,0,0,,4,,,52,127
10455,note_on,0,0,0,,7,,,79,127
10684,note_off,229,0,0,,4,,,52,127
10684,note_off,0,0,0,,4,,,64,127
10685,note_on,1,0,0,,4,,,64,127
10685,note_on,0,0,0,,4,,,52,127
10914,note_off,229,0,0,,4,,,52,127
10914,note_off,0,0,0,,4,,,64,127
10914,note_off,0,0,0,,7,,,79,127
10915,note_on,1,0,0,,4,,,52,127
10915,note_on,0,0,0,,4,,,64,127
10915,note_on,0,0,0,,12,,,83,127
11144,note_off,229,0,0,,12,,,83,127
11144,note_off,0,0,0,,4,,,64,127
11144,note_off,0,0,0,,4,,,52,127
11145,note_on,1,0,0,,4,,,64,127
11145,note_on,0,0,0,,4,,,52,127
11145,note_on,0,0,0,,7,,,79,127
11145,note_on,0,0,0,,10,,,81,127
11259,note_off,114,0,0,,10,,,81,127
11259,note_off,0,0,0,,7,,,79,127
11260,note_on,1,0,0,,6,,,78,127
11374,note_off,114,0,0,,6,,,78,127
11374,note_off,0,0,0,,4,,,52,127
11374,note_off,0,0,0,,4,,,64,127
11375,note_on,1,0,0,,4,,,64,127
11375,note_on,0,0,0,,4,,,52,127
11375,note_on,0,0,0,,4,,,76,127
11604,note_off,229,0,0,,4,,,76,127
11604,note_off,0,0,0,,4,,,52,127
11604,note_off,0,0,0,,4,,,64,127
11605,note_on,1,0,0,,4,,,64,127
11605,note_on,0,0,0,,4,,,52,127
11605,note_on,0,0,0,,4,,,76,127
11719,note_off,114,0,0,,4,,,76,127
11720,note_on,1,0,0,,6,,,78,127
11834,note_off,114,0,0,,6,,,78,127
11834,note_off,0,0,0,,4,,,52,127
11834,note_off,0,0,0,,4,,,64,127
11835,note_on,1,0,0,,4,,,64,127
11835,note_on,0,0,0,,4,,,52,127
11835,note_on,0,0,0,,7,,,79,127
12064,note_off,229,0,0,,7,,,79,127
12064,note_off,0,0,0,,4,,,52,127
12064,note_off,0,0,0,,4,,,64,127
12065,note_on,1,0,0,,4,,,64,127
12065,note_on,0,0,0,,6,,,54,127
12065,note_on,0,0,0,,6,,,78,127
12065,note_on,0,0,0,,4,,,76,127
12179,note_off,114,0,0,,4,,,76,127
12179,note_off,0,0,0,,6,,,78,127
12180,note_on,1,0,0,,2,,,74,127
12294,note_off,114,0,0,,2,,,74,127
12294,note_off,0,0,0,,6,,,54,127
12294,note_off,0,0,0,,4,,,64,127
12295,note_on,1,0,0,,4,,,64,127
12295,note_on,0,0,0,,6,,,54,127
12295,note_on,0,0,0,,1,,,73,127
12524,note_off,229,0,0,,1,,,73,127
12524,note_off,0,0,0,,6,,,54,127
12524,note_off,0,0,0,,4,,,64,127
12525,note_on,1,0,0,,4,,,64,127
12525,note_on,0,0,0,,6,,,54,127
12525,note_on,0,0,0,,1,,,73,127
12639,note_off,114,0,0,,1,,,73,127
12640,note_on,1,0,0,,2,,,74,127
12754,note_off,114,0,0,,2,,,74,127
12754,note_off,0,0,0,,6,,,54,127
12754,note_off,0,0,0,,4,,,64,127
12755,note_on,1,0,0,,4,,,64,127
12755,note_on,0,0,0,,6,,,54,127
12755,note_on,0,0,0,,4,,,76,127
12984,note_off,229,0,0,,4,,,76,127
12984,note_off,0,0,0,,6,,,54,127
12984,note_off,0,0,0,,4,,,64,127
12985,note_on,1,0,0,,4,,,64,127
12985,note_on,0,0,0,,7,,,55,127
12985,note_on,0,0,0,,1,,,73,127
12985,note_on,0,0,0,,2,,,74,127
13099,note_off,114,0,0,,2,,,74,127
13099,note_off,0,0,0,,1,,,73,127
13100,note_on,1,0,0,,12,,,71,127
13214,note_off,114,0,0,,12,,,71,127
13214,note_off,0,0,0,,7,,,55,127
13214,note_off,0,0,0,,4,,,64,127
13215,note_on,1,0,0,,4,,,64,127
13215,note_on,0,0,0,,7,,,55,127
13215,note_on,0,0,0,,11,,,70,127
13444,note_off,229,0,0,,7,,,55,127
13444,note_off,0,0,0,,4,,,64,127
13445,note_on,1,0,0,,7,,,55,127
13445,note_on,0,0,0,,4,,,64,127
13674,note_off,229,0,0,,4,,,64,127
13674,note_off,0,0,0,,7,,,55,127
13675,note_on,1,0,0,,4,,,64,127
13675,note_on,0,0,0,,7,,,55,127
13904,note_off,229,0,0,,7,,,55,127
13904,note_off,0,0,0,,4,,,64,127
13904,note_off,0,0,0,,11,,,70,127
13905,note_on,1,0,0,,5,,,65,127
13905,note_on,0,0,0,,8,,,56,127
14020,note_on,115,0,0,,12,,,71,127
14134,note_off,114,0,0,,12,,,71,127
14134,note_off,0,0,0,,8,,,56,127
14134,note_off,0,0,0,,5,,,65,127
14135,note_on,1,0,0,,5,,,65,127
14135,note_on,0,0,0,,8,,,56,127
14135,note_on,0,0,0,,1,,,73,127
14249,note_off,114,0,0,,1,,,73,127
14250,note_on,1,0,0,,2,,,74,127
14364,note_off,114,0,0,,2,,,74,127
14364,note_off,0,0,0,,8,,,56,127
14364,note_off,0,0,0,,5,,,65,127
14365,note_on,1,0,0,,5,,,65,127
14365,note_on,0,0,0,,8,,,56,127
14365,note_on,0,0,0,,2,,,74,127
14479,note_off,114,0,0,,2,,,74,127
14480,note_on,1,0,0,,1,,,73,127
14594,note_off,114,0,0,,1,,,73,127
14594,note_off,0,0,0,,8,,,56,127
14594,note_off,0,0,0,,5,,,65,127
14595,note_on,1,0,0,,5,,,65,127
14595,note_on,0,0,0,,8,,,56,127
14595,note_on,0,0,0,,1,,,73,127
14709,note_off,114,0,0,,1,,,73,127
14710,note_on,1,0,0,,12,,,71,127
14824,note_off,114,0,0,,12,,,71,127
14824,note_off,0,0,0,,8,,,56,127
14824,note_off,0,0,0,,5,,,65,127
14825,note_on,1,0,0,,11,,,58,127
14825,note_on,0,0,0,,6,,,66,127
14825,note_on,0,0,0,,1,,,73,127
14939,note_off,114,0,0,,1,,,73,127
14940,note_on,1,0,0,,2,,,74,127
15054,note_off,114,0,0,,2,,,74,127
15054,note_off,0,0,0,,6,,,66,127
15054,note_off,0,0,0,,11,,,58,127
15055,note_on,1,0,0,,6,,,66,127
15055,note_on,0,0,0,,11,,,58,127
15055,note_on,0,0,0,,2,,,74,127
15169,note_off,114,0,0,,2,,,74,127
15170,note_on,1,0,0,,4,,,76,127
15284,note_off,114,0,0,,4,,,76,127
15284,note_off,0,0,0,,11,,,58,127
15284,note_off,0,0,0,,6,,,66,127
15285,note_on,1,0,0,,6,,,66,127
15285,note_on,0,0,0,,11,,,58,127
15285,note_on,0,0,0,,4,,,76,127
15399,note_off,114,0,0,,4,,,76,127
15400,note_on,1,0,0,,2,,,74,127
15514,note_off,114,0,0,,2,,,74,127
15514,note_off,0,0,0,,11,,,58,127
15514,note_off,0,0,0,,6,,,66,127
15515,note_on,1,0,0,,6,,,66,127
15515,note_on,0,0,0,,11,,,58,127
15515,note_on,0,0,0,,2,,,74,127
15629,note_off,114,0,0,,2,,,74,127
15630,note_on,1,0,0,,1,,,73,127
15744,note_off,114,0,0,,1,,,73,127
15744,note_off,0,0,0,,11,,,58,127
15744,note_off,0,0,0,,6,,,66,127
15745,note_on,1,0,0,,6,,,66,127
15745,note_on,0,0,0,,10,,,57,127
15745,note_on,0,0,0,,3,,,75,127
15859,note_off,114,0,0,,3,,,75,127
15860,note_on,1,0,0,,4,,,76,127
15974,note_off,114,0,0,,4,,,76,127
15974,note_off,0,0,0,,10,,,57,127
15974,note_off,0,0,0,,6,,,66,127
15975,note_on,1,0,0,,6,,,66,127
15975,note_on,0,0,0,,10,,,57,127
15975,note_on,0,0,0,,4,,,76,127
16089,note_off,114,0,0,,4,,,76,127
16090,note_on,1,0,0,,6,,,78,127
16204,note_off,114,0,0,,6,,,78,127
16204,note_off,0,0,0,,10,,,57,127
16204,note_off,0,0,0,,6,,,66,127
16205,note_on,1,0,0,,6,,,66,127
16205,note_on,0,0,0,,10,,,57,127
16205,note_on,0,0,0,,6,,,78,127
16319,note_off,114,0,0,,6,,,78,127
16320,note_on,1,0,0,,4,,,76,127
16434,note_off,114,0,0,,4,,,76,127
16434,note_off,0,0,0,,10,,,57,127
16434,note_off,0,0,0,,6,,,66,127
16435,note_on,1,0,0,,6,,,66,127
16435,note_on,0,0,0,,10,,,57,127
16435,note_on,0,0,0,,4,,,76,127
16549,note_off,114,0,0,,4,,,76,127
16550,note_on,1,0,0,,3,,,75,127
16664,note_off,114,0,0,,3,,,75,127
16664,note_off,0,0,0,,10,,,57,127
16664,note_off,0,0,0,,6,,,66,127
16665,note_on,1,0,0,,7,,,55,127
16665,note_on,0,0,0,,4,,,64,127
16665,note_on,0,0,0,,4,,,76,127
16780,note_on,115,0,0,,12,,,83,127
16893,note_off,113,0,0,,4,,,76,127
16894,note_off,1,0,0,,12,,,83,127
16894,note_off,0,0,0,,4,,,64,127
16894,note_off,0,0,0,,7,,,55,127
16895,note_on,1,0,0,,7,,,55,127
16895,note_on,0,0,0,,4,,,64,127
16895,note_on,0,0,0,,12,,,83,127
17009,note_off,114,0,0,,12,,,83,127
17010,note_on,1,0,0,,7,,,79,127
17124,note_off,114,0,0,,7,,,79,127
17124,note_off,0,0,0,,4,,,64,127
17124,note_off,0,0,0,,7,,,55,127
17125,note_on,1,0,0,,4,,,64,127
17125,note_on,0,0,0,,7,,,55,127
17125,note_on,0,0,0,,7,,,79,127
17239,note_off,114,0,0,,7,,,79,127
17240,note_on,1,0,0,,6,,,78,127
17354,note_off,114,0,0,,6,,,78,127
17354,note_off,0,0,0,,7,,,55,127
17354,note_off,0,0,0,,4,,,64,127
17355,note_on,1,0,0,,4,,,64,127
17355,note_on,0,0,0,,7,,,55,127
17355,note_on,0,0,0,,4,,,76,127
17469,note_off,114,0,0,,4,,,76,127
17470,note_on,1,0,0,,2,,,74,127
17584,note_off,114,0,0,,2,,,74,127
17584,note_off,0,0,0,,7,,,55,127
17584,note_off,0,0,0,,4,,,64,127
17585,note_on,1,0,0,,4,,,64,127
17585,note_on,0,0,0,,10,,,57,127
17585,note_on,0,0,0,,7,,,55,127
17585,note_on,0,0,0,,1,,,73,127
17700,note_on,115,0,0,,10,,,81,127
17813,note_off,113,0,0,,1,,,73,127
17814,note_off,1,0,0,,10,,,81,127
17814,note_off,0,0,0,,7,,,55,127
17814,note_off,0,0,0,,10,,,57,127
17814,note_off,0,0,0,,4,,,64,127
17815,note_on,1,0,0,,4,,,64,127
17815,note_on,0,0,0,,10,,,57,127
17815,note_on,0,0,0,,7,,,55,127
17815,note_on,0,0,0,,10,,,81,127
17929,note_off,114,0,0,,10,,,81,127
17930,note_on,1,0,0,,4,,,76,127
18044,note_off,114,0,0,,4,,,76,127
18044,note_off,0,0,0,,7,,,55,127
18044,note_off,0,0,0,,10,,,57,127
18044,note_off,0,0,0,,4,,,64,127
18045,note_on,1,0,0,,4,,,64,127
18045,note_on,0,0,0,,10,,,57,127
18045,note_on,0,0,0,,7,,,55,127
18045,note_on,0,0,0,,4,,,76,127
18159,note_off,114,0,0,,4,,,76,127
18160,note_on,1,0,0,,2,,,74,127
18274,note_off,114,0,0,,2,,,74,127
18274,note_off,0,0,0,,7,,,55,127
18274,note_off,0,0,0,,10,,,57,127
18274,note_off,0,0,0,,4,,,64,127
18275,note_on,1,0,0,,4,,,64,127
18275,note_on,0,0,0,,7,,,55,127
18275,note_on,0,0,0,,10,,,57,127
18275,note_on,0,0,0,,2,,,74,127
18389,note_off,114,0,0,,2,,,74,127
18390,note_on,1,0,0,,1,,,73,127
18504,note_off,114,0,0,,1,,,73,127
18504,note_off,0,0,0,,10,,,57,127
18504,note_off,0,0,0,,7,,,55,127
18504,note_off,0,0,0,,4,,,64,127
18505,note_on,1,0,0,,2,,,62,127
18505,note_on,0,0,0,,6,,,54,127
18505,note_on,0,0,0,,2,,,74,127
18620,note_on,115,0,0,,10,,,81,127
18733,note_off,113,0,0,,2,,,74,127
18734,note_off,1,0,0,,10,,,81,127
18734,note_off,0,0,0,,6,,,54,127
18734,note_off,0,0,0,,2,,,62,127
18735,note_on,1,0,0,,2,,,62,127
18735,note_on,0,0,0,,6,,,54,127
18735,note_on,0,0,0,,10,,,81,127
18849,note_off,114,0,0,,10,,,81,127
18850,note_on,1,0,0,,6,,,78,127
18964,note_off,114,0,0,,6,,,78,127
18964,note_off,0,0,0,,6,,,54,127
18964,note_off,0,0,0,,2,,,62,127
18965,note_on,1,0,0,,6,,,54,127
18965,note_on,0,0,0,,2,,,62,127
18965,note_on,0,0,0,,6,,,78,127
19079,note_off,114,0,0,,6,,,78,127
19080,note_on,1,0,0,,2,,,74,127
19194,note_off,114,0,0,,2,,,74,127
19194,note_off,0,0,0,,2,,,62,127
19194,note_off,0,0,0,,6,,,54,127
19195,note_on,1,0,0,,2,,,62,127
19195,note_on,0,0,0,,6,,,54,127
19195,note_on,0,0,0,,2,,,74,127
19309,note_off,114,0,0,,2,,,74,127
19310,note_on,1,0,0,,12,,,71,127
19424,note_off,114,0,0,,12,,,71,127
19424,note_off,0,0,0,,6,,,54,127
19424,note_off,0,0,0,,2,,,62,127
19425,note_on,1,0,0,,1,,,61,127
19425,note_on,0,0,0,,4,,,52,127
19425,note_on,0,0,0,,1,,,73,127
19540,note_on,115,0,0,,10,,,81,127
19653,note_off,113,0,0,,1,,,73,127
19654,note_off,1,0,0,,10,,,81,127
19654,note_off,0,0,0,,4,,,52,127
19654,note_off,0,0,0,,1,,,61,127
19655,note_on,1,0,0,,1,,,61,127
19655,note_on,0,0,0,,4,,,52,127
19655,note_on,0,0,0,,10,,,81,127
19769,note_off,114,0,0,,10,,,81,127
19770,note_on,1,0,0,,4,,,76,127
19884,note_off,114,0,0,,4,,,76,127
19884,note_off,0,0,0,,4,,,52,127
19884,note_off,0,0,0,,1,,,61,127
19885,note_on,1,0,0,,4,,,52,127
19885,note_on,0,0,0,,1,,,61,127
19885,note_on,0,0,0,,4,,,76,127
19999,note_off,114,0,0,,4,,,76,127
20000,note_on,1,0,0,,1,,,73,127
20114,note_off,114,0,0,,1,,,73,127
20114,note_off,0,0,0,,1,,,61,127
20114,note_off,0,0,0,,4,,,52,127
20115,note_on,1,0,0,,1,,,61,127
20115,note_on,0,0,0,,4,,,52,127
20115,note_on,0,0,0,,1,,,73,127
20229,note_off,114,0,0,,1,,,73,127
20230,note_on,1,0,0,,10,,,69,127
20344,note_off,114,0,0,,10,,,69,127
20344,note_off,0,0,0,,4,,,52,127
20344,note_off,0,0,0,,1,,,61,127
20345,note_on,1,0,0,,12,,,59,127
20345,note_on,0,0,0,,2,,,50,127
20345,note_on,0,0,0,,12,,,71,127
20460,note_on,115,0,0,,10,,,81,127
20573,note_off,113,0,0,,12,,,71,127
20574,note_off,1,0,0,,10,,,81,127
20574,note_off,0,0,0,,2,,,50,127
20574,note_off,0,0,0,,12,,,59,127
20575,note_on,1,0,0,,12,,,59,127
20575,note_on,0,0,0,,2,,,50,127
20575,note_on,0,0,0,,10,,,81,127
20689,note_off,114,0,0,,10,,,81,127
20690,note_on,1,0,0,,2,,,74,127
20804,note_off,114,0,0,,2,,,74,127
20804,note_off,0,0,0,,2,,,50,127
20804,note_off,0,0,0,,12,,,59,127
20805,note_on,1,0,0,,12,,,59,127
20805,note_on,0,0,0,,2,,,50,127
20805,note_on,0,0,0,,2,,,74,127
20919,note_off,114,0,0,,2,,,74,127
20920,note_on,1,0,0,,12,,,71,127
21034,note_off,114,0,0,,12,,,71,127
21034,note_off,0,0,0,,2,,,50,127
21034,note_off,0,0,0,,12,,,59,127
21035,note_on,1,0,0,,12,,,59,127
21035,note_on,0,0,0,,2,,,50,127
21035,note_on,0,0,0,,12,,,71,127
21149,note_off,114,0,0,,12,,,71,127
21150,note_on,1,0,0,,8,,,68,127
21264,note_off,114,0,0,,8,,,68,127
21264,note_off,0,0,0,,2,,,50,127
21264,note_off,0,0,0,,12,,,59,127
21265,note_on,1,0,0,,10,,,57,127
21265,note_on,0,0,0,,1,,,49,127
21265,note_on,0,0,0,,10,,,69,127
21379,note_off,114,0,0,,10,,,69,127
21380,note_on,1,0,0,,4,,,76,127
21494,note_off,114,0,0,,4,,,76,127
21494,note_off,0,0,0,,1,,,49,127
21494,note_off,0,0,0,,10,,,57,127
21495,note_on,1,0,0,,10,,,57,127
21495,note_on,0,0,0,,1,,,49,127
21495,note_on,0,0,0,,4,,,76,127
21609,note_off,114,0,0,,4,,,76,127
21610,note_on,1,0,0,,10,,,69,127
21724,note_off,114,0,0,,10,,,69,127
21724,note_off,0,0,0,,1,,,49,127
21724,note_off,0,0,0,,10,,,57,127
21725,note_on,1,0,0,,12,,,59,127
21725,note_on,0,0,0,,8,,,56,127
21725,note_on,0,0,0,,12,,,71,127
21839,note_off,114,0,0,,12,,,71,127
21840,note_on,1,0,0,,4,,,76,127
21954,note_off,114,0,0,,4,,,76,127
21954,note_off,0,0,0,,8,,,56,127
21954,note_off,0,0,0,,12,,,59,127
21955,note_on,1,0,0,,12,,,59,127
21955,note_on,0,0,0,,8,,,56,127
21955,note_on,0,0,0,,4,,,76,127
22069,note_off,114,0,0,,4,,,76,127
22070,note_on,1,0,0,,12,,,71,127
22184,note_off,114,0,0,,12,,,71,127
22184,note_off,0,0,0,,8,,,56,127
22184,note_off,0,0,0,,12,,,59,127
22185,note_on,1,0,0,,10,,,57,127
22185,note_on,0,0,0,,1,,,73,127
22299,note_off,114,0,0,,1,,,73,127
22300,note_on,1,0,0,,2,,,74,127
22356,note_off,56,0,0,,2,,,74,127
22357,note_on,1,0,0,,4,,,76,127
22413,note_off,56,0,0,,4,,,76,127
22414,note_on,1,0,0,,2,,,74,127
22528,note_off,114,0,0,,2,,,74,127
22529,note_on,1,0,0,,1,,,73,127
22643,note_off,114,0,0,,1,,,73,127
22643,note_off,0,0,0,,10,,,57,127
22644,note_on,1,0,0,,2,,,50,127
22644,note_on,0,0,0,,12,,,71,127
22758,note_off,114,0,0,,12,,,71,127
22759,note_on,1,0,0,,10,,,69,127
22873,note_off,114,0,0,,10,,,69,127
22874,note_on,1,0,0,,8,,,68,127
22988,note_off,114,0,0,,8,,,68,127
22989,note_on,1,0,0,,6,,,66,127
23103,note_off,114,0,0,,6,,,66,127
23103,note_off,0,0,0,,2,,,50,127
23104,note_on,1,0,0,,4,,,40,127
23334,note_on,230,0,0,,4,,,64,127
23563,note_off,229,0,0,,4,,,64,127
23564,note_on,1,0,0,,6,,,66,127
23610,note_off,46,0,0,,6,,,66,127
23610,note_on,0,0,0,,4,,,64,127
23656,note_on,46,0,0,,6,,,66,127
23658,note_off,2,0,0,,4,,,64,127
23701,note_off,43,0,0,,6,,,66,127
23702,note_on,1,0,0,,4,,,64,127
23748,note_on,46,0,0,,6,,,66,127
23750,note_off,2,0,0,,4,,,64,127
23793,note_off,43,0,0,,6,,,66,127
23793,note_off,0,0,0,,4,,,40,127
23794,note_on,1,0,0,,4,,,52,127
23794,note_on,0,0,0,,4,,,64,127
23840,note_off,46,0,0,,4,,,64,127
23840,note_on,0,0,0,,6,,,66,127
23886,note_on,46,0,0,,4,,,64,127
23888,note_off,2,0,0,,6,,,66,127
23931,note_off,43,0,0,,4,,,64,127
23932,note_on,1,0,0,,3,,,63,127
23978,note_on,46,0,0,,4,,,64,127
23980,note_off,2,0,0,,3,,,63,127
24023,note_off,43,0,0,,4,,,64,127
24023,note_off,0,0,0,,4,,,52,127
24024,note_on,1,0,0,,10,,,45,127
24024,note_on,0,0,0,,1,,,73,127
24253,note_off,229,0,0,,1,,,73,127
24254,note_on,1,0,0,,10,,,57,127
24254,note_on,0,0,0,,6,,,66,127
24292,note_on,38,0,0,,4,,,64,127
24299,note_off,7,0,0,,6,,,66,127
24330,note_on,31,0,0,,6,,,66,127
24337,note_off,7,0,0,,4,,,64,127
24368,note_on,31,0,0,,4,,,64,127
24375,note_off,7,0,0,,6,,,66,127
24406,note_on,31,0,0,,3,,,63,127
24413,note_off,7,0,0,,4,,,64,127
24444,note_on,31,0,0,,4,,,64,127
24451,note_off,7,0,0,,3,,,63,127
24477,note_off,26,0,0,,10,,,45,127
24481,note_off,4,0,0,,10,,,57,127
24482,note_on,1,0,0,,8,,,56,127
24482,note_on,0,0,0,,2,,,74,127
24489,note_off,7,0,0,,4,,,64,127
24711,note_off,222,0,0,,2,,,74,127
24711,note_off,0,0,0,,8,,,56,127
24712,note_on,1,0,0,,4,,,52,127
24712,note_on,0,0,0,,6,,,66,127
24750,note_on,38,0,0,,4,,,64,127
24757,note_off,7,0,0,,6,,,66,127
24788,note_on,31,0,0,,6,,,66,127
24795,note_off,7,0,0,,4,,,64,127
24826,note_on,31,0,0,,4,,,64,127
24833,note_off,7,0,0,,6,,,66,127
24864,note_on,31,0,0,,3,,,63,127
24871,note_off,7,0,0,,4,,,64,127
24902,note_on,31,0,0,,4,,,64,127
24909,note_off,7,0,0,,3,,,63,127
24939,note_off,30,0,0,,4,,,52,127
24940,note_on,1,0,0,,10,,,45,127
24940,note_on,0,0,0,,1,,,73,127
24947,note_off,7,0,0,,4,,,64,127
25169,note_off,222,0,0,,1,,,73,127
25170,note_on,1,0,0,,10,,,57,127
25170,note_on,0,0,0,,6,,,66,127
25208,note_on,38,0,0,,4,,,64,127
25215,note_off,7,0,0,,6,,,66,127
25246,note_on,31,0,0,,6,,,66,127
25253,note_off,7,0,0,,4,,,64,127
25284,note_on,31,0,0,,4,,,64,127
25291,note_off,7,0,0,,6,,,66,127
25322,note_on,31,0,0,,3,,,63,127
25329,note_off,7,0,0,,4,,,64,127
25360,note_on,31,0,0,,4,,,64,127
25367,note_off,7,0,0,,3,,,63,127
25393,note_off,26,0,0,,10,,,45,127
25397,note_off,4,0,0,,10,,,57,127
25398,note_on,1,0,0,,8,,,56,127
25398,note_on,0,0,0,,12,,,71,127
25405,note_off,7,0,0,,4,,,64,127
25627,note_off,222,0,0,,12,,,71,127
25627,note_off,0,0,0,,8,,,56,127
25628,note_on,1,0,0,,4,,,52,127
25628,note_on,0,0,0,,6,,,66,127
25666,note_on,38,0,0,,4,,,64,127
25673,note_off,7,0,0,,6,,,66,127
25704,note_on,31,0,0,,6,,,66,127
25711,note_off,7,0,0,,4,,,64,127
25742,note_on,31,0,0,,4,,,64,127
25749,note_off,7,0,0,,6,,,66,127
25780,note_on,31,0,0,,3,,,63,127
25787,note_off,7,0,0,,4,,,64,127
25818,note_on,31,0,0,,4,,,64,127
25825,note_off,7,0,0,,3,,,63,127
25855,note_off,30,0,0,,4,,,52,127
25856,note_on,1,0,0,,10,,,45,127
25856,note_on,0,0,0,,1,,,73,127
25863,note_off,7,0,0,,4,,,64,127
26085,note_off,222,0,0,,1,,,73,127
26086,note_on,1,0,0,,10,,,57,127
26086,note_on,0,0,0,,6,,,66,127
26124,note_on,38,0,0,,4,,,64,127
26131,note_off,7,0,0,,6,,,66,127
26162,note_on,31,0,0,,6,,,66,127
26169,note_off,7,0,0,,4,,,64,127
26200,note_on,31,0,0,,4,,,64,127
26207,note_off,7,0,0,,6,,,66,127
26238,note_on,31,0,0,,3,,,63,127
26245,note_off,7,0,0,,4,,,64,127
26276,note_on,31,0,0,,4,,,64,127
26283,note_off,7,0,0,,3,,,63,127
26309,note_off,26,0,0,,10,,,45,127
26313,note_off,4,0,0,,10,,,57,127
26314,note_on,1,0,0,,8,,,56,127
26314,note_on,0,0,0,,2,,,74,127
26321,note_off,7,0,0,,4,,,64,127
26543,note_off,222,0,0,,2,,,74,127
26543,note_off,0,0,0,,8,,,56,127
26544,note_on,1,0,0,,4,,,52,127
26544,note_on,0,0,0,,6,,,66,127
26582,note_on,38,0,0,,4,,,64,127
26589,note_off,7,0,0,,6,,,66,127
26620,note_on,31,0,0,,6,,,66,127
26627,note_off,7,0,0,,4,,,64,127
26658,note_on,31,0,0,,4,,,64,127
26665,note_off,7,0,0,,6,,,66,127
26696,note_on,31,0,0,,3,,,63,127
26703,note_off,7,0,0,,4,,,64,127
26741,note_off,38,0,0,,3,,,63,127
26770,note_off,29,0,0,,4,,,52,127
26772,note_on,2,0,0,,1,,,73,127
26772,note_on,0,0,0,,10,,,69,127
26772,note_on,0,0,0,,4,,,64,127
27002,note_on,230,0,0,,12,,,47,127
27040,note_on,38,0,0,,10,,,45,127
27058,note_off,18,0,0,,12,,,47,127
27078,note_on,20,0,0,,12,,,47,127
27096,note_off,18,0,0,,10,,,45,127
27116,note_on,20,0,0,,10,,,45,127
27134,note_off,18,0,0,,12,,,47,127
27154,note_on,20,0,0,,8,,,44,127
27172,note_off,18,0,0,,10,,,45,127
27192,note_on,20,0,0,,10,,,45,127
27210,note_off,18,0,0,,8,,,44,127
27229,note_off,19,0,0,,4,,,64,127
27229,note_off,0,0,0,,10,,,69,127
27229,note_off,0,0,0,,1,,,73,127
27230,note_on,1,0,0,,8,,,56,127
27230,note_on,0,0,0,,2,,,74,127
27230,note_on,0,0,0,,4,,,64,127
27230,note_on,0,0,0,,12,,,71,127
27248,note_off,18,0,0,,10,,,45,127
27459,note_off,211,0,0,,8,,,56,127
27460,note_on,1,0,0,,12,,,47,127
27498,note_on,38,0,0,,10,,,45,127
27516,note_off,18,0,0,,12,,,47,127
27536,note_on,20,0,0,,12,,,47,127
27554,note_off,18,0,0,,10,,,45,127
27574,note_on,20,0,0,,10,,,45,127
27592,note_off,18,0,0,,12,,,47,127
27612,note_on,20,0,0,,8,,,44,127
27630,note_off,18,0,0,,10,,,45,127
27650,note_on,20,0,0,,10,,,45,127
27668,note_off,18,0,0,,8,,,44,127
27687,note_off,19,0,0,,12,,,71,127
27687,note_off,0,0,0,,4,,,64,127
27687,note_off,0,0,0,,2,,,74,127
27688,note_on,1,0,0,,10,,,57,127
27688,note_on,0,0,0,,1,,,73,127
27688,note_on,0,0,0,,4,,,64,127
27688,note_on,0,0,0,,10,,,69,127
27706,note_off,18,0,0,,10,,,45,127
27917,note_off,211,0,0,,10,,,57,127
27918,note_on,1,0,0,,12,,,47,127
27956,note_on,38,0,0,,10,,,45,127
27974,note_off,18,0,0,,12,,,47,127
27994,note_on,20,0,0,,12,,,47,127
28012,note_off,18,0,0,,10,,,45,127
28032,note_on,20,0,0,,10,,,45,127
28050,note_off,18,0,0,,12,,,47,127
28070,note_on,20,0,0,,8,,,44,127
28088,note_off,18,0,0,,10,,,45,127
28108,note_on,20,0,0,,10,,,45,127
28126,note_off,18,0,0,,8,,,44,127
28145,note_off,19,0,0,,10,,,69,127
28145,note_off,0,0,0,,4,,,64,127
28145,note_off,0,0,0,,1,,,73,127
28146,note_on,1,0,0,,12,,,59,127
28146,note_on,0,0,0,,2,,,74,127
28146,note_on,0,0,0,,12,,,71,127
28146,note_on,0,0,0,,4,,,64,127
28164,note_off,18,0,0,,10,,,45,127
28375,note_off,211,0,0,,12,,,59,127
28376,note_on,1,0,0,,12,,,47,127
28414,note_on,38,0,0,,10,,,45,127
28432,note_off,18,0,0,,12,,,47,127
28452,note_on,20,0,0,,12,,,47,127
28470,note_off,18,0,0,,10,,,45,127
28490,note_on,20,0,0,,10,,,45,127
28508,note_off,18,0,0,,12,,,47,127
28528,note_on,20,0,0,,8,,,44,127
28546,note_off,18,0,0,,10,,,45,127
28566,note_on,20,0,0,,10,,,45,127
28584,note_off,18,0,0,,8,,,44,127
28603,note_off,19,0,0,,4,,,64,127
28603,note_off,0,0,0,,12,,,71,127
28603,note_off,0,0,0,,2,,,74,127
28604,note_on,1,0,0,,10,,,57,127
28604,note_on,0,0,0,,10,,,69,127
28604,note_on,0,0,0,,1,,,73,127
28604,note_on,0,0,0,,4,,,64,127
28622,note_off,18,0,0,,10,,,45,127
28833,note_off,211,0,0,,10,,,57,127
28834,note_on,1,0,0,,12,,,47,127
28872,note_on,38,0,0,,10,,,45,127
28890,note_off,18,0,0,,12,,,47,127
28910,note_on,20,0,0,,12,,,47,127
28928,note_off,18,0,0,,10,,,45,127
28948,note_on,20,0,0,,10,,,45,127
28966,note_off,18,0,0,,12,,,47,127
28986,note_on,20,0,0,,8,,,44,127
29004,note_off,18,0,0,,10,,,45,127
29024,note_on,20,0,0,,10,,,45,127
29042,note_off,18,0,0,,8,,,44,127
29061,note_off,19,0,0,,4,,,64,127
29061,note_off,0,0,0,,1,,,73,127
29061,note_off,0,0,0,,10,,,69,127
29062,note_on,1,0,0,,8,,,56,127
29062,note_on,0,0,0,,4,,,64,127
29062,note_on,0,0,0,,12,,,71,127
29062,note_on,0,0,0,,2,,,74,127
29080,note_off,18,0,0,,10,,,45,127
29291,note_off,211,0,0,,8,,,56,127
29292,note_on,1,0,0,,12,,,47,127
29330,note_on,38,0,0,,10,,,45,127
29348,note_off,18,0,0,,12,,,47,127
29368,note_on,20,0,0,,12,,,47,127
29386,note_off,18,0,0,,10,,,45,127
29406,note_on,20,0,0,,10,,,45,127
29424,note_off,18,0,0,,12,,,47,127
29444,note_on,20,0,0,,8,,,44,127
29462,note_off,18,0,0,,10,,,45,127
29482,note_on,20,0,0,,10,,,45,127
29500,note_off,18,0,0,,8,,,44,127
29519,note_off,19,0,0,,2,,,74,127
29519,note_off,0,0,0,,12,,,71,127
29519,note_off,0,0,0,,4,,,64,127
29520,note_on,1,0,0,,10,,,57,127
29520,note_on,0,0,0,,1,,,73,127
29520,note_on,0,0,0,,10,,,69,127
29520,note_on,0,0,0,,4,,,64,127
29538,note_off,18,0,0,,10,,,45,127
29749,note_off,211,0,0,,10,,,57,127
29750,note_on,1,0,0,,12,,,47,127
29788,note_on,38,0,0,,10,,,45,127
29806,note_off,18,0,0,,12,,,47,127
29826,note_on,20,0,0,,12,,,47,127
29844,note_off,18,0,0,,10,,,45,127
29864,note_on,20,0,0,,10,,,45,127
29882,note_off,18,0,0,,12,,,47,127
29902,note_on,20,0,0,,8,,,44,127
29920,note_off,18,0,0,,10,,,45,127
29940,note_on,20,0,0,,10,,,45,127
29958,note_off,18,0,0,,8,,,44,127
29977,note_off,19,0,0,,4,,,64,127
29977,note_off,0,0,0,,10,,,69,127
29977,note_off,0,0,0,,1,,,73,127
29978,note_on,1,0,0,,12,,,59,127
29978,note_on,0,0,0,,12,,,71,127
29978,note_on,0,0,0,,4,,,64,127
29978,note_on,0,0,0,,2,,,74,127
29996,note_off,18,0,0,,10,,,45,127
30207,note_off,211,0,0,,12,,,59,127
30208,note_on,1,0,0,,12,,,47,127
30246,note_on,38,0,0,,10,,,45,127
30264,note_off,18,0,0,,12,,,47,127
30284,note_on,20,0,0,,12,,,47,127
30302,note_off,18,0,0,,10,,,45,127
30322,note_on,20,0,0,,10,,,45,127
30340,note_off,18,0,0,,12,,,47,127
30360,note_on,20,0,0,,8,,,44,127
30378,note_off,18,0,0,,10,,,45,127
30398,note_on,20,0,0,,10,,,45,127
30416,note_off,18,0,0,,8,,,44,127
30435,note_off,19,0,0,,2,,,74,127
30435,note_off,0,0,0,,4,,,64,127
30435,note_off,0,0,0,,12,,,71,127
30436,note_on,1,0,0,,10,,,57,127
30436,note_on,0,0,0,,10,,,69,127
30436,note_on,0,0,0,,1,,,73,127
30436,note_on,0,0,0,,4,,,64,127
30454,note_off,18,0,0,,10,,,45,127
30550,note_off,96,0,0,,4,,,64,127
30550,note_off,0,0,0,,1,,,73,127
30550,note_off,0,0,0,,10,,,69,127
30551,note_on,1,0,0,,2,,,74,127
30607,note_off,56,0,0,,2,,,74,127
30608,note_on,1,0,0,,4,,,76,127
30664,note_off,56,0,0,,4,,,76,127
30665,note_on,1,0,0,,2,,,74,127
30779,note_off,114,0,0,,2,,,74,127
30780,note_on,1,0,0,,1,,,73,127
30894,note_off,114,0,0,,1,,,73,127
30895,note_on,1,0,0,,12,,,71,127
31009,note_off,114,0,0,,12,,,71,127
31010,note_on,1,0,0,,10,,,69,127
31124,note_off,114,0,0,,10,,,69,127
31124,note_off,0,0,0,,10,,,57,127
31125,note_on,1,0,0,,8,,,68,127
31239,note_off,114,0,0,,8,,,68,127
31240,note_on,1,0,0,,10,,,69,127
31354,note_off,114,0,0,,10,,,69,127
31355,note_on,1,0,0,,2,,,50,127
31355,note_on,0,0,0,,6,,,78,127
31469,note_off,114,0,0,,6,,,78,127
31470,note_on,1,0,0,,4,,,76,127
31584,note_off,114,0,0,,4,,,76,127
31585,note_on,1,0,0,,2,,,74,127
31699,note_off,114,0,0,,2,,,74,127
31700,note_on,1,0,0,,1,,,73,127
31814,note_off,114,0,0,,1,,,73,127
31815,note_on,1,0,0,,12,,,71,127
31929,note_off,114,0,0,,12,,,71,127
31930,note_on,1,0,0,,10,,,69,127
32044,note_off,114,0,0,,10,,,69,127
32044,note_off,0,0,0,,2,,,50,127
32045,note_on,1,0,0,,8,,,68,127
32159,note_off,114,0,0,,8,,,68,127
32160,note_on,1,0,0,,6,,,66,127
32274,note_off,114,0,0,,6,,,66,127
32275,note_on,1,0,0,,4,,,52,127
32275,note_on,0,0,0,,4,,,64,127
32390,note_on,115,0,0,,4,,,76,127
32503,note_off,113,0,0,,4,,,64,127
32504,note_off,1,0,0,,4,,,52,127
32505,note_on,1,0,0,,4,,,64,127
32505,note_on,0,0,0,,8,,,68,127
32618,note_off,113,0,0,,4,,,76,127
32619,note_off,1,0,0,,8,,,68,127
32620,note_on,1,0,0,,4,,,76,127
32735,note_on,115,0,0,,8,,,68,127
32848,note_off,113,0,0,,4,,,76,127
32849,note_off,1,0,0,,8,,,68,127
32849,note_off,0,0,0,,4,,,64,127
32850,note_on,1,0,0,,2,,,62,127
32850,note_on,0,0,0,,10,,,69,127
32906,note_off,56,0,0,,10,,,69,127
32906,note_off,0,0,0,,2,,,62,127
32907,note_on,1,0,0,,1,,,61,127
32907,note_on,0,0,0,,12,,,71,127
32963,note_off,56,0,0,,12,,,71,127
32963,note_off,0,0,0,,1,,,61,127
32964,note_on,1,0,0,,12,,,59,127
32964,note_on,0,0,0,,1,,,73,127
33020,note_off,56,0,0,,1,,,73,127
33020,note_off,0,0,0,,12,,,59,127
33021,note_on,1,0,0,,10,,,57,127
33021,note_on,0,0,0,,2,,,74,127
33077,note_off,56,0,0,,2,,,74,127
33077,note_off,0,0,0,,10,,,57,127
33078,note_on,1,0,0,,7,,,55,127
33078,note_on,0,0,0,,4,,,76,127
33134,note_off,56,0,0,,4,,,76,127
33134,note_off,0,0,0,,7,,,55,127
33135,note_on,1,0,0,,6,,,54,127
33135,note_on,0,0,0,,6,,,78,127
33191,note_off,56,0,0,,6,,,78,127
33191,note_off,0,0,0,,6,,,54,127
33192,note_on,1,0,0,,4,,,52,127
33192,note_on,0,0,0,,8,,,80,127
33306,note_off,114,0,0,,8,,,80,127
33307,note_on,1,0,0,,4,,,76,127
33421,note_off,114,0,0,,4,,,52,127
33422,note_on,1,0,0,,4,,,64,127
33422,note_on,0,0,0,,8,,,68,127
33535,note_off,113,0,0,,4,,,76,127
33536,note_off,1,0,0,,8,,,68,127
33537,note_on,1,0,0,,4,,,76,127
33652,note_on,115,0,0,,8,,,68,127
33765,note_off,113,0,0,,4,,,76,127
33766,note_off,1,0,0,,8,,,68,127
33766,note_off,0,0,0,,4,,,64,127
33767,note_on,1,0,0,,2,,,62,127
33767,note_on,0,0,0,,10,,,69,127
33823,note_off,56,0,0,,10,,,69,127
33823,note_off,0,0,0,,2,,,62,127
33824,note_on,1,0,0,,1,,,61,127
33824,note_on,0,0,0,,12,,,71,127
33880,note_off,56,0,0,,12,,,71,127
33880,note_off,0,0,0,,1,,,61,127
33881,note_on,1,0,0,,12,,,59,127
33881,note_on,0,0,0,,1,,,73,127
33937,note_off,56,0,0,,1,,,73,127
33937,note_off,0,0,0,,12,,,59,127
33938,note_on,1,0,0,,10,,,57,127
33938,note_on,0,0,0,,2,,,74,127
33994,note_off,56,0,0,,2,,,74,127
33994,note_off,0,0,0,,10,,,57,127
33995,note_on,1,0,0,,8,,,56,127
33995,note_on,0,0,0,,4,,,76,127
34051,note_off,56,0,0,,4,,,76,127
34051,note_off,0,0,0,,8,,,56,127
34052,note_on,1,0,0,,6,,,54,127
34052,note_on,0,0,0,,6,,,78,127
34108,note_off,56,0,0,,6,,,78,127
34108,note_off,0,0,0,,6,,,54,127
34109,note_on,1,0,0,,4,,,52,127
34109,note_on,0,0,0,,8,,,80,127
34223,note_off,114,0,0,,8,,,80,127
34224,note_on,1,0,0,,6,,,78,127
34338,note_off,114,0,0,,6,,,78,127
34339,note_on,1,0,0,,4,,,76,127
34453,note_off,114,0,0,,4,,,76,127
34454,note_on,1,0,0,,2,,,74,127
34568,note_off,114,0,0,,2,,,74,127
34568,note_off,0,0,0,,4,,,52,127
34569,note_on,1,0,0,,4,,,64,127
34569,note_on,0,0,0,,1,,,73,127
34683,note_off,114,0,0,,1,,,73,127
34684,note_on,1,0,0,,12,,,71,127
34798,note_off,114,0,0,,12,,,71,127
34799,note_on,1,0,0,,10,,,69,127
34913,note_off,114,0,0,,10,,,69,127
34914,note_on,1,0,0,,8,,,68,127
35028,note_off,114,0,0,,8,,,68,127
35028,note_off,0,0,0,,4,,,64,127
35029,note_on,1,0,0,,10,,,57,127
35029,note_on,0,0,0,,10,,,69,127
35144,note_on,115,0,0,,10,,,81,127
35257,note_off,113,0,0,,10,,,69,127
35258,note_off,1,0,0,,10,,,57,127
35259,note_on,1,0,0,,10,,,69,127
35259,note_on,0,0,0,,1,,,73,127
35372,note_off,113,0,0,,10,,,81,127
35373,note_off,1,0,0,,1,,,73,127
35374,note_on,1,0,0,,10,,,81,127
35489,note_on,115,0,0,,1,,,73,127
35602,note_off,113,0,0,,10,,,81,127
35603,note_off,1,0,0,,1,,,73,127
35603,note_off,0,0,0,,10,,,69,127
35604,note_on,1,0,0,,8,,,68,127
35604,note_on,0,0,0,,2,,,74,127
35660,note_off,56,0,0,,2,,,74,127
35660,note_off,0,0,0,,8,,,68,127
35661,note_on,1,0,0,,6,,,66,127
35661,note_on,0,0,0,,4,,,76,127
35717,note_off,56,0,0,,4,,,76,127
35717,note_off,0,0,0,,6,,,66,127
35718,note_on,1,0,0,,4,,,64,127
35718,note_on,0,0,0,,6,,,78,127
35774,note_off,56,0,0,,6,,,78,127
35774,note_off,0,0,0,,4,,,64,127
35775,note_on,1,0,0,,2,,,62,127
35775,note_on,0,0,0,,8,,,80,127
35831,note_off,56,0,0,,8,,,80,127
35831,note_off,0,0,0,,2,,,62,127
35832,note_on,1,0,0,,1,,,61,127
35832,note_on,0,0,0,,10,,,81,127
35888,note_off,56,0,0,,10,,,81,127
35888,note_off,0,0,0,,1,,,61,127
35889,note_on,1,0,0,,12,,,59,127
35889,note_on,0,0,0,,12,,,83,127
35945,note_off,56,0,0,,12,,,83,127
35945,note_off,0,0,0,,12,,,59,127
35946,note_on,1,0,0,,10,,,57,127
35946,note_on,0,0,0,,1,,,85,127
36060,note_off,114,0,0,,1,,,85,127
36061,note_on,1,0,0,,10,,,81,127
36175,note_off,114,0,0,,10,,,57,127
36176,note_on,1,0,0,,10,,,69,127
36176,note_on,0,0,0,,1,,,73,127
36289,note_off,113,0,0,,10,,,81,127
36290,note_off,1,0,0,,1,,,73,127
36291,note_on,1,0,0,,10,,,81,127
36406,note_on,115,0,0,,1,,,73,127
36519,note_off,113,0,0,,10,,,81,127
36520,note_off,1,0,0,,1,,,73,127
36520,note_off,0,0,0,,10,,,69,127
36521,note_on,1,0,0,,8,,,68,127
36521,note_on,0,0,0,,2,,,74,127
36577,note_off,56,0,0,,2,,,74,127
36577,note_off,0,0,0,,8,,,68,127
36578,note_on,1,0,0,,6,,,66,127
36578,note_on,0,0,0,,4,,,76,127
36634,note_off,56,0,0,,4,,,76,127
36634,note_off,0,0,0,,6,,,66,127
36635,note_on,1,0,0,,4,,,64,127
36635,note_on,0,0,0,,6,,,78,127
36691,note_off,56,0,0,,6,,,78,127
36691,note_off,0,0,0,,4,,,64,127
36692,note_on,1,0,0,,2,,,62,127
36692,note_on,0,0,0,,8,,,80,127
36748,note_off,56,0,0,,8,,,80,127
36748,note_off,0,0,0,,2,,,62,127
36749,note_on,1,0,0,,1,,,61,127
36749,note_on,0,0,0,,10,,,81,127
36805,note_off,56,0,0,,10,,,81,127
36805,note_off,0,0,0,,1,,,61,127
36806,note_on,1,0,0,,12,,,59,127
36806,note_on,0,0,0,,12,,,83,127
36862,note_off,56,0,0,,12,,,83,127
36862,note_off,0,0,0,,12,,,59,127
36863,note_on,1,0,0,,10,,,57,127
36863,note_on,0,0,0,,1,,,85,127
36977,note_off,114,0,0,,1,,,85,127
36978,note_on,1,0,0,,10,,,81,127
37092,note_off,114,0,0,,10,,,81,127
37092,note_off,0,0,0,,10,,,57,127
37093,note_on,1,0,0,,12,,,59,127
37093,note_on,0,0,0,,8,,,80,127
37207,note_off,114,0,0,,8,,,80,127
37208,note_on,1,0,0,,12,,,83,127
37322,note_off,114,0,0,,12,,,83,127
37322,note_off,0,0,0,,12,,,59,127
37323,note_on,1,0,0,,1,,,61,127
37323,note_on,0,0,0,,10,,,81,127
37437,note_off,114,0,0,,10,,,81,127
37438,note_on,1,0,0,,6,,,78,127
37552,note_off,114,0,0,,6,,,78,127
37552,note_off,0,0,0,,1,,,61,127
37553,note_on,1,0,0,,1,,,49,127
37553,note_on,0,0,0,,4,,,76,127
37667,note_off,114,0,0,,4,,,76,127
37668,note_on,1,0,0,,8,,,80,127
37782,note_off,114,0,0,,8,,,80,127
37782,note_off,0,0,0,,1,,,49,127
37783,note_on,1,0,0,,2,,,50,127
37783,note_on,0,0,0,,6,,,78,127
37897,note_off,114,0,0,,6,,,78,127
37898,note_on,1,0,0,,2,,,74,127
38012,note_off,114,0,0,,2,,,74,127
38012,note_off,0,0,0,,2,,,50,127
38013,note_on,1,0,0,,4,,,52,127
38013,note_on,0,0,0,,1,,,73,127
38127,note_off,114,0,0,,1,,,73,127
38128,note_on,1,0,0,,4,,,76,127
38242,note_off,114,0,0,,4,,,76,127
38242,note_off,0,0,0,,4,,,52,127
38243,note_on,1,0,0,,6,,,54,127
38243,note_on,0,0,0,,2,,,74,127
38357,note_off,114,0,0,,2,,,74,127
38358,note_on,1,0,0,,10,,,69,127
38472,note_off,114,0,0,,10,,,69,127
38472,note_off,0,0,0,,6,,,54,127
38473,note_on,1,0,0,,8,,,56,127
38473,note_on,0,0,0,,12,,,71,127
38587,note_off,114,0,0,,12,,,71,127
38588,note_on,1,0,0,,2,,,74,127
38702,note_off,114,0,0,,2,,,74,127
38702,note_off,0,0,0,,8,,,56,127
38703,note_on,1,0,0,,10,,,57,127
38703,note_on,0,0,0,,1,,,73,127
38817,note_off,114,0,0,,1,,,73,127
38818,note_on,1,0,0,,4,,,76,127
38932,note_off,114,0,0,,4,,,76,127
38932,note_off,0,0,0,,10,,,57,127
38933,note_on,1,0,0,,2,,,50,127
38933,note_on,0,0,0,,2,,,74,127
39047,note_off,114,0,0,,2,,,74,127
39048,note_on,1,0,0,,12,,,71,127
39162,note_off,114,0,0,,12,,,71,127
39162,note_off,0,0,0,,2,,,50,127
39163,note_on,1,0,0,,4,,,52,127
39163,note_on,0,0,0,,10,,,69,127
39277,note_off,114,0,0,,10,,,69,127
39278,note_on,1,0,0,,1,,,73,127
39392,note_off,114,0,0,,1,,,73,127
39392,note_off,0,0,0,,4,,,52,127
39393,note_on,1,0,0,,2,,,50,127
39393,note_on,0,0,0,,12,,,71,127
39507,note_off,114,0,0,,12,,,71,127
39508,note_on,1,0,0,,8,,,68,127
39622,note_off,114,0,0,,8,,,68,127
39622,note_off,0,0,0,,2,,,50,127
39623,note_on,1,0,0,,1,,,49,127
39623,note_on,0,0,0,,10,,,69,127
39737,note_off,114,0,0,,10,,,69,127
39738,note_on,1,0,0,,4,,,64,127
39852,note_off,114,0,0,,4,,,64,127
39852,note_off,0,0,0,,1,,,49,127
39853,note_on,1,0,0,,2,,,50,127
39853,note_on,0,0,0,,6,,,66,127
39967,note_off,114,0,0,,6,,,66,127
39968,note_on,1,0,0,,2,,,62,127
40082,note_off,114,0,0,,2,,,62,127
40082,note_off,0,0,0,,2,,,50,127
40083,note_on,1,0,0,,4,,,52,127
40083,note_on,0,0,0,,1,,,61,127
40197,note_off,114,0,0,,1,,,61,127
40198,note_on,1,0,0,,10,,,69,127
40312,note_off,114,0,0,,10,,,69,127
40313,note_on,1,0,0,,4,,,40,127
40313,note_on,0,0,0,,12,,,59,127
40427,note_off,114,0,0,,12,,,59,127
40428,note_on,1,0,0,,8,,,68,127
40538,note_off,110,0,0,,4,,,52,127
40542,note_off,4,0,0,,8,,,68,127
40542,note_off,0,0,0,,4,,,40,127
40543,note_on,1,0,0,,10,,,45,127
40543,note_on,0,0,0,,10,,,69,127
41233,note_off,690,0,0,,10,,,69,127
41463,note_off,230,0,0,,10,,,45,127
41464,note_on,1,0,0,,10,,,69,127
41693,note_off,229,0,0,,10,,,69,127
41694,note_on,1,0,0,,1,,,73,127
41808,note_off,114,0,0,,1,,,73,127
41809,note_on,1,0,0,,4,,,76,127
41923,note_off,114,0,0,,4,,,76,127
41924,note_on,1,0,0,,10,,,81,127
42153,note_off,229,0,0,,10,,,81,127
42154,note_on,1,0,0,,4,,,76,127
42383,note_off,229,0,0,,4,,,76,127
42384,note_on,1,0,0,,1,,,73,127
42614,note_on,230,0,0,,4,,,64,127
42614,note_on,0,0,0,,7,,,55,127
42843,note_off,229,0,0,,7,,,55,127
42843,note_off,0,0,0,,4,,,64,127
42844,note_on,1,0,0,,4,,,64,127
42844,note_on,0,0,0,,7,,,55,127
43073,note_off,229,0,0,,7,,,55,127
43073,note_off,0,0,0,,4,,,64,127
43074,note_on,1,0,0,,4,,,64,127
43074,note_on,0,0,0,,7,,,55,127
43303,note_off,229,0,0,,7,,,55,127
43303,note_off,0,0,0,,4,,,64,127
43303,note_off,0,0,0,,1,,,73,127
43304,note_on,1,0,0,,4,,,64,127
43304,note_on,0,0,0,,6,,,54,127
43304,note_on,0,0,0,,1,,,73,127
43418,note_off,114,0,0,,1,,,73,127
43419,note_on,1,0,0,,4,,,76,127
43533,note_off,114,0,0,,4,,,76,127
43533,note_off,0,0,0,,6,,,54,127
43533,note_off,0,0,0,,4,,,64,127
43534,note_on,1,0,0,,4,,,64,127
43534,note_on,0,0,0,,6,,,54,127
43534,note_on,0,0,0,,7,,,79,127
43648,note_off,114,0,0,,7,,,79,127
43649,note_on,1,0,0,,11,,,82,127
43763,note_off,114,0,0,,11,,,82,127
43763,note_off,0,0,0,,6,,,54,127
43763,note_off,0,0,0,,4,,,64,127
43764,note_on,1,0,0,,4,,,64,127
43764,note_on,0,0,0,,6,,,54,127
43764,note_on,0,0,0,,1,,,85,127
43993,note_off,229,0,0,,1,,,85,127
43993,note_off,0,0,0,,6,,,54,127
43993,note_off,0,0,0,,4,,,64,127
43994,note_on,1,0,0,,4,,,64,127
43994,note_on,0,0,0,,6,,,54,127
43994,note_on,0,0,0,,1,,,73,127
43994,note_on,0,0,0,,11,,,82,127
44223,note_off,229,0,0,,11,,,82,127
44223,note_off,0,0,0,,1,,,73,127
44223,note_off,0,0,0,,6,,,54,127
44223,note_off,0,0,0,,4,,,64,127
44224,note_on,1,0,0,,2,,,62,127
44224,note_on,0,0,0,,6,,,54,127
44224,note_on,0,0,0,,11,,,82,127
44224,note_on,0,0,0,,1,,,73,127
44453,note_off,229,0,0,,1,,,73,127
44453,note_off,0,0,0,,11,,,82,127
44453,note_off,0,0,0,,6,,,54,127
44453,note_off,0,0,0,,2,,,62,127
44454,note_on,1,0,0,,2,,,62,127
44454,note_on,0,0,0,,6,,,54,127
44454,note_on,0,0,0,,2,,,74,127
44454,note_on,0,0,0,,12,,,83,127
44683,note_off,229,0,0,,6,,,54,127
44683,note_off,0,0,0,,2,,,62,127
44684,note_on,1,0,0,,2,,,62,127
44684,note_on,0,0,0,,6,,,54,127
44913,note_off,229,0,0,,6,,,54,127
44913,note_off,0,0,0,,2,,,62,127
44913,note_off,0,0,0,,12,,,83,127
44913,note_off,0,0,0,,2,,,74,127
44914,note_on,1,0,0,,2,,,62,127
44914,note_on,0,0,0,,6,,,54,127
44914,note_on,0,0,0,,12,,,71,127
44914,note_on,0,0,0,,2,,,74,127
44914,note_on,0,0,0,,6,,,66,127
45143,note_off,229,0,0,,6,,,66,127
45143,note_off,0,0,0,,2,,,74,127
45143,note_off,0,0,0,,12,,,71,127
45143,note_off,0,0,0,,6,,,54,127
45143,note_off,0,0,0,,2,,,62,127
45144,note_on,1,0,0,,4,,,52,127
45144,note_on,0,0,0,,7,,,67,127
45144,note_on,0,0,0,,11,,,70,127
45144,note_on,0,0,0,,1,,,73,127
45373,note_off,229,0,0,,4,,,52,127
45374,note_on,1,0,0,,4,,,52,127
45488,note_off,114,0,0,,1,,,73,127
45488,note_off,0,0,0,,11,,,70,127
45489,note_on,1,0,0,,2,,,74,127
45489,note_on,0,0,0,,12,,,71,127
45599,note_off,110,0,0,,7,,,67,127
45603,note_off,4,0,0,,12,,,71,127
45603,note_off,0,0,0,,2,,,74,127
45603,note_off,0,0,0,,4,,,52,127
45604,note_on,1,0,0,,6,,,54,127
45604,note_on,0,0,0,,6,,,66,127
45604,note_on,0,0,0,,1,,,73,127
45604,note_on,0,0,0,,11,,,70,127
45833,note_off,229,0,0,,6,,,54,127
45834,note_on,1,0,0,,6,,,54,127
45948,note_off,114,0,0,,11,,,70,127
45948,note_off,0,0,0,,1,,,73,127
45949,note_on,1,0,0,,2,,,74,127
45949,note_on,0,0,0,,12,,,71,127
46059,note_off,110,0,0,,6,,,66,127
46063,note_off,4,0,0,,12,,,71,127
46063,note_off,0,0,0,,2,,,74,127
46063,note_off,0,0,0,,6,,,54,127
46064,note_on,1,0,0,,7,,,55,127
46064,note_on,0,0,0,,1,,,73,127
46064,note_on,0,0,0,,11,,,70,127
46064,note_on,0,0,0,,4,,,64,127
46293,note_off,229,0,0,,7,,,55,127
46294,note_on,1,0,0,,7,,,55,127
46408,note_off,114,0,0,,11,,,70,127
46408,note_off,0,0,0,,1,,,73,127
46409,note_on,1,0,0,,2,,,74,127
46409,note_on,0,0,0,,12,,,71,127
46519,note_off,110,0,0,,4,,,64,127
46523,note_off,4,0,0,,12,,,71,127
46523,note_off,0,0,0,,2,,,74,127
46523,note_off,0,0,0,,7,,,55,127
46524,note_on,1,0,0,,6,,,54,127
46524,note_on,0,0,0,,6,,,66,127
46524,note_on,0,0,0,,1,,,73,127
46524,note_on,0,0,0,,11,,,70,127
46753,note_off,229,0,0,,6,,,54,127
46754,note_on,1,0,0,,6,,,54,127
46868,note_off,114,0,0,,11,,,70,127
46868,note_off,0,0,0,,1,,,73,127
46869,note_on,1,0,0,,12,,,71,127
46869,note_on,0,0,0,,2,,,74,127
46979,note_off,110,0,0,,6,,,66,127
46983,note_off,4,0,0,,2,,,74,127
46983,note_off,0,0,0,,12,,,71,127
46983,note_off,0,0,0,,6,,,54,127
46984,note_on,1,0,0,,4,,,52,127
46984,note_on,0,0,0,,1,,,73,127
46984,note_on,0,0,0,,7,,,67,127
46984,note_on,0,0,0,,11,,,70,127
47213,note_off,229,0,0,,4,,,52,127
47214,note_on,1,0,0,,4,,,52,127
47328,note_off,114,0,0,,11,,,70,127
47328,note_off,0,0,0,,1,,,73,127
47329,note_on,1,0,0,,12,,,71,127
47329,note_on,0,0,0,,2,,,74,127
47439,note_off,110,0,0,,7,,,67,127
47443,note_off,4,0,0,,2,,,74,127
47443,note_off,0,0,0,,12,,,71,127
47443,note_off,0,0,0,,4,,,52,127
47444,note_on,1,0,0,,6,,,54,127
47444,note_on,0,0,0,,1,,,73,127
47444,note_on,0,0,0,,11,,,70,127
47444,note_on,0,0,0,,6,,,66,127
47673,note_off,229,0,0,,6,,,54,127
47674,note_on,1,0,0,,6,,,54,127
47788,note_off,114,0,0,,11,,,70,127
47788,note_off,0,0,0,,1,,,73,127
47789,note_on,1,0,0,,2,,,74,127
47789,note_on,0,0,0,,12,,,71,127
47899,note_off,110,0,0,,6,,,66,127
47903,note_off,4,0,0,,12,,,71,127
47903,note_off,0,0,0,,2,,,74,127
47903,note_off,0,0,0,,6,,,54,127
47904,note_on,1,0,0,,7,,,55,127
47904,note_on,0,0,0,,4,,,64,127
47904,note_on,0,0,0,,11,,,70,127
47904,note_on,0,0,0,,1,,,73,127
48133,note_off,229,0,0,,1,,,73,127
48133,note_off,0,0,0,,11,,,70,127
48133,note_off,0,0,0,,7,,,55,127
48134,note_on,1,0,0,,7,,,55,127
48134,note_on,0,0,0,,12,,,71,127
48360,note_off,226,0,0,,4,,,64,127
48364,note_off,4,0,0,,7,,,55,127
48365,note_on,1,0,0,,7,,,55,127
48480,note_off,115,0,0,,12,,,71,127
48594,note_off,114,0,0,,7,,,55,127
48595,note_on,1,0,0,,7,,,55,127
48595,note_on,0,0,0,,7,,,79,127
48595,note_on,0,0,0,,12,,,71,127
48595,note_on,0,0,0,,4,,,76,127
48824,note_off,229,0,0,,4,,,76,127
48824,note_off,0,0,0,,12,,,71,127
48824,note_off,0,0,0,,7,,,79,127
48824,note_off,0,0,0,,7,,,55,127
48825,note_on,1,0,0,,10,,,57,127
48825,note_on,0,0,0,,3,,,75,127
48825,note_on,0,0,0,,6,,,78,127
48825,note_on,0,0,0,,0,,,72,127
49054,note_off,229,0,0,,10,,,57,127
49055,note_on,1,0,0,,10,,,57,127
49169,note_off,114,0,0,,6,,,78,127
49169,note_off,0,0,0,,3,,,75,127
49170,note_on,1,0,0,,4,,,76,127
49170,note_on,0,0,0,,7,,,79,127
49280,note_off,110,0,0,,0,,,72,127
49284,note_off,4,0,0,,7,,,79,127
49284,note_off,0,0,0,,4,,,76,127
49284,note_off,0,0,0,,10,,,57,127
49285,note_on,1,0,0,,12,,,59,127
49285,note_on,0,0,0,,6,,,78,127
49285,note_on,0,0,0,,3,,,75,127
49285,note_on,0,0,0,,12,,,71,127
49514,note_off,229,0,0,,12,,,59,127
49515,note_on,1,0,0,,12,,,59,127
49629,note_off,114,0,0,,3,,,75,127
49629,note_off,0,0,0,,6,,,78,127
49630,note_on,1,0,0,,7,,,79,127
49630,note_on,0,0,0,,4,,,76,127
49740,note_off,110,0,0,,12,,,71,127
49744,note_off,4,0,0,,4,,,76,127
49744,note_off,0,0,0,,7,,,79,127
49744,note_off,0,0,0,,12,,,59,127
49745,note_on,1,0,0,,0,,,60,127
49745,note_on,0,0,0,,10,,,69,127
49745,note_on,0,0,0,,6,,,78,127
49745,note_on,0,0,0,,3,,,75,127
49974,note_off,229,0,0,,0,,,60,127
49975,note_on,1,0,0,,0,,,60,127
50089,note_off,114,0,0,,3,,,75,127
50089,note_off,0,0,0,,6,,,78,127
50090,note_on,1,0,0,,7,,,79,127
50090,note_on,0,0,0,,4,,,76,127
50200,note_off,110,0,0,,10,,,69,127
50204,note_off,4,0,0,,4,,,76,127
50204,note_off,0,0,0,,7,,,79,127
50204,note_off,0,0,0,,0,,,60,127
50205,note_on,1,0,0,,12,,,59,127
50205,note_on,0,0,0,,3,,,75,127
50205,note_on,0,0,0,,6,,,78,127
50205,note_on,0,0,0,,12,,,71,127
50434,note_off,229,0,0,,12,,,59,127
50435,note_on,1,0,0,,12,,,59,127
50549,note_off,114,0,0,,6,,,78,127
50549,note_off,0,0,0,,3,,,75,127
50550,note_on,1,0,0,,7,,,79,127
50550,note_on,0,0,0,,4,,,76,127
50660,note_off,110,0,0,,12,,,71,127
50664,note_off,4,0,0,,4,,,76,127
50664,note_off,0,0,0,,7,,,79,127
50664,note_off,0,0,0,,12,,,59,127
50665,note_on,1,0,0,,10,,,57,127
50665,note_on,0,0,0,,0,,,72,127
50665,note_on,0,0,0,,3,,,75,127
50665,note_on,0,0,0,,6,,,78,127
50894,note_off,229,0,0,,10,,,57,127
50895,note_on,1,0,0,,10,,,57,127
51009,note_off,114,0,0,,6,,,78,127
51009,note_off,0,0,0,,3,,,75,127
51010,note_on,1,0,0,,7,,,79,127
51010,note_on,0,0,0,,4,,,76,127
51120,note_off,110,0,0,,0,,,72,127
51124,note_off,4,0,0,,4,,,76,127
51124,note_off,0,0,0,,7,,,79,127
51124,note_off,0,0,0,,10,,,57,127
51125,note_on,1,0,0,,12,,,59,127
51125,note_on,0,0,0,,6,,,78,127
51125,note_on,0,0,0,,3,,,75,127
51125,note_on,0,0,0,,12,,,71,127
51354,note_off,229,0,0,,12,,,59,127
51355,note_on,1,0,0,,12,,,59,127
51469,note_off,114,0,0,,3,,,75,127
51469,note_off,0,0,0,,6,,,78,127
51470,note_on,1,0,0,,7,,,79,127
51470,note_on,0,0,0,,4,,,76,127
51580,note_off,110,0,0,,12,,,71,127
51584,note_off,4,0,0,,4,,,76,127
51584,note_off,0,0,0,,7,,,79,127
51584,note_off,0,0,0,,12,,,59,127
51585,note_on,1,0,0,,0,,,60,127
51585,note_on,0,0,0,,6,,,78,127
51585,note_on,0,0,0,,10,,,69,127
51814,note_off,229,0,0,,6,,,78,127
51814,note_off,0,0,0,,0,,,60,127
51815,note_on,1,0,0,,0,,,60,127
51815,note_on,0,0,0,,4,,,76,127
51929,note_off,114,0,0,,4,,,76,127
51930,note_on,1,0,0,,3,,,75,127
52040,note_off,110,0,0,,10,,,69,127
52044,note_off,4,0,0,,3,,,75,127
52044,note_off,0,0,0,,0,,,60,127
52045,note_on,1,0,0,,0,,,60,127
52045,note_on,0,0,0,,4,,,76,127
52197,note_off,152,0,0,,4,,,76,127
52198,note_on,1,0,0,,6,,,78,127
52274,note_off,76,0,0,,6,,,78,127
52274,note_off,0,0,0,,0,,,60,127
52275,note_on,1,0,0,,12,,,59,127
52275,note_on,0,0,0,,7,,,79,127
52351,note_off,76,0,0,,7,,,79,127
52352,note_on,1,0,0,,10,,,81,127
52428,note_off,76,0,0,,10,,,81,127
52429,note_on,1,0,0,,12,,,83,127
52505,note_off,76,0,0,,12,,,83,127
52505,note_off,0,0,0,,12,,,59,127
52506,note_on,1,0,0,,10,,,57,127
52506,note_on,0,0,0,,0,,,84,127
52620,note_off,114,0,0,,0,,,84,127
52621,note_on,1,0,0,,10,,,81,127
52735,note_off,114,0,0,,10,,,81,127
52735,note_off,0,0,0,,10,,,57,127
52736,note_on,1,0,0,,10,,,57,127
52736,note_on,0,0,0,,10,,,81,127
52850,note_off,114,0,0,,10,,,81,127
52851,note_on,1,0,0,,7,,,79,127
52965,note_off,114,0,0,,7,,,79,127
52965,note_off,0,0,0,,10,,,57,127
52966,note_on,1,0,0,,10,,,57,127
52966,note_on,0,0,0,,10,,,69,127
52966,note_on,0,0,0,,7,,,79,127
53080,note_off,114,0,0,,7,,,79,127
53081,note_on,1,0,0,,6,,,78,127
53195,note_off,114,0,0,,6,,,78,127
53195,note_off,0,0,0,,10,,,69,127
53195,note_off,0,0,0,,10,,,57,127
53196,note_on,1,0,0,,10,,,69,127
53196,note_on,0,0,0,,10,,,57,127
53196,note_on,0,0,0,,6,,,78,127
53310,note_off,114,0,0,,6,,,78,127
53311,note_on,1,0,0,,4,,,76,127
53425,note_off,114,0,0,,4,,,76,127
53425,note_off,0,0,0,,10,,,57,127
53425,note_off,0,0,0,,10,,,69,127
53426,note_on,1,0,0,,10,,,69,127
53426,note_on,0,0,0,,12,,,59,127
53426,note_on,0,0,0,,4,,,76,127
53540,note_off,114,0,0,,4,,,76,127
53541,note_on,1,0,0,,3,,,75,127
53655,note_off,114,0,0,,3,,,75,127
53655,note_off,0,0,0,,12,,,59,127
53655,note_off,0,0,0,,10,,,69,127
53656,note_on,1,0,0,,10,,,69,127
53656,note_on,0,0,0,,12,,,59,127
53656,note_on,0,0,0,,3,,,75,127
53770,note_off,114,0,0,,3,,,75,127
53771,note_on,1,0,0,,12,,,83,127
53885,note_off,114,0,0,,12,,,83,127
53885,note_off,0,0,0,,12,,,59,127
53885,note_off,0,0,0,,10,,,69,127
53886,note_on,1,0,0,,10,,,69,127
53886,note_on,0,0,0,,12,,,59,127
53886,note_on,0,0,0,,12,,,83,127
54000,note_off,114,0,0,,12,,,83,127
54001,note_on,1,0,0,,11,,,82,127
54115,note_off,114,0,0,,11,,,82,127
54115,note_off,0,0,0,,12,,,59,127
54115,note_off,0,0,0,,10,,,69,127
54116,note_on,1,0,0,,10,,,69,127
54116,note_on,0,0,0,,12,,,59,127
54116,note_on,0,0,0,,11,,,82,127
54230,note_off,114,0,0,,11,,,82,127
54231,note_on,1,0,0,,12,,,83,127
54345,note_off,114,0,0,,12,,,83,127
54345,note_off,0,0,0,,12,,,59,127
54345,note_off,0,0,0,,10,,,69,127
54346,note_on,1,0,0,,12,,,59,127
54346,note_on,0,0,0,,7,,,67,127
54346,note_on,0,0,0,,12,,,83,127
54460,note_off,114,0,0,,12,,,83,127
54461,note_on,1,0,0,,7,,,79,127
54575,note_off,114,0,0,,7,,,79,127
54575,note_off,0,0,0,,7,,,67,127
54575,note_off,0,0,0,,12,,,59,127
54576,note_on,1,0,0,,7,,,67,127
54576,note_on,0,0,0,,12,,,59,127
54576,note_on,0,0,0,,7,,,79,127
54690,note_off,114,0,0,,7,,,79,127
54691,note_on,1,0,0,,6,,,78,127
54805,note_off,114,0,0,,6,,,78,127
54805,note_off,0,0,0,,12,,,59,127
54805,note_off,0,0,0,,7,,,67,127
54806,note_on,1,0,0,,7,,,67,127
54806,note_on,0,0,0,,12,,,59,127
54806,note_on,0,0,0,,6,,,78,127
54920,note_off,114,0,0,,6,,,78,127
54921,note_on,1,0,0,,4,,,76,127
55035,note_off,114,0,0,,4,,,76,127
55035,note_off,0,0,0,,12,,,59,127
55035,note_off,0,0,0,,7,,,67,127
55036,note_on,1,0,0,,7,,,67,127
55036,note_on,0,0,0,,12,,,59,127
55036,note_on,0,0,0,,4,,,76,127
55150,note_off,114,0,0,,4,,,76,127
55151,note_on,1,0,0,,2,,,74,127
55265,note_off,114,0,0,,2,,,74,127
55265,note_off,0,0,0,,12,,,59,127
55265,note_off,0,0,0,,7,,,67,127
55266,note_on,1,0,0,,7,,,67,127
55266,note_on,0,0,0,,10,,,57,127
55266,note_on,0,0,0,,2,,,74,127
55380,note_off,114,0,0,,2,,,74,127
55381,note_on,1,0,0,,1,,,73,127
55495,note_off,114,0,0,,1,,,73,127
55495,note_off,0,0,0,,10,,,57,127
55495,note_off,0,0,0,,7,,,67,127
55496,note_on,1,0,0,,7,,,67,127
55496,note_on,0,0,0,,10,,,57,127
55496,note_on,0,0,0,,1,,,73,127
55610,note_off,114,0,0,,1,,,73,127
55611,note_on,1,0,0,,10,,,81,127
55725,note_off,114,0,0,,10,,,81,127
55725,note_off,0,0,0,,10,,,57,127
55725,note_off,0,0,0,,7,,,67,127
55726,note_on,1,0,0,,7,,,67,127
55726,note_on,0,0,0,,10,,,57,127
55726,note_on,0,0,0,,10,,,81,127
55840,note_off,114,0,0,,10,,,81,127
55841,note_on,1,0,0,,4,,,76,127
55955,note_off,114,0,0,,4,,,76,127
55955,note_off,0,0,0,,10,,,57,127
55955,note_off,0,0,0,,7,,,67,127
55956,note_on,1,0,0,,10,,,57,127
55956,note_on,0,0,0,,7,,,67,127
55956,note_on,0,0,0,,4,,,76,127
56070,note_off,114,0,0,,4,,,76,127
56071,note_on,1,0,0,,1,,,73,127
56185,note_off,114,0,0,,1,,,73,127
56185,note_off,0,0,0,,7,,,67,127
56185,note_off,0,0,0,,10,,,57,127
56186,note_on,1,0,0,,6,,,66,127
56186,note_on,0,0,0,,10,,,57,127
56186,note_on,0,0,0,,1,,,73,127
56300,note_off,114,0,0,,1,,,73,127
56301,note_on,1,0,0,,2,,,74,127
56415,note_off,114,0,0,,2,,,74,127
56415,note_off,0,0,0,,10,,,57,127
56415,note_off,0,0,0,,6,,,66,127
56416,note_on,1,0,0,,6,,,66,127
56416,note_on,0,0,0,,10,,,57,127
56416,note_on,0,0,0,,2,,,74,127
56530,note_off,114,0,0,,2,,,74,127
56531,note_on,1,0,0,,10,,,81,127
56645,note_off,114,0,0,,10,,,81,127
56645,note_off,0,0,0,,10,,,57,127
56645,note_off,0,0,0,,6,,,66,127
56646,note_on,1,0,0,,10,,,57,127
56646,note_on,0,0,0,,6,,,66,127
56646,note_on,0,0,0,,10,,,81,127
56760,note_off,114,0,0,,10,,,81,127
56761,note_on,1,0,0,,6,,,78,127
56875,note_off,114,0,0,,6,,,78,127
56875,note_off,0,0,0,,6,,,66,127
56875,note_off,0,0,0,,10,,,57,127
56876,note_on,1,0,0,,10,,,57,127
56876,note_on,0,0,0,,6,,,66,127
56876,note_on,0,0,0,,6,,,78,127
56990,note_off,114,0,0,,6,,,78,127
56991,note_on,1,0,0,,2,,,74,127
57105,note_off,114,0,0,,2,,,74,127
57105,note_off,0,0,0,,6,,,66,127
57105,note_off,0,0,0,,10,,,57,127
57106,note_on,1,0,0,,10,,,57,127
57106,note_on,0,0,0,,4,,,64,127
57106,note_on,0,0,0,,2,,,74,127
57220,note_off,114,0,0,,2,,,74,127
57221,note_on,1,0,0,,4,,,76,127
57335,note_off,114,0,0,,4,,,76,127
57335,note_off,0,0,0,,4,,,64,127
57335,note_off,0,0,0,,10,,,57,127
57336,note_on,1,0,0,,4,,,64,127
57336,note_on,0,0,0,,10,,,57,127
57336,note_on,0,0,0,,4,,,76,127
57450,note_off,114,0,0,,4,,,76,127
57451,note_on,1,0,0,,10,,,81,127
57565,note_off,114,0,0,,10,,,81,127
57565,note_off,0,0,0,,10,,,57,127
57565,note_off,0,0,0,,4,,,64,127
57566,note_on,1,0,0,,1,,,61,127
57566,note_on,0,0,0,,10,,,57,127
57566,note_on,0,0,0,,10,,,81,127
57680,note_off,114,0,0,,10,,,81,127
57681,note_on,1,0,0,,4,,,76,127
57795,note_off,114,0,0,,4,,,76,127
57795,note_off,0,0,0,,10,,,57,127
57795,note_off,0,0,0,,1,,,61,127
57796,note_on,1,0,0,,10,,,57,127
57796,note_on,0,0,0,,1,,,61,127
57796,note_on,0,0,0,,4,,,76,127
57910,note_off,114,0,0,,4,,,76,127
57911,note_on,1,0,0,,7,,,67,127
58025,note_off,114,0,0,,7,,,67,127
58025,note_off,0,0,0,,1,,,61,127
58025,note_off,0,0,0,,10,,,57,127
58026,note_on,1,0,0,,2,,,62,127
58026,note_on,0,0,0,,2,,,50,127
58026,note_on,0,0,0,,6,,,66,127
58140,note_off,114,0,0,,6,,,66,127
58141,note_on,1,0,0,,2,,,74,127
58255,note_off,114,0,0,,2,,,74,127
58256,note_on,1,0,0,,2,,,74,127
58370,note_off,114,0,0,,2,,,74,127
58371,note_on,1,0,0,,1,,,73,127
58485,note_off,114,0,0,,1,,,73,127
58485,note_off,0,0,0,,2,,,50,127
58485,note_off,0,0,0,,2,,,62,127
58486,note_on,1,0,0,,2,,,62,127
58486,note_on,0,0,0,,7,,,55,127
58486,note_on,0,0,0,,12,,,71,127
58600,note_off,114,0,0,,12,,,71,127
58601,note_on,1,0,0,,10,,,69,127
58715,note_off,114,0,0,,10,,,69,127
58716,note_on,1,0,0,,7,,,67,127
58830,note_off,114,0,0,,7,,,67,127
58831,note_on,1,0,0,,6,,,66,127
58945,note_off,114,0,0,,6,,,66,127
58945,note_off,0,0,0,,7,,,55,127
58945,note_off,0,0,0,,2,,,62,127
58946,note_on,1,0,0,,10,,,45,127
58946,note_on,0,0,0,,4,,,64,127
59175,note_off,229,0,0,,4,,,64,127
59176,note_on,1,0,0,,10,,,69,127
59405,note_off,229,0,0,,10,,,69,127
59406,note_on,1,0,0,,12,,,71,127
59452,note_off,46,0,0,,12,,,71,127
59452,note_on,0,0,0,,10,,,69,127
59498,note_on,46,0,0,,12,,,71,127
59500,note_off,2,0,0,,10,,,69,127
59543,note_off,43,0,0,,12,,,71,127
59544,note_on,1,0,0,,10,,,69,127
59590,note_on,46,0,0,,12,,,71,127
59592,note_off,2,0,0,,10,,,69,127
59635,note_off,43,0,0,,12,,,71,127
59635,note_off,0,0,0,,10,,,45,127
59636,note_on,1,0,0,,10,,,57,127
59636,note_on,0,0,0,,10,,,69,127
59682,note_off,46,0,0,,10,,,69,127
59682,note_on,0,0,0,,12,,,71,127
59728,note_on,46,0,0,,10,,,69,127
59730,note_off,2,0,0,,12,,,71,127
59773,note_off,43,0,0,,10,,,69,127
59774,note_on,1,0,0,,8,,,68,127
59820,note_on,46,0,0,,10,,,69,127
59822,note_off,2,0,0,,8,,,68,127
59865,note_off,43,0,0,,10,,,69,127
59865,note_off,0,0,0,,10,,,57,127
59866,note_on,1,0,0,,6,,,54,127
59866,note_on,0,0,0,,2,,,74,127
60095,note_off,229,0,0,,2,,,74,127
60095,note_off,0,0,0,,6,,,54,127
60096,note_on,1,0,0,,2,,,62,127
60096,note_on,0,0,0,,12,,,71,127
60134,note_on,38,0,0,,10,,,69,127
60141,note_off,7,0,0,,12,,,71,127
60172,note_on,31,0,0,,12,,,71,127
60179,note_off,7,0,0,,10,,,69,127
60210,note_on,31,0,0,,10,,,69,127
60217,note_off,7,0,0,,12,,,71,127
60248,note_on,31,0,0,,8,,,68,127
60255,note_off,7,0,0,,10,,,69,127
60286,note_on,31,0,0,,10,,,69,127
60293,note_off,7,0,0,,8,,,68,127
60323,note_off,30,0,0,,2,,,62,127
60324,note_on,1,0,0,,1,,,61,127
60324,note_on,0,0,0,,4,,,76,127
60331,note_off,7,0,0,,10,,,69,127
60553,note_off,222,0,0,,4,,,76,127
60553,note_off,0,0,0,,1,,,61,127
60554,note_on,1,0,0,,10,,,57,127
60554,note_on,0,0,0,,12,,,71,127
60592,note_on,38,0,0,,10,,,69,127
60599,note_off,7,0,0,,12,,,71,127
60630,note_on,31,0,0,,12,,,71,127
60637,note_off,7,0,0,,10,,,69,127
60668,note_on,31,0,0,,10,,,69,127
60675,note_off,7,0,0,,12,,,71,127
60706,note_on,31,0,0,,8,,,68,127
60713,note_off,7,0,0,,10,,,69,127
60744,note_on,31,0,0,,10,,,69,127
60751,note_off,7,0,0,,8,,,68,127
60781,note_off,30,0,0,,10,,,57,127
60782,note_on,1,0,0,,2,,,50,127
60782,note_on,0,0,0,,6,,,78,127
60789,note_off,7,0,0,,10,,,69,127
61011,note_off,222,0,0,,6,,,78,127
61012,note_on,1,0,0,,2,,,62,127
61012,note_on,0,0,0,,12,,,71,127
61050,note_on,38,0,0,,10,,,69,127
61057,note_off,7,0,0,,12,,,71,127
61088,note_on,31,0,0,,12,,,71,127
61095,note_off,7,0,0,,10,,,69,127
61126,note_on,31,0,0,,10,,,69,127
61133,note_off,7,0,0,,12,,,71,127
61164,note_on,31,0,0,,8,,,68,127
61171,note_off,7,0,0,,10,,,69,127
61202,note_on,31,0,0,,10,,,69,127
61209,note_off,7,0,0,,8,,,68,127
61235,note_off,26,0,0,,2,,,50,127
61239,note_off,4,0,0,,2,,,62,127
61240,note_on,1,0,0,,1,,,61,127
61240,note_on,0,0,0,,7,,,79,127
61247,note_off,7,0,0,,10,,,69,127
61469,note_off,222,0,0,,7,,,79,127
61469,note_off,0,0,0,,1,,,61,127
61470,note_on,1,0,0,,10,,,57,127
61470,note_on,0,0,0,,12,,,71,127
61508,note_on,38,0,0,,10,,,69,127
61515,note_off,7,0,0,,12,,,71,127
61546,note_on,31,0,0,,12,,,71,127
61553,note_off,7,0,0,,10,,,69,127
61584,note_on,31,0,0,,10,,,69,127
61591,note_off,7,0,0,,12,,,71,127
61622,note_on,31,0,0,,8,,,68,127
61629,note_off,7,0,0,,10,,,69,127
61660,note_on,31,0,0,,10,,,69,127
61667,note_off,7,0,0,,8,,,68,127
61697,note_off,30,0,0,,10,,,57,127
61698,note_on,1,0,0,,2,,,50,127
61698,note_on,0,0,0,,6,,,78,127
61705,note_off,7,0,0,,10,,,69,127
61927,note_off,222,0,0,,6,,,78,127
61928,note_on,1,0,0,,2,,,62,127
61928,note_on,0,0,0,,12,,,71,127
61966,note_on,38,0,0,,10,,,69,127
61973,note_off,7,0,0,,12,,,71,127
62004,note_on,31,0,0,,12,,,71,127
62011,note_off,7,0,0,,10,,,69,127
62042,note_on,31,0,0,,10,,,69,127
62049,note_off,7,0,0,,12,,,71,127
62080,note_on,31,0,0,,8,,,68,127
62087,note_off,7,0,0,,10,,,69,127
62118,note_on,31,0,0,,10,,,69,127
62125,note_off,7,0,0,,8,,,68,127
62151,note_off,26,0,0,,2,,,50,127
62155,note_off,4,0,0,,2,,,62,127
62156,note_on,1,0,0,,1,,,61,127
62156,note_on,0,0,0,,4,,,76,127
62163,note_off,7,0,0,,10,,,69,127
62385,note_off,222,0,0,,4,,,76,127
62385,note_off,0,0,0,,1,,,61,127
62386,note_on,1,0,0,,10,,,57,127
62386,note_on,0,0,0,,12,,,71,127
62424,note_on,38,0,0,,10,,,69,127
62431,note_off,7,0,0,,12,,,71,127
62462,note_on,31,0,0,,12,,,71,127
62469,note_off,7,0,0,,10,,,69,127
62500,note_on,31,0,0,,10,,,69,127
62507,note_off,7,0,0,,12,,,71,127
62538,note_on,31,0,0,,8,,,68,127
62545,note_off,7,0,0,,10,,,69,127
62583,note_off,38,0,0,,8,,,68,127
62612,note_off,29,0,0,,10,,,57,127
62614,note_on,2,0,0,,2,,,74,127
62614,note_on,0,0,0,,10,,,69,127
62614,note_on,0,0,0,,6,,,78,127
62844,note_on,230,0,0,,4,,,52,127
62882,note_on,38,0,0,,2,,,50,127
62900,note_off,18,0,0,,4,,,52,127
62920,note_on,20,0,0,,4,,,52,127
62938,note_off,18,0,0,,2,,,50,127
62958,note_on,20,0,0,,2,,,50,127
62976,note_off,18,0,0,,4,,,52,127
62996,note_on,20,0,0,,1,,,49,127
63014,note_off,18,0,0,,2,,,50,127
63034,note_on,20,0,0,,2,,,50,127
63052,note_off,18,0,0,,1,,,49,127
63071,note_off,19,0,0,,6,,,78,127
63071,note_off,0,0,0,,10,,,69,127
63071,note_off,0,0,0,,2,,,74,127
63072,note_on,1,0,0,,1,,,61,127
63072,note_on,0,0,0,,7,,,79,127
63072,note_on,0,0,0,,4,,,76,127
63072,note_on,0,0,0,,10,,,69,127
63090,note_off,18,0,0,,2,,,50,127
63301,note_off,211,0,0,,1,,,61,127
63302,note_on,1,0,0,,4,,,52,127
63340,note_on,38,0,0,,2,,,50,127
63358,note_off,18,0,0,,4,,,52,127
63378,note_on,20,0,0,,4,,,52,127
63396,note_off,18,0,0,,2,,,50,127
63416,note_on,20,0,0,,2,,,50,127
63434,note_off,18,0,0,,4,,,52,127
63454,note_on,20,0,0,,1,,,49,127
63472,note_off,18,0,0,,2,,,50,127
63492,note_on,20,0,0,,2,,,50,127
63510,note_off,18,0,0,,1,,,49,127
63529,note_off,19,0,0,,10,,,69,127
63529,note_off,0,0,0,,4,,,76,127
63529,note_off,0,0,0,,7,,,79,127
63530,note_on,1,0,0,,2,,,62,127
63530,note_on,0,0,0,,6,,,78,127
63530,note_on,0,0,0,,10,,,69,127
63530,note_on,0,0,0,,2,,,74,127
63548,note_off,18,0,0,,2,,,50,127
63759,note_off,211,0,0,,2,,,62,127
63760,note_on,1,0,0,,4,,,52,127
63798,note_on,38,0,0,,2,,,50,127
63816,note_off,18,0,0,,4,,,52,127
63836,note_on,20,0,0,,4,,,52,127
63854,note_off,18,0,0,,2,,,50,127
63874,note_on,20,0,0,,2,,,50,127
63892,note_off,18,0,0,,4,,,52,127
63912,note_on,20,0,0,,1,,,49,127
63930,note_off,18,0,0,,2,,,50,127
63950,note_on,20,0,0,,2,,,50,127
63968,note_off,18,0,0,,1,,,49,127
63987,note_off,19,0,0,,2,,,74,127
63987,note_off,0,0,0,,10,,,69,127
63987,note_off,0,0,0,,6,,,78,127
63988,note_on,1,0,0,,4,,,64,127
63988,note_on,0,0,0,,4,,,76,127
63988,note_on,0,0,0,,7,,,79,127
63988,note_on,0,0,0,,10,,,69,127
64006,note_off,18,0,0,,2,,,50,127
64217,note_off,211,0,0,,4,,,64,127
64218,note_on,1,0,0,,4,,,52,127
64256,note_on,38,0,0,,2,,,50,127
64274,note_off,18,0,0,,4,,,52,127
64294,note_on,20,0,0,,4,,,52,127
64312,note_off,18,0,0,,2,,,50,127
64332,note_on,20,0,0,,2,,,50,127
64350,note_off,18,0,0,,4,,,52,127
64370,note_on,20,0,0,,1,,,49,127
64388,note_off,18,0,0,,2,,,50,127
64408,note_on,20,0,0,,2,,,50,127
64426,note_off,18,0,0,,1,,,49,127
64445,note_off,19,0,0,,10,,,69,127
64445,note_off,0,0,0,,7,,,79,127
64445,note_off,0,0,0,,4,,,76,127
64446,note_on,1,0,0,,2,,,62,127
64446,note_on,0,0,0,,2,,,74,127
64446,note_on,0,0,0,,6,,,78,127
64446,note_on,0,0,0,,10,,,69,127
64464,note_off,18,0,0,,2,,,50,127
64675,note_off,211,0,0,,2,,,62,127
64676,note_on,1,0,0,,4,,,52,127
64714,note_on,38,0,0,,2,,,50,127
64732,note_off,18,0,0,,4,,,52,127
64752,note_on,20,0,0,,4,,,52,127
64770,note_off,18,0,0,,2,,,50,127
64790,note_on,20,0,0,,2,,,50,127
64808,note_off,18,0,0,,4,,,52,127
64828,note_on,20,0,0,,1,,,49,127
64846,note_off,18,0,0,,2,,,50,127
64866,note_on,20,0,0,,2,,,50,127
64884,note_off,18,0,0,,1,,,49,127
64903,note_off,19,0,0,,10,,,69,127
64903,note_off,0,0,0,,6,,,78,127
64903,note_off,0,0,0,,2,,,74,127
64904,note_on,1,0,0,,1,,,61,127
64904,note_on,0,0,0,,7,,,79,127
64904,note_on,0,0,0,,4,,,76,127
64904,note_on,0,0,0,,10,,,69,127
64922,note_off,18,0,0,,2,,,50,127
65133,note_off,211,0,0,,1,,,61,127
65134,note_on,1,0,0,,4,,,52,127
65172,note_on,38,0,0,,2,,,50,127
65190,note_off,18,0,0,,4,,,52,127
65210,note_on,20,0,0,,4,,,52,127
65228,note_off,18,0,0,,2,,,50,127
65248,note_on,20,0,0,,2,,,50,127
65266,note_off,18,0,0,,4,,,52,127
65286,note_on,20,0,0,,1,,,49,127
65304,note_off,18,0,0,,2,,,50,127
65324,note_on,20,0,0,,2,,,50,127
65342,note_off,18,0,0,,1,,,49,127
65361,note_off,19,0,0,,10,,,69,127
65361,note_off,0,0,0,,4,,,76,127
65361,note_off,0,0,0,,7,,,79,127
65362,note_on,1,0,0,,2,,,62,127
65362,note_on,0,0,0,,6,,,78,127
65362,note_on,0,0,0,,2,,,74,127
65362,note_on,0,0,0,,10,,,69,127
65380,note_off,18,0,0,,2,,,50,127
65591,note_off,211,0,0,,2,,,62,127
65592,note_on,1,0,0,,4,,,52,127
65630,note_on,38,0,0,,2,,,50,127
65648,note_off,18,0,0,,4,,,52,127
65668,note_on,20,0,0,,4,,,52,127
65686,note_off,18,0,0,,2,,,50,127
65706,note_on,20,0,0,,2,,,50,127
65724,note_off,18,0,0,,4,,,52,127
65744,note_on,20,0,0,,1,,,49,127
65762,note_off,18,0,0,,2,,,50,127
65782,note_on,20,0,0,,2,,,50,127
65800,note_off,18,0,0,,1,,,49,127
65819,note_off,19,0,0,,10,,,69,127
65819,note_off,0,0,0,,2,,,74,127
65819,note_off,0,0,0,,6,,,78,127
65820,note_on,1,0,0,,4,,,64,127
65820,note_on,0,0,0,,7,,,79,127
65820,note_on,0,0,0,,10,,,69,127
65820,note_on,0,0,0,,4,,,76,127
65838,note_off,18,0,0,,2,,,50,127
66049,note_off,211,0,0,,4,,,64,127
66050,note_on,1,0,0,,4,,,52,127
66088,note_on,38,0,0,,2,,,50,127
66106,note_off,18,0,0,,4,,,52,127
66126,note_on,20,0,0,,4,,,52,127
66144,note_off,18,0,0,,2,,,50,127
66164,note_on,20,0,0,,2,,,50,127
66182,note_off,18,0,0,,4,,,52,127
66202,note_on,20,0,0,,1,,,49,127
66220,note_off,18,0,0,,2,,,50,127
66240,note_on,20,0,0,,2,,,50,127
66258,note_off,18,0,0,,1,,,49,127
66277,note_off,19,0,0,,4,,,76,127
66277,note_off,0,0,0,,10,,,69,127
66277,note_off,0,0,0,,7,,,79,127
66278,note_on,1,0,0,,2,,,62,127
66278,note_on,0,0,0,,6,,,78,127
66278,note_on,0,0,0,,2,,,74,127
66278,note_on,0,0,0,,10,,,69,127
66296,note_off,18,0,0,,2,,,50,127
66392,note_off,96,0,0,,10,,,69,127
66392,note_off,0,0,0,,2,,,74,127
66392,note_off,0,0,0,,6,,,78,127
66393,note_on,1,0,0,,7,,,79,127
66449,note_off,56,0,0,,7,,,79,127
66450,note_on,1,0,0,,10,,,81,127
66506,note_off,56,0,0,,10,,,81,127
66507,note_on,1,0,0,,7,,,79,127
66621,note_off,114,0,0,,7,,,79,127
66622,note_on,1,0,0,,6,,,78,127
66736,note_off,114,0,0,,6,,,78,127
66737,note_on,1,0,0,,4,,,76,127
66851,note_off,114,0,0,,4,,,76,127
66852,note_on,1,0,0,,2,,,74,127
66966,note_off,114,0,0,,2,,,74,127
66966,note_off,0,0,0,,2,,,62,127
66967,note_on,1,0,0,,1,,,73,127
67081,note_off,114,0,0,,1,,,73,127
67082,note_on,1,0,0,,2,,,74,127
67196,note_off,114,0,0,,2,,,74,127
67197,note_on,1,0,0,,7,,,55,127
67197,note_on,0,0,0,,12,,,83,127
67311,note_off,114,0,0,,12,,,83,127
67312,note_on,1,0,0,,10,,,81,127
67426,note_off,114,0,0,,10,,,81,127
67427,note_on,1,0,0,,7,,,79,127
67541,note_off,114,0,0,,7,,,79,127
67542,note_on,1,0,0,,6,,,78,127
67656,note_off,114,0,0,,6,,,78,127
67657,note_on,1,0,0,,4,,,76,127
67771,note_off,114,0,0,,4,,,76,127
67772,note_on,1,0,0,,2,,,74,127
67886,note_off,114,0,0,,2,,,74,127
67886,note_off,0,0,0,,7,,,55,127
67887,note_on,1,0,0,,1,,,73,127
68001,note_off,114,0,0,,1,,,73,127
68002,note_on,1,0,0,,12,,,71,127
68116,note_off,114,0,0,,12,,,71,127
68117,note_on,1,0,0,,10,,,45,127
68117,note_on,0,0,0,,10,,,69,127
68231,note_off,114,0,0,,10,,,69,127
68232,note_on,1,0,0,,10,,,69,127
68346,note_off,114,0,0,,10,,,45,127
68347,note_on,1,0,0,,10,,,57,127
68347,note_on,0,0,0,,1,,,61,127
68460,note_off,113,0,0,,10,,,69,127
68462,note_on,2,0,0,,10,,,69,127
68575,note_off,113,0,0,,1,,,61,127
68577,note_on,2,0,0,,1,,,61,127
68690,note_off,113,0,0,,10,,,69,127
68691,note_off,1,0,0,,1,,,61,127
68691,note_off,0,0,0,,10,,,57,127
68692,note_on,1,0,0,,7,,,55,127
68692,note_on,0,0,0,,2,,,62,127
68748,note_off,56,0,0,,2,,,62,127
68748,note_off,0,0,0,,7,,,55,127
68749,note_on,1,0,0,,6,,,54,127
68749,note_on,0,0,0,,4,,,64,127
68805,note_off,56,0,0,,4,,,64,127
68805,note_off,0,0,0,,6,,,54,127
68806,note_on,1,0,0,,4,,,52,127
68806,note_on,0,0,0,,6,,,66,127
68862,note_off,56,0,0,,6,,,66,127
68862,note_off,0,0,0,,4,,,52,127
68863,note_on,1,0,0,,2,,,50,127
68863,note_on,0,0,0,,7,,,67,127
68919,note_off,56,0,0,,7,,,67,127
68919,note_off,0,0,0,,2,,,50,127
68920,note_on,1,0,0,,1,,,49,127
68920,note_on,0,0,0,,10,,,69,127
68976,note_off,56,0,0,,10,,,69,127
68976,note_off,0,0,0,,1,,,49,127
68977,note_on,1,0,0,,12,,,47,127
68977,note_on,0,0,0,,12,,,71,127
69033,note_off,56,0,0,,12,,,71,127
69033,note_off,0,0,0,,12,,,47,127
69034,note_on,1,0,0,,10,,,45,127
69034,note_on,0,0,0,,1,,,73,127
69148,note_off,114,0,0,,1,,,73,127
69149,note_on,1,0,0,,10,,,69,127
69263,note_off,114,0,0,,10,,,45,127
69264,note_on,1,0,0,,10,,,57,127
69264,note_on,0,0,0,,1,,,61,127
69377,note_off,113,0,0,,10,,,69,127
69379,note_on,2,0,0,,10,,,69,127
69492,note_off,113,0,0,,1,,,61,127
69494,note_on,2,0,0,,1,,,61,127
69607,note_off,113,0,0,,10,,,69,127
69608,note_off,1,0,0,,1,,,61,127
69608,note_off,0,0,0,,10,,,57,127
69609,note_on,1,0,0,,7,,,55,127
69609,note_on,0,0,0,,2,,,62,127
69665,note_off,56,0,0,,2,,,62,127
69665,note_off,0,0,0,,7,,,55,127
69666,note_on,1,0,0,,6,,,54,127
69666,note_on,0,0,0,,4,,,64,127
69722,note_off,56,0,0,,4,,,64,127
69722,note_off,0,0,0,,6,,,54,127
69723,note_on,1,0,0,,4,,,52,127
69723,note_on,0,0,0,,6,,,66,127
69779,note_off,56,0,0,,6,,,66,127
69779,note_off,0,0,0,,4,,,52,127
69780,note_on,1,0,0,,2,,,50,127
69780,note_on,0,0,0,,7,,,67,127
69836,note_off,56,0,0,,7,,,67,127
69836,note_off,0,0,0,,2,,,50,127
69837,note_on,1,0,0,,1,,,49,127
69837,note_on,0,0,0,,10,,,69,127
69893,note_off,56,0,0,,10,,,69,127
69893,note_off,0,0,0,,1,,,49,127
69894,note_on,1,0,0,,12,,,47,127
69894,note_on,0,0,0,,12,,,71,127
69950,note_off,56,0,0,,12,,,71,127
69950,note_off,0,0,0,,12,,,47,127
69951,note_on,1,0,0,,10,,,45,127
69951,note_on,0,0,0,,1,,,73,127
70065,note_off,114,0,0,,1,,,73,127
70066,note_on,1,0,0,,12,,,71,127
70180,note_off,114,0,0,,12,,,71,127
70181,note_on,1,0,0,,10,,,69,127
70295,note_off,114,0,0,,10,,,69,127
70296,note_on,1,0,0,,7,,,67,127
70410,note_off,114,0,0,,7,,,67,127
70411,note_on,1,0,0,,6,,,66,127
70525,note_off,114,0,0,,6,,,66,127
70526,note_on,1,0,0,,4,,,64,127
70640,note_off,114,0,0,,4,,,64,127
70640,note_off,0,0,0,,10,,,45,127
70641,note_on,1,0,0,,2,,,62,127
70755,note_off,114,0,0,,2,,,62,127
70756,note_on,1,0,0,,1,,,61,127
70870,note_off,114,0,0,,1,,,61,127
70871,note_on,1,0,0,,2,,,50,127
70871,note_on,0,0,0,,2,,,62,127
70986,note_on,115,0,0,,2,,,74,127
71099,note_off,113,0,0,,2,,,62,127
71100,note_off,1,0,0,,2,,,50,127
71101,note_on,1,0,0,,2,,,62,127
71101,note_on,0,0,0,,6,,,66,127
71214,note_off,113,0,0,,2,,,74,127
71215,note_off,1,0,0,,6,,,66,127
71216,note_on,1,0,0,,2,,,74,127
71331,note_on,115,0,0,,6,,,66,127
71444,note_off,113,0,0,,2,,,74,127
71445,note_off,1,0,0,,6,,,66,127
71445,note_off,0,0,0,,2,,,62,127
71446,note_on,1,0,0,,1,,,61,127
71446,note_on,0,0,0,,7,,,67,127
71502,note_off,56,0,0,,7,,,67,127
71502,note_off,0,0,0,,1,,,61,127
71503,note_on,1,0,0,,12,,,59,127
71503,note_on,0,0,0,,10,,,69,127
71559,note_off,56,0,0,,10,,,69,127
71559,note_off,0,0,0,,12,,,59,127
71560,note_on,1,0,0,,10,,,57,127
71560,note_on,0,0,0,,12,,,71,127
71616,note_off,56,0,0,,12,,,71,127
71616,note_off,0,0,0,,10,,,57,127
71617,note_on,1,0,0,,7,,,55,127
71617,note_on,0,0,0,,1,,,73,127
71673,note_off,56,0,0,,1,,,73,127
71673,note_off,0,0,0,,7,,,55,127
71674,note_on,1,0,0,,6,,,54,127
71674,note_on,0,0,0,,2,,,74,127
71730,note_off,56,0,0,,2,,,74,127
71730,note_off,0,0,0,,6,,,54,127
71731,note_on,1,0,0,,4,,,52,127
71731,note_on,0,0,0,,4,,,76,127
71787,note_off,56,0,0,,4,,,76,127
71787,note_off,0,0,0,,4,,,52,127
71788,note_on,1,0,0,,2,,,50,127
71788,note_on,0,0,0,,6,,,78,127
71902,note_off,114,0,0,,6,,,78,127
71903,note_on,1,0,0,,2,,,74,127
72017,note_off,114,0,0,,2,,,50,127
72018,note_on,1,0,0,,2,,,62,127
72018,note_on,0,0,0,,6,,,66,127
72131,note_off,113,0,0,,2,,,74,127
72132,note_off,1,0,0,,6,,,66,127
72133,note_on,1,0,0,,2,,,74,127
72248,note_on,115,0,0,,6,,,66,127
72361,note_off,113,0,0,,2,,,74,127
72362,note_off,1,0,0,,6,,,66,127
72362,note_off,0,0,0,,2,,,62,127
72363,note_on,1,0,0,,1,,,61,127
72363,note_on,0,0,0,,7,,,67,127
72419,note_off,56,0,0,,7,,,67,127
72419,note_off,0,0,0,,1,,,61,127
72420,note_on,1,0,0,,12,,,59,127
72420,note_on,0,0,0,,10,,,69,127
72476,note_off,56,0,0,,10,,,69,127
72476,note_off,0,0,0,,12,,,59,127
72477,note_on,1,0,0,,10,,,57,127
72477,note_on,0,0,0,,12,,,71,127
72533,note_off,56,0,0,,12,,,71,127
72533,note_off,0,0,0,,10,,,57,127
72534,note_on,1,0,0,,7,,,55,127
72534,note_on,0,0,0,,1,,,73,127
72590,note_off,56,0,0,,1,,,73,127
72590,note_off,0,0,0,,7,,,55,127
72591,note_on,1,0,0,,6,,,54,127
72591,note_on,0,0,0,,2,,,74,127
72647,note_off,56,0,0,,2,,,74,127
72647,note_off,0,0,0,,6,,,54,127
72648,note_on,1,0,0,,4,,,52,127
72648,note_on,0,0,0,,4,,,76,127
72704,note_off,56,0,0,,4,,,76,127
72704,note_off,0,0,0,,4,,,52,127
72705,note_on,1,0,0,,2,,,50,127
72705,note_on,0,0,0,,6,,,78,127
72819,note_off,114,0,0,,6,,,78,127
72820,note_on,1,0,0,,4,,,76,127
72934,note_off,114,0,0,,4,,,76,127
72935,note_on,1,0,0,,2,,,74,127
73049,note_off,114,0,0,,2,,,74,127
73050,note_on,1,0,0,,1,,,73,127
73164,note_off,114,0,0,,1,,,73,127
73165,note_on,1,0,0,,12,,,71,127
73279,note_off,114,0,0,,12,,,71,127
73280,note_on,1,0,0,,10,,,69,127
73394,note_off,114,0,0,,10,,,69,127
73394,note_off,0,0,0,,2,,,50,127
73395,note_on,1,0,0,,7,,,67,127
73509,note_off,114,0,0,,7,,,67,127
73510,note_on,1,0,0,,6,,,66,127
73624,note_off,114,0,0,,6,,,66,127
73625,note_on,1,0,0,,7,,,55,127
73625,note_on,0,0,0,,7,,,67,127
73740,note_on,115,0,0,,7,,,79,127
73853,note_off,113,0,0,,7,,,67,127
73854,note_off,1,0,0,,7,,,55,127
73855,note_on,1,0,0,,7,,,67,127
73855,note_on,0,0,0,,12,,,71,127
73968,note_off,113,0,0,,7,,,79,127
73969,note_off,1,0,0,,12,,,71,127
73970,note_on,1,0,0,,7,,,79,127
74085,note_on,115,0,0,,12,,,71,127
74198,note_off,113,0,0,,7,,,79,127
74199,note_off,1,0,0,,12,,,71,127
74199,note_off,0,0,0,,7,,,67,127
74200,note_on,1,0,0,,6,,,66,127
74200,note_on,0,0,0,,1,,,73,127
74256,note_off,56,0,0,,1,,,73,127
74256,note_off,0,0,0,,6,,,66,127
74257,note_on,1,0,0,,4,,,64,127
74257,note_on,0,0,0,,2,,,74,127
74313,note_off,56,0,0,,2,,,74,127
74313,note_off,0,0,0,,4,,,64,127
74314,note_on,1,0,0,,2,,,62,127
74314,note_on,0,0,0,,4,,,76,127
74370,note_off,56,0,0,,4,,,76,127
74370,note_off,0,0,0,,2,,,62,127
74371,note_on,1,0,0,,1,,,61,127
74371,note_on,0,0,0,,6,,,78,127
74427,note_off,56,0,0,,6,,,78,127
74427,note_off,0,0,0,,1,,,61,127
74428,note_on,1,0,0,,12,,,59,127
74428,note_on,0,0,0,,7,,,79,127
74484,note_off,56,0,0,,7,,,79,127
74484,note_off,0,0,0,,12,,,59,127
74485,note_on,1,0,0,,10,,,57,127
74485,note_on,0,0,0,,10,,,81,127
74541,note_off,56,0,0,,10,,,81,127
74541,note_off,0,0,0,,10,,,57,127
74542,note_on,1,0,0,,7,,,55,127
74542,note_on,0,0,0,,12,,,83,127
74656,note_off,114,0,0,,12,,,83,127
74657,note_on,1,0,0,,10,,,81,127
74771,note_off,114,0,0,,10,,,81,127
74771,note_off,0,0,0,,7,,,55,127
74772,note_on,1,0,0,,7,,,55,127
74772,note_on,0,0,0,,7,,,79,127
74886,note_off,114,0,0,,7,,,79,127
74887,note_on,1,0,0,,6,,,78,127
75001,note_off,114,0,0,,6,,,78,127
75002,note_on,1,0,0,,4,,,76,127
75116,note_off,114,0,0,,4,,,76,127
75117,note_on,1,0,0,,2,,,74,127
75231,note_off,114,0,0,,2,,,74,127
75231,note_off,0,0,0,,7,,,55,127
75232,note_on,1,0,0,,7,,,67,127
75232,note_on,0,0,0,,1,,,73,127
75346,note_off,114,0,0,,1,,,73,127
75347,note_on,1,0,0,,12,,,71,127
75461,note_off,114,0,0,,12,,,71,127
75461,note_off,0,0,0,,7,,,67,127
75462,note_on,1,0,0,,10,,,57,127
75462,note_on,0,0,0,,1,,,73,127
75576,note_off,114,0,0,,1,,,73,127
75577,note_on,1,0,0,,2,,,74,127
75691,note_off,114,0,0,,2,,,74,127
75691,note_off,0,0,0,,10,,,57,127
75692,note_on,1,0,0,,10,,,69,127
75692,note_on,0,0,0,,4,,,76,127
75806,note_off,114,0,0,,4,,,76,127
75807,note_on,1,0,0,,2,,,74,127
75921,note_off,114,0,0,,2,,,74,127
75922,note_on,1,0,0,,1,,,73,127
76036,note_off,114,0,0,,1,,,73,127
76037,note_on,1,0,0,,12,,,71,127
76151,note_off,114,0,0,,12,,,71,127
76151,note_off,0,0,0,,10,,,69,127
76152,note_on,1,0,0,,1,,,61,127
76152,note_on,0,0,0,,10,,,69,127
76266,note_off,114,0,0,,10,,,69,127
76267,note_on,1,0,0,,7,,,67,127
76381,note_off,114,0,0,,7,,,67,127
76381,note_off,0,0,0,,1,,,61,127
76382,note_on,1,0,0,,2,,,62,127
76382,note_on,0,0,0,,6,,,66,127
76496,note_off,114,0,0,,6,,,66,127
76497,note_on,1,0,0,,2,,,74,127
76611,note_off,114,0,0,,2,,,74,127
76611,note_off,0,0,0,,2,,,62,127
76612,note_on,1,0,0,,7,,,55,127
76612,note_on,0,0,0,,12,,,71,127
76726,note_off,114,0,0,,12,,,71,127
76727,note_on,1,0,0,,7,,,67,127
76841,note_off,114,0,0,,7,,,67,127
76841,note_off,0,0,0,,7,,,55,127
76842,note_on,1,0,0,,10,,,57,127
76842,note_on,0,0,0,,6,,,66,127
76956,note_off,114,0,0,,6,,,66,127
76957,note_on,1,0,0,,2,,,74,127
77071,note_off,114,0,0,,10,,,57,127
77072,note_on,1,0,0,,7,,,55,127
77072,note_on,0,0,0,,4,,,64,127
77185,note_off,113,0,0,,2,,,74,127
77186,note_off,1,0,0,,4,,,64,127
77187,note_on,1,0,0,,1,,,73,127
77301,note_off,114,0,0,,1,,,73,127
77301,note_off,0,0,0,,7,,,55,127
77302,note_on,1,0,0,,6,,,54,127
77302,note_on,0,0,0,,2,,,74,127
77416,note_off,114,0,0,,2,,,74,127
77417,note_on,1,0,0,,6,,,78,127
77531,note_off,114,0,0,,6,,,78,127
77531,note_off,0,0,0,,6,,,54,127
77532,note_on,1,0,0,,7,,,55,127
77532,note_on,0,0,0,,4,,,76,127
77646,note_off,114,0,0,,4,,,76,127
77647,note_on,1,0,0,,7,,,79,127
77761,note_off,114,0,0,,7,,,79,127
77761,note_off,0,0,0,,7,,,55,127
77762,note_on,1,0,0,,10,,,57,127
77762,note_on,0,0,0,,6,,,78,127
77876,note_off,114,0,0,,6,,,78,127
77877,note_on,1,0,0,,10,,,81,127
77991,note_off,114,0,0,,10,,,81,127
77991,note_off,0,0,0,,10,,,57,127
77992,note_on,1,0,0,,7,,,55,127
77992,note_on,0,0,0,,1,,,73,127
78106,note_off,114,0,0,,1,,,73,127
78107,note_on,1,0,0,,4,,,76,127
78221,note_off,114,0,0,,4,,,76,127
78221,note_off,0,0,0,,7,,,55,127
78222,note_on,1,0,0,,6,,,54,127
78222,note_on,0,0,0,,2,,,74,127
78336,note_off,114,0,0,,2,,,74,127
78337,note_on,1,0,0,,10,,,69,127
78451,note_off,114,0,0,,10,,,69,127
78451,note_off,0,0,0,,6,,,54,127
78452,note_on,1,0,0,,7,,,55,127
78452,note_on,0,0,0,,12,,,71,127
78566,note_off,114,0,0,,12,,,71,127
78567,note_on,1,0,0,,7,,,67,127
78681,note_off,114,0,0,,7,,,67,127
78681,note_off,0,0,0,,7,,,55,127
78682,note_on,1,0,0,,10,,,57,127
78682,note_on,0,0,0,,6,,,66,127
78796,note_off,114,0,0,,6,,,66,127
78797,note_on,1,0,0,,2,,,74,127
78912,note_on,115,0,0,,10,,,45,127
78912,note_on,0,0,0,,4,,,64,127
79025,note_off,113,0,0,,2,,,74,127
79026,note_off,1,0,0,,4,,,64,127
79027,note_on,1,0,0,,1,,,73,127
79137,note_off,110,0,0,,10,,,57,127
79141,note_off,4,0,0,,1,,,73,127
79141,note_off,0,0,0,,10,,,45,127
79152,note_on,11,0,0,,2,,,38,127
79152,note_on,0,0,0,,2,,,74,127
80880,note_off,1728,0,0,,2,,,74,127
80880,note_off,0,0,0,,2,,,38,127
81408,end_of_track,528,1,0,,,,,,
