tick,type,time,meta,track,program,channel,pitch,tempo,note,velocity
0,copyright,0,1,0,,,,,,
0,program_change,0,0,0,6,0,,,,
0,pitchwheel,0,0,0,,0,0,,,
0,program_change,0,0,0,6,1,,,,
0,pitchwheel,0,0,0,,1,-590,,,
0,program_change,0,0,0,6,2,,,,
0,pitchwheel,0,0,0,,2,-272,,,
0,program_change,0,0,0,6,3,,,,
0,pitchwheel,0,0,0,,3,-353,,,
0,program_change,0,0,0,6,4,,,,
0,pitchwheel,0,0,0,,4,-560,,,
0,program_change,0,0,0,6,5,,,,
0,pitchwheel,0,0,0,,5,-80,,,
0,program_change,0,0,0,6,6,,,,
0,pitchwheel,0,0,0,,6,-625,,,
0,program_change,0,0,0,6,7,,,,
0,pitchwheel,0,0,0,,7,-130,,,
0,program_change,0,0,0,6,8,,,,
0,pitchwheel,0,0,0,,8,-512,,,
0,program_change,0,0,0,6,10,,,,
0,pitchwheel,0,0,0,,10,-464,,,
0,program_change,0,0,0,6,11,,,,
0,pitchwheel,0,0,0,,11,-208,,,
0,program_change,0,0,0,6,12,,,,
0,pitchwheel,0,0,0,,12,-553,,,
0,set_tempo,0,1,0,,,,500000,,
111,note_on,111,0,0,,2,,,62,127
166,note_on,55,0,0,,6,,,66,127
180,note_off,14,0,0,,2,,,62,127
222,note_on,42,0,0,,4,,,64,127
236,note_off,14,0,0,,6,,,66,127
278,note_on,42,0,0,,2,,,62,127
292,note_off,14,0,0,,4,,,64,127
334,note_on,42,0,0,,2,,,74,127
551,note_off,217,0,0,,2,,,62,127
553,note_off,2,0,0,,2,,,74,127
555,note_on,2,0,0,,10,,,69,127
555,note_on,0,0,0,,4,,,76,127
774,note_off,219,0,0,,4,,,76,127
774,note_off,0,0,0,,10,,,69,127
776,note_on,2,0,0,,6,,,78,127
776,note_on,0,0,0,,2,,,74,127
995,note_off,219,0,0,,2,,,74,127
995,note_off,0,0,0,,6,,,78,127
997,note_on,2,0,0,,7,,,79,127
997,note_on,0,0,0,,4,,,76,127
1216,note_off,219,0,0,,4,,,76,127
1216,note_off,0,0,0,,7,,,79,127
1218,note_on,2,0,0,,6,,,78,127
1218,note_on,0,0,0,,10,,,81,127
1437,note_off,219,0,0,,10,,,81,127
1437,note_off,0,0,0,,6,,,78,127
1439,note_on,2,0,0,,6,,,78,127
1439,note_on,0,0,0,,10,,,81,127
1494,note_on,55,0,0,,4,,,76,127
1494,note_on,0,0,0,,7,,,79,127
1508,note_off,14,0,0,,10,,,81,127
1508,note_off,0,0,0,,6,,,78,127
1550,note_on,42,0,0,,6,,,78,127
1550,note_on,0,0,0,,10,,,81,127
1564,note_off,14,0,0,,7,,,79,127
1564,note_off,0,0,0,,4,,,76,127
1606,note_on,42,0,0,,4,,,76,127
1606,note_on,0,0,0,,7,,,79,127
1620,note_off,14,0,0,,10,,,81,127
1620,note_off,0,0,0,,6,,,78,127
1662,note_on,42,0,0,,6,,,78,127
1662,note_on,0,0,0,,2,,,74,127
1676,note_off,14,0,0,,7,,,79,127
1676,note_off,0,0,0,,4,,,76,127
1881,note_off,205,0,0,,2,,,74,127
1881,note_off,0,0,0,,6,,,78,127
1883,note_on,2,0,0,,4,,,76,127
1883,note_on,0,0,0,,10,,,69,127
2102,note_off,219,0,0,,10,,,69,127
2102,note_off,0,0,0,,4,,,76,127
2104,note_on,2,0,0,,2,,,74,127
2104,note_on,0,0,0,,6,,,78,127
2323,note_off,219,0,0,,6,,,78,127
2323,note_off,0,0,0,,2,,,74,127
2325,note_on,2,0,0,,4,,,76,127
2325,note_on,0,0,0,,7,,,79,127
2544,note_off,219,0,0,,7,,,79,127
2544,note_off,0,0,0,,4,,,76,127
2546,note_on,2,0,0,,6,,,78,127
2546,note_on,0,0,0,,10,,,81,127
2765,note_off,219,0,0,,10,,,81,127
2765,note_off,0,0,0,,6,,,78,127
2767,note_on,2,0,0,,6,,,78,127
2767,note_on,0,0,0,,10,,,81,127
2822,note_on,55,0,0,,4,,,76,127
2822,note_on,0,0,0,,7,,,79,127
2836,note_off,14,0,0,,10,,,81,127
2836,note_off,0,0,0,,6,,,78,127
2878,note_on,42,0,0,,6,,,78,127
2878,note_on,0,0,0,,10,,,81,127
2892,note_off,14,0,0,,7,,,79,127
2892,note_off,0,0,0,,4,,,76,127
2934,note_on,42,0,0,,4,,,76,127
2934,note_on,0,0,0,,7,,,79,127
2948,note_off,14,0,0,,10,,,81,127
2948,note_off,0,0,0,,6,,,78,127
2990,note_on,42,0,0,,6,,,78,127
2990,note_on,0,0,0,,2,,,74,127
3004,note_off,14,0,0,,7,,,79,127
3004,note_off,0,0,0,,4,,,76,127
3209,note_off,205,0,0,,2,,,74,127
3209,note_off,0,0,0,,6,,,78,127
3211,note_on,2,0,0,,10,,,69,127
3211,note_on,0,0,0,,4,,,76,127
3430,note_off,219,0,0,,4,,,76,127
3430,note_off,0,0,0,,10,,,69,127
3432,note_on,2,0,0,,2,,,50,127
3432,note_on,0,0,0,,6,,,78,127
3432,note_on,0,0,0,,2,,,74,127
3487,note_on,55,0,0,,6,,,54,127
3501,note_off,14,0,0,,2,,,50,127
3543,note_on,42,0,0,,4,,,52,127
3557,note_off,14,0,0,,6,,,54,127
3599,note_on,42,0,0,,2,,,50,127
3613,note_off,14,0,0,,4,,,52,127
3655,note_on,42,0,0,,2,,,62,127
3669,note_off,14,0,0,,2,,,50,127
3874,note_off,205,0,0,,2,,,62,127
3876,note_on,2,0,0,,10,,,57,127
3876,note_on,0,0,0,,4,,,64,127
4095,note_off,219,0,0,,4,,,64,127
4095,note_off,0,0,0,,10,,,57,127
4097,note_on,2,0,0,,2,,,62,127
4097,note_on,0,0,0,,6,,,66,127
4316,note_off,219,0,0,,6,,,66,127
4316,note_off,0,0,0,,2,,,62,127
4316,note_off,0,0,0,,2,,,74,127
4316,note_off,0,0,0,,6,,,78,127
4318,note_on,2,0,0,,4,,,64,127
4318,note_on,0,0,0,,7,,,67,127
4318,note_on,0,0,0,,10,,,81,127
4537,note_off,219,0,0,,10,,,81,127
4537,note_off,0,0,0,,7,,,67,127
4537,note_off,0,0,0,,4,,,64,127
4539,note_on,2,0,0,,6,,,66,127
4539,note_on,0,0,0,,10,,,69,127
4539,note_on,0,0,0,,2,,,74,127
4758,note_off,219,0,0,,2,,,74,127
4758,note_off,0,0,0,,10,,,69,127
4758,note_off,0,0,0,,6,,,66,127
4760,note_on,2,0,0,,10,,,69,127
4760,note_on,0,0,0,,4,,,64,127
4760,note_on,0,0,0,,1,,,73,127
4815,note_on,55,0,0,,7,,,67,127
4829,note_off,14,0,0,,10,,,69,127
4871,note_on,42,0,0,,10,,,69,127
4885,note_off,14,0,0,,7,,,67,127
4927,note_on,42,0,0,,7,,,67,127
4941,note_off,14,0,0,,10,,,69,127
4980,note_off,39,0,0,,1,,,73,127
4980,note_off,0,0,0,,4,,,64,127
4982,note_on,2,0,0,,2,,,62,127
4982,note_on,0,0,0,,6,,,66,127
4982,note_on,0,0,0,,2,,,74,127
4996,note_off,14,0,0,,7,,,67,127
5201,note_off,205,0,0,,2,,,74,127
5201,note_off,0,0,0,,6,,,66,127
5201,note_off,0,0,0,,2,,,62,127
5203,note_on,2,0,0,,10,,,57,127
5203,note_on,0,0,0,,4,,,64,127
5203,note_on,0,0,0,,4,,,76,127
5422,note_off,219,0,0,,4,,,76,127
5422,note_off,0,0,0,,4,,,64,127
5422,note_off,0,0,0,,10,,,57,127
5424,note_on,2,0,0,,2,,,62,127
5424,note_on,0,0,0,,6,,,66,127
5424,note_on,0,0,0,,10,,,69,127
5643,note_off,219,0,0,,10,,,69,127
5643,note_off,0,0,0,,6,,,66,127
5643,note_off,0,0,0,,2,,,62,127
5645,note_on,2,0,0,,4,,,64,127
5645,note_on,0,0,0,,7,,,67,127
5645,note_on,0,0,0,,10,,,81,127
5864,note_off,219,0,0,,10,,,81,127
5864,note_off,0,0,0,,7,,,67,127
5864,note_off,0,0,0,,4,,,64,127
5866,note_on,2,0,0,,6,,,66,127
5866,note_on,0,0,0,,10,,,69,127
5866,note_on,0,0,0,,2,,,74,127
6085,note_off,219,0,0,,2,,,74,127
6085,note_off,0,0,0,,10,,,69,127
6085,note_off,0,0,0,,6,,,66,127
6087,note_on,2,0,0,,4,,,64,127
6087,note_on,0,0,0,,10,,,69,127
6087,note_on,0,0,0,,1,,,73,127
6142,note_on,55,0,0,,7,,,67,127
6156,note_off,14,0,0,,10,,,69,127
6198,note_on,42,0,0,,10,,,69,127
6212,note_off,14,0,0,,7,,,67,127
6254,note_on,42,0,0,,7,,,67,127
6268,note_off,14,0,0,,10,,,69,127
6307,note_off,39,0,0,,1,,,73,127
6307,note_off,0,0,0,,4,,,64,127
6309,note_on,2,0,0,,6,,,66,127
6309,note_on,0,0,0,,2,,,62,127
6309,note_on,0,0,0,,2,,,74,127
6323,note_off,14,0,0,,7,,,67,127
6528,note_off,205,0,0,,2,,,74,127
6528,note_off,0,0,0,,2,,,62,127
6528,note_off,0,0,0,,6,,,66,127
6530,note_on,2,0,0,,10,,,57,127
6530,note_on,0,0,0,,4,,,64,127
6530,note_on,0,0,0,,4,,,76,127
6749,note_off,219,0,0,,4,,,76,127
6749,note_off,0,0,0,,4,,,64,127
6749,note_off,0,0,0,,10,,,57,127
6751,note_on,2,0,0,,6,,,66,127
6751,note_on,0,0,0,,2,,,62,127
6751,note_on,0,0,0,,10,,,69,127
6970,note_off,219,0,0,,2,,,62,127
6970,note_off,0,0,0,,6,,,66,127
6972,note_on,2,0,0,,4,,,64,127
6972,note_on,0,0,0,,7,,,67,127
7191,note_off,219,0,0,,7,,,67,127
7191,note_off,0,0,0,,4,,,64,127
7191,note_off,0,0,0,,10,,,69,127
7193,note_on,2,0,0,,6,,,66,127
7193,note_on,0,0,0,,10,,,69,127
7193,note_on,0,0,0,,10,,,81,127
7412,note_off,219,0,0,,10,,,81,127
7412,note_off,0,0,0,,10,,,69,127
7412,note_off,0,0,0,,6,,,66,127
7414,note_on,2,0,0,,7,,,67,127
7414,note_on,0,0,0,,11,,,82,127
7633,note_off,219,0,0,,11,,,82,127
7635,note_on,2,0,0,,12,,,83,127
7854,note_off,219,0,0,,12,,,83,127
7856,note_on,2,0,0,,7,,,79,127
8075,note_off,219,0,0,,7,,,79,127
8075,note_off,0,0,0,,7,,,67,127
8077,note_on,2,0,0,,1,,,61,127
8077,note_on,0,0,0,,4,,,64,127
8077,note_on,0,0,0,,4,,,76,127
8296,note_off,219,0,0,,4,,,76,127
8296,note_off,0,0,0,,4,,,64,127
8296,note_off,0,0,0,,1,,,61,127
8298,note_on,2,0,0,,2,,,62,127
8298,note_on,0,0,0,,6,,,66,127
8298,note_on,0,0,0,,6,,,78,127
8517,note_off,219,0,0,,6,,,78,127
8517,note_off,0,0,0,,6,,,66,127
8517,note_off,0,0,0,,2,,,62,127
8519,note_on,2,0,0,,4,,,64,127
8519,note_on,0,0,0,,7,,,67,127
8519,note_on,0,0,0,,7,,,79,127
8738,note_off,219,0,0,,7,,,79,127
8738,note_off,0,0,0,,7,,,67,127
8738,note_off,0,0,0,,4,,,64,127
8740,note_on,2,0,0,,6,,,66,127
8740,note_on,0,0,0,,8,,,80,127
8959,note_off,219,0,0,,8,,,80,127
8961,note_on,2,0,0,,10,,,81,127
9180,note_off,219,0,0,,10,,,81,127
9182,note_on,2,0,0,,6,,,78,127
9401,note_off,219,0,0,,6,,,78,127
9401,note_off,0,0,0,,6,,,66,127
9403,note_on,2,0,0,,2,,,62,127
9403,note_on,0,0,0,,12,,,59,127
9403,note_on,0,0,0,,2,,,74,127
9622,note_off,219,0,0,,2,,,74,127
9622,note_off,0,0,0,,12,,,59,127
9622,note_off,0,0,0,,2,,,62,127
9624,note_on,2,0,0,,1,,,61,127
9624,note_on,0,0,0,,4,,,64,127
9624,note_on,0,0,0,,4,,,76,127
9843,note_off,219,0,0,,4,,,76,127
9843,note_off,0,0,0,,4,,,64,127
9843,note_off,0,0,0,,1,,,61,127
9845,note_on,2,0,0,,2,,,62,127
9845,note_on,0,0,0,,6,,,66,127
9845,note_on,0,0,0,,6,,,78,127
10064,note_off,219,0,0,,6,,,78,127
10064,note_off,0,0,0,,6,,,66,127
10064,note_off,0,0,0,,2,,,62,127
10066,note_on,2,0,0,,7,,,55,127
10066,note_on,0,0,0,,12,,,83,127
10285,note_off,219,0,0,,12,,,83,127
10287,note_on,2,0,0,,7,,,79,127
10506,note_off,219,0,0,,7,,,79,127
10508,note_on,2,0,0,,7,,,67,127
10508,note_on,0,0,0,,4,,,76,127
10727,note_off,219,0,0,,4,,,76,127
10727,note_off,0,0,0,,7,,,67,127
10728,note_off,1,0,0,,7,,,55,127
10729,note_on,1,0,0,,10,,,57,127
10729,note_on,0,0,0,,6,,,66,127
10729,note_on,0,0,0,,2,,,74,127
10948,note_off,219,0,0,,6,,,66,127
10950,note_on,2,0,0,,4,,,64,127
11169,note_off,219,0,0,,2,,,74,127
11171,note_on,2,0,0,,2,,,74,127
11226,note_on,55,0,0,,1,,,73,127
11240,note_off,14,0,0,,2,,,74,127
11282,note_on,42,0,0,,12,,,71,127
11296,note_off,14,0,0,,1,,,73,127
11338,note_on,42,0,0,,1,,,73,127
11352,note_off,14,0,0,,12,,,71,127
11391,note_off,39,0,0,,1,,,73,127
11391,note_off,0,0,0,,4,,,64,127
11392,note_off,1,0,0,,10,,,57,127
11393,note_on,1,0,0,,2,,,50,127
11393,note_on,0,0,0,,2,,,62,127
11393,note_on,0,0,0,,1,,,73,127
11834,note_off,441,0,0,,1,,,73,127
11836,note_on,2,0,0,,2,,,74,127
12030,note_off,194,0,0,,2,,,74,127
12055,note_off,25,0,0,,2,,,62,127
12055,note_off,0,0,0,,2,,,50,127
12057,note_on,2,0,0,,2,,,50,127
12057,note_on,0,0,0,,10,,,81,127
12112,note_on,55,0,0,,6,,,54,127
12126,note_off,14,0,0,,2,,,50,127
12168,note_on,42,0,0,,4,,,52,127
12182,note_off,14,0,0,,6,,,54,127
12224,note_on,42,0,0,,2,,,50,127
12238,note_off,14,0,0,,4,,,52,127
12277,note_off,39,0,0,,10,,,81,127
12279,note_on,2,0,0,,2,,,62,127
12279,note_on,0,0,0,,6,,,78,127
12293,note_off,14,0,0,,2,,,50,127
12498,note_off,205,0,0,,6,,,78,127
12498,note_off,0,0,0,,2,,,62,127
12500,note_on,2,0,0,,1,,,61,127
12500,note_on,0,0,0,,4,,,76,127
12719,note_off,219,0,0,,4,,,76,127
12719,note_off,0,0,0,,1,,,61,127
12721,note_on,2,0,0,,1,,,61,127
12721,note_on,0,0,0,,4,,,76,127
12776,note_on,55,0,0,,12,,,59,127
12776,note_on,0,0,0,,2,,,74,127
12790,note_off,14,0,0,,4,,,76,127
12790,note_off,0,0,0,,1,,,61,127
12832,note_on,42,0,0,,1,,,61,127
12832,note_on,0,0,0,,4,,,76,127
12846,note_off,14,0,0,,2,,,74,127
12846,note_off,0,0,0,,12,,,59,127
12888,note_on,42,0,0,,12,,,59,127
12888,note_on,0,0,0,,2,,,74,127
12902,note_off,14,0,0,,4,,,76,127
12902,note_off,0,0,0,,1,,,61,127
12944,note_on,42,0,0,,11,,,58,127
12944,note_on,0,0,0,,1,,,73,127
12958,note_off,14,0,0,,2,,,74,127
12958,note_off,0,0,0,,12,,,59,127
13163,note_off,205,0,0,,1,,,73,127
13163,note_off,0,0,0,,11,,,58,127
13165,note_on,2,0,0,,12,,,59,127
13165,note_on,0,0,0,,2,,,74,127
13384,note_off,219,0,0,,2,,,74,127
13384,note_off,0,0,0,,12,,,59,127
13386,note_on,2,0,0,,12,,,47,127
13386,note_on,0,0,0,,6,,,78,127
13441,note_on,55,0,0,,2,,,50,127
13455,note_off,14,0,0,,12,,,47,127
13497,note_on,42,0,0,,1,,,49,127
13511,note_off,14,0,0,,2,,,50,127
13553,note_on,42,0,0,,12,,,47,127
13567,note_off,14,0,0,,1,,,49,127
13606,note_off,39,0,0,,6,,,78,127
13608,note_on,2,0,0,,12,,,59,127
13608,note_on,0,0,0,,2,,,74,127
13622,note_off,14,0,0,,12,,,47,127
13827,note_off,205,0,0,,2,,,74,127
13827,note_off,0,0,0,,12,,,59,127
13829,note_on,2,0,0,,10,,,57,127
13829,note_on,0,0,0,,1,,,73,127
14048,note_off,219,0,0,,1,,,73,127
14048,note_off,0,0,0,,10,,,57,127
14050,note_on,2,0,0,,10,,,57,127
14050,note_on,0,0,0,,1,,,73,127
14105,note_on,55,0,0,,7,,,55,127
14105,note_on,0,0,0,,12,,,71,127
14119,note_off,14,0,0,,1,,,73,127
14119,note_off,0,0,0,,10,,,57,127
14161,note_on,42,0,0,,10,,,57,127
14161,note_on,0,0,0,,1,,,73,127
14175,note_off,14,0,0,,12,,,71,127
14175,note_off,0,0,0,,7,,,55,127
14217,note_on,42,0,0,,7,,,55,127
14217,note_on,0,0,0,,12,,,71,127
14231,note_off,14,0,0,,1,,,73,127
14231,note_off,0,0,0,,10,,,57,127
14273,note_on,42,0,0,,6,,,54,127
14273,note_on,0,0,0,,11,,,70,127
14287,note_off,14,0,0,,12,,,71,127
14287,note_off,0,0,0,,7,,,55,127
14492,note_off,205,0,0,,11,,,70,127
14492,note_off,0,0,0,,6,,,54,127
14494,note_on,2,0,0,,7,,,55,127
14494,note_on,0,0,0,,12,,,71,127
14713,note_off,219,0,0,,12,,,71,127
14713,note_off,0,0,0,,7,,,55,127
14715,note_on,2,0,0,,7,,,43,127
14715,note_on,0,0,0,,7,,,79,127
14770,note_on,55,0,0,,12,,,47,127
14784,note_off,14,0,0,,7,,,43,127
14826,note_on,42,0,0,,10,,,45,127
14840,note_off,14,0,0,,12,,,47,127
14882,note_on,42,0,0,,7,,,43,127
14896,note_off,14,0,0,,10,,,45,127
14935,note_off,39,0,0,,7,,,79,127
14937,note_on,2,0,0,,7,,,55,127
14937,note_on,0,0,0,,4,,,76,127
14951,note_off,14,0,0,,7,,,43,127
15156,note_off,205,0,0,,4,,,76,127
15156,note_off,0,0,0,,7,,,55,127
15158,note_on,2,0,0,,6,,,54,127
15158,note_on,0,0,0,,2,,,74,127
15377,note_off,219,0,0,,2,,,74,127
15377,note_off,0,0,0,,6,,,54,127
15379,note_on,2,0,0,,4,,,52,127
15379,note_on,0,0,0,,7,,,55,127
15379,note_on,0,0,0,,2,,,74,127
15379,note_on,0,0,0,,4,,,76,127
15598,note_off,219,0,0,,4,,,76,127
15598,note_off,0,0,0,,2,,,74,127
15600,note_on,2,0,0,,1,,,73,127
15819,note_off,219,0,0,,1,,,73,127
15819,note_off,0,0,0,,7,,,55,127
15819,note_off,0,0,0,,4,,,52,127
15821,note_on,2,0,0,,6,,,54,127
15821,note_on,0,0,0,,10,,,57,127
15821,note_on,0,0,0,,2,,,74,127
16040,note_off,219,0,0,,2,,,74,127
16040,note_off,0,0,0,,10,,,57,127
16040,note_off,0,0,0,,6,,,54,127
16042,note_on,2,0,0,,1,,,49,127
16042,note_on,0,0,0,,4,,,52,127
16042,note_on,0,0,0,,4,,,76,127
16261,note_off,219,0,0,,4,,,76,127
16261,note_off,0,0,0,,4,,,52,127
16261,note_off,0,0,0,,1,,,49,127
16263,note_on,2,0,0,,2,,,50,127
16263,note_on,0,0,0,,6,,,78,127
16263,note_on,0,0,0,,4,,,76,127
16371,note_off,108,0,0,,4,,,76,127
16371,note_off,0,0,0,,6,,,78,127
16373,note_on,2,0,0,,2,,,74,127
16481,note_off,108,0,0,,2,,,74,127
16483,note_on,2,0,0,,2,,,38,127
16483,note_on,0,0,0,,4,,,76,127
16591,note_off,108,0,0,,4,,,76,127
16593,note_on,2,0,0,,6,,,78,127
16699,note_off,106,0,0,,2,,,50,127
16701,note_off,2,0,0,,6,,,78,127
16701,note_off,0,0,0,,2,,,38,127
16703,note_on,2,0,0,,10,,,45,127
16703,note_on,0,0,0,,6,,,78,127
16811,note_off,108,0,0,,6,,,78,127
16813,note_on,2,0,0,,4,,,76,127
16868,note_on,55,0,0,,6,,,78,127
16882,note_off,14,0,0,,4,,,76,127
16924,note_on,42,0,0,,4,,,76,127
16938,note_off,14,0,0,,6,,,78,127
16980,note_on,42,0,0,,6,,,78,127
16994,note_off,14,0,0,,4,,,76,127
17036,note_on,42,0,0,,4,,,76,127
17050,note_off,14,0,0,,6,,,78,127
17092,note_on,42,0,0,,6,,,78,127
17106,note_off,14,0,0,,4,,,76,127
17148,note_on,42,0,0,,4,,,76,127
17162,note_off,14,0,0,,6,,,78,127
17367,note_off,205,0,0,,4,,,76,127
17367,note_off,0,0,0,,10,,,45,127
17369,note_on,2,0,0,,10,,,45,127
17369,note_on,0,0,0,,10,,,69,127
17424,note_on,55,0,0,,1,,,73,127
17438,note_off,14,0,0,,10,,,69,127
17480,note_on,42,0,0,,12,,,71,127
17494,note_off,14,0,0,,1,,,73,127
17536,note_on,42,0,0,,10,,,69,127
17550,note_off,14,0,0,,12,,,71,127
17592,note_on,42,0,0,,10,,,81,127
17592,note_on,0,0,0,,1,,,73,127
17606,note_off,14,0,0,,10,,,69,127
17811,note_off,205,0,0,,1,,,73,127
17811,note_off,0,0,0,,10,,,81,127
17813,note_on,2,0,0,,12,,,71,127
17813,note_on,0,0,0,,7,,,79,127
18032,note_off,219,0,0,,7,,,79,127
18032,note_off,0,0,0,,12,,,71,127
18032,note_off,0,0,0,,10,,,45,127
18034,note_on,2,0,0,,10,,,45,127
18034,note_on,0,0,0,,10,,,69,127
18034,note_on,0,0,0,,7,,,79,127
18089,note_on,55,0,0,,6,,,78,127
18103,note_off,14,0,0,,7,,,79,127
18145,note_on,42,0,0,,7,,,79,127
18159,note_off,14,0,0,,6,,,78,127
18201,note_on,42,0,0,,6,,,78,127
18215,note_off,14,0,0,,7,,,79,127
18254,note_off,39,0,0,,10,,,69,127
18256,note_on,2,0,0,,4,,,76,127
18256,note_on,0,0,0,,7,,,67,127
18270,note_off,14,0,0,,6,,,78,127
18475,note_off,205,0,0,,7,,,67,127
18475,note_off,0,0,0,,4,,,76,127
18477,note_on,2,0,0,,6,,,78,127
18477,note_on,0,0,0,,10,,,69,127
18696,note_off,219,0,0,,10,,,69,127
18696,note_off,0,0,0,,6,,,78,127
18696,note_off,0,0,0,,10,,,45,127
18698,note_on,2,0,0,,10,,,45,127
18698,note_on,0,0,0,,10,,,69,127
18753,note_on,55,0,0,,1,,,73,127
18767,note_off,14,0,0,,10,,,69,127
18809,note_on,42,0,0,,12,,,71,127
18823,note_off,14,0,0,,1,,,73,127
18865,note_on,42,0,0,,10,,,69,127
18879,note_off,14,0,0,,12,,,71,127
18921,note_on,42,0,0,,7,,,79,127
18921,note_on,0,0,0,,12,,,71,127
18935,note_off,14,0,0,,10,,,69,127
19140,note_off,205,0,0,,12,,,71,127
19140,note_off,0,0,0,,7,,,79,127
19142,note_on,2,0,0,,10,,,69,127
19142,note_on,0,0,0,,6,,,78,127
19361,note_off,219,0,0,,6,,,78,127
19361,note_off,0,0,0,,10,,,69,127
19361,note_off,0,0,0,,10,,,45,127
19363,note_on,2,0,0,,10,,,45,127
19363,note_on,0,0,0,,7,,,67,127
19363,note_on,0,0,0,,6,,,78,127
19418,note_on,55,0,0,,4,,,76,127
19432,note_off,14,0,0,,6,,,78,127
19474,note_on,42,0,0,,6,,,78,127
19488,note_off,14,0,0,,4,,,76,127
19530,note_on,42,0,0,,4,,,76,127
19544,note_off,14,0,0,,6,,,78,127
19583,note_off,39,0,0,,7,,,67,127
19585,note_on,2,0,0,,6,,,66,127
19585,note_on,0,0,0,,2,,,74,127
19599,note_off,14,0,0,,4,,,76,127
19804,note_off,205,0,0,,2,,,74,127
19804,note_off,0,0,0,,6,,,66,127
19806,note_on,2,0,0,,4,,,76,127
19806,note_on,0,0,0,,7,,,67,127
20025,note_off,219,0,0,,7,,,67,127
20025,note_off,0,0,0,,4,,,76,127
20025,note_off,0,0,0,,10,,,45,127
20027,note_on,2,0,0,,10,,,45,127
20027,note_on,0,0,0,,10,,,69,127
20082,note_on,55,0,0,,1,,,73,127
20096,note_off,14,0,0,,10,,,69,127
20138,note_on,42,0,0,,12,,,71,127
20152,note_off,14,0,0,,1,,,73,127
20194,note_on,42,0,0,,10,,,69,127
20208,note_off,14,0,0,,12,,,71,127
20250,note_on,42,0,0,,6,,,78,127
20469,note_off,219,0,0,,6,,,78,127
20470,note_off,1,0,0,,10,,,69,127
20471,note_on,1,0,0,,7,,,67,127
20471,note_on,0,0,0,,4,,,76,127
20690,note_off,219,0,0,,4,,,76,127
20690,note_off,0,0,0,,7,,,67,127
20690,note_off,0,0,0,,10,,,45,127
20692,note_on,2,0,0,,10,,,45,127
20692,note_on,0,0,0,,6,,,66,127
20692,note_on,0,0,0,,4,,,76,127
20747,note_on,55,0,0,,2,,,74,127
20761,note_off,14,0,0,,4,,,76,127
20803,note_on,42,0,0,,4,,,76,127
20817,note_off,14,0,0,,2,,,74,127
20859,note_on,42,0,0,,2,,,74,127
20873,note_off,14,0,0,,4,,,76,127
20912,note_off,39,0,0,,6,,,66,127
20914,note_on,2,0,0,,4,,,64,127
20914,note_on,0,0,0,,1,,,73,127
20928,note_off,14,0,0,,2,,,74,127
21133,note_off,205,0,0,,1,,,73,127
21133,note_off,0,0,0,,4,,,64,127
21135,note_on,2,0,0,,2,,,74,127
21135,note_on,0,0,0,,6,,,66,127
21354,note_off,219,0,0,,6,,,66,127
21354,note_off,0,0,0,,2,,,74,127
21354,note_off,0,0,0,,10,,,45,127
21356,note_on,2,0,0,,10,,,45,127
21356,note_on,0,0,0,,10,,,69,127
21411,note_on,55,0,0,,1,,,73,127
21425,note_off,14,0,0,,10,,,69,127
21467,note_on,42,0,0,,12,,,71,127
21481,note_off,14,0,0,,1,,,73,127
21523,note_on,42,0,0,,10,,,69,127
21537,note_off,14,0,0,,12,,,71,127
21579,note_on,42,0,0,,7,,,67,127
21579,note_on,0,0,0,,4,,,76,127
21593,note_off,14,0,0,,10,,,69,127
21798,note_off,205,0,0,,4,,,76,127
21798,note_off,0,0,0,,7,,,67,127
21800,note_on,2,0,0,,6,,,66,127
21800,note_on,0,0,0,,2,,,74,127
22019,note_off,219,0,0,,2,,,74,127
22019,note_off,0,0,0,,6,,,66,127
22019,note_off,0,0,0,,10,,,45,127
22021,note_on,2,0,0,,10,,,45,127
22021,note_on,0,0,0,,4,,,64,127
22021,note_on,0,0,0,,2,,,74,127
22076,note_on,55,0,0,,1,,,73,127
22090,note_off,14,0,0,,2,,,74,127
22132,note_on,42,0,0,,2,,,74,127
22146,note_off,14,0,0,,1,,,73,127
22188,note_on,42,0,0,,1,,,73,127
22202,note_off,14,0,0,,2,,,74,127
22241,note_off,39,0,0,,4,,,64,127
22243,note_on,2,0,0,,12,,,71,127
22243,note_on,0,0,0,,2,,,62,127
22257,note_off,14,0,0,,1,,,73,127
22462,note_off,205,0,0,,2,,,62,127
22462,note_off,0,0,0,,12,,,71,127
22464,note_on,2,0,0,,4,,,64,127
22464,note_on,0,0,0,,1,,,73,127
22683,note_off,219,0,0,,1,,,73,127
22683,note_off,0,0,0,,4,,,64,127
22683,note_off,0,0,0,,10,,,45,127
22685,note_on,2,0,0,,10,,,45,127
22685,note_on,0,0,0,,4,,,76,127
22740,note_on,55,0,0,,1,,,49,127
22754,note_off,14,0,0,,10,,,45,127
22796,note_on,42,0,0,,12,,,47,127
22810,note_off,14,0,0,,1,,,49,127
22852,note_on,42,0,0,,10,,,45,127
22866,note_off,14,0,0,,12,,,47,127
22905,note_off,39,0,0,,4,,,76,127
22907,note_on,2,0,0,,10,,,57,127
22907,note_on,0,0,0,,10,,,81,127
22921,note_off,14,0,0,,10,,,45,127
23126,note_off,205,0,0,,10,,,81,127
23126,note_off,0,0,0,,10,,,57,127
23128,note_on,2,0,0,,7,,,55,127
23128,note_on,0,0,0,,1,,,73,127
23347,note_off,219,0,0,,1,,,73,127
23347,note_off,0,0,0,,7,,,55,127
23349,note_on,2,0,0,,7,,,55,127
23349,note_on,0,0,0,,4,,,76,127
23404,note_on,55,0,0,,6,,,54,127
23404,note_on,0,0,0,,2,,,74,127
23418,note_off,14,0,0,,4,,,76,127
23418,note_off,0,0,0,,7,,,55,127
23460,note_on,42,0,0,,7,,,55,127
23460,note_on,0,0,0,,4,,,76,127
23474,note_off,14,0,0,,2,,,74,127
23474,note_off,0,0,0,,6,,,54,127
23516,note_on,42,0,0,,6,,,54,127
23516,note_on,0,0,0,,2,,,74,127
23530,note_off,14,0,0,,4,,,76,127
23530,note_off,0,0,0,,7,,,55,127
23572,note_on,42,0,0,,4,,,52,127
23572,note_on,0,0,0,,1,,,73,127
23586,note_off,14,0,0,,2,,,74,127
23586,note_off,0,0,0,,6,,,54,127
23791,note_off,205,0,0,,1,,,73,127
23791,note_off,0,0,0,,4,,,52,127
23793,note_on,2,0,0,,2,,,50,127
23793,note_on,0,0,0,,2,,,74,127
24012,note_off,219,0,0,,2,,,50,127
24014,note_on,2,0,0,,12,,,47,127
24069,note_on,55,0,0,,2,,,50,127
24083,note_off,14,0,0,,12,,,47,127
24125,note_off,42,0,0,,2,,,74,127
24125,note_on,0,0,0,,0,,,48,127
24139,note_off,14,0,0,,2,,,50,127
24181,note_on,42,0,0,,12,,,47,127
24195,note_off,14,0,0,,0,,,48,127
24237,note_on,42,0,0,,12,,,59,127
24237,note_on,0,0,0,,12,,,83,127
24251,note_off,14,0,0,,12,,,47,127
24456,note_off,205,0,0,,12,,,83,127
24456,note_off,0,0,0,,12,,,59,127
24458,note_on,2,0,0,,10,,,57,127
24458,note_on,0,0,0,,3,,,75,127
24677,note_off,219,0,0,,3,,,75,127
24677,note_off,0,0,0,,10,,,57,127
24679,note_on,2,0,0,,10,,,57,127
24679,note_on,0,0,0,,6,,,78,127
24734,note_on,55,0,0,,8,,,56,127
24734,note_on,0,0,0,,4,,,76,127
24748,note_off,14,0,0,,6,,,78,127
24748,note_off,0,0,0,,10,,,57,127
24790,note_on,42,0,0,,10,,,57,127
24790,note_on,0,0,0,,6,,,78,127
24804,note_off,14,0,0,,4,,,76,127
24804,note_off,0,0,0,,8,,,56,127
24846,note_on,42,0,0,,8,,,56,127
24846,note_on,0,0,0,,4,,,76,127
24860,note_off,14,0,0,,6,,,78,127
24860,note_off,0,0,0,,10,,,57,127
24902,note_on,42,0,0,,6,,,54,127
24902,note_on,0,0,0,,3,,,75,127
24916,note_off,14,0,0,,4,,,76,127
24916,note_off,0,0,0,,8,,,56,127
25121,note_off,205,0,0,,3,,,75,127
25121,note_off,0,0,0,,6,,,54,127
25123,note_on,2,0,0,,4,,,52,127
25123,note_on,0,0,0,,4,,,76,127
25342,note_off,219,0,0,,4,,,52,127
25344,note_on,2,0,0,,4,,,52,127
25399,note_on,55,0,0,,8,,,56,127
25413,note_off,14,0,0,,4,,,52,127
25455,note_off,42,0,0,,4,,,76,127
25455,note_on,0,0,0,,6,,,54,127
25469,note_off,14,0,0,,8,,,56,127
25511,note_on,42,0,0,,4,,,52,127
25525,note_off,14,0,0,,6,,,54,127
25567,note_on,42,0,0,,4,,,64,127
25567,note_on,0,0,0,,12,,,83,127
25581,note_off,14,0,0,,4,,,52,127
25786,note_off,205,0,0,,12,,,83,127
25786,note_off,0,0,0,,4,,,64,127
25788,note_on,2,0,0,,2,,,62,127
25788,note_on,0,0,0,,8,,,80,127
26007,note_off,219,0,0,,8,,,80,127
26007,note_off,0,0,0,,2,,,62,127
26009,note_on,2,0,0,,2,,,62,127
26009,note_on,0,0,0,,12,,,83,127
26064,note_on,55,0,0,,1,,,61,127
26064,note_on,0,0,0,,10,,,81,127
26078,note_off,14,0,0,,12,,,83,127
26078,note_off,0,0,0,,2,,,62,127
26120,note_on,42,0,0,,2,,,62,127
26120,note_on,0,0,0,,12,,,83,127
26134,note_off,14,0,0,,10,,,81,127
26134,note_off,0,0,0,,1,,,61,127
26176,note_on,42,0,0,,1,,,61,127
26176,note_on,0,0,0,,10,,,81,127
26190,note_off,14,0,0,,12,,,83,127
26190,note_off,0,0,0,,2,,,62,127
26232,note_on,42,0,0,,12,,,59,127
26232,note_on,0,0,0,,8,,,80,127
26232,note_on,0,0,0,,2,,,74,127
26246,note_off,14,0,0,,10,,,81,127
26246,note_off,0,0,0,,1,,,61,127
26451,note_off,205,0,0,,2,,,74,127
26451,note_off,0,0,0,,8,,,80,127
26451,note_off,0,0,0,,12,,,59,127
26453,note_on,2,0,0,,10,,,57,127
26453,note_on,0,0,0,,10,,,81,127
26453,note_on,0,0,0,,1,,,73,127
26672,note_off,219,0,0,,1,,,73,127
26672,note_off,0,0,0,,10,,,81,127
26672,note_off,0,0,0,,10,,,57,127
26674,note_on,2,0,0,,2,,,50,127
26674,note_on,0,0,0,,12,,,71,127
26674,note_on,0,0,0,,2,,,74,127
26893,note_off,219,0,0,,2,,,74,127
26893,note_off,0,0,0,,12,,,71,127
26893,note_off,0,0,0,,2,,,50,127
26895,note_on,2,0,0,,4,,,52,127
26895,note_on,0,0,0,,1,,,73,127
26895,note_on,0,0,0,,10,,,69,127
27114,note_off,219,0,0,,10,,,69,127
27114,note_off,0,0,0,,1,,,73,127
27116,note_on,2,0,0,,4,,,40,127
27116,note_on,0,0,0,,12,,,71,127
27116,note_on,0,0,0,,8,,,68,127
27333,note_off,217,0,0,,4,,,52,127
27335,note_off,2,0,0,,8,,,68,127
27335,note_off,0,0,0,,12,,,71,127
27335,note_off,0,0,0,,4,,,40,127
27337,note_on,2,0,0,,10,,,57,127
27337,note_on,0,0,0,,10,,,69,127
27556,note_off,219,0,0,,10,,,57,127
27558,note_on,2,0,0,,12,,,59,127
27777,note_off,219,0,0,,12,,,59,127
27777,note_off,0,0,0,,10,,,69,127
27779,note_on,2,0,0,,1,,,61,127
27779,note_on,0,0,0,,10,,,81,127
27998,note_off,219,0,0,,10,,,81,127
27998,note_off,0,0,0,,1,,,61,127
28000,note_on,2,0,0,,2,,,62,127
28000,note_on,0,0,0,,12,,,71,127
28108,note_off,108,0,0,,12,,,71,127
28110,note_on,2,0,0,,1,,,73,127
28165,note_on,55,0,0,,2,,,74,127
28179,note_off,14,0,0,,1,,,73,127
28218,note_off,39,0,0,,2,,,74,127
28218,note_off,0,0,0,,2,,,62,127
28220,note_on,2,0,0,,4,,,64,127
28220,note_on,0,0,0,,2,,,74,127
28275,note_on,55,0,0,,1,,,73,127
28289,note_off,14,0,0,,2,,,74,127
28331,note_on,42,0,0,,2,,,74,127
28345,note_off,14,0,0,,1,,,73,127
28387,note_on,42,0,0,,1,,,73,127
28401,note_off,14,0,0,,2,,,74,127
28443,note_on,42,0,0,,4,,,52,127
28443,note_on,0,0,0,,2,,,74,127
28457,note_off,14,0,0,,1,,,73,127
28499,note_on,42,0,0,,1,,,73,127
28513,note_off,14,0,0,,2,,,74,127
28555,note_on,42,0,0,,12,,,71,127
28569,note_off,14,0,0,,1,,,73,127
28661,note_off,92,0,0,,4,,,64,127
28663,note_off,2,0,0,,12,,,71,127
28663,note_off,0,0,0,,4,,,52,127
28665,note_on,2,0,0,,10,,,57,127
28665,note_on,0,0,0,,12,,,71,127
28773,note_off,108,0,0,,12,,,71,127
28775,note_on,2,0,0,,1,,,73,127
28883,note_off,108,0,0,,1,,,73,127
28883,note_off,0,0,0,,10,,,57,127
28885,note_on,2,0,0,,12,,,59,127
28885,note_on,0,0,0,,10,,,81,127
29104,note_off,219,0,0,,12,,,59,127
29106,note_on,2,0,0,,1,,,61,127
29325,note_off,219,0,0,,1,,,61,127
29325,note_off,0,0,0,,10,,,81,127
29327,note_on,2,0,0,,2,,,62,127
29327,note_on,0,0,0,,12,,,71,127
29435,note_off,108,0,0,,12,,,71,127
29437,note_on,2,0,0,,1,,,73,127
29492,note_on,55,0,0,,2,,,74,127
29506,note_off,14,0,0,,1,,,73,127
29545,note_off,39,0,0,,2,,,74,127
29545,note_off,0,0,0,,2,,,62,127
29547,note_on,2,0,0,,4,,,64,127
29547,note_on,0,0,0,,2,,,74,127
29602,note_on,55,0,0,,1,,,73,127
29616,note_off,14,0,0,,2,,,74,127
29658,note_on,42,0,0,,2,,,74,127
29672,note_off,14,0,0,,1,,,73,127
29714,note_on,42,0,0,,1,,,73,127
29728,note_off,14,0,0,,2,,,74,127
29770,note_on,42,0,0,,4,,,52,127
29770,note_on,0,0,0,,2,,,74,127
29784,note_off,14,0,0,,1,,,73,127
29826,note_on,42,0,0,,1,,,73,127
29840,note_off,14,0,0,,2,,,74,127
29882,note_on,42,0,0,,12,,,71,127
29896,note_off,14,0,0,,1,,,73,127
29988,note_off,92,0,0,,4,,,64,127
29990,note_off,2,0,0,,12,,,71,127
29990,note_off,0,0,0,,4,,,52,127
29992,note_on,2,0,0,,10,,,57,127
29992,note_on,0,0,0,,12,,,71,127
30100,note_off,108,0,0,,12,,,71,127
30102,note_on,2,0,0,,1,,,73,127
30210,note_off,108,0,0,,1,,,73,127
30210,note_off,0,0,0,,10,,,57,127
30212,note_on,2,0,0,,12,,,59,127
30212,note_on,0,0,0,,10,,,81,127
30431,note_off,219,0,0,,12,,,59,127
30433,note_on,2,0,0,,0,,,60,127
30652,note_off,219,0,0,,0,,,60,127
30652,note_off,0,0,0,,10,,,81,127
30654,note_on,2,0,0,,2,,,62,127
30654,note_on,0,0,0,,12,,,71,127
30762,note_off,108,0,0,,12,,,71,127
30764,note_on,2,0,0,,0,,,72,127
30819,note_on,55,0,0,,2,,,74,127
30833,note_off,14,0,0,,0,,,72,127
30872,note_off,39,0,0,,2,,,74,127
30872,note_off,0,0,0,,2,,,62,127
30874,note_on,2,0,0,,4,,,64,127
30874,note_on,0,0,0,,2,,,74,127
30929,note_on,55,0,0,,0,,,72,127
30943,note_off,14,0,0,,2,,,74,127
30985,note_on,42,0,0,,2,,,74,127
30999,note_off,14,0,0,,0,,,72,127
31041,note_on,42,0,0,,0,,,72,127
31055,note_off,14,0,0,,2,,,74,127
31094,note_off,39,0,0,,4,,,64,127
31096,note_on,2,0,0,,4,,,52,127
31096,note_on,0,0,0,,2,,,74,127
31110,note_off,14,0,0,,0,,,72,127
31152,note_on,42,0,0,,0,,,72,127
31166,note_off,14,0,0,,2,,,74,127
31208,note_on,42,0,0,,12,,,71,127
31222,note_off,14,0,0,,0,,,72,127
31317,note_off,95,0,0,,12,,,71,127
31317,note_off,0,0,0,,4,,,52,127
31319,note_on,2,0,0,,10,,,57,127
31319,note_on,0,0,0,,12,,,71,127
31427,note_off,108,0,0,,12,,,71,127
31429,note_on,2,0,0,,0,,,72,127
31537,note_off,108,0,0,,0,,,72,127
31537,note_off,0,0,0,,10,,,57,127
31539,note_on,2,0,0,,12,,,59,127
31539,note_on,0,0,0,,10,,,81,127
31758,note_off,219,0,0,,12,,,59,127
31760,note_on,2,0,0,,0,,,60,127
31979,note_off,219,0,0,,0,,,60,127
31979,note_off,0,0,0,,10,,,81,127
31981,note_on,2,0,0,,2,,,62,127
31981,note_on,0,0,0,,12,,,71,127
32089,note_off,108,0,0,,12,,,71,127
32091,note_on,2,0,0,,0,,,72,127
32146,note_on,55,0,0,,2,,,74,127
32160,note_off,14,0,0,,0,,,72,127
32199,note_off,39,0,0,,2,,,74,127
32199,note_off,0,0,0,,2,,,62,127
32201,note_on,2,0,0,,4,,,64,127
32201,note_on,0,0,0,,2,,,74,127
32256,note_on,55,0,0,,0,,,72,127
32270,note_off,14,0,0,,2,,,74,127
32312,note_on,42,0,0,,2,,,74,127
32326,note_off,14,0,0,,0,,,72,127
32368,note_on,42,0,0,,0,,,72,127
32382,note_off,14,0,0,,2,,,74,127
32421,note_off,39,0,0,,4,,,64,127
32423,note_on,2,0,0,,4,,,52,127
32423,note_on,0,0,0,,2,,,74,127
32437,note_off,14,0,0,,0,,,72,127
32479,note_on,42,0,0,,0,,,72,127
32493,note_off,14,0,0,,2,,,74,127
32535,note_on,42,0,0,,12,,,71,127
32549,note_off,14,0,0,,0,,,72,127
32644,note_off,95,0,0,,12,,,71,127
32644,note_off,0,0,0,,4,,,52,127
32646,note_on,2,0,0,,10,,,57,127
32646,note_on,0,0,0,,12,,,71,127
32754,note_off,108,0,0,,12,,,71,127
32756,note_on,2,0,0,,0,,,72,127
32864,note_off,108,0,0,,0,,,72,127
32864,note_off,0,0,0,,10,,,57,127
32866,note_on,2,0,0,,12,,,59,127
32866,note_on,0,0,0,,10,,,81,127
33085,note_off,219,0,0,,10,,,81,127
33085,note_off,0,0,0,,12,,,59,127
33087,note_on,2,0,0,,1,,,61,127
33087,note_on,0,0,0,,10,,,81,127
33306,note_off,219,0,0,,10,,,81,127
33306,note_off,0,0,0,,1,,,61,127
33308,note_on,2,0,0,,2,,,62,127
33308,note_on,0,0,0,,10,,,81,127
33416,note_off,108,0,0,,10,,,81,127
33418,note_on,2,0,0,,6,,,78,127
33473,note_on,55,0,0,,2,,,74,127
33487,note_off,14,0,0,,6,,,78,127
33526,note_off,39,0,0,,2,,,62,127
33528,note_on,2,0,0,,1,,,61,127
33528,note_on,0,0,0,,10,,,81,127
33542,note_off,14,0,0,,2,,,74,127
33747,note_off,205,0,0,,10,,,81,127
33747,note_off,0,0,0,,1,,,61,127
33749,note_on,2,0,0,,12,,,59,127
33749,note_on,0,0,0,,10,,,81,127
33968,note_off,219,0,0,,10,,,81,127
33968,note_off,0,0,0,,12,,,59,127
33970,note_on,2,0,0,,1,,,61,127
33970,note_on,0,0,0,,10,,,81,127
34078,note_off,108,0,0,,10,,,81,127
34080,note_on,2,0,0,,4,,,76,127
34135,note_on,55,0,0,,1,,,73,127
34149,note_off,14,0,0,,4,,,76,127
34188,note_off,39,0,0,,1,,,61,127
34190,note_on,2,0,0,,12,,,59,127
34190,note_on,0,0,0,,10,,,81,127
34204,note_off,14,0,0,,1,,,73,127
34409,note_off,205,0,0,,10,,,81,127
34409,note_off,0,0,0,,12,,,59,127
34411,note_on,2,0,0,,1,,,61,127
34411,note_on,0,0,0,,10,,,81,127
34630,note_off,219,0,0,,10,,,81,127
34630,note_off,0,0,0,,1,,,61,127
34632,note_on,2,0,0,,2,,,62,127
34632,note_on,0,0,0,,6,,,78,127
34740,note_off,108,0,0,,6,,,78,127
34742,note_on,2,0,0,,2,,,74,127
34797,note_on,55,0,0,,12,,,71,127
34811,note_off,14,0,0,,2,,,74,127
34850,note_off,39,0,0,,2,,,62,127
34852,note_on,2,0,0,,4,,,64,127
34852,note_on,0,0,0,,4,,,76,127
34866,note_off,14,0,0,,12,,,71,127
34961,note_off,95,0,0,,4,,,76,127
34963,note_on,2,0,0,,1,,,73,127
35018,note_on,55,0,0,,10,,,69,127
35032,note_off,14,0,0,,1,,,73,127
35074,note_on,42,0,0,,4,,,52,127
35074,note_on,0,0,0,,2,,,74,127
35088,note_off,14,0,0,,10,,,69,127
35183,note_off,95,0,0,,2,,,74,127
35185,note_on,2,0,0,,12,,,71,127
35240,note_on,55,0,0,,8,,,68,127
35254,note_off,14,0,0,,12,,,71,127
35291,note_off,37,0,0,,4,,,64,127
35293,note_off,2,0,0,,4,,,52,127
35295,note_on,2,0,0,,10,,,45,127
35295,note_on,0,0,0,,10,,,69,127
35309,note_off,14,0,0,,8,,,68,127
35514,note_off,205,0,0,,10,,,69,127
35514,note_off,0,0,0,,10,,,45,127
35516,note_on,2,0,0,,12,,,47,127
35516,note_on,0,0,0,,10,,,69,127
35735,note_off,219,0,0,,10,,,69,127
35735,note_off,0,0,0,,12,,,47,127
35737,note_on,2,0,0,,1,,,49,127
35737,note_on,0,0,0,,10,,,69,127
35956,note_off,219,0,0,,10,,,69,127
35956,note_off,0,0,0,,1,,,49,127
35958,note_on,2,0,0,,2,,,50,127
35958,note_on,0,0,0,,10,,,69,127
36066,note_off,108,0,0,,10,,,69,127
36068,note_on,2,0,0,,6,,,66,127
36123,note_on,55,0,0,,2,,,62,127
36137,note_off,14,0,0,,6,,,66,127
36176,note_off,39,0,0,,2,,,50,127
36178,note_on,2,0,0,,1,,,49,127
36178,note_on,0,0,0,,10,,,69,127
36192,note_off,14,0,0,,2,,,62,127
36397,note_off,205,0,0,,10,,,69,127
36397,note_off,0,0,0,,1,,,49,127
36399,note_on,2,0,0,,12,,,47,127
36399,note_on,0,0,0,,10,,,69,127
36618,note_off,219,0,0,,10,,,69,127
36618,note_off,0,0,0,,12,,,47,127
36620,note_on,2,0,0,,1,,,49,127
36620,note_on,0,0,0,,10,,,69,127
36728,note_off,108,0,0,,10,,,69,127
36730,note_on,2,0,0,,4,,,64,127
36785,note_on,55,0,0,,1,,,61,127
36799,note_off,14,0,0,,4,,,64,127
36838,note_off,39,0,0,,1,,,49,127
36840,note_on,2,0,0,,12,,,47,127
36840,note_on,0,0,0,,10,,,69,127
36854,note_off,14,0,0,,1,,,61,127
37059,note_off,205,0,0,,10,,,69,127
37059,note_off,0,0,0,,12,,,47,127
37061,note_on,2,0,0,,1,,,49,127
37061,note_on,0,0,0,,10,,,69,127
37280,note_off,219,0,0,,10,,,69,127
37280,note_off,0,0,0,,1,,,49,127
37282,note_on,2,0,0,,2,,,50,127
37282,note_on,0,0,0,,6,,,66,127
37390,note_off,108,0,0,,6,,,66,127
37392,note_on,2,0,0,,2,,,62,127
37447,note_on,55,0,0,,12,,,59,127
37461,note_off,14,0,0,,2,,,62,127
37500,note_off,39,0,0,,2,,,50,127
37502,note_on,2,0,0,,4,,,52,127
37502,note_on,0,0,0,,4,,,64,127
37516,note_off,14,0,0,,12,,,59,127
37611,note_off,95,0,0,,4,,,64,127
37613,note_on,2,0,0,,1,,,61,127
37668,note_on,55,0,0,,10,,,57,127
37682,note_off,14,0,0,,1,,,61,127
37724,note_on,42,0,0,,4,,,40,127
37724,note_on,0,0,0,,2,,,62,127
37738,note_off,14,0,0,,10,,,57,127
37833,note_off,95,0,0,,2,,,62,127
37835,note_on,2,0,0,,12,,,59,127
37890,note_on,55,0,0,,8,,,56,127
37904,note_off,14,0,0,,12,,,59,127
37941,note_off,37,0,0,,4,,,52,127
37943,note_off,2,0,0,,4,,,40,127
37945,note_on,2,0,0,,10,,,45,127
37945,note_on,0,0,0,,10,,,57,127
37959,note_off,14,0,0,,8,,,56,127
38607,note_off,648,0,0,,10,,,57,127
38607,note_off,0,0,0,,10,,,45,127
38609,note_on,2,0,0,,10,,,57,127
38609,note_on,0,0,0,,4,,,76,127
38664,note_on,55,0,0,,1,,,61,127
38678,note_off,14,0,0,,10,,,57,127
38720,note_on,42,0,0,,12,,,59,127
38734,note_off,14,0,0,,1,,,61,127
38776,note_on,42,0,0,,10,,,57,127
38790,note_off,14,0,0,,12,,,59,127
38829,note_off,39,0,0,,4,,,76,127
38831,note_on,2,0,0,,10,,,69,127
38831,note_on,0,0,0,,10,,,81,127
39050,note_off,219,0,0,,10,,,81,127
39050,note_off,0,0,0,,10,,,69,127
39052,note_on,2,0,0,,7,,,67,127
39052,note_on,0,0,0,,1,,,73,127
39269,note_off,217,0,0,,10,,,57,127
39271,note_off,2,0,0,,1,,,73,127
39271,note_off,0,0,0,,7,,,67,127
39273,note_on,2,0,0,,7,,,67,127
39273,note_on,0,0,0,,10,,,57,127
39273,note_on,0,0,0,,4,,,76,127
39328,note_on,55,0,0,,6,,,66,127
39328,note_on,0,0,0,,2,,,74,127
39342,note_off,14,0,0,,4,,,76,127
39342,note_off,0,0,0,,7,,,67,127
39384,note_on,42,0,0,,7,,,67,127
39384,note_on,0,0,0,,4,,,76,127
39398,note_off,14,0,0,,2,,,74,127
39398,note_off,0,0,0,,6,,,66,127
39440,note_on,42,0,0,,6,,,66,127
39440,note_on,0,0,0,,2,,,74,127
39454,note_off,14,0,0,,4,,,76,127
39454,note_off,0,0,0,,7,,,67,127
39496,note_on,42,0,0,,4,,,64,127
39496,note_on,0,0,0,,1,,,73,127
39510,note_off,14,0,0,,2,,,74,127
39510,note_off,0,0,0,,6,,,66,127
39715,note_off,205,0,0,,1,,,73,127
39715,note_off,0,0,0,,4,,,64,127
39717,note_on,2,0,0,,6,,,66,127
39717,note_on,0,0,0,,2,,,74,127
39936,note_off,219,0,0,,2,,,74,127
39936,note_off,0,0,0,,6,,,66,127
39937,note_off,1,0,0,,10,,,57,127
39938,note_on,1,0,0,,7,,,55,127
39938,note_on,0,0,0,,12,,,71,127
39993,note_on,55,0,0,,12,,,59,127
40007,note_off,14,0,0,,7,,,55,127
40049,note_on,42,0,0,,10,,,57,127
40063,note_off,14,0,0,,12,,,59,127
40105,note_on,42,0,0,,7,,,55,127
40119,note_off,14,0,0,,10,,,57,127
40158,note_off,39,0,0,,12,,,71,127
40160,note_on,2,0,0,,7,,,67,127
40160,note_on,0,0,0,,4,,,76,127
40379,note_off,219,0,0,,4,,,76,127
40379,note_off,0,0,0,,7,,,67,127
40381,note_on,2,0,0,,6,,,66,127
40381,note_on,0,0,0,,2,,,74,127
40598,note_off,217,0,0,,7,,,55,127
40600,note_off,2,0,0,,2,,,74,127
40600,note_off,0,0,0,,6,,,66,127
40602,note_on,2,0,0,,10,,,57,127
40602,note_on,0,0,0,,4,,,64,127
40602,note_on,0,0,0,,2,,,74,127
40657,note_on,55,0,0,,1,,,73,127
40671,note_off,14,0,0,,2,,,74,127
40713,note_on,42,0,0,,2,,,74,127
40727,note_off,14,0,0,,1,,,73,127
40769,note_on,42,0,0,,1,,,73,127
40783,note_off,14,0,0,,2,,,74,127
40822,note_off,39,0,0,,4,,,64,127
40824,note_on,2,0,0,,2,,,62,127
40824,note_on,0,0,0,,12,,,71,127
40838,note_off,14,0,0,,1,,,73,127
41043,note_off,205,0,0,,12,,,71,127
41043,note_off,0,0,0,,2,,,62,127
41045,note_on,2,0,0,,4,,,64,127
41045,note_on,0,0,0,,1,,,73,127
41264,note_off,219,0,0,,1,,,73,127
41264,note_off,0,0,0,,4,,,64,127
41265,note_off,1,0,0,,10,,,57,127
41266,note_on,1,0,0,,10,,,57,127
41266,note_on,0,0,0,,4,,,76,127
41321,note_on,55,0,0,,1,,,61,127
41335,note_off,14,0,0,,10,,,57,127
41377,note_on,42,0,0,,12,,,59,127
41391,note_off,14,0,0,,1,,,61,127
41433,note_on,42,0,0,,10,,,57,127
41447,note_off,14,0,0,,12,,,59,127
41486,note_off,39,0,0,,4,,,76,127
41488,note_on,2,0,0,,10,,,69,127
41488,note_on,0,0,0,,10,,,81,127
41707,note_off,219,0,0,,10,,,81,127
41707,note_off,0,0,0,,10,,,69,127
41709,note_on,2,0,0,,7,,,67,127
41709,note_on,0,0,0,,1,,,73,127
41926,note_off,217,0,0,,10,,,57,127
41928,note_off,2,0,0,,1,,,73,127
41928,note_off,0,0,0,,7,,,67,127
41930,note_on,2,0,0,,6,,,66,127
41930,note_on,0,0,0,,10,,,57,127
41930,note_on,0,0,0,,4,,,76,127
41985,note_on,55,0,0,,2,,,74,127
41999,note_off,14,0,0,,4,,,76,127
42041,note_on,42,0,0,,4,,,76,127
42055,note_off,14,0,0,,2,,,74,127
42097,note_on,42,0,0,,2,,,74,127
42111,note_off,14,0,0,,4,,,76,127
42150,note_off,39,0,0,,6,,,66,127
42152,note_on,2,0,0,,4,,,64,127
42152,note_on,0,0,0,,1,,,73,127
42166,note_off,14,0,0,,2,,,74,127
42371,note_off,205,0,0,,1,,,73,127
42371,note_off,0,0,0,,4,,,64,127
42373,note_on,2,0,0,,6,,,66,127
42373,note_on,0,0,0,,2,,,74,127
42592,note_off,219,0,0,,2,,,74,127
42592,note_off,0,0,0,,6,,,66,127
42593,note_off,1,0,0,,10,,,57,127
42594,note_on,1,0,0,,7,,,55,127
42594,note_on,0,0,0,,12,,,71,127
42649,note_on,55,0,0,,12,,,59,127
42663,note_off,14,0,0,,7,,,55,127
42705,note_on,42,0,0,,10,,,57,127
42719,note_off,14,0,0,,12,,,59,127
42761,note_on,42,0,0,,7,,,55,127
42775,note_off,14,0,0,,10,,,57,127
42814,note_off,39,0,0,,12,,,71,127
42816,note_on,2,0,0,,12,,,71,127
42816,note_on,0,0,0,,4,,,76,127
43035,note_off,219,0,0,,4,,,76,127
43035,note_off,0,0,0,,12,,,71,127
43037,note_on,2,0,0,,10,,,69,127
43037,note_on,0,0,0,,2,,,74,127
43139,note_off,102,0,0,,7,,,55,127
43257,note_off,118,0,0,,2,,,74,127
43257,note_off,0,0,0,,10,,,69,127
43259,note_on,2,0,0,,4,,,64,127
43259,note_on,0,0,0,,7,,,55,127
43259,note_on,0,0,0,,2,,,74,127
43367,note_off,108,0,0,,2,,,74,127
43369,note_on,2,0,0,,1,,,73,127
43477,note_off,108,0,0,,1,,,73,127
43477,note_off,0,0,0,,4,,,64,127
43479,note_on,2,0,0,,2,,,62,127
43479,note_on,0,0,0,,12,,,71,127
43698,note_off,219,0,0,,12,,,71,127
43698,note_off,0,0,0,,2,,,62,127
43700,note_on,2,0,0,,4,,,64,127
43700,note_on,0,0,0,,1,,,73,127
43919,note_off,219,0,0,,1,,,73,127
43919,note_off,0,0,0,,4,,,64,127
43920,note_off,1,0,0,,7,,,55,127
43921,note_on,1,0,0,,7,,,55,127
43921,note_on,0,0,0,,2,,,62,127
43921,note_on,0,0,0,,1,,,73,127
43976,note_on,55,0,0,,12,,,71,127
43990,note_off,14,0,0,,1,,,73,127
44032,note_on,42,0,0,,1,,,73,127
44046,note_off,14,0,0,,12,,,71,127
44088,note_on,42,0,0,,12,,,71,127
44102,note_off,14,0,0,,1,,,73,127
44141,note_off,39,0,0,,2,,,62,127
44143,note_on,2,0,0,,1,,,61,127
44143,note_on,0,0,0,,11,,,70,127
44157,note_off,14,0,0,,12,,,71,127
44362,note_off,205,0,0,,11,,,70,127
44362,note_off,0,0,0,,1,,,61,127
44364,note_on,2,0,0,,2,,,62,127
44364,note_on,0,0,0,,12,,,71,127
44583,note_off,219,0,0,,12,,,71,127
44583,note_off,0,0,0,,2,,,62,127
44584,note_off,1,0,0,,7,,,55,127
44585,note_on,1,0,0,,2,,,62,127
44585,note_on,0,0,0,,6,,,54,127
44585,note_on,0,0,0,,1,,,73,127
44657,note_off,72,0,0,,1,,,73,127
44659,note_on,2,0,0,,12,,,71,127
44731,note_off,72,0,0,,12,,,71,127
44733,note_on,2,0,0,,1,,,73,127
44805,note_off,72,0,0,,1,,,73,127
44805,note_off,0,0,0,,2,,,62,127
44807,note_on,2,0,0,,1,,,61,127
44807,note_on,0,0,0,,12,,,71,127
44879,note_off,72,0,0,,12,,,71,127
44881,note_on,2,0,0,,1,,,73,127
44953,note_off,72,0,0,,1,,,73,127
44955,note_on,2,0,0,,12,,,71,127
45027,note_off,72,0,0,,12,,,71,127
45029,note_on,2,0,0,,11,,,70,127
45248,note_off,219,0,0,,11,,,70,127
45248,note_off,0,0,0,,1,,,61,127
45249,note_off,1,0,0,,6,,,54,127
45250,note_on,1,0,0,,6,,,54,127
45250,note_on,0,0,0,,1,,,61,127
45250,note_on,0,0,0,,6,,,66,127
45305,note_on,55,0,0,,11,,,70,127
45319,note_off,14,0,0,,6,,,66,127
45361,note_on,42,0,0,,8,,,68,127
45375,note_off,14,0,0,,11,,,70,127
45417,note_on,42,0,0,,6,,,66,127
45431,note_off,14,0,0,,8,,,68,127
45473,note_on,42,0,0,,6,,,78,127
45487,note_off,14,0,0,,6,,,66,127
45692,note_off,205,0,0,,6,,,78,127
45694,note_on,2,0,0,,1,,,73,127
45694,note_on,0,0,0,,4,,,76,127
45913,note_off,219,0,0,,4,,,76,127
45913,note_off,0,0,0,,1,,,73,127
45913,note_off,0,0,0,,1,,,61,127
45913,note_off,0,0,0,,6,,,54,127
45915,note_on,2,0,0,,6,,,54,127
45915,note_on,0,0,0,,2,,,62,127
45915,note_on,0,0,0,,6,,,66,127
45915,note_on,0,0,0,,1,,,73,127
45915,note_on,0,0,0,,4,,,76,127
45970,note_on,55,0,0,,12,,,71,127
45970,note_on,0,0,0,,2,,,74,127
45984,note_off,14,0,0,,4,,,76,127
45984,note_off,0,0,0,,1,,,73,127
46026,note_on,42,0,0,,1,,,73,127
46026,note_on,0,0,0,,4,,,76,127
46040,note_off,14,0,0,,2,,,74,127
46040,note_off,0,0,0,,12,,,71,127
46082,note_on,42,0,0,,12,,,71,127
46082,note_on,0,0,0,,2,,,74,127
46096,note_off,14,0,0,,4,,,76,127
46096,note_off,0,0,0,,1,,,73,127
46138,note_on,42,0,0,,11,,,70,127
46138,note_on,0,0,0,,1,,,73,127
46152,note_off,14,0,0,,2,,,74,127
46152,note_off,0,0,0,,12,,,71,127
46357,note_off,205,0,0,,1,,,73,127
46357,note_off,0,0,0,,11,,,70,127
46359,note_on,2,0,0,,2,,,74,127
46359,note_on,0,0,0,,12,,,71,127
46578,note_off,219,0,0,,12,,,71,127
46578,note_off,0,0,0,,2,,,74,127
46578,note_off,0,0,0,,6,,,66,127
46578,note_off,0,0,0,,2,,,62,127
46578,note_off,0,0,0,,6,,,54,127
46580,note_on,2,0,0,,4,,,52,127
46580,note_on,0,0,0,,12,,,59,127
46580,note_on,0,0,0,,7,,,67,127
46580,note_on,0,0,0,,1,,,73,127
46688,note_off,108,0,0,,1,,,73,127
46690,note_on,2,0,0,,2,,,74,127
46745,note_on,55,0,0,,4,,,76,127
46759,note_off,14,0,0,,2,,,74,127
46801,note_on,42,0,0,,2,,,74,127
46815,note_off,14,0,0,,4,,,76,127
47020,note_off,205,0,0,,12,,,59,127
47022,note_on,2,0,0,,4,,,64,127
47130,note_off,108,0,0,,2,,,74,127
47132,note_on,2,0,0,,1,,,73,127
47187,note_on,55,0,0,,12,,,71,127
47201,note_off,14,0,0,,1,,,73,127
47240,note_off,39,0,0,,12,,,71,127
47240,note_off,0,0,0,,4,,,64,127
47241,note_off,1,0,0,,7,,,67,127
47241,note_off,0,0,0,,4,,,52,127
47242,note_on,1,0,0,,6,,,54,127
47242,note_on,0,0,0,,2,,,62,127
47242,note_on,0,0,0,,12,,,71,127
47461,note_off,219,0,0,,2,,,62,127
47463,note_on,2,0,0,,1,,,61,127
47682,note_off,219,0,0,,12,,,71,127
47684,note_on,2,0,0,,11,,,70,127
47903,note_off,219,0,0,,11,,,70,127
47903,note_off,0,0,0,,1,,,61,127
47904,note_off,1,0,0,,6,,,54,127
47905,note_on,1,0,0,,6,,,54,127
47905,note_on,0,0,0,,1,,,61,127
47905,note_on,0,0,0,,6,,,66,127
47960,note_on,55,0,0,,11,,,70,127
47974,note_off,14,0,0,,6,,,66,127
48016,note_on,42,0,0,,8,,,68,127
48030,note_off,14,0,0,,11,,,70,127
48072,note_on,42,0,0,,6,,,66,127
48086,note_off,14,0,0,,8,,,68,127
48128,note_on,42,0,0,,6,,,78,127
48142,note_off,14,0,0,,6,,,66,127
48347,note_off,205,0,0,,6,,,78,127
48349,note_on,2,0,0,,4,,,76,127
48349,note_on,0,0,0,,1,,,73,127
48568,note_off,219,0,0,,1,,,73,127
48568,note_off,0,0,0,,4,,,76,127
48568,note_off,0,0,0,,1,,,61,127
48568,note_off,0,0,0,,6,,,54,127
48570,note_on,2,0,0,,6,,,54,127
48570,note_on,0,0,0,,2,,,62,127
48570,note_on,0,0,0,,6,,,66,127
48570,note_on,0,0,0,,4,,,76,127
48570,note_on,0,0,0,,1,,,73,127
48625,note_on,55,0,0,,12,,,71,127
48625,note_on,0,0,0,,2,,,74,127
48639,note_off,14,0,0,,1,,,73,127
48639,note_off,0,0,0,,4,,,76,127
48681,note_on,42,0,0,,1,,,73,127
48681,note_on,0,0,0,,4,,,76,127
48695,note_off,14,0,0,,2,,,74,127
48695,note_off,0,0,0,,12,,,71,127
48737,note_on,42,0,0,,12,,,71,127
48737,note_on,0,0,0,,2,,,74,127
48751,note_off,14,0,0,,4,,,76,127
48751,note_off,0,0,0,,1,,,73,127
48793,note_on,42,0,0,,11,,,70,127
48793,note_on,0,0,0,,1,,,73,127
48807,note_off,14,0,0,,2,,,74,127
48807,note_off,0,0,0,,12,,,71,127
49012,note_off,205,0,0,,1,,,73,127
49012,note_off,0,0,0,,11,,,70,127
49014,note_on,2,0,0,,12,,,71,127
49014,note_on,0,0,0,,2,,,74,127
49233,note_off,219,0,0,,2,,,74,127
49233,note_off,0,0,0,,12,,,71,127
49233,note_off,0,0,0,,6,,,66,127
49233,note_off,0,0,0,,2,,,62,127
49233,note_off,0,0,0,,6,,,54,127
49235,note_on,2,0,0,,12,,,59,127
49235,note_on,0,0,0,,4,,,52,127
49235,note_on,0,0,0,,1,,,73,127
49235,note_on,0,0,0,,7,,,67,127
49343,note_off,108,0,0,,1,,,73,127
49345,note_on,2,0,0,,2,,,74,127
49400,note_on,55,0,0,,4,,,76,127
49414,note_off,14,0,0,,2,,,74,127
49456,note_on,42,0,0,,2,,,74,127
49470,note_off,14,0,0,,4,,,76,127
49675,note_off,205,0,0,,12,,,59,127
49677,note_on,2,0,0,,4,,,64,127
49785,note_off,108,0,0,,2,,,74,127
49787,note_on,2,0,0,,1,,,73,127
49842,note_on,55,0,0,,12,,,71,127
49856,note_off,14,0,0,,1,,,73,127
49895,note_off,39,0,0,,12,,,71,127
49895,note_off,0,0,0,,4,,,64,127
49896,note_off,1,0,0,,7,,,67,127
49896,note_off,0,0,0,,4,,,52,127
49897,note_on,1,0,0,,6,,,54,127
49897,note_on,0,0,0,,2,,,62,127
49897,note_on,0,0,0,,12,,,71,127
50116,note_off,219,0,0,,2,,,62,127
50118,note_on,2,0,0,,1,,,61,127
50337,note_off,219,0,0,,12,,,71,127
50339,note_on,2,0,0,,11,,,70,127
50558,note_off,219,0,0,,11,,,70,127
50558,note_off,0,0,0,,1,,,61,127
50559,note_off,1,0,0,,6,,,54,127
50560,note_on,1,0,0,,6,,,54,127
50560,note_on,0,0,0,,1,,,73,127
50615,note_on,55,0,0,,11,,,58,127
50629,note_off,14,0,0,,6,,,54,127
50671,note_on,42,0,0,,8,,,56,127
50685,note_off,14,0,0,,11,,,58,127
50727,note_on,42,0,0,,6,,,54,127
50741,note_off,14,0,0,,8,,,56,127
50780,note_off,39,0,0,,1,,,73,127
50782,note_on,2,0,0,,6,,,66,127
50782,note_on,0,0,0,,6,,,78,127
50796,note_off,14,0,0,,6,,,54,127
51001,note_off,205,0,0,,6,,,78,127
51001,note_off,0,0,0,,6,,,66,127
51003,note_on,2,0,0,,4,,,64,127
51003,note_on,0,0,0,,11,,,70,127
51222,note_off,219,0,0,,11,,,70,127
51222,note_off,0,0,0,,4,,,64,127
51224,note_on,2,0,0,,4,,,64,127
51224,note_on,0,0,0,,12,,,71,127
51279,note_on,55,0,0,,2,,,62,127
51293,note_off,14,0,0,,4,,,64,127
51335,note_on,42,0,0,,4,,,64,127
51349,note_off,14,0,0,,2,,,62,127
51391,note_on,42,0,0,,2,,,62,127
51405,note_off,14,0,0,,4,,,64,127
51444,note_off,39,0,0,,12,,,71,127
51446,note_on,2,0,0,,1,,,61,127
51446,note_on,0,0,0,,1,,,73,127
51460,note_off,14,0,0,,2,,,62,127
51665,note_off,205,0,0,,1,,,73,127
51665,note_off,0,0,0,,1,,,61,127
51667,note_on,2,0,0,,12,,,59,127
51667,note_on,0,0,0,,2,,,74,127
51886,note_off,219,0,0,,2,,,74,127
51886,note_off,0,0,0,,12,,,59,127
51888,note_on,2,0,0,,4,,,52,127
51888,note_on,0,0,0,,7,,,67,127
51943,note_on,55,0,0,,7,,,55,127
51957,note_off,14,0,0,,4,,,52,127
51999,note_on,42,0,0,,6,,,54,127
52013,note_off,14,0,0,,7,,,55,127
52055,note_on,42,0,0,,4,,,52,127
52069,note_off,14,0,0,,6,,,54,127
52108,note_off,39,0,0,,7,,,67,127
52110,note_on,2,0,0,,4,,,64,127
52110,note_on,0,0,0,,7,,,79,127
52124,note_off,14,0,0,,4,,,52,127
52329,note_off,205,0,0,,7,,,79,127
52329,note_off,0,0,0,,4,,,64,127
52331,note_on,2,0,0,,2,,,62,127
52331,note_on,0,0,0,,6,,,78,127
52550,note_off,219,0,0,,6,,,78,127
52550,note_off,0,0,0,,2,,,62,127
52552,note_on,2,0,0,,2,,,62,127
52552,note_on,0,0,0,,6,,,78,127
52607,note_on,55,0,0,,1,,,61,127
52607,note_on,0,0,0,,4,,,76,127
52621,note_off,14,0,0,,6,,,78,127
52621,note_off,0,0,0,,2,,,62,127
52663,note_on,42,0,0,,2,,,62,127
52663,note_on,0,0,0,,6,,,78,127
52677,note_off,14,0,0,,4,,,76,127
52677,note_off,0,0,0,,1,,,61,127
52719,note_on,42,0,0,,1,,,61,127
52719,note_on,0,0,0,,4,,,76,127
52733,note_off,14,0,0,,6,,,78,127
52733,note_off,0,0,0,,2,,,62,127
52775,note_on,42,0,0,,12,,,59,127
52775,note_on,0,0,0,,2,,,74,127
52789,note_off,14,0,0,,4,,,76,127
52789,note_off,0,0,0,,1,,,61,127
52994,note_off,205,0,0,,2,,,74,127
52994,note_off,0,0,0,,12,,,59,127
52996,note_on,2,0,0,,10,,,57,127
52996,note_on,0,0,0,,1,,,73,127
53215,note_off,219,0,0,,1,,,73,127
53215,note_off,0,0,0,,10,,,57,127
53217,note_on,2,0,0,,2,,,38,127
53217,note_on,0,0,0,,2,,,50,127
53217,note_on,0,0,0,,2,,,74,127
53272,note_on,55,0,0,,6,,,78,127
53286,note_off,14,0,0,,2,,,74,127
53328,note_on,42,0,0,,4,,,76,127
53342,note_off,14,0,0,,6,,,78,127
53384,note_on,42,0,0,,2,,,74,127
53398,note_off,14,0,0,,4,,,76,127
53440,note_on,42,0,0,,2,,,86,127
53454,note_off,14,0,0,,2,,,74,127
53659,note_off,205,0,0,,2,,,86,127
53661,note_on,2,0,0,,6,,,78,127
53661,note_on,0,0,0,,0,,,84,127
53880,note_off,219,0,0,,0,,,84,127
53880,note_off,0,0,0,,6,,,78,127
53880,note_off,0,0,0,,2,,,50,127
53880,note_off,0,0,0,,2,,,38,127
53882,note_on,2,0,0,,2,,,38,127
53882,note_on,0,0,0,,2,,,50,127
53882,note_on,0,0,0,,0,,,84,127
53882,note_on,0,0,0,,10,,,81,127
53937,note_on,55,0,0,,7,,,79,127
53937,note_on,0,0,0,,12,,,83,127
53951,note_off,14,0,0,,10,,,81,127
53951,note_off,0,0,0,,0,,,84,127
53993,note_on,42,0,0,,10,,,81,127
53993,note_on,0,0,0,,0,,,84,127
54007,note_off,14,0,0,,12,,,83,127
54007,note_off,0,0,0,,7,,,79,127
54049,note_on,42,0,0,,7,,,79,127
54049,note_on,0,0,0,,12,,,83,127
54063,note_off,14,0,0,,0,,,84,127
54063,note_off,0,0,0,,10,,,81,127
54105,note_on,42,0,0,,10,,,81,127
54105,note_on,0,0,0,,6,,,78,127
54119,note_off,14,0,0,,12,,,83,127
54119,note_off,0,0,0,,7,,,79,127
54324,note_off,205,0,0,,6,,,78,127
54324,note_off,0,0,0,,10,,,81,127
54326,note_on,2,0,0,,12,,,83,127
54326,note_on,0,0,0,,7,,,79,127
54545,note_off,219,0,0,,7,,,79,127
54545,note_off,0,0,0,,12,,,83,127
54545,note_off,0,0,0,,2,,,50,127
54545,note_off,0,0,0,,2,,,38,127
54547,note_on,2,0,0,,2,,,38,127
54547,note_on,0,0,0,,2,,,50,127
54547,note_on,0,0,0,,12,,,71,127
54602,note_on,55,0,0,,2,,,74,127
54616,note_off,14,0,0,,12,,,71,127
54658,note_on,42,0,0,,1,,,73,127
54672,note_off,14,0,0,,2,,,74,127
54714,note_on,42,0,0,,12,,,71,127
54728,note_off,14,0,0,,1,,,73,127
54770,note_on,42,0,0,,10,,,81,127
54770,note_on,0,0,0,,1,,,73,127
54784,note_off,14,0,0,,12,,,71,127
54989,note_off,205,0,0,,1,,,73,127
54989,note_off,0,0,0,,10,,,81,127
54991,note_on,2,0,0,,7,,,79,127
54991,note_on,0,0,0,,10,,,69,127
55210,note_off,219,0,0,,10,,,69,127
55210,note_off,0,0,0,,7,,,79,127
55210,note_off,0,0,0,,2,,,50,127
55210,note_off,0,0,0,,2,,,38,127
55212,note_on,2,0,0,,2,,,38,127
55212,note_on,0,0,0,,2,,,50,127
55212,note_on,0,0,0,,7,,,79,127
55212,note_on,0,0,0,,4,,,76,127
55267,note_on,55,0,0,,2,,,74,127
55267,note_on,0,0,0,,6,,,78,127
55281,note_off,14,0,0,,4,,,76,127
55281,note_off,0,0,0,,7,,,79,127
55323,note_on,42,0,0,,4,,,76,127
55323,note_on,0,0,0,,7,,,79,127
55337,note_off,14,0,0,,6,,,78,127
55337,note_off,0,0,0,,2,,,74,127
55379,note_on,42,0,0,,2,,,74,127
55379,note_on,0,0,0,,6,,,78,127
55393,note_off,14,0,0,,7,,,79,127
55393,note_off,0,0,0,,4,,,76,127
55435,note_on,42,0,0,,1,,,73,127
55435,note_on,0,0,0,,4,,,76,127
55449,note_off,14,0,0,,6,,,78,127
55449,note_off,0,0,0,,2,,,74,127
55654,note_off,205,0,0,,4,,,76,127
55654,note_off,0,0,0,,1,,,73,127
55656,note_on,2,0,0,,6,,,78,127
55656,note_on,0,0,0,,2,,,74,127
55875,note_off,219,0,0,,2,,,74,127
55875,note_off,0,0,0,,6,,,78,127
55875,note_off,0,0,0,,2,,,50,127
55875,note_off,0,0,0,,2,,,38,127
55877,note_on,2,0,0,,2,,,50,127
55877,note_on,0,0,0,,2,,,38,127
55877,note_on,0,0,0,,2,,,74,127
55932,note_on,55,0,0,,6,,,78,127
55946,note_off,14,0,0,,2,,,74,127
55988,note_on,42,0,0,,4,,,76,127
56002,note_off,14,0,0,,6,,,78,127
56044,note_on,42,0,0,,2,,,74,127
56058,note_off,14,0,0,,4,,,76,127
56100,note_on,42,0,0,,2,,,86,127
56114,note_off,14,0,0,,2,,,74,127
56319,note_off,205,0,0,,2,,,86,127
56321,note_on,2,0,0,,0,,,84,127
56321,note_on,0,0,0,,6,,,78,127
56540,note_off,219,0,0,,6,,,78,127
56540,note_off,0,0,0,,0,,,84,127
56540,note_off,0,0,0,,2,,,38,127
56540,note_off,0,0,0,,2,,,50,127
56542,note_on,2,0,0,,2,,,38,127
56542,note_on,0,0,0,,2,,,50,127
56542,note_on,0,0,0,,7,,,79,127
56542,note_on,0,0,0,,0,,,84,127
56597,note_on,55,0,0,,12,,,83,127
56611,note_off,14,0,0,,0,,,84,127
56653,note_on,42,0,0,,0,,,84,127
56667,note_off,14,0,0,,12,,,83,127
56709,note_on,42,0,0,,12,,,83,127
56723,note_off,14,0,0,,0,,,84,127
56762,note_off,39,0,0,,7,,,79,127
56764,note_on,2,0,0,,6,,,78,127
56764,note_on,0,0,0,,10,,,81,127
56778,note_off,14,0,0,,12,,,83,127
56983,note_off,205,0,0,,10,,,81,127
56983,note_off,0,0,0,,6,,,78,127
56985,note_on,2,0,0,,7,,,79,127
56985,note_on,0,0,0,,12,,,83,127
57204,note_off,219,0,0,,12,,,83,127
57204,note_off,0,0,0,,7,,,79,127
57204,note_off,0,0,0,,2,,,50,127
57204,note_off,0,0,0,,2,,,38,127
57206,note_on,2,0,0,,2,,,38,127
57206,note_on,0,0,0,,2,,,50,127
57206,note_on,0,0,0,,12,,,71,127
57261,note_on,55,0,0,,2,,,74,127
57275,note_off,14,0,0,,12,,,71,127
57317,note_on,42,0,0,,1,,,73,127
57331,note_off,14,0,0,,2,,,74,127
57373,note_on,42,0,0,,12,,,71,127
57387,note_off,14,0,0,,1,,,73,127
57429,note_on,42,0,0,,1,,,73,127
57429,note_on,0,0,0,,10,,,81,127
57443,note_off,14,0,0,,12,,,71,127
57648,note_off,205,0,0,,10,,,81,127
57648,note_off,0,0,0,,1,,,73,127
57650,note_on,2,0,0,,7,,,79,127
57650,note_on,0,0,0,,10,,,69,127
57869,note_off,219,0,0,,10,,,69,127
57869,note_off,0,0,0,,7,,,79,127
57869,note_off,0,0,0,,2,,,50,127
57869,note_off,0,0,0,,2,,,38,127
57871,note_on,2,0,0,,2,,,38,127
57871,note_on,0,0,0,,2,,,50,127
57871,note_on,0,0,0,,2,,,74,127
57871,note_on,0,0,0,,7,,,79,127
57926,note_on,55,0,0,,6,,,78,127
57940,note_off,14,0,0,,7,,,79,127
57982,note_on,42,0,0,,7,,,79,127
57996,note_off,14,0,0,,6,,,78,127
58038,note_on,42,0,0,,6,,,78,127
58052,note_off,14,0,0,,7,,,79,127
58091,note_off,39,0,0,,2,,,74,127
58093,note_on,2,0,0,,4,,,76,127
58093,note_on,0,0,0,,1,,,73,127
58107,note_off,14,0,0,,6,,,78,127
58312,note_off,205,0,0,,1,,,73,127
58312,note_off,0,0,0,,4,,,76,127
58314,note_on,2,0,0,,2,,,74,127
58314,note_on,0,0,0,,6,,,78,127
58533,note_off,219,0,0,,6,,,78,127
58533,note_off,0,0,0,,2,,,74,127
58533,note_off,0,0,0,,2,,,50,127
58533,note_off,0,0,0,,2,,,38,127
58535,note_on,2,0,0,,2,,,50,127
58535,note_on,0,0,0,,10,,,81,127
58590,note_on,55,0,0,,6,,,54,127
58604,note_off,14,0,0,,2,,,50,127
58646,note_on,42,0,0,,4,,,52,127
58660,note_off,14,0,0,,6,,,54,127
58702,note_on,42,0,0,,2,,,50,127
58716,note_off,14,0,0,,4,,,52,127
58755,note_off,39,0,0,,10,,,81,127
58757,note_on,2,0,0,,2,,,62,127
58757,note_on,0,0,0,,6,,,78,127
58771,note_off,14,0,0,,2,,,50,127
58976,note_off,205,0,0,,6,,,78,127
58976,note_off,0,0,0,,2,,,62,127
58978,note_on,2,0,0,,1,,,61,127
58978,note_on,0,0,0,,4,,,76,127
59197,note_off,219,0,0,,4,,,76,127
59197,note_off,0,0,0,,1,,,61,127
59199,note_on,2,0,0,,1,,,61,127
59199,note_on,0,0,0,,4,,,76,127
59254,note_on,55,0,0,,12,,,59,127
59254,note_on,0,0,0,,2,,,74,127
59268,note_off,14,0,0,,4,,,76,127
59268,note_off,0,0,0,,1,,,61,127
59310,note_on,42,0,0,,1,,,61,127
59310,note_on,0,0,0,,4,,,76,127
59324,note_off,14,0,0,,2,,,74,127
59324,note_off,0,0,0,,12,,,59,127
59366,note_on,42,0,0,,12,,,59,127
59366,note_on,0,0,0,,2,,,74,127
59380,note_off,14,0,0,,4,,,76,127
59380,note_off,0,0,0,,1,,,61,127
59422,note_on,42,0,0,,11,,,58,127
59422,note_on,0,0,0,,1,,,73,127
59436,note_off,14,0,0,,2,,,74,127
59436,note_off,0,0,0,,12,,,59,127
59641,note_off,205,0,0,,1,,,73,127
59641,note_off,0,0,0,,11,,,58,127
59643,note_on,2,0,0,,12,,,59,127
59643,note_on,0,0,0,,2,,,74,127
59862,note_off,219,0,0,,2,,,74,127
59862,note_off,0,0,0,,12,,,59,127
59864,note_on,2,0,0,,4,,,52,127
59864,note_on,0,0,0,,12,,,83,127
59919,note_on,55,0,0,,7,,,55,127
59933,note_off,14,0,0,,4,,,52,127
59975,note_on,42,0,0,,6,,,54,127
59989,note_off,14,0,0,,7,,,55,127
60031,note_on,42,0,0,,4,,,52,127
60045,note_off,14,0,0,,6,,,54,127
60084,note_off,39,0,0,,12,,,83,127
60086,note_on,2,0,0,,4,,,64,127
60086,note_on,0,0,0,,7,,,79,127
60100,note_off,14,0,0,,4,,,52,127
60305,note_off,205,0,0,,7,,,79,127
60305,note_off,0,0,0,,4,,,64,127
60307,note_on,2,0,0,,2,,,62,127
60307,note_on,0,0,0,,6,,,78,127
60526,note_off,219,0,0,,6,,,78,127
60526,note_off,0,0,0,,2,,,62,127
60528,note_on,2,0,0,,2,,,62,127
60528,note_on,0,0,0,,6,,,78,127
60583,note_on,55,0,0,,1,,,61,127
60583,note_on,0,0,0,,4,,,76,127
60597,note_off,14,0,0,,6,,,78,127
60597,note_off,0,0,0,,2,,,62,127
60639,note_on,42,0,0,,2,,,62,127
60639,note_on,0,0,0,,6,,,78,127
60653,note_off,14,0,0,,4,,,76,127
60653,note_off,0,0,0,,1,,,61,127
60695,note_on,42,0,0,,1,,,61,127
60695,note_on,0,0,0,,4,,,76,127
60709,note_off,14,0,0,,6,,,78,127
60709,note_off,0,0,0,,2,,,62,127
60751,note_on,42,0,0,,12,,,59,127
60751,note_on,0,0,0,,2,,,74,127
60765,note_off,14,0,0,,4,,,76,127
60765,note_off,0,0,0,,1,,,61,127
60970,note_off,205,0,0,,2,,,74,127
60970,note_off,0,0,0,,12,,,59,127
60972,note_on,2,0,0,,10,,,57,127
60972,note_on,0,0,0,,1,,,73,127
61191,note_off,219,0,0,,1,,,73,127
61191,note_off,0,0,0,,10,,,57,127
61193,note_on,2,0,0,,10,,,45,127
61193,note_on,0,0,0,,4,,,76,127
61248,note_on,55,0,0,,1,,,49,127
61262,note_off,14,0,0,,10,,,45,127
61304,note_on,42,0,0,,12,,,47,127
61318,note_off,14,0,0,,1,,,49,127
61360,note_on,42,0,0,,10,,,45,127
61374,note_off,14,0,0,,12,,,47,127
61413,note_off,39,0,0,,4,,,76,127
61415,note_on,2,0,0,,10,,,57,127
61415,note_on,0,0,0,,10,,,81,127
61429,note_off,14,0,0,,10,,,45,127
61634,note_off,205,0,0,,10,,,81,127
61634,note_off,0,0,0,,10,,,57,127
61636,note_on,2,0,0,,7,,,55,127
61636,note_on,0,0,0,,1,,,73,127
61855,note_off,219,0,0,,1,,,73,127
61855,note_off,0,0,0,,7,,,55,127
61857,note_on,2,0,0,,7,,,55,127
61857,note_on,0,0,0,,2,,,74,127
61912,note_on,55,0,0,,6,,,54,127
61926,note_off,14,0,0,,7,,,55,127
61968,note_on,42,0,0,,7,,,55,127
61982,note_off,14,0,0,,6,,,54,127
62024,note_on,42,0,0,,6,,,54,127
62038,note_off,14,0,0,,7,,,55,127
62077,note_off,39,0,0,,2,,,74,127
62079,note_on,2,0,0,,4,,,52,127
62079,note_on,0,0,0,,4,,,76,127
62093,note_off,14,0,0,,6,,,54,127
62298,note_off,205,0,0,,4,,,76,127
62298,note_off,0,0,0,,4,,,52,127
62300,note_on,2,0,0,,2,,,50,127
62300,note_on,0,0,0,,6,,,78,127
62519,note_off,219,0,0,,6,,,78,127
62519,note_off,0,0,0,,2,,,50,127
62521,note_on,2,0,0,,7,,,55,127
62521,note_on,0,0,0,,4,,,76,127
62740,note_off,219,0,0,,4,,,76,127
62740,note_off,0,0,0,,7,,,55,127
62742,note_on,2,0,0,,10,,,57,127
62742,note_on,0,0,0,,2,,,74,127
62961,note_off,219,0,0,,2,,,74,127
62963,note_on,2,0,0,,10,,,45,127
62963,note_on,0,0,0,,1,,,73,127
63180,note_off,217,0,0,,10,,,57,127
63182,note_off,2,0,0,,1,,,73,127
63182,note_off,0,0,0,,10,,,45,127
63184,note_on,2,0,0,,2,,,50,127
63184,note_on,0,0,0,,2,,,74,127
63403,note_off,219,0,0,,2,,,74,127
63403,note_off,0,0,0,,2,,,50,127
63405,note_on,2,0,0,,4,,,52,127
63405,note_on,0,0,0,,2,,,86,127
63624,note_off,219,0,0,,4,,,52,127
63626,note_on,2,0,0,,6,,,54,127
63845,note_off,219,0,0,,6,,,54,127
63845,note_off,0,0,0,,2,,,86,127
63847,note_on,2,0,0,,7,,,55,127
63847,note_on,0,0,0,,4,,,76,127
63955,note_off,108,0,0,,4,,,76,127
63957,note_on,2,0,0,,6,,,78,127
64012,note_on,55,0,0,,7,,,79,127
64026,note_off,14,0,0,,6,,,78,127
64065,note_off,39,0,0,,7,,,79,127
64065,note_off,0,0,0,,7,,,55,127
64067,note_on,2,0,0,,10,,,57,127
64067,note_on,0,0,0,,7,,,79,127
64122,note_on,55,0,0,,6,,,78,127
64136,note_off,14,0,0,,7,,,79,127
64178,note_on,42,0,0,,7,,,79,127
64192,note_off,14,0,0,,6,,,78,127
64234,note_on,42,0,0,,6,,,78,127
64248,note_off,14,0,0,,7,,,79,127
64290,note_on,42,0,0,,10,,,45,127
64290,note_on,0,0,0,,7,,,79,127
64304,note_off,14,0,0,,6,,,78,127
64346,note_on,42,0,0,,6,,,78,127
64360,note_off,14,0,0,,7,,,79,127
64402,note_on,42,0,0,,4,,,76,127
64416,note_off,14,0,0,,6,,,78,127
64508,note_off,92,0,0,,10,,,57,127
64510,note_off,2,0,0,,4,,,76,127
64510,note_off,0,0,0,,10,,,45,127
64512,note_on,2,0,0,,2,,,50,127
64512,note_on,0,0,0,,4,,,76,127
64620,note_off,108,0,0,,4,,,76,127
64622,note_on,2,0,0,,6,,,78,127
64730,note_off,108,0,0,,6,,,78,127
64730,note_off,0,0,0,,2,,,50,127
64732,note_on,2,0,0,,4,,,52,127
64732,note_on,0,0,0,,2,,,86,127
64951,note_off,219,0,0,,4,,,52,127
64953,note_on,2,0,0,,6,,,54,127
65172,note_off,219,0,0,,6,,,54,127
65172,note_off,0,0,0,,2,,,86,127
65174,note_on,2,0,0,,7,,,55,127
65174,note_on,0,0,0,,4,,,76,127
65282,note_off,108,0,0,,4,,,76,127
65284,note_on,2,0,0,,6,,,78,127
65339,note_on,55,0,0,,7,,,79,127
65353,note_off,14,0,0,,6,,,78,127
65392,note_off,39,0,0,,7,,,79,127
65392,note_off,0,0,0,,7,,,55,127
65394,note_on,2,0,0,,10,,,57,127
65394,note_on,0,0,0,,7,,,79,127
65449,note_on,55,0,0,,6,,,78,127
65463,note_off,14,0,0,,7,,,79,127
65505,note_on,42,0,0,,7,,,79,127
65519,note_off,14,0,0,,6,,,78,127
65561,note_on,42,0,0,,6,,,78,127
65575,note_off,14,0,0,,7,,,79,127
65617,note_on,42,0,0,,10,,,45,127
65617,note_on,0,0,0,,7,,,79,127
65631,note_off,14,0,0,,6,,,78,127
65673,note_on,42,0,0,,6,,,78,127
65687,note_off,14,0,0,,7,,,79,127
65729,note_on,42,0,0,,4,,,76,127
65743,note_off,14,0,0,,6,,,78,127
65835,note_off,92,0,0,,10,,,57,127
65837,note_off,2,0,0,,4,,,76,127
65837,note_off,0,0,0,,10,,,45,127
65839,note_on,2,0,0,,2,,,50,127
65839,note_on,0,0,0,,4,,,76,127
65947,note_off,108,0,0,,4,,,76,127
65949,note_on,2,0,0,,6,,,78,127
66057,note_off,108,0,0,,6,,,78,127
66057,note_off,0,0,0,,2,,,50,127
66059,note_on,2,0,0,,4,,,52,127
66059,note_on,0,0,0,,2,,,86,127
66278,note_off,219,0,0,,4,,,52,127
66280,note_on,2,0,0,,5,,,53,127
66499,note_off,219,0,0,,5,,,53,127
66499,note_off,0,0,0,,2,,,86,127
66501,note_on,2,0,0,,7,,,55,127
66501,note_on,0,0,0,,4,,,76,127
66609,note_off,108,0,0,,4,,,76,127
66611,note_on,2,0,0,,5,,,77,127
66666,note_on,55,0,0,,7,,,79,127
66680,note_off,14,0,0,,5,,,77,127
66719,note_off,39,0,0,,7,,,79,127
66719,note_off,0,0,0,,7,,,55,127
66721,note_on,2,0,0,,10,,,57,127
66721,note_on,0,0,0,,7,,,79,127
66776,note_on,55,0,0,,5,,,77,127
66790,note_off,14,0,0,,7,,,79,127
66832,note_on,42,0,0,,7,,,79,127
66846,note_off,14,0,0,,5,,,77,127
66888,note_on,42,0,0,,5,,,77,127
66902,note_off,14,0,0,,7,,,79,127
66941,note_off,39,0,0,,10,,,57,127
66943,note_on,2,0,0,,10,,,45,127
66943,note_on,0,0,0,,7,,,79,127
66957,note_off,14,0,0,,5,,,77,127
66999,note_on,42,0,0,,5,,,77,127
67013,note_off,14,0,0,,7,,,79,127
67055,note_on,42,0,0,,4,,,76,127
67069,note_off,14,0,0,,5,,,77,127
67164,note_off,95,0,0,,4,,,76,127
67164,note_off,0,0,0,,10,,,45,127
67166,note_on,2,0,0,,2,,,50,127
67166,note_on,0,0,0,,4,,,76,127
67274,note_off,108,0,0,,4,,,76,127
67276,note_on,2,0,0,,5,,,77,127
67384,note_off,108,0,0,,5,,,77,127
67384,note_off,0,0,0,,2,,,50,127
67386,note_on,2,0,0,,4,,,52,127
67386,note_on,0,0,0,,2,,,86,127
67605,note_off,219,0,0,,4,,,52,127
67607,note_on,2,0,0,,5,,,53,127
67826,note_off,219,0,0,,5,,,53,127
67826,note_off,0,0,0,,2,,,86,127
67828,note_on,2,0,0,,7,,,55,127
67828,note_on,0,0,0,,4,,,76,127
67936,note_off,108,0,0,,4,,,76,127
67938,note_on,2,0,0,,5,,,77,127
67993,note_on,55,0,0,,7,,,79,127
68007,note_off,14,0,0,,5,,,77,127
68046,note_off,39,0,0,,7,,,79,127
68046,note_off,0,0,0,,7,,,55,127
68048,note_on,2,0,0,,10,,,57,127
68048,note_on,0,0,0,,7,,,79,127
68103,note_on,55,0,0,,5,,,77,127
68117,note_off,14,0,0,,7,,,79,127
68159,note_on,42,0,0,,7,,,79,127
68173,note_off,14,0,0,,5,,,77,127
68215,note_on,42,0,0,,5,,,77,127
68229,note_off,14,0,0,,7,,,79,127
68268,note_off,39,0,0,,10,,,57,127
68270,note_on,2,0,0,,10,,,45,127
68270,note_on,0,0,0,,7,,,79,127
68284,note_off,14,0,0,,5,,,77,127
68326,note_on,42,0,0,,5,,,77,127
68340,note_off,14,0,0,,7,,,79,127
68382,note_on,42,0,0,,4,,,76,127
68396,note_off,14,0,0,,5,,,77,127
68491,note_off,95,0,0,,4,,,76,127
68491,note_off,0,0,0,,10,,,45,127
68493,note_on,2,0,0,,2,,,50,127
68493,note_on,0,0,0,,2,,,74,127
68712,note_off,219,0,0,,2,,,74,127
68712,note_off,0,0,0,,2,,,50,127
68714,note_on,2,0,0,,4,,,52,127
68714,note_on,0,0,0,,2,,,86,127
68933,note_off,219,0,0,,2,,,86,127
68933,note_off,0,0,0,,4,,,52,127
68935,note_on,2,0,0,,6,,,54,127
68935,note_on,0,0,0,,10,,,57,127
68935,note_on,0,0,0,,2,,,86,127
69154,note_off,219,0,0,,2,,,86,127
69154,note_off,0,0,0,,10,,,57,127
69154,note_off,0,0,0,,6,,,54,127
69156,note_on,2,0,0,,12,,,59,127
69156,note_on,0,0,0,,7,,,55,127
69156,note_on,0,0,0,,2,,,86,127
69264,note_off,108,0,0,,2,,,86,127
69266,note_on,2,0,0,,12,,,83,127
69321,note_on,55,0,0,,7,,,79,127
69335,note_off,14,0,0,,12,,,83,127
69374,note_off,39,0,0,,7,,,55,127
69374,note_off,0,0,0,,12,,,59,127
69376,note_on,2,0,0,,6,,,54,127
69376,note_on,0,0,0,,10,,,57,127
69376,note_on,0,0,0,,2,,,86,127
69390,note_off,14,0,0,,7,,,79,127
69595,note_off,205,0,0,,2,,,86,127
69595,note_off,0,0,0,,10,,,57,127
69595,note_off,0,0,0,,6,,,54,127
69597,note_on,2,0,0,,7,,,55,127
69597,note_on,0,0,0,,4,,,52,127
69597,note_on,0,0,0,,2,,,86,127
69816,note_off,219,0,0,,2,,,86,127
69816,note_off,0,0,0,,4,,,52,127
69816,note_off,0,0,0,,7,,,55,127
69818,note_on,2,0,0,,6,,,54,127
69818,note_on,0,0,0,,10,,,57,127
69818,note_on,0,0,0,,2,,,86,127
69926,note_off,108,0,0,,2,,,86,127
69928,note_on,2,0,0,,10,,,81,127
69983,note_on,55,0,0,,6,,,78,127
69997,note_off,14,0,0,,10,,,81,127
70036,note_off,39,0,0,,10,,,57,127
70036,note_off,0,0,0,,6,,,54,127
70038,note_on,2,0,0,,7,,,55,127
70038,note_on,0,0,0,,4,,,52,127
70038,note_on,0,0,0,,2,,,86,127
70052,note_off,14,0,0,,6,,,78,127
70257,note_off,205,0,0,,2,,,86,127
70257,note_off,0,0,0,,4,,,52,127
70257,note_off,0,0,0,,7,,,55,127
70259,note_on,2,0,0,,6,,,54,127
70259,note_on,0,0,0,,10,,,57,127
70259,note_on,0,0,0,,2,,,86,127
70478,note_off,219,0,0,,2,,,86,127
70478,note_off,0,0,0,,10,,,57,127
70478,note_off,0,0,0,,6,,,54,127
70480,note_on,2,0,0,,7,,,55,127
70480,note_on,0,0,0,,12,,,83,127
70588,note_off,108,0,0,,12,,,83,127
70590,note_on,2,0,0,,7,,,79,127
70645,note_on,55,0,0,,4,,,76,127
70659,note_off,14,0,0,,7,,,79,127
70698,note_off,39,0,0,,7,,,55,127
70700,note_on,2,0,0,,10,,,57,127
70700,note_on,0,0,0,,10,,,81,127
70714,note_off,14,0,0,,4,,,76,127
70809,note_off,95,0,0,,10,,,81,127
70811,note_on,2,0,0,,6,,,78,127
70866,note_on,55,0,0,,2,,,74,127
70880,note_off,14,0,0,,6,,,78,127
70922,note_on,42,0,0,,10,,,45,127
70922,note_on,0,0,0,,7,,,79,127
70936,note_off,14,0,0,,2,,,74,127
71031,note_off,95,0,0,,7,,,79,127
71033,note_on,2,0,0,,4,,,76,127
71088,note_on,55,0,0,,1,,,73,127
71102,note_off,14,0,0,,4,,,76,127
71139,note_off,37,0,0,,10,,,57,127
71141,note_off,2,0,0,,10,,,45,127
71157,note_off,16,0,0,,1,,,73,127
71163,note_on,6,0,0,,2,,,74,127
71163,note_on,0,0,0,,2,,,50,127
71163,note_on,0,0,0,,6,,,54,127
71386,note_off,223,0,0,,6,,,54,127
71386,note_off,0,0,0,,2,,,50,127
71386,note_off,0,0,0,,2,,,74,127
71389,note_on,3,0,0,,2,,,74,127
71389,note_on,0,0,0,,7,,,55,127
71389,note_on,0,0,0,,4,,,52,127
71612,note_off,223,0,0,,4,,,52,127
71612,note_off,0,0,0,,7,,,55,127
71612,note_off,0,0,0,,2,,,74,127
71615,note_on,3,0,0,,2,,,74,127
71615,note_on,0,0,0,,10,,,57,127
71615,note_on,0,0,0,,6,,,54,127
71838,note_off,223,0,0,,6,,,54,127
71838,note_off,0,0,0,,10,,,57,127
71838,note_off,0,0,0,,2,,,74,127
71841,note_on,3,0,0,,2,,,74,127
71841,note_on,0,0,0,,7,,,55,127
71841,note_on,0,0,0,,12,,,59,127
71951,note_off,110,0,0,,2,,,74,127
71953,note_on,2,0,0,,12,,,71,127
72010,note_on,57,0,0,,7,,,67,127
72024,note_off,14,0,0,,12,,,71,127
72064,note_off,40,0,0,,12,,,59,127
72064,note_off,0,0,0,,7,,,55,127
72066,note_on,2,0,0,,2,,,74,127
72066,note_on,0,0,0,,10,,,57,127
72066,note_on,0,0,0,,6,,,54,127
72080,note_off,14,0,0,,7,,,67,127
72289,note_off,209,0,0,,6,,,54,127
72289,note_off,0,0,0,,10,,,57,127
72289,note_off,0,0,0,,2,,,74,127
72292,note_on,3,0,0,,2,,,74,127
72292,note_on,0,0,0,,4,,,52,127
72292,note_on,0,0,0,,7,,,55,127
72515,note_off,223,0,0,,7,,,55,127
72515,note_off,0,0,0,,4,,,52,127
72515,note_off,0,0,0,,2,,,74,127
72518,note_on,3,0,0,,2,,,74,127
72518,note_on,0,0,0,,10,,,57,127
72518,note_on,0,0,0,,6,,,54,127
72628,note_off,110,0,0,,2,,,74,127
72631,note_on,3,0,0,,10,,,69,127
72688,note_on,57,0,0,,6,,,66,127
72702,note_off,14,0,0,,10,,,69,127
72741,note_off,39,0,0,,6,,,54,127
72741,note_off,0,0,0,,10,,,57,127
72744,note_on,3,0,0,,2,,,74,127
72744,note_on,0,0,0,,4,,,52,127
72744,note_on,0,0,0,,7,,,55,127
72758,note_off,14,0,0,,6,,,66,127
72967,note_off,209,0,0,,7,,,55,127
72967,note_off,0,0,0,,4,,,52,127
72967,note_off,0,0,0,,2,,,74,127
72970,note_on,3,0,0,,2,,,74,127
72970,note_on,0,0,0,,10,,,57,127
72970,note_on,0,0,0,,6,,,54,127
73193,note_off,223,0,0,,6,,,54,127
73193,note_off,0,0,0,,10,,,57,127
73193,note_off,0,0,0,,2,,,74,127
73203,note_on,10,0,0,,7,,,55,127
73203,note_on,0,0,0,,12,,,71,127
73315,note_off,112,0,0,,12,,,71,127
73322,note_on,7,0,0,,7,,,67,127
73381,note_on,59,0,0,,4,,,64,127
73395,note_off,14,0,0,,7,,,67,127
73434,note_off,39,0,0,,7,,,55,127
73441,note_on,7,0,0,,10,,,57,127
73441,note_on,0,0,0,,10,,,69,127
73454,note_off,13,0,0,,4,,,64,127
73553,note_off,99,0,0,,10,,,69,127
73561,note_on,8,0,0,,6,,,66,127
73621,note_on,60,0,0,,2,,,62,127
73634,note_off,13,0,0,,6,,,66,127
73681,note_on,47,0,0,,10,,,45,127
73681,note_on,0,0,0,,7,,,67,127
73694,note_off,13,0,0,,2,,,62,127
73793,note_off,99,0,0,,7,,,67,127
73801,note_on,8,0,0,,4,,,64,127
73861,note_on,60,0,0,,1,,,61,127
73874,note_off,13,0,0,,4,,,64,127
73907,note_off,33,0,0,,10,,,57,127
73912,note_off,5,0,0,,10,,,45,127
73914,note_off,2,0,0,,1,,,61,127
73935,note_on,21,0,0,,2,,,38,127
73935,note_on,0,0,0,,2,,,50,127
73935,note_on,0,0,0,,2,,,62,127
75818,note_off,1883,0,0,,2,,,62,127
75818,note_off,0,0,0,,2,,,50,127
75818,note_off,0,0,0,,2,,,38,127
81408,end_of_track,5590,1,0,,,,,,
