tick,type,time,meta,track,program,channel,pitch,tempo,note,velocity
0,copyright,0,1,0,,,,,,
0,program_change,0,0,0,6,0,,,,
0,pitchwheel,0,0,0,,0,0,,,
0,program_change,0,0,0,6,1,,,,
0,pitchwheel,0,0,0,,1,-590,,,
0,program_change,0,0,0,6,2,,,,
0,pitchwheel,0,0,0,,2,-272,,,
0,program_change,0,0,0,6,3,,,,
0,pitchwheel,0,0,0,,3,-353,,,
0,program_change,0,0,0,6,4,,,,
0,pitchwheel,0,0,0,,4,-560,,,
0,program_change,0,0,0,6,5,,,,
0,pitchwheel,0,0,0,,5,-80,,,
0,program_change,0,0,0,6,6,,,,
0,pitchwheel,0,0,0,,6,-625,,,
0,program_change,0,0,0,6,7,,,,
0,pitchwheel,0,0,0,,7,-130,,,
0,program_change,0,0,0,6,8,,,,
0,pitchwheel,0,0,0,,8,-512,,,
0,program_change,0,0,0,6,10,,,,
0,pitchwheel,0,0,0,,10,-464,,,
0,program_change,0,0,0,6,11,,,,
0,pitchwheel,0,0,0,,11,-208,,,
0,program_change,0,0,0,6,12,,,,
0,pitchwheel,0,0,0,,12,-553,,,
0,set_tempo,0,1,0,,,,500000,,
105,note_on,105,0,0,,10,,,81,127
155,note_off,50,0,0,,10,,,81,127
157,note_on,2,0,0,,7,,,79,127
207,note_off,50,0,0,,7,,,79,127
209,note_on,2,0,0,,10,,,81,127
259,note_off,50,0,0,,10,,,81,127
261,note_on,2,0,0,,7,,,79,127
311,note_off,50,0,0,,7,,,79,127
313,note_on,2,0,0,,10,,,81,127
363,note_off,50,0,0,,10,,,81,127
365,note_on,2,0,0,,7,,,79,127
415,note_off,50,0,0,,7,,,79,127
417,note_on,2,0,0,,6,,,78,127
520,note_off,103,0,0,,6,,,78,127
522,note_on,2,0,0,,7,,,79,127
625,note_off,103,0,0,,7,,,79,127
627,note_on,2,0,0,,2,,,74,127
730,note_off,103,0,0,,2,,,74,127
732,note_on,2,0,0,,12,,,71,127
835,note_off,103,0,0,,12,,,71,127
837,note_on,2,0,0,,7,,,67,127
940,note_off,103,0,0,,7,,,67,127
942,note_on,2,0,0,,4,,,64,127
1045,note_off,103,0,0,,4,,,64,127
1047,note_on,2,0,0,,0,,,72,127
1150,note_off,103,0,0,,0,,,72,127
1152,note_on,2,0,0,,6,,,66,127
1255,note_off,103,0,0,,6,,,66,127
1257,note_on,2,0,0,,2,,,74,127
1360,note_off,103,0,0,,2,,,74,127
1362,note_on,2,0,0,,7,,,67,127
1465,note_off,103,0,0,,7,,,67,127
1467,note_on,2,0,0,,4,,,76,127
1570,note_off,103,0,0,,4,,,76,127
1572,note_on,2,0,0,,10,,,69,127
1675,note_off,103,0,0,,10,,,69,127
1677,note_on,2,0,0,,6,,,78,127
1780,note_off,103,0,0,,6,,,78,127
1782,note_on,2,0,0,,10,,,69,127
1782,note_on,0,0,0,,12,,,71,127
1832,note_off,50,0,0,,10,,,69,127
1834,note_on,2,0,0,,7,,,67,127
1884,note_off,50,0,0,,7,,,67,127
1886,note_on,2,0,0,,10,,,69,127
1936,note_off,50,0,0,,10,,,69,127
1938,note_on,2,0,0,,7,,,67,127
1988,note_off,50,0,0,,7,,,67,127
1988,note_off,0,0,0,,12,,,71,127
1990,note_on,2,0,0,,10,,,69,127
1990,note_on,0,0,0,,7,,,79,127
2040,note_off,50,0,0,,10,,,69,127
2042,note_on,2,0,0,,7,,,67,127
2092,note_off,50,0,0,,7,,,67,127
2094,note_on,2,0,0,,6,,,66,127
2197,note_off,103,0,0,,6,,,66,127
2199,note_on,2,0,0,,7,,,67,127
2302,note_off,103,0,0,,7,,,67,127
2304,note_on,2,0,0,,2,,,62,127
2407,note_off,103,0,0,,2,,,62,127
2409,note_on,2,0,0,,12,,,59,127
2512,note_off,103,0,0,,12,,,59,127
2514,note_on,2,0,0,,7,,,55,127
2617,note_off,103,0,0,,7,,,55,127
2619,note_on,2,0,0,,4,,,52,127
2722,note_off,103,0,0,,4,,,52,127
2724,note_on,2,0,0,,0,,,60,127
2827,note_off,103,0,0,,0,,,60,127
2827,note_off,0,0,0,,7,,,79,127
2829,note_on,2,0,0,,6,,,54,127
2829,note_on,0,0,0,,0,,,72,127
2932,note_off,103,0,0,,6,,,54,127
2934,note_on,2,0,0,,2,,,62,127
3037,note_off,103,0,0,,2,,,62,127
3037,note_off,0,0,0,,0,,,72,127
3039,note_on,2,0,0,,7,,,55,127
3039,note_on,0,0,0,,12,,,71,127
3142,note_off,103,0,0,,7,,,55,127
3144,note_on,2,0,0,,4,,,64,127
3247,note_off,103,0,0,,4,,,64,127
3247,note_off,0,0,0,,12,,,71,127
3249,note_on,2,0,0,,10,,,57,127
3249,note_on,0,0,0,,10,,,69,127
3352,note_off,103,0,0,,10,,,57,127
3354,note_on,2,0,0,,6,,,66,127
3457,note_off,103,0,0,,6,,,66,127
3457,note_off,0,0,0,,10,,,69,127
3459,note_on,2,0,0,,12,,,59,127
3459,note_on,0,0,0,,2,,,74,127
3564,note_on,105,0,0,,7,,,67,127
3667,note_off,103,0,0,,7,,,67,127
3667,note_off,0,0,0,,2,,,74,127
3669,note_on,2,0,0,,6,,,66,127
3772,note_off,103,0,0,,6,,,66,127
3774,note_on,2,0,0,,7,,,67,127
3877,note_off,103,0,0,,7,,,67,127
3879,note_on,2,0,0,,12,,,71,127
3982,note_off,103,0,0,,12,,,71,127
3984,note_on,2,0,0,,7,,,67,127
4087,note_off,103,0,0,,7,,,67,127
4087,note_off,0,0,0,,12,,,59,127
4089,note_on,2,0,0,,7,,,55,127
4089,note_on,0,0,0,,2,,,74,127
4192,note_off,103,0,0,,2,,,74,127
4194,note_on,2,0,0,,7,,,67,127
4297,note_off,103,0,0,,7,,,67,127
4297,note_off,0,0,0,,7,,,55,127
4299,note_on,2,0,0,,0,,,60,127
4299,note_on,0,0,0,,4,,,76,127
4404,note_on,105,0,0,,7,,,67,127
4507,note_off,103,0,0,,7,,,67,127
4507,note_off,0,0,0,,4,,,76,127
4509,note_on,2,0,0,,6,,,66,127
4612,note_off,103,0,0,,6,,,66,127
4614,note_on,2,0,0,,7,,,67,127
4717,note_off,103,0,0,,7,,,67,127
4719,note_on,2,0,0,,0,,,72,127
4822,note_off,103,0,0,,0,,,72,127
4824,note_on,2,0,0,,7,,,67,127
4927,note_off,103,0,0,,7,,,67,127
4927,note_off,0,0,0,,0,,,60,127
4929,note_on,2,0,0,,10,,,57,127
4929,note_on,0,0,0,,4,,,76,127
5032,note_off,103,0,0,,4,,,76,127
5034,note_on,2,0,0,,7,,,67,127
5137,note_off,103,0,0,,7,,,67,127
5137,note_off,0,0,0,,10,,,57,127
5139,note_on,2,0,0,,12,,,59,127
5139,note_on,0,0,0,,2,,,74,127
5244,note_on,105,0,0,,7,,,67,127
5347,note_off,103,0,0,,7,,,67,127
5347,note_off,0,0,0,,2,,,74,127
5349,note_on,2,0,0,,6,,,66,127
5452,note_off,103,0,0,,6,,,66,127
5454,note_on,2,0,0,,7,,,67,127
5557,note_off,103,0,0,,7,,,67,127
5559,note_on,2,0,0,,12,,,71,127
5662,note_off,103,0,0,,12,,,71,127
5664,note_on,2,0,0,,7,,,67,127
5767,note_off,103,0,0,,7,,,67,127
5767,note_off,0,0,0,,12,,,59,127
5769,note_on,2,0,0,,7,,,55,127
5769,note_on,0,0,0,,2,,,74,127
5872,note_off,103,0,0,,2,,,74,127
5874,note_on,2,0,0,,7,,,67,127
5977,note_off,103,0,0,,7,,,67,127
5977,note_off,0,0,0,,7,,,55,127
5979,note_on,2,0,0,,10,,,57,127
5979,note_on,0,0,0,,0,,,72,127
6084,note_on,105,0,0,,7,,,67,127
6187,note_off,103,0,0,,7,,,67,127
6187,note_off,0,0,0,,0,,,72,127
6189,note_on,2,0,0,,6,,,66,127
6292,note_off,103,0,0,,6,,,66,127
6294,note_on,2,0,0,,7,,,67,127
6397,note_off,103,0,0,,7,,,67,127
6397,note_off,0,0,0,,10,,,57,127
6399,note_on,2,0,0,,2,,,50,127
6399,note_on,0,0,0,,10,,,69,127
6502,note_off,103,0,0,,10,,,69,127
6504,note_on,2,0,0,,7,,,67,127
6607,note_off,103,0,0,,7,,,67,127
6609,note_on,2,0,0,,0,,,72,127
6712,note_off,103,0,0,,0,,,72,127
6714,note_on,2,0,0,,7,,,67,127
6814,note_off,100,0,0,,2,,,50,127
6816,note_off,2,0,0,,7,,,67,127
6818,note_on,2,0,0,,12,,,71,127
6923,note_on,105,0,0,,7,,,55,127
7026,note_off,103,0,0,,7,,,55,127
7028,note_on,2,0,0,,10,,,57,127
7131,note_off,103,0,0,,10,,,57,127
7133,note_on,2,0,0,,7,,,55,127
7236,note_off,103,0,0,,7,,,55,127
7238,note_on,2,0,0,,12,,,59,127
7341,note_off,103,0,0,,12,,,59,127
7343,note_on,2,0,0,,7,,,55,127
7446,note_off,103,0,0,,7,,,55,127
7446,note_off,0,0,0,,12,,,71,127
7448,note_on,2,0,0,,2,,,62,127
7448,note_on,0,0,0,,7,,,79,127
7448,note_on,0,0,0,,12,,,71,127
7551,note_off,103,0,0,,2,,,62,127
7553,note_on,2,0,0,,7,,,55,127
7656,note_off,103,0,0,,7,,,55,127
7656,note_off,0,0,0,,12,,,71,127
7656,note_off,0,0,0,,7,,,79,127
7658,note_on,2,0,0,,4,,,64,127
7658,note_on,0,0,0,,7,,,79,127
7658,note_on,0,0,0,,0,,,72,127
7761,note_off,103,0,0,,4,,,64,127
7763,note_on,2,0,0,,7,,,55,127
7866,note_off,103,0,0,,7,,,55,127
7868,note_on,2,0,0,,6,,,54,127
7971,note_off,103,0,0,,6,,,54,127
7973,note_on,2,0,0,,7,,,55,127
8076,note_off,103,0,0,,7,,,55,127
8078,note_on,2,0,0,,0,,,60,127
8181,note_off,103,0,0,,0,,,60,127
8183,note_on,2,0,0,,7,,,55,127
8286,note_off,103,0,0,,7,,,55,127
8286,note_off,0,0,0,,0,,,72,127
8286,note_off,0,0,0,,7,,,79,127
8288,note_on,2,0,0,,4,,,64,127
8288,note_on,0,0,0,,7,,,67,127
8288,note_on,0,0,0,,7,,,79,127
8391,note_off,103,0,0,,4,,,64,127
8393,note_on,2,0,0,,7,,,55,127
8496,note_off,103,0,0,,7,,,55,127
8496,note_off,0,0,0,,7,,,79,127
8496,note_off,0,0,0,,7,,,67,127
8498,note_on,2,0,0,,2,,,62,127
8498,note_on,0,0,0,,7,,,79,127
8498,note_on,0,0,0,,12,,,71,127
8601,note_off,103,0,0,,2,,,62,127
8603,note_on,2,0,0,,7,,,55,127
8706,note_off,103,0,0,,7,,,55,127
8708,note_on,2,0,0,,6,,,54,127
8811,note_off,103,0,0,,6,,,54,127
8813,note_on,2,0,0,,7,,,55,127
8916,note_off,103,0,0,,7,,,55,127
8918,note_on,2,0,0,,12,,,59,127
9021,note_off,103,0,0,,12,,,59,127
9023,note_on,2,0,0,,7,,,55,127
9126,note_off,103,0,0,,7,,,55,127
9126,note_off,0,0,0,,12,,,71,127
9126,note_off,0,0,0,,7,,,79,127
9128,note_on,2,0,0,,2,,,62,127
9128,note_on,0,0,0,,7,,,79,127
9128,note_on,0,0,0,,12,,,71,127
9231,note_off,103,0,0,,2,,,62,127
9233,note_on,2,0,0,,7,,,55,127
9336,note_off,103,0,0,,7,,,55,127
9336,note_off,0,0,0,,12,,,71,127
9336,note_off,0,0,0,,7,,,79,127
9338,note_on,2,0,0,,0,,,60,127
9338,note_on,0,0,0,,4,,,76,127
9338,note_on,0,0,0,,0,,,72,127
9441,note_off,103,0,0,,0,,,60,127
9443,note_on,2,0,0,,7,,,55,127
9546,note_off,103,0,0,,7,,,55,127
9548,note_on,2,0,0,,6,,,54,127
9651,note_off,103,0,0,,6,,,54,127
9653,note_on,2,0,0,,7,,,55,127
9756,note_off,103,0,0,,7,,,55,127
9758,note_on,2,0,0,,10,,,57,127
9861,note_off,103,0,0,,10,,,57,127
9863,note_on,2,0,0,,7,,,55,127
9966,note_off,103,0,0,,7,,,55,127
9966,note_off,0,0,0,,0,,,72,127
9966,note_off,0,0,0,,4,,,76,127
9968,note_on,2,0,0,,0,,,60,127
9968,note_on,0,0,0,,0,,,72,127
9968,note_on,0,0,0,,4,,,76,127
10071,note_off,103,0,0,,0,,,60,127
10073,note_on,2,0,0,,7,,,55,127
10176,note_off,103,0,0,,7,,,55,127
10176,note_off,0,0,0,,4,,,76,127
10176,note_off,0,0,0,,0,,,72,127
10178,note_on,2,0,0,,12,,,59,127
10178,note_on,0,0,0,,2,,,74,127
10283,note_on,105,0,0,,7,,,67,127
10386,note_off,103,0,0,,7,,,67,127
10386,note_off,0,0,0,,2,,,74,127
10388,note_on,2,0,0,,6,,,66,127
10491,note_off,103,0,0,,6,,,66,127
10493,note_on,2,0,0,,7,,,67,127
10596,note_off,103,0,0,,7,,,67,127
10598,note_on,2,0,0,,10,,,69,127
10701,note_off,103,0,0,,10,,,69,127
10703,note_on,2,0,0,,7,,,67,127
10806,note_off,103,0,0,,7,,,67,127
10806,note_off,0,0,0,,12,,,59,127
10808,note_on,2,0,0,,2,,,62,127
10808,note_on,0,0,0,,12,,,59,127
10808,note_on,0,0,0,,12,,,71,127
10911,note_off,103,0,0,,12,,,71,127
10913,note_on,2,0,0,,7,,,67,127
11016,note_off,103,0,0,,7,,,67,127
11016,note_off,0,0,0,,12,,,59,127
11016,note_off,0,0,0,,2,,,62,127
11018,note_on,2,0,0,,0,,,60,127
11018,note_on,0,0,0,,10,,,57,127
11018,note_on,0,0,0,,0,,,72,127
11123,note_on,105,0,0,,7,,,67,127
11226,note_off,103,0,0,,7,,,67,127
11226,note_off,0,0,0,,0,,,72,127
11228,note_on,2,0,0,,6,,,66,127
11331,note_off,103,0,0,,6,,,66,127
11333,note_on,2,0,0,,7,,,67,127
11436,note_off,103,0,0,,7,,,67,127
11438,note_on,2,0,0,,10,,,69,127
11541,note_off,103,0,0,,10,,,69,127
11543,note_on,2,0,0,,7,,,67,127
11646,note_off,103,0,0,,7,,,67,127
11646,note_off,0,0,0,,10,,,57,127
11646,note_off,0,0,0,,0,,,60,127
11648,note_on,2,0,0,,0,,,60,127
11648,note_on,0,0,0,,10,,,57,127
11648,note_on,0,0,0,,0,,,72,127
11751,note_off,103,0,0,,0,,,72,127
11753,note_on,2,0,0,,7,,,67,127
11856,note_off,103,0,0,,7,,,67,127
11856,note_off,0,0,0,,10,,,57,127
11856,note_off,0,0,0,,0,,,60,127
11858,note_on,2,0,0,,12,,,59,127
11858,note_on,0,0,0,,7,,,55,127
11858,note_on,0,0,0,,2,,,74,127
11963,note_on,105,0,0,,7,,,67,127
12066,note_off,103,0,0,,7,,,67,127
12066,note_off,0,0,0,,2,,,74,127
12068,note_on,2,0,0,,6,,,66,127
12171,note_off,103,0,0,,6,,,66,127
12173,note_on,2,0,0,,7,,,67,127
12276,note_off,103,0,0,,7,,,67,127
12278,note_on,2,0,0,,12,,,71,127
12381,note_off,103,0,0,,12,,,71,127
12383,note_on,2,0,0,,7,,,67,127
12486,note_off,103,0,0,,7,,,67,127
12486,note_off,0,0,0,,7,,,55,127
12486,note_off,0,0,0,,12,,,59,127
12488,note_on,2,0,0,,12,,,59,127
12488,note_on,0,0,0,,7,,,55,127
12488,note_on,0,0,0,,2,,,74,127
12591,note_off,103,0,0,,2,,,74,127
12593,note_on,2,0,0,,7,,,67,127
12696,note_off,103,0,0,,7,,,67,127
12696,note_off,0,0,0,,7,,,55,127
12696,note_off,0,0,0,,12,,,59,127
12698,note_on,2,0,0,,4,,,64,127
12698,note_on,0,0,0,,0,,,60,127
12698,note_on,0,0,0,,4,,,76,127
12803,note_on,105,0,0,,6,,,66,127
12906,note_off,103,0,0,,6,,,66,127
12906,note_off,0,0,0,,0,,,60,127
12906,note_off,0,0,0,,4,,,64,127
12908,note_on,2,0,0,,12,,,59,127
12908,note_on,0,0,0,,2,,,62,127
12908,note_on,0,0,0,,7,,,67,127
13011,note_off,103,0,0,,7,,,67,127
13011,note_off,0,0,0,,4,,,76,127
13013,note_on,2,0,0,,2,,,74,127
13116,note_off,103,0,0,,2,,,74,127
13116,note_off,0,0,0,,2,,,62,127
13116,note_off,0,0,0,,12,,,59,127
13118,note_on,2,0,0,,0,,,60,127
13118,note_on,0,0,0,,10,,,57,127
13118,note_on,0,0,0,,0,,,72,127
13223,note_on,105,0,0,,6,,,66,127
13326,note_off,103,0,0,,6,,,66,127
13326,note_off,0,0,0,,10,,,57,127
13326,note_off,0,0,0,,0,,,60,127
13328,note_on,2,0,0,,7,,,55,127
13328,note_on,0,0,0,,12,,,59,127
13328,note_on,0,0,0,,7,,,67,127
13431,note_off,103,0,0,,7,,,67,127
13431,note_off,0,0,0,,0,,,72,127
13433,note_on,2,0,0,,12,,,71,127
13536,note_off,103,0,0,,12,,,71,127
13536,note_off,0,0,0,,12,,,59,127
13536,note_off,0,0,0,,7,,,55,127
13538,note_on,2,0,0,,2,,,50,127
13538,note_on,0,0,0,,12,,,71,127
13588,note_off,50,0,0,,12,,,71,127
13590,note_on,2,0,0,,10,,,69,127
13640,note_off,50,0,0,,10,,,69,127
13642,note_on,2,0,0,,12,,,71,127
13692,note_off,50,0,0,,12,,,71,127
13694,note_on,2,0,0,,10,,,69,127
14008,note_off,314,0,0,,10,,,69,127
14165,note_on,157,0,0,,10,,,69,127
14372,note_off,207,0,0,,10,,,69,127
14373,note_off,1,0,0,,2,,,50,127
14374,note_on,1,0,0,,10,,,81,127
14477,note_off,103,0,0,,10,,,81,127
14479,note_on,2,0,0,,7,,,79,127
14582,note_off,103,0,0,,7,,,79,127
14584,note_on,2,0,0,,7,,,79,127
14687,note_off,103,0,0,,7,,,79,127
14689,note_on,2,0,0,,5,,,77,127
14792,note_off,103,0,0,,5,,,77,127
14794,note_on,2,0,0,,5,,,77,127
14897,note_off,103,0,0,,5,,,77,127
14899,note_on,2,0,0,,4,,,76,127
15002,note_off,103,0,0,,4,,,76,127
15004,note_on,2,0,0,,10,,,69,127
15004,note_on,0,0,0,,10,,,57,127
15004,note_on,0,0,0,,4,,,76,127
15107,note_off,103,0,0,,4,,,76,127
15109,note_on,2,0,0,,2,,,74,127
15212,note_off,103,0,0,,2,,,74,127
15212,note_off,0,0,0,,10,,,57,127
15212,note_off,0,0,0,,10,,,69,127
15214,note_on,2,0,0,,11,,,58,127
15214,note_on,0,0,0,,10,,,69,127
15214,note_on,0,0,0,,2,,,74,127
15317,note_off,103,0,0,,2,,,74,127
15319,note_on,2,0,0,,1,,,73,127
15422,note_off,103,0,0,,1,,,73,127
15422,note_off,0,0,0,,10,,,69,127
15422,note_off,0,0,0,,11,,,58,127
15424,note_on,2,0,0,,7,,,67,127
15424,note_on,0,0,0,,11,,,58,127
15424,note_on,0,0,0,,1,,,73,127
15527,note_off,103,0,0,,1,,,73,127
15529,note_on,2,0,0,,2,,,74,127
15632,note_off,103,0,0,,2,,,74,127
15632,note_off,0,0,0,,11,,,58,127
15632,note_off,0,0,0,,7,,,67,127
15634,note_on,2,0,0,,7,,,67,127
15634,note_on,0,0,0,,11,,,58,127
15634,note_on,0,0,0,,2,,,74,127
15737,note_off,103,0,0,,2,,,74,127
15739,note_on,2,0,0,,1,,,73,127
15842,note_off,103,0,0,,1,,,73,127
15844,note_on,2,0,0,,1,,,73,127
15947,note_off,103,0,0,,1,,,73,127
15949,note_on,2,0,0,,2,,,74,127
16049,note_off,100,0,0,,11,,,58,127
16049,note_off,0,0,0,,7,,,67,127
16051,note_off,2,0,0,,2,,,74,127
16053,note_on,2,0,0,,7,,,79,127
16156,note_off,103,0,0,,7,,,79,127
16158,note_on,2,0,0,,5,,,77,127
16261,note_off,103,0,0,,5,,,77,127
16263,note_on,2,0,0,,5,,,77,127
16366,note_off,103,0,0,,5,,,77,127
16368,note_on,2,0,0,,4,,,76,127
16471,note_off,103,0,0,,4,,,76,127
16473,note_on,2,0,0,,4,,,76,127
16576,note_off,103,0,0,,4,,,76,127
16578,note_on,2,0,0,,2,,,74,127
16681,note_off,103,0,0,,2,,,74,127
16683,note_on,2,0,0,,7,,,67,127
16683,note_on,0,0,0,,11,,,58,127
16683,note_on,0,0,0,,2,,,74,127
16786,note_off,103,0,0,,2,,,74,127
16788,note_on,2,0,0,,1,,,73,127
16891,note_off,103,0,0,,1,,,73,127
16891,note_off,0,0,0,,11,,,58,127
16891,note_off,0,0,0,,7,,,67,127
16893,note_on,2,0,0,,7,,,67,127
16893,note_on,0,0,0,,10,,,57,127
16893,note_on,0,0,0,,1,,,73,127
16996,note_off,103,0,0,,1,,,73,127
16998,note_on,2,0,0,,2,,,74,127
17101,note_off,103,0,0,,2,,,74,127
17101,note_off,0,0,0,,10,,,57,127
17101,note_off,0,0,0,,7,,,67,127
17103,note_on,2,0,0,,5,,,65,127
17103,note_on,0,0,0,,10,,,57,127
17103,note_on,0,0,0,,2,,,74,127
17206,note_off,103,0,0,,2,,,74,127
17208,note_on,2,0,0,,1,,,73,127
17311,note_off,103,0,0,,1,,,73,127
17311,note_off,0,0,0,,10,,,57,127
17311,note_off,0,0,0,,5,,,65,127
17313,note_on,2,0,0,,5,,,65,127
17313,note_on,0,0,0,,10,,,57,127
17313,note_on,0,0,0,,1,,,73,127
17416,note_off,103,0,0,,1,,,73,127
17418,note_on,2,0,0,,2,,,74,127
17521,note_off,103,0,0,,2,,,74,127
17523,note_on,2,0,0,,2,,,74,127
17626,note_off,103,0,0,,2,,,74,127
17628,note_on,2,0,0,,1,,,73,127
17728,note_off,100,0,0,,10,,,57,127
17728,note_off,0,0,0,,5,,,65,127
17730,note_off,2,0,0,,1,,,73,127
17732,note_on,2,0,0,,5,,,77,127
17835,note_off,103,0,0,,5,,,77,127
17837,note_on,2,0,0,,4,,,76,127
17940,note_off,103,0,0,,4,,,76,127
17942,note_on,2,0,0,,4,,,76,127
18045,note_off,103,0,0,,4,,,76,127
18047,note_on,2,0,0,,2,,,74,127
18150,note_off,103,0,0,,2,,,74,127
18152,note_on,2,0,0,,2,,,74,127
18255,note_off,103,0,0,,2,,,74,127
18257,note_on,2,0,0,,10,,,81,127
18360,note_off,103,0,0,,10,,,81,127
18362,note_on,2,0,0,,5,,,65,127
18362,note_on,0,0,0,,10,,,57,127
18362,note_on,0,0,0,,10,,,81,127
18465,note_off,103,0,0,,10,,,81,127
18467,note_on,2,0,0,,0,,,72,127
18570,note_off,103,0,0,,0,,,72,127
18570,note_off,0,0,0,,10,,,57,127
18570,note_off,0,0,0,,5,,,65,127
18572,note_on,2,0,0,,5,,,65,127
18572,note_on,0,0,0,,7,,,55,127
18572,note_on,0,0,0,,0,,,72,127
18675,note_off,103,0,0,,0,,,72,127
18677,note_on,2,0,0,,11,,,70,127
18780,note_off,103,0,0,,11,,,70,127
18780,note_off,0,0,0,,7,,,55,127
18780,note_off,0,0,0,,5,,,65,127
18782,note_on,2,0,0,,4,,,64,127
18782,note_on,0,0,0,,7,,,55,127
18782,note_on,0,0,0,,11,,,70,127
18885,note_off,103,0,0,,11,,,70,127
18887,note_on,2,0,0,,10,,,69,127
18990,note_off,103,0,0,,10,,,69,127
18990,note_off,0,0,0,,7,,,55,127
18990,note_off,0,0,0,,4,,,64,127
18992,note_on,2,0,0,,7,,,55,127
18992,note_on,0,0,0,,4,,,64,127
18992,note_on,0,0,0,,10,,,69,127
19095,note_off,103,0,0,,10,,,69,127
19097,note_on,2,0,0,,11,,,70,127
19200,note_off,103,0,0,,11,,,70,127
19202,note_on,2,0,0,,11,,,70,127
19305,note_off,103,0,0,,11,,,70,127
19307,note_on,2,0,0,,10,,,69,127
19407,note_off,100,0,0,,4,,,64,127
19407,note_off,0,0,0,,7,,,55,127
19409,note_off,2,0,0,,10,,,69,127
19411,note_on,2,0,0,,4,,,76,127
19514,note_off,103,0,0,,4,,,76,127
19516,note_on,2,0,0,,2,,,74,127
19619,note_off,103,0,0,,2,,,74,127
19621,note_on,2,0,0,,2,,,74,127
19724,note_off,103,0,0,,2,,,74,127
19726,note_on,2,0,0,,1,,,73,127
19829,note_off,103,0,0,,1,,,73,127
19831,note_on,2,0,0,,1,,,73,127
19934,note_off,103,0,0,,1,,,73,127
19936,note_on,2,0,0,,7,,,79,127
20039,note_off,103,0,0,,7,,,79,127
20041,note_on,2,0,0,,4,,,64,127
20041,note_on,0,0,0,,7,,,55,127
20041,note_on,0,0,0,,7,,,79,127
20144,note_off,103,0,0,,7,,,79,127
20146,note_on,2,0,0,,11,,,70,127
20249,note_off,103,0,0,,11,,,70,127
20249,note_off,0,0,0,,7,,,55,127
20249,note_off,0,0,0,,4,,,64,127
20251,note_on,2,0,0,,5,,,53,127
20251,note_on,0,0,0,,4,,,64,127
20251,note_on,0,0,0,,11,,,70,127
20354,note_off,103,0,0,,11,,,70,127
20356,note_on,2,0,0,,10,,,69,127
20459,note_off,103,0,0,,10,,,69,127
20459,note_off,0,0,0,,4,,,64,127
20459,note_off,0,0,0,,5,,,53,127
20461,note_on,2,0,0,,4,,,64,127
20461,note_on,0,0,0,,5,,,53,127
20461,note_on,0,0,0,,10,,,69,127
20564,note_off,103,0,0,,10,,,69,127
20566,note_on,2,0,0,,8,,,68,127
20669,note_off,103,0,0,,8,,,68,127
20669,note_off,0,0,0,,5,,,53,127
20669,note_off,0,0,0,,4,,,64,127
20671,note_on,2,0,0,,2,,,62,127
20671,note_on,0,0,0,,5,,,53,127
20671,note_on,0,0,0,,10,,,69,127
20774,note_off,103,0,0,,10,,,69,127
20776,note_on,2,0,0,,10,,,69,127
20879,note_off,103,0,0,,10,,,69,127
20881,note_on,2,0,0,,12,,,71,127
20984,note_off,103,0,0,,12,,,71,127
20986,note_on,2,0,0,,1,,,73,127
21086,note_off,100,0,0,,5,,,53,127
21086,note_off,0,0,0,,2,,,62,127
21088,note_off,2,0,0,,1,,,73,127
21090,note_on,2,0,0,,2,,,74,127
21193,note_off,103,0,0,,2,,,74,127
21195,note_on,2,0,0,,10,,,69,127
21298,note_off,103,0,0,,10,,,69,127
21300,note_on,2,0,0,,5,,,77,127
21403,note_off,103,0,0,,5,,,77,127
21405,note_on,2,0,0,,4,,,76,127
21508,note_off,103,0,0,,4,,,76,127
21510,note_on,2,0,0,,2,,,62,127
21510,note_on,0,0,0,,5,,,53,127
21510,note_on,0,0,0,,2,,,74,127
21613,note_off,103,0,0,,2,,,74,127
21615,note_on,2,0,0,,10,,,69,127
21718,note_off,103,0,0,,10,,,69,127
21720,note_on,2,0,0,,5,,,77,127
21823,note_off,103,0,0,,5,,,77,127
21825,note_on,2,0,0,,4,,,76,127
21928,note_off,103,0,0,,4,,,76,127
21928,note_off,0,0,0,,5,,,53,127
21928,note_off,0,0,0,,2,,,62,127
21930,note_on,2,0,0,,2,,,62,127
21930,note_on,0,0,0,,7,,,55,127
21930,note_on,0,0,0,,2,,,74,127
22033,note_off,103,0,0,,2,,,74,127
22035,note_on,2,0,0,,11,,,70,127
22138,note_off,103,0,0,,11,,,70,127
22140,note_on,2,0,0,,11,,,82,127
22245,note_on,105,0,0,,11,,,70,127
22348,note_off,103,0,0,,11,,,70,127
22348,note_off,0,0,0,,11,,,82,127
22350,note_on,2,0,0,,11,,,82,127
22455,note_on,105,0,0,,11,,,70,127
22558,note_off,103,0,0,,11,,,70,127
22558,note_off,0,0,0,,11,,,82,127
22560,note_on,2,0,0,,10,,,81,127
22663,note_off,103,0,0,,10,,,81,127
22665,note_on,2,0,0,,11,,,70,127
22768,note_off,103,0,0,,11,,,70,127
22768,note_off,0,0,0,,7,,,55,127
22768,note_off,0,0,0,,2,,,62,127
22770,note_on,2,0,0,,2,,,62,127
22770,note_on,0,0,0,,7,,,55,127
22770,note_on,0,0,0,,7,,,79,127
22873,note_off,103,0,0,,7,,,79,127
22875,note_on,2,0,0,,11,,,70,127
22978,note_off,103,0,0,,11,,,70,127
22980,note_on,2,0,0,,5,,,77,127
23083,note_off,103,0,0,,5,,,77,127
23085,note_on,2,0,0,,10,,,69,127
23188,note_off,103,0,0,,10,,,69,127
23188,note_off,0,0,0,,7,,,55,127
23188,note_off,0,0,0,,2,,,62,127
23190,note_on,2,0,0,,2,,,62,127
23190,note_on,0,0,0,,8,,,56,127
23190,note_on,0,0,0,,4,,,76,127
23293,note_off,103,0,0,,4,,,76,127
23295,note_on,2,0,0,,7,,,67,127
23398,note_off,103,0,0,,7,,,67,127
23400,note_on,2,0,0,,2,,,74,127
23503,note_off,103,0,0,,2,,,74,127
23505,note_on,2,0,0,,5,,,65,127
23608,note_off,103,0,0,,5,,,65,127
23608,note_off,0,0,0,,8,,,56,127
23608,note_off,0,0,0,,2,,,62,127
23610,note_on,2,0,0,,4,,,64,127
23610,note_on,0,0,0,,10,,,57,127
23610,note_on,0,0,0,,4,,,76,127
23660,note_off,50,0,0,,4,,,76,127
23662,note_on,2,0,0,,2,,,74,127
23712,note_off,50,0,0,,2,,,74,127
23714,note_on,2,0,0,,4,,,76,127
23764,note_off,50,0,0,,4,,,76,127
23766,note_on,2,0,0,,2,,,74,127
23816,note_off,50,0,0,,2,,,74,127
23818,note_on,2,0,0,,1,,,73,127
24025,note_off,207,0,0,,4,,,64,127
24027,note_on,2,0,0,,10,,,45,127
24130,note_off,103,0,0,,1,,,73,127
24132,note_on,2,0,0,,10,,,69,127
24235,note_off,103,0,0,,10,,,69,127
24237,note_on,2,0,0,,12,,,71,127
24340,note_off,103,0,0,,12,,,71,127
24342,note_on,2,0,0,,1,,,73,127
24442,note_off,100,0,0,,10,,,45,127
24444,note_off,2,0,0,,1,,,73,127
24445,note_off,1,0,0,,10,,,57,127
24446,note_on,1,0,0,,2,,,74,127
24549,note_off,103,0,0,,2,,,74,127
24551,note_on,2,0,0,,10,,,69,127
24654,note_off,103,0,0,,10,,,69,127
24656,note_on,2,0,0,,5,,,77,127
24759,note_off,103,0,0,,5,,,77,127
24761,note_on,2,0,0,,10,,,69,127
24864,note_off,103,0,0,,10,,,69,127
24866,note_on,2,0,0,,2,,,62,127
24866,note_on,0,0,0,,5,,,53,127
24866,note_on,0,0,0,,2,,,74,127
24969,note_off,103,0,0,,2,,,74,127
24971,note_on,2,0,0,,10,,,69,127
25074,note_off,103,0,0,,10,,,69,127
25076,note_on,2,0,0,,5,,,77,127
25179,note_off,103,0,0,,5,,,77,127
25181,note_on,2,0,0,,4,,,76,127
25284,note_off,103,0,0,,4,,,76,127
25284,note_off,0,0,0,,5,,,53,127
25284,note_off,0,0,0,,2,,,62,127
25286,note_on,2,0,0,,2,,,62,127
25286,note_on,0,0,0,,7,,,55,127
25286,note_on,0,0,0,,2,,,74,127
25389,note_off,103,0,0,,2,,,74,127
25391,note_on,2,0,0,,11,,,70,127
25496,note_on,105,0,0,,11,,,82,127
25599,note_off,103,0,0,,11,,,70,127
25601,note_on,2,0,0,,11,,,70,127
25704,note_off,103,0,0,,11,,,82,127
25706,note_on,2,0,0,,11,,,82,127
25809,note_off,103,0,0,,11,,,70,127
25811,note_on,2,0,0,,11,,,70,127
25914,note_off,103,0,0,,11,,,70,127
25914,note_off,0,0,0,,11,,,82,127
25916,note_on,2,0,0,,10,,,81,127
26019,note_off,103,0,0,,10,,,81,127
26021,note_on,2,0,0,,11,,,70,127
26124,note_off,103,0,0,,11,,,70,127
26124,note_off,0,0,0,,7,,,55,127
26124,note_off,0,0,0,,2,,,62,127
26126,note_on,2,0,0,,2,,,62,127
26126,note_on,0,0,0,,7,,,55,127
26126,note_on,0,0,0,,7,,,79,127
26229,note_off,103,0,0,,7,,,79,127
26231,note_on,2,0,0,,11,,,70,127
26334,note_off,103,0,0,,11,,,70,127
26336,note_on,2,0,0,,5,,,77,127
26439,note_off,103,0,0,,5,,,77,127
26441,note_on,2,0,0,,10,,,69,127
26544,note_off,103,0,0,,10,,,69,127
26544,note_off,0,0,0,,7,,,55,127
26544,note_off,0,0,0,,2,,,62,127
26546,note_on,2,0,0,,2,,,62,127
26546,note_on,0,0,0,,8,,,56,127
26546,note_on,0,0,0,,4,,,76,127
26649,note_off,103,0,0,,4,,,76,127
26651,note_on,2,0,0,,7,,,67,127
26754,note_off,103,0,0,,7,,,67,127
26756,note_on,2,0,0,,2,,,74,127
26859,note_off,103,0,0,,2,,,74,127
26861,note_on,2,0,0,,5,,,65,127
26964,note_off,103,0,0,,5,,,65,127
26964,note_off,0,0,0,,8,,,56,127
26964,note_off,0,0,0,,2,,,62,127
26966,note_on,2,0,0,,4,,,64,127
26966,note_on,0,0,0,,10,,,57,127
26966,note_on,0,0,0,,4,,,76,127
27016,note_off,50,0,0,,4,,,76,127
27018,note_on,2,0,0,,2,,,74,127
27068,note_off,50,0,0,,2,,,74,127
27070,note_on,2,0,0,,4,,,76,127
27120,note_off,50,0,0,,4,,,76,127
27122,note_on,2,0,0,,2,,,74,127
27172,note_off,50,0,0,,2,,,74,127
27174,note_on,2,0,0,,1,,,73,127
27379,note_off,205,0,0,,10,,,57,127
27379,note_off,0,0,0,,4,,,64,127
27381,note_off,2,0,0,,1,,,73,127
27383,note_on,2,0,0,,4,,,76,127
27383,note_on,0,0,0,,1,,,73,127
27486,note_off,103,0,0,,1,,,73,127
27488,note_on,2,0,0,,7,,,67,127
27591,note_off,103,0,0,,7,,,67,127
27593,note_on,2,0,0,,4,,,64,127
27696,note_off,103,0,0,,4,,,64,127
27698,note_on,2,0,0,,7,,,67,127
27798,note_off,100,0,0,,4,,,76,127
27800,note_off,2,0,0,,7,,,67,127
27802,note_on,2,0,0,,6,,,78,127
27802,note_on,0,0,0,,2,,,74,127
27905,note_off,103,0,0,,2,,,74,127
27907,note_on,2,0,0,,10,,,69,127
28010,note_off,103,0,0,,10,,,69,127
28012,note_on,2,0,0,,6,,,66,127
28115,note_off,103,0,0,,6,,,66,127
28117,note_on,2,0,0,,10,,,69,127
28217,note_off,100,0,0,,6,,,78,127
28219,note_off,2,0,0,,10,,,69,127
28221,note_on,2,0,0,,2,,,50,127
28221,note_on,0,0,0,,10,,,81,127
28221,note_on,0,0,0,,6,,,78,127
28324,note_off,103,0,0,,6,,,78,127
28326,note_on,2,0,0,,2,,,74,127
28429,note_off,103,0,0,,2,,,74,127
28431,note_on,2,0,0,,10,,,69,127
28534,note_off,103,0,0,,10,,,69,127
28536,note_on,2,0,0,,2,,,74,127
28636,note_off,100,0,0,,10,,,81,127
28638,note_off,2,0,0,,2,,,74,127
28638,note_off,0,0,0,,2,,,50,127
28640,note_on,2,0,0,,4,,,52,127
28640,note_on,0,0,0,,7,,,79,127
28640,note_on,0,0,0,,4,,,76,127
28743,note_off,103,0,0,,4,,,76,127
28745,note_on,2,0,0,,1,,,73,127
28848,note_off,103,0,0,,1,,,73,127
28850,note_on,2,0,0,,7,,,67,127
28953,note_off,103,0,0,,7,,,67,127
28955,note_on,2,0,0,,1,,,73,127
29055,note_off,100,0,0,,7,,,79,127
29057,note_off,2,0,0,,1,,,73,127
29057,note_off,0,0,0,,4,,,52,127
29059,note_on,2,0,0,,10,,,45,127
29059,note_on,0,0,0,,4,,,76,127
29059,note_on,0,0,0,,1,,,73,127
29162,note_off,103,0,0,,1,,,73,127
29164,note_on,2,0,0,,7,,,67,127
29267,note_off,103,0,0,,7,,,67,127
29269,note_on,2,0,0,,4,,,64,127
29372,note_off,103,0,0,,4,,,64,127
29374,note_on,2,0,0,,7,,,67,127
29474,note_off,100,0,0,,4,,,76,127
29476,note_off,2,0,0,,7,,,67,127
29476,note_off,0,0,0,,10,,,45,127
29478,note_on,2,0,0,,2,,,38,127
29478,note_on,0,0,0,,6,,,78,127
29478,note_on,0,0,0,,2,,,74,127
29581,note_off,103,0,0,,2,,,74,127
29583,note_on,2,0,0,,10,,,69,127
29686,note_off,103,0,0,,10,,,69,127
29688,note_on,2,0,0,,6,,,66,127
29791,note_off,103,0,0,,6,,,66,127
29793,note_on,2,0,0,,10,,,69,127
29893,note_off,100,0,0,,6,,,78,127
29895,note_off,2,0,0,,10,,,69,127
29895,note_off,0,0,0,,2,,,38,127
29897,note_on,2,0,0,,6,,,54,127
29897,note_on,0,0,0,,10,,,81,127
29897,note_on,0,0,0,,6,,,78,127
30000,note_off,103,0,0,,6,,,78,127
30002,note_on,2,0,0,,2,,,74,127
30105,note_off,103,0,0,,2,,,74,127
30107,note_on,2,0,0,,10,,,69,127
30210,note_off,103,0,0,,10,,,69,127
30212,note_on,2,0,0,,2,,,74,127
30312,note_off,100,0,0,,10,,,81,127
30314,note_off,2,0,0,,2,,,74,127
30314,note_off,0,0,0,,6,,,54,127
30316,note_on,2,0,0,,4,,,52,127
30316,note_on,0,0,0,,7,,,79,127
30316,note_on,0,0,0,,4,,,76,127
30419,note_off,103,0,0,,4,,,76,127
30421,note_on,2,0,0,,1,,,73,127
30524,note_off,103,0,0,,1,,,73,127
30526,note_on,2,0,0,,7,,,67,127
30629,note_off,103,0,0,,7,,,67,127
30631,note_on,2,0,0,,1,,,73,127
30731,note_off,100,0,0,,7,,,79,127
30733,note_off,2,0,0,,1,,,73,127
30733,note_off,0,0,0,,4,,,52,127
30735,note_on,2,0,0,,10,,,45,127
30735,note_on,0,0,0,,4,,,76,127
30735,note_on,0,0,0,,1,,,73,127
30838,note_off,103,0,0,,1,,,73,127
30840,note_on,2,0,0,,7,,,67,127
30943,note_off,103,0,0,,7,,,67,127
30945,note_on,2,0,0,,4,,,64,127
31048,note_off,103,0,0,,4,,,64,127
31050,note_on,2,0,0,,7,,,67,127
31150,note_off,100,0,0,,4,,,76,127
31152,note_off,2,0,0,,7,,,67,127
31152,note_off,0,0,0,,10,,,45,127
31154,note_on,2,0,0,,2,,,50,127
31154,note_on,0,0,0,,6,,,78,127
31154,note_on,0,0,0,,2,,,74,127
31257,note_off,103,0,0,,2,,,74,127
31257,note_off,0,0,0,,6,,,78,127
31259,note_on,2,0,0,,10,,,81,127
31362,note_off,103,0,0,,10,,,81,127
31364,note_on,2,0,0,,1,,,73,127
31467,note_off,103,0,0,,1,,,73,127
31469,note_on,2,0,0,,4,,,76,127
31572,note_off,103,0,0,,4,,,76,127
31572,note_off,0,0,0,,2,,,50,127
31574,note_on,2,0,0,,6,,,54,127
31574,note_on,0,0,0,,2,,,74,127
31677,note_off,103,0,0,,2,,,74,127
31679,note_on,2,0,0,,6,,,78,127
31782,note_off,103,0,0,,6,,,78,127
31784,note_on,2,0,0,,10,,,69,127
31887,note_off,103,0,0,,10,,,69,127
31889,note_on,2,0,0,,1,,,73,127
31992,note_off,103,0,0,,1,,,73,127
31992,note_off,0,0,0,,6,,,54,127
31994,note_on,2,0,0,,7,,,55,127
31994,note_on,0,0,0,,12,,,71,127
32097,note_off,103,0,0,,12,,,71,127
32099,note_on,2,0,0,,2,,,74,127
32202,note_off,103,0,0,,2,,,74,127
32204,note_on,2,0,0,,6,,,66,127
32307,note_off,103,0,0,,6,,,66,127
32309,note_on,2,0,0,,10,,,69,127
32412,note_off,103,0,0,,10,,,69,127
32414,note_on,2,0,0,,7,,,43,127
32414,note_on,0,0,0,,7,,,67,127
32517,note_off,103,0,0,,7,,,67,127
32519,note_on,2,0,0,,12,,,71,127
32622,note_off,103,0,0,,12,,,71,127
32624,note_on,2,0,0,,4,,,64,127
32727,note_off,103,0,0,,4,,,64,127
32729,note_on,2,0,0,,7,,,67,127
32832,note_off,103,0,0,,7,,,67,127
32832,note_off,0,0,0,,7,,,43,127
32833,note_off,1,0,0,,7,,,55,127
32834,note_on,1,0,0,,10,,,57,127
32834,note_on,0,0,0,,6,,,66,127
32937,note_off,103,0,0,,6,,,66,127
32939,note_on,2,0,0,,10,,,69,127
33042,note_off,103,0,0,,10,,,69,127
33044,note_on,2,0,0,,2,,,62,127
33147,note_off,103,0,0,,2,,,62,127
33149,note_on,2,0,0,,6,,,66,127
33252,note_off,103,0,0,,6,,,66,127
33254,note_on,2,0,0,,10,,,45,127
33254,note_on,0,0,0,,4,,,64,127
33357,note_off,103,0,0,,4,,,64,127
33359,note_on,2,0,0,,7,,,67,127
33462,note_off,103,0,0,,7,,,67,127
33464,note_on,2,0,0,,1,,,61,127
33567,note_off,103,0,0,,1,,,61,127
33569,note_on,2,0,0,,4,,,64,127
33672,note_off,103,0,0,,4,,,64,127
33672,note_off,0,0,0,,10,,,45,127
33673,note_off,1,0,0,,10,,,57,127
33674,note_on,1,0,0,,2,,,38,127
33674,note_on,0,0,0,,2,,,62,127
34091,note_off,417,0,0,,2,,,62,127
34091,note_off,0,0,0,,2,,,38,127
34093,note_on,2,0,0,,2,,,50,127
34093,note_on,0,0,0,,6,,,78,127
34093,note_on,0,0,0,,10,,,81,127
34196,note_off,103,0,0,,6,,,78,127
34198,note_on,2,0,0,,2,,,74,127
34301,note_off,103,0,0,,2,,,74,127
34303,note_on,2,0,0,,10,,,69,127
34406,note_off,103,0,0,,10,,,69,127
34408,note_on,2,0,0,,2,,,74,127
34508,note_off,100,0,0,,10,,,81,127
34510,note_off,2,0,0,,2,,,74,127
34510,note_off,0,0,0,,2,,,50,127
34512,note_on,2,0,0,,4,,,52,127
34512,note_on,0,0,0,,7,,,79,127
34512,note_on,0,0,0,,4,,,76,127
34615,note_off,103,0,0,,4,,,76,127
34617,note_on,2,0,0,,1,,,73,127
34720,note_off,103,0,0,,1,,,73,127
34722,note_on,2,0,0,,7,,,67,127
34825,note_off,103,0,0,,7,,,67,127
34827,note_on,2,0,0,,1,,,73,127
34927,note_off,100,0,0,,7,,,79,127
34929,note_off,2,0,0,,1,,,73,127
34929,note_off,0,0,0,,4,,,52,127
34931,note_on,2,0,0,,10,,,45,127
34931,note_on,0,0,0,,4,,,76,127
34931,note_on,0,0,0,,1,,,73,127
35034,note_off,103,0,0,,1,,,73,127
35036,note_on,2,0,0,,7,,,67,127
35139,note_off,103,0,0,,7,,,67,127
35141,note_on,2,0,0,,4,,,64,127
35244,note_off,103,0,0,,4,,,64,127
35246,note_on,2,0,0,,7,,,67,127
35346,note_off,100,0,0,,4,,,76,127
35348,note_off,2,0,0,,7,,,67,127
35348,note_off,0,0,0,,10,,,45,127
35350,note_on,2,0,0,,2,,,38,127
35350,note_on,0,0,0,,6,,,78,127
35350,note_on,0,0,0,,2,,,74,127
35453,note_off,103,0,0,,2,,,74,127
35455,note_on,2,0,0,,10,,,69,127
35558,note_off,103,0,0,,10,,,69,127
35560,note_on,2,0,0,,6,,,66,127
35663,note_off,103,0,0,,6,,,66,127
35665,note_on,2,0,0,,10,,,69,127
35765,note_off,100,0,0,,6,,,78,127
35767,note_off,2,0,0,,10,,,69,127
35767,note_off,0,0,0,,2,,,38,127
35769,note_on,2,0,0,,6,,,54,127
35769,note_on,0,0,0,,10,,,81,127
35769,note_on,0,0,0,,6,,,78,127
35872,note_off,103,0,0,,6,,,78,127
35874,note_on,2,0,0,,2,,,74,127
35977,note_off,103,0,0,,2,,,74,127
35979,note_on,2,0,0,,10,,,69,127
36082,note_off,103,0,0,,10,,,69,127
36084,note_on,2,0,0,,2,,,74,127
36184,note_off,100,0,0,,10,,,81,127
36186,note_off,2,0,0,,2,,,74,127
36186,note_off,0,0,0,,6,,,54,127
36188,note_on,2,0,0,,4,,,52,127
36188,note_on,0,0,0,,7,,,79,127
36188,note_on,0,0,0,,4,,,76,127
36291,note_off,103,0,0,,4,,,76,127
36293,note_on,2,0,0,,1,,,73,127
36396,note_off,103,0,0,,1,,,73,127
36398,note_on,2,0,0,,7,,,67,127
36501,note_off,103,0,0,,7,,,67,127
36503,note_on,2,0,0,,1,,,73,127
36603,note_off,100,0,0,,7,,,79,127
36605,note_off,2,0,0,,1,,,73,127
36605,note_off,0,0,0,,4,,,52,127
36607,note_on,2,0,0,,10,,,45,127
36607,note_on,0,0,0,,4,,,76,127
36607,note_on,0,0,0,,1,,,73,127
36710,note_off,103,0,0,,1,,,73,127
36712,note_on,2,0,0,,7,,,67,127
36815,note_off,103,0,0,,7,,,67,127
36817,note_on,2,0,0,,4,,,64,127
36920,note_off,103,0,0,,4,,,64,127
36922,note_on,2,0,0,,7,,,67,127
37022,note_off,100,0,0,,4,,,76,127
37024,note_off,2,0,0,,7,,,67,127
37024,note_off,0,0,0,,10,,,45,127
37026,note_on,2,0,0,,2,,,50,127
37026,note_on,0,0,0,,2,,,74,127
37026,note_on,0,0,0,,6,,,78,127
37129,note_off,103,0,0,,6,,,78,127
37129,note_off,0,0,0,,2,,,74,127
37131,note_on,2,0,0,,10,,,81,127
37234,note_off,103,0,0,,10,,,81,127
37236,note_on,2,0,0,,1,,,73,127
37339,note_off,103,0,0,,1,,,73,127
37341,note_on,2,0,0,,4,,,76,127
37444,note_off,103,0,0,,4,,,76,127
37444,note_off,0,0,0,,2,,,50,127
37446,note_on,2,0,0,,6,,,54,127
37446,note_on,0,0,0,,2,,,74,127
37549,note_off,103,0,0,,2,,,74,127
37551,note_on,2,0,0,,6,,,78,127
37654,note_off,103,0,0,,6,,,78,127
37656,note_on,2,0,0,,10,,,69,127
37759,note_off,103,0,0,,10,,,69,127
37761,note_on,2,0,0,,1,,,73,127
37864,note_off,103,0,0,,1,,,73,127
37864,note_off,0,0,0,,6,,,54,127
37866,note_on,2,0,0,,7,,,55,127
37866,note_on,0,0,0,,12,,,71,127
37969,note_off,103,0,0,,12,,,71,127
37971,note_on,2,0,0,,2,,,74,127
38074,note_off,103,0,0,,2,,,74,127
38076,note_on,2,0,0,,6,,,66,127
38179,note_off,103,0,0,,6,,,66,127
38181,note_on,2,0,0,,10,,,69,127
38284,note_off,103,0,0,,10,,,69,127
38286,note_on,2,0,0,,7,,,43,127
38286,note_on,0,0,0,,7,,,67,127
38389,note_off,103,0,0,,7,,,67,127
38391,note_on,2,0,0,,12,,,71,127
38494,note_off,103,0,0,,12,,,71,127
38496,note_on,2,0,0,,4,,,64,127
38599,note_off,103,0,0,,4,,,64,127
38601,note_on,2,0,0,,7,,,67,127
38704,note_off,103,0,0,,7,,,67,127
38704,note_off,0,0,0,,7,,,43,127
38705,note_off,1,0,0,,7,,,55,127
38706,note_on,1,0,0,,10,,,57,127
38706,note_on,0,0,0,,6,,,66,127
38809,note_off,103,0,0,,6,,,66,127
38811,note_on,2,0,0,,10,,,69,127
38914,note_off,103,0,0,,10,,,69,127
38916,note_on,2,0,0,,2,,,62,127
39019,note_off,103,0,0,,2,,,62,127
39021,note_on,2,0,0,,6,,,66,127
39124,note_off,103,0,0,,6,,,66,127
39126,note_on,2,0,0,,10,,,45,127
39126,note_on,0,0,0,,4,,,64,127
39229,note_off,103,0,0,,4,,,64,127
39231,note_on,2,0,0,,7,,,67,127
39334,note_off,103,0,0,,7,,,67,127
39336,note_on,2,0,0,,1,,,61,127
39439,note_off,103,0,0,,1,,,61,127
39441,note_on,2,0,0,,4,,,64,127
39544,note_off,103,0,0,,4,,,64,127
39544,note_off,0,0,0,,10,,,45,127
39545,note_off,1,0,0,,10,,,57,127
39546,note_on,1,0,0,,2,,,38,127
39546,note_on,0,0,0,,2,,,62,127
39649,note_off,103,0,0,,2,,,62,127
39651,note_on,2,0,0,,10,,,69,127
39754,note_off,103,0,0,,10,,,69,127
39756,note_on,2,0,0,,12,,,71,127
39859,note_off,103,0,0,,12,,,71,127
39861,note_on,2,0,0,,1,,,73,127
39964,note_off,103,0,0,,1,,,73,127
39966,note_on,2,0,0,,2,,,74,127
40069,note_off,103,0,0,,2,,,74,127
40071,note_on,2,0,0,,4,,,76,127
40174,note_off,103,0,0,,4,,,76,127
40175,note_off,1,0,0,,2,,,38,127
40176,note_on,1,0,0,,6,,,78,127
40279,note_off,103,0,0,,6,,,78,127
40281,note_on,2,0,0,,7,,,79,127
40384,note_off,103,0,0,,7,,,79,127
40386,note_on,2,0,0,,6,,,66,127
40386,note_on,0,0,0,,2,,,62,127
40386,note_on,0,0,0,,10,,,81,127
40489,note_off,103,0,0,,2,,,62,127
40491,note_on,2,0,0,,10,,,57,127
40594,note_off,103,0,0,,10,,,57,127
40596,note_on,2,0,0,,6,,,54,127
40699,note_off,103,0,0,,6,,,54,127
40701,note_on,2,0,0,,10,,,57,127
40801,note_off,100,0,0,,6,,,66,127
40803,note_off,2,0,0,,10,,,57,127
40803,note_off,0,0,0,,10,,,81,127
40805,note_on,2,0,0,,2,,,62,127
40805,note_on,0,0,0,,6,,,66,127
40805,note_on,0,0,0,,10,,,81,127
40908,note_off,103,0,0,,2,,,62,127
40910,note_on,2,0,0,,10,,,57,127
41013,note_off,103,0,0,,10,,,57,127
41015,note_on,2,0,0,,6,,,54,127
41118,note_off,103,0,0,,6,,,54,127
41120,note_on,2,0,0,,10,,,57,127
41220,note_off,100,0,0,,6,,,66,127
41222,note_off,2,0,0,,10,,,57,127
41222,note_off,0,0,0,,10,,,81,127
41224,note_on,2,0,0,,7,,,55,127
41224,note_on,0,0,0,,12,,,71,127
41329,note_on,105,0,0,,7,,,67,127
41432,note_off,103,0,0,,7,,,67,127
41432,note_off,0,0,0,,7,,,55,127
41434,note_on,2,0,0,,4,,,64,127
41537,note_off,103,0,0,,4,,,64,127
41539,note_on,2,0,0,,1,,,61,127
41642,note_off,103,0,0,,1,,,61,127
41642,note_off,0,0,0,,12,,,71,127
41644,note_on,2,0,0,,2,,,62,127
41644,note_on,0,0,0,,12,,,83,127
41747,note_off,103,0,0,,2,,,62,127
41749,note_on,2,0,0,,12,,,59,127
41852,note_off,103,0,0,,12,,,59,127
41854,note_on,2,0,0,,10,,,57,127
41957,note_off,103,0,0,,10,,,57,127
41959,note_on,2,0,0,,7,,,55,127
42062,note_off,103,0,0,,7,,,55,127
42064,note_on,2,0,0,,10,,,45,127
42167,note_off,103,0,0,,12,,,83,127
42169,note_on,2,0,0,,12,,,83,127
42272,note_off,103,0,0,,12,,,83,127
42274,note_on,2,0,0,,10,,,81,127
42377,note_off,103,0,0,,10,,,81,127
42379,note_on,2,0,0,,7,,,79,127
42482,note_off,103,0,0,,7,,,79,127
42484,note_on,2,0,0,,6,,,78,127
42587,note_off,103,0,0,,6,,,78,127
42589,note_on,2,0,0,,4,,,76,127
42692,note_off,103,0,0,,4,,,76,127
42694,note_on,2,0,0,,2,,,74,127
42797,note_off,103,0,0,,2,,,74,127
42799,note_on,2,0,0,,1,,,73,127
42902,note_off,103,0,0,,1,,,73,127
42902,note_off,0,0,0,,10,,,45,127
42904,note_on,2,0,0,,2,,,38,127
42904,note_on,0,0,0,,2,,,74,127
43007,note_off,103,0,0,,2,,,74,127
43009,note_on,2,0,0,,10,,,69,127
43112,note_off,103,0,0,,10,,,69,127
43114,note_on,2,0,0,,12,,,71,127
43217,note_off,103,0,0,,12,,,71,127
43219,note_on,2,0,0,,1,,,73,127
43322,note_off,103,0,0,,1,,,73,127
43324,note_on,2,0,0,,2,,,74,127
43427,note_off,103,0,0,,2,,,74,127
43429,note_on,2,0,0,,4,,,76,127
43532,note_off,103,0,0,,4,,,76,127
43534,note_on,2,0,0,,6,,,78,127
43637,note_off,103,0,0,,6,,,78,127
43639,note_on,2,0,0,,7,,,79,127
43742,note_off,103,0,0,,7,,,79,127
43742,note_off,0,0,0,,2,,,38,127
43744,note_on,2,0,0,,6,,,66,127
43744,note_on,0,0,0,,2,,,62,127
43744,note_on,0,0,0,,10,,,81,127
43847,note_off,103,0,0,,2,,,62,127
43849,note_on,2,0,0,,10,,,57,127
43952,note_off,103,0,0,,10,,,57,127
43954,note_on,2,0,0,,6,,,54,127
44057,note_off,103,0,0,,6,,,54,127
44059,note_on,2,0,0,,10,,,57,127
44159,note_off,100,0,0,,6,,,66,127
44161,note_off,2,0,0,,10,,,57,127
44161,note_off,0,0,0,,10,,,81,127
44163,note_on,2,0,0,,6,,,66,127
44163,note_on,0,0,0,,2,,,62,127
44163,note_on,0,0,0,,10,,,81,127
44266,note_off,103,0,0,,2,,,62,127
44268,note_on,2,0,0,,10,,,57,127
44371,note_off,103,0,0,,10,,,57,127
44373,note_on,2,0,0,,6,,,54,127
44476,note_off,103,0,0,,6,,,54,127
44478,note_on,2,0,0,,10,,,57,127
44578,note_off,100,0,0,,6,,,66,127
44580,note_off,2,0,0,,10,,,57,127
44580,note_off,0,0,0,,10,,,81,127
44582,note_on,2,0,0,,7,,,55,127
44582,note_on,0,0,0,,12,,,71,127
44687,note_on,105,0,0,,7,,,67,127
44790,note_off,103,0,0,,7,,,67,127
44790,note_off,0,0,0,,7,,,55,127
44792,note_on,2,0,0,,4,,,64,127
44895,note_off,103,0,0,,4,,,64,127
44897,note_on,2,0,0,,1,,,61,127
45000,note_off,103,0,0,,1,,,61,127
45000,note_off,0,0,0,,12,,,71,127
45002,note_on,2,0,0,,2,,,62,127
45002,note_on,0,0,0,,12,,,83,127
45105,note_off,103,0,0,,2,,,62,127
45107,note_on,2,0,0,,12,,,59,127
45210,note_off,103,0,0,,12,,,59,127
45212,note_on,2,0,0,,10,,,57,127
45315,note_off,103,0,0,,10,,,57,127
45317,note_on,2,0,0,,7,,,55,127
45420,note_off,103,0,0,,7,,,55,127
45422,note_on,2,0,0,,10,,,45,127
45525,note_off,103,0,0,,12,,,83,127
45527,note_on,2,0,0,,12,,,83,127
45630,note_off,103,0,0,,12,,,83,127
45632,note_on,2,0,0,,10,,,81,127
45735,note_off,103,0,0,,10,,,81,127
45737,note_on,2,0,0,,7,,,79,127
45840,note_off,103,0,0,,7,,,79,127
45842,note_on,2,0,0,,6,,,78,127
45945,note_off,103,0,0,,6,,,78,127
45947,note_on,2,0,0,,4,,,76,127
46050,note_off,103,0,0,,4,,,76,127
46052,note_on,2,0,0,,2,,,74,127
46155,note_off,103,0,0,,2,,,74,127
46157,note_on,2,0,0,,1,,,73,127
46260,note_off,103,0,0,,1,,,73,127
46260,note_off,0,0,0,,10,,,45,127
46262,note_on,2,0,0,,2,,,50,127
46262,note_on,0,0,0,,2,,,74,127
46365,note_off,103,0,0,,2,,,74,127
46367,note_on,2,0,0,,12,,,71,127
46470,note_off,103,0,0,,12,,,71,127
46472,note_on,2,0,0,,10,,,69,127
46575,note_off,103,0,0,,10,,,69,127
46577,note_on,2,0,0,,7,,,67,127
46680,note_off,103,0,0,,7,,,67,127
46680,note_off,0,0,0,,2,,,50,127
46682,note_on,2,0,0,,10,,,45,127
46682,note_on,0,0,0,,6,,,66,127
46785,note_off,103,0,0,,6,,,66,127
46787,note_on,2,0,0,,4,,,64,127
46890,note_off,103,0,0,,4,,,64,127
46892,note_on,2,0,0,,2,,,62,127
46995,note_off,103,0,0,,2,,,62,127
46997,note_on,2,0,0,,1,,,61,127
47100,note_off,103,0,0,,1,,,61,127
47100,note_off,0,0,0,,10,,,45,127
47102,note_on,2,0,0,,2,,,50,127
47102,note_on,0,0,0,,2,,,62,127
47205,note_off,103,0,0,,2,,,62,127
47207,note_on,2,0,0,,12,,,59,127
47310,note_off,103,0,0,,12,,,59,127
47312,note_on,2,0,0,,10,,,57,127
47415,note_off,103,0,0,,10,,,57,127
47417,note_on,2,0,0,,7,,,55,127
47520,note_off,103,0,0,,7,,,55,127
47520,note_off,0,0,0,,2,,,50,127
47522,note_on,2,0,0,,10,,,45,127
47522,note_on,0,0,0,,6,,,54,127
47625,note_off,103,0,0,,6,,,54,127
47627,note_on,2,0,0,,4,,,52,127
47730,note_off,103,0,0,,4,,,52,127
47732,note_on,2,0,0,,2,,,50,127
47835,note_off,103,0,0,,2,,,50,127
47837,note_on,2,0,0,,1,,,49,127
47940,note_off,103,0,0,,1,,,49,127
47940,note_off,0,0,0,,10,,,45,127
47942,note_on,2,0,0,,2,,,38,127
47942,note_on,0,0,0,,2,,,50,127
48778,note_off,836,0,0,,2,,,50,127
48780,note_on,2,0,0,,2,,,74,127
48883,note_off,103,0,0,,2,,,38,127
48885,note_on,2,0,0,,2,,,62,127
48988,note_off,103,0,0,,2,,,62,127
48990,note_on,2,0,0,,1,,,61,127
49093,note_off,103,0,0,,1,,,61,127
49095,note_on,2,0,0,,2,,,62,127
49198,note_off,103,0,0,,2,,,62,127
49200,note_on,2,0,0,,6,,,66,127
49303,note_off,103,0,0,,6,,,66,127
49305,note_on,2,0,0,,2,,,62,127
49408,note_off,103,0,0,,2,,,62,127
49410,note_on,2,0,0,,1,,,61,127
49513,note_off,103,0,0,,1,,,61,127
49515,note_on,2,0,0,,2,,,62,127
49618,note_off,103,0,0,,2,,,62,127
49618,note_off,0,0,0,,2,,,74,127
49620,note_on,2,0,0,,7,,,67,127
49620,note_on,0,0,0,,12,,,71,127
49723,note_off,103,0,0,,7,,,67,127
49725,note_on,2,0,0,,2,,,62,127
49828,note_off,103,0,0,,2,,,62,127
49830,note_on,2,0,0,,1,,,61,127
49933,note_off,103,0,0,,1,,,61,127
49935,note_on,2,0,0,,2,,,62,127
50038,note_off,103,0,0,,2,,,62,127
50038,note_off,0,0,0,,12,,,71,127
50040,note_on,2,0,0,,7,,,67,127
50040,note_on,0,0,0,,2,,,74,127
50143,note_off,103,0,0,,7,,,67,127
50145,note_on,2,0,0,,2,,,62,127
50248,note_off,103,0,0,,2,,,62,127
50250,note_on,2,0,0,,1,,,61,127
50353,note_off,103,0,0,,1,,,61,127
50355,note_on,2,0,0,,2,,,62,127
50458,note_off,103,0,0,,2,,,62,127
50458,note_off,0,0,0,,2,,,74,127
50460,note_on,2,0,0,,6,,,66,127
50460,note_on,0,0,0,,10,,,69,127
50563,note_off,103,0,0,,6,,,66,127
50565,note_on,2,0,0,,2,,,62,127
50668,note_off,103,0,0,,2,,,62,127
50670,note_on,2,0,0,,1,,,61,127
50773,note_off,103,0,0,,1,,,61,127
50775,note_on,2,0,0,,2,,,62,127
50878,note_off,103,0,0,,2,,,62,127
50878,note_off,0,0,0,,10,,,69,127
50880,note_on,2,0,0,,6,,,66,127
50880,note_on,0,0,0,,2,,,74,127
50983,note_off,103,0,0,,6,,,66,127
50985,note_on,2,0,0,,2,,,62,127
51088,note_off,103,0,0,,2,,,62,127
51090,note_on,2,0,0,,1,,,61,127
51193,note_off,103,0,0,,1,,,61,127
51195,note_on,2,0,0,,2,,,62,127
51298,note_off,103,0,0,,2,,,62,127
51298,note_off,0,0,0,,2,,,74,127
51300,note_on,2,0,0,,7,,,67,127
51300,note_on,0,0,0,,12,,,71,127
51403,note_off,103,0,0,,7,,,67,127
51405,note_on,2,0,0,,2,,,62,127
51508,note_off,103,0,0,,2,,,62,127
51510,note_on,2,0,0,,1,,,61,127
51613,note_off,103,0,0,,1,,,61,127
51615,note_on,2,0,0,,2,,,62,127
51718,note_off,103,0,0,,2,,,62,127
51718,note_off,0,0,0,,12,,,71,127
51720,note_on,2,0,0,,7,,,67,127
51720,note_on,0,0,0,,2,,,74,127
51823,note_off,103,0,0,,7,,,67,127
51825,note_on,2,0,0,,2,,,62,127
51928,note_off,103,0,0,,2,,,62,127
51930,note_on,2,0,0,,1,,,61,127
52033,note_off,103,0,0,,1,,,61,127
52035,note_on,2,0,0,,2,,,62,127
52138,note_off,103,0,0,,2,,,62,127
52138,note_off,0,0,0,,2,,,74,127
52140,note_on,2,0,0,,6,,,66,127
52140,note_on,0,0,0,,10,,,69,127
52243,note_off,103,0,0,,6,,,66,127
52245,note_on,2,0,0,,7,,,67,127
52348,note_off,103,0,0,,7,,,67,127
52348,note_off,0,0,0,,10,,,69,127
52350,note_on,2,0,0,,4,,,64,127
52350,note_on,0,0,0,,7,,,79,127
52350,note_on,0,0,0,,10,,,69,127
52453,note_off,103,0,0,,4,,,64,127
52455,note_on,2,0,0,,6,,,66,127
52558,note_off,103,0,0,,6,,,66,127
52558,note_off,0,0,0,,10,,,69,127
52558,note_off,0,0,0,,7,,,79,127
52560,note_on,2,0,0,,2,,,62,127
52560,note_on,0,0,0,,6,,,78,127
52560,note_on,0,0,0,,12,,,71,127
52663,note_off,103,0,0,,2,,,62,127
52665,note_on,2,0,0,,4,,,64,127
52768,note_off,103,0,0,,4,,,64,127
52768,note_off,0,0,0,,12,,,71,127
52768,note_off,0,0,0,,6,,,78,127
52770,note_on,2,0,0,,1,,,61,127
52770,note_on,0,0,0,,1,,,73,127
52770,note_on,0,0,0,,4,,,76,127
52873,note_off,103,0,0,,1,,,61,127
52875,note_on,2,0,0,,2,,,62,127
52978,note_off,103,0,0,,4,,,76,127
52978,note_off,0,0,0,,1,,,73,127
52979,note_off,1,0,0,,2,,,62,127
52980,note_on,1,0,0,,2,,,74,127
53085,note_on,105,0,0,,12,,,59,127
53188,note_off,103,0,0,,12,,,59,127
53190,note_on,2,0,0,,11,,,58,127
53293,note_off,103,0,0,,11,,,58,127
53295,note_on,2,0,0,,12,,,59,127
53398,note_off,103,0,0,,12,,,59,127
53400,note_on,2,0,0,,2,,,62,127
53400,note_on,0,0,0,,6,,,66,127
53503,note_off,103,0,0,,2,,,62,127
53505,note_on,2,0,0,,12,,,59,127
53608,note_off,103,0,0,,12,,,59,127
53610,note_on,2,0,0,,11,,,58,127
53713,note_off,103,0,0,,11,,,58,127
53715,note_on,2,0,0,,12,,,59,127
53818,note_off,103,0,0,,12,,,59,127
53818,note_off,0,0,0,,6,,,66,127
53820,note_on,2,0,0,,4,,,64,127
53820,note_on,0,0,0,,7,,,67,127
53923,note_off,103,0,0,,4,,,64,127
53925,note_on,2,0,0,,12,,,59,127
54028,note_off,103,0,0,,12,,,59,127
54030,note_on,2,0,0,,11,,,58,127
54133,note_off,103,0,0,,11,,,58,127
54135,note_on,2,0,0,,12,,,59,127
54238,note_off,103,0,0,,12,,,59,127
54238,note_off,0,0,0,,2,,,74,127
54240,note_on,2,0,0,,4,,,64,127
54240,note_on,0,0,0,,1,,,73,127
54343,note_off,103,0,0,,4,,,64,127
54345,note_on,2,0,0,,12,,,59,127
54448,note_off,103,0,0,,12,,,59,127
54450,note_on,2,0,0,,11,,,58,127
54553,note_off,103,0,0,,11,,,58,127
54555,note_on,2,0,0,,12,,,59,127
54658,note_off,103,0,0,,12,,,59,127
54659,note_off,1,0,0,,7,,,67,127
54660,note_on,1,0,0,,2,,,62,127
54660,note_on,0,0,0,,6,,,66,127
54763,note_off,103,0,0,,2,,,62,127
54765,note_on,2,0,0,,12,,,59,127
54868,note_off,103,0,0,,12,,,59,127
54870,note_on,2,0,0,,11,,,58,127
54973,note_off,103,0,0,,11,,,58,127
54975,note_on,2,0,0,,12,,,59,127
55078,note_off,103,0,0,,12,,,59,127
55079,note_off,1,0,0,,1,,,73,127
55080,note_on,1,0,0,,2,,,62,127
55080,note_on,0,0,0,,12,,,71,127
55183,note_off,103,0,0,,2,,,62,127
55185,note_on,2,0,0,,12,,,59,127
55288,note_off,103,0,0,,12,,,59,127
55290,note_on,2,0,0,,11,,,58,127
55393,note_off,103,0,0,,11,,,58,127
55395,note_on,2,0,0,,12,,,59,127
55498,note_off,103,0,0,,12,,,59,127
55499,note_off,1,0,0,,6,,,66,127
55500,note_on,1,0,0,,4,,,64,127
55500,note_on,0,0,0,,7,,,67,127
55603,note_off,103,0,0,,4,,,64,127
55605,note_on,2,0,0,,12,,,59,127
55708,note_off,103,0,0,,12,,,59,127
55710,note_on,2,0,0,,11,,,58,127
55813,note_off,103,0,0,,11,,,58,127
55815,note_on,2,0,0,,12,,,59,127
55918,note_off,103,0,0,,12,,,59,127
55919,note_off,1,0,0,,12,,,71,127
55920,note_on,1,0,0,,4,,,64,127
55920,note_on,0,0,0,,12,,,71,127
56023,note_off,103,0,0,,4,,,64,127
56025,note_on,2,0,0,,12,,,59,127
56128,note_off,103,0,0,,12,,,59,127
56130,note_on,2,0,0,,11,,,58,127
56233,note_off,103,0,0,,11,,,58,127
56235,note_on,2,0,0,,12,,,59,127
56335,note_off,100,0,0,,12,,,71,127
56337,note_off,2,0,0,,12,,,59,127
56338,note_off,1,0,0,,7,,,67,127
56339,note_on,1,0,0,,2,,,62,127
56339,note_on,0,0,0,,6,,,66,127
56442,note_off,103,0,0,,2,,,62,127
56444,note_on,2,0,0,,4,,,64,127
56547,note_off,103,0,0,,4,,,64,127
56549,note_on,2,0,0,,1,,,61,127
56652,note_off,103,0,0,,1,,,61,127
56654,note_on,2,0,0,,2,,,62,127
56757,note_off,103,0,0,,2,,,62,127
56759,note_on,2,0,0,,12,,,59,127
56759,note_on,0,0,0,,2,,,74,127
56862,note_off,103,0,0,,12,,,59,127
56864,note_on,2,0,0,,1,,,61,127
56967,note_off,103,0,0,,1,,,61,127
56969,note_on,2,0,0,,10,,,57,127
57072,note_off,103,0,0,,10,,,57,127
57074,note_on,2,0,0,,12,,,59,127
57177,note_off,103,0,0,,12,,,59,127
57178,note_off,1,0,0,,6,,,66,127
57179,note_on,1,0,0,,7,,,55,127
57179,note_on,0,0,0,,12,,,71,127
57282,note_off,103,0,0,,7,,,55,127
57284,note_on,2,0,0,,10,,,57,127
57387,note_off,103,0,0,,10,,,57,127
57389,note_on,2,0,0,,6,,,54,127
57492,note_off,103,0,0,,6,,,54,127
57494,note_on,2,0,0,,7,,,55,127
57597,note_off,103,0,0,,7,,,55,127
57597,note_off,0,0,0,,12,,,71,127
57598,note_off,1,0,0,,2,,,74,127
57599,note_on,1,0,0,,4,,,52,127
57599,note_on,0,0,0,,4,,,76,127
57599,note_on,0,0,0,,1,,,73,127
57702,note_off,103,0,0,,4,,,52,127
57704,note_on,2,0,0,,7,,,55,127
57807,note_off,103,0,0,,7,,,55,127
57809,note_on,2,0,0,,6,,,54,127
57912,note_off,103,0,0,,6,,,54,127
57914,note_on,2,0,0,,4,,,52,127
58014,note_off,100,0,0,,4,,,76,127
58016,note_off,2,0,0,,4,,,52,127
58018,note_on,2,0,0,,6,,,54,127
58121,note_off,103,0,0,,1,,,73,127
58123,note_on,2,0,0,,1,,,73,127
58226,note_off,103,0,0,,1,,,73,127
58228,note_on,2,0,0,,11,,,70,127
58331,note_off,103,0,0,,11,,,70,127
58333,note_on,2,0,0,,6,,,66,127
58436,note_off,103,0,0,,6,,,66,127
58438,note_on,2,0,0,,4,,,76,127
58543,note_on,105,0,0,,1,,,73,127
58646,note_off,103,0,0,,1,,,73,127
58648,note_on,2,0,0,,6,,,66,127
58751,note_off,103,0,0,,6,,,66,127
58751,note_off,0,0,0,,4,,,76,127
58753,note_on,2,0,0,,4,,,76,127
58856,note_off,103,0,0,,4,,,76,127
58858,note_on,2,0,0,,6,,,42,127
58858,note_on,0,0,0,,2,,,74,127
58963,note_on,105,0,0,,12,,,71,127
59066,note_off,103,0,0,,12,,,71,127
59068,note_on,2,0,0,,6,,,66,127
59171,note_off,103,0,0,,6,,,66,127
59173,note_on,2,0,0,,12,,,71,127
59273,note_off,100,0,0,,2,,,74,127
59275,note_off,2,0,0,,12,,,71,127
59275,note_off,0,0,0,,6,,,54,127
59277,note_on,2,0,0,,6,,,54,127
59277,note_on,0,0,0,,2,,,74,127
59382,note_on,105,0,0,,12,,,71,127
59485,note_off,103,0,0,,12,,,71,127
59487,note_on,2,0,0,,6,,,66,127
59590,note_off,103,0,0,,6,,,66,127
59592,note_on,2,0,0,,5,,,65,127
59692,note_off,100,0,0,,2,,,74,127
59694,note_off,2,0,0,,5,,,65,127
59695,note_off,1,0,0,,6,,,42,127
59696,note_on,1,0,0,,6,,,42,127
59696,note_on,0,0,0,,1,,,73,127
59801,note_on,105,0,0,,11,,,70,127
59904,note_off,103,0,0,,11,,,70,127
59906,note_on,2,0,0,,6,,,66,127
60002,note_off,96,0,0,,1,,,73,127
60009,note_off,7,0,0,,6,,,66,127
60011,note_on,2,0,0,,11,,,70,127
60114,note_off,103,0,0,,11,,,70,127
60115,note_off,1,0,0,,6,,,54,127
60116,note_on,1,0,0,,6,,,54,127
60116,note_on,0,0,0,,4,,,76,127
60221,note_on,105,0,0,,1,,,73,127
60324,note_off,103,0,0,,1,,,73,127
60326,note_on,2,0,0,,6,,,66,127
60429,note_off,103,0,0,,6,,,66,127
60431,note_on,2,0,0,,1,,,73,127
60531,note_off,100,0,0,,4,,,76,127
60533,note_off,2,0,0,,1,,,73,127
60534,note_off,1,0,0,,6,,,42,127
60535,note_on,1,0,0,,6,,,42,127
60535,note_on,0,0,0,,2,,,74,127
60640,note_on,105,0,0,,12,,,71,127
60743,note_off,103,0,0,,12,,,71,127
60745,note_on,2,0,0,,6,,,66,127
60848,note_off,103,0,0,,6,,,66,127
60850,note_on,2,0,0,,12,,,71,127
60950,note_off,100,0,0,,2,,,74,127
60952,note_off,2,0,0,,12,,,71,127
60953,note_off,1,0,0,,6,,,54,127
60954,note_on,1,0,0,,6,,,54,127
60954,note_on,0,0,0,,2,,,74,127
61059,note_on,105,0,0,,12,,,71,127
61162,note_off,103,0,0,,12,,,71,127
61164,note_on,2,0,0,,6,,,66,127
61267,note_off,103,0,0,,6,,,66,127
61269,note_on,2,0,0,,5,,,65,127
61369,note_off,100,0,0,,2,,,74,127
61371,note_off,2,0,0,,5,,,65,127
61372,note_off,1,0,0,,6,,,42,127
61373,note_on,1,0,0,,6,,,42,127
61373,note_on,0,0,0,,1,,,73,127
61478,note_on,105,0,0,,11,,,70,127
61581,note_off,103,0,0,,11,,,70,127
61583,note_on,2,0,0,,6,,,66,127
61686,note_off,103,0,0,,6,,,66,127
61688,note_on,2,0,0,,11,,,70,127
61788,note_off,100,0,0,,1,,,73,127
61790,note_off,2,0,0,,11,,,70,127
61791,note_off,1,0,0,,6,,,54,127
61792,note_on,1,0,0,,6,,,54,127
61792,note_on,0,0,0,,1,,,73,127
61897,note_on,105,0,0,,6,,,66,127
62000,note_off,103,0,0,,6,,,66,127
62002,note_on,2,0,0,,1,,,61,127
62098,note_off,96,0,0,,1,,,73,127
62105,note_off,7,0,0,,1,,,61,127
62107,note_on,2,0,0,,1,,,73,127
62210,note_off,103,0,0,,1,,,73,127
62210,note_off,0,0,0,,6,,,54,127
62211,note_off,1,0,0,,6,,,42,127
62212,note_on,1,0,0,,12,,,47,127
62212,note_on,0,0,0,,2,,,74,127
62317,note_on,105,0,0,,6,,,66,127
62420,note_off,103,0,0,,6,,,66,127
62422,note_on,2,0,0,,2,,,62,127
62525,note_off,103,0,0,,2,,,62,127
62527,note_on,2,0,0,,6,,,66,127
62627,note_off,100,0,0,,2,,,74,127
62629,note_off,2,0,0,,6,,,66,127
62631,note_on,2,0,0,,12,,,59,127
62631,note_on,0,0,0,,2,,,74,127
62736,note_on,105,0,0,,6,,,66,127
62839,note_off,103,0,0,,6,,,66,127
62841,note_on,2,0,0,,2,,,62,127
62944,note_off,103,0,0,,2,,,62,127
62946,note_on,2,0,0,,6,,,66,127
63046,note_off,100,0,0,,2,,,74,127
63048,note_off,2,0,0,,6,,,66,127
63048,note_off,0,0,0,,12,,,59,127
63049,note_off,1,0,0,,12,,,47,127
63050,note_on,1,0,0,,4,,,40,127
63050,note_on,0,0,0,,2,,,74,127
63155,note_on,105,0,0,,8,,,68,127
63258,note_off,103,0,0,,8,,,68,127
63260,note_on,2,0,0,,2,,,62,127
63363,note_off,103,0,0,,2,,,62,127
63365,note_on,2,0,0,,8,,,68,127
63465,note_off,100,0,0,,2,,,74,127
63467,note_off,2,0,0,,8,,,68,127
63469,note_on,2,0,0,,4,,,52,127
63469,note_on,0,0,0,,2,,,74,127
63574,note_on,105,0,0,,8,,,68,127
63677,note_off,103,0,0,,8,,,68,127
63679,note_on,2,0,0,,2,,,62,127
63782,note_off,103,0,0,,2,,,62,127
63784,note_on,2,0,0,,8,,,68,127
63884,note_off,100,0,0,,2,,,74,127
63886,note_off,2,0,0,,8,,,68,127
63887,note_off,1,0,0,,4,,,40,127
63888,note_on,1,0,0,,4,,,40,127
63888,note_on,0,0,0,,2,,,74,127
63993,note_on,105,0,0,,8,,,68,127
64096,note_off,103,0,0,,8,,,68,127
64098,note_on,2,0,0,,2,,,62,127
64201,note_off,103,0,0,,2,,,62,127
64203,note_on,2,0,0,,8,,,68,127
64303,note_off,100,0,0,,2,,,74,127
64305,note_off,2,0,0,,8,,,68,127
64306,note_off,1,0,0,,4,,,52,127
64307,note_on,1,0,0,,4,,,52,127
64307,note_on,0,0,0,,2,,,74,127
64412,note_on,105,0,0,,8,,,68,127
64515,note_off,103,0,0,,8,,,68,127
64517,note_on,2,0,0,,4,,,64,127
64620,note_off,103,0,0,,4,,,64,127
64622,note_on,2,0,0,,8,,,68,127
64722,note_off,100,0,0,,2,,,74,127
64724,note_off,2,0,0,,8,,,68,127
64724,note_off,0,0,0,,4,,,52,127
64725,note_off,1,0,0,,4,,,40,127
64726,note_on,1,0,0,,2,,,38,127
64726,note_on,0,0,0,,2,,,74,127
64831,note_on,105,0,0,,8,,,68,127
64934,note_off,103,0,0,,8,,,68,127
64936,note_on,2,0,0,,5,,,65,127
65039,note_off,103,0,0,,5,,,65,127
65041,note_on,2,0,0,,8,,,68,127
65141,note_off,100,0,0,,2,,,74,127
65143,note_off,2,0,0,,8,,,68,127
65145,note_on,2,0,0,,2,,,50,127
65145,note_on,0,0,0,,2,,,74,127
65250,note_on,105,0,0,,10,,,69,127
65353,note_off,103,0,0,,10,,,69,127
65355,note_on,2,0,0,,5,,,65,127
65458,note_off,103,0,0,,5,,,65,127
65460,note_on,2,0,0,,10,,,69,127
65560,note_off,100,0,0,,2,,,74,127
65562,note_off,2,0,0,,10,,,69,127
65563,note_off,1,0,0,,2,,,38,127
65564,note_on,1,0,0,,2,,,38,127
65564,note_on,0,0,0,,2,,,74,127
65669,note_on,105,0,0,,12,,,71,127
65772,note_off,103,0,0,,12,,,71,127
65774,note_on,2,0,0,,5,,,65,127
65877,note_off,103,0,0,,5,,,65,127
65879,note_on,2,0,0,,12,,,71,127
65979,note_off,100,0,0,,2,,,74,127
65981,note_off,2,0,0,,12,,,71,127
65982,note_off,1,0,0,,2,,,50,127
65983,note_on,1,0,0,,2,,,50,127
65983,note_on,0,0,0,,2,,,74,127
66088,note_on,105,0,0,,12,,,71,127
66191,note_off,103,0,0,,12,,,71,127
66193,note_on,2,0,0,,5,,,65,127
66296,note_off,103,0,0,,5,,,65,127
66298,note_on,2,0,0,,12,,,71,127
66398,note_off,100,0,0,,2,,,74,127
66400,note_off,2,0,0,,12,,,71,127
66400,note_off,0,0,0,,2,,,50,127
66401,note_off,1,0,0,,2,,,38,127
66402,note_on,1,0,0,,4,,,40,127
66402,note_on,0,0,0,,2,,,74,127
66507,note_on,105,0,0,,12,,,71,127
66610,note_off,103,0,0,,12,,,71,127
66612,note_on,2,0,0,,4,,,64,127
66715,note_off,103,0,0,,4,,,64,127
66717,note_on,2,0,0,,12,,,71,127
66817,note_off,100,0,0,,2,,,74,127
66819,note_off,2,0,0,,12,,,71,127
66821,note_on,2,0,0,,4,,,52,127
66821,note_on,0,0,0,,0,,,72,127
66926,note_on,105,0,0,,10,,,69,127
67029,note_off,103,0,0,,10,,,69,127
67031,note_on,2,0,0,,4,,,64,127
67127,note_off,96,0,0,,0,,,72,127
67134,note_off,7,0,0,,4,,,64,127
67136,note_on,2,0,0,,10,,,69,127
67239,note_off,103,0,0,,10,,,69,127
67240,note_off,1,0,0,,4,,,40,127
67241,note_on,1,0,0,,4,,,40,127
67241,note_on,0,0,0,,0,,,72,127
67346,note_on,105,0,0,,10,,,69,127
67449,note_off,103,0,0,,10,,,69,127
67451,note_on,2,0,0,,4,,,64,127
67554,note_off,103,0,0,,4,,,64,127
67556,note_on,2,0,0,,10,,,69,127
67656,note_off,100,0,0,,0,,,72,127
67658,note_off,2,0,0,,10,,,69,127
67659,note_off,1,0,0,,4,,,52,127
67660,note_on,1,0,0,,4,,,52,127
67660,note_on,0,0,0,,12,,,71,127
67765,note_on,105,0,0,,8,,,68,127
67868,note_off,103,0,0,,8,,,68,127
67870,note_on,2,0,0,,4,,,64,127
67973,note_off,103,0,0,,4,,,64,127
67973,note_off,0,0,0,,12,,,71,127
67975,note_on,2,0,0,,12,,,71,127
68078,note_off,103,0,0,,12,,,71,127
68078,note_off,0,0,0,,4,,,52,127
68079,note_off,1,0,0,,4,,,40,127
68080,note_on,1,0,0,,10,,,45,127
68080,note_on,0,0,0,,0,,,72,127
68185,note_on,105,0,0,,10,,,69,127
68288,note_off,103,0,0,,10,,,69,127
68290,note_on,2,0,0,,4,,,64,127
68393,note_off,103,0,0,,4,,,64,127
68395,note_on,2,0,0,,10,,,69,127
68495,note_off,100,0,0,,0,,,72,127
68497,note_off,2,0,0,,10,,,69,127
68499,note_on,2,0,0,,10,,,57,127
68499,note_on,0,0,0,,3,,,75,127
68604,note_on,105,0,0,,10,,,69,127
68707,note_off,103,0,0,,10,,,69,127
68709,note_on,2,0,0,,6,,,66,127
68812,note_off,103,0,0,,6,,,66,127
68814,note_on,2,0,0,,10,,,69,127
68914,note_off,100,0,0,,3,,,75,127
68916,note_off,2,0,0,,10,,,69,127
68917,note_off,1,0,0,,10,,,45,127
68918,note_on,1,0,0,,10,,,45,127
68918,note_on,0,0,0,,4,,,76,127
69023,note_on,105,0,0,,7,,,67,127
69126,note_off,103,0,0,,7,,,67,127
69128,note_on,2,0,0,,4,,,64,127
69231,note_off,103,0,0,,4,,,64,127
69233,note_on,2,0,0,,7,,,67,127
69333,note_off,100,0,0,,4,,,76,127
69335,note_off,2,0,0,,7,,,67,127
69336,note_off,1,0,0,,10,,,57,127
69337,note_on,1,0,0,,10,,,57,127
69337,note_on,0,0,0,,4,,,76,127
69442,note_on,105,0,0,,10,,,69,127
69545,note_off,103,0,0,,10,,,69,127
69547,note_on,2,0,0,,4,,,64,127
69650,note_off,103,0,0,,4,,,64,127
69652,note_on,2,0,0,,10,,,69,127
69752,note_off,100,0,0,,4,,,76,127
69754,note_off,2,0,0,,10,,,69,127
69754,note_off,0,0,0,,10,,,57,127
69755,note_off,1,0,0,,10,,,45,127
69756,note_on,1,0,0,,12,,,47,127
69756,note_on,0,0,0,,4,,,76,127
69861,note_on,105,0,0,,12,,,71,127
69964,note_off,103,0,0,,12,,,71,127
69966,note_on,2,0,0,,7,,,67,127
70069,note_off,103,0,0,,7,,,67,127
70071,note_on,2,0,0,,12,,,71,127
70171,note_off,100,0,0,,4,,,76,127
70173,note_off,2,0,0,,12,,,71,127
70175,note_on,2,0,0,,12,,,59,127
70175,note_on,0,0,0,,4,,,76,127
70280,note_on,105,0,0,,12,,,71,127
70383,note_off,103,0,0,,12,,,71,127
70385,note_on,2,0,0,,7,,,67,127
70488,note_off,103,0,0,,7,,,67,127
70490,note_on,2,0,0,,12,,,71,127
70590,note_off,100,0,0,,4,,,76,127
70592,note_off,2,0,0,,12,,,71,127
70593,note_off,1,0,0,,12,,,47,127
70594,note_on,1,0,0,,12,,,47,127
70594,note_on,0,0,0,,3,,,75,127
70699,note_on,105,0,0,,12,,,71,127
70802,note_off,103,0,0,,12,,,71,127
70804,note_on,2,0,0,,6,,,66,127
70907,note_off,103,0,0,,6,,,66,127
70909,note_on,2,0,0,,12,,,71,127
71009,note_off,100,0,0,,3,,,75,127
71011,note_off,2,0,0,,12,,,71,127
71012,note_off,1,0,0,,12,,,59,127
71013,note_on,1,0,0,,12,,,59,127
71013,note_on,0,0,0,,3,,,75,127
71118,note_on,105,0,0,,12,,,71,127
71221,note_off,103,0,0,,12,,,71,127
71223,note_on,2,0,0,,6,,,66,127
71326,note_off,103,0,0,,6,,,66,127
71328,note_on,2,0,0,,12,,,71,127
71428,note_off,100,0,0,,3,,,75,127
71430,note_off,2,0,0,,12,,,71,127
71430,note_off,0,0,0,,12,,,59,127
71431,note_off,1,0,0,,12,,,47,127
71432,note_on,1,0,0,,10,,,45,127
71432,note_on,0,0,0,,3,,,75,127
71537,note_on,105,0,0,,0,,,72,127
71640,note_off,103,0,0,,0,,,72,127
71642,note_on,2,0,0,,10,,,69,127
71745,note_off,103,0,0,,10,,,69,127
71747,note_on,2,0,0,,0,,,72,127
71847,note_off,100,0,0,,3,,,75,127
71849,note_off,2,0,0,,0,,,72,127
71851,note_on,2,0,0,,10,,,57,127
71851,note_on,0,0,0,,4,,,76,127
71956,note_on,105,0,0,,0,,,72,127
72059,note_off,103,0,0,,0,,,72,127
72061,note_on,2,0,0,,10,,,69,127
72164,note_off,103,0,0,,10,,,69,127
72166,note_on,2,0,0,,0,,,72,127
72266,note_off,100,0,0,,4,,,76,127
72268,note_off,2,0,0,,0,,,72,127
72269,note_off,1,0,0,,10,,,45,127
72270,note_on,1,0,0,,10,,,45,127
72270,note_on,0,0,0,,6,,,78,127
72375,note_on,105,0,0,,3,,,75,127
72478,note_off,103,0,0,,3,,,75,127
72480,note_on,2,0,0,,10,,,69,127
72583,note_off,103,0,0,,10,,,69,127
72585,note_on,2,0,0,,3,,,75,127
72685,note_off,100,0,0,,6,,,78,127
72687,note_off,2,0,0,,3,,,75,127
72688,note_off,1,0,0,,10,,,57,127
72689,note_on,1,0,0,,10,,,57,127
72689,note_on,0,0,0,,7,,,79,127
72794,note_on,105,0,0,,4,,,76,127
72897,note_off,103,0,0,,4,,,76,127
72899,note_on,2,0,0,,10,,,69,127
73002,note_off,103,0,0,,10,,,69,127
73004,note_on,2,0,0,,4,,,76,127
73104,note_off,100,0,0,,7,,,79,127
73106,note_off,2,0,0,,4,,,76,127
73106,note_off,0,0,0,,10,,,57,127
73107,note_off,1,0,0,,10,,,45,127
73108,note_on,1,0,0,,12,,,47,127
73108,note_on,0,0,0,,10,,,81,127
73213,note_on,105,0,0,,6,,,78,127
73316,note_off,103,0,0,,6,,,78,127
73318,note_on,2,0,0,,12,,,71,127
73421,note_off,103,0,0,,12,,,71,127
73423,note_on,2,0,0,,6,,,78,127
73523,note_off,100,0,0,,10,,,81,127
73525,note_off,2,0,0,,6,,,78,127
73527,note_on,2,0,0,,12,,,59,127
73527,note_on,0,0,0,,7,,,79,127
73632,note_on,105,0,0,,4,,,76,127
73735,note_off,103,0,0,,4,,,76,127
73737,note_on,2,0,0,,12,,,71,127
73833,note_off,96,0,0,,7,,,79,127
73840,note_off,7,0,0,,12,,,71,127
73842,note_on,2,0,0,,4,,,76,127
73945,note_off,103,0,0,,4,,,76,127
73946,note_off,1,0,0,,12,,,47,127
73947,note_on,1,0,0,,12,,,47,127
73947,note_on,0,0,0,,7,,,79,127
74052,note_on,105,0,0,,4,,,76,127
74155,note_off,103,0,0,,4,,,76,127
74157,note_on,2,0,0,,12,,,71,127
74260,note_off,103,0,0,,12,,,71,127
74262,note_on,2,0,0,,4,,,76,127
74362,note_off,100,0,0,,7,,,79,127
74364,note_off,2,0,0,,4,,,76,127
74365,note_off,1,0,0,,12,,,59,127
74366,note_on,1,0,0,,12,,,59,127
74366,note_on,0,0,0,,6,,,78,127
74471,note_on,105,0,0,,3,,,75,127
74574,note_off,103,0,0,,3,,,75,127
74576,note_on,2,0,0,,12,,,71,127
74672,note_off,96,0,0,,6,,,78,127
74679,note_off,7,0,0,,12,,,71,127
74681,note_on,2,0,0,,3,,,75,127
74784,note_off,103,0,0,,3,,,75,127
74784,note_off,0,0,0,,12,,,59,127
74785,note_off,1,0,0,,12,,,47,127
74786,note_on,1,0,0,,4,,,52,127
74786,note_on,0,0,0,,7,,,79,127
74891,note_on,105,0,0,,4,,,76,127
74994,note_off,103,0,0,,4,,,76,127
74996,note_on,2,0,0,,12,,,71,127
75099,note_off,103,0,0,,12,,,71,127
75101,note_on,2,0,0,,4,,,76,127
75201,note_off,100,0,0,,7,,,79,127
75203,note_off,2,0,0,,4,,,76,127
75203,note_off,0,0,0,,4,,,52,127
75205,note_on,2,0,0,,6,,,54,127
75205,note_on,0,0,0,,10,,,81,127
75310,note_on,105,0,0,,6,,,78,127
75413,note_off,103,0,0,,6,,,78,127
75415,note_on,2,0,0,,12,,,71,127
75518,note_off,103,0,0,,12,,,71,127
75520,note_on,2,0,0,,6,,,78,127
75620,note_off,100,0,0,,10,,,81,127
75622,note_off,2,0,0,,6,,,78,127
75622,note_off,0,0,0,,6,,,54,127
75624,note_on,2,0,0,,7,,,55,127
75624,note_on,0,0,0,,12,,,83,127
75729,note_on,105,0,0,,4,,,76,127
75832,note_off,103,0,0,,4,,,76,127
75834,note_on,2,0,0,,12,,,71,127
75937,note_off,103,0,0,,12,,,71,127
75939,note_on,2,0,0,,4,,,76,127
76039,note_off,100,0,0,,12,,,83,127
76041,note_off,2,0,0,,4,,,76,127
76041,note_off,0,0,0,,7,,,55,127
76043,note_on,2,0,0,,4,,,52,127
76043,note_on,0,0,0,,12,,,83,127
76148,note_on,105,0,0,,2,,,74,127
76251,note_off,103,0,0,,2,,,74,127
76253,note_on,2,0,0,,12,,,71,127
76356,note_off,103,0,0,,12,,,71,127
76358,note_on,2,0,0,,2,,,74,127
76458,note_off,100,0,0,,12,,,83,127
76460,note_off,2,0,0,,2,,,74,127
76460,note_off,0,0,0,,4,,,52,127
76462,note_on,2,0,0,,10,,,57,127
76462,note_on,0,0,0,,12,,,83,127
76567,note_on,105,0,0,,4,,,76,127
76670,note_off,103,0,0,,4,,,76,127
76672,note_on,2,0,0,,0,,,72,127
76775,note_off,103,0,0,,0,,,72,127
76777,note_on,2,0,0,,4,,,76,127
76877,note_off,100,0,0,,12,,,83,127
76879,note_off,2,0,0,,4,,,76,127
76881,note_on,2,0,0,,10,,,45,127
76881,note_on,0,0,0,,10,,,81,127
76986,note_on,105,0,0,,4,,,76,127
77089,note_off,103,0,0,,4,,,76,127
77091,note_on,2,0,0,,0,,,72,127
77187,note_off,96,0,0,,10,,,81,127
77194,note_off,7,0,0,,0,,,72,127
77196,note_on,2,0,0,,4,,,76,127
77299,note_off,103,0,0,,4,,,76,127
77299,note_off,0,0,0,,10,,,45,127
77300,note_off,1,0,0,,10,,,57,127
77301,note_on,1,0,0,,0,,,48,127
77301,note_on,0,0,0,,10,,,81,127
77406,note_on,105,0,0,,4,,,76,127
77509,note_off,103,0,0,,4,,,76,127
77511,note_on,2,0,0,,0,,,72,127
77614,note_off,103,0,0,,0,,,72,127
77616,note_on,2,0,0,,4,,,76,127
77716,note_off,100,0,0,,10,,,81,127
77718,note_off,2,0,0,,4,,,76,127
77718,note_off,0,0,0,,0,,,48,127
77720,note_on,2,0,0,,10,,,45,127
77720,note_on,0,0,0,,7,,,79,127
77825,note_on,105,0,0,,4,,,76,127
77928,note_off,103,0,0,,4,,,76,127
77930,note_on,2,0,0,,0,,,72,127
78026,note_off,96,0,0,,7,,,79,127
78033,note_off,7,0,0,,0,,,72,127
78035,note_on,2,0,0,,4,,,76,127
78138,note_off,103,0,0,,4,,,76,127
78138,note_off,0,0,0,,10,,,45,127
78140,note_on,2,0,0,,2,,,50,127
78140,note_on,0,0,0,,6,,,78,127
78245,note_on,105,0,0,,2,,,74,127
78348,note_off,103,0,0,,2,,,74,127
78350,note_on,2,0,0,,10,,,69,127
78453,note_off,103,0,0,,10,,,69,127
78455,note_on,2,0,0,,2,,,74,127
78555,note_off,100,0,0,,6,,,78,127
78557,note_off,2,0,0,,2,,,74,127
78557,note_off,0,0,0,,2,,,50,127
78559,note_on,2,0,0,,4,,,52,127
78559,note_on,0,0,0,,4,,,76,127
78664,note_on,105,0,0,,0,,,72,127
78767,note_off,103,0,0,,0,,,72,127
78769,note_on,2,0,0,,7,,,67,127
78872,note_off,103,0,0,,7,,,67,127
78874,note_on,2,0,0,,0,,,72,127
78974,note_off,100,0,0,,4,,,76,127
78976,note_off,2,0,0,,0,,,72,127
78976,note_off,0,0,0,,4,,,52,127
78978,note_on,2,0,0,,6,,,54,127
78978,note_on,0,0,0,,2,,,74,127
79083,note_on,105,0,0,,10,,,69,127
79186,note_off,103,0,0,,10,,,69,127
79188,note_on,2,0,0,,6,,,66,127
79291,note_off,103,0,0,,6,,,66,127
79293,note_on,2,0,0,,10,,,69,127
79393,note_off,100,0,0,,2,,,74,127
79395,note_off,2,0,0,,10,,,69,127
79395,note_off,0,0,0,,6,,,54,127
79397,note_on,2,0,0,,2,,,50,127
79397,note_on,0,0,0,,0,,,72,127
79502,note_on,105,0,0,,10,,,69,127
79605,note_off,103,0,0,,10,,,69,127
79607,note_on,2,0,0,,2,,,62,127
79710,note_off,103,0,0,,2,,,62,127
79712,note_on,2,0,0,,10,,,69,127
79812,note_off,100,0,0,,0,,,72,127
79814,note_off,2,0,0,,10,,,69,127
79814,note_off,0,0,0,,2,,,50,127
79816,note_on,2,0,0,,7,,,55,127
79816,note_on,0,0,0,,12,,,71,127
79921,note_on,105,0,0,,7,,,67,127
80024,note_off,103,0,0,,7,,,67,127
80026,note_on,2,0,0,,2,,,62,127
80129,note_off,103,0,0,,2,,,62,127
80131,note_on,2,0,0,,7,,,67,127
80231,note_off,100,0,0,,12,,,71,127
80233,note_off,2,0,0,,7,,,67,127
80233,note_off,0,0,0,,7,,,55,127
80235,note_on,2,0,0,,12,,,59,127
80235,note_on,0,0,0,,2,,,74,127
80340,note_on,105,0,0,,7,,,67,127
80443,note_off,103,0,0,,7,,,67,127
80445,note_on,2,0,0,,2,,,62,127
80548,note_off,103,0,0,,2,,,62,127
80550,note_on,2,0,0,,7,,,67,127
80650,note_off,100,0,0,,2,,,74,127
80652,note_off,2,0,0,,7,,,67,127
80652,note_off,0,0,0,,12,,,59,127
80654,note_on,2,0,0,,10,,,57,127
80654,note_on,0,0,0,,0,,,72,127
80759,note_on,105,0,0,,10,,,69,127
80862,note_off,103,0,0,,10,,,69,127
80864,note_on,2,0,0,,2,,,62,127
80967,note_off,103,0,0,,2,,,62,127
80969,note_on,2,0,0,,10,,,69,127
81069,note_off,100,0,0,,0,,,72,127
81071,note_off,2,0,0,,10,,,69,127
81071,note_off,0,0,0,,10,,,57,127
81073,note_on,2,0,0,,7,,,55,127
81073,note_on,0,0,0,,12,,,71,127
81178,note_on,105,0,0,,7,,,67,127
81281,note_off,103,0,0,,7,,,67,127
81283,note_on,2,0,0,,2,,,62,127
81386,note_off,103,0,0,,2,,,62,127
81388,note_on,2,0,0,,7,,,67,127
81488,note_off,100,0,0,,12,,,71,127
81490,note_off,2,0,0,,7,,,67,127
81490,note_off,0,0,0,,7,,,55,127
81492,note_on,2,0,0,,0,,,60,127
81492,note_on,0,0,0,,4,,,76,127
81597,note_on,105,0,0,,6,,,66,127
81700,note_off,103,0,0,,6,,,66,127
81702,note_on,2,0,0,,4,,,64,127
81805,note_off,103,0,0,,4,,,64,127
81807,note_on,2,0,0,,6,,,66,127
81907,note_off,100,0,0,,4,,,76,127
81909,note_off,2,0,0,,6,,,66,127
81909,note_off,0,0,0,,0,,,60,127
81911,note_on,2,0,0,,12,,,59,127
81911,note_on,0,0,0,,2,,,74,127
82016,note_on,105,0,0,,12,,,71,127
82119,note_off,103,0,0,,12,,,71,127
82121,note_on,2,0,0,,2,,,62,127
82224,note_off,103,0,0,,2,,,62,127
82226,note_on,2,0,0,,12,,,71,127
82326,note_off,100,0,0,,2,,,74,127
82328,note_off,2,0,0,,12,,,71,127
82328,note_off,0,0,0,,12,,,59,127
82330,note_on,2,0,0,,10,,,57,127
82330,note_on,0,0,0,,0,,,72,127
82435,note_on,105,0,0,,10,,,69,127
82538,note_off,103,0,0,,10,,,69,127
82540,note_on,2,0,0,,2,,,62,127
82643,note_off,103,0,0,,2,,,62,127
82645,note_on,2,0,0,,10,,,69,127
82745,note_off,100,0,0,,0,,,72,127
82747,note_off,2,0,0,,10,,,69,127
82747,note_off,0,0,0,,10,,,57,127
82749,note_on,2,0,0,,7,,,55,127
82749,note_on,0,0,0,,12,,,71,127
82854,note_on,105,0,0,,7,,,67,127
82957,note_off,103,0,0,,7,,,67,127
82959,note_on,2,0,0,,2,,,62,127
83062,note_off,103,0,0,,2,,,62,127
83064,note_on,2,0,0,,7,,,67,127
83164,note_off,100,0,0,,12,,,71,127
83166,note_off,2,0,0,,7,,,67,127
83166,note_off,0,0,0,,7,,,55,127
83168,note_on,2,0,0,,2,,,50,127
83168,note_on,0,0,0,,12,,,71,127
83218,note_off,50,0,0,,12,,,71,127
83220,note_on,2,0,0,,10,,,69,127
83270,note_off,50,0,0,,10,,,69,127
83272,note_on,2,0,0,,12,,,71,127
83322,note_off,50,0,0,,12,,,71,127
83324,note_on,2,0,0,,10,,,69,127
83584,note_off,260,0,0,,10,,,69,127
83584,note_off,0,0,0,,2,,,50,127
83586,note_on,2,0,0,,12,,,47,127
83586,note_on,0,0,0,,2,,,86,127
83586,note_on,0,0,0,,12,,,83,127
83689,note_off,103,0,0,,12,,,83,127
83691,note_on,2,0,0,,7,,,79,127
83794,note_off,103,0,0,,7,,,79,127
83796,note_on,2,0,0,,2,,,74,127
83899,note_off,103,0,0,,2,,,74,127
83901,note_on,2,0,0,,7,,,79,127
84001,note_off,100,0,0,,2,,,86,127
84003,note_off,2,0,0,,7,,,79,127
84003,note_off,0,0,0,,12,,,47,127
84005,note_on,2,0,0,,10,,,45,127
84005,note_on,0,0,0,,0,,,84,127
84005,note_on,0,0,0,,10,,,81,127
84108,note_off,103,0,0,,10,,,81,127
84110,note_on,2,0,0,,6,,,78,127
84213,note_off,103,0,0,,6,,,78,127
84215,note_on,2,0,0,,0,,,72,127
84318,note_off,103,0,0,,0,,,72,127
84320,note_on,2,0,0,,6,,,78,127
84420,note_off,100,0,0,,0,,,84,127
84422,note_off,2,0,0,,6,,,78,127
84422,note_off,0,0,0,,10,,,45,127
84424,note_on,2,0,0,,2,,,50,127
84424,note_on,0,0,0,,10,,,81,127
84424,note_on,0,0,0,,6,,,78,127
84527,note_off,103,0,0,,6,,,78,127
84529,note_on,2,0,0,,0,,,72,127
84632,note_off,103,0,0,,0,,,72,127
84634,note_on,2,0,0,,10,,,69,127
84737,note_off,103,0,0,,10,,,69,127
84739,note_on,2,0,0,,0,,,72,127
84839,note_off,100,0,0,,10,,,81,127
84841,note_off,2,0,0,,0,,,72,127
84841,note_off,0,0,0,,2,,,50,127
84843,note_on,2,0,0,,7,,,43,127
84843,note_on,0,0,0,,12,,,83,127
84843,note_on,0,0,0,,7,,,79,127
84946,note_off,103,0,0,,7,,,79,127
84948,note_on,2,0,0,,2,,,74,127
85051,note_off,103,0,0,,2,,,74,127
85053,note_on,2,0,0,,12,,,71,127
85156,note_off,103,0,0,,12,,,71,127
85158,note_on,2,0,0,,2,,,74,127
85258,note_off,100,0,0,,12,,,83,127
85260,note_off,2,0,0,,2,,,74,127
85260,note_off,0,0,0,,7,,,43,127
85262,note_on,2,0,0,,12,,,47,127
85262,note_on,0,0,0,,2,,,86,127
85262,note_on,0,0,0,,12,,,83,127
85365,note_off,103,0,0,,12,,,83,127
85367,note_on,2,0,0,,7,,,79,127
85470,note_off,103,0,0,,7,,,79,127
85472,note_on,2,0,0,,2,,,74,127
85575,note_off,103,0,0,,2,,,74,127
85577,note_on,2,0,0,,7,,,79,127
85677,note_off,100,0,0,,2,,,86,127
85679,note_off,2,0,0,,7,,,79,127
85679,note_off,0,0,0,,12,,,47,127
85681,note_on,2,0,0,,10,,,45,127
85681,note_on,0,0,0,,0,,,84,127
85681,note_on,0,0,0,,10,,,81,127
85784,note_off,103,0,0,,10,,,81,127
85786,note_on,2,0,0,,6,,,78,127
85889,note_off,103,0,0,,6,,,78,127
85891,note_on,2,0,0,,0,,,72,127
85994,note_off,103,0,0,,0,,,72,127
85996,note_on,2,0,0,,6,,,78,127
86096,note_off,100,0,0,,0,,,84,127
86098,note_off,2,0,0,,6,,,78,127
86098,note_off,0,0,0,,10,,,45,127
86100,note_on,2,0,0,,2,,,50,127
86100,note_on,0,0,0,,10,,,81,127
86100,note_on,0,0,0,,6,,,78,127
86203,note_off,103,0,0,,6,,,78,127
86205,note_on,2,0,0,,0,,,72,127
86308,note_off,103,0,0,,0,,,72,127
86310,note_on,2,0,0,,10,,,69,127
86413,note_off,103,0,0,,10,,,69,127
86415,note_on,2,0,0,,0,,,72,127
86515,note_off,100,0,0,,10,,,81,127
86517,note_off,2,0,0,,0,,,72,127
86517,note_off,0,0,0,,2,,,50,127
86519,note_on,2,0,0,,7,,,43,127
86519,note_on,0,0,0,,12,,,83,127
86519,note_on,0,0,0,,7,,,79,127
86622,note_off,103,0,0,,7,,,79,127
86622,note_off,0,0,0,,12,,,83,127
86624,note_on,2,0,0,,2,,,86,127
86727,note_off,103,0,0,,2,,,86,127
86729,note_on,2,0,0,,6,,,78,127
86832,note_off,103,0,0,,6,,,78,127
86834,note_on,2,0,0,,10,,,81,127
86937,note_off,103,0,0,,10,,,81,127
86937,note_off,0,0,0,,7,,,43,127
86939,note_on,2,0,0,,12,,,47,127
86939,note_on,0,0,0,,7,,,79,127
87042,note_off,103,0,0,,7,,,79,127
87044,note_on,2,0,0,,12,,,83,127
87147,note_off,103,0,0,,12,,,83,127
87149,note_on,2,0,0,,2,,,74,127
87252,note_off,103,0,0,,2,,,74,127
87254,note_on,2,0,0,,6,,,78,127
87357,note_off,103,0,0,,6,,,78,127
87357,note_off,0,0,0,,12,,,47,127
87359,note_on,2,0,0,,0,,,48,127
87359,note_on,0,0,0,,4,,,76,127
87462,note_off,103,0,0,,4,,,76,127
87464,note_on,2,0,0,,7,,,79,127
87567,note_off,103,0,0,,7,,,79,127
87569,note_on,2,0,0,,12,,,71,127
87672,note_off,103,0,0,,12,,,71,127
87674,note_on,2,0,0,,2,,,74,127
87777,note_off,103,0,0,,2,,,74,127
87777,note_off,0,0,0,,0,,,48,127
87779,note_on,2,0,0,,0,,,60,127
87779,note_on,0,0,0,,0,,,72,127
87882,note_off,103,0,0,,0,,,72,127
87884,note_on,2,0,0,,4,,,76,127
87987,note_off,103,0,0,,4,,,76,127
87989,note_on,2,0,0,,10,,,69,127
88092,note_off,103,0,0,,10,,,69,127
88094,note_on,2,0,0,,0,,,72,127
88197,note_off,103,0,0,,0,,,72,127
88197,note_off,0,0,0,,0,,,60,127
88199,note_on,2,0,0,,2,,,62,127
88199,note_on,0,0,0,,12,,,71,127
88302,note_off,103,0,0,,12,,,71,127
88304,note_on,2,0,0,,2,,,74,127
88407,note_off,103,0,0,,2,,,74,127
88409,note_on,2,0,0,,12,,,71,127
88512,note_off,103,0,0,,12,,,71,127
88514,note_on,2,0,0,,7,,,67,127
88617,note_off,103,0,0,,7,,,67,127
88619,note_on,2,0,0,,2,,,50,127
88619,note_on,0,0,0,,10,,,69,127
88722,note_off,103,0,0,,10,,,69,127
88724,note_on,2,0,0,,0,,,72,127
88827,note_off,103,0,0,,0,,,72,127
88829,note_on,2,0,0,,10,,,69,127
88932,note_off,103,0,0,,10,,,69,127
88934,note_on,2,0,0,,6,,,66,127
89037,note_off,103,0,0,,6,,,66,127
89037,note_off,0,0,0,,2,,,50,127
89038,note_off,1,0,0,,2,,,62,127
89039,note_on,1,0,0,,7,,,43,127
89039,note_on,0,0,0,,7,,,67,127
89456,note_off,417,0,0,,7,,,67,127
89456,note_off,0,0,0,,7,,,43,127
89458,note_on,2,0,0,,12,,,47,127
89458,note_on,0,0,0,,12,,,83,127
89458,note_on,0,0,0,,2,,,86,127
89561,note_off,103,0,0,,12,,,83,127
89563,note_on,2,0,0,,7,,,79,127
89666,note_off,103,0,0,,7,,,79,127
89668,note_on,2,0,0,,2,,,74,127
89771,note_off,103,0,0,,2,,,74,127
89773,note_on,2,0,0,,7,,,79,127
89873,note_off,100,0,0,,2,,,86,127
89875,note_off,2,0,0,,7,,,79,127
89875,note_off,0,0,0,,12,,,47,127
89877,note_on,2,0,0,,10,,,45,127
89877,note_on,0,0,0,,0,,,84,127
89877,note_on,0,0,0,,10,,,81,127
89980,note_off,103,0,0,,10,,,81,127
89982,note_on,2,0,0,,6,,,78,127
90085,note_off,103,0,0,,6,,,78,127
90087,note_on,2,0,0,,0,,,72,127
90190,note_off,103,0,0,,0,,,72,127
90192,note_on,2,0,0,,6,,,78,127
90292,note_off,100,0,0,,0,,,84,127
90294,note_off,2,0,0,,6,,,78,127
90294,note_off,0,0,0,,10,,,45,127
90296,note_on,2,0,0,,2,,,50,127
90296,note_on,0,0,0,,10,,,81,127
90296,note_on,0,0,0,,6,,,78,127
90399,note_off,103,0,0,,6,,,78,127
90401,note_on,2,0,0,,0,,,72,127
90504,note_off,103,0,0,,0,,,72,127
90506,note_on,2,0,0,,10,,,69,127
90609,note_off,103,0,0,,10,,,69,127
90611,note_on,2,0,0,,0,,,72,127
90711,note_off,100,0,0,,10,,,81,127
90713,note_off,2,0,0,,0,,,72,127
90713,note_off,0,0,0,,2,,,50,127
90715,note_on,2,0,0,,7,,,43,127
90715,note_on,0,0,0,,12,,,83,127
90715,note_on,0,0,0,,7,,,79,127
90818,note_off,103,0,0,,7,,,79,127
90820,note_on,2,0,0,,2,,,74,127
90923,note_off,103,0,0,,2,,,74,127
90925,note_on,2,0,0,,12,,,71,127
91028,note_off,103,0,0,,12,,,71,127
91030,note_on,2,0,0,,2,,,74,127
91130,note_off,100,0,0,,12,,,83,127
91132,note_off,2,0,0,,2,,,74,127
91132,note_off,0,0,0,,7,,,43,127
91134,note_on,2,0,0,,12,,,47,127
91134,note_on,0,0,0,,12,,,83,127
91134,note_on,0,0,0,,2,,,86,127
91237,note_off,103,0,0,,12,,,83,127
91239,note_on,2,0,0,,7,,,79,127
91342,note_off,103,0,0,,7,,,79,127
91344,note_on,2,0,0,,2,,,74,127
91447,note_off,103,0,0,,2,,,74,127
91449,note_on,2,0,0,,7,,,79,127
91549,note_off,100,0,0,,2,,,86,127
91551,note_off,2,0,0,,7,,,79,127
91551,note_off,0,0,0,,12,,,47,127
91553,note_on,2,0,0,,10,,,45,127
91553,note_on,0,0,0,,10,,,81,127
91553,note_on,0,0,0,,0,,,84,127
91656,note_off,103,0,0,,10,,,81,127
91658,note_on,2,0,0,,6,,,78,127
91761,note_off,103,0,0,,6,,,78,127
91763,note_on,2,0,0,,0,,,72,127
91866,note_off,103,0,0,,0,,,72,127
91868,note_on,2,0,0,,6,,,78,127
91968,note_off,100,0,0,,0,,,84,127
91970,note_off,2,0,0,,6,,,78,127
91970,note_off,0,0,0,,10,,,45,127
91972,note_on,2,0,0,,2,,,50,127
91972,note_on,0,0,0,,10,,,81,127
91972,note_on,0,0,0,,6,,,78,127
92075,note_off,103,0,0,,6,,,78,127
92077,note_on,2,0,0,,0,,,72,127
92180,note_off,103,0,0,,0,,,72,127
92182,note_on,2,0,0,,10,,,69,127
92285,note_off,103,0,0,,10,,,69,127
92287,note_on,2,0,0,,0,,,72,127
92387,note_off,100,0,0,,10,,,81,127
92389,note_off,2,0,0,,0,,,72,127
92389,note_off,0,0,0,,2,,,50,127
92391,note_on,2,0,0,,7,,,43,127
92391,note_on,0,0,0,,12,,,83,127
92391,note_on,0,0,0,,7,,,79,127
92494,note_off,103,0,0,,7,,,79,127
92494,note_off,0,0,0,,12,,,83,127
92496,note_on,2,0,0,,2,,,86,127
92599,note_off,103,0,0,,2,,,86,127
92601,note_on,2,0,0,,6,,,78,127
92704,note_off,103,0,0,,6,,,78,127
92706,note_on,2,0,0,,10,,,81,127
92809,note_off,103,0,0,,10,,,81,127
92809,note_off,0,0,0,,7,,,43,127
92811,note_on,2,0,0,,12,,,47,127
92811,note_on,0,0,0,,7,,,79,127
92914,note_off,103,0,0,,7,,,79,127
92916,note_on,2,0,0,,12,,,83,127
93019,note_off,103,0,0,,12,,,83,127
93021,note_on,2,0,0,,2,,,74,127
93124,note_off,103,0,0,,2,,,74,127
93126,note_on,2,0,0,,6,,,78,127
93229,note_off,103,0,0,,6,,,78,127
93229,note_off,0,0,0,,12,,,47,127
93231,note_on,2,0,0,,0,,,48,127
93231,note_on,0,0,0,,4,,,76,127
93334,note_off,103,0,0,,4,,,76,127
93336,note_on,2,0,0,,7,,,79,127
93439,note_off,103,0,0,,7,,,79,127
93441,note_on,2,0,0,,12,,,71,127
93544,note_off,103,0,0,,12,,,71,127
93546,note_on,2,0,0,,2,,,74,127
93649,note_off,103,0,0,,2,,,74,127
93649,note_off,0,0,0,,0,,,48,127
93651,note_on,2,0,0,,0,,,60,127
93651,note_on,0,0,0,,0,,,72,127
93754,note_off,103,0,0,,0,,,72,127
93756,note_on,2,0,0,,4,,,76,127
93859,note_off,103,0,0,,4,,,76,127
93861,note_on,2,0,0,,10,,,69,127
93964,note_off,103,0,0,,10,,,69,127
93966,note_on,2,0,0,,0,,,72,127
94069,note_off,103,0,0,,0,,,72,127
94069,note_off,0,0,0,,0,,,60,127
94071,note_on,2,0,0,,2,,,62,127
94071,note_on,0,0,0,,12,,,71,127
94174,note_off,103,0,0,,12,,,71,127
94176,note_on,2,0,0,,2,,,74,127
94279,note_off,103,0,0,,2,,,74,127
94281,note_on,2,0,0,,12,,,71,127
94384,note_off,103,0,0,,12,,,71,127
94386,note_on,2,0,0,,7,,,67,127
94489,note_off,103,0,0,,7,,,67,127
94491,note_on,2,0,0,,2,,,50,127
94491,note_on,0,0,0,,10,,,69,127
94594,note_off,103,0,0,,10,,,69,127
94596,note_on,2,0,0,,0,,,72,127
94699,note_off,103,0,0,,0,,,72,127
94701,note_on,2,0,0,,10,,,69,127
94804,note_off,103,0,0,,10,,,69,127
94806,note_on,2,0,0,,6,,,66,127
94909,note_off,103,0,0,,6,,,66,127
94909,note_off,0,0,0,,2,,,50,127
94910,note_off,1,0,0,,2,,,62,127
94911,note_on,1,0,0,,7,,,43,127
94911,note_on,0,0,0,,7,,,67,127
95328,note_off,417,0,0,,7,,,67,127
95328,note_off,0,0,0,,7,,,43,127
95330,note_on,2,0,0,,7,,,55,127
95330,note_on,0,0,0,,12,,,59,127
95330,note_on,0,0,0,,2,,,74,127
95433,note_off,103,0,0,,7,,,55,127
95435,note_on,2,0,0,,12,,,47,127
95538,note_off,103,0,0,,12,,,47,127
95540,note_on,2,0,0,,12,,,47,127
95643,note_off,103,0,0,,12,,,47,127
95645,note_on,2,0,0,,7,,,55,127
95745,note_off,100,0,0,,12,,,59,127
95747,note_off,2,0,0,,7,,,55,127
95747,note_off,0,0,0,,2,,,74,127
95749,note_on,2,0,0,,10,,,57,127
95749,note_on,0,0,0,,0,,,60,127
95749,note_on,0,0,0,,4,,,76,127
95852,note_off,103,0,0,,10,,,57,127
95854,note_on,2,0,0,,0,,,48,127
95957,note_off,103,0,0,,0,,,48,127
95959,note_on,2,0,0,,0,,,48,127
96062,note_off,103,0,0,,0,,,48,127
96064,note_on,2,0,0,,10,,,57,127
96164,note_off,100,0,0,,0,,,60,127
96166,note_off,2,0,0,,10,,,57,127
96166,note_off,0,0,0,,4,,,76,127
96168,note_on,2,0,0,,12,,,59,127
96168,note_on,0,0,0,,2,,,62,127
96168,note_on,0,0,0,,6,,,78,127
96271,note_off,103,0,0,,12,,,59,127
96273,note_on,2,0,0,,2,,,50,127
96376,note_off,103,0,0,,2,,,50,127
96378,note_on,2,0,0,,2,,,50,127
96481,note_off,103,0,0,,2,,,50,127
96483,note_on,2,0,0,,12,,,59,127
96583,note_off,100,0,0,,2,,,62,127
96585,note_off,2,0,0,,12,,,59,127
96585,note_off,0,0,0,,6,,,78,127
96587,note_on,2,0,0,,0,,,60,127
96587,note_on,0,0,0,,4,,,64,127
96587,note_on,0,0,0,,7,,,79,127
96690,note_off,103,0,0,,0,,,60,127
96692,note_on,2,0,0,,4,,,52,127
96795,note_off,103,0,0,,4,,,52,127
96797,note_on,2,0,0,,4,,,52,127
96900,note_off,103,0,0,,4,,,52,127
96902,note_on,2,0,0,,0,,,60,127
97002,note_off,100,0,0,,4,,,64,127
97004,note_off,2,0,0,,0,,,60,127
97004,note_off,0,0,0,,7,,,79,127
97006,note_on,2,0,0,,2,,,62,127
97006,note_on,0,0,0,,6,,,66,127
97006,note_on,0,0,0,,10,,,81,127
97109,note_off,103,0,0,,2,,,62,127
97111,note_on,2,0,0,,6,,,54,127
97214,note_off,103,0,0,,6,,,54,127
97216,note_on,2,0,0,,6,,,54,127
97319,note_off,103,0,0,,6,,,54,127
97321,note_on,2,0,0,,2,,,62,127
97421,note_off,100,0,0,,6,,,66,127
97423,note_off,2,0,0,,2,,,62,127
97423,note_off,0,0,0,,10,,,81,127
97425,note_on,2,0,0,,7,,,67,127
97425,note_on,0,0,0,,7,,,55,127
97425,note_on,0,0,0,,12,,,83,127
97528,note_off,103,0,0,,12,,,83,127
97530,note_on,2,0,0,,2,,,86,127
97633,note_off,103,0,0,,2,,,86,127
97635,note_on,2,0,0,,6,,,78,127
97738,note_off,103,0,0,,6,,,78,127
97740,note_on,2,0,0,,10,,,81,127
97843,note_off,103,0,0,,10,,,81,127
97843,note_off,0,0,0,,7,,,55,127
97843,note_off,0,0,0,,7,,,67,127
97845,note_on,2,0,0,,7,,,67,127
97845,note_on,0,0,0,,12,,,59,127
97845,note_on,0,0,0,,7,,,79,127
97948,note_off,103,0,0,,7,,,79,127
97950,note_on,2,0,0,,12,,,83,127
98053,note_off,103,0,0,,12,,,83,127
98055,note_on,2,0,0,,2,,,74,127
98158,note_off,103,0,0,,2,,,74,127
98160,note_on,2,0,0,,6,,,78,127
98263,note_off,103,0,0,,6,,,78,127
98263,note_off,0,0,0,,12,,,59,127
98263,note_off,0,0,0,,7,,,67,127
98265,note_on,2,0,0,,0,,,48,127
98265,note_on,0,0,0,,4,,,76,127
98368,note_off,103,0,0,,4,,,76,127
98370,note_on,2,0,0,,7,,,79,127
98473,note_off,103,0,0,,7,,,79,127
98475,note_on,2,0,0,,6,,,78,127
98578,note_off,103,0,0,,6,,,78,127
98580,note_on,2,0,0,,4,,,76,127
98683,note_off,103,0,0,,4,,,76,127
98683,note_off,0,0,0,,0,,,48,127
98685,note_on,2,0,0,,2,,,50,127
98685,note_on,0,0,0,,2,,,74,127
98788,note_off,103,0,0,,2,,,74,127
98790,note_on,2,0,0,,0,,,72,127
98893,note_off,103,0,0,,0,,,72,127
98895,note_on,2,0,0,,12,,,71,127
98998,note_off,103,0,0,,12,,,71,127
99000,note_on,2,0,0,,10,,,69,127
99103,note_off,103,0,0,,10,,,69,127
99103,note_off,0,0,0,,2,,,50,127
99105,note_on,2,0,0,,7,,,43,127
99105,note_on,0,0,0,,7,,,67,127
99522,note_off,417,0,0,,7,,,67,127
99522,note_off,0,0,0,,7,,,43,127
99524,note_on,2,0,0,,7,,,55,127
99524,note_on,0,0,0,,12,,,59,127
99524,note_on,0,0,0,,2,,,74,127
99627,note_off,103,0,0,,7,,,55,127
99629,note_on,2,0,0,,12,,,47,127
99732,note_off,103,0,0,,12,,,47,127
99734,note_on,2,0,0,,12,,,47,127
99837,note_off,103,0,0,,12,,,47,127
99839,note_on,2,0,0,,7,,,55,127
99939,note_off,100,0,0,,12,,,59,127
99941,note_off,2,0,0,,7,,,55,127
99941,note_off,0,0,0,,2,,,74,127
99943,note_on,2,0,0,,10,,,57,127
99943,note_on,0,0,0,,0,,,60,127
99943,note_on,0,0,0,,4,,,76,127
100046,note_off,103,0,0,,10,,,57,127
100048,note_on,2,0,0,,0,,,48,127
100151,note_off,103,0,0,,0,,,48,127
100153,note_on,2,0,0,,0,,,48,127
100256,note_off,103,0,0,,0,,,48,127
100258,note_on,2,0,0,,10,,,57,127
100358,note_off,100,0,0,,0,,,60,127
100360,note_off,2,0,0,,10,,,57,127
100360,note_off,0,0,0,,4,,,76,127
100362,note_on,2,0,0,,12,,,59,127
100362,note_on,0,0,0,,2,,,62,127
100362,note_on,0,0,0,,6,,,78,127
100465,note_off,103,0,0,,12,,,59,127
100467,note_on,2,0,0,,2,,,50,127
100570,note_off,103,0,0,,2,,,50,127
100572,note_on,2,0,0,,2,,,50,127
100675,note_off,103,0,0,,2,,,50,127
100677,note_on,2,0,0,,12,,,59,127
100777,note_off,100,0,0,,2,,,62,127
100779,note_off,2,0,0,,12,,,59,127
100779,note_off,0,0,0,,6,,,78,127
100781,note_on,2,0,0,,0,,,60,127
100781,note_on,0,0,0,,4,,,64,127
100781,note_on,0,0,0,,7,,,79,127
100884,note_off,103,0,0,,0,,,60,127
100886,note_on,2,0,0,,4,,,52,127
100989,note_off,103,0,0,,4,,,52,127
100991,note_on,2,0,0,,4,,,52,127
101094,note_off,103,0,0,,4,,,52,127
101096,note_on,2,0,0,,0,,,60,127
101196,note_off,100,0,0,,4,,,64,127
101198,note_off,2,0,0,,0,,,60,127
101198,note_off,0,0,0,,7,,,79,127
101200,note_on,2,0,0,,2,,,62,127
101200,note_on,0,0,0,,6,,,66,127
101200,note_on,0,0,0,,10,,,81,127
101303,note_off,103,0,0,,2,,,62,127
101305,note_on,2,0,0,,6,,,54,127
101408,note_off,103,0,0,,6,,,54,127
101410,note_on,2,0,0,,6,,,54,127
101513,note_off,103,0,0,,6,,,54,127
101515,note_on,2,0,0,,2,,,62,127
101615,note_off,100,0,0,,6,,,66,127
101617,note_off,2,0,0,,2,,,62,127
101617,note_off,0,0,0,,10,,,81,127
101619,note_on,2,0,0,,7,,,67,127
101619,note_on,0,0,0,,7,,,55,127
101619,note_on,0,0,0,,12,,,83,127
101722,note_off,103,0,0,,12,,,83,127
101724,note_on,2,0,0,,2,,,86,127
101827,note_off,103,0,0,,2,,,86,127
101829,note_on,2,0,0,,6,,,78,127
101932,note_off,103,0,0,,6,,,78,127
101934,note_on,2,0,0,,10,,,81,127
102037,note_off,103,0,0,,10,,,81,127
102037,note_off,0,0,0,,7,,,55,127
102037,note_off,0,0,0,,7,,,67,127
102039,note_on,2,0,0,,7,,,67,127
102039,note_on,0,0,0,,12,,,59,127
102039,note_on,0,0,0,,7,,,79,127
102142,note_off,103,0,0,,7,,,79,127
102144,note_on,2,0,0,,12,,,83,127
102247,note_off,103,0,0,,12,,,83,127
102249,note_on,2,0,0,,2,,,74,127
102352,note_off,103,0,0,,2,,,74,127
102354,note_on,2,0,0,,6,,,78,127
102457,note_off,103,0,0,,6,,,78,127
102457,note_off,0,0,0,,12,,,59,127
102457,note_off,0,0,0,,7,,,67,127
102459,note_on,2,0,0,,0,,,48,127
102459,note_on,0,0,0,,4,,,76,127
102562,note_off,103,0,0,,4,,,76,127
102564,note_on,2,0,0,,7,,,79,127
102667,note_off,103,0,0,,7,,,79,127
102669,note_on,2,0,0,,6,,,78,127
102772,note_off,103,0,0,,6,,,78,127
102774,note_on,2,0,0,,4,,,76,127
102877,note_off,103,0,0,,4,,,76,127
102877,note_off,0,0,0,,0,,,48,127
102879,note_on,2,0,0,,2,,,50,127
102879,note_on,0,0,0,,2,,,74,127
102982,note_off,103,0,0,,2,,,74,127
102984,note_on,2,0,0,,0,,,72,127
103087,note_off,103,0,0,,0,,,72,127
103089,note_on,2,0,0,,12,,,71,127
103192,note_off,103,0,0,,12,,,71,127
103194,note_on,2,0,0,,10,,,69,127
103297,note_off,103,0,0,,10,,,69,127
103297,note_off,0,0,0,,2,,,50,127
103299,note_on,2,0,0,,7,,,43,127
103299,note_on,0,0,0,,7,,,67,127
103402,note_off,103,0,0,,7,,,67,127
103413,note_on,11,0,0,,7,,,79,127
103516,note_off,103,0,0,,7,,,79,127
103519,note_on,3,0,0,,10,,,81,127
103622,note_off,103,0,0,,10,,,81,127
103625,note_on,3,0,0,,12,,,83,127
103717,note_off,92,0,0,,7,,,43,127
103728,note_off,11,0,0,,12,,,83,127
103731,note_on,3,0,0,,2,,,50,127
103731,note_on,0,0,0,,12,,,83,127
103781,note_off,50,0,0,,12,,,83,127
103783,note_on,2,0,0,,10,,,81,127
103833,note_off,50,0,0,,10,,,81,127
103836,note_on,3,0,0,,12,,,83,127
103886,note_off,50,0,0,,12,,,83,127
103888,note_on,2,0,0,,10,,,81,127
103938,note_off,50,0,0,,10,,,81,127
103941,note_on,3,0,0,,12,,,83,127
103991,note_off,50,0,0,,12,,,83,127
103993,note_on,2,0,0,,10,,,81,127
104043,note_off,50,0,0,,10,,,81,127
104046,note_on,3,0,0,,7,,,79,127
104096,note_off,50,0,0,,7,,,79,127
104098,note_on,2,0,0,,6,,,78,127
104148,note_off,50,0,0,,6,,,78,127
104148,note_off,0,0,0,,2,,,50,127
104151,note_on,3,0,0,,7,,,55,127
104151,note_on,0,0,0,,7,,,79,127
104257,note_on,106,0,0,,7,,,67,127
104360,note_off,103,0,0,,7,,,67,127
104360,note_off,0,0,0,,7,,,79,127
104364,note_on,4,0,0,,10,,,69,127
104467,note_off,103,0,0,,10,,,69,127
104471,note_on,4,0,0,,12,,,71,127
104571,note_off,100,0,0,,7,,,55,127
104573,note_off,2,0,0,,12,,,71,127
104577,note_on,4,0,0,,12,,,71,127
104577,note_on,0,0,0,,2,,,50,127
104627,note_off,50,0,0,,12,,,71,127
104629,note_on,2,0,0,,10,,,69,127
104679,note_off,50,0,0,,10,,,69,127
104683,note_on,4,0,0,,12,,,71,127
104733,note_off,50,0,0,,12,,,71,127
104735,note_on,2,0,0,,10,,,69,127
104785,note_off,50,0,0,,10,,,69,127
104789,note_on,4,0,0,,12,,,71,127
104839,note_off,50,0,0,,12,,,71,127
104841,note_on,2,0,0,,10,,,69,127
104891,note_off,50,0,0,,10,,,69,127
104895,note_on,4,0,0,,7,,,67,127
104945,note_off,50,0,0,,7,,,67,127
104947,note_on,2,0,0,,6,,,66,127
104997,note_off,50,0,0,,6,,,66,127
104997,note_off,0,0,0,,2,,,50,127
105001,note_on,4,0,0,,7,,,67,127
105001,note_on,0,0,0,,7,,,43,127
105107,note_on,106,0,0,,7,,,55,127
105210,note_off,103,0,0,,7,,,55,127
105211,note_off,1,0,0,,7,,,67,127
105215,note_on,4,0,0,,10,,,57,127
105318,note_off,103,0,0,,10,,,57,127
105323,note_on,5,0,0,,12,,,59,127
105424,note_off,101,0,0,,7,,,43,127
105425,note_off,1,0,0,,12,,,59,127
105430,note_on,5,0,0,,2,,,38,127
105430,note_on,0,0,0,,12,,,59,127
105480,note_off,50,0,0,,12,,,59,127
105484,note_on,4,0,0,,10,,,57,127
105534,note_off,50,0,0,,10,,,57,127
105537,note_on,3,0,0,,12,,,59,127
105587,note_off,50,0,0,,12,,,59,127
105591,note_on,4,0,0,,10,,,57,127
105641,note_off,50,0,0,,10,,,57,127
105644,note_on,3,0,0,,12,,,59,127
105694,note_off,50,0,0,,12,,,59,127
105698,note_on,4,0,0,,10,,,57,127
105748,note_off,50,0,0,,10,,,57,127
105751,note_on,3,0,0,,7,,,55,127
105801,note_off,50,0,0,,7,,,55,127
105805,note_on,4,0,0,,6,,,54,127
105853,note_off,48,0,0,,2,,,38,127
105855,note_off,2,0,0,,6,,,54,127
105858,note_on,3,0,0,,7,,,43,127
105858,note_on,0,0,0,,7,,,55,127
107576,note_off,1718,0,0,,7,,,55,127
107576,note_off,0,0,0,,7,,,43,127
110592,end_of_track,3016,1,0,,,,,,
