tick,type,time,meta,track,program,channel,pitch,tempo,note,velocity
0,copyright,0,1,0,,,,,,
0,program_change,0,0,0,6,0,,,,
0,pitchwheel,0,0,0,,0,0,,,
0,program_change,0,0,0,6,1,,,,
0,pitchwheel,0,0,0,,1,-590,,,
0,program_change,0,0,0,6,2,,,,
0,pitchwheel,0,0,0,,2,-272,,,
0,program_change,0,0,0,6,3,,,,
0,pitchwheel,0,0,0,,3,-353,,,
0,program_change,0,0,0,6,4,,,,
0,pitchwheel,0,0,0,,4,-560,,,
0,program_change,0,0,0,6,5,,,,
0,pitchwheel,0,0,0,,5,-80,,,
0,program_change,0,0,0,6,6,,,,
0,pitchwheel,0,0,0,,6,-625,,,
0,program_change,0,0,0,6,7,,,,
0,pitchwheel,0,0,0,,7,-130,,,
0,program_change,0,0,0,6,8,,,,
0,pitchwheel,0,0,0,,8,-512,,,
0,program_change,0,0,0,6,10,,,,
0,pitchwheel,0,0,0,,10,-464,,,
0,program_change,0,0,0,6,11,,,,
0,pitchwheel,0,0,0,,11,-208,,,
0,program_change,0,0,0,6,12,,,,
0,pitchwheel,0,0,0,,12,-553,,,
0,set_tempo,0,1,0,,,,500000,,
184,note_on,184,0,0,,7,,,55,127
366,note_off,182,0,0,,7,,,55,127
368,note_on,2,0,0,,7,,,55,127
550,note_off,182,0,0,,7,,,55,127
552,note_on,2,0,0,,11,,,58,127
734,note_off,182,0,0,,11,,,58,127
736,note_on,2,0,0,,10,,,57,127
918,note_off,182,0,0,,10,,,57,127
920,note_on,2,0,0,,2,,,50,127
1102,note_off,182,0,0,,2,,,50,127
1104,note_on,2,0,0,,7,,,55,127
1104,note_on,0,0,0,,3,,,51,127
1288,note_on,184,0,0,,7,,,67,127
1470,note_off,182,0,0,,7,,,67,127
1470,note_off,0,0,0,,7,,,55,127
1472,note_on,2,0,0,,7,,,67,127
1472,note_on,0,0,0,,0,,,60,127
1654,note_off,182,0,0,,0,,,60,127
1654,note_off,0,0,0,,7,,,67,127
1655,note_off,1,0,0,,3,,,51,127
1656,note_on,1,0,0,,11,,,70,127
1656,note_on,0,0,0,,2,,,62,127
1656,note_on,0,0,0,,2,,,50,127
1838,note_off,182,0,0,,11,,,70,127
1840,note_on,2,0,0,,10,,,69,127
2022,note_off,182,0,0,,10,,,69,127
2022,note_off,0,0,0,,2,,,62,127
2024,note_on,2,0,0,,2,,,62,127
2024,note_on,0,0,0,,0,,,60,127
2206,note_off,182,0,0,,0,,,60,127
2206,note_off,0,0,0,,2,,,62,127
2207,note_off,1,0,0,,2,,,50,127
2208,note_on,1,0,0,,7,,,67,127
2208,note_on,0,0,0,,11,,,58,127
2390,note_off,182,0,0,,11,,,58,127
2390,note_off,0,0,0,,7,,,67,127
2392,note_on,2,0,0,,2,,,74,127
2392,note_on,0,0,0,,7,,,55,127
2574,note_off,182,0,0,,7,,,55,127
2574,note_off,0,0,0,,2,,,74,127
2576,note_on,2,0,0,,2,,,74,127
2576,note_on,0,0,0,,11,,,58,127
2758,note_off,182,0,0,,11,,,58,127
2758,note_off,0,0,0,,2,,,74,127
2760,note_on,2,0,0,,3,,,75,127
2760,note_on,0,0,0,,0,,,60,127
2942,note_off,182,0,0,,3,,,75,127
2944,note_on,2,0,0,,2,,,74,127
3126,note_off,182,0,0,,2,,,74,127
3126,note_off,0,0,0,,0,,,60,127
3128,note_on,2,0,0,,10,,,69,127
3128,note_on,0,0,0,,6,,,54,127
3310,note_off,182,0,0,,6,,,54,127
3310,note_off,0,0,0,,10,,,69,127
3312,note_on,2,0,0,,11,,,70,127
3312,note_on,0,0,0,,7,,,55,127
3494,note_off,182,0,0,,7,,,55,127
3494,note_off,0,0,0,,11,,,70,127
3496,note_on,2,0,0,,10,,,69,127
3496,note_on,0,0,0,,2,,,62,127
3678,note_off,182,0,0,,2,,,62,127
3680,note_on,2,0,0,,2,,,62,127
3860,note_off,180,0,0,,10,,,69,127
3862,note_off,2,0,0,,2,,,62,127
3864,note_on,2,0,0,,5,,,65,127
4046,note_off,182,0,0,,5,,,65,127
4048,note_on,2,0,0,,4,,,64,127
4230,note_off,182,0,0,,4,,,64,127
4232,note_on,2,0,0,,10,,,57,127
4414,note_off,182,0,0,,10,,,57,127
4416,note_on,2,0,0,,2,,,62,127
4416,note_on,0,0,0,,5,,,65,127
4600,note_on,184,0,0,,2,,,74,127
4782,note_off,182,0,0,,2,,,74,127
4782,note_off,0,0,0,,5,,,65,127
4784,note_on,2,0,0,,2,,,74,127
4784,note_on,0,0,0,,7,,,67,127
4966,note_off,182,0,0,,7,,,67,127
4966,note_off,0,0,0,,2,,,74,127
4967,note_off,1,0,0,,2,,,62,127
4968,note_on,1,0,0,,5,,,77,127
4968,note_on,0,0,0,,10,,,69,127
4968,note_on,0,0,0,,10,,,57,127
5150,note_off,182,0,0,,5,,,77,127
5152,note_on,2,0,0,,4,,,76,127
5334,note_off,182,0,0,,4,,,76,127
5334,note_off,0,0,0,,10,,,69,127
5336,note_on,2,0,0,,10,,,69,127
5336,note_on,0,0,0,,7,,,67,127
5518,note_off,182,0,0,,7,,,67,127
5518,note_off,0,0,0,,10,,,69,127
5519,note_off,1,0,0,,10,,,57,127
5520,note_on,1,0,0,,2,,,74,127
5520,note_on,0,0,0,,5,,,65,127
5702,note_off,182,0,0,,5,,,65,127
5702,note_off,0,0,0,,2,,,74,127
5704,note_on,2,0,0,,10,,,81,127
5704,note_on,0,0,0,,2,,,62,127
5886,note_off,182,0,0,,2,,,62,127
5886,note_off,0,0,0,,10,,,81,127
5888,note_on,2,0,0,,10,,,81,127
5888,note_on,0,0,0,,5,,,65,127
6070,note_off,182,0,0,,5,,,65,127
6070,note_off,0,0,0,,10,,,81,127
6072,note_on,2,0,0,,11,,,82,127
6072,note_on,0,0,0,,7,,,67,127
6254,note_off,182,0,0,,11,,,82,127
6256,note_on,2,0,0,,10,,,81,127
6438,note_off,182,0,0,,10,,,81,127
6438,note_off,0,0,0,,7,,,67,127
6440,note_on,2,0,0,,4,,,76,127
6440,note_on,0,0,0,,1,,,61,127
6622,note_off,182,0,0,,1,,,61,127
6622,note_off,0,0,0,,4,,,76,127
6624,note_on,2,0,0,,5,,,77,127
6624,note_on,0,0,0,,2,,,62,127
6806,note_off,182,0,0,,5,,,77,127
6808,note_on,2,0,0,,10,,,81,127
6990,note_off,182,0,0,,10,,,81,127
6990,note_off,0,0,0,,2,,,62,127
6992,note_on,2,0,0,,7,,,79,127
6992,note_on,0,0,0,,11,,,70,127
7174,note_off,182,0,0,,11,,,70,127
7174,note_off,0,0,0,,7,,,79,127
7176,note_on,2,0,0,,5,,,77,127
7176,note_on,0,0,0,,10,,,69,127
7358,note_off,182,0,0,,10,,,69,127
7358,note_off,0,0,0,,5,,,77,127
7360,note_on,2,0,0,,4,,,76,127
7360,note_on,0,0,0,,7,,,67,127
7542,note_off,182,0,0,,7,,,67,127
7542,note_off,0,0,0,,4,,,76,127
7544,note_on,2,0,0,,2,,,74,127
7544,note_on,0,0,0,,5,,,65,127
7726,note_off,182,0,0,,5,,,65,127
7726,note_off,0,0,0,,2,,,74,127
7728,note_on,2,0,0,,1,,,73,127
7728,note_on,0,0,0,,4,,,64,127
7910,note_off,182,0,0,,4,,,64,127
7910,note_off,0,0,0,,1,,,73,127
7912,note_on,2,0,0,,12,,,71,127
7912,note_on,0,0,0,,2,,,74,127
7912,note_on,0,0,0,,2,,,62,127
8094,note_off,182,0,0,,2,,,62,127
8094,note_off,0,0,0,,2,,,74,127
8094,note_off,0,0,0,,12,,,71,127
8096,note_on,2,0,0,,4,,,76,127
8096,note_on,0,0,0,,10,,,69,127
8096,note_on,0,0,0,,1,,,61,127
8278,note_off,182,0,0,,1,,,61,127
8278,note_off,0,0,0,,10,,,69,127
8280,note_on,2,0,0,,7,,,67,127
8280,note_on,0,0,0,,11,,,58,127
8462,note_off,182,0,0,,11,,,58,127
8462,note_off,0,0,0,,7,,,67,127
8464,note_on,2,0,0,,5,,,65,127
8464,note_on,0,0,0,,10,,,57,127
8646,note_off,182,0,0,,10,,,57,127
8646,note_off,0,0,0,,5,,,65,127
8648,note_on,2,0,0,,4,,,64,127
8648,note_on,0,0,0,,1,,,61,127
8830,note_off,182,0,0,,1,,,61,127
8830,note_off,0,0,0,,4,,,64,127
8831,note_off,1,0,0,,4,,,76,127
8832,note_on,1,0,0,,6,,,66,127
8832,note_on,0,0,0,,2,,,50,127
9014,note_off,182,0,0,,2,,,50,127
9014,note_off,0,0,0,,6,,,66,127
9016,note_on,2,0,0,,2,,,74,127
9016,note_on,0,0,0,,2,,,62,127
9198,note_off,182,0,0,,2,,,62,127
9198,note_off,0,0,0,,2,,,74,127
9200,note_on,2,0,0,,0,,,72,127
9200,note_on,0,0,0,,3,,,63,127
9382,note_off,182,0,0,,3,,,63,127
9382,note_off,0,0,0,,0,,,72,127
9384,note_on,2,0,0,,11,,,70,127
9384,note_on,0,0,0,,2,,,62,127
9566,note_off,182,0,0,,2,,,62,127
9566,note_off,0,0,0,,11,,,70,127
9568,note_on,2,0,0,,10,,,69,127
9568,note_on,0,0,0,,0,,,60,127
9750,note_off,182,0,0,,0,,,60,127
9750,note_off,0,0,0,,10,,,69,127
9752,note_on,2,0,0,,7,,,67,127
9752,note_on,0,0,0,,11,,,58,127
9934,note_off,182,0,0,,11,,,58,127
9934,note_off,0,0,0,,7,,,67,127
9936,note_on,2,0,0,,6,,,66,127
9936,note_on,0,0,0,,10,,,57,127
10118,note_off,182,0,0,,10,,,57,127
10118,note_off,0,0,0,,6,,,66,127
10120,note_on,2,0,0,,7,,,67,127
10120,note_on,0,0,0,,3,,,63,127
10120,note_on,0,0,0,,7,,,55,127
10302,note_off,182,0,0,,7,,,55,127
10302,note_off,0,0,0,,3,,,63,127
10302,note_off,0,0,0,,7,,,67,127
10304,note_on,2,0,0,,2,,,62,127
10304,note_on,0,0,0,,10,,,69,127
10304,note_on,0,0,0,,6,,,54,127
10486,note_off,182,0,0,,6,,,54,127
10486,note_off,0,0,0,,2,,,62,127
10488,note_on,2,0,0,,0,,,60,127
10488,note_on,0,0,0,,4,,,52,127
10670,note_off,182,0,0,,4,,,52,127
10670,note_off,0,0,0,,0,,,60,127
10672,note_on,2,0,0,,11,,,58,127
10672,note_on,0,0,0,,2,,,50,127
10854,note_off,182,0,0,,2,,,50,127
10854,note_off,0,0,0,,11,,,58,127
10856,note_on,2,0,0,,10,,,57,127
10856,note_on,0,0,0,,6,,,54,127
11038,note_off,182,0,0,,6,,,54,127
11038,note_off,0,0,0,,10,,,57,127
11039,note_off,1,0,0,,10,,,69,127
11040,note_on,1,0,0,,11,,,58,127
11040,note_on,0,0,0,,7,,,55,127
11222,note_off,182,0,0,,11,,,58,127
11224,note_on,2,0,0,,7,,,67,127
11406,note_off,182,0,0,,7,,,67,127
11408,note_on,2,0,0,,7,,,67,127
11590,note_off,182,0,0,,7,,,67,127
11590,note_off,0,0,0,,7,,,55,127
11592,note_on,2,0,0,,11,,,70,127
11592,note_on,0,0,0,,2,,,50,127
11774,note_off,182,0,0,,11,,,70,127
11776,note_on,2,0,0,,10,,,69,127
11958,note_off,182,0,0,,10,,,69,127
11960,note_on,2,0,0,,2,,,62,127
12142,note_off,182,0,0,,2,,,62,127
12143,note_off,1,0,0,,2,,,50,127
12144,note_on,1,0,0,,7,,,67,127
12326,note_off,182,0,0,,7,,,67,127
12328,note_on,2,0,0,,11,,,70,127
12328,note_on,0,0,0,,7,,,55,127
12510,note_off,182,0,0,,7,,,55,127
12510,note_off,0,0,0,,11,,,70,127
12512,note_on,2,0,0,,2,,,74,127
12512,note_on,0,0,0,,7,,,55,127
12694,note_off,182,0,0,,7,,,55,127
12696,note_on,2,0,0,,2,,,62,127
12696,note_on,0,0,0,,11,,,58,127
12876,note_off,180,0,0,,2,,,74,127
12878,note_off,2,0,0,,11,,,58,127
12880,note_on,2,0,0,,0,,,72,127
12880,note_on,0,0,0,,10,,,57,127
13062,note_off,182,0,0,,10,,,57,127
13064,note_on,2,0,0,,2,,,50,127
13246,note_off,182,0,0,,2,,,50,127
13246,note_off,0,0,0,,0,,,72,127
13247,note_off,1,0,0,,2,,,62,127
13248,note_on,1,0,0,,11,,,70,127
13248,note_on,0,0,0,,7,,,55,127
13430,note_off,182,0,0,,7,,,55,127
13430,note_off,0,0,0,,11,,,70,127
13432,note_on,2,0,0,,2,,,74,127
13432,note_on,0,0,0,,11,,,58,127
13614,note_off,182,0,0,,11,,,58,127
13614,note_off,0,0,0,,2,,,74,127
13616,note_on,2,0,0,,5,,,77,127
13616,note_on,0,0,0,,11,,,58,127
13798,note_off,182,0,0,,11,,,58,127
13800,note_on,2,0,0,,5,,,65,127
13800,note_on,0,0,0,,2,,,62,127
13980,note_off,180,0,0,,5,,,77,127
13982,note_off,2,0,0,,2,,,62,127
13984,note_on,2,0,0,,3,,,75,127
13984,note_on,0,0,0,,0,,,60,127
14166,note_off,182,0,0,,0,,,60,127
14168,note_on,2,0,0,,5,,,53,127
14350,note_off,182,0,0,,5,,,53,127
14350,note_off,0,0,0,,3,,,75,127
14351,note_off,1,0,0,,5,,,65,127
14352,note_on,1,0,0,,2,,,74,127
14352,note_on,0,0,0,,11,,,58,127
14534,note_off,182,0,0,,2,,,74,127
14536,note_on,2,0,0,,11,,,70,127
14718,note_off,182,0,0,,11,,,70,127
14718,note_off,0,0,0,,11,,,58,127
14720,note_on,2,0,0,,11,,,70,127
14720,note_on,0,0,0,,7,,,55,127
14902,note_off,182,0,0,,7,,,55,127
14902,note_off,0,0,0,,11,,,70,127
14904,note_on,2,0,0,,2,,,74,127
14904,note_on,0,0,0,,5,,,53,127
15086,note_off,182,0,0,,2,,,74,127
15088,note_on,2,0,0,,0,,,72,127
15270,note_off,182,0,0,,0,,,72,127
15272,note_on,2,0,0,,10,,,69,127
15272,note_on,0,0,0,,5,,,65,127
15454,note_off,182,0,0,,10,,,69,127
15455,note_off,1,0,0,,5,,,53,127
15456,note_on,1,0,0,,7,,,79,127
15456,note_on,0,0,0,,12,,,71,127
15638,note_off,182,0,0,,12,,,71,127
15638,note_off,0,0,0,,5,,,65,127
15640,note_on,2,0,0,,0,,,72,127
15640,note_on,0,0,0,,3,,,63,127
15820,note_off,180,0,0,,7,,,79,127
15822,note_off,2,0,0,,3,,,63,127
15822,note_off,0,0,0,,0,,,72,127
15824,note_on,2,0,0,,0,,,72,127
15824,note_on,0,0,0,,0,,,60,127
16006,note_off,182,0,0,,0,,,60,127
16006,note_off,0,0,0,,0,,,72,127
16008,note_on,2,0,0,,3,,,75,127
16008,note_on,0,0,0,,7,,,55,127
16190,note_off,182,0,0,,3,,,75,127
16192,note_on,2,0,0,,2,,,74,127
16374,note_off,182,0,0,,2,,,74,127
16376,note_on,2,0,0,,12,,,71,127
16376,note_on,0,0,0,,7,,,67,127
16558,note_off,182,0,0,,12,,,71,127
16559,note_off,1,0,0,,7,,,55,127
16560,note_on,1,0,0,,10,,,81,127
16560,note_on,0,0,0,,1,,,73,127
16742,note_off,182,0,0,,1,,,73,127
16742,note_off,0,0,0,,7,,,67,127
16744,note_on,2,0,0,,2,,,74,127
16744,note_on,0,0,0,,5,,,65,127
16924,note_off,180,0,0,,10,,,81,127
16926,note_off,2,0,0,,5,,,65,127
16926,note_off,0,0,0,,2,,,74,127
16928,note_on,2,0,0,,2,,,74,127
16928,note_on,0,0,0,,2,,,62,127
17110,note_off,182,0,0,,2,,,62,127
17110,note_off,0,0,0,,2,,,74,127
17112,note_on,2,0,0,,5,,,77,127
17112,note_on,0,0,0,,10,,,57,127
17294,note_off,182,0,0,,5,,,77,127
17296,note_on,2,0,0,,4,,,76,127
17478,note_off,182,0,0,,4,,,76,127
17480,note_on,2,0,0,,10,,,69,127
17480,note_on,0,0,0,,7,,,67,127
17662,note_off,182,0,0,,7,,,67,127
17662,note_off,0,0,0,,10,,,69,127
17663,note_off,1,0,0,,10,,,57,127
17664,note_on,1,0,0,,2,,,74,127
17664,note_on,0,0,0,,5,,,65,127
17846,note_off,182,0,0,,5,,,65,127
17846,note_off,0,0,0,,2,,,74,127
17848,note_on,2,0,0,,10,,,81,127
17848,note_on,0,0,0,,2,,,62,127
18030,note_off,182,0,0,,2,,,62,127
18030,note_off,0,0,0,,10,,,81,127
18032,note_on,2,0,0,,7,,,79,127
18032,note_on,0,0,0,,11,,,70,127
18214,note_off,182,0,0,,11,,,70,127
18214,note_off,0,0,0,,7,,,79,127
18216,note_on,2,0,0,,5,,,77,127
18216,note_on,0,0,0,,10,,,69,127
18398,note_off,182,0,0,,10,,,69,127
18398,note_off,0,0,0,,5,,,77,127
18400,note_on,2,0,0,,4,,,76,127
18400,note_on,0,0,0,,7,,,67,127
18582,note_off,182,0,0,,7,,,67,127
18582,note_off,0,0,0,,4,,,76,127
18584,note_on,2,0,0,,2,,,74,127
18584,note_on,0,0,0,,5,,,65,127
18766,note_off,182,0,0,,5,,,65,127
18766,note_off,0,0,0,,2,,,74,127
18768,note_on,2,0,0,,2,,,74,127
18768,note_on,0,0,0,,10,,,57,127
18828,note_off,60,0,0,,2,,,74,127
18829,note_on,1,0,0,,1,,,73,127
18889,note_off,60,0,0,,1,,,73,127
18890,note_on,1,0,0,,2,,,74,127
18950,note_off,60,0,0,,2,,,74,127
18951,note_on,1,0,0,,1,,,73,127
18951,note_on,0,0,0,,10,,,69,127
19131,note_off,180,0,0,,10,,,57,127
19133,note_off,2,0,0,,10,,,69,127
19135,note_on,2,0,0,,11,,,58,127
19135,note_on,0,0,0,,7,,,67,127
19225,note_off,90,0,0,,1,,,73,127
19317,note_off,92,0,0,,7,,,67,127
19317,note_off,0,0,0,,11,,,58,127
19319,note_on,2,0,0,,2,,,74,127
19319,note_on,0,0,0,,5,,,65,127
19319,note_on,0,0,0,,10,,,57,127
19501,note_off,182,0,0,,10,,,57,127
19501,note_off,0,0,0,,5,,,65,127
19501,note_off,0,0,0,,2,,,74,127
19503,note_on,2,0,0,,1,,,73,127
19503,note_on,0,0,0,,4,,,64,127
19503,note_on,0,0,0,,7,,,55,127
19685,note_off,182,0,0,,7,,,55,127
19685,note_off,0,0,0,,4,,,64,127
19685,note_off,0,0,0,,1,,,73,127
19687,note_on,2,0,0,,2,,,74,127
19687,note_on,0,0,0,,2,,,62,127
19687,note_on,0,0,0,,5,,,53,127
19869,note_off,182,0,0,,5,,,53,127
19869,note_off,0,0,0,,2,,,62,127
19869,note_off,0,0,0,,2,,,74,127
19871,note_on,2,0,0,,4,,,76,127
19871,note_on,0,0,0,,1,,,61,127
19871,note_on,0,0,0,,4,,,52,127
20053,note_off,182,0,0,,4,,,52,127
20053,note_off,0,0,0,,1,,,61,127
20053,note_off,0,0,0,,4,,,76,127
20055,note_on,2,0,0,,5,,,77,127
20055,note_on,0,0,0,,2,,,50,127
20055,note_on,0,0,0,,11,,,58,127
20237,note_off,182,0,0,,11,,,58,127
20237,note_off,0,0,0,,2,,,50,127
20237,note_off,0,0,0,,5,,,77,127
20239,note_on,2,0,0,,7,,,79,127
20239,note_on,0,0,0,,10,,,57,127
20239,note_on,0,0,0,,1,,,49,127
20421,note_off,182,0,0,,1,,,49,127
20421,note_off,0,0,0,,10,,,57,127
20421,note_off,0,0,0,,7,,,79,127
20423,note_on,2,0,0,,4,,,76,127
20423,note_on,0,0,0,,7,,,55,127
20423,note_on,0,0,0,,11,,,46,127
20605,note_off,182,0,0,,11,,,46,127
20605,note_off,0,0,0,,7,,,55,127
20605,note_off,0,0,0,,4,,,76,127
20607,note_on,2,0,0,,5,,,77,127
20607,note_on,0,0,0,,10,,,45,127
20607,note_on,0,0,0,,5,,,53,127
20789,note_off,182,0,0,,5,,,53,127
20789,note_off,0,0,0,,10,,,45,127
20789,note_off,0,0,0,,5,,,77,127
20791,note_on,2,0,0,,7,,,79,127
20791,note_on,0,0,0,,7,,,43,127
20791,note_on,0,0,0,,4,,,52,127
20973,note_off,182,0,0,,4,,,52,127
20973,note_off,0,0,0,,7,,,43,127
20973,note_off,0,0,0,,7,,,79,127
20975,note_on,2,0,0,,10,,,81,127
20975,note_on,0,0,0,,5,,,41,127
20975,note_on,0,0,0,,2,,,50,127
21157,note_off,182,0,0,,2,,,50,127
21157,note_off,0,0,0,,5,,,41,127
21159,note_on,2,0,0,,1,,,49,127
21159,note_on,0,0,0,,4,,,40,127
21341,note_off,182,0,0,,10,,,81,127
21343,note_on,2,0,0,,7,,,79,127
21525,note_off,182,0,0,,7,,,79,127
21525,note_off,0,0,0,,4,,,40,127
21525,note_off,0,0,0,,1,,,49,127
21527,note_on,2,0,0,,7,,,79,127
21527,note_on,0,0,0,,2,,,50,127
21527,note_on,0,0,0,,2,,,38,127
21617,note_off,90,0,0,,7,,,79,127
21619,note_on,2,0,0,,5,,,77,127
21709,note_off,90,0,0,,5,,,77,127
21711,note_on,2,0,0,,4,,,76,127
21893,note_off,182,0,0,,4,,,76,127
21895,note_on,2,0,0,,5,,,77,127
22077,note_off,182,0,0,,5,,,77,127
22077,note_off,0,0,0,,2,,,38,127
22077,note_off,0,0,0,,2,,,50,127
22079,note_on,2,0,0,,5,,,77,127
22079,note_on,0,0,0,,7,,,43,127
22261,note_off,182,0,0,,5,,,77,127
22263,note_on,2,0,0,,4,,,76,127
22445,note_off,182,0,0,,4,,,76,127
22447,note_on,2,0,0,,2,,,74,127
22629,note_off,182,0,0,,2,,,74,127
22629,note_off,0,0,0,,7,,,43,127
22631,note_on,2,0,0,,2,,,74,127
22631,note_on,0,0,0,,10,,,45,127
22691,note_off,60,0,0,,2,,,74,127
22692,note_on,1,0,0,,1,,,73,127
22752,note_off,60,0,0,,1,,,73,127
22753,note_on,1,0,0,,2,,,74,127
22813,note_off,60,0,0,,10,,,45,127
22814,note_off,1,0,0,,2,,,74,127
22815,note_on,1,0,0,,1,,,73,127
22815,note_on,0,0,0,,10,,,69,127
22997,note_off,182,0,0,,10,,,69,127
22999,note_on,2,0,0,,7,,,67,127
22999,note_on,0,0,0,,11,,,58,127
23089,note_off,90,0,0,,1,,,73,127
23181,note_off,92,0,0,,11,,,58,127
23181,note_off,0,0,0,,7,,,67,127
23183,note_on,2,0,0,,2,,,74,127
23183,note_on,0,0,0,,10,,,57,127
23183,note_on,0,0,0,,5,,,65,127
23365,note_off,182,0,0,,5,,,65,127
23365,note_off,0,0,0,,10,,,57,127
23365,note_off,0,0,0,,2,,,74,127
23367,note_on,2,0,0,,1,,,73,127
23367,note_on,0,0,0,,4,,,64,127
23367,note_on,0,0,0,,7,,,55,127
23549,note_off,182,0,0,,7,,,55,127
23549,note_off,0,0,0,,4,,,64,127
23549,note_off,0,0,0,,1,,,73,127
23551,note_on,2,0,0,,2,,,74,127
23551,note_on,0,0,0,,2,,,62,127
23551,note_on,0,0,0,,5,,,53,127
23733,note_off,182,0,0,,5,,,53,127
23733,note_off,0,0,0,,2,,,62,127
23733,note_off,0,0,0,,2,,,74,127
23735,note_on,2,0,0,,4,,,76,127
23735,note_on,0,0,0,,1,,,61,127
23735,note_on,0,0,0,,4,,,52,127
23917,note_off,182,0,0,,4,,,52,127
23917,note_off,0,0,0,,1,,,61,127
23917,note_off,0,0,0,,4,,,76,127
23919,note_on,2,0,0,,5,,,77,127
23919,note_on,0,0,0,,11,,,58,127
23919,note_on,0,0,0,,2,,,50,127
24101,note_off,182,0,0,,2,,,50,127
24101,note_off,0,0,0,,11,,,58,127
24101,note_off,0,0,0,,5,,,77,127
24103,note_on,2,0,0,,7,,,79,127
24103,note_on,0,0,0,,10,,,57,127
24103,note_on,0,0,0,,1,,,49,127
24285,note_off,182,0,0,,1,,,49,127
24285,note_off,0,0,0,,10,,,57,127
24285,note_off,0,0,0,,7,,,79,127
24287,note_on,2,0,0,,4,,,76,127
24287,note_on,0,0,0,,11,,,46,127
24287,note_on,0,0,0,,7,,,55,127
24469,note_off,182,0,0,,7,,,55,127
24469,note_off,0,0,0,,11,,,46,127
24469,note_off,0,0,0,,4,,,76,127
24471,note_on,2,0,0,,5,,,77,127
24471,note_on,0,0,0,,10,,,45,127
24471,note_on,0,0,0,,5,,,53,127
24653,note_off,182,0,0,,5,,,53,127
24653,note_off,0,0,0,,10,,,45,127
24653,note_off,0,0,0,,5,,,77,127
24655,note_on,2,0,0,,7,,,79,127
24655,note_on,0,0,0,,7,,,43,127
24655,note_on,0,0,0,,4,,,52,127
24837,note_off,182,0,0,,4,,,52,127
24837,note_off,0,0,0,,7,,,43,127
24837,note_off,0,0,0,,7,,,79,127
24839,note_on,2,0,0,,10,,,81,127
24839,note_on,0,0,0,,2,,,50,127
24839,note_on,0,0,0,,5,,,41,127
25021,note_off,182,0,0,,5,,,41,127
25021,note_off,0,0,0,,2,,,50,127
25023,note_on,2,0,0,,1,,,49,127
25023,note_on,0,0,0,,4,,,40,127
25205,note_off,182,0,0,,10,,,81,127
25207,note_on,2,0,0,,7,,,79,127
25389,note_off,182,0,0,,7,,,79,127
25389,note_off,0,0,0,,4,,,40,127
25389,note_off,0,0,0,,1,,,49,127
25391,note_on,2,0,0,,7,,,79,127
25391,note_on,0,0,0,,2,,,50,127
25391,note_on,0,0,0,,2,,,38,127
25481,note_off,90,0,0,,7,,,79,127
25483,note_on,2,0,0,,5,,,77,127
25573,note_off,90,0,0,,5,,,77,127
25575,note_on,2,0,0,,4,,,76,127
25757,note_off,182,0,0,,4,,,76,127
25757,note_off,0,0,0,,2,,,38,127
25757,note_off,0,0,0,,2,,,50,127
25759,note_on,2,0,0,,2,,,74,127
25759,note_on,0,0,0,,5,,,77,127
25759,note_on,0,0,0,,11,,,58,127
25941,note_off,182,0,0,,11,,,58,127
25941,note_off,0,0,0,,5,,,77,127
25941,note_off,0,0,0,,2,,,74,127
25943,note_on,2,0,0,,4,,,76,127
25943,note_on,0,0,0,,7,,,79,127
25943,note_on,0,0,0,,7,,,55,127
26125,note_off,182,0,0,,7,,,79,127
26125,note_off,0,0,0,,4,,,76,127
26127,note_on,2,0,0,,5,,,77,127
26127,note_on,0,0,0,,2,,,74,127
26309,note_off,182,0,0,,2,,,74,127
26309,note_off,0,0,0,,5,,,77,127
26309,note_off,0,0,0,,7,,,55,127
26311,note_on,2,0,0,,4,,,76,127
26311,note_on,0,0,0,,1,,,73,127
26311,note_on,0,0,0,,10,,,57,127
26493,note_off,182,0,0,,10,,,57,127
26493,note_off,0,0,0,,1,,,73,127
26493,note_off,0,0,0,,4,,,76,127
26495,note_on,2,0,0,,2,,,74,127
26495,note_on,0,0,0,,2,,,50,127
26677,note_off,182,0,0,,2,,,74,127
26679,note_on,2,0,0,,2,,,74,127
26861,note_off,182,0,0,,2,,,74,127
26863,note_on,2,0,0,,2,,,74,127
27045,note_off,182,0,0,,2,,,74,127
27045,note_off,0,0,0,,2,,,50,127
27047,note_on,2,0,0,,5,,,77,127
27047,note_on,0,0,0,,10,,,57,127
27229,note_off,182,0,0,,5,,,77,127
27231,note_on,2,0,0,,4,,,76,127
27413,note_off,182,0,0,,4,,,76,127
27415,note_on,2,0,0,,10,,,69,127
27597,note_off,182,0,0,,10,,,69,127
27598,note_off,1,0,0,,10,,,57,127
27599,note_on,1,0,0,,2,,,74,127
27781,note_off,182,0,0,,2,,,74,127
27783,note_on,2,0,0,,5,,,77,127
27783,note_on,0,0,0,,2,,,62,127
27965,note_off,182,0,0,,2,,,62,127
27965,note_off,0,0,0,,5,,,77,127
27967,note_on,2,0,0,,10,,,81,127
27967,note_on,0,0,0,,2,,,62,127
28149,note_off,182,0,0,,2,,,62,127
28151,note_on,2,0,0,,10,,,69,127
28151,note_on,0,0,0,,5,,,65,127
28331,note_off,180,0,0,,10,,,81,127
28333,note_off,2,0,0,,5,,,65,127
28335,note_on,2,0,0,,7,,,79,127
28335,note_on,0,0,0,,4,,,64,127
28517,note_off,182,0,0,,4,,,64,127
28519,note_on,2,0,0,,10,,,57,127
28701,note_off,182,0,0,,10,,,57,127
28701,note_off,0,0,0,,7,,,79,127
28703,note_on,2,0,0,,5,,,77,127
28703,note_on,0,0,0,,2,,,62,127
28885,note_off,182,0,0,,2,,,62,127
28887,note_on,2,0,0,,2,,,50,127
29069,note_off,182,0,0,,2,,,50,127
29069,note_off,0,0,0,,5,,,77,127
29071,note_on,2,0,0,,2,,,74,127
29071,note_on,0,0,0,,2,,,50,127
29253,note_off,182,0,0,,2,,,50,127
29255,note_off,2,0,0,,10,,,69,127
29255,note_on,0,0,0,,5,,,53,127
29437,note_off,182,0,0,,5,,,53,127
29437,note_off,0,0,0,,2,,,74,127
29439,note_on,2,0,0,,7,,,67,127
29439,note_on,0,0,0,,1,,,73,127
29439,note_on,0,0,0,,4,,,52,127
29621,note_off,182,0,0,,4,,,52,127
29623,note_on,2,0,0,,10,,,45,127
29805,note_off,182,0,0,,10,,,45,127
29805,note_off,0,0,0,,1,,,73,127
29805,note_off,0,0,0,,7,,,67,127
29807,note_on,2,0,0,,2,,,74,127
29807,note_on,0,0,0,,5,,,65,127
29807,note_on,0,0,0,,2,,,50,127
29989,note_off,182,0,0,,5,,,65,127
29989,note_off,0,0,0,,2,,,74,127
29991,note_on,2,0,0,,5,,,77,127
29991,note_on,0,0,0,,2,,,86,127
30173,note_off,182,0,0,,2,,,50,127
30175,note_on,2,0,0,,4,,,52,127
30357,note_off,182,0,0,,4,,,52,127
30359,note_on,2,0,0,,5,,,53,127
30541,note_off,182,0,0,,2,,,86,127
30541,note_off,0,0,0,,5,,,77,127
30543,note_on,2,0,0,,0,,,84,127
30543,note_on,0,0,0,,4,,,76,127
30725,note_off,182,0,0,,4,,,76,127
30725,note_off,0,0,0,,0,,,84,127
30725,note_off,0,0,0,,5,,,53,127
30727,note_on,2,0,0,,2,,,74,127
30727,note_on,0,0,0,,11,,,82,127
30727,note_on,0,0,0,,7,,,55,127
30909,note_off,182,0,0,,7,,,55,127
30909,note_off,0,0,0,,11,,,82,127
30909,note_off,0,0,0,,2,,,74,127
30911,note_on,2,0,0,,1,,,73,127
30911,note_on,0,0,0,,10,,,81,127
30911,note_on,0,0,0,,10,,,57,127
31093,note_off,182,0,0,,10,,,81,127
31093,note_off,0,0,0,,1,,,73,127
31095,note_on,2,0,0,,11,,,70,127
31095,note_on,0,0,0,,7,,,79,127
31277,note_off,182,0,0,,7,,,79,127
31277,note_off,0,0,0,,11,,,70,127
31277,note_off,0,0,0,,10,,,57,127
31279,note_on,2,0,0,,10,,,69,127
31279,note_on,0,0,0,,5,,,77,127
31279,note_on,0,0,0,,11,,,58,127
31461,note_off,182,0,0,,11,,,58,127
31461,note_off,0,0,0,,5,,,77,127
31461,note_off,0,0,0,,10,,,69,127
31463,note_on,2,0,0,,7,,,67,127
31463,note_on,0,0,0,,4,,,76,127
31463,note_on,0,0,0,,7,,,55,127
31645,note_off,182,0,0,,4,,,76,127
31645,note_off,0,0,0,,7,,,67,127
31647,note_on,2,0,0,,2,,,74,127
31647,note_on,0,0,0,,5,,,65,127
31829,note_off,182,0,0,,5,,,65,127
31829,note_off,0,0,0,,2,,,74,127
31829,note_off,0,0,0,,7,,,55,127
31831,note_on,2,0,0,,1,,,73,127
31831,note_on,0,0,0,,4,,,64,127
31831,note_on,0,0,0,,10,,,57,127
32013,note_off,182,0,0,,10,,,57,127
32013,note_off,0,0,0,,4,,,64,127
32013,note_off,0,0,0,,1,,,73,127
32015,note_on,2,0,0,,5,,,65,127
32015,note_on,0,0,0,,2,,,74,127
32015,note_on,0,0,0,,2,,,50,127
32197,note_off,182,0,0,,2,,,74,127
32197,note_off,0,0,0,,5,,,65,127
32199,note_on,2,0,0,,2,,,86,127
32199,note_on,0,0,0,,5,,,77,127
32381,note_off,182,0,0,,2,,,50,127
32383,note_on,2,0,0,,4,,,52,127
32565,note_off,182,0,0,,4,,,52,127
32567,note_on,2,0,0,,5,,,53,127
32749,note_off,182,0,0,,5,,,77,127
32749,note_off,0,0,0,,2,,,86,127
32751,note_on,2,0,0,,4,,,76,127
32751,note_on,0,0,0,,0,,,84,127
32933,note_off,182,0,0,,0,,,84,127
32933,note_off,0,0,0,,4,,,76,127
32933,note_off,0,0,0,,5,,,53,127
32935,note_on,2,0,0,,2,,,74,127
32935,note_on,0,0,0,,11,,,82,127
32935,note_on,0,0,0,,7,,,55,127
33117,note_off,182,0,0,,7,,,55,127
33117,note_off,0,0,0,,11,,,82,127
33117,note_off,0,0,0,,2,,,74,127
33119,note_on,2,0,0,,10,,,81,127
33119,note_on,0,0,0,,1,,,73,127
33119,note_on,0,0,0,,10,,,57,127
33301,note_off,182,0,0,,1,,,73,127
33301,note_off,0,0,0,,10,,,81,127
33303,note_on,2,0,0,,7,,,79,127
33303,note_on,0,0,0,,11,,,70,127
33485,note_off,182,0,0,,11,,,70,127
33485,note_off,0,0,0,,7,,,79,127
33485,note_off,0,0,0,,10,,,57,127
33487,note_on,2,0,0,,10,,,69,127
33487,note_on,0,0,0,,5,,,77,127
33487,note_on,0,0,0,,11,,,58,127
33669,note_off,182,0,0,,11,,,58,127
33669,note_off,0,0,0,,5,,,77,127
33669,note_off,0,0,0,,10,,,69,127
33671,note_on,2,0,0,,7,,,67,127
33671,note_on,0,0,0,,4,,,76,127
33671,note_on,0,0,0,,7,,,55,127
33853,note_off,182,0,0,,4,,,76,127
33853,note_off,0,0,0,,7,,,67,127
33855,note_on,2,0,0,,2,,,74,127
33855,note_on,0,0,0,,5,,,65,127
34037,note_off,182,0,0,,5,,,65,127
34037,note_off,0,0,0,,2,,,74,127
34037,note_off,0,0,0,,7,,,55,127
34039,note_on,2,0,0,,1,,,73,127
34039,note_on,0,0,0,,4,,,64,127
34039,note_on,0,0,0,,10,,,57,127
34221,note_off,182,0,0,,10,,,57,127
34221,note_off,0,0,0,,4,,,64,127
34221,note_off,0,0,0,,1,,,73,127
34223,note_on,2,0,0,,2,,,74,127
34223,note_on,0,0,0,,2,,,50,127
34313,note_off,90,0,0,,2,,,50,127
34315,note_on,2,0,0,,4,,,52,127
34405,note_off,90,0,0,,4,,,52,127
34407,note_on,2,0,0,,2,,,86,127
34407,note_on,0,0,0,,5,,,53,127
34497,note_off,90,0,0,,5,,,53,127
34499,note_on,2,0,0,,7,,,55,127
34587,note_off,88,0,0,,2,,,74,127
34589,note_off,2,0,0,,7,,,55,127
34589,note_off,0,0,0,,2,,,86,127
34591,note_on,2,0,0,,1,,,73,127
34591,note_on,0,0,0,,5,,,77,127
34591,note_on,0,0,0,,10,,,57,127
34635,note_off,44,0,0,,5,,,77,127
34637,note_on,2,0,0,,4,,,76,127
34681,note_off,44,0,0,,4,,,76,127
34681,note_off,0,0,0,,10,,,57,127
34683,note_on,2,0,0,,2,,,74,127
34683,note_on,0,0,0,,10,,,45,127
34727,note_off,44,0,0,,2,,,74,127
34729,note_on,2,0,0,,4,,,76,127
34773,note_off,44,0,0,,4,,,76,127
34773,note_off,0,0,0,,10,,,45,127
34773,note_off,0,0,0,,1,,,73,127
34775,note_on,2,0,0,,2,,,74,127
34775,note_on,0,0,0,,2,,,50,127
34865,note_off,90,0,0,,2,,,50,127
34867,note_on,2,0,0,,4,,,52,127
34957,note_off,90,0,0,,4,,,52,127
34959,note_on,2,0,0,,2,,,86,127
34959,note_on,0,0,0,,5,,,53,127
35049,note_off,90,0,0,,5,,,53,127
35051,note_on,2,0,0,,7,,,55,127
35139,note_off,88,0,0,,2,,,74,127
35141,note_off,2,0,0,,7,,,55,127
35141,note_off,0,0,0,,2,,,86,127
35143,note_on,2,0,0,,1,,,61,127
35143,note_on,0,0,0,,5,,,65,127
35143,note_on,0,0,0,,10,,,57,127
35187,note_off,44,0,0,,5,,,65,127
35189,note_on,2,0,0,,4,,,64,127
35233,note_off,44,0,0,,4,,,64,127
35233,note_off,0,0,0,,10,,,57,127
35235,note_on,2,0,0,,2,,,62,127
35235,note_on,0,0,0,,10,,,45,127
35279,note_off,44,0,0,,2,,,62,127
35281,note_on,2,0,0,,4,,,64,127
35325,note_off,44,0,0,,4,,,64,127
35325,note_off,0,0,0,,10,,,45,127
35325,note_off,0,0,0,,1,,,61,127
35327,note_on,2,0,0,,2,,,62,127
35327,note_on,0,0,0,,2,,,50,127
35417,note_off,90,0,0,,2,,,50,127
35419,note_on,2,0,0,,4,,,52,127
35509,note_off,90,0,0,,4,,,52,127
35509,note_off,0,0,0,,2,,,62,127
35511,note_on,2,0,0,,2,,,86,127
35511,note_on,0,0,0,,2,,,74,127
35511,note_on,0,0,0,,5,,,53,127
35601,note_off,90,0,0,,5,,,53,127
35603,note_on,2,0,0,,7,,,55,127
35693,note_off,90,0,0,,7,,,55,127
35693,note_off,0,0,0,,2,,,74,127
35693,note_off,0,0,0,,2,,,86,127
35695,note_on,2,0,0,,5,,,77,127
35695,note_on,0,0,0,,1,,,73,127
35695,note_on,0,0,0,,10,,,57,127
35739,note_off,44,0,0,,5,,,77,127
35741,note_on,2,0,0,,4,,,76,127
35785,note_off,44,0,0,,4,,,76,127
35785,note_off,0,0,0,,10,,,57,127
35787,note_on,2,0,0,,2,,,74,127
35787,note_on,0,0,0,,10,,,45,127
35831,note_off,44,0,0,,2,,,74,127
35833,note_on,2,0,0,,4,,,76,127
35877,note_off,44,0,0,,4,,,76,127
35877,note_off,0,0,0,,10,,,45,127
35877,note_off,0,0,0,,1,,,73,127
35879,note_on,2,0,0,,2,,,74,127
35879,note_on,0,0,0,,2,,,50,127
35969,note_off,90,0,0,,2,,,50,127
35971,note_on,2,0,0,,4,,,52,127
36061,note_off,90,0,0,,4,,,52,127
36063,note_on,2,0,0,,2,,,86,127
36063,note_on,0,0,0,,5,,,53,127
36153,note_off,90,0,0,,5,,,53,127
36155,note_on,2,0,0,,7,,,55,127
36243,note_off,88,0,0,,2,,,74,127
36245,note_off,2,0,0,,7,,,55,127
36245,note_off,0,0,0,,2,,,86,127
36247,note_on,2,0,0,,1,,,61,127
36247,note_on,0,0,0,,5,,,65,127
36247,note_on,0,0,0,,10,,,57,127
36291,note_off,44,0,0,,5,,,65,127
36293,note_on,2,0,0,,4,,,64,127
36337,note_off,44,0,0,,4,,,64,127
36337,note_off,0,0,0,,10,,,57,127
36339,note_on,2,0,0,,2,,,62,127
36339,note_on,0,0,0,,10,,,45,127
36383,note_off,44,0,0,,2,,,62,127
36385,note_on,2,0,0,,4,,,64,127
36429,note_off,44,0,0,,4,,,64,127
36429,note_off,0,0,0,,10,,,45,127
36429,note_off,0,0,0,,1,,,61,127
36431,note_on,2,0,0,,2,,,62,127
36431,note_on,0,0,0,,2,,,50,127
36796,note_off,365,0,0,,2,,,62,127
36983,note_off,187,0,0,,2,,,50,127
36984,note_on,1,0,0,,2,,,50,127
37168,note_on,184,0,0,,2,,,62,127
37348,note_off,180,0,0,,2,,,50,127
37350,note_off,2,0,0,,2,,,62,127
37352,note_on,2,0,0,,2,,,50,127
37352,note_on,0,0,0,,2,,,62,127
37534,note_off,182,0,0,,2,,,62,127
37534,note_off,0,0,0,,2,,,50,127
37536,note_on,2,0,0,,3,,,51,127
37536,note_on,0,0,0,,0,,,60,127
37718,note_off,182,0,0,,0,,,60,127
37720,note_on,2,0,0,,11,,,58,127
37900,note_off,180,0,0,,3,,,51,127
37902,note_off,2,0,0,,11,,,58,127
37904,note_on,2,0,0,,10,,,57,127
37904,note_on,0,0,0,,6,,,54,127
38086,note_off,182,0,0,,6,,,54,127
38086,note_off,0,0,0,,10,,,57,127
38088,note_on,2,0,0,,7,,,55,127
38088,note_on,0,0,0,,11,,,58,127
38270,note_off,182,0,0,,11,,,58,127
38270,note_off,0,0,0,,7,,,55,127
38272,note_on,2,0,0,,10,,,57,127
38272,note_on,0,0,0,,6,,,54,127
38454,note_off,182,0,0,,6,,,54,127
38454,note_off,0,0,0,,10,,,57,127
38456,note_on,2,0,0,,7,,,55,127
38456,note_on,0,0,0,,11,,,58,127
38638,note_off,182,0,0,,11,,,58,127
38638,note_off,0,0,0,,7,,,55,127
38640,note_on,2,0,0,,0,,,60,127
38640,note_on,0,0,0,,10,,,57,127
38822,note_off,182,0,0,,10,,,57,127
38824,note_on,2,0,0,,6,,,54,127
39004,note_off,180,0,0,,0,,,60,127
39006,note_off,2,0,0,,6,,,54,127
39008,note_on,2,0,0,,11,,,58,127
39008,note_on,0,0,0,,7,,,55,127
39190,note_off,182,0,0,,7,,,55,127
39190,note_off,0,0,0,,11,,,58,127
39192,note_on,2,0,0,,10,,,57,127
39192,note_on,0,0,0,,2,,,50,127
39376,note_on,184,0,0,,2,,,74,127
39558,note_off,182,0,0,,2,,,74,127
39558,note_off,0,0,0,,2,,,50,127
39558,note_off,0,0,0,,10,,,57,127
39560,note_on,2,0,0,,2,,,74,127
39560,note_on,0,0,0,,2,,,62,127
39560,note_on,0,0,0,,11,,,46,127
39742,note_off,182,0,0,,11,,,46,127
39742,note_off,0,0,0,,2,,,62,127
39742,note_off,0,0,0,,2,,,74,127
39744,note_on,2,0,0,,0,,,72,127
39744,note_on,0,0,0,,3,,,63,127
39744,note_on,0,0,0,,0,,,48,127
39926,note_off,182,0,0,,0,,,72,127
39928,note_on,2,0,0,,11,,,70,127
40108,note_off,180,0,0,,3,,,63,127
40110,note_off,2,0,0,,11,,,70,127
40110,note_off,0,0,0,,0,,,48,127
40112,note_on,2,0,0,,6,,,66,127
40112,note_on,0,0,0,,10,,,69,127
40112,note_on,0,0,0,,2,,,50,127
40294,note_off,182,0,0,,2,,,50,127
40294,note_off,0,0,0,,10,,,69,127
40294,note_off,0,0,0,,6,,,66,127
40296,note_on,2,0,0,,11,,,70,127
40296,note_on,0,0,0,,7,,,67,127
40296,note_on,0,0,0,,3,,,51,127
40478,note_off,182,0,0,,7,,,67,127
40478,note_off,0,0,0,,11,,,70,127
40480,note_on,2,0,0,,10,,,69,127
40480,note_on,0,0,0,,6,,,66,127
40662,note_off,182,0,0,,6,,,66,127
40662,note_off,0,0,0,,10,,,69,127
40662,note_off,0,0,0,,3,,,51,127
40664,note_on,2,0,0,,7,,,67,127
40664,note_on,0,0,0,,11,,,70,127
40664,note_on,0,0,0,,2,,,50,127
40846,note_off,182,0,0,,2,,,50,127
40846,note_off,0,0,0,,11,,,70,127
40846,note_off,0,0,0,,7,,,67,127
40848,note_on,2,0,0,,10,,,69,127
40848,note_on,0,0,0,,0,,,72,127
40848,note_on,0,0,0,,0,,,48,127
41030,note_off,182,0,0,,0,,,72,127
41030,note_off,0,0,0,,10,,,69,127
41032,note_on,2,0,0,,11,,,70,127
41032,note_on,0,0,0,,7,,,67,127
41214,note_off,182,0,0,,7,,,67,127
41214,note_off,0,0,0,,11,,,70,127
41214,note_off,0,0,0,,0,,,48,127
41216,note_on,2,0,0,,6,,,66,127
41216,note_on,0,0,0,,10,,,69,127
41216,note_on,0,0,0,,2,,,50,127
41398,note_off,182,0,0,,2,,,50,127
41398,note_off,0,0,0,,10,,,69,127
41398,note_off,0,0,0,,6,,,66,127
41400,note_on,2,0,0,,7,,,67,127
41400,note_on,0,0,0,,7,,,43,127
41582,note_off,182,0,0,,7,,,43,127
41584,note_on,2,0,0,,0,,,60,127
41766,note_off,182,0,0,,0,,,60,127
41768,note_on,2,0,0,,0,,,60,127
41950,note_off,182,0,0,,0,,,60,127
41952,note_on,2,0,0,,3,,,63,127
42134,note_off,182,0,0,,3,,,63,127
42134,note_off,0,0,0,,7,,,67,127
42136,note_on,2,0,0,,2,,,62,127
42318,note_off,182,0,0,,2,,,62,127
42320,note_on,2,0,0,,7,,,55,127
42502,note_off,182,0,0,,7,,,55,127
42504,note_on,2,0,0,,0,,,60,127
42688,note_on,184,0,0,,0,,,72,127
42870,note_off,182,0,0,,0,,,72,127
42872,note_on,2,0,0,,0,,,72,127
43054,note_off,182,0,0,,0,,,72,127
43054,note_off,0,0,0,,0,,,60,127
43056,note_on,2,0,0,,3,,,75,127
43056,note_on,0,0,0,,7,,,55,127
43238,note_off,182,0,0,,3,,,75,127
43240,note_on,2,0,0,,2,,,74,127
43422,note_off,182,0,0,,2,,,74,127
43424,note_on,2,0,0,,7,,,67,127
43606,note_off,182,0,0,,7,,,67,127
43606,note_off,0,0,0,,7,,,55,127
43608,note_on,2,0,0,,0,,,72,127
43608,note_on,0,0,0,,0,,,48,127
43790,note_off,182,0,0,,0,,,48,127
43792,note_on,2,0,0,,5,,,65,127
43974,note_off,182,0,0,,5,,,65,127
43976,note_on,2,0,0,,5,,,65,127
44158,note_off,182,0,0,,5,,,65,127
44160,note_on,2,0,0,,8,,,68,127
44342,note_off,182,0,0,,8,,,68,127
44342,note_off,0,0,0,,0,,,72,127
44344,note_on,2,0,0,,0,,,72,127
44344,note_on,0,0,0,,7,,,67,127
44526,note_off,182,0,0,,7,,,67,127
44528,note_on,2,0,0,,0,,,60,127
44710,note_off,182,0,0,,0,,,60,127
44710,note_off,0,0,0,,0,,,72,127
44712,note_on,2,0,0,,10,,,69,127
44712,note_on,0,0,0,,5,,,65,127
44894,note_off,182,0,0,,10,,,69,127
44896,note_on,2,0,0,,5,,,77,127
45078,note_off,182,0,0,,5,,,77,127
45080,note_on,2,0,0,,5,,,77,127
45262,note_off,182,0,0,,5,,,77,127
45262,note_off,0,0,0,,5,,,65,127
45264,note_on,2,0,0,,10,,,81,127
45264,note_on,0,0,0,,0,,,60,127
45446,note_off,182,0,0,,10,,,81,127
45448,note_on,2,0,0,,7,,,79,127
45630,note_off,182,0,0,,7,,,79,127
45630,note_off,0,0,0,,0,,,60,127
45632,note_on,2,0,0,,4,,,76,127
45632,note_on,0,0,0,,1,,,61,127
45814,note_off,182,0,0,,1,,,61,127
45814,note_off,0,0,0,,4,,,76,127
45816,note_on,2,0,0,,5,,,77,127
45816,note_on,0,0,0,,2,,,62,127
45998,note_off,182,0,0,,5,,,77,127
46000,note_on,2,0,0,,2,,,74,127
46182,note_off,182,0,0,,2,,,74,127
46182,note_off,0,0,0,,2,,,62,127
46184,note_on,2,0,0,,2,,,74,127
46184,note_on,0,0,0,,11,,,58,127
46366,note_off,182,0,0,,11,,,58,127
46366,note_off,0,0,0,,2,,,74,127
46368,note_on,2,0,0,,5,,,77,127
46368,note_on,0,0,0,,7,,,55,127
46550,note_off,182,0,0,,5,,,77,127
46552,note_on,2,0,0,,4,,,76,127
46734,note_off,182,0,0,,4,,,76,127
46734,note_off,0,0,0,,7,,,55,127
46736,note_on,2,0,0,,1,,,73,127
46736,note_on,0,0,0,,10,,,57,127
46918,note_off,182,0,0,,10,,,57,127
46918,note_off,0,0,0,,1,,,73,127
46920,note_on,2,0,0,,2,,,74,127
46920,note_on,0,0,0,,2,,,50,127
47102,note_off,182,0,0,,2,,,50,127
47102,note_off,0,0,0,,2,,,74,127
47104,note_on,2,0,0,,2,,,86,127
47104,note_on,0,0,0,,2,,,62,127
47286,note_off,182,0,0,,2,,,62,127
47286,note_off,0,0,0,,2,,,86,127
47288,note_on,2,0,0,,0,,,84,127
47288,note_on,0,0,0,,3,,,63,127
47470,note_off,182,0,0,,3,,,63,127
47470,note_off,0,0,0,,0,,,84,127
47472,note_on,2,0,0,,11,,,82,127
47472,note_on,0,0,0,,2,,,62,127
47654,note_off,182,0,0,,2,,,62,127
47654,note_off,0,0,0,,11,,,82,127
47656,note_on,2,0,0,,10,,,81,127
47656,note_on,0,0,0,,0,,,60,127
47838,note_off,182,0,0,,0,,,60,127
47838,note_off,0,0,0,,10,,,81,127
47840,note_on,2,0,0,,7,,,79,127
47840,note_on,0,0,0,,3,,,63,127
48022,note_off,182,0,0,,3,,,63,127
48022,note_off,0,0,0,,7,,,79,127
48024,note_on,2,0,0,,6,,,78,127
48024,note_on,0,0,0,,2,,,62,127
48208,note_on,184,0,0,,2,,,74,127
48300,note_off,92,0,0,,6,,,78,127
48388,note_off,88,0,0,,2,,,62,127
48390,note_off,2,0,0,,2,,,74,127
48392,note_on,2,0,0,,3,,,63,127
48392,note_on,0,0,0,,0,,,72,127
48574,note_off,182,0,0,,0,,,72,127
48574,note_off,0,0,0,,3,,,63,127
48576,note_on,2,0,0,,7,,,79,127
48576,note_on,0,0,0,,11,,,70,127
48576,note_on,0,0,0,,2,,,62,127
48758,note_off,182,0,0,,2,,,62,127
48758,note_off,0,0,0,,11,,,70,127
48758,note_off,0,0,0,,7,,,79,127
48760,note_on,2,0,0,,6,,,78,127
48760,note_on,0,0,0,,10,,,69,127
48760,note_on,0,0,0,,0,,,60,127
48942,note_off,182,0,0,,0,,,60,127
48942,note_off,0,0,0,,10,,,69,127
48942,note_off,0,0,0,,6,,,78,127
48944,note_on,2,0,0,,7,,,79,127
48944,note_on,0,0,0,,11,,,58,127
48944,note_on,0,0,0,,7,,,67,127
49126,note_off,182,0,0,,7,,,67,127
49126,note_off,0,0,0,,11,,,58,127
49126,note_off,0,0,0,,7,,,79,127
49128,note_on,2,0,0,,10,,,81,127
49128,note_on,0,0,0,,6,,,66,127
49128,note_on,0,0,0,,10,,,57,127
49310,note_off,182,0,0,,10,,,57,127
49310,note_off,0,0,0,,6,,,66,127
49310,note_off,0,0,0,,10,,,81,127
49312,note_on,2,0,0,,11,,,82,127
49312,note_on,0,0,0,,3,,,63,127
49312,note_on,0,0,0,,7,,,55,127
49494,note_off,182,0,0,,7,,,55,127
49494,note_off,0,0,0,,3,,,63,127
49494,note_off,0,0,0,,11,,,82,127
49496,note_on,2,0,0,,0,,,84,127
49496,note_on,0,0,0,,2,,,62,127
49496,note_on,0,0,0,,6,,,54,127
49678,note_off,182,0,0,,6,,,54,127
49678,note_off,0,0,0,,2,,,62,127
49678,note_off,0,0,0,,0,,,84,127
49680,note_on,2,0,0,,10,,,81,127
49680,note_on,0,0,0,,3,,,51,127
49680,note_on,0,0,0,,0,,,60,127
49862,note_off,182,0,0,,0,,,60,127
49862,note_off,0,0,0,,3,,,51,127
49862,note_off,0,0,0,,10,,,81,127
49864,note_on,2,0,0,,11,,,82,127
49864,note_on,0,0,0,,2,,,50,127
49864,note_on,0,0,0,,11,,,58,127
50046,note_off,182,0,0,,11,,,58,127
50046,note_off,0,0,0,,2,,,50,127
50046,note_off,0,0,0,,11,,,82,127
50048,note_on,2,0,0,,0,,,84,127
50048,note_on,0,0,0,,10,,,57,127
50048,note_on,0,0,0,,0,,,48,127
50230,note_off,182,0,0,,0,,,48,127
50230,note_off,0,0,0,,10,,,57,127
50230,note_off,0,0,0,,0,,,84,127
50232,note_on,2,0,0,,2,,,86,127
50232,note_on,0,0,0,,7,,,55,127
50232,note_on,0,0,0,,11,,,46,127
50414,note_off,182,0,0,,11,,,46,127
50414,note_off,0,0,0,,7,,,55,127
50416,note_on,2,0,0,,10,,,45,127
50416,note_on,0,0,0,,6,,,54,127
50598,note_off,182,0,0,,2,,,86,127
50600,note_on,2,0,0,,0,,,84,127
50782,note_off,182,0,0,,0,,,84,127
50782,note_off,0,0,0,,6,,,54,127
50782,note_off,0,0,0,,10,,,45,127
50784,note_on,2,0,0,,0,,,84,127
50784,note_on,0,0,0,,7,,,55,127
50784,note_on,0,0,0,,7,,,43,127
50874,note_off,90,0,0,,0,,,84,127
50876,note_on,2,0,0,,11,,,82,127
50966,note_off,90,0,0,,11,,,82,127
50968,note_on,2,0,0,,10,,,81,127
51150,note_off,182,0,0,,10,,,81,127
51152,note_on,2,0,0,,11,,,82,127
51334,note_off,182,0,0,,11,,,82,127
51334,note_off,0,0,0,,7,,,43,127
51334,note_off,0,0,0,,7,,,55,127
51336,note_on,2,0,0,,11,,,82,127
51336,note_on,0,0,0,,0,,,48,127
51518,note_off,182,0,0,,11,,,82,127
51520,note_on,2,0,0,,10,,,81,127
51702,note_off,182,0,0,,10,,,81,127
51702,note_off,0,0,0,,0,,,48,127
51704,note_on,2,0,0,,7,,,79,127
51704,note_on,0,0,0,,0,,,60,127
51886,note_off,182,0,0,,0,,,60,127
51886,note_off,0,0,0,,7,,,79,127
51888,note_on,2,0,0,,6,,,78,127
51888,note_on,0,0,0,,2,,,62,127
52072,note_on,184,0,0,,2,,,74,127
52164,note_off,92,0,0,,6,,,78,127
52252,note_off,88,0,0,,2,,,62,127
52254,note_off,2,0,0,,2,,,74,127
52256,note_on,2,0,0,,3,,,63,127
52256,note_on,0,0,0,,0,,,72,127
52438,note_off,182,0,0,,0,,,72,127
52438,note_off,0,0,0,,3,,,63,127
52440,note_on,2,0,0,,7,,,79,127
52440,note_on,0,0,0,,11,,,70,127
52440,note_on,0,0,0,,2,,,62,127
52622,note_off,182,0,0,,2,,,62,127
52622,note_off,0,0,0,,11,,,70,127
52622,note_off,0,0,0,,7,,,79,127
52624,note_on,2,0,0,,6,,,78,127
52624,note_on,0,0,0,,10,,,69,127
52624,note_on,0,0,0,,0,,,60,127
52806,note_off,182,0,0,,0,,,60,127
52806,note_off,0,0,0,,10,,,69,127
52806,note_off,0,0,0,,6,,,78,127
52808,note_on,2,0,0,,7,,,79,127
52808,note_on,0,0,0,,11,,,58,127
52808,note_on,0,0,0,,7,,,67,127
52990,note_off,182,0,0,,7,,,67,127
52990,note_off,0,0,0,,11,,,58,127
52990,note_off,0,0,0,,7,,,79,127
52992,note_on,2,0,0,,10,,,81,127
52992,note_on,0,0,0,,6,,,66,127
52992,note_on,0,0,0,,10,,,57,127
53174,note_off,182,0,0,,10,,,57,127
53174,note_off,0,0,0,,6,,,66,127
53174,note_off,0,0,0,,10,,,81,127
53176,note_on,2,0,0,,11,,,82,127
53176,note_on,0,0,0,,3,,,63,127
53176,note_on,0,0,0,,7,,,55,127
53358,note_off,182,0,0,,7,,,55,127
53358,note_off,0,0,0,,3,,,63,127
53358,note_off,0,0,0,,11,,,82,127
53360,note_on,2,0,0,,0,,,84,127
53360,note_on,0,0,0,,2,,,62,127
53360,note_on,0,0,0,,6,,,54,127
53542,note_off,182,0,0,,6,,,54,127
53542,note_off,0,0,0,,2,,,62,127
53542,note_off,0,0,0,,0,,,84,127
53544,note_on,2,0,0,,10,,,81,127
53544,note_on,0,0,0,,0,,,60,127
53544,note_on,0,0,0,,3,,,51,127
53726,note_off,182,0,0,,3,,,51,127
53726,note_off,0,0,0,,0,,,60,127
53726,note_off,0,0,0,,10,,,81,127
53728,note_on,2,0,0,,11,,,82,127
53728,note_on,0,0,0,,11,,,58,127
53728,note_on,0,0,0,,2,,,50,127
53910,note_off,182,0,0,,2,,,50,127
53910,note_off,0,0,0,,11,,,58,127
53910,note_off,0,0,0,,11,,,82,127
53912,note_on,2,0,0,,0,,,84,127
53912,note_on,0,0,0,,10,,,57,127
53912,note_on,0,0,0,,0,,,48,127
54094,note_off,182,0,0,,0,,,48,127
54094,note_off,0,0,0,,10,,,57,127
54094,note_off,0,0,0,,0,,,84,127
54096,note_on,2,0,0,,2,,,86,127
54096,note_on,0,0,0,,7,,,55,127
54096,note_on,0,0,0,,11,,,46,127
54278,note_off,182,0,0,,11,,,46,127
54278,note_off,0,0,0,,7,,,55,127
54280,note_on,2,0,0,,10,,,45,127
54280,note_on,0,0,0,,6,,,54,127
54462,note_off,182,0,0,,2,,,86,127
54464,note_on,2,0,0,,0,,,84,127
54646,note_off,182,0,0,,0,,,84,127
54646,note_off,0,0,0,,6,,,54,127
54646,note_off,0,0,0,,10,,,45,127
54648,note_on,2,0,0,,0,,,84,127
54648,note_on,0,0,0,,7,,,55,127
54648,note_on,0,0,0,,7,,,43,127
54738,note_off,90,0,0,,0,,,84,127
54740,note_on,2,0,0,,11,,,82,127
54830,note_off,90,0,0,,11,,,82,127
54832,note_on,2,0,0,,10,,,81,127
55014,note_off,182,0,0,,10,,,81,127
55014,note_off,0,0,0,,7,,,43,127
55014,note_off,0,0,0,,7,,,55,127
55016,note_on,2,0,0,,11,,,82,127
55016,note_on,0,0,0,,7,,,79,127
55016,note_on,0,0,0,,3,,,51,127
55198,note_off,182,0,0,,3,,,51,127
55198,note_off,0,0,0,,7,,,79,127
55198,note_off,0,0,0,,11,,,82,127
55200,note_on,2,0,0,,10,,,81,127
55200,note_on,0,0,0,,0,,,84,127
55200,note_on,0,0,0,,0,,,48,127
55382,note_off,182,0,0,,0,,,84,127
55382,note_off,0,0,0,,10,,,81,127
55384,note_on,2,0,0,,11,,,82,127
55384,note_on,0,0,0,,7,,,79,127
55566,note_off,182,0,0,,7,,,79,127
55566,note_off,0,0,0,,11,,,82,127
55566,note_off,0,0,0,,0,,,48,127
55568,note_on,2,0,0,,6,,,78,127
55568,note_on,0,0,0,,10,,,81,127
55568,note_on,0,0,0,,2,,,50,127
55750,note_off,182,0,0,,2,,,50,127
55750,note_off,0,0,0,,10,,,81,127
55750,note_off,0,0,0,,6,,,78,127
55752,note_on,2,0,0,,7,,,79,127
55752,note_on,0,0,0,,7,,,43,127
55934,note_off,182,0,0,,7,,,79,127
55936,note_on,2,0,0,,7,,,79,127
56118,note_off,182,0,0,,7,,,79,127
56120,note_on,2,0,0,,7,,,79,127
56302,note_off,182,0,0,,7,,,79,127
56302,note_off,0,0,0,,7,,,43,127
56304,note_on,2,0,0,,11,,,82,127
56304,note_on,0,0,0,,2,,,50,127
56486,note_off,182,0,0,,11,,,82,127
56488,note_on,2,0,0,,10,,,81,127
56670,note_off,182,0,0,,10,,,81,127
56672,note_on,2,0,0,,2,,,74,127
56854,note_off,182,0,0,,2,,,74,127
56855,note_off,1,0,0,,2,,,50,127
56856,note_on,1,0,0,,7,,,79,127
57040,note_on,184,0,0,,7,,,67,127
57222,note_off,182,0,0,,7,,,67,127
57224,note_on,2,0,0,,7,,,67,127
57406,note_off,182,0,0,,7,,,67,127
57406,note_off,0,0,0,,7,,,79,127
57408,note_on,2,0,0,,2,,,74,127
57408,note_on,0,0,0,,11,,,70,127
57590,note_off,182,0,0,,11,,,70,127
57590,note_off,0,0,0,,2,,,74,127
57592,note_on,2,0,0,,2,,,74,127
57592,note_on,0,0,0,,10,,,69,127
57682,note_off,90,0,0,,2,,,74,127
57684,note_on,2,0,0,,0,,,72,127
57774,note_off,90,0,0,,0,,,72,127
57774,note_off,0,0,0,,10,,,69,127
57776,note_on,2,0,0,,2,,,74,127
57776,note_on,0,0,0,,2,,,62,127
57866,note_off,90,0,0,,2,,,74,127
57868,note_on,2,0,0,,0,,,72,127
57958,note_off,90,0,0,,0,,,72,127
57958,note_off,0,0,0,,2,,,62,127
57960,note_on,2,0,0,,11,,,70,127
57960,note_on,0,0,0,,7,,,67,127
58142,note_off,182,0,0,,7,,,67,127
58144,note_on,2,0,0,,7,,,55,127
58326,note_off,182,0,0,,7,,,55,127
58326,note_off,0,0,0,,11,,,70,127
58328,note_on,2,0,0,,2,,,74,127
58328,note_on,0,0,0,,7,,,55,127
58510,note_off,182,0,0,,7,,,55,127
58512,note_on,2,0,0,,2,,,62,127
58512,note_on,0,0,0,,11,,,58,127
58692,note_off,180,0,0,,2,,,74,127
58694,note_off,2,0,0,,11,,,58,127
58696,note_on,2,0,0,,0,,,72,127
58696,note_on,0,0,0,,10,,,57,127
58878,note_off,182,0,0,,10,,,57,127
58880,note_on,2,0,0,,2,,,50,127
59062,note_off,182,0,0,,2,,,50,127
59062,note_off,0,0,0,,0,,,72,127
59063,note_off,1,0,0,,2,,,62,127
59064,note_on,1,0,0,,11,,,70,127
59064,note_on,0,0,0,,7,,,43,127
59246,note_off,182,0,0,,7,,,43,127
59246,note_off,0,0,0,,11,,,70,127
59248,note_on,2,0,0,,7,,,79,127
59248,note_on,0,0,0,,11,,,70,127
59248,note_on,0,0,0,,7,,,55,127
59430,note_off,182,0,0,,7,,,55,127
59432,note_on,2,0,0,,10,,,57,127
59614,note_off,182,0,0,,10,,,57,127
59616,note_on,2,0,0,,11,,,58,127
59798,note_off,182,0,0,,11,,,70,127
59798,note_off,0,0,0,,7,,,79,127
59800,note_on,2,0,0,,10,,,69,127
59800,note_on,0,0,0,,5,,,77,127
59982,note_off,182,0,0,,5,,,77,127
59982,note_off,0,0,0,,10,,,69,127
59982,note_off,0,0,0,,11,,,58,127
59984,note_on,2,0,0,,3,,,75,127
59984,note_on,0,0,0,,7,,,67,127
59984,note_on,0,0,0,,0,,,60,127
60166,note_off,182,0,0,,0,,,60,127
60166,note_off,0,0,0,,7,,,67,127
60166,note_off,0,0,0,,3,,,75,127
60168,note_on,2,0,0,,6,,,66,127
60168,note_on,0,0,0,,2,,,74,127
60168,note_on,0,0,0,,2,,,62,127
60350,note_off,182,0,0,,2,,,74,127
60352,note_on,2,0,0,,0,,,72,127
60532,note_off,180,0,0,,6,,,66,127
60534,note_off,2,0,0,,0,,,72,127
60534,note_off,0,0,0,,2,,,62,127
60536,note_on,2,0,0,,7,,,67,127
60536,note_on,0,0,0,,11,,,70,127
60536,note_on,0,0,0,,3,,,63,127
60718,note_off,182,0,0,,3,,,63,127
60718,note_off,0,0,0,,11,,,70,127
60718,note_off,0,0,0,,7,,,67,127
60720,note_on,2,0,0,,0,,,72,127
60720,note_on,0,0,0,,10,,,69,127
60720,note_on,0,0,0,,0,,,60,127
60902,note_off,182,0,0,,10,,,69,127
60902,note_off,0,0,0,,0,,,72,127
60904,note_on,2,0,0,,7,,,67,127
60904,note_on,0,0,0,,11,,,70,127
61086,note_off,182,0,0,,11,,,70,127
61086,note_off,0,0,0,,7,,,67,127
61086,note_off,0,0,0,,0,,,60,127
61088,note_on,2,0,0,,6,,,66,127
61088,note_on,0,0,0,,10,,,69,127
61088,note_on,0,0,0,,2,,,62,127
61270,note_off,182,0,0,,2,,,62,127
61270,note_off,0,0,0,,10,,,69,127
61270,note_off,0,0,0,,6,,,66,127
61272,note_on,2,0,0,,7,,,67,127
61272,note_on,0,0,0,,7,,,55,127
61454,note_off,182,0,0,,7,,,55,127
61454,note_off,0,0,0,,7,,,67,127
61456,note_on,2,0,0,,7,,,79,127
61456,note_on,0,0,0,,11,,,70,127
61456,note_on,0,0,0,,7,,,43,127
61638,note_off,182,0,0,,7,,,43,127
61640,note_on,2,0,0,,10,,,45,127
61822,note_off,182,0,0,,10,,,45,127
61824,note_on,2,0,0,,11,,,46,127
62006,note_off,182,0,0,,11,,,70,127
62006,note_off,0,0,0,,7,,,79,127
62008,note_on,2,0,0,,10,,,69,127
62008,note_on,0,0,0,,5,,,77,127
62190,note_off,182,0,0,,5,,,77,127
62190,note_off,0,0,0,,10,,,69,127
62190,note_off,0,0,0,,11,,,46,127
62192,note_on,2,0,0,,3,,,75,127
62192,note_on,0,0,0,,7,,,67,127
62192,note_on,0,0,0,,0,,,48,127
62374,note_off,182,0,0,,0,,,48,127
62374,note_off,0,0,0,,7,,,67,127
62374,note_off,0,0,0,,3,,,75,127
62376,note_on,2,0,0,,6,,,66,127
62376,note_on,0,0,0,,2,,,74,127
62376,note_on,0,0,0,,2,,,50,127
62558,note_off,182,0,0,,2,,,74,127
62560,note_on,2,0,0,,0,,,72,127
62740,note_off,180,0,0,,6,,,66,127
62742,note_off,2,0,0,,0,,,72,127
62742,note_off,0,0,0,,2,,,50,127
62744,note_on,2,0,0,,11,,,70,127
62744,note_on,0,0,0,,7,,,67,127
62744,note_on,0,0,0,,3,,,51,127
62926,note_off,182,0,0,,3,,,51,127
62926,note_off,0,0,0,,7,,,67,127
62926,note_off,0,0,0,,11,,,70,127
62928,note_on,2,0,0,,0,,,72,127
62928,note_on,0,0,0,,10,,,69,127
62928,note_on,0,0,0,,0,,,48,127
63110,note_off,182,0,0,,10,,,69,127
63110,note_off,0,0,0,,0,,,72,127
63112,note_on,2,0,0,,7,,,67,127
63112,note_on,0,0,0,,11,,,70,127
63294,note_off,182,0,0,,11,,,70,127
63294,note_off,0,0,0,,7,,,67,127
63294,note_off,0,0,0,,0,,,48,127
63296,note_on,2,0,0,,10,,,69,127
63296,note_on,0,0,0,,6,,,66,127
63296,note_on,0,0,0,,2,,,50,127
63478,note_off,182,0,0,,2,,,50,127
63478,note_off,0,0,0,,6,,,66,127
63478,note_off,0,0,0,,10,,,69,127
63480,note_on,2,0,0,,7,,,67,127
63480,note_on,0,0,0,,7,,,55,127
63570,note_off,90,0,0,,7,,,55,127
63572,note_on,2,0,0,,10,,,57,127
63662,note_off,90,0,0,,10,,,57,127
63664,note_on,2,0,0,,7,,,79,127
63664,note_on,0,0,0,,11,,,58,127
63754,note_off,90,0,0,,11,,,58,127
63756,note_on,2,0,0,,0,,,60,127
63844,note_off,88,0,0,,7,,,67,127
63846,note_off,2,0,0,,0,,,60,127
63846,note_off,0,0,0,,7,,,79,127
63848,note_on,2,0,0,,11,,,70,127
63848,note_on,0,0,0,,6,,,66,127
63848,note_on,0,0,0,,2,,,62,127
63892,note_off,44,0,0,,11,,,70,127
63894,note_on,2,0,0,,10,,,69,127
63938,note_off,44,0,0,,10,,,69,127
63940,note_on,2,0,0,,7,,,67,127
63940,note_on,0,0,0,,2,,,50,127
63984,note_off,44,0,0,,7,,,67,127
63986,note_on,2,0,0,,10,,,69,127
64030,note_off,44,0,0,,10,,,69,127
64030,note_off,0,0,0,,2,,,50,127
64030,note_off,0,0,0,,2,,,62,127
64030,note_off,0,0,0,,6,,,66,127
64032,note_on,2,0,0,,7,,,67,127
64032,note_on,0,0,0,,7,,,55,127
64122,note_off,90,0,0,,7,,,55,127
64124,note_on,2,0,0,,10,,,57,127
64214,note_off,90,0,0,,10,,,57,127
64216,note_on,2,0,0,,7,,,79,127
64216,note_on,0,0,0,,11,,,58,127
64306,note_off,90,0,0,,11,,,58,127
64308,note_on,2,0,0,,0,,,60,127
64396,note_off,88,0,0,,7,,,67,127
64398,note_off,2,0,0,,0,,,60,127
64398,note_off,0,0,0,,7,,,79,127
64400,note_on,2,0,0,,6,,,66,127
64400,note_on,0,0,0,,11,,,70,127
64400,note_on,0,0,0,,2,,,62,127
64444,note_off,44,0,0,,11,,,70,127
64446,note_on,2,0,0,,10,,,69,127
64490,note_off,44,0,0,,10,,,69,127
64492,note_on,2,0,0,,7,,,67,127
64492,note_on,0,0,0,,2,,,50,127
64536,note_off,44,0,0,,7,,,67,127
64538,note_on,2,0,0,,10,,,69,127
64582,note_off,44,0,0,,10,,,69,127
64582,note_off,0,0,0,,2,,,50,127
64582,note_off,0,0,0,,2,,,62,127
64582,note_off,0,0,0,,6,,,66,127
64584,note_on,2,0,0,,7,,,67,127
64584,note_on,0,0,0,,7,,,55,127
64766,note_off,182,0,0,,7,,,67,127
64768,note_on,2,0,0,,2,,,74,127
64950,note_off,182,0,0,,7,,,55,127
64952,note_on,2,0,0,,2,,,62,127
64952,note_on,0,0,0,,11,,,46,127
65132,note_off,180,0,0,,2,,,74,127
65134,note_off,2,0,0,,11,,,46,127
65134,note_off,0,0,0,,2,,,62,127
65136,note_on,2,0,0,,3,,,63,127
65136,note_on,0,0,0,,0,,,72,127
65136,note_on,0,0,0,,0,,,48,127
65318,note_off,182,0,0,,0,,,48,127
65318,note_off,0,0,0,,0,,,72,127
65318,note_off,0,0,0,,3,,,63,127
65322,note_on,4,0,0,,2,,,50,127
65322,note_on,0,0,0,,7,,,67,127
65322,note_on,0,0,0,,11,,,70,127
65382,note_off,60,0,0,,11,,,70,127
65382,note_off,0,0,0,,7,,,67,127
65384,note_on,2,0,0,,6,,,66,127
65384,note_on,0,0,0,,10,,,69,127
65444,note_off,60,0,0,,10,,,69,127
65444,note_off,0,0,0,,6,,,66,127
65447,note_on,3,0,0,,7,,,67,127
65447,note_on,0,0,0,,11,,,70,127
65507,note_off,60,0,0,,11,,,70,127
65507,note_off,0,0,0,,7,,,67,127
65509,note_on,2,0,0,,2,,,38,127
65509,note_on,0,0,0,,6,,,66,127
65509,note_on,0,0,0,,10,,,69,127
65569,note_off,60,0,0,,10,,,69,127
65569,note_off,0,0,0,,6,,,66,127
65571,note_on,2,0,0,,4,,,64,127
65571,note_on,0,0,0,,7,,,67,127
65631,note_off,60,0,0,,7,,,67,127
65631,note_off,0,0,0,,4,,,64,127
65633,note_on,2,0,0,,6,,,66,127
65633,note_on,0,0,0,,10,,,69,127
65692,note_off,59,0,0,,2,,,50,127
65694,note_off,2,0,0,,10,,,69,127
65694,note_off,0,0,0,,6,,,66,127
65694,note_off,0,0,0,,2,,,38,127
65697,note_on,3,0,0,,7,,,43,127
65697,note_on,0,0,0,,7,,,67,127
65882,note_off,185,0,0,,7,,,67,127
65882,note_off,0,0,0,,7,,,43,127
65886,note_on,4,0,0,,2,,,74,127
65886,note_on,0,0,0,,10,,,45,127
66072,note_off,186,0,0,,10,,,45,127
66077,note_on,5,0,0,,2,,,62,127
66077,note_on,0,0,0,,11,,,46,127
66260,note_off,183,0,0,,2,,,74,127
66263,note_off,3,0,0,,11,,,46,127
66263,note_off,0,0,0,,2,,,62,127
66269,note_on,6,0,0,,3,,,63,127
66269,note_on,0,0,0,,0,,,72,127
66269,note_on,0,0,0,,0,,,48,127
66455,note_off,186,0,0,,0,,,48,127
66455,note_off,0,0,0,,0,,,72,127
66455,note_off,0,0,0,,3,,,63,127
66467,note_on,12,0,0,,2,,,50,127
66467,note_on,0,0,0,,7,,,67,127
66467,note_on,0,0,0,,11,,,70,127
66530,note_off,63,0,0,,11,,,70,127
66530,note_off,0,0,0,,7,,,67,127
66536,note_on,6,0,0,,6,,,66,127
66536,note_on,0,0,0,,10,,,69,127
66599,note_off,63,0,0,,10,,,69,127
66599,note_off,0,0,0,,6,,,66,127
66603,note_on,4,0,0,,7,,,67,127
66603,note_on,0,0,0,,11,,,70,127
66666,note_off,63,0,0,,11,,,70,127
66666,note_off,0,0,0,,7,,,67,127
66671,note_on,5,0,0,,2,,,38,127
66671,note_on,0,0,0,,6,,,66,127
66671,note_on,0,0,0,,10,,,69,127
66734,note_off,63,0,0,,10,,,69,127
66734,note_off,0,0,0,,6,,,66,127
66739,note_on,5,0,0,,4,,,64,127
66739,note_on,0,0,0,,7,,,67,127
66802,note_off,63,0,0,,7,,,67,127
66802,note_off,0,0,0,,4,,,64,127
66806,note_on,4,0,0,,6,,,66,127
66806,note_on,0,0,0,,10,,,69,127
66860,note_off,54,0,0,,2,,,50,127
66867,note_off,7,0,0,,2,,,38,127
66876,note_off,9,0,0,,6,,,66,127
66884,note_off,8,0,0,,10,,,69,127
66894,note_on,10,0,0,,7,,,43,127
66894,note_on,0,0,0,,7,,,67,127
68910,note_off,2016,0,0,,7,,,67,127
68910,note_off,0,0,0,,7,,,43,127
72192,end_of_track,3282,1,0,,,,,,
