tick,type,time,meta,track,program,channel,pitch,tempo,note,velocity
0,copyright,0,1,0,,,,,,
0,program_change,0,0,0,6,0,,,,
0,pitchwheel,0,0,0,,0,0,,,
0,program_change,0,0,0,6,1,,,,
0,pitchwheel,0,0,0,,1,-590,,,
0,program_change,0,0,0,6,2,,,,
0,pitchwheel,0,0,0,,2,-272,,,
0,program_change,0,0,0,6,3,,,,
0,pitchwheel,0,0,0,,3,-353,,,
0,program_change,0,0,0,6,4,,,,
0,pitchwheel,0,0,0,,4,-560,,,
0,program_change,0,0,0,6,5,,,,
0,pitchwheel,0,0,0,,5,-80,,,
0,program_change,0,0,0,6,6,,,,
0,pitchwheel,0,0,0,,6,-625,,,
0,program_change,0,0,0,6,7,,,,
0,pitchwheel,0,0,0,,7,-130,,,
0,program_change,0,0,0,6,8,,,,
0,pitchwheel,0,0,0,,8,-512,,,
0,program_change,0,0,0,6,10,,,,
0,pitchwheel,0,0,0,,10,-464,,,
0,program_change,0,0,0,6,11,,,,
0,pitchwheel,0,0,0,,11,-208,,,
0,program_change,0,0,0,6,12,,,,
0,pitchwheel,0,0,0,,12,-553,,,
0,set_tempo,0,1,0,,,,500000,,
115,note_on,115,0,0,,5,,,77,127
344,note_off,229,0,0,,5,,,77,127
345,note_on,1,0,0,,4,,,76,127
459,note_off,114,0,0,,4,,,76,127
460,note_on,1,0,0,,5,,,77,127
574,note_off,114,0,0,,5,,,77,127
575,note_on,1,0,0,,0,,,72,127
804,note_off,229,0,0,,0,,,72,127
805,note_on,1,0,0,,0,,,72,127
1034,note_off,229,0,0,,0,,,72,127
1035,note_on,1,0,0,,0,,,72,127
1264,note_off,229,0,0,,0,,,72,127
1265,note_on,1,0,0,,5,,,65,127
1494,note_off,229,0,0,,5,,,65,127
1495,note_on,1,0,0,,0,,,72,127
1724,note_off,229,0,0,,0,,,72,127
1725,note_on,1,0,0,,2,,,74,127
1954,note_off,229,0,0,,2,,,74,127
1955,note_on,1,0,0,,0,,,72,127
2184,note_off,229,0,0,,0,,,72,127
2185,note_on,1,0,0,,5,,,65,127
2414,note_off,229,0,0,,5,,,65,127
2415,note_on,1,0,0,,0,,,72,127
2644,note_off,229,0,0,,0,,,72,127
2645,note_on,1,0,0,,2,,,74,127
2874,note_off,229,0,0,,2,,,74,127
2875,note_on,1,0,0,,0,,,60,127
2875,note_on,0,0,0,,2,,,74,127
2912,note_off,37,0,0,,2,,,74,127
2913,note_on,1,0,0,,0,,,72,127
2950,note_off,37,0,0,,0,,,72,127
2951,note_on,1,0,0,,2,,,74,127
2988,note_off,37,0,0,,2,,,74,127
2989,note_on,1,0,0,,0,,,72,127
3103,note_off,114,0,0,,0,,,60,127
3104,note_on,1,0,0,,12,,,59,127
3218,note_off,114,0,0,,12,,,59,127
3219,note_on,1,0,0,,0,,,60,127
3333,note_off,114,0,0,,0,,,60,127
3334,note_on,1,0,0,,5,,,53,127
3563,note_off,229,0,0,,5,,,53,127
3564,note_on,1,0,0,,5,,,53,127
3793,note_off,229,0,0,,5,,,53,127
3794,note_on,1,0,0,,5,,,53,127
3908,note_off,114,0,0,,0,,,72,127
4023,note_off,115,0,0,,5,,,53,127
4024,note_on,1,0,0,,0,,,48,127
4024,note_on,0,0,0,,0,,,72,127
4080,note_off,56,0,0,,0,,,72,127
4081,note_on,1,0,0,,11,,,70,127
4137,note_off,56,0,0,,11,,,70,127
4138,note_on,1,0,0,,0,,,72,127
4194,note_off,56,0,0,,0,,,72,127
4195,note_on,1,0,0,,11,,,70,127
4251,note_off,56,0,0,,11,,,70,127
4251,note_off,0,0,0,,0,,,48,127
4252,note_on,1,0,0,,5,,,53,127
4252,note_on,0,0,0,,10,,,69,127
4481,note_off,229,0,0,,5,,,53,127
4482,note_on,1,0,0,,7,,,55,127
4708,note_off,226,0,0,,10,,,69,127
4712,note_off,4,0,0,,7,,,55,127
4713,note_on,1,0,0,,5,,,53,127
4942,note_off,229,0,0,,5,,,53,127
4943,note_on,1,0,0,,0,,,48,127
4943,note_on,0,0,0,,0,,,72,127
4999,note_off,56,0,0,,0,,,72,127
5000,note_on,1,0,0,,11,,,70,127
5056,note_off,56,0,0,,11,,,70,127
5057,note_on,1,0,0,,0,,,72,127
5113,note_off,56,0,0,,0,,,72,127
5114,note_on,1,0,0,,11,,,70,127
5170,note_off,56,0,0,,11,,,70,127
5170,note_off,0,0,0,,0,,,48,127
5171,note_on,1,0,0,,5,,,53,127
5171,note_on,0,0,0,,10,,,69,127
5400,note_off,229,0,0,,10,,,69,127
5400,note_off,0,0,0,,5,,,53,127
5401,note_on,1,0,0,,7,,,55,127
5401,note_on,0,0,0,,11,,,70,127
5630,note_off,229,0,0,,11,,,70,127
5630,note_off,0,0,0,,7,,,55,127
5631,note_on,1,0,0,,5,,,53,127
5631,note_on,0,0,0,,10,,,69,127
5860,note_off,229,0,0,,5,,,53,127
5861,note_on,1,0,0,,5,,,65,127
5975,note_off,114,0,0,,5,,,65,127
5976,note_on,1,0,0,,4,,,64,127
6090,note_off,114,0,0,,4,,,64,127
6090,note_off,0,0,0,,10,,,69,127
6091,note_on,1,0,0,,5,,,65,127
6091,note_on,0,0,0,,10,,,81,127
6205,note_off,114,0,0,,5,,,65,127
6206,note_on,1,0,0,,0,,,60,127
6320,note_off,114,0,0,,0,,,60,127
6321,note_on,1,0,0,,10,,,57,127
6435,note_off,114,0,0,,10,,,57,127
6436,note_on,1,0,0,,5,,,53,127
6550,note_off,114,0,0,,5,,,53,127
6551,note_on,1,0,0,,0,,,48,127
6780,note_off,229,0,0,,10,,,81,127
6781,note_on,1,0,0,,7,,,79,127
6895,note_off,114,0,0,,7,,,79,127
6896,note_on,1,0,0,,5,,,77,127
7010,note_off,114,0,0,,5,,,77,127
7011,note_on,1,0,0,,7,,,79,127
7125,note_off,114,0,0,,7,,,79,127
7126,note_on,1,0,0,,4,,,76,127
7240,note_off,114,0,0,,4,,,76,127
7240,note_off,0,0,0,,0,,,48,127
7241,note_on,1,0,0,,11,,,70,127
7355,note_off,114,0,0,,11,,,70,127
7356,note_on,1,0,0,,7,,,67,127
7470,note_off,114,0,0,,7,,,67,127
7471,note_on,1,0,0,,5,,,53,127
7471,note_on,0,0,0,,10,,,69,127
7700,note_off,229,0,0,,5,,,53,127
7701,note_on,1,0,0,,5,,,65,127
7815,note_off,114,0,0,,5,,,65,127
7816,note_on,1,0,0,,4,,,64,127
7930,note_off,114,0,0,,4,,,64,127
7930,note_off,0,0,0,,10,,,69,127
7931,note_on,1,0,0,,5,,,65,127
7931,note_on,0,0,0,,10,,,81,127
8045,note_off,114,0,0,,5,,,65,127
8046,note_on,1,0,0,,0,,,60,127
8160,note_off,114,0,0,,0,,,60,127
8161,note_on,1,0,0,,10,,,57,127
8275,note_off,114,0,0,,10,,,57,127
8276,note_on,1,0,0,,5,,,53,127
8390,note_off,114,0,0,,5,,,53,127
8391,note_on,1,0,0,,0,,,48,127
8620,note_off,229,0,0,,10,,,81,127
8621,note_on,1,0,0,,7,,,79,127
8735,note_off,114,0,0,,7,,,79,127
8736,note_on,1,0,0,,5,,,77,127
8850,note_off,114,0,0,,5,,,77,127
8851,note_on,1,0,0,,7,,,79,127
8965,note_off,114,0,0,,7,,,79,127
8966,note_on,1,0,0,,4,,,76,127
9080,note_off,114,0,0,,4,,,76,127
9081,note_on,1,0,0,,11,,,70,127
9195,note_off,114,0,0,,11,,,70,127
9196,note_on,1,0,0,,7,,,67,127
9310,note_off,114,0,0,,7,,,67,127
9310,note_off,0,0,0,,0,,,48,127
9311,note_on,1,0,0,,5,,,53,127
9311,note_on,0,0,0,,10,,,69,127
9425,note_off,114,0,0,,10,,,69,127
9426,note_on,1,0,0,,0,,,72,127
9540,note_off,114,0,0,,0,,,72,127
9541,note_on,1,0,0,,12,,,71,127
9655,note_off,114,0,0,,12,,,71,127
9656,note_on,1,0,0,,2,,,74,127
9770,note_off,114,0,0,,2,,,74,127
9771,note_on,1,0,0,,2,,,74,127
9771,note_on,0,0,0,,0,,,72,127
9885,note_off,114,0,0,,0,,,72,127
9885,note_off,0,0,0,,2,,,74,127
9886,note_on,1,0,0,,12,,,71,127
10000,note_off,114,0,0,,12,,,71,127
10001,note_on,1,0,0,,12,,,71,127
10115,note_off,114,0,0,,12,,,71,127
10116,note_on,1,0,0,,10,,,69,127
10230,note_off,114,0,0,,10,,,69,127
10230,note_off,0,0,0,,5,,,53,127
10231,note_on,1,0,0,,5,,,65,127
10231,note_on,0,0,0,,12,,,71,127
10345,note_off,114,0,0,,12,,,71,127
10346,note_on,1,0,0,,2,,,74,127
10460,note_off,114,0,0,,2,,,74,127
10461,note_on,1,0,0,,0,,,72,127
10575,note_off,114,0,0,,0,,,72,127
10576,note_on,1,0,0,,4,,,76,127
10690,note_off,114,0,0,,4,,,76,127
10691,note_on,1,0,0,,4,,,76,127
10691,note_on,0,0,0,,2,,,74,127
10805,note_off,114,0,0,,2,,,74,127
10805,note_off,0,0,0,,4,,,76,127
10806,note_on,1,0,0,,0,,,72,127
10920,note_off,114,0,0,,0,,,72,127
10921,note_on,1,0,0,,0,,,72,127
11035,note_off,114,0,0,,0,,,72,127
11036,note_on,1,0,0,,12,,,71,127
11150,note_off,114,0,0,,12,,,71,127
11150,note_off,0,0,0,,5,,,65,127
11151,note_on,1,0,0,,4,,,64,127
11151,note_on,0,0,0,,0,,,72,127
11265,note_off,114,0,0,,0,,,72,127
11266,note_on,1,0,0,,4,,,76,127
11380,note_off,114,0,0,,4,,,76,127
11381,note_on,1,0,0,,2,,,74,127
11495,note_off,114,0,0,,2,,,74,127
11496,note_on,1,0,0,,5,,,77,127
11610,note_off,114,0,0,,5,,,77,127
11611,note_on,1,0,0,,5,,,77,127
11611,note_on,0,0,0,,4,,,76,127
11725,note_off,114,0,0,,4,,,76,127
11725,note_off,0,0,0,,5,,,77,127
11726,note_on,1,0,0,,2,,,74,127
11840,note_off,114,0,0,,2,,,74,127
11841,note_on,1,0,0,,2,,,74,127
11955,note_off,114,0,0,,2,,,74,127
11956,note_on,1,0,0,,1,,,73,127
12070,note_off,114,0,0,,1,,,73,127
12070,note_off,0,0,0,,4,,,64,127
12071,note_on,1,0,0,,7,,,67,127
12071,note_on,0,0,0,,1,,,73,127
12185,note_off,114,0,0,,1,,,73,127
12186,note_on,1,0,0,,4,,,76,127
12300,note_off,114,0,0,,4,,,76,127
12301,note_on,1,0,0,,2,,,74,127
12415,note_off,114,0,0,,2,,,74,127
12416,note_on,1,0,0,,5,,,77,127
12530,note_off,114,0,0,,5,,,77,127
12531,note_on,1,0,0,,5,,,77,127
12531,note_on,0,0,0,,4,,,76,127
12645,note_off,114,0,0,,4,,,76,127
12645,note_off,0,0,0,,5,,,77,127
12646,note_on,1,0,0,,2,,,74,127
12760,note_off,114,0,0,,2,,,74,127
12761,note_on,1,0,0,,2,,,74,127
12875,note_off,114,0,0,,2,,,74,127
12876,note_on,1,0,0,,1,,,73,127
12990,note_off,114,0,0,,1,,,73,127
12990,note_off,0,0,0,,7,,,67,127
12991,note_on,1,0,0,,5,,,65,127
12991,note_on,0,0,0,,2,,,74,127
13105,note_off,114,0,0,,2,,,74,127
13106,note_on,1,0,0,,5,,,77,127
13220,note_off,114,0,0,,5,,,77,127
13221,note_on,1,0,0,,4,,,76,127
13335,note_off,114,0,0,,4,,,76,127
13336,note_on,1,0,0,,7,,,79,127
13450,note_off,114,0,0,,7,,,79,127
13451,note_on,1,0,0,,7,,,79,127
13451,note_on,0,0,0,,5,,,77,127
13565,note_off,114,0,0,,5,,,77,127
13565,note_off,0,0,0,,7,,,79,127
13566,note_on,1,0,0,,4,,,76,127
13680,note_off,114,0,0,,4,,,76,127
13681,note_on,1,0,0,,4,,,76,127
13795,note_off,114,0,0,,4,,,76,127
13796,note_on,1,0,0,,2,,,74,127
13910,note_off,114,0,0,,2,,,74,127
13910,note_off,0,0,0,,5,,,65,127
13911,note_on,1,0,0,,1,,,61,127
13911,note_on,0,0,0,,4,,,76,127
14025,note_off,114,0,0,,4,,,76,127
14026,note_on,1,0,0,,7,,,79,127
14140,note_off,114,0,0,,7,,,79,127
14141,note_on,1,0,0,,5,,,77,127
14255,note_off,114,0,0,,5,,,77,127
14256,note_on,1,0,0,,10,,,81,127
14370,note_off,114,0,0,,10,,,81,127
14371,note_on,1,0,0,,10,,,81,127
14371,note_on,0,0,0,,7,,,79,127
14485,note_off,114,0,0,,7,,,79,127
14485,note_off,0,0,0,,10,,,81,127
14486,note_on,1,0,0,,5,,,77,127
14600,note_off,114,0,0,,5,,,77,127
14601,note_on,1,0,0,,5,,,77,127
14715,note_off,114,0,0,,5,,,77,127
14716,note_on,1,0,0,,4,,,76,127
14830,note_off,114,0,0,,4,,,76,127
14830,note_off,0,0,0,,1,,,61,127
14831,note_on,1,0,0,,2,,,62,127
14831,note_on,0,0,0,,5,,,77,127
14945,note_off,114,0,0,,5,,,77,127
14946,note_on,1,0,0,,2,,,74,127
15060,note_off,114,0,0,,2,,,74,127
15061,note_on,1,0,0,,5,,,77,127
15175,note_off,114,0,0,,5,,,77,127
15176,note_on,1,0,0,,10,,,81,127
15290,note_off,114,0,0,,10,,,81,127
15291,note_on,1,0,0,,2,,,86,127
15405,note_off,114,0,0,,2,,,86,127
15406,note_on,1,0,0,,11,,,82,127
15520,note_off,114,0,0,,11,,,82,127
15521,note_on,1,0,0,,0,,,84,127
15635,note_off,114,0,0,,0,,,84,127
15636,note_on,1,0,0,,10,,,81,127
15750,note_off,114,0,0,,10,,,81,127
15750,note_off,0,0,0,,2,,,62,127
15751,note_on,1,0,0,,7,,,67,127
15751,note_on,0,0,0,,11,,,82,127
15827,note_off,76,0,0,,11,,,82,127
15828,note_on,1,0,0,,10,,,81,127
15904,note_off,76,0,0,,10,,,81,127
15905,note_on,1,0,0,,7,,,79,127
15981,note_off,76,0,0,,7,,,79,127
15982,note_on,1,0,0,,10,,,81,127
16058,note_off,76,0,0,,10,,,81,127
16059,note_on,1,0,0,,7,,,79,127
16135,note_off,76,0,0,,7,,,79,127
16136,note_on,1,0,0,,5,,,77,127
16212,note_off,76,0,0,,5,,,77,127
16212,note_off,0,0,0,,7,,,67,127
16213,note_on,1,0,0,,7,,,55,127
16213,note_on,0,0,0,,7,,,79,127
16289,note_off,76,0,0,,7,,,79,127
16290,note_on,1,0,0,,5,,,77,127
16366,note_off,76,0,0,,5,,,77,127
16367,note_on,1,0,0,,4,,,76,127
16443,note_off,76,0,0,,4,,,76,127
16444,note_on,1,0,0,,5,,,77,127
16520,note_off,76,0,0,,5,,,77,127
16521,note_on,1,0,0,,4,,,76,127
16597,note_off,76,0,0,,4,,,76,127
16598,note_on,1,0,0,,2,,,74,127
16674,note_off,76,0,0,,2,,,74,127
16674,note_off,0,0,0,,7,,,55,127
16675,note_on,1,0,0,,10,,,45,127
16675,note_on,0,0,0,,1,,,73,127
16904,note_off,229,0,0,,10,,,45,127
16905,note_on,1,0,0,,10,,,57,127
17019,note_off,114,0,0,,10,,,57,127
17020,note_on,1,0,0,,8,,,56,127
17134,note_off,114,0,0,,8,,,56,127
17135,note_on,1,0,0,,10,,,57,127
17249,note_off,114,0,0,,10,,,57,127
17250,note_off,1,0,0,,1,,,73,127
17250,note_on,0,0,0,,4,,,52,127
17364,note_off,114,0,0,,4,,,52,127
17365,note_on,1,0,0,,1,,,49,127
17365,note_on,0,0,0,,4,,,76,127
17479,note_off,114,0,0,,1,,,49,127
17480,note_on,1,0,0,,10,,,45,127
17594,note_off,114,0,0,,10,,,45,127
17594,note_off,0,0,0,,4,,,76,127
17595,note_on,1,0,0,,2,,,38,127
17595,note_on,0,0,0,,5,,,77,127
17824,note_off,229,0,0,,2,,,38,127
17825,note_on,1,0,0,,2,,,50,127
17939,note_off,114,0,0,,2,,,50,127
17940,note_on,1,0,0,,1,,,49,127
18054,note_off,114,0,0,,1,,,49,127
18055,note_on,1,0,0,,2,,,50,127
18169,note_off,114,0,0,,2,,,50,127
18170,note_off,1,0,0,,5,,,77,127
18170,note_on,0,0,0,,10,,,45,127
18284,note_off,114,0,0,,10,,,45,127
18285,note_on,1,0,0,,5,,,41,127
18285,note_on,0,0,0,,2,,,74,127
18399,note_off,114,0,0,,5,,,41,127
18400,note_on,1,0,0,,2,,,38,127
18514,note_off,114,0,0,,2,,,38,127
18514,note_off,0,0,0,,2,,,74,127
18515,note_on,1,0,0,,10,,,45,127
18515,note_on,0,0,0,,4,,,76,127
18744,note_off,229,0,0,,10,,,45,127
18745,note_on,1,0,0,,10,,,57,127
18859,note_off,114,0,0,,10,,,57,127
18860,note_on,1,0,0,,8,,,56,127
18974,note_off,114,0,0,,8,,,56,127
18975,note_on,1,0,0,,10,,,57,127
19089,note_off,114,0,0,,10,,,57,127
19090,note_off,1,0,0,,4,,,76,127
19090,note_on,0,0,0,,4,,,52,127
19204,note_off,114,0,0,,4,,,52,127
19205,note_on,1,0,0,,1,,,49,127
19205,note_on,0,0,0,,4,,,76,127
19319,note_off,114,0,0,,1,,,49,127
19320,note_on,1,0,0,,10,,,45,127
19434,note_off,114,0,0,,10,,,45,127
19434,note_off,0,0,0,,4,,,76,127
19435,note_on,1,0,0,,2,,,50,127
19435,note_on,0,0,0,,5,,,77,127
19549,note_off,114,0,0,,5,,,77,127
19550,note_on,1,0,0,,2,,,74,127
19664,note_off,114,0,0,,2,,,74,127
19665,note_on,1,0,0,,2,,,74,127
19779,note_off,114,0,0,,2,,,74,127
19780,note_on,1,0,0,,4,,,76,127
19894,note_off,114,0,0,,4,,,76,127
19895,note_on,1,0,0,,5,,,77,127
20009,note_off,114,0,0,,5,,,77,127
20010,note_off,1,0,0,,2,,,50,127
20010,note_on,0,0,0,,8,,,80,127
20124,note_off,114,0,0,,8,,,80,127
20125,note_on,1,0,0,,2,,,62,127
20125,note_on,0,0,0,,10,,,81,127
20239,note_off,114,0,0,,10,,,81,127
20240,note_on,1,0,0,,5,,,77,127
20354,note_off,114,0,0,,5,,,77,127
20354,note_off,0,0,0,,2,,,62,127
20355,note_on,1,0,0,,0,,,60,127
20355,note_on,0,0,0,,4,,,76,127
20469,note_off,114,0,0,,4,,,76,127
20470,note_on,1,0,0,,0,,,72,127
20584,note_off,114,0,0,,0,,,72,127
20585,note_on,1,0,0,,0,,,72,127
20699,note_off,114,0,0,,0,,,72,127
20700,note_on,1,0,0,,2,,,74,127
20814,note_off,114,0,0,,2,,,74,127
20815,note_on,1,0,0,,4,,,76,127
20929,note_off,114,0,0,,4,,,76,127
20930,note_off,1,0,0,,0,,,60,127
20930,note_on,0,0,0,,8,,,80,127
21044,note_off,114,0,0,,8,,,80,127
21045,note_on,1,0,0,,0,,,60,127
21045,note_on,0,0,0,,10,,,81,127
21159,note_off,114,0,0,,10,,,81,127
21160,note_on,1,0,0,,4,,,76,127
21274,note_off,114,0,0,,4,,,76,127
21274,note_off,0,0,0,,0,,,60,127
21275,note_on,1,0,0,,12,,,59,127
21275,note_on,0,0,0,,2,,,74,127
21389,note_off,114,0,0,,2,,,74,127
21390,note_on,1,0,0,,12,,,71,127
21504,note_off,114,0,0,,12,,,71,127
21505,note_on,1,0,0,,12,,,71,127
21619,note_off,114,0,0,,12,,,71,127
21620,note_on,1,0,0,,0,,,72,127
21734,note_off,114,0,0,,0,,,72,127
21735,note_on,1,0,0,,2,,,74,127
21849,note_off,114,0,0,,2,,,74,127
21850,note_off,1,0,0,,12,,,59,127
21850,note_on,0,0,0,,8,,,80,127
21964,note_off,114,0,0,,8,,,80,127
21965,note_on,1,0,0,,4,,,52,127
21965,note_on,0,0,0,,10,,,81,127
22079,note_off,114,0,0,,10,,,81,127
22080,note_on,1,0,0,,2,,,74,127
22194,note_off,114,0,0,,2,,,74,127
22194,note_off,0,0,0,,4,,,52,127
22195,note_on,1,0,0,,10,,,45,127
22195,note_on,0,0,0,,0,,,72,127
22309,note_off,114,0,0,,0,,,72,127
22310,note_on,1,0,0,,10,,,69,127
22424,note_off,114,0,0,,10,,,69,127
22425,note_on,1,0,0,,0,,,72,127
22539,note_off,114,0,0,,0,,,72,127
22540,note_on,1,0,0,,4,,,76,127
22654,note_off,114,0,0,,4,,,76,127
22655,note_on,1,0,0,,10,,,81,127
22731,note_off,76,0,0,,10,,,81,127
22732,note_on,1,0,0,,7,,,79,127
22770,note_off,38,0,0,,10,,,45,127
22807,note_off,37,0,0,,7,,,79,127
22808,note_on,1,0,0,,5,,,77,127
22884,note_off,76,0,0,,5,,,77,127
22885,note_on,1,0,0,,10,,,57,127
22885,note_on,0,0,0,,7,,,79,127
22961,note_off,76,0,0,,7,,,79,127
22962,note_on,1,0,0,,5,,,77,127
23038,note_off,76,0,0,,5,,,77,127
23039,note_on,1,0,0,,4,,,76,127
23115,note_off,76,0,0,,4,,,76,127
23115,note_off,0,0,0,,10,,,57,127
23116,note_on,1,0,0,,2,,,62,127
23116,note_on,0,0,0,,5,,,77,127
23192,note_off,76,0,0,,5,,,77,127
23193,note_on,1,0,0,,4,,,76,127
23269,note_off,76,0,0,,4,,,76,127
23270,note_on,1,0,0,,2,,,74,127
23346,note_off,76,0,0,,2,,,74,127
23347,note_on,1,0,0,,4,,,76,127
23423,note_off,76,0,0,,4,,,76,127
23424,note_on,1,0,0,,2,,,74,127
23500,note_off,76,0,0,,2,,,74,127
23501,note_on,1,0,0,,0,,,72,127
23577,note_off,76,0,0,,0,,,72,127
23577,note_off,0,0,0,,2,,,62,127
23578,note_on,1,0,0,,2,,,50,127
23578,note_on,0,0,0,,2,,,74,127
23654,note_off,76,0,0,,2,,,74,127
23655,note_on,1,0,0,,0,,,72,127
23731,note_off,76,0,0,,0,,,72,127
23732,note_on,1,0,0,,12,,,71,127
23808,note_off,76,0,0,,12,,,71,127
23809,note_on,1,0,0,,0,,,72,127
23885,note_off,76,0,0,,0,,,72,127
23886,note_on,1,0,0,,12,,,71,127
23962,note_off,76,0,0,,12,,,71,127
23963,note_on,1,0,0,,10,,,69,127
24039,note_off,76,0,0,,10,,,69,127
24039,note_off,0,0,0,,2,,,50,127
24040,note_on,1,0,0,,4,,,52,127
24040,note_on,0,0,0,,8,,,68,127
24269,note_off,229,0,0,,4,,,52,127
24270,note_on,1,0,0,,4,,,64,127
24384,note_off,114,0,0,,4,,,64,127
24385,note_on,1,0,0,,3,,,63,127
24499,note_off,114,0,0,,3,,,63,127
24500,note_on,1,0,0,,4,,,64,127
24614,note_off,114,0,0,,4,,,64,127
24615,note_off,1,0,0,,8,,,68,127
24615,note_on,0,0,0,,12,,,59,127
24729,note_off,114,0,0,,12,,,59,127
24730,note_on,1,0,0,,8,,,56,127
24730,note_on,0,0,0,,12,,,71,127
24844,note_off,114,0,0,,8,,,56,127
24845,note_on,1,0,0,,4,,,52,127
24959,note_off,114,0,0,,4,,,52,127
24959,note_off,0,0,0,,12,,,71,127
24960,note_on,1,0,0,,10,,,45,127
24960,note_on,0,0,0,,0,,,72,127
25189,note_off,229,0,0,,10,,,45,127
25190,note_on,1,0,0,,10,,,57,127
25304,note_off,114,0,0,,10,,,57,127
25305,note_on,1,0,0,,8,,,56,127
25419,note_off,114,0,0,,8,,,56,127
25420,note_on,1,0,0,,10,,,57,127
25534,note_off,114,0,0,,10,,,57,127
25535,note_off,1,0,0,,0,,,72,127
25535,note_on,0,0,0,,4,,,52,127
25649,note_off,114,0,0,,4,,,52,127
25650,note_on,1,0,0,,0,,,48,127
25650,note_on,0,0,0,,10,,,69,127
25764,note_off,114,0,0,,0,,,48,127
25765,note_on,1,0,0,,10,,,45,127
25879,note_off,114,0,0,,10,,,45,127
25879,note_off,0,0,0,,10,,,69,127
25880,note_on,1,0,0,,4,,,40,127
25880,note_on,0,0,0,,12,,,71,127
26109,note_off,229,0,0,,4,,,40,127
26110,note_on,1,0,0,,4,,,52,127
26224,note_off,114,0,0,,4,,,52,127
26225,note_on,1,0,0,,3,,,51,127
26339,note_off,114,0,0,,3,,,51,127
26340,note_on,1,0,0,,4,,,52,127
26454,note_off,114,0,0,,4,,,52,127
26455,note_off,1,0,0,,12,,,71,127
26455,note_on,0,0,0,,12,,,47,127
26569,note_off,114,0,0,,12,,,47,127
26570,note_on,1,0,0,,8,,,44,127
26570,note_on,0,0,0,,12,,,71,127
26684,note_off,114,0,0,,8,,,44,127
26685,note_on,1,0,0,,4,,,40,127
26799,note_off,114,0,0,,4,,,40,127
26799,note_off,0,0,0,,12,,,71,127
26800,note_on,1,0,0,,10,,,45,127
26800,note_on,0,0,0,,0,,,72,127
26914,note_off,114,0,0,,0,,,72,127
26915,note_on,1,0,0,,10,,,69,127
27029,note_off,114,0,0,,10,,,69,127
27030,note_on,1,0,0,,0,,,72,127
27144,note_off,114,0,0,,0,,,72,127
27145,note_on,1,0,0,,4,,,76,127
27259,note_off,114,0,0,,4,,,76,127
27259,note_off,0,0,0,,10,,,45,127
27260,note_on,1,0,0,,10,,,69,127
27260,note_on,0,0,0,,10,,,81,127
27336,note_off,76,0,0,,10,,,69,127
27337,note_on,1,0,0,,7,,,67,127
27413,note_off,76,0,0,,7,,,67,127
27414,note_on,1,0,0,,5,,,65,127
27490,note_off,76,0,0,,5,,,65,127
27491,note_on,1,0,0,,7,,,67,127
27567,note_off,76,0,0,,7,,,67,127
27568,note_on,1,0,0,,5,,,65,127
27644,note_off,76,0,0,,5,,,65,127
27645,note_on,1,0,0,,4,,,64,127
27721,note_off,76,0,0,,4,,,64,127
27722,note_on,1,0,0,,5,,,65,127
27798,note_off,76,0,0,,10,,,81,127
27799,note_on,1,0,0,,7,,,79,127
27875,note_off,76,0,0,,7,,,79,127
27876,note_on,1,0,0,,5,,,77,127
27952,note_off,76,0,0,,5,,,77,127
27953,note_on,1,0,0,,7,,,79,127
28029,note_off,76,0,0,,7,,,79,127
28030,note_on,1,0,0,,5,,,77,127
28106,note_off,76,0,0,,5,,,77,127
28107,note_on,1,0,0,,4,,,76,127
28183,note_off,76,0,0,,4,,,76,127
28183,note_off,0,0,0,,5,,,65,127
28184,note_on,1,0,0,,5,,,53,127
28184,note_on,0,0,0,,5,,,77,127
28260,note_off,76,0,0,,5,,,77,127
28261,note_on,1,0,0,,4,,,76,127
28337,note_off,76,0,0,,4,,,76,127
28338,note_on,1,0,0,,2,,,74,127
28414,note_off,76,0,0,,2,,,74,127
28415,note_on,1,0,0,,4,,,76,127
28491,note_off,76,0,0,,4,,,76,127
28492,note_on,1,0,0,,2,,,74,127
28568,note_off,76,0,0,,2,,,74,127
28569,note_on,1,0,0,,0,,,72,127
28645,note_off,76,0,0,,0,,,72,127
28645,note_off,0,0,0,,5,,,53,127
28646,note_on,1,0,0,,7,,,55,127
28646,note_on,0,0,0,,12,,,71,127
28760,note_off,114,0,0,,12,,,71,127
28761,note_on,1,0,0,,7,,,67,127
28875,note_off,114,0,0,,7,,,67,127
28876,note_on,1,0,0,,12,,,71,127
28990,note_off,114,0,0,,12,,,71,127
28991,note_on,1,0,0,,2,,,74,127
29105,note_off,114,0,0,,2,,,74,127
29105,note_off,0,0,0,,7,,,55,127
29106,note_on,1,0,0,,7,,,67,127
29106,note_on,0,0,0,,7,,,79,127
29182,note_off,76,0,0,,7,,,67,127
29183,note_on,1,0,0,,5,,,65,127
29259,note_off,76,0,0,,5,,,65,127
29260,note_on,1,0,0,,4,,,64,127
29336,note_off,76,0,0,,4,,,64,127
29337,note_on,1,0,0,,5,,,65,127
29413,note_off,76,0,0,,5,,,65,127
29414,note_on,1,0,0,,4,,,64,127
29490,note_off,76,0,0,,4,,,64,127
29491,note_on,1,0,0,,2,,,62,127
29567,note_off,76,0,0,,2,,,62,127
29568,note_on,1,0,0,,4,,,64,127
29644,note_off,76,0,0,,7,,,79,127
29645,note_on,1,0,0,,5,,,77,127
29721,note_off,76,0,0,,5,,,77,127
29722,note_on,1,0,0,,4,,,76,127
29798,note_off,76,0,0,,4,,,76,127
29799,note_on,1,0,0,,5,,,77,127
29875,note_off,76,0,0,,5,,,77,127
29876,note_on,1,0,0,,4,,,76,127
29952,note_off,76,0,0,,4,,,76,127
29953,note_on,1,0,0,,2,,,74,127
30029,note_off,76,0,0,,2,,,74,127
30029,note_off,0,0,0,,4,,,64,127
30030,note_on,1,0,0,,4,,,52,127
30030,note_on,0,0,0,,4,,,76,127
30106,note_off,76,0,0,,4,,,76,127
30107,note_on,1,0,0,,2,,,74,127
30183,note_off,76,0,0,,2,,,74,127
30184,note_on,1,0,0,,0,,,72,127
30260,note_off,76,0,0,,0,,,72,127
30261,note_on,1,0,0,,2,,,74,127
30337,note_off,76,0,0,,2,,,74,127
30338,note_on,1,0,0,,0,,,72,127
30414,note_off,76,0,0,,0,,,72,127
30415,note_on,1,0,0,,12,,,71,127
30491,note_off,76,0,0,,12,,,71,127
30491,note_off,0,0,0,,4,,,52,127
30492,note_on,1,0,0,,5,,,53,127
30492,note_on,0,0,0,,10,,,69,127
30606,note_off,114,0,0,,10,,,69,127
30607,note_on,1,0,0,,0,,,72,127
30721,note_off,114,0,0,,0,,,72,127
30721,note_off,0,0,0,,5,,,53,127
30722,note_on,1,0,0,,5,,,65,127
30722,note_on,0,0,0,,12,,,71,127
30836,note_off,114,0,0,,12,,,71,127
30837,note_on,1,0,0,,2,,,74,127
30951,note_off,114,0,0,,2,,,74,127
30952,note_on,1,0,0,,0,,,72,127
30952,note_on,0,0,0,,2,,,74,127
31066,note_off,114,0,0,,2,,,74,127
31066,note_off,0,0,0,,0,,,72,127
31067,note_on,1,0,0,,12,,,71,127
31181,note_off,114,0,0,,12,,,71,127
31181,note_off,0,0,0,,5,,,65,127
31182,note_on,1,0,0,,4,,,64,127
31182,note_on,0,0,0,,12,,,71,127
31296,note_off,114,0,0,,12,,,71,127
31297,note_on,1,0,0,,10,,,69,127
31411,note_off,114,0,0,,10,,,69,127
31411,note_off,0,0,0,,4,,,64,127
31412,note_on,1,0,0,,2,,,62,127
31412,note_on,0,0,0,,12,,,71,127
31526,note_off,114,0,0,,12,,,71,127
31527,note_on,1,0,0,,2,,,74,127
31641,note_off,114,0,0,,2,,,74,127
31641,note_off,0,0,0,,2,,,62,127
31642,note_on,1,0,0,,7,,,67,127
31642,note_on,0,0,0,,0,,,72,127
31756,note_off,114,0,0,,0,,,72,127
31757,note_on,1,0,0,,4,,,76,127
31871,note_off,114,0,0,,4,,,76,127
31872,note_on,1,0,0,,4,,,76,127
31872,note_on,0,0,0,,2,,,74,127
31986,note_off,114,0,0,,2,,,74,127
31986,note_off,0,0,0,,4,,,76,127
31987,note_on,1,0,0,,0,,,72,127
32101,note_off,114,0,0,,0,,,72,127
32101,note_off,0,0,0,,7,,,67,127
32102,note_on,1,0,0,,5,,,65,127
32102,note_on,0,0,0,,0,,,72,127
32216,note_off,114,0,0,,0,,,72,127
32217,note_on,1,0,0,,12,,,71,127
32331,note_off,114,0,0,,12,,,71,127
32331,note_off,0,0,0,,5,,,65,127
32332,note_on,1,0,0,,4,,,64,127
32332,note_on,0,0,0,,0,,,72,127
32408,note_off,76,0,0,,0,,,72,127
32409,note_on,1,0,0,,12,,,71,127
32485,note_off,76,0,0,,12,,,71,127
32486,note_on,1,0,0,,0,,,72,127
32562,note_off,76,0,0,,0,,,72,127
32562,note_off,0,0,0,,4,,,64,127
32563,note_on,1,0,0,,12,,,59,127
32563,note_on,0,0,0,,2,,,74,127
32639,note_off,76,0,0,,2,,,74,127
32640,note_on,1,0,0,,0,,,72,127
32716,note_off,76,0,0,,0,,,72,127
32717,note_on,1,0,0,,2,,,74,127
32793,note_off,76,0,0,,2,,,74,127
32793,note_off,0,0,0,,12,,,59,127
32794,note_on,1,0,0,,0,,,60,127
32794,note_on,0,0,0,,4,,,76,127
32870,note_off,76,0,0,,4,,,76,127
32871,note_on,1,0,0,,2,,,74,127
32947,note_off,76,0,0,,2,,,74,127
32948,note_on,1,0,0,,4,,,76,127
33024,note_off,76,0,0,,4,,,76,127
33024,note_off,0,0,0,,0,,,60,127
33025,note_on,1,0,0,,5,,,53,127
33025,note_on,0,0,0,,7,,,79,127
33101,note_off,76,0,0,,7,,,79,127
33102,note_on,1,0,0,,5,,,77,127
33178,note_off,76,0,0,,5,,,77,127
33179,note_on,1,0,0,,4,,,76,127
33255,note_off,76,0,0,,4,,,76,127
33255,note_off,0,0,0,,5,,,53,127
33256,note_on,1,0,0,,7,,,55,127
33256,note_on,0,0,0,,2,,,74,127
33485,note_off,229,0,0,,2,,,74,127
33486,note_on,1,0,0,,7,,,79,127
33712,note_off,226,0,0,,7,,,55,127
33716,note_off,4,0,0,,7,,,79,127
33717,note_on,1,0,0,,4,,,76,127
33773,note_off,56,0,0,,4,,,76,127
33774,note_on,1,0,0,,2,,,74,127
33830,note_off,56,0,0,,2,,,74,127
33831,note_on,1,0,0,,4,,,76,127
33887,note_off,56,0,0,,4,,,76,127
33888,note_on,1,0,0,,2,,,74,127
33944,note_off,56,0,0,,2,,,74,127
33945,note_on,1,0,0,,0,,,48,127
33945,note_on,0,0,0,,4,,,76,127
34001,note_off,56,0,0,,4,,,76,127
34002,note_on,1,0,0,,2,,,74,127
34058,note_off,56,0,0,,2,,,74,127
34059,note_on,1,0,0,,4,,,76,127
34115,note_off,56,0,0,,4,,,76,127
34116,note_on,1,0,0,,0,,,72,127
34172,note_off,56,0,0,,0,,,72,127
34172,note_off,0,0,0,,0,,,48,127
34173,note_on,1,0,0,,7,,,43,127
34173,note_on,0,0,0,,2,,,74,127
34402,note_off,229,0,0,,2,,,74,127
34403,note_on,1,0,0,,7,,,67,127
34629,note_off,226,0,0,,7,,,43,127
34633,note_off,4,0,0,,7,,,67,127
34634,note_on,1,0,0,,4,,,76,127
34690,note_off,56,0,0,,4,,,76,127
34691,note_on,1,0,0,,2,,,74,127
34747,note_off,56,0,0,,2,,,74,127
34748,note_on,1,0,0,,4,,,76,127
34804,note_off,56,0,0,,4,,,76,127
34805,note_on,1,0,0,,2,,,74,127
34861,note_off,56,0,0,,2,,,74,127
34862,note_on,1,0,0,,0,,,48,127
34862,note_on,0,0,0,,4,,,76,127
34918,note_off,56,0,0,,4,,,76,127
34919,note_on,1,0,0,,2,,,74,127
34975,note_off,56,0,0,,2,,,74,127
34976,note_on,1,0,0,,4,,,76,127
35032,note_off,56,0,0,,4,,,76,127
35033,note_on,1,0,0,,0,,,72,127
35089,note_off,56,0,0,,0,,,72,127
35089,note_off,0,0,0,,0,,,48,127
35090,note_on,1,0,0,,7,,,55,127
35090,note_on,0,0,0,,2,,,74,127
35166,note_off,76,0,0,,2,,,74,127
35167,note_on,1,0,0,,4,,,76,127
35227,note_off,60,0,0,,4,,,76,127
35244,note_on,17,0,0,,0,,,72,127
35304,note_off,60,0,0,,0,,,72,127
35321,note_on,17,0,0,,2,,,74,127
35397,note_off,76,0,0,,2,,,74,127
35398,note_on,1,0,0,,4,,,76,127
35458,note_off,60,0,0,,4,,,76,127
35475,note_on,17,0,0,,0,,,72,127
35535,note_off,60,0,0,,0,,,72,127
35551,note_off,16,0,0,,7,,,55,127
35552,note_on,1,0,0,,7,,,43,127
35552,note_on,0,0,0,,2,,,74,127
35628,note_off,76,0,0,,2,,,74,127
35629,note_on,1,0,0,,4,,,76,127
35689,note_off,60,0,0,,4,,,76,127
35706,note_on,17,0,0,,0,,,72,127
35766,note_off,60,0,0,,0,,,72,127
35783,note_on,17,0,0,,2,,,74,127
35859,note_off,76,0,0,,2,,,74,127
35860,note_on,1,0,0,,4,,,76,127
35920,note_off,60,0,0,,4,,,76,127
35937,note_on,17,0,0,,0,,,72,127
35997,note_off,60,0,0,,0,,,72,127
36013,note_off,16,0,0,,7,,,43,127
36014,note_on,1,0,0,,7,,,43,127
36014,note_on,0,0,0,,4,,,76,127
36051,note_off,37,0,0,,4,,,76,127
36052,note_on,1,0,0,,2,,,74,127
36089,note_off,37,0,0,,2,,,74,127
36090,note_on,1,0,0,,4,,,76,127
36127,note_off,37,0,0,,4,,,76,127
36128,note_on,1,0,0,,2,,,74,127
36818,note_off,690,0,0,,2,,,74,127
36933,note_off,115,0,0,,7,,,43,127
36934,note_on,1,0,0,,0,,,48,127
36934,note_on,0,0,0,,4,,,76,127
37048,note_off,114,0,0,,4,,,76,127
37049,note_on,1,0,0,,0,,,72,127
37163,note_off,114,0,0,,0,,,72,127
37164,note_on,1,0,0,,7,,,67,127
37278,note_off,114,0,0,,7,,,67,127
37279,note_on,1,0,0,,4,,,64,127
37393,note_off,114,0,0,,4,,,64,127
37394,note_on,1,0,0,,0,,,60,127
37623,note_off,229,0,0,,0,,,60,127
37623,note_off,0,0,0,,0,,,48,127
37624,note_on,1,0,0,,7,,,43,127
37624,note_on,0,0,0,,5,,,77,127
37624,note_on,0,0,0,,2,,,74,127
37853,note_off,229,0,0,,2,,,74,127
37853,note_off,0,0,0,,5,,,77,127
37853,note_off,0,0,0,,7,,,43,127
37854,note_on,1,0,0,,0,,,48,127
37854,note_on,0,0,0,,4,,,76,127
37968,note_off,114,0,0,,4,,,76,127
37969,note_on,1,0,0,,0,,,72,127
38083,note_off,114,0,0,,0,,,72,127
38084,note_on,1,0,0,,7,,,67,127
38198,note_off,114,0,0,,7,,,67,127
38199,note_on,1,0,0,,4,,,64,127
38313,note_off,114,0,0,,4,,,64,127
38314,note_on,1,0,0,,0,,,60,127
38543,note_off,229,0,0,,0,,,60,127
38543,note_off,0,0,0,,0,,,48,127
38544,note_on,1,0,0,,7,,,43,127
38544,note_on,0,0,0,,12,,,71,127
38544,note_on,0,0,0,,2,,,74,127
38773,note_off,229,0,0,,2,,,74,127
38773,note_off,0,0,0,,12,,,71,127
38773,note_off,0,0,0,,7,,,43,127
38774,note_on,1,0,0,,0,,,48,127
38774,note_on,0,0,0,,4,,,76,127
38888,note_off,114,0,0,,4,,,76,127
38889,note_on,1,0,0,,0,,,72,127
39003,note_off,114,0,0,,0,,,72,127
39004,note_on,1,0,0,,7,,,67,127
39118,note_off,114,0,0,,7,,,67,127
39119,note_on,1,0,0,,4,,,64,127
39233,note_off,114,0,0,,4,,,64,127
39234,note_on,1,0,0,,0,,,60,127
39463,note_off,229,0,0,,0,,,60,127
39463,note_off,0,0,0,,0,,,48,127
39464,note_on,1,0,0,,7,,,43,127
39464,note_on,0,0,0,,5,,,77,127
39464,note_on,0,0,0,,2,,,74,127
39693,note_off,229,0,0,,2,,,74,127
39693,note_off,0,0,0,,5,,,77,127
39693,note_off,0,0,0,,7,,,43,127
39694,note_on,1,0,0,,0,,,36,127
39694,note_on,0,0,0,,0,,,72,127
39694,note_on,0,0,0,,4,,,76,127
39808,note_off,114,0,0,,4,,,76,127
39808,note_off,0,0,0,,0,,,72,127
39809,note_on,1,0,0,,7,,,67,127
39923,note_off,114,0,0,,7,,,67,127
39924,note_on,1,0,0,,4,,,64,127
40038,note_off,114,0,0,,4,,,64,127
40039,note_on,1,0,0,,0,,,60,127
40153,note_off,114,0,0,,0,,,60,127
40154,note_on,1,0,0,,7,,,79,127
40383,note_off,229,0,0,,0,,,36,127
40384,note_on,1,0,0,,4,,,52,127
40613,note_off,229,0,0,,4,,,52,127
40613,note_off,0,0,0,,7,,,79,127
40614,note_on,1,0,0,,5,,,53,127
40614,note_on,0,0,0,,10,,,69,127
40728,note_off,114,0,0,,10,,,69,127
40729,note_on,1,0,0,,12,,,71,127
40843,note_off,114,0,0,,12,,,71,127
40844,note_on,1,0,0,,5,,,41,127
40844,note_on,0,0,0,,0,,,72,127
40958,note_off,114,0,0,,0,,,72,127
40959,note_on,1,0,0,,2,,,74,127
41069,note_off,110,0,0,,5,,,53,127
41073,note_off,4,0,0,,2,,,74,127
41073,note_off,0,0,0,,5,,,41,127
41074,note_on,1,0,0,,7,,,55,127
41074,note_on,0,0,0,,4,,,76,127
41130,note_off,56,0,0,,4,,,76,127
41131,note_on,1,0,0,,2,,,74,127
41187,note_off,56,0,0,,2,,,74,127
41188,note_on,1,0,0,,4,,,76,127
41244,note_off,56,0,0,,4,,,76,127
41245,note_on,1,0,0,,2,,,74,127
41301,note_off,56,0,0,,2,,,74,127
41302,note_on,1,0,0,,7,,,43,127
41302,note_on,0,0,0,,4,,,76,127
41358,note_off,56,0,0,,4,,,76,127
41359,note_on,1,0,0,,2,,,74,127
41415,note_off,56,0,0,,2,,,74,127
41416,note_on,1,0,0,,0,,,72,127
41472,note_off,56,0,0,,0,,,72,127
41473,note_on,1,0,0,,12,,,71,127
41526,note_off,53,0,0,,7,,,55,127
41530,note_off,4,0,0,,12,,,71,127
41530,note_off,0,0,0,,7,,,43,127
41531,note_on,1,0,0,,0,,,60,127
41531,note_on,0,0,0,,0,,,72,127
41645,note_off,114,0,0,,0,,,60,127
41646,note_on,1,0,0,,7,,,55,127
41760,note_off,114,0,0,,7,,,55,127
41761,note_on,1,0,0,,4,,,52,127
41875,note_off,114,0,0,,4,,,52,127
41876,note_on,1,0,0,,0,,,48,127
41986,note_off,110,0,0,,0,,,72,127
41990,note_off,4,0,0,,0,,,48,127
41991,note_on,1,0,0,,7,,,43,127
42220,note_off,229,0,0,,7,,,43,127
42221,note_on,1,0,0,,2,,,62,127
42221,note_on,0,0,0,,5,,,77,127
42221,note_on,0,0,0,,2,,,74,127
42221,note_on,0,0,0,,12,,,71,127
42221,note_on,0,0,0,,7,,,67,127
42450,note_off,229,0,0,,7,,,67,127
42450,note_off,0,0,0,,12,,,71,127
42450,note_off,0,0,0,,2,,,74,127
42450,note_off,0,0,0,,5,,,77,127
42450,note_off,0,0,0,,2,,,62,127
42451,note_on,1,0,0,,0,,,60,127
42451,note_on,0,0,0,,4,,,76,127
42451,note_on,0,0,0,,0,,,72,127
42451,note_on,0,0,0,,7,,,67,127
42565,note_off,114,0,0,,0,,,60,127
42566,note_on,1,0,0,,7,,,55,127
42680,note_off,114,0,0,,7,,,55,127
42681,note_on,1,0,0,,4,,,52,127
42795,note_off,114,0,0,,4,,,52,127
42796,note_on,1,0,0,,0,,,48,127
42910,note_off,114,0,0,,0,,,48,127
42911,note_on,1,0,0,,7,,,43,127
43140,note_off,229,0,0,,7,,,43,127
43140,note_off,0,0,0,,7,,,67,127
43140,note_off,0,0,0,,0,,,72,127
43140,note_off,0,0,0,,4,,,76,127
43141,note_on,1,0,0,,12,,,59,127
43141,note_on,0,0,0,,5,,,77,127
43141,note_on,0,0,0,,2,,,74,127
43141,note_on,0,0,0,,12,,,71,127
43141,note_on,0,0,0,,7,,,67,127
43370,note_off,229,0,0,,7,,,67,127
43370,note_off,0,0,0,,12,,,71,127
43370,note_off,0,0,0,,2,,,74,127
43370,note_off,0,0,0,,5,,,77,127
43370,note_off,0,0,0,,12,,,59,127
43371,note_on,1,0,0,,0,,,60,127
43371,note_on,0,0,0,,4,,,76,127
43371,note_on,0,0,0,,0,,,72,127
43371,note_on,0,0,0,,7,,,67,127
43485,note_off,114,0,0,,0,,,60,127
43486,note_on,1,0,0,,7,,,55,127
43600,note_off,114,0,0,,7,,,55,127
43601,note_on,1,0,0,,4,,,52,127
43715,note_off,114,0,0,,4,,,52,127
43716,note_on,1,0,0,,0,,,48,127
43830,note_off,114,0,0,,0,,,48,127
43831,note_on,1,0,0,,7,,,43,127
44060,note_off,229,0,0,,7,,,43,127
44060,note_off,0,0,0,,7,,,67,127
44060,note_off,0,0,0,,0,,,72,127
44060,note_off,0,0,0,,4,,,76,127
44061,note_on,1,0,0,,2,,,62,127
44061,note_on,0,0,0,,5,,,77,127
44061,note_on,0,0,0,,12,,,71,127
44061,note_on,0,0,0,,2,,,74,127
44061,note_on,0,0,0,,7,,,67,127
44290,note_off,229,0,0,,7,,,67,127
44290,note_off,0,0,0,,2,,,74,127
44290,note_off,0,0,0,,12,,,71,127
44290,note_off,0,0,0,,5,,,77,127
44290,note_off,0,0,0,,2,,,62,127
44291,note_on,1,0,0,,0,,,60,127
44291,note_on,0,0,0,,0,,,72,127
44291,note_on,0,0,0,,4,,,76,127
44291,note_on,0,0,0,,7,,,67,127
44405,note_off,114,0,0,,0,,,60,127
44406,note_on,1,0,0,,7,,,55,127
44520,note_off,114,0,0,,7,,,55,127
44521,note_on,1,0,0,,4,,,52,127
44635,note_off,114,0,0,,4,,,52,127
44636,note_on,1,0,0,,0,,,48,127
44750,note_off,114,0,0,,0,,,48,127
44751,note_on,1,0,0,,0,,,36,127
44980,note_off,229,0,0,,0,,,36,127
44980,note_off,0,0,0,,7,,,67,127
44980,note_off,0,0,0,,4,,,76,127
44980,note_off,0,0,0,,0,,,72,127
44981,note_on,1,0,0,,0,,,36,127
45210,note_off,229,0,0,,0,,,36,127
45211,note_on,1,0,0,,0,,,36,127
45326,note_on,115,0,0,,0,,,84,127
45440,note_off,114,0,0,,0,,,84,127
45441,note_on,1,0,0,,11,,,82,127
45555,note_off,114,0,0,,11,,,82,127
45556,note_on,1,0,0,,7,,,79,127
45670,note_off,114,0,0,,7,,,79,127
45671,note_on,1,0,0,,4,,,76,127
45785,note_off,114,0,0,,4,,,76,127
45786,note_on,1,0,0,,0,,,72,127
45900,note_off,114,0,0,,0,,,72,127
45901,note_on,1,0,0,,11,,,70,127
46015,note_off,114,0,0,,11,,,70,127
46016,note_on,1,0,0,,7,,,67,127
46130,note_off,114,0,0,,7,,,67,127
46130,note_off,0,0,0,,0,,,36,127
46131,note_on,1,0,0,,5,,,41,127
46131,note_on,0,0,0,,10,,,69,127
46245,note_off,114,0,0,,10,,,69,127
46246,note_on,1,0,0,,0,,,72,127
46360,note_off,114,0,0,,0,,,72,127
46361,note_on,1,0,0,,12,,,71,127
46590,note_off,229,0,0,,5,,,41,127
46591,note_on,1,0,0,,5,,,53,127
46706,note_off,115,0,0,,12,,,71,127
46821,note_on,115,0,0,,10,,,81,127
46935,note_off,114,0,0,,10,,,81,127
46936,note_on,1,0,0,,5,,,77,127
47050,note_off,114,0,0,,5,,,77,127
47050,note_off,0,0,0,,5,,,53,127
47051,note_on,1,0,0,,7,,,55,127
47051,note_on,0,0,0,,5,,,77,127
47165,note_off,114,0,0,,5,,,77,127
47166,note_on,1,0,0,,4,,,76,127
47280,note_off,114,0,0,,4,,,76,127
47281,note_on,1,0,0,,2,,,74,127
47395,note_off,114,0,0,,2,,,74,127
47396,note_on,1,0,0,,0,,,72,127
47510,note_off,114,0,0,,0,,,72,127
47510,note_off,0,0,0,,7,,,55,127
47511,note_on,1,0,0,,7,,,43,127
47511,note_on,0,0,0,,2,,,74,127
47740,note_off,229,0,0,,2,,,74,127
47741,note_on,1,0,0,,0,,,72,127
47855,note_off,114,0,0,,0,,,72,127
47856,note_on,1,0,0,,12,,,71,127
47970,note_off,114,0,0,,12,,,71,127
47970,note_off,0,0,0,,7,,,43,127
47971,note_on,1,0,0,,0,,,60,127
47971,note_on,0,0,0,,0,,,72,127
48085,note_off,114,0,0,,0,,,60,127
48086,note_on,1,0,0,,7,,,55,127
48200,note_off,114,0,0,,7,,,55,127
48201,note_on,1,0,0,,4,,,52,127
48315,note_off,114,0,0,,4,,,52,127
48316,note_on,1,0,0,,0,,,48,127
48430,note_off,114,0,0,,0,,,48,127
48431,note_on,1,0,0,,0,,,36,127
48660,note_off,229,0,0,,0,,,36,127
48661,note_on,1,0,0,,0,,,36,127
48890,note_off,229,0,0,,0,,,36,127
48891,note_on,1,0,0,,0,,,36,127
49005,note_off,114,0,0,,0,,,72,127
49006,note_on,1,0,0,,0,,,84,127
49120,note_off,114,0,0,,0,,,84,127
49121,note_on,1,0,0,,11,,,82,127
49235,note_off,114,0,0,,11,,,82,127
49236,note_on,1,0,0,,7,,,79,127
49350,note_off,114,0,0,,7,,,79,127
49351,note_on,1,0,0,,4,,,76,127
49465,note_off,114,0,0,,4,,,76,127
49466,note_on,1,0,0,,0,,,72,127
49580,note_off,114,0,0,,0,,,72,127
49581,note_on,1,0,0,,11,,,70,127
49695,note_off,114,0,0,,11,,,70,127
49696,note_on,1,0,0,,7,,,67,127
49810,note_off,114,0,0,,7,,,67,127
49810,note_off,0,0,0,,0,,,36,127
49811,note_on,1,0,0,,5,,,41,127
49811,note_on,0,0,0,,10,,,69,127
49925,note_off,114,0,0,,10,,,69,127
49926,note_on,1,0,0,,0,,,72,127
50040,note_off,114,0,0,,0,,,72,127
50041,note_on,1,0,0,,12,,,71,127
50270,note_off,229,0,0,,5,,,41,127
50271,note_on,1,0,0,,5,,,53,127
50386,note_off,115,0,0,,12,,,71,127
50501,note_on,115,0,0,,10,,,81,127
50615,note_off,114,0,0,,10,,,81,127
50616,note_on,1,0,0,,5,,,77,127
50730,note_off,114,0,0,,5,,,77,127
50730,note_off,0,0,0,,5,,,53,127
50731,note_on,1,0,0,,7,,,55,127
50731,note_on,0,0,0,,5,,,77,127
50845,note_off,114,0,0,,5,,,77,127
50846,note_on,1,0,0,,4,,,76,127
50960,note_off,114,0,0,,4,,,76,127
50961,note_on,1,0,0,,2,,,74,127
51075,note_off,114,0,0,,2,,,74,127
51076,note_on,1,0,0,,0,,,72,127
51190,note_off,114,0,0,,0,,,72,127
51190,note_off,0,0,0,,7,,,55,127
51191,note_on,1,0,0,,7,,,43,127
51191,note_on,0,0,0,,2,,,74,127
51420,note_off,229,0,0,,2,,,74,127
51421,note_on,1,0,0,,0,,,72,127
51535,note_off,114,0,0,,0,,,72,127
51536,note_on,1,0,0,,12,,,71,127
51650,note_off,114,0,0,,12,,,71,127
51650,note_off,0,0,0,,7,,,43,127
51651,note_on,1,0,0,,0,,,36,127
51651,note_on,0,0,0,,0,,,72,127
51727,note_off,76,0,0,,0,,,72,127
51728,note_on,1,0,0,,2,,,74,127
51804,note_off,76,0,0,,2,,,74,127
51805,note_on,1,0,0,,4,,,76,127
51881,note_off,76,0,0,,4,,,76,127
51882,note_on,1,0,0,,2,,,74,127
51958,note_off,76,0,0,,2,,,74,127
51959,note_on,1,0,0,,4,,,76,127
52035,note_off,76,0,0,,4,,,76,127
52036,note_on,1,0,0,,5,,,77,127
52112,note_off,76,0,0,,5,,,77,127
52112,note_off,0,0,0,,0,,,36,127
52113,note_on,1,0,0,,0,,,36,127
52113,note_on,0,0,0,,4,,,76,127
52189,note_off,76,0,0,,4,,,76,127
52190,note_on,1,0,0,,5,,,77,127
52266,note_off,76,0,0,,5,,,77,127
52267,note_on,1,0,0,,7,,,79,127
52343,note_off,76,0,0,,7,,,79,127
52344,note_on,1,0,0,,5,,,77,127
52420,note_off,76,0,0,,5,,,77,127
52421,note_on,1,0,0,,7,,,79,127
52497,note_off,76,0,0,,7,,,79,127
52498,note_on,1,0,0,,10,,,81,127
52574,note_off,76,0,0,,10,,,81,127
52574,note_off,0,0,0,,0,,,36,127
52575,note_on,1,0,0,,0,,,36,127
52575,note_on,0,0,0,,7,,,79,127
52651,note_off,76,0,0,,7,,,79,127
52652,note_on,1,0,0,,5,,,77,127
52728,note_off,76,0,0,,5,,,77,127
52729,note_on,1,0,0,,4,,,76,127
52805,note_off,76,0,0,,4,,,76,127
52806,note_on,1,0,0,,5,,,77,127
52882,note_off,76,0,0,,5,,,77,127
52883,note_on,1,0,0,,4,,,76,127
52959,note_off,76,0,0,,4,,,76,127
52960,note_on,1,0,0,,2,,,74,127
53036,note_off,76,0,0,,2,,,74,127
53036,note_off,0,0,0,,0,,,36,127
53037,note_on,1,0,0,,0,,,36,127
53037,note_on,0,0,0,,4,,,76,127
53113,note_off,76,0,0,,4,,,76,127
53114,note_on,1,0,0,,2,,,74,127
53190,note_off,76,0,0,,2,,,74,127
53191,note_on,1,0,0,,0,,,72,127
53267,note_off,76,0,0,,0,,,72,127
53268,note_on,1,0,0,,2,,,74,127
53344,note_off,76,0,0,,2,,,74,127
53345,note_on,1,0,0,,0,,,72,127
53421,note_off,76,0,0,,0,,,72,127
53422,note_on,1,0,0,,12,,,71,127
53498,note_off,76,0,0,,12,,,71,127
53498,note_off,0,0,0,,0,,,36,127
53499,note_on,1,0,0,,0,,,36,127
53499,note_on,0,0,0,,0,,,72,127
54189,note_off,690,0,0,,0,,,72,127
54419,note_off,230,0,0,,0,,,36,127
54420,note_on,1,0,0,,0,,,48,127
54420,note_on,0,0,0,,0,,,84,127
54534,note_off,114,0,0,,0,,,84,127
54535,note_on,1,0,0,,7,,,79,127
54649,note_off,114,0,0,,7,,,79,127
54650,note_on,1,0,0,,4,,,76,127
54764,note_off,114,0,0,,4,,,76,127
54765,note_on,1,0,0,,0,,,72,127
54879,note_off,114,0,0,,0,,,72,127
54880,note_on,1,0,0,,11,,,70,127
54995,note_off,115,0,0,,0,,,48,127
55109,note_off,114,0,0,,11,,,70,127
55110,note_on,1,0,0,,4,,,64,127
55110,note_on,0,0,0,,11,,,82,127
55339,note_off,229,0,0,,11,,,82,127
55339,note_off,0,0,0,,4,,,64,127
55340,note_on,1,0,0,,5,,,65,127
55340,note_on,0,0,0,,10,,,81,127
55454,note_off,114,0,0,,10,,,81,127
55455,note_on,1,0,0,,5,,,77,127
55569,note_off,114,0,0,,5,,,77,127
55570,note_on,1,0,0,,0,,,72,127
55684,note_off,114,0,0,,0,,,72,127
55685,note_on,1,0,0,,10,,,69,127
55799,note_off,114,0,0,,10,,,69,127
55800,note_on,1,0,0,,7,,,67,127
55915,note_off,115,0,0,,5,,,65,127
56029,note_off,114,0,0,,7,,,67,127
56030,note_on,1,0,0,,4,,,64,127
56030,note_on,0,0,0,,7,,,79,127
56259,note_off,229,0,0,,7,,,79,127
56259,note_off,0,0,0,,4,,,64,127
56260,note_on,1,0,0,,2,,,62,127
56260,note_on,0,0,0,,5,,,77,127
56374,note_off,114,0,0,,2,,,62,127
56375,note_on,1,0,0,,10,,,57,127
56489,note_off,114,0,0,,10,,,57,127
56490,note_on,1,0,0,,5,,,53,127
56604,note_off,114,0,0,,5,,,53,127
56605,note_on,1,0,0,,2,,,50,127
56719,note_off,114,0,0,,2,,,50,127
56720,note_on,1,0,0,,0,,,48,127
56835,note_off,115,0,0,,5,,,77,127
56949,note_off,114,0,0,,0,,,48,127
56950,note_on,1,0,0,,0,,,60,127
56950,note_on,0,0,0,,4,,,76,127
57179,note_off,229,0,0,,4,,,76,127
57179,note_off,0,0,0,,0,,,60,127
57180,note_on,1,0,0,,11,,,58,127
57180,note_on,0,0,0,,2,,,74,127
57294,note_off,114,0,0,,11,,,58,127
57295,note_on,1,0,0,,7,,,55,127
57409,note_off,114,0,0,,7,,,55,127
57410,note_on,1,0,0,,2,,,50,127
57524,note_off,114,0,0,,2,,,50,127
57525,note_on,1,0,0,,11,,,46,127
57639,note_off,114,0,0,,11,,,46,127
57640,note_on,1,0,0,,10,,,45,127
57755,note_off,115,0,0,,2,,,74,127
57869,note_off,114,0,0,,10,,,45,127
57870,note_on,1,0,0,,10,,,57,127
57870,note_on,0,0,0,,0,,,72,127
58099,note_off,229,0,0,,0,,,72,127
58099,note_off,0,0,0,,10,,,57,127
58100,note_on,1,0,0,,7,,,43,127
58100,note_on,0,0,0,,0,,,72,127
58156,note_off,56,0,0,,0,,,72,127
58157,note_on,1,0,0,,11,,,70,127
58213,note_off,56,0,0,,11,,,70,127
58214,note_on,1,0,0,,0,,,72,127
58270,note_off,56,0,0,,0,,,72,127
58271,note_on,1,0,0,,11,,,70,127
58327,note_off,56,0,0,,11,,,70,127
58328,note_on,1,0,0,,0,,,72,127
58384,note_off,56,0,0,,0,,,72,127
58385,note_on,1,0,0,,11,,,70,127
58441,note_off,56,0,0,,11,,,70,127
58442,note_on,1,0,0,,10,,,69,127
58498,note_off,56,0,0,,10,,,69,127
58499,note_on,1,0,0,,7,,,67,127
58555,note_off,56,0,0,,7,,,67,127
58555,note_off,0,0,0,,7,,,43,127
58556,note_on,1,0,0,,7,,,55,127
58556,note_on,0,0,0,,0,,,72,127
58612,note_off,56,0,0,,0,,,72,127
58613,note_on,1,0,0,,11,,,70,127
58669,note_off,56,0,0,,11,,,70,127
58670,note_on,1,0,0,,0,,,72,127
58726,note_off,56,0,0,,0,,,72,127
58727,note_on,1,0,0,,11,,,70,127
58783,note_off,56,0,0,,11,,,70,127
58784,note_on,1,0,0,,0,,,72,127
58840,note_off,56,0,0,,0,,,72,127
58841,note_on,1,0,0,,11,,,70,127
58897,note_off,56,0,0,,11,,,70,127
58898,note_on,1,0,0,,10,,,69,127
58954,note_off,56,0,0,,10,,,69,127
58955,note_on,1,0,0,,7,,,67,127
59011,note_off,56,0,0,,7,,,67,127
59011,note_off,0,0,0,,7,,,55,127
59012,note_on,1,0,0,,7,,,67,127
59012,note_on,0,0,0,,7,,,55,127
59012,note_on,0,0,0,,7,,,79,127
59241,note_off,229,0,0,,7,,,67,127
59242,note_on,1,0,0,,5,,,65,127
59471,note_off,229,0,0,,5,,,65,127
59472,note_on,1,0,0,,4,,,64,127
59701,note_off,229,0,0,,4,,,64,127
59701,note_off,0,0,0,,7,,,79,127
59702,note_on,1,0,0,,2,,,62,127
59702,note_on,0,0,0,,8,,,80,127
59931,note_off,229,0,0,,8,,,80,127
59931,note_off,0,0,0,,2,,,62,127
59931,note_off,0,0,0,,7,,,55,127
59932,note_on,1,0,0,,1,,,61,127
59932,note_on,0,0,0,,7,,,55,127
59932,note_on,0,0,0,,10,,,81,127
60161,note_off,229,0,0,,1,,,61,127
60162,note_on,1,0,0,,12,,,59,127
60276,note_off,114,0,0,,12,,,59,127
60277,note_on,1,0,0,,10,,,57,127
60391,note_off,114,0,0,,10,,,57,127
60391,note_off,0,0,0,,10,,,81,127
60392,note_on,1,0,0,,1,,,61,127
60392,note_on,0,0,0,,10,,,81,127
60621,note_off,229,0,0,,1,,,61,127
60622,note_on,1,0,0,,12,,,59,127
60736,note_off,114,0,0,,12,,,59,127
60737,note_on,1,0,0,,10,,,57,127
60851,note_off,114,0,0,,10,,,57,127
60851,note_off,0,0,0,,10,,,81,127
60851,note_off,0,0,0,,7,,,55,127
60852,note_on,1,0,0,,10,,,57,127
60852,note_on,0,0,0,,10,,,69,127
60852,note_on,0,0,0,,10,,,81,127
61081,note_off,229,0,0,,10,,,69,127
61082,note_on,1,0,0,,7,,,67,127
61311,note_off,229,0,0,,7,,,67,127
61311,note_off,0,0,0,,10,,,81,127
61312,note_on,1,0,0,,6,,,66,127
61312,note_on,0,0,0,,11,,,82,127
61541,note_off,229,0,0,,6,,,66,127
61542,note_on,1,0,0,,4,,,64,127
61771,note_off,229,0,0,,4,,,64,127
61771,note_off,0,0,0,,11,,,82,127
61771,note_off,0,0,0,,10,,,57,127
61772,note_on,1,0,0,,10,,,57,127
61772,note_on,0,0,0,,3,,,63,127
61772,note_on,0,0,0,,12,,,83,127
62001,note_off,229,0,0,,3,,,63,127
62002,note_on,1,0,0,,1,,,61,127
62116,note_off,114,0,0,,1,,,61,127
62117,note_on,1,0,0,,12,,,59,127
62231,note_off,114,0,0,,12,,,59,127
62231,note_off,0,0,0,,12,,,83,127
62232,note_on,1,0,0,,3,,,63,127
62232,note_on,0,0,0,,12,,,83,127
62461,note_off,229,0,0,,3,,,63,127
62462,note_on,1,0,0,,1,,,61,127
62576,note_off,114,0,0,,1,,,61,127
62577,note_on,1,0,0,,12,,,59,127
62691,note_off,114,0,0,,12,,,59,127
62691,note_off,0,0,0,,12,,,83,127
62691,note_off,0,0,0,,10,,,57,127
62692,note_on,1,0,0,,4,,,64,127
62692,note_on,0,0,0,,7,,,55,127
62692,note_on,0,0,0,,12,,,83,127
62921,note_off,229,0,0,,12,,,83,127
62922,note_on,1,0,0,,4,,,76,127
63151,note_off,229,0,0,,4,,,76,127
63151,note_off,0,0,0,,7,,,55,127
63151,note_off,0,0,0,,4,,,64,127
63152,note_on,1,0,0,,4,,,64,127
63152,note_on,0,0,0,,7,,,55,127
63152,note_on,0,0,0,,12,,,83,127
63381,note_off,229,0,0,,12,,,83,127
63382,note_on,1,0,0,,0,,,84,127
63611,note_off,229,0,0,,0,,,84,127
63611,note_off,0,0,0,,7,,,55,127
63611,note_off,0,0,0,,4,,,64,127
63612,note_on,1,0,0,,2,,,62,127
63612,note_on,0,0,0,,5,,,53,127
63612,note_on,0,0,0,,2,,,86,127
63841,note_off,229,0,0,,2,,,62,127
63842,note_on,1,0,0,,0,,,60,127
64068,note_off,226,0,0,,5,,,53,127
64072,note_off,4,0,0,,0,,,60,127
64073,note_on,1,0,0,,12,,,59,127
64073,note_on,0,0,0,,5,,,53,127
64302,note_off,229,0,0,,12,,,59,127
64303,note_on,1,0,0,,10,,,57,127
64529,note_off,226,0,0,,5,,,53,127
64533,note_off,4,0,0,,10,,,57,127
64534,note_on,1,0,0,,4,,,52,127
64610,note_off,76,0,0,,2,,,86,127
64611,note_on,1,0,0,,0,,,84,127
64687,note_off,76,0,0,,0,,,84,127
64688,note_on,1,0,0,,12,,,83,127
64764,note_off,76,0,0,,12,,,83,127
64765,note_on,1,0,0,,0,,,84,127
64841,note_off,76,0,0,,0,,,84,127
64842,note_on,1,0,0,,12,,,83,127
64918,note_off,76,0,0,,12,,,83,127
64919,note_on,1,0,0,,10,,,81,127
64995,note_off,76,0,0,,10,,,81,127
64995,note_off,0,0,0,,4,,,52,127
64996,note_on,1,0,0,,4,,,64,127
64996,note_on,0,0,0,,12,,,83,127
65072,note_off,76,0,0,,12,,,83,127
65073,note_on,1,0,0,,10,,,81,127
65149,note_off,76,0,0,,10,,,81,127
65150,note_on,1,0,0,,8,,,80,127
65226,note_off,76,0,0,,8,,,80,127
65227,note_on,1,0,0,,10,,,81,127
65303,note_off,76,0,0,,10,,,81,127
65304,note_on,1,0,0,,8,,,80,127
65380,note_off,76,0,0,,8,,,80,127
65381,note_on,1,0,0,,6,,,78,127
65457,note_off,76,0,0,,6,,,78,127
65458,note_on,1,0,0,,8,,,80,127
65534,note_off,76,0,0,,4,,,64,127
65535,note_on,1,0,0,,2,,,62,127
65611,note_off,76,0,0,,2,,,62,127
65612,note_on,1,0,0,,0,,,60,127
65688,note_off,76,0,0,,0,,,60,127
65689,note_on,1,0,0,,2,,,62,127
65765,note_off,76,0,0,,2,,,62,127
65766,note_on,1,0,0,,0,,,60,127
65842,note_off,76,0,0,,0,,,60,127
65843,note_on,1,0,0,,12,,,59,127
65919,note_off,76,0,0,,12,,,59,127
65919,note_off,0,0,0,,8,,,80,127
65920,note_on,1,0,0,,0,,,60,127
65920,note_on,0,0,0,,10,,,81,127
65996,note_off,76,0,0,,0,,,60,127
65997,note_on,1,0,0,,12,,,59,127
66073,note_off,76,0,0,,12,,,59,127
66074,note_on,1,0,0,,10,,,57,127
66150,note_off,76,0,0,,10,,,57,127
66150,note_off,0,0,0,,10,,,81,127
66151,note_on,1,0,0,,12,,,59,127
66151,note_on,0,0,0,,12,,,83,127
66227,note_off,76,0,0,,12,,,59,127
66228,note_on,1,0,0,,10,,,57,127
66304,note_off,76,0,0,,10,,,57,127
66305,note_on,1,0,0,,8,,,56,127
66381,note_off,76,0,0,,8,,,56,127
66381,note_off,0,0,0,,12,,,83,127
66382,note_on,1,0,0,,10,,,57,127
66382,note_on,0,0,0,,0,,,84,127
66458,note_off,76,0,0,,0,,,84,127
66459,note_on,1,0,0,,12,,,83,127
66535,note_off,76,0,0,,12,,,83,127
66536,note_on,1,0,0,,10,,,81,127
66612,note_off,76,0,0,,10,,,81,127
66612,note_off,0,0,0,,10,,,57,127
66613,note_on,1,0,0,,12,,,59,127
66613,note_on,0,0,0,,12,,,83,127
66689,note_off,76,0,0,,12,,,83,127
66690,note_on,1,0,0,,10,,,81,127
66766,note_off,76,0,0,,10,,,81,127
66767,note_on,1,0,0,,8,,,80,127
66843,note_off,76,0,0,,8,,,80,127
66843,note_off,0,0,0,,12,,,59,127
66844,note_on,1,0,0,,0,,,60,127
66844,note_on,0,0,0,,10,,,81,127
66920,note_off,76,0,0,,10,,,81,127
66921,note_on,1,0,0,,7,,,79,127
66997,note_off,76,0,0,,7,,,79,127
66998,note_on,1,0,0,,5,,,77,127
67074,note_off,76,0,0,,5,,,77,127
67074,note_off,0,0,0,,0,,,60,127
67075,note_on,1,0,0,,10,,,57,127
67075,note_on,0,0,0,,7,,,79,127
67151,note_off,76,0,0,,7,,,79,127
67152,note_on,1,0,0,,5,,,77,127
67228,note_off,76,0,0,,5,,,77,127
67229,note_on,1,0,0,,4,,,76,127
67305,note_off,76,0,0,,4,,,76,127
67305,note_off,0,0,0,,10,,,57,127
67306,note_on,1,0,0,,2,,,62,127
67306,note_on,0,0,0,,5,,,77,127
67382,note_off,76,0,0,,5,,,77,127
67383,note_on,1,0,0,,4,,,76,127
67459,note_off,76,0,0,,4,,,76,127
67460,note_on,1,0,0,,2,,,74,127
67536,note_off,76,0,0,,2,,,74,127
67536,note_off,0,0,0,,2,,,62,127
67537,note_on,1,0,0,,4,,,64,127
67537,note_on,0,0,0,,4,,,76,127
67613,note_off,76,0,0,,4,,,76,127
67614,note_on,1,0,0,,2,,,74,127
67690,note_off,76,0,0,,2,,,74,127
67691,note_on,1,0,0,,0,,,72,127
67767,note_off,76,0,0,,0,,,72,127
67767,note_off,0,0,0,,4,,,64,127
67768,note_on,1,0,0,,5,,,65,127
67768,note_on,0,0,0,,2,,,74,127
67844,note_off,76,0,0,,2,,,74,127
67845,note_on,1,0,0,,0,,,72,127
67921,note_off,76,0,0,,0,,,72,127
67922,note_on,1,0,0,,12,,,71,127
67998,note_off,76,0,0,,12,,,71,127
67998,note_off,0,0,0,,5,,,65,127
67999,note_on,1,0,0,,2,,,62,127
67999,note_on,0,0,0,,0,,,72,127
68075,note_off,76,0,0,,0,,,72,127
68076,note_on,1,0,0,,12,,,71,127
68152,note_off,76,0,0,,12,,,71,127
68153,note_on,1,0,0,,10,,,69,127
68229,note_off,76,0,0,,10,,,69,127
68229,note_off,0,0,0,,2,,,62,127
68230,note_on,1,0,0,,7,,,67,127
68230,note_on,0,0,0,,12,,,71,127
68306,note_off,76,0,0,,7,,,67,127
68307,note_on,1,0,0,,5,,,65,127
68383,note_off,76,0,0,,5,,,65,127
68384,note_on,1,0,0,,4,,,64,127
68460,note_off,76,0,0,,4,,,64,127
68461,note_on,1,0,0,,5,,,65,127
68537,note_off,76,0,0,,5,,,65,127
68538,note_on,1,0,0,,4,,,64,127
68614,note_off,76,0,0,,4,,,64,127
68615,note_on,1,0,0,,2,,,62,127
68691,note_off,76,0,0,,2,,,62,127
68691,note_off,0,0,0,,12,,,71,127
68692,note_on,1,0,0,,4,,,64,127
68692,note_on,0,0,0,,0,,,72,127
68768,note_off,76,0,0,,4,,,64,127
68769,note_on,1,0,0,,2,,,62,127
68845,note_off,76,0,0,,2,,,62,127
68846,note_on,1,0,0,,0,,,60,127
68922,note_off,76,0,0,,0,,,60,127
68922,note_off,0,0,0,,0,,,72,127
68923,note_on,1,0,0,,2,,,62,127
68923,note_on,0,0,0,,2,,,74,127
68999,note_off,76,0,0,,2,,,62,127
69000,note_on,1,0,0,,0,,,60,127
69076,note_off,76,0,0,,0,,,60,127
69077,note_on,1,0,0,,12,,,59,127
69153,note_off,76,0,0,,12,,,59,127
69153,note_off,0,0,0,,2,,,74,127
69154,note_on,1,0,0,,11,,,58,127
69154,note_on,0,0,0,,0,,,48,127
69154,note_on,0,0,0,,4,,,76,127
69383,note_off,229,0,0,,0,,,48,127
69383,note_off,0,0,0,,11,,,58,127
69384,note_on,1,0,0,,11,,,58,127
69384,note_on,0,0,0,,0,,,48,127
69613,note_off,229,0,0,,0,,,48,127
69613,note_off,0,0,0,,11,,,58,127
69614,note_on,1,0,0,,11,,,58,127
69614,note_on,0,0,0,,0,,,48,127
69728,note_off,114,0,0,,4,,,76,127
69729,note_on,1,0,0,,10,,,81,127
69843,note_off,114,0,0,,10,,,81,127
69843,note_off,0,0,0,,0,,,48,127
69843,note_off,0,0,0,,11,,,58,127
69844,note_on,1,0,0,,11,,,58,127
69844,note_on,0,0,0,,0,,,48,127
69844,note_on,0,0,0,,7,,,79,127
69958,note_off,114,0,0,,7,,,79,127
69959,note_on,1,0,0,,5,,,77,127
70073,note_off,114,0,0,,5,,,77,127
70073,note_off,0,0,0,,0,,,48,127
70073,note_off,0,0,0,,11,,,58,127
70074,note_on,1,0,0,,10,,,57,127
70074,note_on,0,0,0,,1,,,49,127
70074,note_on,0,0,0,,4,,,76,127
70303,note_off,229,0,0,,1,,,49,127
70303,note_off,0,0,0,,10,,,57,127
70304,note_on,1,0,0,,1,,,49,127
70304,note_on,0,0,0,,10,,,57,127
70533,note_off,229,0,0,,10,,,57,127
70533,note_off,0,0,0,,1,,,49,127
70534,note_on,1,0,0,,10,,,57,127
70534,note_on,0,0,0,,1,,,49,127
70648,note_off,114,0,0,,4,,,76,127
70649,note_on,1,0,0,,0,,,84,127
70763,note_off,114,0,0,,0,,,84,127
70763,note_off,0,0,0,,1,,,49,127
70763,note_off,0,0,0,,10,,,57,127
70764,note_on,1,0,0,,10,,,57,127
70764,note_on,0,0,0,,1,,,49,127
70764,note_on,0,0,0,,11,,,82,127
70878,note_off,114,0,0,,11,,,82,127
70879,note_on,1,0,0,,10,,,81,127
70993,note_off,114,0,0,,10,,,81,127
70993,note_off,0,0,0,,1,,,49,127
70993,note_off,0,0,0,,10,,,57,127
70994,note_on,1,0,0,,11,,,58,127
70994,note_on,0,0,0,,2,,,50,127
70994,note_on,0,0,0,,7,,,79,127
71223,note_off,229,0,0,,2,,,50,127
71223,note_off,0,0,0,,11,,,58,127
71224,note_on,1,0,0,,11,,,58,127
71224,note_on,0,0,0,,2,,,50,127
71453,note_off,229,0,0,,2,,,50,127
71453,note_off,0,0,0,,11,,,58,127
71454,note_on,1,0,0,,2,,,62,127
71454,note_on,0,0,0,,11,,,58,127
71454,note_on,0,0,0,,2,,,50,127
71568,note_off,114,0,0,,7,,,79,127
71569,note_on,1,0,0,,0,,,84,127
71683,note_off,114,0,0,,0,,,84,127
71683,note_off,0,0,0,,2,,,50,127
71683,note_off,0,0,0,,11,,,58,127
71683,note_off,0,0,0,,2,,,62,127
71684,note_on,1,0,0,,11,,,58,127
71684,note_on,0,0,0,,2,,,62,127
71684,note_on,0,0,0,,2,,,50,127
71684,note_on,0,0,0,,11,,,82,127
71798,note_off,114,0,0,,11,,,82,127
71799,note_on,1,0,0,,10,,,81,127
71913,note_off,114,0,0,,10,,,81,127
71913,note_off,0,0,0,,2,,,50,127
71913,note_off,0,0,0,,2,,,62,127
71913,note_off,0,0,0,,11,,,58,127
71914,note_on,1,0,0,,1,,,61,127
71914,note_on,0,0,0,,10,,,57,127
71914,note_on,0,0,0,,7,,,55,127
71914,note_on,0,0,0,,4,,,52,127
71914,note_on,0,0,0,,7,,,79,127
72143,note_off,229,0,0,,4,,,52,127
72143,note_off,0,0,0,,7,,,55,127
72143,note_off,0,0,0,,10,,,57,127
72143,note_off,0,0,0,,1,,,61,127
72144,note_on,1,0,0,,7,,,55,127
72144,note_on,0,0,0,,10,,,57,127
72144,note_on,0,0,0,,1,,,61,127
72144,note_on,0,0,0,,4,,,52,127
72373,note_off,229,0,0,,4,,,52,127
72373,note_off,0,0,0,,1,,,61,127
72373,note_off,0,0,0,,10,,,57,127
72373,note_off,0,0,0,,7,,,55,127
72374,note_on,1,0,0,,1,,,61,127
72374,note_on,0,0,0,,7,,,55,127
72374,note_on,0,0,0,,10,,,57,127
72374,note_on,0,0,0,,4,,,52,127
72488,note_off,114,0,0,,7,,,79,127
72489,note_on,1,0,0,,11,,,82,127
72603,note_off,114,0,0,,11,,,82,127
72603,note_off,0,0,0,,4,,,52,127
72603,note_off,0,0,0,,10,,,57,127
72603,note_off,0,0,0,,7,,,55,127
72603,note_off,0,0,0,,1,,,61,127
72604,note_on,1,0,0,,1,,,61,127
72604,note_on,0,0,0,,7,,,55,127
72604,note_on,0,0,0,,10,,,57,127
72604,note_on,0,0,0,,4,,,52,127
72604,note_on,0,0,0,,10,,,81,127
72718,note_off,114,0,0,,10,,,81,127
72719,note_on,1,0,0,,7,,,79,127
72833,note_off,114,0,0,,7,,,79,127
72833,note_off,0,0,0,,4,,,52,127
72833,note_off,0,0,0,,10,,,57,127
72833,note_off,0,0,0,,7,,,55,127
72833,note_off,0,0,0,,1,,,61,127
72834,note_on,1,0,0,,2,,,62,127
72834,note_on,0,0,0,,5,,,53,127
72834,note_on,0,0,0,,10,,,81,127
72910,note_off,76,0,0,,10,,,81,127
72911,note_on,1,0,0,,7,,,79,127
72987,note_off,76,0,0,,7,,,79,127
72988,note_on,1,0,0,,5,,,77,127
73064,note_off,76,0,0,,5,,,77,127
73065,note_on,1,0,0,,7,,,79,127
73141,note_off,76,0,0,,7,,,79,127
73142,note_on,1,0,0,,5,,,77,127
73218,note_off,76,0,0,,5,,,77,127
73219,note_on,1,0,0,,4,,,76,127
73295,note_off,76,0,0,,4,,,76,127
73296,note_on,1,0,0,,5,,,77,127
73372,note_off,76,0,0,,5,,,77,127
73373,note_on,1,0,0,,4,,,76,127
73449,note_off,76,0,0,,4,,,76,127
73450,note_on,1,0,0,,2,,,74,127
73526,note_off,76,0,0,,2,,,74,127
73526,note_off,0,0,0,,5,,,53,127
73526,note_off,0,0,0,,2,,,62,127
73527,note_on,1,0,0,,2,,,62,127
73527,note_on,0,0,0,,5,,,53,127
73527,note_on,0,0,0,,4,,,76,127
73603,note_off,76,0,0,,4,,,76,127
73604,note_on,1,0,0,,2,,,74,127
73680,note_off,76,0,0,,2,,,74,127
73681,note_on,1,0,0,,0,,,72,127
73757,note_off,76,0,0,,0,,,72,127
73757,note_off,0,0,0,,5,,,53,127
73757,note_off,0,0,0,,2,,,62,127
73758,note_on,1,0,0,,7,,,55,127
73758,note_on,0,0,0,,7,,,67,127
73758,note_on,0,0,0,,10,,,81,127
73758,note_on,0,0,0,,11,,,70,127
73987,note_off,229,0,0,,10,,,81,127
73987,note_off,0,0,0,,7,,,67,127
73987,note_off,0,0,0,,7,,,55,127
73988,note_on,1,0,0,,7,,,67,127
73988,note_on,0,0,0,,7,,,55,127
73988,note_on,0,0,0,,7,,,79,127
74217,note_off,229,0,0,,7,,,55,127
74217,note_off,0,0,0,,7,,,67,127
74218,note_on,1,0,0,,7,,,67,127
74218,note_on,0,0,0,,11,,,58,127
74447,note_off,229,0,0,,11,,,58,127
74447,note_off,0,0,0,,7,,,67,127
74447,note_off,0,0,0,,7,,,79,127
74448,note_on,1,0,0,,7,,,67,127
74448,note_on,0,0,0,,11,,,58,127
74448,note_on,0,0,0,,5,,,77,127
74677,note_off,229,0,0,,5,,,77,127
74677,note_off,0,0,0,,11,,,58,127
74677,note_off,0,0,0,,7,,,67,127
74677,note_off,0,0,0,,11,,,70,127
74678,note_on,1,0,0,,0,,,48,127
74678,note_on,0,0,0,,7,,,79,127
74754,note_off,76,0,0,,7,,,79,127
74755,note_on,1,0,0,,5,,,77,127
74831,note_off,76,0,0,,5,,,77,127
74832,note_on,1,0,0,,4,,,76,127
74908,note_off,76,0,0,,4,,,76,127
74909,note_on,1,0,0,,5,,,77,127
74985,note_off,76,0,0,,5,,,77,127
74986,note_on,1,0,0,,4,,,76,127
75062,note_off,76,0,0,,4,,,76,127
75063,note_on,1,0,0,,2,,,74,127
75139,note_off,76,0,0,,2,,,74,127
75139,note_off,0,0,0,,0,,,48,127
75140,note_on,1,0,0,,0,,,60,127
75140,note_on,0,0,0,,4,,,76,127
75216,note_off,76,0,0,,4,,,76,127
75217,note_on,1,0,0,,2,,,74,127
75293,note_off,76,0,0,,2,,,74,127
75294,note_on,1,0,0,,0,,,72,127
75370,note_off,76,0,0,,0,,,72,127
75371,note_on,1,0,0,,2,,,74,127
75447,note_off,76,0,0,,2,,,74,127
75448,note_on,1,0,0,,0,,,72,127
75524,note_off,76,0,0,,0,,,72,127
75525,note_on,1,0,0,,11,,,70,127
75601,note_off,76,0,0,,11,,,70,127
75601,note_off,0,0,0,,0,,,60,127
75602,note_on,1,0,0,,5,,,65,127
75602,note_on,0,0,0,,5,,,53,127
75602,note_on,0,0,0,,7,,,79,127
75602,note_on,0,0,0,,10,,,69,127
75831,note_off,229,0,0,,7,,,79,127
75831,note_off,0,0,0,,5,,,53,127
75831,note_off,0,0,0,,5,,,65,127
75832,note_on,1,0,0,,4,,,52,127
75832,note_on,0,0,0,,4,,,64,127
75832,note_on,0,0,0,,5,,,77,127
76061,note_off,229,0,0,,4,,,64,127
76061,note_off,0,0,0,,4,,,52,127
76062,note_on,1,0,0,,2,,,62,127
76062,note_on,0,0,0,,2,,,50,127
76291,note_off,229,0,0,,2,,,50,127
76291,note_off,0,0,0,,2,,,62,127
76291,note_off,0,0,0,,5,,,77,127
76292,note_on,1,0,0,,0,,,60,127
76292,note_on,0,0,0,,0,,,48,127
76292,note_on,0,0,0,,4,,,76,127
76521,note_off,229,0,0,,4,,,76,127
76521,note_off,0,0,0,,0,,,48,127
76521,note_off,0,0,0,,0,,,60,127
76521,note_off,0,0,0,,10,,,69,127
76522,note_on,1,0,0,,11,,,58,127
76522,note_on,0,0,0,,11,,,46,127
76522,note_on,0,0,0,,2,,,74,127
76598,note_off,76,0,0,,2,,,74,127
76599,note_on,1,0,0,,0,,,72,127
76675,note_off,76,0,0,,0,,,72,127
76676,note_on,1,0,0,,11,,,70,127
76752,note_off,76,0,0,,11,,,70,127
76752,note_off,0,0,0,,11,,,46,127
76752,note_off,0,0,0,,11,,,58,127
76753,note_on,1,0,0,,10,,,57,127
76753,note_on,0,0,0,,10,,,45,127
76753,note_on,0,0,0,,0,,,72,127
76829,note_off,76,0,0,,0,,,72,127
76830,note_on,1,0,0,,11,,,70,127
76906,note_off,76,0,0,,11,,,70,127
76907,note_on,1,0,0,,10,,,69,127
76983,note_off,76,0,0,,10,,,69,127
76983,note_off,0,0,0,,10,,,45,127
76983,note_off,0,0,0,,10,,,57,127
76984,note_on,1,0,0,,7,,,55,127
76984,note_on,0,0,0,,7,,,43,127
76984,note_on,0,0,0,,11,,,70,127
77060,note_off,76,0,0,,11,,,70,127
77061,note_on,1,0,0,,10,,,69,127
77137,note_off,76,0,0,,10,,,69,127
77138,note_on,1,0,0,,7,,,67,127
77214,note_off,76,0,0,,7,,,67,127
77214,note_off,0,0,0,,7,,,43,127
77214,note_off,0,0,0,,7,,,55,127
77215,note_on,1,0,0,,5,,,41,127
77215,note_on,0,0,0,,5,,,53,127
77215,note_on,0,0,0,,10,,,69,127
77291,note_off,76,0,0,,10,,,69,127
77292,note_on,1,0,0,,7,,,67,127
77368,note_off,76,0,0,,7,,,67,127
77369,note_on,1,0,0,,5,,,65,127
77445,note_off,76,0,0,,5,,,65,127
77445,note_off,0,0,0,,5,,,53,127
77445,note_off,0,0,0,,5,,,41,127
77446,note_on,1,0,0,,0,,,36,127
77446,note_on,0,0,0,,7,,,79,127
77675,note_off,229,0,0,,7,,,79,127
77676,note_on,1,0,0,,0,,,72,127
77905,note_off,229,0,0,,0,,,72,127
77906,note_on,1,0,0,,7,,,79,127
78250,note_off,344,0,0,,7,,,79,127
78251,note_on,1,0,0,,10,,,81,127
78307,note_off,56,0,0,,10,,,81,127
78308,note_on,1,0,0,,5,,,77,127
78364,note_off,56,0,0,,5,,,77,127
78364,note_off,0,0,0,,0,,,36,127
78365,note_on,1,0,0,,0,,,36,127
78365,note_on,0,0,0,,7,,,79,127
78594,note_off,229,0,0,,7,,,79,127
78595,note_on,1,0,0,,0,,,84,127
78824,note_off,229,0,0,,0,,,84,127
78825,note_on,1,0,0,,10,,,81,127
78881,note_off,56,0,0,,10,,,81,127
78882,note_on,1,0,0,,7,,,79,127
78938,note_off,56,0,0,,7,,,79,127
78939,note_on,1,0,0,,10,,,81,127
78995,note_off,56,0,0,,10,,,81,127
78996,note_on,1,0,0,,7,,,79,127
79052,note_off,56,0,0,,7,,,79,127
79053,note_on,1,0,0,,10,,,81,127
79109,note_off,56,0,0,,10,,,81,127
79110,note_on,1,0,0,,7,,,79,127
79166,note_off,56,0,0,,7,,,79,127
79167,note_on,1,0,0,,10,,,81,127
79223,note_off,56,0,0,,10,,,81,127
79224,note_on,1,0,0,,5,,,77,127
79280,note_off,56,0,0,,5,,,77,127
79280,note_off,0,0,0,,0,,,36,127
79281,note_on,1,0,0,,0,,,36,127
79281,note_on,0,0,0,,7,,,79,127
79357,note_off,76,0,0,,7,,,79,127
79358,note_on,1,0,0,,10,,,81,127
79418,note_off,60,0,0,,10,,,81,127
79435,note_on,17,0,0,,5,,,77,127
79495,note_off,60,0,0,,5,,,77,127
79512,note_on,17,0,0,,7,,,79,127
79588,note_off,76,0,0,,7,,,79,127
79589,note_on,1,0,0,,10,,,81,127
79649,note_off,60,0,0,,10,,,81,127
79666,note_on,17,0,0,,5,,,77,127
79726,note_off,60,0,0,,5,,,77,127
79742,note_off,16,0,0,,0,,,36,127
79743,note_on,1,0,0,,0,,,36,127
79743,note_on,0,0,0,,7,,,79,127
79819,note_off,76,0,0,,7,,,79,127
79820,note_on,1,0,0,,10,,,81,127
79880,note_off,60,0,0,,10,,,81,127
79897,note_on,17,0,0,,5,,,77,127
79957,note_off,60,0,0,,5,,,77,127
79974,note_on,17,0,0,,7,,,79,127
80050,note_off,76,0,0,,7,,,79,127
80051,note_on,1,0,0,,10,,,81,127
80111,note_off,60,0,0,,10,,,81,127
80128,note_on,17,0,0,,5,,,77,127
80188,note_off,60,0,0,,5,,,77,127
80204,note_off,16,0,0,,0,,,36,127
80205,note_on,1,0,0,,0,,,36,127
80205,note_on,0,0,0,,10,,,81,127
80242,note_off,37,0,0,,10,,,81,127
80243,note_on,1,0,0,,7,,,79,127
80280,note_off,37,0,0,,7,,,79,127
80281,note_on,1,0,0,,10,,,81,127
80318,note_off,37,0,0,,10,,,81,127
80319,note_on,1,0,0,,7,,,79,127
81009,note_off,690,0,0,,7,,,79,127
81124,note_off,115,0,0,,0,,,36,127
81125,note_on,1,0,0,,5,,,41,127
81125,note_on,0,0,0,,10,,,81,127
81239,note_off,114,0,0,,10,,,81,127
81240,note_on,1,0,0,,5,,,77,127
81354,note_off,114,0,0,,5,,,77,127
81355,note_on,1,0,0,,0,,,72,127
81469,note_off,114,0,0,,0,,,72,127
81470,note_on,1,0,0,,10,,,69,127
81584,note_off,114,0,0,,10,,,69,127
81585,note_on,1,0,0,,5,,,65,127
81814,note_off,229,0,0,,5,,,65,127
81814,note_off,0,0,0,,5,,,41,127
81815,note_on,1,0,0,,0,,,48,127
81815,note_on,0,0,0,,11,,,82,127
81815,note_on,0,0,0,,7,,,79,127
82044,note_off,229,0,0,,7,,,79,127
82044,note_off,0,0,0,,11,,,82,127
82044,note_off,0,0,0,,0,,,48,127
82045,note_on,1,0,0,,5,,,53,127
82045,note_on,0,0,0,,10,,,81,127
82159,note_off,114,0,0,,10,,,81,127
82160,note_on,1,0,0,,5,,,77,127
82274,note_off,114,0,0,,5,,,77,127
82275,note_on,1,0,0,,0,,,72,127
82389,note_off,114,0,0,,0,,,72,127
82390,note_on,1,0,0,,10,,,69,127
82504,note_off,114,0,0,,10,,,69,127
82505,note_on,1,0,0,,5,,,65,127
82734,note_off,229,0,0,,5,,,65,127
82734,note_off,0,0,0,,5,,,53,127
82735,note_on,1,0,0,,0,,,48,127
82735,note_on,0,0,0,,4,,,76,127
82735,note_on,0,0,0,,7,,,79,127
82964,note_off,229,0,0,,7,,,79,127
82964,note_off,0,0,0,,4,,,76,127
82964,note_off,0,0,0,,0,,,48,127
82965,note_on,1,0,0,,5,,,41,127
82965,note_on,0,0,0,,10,,,81,127
83079,note_off,114,0,0,,10,,,81,127
83080,note_on,1,0,0,,5,,,77,127
83194,note_off,114,0,0,,5,,,77,127
83195,note_on,1,0,0,,0,,,72,127
83309,note_off,114,0,0,,0,,,72,127
83310,note_on,1,0,0,,10,,,69,127
83424,note_off,114,0,0,,10,,,69,127
83425,note_on,1,0,0,,5,,,65,127
83654,note_off,229,0,0,,5,,,65,127
83654,note_off,0,0,0,,5,,,41,127
83655,note_on,1,0,0,,0,,,48,127
83655,note_on,0,0,0,,7,,,79,127
83655,note_on,0,0,0,,11,,,82,127
83884,note_off,229,0,0,,11,,,82,127
83884,note_off,0,0,0,,7,,,79,127
83884,note_off,0,0,0,,0,,,48,127
83885,note_on,1,0,0,,5,,,65,127
83885,note_on,0,0,0,,10,,,81,127
83885,note_on,0,0,0,,5,,,77,127
83885,note_on,0,0,0,,0,,,72,127
83999,note_off,114,0,0,,5,,,65,127
84000,note_on,1,0,0,,0,,,60,127
84114,note_off,114,0,0,,0,,,60,127
84115,note_on,1,0,0,,10,,,57,127
84229,note_off,114,0,0,,10,,,57,127
84230,note_on,1,0,0,,5,,,53,127
84344,note_off,114,0,0,,5,,,53,127
84345,note_on,1,0,0,,0,,,48,127
84574,note_off,229,0,0,,0,,,48,127
84574,note_off,0,0,0,,0,,,72,127
84574,note_off,0,0,0,,5,,,77,127
84574,note_off,0,0,0,,10,,,81,127
84575,note_on,1,0,0,,4,,,64,127
84575,note_on,0,0,0,,11,,,82,127
84575,note_on,0,0,0,,7,,,79,127
84575,note_on,0,0,0,,4,,,76,127
84575,note_on,0,0,0,,0,,,72,127
84804,note_off,229,0,0,,0,,,72,127
84804,note_off,0,0,0,,4,,,76,127
84804,note_off,0,0,0,,7,,,79,127
84804,note_off,0,0,0,,11,,,82,127
84804,note_off,0,0,0,,4,,,64,127
84805,note_on,1,0,0,,5,,,65,127
84805,note_on,0,0,0,,5,,,77,127
84805,note_on,0,0,0,,0,,,72,127
84805,note_on,0,0,0,,10,,,81,127
84919,note_off,114,0,0,,5,,,65,127
84920,note_on,1,0,0,,0,,,60,127
85034,note_off,114,0,0,,0,,,60,127
85035,note_on,1,0,0,,10,,,57,127
85149,note_off,114,0,0,,10,,,57,127
85150,note_on,1,0,0,,5,,,53,127
85264,note_off,114,0,0,,5,,,53,127
85265,note_on,1,0,0,,0,,,48,127
85494,note_off,229,0,0,,0,,,48,127
85494,note_off,0,0,0,,10,,,81,127
85494,note_off,0,0,0,,0,,,72,127
85494,note_off,0,0,0,,5,,,77,127
85495,note_on,1,0,0,,4,,,64,127
85495,note_on,0,0,0,,11,,,82,127
85495,note_on,0,0,0,,7,,,79,127
85495,note_on,0,0,0,,4,,,76,127
85495,note_on,0,0,0,,0,,,72,127
85724,note_off,229,0,0,,0,,,72,127
85724,note_off,0,0,0,,4,,,76,127
85724,note_off,0,0,0,,7,,,79,127
85724,note_off,0,0,0,,11,,,82,127
85724,note_off,0,0,0,,4,,,64,127
85725,note_on,1,0,0,,5,,,65,127
85725,note_on,0,0,0,,10,,,81,127
85725,note_on,0,0,0,,5,,,77,127
85725,note_on,0,0,0,,0,,,72,127
85839,note_off,114,0,0,,5,,,65,127
85840,note_on,1,0,0,,0,,,60,127
85954,note_off,114,0,0,,0,,,60,127
85955,note_on,1,0,0,,10,,,57,127
86069,note_off,114,0,0,,10,,,57,127
86070,note_on,1,0,0,,5,,,53,127
86184,note_off,114,0,0,,5,,,53,127
86185,note_on,1,0,0,,0,,,48,127
86414,note_off,229,0,0,,0,,,48,127
86414,note_off,0,0,0,,0,,,72,127
86414,note_off,0,0,0,,5,,,77,127
86414,note_off,0,0,0,,10,,,81,127
86415,note_on,1,0,0,,4,,,64,127
86415,note_on,0,0,0,,7,,,79,127
86415,note_on,0,0,0,,11,,,82,127
86415,note_on,0,0,0,,4,,,76,127
86415,note_on,0,0,0,,0,,,72,127
86644,note_off,229,0,0,,0,,,72,127
86644,note_off,0,0,0,,4,,,76,127
86644,note_off,0,0,0,,11,,,82,127
86644,note_off,0,0,0,,7,,,79,127
86644,note_off,0,0,0,,4,,,64,127
86645,note_on,1,0,0,,5,,,65,127
86645,note_on,0,0,0,,0,,,72,127
86645,note_on,0,0,0,,5,,,77,127
86645,note_on,0,0,0,,10,,,81,127
86759,note_off,114,0,0,,5,,,65,127
86760,note_on,1,0,0,,0,,,60,127
86874,note_off,114,0,0,,0,,,60,127
86875,note_on,1,0,0,,10,,,57,127
86989,note_off,114,0,0,,10,,,57,127
86990,note_on,1,0,0,,5,,,53,127
87104,note_off,114,0,0,,5,,,53,127
87105,note_on,1,0,0,,5,,,41,127
87334,note_off,229,0,0,,5,,,41,127
87334,note_off,0,0,0,,10,,,81,127
87334,note_off,0,0,0,,5,,,77,127
87334,note_off,0,0,0,,0,,,72,127
87335,note_on,1,0,0,,5,,,41,127
87564,note_off,229,0,0,,5,,,41,127
87565,note_on,1,0,0,,5,,,41,127
87680,note_on,115,0,0,,0,,,84,127
87794,note_off,114,0,0,,0,,,84,127
87795,note_on,1,0,0,,10,,,81,127
87909,note_off,114,0,0,,10,,,81,127
87910,note_on,1,0,0,,5,,,77,127
88024,note_off,114,0,0,,5,,,77,127
88025,note_on,1,0,0,,5,,,77,127
88081,note_off,56,0,0,,5,,,77,127
88082,note_on,1,0,0,,3,,,75,127
88138,note_off,56,0,0,,3,,,75,127
88139,note_on,1,0,0,,5,,,77,127
88195,note_off,56,0,0,,5,,,77,127
88196,note_on,1,0,0,,3,,,75,127
88252,note_off,56,0,0,,3,,,75,127
88252,note_off,0,0,0,,5,,,41,127
88253,note_on,1,0,0,,5,,,53,127
88253,note_on,0,0,0,,5,,,77,127
88309,note_off,56,0,0,,5,,,77,127
88310,note_on,1,0,0,,3,,,75,127
88366,note_off,56,0,0,,3,,,75,127
88367,note_on,1,0,0,,2,,,74,127
88423,note_off,56,0,0,,2,,,74,127
88424,note_on,1,0,0,,0,,,72,127
88480,note_off,56,0,0,,0,,,72,127
88480,note_off,0,0,0,,5,,,53,127
88481,note_on,1,0,0,,11,,,58,127
88481,note_on,0,0,0,,2,,,74,127
88595,note_off,114,0,0,,2,,,74,127
88596,note_on,1,0,0,,5,,,77,127
88710,note_off,114,0,0,,5,,,77,127
88711,note_on,1,0,0,,4,,,76,127
88940,note_off,229,0,0,,11,,,58,127
88941,note_on,1,0,0,,11,,,70,127
89170,note_off,229,0,0,,4,,,76,127
89171,note_on,1,0,0,,2,,,86,127
89285,note_off,114,0,0,,2,,,86,127
89286,note_on,1,0,0,,11,,,82,127
89400,note_off,114,0,0,,11,,,82,127
89400,note_off,0,0,0,,11,,,70,127
89401,note_on,1,0,0,,0,,,72,127
89401,note_on,0,0,0,,11,,,82,127
89515,note_off,114,0,0,,11,,,82,127
89516,note_on,1,0,0,,10,,,81,127
89630,note_off,114,0,0,,10,,,81,127
89631,note_on,1,0,0,,7,,,79,127
89745,note_off,114,0,0,,7,,,79,127
89746,note_on,1,0,0,,5,,,77,127
89860,note_off,114,0,0,,5,,,77,127
89860,note_off,0,0,0,,0,,,72,127
89861,note_on,1,0,0,,0,,,60,127
89861,note_on,0,0,0,,10,,,81,127
89975,note_off,114,0,0,,10,,,81,127
89976,note_on,1,0,0,,7,,,79,127
90090,note_off,114,0,0,,7,,,79,127
90091,note_on,1,0,0,,5,,,77,127
90205,note_off,114,0,0,,5,,,77,127
90206,note_on,1,0,0,,4,,,76,127
90320,note_off,114,0,0,,4,,,76,127
90320,note_off,0,0,0,,0,,,60,127
90321,note_on,1,0,0,,5,,,65,127
90321,note_on,0,0,0,,5,,,77,127
90435,note_off,114,0,0,,5,,,65,127
90436,note_on,1,0,0,,0,,,60,127
90550,note_off,114,0,0,,0,,,60,127
90551,note_on,1,0,0,,10,,,57,127
90665,note_off,114,0,0,,10,,,57,127
90666,note_on,1,0,0,,5,,,53,127
90780,note_off,114,0,0,,5,,,53,127
90781,note_on,1,0,0,,5,,,41,127
91010,note_off,229,0,0,,5,,,41,127
91011,note_on,1,0,0,,5,,,41,127
91240,note_off,229,0,0,,5,,,41,127
91241,note_on,1,0,0,,5,,,41,127
91355,note_off,114,0,0,,5,,,77,127
91356,note_on,1,0,0,,0,,,84,127
91470,note_off,114,0,0,,0,,,84,127
91471,note_on,1,0,0,,10,,,81,127
91585,note_off,114,0,0,,10,,,81,127
91586,note_on,1,0,0,,5,,,77,127
91700,note_off,114,0,0,,5,,,77,127
91701,note_on,1,0,0,,5,,,77,127
91757,note_off,56,0,0,,5,,,77,127
91758,note_on,1,0,0,,3,,,75,127
91814,note_off,56,0,0,,3,,,75,127
91815,note_on,1,0,0,,5,,,77,127
91871,note_off,56,0,0,,5,,,77,127
91872,note_on,1,0,0,,3,,,75,127
91928,note_off,56,0,0,,3,,,75,127
91929,note_on,1,0,0,,5,,,77,127
91985,note_off,56,0,0,,5,,,77,127
91986,note_on,1,0,0,,3,,,75,127
92042,note_off,56,0,0,,3,,,75,127
92043,note_on,1,0,0,,2,,,74,127
92099,note_off,56,0,0,,2,,,74,127
92100,note_on,1,0,0,,3,,,75,127
92156,note_off,56,0,0,,3,,,75,127
92156,note_off,0,0,0,,5,,,41,127
92157,note_on,1,0,0,,11,,,46,127
92157,note_on,0,0,0,,2,,,74,127
92233,note_off,76,0,0,,2,,,74,127
92234,note_on,1,0,0,,4,,,76,127
92310,note_off,76,0,0,,4,,,76,127
92311,note_on,1,0,0,,5,,,77,127
92387,note_off,76,0,0,,5,,,77,127
92388,note_on,1,0,0,,7,,,67,127
92617,note_off,229,0,0,,11,,,46,127
92618,note_on,1,0,0,,11,,,58,127
92847,note_off,229,0,0,,7,,,67,127
92848,note_on,1,0,0,,2,,,74,127
92962,note_off,114,0,0,,2,,,74,127
92963,note_on,1,0,0,,11,,,70,127
93077,note_off,114,0,0,,11,,,70,127
93077,note_off,0,0,0,,11,,,58,127
93078,note_on,1,0,0,,0,,,60,127
93078,note_on,0,0,0,,11,,,70,127
93192,note_off,114,0,0,,11,,,70,127
93193,note_on,1,0,0,,10,,,69,127
93307,note_off,114,0,0,,10,,,69,127
93308,note_on,1,0,0,,7,,,67,127
93422,note_off,114,0,0,,7,,,67,127
93423,note_on,1,0,0,,5,,,65,127
93537,note_off,114,0,0,,5,,,65,127
93537,note_off,0,0,0,,0,,,60,127
93538,note_on,1,0,0,,0,,,48,127
93538,note_on,0,0,0,,10,,,69,127
93652,note_off,114,0,0,,10,,,69,127
93653,note_on,1,0,0,,7,,,67,127
93767,note_off,114,0,0,,7,,,67,127
93768,note_on,1,0,0,,5,,,65,127
93882,note_off,114,0,0,,5,,,65,127
93883,note_on,1,0,0,,4,,,64,127
93997,note_off,114,0,0,,4,,,64,127
93997,note_off,0,0,0,,0,,,48,127
93998,note_on,1,0,0,,5,,,41,127
93998,note_on,0,0,0,,5,,,65,127
94074,note_off,76,0,0,,5,,,65,127
94075,note_on,1,0,0,,7,,,67,127
94151,note_off,76,0,0,,7,,,67,127
94153,note_on,2,0,0,,10,,,69,127
94229,note_off,76,0,0,,10,,,69,127
94230,note_on,1,0,0,,7,,,67,127
94306,note_off,76,0,0,,7,,,67,127
94308,note_on,2,0,0,,10,,,69,127
94384,note_off,76,0,0,,10,,,69,127
94385,note_on,1,0,0,,11,,,70,127
94458,note_off,73,0,0,,5,,,41,127
94460,note_off,2,0,0,,11,,,70,127
94462,note_on,2,0,0,,10,,,69,127
94462,note_on,0,0,0,,5,,,41,127
94538,note_off,76,0,0,,10,,,69,127
94540,note_on,2,0,0,,11,,,70,127
94616,note_off,76,0,0,,11,,,70,127
94617,note_on,1,0,0,,0,,,72,127
94693,note_off,76,0,0,,0,,,72,127
94695,note_on,2,0,0,,11,,,70,127
94771,note_off,76,0,0,,11,,,70,127
94773,note_on,2,0,0,,0,,,72,127
94849,note_off,76,0,0,,0,,,72,127
94850,note_on,1,0,0,,2,,,74,127
94922,note_off,72,0,0,,5,,,41,127
94926,note_off,4,0,0,,2,,,74,127
94928,note_on,2,0,0,,0,,,72,127
94928,note_on,0,0,0,,5,,,41,127
95004,note_off,76,0,0,,0,,,72,127
95006,note_on,2,0,0,,2,,,74,127
95082,note_off,76,0,0,,2,,,74,127
95083,note_on,1,0,0,,4,,,76,127
95159,note_off,76,0,0,,4,,,76,127
95161,note_on,2,0,0,,2,,,74,127
95237,note_off,76,0,0,,2,,,74,127
95239,note_on,2,0,0,,4,,,76,127
95315,note_off,76,0,0,,4,,,76,127
95316,note_on,1,0,0,,5,,,77,127
95388,note_off,72,0,0,,5,,,41,127
95392,note_off,4,0,0,,5,,,77,127
95394,note_on,2,0,0,,4,,,76,127
95394,note_on,0,0,0,,5,,,41,127
95470,note_off,76,0,0,,4,,,76,127
95471,note_on,1,0,0,,5,,,77,127
95547,note_off,76,0,0,,5,,,77,127
95549,note_on,2,0,0,,7,,,79,127
95625,note_off,76,0,0,,7,,,79,127
95627,note_on,2,0,0,,7,,,79,127
95703,note_off,76,0,0,,7,,,79,127
95704,note_on,1,0,0,,5,,,77,127
95780,note_off,76,0,0,,5,,,77,127
95782,note_on,2,0,0,,4,,,76,127
95854,note_off,72,0,0,,5,,,41,127
95858,note_off,4,0,0,,4,,,76,127
95868,note_on,10,0,0,,5,,,77,127
95868,note_on,0,0,0,,5,,,41,127
98032,note_off,2164,0,0,,5,,,41,127
98032,note_off,0,0,0,,5,,,77,127
99840,end_of_track,1808,1,0,,,,,,
