tick,type,time,meta,track,program,channel,pitch,tempo,note,velocity
0,copyright,0,1,0,,,,,,
0,program_change,0,0,0,6,0,,,,
0,pitchwheel,0,0,0,,0,0,,,
0,program_change,0,0,0,6,1,,,,
0,pitchwheel,0,0,0,,1,-590,,,
0,program_change,0,0,0,6,2,,,,
0,pitchwheel,0,0,0,,2,-272,,,
0,program_change,0,0,0,6,3,,,,
0,pitchwheel,0,0,0,,3,-353,,,
0,program_change,0,0,0,6,4,,,,
0,pitchwheel,0,0,0,,4,-560,,,
0,program_change,0,0,0,6,5,,,,
0,pitchwheel,0,0,0,,5,-80,,,
0,program_change,0,0,0,6,6,,,,
0,pitchwheel,0,0,0,,6,-625,,,
0,program_change,0,0,0,6,7,,,,
0,pitchwheel,0,0,0,,7,-130,,,
0,program_change,0,0,0,6,8,,,,
0,pitchwheel,0,0,0,,8,-512,,,
0,program_change,0,0,0,6,10,,,,
0,pitchwheel,0,0,0,,10,-464,,,
0,program_change,0,0,0,6,11,,,,
0,pitchwheel,0,0,0,,11,-208,,,
0,program_change,0,0,0,6,12,,,,
0,pitchwheel,0,0,0,,12,-553,,,
0,set_tempo,0,1,0,,,,500000,,
118,note_on,118,0,0,,5,,,65,127
118,note_on,0,0,0,,10,,,81,127
236,note_on,118,0,0,,5,,,77,127
259,note_off,23,0,0,,10,,,81,127
353,note_on,94,0,0,,0,,,72,127
376,note_off,23,0,0,,5,,,77,127
470,note_on,94,0,0,,0,,,84,127
493,note_off,23,0,0,,0,,,72,127
586,note_off,93,0,0,,5,,,65,127
587,note_on,1,0,0,,7,,,67,127
587,note_on,0,0,0,,11,,,82,127
610,note_off,23,0,0,,0,,,84,127
704,note_on,94,0,0,,4,,,76,127
727,note_off,23,0,0,,11,,,82,127
820,note_off,93,0,0,,7,,,67,127
821,note_on,1,0,0,,10,,,69,127
821,note_on,0,0,0,,5,,,77,127
844,note_off,23,0,0,,4,,,76,127
938,note_on,94,0,0,,10,,,81,127
961,note_off,23,0,0,,5,,,77,127
1055,note_on,94,0,0,,5,,,77,127
1078,note_off,23,0,0,,10,,,81,127
1172,note_on,94,0,0,,0,,,72,127
1195,note_off,23,0,0,,5,,,77,127
1288,note_off,93,0,0,,10,,,69,127
1289,note_on,1,0,0,,11,,,70,127
1289,note_on,0,0,0,,2,,,74,127
1312,note_off,23,0,0,,0,,,72,127
1406,note_on,94,0,0,,4,,,76,127
1429,note_off,23,0,0,,2,,,74,127
1522,note_off,93,0,0,,11,,,70,127
1523,note_on,1,0,0,,10,,,69,127
1523,note_on,0,0,0,,5,,,77,127
1546,note_off,23,0,0,,4,,,76,127
1640,note_on,94,0,0,,0,,,72,127
1663,note_off,23,0,0,,5,,,77,127
1756,note_off,93,0,0,,10,,,69,127
1757,note_on,1,0,0,,7,,,67,127
1757,note_on,0,0,0,,11,,,70,127
1780,note_off,23,0,0,,0,,,72,127
1874,note_on,94,0,0,,7,,,79,127
1897,note_off,23,0,0,,11,,,70,127
1990,note_off,93,0,0,,7,,,67,127
1991,note_on,1,0,0,,0,,,60,127
1991,note_on,0,0,0,,4,,,76,127
2014,note_off,23,0,0,,7,,,79,127
2108,note_on,94,0,0,,11,,,70,127
2131,note_off,23,0,0,,4,,,76,127
2224,note_off,93,0,0,,0,,,60,127
2225,note_on,1,0,0,,5,,,53,127
2225,note_on,0,0,0,,5,,,77,127
2248,note_off,23,0,0,,11,,,70,127
2342,note_on,94,0,0,,0,,,72,127
2365,note_off,23,0,0,,5,,,77,127
2459,note_on,94,0,0,,10,,,69,127
2482,note_off,23,0,0,,0,,,72,127
2576,note_on,94,0,0,,5,,,65,127
2599,note_off,23,0,0,,10,,,69,127
2693,note_on,94,0,0,,10,,,69,127
2716,note_off,23,0,0,,5,,,65,127
2810,note_on,94,0,0,,0,,,72,127
2833,note_off,23,0,0,,10,,,69,127
2926,note_off,93,0,0,,5,,,53,127
2927,note_on,1,0,0,,0,,,60,127
2927,note_on,0,0,0,,10,,,81,127
2950,note_off,23,0,0,,0,,,72,127
3044,note_on,94,0,0,,5,,,65,127
3049,note_off,5,0,0,,0,,,60,127
3162,note_on,113,0,0,,10,,,69,127
3167,note_off,5,0,0,,5,,,65,127
3280,note_on,113,0,0,,0,,,60,127
3285,note_off,5,0,0,,10,,,69,127
3396,note_off,111,0,0,,10,,,81,127
3397,note_on,1,0,0,,11,,,58,127
3397,note_on,0,0,0,,7,,,79,127
3402,note_off,5,0,0,,0,,,60,127
3515,note_on,113,0,0,,7,,,67,127
3520,note_off,5,0,0,,11,,,58,127
3631,note_off,111,0,0,,7,,,79,127
3632,note_on,1,0,0,,10,,,57,127
3632,note_on,0,0,0,,0,,,84,127
3637,note_off,5,0,0,,7,,,67,127
3750,note_on,113,0,0,,5,,,65,127
3755,note_off,5,0,0,,10,,,57,127
3866,note_off,111,0,0,,0,,,84,127
3867,note_on,1,0,0,,7,,,55,127
3867,note_on,0,0,0,,11,,,82,127
3872,note_off,5,0,0,,5,,,65,127
3985,note_on,113,0,0,,4,,,64,127
3990,note_off,5,0,0,,7,,,55,127
4101,note_off,111,0,0,,11,,,82,127
4102,note_on,1,0,0,,5,,,53,127
4102,note_on,0,0,0,,10,,,81,127
4107,note_off,5,0,0,,4,,,64,127
4220,note_on,113,0,0,,5,,,65,127
4225,note_off,5,0,0,,5,,,53,127
4336,note_off,111,0,0,,10,,,81,127
4337,note_on,1,0,0,,11,,,58,127
4337,note_on,0,0,0,,7,,,79,127
4342,note_off,5,0,0,,5,,,65,127
4455,note_on,113,0,0,,7,,,67,127
4460,note_off,5,0,0,,11,,,58,127
4571,note_off,111,0,0,,7,,,79,127
4572,note_on,1,0,0,,0,,,60,127
4572,note_on,0,0,0,,4,,,76,127
4577,note_off,5,0,0,,7,,,67,127
4690,note_on,113,0,0,,10,,,69,127
4695,note_off,5,0,0,,0,,,60,127
4806,note_off,111,0,0,,4,,,76,127
4807,note_on,1,0,0,,2,,,62,127
4807,note_on,0,0,0,,5,,,77,127
4812,note_off,5,0,0,,10,,,69,127
4925,note_on,113,0,0,,12,,,71,127
4930,note_off,5,0,0,,2,,,62,127
5043,note_on,113,0,0,,0,,,48,127
5048,note_off,5,0,0,,12,,,71,127
5159,note_off,111,0,0,,5,,,77,127
5160,note_on,1,0,0,,7,,,79,127
5278,note_on,118,0,0,,4,,,76,127
5301,note_off,23,0,0,,7,,,79,127
5395,note_on,94,0,0,,0,,,72,127
5418,note_off,23,0,0,,4,,,76,127
5512,note_on,94,0,0,,7,,,67,127
5535,note_off,23,0,0,,0,,,72,127
5629,note_on,94,0,0,,4,,,64,127
5652,note_off,23,0,0,,7,,,67,127
5745,note_off,93,0,0,,4,,,64,127
5745,note_off,0,0,0,,0,,,48,127
5746,note_on,1,0,0,,4,,,52,127
5746,note_on,0,0,0,,7,,,79,127
5864,note_on,118,0,0,,7,,,55,127
5869,note_off,5,0,0,,4,,,52,127
5982,note_on,113,0,0,,0,,,60,127
5987,note_off,5,0,0,,7,,,55,127
6100,note_on,113,0,0,,4,,,64,127
6105,note_off,5,0,0,,0,,,60,127
6216,note_off,111,0,0,,7,,,79,127
6217,note_on,1,0,0,,5,,,53,127
6217,note_on,0,0,0,,10,,,81,127
6222,note_off,5,0,0,,4,,,64,127
6335,note_on,113,0,0,,5,,,65,127
6340,note_off,5,0,0,,5,,,53,127
6451,note_off,111,0,0,,10,,,81,127
6452,note_on,1,0,0,,7,,,55,127
6452,note_on,0,0,0,,12,,,71,127
6457,note_off,5,0,0,,5,,,65,127
6570,note_on,113,0,0,,12,,,59,127
6575,note_off,5,0,0,,7,,,55,127
6688,note_on,113,0,0,,2,,,62,127
6693,note_off,5,0,0,,12,,,59,127
6806,note_on,113,0,0,,7,,,67,127
6811,note_off,5,0,0,,2,,,62,127
6922,note_off,111,0,0,,12,,,71,127
6923,note_on,1,0,0,,10,,,57,127
6923,note_on,0,0,0,,0,,,72,127
6928,note_off,5,0,0,,7,,,67,127
7041,note_on,113,0,0,,5,,,65,127
7046,note_off,5,0,0,,10,,,57,127
7157,note_off,111,0,0,,0,,,72,127
7158,note_on,1,0,0,,12,,,59,127
7158,note_on,0,0,0,,2,,,74,127
7163,note_off,5,0,0,,5,,,65,127
7276,note_on,113,0,0,,12,,,71,127
7299,note_off,23,0,0,,2,,,74,127
7393,note_on,94,0,0,,7,,,67,127
7416,note_off,23,0,0,,12,,,71,127
7510,note_on,94,0,0,,5,,,77,127
7533,note_off,23,0,0,,7,,,67,127
7626,note_off,93,0,0,,12,,,59,127
7627,note_on,1,0,0,,0,,,60,127
7627,note_on,0,0,0,,4,,,76,127
7650,note_off,23,0,0,,5,,,77,127
7744,note_on,94,0,0,,0,,,72,127
7767,note_off,23,0,0,,4,,,76,127
7860,note_off,93,0,0,,0,,,60,127
7861,note_on,1,0,0,,7,,,55,127
7861,note_on,0,0,0,,2,,,74,127
7884,note_off,23,0,0,,0,,,72,127
7978,note_on,94,0,0,,7,,,79,127
8001,note_off,23,0,0,,2,,,74,127
8095,note_on,94,0,0,,2,,,74,127
8118,note_off,23,0,0,,7,,,79,127
8212,note_on,94,0,0,,12,,,71,127
8235,note_off,23,0,0,,2,,,74,127
8329,note_on,94,0,0,,7,,,67,127
8352,note_off,23,0,0,,12,,,71,127
8446,note_on,94,0,0,,4,,,76,127
8469,note_off,23,0,0,,7,,,67,127
8562,note_off,93,0,0,,7,,,55,127
8563,note_on,1,0,0,,12,,,47,127
8563,note_on,0,0,0,,7,,,55,127
8563,note_on,0,0,0,,5,,,77,127
8586,note_off,23,0,0,,4,,,76,127
8680,note_on,94,0,0,,2,,,74,127
8703,note_off,23,0,0,,5,,,77,127
8797,note_on,94,0,0,,12,,,71,127
8820,note_off,23,0,0,,2,,,74,127
8914,note_on,94,0,0,,7,,,67,127
8937,note_off,23,0,0,,12,,,71,127
9030,note_off,93,0,0,,7,,,55,127
9030,note_off,0,0,0,,12,,,47,127
9031,note_on,1,0,0,,7,,,55,127
9031,note_on,0,0,0,,0,,,48,127
9031,note_on,0,0,0,,0,,,72,127
9054,note_off,23,0,0,,7,,,67,127
9148,note_on,94,0,0,,4,,,76,127
9171,note_off,23,0,0,,0,,,72,127
9264,note_off,93,0,0,,0,,,48,127
9264,note_off,0,0,0,,7,,,55,127
9265,note_on,1,0,0,,7,,,55,127
9265,note_on,0,0,0,,12,,,47,127
9265,note_on,0,0,0,,5,,,77,127
9288,note_off,23,0,0,,4,,,76,127
9382,note_on,94,0,0,,2,,,74,127
9405,note_off,23,0,0,,5,,,77,127
9499,note_on,94,0,0,,12,,,71,127
9522,note_off,23,0,0,,2,,,74,127
9616,note_on,94,0,0,,7,,,67,127
9639,note_off,23,0,0,,12,,,71,127
9732,note_off,93,0,0,,12,,,47,127
9732,note_off,0,0,0,,7,,,55,127
9733,note_on,1,0,0,,7,,,55,127
9733,note_on,0,0,0,,0,,,48,127
9733,note_on,0,0,0,,0,,,72,127
9756,note_off,23,0,0,,7,,,67,127
9850,note_on,94,0,0,,4,,,76,127
9873,note_off,23,0,0,,0,,,72,127
9966,note_off,93,0,0,,0,,,48,127
9966,note_off,0,0,0,,7,,,55,127
9967,note_on,1,0,0,,2,,,50,127
9967,note_on,0,0,0,,12,,,59,127
9967,note_on,0,0,0,,12,,,47,127
9967,note_on,0,0,0,,5,,,77,127
9990,note_off,23,0,0,,4,,,76,127
10084,note_on,94,0,0,,2,,,74,127
10107,note_off,23,0,0,,5,,,77,127
10201,note_on,94,0,0,,12,,,71,127
10224,note_off,23,0,0,,2,,,74,127
10318,note_on,94,0,0,,8,,,68,127
10341,note_off,23,0,0,,12,,,71,127
10434,note_off,93,0,0,,12,,,47,127
10434,note_off,0,0,0,,12,,,59,127
10434,note_off,0,0,0,,2,,,50,127
10435,note_on,1,0,0,,10,,,57,127
10435,note_on,0,0,0,,0,,,48,127
10435,note_on,0,0,0,,10,,,69,127
10458,note_off,23,0,0,,8,,,68,127
10552,note_on,94,0,0,,4,,,76,127
10575,note_off,23,0,0,,10,,,69,127
10668,note_off,93,0,0,,0,,,48,127
10668,note_off,0,0,0,,10,,,57,127
10669,note_on,1,0,0,,12,,,59,127
10669,note_on,0,0,0,,12,,,47,127
10669,note_on,0,0,0,,2,,,50,127
10669,note_on,0,0,0,,5,,,77,127
10692,note_off,23,0,0,,4,,,76,127
10786,note_on,94,0,0,,2,,,74,127
10809,note_off,23,0,0,,5,,,77,127
10903,note_on,94,0,0,,12,,,71,127
10926,note_off,23,0,0,,2,,,74,127
11020,note_on,94,0,0,,8,,,68,127
11043,note_off,23,0,0,,12,,,71,127
11136,note_off,93,0,0,,2,,,50,127
11136,note_off,0,0,0,,12,,,47,127
11136,note_off,0,0,0,,12,,,59,127
11137,note_on,1,0,0,,0,,,48,127
11137,note_on,0,0,0,,10,,,57,127
11137,note_on,0,0,0,,10,,,69,127
11160,note_off,23,0,0,,8,,,68,127
11254,note_on,94,0,0,,7,,,79,127
11277,note_off,23,0,0,,10,,,69,127
11370,note_off,93,0,0,,10,,,57,127
11370,note_off,0,0,0,,0,,,48,127
11371,note_on,1,0,0,,0,,,48,127
11371,note_on,0,0,0,,10,,,57,127
11371,note_on,0,0,0,,6,,,78,127
11394,note_off,23,0,0,,7,,,79,127
11488,note_on,94,0,0,,2,,,74,127
11511,note_off,23,0,0,,6,,,78,127
11605,note_on,94,0,0,,0,,,72,127
11628,note_off,23,0,0,,2,,,74,127
11722,note_on,94,0,0,,10,,,69,127
11745,note_off,23,0,0,,0,,,72,127
11838,note_off,93,0,0,,10,,,57,127
11838,note_off,0,0,0,,0,,,48,127
11839,note_on,1,0,0,,7,,,55,127
11839,note_on,0,0,0,,11,,,46,127
11839,note_on,0,0,0,,11,,,70,127
11862,note_off,23,0,0,,10,,,69,127
11956,note_on,94,0,0,,7,,,79,127
11979,note_off,23,0,0,,11,,,70,127
12072,note_off,93,0,0,,11,,,46,127
12072,note_off,0,0,0,,7,,,55,127
12073,note_on,1,0,0,,0,,,48,127
12073,note_on,0,0,0,,10,,,57,127
12073,note_on,0,0,0,,6,,,78,127
12096,note_off,23,0,0,,7,,,79,127
12190,note_on,94,0,0,,2,,,74,127
12213,note_off,23,0,0,,6,,,78,127
12307,note_on,94,0,0,,0,,,72,127
12330,note_off,23,0,0,,2,,,74,127
12424,note_on,94,0,0,,10,,,69,127
12447,note_off,23,0,0,,0,,,72,127
12540,note_off,93,0,0,,10,,,57,127
12540,note_off,0,0,0,,0,,,48,127
12541,note_on,1,0,0,,11,,,46,127
12541,note_on,0,0,0,,7,,,55,127
12541,note_on,0,0,0,,11,,,70,127
12564,note_off,23,0,0,,10,,,69,127
12658,note_on,94,0,0,,7,,,79,127
12681,note_off,23,0,0,,11,,,70,127
12774,note_off,93,0,0,,7,,,55,127
12774,note_off,0,0,0,,11,,,46,127
12775,note_on,1,0,0,,10,,,57,127
12775,note_on,0,0,0,,4,,,52,127
12775,note_on,0,0,0,,10,,,45,127
12893,note_on,118,0,0,,4,,,76,127
12903,note_off,10,0,0,,7,,,79,127
13011,note_on,108,0,0,,1,,,73,127
13034,note_off,23,0,0,,4,,,76,127
13128,note_on,94,0,0,,10,,,69,127
13151,note_off,23,0,0,,1,,,73,127
13244,note_off,93,0,0,,10,,,45,127
13244,note_off,0,0,0,,4,,,52,127
13244,note_off,0,0,0,,10,,,57,127
13245,note_on,1,0,0,,7,,,55,127
13245,note_on,0,0,0,,2,,,50,127
13245,note_on,0,0,0,,11,,,46,127
13245,note_on,0,0,0,,2,,,74,127
13268,note_off,23,0,0,,10,,,69,127
13362,note_on,94,0,0,,7,,,79,127
13385,note_off,23,0,0,,2,,,74,127
13478,note_off,93,0,0,,11,,,46,127
13478,note_off,0,0,0,,2,,,50,127
13478,note_off,0,0,0,,7,,,55,127
13479,note_on,1,0,0,,10,,,57,127
13479,note_on,0,0,0,,4,,,52,127
13479,note_on,0,0,0,,10,,,45,127
13597,note_on,118,0,0,,4,,,76,127
13607,note_off,10,0,0,,7,,,79,127
13715,note_on,108,0,0,,1,,,73,127
13738,note_off,23,0,0,,4,,,76,127
13832,note_on,94,0,0,,10,,,69,127
13855,note_off,23,0,0,,1,,,73,127
13948,note_off,93,0,0,,10,,,45,127
13948,note_off,0,0,0,,4,,,52,127
13948,note_off,0,0,0,,10,,,57,127
13949,note_on,1,0,0,,10,,,57,127
13949,note_on,0,0,0,,2,,,50,127
13949,note_on,0,0,0,,5,,,77,127
13972,note_off,23,0,0,,10,,,69,127
14066,note_on,94,0,0,,10,,,81,127
14089,note_off,23,0,0,,5,,,77,127
14182,note_off,93,0,0,,2,,,50,127
14182,note_off,0,0,0,,10,,,57,127
14183,note_on,1,0,0,,2,,,50,127
14183,note_on,0,0,0,,12,,,59,127
14183,note_on,0,0,0,,8,,,80,127
14206,note_off,23,0,0,,10,,,81,127
14300,note_on,94,0,0,,4,,,76,127
14323,note_off,23,0,0,,8,,,80,127
14417,note_on,94,0,0,,2,,,74,127
14440,note_off,23,0,0,,4,,,76,127
14534,note_on,94,0,0,,12,,,71,127
14557,note_off,23,0,0,,2,,,74,127
14650,note_off,93,0,0,,12,,,59,127
14650,note_off,0,0,0,,2,,,50,127
14651,note_on,1,0,0,,0,,,60,127
14651,note_on,0,0,0,,10,,,57,127
14651,note_on,0,0,0,,0,,,48,127
14651,note_on,0,0,0,,0,,,72,127
14674,note_off,23,0,0,,12,,,71,127
14768,note_on,94,0,0,,10,,,81,127
14791,note_off,23,0,0,,0,,,72,127
14884,note_off,93,0,0,,0,,,48,127
14884,note_off,0,0,0,,10,,,57,127
14884,note_off,0,0,0,,0,,,60,127
14885,note_on,1,0,0,,12,,,59,127
14885,note_on,0,0,0,,2,,,50,127
14885,note_on,0,0,0,,8,,,80,127
14908,note_off,23,0,0,,10,,,81,127
15002,note_on,94,0,0,,4,,,76,127
15025,note_off,23,0,0,,8,,,80,127
15119,note_on,94,0,0,,2,,,74,127
15142,note_off,23,0,0,,4,,,76,127
15236,note_on,94,0,0,,12,,,71,127
15259,note_off,23,0,0,,2,,,74,127
15352,note_off,93,0,0,,2,,,50,127
15352,note_off,0,0,0,,12,,,59,127
15353,note_on,1,0,0,,0,,,60,127
15353,note_on,0,0,0,,10,,,57,127
15353,note_on,0,0,0,,0,,,48,127
15353,note_on,0,0,0,,0,,,72,127
15376,note_off,23,0,0,,12,,,71,127
15470,note_on,94,0,0,,10,,,81,127
15493,note_off,23,0,0,,0,,,72,127
15586,note_off,93,0,0,,0,,,48,127
15586,note_off,0,0,0,,10,,,57,127
15586,note_off,0,0,0,,0,,,60,127
15587,note_on,1,0,0,,12,,,59,127
15587,note_on,0,0,0,,6,,,54,127
15587,note_on,0,0,0,,12,,,47,127
15705,note_on,118,0,0,,6,,,78,127
15715,note_off,10,0,0,,10,,,81,127
15823,note_on,108,0,0,,3,,,75,127
15846,note_off,23,0,0,,6,,,78,127
15940,note_on,94,0,0,,12,,,71,127
15963,note_off,23,0,0,,3,,,75,127
16056,note_off,93,0,0,,12,,,47,127
16056,note_off,0,0,0,,6,,,54,127
16056,note_off,0,0,0,,12,,,59,127
16057,note_on,1,0,0,,4,,,52,127
16057,note_on,0,0,0,,10,,,45,127
16057,note_on,0,0,0,,10,,,57,127
16057,note_on,0,0,0,,0,,,72,127
16080,note_off,23,0,0,,12,,,71,127
16174,note_on,94,0,0,,10,,,81,127
16197,note_off,23,0,0,,0,,,72,127
16290,note_off,93,0,0,,10,,,57,127
16290,note_off,0,0,0,,10,,,45,127
16290,note_off,0,0,0,,4,,,52,127
16291,note_on,1,0,0,,12,,,59,127
16291,note_on,0,0,0,,6,,,54,127
16291,note_on,0,0,0,,12,,,47,127
16409,note_on,118,0,0,,6,,,78,127
16419,note_off,10,0,0,,10,,,81,127
16527,note_on,108,0,0,,3,,,75,127
16550,note_off,23,0,0,,6,,,78,127
16644,note_on,94,0,0,,12,,,71,127
16667,note_off,23,0,0,,3,,,75,127
16760,note_off,93,0,0,,12,,,47,127
16760,note_off,0,0,0,,6,,,54,127
16760,note_off,0,0,0,,12,,,59,127
16761,note_on,1,0,0,,4,,,52,127
16761,note_on,0,0,0,,10,,,45,127
16761,note_on,0,0,0,,10,,,57,127
16761,note_on,0,0,0,,0,,,72,127
16784,note_off,23,0,0,,12,,,71,127
16878,note_on,94,0,0,,10,,,81,127
16901,note_off,23,0,0,,0,,,72,127
16994,note_off,93,0,0,,10,,,57,127
16994,note_off,0,0,0,,10,,,45,127
16994,note_off,0,0,0,,4,,,52,127
16995,note_on,1,0,0,,2,,,50,127
16995,note_on,0,0,0,,12,,,47,127
16995,note_on,0,0,0,,12,,,59,127
16995,note_on,0,0,0,,8,,,80,127
17018,note_off,23,0,0,,10,,,81,127
17112,note_on,94,0,0,,4,,,76,127
17135,note_off,23,0,0,,8,,,80,127
17229,note_on,94,0,0,,2,,,74,127
17252,note_off,23,0,0,,4,,,76,127
17346,note_on,94,0,0,,12,,,71,127
17369,note_off,23,0,0,,2,,,74,127
17462,note_off,93,0,0,,12,,,59,127
17462,note_off,0,0,0,,12,,,47,127
17462,note_off,0,0,0,,2,,,50,127
17463,note_on,1,0,0,,10,,,57,127
17463,note_on,0,0,0,,0,,,48,127
17463,note_on,0,0,0,,0,,,72,127
17486,note_off,23,0,0,,12,,,71,127
17580,note_on,94,0,0,,10,,,81,127
17603,note_off,23,0,0,,0,,,72,127
17696,note_off,93,0,0,,0,,,48,127
17696,note_off,0,0,0,,10,,,57,127
17697,note_on,1,0,0,,2,,,50,127
17697,note_on,0,0,0,,12,,,59,127
17697,note_on,0,0,0,,12,,,83,127
17720,note_off,23,0,0,,10,,,81,127
17814,note_on,94,0,0,,8,,,80,127
17837,note_off,23,0,0,,12,,,83,127
17931,note_on,94,0,0,,2,,,74,127
17954,note_off,23,0,0,,8,,,80,127
18048,note_on,94,0,0,,2,,,86,127
18071,note_off,23,0,0,,2,,,74,127
18164,note_off,93,0,0,,12,,,59,127
18164,note_off,0,0,0,,2,,,50,127
18165,note_on,1,0,0,,10,,,57,127
18165,note_on,0,0,0,,3,,,51,127
18165,note_on,0,0,0,,0,,,84,127
18188,note_off,23,0,0,,2,,,86,127
18282,note_on,94,0,0,,10,,,81,127
18305,note_off,23,0,0,,0,,,84,127
18398,note_off,93,0,0,,3,,,51,127
18398,note_off,0,0,0,,10,,,57,127
18399,note_on,1,0,0,,12,,,59,127
18399,note_on,0,0,0,,4,,,52,127
18399,note_on,0,0,0,,8,,,80,127
18422,note_off,23,0,0,,10,,,81,127
18516,note_on,94,0,0,,4,,,76,127
18539,note_off,23,0,0,,8,,,80,127
18633,note_on,94,0,0,,2,,,74,127
18656,note_off,23,0,0,,4,,,76,127
18750,note_on,94,0,0,,12,,,71,127
18773,note_off,23,0,0,,2,,,74,127
18866,note_off,93,0,0,,4,,,52,127
18866,note_off,0,0,0,,12,,,59,127
18867,note_on,1,0,0,,12,,,59,127
18867,note_on,0,0,0,,4,,,52,127
18867,note_on,0,0,0,,2,,,74,127
18890,note_off,23,0,0,,12,,,71,127
18984,note_on,94,0,0,,12,,,83,127
19007,note_off,23,0,0,,2,,,74,127
19100,note_off,93,0,0,,4,,,52,127
19100,note_off,0,0,0,,12,,,59,127
19101,note_on,1,0,0,,4,,,64,127
19101,note_on,0,0,0,,10,,,57,127
19101,note_on,0,0,0,,0,,,84,127
19124,note_off,23,0,0,,12,,,83,127
19218,note_on,94,0,0,,10,,,81,127
19241,note_off,23,0,0,,0,,,84,127
19335,note_on,94,0,0,,4,,,76,127
19358,note_off,23,0,0,,10,,,81,127
19452,note_on,94,0,0,,0,,,72,127
19475,note_off,23,0,0,,4,,,76,127
19568,note_off,93,0,0,,10,,,57,127
19568,note_off,0,0,0,,4,,,64,127
19569,note_on,1,0,0,,4,,,64,127
19569,note_on,0,0,0,,12,,,59,127
19569,note_on,0,0,0,,4,,,52,127
19569,note_on,0,0,0,,2,,,74,127
19592,note_off,23,0,0,,0,,,72,127
19686,note_on,94,0,0,,12,,,83,127
19709,note_off,23,0,0,,2,,,74,127
19802,note_off,93,0,0,,4,,,52,127
19802,note_off,0,0,0,,12,,,59,127
19802,note_off,0,0,0,,4,,,64,127
19803,note_on,1,0,0,,4,,,64,127
19803,note_on,0,0,0,,10,,,57,127
19803,note_on,0,0,0,,0,,,84,127
19826,note_off,23,0,0,,12,,,83,127
19920,note_on,94,0,0,,10,,,81,127
19943,note_off,23,0,0,,0,,,84,127
20037,note_on,94,0,0,,4,,,76,127
20060,note_off,23,0,0,,10,,,81,127
20154,note_on,94,0,0,,2,,,86,127
20177,note_off,23,0,0,,4,,,76,127
20270,note_off,93,0,0,,10,,,57,127
20270,note_off,0,0,0,,4,,,64,127
20271,note_on,1,0,0,,7,,,55,127
20271,note_on,0,0,0,,4,,,64,127
20271,note_on,0,0,0,,1,,,85,127
20294,note_off,23,0,0,,2,,,86,127
20388,note_on,94,0,0,,7,,,79,127
20411,note_off,23,0,0,,1,,,85,127
20504,note_off,93,0,0,,4,,,64,127
20504,note_off,0,0,0,,7,,,55,127
20505,note_on,1,0,0,,2,,,62,127
20505,note_on,0,0,0,,5,,,53,127
20505,note_on,0,0,0,,2,,,86,127
20528,note_off,23,0,0,,7,,,79,127
20622,note_on,94,0,0,,10,,,81,127
20645,note_off,23,0,0,,2,,,86,127
20739,note_on,94,0,0,,5,,,77,127
20762,note_off,23,0,0,,10,,,81,127
20856,note_on,94,0,0,,2,,,74,127
20879,note_off,23,0,0,,5,,,77,127
20972,note_off,93,0,0,,5,,,53,127
20972,note_off,0,0,0,,2,,,62,127
20973,note_on,1,0,0,,7,,,55,127
20973,note_on,0,0,0,,4,,,64,127
20973,note_on,0,0,0,,1,,,73,127
20996,note_off,23,0,0,,2,,,74,127
21090,note_on,94,0,0,,11,,,82,127
21113,note_off,23,0,0,,1,,,73,127
21206,note_off,93,0,0,,4,,,64,127
21206,note_off,0,0,0,,7,,,55,127
21207,note_on,1,0,0,,2,,,62,127
21207,note_on,0,0,0,,5,,,53,127
21207,note_on,0,0,0,,10,,,81,127
21230,note_off,23,0,0,,11,,,82,127
21324,note_on,94,0,0,,5,,,77,127
21347,note_off,23,0,0,,10,,,81,127
21441,note_on,94,0,0,,2,,,74,127
21464,note_off,23,0,0,,5,,,77,127
21558,note_on,94,0,0,,10,,,69,127
21581,note_off,23,0,0,,2,,,74,127
21674,note_off,93,0,0,,5,,,53,127
21674,note_off,0,0,0,,2,,,62,127
21675,note_on,1,0,0,,1,,,61,127
21675,note_on,0,0,0,,4,,,52,127
21675,note_on,0,0,0,,7,,,67,127
21698,note_off,23,0,0,,10,,,69,127
21792,note_on,94,0,0,,7,,,79,127
21815,note_off,23,0,0,,7,,,67,127
21908,note_off,93,0,0,,4,,,52,127
21908,note_off,0,0,0,,1,,,61,127
21909,note_on,1,0,0,,2,,,62,127
21909,note_on,0,0,0,,2,,,50,127
21909,note_on,0,0,0,,5,,,77,127
21932,note_off,23,0,0,,7,,,79,127
22026,note_on,94,0,0,,2,,,74,127
22049,note_off,23,0,0,,5,,,77,127
22143,note_on,94,0,0,,10,,,69,127
22166,note_off,23,0,0,,2,,,74,127
22260,note_on,94,0,0,,5,,,65,127
22283,note_off,23,0,0,,10,,,69,127
22376,note_off,93,0,0,,2,,,50,127
22376,note_off,0,0,0,,2,,,62,127
22377,note_on,1,0,0,,4,,,52,127
22377,note_on,0,0,0,,1,,,61,127
22377,note_on,0,0,0,,7,,,67,127
22400,note_off,23,0,0,,5,,,65,127
22494,note_on,94,0,0,,7,,,79,127
22517,note_off,23,0,0,,7,,,67,127
22610,note_off,93,0,0,,1,,,61,127
22610,note_off,0,0,0,,4,,,52,127
22611,note_on,1,0,0,,2,,,62,127
22611,note_on,0,0,0,,5,,,53,127
22611,note_on,0,0,0,,10,,,81,127
22634,note_off,23,0,0,,7,,,79,127
22728,note_on,94,0,0,,5,,,77,127
22751,note_off,23,0,0,,10,,,81,127
22845,note_on,94,0,0,,2,,,74,127
22868,note_off,23,0,0,,5,,,77,127
22962,note_on,94,0,0,,10,,,69,127
22985,note_off,23,0,0,,2,,,74,127
23078,note_off,93,0,0,,5,,,53,127
23078,note_off,0,0,0,,2,,,62,127
23079,note_on,1,0,0,,2,,,62,127
23079,note_on,0,0,0,,7,,,55,127
23079,note_on,0,0,0,,11,,,70,127
23102,note_off,23,0,0,,10,,,69,127
23196,note_on,94,0,0,,11,,,82,127
23219,note_off,23,0,0,,11,,,70,127
23312,note_off,93,0,0,,7,,,55,127
23312,note_off,0,0,0,,2,,,62,127
23313,note_on,1,0,0,,2,,,62,127
23313,note_on,0,0,0,,5,,,53,127
23313,note_on,0,0,0,,10,,,81,127
23336,note_off,23,0,0,,11,,,82,127
23430,note_on,94,0,0,,5,,,77,127
23453,note_off,23,0,0,,10,,,81,127
23547,note_on,94,0,0,,2,,,74,127
23570,note_off,23,0,0,,5,,,77,127
23664,note_on,94,0,0,,10,,,69,127
23687,note_off,23,0,0,,2,,,74,127
23780,note_off,93,0,0,,5,,,53,127
23780,note_off,0,0,0,,2,,,62,127
23781,note_on,1,0,0,,1,,,61,127
23781,note_on,0,0,0,,4,,,52,127
23781,note_on,0,0,0,,7,,,67,127
23804,note_off,23,0,0,,10,,,69,127
23898,note_on,94,0,0,,7,,,79,127
23921,note_off,23,0,0,,7,,,67,127
24014,note_off,93,0,0,,7,,,79,127
24014,note_off,0,0,0,,4,,,52,127
24014,note_off,0,0,0,,1,,,61,127
24015,note_on,1,0,0,,2,,,50,127
24015,note_on,0,0,0,,5,,,77,127
24133,note_on,118,0,0,,5,,,53,127
24138,note_off,5,0,0,,2,,,50,127
24251,note_on,113,0,0,,10,,,57,127
24256,note_off,5,0,0,,5,,,53,127
24369,note_on,113,0,0,,2,,,62,127
24374,note_off,5,0,0,,10,,,57,127
24485,note_off,111,0,0,,5,,,77,127
24486,note_on,1,0,0,,10,,,45,127
24486,note_on,0,0,0,,4,,,76,127
24491,note_off,5,0,0,,2,,,62,127
24604,note_on,113,0,0,,10,,,57,127
24609,note_off,5,0,0,,10,,,45,127
24720,note_off,111,0,0,,4,,,76,127
24721,note_on,1,0,0,,11,,,46,127
24721,note_on,0,0,0,,4,,,76,127
24726,note_off,5,0,0,,10,,,57,127
24779,note_off,53,0,0,,4,,,76,127
24780,note_on,1,0,0,,2,,,74,127
24838,note_off,58,0,0,,2,,,74,127
24839,note_on,1,0,0,,2,,,50,127
24839,note_on,0,0,0,,4,,,76,127
24844,note_off,5,0,0,,11,,,46,127
24897,note_off,53,0,0,,4,,,76,127
24898,note_on,1,0,0,,2,,,74,127
24956,note_off,58,0,0,,2,,,74,127
24957,note_on,1,0,0,,4,,,76,127
24957,note_on,0,0,0,,7,,,55,127
24962,note_off,5,0,0,,2,,,50,127
25015,note_off,53,0,0,,4,,,76,127
25016,note_on,1,0,0,,2,,,74,127
25074,note_off,58,0,0,,2,,,74,127
25075,note_on,1,0,0,,7,,,43,127
25075,note_on,0,0,0,,4,,,76,127
25080,note_off,5,0,0,,7,,,55,127
25133,note_off,53,0,0,,4,,,76,127
25134,note_on,1,0,0,,2,,,74,127
25192,note_off,58,0,0,,2,,,74,127
25193,note_on,1,0,0,,10,,,45,127
25193,note_on,0,0,0,,4,,,76,127
25193,note_on,0,0,0,,1,,,73,127
25198,note_off,5,0,0,,7,,,43,127
25311,note_on,113,0,0,,10,,,57,127
25316,note_off,5,0,0,,10,,,45,127
25427,note_off,111,0,0,,1,,,73,127
25427,note_off,0,0,0,,4,,,76,127
25428,note_on,1,0,0,,2,,,50,127
25428,note_on,0,0,0,,2,,,74,127
25428,note_on,0,0,0,,5,,,77,127
25433,note_off,5,0,0,,10,,,57,127
25546,note_on,113,0,0,,5,,,53,127
25551,note_off,5,0,0,,2,,,50,127
25664,note_on,113,0,0,,10,,,57,127
25669,note_off,5,0,0,,5,,,53,127
25782,note_on,113,0,0,,2,,,62,127
25787,note_off,5,0,0,,10,,,57,127
25898,note_off,111,0,0,,5,,,77,127
25898,note_off,0,0,0,,2,,,74,127
25899,note_on,1,0,0,,10,,,45,127
25899,note_on,0,0,0,,1,,,73,127
25899,note_on,0,0,0,,4,,,76,127
25904,note_off,5,0,0,,2,,,62,127
26017,note_on,113,0,0,,10,,,57,127
26022,note_off,5,0,0,,10,,,45,127
26133,note_off,111,0,0,,4,,,76,127
26133,note_off,0,0,0,,1,,,73,127
26134,note_on,1,0,0,,11,,,46,127
26134,note_on,0,0,0,,4,,,76,127
26139,note_off,5,0,0,,10,,,57,127
26192,note_off,53,0,0,,4,,,76,127
26193,note_on,1,0,0,,2,,,74,127
26251,note_off,58,0,0,,2,,,74,127
26252,note_on,1,0,0,,2,,,50,127
26252,note_on,0,0,0,,4,,,76,127
26257,note_off,5,0,0,,11,,,46,127
26310,note_off,53,0,0,,4,,,76,127
26311,note_on,1,0,0,,2,,,74,127
26369,note_off,58,0,0,,2,,,74,127
26370,note_on,1,0,0,,4,,,76,127
26370,note_on,0,0,0,,7,,,55,127
26375,note_off,5,0,0,,2,,,50,127
26428,note_off,53,0,0,,4,,,76,127
26429,note_on,1,0,0,,2,,,74,127
26487,note_off,58,0,0,,2,,,74,127
26488,note_on,1,0,0,,7,,,43,127
26488,note_on,0,0,0,,4,,,76,127
26493,note_off,5,0,0,,7,,,55,127
26546,note_off,53,0,0,,4,,,76,127
26547,note_on,1,0,0,,2,,,74,127
26605,note_off,58,0,0,,2,,,74,127
26606,note_on,1,0,0,,10,,,45,127
26606,note_on,0,0,0,,1,,,73,127
26606,note_on,0,0,0,,4,,,76,127
26611,note_off,5,0,0,,7,,,43,127
26724,note_on,113,0,0,,10,,,57,127
26729,note_off,5,0,0,,10,,,45,127
26840,note_off,111,0,0,,4,,,76,127
26840,note_off,0,0,0,,1,,,73,127
26841,note_on,1,0,0,,2,,,50,127
26841,note_on,0,0,0,,2,,,74,127
26841,note_on,0,0,0,,5,,,77,127
26846,note_off,5,0,0,,10,,,57,127
26959,note_on,113,0,0,,5,,,53,127
26964,note_off,5,0,0,,2,,,50,127
27077,note_on,113,0,0,,10,,,57,127
27082,note_off,5,0,0,,5,,,53,127
27195,note_on,113,0,0,,2,,,62,127
27200,note_off,5,0,0,,10,,,57,127
27311,note_off,111,0,0,,5,,,77,127
27311,note_off,0,0,0,,2,,,74,127
27312,note_on,1,0,0,,4,,,52,127
27312,note_on,0,0,0,,7,,,79,127
27317,note_off,5,0,0,,2,,,62,127
27430,note_on,113,0,0,,1,,,61,127
27435,note_off,5,0,0,,4,,,52,127
27546,note_off,111,0,0,,7,,,79,127
27547,note_on,1,0,0,,5,,,53,127
27547,note_on,0,0,0,,10,,,81,127
27552,note_off,5,0,0,,1,,,61,127
27665,note_on,113,0,0,,10,,,57,127
27670,note_off,5,0,0,,5,,,53,127
27783,note_on,113,0,0,,2,,,62,127
27788,note_off,5,0,0,,10,,,57,127
27901,note_on,113,0,0,,5,,,65,127
27906,note_off,5,0,0,,2,,,62,127
28017,note_off,111,0,0,,10,,,81,127
28018,note_on,1,0,0,,7,,,55,127
28018,note_on,0,0,0,,11,,,82,127
28023,note_off,5,0,0,,5,,,65,127
28136,note_on,113,0,0,,4,,,64,127
28141,note_off,5,0,0,,7,,,55,127
28252,note_off,111,0,0,,11,,,82,127
28253,note_on,1,0,0,,10,,,57,127
28253,note_on,0,0,0,,10,,,81,127
28258,note_off,5,0,0,,4,,,64,127
28371,note_on,113,0,0,,7,,,79,127
28394,note_off,23,0,0,,10,,,81,127
28488,note_on,94,0,0,,5,,,77,127
28511,note_off,23,0,0,,7,,,79,127
28605,note_on,94,0,0,,4,,,76,127
28628,note_off,23,0,0,,5,,,77,127
28721,note_off,93,0,0,,10,,,57,127
28722,note_on,1,0,0,,10,,,45,127
28722,note_on,0,0,0,,2,,,74,127
28745,note_off,23,0,0,,4,,,76,127
28839,note_on,94,0,0,,1,,,73,127
28862,note_off,23,0,0,,2,,,74,127
28955,note_off,93,0,0,,1,,,73,127
28955,note_off,0,0,0,,10,,,45,127
28956,note_on,1,0,0,,2,,,50,127
28956,note_on,0,0,0,,5,,,77,127
29074,note_on,118,0,0,,5,,,53,127
29079,note_off,5,0,0,,2,,,50,127
29192,note_on,113,0,0,,10,,,57,127
29197,note_off,5,0,0,,5,,,53,127
29310,note_on,113,0,0,,2,,,62,127
29315,note_off,5,0,0,,10,,,57,127
29426,note_off,111,0,0,,5,,,77,127
29427,note_on,1,0,0,,10,,,45,127
29427,note_on,0,0,0,,4,,,76,127
29432,note_off,5,0,0,,2,,,62,127
29545,note_on,113,0,0,,10,,,57,127
29550,note_off,5,0,0,,10,,,45,127
29661,note_off,111,0,0,,4,,,76,127
29662,note_on,1,0,0,,11,,,46,127
29662,note_on,0,0,0,,4,,,76,127
29667,note_off,5,0,0,,10,,,57,127
29709,note_on,42,0,0,,2,,,74,127
29720,note_off,11,0,0,,4,,,76,127
29756,note_on,36,0,0,,4,,,76,127
29767,note_off,11,0,0,,2,,,74,127
29780,note_on,13,0,0,,2,,,50,127
29785,note_off,5,0,0,,11,,,46,127
29803,note_on,18,0,0,,2,,,74,127
29813,note_off,10,0,0,,4,,,76,127
29850,note_on,37,0,0,,4,,,76,127
29861,note_off,11,0,0,,2,,,74,127
29898,note_on,37,0,0,,7,,,55,127
29898,note_on,0,0,0,,2,,,74,127
29903,note_off,5,0,0,,2,,,50,127
29908,note_off,5,0,0,,4,,,76,127
29945,note_on,37,0,0,,4,,,76,127
29956,note_off,11,0,0,,2,,,74,127
29992,note_on,36,0,0,,2,,,74,127
30003,note_off,11,0,0,,4,,,76,127
30016,note_on,13,0,0,,7,,,43,127
30021,note_off,5,0,0,,7,,,55,127
30039,note_on,18,0,0,,4,,,76,127
30049,note_off,10,0,0,,2,,,74,127
30086,note_on,37,0,0,,2,,,74,127
30097,note_off,11,0,0,,4,,,76,127
30134,note_on,37,0,0,,10,,,45,127
30134,note_on,0,0,0,,4,,,76,127
30134,note_on,0,0,0,,1,,,73,127
30139,note_off,5,0,0,,7,,,43,127
30144,note_off,5,0,0,,2,,,74,127
30252,note_on,108,0,0,,10,,,57,127
30257,note_off,5,0,0,,10,,,45,127
30368,note_off,111,0,0,,1,,,73,127
30368,note_off,0,0,0,,4,,,76,127
30369,note_on,1,0,0,,2,,,50,127
30369,note_on,0,0,0,,5,,,77,127
30369,note_on,0,0,0,,2,,,74,127
30374,note_off,5,0,0,,10,,,57,127
30487,note_on,113,0,0,,5,,,53,127
30492,note_off,5,0,0,,2,,,50,127
30605,note_on,113,0,0,,10,,,57,127
30610,note_off,5,0,0,,5,,,53,127
30723,note_on,113,0,0,,2,,,62,127
30728,note_off,5,0,0,,10,,,57,127
30839,note_off,111,0,0,,2,,,74,127
30839,note_off,0,0,0,,5,,,77,127
30840,note_on,1,0,0,,10,,,45,127
30840,note_on,0,0,0,,4,,,76,127
30840,note_on,0,0,0,,1,,,73,127
30845,note_off,5,0,0,,2,,,62,127
30958,note_on,113,0,0,,10,,,57,127
30963,note_off,5,0,0,,10,,,45,127
31074,note_off,111,0,0,,1,,,73,127
31074,note_off,0,0,0,,4,,,76,127
31075,note_on,1,0,0,,11,,,46,127
31075,note_on,0,0,0,,4,,,76,127
31080,note_off,5,0,0,,10,,,57,127
31122,note_on,42,0,0,,2,,,74,127
31133,note_off,11,0,0,,4,,,76,127
31169,note_on,36,0,0,,4,,,76,127
31180,note_off,11,0,0,,2,,,74,127
31193,note_on,13,0,0,,2,,,50,127
31198,note_off,5,0,0,,11,,,46,127
31216,note_on,18,0,0,,2,,,74,127
31226,note_off,10,0,0,,4,,,76,127
31263,note_on,37,0,0,,4,,,76,127
31274,note_off,11,0,0,,2,,,74,127
31311,note_on,37,0,0,,7,,,55,127
31311,note_on,0,0,0,,2,,,74,127
31316,note_off,5,0,0,,2,,,50,127
31321,note_off,5,0,0,,4,,,76,127
31358,note_on,37,0,0,,4,,,76,127
31369,note_off,11,0,0,,2,,,74,127
31405,note_on,36,0,0,,2,,,74,127
31416,note_off,11,0,0,,4,,,76,127
31429,note_on,13,0,0,,7,,,43,127
31434,note_off,5,0,0,,7,,,55,127
31452,note_on,18,0,0,,4,,,76,127
31462,note_off,10,0,0,,2,,,74,127
31499,note_on,37,0,0,,2,,,74,127
31510,note_off,11,0,0,,4,,,76,127
31547,note_on,37,0,0,,10,,,45,127
31547,note_on,0,0,0,,4,,,76,127
31547,note_on,0,0,0,,1,,,73,127
31552,note_off,5,0,0,,7,,,43,127
31557,note_off,5,0,0,,2,,,74,127
31665,note_on,108,0,0,,10,,,57,127
31670,note_off,5,0,0,,10,,,45,127
31781,note_off,111,0,0,,1,,,73,127
31781,note_off,0,0,0,,4,,,76,127
31782,note_on,1,0,0,,2,,,50,127
31782,note_on,0,0,0,,2,,,74,127
31782,note_on,0,0,0,,5,,,77,127
31787,note_off,5,0,0,,10,,,57,127
31900,note_on,113,0,0,,5,,,53,127
31905,note_off,5,0,0,,2,,,50,127
32018,note_on,113,0,0,,10,,,57,127
32023,note_off,5,0,0,,5,,,53,127
32136,note_on,113,0,0,,2,,,62,127
32141,note_off,5,0,0,,10,,,57,127
32252,note_off,111,0,0,,5,,,77,127
32252,note_off,0,0,0,,2,,,74,127
32253,note_on,1,0,0,,4,,,52,127
32253,note_on,0,0,0,,7,,,79,127
32258,note_off,5,0,0,,2,,,62,127
32371,note_on,113,0,0,,1,,,61,127
32376,note_off,5,0,0,,4,,,52,127
32487,note_off,111,0,0,,7,,,79,127
32488,note_on,1,0,0,,5,,,53,127
32488,note_on,0,0,0,,10,,,81,127
32493,note_off,5,0,0,,1,,,61,127
32606,note_on,113,0,0,,10,,,57,127
32611,note_off,5,0,0,,5,,,53,127
32724,note_on,113,0,0,,2,,,62,127
32729,note_off,5,0,0,,10,,,57,127
32842,note_on,113,0,0,,5,,,65,127
32847,note_off,5,0,0,,2,,,62,127
32958,note_off,111,0,0,,10,,,81,127
32959,note_on,1,0,0,,7,,,55,127
32959,note_on,0,0,0,,11,,,82,127
32964,note_off,5,0,0,,5,,,65,127
33077,note_on,113,0,0,,4,,,64,127
33082,note_off,5,0,0,,7,,,55,127
33193,note_off,111,0,0,,11,,,82,127
33194,note_on,1,0,0,,10,,,57,127
33194,note_on,0,0,0,,10,,,81,127
33199,note_off,5,0,0,,4,,,64,127
33312,note_on,113,0,0,,7,,,79,127
33335,note_off,23,0,0,,10,,,81,127
33429,note_on,94,0,0,,5,,,77,127
33452,note_off,23,0,0,,7,,,79,127
33546,note_on,94,0,0,,4,,,76,127
33569,note_off,23,0,0,,5,,,77,127
33662,note_off,93,0,0,,10,,,57,127
33663,note_on,1,0,0,,10,,,45,127
33663,note_on,0,0,0,,2,,,74,127
33686,note_off,23,0,0,,4,,,76,127
33780,note_on,94,0,0,,1,,,73,127
33803,note_off,23,0,0,,2,,,74,127
33896,note_off,93,0,0,,1,,,73,127
33896,note_off,0,0,0,,10,,,45,127
33897,note_on,1,0,0,,2,,,50,127
33897,note_on,0,0,0,,5,,,77,127
34015,note_on,118,0,0,,5,,,53,127
34020,note_off,5,0,0,,2,,,50,127
34133,note_on,113,0,0,,10,,,57,127
34138,note_off,5,0,0,,5,,,53,127
34251,note_on,113,0,0,,2,,,62,127
34256,note_off,5,0,0,,10,,,57,127
34367,note_off,111,0,0,,5,,,77,127
34368,note_on,1,0,0,,0,,,48,127
34368,note_on,0,0,0,,4,,,76,127
34373,note_off,5,0,0,,2,,,62,127
34486,note_on,113,0,0,,0,,,60,127
34491,note_off,5,0,0,,0,,,48,127
34604,note_on,113,0,0,,11,,,46,127
34609,note_off,5,0,0,,0,,,60,127
34663,note_off,54,0,0,,4,,,76,127
34663,note_on,0,0,0,,2,,,74,127
34721,note_off,58,0,0,,2,,,74,127
34722,note_on,1,0,0,,4,,,76,127
34722,note_on,0,0,0,,7,,,55,127
34727,note_off,5,0,0,,11,,,46,127
34780,note_off,53,0,0,,4,,,76,127
34781,note_on,1,0,0,,2,,,74,127
34839,note_off,58,0,0,,2,,,74,127
34840,note_on,1,0,0,,2,,,50,127
34840,note_on,0,0,0,,4,,,76,127
34845,note_off,5,0,0,,7,,,55,127
34898,note_off,53,0,0,,4,,,76,127
34899,note_on,1,0,0,,2,,,74,127
34957,note_off,58,0,0,,2,,,74,127
34958,note_on,1,0,0,,11,,,46,127
34963,note_off,5,0,0,,2,,,50,127
34981,note_on,18,0,0,,4,,,76,127
35028,note_on,47,0,0,,2,,,74,127
35039,note_off,11,0,0,,4,,,76,127
35076,note_on,37,0,0,,10,,,45,127
35076,note_on,0,0,0,,0,,,72,127
35081,note_off,5,0,0,,11,,,46,127
35086,note_off,5,0,0,,2,,,74,127
35194,note_on,108,0,0,,5,,,53,127
35199,note_off,5,0,0,,10,,,45,127
35312,note_on,113,0,0,,7,,,43,127
35317,note_off,5,0,0,,5,,,53,127
35371,note_off,54,0,0,,0,,,72,127
35371,note_on,0,0,0,,11,,,70,127
35429,note_off,58,0,0,,11,,,70,127
35430,note_on,1,0,0,,0,,,72,127
35430,note_on,0,0,0,,7,,,55,127
35435,note_off,5,0,0,,7,,,43,127
35488,note_off,53,0,0,,0,,,72,127
35489,note_on,1,0,0,,11,,,70,127
35547,note_off,58,0,0,,11,,,70,127
35548,note_on,1,0,0,,0,,,72,127
35548,note_on,0,0,0,,4,,,52,127
35553,note_off,5,0,0,,7,,,55,127
35606,note_off,53,0,0,,0,,,72,127
35607,note_on,1,0,0,,11,,,70,127
35665,note_off,58,0,0,,11,,,70,127
35666,note_on,1,0,0,,0,,,48,127
35671,note_off,5,0,0,,4,,,52,127
35689,note_on,18,0,0,,0,,,72,127
35736,note_on,47,0,0,,11,,,70,127
35747,note_off,11,0,0,,0,,,72,127
35784,note_on,37,0,0,,5,,,41,127
35784,note_on,0,0,0,,10,,,69,127
35789,note_off,5,0,0,,0,,,48,127
35794,note_off,5,0,0,,11,,,70,127
35902,note_on,108,0,0,,5,,,53,127
35907,note_off,5,0,0,,5,,,41,127
36020,note_on,113,0,0,,4,,,40,127
36025,note_off,5,0,0,,5,,,53,127
36079,note_off,54,0,0,,10,,,69,127
36079,note_on,0,0,0,,7,,,67,127
36137,note_off,58,0,0,,7,,,67,127
36138,note_on,1,0,0,,4,,,52,127
36138,note_on,0,0,0,,10,,,69,127
36143,note_off,5,0,0,,4,,,40,127
36196,note_off,53,0,0,,10,,,69,127
36197,note_on,1,0,0,,7,,,67,127
36255,note_off,58,0,0,,7,,,67,127
36256,note_on,1,0,0,,10,,,69,127
36256,note_on,0,0,0,,1,,,49,127
36261,note_off,5,0,0,,4,,,52,127
36314,note_off,53,0,0,,10,,,69,127
36315,note_on,1,0,0,,7,,,67,127
36373,note_off,58,0,0,,7,,,67,127
36374,note_on,1,0,0,,10,,,45,127
36379,note_off,5,0,0,,1,,,49,127
36397,note_on,18,0,0,,10,,,69,127
36444,note_on,47,0,0,,7,,,67,127
36455,note_off,11,0,0,,10,,,69,127
36492,note_on,37,0,0,,2,,,38,127
36492,note_on,0,0,0,,5,,,65,127
36497,note_off,5,0,0,,10,,,45,127
36502,note_off,5,0,0,,7,,,67,127
36610,note_on,108,0,0,,10,,,69,127
36633,note_off,23,0,0,,5,,,65,127
36726,note_off,93,0,0,,2,,,38,127
36727,note_on,1,0,0,,7,,,55,127
36727,note_on,0,0,0,,7,,,67,127
36750,note_off,23,0,0,,10,,,69,127
36844,note_on,94,0,0,,11,,,70,127
36867,note_off,23,0,0,,7,,,67,127
36960,note_off,93,0,0,,7,,,55,127
36961,note_on,1,0,0,,10,,,57,127
36961,note_on,0,0,0,,10,,,69,127
36984,note_off,23,0,0,,11,,,70,127
37078,note_on,94,0,0,,7,,,67,127
37101,note_off,23,0,0,,10,,,69,127
37194,note_off,93,0,0,,10,,,57,127
37195,note_on,1,0,0,,10,,,45,127
37195,note_on,0,0,0,,5,,,65,127
37218,note_off,23,0,0,,7,,,67,127
37312,note_on,94,0,0,,4,,,64,127
37335,note_off,23,0,0,,5,,,65,127
37428,note_off,93,0,0,,4,,,64,127
37428,note_off,0,0,0,,10,,,45,127
37429,note_on,1,0,0,,2,,,50,127
37429,note_on,0,0,0,,5,,,77,127
37547,note_on,118,0,0,,5,,,53,127
37552,note_off,5,0,0,,2,,,50,127
37665,note_on,113,0,0,,10,,,57,127
37670,note_off,5,0,0,,5,,,53,127
37783,note_on,113,0,0,,2,,,62,127
37788,note_off,5,0,0,,10,,,57,127
37899,note_off,111,0,0,,5,,,77,127
37900,note_on,1,0,0,,0,,,48,127
37900,note_on,0,0,0,,4,,,76,127
37905,note_off,5,0,0,,2,,,62,127
38018,note_on,113,0,0,,0,,,60,127
38023,note_off,5,0,0,,0,,,48,127
38136,note_on,113,0,0,,11,,,46,127
38141,note_off,5,0,0,,0,,,60,127
38183,note_on,42,0,0,,2,,,74,127
38195,note_off,12,0,0,,4,,,76,127
38229,note_on,34,0,0,,4,,,76,127
38240,note_off,11,0,0,,2,,,74,127
38253,note_on,13,0,0,,7,,,55,127
38258,note_off,5,0,0,,11,,,46,127
38276,note_on,18,0,0,,2,,,74,127
38286,note_off,10,0,0,,4,,,76,127
38323,note_on,37,0,0,,4,,,76,127
38334,note_off,11,0,0,,2,,,74,127
38371,note_on,37,0,0,,2,,,50,127
38371,note_on,0,0,0,,2,,,74,127
38376,note_off,5,0,0,,7,,,55,127
38381,note_off,5,0,0,,4,,,76,127
38418,note_on,37,0,0,,4,,,76,127
38429,note_off,11,0,0,,2,,,74,127
38465,note_on,36,0,0,,2,,,74,127
38476,note_off,11,0,0,,4,,,76,127
38489,note_on,13,0,0,,11,,,46,127
38494,note_off,5,0,0,,2,,,50,127
38512,note_on,18,0,0,,4,,,76,127
38522,note_off,10,0,0,,2,,,74,127
38559,note_on,37,0,0,,2,,,74,127
38570,note_off,11,0,0,,4,,,76,127
38607,note_on,37,0,0,,10,,,45,127
38607,note_on,0,0,0,,0,,,72,127
38612,note_off,5,0,0,,11,,,46,127
38617,note_off,5,0,0,,2,,,74,127
38725,note_on,108,0,0,,5,,,53,127
38730,note_off,5,0,0,,10,,,45,127
38843,note_on,113,0,0,,7,,,43,127
38848,note_off,5,0,0,,5,,,53,127
38890,note_on,42,0,0,,11,,,70,127
38902,note_off,12,0,0,,0,,,72,127
38936,note_on,34,0,0,,0,,,72,127
38947,note_off,11,0,0,,11,,,70,127
38960,note_on,13,0,0,,7,,,55,127
38965,note_off,5,0,0,,7,,,43,127
38983,note_on,18,0,0,,11,,,70,127
38993,note_off,10,0,0,,0,,,72,127
39030,note_on,37,0,0,,0,,,72,127
39041,note_off,11,0,0,,11,,,70,127
39078,note_on,37,0,0,,4,,,52,127
39078,note_on,0,0,0,,11,,,70,127
39083,note_off,5,0,0,,7,,,55,127
39088,note_off,5,0,0,,0,,,72,127
39125,note_on,37,0,0,,0,,,72,127
39136,note_off,11,0,0,,11,,,70,127
39172,note_on,36,0,0,,11,,,70,127
39183,note_off,11,0,0,,0,,,72,127
39196,note_on,13,0,0,,0,,,48,127
39201,note_off,5,0,0,,4,,,52,127
39219,note_on,18,0,0,,0,,,72,127
39229,note_off,10,0,0,,11,,,70,127
39266,note_on,37,0,0,,11,,,70,127
39277,note_off,11,0,0,,0,,,72,127
39314,note_on,37,0,0,,5,,,41,127
39314,note_on,0,0,0,,10,,,69,127
39319,note_off,5,0,0,,0,,,48,127
39324,note_off,5,0,0,,11,,,70,127
39432,note_on,108,0,0,,5,,,53,127
39437,note_off,5,0,0,,5,,,41,127
39550,note_on,113,0,0,,4,,,40,127
39555,note_off,5,0,0,,5,,,53,127
39597,note_on,42,0,0,,7,,,67,127
39609,note_off,12,0,0,,10,,,69,127
39643,note_on,34,0,0,,10,,,69,127
39654,note_off,11,0,0,,7,,,67,127
39667,note_on,13,0,0,,4,,,52,127
39672,note_off,5,0,0,,4,,,40,127
39690,note_on,18,0,0,,7,,,67,127
39700,note_off,10,0,0,,10,,,69,127
39737,note_on,37,0,0,,10,,,69,127
39748,note_off,11,0,0,,7,,,67,127
39785,note_on,37,0,0,,1,,,49,127
39785,note_on,0,0,0,,7,,,67,127
39790,note_off,5,0,0,,4,,,52,127
39795,note_off,5,0,0,,10,,,69,127
39832,note_on,37,0,0,,10,,,69,127
39843,note_off,11,0,0,,7,,,67,127
39879,note_on,36,0,0,,7,,,67,127
39890,note_off,11,0,0,,10,,,69,127
39903,note_on,13,0,0,,10,,,45,127
39908,note_off,5,0,0,,1,,,49,127
39926,note_on,18,0,0,,10,,,69,127
39936,note_off,10,0,0,,7,,,67,127
39973,note_on,37,0,0,,7,,,67,127
39984,note_off,11,0,0,,10,,,69,127
40021,note_on,37,0,0,,2,,,38,127
40021,note_on,0,0,0,,5,,,65,127
40026,note_off,5,0,0,,10,,,45,127
40031,note_off,5,0,0,,7,,,67,127
40139,note_on,108,0,0,,10,,,69,127
40162,note_off,23,0,0,,5,,,65,127
40255,note_off,93,0,0,,2,,,38,127
40256,note_on,1,0,0,,7,,,55,127
40256,note_on,0,0,0,,7,,,67,127
40279,note_off,23,0,0,,10,,,69,127
40373,note_on,94,0,0,,11,,,70,127
40396,note_off,23,0,0,,7,,,67,127
40489,note_off,93,0,0,,7,,,55,127
40490,note_on,1,0,0,,10,,,57,127
40490,note_on,0,0,0,,10,,,69,127
40513,note_off,23,0,0,,11,,,70,127
40607,note_on,94,0,0,,7,,,67,127
40630,note_off,23,0,0,,10,,,69,127
40723,note_off,93,0,0,,10,,,57,127
40724,note_on,1,0,0,,10,,,45,127
40724,note_on,0,0,0,,5,,,65,127
40747,note_off,23,0,0,,7,,,67,127
40841,note_on,94,0,0,,4,,,64,127
40864,note_off,23,0,0,,5,,,65,127
40957,note_off,93,0,0,,4,,,64,127
40957,note_off,0,0,0,,10,,,45,127
40958,note_on,1,0,0,,2,,,50,127
40958,note_on,0,0,0,,2,,,62,127
41076,note_on,118,0,0,,2,,,74,127
41191,note_off,115,0,0,,2,,,62,127
41192,note_off,1,0,0,,2,,,50,127
41193,note_on,1,0,0,,7,,,55,127
41193,note_on,0,0,0,,11,,,70,127
41216,note_off,23,0,0,,2,,,74,127
41310,note_on,94,0,0,,7,,,67,127
41333,note_off,23,0,0,,11,,,70,127
41426,note_off,93,0,0,,7,,,55,127
41427,note_on,1,0,0,,10,,,57,127
41427,note_on,0,0,0,,4,,,64,127
41450,note_off,23,0,0,,7,,,67,127
41544,note_on,94,0,0,,4,,,76,127
41544,note_on,0,0,0,,1,,,73,127
41659,note_off,115,0,0,,4,,,64,127
41660,note_off,1,0,0,,4,,,76,127
41660,note_off,0,0,0,,10,,,57,127
41661,note_on,1,0,0,,2,,,50,127
41661,note_on,0,0,0,,5,,,77,127
41684,note_off,23,0,0,,1,,,73,127
41778,note_on,94,0,0,,2,,,74,127
41893,note_off,115,0,0,,5,,,77,127
41894,note_off,1,0,0,,2,,,50,127
41895,note_on,1,0,0,,7,,,55,127
41895,note_on,0,0,0,,11,,,70,127
41918,note_off,23,0,0,,2,,,74,127
42012,note_on,94,0,0,,7,,,67,127
42035,note_off,23,0,0,,11,,,70,127
42128,note_off,93,0,0,,7,,,55,127
42129,note_on,1,0,0,,10,,,57,127
42129,note_on,0,0,0,,4,,,64,127
42152,note_off,23,0,0,,7,,,67,127
42246,note_on,94,0,0,,4,,,76,127
42246,note_on,0,0,0,,1,,,73,127
42361,note_off,115,0,0,,4,,,64,127
42362,note_off,1,0,0,,10,,,57,127
42363,note_on,1,0,0,,2,,,50,127
42363,note_on,0,0,0,,2,,,74,127
42386,note_off,23,0,0,,1,,,73,127
42386,note_off,0,0,0,,4,,,76,127
42480,note_on,94,0,0,,5,,,65,127
42503,note_off,23,0,0,,2,,,74,127
42596,note_off,93,0,0,,2,,,50,127
42597,note_on,1,0,0,,7,,,43,127
42597,note_on,0,0,0,,4,,,64,127
42620,note_off,23,0,0,,5,,,65,127
42714,note_on,94,0,0,,2,,,74,127
42737,note_off,23,0,0,,4,,,64,127
42830,note_off,93,0,0,,7,,,43,127
42831,note_on,1,0,0,,10,,,45,127
42831,note_on,0,0,0,,4,,,64,127
42854,note_off,23,0,0,,2,,,74,127
42948,note_on,94,0,0,,1,,,73,127
42971,note_off,23,0,0,,4,,,64,127
43064,note_off,93,0,0,,1,,,73,127
43064,note_off,0,0,0,,10,,,45,127
43065,note_on,1,0,0,,2,,,38,127
43065,note_on,0,0,0,,2,,,74,127
43530,note_off,465,0,0,,2,,,74,127
43769,note_off,239,0,0,,2,,,38,127
43770,note_on,1,0,0,,2,,,38,127
43770,note_on,0,0,0,,2,,,74,127
43888,note_on,118,0,0,,10,,,69,127
43911,note_off,23,0,0,,2,,,74,127
44005,note_on,94,0,0,,6,,,66,127
44028,note_off,23,0,0,,10,,,69,127
44122,note_on,94,0,0,,2,,,62,127
44145,note_off,23,0,0,,6,,,66,127
44239,note_on,94,0,0,,6,,,66,127
44262,note_off,23,0,0,,2,,,62,127
44356,note_on,94,0,0,,10,,,69,127
44379,note_off,23,0,0,,6,,,66,127
44472,note_off,93,0,0,,2,,,38,127
44473,note_on,1,0,0,,2,,,50,127
44473,note_on,0,0,0,,2,,,62,127
44473,note_on,0,0,0,,10,,,81,127
44496,note_off,23,0,0,,10,,,69,127
44590,note_on,94,0,0,,6,,,78,127
44613,note_off,23,0,0,,10,,,81,127
44707,note_on,94,0,0,,2,,,74,127
44730,note_off,23,0,0,,6,,,78,127
44824,note_on,94,0,0,,10,,,69,127
44847,note_off,23,0,0,,2,,,74,127
44940,note_off,93,0,0,,2,,,62,127
44940,note_off,0,0,0,,2,,,50,127
44941,note_on,1,0,0,,0,,,60,127
44941,note_on,0,0,0,,3,,,51,127
44941,note_on,0,0,0,,0,,,72,127
44964,note_off,23,0,0,,10,,,69,127
45058,note_on,94,0,0,,7,,,79,127
45081,note_off,23,0,0,,0,,,72,127
45174,note_off,93,0,0,,3,,,51,127
45174,note_off,0,0,0,,0,,,60,127
45175,note_on,1,0,0,,2,,,62,127
45175,note_on,0,0,0,,2,,,50,127
45175,note_on,0,0,0,,10,,,81,127
45198,note_off,23,0,0,,7,,,79,127
45292,note_on,94,0,0,,6,,,78,127
45315,note_off,23,0,0,,10,,,81,127
45409,note_on,94,0,0,,2,,,74,127
45432,note_off,23,0,0,,6,,,78,127
45526,note_on,94,0,0,,10,,,69,127
45549,note_off,23,0,0,,2,,,74,127
45642,note_off,93,0,0,,2,,,50,127
45642,note_off,0,0,0,,2,,,62,127
45643,note_on,1,0,0,,0,,,60,127
45643,note_on,0,0,0,,3,,,51,127
45643,note_on,0,0,0,,0,,,72,127
45666,note_off,23,0,0,,10,,,69,127
45760,note_on,94,0,0,,7,,,79,127
45783,note_off,23,0,0,,0,,,72,127
45876,note_off,93,0,0,,3,,,51,127
45876,note_off,0,0,0,,0,,,60,127
45877,note_on,1,0,0,,2,,,50,127
45877,note_on,0,0,0,,10,,,81,127
45900,note_off,23,0,0,,7,,,79,127
45994,note_on,94,0,0,,2,,,62,127
45999,note_off,5,0,0,,2,,,50,127
46112,note_on,113,0,0,,10,,,57,127
46117,note_off,5,0,0,,2,,,62,127
46230,note_on,113,0,0,,2,,,50,127
46235,note_off,5,0,0,,10,,,57,127
46346,note_off,111,0,0,,10,,,81,127
46347,note_on,1,0,0,,3,,,51,127
46347,note_on,0,0,0,,7,,,79,127
46347,note_on,0,0,0,,0,,,72,127
46352,note_off,5,0,0,,2,,,50,127
46465,note_on,113,0,0,,0,,,60,127
46470,note_off,5,0,0,,3,,,51,127
46581,note_off,111,0,0,,0,,,72,127
46581,note_off,0,0,0,,7,,,79,127
46582,note_on,1,0,0,,2,,,50,127
46582,note_on,0,0,0,,0,,,72,127
46582,note_on,0,0,0,,6,,,78,127
46587,note_off,5,0,0,,0,,,60,127
46700,note_on,113,0,0,,2,,,62,127
46705,note_off,5,0,0,,2,,,50,127
46818,note_on,113,0,0,,10,,,57,127
46823,note_off,5,0,0,,2,,,62,127
46936,note_on,113,0,0,,2,,,50,127
46941,note_off,5,0,0,,10,,,57,127
47052,note_off,111,0,0,,6,,,78,127
47052,note_off,0,0,0,,0,,,72,127
47053,note_on,1,0,0,,3,,,51,127
47053,note_on,0,0,0,,7,,,79,127
47053,note_on,0,0,0,,0,,,72,127
47058,note_off,5,0,0,,2,,,50,127
47171,note_on,113,0,0,,0,,,60,127
47176,note_off,5,0,0,,3,,,51,127
47287,note_off,111,0,0,,0,,,72,127
47287,note_off,0,0,0,,7,,,79,127
47288,note_on,1,0,0,,2,,,50,127
47288,note_on,0,0,0,,10,,,81,127
47293,note_off,5,0,0,,0,,,60,127
47406,note_on,113,0,0,,6,,,78,127
47429,note_off,23,0,0,,10,,,81,127
47523,note_on,94,0,0,,2,,,74,127
47546,note_off,23,0,0,,6,,,78,127
47640,note_on,94,0,0,,10,,,69,127
47663,note_off,23,0,0,,2,,,74,127
47756,note_off,93,0,0,,2,,,50,127
47757,note_on,1,0,0,,2,,,62,127
47757,note_on,0,0,0,,6,,,54,127
47757,note_on,0,0,0,,2,,,74,127
47780,note_off,23,0,0,,10,,,69,127
47874,note_on,94,0,0,,10,,,81,127
47897,note_off,23,0,0,,2,,,74,127
47990,note_off,93,0,0,,10,,,81,127
47990,note_off,0,0,0,,6,,,54,127
47990,note_off,0,0,0,,2,,,62,127
47991,note_on,1,0,0,,2,,,62,127
47991,note_on,0,0,0,,7,,,55,127
47991,note_on,0,0,0,,11,,,82,127
48109,note_on,118,0,0,,7,,,79,127
48224,note_off,115,0,0,,11,,,82,127
48226,note_on,2,0,0,,2,,,74,127
48249,note_off,23,0,0,,7,,,79,127
48343,note_on,94,0,0,,11,,,70,127
48366,note_off,23,0,0,,2,,,74,127
48459,note_off,93,0,0,,7,,,55,127
48459,note_off,0,0,0,,2,,,62,127
48460,note_on,1,0,0,,2,,,62,127
48460,note_on,0,0,0,,2,,,50,127
48460,note_on,0,0,0,,10,,,69,127
48483,note_off,23,0,0,,11,,,70,127
48577,note_on,94,0,0,,10,,,81,127
48600,note_off,23,0,0,,10,,,69,127
48693,note_off,93,0,0,,2,,,50,127
48693,note_off,0,0,0,,2,,,62,127
48694,note_on,1,0,0,,2,,,62,127
48694,note_on,0,0,0,,7,,,55,127
48694,note_on,0,0,0,,11,,,82,127
48717,note_off,23,0,0,,10,,,81,127
48811,note_on,94,0,0,,7,,,79,127
48834,note_off,23,0,0,,11,,,82,127
48928,note_on,94,0,0,,2,,,74,127
48951,note_off,23,0,0,,7,,,79,127
49045,note_on,94,0,0,,11,,,70,127
49068,note_off,23,0,0,,2,,,74,127
49161,note_off,93,0,0,,7,,,55,127
49161,note_off,0,0,0,,2,,,62,127
49162,note_on,1,0,0,,2,,,62,127
49162,note_on,0,0,0,,2,,,50,127
49162,note_on,0,0,0,,10,,,69,127
49185,note_off,23,0,0,,11,,,70,127
49279,note_on,94,0,0,,10,,,81,127
49302,note_off,23,0,0,,10,,,69,127
49395,note_off,93,0,0,,2,,,50,127
49395,note_off,0,0,0,,2,,,62,127
49396,note_on,1,0,0,,2,,,62,127
49396,note_on,0,0,0,,7,,,55,127
49396,note_on,0,0,0,,11,,,82,127
49419,note_off,23,0,0,,10,,,81,127
49513,note_on,94,0,0,,7,,,79,127
49536,note_off,23,0,0,,11,,,82,127
49630,note_on,94,0,0,,2,,,74,127
49653,note_off,23,0,0,,7,,,79,127
49747,note_on,94,0,0,,11,,,70,127
49770,note_off,23,0,0,,2,,,74,127
49863,note_off,93,0,0,,7,,,55,127
49863,note_off,0,0,0,,2,,,62,127
49864,note_on,1,0,0,,2,,,62,127
49864,note_on,0,0,0,,5,,,53,127
49864,note_on,0,0,0,,8,,,68,127
49887,note_off,23,0,0,,11,,,70,127
49981,note_on,94,0,0,,8,,,80,127
50004,note_off,23,0,0,,8,,,68,127
50097,note_off,93,0,0,,5,,,53,127
50097,note_off,0,0,0,,2,,,62,127
50098,note_on,1,0,0,,11,,,58,127
50098,note_on,0,0,0,,3,,,63,127
50098,note_on,0,0,0,,3,,,51,127
50098,note_on,0,0,0,,7,,,79,127
50121,note_off,23,0,0,,8,,,80,127
50215,note_on,94,0,0,,3,,,75,127
50238,note_off,23,0,0,,7,,,79,127
50332,note_on,94,0,0,,11,,,70,127
50355,note_off,23,0,0,,3,,,75,127
50449,note_on,94,0,0,,7,,,67,127
50472,note_off,23,0,0,,11,,,70,127
50565,note_off,93,0,0,,3,,,51,127
50565,note_off,0,0,0,,3,,,63,127
50565,note_off,0,0,0,,11,,,58,127
50566,note_on,1,0,0,,11,,,58,127
50566,note_on,0,0,0,,2,,,62,127
50566,note_on,0,0,0,,2,,,50,127
50566,note_on,0,0,0,,8,,,68,127
50589,note_off,23,0,0,,7,,,67,127
50683,note_on,94,0,0,,5,,,77,127
50706,note_off,23,0,0,,8,,,68,127
50799,note_off,93,0,0,,2,,,50,127
50799,note_off,0,0,0,,2,,,62,127
50799,note_off,0,0,0,,11,,,58,127
50800,note_on,1,0,0,,11,,,58,127
50800,note_on,0,0,0,,3,,,63,127
50800,note_on,0,0,0,,3,,,51,127
50800,note_on,0,0,0,,7,,,79,127
50823,note_off,23,0,0,,5,,,77,127
50917,note_on,94,0,0,,3,,,75,127
50940,note_off,23,0,0,,7,,,79,127
51034,note_on,94,0,0,,11,,,70,127
51057,note_off,23,0,0,,3,,,75,127
51151,note_on,94,0,0,,7,,,67,127
51174,note_off,23,0,0,,11,,,70,127
51267,note_off,93,0,0,,3,,,51,127
51267,note_off,0,0,0,,3,,,63,127
51267,note_off,0,0,0,,11,,,58,127
51268,note_on,1,0,0,,2,,,62,127
51268,note_on,0,0,0,,2,,,50,127
51268,note_on,0,0,0,,11,,,58,127
51268,note_on,0,0,0,,8,,,68,127
51291,note_off,23,0,0,,7,,,67,127
51385,note_on,94,0,0,,5,,,77,127
51408,note_off,23,0,0,,8,,,68,127
51501,note_off,93,0,0,,11,,,58,127
51501,note_off,0,0,0,,2,,,50,127
51501,note_off,0,0,0,,2,,,62,127
51502,note_on,1,0,0,,3,,,63,127
51502,note_on,0,0,0,,3,,,51,127
51502,note_on,0,0,0,,7,,,79,127
51525,note_off,23,0,0,,5,,,77,127
51619,note_on,94,0,0,,3,,,75,127
51642,note_off,23,0,0,,7,,,79,127
51736,note_on,94,0,0,,0,,,72,127
51759,note_off,23,0,0,,3,,,75,127
51852,note_off,93,0,0,,3,,,63,127
51853,note_on,1,0,0,,2,,,62,127
51853,note_on,0,0,0,,7,,,67,127
51876,note_off,23,0,0,,0,,,72,127
51969,note_off,93,0,0,,3,,,51,127
51970,note_on,1,0,0,,3,,,51,127
51970,note_on,0,0,0,,0,,,60,127
51970,note_on,0,0,0,,0,,,72,127
51975,note_off,5,0,0,,2,,,62,127
51993,note_off,18,0,0,,7,,,67,127
52087,note_on,94,0,0,,7,,,79,127
52110,note_off,23,0,0,,0,,,72,127
52203,note_off,93,0,0,,0,,,60,127
52203,note_off,0,0,0,,3,,,51,127
52204,note_on,1,0,0,,2,,,50,127
52204,note_on,0,0,0,,12,,,59,127
52204,note_on,0,0,0,,8,,,80,127
52227,note_off,23,0,0,,7,,,79,127
52321,note_on,94,0,0,,5,,,77,127
52344,note_off,23,0,0,,8,,,80,127
52438,note_on,94,0,0,,2,,,74,127
52461,note_off,23,0,0,,5,,,77,127
52555,note_on,94,0,0,,12,,,71,127
52578,note_off,23,0,0,,2,,,74,127
52671,note_off,93,0,0,,12,,,59,127
52671,note_off,0,0,0,,2,,,50,127
52672,note_on,1,0,0,,3,,,51,127
52672,note_on,0,0,0,,0,,,60,127
52672,note_on,0,0,0,,0,,,72,127
52695,note_off,23,0,0,,12,,,71,127
52789,note_on,94,0,0,,7,,,79,127
52812,note_off,23,0,0,,0,,,72,127
52905,note_off,93,0,0,,0,,,60,127
52905,note_off,0,0,0,,3,,,51,127
52906,note_on,1,0,0,,12,,,59,127
52906,note_on,0,0,0,,2,,,50,127
52906,note_on,0,0,0,,8,,,80,127
52929,note_off,23,0,0,,7,,,79,127
53023,note_on,94,0,0,,5,,,77,127
53046,note_off,23,0,0,,8,,,80,127
53140,note_on,94,0,0,,2,,,74,127
53163,note_off,23,0,0,,5,,,77,127
53257,note_on,94,0,0,,12,,,71,127
53280,note_off,23,0,0,,2,,,74,127
53373,note_off,93,0,0,,2,,,50,127
53373,note_off,0,0,0,,12,,,59,127
53374,note_on,1,0,0,,0,,,60,127
53374,note_on,0,0,0,,3,,,51,127
53374,note_on,0,0,0,,0,,,72,127
53397,note_off,23,0,0,,12,,,71,127
53491,note_on,94,0,0,,7,,,79,127
53514,note_off,23,0,0,,0,,,72,127
53607,note_off,93,0,0,,3,,,51,127
53607,note_off,0,0,0,,0,,,60,127
53608,note_on,1,0,0,,5,,,53,127
53608,note_on,0,0,0,,0,,,60,127
53608,note_on,0,0,0,,8,,,80,127
53631,note_off,23,0,0,,7,,,79,127
53725,note_on,94,0,0,,5,,,77,127
53748,note_off,23,0,0,,8,,,80,127
53842,note_on,94,0,0,,0,,,72,127
53865,note_off,23,0,0,,5,,,77,127
53959,note_on,94,0,0,,11,,,82,127
53982,note_off,23,0,0,,0,,,72,127
54075,note_off,93,0,0,,0,,,60,127
54075,note_off,0,0,0,,5,,,53,127
54076,note_on,1,0,0,,0,,,60,127
54076,note_on,0,0,0,,4,,,52,127
54076,note_on,0,0,0,,7,,,79,127
54099,note_off,23,0,0,,11,,,82,127
54193,note_on,94,0,0,,0,,,72,127
54216,note_off,23,0,0,,7,,,79,127
54309,note_off,93,0,0,,4,,,52,127
54309,note_off,0,0,0,,0,,,60,127
54310,note_on,1,0,0,,0,,,60,127
54310,note_on,0,0,0,,5,,,53,127
54310,note_on,0,0,0,,8,,,80,127
54333,note_off,23,0,0,,0,,,72,127
54427,note_on,94,0,0,,5,,,77,127
54450,note_off,23,0,0,,8,,,80,127
54544,note_on,94,0,0,,0,,,72,127
54567,note_off,23,0,0,,5,,,77,127
54661,note_on,94,0,0,,11,,,82,127
54684,note_off,23,0,0,,0,,,72,127
54777,note_off,93,0,0,,5,,,53,127
54777,note_off,0,0,0,,0,,,60,127
54778,note_on,1,0,0,,0,,,60,127
54778,note_on,0,0,0,,4,,,52,127
54778,note_on,0,0,0,,7,,,79,127
54801,note_off,23,0,0,,11,,,82,127
54895,note_on,94,0,0,,0,,,72,127
54918,note_off,23,0,0,,7,,,79,127
55011,note_off,93,0,0,,4,,,52,127
55011,note_off,0,0,0,,0,,,60,127
55012,note_on,1,0,0,,5,,,65,127
55012,note_on,0,0,0,,5,,,53,127
55012,note_on,0,0,0,,10,,,81,127
55035,note_off,23,0,0,,0,,,72,127
55129,note_on,94,0,0,,5,,,77,127
55152,note_off,23,0,0,,10,,,81,127
55246,note_on,94,0,0,,0,,,72,127
55269,note_off,23,0,0,,5,,,77,127
55363,note_on,94,0,0,,5,,,77,127
55386,note_off,23,0,0,,0,,,72,127
55479,note_off,93,0,0,,5,,,53,127
55479,note_off,0,0,0,,5,,,65,127
55480,note_on,1,0,0,,3,,,63,127
55480,note_on,0,0,0,,6,,,54,127
55480,note_on,0,0,0,,3,,,75,127
55503,note_off,23,0,0,,5,,,77,127
55597,note_on,94,0,0,,11,,,82,127
55620,note_off,23,0,0,,3,,,75,127
55713,note_off,93,0,0,,6,,,54,127
55713,note_off,0,0,0,,3,,,63,127
55714,note_on,1,0,0,,5,,,53,127
55714,note_on,0,0,0,,5,,,65,127
55714,note_on,0,0,0,,10,,,81,127
55737,note_off,23,0,0,,11,,,82,127
55831,note_on,94,0,0,,5,,,77,127
55854,note_off,23,0,0,,10,,,81,127
55948,note_on,94,0,0,,0,,,72,127
55971,note_off,23,0,0,,5,,,77,127
56065,note_on,94,0,0,,5,,,77,127
56088,note_off,23,0,0,,0,,,72,127
56181,note_off,93,0,0,,5,,,65,127
56181,note_off,0,0,0,,5,,,53,127
56182,note_on,1,0,0,,6,,,54,127
56182,note_on,0,0,0,,3,,,63,127
56182,note_on,0,0,0,,3,,,75,127
56205,note_off,23,0,0,,5,,,77,127
56299,note_on,94,0,0,,11,,,82,127
56322,note_off,23,0,0,,3,,,75,127
56415,note_off,93,0,0,,3,,,63,127
56415,note_off,0,0,0,,6,,,54,127
56416,note_on,1,0,0,,5,,,65,127
56416,note_on,0,0,0,,5,,,53,127
56416,note_on,0,0,0,,10,,,81,127
56439,note_off,23,0,0,,11,,,82,127
56533,note_on,94,0,0,,5,,,77,127
56556,note_off,23,0,0,,10,,,81,127
56650,note_on,94,0,0,,0,,,72,127
56673,note_off,23,0,0,,5,,,77,127
56767,note_on,94,0,0,,0,,,84,127
56790,note_off,23,0,0,,0,,,72,127
56883,note_off,93,0,0,,5,,,53,127
56883,note_off,0,0,0,,5,,,65,127
56884,note_on,1,0,0,,5,,,65,127
56884,note_on,0,0,0,,7,,,55,127
56884,note_on,0,0,0,,12,,,83,127
56907,note_off,23,0,0,,0,,,84,127
57001,note_on,94,0,0,,5,,,77,127
57024,note_off,23,0,0,,12,,,83,127
57117,note_off,93,0,0,,7,,,55,127
57117,note_off,0,0,0,,5,,,65,127
57118,note_on,1,0,0,,8,,,56,127
57118,note_on,0,0,0,,5,,,65,127
57118,note_on,0,0,0,,0,,,84,127
57141,note_off,23,0,0,,5,,,77,127
57235,note_on,94,0,0,,5,,,77,127
57258,note_off,23,0,0,,0,,,84,127
57352,note_on,94,0,0,,0,,,72,127
57375,note_off,23,0,0,,5,,,77,127
57469,note_on,94,0,0,,0,,,84,127
57492,note_off,23,0,0,,0,,,72,127
57585,note_off,93,0,0,,5,,,65,127
57585,note_off,0,0,0,,8,,,56,127
57586,note_on,1,0,0,,5,,,65,127
57586,note_on,0,0,0,,7,,,55,127
57586,note_on,0,0,0,,12,,,83,127
57609,note_off,23,0,0,,0,,,84,127
57703,note_on,94,0,0,,5,,,77,127
57726,note_off,23,0,0,,12,,,83,127
57819,note_off,93,0,0,,7,,,55,127
57819,note_off,0,0,0,,5,,,65,127
57820,note_on,1,0,0,,5,,,65,127
57820,note_on,0,0,0,,8,,,56,127
57820,note_on,0,0,0,,0,,,84,127
57843,note_off,23,0,0,,5,,,77,127
57937,note_on,94,0,0,,5,,,77,127
57960,note_off,23,0,0,,0,,,84,127
58054,note_on,94,0,0,,0,,,72,127
58077,note_off,23,0,0,,5,,,77,127
58171,note_on,94,0,0,,8,,,80,127
58194,note_off,23,0,0,,0,,,72,127
58287,note_off,93,0,0,,8,,,56,127
58287,note_off,0,0,0,,5,,,65,127
58288,note_on,1,0,0,,7,,,67,127
58288,note_on,0,0,0,,12,,,59,127
58288,note_on,0,0,0,,7,,,79,127
58311,note_off,23,0,0,,8,,,80,127
58405,note_on,94,0,0,,2,,,74,127
58428,note_off,23,0,0,,7,,,79,127
58521,note_off,93,0,0,,2,,,74,127
58521,note_off,0,0,0,,12,,,59,127
58521,note_off,0,0,0,,7,,,67,127
58522,note_on,1,0,0,,0,,,60,127
58522,note_on,0,0,0,,0,,,84,127
58640,note_on,118,0,0,,7,,,79,127
58663,note_off,23,0,0,,0,,,84,127
58757,note_on,94,0,0,,4,,,76,127
58780,note_off,23,0,0,,7,,,79,127
58874,note_on,94,0,0,,0,,,72,127
58897,note_off,23,0,0,,4,,,76,127
58990,note_off,93,0,0,,0,,,60,127
58991,note_on,1,0,0,,4,,,64,127
58991,note_on,0,0,0,,11,,,70,127
59014,note_off,23,0,0,,0,,,72,127
59108,note_on,94,0,0,,11,,,82,127
59131,note_off,23,0,0,,11,,,70,127
59224,note_off,93,0,0,,4,,,64,127
59225,note_on,1,0,0,,5,,,65,127
59225,note_on,0,0,0,,10,,,81,127
59248,note_off,23,0,0,,11,,,82,127
59342,note_on,94,0,0,,5,,,77,127
59365,note_off,23,0,0,,10,,,81,127
59459,note_on,94,0,0,,0,,,72,127
59482,note_off,23,0,0,,5,,,77,127
59576,note_on,94,0,0,,10,,,69,127
59599,note_off,23,0,0,,0,,,72,127
59692,note_off,93,0,0,,5,,,65,127
59693,note_on,1,0,0,,7,,,67,127
59693,note_on,0,0,0,,11,,,70,127
59716,note_off,23,0,0,,10,,,69,127
59810,note_on,94,0,0,,7,,,79,127
59833,note_off,23,0,0,,11,,,70,127
59926,note_off,93,0,0,,7,,,67,127
59927,note_on,1,0,0,,5,,,65,127
59927,note_on,0,0,0,,10,,,57,127
59927,note_on,0,0,0,,0,,,84,127
59950,note_off,23,0,0,,7,,,79,127
60044,note_on,94,0,0,,10,,,81,127
60067,note_off,23,0,0,,0,,,84,127
60160,note_off,93,0,0,,10,,,57,127
60160,note_off,0,0,0,,5,,,65,127
60161,note_on,1,0,0,,11,,,58,127
60161,note_on,0,0,0,,5,,,77,127
60184,note_off,23,0,0,,10,,,81,127
60278,note_on,94,0,0,,2,,,74,127
60301,note_off,23,0,0,,5,,,77,127
60394,note_off,93,0,0,,11,,,58,127
60395,note_on,1,0,0,,0,,,60,127
60395,note_on,0,0,0,,4,,,76,127
60418,note_off,23,0,0,,2,,,74,127
60512,note_on,94,0,0,,11,,,82,127
60535,note_off,23,0,0,,4,,,76,127
60628,note_off,93,0,0,,0,,,60,127
60629,note_on,1,0,0,,5,,,53,127
60629,note_on,0,0,0,,5,,,65,127
60629,note_on,0,0,0,,10,,,81,127
60652,note_off,23,0,0,,11,,,82,127
60746,note_on,94,0,0,,5,,,77,127
60769,note_off,23,0,0,,10,,,81,127
60863,note_on,94,0,0,,0,,,72,127
60886,note_off,23,0,0,,5,,,77,127
60980,note_on,94,0,0,,10,,,69,127
61003,note_off,23,0,0,,0,,,72,127
61096,note_off,93,0,0,,5,,,65,127
61096,note_off,0,0,0,,5,,,53,127
61097,note_on,1,0,0,,7,,,55,127
61097,note_on,0,0,0,,4,,,64,127
61097,note_on,0,0,0,,11,,,70,127
61120,note_off,23,0,0,,10,,,69,127
61214,note_on,94,0,0,,7,,,79,127
61237,note_off,23,0,0,,11,,,70,127
61330,note_off,93,0,0,,4,,,64,127
61330,note_off,0,0,0,,7,,,55,127
61331,note_on,1,0,0,,5,,,65,127
61331,note_on,0,0,0,,10,,,57,127
61331,note_on,0,0,0,,5,,,77,127
61354,note_off,23,0,0,,7,,,79,127
61448,note_on,94,0,0,,0,,,72,127
61471,note_off,23,0,0,,5,,,77,127
61564,note_off,93,0,0,,10,,,57,127
61564,note_off,0,0,0,,5,,,65,127
61565,note_on,1,0,0,,11,,,58,127
61565,note_on,0,0,0,,10,,,69,127
61588,note_off,23,0,0,,0,,,72,127
61682,note_on,94,0,0,,5,,,65,127
61705,note_off,23,0,0,,10,,,69,127
61798,note_off,93,0,0,,11,,,58,127
61799,note_on,1,0,0,,0,,,60,127
61799,note_on,0,0,0,,4,,,64,127
61822,note_off,23,0,0,,5,,,65,127
61916,note_on,94,0,0,,4,,,76,127
61939,note_off,23,0,0,,4,,,64,127
62032,note_off,93,0,0,,0,,,60,127
62033,note_on,1,0,0,,5,,,53,127
62033,note_on,0,0,0,,5,,,65,127
62033,note_on,0,0,0,,10,,,81,127
62056,note_off,23,0,0,,4,,,76,127
62150,note_on,94,0,0,,5,,,77,127
62173,note_off,23,0,0,,10,,,81,127
62267,note_on,94,0,0,,0,,,72,127
62290,note_off,23,0,0,,5,,,77,127
62384,note_on,94,0,0,,10,,,69,127
62407,note_off,23,0,0,,0,,,72,127
62500,note_off,93,0,0,,5,,,65,127
62500,note_off,0,0,0,,5,,,53,127
62501,note_on,1,0,0,,7,,,55,127
62501,note_on,0,0,0,,4,,,64,127
62501,note_on,0,0,0,,11,,,70,127
62524,note_off,23,0,0,,10,,,69,127
62618,note_on,94,0,0,,7,,,79,127
62641,note_off,23,0,0,,11,,,70,127
62734,note_off,93,0,0,,4,,,64,127
62734,note_off,0,0,0,,7,,,55,127
62735,note_on,1,0,0,,5,,,65,127
62735,note_on,0,0,0,,10,,,57,127
62735,note_on,0,0,0,,5,,,77,127
62758,note_off,23,0,0,,7,,,79,127
62852,note_on,94,0,0,,0,,,72,127
62875,note_off,23,0,0,,5,,,77,127
62968,note_off,93,0,0,,10,,,57,127
62968,note_off,0,0,0,,5,,,65,127
62969,note_on,1,0,0,,11,,,58,127
62969,note_on,0,0,0,,10,,,69,127
62992,note_off,23,0,0,,0,,,72,127
63086,note_on,94,0,0,,5,,,65,127
63109,note_off,23,0,0,,10,,,69,127
63202,note_off,93,0,0,,11,,,58,127
63203,note_on,1,0,0,,0,,,60,127
63203,note_on,0,0,0,,4,,,64,127
63226,note_off,23,0,0,,5,,,65,127
63320,note_on,94,0,0,,4,,,76,127
63343,note_off,23,0,0,,4,,,64,127
63436,note_off,93,0,0,,4,,,76,127
63436,note_off,0,0,0,,0,,,60,127
63437,note_on,1,0,0,,5,,,53,127
63437,note_on,0,0,0,,10,,,81,127
63555,note_on,118,0,0,,10,,,57,127
63560,note_off,5,0,0,,5,,,53,127
63673,note_on,113,0,0,,0,,,60,127
63678,note_off,5,0,0,,10,,,57,127
63791,note_on,113,0,0,,5,,,65,127
63796,note_off,5,0,0,,0,,,60,127
63907,note_off,111,0,0,,10,,,81,127
63908,note_on,1,0,0,,0,,,48,127
63908,note_on,0,0,0,,7,,,79,127
63913,note_off,5,0,0,,5,,,65,127
64026,note_on,113,0,0,,0,,,60,127
64031,note_off,5,0,0,,0,,,48,127
64142,note_off,111,0,0,,7,,,79,127
64143,note_on,1,0,0,,2,,,50,127
64143,note_on,0,0,0,,7,,,79,127
64148,note_off,5,0,0,,0,,,60,127
64201,note_off,53,0,0,,7,,,79,127
64202,note_on,1,0,0,,5,,,77,127
64260,note_off,58,0,0,,5,,,77,127
64261,note_on,1,0,0,,7,,,79,127
64261,note_on,0,0,0,,5,,,53,127
64266,note_off,5,0,0,,2,,,50,127
64319,note_off,53,0,0,,7,,,79,127
64320,note_on,1,0,0,,5,,,77,127
64378,note_off,58,0,0,,5,,,77,127
64379,note_on,1,0,0,,7,,,79,127
64379,note_on,0,0,0,,11,,,58,127
64384,note_off,5,0,0,,5,,,53,127
64437,note_off,53,0,0,,7,,,79,127
64438,note_on,1,0,0,,5,,,77,127
64496,note_off,58,0,0,,5,,,77,127
64497,note_on,1,0,0,,2,,,62,127
64502,note_off,5,0,0,,11,,,58,127
64520,note_on,18,0,0,,7,,,79,127
64567,note_on,47,0,0,,5,,,77,127
64578,note_off,11,0,0,,7,,,79,127
64615,note_on,37,0,0,,4,,,52,127
64615,note_on,0,0,0,,7,,,79,127
64620,note_off,5,0,0,,2,,,62,127
64625,note_off,5,0,0,,5,,,77,127
64733,note_on,108,0,0,,4,,,64,127
64738,note_off,5,0,0,,4,,,52,127
64849,note_off,111,0,0,,7,,,79,127
64850,note_on,1,0,0,,5,,,53,127
64850,note_on,0,0,0,,10,,,81,127
64855,note_off,5,0,0,,4,,,64,127
64968,note_on,113,0,0,,10,,,57,127
64973,note_off,5,0,0,,5,,,53,127
65086,note_on,113,0,0,,0,,,60,127
65091,note_off,5,0,0,,10,,,57,127
65204,note_on,113,0,0,,5,,,65,127
65209,note_off,5,0,0,,0,,,60,127
65320,note_off,111,0,0,,10,,,81,127
65321,note_on,1,0,0,,0,,,48,127
65321,note_on,0,0,0,,7,,,79,127
65326,note_off,5,0,0,,5,,,65,127
65439,note_on,113,0,0,,0,,,60,127
65444,note_off,5,0,0,,0,,,48,127
65555,note_off,111,0,0,,7,,,79,127
65556,note_on,1,0,0,,2,,,50,127
65556,note_on,0,0,0,,7,,,79,127
65561,note_off,5,0,0,,0,,,60,127
65614,note_off,53,0,0,,7,,,79,127
65615,note_on,1,0,0,,5,,,77,127
65673,note_off,58,0,0,,5,,,77,127
65674,note_on,1,0,0,,5,,,53,127
65674,note_on,0,0,0,,7,,,79,127
65679,note_off,5,0,0,,2,,,50,127
65732,note_off,53,0,0,,7,,,79,127
65733,note_on,1,0,0,,5,,,77,127
65791,note_off,58,0,0,,5,,,77,127
65792,note_on,1,0,0,,7,,,79,127
65792,note_on,0,0,0,,11,,,58,127
65797,note_off,5,0,0,,5,,,53,127
65850,note_off,53,0,0,,7,,,79,127
65851,note_on,1,0,0,,5,,,77,127
65909,note_off,58,0,0,,5,,,77,127
65910,note_on,1,0,0,,2,,,62,127
65915,note_off,5,0,0,,11,,,58,127
65933,note_on,18,0,0,,7,,,79,127
65980,note_on,47,0,0,,5,,,77,127
65991,note_off,11,0,0,,7,,,79,127
66028,note_on,37,0,0,,4,,,52,127
66028,note_on,0,0,0,,7,,,79,127
66033,note_off,5,0,0,,2,,,62,127
66038,note_off,5,0,0,,5,,,77,127
66146,note_on,108,0,0,,4,,,64,127
66151,note_off,5,0,0,,4,,,52,127
66262,note_off,111,0,0,,7,,,79,127
66263,note_on,1,0,0,,5,,,53,127
66263,note_on,0,0,0,,10,,,81,127
66268,note_off,5,0,0,,4,,,64,127
66381,note_on,113,0,0,,10,,,57,127
66386,note_off,5,0,0,,5,,,53,127
66499,note_on,113,0,0,,0,,,60,127
66504,note_off,5,0,0,,10,,,57,127
66617,note_on,113,0,0,,5,,,65,127
66622,note_off,5,0,0,,0,,,60,127
66733,note_off,111,0,0,,10,,,81,127
66734,note_on,1,0,0,,7,,,55,127
66734,note_on,0,0,0,,11,,,82,127
66739,note_off,5,0,0,,5,,,65,127
66852,note_on,113,0,0,,7,,,67,127
66857,note_off,5,0,0,,7,,,55,127
66968,note_off,111,0,0,,11,,,82,127
66969,note_on,1,0,0,,10,,,57,127
66969,note_on,0,0,0,,0,,,84,127
66974,note_off,5,0,0,,7,,,67,127
67087,note_on,113,0,0,,0,,,60,127
67092,note_off,5,0,0,,10,,,57,127
67205,note_on,113,0,0,,5,,,65,127
67210,note_off,5,0,0,,0,,,60,127
67323,note_on,113,0,0,,10,,,69,127
67328,note_off,5,0,0,,5,,,65,127
67439,note_off,111,0,0,,0,,,84,127
67440,note_on,1,0,0,,11,,,58,127
67440,note_on,0,0,0,,2,,,86,127
67445,note_off,5,0,0,,10,,,69,127
67558,note_on,113,0,0,,11,,,70,127
67563,note_off,5,0,0,,11,,,58,127
67674,note_off,111,0,0,,2,,,86,127
67675,note_on,1,0,0,,0,,,48,127
67675,note_on,0,0,0,,0,,,84,127
67680,note_off,5,0,0,,11,,,70,127
67793,note_on,113,0,0,,11,,,82,127
67816,note_off,23,0,0,,0,,,84,127
67910,note_on,94,0,0,,10,,,81,127
67933,note_off,23,0,0,,11,,,82,127
68027,note_on,94,0,0,,7,,,79,127
68050,note_off,23,0,0,,10,,,81,127
68144,note_on,94,0,0,,5,,,77,127
68167,note_off,23,0,0,,7,,,79,127
68261,note_off,94,0,0,,0,,,48,127
68261,note_on,0,0,0,,4,,,76,127
68284,note_off,23,0,0,,5,,,77,127
68377,note_off,93,0,0,,4,,,76,127
68378,note_on,1,0,0,,5,,,53,127
68378,note_on,0,0,0,,10,,,81,127
68496,note_on,118,0,0,,10,,,57,127
68501,note_off,5,0,0,,5,,,53,127
68614,note_on,113,0,0,,0,,,60,127
68619,note_off,5,0,0,,10,,,57,127
68732,note_on,113,0,0,,5,,,65,127
68737,note_off,5,0,0,,0,,,60,127
68848,note_off,111,0,0,,10,,,81,127
68849,note_on,1,0,0,,0,,,48,127
68849,note_on,0,0,0,,7,,,79,127
68854,note_off,5,0,0,,5,,,65,127
68967,note_on,113,0,0,,0,,,60,127
68972,note_off,5,0,0,,0,,,48,127
69083,note_off,111,0,0,,7,,,79,127
69084,note_on,1,0,0,,2,,,50,127
69084,note_on,0,0,0,,7,,,79,127
69089,note_off,5,0,0,,0,,,60,127
69131,note_on,42,0,0,,5,,,77,127
69142,note_off,11,0,0,,7,,,79,127
69178,note_on,36,0,0,,7,,,79,127
69189,note_off,11,0,0,,5,,,77,127
69202,note_on,13,0,0,,5,,,53,127
69207,note_off,5,0,0,,2,,,50,127
69225,note_on,18,0,0,,5,,,77,127
69235,note_off,10,0,0,,7,,,79,127
69272,note_on,37,0,0,,7,,,79,127
69283,note_off,11,0,0,,5,,,77,127
69320,note_on,37,0,0,,11,,,58,127
69320,note_on,0,0,0,,5,,,77,127
69325,note_off,5,0,0,,5,,,53,127
69330,note_off,5,0,0,,7,,,79,127
69367,note_on,37,0,0,,7,,,79,127
69378,note_off,11,0,0,,5,,,77,127
69414,note_on,36,0,0,,5,,,77,127
69425,note_off,11,0,0,,7,,,79,127
69438,note_on,13,0,0,,2,,,62,127
69443,note_off,5,0,0,,11,,,58,127
69461,note_on,18,0,0,,7,,,79,127
69471,note_off,10,0,0,,5,,,77,127
69508,note_on,37,0,0,,5,,,77,127
69519,note_off,11,0,0,,7,,,79,127
69556,note_on,37,0,0,,4,,,52,127
69556,note_on,0,0,0,,7,,,79,127
69561,note_off,5,0,0,,2,,,62,127
69566,note_off,5,0,0,,5,,,77,127
69674,note_on,108,0,0,,4,,,64,127
69679,note_off,5,0,0,,4,,,52,127
69790,note_off,111,0,0,,7,,,79,127
69791,note_on,1,0,0,,5,,,53,127
69791,note_on,0,0,0,,10,,,81,127
69796,note_off,5,0,0,,4,,,64,127
69909,note_on,113,0,0,,10,,,57,127
69914,note_off,5,0,0,,5,,,53,127
70027,note_on,113,0,0,,0,,,60,127
70032,note_off,5,0,0,,10,,,57,127
70145,note_on,113,0,0,,5,,,65,127
70150,note_off,5,0,0,,0,,,60,127
70261,note_off,111,0,0,,10,,,81,127
70262,note_on,1,0,0,,0,,,48,127
70262,note_on,0,0,0,,7,,,79,127
70267,note_off,5,0,0,,5,,,65,127
70380,note_on,113,0,0,,0,,,60,127
70385,note_off,5,0,0,,0,,,48,127
70496,note_off,111,0,0,,7,,,79,127
70497,note_on,1,0,0,,2,,,50,127
70497,note_on,0,0,0,,7,,,79,127
70502,note_off,5,0,0,,0,,,60,127
70544,note_on,42,0,0,,5,,,77,127
70555,note_off,11,0,0,,7,,,79,127
70591,note_on,36,0,0,,7,,,79,127
70602,note_off,11,0,0,,5,,,77,127
70615,note_on,13,0,0,,5,,,53,127
70620,note_off,5,0,0,,2,,,50,127
70638,note_on,18,0,0,,5,,,77,127
70648,note_off,10,0,0,,7,,,79,127
70685,note_on,37,0,0,,7,,,79,127
70696,note_off,11,0,0,,5,,,77,127
70733,note_on,37,0,0,,11,,,58,127
70733,note_on,0,0,0,,5,,,77,127
70738,note_off,5,0,0,,5,,,53,127
70743,note_off,5,0,0,,7,,,79,127
70780,note_on,37,0,0,,7,,,79,127
70791,note_off,11,0,0,,5,,,77,127
70827,note_on,36,0,0,,5,,,77,127
70838,note_off,11,0,0,,7,,,79,127
70851,note_on,13,0,0,,2,,,62,127
70856,note_off,5,0,0,,11,,,58,127
70874,note_on,18,0,0,,7,,,79,127
70884,note_off,10,0,0,,5,,,77,127
70921,note_on,37,0,0,,5,,,77,127
70932,note_off,11,0,0,,7,,,79,127
70969,note_on,37,0,0,,4,,,52,127
70969,note_on,0,0,0,,7,,,79,127
70974,note_off,5,0,0,,2,,,62,127
70979,note_off,5,0,0,,5,,,77,127
71087,note_on,108,0,0,,4,,,64,127
71092,note_off,5,0,0,,4,,,52,127
71203,note_off,111,0,0,,7,,,79,127
71204,note_on,1,0,0,,5,,,53,127
71204,note_on,0,0,0,,10,,,81,127
71209,note_off,5,0,0,,4,,,64,127
71322,note_on,113,0,0,,10,,,57,127
71327,note_off,5,0,0,,5,,,53,127
71440,note_on,113,0,0,,0,,,60,127
71445,note_off,5,0,0,,10,,,57,127
71558,note_on,113,0,0,,5,,,65,127
71563,note_off,5,0,0,,0,,,60,127
71674,note_off,111,0,0,,10,,,81,127
71675,note_on,1,0,0,,7,,,55,127
71675,note_on,0,0,0,,11,,,82,127
71680,note_off,5,0,0,,5,,,65,127
71793,note_on,113,0,0,,7,,,67,127
71798,note_off,5,0,0,,7,,,55,127
71909,note_off,111,0,0,,11,,,82,127
71910,note_on,1,0,0,,10,,,57,127
71910,note_on,0,0,0,,0,,,84,127
71915,note_off,5,0,0,,7,,,67,127
72028,note_on,113,0,0,,0,,,60,127
72033,note_off,5,0,0,,10,,,57,127
72146,note_on,113,0,0,,5,,,65,127
72151,note_off,5,0,0,,0,,,60,127
72264,note_on,113,0,0,,10,,,69,127
72269,note_off,5,0,0,,5,,,65,127
72380,note_off,111,0,0,,0,,,84,127
72381,note_on,1,0,0,,11,,,58,127
72381,note_on,0,0,0,,2,,,86,127
72386,note_off,5,0,0,,10,,,69,127
72499,note_on,113,0,0,,11,,,70,127
72504,note_off,5,0,0,,11,,,58,127
72615,note_off,111,0,0,,2,,,86,127
72616,note_on,1,0,0,,0,,,48,127
72616,note_on,0,0,0,,0,,,84,127
72621,note_off,5,0,0,,11,,,70,127
72734,note_on,113,0,0,,11,,,82,127
72757,note_off,23,0,0,,0,,,84,127
72851,note_on,94,0,0,,10,,,81,127
72874,note_off,23,0,0,,11,,,82,127
72968,note_on,94,0,0,,7,,,79,127
72991,note_off,23,0,0,,10,,,81,127
73085,note_on,94,0,0,,5,,,77,127
73108,note_off,23,0,0,,7,,,79,127
73202,note_off,94,0,0,,0,,,48,127
73202,note_on,0,0,0,,4,,,76,127
73225,note_off,23,0,0,,5,,,77,127
73318,note_off,93,0,0,,4,,,76,127
73319,note_on,1,0,0,,5,,,53,127
73319,note_on,0,0,0,,10,,,81,127
73437,note_on,118,0,0,,10,,,57,127
73442,note_off,5,0,0,,5,,,53,127
73555,note_on,113,0,0,,0,,,60,127
73560,note_off,5,0,0,,10,,,57,127
73673,note_on,113,0,0,,5,,,65,127
73678,note_off,5,0,0,,0,,,60,127
73789,note_off,111,0,0,,10,,,81,127
73790,note_on,1,0,0,,4,,,52,127
73790,note_on,0,0,0,,7,,,79,127
73795,note_off,5,0,0,,5,,,65,127
73908,note_on,113,0,0,,4,,,64,127
73913,note_off,5,0,0,,4,,,52,127
74026,note_on,113,0,0,,2,,,50,127
74031,note_off,5,0,0,,4,,,64,127
74085,note_off,54,0,0,,7,,,79,127
74085,note_on,0,0,0,,5,,,77,127
74143,note_off,58,0,0,,5,,,77,127
74144,note_on,1,0,0,,7,,,79,127
74144,note_on,0,0,0,,2,,,62,127
74149,note_off,5,0,0,,2,,,50,127
74202,note_off,53,0,0,,7,,,79,127
74203,note_on,1,0,0,,5,,,77,127
74261,note_off,58,0,0,,5,,,77,127
74262,note_on,1,0,0,,7,,,79,127
74262,note_on,0,0,0,,11,,,58,127
74267,note_off,5,0,0,,2,,,62,127
74320,note_off,53,0,0,,7,,,79,127
74321,note_on,1,0,0,,5,,,77,127
74379,note_off,58,0,0,,5,,,77,127
74380,note_on,1,0,0,,2,,,50,127
74385,note_off,5,0,0,,11,,,58,127
74403,note_on,18,0,0,,7,,,79,127
74450,note_on,47,0,0,,5,,,77,127
74461,note_off,11,0,0,,7,,,79,127
74498,note_on,37,0,0,,0,,,48,127
74498,note_on,0,0,0,,4,,,76,127
74503,note_off,5,0,0,,2,,,50,127
74508,note_off,5,0,0,,5,,,77,127
74616,note_on,108,0,0,,0,,,60,127
74621,note_off,5,0,0,,0,,,48,127
74734,note_on,113,0,0,,11,,,46,127
74739,note_off,5,0,0,,0,,,60,127
74793,note_off,54,0,0,,4,,,76,127
74793,note_on,0,0,0,,2,,,74,127
74851,note_off,58,0,0,,2,,,74,127
74852,note_on,1,0,0,,11,,,58,127
74852,note_on,0,0,0,,4,,,76,127
74857,note_off,5,0,0,,11,,,46,127
74910,note_off,53,0,0,,4,,,76,127
74911,note_on,1,0,0,,2,,,74,127
74969,note_off,58,0,0,,2,,,74,127
74970,note_on,1,0,0,,7,,,55,127
74970,note_on,0,0,0,,4,,,76,127
74975,note_off,5,0,0,,11,,,58,127
75028,note_off,53,0,0,,4,,,76,127
75029,note_on,1,0,0,,2,,,74,127
75087,note_off,58,0,0,,2,,,74,127
75088,note_on,1,0,0,,11,,,46,127
75093,note_off,5,0,0,,7,,,55,127
75111,note_on,18,0,0,,4,,,76,127
75158,note_on,47,0,0,,2,,,74,127
75169,note_off,11,0,0,,4,,,76,127
75206,note_on,37,0,0,,10,,,45,127
75206,note_on,0,0,0,,0,,,72,127
75211,note_off,5,0,0,,11,,,46,127
75216,note_off,5,0,0,,2,,,74,127
75324,note_on,108,0,0,,10,,,57,127
75329,note_off,5,0,0,,10,,,45,127
75442,note_on,113,0,0,,7,,,43,127
75447,note_off,5,0,0,,10,,,57,127
75501,note_off,54,0,0,,0,,,72,127
75501,note_on,0,0,0,,11,,,70,127
75559,note_off,58,0,0,,11,,,70,127
75560,note_on,1,0,0,,0,,,72,127
75560,note_on,0,0,0,,7,,,55,127
75565,note_off,5,0,0,,7,,,43,127
75618,note_off,53,0,0,,0,,,72,127
75619,note_on,1,0,0,,11,,,70,127
75677,note_off,58,0,0,,11,,,70,127
75678,note_on,1,0,0,,0,,,72,127
75678,note_on,0,0,0,,4,,,52,127
75683,note_off,5,0,0,,7,,,55,127
75736,note_off,53,0,0,,0,,,72,127
75737,note_on,1,0,0,,11,,,70,127
75795,note_off,58,0,0,,11,,,70,127
75796,note_on,1,0,0,,0,,,48,127
75801,note_off,5,0,0,,4,,,52,127
75819,note_on,18,0,0,,0,,,72,127
75866,note_on,47,0,0,,11,,,70,127
75877,note_off,11,0,0,,0,,,72,127
75914,note_on,37,0,0,,5,,,41,127
75914,note_on,0,0,0,,10,,,69,127
75919,note_off,5,0,0,,0,,,48,127
75924,note_off,5,0,0,,11,,,70,127
76032,note_on,108,0,0,,0,,,72,127
76055,note_off,23,0,0,,10,,,69,127
76148,note_off,93,0,0,,5,,,41,127
76149,note_on,1,0,0,,11,,,46,127
76149,note_on,0,0,0,,11,,,70,127
76172,note_off,23,0,0,,0,,,72,127
76266,note_on,94,0,0,,2,,,74,127
76289,note_off,23,0,0,,11,,,70,127
76382,note_off,93,0,0,,11,,,46,127
76383,note_on,1,0,0,,0,,,48,127
76383,note_on,0,0,0,,0,,,72,127
76406,note_off,23,0,0,,2,,,74,127
76500,note_on,94,0,0,,11,,,70,127
76523,note_off,23,0,0,,0,,,72,127
76616,note_off,93,0,0,,0,,,48,127
76617,note_on,1,0,0,,0,,,36,127
76617,note_on,0,0,0,,10,,,69,127
76640,note_off,23,0,0,,11,,,70,127
76734,note_on,94,0,0,,7,,,67,127
76757,note_off,23,0,0,,10,,,69,127
76850,note_off,93,0,0,,7,,,67,127
76850,note_off,0,0,0,,0,,,36,127
76871,note_on,21,0,0,,5,,,53,127
76871,note_on,0,0,0,,10,,,81,127
76989,note_on,118,0,0,,10,,,57,127
76994,note_off,5,0,0,,5,,,53,127
77107,note_on,113,0,0,,0,,,60,127
77112,note_off,5,0,0,,10,,,57,127
77225,note_on,113,0,0,,5,,,65,127
77230,note_off,5,0,0,,0,,,60,127
77341,note_off,111,0,0,,10,,,81,127
77342,note_on,1,0,0,,4,,,52,127
77342,note_on,0,0,0,,7,,,79,127
77347,note_off,5,0,0,,5,,,65,127
77460,note_on,113,0,0,,4,,,64,127
77465,note_off,5,0,0,,4,,,52,127
77578,note_on,113,0,0,,2,,,50,127
77583,note_off,5,0,0,,4,,,64,127
77625,note_on,42,0,0,,5,,,77,127
77637,note_off,12,0,0,,7,,,79,127
77671,note_on,34,0,0,,7,,,79,127
77682,note_off,11,0,0,,5,,,77,127
77695,note_on,13,0,0,,2,,,62,127
77700,note_off,5,0,0,,2,,,50,127
77718,note_on,18,0,0,,5,,,77,127
77728,note_off,10,0,0,,7,,,79,127
77765,note_on,37,0,0,,7,,,79,127
77776,note_off,11,0,0,,5,,,77,127
77813,note_on,37,0,0,,11,,,58,127
77813,note_on,0,0,0,,5,,,77,127
77818,note_off,5,0,0,,2,,,62,127
77823,note_off,5,0,0,,7,,,79,127
77860,note_on,37,0,0,,7,,,79,127
77871,note_off,11,0,0,,5,,,77,127
77907,note_on,36,0,0,,5,,,77,127
77918,note_off,11,0,0,,7,,,79,127
77931,note_on,13,0,0,,2,,,50,127
77936,note_off,5,0,0,,11,,,58,127
77954,note_on,18,0,0,,7,,,79,127
77964,note_off,10,0,0,,5,,,77,127
78001,note_on,37,0,0,,5,,,77,127
78012,note_off,11,0,0,,7,,,79,127
78049,note_on,37,0,0,,0,,,48,127
78049,note_on,0,0,0,,4,,,76,127
78054,note_off,5,0,0,,2,,,50,127
78059,note_off,5,0,0,,5,,,77,127
78167,note_on,108,0,0,,0,,,60,127
78172,note_off,5,0,0,,0,,,48,127
78285,note_on,113,0,0,,11,,,46,127
78290,note_off,5,0,0,,0,,,60,127
78332,note_on,42,0,0,,2,,,74,127
78344,note_off,12,0,0,,4,,,76,127
78378,note_on,34,0,0,,4,,,76,127
78389,note_off,11,0,0,,2,,,74,127
78402,note_on,13,0,0,,11,,,58,127
78407,note_off,5,0,0,,11,,,46,127
78425,note_on,18,0,0,,2,,,74,127
78435,note_off,10,0,0,,4,,,76,127
78472,note_on,37,0,0,,4,,,76,127
78483,note_off,11,0,0,,2,,,74,127
78520,note_on,37,0,0,,7,,,55,127
78520,note_on,0,0,0,,2,,,74,127
78525,note_off,5,0,0,,11,,,58,127
78530,note_off,5,0,0,,4,,,76,127
78567,note_on,37,0,0,,4,,,76,127
78578,note_off,11,0,0,,2,,,74,127
78614,note_on,36,0,0,,2,,,74,127
78625,note_off,11,0,0,,4,,,76,127
78638,note_on,13,0,0,,11,,,46,127
78643,note_off,5,0,0,,7,,,55,127
78661,note_on,18,0,0,,4,,,76,127
78671,note_off,10,0,0,,2,,,74,127
78708,note_on,37,0,0,,2,,,74,127
78719,note_off,11,0,0,,4,,,76,127
78756,note_on,37,0,0,,10,,,45,127
78756,note_on,0,0,0,,0,,,72,127
78761,note_off,5,0,0,,11,,,46,127
78766,note_off,5,0,0,,2,,,74,127
78874,note_on,108,0,0,,10,,,57,127
78879,note_off,5,0,0,,10,,,45,127
78992,note_on,113,0,0,,7,,,43,127
78997,note_off,5,0,0,,10,,,57,127
79039,note_on,42,0,0,,11,,,70,127
79051,note_off,12,0,0,,0,,,72,127
79085,note_on,34,0,0,,0,,,72,127
79096,note_off,11,0,0,,11,,,70,127
79109,note_on,13,0,0,,7,,,55,127
79114,note_off,5,0,0,,7,,,43,127
79132,note_on,18,0,0,,11,,,70,127
79142,note_off,10,0,0,,0,,,72,127
79179,note_on,37,0,0,,0,,,72,127
79190,note_off,11,0,0,,11,,,70,127
79227,note_on,37,0,0,,4,,,52,127
79227,note_on,0,0,0,,11,,,70,127
79232,note_off,5,0,0,,7,,,55,127
79237,note_off,5,0,0,,0,,,72,127
79274,note_on,37,0,0,,0,,,72,127
79285,note_off,11,0,0,,11,,,70,127
79321,note_on,36,0,0,,11,,,70,127
79332,note_off,11,0,0,,0,,,72,127
79345,note_on,13,0,0,,0,,,48,127
79350,note_off,5,0,0,,4,,,52,127
79368,note_on,18,0,0,,0,,,72,127
79378,note_off,10,0,0,,11,,,70,127
79415,note_on,37,0,0,,11,,,70,127
79426,note_off,11,0,0,,0,,,72,127
79463,note_on,37,0,0,,5,,,41,127
79463,note_on,0,0,0,,10,,,69,127
79468,note_off,5,0,0,,0,,,48,127
79473,note_off,5,0,0,,11,,,70,127
79581,note_on,108,0,0,,0,,,72,127
79604,note_off,23,0,0,,10,,,69,127
79697,note_off,93,0,0,,5,,,41,127
79698,note_on,1,0,0,,11,,,46,127
79698,note_on,0,0,0,,11,,,70,127
79721,note_off,23,0,0,,0,,,72,127
79815,note_on,94,0,0,,2,,,74,127
79838,note_off,23,0,0,,11,,,70,127
79931,note_off,93,0,0,,11,,,46,127
79932,note_on,1,0,0,,0,,,48,127
79932,note_on,0,0,0,,0,,,72,127
79955,note_off,23,0,0,,2,,,74,127
80049,note_on,94,0,0,,11,,,70,127
80072,note_off,23,0,0,,0,,,72,127
80165,note_off,93,0,0,,0,,,48,127
80166,note_on,1,0,0,,0,,,36,127
80166,note_on,0,0,0,,10,,,69,127
80189,note_off,23,0,0,,11,,,70,127
80283,note_on,94,0,0,,7,,,67,127
80306,note_off,23,0,0,,10,,,69,127
80399,note_off,93,0,0,,0,,,36,127
80400,note_off,1,0,0,,7,,,67,127
80402,note_on,2,0,0,,5,,,65,127
80402,note_on,0,0,0,,5,,,41,127
80522,note_on,120,0,0,,5,,,77,127
80638,note_off,116,0,0,,5,,,65,127
80639,note_off,1,0,0,,5,,,41,127
80641,note_on,2,0,0,,2,,,74,127
80641,note_on,0,0,0,,11,,,46,127
80664,note_off,23,0,0,,5,,,77,127
80761,note_on,97,0,0,,11,,,70,127
80784,note_off,23,0,0,,2,,,74,127
80878,note_off,94,0,0,,11,,,46,127
80879,note_on,1,0,0,,7,,,67,127
80879,note_on,0,0,0,,0,,,48,127
80903,note_off,24,0,0,,11,,,70,127
80999,note_on,96,0,0,,7,,,79,127
80999,note_on,0,0,0,,4,,,76,127
81022,note_off,23,0,0,,7,,,67,127
81116,note_off,94,0,0,,7,,,79,127
81116,note_off,0,0,0,,0,,,48,127
81118,note_on,2,0,0,,10,,,81,127
81118,note_on,0,0,0,,5,,,53,127
81141,note_off,23,0,0,,4,,,76,127
81238,note_on,97,0,0,,5,,,77,127
81354,note_off,116,0,0,,10,,,81,127
81355,note_off,1,0,0,,5,,,53,127
81357,note_on,2,0,0,,2,,,74,127
81357,note_on,0,0,0,,11,,,46,127
81380,note_off,23,0,0,,5,,,77,127
81477,note_on,97,0,0,,11,,,70,127
81500,note_off,23,0,0,,2,,,74,127
81594,note_off,94,0,0,,11,,,46,127
81596,note_on,2,0,0,,7,,,67,127
81596,note_on,0,0,0,,0,,,48,127
81619,note_off,23,0,0,,11,,,70,127
81716,note_on,97,0,0,,4,,,76,127
81716,note_on,0,0,0,,7,,,79,127
81832,note_off,116,0,0,,7,,,67,127
81833,note_off,1,0,0,,7,,,79,127
81833,note_off,0,0,0,,4,,,76,127
81833,note_off,0,0,0,,0,,,48,127
81835,note_on,2,0,0,,5,,,53,127
81835,note_on,0,0,0,,5,,,77,127
81959,note_on,124,0,0,,0,,,72,127
81981,note_off,22,0,0,,5,,,77,127
82077,note_off,96,0,0,,5,,,53,127
82083,note_on,6,0,0,,11,,,46,127
82083,note_on,0,0,0,,2,,,74,127
82105,note_off,22,0,0,,0,,,72,127
82205,note_on,100,0,0,,11,,,70,127
82228,note_off,23,0,0,,2,,,74,127
82324,note_off,96,0,0,,11,,,46,127
82328,note_on,4,0,0,,0,,,48,127
82328,note_on,0,0,0,,7,,,67,127
82351,note_off,23,0,0,,11,,,70,127
82451,note_on,100,0,0,,0,,,72,127
82451,note_on,0,0,0,,4,,,76,127
82451,note_on,0,0,0,,11,,,70,127
82473,note_off,22,0,0,,7,,,67,127
82569,note_off,96,0,0,,0,,,48,127
82570,note_off,1,0,0,,11,,,70,127
82570,note_off,0,0,0,,0,,,72,127
82598,note_off,28,0,0,,4,,,76,127
82607,note_on,9,0,0,,5,,,65,127
82607,note_on,0,0,0,,5,,,77,127
82607,note_on,0,0,0,,5,,,41,127
85143,note_off,2536,0,0,,5,,,41,127
85143,note_off,0,0,0,,5,,,77,127
85143,note_off,0,0,0,,5,,,65,127
89088,end_of_track,3945,1,0,,,,,,
