tick,type,time,meta,track,program,channel,pitch,tempo,note,velocity
0,copyright,0,1,0,,,,,,
0,program_change,0,0,0,6,0,,,,
0,pitchwheel,0,0,0,,0,0,,,
0,program_change,0,0,0,6,1,,,,
0,pitchwheel,0,0,0,,1,-590,,,
0,program_change,0,0,0,6,2,,,,
0,pitchwheel,0,0,0,,2,-272,,,
0,program_change,0,0,0,6,3,,,,
0,pitchwheel,0,0,0,,3,-353,,,
0,program_change,0,0,0,6,4,,,,
0,pitchwheel,0,0,0,,4,-560,,,
0,program_change,0,0,0,6,5,,,,
0,pitchwheel,0,0,0,,5,-80,,,
0,program_change,0,0,0,6,6,,,,
0,pitchwheel,0,0,0,,6,-625,,,
0,program_change,0,0,0,6,7,,,,
0,pitchwheel,0,0,0,,7,-130,,,
0,program_change,0,0,0,6,8,,,,
0,pitchwheel,0,0,0,,8,-512,,,
0,program_change,0,0,0,6,10,,,,
0,pitchwheel,0,0,0,,10,-464,,,
0,program_change,0,0,0,6,11,,,,
0,pitchwheel,0,0,0,,11,-208,,,
0,program_change,0,0,0,6,12,,,,
0,pitchwheel,0,0,0,,12,-553,,,
0,set_tempo,0,1,0,,,,500000,,
136,note_on,136,0,0,,10,,,81,127
270,note_off,134,0,0,,10,,,81,127
271,note_on,1,0,0,,7,,,79,127
405,note_off,134,0,0,,7,,,79,127
406,note_on,1,0,0,,5,,,77,127
676,note_off,270,0,0,,5,,,77,127
677,note_on,1,0,0,,4,,,76,127
811,note_off,134,0,0,,4,,,76,127
812,note_on,1,0,0,,2,,,74,127
946,note_off,134,0,0,,2,,,74,127
947,note_on,1,0,0,,0,,,72,127
1217,note_off,270,0,0,,0,,,72,127
1218,note_on,1,0,0,,11,,,70,127
1352,note_off,134,0,0,,11,,,70,127
1353,note_on,1,0,0,,10,,,69,127
1487,note_off,134,0,0,,10,,,69,127
1488,note_on,1,0,0,,7,,,67,127
1758,note_off,270,0,0,,7,,,67,127
1759,note_on,1,0,0,,5,,,65,127
1893,note_off,134,0,0,,5,,,65,127
1894,note_on,1,0,0,,4,,,64,127
2028,note_off,134,0,0,,4,,,64,127
2029,note_on,1,0,0,,5,,,65,127
2299,note_off,270,0,0,,5,,,65,127
2300,note_on,1,0,0,,0,,,72,127
2300,note_on,0,0,0,,5,,,65,127
2434,note_off,134,0,0,,5,,,65,127
2435,note_on,1,0,0,,4,,,64,127
2569,note_off,134,0,0,,4,,,64,127
2570,note_on,1,0,0,,2,,,62,127
2840,note_off,270,0,0,,2,,,62,127
2840,note_off,0,0,0,,0,,,72,127
2841,note_on,1,0,0,,2,,,74,127
2841,note_on,0,0,0,,0,,,60,127
2975,note_off,134,0,0,,0,,,60,127
2976,note_on,1,0,0,,11,,,58,127
3110,note_off,134,0,0,,11,,,58,127
3110,note_off,0,0,0,,2,,,74,127
3111,note_on,1,0,0,,4,,,76,127
3111,note_on,0,0,0,,0,,,60,127
3381,note_off,270,0,0,,0,,,60,127
3381,note_off,0,0,0,,4,,,76,127
3382,note_on,1,0,0,,5,,,77,127
3382,note_on,0,0,0,,11,,,58,127
3516,note_off,134,0,0,,11,,,58,127
3517,note_on,1,0,0,,10,,,57,127
3651,note_off,134,0,0,,10,,,57,127
3651,note_off,0,0,0,,5,,,77,127
3652,note_on,1,0,0,,7,,,79,127
3652,note_on,0,0,0,,7,,,55,127
3922,note_off,270,0,0,,7,,,55,127
3922,note_off,0,0,0,,7,,,79,127
3923,note_on,1,0,0,,10,,,81,127
3923,note_on,0,0,0,,5,,,53,127
4057,note_off,134,0,0,,5,,,53,127
4057,note_off,0,0,0,,10,,,81,127
4058,note_on,1,0,0,,11,,,82,127
4058,note_on,0,0,0,,4,,,52,127
4192,note_off,134,0,0,,4,,,52,127
4192,note_off,0,0,0,,11,,,82,127
4193,note_on,1,0,0,,10,,,81,127
4193,note_on,0,0,0,,5,,,53,127
4464,note_on,271,0,0,,10,,,69,127
4729,note_off,265,0,0,,10,,,81,127
4733,note_off,4,0,0,,10,,,69,127
4734,note_on,1,0,0,,10,,,81,127
5004,note_off,270,0,0,,5,,,53,127
5005,note_on,1,0,0,,5,,,53,127
5005,note_on,0,0,0,,5,,,65,127
5275,note_off,270,0,0,,5,,,65,127
5275,note_off,0,0,0,,5,,,53,127
5276,note_on,1,0,0,,7,,,55,127
5276,note_on,0,0,0,,5,,,65,127
5410,note_off,134,0,0,,10,,,81,127
5411,note_on,1,0,0,,7,,,79,127
5545,note_off,134,0,0,,7,,,79,127
5545,note_off,0,0,0,,5,,,65,127
5545,note_off,0,0,0,,7,,,55,127
5546,note_on,1,0,0,,7,,,79,127
5546,note_on,0,0,0,,7,,,55,127
5546,note_on,0,0,0,,4,,,64,127
5680,note_off,134,0,0,,7,,,79,127
5681,note_on,1,0,0,,5,,,77,127
5815,note_off,134,0,0,,5,,,77,127
5815,note_off,0,0,0,,4,,,64,127
5815,note_off,0,0,0,,7,,,55,127
5816,note_on,1,0,0,,5,,,77,127
5816,note_on,0,0,0,,7,,,55,127
5816,note_on,0,0,0,,4,,,64,127
5950,note_off,134,0,0,,5,,,77,127
5951,note_on,1,0,0,,4,,,76,127
6085,note_off,134,0,0,,4,,,76,127
6085,note_off,0,0,0,,4,,,64,127
6085,note_off,0,0,0,,7,,,55,127
6086,note_on,1,0,0,,4,,,76,127
6086,note_on,0,0,0,,7,,,55,127
6086,note_on,0,0,0,,4,,,64,127
6220,note_off,134,0,0,,4,,,76,127
6221,note_on,1,0,0,,2,,,74,127
6355,note_off,134,0,0,,2,,,74,127
6355,note_off,0,0,0,,4,,,64,127
6355,note_off,0,0,0,,7,,,55,127
6356,note_on,1,0,0,,2,,,74,127
6356,note_on,0,0,0,,5,,,65,127
6356,note_on,0,0,0,,10,,,57,127
6626,note_off,270,0,0,,2,,,74,127
6627,note_on,1,0,0,,0,,,72,127
6897,note_off,270,0,0,,0,,,72,127
6898,note_on,1,0,0,,0,,,84,127
7168,note_off,270,0,0,,10,,,57,127
7168,note_off,0,0,0,,5,,,65,127
7169,note_on,1,0,0,,10,,,57,127
7169,note_on,0,0,0,,10,,,69,127
7439,note_off,270,0,0,,10,,,69,127
7439,note_off,0,0,0,,10,,,57,127
7440,note_on,1,0,0,,11,,,58,127
7440,note_on,0,0,0,,10,,,69,127
7574,note_off,134,0,0,,0,,,84,127
7575,note_on,1,0,0,,11,,,82,127
7709,note_off,134,0,0,,11,,,82,127
7709,note_off,0,0,0,,10,,,69,127
7709,note_off,0,0,0,,11,,,58,127
7710,note_on,1,0,0,,11,,,82,127
7710,note_on,0,0,0,,7,,,67,127
7710,note_on,0,0,0,,11,,,58,127
7844,note_off,134,0,0,,11,,,82,127
7845,note_on,1,0,0,,10,,,81,127
7979,note_off,134,0,0,,10,,,81,127
7979,note_off,0,0,0,,11,,,58,127
7979,note_off,0,0,0,,7,,,67,127
7980,note_on,1,0,0,,10,,,81,127
7980,note_on,0,0,0,,7,,,67,127
7980,note_on,0,0,0,,11,,,58,127
8114,note_off,134,0,0,,10,,,81,127
8115,note_on,1,0,0,,7,,,79,127
8249,note_off,134,0,0,,7,,,79,127
8249,note_off,0,0,0,,11,,,58,127
8249,note_off,0,0,0,,7,,,67,127
8250,note_on,1,0,0,,7,,,79,127
8250,note_on,0,0,0,,7,,,67,127
8250,note_on,0,0,0,,11,,,58,127
8384,note_off,134,0,0,,7,,,79,127
8385,note_on,1,0,0,,5,,,77,127
8519,note_off,134,0,0,,5,,,77,127
8519,note_off,0,0,0,,11,,,58,127
8519,note_off,0,0,0,,7,,,67,127
8520,note_on,1,0,0,,5,,,77,127
8520,note_on,0,0,0,,0,,,60,127
8790,note_off,270,0,0,,5,,,77,127
8791,note_on,1,0,0,,4,,,76,127
8791,note_on,0,0,0,,11,,,70,127
9061,note_off,270,0,0,,11,,,70,127
9061,note_off,0,0,0,,4,,,76,127
9062,note_on,1,0,0,,7,,,79,127
9062,note_on,0,0,0,,10,,,69,127
9196,note_off,134,0,0,,7,,,79,127
9197,note_on,1,0,0,,5,,,77,127
9331,note_off,134,0,0,,5,,,77,127
9331,note_off,0,0,0,,10,,,69,127
9332,note_on,1,0,0,,4,,,76,127
9332,note_on,0,0,0,,7,,,67,127
9466,note_off,134,0,0,,7,,,67,127
9466,note_off,0,0,0,,4,,,76,127
9467,note_on,1,0,0,,5,,,77,127
9467,note_on,0,0,0,,5,,,65,127
9601,note_off,134,0,0,,5,,,65,127
9601,note_off,0,0,0,,5,,,77,127
9601,note_off,0,0,0,,0,,,60,127
9602,note_on,1,0,0,,7,,,79,127
9602,note_on,0,0,0,,4,,,64,127
9872,note_off,270,0,0,,4,,,64,127
9872,note_off,0,0,0,,7,,,79,127
9873,note_on,1,0,0,,10,,,81,127
9873,note_on,0,0,0,,0,,,60,127
10007,note_off,134,0,0,,10,,,81,127
10008,note_on,1,0,0,,11,,,82,127
10142,note_off,134,0,0,,11,,,82,127
10142,note_off,0,0,0,,0,,,60,127
10143,note_on,1,0,0,,10,,,81,127
10143,note_on,0,0,0,,5,,,65,127
10413,note_off,270,0,0,,5,,,65,127
10413,note_off,0,0,0,,10,,,81,127
10414,note_on,1,0,0,,7,,,79,127
10414,note_on,0,0,0,,11,,,58,127
10548,note_off,134,0,0,,7,,,79,127
10549,note_on,1,0,0,,5,,,77,127
10683,note_off,134,0,0,,5,,,77,127
10683,note_off,0,0,0,,11,,,58,127
10684,note_on,1,0,0,,5,,,77,127
10684,note_on,0,0,0,,0,,,60,127
10954,note_off,270,0,0,,5,,,77,127
10955,note_on,1,0,0,,4,,,76,127
10955,note_on,0,0,0,,11,,,70,127
11225,note_off,270,0,0,,11,,,70,127
11225,note_off,0,0,0,,4,,,76,127
11226,note_on,1,0,0,,7,,,79,127
11226,note_on,0,0,0,,10,,,69,127
11360,note_off,134,0,0,,7,,,79,127
11361,note_on,1,0,0,,5,,,77,127
11495,note_off,134,0,0,,5,,,77,127
11495,note_off,0,0,0,,10,,,69,127
11496,note_on,1,0,0,,4,,,76,127
11496,note_on,0,0,0,,7,,,67,127
11630,note_off,134,0,0,,7,,,67,127
11630,note_off,0,0,0,,4,,,76,127
11631,note_on,1,0,0,,5,,,77,127
11631,note_on,0,0,0,,5,,,65,127
11765,note_off,134,0,0,,5,,,65,127
11765,note_off,0,0,0,,5,,,77,127
11765,note_off,0,0,0,,0,,,60,127
11766,note_on,1,0,0,,7,,,79,127
11766,note_on,0,0,0,,4,,,64,127
12036,note_off,270,0,0,,4,,,64,127
12036,note_off,0,0,0,,7,,,79,127
12037,note_on,1,0,0,,10,,,81,127
12037,note_on,0,0,0,,0,,,60,127
12171,note_off,134,0,0,,10,,,81,127
12172,note_on,1,0,0,,11,,,82,127
12306,note_off,134,0,0,,11,,,82,127
12306,note_off,0,0,0,,0,,,60,127
12307,note_on,1,0,0,,10,,,81,127
12307,note_on,0,0,0,,5,,,65,127
12577,note_off,270,0,0,,5,,,65,127
12577,note_off,0,0,0,,10,,,81,127
12578,note_on,1,0,0,,7,,,79,127
12578,note_on,0,0,0,,11,,,58,127
12712,note_off,134,0,0,,7,,,79,127
12713,note_on,1,0,0,,5,,,77,127
12847,note_off,134,0,0,,5,,,77,127
12847,note_off,0,0,0,,11,,,58,127
12848,note_on,1,0,0,,5,,,77,127
12848,note_on,0,0,0,,7,,,79,127
12848,note_on,0,0,0,,12,,,59,127
12848,note_on,0,0,0,,5,,,65,127
12848,note_on,0,0,0,,7,,,67,127
12982,note_off,134,0,0,,7,,,79,127
12982,note_off,0,0,0,,5,,,77,127
12983,note_on,1,0,0,,4,,,76,127
13117,note_off,134,0,0,,4,,,76,127
13117,note_off,0,0,0,,7,,,67,127
13117,note_off,0,0,0,,5,,,65,127
13117,note_off,0,0,0,,12,,,59,127
13118,note_on,1,0,0,,5,,,77,127
13118,note_on,0,0,0,,12,,,59,127
13118,note_on,0,0,0,,7,,,67,127
13118,note_on,0,0,0,,5,,,65,127
13388,note_off,270,0,0,,5,,,65,127
13388,note_off,0,0,0,,7,,,67,127
13388,note_off,0,0,0,,12,,,59,127
13389,note_on,1,0,0,,0,,,60,127
13389,note_on,0,0,0,,10,,,69,127
13389,note_on,0,0,0,,5,,,65,127
13523,note_off,134,0,0,,5,,,77,127
13524,note_on,1,0,0,,4,,,76,127
13658,note_off,134,0,0,,4,,,76,127
13658,note_off,0,0,0,,5,,,65,127
13658,note_off,0,0,0,,10,,,69,127
13658,note_off,0,0,0,,0,,,60,127
13659,note_on,1,0,0,,10,,,81,127
13659,note_on,0,0,0,,0,,,60,127
13659,note_on,0,0,0,,10,,,69,127
13659,note_on,0,0,0,,5,,,65,127
13793,note_off,134,0,0,,10,,,81,127
13794,note_on,1,0,0,,7,,,79,127
13928,note_off,134,0,0,,7,,,79,127
13928,note_off,0,0,0,,5,,,65,127
13928,note_off,0,0,0,,10,,,69,127
13928,note_off,0,0,0,,0,,,60,127
13929,note_on,1,0,0,,5,,,77,127
13929,note_on,0,0,0,,7,,,79,127
13929,note_on,0,0,0,,12,,,59,127
13929,note_on,0,0,0,,7,,,67,127
13929,note_on,0,0,0,,5,,,65,127
14063,note_off,134,0,0,,7,,,79,127
14063,note_off,0,0,0,,5,,,77,127
14064,note_on,1,0,0,,4,,,76,127
14198,note_off,134,0,0,,4,,,76,127
14198,note_off,0,0,0,,5,,,65,127
14198,note_off,0,0,0,,7,,,67,127
14198,note_off,0,0,0,,12,,,59,127
14199,note_on,1,0,0,,5,,,77,127
14199,note_on,0,0,0,,5,,,65,127
14199,note_on,0,0,0,,12,,,59,127
14199,note_on,0,0,0,,7,,,67,127
14469,note_off,270,0,0,,7,,,67,127
14469,note_off,0,0,0,,12,,,59,127
14469,note_off,0,0,0,,5,,,65,127
14470,note_on,1,0,0,,0,,,60,127
14470,note_on,0,0,0,,10,,,69,127
14470,note_on,0,0,0,,5,,,65,127
14604,note_off,134,0,0,,5,,,77,127
14605,note_on,1,0,0,,4,,,76,127
14739,note_off,134,0,0,,4,,,76,127
14739,note_off,0,0,0,,5,,,65,127
14739,note_off,0,0,0,,10,,,69,127
14739,note_off,0,0,0,,0,,,60,127
14740,note_on,1,0,0,,10,,,81,127
14740,note_on,0,0,0,,10,,,69,127
14740,note_on,0,0,0,,5,,,65,127
14740,note_on,0,0,0,,0,,,60,127
14874,note_off,134,0,0,,10,,,81,127
14875,note_on,1,0,0,,7,,,79,127
15009,note_off,134,0,0,,0,,,60,127
15009,note_off,0,0,0,,5,,,65,127
15009,note_off,0,0,0,,10,,,69,127
15010,note_on,1,0,0,,12,,,59,127
15010,note_on,0,0,0,,7,,,67,127
15010,note_on,0,0,0,,5,,,65,127
15072,note_off,62,0,0,,7,,,79,127
15078,note_on,6,0,0,,5,,,77,127
15144,note_off,66,0,0,,5,,,77,127
15145,note_on,1,0,0,,7,,,79,127
15211,note_off,66,0,0,,7,,,79,127
15212,note_on,1,0,0,,5,,,77,127
15278,note_off,66,0,0,,5,,,77,127
15278,note_off,0,0,0,,5,,,65,127
15278,note_off,0,0,0,,7,,,67,127
15278,note_off,0,0,0,,12,,,59,127
15279,note_on,1,0,0,,7,,,79,127
15279,note_on,0,0,0,,12,,,59,127
15279,note_on,0,0,0,,5,,,65,127
15279,note_on,0,0,0,,7,,,67,127
15345,note_off,66,0,0,,7,,,79,127
15346,note_on,1,0,0,,5,,,77,127
15412,note_off,66,0,0,,5,,,77,127
15413,note_on,1,0,0,,4,,,76,127
15479,note_off,66,0,0,,4,,,76,127
15480,note_on,1,0,0,,5,,,77,127
15546,note_off,66,0,0,,5,,,77,127
15546,note_off,0,0,0,,7,,,67,127
15546,note_off,0,0,0,,5,,,65,127
15546,note_off,0,0,0,,12,,,59,127
15547,note_on,1,0,0,,4,,,76,127
15547,note_on,0,0,0,,4,,,64,127
15547,note_on,0,0,0,,0,,,60,127
15547,note_on,0,0,0,,7,,,67,127
15681,note_off,134,0,0,,4,,,76,127
15682,note_on,1,0,0,,7,,,79,127
15816,note_off,134,0,0,,7,,,79,127
15817,note_on,1,0,0,,5,,,77,127
15951,note_off,134,0,0,,5,,,77,127
15952,note_on,1,0,0,,4,,,76,127
16086,note_off,134,0,0,,4,,,76,127
16086,note_off,0,0,0,,7,,,67,127
16086,note_off,0,0,0,,0,,,60,127
16086,note_off,0,0,0,,4,,,64,127
16087,note_on,1,0,0,,10,,,81,127
16087,note_on,0,0,0,,5,,,53,127
16221,note_off,134,0,0,,10,,,81,127
16222,note_on,1,0,0,,7,,,79,127
16356,note_off,134,0,0,,7,,,79,127
16357,note_on,1,0,0,,5,,,77,127
16491,note_off,134,0,0,,5,,,77,127
16492,note_on,1,0,0,,4,,,76,127
16626,note_off,134,0,0,,4,,,76,127
16626,note_off,0,0,0,,5,,,53,127
16627,note_on,1,0,0,,2,,,74,127
16627,note_on,0,0,0,,5,,,65,127
16761,note_off,134,0,0,,2,,,74,127
16762,note_on,1,0,0,,0,,,72,127
16896,note_off,134,0,0,,0,,,72,127
16897,note_on,1,0,0,,12,,,71,127
17031,note_off,134,0,0,,12,,,71,127
17032,note_on,1,0,0,,10,,,69,127
17166,note_off,134,0,0,,10,,,69,127
17166,note_off,0,0,0,,5,,,65,127
17167,note_on,1,0,0,,12,,,71,127
17167,note_on,0,0,0,,7,,,55,127
17301,note_off,134,0,0,,7,,,55,127
17302,note_on,1,0,0,,7,,,67,127
17436,note_off,134,0,0,,7,,,67,127
17436,note_off,0,0,0,,12,,,71,127
17437,note_on,1,0,0,,12,,,71,127
17437,note_on,0,0,0,,5,,,65,127
17571,note_off,134,0,0,,5,,,65,127
17572,note_on,1,0,0,,4,,,64,127
17706,note_off,134,0,0,,4,,,64,127
17707,note_on,1,0,0,,2,,,62,127
17841,note_off,134,0,0,,2,,,62,127
17842,note_on,1,0,0,,0,,,60,127
17976,note_off,134,0,0,,0,,,60,127
17976,note_off,0,0,0,,12,,,71,127
17977,note_on,1,0,0,,0,,,72,127
17977,note_on,0,0,0,,12,,,59,127
18111,note_off,134,0,0,,12,,,59,127
18112,note_on,1,0,0,,10,,,57,127
18246,note_off,134,0,0,,10,,,57,127
18246,note_off,0,0,0,,0,,,72,127
18247,note_on,1,0,0,,2,,,74,127
18247,note_on,0,0,0,,7,,,55,127
18381,note_off,134,0,0,,7,,,55,127
18382,note_on,1,0,0,,7,,,55,127
18516,note_off,134,0,0,,7,,,55,127
18516,note_off,0,0,0,,2,,,74,127
18517,note_on,1,0,0,,4,,,76,127
18517,note_on,0,0,0,,5,,,53,127
18651,note_off,134,0,0,,5,,,53,127
18652,note_on,1,0,0,,4,,,52,127
18786,note_off,134,0,0,,4,,,52,127
18787,note_on,1,0,0,,2,,,50,127
18921,note_off,134,0,0,,2,,,50,127
18922,note_on,1,0,0,,0,,,48,127
19056,note_off,134,0,0,,0,,,48,127
19056,note_off,0,0,0,,4,,,76,127
19057,note_on,1,0,0,,6,,,78,127
19057,note_on,0,0,0,,12,,,47,127
19191,note_off,134,0,0,,12,,,47,127
19192,note_on,1,0,0,,10,,,45,127
19326,note_off,134,0,0,,10,,,45,127
19326,note_off,0,0,0,,6,,,78,127
19327,note_on,1,0,0,,7,,,79,127
19327,note_on,0,0,0,,7,,,43,127
19461,note_off,134,0,0,,7,,,43,127
19462,note_on,1,0,0,,7,,,67,127
19596,note_off,134,0,0,,7,,,67,127
19596,note_off,0,0,0,,7,,,79,127
19597,note_on,1,0,0,,12,,,71,127
19597,note_on,0,0,0,,5,,,65,127
19731,note_off,134,0,0,,5,,,65,127
19732,note_on,1,0,0,,4,,,64,127
19866,note_off,134,0,0,,4,,,64,127
19867,note_on,1,0,0,,2,,,62,127
20001,note_off,134,0,0,,2,,,62,127
20002,note_on,1,0,0,,0,,,60,127
20136,note_off,134,0,0,,0,,,60,127
20136,note_off,0,0,0,,12,,,71,127
20137,note_on,1,0,0,,0,,,72,127
20137,note_on,0,0,0,,12,,,59,127
20271,note_off,134,0,0,,12,,,59,127
20272,note_on,1,0,0,,10,,,57,127
20406,note_off,134,0,0,,10,,,57,127
20406,note_off,0,0,0,,0,,,72,127
20407,note_on,1,0,0,,2,,,74,127
20407,note_on,0,0,0,,7,,,55,127
20541,note_off,134,0,0,,7,,,55,127
20542,note_on,1,0,0,,7,,,55,127
20676,note_off,134,0,0,,7,,,55,127
20676,note_off,0,0,0,,2,,,74,127
20677,note_on,1,0,0,,4,,,76,127
20677,note_on,0,0,0,,5,,,53,127
20811,note_off,134,0,0,,5,,,53,127
20812,note_on,1,0,0,,4,,,52,127
20946,note_off,134,0,0,,4,,,52,127
20947,note_on,1,0,0,,2,,,50,127
21081,note_off,134,0,0,,2,,,50,127
21082,note_on,1,0,0,,0,,,48,127
21216,note_off,134,0,0,,0,,,48,127
21216,note_off,0,0,0,,4,,,76,127
21217,note_on,1,0,0,,6,,,78,127
21217,note_on,0,0,0,,12,,,47,127
21351,note_off,134,0,0,,12,,,47,127
21352,note_on,1,0,0,,10,,,45,127
21486,note_off,134,0,0,,10,,,45,127
21486,note_off,0,0,0,,6,,,78,127
21487,note_on,1,0,0,,7,,,79,127
21487,note_on,0,0,0,,7,,,43,127
21621,note_off,134,0,0,,7,,,79,127
21622,note_on,1,0,0,,4,,,76,127
21756,note_off,134,0,0,,4,,,76,127
21757,note_on,1,0,0,,5,,,77,127
21891,note_off,134,0,0,,5,,,77,127
21892,note_on,1,0,0,,2,,,74,127
22026,note_off,134,0,0,,2,,,74,127
22027,note_on,1,0,0,,4,,,76,127
22161,note_off,134,0,0,,4,,,76,127
22162,note_off,1,0,0,,7,,,43,127
22162,note_on,0,0,0,,0,,,72,127
22296,note_off,134,0,0,,0,,,72,127
22297,note_on,1,0,0,,2,,,74,127
22297,note_on,0,0,0,,7,,,55,127
22431,note_off,134,0,0,,2,,,74,127
22432,note_on,1,0,0,,12,,,71,127
22566,note_off,134,0,0,,12,,,71,127
22566,note_off,0,0,0,,7,,,55,127
22567,note_on,1,0,0,,0,,,72,127
22567,note_on,0,0,0,,10,,,57,127
22701,note_off,134,0,0,,0,,,72,127
22702,note_on,1,0,0,,2,,,74,127
22836,note_off,134,0,0,,2,,,74,127
22836,note_off,0,0,0,,10,,,57,127
22837,note_on,1,0,0,,4,,,76,127
22837,note_on,0,0,0,,5,,,53,127
22971,note_off,134,0,0,,4,,,76,127
22972,note_on,1,0,0,,5,,,77,127
23106,note_off,134,0,0,,5,,,77,127
23106,note_off,0,0,0,,5,,,53,127
23107,note_on,1,0,0,,4,,,76,127
23107,note_on,0,0,0,,7,,,43,127
23241,note_off,134,0,0,,4,,,76,127
23242,note_on,1,0,0,,2,,,74,127
23376,note_off,134,0,0,,2,,,74,127
23376,note_off,0,0,0,,7,,,43,127
23377,note_on,1,0,0,,0,,,72,127
23377,note_on,0,0,0,,7,,,55,127
23511,note_off,134,0,0,,0,,,72,127
23512,note_on,1,0,0,,12,,,71,127
23646,note_off,134,0,0,,12,,,71,127
23646,note_off,0,0,0,,7,,,55,127
23647,note_on,1,0,0,,0,,,72,127
23647,note_on,0,0,0,,10,,,57,127
23781,note_off,134,0,0,,0,,,72,127
23782,note_on,1,0,0,,2,,,74,127
23916,note_off,134,0,0,,2,,,74,127
23916,note_off,0,0,0,,10,,,57,127
23917,note_on,1,0,0,,4,,,76,127
23917,note_on,0,0,0,,5,,,53,127
24051,note_off,134,0,0,,4,,,76,127
24052,note_on,1,0,0,,5,,,77,127
24186,note_off,134,0,0,,5,,,77,127
24186,note_off,0,0,0,,5,,,53,127
24187,note_on,1,0,0,,4,,,76,127
24187,note_on,0,0,0,,7,,,43,127
24321,note_off,134,0,0,,4,,,76,127
24322,note_on,1,0,0,,2,,,74,127
24456,note_off,134,0,0,,2,,,74,127
24456,note_off,0,0,0,,7,,,43,127
24457,note_on,1,0,0,,0,,,72,127
24457,note_on,0,0,0,,5,,,53,127
24591,note_off,134,0,0,,0,,,72,127
24592,note_on,1,0,0,,12,,,71,127
24726,note_off,134,0,0,,12,,,71,127
24726,note_off,0,0,0,,5,,,53,127
24727,note_on,1,0,0,,7,,,79,127
24727,note_on,0,0,0,,4,,,52,127
24861,note_off,134,0,0,,7,,,79,127
24862,note_on,1,0,0,,0,,,72,127
24996,note_off,134,0,0,,0,,,72,127
24996,note_off,0,0,0,,4,,,52,127
24997,note_on,1,0,0,,7,,,79,127
24997,note_on,0,0,0,,5,,,53,127
25131,note_off,134,0,0,,7,,,79,127
25132,note_on,1,0,0,,10,,,81,127
25266,note_off,134,0,0,,10,,,81,127
25266,note_off,0,0,0,,5,,,53,127
25267,note_on,1,0,0,,7,,,79,127
25267,note_on,0,0,0,,7,,,55,127
25401,note_off,134,0,0,,7,,,79,127
25402,note_on,1,0,0,,5,,,77,127
25536,note_off,134,0,0,,5,,,77,127
25537,note_on,1,0,0,,4,,,76,127
25537,note_on,0,0,0,,7,,,43,127
25671,note_off,134,0,0,,4,,,76,127
25672,note_on,1,0,0,,2,,,74,127
25806,note_off,134,0,0,,2,,,74,127
25806,note_off,0,0,0,,7,,,43,127
25806,note_off,0,0,0,,7,,,55,127
25807,note_on,1,0,0,,0,,,72,127
25807,note_on,0,0,0,,0,,,48,127
26077,note_off,270,0,0,,0,,,48,127
26078,note_on,1,0,0,,0,,,48,127
26287,note_off,209,0,0,,0,,,72,127
26348,note_off,61,0,0,,0,,,48,127
26349,note_on,1,0,0,,4,,,76,127
26349,note_on,0,0,0,,0,,,48,127
26619,note_off,270,0,0,,0,,,48,127
26620,note_on,1,0,0,,4,,,64,127
26620,note_on,0,0,0,,0,,,48,127
26620,note_on,0,0,0,,0,,,60,127
26890,note_off,270,0,0,,0,,,60,127
26890,note_off,0,0,0,,0,,,48,127
26890,note_off,0,0,0,,4,,,64,127
26891,note_on,1,0,0,,5,,,65,127
26891,note_on,0,0,0,,2,,,50,127
26891,note_on,0,0,0,,0,,,60,127
27025,note_off,134,0,0,,4,,,76,127
27026,note_on,1,0,0,,2,,,74,127
27160,note_off,134,0,0,,2,,,74,127
27160,note_off,0,0,0,,0,,,60,127
27160,note_off,0,0,0,,2,,,50,127
27161,note_on,1,0,0,,2,,,74,127
27161,note_on,0,0,0,,2,,,50,127
27161,note_on,0,0,0,,12,,,59,127
27295,note_off,134,0,0,,2,,,74,127
27296,note_on,1,0,0,,0,,,72,127
27430,note_off,134,0,0,,0,,,72,127
27430,note_off,0,0,0,,12,,,59,127
27430,note_off,0,0,0,,2,,,50,127
27431,note_on,1,0,0,,0,,,72,127
27431,note_on,0,0,0,,12,,,59,127
27431,note_on,0,0,0,,2,,,50,127
27565,note_off,134,0,0,,0,,,72,127
27566,note_on,1,0,0,,12,,,71,127
27700,note_off,134,0,0,,12,,,71,127
27700,note_off,0,0,0,,2,,,50,127
27700,note_off,0,0,0,,12,,,59,127
27701,note_on,1,0,0,,12,,,71,127
27701,note_on,0,0,0,,2,,,50,127
27701,note_on,0,0,0,,12,,,59,127
27835,note_off,134,0,0,,12,,,71,127
27836,note_on,1,0,0,,10,,,69,127
27970,note_off,134,0,0,,10,,,69,127
27970,note_off,0,0,0,,12,,,59,127
27970,note_off,0,0,0,,2,,,50,127
27970,note_off,0,0,0,,5,,,65,127
27971,note_on,1,0,0,,10,,,69,127
27971,note_on,0,0,0,,4,,,52,127
27971,note_on,0,0,0,,0,,,60,127
28241,note_off,270,0,0,,0,,,60,127
28241,note_off,0,0,0,,4,,,52,127
28241,note_off,0,0,0,,10,,,69,127
28242,note_on,1,0,0,,7,,,67,127
28242,note_on,0,0,0,,4,,,52,127
28242,note_on,0,0,0,,0,,,60,127
28512,note_off,270,0,0,,0,,,60,127
28512,note_off,0,0,0,,4,,,52,127
28513,note_on,1,0,0,,7,,,79,127
28513,note_on,0,0,0,,4,,,52,127
28513,note_on,0,0,0,,0,,,60,127
28778,note_off,265,0,0,,7,,,67,127
28782,note_off,4,0,0,,0,,,60,127
28782,note_off,0,0,0,,4,,,52,127
28783,note_on,1,0,0,,7,,,67,127
28783,note_on,0,0,0,,4,,,52,127
28783,note_on,0,0,0,,4,,,64,127
28783,note_on,0,0,0,,0,,,60,127
29053,note_off,270,0,0,,0,,,60,127
29053,note_off,0,0,0,,4,,,64,127
29053,note_off,0,0,0,,4,,,52,127
29053,note_off,0,0,0,,7,,,67,127
29054,note_on,1,0,0,,10,,,69,127
29054,note_on,0,0,0,,5,,,53,127
29054,note_on,0,0,0,,5,,,65,127
29188,note_off,134,0,0,,7,,,79,127
29189,note_on,1,0,0,,5,,,77,127
29323,note_off,134,0,0,,5,,,77,127
29323,note_off,0,0,0,,5,,,65,127
29323,note_off,0,0,0,,5,,,53,127
29324,note_on,1,0,0,,5,,,77,127
29324,note_on,0,0,0,,5,,,53,127
29324,note_on,0,0,0,,5,,,65,127
29458,note_off,134,0,0,,5,,,77,127
29459,note_on,1,0,0,,4,,,76,127
29593,note_off,134,0,0,,4,,,76,127
29593,note_off,0,0,0,,5,,,65,127
29593,note_off,0,0,0,,5,,,53,127
29594,note_on,1,0,0,,4,,,76,127
29594,note_on,0,0,0,,5,,,53,127
29594,note_on,0,0,0,,5,,,65,127
29728,note_off,134,0,0,,4,,,76,127
29729,note_on,1,0,0,,2,,,74,127
29863,note_off,134,0,0,,2,,,74,127
29863,note_off,0,0,0,,5,,,65,127
29863,note_off,0,0,0,,5,,,53,127
29864,note_on,1,0,0,,2,,,74,127
29864,note_on,0,0,0,,5,,,53,127
29864,note_on,0,0,0,,5,,,65,127
29998,note_off,134,0,0,,2,,,74,127
29999,note_on,1,0,0,,0,,,72,127
30133,note_off,134,0,0,,0,,,72,127
30133,note_off,0,0,0,,5,,,65,127
30133,note_off,0,0,0,,5,,,53,127
30133,note_off,0,0,0,,10,,,69,127
30134,note_on,1,0,0,,0,,,72,127
30134,note_on,0,0,0,,7,,,55,127
30134,note_on,0,0,0,,5,,,65,127
30404,note_off,270,0,0,,5,,,65,127
30404,note_off,0,0,0,,0,,,72,127
30405,note_on,1,0,0,,12,,,71,127
30405,note_on,0,0,0,,5,,,65,127
30675,note_off,270,0,0,,5,,,65,127
30675,note_off,0,0,0,,12,,,71,127
30675,note_off,0,0,0,,7,,,55,127
30676,note_on,1,0,0,,2,,,74,127
30676,note_on,0,0,0,,4,,,64,127
30676,note_on,0,0,0,,7,,,55,127
30810,note_off,134,0,0,,2,,,74,127
30811,note_on,1,0,0,,0,,,72,127
30945,note_off,134,0,0,,0,,,72,127
30945,note_off,0,0,0,,4,,,64,127
30946,note_on,1,0,0,,12,,,71,127
30946,note_on,0,0,0,,2,,,62,127
31080,note_off,134,0,0,,2,,,62,127
31080,note_off,0,0,0,,12,,,71,127
31081,note_on,1,0,0,,0,,,72,127
31081,note_on,0,0,0,,0,,,60,127
31215,note_off,134,0,0,,0,,,60,127
31215,note_off,0,0,0,,0,,,72,127
31215,note_off,0,0,0,,7,,,55,127
31216,note_on,1,0,0,,2,,,74,127
31216,note_on,0,0,0,,12,,,59,127
31486,note_off,270,0,0,,12,,,59,127
31486,note_off,0,0,0,,2,,,74,127
31487,note_on,1,0,0,,4,,,76,127
31487,note_on,0,0,0,,7,,,55,127
31621,note_off,134,0,0,,4,,,76,127
31622,note_on,1,0,0,,5,,,77,127
31756,note_off,134,0,0,,5,,,77,127
31756,note_off,0,0,0,,7,,,55,127
31757,note_on,1,0,0,,4,,,76,127
31757,note_on,0,0,0,,0,,,60,127
32027,note_off,270,0,0,,0,,,60,127
32027,note_off,0,0,0,,4,,,76,127
32028,note_on,1,0,0,,2,,,74,127
32028,note_on,0,0,0,,5,,,53,127
32162,note_off,134,0,0,,2,,,74,127
32163,note_on,1,0,0,,0,,,72,127
32297,note_off,134,0,0,,0,,,72,127
32297,note_off,0,0,0,,5,,,53,127
32298,note_on,1,0,0,,0,,,72,127
32298,note_on,0,0,0,,7,,,55,127
32568,note_off,270,0,0,,0,,,72,127
32569,note_on,1,0,0,,12,,,71,127
32569,note_on,0,0,0,,5,,,65,127
32839,note_off,270,0,0,,5,,,65,127
32839,note_off,0,0,0,,12,,,71,127
32839,note_off,0,0,0,,7,,,55,127
32840,note_on,1,0,0,,2,,,74,127
32840,note_on,0,0,0,,7,,,55,127
32840,note_on,0,0,0,,4,,,64,127
32974,note_off,134,0,0,,2,,,74,127
32975,note_on,1,0,0,,0,,,72,127
33109,note_off,134,0,0,,0,,,72,127
33109,note_off,0,0,0,,4,,,64,127
33110,note_on,1,0,0,,12,,,71,127
33110,note_on,0,0,0,,2,,,62,127
33244,note_off,134,0,0,,2,,,62,127
33244,note_off,0,0,0,,12,,,71,127
33245,note_on,1,0,0,,0,,,72,127
33245,note_on,0,0,0,,0,,,60,127
33379,note_off,134,0,0,,0,,,60,127
33379,note_off,0,0,0,,0,,,72,127
33379,note_off,0,0,0,,7,,,55,127
33380,note_on,1,0,0,,2,,,74,127
33380,note_on,0,0,0,,12,,,59,127
33650,note_off,270,0,0,,12,,,59,127
33650,note_off,0,0,0,,2,,,74,127
33651,note_on,1,0,0,,4,,,76,127
33651,note_on,0,0,0,,7,,,55,127
33785,note_off,134,0,0,,4,,,76,127
33786,note_on,1,0,0,,5,,,77,127
33920,note_off,134,0,0,,5,,,77,127
33920,note_off,0,0,0,,7,,,55,127
33921,note_on,1,0,0,,4,,,76,127
33921,note_on,0,0,0,,0,,,60,127
34191,note_off,270,0,0,,0,,,60,127
34191,note_off,0,0,0,,4,,,76,127
34192,note_on,1,0,0,,2,,,74,127
34192,note_on,0,0,0,,5,,,53,127
34326,note_off,134,0,0,,2,,,74,127
34327,note_on,1,0,0,,0,,,72,127
34461,note_off,134,0,0,,0,,,72,127
34461,note_off,0,0,0,,5,,,53,127
34462,note_on,1,0,0,,12,,,71,127
34462,note_on,0,0,0,,7,,,55,127
34596,note_off,134,0,0,,12,,,71,127
34597,note_on,1,0,0,,0,,,72,127
34731,note_off,134,0,0,,0,,,72,127
34732,note_on,1,0,0,,2,,,74,127
34732,note_on,0,0,0,,7,,,43,127
34866,note_off,134,0,0,,2,,,74,127
34867,note_on,1,0,0,,0,,,72,127
35001,note_off,134,0,0,,0,,,72,127
35001,note_off,0,0,0,,7,,,55,127
35002,note_on,1,0,0,,12,,,71,127
35136,note_off,134,0,0,,12,,,71,127
35137,note_on,1,0,0,,10,,,69,127
35271,note_off,134,0,0,,10,,,69,127
35271,note_off,0,0,0,,7,,,43,127
35272,note_on,1,0,0,,2,,,74,127
35272,note_on,0,0,0,,7,,,67,127
35272,note_on,0,0,0,,12,,,59,127
35406,note_off,134,0,0,,7,,,67,127
35407,note_on,1,0,0,,5,,,65,127
35541,note_off,134,0,0,,5,,,65,127
35541,note_off,0,0,0,,12,,,59,127
35541,note_off,0,0,0,,2,,,74,127
35542,note_on,1,0,0,,0,,,72,127
35542,note_on,0,0,0,,4,,,64,127
35542,note_on,0,0,0,,0,,,60,127
35676,note_off,134,0,0,,4,,,64,127
35677,note_on,1,0,0,,5,,,65,127
35811,note_off,134,0,0,,5,,,65,127
35811,note_off,0,0,0,,0,,,60,127
35812,note_on,1,0,0,,7,,,67,127
35812,note_on,0,0,0,,5,,,53,127
35946,note_off,134,0,0,,7,,,67,127
35947,note_on,1,0,0,,10,,,69,127
36081,note_off,134,0,0,,10,,,69,127
36081,note_off,0,0,0,,5,,,53,127
36082,note_on,1,0,0,,7,,,67,127
36082,note_on,0,0,0,,7,,,55,127
36216,note_off,134,0,0,,7,,,67,127
36217,note_on,1,0,0,,5,,,65,127
36351,note_off,134,0,0,,5,,,65,127
36351,note_off,0,0,0,,7,,,55,127
36351,note_off,0,0,0,,0,,,72,127
36352,note_on,1,0,0,,4,,,64,127
36352,note_on,0,0,0,,12,,,71,127
36352,note_on,0,0,0,,5,,,53,127
36486,note_off,134,0,0,,4,,,64,127
36487,note_on,1,0,0,,2,,,62,127
36621,note_off,134,0,0,,2,,,62,127
36621,note_off,0,0,0,,5,,,53,127
36621,note_off,0,0,0,,12,,,71,127
36622,note_on,1,0,0,,0,,,72,127
36622,note_on,0,0,0,,4,,,64,127
36622,note_on,0,0,0,,4,,,52,127
36756,note_off,134,0,0,,4,,,64,127
36757,note_on,1,0,0,,5,,,65,127
36891,note_off,134,0,0,,5,,,65,127
36891,note_off,0,0,0,,4,,,52,127
36892,note_on,1,0,0,,7,,,67,127
36892,note_on,0,0,0,,5,,,53,127
37026,note_off,134,0,0,,7,,,67,127
37027,note_on,1,0,0,,10,,,69,127
37161,note_off,134,0,0,,10,,,69,127
37161,note_off,0,0,0,,5,,,53,127
37162,note_on,1,0,0,,7,,,67,127
37162,note_on,0,0,0,,7,,,55,127
37296,note_off,134,0,0,,7,,,67,127
37297,note_on,1,0,0,,5,,,65,127
37431,note_off,134,0,0,,5,,,65,127
37431,note_off,0,0,0,,7,,,55,127
37431,note_off,0,0,0,,0,,,72,127
37432,note_on,1,0,0,,12,,,71,127
37432,note_on,0,0,0,,4,,,64,127
37432,note_on,0,0,0,,5,,,53,127
37566,note_off,134,0,0,,4,,,64,127
37567,note_on,1,0,0,,2,,,62,127
37701,note_off,134,0,0,,2,,,62,127
37701,note_off,0,0,0,,5,,,53,127
37701,note_off,0,0,0,,12,,,71,127
37702,note_on,1,0,0,,0,,,72,127
37702,note_on,0,0,0,,4,,,64,127
37702,note_on,0,0,0,,4,,,52,127
37836,note_off,134,0,0,,0,,,72,127
37837,note_on,1,0,0,,2,,,74,127
37971,note_off,134,0,0,,2,,,74,127
37971,note_off,0,0,0,,4,,,52,127
37971,note_off,0,0,0,,4,,,64,127
37972,note_on,1,0,0,,4,,,76,127
37972,note_on,0,0,0,,5,,,53,127
38106,note_off,134,0,0,,4,,,76,127
38107,note_on,1,0,0,,5,,,77,127
38241,note_off,134,0,0,,5,,,77,127
38241,note_off,0,0,0,,5,,,53,127
38242,note_on,1,0,0,,4,,,76,127
38242,note_on,0,0,0,,7,,,55,127
38376,note_off,134,0,0,,4,,,76,127
38377,note_on,1,0,0,,2,,,74,127
38511,note_off,134,0,0,,2,,,74,127
38511,note_off,0,0,0,,7,,,55,127
38512,note_on,1,0,0,,0,,,72,127
38512,note_on,0,0,0,,5,,,53,127
38646,note_off,134,0,0,,0,,,72,127
38647,note_on,1,0,0,,12,,,71,127
38781,note_off,134,0,0,,12,,,71,127
38781,note_off,0,0,0,,5,,,53,127
38782,note_on,1,0,0,,7,,,79,127
38782,note_on,0,0,0,,4,,,52,127
38916,note_off,134,0,0,,7,,,79,127
38917,note_on,1,0,0,,0,,,72,127
39051,note_off,134,0,0,,0,,,72,127
39051,note_off,0,0,0,,4,,,52,127
39052,note_on,1,0,0,,7,,,79,127
39052,note_on,0,0,0,,5,,,53,127
39186,note_off,134,0,0,,7,,,79,127
39187,note_on,1,0,0,,10,,,81,127
39321,note_off,134,0,0,,10,,,81,127
39321,note_off,0,0,0,,5,,,53,127
39322,note_on,1,0,0,,7,,,79,127
39322,note_on,0,0,0,,7,,,55,127
39456,note_off,134,0,0,,7,,,79,127
39457,note_on,1,0,0,,5,,,77,127
39591,note_off,134,0,0,,5,,,77,127
39591,note_off,0,0,0,,7,,,55,127
39592,note_on,1,0,0,,4,,,76,127
39592,note_on,0,0,0,,5,,,53,127
39726,note_off,134,0,0,,4,,,76,127
39727,note_on,1,0,0,,2,,,74,127
39861,note_off,134,0,0,,2,,,74,127
39861,note_off,0,0,0,,5,,,53,127
39862,note_on,1,0,0,,7,,,79,127
39862,note_on,0,0,0,,4,,,52,127
39996,note_off,134,0,0,,7,,,79,127
39997,note_on,1,0,0,,0,,,72,127
40131,note_off,134,0,0,,0,,,72,127
40131,note_off,0,0,0,,4,,,52,127
40132,note_on,1,0,0,,7,,,79,127
40132,note_on,0,0,0,,5,,,53,127
40266,note_off,134,0,0,,7,,,79,127
40267,note_on,1,0,0,,10,,,81,127
40401,note_off,134,0,0,,10,,,81,127
40401,note_off,0,0,0,,5,,,53,127
40402,note_on,1,0,0,,7,,,79,127
40402,note_on,0,0,0,,7,,,55,127
40536,note_off,134,0,0,,7,,,79,127
40537,note_on,1,0,0,,5,,,77,127
40671,note_off,134,0,0,,5,,,77,127
40672,note_on,1,0,0,,4,,,76,127
40672,note_on,0,0,0,,7,,,43,127
40806,note_off,134,0,0,,4,,,76,127
40807,note_on,1,0,0,,2,,,74,127
40941,note_off,134,0,0,,2,,,74,127
40941,note_off,0,0,0,,7,,,43,127
40941,note_off,0,0,0,,7,,,55,127
40942,note_on,1,0,0,,0,,,72,127
40942,note_on,0,0,0,,0,,,48,127
41754,note_off,812,0,0,,0,,,72,127
42025,note_off,271,0,0,,0,,,48,127
42026,note_on,1,0,0,,0,,,48,127
42296,note_off,270,0,0,,0,,,48,127
42297,note_on,1,0,0,,4,,,76,127
42297,note_on,0,0,0,,0,,,60,127
42297,note_on,0,0,0,,4,,,64,127
42567,note_off,270,0,0,,4,,,64,127
42567,note_off,0,0,0,,0,,,60,127
42567,note_off,0,0,0,,4,,,76,127
42568,note_on,1,0,0,,4,,,76,127
42568,note_on,0,0,0,,0,,,60,127
42568,note_on,0,0,0,,4,,,64,127
42838,note_off,270,0,0,,4,,,64,127
42838,note_off,0,0,0,,0,,,60,127
42839,note_on,1,0,0,,0,,,60,127
42839,note_on,0,0,0,,4,,,64,127
42905,note_off,66,0,0,,4,,,76,127
42906,note_on,1,0,0,,6,,,78,127
42972,note_off,66,0,0,,6,,,78,127
42973,note_on,1,0,0,,8,,,80,127
43039,note_off,66,0,0,,8,,,80,127
43040,note_on,1,0,0,,10,,,81,127
43106,note_off,66,0,0,,10,,,81,127
43106,note_off,0,0,0,,4,,,64,127
43106,note_off,0,0,0,,0,,,60,127
43107,note_on,1,0,0,,10,,,81,127
43107,note_on,0,0,0,,12,,,59,127
43107,note_on,0,0,0,,2,,,62,127
43377,note_off,270,0,0,,2,,,62,127
43377,note_off,0,0,0,,12,,,59,127
43377,note_off,0,0,0,,10,,,81,127
43378,note_on,1,0,0,,8,,,80,127
43378,note_on,0,0,0,,2,,,62,127
43378,note_on,0,0,0,,12,,,59,127
43648,note_off,270,0,0,,12,,,59,127
43648,note_off,0,0,0,,2,,,62,127
43649,note_on,1,0,0,,2,,,62,127
43649,note_on,0,0,0,,12,,,59,127
43919,note_off,270,0,0,,12,,,59,127
43919,note_off,0,0,0,,2,,,62,127
43920,note_on,1,0,0,,4,,,64,127
43920,note_on,0,0,0,,12,,,59,127
44190,note_off,270,0,0,,12,,,59,127
44190,note_off,0,0,0,,4,,,64,127
44191,note_on,1,0,0,,10,,,57,127
44191,note_on,0,0,0,,5,,,65,127
44191,note_on,0,0,0,,2,,,62,127
44461,note_off,270,0,0,,2,,,62,127
44461,note_off,0,0,0,,5,,,65,127
44461,note_off,0,0,0,,10,,,57,127
44461,note_off,0,0,0,,8,,,80,127
44462,note_on,1,0,0,,10,,,81,127
44462,note_on,0,0,0,,10,,,57,127
44462,note_on,0,0,0,,2,,,62,127
44462,note_on,0,0,0,,5,,,65,127
44596,note_off,134,0,0,,10,,,81,127
44597,note_on,1,0,0,,5,,,77,127
44731,note_off,134,0,0,,5,,,77,127
44731,note_off,0,0,0,,5,,,65,127
44731,note_off,0,0,0,,2,,,62,127
44731,note_off,0,0,0,,10,,,57,127
44732,note_on,1,0,0,,2,,,74,127
44732,note_on,0,0,0,,10,,,57,127
44732,note_on,0,0,0,,5,,,65,127
44732,note_on,0,0,0,,2,,,62,127
45002,note_off,270,0,0,,2,,,62,127
45002,note_off,0,0,0,,5,,,65,127
45002,note_off,0,0,0,,10,,,57,127
45003,note_on,1,0,0,,10,,,57,127
45003,note_on,0,0,0,,2,,,62,127
45003,note_on,0,0,0,,5,,,65,127
45273,note_off,270,0,0,,5,,,65,127
45273,note_off,0,0,0,,2,,,62,127
45273,note_off,0,0,0,,10,,,57,127
45274,note_on,1,0,0,,8,,,56,127
45274,note_on,0,0,0,,2,,,62,127
45274,note_on,0,0,0,,4,,,64,127
45544,note_off,270,0,0,,4,,,64,127
45544,note_off,0,0,0,,2,,,62,127
45544,note_off,0,0,0,,8,,,56,127
45544,note_off,0,0,0,,2,,,74,127
45545,note_on,1,0,0,,4,,,76,127
45545,note_on,0,0,0,,8,,,56,127
45545,note_on,0,0,0,,2,,,62,127
45545,note_on,0,0,0,,4,,,64,127
45679,note_off,134,0,0,,4,,,76,127
45680,note_on,1,0,0,,5,,,77,127
45814,note_off,134,0,0,,5,,,77,127
45814,note_off,0,0,0,,4,,,64,127
45814,note_off,0,0,0,,2,,,62,127
45814,note_off,0,0,0,,8,,,56,127
45815,note_on,1,0,0,,2,,,74,127
45815,note_on,0,0,0,,10,,,57,127
45815,note_on,0,0,0,,2,,,62,127
45815,note_on,0,0,0,,5,,,65,127
46085,note_off,270,0,0,,5,,,65,127
46085,note_off,0,0,0,,2,,,62,127
46085,note_off,0,0,0,,10,,,57,127
46086,note_on,1,0,0,,10,,,57,127
46086,note_on,0,0,0,,5,,,65,127
46086,note_on,0,0,0,,2,,,62,127
46356,note_off,270,0,0,,2,,,62,127
46356,note_off,0,0,0,,5,,,65,127
46356,note_off,0,0,0,,10,,,57,127
46357,note_on,1,0,0,,8,,,56,127
46357,note_on,0,0,0,,2,,,62,127
46357,note_on,0,0,0,,4,,,64,127
46627,note_off,270,0,0,,4,,,64,127
46627,note_off,0,0,0,,2,,,62,127
46627,note_off,0,0,0,,8,,,56,127
46627,note_off,0,0,0,,2,,,74,127
46628,note_on,1,0,0,,4,,,76,127
46628,note_on,0,0,0,,8,,,56,127
46628,note_on,0,0,0,,4,,,64,127
46628,note_on,0,0,0,,2,,,62,127
46762,note_off,134,0,0,,4,,,76,127
46763,note_on,1,0,0,,5,,,77,127
46897,note_off,134,0,0,,5,,,77,127
46897,note_off,0,0,0,,2,,,62,127
46897,note_off,0,0,0,,4,,,64,127
46897,note_off,0,0,0,,8,,,56,127
46898,note_on,1,0,0,,4,,,76,127
46898,note_on,0,0,0,,1,,,73,127
46898,note_on,0,0,0,,7,,,55,127
46898,note_on,0,0,0,,1,,,61,127
46898,note_on,0,0,0,,4,,,64,127
47168,note_off,270,0,0,,4,,,64,127
47168,note_off,0,0,0,,1,,,61,127
47168,note_off,0,0,0,,7,,,55,127
47169,note_on,1,0,0,,1,,,61,127
47169,note_on,0,0,0,,7,,,55,127
47169,note_on,0,0,0,,4,,,64,127
47439,note_off,270,0,0,,4,,,64,127
47439,note_off,0,0,0,,7,,,55,127
47439,note_off,0,0,0,,1,,,61,127
47440,note_on,1,0,0,,1,,,61,127
47440,note_on,0,0,0,,7,,,55,127
47440,note_on,0,0,0,,4,,,64,127
47710,note_off,270,0,0,,1,,,73,127
47710,note_off,0,0,0,,4,,,76,127
47711,note_on,1,0,0,,5,,,77,127
47711,note_on,0,0,0,,2,,,74,127
47981,note_off,270,0,0,,2,,,74,127
47981,note_off,0,0,0,,5,,,77,127
47981,note_off,0,0,0,,4,,,64,127
47981,note_off,0,0,0,,7,,,55,127
47981,note_off,0,0,0,,1,,,61,127
47982,note_on,1,0,0,,1,,,73,127
47982,note_on,0,0,0,,4,,,76,127
47982,note_on,0,0,0,,7,,,55,127
47982,note_on,0,0,0,,1,,,61,127
47982,note_on,0,0,0,,4,,,64,127
48252,note_off,270,0,0,,4,,,76,127
48252,note_off,0,0,0,,1,,,73,127
48253,note_on,1,0,0,,2,,,74,127
48253,note_on,0,0,0,,5,,,77,127
48523,note_off,270,0,0,,5,,,77,127
48523,note_off,0,0,0,,2,,,74,127
48523,note_off,0,0,0,,4,,,64,127
48523,note_off,0,0,0,,1,,,61,127
48523,note_off,0,0,0,,7,,,55,127
48524,note_on,1,0,0,,4,,,76,127
48524,note_on,0,0,0,,1,,,73,127
48524,note_on,0,0,0,,7,,,55,127
48524,note_on,0,0,0,,1,,,61,127
48524,note_on,0,0,0,,4,,,64,127
48794,note_off,270,0,0,,1,,,73,127
48794,note_off,0,0,0,,4,,,76,127
48795,note_on,1,0,0,,5,,,77,127
48795,note_on,0,0,0,,2,,,74,127
49065,note_off,270,0,0,,2,,,74,127
49065,note_off,0,0,0,,5,,,77,127
49066,note_on,1,0,0,,7,,,79,127
49066,note_on,0,0,0,,1,,,73,127
49336,note_off,270,0,0,,1,,,73,127
49336,note_off,0,0,0,,4,,,64,127
49336,note_off,0,0,0,,1,,,61,127
49336,note_off,0,0,0,,7,,,55,127
49337,note_on,1,0,0,,2,,,74,127
49337,note_on,0,0,0,,5,,,53,127
49337,note_on,0,0,0,,2,,,62,127
49607,note_off,270,0,0,,2,,,62,127
49607,note_off,0,0,0,,5,,,53,127
49607,note_off,0,0,0,,2,,,74,127
49608,note_on,1,0,0,,4,,,76,127
49608,note_on,0,0,0,,4,,,52,127
49608,note_on,0,0,0,,1,,,61,127
49878,note_off,270,0,0,,7,,,79,127
49879,note_on,1,0,0,,10,,,81,127
50149,note_off,270,0,0,,10,,,81,127
50149,note_off,0,0,0,,4,,,76,127
50150,note_on,1,0,0,,1,,,73,127
50150,note_on,0,0,0,,11,,,82,127
50420,note_off,270,0,0,,1,,,73,127
50420,note_off,0,0,0,,1,,,61,127
50420,note_off,0,0,0,,4,,,52,127
50421,note_on,1,0,0,,2,,,74,127
50421,note_on,0,0,0,,2,,,50,127
50421,note_on,0,0,0,,11,,,58,127
50691,note_off,270,0,0,,11,,,58,127
50691,note_off,0,0,0,,2,,,50,127
50691,note_off,0,0,0,,2,,,74,127
50692,note_on,1,0,0,,4,,,76,127
50692,note_on,0,0,0,,10,,,57,127
50692,note_on,0,0,0,,1,,,49,127
50962,note_off,270,0,0,,1,,,49,127
50962,note_off,0,0,0,,10,,,57,127
50962,note_off,0,0,0,,4,,,76,127
50962,note_off,0,0,0,,11,,,82,127
50963,note_on,1,0,0,,10,,,81,127
50963,note_on,0,0,0,,10,,,57,127
50963,note_on,0,0,0,,1,,,49,127
51097,note_off,134,0,0,,10,,,81,127
51098,note_on,1,0,0,,7,,,79,127
51232,note_off,134,0,0,,7,,,79,127
51232,note_off,0,0,0,,1,,,49,127
51232,note_off,0,0,0,,10,,,57,127
51233,note_on,1,0,0,,5,,,77,127
51233,note_on,0,0,0,,1,,,49,127
51233,note_on,0,0,0,,10,,,57,127
51503,note_off,270,0,0,,10,,,57,127
51503,note_off,0,0,0,,1,,,49,127
51503,note_off,0,0,0,,5,,,77,127
51504,note_on,1,0,0,,4,,,76,127
51504,note_on,0,0,0,,10,,,57,127
51504,note_on,0,0,0,,1,,,49,127
51504,note_on,0,0,0,,1,,,61,127
51774,note_off,270,0,0,,1,,,61,127
51774,note_off,0,0,0,,1,,,49,127
51774,note_off,0,0,0,,10,,,57,127
51774,note_off,0,0,0,,4,,,76,127
51775,note_on,1,0,0,,5,,,77,127
51775,note_on,0,0,0,,2,,,50,127
51775,note_on,0,0,0,,2,,,62,127
52045,note_off,270,0,0,,5,,,77,127
52046,note_on,1,0,0,,7,,,79,127
52316,note_off,270,0,0,,7,,,79,127
52316,note_off,0,0,0,,2,,,62,127
52316,note_off,0,0,0,,2,,,50,127
52317,note_on,1,0,0,,10,,,81,127
52317,note_on,0,0,0,,5,,,77,127
52317,note_on,0,0,0,,2,,,50,127
52317,note_on,0,0,0,,2,,,62,127
52587,note_off,270,0,0,,5,,,77,127
52587,note_off,0,0,0,,10,,,81,127
52588,note_on,1,0,0,,4,,,76,127
52588,note_on,0,0,0,,7,,,79,127
52858,note_off,270,0,0,,7,,,79,127
52858,note_off,0,0,0,,4,,,76,127
52858,note_off,0,0,0,,2,,,62,127
52858,note_off,0,0,0,,2,,,50,127
52859,note_on,1,0,0,,2,,,74,127
52859,note_on,0,0,0,,5,,,77,127
52859,note_on,0,0,0,,2,,,50,127
52859,note_on,0,0,0,,2,,,62,127
53129,note_off,270,0,0,,5,,,77,127
53129,note_off,0,0,0,,2,,,74,127
53130,note_on,1,0,0,,0,,,72,127
53130,note_on,0,0,0,,4,,,76,127
53400,note_off,270,0,0,,4,,,76,127
53400,note_off,0,0,0,,0,,,72,127
53400,note_off,0,0,0,,2,,,62,127
53400,note_off,0,0,0,,2,,,50,127
53401,note_on,1,0,0,,12,,,71,127
53401,note_on,0,0,0,,2,,,74,127
53401,note_on,0,0,0,,2,,,50,127
53401,note_on,0,0,0,,2,,,62,127
53671,note_off,270,0,0,,12,,,71,127
53672,note_on,1,0,0,,10,,,69,127
53942,note_off,270,0,0,,10,,,69,127
53942,note_off,0,0,0,,2,,,62,127
53942,note_off,0,0,0,,2,,,50,127
53943,note_on,1,0,0,,8,,,68,127
53943,note_on,0,0,0,,2,,,50,127
53943,note_on,0,0,0,,2,,,62,127
54213,note_off,270,0,0,,2,,,62,127
54213,note_off,0,0,0,,2,,,50,127
54213,note_off,0,0,0,,8,,,68,127
54214,note_on,1,0,0,,10,,,69,127
54214,note_on,0,0,0,,2,,,50,127
54214,note_on,0,0,0,,0,,,60,127
54484,note_off,270,0,0,,0,,,60,127
54484,note_off,0,0,0,,2,,,50,127
54484,note_off,0,0,0,,10,,,69,127
54485,note_on,1,0,0,,8,,,68,127
54485,note_on,0,0,0,,2,,,50,127
54485,note_on,0,0,0,,12,,,59,127
54755,note_off,270,0,0,,12,,,59,127
54755,note_off,0,0,0,,2,,,50,127
54755,note_off,0,0,0,,8,,,68,127
54756,note_on,1,0,0,,10,,,69,127
54756,note_on,0,0,0,,10,,,57,127
54756,note_on,0,0,0,,2,,,50,127
55026,note_off,270,0,0,,2,,,50,127
55026,note_off,0,0,0,,10,,,57,127
55026,note_off,0,0,0,,10,,,69,127
55027,note_on,1,0,0,,12,,,71,127
55027,note_on,0,0,0,,2,,,50,127
55027,note_on,0,0,0,,8,,,56,127
55027,note_on,0,0,0,,12,,,59,127
55297,note_off,270,0,0,,12,,,71,127
55297,note_off,0,0,0,,2,,,74,127
55298,note_on,1,0,0,,0,,,72,127
55298,note_on,0,0,0,,10,,,69,127
55568,note_off,270,0,0,,10,,,69,127
55568,note_off,0,0,0,,0,,,72,127
55568,note_off,0,0,0,,12,,,59,127
55568,note_off,0,0,0,,8,,,56,127
55568,note_off,0,0,0,,2,,,50,127
55569,note_on,1,0,0,,8,,,68,127
55569,note_on,0,0,0,,12,,,71,127
55569,note_on,0,0,0,,8,,,56,127
55569,note_on,0,0,0,,2,,,50,127
55569,note_on,0,0,0,,12,,,59,127
55839,note_off,270,0,0,,12,,,71,127
55839,note_off,0,0,0,,8,,,68,127
55840,note_on,1,0,0,,5,,,65,127
55840,note_on,0,0,0,,10,,,69,127
56110,note_off,270,0,0,,10,,,69,127
56110,note_off,0,0,0,,5,,,65,127
56110,note_off,0,0,0,,12,,,59,127
56110,note_off,0,0,0,,2,,,50,127
56110,note_off,0,0,0,,8,,,56,127
56111,note_on,1,0,0,,2,,,62,127
56111,note_on,0,0,0,,8,,,68,127
56111,note_on,0,0,0,,8,,,56,127
56111,note_on,0,0,0,,2,,,50,127
56111,note_on,0,0,0,,12,,,59,127
56381,note_off,270,0,0,,8,,,68,127
56382,note_on,1,0,0,,10,,,69,127
56652,note_off,270,0,0,,10,,,69,127
56652,note_off,0,0,0,,12,,,59,127
56652,note_off,0,0,0,,2,,,50,127
56652,note_off,0,0,0,,8,,,56,127
56653,note_on,1,0,0,,12,,,71,127
56653,note_on,0,0,0,,12,,,59,127
56653,note_on,0,0,0,,8,,,56,127
56653,note_on,0,0,0,,2,,,50,127
56923,note_off,270,0,0,,2,,,62,127
56924,note_on,1,0,0,,4,,,64,127
57194,note_off,270,0,0,,4,,,64,127
57194,note_off,0,0,0,,2,,,50,127
57194,note_off,0,0,0,,8,,,56,127
57194,note_off,0,0,0,,12,,,59,127
57195,note_on,1,0,0,,5,,,65,127
57195,note_on,0,0,0,,2,,,50,127
57195,note_on,0,0,0,,12,,,59,127
57465,note_off,270,0,0,,5,,,65,127
57466,note_on,1,0,0,,7,,,67,127
57736,note_off,270,0,0,,7,,,67,127
57736,note_off,0,0,0,,12,,,59,127
57736,note_off,0,0,0,,2,,,50,127
57736,note_off,0,0,0,,12,,,71,127
57737,note_on,1,0,0,,5,,,65,127
57737,note_on,0,0,0,,2,,,50,127
57737,note_on,0,0,0,,12,,,59,127
58008,note_on,271,0,0,,10,,,69,127
58142,note_off,134,0,0,,10,,,69,127
58143,note_on,1,0,0,,12,,,71,127
58277,note_off,134,0,0,,12,,,71,127
58277,note_off,0,0,0,,12,,,59,127
58277,note_off,0,0,0,,2,,,50,127
58278,note_on,1,0,0,,0,,,72,127
58278,note_on,0,0,0,,0,,,60,127
58278,note_on,0,0,0,,0,,,48,127
58548,note_off,270,0,0,,5,,,65,127
58549,note_on,1,0,0,,4,,,64,127
58683,note_off,134,0,0,,4,,,64,127
58684,note_on,1,0,0,,2,,,62,127
58818,note_off,134,0,0,,2,,,62,127
58818,note_off,0,0,0,,0,,,48,127
58818,note_off,0,0,0,,0,,,60,127
58819,note_on,1,0,0,,4,,,64,127
58819,note_on,0,0,0,,0,,,48,127
58819,note_on,0,0,0,,0,,,60,127
59089,note_off,270,0,0,,4,,,64,127
59090,note_on,1,0,0,,5,,,65,127
59360,note_off,270,0,0,,5,,,65,127
59360,note_off,0,0,0,,0,,,60,127
59360,note_off,0,0,0,,0,,,48,127
59360,note_off,0,0,0,,0,,,72,127
59361,note_on,1,0,0,,7,,,67,127
59361,note_on,0,0,0,,0,,,60,127
59361,note_on,0,0,0,,0,,,48,127
59495,note_off,134,0,0,,7,,,67,127
59496,note_on,1,0,0,,10,,,69,127
59630,note_off,134,0,0,,10,,,69,127
59631,note_on,1,0,0,,11,,,70,127
59765,note_off,134,0,0,,11,,,70,127
59766,note_on,1,0,0,,0,,,72,127
59900,note_off,134,0,0,,0,,,72,127
59900,note_off,0,0,0,,0,,,48,127
59900,note_off,0,0,0,,0,,,60,127
59901,note_on,1,0,0,,2,,,74,127
59901,note_on,0,0,0,,0,,,48,127
59901,note_on,0,0,0,,0,,,60,127
60035,note_off,134,0,0,,2,,,74,127
60036,note_on,1,0,0,,11,,,70,127
60170,note_off,134,0,0,,11,,,70,127
60171,note_on,1,0,0,,10,,,69,127
60305,note_off,134,0,0,,10,,,69,127
60306,note_on,1,0,0,,7,,,67,127
60440,note_off,134,0,0,,7,,,67,127
60440,note_off,0,0,0,,0,,,60,127
60440,note_off,0,0,0,,0,,,48,127
60441,note_on,1,0,0,,10,,,69,127
60441,note_on,0,0,0,,5,,,53,127
60711,note_off,270,0,0,,5,,,53,127
60711,note_off,0,0,0,,10,,,69,127
60712,note_on,1,0,0,,5,,,77,127
60712,note_on,0,0,0,,5,,,65,127
60982,note_off,270,0,0,,5,,,65,127
60982,note_off,0,0,0,,5,,,77,127
60983,note_on,1,0,0,,7,,,79,127
60983,note_on,0,0,0,,4,,,64,127
61049,note_off,66,0,0,,7,,,79,127
61050,note_on,1,0,0,,5,,,77,127
61116,note_off,66,0,0,,5,,,77,127
61117,note_on,1,0,0,,4,,,76,127
61183,note_off,66,0,0,,4,,,76,127
61184,note_on,1,0,0,,2,,,74,127
61250,note_off,66,0,0,,2,,,74,127
61250,note_off,0,0,0,,4,,,64,127
61251,note_on,1,0,0,,0,,,72,127
61251,note_on,0,0,0,,0,,,60,127
61317,note_off,66,0,0,,0,,,72,127
61318,note_on,1,0,0,,11,,,70,127
61384,note_off,66,0,0,,11,,,70,127
61385,note_on,1,0,0,,10,,,69,127
61451,note_off,66,0,0,,10,,,69,127
61452,note_on,1,0,0,,7,,,67,127
61518,note_off,66,0,0,,7,,,67,127
61518,note_off,0,0,0,,0,,,60,127
61519,note_on,1,0,0,,10,,,69,127
61519,note_on,0,0,0,,5,,,53,127
61789,note_off,270,0,0,,5,,,53,127
61789,note_off,0,0,0,,10,,,69,127
61790,note_on,1,0,0,,10,,,69,127
61790,note_on,0,0,0,,5,,,65,127
62060,note_off,270,0,0,,5,,,65,127
62060,note_off,0,0,0,,10,,,69,127
62061,note_on,1,0,0,,11,,,70,127
62061,note_on,0,0,0,,7,,,67,127
62127,note_off,66,0,0,,7,,,67,127
62128,note_on,1,0,0,,5,,,65,127
62194,note_off,66,0,0,,5,,,65,127
62195,note_on,1,0,0,,4,,,64,127
62261,note_off,66,0,0,,4,,,64,127
62262,note_on,1,0,0,,2,,,62,127
62328,note_off,66,0,0,,2,,,62,127
62328,note_off,0,0,0,,11,,,70,127
62329,note_on,1,0,0,,0,,,72,127
62329,note_on,0,0,0,,0,,,60,127
62395,note_off,66,0,0,,0,,,60,127
62396,note_on,1,0,0,,11,,,58,127
62462,note_off,66,0,0,,11,,,58,127
62463,note_on,1,0,0,,10,,,57,127
62529,note_off,66,0,0,,10,,,57,127
62530,note_on,1,0,0,,7,,,55,127
62596,note_off,66,0,0,,7,,,55,127
62597,note_on,1,0,0,,10,,,57,127
62867,note_off,270,0,0,,10,,,57,127
62867,note_off,0,0,0,,0,,,72,127
62868,note_on,1,0,0,,5,,,77,127
62868,note_on,0,0,0,,5,,,53,127
63138,note_off,270,0,0,,5,,,53,127
63138,note_off,0,0,0,,5,,,77,127
63139,note_on,1,0,0,,7,,,79,127
63139,note_on,0,0,0,,4,,,52,127
63205,note_off,66,0,0,,7,,,79,127
63206,note_on,1,0,0,,5,,,77,127
63272,note_off,66,0,0,,5,,,77,127
63273,note_on,1,0,0,,4,,,76,127
63339,note_off,66,0,0,,4,,,76,127
63340,note_on,1,0,0,,2,,,74,127
63406,note_off,66,0,0,,2,,,74,127
63406,note_off,0,0,0,,4,,,52,127
63407,note_on,1,0,0,,0,,,72,127
63407,note_on,0,0,0,,0,,,48,127
63473,note_off,66,0,0,,0,,,72,127
63474,note_on,1,0,0,,11,,,70,127
63540,note_off,66,0,0,,11,,,70,127
63541,note_on,1,0,0,,10,,,69,127
63607,note_off,66,0,0,,10,,,69,127
63608,note_on,1,0,0,,7,,,67,127
63674,note_off,66,0,0,,7,,,67,127
63674,note_off,0,0,0,,0,,,48,127
63675,note_on,1,0,0,,10,,,69,127
63675,note_on,0,0,0,,5,,,53,127
63945,note_off,270,0,0,,5,,,53,127
63945,note_off,0,0,0,,10,,,69,127
63946,note_on,1,0,0,,10,,,69,127
63946,note_on,0,0,0,,5,,,65,127
64216,note_off,270,0,0,,5,,,65,127
64216,note_off,0,0,0,,10,,,69,127
64217,note_on,1,0,0,,11,,,70,127
64217,note_on,0,0,0,,7,,,67,127
64283,note_off,66,0,0,,7,,,67,127
64284,note_on,1,0,0,,5,,,65,127
64350,note_off,66,0,0,,5,,,65,127
64351,note_on,1,0,0,,4,,,64,127
64417,note_off,66,0,0,,4,,,64,127
64418,note_on,1,0,0,,2,,,62,127
64484,note_off,66,0,0,,2,,,62,127
64484,note_off,0,0,0,,11,,,70,127
64485,note_on,1,0,0,,0,,,72,127
64485,note_on,0,0,0,,0,,,60,127
64551,note_off,66,0,0,,0,,,60,127
64552,note_on,1,0,0,,11,,,58,127
64618,note_off,66,0,0,,11,,,58,127
64619,note_on,1,0,0,,10,,,57,127
64685,note_off,66,0,0,,10,,,57,127
64686,note_on,1,0,0,,7,,,55,127
64752,note_off,66,0,0,,7,,,55,127
64753,note_on,1,0,0,,10,,,57,127
65023,note_off,270,0,0,,10,,,57,127
65023,note_off,0,0,0,,0,,,72,127
65024,note_on,1,0,0,,0,,,72,127
65024,note_on,0,0,0,,5,,,53,127
65294,note_off,270,0,0,,5,,,53,127
65294,note_off,0,0,0,,0,,,72,127
65295,note_on,1,0,0,,2,,,74,127
65295,note_on,0,0,0,,11,,,46,127
65361,note_off,66,0,0,,2,,,74,127
65362,note_on,1,0,0,,0,,,72,127
65428,note_off,66,0,0,,0,,,72,127
65429,note_on,1,0,0,,11,,,70,127
65495,note_off,66,0,0,,11,,,70,127
65496,note_on,1,0,0,,10,,,69,127
65562,note_off,66,0,0,,10,,,69,127
65562,note_off,0,0,0,,11,,,46,127
65563,note_on,1,0,0,,7,,,67,127
65563,note_on,0,0,0,,11,,,58,127
65629,note_off,66,0,0,,7,,,67,127
65630,note_on,1,0,0,,5,,,65,127
65696,note_off,66,0,0,,5,,,65,127
65697,note_on,1,0,0,,4,,,64,127
65763,note_off,66,0,0,,4,,,64,127
65764,note_on,1,0,0,,2,,,62,127
65830,note_off,66,0,0,,2,,,62,127
65830,note_off,0,0,0,,11,,,58,127
65831,note_on,1,0,0,,0,,,60,127
65831,note_on,0,0,0,,0,,,48,127
65965,note_off,134,0,0,,0,,,60,127
65966,note_on,1,0,0,,2,,,74,127
66236,note_off,270,0,0,,2,,,74,127
66237,note_on,1,0,0,,0,,,72,127
66371,note_off,134,0,0,,0,,,48,127
66372,note_on,1,0,0,,2,,,50,127
66506,note_off,134,0,0,,0,,,72,127
66507,note_on,1,0,0,,11,,,70,127
66641,note_off,134,0,0,,11,,,70,127
66641,note_off,0,0,0,,2,,,50,127
66642,note_on,1,0,0,,10,,,69,127
66642,note_on,0,0,0,,4,,,52,127
66776,note_off,134,0,0,,10,,,69,127
66777,note_on,1,0,0,,7,,,67,127
66911,note_off,134,0,0,,7,,,67,127
66911,note_off,0,0,0,,4,,,52,127
66912,note_on,1,0,0,,10,,,69,127
66912,note_on,0,0,0,,5,,,53,127
67046,note_off,134,0,0,,10,,,69,127
67047,note_on,1,0,0,,0,,,72,127
67181,note_off,134,0,0,,0,,,72,127
67181,note_off,0,0,0,,5,,,53,127
67182,note_on,1,0,0,,11,,,70,127
67182,note_on,0,0,0,,11,,,58,127
67316,note_off,134,0,0,,11,,,70,127
67317,note_on,1,0,0,,7,,,67,127
67451,note_off,134,0,0,,7,,,67,127
67451,note_off,0,0,0,,11,,,58,127
67452,note_on,1,0,0,,10,,,69,127
67452,note_on,0,0,0,,0,,,60,127
67586,note_off,134,0,0,,10,,,69,127
67587,note_on,1,0,0,,5,,,65,127
67721,note_off,134,0,0,,5,,,65,127
67722,note_on,1,0,0,,7,,,67,127
67722,note_on,0,0,0,,0,,,48,127
67856,note_off,134,0,0,,7,,,67,127
67857,note_on,1,0,0,,4,,,64,127
67991,note_off,134,0,0,,4,,,64,127
67991,note_off,0,0,0,,0,,,48,127
67991,note_off,0,0,0,,0,,,60,127
67992,note_on,1,0,0,,4,,,64,127
67992,note_on,0,0,0,,2,,,50,127
68126,note_off,134,0,0,,4,,,64,127
68127,note_on,1,0,0,,5,,,65,127
68263,note_on,136,0,0,,11,,,58,127
68397,note_off,134,0,0,,5,,,65,127
68398,note_on,1,0,0,,5,,,65,127
68532,note_off,134,0,0,,5,,,65,127
68532,note_off,0,0,0,,2,,,50,127
68533,note_on,1,0,0,,5,,,65,127
68533,note_on,0,0,0,,4,,,52,127
68667,note_off,134,0,0,,5,,,65,127
68668,note_on,1,0,0,,7,,,67,127
68802,note_off,134,0,0,,11,,,58,127
68803,note_on,1,0,0,,0,,,60,127
68937,note_off,134,0,0,,7,,,67,127
68938,note_on,1,0,0,,7,,,67,127
69072,note_off,134,0,0,,7,,,67,127
69072,note_off,0,0,0,,4,,,52,127
69073,note_on,1,0,0,,7,,,67,127
69073,note_on,0,0,0,,5,,,53,127
69207,note_off,134,0,0,,7,,,67,127
69208,note_on,1,0,0,,10,,,69,127
69342,note_off,134,0,0,,0,,,60,127
69343,note_on,1,0,0,,2,,,62,127
69477,note_off,134,0,0,,10,,,69,127
69478,note_on,1,0,0,,10,,,69,127
69612,note_off,134,0,0,,10,,,69,127
69612,note_off,0,0,0,,5,,,53,127
69613,note_on,1,0,0,,10,,,69,127
69613,note_on,0,0,0,,7,,,55,127
69747,note_off,134,0,0,,10,,,69,127
69748,note_on,1,0,0,,11,,,70,127
69882,note_off,134,0,0,,2,,,62,127
69883,note_on,1,0,0,,4,,,64,127
70017,note_off,134,0,0,,11,,,70,127
70018,note_on,1,0,0,,11,,,70,127
70152,note_off,134,0,0,,11,,,70,127
70152,note_off,0,0,0,,7,,,55,127
70153,note_on,1,0,0,,11,,,70,127
70153,note_on,0,0,0,,10,,,57,127
70287,note_off,134,0,0,,11,,,70,127
70288,note_on,1,0,0,,0,,,72,127
70422,note_off,134,0,0,,4,,,64,127
70423,note_on,1,0,0,,5,,,65,127
70557,note_off,134,0,0,,0,,,72,127
70558,note_on,1,0,0,,0,,,72,127
70692,note_off,134,0,0,,0,,,72,127
70692,note_off,0,0,0,,10,,,57,127
70693,note_on,1,0,0,,0,,,72,127
70693,note_on,0,0,0,,11,,,58,127
70827,note_off,134,0,0,,0,,,72,127
70828,note_on,1,0,0,,2,,,74,127
70962,note_off,134,0,0,,5,,,65,127
70963,note_on,1,0,0,,7,,,67,127
71097,note_off,134,0,0,,2,,,74,127
71098,note_on,1,0,0,,2,,,74,127
71232,note_off,134,0,0,,2,,,74,127
71232,note_off,0,0,0,,11,,,58,127
71233,note_on,1,0,0,,4,,,76,127
71233,note_on,0,0,0,,0,,,60,127
71503,note_off,270,0,0,,7,,,67,127
71504,note_on,1,0,0,,11,,,70,127
71774,note_off,270,0,0,,11,,,70,127
71774,note_off,0,0,0,,0,,,60,127
71774,note_off,0,0,0,,4,,,76,127
71775,note_on,1,0,0,,5,,,77,127
71775,note_on,0,0,0,,0,,,60,127
71775,note_on,0,0,0,,10,,,69,127
72045,note_off,270,0,0,,10,,,69,127
72046,note_on,1,0,0,,7,,,67,127
72180,note_off,134,0,0,,7,,,67,127
72181,note_on,1,0,0,,5,,,65,127
72315,note_off,134,0,0,,5,,,65,127
72315,note_off,0,0,0,,0,,,60,127
72315,note_off,0,0,0,,5,,,77,127
72316,note_on,1,0,0,,7,,,79,127
72316,note_on,0,0,0,,4,,,64,127
72586,note_off,270,0,0,,4,,,64,127
72586,note_off,0,0,0,,7,,,79,127
72587,note_on,1,0,0,,11,,,82,127
72587,note_on,0,0,0,,0,,,60,127
72857,note_off,270,0,0,,0,,,60,127
72857,note_off,0,0,0,,11,,,82,127
72858,note_on,1,0,0,,10,,,81,127
72858,note_on,0,0,0,,5,,,65,127
73128,note_off,270,0,0,,5,,,65,127
73128,note_off,0,0,0,,10,,,81,127
73129,note_on,1,0,0,,7,,,79,127
73129,note_on,0,0,0,,11,,,58,127
73263,note_off,134,0,0,,7,,,79,127
73264,note_on,1,0,0,,5,,,77,127
73398,note_off,134,0,0,,5,,,77,127
73398,note_off,0,0,0,,11,,,58,127
73399,note_on,1,0,0,,4,,,76,127
73399,note_on,0,0,0,,0,,,60,127
73670,note_on,271,0,0,,11,,,70,127
73940,note_off,270,0,0,,11,,,70,127
73940,note_off,0,0,0,,0,,,60,127
73940,note_off,0,0,0,,4,,,76,127
73941,note_on,1,0,0,,5,,,77,127
73941,note_on,0,0,0,,0,,,60,127
73941,note_on,0,0,0,,10,,,69,127
74211,note_off,270,0,0,,10,,,69,127
74212,note_on,1,0,0,,7,,,67,127
74346,note_off,134,0,0,,7,,,67,127
74347,note_on,1,0,0,,5,,,65,127
74481,note_off,134,0,0,,5,,,65,127
74481,note_off,0,0,0,,0,,,60,127
74481,note_off,0,0,0,,5,,,77,127
74482,note_on,1,0,0,,7,,,79,127
74482,note_on,0,0,0,,4,,,64,127
74752,note_off,270,0,0,,4,,,64,127
74752,note_off,0,0,0,,7,,,79,127
74753,note_on,1,0,0,,11,,,82,127
74753,note_on,0,0,0,,0,,,60,127
75023,note_off,270,0,0,,0,,,60,127
75023,note_off,0,0,0,,11,,,82,127
75024,note_on,1,0,0,,10,,,81,127
75024,note_on,0,0,0,,5,,,65,127
75294,note_off,270,0,0,,5,,,65,127
75294,note_off,0,0,0,,10,,,81,127
75295,note_on,1,0,0,,7,,,79,127
75295,note_on,0,0,0,,11,,,58,127
75429,note_off,134,0,0,,7,,,79,127
75430,note_on,1,0,0,,5,,,77,127
75564,note_off,134,0,0,,5,,,77,127
75564,note_off,0,0,0,,11,,,58,127
75565,note_on,1,0,0,,4,,,76,127
75565,note_on,0,0,0,,0,,,60,127
75699,note_off,134,0,0,,4,,,76,127
75700,note_on,1,0,0,,5,,,77,127
75834,note_off,134,0,0,,5,,,77,127
75835,note_on,1,0,0,,7,,,79,127
75835,note_on,0,0,0,,0,,,48,127
75969,note_off,134,0,0,,7,,,79,127
75970,note_on,1,0,0,,5,,,77,127
76104,note_off,134,0,0,,5,,,77,127
76104,note_off,0,0,0,,0,,,60,127
76105,note_on,1,0,0,,4,,,76,127
76239,note_off,134,0,0,,4,,,76,127
76240,note_on,1,0,0,,2,,,74,127
76374,note_off,134,0,0,,2,,,74,127
76374,note_off,0,0,0,,0,,,48,127
76375,note_on,1,0,0,,0,,,72,127
76375,note_on,0,0,0,,7,,,79,127
76375,note_on,0,0,0,,4,,,52,127
76509,note_off,134,0,0,,0,,,72,127
76510,note_on,1,0,0,,11,,,70,127
76644,note_off,134,0,0,,11,,,70,127
76644,note_off,0,0,0,,4,,,52,127
76644,note_off,0,0,0,,7,,,79,127
76645,note_on,1,0,0,,5,,,77,127
76645,note_on,0,0,0,,10,,,69,127
76645,note_on,0,0,0,,5,,,53,127
76779,note_off,134,0,0,,10,,,69,127
76780,note_on,1,0,0,,11,,,70,127
76914,note_off,134,0,0,,11,,,70,127
76914,note_off,0,0,0,,5,,,53,127
76915,note_on,1,0,0,,0,,,72,127
76915,note_on,0,0,0,,11,,,58,127
77049,note_off,134,0,0,,0,,,72,127
77050,note_on,1,0,0,,2,,,74,127
77184,note_off,134,0,0,,2,,,74,127
77184,note_off,0,0,0,,11,,,58,127
77185,note_on,1,0,0,,0,,,72,127
77185,note_on,0,0,0,,0,,,60,127
77319,note_off,134,0,0,,0,,,72,127
77320,note_on,1,0,0,,11,,,70,127
77454,note_off,134,0,0,,11,,,70,127
77454,note_off,0,0,0,,0,,,60,127
77454,note_off,0,0,0,,5,,,77,127
77455,note_on,1,0,0,,10,,,69,127
77455,note_on,0,0,0,,4,,,76,127
77455,note_on,0,0,0,,11,,,58,127
77589,note_off,134,0,0,,10,,,69,127
77590,note_on,1,0,0,,7,,,67,127
77724,note_off,134,0,0,,7,,,67,127
77724,note_off,0,0,0,,11,,,58,127
77724,note_off,0,0,0,,4,,,76,127
77725,note_on,1,0,0,,10,,,69,127
77725,note_on,0,0,0,,5,,,77,127
77725,note_on,0,0,0,,10,,,57,127
77859,note_off,134,0,0,,10,,,69,127
77860,note_on,1,0,0,,11,,,70,127
77994,note_off,134,0,0,,11,,,70,127
77994,note_off,0,0,0,,10,,,57,127
77995,note_on,1,0,0,,0,,,72,127
77995,note_on,0,0,0,,11,,,58,127
78129,note_off,134,0,0,,0,,,72,127
78130,note_on,1,0,0,,2,,,74,127
78264,note_off,134,0,0,,2,,,74,127
78264,note_off,0,0,0,,11,,,58,127
78265,note_on,1,0,0,,0,,,72,127
78265,note_on,0,0,0,,0,,,60,127
78399,note_off,134,0,0,,0,,,72,127
78400,note_on,1,0,0,,11,,,70,127
78534,note_off,134,0,0,,11,,,70,127
78534,note_off,0,0,0,,0,,,60,127
78534,note_off,0,0,0,,5,,,77,127
78535,note_on,1,0,0,,4,,,76,127
78535,note_on,0,0,0,,10,,,69,127
78535,note_on,0,0,0,,11,,,58,127
78669,note_off,134,0,0,,10,,,69,127
78670,note_on,1,0,0,,7,,,67,127
78804,note_off,134,0,0,,7,,,67,127
78804,note_off,0,0,0,,11,,,58,127
78804,note_off,0,0,0,,4,,,76,127
78805,note_on,1,0,0,,10,,,69,127
78805,note_on,0,0,0,,5,,,77,127
78805,note_on,0,0,0,,10,,,57,127
78939,note_off,134,0,0,,5,,,77,127
78940,note_on,1,0,0,,7,,,79,127
79074,note_off,134,0,0,,7,,,79,127
79074,note_off,0,0,0,,10,,,57,127
79074,note_off,0,0,0,,10,,,69,127
79075,note_on,1,0,0,,10,,,81,127
79075,note_on,0,0,0,,11,,,58,127
79209,note_off,134,0,0,,10,,,81,127
79210,note_on,1,0,0,,11,,,82,127
79344,note_off,134,0,0,,11,,,82,127
79344,note_off,0,0,0,,11,,,58,127
79345,note_on,1,0,0,,10,,,81,127
79345,note_on,0,0,0,,0,,,60,127
79479,note_off,134,0,0,,10,,,81,127
79480,note_on,1,0,0,,7,,,79,127
79614,note_off,134,0,0,,7,,,79,127
79614,note_off,0,0,0,,0,,,60,127
79615,note_on,1,0,0,,5,,,77,127
79615,note_on,0,0,0,,11,,,58,127
79749,note_off,134,0,0,,5,,,77,127
79750,note_on,1,0,0,,4,,,76,127
79884,note_off,134,0,0,,4,,,76,127
79884,note_off,0,0,0,,11,,,58,127
79885,note_on,1,0,0,,5,,,77,127
79885,note_on,0,0,0,,10,,,57,127
80019,note_off,134,0,0,,5,,,77,127
80023,note_on,4,0,0,,0,,,72,127
80156,note_off,133,0,0,,10,,,57,127
80157,note_off,1,0,0,,0,,,72,127
80161,note_on,4,0,0,,2,,,74,127
80161,note_on,0,0,0,,11,,,58,127
80295,note_off,134,0,0,,2,,,74,127
80299,note_on,4,0,0,,11,,,70,127
80432,note_off,133,0,0,,11,,,58,127
80433,note_off,1,0,0,,11,,,70,127
80437,note_on,4,0,0,,10,,,69,127
80437,note_on,0,0,0,,0,,,60,127
80571,note_off,134,0,0,,10,,,69,127
80575,note_on,4,0,0,,5,,,65,127
80709,note_off,134,0,0,,5,,,65,127
80713,note_on,4,0,0,,7,,,67,127
80713,note_on,0,0,0,,0,,,48,127
80847,note_off,134,0,0,,7,,,67,127
80851,note_on,4,0,0,,4,,,64,127
80981,note_off,130,0,0,,0,,,60,127
80984,note_off,3,0,0,,0,,,48,127
80985,note_off,1,0,0,,4,,,64,127
80998,note_on,13,0,0,,5,,,65,127
80998,note_on,0,0,0,,5,,,41,127
82864,note_off,1866,0,0,,5,,,41,127
82864,note_off,0,0,0,,5,,,65,127
84480,end_of_track,1616,1,0,,,,,,
