tick,type,time,meta,track,program,channel,pitch,tempo,note,velocity
0,copyright,0,1,0,,,,,,
0,program_change,0,0,0,6,0,,,,
0,pitchwheel,0,0,0,,0,0,,,
0,program_change,0,0,0,6,1,,,,
0,pitchwheel,0,0,0,,1,-590,,,
0,program_change,0,0,0,6,2,,,,
0,pitchwheel,0,0,0,,2,-272,,,
0,program_change,0,0,0,6,3,,,,
0,pitchwheel,0,0,0,,3,-353,,,
0,program_change,0,0,0,6,4,,,,
0,pitchwheel,0,0,0,,4,-560,,,
0,program_change,0,0,0,6,5,,,,
0,pitchwheel,0,0,0,,5,-80,,,
0,program_change,0,0,0,6,6,,,,
0,pitchwheel,0,0,0,,6,-625,,,
0,program_change,0,0,0,6,7,,,,
0,pitchwheel,0,0,0,,7,-130,,,
0,program_change,0,0,0,6,8,,,,
0,pitchwheel,0,0,0,,8,-512,,,
0,program_change,0,0,0,6,10,,,,
0,pitchwheel,0,0,0,,10,-464,,,
0,program_change,0,0,0,6,11,,,,
0,pitchwheel,0,0,0,,11,-208,,,
0,program_change,0,0,0,6,12,,,,
0,pitchwheel,0,0,0,,12,-553,,,
0,set_tempo,0,1,0,,,,500000,,
68,note_on,68,0,0,,5,,,65,127
203,note_off,135,0,0,,5,,,65,127
204,note_on,1,0,0,,7,,,67,127
339,note_off,135,0,0,,7,,,67,127
340,note_on,1,0,0,,10,,,69,127
475,note_off,135,0,0,,10,,,69,127
476,note_on,1,0,0,,11,,,70,127
611,note_off,135,0,0,,11,,,70,127
612,note_on,1,0,0,,0,,,72,127
747,note_off,135,0,0,,0,,,72,127
748,note_on,1,0,0,,2,,,74,127
883,note_off,135,0,0,,2,,,74,127
884,note_on,1,0,0,,4,,,76,127
1019,note_off,135,0,0,,4,,,76,127
1020,note_on,1,0,0,,5,,,77,127
1155,note_off,135,0,0,,5,,,77,127
1156,note_on,1,0,0,,7,,,79,127
1291,note_off,135,0,0,,7,,,79,127
1292,note_on,1,0,0,,10,,,81,127
1427,note_off,135,0,0,,10,,,81,127
1428,note_on,1,0,0,,11,,,82,127
1563,note_off,135,0,0,,11,,,82,127
1564,note_on,1,0,0,,10,,,81,127
1700,note_on,136,0,0,,5,,,53,127
1835,note_off,135,0,0,,5,,,53,127
1836,note_on,1,0,0,,7,,,55,127
1971,note_off,135,0,0,,7,,,55,127
1972,note_on,1,0,0,,10,,,57,127
2107,note_off,135,0,0,,10,,,57,127
2108,note_on,1,0,0,,11,,,58,127
2243,note_off,135,0,0,,11,,,58,127
2244,note_on,1,0,0,,0,,,60,127
2379,note_off,135,0,0,,0,,,60,127
2380,note_on,1,0,0,,2,,,62,127
2515,note_off,135,0,0,,2,,,62,127
2516,note_on,1,0,0,,4,,,64,127
2651,note_off,135,0,0,,4,,,64,127
2652,note_on,1,0,0,,5,,,65,127
2787,note_off,135,0,0,,5,,,65,127
2787,note_off,0,0,0,,10,,,81,127
2788,note_on,1,0,0,,7,,,67,127
2788,note_on,0,0,0,,7,,,79,127
2923,note_off,135,0,0,,7,,,67,127
2924,note_on,1,0,0,,10,,,69,127
3059,note_off,135,0,0,,10,,,69,127
3060,note_on,1,0,0,,11,,,70,127
3195,note_off,135,0,0,,11,,,70,127
3196,note_on,1,0,0,,10,,,69,127
3196,note_on,0,0,0,,0,,,72,127
3331,note_off,135,0,0,,7,,,79,127
3332,note_on,1,0,0,,5,,,77,127
3467,note_off,135,0,0,,5,,,77,127
3468,note_on,1,0,0,,4,,,76,127
3603,note_off,135,0,0,,4,,,76,127
3603,note_off,0,0,0,,0,,,72,127
3603,note_off,0,0,0,,10,,,69,127
3604,note_on,1,0,0,,0,,,72,127
3604,note_on,0,0,0,,10,,,69,127
3604,note_on,0,0,0,,5,,,77,127
3740,note_on,136,0,0,,0,,,84,127
3873,note_off,133,0,0,,5,,,77,127
3875,note_off,2,0,0,,0,,,84,127
3876,note_on,1,0,0,,5,,,77,127
4011,note_off,135,0,0,,5,,,77,127
4011,note_off,0,0,0,,10,,,69,127
4011,note_off,0,0,0,,0,,,72,127
4012,note_on,1,0,0,,11,,,70,127
4012,note_on,0,0,0,,7,,,67,127
4012,note_on,0,0,0,,5,,,77,127
4282,note_off,270,0,0,,5,,,77,127
4283,note_on,1,0,0,,4,,,76,127
4418,note_off,135,0,0,,7,,,67,127
4418,note_off,0,0,0,,11,,,70,127
4419,note_on,1,0,0,,0,,,72,127
4419,note_on,0,0,0,,10,,,69,127
4554,note_off,135,0,0,,4,,,76,127
4555,note_on,1,0,0,,0,,,84,127
4690,note_off,135,0,0,,0,,,84,127
4691,note_on,1,0,0,,5,,,77,127
4826,note_off,135,0,0,,5,,,77,127
4826,note_off,0,0,0,,10,,,69,127
4826,note_off,0,0,0,,0,,,72,127
4827,note_on,1,0,0,,11,,,70,127
4827,note_on,0,0,0,,7,,,67,127
4827,note_on,0,0,0,,5,,,77,127
5097,note_off,270,0,0,,5,,,77,127
5098,note_on,1,0,0,,4,,,76,127
5233,note_off,135,0,0,,4,,,76,127
5233,note_off,0,0,0,,7,,,67,127
5233,note_off,0,0,0,,11,,,70,127
5234,note_on,1,0,0,,10,,,69,127
5234,note_on,0,0,0,,5,,,65,127
5234,note_on,0,0,0,,4,,,76,127
5369,note_off,135,0,0,,4,,,76,127
5370,note_on,1,0,0,,10,,,81,127
5505,note_off,135,0,0,,10,,,81,127
5506,note_on,1,0,0,,2,,,74,127
5641,note_off,135,0,0,,2,,,74,127
5641,note_off,0,0,0,,5,,,65,127
5641,note_off,0,0,0,,10,,,69,127
5642,note_on,1,0,0,,7,,,67,127
5642,note_on,0,0,0,,4,,,64,127
5642,note_on,0,0,0,,2,,,74,127
5912,note_off,270,0,0,,2,,,74,127
5913,note_on,1,0,0,,1,,,73,127
6048,note_off,135,0,0,,4,,,64,127
6048,note_off,0,0,0,,7,,,67,127
6049,note_on,1,0,0,,10,,,69,127
6049,note_on,0,0,0,,5,,,65,127
6184,note_off,135,0,0,,1,,,73,127
6185,note_on,1,0,0,,10,,,81,127
6320,note_off,135,0,0,,10,,,81,127
6321,note_on,1,0,0,,2,,,74,127
6456,note_off,135,0,0,,2,,,74,127
6456,note_off,0,0,0,,5,,,65,127
6456,note_off,0,0,0,,10,,,69,127
6457,note_on,1,0,0,,4,,,64,127
6457,note_on,0,0,0,,7,,,67,127
6457,note_on,0,0,0,,2,,,74,127
6592,note_off,135,0,0,,2,,,74,127
6593,note_on,1,0,0,,1,,,73,127
6728,note_off,135,0,0,,1,,,73,127
6729,note_on,1,0,0,,2,,,74,127
6864,note_off,135,0,0,,2,,,74,127
6864,note_off,0,0,0,,7,,,67,127
6864,note_off,0,0,0,,4,,,64,127
6865,note_on,1,0,0,,4,,,64,127
6865,note_on,0,0,0,,1,,,61,127
6865,note_on,0,0,0,,4,,,76,127
7000,note_off,135,0,0,,4,,,76,127
7001,note_on,1,0,0,,5,,,77,127
7136,note_off,135,0,0,,5,,,77,127
7137,note_on,1,0,0,,7,,,79,127
7272,note_off,135,0,0,,7,,,79,127
7272,note_off,0,0,0,,1,,,61,127
7272,note_off,0,0,0,,4,,,64,127
7273,note_on,1,0,0,,5,,,65,127
7273,note_on,0,0,0,,2,,,62,127
7273,note_on,0,0,0,,5,,,77,127
7408,note_off,135,0,0,,5,,,77,127
7409,note_on,1,0,0,,4,,,76,127
7544,note_off,135,0,0,,4,,,76,127
7545,note_on,1,0,0,,2,,,74,127
7680,note_off,135,0,0,,2,,,62,127
7680,note_off,0,0,0,,5,,,65,127
7681,note_on,1,0,0,,7,,,67,127
7681,note_on,0,0,0,,4,,,64,127
7816,note_off,135,0,0,,2,,,74,127
7817,note_on,1,0,0,,7,,,79,127
7952,note_off,135,0,0,,7,,,79,127
7953,note_on,1,0,0,,0,,,72,127
8088,note_off,135,0,0,,0,,,72,127
8088,note_off,0,0,0,,4,,,64,127
8088,note_off,0,0,0,,7,,,67,127
8089,note_on,1,0,0,,5,,,65,127
8089,note_on,0,0,0,,2,,,62,127
8089,note_on,0,0,0,,0,,,72,127
8224,note_off,135,0,0,,0,,,72,127
8225,note_on,1,0,0,,12,,,71,127
8360,note_off,135,0,0,,12,,,71,127
8361,note_on,1,0,0,,0,,,72,127
8496,note_off,135,0,0,,0,,,72,127
8496,note_off,0,0,0,,2,,,62,127
8496,note_off,0,0,0,,5,,,65,127
8497,note_on,1,0,0,,12,,,59,127
8497,note_on,0,0,0,,2,,,62,127
8497,note_on,0,0,0,,2,,,74,127
8632,note_off,135,0,0,,2,,,74,127
8633,note_on,1,0,0,,4,,,76,127
8768,note_off,135,0,0,,4,,,76,127
8769,note_on,1,0,0,,5,,,77,127
8904,note_off,135,0,0,,5,,,77,127
8904,note_off,0,0,0,,2,,,62,127
8904,note_off,0,0,0,,12,,,59,127
8905,note_on,1,0,0,,4,,,64,127
8905,note_on,0,0,0,,0,,,60,127
8905,note_on,0,0,0,,4,,,76,127
9040,note_off,135,0,0,,4,,,76,127
9041,note_on,1,0,0,,2,,,74,127
9176,note_off,135,0,0,,2,,,74,127
9177,note_on,1,0,0,,0,,,72,127
9312,note_off,135,0,0,,0,,,60,127
9312,note_off,0,0,0,,4,,,64,127
9313,note_on,1,0,0,,4,,,64,127
9313,note_on,0,0,0,,0,,,60,127
9448,note_off,135,0,0,,0,,,72,127
9449,note_on,1,0,0,,4,,,76,127
9584,note_off,135,0,0,,4,,,76,127
9585,note_on,1,0,0,,10,,,69,127
9720,note_off,135,0,0,,10,,,69,127
9720,note_off,0,0,0,,0,,,60,127
9720,note_off,0,0,0,,4,,,64,127
9721,note_on,1,0,0,,12,,,59,127
9721,note_on,0,0,0,,2,,,62,127
9721,note_on,0,0,0,,10,,,69,127
9991,note_off,270,0,0,,10,,,69,127
9992,note_on,1,0,0,,8,,,68,127
10127,note_off,135,0,0,,2,,,62,127
10127,note_off,0,0,0,,12,,,59,127
10128,note_on,1,0,0,,0,,,60,127
10128,note_on,0,0,0,,4,,,64,127
10263,note_off,135,0,0,,8,,,68,127
10264,note_on,1,0,0,,4,,,76,127
10399,note_off,135,0,0,,4,,,76,127
10400,note_on,1,0,0,,10,,,69,127
10535,note_off,135,0,0,,10,,,69,127
10535,note_off,0,0,0,,4,,,64,127
10535,note_off,0,0,0,,0,,,60,127
10536,note_on,1,0,0,,12,,,59,127
10536,note_on,0,0,0,,2,,,62,127
10536,note_on,0,0,0,,10,,,69,127
10671,note_off,135,0,0,,10,,,69,127
10672,note_on,1,0,0,,8,,,68,127
10807,note_off,135,0,0,,8,,,68,127
10808,note_on,1,0,0,,10,,,69,127
10943,note_off,135,0,0,,10,,,69,127
10943,note_off,0,0,0,,2,,,62,127
10943,note_off,0,0,0,,12,,,59,127
10944,note_on,1,0,0,,12,,,59,127
10944,note_on,0,0,0,,8,,,56,127
10944,note_on,0,0,0,,12,,,71,127
11079,note_off,135,0,0,,12,,,71,127
11080,note_on,1,0,0,,0,,,72,127
11215,note_off,135,0,0,,0,,,72,127
11216,note_on,1,0,0,,2,,,74,127
11351,note_off,135,0,0,,2,,,74,127
11351,note_off,0,0,0,,8,,,56,127
11351,note_off,0,0,0,,12,,,59,127
11352,note_on,1,0,0,,10,,,57,127
11352,note_on,0,0,0,,0,,,60,127
11352,note_on,0,0,0,,0,,,72,127
11487,note_off,135,0,0,,0,,,72,127
11488,note_on,1,0,0,,12,,,71,127
11623,note_off,135,0,0,,12,,,71,127
11624,note_on,1,0,0,,10,,,69,127
11759,note_off,135,0,0,,0,,,60,127
11759,note_off,0,0,0,,10,,,57,127
11760,note_on,1,0,0,,12,,,59,127
11760,note_on,0,0,0,,2,,,62,127
11895,note_off,135,0,0,,10,,,69,127
11896,note_on,1,0,0,,2,,,74,127
12031,note_off,135,0,0,,2,,,74,127
12032,note_on,1,0,0,,7,,,67,127
12167,note_off,135,0,0,,7,,,67,127
12167,note_off,0,0,0,,2,,,62,127
12167,note_off,0,0,0,,12,,,59,127
12168,note_on,1,0,0,,0,,,60,127
12168,note_on,0,0,0,,10,,,57,127
12168,note_on,0,0,0,,7,,,67,127
12303,note_off,135,0,0,,7,,,67,127
12304,note_on,1,0,0,,6,,,66,127
12439,note_off,135,0,0,,6,,,66,127
12440,note_on,1,0,0,,7,,,67,127
12575,note_off,135,0,0,,7,,,67,127
12575,note_off,0,0,0,,10,,,57,127
12575,note_off,0,0,0,,0,,,60,127
12576,note_on,1,0,0,,10,,,57,127
12576,note_on,0,0,0,,6,,,54,127
12576,note_on,0,0,0,,10,,,69,127
12711,note_off,135,0,0,,10,,,69,127
12712,note_on,1,0,0,,12,,,71,127
12847,note_off,135,0,0,,12,,,71,127
12848,note_on,1,0,0,,0,,,72,127
12983,note_off,135,0,0,,0,,,72,127
12983,note_off,0,0,0,,6,,,54,127
12983,note_off,0,0,0,,10,,,57,127
12984,note_on,1,0,0,,12,,,59,127
12984,note_on,0,0,0,,7,,,55,127
12984,note_on,0,0,0,,12,,,71,127
13119,note_off,135,0,0,,12,,,71,127
13120,note_on,1,0,0,,10,,,69,127
13255,note_off,135,0,0,,10,,,69,127
13256,note_on,1,0,0,,7,,,67,127
13391,note_off,135,0,0,,7,,,67,127
13391,note_off,0,0,0,,7,,,55,127
13391,note_off,0,0,0,,12,,,59,127
13392,note_on,1,0,0,,7,,,55,127
13392,note_on,0,0,0,,5,,,65,127
13392,note_on,0,0,0,,2,,,62,127
13392,note_on,0,0,0,,12,,,71,127
13527,note_off,135,0,0,,12,,,71,127
13528,note_on,1,0,0,,0,,,72,127
13663,note_off,135,0,0,,0,,,72,127
13664,note_on,1,0,0,,12,,,71,127
13799,note_off,135,0,0,,12,,,71,127
13799,note_off,0,0,0,,2,,,62,127
13799,note_off,0,0,0,,5,,,65,127
13799,note_off,0,0,0,,7,,,55,127
13800,note_on,1,0,0,,4,,,64,127
13800,note_on,0,0,0,,0,,,60,127
13800,note_on,0,0,0,,7,,,55,127
13800,note_on,0,0,0,,0,,,72,127
13935,note_off,135,0,0,,0,,,72,127
13936,note_on,1,0,0,,2,,,74,127
14071,note_off,135,0,0,,2,,,74,127
14072,note_on,1,0,0,,4,,,76,127
14207,note_off,135,0,0,,4,,,76,127
14207,note_off,0,0,0,,7,,,55,127
14207,note_off,0,0,0,,0,,,60,127
14207,note_off,0,0,0,,4,,,64,127
14208,note_on,1,0,0,,12,,,59,127
14208,note_on,0,0,0,,7,,,55,127
14208,note_on,0,0,0,,2,,,62,127
14208,note_on,0,0,0,,2,,,74,127
14343,note_off,135,0,0,,2,,,74,127
14344,note_on,1,0,0,,4,,,76,127
14479,note_off,135,0,0,,4,,,76,127
14480,note_on,1,0,0,,5,,,77,127
14615,note_off,135,0,0,,5,,,77,127
14615,note_off,0,0,0,,2,,,62,127
14615,note_off,0,0,0,,7,,,55,127
14615,note_off,0,0,0,,12,,,59,127
14616,note_on,1,0,0,,0,,,60,127
14616,note_on,0,0,0,,7,,,55,127
14616,note_on,0,0,0,,4,,,64,127
14616,note_on,0,0,0,,4,,,76,127
14751,note_off,135,0,0,,4,,,76,127
14752,note_on,1,0,0,,2,,,74,127
14887,note_off,135,0,0,,2,,,74,127
14888,note_on,1,0,0,,0,,,72,127
15023,note_off,135,0,0,,0,,,72,127
15023,note_off,0,0,0,,4,,,64,127
15023,note_off,0,0,0,,7,,,55,127
15023,note_off,0,0,0,,0,,,60,127
15024,note_on,1,0,0,,7,,,55,127
15024,note_on,0,0,0,,5,,,65,127
15024,note_on,0,0,0,,2,,,62,127
15024,note_on,0,0,0,,12,,,71,127
15159,note_off,135,0,0,,12,,,71,127
15160,note_on,1,0,0,,0,,,72,127
15295,note_off,135,0,0,,0,,,72,127
15296,note_on,1,0,0,,12,,,71,127
15431,note_off,135,0,0,,12,,,71,127
15431,note_off,0,0,0,,2,,,62,127
15431,note_off,0,0,0,,5,,,65,127
15431,note_off,0,0,0,,7,,,55,127
15432,note_on,1,0,0,,7,,,55,127
15432,note_on,0,0,0,,4,,,64,127
15432,note_on,0,0,0,,0,,,60,127
15432,note_on,0,0,0,,0,,,72,127
15567,note_off,135,0,0,,0,,,72,127
15568,note_on,1,0,0,,2,,,74,127
15703,note_off,135,0,0,,2,,,74,127
15704,note_on,1,0,0,,4,,,76,127
15839,note_off,135,0,0,,4,,,76,127
15839,note_off,0,0,0,,0,,,60,127
15839,note_off,0,0,0,,4,,,64,127
15839,note_off,0,0,0,,7,,,55,127
15840,note_on,1,0,0,,7,,,55,127
15840,note_on,0,0,0,,2,,,62,127
15840,note_on,0,0,0,,12,,,59,127
15840,note_on,0,0,0,,2,,,74,127
15975,note_off,135,0,0,,2,,,74,127
15976,note_on,1,0,0,,4,,,76,127
16111,note_off,135,0,0,,4,,,76,127
16112,note_on,1,0,0,,5,,,77,127
16247,note_off,135,0,0,,5,,,77,127
16247,note_off,0,0,0,,12,,,59,127
16247,note_off,0,0,0,,2,,,62,127
16247,note_off,0,0,0,,7,,,55,127
16248,note_on,1,0,0,,0,,,48,127
16248,note_on,0,0,0,,0,,,60,127
16248,note_on,0,0,0,,4,,,76,127
16383,note_off,135,0,0,,4,,,76,127
16384,note_on,1,0,0,,2,,,74,127
16519,note_off,135,0,0,,2,,,74,127
16520,note_on,1,0,0,,0,,,72,127
16655,note_off,135,0,0,,0,,,72,127
16655,note_off,0,0,0,,0,,,60,127
16655,note_off,0,0,0,,0,,,48,127
16656,note_on,1,0,0,,0,,,60,127
16656,note_on,0,0,0,,4,,,52,127
16656,note_on,0,0,0,,7,,,79,127
16791,note_off,135,0,0,,7,,,79,127
16792,note_on,1,0,0,,5,,,77,127
16927,note_off,135,0,0,,5,,,77,127
16928,note_on,1,0,0,,4,,,76,127
17063,note_off,135,0,0,,4,,,76,127
17063,note_off,0,0,0,,4,,,52,127
17063,note_off,0,0,0,,0,,,60,127
17064,note_on,1,0,0,,5,,,53,127
17064,note_on,0,0,0,,10,,,81,127
17199,note_off,135,0,0,,10,,,81,127
17200,note_on,1,0,0,,7,,,79,127
17335,note_off,135,0,0,,7,,,79,127
17336,note_on,1,0,0,,5,,,77,127
17471,note_off,135,0,0,,5,,,77,127
17471,note_off,0,0,0,,5,,,53,127
17472,note_on,1,0,0,,10,,,57,127
17472,note_on,0,0,0,,4,,,76,127
17607,note_off,135,0,0,,4,,,76,127
17608,note_on,1,0,0,,2,,,74,127
17743,note_off,135,0,0,,2,,,74,127
17744,note_on,1,0,0,,0,,,72,127
17879,note_off,135,0,0,,0,,,72,127
17879,note_off,0,0,0,,10,,,57,127
17880,note_on,1,0,0,,7,,,55,127
17880,note_on,0,0,0,,12,,,71,127
18015,note_off,135,0,0,,12,,,71,127
18016,note_on,1,0,0,,0,,,72,127
18151,note_off,135,0,0,,0,,,72,127
18152,note_on,1,0,0,,2,,,74,127
18287,note_off,135,0,0,,2,,,74,127
18287,note_off,0,0,0,,7,,,55,127
18288,note_on,1,0,0,,4,,,52,127
18288,note_on,0,0,0,,0,,,60,127
18288,note_on,0,0,0,,7,,,79,127
18423,note_off,135,0,0,,7,,,79,127
18424,note_on,1,0,0,,5,,,77,127
18559,note_off,135,0,0,,5,,,77,127
18560,note_on,1,0,0,,4,,,76,127
18695,note_off,135,0,0,,4,,,76,127
18695,note_off,0,0,0,,0,,,60,127
18695,note_off,0,0,0,,4,,,52,127
18696,note_on,1,0,0,,5,,,53,127
18696,note_on,0,0,0,,10,,,81,127
18831,note_off,135,0,0,,10,,,81,127
18832,note_on,1,0,0,,7,,,79,127
18967,note_off,135,0,0,,7,,,79,127
18968,note_on,1,0,0,,5,,,77,127
19103,note_off,135,0,0,,5,,,77,127
19103,note_off,0,0,0,,5,,,53,127
19104,note_on,1,0,0,,10,,,57,127
19104,note_on,0,0,0,,4,,,76,127
19239,note_off,135,0,0,,4,,,76,127
19240,note_on,1,0,0,,2,,,74,127
19375,note_off,135,0,0,,2,,,74,127
19376,note_on,1,0,0,,0,,,72,127
19511,note_off,135,0,0,,0,,,72,127
19511,note_off,0,0,0,,10,,,57,127
19512,note_on,1,0,0,,7,,,55,127
19512,note_on,0,0,0,,12,,,71,127
19647,note_off,135,0,0,,12,,,71,127
19648,note_on,1,0,0,,0,,,72,127
19783,note_off,135,0,0,,0,,,72,127
19784,note_on,1,0,0,,2,,,74,127
19920,note_on,136,0,0,,7,,,43,127
20055,note_off,135,0,0,,2,,,74,127
20056,note_on,1,0,0,,7,,,79,127
20191,note_off,135,0,0,,7,,,79,127
20192,note_on,1,0,0,,2,,,74,127
20326,note_off,134,0,0,,7,,,55,127
20327,note_off,1,0,0,,2,,,74,127
20327,note_off,0,0,0,,7,,,43,127
20328,note_on,1,0,0,,0,,,60,127
20328,note_on,0,0,0,,7,,,55,127
20328,note_on,0,0,0,,3,,,75,127
20463,note_off,135,0,0,,3,,,75,127
20464,note_on,1,0,0,,5,,,77,127
20599,note_off,135,0,0,,5,,,77,127
20599,note_off,0,0,0,,0,,,60,127
20600,note_on,1,0,0,,2,,,62,127
20600,note_on,0,0,0,,12,,,71,127
20735,note_off,135,0,0,,12,,,71,127
20735,note_off,0,0,0,,2,,,62,127
20735,note_off,0,0,0,,7,,,55,127
20736,note_on,1,0,0,,7,,,55,127
20736,note_on,0,0,0,,3,,,63,127
20736,note_on,0,0,0,,0,,,72,127
20871,note_off,135,0,0,,0,,,72,127
20872,note_on,1,0,0,,2,,,74,127
21007,note_off,135,0,0,,2,,,74,127
21007,note_off,0,0,0,,3,,,63,127
21008,note_on,1,0,0,,5,,,65,127
21008,note_on,0,0,0,,10,,,69,127
21143,note_off,135,0,0,,10,,,69,127
21143,note_off,0,0,0,,5,,,65,127
21143,note_off,0,0,0,,7,,,55,127
21144,note_on,1,0,0,,7,,,55,127
21144,note_on,0,0,0,,7,,,67,127
21144,note_on,0,0,0,,12,,,71,127
21279,note_off,135,0,0,,12,,,71,127
21280,note_on,1,0,0,,0,,,72,127
21415,note_off,135,0,0,,0,,,72,127
21416,note_on,1,0,0,,2,,,74,127
21551,note_off,135,0,0,,7,,,67,127
21551,note_off,0,0,0,,7,,,55,127
21552,note_on,1,0,0,,7,,,55,127
21552,note_on,0,0,0,,7,,,67,127
21687,note_off,135,0,0,,2,,,74,127
21688,note_on,1,0,0,,7,,,79,127
21823,note_off,135,0,0,,7,,,79,127
21824,note_on,1,0,0,,2,,,74,127
21959,note_off,135,0,0,,2,,,74,127
21959,note_off,0,0,0,,7,,,67,127
21959,note_off,0,0,0,,7,,,55,127
21960,note_on,1,0,0,,0,,,60,127
21960,note_on,0,0,0,,7,,,55,127
21960,note_on,0,0,0,,3,,,75,127
22095,note_off,135,0,0,,3,,,75,127
22096,note_on,1,0,0,,5,,,77,127
22231,note_off,135,0,0,,5,,,77,127
22231,note_off,0,0,0,,0,,,60,127
22232,note_on,1,0,0,,2,,,62,127
22232,note_on,0,0,0,,12,,,71,127
22367,note_off,135,0,0,,12,,,71,127
22367,note_off,0,0,0,,2,,,62,127
22367,note_off,0,0,0,,7,,,55,127
22368,note_on,1,0,0,,3,,,63,127
22368,note_on,0,0,0,,7,,,55,127
22368,note_on,0,0,0,,0,,,72,127
22503,note_off,135,0,0,,0,,,72,127
22504,note_on,1,0,0,,2,,,74,127
22639,note_off,135,0,0,,2,,,74,127
22639,note_off,0,0,0,,3,,,63,127
22640,note_on,1,0,0,,5,,,65,127
22640,note_on,0,0,0,,10,,,69,127
22775,note_off,135,0,0,,10,,,69,127
22775,note_off,0,0,0,,5,,,65,127
22775,note_off,0,0,0,,7,,,55,127
22776,note_on,1,0,0,,7,,,55,127
22776,note_on,0,0,0,,7,,,67,127
22776,note_on,0,0,0,,12,,,71,127
22911,note_off,135,0,0,,12,,,71,127
22912,note_on,1,0,0,,0,,,72,127
23047,note_off,135,0,0,,0,,,72,127
23048,note_on,1,0,0,,2,,,74,127
23183,note_off,135,0,0,,2,,,74,127
23184,note_on,1,0,0,,7,,,79,127
23319,note_off,135,0,0,,7,,,67,127
23319,note_off,0,0,0,,7,,,55,127
23320,note_on,1,0,0,,7,,,67,127
23455,note_off,135,0,0,,7,,,67,127
23456,note_on,1,0,0,,2,,,62,127
23591,note_off,135,0,0,,2,,,62,127
23592,note_on,1,0,0,,3,,,63,127
23727,note_off,135,0,0,,3,,,63,127
23728,note_on,1,0,0,,5,,,65,127
23863,note_off,135,0,0,,5,,,65,127
23864,note_on,1,0,0,,12,,,59,127
23999,note_off,135,0,0,,12,,,59,127
23999,note_off,0,0,0,,7,,,79,127
24000,note_on,1,0,0,,0,,,60,127
24000,note_on,0,0,0,,0,,,72,127
24000,note_on,0,0,0,,3,,,75,127
24135,note_off,135,0,0,,0,,,60,127
24136,note_on,1,0,0,,8,,,56,127
24136,note_on,0,0,0,,3,,,63,127
24271,note_off,135,0,0,,3,,,63,127
24272,note_on,1,0,0,,5,,,65,127
24407,note_off,135,0,0,,5,,,65,127
24407,note_off,0,0,0,,8,,,56,127
24408,note_on,1,0,0,,7,,,55,127
24408,note_on,0,0,0,,7,,,67,127
24543,note_off,135,0,0,,3,,,75,127
24543,note_off,0,0,0,,0,,,72,127
24544,note_on,1,0,0,,2,,,74,127
24679,note_off,135,0,0,,2,,,74,127
24680,note_on,1,0,0,,0,,,72,127
24815,note_off,135,0,0,,0,,,72,127
24816,note_on,1,0,0,,2,,,74,127
24816,note_on,0,0,0,,12,,,71,127
24951,note_off,135,0,0,,7,,,67,127
24951,note_off,0,0,0,,7,,,55,127
24952,note_on,1,0,0,,7,,,67,127
25087,note_off,135,0,0,,7,,,67,127
25088,note_on,1,0,0,,2,,,62,127
25223,note_off,135,0,0,,2,,,62,127
25223,note_off,0,0,0,,12,,,71,127
25223,note_off,0,0,0,,2,,,74,127
25224,note_on,1,0,0,,3,,,63,127
25224,note_on,0,0,0,,7,,,79,127
25359,note_off,135,0,0,,3,,,63,127
25360,note_on,1,0,0,,5,,,65,127
25495,note_off,135,0,0,,5,,,65,127
25496,note_on,1,0,0,,12,,,59,127
25631,note_off,135,0,0,,12,,,59,127
25631,note_off,0,0,0,,7,,,79,127
25632,note_on,1,0,0,,0,,,60,127
25632,note_on,0,0,0,,3,,,75,127
25632,note_on,0,0,0,,0,,,72,127
25767,note_off,135,0,0,,0,,,60,127
25768,note_on,1,0,0,,3,,,63,127
25768,note_on,0,0,0,,8,,,56,127
25903,note_off,135,0,0,,3,,,63,127
25904,note_on,1,0,0,,5,,,65,127
26039,note_off,135,0,0,,5,,,65,127
26039,note_off,0,0,0,,8,,,56,127
26040,note_on,1,0,0,,7,,,67,127
26040,note_on,0,0,0,,7,,,55,127
26175,note_off,135,0,0,,0,,,72,127
26175,note_off,0,0,0,,3,,,75,127
26176,note_on,1,0,0,,2,,,74,127
26311,note_off,135,0,0,,2,,,74,127
26312,note_on,1,0,0,,0,,,72,127
26447,note_off,135,0,0,,0,,,72,127
26448,note_on,1,0,0,,2,,,74,127
26583,note_off,135,0,0,,2,,,74,127
26584,note_on,1,0,0,,7,,,79,127
26642,note_off,58,0,0,,7,,,55,127
26719,note_off,77,0,0,,7,,,79,127
26719,note_off,0,0,0,,7,,,67,127
26720,note_on,1,0,0,,12,,,59,127
26720,note_on,0,0,0,,5,,,77,127
26855,note_off,135,0,0,,5,,,77,127
26855,note_off,0,0,0,,12,,,59,127
26856,note_on,1,0,0,,0,,,60,127
26856,note_on,0,0,0,,4,,,76,127
26991,note_off,135,0,0,,4,,,76,127
26992,note_on,1,0,0,,1,,,73,127
27127,note_off,135,0,0,,1,,,73,127
27128,note_on,1,0,0,,0,,,72,127
27263,note_off,135,0,0,,0,,,72,127
27263,note_off,0,0,0,,0,,,60,127
27264,note_on,1,0,0,,4,,,64,127
27264,note_on,0,0,0,,11,,,70,127
27399,note_off,135,0,0,,11,,,70,127
27400,note_on,1,0,0,,8,,,68,127
27535,note_off,135,0,0,,8,,,68,127
27536,note_on,1,0,0,,7,,,67,127
27671,note_off,135,0,0,,7,,,67,127
27671,note_off,0,0,0,,4,,,64,127
27672,note_on,1,0,0,,5,,,65,127
27672,note_on,0,0,0,,8,,,68,127
27807,note_off,135,0,0,,8,,,68,127
27808,note_on,1,0,0,,8,,,80,127
27943,note_off,135,0,0,,8,,,80,127
27944,note_on,1,0,0,,7,,,79,127
28079,note_off,135,0,0,,7,,,79,127
28080,note_on,1,0,0,,5,,,77,127
28215,note_off,135,0,0,,5,,,77,127
28216,note_on,1,0,0,,3,,,75,127
28351,note_off,135,0,0,,3,,,75,127
28351,note_off,0,0,0,,5,,,65,127
28352,note_on,1,0,0,,5,,,53,127
28352,note_on,0,0,0,,5,,,65,127
28352,note_on,0,0,0,,2,,,74,127
28487,note_off,135,0,0,,2,,,74,127
28487,note_off,0,0,0,,5,,,65,127
28487,note_off,0,0,0,,5,,,53,127
28488,note_on,1,0,0,,7,,,55,127
28488,note_on,0,0,0,,3,,,63,127
28488,note_on,0,0,0,,0,,,72,127
28623,note_off,135,0,0,,0,,,72,127
28624,note_on,1,0,0,,12,,,71,127
28759,note_off,135,0,0,,12,,,71,127
28760,note_on,1,0,0,,0,,,72,127
28895,note_off,135,0,0,,0,,,72,127
28895,note_off,0,0,0,,3,,,63,127
28895,note_off,0,0,0,,7,,,55,127
28896,note_on,1,0,0,,2,,,62,127
28896,note_on,0,0,0,,7,,,55,127
28896,note_on,0,0,0,,5,,,65,127
28896,note_on,0,0,0,,2,,,74,127
29031,note_off,135,0,0,,2,,,74,127
29032,note_on,1,0,0,,0,,,72,127
29167,note_off,135,0,0,,0,,,72,127
29168,note_on,1,0,0,,12,,,71,127
29303,note_off,135,0,0,,12,,,71,127
29303,note_off,0,0,0,,5,,,65,127
29303,note_off,0,0,0,,7,,,55,127
29303,note_off,0,0,0,,2,,,62,127
29304,note_on,1,0,0,,0,,,48,127
29304,note_on,0,0,0,,0,,,72,127
29304,note_on,0,0,0,,2,,,74,127
29439,note_off,135,0,0,,2,,,74,127
29439,note_off,0,0,0,,0,,,72,127
29440,note_on,1,0,0,,12,,,71,127
29575,note_off,135,0,0,,12,,,71,127
29576,note_on,1,0,0,,0,,,72,127
29711,note_off,135,0,0,,0,,,72,127
29711,note_off,0,0,0,,0,,,48,127
29712,note_on,1,0,0,,0,,,60,127
29712,note_on,0,0,0,,0,,,48,127
29712,note_on,0,0,0,,2,,,74,127
29712,note_on,0,0,0,,0,,,72,127
29847,note_off,135,0,0,,0,,,72,127
29847,note_off,0,0,0,,2,,,74,127
29848,note_on,1,0,0,,12,,,71,127
29983,note_off,135,0,0,,12,,,71,127
29984,note_on,1,0,0,,0,,,72,127
30119,note_off,135,0,0,,0,,,72,127
30119,note_off,0,0,0,,0,,,48,127
30119,note_off,0,0,0,,0,,,60,127
30120,note_on,1,0,0,,2,,,50,127
30120,note_on,0,0,0,,0,,,60,127
30120,note_on,0,0,0,,6,,,78,127
30120,note_on,0,0,0,,0,,,72,127
30120,note_on,0,0,0,,2,,,74,127
30255,note_off,135,0,0,,2,,,74,127
30255,note_off,0,0,0,,0,,,72,127
30256,note_on,1,0,0,,12,,,71,127
30391,note_off,135,0,0,,12,,,71,127
30392,note_on,1,0,0,,0,,,72,127
30527,note_off,135,0,0,,0,,,72,127
30527,note_off,0,0,0,,6,,,78,127
30527,note_off,0,0,0,,0,,,60,127
30527,note_off,0,0,0,,2,,,50,127
30528,note_on,1,0,0,,2,,,50,127
30528,note_on,0,0,0,,0,,,60,127
30528,note_on,0,0,0,,6,,,78,127
30528,note_on,0,0,0,,0,,,72,127
30528,note_on,0,0,0,,2,,,74,127
30663,note_off,135,0,0,,2,,,74,127
30663,note_off,0,0,0,,0,,,72,127
30664,note_on,1,0,0,,12,,,71,127
30799,note_off,135,0,0,,12,,,71,127
30800,note_on,1,0,0,,0,,,72,127
30935,note_off,135,0,0,,0,,,72,127
30935,note_off,0,0,0,,6,,,78,127
30935,note_off,0,0,0,,0,,,60,127
30935,note_off,0,0,0,,2,,,50,127
30936,note_on,1,0,0,,11,,,58,127
30936,note_on,0,0,0,,7,,,55,127
30936,note_on,0,0,0,,7,,,79,127
30936,note_on,0,0,0,,11,,,70,127
30936,note_on,0,0,0,,0,,,72,127
31071,note_off,135,0,0,,0,,,72,127
31071,note_off,0,0,0,,11,,,70,127
31072,note_on,1,0,0,,10,,,69,127
31207,note_off,135,0,0,,10,,,69,127
31208,note_on,1,0,0,,11,,,70,127
31343,note_off,135,0,0,,11,,,70,127
31343,note_off,0,0,0,,7,,,79,127
31343,note_off,0,0,0,,7,,,55,127
31343,note_off,0,0,0,,11,,,58,127
31344,note_on,1,0,0,,11,,,58,127
31344,note_on,0,0,0,,7,,,55,127
31344,note_on,0,0,0,,11,,,70,127
31344,note_on,0,0,0,,5,,,77,127
31344,note_on,0,0,0,,0,,,72,127
31479,note_off,135,0,0,,0,,,72,127
31479,note_off,0,0,0,,11,,,70,127
31480,note_on,1,0,0,,10,,,69,127
31615,note_off,135,0,0,,10,,,69,127
31616,note_on,1,0,0,,11,,,70,127
31751,note_off,135,0,0,,11,,,70,127
31751,note_off,0,0,0,,5,,,77,127
31751,note_off,0,0,0,,7,,,55,127
31751,note_off,0,0,0,,11,,,58,127
31752,note_on,1,0,0,,0,,,48,127
31752,note_on,0,0,0,,11,,,58,127
31752,note_on,0,0,0,,11,,,70,127
31752,note_on,0,0,0,,4,,,76,127
31752,note_on,0,0,0,,0,,,72,127
31887,note_off,135,0,0,,0,,,72,127
31887,note_off,0,0,0,,11,,,70,127
31888,note_on,1,0,0,,10,,,69,127
32023,note_off,135,0,0,,10,,,69,127
32024,note_on,1,0,0,,11,,,70,127
32159,note_off,135,0,0,,11,,,70,127
32159,note_off,0,0,0,,4,,,76,127
32159,note_off,0,0,0,,11,,,58,127
32159,note_off,0,0,0,,0,,,48,127
32160,note_on,1,0,0,,0,,,48,127
32160,note_on,0,0,0,,11,,,58,127
32160,note_on,0,0,0,,4,,,76,127
32160,note_on,0,0,0,,11,,,70,127
32160,note_on,0,0,0,,0,,,72,127
32295,note_off,135,0,0,,0,,,72,127
32295,note_off,0,0,0,,11,,,70,127
32296,note_on,1,0,0,,10,,,69,127
32431,note_off,135,0,0,,10,,,69,127
32432,note_on,1,0,0,,11,,,70,127
32567,note_off,135,0,0,,11,,,70,127
32567,note_off,0,0,0,,4,,,76,127
32567,note_off,0,0,0,,11,,,58,127
32567,note_off,0,0,0,,0,,,48,127
32568,note_on,1,0,0,,8,,,56,127
32568,note_on,0,0,0,,5,,,53,127
32568,note_on,0,0,0,,5,,,77,127
32568,note_on,0,0,0,,8,,,68,127
32568,note_on,0,0,0,,11,,,70,127
32703,note_off,135,0,0,,11,,,70,127
32703,note_off,0,0,0,,8,,,68,127
32704,note_on,1,0,0,,7,,,67,127
32839,note_off,135,0,0,,7,,,67,127
32840,note_on,1,0,0,,8,,,68,127
32975,note_off,135,0,0,,8,,,68,127
32975,note_off,0,0,0,,5,,,77,127
32975,note_off,0,0,0,,5,,,53,127
32975,note_off,0,0,0,,8,,,56,127
32976,note_on,1,0,0,,8,,,56,127
32976,note_on,0,0,0,,5,,,53,127
32976,note_on,0,0,0,,8,,,68,127
32976,note_on,0,0,0,,3,,,75,127
32976,note_on,0,0,0,,11,,,70,127
33111,note_off,135,0,0,,11,,,70,127
33111,note_off,0,0,0,,8,,,68,127
33112,note_on,1,0,0,,7,,,67,127
33247,note_off,135,0,0,,7,,,67,127
33248,note_on,1,0,0,,8,,,68,127
33383,note_off,135,0,0,,8,,,68,127
33383,note_off,0,0,0,,3,,,75,127
33383,note_off,0,0,0,,5,,,53,127
33383,note_off,0,0,0,,8,,,56,127
33384,note_on,1,0,0,,11,,,46,127
33384,note_on,0,0,0,,8,,,56,127
33384,note_on,0,0,0,,2,,,74,127
33384,note_on,0,0,0,,8,,,68,127
33384,note_on,0,0,0,,11,,,70,127
33519,note_off,135,0,0,,11,,,70,127
33519,note_off,0,0,0,,8,,,68,127
33520,note_on,1,0,0,,7,,,67,127
33655,note_off,135,0,0,,7,,,67,127
33656,note_on,1,0,0,,8,,,68,127
33791,note_off,135,0,0,,8,,,68,127
33791,note_off,0,0,0,,2,,,74,127
33791,note_off,0,0,0,,8,,,56,127
33791,note_off,0,0,0,,11,,,46,127
33792,note_on,1,0,0,,11,,,46,127
33792,note_on,0,0,0,,8,,,56,127
33792,note_on,0,0,0,,2,,,74,127
33792,note_on,0,0,0,,8,,,68,127
33792,note_on,0,0,0,,11,,,70,127
33927,note_off,135,0,0,,11,,,70,127
33927,note_off,0,0,0,,8,,,68,127
33928,note_on,1,0,0,,7,,,67,127
34063,note_off,135,0,0,,7,,,67,127
34064,note_on,1,0,0,,8,,,68,127
34199,note_off,135,0,0,,8,,,68,127
34199,note_off,0,0,0,,2,,,74,127
34199,note_off,0,0,0,,8,,,56,127
34199,note_off,0,0,0,,11,,,46,127
34200,note_on,1,0,0,,3,,,51,127
34200,note_on,0,0,0,,11,,,58,127
34200,note_on,0,0,0,,3,,,75,127
34200,note_on,0,0,0,,7,,,67,127
34335,note_off,135,0,0,,3,,,75,127
34336,note_on,1,0,0,,7,,,79,127
34471,note_off,135,0,0,,7,,,79,127
34471,note_off,0,0,0,,7,,,67,127
34472,note_on,1,0,0,,5,,,77,127
34607,note_off,135,0,0,,5,,,77,127
34607,note_off,0,0,0,,11,,,58,127
34607,note_off,0,0,0,,3,,,51,127
34608,note_on,1,0,0,,3,,,51,127
34608,note_on,0,0,0,,11,,,58,127
34608,note_on,0,0,0,,5,,,77,127
34743,note_off,135,0,0,,5,,,77,127
34744,note_on,1,0,0,,3,,,75,127
34879,note_off,135,0,0,,3,,,75,127
34880,note_on,1,0,0,,2,,,74,127
35015,note_off,135,0,0,,2,,,74,127
35015,note_off,0,0,0,,11,,,58,127
35015,note_off,0,0,0,,3,,,51,127
35016,note_on,1,0,0,,0,,,60,127
35016,note_on,0,0,0,,8,,,56,127
35016,note_on,0,0,0,,2,,,74,127
35016,note_on,0,0,0,,0,,,72,127
35151,note_off,135,0,0,,0,,,72,127
35151,note_off,0,0,0,,2,,,74,127
35152,note_on,1,0,0,,12,,,71,127
35287,note_off,135,0,0,,12,,,71,127
35288,note_on,1,0,0,,0,,,72,127
35423,note_off,135,0,0,,0,,,72,127
35423,note_off,0,0,0,,8,,,56,127
35423,note_off,0,0,0,,0,,,60,127
35424,note_on,1,0,0,,5,,,65,127
35424,note_on,0,0,0,,8,,,56,127
35424,note_on,0,0,0,,0,,,72,127
35424,note_on,0,0,0,,2,,,74,127
35559,note_off,135,0,0,,2,,,74,127
35559,note_off,0,0,0,,0,,,72,127
35560,note_on,1,0,0,,12,,,71,127
35695,note_off,135,0,0,,12,,,71,127
35696,note_on,1,0,0,,0,,,72,127
35831,note_off,135,0,0,,0,,,72,127
35831,note_off,0,0,0,,8,,,56,127
35831,note_off,0,0,0,,5,,,65,127
35832,note_on,1,0,0,,7,,,55,127
35832,note_on,0,0,0,,7,,,67,127
35832,note_on,0,0,0,,0,,,72,127
36102,note_off,270,0,0,,0,,,72,127
36103,note_on,1,0,0,,2,,,74,127
36238,note_off,135,0,0,,7,,,67,127
36238,note_off,0,0,0,,7,,,55,127
36239,note_on,1,0,0,,7,,,55,127
36239,note_on,0,0,0,,7,,,67,127
36374,note_off,135,0,0,,2,,,74,127
36375,note_on,1,0,0,,7,,,79,127
36510,note_off,135,0,0,,7,,,79,127
36511,note_on,1,0,0,,2,,,74,127
36646,note_off,135,0,0,,2,,,74,127
36646,note_off,0,0,0,,7,,,67,127
36646,note_off,0,0,0,,7,,,55,127
36647,note_on,1,0,0,,0,,,60,127
36647,note_on,0,0,0,,7,,,55,127
36647,note_on,0,0,0,,3,,,75,127
36782,note_off,135,0,0,,3,,,75,127
36783,note_on,1,0,0,,5,,,77,127
36918,note_off,135,0,0,,5,,,77,127
36918,note_off,0,0,0,,0,,,60,127
36919,note_on,1,0,0,,2,,,62,127
36919,note_on,0,0,0,,12,,,71,127
37054,note_off,135,0,0,,12,,,71,127
37054,note_off,0,0,0,,2,,,62,127
37054,note_off,0,0,0,,7,,,55,127
37055,note_on,1,0,0,,3,,,63,127
37055,note_on,0,0,0,,7,,,55,127
37055,note_on,0,0,0,,0,,,72,127
37190,note_off,135,0,0,,0,,,72,127
37191,note_on,1,0,0,,2,,,74,127
37326,note_off,135,0,0,,2,,,74,127
37326,note_off,0,0,0,,3,,,63,127
37327,note_on,1,0,0,,5,,,65,127
37327,note_on,0,0,0,,10,,,69,127
37462,note_off,135,0,0,,10,,,69,127
37462,note_off,0,0,0,,5,,,65,127
37462,note_off,0,0,0,,7,,,55,127
37463,note_on,1,0,0,,7,,,55,127
37463,note_on,0,0,0,,7,,,67,127
37463,note_on,0,0,0,,12,,,71,127
37598,note_off,135,0,0,,12,,,71,127
37599,note_on,1,0,0,,0,,,72,127
37734,note_off,135,0,0,,0,,,72,127
37735,note_on,1,0,0,,2,,,74,127
37870,note_off,135,0,0,,2,,,74,127
37871,note_on,1,0,0,,7,,,79,127
38006,note_off,135,0,0,,7,,,67,127
38006,note_off,0,0,0,,7,,,55,127
38007,note_on,1,0,0,,7,,,67,127
38142,note_off,135,0,0,,7,,,67,127
38143,note_on,1,0,0,,2,,,62,127
38278,note_off,135,0,0,,2,,,62,127
38279,note_on,1,0,0,,3,,,63,127
38414,note_off,135,0,0,,3,,,63,127
38415,note_on,1,0,0,,5,,,65,127
38550,note_off,135,0,0,,5,,,65,127
38551,note_on,1,0,0,,12,,,59,127
38686,note_off,135,0,0,,12,,,59,127
38686,note_off,0,0,0,,7,,,79,127
38687,note_on,1,0,0,,0,,,60,127
38687,note_on,0,0,0,,0,,,72,127
38687,note_on,0,0,0,,3,,,75,127
38822,note_off,135,0,0,,0,,,60,127
38823,note_on,1,0,0,,8,,,56,127
38823,note_on,0,0,0,,3,,,63,127
38958,note_off,135,0,0,,3,,,63,127
38959,note_on,1,0,0,,5,,,65,127
39094,note_off,135,0,0,,5,,,65,127
39094,note_off,0,0,0,,8,,,56,127
39095,note_on,1,0,0,,7,,,55,127
39095,note_on,0,0,0,,7,,,67,127
39230,note_off,135,0,0,,3,,,75,127
39230,note_off,0,0,0,,0,,,72,127
39231,note_on,1,0,0,,2,,,74,127
39366,note_off,135,0,0,,2,,,74,127
39367,note_on,1,0,0,,0,,,72,127
39502,note_off,135,0,0,,0,,,72,127
39503,note_on,1,0,0,,2,,,74,127
39638,note_off,135,0,0,,2,,,74,127
39639,note_on,1,0,0,,7,,,79,127
39662,note_off,23,0,0,,7,,,55,127
39774,note_off,112,0,0,,7,,,79,127
39774,note_off,0,0,0,,7,,,67,127
39775,note_on,1,0,0,,12,,,59,127
39775,note_on,0,0,0,,5,,,77,127
39910,note_off,135,0,0,,5,,,77,127
39910,note_off,0,0,0,,12,,,59,127
39911,note_on,1,0,0,,0,,,60,127
39911,note_on,0,0,0,,4,,,76,127
40046,note_off,135,0,0,,4,,,76,127
40047,note_on,1,0,0,,1,,,73,127
40182,note_off,135,0,0,,1,,,73,127
40183,note_on,1,0,0,,0,,,72,127
40318,note_off,135,0,0,,0,,,72,127
40318,note_off,0,0,0,,0,,,60,127
40319,note_on,1,0,0,,4,,,64,127
40319,note_on,0,0,0,,11,,,70,127
40454,note_off,135,0,0,,11,,,70,127
40455,note_on,1,0,0,,8,,,68,127
40590,note_off,135,0,0,,8,,,68,127
40591,note_on,1,0,0,,7,,,67,127
40726,note_off,135,0,0,,7,,,67,127
40726,note_off,0,0,0,,4,,,64,127
40727,note_on,1,0,0,,5,,,53,127
40727,note_on,0,0,0,,5,,,65,127
40727,note_on,0,0,0,,8,,,68,127
40862,note_off,135,0,0,,8,,,68,127
40863,note_on,1,0,0,,8,,,80,127
40998,note_off,135,0,0,,8,,,80,127
40999,note_on,1,0,0,,7,,,79,127
41134,note_off,135,0,0,,7,,,79,127
41135,note_on,1,0,0,,5,,,77,127
41270,note_off,135,0,0,,5,,,77,127
41271,note_on,1,0,0,,3,,,75,127
41406,note_off,135,0,0,,3,,,75,127
41406,note_off,0,0,0,,5,,,65,127
41406,note_off,0,0,0,,5,,,53,127
41407,note_on,1,0,0,,5,,,65,127
41407,note_on,0,0,0,,5,,,53,127
41407,note_on,0,0,0,,2,,,74,127
41542,note_off,135,0,0,,2,,,74,127
41542,note_off,0,0,0,,5,,,53,127
41542,note_off,0,0,0,,5,,,65,127
41543,note_on,1,0,0,,3,,,63,127
41543,note_on,0,0,0,,7,,,55,127
41543,note_on,0,0,0,,0,,,72,127
41678,note_off,135,0,0,,0,,,72,127
41679,note_on,1,0,0,,12,,,71,127
41814,note_off,135,0,0,,12,,,71,127
41815,note_on,1,0,0,,0,,,72,127
41950,note_off,135,0,0,,0,,,72,127
41950,note_off,0,0,0,,7,,,55,127
41950,note_off,0,0,0,,3,,,63,127
41951,note_on,1,0,0,,5,,,65,127
41951,note_on,0,0,0,,2,,,62,127
41951,note_on,0,0,0,,7,,,55,127
41951,note_on,0,0,0,,2,,,74,127
42086,note_off,135,0,0,,2,,,74,127
42087,note_on,1,0,0,,0,,,72,127
42222,note_off,135,0,0,,0,,,72,127
42223,note_on,1,0,0,,12,,,71,127
42358,note_off,135,0,0,,12,,,71,127
42358,note_off,0,0,0,,7,,,55,127
42358,note_off,0,0,0,,2,,,62,127
42358,note_off,0,0,0,,5,,,65,127
42359,note_on,1,0,0,,0,,,60,127
42359,note_on,0,0,0,,8,,,56,127
42359,note_on,0,0,0,,0,,,72,127
42494,note_off,135,0,0,,0,,,72,127
42495,note_on,1,0,0,,2,,,74,127
42630,note_off,135,0,0,,2,,,74,127
42631,note_on,1,0,0,,3,,,75,127
42766,note_off,135,0,0,,3,,,75,127
42766,note_off,0,0,0,,8,,,56,127
42766,note_off,0,0,0,,0,,,60,127
42767,note_on,1,0,0,,5,,,53,127
42767,note_on,0,0,0,,5,,,65,127
42767,note_on,0,0,0,,5,,,77,127
42902,note_off,135,0,0,,5,,,77,127
42903,note_on,1,0,0,,7,,,79,127
43038,note_off,135,0,0,,7,,,79,127
43039,note_on,1,0,0,,8,,,80,127
43174,note_off,135,0,0,,8,,,80,127
43174,note_off,0,0,0,,5,,,65,127
43174,note_off,0,0,0,,5,,,53,127
43175,note_on,1,0,0,,3,,,63,127
43175,note_on,0,0,0,,7,,,55,127
43175,note_on,0,0,0,,7,,,79,127
43310,note_off,135,0,0,,7,,,79,127
43311,note_on,1,0,0,,5,,,77,127
43446,note_off,135,0,0,,5,,,77,127
43447,note_on,1,0,0,,3,,,75,127
43582,note_off,135,0,0,,3,,,75,127
43582,note_off,0,0,0,,7,,,55,127
43582,note_off,0,0,0,,3,,,63,127
43583,note_on,1,0,0,,7,,,55,127
43583,note_on,0,0,0,,5,,,65,127
43583,note_on,0,0,0,,2,,,62,127
43583,note_on,0,0,0,,2,,,74,127
43718,note_off,135,0,0,,2,,,74,127
43719,note_on,1,0,0,,0,,,72,127
43854,note_off,135,0,0,,0,,,72,127
43855,note_on,1,0,0,,12,,,71,127
43990,note_off,135,0,0,,12,,,71,127
43990,note_off,0,0,0,,2,,,62,127
43990,note_off,0,0,0,,5,,,65,127
43990,note_off,0,0,0,,7,,,55,127
43991,note_on,1,0,0,,10,,,57,127
43991,note_on,0,0,0,,0,,,72,127
44059,note_on,68,0,0,,2,,,74,127
44072,note_off,13,0,0,,0,,,72,127
44126,note_on,54,0,0,,4,,,76,127
44139,note_off,13,0,0,,2,,,74,127
44193,note_on,54,0,0,,5,,,77,127
44206,note_off,13,0,0,,4,,,76,127
44260,note_off,54,0,0,,10,,,57,127
44261,note_on,1,0,0,,5,,,53,127
44261,note_on,0,0,0,,7,,,79,127
44274,note_off,13,0,0,,5,,,77,127
44328,note_on,54,0,0,,10,,,81,127
44341,note_off,13,0,0,,7,,,79,127
44395,note_off,54,0,0,,5,,,53,127
44396,note_on,1,0,0,,7,,,55,127
44396,note_on,0,0,0,,7,,,79,127
44409,note_off,13,0,0,,10,,,81,127
44463,note_on,54,0,0,,5,,,77,127
44476,note_off,13,0,0,,7,,,79,127
44530,note_on,54,0,0,,4,,,76,127
44543,note_off,13,0,0,,5,,,77,127
44597,note_on,54,0,0,,2,,,74,127
44610,note_off,13,0,0,,4,,,76,127
44664,note_off,54,0,0,,7,,,55,127
44665,note_on,1,0,0,,5,,,53,127
44665,note_on,0,0,0,,0,,,72,127
44678,note_off,13,0,0,,2,,,74,127
44732,note_on,54,0,0,,12,,,71,127
44745,note_off,13,0,0,,0,,,72,127
44799,note_off,54,0,0,,5,,,53,127
44800,note_on,1,0,0,,4,,,52,127
44800,note_on,0,0,0,,0,,,72,127
44813,note_off,13,0,0,,12,,,71,127
44867,note_on,54,0,0,,2,,,74,127
44880,note_off,13,0,0,,0,,,72,127
44934,note_on,54,0,0,,4,,,76,127
44947,note_off,13,0,0,,2,,,74,127
45001,note_on,54,0,0,,5,,,77,127
45014,note_off,13,0,0,,4,,,76,127
45068,note_off,54,0,0,,4,,,52,127
45069,note_on,1,0,0,,5,,,53,127
45069,note_on,0,0,0,,7,,,79,127
45082,note_off,13,0,0,,5,,,77,127
45136,note_on,54,0,0,,10,,,81,127
45149,note_off,13,0,0,,7,,,79,127
45203,note_off,54,0,0,,5,,,53,127
45204,note_on,1,0,0,,7,,,55,127
45204,note_on,0,0,0,,7,,,79,127
45217,note_off,13,0,0,,10,,,81,127
45271,note_on,54,0,0,,5,,,77,127
45284,note_off,13,0,0,,7,,,79,127
45338,note_on,54,0,0,,4,,,76,127
45351,note_off,13,0,0,,5,,,77,127
45405,note_on,54,0,0,,2,,,74,127
45418,note_off,13,0,0,,4,,,76,127
45472,note_off,54,0,0,,7,,,55,127
45473,note_on,1,0,0,,5,,,53,127
45473,note_on,0,0,0,,0,,,72,127
45486,note_off,13,0,0,,2,,,74,127
45540,note_on,54,0,0,,12,,,71,127
45553,note_off,13,0,0,,0,,,72,127
45607,note_off,54,0,0,,5,,,53,127
45608,note_on,1,0,0,,4,,,52,127
45608,note_on,0,0,0,,0,,,72,127
45621,note_off,13,0,0,,12,,,71,127
45675,note_on,54,0,0,,4,,,76,127
45688,note_off,13,0,0,,0,,,72,127
45742,note_on,54,0,0,,2,,,74,127
45755,note_off,13,0,0,,4,,,76,127
45809,note_on,54,0,0,,0,,,72,127
45822,note_off,13,0,0,,2,,,74,127
45876,note_off,54,0,0,,4,,,52,127
45877,note_on,1,0,0,,5,,,53,127
45877,note_on,0,0,0,,12,,,71,127
45890,note_off,13,0,0,,0,,,72,127
45944,note_on,54,0,0,,10,,,69,127
45957,note_off,13,0,0,,12,,,71,127
46011,note_off,54,0,0,,5,,,53,127
46012,note_on,1,0,0,,7,,,55,127
46012,note_on,0,0,0,,7,,,67,127
46025,note_off,13,0,0,,10,,,69,127
46079,note_on,54,0,0,,5,,,65,127
46092,note_off,13,0,0,,7,,,67,127
46146,note_on,54,0,0,,4,,,64,127
46159,note_off,13,0,0,,5,,,65,127
46213,note_on,54,0,0,,2,,,62,127
46226,note_off,13,0,0,,4,,,64,127
46280,note_off,54,0,0,,7,,,55,127
46281,note_on,1,0,0,,5,,,53,127
46281,note_on,0,0,0,,0,,,60,127
46294,note_off,13,0,0,,2,,,62,127
46348,note_on,54,0,0,,12,,,59,127
46361,note_off,13,0,0,,0,,,60,127
46415,note_off,54,0,0,,5,,,53,127
46416,note_on,1,0,0,,4,,,52,127
46416,note_on,0,0,0,,0,,,60,127
46429,note_off,13,0,0,,12,,,59,127
46483,note_on,54,0,0,,2,,,62,127
46496,note_off,13,0,0,,0,,,60,127
46550,note_on,54,0,0,,4,,,64,127
46563,note_off,13,0,0,,2,,,62,127
46617,note_on,54,0,0,,5,,,65,127
46630,note_off,13,0,0,,4,,,64,127
46684,note_off,54,0,0,,4,,,52,127
46685,note_on,1,0,0,,5,,,53,127
46685,note_on,0,0,0,,7,,,67,127
46698,note_off,13,0,0,,5,,,65,127
46752,note_on,54,0,0,,10,,,69,127
46765,note_off,13,0,0,,7,,,67,127
46819,note_off,54,0,0,,5,,,53,127
46820,note_on,1,0,0,,7,,,55,127
46820,note_on,0,0,0,,7,,,67,127
46833,note_off,13,0,0,,10,,,69,127
46887,note_on,54,0,0,,5,,,65,127
46900,note_off,13,0,0,,7,,,67,127
46954,note_on,54,0,0,,4,,,64,127
46967,note_off,13,0,0,,5,,,65,127
47021,note_on,54,0,0,,2,,,62,127
47034,note_off,13,0,0,,4,,,64,127
47088,note_off,54,0,0,,7,,,55,127
47089,note_on,1,0,0,,5,,,53,127
47089,note_on,0,0,0,,0,,,60,127
47102,note_off,13,0,0,,2,,,62,127
47156,note_on,54,0,0,,12,,,59,127
47169,note_off,13,0,0,,0,,,60,127
47223,note_off,54,0,0,,5,,,53,127
47224,note_on,1,0,0,,4,,,52,127
47224,note_on,0,0,0,,0,,,60,127
47237,note_off,13,0,0,,12,,,59,127
47291,note_on,54,0,0,,2,,,62,127
47304,note_off,13,0,0,,0,,,60,127
47358,note_on,54,0,0,,4,,,64,127
47371,note_off,13,0,0,,2,,,62,127
47425,note_on,54,0,0,,5,,,65,127
47438,note_off,13,0,0,,4,,,64,127
47492,note_off,54,0,0,,4,,,52,127
47493,note_on,1,0,0,,5,,,53,127
47493,note_on,0,0,0,,7,,,67,127
47506,note_off,13,0,0,,5,,,65,127
47560,note_on,54,0,0,,10,,,69,127
47573,note_off,13,0,0,,7,,,67,127
47627,note_off,54,0,0,,5,,,53,127
47628,note_on,1,0,0,,7,,,55,127
47628,note_on,0,0,0,,7,,,67,127
47641,note_off,13,0,0,,10,,,69,127
47695,note_on,54,0,0,,5,,,65,127
47708,note_off,13,0,0,,7,,,67,127
47762,note_on,54,0,0,,4,,,64,127
47775,note_off,13,0,0,,5,,,65,127
47829,note_on,54,0,0,,2,,,62,127
47842,note_off,13,0,0,,4,,,64,127
47896,note_off,54,0,0,,7,,,55,127
47897,note_on,1,0,0,,5,,,53,127
47897,note_on,0,0,0,,0,,,60,127
47910,note_off,13,0,0,,2,,,62,127
47964,note_on,54,0,0,,12,,,59,127
47977,note_off,13,0,0,,0,,,60,127
48031,note_off,54,0,0,,5,,,53,127
48032,note_on,1,0,0,,4,,,52,127
48032,note_on,0,0,0,,0,,,60,127
48045,note_off,13,0,0,,12,,,59,127
48089,note_on,44,0,0,,2,,,62,127
48112,note_off,23,0,0,,0,,,60,127
48147,note_on,35,0,0,,4,,,64,127
48170,note_off,23,0,0,,2,,,62,127
48205,note_on,35,0,0,,5,,,65,127
48228,note_off,23,0,0,,4,,,64,127
48263,note_on,35,0,0,,7,,,67,127
48286,note_off,23,0,0,,5,,,65,127
48302,note_off,16,0,0,,4,,,52,127
48303,note_on,1,0,0,,5,,,53,127
48322,note_on,19,0,0,,10,,,69,127
48345,note_off,23,0,0,,7,,,67,127
48380,note_on,35,0,0,,12,,,71,127
48403,note_off,23,0,0,,10,,,69,127
48438,note_off,35,0,0,,5,,,53,127
48439,note_on,1,0,0,,7,,,55,127
48439,note_on,0,0,0,,0,,,72,127
48462,note_off,23,0,0,,12,,,71,127
48507,note_on,45,0,0,,2,,,74,127
48520,note_off,13,0,0,,0,,,72,127
48574,note_on,54,0,0,,4,,,76,127
48587,note_off,13,0,0,,2,,,74,127
48641,note_on,54,0,0,,2,,,74,127
48654,note_off,13,0,0,,4,,,76,127
48708,note_off,54,0,0,,7,,,55,127
48709,note_on,1,0,0,,7,,,43,127
48709,note_on,0,0,0,,0,,,72,127
48722,note_off,13,0,0,,2,,,74,127
48776,note_on,54,0,0,,12,,,71,127
48789,note_off,13,0,0,,0,,,72,127
48843,note_off,54,0,0,,7,,,43,127
48844,note_on,1,0,0,,0,,,48,127
48844,note_on,0,0,0,,0,,,72,127
48857,note_off,13,0,0,,12,,,71,127
49656,note_off,799,0,0,,0,,,72,127
49656,note_off,0,0,0,,0,,,48,127
49657,note_on,1,0,0,,0,,,48,127
49657,note_on,0,0,0,,0,,,72,127
49792,note_off,135,0,0,,0,,,72,127
49793,note_on,1,0,0,,7,,,79,127
49928,note_off,135,0,0,,7,,,79,127
49929,note_on,1,0,0,,5,,,77,127
50064,note_off,135,0,0,,5,,,77,127
50065,note_on,1,0,0,,4,,,76,127
50200,note_off,135,0,0,,4,,,76,127
50201,note_on,1,0,0,,2,,,74,127
50336,note_off,135,0,0,,2,,,74,127
50337,note_on,1,0,0,,0,,,72,127
50472,note_off,135,0,0,,0,,,72,127
50472,note_off,0,0,0,,0,,,48,127
50473,note_on,1,0,0,,4,,,64,127
50473,note_on,0,0,0,,0,,,60,127
50473,note_on,0,0,0,,11,,,70,127
50608,note_off,135,0,0,,11,,,70,127
50609,note_on,1,0,0,,2,,,74,127
50744,note_off,135,0,0,,2,,,74,127
50745,note_on,1,0,0,,0,,,72,127
50880,note_off,135,0,0,,0,,,72,127
50880,note_off,0,0,0,,0,,,60,127
50880,note_off,0,0,0,,4,,,64,127
50881,note_on,1,0,0,,0,,,60,127
50881,note_on,0,0,0,,4,,,64,127
50881,note_on,0,0,0,,11,,,70,127
51016,note_off,135,0,0,,11,,,70,127
51017,note_on,1,0,0,,10,,,69,127
51152,note_off,135,0,0,,10,,,69,127
51153,note_on,1,0,0,,7,,,67,127
51288,note_off,135,0,0,,7,,,67,127
51288,note_off,0,0,0,,4,,,64,127
51288,note_off,0,0,0,,0,,,60,127
51289,note_on,1,0,0,,5,,,65,127
51289,note_on,0,0,0,,0,,,60,127
51289,note_on,0,0,0,,10,,,69,127
51424,note_off,135,0,0,,10,,,69,127
51425,note_on,1,0,0,,2,,,74,127
51560,note_off,135,0,0,,2,,,74,127
51561,note_on,1,0,0,,0,,,72,127
51696,note_off,135,0,0,,0,,,72,127
51696,note_off,0,0,0,,0,,,60,127
51696,note_off,0,0,0,,5,,,65,127
51697,note_on,1,0,0,,4,,,64,127
51697,note_on,0,0,0,,0,,,60,127
51697,note_on,0,0,0,,11,,,70,127
51832,note_off,135,0,0,,11,,,70,127
51833,note_on,1,0,0,,10,,,69,127
51968,note_off,135,0,0,,10,,,69,127
51969,note_on,1,0,0,,7,,,67,127
52104,note_off,135,0,0,,7,,,67,127
52104,note_off,0,0,0,,0,,,60,127
52104,note_off,0,0,0,,4,,,64,127
52105,note_on,1,0,0,,5,,,65,127
52105,note_on,0,0,0,,0,,,60,127
52105,note_on,0,0,0,,10,,,69,127
52240,note_off,135,0,0,,10,,,69,127
52241,note_on,1,0,0,,2,,,74,127
52376,note_off,135,0,0,,2,,,74,127
52377,note_on,1,0,0,,0,,,72,127
52512,note_off,135,0,0,,0,,,72,127
52512,note_off,0,0,0,,0,,,60,127
52512,note_off,0,0,0,,5,,,65,127
52513,note_on,1,0,0,,0,,,60,127
52513,note_on,0,0,0,,4,,,64,127
52513,note_on,0,0,0,,11,,,70,127
52648,note_off,135,0,0,,11,,,70,127
52649,note_on,1,0,0,,10,,,69,127
52784,note_off,135,0,0,,10,,,69,127
52785,note_on,1,0,0,,7,,,67,127
52920,note_off,135,0,0,,7,,,67,127
52920,note_off,0,0,0,,4,,,64,127
52920,note_off,0,0,0,,0,,,60,127
52921,note_on,1,0,0,,5,,,65,127
52921,note_on,0,0,0,,0,,,60,127
52921,note_on,0,0,0,,10,,,69,127
53057,note_on,136,0,0,,10,,,81,127
53190,note_off,133,0,0,,10,,,69,127
53192,note_off,2,0,0,,10,,,81,127
53193,note_on,1,0,0,,7,,,79,127
53328,note_off,135,0,0,,7,,,79,127
53328,note_off,0,0,0,,0,,,60,127
53328,note_off,0,0,0,,5,,,65,127
53329,note_on,1,0,0,,0,,,60,127
53329,note_on,0,0,0,,5,,,65,127
53329,note_on,0,0,0,,5,,,77,127
53464,note_off,135,0,0,,5,,,77,127
53465,note_on,1,0,0,,4,,,76,127
53600,note_off,135,0,0,,4,,,76,127
53601,note_on,1,0,0,,2,,,74,127
53736,note_off,135,0,0,,2,,,74,127
53736,note_off,0,0,0,,5,,,65,127
53736,note_off,0,0,0,,0,,,60,127
53737,note_on,1,0,0,,4,,,64,127
53737,note_on,0,0,0,,11,,,58,127
53737,note_on,0,0,0,,7,,,67,127
53737,note_on,0,0,0,,1,,,73,127
53873,note_on,136,0,0,,4,,,76,127
53941,note_off,68,0,0,,1,,,73,127
54009,note_on,68,0,0,,2,,,74,127
54077,note_off,68,0,0,,4,,,76,127
54144,note_off,67,0,0,,7,,,67,127
54144,note_off,0,0,0,,11,,,58,127
54144,note_off,0,0,0,,4,,,64,127
54145,note_on,1,0,0,,11,,,58,127
54145,note_on,0,0,0,,7,,,67,127
54145,note_on,0,0,0,,4,,,64,127
54145,note_on,0,0,0,,1,,,73,127
54213,note_off,68,0,0,,2,,,74,127
54281,note_on,68,0,0,,4,,,76,127
54349,note_off,68,0,0,,1,,,73,127
54417,note_on,68,0,0,,2,,,74,127
54485,note_off,68,0,0,,4,,,76,127
54552,note_off,67,0,0,,4,,,64,127
54552,note_off,0,0,0,,7,,,67,127
54552,note_off,0,0,0,,11,,,58,127
54553,note_on,1,0,0,,11,,,58,127
54553,note_on,0,0,0,,7,,,67,127
54553,note_on,0,0,0,,4,,,64,127
54553,note_on,0,0,0,,1,,,73,127
54621,note_off,68,0,0,,2,,,74,127
54689,note_on,68,0,0,,4,,,76,127
54757,note_off,68,0,0,,1,,,73,127
54825,note_on,68,0,0,,2,,,74,127
54893,note_off,68,0,0,,4,,,76,127
54960,note_off,67,0,0,,4,,,64,127
54960,note_off,0,0,0,,7,,,67,127
54960,note_off,0,0,0,,11,,,58,127
54961,note_on,1,0,0,,4,,,64,127
54961,note_on,0,0,0,,11,,,58,127
54961,note_on,0,0,0,,7,,,67,127
54961,note_on,0,0,0,,1,,,73,127
55029,note_off,68,0,0,,2,,,74,127
55097,note_on,68,0,0,,4,,,76,127
55165,note_off,68,0,0,,1,,,73,127
55233,note_on,68,0,0,,2,,,74,127
55301,note_off,68,0,0,,4,,,76,127
55368,note_off,67,0,0,,7,,,67,127
55368,note_off,0,0,0,,11,,,58,127
55368,note_off,0,0,0,,4,,,64,127
55369,note_on,1,0,0,,10,,,57,127
55369,note_on,0,0,0,,4,,,64,127
55369,note_on,0,0,0,,7,,,67,127
55369,note_on,0,0,0,,1,,,73,127
55437,note_off,68,0,0,,2,,,74,127
55505,note_on,68,0,0,,4,,,76,127
55573,note_off,68,0,0,,1,,,73,127
55641,note_on,68,0,0,,2,,,74,127
55709,note_off,68,0,0,,4,,,76,127
55776,note_off,67,0,0,,7,,,67,127
55776,note_off,0,0,0,,4,,,64,127
55776,note_off,0,0,0,,10,,,57,127
55777,note_on,1,0,0,,4,,,64,127
55777,note_on,0,0,0,,10,,,57,127
55777,note_on,0,0,0,,7,,,67,127
55777,note_on,0,0,0,,1,,,73,127
55845,note_off,68,0,0,,2,,,74,127
55913,note_on,68,0,0,,4,,,76,127
55981,note_off,68,0,0,,1,,,73,127
56049,note_on,68,0,0,,2,,,74,127
56117,note_off,68,0,0,,4,,,76,127
56184,note_off,67,0,0,,7,,,67,127
56184,note_off,0,0,0,,10,,,57,127
56184,note_off,0,0,0,,4,,,64,127
56185,note_on,1,0,0,,10,,,57,127
56185,note_on,0,0,0,,4,,,64,127
56185,note_on,0,0,0,,7,,,67,127
56185,note_on,0,0,0,,1,,,73,127
56253,note_off,68,0,0,,2,,,74,127
56321,note_on,68,0,0,,4,,,76,127
56389,note_off,68,0,0,,1,,,73,127
56457,note_on,68,0,0,,2,,,74,127
56525,note_off,68,0,0,,4,,,76,127
56592,note_off,67,0,0,,7,,,67,127
56592,note_off,0,0,0,,4,,,64,127
56592,note_off,0,0,0,,10,,,57,127
56593,note_on,1,0,0,,10,,,57,127
56593,note_on,0,0,0,,4,,,64,127
56593,note_on,0,0,0,,7,,,67,127
56593,note_on,0,0,0,,1,,,73,127
56661,note_off,68,0,0,,2,,,74,127
56729,note_on,68,0,0,,4,,,76,127
56797,note_off,68,0,0,,1,,,73,127
56865,note_on,68,0,0,,2,,,74,127
56933,note_off,68,0,0,,4,,,76,127
57000,note_off,67,0,0,,7,,,67,127
57000,note_off,0,0,0,,4,,,64,127
57000,note_off,0,0,0,,10,,,57,127
57001,note_on,1,0,0,,7,,,55,127
57001,note_on,0,0,0,,4,,,64,127
57001,note_on,0,0,0,,1,,,73,127
57069,note_off,68,0,0,,2,,,74,127
57137,note_on,68,0,0,,4,,,76,127
57205,note_off,68,0,0,,1,,,73,127
57273,note_on,68,0,0,,2,,,74,127
57341,note_off,68,0,0,,4,,,76,127
57408,note_off,67,0,0,,4,,,64,127
57408,note_off,0,0,0,,7,,,55,127
57409,note_on,1,0,0,,2,,,62,127
57409,note_on,0,0,0,,7,,,55,127
57409,note_on,0,0,0,,1,,,73,127
57477,note_off,68,0,0,,2,,,74,127
57545,note_on,68,0,0,,4,,,76,127
57613,note_off,68,0,0,,1,,,73,127
57681,note_on,68,0,0,,2,,,74,127
57749,note_off,68,0,0,,4,,,76,127
57816,note_off,67,0,0,,7,,,55,127
57816,note_off,0,0,0,,2,,,62,127
57817,note_on,1,0,0,,7,,,55,127
57817,note_on,0,0,0,,4,,,64,127
57817,note_on,0,0,0,,1,,,61,127
57817,note_on,0,0,0,,1,,,73,127
57885,note_off,68,0,0,,2,,,74,127
57953,note_on,68,0,0,,4,,,76,127
58021,note_off,68,0,0,,1,,,73,127
58089,note_on,68,0,0,,2,,,74,127
58157,note_off,68,0,0,,4,,,76,127
58224,note_off,67,0,0,,1,,,61,127
58224,note_off,0,0,0,,4,,,64,127
58224,note_off,0,0,0,,7,,,55,127
58225,note_on,1,0,0,,4,,,64,127
58225,note_on,0,0,0,,12,,,59,127
58225,note_on,0,0,0,,7,,,55,127
58225,note_on,0,0,0,,1,,,73,127
58293,note_off,68,0,0,,2,,,74,127
58361,note_on,68,0,0,,11,,,70,127
58429,note_off,68,0,0,,1,,,73,127
58497,note_on,68,0,0,,12,,,71,127
58565,note_off,68,0,0,,11,,,70,127
58632,note_off,67,0,0,,7,,,55,127
58632,note_off,0,0,0,,12,,,59,127
58632,note_off,0,0,0,,4,,,64,127
58633,note_on,1,0,0,,6,,,54,127
58633,note_on,0,0,0,,4,,,64,127
58633,note_on,0,0,0,,1,,,61,127
58633,note_on,0,0,0,,1,,,73,127
58701,note_off,68,0,0,,12,,,71,127
58769,note_on,68,0,0,,4,,,76,127
58837,note_off,68,0,0,,1,,,73,127
58905,note_on,68,0,0,,2,,,74,127
58973,note_off,68,0,0,,4,,,76,127
59040,note_off,67,0,0,,1,,,61,127
59040,note_off,0,0,0,,4,,,64,127
59040,note_off,0,0,0,,6,,,54,127
59041,note_on,1,0,0,,1,,,61,127
59041,note_on,0,0,0,,6,,,54,127
59041,note_on,0,0,0,,4,,,64,127
59041,note_on,0,0,0,,1,,,73,127
59109,note_off,68,0,0,,2,,,74,127
59177,note_on,68,0,0,,4,,,76,127
59245,note_off,68,0,0,,1,,,73,127
59313,note_on,68,0,0,,2,,,74,127
59381,note_off,68,0,0,,4,,,76,127
59448,note_off,67,0,0,,4,,,64,127
59448,note_off,0,0,0,,6,,,54,127
59448,note_off,0,0,0,,1,,,61,127
59449,note_on,1,0,0,,6,,,54,127
59449,note_on,0,0,0,,1,,,61,127
59449,note_on,0,0,0,,4,,,64,127
59449,note_on,0,0,0,,1,,,73,127
59517,note_off,68,0,0,,2,,,74,127
59585,note_on,68,0,0,,4,,,76,127
59653,note_off,68,0,0,,1,,,73,127
59721,note_on,68,0,0,,2,,,74,127
59789,note_off,68,0,0,,4,,,76,127
59856,note_off,67,0,0,,4,,,64,127
59856,note_off,0,0,0,,1,,,61,127
59856,note_off,0,0,0,,6,,,54,127
59857,note_on,1,0,0,,6,,,54,127
59857,note_on,0,0,0,,4,,,64,127
59857,note_on,0,0,0,,1,,,61,127
59857,note_on,0,0,0,,1,,,73,127
59925,note_off,68,0,0,,2,,,74,127
59993,note_on,68,0,0,,11,,,70,127
60061,note_off,68,0,0,,1,,,73,127
60129,note_on,68,0,0,,12,,,71,127
60197,note_off,68,0,0,,11,,,70,127
60264,note_off,67,0,0,,1,,,61,127
60264,note_off,0,0,0,,4,,,64,127
60264,note_off,0,0,0,,6,,,54,127
60265,note_on,1,0,0,,4,,,52,127
60265,note_on,0,0,0,,1,,,61,127
60265,note_on,0,0,0,,1,,,73,127
60333,note_off,68,0,0,,12,,,71,127
60401,note_on,68,0,0,,4,,,76,127
60469,note_off,68,0,0,,1,,,73,127
60537,note_on,68,0,0,,3,,,75,127
60605,note_off,68,0,0,,4,,,76,127
60672,note_off,67,0,0,,1,,,61,127
60672,note_off,0,0,0,,4,,,52,127
60673,note_on,1,0,0,,4,,,52,127
60673,note_on,0,0,0,,12,,,59,127
60673,note_on,0,0,0,,1,,,73,127
60741,note_off,68,0,0,,3,,,75,127
60809,note_on,68,0,0,,4,,,76,127
60877,note_off,68,0,0,,1,,,73,127
60945,note_on,68,0,0,,3,,,75,127
61013,note_off,68,0,0,,4,,,76,127
61080,note_off,67,0,0,,12,,,59,127
61080,note_off,0,0,0,,4,,,52,127
61081,note_on,1,0,0,,11,,,58,127
61081,note_on,0,0,0,,4,,,52,127
61081,note_on,0,0,0,,1,,,61,127
61081,note_on,0,0,0,,1,,,73,127
61149,note_off,68,0,0,,3,,,75,127
61217,note_on,68,0,0,,4,,,76,127
61285,note_off,68,0,0,,1,,,73,127
61353,note_on,68,0,0,,3,,,75,127
61421,note_off,68,0,0,,4,,,76,127
61488,note_off,67,0,0,,1,,,61,127
61488,note_off,0,0,0,,4,,,52,127
61488,note_off,0,0,0,,11,,,58,127
61489,note_on,1,0,0,,1,,,61,127
61489,note_on,0,0,0,,8,,,56,127
61489,note_on,0,0,0,,4,,,52,127
61489,note_on,0,0,0,,1,,,73,127
61557,note_off,68,0,0,,3,,,75,127
61625,note_on,68,0,0,,4,,,76,127
61693,note_off,68,0,0,,1,,,73,127
61761,note_on,68,0,0,,3,,,75,127
61829,note_off,68,0,0,,4,,,76,127
61896,note_off,67,0,0,,4,,,52,127
61896,note_off,0,0,0,,8,,,56,127
61896,note_off,0,0,0,,1,,,61,127
61897,note_on,1,0,0,,11,,,58,127
61897,note_on,0,0,0,,3,,,51,127
61897,note_on,0,0,0,,1,,,61,127
61897,note_on,0,0,0,,1,,,73,127
61965,note_off,68,0,0,,3,,,75,127
62033,note_on,68,0,0,,11,,,82,127
62101,note_off,68,0,0,,1,,,73,127
62169,note_on,68,0,0,,8,,,80,127
62237,note_off,68,0,0,,11,,,82,127
62304,note_off,67,0,0,,1,,,61,127
62304,note_off,0,0,0,,3,,,51,127
62304,note_off,0,0,0,,11,,,58,127
62305,note_on,1,0,0,,11,,,58,127
62305,note_on,0,0,0,,3,,,51,127
62305,note_on,0,0,0,,1,,,61,127
62305,note_on,0,0,0,,7,,,79,127
62373,note_off,68,0,0,,8,,,80,127
62441,note_on,68,0,0,,11,,,82,127
62509,note_off,68,0,0,,7,,,79,127
62577,note_on,68,0,0,,8,,,80,127
62645,note_off,68,0,0,,11,,,82,127
62712,note_off,67,0,0,,1,,,61,127
62712,note_off,0,0,0,,3,,,51,127
62712,note_off,0,0,0,,11,,,58,127
62713,note_on,1,0,0,,3,,,51,127
62713,note_on,0,0,0,,11,,,58,127
62713,note_on,0,0,0,,1,,,61,127
62713,note_on,0,0,0,,7,,,79,127
62781,note_off,68,0,0,,8,,,80,127
62849,note_on,68,0,0,,11,,,82,127
62917,note_off,68,0,0,,7,,,79,127
62985,note_on,68,0,0,,8,,,80,127
63053,note_off,68,0,0,,11,,,82,127
63120,note_off,67,0,0,,1,,,61,127
63120,note_off,0,0,0,,11,,,58,127
63120,note_off,0,0,0,,3,,,51,127
63121,note_on,1,0,0,,11,,,58,127
63121,note_on,0,0,0,,3,,,51,127
63121,note_on,0,0,0,,1,,,61,127
63121,note_on,0,0,0,,7,,,79,127
63189,note_off,68,0,0,,8,,,80,127
63257,note_on,68,0,0,,11,,,82,127
63325,note_off,68,0,0,,7,,,79,127
63393,note_on,68,0,0,,8,,,80,127
63461,note_off,68,0,0,,11,,,82,127
63528,note_off,67,0,0,,1,,,61,127
63528,note_off,0,0,0,,3,,,51,127
63528,note_off,0,0,0,,11,,,58,127
63529,note_on,1,0,0,,1,,,49,127
63529,note_on,0,0,0,,11,,,58,127
63529,note_on,0,0,0,,7,,,79,127
63597,note_off,68,0,0,,8,,,80,127
63665,note_on,68,0,0,,11,,,82,127
63733,note_off,68,0,0,,7,,,79,127
63801,note_on,68,0,0,,8,,,80,127
63869,note_off,68,0,0,,11,,,82,127
63936,note_off,67,0,0,,11,,,58,127
63936,note_off,0,0,0,,1,,,49,127
63937,note_on,1,0,0,,8,,,56,127
63937,note_on,0,0,0,,1,,,49,127
63937,note_on,0,0,0,,7,,,79,127
64005,note_off,68,0,0,,8,,,80,127
64073,note_on,68,0,0,,11,,,82,127
64141,note_off,68,0,0,,7,,,79,127
64209,note_on,68,0,0,,8,,,80,127
64277,note_off,68,0,0,,11,,,82,127
64344,note_off,67,0,0,,1,,,49,127
64344,note_off,0,0,0,,8,,,56,127
64345,note_on,1,0,0,,7,,,55,127
64345,note_on,0,0,0,,11,,,58,127
64345,note_on,0,0,0,,1,,,49,127
64345,note_on,0,0,0,,7,,,79,127
64413,note_off,68,0,0,,8,,,80,127
64481,note_on,68,0,0,,11,,,82,127
64549,note_off,68,0,0,,7,,,79,127
64617,note_on,68,0,0,,8,,,80,127
64685,note_off,68,0,0,,11,,,82,127
64752,note_off,67,0,0,,1,,,49,127
64752,note_off,0,0,0,,11,,,58,127
64752,note_off,0,0,0,,7,,,55,127
64753,note_on,1,0,0,,1,,,49,127
64753,note_on,0,0,0,,11,,,58,127
64753,note_on,0,0,0,,7,,,55,127
64753,note_on,0,0,0,,5,,,53,127
64753,note_on,0,0,0,,7,,,79,127
64821,note_off,68,0,0,,8,,,80,127
64889,note_on,68,0,0,,4,,,76,127
64957,note_off,68,0,0,,7,,,79,127
65025,note_on,68,0,0,,5,,,77,127
65093,note_off,68,0,0,,4,,,76,127
65160,note_off,67,0,0,,5,,,53,127
65160,note_off,0,0,0,,7,,,55,127
65160,note_off,0,0,0,,11,,,58,127
65160,note_off,0,0,0,,1,,,49,127
65161,note_on,1,0,0,,0,,,48,127
65161,note_on,0,0,0,,11,,,58,127
65161,note_on,0,0,0,,7,,,55,127
65161,note_on,0,0,0,,7,,,79,127
65229,note_off,68,0,0,,5,,,77,127
65296,note_off,67,0,0,,7,,,79,127
65297,note_on,1,0,0,,4,,,76,127
65432,note_off,135,0,0,,4,,,76,127
65433,note_on,1,0,0,,1,,,73,127
65568,note_off,135,0,0,,1,,,73,127
65568,note_off,0,0,0,,7,,,55,127
65568,note_off,0,0,0,,11,,,58,127
65568,note_off,0,0,0,,0,,,48,127
65569,note_on,1,0,0,,0,,,48,127
65569,note_on,0,0,0,,11,,,58,127
65569,note_on,0,0,0,,7,,,55,127
65569,note_on,0,0,0,,11,,,70,127
65704,note_off,135,0,0,,11,,,70,127
65705,note_on,1,0,0,,7,,,67,127
65840,note_off,135,0,0,,7,,,67,127
65841,note_on,1,0,0,,4,,,64,127
65976,note_off,135,0,0,,4,,,64,127
65976,note_off,0,0,0,,7,,,55,127
65976,note_off,0,0,0,,11,,,58,127
65976,note_off,0,0,0,,0,,,48,127
65977,note_on,1,0,0,,8,,,56,127
65977,note_on,0,0,0,,0,,,48,127
65977,note_on,0,0,0,,0,,,72,127
66112,note_off,135,0,0,,0,,,72,127
66113,note_on,1,0,0,,11,,,70,127
66248,note_off,135,0,0,,11,,,70,127
66249,note_on,1,0,0,,8,,,68,127
66384,note_off,135,0,0,,8,,,68,127
66384,note_off,0,0,0,,0,,,48,127
66384,note_off,0,0,0,,8,,,56,127
66385,note_on,1,0,0,,11,,,58,127
66385,note_on,0,0,0,,0,,,48,127
66385,note_on,0,0,0,,7,,,67,127
66520,note_off,135,0,0,,7,,,67,127
66521,note_on,1,0,0,,1,,,73,127
66656,note_off,135,0,0,,1,,,73,127
66657,note_on,1,0,0,,5,,,65,127
66792,note_off,135,0,0,,5,,,65,127
66792,note_off,0,0,0,,0,,,48,127
66792,note_off,0,0,0,,11,,,58,127
66793,note_on,1,0,0,,0,,,48,127
66793,note_on,0,0,0,,0,,,60,127
66793,note_on,0,0,0,,5,,,65,127
67063,note_off,270,0,0,,5,,,65,127
67064,note_on,1,0,0,,4,,,64,127
67199,note_off,135,0,0,,0,,,60,127
67199,note_off,0,0,0,,0,,,48,127
67200,note_on,1,0,0,,0,,,60,127
67200,note_on,0,0,0,,0,,,48,127
67335,note_off,135,0,0,,4,,,64,127
67336,note_on,1,0,0,,0,,,72,127
67471,note_off,135,0,0,,0,,,72,127
67472,note_on,1,0,0,,7,,,67,127
67607,note_off,135,0,0,,7,,,67,127
67607,note_off,0,0,0,,0,,,48,127
67607,note_off,0,0,0,,0,,,60,127
67608,note_on,1,0,0,,0,,,48,127
67608,note_on,0,0,0,,5,,,53,127
67608,note_on,0,0,0,,8,,,68,127
67743,note_off,135,0,0,,8,,,68,127
67744,note_on,1,0,0,,11,,,70,127
67879,note_off,135,0,0,,11,,,70,127
67879,note_off,0,0,0,,5,,,53,127
67880,note_on,1,0,0,,7,,,55,127
67880,note_on,0,0,0,,4,,,64,127
68015,note_off,135,0,0,,4,,,64,127
68015,note_off,0,0,0,,7,,,55,127
68015,note_off,0,0,0,,0,,,48,127
68016,note_on,1,0,0,,8,,,56,127
68016,note_on,0,0,0,,0,,,48,127
68016,note_on,0,0,0,,5,,,65,127
68151,note_off,135,0,0,,5,,,65,127
68152,note_on,1,0,0,,7,,,67,127
68287,note_off,135,0,0,,7,,,67,127
68287,note_off,0,0,0,,8,,,56,127
68288,note_on,1,0,0,,11,,,58,127
68288,note_on,0,0,0,,2,,,62,127
68423,note_off,135,0,0,,2,,,62,127
68423,note_off,0,0,0,,11,,,58,127
68423,note_off,0,0,0,,0,,,48,127
68424,note_on,1,0,0,,0,,,48,127
68424,note_on,0,0,0,,0,,,60,127
68424,note_on,0,0,0,,4,,,64,127
68559,note_off,135,0,0,,4,,,64,127
68560,note_on,1,0,0,,5,,,65,127
68695,note_off,135,0,0,,5,,,65,127
68696,note_on,1,0,0,,7,,,67,127
68831,note_off,135,0,0,,7,,,67,127
68832,note_on,1,0,0,,0,,,72,127
68967,note_off,135,0,0,,0,,,60,127
68967,note_off,0,0,0,,0,,,48,127
68968,note_on,1,0,0,,0,,,60,127
69103,note_off,135,0,0,,0,,,60,127
69104,note_on,1,0,0,,7,,,55,127
69239,note_off,135,0,0,,7,,,55,127
69240,note_on,1,0,0,,8,,,56,127
69375,note_off,135,0,0,,8,,,56,127
69376,note_on,1,0,0,,11,,,58,127
69511,note_off,135,0,0,,11,,,58,127
69512,note_on,1,0,0,,4,,,52,127
69647,note_off,135,0,0,,4,,,52,127
69647,note_off,0,0,0,,0,,,72,127
69648,note_on,1,0,0,,5,,,53,127
69648,note_on,0,0,0,,5,,,65,127
69648,note_on,0,0,0,,8,,,68,127
69783,note_off,135,0,0,,5,,,53,127
69784,note_on,1,0,0,,1,,,49,127
69784,note_on,0,0,0,,8,,,56,127
69919,note_off,135,0,0,,8,,,56,127
69920,note_on,1,0,0,,11,,,58,127
70055,note_off,135,0,0,,11,,,58,127
70055,note_off,0,0,0,,1,,,49,127
70056,note_on,1,0,0,,0,,,48,127
70056,note_on,0,0,0,,0,,,60,127
70191,note_off,135,0,0,,8,,,68,127
70191,note_off,0,0,0,,5,,,65,127
70192,note_on,1,0,0,,7,,,67,127
70327,note_off,135,0,0,,7,,,67,127
70328,note_on,1,0,0,,5,,,65,127
70463,note_off,135,0,0,,5,,,65,127
70463,note_off,0,0,0,,0,,,60,127
70463,note_off,0,0,0,,0,,,48,127
70464,note_on,1,0,0,,0,,,48,127
70464,note_on,0,0,0,,0,,,60,127
70464,note_on,0,0,0,,7,,,67,127
70599,note_off,135,0,0,,7,,,67,127
70600,note_on,1,0,0,,0,,,72,127
70735,note_off,135,0,0,,0,,,72,127
70736,note_on,1,0,0,,11,,,70,127
70871,note_off,135,0,0,,11,,,70,127
70871,note_off,0,0,0,,0,,,60,127
70871,note_off,0,0,0,,0,,,48,127
70872,note_on,1,0,0,,5,,,53,127
70872,note_on,0,0,0,,10,,,69,127
71007,note_off,135,0,0,,10,,,69,127
71008,note_on,1,0,0,,6,,,78,127
71143,note_off,135,0,0,,6,,,78,127
71144,note_on,1,0,0,,5,,,77,127
71279,note_off,135,0,0,,5,,,77,127
71279,note_off,0,0,0,,5,,,53,127
71280,note_on,1,0,0,,10,,,57,127
71280,note_on,0,0,0,,3,,,75,127
71415,note_off,135,0,0,,3,,,75,127
71416,note_on,1,0,0,,1,,,73,127
71551,note_off,135,0,0,,1,,,73,127
71552,note_on,1,0,0,,0,,,72,127
71687,note_off,135,0,0,,0,,,72,127
71687,note_off,0,0,0,,10,,,57,127
71688,note_on,1,0,0,,11,,,58,127
71688,note_on,0,0,0,,1,,,73,127
71823,note_off,135,0,0,,1,,,73,127
71824,note_on,1,0,0,,1,,,85,127
71959,note_off,135,0,0,,1,,,85,127
71960,note_on,1,0,0,,0,,,84,127
72095,note_off,135,0,0,,0,,,84,127
72095,note_off,0,0,0,,11,,,58,127
72096,note_on,1,0,0,,11,,,70,127
72096,note_on,0,0,0,,11,,,58,127
72096,note_on,0,0,0,,11,,,82,127
72231,note_off,135,0,0,,11,,,82,127
72232,note_on,1,0,0,,8,,,80,127
72367,note_off,135,0,0,,8,,,80,127
72368,note_on,1,0,0,,7,,,79,127
72503,note_off,135,0,0,,7,,,79,127
72503,note_off,0,0,0,,11,,,58,127
72503,note_off,0,0,0,,11,,,70,127
72504,note_on,1,0,0,,0,,,60,127
72504,note_on,0,0,0,,8,,,68,127
72504,note_on,0,0,0,,5,,,77,127
72639,note_off,135,0,0,,5,,,77,127
72640,note_on,1,0,0,,4,,,76,127
72775,note_off,135,0,0,,4,,,76,127
72776,note_on,1,0,0,,5,,,77,127
72911,note_off,135,0,0,,5,,,77,127
72911,note_off,0,0,0,,8,,,68,127
72911,note_off,0,0,0,,0,,,60,127
72912,note_on,1,0,0,,0,,,60,127
72912,note_on,0,0,0,,7,,,67,127
72912,note_on,0,0,0,,7,,,79,127
73047,note_off,135,0,0,,7,,,79,127
73048,note_on,1,0,0,,5,,,77,127
73183,note_off,135,0,0,,5,,,77,127
73184,note_on,1,0,0,,4,,,76,127
73319,note_off,135,0,0,,4,,,76,127
73319,note_off,0,0,0,,7,,,67,127
73319,note_off,0,0,0,,0,,,60,127
73320,note_on,1,0,0,,5,,,65,127
73320,note_on,0,0,0,,5,,,53,127
73320,note_on,0,0,0,,5,,,77,127
73320,note_on,0,0,0,,7,,,79,127
73455,note_off,135,0,0,,7,,,79,127
73455,note_off,0,0,0,,5,,,77,127
73456,note_on,1,0,0,,4,,,76,127
73591,note_off,135,0,0,,4,,,76,127
73592,note_on,1,0,0,,5,,,77,127
73727,note_off,135,0,0,,5,,,77,127
73727,note_off,0,0,0,,5,,,53,127
73727,note_off,0,0,0,,5,,,65,127
73728,note_on,1,0,0,,5,,,65,127
73728,note_on,0,0,0,,5,,,53,127
73728,note_on,0,0,0,,7,,,79,127
73728,note_on,0,0,0,,5,,,77,127
73863,note_off,135,0,0,,5,,,77,127
73863,note_off,0,0,0,,7,,,79,127
73864,note_on,1,0,0,,4,,,76,127
73999,note_off,135,0,0,,4,,,76,127
74000,note_on,1,0,0,,5,,,77,127
74135,note_off,135,0,0,,5,,,77,127
74135,note_off,0,0,0,,5,,,53,127
74135,note_off,0,0,0,,5,,,65,127
74136,note_on,1,0,0,,7,,,55,127
74136,note_on,0,0,0,,5,,,65,127
74136,note_on,0,0,0,,12,,,83,127
74136,note_on,0,0,0,,5,,,77,127
74136,note_on,0,0,0,,7,,,79,127
74271,note_off,135,0,0,,7,,,79,127
74271,note_off,0,0,0,,5,,,77,127
74272,note_on,1,0,0,,4,,,76,127
74407,note_off,135,0,0,,4,,,76,127
74408,note_on,1,0,0,,5,,,77,127
74543,note_off,135,0,0,,5,,,77,127
74543,note_off,0,0,0,,12,,,83,127
74543,note_off,0,0,0,,5,,,65,127
74543,note_off,0,0,0,,7,,,55,127
74544,note_on,1,0,0,,7,,,55,127
74544,note_on,0,0,0,,5,,,65,127
74544,note_on,0,0,0,,12,,,83,127
74544,note_on,0,0,0,,5,,,77,127
74544,note_on,0,0,0,,7,,,79,127
74679,note_off,135,0,0,,7,,,79,127
74679,note_off,0,0,0,,5,,,77,127
74680,note_on,1,0,0,,4,,,76,127
74815,note_off,135,0,0,,4,,,76,127
74816,note_on,1,0,0,,5,,,77,127
74951,note_off,135,0,0,,5,,,77,127
74951,note_off,0,0,0,,12,,,83,127
74951,note_off,0,0,0,,5,,,65,127
74951,note_off,0,0,0,,7,,,55,127
74952,note_on,1,0,0,,0,,,60,127
74952,note_on,0,0,0,,3,,,63,127
74952,note_on,0,0,0,,0,,,84,127
74952,note_on,0,0,0,,3,,,75,127
74952,note_on,0,0,0,,5,,,77,127
75087,note_off,135,0,0,,5,,,77,127
75087,note_off,0,0,0,,3,,,75,127
75088,note_on,1,0,0,,2,,,74,127
75223,note_off,135,0,0,,2,,,74,127
75224,note_on,1,0,0,,3,,,75,127
75359,note_off,135,0,0,,3,,,75,127
75359,note_off,0,0,0,,0,,,84,127
75359,note_off,0,0,0,,3,,,63,127
75359,note_off,0,0,0,,0,,,60,127
75360,note_on,1,0,0,,3,,,63,127
75360,note_on,0,0,0,,0,,,60,127
75360,note_on,0,0,0,,11,,,82,127
75360,note_on,0,0,0,,3,,,75,127
75360,note_on,0,0,0,,5,,,77,127
75495,note_off,135,0,0,,5,,,77,127
75495,note_off,0,0,0,,3,,,75,127
75496,note_on,1,0,0,,2,,,74,127
75631,note_off,135,0,0,,2,,,74,127
75632,note_on,1,0,0,,3,,,75,127
75767,note_off,135,0,0,,3,,,75,127
75767,note_off,0,0,0,,11,,,82,127
75767,note_off,0,0,0,,0,,,60,127
75767,note_off,0,0,0,,3,,,63,127
75768,note_on,1,0,0,,5,,,53,127
75768,note_on,0,0,0,,3,,,63,127
75768,note_on,0,0,0,,10,,,81,127
75768,note_on,0,0,0,,3,,,75,127
75768,note_on,0,0,0,,5,,,77,127
75903,note_off,135,0,0,,5,,,77,127
75903,note_off,0,0,0,,3,,,75,127
75904,note_on,1,0,0,,2,,,74,127
76039,note_off,135,0,0,,2,,,74,127
76040,note_on,1,0,0,,3,,,75,127
76175,note_off,135,0,0,,3,,,75,127
76175,note_off,0,0,0,,10,,,81,127
76175,note_off,0,0,0,,3,,,63,127
76175,note_off,0,0,0,,5,,,53,127
76176,note_on,1,0,0,,5,,,53,127
76176,note_on,0,0,0,,3,,,63,127
76176,note_on,0,0,0,,3,,,75,127
76176,note_on,0,0,0,,10,,,81,127
76176,note_on,0,0,0,,5,,,77,127
76311,note_off,135,0,0,,5,,,77,127
76311,note_off,0,0,0,,3,,,75,127
76312,note_on,1,0,0,,2,,,74,127
76447,note_off,135,0,0,,2,,,74,127
76448,note_on,1,0,0,,3,,,75,127
76583,note_off,135,0,0,,3,,,75,127
76583,note_off,0,0,0,,10,,,81,127
76583,note_off,0,0,0,,3,,,63,127
76583,note_off,0,0,0,,5,,,53,127
76584,note_on,1,0,0,,11,,,58,127
76584,note_on,0,0,0,,1,,,61,127
76584,note_on,0,0,0,,11,,,82,127
76584,note_on,0,0,0,,1,,,73,127
76584,note_on,0,0,0,,3,,,75,127
76719,note_off,135,0,0,,3,,,75,127
76719,note_off,0,0,0,,1,,,73,127
76720,note_on,1,0,0,,0,,,72,127
76855,note_off,135,0,0,,0,,,72,127
76856,note_on,1,0,0,,1,,,73,127
76991,note_off,135,0,0,,1,,,73,127
76991,note_off,0,0,0,,11,,,82,127
76991,note_off,0,0,0,,1,,,61,127
76991,note_off,0,0,0,,11,,,58,127
76992,note_on,1,0,0,,1,,,61,127
76992,note_on,0,0,0,,11,,,58,127
76992,note_on,0,0,0,,8,,,80,127
76992,note_on,0,0,0,,1,,,73,127
76992,note_on,0,0,0,,3,,,75,127
77127,note_off,135,0,0,,3,,,75,127
77127,note_off,0,0,0,,1,,,73,127
77128,note_on,1,0,0,,0,,,72,127
77263,note_off,135,0,0,,0,,,72,127
77264,note_on,1,0,0,,1,,,73,127
77399,note_off,135,0,0,,1,,,73,127
77399,note_off,0,0,0,,8,,,80,127
77399,note_off,0,0,0,,11,,,58,127
77399,note_off,0,0,0,,1,,,61,127
77400,note_on,1,0,0,,4,,,52,127
77400,note_on,0,0,0,,1,,,61,127
77400,note_on,0,0,0,,7,,,79,127
77400,note_on,0,0,0,,1,,,73,127
77400,note_on,0,0,0,,3,,,75,127
77535,note_off,135,0,0,,3,,,75,127
77535,note_off,0,0,0,,1,,,73,127
77536,note_on,1,0,0,,0,,,72,127
77671,note_off,135,0,0,,0,,,72,127
77672,note_on,1,0,0,,1,,,73,127
77807,note_off,135,0,0,,1,,,73,127
77807,note_off,0,0,0,,7,,,79,127
77807,note_off,0,0,0,,1,,,61,127
77807,note_off,0,0,0,,4,,,52,127
77808,note_on,1,0,0,,1,,,61,127
77808,note_on,0,0,0,,4,,,52,127
77808,note_on,0,0,0,,1,,,73,127
77808,note_on,0,0,0,,7,,,79,127
77808,note_on,0,0,0,,3,,,75,127
77943,note_off,135,0,0,,3,,,75,127
77943,note_off,0,0,0,,1,,,73,127
77944,note_on,1,0,0,,0,,,72,127
78079,note_off,135,0,0,,0,,,72,127
78080,note_on,1,0,0,,1,,,73,127
78215,note_off,135,0,0,,1,,,73,127
78215,note_off,0,0,0,,7,,,79,127
78215,note_off,0,0,0,,4,,,52,127
78215,note_off,0,0,0,,1,,,61,127
78216,note_on,1,0,0,,0,,,60,127
78216,note_on,0,0,0,,8,,,56,127
78216,note_on,0,0,0,,0,,,72,127
78216,note_on,0,0,0,,8,,,80,127
78351,note_off,135,0,0,,8,,,80,127
78352,note_on,1,0,0,,0,,,84,127
78487,note_off,135,0,0,,0,,,84,127
78487,note_off,0,0,0,,0,,,72,127
78488,note_on,1,0,0,,11,,,82,127
78623,note_off,135,0,0,,11,,,82,127
78623,note_off,0,0,0,,8,,,56,127
78623,note_off,0,0,0,,0,,,60,127
78624,note_on,1,0,0,,0,,,60,127
78624,note_on,0,0,0,,8,,,56,127
78624,note_on,0,0,0,,11,,,82,127
78759,note_off,135,0,0,,11,,,82,127
78760,note_on,1,0,0,,8,,,80,127
78895,note_off,135,0,0,,8,,,80,127
78896,note_on,1,0,0,,7,,,79,127
79031,note_off,135,0,0,,7,,,79,127
79031,note_off,0,0,0,,8,,,56,127
79031,note_off,0,0,0,,0,,,60,127
79032,note_on,1,0,0,,1,,,49,127
79032,note_on,0,0,0,,5,,,77,127
79032,note_on,0,0,0,,7,,,79,127
79167,note_off,135,0,0,,7,,,79,127
79167,note_off,0,0,0,,5,,,77,127
79168,note_on,1,0,0,,4,,,76,127
79303,note_off,135,0,0,,4,,,76,127
79304,note_on,1,0,0,,5,,,77,127
79439,note_off,135,0,0,,5,,,77,127
79440,note_on,1,0,0,,1,,,61,127
79440,note_on,0,0,0,,5,,,77,127
79440,note_on,0,0,0,,7,,,79,127
79575,note_off,135,0,0,,7,,,79,127
79575,note_off,0,0,0,,5,,,77,127
79575,note_off,0,0,0,,1,,,49,127
79576,note_on,1,0,0,,4,,,76,127
79711,note_off,135,0,0,,4,,,76,127
79712,note_on,1,0,0,,5,,,77,127
79847,note_off,135,0,0,,5,,,77,127
79847,note_off,0,0,0,,1,,,61,127
79848,note_on,1,0,0,,0,,,60,127
79848,note_on,0,0,0,,5,,,77,127
80118,note_off,270,0,0,,5,,,77,127
80119,note_on,1,0,0,,7,,,79,127
80255,note_on,136,0,0,,0,,,48,127
80390,note_off,135,0,0,,7,,,79,127
80391,note_on,1,0,0,,0,,,84,127
80526,note_off,135,0,0,,0,,,84,127
80527,note_on,1,0,0,,7,,,79,127
80661,note_off,134,0,0,,0,,,60,127
80662,note_off,1,0,0,,7,,,79,127
80662,note_off,0,0,0,,0,,,48,127
80663,note_on,1,0,0,,5,,,65,127
80663,note_on,0,0,0,,0,,,60,127
80663,note_on,0,0,0,,8,,,80,127
80798,note_off,135,0,0,,8,,,80,127
80799,note_on,1,0,0,,11,,,82,127
80934,note_off,135,0,0,,11,,,82,127
80934,note_off,0,0,0,,5,,,65,127
80935,note_on,1,0,0,,7,,,67,127
80935,note_on,0,0,0,,4,,,76,127
81070,note_off,135,0,0,,4,,,76,127
81070,note_off,0,0,0,,7,,,67,127
81070,note_off,0,0,0,,0,,,60,127
81071,note_on,1,0,0,,0,,,60,127
81071,note_on,0,0,0,,8,,,68,127
81071,note_on,0,0,0,,5,,,77,127
81206,note_off,135,0,0,,5,,,77,127
81207,note_on,1,0,0,,7,,,79,127
81342,note_off,135,0,0,,7,,,79,127
81342,note_off,0,0,0,,8,,,68,127
81343,note_on,1,0,0,,11,,,70,127
81343,note_on,0,0,0,,2,,,74,127
81478,note_off,135,0,0,,2,,,74,127
81478,note_off,0,0,0,,11,,,70,127
81478,note_off,0,0,0,,0,,,60,127
81479,note_on,1,0,0,,0,,,60,127
81479,note_on,0,0,0,,0,,,72,127
81479,note_on,0,0,0,,4,,,76,127
81614,note_off,135,0,0,,4,,,76,127
81615,note_on,1,0,0,,5,,,77,127
81750,note_off,135,0,0,,5,,,77,127
81751,note_on,1,0,0,,7,,,79,127
81886,note_off,135,0,0,,7,,,79,127
81887,note_on,1,0,0,,0,,,84,127
82022,note_off,135,0,0,,0,,,72,127
82022,note_off,0,0,0,,0,,,60,127
82023,note_on,1,0,0,,0,,,72,127
82158,note_off,135,0,0,,0,,,72,127
82159,note_on,1,0,0,,7,,,67,127
82294,note_off,135,0,0,,7,,,67,127
82295,note_on,1,0,0,,8,,,68,127
82430,note_off,135,0,0,,8,,,68,127
82431,note_on,1,0,0,,11,,,70,127
82566,note_off,135,0,0,,11,,,70,127
82567,note_on,1,0,0,,4,,,64,127
82702,note_off,135,0,0,,4,,,64,127
82702,note_off,0,0,0,,0,,,84,127
82703,note_on,1,0,0,,5,,,65,127
82703,note_on,0,0,0,,8,,,80,127
82703,note_on,0,0,0,,5,,,77,127
82838,note_off,135,0,0,,5,,,65,127
82839,note_on,1,0,0,,1,,,61,127
82839,note_on,0,0,0,,8,,,68,127
82974,note_off,135,0,0,,8,,,68,127
82975,note_on,1,0,0,,11,,,70,127
83110,note_off,135,0,0,,11,,,70,127
83110,note_off,0,0,0,,1,,,61,127
83111,note_on,1,0,0,,0,,,60,127
83111,note_on,0,0,0,,0,,,72,127
83246,note_off,135,0,0,,5,,,77,127
83246,note_off,0,0,0,,8,,,80,127
83247,note_on,1,0,0,,7,,,79,127
83382,note_off,135,0,0,,7,,,79,127
83383,note_on,1,0,0,,5,,,77,127
83518,note_off,135,0,0,,5,,,77,127
83518,note_off,0,0,0,,0,,,72,127
83518,note_off,0,0,0,,0,,,60,127
83519,note_on,1,0,0,,0,,,72,127
83519,note_on,0,0,0,,0,,,60,127
83519,note_on,0,0,0,,7,,,79,127
83654,note_off,135,0,0,,7,,,79,127
83655,note_on,1,0,0,,0,,,84,127
83790,note_off,135,0,0,,0,,,84,127
83791,note_on,1,0,0,,11,,,82,127
83926,note_off,135,0,0,,11,,,82,127
83926,note_off,0,0,0,,0,,,60,127
83926,note_off,0,0,0,,0,,,72,127
83927,note_on,1,0,0,,5,,,65,127
83927,note_on,0,0,0,,10,,,81,127
84062,note_off,135,0,0,,10,,,81,127
84063,note_on,1,0,0,,6,,,78,127
84198,note_off,135,0,0,,6,,,78,127
84199,note_on,1,0,0,,5,,,77,127
84334,note_off,135,0,0,,5,,,77,127
84334,note_off,0,0,0,,5,,,65,127
84335,note_on,1,0,0,,10,,,69,127
84335,note_on,0,0,0,,3,,,75,127
84470,note_off,135,0,0,,3,,,75,127
84471,note_on,1,0,0,,1,,,73,127
84606,note_off,135,0,0,,1,,,73,127
84607,note_on,1,0,0,,0,,,72,127
84742,note_off,135,0,0,,0,,,72,127
84742,note_off,0,0,0,,10,,,69,127
84743,note_on,1,0,0,,11,,,70,127
84743,note_on,0,0,0,,1,,,73,127
84878,note_off,135,0,0,,1,,,73,127
84879,note_on,1,0,0,,1,,,85,127
85014,note_off,135,0,0,,1,,,85,127
85015,note_on,1,0,0,,0,,,84,127
85150,note_off,135,0,0,,0,,,84,127
85150,note_off,0,0,0,,11,,,70,127
85151,note_on,1,0,0,,11,,,70,127
85151,note_on,0,0,0,,11,,,58,127
85151,note_on,0,0,0,,11,,,82,127
85286,note_off,135,0,0,,11,,,82,127
85287,note_on,1,0,0,,8,,,80,127
85422,note_off,135,0,0,,8,,,80,127
85423,note_on,1,0,0,,7,,,79,127
85558,note_off,135,0,0,,7,,,79,127
85558,note_off,0,0,0,,11,,,58,127
85558,note_off,0,0,0,,11,,,70,127
85559,note_on,1,0,0,,8,,,68,127
85559,note_on,0,0,0,,0,,,60,127
85559,note_on,0,0,0,,5,,,77,127
85694,note_off,135,0,0,,5,,,77,127
85695,note_on,1,0,0,,4,,,76,127
85830,note_off,135,0,0,,4,,,76,127
85831,note_on,1,0,0,,5,,,77,127
85966,note_off,135,0,0,,5,,,77,127
85966,note_off,0,0,0,,0,,,60,127
85966,note_off,0,0,0,,8,,,68,127
85967,note_on,1,0,0,,7,,,67,127
85967,note_on,0,0,0,,0,,,60,127
85967,note_on,0,0,0,,7,,,79,127
86102,note_off,135,0,0,,7,,,79,127
86103,note_on,1,0,0,,5,,,77,127
86238,note_off,135,0,0,,5,,,77,127
86239,note_on,1,0,0,,4,,,76,127
86374,note_off,135,0,0,,4,,,76,127
86374,note_off,0,0,0,,0,,,60,127
86374,note_off,0,0,0,,7,,,67,127
86375,note_on,1,0,0,,5,,,65,127
86375,note_on,0,0,0,,1,,,61,127
86375,note_on,0,0,0,,5,,,77,127
86510,note_off,135,0,0,,5,,,77,127
86511,note_on,1,0,0,,5,,,77,127
86646,note_off,135,0,0,,5,,,77,127
86647,note_on,1,0,0,,3,,,75,127
86782,note_off,135,0,0,,3,,,75,127
86782,note_off,0,0,0,,1,,,61,127
86782,note_off,0,0,0,,5,,,65,127
86783,note_on,1,0,0,,11,,,58,127
86783,note_on,0,0,0,,1,,,73,127
86918,note_off,135,0,0,,1,,,73,127
86919,note_on,1,0,0,,0,,,72,127
87054,note_off,135,0,0,,0,,,72,127
87055,note_on,1,0,0,,11,,,70,127
87190,note_off,135,0,0,,11,,,70,127
87190,note_off,0,0,0,,11,,,58,127
87191,note_on,1,0,0,,0,,,60,127
87191,note_on,0,0,0,,8,,,68,127
87326,note_off,135,0,0,,8,,,68,127
87327,note_on,1,0,0,,7,,,67,127
87462,note_off,135,0,0,,7,,,67,127
87463,note_on,1,0,0,,5,,,65,127
87598,note_off,135,0,0,,5,,,65,127
87598,note_off,0,0,0,,0,,,60,127
87599,note_on,1,0,0,,11,,,58,127
87599,note_on,0,0,0,,4,,,64,127
87734,note_off,135,0,0,,4,,,64,127
87735,note_on,1,0,0,,5,,,65,127
87870,note_off,135,0,0,,5,,,65,127
87871,note_on,1,0,0,,7,,,67,127
88006,note_off,135,0,0,,7,,,67,127
88006,note_off,0,0,0,,11,,,58,127
88007,note_on,1,0,0,,10,,,57,127
88007,note_on,0,0,0,,5,,,65,127
88075,note_on,68,0,0,,7,,,67,127
88088,note_off,13,0,0,,5,,,65,127
88142,note_on,54,0,0,,10,,,69,127
88155,note_off,13,0,0,,7,,,67,127
88209,note_on,54,0,0,,11,,,70,127
88222,note_off,13,0,0,,10,,,69,127
88276,note_off,54,0,0,,10,,,57,127
88277,note_on,1,0,0,,11,,,58,127
88277,note_on,0,0,0,,0,,,72,127
88290,note_off,13,0,0,,11,,,70,127
88344,note_on,54,0,0,,2,,,74,127
88357,note_off,13,0,0,,0,,,72,127
88411,note_off,54,0,0,,11,,,58,127
88412,note_on,1,0,0,,0,,,60,127
88412,note_on,0,0,0,,0,,,72,127
88425,note_off,13,0,0,,2,,,74,127
88479,note_on,54,0,0,,11,,,70,127
88492,note_off,13,0,0,,0,,,72,127
88546,note_on,54,0,0,,10,,,69,127
88559,note_off,13,0,0,,11,,,70,127
88613,note_on,54,0,0,,7,,,67,127
88626,note_off,13,0,0,,10,,,69,127
88680,note_off,54,0,0,,0,,,60,127
88681,note_on,1,0,0,,11,,,58,127
88681,note_on,0,0,0,,5,,,65,127
88694,note_off,13,0,0,,7,,,67,127
88748,note_on,54,0,0,,4,,,64,127
88761,note_off,13,0,0,,5,,,65,127
88815,note_off,54,0,0,,11,,,58,127
88816,note_on,1,0,0,,10,,,57,127
88816,note_on,0,0,0,,5,,,65,127
88829,note_off,13,0,0,,4,,,64,127
88883,note_on,54,0,0,,7,,,67,127
88896,note_off,13,0,0,,5,,,65,127
88950,note_on,54,0,0,,10,,,69,127
88963,note_off,13,0,0,,7,,,67,127
89017,note_on,54,0,0,,11,,,70,127
89030,note_off,13,0,0,,10,,,69,127
89084,note_off,54,0,0,,10,,,57,127
89085,note_on,1,0,0,,11,,,58,127
89085,note_on,0,0,0,,0,,,72,127
89098,note_off,13,0,0,,11,,,70,127
89152,note_on,54,0,0,,2,,,74,127
89165,note_off,13,0,0,,0,,,72,127
89219,note_off,54,0,0,,11,,,58,127
89220,note_on,1,0,0,,0,,,60,127
89220,note_on,0,0,0,,0,,,72,127
89233,note_off,13,0,0,,2,,,74,127
89287,note_on,54,0,0,,11,,,70,127
89300,note_off,13,0,0,,0,,,72,127
89354,note_on,54,0,0,,10,,,69,127
89367,note_off,13,0,0,,11,,,70,127
89421,note_on,54,0,0,,7,,,67,127
89434,note_off,13,0,0,,10,,,69,127
89488,note_off,54,0,0,,0,,,60,127
89489,note_on,1,0,0,,11,,,58,127
89489,note_on,0,0,0,,5,,,65,127
89502,note_off,13,0,0,,7,,,67,127
89556,note_on,54,0,0,,4,,,64,127
89569,note_off,13,0,0,,5,,,65,127
89623,note_off,54,0,0,,11,,,58,127
89624,note_on,1,0,0,,10,,,57,127
89624,note_on,0,0,0,,5,,,65,127
89637,note_off,13,0,0,,4,,,64,127
89691,note_on,54,0,0,,10,,,69,127
89704,note_off,13,0,0,,5,,,65,127
89758,note_on,54,0,0,,7,,,67,127
89771,note_off,13,0,0,,10,,,69,127
89825,note_on,54,0,0,,5,,,65,127
89838,note_off,13,0,0,,7,,,67,127
89892,note_off,54,0,0,,10,,,57,127
89893,note_on,1,0,0,,11,,,58,127
89893,note_on,0,0,0,,4,,,64,127
89906,note_off,13,0,0,,5,,,65,127
89960,note_on,54,0,0,,2,,,62,127
89973,note_off,13,0,0,,4,,,64,127
90027,note_off,54,0,0,,11,,,58,127
90028,note_on,1,0,0,,0,,,48,127
90028,note_on,0,0,0,,0,,,60,127
90041,note_off,13,0,0,,2,,,62,127
90095,note_on,54,0,0,,11,,,58,127
90108,note_off,13,0,0,,0,,,60,127
90162,note_on,54,0,0,,10,,,57,127
90175,note_off,13,0,0,,11,,,58,127
90229,note_on,54,0,0,,7,,,55,127
90242,note_off,13,0,0,,10,,,57,127
90296,note_off,54,0,0,,0,,,48,127
90297,note_on,1,0,0,,11,,,46,127
90297,note_on,0,0,0,,5,,,53,127
90310,note_off,13,0,0,,7,,,55,127
90364,note_on,54,0,0,,4,,,52,127
90377,note_off,13,0,0,,5,,,53,127
90431,note_off,54,0,0,,11,,,46,127
90432,note_on,1,0,0,,10,,,45,127
90432,note_on,0,0,0,,5,,,53,127
90445,note_off,13,0,0,,4,,,52,127
90499,note_on,54,0,0,,7,,,55,127
90512,note_off,13,0,0,,5,,,53,127
90566,note_on,54,0,0,,10,,,57,127
90579,note_off,13,0,0,,7,,,55,127
90633,note_on,54,0,0,,11,,,58,127
90646,note_off,13,0,0,,10,,,57,127
90700,note_off,54,0,0,,10,,,45,127
90701,note_on,1,0,0,,11,,,46,127
90701,note_on,0,0,0,,0,,,60,127
90714,note_off,13,0,0,,11,,,58,127
90768,note_on,54,0,0,,2,,,62,127
90781,note_off,13,0,0,,0,,,60,127
90835,note_off,54,0,0,,11,,,46,127
90836,note_on,1,0,0,,0,,,48,127
90836,note_on,0,0,0,,0,,,60,127
90849,note_off,13,0,0,,2,,,62,127
90903,note_on,54,0,0,,11,,,58,127
90916,note_off,13,0,0,,0,,,60,127
90970,note_on,54,0,0,,10,,,57,127
90983,note_off,13,0,0,,11,,,58,127
91037,note_on,54,0,0,,7,,,55,127
91050,note_off,13,0,0,,10,,,57,127
91104,note_off,54,0,0,,0,,,48,127
91105,note_on,1,0,0,,11,,,46,127
91105,note_on,0,0,0,,5,,,53,127
91118,note_off,13,0,0,,7,,,55,127
91172,note_on,54,0,0,,4,,,52,127
91185,note_off,13,0,0,,5,,,53,127
91239,note_off,54,0,0,,11,,,46,127
91240,note_on,1,0,0,,10,,,45,127
91240,note_on,0,0,0,,5,,,53,127
91253,note_off,13,0,0,,4,,,52,127
91297,note_on,44,0,0,,7,,,55,127
91320,note_off,23,0,0,,5,,,53,127
91355,note_on,35,0,0,,10,,,57,127
91378,note_off,23,0,0,,7,,,55,127
91413,note_on,35,0,0,,11,,,58,127
91436,note_off,23,0,0,,10,,,57,127
91471,note_on,35,0,0,,0,,,60,127
91494,note_off,23,0,0,,11,,,58,127
91510,note_off,16,0,0,,10,,,45,127
91511,note_on,1,0,0,,11,,,46,127
91530,note_on,19,0,0,,2,,,62,127
91553,note_off,23,0,0,,0,,,60,127
91588,note_on,35,0,0,,4,,,64,127
91611,note_off,23,0,0,,2,,,62,127
91646,note_off,35,0,0,,11,,,46,127
91647,note_on,1,0,0,,0,,,48,127
91647,note_on,0,0,0,,5,,,65,127
91670,note_off,23,0,0,,4,,,64,127
91715,note_on,45,0,0,,7,,,67,127
91728,note_off,13,0,0,,5,,,65,127
91782,note_on,54,0,0,,10,,,69,127
91795,note_off,13,0,0,,7,,,67,127
91849,note_on,54,0,0,,7,,,67,127
91862,note_off,13,0,0,,10,,,69,127
91916,note_off,54,0,0,,0,,,48,127
91917,note_on,1,0,0,,11,,,46,127
91917,note_on,0,0,0,,5,,,65,127
91930,note_off,13,0,0,,7,,,67,127
91984,note_on,54,0,0,,4,,,64,127
91997,note_off,13,0,0,,5,,,65,127
92051,note_off,54,0,0,,11,,,46,127
92052,note_on,1,0,0,,10,,,45,127
92052,note_on,0,0,0,,5,,,65,127
92065,note_off,13,0,0,,4,,,64,127
92109,note_on,44,0,0,,7,,,67,127
92132,note_off,23,0,0,,5,,,65,127
92167,note_on,35,0,0,,10,,,69,127
92190,note_off,23,0,0,,7,,,67,127
92225,note_on,35,0,0,,11,,,70,127
92248,note_off,23,0,0,,10,,,69,127
92283,note_on,35,0,0,,0,,,72,127
92306,note_off,23,0,0,,11,,,70,127
92322,note_off,16,0,0,,10,,,45,127
92323,note_on,1,0,0,,11,,,46,127
92342,note_on,19,0,0,,2,,,74,127
92365,note_off,23,0,0,,0,,,72,127
92400,note_on,35,0,0,,4,,,76,127
92423,note_off,23,0,0,,2,,,74,127
92458,note_off,35,0,0,,11,,,46,127
92459,note_on,1,0,0,,0,,,48,127
92459,note_on,0,0,0,,5,,,77,127
92482,note_off,23,0,0,,4,,,76,127
92527,note_on,45,0,0,,7,,,79,127
92540,note_off,13,0,0,,5,,,77,127
92594,note_on,54,0,0,,10,,,81,127
92607,note_off,13,0,0,,7,,,79,127
92661,note_on,54,0,0,,7,,,79,127
92674,note_off,13,0,0,,10,,,81,127
92728,note_on,54,0,0,,5,,,77,127
92741,note_off,13,0,0,,7,,,79,127
92795,note_on,54,0,0,,4,,,76,127
92808,note_off,13,0,0,,5,,,77,127
92862,note_off,54,0,0,,0,,,48,127
92870,note_on,8,0,0,,5,,,41,127
92870,note_on,0,0,0,,5,,,53,127
92870,note_on,0,0,0,,5,,,77,127
92876,note_off,6,0,0,,4,,,76,127
94835,note_off,1959,0,0,,5,,,77,127
94835,note_off,0,0,0,,5,,,53,127
94835,note_off,0,0,0,,5,,,41,127
99840,end_of_track,5005,1,0,,,,,,
