tick,type,time,meta,track,program,channel,pitch,tempo,note,velocity
0,copyright,0,1,0,,,,,,
0,program_change,0,0,0,6,0,,,,
0,pitchwheel,0,0,0,,0,0,,,
0,program_change,0,0,0,6,1,,,,
0,pitchwheel,0,0,0,,1,-590,,,
0,program_change,0,0,0,6,2,,,,
0,pitchwheel,0,0,0,,2,-272,,,
0,program_change,0,0,0,6,3,,,,
0,pitchwheel,0,0,0,,3,-353,,,
0,program_change,0,0,0,6,4,,,,
0,pitchwheel,0,0,0,,4,-560,,,
0,program_change,0,0,0,6,5,,,,
0,pitchwheel,0,0,0,,5,-80,,,
0,program_change,0,0,0,6,6,,,,
0,pitchwheel,0,0,0,,6,-625,,,
0,program_change,0,0,0,6,7,,,,
0,pitchwheel,0,0,0,,7,-130,,,
0,program_change,0,0,0,6,8,,,,
0,pitchwheel,0,0,0,,8,-512,,,
0,program_change,0,0,0,6,10,,,,
0,pitchwheel,0,0,0,,10,-464,,,
0,program_change,0,0,0,6,11,,,,
0,pitchwheel,0,0,0,,11,-208,,,
0,program_change,0,0,0,6,12,,,,
0,pitchwheel,0,0,0,,12,-553,,,
0,set_tempo,0,1,0,,,,500000,,
110,note_on,110,0,0,,12,,,83,127
163,note_off,53,0,0,,12,,,83,127
165,note_on,2,0,0,,10,,,81,127
218,note_off,53,0,0,,10,,,81,127
220,note_on,2,0,0,,12,,,83,127
273,note_off,53,0,0,,12,,,83,127
275,note_on,2,0,0,,10,,,81,127
328,note_off,53,0,0,,10,,,81,127
330,note_on,2,0,0,,12,,,83,127
383,note_off,53,0,0,,12,,,83,127
385,note_on,2,0,0,,10,,,81,127
440,note_on,55,0,0,,4,,,76,127
458,note_off,18,0,0,,10,,,81,127
536,note_off,78,0,0,,4,,,76,127
550,note_on,14,0,0,,12,,,83,127
603,note_off,53,0,0,,12,,,83,127
605,note_on,2,0,0,,10,,,81,127
658,note_off,53,0,0,,10,,,81,127
660,note_on,2,0,0,,12,,,83,127
713,note_off,53,0,0,,12,,,83,127
715,note_on,2,0,0,,10,,,81,127
768,note_off,53,0,0,,10,,,81,127
770,note_on,2,0,0,,12,,,83,127
823,note_off,53,0,0,,12,,,83,127
825,note_on,2,0,0,,10,,,81,127
880,note_on,55,0,0,,4,,,76,127
898,note_off,18,0,0,,10,,,81,127
976,note_off,78,0,0,,4,,,76,127
990,note_on,14,0,0,,10,,,81,127
1097,note_off,107,0,0,,10,,,81,127
1099,note_on,2,0,0,,4,,,76,127
1206,note_off,107,0,0,,4,,,76,127
1208,note_on,2,0,0,,1,,,73,127
1315,note_off,107,0,0,,1,,,73,127
1317,note_on,2,0,0,,10,,,69,127
1424,note_off,107,0,0,,10,,,69,127
1426,note_on,2,0,0,,4,,,64,127
1533,note_off,107,0,0,,4,,,64,127
1535,note_on,2,0,0,,10,,,69,127
1642,note_off,107,0,0,,10,,,69,127
1644,note_on,2,0,0,,1,,,73,127
1751,note_off,107,0,0,,1,,,73,127
1753,note_on,2,0,0,,4,,,76,127
1860,note_off,107,0,0,,4,,,76,127
1862,note_on,2,0,0,,2,,,74,127
1969,note_off,107,0,0,,2,,,74,127
1971,note_on,2,0,0,,12,,,71,127
2078,note_off,107,0,0,,12,,,71,127
2080,note_on,2,0,0,,8,,,68,127
2187,note_off,107,0,0,,8,,,68,127
2189,note_on,2,0,0,,4,,,64,127
2296,note_off,107,0,0,,4,,,64,127
2298,note_on,2,0,0,,4,,,64,127
2405,note_off,107,0,0,,4,,,64,127
2407,note_on,2,0,0,,8,,,68,127
2514,note_off,107,0,0,,8,,,68,127
2516,note_on,2,0,0,,12,,,71,127
2623,note_off,107,0,0,,12,,,71,127
2625,note_on,2,0,0,,2,,,74,127
2732,note_off,107,0,0,,2,,,74,127
2734,note_on,2,0,0,,12,,,71,127
2734,note_on,0,0,0,,1,,,73,127
2787,note_off,53,0,0,,12,,,71,127
2789,note_on,2,0,0,,10,,,69,127
2842,note_off,53,0,0,,10,,,69,127
2844,note_on,2,0,0,,12,,,71,127
2897,note_off,53,0,0,,12,,,71,127
2899,note_on,2,0,0,,10,,,69,127
2952,note_off,53,0,0,,10,,,69,127
2952,note_off,0,0,0,,1,,,73,127
2954,note_on,2,0,0,,12,,,71,127
2954,note_on,0,0,0,,4,,,76,127
3007,note_off,53,0,0,,12,,,71,127
3009,note_on,2,0,0,,10,,,69,127
3062,note_off,53,0,0,,10,,,69,127
3064,note_on,2,0,0,,4,,,64,127
3171,note_off,107,0,0,,4,,,64,127
3171,note_off,0,0,0,,4,,,76,127
3173,note_on,2,0,0,,12,,,71,127
3173,note_on,0,0,0,,1,,,73,127
3226,note_off,53,0,0,,12,,,71,127
3228,note_on,2,0,0,,10,,,69,127
3281,note_off,53,0,0,,10,,,69,127
3283,note_on,2,0,0,,12,,,71,127
3336,note_off,53,0,0,,12,,,71,127
3338,note_on,2,0,0,,10,,,69,127
3391,note_off,53,0,0,,10,,,69,127
3391,note_off,0,0,0,,1,,,73,127
3393,note_on,2,0,0,,12,,,71,127
3393,note_on,0,0,0,,4,,,76,127
3446,note_off,53,0,0,,12,,,71,127
3448,note_on,2,0,0,,10,,,69,127
3501,note_off,53,0,0,,10,,,69,127
3503,note_on,2,0,0,,4,,,64,127
3610,note_off,107,0,0,,4,,,64,127
3610,note_off,0,0,0,,4,,,76,127
3612,note_on,2,0,0,,10,,,69,127
3612,note_on,0,0,0,,1,,,73,127
3719,note_off,107,0,0,,10,,,69,127
3721,note_on,2,0,0,,4,,,64,127
3828,note_off,107,0,0,,4,,,64,127
3830,note_on,2,0,0,,1,,,61,127
3937,note_off,107,0,0,,1,,,61,127
3939,note_on,2,0,0,,10,,,57,127
4044,note_off,105,0,0,,1,,,73,127
4046,note_off,2,0,0,,10,,,57,127
4048,note_on,2,0,0,,4,,,52,127
4155,note_off,107,0,0,,4,,,52,127
4157,note_on,2,0,0,,10,,,57,127
4264,note_off,107,0,0,,10,,,57,127
4266,note_on,2,0,0,,1,,,61,127
4266,note_on,0,0,0,,4,,,76,127
4373,note_off,107,0,0,,1,,,61,127
4375,note_on,2,0,0,,4,,,64,127
4482,note_off,107,0,0,,4,,,64,127
4482,note_off,0,0,0,,4,,,76,127
4484,note_on,2,0,0,,2,,,62,127
4484,note_on,0,0,0,,12,,,71,127
4591,note_off,107,0,0,,2,,,62,127
4593,note_on,2,0,0,,12,,,59,127
4700,note_off,107,0,0,,12,,,59,127
4702,note_on,2,0,0,,8,,,56,127
4809,note_off,107,0,0,,8,,,56,127
4811,note_on,2,0,0,,4,,,52,127
4918,note_off,107,0,0,,4,,,52,127
4920,note_on,2,0,0,,4,,,52,127
5027,note_off,107,0,0,,4,,,52,127
5029,note_on,2,0,0,,8,,,56,127
5136,note_off,107,0,0,,8,,,56,127
5136,note_off,0,0,0,,12,,,71,127
5138,note_on,2,0,0,,12,,,59,127
5138,note_on,0,0,0,,2,,,74,127
5245,note_off,107,0,0,,12,,,59,127
5247,note_on,2,0,0,,2,,,62,127
5252,note_off,5,0,0,,2,,,74,127
5355,note_off,103,0,0,,2,,,62,127
5357,note_on,2,0,0,,1,,,61,127
5467,note_on,110,0,0,,4,,,76,127
5574,note_off,107,0,0,,1,,,61,127
5576,note_on,2,0,0,,1,,,61,127
5576,note_on,0,0,0,,10,,,69,127
5672,note_off,96,0,0,,4,,,76,127
5686,note_on,14,0,0,,4,,,76,127
5782,note_off,96,0,0,,10,,,69,127
5793,note_off,11,0,0,,1,,,61,127
5795,note_on,2,0,0,,2,,,62,127
5795,note_on,0,0,0,,10,,,69,127
5891,note_off,96,0,0,,4,,,76,127
5905,note_on,14,0,0,,6,,,78,127
6001,note_off,96,0,0,,10,,,69,127
6012,note_off,11,0,0,,2,,,62,127
6014,note_on,2,0,0,,12,,,59,127
6014,note_on,0,0,0,,12,,,71,127
6110,note_off,96,0,0,,6,,,78,127
6124,note_on,14,0,0,,8,,,80,127
6220,note_off,96,0,0,,12,,,71,127
6231,note_off,11,0,0,,8,,,80,127
6231,note_off,0,0,0,,12,,,59,127
6233,note_on,2,0,0,,10,,,57,127
6233,note_on,0,0,0,,1,,,73,127
6343,note_on,110,0,0,,10,,,81,127
6450,note_off,107,0,0,,10,,,81,127
6450,note_off,0,0,0,,1,,,73,127
6450,note_off,0,0,0,,10,,,57,127
6452,note_on,2,0,0,,1,,,61,127
6452,note_on,0,0,0,,10,,,69,127
6562,note_on,110,0,0,,4,,,76,127
6658,note_off,96,0,0,,10,,,69,127
6669,note_off,11,0,0,,1,,,61,127
6671,note_on,2,0,0,,2,,,62,127
6671,note_on,0,0,0,,10,,,69,127
6767,note_off,96,0,0,,4,,,76,127
6781,note_on,14,0,0,,6,,,78,127
6877,note_off,96,0,0,,10,,,69,127
6888,note_off,11,0,0,,2,,,62,127
6890,note_on,2,0,0,,12,,,59,127
6890,note_on,0,0,0,,12,,,71,127
6986,note_off,96,0,0,,6,,,78,127
7000,note_on,14,0,0,,8,,,80,127
7096,note_off,96,0,0,,12,,,71,127
7107,note_off,11,0,0,,8,,,80,127
7107,note_off,0,0,0,,12,,,59,127
7109,note_on,2,0,0,,10,,,81,127
7219,note_on,110,0,0,,4,,,64,127
7292,note_off,73,0,0,,10,,,81,127
7329,note_on,37,0,0,,10,,,57,127
7329,note_on,0,0,0,,4,,,76,127
7402,note_off,73,0,0,,4,,,64,127
7439,note_on,37,0,0,,4,,,64,127
7512,note_off,73,0,0,,10,,,57,127
7549,note_on,37,0,0,,10,,,57,127
7622,note_off,73,0,0,,4,,,64,127
7659,note_on,37,0,0,,6,,,66,127
7732,note_off,73,0,0,,10,,,57,127
7766,note_off,34,0,0,,4,,,76,127
7768,note_on,2,0,0,,12,,,59,127
7768,note_on,0,0,0,,2,,,74,127
7841,note_off,73,0,0,,6,,,66,127
7878,note_on,37,0,0,,8,,,68,127
7951,note_off,73,0,0,,12,,,59,127
7985,note_off,34,0,0,,8,,,68,127
7985,note_off,0,0,0,,2,,,74,127
7987,note_on,2,0,0,,1,,,61,127
7987,note_on,0,0,0,,1,,,73,127
8097,note_on,110,0,0,,10,,,69,127
8170,note_off,73,0,0,,1,,,73,127
8204,note_off,34,0,0,,10,,,69,127
8204,note_off,0,0,0,,1,,,61,127
8206,note_on,2,0,0,,10,,,57,127
8206,note_on,0,0,0,,4,,,76,127
8316,note_on,110,0,0,,4,,,64,127
8389,note_off,73,0,0,,10,,,57,127
8426,note_on,37,0,0,,10,,,57,127
8499,note_off,73,0,0,,4,,,64,127
8536,note_on,37,0,0,,6,,,66,127
8609,note_off,73,0,0,,10,,,57,127
8643,note_off,34,0,0,,4,,,76,127
8645,note_on,2,0,0,,12,,,59,127
8645,note_on,0,0,0,,2,,,74,127
8718,note_off,73,0,0,,6,,,66,127
8755,note_on,37,0,0,,8,,,68,127
8828,note_off,73,0,0,,12,,,59,127
8862,note_off,34,0,0,,8,,,68,127
8862,note_off,0,0,0,,2,,,74,127
8864,note_on,2,0,0,,10,,,57,127
8864,note_on,0,0,0,,1,,,73,127
8974,note_on,110,0,0,,10,,,69,127
9081,note_off,107,0,0,,10,,,69,127
9081,note_off,0,0,0,,1,,,73,127
9083,note_on,2,0,0,,1,,,73,127
9190,note_off,107,0,0,,1,,,73,127
9192,note_on,2,0,0,,4,,,76,127
9299,note_off,107,0,0,,4,,,76,127
9301,note_on,2,0,0,,10,,,81,127
9411,note_off,110,0,0,,10,,,57,127
9411,note_on,0,0,0,,4,,,76,127
9507,note_off,96,0,0,,10,,,81,127
9518,note_off,11,0,0,,4,,,76,127
9520,note_on,2,0,0,,10,,,69,127
9520,note_on,0,0,0,,10,,,81,127
9627,note_off,107,0,0,,10,,,81,127
9629,note_on,2,0,0,,1,,,85,127
9736,note_off,107,0,0,,1,,,85,127
9736,note_off,0,0,0,,10,,,69,127
9738,note_on,2,0,0,,8,,,68,127
9738,note_on,0,0,0,,12,,,83,127
9848,note_on,110,0,0,,8,,,80,127
9898,note_off,50,0,0,,12,,,83,127
9955,note_off,57,0,0,,8,,,80,127
9957,note_on,2,0,0,,4,,,76,127
10064,note_off,107,0,0,,4,,,76,127
10066,note_on,2,0,0,,12,,,71,127
10171,note_off,105,0,0,,8,,,68,127
10173,note_off,2,0,0,,12,,,71,127
10175,note_on,2,0,0,,8,,,68,127
10282,note_off,107,0,0,,8,,,68,127
10284,note_on,2,0,0,,12,,,71,127
10391,note_off,107,0,0,,12,,,71,127
10393,note_on,2,0,0,,4,,,64,127
10393,note_on,0,0,0,,8,,,80,127
10500,note_off,107,0,0,,8,,,80,127
10502,note_on,2,0,0,,12,,,83,127
10609,note_off,107,0,0,,12,,,83,127
10609,note_off,0,0,0,,4,,,64,127
10611,note_on,2,0,0,,6,,,66,127
10611,note_on,0,0,0,,10,,,81,127
10721,note_on,110,0,0,,6,,,78,127
10748,note_off,27,0,0,,10,,,81,127
10828,note_off,80,0,0,,6,,,78,127
10830,note_on,2,0,0,,3,,,75,127
10937,note_off,107,0,0,,3,,,75,127
10939,note_on,2,0,0,,10,,,69,127
11044,note_off,105,0,0,,6,,,66,127
11046,note_off,2,0,0,,10,,,69,127
11048,note_on,2,0,0,,6,,,66,127
11155,note_off,107,0,0,,6,,,66,127
11157,note_on,2,0,0,,10,,,69,127
11264,note_off,107,0,0,,10,,,69,127
11266,note_on,2,0,0,,3,,,63,127
11266,note_on,0,0,0,,6,,,78,127
11373,note_off,107,0,0,,6,,,78,127
11375,note_on,2,0,0,,10,,,81,127
11482,note_off,107,0,0,,10,,,81,127
11482,note_off,0,0,0,,3,,,63,127
11484,note_on,2,0,0,,4,,,52,127
11484,note_on,0,0,0,,8,,,80,127
11594,note_on,110,0,0,,4,,,64,127
11701,note_off,107,0,0,,4,,,52,127
11703,note_on,2,0,0,,12,,,59,127
11776,note_off,73,0,0,,4,,,64,127
11813,note_on,37,0,0,,4,,,64,127
11886,note_off,73,0,0,,12,,,59,127
11923,note_on,37,0,0,,8,,,56,127
11996,note_off,73,0,0,,4,,,64,127
12030,note_off,34,0,0,,8,,,56,127
12032,note_off,2,0,0,,8,,,80,127
12032,note_on,0,0,0,,12,,,59,127
12139,note_off,107,0,0,,12,,,59,127
12141,note_on,2,0,0,,4,,,52,127
12141,note_on,0,0,0,,12,,,83,127
12248,note_off,107,0,0,,4,,,52,127
12250,note_on,2,0,0,,4,,,64,127
12357,note_off,107,0,0,,4,,,64,127
12357,note_off,0,0,0,,12,,,83,127
12359,note_on,2,0,0,,10,,,57,127
12359,note_on,0,0,0,,1,,,73,127
12466,note_off,107,0,0,,10,,,57,127
12468,note_on,2,0,0,,1,,,61,127
12575,note_off,107,0,0,,1,,,61,127
12575,note_off,0,0,0,,1,,,73,127
12577,note_on,2,0,0,,6,,,54,127
12577,note_on,0,0,0,,10,,,81,127
12684,note_off,107,0,0,,6,,,54,127
12686,note_on,2,0,0,,10,,,57,127
12793,note_off,107,0,0,,10,,,57,127
12795,note_on,2,0,0,,3,,,51,127
12902,note_off,107,0,0,,3,,,51,127
12904,note_on,2,0,0,,6,,,54,127
13011,note_off,107,0,0,,6,,,54,127
13011,note_off,0,0,0,,10,,,81,127
13013,note_on,2,0,0,,12,,,47,127
13013,note_on,0,0,0,,8,,,80,127
13120,note_off,107,0,0,,8,,,80,127
13120,note_off,0,0,0,,12,,,47,127
13122,note_on,2,0,0,,3,,,51,127
13122,note_on,0,0,0,,6,,,78,127
13229,note_off,107,0,0,,6,,,78,127
13229,note_off,0,0,0,,3,,,51,127
13231,note_on,2,0,0,,4,,,52,127
13231,note_on,0,0,0,,8,,,80,127
13341,note_on,110,0,0,,4,,,64,127
13448,note_off,107,0,0,,4,,,52,127
13450,note_on,2,0,0,,12,,,59,127
13523,note_off,73,0,0,,4,,,64,127
13560,note_on,37,0,0,,4,,,64,127
13633,note_off,73,0,0,,12,,,59,127
13670,note_on,37,0,0,,8,,,56,127
13743,note_off,73,0,0,,4,,,64,127
13777,note_off,34,0,0,,8,,,56,127
13779,note_on,2,0,0,,12,,,59,127
13859,note_off,80,0,0,,8,,,80,127
13886,note_off,27,0,0,,12,,,59,127
13888,note_on,2,0,0,,4,,,52,127
13888,note_on,0,0,0,,12,,,83,127
13995,note_off,107,0,0,,4,,,52,127
13997,note_on,2,0,0,,4,,,64,127
14104,note_off,107,0,0,,4,,,64,127
14104,note_off,0,0,0,,12,,,83,127
14106,note_on,2,0,0,,10,,,57,127
14106,note_on,0,0,0,,1,,,73,127
14213,note_off,107,0,0,,10,,,57,127
14215,note_on,2,0,0,,1,,,61,127
14322,note_off,107,0,0,,1,,,61,127
14322,note_off,0,0,0,,1,,,73,127
14324,note_on,2,0,0,,6,,,54,127
14324,note_on,0,0,0,,10,,,81,127
14431,note_off,107,0,0,,6,,,54,127
14433,note_on,2,0,0,,10,,,57,127
14540,note_off,107,0,0,,10,,,57,127
14542,note_on,2,0,0,,3,,,51,127
14649,note_off,107,0,0,,3,,,51,127
14651,note_on,2,0,0,,6,,,54,127
14758,note_off,107,0,0,,6,,,54,127
14758,note_off,0,0,0,,10,,,81,127
14760,note_on,2,0,0,,12,,,47,127
14760,note_on,0,0,0,,8,,,80,127
14867,note_off,107,0,0,,8,,,80,127
14867,note_off,0,0,0,,12,,,47,127
14869,note_on,2,0,0,,3,,,51,127
14869,note_on,0,0,0,,6,,,78,127
14976,note_off,107,0,0,,6,,,78,127
14976,note_off,0,0,0,,3,,,51,127
14978,note_on,2,0,0,,4,,,52,127
14978,note_on,0,0,0,,8,,,80,127
15085,note_off,107,0,0,,8,,,80,127
15087,note_on,2,0,0,,12,,,83,127
15194,note_off,107,0,0,,12,,,83,127
15196,note_on,2,0,0,,3,,,75,127
15303,note_off,107,0,0,,3,,,75,127
15305,note_on,2,0,0,,6,,,78,127
15412,note_off,107,0,0,,6,,,78,127
15414,note_on,2,0,0,,4,,,76,127
15501,note_off,87,0,0,,4,,,52,127
15522,note_off,21,0,0,,4,,,76,127
15524,note_on,2,0,0,,8,,,80,127
15631,note_off,107,0,0,,8,,,80,127
15633,note_on,2,0,0,,8,,,56,127
15633,note_on,0,0,0,,12,,,71,127
15740,note_off,107,0,0,,12,,,71,127
15742,note_on,2,0,0,,3,,,75,127
15849,note_off,107,0,0,,3,,,75,127
15849,note_off,0,0,0,,8,,,56,127
15851,note_on,2,0,0,,10,,,57,127
15851,note_on,0,0,0,,1,,,73,127
15958,note_off,107,0,0,,1,,,73,127
15960,note_on,2,0,0,,4,,,76,127
16067,note_off,107,0,0,,4,,,76,127
16069,note_on,2,0,0,,10,,,69,127
16176,note_off,107,0,0,,10,,,69,127
16178,note_on,2,0,0,,1,,,73,127
16285,note_off,107,0,0,,1,,,73,127
16287,note_on,2,0,0,,10,,,45,127
16287,note_on,0,0,0,,6,,,66,127
16394,note_off,107,0,0,,6,,,66,127
16396,note_on,2,0,0,,10,,,69,127
16503,note_off,107,0,0,,10,,,69,127
16505,note_on,2,0,0,,3,,,63,127
16612,note_off,107,0,0,,3,,,63,127
16614,note_on,2,0,0,,6,,,66,127
16721,note_off,107,0,0,,6,,,66,127
16721,note_off,0,0,0,,10,,,45,127
16722,note_off,1,0,0,,10,,,57,127
16723,note_on,1,0,0,,12,,,47,127
16723,note_on,0,0,0,,12,,,59,127
17160,note_off,437,0,0,,12,,,47,127
17270,note_off,110,0,0,,12,,,59,127
17300,note_on,30,0,0,,10,,,57,127
17407,note_off,107,0,0,,10,,,57,127
17409,note_on,2,0,0,,7,,,55,127
17516,note_off,107,0,0,,7,,,55,127
17518,note_on,2,0,0,,6,,,54,127
17625,note_off,107,0,0,,6,,,54,127
17627,note_on,2,0,0,,4,,,40,127
17737,note_on,110,0,0,,12,,,83,127
17844,note_off,107,0,0,,12,,,83,127
17846,note_on,2,0,0,,7,,,79,127
17953,note_off,107,0,0,,7,,,79,127
17955,note_on,2,0,0,,4,,,76,127
18062,note_off,107,0,0,,4,,,76,127
18064,note_on,2,0,0,,12,,,71,127
18064,note_on,0,0,0,,4,,,52,127
18171,note_off,107,0,0,,12,,,71,127
18173,note_on,2,0,0,,7,,,67,127
18280,note_off,107,0,0,,7,,,67,127
18282,note_on,2,0,0,,4,,,64,127
18389,note_off,107,0,0,,4,,,64,127
18391,note_on,2,0,0,,12,,,71,127
18423,note_off,32,0,0,,4,,,40,127
18498,note_off,75,0,0,,12,,,71,127
18498,note_off,0,0,0,,4,,,52,127
18500,note_on,2,0,0,,0,,,72,127
18500,note_on,0,0,0,,10,,,45,127
18607,note_off,107,0,0,,10,,,45,127
18609,note_on,2,0,0,,0,,,48,127
18716,note_off,107,0,0,,0,,,48,127
18718,note_on,2,0,0,,4,,,52,127
18825,note_off,107,0,0,,4,,,52,127
18827,note_on,2,0,0,,10,,,57,127
18934,note_off,107,0,0,,10,,,57,127
18936,note_on,2,0,0,,0,,,60,127
19043,note_off,107,0,0,,0,,,60,127
19045,note_on,2,0,0,,4,,,64,127
19152,note_off,107,0,0,,4,,,64,127
19153,note_off,1,0,0,,0,,,72,127
19154,note_on,1,0,0,,10,,,69,127
19261,note_off,107,0,0,,10,,,69,127
19263,note_on,2,0,0,,0,,,72,127
19370,note_off,107,0,0,,0,,,72,127
19372,note_on,2,0,0,,3,,,63,127
19482,note_on,110,0,0,,0,,,84,127
19589,note_off,107,0,0,,0,,,84,127
19591,note_on,2,0,0,,10,,,81,127
19698,note_off,107,0,0,,10,,,81,127
19700,note_on,2,0,0,,6,,,78,127
19807,note_off,107,0,0,,6,,,78,127
19807,note_off,0,0,0,,3,,,63,127
19809,note_on,2,0,0,,3,,,75,127
19809,note_on,0,0,0,,12,,,59,127
19916,note_off,107,0,0,,3,,,75,127
19918,note_on,2,0,0,,12,,,71,127
20025,note_off,107,0,0,,12,,,71,127
20027,note_on,2,0,0,,6,,,78,127
20134,note_off,107,0,0,,6,,,78,127
20136,note_on,2,0,0,,10,,,81,127
20243,note_off,107,0,0,,10,,,81,127
20243,note_off,0,0,0,,12,,,59,127
20245,note_on,2,0,0,,7,,,79,127
20245,note_on,0,0,0,,4,,,52,127
20352,note_off,107,0,0,,7,,,79,127
20354,note_on,2,0,0,,12,,,83,127
20461,note_off,107,0,0,,12,,,83,127
20463,note_on,2,0,0,,7,,,79,127
20570,note_off,107,0,0,,7,,,79,127
20572,note_on,2,0,0,,4,,,76,127
20679,note_off,107,0,0,,4,,,76,127
20681,note_on,2,0,0,,12,,,71,127
20788,note_off,107,0,0,,12,,,71,127
20790,note_on,2,0,0,,7,,,67,127
20897,note_off,107,0,0,,7,,,67,127
20899,note_on,2,0,0,,4,,,64,127
20972,note_off,73,0,0,,4,,,52,127
21006,note_off,34,0,0,,4,,,64,127
21008,note_on,2,0,0,,12,,,71,127
21115,note_off,107,0,0,,12,,,71,127
21117,note_on,2,0,0,,0,,,72,127
21117,note_on,0,0,0,,10,,,45,127
21224,note_off,107,0,0,,10,,,45,127
21226,note_on,2,0,0,,0,,,48,127
21333,note_off,107,0,0,,0,,,48,127
21335,note_on,2,0,0,,4,,,52,127
21442,note_off,107,0,0,,4,,,52,127
21444,note_on,2,0,0,,10,,,57,127
21551,note_off,107,0,0,,10,,,57,127
21553,note_on,2,0,0,,0,,,60,127
21660,note_off,107,0,0,,0,,,60,127
21662,note_on,2,0,0,,4,,,64,127
21769,note_off,107,0,0,,4,,,64,127
21770,note_off,1,0,0,,0,,,72,127
21771,note_on,1,0,0,,10,,,69,127
21878,note_off,107,0,0,,10,,,69,127
21880,note_on,2,0,0,,0,,,72,127
21987,note_off,107,0,0,,0,,,72,127
21989,note_on,2,0,0,,3,,,63,127
22099,note_on,110,0,0,,0,,,84,127
22206,note_off,107,0,0,,0,,,84,127
22208,note_on,2,0,0,,10,,,81,127
22315,note_off,107,0,0,,10,,,81,127
22317,note_on,2,0,0,,6,,,78,127
22424,note_off,107,0,0,,6,,,78,127
22424,note_off,0,0,0,,3,,,63,127
22426,note_on,2,0,0,,3,,,75,127
22426,note_on,0,0,0,,12,,,59,127
22533,note_off,107,0,0,,3,,,75,127
22535,note_on,2,0,0,,12,,,71,127
22642,note_off,107,0,0,,12,,,71,127
22644,note_on,2,0,0,,6,,,78,127
22751,note_off,107,0,0,,6,,,78,127
22753,note_on,2,0,0,,10,,,81,127
22860,note_off,107,0,0,,10,,,81,127
22860,note_off,0,0,0,,12,,,59,127
22862,note_on,2,0,0,,7,,,79,127
22862,note_on,0,0,0,,4,,,52,127
22969,note_off,107,0,0,,7,,,79,127
22971,note_on,2,0,0,,12,,,83,127
23078,note_off,107,0,0,,12,,,83,127
23080,note_on,2,0,0,,3,,,75,127
23187,note_off,107,0,0,,3,,,75,127
23189,note_on,2,0,0,,6,,,78,127
23296,note_off,107,0,0,,6,,,78,127
23298,note_on,2,0,0,,4,,,76,127
23405,note_off,107,0,0,,4,,,76,127
23407,note_off,2,0,0,,4,,,52,127
23407,note_on,0,0,0,,7,,,79,127
23514,note_off,107,0,0,,7,,,79,127
23516,note_on,2,0,0,,12,,,71,127
23516,note_on,0,0,0,,7,,,55,127
23623,note_off,107,0,0,,12,,,71,127
23625,note_on,2,0,0,,2,,,74,127
23732,note_off,107,0,0,,2,,,74,127
23732,note_off,0,0,0,,7,,,55,127
23734,note_on,2,0,0,,0,,,72,127
23734,note_on,0,0,0,,10,,,57,127
23841,note_off,107,0,0,,0,,,72,127
23843,note_on,2,0,0,,4,,,76,127
23950,note_off,107,0,0,,4,,,76,127
23952,note_on,2,0,0,,10,,,69,127
24059,note_off,107,0,0,,10,,,69,127
24061,note_on,2,0,0,,0,,,72,127
24168,note_off,107,0,0,,0,,,72,127
24170,note_on,2,0,0,,6,,,66,127
24170,note_on,0,0,0,,10,,,45,127
24277,note_off,107,0,0,,6,,,66,127
24279,note_on,2,0,0,,10,,,69,127
24386,note_off,107,0,0,,10,,,69,127
24388,note_on,2,0,0,,3,,,63,127
24495,note_off,107,0,0,,3,,,63,127
24497,note_on,2,0,0,,6,,,66,127
24598,note_off,101,0,0,,10,,,57,127
24605,note_off,7,0,0,,6,,,66,127
24605,note_off,0,0,0,,10,,,45,127
24607,note_on,2,0,0,,12,,,59,127
24607,note_on,0,0,0,,12,,,47,127
24934,note_off,327,0,0,,12,,,59,127
24973,note_on,39,0,0,,3,,,63,127
24973,note_on,0,0,0,,12,,,71,127
24973,note_on,0,0,0,,12,,,59,127
25042,note_off,69,0,0,,12,,,47,127
25081,note_off,39,0,0,,12,,,71,127
25081,note_off,0,0,0,,3,,,63,127
25083,note_on,2,0,0,,4,,,64,127
25083,note_on,0,0,0,,0,,,72,127
25083,note_on,0,0,0,,12,,,47,127
25190,note_off,107,0,0,,12,,,59,127
25192,note_on,2,0,0,,10,,,57,127
25299,note_off,107,0,0,,12,,,47,127
25299,note_off,0,0,0,,0,,,72,127
25299,note_off,0,0,0,,4,,,64,127
25301,note_on,2,0,0,,6,,,66,127
25301,note_on,0,0,0,,3,,,75,127
25301,note_on,0,0,0,,12,,,47,127
25408,note_off,107,0,0,,10,,,57,127
25410,note_on,2,0,0,,10,,,57,127
25483,note_off,73,0,0,,12,,,47,127
25517,note_off,34,0,0,,3,,,75,127
25517,note_off,0,0,0,,6,,,66,127
25519,note_on,2,0,0,,7,,,67,127
25519,note_on,0,0,0,,4,,,76,127
25519,note_on,0,0,0,,12,,,47,127
25592,note_off,73,0,0,,10,,,57,127
25629,note_on,37,0,0,,7,,,55,127
25702,note_off,73,0,0,,12,,,47,127
25736,note_off,34,0,0,,4,,,76,127
25736,note_off,0,0,0,,7,,,67,127
25738,note_on,2,0,0,,10,,,69,127
25738,note_on,0,0,0,,6,,,78,127
25738,note_on,0,0,0,,12,,,47,127
25811,note_off,73,0,0,,7,,,55,127
25848,note_on,37,0,0,,6,,,54,127
25955,note_off,107,0,0,,6,,,54,127
25955,note_off,0,0,0,,12,,,47,127
25955,note_off,0,0,0,,6,,,78,127
25955,note_off,0,0,0,,10,,,69,127
25957,note_on,2,0,0,,10,,,81,127
25957,note_on,0,0,0,,12,,,71,127
25957,note_on,0,0,0,,12,,,47,127
26064,note_off,107,0,0,,10,,,81,127
26066,note_on,2,0,0,,7,,,79,127
26173,note_off,107,0,0,,7,,,79,127
26173,note_off,0,0,0,,12,,,47,127
26175,note_on,2,0,0,,6,,,78,127
26175,note_on,0,0,0,,12,,,47,127
26175,note_on,0,0,0,,11,,,58,127
26282,note_off,107,0,0,,6,,,78,127
26284,note_on,2,0,0,,4,,,76,127
26389,note_off,105,0,0,,12,,,71,127
26391,note_off,2,0,0,,4,,,76,127
26391,note_off,0,0,0,,11,,,58,127
26391,note_off,0,0,0,,12,,,47,127
26393,note_on,2,0,0,,3,,,75,127
26393,note_on,0,0,0,,12,,,47,127
26393,note_on,0,0,0,,12,,,59,127
26667,note_off,274,0,0,,3,,,75,127
26720,note_off,53,0,0,,12,,,59,127
26722,note_on,2,0,0,,3,,,63,127
26722,note_on,0,0,0,,12,,,71,127
26722,note_on,0,0,0,,12,,,59,127
26827,note_off,105,0,0,,12,,,47,127
26829,note_off,2,0,0,,12,,,71,127
26829,note_off,0,0,0,,3,,,63,127
26831,note_on,2,0,0,,0,,,72,127
26831,note_on,0,0,0,,4,,,64,127
26831,note_on,0,0,0,,12,,,47,127
26938,note_off,107,0,0,,12,,,59,127
26940,note_on,2,0,0,,10,,,57,127
27013,note_off,73,0,0,,12,,,47,127
27047,note_off,34,0,0,,4,,,64,127
27047,note_off,0,0,0,,0,,,72,127
27049,note_on,2,0,0,,6,,,66,127
27049,note_on,0,0,0,,3,,,75,127
27049,note_on,0,0,0,,12,,,47,127
27122,note_off,73,0,0,,10,,,57,127
27159,note_on,37,0,0,,10,,,57,127
27232,note_off,73,0,0,,12,,,47,127
27266,note_off,34,0,0,,3,,,75,127
27266,note_off,0,0,0,,6,,,66,127
27268,note_on,2,0,0,,4,,,76,127
27268,note_on,0,0,0,,7,,,67,127
27268,note_on,0,0,0,,12,,,47,127
27341,note_off,73,0,0,,10,,,57,127
27378,note_on,37,0,0,,7,,,55,127
27451,note_off,73,0,0,,12,,,47,127
27485,note_off,34,0,0,,7,,,67,127
27485,note_off,0,0,0,,4,,,76,127
27487,note_on,2,0,0,,6,,,78,127
27487,note_on,0,0,0,,10,,,69,127
27487,note_on,0,0,0,,12,,,47,127
27560,note_off,73,0,0,,7,,,55,127
27597,note_on,37,0,0,,6,,,54,127
27670,note_off,73,0,0,,12,,,47,127
27704,note_off,34,0,0,,6,,,54,127
27704,note_off,0,0,0,,10,,,69,127
27704,note_off,0,0,0,,6,,,78,127
27706,note_on,2,0,0,,12,,,71,127
27706,note_on,0,0,0,,10,,,81,127
27706,note_on,0,0,0,,12,,,47,127
27813,note_off,107,0,0,,10,,,81,127
27815,note_on,2,0,0,,7,,,79,127
27922,note_off,107,0,0,,7,,,79,127
27922,note_off,0,0,0,,12,,,47,127
27924,note_on,2,0,0,,6,,,78,127
27924,note_on,0,0,0,,11,,,58,127
27924,note_on,0,0,0,,12,,,47,127
28031,note_off,107,0,0,,6,,,78,127
28033,note_on,2,0,0,,4,,,76,127
28138,note_off,105,0,0,,12,,,71,127
28140,note_off,2,0,0,,4,,,76,127
28140,note_off,0,0,0,,12,,,47,127
28140,note_off,0,0,0,,11,,,58,127
28142,note_on,2,0,0,,3,,,75,127
28142,note_on,0,0,0,,12,,,47,127
28142,note_on,0,0,0,,12,,,59,127
28380,note_on,238,0,0,,12,,,83,127
28381,note_off,1,0,0,,3,,,75,127
28469,note_off,88,0,0,,12,,,59,127
28469,note_off,0,0,0,,12,,,47,127
28490,note_on,21,0,0,,12,,,59,127
28490,note_on,0,0,0,,12,,,47,127
28597,note_off,107,0,0,,12,,,47,127
28597,note_off,0,0,0,,12,,,59,127
28599,note_on,2,0,0,,10,,,57,127
28599,note_on,0,0,0,,1,,,49,127
28696,note_off,97,0,0,,12,,,83,127
28709,note_on,13,0,0,,10,,,81,127
28816,note_off,107,0,0,,10,,,81,127
28816,note_off,0,0,0,,1,,,49,127
28816,note_off,0,0,0,,10,,,57,127
28818,note_on,2,0,0,,12,,,59,127
28818,note_on,0,0,0,,3,,,51,127
28818,note_on,0,0,0,,7,,,79,127
28925,note_off,107,0,0,,7,,,79,127
28927,note_on,2,0,0,,6,,,78,127
29034,note_off,107,0,0,,6,,,78,127
29034,note_off,0,0,0,,3,,,51,127
29034,note_off,0,0,0,,12,,,59,127
29036,note_on,2,0,0,,0,,,60,127
29036,note_on,0,0,0,,4,,,52,127
29036,note_on,0,0,0,,4,,,76,127
29143,note_off,107,0,0,,4,,,76,127
29145,note_on,2,0,0,,7,,,79,127
29252,note_off,107,0,0,,7,,,79,127
29252,note_off,0,0,0,,4,,,52,127
29252,note_off,0,0,0,,0,,,60,127
29254,note_on,2,0,0,,3,,,63,127
29254,note_on,0,0,0,,6,,,54,127
29254,note_on,0,0,0,,10,,,81,127
29364,note_on,110,0,0,,3,,,75,127
29471,note_off,107,0,0,,3,,,75,127
29471,note_off,0,0,0,,10,,,81,127
29471,note_off,0,0,0,,6,,,54,127
29471,note_off,0,0,0,,3,,,63,127
29473,note_on,2,0,0,,4,,,64,127
29473,note_on,0,0,0,,7,,,55,127
29473,note_on,0,0,0,,12,,,83,127
29580,note_off,107,0,0,,12,,,83,127
29582,note_on,2,0,0,,7,,,79,127
29689,note_off,107,0,0,,7,,,79,127
29689,note_off,0,0,0,,7,,,55,127
29689,note_off,0,0,0,,4,,,64,127
29691,note_on,2,0,0,,10,,,45,127
29691,note_on,0,0,0,,10,,,57,127
29691,note_on,0,0,0,,6,,,78,127
29798,note_off,107,0,0,,6,,,78,127
29800,note_on,2,0,0,,4,,,76,127
29907,note_off,107,0,0,,4,,,76,127
29907,note_off,0,0,0,,10,,,57,127
29907,note_off,0,0,0,,10,,,45,127
29909,note_on,2,0,0,,12,,,59,127
29909,note_on,0,0,0,,12,,,47,127
29909,note_on,0,0,0,,3,,,75,127
30126,note_off,217,0,0,,3,,,75,127
30128,note_on,2,0,0,,12,,,83,127
30235,note_off,107,0,0,,12,,,47,127
30235,note_off,0,0,0,,12,,,59,127
30237,note_on,2,0,0,,12,,,59,127
30237,note_on,0,0,0,,12,,,47,127
30344,note_off,107,0,0,,12,,,47,127
30344,note_off,0,0,0,,12,,,59,127
30346,note_on,2,0,0,,10,,,57,127
30346,note_on,0,0,0,,1,,,49,127
30453,note_off,107,0,0,,12,,,83,127
30455,note_on,2,0,0,,10,,,81,127
30562,note_off,107,0,0,,10,,,81,127
30562,note_off,0,0,0,,1,,,49,127
30562,note_off,0,0,0,,10,,,57,127
30564,note_on,2,0,0,,3,,,51,127
30564,note_on,0,0,0,,12,,,59,127
30564,note_on,0,0,0,,7,,,79,127
30671,note_off,107,0,0,,7,,,79,127
30673,note_on,2,0,0,,6,,,78,127
30780,note_off,107,0,0,,6,,,78,127
30780,note_off,0,0,0,,12,,,59,127
30780,note_off,0,0,0,,3,,,51,127
30782,note_on,2,0,0,,0,,,60,127
30782,note_on,0,0,0,,4,,,52,127
30782,note_on,0,0,0,,4,,,76,127
30889,note_off,107,0,0,,4,,,76,127
30891,note_on,2,0,0,,7,,,79,127
30998,note_off,107,0,0,,7,,,79,127
30998,note_off,0,0,0,,4,,,52,127
30998,note_off,0,0,0,,0,,,60,127
31000,note_on,2,0,0,,3,,,63,127
31000,note_on,0,0,0,,6,,,54,127
31000,note_on,0,0,0,,10,,,81,127
31110,note_on,110,0,0,,3,,,75,127
31217,note_off,107,0,0,,3,,,75,127
31217,note_off,0,0,0,,10,,,81,127
31217,note_off,0,0,0,,6,,,54,127
31217,note_off,0,0,0,,3,,,63,127
31219,note_on,2,0,0,,4,,,64,127
31219,note_on,0,0,0,,7,,,55,127
31219,note_on,0,0,0,,12,,,83,127
31326,note_off,107,0,0,,12,,,83,127
31328,note_on,2,0,0,,7,,,79,127
31435,note_off,107,0,0,,7,,,79,127
31435,note_off,0,0,0,,7,,,55,127
31435,note_off,0,0,0,,4,,,64,127
31437,note_on,2,0,0,,10,,,57,127
31437,note_on,0,0,0,,10,,,45,127
31437,note_on,0,0,0,,6,,,78,127
31544,note_off,107,0,0,,6,,,78,127
31546,note_on,2,0,0,,4,,,76,127
31626,note_off,80,0,0,,4,,,76,127
31653,note_off,27,0,0,,10,,,45,127
31653,note_off,0,0,0,,10,,,57,127
31655,note_on,2,0,0,,12,,,59,127
31655,note_on,0,0,0,,12,,,47,127
31655,note_on,0,0,0,,3,,,75,127
31762,note_off,107,0,0,,3,,,75,127
31764,note_on,2,0,0,,6,,,78,127
31871,note_off,107,0,0,,6,,,78,127
31873,note_on,2,0,0,,10,,,69,127
31980,note_off,107,0,0,,12,,,47,127
31980,note_off,0,0,0,,12,,,59,127
31982,note_on,2,0,0,,1,,,61,127
32089,note_off,107,0,0,,1,,,61,127
32091,note_on,2,0,0,,3,,,63,127
32198,note_off,107,0,0,,3,,,63,127
32198,note_off,0,0,0,,10,,,69,127
32200,note_on,2,0,0,,6,,,66,127
32200,note_on,0,0,0,,1,,,73,127
32307,note_off,107,0,0,,1,,,73,127
32307,note_off,0,0,0,,6,,,66,127
32309,note_on,2,0,0,,12,,,59,127
32309,note_on,0,0,0,,12,,,71,127
32416,note_off,107,0,0,,12,,,71,127
32416,note_off,0,0,0,,12,,,59,127
32418,note_on,2,0,0,,3,,,63,127
32418,note_on,0,0,0,,10,,,69,127
32525,note_off,107,0,0,,10,,,69,127
32525,note_off,0,0,0,,3,,,63,127
32527,note_on,2,0,0,,4,,,52,127
32527,note_on,0,0,0,,8,,,68,127
32634,note_off,107,0,0,,4,,,52,127
32636,note_on,2,0,0,,4,,,64,127
32743,note_off,107,0,0,,4,,,64,127
32745,note_on,2,0,0,,8,,,56,127
32863,note_off,118,0,0,,8,,,56,127
32873,note_on,10,0,0,,12,,,83,127
32873,note_on,0,0,0,,4,,,64,127
32875,note_off,2,0,0,,8,,,68,127
32980,note_off,105,0,0,,4,,,64,127
32980,note_off,0,0,0,,12,,,83,127
32982,note_on,2,0,0,,6,,,78,127
32982,note_on,0,0,0,,10,,,57,127
33089,note_off,107,0,0,,10,,,57,127
33091,note_on,2,0,0,,10,,,69,127
33198,note_off,107,0,0,,10,,,69,127
33200,note_on,2,0,0,,8,,,68,127
33307,note_off,107,0,0,,8,,,68,127
33309,note_on,2,0,0,,6,,,66,127
33416,note_off,107,0,0,,6,,,66,127
33418,note_on,2,0,0,,3,,,63,127
33525,note_off,107,0,0,,3,,,63,127
33525,note_off,0,0,0,,6,,,78,127
33527,note_on,2,0,0,,10,,,81,127
33527,note_on,0,0,0,,12,,,59,127
33634,note_off,107,0,0,,12,,,59,127
33634,note_off,0,0,0,,10,,,81,127
33636,note_on,2,0,0,,8,,,80,127
33636,note_on,0,0,0,,8,,,56,127
33743,note_off,107,0,0,,8,,,56,127
33743,note_off,0,0,0,,8,,,80,127
33745,note_on,2,0,0,,12,,,83,127
33745,note_on,0,0,0,,4,,,64,127
33852,note_off,107,0,0,,4,,,64,127
33852,note_off,0,0,0,,12,,,83,127
33854,note_on,2,0,0,,6,,,78,127
33854,note_on,0,0,0,,10,,,57,127
33961,note_off,107,0,0,,10,,,57,127
33963,note_on,2,0,0,,8,,,68,127
34070,note_off,107,0,0,,8,,,68,127
34072,note_on,2,0,0,,6,,,66,127
34179,note_off,107,0,0,,6,,,66,127
34181,note_on,2,0,0,,4,,,64,127
34288,note_off,107,0,0,,4,,,64,127
34290,note_on,2,0,0,,3,,,63,127
34397,note_off,107,0,0,,3,,,63,127
34397,note_off,0,0,0,,6,,,78,127
34399,note_on,2,0,0,,10,,,81,127
34399,note_on,0,0,0,,12,,,59,127
34506,note_off,107,0,0,,12,,,59,127
34506,note_off,0,0,0,,10,,,81,127
34508,note_on,2,0,0,,8,,,80,127
34508,note_on,0,0,0,,4,,,64,127
34615,note_off,107,0,0,,4,,,64,127
34615,note_off,0,0,0,,8,,,80,127
34617,note_on,2,0,0,,6,,,78,127
34617,note_on,0,0,0,,10,,,57,127
34724,note_off,107,0,0,,10,,,57,127
34724,note_off,0,0,0,,6,,,78,127
34726,note_on,2,0,0,,8,,,80,127
34726,note_on,0,0,0,,12,,,47,127
34833,note_off,107,0,0,,8,,,80,127
34835,note_on,2,0,0,,12,,,83,127
34942,note_off,107,0,0,,12,,,83,127
34942,note_off,0,0,0,,12,,,47,127
34944,note_on,2,0,0,,4,,,76,127
34944,note_on,0,0,0,,12,,,59,127
35051,note_off,107,0,0,,4,,,76,127
35053,note_on,2,0,0,,3,,,75,127
35150,note_off,97,0,0,,3,,,75,127
35160,note_off,10,0,0,,12,,,59,127
35165,note_on,5,0,0,,4,,,76,127
35165,note_on,0,0,0,,1,,,61,127
35282,note_on,117,0,0,,1,,,85,127
35291,note_off,9,0,0,,4,,,76,127
35382,note_off,91,0,0,,1,,,61,127
35391,note_on,9,0,0,,10,,,57,127
35498,note_off,107,0,0,,1,,,85,127
35500,note_on,2,0,0,,10,,,81,127
35607,note_off,107,0,0,,10,,,57,127
35609,note_on,2,0,0,,12,,,59,127
35716,note_off,107,0,0,,10,,,81,127
35718,note_on,2,0,0,,6,,,78,127
35825,note_off,107,0,0,,12,,,59,127
35827,note_on,2,0,0,,10,,,57,127
35934,note_off,107,0,0,,6,,,78,127
35936,note_on,2,0,0,,3,,,75,127
36043,note_off,107,0,0,,3,,,75,127
36043,note_off,0,0,0,,10,,,57,127
36045,note_on,2,0,0,,4,,,76,127
36045,note_on,0,0,0,,8,,,56,127
36152,note_off,107,0,0,,4,,,76,127
36154,note_on,2,0,0,,1,,,85,127
36261,note_off,107,0,0,,8,,,56,127
36263,note_on,2,0,0,,10,,,57,127
36370,note_off,107,0,0,,1,,,85,127
36372,note_on,2,0,0,,10,,,81,127
36482,note_on,110,0,0,,10,,,45,127
36589,note_off,107,0,0,,10,,,81,127
36591,note_on,2,0,0,,6,,,78,127
36696,note_off,105,0,0,,10,,,57,127
36701,note_on,5,0,0,,10,,,57,127
36808,note_off,107,0,0,,6,,,78,127
36810,note_on,2,0,0,,3,,,75,127
36895,note_off,85,0,0,,3,,,75,127
36916,note_off,21,0,0,,10,,,45,127
36918,note_off,2,0,0,,10,,,57,127
36929,note_on,11,0,0,,8,,,80,127
37036,note_off,107,0,0,,8,,,80,127
37038,note_on,2,0,0,,4,,,76,127
37145,note_off,107,0,0,,4,,,76,127
37147,note_on,2,0,0,,12,,,71,127
37147,note_on,0,0,0,,8,,,44,127
37147,note_on,0,0,0,,8,,,56,127
37254,note_off,107,0,0,,12,,,71,127
37256,note_on,2,0,0,,8,,,68,127
37363,note_off,107,0,0,,8,,,68,127
37363,note_off,0,0,0,,8,,,56,127
37363,note_off,0,0,0,,8,,,44,127
37365,note_on,2,0,0,,6,,,66,127
37365,note_on,0,0,0,,10,,,45,127
37365,note_on,0,0,0,,10,,,57,127
37472,note_off,107,0,0,,6,,,66,127
37474,note_on,2,0,0,,4,,,64,127
37581,note_off,107,0,0,,4,,,64,127
37581,note_off,0,0,0,,10,,,57,127
37581,note_off,0,0,0,,10,,,45,127
37583,note_on,2,0,0,,4,,,64,127
37583,note_on,0,0,0,,12,,,47,127
37583,note_on,0,0,0,,12,,,59,127
37690,note_off,107,0,0,,4,,,64,127
37692,note_on,2,0,0,,3,,,63,127
37783,note_off,91,0,0,,3,,,63,127
37799,note_off,16,0,0,,12,,,59,127
37799,note_off,0,0,0,,12,,,47,127
37801,note_on,2,0,0,,8,,,80,127
37908,note_off,107,0,0,,8,,,80,127
37910,note_on,2,0,0,,4,,,76,127
38017,note_off,107,0,0,,4,,,76,127
38019,note_on,2,0,0,,12,,,71,127
38019,note_on,0,0,0,,8,,,44,127
38019,note_on,0,0,0,,8,,,56,127
38126,note_off,107,0,0,,12,,,71,127
38128,note_on,2,0,0,,8,,,68,127
38235,note_off,107,0,0,,8,,,68,127
38235,note_off,0,0,0,,8,,,56,127
38235,note_off,0,0,0,,8,,,44,127
38237,note_on,2,0,0,,6,,,66,127
38237,note_on,0,0,0,,10,,,45,127
38237,note_on,0,0,0,,10,,,57,127
38344,note_off,107,0,0,,6,,,66,127
38346,note_on,2,0,0,,4,,,64,127
38453,note_off,107,0,0,,4,,,64,127
38453,note_off,0,0,0,,10,,,57,127
38453,note_off,0,0,0,,10,,,45,127
38455,note_on,2,0,0,,4,,,64,127
38455,note_on,0,0,0,,12,,,47,127
38455,note_on,0,0,0,,12,,,59,127
38562,note_off,107,0,0,,4,,,64,127
38564,note_on,2,0,0,,3,,,63,127
38651,note_off,87,0,0,,3,,,63,127
38672,note_off,21,0,0,,12,,,59,127
38672,note_off,0,0,0,,12,,,47,127
38674,note_on,2,0,0,,12,,,83,127
38781,note_off,107,0,0,,12,,,83,127
38783,note_on,2,0,0,,8,,,80,127
38890,note_off,107,0,0,,8,,,80,127
38892,note_on,2,0,0,,4,,,76,127
38892,note_on,0,0,0,,8,,,44,127
38892,note_on,0,0,0,,8,,,56,127
38999,note_off,107,0,0,,4,,,76,127
39001,note_on,2,0,0,,12,,,71,127
39001,note_on,0,0,0,,8,,,68,127
39108,note_off,107,0,0,,8,,,68,127
39108,note_off,0,0,0,,12,,,71,127
39108,note_off,0,0,0,,8,,,56,127
39108,note_off,0,0,0,,8,,,44,127
39110,note_on,2,0,0,,10,,,69,127
39110,note_on,0,0,0,,6,,,66,127
39110,note_on,0,0,0,,10,,,45,127
39110,note_on,0,0,0,,10,,,57,127
39217,note_off,107,0,0,,6,,,66,127
39217,note_off,0,0,0,,10,,,69,127
39219,note_on,2,0,0,,8,,,68,127
39219,note_on,0,0,0,,4,,,64,127
39326,note_off,107,0,0,,4,,,64,127
39326,note_off,0,0,0,,8,,,68,127
39326,note_off,0,0,0,,10,,,57,127
39326,note_off,0,0,0,,10,,,45,127
39328,note_on,2,0,0,,4,,,64,127
39328,note_on,0,0,0,,8,,,68,127
39328,note_on,0,0,0,,12,,,47,127
39328,note_on,0,0,0,,12,,,59,127
39435,note_off,107,0,0,,8,,,68,127
39435,note_off,0,0,0,,4,,,64,127
39437,note_on,2,0,0,,6,,,66,127
39437,note_on,0,0,0,,3,,,63,127
39544,note_off,107,0,0,,3,,,63,127
39544,note_off,0,0,0,,6,,,66,127
39544,note_off,0,0,0,,12,,,59,127
39544,note_off,0,0,0,,12,,,47,127
39546,note_on,2,0,0,,4,,,64,127
39546,note_on,0,0,0,,4,,,40,127
39546,note_on,0,0,0,,4,,,52,127
40346,note_off,800,0,0,,4,,,40,127
40421,note_off,75,0,0,,4,,,64,127
40451,note_on,30,0,0,,4,,,76,127
40531,note_off,80,0,0,,4,,,52,127
40561,note_on,30,0,0,,4,,,64,127
40668,note_off,107,0,0,,4,,,64,127
40670,note_on,2,0,0,,8,,,68,127
40777,note_off,107,0,0,,8,,,68,127
40779,note_on,2,0,0,,6,,,66,127
40886,note_off,107,0,0,,6,,,66,127
40888,note_on,2,0,0,,4,,,64,127
40995,note_off,107,0,0,,4,,,64,127
40997,note_on,2,0,0,,2,,,62,127
41104,note_off,107,0,0,,2,,,62,127
41106,note_on,2,0,0,,1,,,61,127
41213,note_off,107,0,0,,1,,,61,127
41215,note_on,2,0,0,,12,,,59,127
41322,note_off,107,0,0,,12,,,59,127
41322,note_off,0,0,0,,4,,,76,127
41324,note_on,2,0,0,,11,,,58,127
41324,note_on,0,0,0,,4,,,76,127
41431,note_off,107,0,0,,11,,,58,127
41433,note_on,2,0,0,,7,,,55,127
41540,note_off,107,0,0,,7,,,55,127
41542,note_on,2,0,0,,6,,,54,127
41649,note_off,107,0,0,,6,,,54,127
41651,note_on,2,0,0,,4,,,52,127
41758,note_off,107,0,0,,4,,,52,127
41758,note_off,0,0,0,,4,,,76,127
41760,note_on,2,0,0,,2,,,50,127
41760,note_on,0,0,0,,4,,,76,127
41867,note_off,107,0,0,,2,,,50,127
41869,note_on,2,0,0,,1,,,49,127
41976,note_off,107,0,0,,1,,,49,127
41978,note_on,2,0,0,,12,,,47,127
42085,note_off,107,0,0,,12,,,47,127
42087,note_on,2,0,0,,11,,,46,127
42181,note_off,94,0,0,,4,,,76,127
42195,note_off,14,0,0,,11,,,46,127
42197,note_on,2,0,0,,12,,,47,127
42197,note_on,0,0,0,,2,,,74,127
42304,note_off,107,0,0,,2,,,74,127
42306,note_on,2,0,0,,6,,,78,127
42413,note_off,107,0,0,,6,,,78,127
42415,note_on,2,0,0,,12,,,71,127
42522,note_off,107,0,0,,12,,,71,127
42524,note_on,2,0,0,,1,,,73,127
42631,note_off,107,0,0,,1,,,73,127
42633,note_on,2,0,0,,2,,,74,127
42740,note_off,107,0,0,,2,,,74,127
42742,note_on,2,0,0,,12,,,83,127
42849,note_off,107,0,0,,12,,,83,127
42851,note_on,2,0,0,,12,,,71,127
42958,note_off,107,0,0,,12,,,71,127
42960,note_on,2,0,0,,1,,,73,127
43067,note_off,107,0,0,,1,,,73,127
43068,note_off,1,0,0,,12,,,47,127
43069,note_on,1,0,0,,2,,,74,127
43179,note_on,110,0,0,,2,,,62,127
43286,note_off,107,0,0,,2,,,62,127
43288,note_on,2,0,0,,6,,,66,127
43395,note_off,107,0,0,,6,,,66,127
43397,note_on,2,0,0,,4,,,64,127
43504,note_off,107,0,0,,4,,,64,127
43506,note_on,2,0,0,,2,,,62,127
43613,note_off,107,0,0,,2,,,62,127
43615,note_on,2,0,0,,1,,,61,127
43722,note_off,107,0,0,,1,,,61,127
43724,note_on,2,0,0,,12,,,59,127
43831,note_off,107,0,0,,12,,,59,127
43833,note_on,2,0,0,,10,,,57,127
43940,note_off,107,0,0,,10,,,57,127
43940,note_off,0,0,0,,2,,,74,127
43942,note_on,2,0,0,,8,,,56,127
43942,note_on,0,0,0,,2,,,74,127
44049,note_off,107,0,0,,8,,,56,127
44051,note_on,2,0,0,,6,,,54,127
44158,note_off,107,0,0,,6,,,54,127
44160,note_on,2,0,0,,4,,,52,127
44267,note_off,107,0,0,,4,,,52,127
44269,note_on,2,0,0,,2,,,50,127
44376,note_off,107,0,0,,2,,,50,127
44376,note_off,0,0,0,,2,,,74,127
44378,note_on,2,0,0,,0,,,48,127
44378,note_on,0,0,0,,2,,,74,127
44485,note_off,107,0,0,,0,,,48,127
44487,note_on,2,0,0,,12,,,47,127
44594,note_off,107,0,0,,12,,,47,127
44596,note_on,2,0,0,,10,,,45,127
44703,note_off,107,0,0,,10,,,45,127
44705,note_on,2,0,0,,8,,,44,127
44804,note_off,99,0,0,,2,,,74,127
44812,note_off,8,0,0,,8,,,44,127
44814,note_on,2,0,0,,10,,,45,127
44814,note_on,0,0,0,,0,,,72,127
44921,note_off,107,0,0,,0,,,72,127
44923,note_on,2,0,0,,4,,,76,127
45030,note_off,107,0,0,,4,,,76,127
45032,note_on,2,0,0,,10,,,69,127
45139,note_off,107,0,0,,10,,,69,127
45141,note_on,2,0,0,,12,,,71,127
45248,note_off,107,0,0,,12,,,71,127
45250,note_on,2,0,0,,0,,,72,127
45357,note_off,107,0,0,,0,,,72,127
45359,note_on,2,0,0,,10,,,81,127
45466,note_off,107,0,0,,10,,,81,127
45468,note_on,2,0,0,,10,,,69,127
45575,note_off,107,0,0,,10,,,69,127
45577,note_on,2,0,0,,12,,,71,127
45684,note_off,107,0,0,,12,,,71,127
45685,note_off,1,0,0,,10,,,45,127
45686,note_on,1,0,0,,0,,,72,127
45796,note_on,110,0,0,,0,,,60,127
45903,note_off,107,0,0,,0,,,60,127
45905,note_on,2,0,0,,4,,,64,127
46012,note_off,107,0,0,,4,,,64,127
46014,note_on,2,0,0,,2,,,62,127
46121,note_off,107,0,0,,2,,,62,127
46123,note_on,2,0,0,,0,,,60,127
46230,note_off,107,0,0,,0,,,60,127
46232,note_on,2,0,0,,12,,,59,127
46339,note_off,107,0,0,,12,,,59,127
46341,note_on,2,0,0,,10,,,57,127
46448,note_off,107,0,0,,10,,,57,127
46450,note_on,2,0,0,,7,,,55,127
46557,note_off,107,0,0,,7,,,55,127
46557,note_off,0,0,0,,0,,,72,127
46559,note_on,2,0,0,,6,,,54,127
46559,note_on,0,0,0,,0,,,72,127
46666,note_off,107,0,0,,6,,,54,127
46668,note_on,2,0,0,,4,,,52,127
46775,note_off,107,0,0,,4,,,52,127
46777,note_on,2,0,0,,2,,,50,127
46884,note_off,107,0,0,,2,,,50,127
46886,note_on,2,0,0,,0,,,48,127
46993,note_off,107,0,0,,0,,,48,127
46993,note_off,0,0,0,,0,,,72,127
46995,note_on,2,0,0,,12,,,47,127
46995,note_on,0,0,0,,0,,,72,127
47102,note_off,107,0,0,,12,,,47,127
47104,note_on,2,0,0,,10,,,45,127
47211,note_off,107,0,0,,10,,,45,127
47213,note_on,2,0,0,,7,,,43,127
47320,note_off,107,0,0,,7,,,43,127
47322,note_on,2,0,0,,6,,,42,127
47421,note_off,99,0,0,,0,,,72,127
47429,note_off,8,0,0,,6,,,42,127
47431,note_on,2,0,0,,7,,,43,127
47431,note_on,0,0,0,,12,,,71,127
47538,note_off,107,0,0,,12,,,71,127
47540,note_on,2,0,0,,2,,,74,127
47647,note_off,107,0,0,,2,,,74,127
47649,note_on,2,0,0,,7,,,67,127
47756,note_off,107,0,0,,7,,,67,127
47758,note_on,2,0,0,,10,,,69,127
47865,note_off,107,0,0,,10,,,69,127
47867,note_on,2,0,0,,12,,,71,127
47974,note_off,107,0,0,,12,,,71,127
47976,note_on,2,0,0,,7,,,79,127
48083,note_off,107,0,0,,7,,,79,127
48085,note_on,2,0,0,,7,,,67,127
48192,note_off,107,0,0,,7,,,67,127
48194,note_on,2,0,0,,10,,,69,127
48301,note_off,107,0,0,,10,,,69,127
48301,note_off,0,0,0,,7,,,43,127
48303,note_on,2,0,0,,7,,,67,127
48303,note_on,0,0,0,,12,,,71,127
48410,note_off,107,0,0,,12,,,71,127
48412,note_on,2,0,0,,0,,,72,127
48519,note_off,107,0,0,,0,,,72,127
48519,note_off,0,0,0,,7,,,67,127
48521,note_on,2,0,0,,5,,,65,127
48521,note_on,0,0,0,,2,,,74,127
48628,note_off,107,0,0,,2,,,74,127
48628,note_off,0,0,0,,5,,,65,127
48630,note_on,2,0,0,,4,,,64,127
48630,note_on,0,0,0,,4,,,76,127
48737,note_off,107,0,0,,4,,,76,127
48737,note_off,0,0,0,,4,,,64,127
48739,note_on,2,0,0,,2,,,62,127
48739,note_on,0,0,0,,5,,,77,127
48846,note_off,107,0,0,,5,,,77,127
48848,note_on,2,0,0,,8,,,80,127
48955,note_off,107,0,0,,8,,,80,127
48955,note_off,0,0,0,,2,,,62,127
48957,note_on,2,0,0,,0,,,60,127
48957,note_on,0,0,0,,10,,,81,127
49064,note_off,107,0,0,,10,,,81,127
49064,note_off,0,0,0,,0,,,60,127
49066,note_on,2,0,0,,12,,,59,127
49066,note_on,0,0,0,,12,,,83,127
49173,note_off,107,0,0,,12,,,83,127
49173,note_off,0,0,0,,12,,,59,127
49175,note_on,2,0,0,,10,,,57,127
49175,note_on,0,0,0,,0,,,84,127
49285,note_on,110,0,0,,5,,,77,127
49392,note_off,107,0,0,,5,,,77,127
49392,note_off,0,0,0,,10,,,57,127
49394,note_on,2,0,0,,4,,,64,127
49394,note_on,0,0,0,,7,,,55,127
49394,note_on,0,0,0,,4,,,76,127
49495,note_off,101,0,0,,0,,,84,127
49504,note_on,9,0,0,,12,,,83,127
49611,note_off,107,0,0,,12,,,83,127
49611,note_off,0,0,0,,7,,,55,127
49611,note_off,0,0,0,,4,,,64,127
49613,note_on,2,0,0,,2,,,62,127
49613,note_on,0,0,0,,5,,,53,127
49613,note_on,0,0,0,,10,,,81,127
49714,note_off,101,0,0,,4,,,76,127
49723,note_on,9,0,0,,2,,,74,127
49830,note_off,107,0,0,,2,,,74,127
49830,note_off,0,0,0,,5,,,53,127
49830,note_off,0,0,0,,2,,,62,127
49832,note_on,2,0,0,,0,,,60,127
49832,note_on,0,0,0,,4,,,52,127
49832,note_on,0,0,0,,0,,,72,127
49933,note_off,101,0,0,,10,,,81,127
49942,note_on,9,0,0,,7,,,79,127
50049,note_off,107,0,0,,7,,,79,127
50049,note_off,0,0,0,,4,,,52,127
50049,note_off,0,0,0,,0,,,60,127
50051,note_on,2,0,0,,12,,,59,127
50051,note_on,0,0,0,,2,,,50,127
50051,note_on,0,0,0,,5,,,77,127
50152,note_off,101,0,0,,0,,,72,127
50161,note_on,9,0,0,,12,,,71,127
50268,note_off,107,0,0,,12,,,71,127
50268,note_off,0,0,0,,2,,,50,127
50268,note_off,0,0,0,,12,,,59,127
50270,note_on,2,0,0,,0,,,48,127
50270,note_on,0,0,0,,10,,,57,127
50270,note_on,0,0,0,,10,,,69,127
50371,note_off,101,0,0,,5,,,77,127
50380,note_on,9,0,0,,4,,,76,127
50487,note_off,107,0,0,,4,,,76,127
50487,note_off,0,0,0,,10,,,57,127
50487,note_off,0,0,0,,0,,,48,127
50489,note_on,2,0,0,,8,,,56,127
50489,note_on,0,0,0,,12,,,47,127
50489,note_on,0,0,0,,2,,,74,127
50590,note_off,101,0,0,,10,,,69,127
50599,note_on,9,0,0,,8,,,68,127
50706,note_off,107,0,0,,8,,,68,127
50706,note_off,0,0,0,,12,,,47,127
50706,note_off,0,0,0,,8,,,56,127
50708,note_on,2,0,0,,10,,,45,127
50708,note_on,0,0,0,,10,,,57,127
50708,note_on,0,0,0,,10,,,69,127
50809,note_off,101,0,0,,2,,,74,127
50818,note_on,9,0,0,,0,,,72,127
50925,note_off,107,0,0,,0,,,72,127
50925,note_off,0,0,0,,10,,,69,127
50925,note_off,0,0,0,,10,,,57,127
50925,note_off,0,0,0,,10,,,45,127
50927,note_on,2,0,0,,4,,,52,127
50927,note_on,0,0,0,,12,,,71,127
51254,note_off,327,0,0,,12,,,71,127
51302,note_on,48,0,0,,4,,,64,127
51302,note_on,0,0,0,,8,,,68,127
51302,note_on,0,0,0,,4,,,76,127
51361,note_off,59,0,0,,4,,,52,127
51409,note_off,48,0,0,,4,,,76,127
51409,note_off,0,0,0,,8,,,68,127
51411,note_on,2,0,0,,4,,,52,127
51411,note_on,0,0,0,,5,,,77,127
51411,note_on,0,0,0,,10,,,69,127
51518,note_off,107,0,0,,4,,,64,127
51520,note_on,2,0,0,,2,,,62,127
51593,note_off,73,0,0,,4,,,52,127
51627,note_off,34,0,0,,10,,,69,127
51627,note_off,0,0,0,,5,,,77,127
51629,note_on,2,0,0,,4,,,52,127
51629,note_on,0,0,0,,12,,,71,127
51629,note_on,0,0,0,,8,,,80,127
51702,note_off,73,0,0,,2,,,62,127
51739,note_on,37,0,0,,2,,,62,127
51812,note_off,73,0,0,,4,,,52,127
51846,note_off,34,0,0,,8,,,80,127
51846,note_off,0,0,0,,12,,,71,127
51848,note_on,2,0,0,,4,,,52,127
51848,note_on,0,0,0,,10,,,81,127
51848,note_on,0,0,0,,0,,,72,127
51921,note_off,73,0,0,,2,,,62,127
51958,note_on,37,0,0,,0,,,60,127
52031,note_off,73,0,0,,4,,,52,127
52065,note_off,34,0,0,,0,,,72,127
52065,note_off,0,0,0,,10,,,81,127
52067,note_on,2,0,0,,4,,,52,127
52067,note_on,0,0,0,,12,,,83,127
52067,note_on,0,0,0,,2,,,74,127
52140,note_off,73,0,0,,0,,,60,127
52177,note_on,37,0,0,,12,,,59,127
52250,note_off,73,0,0,,4,,,52,127
52284,note_off,34,0,0,,12,,,59,127
52284,note_off,0,0,0,,2,,,74,127
52284,note_off,0,0,0,,12,,,83,127
52286,note_on,2,0,0,,4,,,52,127
52286,note_on,0,0,0,,2,,,86,127
52286,note_on,0,0,0,,4,,,76,127
52393,note_off,107,0,0,,2,,,86,127
52395,note_on,2,0,0,,0,,,84,127
52502,note_off,107,0,0,,0,,,84,127
52502,note_off,0,0,0,,4,,,52,127
52504,note_on,2,0,0,,3,,,63,127
52504,note_on,0,0,0,,4,,,52,127
52504,note_on,0,0,0,,12,,,83,127
52611,note_off,107,0,0,,12,,,83,127
52613,note_on,2,0,0,,10,,,81,127
52718,note_off,105,0,0,,4,,,76,127
52720,note_off,2,0,0,,10,,,81,127
52720,note_off,0,0,0,,4,,,52,127
52720,note_off,0,0,0,,3,,,63,127
52722,note_on,2,0,0,,4,,,64,127
52722,note_on,0,0,0,,4,,,52,127
52722,note_on,0,0,0,,8,,,80,127
52996,note_off,274,0,0,,8,,,80,127
53049,note_off,53,0,0,,4,,,64,127
53051,note_on,2,0,0,,4,,,64,127
53051,note_on,0,0,0,,4,,,76,127
53051,note_on,0,0,0,,8,,,68,127
53156,note_off,105,0,0,,4,,,52,127
53158,note_off,2,0,0,,8,,,68,127
53158,note_off,0,0,0,,4,,,76,127
53160,note_on,2,0,0,,4,,,52,127
53160,note_on,0,0,0,,5,,,77,127
53160,note_on,0,0,0,,10,,,69,127
53267,note_off,107,0,0,,4,,,64,127
53269,note_on,2,0,0,,2,,,62,127
53342,note_off,73,0,0,,4,,,52,127
53376,note_off,34,0,0,,10,,,69,127
53376,note_off,0,0,0,,5,,,77,127
53378,note_on,2,0,0,,4,,,52,127
53378,note_on,0,0,0,,12,,,71,127
53378,note_on,0,0,0,,8,,,80,127
53451,note_off,73,0,0,,2,,,62,127
53488,note_on,37,0,0,,2,,,62,127
53561,note_off,73,0,0,,4,,,52,127
53595,note_off,34,0,0,,8,,,80,127
53595,note_off,0,0,0,,12,,,71,127
53597,note_on,2,0,0,,4,,,52,127
53597,note_on,0,0,0,,10,,,81,127
53597,note_on,0,0,0,,0,,,72,127
53670,note_off,73,0,0,,2,,,62,127
53707,note_on,37,0,0,,0,,,60,127
53780,note_off,73,0,0,,4,,,52,127
53814,note_off,34,0,0,,0,,,72,127
53814,note_off,0,0,0,,10,,,81,127
53816,note_on,2,0,0,,4,,,52,127
53816,note_on,0,0,0,,12,,,83,127
53816,note_on,0,0,0,,2,,,74,127
53889,note_off,73,0,0,,0,,,60,127
53926,note_on,37,0,0,,12,,,59,127
53999,note_off,73,0,0,,4,,,52,127
54033,note_off,34,0,0,,12,,,59,127
54033,note_off,0,0,0,,2,,,74,127
54033,note_off,0,0,0,,12,,,83,127
54035,note_on,2,0,0,,4,,,52,127
54035,note_on,0,0,0,,2,,,86,127
54035,note_on,0,0,0,,4,,,76,127
54142,note_off,107,0,0,,2,,,86,127
54144,note_on,2,0,0,,0,,,84,127
54251,note_off,107,0,0,,0,,,84,127
54251,note_off,0,0,0,,4,,,52,127
54253,note_on,2,0,0,,3,,,63,127
54253,note_on,0,0,0,,4,,,52,127
54253,note_on,0,0,0,,12,,,83,127
54360,note_off,107,0,0,,12,,,83,127
54362,note_on,2,0,0,,10,,,81,127
54467,note_off,105,0,0,,4,,,76,127
54469,note_off,2,0,0,,10,,,81,127
54469,note_off,0,0,0,,4,,,52,127
54469,note_off,0,0,0,,3,,,63,127
54471,note_on,2,0,0,,4,,,64,127
54471,note_on,0,0,0,,4,,,52,127
54471,note_on,0,0,0,,8,,,80,127
54688,note_off,217,0,0,,8,,,80,127
54690,note_on,2,0,0,,4,,,76,127
54797,note_off,107,0,0,,4,,,52,127
54797,note_off,0,0,0,,4,,,64,127
54799,note_on,2,0,0,,4,,,52,127
54799,note_on,0,0,0,,4,,,40,127
54906,note_off,107,0,0,,4,,,40,127
54906,note_off,0,0,0,,4,,,52,127
54908,note_on,2,0,0,,5,,,41,127
54908,note_on,0,0,0,,2,,,50,127
55015,note_off,107,0,0,,4,,,76,127
55017,note_on,2,0,0,,2,,,74,127
55124,note_off,107,0,0,,2,,,74,127
55124,note_off,0,0,0,,2,,,50,127
55124,note_off,0,0,0,,5,,,41,127
55126,note_on,2,0,0,,4,,,52,127
55126,note_on,0,0,0,,8,,,44,127
55126,note_on,0,0,0,,0,,,72,127
55233,note_off,107,0,0,,0,,,72,127
55235,note_on,2,0,0,,12,,,71,127
55342,note_off,107,0,0,,12,,,71,127
55342,note_off,0,0,0,,8,,,44,127
55342,note_off,0,0,0,,4,,,52,127
55344,note_on,2,0,0,,10,,,45,127
55344,note_on,0,0,0,,5,,,53,127
55344,note_on,0,0,0,,10,,,69,127
55451,note_off,107,0,0,,10,,,69,127
55453,note_on,2,0,0,,0,,,72,127
55560,note_off,107,0,0,,0,,,72,127
55560,note_off,0,0,0,,5,,,53,127
55560,note_off,0,0,0,,10,,,45,127
55562,note_on,2,0,0,,8,,,56,127
55562,note_on,0,0,0,,12,,,47,127
55562,note_on,0,0,0,,2,,,74,127
55672,note_on,110,0,0,,8,,,68,127
55779,note_off,107,0,0,,8,,,68,127
55779,note_off,0,0,0,,2,,,74,127
55779,note_off,0,0,0,,12,,,47,127
55779,note_off,0,0,0,,8,,,56,127
55781,note_on,2,0,0,,10,,,57,127
55781,note_on,0,0,0,,0,,,48,127
55781,note_on,0,0,0,,4,,,76,127
55888,note_off,107,0,0,,4,,,76,127
55890,note_on,2,0,0,,0,,,72,127
55997,note_off,107,0,0,,0,,,72,127
55997,note_off,0,0,0,,0,,,48,127
55997,note_off,0,0,0,,10,,,57,127
55999,note_on,2,0,0,,10,,,57,127
55999,note_on,0,0,0,,2,,,50,127
55999,note_on,0,0,0,,12,,,71,127
56106,note_off,107,0,0,,12,,,71,127
56108,note_on,2,0,0,,10,,,69,127
56215,note_off,107,0,0,,10,,,69,127
56215,note_off,0,0,0,,2,,,50,127
56215,note_off,0,0,0,,10,,,57,127
56217,note_on,2,0,0,,4,,,52,127
56217,note_on,0,0,0,,8,,,68,127
56434,note_off,217,0,0,,8,,,68,127
56436,note_on,2,0,0,,4,,,76,127
56543,note_off,107,0,0,,4,,,52,127
56545,note_on,2,0,0,,4,,,52,127
56545,note_on,0,0,0,,4,,,40,127
56652,note_off,107,0,0,,4,,,40,127
56652,note_off,0,0,0,,4,,,52,127
56654,note_on,2,0,0,,2,,,50,127
56654,note_on,0,0,0,,6,,,42,127
56761,note_off,107,0,0,,4,,,76,127
56763,note_on,2,0,0,,2,,,74,127
56870,note_off,107,0,0,,2,,,74,127
56870,note_off,0,0,0,,6,,,42,127
56870,note_off,0,0,0,,2,,,50,127
56872,note_on,2,0,0,,8,,,44,127
56872,note_on,0,0,0,,4,,,52,127
56872,note_on,0,0,0,,0,,,72,127
56979,note_off,107,0,0,,0,,,72,127
56981,note_on,2,0,0,,12,,,71,127
57088,note_off,107,0,0,,12,,,71,127
57088,note_off,0,0,0,,4,,,52,127
57088,note_off,0,0,0,,8,,,44,127
57090,note_on,2,0,0,,5,,,53,127
57090,note_on,0,0,0,,10,,,45,127
57090,note_on,0,0,0,,10,,,69,127
57197,note_off,107,0,0,,10,,,69,127
57199,note_on,2,0,0,,0,,,72,127
57306,note_off,107,0,0,,0,,,72,127
57306,note_off,0,0,0,,10,,,45,127
57306,note_off,0,0,0,,5,,,53,127
57308,note_on,2,0,0,,12,,,47,127
57308,note_on,0,0,0,,8,,,56,127
57308,note_on,0,0,0,,2,,,74,127
57418,note_on,110,0,0,,8,,,68,127
57525,note_off,107,0,0,,8,,,68,127
57525,note_off,0,0,0,,2,,,74,127
57525,note_off,0,0,0,,8,,,56,127
57525,note_off,0,0,0,,12,,,47,127
57527,note_on,2,0,0,,0,,,48,127
57527,note_on,0,0,0,,10,,,57,127
57527,note_on,0,0,0,,4,,,76,127
57634,note_off,107,0,0,,4,,,76,127
57636,note_on,2,0,0,,0,,,72,127
57743,note_off,107,0,0,,0,,,72,127
57743,note_off,0,0,0,,0,,,48,127
57745,note_on,2,0,0,,2,,,50,127
57745,note_on,0,0,0,,12,,,71,127
57852,note_off,107,0,0,,12,,,71,127
57854,note_on,2,0,0,,10,,,69,127
57959,note_off,105,0,0,,10,,,57,127
57961,note_off,2,0,0,,10,,,69,127
57961,note_off,0,0,0,,2,,,50,127
57963,note_on,2,0,0,,4,,,52,127
57963,note_on,0,0,0,,8,,,68,127
58070,note_off,107,0,0,,8,,,68,127
58072,note_on,2,0,0,,12,,,83,127
58179,note_off,107,0,0,,12,,,83,127
58181,note_on,2,0,0,,8,,,80,127
58288,note_off,107,0,0,,8,,,80,127
58290,note_on,2,0,0,,5,,,77,127
58397,note_off,107,0,0,,5,,,77,127
58399,note_on,2,0,0,,4,,,40,127
58399,note_on,0,0,0,,2,,,74,127
58506,note_off,107,0,0,,2,,,74,127
58508,note_on,2,0,0,,12,,,71,127
58615,note_off,107,0,0,,12,,,71,127
58617,note_on,2,0,0,,8,,,68,127
58724,note_off,107,0,0,,8,,,68,127
58726,note_on,2,0,0,,2,,,74,127
58833,note_off,107,0,0,,2,,,74,127
58833,note_off,0,0,0,,4,,,40,127
58834,note_off,1,0,0,,4,,,52,127
58835,note_on,1,0,0,,10,,,45,127
58835,note_on,0,0,0,,0,,,72,127
58942,note_off,107,0,0,,0,,,72,127
58944,note_on,2,0,0,,10,,,81,127
59051,note_off,107,0,0,,10,,,81,127
59053,note_on,2,0,0,,4,,,76,127
59160,note_off,107,0,0,,4,,,76,127
59162,note_on,2,0,0,,0,,,72,127
59269,note_off,107,0,0,,0,,,72,127
59271,note_on,2,0,0,,10,,,69,127
59378,note_off,107,0,0,,10,,,69,127
59380,note_on,2,0,0,,4,,,64,127
59403,note_off,23,0,0,,10,,,45,127
59488,note_off,85,0,0,,4,,,64,127
59490,note_on,2,0,0,,0,,,60,127
59597,note_off,107,0,0,,0,,,60,127
59599,note_on,2,0,0,,4,,,64,127
59706,note_off,107,0,0,,4,,,64,127
59708,note_on,2,0,0,,2,,,38,127
59708,note_on,0,0,0,,5,,,65,127
59815,note_off,107,0,0,,2,,,38,127
59817,note_on,2,0,0,,5,,,41,127
59924,note_off,107,0,0,,5,,,41,127
59926,note_on,2,0,0,,10,,,45,127
60033,note_off,107,0,0,,10,,,45,127
60035,note_on,2,0,0,,2,,,50,127
60142,note_off,107,0,0,,2,,,50,127
60144,note_on,2,0,0,,5,,,53,127
60251,note_off,107,0,0,,5,,,53,127
60253,note_on,2,0,0,,10,,,57,127
60360,note_off,107,0,0,,10,,,57,127
60361,note_off,1,0,0,,5,,,65,127
60362,note_on,1,0,0,,2,,,62,127
60469,note_off,107,0,0,,2,,,62,127
60471,note_on,2,0,0,,5,,,65,127
60578,note_off,107,0,0,,5,,,65,127
60580,note_on,2,0,0,,8,,,56,127
60690,note_on,110,0,0,,12,,,83,127
60797,note_off,107,0,0,,12,,,83,127
60799,note_on,2,0,0,,8,,,80,127
60906,note_off,107,0,0,,8,,,80,127
60908,note_on,2,0,0,,5,,,77,127
61015,note_off,107,0,0,,5,,,77,127
61015,note_off,0,0,0,,8,,,56,127
61017,note_on,2,0,0,,4,,,52,127
61017,note_on,0,0,0,,2,,,74,127
61124,note_off,107,0,0,,2,,,74,127
61126,note_on,2,0,0,,12,,,71,127
61233,note_off,107,0,0,,12,,,71,127
61235,note_on,2,0,0,,8,,,68,127
61342,note_off,107,0,0,,8,,,68,127
61344,note_on,2,0,0,,2,,,74,127
61451,note_off,107,0,0,,2,,,74,127
61451,note_off,0,0,0,,4,,,52,127
61453,note_on,2,0,0,,10,,,57,127
61453,note_on,0,0,0,,0,,,72,127
61560,note_off,107,0,0,,0,,,72,127
61562,note_on,2,0,0,,10,,,81,127
61669,note_off,107,0,0,,10,,,81,127
61671,note_on,2,0,0,,4,,,76,127
61778,note_off,107,0,0,,4,,,76,127
61780,note_on,2,0,0,,0,,,72,127
61887,note_off,107,0,0,,0,,,72,127
61889,note_on,2,0,0,,10,,,45,127
61889,note_on,0,0,0,,10,,,69,127
61996,note_off,107,0,0,,10,,,69,127
61998,note_on,2,0,0,,4,,,64,127
62105,note_off,107,0,0,,4,,,64,127
62107,note_on,2,0,0,,0,,,60,127
62214,note_off,107,0,0,,0,,,60,127
62216,note_on,2,0,0,,4,,,64,127
62323,note_off,107,0,0,,4,,,64,127
62323,note_off,0,0,0,,10,,,45,127
62324,note_off,1,0,0,,10,,,57,127
62325,note_on,1,0,0,,2,,,38,127
62325,note_on,0,0,0,,5,,,65,127
62432,note_off,107,0,0,,2,,,38,127
62434,note_on,2,0,0,,5,,,41,127
62541,note_off,107,0,0,,5,,,41,127
62543,note_on,2,0,0,,10,,,45,127
62650,note_off,107,0,0,,10,,,45,127
62652,note_on,2,0,0,,2,,,50,127
62759,note_off,107,0,0,,2,,,50,127
62761,note_on,2,0,0,,5,,,53,127
62868,note_off,107,0,0,,5,,,53,127
62870,note_on,2,0,0,,10,,,57,127
62977,note_off,107,0,0,,10,,,57,127
62978,note_off,1,0,0,,5,,,65,127
62979,note_on,1,0,0,,2,,,62,127
63086,note_off,107,0,0,,2,,,62,127
63088,note_on,2,0,0,,5,,,65,127
63195,note_off,107,0,0,,5,,,65,127
63197,note_on,2,0,0,,8,,,56,127
63307,note_on,110,0,0,,12,,,83,127
63414,note_off,107,0,0,,12,,,83,127
63416,note_on,2,0,0,,8,,,80,127
63523,note_off,107,0,0,,8,,,80,127
63525,note_on,2,0,0,,5,,,77,127
63632,note_off,107,0,0,,5,,,77,127
63632,note_off,0,0,0,,8,,,56,127
63634,note_on,2,0,0,,4,,,52,127
63634,note_on,0,0,0,,2,,,74,127
63741,note_off,107,0,0,,2,,,74,127
63743,note_on,2,0,0,,12,,,71,127
63850,note_off,107,0,0,,12,,,71,127
63852,note_on,2,0,0,,8,,,68,127
63959,note_off,107,0,0,,8,,,68,127
63961,note_on,2,0,0,,2,,,74,127
64068,note_off,107,0,0,,2,,,74,127
64068,note_off,0,0,0,,4,,,52,127
64070,note_on,2,0,0,,10,,,45,127
64070,note_on,0,0,0,,1,,,73,127
64198,note_on,128,0,0,,4,,,76,127
64235,note_off,37,0,0,,1,,,73,127
64308,note_on,73,0,0,,4,,,64,127
64308,note_on,0,0,0,,1,,,49,127
64311,note_off,3,0,0,,10,,,45,127
64362,note_off,51,0,0,,4,,,76,127
64415,note_off,53,0,0,,4,,,64,127
64417,note_on,2,0,0,,8,,,68,127
64524,note_off,107,0,0,,8,,,68,127
64524,note_off,0,0,0,,1,,,49,127
64526,note_on,2,0,0,,6,,,66,127
64526,note_on,0,0,0,,2,,,50,127
64633,note_off,107,0,0,,6,,,66,127
64635,note_on,2,0,0,,10,,,69,127
64742,note_off,107,0,0,,10,,,69,127
64742,note_off,0,0,0,,2,,,50,127
64744,note_on,2,0,0,,8,,,68,127
64744,note_on,0,0,0,,4,,,52,127
64851,note_off,107,0,0,,8,,,68,127
64853,note_on,2,0,0,,12,,,71,127
64960,note_off,107,0,0,,12,,,71,127
64960,note_off,0,0,0,,4,,,52,127
64962,note_on,2,0,0,,10,,,69,127
64962,note_on,0,0,0,,6,,,54,127
65069,note_off,107,0,0,,10,,,69,127
65071,note_on,2,0,0,,1,,,73,127
65178,note_off,107,0,0,,1,,,73,127
65178,note_off,0,0,0,,6,,,54,127
65180,note_on,2,0,0,,12,,,71,127
65180,note_on,0,0,0,,8,,,56,127
65287,note_off,107,0,0,,12,,,71,127
65289,note_on,2,0,0,,2,,,74,127
65396,note_off,107,0,0,,2,,,74,127
65396,note_off,0,0,0,,8,,,56,127
65398,note_on,2,0,0,,1,,,73,127
65398,note_on,0,0,0,,10,,,57,127
65505,note_off,107,0,0,,1,,,73,127
65507,note_on,2,0,0,,4,,,76,127
65614,note_off,107,0,0,,4,,,76,127
65614,note_off,0,0,0,,10,,,57,127
65616,note_on,2,0,0,,2,,,74,127
65616,note_on,0,0,0,,12,,,59,127
65723,note_off,107,0,0,,2,,,74,127
65725,note_on,2,0,0,,6,,,78,127
65832,note_off,107,0,0,,6,,,78,127
65832,note_off,0,0,0,,12,,,59,127
65834,note_on,2,0,0,,4,,,76,127
65834,note_on,0,0,0,,1,,,49,127
65941,note_off,107,0,0,,4,,,76,127
65943,note_on,2,0,0,,10,,,81,127
66050,note_off,107,0,0,,10,,,81,127
66050,note_off,0,0,0,,1,,,49,127
66052,note_on,2,0,0,,6,,,78,127
66052,note_on,0,0,0,,2,,,50,127
66159,note_off,107,0,0,,6,,,78,127
66161,note_on,2,0,0,,2,,,74,127
66268,note_off,107,0,0,,2,,,74,127
66268,note_off,0,0,0,,2,,,50,127
66270,note_on,2,0,0,,1,,,73,127
66270,note_on,0,0,0,,4,,,52,127
66377,note_off,107,0,0,,1,,,73,127
66379,note_on,2,0,0,,10,,,69,127
66486,note_off,107,0,0,,10,,,69,127
66486,note_off,0,0,0,,4,,,52,127
66488,note_on,2,0,0,,8,,,68,127
66488,note_on,0,0,0,,2,,,50,127
66595,note_off,107,0,0,,8,,,68,127
66597,note_on,2,0,0,,12,,,71,127
66704,note_off,107,0,0,,12,,,71,127
66704,note_off,0,0,0,,2,,,50,127
66706,note_on,2,0,0,,10,,,69,127
66706,note_on,0,0,0,,1,,,49,127
66825,note_on,119,0,0,,10,,,57,127
66889,note_off,64,0,0,,1,,,49,127
66912,note_off,23,0,0,,10,,,69,127
66935,note_on,23,0,0,,1,,,49,127
66935,note_on,0,0,0,,4,,,76,127
67008,note_off,73,0,0,,10,,,57,127
67054,note_on,46,0,0,,10,,,57,127
67118,note_off,64,0,0,,1,,,49,127
67161,note_off,43,0,0,,10,,,57,127
67163,note_on,2,0,0,,1,,,73,127
67163,note_on,0,0,0,,2,,,50,127
67172,note_off,9,0,0,,4,,,76,127
67215,note_off,43,0,0,,1,,,73,127
67217,note_on,2,0,0,,12,,,71,127
67270,note_off,53,0,0,,12,,,71,127
67270,note_off,0,0,0,,2,,,50,127
67272,note_on,2,0,0,,1,,,73,127
67272,note_on,0,0,0,,1,,,61,127
67325,note_off,53,0,0,,1,,,73,127
67327,note_on,2,0,0,,12,,,71,127
67380,note_off,53,0,0,,12,,,71,127
67380,note_off,0,0,0,,1,,,61,127
67382,note_on,2,0,0,,1,,,73,127
67382,note_on,0,0,0,,12,,,59,127
67435,note_off,53,0,0,,1,,,73,127
67437,note_on,2,0,0,,12,,,71,127
67490,note_off,53,0,0,,12,,,71,127
67490,note_off,0,0,0,,12,,,59,127
67492,note_on,2,0,0,,10,,,69,127
67492,note_on,0,0,0,,10,,,57,127
67545,note_off,53,0,0,,10,,,69,127
67547,note_on,2,0,0,,12,,,71,127
67600,note_off,53,0,0,,10,,,57,127
67602,note_on,2,0,0,,8,,,56,127
67709,note_off,107,0,0,,8,,,56,127
67709,note_off,0,0,0,,12,,,71,127
67711,note_on,2,0,0,,2,,,74,127
67711,note_on,0,0,0,,4,,,52,127
67818,note_off,107,0,0,,4,,,52,127
67818,note_off,0,0,0,,2,,,74,127
67832,note_on,14,0,0,,1,,,73,127
67832,note_on,0,0,0,,10,,,57,127
67939,note_off,107,0,0,,10,,,57,127
67939,note_off,0,0,0,,1,,,73,127
67948,note_on,9,0,0,,1,,,49,127
67948,note_on,0,0,0,,4,,,76,127
68055,note_off,107,0,0,,4,,,76,127
68055,note_off,0,0,0,,1,,,49,127
68057,note_on,2,0,0,,2,,,50,127
68057,note_on,0,0,0,,1,,,73,127
68110,note_off,53,0,0,,1,,,73,127
68112,note_on,2,0,0,,12,,,71,127
68165,note_off,53,0,0,,12,,,71,127
68165,note_off,0,0,0,,2,,,50,127
68167,note_on,2,0,0,,1,,,61,127
68167,note_on,0,0,0,,1,,,73,127
68220,note_off,53,0,0,,1,,,73,127
68222,note_on,2,0,0,,12,,,71,127
68275,note_off,53,0,0,,12,,,71,127
68275,note_off,0,0,0,,1,,,61,127
68277,note_on,2,0,0,,12,,,59,127
68277,note_on,0,0,0,,1,,,73,127
68330,note_off,53,0,0,,1,,,73,127
68332,note_on,2,0,0,,12,,,71,127
68385,note_off,53,0,0,,12,,,71,127
68385,note_off,0,0,0,,12,,,59,127
68387,note_on,2,0,0,,10,,,57,127
68387,note_on,0,0,0,,1,,,73,127
68440,note_off,53,0,0,,1,,,73,127
68442,note_on,2,0,0,,12,,,71,127
68495,note_off,53,0,0,,10,,,57,127
68497,note_on,2,0,0,,8,,,56,127
68604,note_off,107,0,0,,8,,,56,127
68604,note_off,0,0,0,,12,,,71,127
68606,note_on,2,0,0,,4,,,52,127
68606,note_on,0,0,0,,2,,,74,127
68713,note_off,107,0,0,,2,,,74,127
68713,note_off,0,0,0,,4,,,52,127
68715,note_on,2,0,0,,10,,,57,127
68715,note_on,0,0,0,,1,,,73,127
68822,note_off,107,0,0,,1,,,73,127
68822,note_off,0,0,0,,10,,,57,127
68824,note_on,2,0,0,,1,,,49,127
68824,note_on,0,0,0,,12,,,71,127
68931,note_off,107,0,0,,1,,,49,127
68942,note_on,11,0,0,,4,,,52,127
68942,note_on,0,0,0,,1,,,73,127
68944,note_off,2,0,0,,12,,,71,127
69058,note_on,114,0,0,,10,,,81,127
69079,note_off,21,0,0,,1,,,73,127
69173,note_on,94,0,0,,2,,,50,127
69182,note_off,9,0,0,,4,,,52,127
69276,note_off,94,0,0,,10,,,81,127
69284,note_on,8,0,0,,8,,,80,127
69379,note_off,95,0,0,,2,,,50,127
69381,note_off,2,0,0,,8,,,80,127
69390,note_on,9,0,0,,10,,,81,127
69390,note_on,0,0,0,,1,,,49,127
69508,note_on,118,0,0,,4,,,76,127
69513,note_off,5,0,0,,10,,,81,127
69608,note_off,95,0,0,,1,,,49,127
69616,note_off,8,0,0,,4,,,76,127
69621,note_on,5,0,0,,6,,,78,127
69621,note_on,0,0,0,,2,,,50,127
69728,note_off,107,0,0,,6,,,78,127
69733,note_on,5,0,0,,10,,,69,127
69838,note_off,105,0,0,,2,,,50,127
69844,note_on,6,0,0,,4,,,52,127
69927,note_off,83,0,0,,10,,,69,127
69956,note_on,29,0,0,,4,,,76,127
70061,note_off,105,0,0,,4,,,52,127
70068,note_on,7,0,0,,2,,,50,127
70173,note_off,105,0,0,,4,,,76,127
70180,note_on,7,0,0,,8,,,68,127
70285,note_off,105,0,0,,2,,,50,127
70287,note_off,2,0,0,,8,,,68,127
70292,note_on,5,0,0,,10,,,69,127
70292,note_on,0,0,0,,1,,,49,127
70405,note_on,113,0,0,,10,,,81,127
70509,note_off,104,0,0,,1,,,49,127
70509,note_off,0,0,0,,10,,,69,127
70512,note_off,3,0,0,,10,,,81,127
70519,note_on,7,0,0,,2,,,50,127
70519,note_on,0,0,0,,6,,,78,127
70626,note_off,107,0,0,,6,,,78,127
70633,note_on,7,0,0,,2,,,74,127
70736,note_off,103,0,0,,2,,,50,127
70747,note_on,11,0,0,,4,,,52,127
70850,note_off,103,0,0,,2,,,74,127
70861,note_on,11,0,0,,12,,,71,127
70964,note_off,103,0,0,,4,,,52,127
70975,note_on,11,0,0,,2,,,50,127
71078,note_off,103,0,0,,12,,,71,127
71089,note_on,11,0,0,,8,,,68,127
71192,note_off,103,0,0,,2,,,50,127
71197,note_off,5,0,0,,8,,,68,127
71204,note_on,7,0,0,,1,,,49,127
71204,note_on,0,0,0,,10,,,69,127
71318,note_on,114,0,0,,10,,,81,127
71421,note_off,103,0,0,,10,,,69,127
71421,note_off,0,0,0,,1,,,49,127
71426,note_off,5,0,0,,10,,,81,127
71435,note_on,9,0,0,,6,,,78,127
71435,note_on,0,0,0,,2,,,50,127
71542,note_off,107,0,0,,6,,,78,127
71551,note_on,9,0,0,,2,,,74,127
71652,note_off,101,0,0,,2,,,50,127
71668,note_on,16,0,0,,4,,,52,127
71769,note_off,101,0,0,,2,,,74,127
71785,note_on,16,0,0,,12,,,71,127
71886,note_off,101,0,0,,4,,,52,127
71902,note_on,16,0,0,,2,,,50,127
72003,note_off,101,0,0,,12,,,71,127
72019,note_on,16,0,0,,8,,,68,127
72120,note_off,101,0,0,,2,,,50,127
72127,note_off,7,0,0,,8,,,68,127
72138,note_on,11,0,0,,1,,,49,127
72138,note_on,0,0,0,,10,,,81,127
72258,note_on,120,0,0,,4,,,76,127
72264,note_off,6,0,0,,10,,,81,127
72368,note_off,104,0,0,,1,,,49,127
72371,note_off,3,0,0,,4,,,76,127
72378,note_on,7,0,0,,2,,,50,127
72378,note_on,0,0,0,,6,,,78,127
72498,note_on,120,0,0,,10,,,69,127
72504,note_off,6,0,0,,6,,,78,127
72608,note_off,104,0,0,,2,,,50,127
72618,note_on,10,0,0,,4,,,52,127
72721,note_off,103,0,0,,10,,,69,127
72737,note_on,16,0,0,,12,,,71,127
72852,note_off,115,0,0,,12,,,71,127
72857,note_on,5,0,0,,4,,,40,127
72857,note_on,0,0,0,,10,,,69,127
72972,note_off,115,0,0,,10,,,69,127
72975,note_on,3,0,0,,8,,,68,127
73077,note_off,102,0,0,,4,,,52,127
73086,note_off,9,0,0,,4,,,40,127
73091,note_off,5,0,0,,8,,,68,127
73096,note_on,5,0,0,,10,,,45,127
73096,note_on,0,0,0,,12,,,71,127
73153,note_off,57,0,0,,12,,,71,127
73156,note_on,3,0,0,,10,,,69,127
73213,note_off,57,0,0,,10,,,69,127
73215,note_on,2,0,0,,12,,,71,127
73272,note_off,57,0,0,,12,,,71,127
73275,note_on,3,0,0,,10,,,69,127
74835,note_off,1560,0,0,,10,,,45,127
74837,note_off,2,0,0,,10,,,69,127
76800,end_of_track,1963,1,0,,,,,,
