tick,type,time,meta,track,program,channel,pitch,tempo,note,velocity
0,copyright,0,1,0,,,,,,
0,program_change,0,0,0,6,0,,,,
0,pitchwheel,0,0,0,,0,0,,,
0,program_change,0,0,0,6,1,,,,
0,pitchwheel,0,0,0,,1,-590,,,
0,program_change,0,0,0,6,2,,,,
0,pitchwheel,0,0,0,,2,-272,,,
0,program_change,0,0,0,6,3,,,,
0,pitchwheel,0,0,0,,3,-353,,,
0,program_change,0,0,0,6,4,,,,
0,pitchwheel,0,0,0,,4,-560,,,
0,program_change,0,0,0,6,5,,,,
0,pitchwheel,0,0,0,,5,-80,,,
0,program_change,0,0,0,6,6,,,,
0,pitchwheel,0,0,0,,6,-625,,,
0,program_change,0,0,0,6,7,,,,
0,pitchwheel,0,0,0,,7,-130,,,
0,program_change,0,0,0,6,8,,,,
0,pitchwheel,0,0,0,,8,-512,,,
0,program_change,0,0,0,6,10,,,,
0,pitchwheel,0,0,0,,10,-464,,,
0,program_change,0,0,0,6,11,,,,
0,pitchwheel,0,0,0,,11,-208,,,
0,program_change,0,0,0,6,12,,,,
0,pitchwheel,0,0,0,,12,-553,,,
0,set_tempo,0,1,0,,,,500000,,
100,note_on,100,0,0,,10,,,57,127
100,note_on,0,0,0,,10,,,81,127
298,note_off,198,0,0,,10,,,57,127
300,note_on,2,0,0,,12,,,59,127
498,note_off,198,0,0,,12,,,59,127
500,note_on,2,0,0,,1,,,61,127
698,note_off,198,0,0,,1,,,61,127
700,note_on,2,0,0,,2,,,62,127
798,note_off,98,0,0,,10,,,81,127
800,note_on,2,0,0,,6,,,78,127
898,note_off,98,0,0,,6,,,78,127
900,note_on,2,0,0,,2,,,74,127
998,note_off,98,0,0,,2,,,74,127
1000,note_on,2,0,0,,12,,,71,127
1098,note_off,98,0,0,,12,,,71,127
1100,note_on,2,0,0,,8,,,68,127
1198,note_off,98,0,0,,8,,,68,127
1200,note_on,2,0,0,,4,,,64,127
1298,note_off,98,0,0,,4,,,64,127
1298,note_off,0,0,0,,2,,,62,127
1300,note_on,2,0,0,,4,,,40,127
1300,note_on,0,0,0,,2,,,62,127
1398,note_off,98,0,0,,2,,,62,127
1400,note_on,2,0,0,,12,,,59,127
1498,note_off,98,0,0,,12,,,59,127
1500,note_on,2,0,0,,8,,,56,127
1598,note_off,98,0,0,,8,,,56,127
1600,note_on,2,0,0,,4,,,52,127
1698,note_off,98,0,0,,4,,,52,127
1700,note_on,2,0,0,,2,,,62,127
1798,note_off,98,0,0,,2,,,62,127
1800,note_on,2,0,0,,12,,,59,127
1898,note_off,98,0,0,,12,,,59,127
1898,note_off,0,0,0,,4,,,40,127
1900,note_on,2,0,0,,10,,,45,127
1900,note_on,0,0,0,,1,,,61,127
2098,note_off,198,0,0,,1,,,61,127
2100,note_on,2,0,0,,2,,,62,127
2298,note_off,198,0,0,,2,,,62,127
2300,note_on,2,0,0,,4,,,64,127
2400,note_off,100,0,0,,10,,,45,127
2498,note_off,98,0,0,,4,,,64,127
2517,note_on,19,0,0,,10,,,81,127
2517,note_on,0,0,0,,10,,,57,127
2715,note_off,198,0,0,,10,,,57,127
2717,note_on,2,0,0,,12,,,59,127
2915,note_off,198,0,0,,12,,,59,127
2917,note_on,2,0,0,,1,,,61,127
3115,note_off,198,0,0,,1,,,61,127
3117,note_on,2,0,0,,2,,,62,127
3215,note_off,98,0,0,,10,,,81,127
3217,note_on,2,0,0,,6,,,78,127
3315,note_off,98,0,0,,6,,,78,127
3317,note_on,2,0,0,,2,,,74,127
3415,note_off,98,0,0,,2,,,74,127
3417,note_on,2,0,0,,12,,,71,127
3515,note_off,98,0,0,,12,,,71,127
3517,note_on,2,0,0,,8,,,68,127
3615,note_off,98,0,0,,8,,,68,127
3617,note_on,2,0,0,,4,,,64,127
3715,note_off,98,0,0,,4,,,64,127
3715,note_off,0,0,0,,2,,,62,127
3717,note_on,2,0,0,,2,,,62,127
3717,note_on,0,0,0,,4,,,40,127
3815,note_off,98,0,0,,2,,,62,127
3817,note_on,2,0,0,,12,,,59,127
3915,note_off,98,0,0,,12,,,59,127
3917,note_on,2,0,0,,8,,,56,127
4015,note_off,98,0,0,,8,,,56,127
4017,note_on,2,0,0,,4,,,52,127
4115,note_off,98,0,0,,4,,,52,127
4117,note_on,2,0,0,,2,,,62,127
4215,note_off,98,0,0,,2,,,62,127
4217,note_on,2,0,0,,8,,,56,127
4315,note_off,98,0,0,,8,,,56,127
4315,note_off,0,0,0,,4,,,40,127
4317,note_on,2,0,0,,10,,,57,127
4317,note_on,0,0,0,,10,,,45,127
4818,note_off,501,0,0,,10,,,57,127
4916,note_off,98,0,0,,10,,,45,127
4918,note_on,2,0,0,,1,,,73,127
4918,note_on,0,0,0,,10,,,45,127
5016,note_off,98,0,0,,10,,,45,127
5016,note_off,0,0,0,,1,,,73,127
5018,note_on,2,0,0,,2,,,74,127
5018,note_on,0,0,0,,1,,,49,127
5116,note_off,98,0,0,,1,,,49,127
5116,note_off,0,0,0,,2,,,74,127
5118,note_on,2,0,0,,4,,,76,127
5118,note_on,0,0,0,,4,,,52,127
5216,note_off,98,0,0,,4,,,52,127
5218,note_on,2,0,0,,10,,,57,127
5316,note_off,98,0,0,,10,,,57,127
5318,note_on,2,0,0,,1,,,61,127
5416,note_off,98,0,0,,1,,,61,127
5418,note_on,2,0,0,,4,,,64,127
5516,note_off,98,0,0,,4,,,64,127
5518,note_on,2,0,0,,4,,,40,127
5716,note_off,198,0,0,,4,,,76,127
5718,note_on,2,0,0,,2,,,74,127
5916,note_off,198,0,0,,2,,,74,127
5918,note_on,2,0,0,,12,,,71,127
6116,note_off,198,0,0,,12,,,71,127
6117,note_off,1,0,0,,4,,,40,127
6118,note_on,1,0,0,,10,,,69,127
6118,note_on,0,0,0,,12,,,71,127
6118,note_on,0,0,0,,10,,,45,127
6216,note_off,98,0,0,,10,,,45,127
6218,note_on,2,0,0,,1,,,49,127
6316,note_off,98,0,0,,1,,,49,127
6316,note_off,0,0,0,,12,,,71,127
6316,note_off,0,0,0,,10,,,69,127
6318,note_on,2,0,0,,8,,,68,127
6318,note_on,0,0,0,,4,,,52,127
6416,note_off,98,0,0,,4,,,52,127
6418,note_on,2,0,0,,10,,,57,127
6516,note_off,98,0,0,,10,,,57,127
6516,note_off,0,0,0,,8,,,68,127
6518,note_on,2,0,0,,10,,,69,127
6518,note_on,0,0,0,,1,,,61,127
6616,note_off,98,0,0,,1,,,61,127
6618,note_on,2,0,0,,4,,,64,127
6716,note_off,98,0,0,,4,,,64,127
6716,note_off,0,0,0,,10,,,69,127
6718,note_on,2,0,0,,10,,,69,127
6718,note_on,0,0,0,,4,,,40,127
7117,note_off,399,0,0,,10,,,69,127
7119,note_on,2,0,0,,12,,,71,127
7219,note_off,100,0,0,,4,,,40,127
7307,note_off,88,0,0,,12,,,71,127
7328,note_on,21,0,0,,1,,,73,127
7328,note_on,0,0,0,,10,,,45,127
7426,note_off,98,0,0,,10,,,45,127
7426,note_off,0,0,0,,1,,,73,127
7428,note_on,2,0,0,,2,,,74,127
7428,note_on,0,0,0,,1,,,49,127
7526,note_off,98,0,0,,1,,,49,127
7526,note_off,0,0,0,,2,,,74,127
7528,note_on,2,0,0,,4,,,76,127
7528,note_on,0,0,0,,4,,,52,127
7626,note_off,98,0,0,,4,,,52,127
7628,note_on,2,0,0,,10,,,57,127
7726,note_off,98,0,0,,10,,,57,127
7728,note_on,2,0,0,,1,,,61,127
7826,note_off,98,0,0,,1,,,61,127
7828,note_on,2,0,0,,4,,,64,127
7926,note_off,98,0,0,,4,,,64,127
7928,note_on,2,0,0,,4,,,40,127
8126,note_off,198,0,0,,4,,,76,127
8128,note_on,2,0,0,,2,,,74,127
8326,note_off,198,0,0,,2,,,74,127
8328,note_on,2,0,0,,12,,,71,127
8526,note_off,198,0,0,,12,,,71,127
8527,note_off,1,0,0,,4,,,40,127
8528,note_on,1,0,0,,10,,,69,127
8528,note_on,0,0,0,,12,,,71,127
8528,note_on,0,0,0,,10,,,45,127
8626,note_off,98,0,0,,10,,,45,127
8628,note_on,2,0,0,,1,,,49,127
8726,note_off,98,0,0,,1,,,49,127
8726,note_off,0,0,0,,12,,,71,127
8726,note_off,0,0,0,,10,,,69,127
8728,note_on,2,0,0,,8,,,68,127
8728,note_on,0,0,0,,4,,,52,127
8826,note_off,98,0,0,,4,,,52,127
8828,note_on,2,0,0,,10,,,57,127
8926,note_off,98,0,0,,10,,,57,127
8926,note_off,0,0,0,,8,,,68,127
8928,note_on,2,0,0,,10,,,69,127
8928,note_on,0,0,0,,1,,,61,127
9026,note_off,98,0,0,,1,,,61,127
9028,note_on,2,0,0,,4,,,64,127
9126,note_off,98,0,0,,4,,,64,127
9126,note_off,0,0,0,,10,,,69,127
9128,note_on,2,0,0,,10,,,69,127
9128,note_on,0,0,0,,4,,,40,127
9326,note_off,198,0,0,,10,,,69,127
9328,note_on,2,0,0,,12,,,71,127
9528,note_on,200,0,0,,12,,,83,127
9680,note_off,152,0,0,,4,,,40,127
9724,note_off,44,0,0,,12,,,71,127
9728,note_on,4,0,0,,8,,,44,127
9789,note_off,61,0,0,,12,,,83,127
9829,note_on,40,0,0,,8,,,80,127
9927,note_off,98,0,0,,8,,,80,127
9929,note_on,2,0,0,,4,,,76,127
10027,note_off,98,0,0,,4,,,76,127
10029,note_on,2,0,0,,12,,,71,127
10127,note_off,98,0,0,,12,,,71,127
10129,note_on,2,0,0,,8,,,68,127
10227,note_off,98,0,0,,8,,,68,127
10229,note_on,2,0,0,,4,,,64,127
10327,note_off,98,0,0,,4,,,64,127
10327,note_off,0,0,0,,8,,,44,127
10329,note_on,2,0,0,,1,,,61,127
10329,note_on,0,0,0,,10,,,45,127
10527,note_off,198,0,0,,1,,,61,127
10529,note_on,2,0,0,,10,,,57,127
10727,note_off,198,0,0,,10,,,57,127
10729,note_on,2,0,0,,1,,,85,127
10929,note_on,200,0,0,,10,,,57,127
11027,note_off,98,0,0,,1,,,85,127
11029,note_on,2,0,0,,10,,,81,127
11127,note_off,98,0,0,,10,,,81,127
11129,note_on,2,0,0,,6,,,78,127
11227,note_off,98,0,0,,6,,,78,127
11229,note_on,2,0,0,,3,,,75,127
11327,note_off,98,0,0,,3,,,75,127
11329,note_on,2,0,0,,10,,,69,127
11427,note_off,98,0,0,,10,,,69,127
11429,note_on,2,0,0,,6,,,66,127
11527,note_off,98,0,0,,6,,,66,127
11527,note_off,0,0,0,,10,,,57,127
11527,note_off,0,0,0,,10,,,45,127
11529,note_on,2,0,0,,3,,,63,127
11529,note_on,0,0,0,,12,,,47,127
11627,note_off,98,0,0,,3,,,63,127
11629,note_on,2,0,0,,12,,,59,127
11727,note_off,98,0,0,,12,,,59,127
11729,note_on,2,0,0,,3,,,63,127
11827,note_off,98,0,0,,3,,,63,127
11829,note_on,2,0,0,,6,,,66,127
11927,note_off,98,0,0,,6,,,66,127
11929,note_on,2,0,0,,10,,,69,127
12027,note_off,98,0,0,,10,,,69,127
12029,note_on,2,0,0,,3,,,75,127
12102,note_off,73,0,0,,12,,,47,127
12112,note_off,10,0,0,,3,,,75,127
12137,note_on,25,0,0,,6,,,78,127
12137,note_on,0,0,0,,12,,,47,127
12235,note_off,98,0,0,,12,,,47,127
12235,note_off,0,0,0,,6,,,78,127
12237,note_on,2,0,0,,8,,,80,127
12237,note_on,0,0,0,,3,,,51,127
12335,note_off,98,0,0,,3,,,51,127
12335,note_off,0,0,0,,8,,,80,127
12337,note_on,2,0,0,,10,,,81,127
12337,note_on,0,0,0,,6,,,54,127
12435,note_off,98,0,0,,6,,,54,127
12437,note_on,2,0,0,,12,,,59,127
12535,note_off,98,0,0,,12,,,59,127
12537,note_on,2,0,0,,3,,,63,127
12635,note_off,98,0,0,,3,,,63,127
12637,note_on,2,0,0,,6,,,66,127
12735,note_off,98,0,0,,6,,,66,127
12735,note_off,0,0,0,,10,,,81,127
12737,note_on,2,0,0,,8,,,80,127
12737,note_on,0,0,0,,4,,,40,127
12835,note_off,98,0,0,,8,,,80,127
12837,note_on,2,0,0,,12,,,83,127
12935,note_off,98,0,0,,12,,,83,127
12937,note_on,2,0,0,,3,,,75,127
13035,note_off,98,0,0,,3,,,75,127
13037,note_on,2,0,0,,6,,,78,127
13135,note_off,98,0,0,,6,,,78,127
13137,note_on,2,0,0,,4,,,76,127
13235,note_off,98,0,0,,4,,,76,127
13237,note_off,2,0,0,,4,,,40,127
13237,note_on,0,0,0,,12,,,71,127
13320,note_off,83,0,0,,12,,,71,127
13337,note_on,17,0,0,,6,,,78,127
13337,note_on,0,0,0,,12,,,47,127
13435,note_off,98,0,0,,12,,,47,127
13435,note_off,0,0,0,,6,,,78,127
13437,note_on,2,0,0,,8,,,80,127
13437,note_on,0,0,0,,3,,,51,127
13535,note_off,98,0,0,,3,,,51,127
13535,note_off,0,0,0,,8,,,80,127
13537,note_on,2,0,0,,10,,,81,127
13537,note_on,0,0,0,,6,,,54,127
13635,note_off,98,0,0,,6,,,54,127
13637,note_on,2,0,0,,12,,,59,127
13735,note_off,98,0,0,,12,,,59,127
13737,note_on,2,0,0,,3,,,63,127
13835,note_off,98,0,0,,3,,,63,127
13837,note_on,2,0,0,,6,,,66,127
13935,note_off,98,0,0,,6,,,66,127
13935,note_off,0,0,0,,10,,,81,127
13937,note_on,2,0,0,,8,,,80,127
13937,note_on,0,0,0,,4,,,40,127
14035,note_off,98,0,0,,8,,,80,127
14037,note_on,2,0,0,,12,,,83,127
14135,note_off,98,0,0,,12,,,83,127
14137,note_on,2,0,0,,3,,,75,127
14235,note_off,98,0,0,,3,,,75,127
14237,note_on,2,0,0,,6,,,78,127
14335,note_off,98,0,0,,6,,,78,127
14337,note_on,2,0,0,,4,,,76,127
14435,note_off,98,0,0,,4,,,76,127
14437,note_off,2,0,0,,4,,,40,127
14437,note_on,0,0,0,,12,,,71,127
14529,note_off,92,0,0,,12,,,71,127
14546,note_on,17,0,0,,6,,,78,127
14546,note_on,0,0,0,,12,,,47,127
14644,note_off,98,0,0,,12,,,47,127
14644,note_off,0,0,0,,6,,,78,127
14646,note_on,2,0,0,,8,,,80,127
14646,note_on,0,0,0,,3,,,51,127
14744,note_off,98,0,0,,3,,,51,127
14744,note_off,0,0,0,,8,,,80,127
14746,note_on,2,0,0,,10,,,81,127
14746,note_on,0,0,0,,6,,,54,127
14844,note_off,98,0,0,,6,,,54,127
14846,note_on,2,0,0,,12,,,59,127
14944,note_off,98,0,0,,12,,,59,127
14946,note_on,2,0,0,,3,,,63,127
15044,note_off,98,0,0,,3,,,63,127
15046,note_on,2,0,0,,6,,,66,127
15144,note_off,98,0,0,,6,,,66,127
15144,note_off,0,0,0,,10,,,81,127
15146,note_on,2,0,0,,8,,,80,127
15146,note_on,0,0,0,,4,,,40,127
15244,note_off,98,0,0,,8,,,80,127
15246,note_on,2,0,0,,12,,,83,127
15344,note_off,98,0,0,,12,,,83,127
15346,note_on,2,0,0,,3,,,75,127
15444,note_off,98,0,0,,3,,,75,127
15446,note_on,2,0,0,,6,,,78,127
15544,note_off,98,0,0,,6,,,78,127
15544,note_off,0,0,0,,4,,,40,127
15546,note_on,2,0,0,,4,,,76,127
15546,note_on,0,0,0,,8,,,56,127
15644,note_off,98,0,0,,4,,,76,127
15646,note_on,2,0,0,,12,,,71,127
15744,note_off,98,0,0,,12,,,71,127
15744,note_off,0,0,0,,8,,,56,127
15746,note_on,2,0,0,,1,,,73,127
15746,note_on,0,0,0,,10,,,57,127
15844,note_off,98,0,0,,1,,,73,127
15846,note_on,2,0,0,,4,,,76,127
15944,note_off,98,0,0,,4,,,76,127
15944,note_off,0,0,0,,10,,,57,127
15946,note_on,2,0,0,,8,,,68,127
15946,note_on,0,0,0,,12,,,59,127
16044,note_off,98,0,0,,8,,,68,127
16046,note_on,2,0,0,,4,,,64,127
16144,note_off,98,0,0,,4,,,64,127
16146,note_on,2,0,0,,6,,,66,127
16146,note_on,0,0,0,,12,,,47,127
16244,note_off,98,0,0,,6,,,66,127
16246,note_off,2,0,0,,12,,,59,127
16246,note_on,0,0,0,,3,,,63,127
16344,note_off,98,0,0,,3,,,63,127
16344,note_off,0,0,0,,12,,,47,127
16346,note_on,2,0,0,,4,,,64,127
16346,note_on,0,0,0,,4,,,40,127
16534,note_off,188,0,0,,4,,,64,127
16563,note_on,29,0,0,,8,,,68,127
16771,note_off,208,0,0,,8,,,68,127
16780,note_on,9,0,0,,12,,,71,127
16847,note_off,67,0,0,,4,,,40,127
16978,note_off,131,0,0,,12,,,71,127
16980,note_on,2,0,0,,12,,,59,127
16980,note_on,0,0,0,,1,,,49,127
16980,note_on,0,0,0,,4,,,52,127
17080,note_on,100,0,0,,11,,,70,127
17178,note_off,98,0,0,,11,,,70,127
17180,note_on,2,0,0,,1,,,73,127
17278,note_off,98,0,0,,1,,,73,127
17280,note_on,2,0,0,,12,,,71,127
17378,note_off,98,0,0,,12,,,71,127
17380,note_on,2,0,0,,12,,,71,127
17478,note_off,98,0,0,,12,,,71,127
17480,note_on,2,0,0,,11,,,70,127
17578,note_off,98,0,0,,4,,,52,127
17578,note_off,0,0,0,,1,,,49,127
17578,note_off,0,0,0,,12,,,59,127
17580,note_on,2,0,0,,4,,,52,127
17580,note_on,0,0,0,,1,,,49,127
17580,note_on,0,0,0,,12,,,59,127
17657,note_off,77,0,0,,11,,,70,127
17680,note_on,23,0,0,,11,,,70,127
17778,note_off,98,0,0,,11,,,70,127
17780,note_on,2,0,0,,1,,,73,127
17878,note_off,98,0,0,,1,,,73,127
17880,note_on,2,0,0,,12,,,71,127
17978,note_off,98,0,0,,12,,,71,127
17980,note_on,2,0,0,,12,,,71,127
18078,note_off,98,0,0,,12,,,71,127
18080,note_on,2,0,0,,11,,,70,127
18178,note_off,98,0,0,,12,,,59,127
18178,note_off,0,0,0,,1,,,49,127
18178,note_off,0,0,0,,4,,,52,127
18179,note_off,1,0,0,,11,,,70,127
18180,note_on,1,0,0,,1,,,49,127
18180,note_on,0,0,0,,4,,,52,127
18180,note_on,0,0,0,,12,,,59,127
18280,note_on,100,0,0,,1,,,73,127
18378,note_off,98,0,0,,1,,,73,127
18380,note_on,2,0,0,,4,,,76,127
18478,note_off,98,0,0,,4,,,76,127
18480,note_on,2,0,0,,3,,,75,127
18578,note_off,98,0,0,,3,,,75,127
18580,note_on,2,0,0,,3,,,75,127
18678,note_off,98,0,0,,3,,,75,127
18680,note_on,2,0,0,,1,,,73,127
18778,note_off,98,0,0,,12,,,59,127
18778,note_off,0,0,0,,4,,,52,127
18778,note_off,0,0,0,,1,,,49,127
18780,note_on,2,0,0,,12,,,59,127
18780,note_on,0,0,0,,1,,,49,127
18780,note_on,0,0,0,,4,,,52,127
18857,note_off,77,0,0,,1,,,73,127
18880,note_on,23,0,0,,1,,,73,127
18978,note_off,98,0,0,,1,,,73,127
18980,note_on,2,0,0,,4,,,76,127
19078,note_off,98,0,0,,4,,,76,127
19080,note_on,2,0,0,,3,,,75,127
19178,note_off,98,0,0,,3,,,75,127
19180,note_on,2,0,0,,3,,,75,127
19278,note_off,98,0,0,,3,,,75,127
19280,note_on,2,0,0,,1,,,73,127
19378,note_off,98,0,0,,4,,,52,127
19378,note_off,0,0,0,,1,,,49,127
19378,note_off,0,0,0,,12,,,59,127
19379,note_off,1,0,0,,1,,,73,127
19380,note_on,1,0,0,,12,,,59,127
19380,note_on,0,0,0,,0,,,48,127
19380,note_on,0,0,0,,4,,,52,127
19480,note_on,100,0,0,,6,,,78,127
19578,note_off,98,0,0,,6,,,78,127
19580,note_on,2,0,0,,10,,,81,127
19678,note_off,98,0,0,,10,,,81,127
19680,note_on,2,0,0,,7,,,79,127
19778,note_off,98,0,0,,7,,,79,127
19780,note_on,2,0,0,,7,,,79,127
19878,note_off,98,0,0,,7,,,79,127
19880,note_on,2,0,0,,6,,,78,127
19978,note_off,98,0,0,,4,,,52,127
19978,note_off,0,0,0,,0,,,48,127
19978,note_off,0,0,0,,12,,,59,127
19980,note_on,2,0,0,,12,,,59,127
19980,note_on,0,0,0,,4,,,52,127
19980,note_on,0,0,0,,0,,,48,127
20057,note_off,77,0,0,,6,,,78,127
20080,note_on,23,0,0,,6,,,78,127
20178,note_off,98,0,0,,6,,,78,127
20180,note_on,2,0,0,,10,,,81,127
20278,note_off,98,0,0,,10,,,81,127
20280,note_on,2,0,0,,7,,,79,127
20378,note_off,98,0,0,,7,,,79,127
20380,note_on,2,0,0,,7,,,79,127
20478,note_off,98,0,0,,7,,,79,127
20480,note_on,2,0,0,,6,,,78,127
20578,note_off,98,0,0,,0,,,48,127
20578,note_off,0,0,0,,4,,,52,127
20578,note_off,0,0,0,,12,,,59,127
20579,note_off,1,0,0,,6,,,78,127
20580,note_on,1,0,0,,12,,,59,127
20580,note_on,0,0,0,,0,,,48,127
20580,note_on,0,0,0,,4,,,52,127
20680,note_on,100,0,0,,10,,,81,127
20778,note_off,98,0,0,,10,,,81,127
20780,note_on,2,0,0,,0,,,84,127
20878,note_off,98,0,0,,0,,,84,127
20880,note_on,2,0,0,,12,,,83,127
20978,note_off,98,0,0,,12,,,83,127
20980,note_on,2,0,0,,12,,,83,127
21078,note_off,98,0,0,,12,,,83,127
21080,note_on,2,0,0,,10,,,81,127
21172,note_off,92,0,0,,10,,,81,127
21178,note_off,6,0,0,,4,,,52,127
21178,note_off,0,0,0,,0,,,48,127
21178,note_off,0,0,0,,12,,,59,127
21180,note_on,2,0,0,,10,,,81,127
21180,note_on,0,0,0,,12,,,59,127
21180,note_on,0,0,0,,4,,,52,127
21180,note_on,0,0,0,,0,,,48,127
21278,note_off,98,0,0,,10,,,81,127
21280,note_on,2,0,0,,7,,,79,127
21378,note_off,98,0,0,,7,,,79,127
21380,note_on,2,0,0,,7,,,79,127
21478,note_off,98,0,0,,7,,,79,127
21480,note_on,2,0,0,,6,,,78,127
21578,note_off,98,0,0,,6,,,78,127
21580,note_on,2,0,0,,6,,,78,127
21678,note_off,98,0,0,,6,,,78,127
21680,note_on,2,0,0,,4,,,76,127
21778,note_off,98,0,0,,4,,,76,127
21778,note_off,0,0,0,,0,,,48,127
21778,note_off,0,0,0,,4,,,52,127
21778,note_off,0,0,0,,12,,,59,127
21780,note_on,2,0,0,,3,,,75,127
21780,note_on,0,0,0,,12,,,59,127
21780,note_on,0,0,0,,12,,,47,127
21780,note_on,0,0,0,,6,,,54,127
21878,note_off,98,0,0,,3,,,75,127
21880,note_on,2,0,0,,12,,,71,127
21978,note_off,98,0,0,,12,,,71,127
21980,note_on,2,0,0,,3,,,75,127
22078,note_off,98,0,0,,3,,,75,127
22080,note_on,2,0,0,,6,,,78,127
22178,note_off,98,0,0,,6,,,78,127
22180,note_on,2,0,0,,11,,,82,127
22278,note_off,98,0,0,,11,,,82,127
22280,note_on,2,0,0,,12,,,83,127
22378,note_off,98,0,0,,6,,,54,127
22378,note_off,0,0,0,,12,,,47,127
22378,note_off,0,0,0,,12,,,59,127
22380,note_on,2,0,0,,12,,,71,127
22380,note_on,0,0,0,,12,,,47,127
22478,note_off,98,0,0,,12,,,47,127
22480,note_on,2,0,0,,3,,,51,127
22572,note_off,92,0,0,,12,,,83,127
22578,note_off,6,0,0,,3,,,51,127
22578,note_off,0,0,0,,12,,,71,127
22580,note_on,2,0,0,,10,,,81,127
22580,note_on,0,0,0,,6,,,54,127
22678,note_off,98,0,0,,6,,,54,127
22680,note_on,2,0,0,,12,,,59,127
22778,note_off,98,0,0,,12,,,59,127
22780,note_on,2,0,0,,3,,,63,127
22878,note_off,98,0,0,,3,,,63,127
22880,note_on,2,0,0,,6,,,66,127
22997,note_on,117,0,0,,4,,,40,127
22997,note_on,0,0,0,,8,,,80,127
23003,note_off,6,0,0,,10,,,81,127
23004,note_off,1,0,0,,6,,,66,127
23095,note_off,91,0,0,,8,,,80,127
23097,note_on,2,0,0,,12,,,83,127
23195,note_off,98,0,0,,12,,,83,127
23197,note_on,2,0,0,,3,,,75,127
23295,note_off,98,0,0,,3,,,75,127
23297,note_on,2,0,0,,6,,,78,127
23395,note_off,98,0,0,,6,,,78,127
23397,note_on,2,0,0,,4,,,76,127
23495,note_off,98,0,0,,4,,,76,127
23497,note_off,2,0,0,,4,,,40,127
23497,note_on,0,0,0,,12,,,71,127
23595,note_off,98,0,0,,12,,,71,127
23597,note_on,2,0,0,,12,,,47,127
23597,note_on,0,0,0,,6,,,78,127
23695,note_off,98,0,0,,6,,,78,127
23695,note_off,0,0,0,,12,,,47,127
23697,note_on,2,0,0,,3,,,51,127
23697,note_on,0,0,0,,8,,,80,127
23795,note_off,98,0,0,,8,,,80,127
23795,note_off,0,0,0,,3,,,51,127
23797,note_on,2,0,0,,6,,,54,127
23797,note_on,0,0,0,,10,,,81,127
23895,note_off,98,0,0,,6,,,54,127
23897,note_on,2,0,0,,12,,,59,127
23995,note_off,98,0,0,,12,,,59,127
23997,note_on,2,0,0,,3,,,63,127
24095,note_off,98,0,0,,3,,,63,127
24097,note_on,2,0,0,,6,,,66,127
24200,note_off,103,0,0,,6,,,66,127
24203,note_off,3,0,0,,10,,,81,127
24205,note_on,2,0,0,,4,,,40,127
24205,note_on,0,0,0,,8,,,80,127
24303,note_off,98,0,0,,8,,,80,127
24305,note_on,2,0,0,,12,,,83,127
24403,note_off,98,0,0,,12,,,83,127
24405,note_on,2,0,0,,3,,,75,127
24503,note_off,98,0,0,,3,,,75,127
24505,note_on,2,0,0,,6,,,78,127
24603,note_off,98,0,0,,6,,,78,127
24603,note_off,0,0,0,,4,,,40,127
24605,note_on,2,0,0,,8,,,56,127
24605,note_on,0,0,0,,4,,,76,127
24703,note_off,98,0,0,,4,,,76,127
24705,note_on,2,0,0,,12,,,71,127
24803,note_off,98,0,0,,12,,,71,127
24803,note_off,0,0,0,,8,,,56,127
24805,note_on,2,0,0,,10,,,57,127
24805,note_on,0,0,0,,1,,,73,127
24870,note_off,65,0,0,,1,,,73,127
24872,note_on,2,0,0,,3,,,75,127
24937,note_off,65,0,0,,3,,,75,127
24939,note_on,2,0,0,,4,,,76,127
25004,note_off,65,0,0,,4,,,76,127
25004,note_off,0,0,0,,10,,,57,127
25006,note_on,2,0,0,,12,,,59,127
25006,note_on,0,0,0,,3,,,75,127
25104,note_off,98,0,0,,3,,,75,127
25106,note_on,2,0,0,,1,,,73,127
25204,note_off,98,0,0,,1,,,73,127
25206,note_on,2,0,0,,12,,,47,127
25206,note_on,0,0,0,,12,,,71,127
25304,note_off,98,0,0,,12,,,71,127
25306,note_on,2,0,0,,10,,,69,127
25402,note_off,96,0,0,,12,,,59,127
25404,note_off,2,0,0,,10,,,69,127
25404,note_off,0,0,0,,12,,,47,127
25406,note_on,2,0,0,,4,,,52,127
25406,note_on,0,0,0,,8,,,68,127
25471,note_off,65,0,0,,8,,,68,127
25473,note_on,2,0,0,,10,,,69,127
25538,note_off,65,0,0,,10,,,69,127
25540,note_on,2,0,0,,12,,,71,127
25605,note_off,65,0,0,,12,,,71,127
25605,note_off,0,0,0,,4,,,52,127
25607,note_on,2,0,0,,6,,,54,127
25607,note_on,0,0,0,,10,,,69,127
25705,note_off,98,0,0,,10,,,69,127
25707,note_on,2,0,0,,8,,,68,127
25805,note_off,98,0,0,,8,,,68,127
25805,note_off,0,0,0,,6,,,54,127
25807,note_on,2,0,0,,8,,,56,127
25807,note_on,0,0,0,,6,,,66,127
25905,note_off,98,0,0,,6,,,66,127
25907,note_on,2,0,0,,4,,,64,127
26005,note_off,98,0,0,,4,,,64,127
26005,note_off,0,0,0,,8,,,56,127
26007,note_on,2,0,0,,10,,,57,127
26007,note_on,0,0,0,,4,,,76,127
26105,note_off,98,0,0,,4,,,76,127
26107,note_on,2,0,0,,1,,,73,127
26205,note_off,98,0,0,,1,,,73,127
26205,note_off,0,0,0,,10,,,57,127
26207,note_on,2,0,0,,12,,,59,127
26207,note_on,0,0,0,,4,,,64,127
26255,note_off,48,0,0,,4,,,64,127
26257,note_on,2,0,0,,3,,,63,127
26305,note_off,48,0,0,,3,,,63,127
26307,note_on,2,0,0,,4,,,64,127
26355,note_off,48,0,0,,4,,,64,127
26357,note_on,2,0,0,,3,,,63,127
26405,note_off,48,0,0,,3,,,63,127
26407,note_on,2,0,0,,12,,,47,127
26407,note_on,0,0,0,,4,,,64,127
26455,note_off,48,0,0,,4,,,64,127
26457,note_on,2,0,0,,3,,,63,127
26505,note_off,48,0,0,,3,,,63,127
26507,note_on,2,0,0,,4,,,64,127
26555,note_off,48,0,0,,4,,,64,127
26557,note_on,2,0,0,,3,,,63,127
26595,note_off,38,0,0,,3,,,63,127
26618,note_off,23,0,0,,12,,,47,127
26637,note_off,19,0,0,,12,,,59,127
26650,note_on,13,0,0,,8,,,56,127
26650,note_on,0,0,0,,8,,,80,127
26715,note_off,65,0,0,,8,,,80,127
26717,note_on,2,0,0,,10,,,81,127
26782,note_off,65,0,0,,10,,,81,127
26784,note_on,2,0,0,,12,,,83,127
26849,note_off,65,0,0,,12,,,83,127
26851,note_on,2,0,0,,10,,,81,127
26949,note_off,98,0,0,,10,,,81,127
26951,note_on,2,0,0,,8,,,80,127
27049,note_off,98,0,0,,8,,,80,127
27049,note_off,0,0,0,,8,,,56,127
27051,note_on,2,0,0,,8,,,56,127
27051,note_on,0,0,0,,6,,,78,127
27149,note_off,98,0,0,,6,,,78,127
27151,note_on,2,0,0,,4,,,76,127
27249,note_off,98,0,0,,4,,,76,127
27249,note_off,0,0,0,,8,,,56,127
27251,note_on,2,0,0,,10,,,57,127
27251,note_on,0,0,0,,1,,,73,127
27349,note_off,98,0,0,,1,,,73,127
27351,note_on,2,0,0,,6,,,78,127
27449,note_off,98,0,0,,6,,,78,127
27449,note_off,0,0,0,,10,,,57,127
27451,note_on,2,0,0,,12,,,59,127
27451,note_on,0,0,0,,4,,,76,127
27516,note_off,65,0,0,,4,,,76,127
27518,note_on,2,0,0,,3,,,75,127
27583,note_off,65,0,0,,3,,,75,127
27585,note_on,2,0,0,,4,,,76,127
27650,note_off,65,0,0,,4,,,76,127
27650,note_off,0,0,0,,12,,,59,127
27652,note_on,2,0,0,,12,,,47,127
27652,note_on,0,0,0,,3,,,75,127
27717,note_off,65,0,0,,3,,,75,127
27719,note_on,2,0,0,,1,,,73,127
27784,note_off,65,0,0,,1,,,73,127
27786,note_on,2,0,0,,3,,,75,127
27851,note_off,65,0,0,,3,,,75,127
27851,note_off,0,0,0,,12,,,47,127
27853,note_on,2,0,0,,4,,,40,127
27853,note_on,0,0,0,,4,,,76,127
28250,note_off,397,0,0,,4,,,76,127
28453,note_off,203,0,0,,4,,,40,127
28487,note_on,34,0,0,,7,,,79,127
28487,note_on,0,0,0,,4,,,76,127
28587,note_on,100,0,0,,7,,,67,127
28685,note_off,98,0,0,,7,,,67,127
28687,note_on,2,0,0,,4,,,64,127
28785,note_off,98,0,0,,4,,,64,127
28787,note_on,2,0,0,,7,,,67,127
28885,note_off,98,0,0,,7,,,67,127
28887,note_on,2,0,0,,1,,,61,127
28985,note_off,98,0,0,,1,,,61,127
28987,note_on,2,0,0,,4,,,64,127
29085,note_off,98,0,0,,4,,,64,127
29087,note_on,2,0,0,,7,,,55,127
29185,note_off,98,0,0,,7,,,55,127
29187,note_on,2,0,0,,12,,,59,127
29285,note_off,98,0,0,,12,,,59,127
29287,note_on,2,0,0,,4,,,52,127
29385,note_off,98,0,0,,4,,,52,127
29387,note_on,2,0,0,,7,,,55,127
29485,note_off,98,0,0,,7,,,55,127
29487,note_on,2,0,0,,1,,,49,127
29585,note_off,98,0,0,,1,,,49,127
29587,note_on,2,0,0,,4,,,52,127
29685,note_off,98,0,0,,4,,,52,127
29687,note_on,2,0,0,,10,,,45,127
29885,note_off,198,0,0,,4,,,76,127
29885,note_off,0,0,0,,7,,,79,127
29887,note_on,2,0,0,,6,,,78,127
29887,note_on,0,0,0,,2,,,74,127
30085,note_off,198,0,0,,2,,,74,127
30085,note_off,0,0,0,,6,,,78,127
30087,note_on,2,0,0,,4,,,76,127
30087,note_on,0,0,0,,1,,,73,127
30285,note_off,198,0,0,,1,,,73,127
30285,note_off,0,0,0,,4,,,76,127
30285,note_off,0,0,0,,10,,,45,127
30287,note_on,2,0,0,,2,,,38,127
30287,note_on,0,0,0,,6,,,78,127
30287,note_on,0,0,0,,2,,,74,127
30385,note_off,98,0,0,,2,,,74,127
30385,note_off,0,0,0,,6,,,78,127
30387,note_on,2,0,0,,10,,,81,127
30485,note_off,98,0,0,,10,,,81,127
30487,note_on,2,0,0,,1,,,73,127
30585,note_off,98,0,0,,1,,,73,127
30587,note_on,2,0,0,,4,,,76,127
30685,note_off,98,0,0,,4,,,76,127
30687,note_on,2,0,0,,2,,,74,127
30785,note_off,98,0,0,,2,,,74,127
30787,note_off,2,0,0,,2,,,38,127
30787,note_on,0,0,0,,6,,,78,127
30885,note_off,98,0,0,,6,,,78,127
30887,note_on,2,0,0,,1,,,73,127
30887,note_on,0,0,0,,4,,,76,127
30987,note_on,100,0,0,,4,,,64,127
31085,note_off,98,0,0,,4,,,64,127
31087,note_on,2,0,0,,1,,,61,127
31185,note_off,98,0,0,,1,,,61,127
31187,note_on,2,0,0,,4,,,64,127
31285,note_off,98,0,0,,4,,,64,127
31287,note_on,2,0,0,,7,,,55,127
31385,note_off,98,0,0,,7,,,55,127
31387,note_on,2,0,0,,12,,,59,127
31485,note_off,98,0,0,,12,,,59,127
31487,note_on,2,0,0,,4,,,52,127
31585,note_off,98,0,0,,4,,,52,127
31587,note_on,2,0,0,,7,,,55,127
31685,note_off,98,0,0,,7,,,55,127
31687,note_on,2,0,0,,1,,,49,127
31785,note_off,98,0,0,,1,,,49,127
31787,note_on,2,0,0,,4,,,52,127
31885,note_off,98,0,0,,4,,,52,127
31887,note_on,2,0,0,,11,,,46,127
31985,note_off,98,0,0,,11,,,46,127
31987,note_on,2,0,0,,1,,,49,127
32085,note_off,98,0,0,,1,,,49,127
32087,note_on,2,0,0,,6,,,42,127
32285,note_off,198,0,0,,4,,,76,127
32285,note_off,0,0,0,,1,,,73,127
32287,note_on,2,0,0,,12,,,71,127
32287,note_on,0,0,0,,2,,,74,127
32485,note_off,198,0,0,,2,,,74,127
32485,note_off,0,0,0,,12,,,71,127
32487,note_on,2,0,0,,1,,,73,127
32487,note_on,0,0,0,,11,,,70,127
32685,note_off,198,0,0,,11,,,70,127
32685,note_off,0,0,0,,1,,,73,127
32685,note_off,0,0,0,,6,,,42,127
32687,note_on,2,0,0,,12,,,47,127
32687,note_on,0,0,0,,2,,,74,127
32687,note_on,0,0,0,,12,,,71,127
32785,note_off,98,0,0,,12,,,47,127
32787,note_on,2,0,0,,2,,,50,127
32885,note_off,98,0,0,,2,,,50,127
32887,note_on,2,0,0,,6,,,54,127
32985,note_off,98,0,0,,6,,,54,127
32987,note_on,2,0,0,,12,,,59,127
33073,note_off,86,0,0,,12,,,71,127
33073,note_off,0,0,0,,2,,,74,127
33086,note_off,13,0,0,,12,,,59,127
33088,note_on,2,0,0,,2,,,62,127
33088,note_on,0,0,0,,12,,,83,127
33186,note_off,98,0,0,,2,,,62,127
33188,note_on,2,0,0,,6,,,66,127
33286,note_off,98,0,0,,6,,,66,127
33288,note_on,2,0,0,,12,,,47,127
33386,note_off,98,0,0,,12,,,83,127
33388,note_on,2,0,0,,6,,,78,127
33486,note_off,98,0,0,,6,,,78,127
33488,note_on,2,0,0,,2,,,74,127
33586,note_off,98,0,0,,2,,,74,127
33588,note_on,2,0,0,,12,,,71,127
33686,note_off,98,0,0,,12,,,71,127
33688,note_on,2,0,0,,6,,,66,127
33786,note_off,98,0,0,,6,,,66,127
33788,note_on,2,0,0,,2,,,62,127
33886,note_off,98,0,0,,2,,,62,127
33886,note_off,0,0,0,,12,,,47,127
33888,note_on,2,0,0,,4,,,52,127
33888,note_on,0,0,0,,7,,,67,127
34086,note_off,198,0,0,,7,,,67,127
34088,note_on,2,0,0,,4,,,64,127
34265,note_off,177,0,0,,4,,,64,127
34288,note_on,23,0,0,,7,,,79,127
34486,note_off,198,0,0,,4,,,52,127
34488,note_on,2,0,0,,10,,,45,127
34586,note_off,98,0,0,,7,,,79,127
34588,note_on,2,0,0,,4,,,76,127
34686,note_off,98,0,0,,4,,,76,127
34688,note_on,2,0,0,,1,,,73,127
34786,note_off,98,0,0,,1,,,73,127
34788,note_on,2,0,0,,10,,,69,127
34886,note_off,98,0,0,,10,,,69,127
34888,note_on,2,0,0,,7,,,67,127
34986,note_off,98,0,0,,7,,,67,127
34988,note_on,2,0,0,,4,,,64,127
35086,note_off,98,0,0,,4,,,64,127
35086,note_off,0,0,0,,10,,,45,127
35088,note_on,2,0,0,,2,,,38,127
35088,note_on,0,0,0,,6,,,66,127
35186,note_off,98,0,0,,6,,,66,127
35188,note_on,2,0,0,,2,,,62,127
35286,note_off,98,0,0,,2,,,62,127
35288,note_on,2,0,0,,6,,,66,127
35386,note_off,98,0,0,,6,,,66,127
35388,note_on,2,0,0,,10,,,69,127
35486,note_off,98,0,0,,10,,,69,127
35488,note_on,2,0,0,,2,,,74,127
35571,note_off,83,0,0,,2,,,74,127
35588,note_off,17,0,0,,2,,,38,127
35596,note_on,8,0,0,,6,,,78,127
35694,note_off,98,0,0,,6,,,78,127
35696,note_on,2,0,0,,2,,,50,127
35696,note_on,0,0,0,,6,,,78,127
35794,note_off,98,0,0,,6,,,78,127
35794,note_off,0,0,0,,2,,,50,127
35796,note_on,2,0,0,,6,,,54,127
35796,note_on,0,0,0,,7,,,79,127
35894,note_off,98,0,0,,7,,,79,127
35894,note_off,0,0,0,,6,,,54,127
35896,note_on,2,0,0,,10,,,57,127
35896,note_on,0,0,0,,10,,,81,127
35994,note_off,98,0,0,,10,,,57,127
35996,note_on,2,0,0,,2,,,62,127
36094,note_off,98,0,0,,2,,,62,127
36096,note_on,2,0,0,,6,,,66,127
36194,note_off,98,0,0,,6,,,66,127
36196,note_on,2,0,0,,10,,,69,127
36294,note_off,98,0,0,,10,,,69,127
36296,note_on,2,0,0,,10,,,45,127
36494,note_off,198,0,0,,10,,,81,127
36496,note_on,2,0,0,,7,,,79,127
36694,note_off,198,0,0,,7,,,79,127
36696,note_on,2,0,0,,4,,,76,127
36894,note_off,198,0,0,,4,,,76,127
36895,note_off,1,0,0,,10,,,45,127
36896,note_on,1,0,0,,2,,,50,127
36896,note_on,0,0,0,,4,,,76,127
36896,note_on,0,0,0,,2,,,74,127
36994,note_off,98,0,0,,2,,,50,127
36996,note_on,2,0,0,,6,,,54,127
37094,note_off,98,0,0,,6,,,54,127
37094,note_off,0,0,0,,2,,,74,127
37094,note_off,0,0,0,,4,,,76,127
37096,note_on,2,0,0,,10,,,57,127
37096,note_on,0,0,0,,1,,,73,127
37194,note_off,98,0,0,,10,,,57,127
37196,note_on,2,0,0,,2,,,62,127
37294,note_off,98,0,0,,2,,,62,127
37294,note_off,0,0,0,,1,,,73,127
37296,note_on,2,0,0,,6,,,66,127
37296,note_on,0,0,0,,2,,,74,127
37394,note_off,98,0,0,,6,,,66,127
37396,note_on,2,0,0,,10,,,69,127
37494,note_off,98,0,0,,10,,,69,127
37494,note_off,0,0,0,,2,,,74,127
37496,note_on,2,0,0,,10,,,45,127
37496,note_on,0,0,0,,2,,,74,127
37694,note_off,198,0,0,,10,,,45,127
37696,note_on,2,0,0,,10,,,57,127
37794,note_off,98,0,0,,10,,,57,127
37796,note_on,2,0,0,,7,,,55,127
37894,note_off,98,0,0,,7,,,55,127
37894,note_off,0,0,0,,2,,,74,127
37896,note_on,2,0,0,,6,,,54,127
37896,note_on,0,0,0,,4,,,76,127
37994,note_off,98,0,0,,6,,,54,127
37996,note_on,2,0,0,,4,,,52,127
38052,note_off,56,0,0,,4,,,76,127
38094,note_off,42,0,0,,4,,,52,127
38096,note_on,2,0,0,,2,,,50,127
38096,note_on,0,0,0,,10,,,81,127
38194,note_off,98,0,0,,2,,,50,127
38196,note_on,2,0,0,,6,,,54,127
38294,note_off,98,0,0,,6,,,54,127
38296,note_on,2,0,0,,10,,,57,127
38394,note_off,98,0,0,,10,,,57,127
38396,note_on,2,0,0,,2,,,62,127
38494,note_off,98,0,0,,2,,,62,127
38496,note_on,2,0,0,,6,,,66,127
38594,note_off,98,0,0,,6,,,66,127
38596,note_on,2,0,0,,10,,,69,127
38694,note_off,98,0,0,,10,,,69,127
38696,note_on,2,0,0,,10,,,45,127
38894,note_off,198,0,0,,10,,,81,127
38896,note_on,2,0,0,,7,,,79,127
39094,note_off,198,0,0,,7,,,79,127
39096,note_on,2,0,0,,4,,,76,127
39196,note_off,100,0,0,,10,,,45,127
39294,note_off,98,0,0,,4,,,76,127
39296,note_on,2,0,0,,2,,,50,127
39296,note_on,0,0,0,,2,,,74,127
39296,note_on,0,0,0,,4,,,76,127
39394,note_off,98,0,0,,2,,,50,127
39396,note_on,2,0,0,,6,,,54,127
39494,note_off,98,0,0,,6,,,54,127
39494,note_off,0,0,0,,4,,,76,127
39494,note_off,0,0,0,,2,,,74,127
39496,note_on,2,0,0,,10,,,57,127
39496,note_on,0,0,0,,1,,,73,127
39594,note_off,98,0,0,,10,,,57,127
39596,note_on,2,0,0,,2,,,62,127
39694,note_off,98,0,0,,2,,,62,127
39694,note_off,0,0,0,,1,,,73,127
39696,note_on,2,0,0,,6,,,66,127
39696,note_on,0,0,0,,2,,,74,127
39794,note_off,98,0,0,,6,,,66,127
39796,note_on,2,0,0,,10,,,69,127
39894,note_off,98,0,0,,10,,,69,127
39894,note_off,0,0,0,,2,,,74,127
39896,note_on,2,0,0,,10,,,45,127
39896,note_on,0,0,0,,2,,,74,127
40094,note_off,198,0,0,,2,,,74,127
40096,note_on,2,0,0,,4,,,76,127
40263,note_off,167,0,0,,4,,,76,127
40305,note_on,42,0,0,,10,,,81,127
40495,note_off,190,0,0,,10,,,45,127
40505,note_on,10,0,0,,2,,,50,127
40603,note_off,98,0,0,,2,,,50,127
40605,note_on,2,0,0,,6,,,54,127
40703,note_off,98,0,0,,6,,,54,127
40703,note_off,0,0,0,,10,,,81,127
40705,note_on,2,0,0,,10,,,57,127
40705,note_on,0,0,0,,6,,,78,127
40803,note_off,98,0,0,,10,,,57,127
40805,note_on,2,0,0,,2,,,62,127
40903,note_off,98,0,0,,2,,,62,127
40903,note_off,0,0,0,,6,,,78,127
40905,note_on,2,0,0,,6,,,66,127
40905,note_on,0,0,0,,2,,,74,127
41003,note_off,98,0,0,,6,,,66,127
41005,note_on,2,0,0,,10,,,69,127
41103,note_off,98,0,0,,10,,,69,127
41103,note_off,0,0,0,,2,,,74,127
41105,note_on,2,0,0,,1,,,49,127
41105,note_on,0,0,0,,10,,,81,127
41203,note_off,98,0,0,,1,,,49,127
41205,note_on,2,0,0,,4,,,52,127
41303,note_off,98,0,0,,4,,,52,127
41303,note_off,0,0,0,,10,,,81,127
41305,note_on,2,0,0,,10,,,57,127
41305,note_on,0,0,0,,4,,,76,127
41403,note_off,98,0,0,,10,,,57,127
41405,note_on,2,0,0,,1,,,61,127
41503,note_off,98,0,0,,1,,,61,127
41503,note_off,0,0,0,,4,,,76,127
41505,note_on,2,0,0,,4,,,64,127
41505,note_on,0,0,0,,1,,,73,127
41603,note_off,98,0,0,,4,,,64,127
41605,note_on,2,0,0,,10,,,69,127
41703,note_off,98,0,0,,10,,,69,127
41703,note_off,0,0,0,,1,,,73,127
41705,note_on,2,0,0,,12,,,47,127
41705,note_on,0,0,0,,10,,,81,127
41803,note_off,98,0,0,,12,,,47,127
41805,note_on,2,0,0,,2,,,50,127
41903,note_off,98,0,0,,2,,,50,127
41903,note_off,0,0,0,,10,,,81,127
41905,note_on,2,0,0,,8,,,56,127
41905,note_on,0,0,0,,2,,,74,127
42003,note_off,98,0,0,,8,,,56,127
42005,note_on,2,0,0,,12,,,59,127
42103,note_off,98,0,0,,12,,,59,127
42103,note_off,0,0,0,,2,,,74,127
42105,note_on,2,0,0,,2,,,62,127
42105,note_on,0,0,0,,12,,,71,127
42203,note_off,98,0,0,,2,,,62,127
42205,note_on,2,0,0,,8,,,68,127
42303,note_off,98,0,0,,8,,,68,127
42303,note_off,0,0,0,,12,,,71,127
42305,note_on,2,0,0,,10,,,45,127
42305,note_on,0,0,0,,1,,,73,127
42403,note_off,98,0,0,,1,,,73,127
42405,note_on,2,0,0,,4,,,76,127
42503,note_off,98,0,0,,4,,,76,127
42505,note_on,2,0,0,,8,,,68,127
42603,note_off,98,0,0,,8,,,68,127
42605,note_on,2,0,0,,12,,,71,127
42703,note_off,98,0,0,,12,,,71,127
42705,note_on,2,0,0,,10,,,69,127
42803,note_off,98,0,0,,10,,,69,127
42805,note_off,2,0,0,,10,,,45,127
42805,note_on,0,0,0,,4,,,64,127
42922,note_on,117,0,0,,12,,,59,127
42922,note_on,0,0,0,,10,,,57,127
42922,note_on,0,0,0,,6,,,54,127
42941,note_off,19,0,0,,4,,,64,127
43022,note_on,81,0,0,,3,,,63,127
43120,note_off,98,0,0,,3,,,63,127
43122,note_on,2,0,0,,6,,,66,127
43220,note_off,98,0,0,,6,,,66,127
43222,note_on,2,0,0,,4,,,64,127
43320,note_off,98,0,0,,4,,,64,127
43322,note_on,2,0,0,,3,,,63,127
43420,note_off,98,0,0,,3,,,63,127
43422,note_on,2,0,0,,3,,,63,127
43520,note_off,98,0,0,,6,,,54,127
43520,note_off,0,0,0,,10,,,57,127
43520,note_off,0,0,0,,12,,,59,127
43522,note_on,2,0,0,,12,,,59,127
43522,note_on,0,0,0,,6,,,54,127
43522,note_on,0,0,0,,10,,,57,127
43599,note_off,77,0,0,,3,,,63,127
43622,note_on,23,0,0,,3,,,63,127
43720,note_off,98,0,0,,3,,,63,127
43722,note_on,2,0,0,,6,,,66,127
43820,note_off,98,0,0,,6,,,66,127
43822,note_on,2,0,0,,4,,,64,127
43920,note_off,98,0,0,,4,,,64,127
43922,note_on,2,0,0,,3,,,63,127
44020,note_off,98,0,0,,3,,,63,127
44022,note_on,2,0,0,,3,,,63,127
44120,note_off,98,0,0,,10,,,57,127
44120,note_off,0,0,0,,6,,,54,127
44120,note_off,0,0,0,,12,,,59,127
44121,note_off,1,0,0,,3,,,63,127
44122,note_on,1,0,0,,10,,,57,127
44122,note_on,0,0,0,,12,,,59,127
44122,note_on,0,0,0,,6,,,54,127
44222,note_on,100,0,0,,6,,,66,127
44320,note_off,98,0,0,,6,,,66,127
44322,note_on,2,0,0,,10,,,69,127
44420,note_off,98,0,0,,10,,,69,127
44422,note_on,2,0,0,,7,,,67,127
44520,note_off,98,0,0,,7,,,67,127
44522,note_on,2,0,0,,6,,,66,127
44620,note_off,98,0,0,,6,,,66,127
44622,note_on,2,0,0,,6,,,66,127
44720,note_off,98,0,0,,6,,,54,127
44720,note_off,0,0,0,,12,,,59,127
44720,note_off,0,0,0,,10,,,57,127
44722,note_on,2,0,0,,10,,,57,127
44722,note_on,0,0,0,,12,,,59,127
44722,note_on,0,0,0,,6,,,54,127
44799,note_off,77,0,0,,6,,,66,127
44822,note_on,23,0,0,,6,,,66,127
44920,note_off,98,0,0,,6,,,66,127
44922,note_on,2,0,0,,10,,,69,127
45020,note_off,98,0,0,,10,,,69,127
45022,note_on,2,0,0,,7,,,67,127
45120,note_off,98,0,0,,7,,,67,127
45122,note_on,2,0,0,,6,,,66,127
45220,note_off,98,0,0,,6,,,66,127
45222,note_on,2,0,0,,6,,,66,127
45320,note_off,98,0,0,,6,,,54,127
45320,note_off,0,0,0,,12,,,59,127
45320,note_off,0,0,0,,10,,,57,127
45321,note_off,1,0,0,,6,,,66,127
45322,note_on,1,0,0,,2,,,62,127
45322,note_on,0,0,0,,5,,,53,127
45322,note_on,0,0,0,,10,,,57,127
45322,note_on,0,0,0,,12,,,59,127
45422,note_on,100,0,0,,12,,,71,127
45520,note_off,98,0,0,,12,,,71,127
45522,note_on,2,0,0,,2,,,74,127
45620,note_off,98,0,0,,2,,,74,127
45622,note_on,2,0,0,,0,,,72,127
45720,note_off,98,0,0,,0,,,72,127
45722,note_on,2,0,0,,0,,,72,127
45820,note_off,98,0,0,,0,,,72,127
45822,note_on,2,0,0,,12,,,71,127
45920,note_off,98,0,0,,12,,,59,127
45920,note_off,0,0,0,,10,,,57,127
45920,note_off,0,0,0,,5,,,53,127
45920,note_off,0,0,0,,2,,,62,127
45921,note_off,1,0,0,,12,,,71,127
45922,note_on,1,0,0,,12,,,59,127
45922,note_on,0,0,0,,2,,,62,127
45922,note_on,0,0,0,,10,,,57,127
45922,note_on,0,0,0,,5,,,53,127
46022,note_on,100,0,0,,2,,,74,127
46120,note_off,98,0,0,,2,,,74,127
46122,note_on,2,0,0,,5,,,77,127
46220,note_off,98,0,0,,5,,,77,127
46222,note_on,2,0,0,,4,,,76,127
46320,note_off,98,0,0,,4,,,76,127
46322,note_on,2,0,0,,4,,,76,127
46420,note_off,98,0,0,,4,,,76,127
46422,note_on,2,0,0,,2,,,74,127
46520,note_off,98,0,0,,5,,,53,127
46520,note_off,0,0,0,,10,,,57,127
46520,note_off,0,0,0,,2,,,62,127
46520,note_off,0,0,0,,12,,,59,127
46522,note_on,2,0,0,,12,,,59,127
46522,note_on,0,0,0,,2,,,62,127
46522,note_on,0,0,0,,5,,,53,127
46522,note_on,0,0,0,,10,,,57,127
46599,note_off,77,0,0,,2,,,74,127
46622,note_on,23,0,0,,2,,,74,127
46720,note_off,98,0,0,,2,,,74,127
46722,note_on,2,0,0,,12,,,83,127
46820,note_off,98,0,0,,12,,,83,127
46822,note_on,2,0,0,,10,,,81,127
46920,note_off,98,0,0,,10,,,81,127
46922,note_on,2,0,0,,10,,,81,127
47020,note_off,98,0,0,,10,,,81,127
47022,note_on,2,0,0,,8,,,80,127
47120,note_off,98,0,0,,8,,,80,127
47120,note_off,0,0,0,,10,,,57,127
47120,note_off,0,0,0,,5,,,53,127
47120,note_off,0,0,0,,2,,,62,127
47120,note_off,0,0,0,,12,,,59,127
47122,note_on,2,0,0,,8,,,80,127
47122,note_on,0,0,0,,4,,,52,127
47122,note_on,0,0,0,,4,,,64,127
47122,note_on,0,0,0,,12,,,59,127
47220,note_off,98,0,0,,8,,,80,127
47222,note_on,2,0,0,,12,,,83,127
47320,note_off,98,0,0,,12,,,83,127
47322,note_on,2,0,0,,8,,,80,127
47420,note_off,98,0,0,,8,,,80,127
47422,note_on,2,0,0,,4,,,76,127
47520,note_off,98,0,0,,4,,,76,127
47522,note_on,2,0,0,,8,,,80,127
47620,note_off,98,0,0,,8,,,80,127
47622,note_on,2,0,0,,12,,,83,127
47720,note_off,98,0,0,,12,,,83,127
47720,note_off,0,0,0,,12,,,59,127
47720,note_off,0,0,0,,4,,,64,127
47720,note_off,0,0,0,,4,,,52,127
47739,note_on,19,0,0,,4,,,52,127
47739,note_on,0,0,0,,12,,,83,127
47837,note_off,98,0,0,,12,,,83,127
47837,note_off,0,0,0,,4,,,52,127
47839,note_on,2,0,0,,8,,,56,127
47839,note_on,0,0,0,,1,,,85,127
47937,note_off,98,0,0,,1,,,85,127
47937,note_off,0,0,0,,8,,,56,127
47939,note_on,2,0,0,,12,,,59,127
47939,note_on,0,0,0,,2,,,86,127
48037,note_off,98,0,0,,12,,,59,127
48039,note_on,2,0,0,,4,,,64,127
48137,note_off,98,0,0,,4,,,64,127
48139,note_on,2,0,0,,8,,,68,127
48237,note_off,98,0,0,,8,,,68,127
48239,note_on,2,0,0,,12,,,71,127
48337,note_off,98,0,0,,12,,,71,127
48337,note_off,0,0,0,,2,,,86,127
48339,note_on,2,0,0,,10,,,45,127
48339,note_on,0,0,0,,1,,,85,127
48437,note_off,98,0,0,,1,,,85,127
48439,note_on,2,0,0,,10,,,81,127
48537,note_off,98,0,0,,10,,,81,127
48539,note_on,2,0,0,,8,,,80,127
48637,note_off,98,0,0,,8,,,80,127
48639,note_on,2,0,0,,12,,,83,127
48737,note_off,98,0,0,,12,,,83,127
48739,note_on,2,0,0,,10,,,81,127
48837,note_off,98,0,0,,10,,,81,127
48839,note_on,2,0,0,,4,,,76,127
48922,note_off,83,0,0,,4,,,76,127
48937,note_off,15,0,0,,10,,,45,127
48947,note_on,10,0,0,,4,,,52,127
48947,note_on,0,0,0,,12,,,83,127
49045,note_off,98,0,0,,12,,,83,127
49045,note_off,0,0,0,,4,,,52,127
49047,note_on,2,0,0,,8,,,56,127
49047,note_on,0,0,0,,1,,,85,127
49145,note_off,98,0,0,,1,,,85,127
49145,note_off,0,0,0,,8,,,56,127
49147,note_on,2,0,0,,12,,,59,127
49147,note_on,0,0,0,,2,,,86,127
49245,note_off,98,0,0,,12,,,59,127
49247,note_on,2,0,0,,4,,,64,127
49345,note_off,98,0,0,,4,,,64,127
49347,note_on,2,0,0,,8,,,68,127
49445,note_off,98,0,0,,8,,,68,127
49447,note_on,2,0,0,,12,,,71,127
49545,note_off,98,0,0,,12,,,71,127
49545,note_off,0,0,0,,2,,,86,127
49547,note_on,2,0,0,,10,,,45,127
49547,note_on,0,0,0,,1,,,85,127
49645,note_off,98,0,0,,1,,,85,127
49647,note_on,2,0,0,,10,,,81,127
49745,note_off,98,0,0,,10,,,81,127
49747,note_on,2,0,0,,8,,,80,127
49845,note_off,98,0,0,,8,,,80,127
49847,note_on,2,0,0,,12,,,83,127
49945,note_off,98,0,0,,12,,,83,127
49947,note_on,2,0,0,,10,,,81,127
50045,note_off,98,0,0,,10,,,81,127
50047,note_on,2,0,0,,4,,,76,127
50128,note_off,81,0,0,,4,,,76,127
50145,note_off,17,0,0,,10,,,45,127
50155,note_on,10,0,0,,4,,,52,127
50155,note_on,0,0,0,,12,,,83,127
50253,note_off,98,0,0,,12,,,83,127
50253,note_off,0,0,0,,4,,,52,127
50255,note_on,2,0,0,,8,,,56,127
50255,note_on,0,0,0,,1,,,85,127
50353,note_off,98,0,0,,1,,,85,127
50353,note_off,0,0,0,,8,,,56,127
50355,note_on,2,0,0,,12,,,59,127
50355,note_on,0,0,0,,2,,,86,127
50453,note_off,98,0,0,,12,,,59,127
50455,note_on,2,0,0,,4,,,64,127
50553,note_off,98,0,0,,4,,,64,127
50555,note_on,2,0,0,,8,,,68,127
50653,note_off,98,0,0,,8,,,68,127
50655,note_on,2,0,0,,12,,,71,127
50753,note_off,98,0,0,,12,,,71,127
50753,note_off,0,0,0,,2,,,86,127
50755,note_on,2,0,0,,10,,,45,127
50755,note_on,0,0,0,,1,,,85,127
50853,note_off,98,0,0,,1,,,85,127
50855,note_on,2,0,0,,10,,,81,127
50953,note_off,98,0,0,,10,,,81,127
50955,note_on,2,0,0,,8,,,80,127
51053,note_off,98,0,0,,8,,,80,127
51055,note_on,2,0,0,,12,,,83,127
51153,note_off,98,0,0,,12,,,83,127
51153,note_off,0,0,0,,10,,,45,127
51155,note_on,2,0,0,,1,,,49,127
51155,note_on,0,0,0,,10,,,81,127
51253,note_off,98,0,0,,10,,,81,127
51255,note_on,2,0,0,,4,,,76,127
51337,note_off,82,0,0,,4,,,76,127
51353,note_off,16,0,0,,1,,,49,127
51363,note_on,10,0,0,,2,,,50,127
51363,note_on,0,0,0,,6,,,78,127
51428,note_off,65,0,0,,6,,,78,127
51430,note_on,2,0,0,,8,,,80,127
51495,note_off,65,0,0,,8,,,80,127
51497,note_on,2,0,0,,10,,,81,127
51562,note_off,65,0,0,,10,,,81,127
51562,note_off,0,0,0,,2,,,50,127
51564,note_on,2,0,0,,4,,,52,127
51564,note_on,0,0,0,,8,,,80,127
51662,note_off,98,0,0,,8,,,80,127
51664,note_on,2,0,0,,6,,,78,127
51762,note_off,98,0,0,,6,,,78,127
51762,note_off,0,0,0,,4,,,52,127
51764,note_on,2,0,0,,8,,,56,127
51764,note_on,0,0,0,,4,,,76,127
51862,note_off,98,0,0,,4,,,76,127
51864,note_on,2,0,0,,2,,,74,127
51960,note_off,96,0,0,,2,,,74,127
51971,note_off,11,0,0,,8,,,56,127
51972,note_on,1,0,0,,1,,,73,127
51972,note_on,0,0,0,,10,,,57,127
52037,note_off,65,0,0,,1,,,73,127
52039,note_on,2,0,0,,2,,,74,127
52104,note_off,65,0,0,,2,,,74,127
52106,note_on,2,0,0,,4,,,76,127
52171,note_off,65,0,0,,4,,,76,127
52173,note_on,2,0,0,,2,,,74,127
52173,note_on,0,0,0,,10,,,45,127
52271,note_off,98,0,0,,2,,,74,127
52273,note_on,2,0,0,,1,,,73,127
52369,note_off,96,0,0,,10,,,57,127
52371,note_off,2,0,0,,1,,,73,127
52371,note_off,0,0,0,,10,,,45,127
52373,note_on,2,0,0,,12,,,71,127
52373,note_on,0,0,0,,1,,,49,127
52471,note_off,98,0,0,,12,,,71,127
52473,note_on,2,0,0,,10,,,69,127
52556,note_off,83,0,0,,10,,,69,127
52571,note_off,15,0,0,,1,,,49,127
52581,note_on,10,0,0,,12,,,71,127
52581,note_on,0,0,0,,2,,,50,127
52646,note_off,65,0,0,,12,,,71,127
52648,note_on,2,0,0,,1,,,73,127
52713,note_off,65,0,0,,1,,,73,127
52715,note_on,2,0,0,,2,,,74,127
52780,note_off,65,0,0,,2,,,74,127
52780,note_off,0,0,0,,2,,,50,127
52782,note_on,2,0,0,,4,,,52,127
52782,note_on,0,0,0,,1,,,73,127
52880,note_off,98,0,0,,1,,,73,127
52882,note_on,2,0,0,,12,,,71,127
52980,note_off,98,0,0,,12,,,71,127
52980,note_off,0,0,0,,4,,,52,127
52982,note_on,2,0,0,,12,,,47,127
52982,note_on,0,0,0,,10,,,69,127
53080,note_off,98,0,0,,10,,,69,127
53082,note_on,2,0,0,,8,,,68,127
53180,note_off,98,0,0,,8,,,68,127
53201,note_off,21,0,0,,12,,,47,127
53205,note_on,4,0,0,,1,,,49,127
53205,note_on,0,0,0,,10,,,81,127
53318,note_on,113,0,0,,4,,,76,127
53321,note_off,3,0,0,,10,,,81,127
53414,note_off,93,0,0,,1,,,49,127
53416,note_off,2,0,0,,4,,,76,127
53420,note_on,4,0,0,,1,,,73,127
53420,note_on,0,0,0,,10,,,45,127
53518,note_off,98,0,0,,1,,,73,127
53522,note_on,4,0,0,,10,,,69,127
53619,note_off,97,0,0,,10,,,45,127
53620,note_off,1,0,0,,10,,,69,127
53624,note_on,4,0,0,,4,,,64,127
53624,note_on,0,0,0,,1,,,49,127
53722,note_off,98,0,0,,4,,,64,127
53726,note_on,4,0,0,,1,,,61,127
53823,note_off,97,0,0,,1,,,49,127
53824,note_off,1,0,0,,1,,,61,127
53828,note_on,4,0,0,,2,,,62,127
53828,note_on,0,0,0,,2,,,50,127
53893,note_off,65,0,0,,2,,,62,127
53896,note_on,3,0,0,,4,,,64,127
53961,note_off,65,0,0,,4,,,64,127
53964,note_on,3,0,0,,6,,,66,127
54028,note_off,64,0,0,,2,,,50,127
54029,note_off,1,0,0,,6,,,66,127
54032,note_on,3,0,0,,4,,,64,127
54032,note_on,0,0,0,,4,,,52,127
54130,note_off,98,0,0,,4,,,64,127
54134,note_on,4,0,0,,2,,,62,127
54232,note_off,98,0,0,,2,,,62,127
54236,note_on,4,0,0,,1,,,61,127
54236,note_on,0,0,0,,4,,,40,127
54334,note_off,98,0,0,,1,,,61,127
54338,note_on,4,0,0,,12,,,59,127
54431,note_off,93,0,0,,4,,,52,127
54435,note_off,4,0,0,,4,,,40,127
54436,note_off,1,0,0,,12,,,59,127
54461,note_on,25,0,0,,10,,,45,127
54461,note_on,0,0,0,,10,,,57,127
56119,note_off,1658,0,0,,10,,,57,127
56119,note_off,0,0,0,,10,,,45,127
61440,end_of_track,5321,1,0,,,,,,
