tick,type,time,meta,track,program,channel,pitch,tempo,note,velocity
0,copyright,0,1,0,,,,,,
0,program_change,0,0,0,6,0,,,,
0,pitchwheel,0,0,0,,0,0,,,
0,program_change,0,0,0,6,1,,,,
0,pitchwheel,0,0,0,,1,-590,,,
0,program_change,0,0,0,6,2,,,,
0,pitchwheel,0,0,0,,2,-272,,,
0,program_change,0,0,0,6,3,,,,
0,pitchwheel,0,0,0,,3,-353,,,
0,program_change,0,0,0,6,4,,,,
0,pitchwheel,0,0,0,,4,-560,,,
0,program_change,0,0,0,6,5,,,,
0,pitchwheel,0,0,0,,5,-80,,,
0,program_change,0,0,0,6,6,,,,
0,pitchwheel,0,0,0,,6,-625,,,
0,program_change,0,0,0,6,7,,,,
0,pitchwheel,0,0,0,,7,-130,,,
0,program_change,0,0,0,6,8,,,,
0,pitchwheel,0,0,0,,8,-512,,,
0,program_change,0,0,0,6,10,,,,
0,pitchwheel,0,0,0,,10,-464,,,
0,program_change,0,0,0,6,11,,,,
0,pitchwheel,0,0,0,,11,-208,,,
0,program_change,0,0,0,6,12,,,,
0,pitchwheel,0,0,0,,12,-553,,,
0,set_tempo,0,1,0,,,,500000,,
115,note_on,115,0,0,,4,,,76,127
573,note_off,458,0,0,,4,,,76,127
575,note_on,2,0,0,,4,,,76,127
1033,note_off,458,0,0,,4,,,76,127
1035,note_on,2,0,0,,10,,,57,127
1035,note_on,0,0,0,,4,,,76,127
1493,note_off,458,0,0,,10,,,57,127
1495,note_on,2,0,0,,1,,,61,127
1723,note_off,228,0,0,,4,,,76,127
1725,note_on,2,0,0,,10,,,81,127
1838,note_off,113,0,0,,10,,,81,127
1840,note_on,2,0,0,,4,,,76,127
1953,note_off,113,0,0,,4,,,76,127
1953,note_off,0,0,0,,1,,,61,127
1955,note_on,2,0,0,,2,,,62,127
1955,note_on,0,0,0,,8,,,80,127
2068,note_off,113,0,0,,8,,,80,127
2070,note_on,2,0,0,,6,,,78,127
2183,note_off,113,0,0,,6,,,78,127
2185,note_on,2,0,0,,4,,,76,127
2298,note_off,113,0,0,,4,,,76,127
2300,note_on,2,0,0,,2,,,74,127
2413,note_off,113,0,0,,2,,,74,127
2413,note_off,0,0,0,,2,,,62,127
2415,note_on,2,0,0,,4,,,64,127
2415,note_on,0,0,0,,1,,,73,127
2643,note_off,228,0,0,,1,,,73,127
2645,note_on,2,0,0,,12,,,71,127
2873,note_off,228,0,0,,12,,,71,127
2873,note_off,0,0,0,,4,,,64,127
2875,note_on,2,0,0,,10,,,57,127
2875,note_on,0,0,0,,1,,,73,127
2988,note_off,113,0,0,,1,,,73,127
2990,note_on,2,0,0,,2,,,74,127
3103,note_off,113,0,0,,2,,,74,127
3105,note_on,2,0,0,,4,,,76,127
3335,note_on,230,0,0,,10,,,45,127
3393,note_off,58,0,0,,4,,,76,127
3565,note_off,172,0,0,,10,,,57,127
3566,note_on,1,0,0,,10,,,81,127
3679,note_off,113,0,0,,10,,,81,127
3681,note_on,2,0,0,,1,,,73,127
3794,note_off,113,0,0,,1,,,73,127
3794,note_off,0,0,0,,10,,,45,127
3796,note_on,2,0,0,,2,,,50,127
3796,note_on,0,0,0,,4,,,76,127
3909,note_off,113,0,0,,4,,,76,127
3911,note_on,2,0,0,,2,,,74,127
4024,note_off,113,0,0,,2,,,74,127
4026,note_on,2,0,0,,1,,,73,127
4139,note_off,113,0,0,,1,,,73,127
4141,note_on,2,0,0,,12,,,71,127
4254,note_off,113,0,0,,12,,,71,127
4254,note_off,0,0,0,,2,,,50,127
4256,note_on,2,0,0,,4,,,52,127
4256,note_on,0,0,0,,10,,,69,127
4484,note_off,228,0,0,,10,,,69,127
4486,note_on,2,0,0,,8,,,68,127
4714,note_off,228,0,0,,8,,,68,127
4714,note_off,0,0,0,,4,,,52,127
4716,note_on,2,0,0,,10,,,45,127
4716,note_on,0,0,0,,10,,,69,127
4944,note_off,228,0,0,,10,,,69,127
4946,note_on,2,0,0,,4,,,64,127
5174,note_off,228,0,0,,10,,,45,127
5176,note_on,2,0,0,,10,,,57,127
5291,note_off,115,0,0,,4,,,64,127
5406,note_on,115,0,0,,1,,,73,127
5519,note_off,113,0,0,,1,,,73,127
5521,note_on,2,0,0,,4,,,76,127
5634,note_off,113,0,0,,4,,,76,127
5634,note_off,0,0,0,,10,,,57,127
5636,note_on,2,0,0,,10,,,57,127
5636,note_on,0,0,0,,2,,,74,127
5864,note_off,228,0,0,,2,,,74,127
5866,note_on,2,0,0,,12,,,71,127
6094,note_off,228,0,0,,12,,,71,127
6094,note_off,0,0,0,,10,,,57,127
6096,note_on,2,0,0,,8,,,56,127
6096,note_on,0,0,0,,4,,,64,127
6324,note_off,228,0,0,,4,,,64,127
6326,note_on,2,0,0,,2,,,74,127
6554,note_off,228,0,0,,2,,,74,127
6554,note_off,0,0,0,,8,,,56,127
6556,note_on,2,0,0,,10,,,57,127
6556,note_on,0,0,0,,4,,,76,127
6611,note_off,55,0,0,,4,,,76,127
6613,note_on,2,0,0,,2,,,74,127
6668,note_off,55,0,0,,2,,,74,127
6670,note_on,2,0,0,,4,,,76,127
6725,note_off,55,0,0,,4,,,76,127
6727,note_on,2,0,0,,2,,,74,127
6782,note_off,55,0,0,,2,,,74,127
6784,note_on,2,0,0,,1,,,73,127
7012,note_off,228,0,0,,10,,,57,127
7014,note_on,2,0,0,,10,,,57,127
7129,note_off,115,0,0,,1,,,73,127
7244,note_on,115,0,0,,1,,,73,127
7357,note_off,113,0,0,,1,,,73,127
7359,note_on,2,0,0,,4,,,76,127
7472,note_off,113,0,0,,4,,,76,127
7472,note_off,0,0,0,,10,,,57,127
7474,note_on,2,0,0,,10,,,57,127
7474,note_on,0,0,0,,2,,,74,127
7702,note_off,228,0,0,,2,,,74,127
7704,note_on,2,0,0,,12,,,83,127
7932,note_off,228,0,0,,10,,,57,127
7934,note_on,2,0,0,,8,,,56,127
8162,note_off,228,0,0,,12,,,83,127
8164,note_on,2,0,0,,2,,,74,127
8392,note_off,228,0,0,,2,,,74,127
8392,note_off,0,0,0,,8,,,56,127
8394,note_on,2,0,0,,10,,,57,127
8394,note_on,0,0,0,,4,,,76,127
8449,note_off,55,0,0,,4,,,76,127
8451,note_on,2,0,0,,2,,,74,127
8506,note_off,55,0,0,,2,,,74,127
8508,note_on,2,0,0,,4,,,76,127
8563,note_off,55,0,0,,4,,,76,127
8565,note_on,2,0,0,,2,,,74,127
8620,note_off,55,0,0,,2,,,74,127
8622,note_on,2,0,0,,1,,,73,127
8850,note_off,228,0,0,,10,,,57,127
8852,note_on,2,0,0,,1,,,49,127
8967,note_off,115,0,0,,1,,,73,127
9082,note_on,115,0,0,,10,,,81,127
9195,note_off,113,0,0,,10,,,81,127
9197,note_on,2,0,0,,1,,,73,127
9310,note_off,113,0,0,,1,,,73,127
9310,note_off,0,0,0,,1,,,49,127
9312,note_on,2,0,0,,2,,,50,127
9312,note_on,0,0,0,,12,,,71,127
9540,note_off,228,0,0,,12,,,71,127
9542,note_on,2,0,0,,6,,,78,127
9770,note_off,228,0,0,,2,,,50,127
9772,note_on,2,0,0,,3,,,51,127
10000,note_off,228,0,0,,6,,,78,127
10002,note_on,2,0,0,,10,,,69,127
10230,note_off,228,0,0,,10,,,69,127
10230,note_off,0,0,0,,3,,,51,127
10232,note_on,2,0,0,,4,,,52,127
10232,note_on,0,0,0,,12,,,71,127
10287,note_off,55,0,0,,12,,,71,127
10289,note_on,2,0,0,,10,,,69,127
10344,note_off,55,0,0,,10,,,69,127
10346,note_on,2,0,0,,12,,,71,127
10401,note_off,55,0,0,,12,,,71,127
10403,note_on,2,0,0,,10,,,69,127
10458,note_off,55,0,0,,10,,,69,127
10460,note_on,2,0,0,,8,,,68,127
10688,note_off,228,0,0,,4,,,52,127
10690,note_on,2,0,0,,4,,,52,127
10805,note_off,115,0,0,,8,,,68,127
10920,note_on,115,0,0,,4,,,76,127
11033,note_off,113,0,0,,4,,,76,127
11035,note_on,2,0,0,,12,,,71,127
11148,note_off,113,0,0,,12,,,71,127
11148,note_off,0,0,0,,4,,,52,127
11150,note_on,2,0,0,,3,,,51,127
11150,note_on,0,0,0,,12,,,71,127
11378,note_off,228,0,0,,12,,,71,127
11380,note_on,2,0,0,,6,,,78,127
11608,note_off,228,0,0,,3,,,51,127
11610,note_on,2,0,0,,3,,,51,127
11838,note_off,228,0,0,,6,,,78,127
11840,note_on,2,0,0,,10,,,69,127
12068,note_off,228,0,0,,10,,,69,127
12068,note_off,0,0,0,,3,,,51,127
12070,note_on,2,0,0,,4,,,52,127
12070,note_on,0,0,0,,12,,,71,127
12125,note_off,55,0,0,,12,,,71,127
12127,note_on,2,0,0,,10,,,69,127
12182,note_off,55,0,0,,10,,,69,127
12184,note_on,2,0,0,,12,,,71,127
12239,note_off,55,0,0,,12,,,71,127
12241,note_on,2,0,0,,10,,,69,127
12296,note_off,55,0,0,,10,,,69,127
12298,note_on,2,0,0,,8,,,68,127
12516,note_on,218,0,0,,4,,,64,127
12526,note_off,10,0,0,,4,,,52,127
12586,note_off,60,0,0,,8,,,68,127
12768,note_on,182,0,0,,4,,,76,127
12881,note_off,113,0,0,,4,,,76,127
12883,note_on,2,0,0,,12,,,71,127
12974,note_off,91,0,0,,4,,,64,127
12996,note_off,22,0,0,,12,,,71,127
12998,note_on,2,0,0,,2,,,62,127
12998,note_on,0,0,0,,12,,,71,127
13226,note_off,228,0,0,,12,,,71,127
13228,note_on,2,0,0,,12,,,71,127
13456,note_off,228,0,0,,12,,,71,127
13456,note_off,0,0,0,,2,,,62,127
13458,note_on,2,0,0,,2,,,62,127
13458,note_on,0,0,0,,12,,,71,127
13686,note_off,228,0,0,,12,,,71,127
13688,note_on,2,0,0,,4,,,76,127
13801,note_off,113,0,0,,4,,,76,127
13803,note_on,2,0,0,,8,,,68,127
13916,note_off,113,0,0,,8,,,68,127
13916,note_off,0,0,0,,2,,,62,127
13918,note_on,2,0,0,,1,,,61,127
13918,note_on,0,0,0,,8,,,68,127
14146,note_off,228,0,0,,8,,,68,127
14148,note_on,2,0,0,,10,,,69,127
14376,note_off,228,0,0,,1,,,61,127
14378,note_on,2,0,0,,1,,,61,127
14493,note_off,115,0,0,,10,,,69,127
14608,note_on,115,0,0,,4,,,76,127
14721,note_off,113,0,0,,4,,,76,127
14723,note_on,2,0,0,,10,,,69,127
14836,note_off,113,0,0,,10,,,69,127
14836,note_off,0,0,0,,1,,,61,127
14838,note_on,2,0,0,,8,,,56,127
14838,note_on,0,0,0,,10,,,69,127
15066,note_off,228,0,0,,10,,,69,127
15068,note_on,2,0,0,,12,,,71,127
15296,note_off,228,0,0,,8,,,56,127
15298,note_on,2,0,0,,8,,,56,127
15413,note_off,115,0,0,,12,,,71,127
15528,note_on,115,0,0,,4,,,76,127
15641,note_off,113,0,0,,4,,,76,127
15643,note_on,2,0,0,,12,,,71,127
15756,note_off,113,0,0,,12,,,71,127
15756,note_off,0,0,0,,8,,,56,127
15758,note_on,2,0,0,,10,,,57,127
15758,note_on,0,0,0,,12,,,71,127
15986,note_off,228,0,0,,12,,,71,127
15988,note_on,2,0,0,,1,,,73,127
16216,note_off,228,0,0,,10,,,57,127
16218,note_on,2,0,0,,10,,,57,127
16372,note_off,154,0,0,,1,,,73,127
16449,note_on,77,0,0,,10,,,81,127
16562,note_off,113,0,0,,10,,,81,127
16564,note_on,2,0,0,,1,,,73,127
16677,note_off,113,0,0,,1,,,73,127
16677,note_off,0,0,0,,10,,,57,127
16679,note_on,2,0,0,,10,,,57,127
16679,note_on,0,0,0,,3,,,75,127
16907,note_off,228,0,0,,3,,,75,127
16909,note_on,2,0,0,,12,,,83,127
17022,note_off,113,0,0,,12,,,83,127
17024,note_on,2,0,0,,3,,,75,127
17137,note_off,113,0,0,,3,,,75,127
17137,note_off,0,0,0,,10,,,57,127
17139,note_on,2,0,0,,10,,,57,127
17139,note_on,0,0,0,,3,,,75,127
17367,note_off,228,0,0,,3,,,75,127
17369,note_on,2,0,0,,12,,,83,127
17482,note_off,113,0,0,,12,,,83,127
17484,note_on,2,0,0,,3,,,75,127
17597,note_off,113,0,0,,3,,,75,127
17597,note_off,0,0,0,,10,,,57,127
17599,note_on,2,0,0,,8,,,56,127
17599,note_on,0,0,0,,4,,,76,127
17827,note_off,228,0,0,,4,,,76,127
17829,note_on,2,0,0,,12,,,83,127
17942,note_off,113,0,0,,12,,,83,127
17944,note_on,2,0,0,,4,,,76,127
18057,note_off,113,0,0,,4,,,76,127
18057,note_off,0,0,0,,8,,,56,127
18059,note_on,2,0,0,,3,,,51,127
18059,note_on,0,0,0,,6,,,78,127
18287,note_off,228,0,0,,6,,,78,127
18289,note_on,2,0,0,,12,,,83,127
18402,note_off,113,0,0,,12,,,83,127
18404,note_on,2,0,0,,6,,,78,127
18517,note_off,113,0,0,,6,,,78,127
18517,note_off,0,0,0,,3,,,51,127
18519,note_on,2,0,0,,4,,,52,127
18519,note_on,0,0,0,,8,,,80,127
18747,note_off,228,0,0,,8,,,80,127
18749,note_on,2,0,0,,10,,,81,127
18862,note_off,113,0,0,,10,,,81,127
18864,note_on,2,0,0,,12,,,83,127
18977,note_off,113,0,0,,12,,,83,127
18977,note_off,0,0,0,,4,,,52,127
18979,note_on,2,0,0,,10,,,57,127
18979,note_on,0,0,0,,10,,,81,127
19092,note_off,113,0,0,,10,,,81,127
19094,note_on,2,0,0,,8,,,80,127
19207,note_off,113,0,0,,8,,,80,127
19209,note_on,2,0,0,,6,,,78,127
19322,note_off,113,0,0,,6,,,78,127
19324,note_on,2,0,0,,4,,,76,127
19437,note_off,113,0,0,,4,,,76,127
19437,note_off,0,0,0,,10,,,57,127
19439,note_on,2,0,0,,12,,,59,127
19439,note_on,0,0,0,,3,,,75,127
19667,note_off,228,0,0,,3,,,75,127
19679,note_on,12,0,0,,12,,,71,127
20111,note_off,432,0,0,,12,,,71,127
20265,note_on,154,0,0,,12,,,83,127
20359,note_off,94,0,0,,12,,,59,127
20378,note_off,19,0,0,,12,,,83,127
20380,note_on,2,0,0,,7,,,79,127
20493,note_off,113,0,0,,7,,,79,127
20495,note_on,2,0,0,,7,,,79,127
20495,note_on,0,0,0,,4,,,64,127
20723,note_off,228,0,0,,7,,,79,127
20725,note_on,2,0,0,,7,,,79,127
20953,note_off,228,0,0,,7,,,79,127
20953,note_off,0,0,0,,4,,,64,127
20955,note_on,2,0,0,,7,,,79,127
20955,note_on,0,0,0,,2,,,62,127
21183,note_off,228,0,0,,7,,,79,127
21185,note_on,2,0,0,,7,,,79,127
21413,note_off,228,0,0,,7,,,79,127
21413,note_off,0,0,0,,2,,,62,127
21415,note_on,2,0,0,,7,,,79,127
21415,note_on,0,0,0,,10,,,81,127
21415,note_on,0,0,0,,0,,,60,127
21528,note_off,113,0,0,,10,,,81,127
21528,note_off,0,0,0,,7,,,79,127
21530,note_on,2,0,0,,6,,,78,127
21643,note_off,113,0,0,,6,,,78,127
21645,note_on,2,0,0,,4,,,76,127
21873,note_off,228,0,0,,0,,,60,127
21875,note_on,2,0,0,,0,,,60,127
21990,note_off,115,0,0,,4,,,76,127
22105,note_on,115,0,0,,12,,,83,127
22218,note_off,113,0,0,,12,,,83,127
22220,note_on,2,0,0,,4,,,76,127
22333,note_off,113,0,0,,4,,,76,127
22333,note_off,0,0,0,,0,,,60,127
22335,note_on,2,0,0,,4,,,76,127
22335,note_on,0,0,0,,7,,,55,127
22563,note_off,228,0,0,,4,,,76,127
22565,note_on,2,0,0,,4,,,76,127
22793,note_off,228,0,0,,4,,,76,127
22793,note_off,0,0,0,,7,,,55,127
22795,note_on,2,0,0,,4,,,76,127
22795,note_on,0,0,0,,7,,,55,127
23023,note_off,228,0,0,,4,,,76,127
23025,note_on,2,0,0,,4,,,76,127
23253,note_off,228,0,0,,4,,,76,127
23253,note_off,0,0,0,,7,,,55,127
23255,note_on,2,0,0,,4,,,76,127
23255,note_on,0,0,0,,10,,,57,127
23368,note_off,113,0,0,,4,,,76,127
23370,note_on,2,0,0,,2,,,74,127
23483,note_off,113,0,0,,2,,,74,127
23485,note_on,2,0,0,,0,,,72,127
23713,note_off,228,0,0,,10,,,57,127
23715,note_on,2,0,0,,0,,,84,127
23715,note_on,0,0,0,,10,,,57,127
23830,note_off,115,0,0,,0,,,72,127
24173,note_off,343,0,0,,10,,,57,127
24175,note_on,2,0,0,,12,,,59,127
24403,note_off,228,0,0,,0,,,84,127
24405,note_on,2,0,0,,12,,,83,127
24518,note_off,113,0,0,,12,,,83,127
24520,note_on,2,0,0,,10,,,81,127
24633,note_off,113,0,0,,10,,,81,127
24633,note_off,0,0,0,,12,,,59,127
24635,note_on,2,0,0,,7,,,79,127
24635,note_on,0,0,0,,12,,,47,127
24748,note_off,113,0,0,,7,,,79,127
24750,note_on,2,0,0,,6,,,78,127
24863,note_off,113,0,0,,6,,,78,127
24865,note_on,2,0,0,,4,,,76,127
24978,note_off,113,0,0,,4,,,76,127
24980,note_on,2,0,0,,3,,,75,127
25093,note_off,113,0,0,,3,,,75,127
25093,note_off,0,0,0,,12,,,47,127
25095,note_on,2,0,0,,4,,,76,127
25095,note_on,0,0,0,,4,,,52,127
25551,note_off,456,0,0,,4,,,76,127
25553,note_off,2,0,0,,4,,,52,127
25567,note_on,14,0,0,,4,,,52,127
25824,note_on,257,0,0,,12,,,71,127
25937,note_off,113,0,0,,12,,,71,127
25939,note_on,2,0,0,,7,,,67,127
26025,note_off,86,0,0,,4,,,52,127
26051,note_off,26,0,0,,7,,,67,127
26053,note_on,2,0,0,,7,,,67,127
26053,note_on,0,0,0,,4,,,64,127
26281,note_off,228,0,0,,7,,,67,127
26283,note_on,2,0,0,,7,,,67,127
26511,note_off,228,0,0,,7,,,67,127
26511,note_off,0,0,0,,4,,,64,127
26513,note_on,2,0,0,,7,,,67,127
26513,note_on,0,0,0,,2,,,62,127
26741,note_off,228,0,0,,7,,,67,127
26743,note_on,2,0,0,,7,,,67,127
26971,note_off,228,0,0,,7,,,67,127
26971,note_off,0,0,0,,2,,,62,127
26973,note_on,2,0,0,,8,,,68,127
26973,note_on,0,0,0,,0,,,60,127
27201,note_off,228,0,0,,8,,,68,127
27203,note_on,2,0,0,,10,,,69,127
27431,note_off,228,0,0,,0,,,60,127
27433,note_on,2,0,0,,0,,,60,127
27548,note_off,115,0,0,,10,,,69,127
27663,note_on,115,0,0,,4,,,76,127
27776,note_off,113,0,0,,4,,,76,127
27778,note_on,2,0,0,,0,,,72,127
27891,note_off,113,0,0,,0,,,72,127
27891,note_off,0,0,0,,0,,,60,127
27893,note_on,2,0,0,,10,,,69,127
27893,note_on,0,0,0,,0,,,60,127
28121,note_off,228,0,0,,10,,,69,127
28123,note_on,2,0,0,,10,,,69,127
28351,note_off,228,0,0,,10,,,69,127
28353,note_on,2,0,0,,10,,,69,127
28581,note_off,228,0,0,,10,,,69,127
28583,note_on,2,0,0,,10,,,69,127
28811,note_off,228,0,0,,10,,,69,127
28811,note_off,0,0,0,,0,,,60,127
28813,note_on,2,0,0,,11,,,70,127
28813,note_on,0,0,0,,7,,,55,127
29041,note_off,228,0,0,,11,,,70,127
29043,note_on,2,0,0,,12,,,71,127
29271,note_off,228,0,0,,7,,,55,127
29273,note_on,2,0,0,,7,,,55,127
29388,note_off,115,0,0,,12,,,71,127
29503,note_on,115,0,0,,12,,,83,127
29616,note_off,113,0,0,,12,,,83,127
29618,note_on,2,0,0,,7,,,79,127
29731,note_off,113,0,0,,7,,,79,127
29731,note_off,0,0,0,,7,,,55,127
29733,note_on,2,0,0,,4,,,76,127
29733,note_on,0,0,0,,7,,,55,127
29961,note_off,228,0,0,,4,,,76,127
29963,note_on,2,0,0,,4,,,76,127
30191,note_off,228,0,0,,4,,,76,127
30193,note_on,2,0,0,,4,,,76,127
30421,note_off,228,0,0,,4,,,76,127
30423,note_on,2,0,0,,4,,,76,127
30651,note_off,228,0,0,,4,,,76,127
30651,note_off,0,0,0,,7,,,55,127
30653,note_on,2,0,0,,4,,,76,127
30653,note_on,0,0,0,,10,,,57,127
30766,note_off,113,0,0,,4,,,76,127
30768,note_on,2,0,0,,2,,,74,127
30881,note_off,113,0,0,,2,,,74,127
30883,note_on,2,0,0,,0,,,72,127
31111,note_off,228,0,0,,0,,,72,127
31111,note_off,0,0,0,,10,,,57,127
31113,note_on,2,0,0,,0,,,84,127
31113,note_on,0,0,0,,10,,,57,127
31571,note_off,458,0,0,,10,,,57,127
31573,note_on,2,0,0,,12,,,59,127
31801,note_off,228,0,0,,0,,,84,127
31803,note_on,2,0,0,,12,,,83,127
31916,note_off,113,0,0,,12,,,83,127
31918,note_on,2,0,0,,10,,,81,127
32031,note_off,113,0,0,,10,,,81,127
32033,note_on,2,0,0,,7,,,79,127
32033,note_on,0,0,0,,12,,,47,127
32146,note_off,113,0,0,,7,,,79,127
32148,note_on,2,0,0,,6,,,78,127
32261,note_off,113,0,0,,6,,,78,127
32263,note_on,2,0,0,,4,,,76,127
32376,note_off,113,0,0,,4,,,76,127
32378,note_on,2,0,0,,3,,,75,127
32491,note_off,113,0,0,,3,,,75,127
32491,note_off,0,0,0,,12,,,47,127
32492,note_off,1,0,0,,12,,,59,127
32493,note_on,1,0,0,,4,,,76,127
32493,note_on,0,0,0,,4,,,52,127
32721,note_off,228,0,0,,4,,,52,127
32721,note_off,0,0,0,,4,,,76,127
32743,note_on,22,0,0,,12,,,71,127
32971,note_off,228,0,0,,12,,,71,127
32973,note_on,2,0,0,,10,,,57,127
32973,note_on,0,0,0,,1,,,73,127
33201,note_off,228,0,0,,1,,,73,127
33203,note_on,2,0,0,,3,,,75,127
33316,note_off,113,0,0,,3,,,75,127
33318,note_on,2,0,0,,4,,,76,127
33431,note_off,113,0,0,,4,,,76,127
33431,note_off,0,0,0,,10,,,57,127
33433,note_on,2,0,0,,8,,,56,127
33433,note_on,0,0,0,,12,,,71,127
33661,note_off,228,0,0,,12,,,71,127
33663,note_on,2,0,0,,10,,,69,127
33776,note_off,113,0,0,,10,,,69,127
33778,note_on,2,0,0,,8,,,68,127
33891,note_off,113,0,0,,8,,,68,127
33891,note_off,0,0,0,,8,,,56,127
33893,note_on,2,0,0,,6,,,54,127
33893,note_on,0,0,0,,10,,,69,127
34121,note_off,228,0,0,,10,,,69,127
34123,note_on,2,0,0,,8,,,68,127
34236,note_off,113,0,0,,8,,,68,127
34238,note_on,2,0,0,,6,,,66,127
34351,note_off,113,0,0,,6,,,66,127
34351,note_off,0,0,0,,6,,,54,127
34353,note_on,2,0,0,,4,,,52,127
34353,note_on,0,0,0,,8,,,68,127
34581,note_off,228,0,0,,8,,,68,127
34583,note_on,2,0,0,,4,,,76,127
34811,note_off,228,0,0,,4,,,76,127
34811,note_off,0,0,0,,4,,,52,127
34813,note_on,2,0,0,,10,,,57,127
34813,note_on,0,0,0,,1,,,73,127
35041,note_off,228,0,0,,1,,,73,127
35043,note_on,2,0,0,,12,,,71,127
35156,note_off,113,0,0,,12,,,71,127
35158,note_on,2,0,0,,10,,,69,127
35271,note_off,113,0,0,,10,,,69,127
35271,note_off,0,0,0,,10,,,57,127
35273,note_on,2,0,0,,12,,,59,127
35273,note_on,0,0,0,,8,,,68,127
35501,note_off,228,0,0,,8,,,68,127
35503,note_on,2,0,0,,6,,,66,127
35616,note_off,113,0,0,,6,,,66,127
35618,note_on,2,0,0,,4,,,64,127
35731,note_off,113,0,0,,4,,,64,127
35733,note_on,2,0,0,,12,,,47,127
35733,note_on,0,0,0,,6,,,66,127
35961,note_off,228,0,0,,6,,,66,127
35963,note_on,2,0,0,,4,,,64,127
36076,note_off,113,0,0,,4,,,64,127
36078,note_on,2,0,0,,3,,,63,127
36191,note_off,113,0,0,,3,,,63,127
36191,note_off,0,0,0,,12,,,47,127
36192,note_off,1,0,0,,12,,,59,127
36193,note_on,1,0,0,,4,,,52,127
36193,note_on,0,0,0,,4,,,64,127
36421,note_off,228,0,0,,4,,,64,127
36423,note_on,2,0,0,,12,,,71,127
36651,note_off,228,0,0,,12,,,71,127
36651,note_off,0,0,0,,4,,,52,127
36653,note_on,2,0,0,,10,,,57,127
36653,note_on,0,0,0,,1,,,73,127
36881,note_off,228,0,0,,1,,,73,127
36883,note_on,2,0,0,,3,,,75,127
36996,note_off,113,0,0,,3,,,75,127
36998,note_on,2,0,0,,4,,,76,127
37111,note_off,113,0,0,,4,,,76,127
37111,note_off,0,0,0,,10,,,57,127
37113,note_on,2,0,0,,12,,,59,127
37113,note_on,0,0,0,,12,,,71,127
37341,note_off,228,0,0,,12,,,71,127
37343,note_on,2,0,0,,10,,,69,127
37456,note_off,113,0,0,,10,,,69,127
37458,note_on,2,0,0,,8,,,68,127
37571,note_off,113,0,0,,8,,,68,127
37571,note_off,0,0,0,,12,,,59,127
37573,note_on,2,0,0,,3,,,51,127
37573,note_on,0,0,0,,10,,,69,127
37801,note_off,228,0,0,,10,,,69,127
37803,note_on,2,0,0,,8,,,68,127
37916,note_off,113,0,0,,8,,,68,127
37918,note_on,2,0,0,,6,,,66,127
38031,note_off,113,0,0,,6,,,66,127
38031,note_off,0,0,0,,3,,,51,127
38033,note_on,2,0,0,,4,,,52,127
38033,note_on,0,0,0,,8,,,68,127
38261,note_off,228,0,0,,8,,,68,127
38263,note_on,2,0,0,,4,,,76,127
38491,note_off,228,0,0,,4,,,76,127
38491,note_off,0,0,0,,4,,,52,127
38493,note_on,2,0,0,,10,,,57,127
38493,note_on,0,0,0,,3,,,75,127
38606,note_off,113,0,0,,3,,,75,127
38608,note_on,2,0,0,,1,,,73,127
38721,note_off,113,0,0,,1,,,73,127
38723,note_on,2,0,0,,12,,,71,127
38836,note_off,113,0,0,,12,,,71,127
38838,note_on,2,0,0,,10,,,69,127
38951,note_off,113,0,0,,10,,,69,127
38951,note_off,0,0,0,,10,,,57,127
38953,note_on,2,0,0,,12,,,59,127
38953,note_on,0,0,0,,8,,,68,127
39181,note_off,228,0,0,,8,,,68,127
39183,note_on,2,0,0,,6,,,66,127
39296,note_off,113,0,0,,6,,,66,127
39298,note_on,2,0,0,,4,,,64,127
39411,note_off,113,0,0,,4,,,64,127
39413,note_on,2,0,0,,12,,,47,127
39413,note_on,0,0,0,,6,,,66,127
39641,note_off,228,0,0,,6,,,66,127
39643,note_on,2,0,0,,4,,,64,127
39750,note_off,107,0,0,,12,,,59,127
39756,note_off,6,0,0,,4,,,64,127
39758,note_on,2,0,0,,3,,,63,127
39871,note_off,113,0,0,,3,,,63,127
39871,note_off,0,0,0,,12,,,47,127
39873,note_on,2,0,0,,4,,,40,127
39873,note_on,0,0,0,,4,,,64,127
40449,note_off,576,0,0,,4,,,64,127
40603,note_on,154,0,0,,4,,,76,127
40716,note_off,113,0,0,,4,,,76,127
40718,note_on,2,0,0,,12,,,71,127
40792,note_off,74,0,0,,4,,,40,127
40830,note_off,38,0,0,,12,,,71,127
40832,note_on,2,0,0,,4,,,64,127
40832,note_on,0,0,0,,12,,,71,127
41060,note_off,228,0,0,,12,,,71,127
41062,note_on,2,0,0,,12,,,71,127
41290,note_off,228,0,0,,12,,,71,127
41290,note_off,0,0,0,,4,,,64,127
41292,note_on,2,0,0,,4,,,64,127
41292,note_on,0,0,0,,12,,,71,127
41520,note_off,228,0,0,,12,,,71,127
41522,note_on,2,0,0,,12,,,71,127
41750,note_off,228,0,0,,12,,,71,127
41750,note_off,0,0,0,,4,,,64,127
41752,note_on,2,0,0,,2,,,62,127
41752,note_on,0,0,0,,8,,,68,127
41865,note_off,113,0,0,,8,,,68,127
41867,note_on,2,0,0,,10,,,69,127
41980,note_off,113,0,0,,10,,,69,127
41982,note_on,2,0,0,,12,,,71,127
42210,note_off,228,0,0,,2,,,62,127
42212,note_on,2,0,0,,2,,,62,127
42327,note_off,115,0,0,,12,,,71,127
42442,note_on,115,0,0,,4,,,76,127
42555,note_off,113,0,0,,4,,,76,127
42557,note_on,2,0,0,,12,,,71,127
42670,note_off,113,0,0,,12,,,71,127
42670,note_off,0,0,0,,2,,,62,127
42672,note_on,2,0,0,,2,,,62,127
42672,note_on,0,0,0,,12,,,71,127
42900,note_off,228,0,0,,12,,,71,127
42902,note_on,2,0,0,,12,,,71,127
43130,note_off,228,0,0,,12,,,71,127
43130,note_off,0,0,0,,2,,,62,127
43132,note_on,2,0,0,,2,,,62,127
43132,note_on,0,0,0,,12,,,71,127
43360,note_off,228,0,0,,12,,,71,127
43362,note_on,2,0,0,,12,,,71,127
43590,note_off,228,0,0,,12,,,71,127
43590,note_off,0,0,0,,2,,,62,127
43592,note_on,2,0,0,,1,,,61,127
43592,note_on,0,0,0,,11,,,70,127
43705,note_off,113,0,0,,11,,,70,127
43707,note_on,2,0,0,,12,,,71,127
43820,note_off,113,0,0,,12,,,71,127
43822,note_on,2,0,0,,1,,,73,127
44050,note_off,228,0,0,,1,,,61,127
44052,note_on,2,0,0,,1,,,61,127
44167,note_off,115,0,0,,1,,,73,127
44282,note_on,115,0,0,,1,,,85,127
44395,note_off,113,0,0,,1,,,85,127
44397,note_on,2,0,0,,11,,,82,127
44510,note_off,113,0,0,,11,,,82,127
44510,note_off,0,0,0,,1,,,61,127
44512,note_on,2,0,0,,6,,,54,127
44512,note_on,0,0,0,,7,,,79,127
44740,note_off,228,0,0,,7,,,79,127
44742,note_on,2,0,0,,4,,,76,127
44970,note_off,228,0,0,,4,,,76,127
44970,note_off,0,0,0,,6,,,54,127
44972,note_on,2,0,0,,6,,,54,127
44972,note_on,0,0,0,,4,,,76,127
45200,note_off,228,0,0,,4,,,76,127
45202,note_on,2,0,0,,1,,,73,127
45430,note_off,228,0,0,,1,,,73,127
45430,note_off,0,0,0,,6,,,54,127
45432,note_on,2,0,0,,12,,,59,127
45432,note_on,0,0,0,,2,,,74,127
45545,note_off,113,0,0,,2,,,74,127
45547,note_on,2,0,0,,4,,,76,127
45660,note_off,113,0,0,,4,,,76,127
45662,note_on,2,0,0,,6,,,78,127
45890,note_off,228,0,0,,12,,,59,127
45902,note_on,12,0,0,,12,,,59,127
46008,note_off,106,0,0,,6,,,78,127
46142,note_on,134,0,0,,12,,,83,127
46255,note_off,113,0,0,,12,,,83,127
46257,note_on,2,0,0,,6,,,78,127
46360,note_off,103,0,0,,12,,,59,127
46370,note_off,10,0,0,,6,,,78,127
46372,note_on,2,0,0,,6,,,78,127
46372,note_on,0,0,0,,10,,,57,127
46600,note_off,228,0,0,,6,,,78,127
46602,note_on,2,0,0,,12,,,83,127
46715,note_off,113,0,0,,12,,,83,127
46717,note_on,2,0,0,,6,,,78,127
46830,note_off,113,0,0,,6,,,78,127
46830,note_off,0,0,0,,10,,,57,127
46832,note_on,2,0,0,,6,,,78,127
46832,note_on,0,0,0,,10,,,57,127
47060,note_off,228,0,0,,6,,,78,127
47062,note_on,2,0,0,,6,,,78,127
47290,note_off,228,0,0,,6,,,78,127
47290,note_off,0,0,0,,10,,,57,127
47292,note_on,2,0,0,,12,,,83,127
47292,note_on,0,0,0,,7,,,55,127
47405,note_off,113,0,0,,12,,,83,127
47407,note_on,2,0,0,,7,,,79,127
47520,note_off,113,0,0,,7,,,79,127
47522,note_on,2,0,0,,10,,,81,127
47635,note_off,113,0,0,,10,,,81,127
47637,note_on,2,0,0,,6,,,78,127
47750,note_off,113,0,0,,6,,,78,127
47752,note_on,2,0,0,,4,,,76,127
47980,note_off,228,0,0,,4,,,76,127
47981,note_off,1,0,0,,7,,,55,127
47982,note_on,1,0,0,,10,,,81,127
48095,note_off,113,0,0,,10,,,81,127
48097,note_on,2,0,0,,4,,,76,127
48210,note_off,113,0,0,,4,,,76,127
48212,note_on,2,0,0,,4,,,76,127
48212,note_on,0,0,0,,7,,,55,127
48440,note_off,228,0,0,,4,,,76,127
48442,note_on,2,0,0,,10,,,81,127
48555,note_off,113,0,0,,10,,,81,127
48557,note_on,2,0,0,,4,,,76,127
48670,note_off,113,0,0,,4,,,76,127
48670,note_off,0,0,0,,7,,,55,127
48672,note_on,2,0,0,,4,,,76,127
48672,note_on,0,0,0,,7,,,55,127
48900,note_off,228,0,0,,4,,,76,127
48902,note_on,2,0,0,,4,,,76,127
49130,note_off,228,0,0,,4,,,76,127
49130,note_off,0,0,0,,7,,,55,127
49132,note_on,2,0,0,,10,,,81,127
49132,note_on,0,0,0,,6,,,54,127
49245,note_off,113,0,0,,10,,,81,127
49247,note_on,2,0,0,,6,,,78,127
49360,note_off,113,0,0,,6,,,78,127
49362,note_on,2,0,0,,7,,,79,127
49475,note_off,113,0,0,,7,,,79,127
49477,note_on,2,0,0,,4,,,76,127
49590,note_off,113,0,0,,4,,,76,127
49590,note_off,0,0,0,,6,,,54,127
49592,note_on,2,0,0,,2,,,74,127
49592,note_on,0,0,0,,6,,,54,127
49820,note_off,228,0,0,,2,,,74,127
49822,note_on,2,0,0,,10,,,81,127
49935,note_off,113,0,0,,10,,,81,127
49937,note_on,2,0,0,,2,,,74,127
50050,note_off,113,0,0,,2,,,74,127
50050,note_off,0,0,0,,6,,,54,127
50052,note_on,2,0,0,,1,,,73,127
50052,note_on,0,0,0,,4,,,52,127
50280,note_off,228,0,0,,1,,,73,127
50282,note_on,2,0,0,,10,,,81,127
50395,note_off,113,0,0,,10,,,81,127
50397,note_on,2,0,0,,1,,,73,127
50510,note_off,113,0,0,,1,,,73,127
50510,note_off,0,0,0,,4,,,52,127
50512,note_on,2,0,0,,12,,,71,127
50512,note_on,0,0,0,,2,,,50,127
50740,note_off,228,0,0,,12,,,71,127
50742,note_on,2,0,0,,10,,,81,127
50855,note_off,113,0,0,,10,,,81,127
50857,note_on,2,0,0,,12,,,71,127
50970,note_off,113,0,0,,12,,,71,127
50970,note_off,0,0,0,,2,,,50,127
50972,note_on,2,0,0,,10,,,69,127
50972,note_on,0,0,0,,1,,,49,127
51200,note_off,228,0,0,,10,,,69,127
51202,note_on,2,0,0,,4,,,76,127
51315,note_off,113,0,0,,4,,,76,127
51317,note_on,2,0,0,,10,,,69,127
51430,note_off,113,0,0,,10,,,69,127
51430,note_off,0,0,0,,1,,,49,127
51432,note_on,2,0,0,,12,,,71,127
51432,note_on,0,0,0,,8,,,44,127
51660,note_off,228,0,0,,12,,,71,127
51662,note_on,2,0,0,,4,,,76,127
51775,note_off,113,0,0,,4,,,76,127
51777,note_on,2,0,0,,12,,,71,127
51890,note_off,113,0,0,,12,,,71,127
51890,note_off,0,0,0,,8,,,44,127
51892,note_on,2,0,0,,1,,,73,127
51892,note_on,0,0,0,,10,,,45,127
52120,note_off,228,0,0,,1,,,73,127
52122,note_on,2,0,0,,10,,,81,127
52235,note_off,113,0,0,,10,,,81,127
52237,note_on,2,0,0,,1,,,73,127
52350,note_off,113,0,0,,1,,,73,127
52350,note_off,0,0,0,,10,,,45,127
52352,note_on,2,0,0,,2,,,74,127
52352,note_on,0,0,0,,12,,,47,127
52580,note_off,228,0,0,,2,,,74,127
52582,note_on,2,0,0,,10,,,81,127
52695,note_off,113,0,0,,10,,,81,127
52697,note_on,2,0,0,,2,,,74,127
52810,note_off,113,0,0,,2,,,74,127
52810,note_off,0,0,0,,12,,,47,127
52812,note_on,2,0,0,,4,,,76,127
52812,note_on,0,0,0,,1,,,49,127
53040,note_off,228,0,0,,4,,,76,127
53042,note_on,2,0,0,,6,,,78,127
53155,note_off,113,0,0,,6,,,78,127
53157,note_on,2,0,0,,4,,,76,127
53270,note_off,113,0,0,,4,,,76,127
53270,note_off,0,0,0,,1,,,49,127
53272,note_on,2,0,0,,2,,,74,127
53272,note_on,0,0,0,,2,,,50,127
53385,note_off,113,0,0,,2,,,74,127
53387,note_on,2,0,0,,1,,,73,127
53500,note_off,113,0,0,,1,,,73,127
53502,note_on,2,0,0,,12,,,71,127
53615,note_off,113,0,0,,12,,,71,127
53617,note_on,2,0,0,,10,,,69,127
53730,note_off,113,0,0,,10,,,69,127
53730,note_off,0,0,0,,2,,,50,127
53732,note_on,2,0,0,,8,,,68,127
53732,note_on,0,0,0,,4,,,52,127
53960,note_off,228,0,0,,8,,,68,127
53977,note_on,17,0,0,,4,,,64,127
54323,note_off,346,0,0,,4,,,64,127
54472,note_on,149,0,0,,4,,,76,127
54585,note_off,113,0,0,,4,,,76,127
54587,note_on,2,0,0,,0,,,72,127
54652,note_off,65,0,0,,4,,,52,127
54700,note_off,48,0,0,,0,,,72,127
54702,note_on,2,0,0,,0,,,72,127
54702,note_on,0,0,0,,10,,,57,127
54930,note_off,228,0,0,,0,,,72,127
54932,note_on,2,0,0,,0,,,72,127
55160,note_off,228,0,0,,0,,,72,127
55160,note_off,0,0,0,,10,,,57,127
55162,note_on,2,0,0,,0,,,72,127
55162,note_on,0,0,0,,7,,,55,127
55390,note_off,228,0,0,,0,,,72,127
55392,note_on,2,0,0,,0,,,72,127
55620,note_off,228,0,0,,0,,,72,127
55620,note_off,0,0,0,,7,,,55,127
55622,note_on,2,0,0,,2,,,74,127
55622,note_on,0,0,0,,0,,,72,127
55622,note_on,0,0,0,,5,,,53,127
55735,note_off,113,0,0,,0,,,72,127
55735,note_off,0,0,0,,2,,,74,127
55737,note_on,2,0,0,,12,,,71,127
55850,note_off,113,0,0,,12,,,71,127
55852,note_on,2,0,0,,10,,,69,127
56080,note_off,228,0,0,,5,,,53,127
56082,note_on,2,0,0,,5,,,53,127
56197,note_off,115,0,0,,10,,,69,127
56312,note_on,115,0,0,,4,,,76,127
56425,note_off,113,0,0,,4,,,76,127
56427,note_on,2,0,0,,10,,,69,127
56540,note_off,113,0,0,,10,,,69,127
56540,note_off,0,0,0,,5,,,53,127
56542,note_on,2,0,0,,10,,,69,127
56542,note_on,0,0,0,,0,,,48,127
56770,note_off,228,0,0,,10,,,69,127
56772,note_on,2,0,0,,10,,,69,127
57000,note_off,228,0,0,,10,,,69,127
57000,note_off,0,0,0,,0,,,48,127
57002,note_on,2,0,0,,10,,,69,127
57002,note_on,0,0,0,,0,,,48,127
57230,note_off,228,0,0,,10,,,69,127
57232,note_on,2,0,0,,10,,,69,127
57460,note_off,228,0,0,,10,,,69,127
57460,note_off,0,0,0,,0,,,48,127
57462,note_on,2,0,0,,5,,,65,127
57462,note_on,0,0,0,,2,,,50,127
57575,note_off,113,0,0,,5,,,65,127
57577,note_on,2,0,0,,8,,,68,127
57690,note_off,113,0,0,,8,,,68,127
57692,note_on,2,0,0,,12,,,71,127
57805,note_off,113,0,0,,12,,,71,127
57807,note_on,2,0,0,,2,,,74,127
57920,note_off,113,0,0,,2,,,74,127
57920,note_off,0,0,0,,2,,,50,127
57922,note_on,2,0,0,,5,,,77,127
57922,note_on,0,0,0,,2,,,50,127
58380,note_off,458,0,0,,2,,,50,127
58382,note_on,2,0,0,,4,,,52,127
58610,note_off,228,0,0,,5,,,77,127
58612,note_on,2,0,0,,4,,,76,127
58725,note_off,113,0,0,,4,,,76,127
58727,note_on,2,0,0,,2,,,74,127
58840,note_off,113,0,0,,2,,,74,127
58842,note_on,2,0,0,,0,,,72,127
58842,note_on,0,0,0,,4,,,40,127
58955,note_off,113,0,0,,0,,,72,127
58957,note_on,2,0,0,,12,,,71,127
59070,note_off,113,0,0,,12,,,71,127
59072,note_on,2,0,0,,10,,,69,127
59185,note_off,113,0,0,,10,,,69,127
59187,note_on,2,0,0,,8,,,68,127
59300,note_off,113,0,0,,8,,,68,127
59300,note_off,0,0,0,,4,,,40,127
59301,note_off,1,0,0,,4,,,52,127
59302,note_on,1,0,0,,10,,,69,127
59302,note_on,0,0,0,,10,,,45,127
59790,note_off,488,0,0,,10,,,69,127
60070,note_on,280,0,0,,4,,,76,127
60183,note_off,113,0,0,,4,,,76,127
60185,note_on,2,0,0,,0,,,72,127
60221,note_off,36,0,0,,10,,,45,127
60298,note_off,77,0,0,,0,,,72,127
60300,note_on,2,0,0,,10,,,57,127
60300,note_on,0,0,0,,0,,,72,127
60528,note_off,228,0,0,,0,,,72,127
60530,note_on,2,0,0,,0,,,72,127
60758,note_off,228,0,0,,0,,,72,127
60758,note_off,0,0,0,,10,,,57,127
60760,note_on,2,0,0,,7,,,55,127
60760,note_on,0,0,0,,0,,,72,127
60988,note_off,228,0,0,,0,,,72,127
60990,note_on,2,0,0,,0,,,72,127
61218,note_off,228,0,0,,0,,,72,127
61218,note_off,0,0,0,,7,,,55,127
61220,note_on,2,0,0,,5,,,53,127
61220,note_on,0,0,0,,1,,,73,127
61448,note_off,228,0,0,,1,,,73,127
61450,note_on,2,0,0,,2,,,74,127
61678,note_off,228,0,0,,5,,,53,127
61680,note_on,2,0,0,,5,,,53,127
61908,note_off,228,0,0,,2,,,74,127
61910,note_on,2,0,0,,10,,,81,127
62023,note_off,113,0,0,,10,,,81,127
62025,note_on,2,0,0,,5,,,77,127
62138,note_off,113,0,0,,5,,,77,127
62138,note_off,0,0,0,,5,,,53,127
62140,note_on,2,0,0,,5,,,53,127
62140,note_on,0,0,0,,2,,,74,127
62368,note_off,228,0,0,,2,,,74,127
62370,note_on,2,0,0,,2,,,74,127
62598,note_off,228,0,0,,2,,,74,127
62600,note_on,2,0,0,,2,,,74,127
62828,note_off,228,0,0,,2,,,74,127
62830,note_on,2,0,0,,2,,,74,127
63058,note_off,228,0,0,,2,,,74,127
63058,note_off,0,0,0,,5,,,53,127
63060,note_on,2,0,0,,0,,,48,127
63060,note_on,0,0,0,,3,,,75,127
63288,note_off,228,0,0,,3,,,75,127
63290,note_on,2,0,0,,4,,,76,127
63518,note_off,228,0,0,,0,,,48,127
63520,note_on,2,0,0,,0,,,48,127
63698,note_off,178,0,0,,4,,,76,127
63751,note_on,53,0,0,,0,,,84,127
63864,note_off,113,0,0,,0,,,84,127
63866,note_on,2,0,0,,10,,,81,127
63979,note_off,113,0,0,,10,,,81,127
63979,note_off,0,0,0,,0,,,48,127
63981,note_on,2,0,0,,0,,,48,127
63981,note_on,0,0,0,,4,,,76,127
64209,note_off,228,0,0,,4,,,76,127
64211,note_on,2,0,0,,4,,,76,127
64439,note_off,228,0,0,,4,,,76,127
64441,note_on,2,0,0,,4,,,76,127
64669,note_off,228,0,0,,4,,,76,127
64671,note_on,2,0,0,,4,,,76,127
64899,note_off,228,0,0,,4,,,76,127
64899,note_off,0,0,0,,0,,,48,127
64901,note_on,2,0,0,,2,,,50,127
64901,note_on,0,0,0,,5,,,77,127
65129,note_off,228,0,0,,5,,,77,127
65131,note_on,2,0,0,,2,,,74,127
65359,note_off,228,0,0,,2,,,50,127
65361,note_on,2,0,0,,2,,,50,127
65589,note_off,228,0,0,,2,,,74,127
65591,note_on,2,0,0,,2,,,86,127
65704,note_off,113,0,0,,2,,,86,127
65706,note_on,2,0,0,,12,,,83,127
65819,note_off,113,0,0,,12,,,83,127
65819,note_off,0,0,0,,2,,,50,127
65821,note_on,2,0,0,,4,,,52,127
65821,note_on,0,0,0,,4,,,76,127
66049,note_off,228,0,0,,4,,,76,127
66051,note_on,2,0,0,,0,,,84,127
66164,note_off,113,0,0,,0,,,84,127
66166,note_on,2,0,0,,10,,,81,127
66279,note_off,113,0,0,,10,,,81,127
66281,note_on,2,0,0,,4,,,40,127
66281,note_on,0,0,0,,2,,,74,127
66509,note_off,228,0,0,,2,,,74,127
66511,note_on,2,0,0,,12,,,83,127
66624,note_off,113,0,0,,12,,,83,127
66626,note_on,2,0,0,,8,,,80,127
66739,note_off,113,0,0,,8,,,80,127
66739,note_off,0,0,0,,4,,,40,127
66740,note_off,1,0,0,,4,,,52,127
66741,note_on,1,0,0,,10,,,45,127
66741,note_on,0,0,0,,10,,,81,127
66969,note_off,228,0,0,,10,,,81,127
66969,note_off,0,0,0,,10,,,45,127
66991,note_on,22,0,0,,4,,,76,127
67219,note_off,228,0,0,,4,,,76,127
67221,note_on,2,0,0,,6,,,78,127
67221,note_on,0,0,0,,2,,,62,127
67449,note_off,228,0,0,,6,,,78,127
67451,note_on,2,0,0,,8,,,80,127
67564,note_off,113,0,0,,8,,,80,127
67566,note_on,2,0,0,,10,,,81,127
67679,note_off,113,0,0,,10,,,81,127
67679,note_off,0,0,0,,2,,,62,127
67681,note_on,2,0,0,,6,,,78,127
67681,note_on,0,0,0,,1,,,61,127
67794,note_off,113,0,0,,6,,,78,127
67796,note_on,2,0,0,,4,,,76,127
67909,note_off,113,0,0,,4,,,76,127
67911,note_on,2,0,0,,2,,,74,127
68024,note_off,113,0,0,,2,,,74,127
68026,note_on,2,0,0,,1,,,73,127
68139,note_off,113,0,0,,1,,,73,127
68139,note_off,0,0,0,,1,,,61,127
68141,note_on,2,0,0,,2,,,74,127
68141,note_on,0,0,0,,12,,,59,127
68369,note_off,228,0,0,,2,,,74,127
68371,note_on,2,0,0,,1,,,73,127
68484,note_off,113,0,0,,1,,,73,127
68486,note_on,2,0,0,,12,,,71,127
68599,note_off,113,0,0,,12,,,71,127
68599,note_off,0,0,0,,12,,,59,127
68601,note_on,2,0,0,,1,,,73,127
68601,note_on,0,0,0,,10,,,57,127
68829,note_off,228,0,0,,1,,,73,127
68831,note_on,2,0,0,,10,,,81,127
69059,note_off,228,0,0,,10,,,81,127
69059,note_off,0,0,0,,10,,,57,127
69061,note_on,2,0,0,,8,,,80,127
69061,note_on,0,0,0,,2,,,50,127
69174,note_off,113,0,0,,8,,,80,127
69176,note_on,2,0,0,,6,,,78,127
69289,note_off,113,0,0,,6,,,78,127
69291,note_on,2,0,0,,4,,,76,127
69404,note_off,113,0,0,,4,,,76,127
69406,note_on,2,0,0,,2,,,74,127
69519,note_off,113,0,0,,2,,,74,127
69519,note_off,0,0,0,,2,,,50,127
69521,note_on,2,0,0,,1,,,73,127
69521,note_on,0,0,0,,4,,,52,127
69749,note_off,228,0,0,,1,,,73,127
69751,note_on,2,0,0,,12,,,71,127
69864,note_off,113,0,0,,12,,,71,127
69866,note_on,2,0,0,,10,,,69,127
69979,note_off,113,0,0,,10,,,69,127
69981,note_on,2,0,0,,12,,,71,127
69981,note_on,0,0,0,,4,,,40,127
70209,note_off,228,0,0,,12,,,71,127
70211,note_on,2,0,0,,10,,,69,127
70324,note_off,113,0,0,,10,,,69,127
70326,note_on,2,0,0,,8,,,68,127
70439,note_off,113,0,0,,8,,,68,127
70439,note_off,0,0,0,,4,,,40,127
70440,note_off,1,0,0,,4,,,52,127
70441,note_on,1,0,0,,10,,,69,127
70441,note_on,0,0,0,,10,,,45,127
70669,note_off,228,0,0,,10,,,69,127
70691,note_on,22,0,0,,4,,,76,127
70900,note_off,209,0,0,,10,,,45,127
70919,note_off,19,0,0,,4,,,76,127
70921,note_on,2,0,0,,2,,,50,127
70921,note_on,0,0,0,,6,,,78,127
71149,note_off,228,0,0,,6,,,78,127
71151,note_on,2,0,0,,8,,,80,127
71264,note_off,113,0,0,,8,,,80,127
71266,note_on,2,0,0,,10,,,81,127
71379,note_off,113,0,0,,10,,,81,127
71379,note_off,0,0,0,,2,,,50,127
71381,note_on,2,0,0,,1,,,49,127
71381,note_on,0,0,0,,4,,,76,127
71609,note_off,228,0,0,,4,,,76,127
71611,note_on,2,0,0,,2,,,74,127
71724,note_off,113,0,0,,2,,,74,127
71726,note_on,2,0,0,,1,,,73,127
71839,note_off,113,0,0,,1,,,73,127
71839,note_off,0,0,0,,1,,,49,127
71841,note_on,2,0,0,,12,,,47,127
71841,note_on,0,0,0,,2,,,74,127
72069,note_off,228,0,0,,2,,,74,127
72071,note_on,2,0,0,,1,,,73,127
72184,note_off,113,0,0,,1,,,73,127
72186,note_on,2,0,0,,12,,,71,127
72299,note_off,113,0,0,,12,,,71,127
72299,note_off,0,0,0,,12,,,47,127
72301,note_on,2,0,0,,10,,,45,127
72301,note_on,0,0,0,,1,,,73,127
72529,note_off,228,0,0,,1,,,73,127
72531,note_on,2,0,0,,10,,,81,127
72759,note_off,228,0,0,,10,,,81,127
72759,note_off,0,0,0,,10,,,45,127
72761,note_on,2,0,0,,2,,,50,127
72761,note_on,0,0,0,,6,,,78,127
72989,note_off,228,0,0,,6,,,78,127
72991,note_on,2,0,0,,4,,,76,127
73104,note_off,113,0,0,,4,,,76,127
73106,note_on,2,0,0,,2,,,74,127
73219,note_off,113,0,0,,2,,,74,127
73219,note_off,0,0,0,,2,,,50,127
73221,note_on,2,0,0,,4,,,52,127
73221,note_on,0,0,0,,1,,,73,127
73449,note_off,228,0,0,,1,,,73,127
73451,note_on,2,0,0,,12,,,71,127
73564,note_off,113,0,0,,12,,,71,127
73566,note_on,2,0,0,,10,,,69,127
73679,note_off,113,0,0,,10,,,69,127
73681,note_on,2,0,0,,4,,,40,127
73681,note_on,0,0,0,,12,,,71,127
73909,note_off,228,0,0,,12,,,71,127
73911,note_on,2,0,0,,10,,,69,127
74024,note_off,113,0,0,,10,,,69,127
74026,note_on,2,0,0,,8,,,68,127
74139,note_off,113,0,0,,8,,,68,127
74139,note_off,0,0,0,,4,,,40,127
74140,note_off,1,0,0,,4,,,52,127
74151,note_on,11,0,0,,10,,,45,127
74151,note_on,0,0,0,,10,,,69,127
75951,note_off,1800,0,0,,10,,,69,127
75951,note_off,0,0,0,,10,,,45,127
76800,end_of_track,849,1,0,,,,,,
