tick,type,time,meta,track,program,channel,pitch,tempo,note,velocity
0,copyright,0,1,0,,,,,,
0,program_change,0,0,0,6,0,,,,
0,pitchwheel,0,0,0,,0,0,,,
0,program_change,0,0,0,6,1,,,,
0,pitchwheel,0,0,0,,1,-590,,,
0,program_change,0,0,0,6,2,,,,
0,pitchwheel,0,0,0,,2,-272,,,
0,program_change,0,0,0,6,3,,,,
0,pitchwheel,0,0,0,,3,-353,,,
0,program_change,0,0,0,6,4,,,,
0,pitchwheel,0,0,0,,4,-560,,,
0,program_change,0,0,0,6,5,,,,
0,pitchwheel,0,0,0,,5,-80,,,
0,program_change,0,0,0,6,6,,,,
0,pitchwheel,0,0,0,,6,-625,,,
0,program_change,0,0,0,6,7,,,,
0,pitchwheel,0,0,0,,7,-130,,,
0,program_change,0,0,0,6,8,,,,
0,pitchwheel,0,0,0,,8,-512,,,
0,program_change,0,0,0,6,10,,,,
0,pitchwheel,0,0,0,,10,-464,,,
0,program_change,0,0,0,6,11,,,,
0,pitchwheel,0,0,0,,11,-208,,,
0,program_change,0,0,0,6,12,,,,
0,pitchwheel,0,0,0,,12,-553,,,
0,set_tempo,0,1,0,,,,500000,,
100,note_on,100,0,0,,10,,,57,127
100,note_on,0,0,0,,4,,,76,127
234,note_on,134,0,0,,1,,,73,127
266,note_off,32,0,0,,4,,,76,127
367,note_on,101,0,0,,10,,,81,127
399,note_off,32,0,0,,1,,,73,127
499,note_off,100,0,0,,10,,,57,127
500,note_on,1,0,0,,10,,,57,127
500,note_on,0,0,0,,4,,,76,127
532,note_off,32,0,0,,10,,,81,127
633,note_on,101,0,0,,1,,,73,127
665,note_off,32,0,0,,4,,,76,127
766,note_on,101,0,0,,10,,,81,127
798,note_off,32,0,0,,1,,,73,127
898,note_off,100,0,0,,10,,,81,127
898,note_off,0,0,0,,10,,,57,127
899,note_on,1,0,0,,10,,,57,127
899,note_on,0,0,0,,6,,,78,127
965,note_off,66,0,0,,6,,,78,127
966,note_on,1,0,0,,4,,,76,127
1032,note_off,66,0,0,,4,,,76,127
1032,note_off,0,0,0,,10,,,57,127
1033,note_on,1,0,0,,12,,,59,127
1033,note_on,0,0,0,,6,,,78,127
1099,note_off,66,0,0,,6,,,78,127
1100,note_on,1,0,0,,4,,,76,127
1166,note_off,66,0,0,,4,,,76,127
1166,note_off,0,0,0,,12,,,59,127
1167,note_on,1,0,0,,1,,,61,127
1167,note_on,0,0,0,,10,,,81,127
1300,note_off,133,0,0,,10,,,81,127
1300,note_off,0,0,0,,1,,,61,127
1301,note_on,1,0,0,,2,,,62,127
1301,note_on,0,0,0,,2,,,74,127
1434,note_off,133,0,0,,2,,,74,127
1435,note_on,1,0,0,,1,,,73,127
1568,note_off,133,0,0,,1,,,73,127
1568,note_off,0,0,0,,2,,,62,127
1569,note_on,1,0,0,,4,,,64,127
1569,note_on,0,0,0,,12,,,71,127
1702,note_off,133,0,0,,12,,,71,127
1702,note_off,0,0,0,,4,,,64,127
1703,note_on,1,0,0,,10,,,57,127
1703,note_on,0,0,0,,2,,,74,127
1769,note_off,66,0,0,,2,,,74,127
1770,note_on,1,0,0,,1,,,73,127
1836,note_off,66,0,0,,1,,,73,127
1836,note_off,0,0,0,,10,,,57,127
1837,note_on,1,0,0,,12,,,59,127
1837,note_on,0,0,0,,2,,,74,127
1903,note_off,66,0,0,,2,,,74,127
1904,note_on,1,0,0,,1,,,73,127
1970,note_off,66,0,0,,1,,,73,127
1970,note_off,0,0,0,,12,,,59,127
1971,note_on,1,0,0,,1,,,61,127
1971,note_on,0,0,0,,10,,,81,127
2104,note_off,133,0,0,,10,,,81,127
2104,note_off,0,0,0,,1,,,61,127
2105,note_on,1,0,0,,2,,,62,127
2105,note_on,0,0,0,,12,,,71,127
2238,note_off,133,0,0,,12,,,71,127
2239,note_on,1,0,0,,10,,,69,127
2372,note_off,133,0,0,,10,,,69,127
2372,note_off,0,0,0,,2,,,62,127
2373,note_on,1,0,0,,4,,,64,127
2373,note_on,0,0,0,,8,,,68,127
2506,note_off,133,0,0,,8,,,68,127
2506,note_off,0,0,0,,4,,,64,127
2507,note_on,1,0,0,,10,,,57,127
2507,note_on,0,0,0,,12,,,71,127
2573,note_off,66,0,0,,12,,,71,127
2574,note_on,1,0,0,,10,,,69,127
2640,note_off,66,0,0,,10,,,69,127
2640,note_off,0,0,0,,10,,,57,127
2641,note_on,1,0,0,,12,,,59,127
2641,note_on,0,0,0,,12,,,71,127
2707,note_off,66,0,0,,12,,,71,127
2708,note_on,1,0,0,,10,,,69,127
2774,note_off,66,0,0,,10,,,69,127
2774,note_off,0,0,0,,12,,,59,127
2775,note_on,1,0,0,,1,,,61,127
2775,note_on,0,0,0,,10,,,81,127
2908,note_off,133,0,0,,10,,,81,127
2908,note_off,0,0,0,,1,,,61,127
2909,note_on,1,0,0,,2,,,62,127
2909,note_on,0,0,0,,2,,,74,127
3042,note_off,133,0,0,,2,,,74,127
3043,note_on,1,0,0,,1,,,73,127
3176,note_off,133,0,0,,1,,,73,127
3176,note_off,0,0,0,,2,,,62,127
3177,note_on,1,0,0,,4,,,64,127
3177,note_on,0,0,0,,12,,,71,127
3310,note_off,133,0,0,,12,,,71,127
3310,note_off,0,0,0,,4,,,64,127
3311,note_on,1,0,0,,10,,,57,127
3311,note_on,0,0,0,,2,,,74,127
3377,note_off,66,0,0,,2,,,74,127
3378,note_on,1,0,0,,1,,,73,127
3444,note_off,66,0,0,,1,,,73,127
3444,note_off,0,0,0,,10,,,57,127
3445,note_on,1,0,0,,12,,,59,127
3445,note_on,0,0,0,,2,,,74,127
3511,note_off,66,0,0,,2,,,74,127
3512,note_on,1,0,0,,1,,,73,127
3578,note_off,66,0,0,,1,,,73,127
3578,note_off,0,0,0,,12,,,59,127
3579,note_on,1,0,0,,1,,,61,127
3579,note_on,0,0,0,,10,,,81,127
3712,note_off,133,0,0,,10,,,81,127
3712,note_off,0,0,0,,1,,,61,127
3713,note_on,1,0,0,,2,,,62,127
3713,note_on,0,0,0,,12,,,71,127
3846,note_off,133,0,0,,12,,,71,127
3847,note_on,1,0,0,,10,,,69,127
3980,note_off,133,0,0,,10,,,69,127
3980,note_off,0,0,0,,2,,,62,127
3981,note_on,1,0,0,,4,,,64,127
3981,note_on,0,0,0,,8,,,68,127
4114,note_off,133,0,0,,8,,,68,127
4114,note_off,0,0,0,,4,,,64,127
4115,note_on,1,0,0,,10,,,57,127
4115,note_on,0,0,0,,12,,,71,127
4165,note_on,50,0,0,,10,,,69,127
4181,note_off,16,0,0,,12,,,71,127
4215,note_on,34,0,0,,12,,,71,127
4231,note_off,16,0,0,,10,,,69,127
4265,note_on,34,0,0,,10,,,69,127
4281,note_off,16,0,0,,12,,,71,127
4505,note_off,224,0,0,,10,,,69,127
4513,note_off,8,0,0,,10,,,57,127
4532,note_on,19,0,0,,1,,,73,127
4532,note_on,0,0,0,,10,,,69,127
4532,note_on,0,0,0,,10,,,57,127
4666,note_on,134,0,0,,1,,,61,127
4676,note_off,10,0,0,,10,,,57,127
4799,note_on,123,0,0,,10,,,57,127
4830,note_off,31,0,0,,1,,,61,127
4931,note_off,101,0,0,,10,,,69,127
4931,note_off,0,0,0,,1,,,73,127
4932,note_on,1,0,0,,1,,,73,127
4932,note_on,0,0,0,,10,,,69,127
4932,note_on,0,0,0,,8,,,56,127
4942,note_off,10,0,0,,10,,,57,127
5065,note_on,123,0,0,,12,,,59,127
5075,note_off,10,0,0,,8,,,56,127
5198,note_on,123,0,0,,8,,,56,127
5208,note_off,10,0,0,,12,,,59,127
5330,note_off,122,0,0,,10,,,69,127
5330,note_off,0,0,0,,1,,,73,127
5331,note_on,1,0,0,,1,,,73,127
5331,note_on,0,0,0,,10,,,69,127
5331,note_on,0,0,0,,6,,,54,127
5341,note_off,10,0,0,,8,,,56,127
5464,note_on,123,0,0,,10,,,57,127
5474,note_off,10,0,0,,6,,,54,127
5597,note_on,123,0,0,,6,,,54,127
5607,note_off,10,0,0,,10,,,57,127
5729,note_off,122,0,0,,10,,,69,127
5729,note_off,0,0,0,,1,,,73,127
5730,note_on,1,0,0,,10,,,69,127
5730,note_on,0,0,0,,1,,,73,127
5730,note_on,0,0,0,,4,,,52,127
5740,note_off,10,0,0,,6,,,54,127
5863,note_on,123,0,0,,8,,,56,127
5873,note_off,10,0,0,,4,,,52,127
5996,note_on,123,0,0,,4,,,52,127
6006,note_off,10,0,0,,8,,,56,127
6128,note_off,122,0,0,,1,,,73,127
6128,note_off,0,0,0,,10,,,69,127
6129,note_on,1,0,0,,12,,,71,127
6129,note_on,0,0,0,,2,,,74,127
6129,note_on,0,0,0,,2,,,50,127
6139,note_off,10,0,0,,4,,,52,127
6262,note_on,123,0,0,,6,,,54,127
6272,note_off,10,0,0,,2,,,50,127
6395,note_on,123,0,0,,2,,,50,127
6405,note_off,10,0,0,,6,,,54,127
6527,note_off,122,0,0,,2,,,74,127
6527,note_off,0,0,0,,12,,,71,127
6528,note_off,1,0,0,,2,,,50,127
6528,note_on,0,0,0,,4,,,76,127
6528,note_on,0,0,0,,1,,,49,127
6662,note_on,134,0,0,,1,,,73,127
6795,note_off,133,0,0,,1,,,73,127
6796,note_on,1,0,0,,10,,,69,127
6925,note_off,129,0,0,,4,,,76,127
6927,note_off,2,0,0,,1,,,49,127
6928,note_off,1,0,0,,10,,,69,127
6929,note_on,1,0,0,,10,,,69,127
6929,note_on,0,0,0,,1,,,73,127
6929,note_on,0,0,0,,10,,,57,127
7063,note_on,134,0,0,,1,,,61,127
7073,note_off,10,0,0,,10,,,57,127
7196,note_on,123,0,0,,10,,,57,127
7227,note_off,31,0,0,,1,,,61,127
7328,note_off,101,0,0,,1,,,73,127
7328,note_off,0,0,0,,10,,,69,127
7329,note_on,1,0,0,,1,,,73,127
7329,note_on,0,0,0,,10,,,69,127
7329,note_on,0,0,0,,8,,,56,127
7339,note_off,10,0,0,,10,,,57,127
7462,note_on,123,0,0,,12,,,59,127
7472,note_off,10,0,0,,8,,,56,127
7595,note_on,123,0,0,,8,,,56,127
7605,note_off,10,0,0,,12,,,59,127
7727,note_off,122,0,0,,10,,,69,127
7727,note_off,0,0,0,,1,,,73,127
7728,note_on,1,0,0,,10,,,69,127
7728,note_on,0,0,0,,1,,,73,127
7728,note_on,0,0,0,,6,,,54,127
7738,note_off,10,0,0,,8,,,56,127
7861,note_on,123,0,0,,10,,,57,127
7871,note_off,10,0,0,,6,,,54,127
7994,note_on,123,0,0,,6,,,54,127
8004,note_off,10,0,0,,10,,,57,127
8126,note_off,122,0,0,,1,,,73,127
8126,note_off,0,0,0,,10,,,69,127
8127,note_on,1,0,0,,1,,,73,127
8127,note_on,0,0,0,,10,,,69,127
8127,note_on,0,0,0,,4,,,52,127
8137,note_off,10,0,0,,6,,,54,127
8260,note_on,123,0,0,,8,,,56,127
8270,note_off,10,0,0,,4,,,52,127
8393,note_on,123,0,0,,4,,,52,127
8403,note_off,10,0,0,,8,,,56,127
8525,note_off,122,0,0,,10,,,69,127
8525,note_off,0,0,0,,1,,,73,127
8526,note_on,1,0,0,,2,,,74,127
8526,note_on,0,0,0,,12,,,71,127
8526,note_on,0,0,0,,2,,,50,127
8536,note_off,10,0,0,,4,,,52,127
8659,note_on,123,0,0,,6,,,54,127
8669,note_off,10,0,0,,2,,,50,127
8792,note_on,123,0,0,,2,,,50,127
8802,note_off,10,0,0,,6,,,54,127
8924,note_off,122,0,0,,12,,,71,127
8924,note_off,0,0,0,,2,,,74,127
8925,note_off,1,0,0,,2,,,50,127
8925,note_on,0,0,0,,4,,,76,127
8925,note_on,0,0,0,,1,,,49,127
9059,note_on,134,0,0,,1,,,73,127
9091,note_off,32,0,0,,4,,,76,127
9192,note_on,101,0,0,,10,,,81,127
9224,note_off,32,0,0,,1,,,73,127
9323,note_off,99,0,0,,1,,,49,127
9325,note_on,2,0,0,,3,,,75,127
9325,note_on,0,0,0,,12,,,47,127
9357,note_off,32,0,0,,10,,,81,127
9458,note_on,101,0,0,,12,,,71,127
9490,note_off,32,0,0,,3,,,75,127
9591,note_on,101,0,0,,10,,,81,127
9623,note_off,32,0,0,,12,,,71,127
9716,note_off,93,0,0,,10,,,81,127
9722,note_off,6,0,0,,12,,,47,127
9724,note_on,2,0,0,,10,,,81,127
9724,note_on,0,0,0,,8,,,80,127
9724,note_on,0,0,0,,4,,,52,127
9857,note_off,133,0,0,,8,,,80,127
9857,note_off,0,0,0,,10,,,81,127
9858,note_on,1,0,0,,6,,,78,127
9991,note_off,133,0,0,,6,,,78,127
9992,note_on,1,0,0,,4,,,76,127
10123,note_off,131,0,0,,4,,,52,127
10124,note_off,1,0,0,,4,,,76,127
10142,note_on,18,0,0,,4,,,64,127
10142,note_on,0,0,0,,4,,,76,127
10142,note_on,0,0,0,,8,,,80,127
10276,note_on,134,0,0,,8,,,68,127
10307,note_off,31,0,0,,4,,,64,127
10409,note_on,102,0,0,,4,,,64,127
10440,note_off,31,0,0,,8,,,68,127
10541,note_off,101,0,0,,8,,,80,127
10541,note_off,0,0,0,,4,,,76,127
10542,note_on,1,0,0,,3,,,63,127
10542,note_on,0,0,0,,4,,,76,127
10542,note_on,0,0,0,,8,,,80,127
10573,note_off,31,0,0,,4,,,64,127
10675,note_on,102,0,0,,6,,,66,127
10706,note_off,31,0,0,,3,,,63,127
10808,note_on,102,0,0,,3,,,63,127
10839,note_off,31,0,0,,6,,,66,127
10940,note_off,101,0,0,,8,,,80,127
10940,note_off,0,0,0,,4,,,76,127
10941,note_on,1,0,0,,1,,,61,127
10941,note_on,0,0,0,,4,,,76,127
10941,note_on,0,0,0,,8,,,80,127
10972,note_off,31,0,0,,3,,,63,127
11074,note_on,102,0,0,,4,,,64,127
11105,note_off,31,0,0,,1,,,61,127
11207,note_on,102,0,0,,1,,,61,127
11238,note_off,31,0,0,,4,,,64,127
11339,note_off,101,0,0,,8,,,80,127
11339,note_off,0,0,0,,4,,,76,127
11340,note_on,1,0,0,,12,,,59,127
11340,note_on,0,0,0,,8,,,80,127
11340,note_on,0,0,0,,4,,,76,127
11371,note_off,31,0,0,,1,,,61,127
11473,note_on,102,0,0,,3,,,63,127
11483,note_off,10,0,0,,12,,,59,127
11606,note_on,123,0,0,,12,,,59,127
11637,note_off,31,0,0,,3,,,63,127
11738,note_off,101,0,0,,4,,,76,127
11738,note_off,0,0,0,,8,,,80,127
11739,note_on,1,0,0,,10,,,57,127
11739,note_on,0,0,0,,6,,,78,127
11739,note_on,0,0,0,,10,,,81,127
11749,note_off,10,0,0,,12,,,59,127
11872,note_on,123,0,0,,1,,,61,127
11882,note_off,10,0,0,,10,,,57,127
12005,note_on,123,0,0,,10,,,57,127
12036,note_off,31,0,0,,1,,,61,127
12137,note_off,101,0,0,,10,,,81,127
12137,note_off,0,0,0,,6,,,78,127
12138,note_off,1,0,0,,10,,,57,127
12138,note_on,0,0,0,,8,,,56,127
12138,note_on,0,0,0,,12,,,83,127
12272,note_on,134,0,0,,8,,,80,127
12405,note_off,133,0,0,,8,,,80,127
12406,note_on,1,0,0,,4,,,76,127
12535,note_off,129,0,0,,12,,,83,127
12537,note_off,2,0,0,,8,,,56,127
12538,note_off,1,0,0,,4,,,76,127
12539,note_on,1,0,0,,4,,,64,127
12539,note_on,0,0,0,,8,,,80,127
12539,note_on,0,0,0,,4,,,76,127
12673,note_on,134,0,0,,8,,,68,127
12704,note_off,31,0,0,,4,,,64,127
12806,note_on,102,0,0,,4,,,64,127
12837,note_off,31,0,0,,8,,,68,127
12938,note_off,101,0,0,,4,,,76,127
12938,note_off,0,0,0,,8,,,80,127
12939,note_on,1,0,0,,3,,,63,127
12939,note_on,0,0,0,,8,,,80,127
12939,note_on,0,0,0,,4,,,76,127
12970,note_off,31,0,0,,4,,,64,127
13072,note_on,102,0,0,,6,,,66,127
13103,note_off,31,0,0,,3,,,63,127
13205,note_on,102,0,0,,3,,,63,127
13236,note_off,31,0,0,,6,,,66,127
13337,note_off,101,0,0,,4,,,76,127
13337,note_off,0,0,0,,8,,,80,127
13338,note_on,1,0,0,,1,,,61,127
13338,note_on,0,0,0,,4,,,76,127
13338,note_on,0,0,0,,8,,,80,127
13369,note_off,31,0,0,,3,,,63,127
13471,note_on,102,0,0,,4,,,64,127
13502,note_off,31,0,0,,1,,,61,127
13604,note_on,102,0,0,,1,,,61,127
13635,note_off,31,0,0,,4,,,64,127
13736,note_off,101,0,0,,8,,,80,127
13736,note_off,0,0,0,,4,,,76,127
13737,note_on,1,0,0,,12,,,59,127
13737,note_on,0,0,0,,8,,,80,127
13737,note_on,0,0,0,,4,,,76,127
13768,note_off,31,0,0,,1,,,61,127
13870,note_on,102,0,0,,3,,,63,127
13880,note_off,10,0,0,,12,,,59,127
14003,note_on,123,0,0,,12,,,59,127
14034,note_off,31,0,0,,3,,,63,127
14135,note_off,101,0,0,,4,,,76,127
14135,note_off,0,0,0,,8,,,80,127
14136,note_on,1,0,0,,10,,,57,127
14136,note_on,0,0,0,,10,,,81,127
14136,note_on,0,0,0,,6,,,78,127
14146,note_off,10,0,0,,12,,,59,127
14269,note_on,123,0,0,,1,,,61,127
14279,note_off,10,0,0,,10,,,57,127
14402,note_on,123,0,0,,10,,,57,127
14433,note_off,31,0,0,,1,,,61,127
14534,note_off,101,0,0,,6,,,78,127
14534,note_off,0,0,0,,10,,,81,127
14535,note_off,1,0,0,,10,,,57,127
14535,note_on,0,0,0,,8,,,56,127
14535,note_on,0,0,0,,12,,,83,127
14669,note_on,134,0,0,,8,,,80,127
14802,note_off,133,0,0,,8,,,80,127
14803,note_on,1,0,0,,4,,,76,127
14932,note_off,129,0,0,,12,,,83,127
14934,note_off,2,0,0,,8,,,56,127
14935,note_off,1,0,0,,4,,,76,127
14936,note_on,1,0,0,,8,,,56,127
14936,note_on,0,0,0,,12,,,71,127
15070,note_on,134,0,0,,8,,,80,127
15203,note_off,133,0,0,,8,,,80,127
15204,note_off,1,0,0,,12,,,71,127
15204,note_on,0,0,0,,12,,,83,127
15335,note_off,131,0,0,,8,,,56,127
15337,note_on,2,0,0,,10,,,57,127
15470,note_off,133,0,0,,12,,,83,127
15471,note_on,1,0,0,,10,,,81,127
15604,note_off,133,0,0,,10,,,81,127
15605,note_on,1,0,0,,8,,,80,127
15736,note_off,131,0,0,,10,,,57,127
15737,note_off,1,0,0,,8,,,80,127
15738,note_on,1,0,0,,11,,,58,127
15738,note_on,0,0,0,,8,,,80,127
15738,note_on,0,0,0,,10,,,81,127
15871,note_off,133,0,0,,10,,,81,127
15871,note_off,0,0,0,,8,,,80,127
15872,note_on,1,0,0,,6,,,78,127
16005,note_off,133,0,0,,6,,,78,127
16006,note_on,1,0,0,,4,,,76,127
16137,note_off,131,0,0,,11,,,58,127
16138,note_off,1,0,0,,4,,,76,127
16139,note_on,1,0,0,,12,,,59,127
16139,note_on,0,0,0,,3,,,75,127
16272,note_off,133,0,0,,3,,,75,127
16273,note_on,1,0,0,,12,,,71,127
16406,note_off,133,0,0,,12,,,71,127
16407,note_on,1,0,0,,3,,,75,127
16538,note_off,131,0,0,,12,,,59,127
16539,note_off,1,0,0,,3,,,75,127
16540,note_on,1,0,0,,1,,,61,127
16540,note_on,0,0,0,,4,,,76,127
16673,note_off,133,0,0,,4,,,76,127
16674,note_on,1,0,0,,1,,,73,127
16807,note_off,133,0,0,,1,,,73,127
16808,note_on,1,0,0,,11,,,70,127
16939,note_off,131,0,0,,1,,,61,127
16941,note_on,2,0,0,,12,,,59,127
17053,note_off,112,0,0,,11,,,70,127
17075,note_on,22,0,0,,12,,,71,127
17208,note_off,133,0,0,,12,,,71,127
17209,note_on,1,0,0,,3,,,75,127
17340,note_off,131,0,0,,12,,,59,127
17341,note_off,1,0,0,,3,,,75,127
17342,note_on,1,0,0,,1,,,61,127
17342,note_on,0,0,0,,4,,,76,127
17475,note_off,133,0,0,,4,,,76,127
17476,note_on,1,0,0,,1,,,73,127
17609,note_off,133,0,0,,1,,,73,127
17610,note_on,1,0,0,,11,,,70,127
17741,note_off,131,0,0,,1,,,61,127
17743,note_on,2,0,0,,12,,,59,127
17855,note_off,112,0,0,,11,,,70,127
17877,note_on,22,0,0,,12,,,71,127
18010,note_off,133,0,0,,12,,,71,127
18011,note_on,1,0,0,,3,,,75,127
18142,note_off,131,0,0,,12,,,59,127
18143,note_off,1,0,0,,3,,,75,127
18144,note_on,1,0,0,,1,,,61,127
18144,note_on,0,0,0,,4,,,76,127
18277,note_off,133,0,0,,4,,,76,127
18278,note_on,1,0,0,,1,,,73,127
18411,note_off,133,0,0,,1,,,73,127
18412,note_on,1,0,0,,11,,,82,127
18543,note_off,131,0,0,,1,,,61,127
18544,note_off,1,0,0,,11,,,82,127
18545,note_on,1,0,0,,12,,,59,127
18545,note_on,0,0,0,,12,,,83,127
18679,note_on,134,0,0,,6,,,78,127
18812,note_off,133,0,0,,6,,,78,127
18813,note_off,1,0,0,,12,,,83,127
18813,note_on,0,0,0,,3,,,75,127
18944,note_off,131,0,0,,12,,,59,127
18945,note_off,1,0,0,,3,,,75,127
18946,note_on,1,0,0,,8,,,56,127
18946,note_on,0,0,0,,4,,,76,127
19079,note_off,133,0,0,,4,,,76,127
19080,note_on,1,0,0,,8,,,80,127
19214,note_on,134,0,0,,12,,,71,127
19345,note_off,131,0,0,,8,,,56,127
19346,note_off,1,0,0,,12,,,71,127
19347,note_on,1,0,0,,10,,,57,127
19347,note_on,0,0,0,,1,,,73,127
19476,note_off,129,0,0,,8,,,80,127
19479,note_off,3,0,0,,1,,,73,127
19480,note_on,1,0,0,,10,,,81,127
19613,note_off,133,0,0,,10,,,81,127
19614,note_on,1,0,0,,8,,,80,127
19745,note_off,131,0,0,,10,,,57,127
19746,note_off,1,0,0,,8,,,80,127
19747,note_on,1,0,0,,12,,,59,127
19747,note_on,0,0,0,,6,,,78,127
19747,note_on,0,0,0,,8,,,80,127
19880,note_off,133,0,0,,8,,,80,127
19880,note_off,0,0,0,,6,,,78,127
19881,note_on,1,0,0,,4,,,76,127
20014,note_off,133,0,0,,4,,,76,127
20015,note_on,1,0,0,,3,,,75,127
20146,note_off,131,0,0,,12,,,59,127
20147,note_off,1,0,0,,3,,,75,127
20148,note_on,1,0,0,,4,,,52,127
20148,note_on,0,0,0,,4,,,76,127
20298,note_on,150,0,0,,1,,,73,127
20314,note_off,16,0,0,,4,,,76,127
20431,note_off,117,0,0,,1,,,73,127
20432,note_on,1,0,0,,3,,,75,127
20547,note_off,115,0,0,,4,,,52,127
20565,note_off,18,0,0,,3,,,75,127
20566,note_on,1,0,0,,4,,,76,127
20566,note_on,0,0,0,,1,,,61,127
20699,note_off,133,0,0,,4,,,76,127
20700,note_on,1,0,0,,1,,,73,127
20833,note_off,133,0,0,,1,,,73,127
20834,note_on,1,0,0,,11,,,70,127
20965,note_off,131,0,0,,1,,,61,127
20967,note_on,2,0,0,,12,,,59,127
20990,note_off,23,0,0,,11,,,70,127
21101,note_on,111,0,0,,12,,,71,127
21234,note_off,133,0,0,,12,,,71,127
21235,note_on,1,0,0,,3,,,75,127
21366,note_off,131,0,0,,12,,,59,127
21367,note_off,1,0,0,,3,,,75,127
21368,note_on,1,0,0,,4,,,76,127
21368,note_on,0,0,0,,1,,,61,127
21501,note_off,133,0,0,,4,,,76,127
21502,note_on,1,0,0,,1,,,73,127
21635,note_off,133,0,0,,1,,,73,127
21636,note_on,1,0,0,,11,,,70,127
21767,note_off,131,0,0,,1,,,61,127
21769,note_on,2,0,0,,12,,,59,127
21792,note_off,23,0,0,,11,,,70,127
21903,note_on,111,0,0,,12,,,71,127
22036,note_off,133,0,0,,12,,,71,127
22037,note_on,1,0,0,,3,,,75,127
22168,note_off,131,0,0,,12,,,59,127
22169,note_off,1,0,0,,3,,,75,127
22170,note_on,1,0,0,,4,,,76,127
22170,note_on,0,0,0,,1,,,61,127
22303,note_off,133,0,0,,4,,,76,127
22304,note_on,1,0,0,,1,,,73,127
22437,note_off,133,0,0,,1,,,73,127
22438,note_on,1,0,0,,11,,,82,127
22569,note_off,131,0,0,,1,,,61,127
22570,note_off,1,0,0,,11,,,82,127
22571,note_on,1,0,0,,12,,,83,127
22571,note_on,0,0,0,,12,,,59,127
22705,note_on,134,0,0,,6,,,78,127
22838,note_off,133,0,0,,6,,,78,127
22839,note_off,1,0,0,,12,,,83,127
22839,note_on,0,0,0,,3,,,75,127
22970,note_off,131,0,0,,12,,,59,127
22971,note_off,1,0,0,,3,,,75,127
22972,note_on,1,0,0,,4,,,76,127
22972,note_on,0,0,0,,8,,,56,127
23105,note_off,133,0,0,,4,,,76,127
23106,note_on,1,0,0,,8,,,80,127
23240,note_on,134,0,0,,12,,,71,127
23371,note_off,131,0,0,,8,,,56,127
23372,note_off,1,0,0,,12,,,71,127
23373,note_on,1,0,0,,1,,,73,127
23373,note_on,0,0,0,,10,,,57,127
23502,note_off,129,0,0,,8,,,80,127
23505,note_off,3,0,0,,1,,,73,127
23506,note_on,1,0,0,,10,,,81,127
23639,note_off,133,0,0,,10,,,81,127
23640,note_on,1,0,0,,8,,,80,127
23771,note_off,131,0,0,,10,,,57,127
23772,note_off,1,0,0,,8,,,80,127
23773,note_on,1,0,0,,8,,,80,127
23773,note_on,0,0,0,,6,,,78,127
23773,note_on,0,0,0,,12,,,59,127
23906,note_off,133,0,0,,6,,,78,127
23906,note_off,0,0,0,,8,,,80,127
23907,note_on,1,0,0,,4,,,76,127
24040,note_off,133,0,0,,4,,,76,127
24041,note_on,1,0,0,,3,,,75,127
24172,note_off,131,0,0,,12,,,59,127
24173,note_off,1,0,0,,3,,,75,127
24174,note_on,1,0,0,,4,,,76,127
24174,note_on,0,0,0,,4,,,52,127
24308,note_on,134,0,0,,12,,,71,127
24441,note_off,133,0,0,,12,,,71,127
24442,note_on,1,0,0,,8,,,68,127
24571,note_off,129,0,0,,4,,,76,127
24573,note_off,2,0,0,,4,,,52,127
24574,note_off,1,0,0,,8,,,68,127
24575,note_on,1,0,0,,4,,,64,127
24575,note_on,0,0,0,,8,,,44,127
24709,note_on,134,0,0,,8,,,68,127
24842,note_off,133,0,0,,8,,,68,127
24843,note_on,1,0,0,,12,,,71,127
24972,note_off,129,0,0,,4,,,64,127
24974,note_off,2,0,0,,8,,,44,127
24975,note_off,1,0,0,,12,,,71,127
24976,note_on,1,0,0,,1,,,73,127
24976,note_on,0,0,0,,10,,,45,127
25110,note_on,134,0,0,,10,,,69,127
25243,note_off,133,0,0,,10,,,69,127
25244,note_off,1,0,0,,1,,,73,127
25244,note_on,0,0,0,,10,,,81,127
25375,note_off,131,0,0,,10,,,45,127
25376,note_off,1,0,0,,10,,,81,127
25377,note_on,1,0,0,,8,,,80,127
25377,note_on,0,0,0,,6,,,78,127
25377,note_on,0,0,0,,12,,,47,127
25510,note_off,133,0,0,,6,,,78,127
25510,note_off,0,0,0,,8,,,80,127
25511,note_on,1,0,0,,4,,,76,127
25644,note_off,133,0,0,,4,,,76,127
25645,note_on,1,0,0,,3,,,75,127
25776,note_off,131,0,0,,12,,,47,127
25777,note_off,1,0,0,,3,,,75,127
25780,note_on,3,0,0,,4,,,76,127
25780,note_on,0,0,0,,4,,,40,127
26197,note_off,417,0,0,,4,,,40,127
26197,note_off,0,0,0,,4,,,76,127
26212,note_on,15,0,0,,8,,,68,127
26212,note_on,0,0,0,,12,,,71,127
26212,note_on,0,0,0,,4,,,52,127
26346,note_on,134,0,0,,8,,,56,127
26356,note_off,10,0,0,,4,,,52,127
26479,note_on,123,0,0,,4,,,52,127
26489,note_off,10,0,0,,8,,,56,127
26611,note_off,122,0,0,,12,,,71,127
26611,note_off,0,0,0,,8,,,68,127
26612,note_on,1,0,0,,12,,,71,127
26612,note_on,0,0,0,,8,,,68,127
26612,note_on,0,0,0,,3,,,51,127
26622,note_off,10,0,0,,4,,,52,127
26745,note_on,123,0,0,,6,,,54,127
26755,note_off,10,0,0,,3,,,51,127
26878,note_on,123,0,0,,3,,,51,127
26888,note_off,10,0,0,,6,,,54,127
27010,note_off,122,0,0,,8,,,68,127
27010,note_off,0,0,0,,12,,,71,127
27011,note_on,1,0,0,,11,,,70,127
27011,note_on,0,0,0,,1,,,73,127
27011,note_on,0,0,0,,1,,,49,127
27021,note_off,10,0,0,,3,,,51,127
27144,note_on,123,0,0,,4,,,52,127
27154,note_off,10,0,0,,1,,,49,127
27277,note_on,123,0,0,,1,,,49,127
27287,note_off,10,0,0,,4,,,52,127
27409,note_off,122,0,0,,1,,,73,127
27409,note_off,0,0,0,,11,,,70,127
27410,note_off,1,0,0,,1,,,49,127
27410,note_on,0,0,0,,12,,,71,127
27410,note_on,0,0,0,,2,,,74,127
27410,note_on,0,0,0,,12,,,47,127
27809,note_off,399,0,0,,12,,,47,127
27810,note_off,1,0,0,,2,,,74,127
27810,note_off,0,0,0,,12,,,71,127
27828,note_on,18,0,0,,12,,,59,127
27828,note_on,0,0,0,,2,,,74,127
27828,note_on,0,0,0,,6,,,78,127
27962,note_on,134,0,0,,2,,,62,127
27972,note_off,10,0,0,,12,,,59,127
28095,note_on,123,0,0,,12,,,59,127
28126,note_off,31,0,0,,2,,,62,127
28227,note_off,101,0,0,,6,,,78,127
28227,note_off,0,0,0,,2,,,74,127
28228,note_on,1,0,0,,10,,,57,127
28228,note_on,0,0,0,,1,,,73,127
28228,note_on,0,0,0,,6,,,78,127
28238,note_off,10,0,0,,12,,,59,127
28361,note_on,123,0,0,,1,,,61,127
28371,note_off,10,0,0,,10,,,57,127
28494,note_on,123,0,0,,10,,,57,127
28525,note_off,31,0,0,,1,,,61,127
28626,note_off,101,0,0,,6,,,78,127
28626,note_off,0,0,0,,1,,,73,127
28627,note_on,1,0,0,,8,,,56,127
28627,note_on,0,0,0,,12,,,71,127
28627,note_on,0,0,0,,8,,,80,127
28637,note_off,10,0,0,,10,,,57,127
28760,note_on,123,0,0,,12,,,59,127
28770,note_off,10,0,0,,8,,,56,127
28893,note_on,123,0,0,,8,,,56,127
28903,note_off,10,0,0,,12,,,59,127
29025,note_off,122,0,0,,12,,,71,127
29034,note_off,9,0,0,,8,,,80,127
29042,note_on,8,0,0,,10,,,81,127
29042,note_on,0,0,0,,6,,,54,127
29043,note_off,1,0,0,,8,,,56,127
29176,note_on,133,0,0,,6,,,78,127
29229,note_off,53,0,0,,10,,,81,127
29309,note_on,80,0,0,,1,,,73,127
29362,note_off,53,0,0,,6,,,78,127
29440,note_off,78,0,0,,6,,,54,127
29442,note_on,2,0,0,,10,,,69,127
29442,note_on,0,0,0,,6,,,54,127
29495,note_off,53,0,0,,1,,,73,127
29575,note_on,80,0,0,,1,,,73,127
29628,note_off,53,0,0,,10,,,69,127
29708,note_on,80,0,0,,6,,,78,127
29761,note_off,53,0,0,,1,,,73,127
29839,note_off,78,0,0,,6,,,54,127
29841,note_on,2,0,0,,10,,,81,127
29841,note_on,0,0,0,,4,,,52,127
29894,note_off,53,0,0,,6,,,78,127
29974,note_on,80,0,0,,4,,,76,127
30027,note_off,53,0,0,,10,,,81,127
30107,note_on,80,0,0,,1,,,73,127
30160,note_off,53,0,0,,4,,,76,127
30238,note_off,78,0,0,,4,,,52,127
30240,note_on,2,0,0,,10,,,69,127
30240,note_on,0,0,0,,4,,,52,127
30293,note_off,53,0,0,,1,,,73,127
30373,note_on,80,0,0,,1,,,73,127
30426,note_off,53,0,0,,10,,,69,127
30506,note_on,80,0,0,,4,,,76,127
30559,note_off,53,0,0,,1,,,73,127
30637,note_off,78,0,0,,4,,,52,127
30639,note_on,2,0,0,,10,,,81,127
30639,note_on,0,0,0,,2,,,50,127
30692,note_off,53,0,0,,4,,,76,127
30772,note_on,80,0,0,,6,,,78,127
30825,note_off,53,0,0,,10,,,81,127
30905,note_on,80,0,0,,2,,,74,127
30958,note_off,53,0,0,,6,,,78,127
31036,note_off,78,0,0,,2,,,50,127
31038,note_on,2,0,0,,10,,,69,127
31038,note_on,0,0,0,,2,,,50,127
31091,note_off,53,0,0,,2,,,74,127
31171,note_on,80,0,0,,2,,,74,127
31224,note_off,53,0,0,,10,,,69,127
31304,note_on,80,0,0,,6,,,78,127
31357,note_off,53,0,0,,2,,,74,127
31435,note_off,78,0,0,,2,,,50,127
31437,note_on,2,0,0,,10,,,81,127
31437,note_on,0,0,0,,1,,,49,127
31490,note_off,53,0,0,,6,,,78,127
31570,note_on,80,0,0,,4,,,76,127
31623,note_off,53,0,0,,10,,,81,127
31703,note_on,80,0,0,,1,,,73,127
31756,note_off,53,0,0,,4,,,76,127
31834,note_off,78,0,0,,1,,,49,127
31836,note_on,2,0,0,,10,,,69,127
31836,note_on,0,0,0,,1,,,49,127
31889,note_off,53,0,0,,1,,,73,127
31969,note_on,80,0,0,,1,,,73,127
32022,note_off,53,0,0,,10,,,69,127
32102,note_on,80,0,0,,4,,,76,127
32155,note_off,53,0,0,,1,,,73,127
32233,note_off,78,0,0,,1,,,49,127
32235,note_on,2,0,0,,10,,,81,127
32235,note_on,0,0,0,,12,,,47,127
32288,note_off,53,0,0,,4,,,76,127
32368,note_on,80,0,0,,6,,,78,127
32421,note_off,53,0,0,,10,,,81,127
32501,note_on,80,0,0,,3,,,75,127
32554,note_off,53,0,0,,6,,,78,127
32632,note_off,78,0,0,,12,,,47,127
32634,note_on,2,0,0,,12,,,71,127
32634,note_on,0,0,0,,12,,,59,127
32687,note_off,53,0,0,,3,,,75,127
32767,note_on,80,0,0,,3,,,75,127
32820,note_off,53,0,0,,12,,,71,127
32900,note_on,80,0,0,,6,,,78,127
32953,note_off,53,0,0,,3,,,75,127
33031,note_off,78,0,0,,12,,,59,127
33033,note_on,2,0,0,,10,,,81,127
33033,note_on,0,0,0,,10,,,57,127
33086,note_off,53,0,0,,6,,,78,127
33165,note_off,79,0,0,,10,,,81,127
33166,note_on,1,0,0,,8,,,80,127
33299,note_off,133,0,0,,8,,,80,127
33300,note_on,1,0,0,,6,,,78,127
33431,note_off,131,0,0,,10,,,57,127
33432,note_off,1,0,0,,6,,,78,127
33433,note_on,1,0,0,,6,,,78,127
33433,note_on,0,0,0,,10,,,57,127
33566,note_off,133,0,0,,6,,,78,127
33567,note_on,1,0,0,,4,,,76,127
33700,note_off,133,0,0,,4,,,76,127
33701,note_on,1,0,0,,3,,,75,127
33816,note_off,115,0,0,,3,,,75,127
33833,note_off,17,0,0,,10,,,57,127
33835,note_on,2,0,0,,4,,,76,127
33835,note_on,0,0,0,,8,,,56,127
33969,note_on,134,0,0,,12,,,59,127
33979,note_off,10,0,0,,8,,,56,127
34102,note_on,123,0,0,,8,,,56,127
34112,note_off,10,0,0,,12,,,59,127
34234,note_off,122,0,0,,4,,,76,127
34235,note_on,1,0,0,,2,,,74,127
34235,note_on,0,0,0,,6,,,54,127
34245,note_off,10,0,0,,8,,,56,127
34368,note_on,123,0,0,,10,,,57,127
34378,note_off,10,0,0,,6,,,54,127
34501,note_on,123,0,0,,6,,,54,127
34511,note_off,10,0,0,,10,,,57,127
34633,note_off,122,0,0,,2,,,74,127
34634,note_on,1,0,0,,1,,,73,127
34634,note_on,0,0,0,,4,,,52,127
34644,note_off,10,0,0,,6,,,54,127
34767,note_on,123,0,0,,8,,,56,127
34777,note_off,10,0,0,,4,,,52,127
34900,note_on,123,0,0,,4,,,52,127
34910,note_off,10,0,0,,8,,,56,127
35032,note_off,122,0,0,,1,,,73,127
35033,note_on,1,0,0,,12,,,71,127
35033,note_on,0,0,0,,2,,,50,127
35043,note_off,10,0,0,,4,,,52,127
35166,note_on,123,0,0,,6,,,54,127
35176,note_off,10,0,0,,2,,,50,127
35299,note_on,123,0,0,,2,,,50,127
35309,note_off,10,0,0,,6,,,54,127
35431,note_off,122,0,0,,12,,,71,127
35439,note_off,8,0,0,,2,,,50,127
35448,note_on,9,0,0,,1,,,49,127
35448,note_on,0,0,0,,4,,,76,127
35582,note_on,134,0,0,,1,,,73,127
35715,note_off,133,0,0,,1,,,73,127
35716,note_off,1,0,0,,4,,,76,127
35716,note_on,0,0,0,,10,,,69,127
35847,note_off,131,0,0,,1,,,49,127
35848,note_off,1,0,0,,10,,,69,127
35849,note_on,1,0,0,,6,,,54,127
35849,note_on,0,0,0,,10,,,81,127
35982,note_off,133,0,0,,10,,,81,127
35983,note_on,1,0,0,,6,,,78,127
36116,note_off,133,0,0,,6,,,78,127
36117,note_on,1,0,0,,3,,,75,127
36248,note_off,131,0,0,,6,,,54,127
36250,note_on,2,0,0,,4,,,52,127
36362,note_off,112,0,0,,3,,,75,127
36384,note_on,22,0,0,,4,,,76,127
36517,note_off,133,0,0,,4,,,76,127
36518,note_on,1,0,0,,8,,,80,127
36649,note_off,131,0,0,,4,,,52,127
36650,note_off,1,0,0,,8,,,80,127
36651,note_on,1,0,0,,6,,,54,127
36651,note_on,0,0,0,,10,,,81,127
36784,note_off,133,0,0,,10,,,81,127
36785,note_on,1,0,0,,6,,,78,127
36918,note_off,133,0,0,,6,,,78,127
36919,note_on,1,0,0,,3,,,75,127
37050,note_off,131,0,0,,6,,,54,127
37052,note_on,2,0,0,,4,,,52,127
37164,note_off,112,0,0,,3,,,75,127
37186,note_on,22,0,0,,4,,,76,127
37319,note_off,133,0,0,,4,,,76,127
37320,note_on,1,0,0,,8,,,80,127
37451,note_off,131,0,0,,4,,,52,127
37452,note_off,1,0,0,,8,,,80,127
37453,note_on,1,0,0,,6,,,54,127
37453,note_on,0,0,0,,10,,,81,127
37586,note_off,133,0,0,,10,,,81,127
37587,note_on,1,0,0,,6,,,78,127
37720,note_off,133,0,0,,6,,,78,127
37721,note_on,1,0,0,,3,,,75,127
37852,note_off,131,0,0,,6,,,54,127
37853,note_off,1,0,0,,3,,,75,127
37854,note_on,1,0,0,,4,,,52,127
37854,note_on,0,0,0,,4,,,76,127
37988,note_on,134,0,0,,12,,,83,127
38121,note_off,133,0,0,,12,,,83,127
38122,note_off,1,0,0,,4,,,76,127
38122,note_on,0,0,0,,8,,,80,127
38253,note_off,131,0,0,,4,,,52,127
38254,note_off,1,0,0,,8,,,80,127
38255,note_on,1,0,0,,1,,,49,127
38255,note_on,0,0,0,,10,,,81,127
38388,note_off,133,0,0,,10,,,81,127
38389,note_on,1,0,0,,4,,,76,127
38522,note_off,133,0,0,,4,,,76,127
38523,note_on,1,0,0,,1,,,73,127
38654,note_off,131,0,0,,1,,,49,127
38655,note_off,1,0,0,,1,,,73,127
38656,note_on,1,0,0,,2,,,50,127
38656,note_on,0,0,0,,2,,,74,127
38789,note_off,133,0,0,,2,,,74,127
38790,note_on,1,0,0,,6,,,78,127
38923,note_off,133,0,0,,6,,,78,127
38924,note_on,1,0,0,,2,,,74,127
39055,note_off,131,0,0,,2,,,50,127
39056,note_off,1,0,0,,2,,,74,127
39057,note_on,1,0,0,,4,,,52,127
39057,note_on,0,0,0,,2,,,74,127
39057,note_on,0,0,0,,4,,,76,127
39190,note_off,133,0,0,,4,,,76,127
39190,note_off,0,0,0,,2,,,74,127
39191,note_on,1,0,0,,1,,,73,127
39324,note_off,133,0,0,,1,,,73,127
39325,note_on,1,0,0,,12,,,71,127
39456,note_off,131,0,0,,4,,,52,127
39457,note_off,1,0,0,,12,,,71,127
39458,note_on,1,0,0,,10,,,45,127
39458,note_on,0,0,0,,10,,,69,127
39604,note_on,146,0,0,,1,,,73,127
39611,note_off,7,0,0,,10,,,69,127
39736,note_off,125,0,0,,1,,,73,127
39741,note_on,5,0,0,,4,,,76,127
39856,note_off,115,0,0,,10,,,45,127
39874,note_off,18,0,0,,4,,,76,127
39875,note_on,1,0,0,,10,,,81,127
39875,note_on,0,0,0,,6,,,54,127
40008,note_off,133,0,0,,10,,,81,127
40009,note_on,1,0,0,,6,,,78,127
40142,note_off,133,0,0,,6,,,78,127
40143,note_on,1,0,0,,3,,,75,127
40274,note_off,131,0,0,,6,,,54,127
40276,note_on,2,0,0,,4,,,52,127
40388,note_off,112,0,0,,3,,,75,127
40410,note_on,22,0,0,,4,,,76,127
40543,note_off,133,0,0,,4,,,76,127
40544,note_on,1,0,0,,8,,,80,127
40675,note_off,131,0,0,,4,,,52,127
40676,note_off,1,0,0,,8,,,80,127
40677,note_on,1,0,0,,10,,,81,127
40677,note_on,0,0,0,,6,,,54,127
40810,note_off,133,0,0,,10,,,81,127
40811,note_on,1,0,0,,6,,,78,127
40944,note_off,133,0,0,,6,,,78,127
40945,note_on,1,0,0,,3,,,75,127
41076,note_off,131,0,0,,6,,,54,127
41078,note_on,2,0,0,,4,,,52,127
41190,note_off,112,0,0,,3,,,75,127
41212,note_on,22,0,0,,4,,,76,127
41345,note_off,133,0,0,,4,,,76,127
41346,note_on,1,0,0,,8,,,80,127
41477,note_off,131,0,0,,4,,,52,127
41478,note_off,1,0,0,,8,,,80,127
41479,note_on,1,0,0,,10,,,81,127
41479,note_on,0,0,0,,6,,,54,127
41612,note_off,133,0,0,,10,,,81,127
41613,note_on,1,0,0,,6,,,78,127
41746,note_off,133,0,0,,6,,,78,127
41747,note_on,1,0,0,,3,,,75,127
41878,note_off,131,0,0,,6,,,54,127
41879,note_off,1,0,0,,3,,,75,127
41880,note_on,1,0,0,,4,,,76,127
41880,note_on,0,0,0,,4,,,52,127
42014,note_on,134,0,0,,12,,,83,127
42147,note_off,133,0,0,,12,,,83,127
42148,note_off,1,0,0,,4,,,76,127
42148,note_on,0,0,0,,8,,,80,127
42279,note_off,131,0,0,,4,,,52,127
42280,note_off,1,0,0,,8,,,80,127
42281,note_on,1,0,0,,10,,,81,127
42281,note_on,0,0,0,,1,,,49,127
42414,note_off,133,0,0,,10,,,81,127
42415,note_on,1,0,0,,4,,,76,127
42548,note_off,133,0,0,,4,,,76,127
42549,note_on,1,0,0,,1,,,73,127
42680,note_off,131,0,0,,1,,,49,127
42681,note_off,1,0,0,,1,,,73,127
42682,note_on,1,0,0,,2,,,74,127
42682,note_on,0,0,0,,2,,,50,127
42815,note_off,133,0,0,,2,,,74,127
42816,note_on,1,0,0,,6,,,78,127
42949,note_off,133,0,0,,6,,,78,127
42950,note_on,1,0,0,,2,,,74,127
43081,note_off,131,0,0,,2,,,50,127
43082,note_off,1,0,0,,2,,,74,127
43083,note_on,1,0,0,,4,,,76,127
43083,note_on,0,0,0,,2,,,74,127
43083,note_on,0,0,0,,4,,,52,127
43216,note_off,133,0,0,,2,,,74,127
43216,note_off,0,0,0,,4,,,76,127
43217,note_on,1,0,0,,1,,,73,127
43350,note_off,133,0,0,,1,,,73,127
43351,note_on,1,0,0,,12,,,71,127
43482,note_off,131,0,0,,4,,,52,127
43483,note_off,1,0,0,,12,,,71,127
43484,note_on,1,0,0,,10,,,69,127
43484,note_on,0,0,0,,10,,,45,127
43634,note_on,150,0,0,,4,,,76,127
43643,note_off,9,0,0,,10,,,69,127
43766,note_off,123,0,0,,4,,,76,127
43767,note_on,1,0,0,,2,,,74,127
43882,note_off,115,0,0,,10,,,45,127
43901,note_on,19,0,0,,4,,,52,127
44013,note_off,112,0,0,,2,,,74,127
44035,note_on,22,0,0,,1,,,73,127
44168,note_off,133,0,0,,1,,,73,127
44169,note_on,1,0,0,,12,,,71,127
44300,note_off,131,0,0,,4,,,52,127
44301,note_off,1,0,0,,12,,,71,127
44302,note_on,1,0,0,,10,,,57,127
44302,note_on,0,0,0,,1,,,73,127
44435,note_off,133,0,0,,1,,,73,127
44436,note_on,1,0,0,,4,,,76,127
44569,note_off,133,0,0,,4,,,76,127
44570,note_on,1,0,0,,2,,,74,127
44701,note_off,131,0,0,,10,,,57,127
44703,note_on,2,0,0,,4,,,52,127
44815,note_off,112,0,0,,2,,,74,127
44837,note_on,22,0,0,,1,,,73,127
44970,note_off,133,0,0,,1,,,73,127
44971,note_on,1,0,0,,12,,,71,127
45102,note_off,131,0,0,,4,,,52,127
45103,note_off,1,0,0,,12,,,71,127
45104,note_on,1,0,0,,10,,,45,127
45104,note_on,0,0,0,,10,,,81,127
45238,note_on,134,0,0,,4,,,76,127
45371,note_off,133,0,0,,4,,,76,127
45372,note_on,1,0,0,,1,,,73,127
45501,note_off,129,0,0,,10,,,81,127
45503,note_off,2,0,0,,10,,,45,127
45504,note_off,1,0,0,,1,,,73,127
45505,note_on,1,0,0,,1,,,49,127
45505,note_on,0,0,0,,10,,,69,127
45639,note_on,134,0,0,,1,,,73,127
45772,note_off,133,0,0,,1,,,73,127
45773,note_off,1,0,0,,10,,,69,127
45773,note_on,0,0,0,,4,,,76,127
45904,note_off,131,0,0,,1,,,49,127
45905,note_off,1,0,0,,4,,,76,127
45906,note_on,1,0,0,,2,,,50,127
45906,note_on,0,0,0,,6,,,78,127
46039,note_off,133,0,0,,6,,,78,127
46040,note_on,1,0,0,,2,,,74,127
46173,note_off,133,0,0,,2,,,74,127
46174,note_on,1,0,0,,12,,,71,127
46305,note_off,131,0,0,,2,,,50,127
46306,note_off,1,0,0,,12,,,71,127
46307,note_on,1,0,0,,4,,,52,127
46307,note_on,0,0,0,,12,,,71,127
46307,note_on,0,0,0,,1,,,73,127
46440,note_off,133,0,0,,1,,,73,127
46440,note_off,0,0,0,,12,,,71,127
46441,note_on,1,0,0,,10,,,69,127
46574,note_off,133,0,0,,10,,,69,127
46575,note_on,1,0,0,,8,,,68,127
46706,note_off,131,0,0,,4,,,52,127
46707,note_off,1,0,0,,8,,,68,127
46725,note_on,18,0,0,,10,,,69,127
46725,note_on,0,0,0,,10,,,45,127
46858,note_off,133,0,0,,10,,,69,127
46859,note_on,1,0,0,,4,,,76,127
46992,note_off,133,0,0,,4,,,76,127
46993,note_on,1,0,0,,2,,,74,127
47124,note_off,131,0,0,,10,,,45,127
47126,note_on,2,0,0,,4,,,52,127
47238,note_off,112,0,0,,2,,,74,127
47260,note_on,22,0,0,,1,,,73,127
47393,note_off,133,0,0,,1,,,73,127
47394,note_on,1,0,0,,12,,,71,127
47525,note_off,131,0,0,,4,,,52,127
47526,note_off,1,0,0,,12,,,71,127
47527,note_on,1,0,0,,1,,,73,127
47527,note_on,0,0,0,,10,,,57,127
47660,note_off,133,0,0,,1,,,73,127
47661,note_on,1,0,0,,4,,,76,127
47794,note_off,133,0,0,,4,,,76,127
47795,note_on,1,0,0,,2,,,74,127
47926,note_off,131,0,0,,10,,,57,127
47928,note_on,2,0,0,,4,,,52,127
48040,note_off,112,0,0,,2,,,74,127
48062,note_on,22,0,0,,1,,,73,127
48195,note_off,133,0,0,,1,,,73,127
48196,note_on,1,0,0,,12,,,71,127
48327,note_off,131,0,0,,4,,,52,127
48328,note_off,1,0,0,,12,,,71,127
48346,note_on,18,0,0,,1,,,49,127
48346,note_on,0,0,0,,1,,,85,127
48480,note_on,134,0,0,,10,,,81,127
48614,note_off,134,0,0,,10,,,81,127
48617,note_on,3,0,0,,4,,,76,127
48745,note_off,128,0,0,,1,,,49,127
48750,note_off,5,0,0,,4,,,76,127
48752,note_on,2,0,0,,1,,,73,127
48752,note_on,0,0,0,,1,,,49,127
48880,note_off,128,0,0,,1,,,85,127
48885,note_off,5,0,0,,1,,,73,127
48888,note_on,3,0,0,,10,,,69,127
49024,note_on,136,0,0,,4,,,76,127
49153,note_off,129,0,0,,1,,,49,127
49157,note_off,4,0,0,,4,,,76,127
49157,note_off,0,0,0,,10,,,69,127
49160,note_on,3,0,0,,6,,,78,127
49160,note_on,0,0,0,,2,,,50,127
49294,note_off,134,0,0,,6,,,78,127
49296,note_on,2,0,0,,2,,,74,127
49430,note_off,134,0,0,,2,,,74,127
49433,note_on,3,0,0,,12,,,71,127
49562,note_off,129,0,0,,2,,,50,127
49569,note_on,7,0,0,,4,,,52,127
49700,note_off,131,0,0,,12,,,71,127
49704,note_on,4,0,0,,10,,,69,127
49838,note_off,134,0,0,,10,,,69,127
49845,note_on,7,0,0,,8,,,68,127
49970,note_off,125,0,0,,4,,,52,127
49978,note_off,8,0,0,,8,,,68,127
49988,note_on,10,0,0,,10,,,45,127
49988,note_on,0,0,0,,10,,,69,127
52050,note_off,2062,0,0,,10,,,69,127
52050,note_off,0,0,0,,10,,,45,127
58368,end_of_track,6318,1,0,,,,,,
