tick,type,time,meta,track,program,channel,pitch,tempo,note,velocity
0,copyright,0,1,0,,,,,,
0,program_change,0,0,0,6,0,,,,
0,pitchwheel,0,0,0,,0,0,,,
0,program_change,0,0,0,6,1,,,,
0,pitchwheel,0,0,0,,1,-590,,,
0,program_change,0,0,0,6,2,,,,
0,pitchwheel,0,0,0,,2,-272,,,
0,program_change,0,0,0,6,3,,,,
0,pitchwheel,0,0,0,,3,-353,,,
0,program_change,0,0,0,6,4,,,,
0,pitchwheel,0,0,0,,4,-560,,,
0,program_change,0,0,0,6,5,,,,
0,pitchwheel,0,0,0,,5,-80,,,
0,program_change,0,0,0,6,6,,,,
0,pitchwheel,0,0,0,,6,-625,,,
0,program_change,0,0,0,6,7,,,,
0,pitchwheel,0,0,0,,7,-130,,,
0,program_change,0,0,0,6,8,,,,
0,pitchwheel,0,0,0,,8,-512,,,
0,program_change,0,0,0,6,10,,,,
0,pitchwheel,0,0,0,,10,-464,,,
0,program_change,0,0,0,6,11,,,,
0,pitchwheel,0,0,0,,11,-208,,,
0,program_change,0,0,0,6,12,,,,
0,pitchwheel,0,0,0,,12,-553,,,
0,set_tempo,0,1,0,,,,500000,,
118,note_on,118,0,0,,10,,,69,127
182,note_off,64,0,0,,10,,,69,127
184,note_on,2,0,0,,7,,,67,127
251,note_on,67,0,0,,10,,,69,127
252,note_off,1,0,0,,7,,,67,127
314,note_off,62,0,0,,10,,,69,127
316,note_on,2,0,0,,7,,,67,127
376,note_off,60,0,0,,7,,,67,127
378,note_on,2,0,0,,6,,,66,127
445,note_on,67,0,0,,7,,,67,127
446,note_off,1,0,0,,6,,,66,127
508,note_off,62,0,0,,7,,,67,127
510,note_on,2,0,0,,10,,,69,127
582,note_off,72,0,0,,10,,,69,127
584,note_on,2,0,0,,0,,,72,127
648,note_off,64,0,0,,0,,,72,127
650,note_on,2,0,0,,12,,,71,127
717,note_on,67,0,0,,0,,,72,127
718,note_off,1,0,0,,12,,,71,127
780,note_off,62,0,0,,0,,,72,127
782,note_on,2,0,0,,12,,,71,127
842,note_off,60,0,0,,12,,,71,127
844,note_on,2,0,0,,10,,,69,127
911,note_on,67,0,0,,12,,,71,127
912,note_off,1,0,0,,10,,,69,127
974,note_off,62,0,0,,12,,,71,127
976,note_on,2,0,0,,0,,,72,127
1048,note_off,72,0,0,,0,,,72,127
1050,note_on,2,0,0,,10,,,57,127
1050,note_on,0,0,0,,2,,,74,127
1114,note_off,64,0,0,,10,,,57,127
1116,note_on,2,0,0,,7,,,55,127
1183,note_on,67,0,0,,10,,,57,127
1184,note_off,1,0,0,,7,,,55,127
1246,note_off,62,0,0,,10,,,57,127
1248,note_on,2,0,0,,7,,,55,127
1308,note_off,60,0,0,,7,,,55,127
1310,note_on,2,0,0,,6,,,54,127
1377,note_on,67,0,0,,7,,,55,127
1378,note_off,1,0,0,,6,,,54,127
1440,note_off,62,0,0,,7,,,55,127
1442,note_on,2,0,0,,10,,,57,127
1514,note_off,72,0,0,,10,,,57,127
1516,note_on,2,0,0,,0,,,60,127
1580,note_off,64,0,0,,0,,,60,127
1582,note_on,2,0,0,,12,,,59,127
1649,note_on,67,0,0,,0,,,60,127
1650,note_off,1,0,0,,12,,,59,127
1712,note_off,62,0,0,,0,,,60,127
1714,note_on,2,0,0,,12,,,59,127
1774,note_off,60,0,0,,12,,,59,127
1776,note_on,2,0,0,,10,,,57,127
1843,note_on,67,0,0,,12,,,59,127
1844,note_off,1,0,0,,10,,,57,127
1906,note_off,62,0,0,,12,,,59,127
1908,note_on,2,0,0,,0,,,60,127
1980,note_off,72,0,0,,0,,,60,127
1982,note_on,2,0,0,,2,,,62,127
2215,note_off,233,0,0,,2,,,74,127
2217,note_on,2,0,0,,2,,,74,127
2447,note_off,230,0,0,,2,,,62,127
2449,note_off,2,0,0,,2,,,74,127
2451,note_on,2,0,0,,4,,,64,127
2451,note_on,0,0,0,,0,,,72,127
2684,note_off,233,0,0,,0,,,72,127
2684,note_off,0,0,0,,4,,,64,127
2686,note_on,2,0,0,,6,,,66,127
2686,note_on,0,0,0,,12,,,71,127
2801,note_off,115,0,0,,12,,,71,127
2803,note_on,2,0,0,,10,,,69,127
2918,note_off,115,0,0,,10,,,69,127
2918,note_off,0,0,0,,6,,,66,127
2920,note_on,2,0,0,,7,,,67,127
2920,note_on,0,0,0,,12,,,71,127
3153,note_off,233,0,0,,12,,,71,127
3153,note_off,0,0,0,,7,,,67,127
3155,note_on,2,0,0,,12,,,59,127
3155,note_on,0,0,0,,10,,,69,127
3270,note_off,115,0,0,,10,,,69,127
3272,note_on,2,0,0,,7,,,67,127
3387,note_off,115,0,0,,7,,,67,127
3387,note_off,0,0,0,,12,,,59,127
3389,note_on,2,0,0,,0,,,60,127
3389,note_on,0,0,0,,12,,,71,127
3505,note_off,116,0,0,,12,,,71,127
3506,note_on,1,0,0,,10,,,69,127
3621,note_off,115,0,0,,0,,,60,127
3622,note_off,1,0,0,,10,,,69,127
3623,note_on,1,0,0,,2,,,62,127
3623,note_on,0,0,0,,7,,,67,127
3738,note_off,115,0,0,,7,,,67,127
3740,note_on,2,0,0,,6,,,66,127
3855,note_off,115,0,0,,6,,,66,127
3855,note_off,0,0,0,,2,,,62,127
3857,note_on,2,0,0,,7,,,55,127
3857,note_on,0,0,0,,7,,,67,127
4092,note_on,235,0,0,,7,,,79,127
4322,note_off,230,0,0,,7,,,67,127
4324,note_off,2,0,0,,7,,,55,127
4326,note_on,2,0,0,,4,,,64,127
4326,note_on,0,0,0,,0,,,60,127
4441,note_off,115,0,0,,7,,,79,127
4443,note_on,2,0,0,,6,,,78,127
4558,note_off,115,0,0,,6,,,78,127
4560,note_on,2,0,0,,6,,,78,127
4675,note_off,115,0,0,,6,,,78,127
4677,note_on,2,0,0,,4,,,76,127
4792,note_off,115,0,0,,4,,,76,127
4792,note_off,0,0,0,,0,,,60,127
4792,note_off,0,0,0,,4,,,64,127
4794,note_on,2,0,0,,2,,,62,127
4794,note_on,0,0,0,,12,,,59,127
4794,note_on,0,0,0,,2,,,74,127
5027,note_off,233,0,0,,2,,,74,127
5029,note_on,2,0,0,,7,,,79,127
5262,note_off,233,0,0,,12,,,59,127
5262,note_off,0,0,0,,2,,,62,127
5264,note_on,2,0,0,,4,,,64,127
5264,note_on,0,0,0,,0,,,60,127
5379,note_off,115,0,0,,7,,,79,127
5381,note_on,2,0,0,,6,,,78,127
5496,note_off,115,0,0,,6,,,78,127
5498,note_on,2,0,0,,6,,,78,127
5613,note_off,115,0,0,,6,,,78,127
5615,note_on,2,0,0,,4,,,76,127
5730,note_off,115,0,0,,4,,,76,127
5730,note_off,0,0,0,,0,,,60,127
5730,note_off,0,0,0,,4,,,64,127
5732,note_on,2,0,0,,2,,,62,127
5732,note_on,0,0,0,,12,,,59,127
5732,note_on,0,0,0,,2,,,74,127
5965,note_off,233,0,0,,2,,,74,127
5965,note_off,0,0,0,,2,,,62,127
5967,note_on,2,0,0,,7,,,67,127
5967,note_on,0,0,0,,0,,,72,127
6082,note_off,115,0,0,,0,,,72,127
6084,note_on,2,0,0,,12,,,71,127
6197,note_off,113,0,0,,12,,,59,127
6199,note_off,2,0,0,,12,,,71,127
6201,note_on,2,0,0,,0,,,60,127
6201,note_on,0,0,0,,2,,,74,127
6317,note_off,116,0,0,,2,,,74,127
6318,note_on,1,0,0,,0,,,72,127
6431,note_off,113,0,0,,7,,,67,127
6433,note_off,2,0,0,,0,,,60,127
6434,note_off,1,0,0,,0,,,72,127
6435,note_on,1,0,0,,6,,,66,127
6435,note_on,0,0,0,,2,,,62,127
6435,note_on,0,0,0,,12,,,71,127
6550,note_off,115,0,0,,12,,,71,127
6552,note_on,2,0,0,,10,,,69,127
6667,note_off,115,0,0,,10,,,69,127
6667,note_off,0,0,0,,2,,,62,127
6667,note_off,0,0,0,,6,,,66,127
6669,note_on,2,0,0,,7,,,55,127
6669,note_on,0,0,0,,12,,,71,127
6902,note_off,233,0,0,,12,,,71,127
6902,note_off,0,0,0,,7,,,55,127
6904,note_on,2,0,0,,7,,,67,127
6904,note_on,0,0,0,,2,,,74,127
7137,note_off,233,0,0,,2,,,74,127
7139,note_on,2,0,0,,12,,,71,127
7254,note_off,115,0,0,,7,,,67,127
7256,note_on,2,0,0,,6,,,66,127
7371,note_off,115,0,0,,6,,,66,127
7371,note_off,0,0,0,,12,,,71,127
7373,note_on,2,0,0,,6,,,66,127
7373,note_on,0,0,0,,10,,,69,127
7488,note_off,115,0,0,,10,,,69,127
7488,note_off,0,0,0,,6,,,66,127
7490,note_on,2,0,0,,4,,,64,127
7490,note_on,0,0,0,,7,,,67,127
7605,note_off,115,0,0,,7,,,67,127
7605,note_off,0,0,0,,4,,,64,127
7607,note_on,2,0,0,,2,,,62,127
7607,note_on,0,0,0,,10,,,69,127
7840,note_off,233,0,0,,10,,,69,127
7840,note_off,0,0,0,,2,,,62,127
7842,note_on,2,0,0,,7,,,67,127
7842,note_on,0,0,0,,12,,,71,127
7957,note_off,115,0,0,,12,,,71,127
7959,note_on,2,0,0,,0,,,72,127
8074,note_off,115,0,0,,0,,,72,127
8076,note_on,2,0,0,,12,,,71,127
8191,note_off,115,0,0,,7,,,67,127
8193,note_on,2,0,0,,6,,,66,127
8308,note_off,115,0,0,,6,,,66,127
8308,note_off,0,0,0,,12,,,71,127
8310,note_on,2,0,0,,6,,,66,127
8310,note_on,0,0,0,,10,,,69,127
8425,note_off,115,0,0,,10,,,69,127
8425,note_off,0,0,0,,6,,,66,127
8427,note_on,2,0,0,,4,,,64,127
8427,note_on,0,0,0,,7,,,67,127
8542,note_off,115,0,0,,7,,,67,127
8542,note_off,0,0,0,,4,,,64,127
8544,note_on,2,0,0,,2,,,62,127
8544,note_on,0,0,0,,6,,,66,127
8544,note_on,0,0,0,,10,,,69,127
8777,note_off,233,0,0,,10,,,69,127
8777,note_off,0,0,0,,6,,,66,127
8777,note_off,0,0,0,,2,,,62,127
8779,note_on,2,0,0,,0,,,60,127
8779,note_on,0,0,0,,7,,,67,127
8779,note_on,0,0,0,,12,,,71,127
8894,note_off,115,0,0,,0,,,60,127
8896,note_on,2,0,0,,12,,,59,127
9011,note_off,115,0,0,,12,,,59,127
9011,note_off,0,0,0,,12,,,71,127
9013,note_on,2,0,0,,10,,,57,127
9013,note_on,0,0,0,,0,,,72,127
9243,note_off,230,0,0,,7,,,67,127
9245,note_off,2,0,0,,0,,,72,127
9245,note_off,0,0,0,,10,,,57,127
9247,note_on,2,0,0,,7,,,55,127
9247,note_on,0,0,0,,12,,,71,127
9362,note_off,115,0,0,,12,,,71,127
9362,note_off,0,0,0,,7,,,55,127
9364,note_on,2,0,0,,6,,,54,127
9364,note_on,0,0,0,,10,,,69,127
9479,note_off,115,0,0,,10,,,69,127
9479,note_off,0,0,0,,6,,,54,127
9481,note_on,2,0,0,,7,,,43,127
9481,note_on,0,0,0,,12,,,71,127
9716,note_on,235,0,0,,12,,,59,127
9716,note_on,0,0,0,,7,,,55,127
9716,note_on,0,0,0,,2,,,62,127
9946,note_off,230,0,0,,12,,,71,127
9946,note_off,0,0,0,,7,,,43,127
9948,note_off,2,0,0,,2,,,62,127
9948,note_off,0,0,0,,7,,,55,127
9948,note_off,0,0,0,,12,,,59,127
9950,note_on,2,0,0,,12,,,59,127
9950,note_on,0,0,0,,7,,,55,127
9950,note_on,0,0,0,,2,,,62,127
10183,note_off,233,0,0,,2,,,62,127
10183,note_off,0,0,0,,7,,,55,127
10183,note_off,0,0,0,,12,,,59,127
10185,note_on,2,0,0,,12,,,59,127
10185,note_on,0,0,0,,7,,,55,127
10185,note_on,0,0,0,,2,,,62,127
10418,note_off,233,0,0,,2,,,62,127
10418,note_off,0,0,0,,7,,,55,127
10418,note_off,0,0,0,,12,,,59,127
10420,note_on,2,0,0,,5,,,53,127
10420,note_on,0,0,0,,2,,,62,127
10420,note_on,0,0,0,,12,,,71,127
10535,note_off,115,0,0,,12,,,71,127
10535,note_off,0,0,0,,2,,,62,127
10537,note_on,2,0,0,,0,,,72,127
10537,note_on,0,0,0,,4,,,64,127
10652,note_off,115,0,0,,4,,,64,127
10652,note_off,0,0,0,,0,,,72,127
10654,note_on,2,0,0,,2,,,74,127
10654,note_on,0,0,0,,5,,,65,127
10769,note_off,115,0,0,,5,,,65,127
10769,note_off,0,0,0,,2,,,74,127
10771,note_on,2,0,0,,4,,,76,127
10771,note_on,0,0,0,,7,,,67,127
10886,note_off,115,0,0,,7,,,67,127
10886,note_off,0,0,0,,4,,,76,127
10888,note_on,2,0,0,,5,,,77,127
10888,note_on,0,0,0,,10,,,69,127
11003,note_off,115,0,0,,10,,,69,127
11003,note_off,0,0,0,,5,,,77,127
11005,note_on,2,0,0,,7,,,79,127
11005,note_on,0,0,0,,12,,,71,127
11120,note_off,115,0,0,,12,,,71,127
11120,note_off,0,0,0,,7,,,79,127
11122,note_on,2,0,0,,10,,,81,127
11122,note_on,0,0,0,,0,,,72,127
11237,note_off,115,0,0,,0,,,72,127
11237,note_off,0,0,0,,10,,,81,127
11239,note_on,2,0,0,,12,,,83,127
11239,note_on,0,0,0,,2,,,74,127
11354,note_off,115,0,0,,2,,,74,127
11354,note_off,0,0,0,,12,,,83,127
11354,note_off,0,0,0,,5,,,53,127
11356,note_on,2,0,0,,4,,,52,127
11356,note_on,0,0,0,,4,,,76,127
11356,note_on,0,0,0,,0,,,84,127
11589,note_off,233,0,0,,4,,,52,127
11591,note_on,2,0,0,,7,,,67,127
11591,note_on,0,0,0,,4,,,64,127
11772,note_off,181,0,0,,0,,,84,127
11772,note_off,0,0,0,,4,,,76,127
11826,note_on,54,0,0,,7,,,79,127
11826,note_on,0,0,0,,4,,,76,127
11941,note_off,115,0,0,,4,,,64,127
11941,note_off,0,0,0,,7,,,67,127
11943,note_on,2,0,0,,5,,,65,127
11943,note_on,0,0,0,,2,,,62,127
12058,note_off,115,0,0,,2,,,62,127
12058,note_off,0,0,0,,5,,,65,127
12060,note_on,2,0,0,,4,,,64,127
12060,note_on,0,0,0,,0,,,60,127
12175,note_off,115,0,0,,0,,,60,127
12175,note_off,0,0,0,,4,,,64,127
12177,note_on,2,0,0,,2,,,62,127
12177,note_on,0,0,0,,12,,,59,127
12292,note_off,115,0,0,,12,,,59,127
12292,note_off,0,0,0,,2,,,62,127
12294,note_on,2,0,0,,4,,,64,127
12294,note_on,0,0,0,,0,,,60,127
12409,note_off,115,0,0,,4,,,76,127
12409,note_off,0,0,0,,7,,,79,127
12411,note_on,2,0,0,,2,,,74,127
12411,note_on,0,0,0,,5,,,77,127
12526,note_off,115,0,0,,5,,,77,127
12526,note_off,0,0,0,,2,,,74,127
12526,note_off,0,0,0,,0,,,60,127
12526,note_off,0,0,0,,4,,,64,127
12528,note_on,2,0,0,,2,,,62,127
12528,note_on,0,0,0,,12,,,59,127
12528,note_on,0,0,0,,4,,,76,127
12528,note_on,0,0,0,,0,,,72,127
12643,note_off,115,0,0,,0,,,72,127
12643,note_off,0,0,0,,4,,,76,127
12645,note_on,2,0,0,,2,,,74,127
12645,note_on,0,0,0,,12,,,71,127
12760,note_off,115,0,0,,12,,,71,127
12760,note_off,0,0,0,,2,,,74,127
12760,note_off,0,0,0,,12,,,59,127
12760,note_off,0,0,0,,2,,,62,127
12762,note_on,2,0,0,,7,,,67,127
12762,note_on,0,0,0,,4,,,64,127
12762,note_on,0,0,0,,4,,,76,127
12762,note_on,0,0,0,,7,,,79,127
12877,note_off,115,0,0,,4,,,64,127
12877,note_off,0,0,0,,7,,,67,127
12879,note_on,2,0,0,,5,,,65,127
12879,note_on,0,0,0,,2,,,62,127
12994,note_off,115,0,0,,2,,,62,127
12994,note_off,0,0,0,,5,,,65,127
12996,note_on,2,0,0,,4,,,64,127
12996,note_on,0,0,0,,0,,,60,127
13111,note_off,115,0,0,,0,,,60,127
13111,note_off,0,0,0,,4,,,64,127
13113,note_on,2,0,0,,2,,,62,127
13113,note_on,0,0,0,,12,,,59,127
13228,note_off,115,0,0,,12,,,59,127
13228,note_off,0,0,0,,2,,,62,127
13230,note_on,2,0,0,,0,,,60,127
13230,note_on,0,0,0,,4,,,64,127
13345,note_off,115,0,0,,7,,,79,127
13345,note_off,0,0,0,,4,,,76,127
13347,note_on,2,0,0,,2,,,74,127
13347,note_on,0,0,0,,5,,,77,127
13462,note_off,115,0,0,,5,,,77,127
13462,note_off,0,0,0,,2,,,74,127
13462,note_off,0,0,0,,4,,,64,127
13462,note_off,0,0,0,,0,,,60,127
13464,note_on,2,0,0,,7,,,55,127
13464,note_on,0,0,0,,4,,,76,127
13464,note_on,0,0,0,,0,,,72,127
13579,note_off,115,0,0,,0,,,72,127
13579,note_off,0,0,0,,4,,,76,127
13581,note_on,2,0,0,,12,,,71,127
13581,note_on,0,0,0,,2,,,74,127
13696,note_off,115,0,0,,2,,,74,127
13696,note_off,0,0,0,,12,,,71,127
13696,note_off,0,0,0,,7,,,55,127
13698,note_on,2,0,0,,0,,,48,127
13698,note_on,0,0,0,,10,,,69,127
13698,note_on,0,0,0,,0,,,72,127
13813,note_off,115,0,0,,0,,,72,127
13813,note_off,0,0,0,,10,,,69,127
13815,note_on,2,0,0,,7,,,67,127
13815,note_on,0,0,0,,12,,,71,127
13930,note_off,115,0,0,,12,,,71,127
13930,note_off,0,0,0,,7,,,67,127
13932,note_on,2,0,0,,10,,,69,127
13932,note_on,0,0,0,,6,,,66,127
14047,note_off,115,0,0,,6,,,66,127
14047,note_off,0,0,0,,10,,,69,127
14049,note_on,2,0,0,,4,,,64,127
14049,note_on,0,0,0,,7,,,67,127
14164,note_off,115,0,0,,7,,,67,127
14164,note_off,0,0,0,,4,,,64,127
14164,note_off,0,0,0,,0,,,48,127
14166,note_on,2,0,0,,2,,,50,127
14166,note_on,0,0,0,,2,,,62,127
14166,note_on,0,0,0,,6,,,66,127
14399,note_off,233,0,0,,2,,,62,127
14401,note_on,2,0,0,,2,,,38,127
14401,note_on,0,0,0,,2,,,62,127
14631,note_off,230,0,0,,6,,,66,127
14633,note_off,2,0,0,,2,,,62,127
14633,note_off,0,0,0,,2,,,38,127
14635,note_on,2,0,0,,2,,,38,127
14635,note_on,0,0,0,,2,,,62,127
14868,note_off,233,0,0,,2,,,62,127
14868,note_off,0,0,0,,2,,,38,127
14870,note_on,2,0,0,,2,,,38,127
14870,note_on,0,0,0,,2,,,62,127
15103,note_off,233,0,0,,2,,,62,127
15103,note_off,0,0,0,,2,,,38,127
15104,note_off,1,0,0,,2,,,50,127
15105,note_on,1,0,0,,10,,,45,127
15105,note_on,0,0,0,,4,,,64,127
15105,note_on,0,0,0,,1,,,73,127
15220,note_off,115,0,0,,1,,,73,127
15220,note_off,0,0,0,,4,,,64,127
15222,note_on,2,0,0,,6,,,66,127
15222,note_on,0,0,0,,2,,,74,127
15337,note_off,115,0,0,,2,,,74,127
15337,note_off,0,0,0,,6,,,66,127
15339,note_on,2,0,0,,7,,,67,127
15339,note_on,0,0,0,,4,,,76,127
15454,note_off,115,0,0,,4,,,76,127
15454,note_off,0,0,0,,7,,,67,127
15456,note_on,2,0,0,,6,,,78,127
15456,note_on,0,0,0,,10,,,69,127
15571,note_off,115,0,0,,10,,,69,127
15571,note_off,0,0,0,,6,,,78,127
15573,note_on,2,0,0,,12,,,71,127
15573,note_on,0,0,0,,7,,,79,127
15688,note_off,115,0,0,,7,,,79,127
15688,note_off,0,0,0,,12,,,71,127
15690,note_on,2,0,0,,10,,,81,127
15690,note_on,0,0,0,,1,,,73,127
15805,note_off,115,0,0,,1,,,73,127
15805,note_off,0,0,0,,10,,,81,127
15807,note_on,2,0,0,,12,,,83,127
15807,note_on,0,0,0,,2,,,74,127
15922,note_off,115,0,0,,2,,,74,127
15922,note_off,0,0,0,,12,,,83,127
15924,note_on,2,0,0,,4,,,76,127
15924,note_on,0,0,0,,1,,,85,127
16039,note_off,115,0,0,,1,,,85,127
16039,note_off,0,0,0,,4,,,76,127
16039,note_off,0,0,0,,10,,,45,127
16041,note_on,2,0,0,,2,,,50,127
16041,note_on,0,0,0,,6,,,78,127
16041,note_on,0,0,0,,2,,,86,127
16274,note_off,233,0,0,,2,,,50,127
16276,note_on,2,0,0,,6,,,66,127
16276,note_on,0,0,0,,10,,,69,127
16457,note_off,181,0,0,,2,,,86,127
16457,note_off,0,0,0,,6,,,78,127
16511,note_on,54,0,0,,6,,,78,127
16511,note_on,0,0,0,,10,,,81,127
16626,note_off,115,0,0,,10,,,69,127
16626,note_off,0,0,0,,6,,,66,127
16628,note_on,2,0,0,,7,,,67,127
16628,note_on,0,0,0,,4,,,64,127
16743,note_off,115,0,0,,4,,,64,127
16743,note_off,0,0,0,,7,,,67,127
16745,note_on,2,0,0,,6,,,66,127
16745,note_on,0,0,0,,2,,,62,127
16860,note_off,115,0,0,,2,,,62,127
16860,note_off,0,0,0,,6,,,66,127
16862,note_on,2,0,0,,4,,,64,127
16862,note_on,0,0,0,,1,,,61,127
16977,note_off,115,0,0,,1,,,61,127
16977,note_off,0,0,0,,4,,,64,127
16979,note_on,2,0,0,,2,,,62,127
16979,note_on,0,0,0,,6,,,66,127
17094,note_off,115,0,0,,10,,,81,127
17094,note_off,0,0,0,,6,,,78,127
17096,note_on,2,0,0,,4,,,76,127
17096,note_on,0,0,0,,7,,,79,127
17211,note_off,115,0,0,,7,,,79,127
17211,note_off,0,0,0,,4,,,76,127
17211,note_off,0,0,0,,6,,,66,127
17211,note_off,0,0,0,,2,,,62,127
17213,note_on,2,0,0,,1,,,61,127
17213,note_on,0,0,0,,4,,,64,127
17213,note_on,0,0,0,,2,,,74,127
17213,note_on,0,0,0,,6,,,78,127
17328,note_off,115,0,0,,6,,,78,127
17328,note_off,0,0,0,,2,,,74,127
17330,note_on,2,0,0,,1,,,73,127
17330,note_on,0,0,0,,4,,,76,127
17445,note_off,115,0,0,,4,,,76,127
17445,note_off,0,0,0,,1,,,73,127
17445,note_off,0,0,0,,4,,,64,127
17445,note_off,0,0,0,,1,,,61,127
17447,note_on,2,0,0,,6,,,66,127
17447,note_on,0,0,0,,10,,,69,127
17447,note_on,0,0,0,,6,,,78,127
17447,note_on,0,0,0,,10,,,81,127
17562,note_off,115,0,0,,10,,,69,127
17562,note_off,0,0,0,,6,,,66,127
17564,note_on,2,0,0,,4,,,64,127
17564,note_on,0,0,0,,7,,,67,127
17679,note_off,115,0,0,,7,,,67,127
17679,note_off,0,0,0,,4,,,64,127
17681,note_on,2,0,0,,6,,,66,127
17681,note_on,0,0,0,,2,,,62,127
17796,note_off,115,0,0,,2,,,62,127
17796,note_off,0,0,0,,6,,,66,127
17798,note_on,2,0,0,,1,,,61,127
17798,note_on,0,0,0,,4,,,64,127
17913,note_off,115,0,0,,4,,,64,127
17913,note_off,0,0,0,,1,,,61,127
17915,note_on,2,0,0,,2,,,50,127
18030,note_off,115,0,0,,10,,,81,127
18030,note_off,0,0,0,,6,,,78,127
18032,note_on,2,0,0,,7,,,79,127
18147,note_off,115,0,0,,7,,,79,127
18149,note_on,2,0,0,,2,,,62,127
18149,note_on,0,0,0,,6,,,78,127
18264,note_off,115,0,0,,6,,,78,127
18266,note_on,2,0,0,,7,,,79,127
18381,note_off,115,0,0,,7,,,79,127
18381,note_off,0,0,0,,2,,,62,127
18383,note_on,2,0,0,,10,,,81,127
18498,note_off,115,0,0,,10,,,81,127
18500,note_off,2,0,0,,2,,,50,127
18500,note_on,0,0,0,,12,,,83,127
18615,note_off,115,0,0,,12,,,83,127
18617,note_on,2,0,0,,10,,,69,127
18617,note_on,0,0,0,,12,,,83,127
18732,note_off,115,0,0,,12,,,83,127
18734,note_on,2,0,0,,2,,,74,127
18849,note_off,115,0,0,,2,,,74,127
18851,note_on,2,0,0,,10,,,57,127
18851,note_on,0,0,0,,1,,,73,127
18966,note_off,115,0,0,,1,,,73,127
18968,note_on,2,0,0,,2,,,74,127
19083,note_off,115,0,0,,2,,,74,127
19085,note_on,2,0,0,,4,,,76,127
19200,note_off,115,0,0,,4,,,76,127
19202,note_on,2,0,0,,6,,,78,127
19317,note_off,115,0,0,,6,,,78,127
19318,note_off,1,0,0,,10,,,69,127
19319,note_on,1,0,0,,7,,,79,127
19434,note_off,115,0,0,,7,,,79,127
19436,note_off,2,0,0,,10,,,57,127
19436,note_on,0,0,0,,10,,,81,127
19551,note_off,115,0,0,,10,,,81,127
19553,note_on,2,0,0,,6,,,66,127
19553,note_on,0,0,0,,10,,,81,127
19668,note_off,115,0,0,,10,,,81,127
19670,note_on,2,0,0,,1,,,73,127
19785,note_off,115,0,0,,1,,,73,127
19785,note_off,0,0,0,,6,,,66,127
19787,note_on,2,0,0,,7,,,67,127
19787,note_on,0,0,0,,12,,,71,127
19902,note_off,115,0,0,,12,,,71,127
19904,note_on,2,0,0,,1,,,73,127
20019,note_off,115,0,0,,1,,,73,127
20021,note_on,2,0,0,,7,,,55,127
20021,note_on,0,0,0,,2,,,74,127
20136,note_off,115,0,0,,2,,,74,127
20138,note_on,2,0,0,,4,,,76,127
20253,note_off,115,0,0,,4,,,76,127
20255,note_on,2,0,0,,6,,,78,127
20370,note_off,115,0,0,,6,,,78,127
20372,note_off,2,0,0,,7,,,55,127
20372,note_off,0,0,0,,7,,,67,127
20372,note_on,0,0,0,,7,,,79,127
20487,note_off,115,0,0,,7,,,79,127
20489,note_on,2,0,0,,4,,,64,127
20489,note_on,0,0,0,,7,,,79,127
20604,note_off,115,0,0,,7,,,79,127
20606,note_on,2,0,0,,12,,,71,127
20721,note_off,115,0,0,,12,,,71,127
20721,note_off,0,0,0,,4,,,64,127
20723,note_on,2,0,0,,6,,,66,127
20723,note_on,0,0,0,,10,,,69,127
20838,note_off,115,0,0,,10,,,69,127
20840,note_on,2,0,0,,12,,,71,127
20955,note_off,115,0,0,,12,,,71,127
20957,note_on,2,0,0,,6,,,54,127
20957,note_on,0,0,0,,1,,,73,127
21072,note_off,115,0,0,,1,,,73,127
21074,note_on,2,0,0,,2,,,74,127
21189,note_off,115,0,0,,2,,,74,127
21191,note_on,2,0,0,,4,,,76,127
21306,note_off,115,0,0,,4,,,76,127
21308,note_off,2,0,0,,6,,,54,127
21308,note_off,0,0,0,,6,,,66,127
21308,note_on,0,0,0,,6,,,78,127
21423,note_off,115,0,0,,6,,,78,127
21425,note_on,2,0,0,,2,,,62,127
21425,note_on,0,0,0,,6,,,78,127
21540,note_off,115,0,0,,6,,,78,127
21542,note_on,2,0,0,,10,,,69,127
21657,note_off,115,0,0,,10,,,69,127
21657,note_off,0,0,0,,2,,,62,127
21659,note_on,2,0,0,,4,,,64,127
21659,note_on,0,0,0,,7,,,67,127
21774,note_off,115,0,0,,7,,,67,127
21776,note_on,2,0,0,,10,,,69,127
21891,note_off,115,0,0,,10,,,69,127
21893,note_on,2,0,0,,4,,,52,127
21893,note_on,0,0,0,,12,,,71,127
22008,note_off,115,0,0,,12,,,71,127
22010,note_on,2,0,0,,1,,,73,127
22125,note_off,115,0,0,,1,,,73,127
22127,note_on,2,0,0,,2,,,74,127
22242,note_off,115,0,0,,2,,,74,127
22244,note_off,2,0,0,,4,,,52,127
22244,note_off,0,0,0,,4,,,64,127
22244,note_on,0,0,0,,4,,,76,127
22359,note_off,115,0,0,,4,,,76,127
22361,note_on,2,0,0,,10,,,57,127
22361,note_on,0,0,0,,4,,,76,127
22476,note_off,115,0,0,,4,,,76,127
22478,note_on,2,0,0,,7,,,67,127
22593,note_off,115,0,0,,7,,,67,127
22593,note_off,0,0,0,,10,,,57,127
22595,note_on,2,0,0,,2,,,62,127
22595,note_on,0,0,0,,6,,,66,127
22710,note_off,115,0,0,,2,,,62,127
22712,note_on,2,0,0,,4,,,64,127
22827,note_off,115,0,0,,4,,,64,127
22827,note_off,0,0,0,,6,,,66,127
22829,note_on,2,0,0,,6,,,66,127
22829,note_on,0,0,0,,10,,,81,127
22944,note_off,115,0,0,,6,,,66,127
22946,note_on,2,0,0,,7,,,67,127
23061,note_off,115,0,0,,7,,,67,127
23063,note_on,2,0,0,,10,,,69,127
23178,note_off,115,0,0,,10,,,69,127
23180,note_on,2,0,0,,12,,,71,127
23295,note_off,115,0,0,,12,,,71,127
23295,note_off,0,0,0,,10,,,81,127
23297,note_on,2,0,0,,12,,,71,127
23297,note_on,0,0,0,,2,,,74,127
23412,note_off,115,0,0,,12,,,71,127
23414,note_on,2,0,0,,2,,,62,127
23529,note_off,115,0,0,,2,,,62,127
23529,note_off,0,0,0,,2,,,74,127
23531,note_on,2,0,0,,1,,,61,127
23531,note_on,0,0,0,,4,,,76,127
23646,note_off,115,0,0,,1,,,61,127
23648,note_on,2,0,0,,2,,,62,127
23763,note_off,115,0,0,,2,,,62,127
23763,note_off,0,0,0,,4,,,76,127
23765,note_on,2,0,0,,4,,,64,127
23765,note_on,0,0,0,,10,,,81,127
23880,note_off,115,0,0,,4,,,64,127
23882,note_on,2,0,0,,6,,,66,127
23997,note_off,115,0,0,,6,,,66,127
23999,note_on,2,0,0,,7,,,67,127
24114,note_off,115,0,0,,7,,,67,127
24116,note_on,2,0,0,,10,,,69,127
24231,note_off,115,0,0,,10,,,69,127
24231,note_off,0,0,0,,10,,,81,127
24233,note_on,2,0,0,,10,,,69,127
24233,note_on,0,0,0,,4,,,76,127
24348,note_off,115,0,0,,10,,,69,127
24350,note_on,2,0,0,,1,,,61,127
24465,note_off,115,0,0,,1,,,61,127
24465,note_off,0,0,0,,4,,,76,127
24467,note_on,2,0,0,,12,,,59,127
24467,note_on,0,0,0,,2,,,74,127
24582,note_off,115,0,0,,12,,,59,127
24584,note_on,2,0,0,,1,,,61,127
24699,note_off,115,0,0,,1,,,61,127
24699,note_off,0,0,0,,2,,,74,127
24701,note_on,2,0,0,,2,,,62,127
24701,note_on,0,0,0,,12,,,83,127
24816,note_off,115,0,0,,2,,,62,127
24818,note_on,2,0,0,,4,,,64,127
24933,note_off,115,0,0,,4,,,64,127
24935,note_on,2,0,0,,6,,,66,127
25050,note_off,115,0,0,,6,,,66,127
25052,note_on,2,0,0,,7,,,67,127
25167,note_off,115,0,0,,7,,,67,127
25167,note_off,0,0,0,,12,,,83,127
25169,note_on,2,0,0,,7,,,67,127
25169,note_on,0,0,0,,2,,,74,127
25284,note_off,115,0,0,,7,,,67,127
25286,note_on,2,0,0,,12,,,59,127
25401,note_off,115,0,0,,12,,,59,127
25401,note_off,0,0,0,,2,,,74,127
25403,note_on,2,0,0,,10,,,57,127
25403,note_on,0,0,0,,1,,,73,127
25518,note_off,115,0,0,,10,,,57,127
25520,note_on,2,0,0,,12,,,59,127
25635,note_off,115,0,0,,12,,,59,127
25635,note_off,0,0,0,,1,,,73,127
25637,note_on,2,0,0,,1,,,61,127
25637,note_on,0,0,0,,10,,,81,127
25752,note_off,115,0,0,,1,,,61,127
25754,note_on,2,0,0,,2,,,62,127
25869,note_off,115,0,0,,2,,,62,127
25871,note_on,2,0,0,,4,,,64,127
25986,note_off,115,0,0,,4,,,64,127
25988,note_on,2,0,0,,6,,,66,127
26103,note_off,115,0,0,,6,,,66,127
26103,note_off,0,0,0,,10,,,81,127
26105,note_on,2,0,0,,6,,,66,127
26105,note_on,0,0,0,,1,,,73,127
26220,note_off,115,0,0,,6,,,66,127
26222,note_on,2,0,0,,10,,,57,127
26337,note_off,115,0,0,,10,,,57,127
26337,note_off,0,0,0,,1,,,73,127
26339,note_on,2,0,0,,7,,,55,127
26339,note_on,0,0,0,,12,,,71,127
26454,note_off,115,0,0,,7,,,55,127
26456,note_on,2,0,0,,10,,,57,127
26571,note_off,115,0,0,,10,,,57,127
26571,note_off,0,0,0,,12,,,71,127
26573,note_on,2,0,0,,12,,,59,127
26573,note_on,0,0,0,,7,,,79,127
26688,note_off,115,0,0,,12,,,59,127
26690,note_on,2,0,0,,1,,,61,127
26805,note_off,115,0,0,,1,,,61,127
26807,note_on,2,0,0,,2,,,62,127
26922,note_off,115,0,0,,2,,,62,127
26924,note_on,2,0,0,,4,,,64,127
27039,note_off,115,0,0,,4,,,64,127
27039,note_off,0,0,0,,7,,,79,127
27041,note_on,2,0,0,,4,,,64,127
27041,note_on,0,0,0,,12,,,71,127
27156,note_off,115,0,0,,4,,,64,127
27158,note_on,2,0,0,,7,,,55,127
27273,note_off,115,0,0,,7,,,55,127
27273,note_off,0,0,0,,12,,,71,127
27275,note_on,2,0,0,,6,,,54,127
27275,note_on,0,0,0,,10,,,69,127
27390,note_off,115,0,0,,10,,,69,127
27392,note_on,2,0,0,,12,,,83,127
27507,note_off,115,0,0,,12,,,83,127
27509,note_on,2,0,0,,10,,,81,127
27624,note_off,115,0,0,,10,,,81,127
27626,note_on,2,0,0,,7,,,79,127
27741,note_off,115,0,0,,7,,,79,127
27743,note_on,2,0,0,,6,,,78,127
27858,note_off,115,0,0,,6,,,78,127
27860,note_off,2,0,0,,6,,,54,127
27860,note_on,0,0,0,,4,,,76,127
27975,note_off,115,0,0,,4,,,76,127
27977,note_on,2,0,0,,2,,,74,127
27977,note_on,0,0,0,,10,,,81,127
27977,note_on,0,0,0,,6,,,54,127
28092,note_off,115,0,0,,2,,,74,127
28094,note_on,2,0,0,,1,,,73,127
28209,note_off,115,0,0,,1,,,73,127
28209,note_off,0,0,0,,6,,,54,127
28211,note_on,2,0,0,,7,,,43,127
28211,note_on,0,0,0,,12,,,71,127
28319,note_off,108,0,0,,10,,,81,127
28329,note_on,10,0,0,,7,,,79,127
28444,note_off,115,0,0,,7,,,79,127
28444,note_off,0,0,0,,7,,,43,127
28446,note_on,2,0,0,,7,,,55,127
28446,note_on,0,0,0,,6,,,78,127
28561,note_off,115,0,0,,6,,,78,127
28563,note_on,2,0,0,,4,,,76,127
28676,note_off,113,0,0,,12,,,71,127
28678,note_off,2,0,0,,4,,,76,127
28678,note_off,0,0,0,,7,,,55,127
28680,note_on,2,0,0,,10,,,57,127
28680,note_on,0,0,0,,6,,,78,127
28795,note_off,115,0,0,,6,,,78,127
28797,note_on,2,0,0,,2,,,74,127
28912,note_off,115,0,0,,2,,,74,127
28914,note_on,2,0,0,,10,,,45,127
28914,note_on,0,0,0,,4,,,76,127
29029,note_off,115,0,0,,4,,,76,127
29031,note_off,2,0,0,,10,,,57,127
29031,note_on,0,0,0,,1,,,73,127
29146,note_off,115,0,0,,1,,,73,127
29146,note_off,0,0,0,,10,,,45,127
29148,note_on,2,0,0,,2,,,38,127
29148,note_on,0,0,0,,2,,,74,127
29263,note_off,115,0,0,,2,,,74,127
29265,note_on,2,0,0,,10,,,81,127
29380,note_off,115,0,0,,10,,,81,127
29382,note_on,2,0,0,,6,,,78,127
29497,note_off,115,0,0,,6,,,78,127
29499,note_on,2,0,0,,2,,,74,127
29614,note_off,115,0,0,,2,,,74,127
29616,note_on,2,0,0,,10,,,69,127
29731,note_off,115,0,0,,10,,,69,127
29733,note_on,2,0,0,,6,,,66,127
29848,note_off,115,0,0,,6,,,66,127
29850,note_on,2,0,0,,2,,,62,127
29965,note_off,115,0,0,,2,,,62,127
29967,note_on,2,0,0,,10,,,57,127
30082,note_off,115,0,0,,10,,,57,127
30082,note_off,0,0,0,,2,,,38,127
30084,note_on,2,0,0,,6,,,54,127
30199,note_off,115,0,0,,6,,,54,127
30201,note_on,2,0,0,,2,,,50,127
30316,note_off,115,0,0,,2,,,50,127
30318,note_on,2,0,0,,10,,,45,127
30433,note_off,115,0,0,,10,,,45,127
30435,note_on,2,0,0,,6,,,42,127
30550,note_off,115,0,0,,6,,,42,127
30552,note_on,2,0,0,,2,,,38,127
30670,note_on,118,0,0,,1,,,85,127
30785,note_off,115,0,0,,1,,,85,127
30787,note_on,2,0,0,,2,,,86,127
30905,note_off,118,0,0,,2,,,38,127
31023,note_on,118,0,0,,7,,,43,127
31138,note_off,115,0,0,,2,,,86,127
31140,note_on,2,0,0,,6,,,78,127
31255,note_off,115,0,0,,6,,,78,127
31255,note_off,0,0,0,,7,,,43,127
31257,note_on,2,0,0,,7,,,55,127
31257,note_on,0,0,0,,7,,,79,127
31372,note_off,115,0,0,,7,,,79,127
31374,note_on,2,0,0,,4,,,76,127
31489,note_off,115,0,0,,4,,,76,127
31489,note_off,0,0,0,,7,,,55,127
31491,note_on,2,0,0,,10,,,57,127
31491,note_on,0,0,0,,2,,,74,127
31724,note_off,233,0,0,,2,,,74,127
31726,note_on,2,0,0,,10,,,45,127
31726,note_on,0,0,0,,2,,,74,127
31782,note_off,56,0,0,,2,,,74,127
31784,note_on,2,0,0,,1,,,73,127
31840,note_off,56,0,0,,1,,,73,127
31842,note_on,2,0,0,,12,,,71,127
31898,note_off,56,0,0,,12,,,71,127
31900,note_on,2,0,0,,1,,,73,127
31954,note_off,54,0,0,,10,,,57,127
31956,note_off,2,0,0,,1,,,73,127
31956,note_off,0,0,0,,10,,,45,127
31958,note_on,2,0,0,,2,,,38,127
31958,note_on,0,0,0,,2,,,74,127
32073,note_off,115,0,0,,2,,,74,127
32075,note_on,2,0,0,,10,,,81,127
32190,note_off,115,0,0,,10,,,81,127
32192,note_on,2,0,0,,6,,,78,127
32307,note_off,115,0,0,,6,,,78,127
32309,note_on,2,0,0,,2,,,74,127
32424,note_off,115,0,0,,2,,,74,127
32426,note_on,2,0,0,,10,,,69,127
32541,note_off,115,0,0,,10,,,69,127
32543,note_on,2,0,0,,6,,,66,127
32658,note_off,115,0,0,,6,,,66,127
32660,note_on,2,0,0,,2,,,62,127
32775,note_off,115,0,0,,2,,,62,127
32777,note_on,2,0,0,,10,,,57,127
32892,note_off,115,0,0,,10,,,57,127
32892,note_off,0,0,0,,2,,,38,127
32894,note_on,2,0,0,,6,,,54,127
33009,note_off,115,0,0,,6,,,54,127
33011,note_on,2,0,0,,2,,,50,127
33126,note_off,115,0,0,,2,,,50,127
33128,note_on,2,0,0,,10,,,45,127
33243,note_off,115,0,0,,10,,,45,127
33245,note_on,2,0,0,,6,,,42,127
33360,note_off,115,0,0,,6,,,42,127
33362,note_on,2,0,0,,2,,,38,127
33480,note_on,118,0,0,,1,,,85,127
33595,note_off,115,0,0,,1,,,85,127
33597,note_on,2,0,0,,2,,,86,127
33830,note_off,233,0,0,,2,,,38,127
33832,note_on,2,0,0,,7,,,43,127
33947,note_off,115,0,0,,2,,,86,127
33949,note_on,2,0,0,,6,,,78,127
34064,note_off,115,0,0,,6,,,78,127
34064,note_off,0,0,0,,7,,,43,127
34066,note_on,2,0,0,,7,,,55,127
34066,note_on,0,0,0,,7,,,79,127
34181,note_off,115,0,0,,7,,,79,127
34183,note_on,2,0,0,,4,,,76,127
34298,note_off,115,0,0,,4,,,76,127
34298,note_off,0,0,0,,7,,,55,127
34300,note_on,2,0,0,,10,,,57,127
34300,note_on,0,0,0,,2,,,74,127
34533,note_off,233,0,0,,2,,,74,127
34535,note_on,2,0,0,,10,,,45,127
34535,note_on,0,0,0,,2,,,74,127
34591,note_off,56,0,0,,2,,,74,127
34593,note_on,2,0,0,,1,,,73,127
34649,note_off,56,0,0,,1,,,73,127
34651,note_on,2,0,0,,12,,,71,127
34707,note_off,56,0,0,,12,,,71,127
34709,note_on,2,0,0,,1,,,73,127
34763,note_off,54,0,0,,10,,,57,127
34765,note_off,2,0,0,,1,,,73,127
34765,note_off,0,0,0,,10,,,45,127
34767,note_on,2,0,0,,2,,,50,127
34767,note_on,0,0,0,,2,,,74,127
35000,note_off,233,0,0,,2,,,74,127
35000,note_off,0,0,0,,2,,,50,127
35002,note_on,2,0,0,,2,,,62,127
35002,note_on,0,0,0,,2,,,86,127
35117,note_off,115,0,0,,2,,,86,127
35119,note_on,2,0,0,,10,,,81,127
35234,note_off,115,0,0,,10,,,81,127
35236,note_on,2,0,0,,10,,,81,127
35351,note_off,115,0,0,,10,,,81,127
35353,note_on,2,0,0,,12,,,83,127
35468,note_off,115,0,0,,12,,,83,127
35468,note_off,0,0,0,,2,,,62,127
35470,note_on,2,0,0,,1,,,61,127
35470,note_on,0,0,0,,10,,,81,127
35585,note_off,115,0,0,,10,,,81,127
35587,note_on,2,0,0,,7,,,79,127
35702,note_off,115,0,0,,7,,,79,127
35702,note_off,0,0,0,,1,,,61,127
35704,note_on,2,0,0,,2,,,62,127
35704,note_on,0,0,0,,7,,,79,127
35819,note_off,115,0,0,,7,,,79,127
35821,note_on,2,0,0,,10,,,81,127
35936,note_off,115,0,0,,10,,,81,127
35936,note_off,0,0,0,,2,,,62,127
35938,note_on,2,0,0,,6,,,54,127
35938,note_on,0,0,0,,7,,,79,127
36053,note_off,115,0,0,,7,,,79,127
36055,note_on,2,0,0,,6,,,78,127
36170,note_off,115,0,0,,6,,,78,127
36170,note_off,0,0,0,,6,,,54,127
36172,note_on,2,0,0,,7,,,55,127
36172,note_on,0,0,0,,6,,,78,127
36287,note_off,115,0,0,,6,,,78,127
36289,note_on,2,0,0,,4,,,76,127
36404,note_off,115,0,0,,4,,,76,127
36404,note_off,0,0,0,,7,,,55,127
36406,note_on,2,0,0,,10,,,57,127
36406,note_on,0,0,0,,2,,,74,127
36521,note_off,115,0,0,,2,,,74,127
36523,note_on,2,0,0,,1,,,73,127
36638,note_off,115,0,0,,1,,,73,127
36638,note_off,0,0,0,,10,,,57,127
36640,note_on,2,0,0,,2,,,38,127
36640,note_on,0,0,0,,2,,,62,127
36873,note_off,233,0,0,,2,,,62,127
36873,note_off,0,0,0,,2,,,38,127
36875,note_on,2,0,0,,2,,,50,127
36875,note_on,0,0,0,,2,,,74,127
36990,note_off,115,0,0,,2,,,74,127
36992,note_on,2,0,0,,10,,,69,127
37107,note_off,115,0,0,,10,,,69,127
37109,note_on,2,0,0,,10,,,69,127
37224,note_off,115,0,0,,10,,,69,127
37226,note_on,2,0,0,,12,,,71,127
37341,note_off,115,0,0,,12,,,71,127
37341,note_off,0,0,0,,2,,,50,127
37343,note_on,2,0,0,,1,,,49,127
37343,note_on,0,0,0,,10,,,69,127
37458,note_off,115,0,0,,10,,,69,127
37460,note_on,2,0,0,,7,,,67,127
37575,note_off,115,0,0,,7,,,67,127
37575,note_off,0,0,0,,1,,,49,127
37577,note_on,2,0,0,,2,,,50,127
37577,note_on,0,0,0,,7,,,67,127
37692,note_off,115,0,0,,7,,,67,127
37694,note_on,2,0,0,,10,,,69,127
37809,note_off,115,0,0,,10,,,69,127
37809,note_off,0,0,0,,2,,,50,127
37811,note_on,2,0,0,,6,,,42,127
37811,note_on,0,0,0,,7,,,67,127
37926,note_off,115,0,0,,7,,,67,127
37928,note_on,2,0,0,,6,,,66,127
38043,note_off,115,0,0,,6,,,66,127
38043,note_off,0,0,0,,6,,,42,127
38045,note_on,2,0,0,,7,,,43,127
38045,note_on,0,0,0,,6,,,66,127
38160,note_off,115,0,0,,6,,,66,127
38162,note_on,2,0,0,,4,,,64,127
38277,note_off,115,0,0,,4,,,64,127
38277,note_off,0,0,0,,7,,,43,127
38279,note_on,2,0,0,,10,,,45,127
38279,note_on,0,0,0,,2,,,62,127
38394,note_off,115,0,0,,2,,,62,127
38396,note_on,2,0,0,,1,,,61,127
38511,note_off,115,0,0,,1,,,61,127
38511,note_off,0,0,0,,10,,,45,127
38513,note_on,2,0,0,,2,,,38,127
38513,note_on,0,0,0,,2,,,62,127
39407,note_off,894,0,0,,2,,,38,127
39452,note_off,45,0,0,,2,,,62,127
39923,note_on,471,0,0,,6,,,66,127
39923,note_on,0,0,0,,12,,,71,127
39923,note_on,0,0,0,,3,,,75,127
39923,note_on,0,0,0,,12,,,47,127
40156,note_off,233,0,0,,3,,,75,127
40156,note_off,0,0,0,,12,,,71,127
40156,note_off,0,0,0,,6,,,66,127
40158,note_on,2,0,0,,12,,,71,127
40158,note_on,0,0,0,,6,,,66,127
40158,note_on,0,0,0,,3,,,75,127
40273,note_off,115,0,0,,3,,,75,127
40273,note_off,0,0,0,,6,,,66,127
40273,note_off,0,0,0,,12,,,71,127
40275,note_on,2,0,0,,6,,,66,127
40275,note_on,0,0,0,,12,,,71,127
40275,note_on,0,0,0,,3,,,75,127
40390,note_off,115,0,0,,3,,,75,127
40390,note_off,0,0,0,,12,,,71,127
40390,note_off,0,0,0,,6,,,66,127
40392,note_on,2,0,0,,12,,,71,127
40392,note_on,0,0,0,,3,,,75,127
40507,note_off,115,0,0,,12,,,71,127
40509,note_on,2,0,0,,6,,,66,127
40624,note_off,115,0,0,,6,,,66,127
40624,note_off,0,0,0,,3,,,75,127
40626,note_on,2,0,0,,0,,,72,127
40626,note_on,0,0,0,,4,,,76,127
40741,note_off,115,0,0,,0,,,72,127
40743,note_on,2,0,0,,10,,,69,127
40858,note_off,115,0,0,,10,,,69,127
40858,note_off,0,0,0,,4,,,76,127
40858,note_off,0,0,0,,12,,,47,127
40860,note_on,2,0,0,,3,,,75,127
40860,note_on,0,0,0,,6,,,66,127
40860,note_on,0,0,0,,12,,,47,127
41093,note_off,233,0,0,,6,,,66,127
41093,note_off,0,0,0,,3,,,75,127
41095,note_on,2,0,0,,12,,,71,127
41095,note_on,0,0,0,,3,,,75,127
41095,note_on,0,0,0,,6,,,66,127
41210,note_off,115,0,0,,6,,,66,127
41210,note_off,0,0,0,,3,,,75,127
41210,note_off,0,0,0,,12,,,71,127
41212,note_on,2,0,0,,12,,,71,127
41212,note_on,0,0,0,,3,,,75,127
41212,note_on,0,0,0,,6,,,66,127
41327,note_off,115,0,0,,6,,,66,127
41327,note_off,0,0,0,,3,,,75,127
41327,note_off,0,0,0,,12,,,71,127
41329,note_on,2,0,0,,3,,,75,127
41329,note_on,0,0,0,,12,,,71,127
41444,note_off,115,0,0,,12,,,71,127
41446,note_on,2,0,0,,6,,,66,127
41561,note_off,115,0,0,,6,,,66,127
41561,note_off,0,0,0,,3,,,75,127
41563,note_on,2,0,0,,4,,,76,127
41563,note_on,0,0,0,,0,,,72,127
41678,note_off,115,0,0,,0,,,72,127
41680,note_on,2,0,0,,10,,,69,127
41795,note_off,115,0,0,,10,,,69,127
41795,note_off,0,0,0,,4,,,76,127
41795,note_off,0,0,0,,12,,,47,127
41797,note_on,2,0,0,,3,,,75,127
41797,note_on,0,0,0,,6,,,66,127
41797,note_on,0,0,0,,12,,,71,127
41797,note_on,0,0,0,,12,,,47,127
42030,note_off,233,0,0,,12,,,71,127
42030,note_off,0,0,0,,6,,,66,127
42030,note_off,0,0,0,,3,,,75,127
42032,note_on,2,0,0,,3,,,75,127
42032,note_on,0,0,0,,12,,,71,127
42032,note_on,0,0,0,,6,,,66,127
42147,note_off,115,0,0,,6,,,66,127
42147,note_off,0,0,0,,12,,,71,127
42147,note_off,0,0,0,,3,,,75,127
42149,note_on,2,0,0,,12,,,71,127
42149,note_on,0,0,0,,3,,,75,127
42149,note_on,0,0,0,,6,,,66,127
42264,note_off,115,0,0,,6,,,66,127
42264,note_off,0,0,0,,3,,,75,127
42264,note_off,0,0,0,,12,,,71,127
42266,note_on,2,0,0,,6,,,66,127
42266,note_on,0,0,0,,12,,,71,127
42266,note_on,0,0,0,,3,,,75,127
42381,note_off,115,0,0,,12,,,71,127
42381,note_off,0,0,0,,6,,,66,127
42383,note_on,2,0,0,,6,,,66,127
42498,note_off,115,0,0,,6,,,66,127
42498,note_off,0,0,0,,3,,,75,127
42500,note_on,2,0,0,,4,,,76,127
42500,note_on,0,0,0,,0,,,72,127
42615,note_off,115,0,0,,0,,,72,127
42617,note_on,2,0,0,,10,,,69,127
42732,note_off,115,0,0,,10,,,69,127
42732,note_off,0,0,0,,4,,,76,127
42732,note_off,0,0,0,,12,,,47,127
42734,note_on,2,0,0,,6,,,78,127
42734,note_on,0,0,0,,12,,,47,127
42967,note_off,233,0,0,,12,,,47,127
42969,note_on,2,0,0,,12,,,71,127
42969,note_on,0,0,0,,7,,,67,127
43087,note_off,118,0,0,,6,,,78,127
43205,note_on,118,0,0,,7,,,79,127
43205,note_on,0,0,0,,12,,,83,127
43320,note_off,115,0,0,,7,,,67,127
43320,note_off,0,0,0,,12,,,71,127
43322,note_on,2,0,0,,6,,,66,127
43322,note_on,0,0,0,,10,,,69,127
43437,note_off,115,0,0,,10,,,69,127
43437,note_off,0,0,0,,6,,,66,127
43439,note_on,2,0,0,,4,,,64,127
43439,note_on,0,0,0,,7,,,67,127
43554,note_off,115,0,0,,7,,,67,127
43554,note_off,0,0,0,,4,,,64,127
43556,note_on,2,0,0,,6,,,66,127
43556,note_on,0,0,0,,3,,,63,127
43671,note_off,115,0,0,,3,,,63,127
43671,note_off,0,0,0,,6,,,66,127
43673,note_on,2,0,0,,7,,,67,127
43673,note_on,0,0,0,,4,,,64,127
43788,note_off,115,0,0,,12,,,83,127
43788,note_off,0,0,0,,7,,,79,127
43790,note_on,2,0,0,,10,,,81,127
43790,note_on,0,0,0,,6,,,78,127
43905,note_off,115,0,0,,6,,,78,127
43905,note_off,0,0,0,,10,,,81,127
43905,note_off,0,0,0,,4,,,64,127
43905,note_off,0,0,0,,7,,,67,127
43907,note_on,2,0,0,,7,,,79,127
43907,note_on,0,0,0,,4,,,76,127
43907,note_on,0,0,0,,12,,,59,127
43907,note_on,0,0,0,,6,,,66,127
44022,note_off,115,0,0,,4,,,76,127
44022,note_off,0,0,0,,7,,,79,127
44024,note_on,2,0,0,,3,,,75,127
44024,note_on,0,0,0,,6,,,78,127
44139,note_off,115,0,0,,6,,,78,127
44139,note_off,0,0,0,,3,,,75,127
44139,note_off,0,0,0,,6,,,66,127
44139,note_off,0,0,0,,12,,,59,127
44141,note_on,2,0,0,,7,,,79,127
44141,note_on,0,0,0,,12,,,83,127
44141,note_on,0,0,0,,7,,,67,127
44141,note_on,0,0,0,,12,,,71,127
44256,note_off,115,0,0,,12,,,71,127
44256,note_off,0,0,0,,7,,,67,127
44258,note_on,2,0,0,,6,,,66,127
44258,note_on,0,0,0,,10,,,69,127
44373,note_off,115,0,0,,10,,,69,127
44373,note_off,0,0,0,,6,,,66,127
44375,note_on,2,0,0,,4,,,64,127
44375,note_on,0,0,0,,7,,,67,127
44490,note_off,115,0,0,,7,,,67,127
44490,note_off,0,0,0,,4,,,64,127
44492,note_on,2,0,0,,6,,,66,127
44492,note_on,0,0,0,,3,,,63,127
44607,note_off,115,0,0,,3,,,63,127
44607,note_off,0,0,0,,6,,,66,127
44609,note_on,2,0,0,,4,,,52,127
44724,note_off,115,0,0,,12,,,83,127
44724,note_off,0,0,0,,7,,,79,127
44726,note_on,2,0,0,,10,,,81,127
44726,note_on,0,0,0,,6,,,78,127
44841,note_off,115,0,0,,6,,,78,127
44841,note_off,0,0,0,,10,,,81,127
44843,note_on,2,0,0,,4,,,76,127
44843,note_on,0,0,0,,7,,,79,127
44958,note_off,115,0,0,,7,,,79,127
44958,note_off,0,0,0,,4,,,76,127
44960,note_on,2,0,0,,2,,,74,127
44960,note_on,0,0,0,,6,,,78,127
45075,note_off,115,0,0,,6,,,78,127
45075,note_off,0,0,0,,2,,,74,127
45075,note_off,0,0,0,,4,,,52,127
45077,note_on,2,0,0,,1,,,73,127
45077,note_on,0,0,0,,4,,,76,127
45077,note_on,0,0,0,,4,,,52,127
45192,note_off,115,0,0,,4,,,76,127
45192,note_off,0,0,0,,1,,,73,127
45194,note_on,2,0,0,,2,,,74,127
45194,note_on,0,0,0,,12,,,71,127
45309,note_off,115,0,0,,12,,,71,127
45309,note_off,0,0,0,,2,,,74,127
45311,note_on,2,0,0,,1,,,73,127
45311,note_on,0,0,0,,11,,,70,127
45426,note_off,115,0,0,,11,,,70,127
45426,note_off,0,0,0,,1,,,73,127
45428,note_on,2,0,0,,2,,,74,127
45428,note_on,0,0,0,,12,,,71,127
45543,note_off,115,0,0,,12,,,71,127
45543,note_off,0,0,0,,2,,,74,127
45543,note_off,0,0,0,,4,,,52,127
45545,note_on,2,0,0,,1,,,73,127
45545,note_on,0,0,0,,6,,,54,127
45778,note_off,233,0,0,,6,,,54,127
45780,note_on,2,0,0,,6,,,66,127
45780,note_on,0,0,0,,2,,,62,127
45898,note_off,118,0,0,,1,,,73,127
46016,note_on,118,0,0,,2,,,74,127
46016,note_on,0,0,0,,6,,,78,127
46131,note_off,115,0,0,,2,,,62,127
46131,note_off,0,0,0,,6,,,66,127
46133,note_on,2,0,0,,4,,,64,127
46133,note_on,0,0,0,,1,,,61,127
46248,note_off,115,0,0,,1,,,61,127
46248,note_off,0,0,0,,4,,,64,127
46250,note_on,2,0,0,,2,,,62,127
46250,note_on,0,0,0,,12,,,59,127
46365,note_off,115,0,0,,12,,,59,127
46365,note_off,0,0,0,,2,,,62,127
46367,note_on,2,0,0,,1,,,61,127
46367,note_on,0,0,0,,11,,,58,127
46482,note_off,115,0,0,,11,,,58,127
46482,note_off,0,0,0,,1,,,61,127
46484,note_on,2,0,0,,2,,,62,127
46484,note_on,0,0,0,,12,,,59,127
46599,note_off,115,0,0,,6,,,78,127
46599,note_off,0,0,0,,2,,,74,127
46601,note_on,2,0,0,,4,,,76,127
46601,note_on,0,0,0,,1,,,73,127
46716,note_off,115,0,0,,1,,,73,127
46716,note_off,0,0,0,,4,,,76,127
46716,note_off,0,0,0,,12,,,59,127
46716,note_off,0,0,0,,2,,,62,127
46718,note_on,2,0,0,,2,,,74,127
46718,note_on,0,0,0,,12,,,71,127
46718,note_on,0,0,0,,6,,,54,127
46718,note_on,0,0,0,,1,,,61,127
46833,note_off,115,0,0,,12,,,71,127
46833,note_off,0,0,0,,2,,,74,127
46835,note_on,2,0,0,,1,,,73,127
46835,note_on,0,0,0,,11,,,70,127
46950,note_off,115,0,0,,11,,,70,127
46950,note_off,0,0,0,,1,,,73,127
46950,note_off,0,0,0,,1,,,61,127
46950,note_off,0,0,0,,6,,,54,127
46952,note_on,2,0,0,,6,,,78,127
46952,note_on,0,0,0,,2,,,74,127
46952,note_on,0,0,0,,6,,,66,127
46952,note_on,0,0,0,,2,,,62,127
47067,note_off,115,0,0,,2,,,62,127
47067,note_off,0,0,0,,6,,,66,127
47069,note_on,2,0,0,,4,,,64,127
47069,note_on,0,0,0,,1,,,61,127
47184,note_off,115,0,0,,1,,,61,127
47184,note_off,0,0,0,,4,,,64,127
47186,note_on,2,0,0,,12,,,59,127
47186,note_on,0,0,0,,2,,,62,127
47301,note_off,115,0,0,,2,,,62,127
47301,note_off,0,0,0,,12,,,59,127
47303,note_on,2,0,0,,1,,,61,127
47303,note_on,0,0,0,,11,,,58,127
47418,note_off,115,0,0,,11,,,58,127
47418,note_off,0,0,0,,1,,,61,127
47420,note_on,2,0,0,,2,,,62,127
47420,note_on,0,0,0,,12,,,59,127
47535,note_off,115,0,0,,2,,,74,127
47535,note_off,0,0,0,,6,,,78,127
47537,note_on,2,0,0,,4,,,76,127
47652,note_off,115,0,0,,4,,,76,127
47652,note_off,0,0,0,,2,,,62,127
47654,note_on,2,0,0,,2,,,74,127
47654,note_on,0,0,0,,12,,,47,127
47769,note_off,115,0,0,,2,,,74,127
47771,note_on,2,0,0,,1,,,73,127
47886,note_off,115,0,0,,1,,,73,127
47886,note_off,0,0,0,,12,,,47,127
47888,note_on,2,0,0,,2,,,74,127
47888,note_on,0,0,0,,12,,,47,127
48003,note_off,115,0,0,,2,,,74,127
48005,note_on,2,0,0,,1,,,73,127
48120,note_off,115,0,0,,1,,,73,127
48120,note_off,0,0,0,,12,,,47,127
48121,note_off,1,0,0,,12,,,59,127
48122,note_on,1,0,0,,12,,,71,127
48122,note_on,0,0,0,,2,,,74,127
48122,note_on,0,0,0,,2,,,50,127
48237,note_off,115,0,0,,12,,,71,127
48239,note_on,2,0,0,,10,,,69,127
48354,note_off,115,0,0,,10,,,69,127
48354,note_off,0,0,0,,2,,,50,127
48356,note_on,2,0,0,,8,,,68,127
48356,note_on,0,0,0,,4,,,52,127
48586,note_off,230,0,0,,2,,,74,127
48588,note_off,2,0,0,,4,,,52,127
48588,note_off,0,0,0,,8,,,68,127
48590,note_on,2,0,0,,4,,,64,127
48590,note_on,0,0,0,,0,,,60,127
48825,note_on,235,0,0,,4,,,76,127
48825,note_on,0,0,0,,0,,,72,127
48940,note_off,115,0,0,,0,,,60,127
48940,note_off,0,0,0,,4,,,64,127
48942,note_on,2,0,0,,2,,,62,127
48942,note_on,0,0,0,,12,,,59,127
49057,note_off,115,0,0,,12,,,59,127
49057,note_off,0,0,0,,2,,,62,127
49059,note_on,2,0,0,,0,,,60,127
49059,note_on,0,0,0,,10,,,57,127
49174,note_off,115,0,0,,10,,,57,127
49174,note_off,0,0,0,,0,,,60,127
49176,note_on,2,0,0,,12,,,59,127
49176,note_on,0,0,0,,8,,,56,127
49291,note_off,115,0,0,,8,,,56,127
49291,note_off,0,0,0,,12,,,59,127
49293,note_on,2,0,0,,10,,,57,127
49293,note_on,0,0,0,,0,,,60,127
49408,note_off,115,0,0,,0,,,72,127
49408,note_off,0,0,0,,4,,,76,127
49410,note_on,2,0,0,,12,,,71,127
49410,note_on,0,0,0,,2,,,74,127
49525,note_off,115,0,0,,2,,,74,127
49525,note_off,0,0,0,,12,,,71,127
49525,note_off,0,0,0,,0,,,60,127
49525,note_off,0,0,0,,10,,,57,127
49527,note_on,2,0,0,,0,,,72,127
49527,note_on,0,0,0,,10,,,69,127
49527,note_on,0,0,0,,4,,,52,127
49527,note_on,0,0,0,,12,,,59,127
49642,note_off,115,0,0,,10,,,69,127
49642,note_off,0,0,0,,0,,,72,127
49644,note_on,2,0,0,,12,,,71,127
49644,note_on,0,0,0,,8,,,68,127
49759,note_off,115,0,0,,8,,,68,127
49759,note_off,0,0,0,,12,,,71,127
49759,note_off,0,0,0,,12,,,59,127
49759,note_off,0,0,0,,4,,,52,127
49761,note_on,2,0,0,,4,,,76,127
49761,note_on,0,0,0,,0,,,72,127
49761,note_on,0,0,0,,4,,,64,127
49761,note_on,0,0,0,,0,,,60,127
49876,note_off,115,0,0,,0,,,60,127
49876,note_off,0,0,0,,4,,,64,127
49878,note_on,2,0,0,,12,,,59,127
49878,note_on,0,0,0,,2,,,62,127
49993,note_off,115,0,0,,2,,,62,127
49993,note_off,0,0,0,,12,,,59,127
49995,note_on,2,0,0,,0,,,60,127
49995,note_on,0,0,0,,10,,,57,127
50110,note_off,115,0,0,,10,,,57,127
50110,note_off,0,0,0,,0,,,60,127
50112,note_on,2,0,0,,8,,,56,127
50112,note_on,0,0,0,,12,,,59,127
50227,note_off,115,0,0,,12,,,59,127
50227,note_off,0,0,0,,8,,,56,127
50229,note_on,2,0,0,,10,,,57,127
50344,note_off,115,0,0,,0,,,72,127
50344,note_off,0,0,0,,4,,,76,127
50346,note_on,2,0,0,,2,,,74,127
50461,note_off,115,0,0,,2,,,74,127
50463,note_on,2,0,0,,0,,,72,127
50463,note_on,0,0,0,,10,,,45,127
50578,note_off,115,0,0,,0,,,72,127
50580,note_on,2,0,0,,12,,,71,127
50695,note_off,115,0,0,,12,,,71,127
50695,note_off,0,0,0,,10,,,45,127
50697,note_on,2,0,0,,0,,,72,127
50697,note_on,0,0,0,,10,,,45,127
50812,note_off,115,0,0,,0,,,72,127
50814,note_on,2,0,0,,12,,,71,127
50929,note_off,115,0,0,,12,,,71,127
50929,note_off,0,0,0,,10,,,45,127
50930,note_off,1,0,0,,10,,,57,127
50931,note_on,1,0,0,,0,,,72,127
50931,note_on,0,0,0,,10,,,69,127
50931,note_on,0,0,0,,0,,,48,127
51046,note_off,115,0,0,,10,,,69,127
51048,note_on,2,0,0,,7,,,67,127
51163,note_off,115,0,0,,7,,,67,127
51163,note_off,0,0,0,,0,,,48,127
51165,note_on,2,0,0,,6,,,66,127
51165,note_on,0,0,0,,2,,,50,127
51395,note_off,230,0,0,,0,,,72,127
51397,note_off,2,0,0,,2,,,50,127
51397,note_off,0,0,0,,6,,,66,127
51399,note_on,2,0,0,,2,,,62,127
51399,note_on,0,0,0,,12,,,59,127
51634,note_on,235,0,0,,2,,,74,127
51634,note_on,0,0,0,,12,,,71,127
51749,note_off,115,0,0,,12,,,59,127
51749,note_off,0,0,0,,2,,,62,127
51751,note_on,2,0,0,,0,,,60,127
51751,note_on,0,0,0,,10,,,57,127
51866,note_off,115,0,0,,10,,,57,127
51866,note_off,0,0,0,,0,,,60,127
51868,note_on,2,0,0,,12,,,59,127
51868,note_on,0,0,0,,7,,,55,127
51983,note_off,115,0,0,,7,,,55,127
51983,note_off,0,0,0,,12,,,59,127
51985,note_on,2,0,0,,10,,,57,127
51985,note_on,0,0,0,,6,,,54,127
52100,note_off,115,0,0,,6,,,54,127
52100,note_off,0,0,0,,10,,,57,127
52102,note_on,2,0,0,,12,,,59,127
52102,note_on,0,0,0,,7,,,55,127
52217,note_off,115,0,0,,12,,,71,127
52217,note_off,0,0,0,,2,,,74,127
52219,note_on,2,0,0,,10,,,69,127
52219,note_on,0,0,0,,0,,,72,127
52334,note_off,115,0,0,,0,,,72,127
52334,note_off,0,0,0,,10,,,69,127
52334,note_off,0,0,0,,7,,,55,127
52334,note_off,0,0,0,,12,,,59,127
52336,note_on,2,0,0,,12,,,71,127
52336,note_on,0,0,0,,7,,,67,127
52336,note_on,0,0,0,,10,,,57,127
52336,note_on,0,0,0,,2,,,50,127
52451,note_off,115,0,0,,7,,,67,127
52451,note_off,0,0,0,,12,,,71,127
52453,note_on,2,0,0,,10,,,69,127
52453,note_on,0,0,0,,6,,,66,127
52568,note_off,115,0,0,,6,,,66,127
52568,note_off,0,0,0,,10,,,69,127
52568,note_off,0,0,0,,2,,,50,127
52568,note_off,0,0,0,,10,,,57,127
52570,note_on,2,0,0,,12,,,71,127
52570,note_on,0,0,0,,2,,,74,127
52570,note_on,0,0,0,,12,,,59,127
52570,note_on,0,0,0,,2,,,62,127
52685,note_off,115,0,0,,2,,,62,127
52685,note_off,0,0,0,,12,,,59,127
52687,note_on,2,0,0,,0,,,60,127
52687,note_on,0,0,0,,10,,,57,127
52802,note_off,115,0,0,,10,,,57,127
52802,note_off,0,0,0,,0,,,60,127
52804,note_on,2,0,0,,7,,,55,127
52804,note_on,0,0,0,,12,,,59,127
52919,note_off,115,0,0,,12,,,59,127
52919,note_off,0,0,0,,7,,,55,127
52921,note_on,2,0,0,,6,,,54,127
52921,note_on,0,0,0,,10,,,57,127
53036,note_off,115,0,0,,10,,,57,127
53036,note_off,0,0,0,,6,,,54,127
53038,note_on,2,0,0,,12,,,59,127
53038,note_on,0,0,0,,7,,,55,127
53153,note_off,115,0,0,,2,,,74,127
53153,note_off,0,0,0,,12,,,71,127
53155,note_on,2,0,0,,0,,,72,127
53270,note_off,115,0,0,,0,,,72,127
53270,note_off,0,0,0,,12,,,59,127
53272,note_on,2,0,0,,12,,,71,127
53272,note_on,0,0,0,,7,,,43,127
53387,note_off,115,0,0,,12,,,71,127
53389,note_on,2,0,0,,0,,,72,127
53502,note_off,113,0,0,,7,,,55,127
53504,note_off,2,0,0,,0,,,72,127
53506,note_on,2,0,0,,2,,,74,127
53621,note_off,115,0,0,,2,,,74,127
53623,note_off,2,0,0,,7,,,43,127
53623,note_on,0,0,0,,4,,,76,127
53738,note_off,115,0,0,,4,,,76,127
53740,note_on,2,0,0,,4,,,76,127
53740,note_on,0,0,0,,0,,,60,127
53855,note_off,115,0,0,,4,,,76,127
53857,note_on,2,0,0,,7,,,67,127
53972,note_off,115,0,0,,7,,,67,127
53972,note_off,0,0,0,,0,,,60,127
53974,note_on,2,0,0,,6,,,66,127
53974,note_on,0,0,0,,2,,,62,127
54089,note_off,115,0,0,,6,,,66,127
54091,note_on,2,0,0,,7,,,67,127
54206,note_off,115,0,0,,7,,,67,127
54208,note_on,2,0,0,,10,,,69,127
54208,note_on,0,0,0,,2,,,50,127
54323,note_off,115,0,0,,10,,,69,127
54325,note_on,2,0,0,,12,,,71,127
54438,note_off,113,0,0,,2,,,62,127
54440,note_off,2,0,0,,12,,,71,127
54442,note_on,2,0,0,,0,,,72,127
54557,note_off,115,0,0,,0,,,72,127
54559,note_off,2,0,0,,2,,,50,127
54559,note_on,0,0,0,,2,,,74,127
54674,note_off,115,0,0,,2,,,74,127
54676,note_on,2,0,0,,2,,,74,127
54676,note_on,0,0,0,,12,,,59,127
54791,note_off,115,0,0,,2,,,74,127
54793,note_on,2,0,0,,6,,,66,127
54908,note_off,115,0,0,,6,,,66,127
54908,note_off,0,0,0,,12,,,59,127
54910,note_on,2,0,0,,4,,,64,127
54910,note_on,0,0,0,,0,,,60,127
55025,note_off,115,0,0,,4,,,64,127
55027,note_on,2,0,0,,6,,,66,127
55142,note_off,115,0,0,,6,,,66,127
55144,note_on,2,0,0,,7,,,67,127
55144,note_on,0,0,0,,0,,,48,127
55259,note_off,115,0,0,,7,,,67,127
55261,note_on,2,0,0,,10,,,69,127
55374,note_off,113,0,0,,0,,,60,127
55376,note_off,2,0,0,,10,,,69,127
55378,note_on,2,0,0,,12,,,71,127
55493,note_off,115,0,0,,12,,,71,127
55495,note_off,2,0,0,,0,,,48,127
55495,note_on,0,0,0,,0,,,72,127
55610,note_off,115,0,0,,0,,,72,127
55612,note_on,2,0,0,,0,,,72,127
55612,note_on,0,0,0,,10,,,57,127
55727,note_off,115,0,0,,0,,,72,127
55729,note_on,2,0,0,,4,,,64,127
55844,note_off,115,0,0,,4,,,64,127
55844,note_off,0,0,0,,10,,,57,127
55846,note_on,2,0,0,,2,,,62,127
55846,note_on,0,0,0,,12,,,59,127
55961,note_off,115,0,0,,2,,,62,127
55963,note_on,2,0,0,,4,,,64,127
56078,note_off,115,0,0,,4,,,64,127
56080,note_on,2,0,0,,6,,,66,127
56080,note_on,0,0,0,,12,,,47,127
56195,note_off,115,0,0,,6,,,66,127
56197,note_on,2,0,0,,7,,,67,127
56310,note_off,113,0,0,,12,,,59,127
56312,note_off,2,0,0,,7,,,67,127
56314,note_on,2,0,0,,10,,,69,127
56429,note_off,115,0,0,,10,,,69,127
56431,note_off,2,0,0,,12,,,47,127
56431,note_on,0,0,0,,12,,,71,127
56546,note_off,115,0,0,,12,,,71,127
56548,note_on,2,0,0,,12,,,71,127
56548,note_on,0,0,0,,7,,,55,127
56663,note_off,115,0,0,,12,,,71,127
56665,note_on,2,0,0,,2,,,62,127
56780,note_off,115,0,0,,2,,,62,127
56780,note_off,0,0,0,,7,,,55,127
56782,note_on,2,0,0,,0,,,60,127
56782,note_on,0,0,0,,10,,,57,127
56897,note_off,115,0,0,,0,,,60,127
56899,note_on,2,0,0,,2,,,62,127
57014,note_off,115,0,0,,2,,,62,127
57016,note_on,2,0,0,,4,,,64,127
57016,note_on,0,0,0,,10,,,45,127
57131,note_off,115,0,0,,4,,,64,127
57133,note_on,2,0,0,,6,,,66,127
57246,note_off,113,0,0,,10,,,57,127
57248,note_off,2,0,0,,6,,,66,127
57250,note_on,2,0,0,,7,,,67,127
57365,note_off,115,0,0,,7,,,67,127
57367,note_off,2,0,0,,10,,,45,127
57367,note_on,0,0,0,,10,,,69,127
57482,note_off,115,0,0,,10,,,69,127
57484,note_on,2,0,0,,10,,,69,127
57484,note_on,0,0,0,,2,,,50,127
57599,note_off,115,0,0,,10,,,69,127
57601,note_on,2,0,0,,0,,,60,127
57716,note_off,115,0,0,,0,,,60,127
57716,note_off,0,0,0,,2,,,50,127
57718,note_on,2,0,0,,12,,,59,127
57718,note_on,0,0,0,,7,,,55,127
57833,note_off,115,0,0,,7,,,55,127
57835,note_on,2,0,0,,10,,,57,127
57950,note_off,115,0,0,,10,,,57,127
57950,note_off,0,0,0,,12,,,59,127
57952,note_on,2,0,0,,2,,,74,127
57952,note_on,0,0,0,,12,,,59,127
58067,note_off,115,0,0,,12,,,59,127
58069,note_on,2,0,0,,0,,,60,127
58184,note_off,115,0,0,,0,,,60,127
58186,note_on,2,0,0,,2,,,62,127
58301,note_off,115,0,0,,2,,,62,127
58303,note_on,2,0,0,,4,,,64,127
58418,note_off,115,0,0,,4,,,64,127
58418,note_off,0,0,0,,2,,,74,127
58420,note_on,2,0,0,,7,,,79,127
58420,note_on,0,0,0,,4,,,64,127
58535,note_off,115,0,0,,4,,,64,127
58537,note_on,2,0,0,,7,,,55,127
58652,note_off,115,0,0,,7,,,55,127
58652,note_off,0,0,0,,7,,,79,127
58654,note_on,2,0,0,,10,,,69,127
58654,note_on,0,0,0,,6,,,54,127
58769,note_off,115,0,0,,6,,,54,127
58771,note_on,2,0,0,,7,,,55,127
58886,note_off,115,0,0,,7,,,55,127
58888,note_on,2,0,0,,10,,,57,127
59003,note_off,115,0,0,,10,,,57,127
59005,note_on,2,0,0,,12,,,59,127
59120,note_off,115,0,0,,12,,,59,127
59122,note_on,2,0,0,,0,,,60,127
59237,note_off,115,0,0,,0,,,60,127
59239,note_on,2,0,0,,2,,,62,127
59354,note_off,115,0,0,,2,,,62,127
59354,note_off,0,0,0,,10,,,69,127
59356,note_on,2,0,0,,6,,,78,127
59356,note_on,0,0,0,,2,,,62,127
59471,note_off,115,0,0,,2,,,62,127
59473,note_on,2,0,0,,6,,,54,127
59588,note_off,115,0,0,,6,,,54,127
59588,note_off,0,0,0,,6,,,78,127
59590,note_on,2,0,0,,7,,,67,127
59590,note_on,0,0,0,,4,,,52,127
59705,note_off,115,0,0,,4,,,52,127
59707,note_on,2,0,0,,6,,,54,127
59822,note_off,115,0,0,,6,,,54,127
59824,note_on,2,0,0,,7,,,55,127
59939,note_off,115,0,0,,7,,,55,127
59941,note_on,2,0,0,,10,,,57,127
60056,note_off,115,0,0,,10,,,57,127
60058,note_on,2,0,0,,12,,,59,127
60173,note_off,115,0,0,,12,,,59,127
60175,note_on,2,0,0,,0,,,60,127
60290,note_off,115,0,0,,0,,,60,127
60290,note_off,0,0,0,,7,,,67,127
60292,note_on,2,0,0,,4,,,76,127
60292,note_on,0,0,0,,0,,,60,127
60407,note_off,115,0,0,,0,,,60,127
60409,note_on,2,0,0,,4,,,52,127
60524,note_off,115,0,0,,4,,,52,127
60524,note_off,0,0,0,,4,,,76,127
60526,note_on,2,0,0,,6,,,66,127
60526,note_on,0,0,0,,2,,,50,127
60641,note_off,115,0,0,,2,,,50,127
60643,note_on,2,0,0,,4,,,52,127
60758,note_off,115,0,0,,4,,,52,127
60760,note_on,2,0,0,,6,,,54,127
60875,note_off,115,0,0,,6,,,54,127
60877,note_on,2,0,0,,7,,,55,127
60992,note_off,115,0,0,,7,,,55,127
60994,note_on,2,0,0,,10,,,57,127
61109,note_off,115,0,0,,10,,,57,127
61111,note_on,2,0,0,,12,,,59,127
61226,note_off,115,0,0,,12,,,59,127
61226,note_off,0,0,0,,6,,,66,127
61228,note_on,2,0,0,,2,,,74,127
61228,note_on,0,0,0,,12,,,59,127
61343,note_off,115,0,0,,12,,,59,127
61345,note_on,2,0,0,,2,,,50,127
61460,note_off,115,0,0,,2,,,50,127
61460,note_off,0,0,0,,2,,,74,127
61462,note_on,2,0,0,,4,,,64,127
61462,note_on,0,0,0,,0,,,48,127
61577,note_off,115,0,0,,0,,,48,127
61579,note_on,2,0,0,,2,,,50,127
61694,note_off,115,0,0,,2,,,50,127
61696,note_on,2,0,0,,4,,,52,127
61811,note_off,115,0,0,,4,,,52,127
61813,note_on,2,0,0,,6,,,54,127
61928,note_off,115,0,0,,6,,,54,127
61930,note_on,2,0,0,,7,,,55,127
62045,note_off,115,0,0,,7,,,55,127
62047,note_on,2,0,0,,10,,,57,127
62162,note_off,115,0,0,,10,,,57,127
62162,note_off,0,0,0,,4,,,64,127
62164,note_on,2,0,0,,0,,,72,127
62164,note_on,0,0,0,,10,,,57,127
62279,note_off,115,0,0,,10,,,57,127
62281,note_on,2,0,0,,0,,,48,127
62396,note_off,115,0,0,,0,,,48,127
62396,note_off,0,0,0,,0,,,72,127
62398,note_on,2,0,0,,2,,,62,127
62398,note_on,0,0,0,,12,,,47,127
62513,note_off,115,0,0,,2,,,62,127
62515,note_on,2,0,0,,4,,,76,127
62630,note_off,115,0,0,,4,,,76,127
62632,note_on,2,0,0,,2,,,74,127
62747,note_off,115,0,0,,2,,,74,127
62749,note_on,2,0,0,,0,,,72,127
62864,note_off,115,0,0,,0,,,72,127
62866,note_on,2,0,0,,12,,,71,127
62981,note_off,115,0,0,,12,,,71,127
62983,note_off,2,0,0,,12,,,47,127
62983,note_on,0,0,0,,10,,,69,127
63098,note_off,115,0,0,,10,,,69,127
63100,note_on,2,0,0,,2,,,74,127
63100,note_on,0,0,0,,7,,,67,127
63100,note_on,0,0,0,,12,,,59,127
63215,note_off,115,0,0,,7,,,67,127
63217,note_on,2,0,0,,6,,,66,127
63332,note_off,115,0,0,,6,,,66,127
63332,note_off,0,0,0,,12,,,59,127
63334,note_on,2,0,0,,4,,,64,127
63334,note_on,0,0,0,,0,,,60,127
63449,note_off,115,0,0,,2,,,74,127
63451,note_on,2,0,0,,0,,,72,127
63566,note_off,115,0,0,,0,,,72,127
63566,note_off,0,0,0,,4,,,64,127
63568,note_on,2,0,0,,12,,,71,127
63568,note_on,0,0,0,,0,,,48,127
63683,note_off,115,0,0,,12,,,71,127
63685,note_on,2,0,0,,10,,,69,127
63798,note_off,113,0,0,,0,,,60,127
63800,note_off,2,0,0,,10,,,69,127
63800,note_off,0,0,0,,0,,,48,127
63802,note_on,2,0,0,,12,,,71,127
63802,note_on,0,0,0,,2,,,62,127
63802,note_on,0,0,0,,2,,,50,127
63917,note_off,115,0,0,,12,,,71,127
63919,note_on,2,0,0,,7,,,67,127
64034,note_off,115,0,0,,7,,,67,127
64034,note_off,0,0,0,,2,,,62,127
64036,note_on,2,0,0,,10,,,69,127
64036,note_on,0,0,0,,2,,,38,127
64151,note_off,115,0,0,,10,,,69,127
64153,note_on,2,0,0,,6,,,66,127
64266,note_off,113,0,0,,2,,,50,127
64268,note_off,2,0,0,,6,,,66,127
64268,note_off,0,0,0,,2,,,38,127
64270,note_on,2,0,0,,7,,,67,127
64270,note_on,0,0,0,,7,,,43,127
64385,note_off,115,0,0,,7,,,67,127
64387,note_on,2,0,0,,2,,,86,127
64502,note_off,115,0,0,,2,,,86,127
64504,note_on,2,0,0,,12,,,83,127
64619,note_off,115,0,0,,12,,,83,127
64621,note_on,2,0,0,,7,,,79,127
64736,note_off,115,0,0,,7,,,79,127
64738,note_on,2,0,0,,2,,,74,127
64853,note_off,115,0,0,,2,,,74,127
64855,note_on,2,0,0,,12,,,71,127
64970,note_off,115,0,0,,12,,,71,127
64972,note_on,2,0,0,,7,,,67,127
65087,note_off,115,0,0,,7,,,67,127
65089,note_on,2,0,0,,2,,,62,127
65204,note_off,115,0,0,,2,,,62,127
65204,note_off,0,0,0,,7,,,43,127
65206,note_on,2,0,0,,12,,,59,127
65321,note_off,115,0,0,,12,,,59,127
65323,note_on,2,0,0,,7,,,55,127
65438,note_off,115,0,0,,7,,,55,127
65440,note_on,2,0,0,,2,,,50,127
65555,note_off,115,0,0,,2,,,50,127
65557,note_on,2,0,0,,12,,,47,127
65672,note_off,115,0,0,,12,,,47,127
65674,note_on,2,0,0,,7,,,43,127
65792,note_on,118,0,0,,1,,,85,127
65907,note_off,115,0,0,,1,,,85,127
65907,note_off,0,0,0,,7,,,43,127
65909,note_on,2,0,0,,2,,,86,127
65909,note_on,0,0,0,,12,,,47,127
66027,note_on,118,0,0,,2,,,74,127
66142,note_off,115,0,0,,2,,,74,127
66142,note_off,0,0,0,,12,,,47,127
66144,note_on,2,0,0,,4,,,76,127
66144,note_on,0,0,0,,0,,,48,127
66259,note_off,115,0,0,,2,,,86,127
66261,note_on,2,0,0,,12,,,83,127
66376,note_off,115,0,0,,12,,,83,127
66376,note_off,0,0,0,,0,,,48,127
66376,note_off,0,0,0,,4,,,76,127
66378,note_on,2,0,0,,0,,,84,127
66378,note_on,0,0,0,,0,,,60,127
66493,note_off,115,0,0,,0,,,84,127
66495,note_on,2,0,0,,10,,,81,127
66610,note_off,115,0,0,,10,,,81,127
66610,note_off,0,0,0,,0,,,60,127
66612,note_on,2,0,0,,7,,,79,127
66612,note_on,0,0,0,,2,,,62,127
66845,note_off,233,0,0,,2,,,62,127
66845,note_off,0,0,0,,7,,,79,127
66847,note_on,2,0,0,,7,,,79,127
66847,note_on,0,0,0,,0,,,60,127
66903,note_off,56,0,0,,7,,,79,127
66905,note_on,2,0,0,,6,,,78,127
66961,note_off,56,0,0,,6,,,78,127
66963,note_on,2,0,0,,4,,,76,127
67019,note_off,56,0,0,,4,,,76,127
67021,note_on,2,0,0,,6,,,78,127
67077,note_off,56,0,0,,6,,,78,127
67077,note_off,0,0,0,,0,,,60,127
67079,note_on,2,0,0,,7,,,79,127
67079,note_on,0,0,0,,12,,,59,127
67194,note_off,115,0,0,,7,,,79,127
67196,note_on,2,0,0,,2,,,86,127
67311,note_off,115,0,0,,2,,,86,127
67313,note_on,2,0,0,,12,,,83,127
67428,note_off,115,0,0,,12,,,83,127
67430,note_on,2,0,0,,7,,,79,127
67545,note_off,115,0,0,,7,,,79,127
67547,note_on,2,0,0,,2,,,74,127
67662,note_off,115,0,0,,2,,,74,127
67664,note_on,2,0,0,,12,,,71,127
67779,note_off,115,0,0,,12,,,71,127
67781,note_on,2,0,0,,7,,,67,127
67896,note_off,115,0,0,,7,,,67,127
67898,note_on,2,0,0,,2,,,62,127
68013,note_off,115,0,0,,2,,,62,127
68013,note_off,0,0,0,,12,,,59,127
68015,note_on,2,0,0,,12,,,59,127
68130,note_off,115,0,0,,12,,,59,127
68132,note_on,2,0,0,,7,,,55,127
68247,note_off,115,0,0,,7,,,55,127
68249,note_on,2,0,0,,2,,,50,127
68364,note_off,115,0,0,,2,,,50,127
68366,note_on,2,0,0,,12,,,47,127
68481,note_off,115,0,0,,12,,,47,127
68483,note_on,2,0,0,,7,,,43,127
68601,note_on,118,0,0,,1,,,85,127
68716,note_off,115,0,0,,1,,,85,127
68716,note_off,0,0,0,,7,,,43,127
68718,note_on,2,0,0,,2,,,86,127
68718,note_on,0,0,0,,12,,,47,127
68836,note_on,118,0,0,,2,,,74,127
68951,note_off,115,0,0,,2,,,74,127
68951,note_off,0,0,0,,12,,,47,127
68953,note_on,2,0,0,,4,,,76,127
68953,note_on,0,0,0,,0,,,48,127
69068,note_off,115,0,0,,2,,,86,127
69070,note_on,2,0,0,,12,,,83,127
69185,note_off,115,0,0,,12,,,83,127
69185,note_off,0,0,0,,0,,,48,127
69185,note_off,0,0,0,,4,,,76,127
69187,note_on,2,0,0,,0,,,84,127
69187,note_on,0,0,0,,0,,,60,127
69302,note_off,115,0,0,,0,,,84,127
69304,note_on,2,0,0,,10,,,81,127
69419,note_off,115,0,0,,10,,,81,127
69419,note_off,0,0,0,,0,,,60,127
69421,note_on,2,0,0,,7,,,79,127
69421,note_on,0,0,0,,2,,,62,127
69654,note_off,233,0,0,,2,,,62,127
69654,note_off,0,0,0,,7,,,79,127
69656,note_on,2,0,0,,7,,,79,127
69656,note_on,0,0,0,,0,,,60,127
69712,note_off,56,0,0,,7,,,79,127
69714,note_on,2,0,0,,6,,,78,127
69770,note_off,56,0,0,,6,,,78,127
69772,note_on,2,0,0,,4,,,76,127
69828,note_off,56,0,0,,4,,,76,127
69830,note_on,2,0,0,,6,,,78,127
69886,note_off,56,0,0,,6,,,78,127
69886,note_off,0,0,0,,0,,,60,127
69928,note_on,42,0,0,,7,,,43,127
69928,note_on,0,0,0,,7,,,67,127
70162,note_off,234,0,0,,7,,,67,127
70162,note_off,0,0,0,,7,,,43,127
70166,note_on,4,0,0,,7,,,55,127
70166,note_on,0,0,0,,7,,,79,127
70281,note_off,115,0,0,,7,,,79,127
70285,note_on,4,0,0,,2,,,74,127
70400,note_off,115,0,0,,2,,,74,127
70400,note_off,0,0,0,,7,,,55,127
70404,note_on,4,0,0,,6,,,54,127
70404,note_on,0,0,0,,2,,,74,127
70519,note_off,115,0,0,,2,,,74,127
70523,note_on,4,0,0,,4,,,76,127
70638,note_off,115,0,0,,4,,,76,127
70638,note_off,0,0,0,,6,,,54,127
70642,note_on,4,0,0,,2,,,50,127
70642,note_on,0,0,0,,2,,,74,127
70757,note_off,115,0,0,,2,,,74,127
70761,note_on,4,0,0,,0,,,72,127
70876,note_off,115,0,0,,0,,,72,127
70876,note_off,0,0,0,,2,,,50,127
70880,note_on,4,0,0,,7,,,55,127
70880,note_on,0,0,0,,0,,,72,127
70995,note_off,115,0,0,,0,,,72,127
70999,note_on,4,0,0,,2,,,74,127
71114,note_off,115,0,0,,2,,,74,127
71114,note_off,0,0,0,,7,,,55,127
71118,note_on,4,0,0,,12,,,47,127
71118,note_on,0,0,0,,0,,,72,127
71233,note_off,115,0,0,,0,,,72,127
71237,note_on,4,0,0,,12,,,71,127
71352,note_off,115,0,0,,12,,,71,127
71352,note_off,0,0,0,,12,,,47,127
71354,note_on,2,0,0,,0,,,48,127
71354,note_on,0,0,0,,12,,,71,127
71469,note_off,115,0,0,,12,,,71,127
71473,note_on,4,0,0,,10,,,69,127
71588,note_off,115,0,0,,10,,,69,127
71588,note_off,0,0,0,,0,,,48,127
71592,note_on,4,0,0,,2,,,50,127
71592,note_on,0,0,0,,7,,,67,127
71707,note_off,115,0,0,,7,,,67,127
71711,note_on,4,0,0,,6,,,66,127
71826,note_off,115,0,0,,6,,,66,127
71826,note_off,0,0,0,,2,,,50,127
71841,note_on,15,0,0,,7,,,43,127
71841,note_on,0,0,0,,7,,,55,127
72076,note_off,235,0,0,,7,,,55,127
72076,note_off,0,0,0,,7,,,43,127
72082,note_on,6,0,0,,7,,,55,127
72082,note_on,0,0,0,,7,,,67,127
72197,note_off,115,0,0,,7,,,67,127
72203,note_on,6,0,0,,2,,,62,127
72318,note_off,115,0,0,,2,,,62,127
72324,note_on,6,0,0,,2,,,62,127
72439,note_off,115,0,0,,2,,,62,127
72445,note_on,6,0,0,,4,,,64,127
72556,note_off,111,0,0,,7,,,55,127
72560,note_off,4,0,0,,4,,,64,127
72566,note_on,6,0,0,,6,,,54,127
72566,note_on,0,0,0,,2,,,62,127
72681,note_off,115,0,0,,2,,,62,127
72687,note_on,6,0,0,,0,,,60,127
72801,note_off,114,0,0,,6,,,54,127
72802,note_off,1,0,0,,0,,,60,127
72808,note_on,6,0,0,,7,,,55,127
72808,note_on,0,0,0,,0,,,60,127
72923,note_off,115,0,0,,0,,,60,127
72929,note_on,6,0,0,,2,,,62,127
73043,note_off,114,0,0,,7,,,55,127
73044,note_off,1,0,0,,2,,,62,127
73050,note_on,6,0,0,,12,,,47,127
73050,note_on,0,0,0,,0,,,60,127
73165,note_off,115,0,0,,0,,,60,127
73171,note_on,6,0,0,,12,,,59,127
73285,note_off,114,0,0,,12,,,47,127
73286,note_off,1,0,0,,12,,,59,127
73292,note_on,6,0,0,,0,,,48,127
73292,note_on,0,0,0,,12,,,59,127
73407,note_off,115,0,0,,12,,,59,127
73413,note_on,6,0,0,,10,,,57,127
73527,note_off,114,0,0,,0,,,48,127
73528,note_off,1,0,0,,10,,,57,127
73534,note_on,6,0,0,,2,,,50,127
73534,note_on,0,0,0,,7,,,55,127
73649,note_off,115,0,0,,7,,,55,127
73655,note_on,6,0,0,,6,,,54,127
73769,note_off,114,0,0,,2,,,50,127
73785,note_off,16,0,0,,6,,,54,127
73800,note_on,15,0,0,,7,,,43,127
73800,note_on,0,0,0,,7,,,55,127
75714,note_off,1914,0,0,,7,,,55,127
75714,note_off,0,0,0,,7,,,43,127
76800,end_of_track,1086,1,0,,,,,,
