tick,type,time,meta,track,program,channel,pitch,tempo,note,velocity
0,copyright,0,1,0,,,,,,
0,program_change,0,0,0,6,0,,,,
0,pitchwheel,0,0,0,,0,0,,,
0,program_change,0,0,0,6,1,,,,
0,pitchwheel,0,0,0,,1,-590,,,
0,program_change,0,0,0,6,2,,,,
0,pitchwheel,0,0,0,,2,-272,,,
0,program_change,0,0,0,6,3,,,,
0,pitchwheel,0,0,0,,3,-353,,,
0,program_change,0,0,0,6,4,,,,
0,pitchwheel,0,0,0,,4,-560,,,
0,program_change,0,0,0,6,5,,,,
0,pitchwheel,0,0,0,,5,-80,,,
0,program_change,0,0,0,6,6,,,,
0,pitchwheel,0,0,0,,6,-625,,,
0,program_change,0,0,0,6,7,,,,
0,pitchwheel,0,0,0,,7,-130,,,
0,program_change,0,0,0,6,8,,,,
0,pitchwheel,0,0,0,,8,-512,,,
0,program_change,0,0,0,6,10,,,,
0,pitchwheel,0,0,0,,10,-464,,,
0,program_change,0,0,0,6,11,,,,
0,pitchwheel,0,0,0,,11,-208,,,
0,program_change,0,0,0,6,12,,,,
0,pitchwheel,0,0,0,,12,-553,,,
0,set_tempo,0,1,0,,,,500000,,
110,note_on,110,0,0,,7,,,55,127
110,note_on,0,0,0,,2,,,74,127
219,note_off,109,0,0,,7,,,55,127
220,note_on,1,0,0,,10,,,57,127
329,note_off,109,0,0,,10,,,57,127
330,note_on,1,0,0,,12,,,59,127
439,note_off,109,0,0,,12,,,59,127
440,note_on,1,0,0,,0,,,60,127
549,note_off,109,0,0,,0,,,60,127
550,note_on,1,0,0,,2,,,62,127
659,note_off,109,0,0,,2,,,62,127
660,note_on,1,0,0,,4,,,64,127
769,note_off,109,0,0,,4,,,64,127
769,note_off,0,0,0,,2,,,74,127
770,note_on,1,0,0,,6,,,66,127
770,note_on,0,0,0,,2,,,74,127
879,note_off,109,0,0,,6,,,66,127
880,note_on,1,0,0,,7,,,67,127
989,note_off,109,0,0,,7,,,67,127
990,note_on,1,0,0,,10,,,69,127
1099,note_off,109,0,0,,10,,,69,127
1100,note_on,1,0,0,,12,,,71,127
1209,note_off,109,0,0,,12,,,71,127
1210,note_on,1,0,0,,0,,,72,127
1319,note_off,109,0,0,,0,,,72,127
1320,note_on,1,0,0,,10,,,69,127
1429,note_off,109,0,0,,10,,,69,127
1429,note_off,0,0,0,,2,,,74,127
1430,note_on,1,0,0,,12,,,71,127
1430,note_on,0,0,0,,2,,,74,127
1539,note_off,109,0,0,,12,,,71,127
1540,note_on,1,0,0,,10,,,69,127
1649,note_off,109,0,0,,10,,,69,127
1650,note_on,1,0,0,,7,,,67,127
1759,note_off,109,0,0,,7,,,67,127
1760,note_on,1,0,0,,6,,,66,127
1869,note_off,109,0,0,,6,,,66,127
1870,note_on,1,0,0,,4,,,64,127
1979,note_off,109,0,0,,4,,,64,127
1980,note_on,1,0,0,,2,,,62,127
2089,note_off,109,0,0,,2,,,62,127
2089,note_off,0,0,0,,2,,,74,127
2090,note_on,1,0,0,,0,,,60,127
2090,note_on,0,0,0,,4,,,76,127
2199,note_off,109,0,0,,4,,,76,127
2200,note_on,1,0,0,,0,,,72,127
2309,note_off,109,0,0,,0,,,72,127
2309,note_off,0,0,0,,0,,,60,127
2310,note_on,1,0,0,,2,,,62,127
2310,note_on,0,0,0,,12,,,71,127
2419,note_off,109,0,0,,12,,,71,127
2420,note_on,1,0,0,,10,,,69,127
2529,note_off,109,0,0,,10,,,69,127
2529,note_off,0,0,0,,2,,,62,127
2530,note_on,1,0,0,,2,,,50,127
2530,note_on,0,0,0,,7,,,67,127
2639,note_off,109,0,0,,7,,,67,127
2640,note_on,1,0,0,,6,,,66,127
2749,note_off,109,0,0,,6,,,66,127
2749,note_off,0,0,0,,2,,,50,127
2750,note_on,1,0,0,,7,,,55,127
2750,note_on,0,0,0,,2,,,74,127
2859,note_off,109,0,0,,7,,,55,127
2860,note_on,1,0,0,,10,,,57,127
2969,note_off,109,0,0,,10,,,57,127
2970,note_on,1,0,0,,12,,,59,127
3079,note_off,109,0,0,,12,,,59,127
3080,note_on,1,0,0,,0,,,60,127
3189,note_off,109,0,0,,0,,,60,127
3190,note_on,1,0,0,,2,,,62,127
3299,note_off,109,0,0,,2,,,62,127
3300,note_on,1,0,0,,4,,,64,127
3409,note_off,109,0,0,,4,,,64,127
3409,note_off,0,0,0,,2,,,74,127
3410,note_on,1,0,0,,6,,,66,127
3410,note_on,0,0,0,,2,,,74,127
3519,note_off,109,0,0,,6,,,66,127
3520,note_on,1,0,0,,7,,,67,127
3629,note_off,109,0,0,,7,,,67,127
3630,note_on,1,0,0,,10,,,69,127
3739,note_off,109,0,0,,10,,,69,127
3740,note_on,1,0,0,,12,,,71,127
3849,note_off,109,0,0,,12,,,71,127
3850,note_on,1,0,0,,0,,,72,127
3959,note_off,109,0,0,,0,,,72,127
3960,note_on,1,0,0,,10,,,69,127
4069,note_off,109,0,0,,10,,,69,127
4069,note_off,0,0,0,,2,,,74,127
4070,note_on,1,0,0,,12,,,71,127
4070,note_on,0,0,0,,2,,,74,127
4179,note_off,109,0,0,,12,,,71,127
4180,note_on,1,0,0,,10,,,69,127
4289,note_off,109,0,0,,10,,,69,127
4290,note_on,1,0,0,,7,,,67,127
4399,note_off,109,0,0,,7,,,67,127
4400,note_on,1,0,0,,6,,,66,127
4509,note_off,109,0,0,,6,,,66,127
4510,note_on,1,0,0,,4,,,64,127
4619,note_off,109,0,0,,4,,,64,127
4620,note_on,1,0,0,,2,,,62,127
4729,note_off,109,0,0,,2,,,62,127
4729,note_off,0,0,0,,2,,,74,127
4730,note_on,1,0,0,,0,,,60,127
4730,note_on,0,0,0,,4,,,76,127
4839,note_off,109,0,0,,4,,,76,127
4840,note_on,1,0,0,,0,,,72,127
4949,note_off,109,0,0,,0,,,72,127
4949,note_off,0,0,0,,0,,,60,127
4950,note_on,1,0,0,,2,,,62,127
4950,note_on,0,0,0,,12,,,71,127
5059,note_off,109,0,0,,12,,,71,127
5060,note_on,1,0,0,,10,,,69,127
5169,note_off,109,0,0,,10,,,69,127
5169,note_off,0,0,0,,2,,,62,127
5170,note_on,1,0,0,,2,,,50,127
5170,note_on,0,0,0,,7,,,67,127
5279,note_off,109,0,0,,7,,,67,127
5280,note_on,1,0,0,,6,,,66,127
5389,note_off,109,0,0,,6,,,66,127
5389,note_off,0,0,0,,2,,,50,127
5390,note_on,1,0,0,,7,,,55,127
5390,note_on,0,0,0,,7,,,67,127
5499,note_off,109,0,0,,7,,,67,127
5500,note_on,1,0,0,,10,,,69,127
5609,note_off,109,0,0,,10,,,69,127
5610,note_on,1,0,0,,12,,,71,127
5719,note_off,109,0,0,,12,,,71,127
5720,note_on,1,0,0,,0,,,72,127
5829,note_off,109,0,0,,0,,,72,127
5830,note_on,1,0,0,,2,,,74,127
5939,note_off,109,0,0,,2,,,74,127
5940,note_on,1,0,0,,4,,,76,127
6049,note_off,109,0,0,,4,,,76,127
6049,note_off,0,0,0,,7,,,55,127
6050,note_on,1,0,0,,2,,,50,127
6050,note_on,0,0,0,,6,,,78,127
6159,note_off,109,0,0,,6,,,78,127
6160,note_on,1,0,0,,7,,,79,127
6269,note_off,109,0,0,,7,,,79,127
6270,note_on,1,0,0,,10,,,81,127
6379,note_off,109,0,0,,10,,,81,127
6380,note_on,1,0,0,,0,,,72,127
6485,note_off,105,0,0,,2,,,50,127
6488,note_off,3,0,0,,0,,,72,127
6489,note_on,1,0,0,,12,,,71,127
6598,note_off,109,0,0,,12,,,71,127
6599,note_on,1,0,0,,10,,,69,127
6708,note_off,109,0,0,,10,,,69,127
6709,note_on,1,0,0,,7,,,55,127
6709,note_on,0,0,0,,12,,,71,127
6818,note_off,109,0,0,,7,,,55,127
6819,note_on,1,0,0,,10,,,57,127
6928,note_off,109,0,0,,10,,,57,127
6929,note_on,1,0,0,,12,,,59,127
7038,note_off,109,0,0,,12,,,59,127
7039,note_on,1,0,0,,0,,,60,127
7148,note_off,109,0,0,,0,,,60,127
7149,note_on,1,0,0,,2,,,62,127
7258,note_off,109,0,0,,2,,,62,127
7259,note_on,1,0,0,,4,,,64,127
7368,note_off,109,0,0,,4,,,64,127
7368,note_off,0,0,0,,12,,,71,127
7369,note_on,1,0,0,,6,,,66,127
7369,note_on,0,0,0,,10,,,69,127
7478,note_off,109,0,0,,6,,,66,127
7479,note_on,1,0,0,,7,,,67,127
7588,note_off,109,0,0,,7,,,67,127
7588,note_off,0,0,0,,10,,,69,127
7589,note_on,1,0,0,,10,,,69,127
7699,note_on,110,0,0,,0,,,60,127
7808,note_off,109,0,0,,0,,,60,127
7809,note_on,1,0,0,,12,,,59,127
7918,note_off,109,0,0,,12,,,59,127
7919,note_off,1,0,0,,10,,,69,127
7919,note_on,0,0,0,,10,,,57,127
8028,note_off,109,0,0,,10,,,57,127
8029,note_on,1,0,0,,12,,,59,127
8139,note_on,110,0,0,,2,,,74,127
8248,note_off,109,0,0,,2,,,74,127
8249,note_on,1,0,0,,0,,,72,127
8358,note_off,109,0,0,,0,,,72,127
8359,note_on,1,0,0,,12,,,71,127
8468,note_off,109,0,0,,12,,,71,127
8469,note_on,1,0,0,,0,,,72,127
8578,note_off,109,0,0,,0,,,72,127
8579,note_on,1,0,0,,2,,,74,127
8688,note_off,109,0,0,,2,,,74,127
8688,note_off,0,0,0,,12,,,59,127
8689,note_on,1,0,0,,0,,,60,127
8689,note_on,0,0,0,,4,,,76,127
8798,note_off,109,0,0,,4,,,76,127
8799,note_on,1,0,0,,2,,,74,127
8908,note_off,109,0,0,,2,,,74,127
8909,note_on,1,0,0,,0,,,72,127
9018,note_off,109,0,0,,0,,,72,127
9019,note_on,1,0,0,,12,,,71,127
9128,note_off,109,0,0,,12,,,71,127
9129,note_on,1,0,0,,10,,,69,127
9238,note_off,109,0,0,,10,,,69,127
9239,note_on,1,0,0,,7,,,67,127
9348,note_off,109,0,0,,7,,,67,127
9348,note_off,0,0,0,,0,,,60,127
9349,note_on,1,0,0,,6,,,66,127
9459,note_on,110,0,0,,2,,,62,127
9568,note_off,109,0,0,,2,,,62,127
9569,note_on,1,0,0,,0,,,60,127
9678,note_off,109,0,0,,0,,,60,127
9679,note_on,1,0,0,,12,,,59,127
9788,note_off,109,0,0,,12,,,59,127
9789,note_on,1,0,0,,0,,,60,127
9898,note_off,109,0,0,,0,,,60,127
9899,note_on,1,0,0,,2,,,62,127
10008,note_off,109,0,0,,2,,,62,127
10008,note_off,0,0,0,,6,,,66,127
10009,note_on,1,0,0,,4,,,64,127
10009,note_on,0,0,0,,7,,,67,127
10118,note_off,109,0,0,,4,,,64,127
10119,note_on,1,0,0,,2,,,62,127
10228,note_off,109,0,0,,2,,,62,127
10229,note_on,1,0,0,,0,,,60,127
10338,note_off,109,0,0,,0,,,60,127
10339,note_on,1,0,0,,12,,,59,127
10448,note_off,109,0,0,,12,,,59,127
10449,note_on,1,0,0,,10,,,57,127
10558,note_off,109,0,0,,10,,,57,127
10559,note_on,1,0,0,,7,,,55,127
10668,note_off,109,0,0,,7,,,55,127
10668,note_off,0,0,0,,7,,,67,127
10669,note_on,1,0,0,,6,,,54,127
10669,note_on,0,0,0,,10,,,69,127
10778,note_off,109,0,0,,6,,,54,127
10779,note_on,1,0,0,,4,,,52,127
10888,note_off,109,0,0,,4,,,52,127
10888,note_off,0,0,0,,10,,,69,127
10889,note_on,1,0,0,,2,,,50,127
10889,note_on,0,0,0,,12,,,71,127
10998,note_off,109,0,0,,2,,,50,127
10999,note_on,1,0,0,,0,,,48,127
11108,note_off,109,0,0,,0,,,48,127
11108,note_off,0,0,0,,12,,,71,127
11109,note_on,1,0,0,,12,,,47,127
11109,note_on,0,0,0,,0,,,72,127
11218,note_off,109,0,0,,12,,,47,127
11219,note_on,1,0,0,,10,,,45,127
11328,note_off,109,0,0,,10,,,45,127
11328,note_off,0,0,0,,0,,,72,127
11329,note_on,1,0,0,,7,,,43,127
11329,note_on,0,0,0,,12,,,71,127
11438,note_off,109,0,0,,12,,,71,127
11439,note_on,1,0,0,,2,,,74,127
11548,note_off,109,0,0,,2,,,74,127
11549,note_on,1,0,0,,0,,,72,127
11658,note_off,109,0,0,,0,,,72,127
11659,note_on,1,0,0,,12,,,71,127
11768,note_off,109,0,0,,12,,,71,127
11768,note_off,0,0,0,,7,,,43,127
11769,note_on,1,0,0,,0,,,48,127
11769,note_on,0,0,0,,10,,,69,127
11878,note_off,109,0,0,,10,,,69,127
11879,note_on,1,0,0,,7,,,67,127
11988,note_off,109,0,0,,7,,,67,127
11988,note_off,0,0,0,,0,,,48,127
11989,note_on,1,0,0,,2,,,50,127
11989,note_on,0,0,0,,6,,,66,127
12207,note_off,218,0,0,,6,,,66,127
12208,note_on,1,0,0,,2,,,74,127
12317,note_off,109,0,0,,2,,,74,127
12318,note_on,1,0,0,,1,,,73,127
12427,note_off,109,0,0,,1,,,73,127
12428,note_on,1,0,0,,2,,,74,127
12537,note_off,109,0,0,,2,,,74,127
12538,note_on,1,0,0,,6,,,66,127
12647,note_off,109,0,0,,6,,,66,127
12647,note_off,0,0,0,,2,,,50,127
12648,note_on,1,0,0,,4,,,52,127
12648,note_on,0,0,0,,6,,,66,127
12757,note_off,109,0,0,,6,,,66,127
12758,note_on,1,0,0,,7,,,67,127
12867,note_off,109,0,0,,7,,,67,127
12868,note_on,1,0,0,,2,,,74,127
12977,note_off,109,0,0,,2,,,74,127
12978,note_on,1,0,0,,1,,,73,127
13087,note_off,109,0,0,,1,,,73,127
13088,note_on,1,0,0,,2,,,74,127
13197,note_off,109,0,0,,2,,,74,127
13198,note_on,1,0,0,,7,,,67,127
13307,note_off,109,0,0,,7,,,67,127
13307,note_off,0,0,0,,4,,,52,127
13308,note_on,1,0,0,,6,,,54,127
13308,note_on,0,0,0,,7,,,67,127
13417,note_off,109,0,0,,7,,,67,127
13418,note_on,1,0,0,,10,,,69,127
13527,note_off,109,0,0,,10,,,69,127
13528,note_on,1,0,0,,2,,,74,127
13637,note_off,109,0,0,,2,,,74,127
13638,note_on,1,0,0,,1,,,73,127
13747,note_off,109,0,0,,1,,,73,127
13748,note_on,1,0,0,,2,,,74,127
13857,note_off,109,0,0,,2,,,74,127
13858,note_on,1,0,0,,10,,,69,127
13967,note_off,109,0,0,,10,,,69,127
13967,note_off,0,0,0,,6,,,54,127
13968,note_on,1,0,0,,7,,,55,127
13968,note_on,0,0,0,,10,,,69,127
14077,note_off,109,0,0,,10,,,69,127
14078,note_on,1,0,0,,12,,,71,127
14187,note_off,109,0,0,,12,,,71,127
14188,note_on,1,0,0,,7,,,79,127
14297,note_off,109,0,0,,7,,,79,127
14298,note_on,1,0,0,,6,,,78,127
14407,note_off,109,0,0,,6,,,78,127
14408,note_on,1,0,0,,7,,,79,127
14517,note_off,109,0,0,,7,,,79,127
14518,note_on,1,0,0,,12,,,71,127
14627,note_off,109,0,0,,12,,,71,127
14627,note_off,0,0,0,,7,,,55,127
14628,note_on,1,0,0,,10,,,57,127
14628,note_on,0,0,0,,12,,,71,127
14737,note_off,109,0,0,,12,,,71,127
14738,note_on,1,0,0,,1,,,73,127
14847,note_off,109,0,0,,1,,,73,127
14848,note_on,1,0,0,,10,,,81,127
14957,note_off,109,0,0,,10,,,81,127
14958,note_on,1,0,0,,7,,,79,127
15067,note_off,109,0,0,,7,,,79,127
15068,note_on,1,0,0,,10,,,81,127
15177,note_off,109,0,0,,10,,,81,127
15178,note_on,1,0,0,,1,,,73,127
15287,note_off,109,0,0,,1,,,73,127
15287,note_off,0,0,0,,10,,,57,127
15288,note_on,1,0,0,,12,,,59,127
15288,note_on,0,0,0,,1,,,73,127
15397,note_off,109,0,0,,1,,,73,127
15398,note_on,1,0,0,,2,,,74,127
15507,note_off,109,0,0,,2,,,74,127
15508,note_on,1,0,0,,10,,,81,127
15617,note_off,109,0,0,,10,,,81,127
15618,note_on,1,0,0,,7,,,79,127
15727,note_off,109,0,0,,7,,,79,127
15728,note_on,1,0,0,,10,,,81,127
15837,note_off,109,0,0,,10,,,81,127
15838,note_on,1,0,0,,2,,,74,127
15947,note_off,109,0,0,,2,,,74,127
15947,note_off,0,0,0,,12,,,59,127
15948,note_on,1,0,0,,1,,,61,127
15948,note_on,0,0,0,,2,,,74,127
16057,note_off,109,0,0,,2,,,74,127
16058,note_on,1,0,0,,4,,,76,127
16167,note_off,109,0,0,,4,,,76,127
16168,note_on,1,0,0,,10,,,81,127
16277,note_off,109,0,0,,10,,,81,127
16278,note_on,1,0,0,,7,,,79,127
16387,note_off,109,0,0,,7,,,79,127
16388,note_on,1,0,0,,10,,,81,127
16497,note_off,109,0,0,,10,,,81,127
16498,note_on,1,0,0,,4,,,76,127
16607,note_off,109,0,0,,4,,,76,127
16607,note_off,0,0,0,,1,,,61,127
16608,note_on,1,0,0,,2,,,62,127
16608,note_on,0,0,0,,4,,,76,127
16717,note_off,109,0,0,,4,,,76,127
16718,note_on,1,0,0,,6,,,78,127
16827,note_off,109,0,0,,6,,,78,127
16828,note_on,1,0,0,,2,,,86,127
16937,note_off,109,0,0,,2,,,86,127
16938,note_on,1,0,0,,1,,,85,127
17047,note_off,109,0,0,,1,,,85,127
17048,note_on,1,0,0,,2,,,86,127
17157,note_off,109,0,0,,2,,,86,127
17158,note_on,1,0,0,,6,,,78,127
17267,note_off,109,0,0,,6,,,78,127
17267,note_off,0,0,0,,2,,,62,127
17268,note_on,1,0,0,,4,,,64,127
17268,note_on,0,0,0,,6,,,78,127
17377,note_off,109,0,0,,6,,,78,127
17378,note_on,1,0,0,,7,,,79,127
17487,note_off,109,0,0,,7,,,79,127
17488,note_on,1,0,0,,2,,,86,127
17597,note_off,109,0,0,,2,,,86,127
17598,note_on,1,0,0,,1,,,85,127
17707,note_off,109,0,0,,1,,,85,127
17708,note_on,1,0,0,,2,,,86,127
17817,note_off,109,0,0,,2,,,86,127
17818,note_on,1,0,0,,7,,,79,127
17927,note_off,109,0,0,,7,,,79,127
17927,note_off,0,0,0,,4,,,64,127
17928,note_on,1,0,0,,6,,,66,127
17928,note_on,0,0,0,,7,,,79,127
18037,note_off,109,0,0,,7,,,79,127
18038,note_on,1,0,0,,10,,,81,127
18147,note_off,109,0,0,,10,,,81,127
18148,note_on,1,0,0,,2,,,86,127
18257,note_off,109,0,0,,2,,,86,127
18258,note_on,1,0,0,,1,,,85,127
18367,note_off,109,0,0,,1,,,85,127
18368,note_on,1,0,0,,2,,,86,127
18477,note_off,109,0,0,,2,,,86,127
18478,note_on,1,0,0,,10,,,81,127
18587,note_off,109,0,0,,10,,,81,127
18587,note_off,0,0,0,,6,,,66,127
18588,note_on,1,0,0,,7,,,67,127
18588,note_on,0,0,0,,12,,,83,127
18698,note_on,110,0,0,,1,,,73,127
18807,note_off,109,0,0,,1,,,73,127
18807,note_off,0,0,0,,7,,,67,127
18808,note_on,1,0,0,,6,,,66,127
18808,note_on,0,0,0,,2,,,74,127
18897,note_off,89,0,0,,12,,,83,127
18918,note_on,21,0,0,,10,,,81,127
19014,note_off,96,0,0,,2,,,74,127
19027,note_off,13,0,0,,6,,,66,127
19028,note_on,1,0,0,,4,,,64,127
19028,note_on,0,0,0,,1,,,73,127
19124,note_off,96,0,0,,10,,,81,127
19138,note_on,14,0,0,,7,,,79,127
19234,note_off,96,0,0,,1,,,73,127
19247,note_off,13,0,0,,7,,,79,127
19247,note_off,0,0,0,,4,,,64,127
19248,note_on,1,0,0,,2,,,62,127
19248,note_on,0,0,0,,6,,,78,127
19358,note_on,110,0,0,,10,,,81,127
19454,note_off,96,0,0,,6,,,78,127
19467,note_off,13,0,0,,2,,,62,127
19468,note_on,1,0,0,,4,,,64,127
19468,note_on,0,0,0,,1,,,73,127
19564,note_off,96,0,0,,10,,,81,127
19578,note_on,14,0,0,,4,,,76,127
19674,note_off,96,0,0,,1,,,73,127
19687,note_off,13,0,0,,4,,,64,127
19688,note_on,1,0,0,,6,,,66,127
19688,note_on,0,0,0,,10,,,69,127
19784,note_off,96,0,0,,4,,,76,127
19798,note_on,14,0,0,,6,,,78,127
19894,note_off,96,0,0,,10,,,69,127
19907,note_off,13,0,0,,6,,,78,127
19907,note_off,0,0,0,,6,,,66,127
19908,note_on,1,0,0,,7,,,67,127
19908,note_on,0,0,0,,12,,,71,127
20018,note_on,110,0,0,,12,,,83,127
20125,note_off,107,0,0,,12,,,71,127
20126,note_off,1,0,0,,12,,,83,127
20126,note_off,0,0,0,,7,,,67,127
20127,note_on,1,0,0,,10,,,69,127
20127,note_on,0,0,0,,10,,,81,127
20236,note_off,109,0,0,,10,,,81,127
20237,note_on,1,0,0,,7,,,79,127
20346,note_off,109,0,0,,7,,,79,127
20346,note_off,0,0,0,,10,,,69,127
20347,note_on,1,0,0,,10,,,57,127
20347,note_on,0,0,0,,6,,,78,127
20456,note_off,109,0,0,,6,,,78,127
20457,note_on,1,0,0,,4,,,76,127
20566,note_off,109,0,0,,4,,,76,127
20566,note_off,0,0,0,,10,,,57,127
20567,note_on,1,0,0,,2,,,50,127
20567,note_on,0,0,0,,2,,,74,127
20785,note_off,218,0,0,,2,,,50,127
20786,note_on,1,0,0,,2,,,62,127
20895,note_off,109,0,0,,2,,,62,127
20896,note_on,1,0,0,,1,,,61,127
21005,note_off,109,0,0,,1,,,61,127
21006,note_on,1,0,0,,2,,,62,127
21115,note_off,109,0,0,,2,,,62,127
21116,note_on,1,0,0,,2,,,50,127
21225,note_off,109,0,0,,2,,,50,127
21226,note_on,1,0,0,,2,,,50,127
21335,note_off,109,0,0,,2,,,50,127
21336,note_on,1,0,0,,4,,,52,127
21445,note_off,109,0,0,,4,,,52,127
21446,note_on,1,0,0,,2,,,62,127
21555,note_off,109,0,0,,2,,,62,127
21556,note_on,1,0,0,,1,,,61,127
21665,note_off,109,0,0,,1,,,61,127
21666,note_on,1,0,0,,2,,,62,127
21775,note_off,109,0,0,,2,,,62,127
21776,note_on,1,0,0,,4,,,52,127
21885,note_off,109,0,0,,4,,,52,127
21886,note_on,1,0,0,,4,,,52,127
21995,note_off,109,0,0,,4,,,52,127
21996,note_on,1,0,0,,6,,,54,127
22105,note_off,109,0,0,,6,,,54,127
22106,note_on,1,0,0,,2,,,62,127
22215,note_off,109,0,0,,2,,,62,127
22216,note_on,1,0,0,,1,,,61,127
22325,note_off,109,0,0,,1,,,61,127
22326,note_on,1,0,0,,2,,,62,127
22435,note_off,109,0,0,,2,,,62,127
22436,note_on,1,0,0,,6,,,54,127
22537,note_off,101,0,0,,2,,,74,127
22545,note_off,8,0,0,,6,,,54,127
22546,note_on,1,0,0,,7,,,55,127
22656,note_on,110,0,0,,12,,,83,127
22656,note_on,0,0,0,,7,,,79,127
22765,note_off,109,0,0,,7,,,79,127
22765,note_off,0,0,0,,12,,,83,127
22765,note_off,0,0,0,,7,,,55,127
22766,note_on,1,0,0,,10,,,57,127
22766,note_on,0,0,0,,6,,,78,127
22766,note_on,0,0,0,,10,,,81,127
22875,note_off,109,0,0,,10,,,81,127
22875,note_off,0,0,0,,6,,,78,127
22876,note_on,1,0,0,,7,,,79,127
22876,note_on,0,0,0,,4,,,76,127
22985,note_off,109,0,0,,4,,,76,127
22985,note_off,0,0,0,,7,,,79,127
22986,note_on,1,0,0,,10,,,45,127
22986,note_on,0,0,0,,6,,,78,127
22986,note_on,0,0,0,,2,,,74,127
23095,note_off,109,0,0,,2,,,74,127
23095,note_off,0,0,0,,6,,,78,127
23096,note_on,1,0,0,,4,,,76,127
23096,note_on,0,0,0,,1,,,73,127
23201,note_off,105,0,0,,10,,,57,127
23204,note_off,3,0,0,,1,,,73,127
23204,note_off,0,0,0,,4,,,76,127
23204,note_off,0,0,0,,10,,,45,127
23205,note_on,1,0,0,,2,,,50,127
23205,note_on,0,0,0,,2,,,74,127
23423,note_off,218,0,0,,2,,,50,127
23424,note_on,1,0,0,,2,,,62,127
23533,note_off,109,0,0,,2,,,62,127
23534,note_on,1,0,0,,1,,,61,127
23643,note_off,109,0,0,,1,,,61,127
23644,note_on,1,0,0,,2,,,62,127
23753,note_off,109,0,0,,2,,,62,127
23754,note_on,1,0,0,,2,,,50,127
23863,note_off,109,0,0,,2,,,50,127
23864,note_on,1,0,0,,2,,,50,127
23973,note_off,109,0,0,,2,,,50,127
23974,note_on,1,0,0,,4,,,52,127
24083,note_off,109,0,0,,4,,,52,127
24084,note_on,1,0,0,,2,,,62,127
24193,note_off,109,0,0,,2,,,62,127
24194,note_on,1,0,0,,1,,,61,127
24303,note_off,109,0,0,,1,,,61,127
24304,note_on,1,0,0,,2,,,62,127
24413,note_off,109,0,0,,2,,,62,127
24414,note_on,1,0,0,,4,,,52,127
24523,note_off,109,0,0,,4,,,52,127
24524,note_on,1,0,0,,4,,,52,127
24633,note_off,109,0,0,,4,,,52,127
24634,note_on,1,0,0,,6,,,54,127
24743,note_off,109,0,0,,6,,,54,127
24744,note_on,1,0,0,,2,,,62,127
24853,note_off,109,0,0,,2,,,62,127
24854,note_on,1,0,0,,1,,,61,127
24963,note_off,109,0,0,,1,,,61,127
24964,note_on,1,0,0,,2,,,62,127
25073,note_off,109,0,0,,2,,,62,127
25074,note_on,1,0,0,,6,,,54,127
25175,note_off,101,0,0,,2,,,74,127
25183,note_off,8,0,0,,6,,,54,127
25184,note_on,1,0,0,,7,,,55,127
25294,note_on,110,0,0,,12,,,83,127
25294,note_on,0,0,0,,7,,,79,127
25403,note_off,109,0,0,,7,,,79,127
25403,note_off,0,0,0,,12,,,83,127
25403,note_off,0,0,0,,7,,,55,127
25404,note_on,1,0,0,,10,,,57,127
25404,note_on,0,0,0,,6,,,78,127
25404,note_on,0,0,0,,10,,,81,127
25513,note_off,109,0,0,,10,,,81,127
25513,note_off,0,0,0,,6,,,78,127
25514,note_on,1,0,0,,4,,,76,127
25514,note_on,0,0,0,,7,,,79,127
25623,note_off,109,0,0,,7,,,79,127
25623,note_off,0,0,0,,4,,,76,127
25624,note_on,1,0,0,,10,,,45,127
25624,note_on,0,0,0,,6,,,78,127
25624,note_on,0,0,0,,2,,,74,127
25733,note_off,109,0,0,,2,,,74,127
25733,note_off,0,0,0,,6,,,78,127
25734,note_on,1,0,0,,1,,,73,127
25734,note_on,0,0,0,,4,,,76,127
25839,note_off,105,0,0,,10,,,57,127
25842,note_off,3,0,0,,4,,,76,127
25842,note_off,0,0,0,,1,,,73,127
25842,note_off,0,0,0,,10,,,45,127
25843,note_on,1,0,0,,2,,,50,127
25843,note_on,0,0,0,,2,,,74,127
25843,note_on,0,0,0,,6,,,78,127
25952,note_off,109,0,0,,6,,,78,127
25953,note_on,1,0,0,,10,,,81,127
26060,note_off,107,0,0,,2,,,74,127
26061,note_off,1,0,0,,10,,,81,127
26061,note_off,0,0,0,,2,,,50,127
26062,note_on,1,0,0,,4,,,52,127
26062,note_on,0,0,0,,1,,,73,127
26172,note_on,110,0,0,,4,,,76,127
26279,note_off,107,0,0,,1,,,73,127
26280,note_off,1,0,0,,4,,,52,127
26281,note_on,1,0,0,,6,,,54,127
26281,note_on,0,0,0,,10,,,69,127
26388,note_off,107,0,0,,4,,,76,127
26390,note_on,2,0,0,,6,,,78,127
26497,note_off,107,0,0,,10,,,69,127
26498,note_off,1,0,0,,6,,,54,127
26499,note_on,1,0,0,,7,,,55,127
26499,note_on,0,0,0,,12,,,71,127
26606,note_off,107,0,0,,6,,,78,127
26608,note_on,2,0,0,,7,,,79,127
26715,note_off,107,0,0,,12,,,71,127
26716,note_off,1,0,0,,7,,,79,127
26716,note_off,0,0,0,,7,,,55,127
26717,note_on,1,0,0,,10,,,57,127
26717,note_on,0,0,0,,6,,,78,127
26826,note_off,109,0,0,,6,,,78,127
26827,note_on,1,0,0,,4,,,76,127
26936,note_off,109,0,0,,4,,,76,127
26937,note_on,1,0,0,,10,,,45,127
26937,note_on,0,0,0,,2,,,74,127
27046,note_off,109,0,0,,2,,,74,127
27047,note_on,1,0,0,,1,,,73,127
27152,note_off,105,0,0,,10,,,57,127
27155,note_off,3,0,0,,1,,,73,127
27155,note_off,0,0,0,,10,,,45,127
27156,note_on,1,0,0,,2,,,50,127
27156,note_on,0,0,0,,2,,,74,127
27266,note_on,110,0,0,,6,,,78,127
27373,note_off,107,0,0,,2,,,74,127
27374,note_off,1,0,0,,2,,,50,127
27375,note_on,1,0,0,,4,,,52,127
27375,note_on,0,0,0,,7,,,67,127
27482,note_off,107,0,0,,6,,,78,127
27484,note_on,2,0,0,,4,,,76,127
27591,note_off,107,0,0,,7,,,67,127
27592,note_off,1,0,0,,4,,,52,127
27593,note_on,1,0,0,,6,,,54,127
27593,note_on,0,0,0,,6,,,66,127
27700,note_off,107,0,0,,4,,,76,127
27702,note_on,2,0,0,,2,,,74,127
27809,note_off,107,0,0,,6,,,66,127
27810,note_off,1,0,0,,6,,,54,127
27811,note_on,1,0,0,,7,,,55,127
27811,note_on,0,0,0,,4,,,64,127
27918,note_off,107,0,0,,2,,,74,127
27919,note_off,1,0,0,,4,,,64,127
27920,note_on,1,0,0,,7,,,67,127
27920,note_on,0,0,0,,12,,,71,127
28029,note_off,109,0,0,,12,,,71,127
28029,note_off,0,0,0,,7,,,67,127
28029,note_off,0,0,0,,7,,,55,127
28030,note_on,1,0,0,,10,,,57,127
28030,note_on,0,0,0,,6,,,66,127
28030,note_on,0,0,0,,10,,,69,127
28139,note_off,109,0,0,,10,,,69,127
28139,note_off,0,0,0,,6,,,66,127
28140,note_on,1,0,0,,4,,,64,127
28140,note_on,0,0,0,,7,,,67,127
28249,note_off,109,0,0,,7,,,67,127
28249,note_off,0,0,0,,4,,,64,127
28250,note_on,1,0,0,,10,,,45,127
28250,note_on,0,0,0,,6,,,66,127
28250,note_on,0,0,0,,2,,,62,127
28359,note_off,109,0,0,,2,,,62,127
28359,note_off,0,0,0,,6,,,66,127
28360,note_off,1,0,0,,10,,,57,127
28360,note_on,0,0,0,,4,,,64,127
28360,note_on,0,0,0,,1,,,61,127
28469,note_off,109,0,0,,1,,,61,127
28469,note_off,0,0,0,,4,,,64,127
28469,note_off,0,0,0,,10,,,45,127
28470,note_on,1,0,0,,2,,,38,127
28470,note_on,0,0,0,,2,,,62,127
28904,note_off,434,0,0,,2,,,62,127
29127,note_off,223,0,0,,2,,,38,127
29128,note_on,1,0,0,,2,,,50,127
29128,note_on,0,0,0,,2,,,74,127
29237,note_off,109,0,0,,2,,,50,127
29238,note_on,1,0,0,,4,,,52,127
29347,note_off,109,0,0,,4,,,52,127
29348,note_on,1,0,0,,6,,,54,127
29457,note_off,109,0,0,,6,,,54,127
29458,note_on,1,0,0,,7,,,55,127
29567,note_off,109,0,0,,7,,,55,127
29568,note_on,1,0,0,,10,,,57,127
29677,note_off,109,0,0,,10,,,57,127
29678,note_on,1,0,0,,12,,,59,127
29787,note_off,109,0,0,,12,,,59,127
29787,note_off,0,0,0,,2,,,74,127
29788,note_on,1,0,0,,0,,,60,127
29788,note_on,0,0,0,,2,,,74,127
29897,note_off,109,0,0,,0,,,60,127
29898,note_on,1,0,0,,2,,,62,127
30007,note_off,109,0,0,,2,,,62,127
30008,note_on,1,0,0,,4,,,64,127
30117,note_off,109,0,0,,4,,,64,127
30118,note_on,1,0,0,,6,,,66,127
30227,note_off,109,0,0,,6,,,66,127
30228,note_on,1,0,0,,7,,,67,127
30337,note_off,109,0,0,,7,,,67,127
30338,note_on,1,0,0,,10,,,69,127
30447,note_off,109,0,0,,10,,,69,127
30447,note_off,0,0,0,,2,,,74,127
30448,note_on,1,0,0,,12,,,71,127
30558,note_on,110,0,0,,2,,,74,127
30667,note_off,109,0,0,,2,,,74,127
30667,note_off,0,0,0,,12,,,71,127
30668,note_on,1,0,0,,10,,,69,127
30668,note_on,0,0,0,,0,,,72,127
30777,note_off,109,0,0,,0,,,72,127
30778,note_on,1,0,0,,12,,,71,127
30887,note_off,109,0,0,,12,,,71,127
30887,note_off,0,0,0,,10,,,69,127
30888,note_on,1,0,0,,7,,,67,127
30888,note_on,0,0,0,,0,,,72,127
30997,note_off,109,0,0,,0,,,72,127
30998,note_on,1,0,0,,2,,,74,127
31107,note_off,109,0,0,,2,,,74,127
31107,note_off,0,0,0,,7,,,67,127
31108,note_on,1,0,0,,0,,,60,127
31108,note_on,0,0,0,,4,,,76,127
31217,note_off,109,0,0,,4,,,76,127
31218,note_on,1,0,0,,2,,,74,127
31327,note_off,109,0,0,,2,,,74,127
31327,note_off,0,0,0,,0,,,60,127
31328,note_on,1,0,0,,12,,,59,127
31328,note_on,0,0,0,,0,,,72,127
31437,note_off,109,0,0,,0,,,72,127
31438,note_on,1,0,0,,2,,,74,127
31547,note_off,109,0,0,,2,,,74,127
31547,note_off,0,0,0,,12,,,59,127
31548,note_on,1,0,0,,10,,,57,127
31548,note_on,0,0,0,,4,,,76,127
31657,note_off,109,0,0,,4,,,76,127
31658,note_on,1,0,0,,6,,,78,127
31767,note_off,109,0,0,,6,,,78,127
31767,note_off,0,0,0,,10,,,57,127
31768,note_on,1,0,0,,7,,,55,127
31768,note_on,0,0,0,,7,,,79,127
31877,note_off,109,0,0,,7,,,79,127
31878,note_on,1,0,0,,2,,,74,127
31987,note_off,109,0,0,,2,,,74,127
31988,note_on,1,0,0,,12,,,71,127
32097,note_off,109,0,0,,12,,,71,127
32098,note_on,1,0,0,,7,,,67,127
32207,note_off,109,0,0,,7,,,67,127
32208,note_on,1,0,0,,2,,,62,127
32317,note_off,109,0,0,,2,,,62,127
32318,note_on,1,0,0,,12,,,59,127
32427,note_off,109,0,0,,12,,,59,127
32427,note_off,0,0,0,,7,,,55,127
32428,note_on,1,0,0,,7,,,43,127
32647,note_on,219,0,0,,7,,,79,127
32756,note_off,109,0,0,,7,,,79,127
32757,note_on,1,0,0,,6,,,78,127
32862,note_off,105,0,0,,7,,,43,127
32865,note_off,3,0,0,,6,,,78,127
32866,note_on,1,0,0,,7,,,79,127
32975,note_off,109,0,0,,7,,,79,127
32976,note_on,1,0,0,,12,,,71,127
33085,note_off,109,0,0,,12,,,71,127
33086,note_on,1,0,0,,2,,,62,127
33086,note_on,0,0,0,,12,,,71,127
33195,note_off,109,0,0,,12,,,71,127
33196,note_on,1,0,0,,10,,,69,127
33305,note_off,109,0,0,,10,,,69,127
33306,note_on,1,0,0,,6,,,78,127
33415,note_off,109,0,0,,6,,,78,127
33416,note_on,1,0,0,,4,,,76,127
33525,note_off,109,0,0,,4,,,76,127
33525,note_off,0,0,0,,2,,,62,127
33526,note_on,1,0,0,,3,,,63,127
33526,note_on,0,0,0,,6,,,78,127
33635,note_off,109,0,0,,6,,,78,127
33636,note_on,1,0,0,,10,,,69,127
33745,note_off,109,0,0,,10,,,69,127
33745,note_off,0,0,0,,3,,,63,127
33746,note_on,1,0,0,,4,,,64,127
33746,note_on,0,0,0,,10,,,69,127
33855,note_off,109,0,0,,10,,,69,127
33856,note_on,1,0,0,,7,,,67,127
33965,note_off,109,0,0,,7,,,67,127
33966,note_on,1,0,0,,4,,,76,127
34075,note_off,109,0,0,,4,,,76,127
34076,note_on,1,0,0,,3,,,75,127
34185,note_off,109,0,0,,3,,,75,127
34185,note_off,0,0,0,,4,,,64,127
34186,note_on,1,0,0,,7,,,55,127
34186,note_on,0,0,0,,4,,,76,127
34295,note_off,109,0,0,,4,,,76,127
34296,note_on,1,0,0,,7,,,67,127
34405,note_off,109,0,0,,7,,,67,127
34405,note_off,0,0,0,,7,,,55,127
34406,note_on,1,0,0,,10,,,57,127
34406,note_on,0,0,0,,7,,,67,127
34515,note_off,109,0,0,,7,,,67,127
34516,note_on,1,0,0,,6,,,66,127
34625,note_off,109,0,0,,6,,,66,127
34626,note_on,1,0,0,,0,,,72,127
34735,note_off,109,0,0,,0,,,72,127
34736,note_on,1,0,0,,12,,,71,127
34845,note_off,109,0,0,,12,,,71,127
34845,note_off,0,0,0,,10,,,57,127
34846,note_on,1,0,0,,12,,,59,127
34846,note_on,0,0,0,,0,,,72,127
34955,note_off,109,0,0,,0,,,72,127
34956,note_on,1,0,0,,6,,,66,127
35065,note_off,109,0,0,,6,,,66,127
35065,note_off,0,0,0,,12,,,59,127
35066,note_on,1,0,0,,0,,,60,127
35066,note_on,0,0,0,,6,,,66,127
35175,note_off,109,0,0,,6,,,66,127
35176,note_on,1,0,0,,4,,,64,127
35285,note_off,109,0,0,,4,,,64,127
35286,note_on,1,0,0,,0,,,72,127
35395,note_off,109,0,0,,0,,,72,127
35396,note_on,1,0,0,,12,,,71,127
35505,note_off,109,0,0,,12,,,71,127
35505,note_off,0,0,0,,0,,,60,127
35506,note_on,1,0,0,,0,,,48,127
35506,note_on,0,0,0,,0,,,72,127
35615,note_off,109,0,0,,0,,,72,127
35616,note_on,1,0,0,,4,,,64,127
35725,note_off,109,0,0,,4,,,64,127
35725,note_off,0,0,0,,0,,,48,127
35726,note_on,1,0,0,,12,,,47,127
35726,note_on,0,0,0,,4,,,64,127
35944,note_off,218,0,0,,4,,,64,127
35944,note_off,0,0,0,,12,,,47,127
35945,note_on,1,0,0,,12,,,59,127
35945,note_on,0,0,0,,3,,,63,127
36054,note_off,109,0,0,,12,,,59,127
36055,note_on,1,0,0,,10,,,57,127
36164,note_off,109,0,0,,10,,,57,127
36165,note_on,1,0,0,,12,,,59,127
36274,note_off,109,0,0,,12,,,59,127
36275,note_on,1,0,0,,12,,,47,127
36384,note_off,109,0,0,,12,,,47,127
36384,note_off,0,0,0,,3,,,63,127
36385,note_on,1,0,0,,12,,,47,127
36494,note_off,109,0,0,,12,,,47,127
36495,note_on,1,0,0,,1,,,49,127
36604,note_off,109,0,0,,1,,,49,127
36605,note_on,1,0,0,,12,,,59,127
36714,note_off,109,0,0,,12,,,59,127
36715,note_on,1,0,0,,10,,,57,127
36824,note_off,109,0,0,,10,,,57,127
36825,note_on,1,0,0,,12,,,59,127
36934,note_off,109,0,0,,12,,,59,127
36935,note_on,1,0,0,,1,,,49,127
37044,note_off,109,0,0,,1,,,49,127
37045,note_on,1,0,0,,1,,,49,127
37154,note_off,109,0,0,,1,,,49,127
37155,note_on,1,0,0,,3,,,51,127
37264,note_off,109,0,0,,3,,,51,127
37265,note_on,1,0,0,,12,,,59,127
37374,note_off,109,0,0,,12,,,59,127
37375,note_on,1,0,0,,10,,,57,127
37484,note_off,109,0,0,,10,,,57,127
37485,note_on,1,0,0,,12,,,59,127
37594,note_off,109,0,0,,12,,,59,127
37595,note_on,1,0,0,,3,,,51,127
37704,note_off,109,0,0,,3,,,51,127
37705,note_on,1,0,0,,4,,,52,127
37815,note_on,110,0,0,,12,,,83,127
37924,note_off,109,0,0,,12,,,83,127
37924,note_off,0,0,0,,4,,,52,127
37925,note_on,1,0,0,,6,,,54,127
37925,note_on,0,0,0,,3,,,75,127
38034,note_off,109,0,0,,3,,,75,127
38035,note_on,1,0,0,,6,,,78,127
38144,note_off,109,0,0,,6,,,78,127
38144,note_off,0,0,0,,6,,,54,127
38145,note_on,1,0,0,,7,,,55,127
38145,note_on,0,0,0,,4,,,76,127
38254,note_off,109,0,0,,4,,,76,127
38255,note_on,1,0,0,,7,,,79,127
38364,note_off,109,0,0,,7,,,79,127
38364,note_off,0,0,0,,7,,,55,127
38365,note_on,1,0,0,,10,,,57,127
38365,note_on,0,0,0,,6,,,78,127
38474,note_off,109,0,0,,6,,,78,127
38475,note_on,1,0,0,,0,,,84,127
38475,note_on,0,0,0,,10,,,81,127
38584,note_off,109,0,0,,10,,,81,127
38584,note_off,0,0,0,,0,,,84,127
38584,note_off,0,0,0,,10,,,57,127
38585,note_on,1,0,0,,12,,,59,127
38585,note_on,0,0,0,,12,,,83,127
38585,note_on,0,0,0,,7,,,79,127
38694,note_off,109,0,0,,7,,,79,127
38694,note_off,0,0,0,,12,,,83,127
38695,note_on,1,0,0,,6,,,78,127
38695,note_on,0,0,0,,10,,,81,127
38804,note_off,109,0,0,,10,,,81,127
38804,note_off,0,0,0,,6,,,78,127
38805,note_on,1,0,0,,12,,,47,127
38805,note_on,0,0,0,,7,,,79,127
38805,note_on,0,0,0,,4,,,76,127
38914,note_off,109,0,0,,4,,,76,127
38914,note_off,0,0,0,,7,,,79,127
38915,note_on,1,0,0,,6,,,78,127
38915,note_on,0,0,0,,3,,,75,127
39020,note_off,105,0,0,,12,,,59,127
39023,note_off,3,0,0,,3,,,75,127
39023,note_off,0,0,0,,6,,,78,127
39023,note_off,0,0,0,,12,,,47,127
39024,note_on,1,0,0,,4,,,52,127
39024,note_on,0,0,0,,4,,,76,127
39242,note_off,218,0,0,,4,,,76,127
39243,note_on,1,0,0,,12,,,83,127
39243,note_on,0,0,0,,4,,,76,127
39352,note_off,109,0,0,,4,,,76,127
39353,note_on,1,0,0,,2,,,74,127
39462,note_off,109,0,0,,2,,,74,127
39463,note_on,1,0,0,,4,,,76,127
39572,note_off,109,0,0,,4,,,76,127
39573,note_on,1,0,0,,7,,,67,127
39682,note_off,109,0,0,,7,,,67,127
39682,note_off,0,0,0,,4,,,52,127
39683,note_on,1,0,0,,10,,,45,127
39683,note_on,0,0,0,,12,,,71,127
39792,note_off,109,0,0,,12,,,71,127
39793,note_on,1,0,0,,0,,,72,127
39902,note_off,109,0,0,,0,,,72,127
39902,note_off,0,0,0,,12,,,83,127
39903,note_on,1,0,0,,10,,,81,127
39903,note_on,0,0,0,,0,,,72,127
40012,note_off,109,0,0,,10,,,81,127
40013,note_on,1,0,0,,7,,,79,127
40122,note_off,109,0,0,,7,,,79,127
40123,note_on,1,0,0,,10,,,81,127
40232,note_off,109,0,0,,10,,,81,127
40233,note_on,1,0,0,,4,,,76,127
40342,note_off,109,0,0,,4,,,76,127
40342,note_off,0,0,0,,10,,,45,127
40343,note_on,1,0,0,,2,,,50,127
40343,note_on,0,0,0,,4,,,76,127
40452,note_off,109,0,0,,4,,,76,127
40453,note_on,1,0,0,,6,,,78,127
40562,note_off,109,0,0,,6,,,78,127
40562,note_off,0,0,0,,0,,,72,127
40563,note_on,1,0,0,,10,,,81,127
40563,note_on,0,0,0,,2,,,74,127
40672,note_off,109,0,0,,2,,,74,127
40673,note_on,1,0,0,,0,,,72,127
40782,note_off,109,0,0,,0,,,72,127
40783,note_on,1,0,0,,2,,,74,127
40892,note_off,109,0,0,,2,,,74,127
40893,note_on,1,0,0,,10,,,69,127
41002,note_off,109,0,0,,10,,,69,127
41002,note_off,0,0,0,,2,,,50,127
41003,note_on,1,0,0,,7,,,43,127
41003,note_on,0,0,0,,10,,,69,127
41112,note_off,109,0,0,,10,,,69,127
41113,note_on,1,0,0,,12,,,71,127
41222,note_off,109,0,0,,12,,,71,127
41222,note_off,0,0,0,,10,,,81,127
41223,note_on,1,0,0,,7,,,79,127
41223,note_on,0,0,0,,12,,,71,127
41332,note_off,109,0,0,,7,,,79,127
41333,note_on,1,0,0,,6,,,78,127
41442,note_off,109,0,0,,6,,,78,127
41443,note_on,1,0,0,,7,,,79,127
41552,note_off,109,0,0,,7,,,79,127
41553,note_on,1,0,0,,2,,,74,127
41662,note_off,109,0,0,,2,,,74,127
41662,note_off,0,0,0,,12,,,71,127
41662,note_off,0,0,0,,7,,,43,127
41663,note_on,1,0,0,,0,,,48,127
41663,note_on,0,0,0,,4,,,76,127
41772,note_off,109,0,0,,4,,,76,127
41773,note_on,1,0,0,,2,,,74,127
41882,note_off,109,0,0,,2,,,74,127
41883,note_on,1,0,0,,0,,,72,127
41992,note_off,109,0,0,,0,,,72,127
41993,note_on,1,0,0,,12,,,71,127
42102,note_off,109,0,0,,12,,,71,127
42103,note_on,1,0,0,,4,,,76,127
42212,note_off,109,0,0,,4,,,76,127
42213,note_on,1,0,0,,7,,,67,127
42322,note_off,109,0,0,,7,,,67,127
42322,note_off,0,0,0,,0,,,48,127
42323,note_on,1,0,0,,2,,,50,127
42323,note_on,0,0,0,,7,,,67,127
42541,note_off,218,0,0,,7,,,67,127
42541,note_off,0,0,0,,2,,,50,127
42542,note_on,1,0,0,,2,,,62,127
42542,note_on,0,0,0,,6,,,66,127
42651,note_off,109,0,0,,2,,,62,127
42652,note_on,1,0,0,,0,,,60,127
42761,note_off,109,0,0,,0,,,60,127
42762,note_on,1,0,0,,2,,,62,127
42871,note_off,109,0,0,,2,,,62,127
42872,note_on,1,0,0,,2,,,50,127
42981,note_off,109,0,0,,2,,,50,127
42981,note_off,0,0,0,,6,,,66,127
42982,note_on,1,0,0,,2,,,50,127
43091,note_off,109,0,0,,2,,,50,127
43092,note_on,1,0,0,,4,,,52,127
43201,note_off,109,0,0,,4,,,52,127
43202,note_on,1,0,0,,2,,,62,127
43311,note_off,109,0,0,,2,,,62,127
43312,note_on,1,0,0,,0,,,60,127
43421,note_off,109,0,0,,0,,,60,127
43422,note_on,1,0,0,,2,,,62,127
43531,note_off,109,0,0,,2,,,62,127
43532,note_on,1,0,0,,4,,,52,127
43641,note_off,109,0,0,,4,,,52,127
43642,note_on,1,0,0,,4,,,52,127
43751,note_off,109,0,0,,4,,,52,127
43752,note_on,1,0,0,,6,,,54,127
43861,note_off,109,0,0,,6,,,54,127
43862,note_on,1,0,0,,2,,,62,127
43971,note_off,109,0,0,,2,,,62,127
43972,note_on,1,0,0,,0,,,60,127
44081,note_off,109,0,0,,0,,,60,127
44082,note_on,1,0,0,,2,,,62,127
44191,note_off,109,0,0,,2,,,62,127
44192,note_on,1,0,0,,6,,,54,127
44301,note_off,109,0,0,,6,,,54,127
44302,note_on,1,0,0,,7,,,55,127
44412,note_on,110,0,0,,4,,,76,127
44521,note_off,109,0,0,,4,,,76,127
44521,note_off,0,0,0,,7,,,55,127
44522,note_on,1,0,0,,10,,,57,127
44522,note_on,0,0,0,,6,,,66,127
44631,note_off,109,0,0,,6,,,66,127
44632,note_on,1,0,0,,10,,,69,127
44741,note_off,109,0,0,,10,,,69,127
44741,note_off,0,0,0,,10,,,57,127
44742,note_on,1,0,0,,12,,,59,127
44742,note_on,0,0,0,,7,,,67,127
44851,note_off,109,0,0,,7,,,67,127
44852,note_on,1,0,0,,12,,,71,127
44961,note_off,109,0,0,,12,,,71,127
44961,note_off,0,0,0,,12,,,59,127
44962,note_on,1,0,0,,0,,,60,127
44962,note_on,0,0,0,,10,,,69,127
45071,note_off,109,0,0,,10,,,69,127
45072,note_on,1,0,0,,4,,,76,127
45072,note_on,0,0,0,,0,,,72,127
45181,note_off,109,0,0,,0,,,72,127
45181,note_off,0,0,0,,4,,,76,127
45181,note_off,0,0,0,,0,,,60,127
45182,note_on,1,0,0,,2,,,62,127
45182,note_on,0,0,0,,12,,,71,127
45182,note_on,0,0,0,,2,,,74,127
45291,note_off,109,0,0,,2,,,74,127
45291,note_off,0,0,0,,12,,,71,127
45292,note_on,1,0,0,,10,,,69,127
45292,note_on,0,0,0,,0,,,72,127
45401,note_off,109,0,0,,0,,,72,127
45401,note_off,0,0,0,,10,,,69,127
45401,note_off,0,0,0,,2,,,62,127
45402,note_on,1,0,0,,2,,,50,127
45402,note_on,0,0,0,,12,,,71,127
45402,note_on,0,0,0,,7,,,67,127
45511,note_off,109,0,0,,7,,,67,127
45511,note_off,0,0,0,,12,,,71,127
45512,note_on,1,0,0,,10,,,69,127
45512,note_on,0,0,0,,6,,,66,127
45621,note_off,109,0,0,,6,,,66,127
45621,note_off,0,0,0,,10,,,69,127
45621,note_off,0,0,0,,2,,,50,127
45622,note_on,1,0,0,,7,,,55,127
45622,note_on,0,0,0,,7,,,67,127
45840,note_off,218,0,0,,7,,,67,127
45841,note_on,1,0,0,,7,,,79,127
45950,note_off,109,0,0,,7,,,79,127
45951,note_on,1,0,0,,6,,,78,127
46060,note_off,109,0,0,,6,,,78,127
46061,note_on,1,0,0,,7,,,79,127
46170,note_off,109,0,0,,7,,,79,127
46171,note_on,1,0,0,,12,,,71,127
46280,note_off,109,0,0,,12,,,71,127
46280,note_off,0,0,0,,7,,,55,127
46281,note_on,1,0,0,,2,,,50,127
46281,note_on,0,0,0,,12,,,71,127
46390,note_off,109,0,0,,12,,,71,127
46391,note_on,1,0,0,,0,,,72,127
46500,note_off,109,0,0,,0,,,72,127
46501,note_on,1,0,0,,10,,,81,127
46610,note_off,109,0,0,,10,,,81,127
46611,note_on,1,0,0,,7,,,79,127
46720,note_off,109,0,0,,7,,,79,127
46721,note_on,1,0,0,,10,,,81,127
46830,note_off,109,0,0,,10,,,81,127
46831,note_on,1,0,0,,10,,,69,127
46940,note_off,109,0,0,,10,,,69,127
46940,note_off,0,0,0,,2,,,50,127
46941,note_on,1,0,0,,7,,,43,127
46941,note_on,0,0,0,,10,,,69,127
47050,note_off,109,0,0,,10,,,69,127
47051,note_on,1,0,0,,12,,,71,127
47160,note_off,109,0,0,,12,,,71,127
47161,note_on,1,0,0,,7,,,79,127
47270,note_off,109,0,0,,7,,,79,127
47271,note_on,1,0,0,,6,,,78,127
47380,note_off,109,0,0,,6,,,78,127
47381,note_on,1,0,0,,7,,,79,127
47490,note_off,109,0,0,,7,,,79,127
47491,note_on,1,0,0,,12,,,71,127
47600,note_off,109,0,0,,12,,,71,127
47600,note_off,0,0,0,,7,,,43,127
47601,note_on,1,0,0,,2,,,50,127
47601,note_on,0,0,0,,12,,,71,127
47710,note_off,109,0,0,,12,,,71,127
47711,note_on,1,0,0,,0,,,72,127
47820,note_off,109,0,0,,0,,,72,127
47821,note_on,1,0,0,,10,,,81,127
47930,note_off,109,0,0,,10,,,81,127
47931,note_on,1,0,0,,7,,,79,127
48040,note_off,109,0,0,,7,,,79,127
48041,note_on,1,0,0,,10,,,81,127
48150,note_off,109,0,0,,10,,,81,127
48151,note_on,1,0,0,,10,,,69,127
48260,note_off,109,0,0,,10,,,69,127
48260,note_off,0,0,0,,2,,,50,127
48261,note_on,1,0,0,,7,,,55,127
48261,note_on,0,0,0,,12,,,71,127
48371,note_on,110,0,0,,12,,,83,127
48478,note_off,107,0,0,,12,,,71,127
48479,note_off,1,0,0,,7,,,55,127
48480,note_on,1,0,0,,10,,,57,127
48480,note_on,0,0,0,,6,,,78,127
48587,note_off,107,0,0,,12,,,83,127
48589,note_on,2,0,0,,10,,,81,127
48696,note_off,107,0,0,,6,,,78,127
48697,note_off,1,0,0,,10,,,57,127
48698,note_on,1,0,0,,12,,,59,127
48698,note_on,0,0,0,,2,,,74,127
48805,note_off,107,0,0,,10,,,81,127
48807,note_on,2,0,0,,7,,,79,127
48914,note_off,107,0,0,,2,,,74,127
48915,note_off,1,0,0,,12,,,59,127
48916,note_on,1,0,0,,0,,,60,127
48916,note_on,0,0,0,,4,,,76,127
49023,note_off,107,0,0,,7,,,79,127
49025,note_on,2,0,0,,0,,,84,127
49132,note_off,107,0,0,,4,,,76,127
49133,note_off,1,0,0,,0,,,60,127
49134,note_on,1,0,0,,2,,,62,127
49134,note_on,0,0,0,,2,,,74,127
49241,note_off,107,0,0,,0,,,84,127
49243,note_on,2,0,0,,12,,,83,127
49350,note_off,107,0,0,,2,,,74,127
49351,note_off,1,0,0,,2,,,62,127
49352,note_on,1,0,0,,2,,,50,127
49352,note_on,0,0,0,,0,,,72,127
49459,note_off,107,0,0,,12,,,83,127
49461,note_on,2,0,0,,10,,,81,127
49568,note_off,107,0,0,,0,,,72,127
49569,note_off,1,0,0,,10,,,81,127
49569,note_off,0,0,0,,2,,,50,127
49570,note_on,1,0,0,,7,,,55,127
49570,note_on,0,0,0,,12,,,71,127
49788,note_off,218,0,0,,7,,,55,127
49789,note_on,1,0,0,,7,,,67,127
49898,note_off,109,0,0,,7,,,67,127
49899,note_on,1,0,0,,6,,,66,127
50008,note_off,109,0,0,,6,,,66,127
50008,note_off,0,0,0,,12,,,71,127
50009,note_on,1,0,0,,7,,,67,127
50009,note_on,0,0,0,,7,,,79,127
50118,note_off,109,0,0,,7,,,67,127
50119,note_on,1,0,0,,7,,,55,127
50228,note_off,109,0,0,,7,,,55,127
50229,note_on,1,0,0,,2,,,38,127
50338,note_off,109,0,0,,7,,,79,127
50339,note_on,1,0,0,,10,,,81,127
50448,note_off,109,0,0,,10,,,81,127
50449,note_on,1,0,0,,6,,,78,127
50559,note_on,110,0,0,,10,,,81,127
50655,note_off,96,0,0,,6,,,78,127
50669,note_on,14,0,0,,2,,,74,127
50765,note_off,96,0,0,,10,,,81,127
50779,note_on,14,0,0,,0,,,84,127
50875,note_off,96,0,0,,2,,,74,127
50888,note_off,13,0,0,,0,,,84,127
50888,note_off,0,0,0,,2,,,38,127
50889,note_on,1,0,0,,7,,,43,127
50889,note_on,0,0,0,,12,,,83,127
51107,note_off,218,0,0,,7,,,43,127
51108,note_on,1,0,0,,7,,,67,127
51217,note_off,109,0,0,,7,,,67,127
51218,note_on,1,0,0,,6,,,66,127
51327,note_off,109,0,0,,6,,,66,127
51327,note_off,0,0,0,,12,,,83,127
51328,note_on,1,0,0,,7,,,67,127
51328,note_on,0,0,0,,7,,,79,127
51437,note_off,109,0,0,,7,,,67,127
51438,note_on,1,0,0,,7,,,55,127
51547,note_off,109,0,0,,7,,,55,127
51548,note_on,1,0,0,,2,,,38,127
51657,note_off,109,0,0,,7,,,79,127
51658,note_on,1,0,0,,10,,,81,127
51767,note_off,109,0,0,,10,,,81,127
51768,note_on,1,0,0,,6,,,78,127
51878,note_on,110,0,0,,10,,,81,127
51974,note_off,96,0,0,,6,,,78,127
51988,note_on,14,0,0,,2,,,74,127
52084,note_off,96,0,0,,10,,,81,127
52098,note_on,14,0,0,,0,,,84,127
52207,note_off,109,0,0,,0,,,84,127
52207,note_off,0,0,0,,2,,,38,127
52208,note_on,1,0,0,,7,,,55,127
52208,note_on,0,0,0,,12,,,83,127
52286,note_off,78,0,0,,2,,,74,127
52318,note_on,32,0,0,,2,,,74,127
52427,note_off,109,0,0,,2,,,74,127
52427,note_off,0,0,0,,7,,,55,127
52428,note_on,1,0,0,,10,,,57,127
52428,note_on,0,0,0,,0,,,72,127
52517,note_off,89,0,0,,12,,,83,127
52538,note_on,21,0,0,,10,,,81,127
52634,note_off,96,0,0,,0,,,72,127
52647,note_off,13,0,0,,10,,,57,127
52648,note_on,1,0,0,,12,,,59,127
52648,note_on,0,0,0,,12,,,71,127
52744,note_off,96,0,0,,10,,,81,127
52758,note_on,14,0,0,,7,,,79,127
52854,note_off,96,0,0,,12,,,71,127
52867,note_off,13,0,0,,12,,,59,127
52868,note_on,1,0,0,,0,,,60,127
52868,note_on,0,0,0,,10,,,69,127
52964,note_off,96,0,0,,7,,,79,127
52977,note_off,13,0,0,,10,,,69,127
52978,note_on,1,0,0,,4,,,76,127
52978,note_on,0,0,0,,0,,,72,127
53087,note_off,109,0,0,,0,,,72,127
53087,note_off,0,0,0,,4,,,76,127
53087,note_off,0,0,0,,0,,,60,127
53088,note_on,1,0,0,,2,,,62,127
53088,note_on,0,0,0,,2,,,74,127
53088,note_on,0,0,0,,12,,,71,127
53197,note_off,109,0,0,,12,,,71,127
53197,note_off,0,0,0,,2,,,74,127
53198,note_on,1,0,0,,0,,,72,127
53198,note_on,0,0,0,,10,,,69,127
53307,note_off,109,0,0,,10,,,69,127
53307,note_off,0,0,0,,0,,,72,127
53307,note_off,0,0,0,,2,,,62,127
53308,note_on,1,0,0,,2,,,50,127
53308,note_on,0,0,0,,7,,,67,127
53308,note_on,0,0,0,,12,,,71,127
53417,note_off,109,0,0,,12,,,71,127
53417,note_off,0,0,0,,7,,,67,127
53418,note_on,1,0,0,,6,,,66,127
53418,note_on,0,0,0,,10,,,69,127
53527,note_off,109,0,0,,10,,,69,127
53527,note_off,0,0,0,,6,,,66,127
53527,note_off,0,0,0,,2,,,50,127
53528,note_on,1,0,0,,7,,,67,127
53528,note_on,0,0,0,,12,,,71,127
53528,note_on,0,0,0,,7,,,43,127
53640,note_off,112,0,0,,7,,,67,127
53643,note_on,3,0,0,,2,,,74,127
53741,note_off,98,0,0,,12,,,71,127
53754,note_off,13,0,0,,7,,,43,127
53759,note_on,5,0,0,,6,,,66,127
53759,note_on,0,0,0,,10,,,45,127
53857,note_off,98,0,0,,2,,,74,127
53874,note_on,17,0,0,,10,,,69,127
53972,note_off,98,0,0,,6,,,66,127
53985,note_off,13,0,0,,10,,,45,127
53988,note_on,3,0,0,,2,,,62,127
53988,note_on,0,0,0,,12,,,47,127
54087,note_off,99,0,0,,10,,,69,127
54103,note_on,16,0,0,,12,,,71,127
54201,note_off,98,0,0,,2,,,62,127
54214,note_off,13,0,0,,12,,,47,127
54219,note_on,5,0,0,,0,,,60,127
54219,note_on,0,0,0,,0,,,48,127
54317,note_off,98,0,0,,12,,,71,127
54334,note_on,17,0,0,,10,,,69,127
54432,note_off,98,0,0,,0,,,60,127
54445,note_off,13,0,0,,0,,,48,127
54450,note_on,5,0,0,,12,,,59,127
54450,note_on,0,0,0,,2,,,50,127
54548,note_off,98,0,0,,10,,,69,127
54564,note_on,16,0,0,,7,,,67,127
54663,note_off,99,0,0,,12,,,59,127
54676,note_off,13,0,0,,2,,,50,127
54679,note_on,3,0,0,,10,,,57,127
54679,note_on,0,0,0,,2,,,38,127
54777,note_off,98,0,0,,7,,,67,127
54794,note_on,17,0,0,,6,,,66,127
54892,note_off,98,0,0,,10,,,57,127
54905,note_off,13,0,0,,2,,,38,127
54906,note_off,1,0,0,,6,,,66,127
54923,note_on,17,0,0,,7,,,55,127
54923,note_on,0,0,0,,7,,,43,127
57366,note_off,2443,0,0,,7,,,43,127
57366,note_off,0,0,0,,7,,,55,127
61440,end_of_track,4074,1,0,,,,,,
