tick,type,time,meta,track,program,channel,pitch,tempo,note,velocity
0,copyright,0,1,0,,,,,,
0,program_change,0,0,0,6,0,,,,
0,pitchwheel,0,0,0,,0,0,,,
0,program_change,0,0,0,6,1,,,,
0,pitchwheel,0,0,0,,1,-590,,,
0,program_change,0,0,0,6,2,,,,
0,pitchwheel,0,0,0,,2,-272,,,
0,program_change,0,0,0,6,3,,,,
0,pitchwheel,0,0,0,,3,-353,,,
0,program_change,0,0,0,6,4,,,,
0,pitchwheel,0,0,0,,4,-560,,,
0,program_change,0,0,0,6,5,,,,
0,pitchwheel,0,0,0,,5,-80,,,
0,program_change,0,0,0,6,6,,,,
0,pitchwheel,0,0,0,,6,-625,,,
0,program_change,0,0,0,6,7,,,,
0,pitchwheel,0,0,0,,7,-130,,,
0,program_change,0,0,0,6,8,,,,
0,pitchwheel,0,0,0,,8,-512,,,
0,program_change,0,0,0,6,10,,,,
0,pitchwheel,0,0,0,,10,-464,,,
0,program_change,0,0,0,6,11,,,,
0,pitchwheel,0,0,0,,11,-208,,,
0,program_change,0,0,0,6,12,,,,
0,pitchwheel,0,0,0,,12,-553,,,
0,set_tempo,0,1,0,,,,500000,,
110,note_on,110,0,0,,0,,,84,127
548,note_off,438,0,0,,0,,,84,127
549,note_on,1,0,0,,7,,,79,127
987,note_off,438,0,0,,7,,,79,127
988,note_on,1,0,0,,4,,,76,127
1316,note_off,328,0,0,,4,,,76,127
1317,note_on,1,0,0,,2,,,74,127
1426,note_off,109,0,0,,2,,,74,127
1427,note_on,1,0,0,,0,,,72,127
1536,note_off,109,0,0,,0,,,72,127
1537,note_on,1,0,0,,12,,,71,127
1646,note_off,109,0,0,,12,,,71,127
1647,note_on,1,0,0,,10,,,69,127
1756,note_off,109,0,0,,10,,,69,127
1757,note_on,1,0,0,,7,,,67,127
1866,note_off,109,0,0,,7,,,67,127
1867,note_on,1,0,0,,5,,,65,127
1976,note_off,109,0,0,,5,,,65,127
1977,note_on,1,0,0,,4,,,64,127
2086,note_off,109,0,0,,4,,,64,127
2087,note_on,1,0,0,,2,,,62,127
2196,note_off,109,0,0,,2,,,62,127
2197,note_on,1,0,0,,0,,,60,127
2306,note_off,109,0,0,,0,,,60,127
2307,note_on,1,0,0,,12,,,59,127
2416,note_off,109,0,0,,12,,,59,127
2417,note_on,1,0,0,,10,,,57,127
2526,note_off,109,0,0,,10,,,57,127
2527,note_on,1,0,0,,7,,,55,127
2636,note_off,109,0,0,,7,,,55,127
2637,note_on,1,0,0,,5,,,53,127
2746,note_off,109,0,0,,5,,,53,127
2747,note_on,1,0,0,,0,,,48,127
2747,note_on,0,0,0,,4,,,52,127
2966,note_on,219,0,0,,7,,,79,127
3181,note_off,215,0,0,,4,,,52,127
3184,note_off,3,0,0,,7,,,79,127
3184,note_off,0,0,0,,0,,,48,127
3185,note_on,1,0,0,,7,,,43,127
3185,note_on,0,0,0,,10,,,81,127
3240,note_on,55,0,0,,7,,,79,127
3257,note_off,17,0,0,,10,,,81,127
3295,note_on,38,0,0,,10,,,81,127
3312,note_off,17,0,0,,7,,,79,127
3350,note_on,38,0,0,,7,,,79,127
3367,note_off,17,0,0,,10,,,81,127
3405,note_on,38,0,0,,10,,,81,127
3422,note_off,17,0,0,,7,,,79,127
3460,note_on,38,0,0,,7,,,79,127
3477,note_off,17,0,0,,10,,,81,127
3515,note_on,38,0,0,,10,,,81,127
3532,note_off,17,0,0,,7,,,79,127
3570,note_on,38,0,0,,7,,,79,127
3587,note_off,17,0,0,,10,,,81,127
3624,note_off,37,0,0,,7,,,43,127
3625,note_on,1,0,0,,0,,,48,127
3734,note_off,109,0,0,,0,,,48,127
3735,note_on,1,0,0,,12,,,47,127
3844,note_off,109,0,0,,12,,,47,127
3845,note_on,1,0,0,,0,,,48,127
3954,note_off,109,0,0,,0,,,48,127
3955,note_on,1,0,0,,2,,,50,127
4064,note_off,109,0,0,,2,,,50,127
4065,note_on,1,0,0,,4,,,52,127
4174,note_off,109,0,0,,4,,,52,127
4175,note_on,1,0,0,,5,,,53,127
4229,note_off,54,0,0,,7,,,79,127
4284,note_off,55,0,0,,5,,,53,127
4285,note_on,1,0,0,,7,,,55,127
4394,note_off,109,0,0,,7,,,55,127
4395,note_on,1,0,0,,10,,,57,127
4504,note_off,109,0,0,,10,,,57,127
4505,note_on,1,0,0,,12,,,59,127
4614,note_off,109,0,0,,12,,,59,127
4615,note_on,1,0,0,,0,,,60,127
4724,note_off,109,0,0,,0,,,60,127
4725,note_on,1,0,0,,2,,,62,127
4834,note_off,109,0,0,,2,,,62,127
4835,note_on,1,0,0,,4,,,64,127
4944,note_off,109,0,0,,4,,,64,127
4945,note_on,1,0,0,,5,,,65,127
5054,note_off,109,0,0,,5,,,65,127
5055,note_on,1,0,0,,7,,,67,127
5164,note_off,109,0,0,,7,,,67,127
5165,note_on,1,0,0,,10,,,69,127
5274,note_off,109,0,0,,10,,,69,127
5275,note_on,1,0,0,,12,,,71,127
5384,note_off,109,0,0,,12,,,71,127
5385,note_on,1,0,0,,0,,,72,127
5614,note_on,229,0,0,,7,,,79,127
5723,note_off,109,0,0,,7,,,79,127
5724,note_on,1,0,0,,10,,,81,127
5833,note_off,109,0,0,,10,,,81,127
5834,note_on,1,0,0,,7,,,79,127
5943,note_off,109,0,0,,7,,,79,127
5944,note_on,1,0,0,,5,,,77,127
6053,note_off,109,0,0,,5,,,77,127
6054,note_on,1,0,0,,4,,,76,127
6163,note_off,109,0,0,,4,,,76,127
6164,note_on,1,0,0,,2,,,74,127
6263,note_off,99,0,0,,0,,,72,127
6272,note_off,9,0,0,,2,,,74,127
6273,note_on,1,0,0,,4,,,76,127
6382,note_off,109,0,0,,4,,,76,127
6383,note_on,1,0,0,,0,,,72,127
6492,note_off,109,0,0,,0,,,72,127
6493,note_on,1,0,0,,7,,,67,127
6493,note_on,0,0,0,,4,,,76,127
6602,note_off,109,0,0,,4,,,76,127
6602,note_off,0,0,0,,7,,,67,127
6603,note_on,1,0,0,,10,,,69,127
6603,note_on,0,0,0,,5,,,77,127
6712,note_off,109,0,0,,5,,,77,127
6712,note_off,0,0,0,,10,,,69,127
6713,note_on,1,0,0,,7,,,67,127
6713,note_on,0,0,0,,4,,,76,127
6822,note_off,109,0,0,,4,,,76,127
6822,note_off,0,0,0,,7,,,67,127
6823,note_on,1,0,0,,5,,,65,127
6823,note_on,0,0,0,,2,,,74,127
6932,note_off,109,0,0,,2,,,74,127
6932,note_off,0,0,0,,5,,,65,127
6933,note_on,1,0,0,,4,,,64,127
6933,note_on,0,0,0,,0,,,72,127
7042,note_off,109,0,0,,0,,,72,127
7042,note_off,0,0,0,,4,,,64,127
7043,note_on,1,0,0,,2,,,62,127
7043,note_on,0,0,0,,12,,,71,127
7152,note_off,109,0,0,,12,,,71,127
7152,note_off,0,0,0,,2,,,62,127
7153,note_on,1,0,0,,0,,,60,127
7153,note_on,0,0,0,,0,,,72,127
7262,note_off,109,0,0,,0,,,72,127
7263,note_on,1,0,0,,7,,,67,127
7372,note_off,109,0,0,,7,,,67,127
7373,note_on,1,0,0,,7,,,79,127
7482,note_off,109,0,0,,7,,,79,127
7483,note_on,1,0,0,,10,,,81,127
7592,note_off,109,0,0,,10,,,81,127
7593,note_on,1,0,0,,7,,,79,127
7702,note_off,109,0,0,,7,,,79,127
7703,note_on,1,0,0,,5,,,77,127
7812,note_off,109,0,0,,5,,,77,127
7813,note_on,1,0,0,,4,,,76,127
7922,note_off,109,0,0,,4,,,76,127
7923,note_on,1,0,0,,2,,,74,127
8032,note_off,109,0,0,,2,,,74,127
8033,note_on,1,0,0,,4,,,76,127
8142,note_off,109,0,0,,4,,,76,127
8143,note_on,1,0,0,,0,,,72,127
8252,note_off,109,0,0,,0,,,72,127
8252,note_off,0,0,0,,0,,,60,127
8253,note_on,1,0,0,,7,,,67,127
8253,note_on,0,0,0,,4,,,76,127
8362,note_off,109,0,0,,4,,,76,127
8362,note_off,0,0,0,,7,,,67,127
8363,note_on,1,0,0,,10,,,69,127
8363,note_on,0,0,0,,5,,,77,127
8472,note_off,109,0,0,,5,,,77,127
8472,note_off,0,0,0,,10,,,69,127
8473,note_on,1,0,0,,7,,,67,127
8473,note_on,0,0,0,,4,,,76,127
8582,note_off,109,0,0,,4,,,76,127
8582,note_off,0,0,0,,7,,,67,127
8583,note_on,1,0,0,,5,,,65,127
8583,note_on,0,0,0,,2,,,74,127
8692,note_off,109,0,0,,2,,,74,127
8692,note_off,0,0,0,,5,,,65,127
8693,note_on,1,0,0,,4,,,64,127
8693,note_on,0,0,0,,0,,,72,127
8802,note_off,109,0,0,,0,,,72,127
8802,note_off,0,0,0,,4,,,64,127
8803,note_on,1,0,0,,2,,,62,127
8803,note_on,0,0,0,,12,,,71,127
8912,note_off,109,0,0,,12,,,71,127
8912,note_off,0,0,0,,2,,,62,127
8922,note_on,10,0,0,,0,,,60,127
8922,note_on,0,0,0,,0,,,72,127
9031,note_off,109,0,0,,0,,,72,127
9032,note_on,1,0,0,,12,,,71,127
9141,note_off,109,0,0,,12,,,71,127
9142,note_on,1,0,0,,0,,,72,127
9251,note_off,109,0,0,,0,,,72,127
9252,note_on,1,0,0,,7,,,67,127
9357,note_off,105,0,0,,0,,,60,127
9360,note_off,3,0,0,,7,,,67,127
9361,note_on,1,0,0,,2,,,74,127
9361,note_on,0,0,0,,5,,,77,127
9471,note_on,110,0,0,,2,,,62,127
9580,note_off,109,0,0,,2,,,62,127
9581,note_on,1,0,0,,0,,,60,127
9690,note_off,109,0,0,,0,,,60,127
9691,note_on,1,0,0,,12,,,59,127
9800,note_off,109,0,0,,12,,,59,127
9800,note_off,0,0,0,,5,,,77,127
9800,note_off,0,0,0,,2,,,74,127
9801,note_on,1,0,0,,0,,,60,127
9801,note_on,0,0,0,,4,,,76,127
9801,note_on,0,0,0,,0,,,72,127
9910,note_off,109,0,0,,0,,,60,127
9911,note_on,1,0,0,,12,,,59,127
10020,note_off,109,0,0,,12,,,59,127
10021,note_on,1,0,0,,0,,,60,127
10130,note_off,109,0,0,,0,,,60,127
10131,note_on,1,0,0,,7,,,55,127
10240,note_off,109,0,0,,7,,,55,127
10241,note_on,1,0,0,,5,,,65,127
10350,note_off,109,0,0,,0,,,72,127
10350,note_off,0,0,0,,4,,,76,127
10351,note_on,1,0,0,,2,,,74,127
10460,note_off,109,0,0,,2,,,74,127
10461,note_on,1,0,0,,0,,,72,127
10570,note_off,109,0,0,,0,,,72,127
10571,note_on,1,0,0,,12,,,71,127
10688,note_off,117,0,0,,12,,,71,127
10688,note_off,0,0,0,,5,,,65,127
10690,note_on,2,0,0,,4,,,64,127
10690,note_on,0,0,0,,0,,,72,127
10799,note_off,109,0,0,,0,,,72,127
10800,note_on,1,0,0,,12,,,71,127
10909,note_off,109,0,0,,12,,,71,127
10910,note_on,1,0,0,,0,,,72,127
11019,note_off,109,0,0,,0,,,72,127
11020,note_on,1,0,0,,7,,,67,127
11125,note_off,105,0,0,,4,,,64,127
11128,note_off,3,0,0,,7,,,67,127
11129,note_on,1,0,0,,5,,,77,127
11129,note_on,0,0,0,,2,,,74,127
11239,note_on,110,0,0,,2,,,62,127
11348,note_off,109,0,0,,2,,,62,127
11349,note_on,1,0,0,,0,,,60,127
11458,note_off,109,0,0,,0,,,60,127
11459,note_on,1,0,0,,12,,,59,127
11568,note_off,109,0,0,,12,,,59,127
11568,note_off,0,0,0,,2,,,74,127
11568,note_off,0,0,0,,5,,,77,127
11569,note_on,1,0,0,,0,,,60,127
11569,note_on,0,0,0,,4,,,76,127
11569,note_on,0,0,0,,0,,,72,127
11678,note_off,109,0,0,,0,,,60,127
11679,note_on,1,0,0,,12,,,59,127
11788,note_off,109,0,0,,12,,,59,127
11789,note_on,1,0,0,,0,,,60,127
11898,note_off,109,0,0,,0,,,60,127
11899,note_on,1,0,0,,7,,,55,127
12008,note_off,109,0,0,,7,,,55,127
12009,note_on,1,0,0,,5,,,65,127
12118,note_off,109,0,0,,0,,,72,127
12118,note_off,0,0,0,,4,,,76,127
12119,note_on,1,0,0,,2,,,74,127
12228,note_off,109,0,0,,2,,,74,127
12229,note_on,1,0,0,,0,,,72,127
12338,note_off,109,0,0,,0,,,72,127
12339,note_on,1,0,0,,12,,,71,127
12448,note_off,109,0,0,,12,,,71,127
12448,note_off,0,0,0,,5,,,65,127
12458,note_on,10,0,0,,0,,,72,127
12458,note_on,0,0,0,,4,,,64,127
12567,note_off,109,0,0,,0,,,72,127
12568,note_on,1,0,0,,7,,,67,127
12677,note_off,109,0,0,,7,,,67,127
12678,note_on,1,0,0,,0,,,72,127
12787,note_off,109,0,0,,0,,,72,127
12788,note_on,1,0,0,,2,,,74,127
12897,note_off,109,0,0,,2,,,74,127
12898,note_on,1,0,0,,4,,,76,127
13007,note_off,109,0,0,,4,,,76,127
13008,note_off,1,0,0,,4,,,64,127
13008,note_on,0,0,0,,0,,,72,127
13117,note_off,109,0,0,,0,,,72,127
13118,note_on,1,0,0,,4,,,76,127
13118,note_on,0,0,0,,0,,,60,127
13227,note_off,109,0,0,,4,,,76,127
13228,note_on,1,0,0,,6,,,78,127
13337,note_off,109,0,0,,6,,,78,127
13337,note_off,0,0,0,,0,,,60,127
13338,note_on,1,0,0,,7,,,79,127
13338,note_on,0,0,0,,12,,,59,127
13447,note_off,109,0,0,,7,,,79,127
13448,note_on,1,0,0,,2,,,74,127
13557,note_off,109,0,0,,2,,,74,127
13558,note_on,1,0,0,,4,,,76,127
13558,note_on,0,0,0,,7,,,67,127
13667,note_off,109,0,0,,4,,,76,127
13668,note_on,1,0,0,,12,,,71,127
13777,note_off,109,0,0,,12,,,71,127
13777,note_off,0,0,0,,12,,,59,127
13778,note_on,1,0,0,,2,,,74,127
13778,note_on,0,0,0,,10,,,57,127
13833,note_on,55,0,0,,0,,,72,127
13850,note_off,17,0,0,,2,,,74,127
13888,note_on,38,0,0,,2,,,74,127
13905,note_off,17,0,0,,0,,,72,127
13943,note_on,38,0,0,,0,,,72,127
13960,note_off,17,0,0,,2,,,74,127
13997,note_off,37,0,0,,7,,,67,127
13998,note_on,1,0,0,,2,,,74,127
13998,note_on,0,0,0,,6,,,66,127
14015,note_off,17,0,0,,0,,,72,127
14053,note_on,38,0,0,,0,,,72,127
14070,note_off,17,0,0,,2,,,74,127
14108,note_on,38,0,0,,12,,,71,127
14125,note_off,17,0,0,,0,,,72,127
14163,note_on,38,0,0,,0,,,72,127
14180,note_off,17,0,0,,12,,,71,127
14217,note_off,37,0,0,,6,,,66,127
14217,note_off,0,0,0,,10,,,57,127
14218,note_on,1,0,0,,12,,,71,127
14218,note_on,0,0,0,,7,,,55,127
14218,note_on,0,0,0,,7,,,67,127
14235,note_off,17,0,0,,0,,,72,127
14326,note_off,91,0,0,,12,,,71,127
14345,note_on,19,0,0,,6,,,78,127
14454,note_off,109,0,0,,6,,,78,127
14455,note_on,1,0,0,,7,,,79,127
14564,note_off,109,0,0,,7,,,79,127
14565,note_on,1,0,0,,2,,,74,127
14655,note_off,90,0,0,,7,,,55,127
14673,note_off,18,0,0,,2,,,74,127
14674,note_on,1,0,0,,0,,,60,127
14674,note_on,0,0,0,,4,,,76,127
14784,note_on,110,0,0,,6,,,78,127
14893,note_off,109,0,0,,6,,,78,127
14894,note_on,1,0,0,,7,,,79,127
15003,note_off,109,0,0,,7,,,79,127
15004,note_on,1,0,0,,0,,,72,127
15113,note_off,109,0,0,,0,,,72,127
15113,note_off,0,0,0,,4,,,76,127
15113,note_off,0,0,0,,0,,,60,127
15114,note_on,1,0,0,,12,,,59,127
15114,note_on,0,0,0,,2,,,74,127
15224,note_on,110,0,0,,6,,,78,127
15333,note_off,109,0,0,,6,,,78,127
15334,note_on,1,0,0,,7,,,79,127
15443,note_off,109,0,0,,7,,,79,127
15444,note_on,1,0,0,,12,,,71,127
15553,note_off,109,0,0,,12,,,71,127
15553,note_off,0,0,0,,2,,,74,127
15553,note_off,0,0,0,,12,,,59,127
15554,note_on,1,0,0,,10,,,57,127
15554,note_on,0,0,0,,0,,,72,127
15664,note_on,110,0,0,,6,,,78,127
15773,note_off,109,0,0,,6,,,78,127
15774,note_on,1,0,0,,7,,,79,127
15883,note_off,109,0,0,,7,,,79,127
15884,note_on,1,0,0,,10,,,69,127
15970,note_off,86,0,0,,7,,,67,127
15993,note_off,23,0,0,,10,,,69,127
15993,note_off,0,0,0,,0,,,72,127
15993,note_off,0,0,0,,10,,,57,127
15994,note_on,1,0,0,,7,,,55,127
15994,note_on,0,0,0,,12,,,71,127
16103,note_off,109,0,0,,7,,,55,127
16104,note_on,1,0,0,,6,,,66,127
16213,note_off,109,0,0,,6,,,66,127
16214,note_on,1,0,0,,7,,,67,127
16323,note_off,109,0,0,,7,,,67,127
16324,note_on,1,0,0,,2,,,62,127
16433,note_off,109,0,0,,2,,,62,127
16433,note_off,0,0,0,,12,,,71,127
16434,note_on,1,0,0,,4,,,64,127
16434,note_on,0,0,0,,10,,,81,127
16489,note_on,55,0,0,,7,,,79,127
16506,note_off,17,0,0,,10,,,81,127
16544,note_on,38,0,0,,6,,,66,127
16544,note_on,0,0,0,,10,,,81,127
16561,note_off,17,0,0,,7,,,79,127
16599,note_on,38,0,0,,7,,,79,127
16616,note_off,17,0,0,,10,,,81,127
16653,note_off,37,0,0,,6,,,66,127
16654,note_on,1,0,0,,7,,,67,127
16654,note_on,0,0,0,,10,,,81,127
16671,note_off,17,0,0,,7,,,79,127
16709,note_on,38,0,0,,7,,,79,127
16726,note_off,17,0,0,,10,,,81,127
16763,note_off,37,0,0,,7,,,67,127
16764,note_on,1,0,0,,0,,,60,127
16764,note_on,0,0,0,,10,,,81,127
16781,note_off,17,0,0,,7,,,79,127
16819,note_on,38,0,0,,7,,,79,127
16836,note_off,17,0,0,,10,,,81,127
16873,note_off,37,0,0,,0,,,60,127
16873,note_off,0,0,0,,4,,,64,127
16874,note_on,1,0,0,,2,,,62,127
16874,note_on,0,0,0,,10,,,81,127
16891,note_off,17,0,0,,7,,,79,127
16929,note_on,38,0,0,,7,,,79,127
16946,note_off,17,0,0,,10,,,81,127
16984,note_on,38,0,0,,6,,,66,127
16984,note_on,0,0,0,,10,,,81,127
17001,note_off,17,0,0,,7,,,79,127
17039,note_on,38,0,0,,7,,,79,127
17056,note_off,17,0,0,,10,,,81,127
17093,note_off,37,0,0,,6,,,66,127
17094,note_on,1,0,0,,7,,,67,127
17094,note_on,0,0,0,,10,,,81,127
17111,note_off,17,0,0,,7,,,79,127
17149,note_on,38,0,0,,7,,,79,127
17166,note_off,17,0,0,,10,,,81,127
17203,note_off,37,0,0,,7,,,67,127
17204,note_on,1,0,0,,12,,,59,127
17204,note_on,0,0,0,,10,,,81,127
17221,note_off,17,0,0,,7,,,79,127
17259,note_on,38,0,0,,7,,,79,127
17276,note_off,17,0,0,,10,,,81,127
17313,note_off,37,0,0,,12,,,59,127
17313,note_off,0,0,0,,2,,,62,127
17314,note_on,1,0,0,,0,,,60,127
17314,note_on,0,0,0,,10,,,81,127
17331,note_off,17,0,0,,7,,,79,127
17369,note_on,38,0,0,,7,,,79,127
17386,note_off,17,0,0,,10,,,81,127
17424,note_on,38,0,0,,6,,,66,127
17424,note_on,0,0,0,,10,,,81,127
17441,note_off,17,0,0,,7,,,79,127
17479,note_on,38,0,0,,7,,,79,127
17496,note_off,17,0,0,,10,,,81,127
17533,note_off,37,0,0,,6,,,66,127
17534,note_on,1,0,0,,7,,,67,127
17534,note_on,0,0,0,,10,,,81,127
17551,note_off,17,0,0,,7,,,79,127
17589,note_on,38,0,0,,7,,,79,127
17606,note_off,17,0,0,,10,,,81,127
17643,note_off,37,0,0,,7,,,67,127
17644,note_on,1,0,0,,10,,,57,127
17644,note_on,0,0,0,,10,,,81,127
17661,note_off,17,0,0,,7,,,79,127
17699,note_on,38,0,0,,7,,,79,127
17716,note_off,17,0,0,,10,,,81,127
17753,note_off,37,0,0,,10,,,57,127
17753,note_off,0,0,0,,0,,,60,127
17754,note_on,1,0,0,,12,,,59,127
17864,note_on,110,0,0,,7,,,67,127
17880,note_off,16,0,0,,12,,,59,127
17973,note_off,93,0,0,,7,,,79,127
17983,note_on,10,0,0,,10,,,57,127
17983,note_on,0,0,0,,0,,,84,127
18001,note_off,18,0,0,,7,,,67,127
18092,note_on,91,0,0,,6,,,66,127
18108,note_off,16,0,0,,10,,,57,127
18201,note_off,93,0,0,,0,,,84,127
18202,note_on,1,0,0,,7,,,55,127
18202,note_on,0,0,0,,12,,,83,127
18229,note_off,27,0,0,,6,,,66,127
18311,note_on,82,0,0,,4,,,64,127
18327,note_off,16,0,0,,7,,,55,127
18420,note_off,93,0,0,,12,,,83,127
18421,note_on,1,0,0,,6,,,54,127
18421,note_on,0,0,0,,10,,,81,127
18437,note_off,16,0,0,,4,,,64,127
18531,note_on,94,0,0,,2,,,62,127
18547,note_off,16,0,0,,6,,,54,127
18640,note_off,93,0,0,,10,,,81,127
18641,note_on,1,0,0,,4,,,52,127
18641,note_on,0,0,0,,7,,,79,127
18657,note_off,16,0,0,,2,,,62,127
18751,note_on,94,0,0,,0,,,60,127
18767,note_off,16,0,0,,4,,,52,127
18860,note_off,93,0,0,,7,,,79,127
18861,note_on,1,0,0,,2,,,50,127
18861,note_on,0,0,0,,6,,,78,127
18877,note_off,16,0,0,,0,,,60,127
18971,note_on,94,0,0,,12,,,59,127
18987,note_off,16,0,0,,2,,,50,127
19080,note_off,93,0,0,,6,,,78,127
19081,note_on,1,0,0,,0,,,48,127
19081,note_on,0,0,0,,4,,,76,127
19097,note_off,16,0,0,,12,,,59,127
19191,note_on,94,0,0,,10,,,57,127
19207,note_off,16,0,0,,0,,,48,127
19300,note_off,93,0,0,,4,,,76,127
19301,note_on,1,0,0,,12,,,47,127
19301,note_on,0,0,0,,2,,,74,127
19317,note_off,16,0,0,,10,,,57,127
19411,note_on,94,0,0,,7,,,55,127
19427,note_off,16,0,0,,12,,,47,127
19520,note_off,93,0,0,,2,,,74,127
19521,note_on,1,0,0,,10,,,45,127
19521,note_on,0,0,0,,0,,,72,127
19537,note_off,16,0,0,,7,,,55,127
19630,note_off,93,0,0,,10,,,45,127
19631,note_on,1,0,0,,6,,,54,127
19740,note_off,109,0,0,,6,,,54,127
19740,note_off,0,0,0,,0,,,72,127
19741,note_on,1,0,0,,7,,,43,127
19741,note_on,0,0,0,,12,,,71,127
19850,note_off,109,0,0,,12,,,71,127
19851,note_on,1,0,0,,10,,,69,127
19960,note_off,109,0,0,,10,,,69,127
19960,note_off,0,0,0,,7,,,43,127
19961,note_on,1,0,0,,2,,,50,127
19961,note_on,0,0,0,,12,,,71,127
20070,note_off,109,0,0,,12,,,71,127
20071,note_on,1,0,0,,7,,,67,127
20180,note_off,109,0,0,,7,,,67,127
20181,note_on,1,0,0,,2,,,38,127
20181,note_on,0,0,0,,10,,,69,127
20290,note_off,109,0,0,,10,,,69,127
20291,note_on,1,0,0,,6,,,66,127
20400,note_off,109,0,0,,6,,,66,127
20400,note_off,0,0,0,,2,,,38,127
20400,note_off,0,0,0,,2,,,50,127
20401,note_on,1,0,0,,7,,,43,127
20401,note_on,0,0,0,,7,,,67,127
20520,note_on,119,0,0,,6,,,78,127
20629,note_off,109,0,0,,6,,,78,127
20630,note_on,1,0,0,,7,,,79,127
20739,note_off,109,0,0,,7,,,79,127
20740,note_on,1,0,0,,2,,,74,127
20836,note_off,96,0,0,,7,,,67,127
20839,note_off,3,0,0,,7,,,43,127
20848,note_off,9,0,0,,2,,,74,127
20849,note_on,1,0,0,,0,,,60,127
20849,note_on,0,0,0,,4,,,76,127
20959,note_on,110,0,0,,6,,,78,127
21068,note_off,109,0,0,,6,,,78,127
21069,note_on,1,0,0,,7,,,79,127
21178,note_off,109,0,0,,7,,,79,127
21179,note_on,1,0,0,,0,,,72,127
21288,note_off,109,0,0,,0,,,72,127
21288,note_off,0,0,0,,4,,,76,127
21288,note_off,0,0,0,,0,,,60,127
21289,note_on,1,0,0,,12,,,59,127
21289,note_on,0,0,0,,2,,,74,127
21399,note_on,110,0,0,,6,,,78,127
21508,note_off,109,0,0,,6,,,78,127
21509,note_on,1,0,0,,7,,,79,127
21618,note_off,109,0,0,,7,,,79,127
21619,note_on,1,0,0,,12,,,71,127
21728,note_off,109,0,0,,12,,,71,127
21728,note_off,0,0,0,,2,,,74,127
21728,note_off,0,0,0,,12,,,59,127
21729,note_on,1,0,0,,10,,,57,127
21729,note_on,0,0,0,,0,,,72,127
21839,note_on,110,0,0,,6,,,78,127
21948,note_off,109,0,0,,6,,,78,127
21949,note_on,1,0,0,,7,,,79,127
22058,note_off,109,0,0,,7,,,79,127
22059,note_on,1,0,0,,10,,,69,127
22168,note_off,109,0,0,,10,,,69,127
22168,note_off,0,0,0,,0,,,72,127
22168,note_off,0,0,0,,10,,,57,127
22169,note_on,1,0,0,,7,,,55,127
22169,note_on,0,0,0,,12,,,71,127
22278,note_off,109,0,0,,7,,,55,127
22279,note_on,1,0,0,,6,,,66,127
22388,note_off,109,0,0,,6,,,66,127
22389,note_on,1,0,0,,7,,,67,127
22498,note_off,109,0,0,,7,,,67,127
22499,note_on,1,0,0,,2,,,62,127
22608,note_off,109,0,0,,12,,,71,127
22611,note_off,3,0,0,,2,,,62,127
22618,note_on,7,0,0,,4,,,64,127
22618,note_on,0,0,0,,10,,,81,127
22673,note_on,55,0,0,,7,,,79,127
22690,note_off,17,0,0,,10,,,81,127
22728,note_on,38,0,0,,6,,,66,127
22728,note_on,0,0,0,,10,,,81,127
22745,note_off,17,0,0,,7,,,79,127
22783,note_on,38,0,0,,7,,,79,127
22800,note_off,17,0,0,,10,,,81,127
22837,note_off,37,0,0,,6,,,66,127
22838,note_on,1,0,0,,7,,,67,127
22838,note_on,0,0,0,,10,,,81,127
22855,note_off,17,0,0,,7,,,79,127
22893,note_on,38,0,0,,7,,,79,127
22910,note_off,17,0,0,,10,,,81,127
22947,note_off,37,0,0,,7,,,67,127
22948,note_on,1,0,0,,0,,,60,127
22948,note_on,0,0,0,,10,,,81,127
22965,note_off,17,0,0,,7,,,79,127
23003,note_on,38,0,0,,7,,,79,127
23020,note_off,17,0,0,,10,,,81,127
23057,note_off,37,0,0,,0,,,60,127
23057,note_off,0,0,0,,4,,,64,127
23058,note_on,1,0,0,,2,,,62,127
23058,note_on,0,0,0,,10,,,81,127
23075,note_off,17,0,0,,7,,,79,127
23113,note_on,38,0,0,,7,,,79,127
23130,note_off,17,0,0,,10,,,81,127
23168,note_on,38,0,0,,6,,,66,127
23168,note_on,0,0,0,,10,,,81,127
23185,note_off,17,0,0,,7,,,79,127
23223,note_on,38,0,0,,7,,,79,127
23240,note_off,17,0,0,,10,,,81,127
23277,note_off,37,0,0,,6,,,66,127
23278,note_on,1,0,0,,7,,,67,127
23278,note_on,0,0,0,,10,,,81,127
23295,note_off,17,0,0,,7,,,79,127
23333,note_on,38,0,0,,7,,,79,127
23350,note_off,17,0,0,,10,,,81,127
23387,note_off,37,0,0,,7,,,67,127
23388,note_on,1,0,0,,12,,,59,127
23388,note_on,0,0,0,,10,,,81,127
23405,note_off,17,0,0,,7,,,79,127
23443,note_on,38,0,0,,7,,,79,127
23460,note_off,17,0,0,,10,,,81,127
23497,note_off,37,0,0,,12,,,59,127
23497,note_off,0,0,0,,2,,,62,127
23498,note_on,1,0,0,,0,,,60,127
23498,note_on,0,0,0,,10,,,81,127
23515,note_off,17,0,0,,7,,,79,127
23553,note_on,38,0,0,,7,,,79,127
23570,note_off,17,0,0,,10,,,81,127
23608,note_on,38,0,0,,6,,,66,127
23608,note_on,0,0,0,,10,,,81,127
23625,note_off,17,0,0,,7,,,79,127
23663,note_on,38,0,0,,7,,,79,127
23680,note_off,17,0,0,,10,,,81,127
23717,note_off,37,0,0,,6,,,66,127
23718,note_on,1,0,0,,7,,,67,127
23718,note_on,0,0,0,,10,,,81,127
23735,note_off,17,0,0,,7,,,79,127
23773,note_on,38,0,0,,7,,,79,127
23790,note_off,17,0,0,,10,,,81,127
23827,note_off,37,0,0,,7,,,67,127
23828,note_on,1,0,0,,10,,,57,127
23828,note_on,0,0,0,,10,,,81,127
23845,note_off,17,0,0,,7,,,79,127
23883,note_on,38,0,0,,7,,,79,127
23900,note_off,17,0,0,,10,,,81,127
23937,note_off,37,0,0,,10,,,57,127
23937,note_off,0,0,0,,0,,,60,127
23938,note_on,1,0,0,,12,,,59,127
24048,note_on,110,0,0,,7,,,67,127
24064,note_off,16,0,0,,12,,,59,127
24157,note_off,93,0,0,,7,,,79,127
24167,note_on,10,0,0,,10,,,57,127
24167,note_on,0,0,0,,0,,,84,127
24208,note_off,41,0,0,,7,,,67,127
24277,note_on,69,0,0,,6,,,66,127
24293,note_off,16,0,0,,10,,,57,127
24386,note_off,93,0,0,,0,,,84,127
24387,note_on,1,0,0,,7,,,55,127
24387,note_on,0,0,0,,12,,,83,127
24414,note_off,27,0,0,,6,,,66,127
24496,note_on,82,0,0,,4,,,64,127
24512,note_off,16,0,0,,7,,,55,127
24605,note_off,93,0,0,,12,,,83,127
24606,note_on,1,0,0,,6,,,54,127
24606,note_on,0,0,0,,10,,,81,127
24622,note_off,16,0,0,,4,,,64,127
24716,note_on,94,0,0,,2,,,62,127
24732,note_off,16,0,0,,6,,,54,127
24825,note_off,93,0,0,,10,,,81,127
24826,note_on,1,0,0,,4,,,52,127
24826,note_on,0,0,0,,7,,,79,127
24842,note_off,16,0,0,,2,,,62,127
24936,note_on,94,0,0,,0,,,60,127
24952,note_off,16,0,0,,4,,,52,127
25045,note_off,93,0,0,,7,,,79,127
25046,note_on,1,0,0,,2,,,50,127
25046,note_on,0,0,0,,6,,,78,127
25062,note_off,16,0,0,,0,,,60,127
25156,note_on,94,0,0,,12,,,59,127
25172,note_off,16,0,0,,2,,,50,127
25265,note_off,93,0,0,,6,,,78,127
25266,note_on,1,0,0,,0,,,48,127
25266,note_on,0,0,0,,4,,,76,127
25282,note_off,16,0,0,,12,,,59,127
25376,note_on,94,0,0,,10,,,57,127
25392,note_off,16,0,0,,0,,,48,127
25485,note_off,93,0,0,,4,,,76,127
25486,note_on,1,0,0,,12,,,47,127
25486,note_on,0,0,0,,2,,,74,127
25502,note_off,16,0,0,,10,,,57,127
25596,note_on,94,0,0,,7,,,55,127
25612,note_off,16,0,0,,12,,,47,127
25705,note_off,93,0,0,,2,,,74,127
25706,note_on,1,0,0,,10,,,45,127
25706,note_on,0,0,0,,0,,,72,127
25722,note_off,16,0,0,,7,,,55,127
25815,note_off,93,0,0,,10,,,45,127
25816,note_on,1,0,0,,6,,,54,127
25925,note_off,109,0,0,,6,,,54,127
25925,note_off,0,0,0,,0,,,72,127
25926,note_on,1,0,0,,7,,,43,127
25926,note_on,0,0,0,,12,,,71,127
26035,note_off,109,0,0,,12,,,71,127
26036,note_on,1,0,0,,10,,,69,127
26145,note_off,109,0,0,,10,,,69,127
26145,note_off,0,0,0,,7,,,43,127
26146,note_on,1,0,0,,2,,,50,127
26146,note_on,0,0,0,,12,,,71,127
26255,note_off,109,0,0,,12,,,71,127
26256,note_on,1,0,0,,7,,,67,127
26365,note_off,109,0,0,,7,,,67,127
26366,note_on,1,0,0,,2,,,38,127
26366,note_on,0,0,0,,10,,,69,127
26475,note_off,109,0,0,,10,,,69,127
26476,note_on,1,0,0,,6,,,66,127
26585,note_off,109,0,0,,6,,,66,127
26585,note_off,0,0,0,,2,,,38,127
26585,note_off,0,0,0,,2,,,50,127
26593,note_on,8,0,0,,7,,,43,127
26593,note_on,0,0,0,,7,,,67,127
26714,note_on,121,0,0,,12,,,71,127
26730,note_off,16,0,0,,7,,,67,127
26823,note_off,93,0,0,,12,,,71,127
26824,note_on,1,0,0,,2,,,74,127
26933,note_off,109,0,0,,2,,,74,127
26934,note_on,1,0,0,,7,,,79,127
27043,note_off,109,0,0,,7,,,79,127
27044,note_on,1,0,0,,10,,,81,127
27099,note_on,55,0,0,,7,,,79,127
27116,note_off,17,0,0,,10,,,81,127
27142,note_off,26,0,0,,7,,,43,127
27153,note_on,11,0,0,,10,,,81,127
27170,note_off,17,0,0,,7,,,79,127
27208,note_on,38,0,0,,7,,,79,127
27225,note_off,17,0,0,,10,,,81,127
27263,note_on,38,0,0,,10,,,81,127
27263,note_on,0,0,0,,12,,,59,127
27280,note_off,17,0,0,,7,,,79,127
27318,note_on,38,0,0,,7,,,79,127
27335,note_off,17,0,0,,10,,,81,127
27373,note_on,38,0,0,,10,,,81,127
27390,note_off,17,0,0,,7,,,79,127
27428,note_on,38,0,0,,7,,,79,127
27445,note_off,17,0,0,,10,,,81,127
27482,note_off,37,0,0,,12,,,59,127
27483,note_on,1,0,0,,0,,,60,127
27592,note_off,109,0,0,,7,,,79,127
27593,note_on,1,0,0,,2,,,74,127
27702,note_off,109,0,0,,2,,,74,127
27702,note_off,0,0,0,,0,,,60,127
27703,note_on,1,0,0,,4,,,76,127
27703,note_on,0,0,0,,0,,,60,127
27812,note_off,109,0,0,,4,,,76,127
27813,note_on,1,0,0,,0,,,72,127
27922,note_off,109,0,0,,0,,,72,127
27922,note_off,0,0,0,,0,,,60,127
27923,note_on,1,0,0,,12,,,71,127
27923,note_on,0,0,0,,2,,,62,127
28142,note_on,219,0,0,,2,,,50,127
28197,note_on,55,0,0,,10,,,69,127
28220,note_off,23,0,0,,12,,,71,127
28252,note_on,32,0,0,,12,,,71,127
28269,note_off,17,0,0,,10,,,69,127
28307,note_on,38,0,0,,10,,,69,127
28324,note_off,17,0,0,,12,,,71,127
28361,note_off,37,0,0,,2,,,50,127
28361,note_off,0,0,0,,2,,,62,127
28362,note_on,1,0,0,,12,,,71,127
28362,note_on,0,0,0,,7,,,55,127
28379,note_off,17,0,0,,10,,,69,127
28481,note_off,102,0,0,,12,,,71,127
28481,note_on,0,0,0,,7,,,67,127
28590,note_off,109,0,0,,7,,,67,127
28591,note_on,1,0,0,,12,,,71,127
28700,note_off,109,0,0,,12,,,71,127
28701,note_on,1,0,0,,2,,,74,127
28810,note_off,109,0,0,,2,,,74,127
28811,note_on,1,0,0,,0,,,84,127
28866,note_on,55,0,0,,12,,,83,127
28883,note_off,17,0,0,,0,,,84,127
28912,note_off,29,0,0,,7,,,55,127
28921,note_on,9,0,0,,0,,,84,127
28938,note_off,17,0,0,,12,,,83,127
28976,note_on,38,0,0,,12,,,83,127
28993,note_off,17,0,0,,0,,,84,127
29031,note_on,38,0,0,,0,,,84,127
29031,note_on,0,0,0,,12,,,59,127
29048,note_off,17,0,0,,12,,,83,127
29086,note_on,38,0,0,,12,,,83,127
29103,note_off,17,0,0,,0,,,84,127
29141,note_on,38,0,0,,0,,,84,127
29158,note_off,17,0,0,,12,,,83,127
29196,note_on,38,0,0,,12,,,83,127
29213,note_off,17,0,0,,0,,,84,127
29250,note_off,37,0,0,,12,,,59,127
29251,note_on,1,0,0,,0,,,60,127
29360,note_off,109,0,0,,12,,,83,127
29361,note_on,1,0,0,,2,,,74,127
29470,note_off,109,0,0,,2,,,74,127
29470,note_off,0,0,0,,0,,,60,127
29471,note_on,1,0,0,,4,,,76,127
29471,note_on,0,0,0,,0,,,60,127
29580,note_off,109,0,0,,4,,,76,127
29581,note_on,1,0,0,,0,,,72,127
29690,note_off,109,0,0,,0,,,72,127
29690,note_off,0,0,0,,0,,,60,127
29691,note_on,1,0,0,,12,,,71,127
29691,note_on,0,0,0,,2,,,62,127
29910,note_on,219,0,0,,2,,,50,127
29965,note_on,55,0,0,,10,,,69,127
29988,note_off,23,0,0,,12,,,71,127
30020,note_on,32,0,0,,12,,,71,127
30037,note_off,17,0,0,,10,,,69,127
30075,note_on,38,0,0,,10,,,69,127
30092,note_off,17,0,0,,12,,,71,127
30129,note_off,37,0,0,,2,,,50,127
30129,note_off,0,0,0,,2,,,62,127
30138,note_off,9,0,0,,10,,,69,127
30139,note_on,1,0,0,,12,,,71,127
30139,note_on,0,0,0,,7,,,55,127
30248,note_off,109,0,0,,12,,,71,127
30249,note_on,1,0,0,,7,,,67,127
30358,note_off,109,0,0,,7,,,67,127
30359,note_on,1,0,0,,12,,,71,127
30468,note_off,109,0,0,,12,,,71,127
30469,note_on,1,0,0,,2,,,74,127
30578,note_off,109,0,0,,2,,,74,127
30579,note_on,1,0,0,,4,,,88,127
30634,note_on,55,0,0,,2,,,86,127
30651,note_off,17,0,0,,4,,,88,127
30689,note_on,38,0,0,,4,,,88,127
30706,note_off,17,0,0,,2,,,86,127
30744,note_on,38,0,0,,2,,,86,127
30761,note_off,17,0,0,,4,,,88,127
30798,note_off,37,0,0,,7,,,55,127
30799,note_on,1,0,0,,4,,,88,127
30799,note_on,0,0,0,,12,,,59,127
30816,note_off,17,0,0,,2,,,86,127
30854,note_on,38,0,0,,2,,,86,127
30871,note_off,17,0,0,,4,,,88,127
30909,note_on,38,0,0,,4,,,88,127
30926,note_off,17,0,0,,2,,,86,127
30964,note_on,38,0,0,,2,,,86,127
30981,note_off,17,0,0,,4,,,88,127
31018,note_off,37,0,0,,12,,,59,127
31019,note_on,1,0,0,,0,,,60,127
31128,note_off,109,0,0,,2,,,86,127
31129,note_on,1,0,0,,12,,,83,127
31238,note_off,109,0,0,,12,,,83,127
31238,note_off,0,0,0,,0,,,60,127
31239,note_on,1,0,0,,0,,,84,127
31239,note_on,0,0,0,,0,,,60,127
31348,note_off,109,0,0,,0,,,84,127
31349,note_on,1,0,0,,10,,,81,127
31458,note_off,109,0,0,,10,,,81,127
31458,note_off,0,0,0,,0,,,60,127
31459,note_on,1,0,0,,7,,,79,127
31459,note_on,0,0,0,,2,,,62,127
31678,note_on,219,0,0,,2,,,50,127
31733,note_on,55,0,0,,6,,,78,127
31756,note_off,23,0,0,,7,,,79,127
31788,note_on,32,0,0,,7,,,79,127
31805,note_off,17,0,0,,6,,,78,127
31843,note_on,38,0,0,,6,,,78,127
31860,note_off,17,0,0,,7,,,79,127
31897,note_off,37,0,0,,2,,,50,127
31897,note_off,0,0,0,,2,,,62,127
31915,note_off,18,0,0,,6,,,78,127
31916,note_on,1,0,0,,12,,,59,127
31916,note_on,0,0,0,,7,,,79,127
32025,note_off,109,0,0,,7,,,79,127
32026,note_on,1,0,0,,2,,,74,127
32135,note_off,109,0,0,,2,,,74,127
32135,note_off,0,0,0,,12,,,59,127
32136,note_on,1,0,0,,0,,,60,127
32136,note_on,0,0,0,,4,,,76,127
32245,note_off,109,0,0,,4,,,76,127
32246,note_on,1,0,0,,7,,,67,127
32355,note_off,109,0,0,,7,,,67,127
32355,note_off,0,0,0,,0,,,60,127
32356,note_on,1,0,0,,2,,,62,127
32356,note_on,0,0,0,,7,,,67,127
32575,note_on,219,0,0,,2,,,50,127
32630,note_on,55,0,0,,6,,,66,127
32653,note_off,23,0,0,,7,,,67,127
32685,note_on,32,0,0,,7,,,67,127
32702,note_off,17,0,0,,6,,,66,127
32740,note_on,38,0,0,,6,,,66,127
32757,note_off,17,0,0,,7,,,67,127
32794,note_off,37,0,0,,2,,,50,127
32794,note_off,0,0,0,,2,,,62,127
32795,note_off,1,0,0,,6,,,66,127
32795,note_on,0,0,0,,7,,,43,127
32795,note_on,0,0,0,,7,,,67,127
33452,note_off,657,0,0,,7,,,67,127
33671,note_off,219,0,0,,7,,,43,127
33709,note_on,38,0,0,,7,,,43,127
33709,note_on,0,0,0,,7,,,67,127
33818,note_off,109,0,0,,7,,,67,127
33819,note_on,1,0,0,,6,,,66,127
33928,note_off,109,0,0,,6,,,66,127
33929,note_on,1,0,0,,7,,,67,127
34038,note_off,109,0,0,,7,,,67,127
34039,note_on,1,0,0,,2,,,62,127
34148,note_off,109,0,0,,2,,,62,127
34149,note_on,1,0,0,,7,,,67,127
34149,note_on,0,0,0,,12,,,71,127
34258,note_off,109,0,0,,7,,,43,127
34259,note_on,1,0,0,,7,,,55,127
34368,note_off,109,0,0,,7,,,55,127
34368,note_off,0,0,0,,12,,,71,127
34368,note_off,0,0,0,,7,,,67,127
34369,note_on,1,0,0,,5,,,53,127
34369,note_on,0,0,0,,1,,,73,127
34369,note_on,0,0,0,,4,,,64,127
34478,note_off,109,0,0,,5,,,53,127
34479,note_on,1,0,0,,4,,,52,127
34588,note_off,109,0,0,,4,,,52,127
34588,note_off,0,0,0,,4,,,64,127
34588,note_off,0,0,0,,1,,,73,127
34589,note_on,1,0,0,,2,,,50,127
34589,note_on,0,0,0,,2,,,74,127
34589,note_on,0,0,0,,5,,,65,127
34708,note_off,119,0,0,,5,,,65,127
34708,note_on,0,0,0,,4,,,64,127
34817,note_off,109,0,0,,4,,,64,127
34818,note_on,1,0,0,,5,,,65,127
34927,note_off,109,0,0,,5,,,65,127
34928,note_on,1,0,0,,2,,,62,127
35037,note_off,109,0,0,,2,,,62,127
35038,note_on,1,0,0,,10,,,69,127
35038,note_on,0,0,0,,5,,,65,127
35039,note_off,1,0,0,,2,,,74,127
35137,note_off,98,0,0,,2,,,50,127
35147,note_on,10,0,0,,2,,,62,127
35256,note_off,109,0,0,,2,,,62,127
35256,note_off,0,0,0,,5,,,65,127
35256,note_off,0,0,0,,10,,,69,127
35257,note_on,1,0,0,,0,,,60,127
35257,note_on,0,0,0,,12,,,71,127
35257,note_on,0,0,0,,8,,,68,127
35366,note_off,109,0,0,,0,,,60,127
35367,note_on,1,0,0,,12,,,59,127
35476,note_off,109,0,0,,12,,,59,127
35476,note_off,0,0,0,,8,,,68,127
35476,note_off,0,0,0,,12,,,71,127
35486,note_on,10,0,0,,10,,,45,127
35486,note_on,0,0,0,,0,,,72,127
35486,note_on,0,0,0,,4,,,64,127
35595,note_off,109,0,0,,0,,,72,127
35596,note_on,1,0,0,,12,,,71,127
35705,note_off,109,0,0,,12,,,71,127
35706,note_on,1,0,0,,0,,,72,127
35815,note_off,109,0,0,,0,,,72,127
35816,note_on,1,0,0,,10,,,69,127
35925,note_off,109,0,0,,10,,,69,127
35925,note_off,0,0,0,,4,,,64,127
35926,note_on,1,0,0,,0,,,72,127
35926,note_on,0,0,0,,4,,,64,127
36035,note_off,109,0,0,,10,,,45,127
36036,note_on,1,0,0,,10,,,57,127
36145,note_off,109,0,0,,10,,,57,127
36145,note_off,0,0,0,,4,,,64,127
36145,note_off,0,0,0,,0,,,72,127
36146,note_on,1,0,0,,7,,,55,127
36146,note_on,0,0,0,,3,,,75,127
36146,note_on,0,0,0,,6,,,66,127
36255,note_off,109,0,0,,7,,,55,127
36256,note_on,1,0,0,,6,,,54,127
36365,note_off,109,0,0,,6,,,54,127
36365,note_off,0,0,0,,6,,,66,127
36365,note_off,0,0,0,,3,,,75,127
36375,note_on,10,0,0,,4,,,52,127
36375,note_on,0,0,0,,4,,,76,127
36375,note_on,0,0,0,,7,,,67,127
36484,note_off,109,0,0,,7,,,67,127
36485,note_on,1,0,0,,6,,,66,127
36594,note_off,109,0,0,,6,,,66,127
36595,note_on,1,0,0,,7,,,67,127
36704,note_off,109,0,0,,7,,,67,127
36705,note_on,1,0,0,,4,,,64,127
36814,note_off,109,0,0,,4,,,64,127
36814,note_off,0,0,0,,4,,,76,127
36815,note_on,1,0,0,,7,,,67,127
36924,note_off,109,0,0,,4,,,52,127
36925,note_on,1,0,0,,4,,,64,127
37034,note_off,109,0,0,,4,,,64,127
37034,note_off,0,0,0,,7,,,67,127
37035,note_on,1,0,0,,3,,,63,127
37035,note_on,0,0,0,,10,,,69,127
37144,note_off,109,0,0,,3,,,63,127
37145,note_on,1,0,0,,1,,,61,127
37254,note_off,109,0,0,,1,,,61,127
37254,note_off,0,0,0,,10,,,69,127
37255,note_on,1,0,0,,3,,,63,127
37255,note_on,0,0,0,,12,,,71,127
37364,note_off,109,0,0,,12,,,71,127
37365,note_on,1,0,0,,10,,,69,127
37474,note_off,109,0,0,,10,,,69,127
37474,note_off,0,0,0,,3,,,63,127
37475,note_on,1,0,0,,12,,,59,127
37475,note_on,0,0,0,,7,,,67,127
37584,note_off,109,0,0,,7,,,67,127
37585,note_on,1,0,0,,6,,,66,127
37694,note_off,109,0,0,,6,,,66,127
37694,note_off,0,0,0,,12,,,59,127
37695,note_on,1,0,0,,4,,,64,127
37695,note_on,0,0,0,,7,,,67,127
37798,note_off,103,0,0,,4,,,64,127
37804,note_off,6,0,0,,7,,,67,127
37805,note_on,1,0,0,,4,,,64,127
37914,note_off,109,0,0,,4,,,64,127
37915,note_on,1,0,0,,0,,,60,127
37915,note_on,0,0,0,,10,,,69,127
38024,note_off,109,0,0,,10,,,69,127
38025,note_on,1,0,0,,6,,,66,127
38134,note_off,109,0,0,,6,,,66,127
38134,note_off,0,0,0,,0,,,60,127
38135,note_on,1,0,0,,12,,,59,127
38135,note_on,0,0,0,,12,,,71,127
38256,note_on,121,0,0,,3,,,75,127
38272,note_off,16,0,0,,12,,,71,127
38365,note_off,93,0,0,,3,,,75,127
38373,note_on,8,0,0,,4,,,76,127
38482,note_off,109,0,0,,4,,,76,127
38483,note_on,1,0,0,,12,,,71,127
38573,note_off,90,0,0,,12,,,59,127
38591,note_off,18,0,0,,12,,,71,127
38592,note_on,1,0,0,,0,,,72,127
38592,note_on,0,0,0,,10,,,57,127
38702,note_on,110,0,0,,3,,,75,127
38811,note_off,109,0,0,,3,,,75,127
38812,note_on,1,0,0,,4,,,76,127
38921,note_off,109,0,0,,4,,,76,127
38922,note_on,1,0,0,,10,,,69,127
39031,note_off,109,0,0,,10,,,69,127
39031,note_off,0,0,0,,10,,,57,127
39031,note_off,0,0,0,,0,,,72,127
39032,note_on,1,0,0,,12,,,71,127
39032,note_on,0,0,0,,7,,,55,127
39142,note_on,110,0,0,,3,,,75,127
39251,note_off,109,0,0,,3,,,75,127
39252,note_on,1,0,0,,4,,,76,127
39361,note_off,109,0,0,,4,,,76,127
39362,note_on,1,0,0,,7,,,67,127
39471,note_off,109,0,0,,7,,,67,127
39471,note_off,0,0,0,,7,,,55,127
39471,note_off,0,0,0,,12,,,71,127
39472,note_on,1,0,0,,10,,,69,127
39472,note_on,0,0,0,,6,,,54,127
39582,note_on,110,0,0,,3,,,75,127
39691,note_off,109,0,0,,3,,,75,127
39692,note_on,1,0,0,,4,,,76,127
39801,note_off,109,0,0,,4,,,76,127
39802,note_on,1,0,0,,6,,,66,127
39911,note_off,109,0,0,,6,,,66,127
39911,note_off,0,0,0,,6,,,54,127
39911,note_off,0,0,0,,10,,,69,127
39912,note_on,1,0,0,,7,,,67,127
39912,note_on,0,0,0,,4,,,52,127
40021,note_off,109,0,0,,4,,,52,127
40022,note_on,1,0,0,,3,,,63,127
40131,note_off,109,0,0,,3,,,63,127
40132,note_on,1,0,0,,4,,,64,127
40241,note_off,109,0,0,,4,,,64,127
40242,note_on,1,0,0,,12,,,59,127
40313,note_off,71,0,0,,7,,,67,127
40351,note_off,38,0,0,,12,,,59,127
40352,note_on,1,0,0,,10,,,69,127
40352,note_on,0,0,0,,0,,,60,127
40462,note_on,110,0,0,,3,,,63,127
40571,note_off,109,0,0,,3,,,63,127
40572,note_on,1,0,0,,4,,,64,127
40681,note_off,109,0,0,,4,,,64,127
40682,note_on,1,0,0,,10,,,57,127
40791,note_off,109,0,0,,10,,,57,127
40791,note_off,0,0,0,,0,,,60,127
40791,note_off,0,0,0,,10,,,69,127
40792,note_on,1,0,0,,12,,,71,127
40792,note_on,0,0,0,,12,,,59,127
40902,note_on,110,0,0,,3,,,63,127
41011,note_off,109,0,0,,3,,,63,127
41012,note_on,1,0,0,,4,,,64,127
41121,note_off,109,0,0,,4,,,64,127
41122,note_on,1,0,0,,7,,,55,127
41231,note_off,109,0,0,,7,,,55,127
41231,note_off,0,0,0,,12,,,59,127
41231,note_off,0,0,0,,12,,,71,127
41232,note_on,1,0,0,,0,,,72,127
41232,note_on,0,0,0,,10,,,57,127
41342,note_on,110,0,0,,3,,,63,127
41451,note_off,109,0,0,,3,,,63,127
41452,note_on,1,0,0,,4,,,64,127
41561,note_off,109,0,0,,4,,,64,127
41562,note_on,1,0,0,,6,,,54,127
41671,note_off,109,0,0,,6,,,54,127
41671,note_off,0,0,0,,10,,,57,127
41671,note_off,0,0,0,,0,,,72,127
41681,note_on,10,0,0,,12,,,71,127
41681,note_on,0,0,0,,8,,,56,127
41790,note_off,109,0,0,,12,,,71,127
41791,note_on,1,0,0,,5,,,77,127
41900,note_off,109,0,0,,5,,,77,127
41901,note_on,1,0,0,,4,,,76,127
42010,note_off,109,0,0,,4,,,76,127
42011,note_on,1,0,0,,2,,,74,127
42120,note_off,109,0,0,,2,,,74,127
42120,note_off,0,0,0,,8,,,56,127
42121,note_on,1,0,0,,0,,,72,127
42121,note_on,0,0,0,,10,,,57,127
42230,note_off,109,0,0,,0,,,72,127
42231,note_on,1,0,0,,10,,,69,127
42340,note_off,109,0,0,,10,,,69,127
42340,note_off,0,0,0,,10,,,57,127
42341,note_on,1,0,0,,2,,,74,127
42341,note_on,0,0,0,,12,,,59,127
42450,note_off,109,0,0,,2,,,74,127
42451,note_on,1,0,0,,12,,,71,127
42560,note_off,109,0,0,,12,,,71,127
42560,note_off,0,0,0,,12,,,59,127
42561,note_on,1,0,0,,4,,,76,127
42561,note_on,0,0,0,,0,,,60,127
42670,note_off,109,0,0,,4,,,76,127
42671,note_on,1,0,0,,0,,,72,127
42780,note_off,109,0,0,,0,,,72,127
42780,note_off,0,0,0,,0,,,60,127
42781,note_on,1,0,0,,10,,,69,127
42781,note_on,0,0,0,,5,,,77,127
42781,note_on,0,0,0,,2,,,62,127
42999,note_off,218,0,0,,2,,,62,127
42999,note_off,0,0,0,,10,,,69,127
43000,note_on,1,0,0,,8,,,68,127
43000,note_on,0,0,0,,4,,,64,127
43109,note_off,109,0,0,,5,,,77,127
43110,note_on,1,0,0,,4,,,76,127
43219,note_off,109,0,0,,4,,,64,127
43219,note_off,0,0,0,,8,,,68,127
43220,note_on,1,0,0,,10,,,69,127
43220,note_on,0,0,0,,5,,,65,127
43329,note_off,109,0,0,,4,,,76,127
43330,note_on,1,0,0,,2,,,74,127
43439,note_off,109,0,0,,2,,,74,127
43439,note_off,0,0,0,,5,,,65,127
43439,note_off,0,0,0,,10,,,69,127
43440,note_on,1,0,0,,4,,,76,127
43440,note_on,0,0,0,,4,,,64,127
43559,note_off,119,0,0,,4,,,76,127
43559,note_on,0,0,0,,8,,,80,127
43668,note_off,109,0,0,,8,,,80,127
43669,note_on,1,0,0,,10,,,81,127
43778,note_off,109,0,0,,10,,,81,127
43779,note_on,1,0,0,,4,,,76,127
43875,note_off,96,0,0,,4,,,64,127
43888,note_off,13,0,0,,4,,,76,127
43889,note_on,1,0,0,,5,,,77,127
43889,note_on,0,0,0,,2,,,62,127
43999,note_on,110,0,0,,8,,,80,127
44108,note_off,109,0,0,,8,,,80,127
44109,note_on,1,0,0,,10,,,81,127
44218,note_off,109,0,0,,10,,,81,127
44219,note_on,1,0,0,,2,,,74,127
44328,note_off,109,0,0,,2,,,74,127
44328,note_off,0,0,0,,2,,,62,127
44328,note_off,0,0,0,,5,,,77,127
44329,note_on,1,0,0,,4,,,76,127
44329,note_on,0,0,0,,0,,,60,127
44439,note_on,110,0,0,,8,,,80,127
44548,note_off,109,0,0,,8,,,80,127
44549,note_on,1,0,0,,10,,,81,127
44658,note_off,109,0,0,,10,,,81,127
44659,note_on,1,0,0,,0,,,72,127
44768,note_off,109,0,0,,0,,,72,127
44768,note_off,0,0,0,,0,,,60,127
44768,note_off,0,0,0,,4,,,76,127
44769,note_on,1,0,0,,2,,,74,127
44769,note_on,0,0,0,,12,,,59,127
44879,note_on,110,0,0,,8,,,80,127
44988,note_off,109,0,0,,8,,,80,127
44989,note_on,1,0,0,,10,,,81,127
45098,note_off,109,0,0,,10,,,81,127
45099,note_on,1,0,0,,12,,,71,127
45208,note_off,109,0,0,,12,,,71,127
45208,note_off,0,0,0,,12,,,59,127
45208,note_off,0,0,0,,2,,,74,127
45209,note_on,1,0,0,,0,,,72,127
45209,note_on,0,0,0,,10,,,57,127
45318,note_off,109,0,0,,10,,,57,127
45319,note_on,1,0,0,,8,,,68,127
45428,note_off,109,0,0,,8,,,68,127
45429,note_on,1,0,0,,10,,,69,127
45538,note_off,109,0,0,,10,,,69,127
45539,note_on,1,0,0,,4,,,64,127
45633,note_off,94,0,0,,0,,,72,127
45648,note_off,15,0,0,,4,,,64,127
45658,note_on,10,0,0,,12,,,83,127
45658,note_on,0,0,0,,5,,,65,127
45713,note_on,55,0,0,,10,,,81,127
45730,note_off,17,0,0,,12,,,83,127
45768,note_on,38,0,0,,12,,,83,127
45768,note_on,0,0,0,,8,,,68,127
45785,note_off,17,0,0,,10,,,81,127
45823,note_on,38,0,0,,10,,,81,127
45840,note_off,17,0,0,,12,,,83,127
45877,note_off,37,0,0,,8,,,68,127
45878,note_on,1,0,0,,12,,,83,127
45878,note_on,0,0,0,,10,,,69,127
45895,note_off,17,0,0,,10,,,81,127
45933,note_on,38,0,0,,10,,,81,127
45950,note_off,17,0,0,,12,,,83,127
45987,note_off,37,0,0,,10,,,69,127
45988,note_on,1,0,0,,12,,,83,127
45988,note_on,0,0,0,,2,,,62,127
46005,note_off,17,0,0,,10,,,81,127
46043,note_on,38,0,0,,10,,,81,127
46060,note_off,17,0,0,,12,,,83,127
46097,note_off,37,0,0,,2,,,62,127
46097,note_off,0,0,0,,5,,,65,127
46098,note_on,1,0,0,,12,,,83,127
46098,note_on,0,0,0,,4,,,64,127
46115,note_off,17,0,0,,10,,,81,127
46153,note_on,38,0,0,,10,,,81,127
46170,note_off,17,0,0,,12,,,83,127
46208,note_on,38,0,0,,12,,,83,127
46208,note_on,0,0,0,,8,,,68,127
46225,note_off,17,0,0,,10,,,81,127
46263,note_on,38,0,0,,10,,,81,127
46280,note_off,17,0,0,,12,,,83,127
46317,note_off,37,0,0,,8,,,68,127
46318,note_on,1,0,0,,12,,,83,127
46318,note_on,0,0,0,,10,,,69,127
46335,note_off,17,0,0,,10,,,81,127
46373,note_on,38,0,0,,10,,,81,127
46390,note_off,17,0,0,,12,,,83,127
46427,note_off,37,0,0,,10,,,69,127
46428,note_on,1,0,0,,12,,,83,127
46428,note_on,0,0,0,,0,,,60,127
46445,note_off,17,0,0,,10,,,81,127
46483,note_on,38,0,0,,10,,,81,127
46500,note_off,17,0,0,,12,,,83,127
46537,note_off,37,0,0,,0,,,60,127
46537,note_off,0,0,0,,4,,,64,127
46538,note_on,1,0,0,,12,,,83,127
46538,note_on,0,0,0,,2,,,62,127
46555,note_off,17,0,0,,10,,,81,127
46593,note_on,38,0,0,,10,,,81,127
46610,note_off,17,0,0,,12,,,83,127
46648,note_on,38,0,0,,12,,,83,127
46648,note_on,0,0,0,,8,,,68,127
46665,note_off,17,0,0,,10,,,81,127
46703,note_on,38,0,0,,10,,,81,127
46720,note_off,17,0,0,,12,,,83,127
46757,note_off,37,0,0,,8,,,68,127
46758,note_on,1,0,0,,12,,,83,127
46758,note_on,0,0,0,,10,,,69,127
46775,note_off,17,0,0,,10,,,81,127
46813,note_on,38,0,0,,10,,,81,127
46830,note_off,17,0,0,,12,,,83,127
46867,note_off,37,0,0,,10,,,69,127
46868,note_on,1,0,0,,12,,,83,127
46868,note_on,0,0,0,,12,,,59,127
46885,note_off,17,0,0,,10,,,81,127
46923,note_on,38,0,0,,10,,,81,127
46940,note_off,17,0,0,,12,,,83,127
46977,note_off,37,0,0,,12,,,59,127
46977,note_off,0,0,0,,2,,,62,127
46978,note_on,1,0,0,,0,,,60,127
47088,note_on,110,0,0,,10,,,69,127
47104,note_off,16,0,0,,0,,,60,127
47197,note_off,93,0,0,,10,,,81,127
47198,note_on,1,0,0,,2,,,86,127
47198,note_on,0,0,0,,12,,,59,127
47271,note_off,73,0,0,,10,,,69,127
47308,note_on,37,0,0,,7,,,67,127
47324,note_off,16,0,0,,12,,,59,127
47417,note_off,93,0,0,,2,,,86,127
47418,note_on,1,0,0,,0,,,84,127
47418,note_on,0,0,0,,10,,,57,127
47468,note_off,50,0,0,,7,,,67,127
47527,note_on,59,0,0,,5,,,65,127
47543,note_off,16,0,0,,10,,,57,127
47636,note_off,93,0,0,,0,,,84,127
47637,note_on,1,0,0,,12,,,83,127
47637,note_on,0,0,0,,7,,,55,127
47653,note_off,16,0,0,,5,,,65,127
47747,note_on,94,0,0,,4,,,64,127
47763,note_off,16,0,0,,7,,,55,127
47856,note_off,93,0,0,,12,,,83,127
47857,note_on,1,0,0,,10,,,81,127
47857,note_on,0,0,0,,5,,,53,127
47873,note_off,16,0,0,,4,,,64,127
47967,note_on,94,0,0,,2,,,62,127
47983,note_off,16,0,0,,5,,,53,127
48076,note_off,93,0,0,,10,,,81,127
48077,note_on,1,0,0,,7,,,79,127
48077,note_on,0,0,0,,4,,,52,127
48093,note_off,16,0,0,,2,,,62,127
48187,note_on,94,0,0,,0,,,60,127
48203,note_off,16,0,0,,4,,,52,127
48296,note_off,93,0,0,,7,,,79,127
48297,note_on,1,0,0,,5,,,77,127
48297,note_on,0,0,0,,2,,,50,127
48313,note_off,16,0,0,,0,,,60,127
48407,note_on,94,0,0,,12,,,59,127
48423,note_off,16,0,0,,2,,,50,127
48516,note_off,93,0,0,,5,,,77,127
48517,note_on,1,0,0,,4,,,76,127
48517,note_on,0,0,0,,0,,,60,127
48533,note_off,16,0,0,,12,,,59,127
48627,note_on,94,0,0,,0,,,48,127
48643,note_off,16,0,0,,0,,,60,127
48736,note_off,93,0,0,,0,,,48,127
48736,note_off,0,0,0,,4,,,76,127
48737,note_on,1,0,0,,2,,,74,127
48737,note_on,0,0,0,,7,,,43,127
48846,note_off,109,0,0,,2,,,74,127
48847,note_on,1,0,0,,0,,,72,127
48956,note_off,109,0,0,,0,,,72,127
48957,note_on,1,0,0,,12,,,71,127
49066,note_off,109,0,0,,12,,,71,127
49067,note_on,1,0,0,,10,,,69,127
49176,note_off,109,0,0,,10,,,69,127
49176,note_off,0,0,0,,7,,,43,127
49177,note_on,1,0,0,,7,,,67,127
49177,note_on,0,0,0,,12,,,59,127
49286,note_off,109,0,0,,7,,,67,127
49287,note_on,1,0,0,,5,,,65,127
49396,note_off,109,0,0,,5,,,65,127
49397,note_on,1,0,0,,4,,,64,127
49506,note_off,109,0,0,,4,,,64,127
49507,note_on,1,0,0,,2,,,62,127
49616,note_off,109,0,0,,2,,,62,127
49616,note_off,0,0,0,,12,,,59,127
49617,note_on,1,0,0,,4,,,64,127
49617,note_on,0,0,0,,0,,,60,127
49754,note_on,137,0,0,,12,,,83,127
49863,note_off,109,0,0,,12,,,83,127
49864,note_on,1,0,0,,0,,,84,127
49973,note_off,109,0,0,,0,,,84,127
49974,note_on,1,0,0,,7,,,79,127
50063,note_off,89,0,0,,0,,,60,127
50063,note_off,0,0,0,,4,,,64,127
50082,note_off,19,0,0,,7,,,79,127
50083,note_on,1,0,0,,5,,,65,127
50083,note_on,0,0,0,,10,,,81,127
50193,note_on,110,0,0,,12,,,83,127
50302,note_off,109,0,0,,12,,,83,127
50303,note_on,1,0,0,,0,,,84,127
50412,note_off,109,0,0,,0,,,84,127
50413,note_on,1,0,0,,5,,,77,127
50522,note_off,109,0,0,,5,,,77,127
50522,note_off,0,0,0,,10,,,81,127
50522,note_off,0,0,0,,5,,,65,127
50523,note_on,1,0,0,,4,,,64,127
50523,note_on,0,0,0,,7,,,79,127
50633,note_on,110,0,0,,12,,,83,127
50742,note_off,109,0,0,,12,,,83,127
50743,note_on,1,0,0,,0,,,84,127
50852,note_off,109,0,0,,0,,,84,127
50853,note_on,1,0,0,,4,,,76,127
50962,note_off,109,0,0,,4,,,76,127
50962,note_off,0,0,0,,7,,,79,127
50962,note_off,0,0,0,,4,,,64,127
50963,note_on,1,0,0,,2,,,62,127
50963,note_on,0,0,0,,5,,,77,127
51073,note_on,110,0,0,,12,,,83,127
51182,note_off,109,0,0,,12,,,83,127
51183,note_on,1,0,0,,0,,,84,127
51292,note_off,109,0,0,,0,,,84,127
51293,note_on,1,0,0,,2,,,74,127
51402,note_off,109,0,0,,2,,,74,127
51402,note_off,0,0,0,,5,,,77,127
51402,note_off,0,0,0,,2,,,62,127
51403,note_on,1,0,0,,0,,,60,127
51403,note_on,0,0,0,,4,,,76,127
51512,note_off,109,0,0,,0,,,60,127
51513,note_on,1,0,0,,12,,,71,127
51622,note_off,109,0,0,,12,,,71,127
51623,note_on,1,0,0,,0,,,72,127
51732,note_off,109,0,0,,0,,,72,127
51733,note_on,1,0,0,,7,,,67,127
51832,note_off,99,0,0,,4,,,76,127
51841,note_off,9,0,0,,7,,,67,127
51851,note_on,10,0,0,,10,,,69,127
51851,note_on,0,0,0,,5,,,77,127
51961,note_on,110,0,0,,12,,,71,127
52070,note_off,109,0,0,,12,,,71,127
52071,note_on,1,0,0,,0,,,72,127
52180,note_off,109,0,0,,0,,,72,127
52181,note_on,1,0,0,,5,,,65,127
52290,note_off,109,0,0,,5,,,65,127
52290,note_off,0,0,0,,5,,,77,127
52290,note_off,0,0,0,,10,,,69,127
52291,note_on,1,0,0,,7,,,67,127
52291,note_on,0,0,0,,4,,,76,127
52401,note_on,110,0,0,,12,,,71,127
52510,note_off,109,0,0,,12,,,71,127
52511,note_on,1,0,0,,0,,,72,127
52620,note_off,109,0,0,,0,,,72,127
52621,note_on,1,0,0,,4,,,64,127
52730,note_off,109,0,0,,4,,,64,127
52730,note_off,0,0,0,,4,,,76,127
52730,note_off,0,0,0,,7,,,67,127
52731,note_on,1,0,0,,5,,,65,127
52731,note_on,0,0,0,,10,,,81,127
52841,note_on,110,0,0,,12,,,71,127
52950,note_off,109,0,0,,12,,,71,127
52951,note_on,1,0,0,,0,,,72,127
53060,note_off,109,0,0,,0,,,72,127
53061,note_on,1,0,0,,2,,,62,127
53170,note_off,109,0,0,,2,,,62,127
53170,note_off,0,0,0,,10,,,81,127
53170,note_off,0,0,0,,5,,,65,127
53180,note_on,10,0,0,,4,,,64,127
53180,note_on,0,0,0,,7,,,79,127
53290,note_on,110,0,0,,0,,,72,127
53306,note_off,16,0,0,,4,,,64,127
53399,note_off,93,0,0,,7,,,79,127
53400,note_on,1,0,0,,2,,,62,127
53400,note_on,0,0,0,,5,,,77,127
53473,note_off,73,0,0,,0,,,72,127
53510,note_on,37,0,0,,12,,,71,127
53526,note_off,16,0,0,,2,,,62,127
53619,note_off,93,0,0,,5,,,77,127
53620,note_on,1,0,0,,0,,,60,127
53620,note_on,0,0,0,,4,,,76,127
53693,note_off,73,0,0,,12,,,71,127
53730,note_on,37,0,0,,10,,,69,127
53746,note_off,16,0,0,,0,,,60,127
53839,note_off,93,0,0,,4,,,76,127
53840,note_on,1,0,0,,12,,,59,127
53840,note_on,0,0,0,,2,,,74,127
53913,note_off,73,0,0,,10,,,69,127
53950,note_on,37,0,0,,7,,,67,127
53966,note_off,16,0,0,,12,,,59,127
54059,note_off,93,0,0,,2,,,74,127
54060,note_on,1,0,0,,10,,,57,127
54060,note_on,0,0,0,,0,,,72,127
54110,note_off,50,0,0,,7,,,67,127
54169,note_on,59,0,0,,5,,,65,127
54185,note_off,16,0,0,,10,,,57,127
54278,note_off,93,0,0,,0,,,72,127
54279,note_on,1,0,0,,7,,,55,127
54279,note_on,0,0,0,,12,,,71,127
54295,note_off,16,0,0,,5,,,65,127
54389,note_on,94,0,0,,4,,,64,127
54405,note_off,16,0,0,,7,,,55,127
54498,note_off,93,0,0,,12,,,71,127
54499,note_on,1,0,0,,5,,,53,127
54499,note_on,0,0,0,,10,,,69,127
54515,note_off,16,0,0,,4,,,64,127
54609,note_on,94,0,0,,2,,,62,127
54625,note_off,16,0,0,,5,,,53,127
54718,note_off,93,0,0,,10,,,69,127
54719,note_on,1,0,0,,4,,,52,127
54719,note_on,0,0,0,,7,,,67,127
54735,note_off,16,0,0,,2,,,62,127
54829,note_on,94,0,0,,0,,,60,127
54845,note_off,16,0,0,,4,,,52,127
54919,note_off,74,0,0,,7,,,67,127
54937,note_off,18,0,0,,0,,,60,127
54947,note_on,10,0,0,,2,,,50,127
54947,note_on,0,0,0,,5,,,77,127
55056,note_off,109,0,0,,2,,,50,127
55057,note_on,1,0,0,,12,,,59,127
55166,note_off,109,0,0,,12,,,59,127
55166,note_off,0,0,0,,5,,,77,127
55167,note_on,1,0,0,,0,,,60,127
55167,note_on,0,0,0,,4,,,76,127
55276,note_off,109,0,0,,4,,,76,127
55276,note_off,0,0,0,,0,,,60,127
55277,note_on,1,0,0,,0,,,48,127
55277,note_on,0,0,0,,2,,,74,127
55386,note_off,109,0,0,,2,,,74,127
55386,note_off,0,0,0,,0,,,48,127
55387,note_on,1,0,0,,7,,,55,127
55387,note_on,0,0,0,,4,,,76,127
55496,note_off,109,0,0,,4,,,76,127
55497,note_on,1,0,0,,0,,,72,127
55606,note_off,109,0,0,,0,,,72,127
55607,note_on,1,0,0,,7,,,43,127
55607,note_on,0,0,0,,2,,,74,127
55716,note_off,109,0,0,,2,,,74,127
55717,note_on,1,0,0,,12,,,71,127
55826,note_off,109,0,0,,12,,,71,127
55826,note_off,0,0,0,,7,,,43,127
55826,note_off,0,0,0,,7,,,55,127
55827,note_on,1,0,0,,0,,,48,127
55827,note_on,0,0,0,,0,,,72,127
55955,note_off,128,0,0,,0,,,72,127
55955,note_on,0,0,0,,12,,,71,127
56064,note_off,109,0,0,,12,,,71,127
56065,note_on,1,0,0,,0,,,72,127
56174,note_off,109,0,0,,0,,,72,127
56175,note_on,1,0,0,,7,,,67,127
56265,note_off,90,0,0,,0,,,48,127
56283,note_off,18,0,0,,7,,,67,127
56284,note_on,1,0,0,,10,,,69,127
56284,note_on,0,0,0,,5,,,53,127
56394,note_on,110,0,0,,12,,,71,127
56503,note_off,109,0,0,,12,,,71,127
56504,note_on,1,0,0,,0,,,72,127
56613,note_off,109,0,0,,0,,,72,127
56614,note_on,1,0,0,,5,,,65,127
56723,note_off,109,0,0,,5,,,65,127
56723,note_off,0,0,0,,5,,,53,127
56723,note_off,0,0,0,,10,,,69,127
56724,note_on,1,0,0,,7,,,67,127
56724,note_on,0,0,0,,4,,,52,127
56834,note_on,110,0,0,,12,,,71,127
56943,note_off,109,0,0,,12,,,71,127
56944,note_on,1,0,0,,0,,,72,127
57053,note_off,109,0,0,,0,,,72,127
57054,note_on,1,0,0,,4,,,64,127
57163,note_off,109,0,0,,4,,,64,127
57163,note_off,0,0,0,,4,,,52,127
57163,note_off,0,0,0,,7,,,67,127
57164,note_on,1,0,0,,5,,,65,127
57164,note_on,0,0,0,,2,,,50,127
57274,note_on,110,0,0,,12,,,71,127
57383,note_off,109,0,0,,12,,,71,127
57384,note_on,1,0,0,,0,,,72,127
57493,note_off,109,0,0,,0,,,72,127
57494,note_on,1,0,0,,2,,,62,127
57603,note_off,109,0,0,,2,,,62,127
57603,note_off,0,0,0,,2,,,50,127
57603,note_off,0,0,0,,5,,,65,127
57604,note_on,1,0,0,,4,,,64,127
57604,note_on,0,0,0,,0,,,48,127
57713,note_off,109,0,0,,0,,,48,127
57714,note_on,1,0,0,,12,,,59,127
57823,note_off,109,0,0,,12,,,59,127
57824,note_on,1,0,0,,0,,,60,127
57933,note_off,109,0,0,,0,,,60,127
57934,note_on,1,0,0,,7,,,55,127
58043,note_off,109,0,0,,7,,,55,127
58043,note_off,0,0,0,,4,,,64,127
58044,note_on,1,0,0,,2,,,74,127
58044,note_on,0,0,0,,10,,,57,127
58099,note_on,55,0,0,,0,,,72,127
58116,note_off,17,0,0,,2,,,74,127
58154,note_on,38,0,0,,2,,,74,127
58154,note_on,0,0,0,,12,,,59,127
58171,note_off,17,0,0,,0,,,72,127
58209,note_on,38,0,0,,0,,,72,127
58226,note_off,17,0,0,,2,,,74,127
58263,note_off,37,0,0,,12,,,59,127
58264,note_on,1,0,0,,2,,,74,127
58264,note_on,0,0,0,,0,,,60,127
58281,note_off,17,0,0,,0,,,72,127
58319,note_on,38,0,0,,0,,,72,127
58336,note_off,17,0,0,,2,,,74,127
58373,note_off,37,0,0,,0,,,60,127
58374,note_on,1,0,0,,2,,,74,127
58374,note_on,0,0,0,,5,,,53,127
58391,note_off,17,0,0,,0,,,72,127
58429,note_on,38,0,0,,0,,,72,127
58446,note_off,17,0,0,,2,,,74,127
58483,note_off,37,0,0,,5,,,53,127
58483,note_off,0,0,0,,10,,,57,127
58484,note_on,1,0,0,,2,,,74,127
58484,note_on,0,0,0,,7,,,55,127
58501,note_off,17,0,0,,0,,,72,127
58539,note_on,38,0,0,,0,,,72,127
58556,note_off,17,0,0,,2,,,74,127
58594,note_on,38,0,0,,2,,,74,127
58594,note_on,0,0,0,,12,,,59,127
58611,note_off,17,0,0,,0,,,72,127
58649,note_on,38,0,0,,0,,,72,127
58666,note_off,17,0,0,,2,,,74,127
58703,note_off,37,0,0,,12,,,59,127
58704,note_on,1,0,0,,2,,,74,127
58704,note_on,0,0,0,,0,,,60,127
58721,note_off,17,0,0,,0,,,72,127
58759,note_on,38,0,0,,0,,,72,127
58776,note_off,17,0,0,,2,,,74,127
58813,note_off,37,0,0,,0,,,60,127
58814,note_on,1,0,0,,2,,,74,127
58814,note_on,0,0,0,,4,,,52,127
58831,note_off,17,0,0,,0,,,72,127
58869,note_on,38,0,0,,0,,,72,127
58886,note_off,17,0,0,,2,,,74,127
58923,note_off,37,0,0,,4,,,52,127
58923,note_off,0,0,0,,7,,,55,127
58924,note_on,1,0,0,,2,,,74,127
58924,note_on,0,0,0,,5,,,53,127
58941,note_off,17,0,0,,0,,,72,127
58979,note_on,38,0,0,,0,,,72,127
58996,note_off,17,0,0,,2,,,74,127
59034,note_on,38,0,0,,2,,,74,127
59034,note_on,0,0,0,,12,,,59,127
59051,note_off,17,0,0,,0,,,72,127
59089,note_on,38,0,0,,0,,,72,127
59106,note_off,17,0,0,,2,,,74,127
59143,note_off,37,0,0,,12,,,59,127
59144,note_on,1,0,0,,2,,,74,127
59144,note_on,0,0,0,,0,,,60,127
59161,note_off,17,0,0,,0,,,72,127
59199,note_on,38,0,0,,0,,,72,127
59216,note_off,17,0,0,,2,,,74,127
59253,note_off,37,0,0,,0,,,60,127
59254,note_on,1,0,0,,2,,,74,127
59254,note_on,0,0,0,,2,,,50,127
59271,note_off,17,0,0,,0,,,72,127
59309,note_on,38,0,0,,0,,,72,127
59326,note_off,17,0,0,,2,,,74,127
59363,note_off,37,0,0,,2,,,50,127
59363,note_off,0,0,0,,5,,,53,127
59364,note_on,1,0,0,,4,,,52,127
59474,note_on,110,0,0,,0,,,60,127
59490,note_off,16,0,0,,4,,,52,127
59583,note_off,93,0,0,,0,,,72,127
59593,note_on,10,0,0,,5,,,77,127
59593,note_on,0,0,0,,2,,,50,127
59600,note_off,7,0,0,,0,,,60,127
59703,note_on,103,0,0,,12,,,59,127
59719,note_off,16,0,0,,2,,,50,127
59812,note_off,93,0,0,,5,,,77,127
59813,note_on,1,0,0,,4,,,76,127
59813,note_on,0,0,0,,0,,,48,127
59829,note_off,16,0,0,,12,,,59,127
59923,note_on,94,0,0,,10,,,57,127
59939,note_off,16,0,0,,0,,,48,127
60032,note_off,93,0,0,,4,,,76,127
60033,note_on,1,0,0,,2,,,74,127
60033,note_on,0,0,0,,12,,,47,127
60049,note_off,16,0,0,,10,,,57,127
60143,note_on,94,0,0,,7,,,55,127
60159,note_off,16,0,0,,12,,,47,127
60252,note_off,93,0,0,,2,,,74,127
60253,note_on,1,0,0,,0,,,72,127
60253,note_on,0,0,0,,10,,,45,127
60269,note_off,16,0,0,,7,,,55,127
60363,note_on,94,0,0,,5,,,53,127
60379,note_off,16,0,0,,10,,,45,127
60472,note_off,93,0,0,,0,,,72,127
60473,note_on,1,0,0,,12,,,71,127
60473,note_on,0,0,0,,7,,,43,127
60489,note_off,16,0,0,,5,,,53,127
60583,note_on,94,0,0,,4,,,52,127
60599,note_off,16,0,0,,7,,,43,127
60692,note_off,93,0,0,,12,,,71,127
60693,note_on,1,0,0,,10,,,69,127
60693,note_on,0,0,0,,5,,,41,127
60709,note_off,16,0,0,,4,,,52,127
60803,note_on,94,0,0,,2,,,50,127
60819,note_off,16,0,0,,5,,,41,127
60912,note_off,93,0,0,,10,,,69,127
60913,note_on,1,0,0,,7,,,67,127
60913,note_on,0,0,0,,4,,,40,127
60929,note_off,16,0,0,,2,,,50,127
61023,note_on,94,0,0,,0,,,48,127
61039,note_off,16,0,0,,4,,,40,127
61132,note_off,93,0,0,,7,,,67,127
61133,note_on,1,0,0,,5,,,65,127
61133,note_on,0,0,0,,2,,,38,127
61149,note_off,16,0,0,,0,,,48,127
61242,note_off,93,0,0,,5,,,65,127
61243,note_on,1,0,0,,2,,,62,127
61352,note_off,109,0,0,,2,,,62,127
61352,note_off,0,0,0,,2,,,38,127
61353,note_on,1,0,0,,4,,,64,127
61353,note_on,0,0,0,,0,,,36,127
61462,note_off,109,0,0,,4,,,64,127
61463,note_on,1,0,0,,5,,,65,127
61572,note_off,109,0,0,,5,,,65,127
61572,note_off,0,0,0,,0,,,36,127
61573,note_on,1,0,0,,4,,,64,127
61573,note_on,0,0,0,,7,,,43,127
61791,note_off,218,0,0,,7,,,43,127
61791,note_off,0,0,0,,4,,,64,127
61792,note_on,1,0,0,,2,,,62,127
61792,note_on,0,0,0,,7,,,43,127
62010,note_off,218,0,0,,7,,,43,127
62010,note_off,0,0,0,,2,,,62,127
62011,note_on,1,0,0,,0,,,60,127
62011,note_on,0,0,0,,0,,,36,127
62139,note_on,128,0,0,,7,,,67,127
62171,note_off,32,0,0,,0,,,60,127
62248,note_off,77,0,0,,7,,,67,127
62249,note_on,1,0,0,,4,,,64,127
62358,note_off,109,0,0,,4,,,64,127
62359,note_on,1,0,0,,0,,,60,127
62449,note_off,90,0,0,,0,,,36,127
62467,note_off,18,0,0,,0,,,60,127
62468,note_on,1,0,0,,5,,,53,127
62468,note_on,0,0,0,,10,,,69,127
62686,note_off,218,0,0,,10,,,69,127
62686,note_off,0,0,0,,5,,,53,127
62687,note_on,1,0,0,,2,,,50,127
62687,note_on,0,0,0,,0,,,72,127
62742,note_on,55,0,0,,12,,,71,127
62759,note_off,17,0,0,,0,,,72,127
62797,note_on,38,0,0,,10,,,69,127
62814,note_off,17,0,0,,12,,,71,127
62852,note_on,38,0,0,,12,,,71,127
62869,note_off,17,0,0,,10,,,69,127
62906,note_off,37,0,0,,2,,,50,127
62907,note_off,1,0,0,,12,,,71,127
62907,note_on,0,0,0,,4,,,52,127
62907,note_on,0,0,0,,0,,,72,127
63035,note_on,128,0,0,,7,,,79,127
63067,note_off,32,0,0,,0,,,72,127
63125,note_off,58,0,0,,4,,,52,127
63143,note_off,18,0,0,,7,,,79,127
63144,note_on,1,0,0,,4,,,76,127
63144,note_on,0,0,0,,0,,,48,127
63253,note_off,109,0,0,,4,,,76,127
63254,note_on,1,0,0,,0,,,72,127
63363,note_off,109,0,0,,0,,,72,127
63363,note_off,0,0,0,,0,,,48,127
63364,note_on,1,0,0,,10,,,81,127
63364,note_on,0,0,0,,5,,,53,127
63582,note_off,218,0,0,,5,,,53,127
63582,note_off,0,0,0,,10,,,81,127
63583,note_on,1,0,0,,0,,,84,127
63583,note_on,0,0,0,,2,,,50,127
63638,note_on,55,0,0,,12,,,83,127
63655,note_off,17,0,0,,0,,,84,127
63693,note_on,38,0,0,,10,,,81,127
63710,note_off,17,0,0,,12,,,83,127
63748,note_on,38,0,0,,12,,,83,127
63765,note_off,17,0,0,,10,,,81,127
63802,note_off,37,0,0,,2,,,50,127
63803,note_off,1,0,0,,12,,,83,127
63803,note_on,0,0,0,,0,,,84,127
63803,note_on,0,0,0,,4,,,52,127
63931,note_on,128,0,0,,7,,,79,127
63952,note_off,21,0,0,,0,,,84,127
64034,note_off,82,0,0,,4,,,52,127
64040,note_off,6,0,0,,7,,,79,127
64041,note_on,1,0,0,,5,,,53,127
64041,note_on,0,0,0,,10,,,81,127
64150,note_off,109,0,0,,10,,,81,127
64151,note_on,1,0,0,,0,,,72,127
64260,note_off,109,0,0,,0,,,72,127
64260,note_off,0,0,0,,5,,,53,127
64261,note_on,1,0,0,,7,,,55,127
64261,note_on,0,0,0,,0,,,72,127
64480,note_on,219,0,0,,7,,,43,127
64535,note_on,55,0,0,,12,,,71,127
64558,note_off,23,0,0,,0,,,72,127
64590,note_off,32,0,0,,7,,,55,127
64590,note_on,0,0,0,,0,,,72,127
64607,note_off,17,0,0,,12,,,71,127
64645,note_on,38,0,0,,12,,,71,127
64662,note_off,17,0,0,,0,,,72,127
64699,note_off,37,0,0,,7,,,43,127
64700,note_off,1,0,0,,12,,,71,127
64727,note_on,27,0,0,,0,,,72,127
64727,note_on,0,0,0,,0,,,36,127
66830,note_off,2103,0,0,,0,,,36,127
66830,note_off,0,0,0,,0,,,72,127
67584,end_of_track,754,1,0,,,,,,
