tick,type,time,meta,track,program,channel,pitch,tempo,note,velocity
0,copyright,0,1,0,,,,,,
0,program_change,0,0,0,6,0,,,,
0,pitchwheel,0,0,0,,0,0,,,
0,program_change,0,0,0,6,1,,,,
0,pitchwheel,0,0,0,,1,-590,,,
0,program_change,0,0,0,6,2,,,,
0,pitchwheel,0,0,0,,2,-272,,,
0,program_change,0,0,0,6,3,,,,
0,pitchwheel,0,0,0,,3,-353,,,
0,program_change,0,0,0,6,4,,,,
0,pitchwheel,0,0,0,,4,-560,,,
0,program_change,0,0,0,6,5,,,,
0,pitchwheel,0,0,0,,5,-80,,,
0,program_change,0,0,0,6,6,,,,
0,pitchwheel,0,0,0,,6,-625,,,
0,program_change,0,0,0,6,7,,,,
0,pitchwheel,0,0,0,,7,-130,,,
0,program_change,0,0,0,6,8,,,,
0,pitchwheel,0,0,0,,8,-512,,,
0,program_change,0,0,0,6,10,,,,
0,pitchwheel,0,0,0,,10,-464,,,
0,program_change,0,0,0,6,11,,,,
0,pitchwheel,0,0,0,,11,-208,,,
0,program_change,0,0,0,6,12,,,,
0,pitchwheel,0,0,0,,12,-553,,,
0,set_tempo,0,1,0,,,,500000,,
105,note_on,105,0,0,,4,,,76,127
210,note_on,105,0,0,,0,,,72,127
313,note_off,103,0,0,,0,,,72,127
315,note_on,2,0,0,,7,,,67,127
420,note_on,105,0,0,,0,,,72,127
520,note_off,100,0,0,,4,,,76,127
522,note_off,2,0,0,,0,,,72,127
522,note_off,0,0,0,,7,,,67,127
524,note_on,2,0,0,,7,,,79,127
731,note_off,207,0,0,,7,,,79,127
733,note_on,2,0,0,,5,,,77,127
733,note_on,0,0,0,,10,,,69,127
940,note_off,207,0,0,,10,,,69,127
942,note_on,2,0,0,,12,,,71,127
1147,note_off,205,0,0,,5,,,77,127
1149,note_off,2,0,0,,12,,,71,127
1151,note_on,2,0,0,,0,,,72,127
1151,note_on,0,0,0,,4,,,76,127
1308,note_off,157,0,0,,4,,,76,127
1358,note_off,50,0,0,,0,,,72,127
1360,note_on,2,0,0,,4,,,76,127
1465,note_on,105,0,0,,0,,,72,127
1480,note_off,15,0,0,,4,,,76,127
1567,note_off,87,0,0,,0,,,72,127
1569,note_on,2,0,0,,7,,,67,127
1674,note_on,105,0,0,,0,,,72,127
1777,note_off,103,0,0,,0,,,72,127
1779,note_on,2,0,0,,7,,,79,127
1984,note_off,205,0,0,,7,,,67,127
1986,note_off,2,0,0,,7,,,79,127
1988,note_on,2,0,0,,10,,,69,127
1988,note_on,0,0,0,,5,,,77,127
2195,note_off,207,0,0,,10,,,69,127
2197,note_on,2,0,0,,12,,,71,127
2402,note_off,205,0,0,,5,,,77,127
2404,note_off,2,0,0,,12,,,71,127
2406,note_on,2,0,0,,0,,,72,127
2406,note_on,0,0,0,,4,,,76,127
2581,note_off,175,0,0,,4,,,76,127
2614,note_off,33,0,0,,0,,,72,127
2616,note_on,2,0,0,,0,,,60,127
2616,note_on,0,0,0,,0,,,72,127
2616,note_on,0,0,0,,7,,,67,127
2616,note_on,0,0,0,,4,,,76,127
2721,note_on,105,0,0,,7,,,55,127
2824,note_off,103,0,0,,7,,,55,127
2826,note_on,2,0,0,,4,,,52,127
2922,note_off,96,0,0,,0,,,60,127
2929,note_off,7,0,0,,4,,,52,127
2931,note_on,2,0,0,,0,,,48,127
3034,note_off,103,0,0,,0,,,48,127
3034,note_off,0,0,0,,4,,,76,127
3034,note_off,0,0,0,,0,,,72,127
3036,note_on,2,0,0,,7,,,43,127
3036,note_on,0,0,0,,5,,,77,127
3036,note_on,0,0,0,,2,,,74,127
3243,note_off,207,0,0,,7,,,43,127
3244,note_off,1,0,0,,7,,,67,127
3245,note_on,1,0,0,,0,,,36,127
3245,note_on,0,0,0,,7,,,67,127
3450,note_off,205,0,0,,2,,,74,127
3450,note_off,0,0,0,,5,,,77,127
3454,note_on,4,0,0,,4,,,76,127
3454,note_on,0,0,0,,0,,,72,127
3661,note_off,207,0,0,,0,,,72,127
3661,note_off,0,0,0,,4,,,76,127
3661,note_off,0,0,0,,0,,,36,127
3663,note_on,2,0,0,,7,,,43,127
3663,note_on,0,0,0,,2,,,74,127
3663,note_on,0,0,0,,12,,,71,127
3820,note_off,157,0,0,,2,,,74,127
3870,note_off,50,0,0,,12,,,71,127
3870,note_off,0,0,0,,7,,,43,127
3871,note_off,1,0,0,,7,,,67,127
3872,note_on,1,0,0,,0,,,60,127
3872,note_on,0,0,0,,0,,,72,127
3872,note_on,0,0,0,,7,,,67,127
3872,note_on,0,0,0,,4,,,76,127
3975,note_off,103,0,0,,0,,,60,127
3977,note_on,2,0,0,,7,,,55,127
4080,note_off,103,0,0,,7,,,55,127
4080,note_off,0,0,0,,4,,,76,127
4082,note_on,2,0,0,,4,,,52,127
4185,note_off,103,0,0,,4,,,52,127
4187,note_on,2,0,0,,0,,,48,127
4290,note_off,103,0,0,,0,,,48,127
4290,note_off,0,0,0,,0,,,72,127
4292,note_on,2,0,0,,7,,,43,127
4292,note_on,0,0,0,,5,,,77,127
4292,note_on,0,0,0,,2,,,74,127
4499,note_off,207,0,0,,7,,,43,127
4500,note_off,1,0,0,,7,,,67,127
4501,note_on,1,0,0,,0,,,36,127
4501,note_on,0,0,0,,7,,,67,127
4706,note_off,205,0,0,,2,,,74,127
4706,note_off,0,0,0,,5,,,77,127
4710,note_on,4,0,0,,0,,,72,127
4710,note_on,0,0,0,,4,,,76,127
4871,note_off,161,0,0,,0,,,36,127
4917,note_off,46,0,0,,4,,,76,127
4917,note_off,0,0,0,,0,,,72,127
4919,note_on,2,0,0,,7,,,43,127
4919,note_on,0,0,0,,12,,,71,127
4919,note_on,0,0,0,,2,,,74,127
5126,note_off,207,0,0,,2,,,74,127
5126,note_off,0,0,0,,12,,,71,127
5126,note_off,0,0,0,,7,,,43,127
5127,note_off,1,0,0,,7,,,67,127
5128,note_on,1,0,0,,0,,,60,127
5128,note_on,0,0,0,,4,,,76,127
5233,note_on,105,0,0,,0,,,72,127
5336,note_off,103,0,0,,0,,,72,127
5336,note_off,0,0,0,,4,,,76,127
5338,note_on,2,0,0,,7,,,67,127
5443,note_on,105,0,0,,0,,,72,127
5546,note_off,103,0,0,,0,,,72,127
5546,note_off,0,0,0,,7,,,67,127
5548,note_on,2,0,0,,10,,,69,127
5548,note_on,0,0,0,,6,,,78,127
5755,note_off,207,0,0,,6,,,78,127
5755,note_off,0,0,0,,10,,,69,127
5755,note_off,0,0,0,,0,,,60,127
5757,note_on,2,0,0,,12,,,59,127
5757,note_on,0,0,0,,12,,,71,127
5757,note_on,0,0,0,,7,,,79,127
5964,note_off,207,0,0,,7,,,79,127
5966,note_on,2,0,0,,2,,,74,127
6173,note_off,207,0,0,,2,,,74,127
6173,note_off,0,0,0,,12,,,59,127
6175,note_on,2,0,0,,7,,,55,127
6175,note_on,0,0,0,,4,,,76,127
6382,note_off,207,0,0,,4,,,76,127
6382,note_off,0,0,0,,7,,,55,127
6383,note_off,1,0,0,,12,,,71,127
6384,note_on,1,0,0,,10,,,57,127
6384,note_on,0,0,0,,2,,,74,127
6452,note_off,68,0,0,,2,,,74,127
6454,note_on,2,0,0,,0,,,72,127
6522,note_off,68,0,0,,0,,,72,127
6524,note_on,2,0,0,,2,,,74,127
6592,note_off,68,0,0,,2,,,74,127
6592,note_off,0,0,0,,10,,,57,127
6594,note_on,2,0,0,,6,,,54,127
6594,note_on,0,0,0,,0,,,72,127
6662,note_off,68,0,0,,0,,,72,127
6664,note_on,2,0,0,,2,,,74,127
6732,note_off,68,0,0,,2,,,74,127
6734,note_on,2,0,0,,0,,,72,127
6802,note_off,68,0,0,,0,,,72,127
6802,note_off,0,0,0,,6,,,54,127
6804,note_on,2,0,0,,2,,,50,127
6804,note_on,0,0,0,,12,,,71,127
6907,note_off,103,0,0,,12,,,71,127
6909,note_on,2,0,0,,0,,,72,127
7012,note_off,103,0,0,,0,,,72,127
7012,note_off,0,0,0,,2,,,50,127
7014,note_on,2,0,0,,7,,,55,127
7014,note_on,0,0,0,,12,,,71,127
7221,note_off,207,0,0,,7,,,55,127
7223,note_on,2,0,0,,2,,,50,127
7428,note_off,205,0,0,,12,,,71,127
7430,note_off,2,0,0,,2,,,50,127
7432,note_on,2,0,0,,12,,,47,127
7639,note_off,207,0,0,,12,,,47,127
7659,note_on,20,0,0,,7,,,79,127
7659,note_on,0,0,0,,7,,,43,127
7764,note_on,105,0,0,,2,,,74,127
7867,note_off,103,0,0,,2,,,74,127
7869,note_on,2,0,0,,12,,,71,127
7974,note_on,105,0,0,,2,,,74,127
8074,note_off,100,0,0,,7,,,79,127
8076,note_off,2,0,0,,2,,,74,127
8076,note_off,0,0,0,,12,,,71,127
8078,note_on,2,0,0,,12,,,83,127
8285,note_off,207,0,0,,7,,,43,127
8287,note_on,2,0,0,,0,,,72,127
8287,note_on,0,0,0,,2,,,38,127
8492,note_off,205,0,0,,12,,,83,127
8496,note_on,4,0,0,,10,,,81,127
8701,note_off,205,0,0,,0,,,72,127
8703,note_off,2,0,0,,10,,,81,127
8703,note_off,0,0,0,,2,,,38,127
8705,note_on,2,0,0,,7,,,79,127
8705,note_on,0,0,0,,12,,,71,127
8705,note_on,0,0,0,,7,,,43,127
8862,note_off,157,0,0,,7,,,79,127
8912,note_off,50,0,0,,7,,,43,127
8912,note_off,0,0,0,,12,,,71,127
8914,note_on,2,0,0,,7,,,79,127
8914,note_on,0,0,0,,7,,,55,127
9019,note_on,105,0,0,,2,,,74,127
9122,note_off,103,0,0,,2,,,74,127
9122,note_off,0,0,0,,7,,,79,127
9124,note_on,2,0,0,,12,,,71,127
9229,note_on,105,0,0,,2,,,74,127
9332,note_off,103,0,0,,2,,,74,127
9334,note_on,2,0,0,,12,,,83,127
9539,note_off,205,0,0,,12,,,71,127
9541,note_off,2,0,0,,7,,,55,127
9543,note_on,2,0,0,,0,,,72,127
9543,note_on,0,0,0,,2,,,50,127
9748,note_off,205,0,0,,12,,,83,127
9752,note_on,4,0,0,,10,,,81,127
9957,note_off,205,0,0,,0,,,72,127
9959,note_off,2,0,0,,10,,,81,127
9959,note_off,0,0,0,,2,,,50,127
9961,note_on,2,0,0,,7,,,79,127
9961,note_on,0,0,0,,12,,,71,127
9961,note_on,0,0,0,,7,,,43,127
10136,note_off,175,0,0,,7,,,79,127
10169,note_off,33,0,0,,7,,,43,127
10169,note_off,0,0,0,,12,,,71,127
10171,note_on,2,0,0,,12,,,83,127
10171,note_on,0,0,0,,7,,,79,127
10171,note_on,0,0,0,,2,,,74,127
10171,note_on,0,0,0,,7,,,67,127
10276,note_on,105,0,0,,2,,,62,127
10379,note_off,103,0,0,,2,,,62,127
10381,note_on,2,0,0,,12,,,59,127
10477,note_off,96,0,0,,7,,,67,127
10484,note_off,7,0,0,,12,,,59,127
10486,note_on,2,0,0,,7,,,55,127
10589,note_off,103,0,0,,7,,,55,127
10589,note_off,0,0,0,,7,,,79,127
10589,note_off,0,0,0,,12,,,83,127
10591,note_on,2,0,0,,10,,,81,127
10591,note_on,0,0,0,,0,,,84,127
10591,note_on,0,0,0,,2,,,50,127
10798,note_off,207,0,0,,2,,,50,127
10799,note_off,1,0,0,,2,,,74,127
10800,note_on,1,0,0,,2,,,74,127
10800,note_on,0,0,0,,7,,,43,127
11005,note_off,205,0,0,,0,,,84,127
11005,note_off,0,0,0,,10,,,81,127
11009,note_on,4,0,0,,7,,,79,127
11009,note_on,0,0,0,,12,,,83,127
11216,note_off,207,0,0,,12,,,83,127
11216,note_off,0,0,0,,7,,,79,127
11216,note_off,0,0,0,,7,,,43,127
11218,note_on,2,0,0,,6,,,78,127
11218,note_on,0,0,0,,10,,,81,127
11218,note_on,0,0,0,,2,,,38,127
11375,note_off,157,0,0,,10,,,81,127
11425,note_off,50,0,0,,2,,,38,127
11425,note_off,0,0,0,,6,,,78,127
11426,note_off,1,0,0,,2,,,74,127
11427,note_on,1,0,0,,7,,,79,127
11427,note_on,0,0,0,,12,,,83,127
11427,note_on,0,0,0,,2,,,74,127
11427,note_on,0,0,0,,7,,,67,127
11530,note_off,103,0,0,,7,,,67,127
11532,note_on,2,0,0,,2,,,62,127
11635,note_off,103,0,0,,2,,,62,127
11635,note_off,0,0,0,,12,,,83,127
11637,note_on,2,0,0,,12,,,59,127
11740,note_off,103,0,0,,12,,,59,127
11742,note_on,2,0,0,,7,,,55,127
11845,note_off,103,0,0,,7,,,55,127
11845,note_off,0,0,0,,7,,,79,127
11847,note_on,2,0,0,,10,,,81,127
11847,note_on,0,0,0,,0,,,84,127
11847,note_on,0,0,0,,2,,,50,127
12054,note_off,207,0,0,,2,,,50,127
12055,note_off,1,0,0,,2,,,74,127
12056,note_on,1,0,0,,2,,,74,127
12056,note_on,0,0,0,,7,,,43,127
12261,note_off,205,0,0,,0,,,84,127
12261,note_off,0,0,0,,10,,,81,127
12265,note_on,4,0,0,,12,,,83,127
12265,note_on,0,0,0,,7,,,79,127
12472,note_off,207,0,0,,7,,,79,127
12472,note_off,0,0,0,,12,,,83,127
12472,note_off,0,0,0,,7,,,43,127
12474,note_on,2,0,0,,10,,,81,127
12474,note_on,0,0,0,,6,,,78,127
12474,note_on,0,0,0,,2,,,38,127
12649,note_off,175,0,0,,2,,,38,127
12682,note_off,33,0,0,,6,,,78,127
12682,note_off,0,0,0,,10,,,81,127
12683,note_off,1,0,0,,2,,,74,127
12684,note_on,1,0,0,,12,,,83,127
12684,note_on,0,0,0,,7,,,43,127
12891,note_off,207,0,0,,7,,,43,127
12891,note_off,0,0,0,,12,,,83,127
12893,note_on,2,0,0,,6,,,78,127
12893,note_on,0,0,0,,10,,,45,127
13100,note_off,207,0,0,,10,,,45,127
13100,note_off,0,0,0,,6,,,78,127
13102,note_on,2,0,0,,7,,,79,127
13102,note_on,0,0,0,,12,,,47,127
13309,note_off,207,0,0,,12,,,47,127
13309,note_off,0,0,0,,7,,,79,127
13311,note_on,2,0,0,,3,,,75,127
13311,note_on,0,0,0,,0,,,48,127
13518,note_off,207,0,0,,3,,,75,127
13520,note_on,2,0,0,,4,,,76,127
13727,note_off,207,0,0,,4,,,76,127
13729,note_on,2,0,0,,7,,,79,127
13936,note_off,207,0,0,,7,,,79,127
13936,note_off,0,0,0,,0,,,48,127
13938,note_on,2,0,0,,2,,,74,127
13938,note_on,0,0,0,,2,,,50,127
14006,note_off,68,0,0,,2,,,74,127
14008,note_on,2,0,0,,0,,,72,127
14076,note_off,68,0,0,,0,,,72,127
14078,note_on,2,0,0,,2,,,74,127
14146,note_off,68,0,0,,2,,,74,127
14146,note_off,0,0,0,,2,,,50,127
14148,note_on,2,0,0,,0,,,72,127
14148,note_on,0,0,0,,4,,,52,127
14216,note_off,68,0,0,,0,,,72,127
14218,note_on,2,0,0,,2,,,74,127
14286,note_off,68,0,0,,2,,,74,127
14288,note_on,2,0,0,,0,,,72,127
14356,note_off,68,0,0,,0,,,72,127
14356,note_off,0,0,0,,4,,,52,127
14358,note_on,2,0,0,,12,,,71,127
14358,note_on,0,0,0,,6,,,54,127
14461,note_off,103,0,0,,12,,,71,127
14463,note_on,2,0,0,,0,,,72,127
14566,note_off,103,0,0,,0,,,72,127
14566,note_off,0,0,0,,6,,,54,127
14568,note_on,2,0,0,,12,,,71,127
14568,note_on,0,0,0,,7,,,55,127
14784,note_on,216,0,0,,2,,,50,127
14785,note_off,1,0,0,,7,,,55,127
15001,note_off,216,0,0,,2,,,50,127
15002,note_on,1,0,0,,7,,,43,127
15026,note_off,24,0,0,,12,,,71,127
15231,note_off,205,0,0,,7,,,43,127
15231,note_on,0,0,0,,7,,,79,127
15231,note_on,0,0,0,,7,,,67,127
15231,note_on,0,0,0,,7,,,55,127
15336,note_on,105,0,0,,2,,,74,127
15439,note_off,103,0,0,,2,,,74,127
15441,note_on,2,0,0,,12,,,71,127
15537,note_off,96,0,0,,7,,,67,127
15544,note_off,7,0,0,,12,,,71,127
15546,note_on,2,0,0,,7,,,67,127
15646,note_off,100,0,0,,7,,,79,127
15648,note_off,2,0,0,,7,,,67,127
15650,note_on,2,0,0,,8,,,80,127
15650,note_on,0,0,0,,0,,,72,127
15650,note_on,0,0,0,,5,,,65,127
15857,note_off,207,0,0,,5,,,65,127
15857,note_off,0,0,0,,0,,,72,127
15858,note_off,1,0,0,,7,,,55,127
15859,note_on,1,0,0,,12,,,71,127
15859,note_on,0,0,0,,7,,,67,127
15859,note_on,0,0,0,,7,,,55,127
16064,note_off,205,0,0,,8,,,80,127
16068,note_on,4,0,0,,7,,,79,127
16273,note_off,205,0,0,,12,,,71,127
16275,note_off,2,0,0,,7,,,79,127
16275,note_off,0,0,0,,7,,,67,127
16277,note_on,2,0,0,,0,,,72,127
16277,note_on,0,0,0,,5,,,77,127
16277,note_on,0,0,0,,8,,,68,127
16484,note_off,207,0,0,,8,,,68,127
16484,note_off,0,0,0,,5,,,77,127
16484,note_off,0,0,0,,0,,,72,127
16485,note_off,1,0,0,,7,,,55,127
16504,note_on,19,0,0,,7,,,55,127
16504,note_on,0,0,0,,7,,,67,127
16504,note_on,0,0,0,,7,,,79,127
16609,note_on,105,0,0,,2,,,74,127
16712,note_off,103,0,0,,2,,,74,127
16714,note_on,2,0,0,,12,,,71,127
16810,note_off,96,0,0,,7,,,67,127
16817,note_off,7,0,0,,12,,,71,127
16819,note_on,2,0,0,,7,,,67,127
16919,note_off,100,0,0,,7,,,79,127
16921,note_off,2,0,0,,7,,,67,127
16923,note_on,2,0,0,,5,,,65,127
16923,note_on,0,0,0,,8,,,80,127
16923,note_on,0,0,0,,0,,,72,127
17130,note_off,207,0,0,,0,,,72,127
17130,note_off,0,0,0,,5,,,65,127
17131,note_off,1,0,0,,7,,,55,127
17132,note_on,1,0,0,,7,,,67,127
17132,note_on,0,0,0,,7,,,55,127
17132,note_on,0,0,0,,12,,,71,127
17337,note_off,205,0,0,,8,,,80,127
17341,note_on,4,0,0,,7,,,79,127
17546,note_off,205,0,0,,12,,,71,127
17548,note_off,2,0,0,,7,,,79,127
17548,note_off,0,0,0,,7,,,67,127
17550,note_on,2,0,0,,8,,,68,127
17550,note_on,0,0,0,,5,,,77,127
17550,note_on,0,0,0,,0,,,72,127
17757,note_off,207,0,0,,0,,,72,127
17757,note_off,0,0,0,,5,,,77,127
17757,note_off,0,0,0,,8,,,68,127
17758,note_off,1,0,0,,7,,,55,127
17777,note_on,19,0,0,,7,,,79,127
17777,note_on,0,0,0,,7,,,55,127
17882,note_on,105,0,0,,2,,,74,127
17985,note_off,103,0,0,,2,,,74,127
17987,note_on,2,0,0,,12,,,71,127
18090,note_off,103,0,0,,12,,,71,127
18092,note_on,2,0,0,,7,,,67,127
18195,note_off,103,0,0,,7,,,67,127
18195,note_off,0,0,0,,7,,,55,127
18197,note_on,2,0,0,,1,,,73,127
18197,note_on,0,0,0,,10,,,57,127
18404,note_off,207,0,0,,10,,,57,127
18404,note_off,0,0,0,,1,,,73,127
18406,note_on,2,0,0,,2,,,74,127
18406,note_on,0,0,0,,11,,,58,127
18614,note_off,208,0,0,,7,,,79,127
18615,note_on,1,0,0,,7,,,79,127
18822,note_off,207,0,0,,7,,,79,127
18822,note_off,0,0,0,,11,,,58,127
18824,note_on,2,0,0,,5,,,77,127
18824,note_on,0,0,0,,10,,,57,127
19031,note_off,207,0,0,,10,,,57,127
19032,note_off,1,0,0,,2,,,74,127
19033,note_on,1,0,0,,11,,,70,127
19033,note_on,0,0,0,,7,,,55,127
19238,note_off,205,0,0,,5,,,77,127
19242,note_on,4,0,0,,4,,,76,127
19449,note_off,207,0,0,,4,,,76,127
19449,note_off,0,0,0,,7,,,55,127
19451,note_on,2,0,0,,2,,,74,127
19451,note_on,0,0,0,,7,,,67,127
19658,note_off,207,0,0,,7,,,67,127
19659,note_off,1,0,0,,11,,,70,127
19660,note_on,1,0,0,,10,,,57,127
19867,note_off,207,0,0,,2,,,74,127
19869,note_on,2,0,0,,1,,,73,127
19972,note_off,103,0,0,,1,,,73,127
19974,note_on,2,0,0,,12,,,71,127
20077,note_off,103,0,0,,12,,,71,127
20079,note_on,2,0,0,,10,,,69,127
20079,note_on,0,0,0,,10,,,45,127
20254,note_off,175,0,0,,10,,,69,127
20288,note_off,34,0,0,,10,,,57,127
20315,note_on,27,0,0,,10,,,69,127
20315,note_on,0,0,0,,10,,,57,127
20315,note_on,0,0,0,,10,,,81,127
20316,note_off,1,0,0,,10,,,45,127
20420,note_on,104,0,0,,4,,,76,127
20523,note_off,103,0,0,,4,,,76,127
20525,note_on,2,0,0,,1,,,73,127
20621,note_off,96,0,0,,10,,,69,127
20628,note_off,7,0,0,,1,,,73,127
20630,note_on,2,0,0,,10,,,69,127
20730,note_off,100,0,0,,10,,,81,127
20732,note_off,2,0,0,,10,,,69,127
20734,note_on,2,0,0,,7,,,67,127
20734,note_on,0,0,0,,11,,,82,127
20734,note_on,0,0,0,,2,,,74,127
20941,note_off,207,0,0,,2,,,74,127
20941,note_off,0,0,0,,7,,,67,127
20942,note_off,1,0,0,,10,,,57,127
20943,note_on,1,0,0,,10,,,57,127
20943,note_on,0,0,0,,10,,,69,127
20943,note_on,0,0,0,,1,,,73,127
21148,note_off,205,0,0,,11,,,82,127
21152,note_on,4,0,0,,10,,,81,127
21357,note_off,205,0,0,,1,,,73,127
21359,note_off,2,0,0,,10,,,81,127
21359,note_off,0,0,0,,10,,,69,127
21361,note_on,2,0,0,,11,,,70,127
21361,note_on,0,0,0,,2,,,74,127
21361,note_on,0,0,0,,7,,,79,127
21568,note_off,207,0,0,,7,,,79,127
21568,note_off,0,0,0,,2,,,74,127
21568,note_off,0,0,0,,11,,,70,127
21569,note_off,1,0,0,,10,,,57,127
21588,note_on,19,0,0,,10,,,81,127
21588,note_on,0,0,0,,10,,,69,127
21588,note_on,0,0,0,,10,,,57,127
21693,note_on,105,0,0,,4,,,76,127
21796,note_off,103,0,0,,4,,,76,127
21798,note_on,2,0,0,,1,,,73,127
21894,note_off,96,0,0,,10,,,69,127
21901,note_off,7,0,0,,1,,,73,127
21903,note_on,2,0,0,,10,,,69,127
22003,note_off,100,0,0,,10,,,81,127
22005,note_off,2,0,0,,10,,,69,127
22007,note_on,2,0,0,,11,,,82,127
22007,note_on,0,0,0,,2,,,74,127
22007,note_on,0,0,0,,7,,,67,127
22214,note_off,207,0,0,,7,,,67,127
22214,note_off,0,0,0,,2,,,74,127
22215,note_off,1,0,0,,10,,,57,127
22216,note_on,1,0,0,,1,,,73,127
22216,note_on,0,0,0,,10,,,69,127
22216,note_on,0,0,0,,10,,,57,127
22421,note_off,205,0,0,,11,,,82,127
22425,note_on,4,0,0,,10,,,81,127
22630,note_off,205,0,0,,1,,,73,127
22632,note_off,2,0,0,,10,,,81,127
22632,note_off,0,0,0,,10,,,69,127
22634,note_on,2,0,0,,7,,,79,127
22634,note_on,0,0,0,,2,,,74,127
22634,note_on,0,0,0,,11,,,70,127
22841,note_off,207,0,0,,11,,,70,127
22841,note_off,0,0,0,,2,,,74,127
22842,note_off,1,0,0,,10,,,57,127
22861,note_on,19,0,0,,10,,,57,127
22861,note_on,0,0,0,,10,,,69,127
22861,note_on,0,0,0,,0,,,72,127
23049,note_off,188,0,0,,7,,,79,127
23071,note_on,22,0,0,,6,,,78,127
23276,note_off,205,0,0,,0,,,72,127
23278,note_off,2,0,0,,6,,,78,127
23278,note_off,0,0,0,,10,,,69,127
23278,note_off,0,0,0,,10,,,57,127
23280,note_on,2,0,0,,7,,,67,127
23280,note_on,0,0,0,,7,,,79,127
23280,note_on,0,0,0,,3,,,75,127
23487,note_off,207,0,0,,7,,,79,127
23487,note_off,0,0,0,,7,,,67,127
23489,note_on,2,0,0,,6,,,66,127
23489,note_on,0,0,0,,10,,,81,127
23694,note_off,205,0,0,,3,,,75,127
23698,note_on,4,0,0,,2,,,74,127
23905,note_off,207,0,0,,2,,,74,127
23905,note_off,0,0,0,,6,,,66,127
23907,note_on,2,0,0,,2,,,62,127
23907,note_on,0,0,0,,0,,,72,127
24114,note_off,207,0,0,,0,,,72,127
24114,note_off,0,0,0,,2,,,62,127
24116,note_on,2,0,0,,7,,,67,127
24116,note_on,0,0,0,,2,,,74,127
24324,note_off,208,0,0,,10,,,81,127
24325,note_on,1,0,0,,11,,,82,127
24532,note_off,207,0,0,,11,,,82,127
24532,note_off,0,0,0,,7,,,67,127
24534,note_on,2,0,0,,2,,,62,127
24534,note_on,0,0,0,,10,,,81,127
24741,note_off,207,0,0,,10,,,81,127
24741,note_off,0,0,0,,2,,,62,127
24743,note_on,2,0,0,,3,,,63,127
24743,note_on,0,0,0,,6,,,78,127
24950,note_off,207,0,0,,6,,,78,127
24951,note_off,1,0,0,,2,,,74,127
24952,note_on,1,0,0,,0,,,72,127
24952,note_on,0,0,0,,10,,,81,127
25020,note_off,68,0,0,,10,,,81,127
25022,note_on,2,0,0,,7,,,79,127
25090,note_off,68,0,0,,7,,,79,127
25092,note_on,2,0,0,,10,,,81,127
25160,note_off,68,0,0,,10,,,81,127
25162,note_on,2,0,0,,7,,,79,127
25230,note_off,68,0,0,,7,,,79,127
25232,note_on,2,0,0,,6,,,78,127
25300,note_off,68,0,0,,6,,,78,127
25302,note_on,2,0,0,,7,,,79,127
25367,note_off,65,0,0,,0,,,72,127
25369,note_off,2,0,0,,7,,,79,127
25369,note_off,0,0,0,,3,,,63,127
25371,note_on,2,0,0,,2,,,62,127
25371,note_on,0,0,0,,2,,,74,127
25371,note_on,0,0,0,,7,,,79,127
25587,note_on,216,0,0,,2,,,50,127
25805,note_on,218,0,0,,10,,,81,127
25806,note_off,1,0,0,,7,,,79,127
25962,note_off,156,0,0,,10,,,81,127
25998,note_off,36,0,0,,2,,,74,127
26001,note_off,3,0,0,,2,,,50,127
26025,note_off,24,0,0,,2,,,62,127
26034,note_on,9,0,0,,2,,,62,127
26034,note_on,0,0,0,,6,,,78,127
26034,note_on,0,0,0,,10,,,81,127
26034,note_on,0,0,0,,2,,,74,127
26137,note_off,103,0,0,,2,,,62,127
26139,note_on,2,0,0,,10,,,57,127
26242,note_off,103,0,0,,10,,,57,127
26244,note_on,2,0,0,,6,,,54,127
26347,note_off,103,0,0,,6,,,54,127
26349,note_on,2,0,0,,2,,,50,127
26452,note_off,103,0,0,,2,,,50,127
26452,note_off,0,0,0,,10,,,81,127
26452,note_off,0,0,0,,6,,,78,127
26454,note_on,2,0,0,,2,,,38,127
26454,note_on,0,0,0,,10,,,81,127
26454,note_on,0,0,0,,0,,,84,127
26661,note_off,207,0,0,,2,,,38,127
26662,note_off,1,0,0,,2,,,74,127
26663,note_on,1,0,0,,7,,,43,127
26663,note_on,0,0,0,,2,,,74,127
26868,note_off,205,0,0,,0,,,84,127
26868,note_off,0,0,0,,10,,,81,127
26872,note_on,4,0,0,,12,,,83,127
26872,note_on,0,0,0,,7,,,79,127
27079,note_off,207,0,0,,7,,,79,127
27079,note_off,0,0,0,,12,,,83,127
27079,note_off,0,0,0,,7,,,43,127
27081,note_on,2,0,0,,2,,,38,127
27081,note_on,0,0,0,,6,,,78,127
27081,note_on,0,0,0,,10,,,81,127
27238,note_off,157,0,0,,10,,,81,127
27288,note_off,50,0,0,,6,,,78,127
27288,note_off,0,0,0,,2,,,38,127
27289,note_off,1,0,0,,2,,,74,127
27308,note_on,19,0,0,,10,,,81,127
27308,note_on,0,0,0,,2,,,74,127
27308,note_on,0,0,0,,6,,,78,127
27308,note_on,0,0,0,,2,,,62,127
27411,note_off,103,0,0,,2,,,62,127
27413,note_on,2,0,0,,10,,,57,127
27516,note_off,103,0,0,,10,,,57,127
27518,note_on,2,0,0,,6,,,54,127
27621,note_off,103,0,0,,6,,,54,127
27623,note_on,2,0,0,,2,,,50,127
27726,note_off,103,0,0,,2,,,50,127
27726,note_off,0,0,0,,6,,,78,127
27726,note_off,0,0,0,,10,,,81,127
27728,note_on,2,0,0,,10,,,81,127
27728,note_on,0,0,0,,0,,,84,127
27728,note_on,0,0,0,,2,,,38,127
27935,note_off,207,0,0,,2,,,38,127
27936,note_off,1,0,0,,2,,,74,127
27937,note_on,1,0,0,,2,,,74,127
27937,note_on,0,0,0,,7,,,43,127
28142,note_off,205,0,0,,0,,,84,127
28142,note_off,0,0,0,,10,,,81,127
28146,note_on,4,0,0,,12,,,83,127
28146,note_on,0,0,0,,7,,,79,127
28353,note_off,207,0,0,,7,,,79,127
28353,note_off,0,0,0,,12,,,83,127
28353,note_off,0,0,0,,7,,,43,127
28355,note_on,2,0,0,,10,,,81,127
28355,note_on,0,0,0,,6,,,78,127
28355,note_on,0,0,0,,2,,,38,127
28512,note_off,157,0,0,,10,,,81,127
28562,note_off,50,0,0,,2,,,38,127
28562,note_off,0,0,0,,6,,,78,127
28563,note_off,1,0,0,,2,,,74,127
28582,note_on,19,0,0,,2,,,62,127
28582,note_on,0,0,0,,2,,,74,127
28582,note_on,0,0,0,,10,,,81,127
28582,note_on,0,0,0,,6,,,78,127
28685,note_off,103,0,0,,2,,,62,127
28687,note_on,2,0,0,,10,,,57,127
28790,note_off,103,0,0,,10,,,57,127
28792,note_on,2,0,0,,6,,,54,127
28895,note_off,103,0,0,,6,,,54,127
28897,note_on,2,0,0,,2,,,50,127
29000,note_off,103,0,0,,2,,,50,127
29000,note_off,0,0,0,,6,,,78,127
29000,note_off,0,0,0,,10,,,81,127
29002,note_on,2,0,0,,2,,,38,127
29002,note_on,0,0,0,,10,,,81,127
29002,note_on,0,0,0,,0,,,84,127
29209,note_off,207,0,0,,2,,,38,127
29210,note_off,1,0,0,,2,,,74,127
29211,note_on,1,0,0,,7,,,43,127
29211,note_on,0,0,0,,2,,,74,127
29416,note_off,205,0,0,,0,,,84,127
29416,note_off,0,0,0,,10,,,81,127
29418,note_off,2,0,0,,7,,,43,127
29420,note_on,2,0,0,,10,,,45,127
29420,note_on,0,0,0,,12,,,83,127
29523,note_off,103,0,0,,12,,,83,127
29525,note_on,2,0,0,,10,,,81,127
29628,note_off,103,0,0,,10,,,81,127
29628,note_off,0,0,0,,10,,,45,127
29630,note_on,2,0,0,,12,,,47,127
29630,note_on,0,0,0,,7,,,79,127
29733,note_off,103,0,0,,7,,,79,127
29735,note_on,2,0,0,,6,,,78,127
29838,note_off,103,0,0,,6,,,78,127
29838,note_off,0,0,0,,12,,,47,127
29839,note_off,1,0,0,,2,,,74,127
29840,note_on,1,0,0,,0,,,48,127
29840,note_on,0,0,0,,4,,,76,127
29908,note_off,68,0,0,,4,,,76,127
29910,note_on,2,0,0,,6,,,78,127
29978,note_off,68,0,0,,6,,,78,127
29980,note_on,2,0,0,,7,,,79,127
30048,note_off,68,0,0,,7,,,79,127
30048,note_off,0,0,0,,0,,,48,127
30050,note_on,2,0,0,,2,,,50,127
30050,note_on,0,0,0,,6,,,78,127
30153,note_off,103,0,0,,6,,,78,127
30155,note_on,2,0,0,,4,,,76,127
30258,note_off,103,0,0,,4,,,76,127
30263,note_on,5,0,0,,2,,,38,127
30263,note_on,0,0,0,,2,,,74,127
30374,note_off,111,0,0,,2,,,74,127
30375,note_on,1,0,0,,0,,,72,127
30464,note_off,89,0,0,,2,,,50,127
30469,note_off,5,0,0,,2,,,38,127
30484,note_off,15,0,0,,0,,,72,127
30485,note_on,1,0,0,,12,,,71,127
30485,note_on,0,0,0,,7,,,67,127
30588,note_off,103,0,0,,7,,,67,127
30590,note_on,2,0,0,,2,,,62,127
30693,note_off,103,0,0,,2,,,62,127
30695,note_on,2,0,0,,12,,,59,127
30798,note_off,103,0,0,,12,,,59,127
30800,note_on,2,0,0,,7,,,55,127
30903,note_off,103,0,0,,12,,,71,127
30905,note_on,2,0,0,,7,,,79,127
30905,note_on,0,0,0,,7,,,43,127
31106,note_off,201,0,0,,7,,,55,127
31113,note_off,7,0,0,,7,,,43,127
31113,note_off,0,0,0,,7,,,79,127
31115,note_on,2,0,0,,0,,,72,127
31115,note_on,0,0,0,,4,,,76,127
31115,note_on,0,0,0,,7,,,67,127
31218,note_off,103,0,0,,7,,,67,127
31220,note_on,2,0,0,,4,,,64,127
31323,note_off,103,0,0,,4,,,64,127
31325,note_on,2,0,0,,0,,,60,127
31428,note_off,103,0,0,,0,,,60,127
31430,note_on,2,0,0,,7,,,55,127
31533,note_off,103,0,0,,4,,,76,127
31535,note_on,2,0,0,,7,,,79,127
31535,note_on,0,0,0,,7,,,43,127
31736,note_off,201,0,0,,7,,,55,127
31743,note_off,7,0,0,,7,,,43,127
31743,note_off,0,0,0,,7,,,79,127
31744,note_off,1,0,0,,0,,,72,127
31745,note_on,1,0,0,,2,,,74,127
31745,note_on,0,0,0,,12,,,71,127
31745,note_on,0,0,0,,7,,,67,127
31848,note_off,103,0,0,,7,,,67,127
31850,note_on,2,0,0,,2,,,62,127
31953,note_off,103,0,0,,2,,,62,127
31955,note_on,2,0,0,,12,,,59,127
32058,note_off,103,0,0,,12,,,59,127
32060,note_on,2,0,0,,7,,,55,127
32163,note_off,103,0,0,,2,,,74,127
32165,note_on,2,0,0,,7,,,79,127
32165,note_on,0,0,0,,7,,,43,127
32366,note_off,201,0,0,,7,,,55,127
32373,note_off,7,0,0,,7,,,43,127
32373,note_off,0,0,0,,7,,,79,127
32374,note_off,1,0,0,,12,,,71,127
32375,note_on,1,0,0,,4,,,76,127
32375,note_on,0,0,0,,0,,,72,127
32375,note_on,0,0,0,,7,,,67,127
32478,note_off,103,0,0,,7,,,67,127
32480,note_on,2,0,0,,4,,,64,127
32583,note_off,103,0,0,,4,,,64,127
32585,note_on,2,0,0,,0,,,60,127
32688,note_off,103,0,0,,0,,,60,127
32690,note_on,2,0,0,,7,,,55,127
32793,note_off,103,0,0,,4,,,76,127
32795,note_on,2,0,0,,7,,,79,127
32795,note_on,0,0,0,,7,,,43,127
32996,note_off,201,0,0,,7,,,55,127
33003,note_off,7,0,0,,7,,,43,127
33003,note_off,0,0,0,,7,,,79,127
33004,note_off,1,0,0,,0,,,72,127
33005,note_on,1,0,0,,12,,,71,127
33005,note_on,0,0,0,,2,,,74,127
33005,note_on,0,0,0,,7,,,67,127
33108,note_off,103,0,0,,7,,,67,127
33110,note_on,2,0,0,,2,,,62,127
33213,note_off,103,0,0,,2,,,62,127
33215,note_on,2,0,0,,12,,,59,127
33318,note_off,103,0,0,,12,,,59,127
33320,note_on,2,0,0,,7,,,55,127
33423,note_off,103,0,0,,2,,,74,127
33425,note_on,2,0,0,,7,,,79,127
33425,note_on,0,0,0,,7,,,43,127
33626,note_off,201,0,0,,7,,,55,127
33633,note_off,7,0,0,,7,,,43,127
33633,note_off,0,0,0,,7,,,79,127
33634,note_off,1,0,0,,12,,,71,127
33635,note_on,1,0,0,,4,,,76,127
33635,note_on,0,0,0,,0,,,72,127
33635,note_on,0,0,0,,0,,,48,127
33842,note_off,207,0,0,,0,,,48,127
33842,note_off,0,0,0,,0,,,72,127
33842,note_off,0,0,0,,4,,,76,127
33844,note_on,2,0,0,,12,,,71,127
33844,note_on,0,0,0,,2,,,74,127
33844,note_on,0,0,0,,2,,,50,127
34051,note_off,207,0,0,,2,,,74,127
34051,note_off,0,0,0,,12,,,71,127
34053,note_on,2,0,0,,0,,,72,127
34053,note_on,0,0,0,,10,,,69,127
34053,note_on,0,0,0,,2,,,38,127
34258,note_off,205,0,0,,2,,,50,127
34260,note_off,2,0,0,,2,,,38,127
34270,note_off,10,0,0,,10,,,69,127
34270,note_off,0,0,0,,0,,,72,127
34280,note_on,10,0,0,,7,,,67,127
34280,note_on,0,0,0,,12,,,71,127
34383,note_off,103,0,0,,7,,,67,127
34385,note_on,2,0,0,,2,,,62,127
34488,note_off,103,0,0,,2,,,62,127
34490,note_on,2,0,0,,12,,,59,127
34593,note_off,103,0,0,,12,,,59,127
34595,note_on,2,0,0,,7,,,55,127
34698,note_off,103,0,0,,12,,,71,127
34700,note_on,2,0,0,,7,,,43,127
34700,note_on,0,0,0,,7,,,79,127
34901,note_off,201,0,0,,7,,,55,127
34908,note_off,7,0,0,,7,,,79,127
34908,note_off,0,0,0,,7,,,43,127
34910,note_on,2,0,0,,7,,,67,127
34910,note_on,0,0,0,,0,,,72,127
34910,note_on,0,0,0,,4,,,76,127
35013,note_off,103,0,0,,7,,,67,127
35015,note_on,2,0,0,,4,,,64,127
35118,note_off,103,0,0,,4,,,64,127
35120,note_on,2,0,0,,0,,,60,127
35223,note_off,103,0,0,,0,,,60,127
35225,note_on,2,0,0,,7,,,55,127
35328,note_off,103,0,0,,4,,,76,127
35330,note_on,2,0,0,,7,,,43,127
35330,note_on,0,0,0,,7,,,79,127
35531,note_off,201,0,0,,7,,,55,127
35538,note_off,7,0,0,,7,,,79,127
35538,note_off,0,0,0,,7,,,43,127
35539,note_off,1,0,0,,0,,,72,127
35540,note_on,1,0,0,,7,,,67,127
35540,note_on,0,0,0,,12,,,71,127
35540,note_on,0,0,0,,2,,,74,127
35643,note_off,103,0,0,,7,,,67,127
35645,note_on,2,0,0,,2,,,62,127
35748,note_off,103,0,0,,2,,,62,127
35750,note_on,2,0,0,,12,,,59,127
35853,note_off,103,0,0,,12,,,59,127
35855,note_on,2,0,0,,7,,,55,127
35958,note_off,103,0,0,,2,,,74,127
35960,note_on,2,0,0,,7,,,43,127
35960,note_on,0,0,0,,7,,,79,127
36161,note_off,201,0,0,,7,,,55,127
36168,note_off,7,0,0,,7,,,79,127
36168,note_off,0,0,0,,7,,,43,127
36169,note_off,1,0,0,,12,,,71,127
36170,note_on,1,0,0,,7,,,67,127
36170,note_on,0,0,0,,0,,,72,127
36170,note_on,0,0,0,,4,,,76,127
36273,note_off,103,0,0,,7,,,67,127
36275,note_on,2,0,0,,4,,,64,127
36378,note_off,103,0,0,,4,,,64,127
36380,note_on,2,0,0,,0,,,60,127
36483,note_off,103,0,0,,0,,,60,127
36485,note_on,2,0,0,,7,,,55,127
36588,note_off,103,0,0,,4,,,76,127
36590,note_on,2,0,0,,7,,,43,127
36590,note_on,0,0,0,,7,,,79,127
36791,note_off,201,0,0,,7,,,55,127
36798,note_off,7,0,0,,7,,,79,127
36798,note_off,0,0,0,,7,,,43,127
36799,note_off,1,0,0,,0,,,72,127
36800,note_on,1,0,0,,7,,,67,127
36800,note_on,0,0,0,,12,,,71,127
36800,note_on,0,0,0,,2,,,74,127
36903,note_off,103,0,0,,7,,,67,127
36905,note_on,2,0,0,,2,,,62,127
37008,note_off,103,0,0,,2,,,62,127
37010,note_on,2,0,0,,12,,,59,127
37113,note_off,103,0,0,,12,,,59,127
37115,note_on,2,0,0,,7,,,55,127
37218,note_off,103,0,0,,2,,,74,127
37220,note_on,2,0,0,,7,,,43,127
37220,note_on,0,0,0,,7,,,79,127
37421,note_off,201,0,0,,7,,,55,127
37428,note_off,7,0,0,,7,,,43,127
37429,note_off,1,0,0,,12,,,71,127
37439,note_on,10,0,0,,0,,,48,127
37439,note_on,0,0,0,,0,,,72,127
37439,note_on,0,0,0,,4,,,76,127
37442,note_off,3,0,0,,7,,,79,127
37646,note_off,204,0,0,,4,,,76,127
37646,note_off,0,0,0,,0,,,72,127
37646,note_off,0,0,0,,0,,,48,127
37648,note_on,2,0,0,,2,,,50,127
37648,note_on,0,0,0,,2,,,74,127
37648,note_on,0,0,0,,12,,,71,127
37855,note_off,207,0,0,,12,,,71,127
37855,note_off,0,0,0,,2,,,74,127
37857,note_on,2,0,0,,2,,,38,127
37857,note_on,0,0,0,,10,,,69,127
37857,note_on,0,0,0,,0,,,72,127
38062,note_off,205,0,0,,2,,,50,127
38064,note_off,2,0,0,,0,,,72,127
38064,note_off,0,0,0,,10,,,69,127
38064,note_off,0,0,0,,2,,,38,127
38066,note_on,2,0,0,,7,,,43,127
38066,note_on,0,0,0,,12,,,71,127
38066,note_on,0,0,0,,7,,,67,127
38273,note_off,207,0,0,,12,,,71,127
38273,note_off,0,0,0,,7,,,43,127
38275,note_on,2,0,0,,10,,,45,127
38275,note_on,0,0,0,,0,,,72,127
38482,note_off,207,0,0,,0,,,72,127
38482,note_off,0,0,0,,10,,,45,127
38484,note_on,2,0,0,,12,,,47,127
38484,note_on,0,0,0,,2,,,74,127
38691,note_off,207,0,0,,2,,,74,127
38691,note_off,0,0,0,,12,,,47,127
38692,note_off,1,0,0,,7,,,67,127
38693,note_on,1,0,0,,0,,,48,127
38693,note_on,0,0,0,,7,,,67,127
38693,note_on,0,0,0,,0,,,72,127
38761,note_off,68,0,0,,0,,,72,127
38763,note_on,2,0,0,,12,,,71,127
38831,note_off,68,0,0,,12,,,71,127
38833,note_on,2,0,0,,10,,,69,127
38901,note_off,68,0,0,,10,,,69,127
38901,note_off,0,0,0,,0,,,48,127
38903,note_on,2,0,0,,2,,,50,127
38903,note_on,0,0,0,,12,,,71,127
39108,note_off,205,0,0,,7,,,67,127
39110,note_off,2,0,0,,12,,,71,127
39112,note_on,2,0,0,,2,,,38,127
39112,note_on,0,0,0,,6,,,66,127
39112,note_on,0,0,0,,10,,,69,127
39317,note_off,205,0,0,,2,,,50,127
39319,note_off,2,0,0,,10,,,69,127
39319,note_off,0,0,0,,6,,,66,127
39319,note_off,0,0,0,,2,,,38,127
39321,note_on,2,0,0,,7,,,43,127
39321,note_on,0,0,0,,10,,,69,127
39389,note_off,68,0,0,,10,,,69,127
39391,note_on,2,0,0,,7,,,67,127
39459,note_off,68,0,0,,7,,,67,127
39461,note_on,2,0,0,,10,,,69,127
39529,note_off,68,0,0,,10,,,69,127
39531,note_on,2,0,0,,7,,,67,127
39836,note_off,305,0,0,,7,,,67,127
39976,note_off,140,0,0,,7,,,43,127
40028,note_on,52,0,0,,7,,,79,127
40028,note_on,0,0,0,,7,,,43,127
40133,note_on,105,0,0,,2,,,74,127
40236,note_off,103,0,0,,2,,,74,127
40238,note_on,2,0,0,,12,,,71,127
40341,note_off,103,0,0,,12,,,71,127
40343,note_on,2,0,0,,7,,,67,127
40443,note_off,100,0,0,,7,,,79,127
40445,note_off,2,0,0,,7,,,67,127
40447,note_on,2,0,0,,5,,,77,127
40447,note_on,0,0,0,,8,,,68,127
40654,note_off,207,0,0,,8,,,68,127
40654,note_off,0,0,0,,7,,,43,127
40656,note_on,2,0,0,,7,,,67,127
40656,note_on,0,0,0,,7,,,43,127
40861,note_off,205,0,0,,5,,,77,127
40863,note_off,2,0,0,,7,,,67,127
40865,note_on,2,0,0,,0,,,72,127
40865,note_on,0,0,0,,3,,,75,127
41072,note_off,207,0,0,,3,,,75,127
41072,note_off,0,0,0,,0,,,72,127
41074,note_on,2,0,0,,12,,,71,127
41074,note_on,0,0,0,,2,,,74,127
41249,note_off,175,0,0,,2,,,74,127
41282,note_off,33,0,0,,12,,,71,127
41282,note_off,0,0,0,,7,,,43,127
41284,note_on,2,0,0,,7,,,79,127
41284,note_on,0,0,0,,7,,,43,127
41389,note_on,105,0,0,,2,,,74,127
41492,note_off,103,0,0,,2,,,74,127
41494,note_on,2,0,0,,12,,,71,127
41597,note_off,103,0,0,,12,,,71,127
41599,note_on,2,0,0,,7,,,67,127
41699,note_off,100,0,0,,7,,,79,127
41701,note_off,2,0,0,,7,,,67,127
41703,note_on,2,0,0,,5,,,77,127
41703,note_on,0,0,0,,8,,,68,127
41910,note_off,207,0,0,,8,,,68,127
41910,note_off,0,0,0,,7,,,43,127
41912,note_on,2,0,0,,7,,,67,127
41912,note_on,0,0,0,,7,,,43,127
42117,note_off,205,0,0,,5,,,77,127
42119,note_off,2,0,0,,7,,,67,127
42121,note_on,2,0,0,,0,,,72,127
42121,note_on,0,0,0,,3,,,75,127
42328,note_off,207,0,0,,3,,,75,127
42328,note_off,0,0,0,,0,,,72,127
42330,note_on,2,0,0,,12,,,71,127
42330,note_on,0,0,0,,2,,,74,127
42505,note_off,175,0,0,,2,,,74,127
42538,note_off,33,0,0,,12,,,71,127
42538,note_off,0,0,0,,7,,,43,127
42558,note_on,20,0,0,,0,,,36,127
42558,note_on,0,0,0,,7,,,79,127
42663,note_on,105,0,0,,4,,,76,127
42766,note_off,103,0,0,,4,,,76,127
42768,note_on,2,0,0,,0,,,72,127
42871,note_off,103,0,0,,0,,,72,127
42873,note_on,2,0,0,,7,,,67,127
42973,note_off,100,0,0,,7,,,79,127
42975,note_off,2,0,0,,7,,,67,127
42977,note_on,2,0,0,,11,,,70,127
42977,note_on,0,0,0,,7,,,79,127
43184,note_off,207,0,0,,11,,,70,127
43184,note_off,0,0,0,,0,,,36,127
43186,note_on,2,0,0,,0,,,48,127
43186,note_on,0,0,0,,8,,,68,127
43391,note_off,205,0,0,,7,,,79,127
43395,note_on,4,0,0,,5,,,77,127
43600,note_off,205,0,0,,8,,,68,127
43602,note_off,2,0,0,,5,,,77,127
43604,note_on,2,0,0,,4,,,76,127
43604,note_on,0,0,0,,7,,,67,127
43779,note_off,175,0,0,,4,,,76,127
43812,note_off,33,0,0,,7,,,67,127
43814,note_on,2,0,0,,0,,,36,127
43814,note_on,0,0,0,,7,,,79,127
43919,note_on,105,0,0,,4,,,76,127
44022,note_off,103,0,0,,4,,,76,127
44024,note_on,2,0,0,,0,,,72,127
44127,note_off,103,0,0,,0,,,72,127
44129,note_on,2,0,0,,7,,,67,127
44229,note_off,100,0,0,,7,,,79,127
44231,note_off,2,0,0,,7,,,67,127
44233,note_on,2,0,0,,11,,,70,127
44233,note_on,0,0,0,,7,,,79,127
44440,note_off,207,0,0,,11,,,70,127
44440,note_off,0,0,0,,0,,,36,127
44442,note_off,2,0,0,,0,,,48,127
44442,note_on,0,0,0,,0,,,48,127
44442,note_on,0,0,0,,8,,,68,127
44647,note_off,205,0,0,,7,,,79,127
44651,note_on,4,0,0,,5,,,77,127
44856,note_off,205,0,0,,8,,,68,127
44858,note_off,2,0,0,,5,,,77,127
44860,note_on,2,0,0,,7,,,67,127
44860,note_on,0,0,0,,4,,,76,127
45035,note_off,175,0,0,,4,,,76,127
45068,note_off,33,0,0,,7,,,67,127
45068,note_off,0,0,0,,0,,,48,127
45088,note_on,20,0,0,,5,,,77,127
45088,note_on,0,0,0,,5,,,41,127
45193,note_on,105,0,0,,0,,,72,127
45296,note_off,103,0,0,,0,,,72,127
45298,note_on,2,0,0,,10,,,69,127
45401,note_off,103,0,0,,10,,,69,127
45403,note_on,2,0,0,,5,,,65,127
45503,note_off,100,0,0,,5,,,77,127
45505,note_off,2,0,0,,5,,,65,127
45507,note_on,2,0,0,,0,,,72,127
45507,note_on,0,0,0,,3,,,75,127
45714,note_off,207,0,0,,5,,,41,127
45716,note_on,2,0,0,,5,,,41,127
45923,note_off,207,0,0,,3,,,75,127
45923,note_off,0,0,0,,0,,,72,127
45925,note_on,2,0,0,,11,,,70,127
45925,note_on,0,0,0,,2,,,74,127
46132,note_off,207,0,0,,2,,,74,127
46132,note_off,0,0,0,,11,,,70,127
46134,note_on,2,0,0,,0,,,72,127
46134,note_on,0,0,0,,10,,,69,127
46309,note_off,175,0,0,,0,,,72,127
46342,note_off,33,0,0,,10,,,69,127
46342,note_off,0,0,0,,5,,,41,127
46362,note_on,20,0,0,,11,,,46,127
46362,note_on,0,0,0,,11,,,82,127
46467,note_on,105,0,0,,5,,,77,127
46570,note_off,103,0,0,,5,,,77,127
46572,note_on,2,0,0,,2,,,74,127
46675,note_off,103,0,0,,2,,,74,127
46677,note_on,2,0,0,,11,,,70,127
46777,note_off,100,0,0,,11,,,82,127
46779,note_off,2,0,0,,11,,,70,127
46781,note_on,2,0,0,,8,,,80,127
46781,note_on,0,0,0,,5,,,77,127
46988,note_off,207,0,0,,11,,,46,127
46990,note_on,2,0,0,,11,,,46,127
47197,note_off,207,0,0,,5,,,77,127
47197,note_off,0,0,0,,8,,,80,127
47199,note_on,2,0,0,,3,,,75,127
47199,note_on,0,0,0,,7,,,79,127
47406,note_off,207,0,0,,7,,,79,127
47406,note_off,0,0,0,,3,,,75,127
47408,note_on,2,0,0,,2,,,74,127
47408,note_on,0,0,0,,5,,,77,127
47583,note_off,175,0,0,,5,,,77,127
47616,note_off,33,0,0,,2,,,74,127
47616,note_off,0,0,0,,11,,,46,127
47636,note_on,20,0,0,,7,,,79,127
47636,note_on,0,0,0,,3,,,51,127
47741,note_on,105,0,0,,3,,,75,127
47844,note_off,103,0,0,,3,,,75,127
47846,note_on,2,0,0,,11,,,70,127
47949,note_off,103,0,0,,11,,,70,127
47951,note_on,2,0,0,,7,,,67,127
48051,note_off,100,0,0,,7,,,79,127
48053,note_off,2,0,0,,7,,,67,127
48053,note_off,0,0,0,,3,,,51,127
48055,note_on,2,0,0,,7,,,79,127
48055,note_on,0,0,0,,7,,,67,127
48055,note_on,0,0,0,,3,,,63,127
48262,note_off,207,0,0,,3,,,63,127
48262,note_off,0,0,0,,7,,,67,127
48264,note_on,2,0,0,,8,,,68,127
48264,note_on,0,0,0,,5,,,65,127
48264,note_on,0,0,0,,2,,,62,127
48469,note_off,205,0,0,,7,,,79,127
48473,note_on,4,0,0,,5,,,77,127
48680,note_off,207,0,0,,5,,,77,127
48680,note_off,0,0,0,,2,,,62,127
48682,note_on,2,0,0,,3,,,75,127
48682,note_on,0,0,0,,0,,,60,127
48889,note_off,207,0,0,,0,,,60,127
48889,note_off,0,0,0,,3,,,75,127
48891,note_on,2,0,0,,2,,,74,127
48891,note_on,0,0,0,,11,,,58,127
49099,note_off,208,0,0,,5,,,65,127
49099,note_off,0,0,0,,8,,,68,127
49100,note_on,1,0,0,,7,,,67,127
49100,note_on,0,0,0,,3,,,63,127
49307,note_off,207,0,0,,3,,,63,127
49307,note_off,0,0,0,,7,,,67,127
49309,note_on,2,0,0,,5,,,65,127
49309,note_on,0,0,0,,2,,,62,127
49516,note_off,207,0,0,,2,,,62,127
49516,note_off,0,0,0,,5,,,65,127
49517,note_off,1,0,0,,11,,,58,127
49518,note_on,1,0,0,,7,,,67,127
49518,note_on,0,0,0,,3,,,63,127
49725,note_off,207,0,0,,7,,,67,127
49726,note_off,1,0,0,,2,,,74,127
49727,note_on,1,0,0,,7,,,79,127
49830,note_off,103,0,0,,3,,,63,127
49832,note_on,2,0,0,,2,,,62,127
49935,note_off,103,0,0,,2,,,62,127
49937,note_on,2,0,0,,0,,,60,127
50040,note_off,103,0,0,,0,,,60,127
50042,note_on,2,0,0,,11,,,58,127
50145,note_off,103,0,0,,11,,,58,127
50147,note_on,2,0,0,,8,,,56,127
50354,note_off,207,0,0,,7,,,79,127
50356,note_on,2,0,0,,5,,,77,127
50459,note_off,103,0,0,,5,,,77,127
50461,note_on,2,0,0,,3,,,75,127
50564,note_off,103,0,0,,3,,,75,127
50566,note_on,2,0,0,,2,,,74,127
50566,note_on,0,0,0,,5,,,65,127
50669,note_off,103,0,0,,2,,,74,127
50671,note_on,2,0,0,,0,,,72,127
50774,note_off,103,0,0,,0,,,72,127
50775,note_off,1,0,0,,8,,,56,127
50776,note_on,1,0,0,,12,,,71,127
50776,note_on,0,0,0,,7,,,55,127
50981,note_off,205,0,0,,5,,,65,127
50983,note_off,2,0,0,,12,,,71,127
50985,note_on,2,0,0,,0,,,72,127
50985,note_on,0,0,0,,3,,,63,127
51192,note_off,207,0,0,,3,,,63,127
51192,note_off,0,0,0,,0,,,72,127
51194,note_on,2,0,0,,2,,,74,127
51194,note_on,0,0,0,,2,,,62,127
51401,note_off,207,0,0,,2,,,62,127
51401,note_off,0,0,0,,2,,,74,127
51402,note_off,1,0,0,,7,,,55,127
51403,note_on,1,0,0,,0,,,72,127
51403,note_on,0,0,0,,3,,,75,127
51403,note_on,0,0,0,,0,,,60,127
51610,note_off,207,0,0,,0,,,60,127
51610,note_off,0,0,0,,3,,,75,127
51610,note_off,0,0,0,,0,,,72,127
51612,note_on,2,0,0,,5,,,77,127
51612,note_on,0,0,0,,2,,,74,127
51612,note_on,0,0,0,,12,,,59,127
51819,note_off,207,0,0,,12,,,59,127
51819,note_off,0,0,0,,2,,,74,127
51819,note_off,0,0,0,,5,,,77,127
51821,note_on,2,0,0,,3,,,75,127
51821,note_on,0,0,0,,0,,,72,127
51821,note_on,0,0,0,,0,,,60,127
52028,note_off,207,0,0,,0,,,60,127
52030,note_on,2,0,0,,7,,,55,127
52237,note_off,207,0,0,,0,,,72,127
52237,note_off,0,0,0,,3,,,75,127
52239,note_on,2,0,0,,2,,,74,127
52239,note_on,0,0,0,,12,,,71,127
52239,note_on,0,0,0,,3,,,75,127
52342,note_off,103,0,0,,3,,,75,127
52342,note_off,0,0,0,,2,,,74,127
52351,note_on,9,0,0,,0,,,72,127
52454,note_off,103,0,0,,0,,,72,127
52469,note_on,15,0,0,,2,,,74,127
52626,note_off,157,0,0,,2,,,74,127
52654,note_off,28,0,0,,12,,,71,127
52656,note_off,2,0,0,,7,,,55,127
52693,note_on,37,0,0,,12,,,71,127
52693,note_on,0,0,0,,2,,,74,127
52693,note_on,0,0,0,,7,,,67,127
52796,note_off,103,0,0,,7,,,67,127
52798,note_on,2,0,0,,2,,,62,127
52901,note_off,103,0,0,,2,,,62,127
52903,note_on,2,0,0,,12,,,59,127
53006,note_off,103,0,0,,12,,,59,127
53008,note_on,2,0,0,,7,,,55,127
53111,note_off,103,0,0,,7,,,55,127
53111,note_off,0,0,0,,2,,,74,127
53111,note_off,0,0,0,,12,,,71,127
53113,note_on,2,0,0,,5,,,77,127
53113,note_on,0,0,0,,2,,,74,127
53113,note_on,0,0,0,,7,,,43,127
53320,note_off,207,0,0,,7,,,43,127
53322,note_on,2,0,0,,0,,,36,127
53529,note_off,207,0,0,,2,,,74,127
53529,note_off,0,0,0,,5,,,77,127
53531,note_on,2,0,0,,0,,,72,127
53531,note_on,0,0,0,,4,,,76,127
53738,note_off,207,0,0,,4,,,76,127
53738,note_off,0,0,0,,0,,,72,127
53738,note_off,0,0,0,,0,,,36,127
53740,note_on,2,0,0,,2,,,74,127
53740,note_on,0,0,0,,12,,,71,127
53740,note_on,0,0,0,,7,,,43,127
53897,note_off,157,0,0,,2,,,74,127
53947,note_off,50,0,0,,7,,,43,127
53947,note_off,0,0,0,,12,,,71,127
53967,note_on,20,0,0,,7,,,67,127
53967,note_on,0,0,0,,12,,,71,127
53967,note_on,0,0,0,,2,,,74,127
54070,note_off,103,0,0,,7,,,67,127
54072,note_on,2,0,0,,2,,,62,127
54175,note_off,103,0,0,,2,,,62,127
54177,note_on,2,0,0,,12,,,59,127
54280,note_off,103,0,0,,12,,,59,127
54282,note_on,2,0,0,,7,,,55,127
54385,note_off,103,0,0,,7,,,55,127
54385,note_off,0,0,0,,2,,,74,127
54385,note_off,0,0,0,,12,,,71,127
54387,note_on,2,0,0,,7,,,43,127
54387,note_on,0,0,0,,2,,,74,127
54387,note_on,0,0,0,,5,,,77,127
54594,note_off,207,0,0,,7,,,43,127
54596,note_on,2,0,0,,0,,,36,127
54803,note_off,207,0,0,,5,,,77,127
54803,note_off,0,0,0,,2,,,74,127
54805,note_on,2,0,0,,0,,,72,127
54805,note_on,0,0,0,,4,,,76,127
55012,note_off,207,0,0,,4,,,76,127
55012,note_off,0,0,0,,0,,,72,127
55012,note_off,0,0,0,,0,,,36,127
55014,note_on,2,0,0,,7,,,43,127
55014,note_on,0,0,0,,2,,,74,127
55014,note_on,0,0,0,,12,,,71,127
55171,note_off,157,0,0,,2,,,74,127
55221,note_off,50,0,0,,12,,,71,127
55221,note_off,0,0,0,,7,,,43,127
55241,note_on,20,0,0,,2,,,74,127
55241,note_on,0,0,0,,12,,,71,127
55241,note_on,0,0,0,,7,,,67,127
55344,note_off,103,0,0,,7,,,67,127
55346,note_on,2,0,0,,2,,,62,127
55449,note_off,103,0,0,,2,,,62,127
55451,note_on,2,0,0,,12,,,59,127
55554,note_off,103,0,0,,12,,,59,127
55556,note_on,2,0,0,,7,,,55,127
55659,note_off,103,0,0,,7,,,55,127
55659,note_off,0,0,0,,12,,,71,127
55659,note_off,0,0,0,,2,,,74,127
55661,note_on,2,0,0,,2,,,74,127
55661,note_on,0,0,0,,5,,,77,127
55661,note_on,0,0,0,,7,,,43,127
55868,note_off,207,0,0,,7,,,43,127
55868,note_off,0,0,0,,5,,,77,127
55868,note_off,0,0,0,,2,,,74,127
55870,note_on,2,0,0,,0,,,72,127
55870,note_on,0,0,0,,4,,,76,127
55870,note_on,0,0,0,,0,,,60,127
55870,note_on,0,0,0,,0,,,48,127
56077,note_off,207,0,0,,0,,,48,127
56077,note_off,0,0,0,,0,,,60,127
56077,note_off,0,0,0,,4,,,76,127
56079,note_on,2,0,0,,5,,,77,127
56079,note_on,0,0,0,,2,,,50,127
56079,note_on,0,0,0,,2,,,62,127
56286,note_off,207,0,0,,2,,,62,127
56286,note_off,0,0,0,,2,,,50,127
56286,note_off,0,0,0,,5,,,77,127
56288,note_on,2,0,0,,7,,,79,127
56288,note_on,0,0,0,,4,,,64,127
56288,note_on,0,0,0,,4,,,52,127
56495,note_off,207,0,0,,4,,,52,127
56495,note_off,0,0,0,,4,,,64,127
56495,note_off,0,0,0,,7,,,79,127
56496,note_off,1,0,0,,0,,,72,127
56497,note_on,1,0,0,,5,,,77,127
56497,note_on,0,0,0,,0,,,72,127
56497,note_on,0,0,0,,5,,,53,127
56565,note_off,68,0,0,,5,,,77,127
56567,note_on,2,0,0,,4,,,76,127
56635,note_off,68,0,0,,4,,,76,127
56637,note_on,2,0,0,,2,,,74,127
56705,note_off,68,0,0,,2,,,74,127
56705,note_off,0,0,0,,5,,,53,127
56707,note_on,2,0,0,,4,,,76,127
56707,note_on,0,0,0,,7,,,55,127
56912,note_off,205,0,0,,0,,,72,127
56914,note_off,2,0,0,,4,,,76,127
56916,note_on,2,0,0,,2,,,74,127
56916,note_on,0,0,0,,12,,,71,127
56916,note_on,0,0,0,,7,,,43,127
57121,note_off,205,0,0,,7,,,55,127
57123,note_off,2,0,0,,7,,,43,127
57123,note_off,0,0,0,,12,,,71,127
57123,note_off,0,0,0,,2,,,74,127
57143,note_on,20,0,0,,0,,,60,127
57143,note_on,0,0,0,,0,,,72,127
57246,note_off,103,0,0,,0,,,60,127
57248,note_on,2,0,0,,7,,,55,127
57351,note_off,103,0,0,,7,,,55,127
57353,note_on,2,0,0,,4,,,52,127
57353,note_on,0,0,0,,4,,,76,127
57456,note_off,103,0,0,,4,,,52,127
57458,note_on,2,0,0,,0,,,48,127
57561,note_off,103,0,0,,4,,,76,127
57563,note_on,2,0,0,,0,,,36,127
57563,note_on,0,0,0,,7,,,79,127
57764,note_off,201,0,0,,0,,,48,127
57771,note_off,7,0,0,,7,,,79,127
57771,note_off,0,0,0,,0,,,36,127
57772,note_off,1,0,0,,0,,,72,127
57773,note_on,1,0,0,,0,,,60,127
57773,note_on,0,0,0,,10,,,69,127
57876,note_off,103,0,0,,0,,,60,127
57878,note_on,2,0,0,,10,,,57,127
57981,note_off,103,0,0,,10,,,57,127
57983,note_on,2,0,0,,5,,,53,127
57983,note_on,0,0,0,,0,,,72,127
58086,note_off,103,0,0,,5,,,53,127
58088,note_on,2,0,0,,0,,,48,127
58191,note_off,103,0,0,,0,,,72,127
58193,note_on,2,0,0,,0,,,36,127
58193,note_on,0,0,0,,5,,,77,127
58394,note_off,201,0,0,,0,,,48,127
58401,note_off,7,0,0,,5,,,77,127
58401,note_off,0,0,0,,0,,,36,127
58402,note_off,1,0,0,,10,,,69,127
58403,note_on,1,0,0,,0,,,60,127
58403,note_on,0,0,0,,7,,,67,127
58506,note_off,103,0,0,,0,,,60,127
58508,note_on,2,0,0,,7,,,55,127
58611,note_off,103,0,0,,7,,,55,127
58613,note_on,2,0,0,,4,,,52,127
58613,note_on,0,0,0,,0,,,72,127
58716,note_off,103,0,0,,4,,,52,127
58718,note_on,2,0,0,,0,,,48,127
58821,note_off,103,0,0,,0,,,72,127
58823,note_on,2,0,0,,0,,,36,127
58823,note_on,0,0,0,,4,,,76,127
59024,note_off,201,0,0,,0,,,48,127
59031,note_off,7,0,0,,4,,,76,127
59031,note_off,0,0,0,,0,,,36,127
59032,note_off,1,0,0,,7,,,67,127
59033,note_on,1,0,0,,0,,,60,127
59033,note_on,0,0,0,,10,,,69,127
59136,note_off,103,0,0,,0,,,60,127
59138,note_on,2,0,0,,10,,,57,127
59241,note_off,103,0,0,,10,,,57,127
59243,note_on,2,0,0,,5,,,53,127
59243,note_on,0,0,0,,0,,,72,127
59346,note_off,103,0,0,,5,,,53,127
59348,note_on,2,0,0,,0,,,48,127
59451,note_off,103,0,0,,0,,,72,127
59453,note_on,2,0,0,,0,,,36,127
59453,note_on,0,0,0,,5,,,77,127
59654,note_off,201,0,0,,0,,,48,127
59661,note_off,7,0,0,,5,,,77,127
59661,note_off,0,0,0,,0,,,36,127
59662,note_off,1,0,0,,10,,,69,127
59663,note_on,1,0,0,,0,,,60,127
59663,note_on,0,0,0,,7,,,67,127
59766,note_off,103,0,0,,0,,,60,127
59768,note_on,2,0,0,,7,,,55,127
59871,note_off,103,0,0,,7,,,55,127
59873,note_on,2,0,0,,4,,,52,127
59873,note_on,0,0,0,,0,,,72,127
59976,note_off,103,0,0,,4,,,52,127
59978,note_on,2,0,0,,0,,,48,127
60078,note_off,100,0,0,,7,,,67,127
60080,note_off,2,0,0,,0,,,72,127
60082,note_on,2,0,0,,0,,,36,127
60082,note_on,0,0,0,,4,,,76,127
60283,note_off,201,0,0,,0,,,48,127
60290,note_off,7,0,0,,4,,,76,127
60290,note_off,0,0,0,,0,,,36,127
60292,note_on,2,0,0,,5,,,53,127
60292,note_on,0,0,0,,2,,,74,127
60292,note_on,0,0,0,,5,,,65,127
60499,note_off,207,0,0,,5,,,65,127
60499,note_off,0,0,0,,2,,,74,127
60499,note_off,0,0,0,,5,,,53,127
60501,note_on,2,0,0,,7,,,55,127
60501,note_on,0,0,0,,0,,,72,127
60501,note_on,0,0,0,,4,,,64,127
60708,note_off,207,0,0,,4,,,64,127
60708,note_off,0,0,0,,0,,,72,127
60710,note_on,2,0,0,,7,,,43,127
60710,note_on,0,0,0,,2,,,62,127
60710,note_on,0,0,0,,12,,,71,127
60915,note_off,205,0,0,,7,,,55,127
60917,note_off,2,0,0,,12,,,71,127
60917,note_off,0,0,0,,2,,,62,127
60917,note_off,0,0,0,,7,,,43,127
60930,note_on,13,0,0,,0,,,72,127
60930,note_on,0,0,0,,0,,,60,127
61033,note_off,103,0,0,,0,,,60,127
61042,note_on,9,0,0,,7,,,55,127
61145,note_off,103,0,0,,7,,,55,127
61147,note_on,2,0,0,,4,,,52,127
61250,note_off,103,0,0,,4,,,52,127
61252,note_on,2,0,0,,0,,,48,127
61348,note_off,96,0,0,,0,,,72,127
61357,note_on,9,0,0,,0,,,84,127
61357,note_on,0,0,0,,0,,,36,127
61558,note_off,201,0,0,,0,,,48,127
61565,note_off,7,0,0,,0,,,36,127
61567,note_on,2,0,0,,10,,,81,127
61567,note_on,0,0,0,,0,,,60,127
61670,note_off,103,0,0,,0,,,60,127
61672,note_on,2,0,0,,10,,,57,127
61775,note_off,103,0,0,,10,,,57,127
61775,note_off,0,0,0,,10,,,81,127
61777,note_on,2,0,0,,5,,,77,127
61777,note_on,0,0,0,,5,,,53,127
61880,note_off,103,0,0,,5,,,53,127
61882,note_on,2,0,0,,0,,,48,127
61985,note_off,103,0,0,,5,,,77,127
61986,note_off,1,0,0,,0,,,84,127
61987,note_on,1,0,0,,0,,,84,127
61987,note_on,0,0,0,,0,,,36,127
62188,note_off,201,0,0,,0,,,48,127
62195,note_off,7,0,0,,0,,,36,127
62197,note_on,2,0,0,,7,,,79,127
62197,note_on,0,0,0,,0,,,60,127
62300,note_off,103,0,0,,0,,,60,127
62302,note_on,2,0,0,,7,,,55,127
62405,note_off,103,0,0,,7,,,55,127
62405,note_off,0,0,0,,7,,,79,127
62407,note_on,2,0,0,,4,,,76,127
62407,note_on,0,0,0,,4,,,52,127
62510,note_off,103,0,0,,4,,,52,127
62512,note_on,2,0,0,,0,,,48,127
62615,note_off,103,0,0,,4,,,76,127
62616,note_off,1,0,0,,0,,,84,127
62617,note_on,1,0,0,,0,,,84,127
62617,note_on,0,0,0,,0,,,36,127
62818,note_off,201,0,0,,0,,,48,127
62825,note_off,7,0,0,,0,,,36,127
62827,note_on,2,0,0,,10,,,81,127
62827,note_on,0,0,0,,0,,,60,127
62930,note_off,103,0,0,,0,,,60,127
62932,note_on,2,0,0,,10,,,57,127
63035,note_off,103,0,0,,10,,,57,127
63035,note_off,0,0,0,,10,,,81,127
63037,note_on,2,0,0,,5,,,77,127
63037,note_on,0,0,0,,5,,,53,127
63140,note_off,103,0,0,,5,,,53,127
63142,note_on,2,0,0,,0,,,48,127
63245,note_off,103,0,0,,5,,,77,127
63246,note_off,1,0,0,,0,,,84,127
63247,note_on,1,0,0,,0,,,84,127
63247,note_on,0,0,0,,0,,,36,127
63448,note_off,201,0,0,,0,,,48,127
63455,note_off,7,0,0,,0,,,36,127
63457,note_on,2,0,0,,7,,,79,127
63457,note_on,0,0,0,,0,,,60,127
63560,note_off,103,0,0,,0,,,60,127
63562,note_on,2,0,0,,7,,,55,127
63665,note_off,103,0,0,,7,,,55,127
63665,note_off,0,0,0,,7,,,79,127
63667,note_on,2,0,0,,4,,,76,127
63667,note_on,0,0,0,,4,,,52,127
63770,note_off,103,0,0,,4,,,52,127
63772,note_on,2,0,0,,0,,,48,127
63875,note_off,103,0,0,,4,,,76,127
63876,note_off,1,0,0,,0,,,84,127
63877,note_on,1,0,0,,0,,,84,127
63877,note_on,0,0,0,,0,,,36,127
64078,note_off,201,0,0,,0,,,48,127
64095,note_off,17,0,0,,0,,,36,127
64095,note_off,0,0,0,,0,,,84,127
64104,note_on,9,0,0,,10,,,81,127
64104,note_on,0,0,0,,5,,,41,127
64311,note_off,207,0,0,,5,,,41,127
64311,note_off,0,0,0,,10,,,81,127
64313,note_on,2,0,0,,7,,,79,127
64313,note_on,0,0,0,,7,,,43,127
64416,note_off,103,0,0,,7,,,79,127
64418,note_on,2,0,0,,5,,,77,127
64521,note_off,103,0,0,,5,,,77,127
64521,note_off,0,0,0,,7,,,43,127
64523,note_on,2,0,0,,4,,,76,127
64523,note_on,0,0,0,,12,,,47,127
64626,note_off,103,0,0,,4,,,76,127
64628,note_on,2,0,0,,2,,,74,127
64731,note_off,103,0,0,,2,,,74,127
64731,note_off,0,0,0,,12,,,47,127
64733,note_on,2,0,0,,4,,,76,127
64733,note_on,0,0,0,,0,,,48,127
64838,note_on,105,0,0,,7,,,79,127
64908,note_off,70,0,0,,4,,,76,127
64941,note_off,33,0,0,,7,,,79,127
64941,note_off,0,0,0,,0,,,48,127
64943,note_on,2,0,0,,12,,,71,127
64943,note_on,0,0,0,,2,,,50,127
65048,note_on,105,0,0,,2,,,74,127
65118,note_off,70,0,0,,12,,,71,127
65151,note_off,33,0,0,,2,,,50,127
65152,note_off,1,0,0,,2,,,74,127
65153,note_on,1,0,0,,0,,,72,127
65153,note_on,0,0,0,,4,,,52,127
65258,note_on,105,0,0,,4,,,76,127
65328,note_off,70,0,0,,0,,,72,127
65361,note_off,33,0,0,,4,,,76,127
65361,note_off,0,0,0,,4,,,52,127
65365,note_on,4,0,0,,5,,,53,127
65365,note_on,0,0,0,,5,,,65,127
65474,note_on,109,0,0,,2,,,74,127
65546,note_off,72,0,0,,5,,,65,127
65580,note_off,34,0,0,,5,,,53,127
65583,note_on,3,0,0,,7,,,55,127
65583,note_on,0,0,0,,4,,,64,127
65655,note_off,72,0,0,,2,,,74,127
65692,note_on,37,0,0,,0,,,72,127
65764,note_off,72,0,0,,4,,,64,127
65801,note_on,37,0,0,,7,,,43,127
65801,note_on,0,0,0,,2,,,62,127
65873,note_off,72,0,0,,0,,,72,127
65914,note_on,41,0,0,,12,,,71,127
65982,note_off,68,0,0,,2,,,62,127
66014,note_off,32,0,0,,7,,,55,127
66016,note_off,2,0,0,,7,,,43,127
66048,note_off,32,0,0,,12,,,71,127
66067,note_on,19,0,0,,0,,,36,127
66067,note_on,0,0,0,,0,,,60,127
68078,note_off,2011,0,0,,0,,,60,127
68078,note_off,0,0,0,,0,,,36,127
72192,end_of_track,4114,1,0,,,,,,
