tick,type,time,meta,track,program,channel,pitch,tempo,note,velocity
0,copyright,0,1,0,,,,,,
0,program_change,0,0,0,6,0,,,,
0,pitchwheel,0,0,0,,0,0,,,
0,program_change,0,0,0,6,1,,,,
0,pitchwheel,0,0,0,,1,-590,,,
0,program_change,0,0,0,6,2,,,,
0,pitchwheel,0,0,0,,2,-272,,,
0,program_change,0,0,0,6,3,,,,
0,pitchwheel,0,0,0,,3,-353,,,
0,program_change,0,0,0,6,4,,,,
0,pitchwheel,0,0,0,,4,-560,,,
0,program_change,0,0,0,6,5,,,,
0,pitchwheel,0,0,0,,5,-80,,,
0,program_change,0,0,0,6,6,,,,
0,pitchwheel,0,0,0,,6,-625,,,
0,program_change,0,0,0,6,7,,,,
0,pitchwheel,0,0,0,,7,-130,,,
0,program_change,0,0,0,6,8,,,,
0,pitchwheel,0,0,0,,8,-512,,,
0,program_change,0,0,0,6,10,,,,
0,pitchwheel,0,0,0,,10,-464,,,
0,program_change,0,0,0,6,11,,,,
0,pitchwheel,0,0,0,,11,-208,,,
0,program_change,0,0,0,6,12,,,,
0,pitchwheel,0,0,0,,12,-553,,,
0,set_tempo,0,1,0,,,,500000,,
99,note_on,99,0,0,,2,,,62,127
694,note_off,595,0,0,,2,,,62,127
695,note_on,1,0,0,,12,,,59,127
893,note_off,198,0,0,,12,,,59,127
894,note_on,1,0,0,,10,,,57,127
1092,note_off,198,0,0,,10,,,57,127
1093,note_on,1,0,0,,7,,,55,127
1291,note_off,198,0,0,,7,,,55,127
1292,note_on,1,0,0,,2,,,62,127
1887,note_off,595,0,0,,2,,,62,127
1888,note_on,1,0,0,,12,,,59,127
2086,note_off,198,0,0,,12,,,59,127
2087,note_on,1,0,0,,10,,,57,127
2285,note_off,198,0,0,,10,,,57,127
2286,note_on,1,0,0,,7,,,55,127
2484,note_off,198,0,0,,7,,,55,127
2485,note_on,1,0,0,,4,,,64,127
2683,note_off,198,0,0,,4,,,64,127
2684,note_on,1,0,0,,2,,,62,127
2882,note_off,198,0,0,,2,,,62,127
2883,note_on,1,0,0,,0,,,60,127
3081,note_off,198,0,0,,0,,,60,127
3082,note_on,1,0,0,,12,,,59,127
3280,note_off,198,0,0,,12,,,59,127
3281,note_on,1,0,0,,10,,,57,127
3479,note_off,198,0,0,,10,,,57,127
3480,note_on,1,0,0,,7,,,55,127
3678,note_off,198,0,0,,7,,,55,127
3679,note_on,1,0,0,,6,,,54,127
3878,note_on,199,0,0,,2,,,50,127
3884,note_off,6,0,0,,6,,,54,127
4075,note_off,191,0,0,,2,,,50,127
4076,note_on,1,0,0,,7,,,55,127
4274,note_off,198,0,0,,7,,,55,127
4275,note_on,1,0,0,,10,,,57,127
4473,note_off,198,0,0,,10,,,57,127
4474,note_on,1,0,0,,7,,,55,127
4672,note_off,198,0,0,,7,,,55,127
4673,note_on,1,0,0,,6,,,54,127
4871,note_off,198,0,0,,6,,,54,127
4872,note_on,1,0,0,,7,,,55,127
4872,note_on,0,0,0,,7,,,67,127
5070,note_off,198,0,0,,7,,,55,127
5071,note_on,1,0,0,,12,,,59,127
5269,note_off,198,0,0,,12,,,59,127
5270,note_on,1,0,0,,7,,,55,127
5468,note_off,198,0,0,,7,,,55,127
5468,note_off,0,0,0,,7,,,67,127
5469,note_on,1,0,0,,2,,,50,127
5469,note_on,0,0,0,,6,,,66,127
5667,note_off,198,0,0,,6,,,66,127
5668,note_on,1,0,0,,4,,,64,127
5866,note_off,198,0,0,,4,,,64,127
5867,note_on,1,0,0,,2,,,62,127
6065,note_off,198,0,0,,2,,,62,127
6065,note_off,0,0,0,,2,,,50,127
6066,note_on,1,0,0,,7,,,55,127
6066,note_on,0,0,0,,7,,,67,127
6264,note_off,198,0,0,,7,,,55,127
6265,note_on,1,0,0,,12,,,59,127
6463,note_off,198,0,0,,12,,,59,127
6464,note_on,1,0,0,,1,,,61,127
6662,note_off,198,0,0,,1,,,61,127
6662,note_off,0,0,0,,7,,,67,127
6663,note_on,1,0,0,,2,,,62,127
6663,note_on,0,0,0,,6,,,66,127
6861,note_off,198,0,0,,6,,,66,127
6862,note_on,1,0,0,,4,,,64,127
7056,note_off,194,0,0,,2,,,62,127
7059,note_off,3,0,0,,4,,,64,127
7060,note_on,1,0,0,,2,,,62,127
7258,note_off,198,0,0,,2,,,62,127
7259,note_on,1,0,0,,7,,,55,127
7259,note_on,0,0,0,,12,,,71,127
7457,note_off,198,0,0,,12,,,71,127
7458,note_on,1,0,0,,10,,,69,127
7656,note_off,198,0,0,,10,,,69,127
7657,note_on,1,0,0,,7,,,67,127
7855,note_off,198,0,0,,7,,,67,127
7856,note_on,1,0,0,,6,,,66,127
8054,note_off,198,0,0,,6,,,66,127
8055,note_on,1,0,0,,4,,,64,127
8253,note_off,198,0,0,,4,,,64,127
8254,note_on,1,0,0,,2,,,62,127
8452,note_off,198,0,0,,2,,,62,127
8453,note_on,1,0,0,,1,,,61,127
8652,note_on,199,0,0,,10,,,57,127
8846,note_off,194,0,0,,1,,,61,127
8849,note_off,3,0,0,,10,,,57,127
8849,note_off,0,0,0,,7,,,55,127
8850,note_on,1,0,0,,6,,,54,127
8850,note_on,0,0,0,,2,,,62,127
9048,note_off,198,0,0,,2,,,62,127
9048,note_off,0,0,0,,6,,,54,127
9049,note_on,1,0,0,,7,,,55,127
9049,note_on,0,0,0,,4,,,64,127
9247,note_off,198,0,0,,4,,,64,127
9248,note_on,1,0,0,,2,,,62,127
9446,note_off,198,0,0,,2,,,62,127
9446,note_off,0,0,0,,7,,,55,127
9447,note_on,1,0,0,,10,,,57,127
9447,note_on,0,0,0,,1,,,61,127
9645,note_off,198,0,0,,1,,,61,127
9645,note_off,0,0,0,,10,,,57,127
9654,note_on,9,0,0,,2,,,74,127
9654,note_on,0,0,0,,2,,,50,127
9852,note_off,198,0,0,,2,,,50,127
9853,note_on,1,0,0,,4,,,52,127
10051,note_off,198,0,0,,4,,,52,127
10052,note_on,1,0,0,,6,,,54,127
10250,note_off,198,0,0,,6,,,54,127
10250,note_off,0,0,0,,2,,,74,127
10251,note_on,1,0,0,,12,,,71,127
10251,note_on,0,0,0,,7,,,55,127
10449,note_off,198,0,0,,12,,,71,127
10450,note_on,1,0,0,,10,,,69,127
10648,note_off,198,0,0,,10,,,69,127
10649,note_on,1,0,0,,7,,,67,127
10847,note_off,198,0,0,,7,,,67,127
10847,note_off,0,0,0,,7,,,55,127
10848,note_on,1,0,0,,2,,,74,127
10848,note_on,0,0,0,,2,,,50,127
11046,note_off,198,0,0,,2,,,50,127
11047,note_on,1,0,0,,4,,,52,127
11245,note_off,198,0,0,,4,,,52,127
11246,note_on,1,0,0,,6,,,54,127
11444,note_off,198,0,0,,6,,,54,127
11444,note_off,0,0,0,,2,,,74,127
11445,note_on,1,0,0,,12,,,71,127
11445,note_on,0,0,0,,7,,,55,127
11643,note_off,198,0,0,,12,,,71,127
11644,note_on,1,0,0,,10,,,69,127
11842,note_off,198,0,0,,10,,,69,127
11843,note_on,1,0,0,,7,,,67,127
12041,note_off,198,0,0,,7,,,67,127
12041,note_off,0,0,0,,7,,,55,127
12042,note_on,1,0,0,,4,,,76,127
12042,note_on,0,0,0,,0,,,60,127
12240,note_off,198,0,0,,4,,,76,127
12241,note_on,1,0,0,,2,,,74,127
12439,note_off,198,0,0,,2,,,74,127
12440,note_on,1,0,0,,0,,,72,127
12638,note_off,198,0,0,,0,,,72,127
12639,note_on,1,0,0,,12,,,71,127
12837,note_off,198,0,0,,12,,,71,127
12838,note_on,1,0,0,,10,,,69,127
13036,note_off,198,0,0,,10,,,69,127
13037,note_on,1,0,0,,7,,,67,127
13235,note_off,198,0,0,,7,,,67,127
13236,note_on,1,0,0,,6,,,66,127
13435,note_on,199,0,0,,2,,,62,127
13629,note_off,194,0,0,,6,,,66,127
13632,note_off,3,0,0,,2,,,62,127
13632,note_off,0,0,0,,0,,,60,127
13633,note_on,1,0,0,,7,,,67,127
13633,note_on,0,0,0,,12,,,59,127
13831,note_off,198,0,0,,12,,,59,127
13831,note_off,0,0,0,,7,,,67,127
13832,note_on,1,0,0,,10,,,69,127
13832,note_on,0,0,0,,0,,,60,127
14030,note_off,198,0,0,,10,,,69,127
14031,note_on,1,0,0,,7,,,67,127
14229,note_off,198,0,0,,7,,,67,127
14229,note_off,0,0,0,,0,,,60,127
14230,note_on,1,0,0,,6,,,66,127
14230,note_on,0,0,0,,2,,,62,127
14428,note_off,198,0,0,,2,,,62,127
14428,note_off,0,0,0,,6,,,66,127
14429,note_on,1,0,0,,7,,,67,127
14429,note_on,0,0,0,,7,,,55,127
14822,note_off,393,0,0,,7,,,67,127
15024,note_off,202,0,0,,7,,,55,127
15042,note_on,18,0,0,,7,,,79,127
15042,note_on,0,0,0,,0,,,84,127
15092,note_on,50,0,0,,12,,,83,127
15109,note_off,17,0,0,,0,,,84,127
15142,note_on,33,0,0,,0,,,84,127
15159,note_off,17,0,0,,12,,,83,127
15192,note_on,33,0,0,,12,,,83,127
15209,note_off,17,0,0,,0,,,84,127
15240,note_off,31,0,0,,7,,,79,127
15242,note_off,2,0,0,,12,,,83,127
15242,note_on,0,0,0,,6,,,78,127
15242,note_on,0,0,0,,10,,,81,127
15439,note_off,197,0,0,,10,,,81,127
15439,note_off,0,0,0,,6,,,78,127
15441,note_on,2,0,0,,7,,,79,127
15441,note_on,0,0,0,,12,,,83,127
15638,note_off,197,0,0,,12,,,83,127
15638,note_off,0,0,0,,7,,,79,127
15640,note_on,2,0,0,,10,,,81,127
15640,note_on,0,0,0,,0,,,84,127
15838,note_off,198,0,0,,10,,,81,127
15839,note_on,1,0,0,,6,,,78,127
16037,note_off,198,0,0,,6,,,78,127
16037,note_off,0,0,0,,0,,,84,127
16038,note_on,1,0,0,,7,,,79,127
16038,note_on,0,0,0,,12,,,83,127
16236,note_off,198,0,0,,12,,,83,127
16236,note_off,0,0,0,,7,,,79,127
16237,note_on,1,0,0,,0,,,72,127
16237,note_on,0,0,0,,12,,,83,127
16303,note_off,66,0,0,,12,,,83,127
16303,note_on,0,0,0,,10,,,81,127
16369,note_off,66,0,0,,10,,,81,127
16369,note_on,0,0,0,,12,,,83,127
16434,note_off,65,0,0,,0,,,72,127
16435,note_off,1,0,0,,12,,,83,127
16435,note_on,0,0,0,,2,,,74,127
16435,note_on,0,0,0,,10,,,81,127
16501,note_off,66,0,0,,10,,,81,127
16501,note_on,0,0,0,,12,,,83,127
16567,note_off,66,0,0,,12,,,83,127
16567,note_on,0,0,0,,10,,,81,127
16632,note_off,65,0,0,,2,,,74,127
16633,note_off,1,0,0,,10,,,81,127
16633,note_on,0,0,0,,4,,,76,127
16633,note_on,0,0,0,,7,,,79,127
16831,note_off,198,0,0,,7,,,79,127
16831,note_off,0,0,0,,4,,,76,127
16832,note_on,1,0,0,,2,,,74,127
16832,note_on,0,0,0,,6,,,78,127
17030,note_off,198,0,0,,6,,,78,127
17030,note_off,0,0,0,,2,,,74,127
17031,note_on,1,0,0,,4,,,76,127
17031,note_on,0,0,0,,7,,,79,127
17229,note_off,198,0,0,,7,,,79,127
17229,note_off,0,0,0,,4,,,76,127
17230,note_on,1,0,0,,6,,,78,127
17230,note_on,0,0,0,,10,,,81,127
17428,note_off,198,0,0,,10,,,81,127
17428,note_off,0,0,0,,6,,,78,127
17429,note_on,1,0,0,,7,,,79,127
17429,note_on,0,0,0,,0,,,84,127
17479,note_on,50,0,0,,12,,,83,127
17496,note_off,17,0,0,,0,,,84,127
17529,note_on,33,0,0,,0,,,84,127
17546,note_off,17,0,0,,12,,,83,127
17579,note_on,33,0,0,,12,,,83,127
17596,note_off,17,0,0,,0,,,84,127
17628,note_off,32,0,0,,7,,,79,127
17629,note_off,1,0,0,,12,,,83,127
17629,note_on,0,0,0,,6,,,78,127
17629,note_on,0,0,0,,10,,,81,127
17827,note_off,198,0,0,,10,,,81,127
17827,note_off,0,0,0,,6,,,78,127
17828,note_on,1,0,0,,7,,,79,127
17828,note_on,0,0,0,,12,,,83,127
18026,note_off,198,0,0,,12,,,83,127
18026,note_off,0,0,0,,7,,,79,127
18027,note_on,1,0,0,,10,,,81,127
18027,note_on,0,0,0,,0,,,84,127
18225,note_off,198,0,0,,10,,,81,127
18226,note_on,1,0,0,,6,,,78,127
18424,note_off,198,0,0,,6,,,78,127
18424,note_off,0,0,0,,0,,,84,127
18425,note_on,1,0,0,,7,,,79,127
18425,note_on,0,0,0,,12,,,83,127
18623,note_off,198,0,0,,12,,,83,127
18623,note_off,0,0,0,,7,,,79,127
18624,note_on,1,0,0,,0,,,72,127
18624,note_on,0,0,0,,12,,,83,127
18690,note_off,66,0,0,,12,,,83,127
18690,note_on,0,0,0,,10,,,81,127
18756,note_off,66,0,0,,10,,,81,127
18756,note_on,0,0,0,,12,,,83,127
18821,note_off,65,0,0,,0,,,72,127
18822,note_off,1,0,0,,12,,,83,127
18822,note_on,0,0,0,,2,,,74,127
18822,note_on,0,0,0,,10,,,81,127
18888,note_off,66,0,0,,10,,,81,127
18888,note_on,0,0,0,,12,,,83,127
18954,note_off,66,0,0,,12,,,83,127
18954,note_on,0,0,0,,10,,,81,127
19019,note_off,65,0,0,,2,,,74,127
19020,note_off,1,0,0,,10,,,81,127
19020,note_on,0,0,0,,4,,,76,127
19020,note_on,0,0,0,,7,,,79,127
19218,note_off,198,0,0,,7,,,79,127
19218,note_off,0,0,0,,4,,,76,127
19219,note_on,1,0,0,,2,,,74,127
19219,note_on,0,0,0,,10,,,81,127
19612,note_off,393,0,0,,10,,,81,127
19814,note_off,202,0,0,,2,,,74,127
19832,note_on,18,0,0,,2,,,62,127
19832,note_on,0,0,0,,2,,,50,127
20030,note_off,198,0,0,,2,,,50,127
20031,note_on,1,0,0,,4,,,52,127
20229,note_off,198,0,0,,4,,,52,127
20230,note_on,1,0,0,,6,,,54,127
20428,note_off,198,0,0,,6,,,54,127
20429,note_on,1,0,0,,7,,,55,127
20627,note_off,198,0,0,,2,,,62,127
20628,note_on,1,0,0,,12,,,59,127
20826,note_off,198,0,0,,12,,,59,127
20827,note_on,1,0,0,,2,,,62,127
21025,note_off,198,0,0,,2,,,62,127
21026,note_on,1,0,0,,4,,,64,127
21224,note_off,198,0,0,,7,,,55,127
21225,note_on,1,0,0,,4,,,52,127
21423,note_off,198,0,0,,4,,,52,127
21424,note_on,1,0,0,,7,,,55,127
21622,note_off,198,0,0,,7,,,55,127
21623,note_on,1,0,0,,10,,,57,127
21821,note_off,198,0,0,,4,,,64,127
21822,note_on,1,0,0,,6,,,66,127
22020,note_off,198,0,0,,6,,,66,127
22021,note_on,1,0,0,,7,,,67,127
22219,note_off,198,0,0,,7,,,67,127
22220,note_on,1,0,0,,10,,,69,127
22418,note_off,198,0,0,,10,,,57,127
22419,note_on,1,0,0,,12,,,59,127
22617,note_off,198,0,0,,12,,,59,127
22618,note_on,1,0,0,,1,,,61,127
22816,note_off,198,0,0,,1,,,61,127
22817,note_on,1,0,0,,2,,,62,127
23015,note_off,198,0,0,,10,,,69,127
23016,note_on,1,0,0,,12,,,71,127
23214,note_off,198,0,0,,12,,,71,127
23215,note_on,1,0,0,,1,,,73,127
23413,note_off,198,0,0,,1,,,73,127
23414,note_on,1,0,0,,2,,,74,127
23612,note_off,198,0,0,,2,,,62,127
23613,note_on,1,0,0,,4,,,64,127
23811,note_off,198,0,0,,4,,,64,127
23812,note_on,1,0,0,,6,,,66,127
24010,note_off,198,0,0,,6,,,66,127
24011,note_on,1,0,0,,7,,,67,127
24209,note_off,198,0,0,,2,,,74,127
24210,note_on,1,0,0,,4,,,76,127
24408,note_off,198,0,0,,4,,,76,127
24409,note_on,1,0,0,,6,,,78,127
24607,note_off,198,0,0,,6,,,78,127
24607,note_off,0,0,0,,7,,,67,127
24608,note_on,1,0,0,,7,,,79,127
24608,note_on,0,0,0,,4,,,64,127
24806,note_off,198,0,0,,4,,,64,127
24807,note_on,1,0,0,,1,,,61,127
25005,note_off,198,0,0,,1,,,61,127
25006,note_on,1,0,0,,10,,,57,127
25204,note_off,198,0,0,,10,,,57,127
25204,note_off,0,0,0,,7,,,79,127
25205,note_on,1,0,0,,6,,,78,127
25205,note_on,0,0,0,,2,,,62,127
25403,note_off,198,0,0,,6,,,78,127
25404,note_on,1,0,0,,10,,,81,127
25602,note_off,198,0,0,,10,,,81,127
25603,note_on,1,0,0,,6,,,78,127
25801,note_off,198,0,0,,6,,,78,127
25801,note_off,0,0,0,,2,,,62,127
25802,note_on,1,0,0,,2,,,74,127
25802,note_on,0,0,0,,6,,,54,127
26000,note_off,198,0,0,,2,,,74,127
26001,note_on,1,0,0,,6,,,78,127
26199,note_off,198,0,0,,6,,,78,127
26200,note_on,1,0,0,,2,,,74,127
26398,note_off,198,0,0,,2,,,74,127
26398,note_off,0,0,0,,6,,,54,127
26399,note_on,1,0,0,,12,,,71,127
26399,note_on,0,0,0,,7,,,55,127
26597,note_off,198,0,0,,12,,,71,127
26598,note_on,1,0,0,,2,,,74,127
26796,note_off,198,0,0,,2,,,74,127
26797,note_on,1,0,0,,12,,,71,127
26995,note_off,198,0,0,,12,,,71,127
26996,note_on,1,0,0,,7,,,67,127
26996,note_on,0,0,0,,7,,,43,127
27194,note_off,198,0,0,,7,,,67,127
27195,note_on,1,0,0,,12,,,71,127
27393,note_off,198,0,0,,12,,,71,127
27394,note_on,1,0,0,,7,,,67,127
27592,note_off,198,0,0,,7,,,67,127
27592,note_off,0,0,0,,7,,,43,127
27593,note_off,1,0,0,,7,,,55,127
27593,note_on,0,0,0,,6,,,66,127
27593,note_on,0,0,0,,10,,,45,127
27791,note_off,198,0,0,,6,,,66,127
27792,note_on,1,0,0,,10,,,69,127
27990,note_off,198,0,0,,10,,,69,127
27991,note_on,1,0,0,,2,,,62,127
28189,note_off,198,0,0,,2,,,62,127
28190,note_on,1,0,0,,6,,,66,127
28190,note_on,0,0,0,,4,,,64,127
28289,note_off,99,0,0,,6,,,66,127
28387,note_off,98,0,0,,4,,,64,127
28388,note_on,1,0,0,,2,,,62,127
28586,note_off,198,0,0,,2,,,62,127
28587,note_on,1,0,0,,1,,,61,127
28785,note_off,198,0,0,,1,,,61,127
28785,note_off,0,0,0,,10,,,45,127
28786,note_on,1,0,0,,2,,,62,127
28786,note_on,0,0,0,,2,,,38,127
29179,note_off,393,0,0,,2,,,62,127
29381,note_off,202,0,0,,2,,,38,127
29399,note_on,18,0,0,,2,,,74,127
29399,note_on,0,0,0,,6,,,78,127
29597,note_off,198,0,0,,6,,,78,127
29597,note_off,0,0,0,,2,,,74,127
29598,note_on,1,0,0,,4,,,76,127
29598,note_on,0,0,0,,7,,,79,127
29796,note_off,198,0,0,,7,,,79,127
29796,note_off,0,0,0,,4,,,76,127
29797,note_on,1,0,0,,6,,,78,127
29797,note_on,0,0,0,,10,,,81,127
29995,note_off,198,0,0,,10,,,81,127
29995,note_off,0,0,0,,6,,,78,127
29996,note_on,1,0,0,,7,,,79,127
29996,note_on,0,0,0,,12,,,83,127
30194,note_off,198,0,0,,12,,,83,127
30195,note_on,1,0,0,,2,,,86,127
30393,note_off,198,0,0,,2,,,86,127
30394,note_on,1,0,0,,12,,,83,127
30592,note_off,198,0,0,,12,,,83,127
30592,note_off,0,0,0,,7,,,79,127
30593,note_on,1,0,0,,4,,,76,127
30593,note_on,0,0,0,,10,,,81,127
30659,note_off,66,0,0,,10,,,81,127
30659,note_on,0,0,0,,7,,,79,127
30725,note_off,66,0,0,,7,,,79,127
30725,note_on,0,0,0,,10,,,81,127
30790,note_off,65,0,0,,4,,,76,127
30791,note_off,1,0,0,,10,,,81,127
30791,note_on,0,0,0,,1,,,73,127
30791,note_on,0,0,0,,7,,,79,127
30857,note_off,66,0,0,,7,,,79,127
30857,note_on,0,0,0,,10,,,81,127
30923,note_off,66,0,0,,10,,,81,127
30923,note_on,0,0,0,,7,,,79,127
30988,note_off,65,0,0,,1,,,73,127
30989,note_off,1,0,0,,7,,,79,127
30989,note_on,0,0,0,,10,,,69,127
30989,note_on,0,0,0,,10,,,81,127
31055,note_off,66,0,0,,10,,,81,127
31055,note_on,0,0,0,,7,,,79,127
31186,note_off,131,0,0,,10,,,69,127
31187,note_off,1,0,0,,7,,,79,127
31187,note_on,0,0,0,,2,,,74,127
31187,note_on,0,0,0,,6,,,78,127
31580,note_off,393,0,0,,6,,,78,127
31782,note_off,202,0,0,,2,,,74,127
31800,note_on,18,0,0,,6,,,66,127
31800,note_on,0,0,0,,2,,,50,127
31998,note_off,198,0,0,,2,,,50,127
31998,note_off,0,0,0,,6,,,66,127
31999,note_on,1,0,0,,7,,,67,127
31999,note_on,0,0,0,,4,,,52,127
32197,note_off,198,0,0,,4,,,52,127
32197,note_off,0,0,0,,7,,,67,127
32198,note_on,1,0,0,,10,,,69,127
32198,note_on,0,0,0,,6,,,54,127
32396,note_off,198,0,0,,6,,,54,127
32396,note_off,0,0,0,,10,,,69,127
32397,note_on,1,0,0,,12,,,71,127
32397,note_on,0,0,0,,7,,,55,127
32595,note_off,198,0,0,,12,,,71,127
32596,note_on,1,0,0,,2,,,74,127
32794,note_off,198,0,0,,2,,,74,127
32795,note_on,1,0,0,,12,,,71,127
32993,note_off,198,0,0,,12,,,71,127
32993,note_off,0,0,0,,7,,,55,127
32994,note_on,1,0,0,,10,,,69,127
32994,note_on,0,0,0,,10,,,57,127
33192,note_off,198,0,0,,10,,,57,127
33193,note_on,1,0,0,,12,,,59,127
33387,note_off,194,0,0,,10,,,69,127
33390,note_off,3,0,0,,12,,,59,127
33391,note_on,1,0,0,,7,,,67,127
33391,note_on,0,0,0,,1,,,61,127
33588,note_off,197,0,0,,7,,,67,127
33589,note_off,1,0,0,,1,,,61,127
33590,note_on,1,0,0,,6,,,66,127
33590,note_on,0,0,0,,2,,,62,127
33983,note_off,393,0,0,,6,,,66,127
34185,note_off,202,0,0,,2,,,62,127
34203,note_on,18,0,0,,6,,,78,127
34203,note_on,0,0,0,,10,,,81,127
34401,note_off,198,0,0,,10,,,81,127
34401,note_off,0,0,0,,6,,,78,127
34402,note_on,1,0,0,,7,,,79,127
34402,note_on,0,0,0,,12,,,83,127
34600,note_off,198,0,0,,12,,,83,127
34600,note_off,0,0,0,,7,,,79,127
34601,note_on,1,0,0,,6,,,78,127
34601,note_on,0,0,0,,10,,,81,127
34799,note_off,198,0,0,,10,,,81,127
34799,note_off,0,0,0,,6,,,78,127
34800,note_on,1,0,0,,6,,,78,127
34800,note_on,0,0,0,,10,,,81,127
34998,note_off,198,0,0,,10,,,81,127
34999,note_on,1,0,0,,2,,,86,127
35197,note_off,198,0,0,,2,,,86,127
35198,note_on,1,0,0,,10,,,81,127
35396,note_off,198,0,0,,10,,,81,127
35397,note_on,1,0,0,,10,,,81,127
35595,note_off,198,0,0,,10,,,81,127
35595,note_off,0,0,0,,6,,,78,127
35596,note_on,1,0,0,,4,,,76,127
35596,note_on,0,0,0,,7,,,79,127
35662,note_off,66,0,0,,7,,,79,127
35662,note_on,0,0,0,,10,,,81,127
35728,note_off,66,0,0,,10,,,81,127
35728,note_on,0,0,0,,7,,,79,127
35793,note_off,65,0,0,,4,,,76,127
35794,note_off,1,0,0,,7,,,79,127
35794,note_on,0,0,0,,2,,,74,127
35794,note_on,0,0,0,,6,,,78,127
35992,note_off,198,0,0,,6,,,78,127
35992,note_off,0,0,0,,2,,,74,127
35993,note_on,1,0,0,,10,,,69,127
35993,note_on,0,0,0,,4,,,76,127
36386,note_off,393,0,0,,4,,,76,127
36588,note_off,202,0,0,,10,,,69,127
36606,note_on,18,0,0,,10,,,69,127
36606,note_on,0,0,0,,6,,,66,127
36804,note_off,198,0,0,,6,,,66,127
36804,note_off,0,0,0,,10,,,69,127
36805,note_on,1,0,0,,12,,,71,127
36805,note_on,0,0,0,,7,,,67,127
37003,note_off,198,0,0,,7,,,67,127
37003,note_off,0,0,0,,12,,,71,127
37004,note_on,1,0,0,,10,,,69,127
37004,note_on,0,0,0,,6,,,66,127
37202,note_off,198,0,0,,6,,,66,127
37202,note_off,0,0,0,,10,,,69,127
37203,note_on,1,0,0,,10,,,69,127
37203,note_on,0,0,0,,6,,,66,127
37401,note_off,198,0,0,,10,,,69,127
37402,note_on,1,0,0,,2,,,74,127
37600,note_off,198,0,0,,2,,,74,127
37601,note_on,1,0,0,,10,,,69,127
37799,note_off,198,0,0,,10,,,69,127
37800,note_on,1,0,0,,10,,,69,127
37998,note_off,198,0,0,,10,,,69,127
37998,note_off,0,0,0,,6,,,66,127
37999,note_on,1,0,0,,7,,,67,127
37999,note_on,0,0,0,,4,,,64,127
38197,note_off,198,0,0,,4,,,64,127
38197,note_off,0,0,0,,7,,,67,127
38198,note_on,1,0,0,,6,,,66,127
38198,note_on,0,0,0,,2,,,62,127
38396,note_off,198,0,0,,2,,,62,127
38396,note_off,0,0,0,,6,,,66,127
38397,note_on,1,0,0,,4,,,64,127
38397,note_on,0,0,0,,10,,,57,127
38992,note_off,595,0,0,,10,,,57,127
38992,note_off,0,0,0,,4,,,64,127
38993,note_on,1,0,0,,6,,,66,127
38993,note_on,0,0,0,,2,,,62,127
38993,note_on,0,0,0,,2,,,50,127
39191,note_off,198,0,0,,2,,,62,127
39191,note_off,0,0,0,,6,,,66,127
39192,note_on,1,0,0,,7,,,67,127
39192,note_on,0,0,0,,4,,,64,127
39390,note_off,198,0,0,,4,,,64,127
39390,note_off,0,0,0,,7,,,67,127
39391,note_on,1,0,0,,10,,,69,127
39391,note_on,0,0,0,,6,,,66,127
39589,note_off,198,0,0,,6,,,66,127
39589,note_off,0,0,0,,10,,,69,127
39589,note_off,0,0,0,,2,,,50,127
39590,note_on,1,0,0,,4,,,64,127
39590,note_on,0,0,0,,7,,,67,127
39590,note_on,0,0,0,,10,,,45,127
39788,note_off,198,0,0,,7,,,67,127
39788,note_off,0,0,0,,4,,,64,127
39789,note_on,1,0,0,,6,,,66,127
39789,note_on,0,0,0,,2,,,62,127
39987,note_off,198,0,0,,2,,,62,127
39987,note_off,0,0,0,,6,,,66,127
39988,note_on,1,0,0,,4,,,64,127
39988,note_on,0,0,0,,7,,,67,127
40186,note_off,198,0,0,,7,,,67,127
40186,note_off,0,0,0,,4,,,64,127
40186,note_off,0,0,0,,10,,,45,127
40187,note_on,1,0,0,,6,,,66,127
40187,note_on,0,0,0,,2,,,62,127
40187,note_on,0,0,0,,2,,,50,127
40385,note_off,198,0,0,,2,,,62,127
40385,note_off,0,0,0,,6,,,66,127
40386,note_on,1,0,0,,1,,,61,127
40386,note_on,0,0,0,,4,,,64,127
40584,note_off,198,0,0,,4,,,64,127
40584,note_off,0,0,0,,1,,,61,127
40585,note_on,1,0,0,,2,,,62,127
40585,note_on,0,0,0,,6,,,66,127
40783,note_off,198,0,0,,6,,,66,127
40783,note_off,0,0,0,,2,,,62,127
40783,note_off,0,0,0,,2,,,50,127
40784,note_on,1,0,0,,4,,,64,127
40784,note_on,0,0,0,,1,,,61,127
40784,note_on,0,0,0,,10,,,45,127
41177,note_off,393,0,0,,4,,,64,127
41379,note_off,202,0,0,,10,,,45,127
41379,note_off,0,0,0,,1,,,61,127
41397,note_on,18,0,0,,10,,,69,127
41397,note_on,0,0,0,,1,,,73,127
41595,note_off,198,0,0,,1,,,73,127
41595,note_off,0,0,0,,10,,,69,127
41596,note_on,1,0,0,,12,,,71,127
41596,note_on,0,0,0,,2,,,74,127
41794,note_off,198,0,0,,2,,,74,127
41794,note_off,0,0,0,,12,,,71,127
41795,note_on,1,0,0,,1,,,73,127
41795,note_on,0,0,0,,4,,,76,127
41993,note_off,198,0,0,,4,,,76,127
41993,note_off,0,0,0,,1,,,73,127
41994,note_on,1,0,0,,2,,,74,127
41994,note_on,0,0,0,,6,,,78,127
42192,note_off,198,0,0,,6,,,78,127
42192,note_off,0,0,0,,2,,,74,127
42193,note_on,1,0,0,,4,,,76,127
42193,note_on,0,0,0,,7,,,79,127
42391,note_off,198,0,0,,7,,,79,127
42391,note_off,0,0,0,,4,,,76,127
42392,note_on,1,0,0,,6,,,78,127
42392,note_on,0,0,0,,10,,,81,127
42590,note_off,198,0,0,,10,,,81,127
42590,note_off,0,0,0,,6,,,78,127
42591,note_on,1,0,0,,7,,,79,127
42591,note_on,0,0,0,,12,,,83,127
42789,note_off,198,0,0,,12,,,83,127
42789,note_off,0,0,0,,7,,,79,127
42790,note_on,1,0,0,,10,,,81,127
42790,note_on,0,0,0,,1,,,85,127
42988,note_off,198,0,0,,1,,,85,127
42988,note_off,0,0,0,,10,,,81,127
42989,note_on,1,0,0,,12,,,83,127
42989,note_on,0,0,0,,2,,,86,127
43187,note_off,198,0,0,,2,,,86,127
43187,note_off,0,0,0,,12,,,83,127
43188,note_on,1,0,0,,10,,,81,127
43188,note_on,0,0,0,,1,,,85,127
43386,note_off,198,0,0,,1,,,85,127
43386,note_off,0,0,0,,10,,,81,127
43387,note_on,1,0,0,,7,,,79,127
43387,note_on,0,0,0,,12,,,83,127
43453,note_off,66,0,0,,12,,,83,127
43453,note_on,0,0,0,,1,,,85,127
43519,note_off,66,0,0,,1,,,85,127
43519,note_on,0,0,0,,12,,,83,127
43584,note_off,65,0,0,,7,,,79,127
43585,note_off,1,0,0,,12,,,83,127
43585,note_on,0,0,0,,6,,,78,127
43585,note_on,0,0,0,,10,,,81,127
43783,note_off,198,0,0,,10,,,81,127
43783,note_off,0,0,0,,6,,,78,127
43784,note_on,1,0,0,,4,,,76,127
43784,note_on,0,0,0,,7,,,79,127
43982,note_off,198,0,0,,7,,,79,127
43982,note_off,0,0,0,,4,,,76,127
43983,note_on,1,0,0,,2,,,74,127
43983,note_on,0,0,0,,6,,,78,127
44049,note_off,66,0,0,,6,,,78,127
44049,note_on,0,0,0,,7,,,79,127
44115,note_off,66,0,0,,7,,,79,127
44115,note_on,0,0,0,,6,,,78,127
44180,note_off,65,0,0,,2,,,74,127
44181,note_off,1,0,0,,6,,,78,127
44181,note_on,0,0,0,,1,,,73,127
44181,note_on,0,0,0,,4,,,76,127
44379,note_off,198,0,0,,4,,,76,127
44379,note_off,0,0,0,,1,,,73,127
44380,note_on,1,0,0,,2,,,74,127
44380,note_on,0,0,0,,6,,,78,127
44578,note_off,198,0,0,,6,,,78,127
44579,note_on,1,0,0,,7,,,79,127
44777,note_off,198,0,0,,7,,,79,127
44777,note_off,0,0,0,,2,,,74,127
44778,note_on,1,0,0,,6,,,66,127
44778,note_on,0,0,0,,2,,,74,127
44778,note_on,0,0,0,,10,,,81,127
44976,note_off,198,0,0,,10,,,81,127
44976,note_off,0,0,0,,2,,,74,127
44976,note_off,0,0,0,,6,,,66,127
44977,note_on,1,0,0,,7,,,67,127
44977,note_on,0,0,0,,4,,,76,127
44977,note_on,0,0,0,,7,,,79,127
45175,note_off,198,0,0,,7,,,79,127
45175,note_off,0,0,0,,4,,,76,127
45176,note_on,1,0,0,,2,,,74,127
45176,note_on,0,0,0,,6,,,78,127
45242,note_off,66,0,0,,6,,,78,127
45242,note_on,0,0,0,,7,,,79,127
45308,note_off,66,0,0,,7,,,79,127
45308,note_on,0,0,0,,6,,,78,127
45373,note_off,65,0,0,,2,,,74,127
45373,note_off,0,0,0,,7,,,67,127
45374,note_off,1,0,0,,6,,,78,127
45374,note_on,0,0,0,,10,,,69,127
45374,note_on,0,0,0,,1,,,73,127
45374,note_on,0,0,0,,4,,,76,127
45572,note_off,198,0,0,,4,,,76,127
45572,note_off,0,0,0,,1,,,73,127
45572,note_off,0,0,0,,10,,,69,127
45573,note_on,1,0,0,,2,,,62,127
45573,note_on,0,0,0,,2,,,74,127
45966,note_off,393,0,0,,2,,,74,127
46168,note_off,202,0,0,,2,,,62,127
46186,note_on,18,0,0,,1,,,61,127
46186,note_on,0,0,0,,10,,,57,127
46384,note_off,198,0,0,,10,,,57,127
46384,note_off,0,0,0,,1,,,61,127
46385,note_on,1,0,0,,2,,,62,127
46385,note_on,0,0,0,,12,,,59,127
46583,note_off,198,0,0,,12,,,59,127
46583,note_off,0,0,0,,2,,,62,127
46584,note_on,1,0,0,,4,,,64,127
46584,note_on,0,0,0,,1,,,61,127
46782,note_off,198,0,0,,1,,,61,127
46782,note_off,0,0,0,,4,,,64,127
46783,note_on,1,0,0,,6,,,66,127
46783,note_on,0,0,0,,2,,,62,127
46783,note_on,0,0,0,,2,,,50,127
46981,note_off,198,0,0,,6,,,66,127
46982,note_on,1,0,0,,7,,,67,127
47180,note_off,198,0,0,,7,,,67,127
47181,note_on,1,0,0,,10,,,69,127
47379,note_off,198,0,0,,10,,,69,127
47379,note_off,0,0,0,,2,,,50,127
47380,note_on,1,0,0,,12,,,71,127
47380,note_on,0,0,0,,7,,,55,127
47578,note_off,198,0,0,,12,,,71,127
47579,note_on,1,0,0,,1,,,73,127
47777,note_off,198,0,0,,1,,,73,127
47778,note_on,1,0,0,,2,,,74,127
47975,note_off,197,0,0,,2,,,62,127
47976,note_off,1,0,0,,2,,,74,127
47976,note_off,0,0,0,,7,,,55,127
47977,note_on,1,0,0,,1,,,73,127
47977,note_on,0,0,0,,10,,,57,127
48175,note_off,198,0,0,,1,,,73,127
48176,note_on,1,0,0,,12,,,71,127
48374,note_off,198,0,0,,12,,,71,127
48375,note_on,1,0,0,,10,,,69,127
48573,note_off,198,0,0,,10,,,69,127
48574,note_on,1,0,0,,7,,,67,127
48772,note_off,198,0,0,,7,,,67,127
48772,note_off,0,0,0,,10,,,57,127
48773,note_on,1,0,0,,6,,,66,127
48773,note_on,0,0,0,,12,,,59,127
48971,note_off,198,0,0,,12,,,59,127
48971,note_off,0,0,0,,6,,,66,127
48972,note_on,1,0,0,,4,,,64,127
48972,note_on,0,0,0,,1,,,61,127
49170,note_off,198,0,0,,1,,,61,127
49170,note_off,0,0,0,,4,,,64,127
49171,note_on,1,0,0,,6,,,66,127
49171,note_on,0,0,0,,2,,,62,127
49369,note_off,198,0,0,,6,,,66,127
49370,note_on,1,0,0,,7,,,67,127
49568,note_off,198,0,0,,7,,,67,127
49568,note_off,0,0,0,,2,,,62,127
49569,note_on,1,0,0,,10,,,69,127
49569,note_on,0,0,0,,2,,,62,127
49569,note_on,0,0,0,,6,,,54,127
49767,note_off,198,0,0,,6,,,54,127
49767,note_off,0,0,0,,2,,,62,127
49767,note_off,0,0,0,,10,,,69,127
49768,note_on,1,0,0,,4,,,64,127
49768,note_on,0,0,0,,7,,,67,127
49768,note_on,0,0,0,,7,,,55,127
49966,note_off,198,0,0,,7,,,67,127
49966,note_off,0,0,0,,4,,,64,127
49967,note_on,1,0,0,,2,,,62,127
49967,note_on,0,0,0,,6,,,66,127
50165,note_off,198,0,0,,6,,,66,127
50165,note_off,0,0,0,,2,,,62,127
50165,note_off,0,0,0,,7,,,55,127
50166,note_on,1,0,0,,4,,,64,127
50166,note_on,0,0,0,,1,,,61,127
50166,note_on,0,0,0,,10,,,57,127
50364,note_off,198,0,0,,10,,,57,127
50364,note_off,0,0,0,,1,,,61,127
50364,note_off,0,0,0,,4,,,64,127
50365,note_on,1,0,0,,2,,,62,127
50365,note_on,0,0,0,,2,,,50,127
50758,note_off,393,0,0,,2,,,62,127
50960,note_off,202,0,0,,2,,,50,127
50986,note_on,26,0,0,,6,,,78,127
50986,note_on,0,0,0,,10,,,81,127
51184,note_off,198,0,0,,10,,,81,127
51184,note_off,0,0,0,,6,,,78,127
51185,note_on,1,0,0,,4,,,76,127
51185,note_on,0,0,0,,7,,,79,127
51383,note_off,198,0,0,,7,,,79,127
51383,note_off,0,0,0,,4,,,76,127
51384,note_on,1,0,0,,2,,,74,127
51384,note_on,0,0,0,,6,,,78,127
51582,note_off,198,0,0,,6,,,78,127
51582,note_off,0,0,0,,2,,,74,127
51583,note_on,1,0,0,,1,,,73,127
51583,note_on,0,0,0,,6,,,78,127
51649,note_off,66,0,0,,6,,,78,127
51649,note_on,0,0,0,,4,,,76,127
51715,note_off,66,0,0,,4,,,76,127
51715,note_on,0,0,0,,6,,,78,127
51780,note_off,65,0,0,,1,,,73,127
51781,note_off,1,0,0,,6,,,78,127
51781,note_on,0,0,0,,10,,,69,127
51781,note_on,0,0,0,,4,,,76,127
51847,note_off,66,0,0,,4,,,76,127
51847,note_on,0,0,0,,6,,,78,127
51913,note_off,66,0,0,,6,,,78,127
51913,note_on,0,0,0,,4,,,76,127
51978,note_off,65,0,0,,10,,,69,127
51979,note_off,1,0,0,,4,,,76,127
51979,note_on,0,0,0,,2,,,74,127
51979,note_on,0,0,0,,6,,,78,127
52177,note_off,198,0,0,,6,,,78,127
52177,note_off,0,0,0,,2,,,74,127
52178,note_on,1,0,0,,4,,,76,127
52178,note_on,0,0,0,,7,,,79,127
52376,note_off,198,0,0,,4,,,76,127
52377,note_on,1,0,0,,1,,,73,127
52575,note_off,198,0,0,,1,,,73,127
52575,note_off,0,0,0,,7,,,79,127
52576,note_on,1,0,0,,2,,,74,127
52576,note_on,0,0,0,,6,,,78,127
52774,note_off,198,0,0,,6,,,78,127
52774,note_off,0,0,0,,2,,,74,127
52775,note_on,1,0,0,,10,,,69,127
52775,note_on,0,0,0,,4,,,76,127
53168,note_off,393,0,0,,4,,,76,127
53370,note_off,202,0,0,,10,,,69,127
53388,note_on,18,0,0,,10,,,69,127
53388,note_on,0,0,0,,6,,,66,127
53586,note_off,198,0,0,,6,,,66,127
53586,note_off,0,0,0,,10,,,69,127
53587,note_on,1,0,0,,7,,,67,127
53587,note_on,0,0,0,,4,,,64,127
53785,note_off,198,0,0,,4,,,64,127
53785,note_off,0,0,0,,7,,,67,127
53786,note_on,1,0,0,,6,,,66,127
53786,note_on,0,0,0,,2,,,62,127
53984,note_off,198,0,0,,2,,,62,127
53984,note_off,0,0,0,,6,,,66,127
53985,note_on,1,0,0,,4,,,64,127
53985,note_on,0,0,0,,1,,,61,127
54183,note_off,198,0,0,,1,,,61,127
54184,note_on,1,0,0,,10,,,57,127
54382,note_off,198,0,0,,10,,,57,127
54382,note_off,0,0,0,,4,,,64,127
54383,note_on,1,0,0,,6,,,66,127
54383,note_on,0,0,0,,2,,,62,127
54581,note_off,198,0,0,,2,,,62,127
54581,note_off,0,0,0,,6,,,66,127
54582,note_on,1,0,0,,7,,,67,127
54582,note_on,0,0,0,,4,,,64,127
54780,note_off,198,0,0,,4,,,64,127
54781,note_on,1,0,0,,1,,,61,127
54979,note_off,198,0,0,,1,,,61,127
54979,note_off,0,0,0,,7,,,67,127
54980,note_on,1,0,0,,6,,,66,127
54980,note_on,0,0,0,,2,,,62,127
55178,note_off,198,0,0,,2,,,62,127
55178,note_off,0,0,0,,6,,,66,127
55179,note_on,1,0,0,,4,,,64,127
55179,note_on,0,0,0,,10,,,57,127
55377,note_off,198,0,0,,4,,,64,127
55378,note_on,1,0,0,,6,,,66,127
55576,note_off,198,0,0,,6,,,66,127
55577,note_on,1,0,0,,7,,,67,127
55775,note_off,198,0,0,,7,,,67,127
55776,note_on,1,0,0,,10,,,69,127
55974,note_off,198,0,0,,10,,,57,127
55975,note_on,1,0,0,,12,,,59,127
56173,note_off,198,0,0,,12,,,59,127
56174,note_on,1,0,0,,1,,,61,127
56372,note_off,198,0,0,,1,,,61,127
56373,note_on,1,0,0,,2,,,50,127
56571,note_off,198,0,0,,10,,,69,127
56572,note_on,1,0,0,,12,,,71,127
56770,note_off,198,0,0,,12,,,71,127
56771,note_on,1,0,0,,1,,,73,127
56969,note_off,198,0,0,,1,,,73,127
56970,note_on,1,0,0,,2,,,74,127
57168,note_off,198,0,0,,2,,,50,127
57169,note_on,1,0,0,,4,,,52,127
57367,note_off,198,0,0,,4,,,52,127
57367,note_off,0,0,0,,2,,,74,127
57368,note_on,1,0,0,,1,,,73,127
57368,note_on,0,0,0,,6,,,54,127
57566,note_off,198,0,0,,6,,,54,127
57566,note_off,0,0,0,,1,,,73,127
57567,note_on,1,0,0,,12,,,71,127
57567,note_on,0,0,0,,7,,,55,127
57765,note_off,198,0,0,,12,,,71,127
57766,note_on,1,0,0,,10,,,69,127
57964,note_off,198,0,0,,10,,,69,127
57965,note_on,1,0,0,,7,,,67,127
58163,note_off,198,0,0,,7,,,67,127
58163,note_off,0,0,0,,7,,,55,127
58164,note_on,1,0,0,,6,,,66,127
58164,note_on,0,0,0,,2,,,62,127
58164,note_on,0,0,0,,10,,,57,127
58362,note_off,198,0,0,,6,,,66,127
58363,note_on,1,0,0,,7,,,67,127
58561,note_off,198,0,0,,7,,,67,127
58561,note_off,0,0,0,,2,,,62,127
58562,note_on,1,0,0,,4,,,64,127
58562,note_on,0,0,0,,1,,,61,127
58760,note_off,198,0,0,,1,,,61,127
58760,note_off,0,0,0,,4,,,64,127
58760,note_off,0,0,0,,10,,,57,127
58761,note_on,1,0,0,,2,,,62,127
58761,note_on,0,0,0,,2,,,50,127
59154,note_off,393,0,0,,2,,,62,127
59356,note_off,202,0,0,,2,,,50,127
59357,note_on,1,0,0,,7,,,79,127
59357,note_on,0,0,0,,4,,,76,127
59357,note_on,0,0,0,,10,,,69,127
59952,note_off,595,0,0,,10,,,69,127
59952,note_off,0,0,0,,4,,,76,127
59952,note_off,0,0,0,,7,,,79,127
59953,note_on,1,0,0,,6,,,78,127
59953,note_on,0,0,0,,2,,,74,127
60548,note_off,595,0,0,,2,,,74,127
60548,note_off,0,0,0,,6,,,78,127
60549,note_on,1,0,0,,4,,,64,127
60549,note_on,0,0,0,,7,,,67,127
60549,note_on,0,0,0,,10,,,57,127
60549,note_on,0,0,0,,1,,,61,127
60549,note_on,0,0,0,,10,,,45,127
61144,note_off,595,0,0,,10,,,45,127
61144,note_off,0,0,0,,1,,,61,127
61144,note_off,0,0,0,,10,,,57,127
61144,note_off,0,0,0,,7,,,67,127
61144,note_off,0,0,0,,4,,,64,127
61145,note_on,1,0,0,,6,,,66,127
61145,note_on,0,0,0,,10,,,57,127
61145,note_on,0,0,0,,2,,,62,127
61145,note_on,0,0,0,,2,,,38,127
61740,note_off,595,0,0,,2,,,38,127
61740,note_off,0,0,0,,2,,,62,127
61740,note_off,0,0,0,,10,,,57,127
61740,note_off,0,0,0,,6,,,66,127
61758,note_on,18,0,0,,10,,,57,127
61758,note_on,0,0,0,,10,,,69,127
61758,note_on,0,0,0,,4,,,76,127
61758,note_on,0,0,0,,7,,,79,127
62353,note_off,595,0,0,,7,,,79,127
62353,note_off,0,0,0,,4,,,76,127
62353,note_off,0,0,0,,10,,,69,127
62353,note_off,0,0,0,,10,,,57,127
62354,note_on,1,0,0,,2,,,62,127
62354,note_on,0,0,0,,10,,,69,127
62354,note_on,0,0,0,,6,,,78,127
62354,note_on,0,0,0,,2,,,74,127
62949,note_off,595,0,0,,2,,,74,127
62949,note_off,0,0,0,,6,,,78,127
62949,note_off,0,0,0,,10,,,69,127
62949,note_off,0,0,0,,2,,,62,127
62950,note_on,1,0,0,,10,,,57,127
62950,note_on,0,0,0,,7,,,67,127
62950,note_on,0,0,0,,4,,,76,127
62950,note_on,0,0,0,,1,,,73,127
63545,note_off,595,0,0,,1,,,73,127
63545,note_off,0,0,0,,4,,,76,127
63545,note_off,0,0,0,,7,,,67,127
63545,note_off,0,0,0,,10,,,57,127
63546,note_on,1,0,0,,2,,,62,127
63546,note_on,0,0,0,,6,,,66,127
63546,note_on,0,0,0,,2,,,74,127
63546,note_on,0,0,0,,10,,,69,127
64141,note_off,595,0,0,,10,,,69,127
64141,note_off,0,0,0,,2,,,74,127
64141,note_off,0,0,0,,6,,,66,127
64141,note_off,0,0,0,,2,,,62,127
64159,note_on,18,0,0,,4,,,64,127
64159,note_on,0,0,0,,7,,,67,127
64159,note_on,0,0,0,,1,,,61,127
64159,note_on,0,0,0,,10,,,57,127
64159,note_on,0,0,0,,10,,,45,127
64754,note_off,595,0,0,,10,,,45,127
64754,note_off,0,0,0,,10,,,57,127
64754,note_off,0,0,0,,1,,,61,127
64754,note_off,0,0,0,,7,,,67,127
64754,note_off,0,0,0,,4,,,64,127
64755,note_on,1,0,0,,10,,,57,127
64755,note_on,0,0,0,,2,,,62,127
64755,note_on,0,0,0,,6,,,66,127
64755,note_on,0,0,0,,2,,,50,127
65350,note_off,595,0,0,,2,,,50,127
65350,note_off,0,0,0,,6,,,66,127
65350,note_off,0,0,0,,2,,,62,127
65350,note_off,0,0,0,,10,,,57,127
65351,note_on,1,0,0,,4,,,64,127
65351,note_on,0,0,0,,7,,,55,127
65351,note_on,0,0,0,,1,,,61,127
65351,note_on,0,0,0,,10,,,45,127
65946,note_off,595,0,0,,10,,,45,127
65946,note_off,0,0,0,,1,,,61,127
65946,note_off,0,0,0,,7,,,55,127
65946,note_off,0,0,0,,4,,,64,127
65947,note_on,1,0,0,,10,,,57,127
65947,note_on,0,0,0,,2,,,62,127
65947,note_on,0,0,0,,6,,,54,127
65947,note_on,0,0,0,,2,,,38,127
66444,note_off,497,0,0,,2,,,62,127
66568,note_off,124,0,0,,2,,,38,127
66568,note_off,0,0,0,,6,,,54,127
66568,note_off,0,0,0,,10,,,57,127
66576,note_on,8,0,0,,10,,,69,127
66576,note_on,0,0,0,,10,,,45,127
66774,note_off,198,0,0,,10,,,45,127
66775,note_on,1,0,0,,12,,,47,127
66973,note_off,198,0,0,,12,,,47,127
66974,note_on,1,0,0,,1,,,49,127
67172,note_off,198,0,0,,1,,,49,127
67172,note_off,0,0,0,,10,,,69,127
67173,note_on,1,0,0,,6,,,66,127
67173,note_on,0,0,0,,2,,,50,127
67371,note_off,198,0,0,,6,,,66,127
67372,note_on,1,0,0,,4,,,64,127
67570,note_off,198,0,0,,4,,,64,127
67571,note_on,1,0,0,,2,,,62,127
67753,note_off,182,0,0,,2,,,50,127
67769,note_off,16,0,0,,2,,,62,127
67770,note_on,1,0,0,,10,,,69,127
67770,note_on,0,0,0,,10,,,45,127
67968,note_off,198,0,0,,10,,,45,127
67969,note_on,1,0,0,,12,,,47,127
68167,note_off,198,0,0,,12,,,47,127
68168,note_on,1,0,0,,1,,,49,127
68366,note_off,198,0,0,,1,,,49,127
68366,note_off,0,0,0,,10,,,69,127
68367,note_on,1,0,0,,6,,,66,127
68367,note_on,0,0,0,,2,,,50,127
68565,note_off,198,0,0,,6,,,66,127
68566,note_on,1,0,0,,4,,,64,127
68764,note_off,198,0,0,,4,,,64,127
68765,note_on,1,0,0,,2,,,62,127
68947,note_off,182,0,0,,2,,,50,127
68963,note_off,16,0,0,,2,,,62,127
68964,note_on,1,0,0,,12,,,71,127
68964,note_on,0,0,0,,12,,,47,127
69162,note_off,198,0,0,,12,,,47,127
69163,note_on,1,0,0,,1,,,49,127
69361,note_off,198,0,0,,1,,,49,127
69362,note_on,1,0,0,,3,,,51,127
69560,note_off,198,0,0,,3,,,51,127
69560,note_off,0,0,0,,12,,,71,127
69561,note_on,1,0,0,,7,,,67,127
69561,note_on,0,0,0,,4,,,52,127
69759,note_off,198,0,0,,7,,,67,127
69760,note_on,1,0,0,,6,,,66,127
69958,note_off,198,0,0,,6,,,66,127
69959,note_on,1,0,0,,4,,,64,127
70141,note_off,182,0,0,,4,,,52,127
70157,note_off,16,0,0,,4,,,64,127
70158,note_on,1,0,0,,12,,,71,127
70158,note_on,0,0,0,,12,,,47,127
70356,note_off,198,0,0,,12,,,47,127
70357,note_on,1,0,0,,1,,,49,127
70555,note_off,198,0,0,,1,,,49,127
70556,note_on,1,0,0,,3,,,51,127
70754,note_off,198,0,0,,3,,,51,127
70754,note_off,0,0,0,,12,,,71,127
70755,note_on,1,0,0,,7,,,67,127
70755,note_on,0,0,0,,4,,,52,127
70953,note_off,198,0,0,,7,,,67,127
70954,note_on,1,0,0,,6,,,66,127
71152,note_off,198,0,0,,6,,,66,127
71153,note_on,1,0,0,,4,,,64,127
71351,note_off,198,0,0,,4,,,64,127
71351,note_off,0,0,0,,4,,,52,127
71352,note_on,1,0,0,,0,,,72,127
71352,note_on,0,0,0,,10,,,45,127
71352,note_on,0,0,0,,10,,,57,127
71550,note_off,198,0,0,,0,,,72,127
71551,note_on,1,0,0,,12,,,71,127
71749,note_off,198,0,0,,12,,,71,127
71750,note_on,1,0,0,,10,,,69,127
71948,note_off,198,0,0,,10,,,69,127
71948,note_off,0,0,0,,10,,,45,127
71949,note_on,1,0,0,,7,,,67,127
71949,note_on,0,0,0,,0,,,48,127
72147,note_off,198,0,0,,7,,,67,127
72148,note_on,1,0,0,,6,,,66,127
72346,note_off,198,0,0,,6,,,66,127
72347,note_on,1,0,0,,4,,,64,127
72544,note_off,197,0,0,,10,,,57,127
72545,note_off,1,0,0,,4,,,64,127
72545,note_off,0,0,0,,0,,,48,127
72546,note_on,1,0,0,,6,,,66,127
72546,note_on,0,0,0,,12,,,47,127
72546,note_on,0,0,0,,12,,,59,127
72939,note_off,393,0,0,,6,,,66,127
73141,note_off,202,0,0,,12,,,59,127
73141,note_off,0,0,0,,12,,,47,127
73167,note_on,26,0,0,,4,,,76,127
73167,note_on,0,0,0,,10,,,81,127
73217,note_on,50,0,0,,7,,,79,127
73234,note_off,17,0,0,,10,,,81,127
73267,note_on,33,0,0,,10,,,81,127
73284,note_off,17,0,0,,7,,,79,127
73317,note_on,33,0,0,,7,,,79,127
73334,note_off,17,0,0,,10,,,81,127
73366,note_off,32,0,0,,4,,,76,127
73367,note_off,1,0,0,,7,,,79,127
73367,note_on,0,0,0,,3,,,75,127
73367,note_on,0,0,0,,6,,,78,127
73565,note_off,198,0,0,,6,,,78,127
73565,note_off,0,0,0,,3,,,75,127
73566,note_on,1,0,0,,4,,,76,127
73566,note_on,0,0,0,,7,,,79,127
73764,note_off,198,0,0,,7,,,79,127
73764,note_off,0,0,0,,4,,,76,127
73765,note_on,1,0,0,,6,,,78,127
73765,note_on,0,0,0,,10,,,81,127
73963,note_off,198,0,0,,6,,,78,127
73964,note_on,1,0,0,,3,,,75,127
74162,note_off,198,0,0,,3,,,75,127
74162,note_off,0,0,0,,10,,,81,127
74163,note_on,1,0,0,,4,,,76,127
74163,note_on,0,0,0,,7,,,79,127
74361,note_off,198,0,0,,7,,,79,127
74361,note_off,0,0,0,,4,,,76,127
74362,note_on,1,0,0,,10,,,69,127
74362,note_on,0,0,0,,7,,,79,127
74428,note_off,66,0,0,,7,,,79,127
74428,note_on,0,0,0,,6,,,78,127
74494,note_off,66,0,0,,6,,,78,127
74494,note_on,0,0,0,,7,,,79,127
74559,note_off,65,0,0,,10,,,69,127
74560,note_off,1,0,0,,7,,,79,127
74560,note_on,0,0,0,,12,,,71,127
74560,note_on,0,0,0,,6,,,78,127
74626,note_off,66,0,0,,6,,,78,127
74626,note_on,0,0,0,,7,,,79,127
74692,note_off,66,0,0,,7,,,79,127
74692,note_on,0,0,0,,6,,,78,127
74757,note_off,65,0,0,,12,,,71,127
74758,note_off,1,0,0,,6,,,78,127
74758,note_on,0,0,0,,0,,,72,127
74758,note_on,0,0,0,,4,,,76,127
74956,note_off,198,0,0,,4,,,76,127
74956,note_off,0,0,0,,0,,,72,127
74957,note_on,1,0,0,,12,,,71,127
74957,note_on,0,0,0,,6,,,78,127
75350,note_off,393,0,0,,6,,,78,127
75552,note_off,202,0,0,,12,,,71,127
75570,note_on,18,0,0,,7,,,67,127
75570,note_on,0,0,0,,4,,,64,127
75767,note_off,197,0,0,,7,,,67,127
75768,note_off,1,0,0,,4,,,64,127
75769,note_on,1,0,0,,6,,,66,127
75769,note_on,0,0,0,,3,,,63,127
75967,note_off,198,0,0,,3,,,63,127
75967,note_off,0,0,0,,6,,,66,127
75968,note_on,1,0,0,,7,,,67,127
75968,note_on,0,0,0,,4,,,64,127
76166,note_off,198,0,0,,4,,,64,127
76166,note_off,0,0,0,,7,,,67,127
76167,note_on,1,0,0,,10,,,69,127
76167,note_on,0,0,0,,6,,,66,127
76365,note_off,198,0,0,,6,,,66,127
76366,note_on,1,0,0,,3,,,63,127
76564,note_off,198,0,0,,3,,,63,127
76564,note_off,0,0,0,,10,,,69,127
76565,note_on,1,0,0,,7,,,67,127
76565,note_on,0,0,0,,4,,,64,127
76763,note_off,198,0,0,,4,,,64,127
76763,note_off,0,0,0,,7,,,67,127
76764,note_on,1,0,0,,7,,,67,127
76764,note_on,0,0,0,,10,,,57,127
76961,note_off,197,0,0,,7,,,67,127
76962,note_off,1,0,0,,10,,,57,127
76963,note_on,1,0,0,,6,,,66,127
76963,note_on,0,0,0,,12,,,59,127
77160,note_off,197,0,0,,6,,,66,127
77161,note_off,1,0,0,,12,,,59,127
77162,note_on,1,0,0,,4,,,64,127
77162,note_on,0,0,0,,0,,,60,127
77360,note_off,198,0,0,,0,,,60,127
77360,note_off,0,0,0,,4,,,64,127
77361,note_on,1,0,0,,6,,,66,127
77361,note_on,0,0,0,,12,,,59,127
77754,note_off,393,0,0,,6,,,66,127
77956,note_off,202,0,0,,12,,,59,127
77974,note_on,18,0,0,,12,,,71,127
77974,note_on,0,0,0,,12,,,83,127
78172,note_off,198,0,0,,12,,,71,127
78173,note_on,1,0,0,,1,,,73,127
78371,note_off,198,0,0,,1,,,73,127
78372,note_on,1,0,0,,3,,,75,127
78570,note_off,198,0,0,,3,,,75,127
78571,note_on,1,0,0,,4,,,76,127
78769,note_off,198,0,0,,4,,,76,127
78769,note_off,0,0,0,,12,,,83,127
78770,note_on,1,0,0,,6,,,78,127
78770,note_on,0,0,0,,10,,,81,127
78968,note_off,198,0,0,,10,,,81,127
78968,note_off,0,0,0,,6,,,78,127
78969,note_on,1,0,0,,7,,,79,127
78969,note_on,0,0,0,,12,,,83,127
79167,note_off,198,0,0,,12,,,83,127
79167,note_off,0,0,0,,7,,,79,127
79168,note_on,1,0,0,,10,,,81,127
79168,note_on,0,0,0,,0,,,84,127
79366,note_off,198,0,0,,0,,,84,127
79366,note_off,0,0,0,,10,,,81,127
79367,note_on,1,0,0,,7,,,79,127
79367,note_on,0,0,0,,12,,,83,127
79433,note_off,66,0,0,,12,,,83,127
79433,note_on,0,0,0,,0,,,84,127
79499,note_off,66,0,0,,0,,,84,127
79499,note_on,0,0,0,,12,,,83,127
79564,note_off,65,0,0,,7,,,79,127
79565,note_off,1,0,0,,12,,,83,127
79565,note_on,0,0,0,,6,,,78,127
79565,note_on,0,0,0,,10,,,81,127
79763,note_off,198,0,0,,10,,,81,127
79763,note_off,0,0,0,,6,,,78,127
79764,note_on,1,0,0,,7,,,79,127
79764,note_on,0,0,0,,12,,,83,127
80157,note_off,393,0,0,,12,,,83,127
80359,note_off,202,0,0,,7,,,79,127
80360,note_on,1,0,0,,7,,,55,127
80360,note_on,0,0,0,,7,,,67,127
80558,note_off,198,0,0,,7,,,67,127
80576,note_on,18,0,0,,10,,,69,127
80774,note_off,198,0,0,,10,,,69,127
80775,note_on,1,0,0,,12,,,71,127
80956,note_off,181,0,0,,7,,,55,127
80973,note_off,17,0,0,,12,,,71,127
80974,note_on,1,0,0,,1,,,73,127
80974,note_on,0,0,0,,10,,,57,127
81172,note_off,198,0,0,,1,,,73,127
81173,note_on,1,0,0,,2,,,74,127
81371,note_off,198,0,0,,2,,,74,127
81372,note_on,1,0,0,,4,,,76,127
81570,note_off,198,0,0,,4,,,76,127
81570,note_off,0,0,0,,10,,,57,127
81571,note_on,1,0,0,,7,,,67,127
81571,note_on,0,0,0,,10,,,45,127
81769,note_off,198,0,0,,7,,,67,127
81770,note_on,1,0,0,,6,,,66,127
81968,note_off,198,0,0,,6,,,66,127
81969,note_on,1,0,0,,4,,,64,127
82167,note_off,198,0,0,,4,,,64,127
82167,note_off,0,0,0,,10,,,45,127
82168,note_on,1,0,0,,6,,,66,127
82168,note_on,0,0,0,,2,,,50,127
82561,note_off,393,0,0,,6,,,66,127
82763,note_off,202,0,0,,2,,,50,127
82781,note_on,18,0,0,,2,,,74,127
82781,note_on,0,0,0,,7,,,79,127
82831,note_on,50,0,0,,6,,,78,127
82848,note_off,17,0,0,,7,,,79,127
82881,note_on,33,0,0,,7,,,79,127
82898,note_off,17,0,0,,6,,,78,127
82931,note_on,33,0,0,,6,,,78,127
82948,note_off,17,0,0,,7,,,79,127
82980,note_off,32,0,0,,2,,,74,127
82981,note_off,1,0,0,,6,,,78,127
82981,note_on,0,0,0,,1,,,73,127
82981,note_on,0,0,0,,4,,,76,127
83179,note_off,198,0,0,,4,,,76,127
83179,note_off,0,0,0,,1,,,73,127
83180,note_on,1,0,0,,2,,,74,127
83180,note_on,0,0,0,,6,,,78,127
83378,note_off,198,0,0,,6,,,78,127
83378,note_off,0,0,0,,2,,,74,127
83379,note_on,1,0,0,,4,,,76,127
83379,note_on,0,0,0,,7,,,79,127
83577,note_off,198,0,0,,7,,,79,127
83577,note_off,0,0,0,,4,,,76,127
83578,note_on,1,0,0,,2,,,74,127
83578,note_on,0,0,0,,6,,,78,127
83776,note_off,198,0,0,,6,,,78,127
83776,note_off,0,0,0,,2,,,74,127
83777,note_on,1,0,0,,1,,,73,127
83777,note_on,0,0,0,,4,,,76,127
83975,note_off,198,0,0,,4,,,76,127
83975,note_off,0,0,0,,1,,,73,127
83976,note_on,1,0,0,,12,,,71,127
83976,note_on,0,0,0,,4,,,76,127
84026,note_on,50,0,0,,2,,,74,127
84043,note_off,17,0,0,,4,,,76,127
84076,note_on,33,0,0,,4,,,76,127
84093,note_off,17,0,0,,2,,,74,127
84126,note_on,33,0,0,,2,,,74,127
84143,note_off,17,0,0,,4,,,76,127
84175,note_off,32,0,0,,12,,,71,127
84176,note_off,1,0,0,,2,,,74,127
84176,note_on,0,0,0,,11,,,70,127
84176,note_on,0,0,0,,1,,,73,127
84374,note_off,198,0,0,,1,,,73,127
84374,note_off,0,0,0,,11,,,70,127
84375,note_on,1,0,0,,12,,,71,127
84375,note_on,0,0,0,,2,,,74,127
84573,note_off,198,0,0,,2,,,74,127
84573,note_off,0,0,0,,12,,,71,127
84574,note_on,1,0,0,,11,,,70,127
84574,note_on,0,0,0,,1,,,73,127
84967,note_off,393,0,0,,1,,,73,127
85169,note_off,202,0,0,,11,,,70,127
85187,note_on,18,0,0,,6,,,66,127
85187,note_on,0,0,0,,2,,,50,127
85385,note_off,198,0,0,,6,,,66,127
85386,note_on,1,0,0,,4,,,64,127
85584,note_off,198,0,0,,4,,,64,127
85585,note_on,1,0,0,,6,,,66,127
85783,note_off,198,0,0,,6,,,66,127
85783,note_off,0,0,0,,2,,,50,127
85784,note_on,1,0,0,,7,,,67,127
85784,note_on,0,0,0,,4,,,52,127
85982,note_off,198,0,0,,7,,,67,127
85983,note_on,1,0,0,,11,,,70,127
86181,note_off,198,0,0,,11,,,70,127
86182,note_on,1,0,0,,12,,,71,127
86380,note_off,198,0,0,,12,,,71,127
86380,note_off,0,0,0,,4,,,52,127
86381,note_on,1,0,0,,4,,,64,127
86381,note_on,0,0,0,,7,,,55,127
86579,note_off,198,0,0,,4,,,64,127
86580,note_on,1,0,0,,2,,,62,127
86778,note_off,198,0,0,,2,,,62,127
86779,note_on,1,0,0,,4,,,64,127
86977,note_off,198,0,0,,4,,,64,127
86977,note_off,0,0,0,,7,,,55,127
86978,note_on,1,0,0,,6,,,66,127
86978,note_on,0,0,0,,6,,,54,127
87371,note_off,393,0,0,,6,,,66,127
87573,note_off,202,0,0,,6,,,54,127
87591,note_on,18,0,0,,6,,,78,127
87591,note_on,0,0,0,,11,,,82,127
87789,note_off,198,0,0,,11,,,82,127
87789,note_off,0,0,0,,6,,,78,127
87790,note_on,1,0,0,,8,,,80,127
87790,note_on,0,0,0,,12,,,83,127
87988,note_off,198,0,0,,12,,,83,127
87988,note_off,0,0,0,,8,,,80,127
87989,note_on,1,0,0,,11,,,82,127
87989,note_on,0,0,0,,1,,,85,127
88187,note_off,198,0,0,,1,,,85,127
88187,note_off,0,0,0,,11,,,82,127
88188,note_on,1,0,0,,12,,,83,127
88188,note_on,0,0,0,,2,,,86,127
88386,note_off,198,0,0,,2,,,86,127
88386,note_off,0,0,0,,12,,,83,127
88387,note_on,1,0,0,,10,,,81,127
88387,note_on,0,0,0,,0,,,84,127
88453,note_off,66,0,0,,0,,,84,127
88453,note_on,0,0,0,,2,,,86,127
88519,note_off,66,0,0,,2,,,86,127
88519,note_on,0,0,0,,0,,,84,127
88584,note_off,65,0,0,,10,,,81,127
88585,note_off,1,0,0,,0,,,84,127
88585,note_on,0,0,0,,7,,,79,127
88585,note_on,0,0,0,,12,,,83,127
88783,note_off,198,0,0,,12,,,83,127
88783,note_off,0,0,0,,7,,,79,127
88784,note_on,1,0,0,,6,,,78,127
88784,note_on,0,0,0,,10,,,81,127
88982,note_off,198,0,0,,10,,,81,127
88982,note_off,0,0,0,,6,,,78,127
88983,note_on,1,0,0,,4,,,76,127
88983,note_on,0,0,0,,7,,,79,127
89049,note_off,66,0,0,,7,,,79,127
89049,note_on,0,0,0,,10,,,81,127
89115,note_off,66,0,0,,10,,,81,127
89115,note_on,0,0,0,,7,,,79,127
89180,note_off,65,0,0,,4,,,76,127
89181,note_off,1,0,0,,7,,,79,127
89181,note_on,0,0,0,,2,,,74,127
89181,note_on,0,0,0,,6,,,78,127
89379,note_off,198,0,0,,6,,,78,127
89379,note_off,0,0,0,,2,,,74,127
89380,note_on,1,0,0,,4,,,76,127
89380,note_on,0,0,0,,7,,,79,127
89975,note_off,595,0,0,,7,,,79,127
89975,note_off,0,0,0,,4,,,76,127
89976,note_on,1,0,0,,4,,,76,127
89976,note_on,0,0,0,,7,,,79,127
90174,note_off,198,0,0,,7,,,79,127
90174,note_off,0,0,0,,4,,,76,127
90175,note_on,1,0,0,,6,,,78,127
90175,note_on,0,0,0,,10,,,81,127
90373,note_off,198,0,0,,10,,,81,127
90373,note_off,0,0,0,,6,,,78,127
90374,note_on,1,0,0,,7,,,79,127
90374,note_on,0,0,0,,12,,,83,127
90572,note_off,198,0,0,,12,,,83,127
90572,note_off,0,0,0,,7,,,79,127
90573,note_on,1,0,0,,10,,,81,127
90573,note_on,0,0,0,,1,,,85,127
90771,note_off,198,0,0,,1,,,85,127
90771,note_off,0,0,0,,10,,,81,127
90772,note_on,1,0,0,,7,,,79,127
90772,note_on,0,0,0,,12,,,83,127
90838,note_off,66,0,0,,12,,,83,127
90838,note_on,0,0,0,,1,,,85,127
90904,note_off,66,0,0,,1,,,85,127
90904,note_on,0,0,0,,12,,,83,127
90969,note_off,65,0,0,,7,,,79,127
90970,note_off,1,0,0,,12,,,83,127
90970,note_on,0,0,0,,6,,,78,127
90970,note_on,0,0,0,,10,,,81,127
91168,note_off,198,0,0,,10,,,81,127
91168,note_off,0,0,0,,6,,,78,127
91169,note_on,1,0,0,,4,,,76,127
91169,note_on,0,0,0,,7,,,79,127
91367,note_off,198,0,0,,7,,,79,127
91367,note_off,0,0,0,,4,,,76,127
91368,note_on,1,0,0,,2,,,74,127
91368,note_on,0,0,0,,6,,,78,127
91434,note_off,66,0,0,,6,,,78,127
91434,note_on,0,0,0,,7,,,79,127
91500,note_off,66,0,0,,7,,,79,127
91500,note_on,0,0,0,,6,,,78,127
91565,note_off,65,0,0,,2,,,74,127
91566,note_off,1,0,0,,6,,,78,127
91566,note_on,0,0,0,,1,,,73,127
91566,note_on,0,0,0,,4,,,76,127
91764,note_off,198,0,0,,4,,,76,127
91764,note_off,0,0,0,,1,,,73,127
91765,note_on,1,0,0,,2,,,74,127
91765,note_on,0,0,0,,6,,,78,127
92158,note_off,393,0,0,,6,,,78,127
92360,note_off,202,0,0,,2,,,74,127
92378,note_on,18,0,0,,2,,,62,127
92378,note_on,0,0,0,,2,,,50,127
92576,note_off,198,0,0,,2,,,50,127
92577,note_on,1,0,0,,4,,,52,127
92775,note_off,198,0,0,,4,,,52,127
92776,note_on,1,0,0,,6,,,54,127
92974,note_off,198,0,0,,6,,,54,127
92975,note_on,1,0,0,,7,,,55,127
93173,note_off,198,0,0,,2,,,62,127
93174,note_on,1,0,0,,4,,,64,127
93372,note_off,198,0,0,,4,,,64,127
93373,note_on,1,0,0,,6,,,66,127
93571,note_off,198,0,0,,6,,,66,127
93571,note_off,0,0,0,,7,,,55,127
93572,note_on,1,0,0,,7,,,67,127
93572,note_on,0,0,0,,4,,,52,127
93770,note_off,198,0,0,,4,,,52,127
93771,note_on,1,0,0,,6,,,54,127
93969,note_off,198,0,0,,6,,,54,127
93970,note_on,1,0,0,,7,,,55,127
94168,note_off,198,0,0,,7,,,55,127
94168,note_off,0,0,0,,7,,,67,127
94169,note_on,1,0,0,,4,,,64,127
94169,note_on,0,0,0,,10,,,57,127
94367,note_off,198,0,0,,4,,,64,127
94368,note_on,1,0,0,,6,,,66,127
94566,note_off,198,0,0,,6,,,66,127
94567,note_on,1,0,0,,7,,,67,127
94765,note_off,198,0,0,,7,,,67,127
94765,note_off,0,0,0,,10,,,57,127
94766,note_on,1,0,0,,10,,,69,127
94766,note_on,0,0,0,,10,,,45,127
94964,note_off,198,0,0,,10,,,45,127
94965,note_on,1,0,0,,12,,,47,127
95163,note_off,198,0,0,,12,,,47,127
95164,note_on,1,0,0,,1,,,49,127
95362,note_off,198,0,0,,1,,,49,127
95363,note_on,1,0,0,,2,,,50,127
95561,note_off,198,0,0,,10,,,69,127
95562,note_on,1,0,0,,12,,,71,127
95760,note_off,198,0,0,,12,,,71,127
95761,note_on,1,0,0,,1,,,73,127
95959,note_off,198,0,0,,1,,,73,127
95960,note_on,1,0,0,,2,,,74,127
96158,note_off,198,0,0,,2,,,50,127
96159,note_on,1,0,0,,4,,,52,127
96357,note_off,198,0,0,,4,,,52,127
96358,note_on,1,0,0,,6,,,54,127
96556,note_off,198,0,0,,6,,,54,127
96557,note_on,1,0,0,,7,,,55,127
96755,note_off,198,0,0,,2,,,74,127
96756,note_on,1,0,0,,4,,,76,127
96954,note_off,198,0,0,,4,,,76,127
96955,note_on,1,0,0,,6,,,78,127
97153,note_off,198,0,0,,6,,,78,127
97154,note_on,1,0,0,,7,,,79,127
97352,note_off,198,0,0,,7,,,55,127
97353,note_on,1,0,0,,10,,,57,127
97551,note_off,198,0,0,,10,,,57,127
97551,note_off,0,0,0,,7,,,79,127
97552,note_on,1,0,0,,6,,,78,127
97552,note_on,0,0,0,,12,,,59,127
97750,note_off,198,0,0,,12,,,59,127
97750,note_off,0,0,0,,6,,,78,127
97751,note_on,1,0,0,,4,,,76,127
97751,note_on,0,0,0,,0,,,60,127
97949,note_off,198,0,0,,0,,,60,127
97949,note_off,0,0,0,,4,,,76,127
97950,note_on,1,0,0,,2,,,74,127
97950,note_on,0,0,0,,12,,,59,127
98148,note_off,198,0,0,,12,,,59,127
98148,note_off,0,0,0,,2,,,74,127
98149,note_on,1,0,0,,0,,,72,127
98149,note_on,0,0,0,,10,,,57,127
98347,note_off,198,0,0,,10,,,57,127
98347,note_off,0,0,0,,0,,,72,127
98348,note_on,1,0,0,,12,,,71,127
98348,note_on,0,0,0,,7,,,55,127
98546,note_off,198,0,0,,7,,,55,127
98546,note_off,0,0,0,,12,,,71,127
98547,note_on,1,0,0,,10,,,69,127
98547,note_on,0,0,0,,6,,,54,127
98745,note_off,198,0,0,,6,,,54,127
98745,note_off,0,0,0,,10,,,69,127
98746,note_on,1,0,0,,7,,,67,127
98746,note_on,0,0,0,,4,,,52,127
98944,note_off,198,0,0,,4,,,52,127
98944,note_off,0,0,0,,7,,,67,127
98945,note_on,1,0,0,,10,,,69,127
98945,note_on,0,0,0,,2,,,50,127
99338,note_off,393,0,0,,10,,,69,127
99540,note_off,202,0,0,,2,,,50,127
99566,note_on,26,0,0,,0,,,84,127
99566,note_on,0,0,0,,7,,,79,127
99616,note_on,50,0,0,,12,,,83,127
99633,note_off,17,0,0,,0,,,84,127
99666,note_on,33,0,0,,0,,,84,127
99683,note_off,17,0,0,,12,,,83,127
99716,note_on,33,0,0,,12,,,83,127
99733,note_off,17,0,0,,0,,,84,127
99765,note_off,32,0,0,,7,,,79,127
99766,note_off,1,0,0,,12,,,83,127
99766,note_on,0,0,0,,10,,,81,127
99766,note_on,0,0,0,,6,,,78,127
99964,note_off,198,0,0,,6,,,78,127
99964,note_off,0,0,0,,10,,,81,127
99965,note_on,1,0,0,,12,,,83,127
99965,note_on,0,0,0,,7,,,79,127
100163,note_off,198,0,0,,7,,,79,127
100163,note_off,0,0,0,,12,,,83,127
100164,note_on,1,0,0,,0,,,84,127
100164,note_on,0,0,0,,10,,,81,127
100362,note_off,198,0,0,,10,,,81,127
100363,note_on,1,0,0,,6,,,78,127
100561,note_off,198,0,0,,6,,,78,127
100561,note_off,0,0,0,,0,,,84,127
100562,note_on,1,0,0,,12,,,83,127
100562,note_on,0,0,0,,7,,,79,127
100760,note_off,198,0,0,,7,,,79,127
100760,note_off,0,0,0,,12,,,83,127
100761,note_on,1,0,0,,12,,,83,127
100761,note_on,0,0,0,,0,,,72,127
100827,note_off,66,0,0,,12,,,83,127
100827,note_on,0,0,0,,10,,,81,127
100893,note_off,66,0,0,,10,,,81,127
100893,note_on,0,0,0,,12,,,83,127
100958,note_off,65,0,0,,0,,,72,127
100959,note_off,1,0,0,,12,,,83,127
100959,note_on,0,0,0,,10,,,81,127
100959,note_on,0,0,0,,2,,,74,127
101025,note_off,66,0,0,,10,,,81,127
101025,note_on,0,0,0,,12,,,83,127
101091,note_off,66,0,0,,12,,,83,127
101091,note_on,0,0,0,,10,,,81,127
101156,note_off,65,0,0,,2,,,74,127
101157,note_off,1,0,0,,10,,,81,127
101157,note_on,0,0,0,,7,,,79,127
101157,note_on,0,0,0,,4,,,76,127
101355,note_off,198,0,0,,4,,,76,127
101355,note_off,0,0,0,,7,,,79,127
101356,note_on,1,0,0,,10,,,81,127
101356,note_on,0,0,0,,2,,,74,127
101749,note_off,393,0,0,,10,,,81,127
101951,note_off,202,0,0,,2,,,74,127
101969,note_on,18,0,0,,7,,,67,127
101969,note_on,0,0,0,,12,,,71,127
102167,note_off,198,0,0,,12,,,71,127
102167,note_off,0,0,0,,7,,,67,127
102168,note_on,1,0,0,,6,,,66,127
102168,note_on,0,0,0,,10,,,69,127
102366,note_off,198,0,0,,10,,,69,127
102366,note_off,0,0,0,,6,,,66,127
102367,note_on,1,0,0,,7,,,67,127
102367,note_on,0,0,0,,12,,,71,127
102565,note_off,198,0,0,,12,,,71,127
102565,note_off,0,0,0,,7,,,67,127
102566,note_on,1,0,0,,10,,,69,127
102566,note_on,0,0,0,,0,,,72,127
102764,note_off,198,0,0,,10,,,69,127
102765,note_on,1,0,0,,6,,,66,127
102963,note_off,198,0,0,,6,,,66,127
102963,note_off,0,0,0,,0,,,72,127
102964,note_on,1,0,0,,7,,,67,127
102964,note_on,0,0,0,,12,,,71,127
103162,note_off,198,0,0,,12,,,71,127
103162,note_off,0,0,0,,7,,,67,127
103163,note_on,1,0,0,,0,,,60,127
103163,note_on,0,0,0,,12,,,71,127
103360,note_off,197,0,0,,12,,,71,127
103361,note_off,1,0,0,,0,,,60,127
103362,note_on,1,0,0,,2,,,62,127
103362,note_on,0,0,0,,10,,,69,127
103559,note_off,197,0,0,,10,,,69,127
103560,note_off,1,0,0,,2,,,62,127
103561,note_on,1,0,0,,4,,,64,127
103561,note_on,0,0,0,,7,,,67,127
103759,note_off,198,0,0,,7,,,67,127
103759,note_off,0,0,0,,4,,,64,127
103760,note_on,1,0,0,,2,,,62,127
103760,note_on,0,0,0,,10,,,69,127
104153,note_off,393,0,0,,10,,,69,127
104355,note_off,202,0,0,,2,,,62,127
104373,note_on,18,0,0,,2,,,86,127
104373,note_on,0,0,0,,2,,,74,127
104571,note_off,198,0,0,,2,,,74,127
104572,note_on,1,0,0,,4,,,76,127
104770,note_off,198,0,0,,4,,,76,127
104771,note_on,1,0,0,,6,,,78,127
104969,note_off,198,0,0,,6,,,78,127
104969,note_off,0,0,0,,2,,,86,127
104970,note_on,1,0,0,,0,,,84,127
104970,note_on,0,0,0,,7,,,79,127
105020,note_on,50,0,0,,12,,,83,127
105037,note_off,17,0,0,,0,,,84,127
105070,note_on,33,0,0,,0,,,84,127
105087,note_off,17,0,0,,12,,,83,127
105120,note_on,33,0,0,,12,,,83,127
105137,note_off,17,0,0,,0,,,84,127
105170,note_off,33,0,0,,12,,,83,127
105170,note_on,0,0,0,,10,,,81,127
105364,note_off,194,0,0,,7,,,79,127
105367,note_off,3,0,0,,10,,,81,127
105368,note_on,1,0,0,,7,,,79,127
105566,note_off,198,0,0,,7,,,79,127
105567,note_on,1,0,0,,2,,,86,127
105567,note_on,0,0,0,,2,,,74,127
105765,note_off,198,0,0,,2,,,74,127
105766,note_on,1,0,0,,4,,,76,127
105964,note_off,198,0,0,,4,,,76,127
105965,note_on,1,0,0,,6,,,78,127
106163,note_off,198,0,0,,6,,,78,127
106163,note_off,0,0,0,,2,,,86,127
106164,note_on,1,0,0,,0,,,84,127
106164,note_on,0,0,0,,7,,,79,127
106214,note_on,50,0,0,,12,,,83,127
106231,note_off,17,0,0,,0,,,84,127
106264,note_on,33,0,0,,0,,,84,127
106281,note_off,17,0,0,,12,,,83,127
106314,note_on,33,0,0,,12,,,83,127
106331,note_off,17,0,0,,0,,,84,127
106364,note_off,33,0,0,,12,,,83,127
106364,note_on,0,0,0,,10,,,81,127
106558,note_off,194,0,0,,7,,,79,127
106561,note_off,3,0,0,,10,,,81,127
106562,note_on,1,0,0,,12,,,83,127
106562,note_on,0,0,0,,7,,,79,127
106760,note_off,198,0,0,,7,,,79,127
106760,note_off,0,0,0,,12,,,83,127
106761,note_on,1,0,0,,2,,,86,127
106761,note_on,0,0,0,,12,,,71,127
106959,note_off,198,0,0,,2,,,86,127
106960,note_on,1,0,0,,0,,,84,127
107158,note_off,198,0,0,,0,,,84,127
107159,note_on,1,0,0,,12,,,83,127
107357,note_off,198,0,0,,12,,,83,127
107357,note_off,0,0,0,,12,,,71,127
107358,note_on,1,0,0,,10,,,81,127
107358,note_on,0,0,0,,0,,,72,127
107556,note_off,198,0,0,,0,,,72,127
107557,note_on,1,0,0,,2,,,74,127
107755,note_off,198,0,0,,2,,,74,127
107755,note_off,0,0,0,,10,,,81,127
107756,note_on,1,0,0,,7,,,79,127
107756,note_on,0,0,0,,4,,,76,127
107954,note_off,198,0,0,,4,,,76,127
107954,note_off,0,0,0,,7,,,79,127
107955,note_on,1,0,0,,10,,,81,127
107955,note_on,0,0,0,,2,,,74,127
108153,note_off,198,0,0,,10,,,81,127
108154,note_on,1,0,0,,7,,,79,127
108220,note_off,66,0,0,,7,,,79,127
108220,note_on,0,0,0,,10,,,81,127
108286,note_off,66,0,0,,10,,,81,127
108286,note_on,0,0,0,,7,,,79,127
108352,note_off,66,0,0,,7,,,79,127
108352,note_on,0,0,0,,6,,,78,127
108550,note_off,198,0,0,,6,,,78,127
108550,note_off,0,0,0,,2,,,74,127
108551,note_on,1,0,0,,7,,,79,127
108551,note_on,0,0,0,,7,,,67,127
108944,note_off,393,0,0,,7,,,79,127
109146,note_off,202,0,0,,7,,,67,127
109164,note_on,18,0,0,,7,,,55,127
109164,note_on,0,0,0,,7,,,67,127
109164,note_on,0,0,0,,12,,,59,127
109362,note_off,198,0,0,,12,,,59,127
109362,note_off,0,0,0,,7,,,55,127
109363,note_on,1,0,0,,10,,,57,127
109363,note_on,0,0,0,,0,,,60,127
109561,note_off,198,0,0,,0,,,60,127
109561,note_off,0,0,0,,10,,,57,127
109562,note_on,1,0,0,,12,,,59,127
109562,note_on,0,0,0,,2,,,62,127
109760,note_off,198,0,0,,2,,,62,127
109760,note_off,0,0,0,,12,,,59,127
109761,note_on,1,0,0,,0,,,60,127
109761,note_on,0,0,0,,4,,,64,127
109959,note_off,198,0,0,,7,,,67,127
109960,note_on,1,0,0,,6,,,66,127
110158,note_off,198,0,0,,6,,,66,127
110159,note_on,1,0,0,,7,,,67,127
110357,note_off,198,0,0,,7,,,67,127
110357,note_off,0,0,0,,4,,,64,127
110357,note_off,0,0,0,,0,,,60,127
110358,note_on,1,0,0,,10,,,57,127
110358,note_on,0,0,0,,0,,,60,127
110358,note_on,0,0,0,,10,,,69,127
110556,note_off,198,0,0,,0,,,60,127
110556,note_off,0,0,0,,10,,,57,127
110557,note_on,1,0,0,,12,,,59,127
110557,note_on,0,0,0,,2,,,62,127
110755,note_off,198,0,0,,2,,,62,127
110755,note_off,0,0,0,,12,,,59,127
110756,note_on,1,0,0,,0,,,60,127
110756,note_on,0,0,0,,4,,,64,127
110954,note_off,198,0,0,,4,,,64,127
110954,note_off,0,0,0,,0,,,60,127
110955,note_on,1,0,0,,2,,,62,127
110955,note_on,0,0,0,,6,,,66,127
111153,note_off,198,0,0,,10,,,69,127
111154,note_on,1,0,0,,12,,,71,127
111352,note_off,198,0,0,,12,,,71,127
111353,note_on,1,0,0,,0,,,72,127
111551,note_off,198,0,0,,0,,,72,127
111551,note_off,0,0,0,,2,,,62,127
111552,note_on,1,0,0,,2,,,50,127
111552,note_on,0,0,0,,2,,,74,127
111750,note_off,198,0,0,,2,,,50,127
111750,note_off,0,0,0,,6,,,66,127
111751,note_on,1,0,0,,4,,,52,127
111751,note_on,0,0,0,,7,,,67,127
111949,note_off,198,0,0,,7,,,67,127
111949,note_off,0,0,0,,4,,,52,127
111950,note_on,1,0,0,,6,,,54,127
111950,note_on,0,0,0,,10,,,69,127
112148,note_off,198,0,0,,10,,,69,127
112148,note_off,0,0,0,,6,,,54,127
112149,note_on,1,0,0,,7,,,55,127
112149,note_on,0,0,0,,12,,,71,127
112347,note_off,198,0,0,,12,,,71,127
112347,note_off,0,0,0,,2,,,74,127
112348,note_on,1,0,0,,0,,,72,127
112546,note_off,198,0,0,,0,,,72,127
112547,note_on,1,0,0,,12,,,71,127
112745,note_off,198,0,0,,12,,,71,127
112745,note_off,0,0,0,,7,,,55,127
112746,note_on,1,0,0,,0,,,48,127
112746,note_on,0,0,0,,0,,,72,127
112746,note_on,0,0,0,,10,,,69,127
112944,note_off,198,0,0,,10,,,69,127
112944,note_off,0,0,0,,0,,,72,127
112945,note_on,1,0,0,,7,,,67,127
112945,note_on,0,0,0,,12,,,71,127
113143,note_off,198,0,0,,12,,,71,127
113143,note_off,0,0,0,,7,,,67,127
113143,note_off,0,0,0,,0,,,48,127
113144,note_on,1,0,0,,2,,,50,127
113144,note_on,0,0,0,,10,,,69,127
113144,note_on,0,0,0,,6,,,66,127
113342,note_off,198,0,0,,6,,,66,127
113342,note_off,0,0,0,,10,,,69,127
113342,note_off,0,0,0,,2,,,50,127
113353,note_on,11,0,0,,7,,,43,127
113353,note_on,0,0,0,,7,,,67,127
113974,note_off,621,0,0,,7,,,67,127
113974,note_off,0,0,0,,7,,,43,127
114005,note_on,31,0,0,,2,,,62,127
114005,note_on,0,0,0,,6,,,78,127
114005,note_on,0,0,0,,10,,,81,127
114005,note_on,0,0,0,,2,,,74,127
114005,note_on,0,0,0,,0,,,84,127
114600,note_off,595,0,0,,0,,,84,127
114600,note_off,0,0,0,,2,,,74,127
114600,note_off,0,0,0,,10,,,81,127
114600,note_off,0,0,0,,6,,,78,127
114600,note_off,0,0,0,,2,,,62,127
114601,note_on,1,0,0,,7,,,67,127
114601,note_on,0,0,0,,12,,,83,127
114601,note_on,0,0,0,,7,,,79,127
114601,note_on,0,0,0,,2,,,74,127
115196,note_off,595,0,0,,2,,,74,127
115196,note_off,0,0,0,,7,,,79,127
115196,note_off,0,0,0,,12,,,83,127
115196,note_off,0,0,0,,7,,,67,127
115214,note_on,18,0,0,,2,,,62,127
115214,note_on,0,0,0,,6,,,66,127
115214,note_on,0,0,0,,0,,,72,127
115214,note_on,0,0,0,,10,,,69,127
115214,note_on,0,0,0,,2,,,38,127
115809,note_off,595,0,0,,2,,,38,127
115809,note_off,0,0,0,,10,,,69,127
115809,note_off,0,0,0,,0,,,72,127
115809,note_off,0,0,0,,6,,,66,127
115809,note_off,0,0,0,,2,,,62,127
115810,note_on,1,0,0,,2,,,62,127
115810,note_on,0,0,0,,12,,,71,127
115810,note_on,0,0,0,,7,,,67,127
115810,note_on,0,0,0,,7,,,43,127
116405,note_off,595,0,0,,7,,,43,127
116405,note_off,0,0,0,,7,,,67,127
116405,note_off,0,0,0,,12,,,71,127
116405,note_off,0,0,0,,2,,,62,127
116443,note_on,38,0,0,,2,,,74,127
116443,note_on,0,0,0,,10,,,81,127
116443,note_on,0,0,0,,6,,,78,127
116443,note_on,0,0,0,,0,,,84,127
116443,note_on,0,0,0,,2,,,62,127
117049,note_off,606,0,0,,2,,,62,127
117049,note_off,0,0,0,,0,,,84,127
117049,note_off,0,0,0,,6,,,78,127
117049,note_off,0,0,0,,10,,,81,127
117049,note_off,0,0,0,,2,,,74,127
117051,note_on,2,0,0,,7,,,79,127
117051,note_on,0,0,0,,2,,,74,127
117051,note_on,0,0,0,,12,,,83,127
117051,note_on,0,0,0,,7,,,67,127
117657,note_off,606,0,0,,7,,,67,127
117657,note_off,0,0,0,,12,,,83,127
117657,note_off,0,0,0,,2,,,74,127
117657,note_off,0,0,0,,7,,,79,127
117658,note_on,1,0,0,,6,,,78,127
117658,note_on,0,0,0,,0,,,72,127
117658,note_on,0,0,0,,10,,,81,127
117658,note_on,0,0,0,,2,,,62,127
118264,note_off,606,0,0,,2,,,62,127
118264,note_off,0,0,0,,10,,,81,127
118264,note_off,0,0,0,,0,,,72,127
118264,note_off,0,0,0,,6,,,78,127
118266,note_on,2,0,0,,12,,,71,127
118266,note_on,0,0,0,,7,,,79,127
118266,note_on,0,0,0,,2,,,74,127
118266,note_on,0,0,0,,7,,,67,127
118872,note_off,606,0,0,,7,,,67,127
118872,note_off,0,0,0,,2,,,74,127
118872,note_off,0,0,0,,7,,,79,127
118872,note_off,0,0,0,,12,,,71,127
118921,note_on,49,0,0,,2,,,50,127
118921,note_on,0,0,0,,2,,,38,127
118921,note_on,0,0,0,,10,,,69,127
118921,note_on,0,0,0,,0,,,72,127
118921,note_on,0,0,0,,6,,,66,127
118921,note_on,0,0,0,,2,,,62,127
119576,note_off,655,0,0,,2,,,62,127
119576,note_off,0,0,0,,6,,,66,127
119576,note_off,0,0,0,,0,,,72,127
119576,note_off,0,0,0,,10,,,69,127
119576,note_off,0,0,0,,2,,,38,127
119576,note_off,0,0,0,,2,,,50,127
119590,note_on,14,0,0,,7,,,55,127
119590,note_on,0,0,0,,7,,,43,127
119590,note_on,0,0,0,,7,,,67,127
119590,note_on,0,0,0,,12,,,71,127
119590,note_on,0,0,0,,2,,,62,127
120245,note_off,655,0,0,,2,,,62,127
120245,note_off,0,0,0,,12,,,71,127
120245,note_off,0,0,0,,7,,,67,127
120245,note_off,0,0,0,,7,,,43,127
120245,note_off,0,0,0,,7,,,55,127
120261,note_on,16,0,0,,2,,,50,127
120261,note_on,0,0,0,,2,,,38,127
120261,note_on,0,0,0,,10,,,69,127
120261,note_on,0,0,0,,6,,,66,127
120261,note_on,0,0,0,,0,,,60,127
120916,note_off,655,0,0,,0,,,60,127
120916,note_off,0,0,0,,6,,,66,127
120916,note_off,0,0,0,,10,,,69,127
120916,note_off,0,0,0,,2,,,38,127
120916,note_off,0,0,0,,2,,,50,127
120945,note_on,29,0,0,,7,,,43,127
120945,note_on,0,0,0,,12,,,59,127
120945,note_on,0,0,0,,7,,,67,127
120945,note_on,0,0,0,,2,,,62,127
123424,note_off,2479,0,0,,2,,,62,127
123424,note_off,0,0,0,,7,,,67,127
123424,note_off,0,0,0,,12,,,59,127
123424,note_off,0,0,0,,7,,,43,127
127488,end_of_track,4064,1,0,,,,,,
