tick,type,time,meta,track,program,channel,pitch,tempo,note,velocity
0,copyright,0,1,0,,,,,,
0,program_change,0,0,0,6,0,,,,
0,pitchwheel,0,0,0,,0,0,,,
0,program_change,0,0,0,6,1,,,,
0,pitchwheel,0,0,0,,1,-590,,,
0,program_change,0,0,0,6,2,,,,
0,pitchwheel,0,0,0,,2,-272,,,
0,program_change,0,0,0,6,3,,,,
0,pitchwheel,0,0,0,,3,-353,,,
0,program_change,0,0,0,6,4,,,,
0,pitchwheel,0,0,0,,4,-560,,,
0,program_change,0,0,0,6,5,,,,
0,pitchwheel,0,0,0,,5,-80,,,
0,program_change,0,0,0,6,6,,,,
0,pitchwheel,0,0,0,,6,-625,,,
0,program_change,0,0,0,6,7,,,,
0,pitchwheel,0,0,0,,7,-130,,,
0,program_change,0,0,0,6,8,,,,
0,pitchwheel,0,0,0,,8,-512,,,
0,program_change,0,0,0,6,10,,,,
0,pitchwheel,0,0,0,,10,-464,,,
0,program_change,0,0,0,6,11,,,,
0,pitchwheel,0,0,0,,11,-208,,,
0,program_change,0,0,0,6,12,,,,
0,pitchwheel,0,0,0,,12,-553,,,
0,set_tempo,0,1,0,,,,500000,,
105,note_on,105,0,0,,0,,,60,127
105,note_on,0,0,0,,10,,,81,127
155,note_off,50,0,0,,10,,,81,127
157,note_on,2,0,0,,7,,,79,127
207,note_off,50,0,0,,7,,,79,127
209,note_on,2,0,0,,10,,,81,127
259,note_off,50,0,0,,10,,,81,127
261,note_on,2,0,0,,7,,,79,127
311,note_off,50,0,0,,7,,,79,127
313,note_on,2,0,0,,10,,,81,127
363,note_off,50,0,0,,10,,,81,127
365,note_on,2,0,0,,7,,,79,127
415,note_off,50,0,0,,7,,,79,127
417,note_on,2,0,0,,5,,,77,127
520,note_off,103,0,0,,5,,,77,127
522,note_on,2,0,0,,4,,,76,127
729,note_off,207,0,0,,4,,,76,127
731,note_on,2,0,0,,10,,,81,127
938,note_off,207,0,0,,10,,,81,127
938,note_off,0,0,0,,0,,,60,127
940,note_on,2,0,0,,0,,,60,127
940,note_on,0,0,0,,10,,,81,127
990,note_off,50,0,0,,10,,,81,127
992,note_on,2,0,0,,7,,,79,127
1042,note_off,50,0,0,,7,,,79,127
1044,note_on,2,0,0,,10,,,81,127
1094,note_off,50,0,0,,10,,,81,127
1096,note_on,2,0,0,,7,,,79,127
1146,note_off,50,0,0,,7,,,79,127
1148,note_on,2,0,0,,10,,,81,127
1198,note_off,50,0,0,,10,,,81,127
1200,note_on,2,0,0,,7,,,79,127
1250,note_off,50,0,0,,7,,,79,127
1252,note_on,2,0,0,,5,,,77,127
1355,note_off,103,0,0,,5,,,77,127
1357,note_on,2,0,0,,4,,,76,127
1564,note_off,207,0,0,,4,,,76,127
1566,note_on,2,0,0,,7,,,79,127
1773,note_off,207,0,0,,7,,,79,127
1774,note_off,1,0,0,,0,,,60,127
1775,note_on,1,0,0,,2,,,74,127
1982,note_off,207,0,0,,2,,,74,127
1984,note_on,2,0,0,,5,,,53,127
1984,note_on,0,0,0,,4,,,76,127
2087,note_off,103,0,0,,4,,,76,127
2089,note_on,2,0,0,,5,,,77,127
2192,note_off,103,0,0,,5,,,77,127
2192,note_off,0,0,0,,5,,,53,127
2194,note_on,2,0,0,,7,,,55,127
2194,note_on,0,0,0,,4,,,76,127
2297,note_off,103,0,0,,4,,,76,127
2299,note_on,2,0,0,,2,,,74,127
2402,note_off,103,0,0,,2,,,74,127
2402,note_off,0,0,0,,7,,,55,127
2404,note_on,2,0,0,,7,,,43,127
2404,note_on,0,0,0,,0,,,72,127
2507,note_off,103,0,0,,0,,,72,127
2509,note_on,2,0,0,,12,,,71,127
2612,note_off,103,0,0,,12,,,71,127
2612,note_off,0,0,0,,7,,,43,127
2614,note_on,2,0,0,,0,,,48,127
2614,note_on,0,0,0,,0,,,72,127
2821,note_off,207,0,0,,0,,,72,127
2823,note_on,2,0,0,,7,,,67,127
3030,note_off,207,0,0,,7,,,67,127
3032,note_on,2,0,0,,7,,,67,127
3239,note_off,207,0,0,,7,,,67,127
3248,note_on,9,0,0,,7,,,67,127
3268,note_off,20,0,0,,0,,,48,127
3456,note_off,188,0,0,,7,,,67,127
3463,note_on,7,0,0,,5,,,65,127
3463,note_on,0,0,0,,0,,,72,127
3513,note_off,50,0,0,,5,,,65,127
3515,note_on,2,0,0,,4,,,64,127
3565,note_off,50,0,0,,4,,,64,127
3567,note_on,2,0,0,,5,,,65,127
3617,note_off,50,0,0,,5,,,65,127
3619,note_on,2,0,0,,4,,,64,127
3669,note_off,50,0,0,,4,,,64,127
3669,note_off,0,0,0,,0,,,72,127
3671,note_on,2,0,0,,5,,,65,127
3671,note_on,0,0,0,,0,,,72,127
3721,note_off,50,0,0,,5,,,65,127
3723,note_on,2,0,0,,4,,,64,127
3773,note_off,50,0,0,,4,,,64,127
3775,note_on,2,0,0,,2,,,62,127
3878,note_off,103,0,0,,2,,,62,127
3878,note_off,0,0,0,,0,,,72,127
3880,note_on,2,0,0,,0,,,60,127
3880,note_on,0,0,0,,0,,,72,127
4087,note_off,207,0,0,,0,,,72,127
4087,note_off,0,0,0,,0,,,60,127
4089,note_on,2,0,0,,5,,,65,127
4089,note_on,0,0,0,,0,,,72,127
4296,note_off,207,0,0,,0,,,72,127
4296,note_off,0,0,0,,5,,,65,127
4298,note_on,2,0,0,,5,,,65,127
4298,note_on,0,0,0,,0,,,72,127
4348,note_off,50,0,0,,5,,,65,127
4350,note_on,2,0,0,,4,,,64,127
4400,note_off,50,0,0,,4,,,64,127
4402,note_on,2,0,0,,5,,,65,127
4452,note_off,50,0,0,,5,,,65,127
4454,note_on,2,0,0,,4,,,64,127
4504,note_off,50,0,0,,4,,,64,127
4504,note_off,0,0,0,,0,,,72,127
4506,note_on,2,0,0,,5,,,65,127
4506,note_on,0,0,0,,0,,,72,127
4556,note_off,50,0,0,,5,,,65,127
4558,note_on,2,0,0,,4,,,64,127
4608,note_off,50,0,0,,4,,,64,127
4610,note_on,2,0,0,,2,,,62,127
4713,note_off,103,0,0,,2,,,62,127
4713,note_off,0,0,0,,0,,,72,127
4715,note_on,2,0,0,,0,,,60,127
4715,note_on,0,0,0,,0,,,72,127
4922,note_off,207,0,0,,0,,,72,127
4922,note_off,0,0,0,,0,,,60,127
4924,note_on,2,0,0,,4,,,64,127
4924,note_on,0,0,0,,0,,,72,127
5131,note_off,207,0,0,,0,,,72,127
5131,note_off,0,0,0,,4,,,64,127
5133,note_on,2,0,0,,0,,,72,127
5236,note_off,103,0,0,,0,,,72,127
5238,note_on,2,0,0,,2,,,74,127
5341,note_off,103,0,0,,2,,,74,127
5343,note_on,2,0,0,,5,,,53,127
5343,note_on,0,0,0,,4,,,76,127
5446,note_off,103,0,0,,4,,,76,127
5448,note_on,2,0,0,,5,,,77,127
5551,note_off,103,0,0,,5,,,77,127
5551,note_off,0,0,0,,5,,,53,127
5553,note_on,2,0,0,,7,,,55,127
5553,note_on,0,0,0,,4,,,76,127
5656,note_off,103,0,0,,4,,,76,127
5658,note_on,2,0,0,,2,,,74,127
5761,note_off,103,0,0,,2,,,74,127
5761,note_off,0,0,0,,7,,,55,127
5763,note_on,2,0,0,,7,,,43,127
5763,note_on,0,0,0,,0,,,72,127
5866,note_off,103,0,0,,0,,,72,127
5868,note_on,2,0,0,,12,,,71,127
5971,note_off,103,0,0,,12,,,71,127
5971,note_off,0,0,0,,7,,,43,127
5973,note_on,2,0,0,,0,,,48,127
5973,note_on,0,0,0,,0,,,72,127
6180,note_off,207,0,0,,0,,,72,127
6182,note_on,2,0,0,,7,,,67,127
6389,note_off,207,0,0,,7,,,67,127
6391,note_on,2,0,0,,7,,,67,127
6598,note_off,207,0,0,,7,,,67,127
6607,note_on,9,0,0,,7,,,67,127
6736,note_off,129,0,0,,0,,,48,127
6815,note_off,79,0,0,,7,,,67,127
6828,note_on,13,0,0,,0,,,72,127
6828,note_on,0,0,0,,5,,,65,127
6878,note_off,50,0,0,,5,,,65,127
6880,note_on,2,0,0,,4,,,64,127
6930,note_off,50,0,0,,4,,,64,127
6932,note_on,2,0,0,,5,,,65,127
6982,note_off,50,0,0,,5,,,65,127
6984,note_on,2,0,0,,4,,,64,127
7034,note_off,50,0,0,,4,,,64,127
7034,note_off,0,0,0,,0,,,72,127
7036,note_on,2,0,0,,0,,,72,127
7036,note_on,0,0,0,,5,,,65,127
7086,note_off,50,0,0,,5,,,65,127
7088,note_on,2,0,0,,4,,,64,127
7138,note_off,50,0,0,,4,,,64,127
7140,note_on,2,0,0,,2,,,62,127
7243,note_off,103,0,0,,2,,,62,127
7243,note_off,0,0,0,,0,,,72,127
7245,note_on,2,0,0,,0,,,72,127
7245,note_on,0,0,0,,0,,,60,127
7452,note_off,207,0,0,,0,,,60,127
7452,note_off,0,0,0,,0,,,72,127
7454,note_on,2,0,0,,0,,,72,127
7454,note_on,0,0,0,,5,,,65,127
7661,note_off,207,0,0,,5,,,65,127
7661,note_off,0,0,0,,0,,,72,127
7663,note_on,2,0,0,,0,,,72,127
7663,note_on,0,0,0,,5,,,65,127
7713,note_off,50,0,0,,5,,,65,127
7715,note_on,2,0,0,,4,,,64,127
7765,note_off,50,0,0,,4,,,64,127
7767,note_on,2,0,0,,5,,,65,127
7817,note_off,50,0,0,,5,,,65,127
7819,note_on,2,0,0,,4,,,64,127
7869,note_off,50,0,0,,4,,,64,127
7869,note_off,0,0,0,,0,,,72,127
7871,note_on,2,0,0,,0,,,72,127
7871,note_on,0,0,0,,5,,,65,127
7921,note_off,50,0,0,,5,,,65,127
7923,note_on,2,0,0,,4,,,64,127
7973,note_off,50,0,0,,4,,,64,127
7975,note_on,2,0,0,,2,,,62,127
8078,note_off,103,0,0,,2,,,62,127
8078,note_off,0,0,0,,0,,,72,127
8080,note_on,2,0,0,,0,,,72,127
8080,note_on,0,0,0,,0,,,60,127
8287,note_off,207,0,0,,0,,,60,127
8287,note_off,0,0,0,,0,,,72,127
8289,note_on,2,0,0,,0,,,72,127
8289,note_on,0,0,0,,4,,,64,127
8496,note_off,207,0,0,,4,,,64,127
8496,note_off,0,0,0,,0,,,72,127
8498,note_on,2,0,0,,0,,,72,127
8601,note_off,103,0,0,,0,,,72,127
8603,note_on,2,0,0,,2,,,74,127
8706,note_off,103,0,0,,2,,,74,127
8708,note_on,2,0,0,,4,,,76,127
8708,note_on,0,0,0,,5,,,53,127
8811,note_off,103,0,0,,4,,,76,127
8813,note_on,2,0,0,,5,,,77,127
8916,note_off,103,0,0,,5,,,77,127
8916,note_off,0,0,0,,5,,,53,127
8918,note_on,2,0,0,,4,,,76,127
8918,note_on,0,0,0,,7,,,55,127
9021,note_off,103,0,0,,4,,,76,127
9023,note_on,2,0,0,,2,,,74,127
9126,note_off,103,0,0,,2,,,74,127
9126,note_off,0,0,0,,7,,,55,127
9128,note_on,2,0,0,,0,,,72,127
9128,note_on,0,0,0,,7,,,43,127
9231,note_off,103,0,0,,0,,,72,127
9233,note_on,2,0,0,,12,,,71,127
9336,note_off,103,0,0,,12,,,71,127
9336,note_off,0,0,0,,7,,,43,127
9338,note_on,2,0,0,,0,,,72,127
9338,note_on,0,0,0,,0,,,48,127
9545,note_off,207,0,0,,0,,,72,127
9547,note_on,2,0,0,,7,,,67,127
9754,note_off,207,0,0,,7,,,67,127
9763,note_on,9,0,0,,0,,,36,127
9763,note_on,0,0,0,,7,,,67,127
9970,note_off,207,0,0,,7,,,67,127
9985,note_on,15,0,0,,7,,,67,127
10101,note_off,116,0,0,,0,,,48,127
10193,note_off,92,0,0,,7,,,67,127
10219,note_on,26,0,0,,10,,,81,127
10269,note_off,50,0,0,,10,,,81,127
10271,note_on,2,0,0,,7,,,79,127
10286,note_off,15,0,0,,0,,,36,127
10321,note_off,35,0,0,,7,,,79,127
10323,note_on,2,0,0,,10,,,81,127
10373,note_off,50,0,0,,10,,,81,127
10375,note_on,2,0,0,,7,,,79,127
10425,note_off,50,0,0,,7,,,79,127
10427,note_on,2,0,0,,10,,,81,127
10427,note_on,0,0,0,,0,,,60,127
10477,note_off,50,0,0,,10,,,81,127
10479,note_on,2,0,0,,7,,,79,127
10529,note_off,50,0,0,,7,,,79,127
10531,note_on,2,0,0,,5,,,77,127
10634,note_off,103,0,0,,5,,,77,127
10634,note_off,0,0,0,,0,,,60,127
10636,note_on,2,0,0,,4,,,76,127
10636,note_on,0,0,0,,0,,,60,127
10843,note_off,207,0,0,,0,,,60,127
10843,note_off,0,0,0,,4,,,76,127
10845,note_on,2,0,0,,7,,,79,127
10845,note_on,0,0,0,,0,,,60,127
11052,note_off,207,0,0,,7,,,79,127
11054,note_on,2,0,0,,1,,,73,127
11128,note_off,74,0,0,,0,,,60,127
11261,note_off,133,0,0,,1,,,73,127
11263,note_on,2,0,0,,2,,,74,127
11263,note_on,0,0,0,,12,,,59,127
11470,note_off,207,0,0,,12,,,59,127
11472,note_on,2,0,0,,12,,,59,127
11679,note_off,207,0,0,,12,,,59,127
11686,note_on,7,0,0,,12,,,59,127
11889,note_off,203,0,0,,2,,,74,127
11909,note_on,20,0,0,,10,,,81,127
11959,note_off,50,0,0,,10,,,81,127
11961,note_on,2,0,0,,7,,,79,127
11970,note_off,9,0,0,,12,,,59,127
12011,note_off,41,0,0,,7,,,79,127
12013,note_on,2,0,0,,10,,,81,127
12063,note_off,50,0,0,,10,,,81,127
12065,note_on,2,0,0,,7,,,79,127
12115,note_off,50,0,0,,7,,,79,127
12117,note_on,2,0,0,,0,,,60,127
12117,note_on,0,0,0,,10,,,81,127
12167,note_off,50,0,0,,10,,,81,127
12169,note_on,2,0,0,,7,,,79,127
12219,note_off,50,0,0,,7,,,79,127
12221,note_on,2,0,0,,5,,,77,127
12324,note_off,103,0,0,,5,,,77,127
12324,note_off,0,0,0,,0,,,60,127
12326,note_on,2,0,0,,0,,,60,127
12326,note_on,0,0,0,,4,,,76,127
12533,note_off,207,0,0,,4,,,76,127
12533,note_off,0,0,0,,0,,,60,127
12535,note_on,2,0,0,,0,,,60,127
12535,note_on,0,0,0,,7,,,79,127
12742,note_off,207,0,0,,7,,,79,127
12742,note_off,0,0,0,,0,,,60,127
12744,note_on,2,0,0,,12,,,71,127
12847,note_off,103,0,0,,12,,,71,127
12849,note_on,2,0,0,,0,,,72,127
12952,note_off,103,0,0,,0,,,72,127
12954,note_on,2,0,0,,7,,,55,127
12954,note_on,0,0,0,,2,,,74,127
13161,note_off,207,0,0,,7,,,55,127
13163,note_on,2,0,0,,7,,,55,127
13370,note_off,207,0,0,,7,,,55,127
13377,note_on,7,0,0,,7,,,55,127
13477,note_off,100,0,0,,2,,,74,127
13584,note_off,107,0,0,,7,,,55,127
13599,note_on,15,0,0,,7,,,79,127
13649,note_off,50,0,0,,7,,,79,127
13651,note_on,2,0,0,,5,,,77,127
13701,note_off,50,0,0,,5,,,77,127
13703,note_on,2,0,0,,7,,,79,127
13753,note_off,50,0,0,,7,,,79,127
13755,note_on,2,0,0,,5,,,77,127
13805,note_off,50,0,0,,5,,,77,127
13807,note_on,2,0,0,,7,,,79,127
13807,note_on,0,0,0,,5,,,53,127
13857,note_off,50,0,0,,7,,,79,127
13859,note_on,2,0,0,,5,,,77,127
13909,note_off,50,0,0,,5,,,77,127
13911,note_on,2,0,0,,4,,,76,127
14014,note_off,103,0,0,,4,,,76,127
14014,note_off,0,0,0,,5,,,53,127
14016,note_on,2,0,0,,2,,,74,127
14016,note_on,0,0,0,,5,,,53,127
14223,note_off,207,0,0,,5,,,53,127
14223,note_off,0,0,0,,2,,,74,127
14225,note_on,2,0,0,,10,,,81,127
14225,note_on,0,0,0,,5,,,53,127
14432,note_off,207,0,0,,10,,,81,127
14434,note_on,2,0,0,,12,,,71,127
14539,note_off,105,0,0,,5,,,53,127
14642,note_off,103,0,0,,12,,,71,127
14644,note_on,2,0,0,,0,,,72,127
14644,note_on,0,0,0,,4,,,52,127
14851,note_off,207,0,0,,4,,,52,127
14853,note_on,2,0,0,,4,,,52,127
15060,note_off,207,0,0,,4,,,52,127
15060,note_off,0,0,0,,0,,,72,127
15067,note_on,7,0,0,,4,,,52,127
15074,note_on,7,0,0,,7,,,79,127
15275,note_off,201,0,0,,4,,,52,127
15282,note_off,7,0,0,,7,,,79,127
15291,note_on,9,0,0,,7,,,79,127
15341,note_off,50,0,0,,7,,,79,127
15343,note_on,2,0,0,,5,,,77,127
15393,note_off,50,0,0,,5,,,77,127
15395,note_on,2,0,0,,7,,,79,127
15445,note_off,50,0,0,,7,,,79,127
15447,note_on,2,0,0,,5,,,77,127
15497,note_off,50,0,0,,5,,,77,127
15499,note_on,2,0,0,,5,,,53,127
15499,note_on,0,0,0,,7,,,79,127
15549,note_off,50,0,0,,7,,,79,127
15551,note_on,2,0,0,,5,,,77,127
15601,note_off,50,0,0,,5,,,77,127
15603,note_on,2,0,0,,4,,,76,127
15706,note_off,103,0,0,,4,,,76,127
15706,note_off,0,0,0,,5,,,53,127
15708,note_on,2,0,0,,5,,,53,127
15708,note_on,0,0,0,,2,,,74,127
15915,note_off,207,0,0,,2,,,74,127
15915,note_off,0,0,0,,5,,,53,127
15917,note_on,2,0,0,,5,,,53,127
15917,note_on,0,0,0,,10,,,81,127
16124,note_off,207,0,0,,10,,,81,127
16126,note_on,2,0,0,,12,,,71,127
16231,note_off,105,0,0,,5,,,53,127
16334,note_off,103,0,0,,12,,,71,127
16336,note_on,2,0,0,,4,,,52,127
16336,note_on,0,0,0,,0,,,72,127
16543,note_off,207,0,0,,4,,,52,127
16545,note_on,2,0,0,,4,,,52,127
16706,note_off,161,0,0,,0,,,72,127
16752,note_off,46,0,0,,4,,,52,127
16759,note_on,7,0,0,,4,,,52,127
16766,note_on,7,0,0,,7,,,79,127
16967,note_off,201,0,0,,4,,,52,127
16984,note_off,17,0,0,,7,,,79,127
16991,note_on,7,0,0,,4,,,76,127
17059,note_off,68,0,0,,4,,,76,127
17061,note_on,2,0,0,,5,,,77,127
17129,note_off,68,0,0,,5,,,77,127
17131,note_on,2,0,0,,7,,,79,127
17199,note_off,68,0,0,,7,,,79,127
17201,note_on,2,0,0,,5,,,77,127
17201,note_on,0,0,0,,10,,,57,127
17408,note_off,207,0,0,,5,,,77,127
17410,note_on,2,0,0,,2,,,74,127
17478,note_off,68,0,0,,2,,,74,127
17480,note_on,2,0,0,,4,,,76,127
17548,note_off,68,0,0,,4,,,76,127
17550,note_on,2,0,0,,5,,,77,127
17618,note_off,68,0,0,,5,,,77,127
17618,note_off,0,0,0,,10,,,57,127
17620,note_on,2,0,0,,4,,,76,127
17620,note_on,0,0,0,,7,,,55,127
17827,note_off,207,0,0,,4,,,76,127
17829,note_on,2,0,0,,0,,,72,127
17897,note_off,68,0,0,,0,,,72,127
17899,note_on,2,0,0,,2,,,74,127
17967,note_off,68,0,0,,2,,,74,127
17969,note_on,2,0,0,,4,,,76,127
18037,note_off,68,0,0,,4,,,76,127
18037,note_off,0,0,0,,7,,,55,127
18039,note_on,2,0,0,,2,,,74,127
18039,note_on,0,0,0,,5,,,53,127
18246,note_off,207,0,0,,2,,,74,127
18248,note_on,2,0,0,,12,,,71,127
18316,note_off,68,0,0,,12,,,71,127
18318,note_on,2,0,0,,0,,,72,127
18386,note_off,68,0,0,,0,,,72,127
18388,note_on,2,0,0,,2,,,74,127
18456,note_off,68,0,0,,2,,,74,127
18456,note_off,0,0,0,,5,,,53,127
18458,note_on,2,0,0,,0,,,72,127
18458,note_on,0,0,0,,4,,,52,127
18665,note_off,207,0,0,,4,,,52,127
18667,note_on,2,0,0,,5,,,53,127
18770,note_off,103,0,0,,0,,,72,127
18772,note_on,2,0,0,,10,,,81,127
18875,note_off,103,0,0,,10,,,81,127
18875,note_off,0,0,0,,5,,,53,127
18877,note_on,2,0,0,,7,,,79,127
18877,note_on,0,0,0,,5,,,53,127
18980,note_off,103,0,0,,7,,,79,127
18982,note_on,2,0,0,,5,,,77,127
19085,note_off,103,0,0,,5,,,77,127
19085,note_off,0,0,0,,5,,,53,127
19087,note_on,2,0,0,,4,,,76,127
19087,note_on,0,0,0,,7,,,55,127
19190,note_off,103,0,0,,4,,,76,127
19192,note_on,2,0,0,,2,,,74,127
19295,note_off,103,0,0,,2,,,74,127
19295,note_off,0,0,0,,7,,,55,127
19297,note_on,2,0,0,,0,,,72,127
19297,note_on,0,0,0,,7,,,43,127
19400,note_off,103,0,0,,0,,,72,127
19402,note_on,2,0,0,,12,,,71,127
19505,note_off,103,0,0,,12,,,71,127
19505,note_off,0,0,0,,7,,,43,127
19507,note_on,2,0,0,,0,,,72,127
19507,note_on,0,0,0,,0,,,48,127
19714,note_off,207,0,0,,0,,,48,127
19714,note_off,0,0,0,,0,,,72,127
19716,note_on,2,0,0,,0,,,72,127
19716,note_on,0,0,0,,7,,,43,127
19923,note_off,207,0,0,,7,,,43,127
19923,note_off,0,0,0,,0,,,72,127
19925,note_on,2,0,0,,0,,,72,127
19925,note_on,0,0,0,,0,,,36,127
20152,note_on,227,0,0,,7,,,79,127
20340,note_off,188,0,0,,0,,,72,127
20360,note_off,20,0,0,,7,,,79,127
20362,note_on,2,0,0,,4,,,76,127
20430,note_off,68,0,0,,4,,,76,127
20432,note_on,2,0,0,,5,,,77,127
20449,note_off,17,0,0,,0,,,36,127
20499,note_off,50,0,0,,5,,,77,127
20501,note_on,2,0,0,,7,,,79,127
20569,note_off,68,0,0,,7,,,79,127
20571,note_on,2,0,0,,10,,,57,127
20571,note_on,0,0,0,,5,,,77,127
20778,note_off,207,0,0,,5,,,77,127
20780,note_on,2,0,0,,2,,,74,127
20848,note_off,68,0,0,,2,,,74,127
20850,note_on,2,0,0,,4,,,76,127
20918,note_off,68,0,0,,4,,,76,127
20920,note_on,2,0,0,,5,,,77,127
20988,note_off,68,0,0,,5,,,77,127
20988,note_off,0,0,0,,10,,,57,127
20990,note_on,2,0,0,,7,,,55,127
20990,note_on,0,0,0,,4,,,76,127
21197,note_off,207,0,0,,4,,,76,127
21199,note_on,2,0,0,,0,,,72,127
21267,note_off,68,0,0,,0,,,72,127
21269,note_on,2,0,0,,2,,,74,127
21337,note_off,68,0,0,,2,,,74,127
21339,note_on,2,0,0,,4,,,76,127
21407,note_off,68,0,0,,4,,,76,127
21407,note_off,0,0,0,,7,,,55,127
21409,note_on,2,0,0,,5,,,53,127
21409,note_on,0,0,0,,2,,,74,127
21616,note_off,207,0,0,,2,,,74,127
21618,note_on,2,0,0,,12,,,71,127
21686,note_off,68,0,0,,12,,,71,127
21688,note_on,2,0,0,,0,,,72,127
21756,note_off,68,0,0,,0,,,72,127
21758,note_on,2,0,0,,2,,,74,127
21826,note_off,68,0,0,,2,,,74,127
21826,note_off,0,0,0,,5,,,53,127
21828,note_on,2,0,0,,4,,,52,127
21828,note_on,0,0,0,,0,,,72,127
22035,note_off,207,0,0,,4,,,52,127
22037,note_on,2,0,0,,5,,,53,127
22140,note_off,103,0,0,,0,,,72,127
22142,note_on,2,0,0,,10,,,81,127
22245,note_off,103,0,0,,10,,,81,127
22245,note_off,0,0,0,,5,,,53,127
22247,note_on,2,0,0,,5,,,53,127
22247,note_on,0,0,0,,7,,,79,127
22350,note_off,103,0,0,,7,,,79,127
22352,note_on,2,0,0,,5,,,77,127
22455,note_off,103,0,0,,5,,,77,127
22455,note_off,0,0,0,,5,,,53,127
22457,note_on,2,0,0,,7,,,55,127
22457,note_on,0,0,0,,4,,,76,127
22560,note_off,103,0,0,,4,,,76,127
22562,note_on,2,0,0,,2,,,74,127
22665,note_off,103,0,0,,2,,,74,127
22665,note_off,0,0,0,,7,,,55,127
22667,note_on,2,0,0,,7,,,43,127
22667,note_on,0,0,0,,0,,,72,127
22770,note_off,103,0,0,,0,,,72,127
22772,note_on,2,0,0,,12,,,71,127
22875,note_off,103,0,0,,12,,,71,127
22875,note_off,0,0,0,,7,,,43,127
22877,note_on,2,0,0,,0,,,36,127
22877,note_on,0,0,0,,0,,,72,127
23619,note_off,742,0,0,,0,,,36,127
23641,note_off,22,0,0,,0,,,72,127
23776,note_on,135,0,0,,5,,,77,127
23776,note_on,0,0,0,,0,,,60,127
23826,note_off,50,0,0,,5,,,77,127
23828,note_on,2,0,0,,3,,,75,127
23878,note_off,50,0,0,,3,,,75,127
23880,note_on,2,0,0,,5,,,77,127
23930,note_off,50,0,0,,5,,,77,127
23932,note_on,2,0,0,,3,,,75,127
23982,note_off,50,0,0,,3,,,75,127
23984,note_on,2,0,0,,5,,,77,127
24034,note_off,50,0,0,,5,,,77,127
24036,note_on,2,0,0,,3,,,75,127
24086,note_off,50,0,0,,3,,,75,127
24088,note_on,2,0,0,,2,,,74,127
24191,note_off,103,0,0,,2,,,74,127
24193,note_on,2,0,0,,0,,,72,127
24400,note_off,207,0,0,,0,,,72,127
24402,note_on,2,0,0,,5,,,77,127
24609,note_off,207,0,0,,5,,,77,127
24609,note_off,0,0,0,,0,,,60,127
24611,note_on,2,0,0,,5,,,77,127
24611,note_on,0,0,0,,0,,,60,127
24661,note_off,50,0,0,,5,,,77,127
24663,note_on,2,0,0,,3,,,75,127
24713,note_off,50,0,0,,3,,,75,127
24715,note_on,2,0,0,,5,,,77,127
24765,note_off,50,0,0,,5,,,77,127
24767,note_on,2,0,0,,3,,,75,127
24817,note_off,50,0,0,,3,,,75,127
24819,note_on,2,0,0,,5,,,77,127
24869,note_off,50,0,0,,5,,,77,127
24871,note_on,2,0,0,,3,,,75,127
24921,note_off,50,0,0,,3,,,75,127
24923,note_on,2,0,0,,2,,,74,127
25026,note_off,103,0,0,,2,,,74,127
25028,note_on,2,0,0,,0,,,72,127
25235,note_off,207,0,0,,0,,,72,127
25237,note_on,2,0,0,,7,,,79,127
25444,note_off,207,0,0,,7,,,79,127
25444,note_off,0,0,0,,0,,,60,127
25446,note_on,2,0,0,,7,,,79,127
25446,note_on,0,0,0,,8,,,56,127
25653,note_off,207,0,0,,7,,,79,127
25655,note_on,2,0,0,,0,,,72,127
25862,note_off,207,0,0,,0,,,72,127
25862,note_off,0,0,0,,8,,,56,127
25864,note_on,2,0,0,,12,,,71,127
25864,note_on,0,0,0,,8,,,56,127
26071,note_off,207,0,0,,12,,,71,127
26073,note_on,2,0,0,,2,,,74,127
26123,note_off,50,0,0,,2,,,74,127
26125,note_on,2,0,0,,0,,,72,127
26175,note_off,50,0,0,,0,,,72,127
26177,note_on,2,0,0,,12,,,71,127
26227,note_off,50,0,0,,12,,,71,127
26229,note_on,2,0,0,,0,,,72,127
26279,note_off,50,0,0,,0,,,72,127
26279,note_off,0,0,0,,8,,,56,127
26281,note_on,2,0,0,,0,,,72,127
26281,note_on,0,0,0,,7,,,55,127
26488,note_off,207,0,0,,0,,,72,127
26490,note_on,2,0,0,,2,,,74,127
26697,note_off,207,0,0,,2,,,74,127
26699,note_on,2,0,0,,7,,,67,127
26906,note_off,207,0,0,,7,,,55,127
26915,note_on,9,0,0,,7,,,43,127
27116,note_off,201,0,0,,7,,,67,127
27123,note_off,7,0,0,,7,,,43,127
27145,note_on,22,0,0,,0,,,60,127
27145,note_on,0,0,0,,5,,,77,127
27195,note_off,50,0,0,,5,,,77,127
27197,note_on,2,0,0,,3,,,75,127
27247,note_off,50,0,0,,3,,,75,127
27249,note_on,2,0,0,,5,,,77,127
27299,note_off,50,0,0,,5,,,77,127
27301,note_on,2,0,0,,3,,,75,127
27351,note_off,50,0,0,,3,,,75,127
27353,note_on,2,0,0,,5,,,77,127
27403,note_off,50,0,0,,5,,,77,127
27405,note_on,2,0,0,,3,,,75,127
27455,note_off,50,0,0,,3,,,75,127
27457,note_on,2,0,0,,2,,,74,127
27560,note_off,103,0,0,,2,,,74,127
27562,note_on,2,0,0,,0,,,72,127
27769,note_off,207,0,0,,0,,,72,127
27771,note_on,2,0,0,,5,,,77,127
27978,note_off,207,0,0,,5,,,77,127
27978,note_off,0,0,0,,0,,,60,127
27980,note_on,2,0,0,,0,,,60,127
27980,note_on,0,0,0,,5,,,77,127
28030,note_off,50,0,0,,5,,,77,127
28032,note_on,2,0,0,,3,,,75,127
28082,note_off,50,0,0,,3,,,75,127
28084,note_on,2,0,0,,5,,,77,127
28134,note_off,50,0,0,,5,,,77,127
28136,note_on,2,0,0,,3,,,75,127
28186,note_off,50,0,0,,3,,,75,127
28188,note_on,2,0,0,,5,,,77,127
28238,note_off,50,0,0,,5,,,77,127
28240,note_on,2,0,0,,3,,,75,127
28290,note_off,50,0,0,,3,,,75,127
28292,note_on,2,0,0,,2,,,74,127
28395,note_off,103,0,0,,2,,,74,127
28397,note_on,2,0,0,,0,,,72,127
28604,note_off,207,0,0,,0,,,72,127
28606,note_on,2,0,0,,7,,,79,127
28813,note_off,207,0,0,,7,,,79,127
28813,note_off,0,0,0,,0,,,60,127
28815,note_on,2,0,0,,8,,,56,127
28815,note_on,0,0,0,,0,,,84,127
29022,note_off,207,0,0,,0,,,84,127
29024,note_on,2,0,0,,0,,,72,127
29231,note_off,207,0,0,,0,,,72,127
29231,note_off,0,0,0,,8,,,56,127
29233,note_on,2,0,0,,8,,,56,127
29233,note_on,0,0,0,,12,,,71,127
29440,note_off,207,0,0,,12,,,71,127
29442,note_on,2,0,0,,2,,,74,127
29492,note_off,50,0,0,,2,,,74,127
29494,note_on,2,0,0,,0,,,72,127
29544,note_off,50,0,0,,0,,,72,127
29546,note_on,2,0,0,,12,,,71,127
29596,note_off,50,0,0,,12,,,71,127
29598,note_on,2,0,0,,0,,,72,127
29648,note_off,50,0,0,,0,,,72,127
29648,note_off,0,0,0,,8,,,56,127
29650,note_on,2,0,0,,7,,,55,127
29650,note_on,0,0,0,,0,,,72,127
29857,note_off,207,0,0,,0,,,72,127
29859,note_on,2,0,0,,2,,,74,127
30066,note_off,207,0,0,,2,,,74,127
30068,note_on,2,0,0,,7,,,67,127
30284,note_on,216,0,0,,7,,,43,127
30485,note_off,201,0,0,,7,,,67,127
30486,note_off,1,0,0,,7,,,55,127
30513,note_off,27,0,0,,7,,,43,127
30522,note_on,9,0,0,,4,,,76,127
30572,note_off,50,0,0,,4,,,76,127
30574,note_on,2,0,0,,2,,,74,127
30624,note_off,50,0,0,,2,,,74,127
30626,note_on,2,0,0,,4,,,76,127
30676,note_off,50,0,0,,4,,,76,127
30678,note_on,2,0,0,,2,,,74,127
30728,note_off,50,0,0,,2,,,74,127
30730,note_on,2,0,0,,7,,,55,127
30730,note_on,0,0,0,,4,,,76,127
30780,note_off,50,0,0,,4,,,76,127
30782,note_on,2,0,0,,2,,,74,127
30832,note_off,50,0,0,,2,,,74,127
30834,note_on,2,0,0,,0,,,72,127
30937,note_off,103,0,0,,0,,,72,127
30937,note_off,0,0,0,,7,,,55,127
30939,note_on,2,0,0,,7,,,55,127
30939,note_on,0,0,0,,2,,,74,127
31146,note_off,207,0,0,,2,,,74,127
31146,note_off,0,0,0,,7,,,55,127
31148,note_on,2,0,0,,7,,,55,127
31148,note_on,0,0,0,,2,,,74,127
31355,note_off,207,0,0,,2,,,74,127
31355,note_off,0,0,0,,7,,,55,127
31357,note_on,2,0,0,,5,,,53,127
31357,note_on,0,0,0,,2,,,74,127
31564,note_off,207,0,0,,2,,,74,127
31564,note_off,0,0,0,,5,,,53,127
31566,note_on,2,0,0,,5,,,53,127
31566,note_on,0,0,0,,10,,,81,127
31773,note_off,207,0,0,,10,,,81,127
31773,note_off,0,0,0,,5,,,53,127
31775,note_on,2,0,0,,5,,,53,127
31775,note_on,0,0,0,,5,,,77,127
31982,note_off,207,0,0,,5,,,77,127
31982,note_off,0,0,0,,5,,,53,127
31995,note_on,13,0,0,,5,,,53,127
31995,note_on,0,0,0,,1,,,73,127
32202,note_off,207,0,0,,1,,,73,127
32202,note_off,0,0,0,,5,,,53,127
32211,note_on,9,0,0,,4,,,76,127
32211,note_on,0,0,0,,5,,,53,127
32261,note_off,50,0,0,,4,,,76,127
32263,note_on,2,0,0,,2,,,74,127
32313,note_off,50,0,0,,2,,,74,127
32315,note_on,2,0,0,,4,,,76,127
32365,note_off,50,0,0,,4,,,76,127
32367,note_on,2,0,0,,2,,,74,127
32417,note_off,50,0,0,,2,,,74,127
32417,note_off,0,0,0,,5,,,53,127
32419,note_on,2,0,0,,4,,,76,127
32419,note_on,0,0,0,,5,,,53,127
32469,note_off,50,0,0,,4,,,76,127
32471,note_on,2,0,0,,2,,,74,127
32521,note_off,50,0,0,,2,,,74,127
32523,note_on,2,0,0,,1,,,73,127
32626,note_off,103,0,0,,1,,,73,127
32626,note_off,0,0,0,,5,,,53,127
32628,note_on,2,0,0,,2,,,74,127
32628,note_on,0,0,0,,5,,,53,127
32835,note_off,207,0,0,,5,,,53,127
32835,note_off,0,0,0,,2,,,74,127
32837,note_on,2,0,0,,2,,,74,127
32837,note_on,0,0,0,,5,,,53,127
33044,note_off,207,0,0,,5,,,53,127
33044,note_off,0,0,0,,2,,,74,127
33046,note_on,2,0,0,,2,,,74,127
33046,note_on,0,0,0,,4,,,52,127
33253,note_off,207,0,0,,4,,,52,127
33253,note_off,0,0,0,,2,,,74,127
33255,note_on,2,0,0,,7,,,79,127
33255,note_on,0,0,0,,4,,,52,127
33462,note_off,207,0,0,,4,,,52,127
33462,note_off,0,0,0,,7,,,79,127
33464,note_on,2,0,0,,4,,,76,127
33464,note_on,0,0,0,,4,,,52,127
33671,note_off,207,0,0,,4,,,52,127
33671,note_off,0,0,0,,4,,,76,127
33682,note_on,11,0,0,,12,,,71,127
33682,note_on,0,0,0,,4,,,52,127
33899,note_off,217,0,0,,4,,,52,127
33899,note_off,0,0,0,,12,,,71,127
33899,note_on,0,0,0,,4,,,52,127
33899,note_on,0,0,0,,2,,,74,127
33949,note_off,50,0,0,,2,,,74,127
33952,note_on,3,0,0,,0,,,72,127
34002,note_off,50,0,0,,0,,,72,127
34004,note_on,2,0,0,,2,,,74,127
34054,note_off,50,0,0,,2,,,74,127
34056,note_on,2,0,0,,0,,,72,127
34105,note_off,49,0,0,,4,,,52,127
34106,note_off,1,0,0,,0,,,72,127
34108,note_on,2,0,0,,4,,,52,127
34108,note_on,0,0,0,,2,,,74,127
34158,note_off,50,0,0,,2,,,74,127
34160,note_on,2,0,0,,0,,,72,127
34210,note_off,50,0,0,,0,,,72,127
34212,note_on,2,0,0,,12,,,71,127
34315,note_off,103,0,0,,12,,,71,127
34315,note_off,0,0,0,,4,,,52,127
34317,note_on,2,0,0,,4,,,52,127
34317,note_on,0,0,0,,0,,,72,127
34524,note_off,207,0,0,,0,,,72,127
34524,note_off,0,0,0,,4,,,52,127
34526,note_on,2,0,0,,4,,,52,127
34526,note_on,0,0,0,,0,,,72,127
34733,note_off,207,0,0,,0,,,72,127
34733,note_off,0,0,0,,4,,,52,127
34735,note_on,2,0,0,,2,,,50,127
34735,note_on,0,0,0,,6,,,78,127
34942,note_off,207,0,0,,6,,,78,127
34942,note_off,0,0,0,,2,,,50,127
34944,note_on,2,0,0,,2,,,50,127
34944,note_on,0,0,0,,10,,,81,127
35151,note_off,207,0,0,,10,,,81,127
35151,note_off,0,0,0,,2,,,50,127
35153,note_on,2,0,0,,2,,,50,127
35153,note_on,0,0,0,,6,,,78,127
35360,note_off,207,0,0,,6,,,78,127
35360,note_off,0,0,0,,2,,,50,127
35362,note_on,2,0,0,,2,,,50,127
35362,note_on,0,0,0,,0,,,72,127
35569,note_off,207,0,0,,0,,,72,127
35569,note_off,0,0,0,,2,,,50,127
35571,note_on,2,0,0,,2,,,50,127
35571,note_on,0,0,0,,10,,,81,127
35778,note_off,207,0,0,,10,,,81,127
35778,note_off,0,0,0,,2,,,50,127
35780,note_on,2,0,0,,2,,,50,127
35780,note_on,0,0,0,,0,,,72,127
35987,note_off,207,0,0,,0,,,72,127
35987,note_off,0,0,0,,2,,,50,127
35989,note_on,2,0,0,,2,,,50,127
35989,note_on,0,0,0,,2,,,74,127
36039,note_off,50,0,0,,2,,,74,127
36041,note_on,2,0,0,,0,,,72,127
36091,note_off,50,0,0,,0,,,72,127
36093,note_on,2,0,0,,2,,,74,127
36143,note_off,50,0,0,,2,,,74,127
36145,note_on,2,0,0,,0,,,72,127
36195,note_off,50,0,0,,0,,,72,127
36195,note_off,0,0,0,,2,,,50,127
36197,note_on,2,0,0,,2,,,50,127
36197,note_on,0,0,0,,2,,,74,127
36247,note_off,50,0,0,,2,,,74,127
36249,note_on,2,0,0,,0,,,72,127
36299,note_off,50,0,0,,0,,,72,127
36301,note_on,2,0,0,,12,,,71,127
36351,note_off,50,0,0,,12,,,71,127
36353,note_on,2,0,0,,10,,,69,127
36403,note_off,50,0,0,,10,,,69,127
36403,note_off,0,0,0,,2,,,50,127
36405,note_on,2,0,0,,7,,,55,127
36405,note_on,0,0,0,,10,,,69,127
36612,note_off,207,0,0,,10,,,69,127
36612,note_off,0,0,0,,7,,,55,127
36614,note_on,2,0,0,,7,,,43,127
36614,note_on,0,0,0,,12,,,71,127
36821,note_off,207,0,0,,7,,,43,127
36828,note_on,7,0,0,,7,,,43,127
36928,note_off,100,0,0,,12,,,71,127
37068,note_on,140,0,0,,2,,,74,127
37275,note_off,207,0,0,,2,,,74,127
37277,note_on,2,0,0,,12,,,71,127
37345,note_off,68,0,0,,12,,,71,127
37347,note_on,2,0,0,,0,,,72,127
37351,note_off,4,0,0,,7,,,43,127
37414,note_off,63,0,0,,0,,,72,127
37416,note_on,2,0,0,,2,,,74,127
37484,note_off,68,0,0,,2,,,74,127
37486,note_on,2,0,0,,4,,,64,127
37486,note_on,0,0,0,,0,,,72,127
37693,note_off,207,0,0,,0,,,72,127
37695,note_on,2,0,0,,10,,,69,127
37763,note_off,68,0,0,,10,,,69,127
37765,note_on,2,0,0,,12,,,71,127
37833,note_off,68,0,0,,12,,,71,127
37835,note_on,2,0,0,,0,,,72,127
37903,note_off,68,0,0,,0,,,72,127
37903,note_off,0,0,0,,4,,,64,127
37905,note_on,2,0,0,,2,,,62,127
37905,note_on,0,0,0,,12,,,71,127
38112,note_off,207,0,0,,12,,,71,127
38114,note_on,2,0,0,,7,,,67,127
38182,note_off,68,0,0,,7,,,67,127
38184,note_on,2,0,0,,10,,,69,127
38252,note_off,68,0,0,,10,,,69,127
38254,note_on,2,0,0,,12,,,71,127
38322,note_off,68,0,0,,12,,,71,127
38322,note_off,0,0,0,,2,,,62,127
38324,note_on,2,0,0,,0,,,60,127
38324,note_on,0,0,0,,10,,,69,127
38531,note_off,207,0,0,,10,,,69,127
38533,note_on,2,0,0,,6,,,66,127
38601,note_off,68,0,0,,6,,,66,127
38603,note_on,2,0,0,,7,,,67,127
38671,note_off,68,0,0,,7,,,67,127
38673,note_on,2,0,0,,10,,,69,127
38741,note_off,68,0,0,,10,,,69,127
38741,note_off,0,0,0,,0,,,60,127
38743,note_on,2,0,0,,12,,,59,127
38743,note_on,0,0,0,,7,,,67,127
38950,note_off,207,0,0,,12,,,59,127
38952,note_on,2,0,0,,0,,,60,127
39055,note_off,103,0,0,,7,,,67,127
39057,note_on,2,0,0,,4,,,76,127
39160,note_off,103,0,0,,4,,,76,127
39160,note_off,0,0,0,,0,,,60,127
39162,note_on,2,0,0,,0,,,48,127
39162,note_on,0,0,0,,2,,,74,127
39265,note_off,103,0,0,,2,,,74,127
39267,note_on,2,0,0,,0,,,72,127
39370,note_off,103,0,0,,0,,,72,127
39370,note_off,0,0,0,,0,,,48,127
39372,note_on,2,0,0,,2,,,50,127
39372,note_on,0,0,0,,12,,,71,127
39475,note_off,103,0,0,,12,,,71,127
39477,note_on,2,0,0,,10,,,69,127
39580,note_off,103,0,0,,10,,,69,127
39580,note_off,0,0,0,,2,,,50,127
39582,note_on,2,0,0,,2,,,50,127
39582,note_on,0,0,0,,7,,,67,127
39685,note_off,103,0,0,,7,,,67,127
39687,note_on,2,0,0,,6,,,66,127
39790,note_off,103,0,0,,6,,,66,127
39790,note_off,0,0,0,,2,,,50,127
39792,note_on,2,0,0,,7,,,43,127
39792,note_on,0,0,0,,7,,,67,127
39999,note_off,207,0,0,,7,,,43,127
40001,note_on,2,0,0,,2,,,50,127
40208,note_off,207,0,0,,2,,,50,127
40210,note_on,2,0,0,,7,,,55,127
40417,note_off,207,0,0,,7,,,67,127
40437,note_on,20,0,0,,2,,,74,127
40625,note_off,188,0,0,,7,,,55,127
40645,note_off,20,0,0,,2,,,74,127
40647,note_on,2,0,0,,12,,,71,127
40715,note_off,68,0,0,,12,,,71,127
40717,note_on,2,0,0,,0,,,72,127
40785,note_off,68,0,0,,0,,,72,127
40787,note_on,2,0,0,,2,,,74,127
40855,note_off,68,0,0,,2,,,74,127
40857,note_on,2,0,0,,0,,,72,127
40857,note_on,0,0,0,,4,,,64,127
41064,note_off,207,0,0,,0,,,72,127
41066,note_on,2,0,0,,10,,,69,127
41134,note_off,68,0,0,,10,,,69,127
41136,note_on,2,0,0,,12,,,71,127
41204,note_off,68,0,0,,12,,,71,127
41206,note_on,2,0,0,,0,,,72,127
41274,note_off,68,0,0,,0,,,72,127
41274,note_off,0,0,0,,4,,,64,127
41276,note_on,2,0,0,,12,,,71,127
41276,note_on,0,0,0,,2,,,62,127
41483,note_off,207,0,0,,12,,,71,127
41485,note_on,2,0,0,,7,,,67,127
41553,note_off,68,0,0,,7,,,67,127
41555,note_on,2,0,0,,10,,,69,127
41623,note_off,68,0,0,,10,,,69,127
41625,note_on,2,0,0,,12,,,71,127
41693,note_off,68,0,0,,12,,,71,127
41693,note_off,0,0,0,,2,,,62,127
41695,note_on,2,0,0,,10,,,69,127
41695,note_on,0,0,0,,0,,,60,127
41902,note_off,207,0,0,,10,,,69,127
41904,note_on,2,0,0,,6,,,66,127
41972,note_off,68,0,0,,6,,,66,127
41974,note_on,2,0,0,,7,,,67,127
42042,note_off,68,0,0,,7,,,67,127
42044,note_on,2,0,0,,10,,,69,127
42112,note_off,68,0,0,,10,,,69,127
42112,note_off,0,0,0,,0,,,60,127
42114,note_on,2,0,0,,7,,,67,127
42114,note_on,0,0,0,,12,,,59,127
42321,note_off,207,0,0,,12,,,59,127
42323,note_on,2,0,0,,0,,,60,127
42426,note_off,103,0,0,,7,,,67,127
42428,note_on,2,0,0,,4,,,76,127
42531,note_off,103,0,0,,4,,,76,127
42531,note_off,0,0,0,,0,,,60,127
42533,note_on,2,0,0,,2,,,74,127
42533,note_on,0,0,0,,0,,,48,127
42636,note_off,103,0,0,,2,,,74,127
42638,note_on,2,0,0,,0,,,72,127
42741,note_off,103,0,0,,0,,,72,127
42741,note_off,0,0,0,,0,,,48,127
42743,note_on,2,0,0,,12,,,71,127
42743,note_on,0,0,0,,2,,,50,127
42846,note_off,103,0,0,,12,,,71,127
42848,note_on,2,0,0,,10,,,69,127
42951,note_off,103,0,0,,10,,,69,127
42951,note_off,0,0,0,,2,,,50,127
42953,note_on,2,0,0,,7,,,67,127
42953,note_on,0,0,0,,2,,,50,127
43056,note_off,103,0,0,,7,,,67,127
43058,note_on,2,0,0,,6,,,66,127
43161,note_off,103,0,0,,6,,,66,127
43161,note_off,0,0,0,,2,,,50,127
43170,note_on,9,0,0,,7,,,67,127
43170,note_on,0,0,0,,7,,,43,127
43912,note_off,742,0,0,,7,,,67,127
43967,note_off,55,0,0,,7,,,43,127
44080,note_on,113,0,0,,0,,,84,127
44080,note_on,0,0,0,,7,,,67,127
44130,note_off,50,0,0,,0,,,84,127
44132,note_on,2,0,0,,11,,,82,127
44182,note_off,50,0,0,,11,,,82,127
44184,note_on,2,0,0,,0,,,84,127
44234,note_off,50,0,0,,0,,,84,127
44236,note_on,2,0,0,,11,,,82,127
44286,note_off,50,0,0,,11,,,82,127
44288,note_on,2,0,0,,0,,,84,127
44338,note_off,50,0,0,,0,,,84,127
44340,note_on,2,0,0,,11,,,82,127
44390,note_off,50,0,0,,11,,,82,127
44392,note_on,2,0,0,,10,,,81,127
44495,note_off,103,0,0,,10,,,81,127
44497,note_on,2,0,0,,7,,,79,127
44704,note_off,207,0,0,,7,,,79,127
44706,note_on,2,0,0,,0,,,84,127
44913,note_off,207,0,0,,0,,,84,127
44913,note_off,0,0,0,,7,,,67,127
44915,note_on,2,0,0,,0,,,84,127
44915,note_on,0,0,0,,7,,,67,127
44965,note_off,50,0,0,,0,,,84,127
44967,note_on,2,0,0,,11,,,82,127
45017,note_off,50,0,0,,11,,,82,127
45019,note_on,2,0,0,,0,,,84,127
45069,note_off,50,0,0,,0,,,84,127
45071,note_on,2,0,0,,11,,,82,127
45121,note_off,50,0,0,,11,,,82,127
45123,note_on,2,0,0,,0,,,84,127
45173,note_off,50,0,0,,0,,,84,127
45175,note_on,2,0,0,,11,,,82,127
45225,note_off,50,0,0,,11,,,82,127
45227,note_on,2,0,0,,10,,,81,127
45330,note_off,103,0,0,,10,,,81,127
45332,note_on,2,0,0,,7,,,79,127
45539,note_off,207,0,0,,7,,,79,127
45541,note_on,2,0,0,,11,,,82,127
45748,note_off,207,0,0,,11,,,82,127
45748,note_off,0,0,0,,7,,,67,127
45750,note_on,2,0,0,,0,,,72,127
45750,note_on,0,0,0,,3,,,63,127
45957,note_off,207,0,0,,0,,,72,127
45959,note_on,2,0,0,,10,,,81,127
46166,note_off,207,0,0,,10,,,81,127
46166,note_off,0,0,0,,3,,,63,127
46168,note_on,2,0,0,,10,,,81,127
46168,note_on,0,0,0,,3,,,63,127
46218,note_off,50,0,0,,10,,,81,127
46220,note_on,2,0,0,,7,,,79,127
46270,note_off,50,0,0,,7,,,79,127
46272,note_on,2,0,0,,10,,,81,127
46322,note_off,50,0,0,,10,,,81,127
46324,note_on,2,0,0,,7,,,79,127
46374,note_off,50,0,0,,7,,,79,127
46376,note_on,2,0,0,,10,,,81,127
46426,note_off,50,0,0,,10,,,81,127
46428,note_on,2,0,0,,7,,,79,127
46478,note_off,50,0,0,,7,,,79,127
46480,note_on,2,0,0,,6,,,78,127
46530,note_off,50,0,0,,6,,,78,127
46532,note_on,2,0,0,,7,,,79,127
46582,note_off,50,0,0,,7,,,79,127
46582,note_off,0,0,0,,3,,,63,127
46584,note_on,2,0,0,,7,,,79,127
46584,note_on,0,0,0,,2,,,62,127
46791,note_off,207,0,0,,7,,,79,127
46793,note_on,2,0,0,,10,,,81,127
47000,note_off,207,0,0,,10,,,81,127
47002,note_on,2,0,0,,2,,,74,127
47419,note_off,417,0,0,,2,,,74,127
47419,note_off,0,0,0,,2,,,62,127
47439,note_on,20,0,0,,7,,,67,127
47439,note_on,0,0,0,,0,,,84,127
47489,note_off,50,0,0,,0,,,84,127
47491,note_on,2,0,0,,11,,,82,127
47541,note_off,50,0,0,,11,,,82,127
47543,note_on,2,0,0,,0,,,84,127
47593,note_off,50,0,0,,0,,,84,127
47595,note_on,2,0,0,,11,,,82,127
47645,note_off,50,0,0,,11,,,82,127
47647,note_on,2,0,0,,0,,,84,127
47697,note_off,50,0,0,,0,,,84,127
47699,note_on,2,0,0,,11,,,82,127
47749,note_off,50,0,0,,11,,,82,127
47751,note_on,2,0,0,,10,,,81,127
47854,note_off,103,0,0,,10,,,81,127
47856,note_on,2,0,0,,7,,,79,127
48063,note_off,207,0,0,,7,,,79,127
48065,note_on,2,0,0,,0,,,84,127
48272,note_off,207,0,0,,0,,,84,127
48272,note_off,0,0,0,,7,,,67,127
48274,note_on,2,0,0,,7,,,67,127
48274,note_on,0,0,0,,0,,,84,127
48324,note_off,50,0,0,,0,,,84,127
48326,note_on,2,0,0,,11,,,82,127
48376,note_off,50,0,0,,11,,,82,127
48378,note_on,2,0,0,,0,,,84,127
48428,note_off,50,0,0,,0,,,84,127
48430,note_on,2,0,0,,11,,,82,127
48480,note_off,50,0,0,,11,,,82,127
48482,note_on,2,0,0,,0,,,84,127
48532,note_off,50,0,0,,0,,,84,127
48534,note_on,2,0,0,,11,,,82,127
48584,note_off,50,0,0,,11,,,82,127
48586,note_on,2,0,0,,10,,,81,127
48689,note_off,103,0,0,,10,,,81,127
48691,note_on,2,0,0,,7,,,79,127
48898,note_off,207,0,0,,7,,,79,127
48900,note_on,2,0,0,,11,,,82,127
49107,note_off,207,0,0,,7,,,67,127
49109,note_on,2,0,0,,3,,,63,127
49109,note_on,0,0,0,,0,,,72,127
49314,note_off,205,0,0,,11,,,82,127
49316,note_off,2,0,0,,0,,,72,127
49318,note_on,2,0,0,,10,,,81,127
49525,note_off,207,0,0,,10,,,81,127
49525,note_off,0,0,0,,3,,,63,127
49527,note_on,2,0,0,,3,,,63,127
49527,note_on,0,0,0,,10,,,81,127
49577,note_off,50,0,0,,10,,,81,127
49579,note_on,2,0,0,,7,,,79,127
49629,note_off,50,0,0,,7,,,79,127
49631,note_on,2,0,0,,10,,,81,127
49681,note_off,50,0,0,,10,,,81,127
49683,note_on,2,0,0,,7,,,79,127
49733,note_off,50,0,0,,7,,,79,127
49735,note_on,2,0,0,,10,,,81,127
49785,note_off,50,0,0,,10,,,81,127
49787,note_on,2,0,0,,7,,,79,127
49837,note_off,50,0,0,,7,,,79,127
49839,note_on,2,0,0,,6,,,78,127
49889,note_off,50,0,0,,6,,,78,127
49891,note_on,2,0,0,,7,,,79,127
49941,note_off,50,0,0,,7,,,79,127
49941,note_off,0,0,0,,3,,,63,127
49943,note_on,2,0,0,,2,,,62,127
49943,note_on,0,0,0,,7,,,79,127
50150,note_off,207,0,0,,7,,,79,127
50152,note_on,2,0,0,,10,,,81,127
50359,note_off,207,0,0,,10,,,81,127
50361,note_on,2,0,0,,2,,,74,127
50675,note_off,314,0,0,,2,,,74,127
50778,note_off,103,0,0,,2,,,62,127
50798,note_on,20,0,0,,4,,,76,127
50798,note_on,0,0,0,,12,,,59,127
50848,note_off,50,0,0,,4,,,76,127
50850,note_on,2,0,0,,2,,,74,127
50900,note_off,50,0,0,,2,,,74,127
50902,note_on,2,0,0,,4,,,76,127
50952,note_off,50,0,0,,4,,,76,127
50954,note_on,2,0,0,,2,,,74,127
51004,note_off,50,0,0,,2,,,74,127
51006,note_on,2,0,0,,4,,,76,127
51056,note_off,50,0,0,,4,,,76,127
51058,note_on,2,0,0,,2,,,74,127
51108,note_off,50,0,0,,2,,,74,127
51110,note_on,2,0,0,,0,,,72,127
51213,note_off,103,0,0,,0,,,72,127
51215,note_on,2,0,0,,2,,,74,127
51422,note_off,207,0,0,,2,,,74,127
51422,note_off,0,0,0,,12,,,59,127
51424,note_on,2,0,0,,12,,,83,127
51424,note_on,0,0,0,,12,,,59,127
51631,note_off,207,0,0,,12,,,59,127
51631,note_off,0,0,0,,12,,,83,127
51633,note_on,2,0,0,,12,,,83,127
51633,note_on,0,0,0,,10,,,57,127
51840,note_off,207,0,0,,10,,,57,127
51840,note_off,0,0,0,,12,,,83,127
51842,note_on,2,0,0,,0,,,84,127
51842,note_on,0,0,0,,7,,,55,127
52049,note_off,207,0,0,,7,,,55,127
52056,note_on,7,0,0,,0,,,72,127
52056,note_on,0,0,0,,6,,,54,127
52148,note_off,92,0,0,,0,,,84,127
52264,note_off,116,0,0,,6,,,54,127
52271,note_on,7,0,0,,4,,,52,127
52474,note_off,203,0,0,,0,,,72,127
52478,note_off,4,0,0,,4,,,52,127
52489,note_on,11,0,0,,2,,,50,127
52489,note_on,0,0,0,,2,,,74,127
52539,note_off,50,0,0,,2,,,74,127
52541,note_on,2,0,0,,0,,,72,127
52591,note_off,50,0,0,,0,,,72,127
52593,note_on,2,0,0,,2,,,74,127
52643,note_off,50,0,0,,2,,,74,127
52645,note_on,2,0,0,,0,,,72,127
52695,note_off,50,0,0,,0,,,72,127
52697,note_on,2,0,0,,2,,,74,127
52747,note_off,50,0,0,,2,,,74,127
52749,note_on,2,0,0,,0,,,72,127
52799,note_off,50,0,0,,0,,,72,127
52801,note_on,2,0,0,,12,,,71,127
52904,note_off,103,0,0,,12,,,71,127
52906,note_on,2,0,0,,0,,,72,127
53113,note_off,207,0,0,,0,,,72,127
53113,note_off,0,0,0,,2,,,50,127
53115,note_on,2,0,0,,2,,,50,127
53115,note_on,0,0,0,,10,,,81,127
53322,note_off,207,0,0,,10,,,81,127
53322,note_off,0,0,0,,2,,,50,127
53324,note_on,2,0,0,,7,,,55,127
53324,note_on,0,0,0,,10,,,81,127
53531,note_off,207,0,0,,10,,,81,127
53533,note_on,2,0,0,,12,,,83,127
53751,note_on,218,0,0,,12,,,71,127
53838,note_off,87,0,0,,12,,,83,127
53958,note_off,120,0,0,,12,,,71,127
53959,note_off,1,0,0,,7,,,55,127
53962,note_on,3,0,0,,10,,,57,127
53962,note_on,0,0,0,,0,,,72,127
54169,note_off,207,0,0,,0,,,72,127
54169,note_off,0,0,0,,10,,,57,127
54171,note_on,2,0,0,,12,,,59,127
54171,note_on,0,0,0,,4,,,76,127
54221,note_off,50,0,0,,4,,,76,127
54223,note_on,2,0,0,,2,,,74,127
54273,note_off,50,0,0,,2,,,74,127
54275,note_on,2,0,0,,4,,,76,127
54325,note_off,50,0,0,,4,,,76,127
54327,note_on,2,0,0,,2,,,74,127
54377,note_off,50,0,0,,2,,,74,127
54377,note_off,0,0,0,,12,,,59,127
54379,note_on,2,0,0,,10,,,57,127
54379,note_on,0,0,0,,4,,,76,127
54429,note_off,50,0,0,,4,,,76,127
54431,note_on,2,0,0,,2,,,74,127
54481,note_off,50,0,0,,2,,,74,127
54483,note_on,2,0,0,,0,,,72,127
54586,note_off,103,0,0,,0,,,72,127
54586,note_off,0,0,0,,10,,,57,127
54588,note_on,2,0,0,,7,,,55,127
54588,note_on,0,0,0,,12,,,71,127
54795,note_off,207,0,0,,12,,,71,127
54795,note_off,0,0,0,,7,,,55,127
54797,note_on,2,0,0,,0,,,60,127
54797,note_on,0,0,0,,4,,,76,127
55004,note_off,207,0,0,,4,,,76,127
55004,note_off,0,0,0,,0,,,60,127
55015,note_on,11,0,0,,12,,,59,127
55015,note_on,0,0,0,,4,,,76,127
55065,note_off,50,0,0,,4,,,76,127
55067,note_on,2,0,0,,2,,,74,127
55117,note_off,50,0,0,,2,,,74,127
55119,note_on,2,0,0,,4,,,76,127
55169,note_off,50,0,0,,4,,,76,127
55171,note_on,2,0,0,,2,,,74,127
55221,note_off,50,0,0,,2,,,74,127
55221,note_off,0,0,0,,12,,,59,127
55223,note_on,2,0,0,,10,,,57,127
55223,note_on,0,0,0,,4,,,76,127
55273,note_off,50,0,0,,4,,,76,127
55275,note_on,2,0,0,,2,,,74,127
55325,note_off,50,0,0,,2,,,74,127
55327,note_on,2,0,0,,0,,,72,127
55430,note_off,103,0,0,,0,,,72,127
55430,note_off,0,0,0,,10,,,57,127
55432,note_on,2,0,0,,7,,,55,127
55432,note_on,0,0,0,,12,,,71,127
55639,note_off,207,0,0,,12,,,71,127
55639,note_off,0,0,0,,7,,,55,127
55641,note_on,2,0,0,,12,,,47,127
55641,note_on,0,0,0,,7,,,79,127
55848,note_off,207,0,0,,7,,,79,127
55848,note_off,0,0,0,,12,,,47,127
55850,note_on,2,0,0,,0,,,48,127
55850,note_on,0,0,0,,10,,,69,127
55953,note_off,103,0,0,,10,,,69,127
55955,note_on,2,0,0,,4,,,76,127
56058,note_off,103,0,0,,4,,,76,127
56060,note_on,2,0,0,,2,,,74,127
56163,note_off,103,0,0,,2,,,74,127
56165,note_on,2,0,0,,0,,,72,127
56268,note_off,103,0,0,,0,,,72,127
56268,note_off,0,0,0,,0,,,48,127
56270,note_on,2,0,0,,2,,,50,127
56270,note_on,0,0,0,,12,,,71,127
56373,note_off,103,0,0,,12,,,71,127
56375,note_on,2,0,0,,10,,,69,127
56478,note_off,103,0,0,,10,,,69,127
56478,note_off,0,0,0,,2,,,50,127
56480,note_on,2,0,0,,2,,,38,127
56480,note_on,0,0,0,,7,,,67,127
56583,note_off,103,0,0,,7,,,67,127
56585,note_on,2,0,0,,6,,,66,127
56688,note_off,103,0,0,,6,,,66,127
56688,note_off,0,0,0,,2,,,38,127
56690,note_on,2,0,0,,7,,,43,127
56690,note_on,0,0,0,,7,,,67,127
56897,note_off,207,0,0,,7,,,67,127
56917,note_on,20,0,0,,10,,,69,127
57124,note_off,207,0,0,,10,,,69,127
57126,note_on,2,0,0,,12,,,71,127
57213,note_off,87,0,0,,7,,,43,127
57333,note_off,120,0,0,,12,,,71,127
57335,note_on,2,0,0,,0,,,72,127
57335,note_on,0,0,0,,10,,,57,127
57542,note_off,207,0,0,,10,,,57,127
57542,note_off,0,0,0,,0,,,72,127
57544,note_on,2,0,0,,4,,,76,127
57544,note_on,0,0,0,,12,,,59,127
57594,note_off,50,0,0,,4,,,76,127
57596,note_on,2,0,0,,2,,,74,127
57646,note_off,50,0,0,,2,,,74,127
57648,note_on,2,0,0,,4,,,76,127
57698,note_off,50,0,0,,4,,,76,127
57700,note_on,2,0,0,,2,,,74,127
57750,note_off,50,0,0,,2,,,74,127
57750,note_off,0,0,0,,12,,,59,127
57752,note_on,2,0,0,,4,,,76,127
57752,note_on,0,0,0,,10,,,57,127
57802,note_off,50,0,0,,4,,,76,127
57804,note_on,2,0,0,,2,,,74,127
57854,note_off,50,0,0,,2,,,74,127
57856,note_on,2,0,0,,0,,,72,127
57959,note_off,103,0,0,,0,,,72,127
57959,note_off,0,0,0,,10,,,57,127
57961,note_on,2,0,0,,12,,,71,127
57961,note_on,0,0,0,,7,,,55,127
58168,note_off,207,0,0,,7,,,55,127
58168,note_off,0,0,0,,12,,,71,127
58170,note_on,2,0,0,,4,,,76,127
58170,note_on,0,0,0,,0,,,60,127
58377,note_off,207,0,0,,0,,,60,127
58377,note_off,0,0,0,,4,,,76,127
58397,note_on,20,0,0,,12,,,59,127
58397,note_on,0,0,0,,4,,,76,127
58447,note_off,50,0,0,,4,,,76,127
58449,note_on,2,0,0,,2,,,74,127
58499,note_off,50,0,0,,2,,,74,127
58501,note_on,2,0,0,,4,,,76,127
58551,note_off,50,0,0,,4,,,76,127
58553,note_on,2,0,0,,2,,,74,127
58603,note_off,50,0,0,,2,,,74,127
58603,note_off,0,0,0,,12,,,59,127
58605,note_on,2,0,0,,10,,,57,127
58605,note_on,0,0,0,,4,,,76,127
58655,note_off,50,0,0,,4,,,76,127
58657,note_on,2,0,0,,2,,,74,127
58707,note_off,50,0,0,,2,,,74,127
58709,note_on,2,0,0,,0,,,72,127
58812,note_off,103,0,0,,0,,,72,127
58812,note_off,0,0,0,,10,,,57,127
58814,note_on,2,0,0,,7,,,55,127
58814,note_on,0,0,0,,12,,,71,127
59021,note_off,207,0,0,,12,,,71,127
59021,note_off,0,0,0,,7,,,55,127
59023,note_on,2,0,0,,12,,,47,127
59023,note_on,0,0,0,,7,,,79,127
59230,note_off,207,0,0,,7,,,79,127
59230,note_off,0,0,0,,12,,,47,127
59232,note_on,2,0,0,,0,,,48,127
59232,note_on,0,0,0,,10,,,69,127
59335,note_off,103,0,0,,10,,,69,127
59337,note_on,2,0,0,,4,,,76,127
59440,note_off,103,0,0,,4,,,76,127
59440,note_off,0,0,0,,0,,,48,127
59442,note_on,2,0,0,,0,,,48,127
59442,note_on,0,0,0,,2,,,74,127
59545,note_off,103,0,0,,2,,,74,127
59547,note_on,2,0,0,,0,,,72,127
59650,note_off,103,0,0,,0,,,72,127
59650,note_off,0,0,0,,0,,,48,127
59652,note_on,2,0,0,,2,,,50,127
59652,note_on,0,0,0,,12,,,71,127
59755,note_off,103,0,0,,12,,,71,127
59757,note_on,2,0,0,,10,,,69,127
59860,note_off,103,0,0,,10,,,69,127
59860,note_off,0,0,0,,2,,,50,127
59862,note_on,2,0,0,,2,,,38,127
59862,note_on,0,0,0,,7,,,67,127
59965,note_off,103,0,0,,7,,,67,127
59967,note_on,2,0,0,,6,,,66,127
60070,note_off,103,0,0,,6,,,66,127
60070,note_off,0,0,0,,2,,,38,127
60072,note_on,2,0,0,,7,,,43,127
60072,note_on,0,0,0,,7,,,67,127
60279,note_off,207,0,0,,7,,,67,127
60312,note_on,33,0,0,,7,,,79,127
60415,note_off,103,0,0,,7,,,79,127
60417,note_on,2,0,0,,2,,,74,127
60489,note_off,72,0,0,,7,,,43,127
60520,note_off,31,0,0,,2,,,74,127
60522,note_on,2,0,0,,2,,,74,127
60522,note_on,0,0,0,,7,,,43,127
60729,note_off,207,0,0,,2,,,74,127
60731,note_on,2,0,0,,7,,,79,127
60834,note_off,103,0,0,,7,,,79,127
60836,note_on,2,0,0,,12,,,71,127
60939,note_off,103,0,0,,12,,,71,127
60939,note_off,0,0,0,,7,,,43,127
60941,note_on,2,0,0,,12,,,71,127
60941,note_on,0,0,0,,7,,,43,127
61148,note_off,207,0,0,,12,,,71,127
61150,note_on,2,0,0,,2,,,74,127
61253,note_off,103,0,0,,2,,,74,127
61255,note_on,2,0,0,,7,,,67,127
61358,note_off,103,0,0,,7,,,67,127
61358,note_off,0,0,0,,7,,,43,127
61360,note_on,2,0,0,,7,,,67,127
61360,note_on,0,0,0,,7,,,43,127
61567,note_off,207,0,0,,7,,,67,127
61569,note_on,2,0,0,,12,,,71,127
61672,note_off,103,0,0,,12,,,71,127
61674,note_on,2,0,0,,2,,,62,127
61777,note_off,103,0,0,,2,,,62,127
61777,note_off,0,0,0,,7,,,43,127
61779,note_on,2,0,0,,2,,,62,127
61779,note_on,0,0,0,,7,,,43,127
61986,note_off,207,0,0,,2,,,62,127
61988,note_on,2,0,0,,7,,,67,127
62091,note_off,103,0,0,,7,,,67,127
62093,note_on,2,0,0,,12,,,59,127
62196,note_off,103,0,0,,12,,,59,127
62196,note_off,0,0,0,,7,,,43,127
62198,note_on,2,0,0,,12,,,59,127
62198,note_on,0,0,0,,7,,,43,127
62405,note_off,207,0,0,,12,,,59,127
62407,note_on,2,0,0,,2,,,62,127
62510,note_off,103,0,0,,2,,,62,127
62512,note_on,2,0,0,,7,,,55,127
62615,note_off,103,0,0,,7,,,55,127
62615,note_off,0,0,0,,7,,,43,127
62617,note_on,2,0,0,,7,,,55,127
62617,note_on,0,0,0,,7,,,43,127
62824,note_off,207,0,0,,7,,,55,127
62826,note_on,2,0,0,,7,,,67,127
63033,note_off,207,0,0,,7,,,67,127
63035,note_on,2,0,0,,7,,,67,127
63140,note_off,105,0,0,,7,,,43,127
63245,note_on,105,0,0,,12,,,47,127
63461,note_on,216,0,0,,0,,,48,127
63490,note_off,29,0,0,,12,,,47,127
63557,note_off,67,0,0,,7,,,67,127
63566,note_on,9,0,0,,4,,,76,127
63669,note_off,103,0,0,,4,,,76,127
63671,note_on,2,0,0,,2,,,74,127
63774,note_off,103,0,0,,2,,,74,127
63776,note_on,2,0,0,,0,,,72,127
63879,note_off,103,0,0,,0,,,72,127
63879,note_off,0,0,0,,0,,,48,127
63881,note_on,2,0,0,,12,,,71,127
63881,note_on,0,0,0,,2,,,50,127
63984,note_off,103,0,0,,12,,,71,127
63986,note_on,2,0,0,,10,,,69,127
64089,note_off,103,0,0,,10,,,69,127
64089,note_off,0,0,0,,2,,,50,127
64091,note_on,2,0,0,,7,,,67,127
64091,note_on,0,0,0,,10,,,45,127
64194,note_off,103,0,0,,7,,,67,127
64196,note_on,2,0,0,,6,,,66,127
64299,note_off,103,0,0,,6,,,66,127
64299,note_off,0,0,0,,10,,,45,127
64301,note_on,2,0,0,,7,,,67,127
64301,note_on,0,0,0,,12,,,47,127
64404,note_off,103,0,0,,7,,,67,127
64406,note_on,2,0,0,,4,,,76,127
64509,note_off,103,0,0,,4,,,76,127
64509,note_off,0,0,0,,12,,,47,127
64511,note_on,2,0,0,,2,,,74,127
64511,note_on,0,0,0,,0,,,48,127
64614,note_off,103,0,0,,2,,,74,127
64616,note_on,2,0,0,,0,,,72,127
64719,note_off,103,0,0,,0,,,72,127
64719,note_off,0,0,0,,0,,,48,127
64721,note_on,2,0,0,,12,,,71,127
64721,note_on,0,0,0,,2,,,50,127
64824,note_off,103,0,0,,12,,,71,127
64826,note_on,2,0,0,,10,,,69,127
64929,note_off,103,0,0,,10,,,69,127
64929,note_off,0,0,0,,2,,,50,127
64931,note_on,2,0,0,,7,,,67,127
64931,note_on,0,0,0,,10,,,45,127
65034,note_off,103,0,0,,7,,,67,127
65036,note_on,2,0,0,,6,,,66,127
65139,note_off,103,0,0,,6,,,66,127
65139,note_off,0,0,0,,10,,,45,127
65141,note_on,2,0,0,,7,,,67,127
65141,note_on,0,0,0,,12,,,47,127
65244,note_off,103,0,0,,7,,,67,127
65251,note_on,7,0,0,,4,,,76,127
65349,note_off,98,0,0,,12,,,47,127
65353,note_off,4,0,0,,4,,,76,127
65355,note_on,2,0,0,,0,,,48,127
65355,note_on,0,0,0,,2,,,74,127
65458,note_off,103,0,0,,2,,,74,127
65460,note_on,2,0,0,,0,,,72,127
65563,note_off,103,0,0,,0,,,72,127
65563,note_off,0,0,0,,0,,,48,127
65565,note_on,2,0,0,,2,,,50,127
65565,note_on,0,0,0,,12,,,71,127
65668,note_off,103,0,0,,12,,,71,127
65670,note_on,2,0,0,,10,,,69,127
65773,note_off,103,0,0,,10,,,69,127
65773,note_off,0,0,0,,2,,,50,127
65775,note_on,2,0,0,,2,,,38,127
65775,note_on,0,0,0,,7,,,67,127
65878,note_off,103,0,0,,7,,,67,127
65880,note_on,2,0,0,,6,,,66,127
65983,note_off,103,0,0,,2,,,38,127
65988,note_off,5,0,0,,6,,,66,127
65991,note_on,3,0,0,,7,,,43,127
65991,note_on,0,0,0,,7,,,67,127
66618,note_off,627,0,0,,7,,,67,127
66782,note_off,164,0,0,,7,,,43,127
66857,note_on,75,0,0,,7,,,55,127
66857,note_on,0,0,0,,4,,,76,127
66907,note_off,50,0,0,,4,,,76,127
66909,note_on,2,0,0,,2,,,74,127
66959,note_off,50,0,0,,2,,,74,127
66961,note_on,2,0,0,,4,,,76,127
67011,note_off,50,0,0,,4,,,76,127
67013,note_on,2,0,0,,2,,,74,127
67063,note_off,50,0,0,,2,,,74,127
67065,note_on,2,0,0,,4,,,76,127
67115,note_off,50,0,0,,4,,,76,127
67117,note_on,2,0,0,,2,,,74,127
67167,note_off,50,0,0,,2,,,74,127
67169,note_on,2,0,0,,0,,,72,127
67272,note_off,103,0,0,,0,,,72,127
67274,note_on,2,0,0,,12,,,71,127
67481,note_off,207,0,0,,12,,,71,127
67483,note_on,2,0,0,,4,,,76,127
67690,note_off,207,0,0,,4,,,76,127
67690,note_off,0,0,0,,7,,,55,127
67692,note_on,2,0,0,,5,,,53,127
67692,note_on,0,0,0,,4,,,76,127
67742,note_off,50,0,0,,4,,,76,127
67744,note_on,2,0,0,,2,,,74,127
67794,note_off,50,0,0,,2,,,74,127
67796,note_on,2,0,0,,4,,,76,127
67846,note_off,50,0,0,,4,,,76,127
67848,note_on,2,0,0,,2,,,74,127
67898,note_off,50,0,0,,2,,,74,127
67900,note_on,2,0,0,,4,,,76,127
67950,note_off,50,0,0,,4,,,76,127
67952,note_on,2,0,0,,2,,,74,127
68002,note_off,50,0,0,,2,,,74,127
68004,note_on,2,0,0,,0,,,72,127
68107,note_off,103,0,0,,0,,,72,127
68109,note_on,2,0,0,,12,,,71,127
68316,note_off,207,0,0,,12,,,71,127
68318,note_on,2,0,0,,10,,,81,127
68525,note_off,207,0,0,,10,,,81,127
68525,note_off,0,0,0,,5,,,53,127
68527,note_on,2,0,0,,4,,,52,127
68527,note_on,0,0,0,,8,,,80,127
68734,note_off,207,0,0,,8,,,80,127
68736,note_on,2,0,0,,5,,,77,127
68943,note_off,207,0,0,,5,,,77,127
68945,note_on,2,0,0,,4,,,76,127
69152,note_off,207,0,0,,4,,,76,127
69154,note_on,2,0,0,,12,,,71,127
69361,note_off,207,0,0,,12,,,71,127
69361,note_off,0,0,0,,4,,,52,127
69363,note_on,2,0,0,,10,,,57,127
69363,note_on,0,0,0,,2,,,74,127
69413,note_off,50,0,0,,2,,,74,127
69415,note_on,2,0,0,,0,,,72,127
69465,note_off,50,0,0,,0,,,72,127
69467,note_on,2,0,0,,2,,,74,127
69517,note_off,50,0,0,,2,,,74,127
69519,note_on,2,0,0,,0,,,72,127
69569,note_off,50,0,0,,0,,,72,127
69571,note_on,2,0,0,,2,,,74,127
69621,note_off,50,0,0,,2,,,74,127
69623,note_on,2,0,0,,0,,,72,127
69673,note_off,50,0,0,,0,,,72,127
69675,note_on,2,0,0,,12,,,71,127
69778,note_off,103,0,0,,12,,,71,127
69780,note_on,2,0,0,,10,,,69,127
70094,note_off,314,0,0,,10,,,69,127
70197,note_off,103,0,0,,10,,,57,127
70217,note_on,20,0,0,,2,,,74,127
70217,note_on,0,0,0,,10,,,57,127
70267,note_off,50,0,0,,2,,,74,127
70269,note_on,2,0,0,,0,,,72,127
70319,note_off,50,0,0,,0,,,72,127
70321,note_on,2,0,0,,2,,,74,127
70371,note_off,50,0,0,,2,,,74,127
70373,note_on,2,0,0,,0,,,72,127
70423,note_off,50,0,0,,0,,,72,127
70425,note_on,2,0,0,,2,,,74,127
70475,note_off,50,0,0,,2,,,74,127
70477,note_on,2,0,0,,0,,,72,127
70527,note_off,50,0,0,,0,,,72,127
70529,note_on,2,0,0,,12,,,71,127
70632,note_off,103,0,0,,12,,,71,127
70632,note_off,0,0,0,,10,,,57,127
70634,note_on,2,0,0,,0,,,72,127
70634,note_on,0,0,0,,7,,,55,127
70841,note_off,207,0,0,,0,,,72,127
70843,note_on,2,0,0,,4,,,76,127
71050,note_off,207,0,0,,4,,,76,127
71050,note_off,0,0,0,,7,,,55,127
71052,note_on,2,0,0,,2,,,74,127
71052,note_on,0,0,0,,6,,,54,127
71102,note_off,50,0,0,,2,,,74,127
71104,note_on,2,0,0,,0,,,72,127
71154,note_off,50,0,0,,0,,,72,127
71156,note_on,2,0,0,,2,,,74,127
71206,note_off,50,0,0,,2,,,74,127
71208,note_on,2,0,0,,0,,,72,127
71258,note_off,50,0,0,,0,,,72,127
71260,note_on,2,0,0,,2,,,74,127
71310,note_off,50,0,0,,2,,,74,127
71312,note_on,2,0,0,,0,,,72,127
71362,note_off,50,0,0,,0,,,72,127
71364,note_on,2,0,0,,12,,,71,127
71467,note_off,103,0,0,,12,,,71,127
71467,note_off,0,0,0,,6,,,54,127
71469,note_on,2,0,0,,0,,,72,127
71469,note_on,0,0,0,,4,,,52,127
71676,note_off,207,0,0,,0,,,72,127
71678,note_on,2,0,0,,10,,,81,127
71885,note_off,207,0,0,,10,,,81,127
71885,note_off,0,0,0,,4,,,52,127
71887,note_on,2,0,0,,10,,,81,127
71887,note_on,0,0,0,,3,,,51,127
72094,note_off,207,0,0,,10,,,81,127
72096,note_on,2,0,0,,6,,,78,127
72303,note_off,207,0,0,,6,,,78,127
72303,note_off,0,0,0,,3,,,51,127
72305,note_on,2,0,0,,12,,,71,127
72305,note_on,0,0,0,,3,,,51,127
72512,note_off,207,0,0,,12,,,71,127
72514,note_on,2,0,0,,10,,,81,127
72721,note_off,207,0,0,,10,,,81,127
72721,note_off,0,0,0,,3,,,51,127
72723,note_on,2,0,0,,7,,,79,127
72723,note_on,0,0,0,,4,,,52,127
73035,note_off,312,0,0,,7,,,79,127
73037,note_on,2,0,0,,6,,,78,127
73140,note_off,103,0,0,,6,,,78,127
73142,note_on,2,0,0,,4,,,76,127
73349,note_off,207,0,0,,4,,,76,127
73350,note_off,1,0,0,,4,,,52,127
73351,note_on,1,0,0,,12,,,83,127
73558,note_off,207,0,0,,12,,,83,127
73578,note_on,20,0,0,,10,,,69,127
73578,note_on,0,0,0,,4,,,76,127
73628,note_off,50,0,0,,10,,,69,127
73630,note_on,2,0,0,,7,,,67,127
73680,note_off,50,0,0,,7,,,67,127
73682,note_on,2,0,0,,10,,,69,127
73732,note_off,50,0,0,,10,,,69,127
73734,note_on,2,0,0,,7,,,67,127
73784,note_off,50,0,0,,7,,,67,127
73784,note_off,0,0,0,,4,,,76,127
73786,note_on,2,0,0,,10,,,69,127
73786,note_on,0,0,0,,4,,,76,127
73836,note_off,50,0,0,,10,,,69,127
73838,note_on,2,0,0,,7,,,67,127
73888,note_off,50,0,0,,7,,,67,127
73890,note_on,2,0,0,,6,,,66,127
73993,note_off,103,0,0,,6,,,66,127
73993,note_off,0,0,0,,4,,,76,127
73995,note_on,2,0,0,,4,,,64,127
73995,note_on,0,0,0,,4,,,76,127
74202,note_off,207,0,0,,4,,,76,127
74202,note_off,0,0,0,,4,,,64,127
74204,note_on,2,0,0,,10,,,69,127
74204,note_on,0,0,0,,4,,,76,127
74411,note_off,207,0,0,,4,,,76,127
74411,note_off,0,0,0,,10,,,69,127
74413,note_on,2,0,0,,10,,,69,127
74413,note_on,0,0,0,,4,,,76,127
74463,note_off,50,0,0,,10,,,69,127
74465,note_on,2,0,0,,7,,,67,127
74515,note_off,50,0,0,,7,,,67,127
74517,note_on,2,0,0,,10,,,69,127
74567,note_off,50,0,0,,10,,,69,127
74569,note_on,2,0,0,,7,,,67,127
74619,note_off,50,0,0,,7,,,67,127
74619,note_off,0,0,0,,4,,,76,127
74621,note_on,2,0,0,,10,,,69,127
74621,note_on,0,0,0,,4,,,76,127
74671,note_off,50,0,0,,10,,,69,127
74673,note_on,2,0,0,,7,,,67,127
74723,note_off,50,0,0,,7,,,67,127
74725,note_on,2,0,0,,6,,,66,127
74828,note_off,103,0,0,,6,,,66,127
74828,note_off,0,0,0,,4,,,76,127
74830,note_on,2,0,0,,4,,,64,127
74830,note_on,0,0,0,,4,,,76,127
75037,note_off,207,0,0,,4,,,76,127
75037,note_off,0,0,0,,4,,,64,127
75039,note_on,2,0,0,,2,,,62,127
75039,note_on,0,0,0,,4,,,76,127
75246,note_off,207,0,0,,4,,,76,127
75246,note_off,0,0,0,,2,,,62,127
75248,note_on,2,0,0,,0,,,60,127
75248,note_on,0,0,0,,4,,,76,127
75455,note_off,207,0,0,,4,,,76,127
75457,note_on,2,0,0,,0,,,72,127
75664,note_off,207,0,0,,0,,,72,127
75664,note_off,0,0,0,,0,,,60,127
75666,note_on,2,0,0,,0,,,48,127
75666,note_on,0,0,0,,12,,,71,127
75873,note_off,207,0,0,,12,,,71,127
75875,note_on,2,0,0,,11,,,70,127
76082,note_off,207,0,0,,11,,,70,127
76082,note_off,0,0,0,,0,,,48,127
76084,note_on,2,0,0,,12,,,47,127
76084,note_on,0,0,0,,11,,,70,127
76352,note_on,268,0,0,,12,,,71,127
76360,note_off,8,0,0,,11,,,70,127
76767,note_off,407,0,0,,12,,,71,127
76920,note_off,153,0,0,,12,,,47,127
76957,note_on,37,0,0,,12,,,59,127
76957,note_on,0,0,0,,4,,,76,127
77007,note_off,50,0,0,,4,,,76,127
77009,note_on,2,0,0,,2,,,74,127
77059,note_off,50,0,0,,2,,,74,127
77061,note_on,2,0,0,,4,,,76,127
77111,note_off,50,0,0,,4,,,76,127
77113,note_on,2,0,0,,2,,,74,127
77163,note_off,50,0,0,,2,,,74,127
77165,note_on,2,0,0,,4,,,76,127
77215,note_off,50,0,0,,4,,,76,127
77217,note_on,2,0,0,,2,,,74,127
77267,note_off,50,0,0,,2,,,74,127
77269,note_on,2,0,0,,0,,,72,127
77372,note_off,103,0,0,,0,,,72,127
77372,note_off,0,0,0,,12,,,59,127
77374,note_on,2,0,0,,10,,,57,127
77374,note_on,0,0,0,,2,,,74,127
77581,note_off,207,0,0,,2,,,74,127
77583,note_on,2,0,0,,5,,,77,127
77790,note_off,207,0,0,,5,,,77,127
77790,note_off,0,0,0,,10,,,57,127
77792,note_on,2,0,0,,8,,,56,127
77792,note_on,0,0,0,,4,,,76,127
77842,note_off,50,0,0,,4,,,76,127
77844,note_on,2,0,0,,2,,,74,127
77894,note_off,50,0,0,,2,,,74,127
77896,note_on,2,0,0,,4,,,76,127
77946,note_off,50,0,0,,4,,,76,127
77948,note_on,2,0,0,,2,,,74,127
77998,note_off,50,0,0,,2,,,74,127
78000,note_on,2,0,0,,4,,,76,127
78050,note_off,50,0,0,,4,,,76,127
78052,note_on,2,0,0,,2,,,74,127
78102,note_off,50,0,0,,2,,,74,127
78104,note_on,2,0,0,,0,,,72,127
78207,note_off,103,0,0,,0,,,72,127
78207,note_off,0,0,0,,8,,,56,127
78209,note_on,2,0,0,,5,,,53,127
78209,note_on,0,0,0,,2,,,74,127
78416,note_off,207,0,0,,2,,,74,127
78418,note_on,2,0,0,,5,,,77,127
78625,note_off,207,0,0,,5,,,77,127
78625,note_off,0,0,0,,5,,,53,127
78627,note_on,2,0,0,,4,,,52,127
78627,note_on,0,0,0,,2,,,74,127
78834,note_off,207,0,0,,2,,,74,127
78836,note_on,2,0,0,,12,,,83,127
79043,note_off,207,0,0,,12,,,83,127
79043,note_off,0,0,0,,4,,,52,127
79045,note_on,2,0,0,,4,,,52,127
79045,note_on,0,0,0,,8,,,80,127
79252,note_off,207,0,0,,8,,,80,127
79254,note_on,2,0,0,,2,,,74,127
79461,note_off,207,0,0,,2,,,74,127
79461,note_off,0,0,0,,4,,,52,127
79463,note_on,2,0,0,,10,,,45,127
79463,note_on,0,0,0,,2,,,74,127
79513,note_off,50,0,0,,2,,,74,127
79515,note_on,2,0,0,,0,,,72,127
79565,note_off,50,0,0,,0,,,72,127
79567,note_on,2,0,0,,2,,,74,127
79617,note_off,50,0,0,,2,,,74,127
79619,note_on,2,0,0,,0,,,72,127
79669,note_off,50,0,0,,0,,,72,127
79671,note_on,2,0,0,,2,,,74,127
79721,note_off,50,0,0,,2,,,74,127
79723,note_on,2,0,0,,0,,,72,127
79773,note_off,50,0,0,,0,,,72,127
79775,note_on,2,0,0,,12,,,71,127
79878,note_off,103,0,0,,12,,,71,127
79880,note_on,2,0,0,,10,,,69,127
80194,note_off,314,0,0,,10,,,69,127
80297,note_off,103,0,0,,10,,,45,127
80317,note_on,20,0,0,,2,,,74,127
80317,note_on,0,0,0,,10,,,57,127
80367,note_off,50,0,0,,2,,,74,127
80369,note_on,2,0,0,,0,,,72,127
80419,note_off,50,0,0,,0,,,72,127
80421,note_on,2,0,0,,2,,,74,127
80471,note_off,50,0,0,,2,,,74,127
80473,note_on,2,0,0,,0,,,72,127
80523,note_off,50,0,0,,0,,,72,127
80525,note_on,2,0,0,,2,,,74,127
80575,note_off,50,0,0,,2,,,74,127
80577,note_on,2,0,0,,0,,,72,127
80627,note_off,50,0,0,,0,,,72,127
80629,note_on,2,0,0,,12,,,71,127
80732,note_off,103,0,0,,12,,,71,127
80732,note_off,0,0,0,,10,,,57,127
80734,note_on,2,0,0,,0,,,72,127
80734,note_on,0,0,0,,7,,,55,127
80941,note_off,207,0,0,,0,,,72,127
80943,note_on,2,0,0,,10,,,81,127
81150,note_off,207,0,0,,10,,,81,127
81150,note_off,0,0,0,,7,,,55,127
81152,note_on,2,0,0,,2,,,74,127
81152,note_on,0,0,0,,5,,,53,127
81202,note_off,50,0,0,,2,,,74,127
81204,note_on,2,0,0,,0,,,72,127
81254,note_off,50,0,0,,0,,,72,127
81256,note_on,2,0,0,,2,,,74,127
81306,note_off,50,0,0,,2,,,74,127
81308,note_on,2,0,0,,0,,,72,127
81358,note_off,50,0,0,,0,,,72,127
81360,note_on,2,0,0,,2,,,74,127
81410,note_off,50,0,0,,2,,,74,127
81412,note_on,2,0,0,,0,,,72,127
81462,note_off,50,0,0,,0,,,72,127
81464,note_on,2,0,0,,12,,,71,127
81567,note_off,103,0,0,,12,,,71,127
81567,note_off,0,0,0,,5,,,53,127
81569,note_on,2,0,0,,0,,,72,127
81569,note_on,0,0,0,,5,,,53,127
81776,note_off,207,0,0,,0,,,72,127
81778,note_on,2,0,0,,10,,,81,127
81985,note_off,207,0,0,,10,,,81,127
81985,note_off,0,0,0,,5,,,53,127
81987,note_on,2,0,0,,7,,,79,127
81987,note_on,0,0,0,,4,,,52,127
82194,note_off,207,0,0,,7,,,79,127
82196,note_on,2,0,0,,4,,,76,127
82403,note_off,207,0,0,,4,,,76,127
82403,note_off,0,0,0,,4,,,52,127
82405,note_on,2,0,0,,0,,,72,127
82405,note_on,0,0,0,,4,,,52,127
82612,note_off,207,0,0,,0,,,72,127
82614,note_on,2,0,0,,11,,,70,127
82821,note_off,207,0,0,,11,,,70,127
82821,note_off,0,0,0,,4,,,52,127
82823,note_on,2,0,0,,0,,,72,127
82823,note_on,0,0,0,,5,,,53,127
82873,note_off,50,0,0,,0,,,72,127
82875,note_on,2,0,0,,11,,,70,127
82925,note_off,50,0,0,,11,,,70,127
82927,note_on,2,0,0,,0,,,72,127
82977,note_off,50,0,0,,0,,,72,127
82979,note_on,2,0,0,,11,,,70,127
83029,note_off,50,0,0,,11,,,70,127
83031,note_on,2,0,0,,10,,,69,127
83238,note_off,207,0,0,,5,,,53,127
83245,note_on,7,0,0,,5,,,41,127
83448,note_off,203,0,0,,10,,,69,127
83468,note_on,20,0,0,,10,,,69,127
83660,note_off,192,0,0,,5,,,41,127
83675,note_off,15,0,0,,10,,,69,127
83677,note_on,2,0,0,,5,,,77,127
83745,note_off,68,0,0,,5,,,77,127
83747,note_on,2,0,0,,7,,,79,127
83815,note_off,68,0,0,,7,,,79,127
83817,note_on,2,0,0,,10,,,81,127
83885,note_off,68,0,0,,10,,,81,127
83887,note_on,2,0,0,,2,,,74,127
83887,note_on,0,0,0,,5,,,77,127
84094,note_off,207,0,0,,5,,,77,127
84096,note_on,2,0,0,,4,,,76,127
84164,note_off,68,0,0,,4,,,76,127
84166,note_on,2,0,0,,5,,,77,127
84234,note_off,68,0,0,,5,,,77,127
84236,note_on,2,0,0,,7,,,79,127
84304,note_off,68,0,0,,7,,,79,127
84304,note_off,0,0,0,,2,,,74,127
84306,note_on,2,0,0,,0,,,72,127
84306,note_on,0,0,0,,4,,,76,127
84513,note_off,207,0,0,,4,,,76,127
84515,note_on,2,0,0,,2,,,74,127
84583,note_off,68,0,0,,2,,,74,127
84585,note_on,2,0,0,,4,,,76,127
84653,note_off,68,0,0,,4,,,76,127
84655,note_on,2,0,0,,5,,,77,127
84723,note_off,68,0,0,,5,,,77,127
84723,note_off,0,0,0,,0,,,72,127
84725,note_on,2,0,0,,11,,,70,127
84725,note_on,0,0,0,,2,,,74,127
84932,note_off,207,0,0,,2,,,74,127
84934,note_on,2,0,0,,0,,,72,127
85002,note_off,68,0,0,,0,,,72,127
85004,note_on,2,0,0,,2,,,74,127
85072,note_off,68,0,0,,2,,,74,127
85074,note_on,2,0,0,,4,,,76,127
85142,note_off,68,0,0,,4,,,76,127
85142,note_off,0,0,0,,11,,,70,127
85144,note_on,2,0,0,,10,,,69,127
85144,note_on,0,0,0,,0,,,72,127
85351,note_off,207,0,0,,0,,,72,127
85353,note_on,2,0,0,,11,,,70,127
85421,note_off,68,0,0,,11,,,70,127
85423,note_on,2,0,0,,0,,,72,127
85491,note_off,68,0,0,,0,,,72,127
85493,note_on,2,0,0,,2,,,74,127
85561,note_off,68,0,0,,2,,,74,127
85561,note_off,0,0,0,,10,,,69,127
85563,note_on,2,0,0,,7,,,67,127
85563,note_on,0,0,0,,11,,,70,127
85770,note_off,207,0,0,,7,,,67,127
85772,note_on,2,0,0,,5,,,65,127
85979,note_off,207,0,0,,5,,,65,127
85979,note_off,0,0,0,,11,,,70,127
85981,note_on,2,0,0,,5,,,53,127
85981,note_on,0,0,0,,10,,,69,127
86188,note_off,207,0,0,,10,,,69,127
86188,note_off,0,0,0,,5,,,53,127
86190,note_on,2,0,0,,0,,,48,127
86190,note_on,0,0,0,,11,,,70,127
86240,note_off,50,0,0,,11,,,70,127
86242,note_on,2,0,0,,10,,,69,127
86292,note_off,50,0,0,,10,,,69,127
86294,note_on,2,0,0,,11,,,70,127
86344,note_off,50,0,0,,11,,,70,127
86346,note_on,2,0,0,,10,,,69,127
86396,note_off,50,0,0,,10,,,69,127
86398,note_on,2,0,0,,7,,,67,127
86605,note_off,207,0,0,,0,,,48,127
86614,note_on,9,0,0,,4,,,52,127
86712,note_off,98,0,0,,7,,,67,127
86834,note_on,122,0,0,,0,,,72,127
87030,note_off,196,0,0,,4,,,52,127
87041,note_off,11,0,0,,0,,,72,127
87043,note_on,2,0,0,,10,,,69,127
87043,note_on,0,0,0,,5,,,53,127
87146,note_off,103,0,0,,10,,,69,127
87148,note_on,2,0,0,,12,,,71,127
87251,note_off,103,0,0,,12,,,71,127
87253,note_on,2,0,0,,0,,,72,127
87460,note_off,207,0,0,,0,,,72,127
87460,note_off,0,0,0,,5,,,53,127
87462,note_on,2,0,0,,0,,,72,127
87462,note_on,0,0,0,,4,,,52,127
87669,note_off,207,0,0,,0,,,72,127
87671,note_on,2,0,0,,0,,,72,127
87878,note_off,207,0,0,,0,,,72,127
87878,note_off,0,0,0,,4,,,52,127
87880,note_on,2,0,0,,12,,,71,127
87880,note_on,0,0,0,,2,,,50,127
88087,note_off,207,0,0,,12,,,71,127
88089,note_on,2,0,0,,10,,,81,127
88296,note_off,207,0,0,,10,,,81,127
88298,note_on,2,0,0,,10,,,81,127
88366,note_off,68,0,0,,10,,,81,127
88368,note_on,2,0,0,,7,,,79,127
88436,note_off,68,0,0,,7,,,79,127
88438,note_on,2,0,0,,5,,,77,127
88506,note_off,68,0,0,,5,,,77,127
88508,note_on,2,0,0,,5,,,77,127
88715,note_off,207,0,0,,5,,,77,127
88715,note_off,0,0,0,,2,,,50,127
88717,note_on,2,0,0,,5,,,77,127
88717,note_on,0,0,0,,2,,,50,127
88785,note_off,68,0,0,,5,,,77,127
88787,note_on,2,0,0,,4,,,76,127
88855,note_off,68,0,0,,4,,,76,127
88857,note_on,2,0,0,,2,,,74,127
88925,note_off,68,0,0,,2,,,74,127
88927,note_on,2,0,0,,2,,,74,127
89134,note_off,207,0,0,,2,,,74,127
89136,note_on,2,0,0,,5,,,77,127
89204,note_off,68,0,0,,5,,,77,127
89206,note_on,2,0,0,,4,,,76,127
89274,note_off,68,0,0,,4,,,76,127
89276,note_on,2,0,0,,2,,,74,127
89344,note_off,68,0,0,,2,,,74,127
89346,note_on,2,0,0,,2,,,74,127
89553,note_off,207,0,0,,2,,,74,127
89553,note_off,0,0,0,,2,,,50,127
89555,note_on,2,0,0,,2,,,74,127
89555,note_on,0,0,0,,7,,,55,127
89623,note_off,68,0,0,,2,,,74,127
89625,note_on,2,0,0,,0,,,72,127
89693,note_off,68,0,0,,0,,,72,127
89695,note_on,2,0,0,,12,,,71,127
89763,note_off,68,0,0,,12,,,71,127
89765,note_on,2,0,0,,12,,,71,127
89972,note_off,207,0,0,,12,,,71,127
89972,note_off,0,0,0,,7,,,55,127
89974,note_on,2,0,0,,12,,,71,127
89974,note_on,0,0,0,,7,,,43,127
90181,note_off,207,0,0,,12,,,71,127
90183,note_on,2,0,0,,12,,,71,127
90390,note_off,207,0,0,,12,,,71,127
90390,note_off,0,0,0,,7,,,43,127
90392,note_on,2,0,0,,5,,,77,127
90392,note_on,0,0,0,,7,,,43,127
90599,note_off,207,0,0,,5,,,77,127
90601,note_on,2,0,0,,2,,,74,127
90808,note_off,207,0,0,,7,,,43,127
90810,note_on,2,0,0,,7,,,43,127
91017,note_off,207,0,0,,2,,,74,127
91019,note_on,2,0,0,,0,,,72,127
91122,note_off,103,0,0,,0,,,72,127
91124,note_on,2,0,0,,12,,,71,127
91223,note_off,99,0,0,,12,,,71,127
91226,note_off,3,0,0,,7,,,43,127
91228,note_on,2,0,0,,12,,,71,127
91228,note_on,0,0,0,,0,,,36,127
91700,note_on,472,0,0,,0,,,72,127
91701,note_off,1,0,0,,12,,,71,127
91991,note_off,290,0,0,,0,,,36,127
92116,note_off,125,0,0,,0,,,72,127
92163,note_on,47,0,0,,5,,,65,127
92163,note_on,0,0,0,,11,,,82,127
92213,note_off,50,0,0,,11,,,82,127
92215,note_on,2,0,0,,8,,,80,127
92265,note_off,50,0,0,,8,,,80,127
92267,note_on,2,0,0,,11,,,82,127
92317,note_off,50,0,0,,11,,,82,127
92319,note_on,2,0,0,,8,,,80,127
92369,note_off,50,0,0,,8,,,80,127
92371,note_on,2,0,0,,11,,,82,127
92421,note_off,50,0,0,,11,,,82,127
92423,note_on,2,0,0,,8,,,80,127
92473,note_off,50,0,0,,8,,,80,127
92475,note_on,2,0,0,,7,,,79,127
92578,note_off,103,0,0,,7,,,79,127
92580,note_on,2,0,0,,5,,,77,127
92787,note_off,207,0,0,,5,,,77,127
92789,note_on,2,0,0,,11,,,82,127
92996,note_off,207,0,0,,11,,,82,127
92996,note_off,0,0,0,,5,,,65,127
92998,note_on,2,0,0,,5,,,65,127
92998,note_on,0,0,0,,11,,,82,127
93048,note_off,50,0,0,,11,,,82,127
93050,note_on,2,0,0,,8,,,80,127
93100,note_off,50,0,0,,8,,,80,127
93102,note_on,2,0,0,,11,,,82,127
93152,note_off,50,0,0,,11,,,82,127
93154,note_on,2,0,0,,8,,,80,127
93204,note_off,50,0,0,,8,,,80,127
93206,note_on,2,0,0,,11,,,82,127
93256,note_off,50,0,0,,11,,,82,127
93258,note_on,2,0,0,,8,,,80,127
93308,note_off,50,0,0,,8,,,80,127
93310,note_on,2,0,0,,7,,,79,127
93413,note_off,103,0,0,,7,,,79,127
93415,note_on,2,0,0,,5,,,77,127
93622,note_off,207,0,0,,5,,,77,127
93624,note_on,2,0,0,,0,,,84,127
93831,note_off,207,0,0,,0,,,84,127
93831,note_off,0,0,0,,5,,,65,127
93833,note_on,2,0,0,,1,,,61,127
93833,note_on,0,0,0,,11,,,82,127
94040,note_off,207,0,0,,11,,,82,127
94042,note_on,2,0,0,,5,,,77,127
94249,note_off,207,0,0,,5,,,77,127
94249,note_off,0,0,0,,1,,,61,127
94251,note_on,2,0,0,,1,,,61,127
94251,note_on,0,0,0,,4,,,76,127
94458,note_off,207,0,0,,4,,,76,127
94460,note_on,2,0,0,,5,,,77,127
94667,note_off,207,0,0,,5,,,77,127
94667,note_off,0,0,0,,1,,,61,127
94669,note_on,2,0,0,,0,,,60,127
94669,note_on,0,0,0,,5,,,77,127
94876,note_off,207,0,0,,5,,,77,127
94878,note_on,2,0,0,,7,,,79,127
95085,note_off,207,0,0,,7,,,79,127
95087,note_on,2,0,0,,0,,,72,127
95401,note_off,314,0,0,,0,,,72,127
95504,note_off,103,0,0,,0,,,60,127
95524,note_on,20,0,0,,11,,,82,127
95524,note_on,0,0,0,,5,,,65,127
95574,note_off,50,0,0,,11,,,82,127
95576,note_on,2,0,0,,8,,,80,127
95626,note_off,50,0,0,,8,,,80,127
95628,note_on,2,0,0,,11,,,82,127
95678,note_off,50,0,0,,11,,,82,127
95680,note_on,2,0,0,,8,,,80,127
95730,note_off,50,0,0,,8,,,80,127
95732,note_on,2,0,0,,11,,,82,127
95782,note_off,50,0,0,,11,,,82,127
95784,note_on,2,0,0,,8,,,80,127
95834,note_off,50,0,0,,8,,,80,127
95836,note_on,2,0,0,,7,,,79,127
95939,note_off,103,0,0,,7,,,79,127
95941,note_on,2,0,0,,5,,,77,127
96148,note_off,207,0,0,,5,,,77,127
96150,note_on,2,0,0,,11,,,82,127
96357,note_off,207,0,0,,11,,,82,127
96357,note_off,0,0,0,,5,,,65,127
96359,note_on,2,0,0,,8,,,80,127
96359,note_on,0,0,0,,5,,,65,127
96566,note_off,207,0,0,,8,,,80,127
96568,note_on,2,0,0,,7,,,79,127
96775,note_off,207,0,0,,7,,,79,127
96777,note_on,2,0,0,,5,,,77,127
96984,note_off,207,0,0,,5,,,77,127
96986,note_on,2,0,0,,3,,,75,127
97193,note_off,207,0,0,,3,,,75,127
97193,note_off,0,0,0,,5,,,65,127
97195,note_on,2,0,0,,2,,,74,127
97195,note_on,0,0,0,,5,,,65,127
97402,note_off,207,0,0,,5,,,65,127
97402,note_off,0,0,0,,2,,,74,127
97404,note_on,2,0,0,,0,,,72,127
97404,note_on,0,0,0,,8,,,68,127
97611,note_off,207,0,0,,8,,,68,127
97611,note_off,0,0,0,,0,,,72,127
97613,note_on,2,0,0,,12,,,71,127
97613,note_on,0,0,0,,7,,,67,127
97820,note_off,207,0,0,,7,,,67,127
97822,note_on,2,0,0,,5,,,65,127
98029,note_off,207,0,0,,5,,,65,127
98029,note_off,0,0,0,,12,,,71,127
98031,note_on,2,0,0,,0,,,72,127
98031,note_on,0,0,0,,3,,,63,127
98238,note_off,207,0,0,,3,,,63,127
98240,note_on,2,0,0,,2,,,62,127
98447,note_off,207,0,0,,2,,,62,127
98449,note_on,2,0,0,,0,,,60,127
98554,note_off,105,0,0,,0,,,72,127
98657,note_off,103,0,0,,0,,,60,127
98668,note_on,11,0,0,,2,,,74,127
98668,note_on,0,0,0,,11,,,58,127
98875,note_off,207,0,0,,11,,,58,127
98875,note_off,0,0,0,,2,,,74,127
98886,note_on,11,0,0,,5,,,77,127
98886,note_on,0,0,0,,8,,,56,127
98936,note_off,50,0,0,,5,,,77,127
98938,note_on,2,0,0,,3,,,75,127
98988,note_off,50,0,0,,3,,,75,127
98990,note_on,2,0,0,,5,,,77,127
99040,note_off,50,0,0,,5,,,77,127
99042,note_on,2,0,0,,3,,,75,127
99092,note_off,50,0,0,,3,,,75,127
99094,note_on,2,0,0,,5,,,77,127
99144,note_off,50,0,0,,5,,,77,127
99146,note_on,2,0,0,,3,,,75,127
99196,note_off,50,0,0,,3,,,75,127
99198,note_on,2,0,0,,2,,,74,127
99301,note_off,103,0,0,,2,,,74,127
99303,note_on,2,0,0,,0,,,72,127
99510,note_off,207,0,0,,0,,,72,127
99512,note_on,2,0,0,,5,,,77,127
99719,note_off,207,0,0,,5,,,77,127
99719,note_off,0,0,0,,8,,,56,127
99721,note_on,2,0,0,,5,,,77,127
99721,note_on,0,0,0,,7,,,55,127
99771,note_off,50,0,0,,5,,,77,127
99773,note_on,2,0,0,,3,,,75,127
99823,note_off,50,0,0,,3,,,75,127
99825,note_on,2,0,0,,5,,,77,127
99875,note_off,50,0,0,,5,,,77,127
99877,note_on,2,0,0,,3,,,75,127
99927,note_off,50,0,0,,3,,,75,127
99929,note_on,2,0,0,,5,,,77,127
99979,note_off,50,0,0,,5,,,77,127
99981,note_on,2,0,0,,3,,,75,127
100031,note_off,50,0,0,,3,,,75,127
100033,note_on,2,0,0,,2,,,74,127
100136,note_off,103,0,0,,2,,,74,127
100138,note_on,2,0,0,,0,,,72,127
100345,note_off,207,0,0,,0,,,72,127
100347,note_on,2,0,0,,7,,,79,127
100554,note_off,207,0,0,,7,,,79,127
100554,note_off,0,0,0,,7,,,55,127
100556,note_on,2,0,0,,10,,,81,127
100556,note_on,0,0,0,,6,,,54,127
100763,note_off,207,0,0,,10,,,81,127
100765,note_on,2,0,0,,3,,,75,127
100972,note_off,207,0,0,,3,,,75,127
100974,note_on,2,0,0,,2,,,74,127
101181,note_off,207,0,0,,2,,,74,127
101183,note_on,2,0,0,,0,,,72,127
101390,note_off,207,0,0,,0,,,72,127
101390,note_off,0,0,0,,6,,,54,127
101392,note_on,2,0,0,,0,,,72,127
101392,note_on,0,0,0,,7,,,55,127
101442,note_off,50,0,0,,0,,,72,127
101444,note_on,2,0,0,,12,,,71,127
101494,note_off,50,0,0,,12,,,71,127
101496,note_on,2,0,0,,0,,,72,127
101546,note_off,50,0,0,,0,,,72,127
101548,note_on,2,0,0,,12,,,71,127
101598,note_off,50,0,0,,12,,,71,127
101600,note_on,2,0,0,,0,,,72,127
101650,note_off,50,0,0,,0,,,72,127
101652,note_on,2,0,0,,12,,,71,127
101702,note_off,50,0,0,,12,,,71,127
101704,note_on,2,0,0,,10,,,69,127
101807,note_off,103,0,0,,10,,,69,127
101809,note_on,2,0,0,,7,,,67,127
102172,note_off,363,0,0,,7,,,67,127
102253,note_off,81,0,0,,7,,,55,127
102263,note_on,10,0,0,,4,,,76,127
102263,note_on,0,0,0,,7,,,55,127
102313,note_off,50,0,0,,4,,,76,127
102315,note_on,2,0,0,,2,,,74,127
102365,note_off,50,0,0,,2,,,74,127
102367,note_on,2,0,0,,4,,,76,127
102417,note_off,50,0,0,,4,,,76,127
102419,note_on,2,0,0,,2,,,74,127
102469,note_off,50,0,0,,2,,,74,127
102471,note_on,2,0,0,,4,,,76,127
102521,note_off,50,0,0,,4,,,76,127
102523,note_on,2,0,0,,2,,,74,127
102573,note_off,50,0,0,,2,,,74,127
102575,note_on,2,0,0,,0,,,72,127
102678,note_off,103,0,0,,0,,,72,127
102678,note_off,0,0,0,,7,,,55,127
102680,note_on,2,0,0,,12,,,71,127
102680,note_on,0,0,0,,7,,,55,127
102887,note_off,207,0,0,,12,,,71,127
102889,note_on,2,0,0,,4,,,76,127
103096,note_off,207,0,0,,4,,,76,127
103096,note_off,0,0,0,,7,,,55,127
103111,note_on,15,0,0,,4,,,76,127
103111,note_on,0,0,0,,5,,,53,127
103161,note_off,50,0,0,,4,,,76,127
103163,note_on,2,0,0,,2,,,74,127
103213,note_off,50,0,0,,2,,,74,127
103215,note_on,2,0,0,,4,,,76,127
103265,note_off,50,0,0,,4,,,76,127
103267,note_on,2,0,0,,2,,,74,127
103317,note_off,50,0,0,,2,,,74,127
103319,note_on,2,0,0,,4,,,76,127
103369,note_off,50,0,0,,4,,,76,127
103371,note_on,2,0,0,,2,,,74,127
103421,note_off,50,0,0,,2,,,74,127
103423,note_on,2,0,0,,0,,,72,127
103526,note_off,103,0,0,,0,,,72,127
103526,note_off,0,0,0,,5,,,53,127
103528,note_on,2,0,0,,12,,,71,127
103528,note_on,0,0,0,,5,,,53,127
103735,note_off,207,0,0,,12,,,71,127
103737,note_on,2,0,0,,10,,,81,127
103944,note_off,207,0,0,,10,,,81,127
103944,note_off,0,0,0,,5,,,53,127
103953,note_on,9,0,0,,5,,,77,127
103953,note_on,0,0,0,,5,,,53,127
104160,note_off,207,0,0,,5,,,77,127
104162,note_on,2,0,0,,2,,,74,127
104369,note_off,207,0,0,,2,,,74,127
104369,note_off,0,0,0,,5,,,53,127
104371,note_on,2,0,0,,0,,,72,127
104371,note_on,0,0,0,,5,,,53,127
104578,note_off,207,0,0,,0,,,72,127
104580,note_on,2,0,0,,12,,,71,127
104787,note_off,207,0,0,,12,,,71,127
104787,note_off,0,0,0,,5,,,53,127
104789,note_on,2,0,0,,0,,,72,127
104789,note_on,0,0,0,,4,,,52,127
104996,note_off,207,0,0,,0,,,72,127
104998,note_on,2,0,0,,2,,,74,127
105205,note_off,207,0,0,,2,,,74,127
105212,note_on,7,0,0,,4,,,76,127
105427,note_off,215,0,0,,4,,,52,127
105429,note_off,2,0,0,,4,,,76,127
105434,note_on,5,0,0,,2,,,50,127
105434,note_on,0,0,0,,5,,,77,127
105641,note_off,207,0,0,,5,,,77,127
105641,note_off,0,0,0,,2,,,50,127
105643,note_on,2,0,0,,0,,,48,127
105643,note_on,0,0,0,,10,,,81,127
105693,note_off,50,0,0,,10,,,81,127
105695,note_on,2,0,0,,7,,,79,127
105745,note_off,50,0,0,,7,,,79,127
105747,note_on,2,0,0,,10,,,81,127
105797,note_off,50,0,0,,10,,,81,127
105799,note_on,2,0,0,,7,,,79,127
105849,note_off,50,0,0,,7,,,79,127
105851,note_on,2,0,0,,10,,,81,127
105901,note_off,50,0,0,,10,,,81,127
105903,note_on,2,0,0,,7,,,79,127
105953,note_off,50,0,0,,7,,,79,127
105955,note_on,2,0,0,,5,,,77,127
106058,note_off,103,0,0,,5,,,77,127
106058,note_off,0,0,0,,0,,,48,127
106060,note_on,2,0,0,,0,,,48,127
106060,note_on,0,0,0,,4,,,76,127
106267,note_off,207,0,0,,4,,,76,127
106269,note_on,2,0,0,,10,,,81,127
106476,note_off,207,0,0,,10,,,81,127
106476,note_off,0,0,0,,0,,,48,127
106489,note_on,13,0,0,,0,,,48,127
106489,note_on,0,0,0,,10,,,81,127
106539,note_off,50,0,0,,10,,,81,127
106541,note_on,2,0,0,,7,,,79,127
106591,note_off,50,0,0,,7,,,79,127
106593,note_on,2,0,0,,10,,,81,127
106643,note_off,50,0,0,,10,,,81,127
106645,note_on,2,0,0,,7,,,79,127
106695,note_off,50,0,0,,7,,,79,127
106697,note_on,2,0,0,,10,,,81,127
106747,note_off,50,0,0,,10,,,81,127
106749,note_on,2,0,0,,7,,,79,127
106799,note_off,50,0,0,,7,,,79,127
106801,note_on,2,0,0,,5,,,77,127
106904,note_off,103,0,0,,5,,,77,127
106904,note_off,0,0,0,,0,,,48,127
106906,note_on,2,0,0,,0,,,48,127
106906,note_on,0,0,0,,4,,,76,127
107113,note_off,207,0,0,,4,,,76,127
107115,note_on,2,0,0,,7,,,79,127
107320,note_off,205,0,0,,0,,,48,127
107322,note_off,2,0,0,,7,,,79,127
107335,note_on,13,0,0,,2,,,74,127
107542,note_off,207,0,0,,2,,,74,127
107544,note_on,2,0,0,,5,,,53,127
107544,note_on,0,0,0,,4,,,76,127
107647,note_off,103,0,0,,4,,,76,127
107649,note_on,2,0,0,,5,,,77,127
107752,note_off,103,0,0,,5,,,77,127
107752,note_off,0,0,0,,5,,,53,127
107754,note_on,2,0,0,,7,,,55,127
107754,note_on,0,0,0,,4,,,76,127
107857,note_off,103,0,0,,4,,,76,127
107859,note_on,2,0,0,,2,,,74,127
107962,note_off,103,0,0,,2,,,74,127
107962,note_off,0,0,0,,7,,,55,127
107964,note_on,2,0,0,,7,,,43,127
107964,note_on,0,0,0,,0,,,72,127
108067,note_off,103,0,0,,0,,,72,127
108069,note_on,2,0,0,,12,,,71,127
108172,note_off,103,0,0,,12,,,71,127
108172,note_off,0,0,0,,7,,,43,127
108174,note_on,2,0,0,,0,,,48,127
108174,note_on,0,0,0,,0,,,72,127
108381,note_off,207,0,0,,0,,,72,127
108383,note_on,2,0,0,,7,,,67,127
108590,note_off,207,0,0,,7,,,67,127
108592,note_on,2,0,0,,7,,,67,127
108799,note_off,207,0,0,,7,,,67,127
108801,note_on,2,0,0,,7,,,67,127
109008,note_off,207,0,0,,7,,,67,127
109008,note_off,0,0,0,,0,,,48,127
109028,note_on,20,0,0,,0,,,72,127
109028,note_on,0,0,0,,5,,,65,127
109078,note_off,50,0,0,,5,,,65,127
109080,note_on,2,0,0,,4,,,64,127
109130,note_off,50,0,0,,4,,,64,127
109132,note_on,2,0,0,,5,,,65,127
109182,note_off,50,0,0,,5,,,65,127
109184,note_on,2,0,0,,4,,,64,127
109234,note_off,50,0,0,,4,,,64,127
109234,note_off,0,0,0,,0,,,72,127
109236,note_on,2,0,0,,0,,,72,127
109236,note_on,0,0,0,,5,,,65,127
109286,note_off,50,0,0,,5,,,65,127
109288,note_on,2,0,0,,4,,,64,127
109338,note_off,50,0,0,,4,,,64,127
109340,note_on,2,0,0,,2,,,62,127
109443,note_off,103,0,0,,2,,,62,127
109443,note_off,0,0,0,,0,,,72,127
109445,note_on,2,0,0,,0,,,72,127
109445,note_on,0,0,0,,0,,,60,127
109652,note_off,207,0,0,,0,,,60,127
109652,note_off,0,0,0,,0,,,72,127
109654,note_on,2,0,0,,0,,,72,127
109654,note_on,0,0,0,,5,,,65,127
109861,note_off,207,0,0,,5,,,65,127
109861,note_off,0,0,0,,0,,,72,127
109863,note_on,2,0,0,,0,,,72,127
109863,note_on,0,0,0,,5,,,65,127
109913,note_off,50,0,0,,5,,,65,127
109915,note_on,2,0,0,,4,,,64,127
109965,note_off,50,0,0,,4,,,64,127
109967,note_on,2,0,0,,5,,,65,127
110017,note_off,50,0,0,,5,,,65,127
110019,note_on,2,0,0,,4,,,64,127
110069,note_off,50,0,0,,4,,,64,127
110069,note_off,0,0,0,,0,,,72,127
110071,note_on,2,0,0,,0,,,72,127
110071,note_on,0,0,0,,5,,,65,127
110121,note_off,50,0,0,,5,,,65,127
110123,note_on,2,0,0,,4,,,64,127
110173,note_off,50,0,0,,4,,,64,127
110175,note_on,2,0,0,,2,,,62,127
110278,note_off,103,0,0,,2,,,62,127
110278,note_off,0,0,0,,0,,,72,127
110280,note_on,2,0,0,,0,,,72,127
110280,note_on,0,0,0,,0,,,60,127
110487,note_off,207,0,0,,0,,,60,127
110487,note_off,0,0,0,,0,,,72,127
110489,note_on,2,0,0,,0,,,72,127
110489,note_on,0,0,0,,4,,,52,127
110696,note_off,207,0,0,,4,,,52,127
110696,note_off,0,0,0,,0,,,72,127
110698,note_on,2,0,0,,0,,,72,127
110801,note_off,103,0,0,,0,,,72,127
110803,note_on,2,0,0,,2,,,74,127
110906,note_off,103,0,0,,2,,,74,127
110908,note_on,2,0,0,,4,,,76,127
110908,note_on,0,0,0,,5,,,53,127
111011,note_off,103,0,0,,4,,,76,127
111013,note_on,2,0,0,,5,,,77,127
111116,note_off,103,0,0,,5,,,77,127
111116,note_off,0,0,0,,5,,,53,127
111118,note_on,2,0,0,,4,,,76,127
111118,note_on,0,0,0,,7,,,55,127
111221,note_off,103,0,0,,4,,,76,127
111223,note_on,2,0,0,,2,,,74,127
111326,note_off,103,0,0,,2,,,74,127
111326,note_off,0,0,0,,7,,,55,127
111328,note_on,2,0,0,,0,,,72,127
111328,note_on,0,0,0,,7,,,43,127
111431,note_off,103,0,0,,0,,,72,127
111433,note_on,2,0,0,,12,,,71,127
111536,note_off,103,0,0,,12,,,71,127
111536,note_off,0,0,0,,7,,,43,127
111538,note_on,2,0,0,,0,,,72,127
111538,note_on,0,0,0,,0,,,48,127
111769,note_on,231,0,0,,0,,,84,127
111872,note_off,103,0,0,,0,,,84,127
111877,note_on,5,0,0,,7,,,79,127
111954,note_off,77,0,0,,0,,,48,127
111979,note_off,25,0,0,,7,,,79,127
111984,note_on,5,0,0,,0,,,48,127
111984,note_on,0,0,0,,7,,,79,127
111995,note_off,11,0,0,,0,,,72,127
112191,note_off,196,0,0,,7,,,79,127
112193,note_on,2,0,0,,0,,,84,127
112296,note_off,103,0,0,,0,,,84,127
112298,note_on,2,0,0,,4,,,76,127
112401,note_off,103,0,0,,4,,,76,127
112401,note_off,0,0,0,,0,,,48,127
112403,note_on,2,0,0,,0,,,48,127
112403,note_on,0,0,0,,4,,,76,127
112610,note_off,207,0,0,,4,,,76,127
112612,note_on,2,0,0,,7,,,79,127
112715,note_off,103,0,0,,7,,,79,127
112717,note_on,2,0,0,,0,,,72,127
112820,note_off,103,0,0,,0,,,72,127
112820,note_off,0,0,0,,0,,,48,127
112822,note_on,2,0,0,,0,,,48,127
112822,note_on,0,0,0,,0,,,72,127
113029,note_off,207,0,0,,0,,,72,127
113031,note_on,2,0,0,,4,,,76,127
113134,note_off,103,0,0,,4,,,76,127
113136,note_on,2,0,0,,7,,,67,127
113239,note_off,103,0,0,,7,,,67,127
113239,note_off,0,0,0,,0,,,48,127
113241,note_on,2,0,0,,0,,,48,127
113241,note_on,0,0,0,,7,,,67,127
113448,note_off,207,0,0,,7,,,67,127
113450,note_on,2,0,0,,0,,,72,127
113553,note_off,103,0,0,,0,,,72,127
113555,note_on,2,0,0,,4,,,64,127
113658,note_off,103,0,0,,4,,,64,127
113658,note_off,0,0,0,,0,,,48,127
113660,note_on,2,0,0,,0,,,48,127
113660,note_on,0,0,0,,4,,,64,127
113867,note_off,207,0,0,,4,,,64,127
113869,note_on,2,0,0,,7,,,67,127
113972,note_off,103,0,0,,7,,,67,127
113974,note_on,2,0,0,,0,,,60,127
114077,note_off,103,0,0,,0,,,60,127
114077,note_off,0,0,0,,0,,,48,127
114079,note_on,2,0,0,,0,,,48,127
114079,note_on,0,0,0,,0,,,60,127
114286,note_off,207,0,0,,0,,,60,127
114288,note_on,2,0,0,,0,,,72,127
114495,note_off,207,0,0,,0,,,72,127
114497,note_on,2,0,0,,0,,,72,127
114656,note_off,159,0,0,,0,,,48,127
114706,note_on,50,0,0,,4,,,52,127
114923,note_off,217,0,0,,4,,,52,127
114933,note_on,10,0,0,,5,,,53,127
115018,note_off,85,0,0,,0,,,72,127
115038,note_on,20,0,0,,2,,,74,127
115141,note_off,103,0,0,,2,,,74,127
115141,note_off,0,0,0,,5,,,53,127
115143,note_on,2,0,0,,4,,,76,127
115143,note_on,0,0,0,,5,,,53,127
115246,note_off,103,0,0,,4,,,76,127
115248,note_on,2,0,0,,5,,,77,127
115351,note_off,103,0,0,,5,,,77,127
115351,note_off,0,0,0,,5,,,53,127
115353,note_on,2,0,0,,4,,,76,127
115353,note_on,0,0,0,,7,,,55,127
115456,note_off,103,0,0,,4,,,76,127
115458,note_on,2,0,0,,2,,,74,127
115561,note_off,103,0,0,,2,,,74,127
115561,note_off,0,0,0,,7,,,55,127
115563,note_on,2,0,0,,0,,,72,127
115563,note_on,0,0,0,,2,,,50,127
115666,note_off,103,0,0,,0,,,72,127
115668,note_on,2,0,0,,12,,,71,127
115771,note_off,103,0,0,,12,,,71,127
115771,note_off,0,0,0,,2,,,50,127
115775,note_on,4,0,0,,4,,,52,127
115775,note_on,0,0,0,,0,,,72,127
115882,note_on,107,0,0,,10,,,81,127
115889,note_off,7,0,0,,0,,,72,127
115983,note_off,94,0,0,,4,,,52,127
115985,note_off,2,0,0,,10,,,81,127
115987,note_on,2,0,0,,5,,,53,127
115987,note_on,0,0,0,,7,,,79,127
116090,note_off,103,0,0,,7,,,79,127
116092,note_on,2,0,0,,5,,,77,127
116195,note_off,103,0,0,,5,,,77,127
116195,note_off,0,0,0,,5,,,53,127
116195,note_on,0,0,0,,4,,,76,127
116195,note_on,0,0,0,,7,,,55,127
116298,note_off,103,0,0,,4,,,76,127
116300,note_on,2,0,0,,2,,,74,127
116403,note_off,103,0,0,,2,,,74,127
116403,note_off,0,0,0,,7,,,55,127
116405,note_on,2,0,0,,0,,,72,127
116405,note_on,0,0,0,,2,,,50,127
116508,note_off,103,0,0,,0,,,72,127
116512,note_on,4,0,0,,12,,,71,127
116612,note_off,100,0,0,,2,,,50,127
116614,note_off,2,0,0,,12,,,71,127
116614,note_on,0,0,0,,4,,,52,127
116614,note_on,0,0,0,,0,,,72,127
116727,note_on,113,0,0,,10,,,81,127
116732,note_off,5,0,0,,0,,,72,127
116820,note_off,88,0,0,,4,,,52,127
116829,note_off,9,0,0,,10,,,81,127
116831,note_on,2,0,0,,5,,,53,127
116831,note_on,0,0,0,,7,,,79,127
116934,note_off,103,0,0,,7,,,79,127
116936,note_on,2,0,0,,5,,,77,127
117039,note_off,103,0,0,,5,,,77,127
117039,note_off,0,0,0,,5,,,53,127
117041,note_on,2,0,0,,7,,,55,127
117041,note_on,0,0,0,,4,,,76,127
117144,note_off,103,0,0,,4,,,76,127
117146,note_on,2,0,0,,2,,,74,127
117249,note_off,103,0,0,,2,,,74,127
117249,note_off,0,0,0,,7,,,55,127
117251,note_on,2,0,0,,2,,,50,127
117251,note_on,0,0,0,,0,,,72,127
117354,note_off,103,0,0,,0,,,72,127
117361,note_on,7,0,0,,12,,,71,127
117469,note_off,108,0,0,,2,,,50,127
117477,note_off,8,0,0,,12,,,71,127
117479,note_on,2,0,0,,0,,,72,127
117479,note_on,0,0,0,,4,,,52,127
117577,note_on,98,0,0,,0,,,84,127
117581,note_off,4,0,0,,0,,,72,127
117679,note_off,98,0,0,,0,,,84,127
117681,note_on,2,0,0,,5,,,53,127
117681,note_on,0,0,0,,12,,,83,127
117685,note_off,4,0,0,,4,,,52,127
117783,note_off,98,0,0,,12,,,83,127
117785,note_on,2,0,0,,10,,,81,127
117888,note_off,103,0,0,,10,,,81,127
117888,note_off,0,0,0,,5,,,53,127
117890,note_on,2,0,0,,7,,,55,127
117890,note_on,0,0,0,,7,,,79,127
117993,note_off,103,0,0,,7,,,79,127
117995,note_on,2,0,0,,5,,,77,127
118098,note_off,103,0,0,,5,,,77,127
118098,note_off,0,0,0,,7,,,55,127
118100,note_on,2,0,0,,7,,,43,127
118100,note_on,0,0,0,,4,,,76,127
118203,note_off,103,0,0,,4,,,76,127
118205,note_on,2,0,0,,2,,,74,127
118308,note_off,103,0,0,,2,,,74,127
118308,note_off,0,0,0,,7,,,43,127
118336,note_on,28,0,0,,0,,,36,127
118336,note_on,0,0,0,,0,,,72,127
120008,note_off,1672,0,0,,0,,,72,127
120008,note_off,0,0,0,,0,,,36,127
121344,end_of_track,1336,1,0,,,,,,
