tick,type,time,meta,track,program,channel,pitch,tempo,note,velocity
0,copyright,0,1,0,,,,,,
0,program_change,0,0,0,6,0,,,,
0,pitchwheel,0,0,0,,0,0,,,
0,program_change,0,0,0,6,1,,,,
0,pitchwheel,0,0,0,,1,-590,,,
0,program_change,0,0,0,6,2,,,,
0,pitchwheel,0,0,0,,2,-272,,,
0,program_change,0,0,0,6,3,,,,
0,pitchwheel,0,0,0,,3,-353,,,
0,program_change,0,0,0,6,4,,,,
0,pitchwheel,0,0,0,,4,-560,,,
0,program_change,0,0,0,6,5,,,,
0,pitchwheel,0,0,0,,5,-80,,,
0,program_change,0,0,0,6,6,,,,
0,pitchwheel,0,0,0,,6,-625,,,
0,program_change,0,0,0,6,7,,,,
0,pitchwheel,0,0,0,,7,-130,,,
0,program_change,0,0,0,6,8,,,,
0,pitchwheel,0,0,0,,8,-512,,,
0,program_change,0,0,0,6,10,,,,
0,pitchwheel,0,0,0,,10,-464,,,
0,program_change,0,0,0,6,11,,,,
0,pitchwheel,0,0,0,,11,-208,,,
0,program_change,0,0,0,6,12,,,,
0,pitchwheel,0,0,0,,12,-553,,,
0,set_tempo,0,1,0,,,,500000,,
82,note_on,82,0,0,,11,,,70,127
408,note_off,326,0,0,,11,,,70,127
411,note_on,3,0,0,,11,,,70,127
737,note_off,326,0,0,,11,,,70,127
740,note_on,3,0,0,,11,,,70,127
1068,note_off,328,0,0,,11,,,70,127
1069,note_on,1,0,0,,5,,,77,127
1233,note_off,164,0,0,,5,,,77,127
1234,note_on,1,0,0,,3,,,75,127
1398,note_off,164,0,0,,3,,,75,127
1399,note_on,1,0,0,,2,,,74,127
1563,note_off,164,0,0,,2,,,74,127
1564,note_on,1,0,0,,0,,,72,127
1728,note_off,164,0,0,,0,,,72,127
1729,note_on,1,0,0,,11,,,70,127
1893,note_off,164,0,0,,11,,,70,127
1894,note_on,1,0,0,,10,,,69,127
2058,note_off,164,0,0,,10,,,69,127
2059,note_on,1,0,0,,11,,,70,127
2224,note_on,165,0,0,,7,,,79,127
2388,note_off,164,0,0,,11,,,70,127
2389,note_on,1,0,0,,10,,,69,127
2553,note_off,164,0,0,,7,,,79,127
2554,note_on,1,0,0,,5,,,77,127
2718,note_off,164,0,0,,10,,,69,127
2719,note_on,1,0,0,,5,,,65,127
2883,note_off,164,0,0,,5,,,77,127
2884,note_on,1,0,0,,3,,,75,127
3048,note_off,164,0,0,,3,,,75,127
3048,note_off,0,0,0,,5,,,65,127
3049,note_on,1,0,0,,11,,,70,127
3049,note_on,0,0,0,,2,,,74,127
3213,note_off,164,0,0,,2,,,74,127
3214,note_on,1,0,0,,7,,,79,127
3378,note_off,164,0,0,,11,,,70,127
3379,note_on,1,0,0,,10,,,69,127
3543,note_off,164,0,0,,7,,,79,127
3544,note_on,1,0,0,,5,,,77,127
3708,note_off,164,0,0,,10,,,69,127
3709,note_on,1,0,0,,5,,,65,127
3873,note_off,164,0,0,,5,,,77,127
3874,note_on,1,0,0,,3,,,75,127
4038,note_off,164,0,0,,3,,,75,127
4038,note_off,0,0,0,,5,,,65,127
4039,note_on,1,0,0,,11,,,70,127
4039,note_on,0,0,0,,2,,,74,127
4203,note_off,164,0,0,,11,,,70,127
4204,note_on,1,0,0,,5,,,65,127
4368,note_off,164,0,0,,5,,,65,127
4368,note_off,0,0,0,,2,,,74,127
4369,note_on,1,0,0,,7,,,67,127
4369,note_on,0,0,0,,11,,,82,127
4533,note_off,164,0,0,,7,,,67,127
4534,note_on,1,0,0,,2,,,62,127
4698,note_off,164,0,0,,2,,,62,127
4698,note_off,0,0,0,,11,,,82,127
4699,note_on,1,0,0,,3,,,63,127
4699,note_on,0,0,0,,7,,,79,127
4863,note_off,164,0,0,,3,,,63,127
4864,note_on,1,0,0,,11,,,58,127
5028,note_off,164,0,0,,11,,,58,127
5028,note_off,0,0,0,,7,,,79,127
5029,note_on,1,0,0,,0,,,60,127
5029,note_on,0,0,0,,5,,,77,127
5193,note_off,164,0,0,,0,,,60,127
5194,note_on,1,0,0,,7,,,55,127
5303,note_off,109,0,0,,5,,,77,127
5304,note_on,1,0,0,,3,,,75,127
5358,note_off,54,0,0,,7,,,55,127
5359,note_off,1,0,0,,3,,,75,127
5359,note_on,0,0,0,,10,,,57,127
5359,note_on,0,0,0,,5,,,77,127
5414,note_off,55,0,0,,5,,,77,127
5414,note_on,0,0,0,,3,,,75,127
5469,note_off,55,0,0,,3,,,75,127
5469,note_on,0,0,0,,5,,,77,127
5523,note_off,54,0,0,,10,,,57,127
5524,note_off,1,0,0,,5,,,77,127
5524,note_on,0,0,0,,5,,,53,127
5524,note_on,0,0,0,,3,,,75,127
5579,note_off,55,0,0,,3,,,75,127
5579,note_on,0,0,0,,5,,,77,127
5634,note_off,55,0,0,,5,,,77,127
5634,note_on,0,0,0,,3,,,75,127
5688,note_off,54,0,0,,5,,,53,127
5689,note_off,1,0,0,,3,,,75,127
5689,note_on,0,0,0,,7,,,55,127
5689,note_on,0,0,0,,5,,,77,127
5744,note_off,55,0,0,,5,,,77,127
5744,note_on,0,0,0,,3,,,75,127
5799,note_off,55,0,0,,3,,,75,127
5799,note_on,0,0,0,,5,,,77,127
5853,note_off,54,0,0,,7,,,55,127
5854,note_off,1,0,0,,5,,,77,127
5854,note_on,0,0,0,,11,,,58,127
5854,note_on,0,0,0,,3,,,75,127
5909,note_off,55,0,0,,3,,,75,127
5909,note_on,0,0,0,,2,,,74,127
5964,note_off,55,0,0,,2,,,74,127
5964,note_on,0,0,0,,3,,,75,127
6018,note_off,54,0,0,,11,,,58,127
6019,note_off,1,0,0,,3,,,75,127
6019,note_on,0,0,0,,11,,,70,127
6019,note_on,0,0,0,,2,,,74,127
6183,note_off,164,0,0,,11,,,70,127
6184,note_on,1,0,0,,5,,,65,127
6348,note_off,164,0,0,,5,,,65,127
6348,note_off,0,0,0,,2,,,74,127
6349,note_on,1,0,0,,7,,,67,127
6349,note_on,0,0,0,,11,,,82,127
6513,note_off,164,0,0,,7,,,67,127
6514,note_on,1,0,0,,2,,,62,127
6678,note_off,164,0,0,,2,,,62,127
6678,note_off,0,0,0,,11,,,82,127
6679,note_on,1,0,0,,3,,,63,127
6679,note_on,0,0,0,,7,,,79,127
6843,note_off,164,0,0,,3,,,63,127
6844,note_on,1,0,0,,11,,,58,127
7008,note_off,164,0,0,,11,,,58,127
7008,note_off,0,0,0,,7,,,79,127
7009,note_on,1,0,0,,0,,,60,127
7009,note_on,0,0,0,,5,,,77,127
7173,note_off,164,0,0,,0,,,60,127
7174,note_on,1,0,0,,7,,,55,127
7283,note_off,109,0,0,,5,,,77,127
7284,note_on,1,0,0,,3,,,75,127
7338,note_off,54,0,0,,7,,,55,127
7339,note_off,1,0,0,,3,,,75,127
7339,note_on,0,0,0,,10,,,57,127
7339,note_on,0,0,0,,5,,,77,127
7394,note_off,55,0,0,,5,,,77,127
7394,note_on,0,0,0,,3,,,75,127
7449,note_off,55,0,0,,3,,,75,127
7449,note_on,0,0,0,,5,,,77,127
7503,note_off,54,0,0,,10,,,57,127
7504,note_off,1,0,0,,5,,,77,127
7504,note_on,0,0,0,,5,,,53,127
7504,note_on,0,0,0,,3,,,75,127
7559,note_off,55,0,0,,3,,,75,127
7559,note_on,0,0,0,,5,,,77,127
7614,note_off,55,0,0,,5,,,77,127
7614,note_on,0,0,0,,3,,,75,127
7668,note_off,54,0,0,,5,,,53,127
7669,note_off,1,0,0,,3,,,75,127
7669,note_on,0,0,0,,7,,,55,127
7669,note_on,0,0,0,,5,,,77,127
7724,note_off,55,0,0,,5,,,77,127
7724,note_on,0,0,0,,3,,,75,127
7779,note_off,55,0,0,,3,,,75,127
7779,note_on,0,0,0,,5,,,77,127
7833,note_off,54,0,0,,7,,,55,127
7834,note_off,1,0,0,,5,,,77,127
7834,note_on,0,0,0,,10,,,57,127
7834,note_on,0,0,0,,3,,,75,127
7889,note_off,55,0,0,,3,,,75,127
7889,note_on,0,0,0,,2,,,74,127
7944,note_off,55,0,0,,2,,,74,127
7944,note_on,0,0,0,,3,,,75,127
7998,note_off,54,0,0,,10,,,57,127
7999,note_off,1,0,0,,3,,,75,127
7999,note_on,0,0,0,,11,,,58,127
7999,note_on,0,0,0,,2,,,74,127
8164,note_on,165,0,0,,2,,,62,127
8328,note_off,164,0,0,,2,,,62,127
8328,note_off,0,0,0,,11,,,58,127
8329,note_on,1,0,0,,0,,,60,127
8329,note_on,0,0,0,,3,,,63,127
8493,note_off,164,0,0,,2,,,74,127
8494,note_on,1,0,0,,0,,,72,127
8658,note_off,164,0,0,,3,,,63,127
8658,note_off,0,0,0,,0,,,60,127
8659,note_on,1,0,0,,2,,,62,127
8659,note_on,0,0,0,,5,,,65,127
8823,note_off,164,0,0,,0,,,72,127
8824,note_on,1,0,0,,11,,,70,127
8988,note_off,164,0,0,,11,,,70,127
8988,note_off,0,0,0,,5,,,65,127
8988,note_off,0,0,0,,2,,,62,127
8989,note_on,1,0,0,,3,,,63,127
8989,note_on,0,0,0,,7,,,67,127
9153,note_off,164,0,0,,7,,,67,127
9154,note_on,1,0,0,,10,,,69,127
9318,note_off,164,0,0,,10,,,69,127
9319,note_on,1,0,0,,11,,,70,127
9483,note_off,164,0,0,,3,,,63,127
9484,note_on,1,0,0,,3,,,63,127
9484,note_on,0,0,0,,7,,,67,127
9648,note_off,164,0,0,,7,,,67,127
9648,note_off,0,0,0,,3,,,63,127
9649,note_on,1,0,0,,2,,,62,127
9649,note_on,0,0,0,,5,,,65,127
9813,note_off,164,0,0,,5,,,65,127
9813,note_off,0,0,0,,2,,,62,127
9813,note_off,0,0,0,,11,,,70,127
9814,note_on,1,0,0,,3,,,63,127
9814,note_on,0,0,0,,0,,,60,127
9814,note_on,0,0,0,,10,,,69,127
9978,note_off,164,0,0,,10,,,69,127
9978,note_off,0,0,0,,0,,,60,127
9978,note_off,0,0,0,,3,,,63,127
9979,note_on,1,0,0,,11,,,58,127
9979,note_on,0,0,0,,2,,,74,127
10144,note_on,165,0,0,,2,,,62,127
10308,note_off,164,0,0,,2,,,62,127
10308,note_off,0,0,0,,11,,,58,127
10309,note_on,1,0,0,,3,,,63,127
10309,note_on,0,0,0,,0,,,60,127
10473,note_off,164,0,0,,2,,,74,127
10474,note_on,1,0,0,,0,,,72,127
10638,note_off,164,0,0,,0,,,60,127
10638,note_off,0,0,0,,3,,,63,127
10639,note_on,1,0,0,,2,,,62,127
10639,note_on,0,0,0,,5,,,65,127
10803,note_off,164,0,0,,0,,,72,127
10804,note_on,1,0,0,,11,,,70,127
10968,note_off,164,0,0,,11,,,70,127
10968,note_off,0,0,0,,5,,,65,127
10968,note_off,0,0,0,,2,,,62,127
10969,note_on,1,0,0,,3,,,63,127
10969,note_on,0,0,0,,7,,,67,127
11133,note_off,164,0,0,,7,,,67,127
11134,note_on,1,0,0,,10,,,69,127
11298,note_off,164,0,0,,10,,,69,127
11299,note_on,1,0,0,,11,,,70,127
11463,note_off,164,0,0,,3,,,63,127
11464,note_on,1,0,0,,5,,,65,127
11464,note_on,0,0,0,,2,,,62,127
11628,note_off,164,0,0,,2,,,62,127
11628,note_off,0,0,0,,5,,,65,127
11629,note_on,1,0,0,,0,,,60,127
11629,note_on,0,0,0,,3,,,63,127
11793,note_off,164,0,0,,11,,,70,127
11794,note_on,1,0,0,,10,,,69,127
11958,note_off,164,0,0,,10,,,69,127
11958,note_off,0,0,0,,3,,,63,127
11958,note_off,0,0,0,,0,,,60,127
11959,note_on,1,0,0,,11,,,58,127
11959,note_on,0,0,0,,2,,,74,127
12123,note_off,164,0,0,,11,,,58,127
12124,note_on,1,0,0,,11,,,46,127
12124,note_on,0,0,0,,5,,,65,127
12288,note_off,164,0,0,,11,,,46,127
12289,note_on,1,0,0,,5,,,41,127
12453,note_off,164,0,0,,2,,,74,127
12454,note_on,1,0,0,,3,,,75,127
12618,note_off,164,0,0,,3,,,75,127
12618,note_off,0,0,0,,5,,,65,127
12619,note_on,1,0,0,,2,,,74,127
12700,note_off,81,0,0,,2,,,74,127
12701,note_on,1,0,0,,0,,,72,127
12782,note_off,81,0,0,,0,,,72,127
12783,note_on,1,0,0,,11,,,70,127
12804,note_off,21,0,0,,5,,,41,127
12865,note_off,61,0,0,,11,,,70,127
12866,note_on,1,0,0,,10,,,69,127
12947,note_off,81,0,0,,10,,,69,127
12948,note_on,1,0,0,,11,,,58,127
12948,note_on,0,0,0,,2,,,74,127
13112,note_off,164,0,0,,11,,,58,127
13113,note_on,1,0,0,,11,,,46,127
13113,note_on,0,0,0,,5,,,65,127
13277,note_off,164,0,0,,11,,,46,127
13278,note_on,1,0,0,,5,,,41,127
13360,note_off,82,0,0,,5,,,65,127
13441,note_off,81,0,0,,2,,,74,127
13442,note_on,1,0,0,,3,,,75,127
13606,note_off,164,0,0,,3,,,75,127
13607,note_on,1,0,0,,2,,,74,127
13688,note_off,81,0,0,,2,,,74,127
13689,note_on,1,0,0,,0,,,72,127
13770,note_off,81,0,0,,0,,,72,127
13771,note_on,1,0,0,,11,,,70,127
13792,note_off,21,0,0,,5,,,41,127
13853,note_off,61,0,0,,11,,,70,127
13854,note_on,1,0,0,,10,,,69,127
13935,note_off,81,0,0,,10,,,69,127
13936,note_on,1,0,0,,0,,,60,127
13936,note_on,0,0,0,,3,,,75,127
14100,note_off,164,0,0,,0,,,60,127
14101,note_on,1,0,0,,0,,,48,127
14101,note_on,0,0,0,,7,,,67,127
14265,note_off,164,0,0,,0,,,48,127
14266,note_on,1,0,0,,7,,,43,127
14430,note_off,164,0,0,,3,,,75,127
14431,note_on,1,0,0,,5,,,77,127
14595,note_off,164,0,0,,5,,,77,127
14595,note_off,0,0,0,,7,,,67,127
14596,note_on,1,0,0,,3,,,75,127
14677,note_off,81,0,0,,3,,,75,127
14678,note_on,1,0,0,,2,,,74,127
14759,note_off,81,0,0,,2,,,74,127
14760,note_on,1,0,0,,0,,,72,127
14823,note_off,63,0,0,,7,,,43,127
14841,note_off,18,0,0,,0,,,72,127
14842,note_on,1,0,0,,12,,,71,127
14923,note_off,81,0,0,,12,,,71,127
14924,note_on,1,0,0,,0,,,60,127
14924,note_on,0,0,0,,3,,,75,127
15088,note_off,164,0,0,,0,,,60,127
15089,note_on,1,0,0,,0,,,48,127
15089,note_on,0,0,0,,7,,,67,127
15253,note_off,164,0,0,,0,,,48,127
15254,note_on,1,0,0,,7,,,43,127
15336,note_off,82,0,0,,7,,,67,127
15417,note_off,81,0,0,,3,,,75,127
15418,note_on,1,0,0,,5,,,77,127
15582,note_off,164,0,0,,5,,,77,127
15583,note_on,1,0,0,,3,,,75,127
15664,note_off,81,0,0,,3,,,75,127
15665,note_on,1,0,0,,2,,,74,127
15746,note_off,81,0,0,,2,,,74,127
15747,note_on,1,0,0,,0,,,72,127
15810,note_off,63,0,0,,7,,,43,127
15828,note_off,18,0,0,,0,,,72,127
15829,note_on,1,0,0,,12,,,71,127
15910,note_off,81,0,0,,12,,,71,127
15911,note_on,1,0,0,,0,,,60,127
15911,note_on,0,0,0,,0,,,72,127
16075,note_off,164,0,0,,0,,,60,127
16076,note_on,1,0,0,,0,,,48,127
16240,note_off,164,0,0,,0,,,48,127
16241,note_on,1,0,0,,0,,,36,127
16323,note_off,82,0,0,,0,,,72,127
16405,note_on,82,0,0,,7,,,67,127
16569,note_off,164,0,0,,7,,,67,127
16570,note_on,1,0,0,,10,,,69,127
16734,note_off,164,0,0,,10,,,69,127
16735,note_on,1,0,0,,11,,,70,127
16841,note_off,106,0,0,,0,,,36,127
16898,note_off,57,0,0,,11,,,70,127
16899,note_on,1,0,0,,0,,,60,127
16899,note_on,0,0,0,,10,,,69,127
17063,note_off,164,0,0,,10,,,69,127
17063,note_off,0,0,0,,0,,,60,127
17064,note_on,1,0,0,,0,,,48,127
17064,note_on,0,0,0,,12,,,71,127
17228,note_off,164,0,0,,0,,,48,127
17229,note_on,1,0,0,,0,,,36,127
17393,note_off,164,0,0,,12,,,71,127
17394,note_on,1,0,0,,0,,,72,127
17722,note_off,328,0,0,,0,,,72,127
17723,note_on,1,0,0,,11,,,70,127
17804,note_off,81,0,0,,11,,,70,127
17805,note_on,1,0,0,,10,,,69,127
17829,note_off,24,0,0,,0,,,36,127
17886,note_off,57,0,0,,10,,,69,127
17887,note_on,1,0,0,,0,,,60,127
17887,note_on,0,0,0,,7,,,67,127
18051,note_off,164,0,0,,0,,,60,127
18052,note_on,1,0,0,,0,,,48,127
18216,note_off,164,0,0,,0,,,48,127
18217,note_on,1,0,0,,0,,,36,127
18381,note_off,164,0,0,,7,,,67,127
18382,note_on,1,0,0,,7,,,67,127
18546,note_off,164,0,0,,7,,,67,127
18547,note_on,1,0,0,,10,,,69,127
18711,note_off,164,0,0,,10,,,69,127
18712,note_on,1,0,0,,11,,,70,127
18818,note_off,106,0,0,,0,,,36,127
18875,note_off,57,0,0,,11,,,70,127
18876,note_on,1,0,0,,0,,,60,127
18876,note_on,0,0,0,,10,,,69,127
19040,note_off,164,0,0,,10,,,69,127
19040,note_off,0,0,0,,0,,,60,127
19041,note_on,1,0,0,,0,,,48,127
19041,note_on,0,0,0,,12,,,71,127
19205,note_off,164,0,0,,0,,,48,127
19206,note_on,1,0,0,,0,,,36,127
19370,note_off,164,0,0,,12,,,71,127
19371,note_on,1,0,0,,0,,,72,127
19699,note_off,328,0,0,,0,,,72,127
19700,note_on,1,0,0,,11,,,70,127
19781,note_off,81,0,0,,11,,,70,127
19782,note_on,1,0,0,,10,,,69,127
19806,note_off,24,0,0,,0,,,36,127
19863,note_off,57,0,0,,10,,,69,127
19864,note_on,1,0,0,,0,,,48,127
19864,note_on,0,0,0,,0,,,84,127
20028,note_off,164,0,0,,0,,,84,127
20029,note_on,1,0,0,,0,,,72,127
20193,note_off,164,0,0,,0,,,72,127
20194,note_on,1,0,0,,0,,,60,127
20358,note_off,164,0,0,,0,,,48,127
20359,note_on,1,0,0,,5,,,53,127
20359,note_on,0,0,0,,2,,,50,127
20523,note_off,164,0,0,,2,,,50,127
20523,note_off,0,0,0,,5,,,53,127
20524,note_on,1,0,0,,7,,,55,127
20524,note_on,0,0,0,,4,,,52,127
20688,note_off,164,0,0,,4,,,52,127
20688,note_off,0,0,0,,7,,,55,127
20689,note_on,1,0,0,,5,,,53,127
20689,note_on,0,0,0,,10,,,57,127
20853,note_off,164,0,0,,10,,,57,127
20853,note_off,0,0,0,,5,,,53,127
20853,note_off,0,0,0,,0,,,60,127
20854,note_on,1,0,0,,0,,,48,127
20854,note_on,0,0,0,,7,,,55,127
20854,note_on,0,0,0,,0,,,84,127
21018,note_off,164,0,0,,0,,,84,127
21019,note_on,1,0,0,,0,,,72,127
21183,note_off,164,0,0,,0,,,72,127
21184,note_on,1,0,0,,0,,,60,127
21348,note_off,164,0,0,,0,,,48,127
21349,note_on,1,0,0,,2,,,50,127
21513,note_off,164,0,0,,2,,,50,127
21513,note_off,0,0,0,,7,,,55,127
21514,note_on,1,0,0,,4,,,52,127
21514,note_on,0,0,0,,7,,,55,127
21678,note_off,164,0,0,,4,,,52,127
21679,note_on,1,0,0,,0,,,48,127
21843,note_off,164,0,0,,0,,,48,127
21843,note_off,0,0,0,,7,,,55,127
21843,note_off,0,0,0,,0,,,60,127
21844,note_on,1,0,0,,8,,,56,127
21844,note_on,0,0,0,,5,,,53,127
21844,note_on,0,0,0,,0,,,84,127
22008,note_off,164,0,0,,0,,,84,127
22009,note_on,1,0,0,,0,,,72,127
22173,note_off,164,0,0,,0,,,72,127
22174,note_on,1,0,0,,0,,,60,127
22338,note_off,164,0,0,,5,,,53,127
22338,note_off,0,0,0,,8,,,56,127
22339,note_on,1,0,0,,7,,,55,127
22339,note_on,0,0,0,,11,,,58,127
22503,note_off,164,0,0,,11,,,58,127
22503,note_off,0,0,0,,7,,,55,127
22503,note_off,0,0,0,,0,,,60,127
22504,note_on,1,0,0,,8,,,56,127
22504,note_on,0,0,0,,0,,,60,127
22668,note_off,164,0,0,,8,,,56,127
22669,note_on,1,0,0,,7,,,55,127
22669,note_on,0,0,0,,11,,,58,127
22833,note_off,164,0,0,,11,,,58,127
22833,note_off,0,0,0,,7,,,55,127
22833,note_off,0,0,0,,0,,,60,127
22834,note_on,1,0,0,,5,,,53,127
22834,note_on,0,0,0,,0,,,60,127
22834,note_on,0,0,0,,0,,,84,127
22998,note_off,164,0,0,,0,,,84,127
22999,note_on,1,0,0,,0,,,72,127
23163,note_off,164,0,0,,0,,,72,127
23163,note_off,0,0,0,,0,,,60,127
23164,note_on,1,0,0,,0,,,60,127
23328,note_off,164,0,0,,5,,,53,127
23329,note_on,1,0,0,,11,,,58,127
23329,note_on,0,0,0,,7,,,55,127
23493,note_off,164,0,0,,7,,,55,127
23493,note_off,0,0,0,,11,,,58,127
23493,note_off,0,0,0,,0,,,60,127
23494,note_on,1,0,0,,8,,,56,127
23494,note_on,0,0,0,,0,,,60,127
23658,note_off,164,0,0,,8,,,56,127
23659,note_on,1,0,0,,5,,,53,127
23823,note_off,164,0,0,,5,,,53,127
23823,note_off,0,0,0,,0,,,60,127
23824,note_on,1,0,0,,11,,,58,127
23824,note_on,0,0,0,,1,,,61,127
23824,note_on,0,0,0,,1,,,85,127
23988,note_off,164,0,0,,1,,,85,127
23989,note_on,1,0,0,,5,,,77,127
24153,note_off,164,0,0,,5,,,77,127
24154,note_on,1,0,0,,5,,,65,127
24318,note_off,164,0,0,,1,,,61,127
24318,note_off,0,0,0,,11,,,58,127
24319,note_on,1,0,0,,3,,,63,127
24319,note_on,0,0,0,,0,,,60,127
24483,note_off,164,0,0,,0,,,60,127
24483,note_off,0,0,0,,3,,,63,127
24483,note_off,0,0,0,,5,,,65,127
24484,note_on,1,0,0,,1,,,61,127
24484,note_on,0,0,0,,5,,,65,127
24648,note_off,164,0,0,,1,,,61,127
24649,note_on,1,0,0,,3,,,63,127
24649,note_on,0,0,0,,0,,,60,127
24813,note_off,164,0,0,,0,,,60,127
24813,note_off,0,0,0,,3,,,63,127
24813,note_off,0,0,0,,5,,,65,127
24814,note_on,1,0,0,,1,,,61,127
24814,note_on,0,0,0,,11,,,58,127
24814,note_on,0,0,0,,1,,,85,127
24978,note_off,164,0,0,,1,,,85,127
24979,note_on,1,0,0,,5,,,77,127
25143,note_off,164,0,0,,5,,,77,127
25144,note_on,1,0,0,,5,,,65,127
25308,note_off,164,0,0,,11,,,58,127
25308,note_off,0,0,0,,1,,,61,127
25309,note_on,1,0,0,,3,,,63,127
25309,note_on,0,0,0,,0,,,60,127
25473,note_off,164,0,0,,0,,,60,127
25473,note_off,0,0,0,,3,,,63,127
25473,note_off,0,0,0,,5,,,65,127
25474,note_on,1,0,0,,1,,,61,127
25474,note_on,0,0,0,,5,,,65,127
25638,note_off,164,0,0,,1,,,61,127
25639,note_on,1,0,0,,0,,,60,127
25803,note_off,164,0,0,,0,,,60,127
25803,note_off,0,0,0,,5,,,65,127
25804,note_on,1,0,0,,0,,,48,127
25804,note_on,0,0,0,,11,,,82,127
25968,note_off,164,0,0,,11,,,82,127
25969,note_on,1,0,0,,7,,,79,127
26133,note_off,164,0,0,,7,,,79,127
26134,note_on,1,0,0,,0,,,60,127
26298,note_off,164,0,0,,0,,,48,127
26299,note_on,1,0,0,,2,,,50,127
26463,note_off,164,0,0,,2,,,50,127
26464,note_on,1,0,0,,7,,,55,127
26464,note_on,0,0,0,,4,,,52,127
26628,note_off,164,0,0,,4,,,52,127
26629,note_on,1,0,0,,2,,,50,127
26793,note_off,164,0,0,,2,,,50,127
26793,note_off,0,0,0,,7,,,55,127
26793,note_off,0,0,0,,0,,,60,127
26794,note_on,1,0,0,,7,,,55,127
26794,note_on,0,0,0,,0,,,48,127
26794,note_on,0,0,0,,11,,,82,127
26958,note_off,164,0,0,,11,,,82,127
26959,note_on,1,0,0,,7,,,79,127
27123,note_off,164,0,0,,7,,,79,127
27124,note_on,1,0,0,,0,,,60,127
27288,note_off,164,0,0,,0,,,48,127
27288,note_off,0,0,0,,7,,,55,127
27289,note_on,1,0,0,,5,,,53,127
27289,note_on,0,0,0,,2,,,50,127
27453,note_off,164,0,0,,2,,,50,127
27453,note_off,0,0,0,,5,,,53,127
27453,note_off,0,0,0,,0,,,60,127
27454,note_on,1,0,0,,4,,,52,127
27454,note_on,0,0,0,,7,,,55,127
27454,note_on,0,0,0,,11,,,82,127
27618,note_off,164,0,0,,4,,,52,127
27619,note_on,1,0,0,,0,,,48,127
27783,note_off,164,0,0,,0,,,48,127
27783,note_off,0,0,0,,7,,,55,127
27784,note_on,1,0,0,,5,,,53,127
27784,note_on,0,0,0,,8,,,56,127
27948,note_off,164,0,0,,11,,,82,127
27949,note_on,1,0,0,,8,,,80,127
28113,note_off,164,0,0,,8,,,80,127
28113,note_off,0,0,0,,8,,,56,127
28113,note_off,0,0,0,,5,,,53,127
28114,note_on,1,0,0,,11,,,58,127
28114,note_on,0,0,0,,7,,,55,127
28114,note_on,0,0,0,,8,,,80,127
28278,note_off,164,0,0,,8,,,80,127
28279,note_on,1,0,0,,7,,,79,127
28443,note_off,164,0,0,,7,,,79,127
28443,note_off,0,0,0,,7,,,55,127
28443,note_off,0,0,0,,11,,,58,127
28444,note_on,1,0,0,,8,,,56,127
28444,note_on,0,0,0,,0,,,60,127
28444,note_on,0,0,0,,7,,,79,127
28608,note_off,164,0,0,,7,,,79,127
28609,note_on,1,0,0,,5,,,77,127
28773,note_off,164,0,0,,5,,,77,127
28773,note_off,0,0,0,,0,,,60,127
28773,note_off,0,0,0,,8,,,56,127
28774,note_on,1,0,0,,1,,,61,127
28774,note_on,0,0,0,,11,,,58,127
28774,note_on,0,0,0,,5,,,77,127
28938,note_off,164,0,0,,5,,,77,127
28939,note_on,1,0,0,,3,,,75,127
29103,note_off,164,0,0,,3,,,75,127
29103,note_off,0,0,0,,11,,,58,127
29103,note_off,0,0,0,,1,,,61,127
29104,note_on,1,0,0,,3,,,63,127
29104,note_on,0,0,0,,0,,,60,127
29104,note_on,0,0,0,,3,,,75,127
29268,note_off,164,0,0,,3,,,75,127
29269,note_on,1,0,0,,1,,,73,127
29433,note_off,164,0,0,,1,,,73,127
29433,note_off,0,0,0,,0,,,60,127
29433,note_off,0,0,0,,3,,,63,127
29434,note_on,1,0,0,,1,,,61,127
29434,note_on,0,0,0,,5,,,65,127
29434,note_on,0,0,0,,0,,,72,127
29598,note_off,164,0,0,,0,,,72,127
29599,note_on,1,0,0,,12,,,71,127
29763,note_off,164,0,0,,12,,,71,127
29763,note_off,0,0,0,,5,,,65,127
29763,note_off,0,0,0,,1,,,61,127
29764,note_on,1,0,0,,0,,,60,127
29764,note_on,0,0,0,,0,,,72,127
29928,note_off,164,0,0,,0,,,60,127
29929,note_on,1,0,0,,0,,,48,127
30093,note_off,164,0,0,,0,,,48,127
30094,note_on,1,0,0,,0,,,36,127
30258,note_off,164,0,0,,0,,,72,127
30259,note_on,1,0,0,,7,,,67,127
30423,note_off,164,0,0,,7,,,67,127
30424,note_on,1,0,0,,8,,,68,127
30588,note_off,164,0,0,,8,,,68,127
30589,note_on,1,0,0,,11,,,70,127
30753,note_off,164,0,0,,11,,,70,127
30753,note_off,0,0,0,,0,,,36,127
30754,note_on,1,0,0,,0,,,60,127
30754,note_on,0,0,0,,8,,,68,127
30754,note_on,0,0,0,,5,,,65,127
30918,note_off,164,0,0,,8,,,68,127
30918,note_off,0,0,0,,0,,,60,127
30919,note_on,1,0,0,,0,,,48,127
30919,note_on,0,0,0,,12,,,71,127
31083,note_off,164,0,0,,12,,,71,127
31083,note_off,0,0,0,,0,,,48,127
31084,note_on,1,0,0,,0,,,36,127
31084,note_on,0,0,0,,0,,,72,127
31248,note_off,164,0,0,,0,,,72,127
31249,note_on,1,0,0,,4,,,76,127
31413,note_off,164,0,0,,4,,,76,127
31414,note_on,1,0,0,,5,,,77,127
31578,note_off,164,0,0,,5,,,77,127
31578,note_off,0,0,0,,5,,,65,127
31579,note_on,1,0,0,,8,,,68,127
31579,note_on,0,0,0,,5,,,65,127
31743,note_off,164,0,0,,5,,,65,127
31743,note_off,0,0,0,,8,,,68,127
31743,note_off,0,0,0,,0,,,36,127
31744,note_on,1,0,0,,0,,,60,127
31744,note_on,0,0,0,,5,,,65,127
31744,note_on,0,0,0,,7,,,67,127
31908,note_off,164,0,0,,0,,,60,127
31909,note_on,1,0,0,,0,,,48,127
32073,note_off,164,0,0,,0,,,48,127
32073,note_off,0,0,0,,5,,,65,127
32074,note_on,1,0,0,,0,,,36,127
32074,note_on,0,0,0,,4,,,64,127
32238,note_off,164,0,0,,7,,,67,127
32239,note_on,1,0,0,,7,,,67,127
32403,note_off,164,0,0,,7,,,67,127
32404,note_on,1,0,0,,8,,,68,127
32568,note_off,164,0,0,,8,,,68,127
32569,note_on,1,0,0,,11,,,70,127
32733,note_off,164,0,0,,11,,,70,127
32733,note_off,0,0,0,,4,,,64,127
32733,note_off,0,0,0,,0,,,36,127
32734,note_on,1,0,0,,0,,,60,127
32734,note_on,0,0,0,,8,,,68,127
32734,note_on,0,0,0,,5,,,65,127
32898,note_off,164,0,0,,8,,,68,127
32898,note_off,0,0,0,,0,,,60,127
32899,note_on,1,0,0,,0,,,48,127
32899,note_on,0,0,0,,12,,,71,127
33063,note_off,164,0,0,,12,,,71,127
33063,note_off,0,0,0,,0,,,48,127
33064,note_on,1,0,0,,0,,,36,127
33064,note_on,0,0,0,,0,,,72,127
33228,note_off,164,0,0,,0,,,72,127
33229,note_on,1,0,0,,4,,,76,127
33393,note_off,164,0,0,,4,,,76,127
33394,note_on,1,0,0,,5,,,77,127
33558,note_off,164,0,0,,5,,,65,127
33559,note_on,1,0,0,,8,,,68,127
33665,note_off,106,0,0,,0,,,36,127
33722,note_off,57,0,0,,8,,,68,127
33723,note_on,1,0,0,,0,,,48,127
33723,note_on,0,0,0,,7,,,67,127
33887,note_off,164,0,0,,5,,,77,127
33888,note_on,1,0,0,,5,,,77,127
34052,note_off,164,0,0,,5,,,77,127
34052,note_off,0,0,0,,7,,,67,127
34053,note_on,1,0,0,,4,,,76,127
34217,note_off,164,0,0,,4,,,76,127
34217,note_off,0,0,0,,0,,,48,127
34218,note_on,1,0,0,,2,,,50,127
34218,note_on,0,0,0,,5,,,77,127
34382,note_off,164,0,0,,5,,,77,127
34382,note_off,0,0,0,,2,,,50,127
34383,note_on,1,0,0,,4,,,52,127
34383,note_on,0,0,0,,7,,,79,127
34548,note_on,165,0,0,,11,,,70,127
34712,note_off,164,0,0,,11,,,70,127
34712,note_off,0,0,0,,4,,,52,127
34713,note_on,1,0,0,,5,,,53,127
34713,note_on,0,0,0,,10,,,69,127
34877,note_off,164,0,0,,10,,,69,127
34877,note_off,0,0,0,,7,,,79,127
34878,note_on,1,0,0,,7,,,79,127
35042,note_off,164,0,0,,7,,,79,127
35042,note_off,0,0,0,,5,,,53,127
35043,note_on,1,0,0,,7,,,55,127
35043,note_on,0,0,0,,5,,,77,127
35207,note_off,164,0,0,,5,,,77,127
35208,note_on,1,0,0,,4,,,76,127
35372,note_off,164,0,0,,4,,,76,127
35372,note_off,0,0,0,,7,,,55,127
35373,note_on,1,0,0,,10,,,57,127
35373,note_on,0,0,0,,2,,,74,127
35537,note_off,164,0,0,,2,,,74,127
35538,note_on,1,0,0,,0,,,72,127
35702,note_off,164,0,0,,0,,,72,127
35702,note_off,0,0,0,,10,,,57,127
35703,note_on,1,0,0,,11,,,58,127
35703,note_on,0,0,0,,2,,,74,127
35812,note_off,109,0,0,,2,,,74,127
35813,note_on,1,0,0,,0,,,72,127
35922,note_off,109,0,0,,0,,,72,127
35923,note_on,1,0,0,,11,,,70,127
36032,note_off,109,0,0,,11,,,70,127
36032,note_off,0,0,0,,11,,,58,127
36033,note_on,1,0,0,,0,,,60,127
36033,note_on,0,0,0,,10,,,69,127
36033,note_on,0,0,0,,5,,,65,127
36361,note_off,328,0,0,,5,,,65,127
36361,note_off,0,0,0,,10,,,69,127
36362,note_on,1,0,0,,0,,,48,127
36362,note_on,0,0,0,,7,,,67,127
36362,note_on,0,0,0,,4,,,64,127
36690,note_off,328,0,0,,4,,,64,127
36690,note_off,0,0,0,,7,,,67,127
36690,note_off,0,0,0,,0,,,48,127
36690,note_off,0,0,0,,0,,,60,127
36691,note_on,1,0,0,,5,,,41,127
36691,note_on,0,0,0,,5,,,77,127
36855,note_off,164,0,0,,5,,,77,127
36856,note_on,1,0,0,,5,,,65,127
37020,note_off,164,0,0,,5,,,65,127
37021,note_on,1,0,0,,5,,,53,127
37185,note_off,164,0,0,,5,,,41,127
37186,note_on,1,0,0,,7,,,43,127
37350,note_off,164,0,0,,7,,,43,127
37351,note_on,1,0,0,,10,,,45,127
37515,note_off,164,0,0,,10,,,45,127
37516,note_on,1,0,0,,7,,,43,127
37680,note_off,164,0,0,,7,,,43,127
37680,note_off,0,0,0,,5,,,53,127
37681,note_on,1,0,0,,5,,,41,127
37681,note_on,0,0,0,,5,,,77,127
37845,note_off,164,0,0,,5,,,77,127
37846,note_on,1,0,0,,5,,,65,127
38010,note_off,164,0,0,,5,,,65,127
38011,note_on,1,0,0,,5,,,53,127
38175,note_off,164,0,0,,5,,,41,127
38176,note_on,1,0,0,,7,,,43,127
38340,note_off,164,0,0,,7,,,43,127
38341,note_on,1,0,0,,10,,,45,127
38505,note_off,164,0,0,,10,,,45,127
38506,note_on,1,0,0,,5,,,41,127
38670,note_off,164,0,0,,5,,,41,127
38670,note_off,0,0,0,,5,,,53,127
38671,note_on,1,0,0,,11,,,46,127
38671,note_on,0,0,0,,2,,,86,127
38835,note_off,164,0,0,,2,,,86,127
38836,note_on,1,0,0,,11,,,82,127
39000,note_off,164,0,0,,11,,,82,127
39001,note_on,1,0,0,,11,,,58,127
39165,note_off,164,0,0,,11,,,46,127
39166,note_on,1,0,0,,0,,,48,127
39330,note_off,164,0,0,,0,,,48,127
39331,note_on,1,0,0,,2,,,50,127
39495,note_off,164,0,0,,2,,,50,127
39496,note_on,1,0,0,,0,,,48,127
39660,note_off,164,0,0,,0,,,48,127
39660,note_off,0,0,0,,11,,,58,127
39661,note_on,1,0,0,,11,,,46,127
39661,note_on,0,0,0,,2,,,86,127
39825,note_off,164,0,0,,2,,,86,127
39826,note_on,1,0,0,,11,,,82,127
39990,note_off,164,0,0,,11,,,82,127
39991,note_on,1,0,0,,11,,,58,127
40155,note_off,164,0,0,,11,,,46,127
40156,note_on,1,0,0,,0,,,48,127
40320,note_off,164,0,0,,0,,,48,127
40321,note_on,1,0,0,,2,,,50,127
40485,note_off,164,0,0,,2,,,50,127
40486,note_on,1,0,0,,11,,,46,127
40650,note_off,164,0,0,,11,,,46,127
40650,note_off,0,0,0,,11,,,58,127
40651,note_on,1,0,0,,0,,,48,127
40651,note_on,0,0,0,,11,,,82,127
40815,note_off,164,0,0,,11,,,82,127
40816,note_on,1,0,0,,7,,,79,127
40980,note_off,164,0,0,,7,,,79,127
40981,note_on,1,0,0,,0,,,60,127
41145,note_off,164,0,0,,0,,,48,127
41146,note_on,1,0,0,,2,,,50,127
41310,note_off,164,0,0,,2,,,50,127
41311,note_on,1,0,0,,4,,,52,127
41475,note_off,164,0,0,,4,,,52,127
41475,note_off,0,0,0,,0,,,60,127
41476,note_on,1,0,0,,0,,,48,127
41476,note_on,0,0,0,,11,,,82,127
41640,note_off,164,0,0,,11,,,82,127
41640,note_off,0,0,0,,0,,,48,127
41641,note_on,1,0,0,,10,,,57,127
41641,note_on,0,0,0,,5,,,53,127
41641,note_on,0,0,0,,10,,,81,127
41805,note_off,164,0,0,,10,,,81,127
41806,note_on,1,0,0,,2,,,86,127
41970,note_off,164,0,0,,2,,,86,127
41970,note_off,0,0,0,,5,,,53,127
41970,note_off,0,0,0,,10,,,57,127
41971,note_on,1,0,0,,7,,,55,127
41971,note_on,0,0,0,,11,,,58,127
41971,note_on,0,0,0,,0,,,84,127
42135,note_off,164,0,0,,0,,,84,127
42136,note_on,1,0,0,,11,,,82,127
42300,note_off,164,0,0,,11,,,82,127
42300,note_off,0,0,0,,11,,,58,127
42300,note_off,0,0,0,,7,,,55,127
42301,note_on,1,0,0,,10,,,57,127
42301,note_on,0,0,0,,0,,,60,127
42301,note_on,0,0,0,,10,,,81,127
42465,note_off,164,0,0,,10,,,81,127
42466,note_on,1,0,0,,7,,,79,127
42630,note_off,164,0,0,,7,,,79,127
42630,note_off,0,0,0,,0,,,60,127
42630,note_off,0,0,0,,10,,,57,127
42631,note_on,1,0,0,,11,,,58,127
42631,note_on,0,0,0,,5,,,77,127
42740,note_off,109,0,0,,5,,,77,127
42741,note_on,1,0,0,,4,,,76,127
42850,note_off,109,0,0,,4,,,76,127
42851,note_on,1,0,0,,2,,,74,127
42960,note_off,109,0,0,,2,,,74,127
42960,note_off,0,0,0,,11,,,58,127
42961,note_on,1,0,0,,0,,,60,127
42961,note_on,0,0,0,,0,,,72,127
43125,note_off,164,0,0,,0,,,72,127
43126,note_on,1,0,0,,11,,,70,127
43290,note_off,164,0,0,,11,,,70,127
43291,note_on,1,0,0,,0,,,48,127
43291,note_on,0,0,0,,10,,,69,127
43455,note_off,164,0,0,,10,,,69,127
43456,note_on,1,0,0,,7,,,67,127
43620,note_off,164,0,0,,7,,,67,127
43620,note_off,0,0,0,,0,,,48,127
43620,note_off,0,0,0,,0,,,60,127
43621,note_on,1,0,0,,5,,,53,127
43786,note_on,165,0,0,,0,,,84,127
43950,note_off,164,0,0,,0,,,84,127
43951,note_on,1,0,0,,10,,,81,127
44115,note_off,164,0,0,,10,,,81,127
44115,note_off,0,0,0,,5,,,53,127
44116,note_on,1,0,0,,10,,,57,127
44116,note_on,0,0,0,,5,,,77,127
44280,note_off,164,0,0,,5,,,77,127
44280,note_off,0,0,0,,10,,,57,127
44281,note_on,1,0,0,,0,,,60,127
44281,note_on,0,0,0,,10,,,81,127
44335,note_off,54,0,0,,10,,,81,127
44336,note_on,1,0,0,,7,,,79,127
44390,note_off,54,0,0,,7,,,79,127
44391,note_on,1,0,0,,10,,,81,127
44445,note_off,54,0,0,,10,,,81,127
44446,note_on,1,0,0,,0,,,48,127
44446,note_on,0,0,0,,7,,,79,127
44500,note_off,54,0,0,,7,,,79,127
44501,note_on,1,0,0,,5,,,77,127
44555,note_off,54,0,0,,5,,,77,127
44556,note_on,1,0,0,,7,,,79,127
44610,note_off,54,0,0,,7,,,79,127
44610,note_off,0,0,0,,0,,,48,127
44610,note_off,0,0,0,,0,,,60,127
44611,note_on,1,0,0,,5,,,53,127
44611,note_on,0,0,0,,5,,,77,127
44775,note_off,164,0,0,,5,,,77,127
44776,note_on,1,0,0,,0,,,72,127
44940,note_off,164,0,0,,0,,,72,127
44941,note_on,1,0,0,,10,,,69,127
45105,note_off,164,0,0,,10,,,69,127
45105,note_off,0,0,0,,5,,,53,127
45106,note_on,1,0,0,,10,,,57,127
45106,note_on,0,0,0,,5,,,65,127
45270,note_off,164,0,0,,5,,,65,127
45270,note_off,0,0,0,,10,,,57,127
45271,note_on,1,0,0,,0,,,60,127
45271,note_on,0,0,0,,10,,,69,127
45325,note_off,54,0,0,,10,,,69,127
45326,note_on,1,0,0,,7,,,67,127
45380,note_off,54,0,0,,7,,,67,127
45381,note_on,1,0,0,,10,,,69,127
45435,note_off,54,0,0,,10,,,69,127
45436,note_on,1,0,0,,0,,,48,127
45436,note_on,0,0,0,,7,,,67,127
45490,note_off,54,0,0,,7,,,67,127
45491,note_on,1,0,0,,5,,,65,127
45545,note_off,54,0,0,,5,,,65,127
45546,note_on,1,0,0,,7,,,67,127
45600,note_off,54,0,0,,7,,,67,127
45600,note_off,0,0,0,,0,,,48,127
45600,note_off,0,0,0,,0,,,60,127
45601,note_on,1,0,0,,5,,,53,127
45601,note_on,0,0,0,,5,,,65,127
45765,note_off,164,0,0,,5,,,65,127
45766,note_on,1,0,0,,0,,,60,127
45930,note_off,164,0,0,,0,,,60,127
45931,note_on,1,0,0,,10,,,57,127
46095,note_off,164,0,0,,10,,,57,127
46095,note_off,0,0,0,,5,,,53,127
46096,note_on,1,0,0,,10,,,45,127
46096,note_on,0,0,0,,5,,,53,127
46260,note_off,164,0,0,,5,,,53,127
46260,note_off,0,0,0,,10,,,45,127
46261,note_on,1,0,0,,0,,,48,127
46261,note_on,0,0,0,,10,,,57,127
46315,note_off,54,0,0,,10,,,57,127
46316,note_on,1,0,0,,7,,,55,127
46370,note_off,54,0,0,,7,,,55,127
46371,note_on,1,0,0,,10,,,57,127
46425,note_off,54,0,0,,10,,,57,127
46426,note_on,1,0,0,,0,,,36,127
46426,note_on,0,0,0,,7,,,55,127
46480,note_off,54,0,0,,7,,,55,127
46481,note_on,1,0,0,,5,,,53,127
46535,note_off,54,0,0,,5,,,53,127
46536,note_on,1,0,0,,7,,,55,127
46590,note_off,54,0,0,,7,,,55,127
46590,note_off,0,0,0,,0,,,36,127
46590,note_off,0,0,0,,0,,,48,127
46591,note_on,1,0,0,,5,,,41,127
46591,note_on,0,0,0,,5,,,53,127
47414,note_off,823,0,0,,5,,,53,127
47578,note_off,164,0,0,,5,,,41,127
47579,note_on,1,0,0,,5,,,53,127
47905,note_off,326,0,0,,5,,,53,127
47908,note_on,3,0,0,,5,,,53,127
48234,note_off,326,0,0,,5,,,53,127
48237,note_on,3,0,0,,5,,,53,127
48565,note_off,328,0,0,,5,,,53,127
48566,note_on,1,0,0,,3,,,63,127
48566,note_on,0,0,0,,5,,,65,127
48730,note_off,164,0,0,,3,,,63,127
48731,note_on,1,0,0,,2,,,62,127
48892,note_off,161,0,0,,5,,,65,127
48895,note_off,3,0,0,,2,,,62,127
48896,note_on,1,0,0,,0,,,60,127
48896,note_on,0,0,0,,5,,,65,127
49060,note_off,164,0,0,,0,,,60,127
49061,note_on,1,0,0,,11,,,58,127
49222,note_off,161,0,0,,5,,,65,127
49225,note_off,3,0,0,,11,,,58,127
49226,note_on,1,0,0,,10,,,57,127
49226,note_on,0,0,0,,5,,,65,127
49390,note_off,164,0,0,,10,,,57,127
49391,note_on,1,0,0,,7,,,55,127
49555,note_off,164,0,0,,7,,,55,127
49555,note_off,0,0,0,,5,,,65,127
49556,note_on,1,0,0,,5,,,53,127
49556,note_on,0,0,0,,3,,,75,127
49720,note_off,164,0,0,,3,,,75,127
49721,note_on,1,0,0,,2,,,74,127
49882,note_off,161,0,0,,5,,,53,127
49885,note_off,3,0,0,,2,,,74,127
49886,note_on,1,0,0,,5,,,53,127
49886,note_on,0,0,0,,0,,,72,127
50050,note_off,164,0,0,,0,,,72,127
50051,note_on,1,0,0,,11,,,70,127
50212,note_off,161,0,0,,5,,,53,127
50215,note_off,3,0,0,,11,,,70,127
50216,note_on,1,0,0,,5,,,53,127
50216,note_on,0,0,0,,10,,,69,127
50380,note_off,164,0,0,,10,,,69,127
50381,note_on,1,0,0,,7,,,67,127
50545,note_off,164,0,0,,7,,,67,127
50545,note_off,0,0,0,,5,,,53,127
50546,note_on,1,0,0,,3,,,63,127
50546,note_on,0,0,0,,5,,,65,127
50710,note_off,164,0,0,,3,,,63,127
50711,note_on,1,0,0,,2,,,62,127
50872,note_off,161,0,0,,5,,,65,127
50875,note_off,3,0,0,,2,,,62,127
50876,note_on,1,0,0,,0,,,60,127
50876,note_on,0,0,0,,5,,,65,127
51040,note_off,164,0,0,,0,,,60,127
51041,note_on,1,0,0,,11,,,58,127
51202,note_off,161,0,0,,5,,,65,127
51205,note_off,3,0,0,,11,,,58,127
51206,note_on,1,0,0,,10,,,57,127
51206,note_on,0,0,0,,5,,,65,127
51370,note_off,164,0,0,,10,,,57,127
51371,note_on,1,0,0,,7,,,55,127
51535,note_off,164,0,0,,7,,,55,127
51535,note_off,0,0,0,,5,,,65,127
51536,note_on,1,0,0,,6,,,54,127
51536,note_on,0,0,0,,3,,,75,127
51700,note_off,164,0,0,,3,,,75,127
51701,note_on,1,0,0,,2,,,74,127
51862,note_off,161,0,0,,6,,,54,127
51865,note_off,3,0,0,,2,,,74,127
51866,note_on,1,0,0,,6,,,54,127
51866,note_on,0,0,0,,0,,,72,127
52030,note_off,164,0,0,,0,,,72,127
52031,note_on,1,0,0,,11,,,70,127
52192,note_off,161,0,0,,6,,,54,127
52195,note_off,3,0,0,,11,,,70,127
52196,note_on,1,0,0,,6,,,54,127
52196,note_on,0,0,0,,10,,,69,127
52360,note_off,164,0,0,,10,,,69,127
52361,note_on,1,0,0,,7,,,67,127
52525,note_off,164,0,0,,7,,,67,127
52525,note_off,0,0,0,,6,,,54,127
52526,note_on,1,0,0,,2,,,62,127
52526,note_on,0,0,0,,6,,,66,127
52690,note_off,164,0,0,,2,,,62,127
52691,note_on,1,0,0,,3,,,63,127
52852,note_off,161,0,0,,6,,,66,127
52855,note_off,3,0,0,,3,,,63,127
52856,note_on,1,0,0,,2,,,62,127
52856,note_on,0,0,0,,6,,,66,127
53020,note_off,164,0,0,,2,,,62,127
53021,note_on,1,0,0,,0,,,60,127
53182,note_off,161,0,0,,6,,,66,127
53185,note_off,3,0,0,,0,,,60,127
53186,note_on,1,0,0,,11,,,58,127
53186,note_on,0,0,0,,6,,,66,127
53186,note_on,0,0,0,,2,,,74,127
53350,note_off,164,0,0,,11,,,58,127
53351,note_on,1,0,0,,10,,,57,127
53515,note_off,164,0,0,,10,,,57,127
53515,note_off,0,0,0,,6,,,66,127
53516,note_on,1,0,0,,11,,,58,127
53516,note_on,0,0,0,,7,,,67,127
53680,note_off,164,0,0,,11,,,58,127
53680,note_off,0,0,0,,2,,,74,127
53681,note_on,1,0,0,,0,,,60,127
53681,note_on,0,0,0,,3,,,75,127
53845,note_off,164,0,0,,3,,,75,127
53845,note_off,0,0,0,,0,,,60,127
53845,note_off,0,0,0,,7,,,67,127
53846,note_on,1,0,0,,11,,,58,127
53846,note_on,0,0,0,,2,,,74,127
54010,note_off,164,0,0,,2,,,74,127
54010,note_off,0,0,0,,11,,,58,127
54011,note_on,1,0,0,,10,,,57,127
54011,note_on,0,0,0,,0,,,72,127
54175,note_off,164,0,0,,0,,,72,127
54175,note_off,0,0,0,,10,,,57,127
54176,note_on,1,0,0,,7,,,55,127
54176,note_on,0,0,0,,11,,,70,127
54176,note_on,0,0,0,,7,,,79,127
54340,note_off,164,0,0,,11,,,70,127
54340,note_off,0,0,0,,7,,,55,127
54341,note_on,1,0,0,,6,,,54,127
54341,note_on,0,0,0,,10,,,69,127
54505,note_off,164,0,0,,10,,,69,127
54505,note_off,0,0,0,,6,,,54,127
54506,note_on,1,0,0,,7,,,55,127
54506,note_on,0,0,0,,11,,,70,127
54670,note_off,164,0,0,,7,,,79,127
54671,note_on,1,0,0,,10,,,81,127
54835,note_off,164,0,0,,10,,,81,127
54835,note_off,0,0,0,,7,,,55,127
54836,note_on,1,0,0,,10,,,57,127
54836,note_on,0,0,0,,7,,,79,127
55000,note_off,164,0,0,,7,,,79,127
55001,note_on,1,0,0,,5,,,77,127
55165,note_off,164,0,0,,5,,,77,127
55165,note_off,0,0,0,,10,,,57,127
55165,note_off,0,0,0,,11,,,70,127
55166,note_on,1,0,0,,11,,,58,127
55166,note_on,0,0,0,,3,,,75,127
55330,note_off,164,0,0,,3,,,75,127
55331,note_on,1,0,0,,2,,,74,127
55495,note_off,164,0,0,,2,,,74,127
55495,note_off,0,0,0,,11,,,58,127
55496,note_on,1,0,0,,0,,,60,127
55496,note_on,0,0,0,,3,,,75,127
55660,note_off,164,0,0,,3,,,75,127
55661,note_on,1,0,0,,2,,,74,127
55825,note_off,164,0,0,,2,,,74,127
55825,note_off,0,0,0,,0,,,60,127
55826,note_on,1,0,0,,2,,,62,127
55826,note_on,0,0,0,,0,,,72,127
55990,note_off,164,0,0,,0,,,72,127
55991,note_on,1,0,0,,11,,,70,127
56155,note_off,164,0,0,,11,,,70,127
56155,note_off,0,0,0,,2,,,62,127
56156,note_on,1,0,0,,3,,,63,127
56156,note_on,0,0,0,,10,,,69,127
56320,note_off,164,0,0,,10,,,69,127
56321,note_on,1,0,0,,7,,,67,127
56485,note_off,164,0,0,,7,,,67,127
56485,note_off,0,0,0,,3,,,63,127
56486,note_on,1,0,0,,2,,,62,127
56486,note_on,0,0,0,,6,,,66,127
56650,note_off,164,0,0,,2,,,62,127
56651,note_on,1,0,0,,2,,,50,127
56815,note_off,164,0,0,,2,,,50,127
56816,note_on,1,0,0,,2,,,38,127
56898,note_off,82,0,0,,6,,,66,127
56980,note_on,82,0,0,,10,,,69,127
57144,note_off,164,0,0,,10,,,69,127
57145,note_on,1,0,0,,11,,,70,127
57309,note_off,164,0,0,,11,,,70,127
57310,note_on,1,0,0,,10,,,69,127
57416,note_off,106,0,0,,2,,,38,127
57473,note_off,57,0,0,,10,,,69,127
57474,note_on,1,0,0,,2,,,62,127
57474,note_on,0,0,0,,11,,,70,127
57474,note_on,0,0,0,,7,,,67,127
57638,note_off,164,0,0,,2,,,62,127
57639,note_on,1,0,0,,2,,,50,127
57803,note_off,164,0,0,,2,,,50,127
57804,note_on,1,0,0,,2,,,38,127
57968,note_off,164,0,0,,11,,,70,127
57969,note_on,1,0,0,,1,,,73,127
58133,note_off,164,0,0,,1,,,73,127
58134,note_on,1,0,0,,2,,,74,127
58298,note_off,164,0,0,,2,,,74,127
58299,note_on,1,0,0,,4,,,76,127
58405,note_off,106,0,0,,2,,,38,127
58462,note_off,57,0,0,,4,,,76,127
58462,note_off,0,0,0,,7,,,67,127
58463,note_on,1,0,0,,2,,,62,127
58463,note_on,0,0,0,,10,,,69,127
58463,note_on,0,0,0,,7,,,67,127
58627,note_off,164,0,0,,2,,,62,127
58628,note_on,1,0,0,,2,,,50,127
58792,note_off,164,0,0,,2,,,50,127
58792,note_off,0,0,0,,7,,,67,127
58793,note_on,1,0,0,,2,,,38,127
58793,note_on,0,0,0,,6,,,66,127
58957,note_off,164,0,0,,10,,,69,127
58958,note_on,1,0,0,,0,,,72,127
59122,note_off,164,0,0,,0,,,72,127
59123,note_on,1,0,0,,11,,,70,127
59287,note_off,164,0,0,,11,,,70,127
59288,note_on,1,0,0,,10,,,69,127
59394,note_off,106,0,0,,2,,,38,127
59451,note_off,57,0,0,,10,,,69,127
59451,note_off,0,0,0,,6,,,66,127
59452,note_on,1,0,0,,2,,,62,127
59452,note_on,0,0,0,,11,,,70,127
59452,note_on,0,0,0,,7,,,67,127
59616,note_off,164,0,0,,2,,,62,127
59617,note_on,1,0,0,,2,,,50,127
59781,note_off,164,0,0,,2,,,50,127
59782,note_on,1,0,0,,2,,,38,127
59946,note_off,164,0,0,,11,,,70,127
59947,note_on,1,0,0,,1,,,73,127
60111,note_off,164,0,0,,1,,,73,127
60112,note_on,1,0,0,,2,,,74,127
60276,note_off,164,0,0,,2,,,74,127
60276,note_off,0,0,0,,7,,,67,127
60277,note_on,1,0,0,,4,,,76,127
60409,note_off,132,0,0,,2,,,38,127
60434,note_off,25,0,0,,4,,,76,127
60442,note_on,8,0,0,,2,,,50,127
60442,note_on,0,0,0,,2,,,86,127
60606,note_off,164,0,0,,2,,,86,127
60607,note_on,1,0,0,,2,,,74,127
60771,note_off,164,0,0,,2,,,74,127
60772,note_on,1,0,0,,2,,,62,127
60936,note_off,164,0,0,,2,,,50,127
60937,note_on,1,0,0,,4,,,52,127
61101,note_off,164,0,0,,4,,,52,127
61102,note_on,1,0,0,,6,,,54,127
61266,note_off,164,0,0,,6,,,54,127
61267,note_on,1,0,0,,4,,,52,127
61431,note_off,164,0,0,,4,,,52,127
61431,note_off,0,0,0,,2,,,62,127
61432,note_on,1,0,0,,2,,,50,127
61432,note_on,0,0,0,,2,,,86,127
61596,note_off,164,0,0,,2,,,86,127
61597,note_on,1,0,0,,2,,,74,127
61761,note_off,164,0,0,,2,,,74,127
61762,note_on,1,0,0,,2,,,62,127
61926,note_off,164,0,0,,2,,,50,127
61927,note_on,1,0,0,,4,,,52,127
62091,note_off,164,0,0,,4,,,52,127
62092,note_on,1,0,0,,6,,,54,127
62256,note_off,164,0,0,,6,,,54,127
62257,note_on,1,0,0,,2,,,50,127
62421,note_off,164,0,0,,2,,,50,127
62421,note_off,0,0,0,,2,,,62,127
62422,note_on,1,0,0,,7,,,55,127
62422,note_on,0,0,0,,2,,,86,127
62586,note_off,164,0,0,,2,,,86,127
62587,note_on,1,0,0,,2,,,74,127
62751,note_off,164,0,0,,2,,,74,127
62752,note_on,1,0,0,,2,,,62,127
62916,note_off,164,0,0,,7,,,55,127
62917,note_on,1,0,0,,10,,,57,127
63081,note_off,164,0,0,,10,,,57,127
63082,note_on,1,0,0,,12,,,59,127
63246,note_off,164,0,0,,12,,,59,127
63247,note_on,1,0,0,,10,,,57,127
63411,note_off,164,0,0,,10,,,57,127
63411,note_off,0,0,0,,2,,,62,127
63412,note_on,1,0,0,,7,,,55,127
63412,note_on,0,0,0,,2,,,86,127
63576,note_off,164,0,0,,2,,,86,127
63577,note_on,1,0,0,,2,,,74,127
63741,note_off,164,0,0,,2,,,74,127
63742,note_on,1,0,0,,2,,,62,127
63906,note_off,164,0,0,,7,,,55,127
63907,note_on,1,0,0,,10,,,57,127
64071,note_off,164,0,0,,10,,,57,127
64072,note_on,1,0,0,,12,,,59,127
64236,note_off,164,0,0,,12,,,59,127
64237,note_on,1,0,0,,7,,,55,127
64319,note_off,82,0,0,,2,,,62,127
64400,note_off,81,0,0,,7,,,55,127
64401,note_on,1,0,0,,0,,,48,127
64401,note_on,0,0,0,,0,,,84,127
64565,note_off,164,0,0,,0,,,84,127
64566,note_on,1,0,0,,0,,,72,127
64730,note_off,164,0,0,,0,,,72,127
64731,note_on,1,0,0,,0,,,60,127
64895,note_off,164,0,0,,0,,,48,127
64896,note_on,1,0,0,,2,,,50,127
65060,note_off,164,0,0,,2,,,50,127
65061,note_on,1,0,0,,3,,,51,127
65225,note_off,164,0,0,,3,,,51,127
65226,note_on,1,0,0,,2,,,50,127
65390,note_off,164,0,0,,2,,,50,127
65390,note_off,0,0,0,,0,,,60,127
65391,note_on,1,0,0,,0,,,48,127
65391,note_on,0,0,0,,0,,,84,127
65555,note_off,164,0,0,,0,,,84,127
65556,note_on,1,0,0,,0,,,72,127
65720,note_off,164,0,0,,0,,,72,127
65721,note_on,1,0,0,,0,,,60,127
65885,note_off,164,0,0,,0,,,48,127
65886,note_on,1,0,0,,11,,,58,127
66050,note_off,164,0,0,,11,,,58,127
66051,note_on,1,0,0,,8,,,56,127
66215,note_off,164,0,0,,8,,,56,127
66216,note_on,1,0,0,,7,,,55,127
66380,note_off,164,0,0,,7,,,55,127
66380,note_off,0,0,0,,0,,,60,127
66381,note_on,1,0,0,,0,,,60,127
66381,note_on,0,0,0,,8,,,56,127
66381,note_on,0,0,0,,0,,,84,127
66545,note_off,164,0,0,,0,,,84,127
66546,note_on,1,0,0,,8,,,80,127
66710,note_off,164,0,0,,8,,,80,127
66711,note_on,1,0,0,,8,,,68,127
66875,note_off,164,0,0,,8,,,56,127
66875,note_off,0,0,0,,0,,,60,127
66876,note_on,1,0,0,,11,,,58,127
67040,note_off,164,0,0,,11,,,58,127
67041,note_on,1,0,0,,0,,,60,127
67205,note_off,164,0,0,,0,,,60,127
67205,note_off,0,0,0,,8,,,68,127
67206,note_on,1,0,0,,11,,,58,127
67206,note_on,0,0,0,,0,,,84,127
67370,note_off,164,0,0,,0,,,84,127
67370,note_off,0,0,0,,11,,,58,127
67371,note_on,1,0,0,,1,,,61,127
67371,note_on,0,0,0,,11,,,82,127
67535,note_off,164,0,0,,11,,,82,127
67536,note_on,1,0,0,,8,,,80,127
67700,note_off,164,0,0,,8,,,80,127
67700,note_off,0,0,0,,1,,,61,127
67701,note_on,1,0,0,,3,,,63,127
67701,note_on,0,0,0,,7,,,79,127
67865,note_off,164,0,0,,7,,,79,127
67866,note_on,1,0,0,,5,,,77,127
68030,note_off,164,0,0,,5,,,77,127
68031,note_on,1,0,0,,3,,,51,127
68031,note_on,0,0,0,,3,,,75,127
68195,note_off,164,0,0,,3,,,75,127
68196,note_on,1,0,0,,1,,,73,127
68360,note_off,164,0,0,,1,,,73,127
68360,note_off,0,0,0,,3,,,51,127
68360,note_off,0,0,0,,3,,,63,127
68361,note_on,1,0,0,,8,,,68,127
68361,note_on,0,0,0,,8,,,80,127
68361,note_on,0,0,0,,0,,,72,127
68525,note_off,164,0,0,,8,,,68,127
68526,note_on,1,0,0,,8,,,56,127
68690,note_off,164,0,0,,8,,,56,127
68691,note_on,1,0,0,,8,,,44,127
68855,note_off,164,0,0,,8,,,80,127
68856,note_on,1,0,0,,6,,,78,127
69020,note_off,164,0,0,,6,,,78,127
69021,note_on,1,0,0,,5,,,77,127
69185,note_off,164,0,0,,5,,,77,127
69186,note_on,1,0,0,,3,,,75,127
69350,note_off,164,0,0,,3,,,75,127
69350,note_off,0,0,0,,8,,,44,127
69350,note_off,0,0,0,,0,,,72,127
69351,note_on,1,0,0,,8,,,68,127
69351,note_on,0,0,0,,5,,,77,127
69351,note_on,0,0,0,,1,,,73,127
69515,note_off,164,0,0,,8,,,68,127
69516,note_on,1,0,0,,8,,,56,127
69680,note_off,164,0,0,,8,,,56,127
69681,note_on,1,0,0,,8,,,44,127
69845,note_off,164,0,0,,1,,,73,127
69845,note_off,0,0,0,,5,,,77,127
69846,note_on,1,0,0,,11,,,70,127
69846,note_on,0,0,0,,7,,,79,127
70010,note_off,164,0,0,,7,,,79,127
70010,note_off,0,0,0,,11,,,70,127
70011,note_on,1,0,0,,8,,,80,127
70011,note_on,0,0,0,,0,,,72,127
70175,note_off,164,0,0,,0,,,72,127
70175,note_off,0,0,0,,8,,,80,127
70176,note_on,1,0,0,,11,,,70,127
70176,note_on,0,0,0,,7,,,79,127
70340,note_off,164,0,0,,7,,,79,127
70340,note_off,0,0,0,,11,,,70,127
70340,note_off,0,0,0,,8,,,44,127
70341,note_on,1,0,0,,8,,,68,127
70341,note_on,0,0,0,,8,,,80,127
70341,note_on,0,0,0,,0,,,72,127
70505,note_off,164,0,0,,8,,,68,127
70506,note_on,1,0,0,,8,,,56,127
70670,note_off,164,0,0,,8,,,56,127
70671,note_on,1,0,0,,8,,,44,127
70835,note_off,164,0,0,,0,,,72,127
70835,note_off,0,0,0,,8,,,80,127
70836,note_on,1,0,0,,6,,,78,127
70836,note_on,0,0,0,,3,,,75,127
71000,note_off,164,0,0,,3,,,75,127
71000,note_off,0,0,0,,6,,,78,127
71001,note_on,1,0,0,,5,,,77,127
71001,note_on,0,0,0,,1,,,73,127
71165,note_off,164,0,0,,1,,,73,127
71165,note_off,0,0,0,,5,,,77,127
71166,note_on,1,0,0,,3,,,75,127
71166,note_on,0,0,0,,0,,,72,127
71330,note_off,164,0,0,,0,,,72,127
71330,note_off,0,0,0,,3,,,75,127
71330,note_off,0,0,0,,8,,,44,127
71331,note_on,1,0,0,,8,,,68,127
71331,note_on,0,0,0,,5,,,77,127
71331,note_on,0,0,0,,1,,,73,127
71495,note_off,164,0,0,,8,,,68,127
71496,note_on,1,0,0,,8,,,56,127
71660,note_off,164,0,0,,8,,,56,127
71661,note_on,1,0,0,,8,,,44,127
71825,note_off,164,0,0,,1,,,73,127
71825,note_off,0,0,0,,5,,,77,127
71826,note_on,1,0,0,,7,,,79,127
71826,note_on,0,0,0,,11,,,70,127
71990,note_off,164,0,0,,11,,,70,127
71990,note_off,0,0,0,,7,,,79,127
71991,note_on,1,0,0,,8,,,80,127
71991,note_on,0,0,0,,0,,,72,127
72155,note_off,164,0,0,,0,,,72,127
72155,note_off,0,0,0,,8,,,80,127
72156,note_on,1,0,0,,7,,,79,127
72156,note_on,0,0,0,,11,,,70,127
72320,note_off,164,0,0,,11,,,70,127
72320,note_off,0,0,0,,7,,,79,127
72320,note_off,0,0,0,,8,,,44,127
72321,note_on,1,0,0,,8,,,56,127
72321,note_on,0,0,0,,0,,,72,127
72321,note_on,0,0,0,,8,,,80,127
72649,note_off,328,0,0,,8,,,80,127
72649,note_off,0,0,0,,0,,,72,127
72650,note_on,1,0,0,,3,,,75,127
72814,note_off,164,0,0,,8,,,56,127
72815,note_on,1,0,0,,8,,,68,127
72979,note_off,164,0,0,,8,,,68,127
72979,note_off,0,0,0,,3,,,75,127
72980,note_on,1,0,0,,6,,,66,127
72980,note_on,0,0,0,,5,,,77,127
73144,note_off,164,0,0,,6,,,66,127
73145,note_on,1,0,0,,5,,,65,127
73309,note_off,164,0,0,,5,,,65,127
73309,note_off,0,0,0,,5,,,77,127
73310,note_on,1,0,0,,3,,,63,127
73310,note_on,0,0,0,,6,,,78,127
73474,note_off,164,0,0,,6,,,78,127
73475,note_on,1,0,0,,5,,,77,127
73639,note_off,164,0,0,,5,,,77,127
73639,note_off,0,0,0,,3,,,63,127
73640,note_on,1,0,0,,5,,,65,127
73640,note_on,0,0,0,,3,,,75,127
73804,note_off,164,0,0,,3,,,75,127
73805,note_on,1,0,0,,1,,,73,127
73969,note_off,164,0,0,,1,,,73,127
73969,note_off,0,0,0,,5,,,65,127
73970,note_on,1,0,0,,6,,,66,127
73970,note_on,0,0,0,,0,,,72,127
73970,note_on,0,0,0,,11,,,82,127
74134,note_off,164,0,0,,0,,,72,127
74135,note_on,1,0,0,,11,,,70,127
74299,note_off,164,0,0,,11,,,70,127
74299,note_off,0,0,0,,11,,,82,127
74299,note_off,0,0,0,,6,,,66,127
74300,note_on,1,0,0,,5,,,65,127
74300,note_on,0,0,0,,10,,,81,127
74300,note_on,0,0,0,,0,,,72,127
74464,note_off,164,0,0,,5,,,65,127
74465,note_on,1,0,0,,5,,,53,127
74629,note_off,164,0,0,,5,,,53,127
74630,note_on,1,0,0,,5,,,41,127
74794,note_off,164,0,0,,0,,,72,127
74794,note_off,0,0,0,,10,,,81,127
74795,note_on,1,0,0,,3,,,75,127
74959,note_off,164,0,0,,3,,,75,127
74960,note_on,1,0,0,,1,,,73,127
75124,note_off,164,0,0,,1,,,73,127
75125,note_on,1,0,0,,0,,,72,127
75289,note_off,164,0,0,,0,,,72,127
75289,note_off,0,0,0,,5,,,41,127
75290,note_on,1,0,0,,5,,,65,127
75290,note_on,0,0,0,,1,,,73,127
75290,note_on,0,0,0,,11,,,70,127
75454,note_off,164,0,0,,5,,,65,127
75455,note_on,1,0,0,,5,,,53,127
75619,note_off,164,0,0,,5,,,53,127
75620,note_on,1,0,0,,5,,,41,127
75784,note_off,164,0,0,,1,,,73,127
75785,note_on,1,0,0,,4,,,76,127
75949,note_off,164,0,0,,4,,,76,127
75950,note_on,1,0,0,,5,,,77,127
76114,note_off,164,0,0,,5,,,77,127
76115,note_on,1,0,0,,7,,,79,127
76279,note_off,164,0,0,,7,,,79,127
76279,note_off,0,0,0,,5,,,41,127
76279,note_off,0,0,0,,11,,,70,127
76280,note_on,1,0,0,,5,,,65,127
76280,note_on,0,0,0,,11,,,70,127
76280,note_on,0,0,0,,0,,,72,127
76444,note_off,164,0,0,,5,,,65,127
76445,note_on,1,0,0,,5,,,53,127
76609,note_off,164,0,0,,5,,,53,127
76609,note_off,0,0,0,,11,,,70,127
76610,note_on,1,0,0,,5,,,41,127
76610,note_on,0,0,0,,10,,,69,127
76775,note_on,165,0,0,,3,,,75,127
76939,note_off,164,0,0,,3,,,75,127
76939,note_off,0,0,0,,0,,,72,127
76940,note_on,1,0,0,,1,,,73,127
77104,note_off,164,0,0,,1,,,73,127
77105,note_on,1,0,0,,0,,,72,127
77269,note_off,164,0,0,,0,,,72,127
77269,note_off,0,0,0,,10,,,69,127
77269,note_off,0,0,0,,5,,,41,127
77270,note_on,1,0,0,,5,,,65,127
77270,note_on,0,0,0,,11,,,70,127
77270,note_on,0,0,0,,1,,,73,127
77434,note_off,164,0,0,,5,,,65,127
77435,note_on,1,0,0,,5,,,53,127
77599,note_off,164,0,0,,5,,,53,127
77600,note_on,1,0,0,,5,,,41,127
77764,note_off,164,0,0,,1,,,73,127
77765,note_on,1,0,0,,4,,,76,127
77929,note_off,164,0,0,,4,,,76,127
77930,note_on,1,0,0,,5,,,77,127
78094,note_off,164,0,0,,5,,,77,127
78095,note_on,1,0,0,,7,,,79,127
78259,note_off,164,0,0,,7,,,79,127
78259,note_off,0,0,0,,5,,,41,127
78259,note_off,0,0,0,,11,,,70,127
78260,note_on,1,0,0,,5,,,65,127
78260,note_on,0,0,0,,0,,,72,127
78260,note_on,0,0,0,,11,,,70,127
78424,note_off,164,0,0,,5,,,65,127
78425,note_on,1,0,0,,5,,,53,127
78589,note_off,164,0,0,,5,,,53,127
78589,note_off,0,0,0,,11,,,70,127
78590,note_on,1,0,0,,5,,,41,127
78590,note_on,0,0,0,,10,,,69,127
78755,note_on,165,0,0,,6,,,78,127
78919,note_off,164,0,0,,6,,,78,127
78919,note_off,0,0,0,,5,,,41,127
78919,note_off,0,0,0,,0,,,72,127
78920,note_on,1,0,0,,10,,,57,127
78920,note_on,0,0,0,,5,,,77,127
79084,note_off,164,0,0,,5,,,77,127
79084,note_off,0,0,0,,10,,,69,127
79085,note_on,1,0,0,,3,,,75,127
79249,note_off,164,0,0,,3,,,75,127
79249,note_off,0,0,0,,10,,,57,127
79250,note_on,1,0,0,,11,,,58,127
79250,note_on,0,0,0,,2,,,74,127
79414,note_off,164,0,0,,2,,,74,127
79415,note_on,1,0,0,,0,,,72,127
79579,note_off,164,0,0,,0,,,72,127
79579,note_off,0,0,0,,11,,,58,127
79580,note_on,1,0,0,,0,,,60,127
79580,note_on,0,0,0,,11,,,70,127
79744,note_off,164,0,0,,11,,,70,127
79745,note_on,1,0,0,,10,,,69,127
79909,note_off,164,0,0,,10,,,69,127
79909,note_off,0,0,0,,0,,,60,127
79910,note_on,1,0,0,,2,,,62,127
79910,note_on,0,0,0,,5,,,77,127
79910,note_on,0,0,0,,7,,,67,127
80074,note_off,164,0,0,,7,,,67,127
80075,note_on,1,0,0,,5,,,65,127
80239,note_off,164,0,0,,5,,,65,127
80239,note_off,0,0,0,,5,,,77,127
80239,note_off,0,0,0,,2,,,62,127
80240,note_on,1,0,0,,3,,,63,127
80240,note_on,0,0,0,,3,,,75,127
80349,note_off,109,0,0,,3,,,75,127
80350,note_on,1,0,0,,2,,,74,127
80459,note_off,109,0,0,,2,,,74,127
80460,note_on,1,0,0,,0,,,72,127
80569,note_off,109,0,0,,0,,,72,127
80569,note_off,0,0,0,,3,,,63,127
80570,note_on,1,0,0,,5,,,65,127
80570,note_on,0,0,0,,2,,,74,127
80570,note_on,0,0,0,,11,,,70,127
80898,note_off,328,0,0,,11,,,70,127
80898,note_off,0,0,0,,2,,,74,127
80898,note_off,0,0,0,,5,,,65,127
80899,note_on,1,0,0,,5,,,53,127
80899,note_on,0,0,0,,0,,,72,127
80899,note_on,0,0,0,,10,,,69,127
81227,note_off,328,0,0,,10,,,69,127
81227,note_off,0,0,0,,0,,,72,127
81227,note_off,0,0,0,,5,,,53,127
81228,note_on,1,0,0,,11,,,46,127
81228,note_on,0,0,0,,11,,,58,127
81228,note_on,0,0,0,,11,,,82,127
81392,note_off,164,0,0,,11,,,82,127
81393,note_on,1,0,0,,11,,,70,127
81557,note_off,164,0,0,,11,,,70,127
81557,note_off,0,0,0,,11,,,58,127
81558,note_on,1,0,0,,11,,,58,127
81722,note_off,164,0,0,,11,,,46,127
81723,note_on,1,0,0,,0,,,48,127
81887,note_off,164,0,0,,0,,,48,127
81888,note_on,1,0,0,,2,,,50,127
82052,note_off,164,0,0,,2,,,50,127
82053,note_on,1,0,0,,0,,,48,127
82217,note_off,164,0,0,,0,,,48,127
82217,note_off,0,0,0,,11,,,58,127
82218,note_on,1,0,0,,11,,,46,127
82218,note_on,0,0,0,,5,,,53,127
82218,note_on,0,0,0,,11,,,82,127
82382,note_off,164,0,0,,11,,,82,127
82383,note_on,1,0,0,,11,,,70,127
82547,note_off,164,0,0,,11,,,70,127
82548,note_on,1,0,0,,11,,,58,127
82712,note_off,164,0,0,,5,,,53,127
82712,note_off,0,0,0,,11,,,46,127
82713,note_on,1,0,0,,0,,,48,127
82877,note_off,164,0,0,,0,,,48,127
82878,note_on,1,0,0,,2,,,50,127
83042,note_off,164,0,0,,2,,,50,127
83043,note_on,1,0,0,,11,,,46,127
83207,note_off,164,0,0,,11,,,46,127
83207,note_off,0,0,0,,11,,,58,127
83208,note_on,1,0,0,,3,,,51,127
83208,note_on,0,0,0,,7,,,55,127
83208,note_on,0,0,0,,11,,,82,127
83372,note_off,164,0,0,,11,,,82,127
83373,note_on,1,0,0,,7,,,79,127
83537,note_off,164,0,0,,7,,,79,127
83538,note_on,1,0,0,,11,,,58,127
83702,note_off,164,0,0,,7,,,55,127
83702,note_off,0,0,0,,3,,,51,127
83703,note_on,1,0,0,,5,,,53,127
83867,note_off,164,0,0,,5,,,53,127
83868,note_on,1,0,0,,7,,,55,127
84032,note_off,164,0,0,,7,,,55,127
84033,note_on,1,0,0,,5,,,53,127
84197,note_off,164,0,0,,5,,,53,127
84197,note_off,0,0,0,,11,,,58,127
84198,note_on,1,0,0,,3,,,51,127
84198,note_on,0,0,0,,11,,,58,127
84198,note_on,0,0,0,,11,,,82,127
84362,note_off,164,0,0,,11,,,82,127
84363,note_on,1,0,0,,7,,,79,127
84524,note_off,161,0,0,,11,,,58,127
84527,note_off,3,0,0,,7,,,79,127
84528,note_on,1,0,0,,11,,,58,127
84692,note_off,164,0,0,,3,,,51,127
84693,note_on,1,0,0,,5,,,53,127
84857,note_off,164,0,0,,5,,,53,127
84858,note_on,1,0,0,,7,,,55,127
85022,note_off,164,0,0,,7,,,55,127
85023,note_on,1,0,0,,3,,,51,127
85187,note_off,164,0,0,,3,,,51,127
85187,note_off,0,0,0,,11,,,58,127
85188,note_on,1,0,0,,11,,,46,127
85188,note_on,0,0,0,,5,,,53,127
85188,note_on,0,0,0,,2,,,86,127
85352,note_off,164,0,0,,2,,,86,127
85353,note_on,1,0,0,,11,,,82,127
85517,note_off,164,0,0,,11,,,82,127
85518,note_on,1,0,0,,11,,,58,127
85682,note_off,164,0,0,,5,,,53,127
85682,note_off,0,0,0,,11,,,46,127
85683,note_on,1,0,0,,0,,,48,127
85847,note_off,164,0,0,,0,,,48,127
85848,note_on,1,0,0,,2,,,50,127
86012,note_off,164,0,0,,2,,,50,127
86012,note_off,0,0,0,,11,,,58,127
86013,note_on,1,0,0,,11,,,46,127
86013,note_on,0,0,0,,2,,,86,127
86177,note_off,164,0,0,,2,,,86,127
86177,note_off,0,0,0,,11,,,46,127
86178,note_on,1,0,0,,3,,,51,127
86178,note_on,0,0,0,,0,,,84,127
86342,note_off,164,0,0,,0,,,84,127
86342,note_off,0,0,0,,3,,,51,127
86343,note_on,1,0,0,,0,,,48,127
86343,note_on,0,0,0,,11,,,82,127
86507,note_off,164,0,0,,11,,,82,127
86507,note_off,0,0,0,,0,,,48,127
86508,note_on,1,0,0,,5,,,53,127
86508,note_on,0,0,0,,10,,,81,127
86672,note_off,164,0,0,,10,,,81,127
86672,note_off,0,0,0,,5,,,53,127
86673,note_on,1,0,0,,7,,,55,127
86673,note_on,0,0,0,,7,,,79,127
86837,note_off,164,0,0,,7,,,79,127
86837,note_off,0,0,0,,7,,,55,127
86838,note_on,1,0,0,,10,,,57,127
86838,note_on,0,0,0,,5,,,77,127
86838,note_on,0,0,0,,0,,,84,127
87002,note_off,164,0,0,,5,,,77,127
87002,note_off,0,0,0,,10,,,57,127
87003,note_on,1,0,0,,5,,,53,127
87003,note_on,0,0,0,,3,,,75,127
87167,note_off,164,0,0,,3,,,75,127
87167,note_off,0,0,0,,5,,,53,127
87168,note_on,1,0,0,,11,,,58,127
87168,note_on,0,0,0,,2,,,62,127
87332,note_off,164,0,0,,0,,,84,127
87333,note_on,1,0,0,,0,,,84,127
87497,note_off,164,0,0,,0,,,84,127
87497,note_off,0,0,0,,2,,,62,127
87497,note_off,0,0,0,,11,,,58,127
87498,note_on,1,0,0,,0,,,60,127
87498,note_on,0,0,0,,3,,,63,127
87498,note_on,0,0,0,,11,,,82,127
87662,note_off,164,0,0,,11,,,82,127
87663,note_on,1,0,0,,10,,,81,127
87827,note_off,164,0,0,,10,,,81,127
87827,note_off,0,0,0,,3,,,63,127
87827,note_off,0,0,0,,0,,,60,127
87828,note_on,1,0,0,,5,,,65,127
87828,note_on,0,0,0,,2,,,62,127
87828,note_on,0,0,0,,7,,,79,127
87992,note_off,164,0,0,,7,,,79,127
87993,note_on,1,0,0,,5,,,77,127
88157,note_off,164,0,0,,5,,,77,127
88157,note_off,0,0,0,,2,,,62,127
88157,note_off,0,0,0,,5,,,65,127
88158,note_on,1,0,0,,3,,,63,127
88158,note_on,0,0,0,,3,,,75,127
88267,note_off,109,0,0,,3,,,75,127
88268,note_on,1,0,0,,2,,,74,127
88377,note_off,109,0,0,,2,,,74,127
88378,note_on,1,0,0,,0,,,72,127
88487,note_off,109,0,0,,0,,,72,127
88487,note_off,0,0,0,,3,,,63,127
88488,note_on,1,0,0,,5,,,65,127
88488,note_on,0,0,0,,2,,,74,127
88488,note_on,0,0,0,,11,,,70,127
88816,note_off,328,0,0,,11,,,70,127
88816,note_off,0,0,0,,2,,,74,127
88817,note_on,1,0,0,,5,,,53,127
88817,note_on,0,0,0,,10,,,69,127
88817,note_on,0,0,0,,0,,,72,127
89145,note_off,328,0,0,,0,,,72,127
89145,note_off,0,0,0,,10,,,69,127
89145,note_off,0,0,0,,5,,,53,127
89145,note_off,0,0,0,,5,,,65,127
89146,note_on,1,0,0,,11,,,58,127
89146,note_on,0,0,0,,11,,,70,127
89310,note_off,164,0,0,,11,,,70,127
89311,note_on,1,0,0,,5,,,77,127
89475,note_off,164,0,0,,5,,,77,127
89476,note_on,1,0,0,,2,,,74,127
89640,note_off,164,0,0,,2,,,74,127
89640,note_off,0,0,0,,11,,,58,127
89641,note_on,1,0,0,,2,,,62,127
89641,note_on,0,0,0,,11,,,70,127
89805,note_off,164,0,0,,11,,,70,127
89805,note_off,0,0,0,,2,,,62,127
89806,note_on,1,0,0,,5,,,65,127
89806,note_on,0,0,0,,2,,,74,127
89860,note_off,54,0,0,,2,,,74,127
89861,note_on,1,0,0,,0,,,72,127
89915,note_off,54,0,0,,0,,,72,127
89916,note_on,1,0,0,,2,,,74,127
89970,note_off,54,0,0,,2,,,74,127
89970,note_off,0,0,0,,5,,,65,127
89971,note_on,1,0,0,,5,,,53,127
89971,note_on,0,0,0,,0,,,72,127
90025,note_off,54,0,0,,0,,,72,127
90026,note_on,1,0,0,,11,,,70,127
90080,note_off,54,0,0,,11,,,70,127
90081,note_on,1,0,0,,0,,,72,127
90135,note_off,54,0,0,,0,,,72,127
90135,note_off,0,0,0,,5,,,53,127
90136,note_on,1,0,0,,11,,,46,127
90136,note_on,0,0,0,,11,,,70,127
90300,note_off,164,0,0,,11,,,70,127
90301,note_on,1,0,0,,2,,,74,127
90465,note_off,164,0,0,,2,,,74,127
90466,note_on,1,0,0,,5,,,65,127
90630,note_off,164,0,0,,5,,,65,127
90630,note_off,0,0,0,,11,,,46,127
90631,note_on,1,0,0,,2,,,50,127
90631,note_on,0,0,0,,2,,,62,127
90795,note_off,164,0,0,,2,,,62,127
90795,note_off,0,0,0,,2,,,50,127
90796,note_on,1,0,0,,5,,,53,127
90796,note_on,0,0,0,,5,,,65,127
90877,note_off,81,0,0,,5,,,65,127
90878,note_on,1,0,0,,3,,,63,127
90959,note_off,81,0,0,,3,,,63,127
90960,note_on,1,0,0,,5,,,41,127
90960,note_on,0,0,0,,2,,,62,127
91041,note_off,81,0,0,,2,,,62,127
91042,note_on,1,0,0,,0,,,60,127
91123,note_off,81,0,0,,0,,,60,127
91123,note_off,0,0,0,,5,,,41,127
91123,note_off,0,0,0,,5,,,53,127
91124,note_on,1,0,0,,11,,,46,127
91124,note_on,0,0,0,,2,,,62,127
91288,note_off,164,0,0,,2,,,62,127
91289,note_on,1,0,0,,5,,,65,127
91453,note_off,164,0,0,,5,,,65,127
91454,note_on,1,0,0,,2,,,62,127
91618,note_off,164,0,0,,2,,,62,127
91618,note_off,0,0,0,,11,,,46,127
91619,note_on,1,0,0,,2,,,50,127
91619,note_on,0,0,0,,11,,,58,127
91783,note_off,164,0,0,,11,,,58,127
91783,note_off,0,0,0,,2,,,50,127
91784,note_on,1,0,0,,5,,,53,127
91784,note_on,0,0,0,,2,,,62,127
91865,note_off,81,0,0,,2,,,62,127
91866,note_on,1,0,0,,0,,,60,127
91947,note_off,81,0,0,,0,,,60,127
91948,note_on,1,0,0,,5,,,41,127
91948,note_on,0,0,0,,11,,,58,127
92029,note_off,81,0,0,,11,,,58,127
92030,note_on,1,0,0,,10,,,57,127
92111,note_off,81,0,0,,10,,,57,127
92111,note_off,0,0,0,,5,,,41,127
92111,note_off,0,0,0,,5,,,53,127
92112,note_on,1,0,0,,11,,,46,127
92112,note_on,0,0,0,,11,,,58,127
93758,note_off,1646,0,0,,11,,,58,127
93758,note_off,0,0,0,,11,,,46,127
95232,end_of_track,1474,1,0,,,,,,
