tick,type,time,meta,track,program,channel,pitch,tempo,note,velocity
0,copyright,0,1,0,,,,,,
0,program_change,0,0,0,6,0,,,,
0,pitchwheel,0,0,0,,0,0,,,
0,program_change,0,0,0,6,1,,,,
0,pitchwheel,0,0,0,,1,-590,,,
0,program_change,0,0,0,6,2,,,,
0,pitchwheel,0,0,0,,2,-272,,,
0,program_change,0,0,0,6,3,,,,
0,pitchwheel,0,0,0,,3,-353,,,
0,program_change,0,0,0,6,4,,,,
0,pitchwheel,0,0,0,,4,-560,,,
0,program_change,0,0,0,6,5,,,,
0,pitchwheel,0,0,0,,5,-80,,,
0,program_change,0,0,0,6,6,,,,
0,pitchwheel,0,0,0,,6,-625,,,
0,program_change,0,0,0,6,7,,,,
0,pitchwheel,0,0,0,,7,-130,,,
0,program_change,0,0,0,6,8,,,,
0,pitchwheel,0,0,0,,8,-512,,,
0,program_change,0,0,0,6,10,,,,
0,pitchwheel,0,0,0,,10,-464,,,
0,program_change,0,0,0,6,11,,,,
0,pitchwheel,0,0,0,,11,-208,,,
0,program_change,0,0,0,6,12,,,,
0,pitchwheel,0,0,0,,12,-553,,,
0,set_tempo,0,1,0,,,,500000,,
110,note_on,110,0,0,,11,,,70,127
548,note_off,438,0,0,,11,,,70,127
549,note_on,1,0,0,,2,,,74,127
767,note_off,218,0,0,,2,,,74,127
768,note_on,1,0,0,,0,,,72,127
877,note_off,109,0,0,,0,,,72,127
878,note_on,1,0,0,,11,,,70,127
987,note_off,109,0,0,,11,,,70,127
988,note_on,1,0,0,,5,,,77,127
1206,note_off,218,0,0,,5,,,77,127
1207,note_on,1,0,0,,3,,,75,127
1316,note_off,109,0,0,,3,,,75,127
1317,note_on,1,0,0,,2,,,74,127
1426,note_off,109,0,0,,2,,,74,127
1427,note_on,1,0,0,,10,,,81,127
1645,note_off,218,0,0,,10,,,81,127
1646,note_on,1,0,0,,7,,,79,127
1755,note_off,109,0,0,,7,,,79,127
1756,note_on,1,0,0,,5,,,77,127
1865,note_off,109,0,0,,5,,,77,127
1866,note_on,1,0,0,,11,,,58,127
1866,note_on,0,0,0,,11,,,82,127
2304,note_off,438,0,0,,11,,,82,127
2304,note_off,0,0,0,,11,,,58,127
2305,note_on,1,0,0,,2,,,62,127
2305,note_on,0,0,0,,5,,,77,127
2523,note_off,218,0,0,,2,,,62,127
2524,note_on,1,0,0,,0,,,60,127
2633,note_off,109,0,0,,0,,,60,127
2634,note_on,1,0,0,,11,,,58,127
2743,note_off,109,0,0,,11,,,58,127
2744,note_on,1,0,0,,5,,,65,127
2962,note_off,218,0,0,,5,,,65,127
2963,note_on,1,0,0,,3,,,63,127
3072,note_off,109,0,0,,3,,,63,127
3073,note_on,1,0,0,,2,,,62,127
3182,note_off,109,0,0,,2,,,62,127
3182,note_off,0,0,0,,5,,,77,127
3183,note_on,1,0,0,,10,,,69,127
3183,note_on,0,0,0,,3,,,75,127
3401,note_off,218,0,0,,10,,,69,127
3402,note_on,1,0,0,,7,,,67,127
3511,note_off,109,0,0,,7,,,67,127
3512,note_on,1,0,0,,5,,,65,127
3621,note_off,109,0,0,,5,,,65,127
3621,note_off,0,0,0,,3,,,75,127
3622,note_on,1,0,0,,11,,,70,127
3622,note_on,0,0,0,,2,,,74,127
4060,note_off,438,0,0,,2,,,74,127
4060,note_off,0,0,0,,11,,,70,127
4061,note_on,1,0,0,,2,,,62,127
4061,note_on,0,0,0,,11,,,82,127
4170,note_off,109,0,0,,11,,,82,127
4171,note_on,1,0,0,,10,,,81,127
4280,note_off,109,0,0,,10,,,81,127
4281,note_on,1,0,0,,11,,,82,127
4390,note_off,109,0,0,,11,,,82,127
4391,note_on,1,0,0,,2,,,74,127
4500,note_off,109,0,0,,2,,,74,127
4500,note_off,0,0,0,,2,,,62,127
4501,note_on,1,0,0,,3,,,63,127
4501,note_on,0,0,0,,2,,,74,127
4719,note_off,218,0,0,,2,,,74,127
4720,note_on,1,0,0,,0,,,72,127
4938,note_off,218,0,0,,0,,,72,127
4938,note_off,0,0,0,,3,,,63,127
4939,note_on,1,0,0,,3,,,63,127
4939,note_on,0,0,0,,7,,,79,127
5048,note_off,109,0,0,,7,,,79,127
5049,note_on,1,0,0,,5,,,77,127
5158,note_off,109,0,0,,5,,,77,127
5159,note_on,1,0,0,,7,,,79,127
5268,note_off,109,0,0,,7,,,79,127
5269,note_on,1,0,0,,10,,,69,127
5378,note_off,109,0,0,,10,,,69,127
5378,note_off,0,0,0,,3,,,63,127
5379,note_on,1,0,0,,2,,,62,127
5379,note_on,0,0,0,,10,,,69,127
5597,note_off,218,0,0,,10,,,69,127
5598,note_on,1,0,0,,11,,,70,127
5816,note_off,218,0,0,,11,,,70,127
5816,note_off,0,0,0,,2,,,62,127
5817,note_on,1,0,0,,11,,,58,127
5817,note_on,0,0,0,,5,,,77,127
5817,note_on,0,0,0,,2,,,74,127
5926,note_off,109,0,0,,11,,,58,127
5927,note_on,1,0,0,,10,,,57,127
6036,note_off,109,0,0,,10,,,57,127
6037,note_on,1,0,0,,11,,,58,127
6147,note_on,110,0,0,,2,,,50,127
6256,note_off,109,0,0,,2,,,50,127
6256,note_off,0,0,0,,11,,,58,127
6257,note_on,1,0,0,,11,,,58,127
6257,note_on,0,0,0,,3,,,51,127
6475,note_off,218,0,0,,2,,,74,127
6475,note_off,0,0,0,,5,,,77,127
6476,note_on,1,0,0,,3,,,75,127
6476,note_on,0,0,0,,0,,,72,127
6694,note_off,218,0,0,,0,,,72,127
6694,note_off,0,0,0,,3,,,75,127
6694,note_off,0,0,0,,3,,,51,127
6694,note_off,0,0,0,,11,,,58,127
6695,note_on,1,0,0,,11,,,58,127
6695,note_on,0,0,0,,11,,,70,127
6695,note_on,0,0,0,,2,,,74,127
6804,note_off,109,0,0,,11,,,58,127
6805,note_on,1,0,0,,10,,,57,127
6914,note_off,109,0,0,,10,,,57,127
6915,note_on,1,0,0,,11,,,58,127
7025,note_on,110,0,0,,4,,,52,127
7134,note_off,109,0,0,,4,,,52,127
7134,note_off,0,0,0,,11,,,58,127
7135,note_on,1,0,0,,5,,,53,127
7353,note_off,218,0,0,,2,,,74,127
7353,note_off,0,0,0,,11,,,70,127
7354,note_on,1,0,0,,10,,,69,127
7354,note_on,0,0,0,,0,,,72,127
7572,note_off,218,0,0,,0,,,72,127
7572,note_off,0,0,0,,10,,,69,127
7572,note_off,0,0,0,,5,,,53,127
7573,note_on,1,0,0,,5,,,41,127
7573,note_on,0,0,0,,5,,,77,127
7682,note_off,109,0,0,,5,,,77,127
7683,note_on,1,0,0,,4,,,76,127
7792,note_off,109,0,0,,4,,,76,127
7793,note_on,1,0,0,,5,,,77,127
7902,note_off,109,0,0,,5,,,77,127
7903,note_on,1,0,0,,5,,,65,127
7903,note_on,0,0,0,,10,,,69,127
8012,note_off,109,0,0,,10,,,69,127
8012,note_off,0,0,0,,5,,,65,127
8012,note_off,0,0,0,,5,,,41,127
8013,note_on,1,0,0,,0,,,48,127
8013,note_on,0,0,0,,5,,,65,127
8013,note_on,0,0,0,,10,,,69,127
8231,note_off,218,0,0,,10,,,69,127
8231,note_off,0,0,0,,5,,,65,127
8232,note_on,1,0,0,,7,,,67,127
8232,note_on,0,0,0,,11,,,70,127
8450,note_off,218,0,0,,11,,,70,127
8450,note_off,0,0,0,,7,,,67,127
8450,note_off,0,0,0,,0,,,48,127
8451,note_on,1,0,0,,0,,,48,127
8451,note_on,0,0,0,,7,,,79,127
8560,note_off,109,0,0,,7,,,79,127
8561,note_on,1,0,0,,5,,,77,127
8670,note_off,109,0,0,,5,,,77,127
8671,note_on,1,0,0,,7,,,79,127
8780,note_off,109,0,0,,7,,,79,127
8781,note_on,1,0,0,,11,,,70,127
8781,note_on,0,0,0,,7,,,67,127
8890,note_off,109,0,0,,7,,,67,127
8890,note_off,0,0,0,,11,,,70,127
8890,note_off,0,0,0,,0,,,48,127
8891,note_on,1,0,0,,5,,,41,127
8891,note_on,0,0,0,,11,,,70,127
8891,note_on,0,0,0,,7,,,67,127
9109,note_off,218,0,0,,7,,,67,127
9109,note_off,0,0,0,,11,,,70,127
9110,note_on,1,0,0,,0,,,72,127
9110,note_on,0,0,0,,10,,,69,127
9328,note_off,218,0,0,,10,,,69,127
9328,note_off,0,0,0,,0,,,72,127
9328,note_off,0,0,0,,5,,,41,127
9329,note_on,1,0,0,,5,,,53,127
9329,note_on,0,0,0,,10,,,81,127
9438,note_off,109,0,0,,10,,,81,127
9439,note_on,1,0,0,,7,,,79,127
9548,note_off,109,0,0,,7,,,79,127
9549,note_on,1,0,0,,10,,,81,127
9658,note_off,109,0,0,,10,,,81,127
9659,note_on,1,0,0,,10,,,69,127
9659,note_on,0,0,0,,0,,,72,127
9768,note_off,109,0,0,,0,,,72,127
9768,note_off,0,0,0,,10,,,69,127
9768,note_off,0,0,0,,5,,,53,127
9769,note_on,1,0,0,,0,,,48,127
9769,note_on,0,0,0,,10,,,69,127
9769,note_on,0,0,0,,0,,,72,127
9987,note_off,218,0,0,,0,,,72,127
9987,note_off,0,0,0,,10,,,69,127
9988,note_on,1,0,0,,11,,,70,127
9988,note_on,0,0,0,,7,,,67,127
10206,note_off,218,0,0,,7,,,67,127
10206,note_off,0,0,0,,11,,,70,127
10206,note_off,0,0,0,,0,,,48,127
10207,note_on,1,0,0,,0,,,48,127
10207,note_on,0,0,0,,7,,,79,127
10316,note_off,109,0,0,,7,,,79,127
10317,note_on,1,0,0,,5,,,77,127
10426,note_off,109,0,0,,5,,,77,127
10427,note_on,1,0,0,,7,,,79,127
10536,note_off,109,0,0,,7,,,79,127
10537,note_on,1,0,0,,11,,,70,127
10537,note_on,0,0,0,,7,,,67,127
10646,note_off,109,0,0,,7,,,67,127
10646,note_off,0,0,0,,11,,,70,127
10646,note_off,0,0,0,,0,,,48,127
10647,note_on,1,0,0,,5,,,41,127
10647,note_on,0,0,0,,7,,,67,127
10647,note_on,0,0,0,,11,,,70,127
10865,note_off,218,0,0,,11,,,70,127
10865,note_off,0,0,0,,7,,,67,127
10866,note_on,1,0,0,,10,,,69,127
10975,note_off,109,0,0,,10,,,69,127
10976,note_on,1,0,0,,11,,,70,127
11085,note_off,109,0,0,,11,,,70,127
11086,note_on,1,0,0,,0,,,72,127
11140,note_off,54,0,0,,0,,,72,127
11141,note_on,1,0,0,,10,,,69,127
11195,note_off,54,0,0,,10,,,69,127
11196,note_on,1,0,0,,11,,,70,127
11250,note_off,54,0,0,,11,,,70,127
11251,note_on,1,0,0,,7,,,67,127
11305,note_off,54,0,0,,7,,,67,127
11306,note_on,1,0,0,,10,,,69,127
11360,note_off,54,0,0,,10,,,69,127
11361,note_on,1,0,0,,5,,,65,127
11415,note_off,54,0,0,,5,,,65,127
11416,note_on,1,0,0,,7,,,67,127
11470,note_off,54,0,0,,7,,,67,127
11471,note_on,1,0,0,,4,,,64,127
11525,note_off,54,0,0,,4,,,64,127
11526,note_on,1,0,0,,7,,,67,127
11580,note_off,54,0,0,,7,,,67,127
11581,note_on,1,0,0,,5,,,65,127
11635,note_off,54,0,0,,5,,,65,127
11636,note_on,1,0,0,,7,,,67,127
11690,note_off,54,0,0,,7,,,67,127
11691,note_on,1,0,0,,5,,,65,127
11745,note_off,54,0,0,,5,,,65,127
11746,note_on,1,0,0,,7,,,67,127
11800,note_off,54,0,0,,7,,,67,127
11801,note_on,1,0,0,,5,,,65,127
11855,note_off,54,0,0,,5,,,65,127
11856,note_on,1,0,0,,4,,,64,127
11965,note_off,109,0,0,,4,,,64,127
11966,note_on,1,0,0,,4,,,64,127
12184,note_off,218,0,0,,4,,,64,127
12185,note_on,1,0,0,,5,,,65,127
12617,note_off,432,0,0,,5,,,41,127
12842,note_off,225,0,0,,5,,,65,127
13282,note_on,440,0,0,,5,,,65,127
13282,note_on,0,0,0,,5,,,77,127
13391,note_off,109,0,0,,5,,,77,127
13391,note_off,0,0,0,,5,,,65,127
13392,note_on,1,0,0,,3,,,63,127
13392,note_on,0,0,0,,3,,,75,127
13501,note_off,109,0,0,,3,,,75,127
13501,note_off,0,0,0,,3,,,63,127
13502,note_on,1,0,0,,1,,,61,127
13502,note_on,0,0,0,,1,,,73,127
13611,note_off,109,0,0,,1,,,73,127
13611,note_off,0,0,0,,1,,,61,127
13612,note_on,1,0,0,,0,,,60,127
13612,note_on,0,0,0,,0,,,72,127
13721,note_off,109,0,0,,0,,,72,127
13721,note_off,0,0,0,,0,,,60,127
13722,note_on,1,0,0,,11,,,58,127
13722,note_on,0,0,0,,11,,,70,127
13831,note_off,109,0,0,,11,,,70,127
13831,note_off,0,0,0,,11,,,58,127
13832,note_on,1,0,0,,8,,,56,127
13832,note_on,0,0,0,,8,,,68,127
13941,note_off,109,0,0,,8,,,68,127
13941,note_off,0,0,0,,8,,,56,127
13942,note_on,1,0,0,,6,,,54,127
13942,note_on,0,0,0,,6,,,66,127
14051,note_off,109,0,0,,6,,,66,127
14051,note_off,0,0,0,,6,,,54,127
14052,note_on,1,0,0,,5,,,53,127
14052,note_on,0,0,0,,5,,,65,127
14161,note_off,109,0,0,,5,,,65,127
14161,note_off,0,0,0,,5,,,53,127
14162,note_on,1,0,0,,3,,,51,127
14162,note_on,0,0,0,,3,,,63,127
14271,note_off,109,0,0,,3,,,63,127
14271,note_off,0,0,0,,3,,,51,127
14272,note_on,1,0,0,,1,,,49,127
14272,note_on,0,0,0,,1,,,61,127
14381,note_off,109,0,0,,1,,,61,127
14381,note_off,0,0,0,,1,,,49,127
14382,note_on,1,0,0,,0,,,48,127
14382,note_on,0,0,0,,0,,,60,127
14491,note_off,109,0,0,,0,,,60,127
14491,note_off,0,0,0,,0,,,48,127
14492,note_on,1,0,0,,11,,,46,127
14492,note_on,0,0,0,,11,,,58,127
14601,note_off,109,0,0,,11,,,58,127
14601,note_off,0,0,0,,11,,,46,127
14602,note_on,1,0,0,,8,,,44,127
14602,note_on,0,0,0,,8,,,56,127
15040,note_off,438,0,0,,8,,,56,127
15040,note_off,0,0,0,,8,,,44,127
15041,note_on,1,0,0,,1,,,61,127
15041,note_on,0,0,0,,5,,,65,127
15041,note_on,0,0,0,,5,,,77,127
15150,note_off,109,0,0,,5,,,77,127
15151,note_on,1,0,0,,3,,,75,127
15260,note_off,109,0,0,,3,,,75,127
15261,note_on,1,0,0,,5,,,77,127
15370,note_off,109,0,0,,5,,,77,127
15371,note_on,1,0,0,,8,,,68,127
15480,note_off,109,0,0,,8,,,68,127
15480,note_off,0,0,0,,5,,,65,127
15480,note_off,0,0,0,,1,,,61,127
15481,note_on,1,0,0,,1,,,61,127
15481,note_on,0,0,0,,3,,,63,127
15481,note_on,0,0,0,,11,,,70,127
15535,note_off,54,0,0,,11,,,70,127
15536,note_on,1,0,0,,8,,,68,127
15590,note_off,54,0,0,,8,,,68,127
15591,note_on,1,0,0,,11,,,70,127
15645,note_off,54,0,0,,11,,,70,127
15646,note_on,1,0,0,,8,,,68,127
15700,note_off,54,0,0,,8,,,68,127
15701,note_on,1,0,0,,6,,,66,127
15919,note_off,218,0,0,,6,,,66,127
15919,note_off,0,0,0,,3,,,63,127
15919,note_off,0,0,0,,1,,,61,127
15920,note_on,1,0,0,,0,,,60,127
15920,note_on,0,0,0,,3,,,63,127
15920,note_on,0,0,0,,3,,,75,127
16029,note_off,109,0,0,,3,,,75,127
16030,note_on,1,0,0,,1,,,73,127
16139,note_off,109,0,0,,1,,,73,127
16140,note_on,1,0,0,,3,,,75,127
16249,note_off,109,0,0,,3,,,75,127
16250,note_on,1,0,0,,6,,,66,127
16359,note_off,109,0,0,,6,,,66,127
16359,note_off,0,0,0,,3,,,63,127
16359,note_off,0,0,0,,0,,,60,127
16360,note_on,1,0,0,,1,,,61,127
16360,note_on,0,0,0,,8,,,68,127
16414,note_off,54,0,0,,8,,,68,127
16415,note_on,1,0,0,,6,,,66,127
16469,note_off,54,0,0,,6,,,66,127
16470,note_on,1,0,0,,8,,,68,127
16524,note_off,54,0,0,,8,,,68,127
16525,note_on,1,0,0,,6,,,66,127
16579,note_off,54,0,0,,6,,,66,127
16580,note_on,1,0,0,,5,,,65,127
16798,note_off,218,0,0,,5,,,65,127
16798,note_off,0,0,0,,1,,,61,127
16799,note_on,1,0,0,,3,,,63,127
16799,note_on,0,0,0,,6,,,66,127
16799,note_on,0,0,0,,6,,,78,127
16908,note_off,109,0,0,,6,,,78,127
16909,note_on,1,0,0,,5,,,77,127
17018,note_off,109,0,0,,5,,,77,127
17019,note_on,1,0,0,,6,,,78,127
17128,note_off,109,0,0,,6,,,78,127
17129,note_on,1,0,0,,11,,,70,127
17238,note_off,109,0,0,,11,,,70,127
17238,note_off,0,0,0,,6,,,66,127
17238,note_off,0,0,0,,3,,,63,127
17239,note_on,1,0,0,,5,,,65,127
17239,note_on,0,0,0,,3,,,63,127
17239,note_on,0,0,0,,0,,,72,127
17293,note_off,54,0,0,,0,,,72,127
17294,note_on,1,0,0,,11,,,70,127
17348,note_off,54,0,0,,11,,,70,127
17349,note_on,1,0,0,,0,,,72,127
17403,note_off,54,0,0,,0,,,72,127
17404,note_on,1,0,0,,11,,,70,127
17458,note_off,54,0,0,,11,,,70,127
17459,note_on,1,0,0,,8,,,68,127
17677,note_off,218,0,0,,8,,,68,127
17677,note_off,0,0,0,,3,,,63,127
17677,note_off,0,0,0,,5,,,65,127
17678,note_on,1,0,0,,5,,,65,127
17678,note_on,0,0,0,,2,,,62,127
17678,note_on,0,0,0,,5,,,77,127
17787,note_off,109,0,0,,5,,,77,127
17788,note_on,1,0,0,,3,,,75,127
17897,note_off,109,0,0,,3,,,75,127
17898,note_on,1,0,0,,5,,,77,127
18007,note_off,109,0,0,,5,,,77,127
18008,note_on,1,0,0,,8,,,68,127
18117,note_off,109,0,0,,8,,,68,127
18117,note_off,0,0,0,,2,,,62,127
18117,note_off,0,0,0,,5,,,65,127
18118,note_on,1,0,0,,3,,,63,127
18118,note_on,0,0,0,,11,,,70,127
18172,note_off,54,0,0,,11,,,70,127
18173,note_on,1,0,0,,8,,,68,127
18227,note_off,54,0,0,,8,,,68,127
18228,note_on,1,0,0,,11,,,70,127
18282,note_off,54,0,0,,11,,,70,127
18283,note_on,1,0,0,,8,,,68,127
18337,note_off,54,0,0,,8,,,68,127
18338,note_on,1,0,0,,6,,,66,127
18556,note_off,218,0,0,,6,,,66,127
18556,note_off,0,0,0,,3,,,63,127
18557,note_on,1,0,0,,5,,,65,127
18557,note_on,0,0,0,,8,,,68,127
18557,note_on,0,0,0,,8,,,80,127
18666,note_off,109,0,0,,8,,,80,127
18667,note_on,1,0,0,,7,,,79,127
18776,note_off,109,0,0,,7,,,79,127
18777,note_on,1,0,0,,8,,,80,127
18886,note_off,109,0,0,,8,,,80,127
18887,note_on,1,0,0,,0,,,72,127
18996,note_off,109,0,0,,0,,,72,127
18996,note_off,0,0,0,,8,,,68,127
18996,note_off,0,0,0,,5,,,65,127
18997,note_on,1,0,0,,7,,,67,127
18997,note_on,0,0,0,,5,,,65,127
18997,note_on,0,0,0,,1,,,73,127
19051,note_off,54,0,0,,1,,,73,127
19052,note_on,1,0,0,,0,,,72,127
19106,note_off,54,0,0,,0,,,72,127
19107,note_on,1,0,0,,1,,,73,127
19161,note_off,54,0,0,,1,,,73,127
19162,note_on,1,0,0,,0,,,72,127
19216,note_off,54,0,0,,0,,,72,127
19217,note_on,1,0,0,,11,,,70,127
19435,note_off,218,0,0,,11,,,70,127
19435,note_off,0,0,0,,5,,,65,127
19435,note_off,0,0,0,,7,,,67,127
19436,note_on,1,0,0,,4,,,64,127
19436,note_on,0,0,0,,7,,,67,127
19436,note_on,0,0,0,,7,,,79,127
19545,note_off,109,0,0,,7,,,79,127
19546,note_on,1,0,0,,5,,,77,127
19655,note_off,109,0,0,,5,,,77,127
19656,note_on,1,0,0,,7,,,79,127
19765,note_off,109,0,0,,7,,,79,127
19766,note_on,1,0,0,,11,,,70,127
19875,note_off,109,0,0,,11,,,70,127
19875,note_off,0,0,0,,7,,,67,127
19875,note_off,0,0,0,,4,,,64,127
19876,note_on,1,0,0,,5,,,65,127
19876,note_on,0,0,0,,0,,,72,127
19930,note_off,54,0,0,,0,,,72,127
19931,note_on,1,0,0,,11,,,70,127
19985,note_off,54,0,0,,11,,,70,127
19986,note_on,1,0,0,,0,,,72,127
20040,note_off,54,0,0,,0,,,72,127
20041,note_on,1,0,0,,11,,,70,127
20095,note_off,54,0,0,,11,,,70,127
20096,note_on,1,0,0,,8,,,68,127
20314,note_off,218,0,0,,8,,,68,127
20314,note_off,0,0,0,,5,,,65,127
20315,note_on,1,0,0,,5,,,53,127
20315,note_on,0,0,0,,0,,,84,127
20424,note_off,109,0,0,,0,,,84,127
20425,note_on,1,0,0,,7,,,79,127
20534,note_off,109,0,0,,7,,,79,127
20535,note_on,1,0,0,,8,,,80,127
20644,note_off,109,0,0,,8,,,80,127
20645,note_on,1,0,0,,5,,,77,127
20754,note_off,109,0,0,,5,,,77,127
20754,note_off,0,0,0,,5,,,53,127
20755,note_on,1,0,0,,1,,,49,127
20755,note_on,0,0,0,,5,,,77,127
20864,note_off,109,0,0,,5,,,77,127
20865,note_on,1,0,0,,0,,,72,127
20974,note_off,109,0,0,,0,,,72,127
20975,note_on,1,0,0,,1,,,73,127
21084,note_off,109,0,0,,1,,,73,127
21085,note_on,1,0,0,,11,,,70,127
21194,note_off,109,0,0,,11,,,70,127
21195,note_on,1,0,0,,0,,,72,127
21304,note_off,109,0,0,,0,,,72,127
21305,note_on,1,0,0,,7,,,67,127
21414,note_off,109,0,0,,7,,,67,127
21415,note_on,1,0,0,,8,,,68,127
21524,note_off,109,0,0,,8,,,68,127
21525,note_on,1,0,0,,5,,,65,127
21634,note_off,109,0,0,,5,,,65,127
21634,note_off,0,0,0,,1,,,49,127
21635,note_on,1,0,0,,0,,,48,127
21635,note_on,0,0,0,,4,,,64,127
22073,note_off,438,0,0,,4,,,64,127
22073,note_off,0,0,0,,0,,,48,127
22294,note_on,221,0,0,,0,,,72,127
22294,note_on,0,0,0,,10,,,81,127
22348,note_off,54,0,0,,10,,,81,127
22349,note_on,1,0,0,,7,,,79,127
22403,note_off,54,0,0,,7,,,79,127
22403,note_off,0,0,0,,0,,,72,127
22404,note_on,1,0,0,,7,,,67,127
22404,note_on,0,0,0,,10,,,81,127
22458,note_off,54,0,0,,10,,,81,127
22459,note_on,1,0,0,,7,,,79,127
22513,note_off,54,0,0,,7,,,79,127
22513,note_off,0,0,0,,7,,,67,127
22514,note_on,1,0,0,,4,,,64,127
22514,note_on,0,0,0,,10,,,81,127
22568,note_off,54,0,0,,10,,,81,127
22569,note_on,1,0,0,,7,,,79,127
22623,note_off,54,0,0,,7,,,79,127
22623,note_off,0,0,0,,4,,,64,127
22624,note_on,1,0,0,,0,,,60,127
22624,note_on,0,0,0,,10,,,81,127
22678,note_off,54,0,0,,10,,,81,127
22679,note_on,1,0,0,,7,,,79,127
22733,note_off,54,0,0,,7,,,79,127
22733,note_off,0,0,0,,0,,,60,127
22734,note_on,1,0,0,,7,,,55,127
22734,note_on,0,0,0,,10,,,81,127
22788,note_off,54,0,0,,10,,,81,127
22789,note_on,1,0,0,,7,,,79,127
22843,note_off,54,0,0,,7,,,79,127
22843,note_off,0,0,0,,7,,,55,127
22844,note_on,1,0,0,,4,,,52,127
22844,note_on,0,0,0,,10,,,81,127
22898,note_off,54,0,0,,10,,,81,127
22899,note_on,1,0,0,,7,,,79,127
22953,note_off,54,0,0,,7,,,79,127
22953,note_off,0,0,0,,4,,,52,127
22954,note_on,1,0,0,,0,,,48,127
22954,note_on,0,0,0,,10,,,81,127
23008,note_off,54,0,0,,10,,,81,127
23009,note_on,1,0,0,,7,,,79,127
23063,note_off,54,0,0,,7,,,79,127
23063,note_off,0,0,0,,0,,,48,127
23064,note_on,1,0,0,,7,,,43,127
23064,note_on,0,0,0,,10,,,81,127
23118,note_off,54,0,0,,10,,,81,127
23119,note_on,1,0,0,,7,,,79,127
23173,note_off,54,0,0,,7,,,79,127
23173,note_off,0,0,0,,7,,,43,127
23174,note_on,1,0,0,,0,,,36,127
23174,note_on,0,0,0,,10,,,81,127
23228,note_off,54,0,0,,10,,,81,127
23229,note_on,1,0,0,,7,,,79,127
23283,note_off,54,0,0,,7,,,79,127
23284,note_on,1,0,0,,10,,,81,127
23338,note_off,54,0,0,,10,,,81,127
23339,note_on,1,0,0,,7,,,79,127
23393,note_off,54,0,0,,7,,,79,127
23393,note_off,0,0,0,,0,,,36,127
23394,note_on,1,0,0,,0,,,36,127
23394,note_on,0,0,0,,10,,,81,127
23448,note_off,54,0,0,,10,,,81,127
23449,note_on,1,0,0,,7,,,79,127
23503,note_off,54,0,0,,7,,,79,127
23504,note_on,1,0,0,,10,,,81,127
23558,note_off,54,0,0,,10,,,81,127
23559,note_on,1,0,0,,7,,,79,127
23613,note_off,54,0,0,,7,,,79,127
23613,note_off,0,0,0,,0,,,36,127
23614,note_on,1,0,0,,0,,,36,127
23614,note_on,0,0,0,,7,,,79,127
23723,note_off,109,0,0,,7,,,79,127
23724,note_on,1,0,0,,5,,,77,127
23833,note_off,109,0,0,,5,,,77,127
23834,note_on,1,0,0,,7,,,79,127
23943,note_off,109,0,0,,7,,,79,127
23944,note_on,1,0,0,,10,,,81,127
24053,note_off,109,0,0,,10,,,81,127
24054,note_on,1,0,0,,11,,,82,127
24163,note_off,109,0,0,,11,,,82,127
24164,note_on,1,0,0,,0,,,84,127
24273,note_off,109,0,0,,0,,,84,127
24274,note_on,1,0,0,,2,,,86,127
24383,note_off,109,0,0,,2,,,86,127
24384,note_on,1,0,0,,11,,,82,127
24493,note_off,109,0,0,,11,,,82,127
24493,note_off,0,0,0,,0,,,36,127
24494,note_on,1,0,0,,7,,,79,127
24932,note_off,438,0,0,,7,,,79,127
24933,note_on,1,0,0,,0,,,72,127
24933,note_on,0,0,0,,10,,,81,127
24987,note_off,54,0,0,,10,,,81,127
24988,note_on,1,0,0,,7,,,79,127
25042,note_off,54,0,0,,7,,,79,127
25042,note_off,0,0,0,,0,,,72,127
25043,note_on,1,0,0,,7,,,67,127
25043,note_on,0,0,0,,10,,,81,127
25097,note_off,54,0,0,,10,,,81,127
25098,note_on,1,0,0,,7,,,79,127
25152,note_off,54,0,0,,7,,,79,127
25152,note_off,0,0,0,,7,,,67,127
25153,note_on,1,0,0,,4,,,64,127
25153,note_on,0,0,0,,10,,,81,127
25207,note_off,54,0,0,,10,,,81,127
25208,note_on,1,0,0,,7,,,79,127
25262,note_off,54,0,0,,7,,,79,127
25262,note_off,0,0,0,,4,,,64,127
25263,note_on,1,0,0,,0,,,60,127
25263,note_on,0,0,0,,10,,,81,127
25317,note_off,54,0,0,,10,,,81,127
25318,note_on,1,0,0,,7,,,79,127
25372,note_off,54,0,0,,7,,,79,127
25372,note_off,0,0,0,,0,,,60,127
25373,note_on,1,0,0,,7,,,55,127
25373,note_on,0,0,0,,10,,,81,127
25427,note_off,54,0,0,,10,,,81,127
25428,note_on,1,0,0,,7,,,79,127
25482,note_off,54,0,0,,7,,,79,127
25482,note_off,0,0,0,,7,,,55,127
25483,note_on,1,0,0,,4,,,52,127
25483,note_on,0,0,0,,10,,,81,127
25537,note_off,54,0,0,,10,,,81,127
25538,note_on,1,0,0,,7,,,79,127
25592,note_off,54,0,0,,7,,,79,127
25592,note_off,0,0,0,,4,,,52,127
25593,note_on,1,0,0,,0,,,48,127
25593,note_on,0,0,0,,10,,,81,127
25647,note_off,54,0,0,,10,,,81,127
25648,note_on,1,0,0,,7,,,79,127
25702,note_off,54,0,0,,7,,,79,127
25702,note_off,0,0,0,,0,,,48,127
25703,note_on,1,0,0,,7,,,43,127
25703,note_on,0,0,0,,10,,,81,127
25757,note_off,54,0,0,,10,,,81,127
25758,note_on,1,0,0,,7,,,79,127
25812,note_off,54,0,0,,7,,,79,127
25812,note_off,0,0,0,,7,,,43,127
25813,note_on,1,0,0,,0,,,36,127
25813,note_on,0,0,0,,10,,,81,127
25867,note_off,54,0,0,,10,,,81,127
25868,note_on,1,0,0,,7,,,79,127
25922,note_off,54,0,0,,7,,,79,127
25923,note_on,1,0,0,,10,,,81,127
25977,note_off,54,0,0,,10,,,81,127
25978,note_on,1,0,0,,7,,,79,127
26032,note_off,54,0,0,,7,,,79,127
26032,note_off,0,0,0,,0,,,36,127
26033,note_on,1,0,0,,0,,,36,127
26033,note_on,0,0,0,,10,,,81,127
26087,note_off,54,0,0,,10,,,81,127
26088,note_on,1,0,0,,7,,,79,127
26142,note_off,54,0,0,,7,,,79,127
26143,note_on,1,0,0,,10,,,81,127
26197,note_off,54,0,0,,10,,,81,127
26198,note_on,1,0,0,,7,,,79,127
26252,note_off,54,0,0,,7,,,79,127
26252,note_off,0,0,0,,0,,,36,127
26253,note_on,1,0,0,,0,,,36,127
26253,note_on,0,0,0,,7,,,79,127
26362,note_off,109,0,0,,7,,,79,127
26363,note_on,1,0,0,,5,,,77,127
26472,note_off,109,0,0,,5,,,77,127
26473,note_on,1,0,0,,7,,,79,127
26582,note_off,109,0,0,,7,,,79,127
26583,note_on,1,0,0,,10,,,81,127
26692,note_off,109,0,0,,10,,,81,127
26693,note_on,1,0,0,,11,,,82,127
26802,note_off,109,0,0,,11,,,82,127
26803,note_on,1,0,0,,0,,,84,127
26912,note_off,109,0,0,,0,,,84,127
26912,note_off,0,0,0,,0,,,36,127
26913,note_on,1,0,0,,4,,,52,127
26913,note_on,0,0,0,,2,,,86,127
27022,note_off,109,0,0,,2,,,86,127
27023,note_on,1,0,0,,11,,,82,127
27132,note_off,109,0,0,,11,,,82,127
27132,note_off,0,0,0,,4,,,52,127
27133,note_on,1,0,0,,5,,,53,127
27133,note_on,0,0,0,,11,,,82,127
27187,note_off,54,0,0,,11,,,82,127
27188,note_on,1,0,0,,10,,,81,127
27242,note_off,54,0,0,,10,,,81,127
27243,note_on,1,0,0,,11,,,82,127
27297,note_off,54,0,0,,11,,,82,127
27298,note_on,1,0,0,,10,,,81,127
27352,note_off,54,0,0,,10,,,81,127
27352,note_off,0,0,0,,5,,,53,127
27353,note_on,1,0,0,,11,,,58,127
27353,note_on,0,0,0,,7,,,79,127
27462,note_off,109,0,0,,7,,,79,127
27463,note_on,1,0,0,,5,,,77,127
27572,note_off,109,0,0,,5,,,77,127
27572,note_off,0,0,0,,11,,,58,127
27573,note_on,1,0,0,,0,,,60,127
27573,note_on,0,0,0,,10,,,81,127
27627,note_off,54,0,0,,10,,,81,127
27628,note_on,1,0,0,,7,,,79,127
27682,note_off,54,0,0,,7,,,79,127
27683,note_on,1,0,0,,10,,,81,127
27737,note_off,54,0,0,,10,,,81,127
27738,note_on,1,0,0,,7,,,79,127
27792,note_off,54,0,0,,7,,,79,127
27792,note_off,0,0,0,,0,,,60,127
27793,note_on,1,0,0,,0,,,48,127
27793,note_on,0,0,0,,5,,,77,127
27902,note_off,109,0,0,,5,,,77,127
27903,note_on,1,0,0,,4,,,76,127
28012,note_off,109,0,0,,4,,,76,127
28012,note_off,0,0,0,,0,,,48,127
28013,note_on,1,0,0,,5,,,53,127
28013,note_on,0,0,0,,5,,,77,127
28451,note_off,438,0,0,,5,,,77,127
28451,note_off,0,0,0,,5,,,53,127
28452,note_on,1,0,0,,0,,,72,127
28452,note_on,0,0,0,,10,,,81,127
28506,note_off,54,0,0,,10,,,81,127
28507,note_on,1,0,0,,7,,,79,127
28561,note_off,54,0,0,,7,,,79,127
28561,note_off,0,0,0,,0,,,72,127
28562,note_on,1,0,0,,7,,,67,127
28562,note_on,0,0,0,,10,,,81,127
28616,note_off,54,0,0,,10,,,81,127
28617,note_on,1,0,0,,7,,,79,127
28671,note_off,54,0,0,,7,,,79,127
28671,note_off,0,0,0,,7,,,67,127
28672,note_on,1,0,0,,4,,,64,127
28672,note_on,0,0,0,,10,,,81,127
28726,note_off,54,0,0,,10,,,81,127
28727,note_on,1,0,0,,7,,,79,127
28781,note_off,54,0,0,,7,,,79,127
28781,note_off,0,0,0,,4,,,64,127
28782,note_on,1,0,0,,0,,,60,127
28782,note_on,0,0,0,,10,,,81,127
28836,note_off,54,0,0,,10,,,81,127
28837,note_on,1,0,0,,7,,,79,127
28891,note_off,54,0,0,,7,,,79,127
28891,note_off,0,0,0,,0,,,60,127
28892,note_on,1,0,0,,7,,,55,127
28892,note_on,0,0,0,,10,,,81,127
28946,note_off,54,0,0,,10,,,81,127
28947,note_on,1,0,0,,7,,,79,127
29001,note_off,54,0,0,,7,,,79,127
29001,note_off,0,0,0,,7,,,55,127
29002,note_on,1,0,0,,4,,,52,127
29002,note_on,0,0,0,,10,,,81,127
29056,note_off,54,0,0,,10,,,81,127
29057,note_on,1,0,0,,7,,,79,127
29111,note_off,54,0,0,,7,,,79,127
29111,note_off,0,0,0,,4,,,52,127
29112,note_on,1,0,0,,0,,,48,127
29112,note_on,0,0,0,,10,,,81,127
29166,note_off,54,0,0,,10,,,81,127
29167,note_on,1,0,0,,7,,,79,127
29221,note_off,54,0,0,,7,,,79,127
29221,note_off,0,0,0,,0,,,48,127
29222,note_on,1,0,0,,7,,,43,127
29222,note_on,0,0,0,,10,,,81,127
29276,note_off,54,0,0,,10,,,81,127
29277,note_on,1,0,0,,7,,,79,127
29331,note_off,54,0,0,,7,,,79,127
29331,note_off,0,0,0,,7,,,43,127
29332,note_on,1,0,0,,0,,,36,127
29332,note_on,0,0,0,,10,,,81,127
29386,note_off,54,0,0,,10,,,81,127
29387,note_on,1,0,0,,7,,,79,127
29441,note_off,54,0,0,,7,,,79,127
29442,note_on,1,0,0,,10,,,81,127
29496,note_off,54,0,0,,10,,,81,127
29497,note_on,1,0,0,,7,,,79,127
29551,note_off,54,0,0,,7,,,79,127
29551,note_off,0,0,0,,0,,,36,127
29552,note_on,1,0,0,,0,,,36,127
29552,note_on,0,0,0,,10,,,81,127
29606,note_off,54,0,0,,10,,,81,127
29607,note_on,1,0,0,,7,,,79,127
29661,note_off,54,0,0,,7,,,79,127
29662,note_on,1,0,0,,10,,,81,127
29716,note_off,54,0,0,,10,,,81,127
29717,note_on,1,0,0,,7,,,79,127
29771,note_off,54,0,0,,7,,,79,127
29771,note_off,0,0,0,,0,,,36,127
29772,note_on,1,0,0,,0,,,36,127
29772,note_on,0,0,0,,7,,,79,127
29881,note_off,109,0,0,,7,,,79,127
29882,note_on,1,0,0,,5,,,77,127
29991,note_off,109,0,0,,5,,,77,127
29992,note_on,1,0,0,,7,,,79,127
30101,note_off,109,0,0,,7,,,79,127
30102,note_on,1,0,0,,10,,,81,127
30211,note_off,109,0,0,,10,,,81,127
30212,note_on,1,0,0,,11,,,82,127
30321,note_off,109,0,0,,11,,,82,127
30322,note_on,1,0,0,,0,,,84,127
30431,note_off,109,0,0,,0,,,84,127
30432,note_on,1,0,0,,2,,,86,127
30541,note_off,109,0,0,,2,,,86,127
30542,note_on,1,0,0,,11,,,82,127
30651,note_off,109,0,0,,11,,,82,127
30651,note_off,0,0,0,,0,,,36,127
30652,note_on,1,0,0,,7,,,79,127
31090,note_off,438,0,0,,7,,,79,127
31091,note_on,1,0,0,,0,,,72,127
31091,note_on,0,0,0,,10,,,81,127
31145,note_off,54,0,0,,10,,,81,127
31146,note_on,1,0,0,,7,,,79,127
31200,note_off,54,0,0,,7,,,79,127
31200,note_off,0,0,0,,0,,,72,127
31201,note_on,1,0,0,,7,,,67,127
31201,note_on,0,0,0,,10,,,81,127
31255,note_off,54,0,0,,10,,,81,127
31256,note_on,1,0,0,,7,,,79,127
31310,note_off,54,0,0,,7,,,79,127
31310,note_off,0,0,0,,7,,,67,127
31311,note_on,1,0,0,,4,,,64,127
31311,note_on,0,0,0,,10,,,81,127
31365,note_off,54,0,0,,10,,,81,127
31366,note_on,1,0,0,,7,,,79,127
31420,note_off,54,0,0,,7,,,79,127
31420,note_off,0,0,0,,4,,,64,127
31421,note_on,1,0,0,,0,,,60,127
31421,note_on,0,0,0,,10,,,81,127
31475,note_off,54,0,0,,10,,,81,127
31476,note_on,1,0,0,,7,,,79,127
31530,note_off,54,0,0,,7,,,79,127
31530,note_off,0,0,0,,0,,,60,127
31531,note_on,1,0,0,,7,,,55,127
31531,note_on,0,0,0,,10,,,81,127
31585,note_off,54,0,0,,10,,,81,127
31586,note_on,1,0,0,,7,,,79,127
31640,note_off,54,0,0,,7,,,79,127
31640,note_off,0,0,0,,7,,,55,127
31641,note_on,1,0,0,,4,,,52,127
31641,note_on,0,0,0,,10,,,81,127
31695,note_off,54,0,0,,10,,,81,127
31696,note_on,1,0,0,,7,,,79,127
31750,note_off,54,0,0,,7,,,79,127
31750,note_off,0,0,0,,4,,,52,127
31751,note_on,1,0,0,,0,,,48,127
31751,note_on,0,0,0,,10,,,81,127
31805,note_off,54,0,0,,10,,,81,127
31806,note_on,1,0,0,,7,,,79,127
31860,note_off,54,0,0,,7,,,79,127
31860,note_off,0,0,0,,0,,,48,127
31861,note_on,1,0,0,,7,,,43,127
31861,note_on,0,0,0,,10,,,81,127
31915,note_off,54,0,0,,10,,,81,127
31916,note_on,1,0,0,,7,,,79,127
31970,note_off,54,0,0,,7,,,79,127
31970,note_off,0,0,0,,7,,,43,127
31971,note_on,1,0,0,,0,,,36,127
31971,note_on,0,0,0,,10,,,81,127
32025,note_off,54,0,0,,10,,,81,127
32026,note_on,1,0,0,,7,,,79,127
32080,note_off,54,0,0,,7,,,79,127
32081,note_on,1,0,0,,10,,,81,127
32135,note_off,54,0,0,,10,,,81,127
32136,note_on,1,0,0,,7,,,79,127
32190,note_off,54,0,0,,7,,,79,127
32190,note_off,0,0,0,,0,,,36,127
32191,note_on,1,0,0,,0,,,36,127
32191,note_on,0,0,0,,10,,,81,127
32245,note_off,54,0,0,,10,,,81,127
32246,note_on,1,0,0,,7,,,79,127
32300,note_off,54,0,0,,7,,,79,127
32301,note_on,1,0,0,,10,,,81,127
32355,note_off,54,0,0,,10,,,81,127
32356,note_on,1,0,0,,7,,,79,127
32410,note_off,54,0,0,,7,,,79,127
32410,note_off,0,0,0,,0,,,36,127
32411,note_on,1,0,0,,0,,,36,127
32411,note_on,0,0,0,,7,,,79,127
32520,note_off,109,0,0,,7,,,79,127
32521,note_on,1,0,0,,5,,,77,127
32630,note_off,109,0,0,,5,,,77,127
32631,note_on,1,0,0,,7,,,79,127
32740,note_off,109,0,0,,7,,,79,127
32741,note_on,1,0,0,,10,,,81,127
32850,note_off,109,0,0,,10,,,81,127
32851,note_on,1,0,0,,11,,,82,127
32960,note_off,109,0,0,,11,,,82,127
32961,note_on,1,0,0,,0,,,84,127
33070,note_off,109,0,0,,0,,,84,127
33070,note_off,0,0,0,,0,,,36,127
33071,note_on,1,0,0,,4,,,52,127
33071,note_on,0,0,0,,2,,,86,127
33180,note_off,109,0,0,,2,,,86,127
33181,note_on,1,0,0,,11,,,82,127
33290,note_off,109,0,0,,11,,,82,127
33290,note_off,0,0,0,,4,,,52,127
33291,note_on,1,0,0,,5,,,53,127
33291,note_on,0,0,0,,11,,,82,127
33345,note_off,54,0,0,,11,,,82,127
33346,note_on,1,0,0,,10,,,81,127
33400,note_off,54,0,0,,10,,,81,127
33401,note_on,1,0,0,,11,,,82,127
33455,note_off,54,0,0,,11,,,82,127
33456,note_on,1,0,0,,10,,,81,127
33510,note_off,54,0,0,,10,,,81,127
33510,note_off,0,0,0,,5,,,53,127
33511,note_on,1,0,0,,11,,,58,127
33511,note_on,0,0,0,,7,,,79,127
33620,note_off,109,0,0,,7,,,79,127
33621,note_on,1,0,0,,5,,,77,127
33730,note_off,109,0,0,,5,,,77,127
33730,note_off,0,0,0,,11,,,58,127
33731,note_on,1,0,0,,0,,,60,127
33731,note_on,0,0,0,,10,,,81,127
33785,note_off,54,0,0,,10,,,81,127
33786,note_on,1,0,0,,7,,,79,127
33840,note_off,54,0,0,,7,,,79,127
33841,note_on,1,0,0,,10,,,81,127
33895,note_off,54,0,0,,10,,,81,127
33896,note_on,1,0,0,,7,,,79,127
33950,note_off,54,0,0,,7,,,79,127
33950,note_off,0,0,0,,0,,,60,127
33951,note_on,1,0,0,,0,,,48,127
33951,note_on,0,0,0,,5,,,77,127
34060,note_off,109,0,0,,5,,,77,127
34061,note_on,1,0,0,,4,,,76,127
34170,note_off,109,0,0,,4,,,76,127
34170,note_off,0,0,0,,0,,,48,127
34171,note_on,1,0,0,,5,,,53,127
34171,note_on,0,0,0,,5,,,77,127
34500,note_off,329,0,0,,5,,,77,127
34609,note_off,109,0,0,,5,,,53,127
34610,note_on,1,0,0,,5,,,53,127
34610,note_on,0,0,0,,10,,,81,127
34719,note_off,109,0,0,,10,,,81,127
34720,note_on,1,0,0,,7,,,79,127
34829,note_off,109,0,0,,7,,,79,127
34830,note_on,1,0,0,,10,,,81,127
34939,note_off,109,0,0,,10,,,81,127
34940,note_on,1,0,0,,10,,,69,127
34940,note_on,0,0,0,,0,,,72,127
35049,note_off,109,0,0,,0,,,72,127
35049,note_off,0,0,0,,10,,,69,127
35049,note_off,0,0,0,,5,,,53,127
35050,note_on,1,0,0,,0,,,48,127
35050,note_on,0,0,0,,10,,,69,127
35050,note_on,0,0,0,,0,,,72,127
35268,note_off,218,0,0,,0,,,72,127
35268,note_off,0,0,0,,10,,,69,127
35269,note_on,1,0,0,,7,,,67,127
35269,note_on,0,0,0,,11,,,70,127
35487,note_off,218,0,0,,11,,,70,127
35487,note_off,0,0,0,,7,,,67,127
35487,note_off,0,0,0,,0,,,48,127
35488,note_on,1,0,0,,0,,,48,127
35488,note_on,0,0,0,,7,,,79,127
35597,note_off,109,0,0,,7,,,79,127
35598,note_on,1,0,0,,5,,,77,127
35707,note_off,109,0,0,,5,,,77,127
35708,note_on,1,0,0,,7,,,79,127
35817,note_off,109,0,0,,7,,,79,127
35818,note_on,1,0,0,,11,,,70,127
35818,note_on,0,0,0,,7,,,67,127
35927,note_off,109,0,0,,7,,,67,127
35927,note_off,0,0,0,,11,,,70,127
35927,note_off,0,0,0,,0,,,48,127
35928,note_on,1,0,0,,5,,,53,127
35928,note_on,0,0,0,,5,,,41,127
35928,note_on,0,0,0,,11,,,70,127
35928,note_on,0,0,0,,7,,,67,127
36146,note_off,218,0,0,,7,,,67,127
36146,note_off,0,0,0,,11,,,70,127
36147,note_on,1,0,0,,5,,,65,127
36147,note_on,0,0,0,,10,,,69,127
36365,note_off,218,0,0,,10,,,69,127
36365,note_off,0,0,0,,5,,,65,127
36365,note_off,0,0,0,,5,,,41,127
36365,note_off,0,0,0,,5,,,53,127
36366,note_on,1,0,0,,10,,,45,127
36366,note_on,0,0,0,,5,,,53,127
36366,note_on,0,0,0,,5,,,77,127
36475,note_off,109,0,0,,5,,,77,127
36476,note_on,1,0,0,,4,,,76,127
36585,note_off,109,0,0,,4,,,76,127
36586,note_on,1,0,0,,5,,,77,127
36695,note_off,109,0,0,,5,,,77,127
36696,note_on,1,0,0,,0,,,72,127
36805,note_off,109,0,0,,0,,,72,127
36805,note_off,0,0,0,,5,,,53,127
36805,note_off,0,0,0,,10,,,45,127
36806,note_on,1,0,0,,11,,,46,127
36806,note_on,0,0,0,,2,,,74,127
36915,note_off,109,0,0,,2,,,74,127
36916,note_on,1,0,0,,10,,,69,127
37025,note_off,109,0,0,,10,,,69,127
37026,note_on,1,0,0,,11,,,70,127
37135,note_off,109,0,0,,11,,,70,127
37136,note_on,1,0,0,,7,,,67,127
37245,note_off,109,0,0,,7,,,67,127
37245,note_off,0,0,0,,11,,,46,127
37246,note_on,1,0,0,,0,,,48,127
37246,note_on,0,0,0,,5,,,65,127
37464,note_off,218,0,0,,5,,,65,127
37465,note_on,1,0,0,,5,,,65,127
37519,note_off,54,0,0,,5,,,65,127
37520,note_on,1,0,0,,4,,,64,127
37574,note_off,54,0,0,,4,,,64,127
37575,note_on,1,0,0,,5,,,65,127
37629,note_off,54,0,0,,5,,,65,127
37630,note_on,1,0,0,,4,,,64,127
37684,note_off,54,0,0,,4,,,64,127
37684,note_off,0,0,0,,0,,,48,127
37685,note_on,1,0,0,,5,,,41,127
37685,note_on,0,0,0,,5,,,65,127
38123,note_off,438,0,0,,5,,,65,127
38123,note_off,0,0,0,,5,,,41,127
38124,note_on,1,0,0,,5,,,53,127
38124,note_on,0,0,0,,10,,,81,127
38233,note_off,109,0,0,,10,,,81,127
38234,note_on,1,0,0,,7,,,79,127
38343,note_off,109,0,0,,7,,,79,127
38344,note_on,1,0,0,,10,,,81,127
38453,note_off,109,0,0,,10,,,81,127
38454,note_on,1,0,0,,10,,,69,127
38454,note_on,0,0,0,,0,,,72,127
38563,note_off,109,0,0,,0,,,72,127
38563,note_off,0,0,0,,10,,,69,127
38563,note_off,0,0,0,,5,,,53,127
38564,note_on,1,0,0,,0,,,48,127
38564,note_on,0,0,0,,10,,,69,127
38564,note_on,0,0,0,,0,,,72,127
38782,note_off,218,0,0,,0,,,72,127
38782,note_off,0,0,0,,10,,,69,127
38783,note_on,1,0,0,,7,,,67,127
38783,note_on,0,0,0,,11,,,70,127
39001,note_off,218,0,0,,11,,,70,127
39001,note_off,0,0,0,,7,,,67,127
39001,note_off,0,0,0,,0,,,48,127
39002,note_on,1,0,0,,0,,,48,127
39002,note_on,0,0,0,,7,,,79,127
39111,note_off,109,0,0,,7,,,79,127
39112,note_on,1,0,0,,5,,,77,127
39221,note_off,109,0,0,,5,,,77,127
39222,note_on,1,0,0,,7,,,79,127
39331,note_off,109,0,0,,7,,,79,127
39332,note_on,1,0,0,,7,,,67,127
39332,note_on,0,0,0,,11,,,70,127
39441,note_off,109,0,0,,11,,,70,127
39441,note_off,0,0,0,,7,,,67,127
39441,note_off,0,0,0,,0,,,48,127
39442,note_on,1,0,0,,5,,,53,127
39442,note_on,0,0,0,,5,,,41,127
39442,note_on,0,0,0,,7,,,67,127
39442,note_on,0,0,0,,11,,,70,127
39660,note_off,218,0,0,,11,,,70,127
39660,note_off,0,0,0,,7,,,67,127
39661,note_on,1,0,0,,5,,,65,127
39661,note_on,0,0,0,,10,,,69,127
39879,note_off,218,0,0,,10,,,69,127
39879,note_off,0,0,0,,5,,,65,127
39879,note_off,0,0,0,,5,,,41,127
39879,note_off,0,0,0,,5,,,53,127
39880,note_on,1,0,0,,5,,,53,127
39880,note_on,0,0,0,,10,,,45,127
39880,note_on,0,0,0,,5,,,77,127
39989,note_off,109,0,0,,5,,,77,127
39990,note_on,1,0,0,,4,,,76,127
40099,note_off,109,0,0,,4,,,76,127
40100,note_on,1,0,0,,5,,,77,127
40209,note_off,109,0,0,,5,,,77,127
40210,note_on,1,0,0,,0,,,72,127
40319,note_off,109,0,0,,0,,,72,127
40319,note_off,0,0,0,,10,,,45,127
40319,note_off,0,0,0,,5,,,53,127
40320,note_on,1,0,0,,11,,,46,127
40320,note_on,0,0,0,,2,,,74,127
40429,note_off,109,0,0,,2,,,74,127
40430,note_on,1,0,0,,10,,,69,127
40539,note_off,109,0,0,,10,,,69,127
40540,note_on,1,0,0,,11,,,70,127
40649,note_off,109,0,0,,11,,,70,127
40650,note_on,1,0,0,,7,,,67,127
40759,note_off,109,0,0,,7,,,67,127
40759,note_off,0,0,0,,11,,,46,127
40760,note_on,1,0,0,,0,,,48,127
40760,note_on,0,0,0,,5,,,65,127
40978,note_off,218,0,0,,5,,,65,127
40979,note_on,1,0,0,,5,,,65,127
41033,note_off,54,0,0,,5,,,65,127
41034,note_on,1,0,0,,4,,,64,127
41088,note_off,54,0,0,,4,,,64,127
41089,note_on,1,0,0,,2,,,62,127
41143,note_off,54,0,0,,2,,,62,127
41144,note_on,1,0,0,,4,,,64,127
41198,note_off,54,0,0,,4,,,64,127
41198,note_off,0,0,0,,0,,,48,127
41199,note_on,1,0,0,,5,,,41,127
41199,note_on,0,0,0,,5,,,65,127
41528,note_off,329,0,0,,5,,,65,127
41638,note_on,110,0,0,,10,,,69,127
41856,note_off,218,0,0,,10,,,69,127
41857,note_on,1,0,0,,7,,,67,127
41966,note_off,109,0,0,,7,,,67,127
41967,note_on,1,0,0,,5,,,65,127
42076,note_off,109,0,0,,5,,,65,127
42076,note_off,0,0,0,,5,,,41,127
42077,note_on,1,0,0,,0,,,60,127
42077,note_on,0,0,0,,10,,,57,127
42077,note_on,0,0,0,,5,,,53,127
42077,note_on,0,0,0,,0,,,72,127
42186,note_off,109,0,0,,0,,,72,127
42187,note_on,1,0,0,,0,,,72,127
42296,note_off,109,0,0,,0,,,72,127
42297,note_on,1,0,0,,0,,,72,127
42406,note_off,109,0,0,,0,,,72,127
42407,note_on,1,0,0,,0,,,72,127
42516,note_off,109,0,0,,0,,,72,127
42516,note_off,0,0,0,,5,,,53,127
42516,note_off,0,0,0,,10,,,57,127
42516,note_off,0,0,0,,0,,,60,127
42517,note_on,1,0,0,,0,,,60,127
42517,note_on,0,0,0,,7,,,55,127
42517,note_on,0,0,0,,3,,,51,127
42517,note_on,0,0,0,,0,,,72,127
42626,note_off,109,0,0,,0,,,72,127
42627,note_on,1,0,0,,0,,,72,127
42736,note_off,109,0,0,,0,,,72,127
42737,note_on,1,0,0,,0,,,72,127
42846,note_off,109,0,0,,0,,,72,127
42847,note_on,1,0,0,,0,,,72,127
42956,note_off,109,0,0,,0,,,72,127
42956,note_off,0,0,0,,3,,,51,127
42956,note_off,0,0,0,,7,,,55,127
42956,note_off,0,0,0,,0,,,60,127
42957,note_on,1,0,0,,2,,,50,127
42957,note_on,0,0,0,,6,,,54,127
42957,note_on,0,0,0,,0,,,60,127
42957,note_on,0,0,0,,10,,,57,127
42957,note_on,0,0,0,,0,,,72,127
43066,note_off,109,0,0,,0,,,72,127
43067,note_on,1,0,0,,0,,,72,127
43176,note_off,109,0,0,,0,,,72,127
43177,note_on,1,0,0,,0,,,72,127
43286,note_off,109,0,0,,0,,,72,127
43287,note_on,1,0,0,,0,,,72,127
43396,note_off,109,0,0,,0,,,72,127
43396,note_off,0,0,0,,10,,,57,127
43396,note_off,0,0,0,,0,,,60,127
43396,note_off,0,0,0,,6,,,54,127
43396,note_off,0,0,0,,2,,,50,127
43397,note_on,1,0,0,,3,,,51,127
43397,note_on,0,0,0,,7,,,55,127
43397,note_on,0,0,0,,0,,,60,127
43397,note_on,0,0,0,,0,,,72,127
43506,note_off,109,0,0,,0,,,72,127
43507,note_on,1,0,0,,0,,,72,127
43616,note_off,109,0,0,,0,,,72,127
43617,note_on,1,0,0,,0,,,72,127
43726,note_off,109,0,0,,0,,,72,127
43727,note_on,1,0,0,,0,,,72,127
43836,note_off,109,0,0,,0,,,72,127
43836,note_off,0,0,0,,0,,,60,127
43836,note_off,0,0,0,,7,,,55,127
43836,note_off,0,0,0,,3,,,51,127
43837,note_on,1,0,0,,6,,,54,127
43837,note_on,0,0,0,,2,,,50,127
43837,note_on,0,0,0,,10,,,57,127
43837,note_on,0,0,0,,0,,,60,127
43837,note_on,0,0,0,,10,,,81,127
44055,note_off,218,0,0,,10,,,81,127
44056,note_on,1,0,0,,0,,,72,127
44274,note_off,218,0,0,,0,,,72,127
44274,note_off,0,0,0,,0,,,60,127
44274,note_off,0,0,0,,10,,,57,127
44274,note_off,0,0,0,,2,,,50,127
44274,note_off,0,0,0,,6,,,54,127
44275,note_on,1,0,0,,0,,,60,127
44275,note_on,0,0,0,,10,,,57,127
44275,note_on,0,0,0,,6,,,54,127
44275,note_on,0,0,0,,2,,,50,127
44275,note_on,0,0,0,,2,,,74,127
44329,note_off,54,0,0,,2,,,74,127
44330,note_on,1,0,0,,0,,,72,127
44384,note_off,54,0,0,,0,,,72,127
44385,note_on,1,0,0,,2,,,74,127
44439,note_off,54,0,0,,2,,,74,127
44440,note_on,1,0,0,,0,,,72,127
44494,note_off,54,0,0,,0,,,72,127
44495,note_on,1,0,0,,11,,,70,127
44604,note_off,109,0,0,,11,,,70,127
44605,note_on,1,0,0,,10,,,69,127
44714,note_off,109,0,0,,10,,,69,127
44714,note_off,0,0,0,,2,,,50,127
44714,note_off,0,0,0,,6,,,54,127
44714,note_off,0,0,0,,10,,,57,127
44714,note_off,0,0,0,,0,,,60,127
44715,note_on,1,0,0,,7,,,43,127
44715,note_on,0,0,0,,7,,,55,127
44715,note_on,0,0,0,,0,,,72,127
44769,note_off,54,0,0,,0,,,72,127
44770,note_on,1,0,0,,11,,,70,127
44824,note_off,54,0,0,,11,,,70,127
44825,note_on,1,0,0,,0,,,72,127
44879,note_off,54,0,0,,0,,,72,127
44880,note_on,1,0,0,,11,,,70,127
44934,note_off,54,0,0,,11,,,70,127
44935,note_on,1,0,0,,10,,,69,127
45044,note_off,109,0,0,,10,,,69,127
45045,note_on,1,0,0,,7,,,67,127
45154,note_off,109,0,0,,7,,,67,127
45155,note_on,1,0,0,,0,,,72,127
45209,note_off,54,0,0,,0,,,72,127
45210,note_on,1,0,0,,11,,,70,127
45264,note_off,54,0,0,,11,,,70,127
45265,note_on,1,0,0,,0,,,72,127
45319,note_off,54,0,0,,0,,,72,127
45320,note_on,1,0,0,,11,,,70,127
45374,note_off,54,0,0,,11,,,70,127
45375,note_on,1,0,0,,10,,,69,127
45484,note_off,109,0,0,,10,,,69,127
45485,note_on,1,0,0,,7,,,67,127
45594,note_off,109,0,0,,7,,,67,127
45594,note_off,0,0,0,,7,,,55,127
45594,note_off,0,0,0,,7,,,43,127
45595,note_on,1,0,0,,7,,,55,127
45595,note_on,0,0,0,,2,,,62,127
45595,note_on,0,0,0,,11,,,58,127
45595,note_on,0,0,0,,2,,,74,127
45704,note_off,109,0,0,,2,,,74,127
45705,note_on,1,0,0,,2,,,74,127
45814,note_off,109,0,0,,2,,,74,127
45815,note_on,1,0,0,,2,,,74,127
45924,note_off,109,0,0,,2,,,74,127
45925,note_on,1,0,0,,2,,,74,127
46034,note_off,109,0,0,,2,,,74,127
46034,note_off,0,0,0,,11,,,58,127
46034,note_off,0,0,0,,2,,,62,127
46034,note_off,0,0,0,,7,,,55,127
46035,note_on,1,0,0,,5,,,53,127
46035,note_on,0,0,0,,2,,,62,127
46035,note_on,0,0,0,,10,,,57,127
46035,note_on,0,0,0,,2,,,74,127
46144,note_off,109,0,0,,2,,,74,127
46145,note_on,1,0,0,,2,,,74,127
46254,note_off,109,0,0,,2,,,74,127
46255,note_on,1,0,0,,2,,,74,127
46364,note_off,109,0,0,,2,,,74,127
46365,note_on,1,0,0,,2,,,74,127
46474,note_off,109,0,0,,2,,,74,127
46474,note_off,0,0,0,,10,,,57,127
46474,note_off,0,0,0,,2,,,62,127
46474,note_off,0,0,0,,5,,,53,127
46475,note_on,1,0,0,,12,,,59,127
46475,note_on,0,0,0,,8,,,56,127
46475,note_on,0,0,0,,4,,,52,127
46475,note_on,0,0,0,,2,,,62,127
46475,note_on,0,0,0,,2,,,74,127
46584,note_off,109,0,0,,2,,,74,127
46585,note_on,1,0,0,,2,,,74,127
46694,note_off,109,0,0,,2,,,74,127
46695,note_on,1,0,0,,2,,,74,127
46804,note_off,109,0,0,,2,,,74,127
46805,note_on,1,0,0,,2,,,74,127
46914,note_off,109,0,0,,2,,,74,127
46914,note_off,0,0,0,,2,,,62,127
46914,note_off,0,0,0,,4,,,52,127
46914,note_off,0,0,0,,8,,,56,127
46914,note_off,0,0,0,,12,,,59,127
46915,note_on,1,0,0,,5,,,53,127
46915,note_on,0,0,0,,2,,,62,127
46915,note_on,0,0,0,,10,,,57,127
46915,note_on,0,0,0,,2,,,74,127
47024,note_off,109,0,0,,2,,,74,127
47025,note_on,1,0,0,,2,,,74,127
47134,note_off,109,0,0,,2,,,74,127
47135,note_on,1,0,0,,2,,,74,127
47244,note_off,109,0,0,,2,,,74,127
47245,note_on,1,0,0,,2,,,74,127
47354,note_off,109,0,0,,2,,,74,127
47354,note_off,0,0,0,,10,,,57,127
47354,note_off,0,0,0,,2,,,62,127
47354,note_off,0,0,0,,5,,,53,127
47355,note_on,1,0,0,,8,,,56,127
47355,note_on,0,0,0,,4,,,52,127
47355,note_on,0,0,0,,2,,,62,127
47355,note_on,0,0,0,,12,,,59,127
47355,note_on,0,0,0,,12,,,83,127
47573,note_off,218,0,0,,12,,,83,127
47574,note_on,1,0,0,,2,,,74,127
47792,note_off,218,0,0,,2,,,74,127
47792,note_off,0,0,0,,12,,,59,127
47792,note_off,0,0,0,,2,,,62,127
47792,note_off,0,0,0,,4,,,52,127
47792,note_off,0,0,0,,8,,,56,127
47793,note_on,1,0,0,,8,,,56,127
47793,note_on,0,0,0,,4,,,52,127
47793,note_on,0,0,0,,2,,,62,127
47793,note_on,0,0,0,,12,,,59,127
47793,note_on,0,0,0,,4,,,76,127
47847,note_off,54,0,0,,4,,,76,127
47848,note_on,1,0,0,,2,,,74,127
47902,note_off,54,0,0,,2,,,74,127
47903,note_on,1,0,0,,4,,,76,127
47957,note_off,54,0,0,,4,,,76,127
47958,note_on,1,0,0,,2,,,74,127
48012,note_off,54,0,0,,2,,,74,127
48013,note_on,1,0,0,,1,,,73,127
48122,note_off,109,0,0,,1,,,73,127
48123,note_on,1,0,0,,12,,,71,127
48232,note_off,109,0,0,,12,,,71,127
48232,note_off,0,0,0,,12,,,59,127
48232,note_off,0,0,0,,2,,,62,127
48232,note_off,0,0,0,,4,,,52,127
48232,note_off,0,0,0,,8,,,56,127
48233,note_on,1,0,0,,10,,,45,127
48233,note_on,0,0,0,,10,,,57,127
48233,note_on,0,0,0,,2,,,74,127
48287,note_off,54,0,0,,2,,,74,127
48288,note_on,1,0,0,,1,,,73,127
48342,note_off,54,0,0,,1,,,73,127
48343,note_on,1,0,0,,2,,,74,127
48397,note_off,54,0,0,,2,,,74,127
48398,note_on,1,0,0,,1,,,73,127
48452,note_off,54,0,0,,1,,,73,127
48453,note_on,1,0,0,,12,,,71,127
48562,note_off,109,0,0,,12,,,71,127
48563,note_on,1,0,0,,10,,,69,127
48672,note_off,109,0,0,,10,,,69,127
48673,note_on,1,0,0,,10,,,81,127
48782,note_off,109,0,0,,10,,,81,127
48783,note_on,1,0,0,,4,,,76,127
48892,note_off,109,0,0,,4,,,76,127
48893,note_on,1,0,0,,1,,,73,127
49002,note_off,109,0,0,,1,,,73,127
49003,note_on,1,0,0,,10,,,69,127
49112,note_off,109,0,0,,10,,,69,127
49112,note_off,0,0,0,,10,,,57,127
49112,note_off,0,0,0,,10,,,45,127
49113,note_on,1,0,0,,10,,,45,127
49113,note_on,0,0,0,,10,,,57,127
49113,note_on,0,0,0,,7,,,67,127
49222,note_off,109,0,0,,7,,,67,127
49223,note_on,1,0,0,,4,,,64,127
49332,note_off,109,0,0,,4,,,64,127
49333,note_on,1,0,0,,1,,,61,127
49424,note_off,91,0,0,,10,,,57,127
49441,note_off,17,0,0,,1,,,61,127
49442,note_on,1,0,0,,10,,,57,127
49551,note_off,109,0,0,,10,,,57,127
49551,note_off,0,0,0,,10,,,45,127
49552,note_on,1,0,0,,10,,,57,127
49552,note_on,0,0,0,,10,,,45,127
49552,note_on,0,0,0,,10,,,69,127
49606,note_off,54,0,0,,10,,,69,127
49607,note_on,1,0,0,,7,,,67,127
49661,note_off,54,0,0,,7,,,67,127
49662,note_on,1,0,0,,10,,,69,127
49716,note_off,54,0,0,,10,,,69,127
49717,note_on,1,0,0,,7,,,67,127
49771,note_off,54,0,0,,7,,,67,127
49772,note_on,1,0,0,,10,,,69,127
49826,note_off,54,0,0,,10,,,69,127
49827,note_on,1,0,0,,7,,,67,127
49881,note_off,54,0,0,,7,,,67,127
49882,note_on,1,0,0,,5,,,65,127
49936,note_off,54,0,0,,5,,,65,127
49937,note_on,1,0,0,,4,,,64,127
49991,note_off,54,0,0,,4,,,64,127
49991,note_off,0,0,0,,10,,,45,127
49991,note_off,0,0,0,,10,,,57,127
49992,note_on,1,0,0,,10,,,57,127
49992,note_on,0,0,0,,10,,,45,127
49992,note_on,0,0,0,,8,,,68,127
49992,note_on,0,0,0,,2,,,62,127
50210,note_off,218,0,0,,2,,,62,127
50210,note_off,0,0,0,,8,,,68,127
50211,note_on,1,0,0,,1,,,61,127
50211,note_on,0,0,0,,10,,,69,127
50429,note_off,218,0,0,,10,,,69,127
50429,note_off,0,0,0,,1,,,61,127
50429,note_off,0,0,0,,10,,,45,127
50429,note_off,0,0,0,,10,,,57,127
50430,note_on,1,0,0,,10,,,45,127
50430,note_on,0,0,0,,10,,,57,127
50430,note_on,0,0,0,,10,,,81,127
50539,note_off,109,0,0,,10,,,81,127
50540,note_on,1,0,0,,4,,,76,127
50649,note_off,109,0,0,,4,,,76,127
50650,note_on,1,0,0,,1,,,73,127
50759,note_off,109,0,0,,1,,,73,127
50760,note_on,1,0,0,,10,,,69,127
50869,note_off,109,0,0,,10,,,69,127
50869,note_off,0,0,0,,10,,,57,127
50869,note_off,0,0,0,,10,,,45,127
50870,note_on,1,0,0,,10,,,45,127
50870,note_on,0,0,0,,10,,,57,127
50870,note_on,0,0,0,,7,,,67,127
50979,note_off,109,0,0,,7,,,67,127
50980,note_on,1,0,0,,4,,,64,127
51089,note_off,109,0,0,,4,,,64,127
51090,note_on,1,0,0,,1,,,61,127
51197,note_off,107,0,0,,10,,,57,127
51198,note_off,1,0,0,,1,,,61,127
51199,note_on,1,0,0,,10,,,57,127
51308,note_off,109,0,0,,10,,,57,127
51308,note_off,0,0,0,,10,,,45,127
51309,note_on,1,0,0,,10,,,45,127
51309,note_on,0,0,0,,10,,,57,127
51309,note_on,0,0,0,,10,,,69,127
51363,note_off,54,0,0,,10,,,69,127
51364,note_on,1,0,0,,7,,,67,127
51418,note_off,54,0,0,,7,,,67,127
51419,note_on,1,0,0,,10,,,69,127
51473,note_off,54,0,0,,10,,,69,127
51474,note_on,1,0,0,,7,,,67,127
51528,note_off,54,0,0,,7,,,67,127
51529,note_on,1,0,0,,10,,,69,127
51583,note_off,54,0,0,,10,,,69,127
51584,note_on,1,0,0,,7,,,67,127
51638,note_off,54,0,0,,7,,,67,127
51639,note_on,1,0,0,,5,,,65,127
51693,note_off,54,0,0,,5,,,65,127
51694,note_on,1,0,0,,4,,,64,127
51748,note_off,54,0,0,,4,,,64,127
51748,note_off,0,0,0,,10,,,57,127
51748,note_off,0,0,0,,10,,,45,127
51749,note_on,1,0,0,,10,,,57,127
51749,note_on,0,0,0,,10,,,45,127
51749,note_on,0,0,0,,2,,,62,127
51749,note_on,0,0,0,,8,,,68,127
51967,note_off,218,0,0,,8,,,68,127
51967,note_off,0,0,0,,2,,,62,127
51968,note_on,1,0,0,,1,,,61,127
51968,note_on,0,0,0,,10,,,69,127
52186,note_off,218,0,0,,10,,,69,127
52186,note_off,0,0,0,,1,,,61,127
52186,note_off,0,0,0,,10,,,45,127
52186,note_off,0,0,0,,10,,,57,127
52187,note_on,1,0,0,,10,,,45,127
52187,note_on,0,0,0,,10,,,57,127
52187,note_on,0,0,0,,4,,,76,127
52296,note_off,109,0,0,,4,,,76,127
52297,note_on,1,0,0,,2,,,74,127
52406,note_off,109,0,0,,2,,,74,127
52407,note_on,1,0,0,,4,,,76,127
52516,note_off,109,0,0,,4,,,76,127
52517,note_on,1,0,0,,1,,,61,127
52517,note_on,0,0,0,,4,,,64,127
52626,note_off,109,0,0,,4,,,64,127
52626,note_off,0,0,0,,1,,,61,127
52626,note_off,0,0,0,,10,,,57,127
52626,note_off,0,0,0,,10,,,45,127
52627,note_on,1,0,0,,2,,,50,127
52627,note_on,0,0,0,,4,,,64,127
52627,note_on,0,0,0,,1,,,61,127
52845,note_off,218,0,0,,1,,,61,127
52845,note_off,0,0,0,,4,,,64,127
52846,note_on,1,0,0,,5,,,65,127
52846,note_on,0,0,0,,2,,,62,127
53064,note_off,218,0,0,,2,,,62,127
53064,note_off,0,0,0,,5,,,65,127
53064,note_off,0,0,0,,2,,,50,127
53065,note_on,1,0,0,,2,,,50,127
53065,note_on,0,0,0,,5,,,77,127
53174,note_off,109,0,0,,5,,,77,127
53175,note_on,1,0,0,,4,,,76,127
53284,note_off,109,0,0,,4,,,76,127
53285,note_on,1,0,0,,5,,,77,127
53394,note_off,109,0,0,,5,,,77,127
53395,note_on,1,0,0,,5,,,65,127
53395,note_on,0,0,0,,2,,,62,127
53504,note_off,109,0,0,,2,,,62,127
53504,note_off,0,0,0,,5,,,65,127
53504,note_off,0,0,0,,2,,,50,127
53505,note_on,1,0,0,,0,,,48,127
53505,note_on,0,0,0,,5,,,65,127
53505,note_on,0,0,0,,2,,,62,127
53723,note_off,218,0,0,,2,,,62,127
53723,note_off,0,0,0,,5,,,65,127
53724,note_on,1,0,0,,4,,,64,127
53724,note_on,0,0,0,,7,,,67,127
53942,note_off,218,0,0,,7,,,67,127
53942,note_off,0,0,0,,4,,,64,127
53942,note_off,0,0,0,,0,,,48,127
53943,note_on,1,0,0,,0,,,48,127
53943,note_on,0,0,0,,7,,,79,127
54052,note_off,109,0,0,,7,,,79,127
54053,note_on,1,0,0,,5,,,77,127
54162,note_off,109,0,0,,5,,,77,127
54163,note_on,1,0,0,,7,,,79,127
54272,note_off,109,0,0,,7,,,79,127
54273,note_on,1,0,0,,4,,,64,127
54273,note_on,0,0,0,,7,,,67,127
54382,note_off,109,0,0,,7,,,67,127
54382,note_off,0,0,0,,4,,,64,127
54382,note_off,0,0,0,,0,,,48,127
54383,note_on,1,0,0,,5,,,41,127
54383,note_on,0,0,0,,4,,,64,127
54383,note_on,0,0,0,,7,,,67,127
54601,note_off,218,0,0,,7,,,67,127
54601,note_off,0,0,0,,4,,,64,127
54602,note_on,1,0,0,,5,,,65,127
54602,note_on,0,0,0,,10,,,69,127
54820,note_off,218,0,0,,10,,,69,127
54820,note_off,0,0,0,,5,,,65,127
54820,note_off,0,0,0,,5,,,41,127
54821,note_on,1,0,0,,5,,,53,127
54821,note_on,0,0,0,,10,,,81,127
54930,note_off,109,0,0,,10,,,81,127
54931,note_on,1,0,0,,7,,,79,127
55040,note_off,109,0,0,,7,,,79,127
55041,note_on,1,0,0,,10,,,81,127
55150,note_off,109,0,0,,10,,,81,127
55151,note_on,1,0,0,,5,,,65,127
55151,note_on,0,0,0,,10,,,69,127
55260,note_off,109,0,0,,10,,,69,127
55260,note_off,0,0,0,,5,,,65,127
55260,note_off,0,0,0,,5,,,53,127
55261,note_on,1,0,0,,4,,,52,127
55261,note_on,0,0,0,,10,,,69,127
55261,note_on,0,0,0,,5,,,65,127
55479,note_off,218,0,0,,5,,,65,127
55479,note_off,0,0,0,,10,,,69,127
55480,note_on,1,0,0,,8,,,68,127
55480,note_on,0,0,0,,12,,,71,127
55698,note_off,218,0,0,,12,,,71,127
55698,note_off,0,0,0,,8,,,68,127
55698,note_off,0,0,0,,4,,,52,127
55699,note_on,1,0,0,,4,,,52,127
55699,note_on,0,0,0,,12,,,83,127
55808,note_off,109,0,0,,12,,,83,127
55809,note_on,1,0,0,,10,,,81,127
55918,note_off,109,0,0,,10,,,81,127
55919,note_on,1,0,0,,12,,,83,127
56028,note_off,109,0,0,,12,,,83,127
56029,note_on,1,0,0,,8,,,68,127
56029,note_on,0,0,0,,12,,,71,127
56138,note_off,109,0,0,,12,,,71,127
56138,note_off,0,0,0,,8,,,68,127
56138,note_off,0,0,0,,4,,,52,127
56139,note_on,1,0,0,,10,,,45,127
56139,note_on,0,0,0,,8,,,68,127
56139,note_on,0,0,0,,12,,,71,127
56357,note_off,218,0,0,,12,,,71,127
56357,note_off,0,0,0,,8,,,68,127
56358,note_on,1,0,0,,0,,,72,127
56358,note_on,0,0,0,,10,,,69,127
56576,note_off,218,0,0,,10,,,69,127
56576,note_off,0,0,0,,0,,,72,127
56576,note_off,0,0,0,,10,,,45,127
56577,note_on,1,0,0,,10,,,57,127
56577,note_on,0,0,0,,0,,,84,127
56686,note_off,109,0,0,,0,,,84,127
56687,note_on,1,0,0,,12,,,83,127
56796,note_off,109,0,0,,12,,,83,127
56797,note_on,1,0,0,,0,,,84,127
56906,note_off,109,0,0,,0,,,84,127
56907,note_on,1,0,0,,10,,,69,127
56907,note_on,0,0,0,,0,,,72,127
57016,note_off,109,0,0,,0,,,72,127
57016,note_off,0,0,0,,10,,,69,127
57016,note_off,0,0,0,,10,,,57,127
57017,note_on,1,0,0,,7,,,55,127
57017,note_on,0,0,0,,10,,,69,127
57017,note_on,0,0,0,,0,,,72,127
57235,note_off,218,0,0,,0,,,72,127
57235,note_off,0,0,0,,10,,,69,127
57236,note_on,1,0,0,,12,,,71,127
57236,note_on,0,0,0,,2,,,74,127
57454,note_off,218,0,0,,2,,,74,127
57454,note_off,0,0,0,,12,,,71,127
57454,note_off,0,0,0,,7,,,55,127
57455,note_on,1,0,0,,7,,,43,127
57455,note_on,0,0,0,,2,,,86,127
57564,note_off,109,0,0,,2,,,86,127
57565,note_on,1,0,0,,0,,,84,127
57674,note_off,109,0,0,,0,,,84,127
57675,note_on,1,0,0,,2,,,86,127
57784,note_off,109,0,0,,2,,,86,127
57785,note_on,1,0,0,,2,,,74,127
57785,note_on,0,0,0,,12,,,71,127
57894,note_off,109,0,0,,12,,,71,127
57894,note_off,0,0,0,,2,,,74,127
57894,note_off,0,0,0,,7,,,43,127
57895,note_on,1,0,0,,0,,,48,127
57895,note_on,0,0,0,,2,,,74,127
57895,note_on,0,0,0,,12,,,71,127
58113,note_off,218,0,0,,12,,,71,127
58113,note_off,0,0,0,,2,,,74,127
58114,note_on,1,0,0,,0,,,72,127
58114,note_on,0,0,0,,4,,,76,127
58332,note_off,218,0,0,,4,,,76,127
58332,note_off,0,0,0,,0,,,72,127
58332,note_off,0,0,0,,0,,,48,127
58333,note_on,1,0,0,,0,,,48,127
58333,note_on,0,0,0,,7,,,79,127
58442,note_off,109,0,0,,7,,,79,127
58443,note_on,1,0,0,,5,,,77,127
58552,note_off,109,0,0,,5,,,77,127
58553,note_on,1,0,0,,7,,,79,127
58662,note_off,109,0,0,,7,,,79,127
58663,note_on,1,0,0,,11,,,70,127
58663,note_on,0,0,0,,7,,,67,127
58772,note_off,109,0,0,,7,,,67,127
58772,note_off,0,0,0,,11,,,70,127
58772,note_off,0,0,0,,0,,,48,127
58773,note_on,1,0,0,,5,,,53,127
58773,note_on,0,0,0,,11,,,70,127
58773,note_on,0,0,0,,7,,,67,127
58991,note_off,218,0,0,,7,,,67,127
58991,note_off,0,0,0,,11,,,70,127
58992,note_on,1,0,0,,10,,,69,127
58992,note_on,0,0,0,,5,,,65,127
59210,note_off,218,0,0,,5,,,65,127
59210,note_off,0,0,0,,10,,,69,127
59210,note_off,0,0,0,,5,,,53,127
59211,note_on,1,0,0,,5,,,53,127
59211,note_on,0,0,0,,10,,,81,127
59320,note_off,109,0,0,,10,,,81,127
59321,note_on,1,0,0,,7,,,79,127
59430,note_off,109,0,0,,7,,,79,127
59431,note_on,1,0,0,,10,,,81,127
59540,note_off,109,0,0,,10,,,81,127
59541,note_on,1,0,0,,0,,,72,127
59541,note_on,0,0,0,,10,,,69,127
59650,note_off,109,0,0,,10,,,69,127
59650,note_off,0,0,0,,0,,,72,127
59650,note_off,0,0,0,,5,,,53,127
59651,note_on,1,0,0,,0,,,48,127
59651,note_on,0,0,0,,10,,,69,127
59651,note_on,0,0,0,,0,,,72,127
59869,note_off,218,0,0,,0,,,72,127
59869,note_off,0,0,0,,10,,,69,127
59870,note_on,1,0,0,,11,,,70,127
59870,note_on,0,0,0,,7,,,67,127
60088,note_off,218,0,0,,7,,,67,127
60088,note_off,0,0,0,,11,,,70,127
60088,note_off,0,0,0,,0,,,48,127
60089,note_on,1,0,0,,0,,,48,127
60089,note_on,0,0,0,,7,,,79,127
60198,note_off,109,0,0,,7,,,79,127
60199,note_on,1,0,0,,5,,,77,127
60308,note_off,109,0,0,,5,,,77,127
60309,note_on,1,0,0,,7,,,79,127
60418,note_off,109,0,0,,7,,,79,127
60419,note_on,1,0,0,,11,,,70,127
60419,note_on,0,0,0,,7,,,67,127
60528,note_off,109,0,0,,7,,,67,127
60528,note_off,0,0,0,,11,,,70,127
60528,note_off,0,0,0,,0,,,48,127
60529,note_on,1,0,0,,5,,,53,127
60529,note_on,0,0,0,,11,,,70,127
60529,note_on,0,0,0,,7,,,67,127
60747,note_off,218,0,0,,7,,,67,127
60747,note_off,0,0,0,,11,,,70,127
60748,note_on,1,0,0,,10,,,69,127
60748,note_on,0,0,0,,5,,,65,127
60966,note_off,218,0,0,,5,,,65,127
60966,note_off,0,0,0,,10,,,69,127
60966,note_off,0,0,0,,5,,,53,127
60967,note_on,1,0,0,,6,,,54,127
60967,note_on,0,0,0,,10,,,81,127
61076,note_off,109,0,0,,10,,,81,127
61077,note_on,1,0,0,,7,,,79,127
61186,note_off,109,0,0,,7,,,79,127
61187,note_on,1,0,0,,10,,,81,127
61296,note_off,109,0,0,,10,,,81,127
61297,note_on,1,0,0,,0,,,72,127
61297,note_on,0,0,0,,10,,,69,127
61406,note_off,109,0,0,,10,,,69,127
61406,note_off,0,0,0,,0,,,72,127
61406,note_off,0,0,0,,6,,,54,127
61407,note_on,1,0,0,,7,,,55,127
61407,note_on,0,0,0,,0,,,72,127
61407,note_on,0,0,0,,10,,,69,127
61625,note_off,218,0,0,,10,,,69,127
61625,note_off,0,0,0,,0,,,72,127
61626,note_on,1,0,0,,7,,,67,127
61626,note_on,0,0,0,,11,,,70,127
61844,note_off,218,0,0,,11,,,70,127
61844,note_off,0,0,0,,7,,,67,127
61844,note_off,0,0,0,,7,,,55,127
61845,note_on,1,0,0,,7,,,43,127
61845,note_on,0,0,0,,7,,,79,127
61954,note_off,109,0,0,,7,,,79,127
61955,note_on,1,0,0,,6,,,78,127
62064,note_off,109,0,0,,6,,,78,127
62065,note_on,1,0,0,,7,,,79,127
62174,note_off,109,0,0,,7,,,79,127
62175,note_on,1,0,0,,11,,,70,127
62175,note_on,0,0,0,,7,,,67,127
62284,note_off,109,0,0,,7,,,67,127
62284,note_off,0,0,0,,11,,,70,127
62284,note_off,0,0,0,,7,,,43,127
62285,note_on,1,0,0,,2,,,50,127
62285,note_on,0,0,0,,7,,,67,127
62285,note_on,0,0,0,,11,,,70,127
62503,note_off,218,0,0,,11,,,70,127
62503,note_off,0,0,0,,7,,,67,127
62504,note_on,1,0,0,,10,,,69,127
62504,note_on,0,0,0,,6,,,66,127
62722,note_off,218,0,0,,6,,,66,127
62722,note_off,0,0,0,,10,,,69,127
62722,note_off,0,0,0,,2,,,50,127
62723,note_on,1,0,0,,2,,,50,127
62723,note_on,0,0,0,,10,,,81,127
62832,note_off,109,0,0,,10,,,81,127
62833,note_on,1,0,0,,7,,,79,127
62942,note_off,109,0,0,,7,,,79,127
62943,note_on,1,0,0,,10,,,81,127
63052,note_off,109,0,0,,10,,,81,127
63053,note_on,1,0,0,,10,,,69,127
63053,note_on,0,0,0,,0,,,72,127
63162,note_off,109,0,0,,0,,,72,127
63162,note_off,0,0,0,,10,,,69,127
63162,note_off,0,0,0,,2,,,50,127
63163,note_on,1,0,0,,7,,,43,127
63163,note_on,0,0,0,,10,,,69,127
63163,note_on,0,0,0,,0,,,72,127
63381,note_off,218,0,0,,0,,,72,127
63381,note_off,0,0,0,,10,,,69,127
63382,note_on,1,0,0,,11,,,70,127
63382,note_on,0,0,0,,7,,,67,127
63600,note_off,218,0,0,,7,,,67,127
63600,note_off,0,0,0,,11,,,70,127
63600,note_off,0,0,0,,7,,,43,127
63601,note_on,1,0,0,,7,,,55,127
63601,note_on,0,0,0,,11,,,82,127
63710,note_off,109,0,0,,11,,,82,127
63711,note_on,1,0,0,,10,,,81,127
63820,note_off,109,0,0,,10,,,81,127
63821,note_on,1,0,0,,11,,,82,127
63930,note_off,109,0,0,,11,,,82,127
63931,note_on,1,0,0,,2,,,74,127
63931,note_on,0,0,0,,11,,,70,127
64040,note_off,109,0,0,,11,,,70,127
64040,note_off,0,0,0,,2,,,74,127
64040,note_off,0,0,0,,7,,,55,127
64041,note_on,1,0,0,,5,,,53,127
64041,note_on,0,0,0,,11,,,70,127
64041,note_on,0,0,0,,2,,,74,127
64259,note_off,218,0,0,,2,,,74,127
64259,note_off,0,0,0,,11,,,70,127
64260,note_on,1,0,0,,10,,,69,127
64260,note_on,0,0,0,,0,,,72,127
64478,note_off,218,0,0,,0,,,72,127
64478,note_off,0,0,0,,10,,,69,127
64478,note_off,0,0,0,,5,,,53,127
64479,note_on,1,0,0,,5,,,53,127
64479,note_on,0,0,0,,0,,,84,127
64588,note_off,109,0,0,,0,,,84,127
64589,note_on,1,0,0,,11,,,82,127
64698,note_off,109,0,0,,11,,,82,127
64699,note_on,1,0,0,,0,,,84,127
64808,note_off,109,0,0,,0,,,84,127
64809,note_on,1,0,0,,0,,,72,127
64809,note_on,0,0,0,,3,,,75,127
64918,note_off,109,0,0,,3,,,75,127
64918,note_off,0,0,0,,0,,,72,127
64918,note_off,0,0,0,,5,,,53,127
64919,note_on,1,0,0,,11,,,46,127
64919,note_on,0,0,0,,0,,,72,127
64919,note_on,0,0,0,,3,,,75,127
65137,note_off,218,0,0,,3,,,75,127
65137,note_off,0,0,0,,0,,,72,127
65138,note_on,1,0,0,,2,,,74,127
65138,note_on,0,0,0,,11,,,70,127
65356,note_off,218,0,0,,11,,,70,127
65356,note_off,0,0,0,,2,,,74,127
65356,note_off,0,0,0,,11,,,46,127
65357,note_on,1,0,0,,11,,,46,127
65357,note_on,0,0,0,,2,,,86,127
65466,note_off,109,0,0,,2,,,86,127
65467,note_on,1,0,0,,10,,,81,127
65576,note_off,109,0,0,,10,,,81,127
65577,note_on,1,0,0,,11,,,82,127
65686,note_off,109,0,0,,11,,,82,127
65687,note_on,1,0,0,,5,,,77,127
65796,note_off,109,0,0,,5,,,77,127
65796,note_off,0,0,0,,11,,,46,127
65797,note_on,1,0,0,,3,,,51,127
65797,note_on,0,0,0,,7,,,79,127
65906,note_off,109,0,0,,7,,,79,127
65907,note_on,1,0,0,,3,,,75,127
66016,note_off,109,0,0,,3,,,75,127
66017,note_on,1,0,0,,5,,,77,127
66126,note_off,109,0,0,,5,,,77,127
66127,note_on,1,0,0,,2,,,74,127
66236,note_off,109,0,0,,2,,,74,127
66236,note_off,0,0,0,,3,,,51,127
66237,note_on,1,0,0,,3,,,51,127
66237,note_on,0,0,0,,3,,,75,127
66346,note_off,109,0,0,,3,,,75,127
66347,note_on,1,0,0,,0,,,72,127
66456,note_off,109,0,0,,0,,,72,127
66457,note_on,1,0,0,,7,,,79,127
66566,note_off,109,0,0,,7,,,79,127
66567,note_on,1,0,0,,11,,,70,127
66676,note_off,109,0,0,,11,,,70,127
66676,note_off,0,0,0,,3,,,51,127
66677,note_on,1,0,0,,5,,,53,127
66677,note_on,0,0,0,,0,,,72,127
66731,note_off,54,0,0,,0,,,72,127
66732,note_on,1,0,0,,11,,,70,127
66786,note_off,54,0,0,,11,,,70,127
66787,note_on,1,0,0,,0,,,72,127
66841,note_off,54,0,0,,0,,,72,127
66842,note_on,1,0,0,,11,,,70,127
66896,note_off,54,0,0,,11,,,70,127
66897,note_on,1,0,0,,0,,,72,127
66951,note_off,54,0,0,,0,,,72,127
66952,note_on,1,0,0,,11,,,70,127
67006,note_off,54,0,0,,11,,,70,127
67007,note_on,1,0,0,,10,,,69,127
67226,note_off,219,0,0,,5,,,53,127
67333,note_off,107,0,0,,10,,,69,127
67774,note_on,441,0,0,,2,,,86,127
67774,note_on,0,0,0,,0,,,72,127
67828,note_off,54,0,0,,2,,,86,127
67829,note_on,1,0,0,,0,,,84,127
67883,note_off,54,0,0,,0,,,84,127
67883,note_off,0,0,0,,0,,,72,127
67884,note_on,1,0,0,,2,,,86,127
67884,note_on,0,0,0,,10,,,69,127
67938,note_off,54,0,0,,2,,,86,127
67939,note_on,1,0,0,,0,,,84,127
67993,note_off,54,0,0,,0,,,84,127
67993,note_off,0,0,0,,10,,,69,127
67994,note_on,1,0,0,,2,,,86,127
67994,note_on,0,0,0,,5,,,65,127
68048,note_off,54,0,0,,2,,,86,127
68049,note_on,1,0,0,,0,,,84,127
68103,note_off,54,0,0,,0,,,84,127
68103,note_off,0,0,0,,5,,,65,127
68104,note_on,1,0,0,,2,,,86,127
68104,note_on,0,0,0,,0,,,60,127
68158,note_off,54,0,0,,2,,,86,127
68159,note_on,1,0,0,,0,,,84,127
68213,note_off,54,0,0,,0,,,84,127
68213,note_off,0,0,0,,0,,,60,127
68214,note_on,1,0,0,,2,,,86,127
68214,note_on,0,0,0,,10,,,57,127
68268,note_off,54,0,0,,2,,,86,127
68269,note_on,1,0,0,,0,,,84,127
68323,note_off,54,0,0,,0,,,84,127
68323,note_off,0,0,0,,10,,,57,127
68324,note_on,1,0,0,,2,,,86,127
68324,note_on,0,0,0,,5,,,53,127
68378,note_off,54,0,0,,2,,,86,127
68379,note_on,1,0,0,,0,,,84,127
68433,note_off,54,0,0,,0,,,84,127
68433,note_off,0,0,0,,5,,,53,127
68434,note_on,1,0,0,,2,,,86,127
68434,note_on,0,0,0,,0,,,48,127
68488,note_off,54,0,0,,2,,,86,127
68489,note_on,1,0,0,,0,,,84,127
68543,note_off,54,0,0,,0,,,84,127
68543,note_off,0,0,0,,0,,,48,127
68544,note_on,1,0,0,,2,,,86,127
68544,note_on,0,0,0,,10,,,45,127
68598,note_off,54,0,0,,2,,,86,127
68599,note_on,1,0,0,,0,,,84,127
68653,note_off,54,0,0,,0,,,84,127
68653,note_off,0,0,0,,10,,,45,127
68654,note_on,1,0,0,,2,,,86,127
68654,note_on,0,0,0,,5,,,41,127
68708,note_off,54,0,0,,2,,,86,127
68709,note_on,1,0,0,,0,,,84,127
68763,note_off,54,0,0,,0,,,84,127
68764,note_on,1,0,0,,2,,,86,127
68818,note_off,54,0,0,,2,,,86,127
68819,note_on,1,0,0,,0,,,84,127
68873,note_off,54,0,0,,0,,,84,127
68873,note_off,0,0,0,,5,,,41,127
68874,note_on,1,0,0,,2,,,86,127
68874,note_on,0,0,0,,5,,,41,127
68928,note_off,54,0,0,,2,,,86,127
68929,note_on,1,0,0,,0,,,84,127
68983,note_off,54,0,0,,0,,,84,127
68984,note_on,1,0,0,,2,,,86,127
69038,note_off,54,0,0,,2,,,86,127
69039,note_on,1,0,0,,0,,,84,127
69093,note_off,54,0,0,,0,,,84,127
69093,note_off,0,0,0,,5,,,41,127
69094,note_on,1,0,0,,0,,,84,127
69094,note_on,0,0,0,,5,,,41,127
69203,note_off,109,0,0,,0,,,84,127
69204,note_on,1,0,0,,10,,,81,127
69313,note_off,109,0,0,,10,,,81,127
69314,note_on,1,0,0,,11,,,82,127
69423,note_off,109,0,0,,11,,,82,127
69424,note_on,1,0,0,,7,,,79,127
69533,note_off,109,0,0,,7,,,79,127
69534,note_on,1,0,0,,10,,,81,127
69643,note_off,109,0,0,,10,,,81,127
69644,note_on,1,0,0,,5,,,77,127
69753,note_off,109,0,0,,5,,,77,127
69754,note_on,1,0,0,,7,,,79,127
69863,note_off,109,0,0,,7,,,79,127
69864,note_on,1,0,0,,4,,,76,127
69973,note_off,109,0,0,,4,,,76,127
69973,note_off,0,0,0,,5,,,41,127
69974,note_on,1,0,0,,7,,,79,127
70028,note_off,54,0,0,,7,,,79,127
70029,note_on,1,0,0,,5,,,77,127
70083,note_off,54,0,0,,5,,,77,127
70084,note_on,1,0,0,,7,,,79,127
70138,note_off,54,0,0,,7,,,79,127
70139,note_on,1,0,0,,5,,,77,127
70193,note_off,54,0,0,,5,,,77,127
70194,note_on,1,0,0,,4,,,76,127
70303,note_off,109,0,0,,4,,,76,127
70304,note_on,1,0,0,,5,,,77,127
70413,note_off,109,0,0,,5,,,77,127
70414,note_on,1,0,0,,2,,,86,127
70414,note_on,0,0,0,,0,,,72,127
70468,note_off,54,0,0,,2,,,86,127
70469,note_on,1,0,0,,0,,,84,127
70523,note_off,54,0,0,,0,,,84,127
70523,note_off,0,0,0,,0,,,72,127
70524,note_on,1,0,0,,2,,,86,127
70524,note_on,0,0,0,,10,,,69,127
70578,note_off,54,0,0,,2,,,86,127
70579,note_on,1,0,0,,0,,,84,127
70633,note_off,54,0,0,,0,,,84,127
70633,note_off,0,0,0,,10,,,69,127
70634,note_on,1,0,0,,2,,,86,127
70634,note_on,0,0,0,,5,,,65,127
70688,note_off,54,0,0,,2,,,86,127
70689,note_on,1,0,0,,0,,,84,127
70743,note_off,54,0,0,,0,,,84,127
70743,note_off,0,0,0,,5,,,65,127
70744,note_on,1,0,0,,2,,,86,127
70744,note_on,0,0,0,,0,,,60,127
70798,note_off,54,0,0,,2,,,86,127
70799,note_on,1,0,0,,0,,,84,127
70853,note_off,54,0,0,,0,,,84,127
70853,note_off,0,0,0,,0,,,60,127
70854,note_on,1,0,0,,2,,,86,127
70854,note_on,0,0,0,,10,,,57,127
70908,note_off,54,0,0,,2,,,86,127
70909,note_on,1,0,0,,0,,,84,127
70963,note_off,54,0,0,,0,,,84,127
70963,note_off,0,0,0,,10,,,57,127
70964,note_on,1,0,0,,2,,,86,127
70964,note_on,0,0,0,,5,,,53,127
71018,note_off,54,0,0,,2,,,86,127
71019,note_on,1,0,0,,0,,,84,127
71073,note_off,54,0,0,,0,,,84,127
71073,note_off,0,0,0,,5,,,53,127
71074,note_on,1,0,0,,2,,,86,127
71074,note_on,0,0,0,,0,,,48,127
71128,note_off,54,0,0,,2,,,86,127
71129,note_on,1,0,0,,0,,,84,127
71183,note_off,54,0,0,,0,,,84,127
71183,note_off,0,0,0,,0,,,48,127
71184,note_on,1,0,0,,2,,,86,127
71184,note_on,0,0,0,,10,,,45,127
71238,note_off,54,0,0,,2,,,86,127
71239,note_on,1,0,0,,0,,,84,127
71293,note_off,54,0,0,,0,,,84,127
71293,note_off,0,0,0,,10,,,45,127
71294,note_on,1,0,0,,2,,,86,127
71294,note_on,0,0,0,,5,,,41,127
71348,note_off,54,0,0,,2,,,86,127
71349,note_on,1,0,0,,0,,,84,127
71403,note_off,54,0,0,,0,,,84,127
71404,note_on,1,0,0,,2,,,86,127
71458,note_off,54,0,0,,2,,,86,127
71459,note_on,1,0,0,,0,,,84,127
71513,note_off,54,0,0,,0,,,84,127
71513,note_off,0,0,0,,5,,,41,127
71514,note_on,1,0,0,,2,,,86,127
71514,note_on,0,0,0,,5,,,41,127
71568,note_off,54,0,0,,2,,,86,127
71569,note_on,1,0,0,,0,,,84,127
71623,note_off,54,0,0,,0,,,84,127
71624,note_on,1,0,0,,2,,,86,127
71678,note_off,54,0,0,,2,,,86,127
71679,note_on,1,0,0,,0,,,84,127
71733,note_off,54,0,0,,0,,,84,127
71733,note_off,0,0,0,,5,,,41,127
71734,note_on,1,0,0,,0,,,84,127
71734,note_on,0,0,0,,5,,,41,127
71843,note_off,109,0,0,,0,,,84,127
71844,note_on,1,0,0,,10,,,81,127
71953,note_off,109,0,0,,10,,,81,127
71954,note_on,1,0,0,,11,,,82,127
72063,note_off,109,0,0,,11,,,82,127
72064,note_on,1,0,0,,7,,,79,127
72173,note_off,109,0,0,,7,,,79,127
72174,note_on,1,0,0,,10,,,81,127
72283,note_off,109,0,0,,10,,,81,127
72284,note_on,1,0,0,,2,,,74,127
72341,note_off,57,0,0,,5,,,41,127
72392,note_off,51,0,0,,2,,,74,127
72393,note_on,1,0,0,,3,,,75,127
72393,note_on,0,0,0,,10,,,57,127
72502,note_off,109,0,0,,3,,,75,127
72503,note_on,1,0,0,,0,,,72,127
72612,note_off,109,0,0,,0,,,72,127
72612,note_off,0,0,0,,10,,,57,127
72613,note_on,1,0,0,,2,,,74,127
72613,note_on,0,0,0,,11,,,58,127
72722,note_off,109,0,0,,2,,,74,127
72723,note_on,1,0,0,,5,,,77,127
72832,note_off,109,0,0,,5,,,77,127
72832,note_off,0,0,0,,11,,,58,127
72833,note_on,1,0,0,,3,,,75,127
72833,note_on,0,0,0,,3,,,51,127
72942,note_off,109,0,0,,3,,,75,127
72943,note_on,1,0,0,,0,,,72,127
73052,note_off,109,0,0,,0,,,72,127
73052,note_off,0,0,0,,3,,,51,127
73053,note_on,1,0,0,,11,,,70,127
73053,note_on,0,0,0,,2,,,74,127
73053,note_on,0,0,0,,5,,,53,127
73271,note_off,218,0,0,,5,,,53,127
73271,note_off,0,0,0,,2,,,74,127
73271,note_off,0,0,0,,11,,,70,127
73272,note_on,1,0,0,,0,,,72,127
73272,note_on,0,0,0,,10,,,69,127
73272,note_on,0,0,0,,5,,,41,127
73490,note_off,218,0,0,,5,,,41,127
73490,note_off,0,0,0,,10,,,69,127
73490,note_off,0,0,0,,0,,,72,127
73491,note_on,1,0,0,,11,,,70,127
73491,note_on,0,0,0,,11,,,46,127
73929,note_off,438,0,0,,11,,,46,127
73929,note_off,0,0,0,,11,,,70,127
73930,note_on,1,0,0,,2,,,86,127
73930,note_on,0,0,0,,0,,,72,127
73984,note_off,54,0,0,,2,,,86,127
73985,note_on,1,0,0,,0,,,84,127
74039,note_off,54,0,0,,0,,,84,127
74039,note_off,0,0,0,,0,,,72,127
74040,note_on,1,0,0,,2,,,86,127
74040,note_on,0,0,0,,10,,,69,127
74094,note_off,54,0,0,,2,,,86,127
74095,note_on,1,0,0,,0,,,84,127
74149,note_off,54,0,0,,0,,,84,127
74149,note_off,0,0,0,,10,,,69,127
74150,note_on,1,0,0,,2,,,86,127
74150,note_on,0,0,0,,5,,,65,127
74204,note_off,54,0,0,,2,,,86,127
74205,note_on,1,0,0,,0,,,84,127
74259,note_off,54,0,0,,0,,,84,127
74259,note_off,0,0,0,,5,,,65,127
74260,note_on,1,0,0,,2,,,86,127
74260,note_on,0,0,0,,0,,,60,127
74314,note_off,54,0,0,,2,,,86,127
74315,note_on,1,0,0,,0,,,84,127
74369,note_off,54,0,0,,0,,,84,127
74369,note_off,0,0,0,,0,,,60,127
74370,note_on,1,0,0,,2,,,86,127
74370,note_on,0,0,0,,10,,,57,127
74424,note_off,54,0,0,,2,,,86,127
74425,note_on,1,0,0,,0,,,84,127
74479,note_off,54,0,0,,0,,,84,127
74479,note_off,0,0,0,,10,,,57,127
74480,note_on,1,0,0,,2,,,86,127
74480,note_on,0,0,0,,5,,,53,127
74534,note_off,54,0,0,,2,,,86,127
74535,note_on,1,0,0,,0,,,84,127
74589,note_off,54,0,0,,0,,,84,127
74589,note_off,0,0,0,,5,,,53,127
74590,note_on,1,0,0,,2,,,86,127
74590,note_on,0,0,0,,0,,,48,127
74644,note_off,54,0,0,,2,,,86,127
74645,note_on,1,0,0,,0,,,84,127
74699,note_off,54,0,0,,0,,,84,127
74699,note_off,0,0,0,,0,,,48,127
74700,note_on,1,0,0,,2,,,86,127
74700,note_on,0,0,0,,10,,,45,127
74754,note_off,54,0,0,,2,,,86,127
74755,note_on,1,0,0,,0,,,84,127
74809,note_off,54,0,0,,0,,,84,127
74809,note_off,0,0,0,,10,,,45,127
74810,note_on,1,0,0,,2,,,86,127
74810,note_on,0,0,0,,5,,,41,127
74864,note_off,54,0,0,,2,,,86,127
74865,note_on,1,0,0,,0,,,84,127
74919,note_off,54,0,0,,0,,,84,127
74920,note_on,1,0,0,,2,,,86,127
74974,note_off,54,0,0,,2,,,86,127
74975,note_on,1,0,0,,0,,,84,127
75029,note_off,54,0,0,,0,,,84,127
75029,note_off,0,0,0,,5,,,41,127
75030,note_on,1,0,0,,2,,,86,127
75030,note_on,0,0,0,,5,,,41,127
75084,note_off,54,0,0,,2,,,86,127
75085,note_on,1,0,0,,0,,,84,127
75139,note_off,54,0,0,,0,,,84,127
75140,note_on,1,0,0,,2,,,86,127
75194,note_off,54,0,0,,2,,,86,127
75195,note_on,1,0,0,,0,,,84,127
75249,note_off,54,0,0,,0,,,84,127
75249,note_off,0,0,0,,5,,,41,127
75250,note_on,1,0,0,,0,,,84,127
75250,note_on,0,0,0,,5,,,41,127
75359,note_off,109,0,0,,0,,,84,127
75360,note_on,1,0,0,,10,,,81,127
75469,note_off,109,0,0,,10,,,81,127
75470,note_on,1,0,0,,11,,,82,127
75579,note_off,109,0,0,,11,,,82,127
75580,note_on,1,0,0,,7,,,79,127
75689,note_off,109,0,0,,7,,,79,127
75690,note_on,1,0,0,,10,,,81,127
75799,note_off,109,0,0,,10,,,81,127
75800,note_on,1,0,0,,5,,,77,127
75909,note_off,109,0,0,,5,,,77,127
75910,note_on,1,0,0,,7,,,79,127
76019,note_off,109,0,0,,7,,,79,127
76020,note_on,1,0,0,,4,,,76,127
76129,note_off,109,0,0,,4,,,76,127
76129,note_off,0,0,0,,5,,,41,127
76130,note_on,1,0,0,,7,,,79,127
76184,note_off,54,0,0,,7,,,79,127
76185,note_on,1,0,0,,5,,,77,127
76239,note_off,54,0,0,,5,,,77,127
76240,note_on,1,0,0,,7,,,79,127
76294,note_off,54,0,0,,7,,,79,127
76295,note_on,1,0,0,,5,,,77,127
76349,note_off,54,0,0,,5,,,77,127
76350,note_on,1,0,0,,7,,,79,127
76404,note_off,54,0,0,,7,,,79,127
76405,note_on,1,0,0,,5,,,77,127
76459,note_off,54,0,0,,5,,,77,127
76460,note_on,1,0,0,,4,,,76,127
76514,note_off,54,0,0,,4,,,76,127
76515,note_on,1,0,0,,5,,,77,127
76569,note_off,54,0,0,,5,,,77,127
76570,note_on,1,0,0,,2,,,86,127
76570,note_on,0,0,0,,0,,,72,127
76624,note_off,54,0,0,,2,,,86,127
76625,note_on,1,0,0,,0,,,84,127
76679,note_off,54,0,0,,0,,,84,127
76679,note_off,0,0,0,,0,,,72,127
76680,note_on,1,0,0,,2,,,86,127
76680,note_on,0,0,0,,10,,,69,127
76734,note_off,54,0,0,,2,,,86,127
76735,note_on,1,0,0,,0,,,84,127
76789,note_off,54,0,0,,0,,,84,127
76789,note_off,0,0,0,,10,,,69,127
76790,note_on,1,0,0,,2,,,86,127
76790,note_on,0,0,0,,5,,,65,127
76844,note_off,54,0,0,,2,,,86,127
76845,note_on,1,0,0,,0,,,84,127
76899,note_off,54,0,0,,0,,,84,127
76899,note_off,0,0,0,,5,,,65,127
76900,note_on,1,0,0,,2,,,86,127
76900,note_on,0,0,0,,0,,,60,127
76954,note_off,54,0,0,,2,,,86,127
76955,note_on,1,0,0,,0,,,84,127
77009,note_off,54,0,0,,0,,,84,127
77009,note_off,0,0,0,,0,,,60,127
77010,note_on,1,0,0,,2,,,86,127
77010,note_on,0,0,0,,10,,,57,127
77064,note_off,54,0,0,,2,,,86,127
77065,note_on,1,0,0,,0,,,84,127
77119,note_off,54,0,0,,0,,,84,127
77119,note_off,0,0,0,,10,,,57,127
77120,note_on,1,0,0,,2,,,86,127
77120,note_on,0,0,0,,5,,,53,127
77174,note_off,54,0,0,,2,,,86,127
77175,note_on,1,0,0,,0,,,84,127
77229,note_off,54,0,0,,0,,,84,127
77229,note_off,0,0,0,,5,,,53,127
77230,note_on,1,0,0,,2,,,86,127
77230,note_on,0,0,0,,0,,,48,127
77284,note_off,54,0,0,,2,,,86,127
77285,note_on,1,0,0,,0,,,84,127
77339,note_off,54,0,0,,0,,,84,127
77339,note_off,0,0,0,,0,,,48,127
77340,note_on,1,0,0,,2,,,86,127
77340,note_on,0,0,0,,10,,,45,127
77394,note_off,54,0,0,,2,,,86,127
77395,note_on,1,0,0,,0,,,84,127
77449,note_off,54,0,0,,0,,,84,127
77449,note_off,0,0,0,,10,,,45,127
77450,note_on,1,0,0,,2,,,86,127
77450,note_on,0,0,0,,5,,,41,127
77504,note_off,54,0,0,,2,,,86,127
77505,note_on,1,0,0,,0,,,84,127
77559,note_off,54,0,0,,0,,,84,127
77560,note_on,1,0,0,,2,,,86,127
77614,note_off,54,0,0,,2,,,86,127
77615,note_on,1,0,0,,0,,,84,127
77669,note_off,54,0,0,,0,,,84,127
77669,note_off,0,0,0,,5,,,41,127
77670,note_on,1,0,0,,2,,,86,127
77670,note_on,0,0,0,,5,,,41,127
77724,note_off,54,0,0,,2,,,86,127
77725,note_on,1,0,0,,0,,,84,127
77779,note_off,54,0,0,,0,,,84,127
77780,note_on,1,0,0,,2,,,86,127
77834,note_off,54,0,0,,2,,,86,127
77835,note_on,1,0,0,,0,,,84,127
77889,note_off,54,0,0,,0,,,84,127
77889,note_off,0,0,0,,5,,,41,127
77890,note_on,1,0,0,,0,,,84,127
77890,note_on,0,0,0,,5,,,41,127
77999,note_off,109,0,0,,0,,,84,127
78000,note_on,1,0,0,,10,,,81,127
78109,note_off,109,0,0,,10,,,81,127
78110,note_on,1,0,0,,11,,,82,127
78219,note_off,109,0,0,,11,,,82,127
78220,note_on,1,0,0,,7,,,79,127
78329,note_off,109,0,0,,7,,,79,127
78330,note_on,1,0,0,,10,,,81,127
78439,note_off,109,0,0,,10,,,81,127
78440,note_on,1,0,0,,2,,,74,127
78497,note_off,57,0,0,,5,,,41,127
78548,note_off,51,0,0,,2,,,74,127
78549,note_on,1,0,0,,3,,,75,127
78549,note_on,0,0,0,,10,,,57,127
78658,note_off,109,0,0,,3,,,75,127
78659,note_on,1,0,0,,0,,,72,127
78768,note_off,109,0,0,,0,,,72,127
78768,note_off,0,0,0,,10,,,57,127
78769,note_on,1,0,0,,2,,,74,127
78769,note_on,0,0,0,,11,,,58,127
78878,note_off,109,0,0,,2,,,74,127
78879,note_on,1,0,0,,5,,,77,127
78988,note_off,109,0,0,,5,,,77,127
78988,note_off,0,0,0,,11,,,58,127
78989,note_on,1,0,0,,3,,,75,127
78989,note_on,0,0,0,,3,,,51,127
79098,note_off,109,0,0,,3,,,75,127
79099,note_on,1,0,0,,0,,,72,127
79208,note_off,109,0,0,,0,,,72,127
79208,note_off,0,0,0,,3,,,51,127
79209,note_on,1,0,0,,2,,,74,127
79209,note_on,0,0,0,,11,,,70,127
79209,note_on,0,0,0,,5,,,53,127
79427,note_off,218,0,0,,5,,,53,127
79427,note_off,0,0,0,,11,,,70,127
79427,note_off,0,0,0,,2,,,74,127
79428,note_on,1,0,0,,10,,,69,127
79428,note_on,0,0,0,,0,,,72,127
79428,note_on,0,0,0,,5,,,41,127
79646,note_off,218,0,0,,5,,,41,127
79646,note_off,0,0,0,,0,,,72,127
79646,note_off,0,0,0,,10,,,69,127
79647,note_on,1,0,0,,11,,,70,127
79647,note_on,0,0,0,,11,,,46,127
80085,note_off,438,0,0,,11,,,46,127
80085,note_off,0,0,0,,11,,,70,127
80086,note_on,1,0,0,,2,,,86,127
80086,note_on,0,0,0,,11,,,46,127
80195,note_off,109,0,0,,2,,,86,127
80196,note_on,1,0,0,,0,,,84,127
80305,note_off,109,0,0,,0,,,84,127
80306,note_on,1,0,0,,2,,,86,127
80415,note_off,109,0,0,,2,,,86,127
80416,note_on,1,0,0,,5,,,77,127
80416,note_on,0,0,0,,2,,,74,127
80525,note_off,109,0,0,,2,,,74,127
80525,note_off,0,0,0,,5,,,77,127
80525,note_off,0,0,0,,11,,,46,127
80526,note_on,1,0,0,,5,,,77,127
80526,note_on,0,0,0,,2,,,74,127
80526,note_on,0,0,0,,5,,,53,127
80744,note_off,218,0,0,,2,,,74,127
80744,note_off,0,0,0,,5,,,77,127
80745,note_on,1,0,0,,3,,,75,127
80745,note_on,0,0,0,,0,,,72,127
80963,note_off,218,0,0,,0,,,72,127
80963,note_off,0,0,0,,3,,,75,127
80963,note_off,0,0,0,,5,,,53,127
80964,note_on,1,0,0,,0,,,84,127
80964,note_on,0,0,0,,5,,,53,127
81073,note_off,109,0,0,,0,,,84,127
81074,note_on,1,0,0,,11,,,82,127
81183,note_off,109,0,0,,11,,,82,127
81184,note_on,1,0,0,,0,,,84,127
81293,note_off,109,0,0,,0,,,84,127
81294,note_on,1,0,0,,0,,,72,127
81294,note_on,0,0,0,,3,,,75,127
81403,note_off,109,0,0,,3,,,75,127
81403,note_off,0,0,0,,0,,,72,127
81403,note_off,0,0,0,,5,,,53,127
81404,note_on,1,0,0,,0,,,72,127
81404,note_on,0,0,0,,3,,,75,127
81404,note_on,0,0,0,,11,,,58,127
81622,note_off,218,0,0,,3,,,75,127
81622,note_off,0,0,0,,0,,,72,127
81623,note_on,1,0,0,,2,,,74,127
81623,note_on,0,0,0,,11,,,70,127
81841,note_off,218,0,0,,11,,,70,127
81841,note_off,0,0,0,,2,,,74,127
81841,note_off,0,0,0,,11,,,58,127
81842,note_on,1,0,0,,11,,,82,127
81842,note_on,0,0,0,,11,,,46,127
81951,note_off,109,0,0,,11,,,82,127
81952,note_on,1,0,0,,10,,,81,127
82061,note_off,109,0,0,,10,,,81,127
82062,note_on,1,0,0,,11,,,82,127
82171,note_off,109,0,0,,11,,,82,127
82172,note_on,1,0,0,,5,,,77,127
82281,note_off,109,0,0,,5,,,77,127
82281,note_off,0,0,0,,11,,,46,127
82282,note_on,1,0,0,,7,,,79,127
82282,note_on,0,0,0,,3,,,51,127
82391,note_off,109,0,0,,7,,,79,127
82392,note_on,1,0,0,,2,,,74,127
82501,note_off,109,0,0,,2,,,74,127
82502,note_on,1,0,0,,3,,,75,127
82611,note_off,109,0,0,,3,,,75,127
82612,note_on,1,0,0,,0,,,72,127
82721,note_off,109,0,0,,0,,,72,127
82721,note_off,0,0,0,,3,,,51,127
82722,note_on,1,0,0,,11,,,70,127
82722,note_on,0,0,0,,2,,,74,127
82722,note_on,0,0,0,,5,,,53,127
82940,note_off,218,0,0,,11,,,70,127
82941,note_on,1,0,0,,10,,,69,127
82996,note_off,55,0,0,,2,,,74,127
82996,note_on,0,0,0,,0,,,72,127
83050,note_off,54,0,0,,0,,,72,127
83051,note_on,1,0,0,,2,,,74,127
83105,note_off,54,0,0,,2,,,74,127
83106,note_on,1,0,0,,0,,,72,127
83160,note_off,54,0,0,,0,,,72,127
83160,note_off,0,0,0,,10,,,69,127
83160,note_off,0,0,0,,5,,,53,127
83161,note_on,1,0,0,,11,,,70,127
83161,note_on,0,0,0,,11,,,46,127
83599,note_off,438,0,0,,11,,,46,127
83599,note_off,0,0,0,,11,,,70,127
83605,note_on,6,0,0,,11,,,46,127
83605,note_on,0,0,0,,5,,,77,127
83716,note_off,111,0,0,,5,,,77,127
83718,note_on,2,0,0,,3,,,75,127
83829,note_off,111,0,0,,3,,,75,127
83831,note_on,2,0,0,,5,,,77,127
83942,note_off,111,0,0,,5,,,77,127
83944,note_on,2,0,0,,2,,,62,127
83944,note_on,0,0,0,,5,,,65,127
84055,note_off,111,0,0,,5,,,65,127
84055,note_off,0,0,0,,2,,,62,127
84055,note_off,0,0,0,,11,,,46,127
84057,note_on,2,0,0,,5,,,53,127
84057,note_on,0,0,0,,5,,,65,127
84057,note_on,0,0,0,,2,,,62,127
84281,note_off,224,0,0,,2,,,62,127
84281,note_off,0,0,0,,5,,,65,127
84282,note_on,1,0,0,,3,,,63,127
84282,note_on,0,0,0,,0,,,60,127
84506,note_off,224,0,0,,0,,,60,127
84506,note_off,0,0,0,,3,,,63,127
84507,note_off,1,0,0,,5,,,53,127
84508,note_on,1,0,0,,5,,,41,127
84508,note_on,0,0,0,,3,,,75,127
84619,note_off,111,0,0,,3,,,75,127
84621,note_on,2,0,0,,2,,,74,127
84732,note_off,111,0,0,,2,,,74,127
84734,note_on,2,0,0,,3,,,75,127
84845,note_off,111,0,0,,3,,,75,127
84847,note_on,2,0,0,,3,,,63,127
84847,note_on,0,0,0,,0,,,60,127
84958,note_off,111,0,0,,0,,,60,127
84958,note_off,0,0,0,,3,,,63,127
84958,note_off,0,0,0,,5,,,41,127
84960,note_on,2,0,0,,11,,,46,127
84960,note_on,0,0,0,,0,,,60,127
84960,note_on,0,0,0,,3,,,63,127
85184,note_off,224,0,0,,3,,,63,127
85184,note_off,0,0,0,,0,,,60,127
85186,note_on,2,0,0,,11,,,58,127
85186,note_on,0,0,0,,2,,,62,127
85410,note_off,224,0,0,,2,,,62,127
85410,note_off,0,0,0,,11,,,58,127
85410,note_off,0,0,0,,11,,,46,127
85411,note_on,1,0,0,,2,,,50,127
85411,note_on,0,0,0,,5,,,77,127
85522,note_off,111,0,0,,5,,,77,127
85524,note_on,2,0,0,,10,,,69,127
85635,note_off,111,0,0,,10,,,69,127
85637,note_on,2,0,0,,11,,,70,127
85748,note_off,111,0,0,,11,,,70,127
85750,note_on,2,0,0,,5,,,65,127
85861,note_off,111,0,0,,5,,,65,127
85861,note_off,0,0,0,,2,,,50,127
85863,note_on,2,0,0,,3,,,51,127
85863,note_on,0,0,0,,7,,,67,127
85974,note_off,111,0,0,,7,,,67,127
85976,note_on,2,0,0,,2,,,62,127
86087,note_off,111,0,0,,2,,,62,127
86089,note_on,2,0,0,,3,,,63,127
86200,note_off,111,0,0,,3,,,63,127
86201,note_on,1,0,0,,0,,,60,127
86312,note_off,111,0,0,,0,,,60,127
86313,note_off,1,0,0,,3,,,51,127
86314,note_on,1,0,0,,5,,,53,127
86314,note_on,0,0,0,,2,,,74,127
86369,note_off,55,0,0,,2,,,74,127
86371,note_on,2,0,0,,0,,,72,127
86426,note_off,55,0,0,,0,,,72,127
86427,note_on,1,0,0,,2,,,74,127
86482,note_off,55,0,0,,2,,,74,127
86484,note_on,2,0,0,,0,,,72,127
86539,note_off,55,0,0,,0,,,72,127
86540,note_on,1,0,0,,2,,,74,127
86595,note_off,55,0,0,,2,,,74,127
86597,note_on,2,0,0,,5,,,41,127
86597,note_on,0,0,0,,0,,,72,127
86652,note_off,55,0,0,,0,,,72,127
86653,note_on,1,0,0,,2,,,74,127
86708,note_off,55,0,0,,2,,,74,127
86709,note_on,1,0,0,,0,,,72,127
86764,note_off,55,0,0,,0,,,72,127
86764,note_off,0,0,0,,5,,,53,127
86766,note_on,2,0,0,,11,,,70,127
86821,note_off,55,0,0,,11,,,70,127
86822,note_on,1,0,0,,0,,,72,127
86869,note_off,47,0,0,,5,,,41,127
86885,note_off,16,0,0,,0,,,72,127
86895,note_on,10,0,0,,11,,,46,127
86895,note_on,0,0,0,,11,,,70,127
88686,note_off,1791,0,0,,11,,,70,127
88686,note_off,0,0,0,,11,,,46,127
93696,end_of_track,5010,1,0,,,,,,
