tick,type,time,meta,track,program,channel,pitch,tempo,note,velocity
0,copyright,0,1,0,,,,,,
0,program_change,0,0,0,6,0,,,,
0,pitchwheel,0,0,0,,0,0,,,
0,program_change,0,0,0,6,1,,,,
0,pitchwheel,0,0,0,,1,-590,,,
0,program_change,0,0,0,6,2,,,,
0,pitchwheel,0,0,0,,2,-272,,,
0,program_change,0,0,0,6,3,,,,
0,pitchwheel,0,0,0,,3,-353,,,
0,program_change,0,0,0,6,4,,,,
0,pitchwheel,0,0,0,,4,-560,,,
0,program_change,0,0,0,6,5,,,,
0,pitchwheel,0,0,0,,5,-80,,,
0,program_change,0,0,0,6,6,,,,
0,pitchwheel,0,0,0,,6,-625,,,
0,program_change,0,0,0,6,7,,,,
0,pitchwheel,0,0,0,,7,-130,,,
0,program_change,0,0,0,6,8,,,,
0,pitchwheel,0,0,0,,8,-512,,,
0,program_change,0,0,0,6,10,,,,
0,pitchwheel,0,0,0,,10,-464,,,
0,program_change,0,0,0,6,11,,,,
0,pitchwheel,0,0,0,,11,-208,,,
0,program_change,0,0,0,6,12,,,,
0,pitchwheel,0,0,0,,12,-553,,,
0,set_tempo,0,1,0,,,,500000,,
100,note_on,100,0,0,,2,,,50,127
300,note_on,200,0,0,,2,,,74,127
498,note_off,198,0,0,,2,,,74,127
500,note_on,2,0,0,,2,,,74,127
698,note_off,198,0,0,,2,,,74,127
700,note_on,2,0,0,,6,,,78,127
898,note_off,198,0,0,,6,,,78,127
900,note_on,2,0,0,,6,,,78,127
1098,note_off,198,0,0,,6,,,78,127
1100,note_on,2,0,0,,10,,,81,127
1298,note_off,198,0,0,,10,,,81,127
1300,note_on,2,0,0,,10,,,81,127
1398,note_off,98,0,0,,10,,,81,127
1400,note_on,2,0,0,,7,,,79,127
1498,note_off,98,0,0,,7,,,79,127
1500,note_on,2,0,0,,6,,,78,127
1598,note_off,98,0,0,,6,,,78,127
1600,note_on,2,0,0,,4,,,76,127
1696,note_off,96,0,0,,2,,,50,127
1698,note_off,2,0,0,,4,,,76,127
1700,note_on,2,0,0,,2,,,74,127
1900,note_on,200,0,0,,2,,,62,127
2098,note_off,198,0,0,,2,,,62,127
2100,note_on,2,0,0,,2,,,62,127
2298,note_off,198,0,0,,2,,,62,127
2300,note_on,2,0,0,,6,,,66,127
2498,note_off,198,0,0,,6,,,66,127
2500,note_on,2,0,0,,6,,,66,127
2698,note_off,198,0,0,,6,,,66,127
2700,note_on,2,0,0,,10,,,69,127
2898,note_off,198,0,0,,10,,,69,127
2900,note_on,2,0,0,,10,,,69,127
2998,note_off,98,0,0,,10,,,69,127
3000,note_on,2,0,0,,7,,,67,127
3098,note_off,98,0,0,,7,,,67,127
3100,note_on,2,0,0,,6,,,66,127
3198,note_off,98,0,0,,6,,,66,127
3200,note_on,2,0,0,,4,,,64,127
3298,note_off,98,0,0,,4,,,64,127
3300,note_on,2,0,0,,2,,,62,127
3498,note_off,198,0,0,,2,,,74,127
3500,note_on,2,0,0,,10,,,81,127
3696,note_off,196,0,0,,2,,,62,127
3698,note_off,2,0,0,,10,,,81,127
3700,note_on,2,0,0,,4,,,64,127
3700,note_on,0,0,0,,7,,,79,127
3898,note_off,198,0,0,,7,,,79,127
3898,note_off,0,0,0,,4,,,64,127
3900,note_on,2,0,0,,6,,,66,127
3900,note_on,0,0,0,,6,,,78,127
4098,note_off,198,0,0,,6,,,78,127
4098,note_off,0,0,0,,6,,,66,127
4100,note_on,2,0,0,,7,,,67,127
4100,note_on,0,0,0,,12,,,71,127
4298,note_off,198,0,0,,12,,,71,127
4300,note_on,2,0,0,,4,,,64,127
4300,note_on,0,0,0,,4,,,76,127
4350,note_off,50,0,0,,7,,,67,127
4498,note_off,148,0,0,,4,,,76,127
4498,note_off,0,0,0,,4,,,64,127
4500,note_on,2,0,0,,10,,,69,127
4500,note_on,0,0,0,,2,,,74,127
4565,note_off,65,0,0,,2,,,74,127
4567,note_on,2,0,0,,1,,,73,127
4632,note_off,65,0,0,,1,,,73,127
4634,note_on,2,0,0,,2,,,74,127
4699,note_off,65,0,0,,2,,,74,127
4699,note_off,0,0,0,,10,,,69,127
4701,note_on,2,0,0,,7,,,67,127
4701,note_on,0,0,0,,1,,,73,127
4766,note_off,65,0,0,,1,,,73,127
4768,note_on,2,0,0,,12,,,71,127
4833,note_off,65,0,0,,12,,,71,127
4835,note_on,2,0,0,,1,,,73,127
4900,note_off,65,0,0,,1,,,73,127
4900,note_off,0,0,0,,7,,,67,127
4902,note_on,2,0,0,,6,,,66,127
4902,note_on,0,0,0,,2,,,74,127
5100,note_off,198,0,0,,2,,,74,127
5102,note_on,2,0,0,,2,,,62,127
5102,note_on,0,0,0,,10,,,81,127
5121,note_off,19,0,0,,6,,,66,127
5300,note_off,179,0,0,,10,,,81,127
5300,note_off,0,0,0,,2,,,62,127
5302,note_on,2,0,0,,4,,,64,127
5302,note_on,0,0,0,,7,,,79,127
5500,note_off,198,0,0,,7,,,79,127
5500,note_off,0,0,0,,4,,,64,127
5502,note_on,2,0,0,,6,,,66,127
5502,note_on,0,0,0,,6,,,78,127
5700,note_off,198,0,0,,6,,,78,127
5700,note_off,0,0,0,,6,,,66,127
5702,note_on,2,0,0,,7,,,67,127
5702,note_on,0,0,0,,12,,,71,127
5900,note_off,198,0,0,,7,,,67,127
5902,note_on,2,0,0,,4,,,64,127
5902,note_on,0,0,0,,4,,,76,127
5952,note_off,50,0,0,,12,,,71,127
6100,note_off,148,0,0,,4,,,76,127
6100,note_off,0,0,0,,4,,,64,127
6102,note_on,2,0,0,,10,,,69,127
6102,note_on,0,0,0,,2,,,74,127
6167,note_off,65,0,0,,2,,,74,127
6169,note_on,2,0,0,,1,,,73,127
6234,note_off,65,0,0,,1,,,73,127
6236,note_on,2,0,0,,2,,,74,127
6301,note_off,65,0,0,,2,,,74,127
6301,note_off,0,0,0,,10,,,69,127
6303,note_on,2,0,0,,7,,,67,127
6303,note_on,0,0,0,,1,,,73,127
6368,note_off,65,0,0,,1,,,73,127
6370,note_on,2,0,0,,12,,,71,127
6435,note_off,65,0,0,,12,,,71,127
6437,note_on,2,0,0,,1,,,73,127
6502,note_off,65,0,0,,1,,,73,127
6502,note_off,0,0,0,,7,,,67,127
6504,note_on,2,0,0,,6,,,66,127
6504,note_on,0,0,0,,2,,,74,127
6692,note_off,188,0,0,,6,,,66,127
6705,note_on,13,0,0,,10,,,69,127
6734,note_off,29,0,0,,2,,,74,127
6903,note_off,169,0,0,,10,,,69,127
6905,note_on,2,0,0,,2,,,74,127
7103,note_off,198,0,0,,2,,,74,127
7105,note_on,2,0,0,,6,,,78,127
7303,note_off,198,0,0,,6,,,78,127
7305,note_on,2,0,0,,6,,,78,127
7503,note_off,198,0,0,,6,,,78,127
7505,note_on,2,0,0,,7,,,67,127
7505,note_on,0,0,0,,4,,,76,127
7603,note_off,98,0,0,,7,,,67,127
7605,note_on,2,0,0,,6,,,66,127
7703,note_off,98,0,0,,6,,,66,127
7705,note_on,2,0,0,,4,,,64,127
7803,note_off,98,0,0,,4,,,64,127
7805,note_on,2,0,0,,2,,,62,127
7903,note_off,98,0,0,,2,,,62,127
7905,note_on,2,0,0,,1,,,61,127
8003,note_off,98,0,0,,1,,,61,127
8005,note_on,2,0,0,,12,,,59,127
8103,note_off,98,0,0,,12,,,59,127
8105,note_on,2,0,0,,10,,,57,127
8276,note_off,171,0,0,,4,,,76,127
8305,note_on,29,0,0,,7,,,67,127
8503,note_off,198,0,0,,7,,,67,127
8505,note_on,2,0,0,,1,,,73,127
8703,note_off,198,0,0,,1,,,73,127
8704,note_off,1,0,0,,10,,,57,127
8705,note_on,1,0,0,,4,,,76,127
8903,note_off,198,0,0,,4,,,76,127
8905,note_on,2,0,0,,4,,,76,127
9103,note_off,198,0,0,,4,,,76,127
9105,note_on,2,0,0,,6,,,66,127
9105,note_on,0,0,0,,2,,,74,127
9203,note_off,98,0,0,,6,,,66,127
9205,note_on,2,0,0,,4,,,64,127
9303,note_off,98,0,0,,4,,,64,127
9305,note_on,2,0,0,,2,,,62,127
9403,note_off,98,0,0,,2,,,62,127
9405,note_on,2,0,0,,1,,,61,127
9503,note_off,98,0,0,,1,,,61,127
9505,note_on,2,0,0,,2,,,62,127
9603,note_off,98,0,0,,2,,,62,127
9605,note_on,2,0,0,,4,,,64,127
9703,note_off,98,0,0,,4,,,64,127
9705,note_on,2,0,0,,6,,,66,127
9866,note_off,161,0,0,,2,,,74,127
9906,note_on,40,0,0,,2,,,74,127
10104,note_off,198,0,0,,2,,,74,127
10104,note_off,0,0,0,,6,,,66,127
10106,note_on,2,0,0,,6,,,66,127
10106,note_on,0,0,0,,6,,,78,127
10304,note_off,198,0,0,,6,,,78,127
10306,note_on,2,0,0,,2,,,74,127
10504,note_off,198,0,0,,6,,,66,127
10506,note_on,2,0,0,,8,,,68,127
10650,note_off,144,0,0,,2,,,74,127
10706,note_on,56,0,0,,2,,,74,127
10904,note_off,198,0,0,,2,,,74,127
10904,note_off,0,0,0,,8,,,68,127
10906,note_on,2,0,0,,8,,,68,127
10906,note_on,0,0,0,,6,,,78,127
11104,note_off,198,0,0,,6,,,78,127
11106,note_on,2,0,0,,2,,,74,127
11304,note_off,198,0,0,,2,,,74,127
11304,note_off,0,0,0,,8,,,68,127
11306,note_on,2,0,0,,10,,,69,127
11506,note_on,200,0,0,,1,,,73,127
11704,note_off,198,0,0,,1,,,73,127
11704,note_off,0,0,0,,10,,,69,127
11706,note_on,2,0,0,,10,,,69,127
11706,note_on,0,0,0,,4,,,76,127
11904,note_off,198,0,0,,4,,,76,127
11906,note_on,2,0,0,,1,,,73,127
12104,note_off,198,0,0,,10,,,69,127
12106,note_on,2,0,0,,1,,,61,127
12250,note_off,144,0,0,,1,,,73,127
12306,note_on,56,0,0,,1,,,73,127
12504,note_off,198,0,0,,1,,,73,127
12504,note_off,0,0,0,,1,,,61,127
12506,note_on,2,0,0,,1,,,61,127
12506,note_on,0,0,0,,4,,,76,127
12704,note_off,198,0,0,,4,,,76,127
12706,note_on,2,0,0,,1,,,73,127
12904,note_off,198,0,0,,1,,,73,127
12904,note_off,0,0,0,,1,,,61,127
12906,note_on,2,0,0,,2,,,62,127
13106,note_on,200,0,0,,6,,,78,127
13204,note_off,98,0,0,,6,,,78,127
13206,note_on,2,0,0,,4,,,76,127
13304,note_off,98,0,0,,4,,,76,127
13304,note_off,0,0,0,,2,,,62,127
13306,note_on,2,0,0,,2,,,62,127
13306,note_on,0,0,0,,2,,,74,127
13404,note_off,98,0,0,,2,,,74,127
13406,note_on,2,0,0,,1,,,73,127
13504,note_off,98,0,0,,1,,,73,127
13506,note_on,2,0,0,,12,,,71,127
13604,note_off,98,0,0,,12,,,71,127
13606,note_on,2,0,0,,10,,,69,127
13704,note_off,98,0,0,,10,,,69,127
13704,note_off,0,0,0,,2,,,62,127
13706,note_on,2,0,0,,3,,,63,127
13706,note_on,0,0,0,,10,,,81,127
13804,note_off,98,0,0,,10,,,81,127
13806,note_on,2,0,0,,8,,,80,127
13904,note_off,98,0,0,,8,,,80,127
13906,note_on,2,0,0,,6,,,78,127
14004,note_off,98,0,0,,6,,,78,127
14006,note_on,2,0,0,,4,,,76,127
14104,note_off,98,0,0,,4,,,76,127
14104,note_off,0,0,0,,3,,,63,127
14106,note_on,2,0,0,,3,,,63,127
14106,note_on,0,0,0,,3,,,75,127
14204,note_off,98,0,0,,3,,,75,127
14206,note_on,2,0,0,,1,,,73,127
14304,note_off,98,0,0,,1,,,73,127
14306,note_on,2,0,0,,12,,,71,127
14404,note_off,98,0,0,,12,,,71,127
14406,note_on,2,0,0,,10,,,69,127
14504,note_off,98,0,0,,10,,,69,127
14504,note_off,0,0,0,,3,,,63,127
14506,note_on,2,0,0,,4,,,64,127
14506,note_on,0,0,0,,8,,,68,127
14706,note_on,200,0,0,,12,,,71,127
14725,note_off,19,0,0,,8,,,68,127
14904,note_off,179,0,0,,12,,,71,127
14904,note_off,0,0,0,,4,,,64,127
14906,note_on,2,0,0,,4,,,64,127
14906,note_on,0,0,0,,2,,,74,127
15104,note_off,198,0,0,,2,,,74,127
15106,note_on,2,0,0,,12,,,71,127
15304,note_off,198,0,0,,12,,,71,127
15304,note_off,0,0,0,,4,,,64,127
15306,note_on,2,0,0,,2,,,62,127
15306,note_on,0,0,0,,8,,,68,127
15506,note_on,200,0,0,,12,,,71,127
15525,note_off,19,0,0,,8,,,68,127
15704,note_off,179,0,0,,12,,,71,127
15704,note_off,0,0,0,,2,,,62,127
15706,note_on,2,0,0,,2,,,62,127
15706,note_on,0,0,0,,2,,,74,127
15904,note_off,198,0,0,,2,,,74,127
15906,note_on,2,0,0,,12,,,71,127
16104,note_off,198,0,0,,12,,,71,127
16104,note_off,0,0,0,,2,,,62,127
16106,note_on,2,0,0,,1,,,61,127
16306,note_on,200,0,0,,4,,,76,127
16504,note_off,198,0,0,,4,,,76,127
16504,note_off,0,0,0,,1,,,61,127
16506,note_on,2,0,0,,1,,,61,127
16506,note_on,0,0,0,,8,,,68,127
16704,note_off,198,0,0,,8,,,68,127
16706,note_on,2,0,0,,10,,,69,127
16904,note_off,198,0,0,,10,,,69,127
16904,note_off,0,0,0,,1,,,61,127
16906,note_on,2,0,0,,8,,,56,127
17106,note_on,200,0,0,,12,,,83,127
17304,note_off,198,0,0,,12,,,83,127
17304,note_off,0,0,0,,8,,,56,127
17306,note_on,2,0,0,,8,,,56,127
17306,note_on,0,0,0,,4,,,76,127
17504,note_off,198,0,0,,4,,,76,127
17506,note_on,2,0,0,,2,,,74,127
17704,note_off,198,0,0,,2,,,74,127
17704,note_off,0,0,0,,8,,,56,127
17706,note_on,2,0,0,,10,,,57,127
17906,note_on,200,0,0,,1,,,73,127
17906,note_on,0,0,0,,10,,,69,127
18004,note_off,98,0,0,,1,,,73,127
18006,note_on,2,0,0,,1,,,73,127
18104,note_off,98,0,0,,1,,,73,127
18104,note_off,0,0,0,,10,,,57,127
18106,note_on,2,0,0,,10,,,57,127
18106,note_on,0,0,0,,8,,,80,127
18304,note_off,198,0,0,,8,,,80,127
18306,note_on,2,0,0,,10,,,81,127
18504,note_off,198,0,0,,10,,,57,127
18505,note_off,1,0,0,,10,,,69,127
18506,note_on,1,0,0,,8,,,56,127
18704,note_off,198,0,0,,10,,,81,127
18706,note_on,2,0,0,,10,,,69,127
18706,note_on,0,0,0,,1,,,73,127
18804,note_off,98,0,0,,1,,,73,127
18806,note_on,2,0,0,,1,,,73,127
18904,note_off,98,0,0,,1,,,73,127
18904,note_off,0,0,0,,8,,,56,127
18906,note_on,2,0,0,,8,,,56,127
18906,note_on,0,0,0,,8,,,80,127
19104,note_off,198,0,0,,8,,,80,127
19106,note_on,2,0,0,,10,,,81,127
19304,note_off,198,0,0,,8,,,56,127
19305,note_off,1,0,0,,10,,,69,127
19306,note_on,1,0,0,,6,,,54,127
19504,note_off,198,0,0,,10,,,81,127
19506,note_on,2,0,0,,10,,,69,127
19506,note_on,0,0,0,,1,,,73,127
19604,note_off,98,0,0,,1,,,73,127
19606,note_on,2,0,0,,1,,,73,127
19704,note_off,98,0,0,,1,,,73,127
19704,note_off,0,0,0,,6,,,54,127
19706,note_on,2,0,0,,6,,,54,127
19706,note_on,0,0,0,,8,,,80,127
19904,note_off,198,0,0,,8,,,80,127
19906,note_on,2,0,0,,10,,,81,127
20104,note_off,198,0,0,,6,,,54,127
20105,note_off,1,0,0,,10,,,69,127
20106,note_on,1,0,0,,4,,,52,127
20304,note_off,198,0,0,,10,,,81,127
20306,note_on,2,0,0,,1,,,73,127
20306,note_on,0,0,0,,10,,,69,127
20404,note_off,98,0,0,,1,,,73,127
20406,note_on,2,0,0,,1,,,73,127
20504,note_off,98,0,0,,1,,,73,127
20504,note_off,0,0,0,,4,,,52,127
20506,note_on,2,0,0,,4,,,52,127
20506,note_on,0,0,0,,8,,,80,127
20704,note_off,198,0,0,,8,,,80,127
20706,note_on,2,0,0,,10,,,81,127
20904,note_off,198,0,0,,4,,,52,127
20905,note_off,1,0,0,,10,,,69,127
20906,note_on,1,0,0,,2,,,50,127
21004,note_off,98,0,0,,10,,,81,127
21006,note_on,2,0,0,,4,,,76,127
21104,note_off,98,0,0,,4,,,76,127
21106,note_on,2,0,0,,6,,,78,127
21204,note_off,98,0,0,,6,,,78,127
21206,note_on,2,0,0,,1,,,73,127
21304,note_off,98,0,0,,1,,,73,127
21304,note_off,0,0,0,,2,,,50,127
21306,note_on,2,0,0,,2,,,50,127
21306,note_on,0,0,0,,2,,,74,127
21404,note_off,98,0,0,,2,,,74,127
21406,note_on,2,0,0,,12,,,71,127
21504,note_off,98,0,0,,12,,,71,127
21506,note_on,2,0,0,,4,,,76,127
21604,note_off,98,0,0,,4,,,76,127
21606,note_on,2,0,0,,2,,,74,127
21704,note_off,98,0,0,,2,,,74,127
21704,note_off,0,0,0,,2,,,50,127
21706,note_on,2,0,0,,4,,,52,127
21706,note_on,0,0,0,,1,,,73,127
21904,note_off,198,0,0,,1,,,73,127
21906,note_on,2,0,0,,12,,,71,127
22004,note_off,98,0,0,,12,,,71,127
22006,note_on,2,0,0,,10,,,69,127
22104,note_off,98,0,0,,10,,,69,127
22106,note_on,2,0,0,,4,,,40,127
22106,note_on,0,0,0,,1,,,73,127
22171,note_off,65,0,0,,1,,,73,127
22173,note_on,2,0,0,,12,,,71,127
22238,note_off,65,0,0,,12,,,71,127
22240,note_on,2,0,0,,1,,,73,127
22305,note_off,65,0,0,,1,,,73,127
22307,note_on,2,0,0,,12,,,71,127
22372,note_off,65,0,0,,12,,,71,127
22374,note_on,2,0,0,,10,,,69,127
22439,note_off,65,0,0,,10,,,69,127
22441,note_on,2,0,0,,12,,,71,127
22506,note_off,65,0,0,,12,,,71,127
22506,note_off,0,0,0,,4,,,40,127
22507,note_off,1,0,0,,4,,,52,127
22508,note_on,1,0,0,,10,,,45,127
22708,note_on,200,0,0,,10,,,69,127
22708,note_on,0,0,0,,1,,,73,127
22806,note_off,98,0,0,,1,,,73,127
22808,note_on,2,0,0,,1,,,73,127
22906,note_off,98,0,0,,1,,,73,127
22908,note_on,2,0,0,,10,,,57,127
22908,note_on,0,0,0,,8,,,80,127
23104,note_off,196,0,0,,10,,,69,127
23106,note_off,2,0,0,,8,,,80,127
23107,note_off,1,0,0,,10,,,45,127
23108,note_on,1,0,0,,10,,,81,127
23306,note_off,198,0,0,,10,,,57,127
23308,note_on,2,0,0,,8,,,56,127
23506,note_off,198,0,0,,10,,,81,127
23508,note_on,2,0,0,,1,,,73,127
23508,note_on,0,0,0,,10,,,69,127
23606,note_off,98,0,0,,1,,,73,127
23608,note_on,2,0,0,,1,,,73,127
23706,note_off,98,0,0,,1,,,73,127
23706,note_off,0,0,0,,8,,,56,127
23708,note_on,2,0,0,,8,,,56,127
23708,note_on,0,0,0,,8,,,80,127
23904,note_off,196,0,0,,10,,,69,127
23906,note_off,2,0,0,,8,,,80,127
23908,note_on,2,0,0,,10,,,81,127
24106,note_off,198,0,0,,8,,,56,127
24108,note_on,2,0,0,,6,,,54,127
24306,note_off,198,0,0,,10,,,81,127
24308,note_on,2,0,0,,1,,,73,127
24308,note_on,0,0,0,,10,,,69,127
24406,note_off,98,0,0,,1,,,73,127
24408,note_on,2,0,0,,1,,,73,127
24506,note_off,98,0,0,,1,,,73,127
24506,note_off,0,0,0,,6,,,54,127
24508,note_on,2,0,0,,6,,,54,127
24508,note_on,0,0,0,,8,,,80,127
24704,note_off,196,0,0,,10,,,69,127
24706,note_off,2,0,0,,8,,,80,127
24708,note_on,2,0,0,,10,,,81,127
24906,note_off,198,0,0,,6,,,54,127
24908,note_on,2,0,0,,4,,,52,127
25106,note_off,198,0,0,,10,,,81,127
25108,note_on,2,0,0,,1,,,73,127
25108,note_on,0,0,0,,10,,,69,127
25206,note_off,98,0,0,,1,,,73,127
25208,note_on,2,0,0,,1,,,73,127
25306,note_off,98,0,0,,1,,,73,127
25306,note_off,0,0,0,,4,,,52,127
25308,note_on,2,0,0,,4,,,52,127
25308,note_on,0,0,0,,8,,,80,127
25504,note_off,196,0,0,,10,,,69,127
25506,note_off,2,0,0,,8,,,80,127
25508,note_on,2,0,0,,10,,,81,127
25706,note_off,198,0,0,,4,,,52,127
25708,note_on,2,0,0,,2,,,50,127
25806,note_off,98,0,0,,10,,,81,127
25808,note_on,2,0,0,,4,,,76,127
25906,note_off,98,0,0,,4,,,76,127
25908,note_on,2,0,0,,6,,,78,127
26006,note_off,98,0,0,,6,,,78,127
26008,note_on,2,0,0,,1,,,73,127
26106,note_off,98,0,0,,1,,,73,127
26106,note_off,0,0,0,,2,,,50,127
26108,note_on,2,0,0,,2,,,50,127
26108,note_on,0,0,0,,2,,,74,127
26206,note_off,98,0,0,,2,,,74,127
26208,note_on,2,0,0,,12,,,71,127
26306,note_off,98,0,0,,12,,,71,127
26308,note_on,2,0,0,,4,,,76,127
26406,note_off,98,0,0,,4,,,76,127
26408,note_on,2,0,0,,2,,,74,127
26506,note_off,98,0,0,,2,,,74,127
26506,note_off,0,0,0,,2,,,50,127
26508,note_on,2,0,0,,4,,,52,127
26508,note_on,0,0,0,,1,,,73,127
26706,note_off,198,0,0,,1,,,73,127
26708,note_on,2,0,0,,12,,,71,127
26806,note_off,98,0,0,,12,,,71,127
26808,note_on,2,0,0,,10,,,69,127
26906,note_off,98,0,0,,10,,,69,127
26908,note_on,2,0,0,,4,,,40,127
26908,note_on,0,0,0,,1,,,73,127
26973,note_off,65,0,0,,1,,,73,127
26975,note_on,2,0,0,,12,,,71,127
27040,note_off,65,0,0,,12,,,71,127
27042,note_on,2,0,0,,1,,,73,127
27107,note_off,65,0,0,,1,,,73,127
27109,note_on,2,0,0,,12,,,71,127
27174,note_off,65,0,0,,12,,,71,127
27176,note_on,2,0,0,,10,,,69,127
27241,note_off,65,0,0,,10,,,69,127
27243,note_on,2,0,0,,12,,,71,127
27308,note_off,65,0,0,,12,,,71,127
27308,note_off,0,0,0,,4,,,40,127
27309,note_off,1,0,0,,4,,,52,127
27310,note_on,1,0,0,,10,,,45,127
27310,note_on,0,0,0,,10,,,69,127
27508,note_off,198,0,0,,10,,,69,127
27510,note_on,2,0,0,,4,,,76,127
27608,note_off,98,0,0,,4,,,76,127
27610,note_on,2,0,0,,2,,,74,127
27708,note_off,98,0,0,,2,,,74,127
27708,note_off,0,0,0,,10,,,45,127
27710,note_on,2,0,0,,1,,,49,127
27710,note_on,0,0,0,,1,,,73,127
27808,note_off,98,0,0,,1,,,73,127
27810,note_on,2,0,0,,12,,,71,127
27908,note_off,98,0,0,,12,,,71,127
27910,note_on,2,0,0,,10,,,69,127
28008,note_off,98,0,0,,10,,,69,127
28010,note_on,2,0,0,,8,,,68,127
28108,note_off,98,0,0,,8,,,68,127
28108,note_off,0,0,0,,1,,,49,127
28110,note_on,2,0,0,,2,,,50,127
28110,note_on,0,0,0,,6,,,78,127
28287,note_off,177,0,0,,6,,,78,127
28310,note_on,23,0,0,,2,,,74,127
28508,note_off,198,0,0,,2,,,50,127
28510,note_on,2,0,0,,4,,,52,127
28708,note_off,198,0,0,,2,,,74,127
28710,note_on,2,0,0,,1,,,73,127
28808,note_off,98,0,0,,1,,,73,127
28810,note_on,2,0,0,,12,,,71,127
28908,note_off,98,0,0,,12,,,71,127
28908,note_off,0,0,0,,4,,,52,127
28910,note_on,2,0,0,,10,,,45,127
28910,note_on,0,0,0,,1,,,73,127
29108,note_off,198,0,0,,1,,,73,127
29110,note_on,2,0,0,,4,,,76,127
29208,note_off,98,0,0,,4,,,76,127
29210,note_on,2,0,0,,2,,,74,127
29308,note_off,98,0,0,,2,,,74,127
29308,note_off,0,0,0,,10,,,45,127
29310,note_on,2,0,0,,1,,,49,127
29310,note_on,0,0,0,,1,,,73,127
29408,note_off,98,0,0,,1,,,73,127
29410,note_on,2,0,0,,12,,,71,127
29508,note_off,98,0,0,,12,,,71,127
29510,note_on,2,0,0,,10,,,69,127
29608,note_off,98,0,0,,10,,,69,127
29610,note_on,2,0,0,,8,,,68,127
29708,note_off,98,0,0,,8,,,68,127
29708,note_off,0,0,0,,1,,,49,127
29710,note_on,2,0,0,,2,,,50,127
29710,note_on,0,0,0,,6,,,66,127
29908,note_off,198,0,0,,6,,,66,127
29910,note_on,2,0,0,,12,,,71,127
30108,note_off,198,0,0,,12,,,71,127
30108,note_off,0,0,0,,2,,,50,127
30110,note_on,2,0,0,,4,,,52,127
30110,note_on,0,0,0,,10,,,69,127
30175,note_off,65,0,0,,10,,,69,127
30177,note_on,2,0,0,,8,,,68,127
30242,note_off,65,0,0,,8,,,68,127
30244,note_on,2,0,0,,10,,,69,127
30309,note_off,65,0,0,,10,,,69,127
30311,note_on,2,0,0,,8,,,68,127
30376,note_off,65,0,0,,8,,,68,127
30378,note_on,2,0,0,,6,,,66,127
30443,note_off,65,0,0,,6,,,66,127
30445,note_on,2,0,0,,8,,,68,127
30510,note_off,65,0,0,,8,,,68,127
30510,note_off,0,0,0,,4,,,52,127
30512,note_on,2,0,0,,10,,,45,127
30512,note_on,0,0,0,,10,,,69,127
30712,note_on,200,0,0,,10,,,81,127
30810,note_off,98,0,0,,10,,,81,127
30812,note_off,2,0,0,,10,,,69,127
30812,note_on,0,0,0,,8,,,80,127
30910,note_off,98,0,0,,8,,,80,127
30910,note_off,0,0,0,,10,,,45,127
30912,note_on,2,0,0,,2,,,50,127
30912,note_on,0,0,0,,6,,,78,127
31010,note_off,98,0,0,,6,,,78,127
31012,note_on,2,0,0,,4,,,76,127
31110,note_off,98,0,0,,4,,,76,127
31112,note_on,2,0,0,,2,,,74,127
31210,note_off,98,0,0,,2,,,74,127
31212,note_on,2,0,0,,1,,,73,127
31310,note_off,98,0,0,,1,,,73,127
31310,note_off,0,0,0,,2,,,50,127
31312,note_on,2,0,0,,4,,,52,127
31312,note_on,0,0,0,,12,,,71,127
31410,note_off,98,0,0,,12,,,71,127
31412,note_on,2,0,0,,10,,,69,127
31510,note_off,98,0,0,,10,,,69,127
31512,note_on,2,0,0,,8,,,68,127
31610,note_off,98,0,0,,8,,,68,127
31612,note_on,2,0,0,,6,,,66,127
31710,note_off,98,0,0,,6,,,66,127
31712,note_on,2,0,0,,4,,,40,127
31712,note_on,0,0,0,,4,,,64,127
31810,note_off,98,0,0,,4,,,64,127
31812,note_on,2,0,0,,2,,,62,127
31910,note_off,98,0,0,,2,,,62,127
31912,note_on,2,0,0,,1,,,61,127
32010,note_off,98,0,0,,1,,,61,127
32012,note_on,2,0,0,,12,,,59,127
32110,note_off,98,0,0,,12,,,59,127
32110,note_off,0,0,0,,4,,,40,127
32111,note_off,1,0,0,,4,,,52,127
32112,note_on,1,0,0,,10,,,45,127
32112,note_on,0,0,0,,10,,,57,127
32509,note_off,397,0,0,,10,,,57,127
32511,note_off,2,0,0,,10,,,45,127
32530,note_on,19,0,0,,10,,,57,127
32668,note_off,138,0,0,,10,,,57,127
32672,note_on,4,0,0,,12,,,59,127
32810,note_off,138,0,0,,12,,,59,127
32814,note_on,4,0,0,,1,,,61,127
32952,note_off,138,0,0,,1,,,61,127
32956,note_on,4,0,0,,2,,,62,127
33094,note_off,138,0,0,,2,,,62,127
33098,note_on,4,0,0,,4,,,64,127
33236,note_off,138,0,0,,4,,,64,127
33239,note_on,3,0,0,,6,,,66,127
33377,note_off,138,0,0,,6,,,66,127
33381,note_on,4,0,0,,7,,,67,127
33519,note_off,138,0,0,,7,,,67,127
33523,note_on,4,0,0,,10,,,69,127
33661,note_off,138,0,0,,10,,,69,127
33665,note_on,4,0,0,,12,,,71,127
33803,note_off,138,0,0,,12,,,71,127
33807,note_on,4,0,0,,1,,,61,127
33945,note_off,138,0,0,,1,,,61,127
33949,note_on,4,0,0,,2,,,62,127
34087,note_off,138,0,0,,2,,,62,127
34090,note_on,3,0,0,,4,,,64,127
34228,note_off,138,0,0,,4,,,64,127
34232,note_on,4,0,0,,10,,,57,127
34232,note_on,0,0,0,,10,,,69,127
34370,note_off,138,0,0,,10,,,69,127
34374,note_on,4,0,0,,12,,,71,127
34512,note_off,138,0,0,,12,,,71,127
34512,note_off,0,0,0,,10,,,57,127
34516,note_on,4,0,0,,7,,,55,127
34516,note_on,0,0,0,,1,,,73,127
34654,note_off,138,0,0,,1,,,73,127
34654,note_off,0,0,0,,7,,,55,127
34658,note_on,4,0,0,,6,,,54,127
34658,note_on,0,0,0,,2,,,74,127
34796,note_off,138,0,0,,2,,,74,127
34800,note_on,4,0,0,,4,,,76,127
34938,note_off,138,0,0,,4,,,76,127
34938,note_off,0,0,0,,6,,,54,127
34941,note_on,3,0,0,,2,,,50,127
34941,note_on,0,0,0,,6,,,78,127
35079,note_off,138,0,0,,6,,,78,127
35079,note_off,0,0,0,,2,,,50,127
35083,note_on,4,0,0,,7,,,55,127
35083,note_on,0,0,0,,4,,,76,127
35221,note_off,138,0,0,,4,,,76,127
35225,note_on,4,0,0,,2,,,74,127
35363,note_off,138,0,0,,2,,,74,127
35363,note_off,0,0,0,,7,,,55,127
35366,note_on,3,0,0,,10,,,57,127
35366,note_on,0,0,0,,1,,,73,127
35504,note_off,138,0,0,,1,,,73,127
35504,note_off,0,0,0,,10,,,57,127
35508,note_on,4,0,0,,2,,,50,127
35508,note_on,0,0,0,,2,,,74,127
35646,note_off,138,0,0,,2,,,50,127
35650,note_on,4,0,0,,2,,,62,127
35788,note_off,138,0,0,,2,,,62,127
35791,note_on,3,0,0,,4,,,64,127
35929,note_off,138,0,0,,4,,,64,127
35930,note_off,1,0,0,,2,,,74,127
35933,note_on,3,0,0,,6,,,66,127
35933,note_on,0,0,0,,0,,,72,127
35933,note_on,0,0,0,,2,,,74,127
36071,note_off,138,0,0,,6,,,66,127
36075,note_on,4,0,0,,4,,,64,127
36213,note_off,138,0,0,,4,,,64,127
36217,note_on,4,0,0,,2,,,62,127
36355,note_off,138,0,0,,2,,,62,127
36355,note_off,0,0,0,,2,,,74,127
36355,note_off,0,0,0,,0,,,72,127
36359,note_on,4,0,0,,7,,,67,127
36359,note_on,0,0,0,,2,,,74,127
36359,note_on,0,0,0,,12,,,71,127
36497,note_off,138,0,0,,7,,,67,127
36501,note_on,4,0,0,,7,,,55,127
36639,note_off,138,0,0,,7,,,55,127
36643,note_on,4,0,0,,7,,,67,127
36781,note_off,138,0,0,,7,,,67,127
36781,note_off,0,0,0,,12,,,71,127
36781,note_off,0,0,0,,2,,,74,127
36784,note_on,3,0,0,,6,,,66,127
36784,note_on,0,0,0,,3,,,75,127
36784,note_on,0,0,0,,10,,,69,127
36922,note_off,138,0,0,,3,,,75,127
36926,note_on,4,0,0,,4,,,76,127
37064,note_off,138,0,0,,4,,,76,127
37068,note_on,4,0,0,,3,,,75,127
37204,note_off,136,0,0,,10,,,69,127
37206,note_off,2,0,0,,3,,,75,127
37206,note_off,0,0,0,,6,,,66,127
37210,note_on,4,0,0,,4,,,64,127
37210,note_on,0,0,0,,7,,,67,127
37210,note_on,0,0,0,,4,,,76,127
37348,note_off,138,0,0,,4,,,64,127
37352,note_on,4,0,0,,4,,,52,127
37490,note_off,138,0,0,,4,,,52,127
37494,note_on,4,0,0,,4,,,64,127
37632,note_off,138,0,0,,4,,,64,127
37635,note_on,3,0,0,,2,,,62,127
37635,note_on,0,0,0,,12,,,71,127
37773,note_off,138,0,0,,2,,,62,127
37777,note_on,4,0,0,,2,,,50,127
37915,note_off,138,0,0,,2,,,50,127
37919,note_on,4,0,0,,2,,,62,127
38057,note_off,138,0,0,,2,,,62,127
38057,note_off,0,0,0,,12,,,71,127
38059,note_off,2,0,0,,4,,,76,127
38059,note_off,0,0,0,,7,,,67,127
38061,note_on,2,0,0,,1,,,61,127
38061,note_on,0,0,0,,4,,,76,127
38061,note_on,0,0,0,,11,,,70,127
38199,note_off,138,0,0,,1,,,61,127
38203,note_on,4,0,0,,1,,,49,127
38341,note_off,138,0,0,,1,,,49,127
38345,note_on,4,0,0,,1,,,61,127
38483,note_off,138,0,0,,1,,,61,127
38483,note_off,0,0,0,,11,,,70,127
38483,note_off,0,0,0,,4,,,76,127
38485,note_on,2,0,0,,12,,,59,127
38485,note_on,0,0,0,,7,,,67,127
38485,note_on,0,0,0,,4,,,76,127
38623,note_off,138,0,0,,12,,,59,127
38627,note_on,4,0,0,,12,,,47,127
38765,note_off,138,0,0,,12,,,47,127
38769,note_on,4,0,0,,12,,,59,127
38907,note_off,138,0,0,,12,,,59,127
38907,note_off,0,0,0,,4,,,76,127
38907,note_off,0,0,0,,7,,,67,127
38911,note_on,4,0,0,,11,,,58,127
38911,note_on,0,0,0,,6,,,78,127
38911,note_on,0,0,0,,4,,,76,127
39049,note_off,138,0,0,,4,,,76,127
39053,note_on,4,0,0,,2,,,74,127
39191,note_off,138,0,0,,2,,,74,127
39195,note_on,4,0,0,,1,,,73,127
39331,note_off,136,0,0,,6,,,78,127
39333,note_off,2,0,0,,1,,,73,127
39333,note_off,0,0,0,,11,,,58,127
39336,note_on,3,0,0,,12,,,59,127
39336,note_on,0,0,0,,2,,,74,127
39474,note_off,138,0,0,,2,,,74,127
39474,note_off,0,0,0,,12,,,59,127
39478,note_on,4,0,0,,1,,,61,127
39478,note_on,0,0,0,,4,,,76,127
39616,note_off,138,0,0,,4,,,76,127
39616,note_off,0,0,0,,1,,,61,127
39620,note_on,4,0,0,,2,,,62,127
39620,note_on,0,0,0,,6,,,78,127
39758,note_off,138,0,0,,6,,,78,127
39758,note_off,0,0,0,,2,,,62,127
39762,note_on,4,0,0,,4,,,64,127
39762,note_on,0,0,0,,6,,,78,127
39762,note_on,0,0,0,,7,,,79,127
39900,note_off,138,0,0,,6,,,78,127
39904,note_on,4,0,0,,4,,,76,127
40042,note_off,138,0,0,,4,,,76,127
40046,note_on,4,0,0,,2,,,74,127
40182,note_off,136,0,0,,7,,,79,127
40184,note_off,2,0,0,,2,,,74,127
40184,note_off,0,0,0,,4,,,64,127
40188,note_on,4,0,0,,7,,,67,127
40188,note_on,0,0,0,,4,,,76,127
40188,note_on,0,0,0,,2,,,74,127
40326,note_off,138,0,0,,2,,,74,127
40329,note_on,3,0,0,,1,,,73,127
40467,note_off,138,0,0,,1,,,73,127
40471,note_on,4,0,0,,12,,,71,127
40608,note_off,137,0,0,,4,,,76,127
40609,note_off,1,0,0,,12,,,71,127
40610,note_off,1,0,0,,7,,,67,127
40613,note_on,3,0,0,,6,,,66,127
40613,note_on,0,0,0,,11,,,70,127
40755,note_on,142,0,0,,7,,,79,127
40893,note_off,138,0,0,,7,,,79,127
40897,note_on,4,0,0,,4,,,76,127
41033,note_off,136,0,0,,11,,,70,127
41035,note_off,2,0,0,,4,,,76,127
41039,note_on,4,0,0,,11,,,70,127
41177,note_off,138,0,0,,11,,,70,127
41177,note_off,0,0,0,,6,,,66,127
41180,note_on,3,0,0,,7,,,67,127
41180,note_on,0,0,0,,12,,,71,127
41318,note_off,138,0,0,,12,,,71,127
41318,note_off,0,0,0,,7,,,67,127
41322,note_on,4,0,0,,6,,,66,127
41322,note_on,0,0,0,,11,,,70,127
41460,note_off,138,0,0,,11,,,70,127
41460,note_off,0,0,0,,6,,,66,127
41464,note_on,4,0,0,,7,,,67,127
41464,note_on,0,0,0,,12,,,71,127
41606,note_on,142,0,0,,7,,,79,127
41744,note_off,138,0,0,,7,,,79,127
41747,note_on,3,0,0,,4,,,76,127
41884,note_off,137,0,0,,12,,,71,127
41885,note_off,1,0,0,,4,,,76,127
41886,note_off,1,0,0,,7,,,67,127
41889,note_on,3,0,0,,6,,,66,127
41889,note_on,0,0,0,,11,,,70,127
42027,note_off,138,0,0,,11,,,70,127
42027,note_off,0,0,0,,6,,,66,127
42030,note_on,3,0,0,,7,,,67,127
42030,note_on,0,0,0,,12,,,71,127
42168,note_off,138,0,0,,12,,,71,127
42168,note_off,0,0,0,,7,,,67,127
42172,note_on,4,0,0,,6,,,66,127
42172,note_on,0,0,0,,11,,,70,127
42310,note_off,138,0,0,,11,,,70,127
42310,note_off,0,0,0,,6,,,66,127
42314,note_on,4,0,0,,7,,,67,127
42314,note_on,0,0,0,,12,,,71,127
42452,note_off,138,0,0,,12,,,71,127
42456,note_on,4,0,0,,1,,,73,127
42594,note_off,138,0,0,,1,,,73,127
42598,note_on,4,0,0,,2,,,74,127
42736,note_off,138,0,0,,2,,,74,127
42740,note_on,4,0,0,,4,,,76,127
42878,note_off,138,0,0,,4,,,76,127
42878,note_off,0,0,0,,7,,,67,127
42881,note_on,3,0,0,,6,,,66,127
42881,note_on,0,0,0,,6,,,78,127
43019,note_off,138,0,0,,6,,,78,127
43019,note_off,0,0,0,,6,,,66,127
43023,note_on,4,0,0,,4,,,64,127
43023,note_on,0,0,0,,7,,,79,127
43161,note_off,138,0,0,,7,,,79,127
43161,note_off,0,0,0,,4,,,64,127
43165,note_on,4,0,0,,2,,,62,127
43165,note_on,0,0,0,,6,,,78,127
43303,note_off,138,0,0,,6,,,78,127
43303,note_off,0,0,0,,2,,,62,127
43307,note_on,4,0,0,,1,,,61,127
43307,note_on,0,0,0,,4,,,76,127
43445,note_off,138,0,0,,4,,,76,127
43445,note_off,0,0,0,,1,,,61,127
43449,note_on,4,0,0,,12,,,59,127
43449,note_on,0,0,0,,2,,,74,127
43587,note_off,138,0,0,,2,,,74,127
43587,note_off,0,0,0,,12,,,59,127
43591,note_on,4,0,0,,4,,,64,127
43591,note_on,0,0,0,,1,,,73,127
43729,note_off,138,0,0,,1,,,73,127
43733,note_on,4,0,0,,12,,,71,127
43871,note_off,138,0,0,,12,,,71,127
43871,note_off,0,0,0,,4,,,64,127
43874,note_on,3,0,0,,6,,,66,127
43874,note_on,0,0,0,,11,,,70,127
44012,note_off,138,0,0,,11,,,70,127
44012,note_off,0,0,0,,6,,,66,127
44016,note_on,4,0,0,,3,,,63,127
44016,note_on,0,0,0,,12,,,71,127
44158,note_on,142,0,0,,6,,,78,127
44296,note_off,138,0,0,,6,,,78,127
44297,note_off,1,0,0,,12,,,71,127
44300,note_on,3,0,0,,10,,,69,127
44438,note_off,138,0,0,,10,,,69,127
44438,note_off,0,0,0,,3,,,63,127
44442,note_on,4,0,0,,4,,,64,127
44442,note_on,0,0,0,,7,,,67,127
44580,note_off,138,0,0,,7,,,67,127
44580,note_off,0,0,0,,4,,,64,127
44584,note_on,4,0,0,,3,,,63,127
44584,note_on,0,0,0,,6,,,66,127
44722,note_off,138,0,0,,6,,,66,127
44722,note_off,0,0,0,,3,,,63,127
44725,note_on,3,0,0,,4,,,64,127
44725,note_on,0,0,0,,7,,,67,127
44863,note_off,138,0,0,,7,,,67,127
44863,note_off,0,0,0,,4,,,64,127
44866,note_on,3,0,0,,3,,,63,127
44866,note_on,0,0,0,,6,,,66,127
45008,note_on,142,0,0,,6,,,78,127
45146,note_off,138,0,0,,6,,,78,127
45147,note_off,1,0,0,,6,,,66,127
45150,note_on,3,0,0,,10,,,69,127
45288,note_off,138,0,0,,10,,,69,127
45288,note_off,0,0,0,,3,,,63,127
45292,note_on,4,0,0,,4,,,64,127
45292,note_on,0,0,0,,7,,,67,127
45430,note_off,138,0,0,,7,,,67,127
45430,note_off,0,0,0,,4,,,64,127
45434,note_on,4,0,0,,3,,,63,127
45434,note_on,0,0,0,,6,,,66,127
45572,note_off,138,0,0,,6,,,66,127
45572,note_off,0,0,0,,3,,,63,127
45575,note_on,3,0,0,,4,,,64,127
45575,note_on,0,0,0,,7,,,67,127
45713,note_off,138,0,0,,7,,,67,127
45713,note_off,0,0,0,,4,,,64,127
45717,note_on,4,0,0,,1,,,61,127
45717,note_on,0,0,0,,10,,,69,127
45859,note_on,142,0,0,,4,,,76,127
45997,note_off,138,0,0,,4,,,76,127
45998,note_off,1,0,0,,10,,,69,127
46001,note_on,3,0,0,,7,,,67,127
46139,note_off,138,0,0,,7,,,67,127
46139,note_off,0,0,0,,1,,,61,127
46143,note_on,4,0,0,,2,,,62,127
46143,note_on,0,0,0,,6,,,66,127
46281,note_off,138,0,0,,6,,,66,127
46281,note_off,0,0,0,,2,,,62,127
46285,note_on,4,0,0,,1,,,61,127
46285,note_on,0,0,0,,4,,,64,127
46423,note_off,138,0,0,,4,,,64,127
46423,note_off,0,0,0,,1,,,61,127
46426,note_on,3,0,0,,2,,,62,127
46426,note_on,0,0,0,,6,,,66,127
46564,note_off,138,0,0,,6,,,66,127
46564,note_off,0,0,0,,2,,,62,127
46568,note_on,4,0,0,,1,,,61,127
46568,note_on,0,0,0,,4,,,64,127
46710,note_on,142,0,0,,4,,,76,127
46848,note_off,138,0,0,,4,,,76,127
46852,note_on,4,0,0,,7,,,67,127
46988,note_off,136,0,0,,4,,,64,127
46990,note_off,2,0,0,,7,,,67,127
46990,note_off,0,0,0,,1,,,61,127
46994,note_on,4,0,0,,2,,,62,127
46994,note_on,0,0,0,,6,,,66,127
47132,note_off,138,0,0,,6,,,66,127
47132,note_off,0,0,0,,2,,,62,127
47136,note_on,4,0,0,,1,,,61,127
47136,note_on,0,0,0,,4,,,64,127
47274,note_off,138,0,0,,4,,,64,127
47274,note_off,0,0,0,,1,,,61,127
47278,note_on,4,0,0,,2,,,62,127
47278,note_on,0,0,0,,6,,,66,127
47416,note_off,138,0,0,,6,,,66,127
47416,note_off,0,0,0,,2,,,62,127
47419,note_on,3,0,0,,1,,,61,127
47419,note_on,0,0,0,,4,,,64,127
47557,note_off,138,0,0,,4,,,64,127
47561,note_on,4,0,0,,6,,,66,127
47699,note_off,138,0,0,,6,,,66,127
47699,note_off,0,0,0,,1,,,61,127
47703,note_on,4,0,0,,12,,,59,127
47703,note_on,0,0,0,,7,,,67,127
47841,note_off,138,0,0,,7,,,67,127
47841,note_off,0,0,0,,12,,,59,127
47845,note_on,4,0,0,,10,,,57,127
47845,note_on,0,0,0,,10,,,69,127
47983,note_off,138,0,0,,10,,,69,127
47987,note_on,4,0,0,,12,,,71,127
48125,note_off,138,0,0,,12,,,71,127
48125,note_off,0,0,0,,10,,,57,127
48128,note_on,3,0,0,,7,,,55,127
48128,note_on,0,0,0,,1,,,73,127
48266,note_off,138,0,0,,1,,,73,127
48266,note_off,0,0,0,,7,,,55,127
48269,note_on,3,0,0,,6,,,54,127
48269,note_on,0,0,0,,2,,,74,127
48407,note_off,138,0,0,,2,,,74,127
48407,note_off,0,0,0,,6,,,54,127
48411,note_on,4,0,0,,4,,,52,127
48411,note_on,0,0,0,,4,,,76,127
48549,note_off,138,0,0,,4,,,76,127
48549,note_off,0,0,0,,4,,,52,127
48553,note_on,4,0,0,,2,,,50,127
48553,note_on,0,0,0,,6,,,78,127
48691,note_off,138,0,0,,6,,,78,127
48691,note_off,0,0,0,,2,,,50,127
48695,note_on,4,0,0,,7,,,55,127
48695,note_on,0,0,0,,4,,,76,127
48833,note_off,138,0,0,,7,,,55,127
48837,note_on,4,0,0,,10,,,57,127
48975,note_off,138,0,0,,10,,,57,127
48975,note_off,0,0,0,,4,,,76,127
48979,note_on,4,0,0,,12,,,59,127
48979,note_on,0,0,0,,2,,,74,127
49117,note_off,138,0,0,,2,,,74,127
49117,note_off,0,0,0,,12,,,59,127
49120,note_on,3,0,0,,10,,,57,127
49120,note_on,0,0,0,,1,,,73,127
49262,note_on,142,0,0,,10,,,81,127
49400,note_off,138,0,0,,10,,,81,127
49401,note_off,1,0,0,,1,,,73,127
49404,note_on,3,0,0,,2,,,74,127
49542,note_off,138,0,0,,2,,,74,127
49542,note_off,0,0,0,,10,,,57,127
49546,note_on,4,0,0,,4,,,64,127
49546,note_on,0,0,0,,10,,,57,127
49546,note_on,0,0,0,,1,,,73,127
49684,note_off,138,0,0,,1,,,73,127
49684,note_off,0,0,0,,4,,,64,127
49688,note_on,4,0,0,,6,,,66,127
49688,note_on,0,0,0,,2,,,74,127
49826,note_off,138,0,0,,2,,,74,127
49826,note_off,0,0,0,,6,,,66,127
49830,note_on,4,0,0,,4,,,64,127
49830,note_on,0,0,0,,1,,,73,127
49966,note_off,136,0,0,,10,,,57,127
49968,note_off,2,0,0,,1,,,73,127
49968,note_off,0,0,0,,4,,,64,127
49971,note_on,3,0,0,,10,,,57,127
49971,note_on,0,0,0,,6,,,66,127
49971,note_on,0,0,0,,2,,,74,127
50113,note_on,142,0,0,,10,,,81,127
50251,note_off,138,0,0,,10,,,81,127
50252,note_off,1,0,0,,2,,,74,127
50255,note_on,3,0,0,,2,,,74,127
50393,note_off,138,0,0,,2,,,74,127
50393,note_off,0,0,0,,6,,,66,127
50393,note_off,0,0,0,,10,,,57,127
50397,note_on,4,0,0,,4,,,64,127
50397,note_on,0,0,0,,10,,,57,127
50397,note_on,0,0,0,,1,,,73,127
50535,note_off,138,0,0,,1,,,73,127
50535,note_off,0,0,0,,4,,,64,127
50539,note_on,4,0,0,,6,,,66,127
50539,note_on,0,0,0,,2,,,74,127
50677,note_off,138,0,0,,2,,,74,127
50677,note_off,0,0,0,,6,,,66,127
50681,note_on,4,0,0,,4,,,64,127
50681,note_on,0,0,0,,1,,,73,127
50817,note_off,136,0,0,,10,,,57,127
50819,note_off,2,0,0,,1,,,73,127
50819,note_off,0,0,0,,4,,,64,127
50823,note_on,4,0,0,,10,,,57,127
50823,note_on,0,0,0,,6,,,66,127
50823,note_on,0,0,0,,2,,,74,127
50964,note_on,141,0,0,,6,,,78,127
51102,note_off,138,0,0,,6,,,78,127
51104,note_off,2,0,0,,2,,,74,127
51106,note_on,2,0,0,,10,,,69,127
51244,note_off,138,0,0,,10,,,69,127
51245,note_off,1,0,0,,6,,,66,127
51245,note_off,0,0,0,,10,,,57,127
51247,note_on,2,0,0,,4,,,64,127
51247,note_on,0,0,0,,10,,,57,127
51247,note_on,0,0,0,,7,,,67,127
51389,note_on,142,0,0,,4,,,76,127
51527,note_off,138,0,0,,4,,,76,127
51528,note_off,1,0,0,,7,,,67,127
51531,note_on,3,0,0,,7,,,67,127
51669,note_off,138,0,0,,7,,,67,127
51669,note_off,0,0,0,,10,,,57,127
51669,note_off,0,0,0,,4,,,64,127
51673,note_on,4,0,0,,2,,,62,127
51673,note_on,0,0,0,,6,,,66,127
51811,note_off,138,0,0,,6,,,66,127
51814,note_on,3,0,0,,4,,,76,127
51952,note_off,138,0,0,,4,,,76,127
51956,note_on,4,0,0,,2,,,74,127
52094,note_off,138,0,0,,2,,,74,127
52095,note_off,1,0,0,,2,,,62,127
52098,note_on,3,0,0,,7,,,55,127
52098,note_on,0,0,0,,12,,,71,127
52236,note_off,138,0,0,,12,,,71,127
52240,note_on,4,0,0,,10,,,81,127
52378,note_off,138,0,0,,10,,,81,127
52382,note_on,4,0,0,,7,,,79,127
52520,note_off,138,0,0,,7,,,79,127
52520,note_off,0,0,0,,7,,,55,127
52524,note_on,4,0,0,,10,,,57,127
52524,note_on,0,0,0,,6,,,78,127
52662,note_off,138,0,0,,6,,,78,127
52665,note_on,3,0,0,,4,,,76,127
52803,note_off,138,0,0,,4,,,76,127
52807,note_on,4,0,0,,2,,,74,127
52945,note_off,138,0,0,,2,,,74,127
52946,note_off,1,0,0,,10,,,57,127
52949,note_on,3,0,0,,10,,,45,127
52949,note_on,0,0,0,,6,,,78,127
53016,note_off,67,0,0,,6,,,78,127
53020,note_on,4,0,0,,4,,,76,127
53087,note_off,67,0,0,,4,,,76,127
53091,note_on,4,0,0,,6,,,78,127
53158,note_off,67,0,0,,6,,,78,127
53162,note_on,4,0,0,,4,,,76,127
53229,note_off,67,0,0,,4,,,76,127
53233,note_on,4,0,0,,2,,,74,127
53300,note_off,67,0,0,,2,,,74,127
53304,note_on,4,0,0,,4,,,76,127
53371,note_off,67,0,0,,4,,,76,127
53371,note_off,0,0,0,,10,,,45,127
53375,note_on,4,0,0,,10,,,57,127
53375,note_on,0,0,0,,2,,,74,127
53516,note_on,141,0,0,,10,,,81,127
53654,note_off,138,0,0,,10,,,81,127
53656,note_off,2,0,0,,2,,,74,127
53658,note_on,2,0,0,,2,,,74,127
53796,note_off,138,0,0,,2,,,74,127
53797,note_off,1,0,0,,10,,,57,127
53800,note_on,3,0,0,,10,,,57,127
53800,note_on,0,0,0,,4,,,64,127
53800,note_on,0,0,0,,1,,,73,127
53938,note_off,138,0,0,,1,,,73,127
53938,note_off,0,0,0,,4,,,64,127
53942,note_on,4,0,0,,6,,,66,127
53942,note_on,0,0,0,,2,,,74,127
54080,note_off,138,0,0,,2,,,74,127
54080,note_off,0,0,0,,6,,,66,127
54084,note_on,4,0,0,,4,,,64,127
54084,note_on,0,0,0,,1,,,73,127
54220,note_off,136,0,0,,10,,,57,127
54222,note_off,2,0,0,,1,,,73,127
54222,note_off,0,0,0,,4,,,64,127
54226,note_on,4,0,0,,10,,,57,127
54226,note_on,0,0,0,,6,,,66,127
54226,note_on,0,0,0,,2,,,74,127
54368,note_on,142,0,0,,10,,,81,127
54506,note_off,138,0,0,,10,,,81,127
54507,note_off,1,0,0,,2,,,74,127
54508,note_on,1,0,0,,2,,,74,127
54646,note_off,138,0,0,,2,,,74,127
54648,note_off,2,0,0,,6,,,66,127
54648,note_off,0,0,0,,10,,,57,127
54650,note_on,2,0,0,,4,,,64,127
54650,note_on,0,0,0,,10,,,57,127
54650,note_on,0,0,0,,1,,,73,127
54788,note_off,138,0,0,,1,,,73,127
54788,note_off,0,0,0,,4,,,64,127
54792,note_on,4,0,0,,6,,,66,127
54792,note_on,0,0,0,,2,,,74,127
54930,note_off,138,0,0,,2,,,74,127
54930,note_off,0,0,0,,6,,,66,127
54934,note_on,4,0,0,,4,,,64,127
54934,note_on,0,0,0,,1,,,73,127
55070,note_off,136,0,0,,10,,,57,127
55072,note_off,2,0,0,,1,,,73,127
55072,note_off,0,0,0,,4,,,64,127
55076,note_on,4,0,0,,10,,,57,127
55076,note_on,0,0,0,,6,,,66,127
55076,note_on,0,0,0,,2,,,74,127
55218,note_on,142,0,0,,6,,,78,127
55356,note_off,138,0,0,,6,,,78,127
55357,note_off,1,0,0,,2,,,74,127
55359,note_on,2,0,0,,10,,,69,127
55497,note_off,138,0,0,,10,,,69,127
55498,note_off,1,0,0,,6,,,66,127
55498,note_off,0,0,0,,10,,,57,127
55501,note_on,3,0,0,,4,,,64,127
55501,note_on,0,0,0,,10,,,57,127
55501,note_on,0,0,0,,7,,,67,127
55643,note_on,142,0,0,,4,,,76,127
55781,note_off,138,0,0,,4,,,76,127
55782,note_off,1,0,0,,7,,,67,127
55785,note_on,3,0,0,,7,,,67,127
55923,note_off,138,0,0,,7,,,67,127
55923,note_off,0,0,0,,10,,,57,127
55923,note_off,0,0,0,,4,,,64,127
55927,note_on,4,0,0,,2,,,62,127
55927,note_on,0,0,0,,6,,,66,127
56065,note_off,138,0,0,,6,,,66,127
56069,note_on,4,0,0,,4,,,76,127
56207,note_off,138,0,0,,4,,,76,127
56210,note_on,3,0,0,,2,,,74,127
56348,note_off,138,0,0,,2,,,74,127
56349,note_off,1,0,0,,2,,,62,127
56352,note_on,3,0,0,,7,,,55,127
56352,note_on,0,0,0,,12,,,71,127
56490,note_off,138,0,0,,12,,,71,127
56494,note_on,4,0,0,,10,,,81,127
56632,note_off,138,0,0,,10,,,81,127
56636,note_on,4,0,0,,7,,,79,127
56774,note_off,138,0,0,,7,,,79,127
56774,note_off,0,0,0,,7,,,55,127
56778,note_on,4,0,0,,10,,,57,127
56778,note_on,0,0,0,,6,,,78,127
56916,note_off,138,0,0,,6,,,78,127
56920,note_on,4,0,0,,4,,,76,127
57058,note_off,138,0,0,,4,,,76,127
57061,note_on,3,0,0,,2,,,74,127
57199,note_off,138,0,0,,2,,,74,127
57200,note_off,1,0,0,,10,,,57,127
57203,note_on,3,0,0,,10,,,45,127
57203,note_on,0,0,0,,6,,,78,127
57270,note_off,67,0,0,,6,,,78,127
57274,note_on,4,0,0,,4,,,76,127
57341,note_off,67,0,0,,4,,,76,127
57345,note_on,4,0,0,,6,,,78,127
57412,note_off,67,0,0,,6,,,78,127
57416,note_on,4,0,0,,4,,,76,127
57483,note_off,67,0,0,,4,,,76,127
57487,note_on,4,0,0,,2,,,74,127
57554,note_off,67,0,0,,2,,,74,127
57557,note_on,3,0,0,,4,,,76,127
57624,note_off,67,0,0,,4,,,76,127
57625,note_off,1,0,0,,10,,,45,127
57628,note_on,3,0,0,,2,,,50,127
57628,note_on,0,0,0,,2,,,74,127
57766,note_off,138,0,0,,2,,,74,127
57770,note_on,4,0,0,,10,,,81,127
57908,note_off,138,0,0,,10,,,81,127
57912,note_on,4,0,0,,6,,,78,127
58050,note_off,138,0,0,,6,,,78,127
58050,note_off,0,0,0,,2,,,50,127
58053,note_on,3,0,0,,1,,,61,127
58053,note_on,0,0,0,,2,,,74,127
58191,note_off,138,0,0,,2,,,74,127
58195,note_on,4,0,0,,10,,,69,127
58333,note_off,138,0,0,,10,,,69,127
58337,note_on,4,0,0,,7,,,67,127
58475,note_off,138,0,0,,7,,,67,127
58475,note_off,0,0,0,,1,,,61,127
58479,note_on,4,0,0,,2,,,62,127
58479,note_on,0,0,0,,6,,,66,127
58617,note_off,138,0,0,,6,,,66,127
58621,note_on,4,0,0,,10,,,81,127
58759,note_off,138,0,0,,10,,,81,127
58763,note_on,4,0,0,,6,,,78,127
58901,note_off,138,0,0,,6,,,78,127
58901,note_off,0,0,0,,2,,,62,127
58904,note_on,3,0,0,,1,,,61,127
58904,note_on,0,0,0,,2,,,74,127
59042,note_off,138,0,0,,2,,,74,127
59046,note_on,4,0,0,,10,,,69,127
59184,note_off,138,0,0,,10,,,69,127
59188,note_on,4,0,0,,7,,,67,127
59326,note_off,138,0,0,,7,,,67,127
59326,note_off,0,0,0,,1,,,61,127
59330,note_on,4,0,0,,2,,,62,127
59330,note_on,0,0,0,,6,,,66,127
59468,note_off,138,0,0,,6,,,66,127
59472,note_on,4,0,0,,2,,,74,127
59610,note_off,138,0,0,,2,,,74,127
59614,note_on,4,0,0,,1,,,73,127
59752,note_off,138,0,0,,1,,,73,127
59752,note_off,0,0,0,,2,,,62,127
59755,note_on,3,0,0,,7,,,55,127
59755,note_on,0,0,0,,12,,,71,127
59893,note_off,138,0,0,,12,,,71,127
59897,note_on,4,0,0,,10,,,69,127
60035,note_off,138,0,0,,10,,,69,127
60039,note_on,4,0,0,,7,,,67,127
60177,note_off,138,0,0,,7,,,67,127
60177,note_off,0,0,0,,7,,,55,127
60181,note_on,4,0,0,,10,,,57,127
60181,note_on,0,0,0,,6,,,66,127
60319,note_off,138,0,0,,6,,,66,127
60323,note_on,4,0,0,,4,,,64,127
60461,note_off,138,0,0,,4,,,64,127
60465,note_on,4,0,0,,2,,,62,127
60603,note_off,138,0,0,,2,,,62,127
60606,note_on,3,0,0,,10,,,45,127
60606,note_on,0,0,0,,6,,,78,127
60673,note_off,67,0,0,,6,,,78,127
60676,note_on,3,0,0,,4,,,76,127
60743,note_off,67,0,0,,4,,,76,127
60747,note_on,4,0,0,,6,,,78,127
60814,note_off,67,0,0,,6,,,78,127
60818,note_on,4,0,0,,4,,,76,127
60885,note_off,67,0,0,,4,,,76,127
60889,note_on,4,0,0,,2,,,74,127
60956,note_off,67,0,0,,2,,,74,127
60960,note_on,4,0,0,,4,,,76,127
61027,note_off,67,0,0,,4,,,76,127
61028,note_off,1,0,0,,10,,,45,127
61030,note_off,2,0,0,,10,,,57,127
61044,note_on,14,0,0,,2,,,50,127
61044,note_on,0,0,0,,6,,,78,127
61185,note_off,141,0,0,,6,,,78,127
61190,note_on,5,0,0,,2,,,74,127
61331,note_off,141,0,0,,2,,,74,127
61335,note_on,4,0,0,,1,,,73,127
61476,note_off,141,0,0,,1,,,73,127
61478,note_off,2,0,0,,2,,,50,127
61481,note_on,3,0,0,,7,,,55,127
61481,note_on,0,0,0,,12,,,71,127
61622,note_off,141,0,0,,12,,,71,127
61627,note_on,5,0,0,,10,,,69,127
61768,note_off,141,0,0,,10,,,69,127
61773,note_on,5,0,0,,7,,,67,127
61914,note_off,141,0,0,,7,,,67,127
61915,note_off,1,0,0,,7,,,55,127
61919,note_on,4,0,0,,10,,,57,127
61919,note_on,0,0,0,,6,,,66,127
62060,note_off,141,0,0,,6,,,66,127
62065,note_on,5,0,0,,4,,,64,127
62206,note_off,141,0,0,,4,,,64,127
62210,note_on,4,0,0,,2,,,62,127
62351,note_off,141,0,0,,2,,,62,127
62373,note_on,22,0,0,,6,,,78,127
62373,note_on,0,0,0,,10,,,45,127
62451,note_off,78,0,0,,6,,,78,127
62462,note_on,11,0,0,,4,,,76,127
62540,note_off,78,0,0,,4,,,76,127
62551,note_on,11,0,0,,6,,,78,127
62629,note_off,78,0,0,,6,,,78,127
62640,note_on,11,0,0,,4,,,76,127
62718,note_off,78,0,0,,4,,,76,127
62729,note_on,11,0,0,,2,,,74,127
62790,note_off,61,0,0,,10,,,57,127
62808,note_off,18,0,0,,2,,,74,127
62818,note_on,10,0,0,,4,,,76,127
62866,note_off,48,0,0,,10,,,45,127
62896,note_off,30,0,0,,4,,,76,127
62923,note_on,27,0,0,,2,,,38,127
62923,note_on,0,0,0,,2,,,74,127
65065,note_off,2142,0,0,,2,,,74,127
65065,note_off,0,0,0,,2,,,38,127
69120,end_of_track,4055,1,0,,,,,,
