tick,type,time,meta,track,program,channel,pitch,tempo,note,velocity
0,copyright,0,1,0,,,,,,
0,program_change,0,0,0,6,0,,,,
0,pitchwheel,0,0,0,,0,0,,,
0,program_change,0,0,0,6,1,,,,
0,pitchwheel,0,0,0,,1,-590,,,
0,program_change,0,0,0,6,2,,,,
0,pitchwheel,0,0,0,,2,-272,,,
0,program_change,0,0,0,6,3,,,,
0,pitchwheel,0,0,0,,3,-353,,,
0,program_change,0,0,0,6,4,,,,
0,pitchwheel,0,0,0,,4,-560,,,
0,program_change,0,0,0,6,5,,,,
0,pitchwheel,0,0,0,,5,-80,,,
0,program_change,0,0,0,6,6,,,,
0,pitchwheel,0,0,0,,6,-625,,,
0,program_change,0,0,0,6,7,,,,
0,pitchwheel,0,0,0,,7,-130,,,
0,program_change,0,0,0,6,8,,,,
0,pitchwheel,0,0,0,,8,-512,,,
0,program_change,0,0,0,6,10,,,,
0,pitchwheel,0,0,0,,10,-464,,,
0,program_change,0,0,0,6,11,,,,
0,pitchwheel,0,0,0,,11,-208,,,
0,program_change,0,0,0,6,12,,,,
0,pitchwheel,0,0,0,,12,-553,,,
0,set_tempo,0,1,0,,,,500000,,
114,note_on,114,0,0,,11,,,70,127
227,note_off,113,0,0,,11,,,70,127
228,note_on,1,0,0,,0,,,72,127
341,note_off,113,0,0,,0,,,72,127
342,note_on,1,0,0,,2,,,74,127
455,note_off,113,0,0,,2,,,74,127
456,note_on,1,0,0,,2,,,74,127
569,note_off,113,0,0,,2,,,74,127
570,note_on,1,0,0,,3,,,75,127
683,note_off,113,0,0,,3,,,75,127
684,note_on,1,0,0,,5,,,77,127
797,note_off,113,0,0,,5,,,77,127
798,note_on,1,0,0,,5,,,77,127
911,note_off,113,0,0,,5,,,77,127
912,note_on,1,0,0,,7,,,79,127
1025,note_off,113,0,0,,7,,,79,127
1026,note_on,1,0,0,,10,,,81,127
1139,note_off,113,0,0,,10,,,81,127
1140,note_on,1,0,0,,11,,,82,127
1480,note_off,340,0,0,,11,,,82,127
1481,note_on,1,0,0,,5,,,77,127
1481,note_on,0,0,0,,11,,,58,127
1594,note_off,113,0,0,,11,,,58,127
1595,note_on,1,0,0,,0,,,60,127
1708,note_off,113,0,0,,0,,,60,127
1709,note_on,1,0,0,,2,,,62,127
1822,note_off,113,0,0,,2,,,62,127
1823,note_on,1,0,0,,2,,,62,127
1936,note_off,113,0,0,,2,,,62,127
1937,note_on,1,0,0,,3,,,63,127
2050,note_off,113,0,0,,3,,,63,127
2051,note_on,1,0,0,,5,,,65,127
2164,note_off,113,0,0,,5,,,65,127
2164,note_off,0,0,0,,5,,,77,127
2165,note_on,1,0,0,,3,,,75,127
2165,note_on,0,0,0,,5,,,65,127
2278,note_off,113,0,0,,5,,,65,127
2279,note_on,1,0,0,,7,,,67,127
2392,note_off,113,0,0,,7,,,67,127
2393,note_on,1,0,0,,10,,,69,127
2506,note_off,113,0,0,,10,,,69,127
2506,note_off,0,0,0,,3,,,75,127
2507,note_on,1,0,0,,2,,,74,127
2507,note_on,0,0,0,,11,,,70,127
2847,note_off,340,0,0,,2,,,74,127
2848,note_on,1,0,0,,2,,,74,127
2848,note_on,0,0,0,,11,,,58,127
2961,note_off,113,0,0,,2,,,74,127
2962,note_on,1,0,0,,3,,,75,127
3075,note_off,113,0,0,,3,,,75,127
3076,note_on,1,0,0,,5,,,77,127
3189,note_off,113,0,0,,5,,,77,127
3189,note_off,0,0,0,,11,,,58,127
3189,note_off,0,0,0,,11,,,70,127
3190,note_on,1,0,0,,3,,,75,127
3190,note_on,0,0,0,,0,,,60,127
3303,note_off,113,0,0,,3,,,75,127
3304,note_on,1,0,0,,2,,,74,127
3417,note_off,113,0,0,,2,,,74,127
3418,note_on,1,0,0,,0,,,72,127
3531,note_off,113,0,0,,0,,,72,127
3531,note_off,0,0,0,,0,,,60,127
3532,note_on,1,0,0,,0,,,72,127
3532,note_on,0,0,0,,3,,,63,127
3645,note_off,113,0,0,,0,,,72,127
3646,note_on,1,0,0,,11,,,70,127
3759,note_off,113,0,0,,11,,,70,127
3760,note_on,1,0,0,,10,,,69,127
3873,note_off,113,0,0,,10,,,69,127
3873,note_off,0,0,0,,3,,,63,127
3874,note_on,1,0,0,,11,,,70,127
3874,note_on,0,0,0,,2,,,62,127
4203,note_off,329,0,0,,11,,,70,127
4212,note_off,9,0,0,,2,,,62,127
4216,note_on,4,0,0,,11,,,70,127
4216,note_on,0,0,0,,2,,,62,127
4329,note_off,113,0,0,,2,,,62,127
4330,note_on,1,0,0,,3,,,63,127
4443,note_off,113,0,0,,3,,,63,127
4444,note_on,1,0,0,,5,,,65,127
4557,note_off,113,0,0,,5,,,65,127
4558,note_on,1,0,0,,3,,,63,127
4671,note_off,113,0,0,,3,,,63,127
4672,note_on,1,0,0,,2,,,62,127
4785,note_off,113,0,0,,2,,,62,127
4786,note_on,1,0,0,,0,,,60,127
4899,note_off,113,0,0,,0,,,60,127
4899,note_off,0,0,0,,11,,,70,127
4900,note_on,1,0,0,,0,,,72,127
4900,note_on,0,0,0,,0,,,60,127
5013,note_off,113,0,0,,0,,,60,127
5014,note_on,1,0,0,,11,,,58,127
5127,note_off,113,0,0,,11,,,58,127
5128,note_on,1,0,0,,10,,,57,127
5241,note_off,113,0,0,,10,,,57,127
5241,note_off,0,0,0,,0,,,72,127
5242,note_on,1,0,0,,2,,,74,127
5242,note_on,0,0,0,,11,,,58,127
5582,note_off,340,0,0,,11,,,58,127
5582,note_off,0,0,0,,2,,,74,127
5583,note_on,1,0,0,,2,,,74,127
5583,note_on,0,0,0,,11,,,58,127
5696,note_off,113,0,0,,2,,,74,127
5697,note_on,1,0,0,,3,,,75,127
5810,note_off,113,0,0,,3,,,75,127
5811,note_on,1,0,0,,5,,,77,127
5924,note_off,113,0,0,,5,,,77,127
5924,note_off,0,0,0,,11,,,58,127
5925,note_on,1,0,0,,3,,,75,127
5925,note_on,0,0,0,,0,,,60,127
6038,note_off,113,0,0,,3,,,75,127
6039,note_on,1,0,0,,2,,,74,127
6152,note_off,113,0,0,,2,,,74,127
6153,note_on,1,0,0,,0,,,72,127
6266,note_off,113,0,0,,0,,,72,127
6266,note_off,0,0,0,,0,,,60,127
6267,note_on,1,0,0,,0,,,72,127
6267,note_on,0,0,0,,2,,,74,127
6267,note_on,0,0,0,,10,,,57,127
6380,note_off,113,0,0,,2,,,74,127
6380,note_off,0,0,0,,0,,,72,127
6381,note_on,1,0,0,,11,,,70,127
6494,note_off,113,0,0,,11,,,70,127
6495,note_on,1,0,0,,0,,,72,127
6608,note_off,113,0,0,,0,,,72,127
6608,note_off,0,0,0,,10,,,57,127
6609,note_on,1,0,0,,2,,,74,127
6609,note_on,0,0,0,,6,,,54,127
6949,note_off,340,0,0,,6,,,54,127
6949,note_off,0,0,0,,2,,,74,127
6950,note_on,1,0,0,,2,,,74,127
6950,note_on,0,0,0,,7,,,55,127
7063,note_off,113,0,0,,2,,,74,127
7064,note_on,1,0,0,,3,,,75,127
7177,note_off,113,0,0,,3,,,75,127
7178,note_on,1,0,0,,5,,,77,127
7291,note_off,113,0,0,,5,,,77,127
7291,note_off,0,0,0,,7,,,55,127
7292,note_on,1,0,0,,3,,,75,127
7292,note_on,0,0,0,,0,,,60,127
7405,note_off,113,0,0,,3,,,75,127
7406,note_on,1,0,0,,2,,,74,127
7519,note_off,113,0,0,,2,,,74,127
7520,note_on,1,0,0,,0,,,72,127
7633,note_off,113,0,0,,0,,,72,127
7633,note_off,0,0,0,,0,,,60,127
7634,note_on,1,0,0,,2,,,74,127
7634,note_on,0,0,0,,0,,,72,127
7634,note_on,0,0,0,,8,,,56,127
7747,note_off,113,0,0,,0,,,72,127
7747,note_off,0,0,0,,2,,,74,127
7748,note_on,1,0,0,,12,,,71,127
7861,note_off,113,0,0,,12,,,71,127
7862,note_on,1,0,0,,0,,,72,127
7975,note_off,113,0,0,,0,,,72,127
7975,note_off,0,0,0,,8,,,56,127
7976,note_on,1,0,0,,2,,,74,127
7976,note_on,0,0,0,,7,,,55,127
8316,note_off,340,0,0,,7,,,55,127
8316,note_off,0,0,0,,2,,,74,127
8317,note_on,1,0,0,,2,,,74,127
8317,note_on,0,0,0,,12,,,59,127
8430,note_off,113,0,0,,2,,,74,127
8431,note_on,1,0,0,,4,,,76,127
8544,note_off,113,0,0,,4,,,76,127
8545,note_on,1,0,0,,5,,,77,127
8658,note_off,113,0,0,,5,,,77,127
8658,note_off,0,0,0,,12,,,59,127
8659,note_on,1,0,0,,4,,,76,127
8659,note_on,0,0,0,,0,,,60,127
8772,note_off,113,0,0,,4,,,76,127
8773,note_on,1,0,0,,2,,,74,127
8886,note_off,113,0,0,,2,,,74,127
8887,note_on,1,0,0,,0,,,72,127
9000,note_off,113,0,0,,0,,,72,127
9000,note_off,0,0,0,,0,,,60,127
9001,note_on,1,0,0,,0,,,72,127
9001,note_on,0,0,0,,11,,,70,127
9001,note_on,0,0,0,,4,,,64,127
9114,note_off,113,0,0,,11,,,70,127
9114,note_off,0,0,0,,0,,,72,127
9115,note_on,1,0,0,,10,,,69,127
9228,note_off,113,0,0,,10,,,69,127
9229,note_on,1,0,0,,11,,,70,127
9342,note_off,113,0,0,,11,,,70,127
9342,note_off,0,0,0,,4,,,64,127
9343,note_on,1,0,0,,10,,,69,127
9343,note_on,0,0,0,,5,,,65,127
9457,note_on,114,0,0,,10,,,81,127
9570,note_off,113,0,0,,10,,,81,127
9570,note_off,0,0,0,,10,,,69,127
9571,note_on,1,0,0,,7,,,79,127
9684,note_off,113,0,0,,5,,,65,127
9685,note_on,1,0,0,,10,,,57,127
9798,note_off,113,0,0,,7,,,79,127
9799,note_on,1,0,0,,5,,,77,127
9912,note_off,113,0,0,,5,,,77,127
9913,note_on,1,0,0,,4,,,76,127
10026,note_off,113,0,0,,10,,,57,127
10027,note_on,1,0,0,,11,,,58,127
10140,note_off,113,0,0,,4,,,76,127
10141,note_on,1,0,0,,2,,,74,127
10254,note_off,113,0,0,,2,,,74,127
10255,note_on,1,0,0,,0,,,72,127
10368,note_off,113,0,0,,11,,,58,127
10369,note_on,1,0,0,,11,,,58,127
10482,note_off,113,0,0,,0,,,72,127
10483,note_on,1,0,0,,11,,,70,127
10596,note_off,113,0,0,,11,,,70,127
10597,note_on,1,0,0,,10,,,69,127
10710,note_off,113,0,0,,10,,,69,127
10710,note_off,0,0,0,,11,,,58,127
10711,note_on,1,0,0,,10,,,69,127
10711,note_on,0,0,0,,0,,,60,127
10767,note_off,56,0,0,,10,,,69,127
10768,note_on,1,0,0,,7,,,67,127
10824,note_off,56,0,0,,7,,,67,127
10825,note_on,1,0,0,,10,,,69,127
10881,note_off,56,0,0,,10,,,69,127
10882,note_on,1,0,0,,7,,,67,127
10938,note_off,56,0,0,,7,,,67,127
10939,note_on,1,0,0,,10,,,69,127
10995,note_off,56,0,0,,10,,,69,127
10996,note_on,1,0,0,,7,,,67,127
11052,note_off,56,0,0,,7,,,67,127
11052,note_off,0,0,0,,0,,,60,127
11053,note_on,1,0,0,,7,,,79,127
11053,note_on,0,0,0,,4,,,64,127
11166,note_off,113,0,0,,7,,,79,127
11167,note_on,1,0,0,,4,,,76,127
11280,note_off,113,0,0,,4,,,76,127
11281,note_on,1,0,0,,11,,,70,127
11394,note_off,113,0,0,,11,,,70,127
11394,note_off,0,0,0,,4,,,64,127
11395,note_on,1,0,0,,10,,,69,127
11395,note_on,0,0,0,,5,,,65,127
11509,note_on,114,0,0,,10,,,81,127
11622,note_off,113,0,0,,10,,,81,127
11622,note_off,0,0,0,,10,,,69,127
11623,note_on,1,0,0,,5,,,77,127
11736,note_off,113,0,0,,5,,,65,127
11737,note_on,1,0,0,,5,,,65,127
11850,note_off,113,0,0,,5,,,77,127
11851,note_on,1,0,0,,2,,,74,127
11964,note_off,113,0,0,,2,,,74,127
11965,note_on,1,0,0,,12,,,71,127
12078,note_off,113,0,0,,12,,,71,127
12078,note_off,0,0,0,,5,,,65,127
12079,note_on,1,0,0,,2,,,74,127
12079,note_on,0,0,0,,4,,,64,127
12135,note_off,56,0,0,,2,,,74,127
12136,note_on,1,0,0,,0,,,72,127
12192,note_off,56,0,0,,0,,,72,127
12193,note_on,1,0,0,,2,,,74,127
12249,note_off,56,0,0,,2,,,74,127
12250,note_on,1,0,0,,0,,,72,127
12306,note_off,56,0,0,,0,,,72,127
12307,note_on,1,0,0,,2,,,74,127
12363,note_off,56,0,0,,2,,,74,127
12364,note_on,1,0,0,,0,,,72,127
12420,note_off,56,0,0,,0,,,72,127
12420,note_off,0,0,0,,4,,,64,127
12421,note_on,1,0,0,,7,,,79,127
12421,note_on,0,0,0,,4,,,64,127
12534,note_off,113,0,0,,7,,,79,127
12535,note_on,1,0,0,,4,,,76,127
12648,note_off,113,0,0,,4,,,76,127
12649,note_on,1,0,0,,11,,,70,127
12762,note_off,113,0,0,,11,,,70,127
12762,note_off,0,0,0,,4,,,64,127
12763,note_on,1,0,0,,10,,,69,127
12763,note_on,0,0,0,,5,,,65,127
12877,note_on,114,0,0,,10,,,81,127
12990,note_off,113,0,0,,10,,,81,127
12990,note_off,0,0,0,,10,,,69,127
12991,note_on,1,0,0,,5,,,77,127
13104,note_off,113,0,0,,5,,,65,127
13105,note_on,1,0,0,,5,,,65,127
13218,note_off,113,0,0,,5,,,77,127
13219,note_on,1,0,0,,2,,,74,127
13332,note_off,113,0,0,,2,,,74,127
13333,note_on,1,0,0,,12,,,71,127
13446,note_off,113,0,0,,12,,,71,127
13446,note_off,0,0,0,,5,,,65,127
13447,note_on,1,0,0,,0,,,72,127
13447,note_on,0,0,0,,4,,,64,127
13561,note_on,114,0,0,,7,,,79,127
13589,note_off,28,0,0,,0,,,72,127
13673,note_off,84,0,0,,7,,,79,127
13674,note_on,1,0,0,,4,,,76,127
13787,note_off,113,0,0,,4,,,64,127
13788,note_on,1,0,0,,4,,,64,127
13901,note_off,113,0,0,,4,,,76,127
13902,note_on,1,0,0,,0,,,72,127
14015,note_off,113,0,0,,0,,,72,127
14016,note_on,1,0,0,,11,,,70,127
14129,note_off,113,0,0,,11,,,70,127
14129,note_off,0,0,0,,4,,,64,127
14130,note_on,1,0,0,,10,,,69,127
14130,note_on,0,0,0,,5,,,65,127
14244,note_on,114,0,0,,10,,,81,127
14357,note_off,113,0,0,,10,,,81,127
14357,note_off,0,0,0,,10,,,69,127
14358,note_on,1,0,0,,5,,,77,127
14471,note_off,113,0,0,,5,,,65,127
14472,note_on,1,0,0,,11,,,58,127
14585,note_off,113,0,0,,5,,,77,127
14586,note_on,1,0,0,,2,,,74,127
14699,note_off,113,0,0,,2,,,74,127
14700,note_on,1,0,0,,11,,,70,127
14813,note_off,113,0,0,,11,,,70,127
14813,note_off,0,0,0,,11,,,58,127
14814,note_on,1,0,0,,10,,,69,127
14814,note_on,0,0,0,,0,,,60,127
14927,note_off,113,0,0,,10,,,69,127
14928,note_on,1,0,0,,11,,,70,127
15041,note_off,113,0,0,,11,,,70,127
15042,note_on,1,0,0,,0,,,72,127
15155,note_off,113,0,0,,0,,,72,127
15156,note_on,1,0,0,,11,,,70,127
15156,note_on,0,0,0,,0,,,48,127
15269,note_off,113,0,0,,11,,,70,127
15270,note_on,1,0,0,,10,,,69,127
15383,note_off,113,0,0,,10,,,69,127
15384,note_on,1,0,0,,7,,,67,127
15497,note_off,113,0,0,,7,,,67,127
15497,note_off,0,0,0,,0,,,48,127
15497,note_off,0,0,0,,0,,,60,127
15498,note_on,1,0,0,,5,,,65,127
15498,note_on,0,0,0,,5,,,53,127
15754,note_off,256,0,0,,5,,,65,127
15838,note_off,84,0,0,,5,,,53,127
15839,note_on,1,0,0,,5,,,77,127
15839,note_on,0,0,0,,5,,,65,127
15952,note_off,113,0,0,,5,,,77,127
15953,note_on,1,0,0,,2,,,74,127
16066,note_off,113,0,0,,2,,,74,127
16067,note_on,1,0,0,,12,,,71,127
16180,note_off,113,0,0,,12,,,71,127
16180,note_off,0,0,0,,5,,,65,127
16181,note_on,1,0,0,,2,,,74,127
16181,note_on,0,0,0,,4,,,64,127
16237,note_off,56,0,0,,2,,,74,127
16238,note_on,1,0,0,,0,,,72,127
16294,note_off,56,0,0,,0,,,72,127
16295,note_on,1,0,0,,2,,,74,127
16351,note_off,56,0,0,,2,,,74,127
16352,note_on,1,0,0,,0,,,72,127
16408,note_off,56,0,0,,0,,,72,127
16409,note_on,1,0,0,,2,,,74,127
16465,note_off,56,0,0,,2,,,74,127
16466,note_on,1,0,0,,0,,,72,127
16522,note_off,56,0,0,,0,,,72,127
16522,note_off,0,0,0,,4,,,64,127
16523,note_on,1,0,0,,7,,,79,127
16523,note_on,0,0,0,,4,,,64,127
16636,note_off,113,0,0,,7,,,79,127
16637,note_on,1,0,0,,4,,,76,127
16750,note_off,113,0,0,,4,,,76,127
16751,note_on,1,0,0,,11,,,70,127
16864,note_off,113,0,0,,11,,,70,127
16864,note_off,0,0,0,,4,,,64,127
16865,note_on,1,0,0,,10,,,69,127
16865,note_on,0,0,0,,5,,,65,127
16979,note_on,114,0,0,,10,,,81,127
17092,note_off,113,0,0,,10,,,81,127
17092,note_off,0,0,0,,10,,,69,127
17093,note_on,1,0,0,,5,,,77,127
17206,note_off,113,0,0,,5,,,65,127
17207,note_on,1,0,0,,5,,,65,127
17320,note_off,113,0,0,,5,,,77,127
17321,note_on,1,0,0,,2,,,74,127
17434,note_off,113,0,0,,2,,,74,127
17435,note_on,1,0,0,,12,,,71,127
17548,note_off,113,0,0,,12,,,71,127
17548,note_off,0,0,0,,5,,,65,127
17549,note_on,1,0,0,,0,,,72,127
17549,note_on,0,0,0,,4,,,64,127
17663,note_on,114,0,0,,7,,,79,127
17691,note_off,28,0,0,,0,,,72,127
17775,note_off,84,0,0,,7,,,79,127
17776,note_on,1,0,0,,4,,,76,127
17889,note_off,113,0,0,,4,,,64,127
17890,note_on,1,0,0,,4,,,64,127
18003,note_off,113,0,0,,4,,,76,127
18004,note_on,1,0,0,,0,,,72,127
18117,note_off,113,0,0,,0,,,72,127
18118,note_on,1,0,0,,11,,,70,127
18231,note_off,113,0,0,,11,,,70,127
18231,note_off,0,0,0,,4,,,64,127
18232,note_on,1,0,0,,10,,,69,127
18232,note_on,0,0,0,,5,,,65,127
18346,note_on,114,0,0,,10,,,81,127
18459,note_off,113,0,0,,10,,,81,127
18459,note_off,0,0,0,,10,,,69,127
18460,note_on,1,0,0,,5,,,77,127
18573,note_off,113,0,0,,5,,,65,127
18574,note_on,1,0,0,,11,,,58,127
18687,note_off,113,0,0,,5,,,77,127
18688,note_on,1,0,0,,2,,,74,127
18801,note_off,113,0,0,,2,,,74,127
18802,note_on,1,0,0,,11,,,70,127
18915,note_off,113,0,0,,11,,,70,127
18915,note_off,0,0,0,,11,,,58,127
18916,note_on,1,0,0,,10,,,69,127
18916,note_on,0,0,0,,0,,,60,127
19029,note_off,113,0,0,,10,,,69,127
19030,note_on,1,0,0,,11,,,70,127
19143,note_off,113,0,0,,11,,,70,127
19144,note_on,1,0,0,,0,,,72,127
19257,note_off,113,0,0,,0,,,72,127
19258,note_on,1,0,0,,11,,,70,127
19258,note_on,0,0,0,,0,,,48,127
19371,note_off,113,0,0,,11,,,70,127
19372,note_on,1,0,0,,10,,,69,127
19485,note_off,113,0,0,,10,,,69,127
19486,note_on,1,0,0,,7,,,67,127
19599,note_off,113,0,0,,7,,,67,127
19599,note_off,0,0,0,,0,,,48,127
19599,note_off,0,0,0,,0,,,60,127
19600,note_on,1,0,0,,5,,,65,127
19600,note_on,0,0,0,,5,,,53,127
19713,note_off,113,0,0,,5,,,65,127
19714,note_on,1,0,0,,11,,,70,127
19827,note_off,113,0,0,,11,,,70,127
19828,note_on,1,0,0,,7,,,67,127
19941,note_off,113,0,0,,7,,,67,127
19941,note_off,0,0,0,,5,,,53,127
19942,note_on,1,0,0,,10,,,69,127
19942,note_on,0,0,0,,5,,,53,127
20055,note_off,113,0,0,,10,,,69,127
20056,note_on,1,0,0,,2,,,74,127
20169,note_off,113,0,0,,2,,,74,127
20170,note_on,1,0,0,,11,,,70,127
20283,note_off,113,0,0,,11,,,70,127
20283,note_off,0,0,0,,5,,,53,127
20284,note_on,1,0,0,,0,,,72,127
20284,note_on,0,0,0,,7,,,55,127
20397,note_off,113,0,0,,0,,,72,127
20398,note_on,1,0,0,,7,,,79,127
20511,note_off,113,0,0,,7,,,79,127
20512,note_on,1,0,0,,4,,,76,127
20625,note_off,113,0,0,,4,,,76,127
20625,note_off,0,0,0,,7,,,55,127
20626,note_on,1,0,0,,5,,,77,127
20626,note_on,0,0,0,,7,,,79,127
20626,note_on,0,0,0,,10,,,57,127
20739,note_off,113,0,0,,7,,,79,127
20739,note_off,0,0,0,,5,,,77,127
20740,note_on,1,0,0,,4,,,76,127
20853,note_off,113,0,0,,4,,,76,127
20854,note_on,1,0,0,,5,,,77,127
20967,note_off,113,0,0,,5,,,77,127
20967,note_off,0,0,0,,10,,,57,127
20968,note_on,1,0,0,,7,,,67,127
20968,note_on,0,0,0,,11,,,58,127
21081,note_off,113,0,0,,7,,,67,127
21082,note_on,1,0,0,,10,,,69,127
21195,note_off,113,0,0,,10,,,69,127
21196,note_on,1,0,0,,11,,,70,127
21309,note_off,113,0,0,,11,,,70,127
21309,note_off,0,0,0,,11,,,58,127
21310,note_on,1,0,0,,11,,,70,127
21310,note_on,0,0,0,,11,,,58,127
21423,note_off,113,0,0,,11,,,70,127
21424,note_on,1,0,0,,0,,,72,127
21537,note_off,113,0,0,,0,,,72,127
21538,note_on,1,0,0,,2,,,74,127
21651,note_off,113,0,0,,2,,,74,127
21651,note_off,0,0,0,,11,,,58,127
21652,note_on,1,0,0,,0,,,72,127
21652,note_on,0,0,0,,0,,,60,127
21765,note_off,113,0,0,,0,,,72,127
21766,note_on,1,0,0,,11,,,70,127
21879,note_off,113,0,0,,11,,,70,127
21880,note_on,1,0,0,,10,,,69,127
21993,note_off,113,0,0,,10,,,69,127
21994,note_on,1,0,0,,7,,,67,127
21994,note_on,0,0,0,,0,,,48,127
22107,note_off,113,0,0,,7,,,67,127
22108,note_on,1,0,0,,5,,,65,127
22221,note_off,113,0,0,,5,,,65,127
22222,note_on,1,0,0,,4,,,64,127
22335,note_off,113,0,0,,4,,,64,127
22335,note_off,0,0,0,,0,,,48,127
22335,note_off,0,0,0,,0,,,60,127
22336,note_on,1,0,0,,5,,,65,127
22336,note_on,0,0,0,,5,,,53,127
22449,note_off,113,0,0,,5,,,65,127
22450,note_on,1,0,0,,11,,,70,127
22563,note_off,113,0,0,,11,,,70,127
22564,note_on,1,0,0,,7,,,67,127
22677,note_off,113,0,0,,7,,,67,127
22677,note_off,0,0,0,,5,,,53,127
22678,note_on,1,0,0,,10,,,69,127
22678,note_on,0,0,0,,5,,,53,127
22791,note_off,113,0,0,,10,,,69,127
22792,note_on,1,0,0,,2,,,74,127
22905,note_off,113,0,0,,2,,,74,127
22906,note_on,1,0,0,,11,,,70,127
23019,note_off,113,0,0,,11,,,70,127
23019,note_off,0,0,0,,5,,,53,127
23020,note_on,1,0,0,,0,,,72,127
23020,note_on,0,0,0,,7,,,55,127
23133,note_off,113,0,0,,0,,,72,127
23134,note_on,1,0,0,,7,,,79,127
23247,note_off,113,0,0,,7,,,79,127
23248,note_on,1,0,0,,4,,,76,127
23361,note_off,113,0,0,,4,,,76,127
23361,note_off,0,0,0,,7,,,55,127
23362,note_on,1,0,0,,5,,,77,127
23362,note_on,0,0,0,,7,,,79,127
23362,note_on,0,0,0,,10,,,57,127
23475,note_off,113,0,0,,7,,,79,127
23475,note_off,0,0,0,,5,,,77,127
23476,note_on,1,0,0,,4,,,76,127
23589,note_off,113,0,0,,4,,,76,127
23590,note_on,1,0,0,,5,,,77,127
23703,note_off,113,0,0,,5,,,77,127
23703,note_off,0,0,0,,10,,,57,127
23704,note_on,1,0,0,,7,,,67,127
23704,note_on,0,0,0,,11,,,58,127
23817,note_off,113,0,0,,7,,,67,127
23818,note_on,1,0,0,,10,,,69,127
23931,note_off,113,0,0,,10,,,69,127
23932,note_on,1,0,0,,11,,,70,127
24045,note_off,113,0,0,,11,,,70,127
24045,note_off,0,0,0,,11,,,58,127
24046,note_on,1,0,0,,11,,,70,127
24046,note_on,0,0,0,,11,,,58,127
24159,note_off,113,0,0,,11,,,70,127
24160,note_on,1,0,0,,0,,,72,127
24273,note_off,113,0,0,,0,,,72,127
24274,note_on,1,0,0,,2,,,74,127
24387,note_off,113,0,0,,2,,,74,127
24387,note_off,0,0,0,,11,,,58,127
24388,note_on,1,0,0,,0,,,72,127
24388,note_on,0,0,0,,0,,,60,127
24501,note_off,113,0,0,,0,,,72,127
24502,note_on,1,0,0,,11,,,70,127
24615,note_off,113,0,0,,11,,,70,127
24616,note_on,1,0,0,,10,,,69,127
24729,note_off,113,0,0,,10,,,69,127
24730,note_on,1,0,0,,7,,,67,127
24730,note_on,0,0,0,,0,,,48,127
24843,note_off,113,0,0,,7,,,67,127
24844,note_on,1,0,0,,5,,,65,127
24957,note_off,113,0,0,,5,,,65,127
24958,note_on,1,0,0,,4,,,64,127
25071,note_off,113,0,0,,4,,,64,127
25071,note_off,0,0,0,,0,,,48,127
25071,note_off,0,0,0,,0,,,60,127
25072,note_on,1,0,0,,5,,,65,127
25072,note_on,0,0,0,,5,,,53,127
25185,note_off,113,0,0,,5,,,65,127
25186,note_on,1,0,0,,10,,,69,127
25299,note_off,113,0,0,,10,,,69,127
25300,note_on,1,0,0,,0,,,72,127
25413,note_off,113,0,0,,5,,,53,127
25414,note_on,1,0,0,,0,,,48,127
25527,note_off,113,0,0,,0,,,72,127
25528,note_on,1,0,0,,11,,,70,127
25641,note_off,113,0,0,,11,,,70,127
25642,note_on,1,0,0,,7,,,67,127
25755,note_off,113,0,0,,7,,,67,127
25755,note_off,0,0,0,,0,,,48,127
25756,note_on,1,0,0,,5,,,65,127
25756,note_on,0,0,0,,5,,,53,127
25869,note_off,113,0,0,,5,,,65,127
25870,note_on,1,0,0,,10,,,69,127
25983,note_off,113,0,0,,10,,,69,127
25984,note_on,1,0,0,,0,,,72,127
26097,note_off,113,0,0,,5,,,53,127
26098,note_on,1,0,0,,0,,,48,127
26211,note_off,113,0,0,,0,,,72,127
26212,note_on,1,0,0,,11,,,70,127
26325,note_off,113,0,0,,11,,,70,127
26326,note_on,1,0,0,,7,,,67,127
26439,note_off,113,0,0,,7,,,67,127
26439,note_off,0,0,0,,0,,,48,127
26440,note_on,1,0,0,,5,,,65,127
26440,note_on,0,0,0,,5,,,53,127
26553,note_off,113,0,0,,5,,,65,127
26554,note_on,1,0,0,,10,,,69,127
26667,note_off,113,0,0,,10,,,69,127
26668,note_on,1,0,0,,0,,,72,127
26781,note_off,113,0,0,,5,,,53,127
26782,note_on,1,0,0,,0,,,48,127
26895,note_off,113,0,0,,0,,,72,127
26896,note_on,1,0,0,,11,,,70,127
27009,note_off,113,0,0,,11,,,70,127
27010,note_on,1,0,0,,7,,,67,127
27123,note_off,113,0,0,,7,,,67,127
27123,note_off,0,0,0,,0,,,48,127
27124,note_on,1,0,0,,10,,,69,127
27124,note_on,0,0,0,,5,,,53,127
27237,note_off,113,0,0,,10,,,69,127
27238,note_on,1,0,0,,0,,,72,127
27351,note_off,113,0,0,,0,,,72,127
27352,note_on,1,0,0,,5,,,77,127
27465,note_off,113,0,0,,5,,,77,127
27465,note_off,0,0,0,,5,,,53,127
27466,note_on,1,0,0,,7,,,67,127
27466,note_on,0,0,0,,0,,,48,127
27579,note_off,113,0,0,,7,,,67,127
27580,note_on,1,0,0,,5,,,77,127
27693,note_off,113,0,0,,5,,,77,127
27694,note_on,1,0,0,,4,,,76,127
27807,note_off,113,0,0,,4,,,76,127
27807,note_off,0,0,0,,0,,,48,127
27808,note_on,1,0,0,,5,,,77,127
27808,note_on,0,0,0,,5,,,41,127
28148,note_off,340,0,0,,5,,,77,127
28149,note_on,1,0,0,,5,,,65,127
28262,note_off,113,0,0,,5,,,65,127
28263,note_on,1,0,0,,7,,,67,127
28319,note_off,56,0,0,,5,,,41,127
28376,note_off,57,0,0,,7,,,67,127
28377,note_on,1,0,0,,10,,,69,127
28490,note_off,113,0,0,,10,,,69,127
28491,note_on,1,0,0,,10,,,69,127
28491,note_on,0,0,0,,5,,,53,127
28604,note_off,113,0,0,,10,,,69,127
28605,note_on,1,0,0,,11,,,70,127
28718,note_off,113,0,0,,11,,,70,127
28719,note_on,1,0,0,,0,,,72,127
28832,note_off,113,0,0,,0,,,72,127
28832,note_off,0,0,0,,5,,,53,127
28833,note_on,1,0,0,,3,,,75,127
28833,note_on,0,0,0,,5,,,77,127
28833,note_on,0,0,0,,3,,,51,127
28946,note_off,113,0,0,,5,,,77,127
28946,note_off,0,0,0,,3,,,75,127
28947,note_on,1,0,0,,2,,,74,127
29060,note_off,113,0,0,,2,,,74,127
29061,note_on,1,0,0,,0,,,72,127
29174,note_off,113,0,0,,0,,,72,127
29174,note_off,0,0,0,,3,,,51,127
29175,note_on,1,0,0,,0,,,72,127
29175,note_on,0,0,0,,11,,,70,127
29175,note_on,0,0,0,,2,,,50,127
29288,note_off,113,0,0,,11,,,70,127
29288,note_off,0,0,0,,0,,,72,127
29289,note_on,1,0,0,,10,,,69,127
29402,note_off,113,0,0,,10,,,69,127
29403,note_on,1,0,0,,11,,,70,127
29516,note_off,113,0,0,,11,,,70,127
29516,note_off,0,0,0,,2,,,50,127
29517,note_on,1,0,0,,5,,,77,127
29517,note_on,0,0,0,,2,,,62,127
29630,note_off,113,0,0,,5,,,77,127
29631,note_on,1,0,0,,3,,,75,127
29744,note_off,113,0,0,,3,,,75,127
29745,note_on,1,0,0,,2,,,74,127
29858,note_off,113,0,0,,2,,,74,127
29858,note_off,0,0,0,,2,,,62,127
29859,note_on,1,0,0,,2,,,74,127
29859,note_on,0,0,0,,2,,,62,127
29972,note_off,113,0,0,,2,,,74,127
29973,note_on,1,0,0,,0,,,72,127
30086,note_off,113,0,0,,0,,,72,127
30087,note_on,1,0,0,,11,,,70,127
30200,note_off,113,0,0,,11,,,70,127
30200,note_off,0,0,0,,2,,,62,127
30201,note_on,1,0,0,,11,,,70,127
30201,note_on,0,0,0,,8,,,68,127
30201,note_on,0,0,0,,0,,,60,127
30314,note_off,113,0,0,,8,,,68,127
30314,note_off,0,0,0,,11,,,70,127
30315,note_on,1,0,0,,7,,,67,127
30428,note_off,113,0,0,,7,,,67,127
30429,note_on,1,0,0,,8,,,68,127
30542,note_off,113,0,0,,8,,,68,127
30542,note_off,0,0,0,,0,,,60,127
30543,note_on,1,0,0,,7,,,67,127
30543,note_on,0,0,0,,12,,,59,127
30656,note_off,113,0,0,,7,,,67,127
30657,note_on,1,0,0,,5,,,77,127
30770,note_off,113,0,0,,5,,,77,127
30771,note_on,1,0,0,,2,,,74,127
30884,note_off,113,0,0,,12,,,59,127
30885,note_on,1,0,0,,12,,,59,127
30998,note_off,113,0,0,,2,,,74,127
30999,note_on,1,0,0,,12,,,71,127
31112,note_off,113,0,0,,12,,,71,127
31113,note_on,1,0,0,,7,,,67,127
31226,note_off,113,0,0,,7,,,67,127
31226,note_off,0,0,0,,12,,,59,127
31227,note_on,1,0,0,,11,,,70,127
31227,note_on,0,0,0,,8,,,68,127
31227,note_on,0,0,0,,0,,,60,127
31340,note_off,113,0,0,,8,,,68,127
31340,note_off,0,0,0,,11,,,70,127
31341,note_on,1,0,0,,7,,,67,127
31454,note_off,113,0,0,,7,,,67,127
31455,note_on,1,0,0,,8,,,68,127
31568,note_off,113,0,0,,8,,,68,127
31568,note_off,0,0,0,,0,,,60,127
31569,note_on,1,0,0,,11,,,70,127
31569,note_on,0,0,0,,8,,,68,127
31569,note_on,0,0,0,,0,,,60,127
31682,note_off,113,0,0,,8,,,68,127
31682,note_off,0,0,0,,11,,,70,127
31683,note_on,1,0,0,,7,,,67,127
31796,note_off,113,0,0,,7,,,67,127
31797,note_on,1,0,0,,8,,,68,127
31910,note_off,113,0,0,,8,,,68,127
31910,note_off,0,0,0,,0,,,60,127
31911,note_on,1,0,0,,7,,,67,127
31911,note_on,0,0,0,,12,,,59,127
32024,note_off,113,0,0,,7,,,67,127
32025,note_on,1,0,0,,5,,,77,127
32138,note_off,113,0,0,,5,,,77,127
32139,note_on,1,0,0,,2,,,74,127
32252,note_off,113,0,0,,12,,,59,127
32253,note_on,1,0,0,,12,,,59,127
32366,note_off,113,0,0,,2,,,74,127
32367,note_on,1,0,0,,12,,,71,127
32480,note_off,113,0,0,,12,,,71,127
32481,note_on,1,0,0,,7,,,67,127
32579,note_off,98,0,0,,7,,,67,127
32594,note_off,15,0,0,,12,,,59,127
32595,note_on,1,0,0,,8,,,80,127
32595,note_on,0,0,0,,0,,,60,127
32935,note_off,340,0,0,,0,,,60,127
32936,note_on,1,0,0,,0,,,60,127
33049,note_off,113,0,0,,8,,,80,127
33050,note_on,1,0,0,,7,,,79,127
33163,note_off,113,0,0,,7,,,79,127
33164,note_on,1,0,0,,5,,,77,127
33277,note_off,113,0,0,,0,,,60,127
33278,note_on,1,0,0,,2,,,62,127
33391,note_off,113,0,0,,5,,,77,127
33392,note_on,1,0,0,,3,,,75,127
33505,note_off,113,0,0,,3,,,75,127
33506,note_on,1,0,0,,2,,,74,127
33619,note_off,113,0,0,,2,,,62,127
33620,note_on,1,0,0,,2,,,62,127
33733,note_off,113,0,0,,2,,,74,127
33734,note_on,1,0,0,,0,,,72,127
33847,note_off,113,0,0,,0,,,72,127
33848,note_on,1,0,0,,12,,,71,127
33961,note_off,113,0,0,,12,,,71,127
33961,note_off,0,0,0,,2,,,62,127
33962,note_on,1,0,0,,0,,,72,127
33962,note_on,0,0,0,,3,,,63,127
34075,note_off,113,0,0,,0,,,72,127
34076,note_on,1,0,0,,7,,,79,127
34189,note_off,113,0,0,,7,,,79,127
34190,note_on,1,0,0,,5,,,77,127
34303,note_off,113,0,0,,5,,,77,127
34303,note_off,0,0,0,,3,,,63,127
34304,note_on,1,0,0,,3,,,75,127
34304,note_on,0,0,0,,3,,,63,127
34417,note_off,113,0,0,,3,,,75,127
34418,note_on,1,0,0,,2,,,74,127
34531,note_off,113,0,0,,2,,,74,127
34532,note_on,1,0,0,,0,,,72,127
34645,note_off,113,0,0,,0,,,72,127
34645,note_off,0,0,0,,3,,,63,127
34646,note_on,1,0,0,,11,,,70,127
34646,note_on,0,0,0,,2,,,62,127
34759,note_off,113,0,0,,11,,,70,127
34760,note_on,1,0,0,,2,,,74,127
34873,note_off,113,0,0,,2,,,74,127
34874,note_on,1,0,0,,0,,,72,127
34987,note_off,113,0,0,,0,,,72,127
34987,note_off,0,0,0,,2,,,62,127
34988,note_on,1,0,0,,11,,,70,127
34988,note_on,0,0,0,,2,,,62,127
35101,note_off,113,0,0,,11,,,70,127
35102,note_on,1,0,0,,10,,,69,127
35215,note_off,113,0,0,,10,,,69,127
35216,note_on,1,0,0,,7,,,67,127
35329,note_off,113,0,0,,7,,,67,127
35329,note_off,0,0,0,,2,,,62,127
35330,note_on,1,0,0,,10,,,69,127
35330,note_on,0,0,0,,0,,,60,127
35443,note_off,113,0,0,,10,,,69,127
35444,note_on,1,0,0,,0,,,72,127
35557,note_off,113,0,0,,0,,,72,127
35558,note_on,1,0,0,,11,,,70,127
35671,note_off,113,0,0,,11,,,70,127
35671,note_off,0,0,0,,0,,,60,127
35672,note_on,1,0,0,,10,,,69,127
35672,note_on,0,0,0,,0,,,60,127
35785,note_off,113,0,0,,10,,,69,127
35786,note_on,1,0,0,,7,,,67,127
35899,note_off,113,0,0,,7,,,67,127
35900,note_on,1,0,0,,6,,,66,127
36013,note_off,113,0,0,,6,,,66,127
36013,note_off,0,0,0,,0,,,60,127
36014,note_on,1,0,0,,11,,,82,127
36014,note_on,0,0,0,,11,,,58,127
36014,note_on,0,0,0,,7,,,67,127
36354,note_off,340,0,0,,7,,,67,127
36354,note_off,0,0,0,,11,,,58,127
36355,note_on,1,0,0,,11,,,58,127
36355,note_on,0,0,0,,7,,,67,127
36468,note_off,113,0,0,,11,,,82,127
36469,note_on,1,0,0,,10,,,81,127
36582,note_off,113,0,0,,10,,,81,127
36583,note_on,1,0,0,,7,,,79,127
36696,note_off,113,0,0,,7,,,67,127
36696,note_off,0,0,0,,11,,,58,127
36697,note_on,1,0,0,,10,,,57,127
36697,note_on,0,0,0,,7,,,67,127
36810,note_off,113,0,0,,7,,,79,127
36811,note_on,1,0,0,,5,,,77,127
36924,note_off,113,0,0,,5,,,77,127
36925,note_on,1,0,0,,4,,,76,127
37038,note_off,113,0,0,,7,,,67,127
37038,note_off,0,0,0,,10,,,57,127
37039,note_on,1,0,0,,7,,,55,127
37152,note_off,113,0,0,,4,,,76,127
37153,note_on,1,0,0,,2,,,74,127
37266,note_off,113,0,0,,2,,,74,127
37267,note_on,1,0,0,,1,,,73,127
37380,note_off,113,0,0,,1,,,73,127
37380,note_off,0,0,0,,7,,,55,127
37381,note_on,1,0,0,,2,,,74,127
37381,note_on,0,0,0,,6,,,54,127
37494,note_off,113,0,0,,2,,,74,127
37495,note_on,1,0,0,,10,,,81,127
37608,note_off,113,0,0,,10,,,81,127
37609,note_on,1,0,0,,6,,,78,127
37722,note_off,113,0,0,,6,,,54,127
37723,note_on,1,0,0,,6,,,54,127
37836,note_off,113,0,0,,6,,,78,127
37837,note_on,1,0,0,,2,,,74,127
37950,note_off,113,0,0,,2,,,74,127
37951,note_on,1,0,0,,0,,,72,127
38064,note_off,113,0,0,,0,,,72,127
38064,note_off,0,0,0,,6,,,54,127
38065,note_on,1,0,0,,11,,,70,127
38065,note_on,0,0,0,,7,,,55,127
38179,note_on,114,0,0,,11,,,82,127
38292,note_off,113,0,0,,11,,,82,127
38292,note_off,0,0,0,,11,,,70,127
38293,note_on,1,0,0,,7,,,79,127
38406,note_off,113,0,0,,7,,,55,127
38407,note_on,1,0,0,,7,,,55,127
38520,note_off,113,0,0,,7,,,79,127
38521,note_on,1,0,0,,3,,,75,127
38634,note_off,113,0,0,,3,,,75,127
38635,note_on,1,0,0,,2,,,74,127
38748,note_off,113,0,0,,2,,,74,127
38748,note_off,0,0,0,,7,,,55,127
38749,note_on,1,0,0,,0,,,72,127
38749,note_on,0,0,0,,10,,,57,127
38863,note_on,114,0,0,,0,,,84,127
38976,note_off,113,0,0,,0,,,84,127
38976,note_off,0,0,0,,0,,,72,127
38977,note_on,1,0,0,,10,,,81,127
39090,note_off,113,0,0,,10,,,57,127
39091,note_on,1,0,0,,10,,,57,127
39204,note_off,113,0,0,,10,,,81,127
39205,note_on,1,0,0,,5,,,77,127
39318,note_off,113,0,0,,5,,,77,127
39319,note_on,1,0,0,,3,,,75,127
39432,note_off,113,0,0,,3,,,75,127
39432,note_off,0,0,0,,10,,,57,127
39433,note_on,1,0,0,,2,,,74,127
39433,note_on,0,0,0,,11,,,58,127
39547,note_on,114,0,0,,2,,,86,127
39660,note_off,113,0,0,,2,,,86,127
39660,note_off,0,0,0,,2,,,74,127
39661,note_on,1,0,0,,0,,,84,127
39774,note_off,113,0,0,,11,,,58,127
39775,note_on,1,0,0,,2,,,62,127
39888,note_off,113,0,0,,0,,,84,127
39889,note_on,1,0,0,,11,,,82,127
40002,note_off,113,0,0,,11,,,82,127
40003,note_on,1,0,0,,10,,,81,127
40116,note_off,113,0,0,,2,,,62,127
40117,note_on,1,0,0,,3,,,63,127
40230,note_off,113,0,0,,10,,,81,127
40231,note_on,1,0,0,,7,,,79,127
40344,note_off,113,0,0,,7,,,79,127
40345,note_on,1,0,0,,5,,,77,127
40458,note_off,113,0,0,,3,,,63,127
40459,note_on,1,0,0,,3,,,63,127
40572,note_off,113,0,0,,5,,,77,127
40573,note_on,1,0,0,,3,,,75,127
40686,note_off,113,0,0,,3,,,75,127
40687,note_on,1,0,0,,2,,,74,127
40800,note_off,113,0,0,,2,,,74,127
40800,note_off,0,0,0,,3,,,63,127
40801,note_on,1,0,0,,2,,,74,127
40801,note_on,0,0,0,,5,,,65,127
40857,note_off,56,0,0,,2,,,74,127
40858,note_on,1,0,0,,0,,,72,127
40914,note_off,56,0,0,,0,,,72,127
40915,note_on,1,0,0,,2,,,74,127
40971,note_off,56,0,0,,2,,,74,127
40972,note_on,1,0,0,,0,,,72,127
41028,note_off,56,0,0,,0,,,72,127
41029,note_on,1,0,0,,2,,,74,127
41085,note_off,56,0,0,,2,,,74,127
41086,note_on,1,0,0,,0,,,72,127
41142,note_off,56,0,0,,0,,,72,127
41142,note_off,0,0,0,,5,,,65,127
41143,note_on,1,0,0,,0,,,84,127
41143,note_on,0,0,0,,10,,,69,127
41256,note_off,113,0,0,,0,,,84,127
41257,note_on,1,0,0,,10,,,81,127
41370,note_off,113,0,0,,10,,,81,127
41371,note_on,1,0,0,,3,,,75,127
41484,note_off,113,0,0,,3,,,75,127
41484,note_off,0,0,0,,10,,,69,127
41485,note_on,1,0,0,,2,,,74,127
41485,note_on,0,0,0,,11,,,70,127
41599,note_on,114,0,0,,2,,,86,127
41712,note_off,113,0,0,,2,,,86,127
41712,note_off,0,0,0,,2,,,74,127
41713,note_on,1,0,0,,11,,,82,127
41826,note_off,113,0,0,,11,,,70,127
41827,note_on,1,0,0,,11,,,70,127
41940,note_off,113,0,0,,11,,,82,127
41941,note_on,1,0,0,,7,,,79,127
42054,note_off,113,0,0,,7,,,79,127
42055,note_on,1,0,0,,4,,,76,127
42168,note_off,113,0,0,,4,,,76,127
42168,note_off,0,0,0,,11,,,70,127
42169,note_on,1,0,0,,7,,,79,127
42169,note_on,0,0,0,,10,,,69,127
42225,note_off,56,0,0,,7,,,79,127
42226,note_on,1,0,0,,5,,,77,127
42282,note_off,56,0,0,,5,,,77,127
42283,note_on,1,0,0,,7,,,79,127
42339,note_off,56,0,0,,7,,,79,127
42340,note_on,1,0,0,,5,,,77,127
42396,note_off,56,0,0,,5,,,77,127
42397,note_on,1,0,0,,7,,,79,127
42453,note_off,56,0,0,,7,,,79,127
42454,note_on,1,0,0,,5,,,77,127
42510,note_off,56,0,0,,5,,,77,127
42510,note_off,0,0,0,,10,,,69,127
42511,note_on,1,0,0,,0,,,84,127
42511,note_on,0,0,0,,10,,,69,127
42624,note_off,113,0,0,,0,,,84,127
42625,note_on,1,0,0,,10,,,81,127
42738,note_off,113,0,0,,10,,,81,127
42739,note_on,1,0,0,,3,,,75,127
42852,note_off,113,0,0,,3,,,75,127
42852,note_off,0,0,0,,10,,,69,127
42853,note_on,1,0,0,,2,,,74,127
42853,note_on,0,0,0,,11,,,70,127
42967,note_on,114,0,0,,2,,,86,127
43080,note_off,113,0,0,,2,,,86,127
43080,note_off,0,0,0,,2,,,74,127
43081,note_on,1,0,0,,11,,,82,127
43194,note_off,113,0,0,,11,,,70,127
43195,note_on,1,0,0,,11,,,70,127
43308,note_off,113,0,0,,11,,,82,127
43309,note_on,1,0,0,,7,,,79,127
43422,note_off,113,0,0,,7,,,79,127
43423,note_on,1,0,0,,4,,,76,127
43536,note_off,113,0,0,,4,,,76,127
43536,note_off,0,0,0,,11,,,70,127
43537,note_on,1,0,0,,5,,,77,127
43537,note_on,0,0,0,,10,,,69,127
43650,note_off,113,0,0,,5,,,77,127
43651,note_on,1,0,0,,0,,,84,127
43764,note_off,113,0,0,,0,,,84,127
43765,note_on,1,0,0,,10,,,81,127
43878,note_off,113,0,0,,10,,,69,127
43879,note_on,1,0,0,,10,,,69,127
43992,note_off,113,0,0,,10,,,81,127
43993,note_on,1,0,0,,5,,,77,127
44106,note_off,113,0,0,,5,,,77,127
44107,note_on,1,0,0,,3,,,75,127
44220,note_off,113,0,0,,3,,,75,127
44220,note_off,0,0,0,,10,,,69,127
44221,note_on,1,0,0,,2,,,74,127
44221,note_on,0,0,0,,11,,,70,127
44335,note_on,114,0,0,,2,,,86,127
44448,note_off,113,0,0,,2,,,86,127
44448,note_off,0,0,0,,2,,,74,127
44449,note_on,1,0,0,,11,,,82,127
44562,note_off,113,0,0,,11,,,70,127
44563,note_on,1,0,0,,3,,,63,127
44676,note_off,113,0,0,,11,,,82,127
44677,note_on,1,0,0,,7,,,79,127
44790,note_off,113,0,0,,7,,,79,127
44791,note_on,1,0,0,,3,,,75,127
44904,note_off,113,0,0,,3,,,75,127
44904,note_off,0,0,0,,3,,,63,127
44905,note_on,1,0,0,,2,,,74,127
44905,note_on,0,0,0,,5,,,65,127
45018,note_off,113,0,0,,2,,,74,127
45019,note_on,1,0,0,,3,,,75,127
45132,note_off,113,0,0,,3,,,75,127
45133,note_on,1,0,0,,5,,,77,127
45246,note_off,113,0,0,,5,,,77,127
45247,note_on,1,0,0,,3,,,75,127
45247,note_on,0,0,0,,5,,,53,127
45360,note_off,113,0,0,,3,,,75,127
45361,note_on,1,0,0,,2,,,74,127
45474,note_off,113,0,0,,2,,,74,127
45475,note_on,1,0,0,,0,,,72,127
45588,note_off,113,0,0,,0,,,72,127
45588,note_off,0,0,0,,5,,,53,127
45588,note_off,0,0,0,,5,,,65,127
45589,note_on,1,0,0,,11,,,70,127
45589,note_on,0,0,0,,11,,,58,127
45589,note_on,0,0,0,,11,,,46,127
45929,note_off,340,0,0,,11,,,46,127
45929,note_off,0,0,0,,11,,,58,127
45929,note_off,0,0,0,,11,,,70,127
45944,note_on,15,0,0,,11,,,70,127
45944,note_on,0,0,0,,11,,,82,127
46057,note_off,113,0,0,,11,,,82,127
46058,note_on,1,0,0,,7,,,79,127
46171,note_off,113,0,0,,7,,,79,127
46172,note_on,1,0,0,,4,,,76,127
46285,note_off,113,0,0,,4,,,76,127
46285,note_off,0,0,0,,11,,,70,127
46286,note_on,1,0,0,,10,,,69,127
46286,note_on,0,0,0,,7,,,79,127
46342,note_off,56,0,0,,7,,,79,127
46343,note_on,1,0,0,,5,,,77,127
46399,note_off,56,0,0,,5,,,77,127
46400,note_on,1,0,0,,7,,,79,127
46456,note_off,56,0,0,,7,,,79,127
46457,note_on,1,0,0,,5,,,77,127
46513,note_off,56,0,0,,5,,,77,127
46514,note_on,1,0,0,,7,,,79,127
46570,note_off,56,0,0,,7,,,79,127
46571,note_on,1,0,0,,5,,,77,127
46627,note_off,56,0,0,,5,,,77,127
46627,note_off,0,0,0,,10,,,69,127
46628,note_on,1,0,0,,10,,,69,127
46628,note_on,0,0,0,,0,,,84,127
46741,note_off,113,0,0,,0,,,84,127
46742,note_on,1,0,0,,10,,,81,127
46855,note_off,113,0,0,,10,,,81,127
46856,note_on,1,0,0,,3,,,75,127
46969,note_off,113,0,0,,3,,,75,127
46969,note_off,0,0,0,,10,,,69,127
46970,note_on,1,0,0,,11,,,70,127
46970,note_on,0,0,0,,2,,,74,127
47084,note_on,114,0,0,,2,,,86,127
47197,note_off,113,0,0,,2,,,86,127
47197,note_off,0,0,0,,2,,,74,127
47198,note_on,1,0,0,,11,,,82,127
47311,note_off,113,0,0,,11,,,70,127
47312,note_on,1,0,0,,11,,,70,127
47425,note_off,113,0,0,,11,,,82,127
47426,note_on,1,0,0,,7,,,79,127
47539,note_off,113,0,0,,7,,,79,127
47540,note_on,1,0,0,,4,,,76,127
47653,note_off,113,0,0,,4,,,76,127
47653,note_off,0,0,0,,11,,,70,127
47654,note_on,1,0,0,,10,,,69,127
47654,note_on,0,0,0,,5,,,77,127
47768,note_on,114,0,0,,0,,,84,127
47796,note_off,28,0,0,,5,,,77,127
47880,note_off,84,0,0,,0,,,84,127
47881,note_on,1,0,0,,10,,,81,127
47994,note_off,113,0,0,,10,,,69,127
47995,note_on,1,0,0,,10,,,69,127
48108,note_off,113,0,0,,10,,,81,127
48109,note_on,1,0,0,,5,,,77,127
48222,note_off,113,0,0,,5,,,77,127
48223,note_on,1,0,0,,3,,,75,127
48336,note_off,113,0,0,,3,,,75,127
48336,note_off,0,0,0,,10,,,69,127
48337,note_on,1,0,0,,11,,,70,127
48337,note_on,0,0,0,,2,,,74,127
48451,note_on,114,0,0,,2,,,86,127
48564,note_off,113,0,0,,2,,,86,127
48564,note_off,0,0,0,,2,,,74,127
48565,note_on,1,0,0,,11,,,82,127
48678,note_off,113,0,0,,11,,,70,127
48679,note_on,1,0,0,,3,,,63,127
48792,note_off,113,0,0,,11,,,82,127
48793,note_on,1,0,0,,7,,,79,127
48906,note_off,113,0,0,,7,,,79,127
48907,note_on,1,0,0,,3,,,75,127
49020,note_off,113,0,0,,3,,,75,127
49020,note_off,0,0,0,,3,,,63,127
49021,note_on,1,0,0,,5,,,65,127
49021,note_on,0,0,0,,2,,,74,127
49134,note_off,113,0,0,,2,,,74,127
49135,note_on,1,0,0,,3,,,75,127
49248,note_off,113,0,0,,3,,,75,127
49249,note_on,1,0,0,,5,,,77,127
49362,note_off,113,0,0,,5,,,77,127
49363,note_on,1,0,0,,5,,,53,127
49363,note_on,0,0,0,,3,,,75,127
49476,note_off,113,0,0,,3,,,75,127
49477,note_on,1,0,0,,2,,,74,127
49590,note_off,113,0,0,,2,,,74,127
49591,note_on,1,0,0,,0,,,72,127
49704,note_off,113,0,0,,0,,,72,127
49704,note_off,0,0,0,,5,,,53,127
49704,note_off,0,0,0,,5,,,65,127
49705,note_on,1,0,0,,11,,,58,127
49705,note_on,0,0,0,,11,,,70,127
49819,note_on,114,0,0,,3,,,75,127
49847,note_off,28,0,0,,11,,,70,127
49931,note_off,84,0,0,,3,,,75,127
49932,note_on,1,0,0,,0,,,72,127
50045,note_off,113,0,0,,0,,,72,127
50045,note_off,0,0,0,,11,,,58,127
50046,note_on,1,0,0,,11,,,58,127
50046,note_on,0,0,0,,2,,,74,127
50160,note_on,114,0,0,,7,,,79,127
50188,note_off,28,0,0,,2,,,74,127
50272,note_off,84,0,0,,7,,,79,127
50273,note_on,1,0,0,,3,,,75,127
50386,note_off,113,0,0,,3,,,75,127
50386,note_off,0,0,0,,11,,,58,127
50387,note_on,1,0,0,,0,,,60,127
50387,note_on,0,0,0,,5,,,77,127
50501,note_on,114,0,0,,0,,,84,127
50529,note_off,28,0,0,,5,,,77,127
50613,note_off,84,0,0,,0,,,84,127
50614,note_on,1,0,0,,10,,,81,127
50727,note_off,113,0,0,,10,,,81,127
50727,note_off,0,0,0,,0,,,60,127
50728,note_on,1,0,0,,2,,,62,127
50728,note_on,0,0,0,,11,,,82,127
50728,note_on,0,0,0,,0,,,84,127
50841,note_off,113,0,0,,0,,,84,127
50841,note_off,0,0,0,,11,,,82,127
50842,note_on,1,0,0,,10,,,81,127
50955,note_off,113,0,0,,10,,,81,127
50956,note_on,1,0,0,,11,,,82,127
51069,note_off,113,0,0,,11,,,82,127
51069,note_off,0,0,0,,2,,,62,127
51070,note_on,1,0,0,,3,,,63,127
51070,note_on,0,0,0,,0,,,72,127
51183,note_off,113,0,0,,0,,,72,127
51184,note_on,1,0,0,,2,,,74,127
51297,note_off,113,0,0,,2,,,74,127
51298,note_on,1,0,0,,3,,,75,127
51411,note_off,113,0,0,,3,,,75,127
51411,note_off,0,0,0,,3,,,63,127
51412,note_on,1,0,0,,3,,,63,127
51412,note_on,0,0,0,,3,,,75,127
51525,note_off,113,0,0,,3,,,75,127
51526,note_on,1,0,0,,5,,,77,127
51639,note_off,113,0,0,,5,,,77,127
51640,note_on,1,0,0,,7,,,79,127
51753,note_off,113,0,0,,7,,,79,127
51753,note_off,0,0,0,,3,,,63,127
51754,note_on,1,0,0,,5,,,65,127
51754,note_on,0,0,0,,5,,,77,127
51867,note_off,113,0,0,,5,,,77,127
51868,note_on,1,0,0,,3,,,75,127
51981,note_off,113,0,0,,3,,,75,127
51982,note_on,1,0,0,,2,,,74,127
52095,note_off,113,0,0,,2,,,74,127
52096,note_on,1,0,0,,5,,,53,127
52096,note_on,0,0,0,,0,,,72,127
52209,note_off,113,0,0,,0,,,72,127
52210,note_on,1,0,0,,11,,,70,127
52323,note_off,113,0,0,,11,,,70,127
52324,note_on,1,0,0,,10,,,69,127
52437,note_off,113,0,0,,10,,,69,127
52437,note_off,0,0,0,,5,,,53,127
52437,note_off,0,0,0,,5,,,65,127
52438,note_on,1,0,0,,11,,,58,127
52438,note_on,0,0,0,,11,,,70,127
52552,note_on,114,0,0,,3,,,75,127
52554,note_off,2,0,0,,11,,,70,127
52665,note_off,111,0,0,,3,,,75,127
52666,note_on,1,0,0,,0,,,72,127
52779,note_off,113,0,0,,0,,,72,127
52779,note_off,0,0,0,,11,,,58,127
52780,note_on,1,0,0,,11,,,58,127
52780,note_on,0,0,0,,2,,,74,127
52894,note_on,114,0,0,,7,,,79,127
52896,note_off,2,0,0,,2,,,74,127
53007,note_off,111,0,0,,7,,,79,127
53008,note_on,1,0,0,,3,,,75,127
53121,note_off,113,0,0,,3,,,75,127
53121,note_off,0,0,0,,11,,,58,127
53122,note_on,1,0,0,,0,,,60,127
53122,note_on,0,0,0,,5,,,77,127
53236,note_on,114,0,0,,0,,,84,127
53238,note_off,2,0,0,,5,,,77,127
53349,note_off,111,0,0,,0,,,84,127
53350,note_on,1,0,0,,10,,,81,127
53463,note_off,113,0,0,,10,,,81,127
53463,note_off,0,0,0,,0,,,60,127
53464,note_on,1,0,0,,2,,,62,127
53464,note_on,0,0,0,,0,,,84,127
53464,note_on,0,0,0,,11,,,82,127
53577,note_off,113,0,0,,11,,,82,127
53577,note_off,0,0,0,,0,,,84,127
53578,note_on,1,0,0,,10,,,81,127
53691,note_off,113,0,0,,10,,,81,127
53692,note_on,1,0,0,,11,,,82,127
53805,note_off,113,0,0,,11,,,82,127
53805,note_off,0,0,0,,2,,,62,127
53806,note_on,1,0,0,,3,,,63,127
53806,note_on,0,0,0,,0,,,72,127
53919,note_off,113,0,0,,0,,,72,127
53920,note_on,1,0,0,,2,,,74,127
54033,note_off,113,0,0,,2,,,74,127
54034,note_on,1,0,0,,3,,,75,127
54147,note_off,113,0,0,,3,,,75,127
54147,note_off,0,0,0,,3,,,63,127
54148,note_on,1,0,0,,3,,,63,127
54148,note_on,0,0,0,,3,,,75,127
54261,note_off,113,0,0,,3,,,75,127
54262,note_on,1,0,0,,5,,,77,127
54375,note_off,113,0,0,,5,,,77,127
54376,note_on,1,0,0,,7,,,79,127
54489,note_off,113,0,0,,7,,,79,127
54489,note_off,0,0,0,,3,,,63,127
54490,note_on,1,0,0,,5,,,65,127
54490,note_on,0,0,0,,5,,,77,127
54603,note_off,113,0,0,,5,,,77,127
54604,note_on,1,0,0,,3,,,75,127
54717,note_off,113,0,0,,3,,,75,127
54718,note_on,1,0,0,,2,,,74,127
54831,note_off,113,0,0,,2,,,74,127
54832,note_on,1,0,0,,5,,,53,127
54832,note_on,0,0,0,,0,,,72,127
54945,note_off,113,0,0,,0,,,72,127
54946,note_on,1,0,0,,11,,,70,127
55059,note_off,113,0,0,,11,,,70,127
55060,note_on,1,0,0,,10,,,69,127
55173,note_off,113,0,0,,10,,,69,127
55173,note_off,0,0,0,,5,,,53,127
55173,note_off,0,0,0,,5,,,65,127
55174,note_on,1,0,0,,11,,,70,127
55174,note_on,0,0,0,,11,,,46,127
55291,note_on,117,0,0,,2,,,74,127
55292,note_off,1,0,0,,11,,,70,127
55407,note_off,115,0,0,,2,,,74,127
55409,note_on,2,0,0,,5,,,77,127
55525,note_off,116,0,0,,11,,,46,127
55526,note_on,1,0,0,,5,,,53,127
55642,note_off,116,0,0,,5,,,77,127
55643,note_on,1,0,0,,3,,,75,127
55759,note_off,116,0,0,,3,,,75,127
55761,note_on,2,0,0,,0,,,72,127
55877,note_off,116,0,0,,0,,,72,127
55877,note_off,0,0,0,,5,,,53,127
55879,note_on,2,0,0,,11,,,70,127
55879,note_on,0,0,0,,11,,,46,127
55995,note_off,116,0,0,,11,,,70,127
55997,note_on,2,0,0,,2,,,74,127
56113,note_off,116,0,0,,2,,,74,127
56115,note_on,2,0,0,,5,,,77,127
56231,note_off,116,0,0,,11,,,46,127
56232,note_on,1,0,0,,5,,,53,127
56348,note_off,116,0,0,,5,,,77,127
56349,note_on,1,0,0,,3,,,75,127
56465,note_off,116,0,0,,3,,,75,127
56467,note_on,2,0,0,,0,,,72,127
56583,note_off,116,0,0,,0,,,72,127
56583,note_off,0,0,0,,5,,,53,127
56585,note_on,2,0,0,,11,,,58,127
56585,note_on,0,0,0,,11,,,70,127
56701,note_off,116,0,0,,11,,,70,127
56705,note_on,4,0,0,,2,,,74,127
56821,note_off,116,0,0,,2,,,74,127
56824,note_on,3,0,0,,5,,,77,127
56937,note_off,113,0,0,,11,,,58,127
56942,note_on,5,0,0,,5,,,53,127
57057,note_off,115,0,0,,5,,,77,127
57061,note_on,4,0,0,,3,,,75,127
57177,note_off,116,0,0,,3,,,75,127
57180,note_on,3,0,0,,0,,,72,127
57294,note_off,114,0,0,,5,,,53,127
57296,note_off,2,0,0,,0,,,72,127
57300,note_on,4,0,0,,2,,,74,127
57300,note_on,0,0,0,,11,,,46,127
57420,note_off,120,0,0,,2,,,74,127
57424,note_on,4,0,0,,5,,,77,127
57541,note_off,117,0,0,,5,,,77,127
57548,note_on,7,0,0,,11,,,70,127
57656,note_off,108,0,0,,11,,,46,127
57666,note_off,10,0,0,,11,,,70,127
57672,note_on,6,0,0,,2,,,74,127
57672,note_on,0,0,0,,0,,,72,127
57672,note_on,0,0,0,,5,,,41,127
57789,note_off,117,0,0,,0,,,72,127
57789,note_off,0,0,0,,2,,,74,127
57796,note_on,7,0,0,,11,,,70,127
57913,note_off,117,0,0,,11,,,70,127
57920,note_on,7,0,0,,10,,,69,127
58028,note_off,108,0,0,,5,,,41,127
58043,note_off,15,0,0,,10,,,69,127
58055,note_on,12,0,0,,11,,,70,127
58055,note_on,0,0,0,,11,,,46,127
59956,note_off,1901,0,0,,11,,,46,127
59956,note_off,0,0,0,,11,,,70,127
64512,end_of_track,4556,1,0,,,,,,
