tick,type,time,meta,track,program,channel,pitch,tempo,note,velocity
0,copyright,0,1,0,,,,,,
0,program_change,0,0,0,6,0,,,,
0,pitchwheel,0,0,0,,0,0,,,
0,program_change,0,0,0,6,1,,,,
0,pitchwheel,0,0,0,,1,-590,,,
0,program_change,0,0,0,6,2,,,,
0,pitchwheel,0,0,0,,2,-272,,,
0,program_change,0,0,0,6,3,,,,
0,pitchwheel,0,0,0,,3,-353,,,
0,program_change,0,0,0,6,4,,,,
0,pitchwheel,0,0,0,,4,-560,,,
0,program_change,0,0,0,6,5,,,,
0,pitchwheel,0,0,0,,5,-80,,,
0,program_change,0,0,0,6,6,,,,
0,pitchwheel,0,0,0,,6,-625,,,
0,program_change,0,0,0,6,7,,,,
0,pitchwheel,0,0,0,,7,-130,,,
0,program_change,0,0,0,6,8,,,,
0,pitchwheel,0,0,0,,8,-512,,,
0,program_change,0,0,0,6,10,,,,
0,pitchwheel,0,0,0,,10,-464,,,
0,program_change,0,0,0,6,11,,,,
0,pitchwheel,0,0,0,,11,-208,,,
0,program_change,0,0,0,6,12,,,,
0,pitchwheel,0,0,0,,12,-553,,,
0,set_tempo,0,1,0,,,,500000,,
96,note_on,96,0,0,,2,,,74,127
190,note_off,94,0,0,,2,,,74,127
192,note_on,2,0,0,,10,,,69,127
286,note_off,94,0,0,,10,,,69,127
288,note_on,2,0,0,,2,,,74,127
478,note_off,190,0,0,,2,,,74,127
480,note_on,2,0,0,,4,,,76,127
670,note_off,190,0,0,,4,,,76,127
672,note_on,2,0,0,,6,,,78,127
862,note_off,190,0,0,,6,,,78,127
864,note_on,2,0,0,,10,,,81,127
958,note_off,94,0,0,,10,,,81,127
960,note_on,2,0,0,,2,,,74,127
1054,note_off,94,0,0,,2,,,74,127
1056,note_on,2,0,0,,4,,,76,127
1246,note_off,190,0,0,,4,,,76,127
1248,note_on,2,0,0,,1,,,73,127
1428,note_off,180,0,0,,1,,,73,127
1632,note_on,204,0,0,,2,,,74,127
1726,note_off,94,0,0,,2,,,74,127
1728,note_on,2,0,0,,10,,,69,127
1822,note_off,94,0,0,,10,,,69,127
1824,note_on,2,0,0,,2,,,74,127
2014,note_off,190,0,0,,2,,,74,127
2016,note_on,2,0,0,,4,,,76,127
2206,note_off,190,0,0,,4,,,76,127
2208,note_on,2,0,0,,6,,,78,127
2398,note_off,190,0,0,,6,,,78,127
2400,note_on,2,0,0,,10,,,81,127
2494,note_off,94,0,0,,10,,,81,127
2496,note_on,2,0,0,,2,,,74,127
2590,note_off,94,0,0,,2,,,74,127
2592,note_on,2,0,0,,4,,,76,127
2782,note_off,190,0,0,,4,,,76,127
2784,note_on,2,0,0,,1,,,73,127
2974,note_off,190,0,0,,1,,,73,127
2976,note_on,2,0,0,,2,,,74,127
3168,note_on,192,0,0,,2,,,62,127
3262,note_off,94,0,0,,2,,,62,127
3264,note_on,2,0,0,,10,,,57,127
3358,note_off,94,0,0,,10,,,57,127
3358,note_off,0,0,0,,2,,,74,127
3360,note_on,2,0,0,,10,,,81,127
3360,note_on,0,0,0,,2,,,62,127
3550,note_off,190,0,0,,2,,,62,127
3552,note_on,2,0,0,,4,,,64,127
3742,note_off,190,0,0,,4,,,64,127
3744,note_on,2,0,0,,6,,,66,127
3934,note_off,190,0,0,,6,,,66,127
3936,note_on,2,0,0,,10,,,69,127
4030,note_off,94,0,0,,10,,,69,127
4032,note_on,2,0,0,,2,,,62,127
4126,note_off,94,0,0,,2,,,62,127
4126,note_off,0,0,0,,10,,,81,127
4128,note_on,2,0,0,,10,,,81,127
4128,note_on,0,0,0,,4,,,64,127
4174,note_off,46,0,0,,10,,,81,127
4176,note_on,2,0,0,,7,,,79,127
4222,note_off,46,0,0,,7,,,79,127
4224,note_on,2,0,0,,10,,,81,127
4270,note_off,46,0,0,,10,,,81,127
4272,note_on,2,0,0,,7,,,79,127
4318,note_off,46,0,0,,7,,,79,127
4318,note_off,0,0,0,,4,,,64,127
4320,note_on,2,0,0,,10,,,81,127
4320,note_on,0,0,0,,1,,,61,127
4366,note_off,46,0,0,,10,,,81,127
4368,note_on,2,0,0,,7,,,79,127
4414,note_off,46,0,0,,7,,,79,127
4416,note_on,2,0,0,,6,,,78,127
4462,note_off,46,0,0,,6,,,78,127
4464,note_on,2,0,0,,7,,,79,127
4500,note_off,36,0,0,,1,,,61,127
4510,note_off,10,0,0,,7,,,79,127
4512,note_on,2,0,0,,6,,,78,127
4704,note_on,192,0,0,,2,,,62,127
4798,note_off,94,0,0,,2,,,62,127
4800,note_on,2,0,0,,10,,,57,127
4894,note_off,94,0,0,,10,,,57,127
4894,note_off,0,0,0,,6,,,78,127
4896,note_on,2,0,0,,10,,,81,127
4896,note_on,0,0,0,,2,,,62,127
5086,note_off,190,0,0,,2,,,62,127
5088,note_on,2,0,0,,4,,,64,127
5278,note_off,190,0,0,,4,,,64,127
5280,note_on,2,0,0,,6,,,66,127
5470,note_off,190,0,0,,6,,,66,127
5472,note_on,2,0,0,,4,,,64,127
5566,note_off,94,0,0,,4,,,64,127
5568,note_on,2,0,0,,2,,,62,127
5662,note_off,94,0,0,,2,,,62,127
5662,note_off,0,0,0,,10,,,81,127
5664,note_on,2,0,0,,10,,,81,127
5664,note_on,0,0,0,,4,,,64,127
5710,note_off,46,0,0,,10,,,81,127
5712,note_on,2,0,0,,7,,,79,127
5758,note_off,46,0,0,,7,,,79,127
5760,note_on,2,0,0,,10,,,81,127
5806,note_off,46,0,0,,10,,,81,127
5808,note_on,2,0,0,,7,,,79,127
5854,note_off,46,0,0,,7,,,79,127
5854,note_off,0,0,0,,4,,,64,127
5856,note_on,2,0,0,,10,,,81,127
5856,note_on,0,0,0,,2,,,62,127
5902,note_off,46,0,0,,10,,,81,127
5904,note_on,2,0,0,,7,,,79,127
5950,note_off,46,0,0,,7,,,79,127
5950,note_off,0,0,0,,2,,,62,127
5952,note_on,2,0,0,,6,,,78,127
5952,note_on,0,0,0,,1,,,61,127
5998,note_off,46,0,0,,6,,,78,127
6000,note_on,2,0,0,,7,,,79,127
6046,note_off,46,0,0,,7,,,79,127
6046,note_off,0,0,0,,1,,,61,127
6048,note_on,2,0,0,,6,,,78,127
6048,note_on,0,0,0,,2,,,62,127
6238,note_off,190,0,0,,6,,,78,127
6240,note_on,2,0,0,,2,,,74,127
6334,note_off,94,0,0,,2,,,74,127
6336,note_on,2,0,0,,10,,,69,127
6430,note_off,94,0,0,,10,,,69,127
6430,note_off,0,0,0,,2,,,62,127
6432,note_on,2,0,0,,6,,,78,127
6432,note_on,0,0,0,,2,,,62,127
6622,note_off,190,0,0,,6,,,78,127
6624,note_on,2,0,0,,10,,,69,127
6814,note_off,190,0,0,,10,,,69,127
6814,note_off,0,0,0,,2,,,62,127
6816,note_on,2,0,0,,7,,,67,127
6816,note_on,0,0,0,,4,,,64,127
7006,note_off,190,0,0,,7,,,67,127
7008,note_on,2,0,0,,1,,,73,127
7102,note_off,94,0,0,,1,,,73,127
7104,note_on,2,0,0,,7,,,67,127
7198,note_off,94,0,0,,7,,,67,127
7198,note_off,0,0,0,,4,,,64,127
7200,note_on,2,0,0,,4,,,76,127
7200,note_on,0,0,0,,1,,,61,127
7390,note_off,190,0,0,,4,,,76,127
7392,note_on,2,0,0,,7,,,67,127
7582,note_off,190,0,0,,7,,,67,127
7582,note_off,0,0,0,,1,,,61,127
7584,note_on,2,0,0,,6,,,66,127
7584,note_on,0,0,0,,2,,,62,127
7774,note_off,190,0,0,,6,,,66,127
7776,note_on,2,0,0,,6,,,78,127
7870,note_off,94,0,0,,6,,,78,127
7872,note_on,2,0,0,,2,,,74,127
7966,note_off,94,0,0,,2,,,74,127
7968,note_on,2,0,0,,10,,,81,127
8158,note_off,190,0,0,,2,,,62,127
8160,note_on,2,0,0,,6,,,54,127
8350,note_off,190,0,0,,6,,,54,127
8352,note_on,2,0,0,,7,,,55,127
8542,note_off,190,0,0,,7,,,55,127
8542,note_off,0,0,0,,10,,,81,127
8544,note_on,2,0,0,,12,,,83,127
8544,note_on,0,0,0,,6,,,54,127
8638,note_off,94,0,0,,12,,,83,127
8640,note_on,2,0,0,,2,,,74,127
8734,note_off,94,0,0,,2,,,74,127
8734,note_off,0,0,0,,6,,,54,127
8736,note_on,2,0,0,,1,,,73,127
8736,note_on,0,0,0,,4,,,52,127
8926,note_off,190,0,0,,4,,,52,127
8926,note_off,0,0,0,,1,,,73,127
8928,note_on,2,0,0,,2,,,74,127
8928,note_on,0,0,0,,2,,,50,127
9118,note_off,190,0,0,,2,,,50,127
9118,note_off,0,0,0,,2,,,74,127
9120,note_on,2,0,0,,4,,,76,127
9120,note_on,0,0,0,,10,,,45,127
9300,note_off,180,0,0,,4,,,76,127
9312,note_on,12,0,0,,6,,,78,127
9406,note_off,94,0,0,,6,,,78,127
9408,note_on,2,0,0,,7,,,79,127
9500,note_off,92,0,0,,10,,,45,127
9502,note_off,2,0,0,,7,,,79,127
9504,note_on,2,0,0,,10,,,81,127
9696,note_on,192,0,0,,6,,,54,127
9886,note_off,190,0,0,,6,,,54,127
9888,note_on,2,0,0,,7,,,55,127
10078,note_off,190,0,0,,7,,,55,127
10078,note_off,0,0,0,,10,,,81,127
10080,note_on,2,0,0,,12,,,83,127
10080,note_on,0,0,0,,6,,,54,127
10174,note_off,94,0,0,,12,,,83,127
10176,note_on,2,0,0,,2,,,74,127
10270,note_off,94,0,0,,2,,,74,127
10270,note_off,0,0,0,,6,,,54,127
10272,note_on,2,0,0,,1,,,73,127
10272,note_on,0,0,0,,4,,,52,127
10462,note_off,190,0,0,,4,,,52,127
10462,note_off,0,0,0,,1,,,73,127
10464,note_on,2,0,0,,2,,,74,127
10464,note_on,0,0,0,,2,,,50,127
10654,note_off,190,0,0,,2,,,50,127
10654,note_off,0,0,0,,2,,,74,127
10656,note_on,2,0,0,,4,,,76,127
10656,note_on,0,0,0,,10,,,45,127
10846,note_off,190,0,0,,4,,,76,127
10848,note_on,2,0,0,,10,,,81,127
10942,note_off,94,0,0,,10,,,81,127
10944,note_on,2,0,0,,4,,,76,127
11038,note_off,94,0,0,,4,,,76,127
11038,note_off,0,0,0,,10,,,45,127
11040,note_on,2,0,0,,10,,,81,127
11040,note_on,0,0,0,,10,,,45,127
11230,note_off,190,0,0,,10,,,81,127
11232,note_on,2,0,0,,10,,,81,127
11326,note_off,94,0,0,,10,,,81,127
11328,note_on,2,0,0,,4,,,76,127
11422,note_off,94,0,0,,4,,,76,127
11422,note_off,0,0,0,,10,,,45,127
11424,note_on,2,0,0,,10,,,81,127
11424,note_on,0,0,0,,10,,,45,127
11614,note_off,190,0,0,,10,,,81,127
11616,note_on,2,0,0,,10,,,81,127
11710,note_off,94,0,0,,10,,,81,127
11712,note_on,2,0,0,,4,,,76,127
11806,note_off,94,0,0,,4,,,76,127
11806,note_off,0,0,0,,10,,,45,127
11808,note_on,2,0,0,,10,,,81,127
11808,note_on,0,0,0,,10,,,45,127
11998,note_off,190,0,0,,10,,,81,127
12000,note_on,2,0,0,,4,,,76,127
12190,note_off,190,0,0,,4,,,76,127
12190,note_off,0,0,0,,10,,,45,127
12192,note_on,2,0,0,,10,,,81,127
12192,note_on,0,0,0,,10,,,45,127
12767,note_off,575,0,0,,10,,,45,127
12959,note_off,192,0,0,,10,,,81,127
13152,note_on,193,0,0,,2,,,50,127
13342,note_off,190,0,0,,2,,,50,127
13344,note_on,2,0,0,,5,,,53,127
13534,note_off,190,0,0,,5,,,53,127
13536,note_on,2,0,0,,10,,,57,127
13726,note_off,190,0,0,,10,,,57,127
13728,note_on,2,0,0,,2,,,62,127
13918,note_off,190,0,0,,2,,,62,127
13920,note_on,2,0,0,,5,,,65,127
14112,note_on,192,0,0,,10,,,81,127
14206,note_off,94,0,0,,10,,,81,127
14208,note_on,2,0,0,,2,,,74,127
14302,note_off,94,0,0,,2,,,74,127
14302,note_off,0,0,0,,5,,,65,127
14304,note_on,2,0,0,,4,,,64,127
14304,note_on,0,0,0,,1,,,73,127
14494,note_off,190,0,0,,1,,,73,127
14496,note_on,2,0,0,,2,,,74,127
14590,note_off,94,0,0,,2,,,74,127
14592,note_on,2,0,0,,4,,,76,127
14686,note_off,94,0,0,,4,,,76,127
14686,note_off,0,0,0,,4,,,64,127
14688,note_on,2,0,0,,2,,,50,127
14688,note_on,0,0,0,,4,,,76,127
14878,note_off,190,0,0,,4,,,76,127
14878,note_off,0,0,0,,2,,,50,127
14880,note_on,2,0,0,,5,,,53,127
14880,note_on,0,0,0,,5,,,77,127
15070,note_off,190,0,0,,5,,,53,127
15072,note_on,2,0,0,,10,,,57,127
15260,note_off,188,0,0,,5,,,77,127
15262,note_off,2,0,0,,10,,,57,127
15264,note_on,2,0,0,,2,,,62,127
15454,note_off,190,0,0,,2,,,62,127
15456,note_on,2,0,0,,5,,,65,127
15648,note_on,192,0,0,,10,,,81,127
15742,note_off,94,0,0,,10,,,81,127
15744,note_on,2,0,0,,2,,,74,127
15838,note_off,94,0,0,,2,,,74,127
15838,note_off,0,0,0,,5,,,65,127
15840,note_on,2,0,0,,4,,,64,127
15840,note_on,0,0,0,,1,,,73,127
16030,note_off,190,0,0,,1,,,73,127
16032,note_on,2,0,0,,2,,,74,127
16126,note_off,94,0,0,,2,,,74,127
16128,note_on,2,0,0,,4,,,76,127
16222,note_off,94,0,0,,4,,,76,127
16222,note_off,0,0,0,,4,,,64,127
16224,note_on,2,0,0,,2,,,50,127
16224,note_on,0,0,0,,4,,,76,127
16414,note_off,190,0,0,,4,,,76,127
16414,note_off,0,0,0,,2,,,50,127
16416,note_on,2,0,0,,5,,,53,127
16416,note_on,0,0,0,,5,,,77,127
16606,note_off,190,0,0,,5,,,53,127
16608,note_on,2,0,0,,10,,,57,127
16796,note_off,188,0,0,,5,,,77,127
16798,note_off,2,0,0,,10,,,57,127
16800,note_on,2,0,0,,2,,,62,127
16990,note_off,190,0,0,,2,,,62,127
16992,note_on,2,0,0,,7,,,55,127
16992,note_on,0,0,0,,7,,,79,127
17038,note_off,46,0,0,,7,,,79,127
17040,note_on,2,0,0,,5,,,77,127
17086,note_off,46,0,0,,5,,,77,127
17088,note_on,2,0,0,,7,,,79,127
17134,note_off,46,0,0,,7,,,79,127
17136,note_on,2,0,0,,5,,,77,127
17182,note_off,46,0,0,,5,,,77,127
17184,note_on,2,0,0,,4,,,76,127
17278,note_off,94,0,0,,4,,,76,127
17280,note_on,2,0,0,,5,,,77,127
17374,note_off,94,0,0,,5,,,77,127
17374,note_off,0,0,0,,7,,,55,127
17376,note_on,2,0,0,,7,,,55,127
17376,note_on,0,0,0,,7,,,79,127
17470,note_off,94,0,0,,7,,,79,127
17472,note_on,2,0,0,,4,,,76,127
17566,note_off,94,0,0,,4,,,76,127
17568,note_on,2,0,0,,5,,,77,127
17662,note_off,94,0,0,,5,,,77,127
17664,note_on,2,0,0,,2,,,74,127
17758,note_off,94,0,0,,2,,,74,127
17758,note_off,0,0,0,,7,,,55,127
17760,note_on,2,0,0,,0,,,48,127
17760,note_on,0,0,0,,2,,,74,127
17950,note_off,190,0,0,,2,,,74,127
17950,note_off,0,0,0,,0,,,48,127
17952,note_on,2,0,0,,4,,,52,127
17952,note_on,0,0,0,,4,,,76,127
18142,note_off,190,0,0,,4,,,52,127
18144,note_on,2,0,0,,7,,,55,127
18332,note_off,188,0,0,,4,,,76,127
18334,note_off,2,0,0,,7,,,55,127
18336,note_on,2,0,0,,0,,,60,127
18526,note_off,190,0,0,,0,,,60,127
18528,note_on,2,0,0,,4,,,64,127
18720,note_on,192,0,0,,7,,,79,127
18814,note_off,94,0,0,,7,,,79,127
18816,note_on,2,0,0,,0,,,72,127
18910,note_off,94,0,0,,0,,,72,127
18910,note_off,0,0,0,,4,,,64,127
18912,note_on,2,0,0,,2,,,62,127
18912,note_on,0,0,0,,12,,,71,127
19102,note_off,190,0,0,,12,,,71,127
19104,note_on,2,0,0,,0,,,72,127
19198,note_off,94,0,0,,0,,,72,127
19200,note_on,2,0,0,,2,,,74,127
19294,note_off,94,0,0,,2,,,74,127
19294,note_off,0,0,0,,2,,,62,127
19296,note_on,2,0,0,,0,,,48,127
19296,note_on,0,0,0,,2,,,74,127
19486,note_off,190,0,0,,2,,,74,127
19486,note_off,0,0,0,,0,,,48,127
19488,note_on,2,0,0,,4,,,52,127
19488,note_on,0,0,0,,4,,,76,127
19678,note_off,190,0,0,,4,,,52,127
19680,note_on,2,0,0,,7,,,55,127
19868,note_off,188,0,0,,4,,,76,127
19870,note_off,2,0,0,,7,,,55,127
19872,note_on,2,0,0,,0,,,60,127
20062,note_off,190,0,0,,0,,,60,127
20064,note_on,2,0,0,,4,,,64,127
20256,note_on,192,0,0,,7,,,79,127
20350,note_off,94,0,0,,7,,,79,127
20352,note_on,2,0,0,,0,,,72,127
20446,note_off,94,0,0,,0,,,72,127
20446,note_off,0,0,0,,4,,,64,127
20448,note_on,2,0,0,,2,,,62,127
20448,note_on,0,0,0,,12,,,71,127
20638,note_off,190,0,0,,12,,,71,127
20640,note_on,2,0,0,,0,,,72,127
20734,note_off,94,0,0,,0,,,72,127
20736,note_on,2,0,0,,2,,,74,127
20830,note_off,94,0,0,,2,,,74,127
20830,note_off,0,0,0,,2,,,62,127
20832,note_on,2,0,0,,0,,,60,127
20832,note_on,0,0,0,,4,,,76,127
21022,note_off,190,0,0,,4,,,76,127
21024,note_on,2,0,0,,0,,,84,127
21118,note_off,94,0,0,,0,,,84,127
21120,note_on,2,0,0,,4,,,76,127
21214,note_off,94,0,0,,4,,,76,127
21214,note_off,0,0,0,,0,,,60,127
21216,note_on,2,0,0,,0,,,48,127
21216,note_on,0,0,0,,0,,,84,127
21406,note_off,190,0,0,,0,,,84,127
21408,note_on,2,0,0,,4,,,76,127
21598,note_off,190,0,0,,4,,,76,127
21598,note_off,0,0,0,,0,,,48,127
21600,note_on,2,0,0,,7,,,55,127
21600,note_on,0,0,0,,2,,,74,127
21790,note_off,190,0,0,,2,,,74,127
21792,note_on,2,0,0,,12,,,83,127
21886,note_off,94,0,0,,12,,,83,127
21888,note_on,2,0,0,,2,,,74,127
21982,note_off,94,0,0,,2,,,74,127
21982,note_off,0,0,0,,7,,,55,127
21984,note_on,2,0,0,,8,,,56,127
21984,note_on,0,0,0,,12,,,83,127
22174,note_off,190,0,0,,12,,,83,127
22176,note_on,2,0,0,,2,,,74,127
22366,note_off,190,0,0,,2,,,74,127
22366,note_off,0,0,0,,8,,,56,127
22368,note_on,2,0,0,,10,,,57,127
22368,note_on,0,0,0,,0,,,72,127
22558,note_off,190,0,0,,0,,,72,127
22560,note_on,2,0,0,,10,,,81,127
22654,note_off,94,0,0,,10,,,81,127
22656,note_on,2,0,0,,0,,,72,127
22750,note_off,94,0,0,,0,,,72,127
22752,note_on,2,0,0,,10,,,45,127
22752,note_on,0,0,0,,10,,,81,127
22942,note_off,190,0,0,,10,,,81,127
22944,note_on,2,0,0,,0,,,72,127
23134,note_off,190,0,0,,0,,,72,127
23134,note_off,0,0,0,,10,,,45,127
23135,note_off,1,0,0,,10,,,57,127
23136,note_on,1,0,0,,2,,,50,127
23136,note_on,0,0,0,,12,,,71,127
23230,note_off,94,0,0,,12,,,71,127
23232,note_on,2,0,0,,10,,,81,127
23326,note_off,94,0,0,,10,,,81,127
23328,note_on,2,0,0,,5,,,77,127
23422,note_off,94,0,0,,5,,,77,127
23424,note_on,2,0,0,,2,,,74,127
23518,note_off,94,0,0,,2,,,74,127
23518,note_off,0,0,0,,2,,,50,127
23520,note_on,2,0,0,,2,,,50,127
23520,note_on,0,0,0,,12,,,71,127
23710,note_off,190,0,0,,12,,,71,127
23712,note_on,2,0,0,,10,,,69,127
23902,note_off,190,0,0,,10,,,69,127
23902,note_off,0,0,0,,2,,,50,127
23904,note_on,2,0,0,,4,,,52,127
23904,note_on,0,0,0,,8,,,68,127
24094,note_off,190,0,0,,8,,,68,127
24096,note_on,2,0,0,,4,,,76,127
24190,note_off,94,0,0,,4,,,76,127
24192,note_on,2,0,0,,12,,,71,127
24286,note_off,94,0,0,,12,,,71,127
24286,note_off,0,0,0,,4,,,52,127
24288,note_on,2,0,0,,4,,,52,127
24288,note_on,0,0,0,,4,,,76,127
24478,note_off,190,0,0,,4,,,76,127
24480,note_on,2,0,0,,4,,,76,127
24574,note_off,94,0,0,,4,,,76,127
24576,note_on,2,0,0,,12,,,71,127
24670,note_off,94,0,0,,12,,,71,127
24670,note_off,0,0,0,,4,,,52,127
24672,note_on,2,0,0,,4,,,52,127
24672,note_on,0,0,0,,4,,,76,127
24862,note_off,190,0,0,,4,,,76,127
24864,note_on,2,0,0,,4,,,76,127
24958,note_off,94,0,0,,4,,,76,127
24960,note_on,2,0,0,,12,,,71,127
25054,note_off,94,0,0,,12,,,71,127
25056,note_on,2,0,0,,4,,,40,127
25056,note_on,0,0,0,,4,,,76,127
25246,note_off,190,0,0,,4,,,76,127
25248,note_on,2,0,0,,12,,,71,127
25438,note_off,190,0,0,,12,,,71,127
25438,note_off,0,0,0,,4,,,40,127
25439,note_off,1,0,0,,4,,,52,127
25440,note_on,1,0,0,,4,,,40,127
25440,note_on,0,0,0,,4,,,76,127
26015,note_off,575,0,0,,4,,,40,127
26207,note_off,192,0,0,,4,,,76,127
26400,note_on,193,0,0,,10,,,45,127
26590,note_off,190,0,0,,10,,,45,127
26592,note_on,2,0,0,,0,,,48,127
26782,note_off,190,0,0,,0,,,48,127
26784,note_on,2,0,0,,4,,,52,127
26974,note_off,190,0,0,,4,,,52,127
26976,note_on,2,0,0,,10,,,57,127
27166,note_off,190,0,0,,10,,,57,127
27168,note_on,2,0,0,,0,,,60,127
27360,note_on,192,0,0,,10,,,81,127
27454,note_off,94,0,0,,10,,,81,127
27456,note_on,2,0,0,,4,,,76,127
27550,note_off,94,0,0,,4,,,76,127
27550,note_off,0,0,0,,0,,,60,127
27552,note_on,2,0,0,,2,,,74,127
27552,note_on,0,0,0,,12,,,59,127
27742,note_off,190,0,0,,2,,,74,127
27744,note_on,2,0,0,,0,,,72,127
27838,note_off,94,0,0,,0,,,72,127
27840,note_on,2,0,0,,12,,,71,127
27934,note_off,94,0,0,,12,,,71,127
27934,note_off,0,0,0,,12,,,59,127
27936,note_on,2,0,0,,12,,,71,127
27936,note_on,0,0,0,,10,,,45,127
28126,note_off,190,0,0,,10,,,45,127
28126,note_off,0,0,0,,12,,,71,127
28128,note_on,2,0,0,,0,,,72,127
28128,note_on,0,0,0,,0,,,48,127
28318,note_off,190,0,0,,0,,,48,127
28320,note_on,2,0,0,,4,,,52,127
28508,note_off,188,0,0,,0,,,72,127
28510,note_off,2,0,0,,4,,,52,127
28512,note_on,2,0,0,,10,,,57,127
28702,note_off,190,0,0,,10,,,57,127
28704,note_on,2,0,0,,0,,,60,127
28896,note_on,192,0,0,,10,,,81,127
28990,note_off,94,0,0,,10,,,81,127
28992,note_on,2,0,0,,4,,,76,127
29086,note_off,94,0,0,,4,,,76,127
29086,note_off,0,0,0,,0,,,60,127
29088,note_on,2,0,0,,2,,,74,127
29088,note_on,0,0,0,,12,,,59,127
29278,note_off,190,0,0,,2,,,74,127
29280,note_on,2,0,0,,0,,,72,127
29374,note_off,94,0,0,,0,,,72,127
29376,note_on,2,0,0,,12,,,71,127
29470,note_off,94,0,0,,12,,,71,127
29470,note_off,0,0,0,,12,,,59,127
29472,note_on,2,0,0,,0,,,72,127
29472,note_on,0,0,0,,10,,,57,127
29652,note_off,180,0,0,,0,,,72,127
29664,note_on,12,0,0,,3,,,75,127
29854,note_off,190,0,0,,10,,,57,127
29856,note_on,2,0,0,,10,,,57,127
30046,note_off,190,0,0,,3,,,75,127
30048,note_on,2,0,0,,4,,,76,127
30142,note_off,94,0,0,,4,,,76,127
30144,note_on,2,0,0,,5,,,77,127
30238,note_off,94,0,0,,5,,,77,127
30238,note_off,0,0,0,,10,,,57,127
30240,note_on,2,0,0,,12,,,71,127
30240,note_on,0,0,0,,8,,,56,127
30430,note_off,190,0,0,,12,,,71,127
30432,note_on,2,0,0,,12,,,83,127
30526,note_off,94,0,0,,12,,,83,127
30528,note_on,2,0,0,,4,,,76,127
30622,note_off,94,0,0,,4,,,76,127
30622,note_off,0,0,0,,8,,,56,127
30624,note_on,2,0,0,,2,,,74,127
30624,note_on,0,0,0,,4,,,52,127
30814,note_off,190,0,0,,2,,,74,127
30816,note_on,2,0,0,,0,,,72,127
30910,note_off,94,0,0,,0,,,72,127
30912,note_on,2,0,0,,12,,,71,127
31006,note_off,94,0,0,,12,,,71,127
31006,note_off,0,0,0,,4,,,52,127
31008,note_on,2,0,0,,0,,,72,127
31008,note_on,0,0,0,,10,,,45,127
31188,note_off,180,0,0,,0,,,72,127
31200,note_on,12,0,0,,3,,,75,127
31390,note_off,190,0,0,,10,,,45,127
31392,note_on,2,0,0,,10,,,57,127
31582,note_off,190,0,0,,3,,,75,127
31584,note_on,2,0,0,,4,,,76,127
31678,note_off,94,0,0,,4,,,76,127
31680,note_on,2,0,0,,6,,,78,127
31774,note_off,94,0,0,,6,,,78,127
31774,note_off,0,0,0,,10,,,57,127
31776,note_on,2,0,0,,12,,,71,127
31776,note_on,0,0,0,,8,,,56,127
31966,note_off,190,0,0,,12,,,71,127
31968,note_on,2,0,0,,12,,,83,127
32062,note_off,94,0,0,,12,,,83,127
32064,note_on,2,0,0,,4,,,76,127
32158,note_off,94,0,0,,4,,,76,127
32158,note_off,0,0,0,,8,,,56,127
32160,note_on,2,0,0,,2,,,74,127
32160,note_on,0,0,0,,4,,,52,127
32350,note_off,190,0,0,,2,,,74,127
32352,note_on,2,0,0,,1,,,73,127
32446,note_off,94,0,0,,1,,,73,127
32448,note_on,2,0,0,,12,,,71,127
32542,note_off,94,0,0,,12,,,71,127
32542,note_off,0,0,0,,4,,,52,127
32544,note_on,2,0,0,,1,,,73,127
32544,note_on,0,0,0,,10,,,57,127
32638,note_off,94,0,0,,1,,,73,127
32640,note_on,2,0,0,,10,,,69,127
32736,note_on,96,0,0,,10,,,81,127
32830,note_off,94,0,0,,10,,,81,127
32830,note_off,0,0,0,,10,,,69,127
32832,note_on,2,0,0,,10,,,69,127
32926,note_off,94,0,0,,10,,,57,127
32928,note_on,2,0,0,,1,,,73,127
32928,note_on,0,0,0,,8,,,56,127
33022,note_off,94,0,0,,1,,,73,127
33022,note_off,0,0,0,,10,,,69,127
33024,note_on,2,0,0,,10,,,69,127
33120,note_on,96,0,0,,10,,,81,127
33214,note_off,94,0,0,,10,,,81,127
33214,note_off,0,0,0,,10,,,69,127
33216,note_on,2,0,0,,10,,,69,127
33310,note_off,94,0,0,,8,,,56,127
33312,note_on,2,0,0,,1,,,73,127
33312,note_on,0,0,0,,6,,,54,127
33406,note_off,94,0,0,,1,,,73,127
33406,note_off,0,0,0,,10,,,69,127
33408,note_on,2,0,0,,10,,,69,127
33504,note_on,96,0,0,,10,,,81,127
33598,note_off,94,0,0,,10,,,81,127
33598,note_off,0,0,0,,10,,,69,127
33600,note_on,2,0,0,,10,,,69,127
33694,note_off,94,0,0,,6,,,54,127
33696,note_on,2,0,0,,1,,,73,127
33696,note_on,0,0,0,,4,,,52,127
33790,note_off,94,0,0,,1,,,73,127
33790,note_off,0,0,0,,10,,,69,127
33792,note_on,2,0,0,,10,,,69,127
33888,note_on,96,0,0,,10,,,81,127
33982,note_off,94,0,0,,10,,,81,127
33982,note_off,0,0,0,,10,,,69,127
33984,note_on,2,0,0,,10,,,69,127
34078,note_off,94,0,0,,10,,,69,127
34078,note_off,0,0,0,,4,,,52,127
34080,note_on,2,0,0,,6,,,78,127
34080,note_on,0,0,0,,2,,,50,127
34174,note_off,94,0,0,,6,,,78,127
34176,note_on,2,0,0,,2,,,74,127
34270,note_off,94,0,0,,2,,,74,127
34272,note_on,2,0,0,,4,,,76,127
34366,note_off,94,0,0,,4,,,76,127
34368,note_on,2,0,0,,1,,,73,127
34462,note_off,94,0,0,,1,,,73,127
34462,note_off,0,0,0,,2,,,50,127
34464,note_on,2,0,0,,2,,,74,127
34464,note_on,0,0,0,,2,,,50,127
34558,note_off,94,0,0,,2,,,74,127
34560,note_on,2,0,0,,12,,,71,127
34654,note_off,94,0,0,,12,,,71,127
34656,note_on,2,0,0,,1,,,73,127
34752,note_on,96,0,0,,10,,,81,127
34846,note_off,94,0,0,,10,,,81,127
34846,note_off,0,0,0,,1,,,73,127
34846,note_off,0,0,0,,2,,,50,127
34848,note_on,2,0,0,,1,,,73,127
34848,note_on,0,0,0,,4,,,52,127
34943,note_off,95,0,0,,1,,,73,127
34944,note_on,1,0,0,,10,,,81,127
35038,note_off,94,0,0,,10,,,81,127
35040,note_on,2,0,0,,8,,,80,127
35134,note_off,94,0,0,,8,,,80,127
35136,note_on,2,0,0,,6,,,78,127
35230,note_off,94,0,0,,6,,,78,127
35232,note_on,2,0,0,,4,,,76,127
35232,note_on,0,0,0,,4,,,40,127
35326,note_off,94,0,0,,4,,,76,127
35328,note_on,2,0,0,,2,,,74,127
35422,note_off,94,0,0,,2,,,74,127
35424,note_on,2,0,0,,1,,,73,127
35518,note_off,94,0,0,,1,,,73,127
35520,note_on,2,0,0,,12,,,71,127
35614,note_off,94,0,0,,12,,,71,127
35614,note_off,0,0,0,,4,,,40,127
35615,note_off,1,0,0,,4,,,52,127
35616,note_on,1,0,0,,1,,,73,127
35616,note_on,0,0,0,,10,,,57,127
35712,note_on,96,0,0,,10,,,69,127
35806,note_off,94,0,0,,10,,,69,127
35806,note_off,0,0,0,,1,,,73,127
35808,note_on,2,0,0,,10,,,81,127
35904,note_on,96,0,0,,10,,,69,127
35998,note_off,94,0,0,,10,,,69,127
35998,note_off,0,0,0,,10,,,81,127
35998,note_off,0,0,0,,10,,,57,127
36000,note_on,2,0,0,,1,,,73,127
36000,note_on,0,0,0,,8,,,56,127
36096,note_on,96,0,0,,10,,,69,127
36190,note_off,94,0,0,,10,,,69,127
36190,note_off,0,0,0,,1,,,73,127
36192,note_on,2,0,0,,10,,,81,127
36288,note_on,96,0,0,,10,,,69,127
36382,note_off,94,0,0,,10,,,69,127
36382,note_off,0,0,0,,10,,,81,127
36382,note_off,0,0,0,,8,,,56,127
36384,note_on,2,0,0,,1,,,73,127
36384,note_on,0,0,0,,6,,,54,127
36480,note_on,96,0,0,,10,,,69,127
36574,note_off,94,0,0,,10,,,69,127
36574,note_off,0,0,0,,1,,,73,127
36576,note_on,2,0,0,,10,,,81,127
36672,note_on,96,0,0,,10,,,69,127
36766,note_off,94,0,0,,10,,,69,127
36766,note_off,0,0,0,,10,,,81,127
36766,note_off,0,0,0,,6,,,54,127
36768,note_on,2,0,0,,1,,,73,127
36768,note_on,0,0,0,,4,,,52,127
36864,note_on,96,0,0,,10,,,69,127
36958,note_off,94,0,0,,10,,,69,127
36958,note_off,0,0,0,,1,,,73,127
36960,note_on,2,0,0,,10,,,81,127
37056,note_on,96,0,0,,10,,,69,127
37150,note_off,94,0,0,,10,,,69,127
37150,note_off,0,0,0,,10,,,81,127
37150,note_off,0,0,0,,4,,,52,127
37152,note_on,2,0,0,,6,,,78,127
37152,note_on,0,0,0,,2,,,50,127
37246,note_off,94,0,0,,6,,,78,127
37248,note_on,2,0,0,,2,,,74,127
37342,note_off,94,0,0,,2,,,74,127
37344,note_on,2,0,0,,4,,,76,127
37438,note_off,94,0,0,,4,,,76,127
37440,note_on,2,0,0,,1,,,73,127
37534,note_off,94,0,0,,1,,,73,127
37534,note_off,0,0,0,,2,,,50,127
37536,note_on,2,0,0,,2,,,74,127
37536,note_on,0,0,0,,2,,,50,127
37630,note_off,94,0,0,,2,,,74,127
37632,note_on,2,0,0,,12,,,71,127
37726,note_off,94,0,0,,12,,,71,127
37728,note_on,2,0,0,,1,,,73,127
37822,note_off,94,0,0,,1,,,73,127
37824,note_on,2,0,0,,10,,,81,127
37918,note_off,94,0,0,,2,,,50,127
37920,note_on,2,0,0,,1,,,73,127
37920,note_on,0,0,0,,4,,,52,127
38014,note_off,94,0,0,,1,,,73,127
38014,note_off,0,0,0,,10,,,81,127
38016,note_on,2,0,0,,10,,,81,127
38110,note_off,94,0,0,,10,,,81,127
38112,note_on,2,0,0,,8,,,80,127
38206,note_off,94,0,0,,8,,,80,127
38208,note_on,2,0,0,,6,,,78,127
38302,note_off,94,0,0,,6,,,78,127
38302,note_off,0,0,0,,4,,,52,127
38304,note_on,2,0,0,,4,,,76,127
38304,note_on,0,0,0,,4,,,40,127
38398,note_off,94,0,0,,4,,,76,127
38400,note_on,2,0,0,,2,,,74,127
38494,note_off,94,0,0,,2,,,74,127
38496,note_on,2,0,0,,1,,,73,127
38590,note_off,94,0,0,,1,,,73,127
38592,note_on,2,0,0,,12,,,71,127
38686,note_off,94,0,0,,12,,,71,127
38686,note_off,0,0,0,,4,,,40,127
38688,note_on,2,0,0,,10,,,69,127
38688,note_on,0,0,0,,10,,,45,127
38868,note_off,180,0,0,,10,,,69,127
38880,note_on,12,0,0,,3,,,75,127
39070,note_off,190,0,0,,10,,,45,127
39072,note_on,2,0,0,,10,,,57,127
39262,note_off,190,0,0,,3,,,75,127
39264,note_on,2,0,0,,4,,,76,127
39358,note_off,94,0,0,,4,,,76,127
39360,note_on,2,0,0,,6,,,78,127
39454,note_off,94,0,0,,6,,,78,127
39454,note_off,0,0,0,,10,,,57,127
39456,note_on,2,0,0,,4,,,64,127
39456,note_on,0,0,0,,8,,,56,127
39646,note_off,190,0,0,,4,,,64,127
39648,note_on,2,0,0,,2,,,74,127
39838,note_off,190,0,0,,8,,,56,127
39840,note_on,2,0,0,,4,,,52,127
40030,note_off,190,0,0,,2,,,74,127
40032,note_on,2,0,0,,1,,,73,127
40126,note_off,94,0,0,,1,,,73,127
40128,note_on,2,0,0,,12,,,71,127
40222,note_off,94,0,0,,12,,,71,127
40222,note_off,0,0,0,,4,,,52,127
40224,note_on,2,0,0,,1,,,73,127
40224,note_on,0,0,0,,10,,,45,127
40404,note_off,180,0,0,,1,,,73,127
40416,note_on,12,0,0,,3,,,75,127
40606,note_off,190,0,0,,10,,,45,127
40608,note_on,2,0,0,,10,,,57,127
40798,note_off,190,0,0,,3,,,75,127
40800,note_on,2,0,0,,4,,,76,127
40894,note_off,94,0,0,,4,,,76,127
40896,note_on,2,0,0,,6,,,78,127
40990,note_off,94,0,0,,6,,,78,127
40990,note_off,0,0,0,,10,,,57,127
40992,note_on,2,0,0,,4,,,64,127
40992,note_on,0,0,0,,8,,,56,127
41182,note_off,190,0,0,,4,,,64,127
41184,note_on,2,0,0,,2,,,74,127
41374,note_off,190,0,0,,8,,,56,127
41376,note_on,2,0,0,,4,,,52,127
41566,note_off,190,0,0,,2,,,74,127
41568,note_on,2,0,0,,1,,,73,127
41662,note_off,94,0,0,,1,,,73,127
41664,note_on,2,0,0,,12,,,71,127
41758,note_off,94,0,0,,12,,,71,127
41758,note_off,0,0,0,,4,,,52,127
41760,note_on,2,0,0,,1,,,73,127
41760,note_on,0,0,0,,10,,,57,127
41854,note_off,94,0,0,,1,,,73,127
41856,note_on,2,0,0,,10,,,81,127
41950,note_off,94,0,0,,10,,,81,127
41952,note_on,2,0,0,,4,,,76,127
42046,note_off,94,0,0,,4,,,76,127
42048,note_on,2,0,0,,1,,,73,127
42142,note_off,94,0,0,,1,,,73,127
42142,note_off,0,0,0,,10,,,57,127
42144,note_on,2,0,0,,6,,,78,127
42144,note_on,0,0,0,,2,,,50,127
42238,note_off,94,0,0,,6,,,78,127
42240,note_on,2,0,0,,2,,,74,127
42334,note_off,94,0,0,,2,,,74,127
42336,note_on,2,0,0,,12,,,71,127
42432,note_on,96,0,0,,10,,,81,127
42526,note_off,94,0,0,,10,,,81,127
42526,note_off,0,0,0,,12,,,71,127
42526,note_off,0,0,0,,2,,,50,127
42528,note_on,2,0,0,,10,,,69,127
42528,note_on,0,0,0,,4,,,52,127
42910,note_off,382,0,0,,10,,,69,127
42912,note_on,2,0,0,,10,,,69,127
42912,note_on,0,0,0,,4,,,40,127
42958,note_off,46,0,0,,10,,,69,127
42960,note_on,2,0,0,,8,,,68,127
43006,note_off,46,0,0,,8,,,68,127
43008,note_on,2,0,0,,10,,,69,127
43054,note_off,46,0,0,,10,,,69,127
43056,note_on,2,0,0,,8,,,68,127
43102,note_off,46,0,0,,8,,,68,127
43104,note_on,2,0,0,,10,,,69,127
43150,note_off,46,0,0,,10,,,69,127
43152,note_on,2,0,0,,8,,,68,127
43198,note_off,46,0,0,,8,,,68,127
43200,note_on,2,0,0,,6,,,66,127
43246,note_off,46,0,0,,6,,,66,127
43248,note_on,2,0,0,,8,,,68,127
43294,note_off,46,0,0,,8,,,68,127
43294,note_off,0,0,0,,4,,,40,127
43295,note_off,1,0,0,,4,,,52,127
43296,note_on,1,0,0,,10,,,69,127
43296,note_on,0,0,0,,10,,,45,127
43390,note_off,94,0,0,,10,,,69,127
43392,note_on,2,0,0,,1,,,73,127
43486,note_off,94,0,0,,1,,,73,127
43488,note_on,2,0,0,,12,,,71,127
43582,note_off,94,0,0,,12,,,71,127
43584,note_on,2,0,0,,10,,,69,127
43678,note_off,94,0,0,,10,,,69,127
43678,note_off,0,0,0,,10,,,45,127
43680,note_on,2,0,0,,6,,,66,127
43680,note_on,0,0,0,,2,,,50,127
43774,note_off,94,0,0,,6,,,66,127
43776,note_on,2,0,0,,2,,,74,127
43870,note_off,94,0,0,,2,,,74,127
43872,note_on,2,0,0,,1,,,73,127
43966,note_off,94,0,0,,1,,,73,127
43968,note_on,2,0,0,,12,,,71,127
44062,note_off,94,0,0,,12,,,71,127
44062,note_off,0,0,0,,2,,,50,127
44064,note_on,2,0,0,,4,,,64,127
44064,note_on,0,0,0,,4,,,52,127
44446,note_off,382,0,0,,4,,,64,127
44448,note_on,2,0,0,,1,,,73,127
44448,note_on,0,0,0,,4,,,40,127
44494,note_off,46,0,0,,1,,,73,127
44496,note_on,2,0,0,,12,,,71,127
44542,note_off,46,0,0,,12,,,71,127
44544,note_on,2,0,0,,1,,,73,127
44590,note_off,46,0,0,,1,,,73,127
44592,note_on,2,0,0,,12,,,71,127
44638,note_off,46,0,0,,12,,,71,127
44640,note_on,2,0,0,,1,,,73,127
44686,note_off,46,0,0,,1,,,73,127
44688,note_on,2,0,0,,12,,,71,127
44734,note_off,46,0,0,,12,,,71,127
44736,note_on,2,0,0,,10,,,69,127
44782,note_off,46,0,0,,10,,,69,127
44784,note_on,2,0,0,,12,,,71,127
44830,note_off,46,0,0,,12,,,71,127
44830,note_off,0,0,0,,4,,,40,127
44831,note_off,1,0,0,,4,,,52,127
44832,note_on,1,0,0,,10,,,69,127
44832,note_on,0,0,0,,10,,,45,127
45407,note_off,575,0,0,,10,,,69,127
45598,note_off,191,0,0,,10,,,45,127
45600,note_on,2,0,0,,10,,,57,127
45792,note_on,192,0,0,,1,,,73,127
45886,note_off,94,0,0,,1,,,73,127
45888,note_on,2,0,0,,10,,,69,127
45982,note_off,94,0,0,,10,,,69,127
45982,note_off,0,0,0,,10,,,57,127
45984,note_on,2,0,0,,1,,,73,127
45984,note_on,0,0,0,,10,,,57,127
46174,note_off,190,0,0,,1,,,73,127
46176,note_on,2,0,0,,2,,,74,127
46366,note_off,190,0,0,,2,,,74,127
46366,note_off,0,0,0,,10,,,57,127
46368,note_on,2,0,0,,4,,,76,127
46368,note_on,0,0,0,,7,,,55,127
46558,note_off,190,0,0,,4,,,76,127
46560,note_on,2,0,0,,1,,,73,127
46654,note_off,94,0,0,,1,,,73,127
46656,note_on,2,0,0,,7,,,67,127
46750,note_off,94,0,0,,7,,,67,127
46750,note_off,0,0,0,,7,,,55,127
46752,note_on,2,0,0,,1,,,73,127
46752,note_on,0,0,0,,7,,,55,127
46942,note_off,190,0,0,,1,,,73,127
46944,note_on,2,0,0,,4,,,76,127
47134,note_off,190,0,0,,4,,,76,127
47134,note_off,0,0,0,,7,,,55,127
47136,note_on,2,0,0,,7,,,79,127
47136,note_on,0,0,0,,6,,,54,127
47326,note_off,190,0,0,,7,,,79,127
47328,note_on,2,0,0,,6,,,78,127
47422,note_off,94,0,0,,6,,,78,127
47424,note_on,2,0,0,,4,,,76,127
47518,note_off,94,0,0,,4,,,76,127
47518,note_off,0,0,0,,6,,,54,127
47520,note_on,2,0,0,,2,,,74,127
47520,note_on,0,0,0,,6,,,54,127
47710,note_off,190,0,0,,2,,,74,127
47712,note_on,2,0,0,,1,,,73,127
47900,note_off,188,0,0,,6,,,54,127
47902,note_off,2,0,0,,1,,,73,127
47904,note_on,2,0,0,,2,,,74,127
48096,note_on,192,0,0,,12,,,59,127
48190,note_off,94,0,0,,12,,,59,127
48192,note_on,2,0,0,,6,,,54,127
48286,note_off,94,0,0,,6,,,54,127
48286,note_off,0,0,0,,2,,,74,127
48288,note_on,2,0,0,,6,,,78,127
48288,note_on,0,0,0,,12,,,59,127
48478,note_off,190,0,0,,12,,,59,127
48480,note_on,2,0,0,,1,,,61,127
48670,note_off,190,0,0,,1,,,61,127
48670,note_off,0,0,0,,6,,,78,127
48672,note_on,2,0,0,,6,,,78,127
48672,note_on,0,0,0,,2,,,62,127
48862,note_off,190,0,0,,2,,,62,127
48864,note_on,2,0,0,,1,,,61,127
48958,note_off,94,0,0,,1,,,61,127
48960,note_on,2,0,0,,12,,,59,127
49054,note_off,94,0,0,,12,,,59,127
49054,note_off,0,0,0,,6,,,78,127
49056,note_on,2,0,0,,4,,,76,127
49056,note_on,0,0,0,,1,,,61,127
49246,note_off,190,0,0,,1,,,61,127
49248,note_on,2,0,0,,12,,,59,127
49342,note_off,94,0,0,,12,,,59,127
49344,note_on,2,0,0,,11,,,58,127
49438,note_off,94,0,0,,11,,,58,127
49438,note_off,0,0,0,,4,,,76,127
49440,note_on,2,0,0,,2,,,74,127
49440,note_on,0,0,0,,12,,,59,127
49630,note_off,190,0,0,,12,,,59,127
49632,note_on,2,0,0,,12,,,59,127
49726,note_off,94,0,0,,12,,,59,127
49728,note_on,2,0,0,,6,,,54,127
49822,note_off,94,0,0,,6,,,54,127
49822,note_off,0,0,0,,2,,,74,127
49824,note_on,2,0,0,,6,,,78,127
49824,note_on,0,0,0,,12,,,59,127
50014,note_off,190,0,0,,12,,,59,127
50016,note_on,2,0,0,,1,,,61,127
50206,note_off,190,0,0,,1,,,61,127
50206,note_off,0,0,0,,6,,,78,127
50208,note_on,2,0,0,,6,,,78,127
50208,note_on,0,0,0,,2,,,62,127
50398,note_off,190,0,0,,2,,,62,127
50400,note_on,2,0,0,,1,,,61,127
50494,note_off,94,0,0,,1,,,61,127
50496,note_on,2,0,0,,12,,,59,127
50590,note_off,94,0,0,,12,,,59,127
50590,note_off,0,0,0,,6,,,78,127
50592,note_on,2,0,0,,4,,,76,127
50592,note_on,0,0,0,,1,,,61,127
50782,note_off,190,0,0,,1,,,61,127
50784,note_on,2,0,0,,12,,,59,127
50878,note_off,94,0,0,,12,,,59,127
50880,note_on,2,0,0,,11,,,58,127
50974,note_off,94,0,0,,11,,,58,127
50974,note_off,0,0,0,,4,,,76,127
50976,note_on,2,0,0,,2,,,74,127
50976,note_on,0,0,0,,12,,,59,127
51166,note_off,190,0,0,,2,,,74,127
51168,note_on,2,0,0,,12,,,83,127
51262,note_off,94,0,0,,12,,,83,127
51264,note_on,2,0,0,,2,,,74,127
51358,note_off,94,0,0,,2,,,74,127
51358,note_off,0,0,0,,12,,,59,127
51360,note_on,2,0,0,,12,,,83,127
51360,note_on,0,0,0,,12,,,59,127
51550,note_off,190,0,0,,12,,,83,127
51552,note_on,2,0,0,,2,,,74,127
51742,note_off,190,0,0,,12,,,59,127
51744,note_on,2,0,0,,7,,,55,127
51840,note_off,96,0,0,,2,,,74,127
51936,note_on,96,0,0,,12,,,83,127
52030,note_off,94,0,0,,12,,,83,127
52032,note_on,2,0,0,,2,,,74,127
52126,note_off,94,0,0,,2,,,74,127
52126,note_off,0,0,0,,7,,,55,127
52128,note_on,2,0,0,,12,,,83,127
52128,note_on,0,0,0,,7,,,55,127
52318,note_off,190,0,0,,12,,,83,127
52320,note_on,2,0,0,,2,,,74,127
52510,note_off,190,0,0,,7,,,55,127
52512,note_on,2,0,0,,4,,,52,127
52608,note_off,96,0,0,,2,,,74,127
52704,note_on,96,0,0,,7,,,79,127
52798,note_off,94,0,0,,7,,,79,127
52800,note_on,2,0,0,,1,,,73,127
52894,note_off,94,0,0,,1,,,73,127
52894,note_off,0,0,0,,4,,,52,127
52896,note_on,2,0,0,,7,,,79,127
52896,note_on,0,0,0,,4,,,52,127
53086,note_off,190,0,0,,7,,,79,127
53088,note_on,2,0,0,,1,,,73,127
53278,note_off,190,0,0,,4,,,52,127
53280,note_on,2,0,0,,2,,,50,127
53408,note_off,128,0,0,,1,,,73,127
53472,note_on,64,0,0,,7,,,79,127
53566,note_off,94,0,0,,7,,,79,127
53568,note_on,2,0,0,,12,,,71,127
53662,note_off,94,0,0,,12,,,71,127
53662,note_off,0,0,0,,2,,,50,127
53664,note_on,2,0,0,,7,,,79,127
53664,note_on,0,0,0,,2,,,50,127
53854,note_off,190,0,0,,7,,,79,127
53856,note_on,2,0,0,,12,,,71,127
54046,note_off,190,0,0,,2,,,50,127
54048,note_on,2,0,0,,1,,,49,127
54146,note_off,98,0,0,,12,,,71,127
54240,note_on,94,0,0,,7,,,79,127
54334,note_off,94,0,0,,7,,,79,127
54336,note_on,2,0,0,,10,,,69,127
54430,note_off,94,0,0,,10,,,69,127
54430,note_off,0,0,0,,1,,,49,127
54432,note_on,2,0,0,,7,,,79,127
54432,note_on,0,0,0,,1,,,49,127
54622,note_off,190,0,0,,7,,,79,127
54624,note_on,2,0,0,,10,,,69,127
54814,note_off,190,0,0,,1,,,49,127
54816,note_on,2,0,0,,3,,,51,127
54884,note_off,68,0,0,,10,,,69,127
55008,note_on,124,0,0,,6,,,78,127
55102,note_off,94,0,0,,6,,,78,127
55104,note_on,2,0,0,,10,,,69,127
55198,note_off,94,0,0,,10,,,69,127
55198,note_off,0,0,0,,3,,,51,127
55200,note_on,2,0,0,,6,,,78,127
55200,note_on,0,0,0,,3,,,51,127
55390,note_off,190,0,0,,6,,,78,127
55392,note_on,2,0,0,,10,,,69,127
55582,note_off,190,0,0,,3,,,51,127
55584,note_on,2,0,0,,4,,,52,127
55622,note_off,38,0,0,,10,,,69,127
55776,note_on,154,0,0,,4,,,76,127
55870,note_off,94,0,0,,4,,,76,127
55872,note_on,2,0,0,,7,,,67,127
55966,note_off,94,0,0,,7,,,67,127
55966,note_off,0,0,0,,4,,,52,127
55968,note_on,2,0,0,,4,,,76,127
55968,note_on,0,0,0,,4,,,52,127
56158,note_off,190,0,0,,4,,,76,127
56160,note_on,2,0,0,,7,,,67,127
56350,note_off,190,0,0,,4,,,52,127
56352,note_on,2,0,0,,1,,,49,127
56360,note_off,8,0,0,,7,,,67,127
56544,note_on,184,0,0,,4,,,76,127
56638,note_off,94,0,0,,4,,,76,127
56640,note_on,2,0,0,,7,,,67,127
56734,note_off,94,0,0,,7,,,67,127
56734,note_off,0,0,0,,1,,,49,127
56736,note_on,2,0,0,,4,,,76,127
56736,note_on,0,0,0,,1,,,49,127
56926,note_off,190,0,0,,4,,,76,127
56928,note_on,2,0,0,,7,,,67,127
57118,note_off,190,0,0,,7,,,67,127
57118,note_off,0,0,0,,1,,,49,127
57120,note_on,2,0,0,,6,,,66,127
57120,note_on,0,0,0,,2,,,50,127
57312,note_on,192,0,0,,2,,,74,127
57330,note_off,18,0,0,,6,,,66,127
57406,note_off,76,0,0,,2,,,74,127
57408,note_on,2,0,0,,6,,,66,127
57502,note_off,94,0,0,,6,,,66,127
57502,note_off,0,0,0,,2,,,50,127
57504,note_on,2,0,0,,2,,,74,127
57504,note_on,0,0,0,,2,,,50,127
57694,note_off,190,0,0,,2,,,74,127
57696,note_on,2,0,0,,6,,,66,127
57886,note_off,190,0,0,,6,,,66,127
57886,note_off,0,0,0,,2,,,50,127
57888,note_on,2,0,0,,4,,,64,127
57888,note_on,0,0,0,,7,,,55,127
58078,note_off,190,0,0,,4,,,64,127
58080,note_on,2,0,0,,11,,,70,127
58270,note_off,190,0,0,,7,,,55,127
58272,note_on,2,0,0,,7,,,55,127
58462,note_off,190,0,0,,11,,,70,127
58464,note_on,2,0,0,,12,,,71,127
58654,note_off,190,0,0,,7,,,55,127
58656,note_on,2,0,0,,7,,,55,127
58750,note_off,94,0,0,,12,,,71,127
58752,note_on,2,0,0,,10,,,69,127
58846,note_off,94,0,0,,10,,,69,127
58848,note_on,2,0,0,,7,,,67,127
58942,note_off,94,0,0,,7,,,67,127
58944,note_on,2,0,0,,6,,,66,127
59038,note_off,94,0,0,,6,,,66,127
59038,note_off,0,0,0,,7,,,55,127
59040,note_on,2,0,0,,4,,,76,127
59040,note_on,0,0,0,,7,,,43,127
59230,note_off,190,0,0,,4,,,76,127
59232,note_on,2,0,0,,2,,,74,127
59422,note_off,190,0,0,,2,,,74,127
59422,note_off,0,0,0,,7,,,43,127
59424,note_on,2,0,0,,1,,,73,127
59424,note_on,0,0,0,,10,,,45,127
59614,note_off,190,0,0,,1,,,73,127
59616,note_on,2,0,0,,10,,,69,127
59710,note_off,94,0,0,,10,,,69,127
59712,note_on,2,0,0,,4,,,64,127
59806,note_off,94,0,0,,4,,,64,127
59806,note_off,0,0,0,,10,,,45,127
59808,note_on,2,0,0,,10,,,69,127
59808,note_on,0,0,0,,10,,,45,127
59998,note_off,190,0,0,,10,,,69,127
60000,note_on,2,0,0,,10,,,69,127
60094,note_off,94,0,0,,10,,,69,127
60096,note_on,2,0,0,,4,,,64,127
60190,note_off,94,0,0,,4,,,64,127
60190,note_off,0,0,0,,10,,,45,127
60192,note_on,2,0,0,,10,,,69,127
60192,note_on,0,0,0,,10,,,45,127
60382,note_off,190,0,0,,10,,,69,127
60384,note_on,2,0,0,,10,,,69,127
60478,note_off,94,0,0,,10,,,69,127
60480,note_on,2,0,0,,4,,,64,127
60574,note_off,94,0,0,,4,,,64,127
60574,note_off,0,0,0,,10,,,45,127
60576,note_on,2,0,0,,10,,,69,127
60576,note_on,0,0,0,,10,,,45,127
60766,note_off,190,0,0,,10,,,69,127
60768,note_on,2,0,0,,4,,,64,127
60958,note_off,190,0,0,,4,,,64,127
60958,note_off,0,0,0,,10,,,45,127
60960,note_on,2,0,0,,10,,,69,127
60960,note_on,0,0,0,,10,,,45,127
61535,note_off,575,0,0,,10,,,45,127
61727,note_off,192,0,0,,10,,,69,127
62112,note_on,385,0,0,,2,,,50,127
62302,note_off,190,0,0,,2,,,50,127
62304,note_on,2,0,0,,5,,,53,127
62494,note_off,190,0,0,,5,,,53,127
62496,note_on,2,0,0,,10,,,57,127
62686,note_off,190,0,0,,10,,,57,127
62688,note_on,2,0,0,,2,,,62,127
62878,note_off,190,0,0,,2,,,62,127
62880,note_on,2,0,0,,5,,,65,127
63072,note_on,192,0,0,,2,,,86,127
63166,note_off,94,0,0,,2,,,86,127
63168,note_on,2,0,0,,10,,,81,127
63262,note_off,94,0,0,,10,,,81,127
63262,note_off,0,0,0,,5,,,65,127
63264,note_on,2,0,0,,7,,,79,127
63264,note_on,0,0,0,,4,,,64,127
63454,note_off,190,0,0,,7,,,79,127
63456,note_on,2,0,0,,5,,,77,127
63550,note_off,94,0,0,,5,,,77,127
63552,note_on,2,0,0,,4,,,76,127
63646,note_off,94,0,0,,4,,,76,127
63646,note_off,0,0,0,,4,,,64,127
63648,note_on,2,0,0,,4,,,76,127
63648,note_on,0,0,0,,2,,,50,127
63838,note_off,190,0,0,,2,,,50,127
63838,note_off,0,0,0,,4,,,76,127
63840,note_on,2,0,0,,5,,,77,127
63840,note_on,0,0,0,,5,,,53,127
64030,note_off,190,0,0,,5,,,53,127
64032,note_on,2,0,0,,10,,,57,127
64220,note_off,188,0,0,,5,,,77,127
64222,note_off,2,0,0,,10,,,57,127
64224,note_on,2,0,0,,2,,,62,127
64414,note_off,190,0,0,,2,,,62,127
64416,note_on,2,0,0,,5,,,65,127
64608,note_on,192,0,0,,2,,,86,127
64702,note_off,94,0,0,,2,,,86,127
64704,note_on,2,0,0,,10,,,81,127
64798,note_off,94,0,0,,10,,,81,127
64798,note_off,0,0,0,,5,,,65,127
64800,note_on,2,0,0,,7,,,79,127
64800,note_on,0,0,0,,4,,,64,127
64990,note_off,190,0,0,,7,,,79,127
64992,note_on,2,0,0,,5,,,77,127
65086,note_off,94,0,0,,5,,,77,127
65088,note_on,2,0,0,,4,,,76,127
65182,note_off,94,0,0,,4,,,76,127
65182,note_off,0,0,0,,4,,,64,127
65184,note_on,2,0,0,,5,,,77,127
65184,note_on,0,0,0,,2,,,62,127
65364,note_off,180,0,0,,5,,,77,127
65376,note_on,12,0,0,,8,,,80,127
65566,note_off,190,0,0,,2,,,62,127
65568,note_on,2,0,0,,2,,,62,127
65758,note_off,190,0,0,,8,,,80,127
65760,note_on,2,0,0,,10,,,81,127
65854,note_off,94,0,0,,10,,,81,127
65856,note_on,2,0,0,,11,,,82,127
65950,note_off,94,0,0,,11,,,82,127
65950,note_off,0,0,0,,2,,,62,127
65952,note_on,2,0,0,,10,,,69,127
65952,note_on,0,0,0,,1,,,61,127
66142,note_off,190,0,0,,10,,,69,127
66144,note_on,2,0,0,,7,,,79,127
66334,note_off,190,0,0,,1,,,61,127
66336,note_on,2,0,0,,10,,,57,127
66526,note_off,190,0,0,,7,,,79,127
66528,note_on,2,0,0,,5,,,77,127
66622,note_off,94,0,0,,5,,,77,127
66624,note_on,2,0,0,,4,,,76,127
66718,note_off,94,0,0,,4,,,76,127
66718,note_off,0,0,0,,10,,,57,127
66720,note_on,2,0,0,,5,,,77,127
66720,note_on,0,0,0,,2,,,50,127
66900,note_off,180,0,0,,5,,,77,127
66912,note_on,12,0,0,,8,,,80,127
67102,note_off,190,0,0,,2,,,50,127
67104,note_on,2,0,0,,2,,,62,127
67294,note_off,190,0,0,,8,,,80,127
67296,note_on,2,0,0,,10,,,81,127
67390,note_off,94,0,0,,10,,,81,127
67392,note_on,2,0,0,,12,,,83,127
67486,note_off,94,0,0,,12,,,83,127
67486,note_off,0,0,0,,2,,,62,127
67488,note_on,2,0,0,,10,,,69,127
67488,note_on,0,0,0,,1,,,61,127
67678,note_off,190,0,0,,10,,,69,127
67680,note_on,2,0,0,,7,,,79,127
67870,note_off,190,0,0,,1,,,61,127
67872,note_on,2,0,0,,10,,,57,127
68062,note_off,190,0,0,,7,,,79,127
68064,note_on,2,0,0,,6,,,78,127
68158,note_off,94,0,0,,6,,,78,127
68160,note_on,2,0,0,,4,,,76,127
68254,note_off,94,0,0,,4,,,76,127
68254,note_off,0,0,0,,10,,,57,127
68256,note_on,2,0,0,,6,,,78,127
68256,note_on,0,0,0,,2,,,62,127
68350,note_off,94,0,0,,6,,,78,127
68352,note_on,2,0,0,,2,,,74,127
68448,note_on,96,0,0,,2,,,86,127
68542,note_off,94,0,0,,2,,,86,127
68542,note_off,0,0,0,,2,,,74,127
68544,note_on,2,0,0,,2,,,74,127
68638,note_off,94,0,0,,2,,,62,127
68640,note_on,2,0,0,,6,,,78,127
68640,note_on,0,0,0,,1,,,61,127
68734,note_off,94,0,0,,6,,,78,127
68734,note_off,0,0,0,,2,,,74,127
68736,note_on,2,0,0,,2,,,74,127
68832,note_on,96,0,0,,2,,,86,127
68926,note_off,94,0,0,,2,,,86,127
68926,note_off,0,0,0,,2,,,74,127
68928,note_on,2,0,0,,2,,,74,127
69022,note_off,94,0,0,,1,,,61,127
69024,note_on,2,0,0,,6,,,78,127
69024,note_on,0,0,0,,12,,,59,127
69118,note_off,94,0,0,,6,,,78,127
69118,note_off,0,0,0,,2,,,74,127
69120,note_on,2,0,0,,2,,,74,127
69216,note_on,96,0,0,,2,,,86,127
69310,note_off,94,0,0,,2,,,86,127
69310,note_off,0,0,0,,2,,,74,127
69312,note_on,2,0,0,,2,,,74,127
69406,note_off,94,0,0,,12,,,59,127
69408,note_on,2,0,0,,6,,,78,127
69408,note_on,0,0,0,,10,,,57,127
69502,note_off,94,0,0,,6,,,78,127
69502,note_off,0,0,0,,2,,,74,127
69504,note_on,2,0,0,,2,,,74,127
69600,note_on,96,0,0,,2,,,86,127
69694,note_off,94,0,0,,2,,,86,127
69694,note_off,0,0,0,,2,,,74,127
69696,note_on,2,0,0,,2,,,74,127
69790,note_off,94,0,0,,2,,,74,127
69790,note_off,0,0,0,,10,,,57,127
69792,note_on,2,0,0,,12,,,83,127
69792,note_on,0,0,0,,7,,,55,127
69886,note_off,94,0,0,,12,,,83,127
69888,note_on,2,0,0,,7,,,79,127
69982,note_off,94,0,0,,7,,,79,127
69984,note_on,2,0,0,,10,,,81,127
70078,note_off,94,0,0,,10,,,81,127
70080,note_on,2,0,0,,6,,,78,127
70174,note_off,94,0,0,,6,,,78,127
70174,note_off,0,0,0,,7,,,55,127
70176,note_on,2,0,0,,7,,,79,127
70176,note_on,0,0,0,,7,,,55,127
70270,note_off,94,0,0,,7,,,79,127
70272,note_on,2,0,0,,4,,,76,127
70366,note_off,94,0,0,,4,,,76,127
70368,note_on,2,0,0,,6,,,78,127
70464,note_on,96,0,0,,2,,,86,127
70558,note_off,94,0,0,,2,,,86,127
70558,note_off,0,0,0,,6,,,78,127
70558,note_off,0,0,0,,7,,,55,127
70560,note_on,2,0,0,,6,,,78,127
70560,note_on,0,0,0,,10,,,57,127
70654,note_off,94,0,0,,6,,,78,127
70656,note_on,2,0,0,,2,,,86,127
70750,note_off,94,0,0,,2,,,86,127
70752,note_on,2,0,0,,1,,,85,127
70846,note_off,94,0,0,,1,,,85,127
70848,note_on,2,0,0,,12,,,83,127
70942,note_off,94,0,0,,12,,,83,127
70944,note_on,2,0,0,,10,,,81,127
70944,note_on,0,0,0,,10,,,45,127
71038,note_off,94,0,0,,10,,,81,127
71040,note_on,2,0,0,,7,,,79,127
71134,note_off,94,0,0,,7,,,79,127
71136,note_on,2,0,0,,6,,,78,127
71230,note_off,94,0,0,,6,,,78,127
71232,note_on,2,0,0,,4,,,76,127
71326,note_off,94,0,0,,4,,,76,127
71326,note_off,0,0,0,,10,,,45,127
71327,note_off,1,0,0,,10,,,57,127
71328,note_on,1,0,0,,6,,,78,127
71328,note_on,0,0,0,,2,,,62,127
71424,note_on,96,0,0,,2,,,74,127
71518,note_off,94,0,0,,2,,,74,127
71518,note_off,0,0,0,,6,,,78,127
71520,note_on,2,0,0,,2,,,86,127
71616,note_on,96,0,0,,2,,,74,127
71710,note_off,94,0,0,,2,,,74,127
71710,note_off,0,0,0,,2,,,86,127
71710,note_off,0,0,0,,2,,,62,127
71712,note_on,2,0,0,,6,,,78,127
71712,note_on,0,0,0,,1,,,61,127
71808,note_on,96,0,0,,2,,,74,127
71902,note_off,94,0,0,,2,,,74,127
71902,note_off,0,0,0,,6,,,78,127
71904,note_on,2,0,0,,2,,,86,127
72000,note_on,96,0,0,,2,,,74,127
72094,note_off,94,0,0,,2,,,74,127
72094,note_off,0,0,0,,2,,,86,127
72094,note_off,0,0,0,,1,,,61,127
72096,note_on,2,0,0,,6,,,78,127
72096,note_on,0,0,0,,12,,,59,127
72192,note_on,96,0,0,,2,,,74,127
72286,note_off,94,0,0,,2,,,74,127
72286,note_off,0,0,0,,6,,,78,127
72288,note_on,2,0,0,,2,,,86,127
72384,note_on,96,0,0,,2,,,74,127
72478,note_off,94,0,0,,2,,,74,127
72478,note_off,0,0,0,,2,,,86,127
72478,note_off,0,0,0,,12,,,59,127
72480,note_on,2,0,0,,6,,,78,127
72480,note_on,0,0,0,,10,,,57,127
72576,note_on,96,0,0,,2,,,74,127
72670,note_off,94,0,0,,2,,,74,127
72670,note_off,0,0,0,,6,,,78,127
72672,note_on,2,0,0,,2,,,86,127
72768,note_on,96,0,0,,2,,,74,127
72862,note_off,94,0,0,,2,,,74,127
72862,note_off,0,0,0,,2,,,86,127
72862,note_off,0,0,0,,10,,,57,127
72864,note_on,2,0,0,,12,,,83,127
72864,note_on,0,0,0,,7,,,55,127
72958,note_off,94,0,0,,12,,,83,127
72960,note_on,2,0,0,,7,,,79,127
73054,note_off,94,0,0,,7,,,79,127
73056,note_on,2,0,0,,10,,,81,127
73150,note_off,94,0,0,,10,,,81,127
73152,note_on,2,0,0,,6,,,78,127
73246,note_off,94,0,0,,6,,,78,127
73246,note_off,0,0,0,,7,,,55,127
73248,note_on,2,0,0,,7,,,79,127
73248,note_on,0,0,0,,7,,,55,127
73342,note_off,94,0,0,,7,,,79,127
73344,note_on,2,0,0,,4,,,76,127
73438,note_off,94,0,0,,4,,,76,127
73440,note_on,2,0,0,,6,,,78,127
73534,note_off,94,0,0,,6,,,78,127
73536,note_on,2,0,0,,2,,,86,127
73630,note_off,94,0,0,,7,,,55,127
73632,note_on,2,0,0,,6,,,78,127
73632,note_on,0,0,0,,10,,,57,127
73726,note_off,94,0,0,,6,,,78,127
73726,note_off,0,0,0,,2,,,86,127
73728,note_on,2,0,0,,2,,,86,127
73822,note_off,94,0,0,,2,,,86,127
73824,note_on,2,0,0,,1,,,85,127
73918,note_off,94,0,0,,1,,,85,127
73920,note_on,2,0,0,,12,,,83,127
74014,note_off,94,0,0,,12,,,83,127
74016,note_on,2,0,0,,10,,,81,127
74016,note_on,0,0,0,,10,,,45,127
74110,note_off,94,0,0,,10,,,81,127
74112,note_on,2,0,0,,7,,,79,127
74206,note_off,94,0,0,,7,,,79,127
74208,note_on,2,0,0,,6,,,78,127
74302,note_off,94,0,0,,6,,,78,127
74304,note_on,2,0,0,,4,,,76,127
74398,note_off,94,0,0,,4,,,76,127
74398,note_off,0,0,0,,10,,,45,127
74399,note_off,1,0,0,,10,,,57,127
74400,note_on,1,0,0,,2,,,74,127
74400,note_on,0,0,0,,2,,,50,127
74590,note_off,190,0,0,,2,,,74,127
74592,note_on,2,0,0,,10,,,81,127
74686,note_off,94,0,0,,10,,,81,127
74688,note_on,2,0,0,,2,,,74,127
74782,note_off,94,0,0,,2,,,74,127
74782,note_off,0,0,0,,2,,,50,127
74784,note_on,2,0,0,,10,,,81,127
74784,note_on,0,0,0,,6,,,54,127
74974,note_off,190,0,0,,10,,,81,127
74976,note_on,2,0,0,,0,,,72,127
75166,note_off,190,0,0,,0,,,72,127
75166,note_off,0,0,0,,6,,,54,127
75168,note_on,2,0,0,,12,,,71,127
75168,note_on,0,0,0,,7,,,55,127
75264,note_on,96,0,0,,12,,,83,127
75358,note_off,94,0,0,,12,,,83,127
75358,note_off,0,0,0,,12,,,71,127
75360,note_on,2,0,0,,7,,,79,127
75454,note_off,94,0,0,,7,,,79,127
75456,note_on,2,0,0,,4,,,76,127
75550,note_off,94,0,0,,4,,,76,127
75550,note_off,0,0,0,,7,,,55,127
75552,note_on,2,0,0,,1,,,73,127
75552,note_on,0,0,0,,7,,,55,127
75742,note_off,190,0,0,,1,,,73,127
75744,note_on,2,0,0,,2,,,74,127
75838,note_off,94,0,0,,2,,,74,127
75840,note_on,2,0,0,,4,,,76,127
75934,note_off,94,0,0,,4,,,76,127
75934,note_off,0,0,0,,7,,,55,127
75936,note_on,2,0,0,,10,,,69,127
75936,note_on,0,0,0,,10,,,57,127
76126,note_off,190,0,0,,10,,,69,127
76128,note_on,2,0,0,,4,,,76,127
76318,note_off,190,0,0,,4,,,76,127
76318,note_off,0,0,0,,10,,,57,127
76320,note_on,2,0,0,,6,,,78,127
76320,note_on,0,0,0,,10,,,57,127
76366,note_off,46,0,0,,6,,,78,127
76368,note_on,2,0,0,,4,,,76,127
76414,note_off,46,0,0,,4,,,76,127
76416,note_on,2,0,0,,6,,,78,127
76462,note_off,46,0,0,,6,,,78,127
76464,note_on,2,0,0,,4,,,76,127
76510,note_off,46,0,0,,4,,,76,127
76512,note_on,2,0,0,,6,,,78,127
76558,note_off,46,0,0,,6,,,78,127
76560,note_on,2,0,0,,4,,,76,127
76606,note_off,46,0,0,,4,,,76,127
76608,note_on,2,0,0,,2,,,74,127
76702,note_off,94,0,0,,2,,,74,127
76702,note_off,0,0,0,,10,,,57,127
76720,note_on,18,0,0,,4,,,76,127
76720,note_on,0,0,0,,7,,,55,127
76814,note_off,94,0,0,,4,,,76,127
76816,note_on,2,0,0,,12,,,83,127
76910,note_off,94,0,0,,12,,,83,127
76912,note_on,2,0,0,,7,,,79,127
77006,note_off,94,0,0,,7,,,79,127
77008,note_on,2,0,0,,4,,,76,127
77102,note_off,94,0,0,,4,,,76,127
77102,note_off,0,0,0,,7,,,55,127
77104,note_on,2,0,0,,1,,,73,127
77104,note_on,0,0,0,,7,,,55,127
77294,note_off,190,0,0,,1,,,73,127
77296,note_on,2,0,0,,2,,,74,127
77390,note_off,94,0,0,,2,,,74,127
77392,note_on,2,0,0,,4,,,76,127
77486,note_off,94,0,0,,4,,,76,127
77486,note_off,0,0,0,,7,,,55,127
77488,note_on,2,0,0,,10,,,69,127
77488,note_on,0,0,0,,10,,,57,127
77582,note_off,94,0,0,,10,,,69,127
77584,note_on,2,0,0,,6,,,78,127
77678,note_off,94,0,0,,6,,,78,127
77680,note_on,2,0,0,,4,,,76,127
77774,note_off,94,0,0,,4,,,76,127
77776,note_on,2,0,0,,2,,,74,127
77870,note_off,94,0,0,,2,,,74,127
77870,note_off,0,0,0,,10,,,57,127
77872,note_on,2,0,0,,6,,,78,127
77872,note_on,0,0,0,,7,,,55,127
77918,note_off,46,0,0,,6,,,78,127
77920,note_on,2,0,0,,4,,,76,127
77966,note_off,46,0,0,,4,,,76,127
77968,note_on,2,0,0,,6,,,78,127
78014,note_off,46,0,0,,6,,,78,127
78016,note_on,2,0,0,,4,,,76,127
78062,note_off,46,0,0,,4,,,76,127
78064,note_on,2,0,0,,6,,,78,127
78110,note_off,46,0,0,,6,,,78,127
78112,note_on,2,0,0,,4,,,76,127
78158,note_off,46,0,0,,4,,,76,127
78160,note_on,2,0,0,,2,,,74,127
78206,note_off,46,0,0,,2,,,74,127
78208,note_on,2,0,0,,4,,,76,127
78254,note_off,46,0,0,,4,,,76,127
78254,note_off,0,0,0,,7,,,55,127
78273,note_on,19,0,0,,6,,,54,127
78273,note_on,0,0,0,,2,,,74,127
78367,note_off,94,0,0,,2,,,74,127
78371,note_on,4,0,0,,10,,,81,127
78465,note_off,94,0,0,,10,,,81,127
78469,note_on,4,0,0,,7,,,79,127
78563,note_off,94,0,0,,7,,,79,127
78567,note_on,4,0,0,,6,,,78,127
78658,note_off,91,0,0,,6,,,54,127
78661,note_off,3,0,0,,6,,,78,127
78665,note_on,4,0,0,,7,,,55,127
78665,note_on,0,0,0,,12,,,83,127
78759,note_off,94,0,0,,12,,,83,127
78762,note_on,3,0,0,,7,,,79,127
78856,note_off,94,0,0,,7,,,79,127
78860,note_on,4,0,0,,6,,,78,127
78954,note_off,94,0,0,,6,,,78,127
78958,note_on,4,0,0,,4,,,76,127
79050,note_off,92,0,0,,7,,,55,127
79052,note_off,2,0,0,,4,,,76,127
79056,note_on,4,0,0,,10,,,57,127
79056,note_on,0,0,0,,10,,,69,127
79441,note_off,385,0,0,,10,,,69,127
79448,note_on,7,0,0,,10,,,45,127
79448,note_on,0,0,0,,6,,,78,127
79494,note_off,46,0,0,,6,,,78,127
79497,note_on,3,0,0,,4,,,76,127
79543,note_off,46,0,0,,4,,,76,127
79546,note_on,3,0,0,,6,,,78,127
79592,note_off,46,0,0,,6,,,78,127
79595,note_on,3,0,0,,4,,,76,127
79641,note_off,46,0,0,,4,,,76,127
79644,note_on,3,0,0,,6,,,78,127
79690,note_off,46,0,0,,6,,,78,127
79693,note_on,3,0,0,,4,,,76,127
79739,note_off,46,0,0,,4,,,76,127
79742,note_on,3,0,0,,2,,,74,127
79788,note_off,46,0,0,,2,,,74,127
79791,note_on,3,0,0,,4,,,76,127
79830,note_off,39,0,0,,10,,,57,127
79833,note_off,3,0,0,,10,,,45,127
79837,note_off,4,0,0,,4,,,76,127
79854,note_on,17,0,0,,2,,,38,127
79854,note_on,0,0,0,,2,,,74,127
81984,note_off,2130,0,0,,2,,,74,127
81984,note_off,0,0,0,,2,,,38,127
82944,end_of_track,960,1,0,,,,,,
