tick,type,time,meta,track,program,channel,pitch,tempo,note,velocity
0,copyright,0,1,0,,,,,,
0,program_change,0,0,0,6,0,,,,
0,pitchwheel,0,0,0,,0,0,,,
0,program_change,0,0,0,6,1,,,,
0,pitchwheel,0,0,0,,1,-590,,,
0,program_change,0,0,0,6,2,,,,
0,pitchwheel,0,0,0,,2,-272,,,
0,program_change,0,0,0,6,3,,,,
0,pitchwheel,0,0,0,,3,-353,,,
0,program_change,0,0,0,6,4,,,,
0,pitchwheel,0,0,0,,4,-560,,,
0,program_change,0,0,0,6,5,,,,
0,pitchwheel,0,0,0,,5,-80,,,
0,program_change,0,0,0,6,6,,,,
0,pitchwheel,0,0,0,,6,-625,,,
0,program_change,0,0,0,6,7,,,,
0,pitchwheel,0,0,0,,7,-130,,,
0,program_change,0,0,0,6,8,,,,
0,pitchwheel,0,0,0,,8,-512,,,
0,program_change,0,0,0,6,10,,,,
0,pitchwheel,0,0,0,,10,-464,,,
0,program_change,0,0,0,6,11,,,,
0,pitchwheel,0,0,0,,11,-208,,,
0,program_change,0,0,0,6,12,,,,
0,pitchwheel,0,0,0,,12,-553,,,
0,set_tempo,0,1,0,,,,500000,,
115,note_on,115,0,0,,10,,,81,127
345,note_on,230,0,0,,6,,,66,127
573,note_off,228,0,0,,6,,,66,127
575,note_on,2,0,0,,2,,,62,127
803,note_off,228,0,0,,10,,,81,127
805,note_on,2,0,0,,6,,,78,127
920,note_off,115,0,0,,2,,,62,127
1035,note_on,115,0,0,,2,,,62,127
1263,note_off,228,0,0,,2,,,62,127
1265,note_on,2,0,0,,12,,,59,127
1493,note_off,228,0,0,,6,,,78,127
1495,note_on,2,0,0,,2,,,74,127
1610,note_off,115,0,0,,12,,,59,127
1725,note_on,115,0,0,,12,,,59,127
1953,note_off,228,0,0,,12,,,59,127
1955,note_on,2,0,0,,7,,,55,127
2183,note_off,228,0,0,,2,,,74,127
2185,note_on,2,0,0,,12,,,71,127
2300,note_off,115,0,0,,7,,,55,127
2415,note_on,115,0,0,,7,,,55,127
2643,note_off,228,0,0,,7,,,55,127
2645,note_on,2,0,0,,4,,,52,127
2873,note_off,228,0,0,,12,,,71,127
2875,note_on,2,0,0,,7,,,79,127
2988,note_off,113,0,0,,7,,,79,127
2990,note_on,2,0,0,,6,,,78,127
3100,note_off,110,0,0,,4,,,52,127
3102,note_off,2,0,0,,6,,,78,127
3104,note_on,2,0,0,,6,,,54,127
3104,note_on,0,0,0,,4,,,76,127
3217,note_off,113,0,0,,4,,,76,127
3219,note_on,2,0,0,,2,,,74,127
3332,note_off,113,0,0,,2,,,74,127
3332,note_off,0,0,0,,6,,,54,127
3334,note_on,2,0,0,,7,,,55,127
3334,note_on,0,0,0,,1,,,73,127
3447,note_off,113,0,0,,1,,,73,127
3449,note_on,2,0,0,,12,,,71,127
3562,note_off,113,0,0,,12,,,71,127
3562,note_off,0,0,0,,7,,,55,127
3564,note_on,2,0,0,,10,,,57,127
3564,note_on,0,0,0,,10,,,69,127
3792,note_off,228,0,0,,10,,,69,127
3792,note_off,0,0,0,,10,,,57,127
3794,note_on,2,0,0,,12,,,59,127
3794,note_on,0,0,0,,10,,,69,127
3849,note_off,55,0,0,,10,,,69,127
3851,note_on,2,0,0,,7,,,67,127
3906,note_off,55,0,0,,7,,,67,127
3908,note_on,2,0,0,,10,,,69,127
3963,note_off,55,0,0,,10,,,69,127
3965,note_on,2,0,0,,7,,,67,127
4020,note_off,55,0,0,,7,,,67,127
4020,note_off,0,0,0,,12,,,59,127
4022,note_on,2,0,0,,1,,,61,127
4022,note_on,0,0,0,,10,,,69,127
4077,note_off,55,0,0,,10,,,69,127
4079,note_on,2,0,0,,7,,,67,127
4134,note_off,55,0,0,,7,,,67,127
4136,note_on,2,0,0,,10,,,69,127
4191,note_off,55,0,0,,10,,,69,127
4193,note_on,2,0,0,,7,,,67,127
4248,note_off,55,0,0,,7,,,67,127
4248,note_off,0,0,0,,1,,,61,127
4250,note_on,2,0,0,,2,,,62,127
4250,note_on,0,0,0,,6,,,66,127
4478,note_off,228,0,0,,6,,,66,127
4480,note_on,2,0,0,,2,,,50,127
4480,note_on,0,0,0,,10,,,69,127
4593,note_off,113,0,0,,10,,,69,127
4595,note_on,2,0,0,,6,,,66,127
4705,note_off,110,0,0,,2,,,62,127
4707,note_off,2,0,0,,6,,,66,127
4709,note_on,2,0,0,,2,,,74,127
4822,note_off,113,0,0,,2,,,74,127
4824,note_on,2,0,0,,10,,,69,127
4937,note_off,113,0,0,,10,,,69,127
4937,note_off,0,0,0,,2,,,50,127
4939,note_on,2,0,0,,2,,,62,127
4939,note_on,0,0,0,,6,,,78,127
5052,note_off,113,0,0,,2,,,62,127
5054,note_on,2,0,0,,10,,,69,127
5167,note_off,113,0,0,,10,,,69,127
5167,note_off,0,0,0,,6,,,78,127
5169,note_on,2,0,0,,1,,,61,127
5169,note_on,0,0,0,,4,,,76,127
5282,note_off,113,0,0,,1,,,61,127
5284,note_on,2,0,0,,10,,,69,127
5397,note_off,113,0,0,,10,,,69,127
5399,note_on,2,0,0,,10,,,57,127
5512,note_off,113,0,0,,10,,,57,127
5512,note_off,0,0,0,,4,,,76,127
5514,note_on,2,0,0,,10,,,69,127
5514,note_on,0,0,0,,6,,,78,127
5569,note_off,55,0,0,,6,,,78,127
5571,note_on,2,0,0,,7,,,79,127
5626,note_off,55,0,0,,7,,,79,127
5626,note_off,0,0,0,,10,,,69,127
5628,note_on,2,0,0,,2,,,62,127
5628,note_on,0,0,0,,6,,,78,127
5741,note_off,113,0,0,,2,,,62,127
5743,note_on,2,0,0,,10,,,69,127
5856,note_off,113,0,0,,10,,,69,127
5856,note_off,0,0,0,,6,,,78,127
5858,note_on,2,0,0,,1,,,61,127
5858,note_on,0,0,0,,4,,,76,127
5971,note_off,113,0,0,,1,,,61,127
5973,note_on,2,0,0,,10,,,69,127
6086,note_off,113,0,0,,10,,,69,127
6088,note_on,2,0,0,,10,,,57,127
6201,note_off,113,0,0,,10,,,57,127
6201,note_off,0,0,0,,4,,,76,127
6203,note_on,2,0,0,,10,,,69,127
6203,note_on,0,0,0,,6,,,78,127
6258,note_off,55,0,0,,6,,,78,127
6260,note_on,2,0,0,,7,,,79,127
6315,note_off,55,0,0,,7,,,79,127
6315,note_off,0,0,0,,10,,,69,127
6317,note_on,2,0,0,,2,,,62,127
6317,note_on,0,0,0,,6,,,78,127
6430,note_off,113,0,0,,2,,,62,127
6432,note_on,2,0,0,,10,,,69,127
6545,note_off,113,0,0,,10,,,69,127
6545,note_off,0,0,0,,6,,,78,127
6547,note_on,2,0,0,,1,,,61,127
6547,note_on,0,0,0,,4,,,76,127
6660,note_off,113,0,0,,1,,,61,127
6662,note_on,2,0,0,,10,,,69,127
6775,note_off,113,0,0,,10,,,69,127
6777,note_on,2,0,0,,10,,,57,127
6890,note_off,113,0,0,,10,,,57,127
6890,note_off,0,0,0,,4,,,76,127
6892,note_on,2,0,0,,10,,,69,127
6892,note_on,0,0,0,,6,,,78,127
6947,note_off,55,0,0,,6,,,78,127
6949,note_on,2,0,0,,7,,,79,127
7004,note_off,55,0,0,,7,,,79,127
7004,note_off,0,0,0,,10,,,69,127
7006,note_on,2,0,0,,2,,,62,127
7006,note_on,0,0,0,,6,,,78,127
7119,note_off,113,0,0,,6,,,78,127
7121,note_on,2,0,0,,4,,,76,127
7234,note_off,113,0,0,,4,,,76,127
7236,note_on,2,0,0,,2,,,50,127
7236,note_on,0,0,0,,2,,,74,127
7349,note_off,113,0,0,,2,,,74,127
7351,note_on,2,0,0,,1,,,73,127
7464,note_off,113,0,0,,1,,,73,127
7466,note_on,2,0,0,,2,,,74,127
7694,note_off,228,0,0,,2,,,74,127
7694,note_off,0,0,0,,2,,,50,127
7695,note_off,1,0,0,,2,,,62,127
7696,note_on,1,0,0,,4,,,64,127
7696,note_on,0,0,0,,7,,,79,127
7809,note_off,113,0,0,,7,,,79,127
7811,note_on,2,0,0,,12,,,71,127
7924,note_off,113,0,0,,12,,,71,127
7924,note_off,0,0,0,,4,,,64,127
7926,note_on,2,0,0,,3,,,63,127
7926,note_on,0,0,0,,6,,,78,127
8039,note_off,113,0,0,,6,,,78,127
8041,note_on,2,0,0,,12,,,71,127
8154,note_off,113,0,0,,12,,,71,127
8154,note_off,0,0,0,,3,,,63,127
8156,note_on,2,0,0,,6,,,66,127
8156,note_on,0,0,0,,10,,,81,127
8269,note_off,113,0,0,,10,,,81,127
8271,note_on,2,0,0,,12,,,71,127
8384,note_off,113,0,0,,12,,,71,127
8384,note_off,0,0,0,,6,,,66,127
8386,note_on,2,0,0,,4,,,64,127
8386,note_on,0,0,0,,7,,,79,127
8499,note_off,113,0,0,,7,,,79,127
8501,note_on,2,0,0,,12,,,71,127
8614,note_off,113,0,0,,12,,,71,127
8614,note_off,0,0,0,,4,,,64,127
8616,note_on,2,0,0,,3,,,63,127
8616,note_on,0,0,0,,6,,,78,127
8729,note_off,113,0,0,,6,,,78,127
8731,note_on,2,0,0,,12,,,71,127
8844,note_off,113,0,0,,12,,,71,127
8844,note_off,0,0,0,,3,,,63,127
8846,note_on,2,0,0,,6,,,66,127
8846,note_on,0,0,0,,10,,,81,127
8959,note_off,113,0,0,,10,,,81,127
8961,note_on,2,0,0,,12,,,71,127
9074,note_off,113,0,0,,12,,,71,127
9074,note_off,0,0,0,,6,,,66,127
9076,note_on,2,0,0,,4,,,64,127
9076,note_on,0,0,0,,7,,,79,127
9189,note_off,113,0,0,,7,,,79,127
9191,note_on,2,0,0,,12,,,71,127
9304,note_off,113,0,0,,12,,,71,127
9304,note_off,0,0,0,,4,,,64,127
9306,note_on,2,0,0,,3,,,63,127
9306,note_on,0,0,0,,6,,,78,127
9419,note_off,113,0,0,,6,,,78,127
9421,note_on,2,0,0,,12,,,71,127
9534,note_off,113,0,0,,12,,,71,127
9534,note_off,0,0,0,,3,,,63,127
9536,note_on,2,0,0,,6,,,66,127
9536,note_on,0,0,0,,10,,,81,127
9649,note_off,113,0,0,,10,,,81,127
9651,note_on,2,0,0,,12,,,71,127
9764,note_off,113,0,0,,12,,,71,127
9764,note_off,0,0,0,,6,,,66,127
9766,note_on,2,0,0,,4,,,64,127
9766,note_on,0,0,0,,7,,,79,127
9879,note_off,113,0,0,,7,,,79,127
9881,note_on,2,0,0,,6,,,78,127
9994,note_off,113,0,0,,6,,,78,127
9996,note_on,2,0,0,,4,,,52,127
9996,note_on,0,0,0,,4,,,76,127
10109,note_off,113,0,0,,4,,,76,127
10111,note_on,2,0,0,,10,,,81,127
10224,note_off,113,0,0,,10,,,81,127
10226,note_on,2,0,0,,7,,,79,127
10339,note_off,113,0,0,,7,,,79,127
10341,note_on,2,0,0,,6,,,78,127
10454,note_off,113,0,0,,6,,,78,127
10454,note_off,0,0,0,,4,,,52,127
10455,note_off,1,0,0,,4,,,64,127
10456,note_on,1,0,0,,4,,,64,127
10456,note_on,0,0,0,,4,,,76,127
10569,note_off,113,0,0,,4,,,76,127
10571,note_on,2,0,0,,2,,,74,127
10684,note_off,113,0,0,,2,,,74,127
10684,note_off,0,0,0,,4,,,64,127
10686,note_on,2,0,0,,6,,,66,127
10686,note_on,0,0,0,,1,,,73,127
10799,note_off,113,0,0,,1,,,73,127
10801,note_on,2,0,0,,12,,,71,127
10914,note_off,113,0,0,,12,,,71,127
10914,note_off,0,0,0,,6,,,66,127
10916,note_on,2,0,0,,7,,,67,127
10916,note_on,0,0,0,,11,,,70,127
11029,note_off,113,0,0,,11,,,70,127
11031,note_on,2,0,0,,12,,,71,127
11144,note_off,113,0,0,,12,,,71,127
11144,note_off,0,0,0,,7,,,67,127
11146,note_on,2,0,0,,4,,,64,127
11146,note_on,0,0,0,,7,,,79,127
11146,note_on,0,0,0,,11,,,70,127
11259,note_off,113,0,0,,11,,,70,127
11261,note_on,2,0,0,,12,,,71,127
11374,note_off,113,0,0,,12,,,71,127
11374,note_off,0,0,0,,4,,,64,127
11376,note_on,2,0,0,,6,,,66,127
11376,note_on,0,0,0,,11,,,70,127
11489,note_off,113,0,0,,11,,,70,127
11491,note_on,2,0,0,,12,,,71,127
11604,note_off,113,0,0,,12,,,71,127
11604,note_off,0,0,0,,6,,,66,127
11606,note_on,2,0,0,,7,,,67,127
11606,note_on,0,0,0,,11,,,70,127
11719,note_off,113,0,0,,11,,,70,127
11721,note_on,2,0,0,,12,,,71,127
11834,note_off,113,0,0,,12,,,71,127
11834,note_off,0,0,0,,7,,,67,127
11835,note_off,1,0,0,,7,,,79,127
11836,note_on,1,0,0,,4,,,64,127
11836,note_on,0,0,0,,7,,,79,127
11836,note_on,0,0,0,,11,,,70,127
11949,note_off,113,0,0,,11,,,70,127
11951,note_on,2,0,0,,12,,,71,127
12064,note_off,113,0,0,,12,,,71,127
12064,note_off,0,0,0,,4,,,64,127
12066,note_on,2,0,0,,6,,,66,127
12066,note_on,0,0,0,,11,,,70,127
12179,note_off,113,0,0,,11,,,70,127
12181,note_on,2,0,0,,12,,,71,127
12294,note_off,113,0,0,,12,,,71,127
12294,note_off,0,0,0,,6,,,66,127
12296,note_on,2,0,0,,7,,,67,127
12296,note_on,0,0,0,,11,,,70,127
12409,note_off,113,0,0,,11,,,70,127
12411,note_on,2,0,0,,12,,,71,127
12524,note_off,113,0,0,,12,,,71,127
12524,note_off,0,0,0,,7,,,67,127
12526,note_on,2,0,0,,6,,,66,127
12526,note_on,0,0,0,,11,,,70,127
12639,note_off,113,0,0,,11,,,70,127
12641,note_on,2,0,0,,12,,,71,127
12754,note_off,113,0,0,,12,,,71,127
12754,note_off,0,0,0,,6,,,66,127
12755,note_off,1,0,0,,7,,,79,127
12756,note_on,1,0,0,,6,,,54,127
12756,note_on,0,0,0,,1,,,73,127
12869,note_off,113,0,0,,1,,,73,127
12871,note_on,2,0,0,,2,,,74,127
12984,note_off,113,0,0,,2,,,74,127
12984,note_off,0,0,0,,6,,,54,127
12986,note_on,2,0,0,,6,,,66,127
12986,note_on,0,0,0,,4,,,76,127
13099,note_off,113,0,0,,4,,,76,127
13101,note_on,2,0,0,,6,,,78,127
13214,note_off,113,0,0,,6,,,78,127
13214,note_off,0,0,0,,6,,,66,127
13216,note_on,2,0,0,,4,,,64,127
13216,note_on,0,0,0,,7,,,79,127
13331,note_on,115,0,0,,4,,,76,127
13444,note_off,113,0,0,,4,,,76,127
13444,note_off,0,0,0,,7,,,79,127
13444,note_off,0,0,0,,4,,,64,127
13446,note_on,2,0,0,,2,,,62,127
13446,note_on,0,0,0,,6,,,78,127
13561,note_on,115,0,0,,2,,,74,127
13674,note_off,113,0,0,,2,,,74,127
13674,note_off,0,0,0,,6,,,78,127
13674,note_off,0,0,0,,2,,,62,127
13676,note_on,2,0,0,,1,,,61,127
13676,note_on,0,0,0,,4,,,76,127
13791,note_on,115,0,0,,1,,,73,127
13904,note_off,113,0,0,,1,,,73,127
13904,note_off,0,0,0,,4,,,76,127
13904,note_off,0,0,0,,1,,,61,127
13906,note_on,2,0,0,,12,,,59,127
13906,note_on,0,0,0,,6,,,78,127
14019,note_off,113,0,0,,6,,,78,127
14021,note_on,2,0,0,,4,,,76,127
14134,note_off,113,0,0,,4,,,76,127
14134,note_off,0,0,0,,12,,,59,127
14136,note_on,2,0,0,,1,,,61,127
14136,note_on,0,0,0,,2,,,74,127
14249,note_off,113,0,0,,2,,,74,127
14251,note_on,2,0,0,,1,,,73,127
14364,note_off,113,0,0,,1,,,73,127
14364,note_off,0,0,0,,1,,,61,127
14366,note_on,2,0,0,,2,,,62,127
14366,note_on,0,0,0,,12,,,71,127
14479,note_off,113,0,0,,12,,,71,127
14481,note_on,2,0,0,,10,,,69,127
14594,note_off,113,0,0,,10,,,69,127
14594,note_off,0,0,0,,2,,,62,127
14596,note_on,2,0,0,,4,,,52,127
14596,note_on,0,0,0,,2,,,62,127
14596,note_on,0,0,0,,4,,,76,127
14596,note_on,0,0,0,,8,,,68,127
14709,note_off,113,0,0,,8,,,68,127
14711,note_on,2,0,0,,10,,,69,127
14824,note_off,113,0,0,,10,,,69,127
14824,note_off,0,0,0,,2,,,62,127
14824,note_off,0,0,0,,4,,,52,127
14826,note_on,2,0,0,,4,,,52,127
14826,note_on,0,0,0,,2,,,62,127
14826,note_on,0,0,0,,8,,,68,127
14939,note_off,113,0,0,,8,,,68,127
14941,note_on,2,0,0,,10,,,69,127
15054,note_off,113,0,0,,10,,,69,127
15054,note_off,0,0,0,,2,,,62,127
15054,note_off,0,0,0,,4,,,52,127
15056,note_on,2,0,0,,4,,,52,127
15056,note_on,0,0,0,,2,,,62,127
15056,note_on,0,0,0,,8,,,68,127
15169,note_off,113,0,0,,8,,,68,127
15171,note_on,2,0,0,,10,,,69,127
15284,note_off,113,0,0,,10,,,69,127
15284,note_off,0,0,0,,2,,,62,127
15284,note_off,0,0,0,,4,,,52,127
15285,note_off,1,0,0,,4,,,76,127
15286,note_on,1,0,0,,2,,,62,127
15286,note_on,0,0,0,,4,,,52,127
15286,note_on,0,0,0,,4,,,76,127
15286,note_on,0,0,0,,8,,,68,127
15399,note_off,113,0,0,,8,,,68,127
15401,note_on,2,0,0,,10,,,69,127
15514,note_off,113,0,0,,10,,,69,127
15514,note_off,0,0,0,,4,,,52,127
15514,note_off,0,0,0,,2,,,62,127
15516,note_on,2,0,0,,4,,,52,127
15516,note_on,0,0,0,,2,,,62,127
15516,note_on,0,0,0,,8,,,68,127
15629,note_off,113,0,0,,8,,,68,127
15631,note_on,2,0,0,,10,,,69,127
15744,note_off,113,0,0,,10,,,69,127
15744,note_off,0,0,0,,2,,,62,127
15744,note_off,0,0,0,,4,,,52,127
15746,note_on,2,0,0,,2,,,62,127
15746,note_on,0,0,0,,4,,,52,127
15746,note_on,0,0,0,,8,,,68,127
15859,note_off,113,0,0,,8,,,68,127
15861,note_on,2,0,0,,10,,,69,127
15974,note_off,113,0,0,,10,,,69,127
15974,note_off,0,0,0,,4,,,52,127
15974,note_off,0,0,0,,2,,,62,127
15976,note_on,2,0,0,,2,,,62,127
15976,note_on,0,0,0,,4,,,52,127
15976,note_on,0,0,0,,8,,,68,127
16089,note_off,113,0,0,,8,,,68,127
16091,note_on,2,0,0,,10,,,69,127
16204,note_off,113,0,0,,10,,,69,127
16204,note_off,0,0,0,,4,,,52,127
16204,note_off,0,0,0,,2,,,62,127
16205,note_off,1,0,0,,4,,,76,127
16206,note_on,1,0,0,,2,,,62,127
16206,note_on,0,0,0,,4,,,52,127
16206,note_on,0,0,0,,12,,,71,127
16319,note_off,113,0,0,,12,,,71,127
16321,note_on,2,0,0,,1,,,73,127
16434,note_off,113,0,0,,1,,,73,127
16434,note_off,0,0,0,,4,,,52,127
16434,note_off,0,0,0,,2,,,62,127
16436,note_on,2,0,0,,4,,,52,127
16436,note_on,0,0,0,,2,,,62,127
16436,note_on,0,0,0,,2,,,74,127
16549,note_off,113,0,0,,2,,,74,127
16551,note_on,2,0,0,,4,,,76,127
16664,note_off,113,0,0,,4,,,76,127
16664,note_off,0,0,0,,2,,,62,127
16664,note_off,0,0,0,,4,,,52,127
16666,note_on,2,0,0,,2,,,62,127
16666,note_on,0,0,0,,4,,,52,127
16666,note_on,0,0,0,,6,,,78,127
16779,note_off,113,0,0,,6,,,78,127
16781,note_on,2,0,0,,2,,,74,127
16894,note_off,113,0,0,,2,,,74,127
16894,note_off,0,0,0,,4,,,52,127
16894,note_off,0,0,0,,2,,,62,127
16896,note_on,2,0,0,,1,,,61,127
16896,note_on,0,0,0,,4,,,52,127
16896,note_on,0,0,0,,4,,,76,127
17009,note_off,113,0,0,,4,,,76,127
17011,note_on,2,0,0,,1,,,73,127
17124,note_off,113,0,0,,1,,,73,127
17124,note_off,0,0,0,,4,,,52,127
17124,note_off,0,0,0,,1,,,61,127
17126,note_on,2,0,0,,12,,,59,127
17126,note_on,0,0,0,,4,,,52,127
17126,note_on,0,0,0,,2,,,74,127
17239,note_off,113,0,0,,2,,,74,127
17241,note_on,2,0,0,,12,,,71,127
17354,note_off,113,0,0,,12,,,71,127
17354,note_off,0,0,0,,4,,,52,127
17354,note_off,0,0,0,,12,,,59,127
17356,note_on,2,0,0,,10,,,57,127
17356,note_on,0,0,0,,1,,,73,127
17469,note_off,113,0,0,,10,,,57,127
17471,note_on,2,0,0,,4,,,64,127
17584,note_off,113,0,0,,4,,,64,127
17584,note_off,0,0,0,,1,,,73,127
17586,note_on,2,0,0,,8,,,56,127
17586,note_on,0,0,0,,12,,,71,127
17699,note_off,113,0,0,,8,,,56,127
17701,note_on,2,0,0,,4,,,64,127
17814,note_off,113,0,0,,4,,,64,127
17816,note_on,2,0,0,,4,,,52,127
17929,note_off,113,0,0,,4,,,52,127
17929,note_off,0,0,0,,12,,,71,127
17931,note_on,2,0,0,,4,,,64,127
17931,note_on,0,0,0,,1,,,73,127
17986,note_off,55,0,0,,1,,,73,127
17988,note_on,2,0,0,,2,,,74,127
18043,note_off,55,0,0,,2,,,74,127
18043,note_off,0,0,0,,4,,,64,127
18045,note_on,2,0,0,,10,,,57,127
18045,note_on,0,0,0,,1,,,73,127
18158,note_off,113,0,0,,10,,,57,127
18160,note_on,2,0,0,,4,,,64,127
18273,note_off,113,0,0,,4,,,64,127
18273,note_off,0,0,0,,1,,,73,127
18275,note_on,2,0,0,,8,,,56,127
18275,note_on,0,0,0,,12,,,71,127
18388,note_off,113,0,0,,8,,,56,127
18390,note_on,2,0,0,,4,,,64,127
18503,note_off,113,0,0,,4,,,64,127
18505,note_on,2,0,0,,4,,,52,127
18618,note_off,113,0,0,,4,,,52,127
18618,note_off,0,0,0,,12,,,71,127
18620,note_on,2,0,0,,4,,,64,127
18620,note_on,0,0,0,,1,,,73,127
18675,note_off,55,0,0,,1,,,73,127
18677,note_on,2,0,0,,2,,,74,127
18732,note_off,55,0,0,,2,,,74,127
18732,note_off,0,0,0,,4,,,64,127
18734,note_on,2,0,0,,10,,,57,127
18734,note_on,0,0,0,,1,,,73,127
18847,note_off,113,0,0,,10,,,57,127
18849,note_on,2,0,0,,4,,,64,127
18962,note_off,113,0,0,,4,,,64,127
18962,note_off,0,0,0,,1,,,73,127
18964,note_on,2,0,0,,8,,,56,127
18964,note_on,0,0,0,,12,,,71,127
19077,note_off,113,0,0,,8,,,56,127
19079,note_on,2,0,0,,4,,,64,127
19192,note_off,113,0,0,,4,,,64,127
19194,note_on,2,0,0,,4,,,52,127
19307,note_off,113,0,0,,4,,,52,127
19307,note_off,0,0,0,,12,,,71,127
19309,note_on,2,0,0,,4,,,64,127
19309,note_on,0,0,0,,1,,,73,127
19364,note_off,55,0,0,,1,,,73,127
19366,note_on,2,0,0,,2,,,74,127
19421,note_off,55,0,0,,2,,,74,127
19421,note_off,0,0,0,,4,,,64,127
19423,note_on,2,0,0,,10,,,57,127
19423,note_on,0,0,0,,1,,,73,127
19536,note_off,113,0,0,,1,,,73,127
19538,note_on,2,0,0,,10,,,69,127
19651,note_off,113,0,0,,10,,,69,127
19651,note_off,0,0,0,,10,,,57,127
19653,note_on,2,0,0,,12,,,59,127
19653,note_on,0,0,0,,2,,,74,127
19766,note_off,113,0,0,,2,,,74,127
19768,note_on,2,0,0,,12,,,71,127
19881,note_off,113,0,0,,12,,,71,127
19881,note_off,0,0,0,,12,,,59,127
19883,note_on,2,0,0,,1,,,61,127
19883,note_on,0,0,0,,4,,,76,127
19996,note_off,113,0,0,,4,,,76,127
19998,note_on,2,0,0,,1,,,73,127
20111,note_off,113,0,0,,1,,,73,127
20111,note_off,0,0,0,,1,,,61,127
20113,note_on,2,0,0,,2,,,62,127
20113,note_on,0,0,0,,6,,,78,127
20226,note_off,113,0,0,,6,,,78,127
20228,note_on,2,0,0,,2,,,74,127
20341,note_off,113,0,0,,2,,,74,127
20341,note_off,0,0,0,,2,,,62,127
20343,note_on,2,0,0,,4,,,64,127
20343,note_on,0,0,0,,8,,,80,127
20456,note_off,113,0,0,,8,,,80,127
20458,note_on,2,0,0,,4,,,76,127
20571,note_off,113,0,0,,4,,,76,127
20571,note_off,0,0,0,,4,,,64,127
20573,note_on,2,0,0,,6,,,66,127
20573,note_on,0,0,0,,10,,,81,127
20686,note_off,113,0,0,,10,,,81,127
20688,note_on,2,0,0,,6,,,78,127
20801,note_off,113,0,0,,6,,,78,127
20801,note_off,0,0,0,,6,,,66,127
20803,note_on,2,0,0,,4,,,64,127
20803,note_on,0,0,0,,12,,,83,127
20916,note_off,113,0,0,,12,,,83,127
20918,note_on,2,0,0,,8,,,80,127
21031,note_off,113,0,0,,8,,,80,127
21031,note_off,0,0,0,,4,,,64,127
21033,note_on,2,0,0,,4,,,52,127
21033,note_on,0,0,0,,4,,,76,127
21146,note_off,113,0,0,,4,,,76,127
21148,note_on,2,0,0,,12,,,71,127
21261,note_off,113,0,0,,12,,,71,127
21263,note_on,2,0,0,,8,,,68,127
21376,note_off,113,0,0,,8,,,68,127
21378,note_on,2,0,0,,12,,,71,127
21491,note_off,113,0,0,,12,,,71,127
21491,note_off,0,0,0,,4,,,52,127
21493,note_on,2,0,0,,4,,,64,127
21493,note_on,0,0,0,,12,,,83,127
21493,note_on,0,0,0,,8,,,80,127
21606,note_off,113,0,0,,4,,,64,127
21608,note_on,2,0,0,,2,,,62,127
21721,note_off,113,0,0,,2,,,62,127
21721,note_off,0,0,0,,8,,,80,127
21723,note_on,2,0,0,,1,,,61,127
21723,note_on,0,0,0,,4,,,76,127
21836,note_off,113,0,0,,1,,,61,127
21838,note_on,2,0,0,,12,,,59,127
21948,note_off,110,0,0,,12,,,83,127
21950,note_off,2,0,0,,12,,,59,127
21950,note_off,0,0,0,,4,,,76,127
21952,note_on,2,0,0,,1,,,61,127
21952,note_on,0,0,0,,1,,,85,127
21952,note_on,0,0,0,,10,,,81,127
22065,note_off,113,0,0,,1,,,61,127
22067,note_on,2,0,0,,2,,,62,127
22180,note_off,113,0,0,,2,,,62,127
22180,note_off,0,0,0,,10,,,81,127
22180,note_off,0,0,0,,1,,,85,127
22182,note_on,2,0,0,,4,,,64,127
22182,note_on,0,0,0,,12,,,83,127
22182,note_on,0,0,0,,8,,,80,127
22295,note_off,113,0,0,,4,,,64,127
22297,note_on,2,0,0,,2,,,62,127
22410,note_off,113,0,0,,2,,,62,127
22410,note_off,0,0,0,,8,,,80,127
22412,note_on,2,0,0,,1,,,61,127
22412,note_on,0,0,0,,4,,,76,127
22525,note_off,113,0,0,,1,,,61,127
22527,note_on,2,0,0,,12,,,59,127
22637,note_off,110,0,0,,12,,,83,127
22639,note_off,2,0,0,,12,,,59,127
22639,note_off,0,0,0,,4,,,76,127
22641,note_on,2,0,0,,1,,,61,127
22641,note_on,0,0,0,,10,,,81,127
22641,note_on,0,0,0,,1,,,85,127
22754,note_off,113,0,0,,1,,,61,127
22756,note_on,2,0,0,,2,,,62,127
22869,note_off,113,0,0,,2,,,62,127
22869,note_off,0,0,0,,1,,,85,127
22869,note_off,0,0,0,,10,,,81,127
22871,note_on,2,0,0,,4,,,64,127
22871,note_on,0,0,0,,8,,,80,127
22871,note_on,0,0,0,,12,,,83,127
22984,note_off,113,0,0,,4,,,64,127
22986,note_on,2,0,0,,2,,,62,127
23099,note_off,113,0,0,,2,,,62,127
23099,note_off,0,0,0,,8,,,80,127
23101,note_on,2,0,0,,1,,,61,127
23101,note_on,0,0,0,,4,,,76,127
23214,note_off,113,0,0,,1,,,61,127
23216,note_on,2,0,0,,12,,,59,127
23326,note_off,110,0,0,,12,,,83,127
23328,note_off,2,0,0,,12,,,59,127
23328,note_off,0,0,0,,4,,,76,127
23330,note_on,2,0,0,,1,,,61,127
23330,note_on,0,0,0,,1,,,85,127
23330,note_on,0,0,0,,10,,,81,127
23443,note_off,113,0,0,,1,,,61,127
23445,note_on,2,0,0,,2,,,62,127
23558,note_off,113,0,0,,2,,,62,127
23558,note_off,0,0,0,,10,,,81,127
23558,note_off,0,0,0,,1,,,85,127
23560,note_on,2,0,0,,4,,,64,127
23560,note_on,0,0,0,,12,,,83,127
23673,note_off,113,0,0,,12,,,83,127
23675,note_on,2,0,0,,10,,,81,127
23788,note_off,113,0,0,,10,,,81,127
23788,note_off,0,0,0,,4,,,64,127
23790,note_on,2,0,0,,6,,,66,127
23790,note_on,0,0,0,,8,,,80,127
23903,note_off,113,0,0,,8,,,80,127
23905,note_on,2,0,0,,6,,,78,127
24018,note_off,113,0,0,,6,,,78,127
24018,note_off,0,0,0,,6,,,66,127
24020,note_on,2,0,0,,8,,,68,127
24020,note_on,0,0,0,,4,,,76,127
24133,note_off,113,0,0,,4,,,76,127
24135,note_on,2,0,0,,2,,,74,127
24248,note_off,113,0,0,,2,,,74,127
24248,note_off,0,0,0,,8,,,68,127
24250,note_on,2,0,0,,10,,,57,127
24250,note_on,0,0,0,,1,,,73,127
24365,note_on,115,0,0,,8,,,80,127
24423,note_off,58,0,0,,1,,,73,127
24478,note_off,55,0,0,,8,,,80,127
24478,note_off,0,0,0,,10,,,57,127
24480,note_on,2,0,0,,12,,,59,127
24480,note_on,0,0,0,,10,,,81,127
24595,note_on,115,0,0,,3,,,75,127
24653,note_off,58,0,0,,10,,,81,127
24708,note_off,55,0,0,,3,,,75,127
24708,note_off,0,0,0,,12,,,59,127
24710,note_on,2,0,0,,1,,,61,127
24710,note_on,0,0,0,,4,,,76,127
24825,note_on,115,0,0,,10,,,69,127
24883,note_off,58,0,0,,4,,,76,127
24938,note_off,55,0,0,,10,,,69,127
24938,note_off,0,0,0,,1,,,61,127
24940,note_on,2,0,0,,2,,,62,127
24940,note_on,0,0,0,,6,,,78,127
25168,note_off,228,0,0,,6,,,78,127
25168,note_off,0,0,0,,2,,,62,127
25170,note_on,2,0,0,,4,,,64,127
25170,note_on,0,0,0,,1,,,73,127
25225,note_off,55,0,0,,1,,,73,127
25227,note_on,2,0,0,,12,,,71,127
25282,note_off,55,0,0,,12,,,71,127
25284,note_on,2,0,0,,1,,,73,127
25339,note_off,55,0,0,,1,,,73,127
25341,note_on,2,0,0,,12,,,71,127
25396,note_off,55,0,0,,12,,,71,127
25398,note_on,2,0,0,,4,,,52,127
25398,note_on,0,0,0,,1,,,73,127
25453,note_off,55,0,0,,1,,,73,127
25455,note_on,2,0,0,,12,,,71,127
25510,note_off,55,0,0,,12,,,71,127
25512,note_on,2,0,0,,10,,,69,127
25567,note_off,55,0,0,,10,,,69,127
25569,note_on,2,0,0,,12,,,71,127
25622,note_off,53,0,0,,4,,,64,127
25624,note_off,2,0,0,,12,,,71,127
25624,note_off,0,0,0,,4,,,52,127
25626,note_on,2,0,0,,10,,,57,127
25626,note_on,0,0,0,,1,,,73,127
25739,note_off,113,0,0,,10,,,57,127
25741,note_on,2,0,0,,4,,,64,127
25854,note_off,113,0,0,,1,,,73,127
25856,note_on,2,0,0,,8,,,56,127
25856,note_on,0,0,0,,12,,,71,127
25969,note_off,113,0,0,,8,,,56,127
25969,note_off,0,0,0,,4,,,64,127
25971,note_on,2,0,0,,4,,,64,127
26086,note_on,115,0,0,,4,,,52,127
26199,note_off,113,0,0,,4,,,52,127
26199,note_off,0,0,0,,4,,,64,127
26199,note_off,0,0,0,,12,,,71,127
26201,note_on,2,0,0,,4,,,64,127
26201,note_on,0,0,0,,1,,,73,127
26256,note_off,55,0,0,,1,,,73,127
26258,note_on,2,0,0,,2,,,74,127
26313,note_off,55,0,0,,2,,,74,127
26315,note_on,2,0,0,,10,,,57,127
26315,note_on,0,0,0,,1,,,73,127
26428,note_off,113,0,0,,10,,,57,127
26428,note_off,0,0,0,,4,,,64,127
26430,note_on,2,0,0,,4,,,64,127
26543,note_off,113,0,0,,1,,,73,127
26545,note_on,2,0,0,,8,,,56,127
26545,note_on,0,0,0,,12,,,71,127
26658,note_off,113,0,0,,8,,,56,127
26658,note_off,0,0,0,,4,,,64,127
26660,note_on,2,0,0,,4,,,64,127
26775,note_on,115,0,0,,4,,,52,127
26888,note_off,113,0,0,,4,,,52,127
26888,note_off,0,0,0,,4,,,64,127
26888,note_off,0,0,0,,12,,,71,127
26890,note_on,2,0,0,,4,,,64,127
26890,note_on,0,0,0,,1,,,73,127
26945,note_off,55,0,0,,1,,,73,127
26947,note_on,2,0,0,,2,,,74,127
27002,note_off,55,0,0,,2,,,74,127
27004,note_on,2,0,0,,10,,,57,127
27004,note_on,0,0,0,,1,,,73,127
27117,note_off,113,0,0,,10,,,57,127
27117,note_off,0,0,0,,4,,,64,127
27119,note_on,2,0,0,,4,,,64,127
27232,note_off,113,0,0,,1,,,73,127
27234,note_on,2,0,0,,8,,,56,127
27234,note_on,0,0,0,,12,,,71,127
27347,note_off,113,0,0,,8,,,56,127
27347,note_off,0,0,0,,4,,,64,127
27349,note_on,2,0,0,,4,,,64,127
27464,note_on,115,0,0,,4,,,52,127
27577,note_off,113,0,0,,4,,,52,127
27577,note_off,0,0,0,,4,,,64,127
27577,note_off,0,0,0,,12,,,71,127
27579,note_on,2,0,0,,4,,,64,127
27579,note_on,0,0,0,,1,,,73,127
27634,note_off,55,0,0,,1,,,73,127
27636,note_on,2,0,0,,2,,,74,127
27691,note_off,55,0,0,,2,,,74,127
27691,note_off,0,0,0,,4,,,64,127
27693,note_on,2,0,0,,10,,,57,127
27693,note_on,0,0,0,,1,,,73,127
27808,note_on,115,0,0,,8,,,80,127
27866,note_off,58,0,0,,1,,,73,127
27921,note_off,55,0,0,,8,,,80,127
27921,note_off,0,0,0,,10,,,57,127
27923,note_on,2,0,0,,12,,,59,127
27923,note_on,0,0,0,,10,,,81,127
28038,note_on,115,0,0,,3,,,75,127
28096,note_off,58,0,0,,10,,,81,127
28151,note_off,55,0,0,,3,,,75,127
28151,note_off,0,0,0,,12,,,59,127
28153,note_on,2,0,0,,1,,,61,127
28153,note_on,0,0,0,,4,,,76,127
28268,note_on,115,0,0,,10,,,69,127
28326,note_off,58,0,0,,4,,,76,127
28381,note_off,55,0,0,,10,,,69,127
28381,note_off,0,0,0,,1,,,61,127
28383,note_on,2,0,0,,2,,,62,127
28383,note_on,0,0,0,,6,,,78,127
28611,note_off,228,0,0,,6,,,78,127
28611,note_off,0,0,0,,2,,,62,127
28613,note_on,2,0,0,,4,,,64,127
28613,note_on,0,0,0,,1,,,73,127
28668,note_off,55,0,0,,1,,,73,127
28670,note_on,2,0,0,,12,,,71,127
28725,note_off,55,0,0,,12,,,71,127
28727,note_on,2,0,0,,1,,,73,127
28782,note_off,55,0,0,,1,,,73,127
28784,note_on,2,0,0,,12,,,71,127
28839,note_off,55,0,0,,12,,,71,127
28841,note_on,2,0,0,,4,,,52,127
28841,note_on,0,0,0,,1,,,73,127
28896,note_off,55,0,0,,1,,,73,127
28898,note_on,2,0,0,,12,,,71,127
28953,note_off,55,0,0,,12,,,71,127
28955,note_on,2,0,0,,10,,,69,127
29010,note_off,55,0,0,,10,,,69,127
29012,note_on,2,0,0,,12,,,71,127
29065,note_off,53,0,0,,4,,,64,127
29067,note_off,2,0,0,,12,,,71,127
29067,note_off,0,0,0,,4,,,52,127
29069,note_on,2,0,0,,10,,,57,127
29069,note_on,0,0,0,,1,,,73,127
29184,note_on,115,0,0,,4,,,64,127
29297,note_off,113,0,0,,4,,,64,127
29297,note_off,0,0,0,,1,,,73,127
29297,note_off,0,0,0,,10,,,57,127
29299,note_on,2,0,0,,8,,,56,127
29299,note_on,0,0,0,,12,,,71,127
29414,note_on,115,0,0,,4,,,64,127
29527,note_off,113,0,0,,4,,,64,127
29527,note_off,0,0,0,,8,,,56,127
29529,note_on,2,0,0,,4,,,52,127
29642,note_off,113,0,0,,12,,,71,127
29644,note_on,2,0,0,,4,,,64,127
29644,note_on,0,0,0,,1,,,73,127
29699,note_off,55,0,0,,1,,,73,127
29701,note_on,2,0,0,,2,,,74,127
29756,note_off,55,0,0,,2,,,74,127
29756,note_off,0,0,0,,4,,,64,127
29756,note_off,0,0,0,,4,,,52,127
29758,note_on,2,0,0,,10,,,57,127
29758,note_on,0,0,0,,1,,,73,127
29873,note_on,115,0,0,,4,,,64,127
29986,note_off,113,0,0,,4,,,64,127
29986,note_off,0,0,0,,1,,,73,127
29986,note_off,0,0,0,,10,,,57,127
29988,note_on,2,0,0,,8,,,56,127
29988,note_on,0,0,0,,12,,,71,127
30103,note_on,115,0,0,,4,,,64,127
30216,note_off,113,0,0,,4,,,64,127
30216,note_off,0,0,0,,8,,,56,127
30218,note_on,2,0,0,,4,,,52,127
30331,note_off,113,0,0,,12,,,71,127
30333,note_on,2,0,0,,4,,,64,127
30333,note_on,0,0,0,,1,,,73,127
30388,note_off,55,0,0,,1,,,73,127
30390,note_on,2,0,0,,2,,,74,127
30445,note_off,55,0,0,,2,,,74,127
30445,note_off,0,0,0,,4,,,64,127
30445,note_off,0,0,0,,4,,,52,127
30447,note_on,2,0,0,,10,,,57,127
30447,note_on,0,0,0,,1,,,73,127
30562,note_on,115,0,0,,4,,,64,127
30675,note_off,113,0,0,,4,,,64,127
30675,note_off,0,0,0,,1,,,73,127
30675,note_off,0,0,0,,10,,,57,127
30677,note_on,2,0,0,,8,,,56,127
30677,note_on,0,0,0,,12,,,71,127
30792,note_on,115,0,0,,4,,,64,127
30905,note_off,113,0,0,,4,,,64,127
30905,note_off,0,0,0,,8,,,56,127
30907,note_on,2,0,0,,4,,,52,127
31020,note_off,113,0,0,,12,,,71,127
31022,note_on,2,0,0,,4,,,64,127
31022,note_on,0,0,0,,1,,,73,127
31077,note_off,55,0,0,,1,,,73,127
31079,note_on,2,0,0,,2,,,74,127
31134,note_off,55,0,0,,2,,,74,127
31134,note_off,0,0,0,,4,,,64,127
31134,note_off,0,0,0,,4,,,52,127
31136,note_on,2,0,0,,10,,,57,127
31136,note_on,0,0,0,,1,,,73,127
31251,note_on,115,0,0,,8,,,80,127
31309,note_off,58,0,0,,1,,,73,127
31364,note_off,55,0,0,,8,,,80,127
31364,note_off,0,0,0,,10,,,57,127
31366,note_on,2,0,0,,12,,,59,127
31366,note_on,0,0,0,,10,,,81,127
31481,note_on,115,0,0,,3,,,75,127
31539,note_off,58,0,0,,10,,,81,127
31594,note_off,55,0,0,,3,,,75,127
31594,note_off,0,0,0,,12,,,59,127
31596,note_on,2,0,0,,1,,,61,127
31596,note_on,0,0,0,,4,,,76,127
31711,note_on,115,0,0,,10,,,69,127
31769,note_off,58,0,0,,4,,,76,127
31824,note_off,55,0,0,,10,,,69,127
31824,note_off,0,0,0,,1,,,61,127
31826,note_on,2,0,0,,2,,,50,127
31826,note_on,0,0,0,,6,,,78,127
32054,note_off,228,0,0,,6,,,78,127
32054,note_off,0,0,0,,2,,,50,127
32056,note_on,2,0,0,,4,,,52,127
32056,note_on,0,0,0,,1,,,73,127
32111,note_off,55,0,0,,1,,,73,127
32113,note_on,2,0,0,,12,,,71,127
32168,note_off,55,0,0,,12,,,71,127
32170,note_on,2,0,0,,1,,,73,127
32225,note_off,55,0,0,,1,,,73,127
32227,note_on,2,0,0,,12,,,71,127
32282,note_off,55,0,0,,12,,,71,127
32284,note_on,2,0,0,,4,,,40,127
32284,note_on,0,0,0,,1,,,73,127
32339,note_off,55,0,0,,1,,,73,127
32341,note_on,2,0,0,,12,,,71,127
32396,note_off,55,0,0,,12,,,71,127
32398,note_on,2,0,0,,10,,,69,127
32453,note_off,55,0,0,,10,,,69,127
32455,note_on,2,0,0,,12,,,71,127
32508,note_off,53,0,0,,4,,,52,127
32510,note_off,2,0,0,,12,,,71,127
32510,note_off,0,0,0,,4,,,40,127
32512,note_on,2,0,0,,10,,,45,127
32512,note_on,0,0,0,,10,,,69,127
32968,note_off,456,0,0,,10,,,69,127
33201,note_off,233,0,0,,10,,,45,127
33203,note_on,2,0,0,,10,,,45,127
33203,note_on,0,0,0,,10,,,69,127
33431,note_off,228,0,0,,10,,,69,127
33433,note_on,2,0,0,,10,,,69,127
33661,note_off,228,0,0,,10,,,69,127
33663,note_on,2,0,0,,10,,,69,127
33891,note_off,228,0,0,,10,,,69,127
33891,note_off,0,0,0,,10,,,45,127
33893,note_on,2,0,0,,10,,,45,127
33893,note_on,0,0,0,,7,,,67,127
33893,note_on,0,0,0,,4,,,76,127
34121,note_off,228,0,0,,4,,,76,127
34121,note_off,0,0,0,,7,,,67,127
34123,note_on,2,0,0,,7,,,67,127
34123,note_on,0,0,0,,4,,,76,127
34351,note_off,228,0,0,,4,,,76,127
34351,note_off,0,0,0,,7,,,67,127
34353,note_on,2,0,0,,4,,,76,127
34353,note_on,0,0,0,,7,,,67,127
34581,note_off,228,0,0,,7,,,67,127
34581,note_off,0,0,0,,4,,,76,127
34581,note_off,0,0,0,,10,,,45,127
34583,note_on,2,0,0,,10,,,45,127
34583,note_on,0,0,0,,5,,,65,127
34583,note_on,0,0,0,,2,,,74,127
34811,note_off,228,0,0,,2,,,74,127
34811,note_off,0,0,0,,5,,,65,127
34813,note_on,2,0,0,,2,,,74,127
34813,note_on,0,0,0,,5,,,65,127
35041,note_off,228,0,0,,5,,,65,127
35041,note_off,0,0,0,,2,,,74,127
35043,note_on,2,0,0,,2,,,74,127
35043,note_on,0,0,0,,5,,,65,127
35271,note_off,228,0,0,,5,,,65,127
35271,note_off,0,0,0,,2,,,74,127
35271,note_off,0,0,0,,10,,,45,127
35273,note_on,2,0,0,,10,,,45,127
35273,note_on,0,0,0,,0,,,72,127
35273,note_on,0,0,0,,4,,,64,127
35501,note_off,228,0,0,,4,,,64,127
35501,note_off,0,0,0,,0,,,72,127
35503,note_on,2,0,0,,0,,,72,127
35503,note_on,0,0,0,,4,,,64,127
35731,note_off,228,0,0,,4,,,64,127
35731,note_off,0,0,0,,0,,,72,127
35733,note_on,2,0,0,,0,,,72,127
35733,note_on,0,0,0,,4,,,64,127
35961,note_off,228,0,0,,4,,,64,127
35961,note_off,0,0,0,,0,,,72,127
35961,note_off,0,0,0,,10,,,45,127
35963,note_on,2,0,0,,10,,,45,127
35963,note_on,0,0,0,,2,,,62,127
35963,note_on,0,0,0,,11,,,70,127
36191,note_off,228,0,0,,11,,,70,127
36191,note_off,0,0,0,,2,,,62,127
36193,note_on,2,0,0,,11,,,70,127
36193,note_on,0,0,0,,2,,,62,127
36421,note_off,228,0,0,,2,,,62,127
36421,note_off,0,0,0,,11,,,70,127
36423,note_on,2,0,0,,11,,,70,127
36423,note_on,0,0,0,,2,,,62,127
36651,note_off,228,0,0,,2,,,62,127
36651,note_off,0,0,0,,11,,,70,127
36651,note_off,0,0,0,,10,,,45,127
36653,note_on,2,0,0,,10,,,57,127
36653,note_on,0,0,0,,10,,,69,127
36766,note_off,113,0,0,,10,,,69,127
36768,note_on,2,0,0,,11,,,70,127
36881,note_off,113,0,0,,11,,,70,127
36881,note_off,0,0,0,,10,,,57,127
36883,note_on,2,0,0,,12,,,59,127
36883,note_on,0,0,0,,10,,,69,127
36996,note_off,113,0,0,,10,,,69,127
36998,note_on,2,0,0,,7,,,67,127
37111,note_off,113,0,0,,7,,,67,127
37111,note_off,0,0,0,,12,,,59,127
37113,note_on,2,0,0,,1,,,61,127
37113,note_on,0,0,0,,5,,,65,127
37226,note_off,113,0,0,,5,,,65,127
37228,note_on,2,0,0,,4,,,64,127
37341,note_off,113,0,0,,4,,,64,127
37341,note_off,0,0,0,,1,,,61,127
37343,note_on,2,0,0,,2,,,62,127
37343,note_on,0,0,0,,7,,,67,127
37398,note_off,55,0,0,,7,,,67,127
37400,note_on,2,0,0,,5,,,65,127
37455,note_off,55,0,0,,5,,,65,127
37457,note_on,2,0,0,,7,,,67,127
37512,note_off,55,0,0,,7,,,67,127
37514,note_on,2,0,0,,5,,,65,127
37569,note_off,55,0,0,,5,,,65,127
37571,note_on,2,0,0,,4,,,64,127
37684,note_off,113,0,0,,4,,,64,127
37686,note_on,2,0,0,,5,,,65,127
37796,note_off,110,0,0,,2,,,62,127
37798,note_off,2,0,0,,5,,,65,127
37800,note_on,2,0,0,,2,,,62,127
38028,note_off,228,0,0,,2,,,62,127
38030,note_on,2,0,0,,2,,,62,127
38030,note_on,0,0,0,,5,,,77,127
38258,note_off,228,0,0,,5,,,77,127
38260,note_on,2,0,0,,5,,,77,127
38488,note_off,228,0,0,,5,,,77,127
38490,note_on,2,0,0,,5,,,77,127
38718,note_off,228,0,0,,5,,,77,127
38718,note_off,0,0,0,,2,,,62,127
38720,note_on,2,0,0,,0,,,60,127
38720,note_on,0,0,0,,0,,,84,127
38720,note_on,0,0,0,,4,,,76,127
38948,note_off,228,0,0,,4,,,76,127
38948,note_off,0,0,0,,0,,,84,127
38950,note_on,2,0,0,,0,,,84,127
38950,note_on,0,0,0,,4,,,76,127
39178,note_off,228,0,0,,4,,,76,127
39178,note_off,0,0,0,,0,,,84,127
39180,note_on,2,0,0,,0,,,84,127
39180,note_on,0,0,0,,4,,,76,127
39408,note_off,228,0,0,,4,,,76,127
39408,note_off,0,0,0,,0,,,84,127
39408,note_off,0,0,0,,0,,,60,127
39410,note_on,2,0,0,,4,,,64,127
39410,note_on,0,0,0,,0,,,72,127
39410,note_on,0,0,0,,11,,,82,127
39638,note_off,228,0,0,,11,,,82,127
39638,note_off,0,0,0,,0,,,72,127
39640,note_on,2,0,0,,11,,,82,127
39640,note_on,0,0,0,,0,,,72,127
39868,note_off,228,0,0,,0,,,72,127
39868,note_off,0,0,0,,11,,,82,127
39870,note_on,2,0,0,,11,,,82,127
39870,note_on,0,0,0,,0,,,72,127
40098,note_off,228,0,0,,0,,,72,127
40098,note_off,0,0,0,,11,,,82,127
40098,note_off,0,0,0,,4,,,64,127
40100,note_on,2,0,0,,5,,,65,127
40100,note_on,0,0,0,,10,,,81,127
40100,note_on,0,0,0,,0,,,72,127
40328,note_off,228,0,0,,0,,,72,127
40328,note_off,0,0,0,,10,,,81,127
40330,note_on,2,0,0,,10,,,81,127
40330,note_on,0,0,0,,0,,,72,127
40558,note_off,228,0,0,,0,,,72,127
40558,note_off,0,0,0,,10,,,81,127
40560,note_on,2,0,0,,10,,,81,127
40560,note_on,0,0,0,,0,,,72,127
40788,note_off,228,0,0,,0,,,72,127
40788,note_off,0,0,0,,10,,,81,127
40788,note_off,0,0,0,,5,,,65,127
40790,note_on,2,0,0,,7,,,67,127
40790,note_on,0,0,0,,12,,,71,127
40790,note_on,0,0,0,,10,,,81,127
41018,note_off,228,0,0,,10,,,81,127
41020,note_on,2,0,0,,7,,,79,127
41133,note_off,113,0,0,,7,,,79,127
41135,note_on,2,0,0,,5,,,77,127
41245,note_off,110,0,0,,12,,,71,127
41247,note_off,2,0,0,,5,,,77,127
41249,note_on,2,0,0,,4,,,76,127
41362,note_off,113,0,0,,4,,,76,127
41364,note_on,2,0,0,,2,,,74,127
41477,note_off,113,0,0,,2,,,74,127
41477,note_off,0,0,0,,7,,,67,127
41479,note_on,2,0,0,,0,,,60,127
41479,note_on,0,0,0,,5,,,77,127
41534,note_off,55,0,0,,5,,,77,127
41536,note_on,2,0,0,,4,,,76,127
41591,note_off,55,0,0,,4,,,76,127
41593,note_on,2,0,0,,5,,,77,127
41648,note_off,55,0,0,,5,,,77,127
41650,note_on,2,0,0,,4,,,76,127
41705,note_off,55,0,0,,4,,,76,127
41707,note_on,2,0,0,,2,,,74,127
41820,note_off,113,0,0,,2,,,74,127
41822,note_on,2,0,0,,4,,,76,127
41935,note_off,113,0,0,,4,,,76,127
41937,note_on,2,0,0,,0,,,72,127
42165,note_off,228,0,0,,0,,,72,127
42165,note_off,0,0,0,,0,,,60,127
42628,note_on,463,0,0,,10,,,57,127
42628,note_on,0,0,0,,10,,,81,127
42856,note_off,228,0,0,,10,,,81,127
42858,note_on,2,0,0,,10,,,81,127
43086,note_off,228,0,0,,10,,,81,127
43088,note_on,2,0,0,,10,,,81,127
43316,note_off,228,0,0,,10,,,81,127
43316,note_off,0,0,0,,10,,,57,127
43318,note_on,2,0,0,,10,,,57,127
43318,note_on,0,0,0,,7,,,79,127
43318,note_on,0,0,0,,10,,,81,127
43546,note_off,228,0,0,,10,,,81,127
43546,note_off,0,0,0,,7,,,79,127
43548,note_on,2,0,0,,7,,,79,127
43548,note_on,0,0,0,,10,,,81,127
43776,note_off,228,0,0,,10,,,81,127
43776,note_off,0,0,0,,7,,,79,127
43778,note_on,2,0,0,,7,,,79,127
43778,note_on,0,0,0,,10,,,81,127
44006,note_off,228,0,0,,10,,,81,127
44006,note_off,0,0,0,,7,,,79,127
44006,note_off,0,0,0,,10,,,57,127
44008,note_on,2,0,0,,10,,,57,127
44008,note_on,0,0,0,,2,,,86,127
44008,note_on,0,0,0,,5,,,77,127
44236,note_off,228,0,0,,5,,,77,127
44236,note_off,0,0,0,,2,,,86,127
44238,note_on,2,0,0,,5,,,77,127
44238,note_on,0,0,0,,2,,,86,127
44466,note_off,228,0,0,,2,,,86,127
44466,note_off,0,0,0,,5,,,77,127
44468,note_on,2,0,0,,5,,,77,127
44468,note_on,0,0,0,,2,,,86,127
44696,note_off,228,0,0,,2,,,86,127
44696,note_off,0,0,0,,5,,,77,127
44696,note_off,0,0,0,,10,,,57,127
44698,note_on,2,0,0,,10,,,57,127
44698,note_on,0,0,0,,4,,,76,127
44698,note_on,0,0,0,,0,,,84,127
44926,note_off,228,0,0,,0,,,84,127
44926,note_off,0,0,0,,4,,,76,127
44928,note_on,2,0,0,,4,,,76,127
44928,note_on,0,0,0,,0,,,84,127
45156,note_off,228,0,0,,0,,,84,127
45156,note_off,0,0,0,,4,,,76,127
45158,note_on,2,0,0,,0,,,84,127
45158,note_on,0,0,0,,4,,,76,127
45386,note_off,228,0,0,,4,,,76,127
45386,note_off,0,0,0,,0,,,84,127
45386,note_off,0,0,0,,10,,,57,127
45388,note_on,2,0,0,,2,,,62,127
45388,note_on,0,0,0,,2,,,74,127
45388,note_on,0,0,0,,12,,,83,127
45616,note_off,228,0,0,,12,,,83,127
45616,note_off,0,0,0,,2,,,74,127
45618,note_on,2,0,0,,10,,,81,127
45618,note_on,0,0,0,,0,,,72,127
45846,note_off,228,0,0,,0,,,72,127
45846,note_off,0,0,0,,10,,,81,127
45848,note_on,2,0,0,,12,,,83,127
45848,note_on,0,0,0,,2,,,74,127
46076,note_off,228,0,0,,2,,,74,127
46076,note_off,0,0,0,,12,,,83,127
46076,note_off,0,0,0,,2,,,62,127
46078,note_on,2,0,0,,5,,,65,127
46078,note_on,0,0,0,,10,,,81,127
46078,note_on,0,0,0,,0,,,72,127
46306,note_off,228,0,0,,0,,,72,127
46306,note_off,0,0,0,,10,,,81,127
46308,note_on,2,0,0,,12,,,71,127
46308,note_on,0,0,0,,8,,,80,127
46536,note_off,228,0,0,,8,,,80,127
46536,note_off,0,0,0,,12,,,71,127
46538,note_on,2,0,0,,0,,,72,127
46538,note_on,0,0,0,,10,,,81,127
46766,note_off,228,0,0,,0,,,72,127
46766,note_off,0,0,0,,5,,,65,127
46768,note_on,2,0,0,,4,,,64,127
46768,note_on,0,0,0,,12,,,71,127
46994,note_off,226,0,0,,10,,,81,127
46999,note_on,5,0,0,,8,,,80,127
47112,note_off,113,0,0,,8,,,80,127
47114,note_on,2,0,0,,6,,,78,127
47224,note_off,110,0,0,,12,,,71,127
47226,note_off,2,0,0,,6,,,78,127
47228,note_on,2,0,0,,4,,,76,127
47456,note_off,228,0,0,,4,,,76,127
47456,note_off,0,0,0,,4,,,64,127
47458,note_on,2,0,0,,4,,,64,127
47458,note_on,0,0,0,,8,,,68,127
47458,note_on,0,0,0,,12,,,71,127
47571,note_off,113,0,0,,4,,,64,127
47573,note_on,2,0,0,,2,,,62,127
47686,note_off,113,0,0,,2,,,62,127
47686,note_off,0,0,0,,12,,,71,127
47688,note_on,2,0,0,,0,,,60,127
47688,note_on,0,0,0,,4,,,76,127
47801,note_off,113,0,0,,0,,,60,127
47803,note_on,2,0,0,,12,,,59,127
47913,note_off,110,0,0,,8,,,68,127
47915,note_off,2,0,0,,12,,,59,127
47915,note_off,0,0,0,,4,,,76,127
47917,note_on,2,0,0,,0,,,60,127
47917,note_on,0,0,0,,10,,,69,127
47917,note_on,0,0,0,,0,,,72,127
48030,note_off,113,0,0,,0,,,60,127
48032,note_on,2,0,0,,2,,,62,127
48145,note_off,113,0,0,,2,,,62,127
48145,note_off,0,0,0,,0,,,72,127
48145,note_off,0,0,0,,10,,,69,127
48147,note_on,2,0,0,,4,,,64,127
48147,note_on,0,0,0,,8,,,68,127
48147,note_on,0,0,0,,12,,,71,127
48260,note_off,113,0,0,,4,,,64,127
48262,note_on,2,0,0,,2,,,62,127
48375,note_off,113,0,0,,2,,,62,127
48375,note_off,0,0,0,,12,,,71,127
48377,note_on,2,0,0,,0,,,60,127
48377,note_on,0,0,0,,4,,,76,127
48490,note_off,113,0,0,,0,,,60,127
48492,note_on,2,0,0,,12,,,59,127
48602,note_off,110,0,0,,8,,,68,127
48604,note_off,2,0,0,,12,,,59,127
48604,note_off,0,0,0,,4,,,76,127
48606,note_on,2,0,0,,0,,,60,127
48606,note_on,0,0,0,,10,,,69,127
48606,note_on,0,0,0,,0,,,72,127
48719,note_off,113,0,0,,0,,,60,127
48721,note_on,2,0,0,,2,,,62,127
48834,note_off,113,0,0,,2,,,62,127
48834,note_off,0,0,0,,0,,,72,127
48834,note_off,0,0,0,,10,,,69,127
48836,note_on,2,0,0,,4,,,64,127
48836,note_on,0,0,0,,12,,,71,127
48836,note_on,0,0,0,,8,,,68,127
48949,note_off,113,0,0,,4,,,64,127
48951,note_on,2,0,0,,2,,,62,127
49064,note_off,113,0,0,,2,,,62,127
49064,note_off,0,0,0,,12,,,71,127
49066,note_on,2,0,0,,0,,,60,127
49066,note_on,0,0,0,,4,,,76,127
49179,note_off,113,0,0,,0,,,60,127
49181,note_on,2,0,0,,12,,,59,127
49291,note_off,110,0,0,,8,,,68,127
49293,note_off,2,0,0,,12,,,59,127
49293,note_off,0,0,0,,4,,,76,127
49295,note_on,2,0,0,,0,,,60,127
49295,note_on,0,0,0,,0,,,72,127
49295,note_on,0,0,0,,10,,,69,127
49408,note_off,113,0,0,,0,,,60,127
49410,note_on,2,0,0,,2,,,62,127
49523,note_off,113,0,0,,2,,,62,127
49523,note_off,0,0,0,,10,,,69,127
49523,note_off,0,0,0,,0,,,72,127
49525,note_on,2,0,0,,4,,,64,127
49525,note_on,0,0,0,,12,,,71,127
49638,note_off,113,0,0,,12,,,71,127
49640,note_on,2,0,0,,10,,,69,127
49753,note_off,113,0,0,,10,,,69,127
49755,note_on,2,0,0,,8,,,68,127
49868,note_off,113,0,0,,8,,,68,127
49870,note_on,2,0,0,,6,,,66,127
49980,note_off,110,0,0,,4,,,64,127
49982,note_off,2,0,0,,6,,,66,127
49984,note_on,2,0,0,,4,,,64,127
50212,note_off,228,0,0,,4,,,64,127
50214,note_on,2,0,0,,10,,,57,127
50214,note_on,0,0,0,,4,,,76,127
50214,note_on,0,0,0,,1,,,73,127
50327,note_off,113,0,0,,10,,,57,127
50329,note_on,2,0,0,,7,,,55,127
50442,note_off,113,0,0,,7,,,55,127
50442,note_off,0,0,0,,4,,,76,127
50444,note_on,2,0,0,,6,,,54,127
50444,note_on,0,0,0,,10,,,81,127
50557,note_off,113,0,0,,6,,,54,127
50559,note_on,2,0,0,,4,,,52,127
50669,note_off,110,0,0,,1,,,73,127
50671,note_off,2,0,0,,4,,,52,127
50671,note_off,0,0,0,,10,,,81,127
50673,note_on,2,0,0,,6,,,54,127
50673,note_on,0,0,0,,2,,,74,127
50673,note_on,0,0,0,,6,,,78,127
50786,note_off,113,0,0,,6,,,54,127
50788,note_on,2,0,0,,7,,,55,127
50901,note_off,113,0,0,,7,,,55,127
50901,note_off,0,0,0,,6,,,78,127
50901,note_off,0,0,0,,2,,,74,127
50903,note_on,2,0,0,,10,,,57,127
50903,note_on,0,0,0,,4,,,76,127
50903,note_on,0,0,0,,1,,,73,127
51016,note_off,113,0,0,,10,,,57,127
51018,note_on,2,0,0,,7,,,55,127
51131,note_off,113,0,0,,7,,,55,127
51131,note_off,0,0,0,,4,,,76,127
51133,note_on,2,0,0,,6,,,54,127
51133,note_on,0,0,0,,10,,,81,127
51246,note_off,113,0,0,,6,,,54,127
51248,note_on,2,0,0,,4,,,52,127
51358,note_off,110,0,0,,1,,,73,127
51360,note_off,2,0,0,,4,,,52,127
51360,note_off,0,0,0,,10,,,81,127
51362,note_on,2,0,0,,6,,,54,127
51362,note_on,0,0,0,,2,,,74,127
51362,note_on,0,0,0,,6,,,78,127
51475,note_off,113,0,0,,6,,,54,127
51477,note_on,2,0,0,,7,,,55,127
51590,note_off,113,0,0,,7,,,55,127
51590,note_off,0,0,0,,6,,,78,127
51590,note_off,0,0,0,,2,,,74,127
51592,note_on,2,0,0,,10,,,57,127
51592,note_on,0,0,0,,4,,,76,127
51592,note_on,0,0,0,,1,,,73,127
51705,note_off,113,0,0,,10,,,57,127
51707,note_on,2,0,0,,7,,,55,127
51820,note_off,113,0,0,,7,,,55,127
51820,note_off,0,0,0,,4,,,76,127
51822,note_on,2,0,0,,6,,,54,127
51822,note_on,0,0,0,,10,,,81,127
51935,note_off,113,0,0,,6,,,54,127
51937,note_on,2,0,0,,4,,,52,127
52047,note_off,110,0,0,,1,,,73,127
52049,note_off,2,0,0,,4,,,52,127
52049,note_off,0,0,0,,10,,,81,127
52051,note_on,2,0,0,,6,,,54,127
52051,note_on,0,0,0,,6,,,78,127
52051,note_on,0,0,0,,2,,,74,127
52164,note_off,113,0,0,,6,,,54,127
52166,note_on,2,0,0,,7,,,55,127
52279,note_off,113,0,0,,7,,,55,127
52279,note_off,0,0,0,,2,,,74,127
52279,note_off,0,0,0,,6,,,78,127
52281,note_on,2,0,0,,10,,,57,127
52281,note_on,0,0,0,,4,,,76,127
52394,note_off,113,0,0,,4,,,76,127
52396,note_on,2,0,0,,2,,,74,127
52509,note_off,113,0,0,,2,,,74,127
52511,note_on,2,0,0,,1,,,73,127
52624,note_off,113,0,0,,1,,,73,127
52626,note_on,2,0,0,,12,,,71,127
52739,note_off,113,0,0,,12,,,71,127
52741,note_on,2,0,0,,10,,,69,127
52969,note_off,228,0,0,,10,,,69,127
52969,note_off,0,0,0,,10,,,57,127
52971,note_on,2,0,0,,2,,,62,127
52971,note_on,0,0,0,,6,,,78,127
53084,note_off,113,0,0,,6,,,78,127
53086,note_on,2,0,0,,10,,,69,127
53199,note_off,113,0,0,,10,,,69,127
53199,note_off,0,0,0,,2,,,62,127
53201,note_on,2,0,0,,1,,,61,127
53201,note_on,0,0,0,,4,,,76,127
53314,note_off,113,0,0,,4,,,76,127
53316,note_on,2,0,0,,10,,,69,127
53429,note_off,113,0,0,,10,,,69,127
53429,note_off,0,0,0,,1,,,61,127
53431,note_on,2,0,0,,4,,,64,127
53431,note_on,0,0,0,,7,,,79,127
53544,note_off,113,0,0,,7,,,79,127
53546,note_on,2,0,0,,10,,,69,127
53659,note_off,113,0,0,,10,,,69,127
53659,note_off,0,0,0,,4,,,64,127
53661,note_on,2,0,0,,2,,,62,127
53661,note_on,0,0,0,,6,,,78,127
53774,note_off,113,0,0,,6,,,78,127
53776,note_on,2,0,0,,10,,,69,127
53889,note_off,113,0,0,,10,,,69,127
53889,note_off,0,0,0,,2,,,62,127
53891,note_on,2,0,0,,1,,,61,127
53891,note_on,0,0,0,,4,,,76,127
54004,note_off,113,0,0,,4,,,76,127
54006,note_on,2,0,0,,10,,,69,127
54119,note_off,113,0,0,,10,,,69,127
54119,note_off,0,0,0,,1,,,61,127
54121,note_on,2,0,0,,4,,,64,127
54121,note_on,0,0,0,,7,,,79,127
54234,note_off,113,0,0,,7,,,79,127
54236,note_on,2,0,0,,10,,,69,127
54349,note_off,113,0,0,,10,,,69,127
54349,note_off,0,0,0,,4,,,64,127
54351,note_on,2,0,0,,2,,,62,127
54351,note_on,0,0,0,,6,,,78,127
54464,note_off,113,0,0,,6,,,78,127
54466,note_on,2,0,0,,10,,,69,127
54579,note_off,113,0,0,,10,,,69,127
54579,note_off,0,0,0,,2,,,62,127
54581,note_on,2,0,0,,1,,,61,127
54581,note_on,0,0,0,,4,,,76,127
54694,note_off,113,0,0,,4,,,76,127
54696,note_on,2,0,0,,10,,,69,127
54809,note_off,113,0,0,,10,,,69,127
54809,note_off,0,0,0,,1,,,61,127
54811,note_on,2,0,0,,4,,,64,127
54811,note_on,0,0,0,,7,,,79,127
54924,note_off,113,0,0,,7,,,79,127
54926,note_on,2,0,0,,10,,,69,127
55039,note_off,113,0,0,,10,,,69,127
55039,note_off,0,0,0,,4,,,64,127
55041,note_on,2,0,0,,2,,,50,127
55041,note_on,0,0,0,,6,,,78,127
55154,note_off,113,0,0,,6,,,78,127
55156,note_on,2,0,0,,4,,,76,127
55269,note_off,113,0,0,,4,,,76,127
55269,note_off,0,0,0,,2,,,50,127
55271,note_on,2,0,0,,4,,,52,127
55271,note_on,0,0,0,,2,,,74,127
55384,note_off,113,0,0,,2,,,74,127
55386,note_on,2,0,0,,0,,,72,127
55499,note_off,113,0,0,,0,,,72,127
55499,note_off,0,0,0,,4,,,52,127
55501,note_on,2,0,0,,6,,,54,127
55501,note_on,0,0,0,,12,,,71,127
55614,note_off,113,0,0,,12,,,71,127
55616,note_on,2,0,0,,10,,,69,127
55729,note_off,113,0,0,,10,,,69,127
55729,note_off,0,0,0,,6,,,54,127
55731,note_on,2,0,0,,7,,,55,127
55731,note_on,0,0,0,,12,,,71,127
55844,note_off,113,0,0,,7,,,55,127
55846,note_on,2,0,0,,2,,,62,127
55959,note_off,113,0,0,,2,,,62,127
55959,note_off,0,0,0,,12,,,71,127
55961,note_on,2,0,0,,6,,,54,127
55961,note_on,0,0,0,,10,,,69,127
56074,note_off,113,0,0,,6,,,54,127
56076,note_on,2,0,0,,2,,,62,127
56189,note_off,113,0,0,,2,,,62,127
56191,note_on,2,0,0,,2,,,50,127
56304,note_off,113,0,0,,2,,,50,127
56304,note_off,0,0,0,,10,,,69,127
56306,note_on,2,0,0,,2,,,62,127
56306,note_on,0,0,0,,12,,,71,127
56361,note_off,55,0,0,,12,,,71,127
56363,note_on,2,0,0,,0,,,72,127
56418,note_off,55,0,0,,0,,,72,127
56418,note_off,0,0,0,,2,,,62,127
56420,note_on,2,0,0,,7,,,55,127
56420,note_on,0,0,0,,12,,,71,127
56533,note_off,113,0,0,,7,,,55,127
56535,note_on,2,0,0,,2,,,62,127
56648,note_off,113,0,0,,2,,,62,127
56648,note_off,0,0,0,,12,,,71,127
56650,note_on,2,0,0,,6,,,54,127
56650,note_on,0,0,0,,10,,,69,127
56763,note_off,113,0,0,,6,,,54,127
56765,note_on,2,0,0,,2,,,62,127
56878,note_off,113,0,0,,2,,,62,127
56880,note_on,2,0,0,,2,,,50,127
56993,note_off,113,0,0,,2,,,50,127
56993,note_off,0,0,0,,10,,,69,127
56995,note_on,2,0,0,,2,,,62,127
56995,note_on,0,0,0,,12,,,71,127
57050,note_off,55,0,0,,12,,,71,127
57052,note_on,2,0,0,,0,,,72,127
57107,note_off,55,0,0,,0,,,72,127
57107,note_off,0,0,0,,2,,,62,127
57109,note_on,2,0,0,,7,,,55,127
57109,note_on,0,0,0,,12,,,71,127
57222,note_off,113,0,0,,7,,,55,127
57224,note_on,2,0,0,,2,,,62,127
57337,note_off,113,0,0,,2,,,62,127
57337,note_off,0,0,0,,12,,,71,127
57339,note_on,2,0,0,,6,,,54,127
57339,note_on,0,0,0,,10,,,69,127
57452,note_off,113,0,0,,6,,,54,127
57454,note_on,2,0,0,,2,,,62,127
57567,note_off,113,0,0,,2,,,62,127
57569,note_on,2,0,0,,2,,,50,127
57682,note_off,113,0,0,,2,,,50,127
57682,note_off,0,0,0,,10,,,69,127
57684,note_on,2,0,0,,2,,,62,127
57684,note_on,0,0,0,,12,,,71,127
57739,note_off,55,0,0,,12,,,71,127
57741,note_on,2,0,0,,0,,,72,127
57796,note_off,55,0,0,,0,,,72,127
57796,note_off,0,0,0,,2,,,62,127
57798,note_on,2,0,0,,7,,,55,127
57798,note_on,0,0,0,,12,,,71,127
57911,note_off,113,0,0,,12,,,71,127
57913,note_on,2,0,0,,2,,,74,127
58026,note_off,113,0,0,,2,,,74,127
58026,note_off,0,0,0,,7,,,55,127
58028,note_on,2,0,0,,4,,,52,127
58028,note_on,0,0,0,,1,,,73,127
58141,note_off,113,0,0,,1,,,73,127
58143,note_on,2,0,0,,4,,,76,127
58256,note_off,113,0,0,,4,,,76,127
58256,note_off,0,0,0,,4,,,52,127
58258,note_on,2,0,0,,6,,,54,127
58258,note_on,0,0,0,,2,,,74,127
58371,note_off,113,0,0,,2,,,74,127
58373,note_on,2,0,0,,6,,,78,127
58486,note_off,113,0,0,,6,,,78,127
58486,note_off,0,0,0,,6,,,54,127
58488,note_on,2,0,0,,7,,,55,127
58488,note_on,0,0,0,,4,,,76,127
58601,note_off,113,0,0,,4,,,76,127
58603,note_on,2,0,0,,7,,,79,127
58716,note_off,113,0,0,,7,,,79,127
58716,note_off,0,0,0,,7,,,55,127
58718,note_on,2,0,0,,10,,,57,127
58718,note_on,0,0,0,,6,,,78,127
58831,note_off,113,0,0,,6,,,78,127
58833,note_on,2,0,0,,4,,,76,127
58946,note_off,113,0,0,,4,,,76,127
58948,note_on,2,0,0,,10,,,45,127
58948,note_on,0,0,0,,2,,,74,127
59061,note_off,113,0,0,,2,,,74,127
59063,note_on,2,0,0,,1,,,73,127
59173,note_off,110,0,0,,10,,,57,127
59175,note_off,2,0,0,,1,,,73,127
59175,note_off,0,0,0,,10,,,45,127
59177,note_on,2,0,0,,2,,,62,127
59177,note_on,0,0,0,,6,,,78,127
59290,note_off,113,0,0,,2,,,62,127
59292,note_on,2,0,0,,10,,,69,127
59405,note_off,113,0,0,,6,,,78,127
59407,note_on,2,0,0,,1,,,61,127
59407,note_on,0,0,0,,4,,,76,127
59520,note_off,113,0,0,,1,,,61,127
59520,note_off,0,0,0,,10,,,69,127
59522,note_on,2,0,0,,10,,,69,127
59637,note_on,115,0,0,,10,,,57,127
59750,note_off,113,0,0,,10,,,57,127
59750,note_off,0,0,0,,10,,,69,127
59750,note_off,0,0,0,,4,,,76,127
59752,note_on,2,0,0,,10,,,69,127
59752,note_on,0,0,0,,6,,,78,127
59807,note_off,55,0,0,,6,,,78,127
59809,note_on,2,0,0,,7,,,79,127
59864,note_off,55,0,0,,7,,,79,127
59866,note_on,2,0,0,,2,,,62,127
59866,note_on,0,0,0,,6,,,78,127
59979,note_off,113,0,0,,2,,,62,127
59979,note_off,0,0,0,,10,,,69,127
59981,note_on,2,0,0,,10,,,69,127
60094,note_off,113,0,0,,6,,,78,127
60096,note_on,2,0,0,,1,,,61,127
60096,note_on,0,0,0,,4,,,76,127
60209,note_off,113,0,0,,1,,,61,127
60209,note_off,0,0,0,,10,,,69,127
60211,note_on,2,0,0,,10,,,69,127
60326,note_on,115,0,0,,10,,,57,127
60439,note_off,113,0,0,,10,,,57,127
60439,note_off,0,0,0,,10,,,69,127
60439,note_off,0,0,0,,4,,,76,127
60441,note_on,2,0,0,,10,,,69,127
60441,note_on,0,0,0,,6,,,78,127
60496,note_off,55,0,0,,6,,,78,127
60498,note_on,2,0,0,,7,,,79,127
60553,note_off,55,0,0,,7,,,79,127
60555,note_on,2,0,0,,2,,,62,127
60555,note_on,0,0,0,,6,,,78,127
60668,note_off,113,0,0,,2,,,62,127
60668,note_off,0,0,0,,10,,,69,127
60670,note_on,2,0,0,,10,,,69,127
60783,note_off,113,0,0,,6,,,78,127
60785,note_on,2,0,0,,1,,,61,127
60785,note_on,0,0,0,,4,,,76,127
60898,note_off,113,0,0,,1,,,61,127
60898,note_off,0,0,0,,10,,,69,127
60900,note_on,2,0,0,,10,,,69,127
61015,note_on,115,0,0,,10,,,57,127
61128,note_off,113,0,0,,10,,,57,127
61128,note_off,0,0,0,,10,,,69,127
61128,note_off,0,0,0,,4,,,76,127
61130,note_on,2,0,0,,10,,,69,127
61130,note_on,0,0,0,,6,,,78,127
61185,note_off,55,0,0,,6,,,78,127
61187,note_on,2,0,0,,7,,,79,127
61242,note_off,55,0,0,,7,,,79,127
61242,note_off,0,0,0,,10,,,69,127
61244,note_on,2,0,0,,2,,,62,127
61244,note_on,0,0,0,,6,,,78,127
61357,note_off,113,0,0,,6,,,78,127
61359,note_on,2,0,0,,1,,,85,127
61472,note_off,113,0,0,,1,,,85,127
61472,note_off,0,0,0,,2,,,62,127
61474,note_on,2,0,0,,4,,,64,127
61474,note_on,0,0,0,,2,,,86,127
61587,note_off,113,0,0,,2,,,86,127
61589,note_on,2,0,0,,8,,,80,127
61702,note_off,113,0,0,,8,,,80,127
61702,note_off,0,0,0,,4,,,64,127
61704,note_on,2,0,0,,6,,,66,127
61704,note_on,0,0,0,,10,,,81,127
61817,note_off,113,0,0,,10,,,81,127
61819,note_on,2,0,0,,2,,,74,127
61932,note_off,113,0,0,,2,,,74,127
61932,note_off,0,0,0,,6,,,66,127
61934,note_on,2,0,0,,7,,,55,127
61934,note_on,0,0,0,,12,,,83,127
62162,note_off,228,0,0,,12,,,83,127
62162,note_off,0,0,0,,7,,,55,127
62164,note_on,2,0,0,,10,,,57,127
62164,note_on,0,0,0,,6,,,78,127
62219,note_off,55,0,0,,6,,,78,127
62221,note_on,2,0,0,,4,,,76,127
62276,note_off,55,0,0,,4,,,76,127
62278,note_on,2,0,0,,6,,,78,127
62333,note_off,55,0,0,,6,,,78,127
62335,note_on,2,0,0,,4,,,76,127
62390,note_off,55,0,0,,4,,,76,127
62392,note_on,2,0,0,,10,,,45,127
62392,note_on,0,0,0,,6,,,78,127
62447,note_off,55,0,0,,6,,,78,127
62449,note_on,2,0,0,,4,,,76,127
62504,note_off,55,0,0,,4,,,76,127
62506,note_on,2,0,0,,2,,,74,127
62561,note_off,55,0,0,,2,,,74,127
62563,note_on,2,0,0,,4,,,76,127
62616,note_off,53,0,0,,10,,,57,127
62618,note_off,2,0,0,,4,,,76,127
62618,note_off,0,0,0,,10,,,45,127
62620,note_on,2,0,0,,2,,,50,127
62620,note_on,0,0,0,,2,,,74,127
62735,note_on,115,0,0,,10,,,57,127
62764,note_off,29,0,0,,2,,,50,127
62848,note_off,84,0,0,,2,,,74,127
62850,note_on,2,0,0,,1,,,49,127
62850,note_on,0,0,0,,4,,,64,127
62879,note_off,29,0,0,,10,,,57,127
62965,note_on,86,0,0,,10,,,57,127
62994,note_off,29,0,0,,1,,,49,127
63080,note_on,86,0,0,,10,,,45,127
63109,note_off,29,0,0,,10,,,57,127
63193,note_off,84,0,0,,4,,,64,127
63195,note_on,2,0,0,,10,,,57,127
63195,note_on,0,0,0,,6,,,66,127
63224,note_off,29,0,0,,10,,,45,127
63250,note_off,26,0,0,,6,,,66,127
63252,note_on,2,0,0,,7,,,67,127
63307,note_off,55,0,0,,7,,,67,127
63309,note_on,2,0,0,,2,,,50,127
63309,note_on,0,0,0,,6,,,66,127
63338,note_off,29,0,0,,10,,,57,127
63424,note_on,86,0,0,,10,,,57,127
63453,note_off,29,0,0,,2,,,50,127
63537,note_off,84,0,0,,6,,,66,127
63539,note_on,2,0,0,,1,,,49,127
63539,note_on,0,0,0,,4,,,64,127
63568,note_off,29,0,0,,10,,,57,127
63654,note_on,86,0,0,,10,,,57,127
63683,note_off,29,0,0,,1,,,49,127
63769,note_on,86,0,0,,10,,,45,127
63798,note_off,29,0,0,,10,,,57,127
63882,note_off,84,0,0,,4,,,64,127
63884,note_on,2,0,0,,10,,,57,127
63884,note_on,0,0,0,,6,,,66,127
63913,note_off,29,0,0,,10,,,45,127
63939,note_off,26,0,0,,6,,,66,127
63941,note_on,2,0,0,,7,,,67,127
63996,note_off,55,0,0,,7,,,67,127
63998,note_on,2,0,0,,2,,,50,127
63998,note_on,0,0,0,,6,,,66,127
64027,note_off,29,0,0,,10,,,57,127
64113,note_on,86,0,0,,10,,,57,127
64142,note_off,29,0,0,,2,,,50,127
64226,note_off,84,0,0,,6,,,66,127
64228,note_on,2,0,0,,1,,,49,127
64228,note_on,0,0,0,,4,,,64,127
64257,note_off,29,0,0,,10,,,57,127
64343,note_on,86,0,0,,10,,,57,127
64372,note_off,29,0,0,,1,,,49,127
64458,note_on,86,0,0,,10,,,45,127
64487,note_off,29,0,0,,10,,,57,127
64571,note_off,84,0,0,,4,,,64,127
64573,note_on,2,0,0,,10,,,57,127
64573,note_on,0,0,0,,6,,,66,127
64602,note_off,29,0,0,,10,,,45,127
64628,note_off,26,0,0,,6,,,66,127
64630,note_on,2,0,0,,7,,,67,127
64685,note_off,55,0,0,,7,,,67,127
64685,note_off,0,0,0,,10,,,57,127
64687,note_on,2,0,0,,2,,,50,127
64687,note_on,0,0,0,,6,,,66,127
64800,note_off,113,0,0,,6,,,66,127
64802,note_on,2,0,0,,2,,,74,127
64915,note_off,113,0,0,,2,,,74,127
64915,note_off,0,0,0,,2,,,50,127
64917,note_on,2,0,0,,4,,,52,127
64917,note_on,0,0,0,,1,,,73,127
65030,note_off,113,0,0,,1,,,73,127
65032,note_on,2,0,0,,4,,,76,127
65145,note_off,113,0,0,,4,,,76,127
65145,note_off,0,0,0,,4,,,52,127
65147,note_on,2,0,0,,6,,,54,127
65147,note_on,0,0,0,,2,,,74,127
65260,note_off,113,0,0,,2,,,74,127
65262,note_on,2,0,0,,10,,,69,127
65375,note_off,113,0,0,,10,,,69,127
65375,note_off,0,0,0,,6,,,54,127
65377,note_on,2,0,0,,7,,,55,127
65377,note_on,0,0,0,,12,,,71,127
65490,note_off,113,0,0,,12,,,71,127
65492,note_on,2,0,0,,7,,,67,127
65605,note_off,113,0,0,,7,,,67,127
65605,note_off,0,0,0,,7,,,55,127
65609,note_on,4,0,0,,10,,,57,127
65609,note_on,0,0,0,,6,,,78,127
65664,note_off,55,0,0,,6,,,78,127
65668,note_on,4,0,0,,4,,,76,127
65723,note_off,55,0,0,,4,,,76,127
65728,note_on,5,0,0,,6,,,78,127
65783,note_off,55,0,0,,6,,,78,127
65788,note_on,5,0,0,,4,,,76,127
65843,note_off,55,0,0,,4,,,76,127
65848,note_on,5,0,0,,10,,,45,127
65848,note_on,0,0,0,,6,,,78,127
65903,note_off,55,0,0,,6,,,78,127
65908,note_on,5,0,0,,4,,,76,127
65963,note_off,55,0,0,,4,,,76,127
65968,note_on,5,0,0,,2,,,74,127
66023,note_off,55,0,0,,2,,,74,127
66028,note_on,5,0,0,,4,,,76,127
66074,note_off,46,0,0,,10,,,57,127
66080,note_off,6,0,0,,10,,,45,127
66084,note_off,4,0,0,,4,,,76,127
66089,note_on,5,0,0,,2,,,50,127
66089,note_on,0,0,0,,6,,,78,127
66203,note_off,114,0,0,,6,,,78,127
66209,note_on,6,0,0,,10,,,81,127
66321,note_off,112,0,0,,2,,,50,127
66323,note_off,2,0,0,,10,,,81,127
66329,note_on,6,0,0,,4,,,52,127
66329,note_on,0,0,0,,1,,,73,127
66443,note_off,114,0,0,,1,,,73,127
66449,note_on,6,0,0,,4,,,76,127
66561,note_off,112,0,0,,4,,,52,127
66563,note_off,2,0,0,,4,,,76,127
66569,note_on,6,0,0,,6,,,54,127
66569,note_on,0,0,0,,2,,,74,127
66683,note_off,114,0,0,,2,,,74,127
66689,note_on,6,0,0,,10,,,69,127
66801,note_off,112,0,0,,6,,,54,127
66803,note_off,2,0,0,,10,,,69,127
66808,note_on,5,0,0,,7,,,55,127
66808,note_on,0,0,0,,12,,,71,127
67040,note_off,232,0,0,,12,,,71,127
67040,note_off,0,0,0,,7,,,55,127
67076,note_on,36,0,0,,6,,,66,127
67076,note_on,0,0,0,,10,,,57,127
67134,note_off,58,0,0,,6,,,66,127
67145,note_on,11,0,0,,4,,,64,127
67203,note_off,58,0,0,,4,,,64,127
67211,note_on,8,0,0,,6,,,66,127
67269,note_off,58,0,0,,6,,,66,127
67279,note_on,10,0,0,,4,,,64,127
67337,note_off,58,0,0,,4,,,64,127
67347,note_on,10,0,0,,6,,,66,127
67347,note_on,0,0,0,,10,,,45,127
67405,note_off,58,0,0,,6,,,66,127
67415,note_on,10,0,0,,4,,,64,127
67473,note_off,58,0,0,,4,,,64,127
67483,note_on,10,0,0,,2,,,62,127
67541,note_off,58,0,0,,2,,,62,127
67552,note_on,11,0,0,,4,,,64,127
67576,note_off,24,0,0,,10,,,57,127
67595,note_off,19,0,0,,10,,,45,127
67609,note_off,14,0,0,,4,,,64,127
67628,note_on,19,0,0,,2,,,38,127
67628,note_on,0,0,0,,2,,,62,127
69300,note_off,1672,0,0,,2,,,62,127
69300,note_off,0,0,0,,2,,,38,127
73728,end_of_track,4428,1,0,,,,,,
