tick,type,time,meta,track,program,channel,pitch,tempo,note,velocity
0,copyright,0,1,0,,,,,,
0,program_change,0,0,0,6,0,,,,
0,pitchwheel,0,0,0,,0,0,,,
0,program_change,0,0,0,6,1,,,,
0,pitchwheel,0,0,0,,1,-590,,,
0,program_change,0,0,0,6,2,,,,
0,pitchwheel,0,0,0,,2,-272,,,
0,program_change,0,0,0,6,3,,,,
0,pitchwheel,0,0,0,,3,-353,,,
0,program_change,0,0,0,6,4,,,,
0,pitchwheel,0,0,0,,4,-560,,,
0,program_change,0,0,0,6,5,,,,
0,pitchwheel,0,0,0,,5,-80,,,
0,program_change,0,0,0,6,6,,,,
0,pitchwheel,0,0,0,,6,-625,,,
0,program_change,0,0,0,6,7,,,,
0,pitchwheel,0,0,0,,7,-130,,,
0,program_change,0,0,0,6,8,,,,
0,pitchwheel,0,0,0,,8,-512,,,
0,program_change,0,0,0,6,10,,,,
0,pitchwheel,0,0,0,,10,-464,,,
0,program_change,0,0,0,6,11,,,,
0,pitchwheel,0,0,0,,11,-208,,,
0,program_change,0,0,0,6,12,,,,
0,pitchwheel,0,0,0,,12,-553,,,
0,set_tempo,0,1,0,,,,500000,,
110,note_on,110,0,0,,7,,,67,127
110,note_on,0,0,0,,7,,,79,127
329,note_on,219,0,0,,12,,,71,127
436,note_off,107,0,0,,12,,,71,127
438,note_off,2,0,0,,7,,,79,127
438,note_on,0,0,0,,0,,,72,127
545,note_off,107,0,0,,0,,,72,127
547,note_on,2,0,0,,2,,,74,127
654,note_off,107,0,0,,2,,,74,127
656,note_on,2,0,0,,12,,,71,127
763,note_off,107,0,0,,12,,,71,127
765,note_on,2,0,0,,4,,,76,127
872,note_off,107,0,0,,4,,,76,127
874,note_on,2,0,0,,0,,,72,127
981,note_off,107,0,0,,0,,,72,127
981,note_off,0,0,0,,7,,,67,127
983,note_on,2,0,0,,7,,,67,127
983,note_on,0,0,0,,7,,,79,127
1202,note_on,219,0,0,,12,,,71,127
1309,note_off,107,0,0,,12,,,71,127
1311,note_off,2,0,0,,7,,,79,127
1311,note_on,0,0,0,,0,,,72,127
1418,note_off,107,0,0,,0,,,72,127
1420,note_on,2,0,0,,2,,,74,127
1527,note_off,107,0,0,,2,,,74,127
1529,note_on,2,0,0,,12,,,71,127
1636,note_off,107,0,0,,12,,,71,127
1638,note_on,2,0,0,,4,,,76,127
1745,note_off,107,0,0,,4,,,76,127
1747,note_on,2,0,0,,0,,,72,127
1854,note_off,107,0,0,,0,,,72,127
1856,note_on,2,0,0,,2,,,74,127
1966,note_on,110,0,0,,12,,,83,127
2021,note_off,55,0,0,,2,,,74,127
2074,note_off,53,0,0,,12,,,83,127
2074,note_off,0,0,0,,7,,,67,127
2076,note_on,2,0,0,,7,,,67,127
2076,note_on,0,0,0,,12,,,83,127
2186,note_on,110,0,0,,2,,,74,127
2293,note_off,107,0,0,,2,,,74,127
2293,note_off,0,0,0,,12,,,83,127
2293,note_off,0,0,0,,7,,,67,127
2295,note_on,2,0,0,,10,,,69,127
2295,note_on,0,0,0,,2,,,74,127
2402,note_off,107,0,0,,2,,,74,127
2404,note_on,2,0,0,,0,,,72,127
2511,note_off,107,0,0,,10,,,69,127
2513,note_on,2,0,0,,6,,,66,127
2513,note_on,0,0,0,,10,,,81,127
2568,note_off,55,0,0,,0,,,72,127
2623,note_on,55,0,0,,0,,,72,127
2730,note_off,107,0,0,,0,,,72,127
2730,note_off,0,0,0,,10,,,81,127
2730,note_off,0,0,0,,6,,,66,127
2732,note_on,2,0,0,,7,,,67,127
2732,note_on,0,0,0,,0,,,72,127
2839,note_off,107,0,0,,0,,,72,127
2841,note_on,2,0,0,,12,,,71,127
2948,note_off,107,0,0,,7,,,67,127
2950,note_on,2,0,0,,12,,,59,127
2950,note_on,0,0,0,,7,,,79,127
3005,note_off,55,0,0,,12,,,71,127
3060,note_on,55,0,0,,12,,,71,127
3167,note_off,107,0,0,,12,,,71,127
3167,note_off,0,0,0,,7,,,79,127
3167,note_off,0,0,0,,12,,,59,127
3169,note_on,2,0,0,,0,,,60,127
3169,note_on,0,0,0,,12,,,71,127
3276,note_off,107,0,0,,12,,,71,127
3278,note_on,2,0,0,,10,,,69,127
3385,note_off,107,0,0,,0,,,60,127
3387,note_on,2,0,0,,2,,,62,127
3387,note_on,0,0,0,,7,,,79,127
3442,note_off,55,0,0,,10,,,69,127
3495,note_off,53,0,0,,7,,,79,127
3497,note_on,2,0,0,,6,,,78,127
3604,note_off,107,0,0,,6,,,78,127
3604,note_off,0,0,0,,2,,,62,127
3606,note_on,2,0,0,,7,,,55,127
3606,note_on,0,0,0,,7,,,79,127
3713,note_off,107,0,0,,7,,,79,127
3715,note_on,2,0,0,,2,,,74,127
3822,note_off,107,0,0,,2,,,74,127
3824,note_on,2,0,0,,12,,,71,127
3931,note_off,107,0,0,,12,,,71,127
3933,note_on,2,0,0,,7,,,67,127
4038,note_off,105,0,0,,7,,,55,127
4040,note_off,2,0,0,,7,,,67,127
4042,note_on,2,0,0,,2,,,62,127
4152,note_on,110,0,0,,7,,,55,127
4259,note_off,107,0,0,,7,,,55,127
4261,note_on,2,0,0,,2,,,50,127
4368,note_off,107,0,0,,2,,,50,127
4370,note_on,2,0,0,,7,,,43,127
4475,note_off,105,0,0,,2,,,62,127
4477,note_off,2,0,0,,7,,,43,127
4479,note_on,2,0,0,,7,,,79,127
4589,note_on,110,0,0,,4,,,76,127
4696,note_off,107,0,0,,4,,,76,127
4698,note_on,2,0,0,,0,,,72,127
4805,note_off,107,0,0,,0,,,72,127
4807,note_on,2,0,0,,7,,,67,127
4912,note_off,105,0,0,,7,,,79,127
4914,note_off,2,0,0,,7,,,67,127
4916,note_on,2,0,0,,4,,,64,127
5026,note_on,110,0,0,,0,,,60,127
5133,note_off,107,0,0,,0,,,60,127
5135,note_on,2,0,0,,7,,,55,127
5242,note_off,107,0,0,,7,,,55,127
5244,note_on,2,0,0,,0,,,48,127
5349,note_off,105,0,0,,4,,,64,127
5351,note_off,2,0,0,,0,,,48,127
5353,note_on,2,0,0,,7,,,79,127
5463,note_on,110,0,0,,2,,,74,127
5570,note_off,107,0,0,,2,,,74,127
5572,note_on,2,0,0,,12,,,71,127
5679,note_off,107,0,0,,12,,,71,127
5681,note_on,2,0,0,,7,,,67,127
5786,note_off,105,0,0,,7,,,79,127
5788,note_off,2,0,0,,7,,,67,127
5790,note_on,2,0,0,,2,,,62,127
5900,note_on,110,0,0,,7,,,55,127
6007,note_off,107,0,0,,7,,,55,127
6009,note_on,2,0,0,,2,,,50,127
6116,note_off,107,0,0,,2,,,50,127
6118,note_on,2,0,0,,7,,,43,127
6223,note_off,105,0,0,,2,,,62,127
6225,note_off,2,0,0,,7,,,43,127
6227,note_on,2,0,0,,7,,,79,127
6337,note_on,110,0,0,,4,,,76,127
6444,note_off,107,0,0,,4,,,76,127
6446,note_on,2,0,0,,0,,,72,127
6553,note_off,107,0,0,,0,,,72,127
6555,note_on,2,0,0,,7,,,67,127
6660,note_off,105,0,0,,7,,,79,127
6662,note_off,2,0,0,,7,,,67,127
6664,note_on,2,0,0,,4,,,64,127
6774,note_on,110,0,0,,0,,,60,127
6881,note_off,107,0,0,,0,,,60,127
6883,note_on,2,0,0,,7,,,55,127
6990,note_off,107,0,0,,7,,,55,127
6992,note_on,2,0,0,,0,,,48,127
7097,note_off,105,0,0,,4,,,64,127
7099,note_off,2,0,0,,0,,,48,127
7101,note_on,2,0,0,,7,,,79,127
7208,note_off,107,0,0,,7,,,79,127
7210,note_on,2,0,0,,2,,,74,127
7317,note_off,107,0,0,,2,,,74,127
7319,note_on,2,0,0,,12,,,71,127
7426,note_off,107,0,0,,12,,,71,127
7428,note_on,2,0,0,,7,,,67,127
7538,note_on,110,0,0,,7,,,55,127
7645,note_off,107,0,0,,7,,,55,127
7647,note_on,2,0,0,,2,,,50,127
7754,note_off,107,0,0,,2,,,50,127
7756,note_on,2,0,0,,7,,,43,127
7863,note_off,107,0,0,,7,,,43,127
7863,note_off,0,0,0,,7,,,67,127
7865,note_on,2,0,0,,7,,,55,127
7865,note_on,0,0,0,,12,,,83,127
7972,note_off,107,0,0,,12,,,83,127
7972,note_off,0,0,0,,7,,,55,127
7974,note_on,2,0,0,,6,,,54,127
7974,note_on,0,0,0,,12,,,83,127
8081,note_off,107,0,0,,12,,,83,127
8083,note_on,2,0,0,,10,,,81,127
8193,note_on,110,0,0,,2,,,74,127
8300,note_off,107,0,0,,2,,,74,127
8300,note_off,0,0,0,,10,,,81,127
8302,note_on,2,0,0,,10,,,81,127
8409,note_off,107,0,0,,10,,,81,127
8409,note_off,0,0,0,,6,,,54,127
8411,note_on,2,0,0,,4,,,52,127
8411,note_on,0,0,0,,10,,,81,127
8518,note_off,107,0,0,,10,,,81,127
8520,note_on,2,0,0,,7,,,79,127
8630,note_on,110,0,0,,1,,,73,127
8737,note_off,107,0,0,,1,,,73,127
8737,note_off,0,0,0,,7,,,79,127
8739,note_on,2,0,0,,7,,,79,127
8846,note_off,107,0,0,,7,,,79,127
8846,note_off,0,0,0,,4,,,52,127
8848,note_on,2,0,0,,2,,,50,127
8848,note_on,0,0,0,,6,,,78,127
8955,note_off,107,0,0,,6,,,78,127
8957,note_on,2,0,0,,2,,,74,127
9064,note_off,107,0,0,,2,,,74,127
9066,note_on,2,0,0,,4,,,76,127
9173,note_off,107,0,0,,4,,,76,127
9175,note_on,2,0,0,,10,,,81,127
9282,note_off,107,0,0,,2,,,50,127
9284,note_on,2,0,0,,4,,,52,127
9391,note_off,107,0,0,,10,,,81,127
9393,note_on,2,0,0,,12,,,83,127
9500,note_off,107,0,0,,12,,,83,127
9502,note_on,2,0,0,,4,,,40,127
9502,note_on,0,0,0,,10,,,81,127
9609,note_off,107,0,0,,10,,,81,127
9611,note_on,2,0,0,,8,,,80,127
9716,note_off,105,0,0,,4,,,52,127
9718,note_off,2,0,0,,8,,,80,127
9718,note_off,0,0,0,,4,,,40,127
9720,note_on,2,0,0,,10,,,45,127
9720,note_on,0,0,0,,10,,,81,127
9827,note_off,107,0,0,,10,,,81,127
9829,note_on,2,0,0,,4,,,76,127
9936,note_off,107,0,0,,4,,,76,127
9938,note_on,2,0,0,,1,,,73,127
10045,note_off,107,0,0,,1,,,73,127
10047,note_on,2,0,0,,10,,,69,127
10152,note_off,105,0,0,,10,,,45,127
10154,note_off,2,0,0,,10,,,69,127
10156,note_on,2,0,0,,4,,,64,127
10266,note_on,110,0,0,,10,,,57,127
10373,note_off,107,0,0,,10,,,57,127
10375,note_on,2,0,0,,4,,,52,127
10482,note_off,107,0,0,,4,,,52,127
10484,note_on,2,0,0,,10,,,45,127
10589,note_off,105,0,0,,4,,,64,127
10591,note_off,2,0,0,,10,,,45,127
10593,note_on,2,0,0,,10,,,81,127
10703,note_on,110,0,0,,6,,,78,127
10810,note_off,107,0,0,,6,,,78,127
10812,note_on,2,0,0,,2,,,74,127
10919,note_off,107,0,0,,2,,,74,127
10921,note_on,2,0,0,,10,,,69,127
11026,note_off,105,0,0,,10,,,81,127
11028,note_off,2,0,0,,10,,,69,127
11030,note_on,2,0,0,,6,,,66,127
11140,note_on,110,0,0,,10,,,57,127
11247,note_off,107,0,0,,10,,,57,127
11249,note_on,2,0,0,,2,,,50,127
11356,note_off,107,0,0,,2,,,50,127
11358,note_on,2,0,0,,10,,,45,127
11465,note_off,107,0,0,,10,,,45,127
11465,note_off,0,0,0,,6,,,66,127
11467,note_on,2,0,0,,10,,,81,127
11577,note_on,110,0,0,,4,,,76,127
11684,note_off,107,0,0,,4,,,76,127
11686,note_on,2,0,0,,1,,,73,127
11793,note_off,107,0,0,,1,,,73,127
11795,note_on,2,0,0,,10,,,69,127
11900,note_off,105,0,0,,10,,,81,127
11902,note_off,2,0,0,,10,,,69,127
11904,note_on,2,0,0,,4,,,64,127
12014,note_on,110,0,0,,10,,,57,127
12121,note_off,107,0,0,,10,,,57,127
12123,note_on,2,0,0,,4,,,52,127
12230,note_off,107,0,0,,4,,,52,127
12232,note_on,2,0,0,,10,,,45,127
12339,note_off,107,0,0,,10,,,45,127
12339,note_off,0,0,0,,4,,,64,127
12341,note_on,2,0,0,,10,,,81,127
12451,note_on,110,0,0,,6,,,78,127
12558,note_off,107,0,0,,6,,,78,127
12560,note_on,2,0,0,,2,,,74,127
12667,note_off,107,0,0,,2,,,74,127
12669,note_on,2,0,0,,10,,,69,127
12774,note_off,105,0,0,,10,,,81,127
12776,note_off,2,0,0,,10,,,69,127
12778,note_on,2,0,0,,6,,,66,127
12888,note_on,110,0,0,,10,,,57,127
12995,note_off,107,0,0,,10,,,57,127
12997,note_on,2,0,0,,2,,,50,127
13104,note_off,107,0,0,,2,,,50,127
13106,note_on,2,0,0,,10,,,45,127
13213,note_off,107,0,0,,10,,,45,127
13213,note_off,0,0,0,,6,,,66,127
13215,note_on,2,0,0,,10,,,81,127
13325,note_on,110,0,0,,4,,,76,127
13432,note_off,107,0,0,,4,,,76,127
13434,note_on,2,0,0,,1,,,73,127
13541,note_off,107,0,0,,1,,,73,127
13543,note_on,2,0,0,,10,,,69,127
13648,note_off,105,0,0,,10,,,81,127
13650,note_off,2,0,0,,10,,,69,127
13652,note_on,2,0,0,,4,,,64,127
13762,note_on,110,0,0,,1,,,61,127
13869,note_off,107,0,0,,1,,,61,127
13871,note_on,2,0,0,,10,,,57,127
13978,note_off,107,0,0,,10,,,57,127
13980,note_on,2,0,0,,4,,,52,127
14085,note_off,105,0,0,,4,,,64,127
14087,note_off,2,0,0,,4,,,52,127
14089,note_on,2,0,0,,10,,,45,127
14746,note_off,657,0,0,,10,,,45,127
14967,note_on,221,0,0,,6,,,54,127
14967,note_on,0,0,0,,12,,,47,127
14967,note_on,0,0,0,,12,,,59,127
14967,note_on,0,0,0,,12,,,71,127
14967,note_on,0,0,0,,10,,,69,127
14967,note_on,0,0,0,,6,,,66,127
14967,note_on,0,0,0,,3,,,75,127
15184,note_off,217,0,0,,3,,,75,127
15184,note_off,0,0,0,,6,,,66,127
15184,note_off,0,0,0,,10,,,69,127
15184,note_off,0,0,0,,12,,,71,127
15186,note_on,2,0,0,,10,,,69,127
15186,note_on,0,0,0,,6,,,66,127
15186,note_on,0,0,0,,3,,,75,127
15186,note_on,0,0,0,,12,,,71,127
15293,note_off,107,0,0,,12,,,71,127
15293,note_off,0,0,0,,3,,,75,127
15293,note_off,0,0,0,,6,,,66,127
15293,note_off,0,0,0,,10,,,69,127
15295,note_on,2,0,0,,12,,,71,127
15295,note_on,0,0,0,,10,,,69,127
15295,note_on,0,0,0,,6,,,66,127
15295,note_on,0,0,0,,3,,,75,127
15402,note_off,107,0,0,,3,,,75,127
15402,note_off,0,0,0,,6,,,66,127
15402,note_off,0,0,0,,10,,,69,127
15402,note_off,0,0,0,,12,,,71,127
15404,note_on,2,0,0,,6,,,66,127
15404,note_on,0,0,0,,12,,,71,127
15404,note_on,0,0,0,,10,,,69,127
15404,note_on,0,0,0,,3,,,75,127
15621,note_off,217,0,0,,3,,,75,127
15621,note_off,0,0,0,,10,,,69,127
15621,note_off,0,0,0,,12,,,71,127
15621,note_off,0,0,0,,6,,,66,127
15623,note_on,2,0,0,,4,,,76,127
15623,note_on,0,0,0,,12,,,71,127
15623,note_on,0,0,0,,7,,,67,127
15730,note_off,107,0,0,,7,,,67,127
15732,note_on,2,0,0,,7,,,67,127
15839,note_off,107,0,0,,7,,,67,127
15839,note_off,0,0,0,,12,,,71,127
15839,note_off,0,0,0,,4,,,76,127
15839,note_off,0,0,0,,12,,,59,127
15839,note_off,0,0,0,,12,,,47,127
15839,note_off,0,0,0,,6,,,54,127
15841,note_on,2,0,0,,6,,,54,127
15841,note_on,0,0,0,,12,,,47,127
15841,note_on,0,0,0,,12,,,59,127
15841,note_on,0,0,0,,10,,,81,127
15841,note_on,0,0,0,,6,,,78,127
15948,note_off,107,0,0,,6,,,78,127
15948,note_off,0,0,0,,10,,,81,127
15950,note_on,2,0,0,,0,,,72,127
16057,note_off,107,0,0,,0,,,72,127
16059,note_on,2,0,0,,4,,,76,127
16059,note_on,0,0,0,,7,,,79,127
16166,note_off,107,0,0,,7,,,79,127
16166,note_off,0,0,0,,4,,,76,127
16168,note_on,2,0,0,,12,,,71,127
16275,note_off,107,0,0,,12,,,71,127
16277,note_on,2,0,0,,6,,,78,127
16277,note_on,0,0,0,,3,,,75,127
16384,note_off,107,0,0,,3,,,75,127
16384,note_off,0,0,0,,6,,,78,127
16386,note_on,2,0,0,,10,,,69,127
16493,note_off,107,0,0,,10,,,69,127
16495,note_on,2,0,0,,4,,,76,127
16495,note_on,0,0,0,,12,,,71,127
16602,note_off,107,0,0,,12,,,71,127
16602,note_off,0,0,0,,4,,,76,127
16604,note_on,2,0,0,,7,,,67,127
16711,note_off,107,0,0,,7,,,67,127
16711,note_off,0,0,0,,12,,,59,127
16711,note_off,0,0,0,,12,,,47,127
16711,note_off,0,0,0,,6,,,54,127
16713,note_on,2,0,0,,6,,,54,127
16713,note_on,0,0,0,,12,,,47,127
16713,note_on,0,0,0,,12,,,59,127
16713,note_on,0,0,0,,6,,,66,127
16713,note_on,0,0,0,,12,,,71,127
16713,note_on,0,0,0,,10,,,69,127
16713,note_on,0,0,0,,3,,,75,127
16930,note_off,217,0,0,,3,,,75,127
16930,note_off,0,0,0,,10,,,69,127
16930,note_off,0,0,0,,12,,,71,127
16930,note_off,0,0,0,,6,,,66,127
16932,note_on,2,0,0,,6,,,66,127
16932,note_on,0,0,0,,12,,,71,127
16932,note_on,0,0,0,,10,,,69,127
16932,note_on,0,0,0,,3,,,75,127
17039,note_off,107,0,0,,3,,,75,127
17039,note_off,0,0,0,,10,,,69,127
17039,note_off,0,0,0,,12,,,71,127
17039,note_off,0,0,0,,6,,,66,127
17041,note_on,2,0,0,,6,,,66,127
17041,note_on,0,0,0,,12,,,71,127
17041,note_on,0,0,0,,10,,,69,127
17041,note_on,0,0,0,,3,,,75,127
17148,note_off,107,0,0,,3,,,75,127
17148,note_off,0,0,0,,10,,,69,127
17148,note_off,0,0,0,,12,,,71,127
17148,note_off,0,0,0,,6,,,66,127
17150,note_on,2,0,0,,6,,,66,127
17150,note_on,0,0,0,,3,,,75,127
17150,note_on,0,0,0,,12,,,71,127
17150,note_on,0,0,0,,10,,,69,127
17367,note_off,217,0,0,,10,,,69,127
17367,note_off,0,0,0,,12,,,71,127
17367,note_off,0,0,0,,3,,,75,127
17367,note_off,0,0,0,,6,,,66,127
17369,note_on,2,0,0,,7,,,67,127
17369,note_on,0,0,0,,4,,,76,127
17479,note_on,110,0,0,,12,,,71,127
17586,note_off,107,0,0,,12,,,71,127
17586,note_off,0,0,0,,4,,,76,127
17586,note_off,0,0,0,,7,,,67,127
17586,note_off,0,0,0,,12,,,59,127
17586,note_off,0,0,0,,12,,,47,127
17586,note_off,0,0,0,,6,,,54,127
17588,note_on,2,0,0,,12,,,47,127
17588,note_on,0,0,0,,6,,,54,127
17588,note_on,0,0,0,,12,,,59,127
17588,note_on,0,0,0,,6,,,78,127
17588,note_on,0,0,0,,10,,,81,127
17695,note_off,107,0,0,,10,,,81,127
17695,note_off,0,0,0,,6,,,78,127
17697,note_on,2,0,0,,0,,,72,127
17804,note_off,107,0,0,,0,,,72,127
17806,note_on,2,0,0,,7,,,79,127
17806,note_on,0,0,0,,4,,,76,127
17913,note_off,107,0,0,,4,,,76,127
17913,note_off,0,0,0,,7,,,79,127
17915,note_on,2,0,0,,12,,,71,127
18022,note_off,107,0,0,,12,,,71,127
18024,note_on,2,0,0,,3,,,75,127
18024,note_on,0,0,0,,6,,,78,127
18131,note_off,107,0,0,,6,,,78,127
18131,note_off,0,0,0,,3,,,75,127
18133,note_on,2,0,0,,10,,,69,127
18240,note_off,107,0,0,,10,,,69,127
18242,note_on,2,0,0,,4,,,76,127
18242,note_on,0,0,0,,12,,,71,127
18349,note_off,107,0,0,,12,,,71,127
18349,note_off,0,0,0,,4,,,76,127
18351,note_on,2,0,0,,7,,,67,127
18458,note_off,107,0,0,,7,,,67,127
18458,note_off,0,0,0,,12,,,59,127
18458,note_off,0,0,0,,6,,,54,127
18458,note_off,0,0,0,,12,,,47,127
18460,note_on,2,0,0,,6,,,54,127
18460,note_on,0,0,0,,12,,,47,127
18460,note_on,0,0,0,,12,,,59,127
18460,note_on,0,0,0,,12,,,71,127
18460,note_on,0,0,0,,10,,,69,127
18460,note_on,0,0,0,,6,,,66,127
18460,note_on,0,0,0,,3,,,75,127
18677,note_off,217,0,0,,3,,,75,127
18677,note_off,0,0,0,,6,,,66,127
18677,note_off,0,0,0,,10,,,69,127
18677,note_off,0,0,0,,12,,,71,127
18679,note_on,2,0,0,,6,,,66,127
18679,note_on,0,0,0,,12,,,71,127
18679,note_on,0,0,0,,10,,,69,127
18679,note_on,0,0,0,,3,,,75,127
18786,note_off,107,0,0,,3,,,75,127
18786,note_off,0,0,0,,10,,,69,127
18786,note_off,0,0,0,,12,,,71,127
18786,note_off,0,0,0,,6,,,66,127
18788,note_on,2,0,0,,6,,,66,127
18788,note_on,0,0,0,,12,,,71,127
18788,note_on,0,0,0,,10,,,69,127
18788,note_on,0,0,0,,3,,,75,127
18895,note_off,107,0,0,,3,,,75,127
18895,note_off,0,0,0,,10,,,69,127
18895,note_off,0,0,0,,12,,,71,127
18895,note_off,0,0,0,,6,,,66,127
18897,note_on,2,0,0,,12,,,71,127
18897,note_on,0,0,0,,10,,,69,127
18897,note_on,0,0,0,,6,,,66,127
18897,note_on,0,0,0,,3,,,75,127
19114,note_off,217,0,0,,3,,,75,127
19114,note_off,0,0,0,,6,,,66,127
19114,note_off,0,0,0,,10,,,69,127
19114,note_off,0,0,0,,12,,,71,127
19114,note_off,0,0,0,,12,,,59,127
19114,note_off,0,0,0,,12,,,47,127
19114,note_off,0,0,0,,6,,,54,127
19116,note_on,2,0,0,,6,,,54,127
19116,note_on,0,0,0,,12,,,47,127
19116,note_on,0,0,0,,12,,,59,127
19116,note_on,0,0,0,,6,,,78,127
19333,note_off,217,0,0,,6,,,78,127
19333,note_off,0,0,0,,12,,,59,127
19333,note_off,0,0,0,,12,,,47,127
19333,note_off,0,0,0,,6,,,54,127
19335,note_on,2,0,0,,4,,,52,127
19335,note_on,0,0,0,,12,,,59,127
19335,note_on,0,0,0,,7,,,79,127
19442,note_off,107,0,0,,7,,,79,127
19444,note_on,2,0,0,,4,,,76,127
19551,note_off,107,0,0,,4,,,76,127
19553,note_on,2,0,0,,12,,,71,127
19660,note_off,107,0,0,,12,,,71,127
19662,note_on,2,0,0,,7,,,67,127
19769,note_off,107,0,0,,7,,,67,127
19771,note_on,2,0,0,,12,,,71,127
19880,note_off,109,0,0,,12,,,71,127
19881,note_on,1,0,0,,7,,,79,127
19988,note_off,107,0,0,,12,,,59,127
19988,note_off,0,0,0,,4,,,52,127
19990,note_on,2,0,0,,12,,,59,127
19990,note_on,0,0,0,,12,,,47,127
19990,note_on,0,0,0,,6,,,54,127
19990,note_on,0,0,0,,12,,,71,127
20097,note_off,107,0,0,,7,,,79,127
20098,note_off,1,0,0,,12,,,71,127
20099,note_on,1,0,0,,6,,,78,127
20206,note_off,107,0,0,,6,,,78,127
20206,note_off,0,0,0,,6,,,54,127
20206,note_off,0,0,0,,12,,,47,127
20206,note_off,0,0,0,,12,,,59,127
20208,note_on,2,0,0,,4,,,52,127
20208,note_on,0,0,0,,12,,,59,127
20208,note_on,0,0,0,,7,,,79,127
20315,note_off,107,0,0,,7,,,79,127
20317,note_on,2,0,0,,4,,,76,127
20424,note_off,107,0,0,,4,,,76,127
20426,note_on,2,0,0,,12,,,71,127
20533,note_off,107,0,0,,12,,,71,127
20535,note_on,2,0,0,,7,,,67,127
20642,note_off,107,0,0,,7,,,67,127
20644,note_on,2,0,0,,4,,,64,127
20751,note_off,107,0,0,,4,,,64,127
20753,note_on,2,0,0,,7,,,67,127
20860,note_off,107,0,0,,7,,,67,127
20860,note_off,0,0,0,,12,,,59,127
20860,note_off,0,0,0,,4,,,52,127
20862,note_on,2,0,0,,2,,,50,127
20862,note_on,0,0,0,,12,,,71,127
20972,note_on,110,0,0,,12,,,83,127
21079,note_off,107,0,0,,12,,,83,127
21079,note_off,0,0,0,,12,,,71,127
21079,note_off,0,0,0,,2,,,50,127
21081,note_on,2,0,0,,0,,,60,127
21081,note_on,0,0,0,,0,,,48,127
21081,note_on,0,0,0,,0,,,84,127
21188,note_off,107,0,0,,0,,,84,127
21190,note_on,2,0,0,,7,,,79,127
21297,note_off,107,0,0,,7,,,79,127
21299,note_on,2,0,0,,4,,,76,127
21406,note_off,107,0,0,,4,,,76,127
21408,note_on,2,0,0,,0,,,72,127
21515,note_off,107,0,0,,0,,,72,127
21517,note_on,2,0,0,,7,,,67,127
21624,note_off,107,0,0,,7,,,67,127
21626,note_on,2,0,0,,4,,,64,127
21733,note_off,107,0,0,,4,,,64,127
21733,note_off,0,0,0,,0,,,48,127
21733,note_off,0,0,0,,0,,,60,127
21735,note_on,2,0,0,,6,,,54,127
21735,note_on,0,0,0,,0,,,60,127
21842,note_off,107,0,0,,0,,,60,127
21844,note_on,2,0,0,,0,,,84,127
21951,note_off,107,0,0,,0,,,84,127
21951,note_off,0,0,0,,6,,,54,127
21953,note_on,2,0,0,,7,,,55,127
21953,note_on,0,0,0,,12,,,83,127
22060,note_off,107,0,0,,12,,,83,127
22062,note_on,2,0,0,,7,,,79,127
22169,note_off,107,0,0,,7,,,79,127
22171,note_on,2,0,0,,2,,,74,127
22278,note_off,107,0,0,,2,,,74,127
22280,note_on,2,0,0,,12,,,71,127
22387,note_off,107,0,0,,12,,,71,127
22389,note_on,2,0,0,,7,,,67,127
22496,note_off,107,0,0,,7,,,67,127
22498,note_on,2,0,0,,2,,,62,127
22605,note_off,107,0,0,,2,,,62,127
22605,note_off,0,0,0,,7,,,55,127
22607,note_on,2,0,0,,1,,,49,127
22607,note_on,0,0,0,,7,,,67,127
22714,note_off,107,0,0,,7,,,67,127
22716,note_on,2,0,0,,12,,,83,127
22823,note_off,107,0,0,,12,,,83,127
22823,note_off,0,0,0,,1,,,49,127
22825,note_on,2,0,0,,2,,,50,127
22825,note_on,0,0,0,,10,,,81,127
22932,note_off,107,0,0,,10,,,81,127
22934,note_on,2,0,0,,6,,,78,127
23041,note_off,107,0,0,,6,,,78,127
23043,note_on,2,0,0,,2,,,74,127
23150,note_off,107,0,0,,2,,,74,127
23152,note_on,2,0,0,,10,,,69,127
23259,note_off,107,0,0,,10,,,69,127
23261,note_on,2,0,0,,6,,,66,127
23368,note_off,107,0,0,,6,,,66,127
23370,note_on,2,0,0,,2,,,62,127
23477,note_off,107,0,0,,2,,,62,127
23477,note_off,0,0,0,,2,,,50,127
23479,note_on,2,0,0,,6,,,54,127
23479,note_on,0,0,0,,6,,,66,127
23586,note_off,107,0,0,,6,,,66,127
23588,note_on,2,0,0,,10,,,81,127
23695,note_off,107,0,0,,10,,,81,127
23695,note_off,0,0,0,,6,,,54,127
23697,note_on,2,0,0,,7,,,55,127
23697,note_on,0,0,0,,11,,,82,127
23804,note_off,107,0,0,,11,,,82,127
23806,note_on,2,0,0,,12,,,83,127
23913,note_off,107,0,0,,12,,,83,127
23915,note_on,2,0,0,,7,,,43,127
23915,note_on,0,0,0,,6,,,78,127
24022,note_off,107,0,0,,6,,,78,127
24024,note_on,2,0,0,,7,,,79,127
24131,note_off,107,0,0,,7,,,79,127
24133,note_on,2,0,0,,3,,,75,127
24240,note_off,107,0,0,,3,,,75,127
24242,note_on,2,0,0,,4,,,76,127
24349,note_off,107,0,0,,4,,,76,127
24351,note_on,2,0,0,,11,,,70,127
24458,note_off,107,0,0,,11,,,70,127
24460,note_on,2,0,0,,12,,,71,127
24567,note_off,107,0,0,,12,,,71,127
24568,note_off,1,0,0,,7,,,43,127
24568,note_off,0,0,0,,7,,,55,127
24569,note_on,1,0,0,,1,,,73,127
24676,note_off,107,0,0,,1,,,73,127
24678,note_on,2,0,0,,2,,,74,127
24785,note_off,107,0,0,,2,,,74,127
24787,note_on,2,0,0,,7,,,55,127
24787,note_on,0,0,0,,4,,,76,127
24894,note_off,107,0,0,,4,,,76,127
24896,note_on,2,0,0,,6,,,78,127
25003,note_off,107,0,0,,6,,,78,127
25005,note_on,2,0,0,,7,,,43,127
25005,note_on,0,0,0,,7,,,79,127
25112,note_off,107,0,0,,7,,,79,127
25114,note_on,2,0,0,,10,,,81,127
25219,note_off,105,0,0,,7,,,55,127
25221,note_off,2,0,0,,10,,,81,127
25223,note_on,2,0,0,,7,,,55,127
25223,note_on,0,0,0,,12,,,83,127
25330,note_off,107,0,0,,12,,,83,127
25332,note_off,2,0,0,,7,,,43,127
25332,note_on,0,0,0,,7,,,79,127
25439,note_off,107,0,0,,7,,,79,127
25439,note_off,0,0,0,,7,,,55,127
25441,note_on,2,0,0,,6,,,54,127
25441,note_on,0,0,0,,8,,,80,127
25548,note_off,107,0,0,,8,,,80,127
25550,note_on,2,0,0,,10,,,81,127
25657,note_off,107,0,0,,10,,,81,127
25659,note_on,2,0,0,,4,,,76,127
25766,note_off,107,0,0,,4,,,76,127
25768,note_on,2,0,0,,6,,,78,127
25875,note_off,107,0,0,,6,,,78,127
25877,note_on,2,0,0,,1,,,73,127
25984,note_off,107,0,0,,1,,,73,127
25986,note_on,2,0,0,,2,,,74,127
26093,note_off,107,0,0,,2,,,74,127
26095,note_on,2,0,0,,8,,,68,127
26202,note_off,107,0,0,,8,,,68,127
26204,note_on,2,0,0,,10,,,69,127
26311,note_off,107,0,0,,10,,,69,127
26312,note_off,1,0,0,,6,,,54,127
26313,note_on,1,0,0,,12,,,71,127
26420,note_off,107,0,0,,12,,,71,127
26422,note_on,2,0,0,,1,,,73,127
26529,note_off,107,0,0,,1,,,73,127
26531,note_on,2,0,0,,6,,,54,127
26531,note_on,0,0,0,,2,,,74,127
26638,note_off,107,0,0,,2,,,74,127
26640,note_on,2,0,0,,4,,,76,127
26747,note_off,107,0,0,,4,,,76,127
26749,note_on,2,0,0,,6,,,42,127
26749,note_on,0,0,0,,6,,,78,127
26856,note_off,107,0,0,,6,,,78,127
26858,note_on,2,0,0,,7,,,79,127
26963,note_off,105,0,0,,6,,,54,127
26965,note_off,2,0,0,,7,,,79,127
26967,note_on,2,0,0,,6,,,54,127
26967,note_on,0,0,0,,10,,,81,127
27074,note_off,107,0,0,,10,,,81,127
27076,note_off,2,0,0,,6,,,42,127
27076,note_on,0,0,0,,6,,,78,127
27183,note_off,107,0,0,,6,,,78,127
27183,note_off,0,0,0,,6,,,54,127
27185,note_on,2,0,0,,4,,,52,127
27185,note_on,0,0,0,,6,,,78,127
27292,note_off,107,0,0,,6,,,78,127
27294,note_on,2,0,0,,7,,,79,127
27401,note_off,107,0,0,,7,,,79,127
27403,note_on,2,0,0,,3,,,75,127
27510,note_off,107,0,0,,3,,,75,127
27512,note_on,2,0,0,,4,,,76,127
27619,note_off,107,0,0,,4,,,76,127
27621,note_on,2,0,0,,11,,,70,127
27728,note_off,107,0,0,,11,,,70,127
27730,note_on,2,0,0,,12,,,71,127
27837,note_off,107,0,0,,12,,,71,127
27839,note_on,2,0,0,,6,,,66,127
27946,note_off,107,0,0,,6,,,66,127
27948,note_on,2,0,0,,7,,,67,127
28055,note_off,107,0,0,,7,,,67,127
28056,note_off,1,0,0,,4,,,52,127
28057,note_on,1,0,0,,10,,,69,127
28164,note_off,107,0,0,,10,,,69,127
28166,note_on,2,0,0,,12,,,71,127
28273,note_off,107,0,0,,12,,,71,127
28275,note_on,2,0,0,,4,,,52,127
28275,note_on,0,0,0,,1,,,73,127
28382,note_off,107,0,0,,1,,,73,127
28384,note_on,2,0,0,,2,,,74,127
28491,note_off,107,0,0,,2,,,74,127
28493,note_on,2,0,0,,4,,,40,127
28493,note_on,0,0,0,,4,,,76,127
28600,note_off,107,0,0,,4,,,76,127
28602,note_on,2,0,0,,6,,,78,127
28707,note_off,105,0,0,,4,,,52,127
28709,note_off,2,0,0,,6,,,78,127
28711,note_on,2,0,0,,4,,,52,127
28711,note_on,0,0,0,,7,,,79,127
28818,note_off,107,0,0,,7,,,79,127
28820,note_off,2,0,0,,4,,,40,127
28820,note_on,0,0,0,,4,,,76,127
28927,note_off,107,0,0,,4,,,76,127
28927,note_off,0,0,0,,4,,,52,127
28929,note_on,2,0,0,,2,,,38,127
28929,note_on,0,0,0,,6,,,78,127
29036,note_off,107,0,0,,2,,,38,127
29038,note_on,2,0,0,,2,,,50,127
29145,note_off,107,0,0,,2,,,50,127
29147,note_on,2,0,0,,6,,,54,127
29254,note_off,107,0,0,,6,,,54,127
29254,note_off,0,0,0,,6,,,78,127
29256,note_on,2,0,0,,2,,,50,127
29256,note_on,0,0,0,,10,,,69,127
29256,note_on,0,0,0,,10,,,81,127
29363,note_off,107,0,0,,10,,,81,127
29363,note_off,0,0,0,,10,,,69,127
29363,note_off,0,0,0,,2,,,50,127
29365,note_on,2,0,0,,10,,,45,127
29365,note_on,0,0,0,,10,,,69,127
29365,note_on,0,0,0,,10,,,81,127
29472,note_off,107,0,0,,10,,,45,127
29474,note_on,2,0,0,,10,,,57,127
29581,note_off,107,0,0,,10,,,57,127
29581,note_off,0,0,0,,10,,,81,127
29581,note_off,0,0,0,,10,,,69,127
29583,note_on,2,0,0,,1,,,61,127
29583,note_on,0,0,0,,4,,,76,127
29690,note_off,107,0,0,,4,,,76,127
29690,note_off,0,0,0,,1,,,61,127
29692,note_on,2,0,0,,10,,,57,127
29692,note_on,0,0,0,,10,,,81,127
29799,note_off,107,0,0,,10,,,81,127
29799,note_off,0,0,0,,10,,,57,127
29801,note_on,2,0,0,,2,,,38,127
29801,note_on,0,0,0,,10,,,69,127
29801,note_on,0,0,0,,10,,,81,127
29908,note_off,107,0,0,,2,,,38,127
29910,note_on,2,0,0,,2,,,50,127
30017,note_off,107,0,0,,2,,,50,127
30017,note_off,0,0,0,,10,,,81,127
30017,note_off,0,0,0,,10,,,69,127
30019,note_on,2,0,0,,6,,,54,127
30019,note_on,0,0,0,,6,,,78,127
30126,note_off,107,0,0,,6,,,78,127
30126,note_off,0,0,0,,6,,,54,127
30128,note_on,2,0,0,,2,,,50,127
30128,note_on,0,0,0,,10,,,81,127
30235,note_off,107,0,0,,10,,,81,127
30235,note_off,0,0,0,,2,,,50,127
30237,note_on,2,0,0,,10,,,45,127
30237,note_on,0,0,0,,10,,,69,127
30237,note_on,0,0,0,,10,,,81,127
30344,note_off,107,0,0,,10,,,45,127
30346,note_on,2,0,0,,10,,,57,127
30453,note_off,107,0,0,,10,,,57,127
30453,note_off,0,0,0,,10,,,81,127
30453,note_off,0,0,0,,10,,,69,127
30455,note_on,2,0,0,,1,,,61,127
30455,note_on,0,0,0,,4,,,76,127
30562,note_off,107,0,0,,4,,,76,127
30562,note_off,0,0,0,,1,,,61,127
30564,note_on,2,0,0,,10,,,57,127
30564,note_on,0,0,0,,10,,,81,127
30671,note_off,107,0,0,,10,,,81,127
30671,note_off,0,0,0,,10,,,57,127
30673,note_on,2,0,0,,2,,,38,127
30673,note_on,0,0,0,,10,,,81,127
30673,note_on,0,0,0,,10,,,69,127
30780,note_off,107,0,0,,2,,,38,127
30782,note_on,2,0,0,,2,,,50,127
30889,note_off,107,0,0,,2,,,50,127
30889,note_off,0,0,0,,10,,,69,127
30889,note_off,0,0,0,,10,,,81,127
30891,note_on,2,0,0,,6,,,54,127
30891,note_on,0,0,0,,6,,,78,127
30998,note_off,107,0,0,,6,,,78,127
30998,note_off,0,0,0,,6,,,54,127
31000,note_on,2,0,0,,2,,,50,127
31000,note_on,0,0,0,,10,,,81,127
31107,note_off,107,0,0,,10,,,81,127
31107,note_off,0,0,0,,2,,,50,127
31109,note_on,2,0,0,,10,,,45,127
31109,note_on,0,0,0,,10,,,81,127
31109,note_on,0,0,0,,10,,,69,127
31216,note_off,107,0,0,,10,,,45,127
31218,note_on,2,0,0,,10,,,57,127
31325,note_off,107,0,0,,10,,,57,127
31325,note_off,0,0,0,,10,,,69,127
31325,note_off,0,0,0,,10,,,81,127
31327,note_on,2,0,0,,1,,,61,127
31327,note_on,0,0,0,,4,,,76,127
31434,note_off,107,0,0,,4,,,76,127
31434,note_off,0,0,0,,1,,,61,127
31436,note_on,2,0,0,,10,,,57,127
31436,note_on,0,0,0,,10,,,81,127
31543,note_off,107,0,0,,10,,,81,127
31543,note_off,0,0,0,,10,,,57,127
31545,note_on,2,0,0,,2,,,38,127
31545,note_on,0,0,0,,10,,,81,127
31545,note_on,0,0,0,,10,,,69,127
31652,note_off,107,0,0,,10,,,69,127
31654,note_on,2,0,0,,6,,,78,127
31761,note_off,107,0,0,,6,,,78,127
31761,note_off,0,0,0,,10,,,81,127
31761,note_off,0,0,0,,2,,,38,127
31763,note_on,2,0,0,,7,,,55,127
31763,note_on,0,0,0,,7,,,79,127
31763,note_on,0,0,0,,12,,,83,127
31870,note_off,107,0,0,,7,,,79,127
31872,note_on,2,0,0,,4,,,76,127
31979,note_off,107,0,0,,4,,,76,127
31979,note_off,0,0,0,,12,,,83,127
31979,note_off,0,0,0,,7,,,55,127
31981,note_on,2,0,0,,10,,,57,127
31981,note_on,0,0,0,,10,,,81,127
31981,note_on,0,0,0,,6,,,78,127
32088,note_off,107,0,0,,6,,,78,127
32090,note_on,2,0,0,,2,,,74,127
32197,note_off,107,0,0,,2,,,74,127
32197,note_off,0,0,0,,10,,,81,127
32199,note_on,2,0,0,,10,,,45,127
32199,note_on,0,0,0,,7,,,79,127
32199,note_on,0,0,0,,4,,,76,127
32306,note_off,107,0,0,,4,,,76,127
32308,note_off,2,0,0,,10,,,57,127
32308,note_on,0,0,0,,1,,,73,127
32415,note_off,107,0,0,,1,,,73,127
32415,note_off,0,0,0,,7,,,79,127
32415,note_off,0,0,0,,10,,,45,127
32417,note_on,2,0,0,,2,,,38,127
32417,note_on,0,0,0,,6,,,78,127
32417,note_on,0,0,0,,2,,,74,127
32524,note_off,107,0,0,,2,,,38,127
32526,note_on,2,0,0,,2,,,50,127
32633,note_off,107,0,0,,2,,,50,127
32635,note_on,2,0,0,,6,,,54,127
32742,note_off,107,0,0,,6,,,54,127
32742,note_off,0,0,0,,2,,,74,127
32742,note_off,0,0,0,,6,,,78,127
32744,note_on,2,0,0,,2,,,50,127
32744,note_on,0,0,0,,10,,,81,127
32744,note_on,0,0,0,,10,,,69,127
32851,note_off,107,0,0,,10,,,69,127
32851,note_off,0,0,0,,10,,,81,127
32851,note_off,0,0,0,,2,,,50,127
32853,note_on,2,0,0,,10,,,45,127
32853,note_on,0,0,0,,10,,,69,127
32853,note_on,0,0,0,,10,,,81,127
32960,note_off,107,0,0,,10,,,45,127
32962,note_on,2,0,0,,10,,,57,127
33069,note_off,107,0,0,,10,,,57,127
33069,note_off,0,0,0,,10,,,81,127
33069,note_off,0,0,0,,10,,,69,127
33071,note_on,2,0,0,,1,,,61,127
33071,note_on,0,0,0,,4,,,76,127
33178,note_off,107,0,0,,4,,,76,127
33178,note_off,0,0,0,,1,,,61,127
33180,note_on,2,0,0,,10,,,57,127
33180,note_on,0,0,0,,10,,,81,127
33287,note_off,107,0,0,,10,,,81,127
33287,note_off,0,0,0,,10,,,57,127
33289,note_on,2,0,0,,2,,,38,127
33289,note_on,0,0,0,,10,,,81,127
33289,note_on,0,0,0,,10,,,69,127
33396,note_off,107,0,0,,2,,,38,127
33398,note_on,2,0,0,,2,,,50,127
33505,note_off,107,0,0,,2,,,50,127
33505,note_off,0,0,0,,10,,,69,127
33505,note_off,0,0,0,,10,,,81,127
33507,note_on,2,0,0,,6,,,54,127
33507,note_on,0,0,0,,6,,,78,127
33614,note_off,107,0,0,,6,,,78,127
33614,note_off,0,0,0,,6,,,54,127
33616,note_on,2,0,0,,2,,,50,127
33616,note_on,0,0,0,,10,,,81,127
33723,note_off,107,0,0,,10,,,81,127
33723,note_off,0,0,0,,2,,,50,127
33725,note_on,2,0,0,,10,,,45,127
33725,note_on,0,0,0,,10,,,69,127
33725,note_on,0,0,0,,10,,,81,127
33832,note_off,107,0,0,,10,,,45,127
33834,note_on,2,0,0,,10,,,57,127
33941,note_off,107,0,0,,10,,,57,127
33941,note_off,0,0,0,,10,,,81,127
33941,note_off,0,0,0,,10,,,69,127
33943,note_on,2,0,0,,1,,,61,127
33943,note_on,0,0,0,,4,,,76,127
34050,note_off,107,0,0,,4,,,76,127
34050,note_off,0,0,0,,1,,,61,127
34052,note_on,2,0,0,,10,,,57,127
34052,note_on,0,0,0,,10,,,81,127
34159,note_off,107,0,0,,10,,,81,127
34159,note_off,0,0,0,,10,,,57,127
34161,note_on,2,0,0,,2,,,38,127
34161,note_on,0,0,0,,10,,,81,127
34161,note_on,0,0,0,,10,,,69,127
34268,note_off,107,0,0,,2,,,38,127
34270,note_on,2,0,0,,2,,,50,127
34377,note_off,107,0,0,,2,,,50,127
34377,note_off,0,0,0,,10,,,69,127
34377,note_off,0,0,0,,10,,,81,127
34379,note_on,2,0,0,,6,,,54,127
34379,note_on,0,0,0,,6,,,78,127
34486,note_off,107,0,0,,6,,,78,127
34486,note_off,0,0,0,,6,,,54,127
34488,note_on,2,0,0,,2,,,50,127
34488,note_on,0,0,0,,10,,,81,127
34595,note_off,107,0,0,,10,,,81,127
34595,note_off,0,0,0,,2,,,50,127
34597,note_on,2,0,0,,10,,,45,127
34597,note_on,0,0,0,,10,,,81,127
34597,note_on,0,0,0,,10,,,69,127
34704,note_off,107,0,0,,10,,,45,127
34706,note_on,2,0,0,,10,,,57,127
34813,note_off,107,0,0,,10,,,57,127
34813,note_off,0,0,0,,10,,,69,127
34813,note_off,0,0,0,,10,,,81,127
34815,note_on,2,0,0,,1,,,61,127
34815,note_on,0,0,0,,4,,,76,127
34922,note_off,107,0,0,,4,,,76,127
34922,note_off,0,0,0,,1,,,61,127
34924,note_on,2,0,0,,10,,,57,127
34924,note_on,0,0,0,,10,,,81,127
35031,note_off,107,0,0,,10,,,81,127
35031,note_off,0,0,0,,10,,,57,127
35033,note_on,2,0,0,,2,,,38,127
35033,note_on,0,0,0,,10,,,81,127
35033,note_on,0,0,0,,10,,,69,127
35140,note_off,107,0,0,,10,,,69,127
35142,note_on,2,0,0,,6,,,78,127
35249,note_off,107,0,0,,6,,,78,127
35249,note_off,0,0,0,,10,,,81,127
35249,note_off,0,0,0,,2,,,38,127
35251,note_on,2,0,0,,7,,,55,127
35251,note_on,0,0,0,,7,,,79,127
35251,note_on,0,0,0,,12,,,83,127
35358,note_off,107,0,0,,7,,,79,127
35360,note_on,2,0,0,,4,,,76,127
35467,note_off,107,0,0,,4,,,76,127
35467,note_off,0,0,0,,12,,,83,127
35467,note_off,0,0,0,,7,,,55,127
35469,note_on,2,0,0,,10,,,57,127
35469,note_on,0,0,0,,6,,,78,127
35469,note_on,0,0,0,,10,,,81,127
35576,note_off,107,0,0,,6,,,78,127
35578,note_on,2,0,0,,2,,,74,127
35685,note_off,107,0,0,,2,,,74,127
35685,note_off,0,0,0,,10,,,81,127
35687,note_on,2,0,0,,10,,,45,127
35687,note_on,0,0,0,,7,,,79,127
35687,note_on,0,0,0,,4,,,76,127
35794,note_off,107,0,0,,4,,,76,127
35796,note_on,2,0,0,,1,,,73,127
35901,note_off,105,0,0,,10,,,57,127
35903,note_off,2,0,0,,1,,,73,127
35903,note_off,0,0,0,,7,,,79,127
35903,note_off,0,0,0,,10,,,45,127
35905,note_on,2,0,0,,2,,,50,127
35905,note_on,0,0,0,,6,,,78,127
35905,note_on,0,0,0,,2,,,74,127
36012,note_off,107,0,0,,2,,,74,127
36014,note_on,2,0,0,,10,,,69,127
36121,note_off,107,0,0,,10,,,69,127
36121,note_off,0,0,0,,6,,,78,127
36121,note_off,0,0,0,,2,,,50,127
36123,note_on,2,0,0,,7,,,55,127
36123,note_on,0,0,0,,7,,,67,127
36123,note_on,0,0,0,,12,,,71,127
36230,note_off,107,0,0,,12,,,71,127
36232,note_on,2,0,0,,4,,,76,127
36339,note_off,107,0,0,,4,,,76,127
36339,note_off,0,0,0,,7,,,67,127
36339,note_off,0,0,0,,7,,,55,127
36341,note_on,2,0,0,,10,,,57,127
36341,note_on,0,0,0,,10,,,69,127
36341,note_on,0,0,0,,6,,,66,127
36448,note_off,107,0,0,,10,,,69,127
36450,note_on,2,0,0,,2,,,74,127
36557,note_off,107,0,0,,2,,,74,127
36557,note_off,0,0,0,,6,,,66,127
36559,note_on,2,0,0,,10,,,45,127
36559,note_on,0,0,0,,4,,,64,127
36559,note_on,0,0,0,,7,,,67,127
36666,note_off,107,0,0,,7,,,67,127
36668,note_on,2,0,0,,1,,,73,127
36773,note_off,105,0,0,,10,,,57,127
36775,note_off,2,0,0,,1,,,73,127
36775,note_off,0,0,0,,4,,,64,127
36775,note_off,0,0,0,,10,,,45,127
36777,note_on,2,0,0,,2,,,50,127
36777,note_on,0,0,0,,2,,,74,127
36777,note_on,0,0,0,,6,,,66,127
36884,note_off,107,0,0,,2,,,74,127
36886,note_on,2,0,0,,10,,,69,127
36993,note_off,107,0,0,,10,,,69,127
36993,note_off,0,0,0,,6,,,66,127
36993,note_off,0,0,0,,2,,,50,127
36995,note_on,2,0,0,,7,,,55,127
36995,note_on,0,0,0,,7,,,67,127
36995,note_on,0,0,0,,12,,,71,127
37102,note_off,107,0,0,,7,,,67,127
37104,note_on,2,0,0,,4,,,64,127
37211,note_off,107,0,0,,4,,,64,127
37211,note_off,0,0,0,,12,,,71,127
37211,note_off,0,0,0,,7,,,55,127
37213,note_on,2,0,0,,10,,,57,127
37213,note_on,0,0,0,,6,,,66,127
37213,note_on,0,0,0,,10,,,69,127
37320,note_off,107,0,0,,6,,,66,127
37322,note_on,2,0,0,,2,,,62,127
37429,note_off,107,0,0,,2,,,62,127
37429,note_off,0,0,0,,10,,,69,127
37431,note_on,2,0,0,,10,,,45,127
37431,note_on,0,0,0,,7,,,67,127
37431,note_on,0,0,0,,4,,,64,127
37538,note_off,107,0,0,,4,,,64,127
37540,note_on,2,0,0,,1,,,61,127
37645,note_off,105,0,0,,10,,,57,127
37647,note_off,2,0,0,,1,,,61,127
37647,note_off,0,0,0,,7,,,67,127
37647,note_off,0,0,0,,10,,,45,127
37649,note_on,2,0,0,,2,,,38,127
37649,note_on,0,0,0,,2,,,50,127
37649,note_on,0,0,0,,2,,,62,127
37649,note_on,0,0,0,,6,,,66,127
38306,note_off,657,0,0,,6,,,66,127
38306,note_off,0,0,0,,2,,,62,127
38524,note_off,218,0,0,,2,,,50,127
38524,note_off,0,0,0,,2,,,38,127
38526,note_on,2,0,0,,2,,,62,127
38526,note_on,0,0,0,,6,,,66,127
38633,note_off,107,0,0,,6,,,66,127
38633,note_off,0,0,0,,2,,,62,127
38635,note_on,2,0,0,,4,,,64,127
38635,note_on,0,0,0,,7,,,67,127
38742,note_off,107,0,0,,7,,,67,127
38742,note_off,0,0,0,,4,,,64,127
38744,note_on,2,0,0,,6,,,66,127
38744,note_on,0,0,0,,10,,,69,127
38851,note_off,107,0,0,,10,,,69,127
38851,note_off,0,0,0,,6,,,66,127
38853,note_on,2,0,0,,7,,,67,127
38853,note_on,0,0,0,,12,,,71,127
38960,note_off,107,0,0,,12,,,71,127
38960,note_off,0,0,0,,7,,,67,127
38962,note_on,2,0,0,,10,,,69,127
38962,note_on,0,0,0,,0,,,72,127
39069,note_off,107,0,0,,0,,,72,127
39069,note_off,0,0,0,,10,,,69,127
39071,note_on,2,0,0,,12,,,71,127
39071,note_on,0,0,0,,2,,,74,127
39178,note_off,107,0,0,,2,,,74,127
39178,note_off,0,0,0,,12,,,71,127
39180,note_on,2,0,0,,0,,,72,127
39180,note_on,0,0,0,,4,,,76,127
39287,note_off,107,0,0,,4,,,76,127
39287,note_off,0,0,0,,0,,,72,127
39289,note_on,2,0,0,,2,,,74,127
39289,note_on,0,0,0,,6,,,78,127
39396,note_off,107,0,0,,6,,,78,127
39396,note_off,0,0,0,,2,,,74,127
39398,note_on,2,0,0,,4,,,76,127
39398,note_on,0,0,0,,7,,,79,127
39505,note_off,107,0,0,,7,,,79,127
39505,note_off,0,0,0,,4,,,76,127
39507,note_on,2,0,0,,2,,,74,127
39507,note_on,0,0,0,,6,,,78,127
39614,note_off,107,0,0,,6,,,78,127
39614,note_off,0,0,0,,2,,,74,127
39616,note_on,2,0,0,,0,,,72,127
39616,note_on,0,0,0,,4,,,76,127
39723,note_off,107,0,0,,4,,,76,127
39723,note_off,0,0,0,,0,,,72,127
39725,note_on,2,0,0,,12,,,71,127
39725,note_on,0,0,0,,2,,,74,127
39832,note_off,107,0,0,,2,,,74,127
39832,note_off,0,0,0,,12,,,71,127
39834,note_on,2,0,0,,10,,,69,127
39834,note_on,0,0,0,,0,,,72,127
39941,note_off,107,0,0,,0,,,72,127
39941,note_off,0,0,0,,10,,,69,127
39943,note_on,2,0,0,,7,,,67,127
39943,note_on,0,0,0,,12,,,71,127
40050,note_off,107,0,0,,12,,,71,127
40050,note_off,0,0,0,,7,,,67,127
40052,note_on,2,0,0,,6,,,66,127
40052,note_on,0,0,0,,10,,,69,127
40159,note_off,107,0,0,,10,,,69,127
40159,note_off,0,0,0,,6,,,66,127
40161,note_on,2,0,0,,4,,,64,127
40161,note_on,0,0,0,,7,,,67,127
40268,note_off,107,0,0,,7,,,67,127
40268,note_off,0,0,0,,4,,,64,127
40270,note_on,2,0,0,,2,,,62,127
40270,note_on,0,0,0,,6,,,66,127
40377,note_off,107,0,0,,6,,,66,127
40377,note_off,0,0,0,,2,,,62,127
40379,note_on,2,0,0,,4,,,64,127
40379,note_on,0,0,0,,7,,,67,127
40486,note_off,107,0,0,,7,,,67,127
40486,note_off,0,0,0,,4,,,64,127
40488,note_on,2,0,0,,6,,,66,127
40488,note_on,0,0,0,,10,,,69,127
40595,note_off,107,0,0,,10,,,69,127
40595,note_off,0,0,0,,6,,,66,127
40597,note_on,2,0,0,,7,,,67,127
40597,note_on,0,0,0,,12,,,71,127
40704,note_off,107,0,0,,12,,,71,127
40704,note_off,0,0,0,,7,,,67,127
40706,note_on,2,0,0,,10,,,69,127
40706,note_on,0,0,0,,0,,,72,127
40813,note_off,107,0,0,,0,,,72,127
40813,note_off,0,0,0,,10,,,69,127
40815,note_on,2,0,0,,12,,,71,127
40815,note_on,0,0,0,,2,,,74,127
40922,note_off,107,0,0,,2,,,74,127
40922,note_off,0,0,0,,12,,,71,127
40924,note_on,2,0,0,,0,,,72,127
40924,note_on,0,0,0,,4,,,76,127
41031,note_off,107,0,0,,4,,,76,127
41031,note_off,0,0,0,,0,,,72,127
41033,note_on,2,0,0,,2,,,74,127
41033,note_on,0,0,0,,6,,,78,127
41140,note_off,107,0,0,,6,,,78,127
41140,note_off,0,0,0,,2,,,74,127
41142,note_on,2,0,0,,4,,,76,127
41142,note_on,0,0,0,,7,,,79,127
41249,note_off,107,0,0,,7,,,79,127
41249,note_off,0,0,0,,4,,,76,127
41251,note_on,2,0,0,,2,,,74,127
41251,note_on,0,0,0,,6,,,78,127
41358,note_off,107,0,0,,6,,,78,127
41358,note_off,0,0,0,,2,,,74,127
41360,note_on,2,0,0,,0,,,72,127
41360,note_on,0,0,0,,4,,,76,127
41467,note_off,107,0,0,,4,,,76,127
41467,note_off,0,0,0,,0,,,72,127
41469,note_on,2,0,0,,12,,,71,127
41469,note_on,0,0,0,,2,,,74,127
41576,note_off,107,0,0,,2,,,74,127
41576,note_off,0,0,0,,12,,,71,127
41578,note_on,2,0,0,,10,,,69,127
41578,note_on,0,0,0,,0,,,72,127
41685,note_off,107,0,0,,0,,,72,127
41685,note_off,0,0,0,,10,,,69,127
41687,note_on,2,0,0,,7,,,67,127
41687,note_on,0,0,0,,12,,,71,127
41794,note_off,107,0,0,,12,,,71,127
41794,note_off,0,0,0,,7,,,67,127
41796,note_on,2,0,0,,6,,,66,127
41796,note_on,0,0,0,,10,,,69,127
41903,note_off,107,0,0,,10,,,69,127
41903,note_off,0,0,0,,6,,,66,127
41905,note_on,2,0,0,,4,,,64,127
41905,note_on,0,0,0,,7,,,67,127
42012,note_off,107,0,0,,7,,,67,127
42012,note_off,0,0,0,,4,,,64,127
42014,note_on,2,0,0,,2,,,62,127
42014,note_on,0,0,0,,6,,,66,127
42124,note_on,110,0,0,,2,,,74,127
42231,note_off,107,0,0,,2,,,74,127
42231,note_off,0,0,0,,6,,,66,127
42231,note_off,0,0,0,,2,,,62,127
42233,note_on,2,0,0,,0,,,60,127
42233,note_on,0,0,0,,6,,,66,127
42343,note_on,110,0,0,,10,,,69,127
42450,note_off,107,0,0,,10,,,69,127
42450,note_off,0,0,0,,6,,,66,127
42450,note_off,0,0,0,,0,,,60,127
42452,note_on,2,0,0,,12,,,59,127
42452,note_on,0,0,0,,7,,,67,127
42562,note_on,110,0,0,,12,,,71,127
42669,note_off,107,0,0,,12,,,71,127
42669,note_off,0,0,0,,12,,,59,127
42671,note_on,2,0,0,,10,,,57,127
42671,note_on,0,0,0,,0,,,72,127
42778,note_off,107,0,0,,0,,,72,127
42778,note_off,0,0,0,,7,,,67,127
42780,note_on,2,0,0,,10,,,69,127
42780,note_on,0,0,0,,6,,,66,127
42887,note_off,107,0,0,,6,,,66,127
42887,note_off,0,0,0,,10,,,69,127
42887,note_off,0,0,0,,10,,,57,127
42889,note_on,2,0,0,,7,,,55,127
42889,note_on,0,0,0,,12,,,59,127
42996,note_off,107,0,0,,12,,,59,127
42996,note_off,0,0,0,,7,,,55,127
42998,note_on,2,0,0,,10,,,57,127
42998,note_on,0,0,0,,0,,,60,127
43105,note_off,107,0,0,,0,,,60,127
43105,note_off,0,0,0,,10,,,57,127
43107,note_on,2,0,0,,12,,,59,127
43107,note_on,0,0,0,,2,,,62,127
43214,note_off,107,0,0,,2,,,62,127
43214,note_off,0,0,0,,12,,,59,127
43216,note_on,2,0,0,,0,,,60,127
43216,note_on,0,0,0,,4,,,64,127
43323,note_off,107,0,0,,4,,,64,127
43323,note_off,0,0,0,,0,,,60,127
43325,note_on,2,0,0,,2,,,62,127
43325,note_on,0,0,0,,6,,,66,127
43432,note_off,107,0,0,,6,,,66,127
43432,note_off,0,0,0,,2,,,62,127
43434,note_on,2,0,0,,4,,,64,127
43434,note_on,0,0,0,,7,,,67,127
43541,note_off,107,0,0,,7,,,67,127
43541,note_off,0,0,0,,4,,,64,127
43543,note_on,2,0,0,,6,,,66,127
43543,note_on,0,0,0,,10,,,69,127
43650,note_off,107,0,0,,10,,,69,127
43650,note_off,0,0,0,,6,,,66,127
43652,note_on,2,0,0,,7,,,67,127
43652,note_on,0,0,0,,12,,,71,127
43759,note_off,107,0,0,,12,,,71,127
43759,note_off,0,0,0,,7,,,67,127
43761,note_on,2,0,0,,10,,,69,127
43761,note_on,0,0,0,,0,,,72,127
43868,note_off,107,0,0,,0,,,72,127
43868,note_off,0,0,0,,10,,,69,127
43870,note_on,2,0,0,,7,,,67,127
43870,note_on,0,0,0,,12,,,71,127
43977,note_off,107,0,0,,12,,,71,127
43977,note_off,0,0,0,,7,,,67,127
43979,note_on,2,0,0,,6,,,66,127
43979,note_on,0,0,0,,10,,,69,127
44086,note_off,107,0,0,,10,,,69,127
44086,note_off,0,0,0,,6,,,66,127
44088,note_on,2,0,0,,4,,,64,127
44088,note_on,0,0,0,,7,,,67,127
44195,note_off,107,0,0,,7,,,67,127
44195,note_off,0,0,0,,4,,,64,127
44197,note_on,2,0,0,,2,,,62,127
44197,note_on,0,0,0,,6,,,66,127
44304,note_off,107,0,0,,6,,,66,127
44304,note_off,0,0,0,,2,,,62,127
44306,note_on,2,0,0,,0,,,60,127
44306,note_on,0,0,0,,4,,,64,127
44413,note_off,107,0,0,,4,,,64,127
44413,note_off,0,0,0,,0,,,60,127
44415,note_on,2,0,0,,12,,,59,127
44415,note_on,0,0,0,,2,,,62,127
44522,note_off,107,0,0,,2,,,62,127
44522,note_off,0,0,0,,12,,,59,127
44524,note_on,2,0,0,,10,,,57,127
44524,note_on,0,0,0,,0,,,60,127
44631,note_off,107,0,0,,0,,,60,127
44631,note_off,0,0,0,,10,,,57,127
44633,note_on,2,0,0,,7,,,55,127
44633,note_on,0,0,0,,12,,,59,127
44740,note_off,107,0,0,,12,,,59,127
44740,note_off,0,0,0,,7,,,55,127
44742,note_on,2,0,0,,10,,,57,127
44742,note_on,0,0,0,,0,,,60,127
44849,note_off,107,0,0,,0,,,60,127
44849,note_off,0,0,0,,10,,,57,127
44851,note_on,2,0,0,,12,,,59,127
44851,note_on,0,0,0,,2,,,62,127
44958,note_off,107,0,0,,2,,,62,127
44958,note_off,0,0,0,,12,,,59,127
44960,note_on,2,0,0,,0,,,60,127
44960,note_on,0,0,0,,4,,,64,127
45067,note_off,107,0,0,,4,,,64,127
45067,note_off,0,0,0,,0,,,60,127
45069,note_on,2,0,0,,2,,,62,127
45069,note_on,0,0,0,,6,,,66,127
45176,note_off,107,0,0,,6,,,66,127
45176,note_off,0,0,0,,2,,,62,127
45178,note_on,2,0,0,,4,,,64,127
45178,note_on,0,0,0,,7,,,67,127
45285,note_off,107,0,0,,7,,,67,127
45285,note_off,0,0,0,,4,,,64,127
45287,note_on,2,0,0,,6,,,66,127
45287,note_on,0,0,0,,10,,,69,127
45394,note_off,107,0,0,,10,,,69,127
45394,note_off,0,0,0,,6,,,66,127
45396,note_on,2,0,0,,7,,,67,127
45396,note_on,0,0,0,,12,,,71,127
45503,note_off,107,0,0,,12,,,71,127
45503,note_off,0,0,0,,7,,,67,127
45505,note_on,2,0,0,,10,,,69,127
45505,note_on,0,0,0,,0,,,72,127
45612,note_off,107,0,0,,0,,,72,127
45612,note_off,0,0,0,,10,,,69,127
45614,note_on,2,0,0,,7,,,67,127
45614,note_on,0,0,0,,12,,,71,127
45721,note_off,107,0,0,,12,,,71,127
45721,note_off,0,0,0,,7,,,67,127
45723,note_on,2,0,0,,6,,,66,127
45723,note_on,0,0,0,,10,,,69,127
45830,note_off,107,0,0,,10,,,69,127
45830,note_off,0,0,0,,6,,,66,127
45832,note_on,2,0,0,,4,,,64,127
45832,note_on,0,0,0,,7,,,67,127
45939,note_off,107,0,0,,7,,,67,127
45939,note_off,0,0,0,,4,,,64,127
45941,note_on,2,0,0,,2,,,62,127
45941,note_on,0,0,0,,6,,,66,127
46048,note_off,107,0,0,,6,,,66,127
46048,note_off,0,0,0,,2,,,62,127
46050,note_on,2,0,0,,0,,,60,127
46050,note_on,0,0,0,,4,,,64,127
46157,note_off,107,0,0,,4,,,64,127
46157,note_off,0,0,0,,0,,,60,127
46159,note_on,2,0,0,,12,,,59,127
46159,note_on,0,0,0,,2,,,62,127
46266,note_off,107,0,0,,2,,,62,127
46266,note_off,0,0,0,,12,,,59,127
46268,note_on,2,0,0,,10,,,57,127
46268,note_on,0,0,0,,0,,,60,127
46375,note_off,107,0,0,,0,,,60,127
46375,note_off,0,0,0,,10,,,57,127
46377,note_on,2,0,0,,7,,,55,127
46377,note_on,0,0,0,,12,,,59,127
46487,note_on,110,0,0,,7,,,67,127
46594,note_off,107,0,0,,7,,,67,127
46594,note_off,0,0,0,,12,,,59,127
46594,note_off,0,0,0,,7,,,55,127
46596,note_on,2,0,0,,5,,,53,127
46596,note_on,0,0,0,,12,,,59,127
46706,note_on,110,0,0,,2,,,62,127
46813,note_off,107,0,0,,2,,,62,127
46813,note_off,0,0,0,,12,,,59,127
46813,note_off,0,0,0,,5,,,53,127
46815,note_on,2,0,0,,4,,,52,127
46815,note_on,0,0,0,,0,,,60,127
46925,note_on,110,0,0,,0,,,72,127
47032,note_off,107,0,0,,0,,,60,127
47032,note_off,0,0,0,,4,,,52,127
47034,note_on,2,0,0,,2,,,50,127
47034,note_on,0,0,0,,2,,,62,127
47141,note_off,107,0,0,,0,,,72,127
47143,note_on,2,0,0,,12,,,71,127
47250,note_off,107,0,0,,12,,,71,127
47250,note_off,0,0,0,,2,,,62,127
47250,note_off,0,0,0,,2,,,50,127
47252,note_on,2,0,0,,0,,,48,127
47252,note_on,0,0,0,,4,,,76,127
47359,note_off,107,0,0,,4,,,76,127
47361,note_on,2,0,0,,0,,,72,127
47468,note_off,107,0,0,,0,,,72,127
47470,note_on,2,0,0,,7,,,67,127
47577,note_off,107,0,0,,7,,,67,127
47579,note_on,2,0,0,,4,,,64,127
47684,note_off,105,0,0,,0,,,48,127
47686,note_off,2,0,0,,4,,,64,127
47688,note_on,2,0,0,,0,,,60,127
47798,note_on,110,0,0,,7,,,55,127
47905,note_off,107,0,0,,7,,,55,127
47907,note_on,2,0,0,,4,,,52,127
48014,note_off,107,0,0,,4,,,52,127
48016,note_on,2,0,0,,0,,,48,127
48123,note_off,107,0,0,,0,,,48,127
48123,note_off,0,0,0,,0,,,60,127
48125,note_on,2,0,0,,7,,,43,127
48125,note_on,0,0,0,,7,,,79,127
48232,note_off,107,0,0,,7,,,79,127
48234,note_on,2,0,0,,2,,,74,127
48341,note_off,107,0,0,,2,,,74,127
48343,note_on,2,0,0,,12,,,71,127
48450,note_off,107,0,0,,12,,,71,127
48452,note_on,2,0,0,,7,,,67,127
48557,note_off,105,0,0,,7,,,43,127
48559,note_off,2,0,0,,7,,,67,127
48561,note_on,2,0,0,,2,,,62,127
48671,note_on,110,0,0,,7,,,55,127
48778,note_off,107,0,0,,7,,,55,127
48780,note_on,2,0,0,,2,,,50,127
48887,note_off,107,0,0,,2,,,50,127
48889,note_on,2,0,0,,7,,,43,127
48996,note_off,107,0,0,,7,,,43,127
48996,note_off,0,0,0,,2,,,62,127
48998,note_on,2,0,0,,0,,,36,127
48998,note_on,0,0,0,,0,,,84,127
49105,note_off,107,0,0,,0,,,84,127
49107,note_on,2,0,0,,7,,,79,127
49214,note_off,107,0,0,,7,,,79,127
49216,note_on,2,0,0,,4,,,76,127
49323,note_off,107,0,0,,4,,,76,127
49325,note_on,2,0,0,,0,,,72,127
49430,note_off,105,0,0,,0,,,36,127
49432,note_off,2,0,0,,0,,,72,127
49434,note_on,2,0,0,,7,,,67,127
49544,note_on,110,0,0,,0,,,60,127
49651,note_off,107,0,0,,0,,,60,127
49653,note_on,2,0,0,,7,,,55,127
49760,note_off,107,0,0,,7,,,55,127
49762,note_on,2,0,0,,0,,,48,127
49869,note_off,107,0,0,,0,,,48,127
49869,note_off,0,0,0,,7,,,67,127
49871,note_on,2,0,0,,7,,,43,127
49871,note_on,0,0,0,,7,,,79,127
49978,note_off,107,0,0,,7,,,79,127
49980,note_on,2,0,0,,2,,,74,127
50087,note_off,107,0,0,,2,,,74,127
50089,note_on,2,0,0,,12,,,71,127
50196,note_off,107,0,0,,12,,,71,127
50198,note_on,2,0,0,,7,,,67,127
50303,note_off,105,0,0,,7,,,43,127
50305,note_off,2,0,0,,7,,,67,127
50307,note_on,2,0,0,,2,,,62,127
50417,note_on,110,0,0,,7,,,55,127
50524,note_off,107,0,0,,7,,,55,127
50526,note_on,2,0,0,,2,,,50,127
50633,note_off,107,0,0,,2,,,50,127
50635,note_on,2,0,0,,7,,,43,127
50742,note_off,107,0,0,,7,,,43,127
50742,note_off,0,0,0,,2,,,62,127
50744,note_on,2,0,0,,0,,,36,127
50744,note_on,0,0,0,,0,,,84,127
50851,note_off,107,0,0,,0,,,84,127
50853,note_on,2,0,0,,7,,,79,127
50960,note_off,107,0,0,,7,,,79,127
50962,note_on,2,0,0,,4,,,76,127
51069,note_off,107,0,0,,4,,,76,127
51071,note_on,2,0,0,,0,,,72,127
51176,note_off,105,0,0,,0,,,36,127
51178,note_off,2,0,0,,0,,,72,127
51180,note_on,2,0,0,,7,,,67,127
51290,note_on,110,0,0,,4,,,64,127
51397,note_off,107,0,0,,4,,,64,127
51399,note_on,2,0,0,,0,,,60,127
51506,note_off,107,0,0,,0,,,60,127
51508,note_on,2,0,0,,7,,,55,127
51613,note_off,105,0,0,,7,,,67,127
51615,note_off,2,0,0,,7,,,55,127
51617,note_on,2,0,0,,4,,,52,127
51727,note_on,110,0,0,,0,,,48,127
51834,note_off,107,0,0,,0,,,48,127
51836,note_on,2,0,0,,7,,,43,127
51943,note_off,107,0,0,,7,,,43,127
51945,note_on,2,0,0,,4,,,40,127
52050,note_off,105,0,0,,4,,,52,127
52052,note_off,2,0,0,,4,,,40,127
52054,note_on,2,0,0,,0,,,36,127
52931,note_off,877,0,0,,0,,,36,127
53371,note_on,440,0,0,,4,,,40,127
53371,note_on,0,0,0,,4,,,52,127
53371,note_on,0,0,0,,12,,,47,127
53371,note_on,0,0,0,,4,,,76,127
53371,note_on,0,0,0,,12,,,71,127
53371,note_on,0,0,0,,12,,,83,127
53371,note_on,0,0,0,,8,,,80,127
53588,note_off,217,0,0,,8,,,80,127
53588,note_off,0,0,0,,12,,,83,127
53588,note_off,0,0,0,,12,,,71,127
53588,note_off,0,0,0,,4,,,76,127
53590,note_on,2,0,0,,8,,,80,127
53590,note_on,0,0,0,,4,,,76,127
53590,note_on,0,0,0,,12,,,71,127
53590,note_on,0,0,0,,12,,,83,127
53697,note_off,107,0,0,,12,,,83,127
53697,note_off,0,0,0,,12,,,71,127
53697,note_off,0,0,0,,4,,,76,127
53697,note_off,0,0,0,,8,,,80,127
53699,note_on,2,0,0,,12,,,71,127
53699,note_on,0,0,0,,8,,,80,127
53699,note_on,0,0,0,,4,,,76,127
53699,note_on,0,0,0,,12,,,83,127
53806,note_off,107,0,0,,12,,,83,127
53806,note_off,0,0,0,,4,,,76,127
53806,note_off,0,0,0,,8,,,80,127
53806,note_off,0,0,0,,12,,,71,127
53808,note_on,2,0,0,,8,,,80,127
53808,note_on,0,0,0,,4,,,76,127
53808,note_on,0,0,0,,12,,,71,127
53808,note_on,0,0,0,,12,,,83,127
53915,note_off,107,0,0,,12,,,71,127
53915,note_off,0,0,0,,4,,,76,127
53917,note_on,2,0,0,,12,,,71,127
54024,note_off,107,0,0,,12,,,71,127
54024,note_off,0,0,0,,12,,,83,127
54024,note_off,0,0,0,,8,,,80,127
54026,note_on,2,0,0,,10,,,81,127
54026,note_on,0,0,0,,0,,,84,127
54026,note_on,0,0,0,,0,,,72,127
54136,note_on,110,0,0,,4,,,76,127
54243,note_off,107,0,0,,4,,,76,127
54243,note_off,0,0,0,,0,,,72,127
54243,note_off,0,0,0,,0,,,84,127
54243,note_off,0,0,0,,10,,,81,127
54243,note_off,0,0,0,,12,,,47,127
54243,note_off,0,0,0,,4,,,52,127
54243,note_off,0,0,0,,4,,,40,127
54245,note_on,2,0,0,,12,,,47,127
54245,note_on,0,0,0,,4,,,40,127
54245,note_on,0,0,0,,4,,,52,127
54245,note_on,0,0,0,,2,,,86,127
54245,note_on,0,0,0,,12,,,83,127
54352,note_off,107,0,0,,12,,,83,127
54352,note_off,0,0,0,,2,,,86,127
54354,note_on,2,0,0,,5,,,77,127
54461,note_off,107,0,0,,5,,,77,127
54463,note_on,2,0,0,,10,,,81,127
54463,note_on,0,0,0,,0,,,84,127
54570,note_off,107,0,0,,0,,,84,127
54570,note_off,0,0,0,,10,,,81,127
54572,note_on,2,0,0,,4,,,76,127
54679,note_off,107,0,0,,4,,,76,127
54681,note_on,2,0,0,,12,,,83,127
54681,note_on,0,0,0,,8,,,80,127
54788,note_off,107,0,0,,8,,,80,127
54788,note_off,0,0,0,,12,,,83,127
54790,note_on,2,0,0,,2,,,74,127
54897,note_off,107,0,0,,2,,,74,127
54899,note_on,2,0,0,,4,,,76,127
54899,note_on,0,0,0,,10,,,81,127
55006,note_off,107,0,0,,10,,,81,127
55006,note_off,0,0,0,,4,,,76,127
55008,note_on,2,0,0,,0,,,72,127
55115,note_off,107,0,0,,0,,,72,127
55115,note_off,0,0,0,,4,,,52,127
55115,note_off,0,0,0,,4,,,40,127
55115,note_off,0,0,0,,12,,,47,127
55117,note_on,2,0,0,,12,,,47,127
55117,note_on,0,0,0,,4,,,40,127
55117,note_on,0,0,0,,4,,,52,127
55117,note_on,0,0,0,,12,,,71,127
55117,note_on,0,0,0,,12,,,83,127
55117,note_on,0,0,0,,8,,,80,127
55117,note_on,0,0,0,,4,,,76,127
55334,note_off,217,0,0,,4,,,76,127
55334,note_off,0,0,0,,8,,,80,127
55334,note_off,0,0,0,,12,,,83,127
55334,note_off,0,0,0,,12,,,71,127
55336,note_on,2,0,0,,8,,,80,127
55336,note_on,0,0,0,,12,,,71,127
55336,note_on,0,0,0,,12,,,83,127
55336,note_on,0,0,0,,4,,,76,127
55443,note_off,107,0,0,,4,,,76,127
55443,note_off,0,0,0,,12,,,83,127
55443,note_off,0,0,0,,12,,,71,127
55443,note_off,0,0,0,,8,,,80,127
55445,note_on,2,0,0,,8,,,80,127
55445,note_on,0,0,0,,4,,,76,127
55445,note_on,0,0,0,,12,,,71,127
55445,note_on,0,0,0,,12,,,83,127
55552,note_off,107,0,0,,12,,,83,127
55552,note_off,0,0,0,,12,,,71,127
55552,note_off,0,0,0,,4,,,76,127
55552,note_off,0,0,0,,8,,,80,127
55554,note_on,2,0,0,,8,,,80,127
55554,note_on,0,0,0,,4,,,76,127
55554,note_on,0,0,0,,12,,,83,127
55554,note_on,0,0,0,,12,,,71,127
55661,note_off,107,0,0,,12,,,71,127
55661,note_off,0,0,0,,4,,,76,127
55663,note_on,2,0,0,,12,,,71,127
55770,note_off,107,0,0,,12,,,71,127
55770,note_off,0,0,0,,12,,,83,127
55770,note_off,0,0,0,,8,,,80,127
55772,note_on,2,0,0,,10,,,81,127
55772,note_on,0,0,0,,0,,,84,127
55772,note_on,0,0,0,,0,,,72,127
55882,note_on,110,0,0,,4,,,76,127
55989,note_off,107,0,0,,4,,,76,127
55989,note_off,0,0,0,,0,,,72,127
55989,note_off,0,0,0,,0,,,84,127
55989,note_off,0,0,0,,10,,,81,127
55989,note_off,0,0,0,,4,,,52,127
55989,note_off,0,0,0,,4,,,40,127
55989,note_off,0,0,0,,12,,,47,127
55991,note_on,2,0,0,,4,,,52,127
55991,note_on,0,0,0,,12,,,47,127
55991,note_on,0,0,0,,4,,,40,127
55991,note_on,0,0,0,,12,,,83,127
55991,note_on,0,0,0,,2,,,86,127
56098,note_off,107,0,0,,2,,,86,127
56098,note_off,0,0,0,,12,,,83,127
56100,note_on,2,0,0,,5,,,77,127
56207,note_off,107,0,0,,5,,,77,127
56209,note_on,2,0,0,,10,,,81,127
56209,note_on,0,0,0,,0,,,84,127
56316,note_off,107,0,0,,0,,,84,127
56316,note_off,0,0,0,,10,,,81,127
56318,note_on,2,0,0,,4,,,76,127
56425,note_off,107,0,0,,4,,,76,127
56427,note_on,2,0,0,,12,,,83,127
56427,note_on,0,0,0,,8,,,80,127
56534,note_off,107,0,0,,8,,,80,127
56534,note_off,0,0,0,,12,,,83,127
56536,note_on,2,0,0,,2,,,74,127
56643,note_off,107,0,0,,2,,,74,127
56645,note_on,2,0,0,,4,,,76,127
56645,note_on,0,0,0,,10,,,81,127
56752,note_off,107,0,0,,10,,,81,127
56752,note_off,0,0,0,,4,,,76,127
56754,note_on,2,0,0,,0,,,72,127
56861,note_off,107,0,0,,0,,,72,127
56861,note_off,0,0,0,,4,,,40,127
56861,note_off,0,0,0,,12,,,47,127
56861,note_off,0,0,0,,4,,,52,127
56863,note_on,2,0,0,,4,,,40,127
56863,note_on,0,0,0,,4,,,52,127
56863,note_on,0,0,0,,12,,,47,127
56863,note_on,0,0,0,,12,,,71,127
56863,note_on,0,0,0,,12,,,83,127
56863,note_on,0,0,0,,8,,,80,127
56863,note_on,0,0,0,,4,,,76,127
57080,note_off,217,0,0,,4,,,76,127
57080,note_off,0,0,0,,8,,,80,127
57080,note_off,0,0,0,,12,,,83,127
57080,note_off,0,0,0,,12,,,71,127
57082,note_on,2,0,0,,12,,,83,127
57082,note_on,0,0,0,,8,,,80,127
57082,note_on,0,0,0,,12,,,71,127
57082,note_on,0,0,0,,4,,,76,127
57189,note_off,107,0,0,,4,,,76,127
57189,note_off,0,0,0,,12,,,71,127
57189,note_off,0,0,0,,8,,,80,127
57189,note_off,0,0,0,,12,,,83,127
57191,note_on,2,0,0,,8,,,80,127
57191,note_on,0,0,0,,12,,,71,127
57191,note_on,0,0,0,,4,,,76,127
57191,note_on,0,0,0,,12,,,83,127
57298,note_off,107,0,0,,12,,,83,127
57298,note_off,0,0,0,,4,,,76,127
57298,note_off,0,0,0,,12,,,71,127
57298,note_off,0,0,0,,8,,,80,127
57300,note_on,2,0,0,,12,,,71,127
57300,note_on,0,0,0,,12,,,83,127
57300,note_on,0,0,0,,8,,,80,127
57300,note_on,0,0,0,,4,,,76,127
57517,note_off,217,0,0,,4,,,76,127
57517,note_off,0,0,0,,8,,,80,127
57517,note_off,0,0,0,,12,,,83,127
57517,note_off,0,0,0,,12,,,71,127
57517,note_off,0,0,0,,12,,,47,127
57517,note_off,0,0,0,,4,,,52,127
57517,note_off,0,0,0,,4,,,40,127
57519,note_on,2,0,0,,4,,,40,127
57519,note_on,0,0,0,,12,,,83,127
57736,note_off,217,0,0,,12,,,83,127
57736,note_off,0,0,0,,4,,,40,127
57738,note_on,2,0,0,,10,,,45,127
57738,note_on,0,0,0,,12,,,83,127
57845,note_off,107,0,0,,12,,,83,127
57847,note_on,2,0,0,,0,,,84,127
57954,note_off,107,0,0,,0,,,84,127
57956,note_on,2,0,0,,8,,,80,127
58063,note_off,107,0,0,,8,,,80,127
58065,note_on,2,0,0,,10,,,81,127
58172,note_off,107,0,0,,10,,,81,127
58174,note_on,2,0,0,,3,,,75,127
58281,note_off,107,0,0,,3,,,75,127
58283,note_on,2,0,0,,4,,,76,127
58390,note_off,107,0,0,,4,,,76,127
58392,note_on,2,0,0,,12,,,71,127
58499,note_off,107,0,0,,12,,,71,127
58501,note_on,2,0,0,,0,,,72,127
58608,note_off,107,0,0,,0,,,72,127
58609,note_off,1,0,0,,10,,,45,127
58610,note_on,1,0,0,,2,,,74,127
58717,note_off,107,0,0,,2,,,74,127
58719,note_on,2,0,0,,4,,,76,127
58826,note_off,107,0,0,,4,,,76,127
58828,note_on,2,0,0,,10,,,57,127
58828,note_on,0,0,0,,5,,,77,127
58935,note_off,107,0,0,,5,,,77,127
58937,note_on,2,0,0,,8,,,80,127
59044,note_off,107,0,0,,8,,,80,127
59046,note_on,2,0,0,,10,,,45,127
59046,note_on,0,0,0,,10,,,81,127
59153,note_off,107,0,0,,10,,,81,127
59155,note_on,2,0,0,,12,,,83,127
59260,note_off,105,0,0,,10,,,57,127
59262,note_off,2,0,0,,12,,,83,127
59264,note_on,2,0,0,,10,,,57,127
59264,note_on,0,0,0,,0,,,84,127
59371,note_off,107,0,0,,0,,,84,127
59373,note_off,2,0,0,,10,,,45,127
59373,note_on,0,0,0,,10,,,81,127
59480,note_off,107,0,0,,10,,,81,127
59480,note_off,0,0,0,,10,,,57,127
59482,note_on,2,0,0,,7,,,55,127
59482,note_on,0,0,0,,11,,,82,127
59589,note_off,107,0,0,,11,,,82,127
59591,note_on,2,0,0,,12,,,83,127
59698,note_off,107,0,0,,12,,,83,127
59700,note_on,2,0,0,,6,,,78,127
59807,note_off,107,0,0,,6,,,78,127
59809,note_on,2,0,0,,7,,,79,127
59916,note_off,107,0,0,,7,,,79,127
59918,note_on,2,0,0,,3,,,75,127
60025,note_off,107,0,0,,3,,,75,127
60027,note_on,2,0,0,,4,,,76,127
60134,note_off,107,0,0,,4,,,76,127
60136,note_on,2,0,0,,11,,,70,127
60243,note_off,107,0,0,,11,,,70,127
60245,note_on,2,0,0,,12,,,71,127
60352,note_off,107,0,0,,12,,,71,127
60353,note_off,1,0,0,,7,,,55,127
60354,note_on,1,0,0,,1,,,73,127
60461,note_off,107,0,0,,1,,,73,127
60463,note_on,2,0,0,,3,,,75,127
60570,note_off,107,0,0,,3,,,75,127
60572,note_on,2,0,0,,7,,,55,127
60572,note_on,0,0,0,,4,,,76,127
60679,note_off,107,0,0,,4,,,76,127
60681,note_on,2,0,0,,6,,,78,127
60788,note_off,107,0,0,,6,,,78,127
60790,note_on,2,0,0,,7,,,43,127
60790,note_on,0,0,0,,7,,,79,127
60897,note_off,107,0,0,,7,,,79,127
60899,note_on,2,0,0,,10,,,81,127
61004,note_off,105,0,0,,7,,,55,127
61006,note_off,2,0,0,,10,,,81,127
61008,note_on,2,0,0,,7,,,55,127
61008,note_on,0,0,0,,12,,,83,127
61115,note_off,107,0,0,,12,,,83,127
61117,note_off,2,0,0,,7,,,43,127
61117,note_on,0,0,0,,7,,,79,127
61224,note_off,107,0,0,,7,,,79,127
61224,note_off,0,0,0,,7,,,55,127
61226,note_on,2,0,0,,6,,,54,127
61226,note_on,0,0,0,,8,,,80,127
61333,note_off,107,0,0,,8,,,80,127
61335,note_on,2,0,0,,10,,,81,127
61442,note_off,107,0,0,,10,,,81,127
61444,note_on,2,0,0,,4,,,76,127
61551,note_off,107,0,0,,4,,,76,127
61553,note_on,2,0,0,,6,,,78,127
61660,note_off,107,0,0,,6,,,78,127
61662,note_on,2,0,0,,12,,,71,127
61769,note_off,107,0,0,,12,,,71,127
61771,note_on,2,0,0,,0,,,72,127
61878,note_off,107,0,0,,0,,,72,127
61880,note_on,2,0,0,,8,,,68,127
61987,note_off,107,0,0,,8,,,68,127
61989,note_on,2,0,0,,10,,,69,127
62096,note_off,107,0,0,,10,,,69,127
62097,note_off,1,0,0,,6,,,54,127
62098,note_on,1,0,0,,12,,,71,127
62205,note_off,107,0,0,,12,,,71,127
62207,note_on,2,0,0,,1,,,73,127
62314,note_off,107,0,0,,1,,,73,127
62316,note_on,2,0,0,,6,,,54,127
62316,note_on,0,0,0,,3,,,75,127
62423,note_off,107,0,0,,3,,,75,127
62425,note_on,2,0,0,,4,,,76,127
62532,note_off,107,0,0,,4,,,76,127
62534,note_on,2,0,0,,6,,,42,127
62534,note_on,0,0,0,,6,,,78,127
62641,note_off,107,0,0,,6,,,78,127
62643,note_on,2,0,0,,7,,,79,127
62748,note_off,105,0,0,,6,,,54,127
62750,note_off,2,0,0,,7,,,79,127
62752,note_on,2,0,0,,6,,,54,127
62752,note_on,0,0,0,,10,,,81,127
62859,note_off,107,0,0,,10,,,81,127
62861,note_off,2,0,0,,6,,,42,127
62861,note_on,0,0,0,,6,,,78,127
62968,note_off,107,0,0,,6,,,78,127
62968,note_off,0,0,0,,6,,,54,127
62970,note_on,2,0,0,,4,,,40,127
62970,note_on,0,0,0,,7,,,79,127
63077,note_off,107,0,0,,4,,,40,127
63079,note_on,2,0,0,,4,,,52,127
63186,note_off,107,0,0,,4,,,52,127
63188,note_on,2,0,0,,7,,,55,127
63295,note_off,107,0,0,,7,,,55,127
63295,note_off,0,0,0,,7,,,79,127
63297,note_on,2,0,0,,4,,,52,127
63297,note_on,0,0,0,,12,,,83,127
63297,note_on,0,0,0,,12,,,71,127
63404,note_off,107,0,0,,12,,,71,127
63404,note_off,0,0,0,,12,,,83,127
63404,note_off,0,0,0,,4,,,52,127
63406,note_on,2,0,0,,12,,,47,127
63406,note_on,0,0,0,,12,,,83,127
63406,note_on,0,0,0,,12,,,71,127
63513,note_off,107,0,0,,12,,,47,127
63515,note_on,2,0,0,,12,,,59,127
63622,note_off,107,0,0,,12,,,59,127
63622,note_off,0,0,0,,12,,,71,127
63622,note_off,0,0,0,,12,,,83,127
63624,note_on,2,0,0,,3,,,63,127
63624,note_on,0,0,0,,6,,,78,127
63731,note_off,107,0,0,,6,,,78,127
63731,note_off,0,0,0,,3,,,63,127
63733,note_on,2,0,0,,12,,,59,127
63733,note_on,0,0,0,,12,,,83,127
63840,note_off,107,0,0,,12,,,83,127
63840,note_off,0,0,0,,12,,,59,127
63842,note_on,2,0,0,,4,,,40,127
63842,note_on,0,0,0,,12,,,83,127
63842,note_on,0,0,0,,12,,,71,127
63949,note_off,107,0,0,,4,,,40,127
63951,note_on,2,0,0,,4,,,52,127
64058,note_off,107,0,0,,4,,,52,127
64058,note_off,0,0,0,,12,,,71,127
64058,note_off,0,0,0,,12,,,83,127
64060,note_on,2,0,0,,7,,,55,127
64060,note_on,0,0,0,,7,,,79,127
64167,note_off,107,0,0,,7,,,79,127
64167,note_off,0,0,0,,7,,,55,127
64169,note_on,2,0,0,,4,,,52,127
64169,note_on,0,0,0,,12,,,83,127
64276,note_off,107,0,0,,12,,,83,127
64276,note_off,0,0,0,,4,,,52,127
64278,note_on,2,0,0,,12,,,47,127
64278,note_on,0,0,0,,12,,,83,127
64278,note_on,0,0,0,,12,,,71,127
64385,note_off,107,0,0,,12,,,47,127
64387,note_on,2,0,0,,12,,,59,127
64494,note_off,107,0,0,,12,,,59,127
64494,note_off,0,0,0,,12,,,71,127
64494,note_off,0,0,0,,12,,,83,127
64496,note_on,2,0,0,,3,,,63,127
64496,note_on,0,0,0,,6,,,78,127
64603,note_off,107,0,0,,6,,,78,127
64603,note_off,0,0,0,,3,,,63,127
64605,note_on,2,0,0,,12,,,59,127
64605,note_on,0,0,0,,12,,,83,127
64712,note_off,107,0,0,,12,,,83,127
64712,note_off,0,0,0,,12,,,59,127
64714,note_on,2,0,0,,4,,,40,127
64714,note_on,0,0,0,,12,,,83,127
64714,note_on,0,0,0,,12,,,71,127
64821,note_off,107,0,0,,4,,,40,127
64823,note_on,2,0,0,,4,,,52,127
64930,note_off,107,0,0,,4,,,52,127
64930,note_off,0,0,0,,12,,,83,127
64932,note_on,2,0,0,,7,,,55,127
64932,note_on,0,0,0,,7,,,79,127
65039,note_off,107,0,0,,7,,,79,127
65039,note_off,0,0,0,,7,,,55,127
65041,note_off,2,0,0,,12,,,71,127
65041,note_on,0,0,0,,4,,,52,127
65041,note_on,0,0,0,,12,,,83,127
65148,note_off,107,0,0,,12,,,83,127
65148,note_off,0,0,0,,4,,,52,127
65150,note_on,2,0,0,,2,,,38,127
65150,note_on,0,0,0,,12,,,83,127
65150,note_on,0,0,0,,12,,,71,127
65257,note_off,107,0,0,,2,,,38,127
65259,note_on,2,0,0,,2,,,50,127
65366,note_off,107,0,0,,2,,,50,127
65366,note_off,0,0,0,,12,,,83,127
65368,note_on,2,0,0,,5,,,53,127
65368,note_on,0,0,0,,5,,,77,127
65475,note_off,107,0,0,,5,,,77,127
65475,note_off,0,0,0,,5,,,53,127
65477,note_off,2,0,0,,12,,,71,127
65477,note_on,0,0,0,,2,,,50,127
65477,note_on,0,0,0,,12,,,83,127
65584,note_off,107,0,0,,12,,,83,127
65584,note_off,0,0,0,,2,,,50,127
65586,note_on,2,0,0,,0,,,36,127
65586,note_on,0,0,0,,0,,,72,127
65586,note_on,0,0,0,,0,,,84,127
65693,note_off,107,0,0,,0,,,36,127
65695,note_on,2,0,0,,0,,,48,127
65802,note_off,107,0,0,,0,,,48,127
65802,note_off,0,0,0,,0,,,84,127
65804,note_on,2,0,0,,4,,,52,127
65804,note_on,0,0,0,,7,,,79,127
65911,note_off,107,0,0,,7,,,79,127
65911,note_off,0,0,0,,4,,,52,127
65913,note_on,2,0,0,,0,,,48,127
65913,note_on,0,0,0,,0,,,84,127
66018,note_off,105,0,0,,0,,,72,127
66020,note_off,2,0,0,,0,,,84,127
66020,note_off,0,0,0,,0,,,48,127
66022,note_on,2,0,0,,0,,,36,127
66022,note_on,0,0,0,,0,,,84,127
66022,note_on,0,0,0,,0,,,72,127
66129,note_off,107,0,0,,0,,,36,127
66131,note_on,2,0,0,,0,,,48,127
66238,note_off,107,0,0,,0,,,48,127
66238,note_off,0,0,0,,0,,,84,127
66240,note_on,2,0,0,,4,,,52,127
66240,note_on,0,0,0,,7,,,79,127
66347,note_off,107,0,0,,7,,,79,127
66347,note_off,0,0,0,,4,,,52,127
66349,note_on,2,0,0,,0,,,48,127
66349,note_on,0,0,0,,0,,,84,127
66454,note_off,105,0,0,,0,,,72,127
66456,note_off,2,0,0,,0,,,84,127
66456,note_off,0,0,0,,0,,,48,127
66458,note_on,2,0,0,,2,,,38,127
66458,note_on,0,0,0,,0,,,84,127
66458,note_on,0,0,0,,0,,,72,127
66565,note_off,107,0,0,,2,,,38,127
66567,note_on,2,0,0,,2,,,50,127
66674,note_off,107,0,0,,2,,,50,127
66674,note_off,0,0,0,,0,,,84,127
66676,note_on,2,0,0,,6,,,54,127
66676,note_on,0,0,0,,6,,,78,127
66783,note_off,107,0,0,,6,,,78,127
66783,note_off,0,0,0,,6,,,54,127
66785,note_on,2,0,0,,2,,,50,127
66785,note_on,0,0,0,,0,,,84,127
66890,note_off,105,0,0,,0,,,72,127
66892,note_off,2,0,0,,0,,,84,127
66892,note_off,0,0,0,,2,,,50,127
66894,note_on,2,0,0,,7,,,43,127
66894,note_on,0,0,0,,12,,,71,127
66894,note_on,0,0,0,,12,,,83,127
67001,note_off,107,0,0,,7,,,43,127
67003,note_on,2,0,0,,7,,,55,127
67110,note_off,107,0,0,,7,,,55,127
67110,note_off,0,0,0,,12,,,83,127
67112,note_on,2,0,0,,12,,,59,127
67112,note_on,0,0,0,,7,,,79,127
67219,note_off,107,0,0,,7,,,79,127
67219,note_off,0,0,0,,12,,,59,127
67221,note_off,2,0,0,,12,,,71,127
67221,note_on,0,0,0,,7,,,55,127
67221,note_on,0,0,0,,12,,,83,127
67328,note_off,107,0,0,,12,,,83,127
67328,note_off,0,0,0,,7,,,55,127
67330,note_on,2,0,0,,0,,,36,127
67330,note_on,0,0,0,,0,,,72,127
67330,note_on,0,0,0,,12,,,83,127
67437,note_off,107,0,0,,0,,,36,127
67439,note_on,2,0,0,,0,,,48,127
67546,note_off,107,0,0,,0,,,48,127
67546,note_off,0,0,0,,12,,,83,127
67548,note_on,2,0,0,,4,,,52,127
67548,note_on,0,0,0,,4,,,76,127
67655,note_off,107,0,0,,4,,,76,127
67655,note_off,0,0,0,,4,,,52,127
67657,note_off,2,0,0,,0,,,72,127
67657,note_on,0,0,0,,0,,,48,127
67657,note_on,0,0,0,,12,,,83,127
67764,note_off,107,0,0,,12,,,83,127
67764,note_off,0,0,0,,0,,,48,127
67766,note_on,2,0,0,,4,,,40,127
67766,note_on,0,0,0,,12,,,83,127
67766,note_on,0,0,0,,12,,,71,127
67873,note_off,107,0,0,,4,,,40,127
67875,note_on,2,0,0,,4,,,52,127
67982,note_off,107,0,0,,4,,,52,127
67982,note_off,0,0,0,,12,,,71,127
67982,note_off,0,0,0,,12,,,83,127
67984,note_on,2,0,0,,7,,,55,127
67984,note_on,0,0,0,,10,,,81,127
67984,note_on,0,0,0,,1,,,73,127
68091,note_off,107,0,0,,10,,,81,127
68091,note_off,0,0,0,,7,,,55,127
68093,note_on,2,0,0,,4,,,52,127
68093,note_on,0,0,0,,7,,,79,127
68200,note_off,107,0,0,,7,,,79,127
68200,note_off,0,0,0,,4,,,52,127
68200,note_off,0,0,0,,1,,,73,127
68202,note_on,2,0,0,,2,,,38,127
68202,note_on,0,0,0,,6,,,78,127
68309,note_off,107,0,0,,2,,,38,127
68311,note_on,2,0,0,,2,,,50,127
68418,note_off,107,0,0,,2,,,50,127
68420,note_on,2,0,0,,6,,,54,127
68527,note_off,107,0,0,,6,,,54,127
68527,note_off,0,0,0,,6,,,78,127
68529,note_on,2,0,0,,2,,,50,127
68529,note_on,0,0,0,,2,,,74,127
68636,note_off,107,0,0,,2,,,74,127
68636,note_off,0,0,0,,2,,,50,127
68638,note_on,2,0,0,,2,,,38,127
68638,note_on,0,0,0,,4,,,76,127
68675,note_on,37,0,0,,2,,,74,127
68692,note_off,17,0,0,,4,,,76,127
68711,note_on,19,0,0,,4,,,76,127
68728,note_off,17,0,0,,2,,,74,127
68745,note_off,17,0,0,,2,,,38,127
68747,note_on,2,0,0,,2,,,50,127
68747,note_on,0,0,0,,2,,,74,127
68764,note_off,17,0,0,,4,,,76,127
68783,note_on,19,0,0,,0,,,72,127
68800,note_off,17,0,0,,2,,,74,127
68819,note_on,19,0,0,,2,,,74,127
68836,note_off,17,0,0,,0,,,72,127
68853,note_off,17,0,0,,2,,,50,127
68855,note_on,2,0,0,,6,,,54,127
68855,note_on,0,0,0,,10,,,69,127
68872,note_off,17,0,0,,2,,,74,127
68962,note_off,90,0,0,,10,,,69,127
68962,note_off,0,0,0,,6,,,54,127
68964,note_on,2,0,0,,2,,,50,127
68964,note_on,0,0,0,,2,,,74,127
69071,note_off,107,0,0,,2,,,74,127
69071,note_off,0,0,0,,2,,,50,127
69073,note_on,2,0,0,,7,,,43,127
69073,note_on,0,0,0,,4,,,76,127
69110,note_on,37,0,0,,2,,,74,127
69127,note_off,17,0,0,,4,,,76,127
69146,note_on,19,0,0,,4,,,76,127
69163,note_off,17,0,0,,2,,,74,127
69180,note_off,17,0,0,,7,,,43,127
69182,note_on,2,0,0,,7,,,55,127
69182,note_on,0,0,0,,2,,,74,127
69199,note_off,17,0,0,,4,,,76,127
69218,note_on,19,0,0,,0,,,72,127
69235,note_off,17,0,0,,2,,,74,127
69254,note_on,19,0,0,,2,,,74,127
69271,note_off,17,0,0,,0,,,72,127
69288,note_off,17,0,0,,7,,,55,127
69290,note_on,2,0,0,,12,,,59,127
69290,note_on,0,0,0,,12,,,71,127
69307,note_off,17,0,0,,2,,,74,127
69397,note_off,90,0,0,,12,,,71,127
69397,note_off,0,0,0,,12,,,59,127
69399,note_on,2,0,0,,7,,,55,127
69399,note_on,0,0,0,,2,,,74,127
69506,note_off,107,0,0,,2,,,74,127
69506,note_off,0,0,0,,7,,,55,127
69508,note_on,2,0,0,,2,,,38,127
69508,note_on,0,0,0,,4,,,76,127
69545,note_on,37,0,0,,2,,,74,127
69562,note_off,17,0,0,,4,,,76,127
69581,note_on,19,0,0,,4,,,76,127
69598,note_off,17,0,0,,2,,,74,127
69615,note_off,17,0,0,,2,,,38,127
69617,note_on,2,0,0,,2,,,50,127
69617,note_on,0,0,0,,2,,,74,127
69634,note_off,17,0,0,,4,,,76,127
69653,note_on,19,0,0,,0,,,72,127
69670,note_off,17,0,0,,2,,,74,127
69689,note_on,19,0,0,,2,,,74,127
69706,note_off,17,0,0,,0,,,72,127
69723,note_off,17,0,0,,2,,,50,127
69725,note_on,2,0,0,,6,,,54,127
69725,note_on,0,0,0,,10,,,69,127
69742,note_off,17,0,0,,2,,,74,127
69832,note_off,90,0,0,,10,,,69,127
69832,note_off,0,0,0,,6,,,54,127
69834,note_on,2,0,0,,2,,,50,127
69834,note_on,0,0,0,,2,,,74,127
69941,note_off,107,0,0,,2,,,74,127
69941,note_off,0,0,0,,2,,,50,127
69943,note_on,2,0,0,,7,,,43,127
69943,note_on,0,0,0,,4,,,76,127
69980,note_on,37,0,0,,2,,,74,127
69997,note_off,17,0,0,,4,,,76,127
70016,note_on,19,0,0,,4,,,76,127
70033,note_off,17,0,0,,2,,,74,127
70050,note_off,17,0,0,,7,,,43,127
70052,note_on,2,0,0,,7,,,55,127
70052,note_on,0,0,0,,2,,,74,127
70069,note_off,17,0,0,,4,,,76,127
70088,note_on,19,0,0,,0,,,72,127
70105,note_off,17,0,0,,2,,,74,127
70124,note_on,19,0,0,,2,,,74,127
70141,note_off,17,0,0,,0,,,72,127
70158,note_off,17,0,0,,7,,,55,127
70160,note_on,2,0,0,,12,,,59,127
70160,note_on,0,0,0,,12,,,71,127
70177,note_off,17,0,0,,2,,,74,127
70267,note_off,90,0,0,,12,,,71,127
70267,note_off,0,0,0,,12,,,59,127
70269,note_on,2,0,0,,7,,,55,127
70269,note_on,0,0,0,,2,,,74,127
70376,note_off,107,0,0,,2,,,74,127
70376,note_off,0,0,0,,7,,,55,127
70378,note_on,2,0,0,,2,,,38,127
70378,note_on,0,0,0,,4,,,76,127
70415,note_on,37,0,0,,2,,,74,127
70432,note_off,17,0,0,,4,,,76,127
70451,note_on,19,0,0,,4,,,76,127
70468,note_off,17,0,0,,2,,,74,127
70485,note_off,17,0,0,,2,,,38,127
70487,note_on,2,0,0,,2,,,50,127
70487,note_on,0,0,0,,2,,,74,127
70504,note_off,17,0,0,,4,,,76,127
70523,note_on,19,0,0,,0,,,72,127
70540,note_off,17,0,0,,2,,,74,127
70559,note_on,19,0,0,,2,,,74,127
70576,note_off,17,0,0,,0,,,72,127
70593,note_off,17,0,0,,2,,,50,127
70595,note_on,2,0,0,,6,,,54,127
70595,note_on,0,0,0,,10,,,69,127
70612,note_off,17,0,0,,2,,,74,127
70702,note_off,90,0,0,,10,,,69,127
70702,note_off,0,0,0,,6,,,54,127
70704,note_on,2,0,0,,2,,,50,127
70704,note_on,0,0,0,,2,,,74,127
70811,note_off,107,0,0,,2,,,74,127
70811,note_off,0,0,0,,2,,,50,127
70813,note_on,2,0,0,,7,,,43,127
70813,note_on,0,0,0,,2,,,74,127
70920,note_off,107,0,0,,2,,,74,127
70922,note_on,2,0,0,,12,,,71,127
71029,note_off,107,0,0,,12,,,71,127
71029,note_off,0,0,0,,7,,,43,127
71031,note_on,2,0,0,,0,,,48,127
71031,note_on,0,0,0,,0,,,72,127
71031,note_on,0,0,0,,4,,,76,127
71138,note_off,107,0,0,,4,,,76,127
71138,note_off,0,0,0,,0,,,72,127
71140,note_on,2,0,0,,10,,,69,127
71247,note_off,107,0,0,,10,,,69,127
71247,note_off,0,0,0,,0,,,48,127
71249,note_on,2,0,0,,2,,,50,127
71249,note_on,0,0,0,,2,,,74,127
71249,note_on,0,0,0,,12,,,71,127
71356,note_off,107,0,0,,12,,,71,127
71356,note_off,0,0,0,,2,,,74,127
71358,note_on,2,0,0,,7,,,67,127
71465,note_off,107,0,0,,7,,,67,127
71465,note_off,0,0,0,,2,,,50,127
71467,note_on,2,0,0,,2,,,38,127
71467,note_on,0,0,0,,0,,,72,127
71467,note_on,0,0,0,,10,,,69,127
71574,note_off,107,0,0,,10,,,69,127
71574,note_off,0,0,0,,0,,,72,127
71576,note_on,2,0,0,,6,,,66,127
71683,note_off,107,0,0,,6,,,66,127
71683,note_off,0,0,0,,2,,,38,127
71685,note_on,2,0,0,,7,,,43,127
71685,note_on,0,0,0,,7,,,67,127
71685,note_on,0,0,0,,12,,,71,127
71792,note_off,107,0,0,,7,,,43,127
71794,note_on,2,0,0,,7,,,55,127
71901,note_off,107,0,0,,7,,,55,127
71903,note_on,2,0,0,,12,,,59,127
72010,note_off,107,0,0,,12,,,59,127
72010,note_off,0,0,0,,12,,,71,127
72010,note_off,0,0,0,,7,,,67,127
72012,note_on,2,0,0,,7,,,55,127
72012,note_on,0,0,0,,2,,,86,127
72119,note_off,107,0,0,,2,,,86,127
72119,note_off,0,0,0,,7,,,55,127
72121,note_on,2,0,0,,2,,,50,127
72121,note_on,0,0,0,,2,,,86,127
72121,note_on,0,0,0,,2,,,74,127
72228,note_off,107,0,0,,2,,,50,127
72230,note_on,2,0,0,,2,,,62,127
72337,note_off,107,0,0,,2,,,62,127
72337,note_off,0,0,0,,2,,,74,127
72337,note_off,0,0,0,,2,,,86,127
72339,note_on,2,0,0,,6,,,66,127
72339,note_on,0,0,0,,10,,,81,127
72446,note_off,107,0,0,,10,,,81,127
72446,note_off,0,0,0,,6,,,66,127
72448,note_on,2,0,0,,2,,,62,127
72448,note_on,0,0,0,,2,,,86,127
72555,note_off,107,0,0,,2,,,86,127
72555,note_off,0,0,0,,2,,,62,127
72557,note_on,2,0,0,,7,,,43,127
72557,note_on,0,0,0,,2,,,86,127
72557,note_on,0,0,0,,2,,,74,127
72664,note_off,107,0,0,,7,,,43,127
72666,note_on,2,0,0,,7,,,55,127
72773,note_off,107,0,0,,7,,,55,127
72773,note_off,0,0,0,,2,,,74,127
72773,note_off,0,0,0,,2,,,86,127
72775,note_on,2,0,0,,12,,,59,127
72775,note_on,0,0,0,,12,,,83,127
72882,note_off,107,0,0,,12,,,83,127
72882,note_off,0,0,0,,12,,,59,127
72884,note_on,2,0,0,,7,,,55,127
72884,note_on,0,0,0,,2,,,86,127
72991,note_off,107,0,0,,2,,,86,127
72991,note_off,0,0,0,,7,,,55,127
72993,note_on,2,0,0,,2,,,38,127
72993,note_on,0,0,0,,2,,,74,127
72993,note_on,0,0,0,,2,,,86,127
73100,note_off,107,0,0,,2,,,38,127
73102,note_on,2,0,0,,2,,,50,127
73209,note_off,107,0,0,,2,,,50,127
73209,note_off,0,0,0,,2,,,86,127
73209,note_off,0,0,0,,2,,,74,127
73211,note_on,2,0,0,,6,,,54,127
73211,note_on,0,0,0,,10,,,81,127
73318,note_off,107,0,0,,10,,,81,127
73318,note_off,0,0,0,,6,,,54,127
73320,note_on,2,0,0,,2,,,50,127
73320,note_on,0,0,0,,2,,,86,127
73427,note_off,107,0,0,,2,,,86,127
73427,note_off,0,0,0,,2,,,50,127
73429,note_on,2,0,0,,7,,,43,127
73429,note_on,0,0,0,,2,,,74,127
73429,note_on,0,0,0,,2,,,86,127
73536,note_off,107,0,0,,7,,,43,127
73538,note_on,2,0,0,,7,,,55,127
73645,note_off,107,0,0,,7,,,55,127
73645,note_off,0,0,0,,2,,,86,127
73645,note_off,0,0,0,,2,,,74,127
73647,note_on,2,0,0,,12,,,59,127
73647,note_on,0,0,0,,12,,,83,127
73754,note_off,107,0,0,,12,,,83,127
73754,note_off,0,0,0,,12,,,59,127
73756,note_on,2,0,0,,7,,,55,127
73756,note_on,0,0,0,,2,,,86,127
73863,note_off,107,0,0,,2,,,86,127
73863,note_off,0,0,0,,7,,,55,127
73865,note_on,2,0,0,,2,,,38,127
73865,note_on,0,0,0,,2,,,86,127
73865,note_on,0,0,0,,2,,,74,127
73972,note_off,107,0,0,,2,,,38,127
73974,note_on,2,0,0,,2,,,50,127
74081,note_off,107,0,0,,2,,,50,127
74081,note_off,0,0,0,,2,,,74,127
74081,note_off,0,0,0,,2,,,86,127
74083,note_on,2,0,0,,6,,,54,127
74083,note_on,0,0,0,,10,,,81,127
74190,note_off,107,0,0,,10,,,81,127
74190,note_off,0,0,0,,6,,,54,127
74192,note_on,2,0,0,,2,,,50,127
74192,note_on,0,0,0,,2,,,86,127
74299,note_off,107,0,0,,2,,,86,127
74299,note_off,0,0,0,,2,,,50,127
74301,note_on,2,0,0,,7,,,43,127
74301,note_on,0,0,0,,2,,,86,127
74301,note_on,0,0,0,,2,,,74,127
74408,note_off,107,0,0,,2,,,74,127
74408,note_off,0,0,0,,2,,,86,127
74410,note_on,2,0,0,,12,,,83,127
74517,note_off,107,0,0,,12,,,83,127
74517,note_off,0,0,0,,7,,,43,127
74519,note_on,2,0,0,,0,,,48,127
74519,note_on,0,0,0,,0,,,84,127
74519,note_on,0,0,0,,4,,,76,127
74626,note_off,107,0,0,,4,,,76,127
74626,note_off,0,0,0,,0,,,84,127
74628,note_on,2,0,0,,10,,,81,127
74735,note_off,107,0,0,,10,,,81,127
74735,note_off,0,0,0,,0,,,48,127
74737,note_on,2,0,0,,2,,,50,127
74737,note_on,0,0,0,,12,,,83,127
74737,note_on,0,0,0,,2,,,74,127
74844,note_off,107,0,0,,2,,,74,127
74844,note_off,0,0,0,,12,,,83,127
74846,note_on,2,0,0,,7,,,79,127
74953,note_off,107,0,0,,7,,,79,127
74955,note_on,2,0,0,,2,,,38,127
74955,note_on,0,0,0,,0,,,72,127
74955,note_on,0,0,0,,10,,,81,127
75062,note_off,107,0,0,,10,,,81,127
75062,note_off,0,0,0,,0,,,72,127
75064,note_on,2,0,0,,6,,,78,127
75169,note_off,105,0,0,,2,,,50,127
75171,note_off,2,0,0,,6,,,78,127
75171,note_off,0,0,0,,2,,,38,127
75173,note_on,2,0,0,,7,,,43,127
75173,note_on,0,0,0,,12,,,71,127
75173,note_on,0,0,0,,7,,,79,127
75280,note_off,107,0,0,,7,,,79,127
75282,note_on,2,0,0,,2,,,74,127
75389,note_off,107,0,0,,2,,,74,127
75389,note_off,0,0,0,,12,,,71,127
75389,note_off,0,0,0,,7,,,43,127
75391,note_on,2,0,0,,0,,,48,127
75391,note_on,0,0,0,,4,,,76,127
75498,note_off,107,0,0,,4,,,76,127
75500,note_on,2,0,0,,0,,,72,127
75500,note_on,0,0,0,,10,,,69,127
75607,note_off,107,0,0,,0,,,72,127
75607,note_off,0,0,0,,0,,,48,127
75609,note_on,2,0,0,,2,,,50,127
75609,note_on,0,0,0,,2,,,74,127
75716,note_off,107,0,0,,2,,,74,127
75716,note_off,0,0,0,,10,,,69,127
75718,note_on,2,0,0,,7,,,67,127
75718,note_on,0,0,0,,12,,,71,127
75825,note_off,107,0,0,,12,,,71,127
75827,note_on,2,0,0,,2,,,38,127
75827,note_on,0,0,0,,0,,,72,127
75934,note_off,107,0,0,,0,,,72,127
75934,note_off,0,0,0,,7,,,67,127
75936,note_on,2,0,0,,10,,,69,127
75936,note_on,0,0,0,,6,,,66,127
76041,note_off,105,0,0,,2,,,50,127
76043,note_off,2,0,0,,6,,,66,127
76043,note_off,0,0,0,,10,,,69,127
76043,note_off,0,0,0,,2,,,38,127
76045,note_on,2,0,0,,7,,,43,127
76045,note_on,0,0,0,,7,,,67,127
76045,note_on,0,0,0,,12,,,71,127
76152,note_off,107,0,0,,7,,,67,127
76157,note_on,5,0,0,,2,,,62,127
76262,note_off,105,0,0,,7,,,43,127
76269,note_off,7,0,0,,2,,,62,127
76274,note_on,5,0,0,,0,,,48,127
76274,note_on,0,0,0,,0,,,60,127
76274,note_on,0,0,0,,4,,,64,127
76365,note_off,91,0,0,,12,,,71,127
76391,note_on,26,0,0,,10,,,69,127
76502,note_off,111,0,0,,4,,,64,127
76502,note_off,0,0,0,,0,,,60,127
76502,note_off,0,0,0,,0,,,48,127
76509,note_on,7,0,0,,12,,,59,127
76509,note_on,0,0,0,,2,,,50,127
76509,note_on,0,0,0,,2,,,62,127
76620,note_off,111,0,0,,10,,,69,127
76627,note_on,7,0,0,,7,,,67,127
76738,note_off,111,0,0,,2,,,62,127
76738,note_off,0,0,0,,12,,,59,127
76745,note_on,7,0,0,,2,,,38,127
76745,note_on,0,0,0,,0,,,60,127
76745,note_on,0,0,0,,10,,,57,127
76856,note_off,111,0,0,,7,,,67,127
76863,note_on,7,0,0,,6,,,66,127
76969,note_off,106,0,0,,2,,,50,127
76974,note_off,5,0,0,,10,,,57,127
76974,note_off,0,0,0,,0,,,60,127
76974,note_off,0,0,0,,2,,,38,127
76991,note_off,17,0,0,,6,,,66,127
76997,note_on,6,0,0,,7,,,43,127
76997,note_on,0,0,0,,2,,,62,127
76997,note_on,0,0,0,,12,,,59,127
76997,note_on,0,0,0,,7,,,67,127
78915,note_off,1918,0,0,,7,,,67,127
78915,note_off,0,0,0,,12,,,59,127
78915,note_off,0,0,0,,2,,,62,127
78915,note_off,0,0,0,,7,,,43,127
79872,end_of_track,957,1,0,,,,,,
