tick,type,time,meta,track,program,channel,pitch,tempo,note,velocity
0,copyright,0,1,0,,,,,,
0,program_change,0,0,0,6,0,,,,
0,pitchwheel,0,0,0,,0,0,,,
0,program_change,0,0,0,6,1,,,,
0,pitchwheel,0,0,0,,1,-590,,,
0,program_change,0,0,0,6,2,,,,
0,pitchwheel,0,0,0,,2,-272,,,
0,program_change,0,0,0,6,3,,,,
0,pitchwheel,0,0,0,,3,-353,,,
0,program_change,0,0,0,6,4,,,,
0,pitchwheel,0,0,0,,4,-560,,,
0,program_change,0,0,0,6,5,,,,
0,pitchwheel,0,0,0,,5,-80,,,
0,program_change,0,0,0,6,6,,,,
0,pitchwheel,0,0,0,,6,-625,,,
0,program_change,0,0,0,6,7,,,,
0,pitchwheel,0,0,0,,7,-130,,,
0,program_change,0,0,0,6,8,,,,
0,pitchwheel,0,0,0,,8,-512,,,
0,program_change,0,0,0,6,10,,,,
0,pitchwheel,0,0,0,,10,-464,,,
0,program_change,0,0,0,6,11,,,,
0,pitchwheel,0,0,0,,11,-208,,,
0,program_change,0,0,0,6,12,,,,
0,pitchwheel,0,0,0,,12,-553,,,
0,set_tempo,0,1,0,,,,500000,,
115,note_on,115,0,0,,7,,,55,127
115,note_on,0,0,0,,12,,,71,127
115,note_on,0,0,0,,7,,,79,127
173,note_on,58,0,0,,10,,,81,127
191,note_off,18,0,0,,7,,,79,127
231,note_on,40,0,0,,12,,,83,127
249,note_off,18,0,0,,10,,,81,127
289,note_on,40,0,0,,10,,,81,127
307,note_off,18,0,0,,12,,,83,127
347,note_on,40,0,0,,7,,,79,127
365,note_off,18,0,0,,10,,,81,127
576,note_off,211,0,0,,7,,,55,127
577,note_on,1,0,0,,7,,,67,127
806,note_off,229,0,0,,7,,,67,127
806,note_off,0,0,0,,7,,,79,127
806,note_off,0,0,0,,12,,,71,127
807,note_on,1,0,0,,0,,,72,127
807,note_on,0,0,0,,4,,,76,127
1036,note_off,229,0,0,,4,,,76,127
1036,note_off,0,0,0,,0,,,72,127
1037,note_on,1,0,0,,12,,,71,127
1037,note_on,0,0,0,,2,,,74,127
1266,note_off,229,0,0,,2,,,74,127
1266,note_off,0,0,0,,12,,,71,127
1267,note_on,1,0,0,,10,,,69,127
1267,note_on,0,0,0,,0,,,72,127
1496,note_off,229,0,0,,0,,,72,127
1496,note_off,0,0,0,,10,,,69,127
1497,note_on,1,0,0,,7,,,67,127
1497,note_on,0,0,0,,7,,,79,127
1497,note_on,0,0,0,,12,,,71,127
1555,note_on,58,0,0,,0,,,72,127
1573,note_off,18,0,0,,12,,,71,127
1613,note_on,40,0,0,,2,,,74,127
1631,note_off,18,0,0,,0,,,72,127
1671,note_on,40,0,0,,0,,,72,127
1689,note_off,18,0,0,,2,,,74,127
1729,note_on,40,0,0,,12,,,71,127
1747,note_off,18,0,0,,0,,,72,127
1959,note_on,212,0,0,,7,,,55,127
2188,note_off,229,0,0,,7,,,55,127
2188,note_off,0,0,0,,12,,,71,127
2188,note_off,0,0,0,,7,,,79,127
2188,note_off,0,0,0,,7,,,67,127
2189,note_on,1,0,0,,0,,,60,127
2189,note_on,0,0,0,,10,,,81,127
2189,note_on,0,0,0,,0,,,72,127
2418,note_off,229,0,0,,0,,,72,127
2418,note_off,0,0,0,,10,,,81,127
2418,note_off,0,0,0,,0,,,60,127
2419,note_on,1,0,0,,2,,,62,127
2419,note_on,0,0,0,,12,,,71,127
2419,note_on,0,0,0,,7,,,79,127
2648,note_off,229,0,0,,7,,,79,127
2648,note_off,0,0,0,,12,,,71,127
2648,note_off,0,0,0,,2,,,62,127
2649,note_on,1,0,0,,2,,,50,127
2649,note_on,0,0,0,,10,,,69,127
2649,note_on,0,0,0,,6,,,78,127
2878,note_off,229,0,0,,6,,,78,127
2878,note_off,0,0,0,,10,,,69,127
2878,note_off,0,0,0,,2,,,50,127
2879,note_on,1,0,0,,7,,,55,127
2879,note_on,0,0,0,,7,,,79,127
2879,note_on,0,0,0,,12,,,71,127
2937,note_on,58,0,0,,10,,,81,127
2955,note_off,18,0,0,,7,,,79,127
2995,note_on,40,0,0,,12,,,83,127
3013,note_off,18,0,0,,10,,,81,127
3053,note_on,40,0,0,,10,,,81,127
3071,note_off,18,0,0,,12,,,83,127
3111,note_on,40,0,0,,7,,,79,127
3129,note_off,18,0,0,,10,,,81,127
3340,note_off,211,0,0,,7,,,55,127
3341,note_on,1,0,0,,7,,,67,127
3570,note_off,229,0,0,,7,,,67,127
3570,note_off,0,0,0,,7,,,79,127
3570,note_off,0,0,0,,12,,,71,127
3571,note_on,1,0,0,,0,,,72,127
3571,note_on,0,0,0,,4,,,76,127
3800,note_off,229,0,0,,4,,,76,127
3800,note_off,0,0,0,,0,,,72,127
3801,note_on,1,0,0,,12,,,71,127
3801,note_on,0,0,0,,2,,,74,127
4030,note_off,229,0,0,,2,,,74,127
4030,note_off,0,0,0,,12,,,71,127
4031,note_on,1,0,0,,10,,,69,127
4031,note_on,0,0,0,,0,,,72,127
4260,note_off,229,0,0,,0,,,72,127
4260,note_off,0,0,0,,10,,,69,127
4261,note_on,1,0,0,,7,,,67,127
4261,note_on,0,0,0,,7,,,79,127
4261,note_on,0,0,0,,12,,,71,127
4319,note_on,58,0,0,,0,,,72,127
4337,note_off,18,0,0,,12,,,71,127
4377,note_on,40,0,0,,2,,,74,127
4395,note_off,18,0,0,,0,,,72,127
4435,note_on,40,0,0,,0,,,72,127
4453,note_off,18,0,0,,2,,,74,127
4493,note_on,40,0,0,,12,,,71,127
4511,note_off,18,0,0,,0,,,72,127
4723,note_on,212,0,0,,7,,,55,127
4952,note_off,229,0,0,,7,,,55,127
4952,note_off,0,0,0,,12,,,71,127
4952,note_off,0,0,0,,7,,,79,127
4952,note_off,0,0,0,,7,,,67,127
4953,note_on,1,0,0,,0,,,60,127
4953,note_on,0,0,0,,0,,,72,127
4953,note_on,0,0,0,,10,,,69,127
5182,note_off,229,0,0,,10,,,69,127
5182,note_off,0,0,0,,0,,,72,127
5182,note_off,0,0,0,,0,,,60,127
5183,note_on,1,0,0,,2,,,62,127
5183,note_on,0,0,0,,12,,,71,127
5183,note_on,0,0,0,,7,,,67,127
5412,note_off,229,0,0,,7,,,67,127
5412,note_off,0,0,0,,12,,,71,127
5413,note_on,1,0,0,,2,,,50,127
5413,note_on,0,0,0,,10,,,69,127
5413,note_on,0,0,0,,6,,,66,127
5639,note_off,226,0,0,,2,,,62,127
5643,note_off,4,0,0,,6,,,66,127
5643,note_off,0,0,0,,10,,,69,127
5643,note_off,0,0,0,,2,,,50,127
5644,note_on,1,0,0,,7,,,55,127
5644,note_on,0,0,0,,7,,,67,127
5702,note_on,58,0,0,,10,,,69,127
5720,note_off,18,0,0,,7,,,67,127
5760,note_on,40,0,0,,12,,,71,127
5778,note_off,18,0,0,,10,,,69,127
5818,note_on,40,0,0,,10,,,69,127
5836,note_off,18,0,0,,12,,,71,127
5876,note_on,40,0,0,,7,,,67,127
5894,note_off,18,0,0,,10,,,69,127
6106,note_on,212,0,0,,7,,,43,127
6335,note_off,229,0,0,,7,,,67,127
6335,note_off,0,0,0,,7,,,55,127
6336,note_on,1,0,0,,2,,,74,127
6450,note_off,114,0,0,,7,,,43,127
6451,note_on,1,0,0,,2,,,50,127
6565,note_off,114,0,0,,2,,,50,127
6566,note_on,1,0,0,,6,,,54,127
6680,note_off,114,0,0,,6,,,54,127
6681,note_on,1,0,0,,10,,,57,127
6795,note_off,114,0,0,,10,,,57,127
6795,note_off,0,0,0,,2,,,74,127
6796,note_on,1,0,0,,2,,,62,127
6796,note_on,0,0,0,,2,,,74,127
6910,note_off,114,0,0,,2,,,62,127
6911,note_on,1,0,0,,6,,,66,127
7025,note_off,114,0,0,,6,,,66,127
7025,note_off,0,0,0,,2,,,74,127
7026,note_on,1,0,0,,7,,,67,127
7026,note_on,0,0,0,,2,,,74,127
7255,note_off,229,0,0,,2,,,74,127
7256,note_on,1,0,0,,0,,,72,127
7485,note_off,229,0,0,,0,,,72,127
7486,note_on,1,0,0,,12,,,71,127
7715,note_off,229,0,0,,12,,,71,127
7715,note_off,0,0,0,,7,,,67,127
7716,note_on,1,0,0,,2,,,74,127
7831,note_on,115,0,0,,2,,,50,127
7945,note_off,114,0,0,,2,,,50,127
7946,note_on,1,0,0,,6,,,54,127
8060,note_off,114,0,0,,6,,,54,127
8061,note_on,1,0,0,,10,,,57,127
8175,note_off,114,0,0,,10,,,57,127
8175,note_off,0,0,0,,2,,,74,127
8176,note_on,1,0,0,,2,,,62,127
8176,note_on,0,0,0,,2,,,74,127
8290,note_off,114,0,0,,2,,,62,127
8291,note_on,1,0,0,,6,,,66,127
8405,note_off,114,0,0,,6,,,66,127
8405,note_off,0,0,0,,2,,,74,127
8406,note_on,1,0,0,,7,,,67,127
8406,note_on,0,0,0,,2,,,74,127
8635,note_off,229,0,0,,2,,,74,127
8636,note_on,1,0,0,,1,,,73,127
8865,note_off,229,0,0,,1,,,73,127
8866,note_on,1,0,0,,12,,,71,127
9095,note_off,229,0,0,,12,,,71,127
9095,note_off,0,0,0,,7,,,67,127
9096,note_on,1,0,0,,4,,,76,127
9096,note_on,0,0,0,,1,,,73,127
9211,note_on,115,0,0,,6,,,54,127
9325,note_off,114,0,0,,6,,,54,127
9326,note_on,1,0,0,,11,,,58,127
9440,note_off,114,0,0,,11,,,58,127
9441,note_on,1,0,0,,1,,,61,127
9555,note_off,114,0,0,,1,,,61,127
9555,note_off,0,0,0,,1,,,73,127
9555,note_off,0,0,0,,4,,,76,127
9556,note_on,1,0,0,,4,,,64,127
9556,note_on,0,0,0,,1,,,73,127
9556,note_on,0,0,0,,4,,,76,127
9670,note_off,114,0,0,,4,,,64,127
9671,note_on,1,0,0,,6,,,66,127
9785,note_off,114,0,0,,6,,,66,127
9785,note_off,0,0,0,,4,,,76,127
9785,note_off,0,0,0,,1,,,73,127
9786,note_on,1,0,0,,7,,,67,127
9786,note_on,0,0,0,,4,,,76,127
9786,note_on,0,0,0,,1,,,73,127
10015,note_off,229,0,0,,1,,,73,127
10015,note_off,0,0,0,,4,,,76,127
10016,note_on,1,0,0,,2,,,74,127
10016,note_on,0,0,0,,12,,,71,127
10245,note_off,229,0,0,,12,,,71,127
10245,note_off,0,0,0,,2,,,74,127
10246,note_on,1,0,0,,1,,,73,127
10246,note_on,0,0,0,,11,,,70,127
10475,note_off,229,0,0,,11,,,70,127
10475,note_off,0,0,0,,1,,,73,127
10475,note_off,0,0,0,,7,,,67,127
10476,note_on,1,0,0,,1,,,73,127
10476,note_on,0,0,0,,4,,,76,127
10591,note_on,115,0,0,,6,,,54,127
10705,note_off,114,0,0,,6,,,54,127
10706,note_on,1,0,0,,11,,,58,127
10820,note_off,114,0,0,,11,,,58,127
10821,note_on,1,0,0,,1,,,61,127
10935,note_off,114,0,0,,1,,,61,127
10935,note_off,0,0,0,,4,,,76,127
10935,note_off,0,0,0,,1,,,73,127
10936,note_on,1,0,0,,4,,,64,127
10936,note_on,0,0,0,,1,,,73,127
10936,note_on,0,0,0,,4,,,76,127
11050,note_off,114,0,0,,4,,,64,127
11051,note_on,1,0,0,,6,,,66,127
11165,note_off,114,0,0,,6,,,66,127
11165,note_off,0,0,0,,4,,,76,127
11165,note_off,0,0,0,,1,,,73,127
11166,note_on,1,0,0,,7,,,67,127
11166,note_on,0,0,0,,4,,,76,127
11166,note_on,0,0,0,,1,,,73,127
11395,note_off,229,0,0,,1,,,73,127
11395,note_off,0,0,0,,4,,,76,127
11396,note_on,1,0,0,,2,,,74,127
11396,note_on,0,0,0,,12,,,71,127
11625,note_off,229,0,0,,12,,,71,127
11625,note_off,0,0,0,,2,,,74,127
11626,note_on,1,0,0,,1,,,73,127
11626,note_on,0,0,0,,11,,,70,127
11855,note_off,229,0,0,,11,,,70,127
11855,note_off,0,0,0,,1,,,73,127
11855,note_off,0,0,0,,7,,,67,127
11856,note_on,1,0,0,,4,,,76,127
11856,note_on,0,0,0,,1,,,73,127
11971,note_on,115,0,0,,10,,,45,127
12085,note_off,114,0,0,,10,,,45,127
12086,note_on,1,0,0,,1,,,49,127
12200,note_off,114,0,0,,1,,,49,127
12201,note_on,1,0,0,,4,,,52,127
12315,note_off,114,0,0,,4,,,52,127
12315,note_off,0,0,0,,1,,,73,127
12315,note_off,0,0,0,,4,,,76,127
12316,note_on,1,0,0,,10,,,57,127
12316,note_on,0,0,0,,4,,,76,127
12316,note_on,0,0,0,,1,,,73,127
12430,note_off,114,0,0,,10,,,57,127
12431,note_on,1,0,0,,1,,,61,127
12545,note_off,114,0,0,,1,,,61,127
12545,note_off,0,0,0,,1,,,73,127
12545,note_off,0,0,0,,4,,,76,127
12546,note_on,1,0,0,,2,,,62,127
12546,note_on,0,0,0,,6,,,78,127
12546,note_on,0,0,0,,2,,,74,127
12775,note_off,229,0,0,,6,,,78,127
12776,note_on,1,0,0,,7,,,79,127
13005,note_off,229,0,0,,7,,,79,127
13006,note_on,1,0,0,,10,,,81,127
13235,note_off,229,0,0,,10,,,81,127
13235,note_off,0,0,0,,2,,,74,127
13236,note_on,1,0,0,,4,,,76,127
13236,note_on,0,0,0,,1,,,73,127
13350,note_off,114,0,0,,2,,,62,127
13351,note_on,1,0,0,,10,,,57,127
13465,note_off,114,0,0,,10,,,57,127
13466,note_on,1,0,0,,1,,,61,127
13580,note_off,114,0,0,,1,,,61,127
13581,note_on,1,0,0,,4,,,64,127
13695,note_off,114,0,0,,4,,,64,127
13695,note_off,0,0,0,,1,,,73,127
13695,note_off,0,0,0,,4,,,76,127
13696,note_on,1,0,0,,10,,,69,127
13696,note_on,0,0,0,,4,,,76,127
13696,note_on,0,0,0,,1,,,73,127
13809,note_off,113,0,0,,1,,,73,127
13810,note_off,1,0,0,,10,,,69,127
13811,note_on,1,0,0,,1,,,73,127
13925,note_off,114,0,0,,1,,,73,127
13925,note_off,0,0,0,,4,,,76,127
13926,note_on,1,0,0,,2,,,74,127
13926,note_on,0,0,0,,6,,,78,127
14040,note_off,114,0,0,,6,,,78,127
14041,note_on,1,0,0,,4,,,76,127
14155,note_off,114,0,0,,4,,,76,127
14156,note_on,1,0,0,,6,,,78,127
14270,note_off,114,0,0,,6,,,78,127
14271,note_on,1,0,0,,7,,,79,127
14385,note_off,114,0,0,,7,,,79,127
14386,note_on,1,0,0,,10,,,81,127
14500,note_off,114,0,0,,10,,,81,127
14501,note_on,1,0,0,,12,,,83,127
14615,note_off,114,0,0,,12,,,83,127
14615,note_off,0,0,0,,2,,,74,127
14616,note_on,1,0,0,,6,,,78,127
14616,note_on,0,0,0,,10,,,81,127
14730,note_off,114,0,0,,6,,,78,127
14731,note_on,1,0,0,,4,,,76,127
14845,note_off,114,0,0,,4,,,76,127
14845,note_off,0,0,0,,10,,,81,127
14846,note_on,1,0,0,,2,,,74,127
14846,note_on,0,0,0,,6,,,78,127
14960,note_off,114,0,0,,2,,,74,127
14961,note_on,1,0,0,,1,,,73,127
15075,note_off,114,0,0,,1,,,73,127
15075,note_off,0,0,0,,6,,,78,127
15076,note_on,1,0,0,,12,,,71,127
15076,note_on,0,0,0,,2,,,74,127
15190,note_off,114,0,0,,12,,,71,127
15191,note_on,1,0,0,,10,,,69,127
15305,note_off,114,0,0,,10,,,69,127
15305,note_off,0,0,0,,2,,,74,127
15306,note_on,1,0,0,,7,,,67,127
15306,note_on,0,0,0,,12,,,71,127
15420,note_off,114,0,0,,7,,,67,127
15421,note_on,1,0,0,,6,,,66,127
15535,note_off,114,0,0,,6,,,66,127
15535,note_off,0,0,0,,12,,,71,127
15536,note_on,1,0,0,,4,,,64,127
15536,note_on,0,0,0,,7,,,67,127
15650,note_off,114,0,0,,4,,,64,127
15651,note_on,1,0,0,,2,,,62,127
15765,note_off,114,0,0,,2,,,62,127
15765,note_off,0,0,0,,7,,,67,127
15766,note_on,1,0,0,,1,,,61,127
15766,note_on,0,0,0,,4,,,64,127
15880,note_off,114,0,0,,1,,,61,127
15881,note_on,1,0,0,,12,,,59,127
15995,note_off,114,0,0,,12,,,59,127
15995,note_off,0,0,0,,4,,,64,127
15996,note_on,1,0,0,,1,,,61,127
15996,note_on,0,0,0,,10,,,57,127
16110,note_off,114,0,0,,10,,,57,127
16111,note_on,1,0,0,,7,,,55,127
16225,note_off,114,0,0,,7,,,55,127
16225,note_off,0,0,0,,1,,,61,127
16226,note_on,1,0,0,,6,,,54,127
16226,note_on,0,0,0,,10,,,57,127
16340,note_off,114,0,0,,6,,,54,127
16341,note_on,1,0,0,,4,,,52,127
16455,note_off,114,0,0,,4,,,52,127
16455,note_off,0,0,0,,10,,,57,127
16456,note_on,1,0,0,,2,,,50,127
16456,note_on,0,0,0,,6,,,54,127
16570,note_off,114,0,0,,2,,,50,127
16571,note_on,1,0,0,,1,,,49,127
16685,note_off,114,0,0,,1,,,49,127
16685,note_off,0,0,0,,6,,,54,127
16686,note_on,1,0,0,,2,,,50,127
16686,note_on,0,0,0,,12,,,47,127
16915,note_off,229,0,0,,2,,,50,127
16916,note_on,1,0,0,,8,,,56,127
17145,note_off,229,0,0,,8,,,56,127
17146,note_on,1,0,0,,12,,,59,127
17375,note_off,229,0,0,,12,,,59,127
17375,note_off,0,0,0,,12,,,47,127
17376,note_on,1,0,0,,8,,,56,127
17376,note_on,0,0,0,,12,,,47,127
17376,note_on,0,0,0,,2,,,50,127
17376,note_on,0,0,0,,4,,,52,127
17376,note_on,0,0,0,,2,,,62,127
17605,note_off,229,0,0,,2,,,62,127
17606,note_on,1,0,0,,8,,,68,127
17835,note_off,229,0,0,,8,,,68,127
17836,note_on,1,0,0,,12,,,71,127
18065,note_off,229,0,0,,12,,,71,127
18065,note_off,0,0,0,,4,,,52,127
18065,note_off,0,0,0,,2,,,50,127
18065,note_off,0,0,0,,12,,,47,127
18065,note_off,0,0,0,,8,,,56,127
18066,note_on,1,0,0,,2,,,50,127
18066,note_on,0,0,0,,12,,,47,127
18066,note_on,0,0,0,,8,,,56,127
18066,note_on,0,0,0,,4,,,52,127
18066,note_on,0,0,0,,2,,,74,127
18295,note_off,229,0,0,,2,,,74,127
18296,note_on,1,0,0,,12,,,83,127
18525,note_off,229,0,0,,12,,,83,127
18526,note_on,1,0,0,,8,,,80,127
18755,note_off,229,0,0,,8,,,80,127
18755,note_off,0,0,0,,4,,,52,127
18755,note_off,0,0,0,,8,,,56,127
18755,note_off,0,0,0,,12,,,47,127
18755,note_off,0,0,0,,2,,,50,127
18756,note_on,1,0,0,,4,,,52,127
18756,note_on,0,0,0,,2,,,50,127
18756,note_on,0,0,0,,12,,,47,127
18756,note_on,0,0,0,,8,,,56,127
18756,note_on,0,0,0,,2,,,74,127
18985,note_off,229,0,0,,2,,,74,127
18986,note_on,1,0,0,,8,,,68,127
19215,note_off,229,0,0,,8,,,68,127
19216,note_on,1,0,0,,2,,,74,127
19445,note_off,229,0,0,,8,,,56,127
19445,note_off,0,0,0,,12,,,47,127
19445,note_off,0,0,0,,2,,,50,127
19445,note_off,0,0,0,,4,,,52,127
19446,note_on,1,0,0,,10,,,45,127
19446,note_on,0,0,0,,10,,,57,127
19446,note_on,0,0,0,,4,,,52,127
19675,note_off,229,0,0,,2,,,74,127
19676,note_on,1,0,0,,1,,,73,127
19790,note_off,114,0,0,,1,,,73,127
19791,note_on,1,0,0,,12,,,71,127
19905,note_off,114,0,0,,12,,,71,127
19906,note_on,1,0,0,,10,,,69,127
20366,note_off,460,0,0,,10,,,69,127
20366,note_off,0,0,0,,4,,,52,127
20366,note_off,0,0,0,,10,,,57,127
20366,note_off,0,0,0,,10,,,45,127
20828,note_on,462,0,0,,10,,,45,127
20828,note_on,0,0,0,,1,,,73,127
20828,note_on,0,0,0,,4,,,64,127
20886,note_on,58,0,0,,2,,,74,127
20904,note_off,18,0,0,,1,,,73,127
20944,note_on,40,0,0,,4,,,76,127
20962,note_off,18,0,0,,2,,,74,127
21002,note_on,40,0,0,,2,,,74,127
21020,note_off,18,0,0,,4,,,76,127
21058,note_off,38,0,0,,10,,,45,127
21059,note_on,1,0,0,,10,,,57,127
21059,note_on,0,0,0,,1,,,73,127
21077,note_off,18,0,0,,2,,,74,127
21288,note_off,211,0,0,,10,,,57,127
21289,note_on,1,0,0,,7,,,55,127
21518,note_off,229,0,0,,7,,,55,127
21518,note_off,0,0,0,,1,,,73,127
21518,note_off,0,0,0,,4,,,64,127
21519,note_on,1,0,0,,5,,,53,127
21519,note_on,0,0,0,,5,,,65,127
21519,note_on,0,0,0,,2,,,74,127
21748,note_off,229,0,0,,2,,,74,127
21748,note_off,0,0,0,,5,,,65,127
21748,note_off,0,0,0,,5,,,53,127
21749,note_on,1,0,0,,4,,,52,127
21749,note_on,0,0,0,,7,,,67,127
21749,note_on,0,0,0,,4,,,76,127
21978,note_off,229,0,0,,4,,,76,127
21978,note_off,0,0,0,,7,,,67,127
21978,note_off,0,0,0,,4,,,52,127
21979,note_on,1,0,0,,2,,,50,127
21979,note_on,0,0,0,,5,,,77,127
21979,note_on,0,0,0,,10,,,69,127
22208,note_off,229,0,0,,10,,,69,127
22208,note_off,0,0,0,,5,,,77,127
22208,note_off,0,0,0,,2,,,50,127
22209,note_on,1,0,0,,10,,,45,127
22209,note_on,0,0,0,,4,,,64,127
22209,note_on,0,0,0,,1,,,73,127
22267,note_on,58,0,0,,2,,,74,127
22285,note_off,18,0,0,,1,,,73,127
22325,note_on,40,0,0,,4,,,76,127
22343,note_off,18,0,0,,2,,,74,127
22383,note_on,40,0,0,,2,,,74,127
22401,note_off,18,0,0,,4,,,76,127
22439,note_off,38,0,0,,10,,,45,127
22440,note_on,1,0,0,,10,,,57,127
22440,note_on,0,0,0,,1,,,73,127
22458,note_off,18,0,0,,2,,,74,127
22669,note_off,211,0,0,,10,,,57,127
22670,note_on,1,0,0,,7,,,55,127
22899,note_off,229,0,0,,7,,,55,127
22899,note_off,0,0,0,,1,,,73,127
22899,note_off,0,0,0,,4,,,64,127
22900,note_on,1,0,0,,5,,,53,127
22900,note_on,0,0,0,,2,,,74,127
22900,note_on,0,0,0,,5,,,65,127
23129,note_off,229,0,0,,5,,,65,127
23129,note_off,0,0,0,,2,,,74,127
23129,note_off,0,0,0,,5,,,53,127
23130,note_on,1,0,0,,4,,,52,127
23130,note_on,0,0,0,,4,,,76,127
23130,note_on,0,0,0,,7,,,67,127
23359,note_off,229,0,0,,7,,,67,127
23359,note_off,0,0,0,,4,,,76,127
23359,note_off,0,0,0,,4,,,52,127
23360,note_on,1,0,0,,2,,,50,127
23360,note_on,0,0,0,,5,,,77,127
23360,note_on,0,0,0,,10,,,69,127
23589,note_off,229,0,0,,10,,,69,127
23589,note_off,0,0,0,,5,,,77,127
23589,note_off,0,0,0,,2,,,50,127
23590,note_on,1,0,0,,10,,,45,127
23590,note_on,0,0,0,,1,,,73,127
23590,note_on,0,0,0,,10,,,69,127
23590,note_on,0,0,0,,4,,,76,127
23648,note_on,58,0,0,,5,,,77,127
23666,note_off,18,0,0,,4,,,76,127
23706,note_on,40,0,0,,7,,,79,127
23724,note_off,18,0,0,,5,,,77,127
23764,note_on,40,0,0,,5,,,77,127
23782,note_off,18,0,0,,7,,,79,127
23820,note_off,38,0,0,,10,,,45,127
23821,note_on,1,0,0,,10,,,57,127
23821,note_on,0,0,0,,4,,,76,127
23839,note_off,18,0,0,,5,,,77,127
24050,note_off,211,0,0,,10,,,57,127
24051,note_on,1,0,0,,7,,,55,127
24280,note_off,229,0,0,,7,,,55,127
24280,note_off,0,0,0,,4,,,76,127
24280,note_off,0,0,0,,10,,,69,127
24280,note_off,0,0,0,,1,,,73,127
24281,note_on,1,0,0,,5,,,53,127
24281,note_on,0,0,0,,5,,,77,127
24281,note_on,0,0,0,,2,,,74,127
24281,note_on,0,0,0,,10,,,69,127
24510,note_off,229,0,0,,2,,,74,127
24510,note_off,0,0,0,,5,,,77,127
24510,note_off,0,0,0,,5,,,53,127
24511,note_on,1,0,0,,4,,,52,127
24511,note_on,0,0,0,,7,,,79,127
24511,note_on,0,0,0,,4,,,76,127
24740,note_off,229,0,0,,4,,,76,127
24740,note_off,0,0,0,,7,,,79,127
24740,note_off,0,0,0,,4,,,52,127
24741,note_on,1,0,0,,2,,,50,127
24741,note_on,0,0,0,,10,,,81,127
24741,note_on,0,0,0,,5,,,77,127
24970,note_off,229,0,0,,5,,,77,127
24970,note_off,0,0,0,,10,,,81,127
24970,note_off,0,0,0,,2,,,50,127
24970,note_off,0,0,0,,10,,,69,127
24971,note_on,1,0,0,,10,,,45,127
24971,note_on,0,0,0,,4,,,76,127
24971,note_on,0,0,0,,1,,,73,127
24971,note_on,0,0,0,,10,,,69,127
25200,note_off,229,0,0,,4,,,76,127
25201,note_on,1,0,0,,10,,,57,127
25201,note_on,0,0,0,,7,,,79,127
25427,note_off,226,0,0,,10,,,45,127
25431,note_off,4,0,0,,7,,,79,127
25431,note_off,0,0,0,,10,,,57,127
25431,note_off,0,0,0,,1,,,73,127
25432,note_on,1,0,0,,11,,,46,127
25432,note_on,0,0,0,,5,,,77,127
25661,note_off,229,0,0,,5,,,77,127
25661,note_off,0,0,0,,11,,,46,127
25661,note_off,0,0,0,,10,,,69,127
25662,note_on,1,0,0,,7,,,43,127
25662,note_on,0,0,0,,4,,,76,127
25662,note_on,0,0,0,,7,,,67,127
25891,note_off,229,0,0,,7,,,67,127
25891,note_off,0,0,0,,4,,,76,127
25891,note_off,0,0,0,,7,,,43,127
25892,note_on,1,0,0,,10,,,45,127
25892,note_on,0,0,0,,2,,,74,127
25892,note_on,0,0,0,,5,,,65,127
26121,note_off,229,0,0,,5,,,65,127
26121,note_off,0,0,0,,2,,,74,127
26122,note_on,1,0,0,,4,,,64,127
26122,note_on,0,0,0,,1,,,73,127
26351,note_off,229,0,0,,1,,,73,127
26351,note_off,0,0,0,,4,,,64,127
26351,note_off,0,0,0,,10,,,45,127
26352,note_on,1,0,0,,2,,,38,127
26352,note_on,0,0,0,,1,,,73,127
26352,note_on,0,0,0,,2,,,62,127
26812,note_off,460,0,0,,1,,,73,127
26813,note_on,1,0,0,,2,,,74,127
27042,note_off,229,0,0,,2,,,74,127
27042,note_off,0,0,0,,2,,,62,127
27042,note_off,0,0,0,,2,,,38,127
27043,note_on,1,0,0,,10,,,45,127
27043,note_on,0,0,0,,1,,,73,127
27043,note_on,0,0,0,,4,,,64,127
27101,note_on,58,0,0,,2,,,74,127
27119,note_off,18,0,0,,1,,,73,127
27159,note_on,40,0,0,,4,,,76,127
27177,note_off,18,0,0,,2,,,74,127
27217,note_on,40,0,0,,2,,,74,127
27235,note_off,18,0,0,,4,,,76,127
27273,note_off,38,0,0,,10,,,45,127
27274,note_on,1,0,0,,10,,,57,127
27274,note_on,0,0,0,,1,,,73,127
27292,note_off,18,0,0,,2,,,74,127
27503,note_off,211,0,0,,10,,,57,127
27504,note_on,1,0,0,,7,,,55,127
27733,note_off,229,0,0,,7,,,55,127
27733,note_off,0,0,0,,1,,,73,127
27733,note_off,0,0,0,,4,,,64,127
27734,note_on,1,0,0,,5,,,53,127
27734,note_on,0,0,0,,5,,,65,127
27734,note_on,0,0,0,,2,,,74,127
27963,note_off,229,0,0,,2,,,74,127
27963,note_off,0,0,0,,5,,,65,127
27963,note_off,0,0,0,,5,,,53,127
27964,note_on,1,0,0,,4,,,52,127
27964,note_on,0,0,0,,4,,,76,127
27964,note_on,0,0,0,,7,,,67,127
28193,note_off,229,0,0,,7,,,67,127
28193,note_off,0,0,0,,4,,,76,127
28193,note_off,0,0,0,,4,,,52,127
28194,note_on,1,0,0,,2,,,50,127
28194,note_on,0,0,0,,5,,,77,127
28194,note_on,0,0,0,,10,,,69,127
28423,note_off,229,0,0,,10,,,69,127
28423,note_off,0,0,0,,5,,,77,127
28423,note_off,0,0,0,,2,,,50,127
28424,note_on,1,0,0,,10,,,45,127
28424,note_on,0,0,0,,1,,,73,127
28424,note_on,0,0,0,,4,,,64,127
28482,note_on,58,0,0,,2,,,74,127
28500,note_off,18,0,0,,1,,,73,127
28540,note_on,40,0,0,,4,,,76,127
28558,note_off,18,0,0,,2,,,74,127
28598,note_on,40,0,0,,2,,,74,127
28616,note_off,18,0,0,,4,,,76,127
28654,note_off,38,0,0,,10,,,45,127
28655,note_on,1,0,0,,10,,,57,127
28655,note_on,0,0,0,,1,,,73,127
28673,note_off,18,0,0,,2,,,74,127
28884,note_off,211,0,0,,10,,,57,127
28885,note_on,1,0,0,,7,,,55,127
29114,note_off,229,0,0,,7,,,55,127
29114,note_off,0,0,0,,1,,,73,127
29114,note_off,0,0,0,,4,,,64,127
29115,note_on,1,0,0,,5,,,53,127
29115,note_on,0,0,0,,5,,,65,127
29115,note_on,0,0,0,,2,,,74,127
29344,note_off,229,0,0,,2,,,74,127
29344,note_off,0,0,0,,5,,,65,127
29344,note_off,0,0,0,,5,,,53,127
29345,note_on,1,0,0,,4,,,52,127
29345,note_on,0,0,0,,4,,,76,127
29345,note_on,0,0,0,,7,,,67,127
29574,note_off,229,0,0,,7,,,67,127
29574,note_off,0,0,0,,4,,,76,127
29574,note_off,0,0,0,,4,,,52,127
29575,note_on,1,0,0,,2,,,50,127
29575,note_on,0,0,0,,5,,,77,127
29575,note_on,0,0,0,,10,,,69,127
29804,note_off,229,0,0,,10,,,69,127
29804,note_off,0,0,0,,5,,,77,127
29804,note_off,0,0,0,,2,,,50,127
29805,note_on,1,0,0,,10,,,45,127
29805,note_on,0,0,0,,1,,,73,127
29805,note_on,0,0,0,,4,,,76,127
29805,note_on,0,0,0,,10,,,69,127
29863,note_on,58,0,0,,5,,,77,127
29881,note_off,18,0,0,,4,,,76,127
29921,note_on,40,0,0,,7,,,79,127
29939,note_off,18,0,0,,5,,,77,127
29979,note_on,40,0,0,,5,,,77,127
29997,note_off,18,0,0,,7,,,79,127
30035,note_off,38,0,0,,10,,,45,127
30036,note_on,1,0,0,,10,,,57,127
30036,note_on,0,0,0,,4,,,76,127
30054,note_off,18,0,0,,5,,,77,127
30265,note_off,211,0,0,,10,,,57,127
30266,note_on,1,0,0,,7,,,55,127
30495,note_off,229,0,0,,7,,,55,127
30495,note_off,0,0,0,,4,,,76,127
30495,note_off,0,0,0,,10,,,69,127
30495,note_off,0,0,0,,1,,,73,127
30496,note_on,1,0,0,,5,,,53,127
30496,note_on,0,0,0,,2,,,74,127
30496,note_on,0,0,0,,10,,,69,127
30496,note_on,0,0,0,,5,,,77,127
30725,note_off,229,0,0,,5,,,77,127
30725,note_off,0,0,0,,2,,,74,127
30725,note_off,0,0,0,,5,,,53,127
30726,note_on,1,0,0,,4,,,52,127
30726,note_on,0,0,0,,7,,,79,127
30726,note_on,0,0,0,,4,,,76,127
30955,note_off,229,0,0,,4,,,76,127
30955,note_off,0,0,0,,7,,,79,127
30955,note_off,0,0,0,,4,,,52,127
30956,note_on,1,0,0,,2,,,50,127
30956,note_on,0,0,0,,10,,,81,127
30956,note_on,0,0,0,,5,,,77,127
31185,note_off,229,0,0,,5,,,77,127
31185,note_off,0,0,0,,10,,,81,127
31185,note_off,0,0,0,,2,,,50,127
31185,note_off,0,0,0,,10,,,69,127
31186,note_on,1,0,0,,10,,,45,127
31186,note_on,0,0,0,,10,,,69,127
31186,note_on,0,0,0,,4,,,76,127
31186,note_on,0,0,0,,1,,,73,127
31415,note_off,229,0,0,,4,,,76,127
31416,note_on,1,0,0,,10,,,57,127
31416,note_on,0,0,0,,7,,,79,127
31642,note_off,226,0,0,,10,,,45,127
31646,note_off,4,0,0,,7,,,79,127
31646,note_off,0,0,0,,10,,,57,127
31646,note_off,0,0,0,,1,,,73,127
31647,note_on,1,0,0,,11,,,46,127
31647,note_on,0,0,0,,5,,,77,127
31876,note_off,229,0,0,,5,,,77,127
31876,note_off,0,0,0,,11,,,46,127
31876,note_off,0,0,0,,10,,,69,127
31877,note_on,1,0,0,,7,,,43,127
31877,note_on,0,0,0,,4,,,76,127
31877,note_on,0,0,0,,7,,,67,127
32106,note_off,229,0,0,,7,,,67,127
32106,note_off,0,0,0,,4,,,76,127
32106,note_off,0,0,0,,7,,,43,127
32107,note_on,1,0,0,,10,,,45,127
32107,note_on,0,0,0,,2,,,74,127
32107,note_on,0,0,0,,5,,,65,127
32336,note_off,229,0,0,,5,,,65,127
32336,note_off,0,0,0,,2,,,74,127
32337,note_on,1,0,0,,1,,,73,127
32337,note_on,0,0,0,,4,,,64,127
32566,note_off,229,0,0,,4,,,64,127
32566,note_off,0,0,0,,1,,,73,127
32566,note_off,0,0,0,,10,,,45,127
32567,note_on,1,0,0,,2,,,50,127
32567,note_on,0,0,0,,2,,,74,127
32567,note_on,0,0,0,,6,,,66,127
32625,note_on,58,0,0,,7,,,67,127
32643,note_off,18,0,0,,6,,,66,127
32683,note_on,40,0,0,,10,,,69,127
32701,note_off,18,0,0,,7,,,67,127
32741,note_on,40,0,0,,7,,,67,127
32759,note_off,18,0,0,,10,,,69,127
32799,note_on,40,0,0,,2,,,62,127
32799,note_on,0,0,0,,6,,,66,127
32817,note_off,18,0,0,,7,,,67,127
32914,note_off,97,0,0,,2,,,50,127
33028,note_off,114,0,0,,2,,,62,127
33029,note_on,1,0,0,,1,,,61,127
33258,note_off,229,0,0,,1,,,61,127
33258,note_off,0,0,0,,6,,,66,127
33258,note_off,0,0,0,,2,,,74,127
33259,note_on,1,0,0,,12,,,59,127
33259,note_on,0,0,0,,12,,,71,127
33259,note_on,0,0,0,,2,,,74,127
33488,note_off,229,0,0,,12,,,71,127
33488,note_off,0,0,0,,12,,,59,127
33489,note_on,1,0,0,,10,,,57,127
33489,note_on,0,0,0,,7,,,67,127
33718,note_off,229,0,0,,7,,,67,127
33718,note_off,0,0,0,,10,,,57,127
33718,note_off,0,0,0,,2,,,74,127
33719,note_on,1,0,0,,7,,,55,127
33719,note_on,0,0,0,,1,,,73,127
33719,note_on,0,0,0,,4,,,76,127
33948,note_off,229,0,0,,4,,,76,127
33948,note_off,0,0,0,,1,,,73,127
33948,note_off,0,0,0,,7,,,55,127
33949,note_on,1,0,0,,6,,,54,127
33949,note_on,0,0,0,,6,,,78,127
33949,note_on,0,0,0,,10,,,69,127
34007,note_on,58,0,0,,7,,,79,127
34025,note_off,18,0,0,,6,,,78,127
34065,note_on,40,0,0,,10,,,81,127
34083,note_off,18,0,0,,7,,,79,127
34123,note_on,40,0,0,,7,,,79,127
34141,note_off,18,0,0,,10,,,81,127
34181,note_on,40,0,0,,2,,,62,127
34181,note_on,0,0,0,,6,,,78,127
34199,note_off,18,0,0,,7,,,79,127
34407,note_off,208,0,0,,6,,,54,127
34411,note_off,4,0,0,,2,,,62,127
34412,note_on,1,0,0,,6,,,54,127
34641,note_off,229,0,0,,6,,,54,127
34641,note_off,0,0,0,,6,,,78,127
34641,note_off,0,0,0,,10,,,69,127
34642,note_on,1,0,0,,7,,,55,127
34642,note_on,0,0,0,,4,,,76,127
34642,note_on,0,0,0,,7,,,67,127
34871,note_off,229,0,0,,7,,,67,127
34871,note_off,0,0,0,,4,,,76,127
34871,note_off,0,0,0,,7,,,55,127
34872,note_on,1,0,0,,10,,,57,127
34872,note_on,0,0,0,,6,,,66,127
34872,note_on,0,0,0,,2,,,74,127
35101,note_off,229,0,0,,2,,,74,127
35101,note_off,0,0,0,,6,,,66,127
35102,note_on,1,0,0,,10,,,45,127
35102,note_on,0,0,0,,1,,,73,127
35102,note_on,0,0,0,,4,,,64,127
35328,note_off,226,0,0,,10,,,57,127
35332,note_off,4,0,0,,4,,,64,127
35332,note_off,0,0,0,,1,,,73,127
35332,note_off,0,0,0,,10,,,45,127
35333,note_on,1,0,0,,2,,,50,127
35333,note_on,0,0,0,,2,,,74,127
35333,note_on,0,0,0,,6,,,66,127
35391,note_on,58,0,0,,7,,,67,127
35409,note_off,18,0,0,,6,,,66,127
35449,note_on,40,0,0,,10,,,69,127
35467,note_off,18,0,0,,7,,,67,127
35507,note_on,40,0,0,,7,,,67,127
35525,note_off,18,0,0,,10,,,69,127
35563,note_off,38,0,0,,2,,,50,127
35564,note_on,1,0,0,,2,,,50,127
35564,note_on,0,0,0,,2,,,62,127
35564,note_on,0,0,0,,6,,,66,127
35582,note_off,18,0,0,,7,,,67,127
35793,note_off,211,0,0,,2,,,62,127
35793,note_off,0,0,0,,2,,,50,127
35794,note_on,1,0,0,,1,,,49,127
35794,note_on,0,0,0,,1,,,61,127
36023,note_off,229,0,0,,1,,,61,127
36023,note_off,0,0,0,,1,,,49,127
36023,note_off,0,0,0,,6,,,66,127
36023,note_off,0,0,0,,2,,,74,127
36024,note_on,1,0,0,,12,,,47,127
36024,note_on,0,0,0,,12,,,59,127
36024,note_on,0,0,0,,2,,,74,127
36024,note_on,0,0,0,,12,,,71,127
36253,note_off,229,0,0,,12,,,71,127
36253,note_off,0,0,0,,12,,,59,127
36253,note_off,0,0,0,,12,,,47,127
36254,note_on,1,0,0,,10,,,45,127
36254,note_on,0,0,0,,10,,,57,127
36254,note_on,0,0,0,,7,,,67,127
36483,note_off,229,0,0,,7,,,67,127
36483,note_off,0,0,0,,10,,,57,127
36483,note_off,0,0,0,,10,,,45,127
36483,note_off,0,0,0,,2,,,74,127
36484,note_on,1,0,0,,7,,,55,127
36484,note_on,0,0,0,,7,,,43,127
36484,note_on,0,0,0,,4,,,76,127
36484,note_on,0,0,0,,1,,,73,127
36713,note_off,229,0,0,,1,,,73,127
36713,note_off,0,0,0,,4,,,76,127
36713,note_off,0,0,0,,7,,,43,127
36713,note_off,0,0,0,,7,,,55,127
36714,note_on,1,0,0,,6,,,42,127
36714,note_on,0,0,0,,6,,,54,127
36714,note_on,0,0,0,,6,,,78,127
36714,note_on,0,0,0,,10,,,69,127
36772,note_on,58,0,0,,7,,,79,127
36790,note_off,18,0,0,,6,,,78,127
36830,note_on,40,0,0,,10,,,81,127
36848,note_off,18,0,0,,7,,,79,127
36888,note_on,40,0,0,,7,,,79,127
36906,note_off,18,0,0,,10,,,81,127
36944,note_off,38,0,0,,6,,,54,127
36944,note_off,0,0,0,,6,,,42,127
36945,note_on,1,0,0,,4,,,52,127
36945,note_on,0,0,0,,4,,,40,127
36945,note_on,0,0,0,,6,,,78,127
36963,note_off,18,0,0,,7,,,79,127
37174,note_off,211,0,0,,4,,,40,127
37174,note_off,0,0,0,,4,,,52,127
37175,note_on,1,0,0,,2,,,38,127
37175,note_on,0,0,0,,2,,,50,127
37404,note_off,229,0,0,,2,,,50,127
37404,note_off,0,0,0,,2,,,38,127
37404,note_off,0,0,0,,6,,,78,127
37404,note_off,0,0,0,,10,,,69,127
37405,note_on,1,0,0,,7,,,43,127
37405,note_on,0,0,0,,4,,,76,127
37405,note_on,0,0,0,,7,,,67,127
37634,note_off,229,0,0,,7,,,67,127
37634,note_off,0,0,0,,4,,,76,127
37634,note_off,0,0,0,,7,,,43,127
37635,note_on,1,0,0,,10,,,45,127
37635,note_on,0,0,0,,2,,,74,127
37635,note_on,0,0,0,,6,,,66,127
37864,note_off,229,0,0,,6,,,66,127
37864,note_off,0,0,0,,2,,,74,127
37864,note_off,0,0,0,,10,,,45,127
37865,note_on,1,0,0,,10,,,45,127
37865,note_on,0,0,0,,1,,,73,127
37865,note_on,0,0,0,,4,,,64,127
38094,note_off,229,0,0,,4,,,64,127
38094,note_off,0,0,0,,1,,,73,127
38094,note_off,0,0,0,,10,,,45,127
38095,note_on,1,0,0,,2,,,38,127
38095,note_on,0,0,0,,2,,,62,127
38095,note_on,0,0,0,,2,,,74,127
38551,note_off,456,0,0,,2,,,74,127
38671,note_off,120,0,0,,2,,,62,127
38785,note_off,114,0,0,,2,,,38,127
38786,note_on,1,0,0,,2,,,50,127
38786,note_on,0,0,0,,6,,,66,127
38786,note_on,0,0,0,,2,,,74,127
38844,note_on,58,0,0,,7,,,67,127
38862,note_off,18,0,0,,6,,,66,127
38902,note_on,40,0,0,,10,,,69,127
38920,note_off,18,0,0,,7,,,67,127
38960,note_on,40,0,0,,7,,,67,127
38978,note_off,18,0,0,,10,,,69,127
39016,note_off,38,0,0,,2,,,50,127
39017,note_on,1,0,0,,2,,,62,127
39017,note_on,0,0,0,,6,,,66,127
39035,note_off,18,0,0,,7,,,67,127
39246,note_off,211,0,0,,2,,,62,127
39247,note_on,1,0,0,,0,,,60,127
39476,note_off,229,0,0,,0,,,60,127
39476,note_off,0,0,0,,6,,,66,127
39476,note_off,0,0,0,,2,,,74,127
39477,note_on,1,0,0,,12,,,59,127
39477,note_on,0,0,0,,7,,,67,127
39706,note_off,229,0,0,,7,,,67,127
39706,note_off,0,0,0,,12,,,59,127
39707,note_on,1,0,0,,10,,,57,127
39707,note_on,0,0,0,,10,,,69,127
39936,note_off,229,0,0,,10,,,69,127
39936,note_off,0,0,0,,10,,,57,127
39937,note_on,1,0,0,,7,,,55,127
39937,note_on,0,0,0,,12,,,71,127
40166,note_off,229,0,0,,12,,,71,127
40166,note_off,0,0,0,,7,,,55,127
40167,note_on,1,0,0,,4,,,52,127
40167,note_on,0,0,0,,7,,,55,127
40167,note_on,0,0,0,,0,,,72,127
40167,note_on,0,0,0,,7,,,67,127
40225,note_on,58,0,0,,2,,,74,127
40243,note_off,18,0,0,,0,,,72,127
40283,note_on,40,0,0,,4,,,76,127
40301,note_off,18,0,0,,2,,,74,127
40341,note_on,40,0,0,,2,,,74,127
40359,note_off,18,0,0,,4,,,76,127
40397,note_off,38,0,0,,7,,,55,127
40397,note_off,0,0,0,,4,,,52,127
40398,note_on,1,0,0,,2,,,50,127
40398,note_on,0,0,0,,0,,,72,127
40416,note_off,18,0,0,,2,,,74,127
40627,note_off,211,0,0,,2,,,50,127
40628,note_on,1,0,0,,0,,,48,127
40857,note_off,229,0,0,,0,,,48,127
40857,note_off,0,0,0,,0,,,72,127
40857,note_off,0,0,0,,7,,,67,127
40858,note_on,1,0,0,,12,,,47,127
40858,note_on,0,0,0,,2,,,74,127
40858,note_on,0,0,0,,7,,,67,127
41087,note_off,229,0,0,,2,,,74,127
41087,note_off,0,0,0,,12,,,47,127
41088,note_on,1,0,0,,10,,,45,127
41088,note_on,0,0,0,,4,,,76,127
41317,note_off,229,0,0,,4,,,76,127
41317,note_off,0,0,0,,10,,,45,127
41318,note_on,1,0,0,,7,,,43,127
41318,note_on,0,0,0,,5,,,77,127
41547,note_off,229,0,0,,5,,,77,127
41547,note_off,0,0,0,,7,,,43,127
41547,note_off,0,0,0,,7,,,67,127
41548,note_on,1,0,0,,0,,,48,127
41548,note_on,0,0,0,,4,,,76,127
41548,note_on,0,0,0,,0,,,72,127
41606,note_on,58,0,0,,6,,,78,127
41624,note_off,18,0,0,,4,,,76,127
41664,note_on,40,0,0,,7,,,79,127
41682,note_off,18,0,0,,6,,,78,127
41722,note_on,40,0,0,,6,,,78,127
41740,note_off,18,0,0,,7,,,79,127
41780,note_on,40,0,0,,4,,,76,127
41798,note_off,18,0,0,,6,,,78,127
42009,note_off,211,0,0,,0,,,48,127
42010,note_on,1,0,0,,10,,,57,127
42239,note_off,229,0,0,,10,,,57,127
42239,note_off,0,0,0,,4,,,76,127
42239,note_off,0,0,0,,0,,,72,127
42240,note_on,1,0,0,,12,,,47,127
42240,note_on,0,0,0,,6,,,78,127
42240,note_on,0,0,0,,3,,,75,127
42469,note_off,229,0,0,,6,,,78,127
42470,note_on,1,0,0,,7,,,79,127
42699,note_off,229,0,0,,7,,,79,127
42699,note_off,0,0,0,,12,,,47,127
42700,note_on,1,0,0,,12,,,59,127
42700,note_on,0,0,0,,10,,,81,127
42929,note_off,229,0,0,,10,,,81,127
42929,note_off,0,0,0,,12,,,59,127
42929,note_off,0,0,0,,3,,,75,127
42930,note_on,1,0,0,,4,,,52,127
42930,note_on,0,0,0,,8,,,80,127
42930,note_on,0,0,0,,4,,,76,127
42988,note_on,58,0,0,,10,,,81,127
43006,note_off,18,0,0,,8,,,80,127
43046,note_on,40,0,0,,12,,,83,127
43064,note_off,18,0,0,,10,,,81,127
43104,note_on,40,0,0,,10,,,81,127
43122,note_off,18,0,0,,12,,,83,127
43160,note_off,38,0,0,,4,,,52,127
43161,note_on,1,0,0,,4,,,64,127
43161,note_on,0,0,0,,8,,,80,127
43179,note_off,18,0,0,,10,,,81,127
43390,note_off,211,0,0,,4,,,64,127
43391,note_on,1,0,0,,2,,,62,127
43620,note_off,229,0,0,,2,,,62,127
43620,note_off,0,0,0,,8,,,80,127
43620,note_off,0,0,0,,4,,,76,127
43621,note_on,1,0,0,,0,,,60,127
43621,note_on,0,0,0,,10,,,81,127
43621,note_on,0,0,0,,4,,,76,127
43850,note_off,229,0,0,,10,,,81,127
43850,note_off,0,0,0,,0,,,60,127
43851,note_on,1,0,0,,12,,,59,127
43851,note_on,0,0,0,,12,,,83,127
44080,note_off,229,0,0,,12,,,83,127
44080,note_off,0,0,0,,12,,,59,127
44081,note_on,1,0,0,,10,,,57,127
44081,note_on,0,0,0,,0,,,84,127
44310,note_off,229,0,0,,10,,,57,127
44310,note_off,0,0,0,,4,,,76,127
44311,note_on,1,0,0,,8,,,56,127
44311,note_on,0,0,0,,12,,,59,127
44311,note_on,0,0,0,,4,,,76,127
44540,note_off,229,0,0,,4,,,76,127
44540,note_off,0,0,0,,0,,,84,127
44541,note_on,1,0,0,,5,,,77,127
44541,note_on,0,0,0,,2,,,86,127
44770,note_off,229,0,0,,2,,,86,127
44770,note_off,0,0,0,,5,,,77,127
44770,note_off,0,0,0,,12,,,59,127
44770,note_off,0,0,0,,8,,,56,127
44771,note_on,1,0,0,,10,,,57,127
44771,note_on,0,0,0,,0,,,84,127
44771,note_on,0,0,0,,4,,,76,127
45000,note_off,229,0,0,,10,,,57,127
45001,note_on,1,0,0,,2,,,50,127
45230,note_off,229,0,0,,4,,,76,127
45230,note_off,0,0,0,,0,,,84,127
45231,note_on,1,0,0,,12,,,83,127
45231,note_on,0,0,0,,2,,,74,127
45460,note_off,229,0,0,,2,,,74,127
45460,note_off,0,0,0,,12,,,83,127
45461,note_on,1,0,0,,2,,,62,127
45461,note_on,0,0,0,,10,,,81,127
45461,note_on,0,0,0,,0,,,72,127
45690,note_off,229,0,0,,0,,,72,127
45690,note_off,0,0,0,,2,,,62,127
45690,note_off,0,0,0,,2,,,50,127
45691,note_on,1,0,0,,4,,,52,127
45691,note_on,0,0,0,,12,,,71,127
45920,note_off,229,0,0,,10,,,81,127
45921,note_on,1,0,0,,8,,,80,127
46035,note_off,114,0,0,,8,,,80,127
46036,note_on,1,0,0,,6,,,78,127
46150,note_off,114,0,0,,6,,,78,127
46151,note_on,1,0,0,,4,,,76,127
46380,note_off,229,0,0,,4,,,76,127
46380,note_off,0,0,0,,12,,,71,127
46380,note_off,0,0,0,,4,,,52,127
46381,note_on,1,0,0,,4,,,52,127
46381,note_on,0,0,0,,4,,,76,127
46381,note_on,0,0,0,,8,,,68,127
46439,note_on,58,0,0,,10,,,69,127
46457,note_off,18,0,0,,8,,,68,127
46497,note_on,40,0,0,,12,,,71,127
46515,note_off,18,0,0,,10,,,69,127
46555,note_on,40,0,0,,10,,,69,127
46573,note_off,18,0,0,,12,,,71,127
46611,note_off,38,0,0,,4,,,52,127
46612,note_on,1,0,0,,4,,,64,127
46612,note_on,0,0,0,,8,,,68,127
46630,note_off,18,0,0,,10,,,69,127
46841,note_off,211,0,0,,4,,,64,127
46842,note_on,1,0,0,,2,,,62,127
47071,note_off,229,0,0,,2,,,62,127
47071,note_off,0,0,0,,8,,,68,127
47071,note_off,0,0,0,,4,,,76,127
47072,note_on,1,0,0,,0,,,60,127
47072,note_on,0,0,0,,10,,,69,127
47301,note_off,229,0,0,,10,,,69,127
47301,note_off,0,0,0,,0,,,60,127
47302,note_on,1,0,0,,12,,,59,127
47302,note_on,0,0,0,,12,,,71,127
47531,note_off,229,0,0,,12,,,71,127
47531,note_off,0,0,0,,12,,,59,127
47532,note_on,1,0,0,,10,,,57,127
47532,note_on,0,0,0,,0,,,72,127
47761,note_off,229,0,0,,0,,,72,127
47761,note_off,0,0,0,,10,,,57,127
47762,note_on,1,0,0,,4,,,52,127
47762,note_on,0,0,0,,4,,,76,127
47762,note_on,0,0,0,,12,,,71,127
47820,note_on,58,0,0,,0,,,72,127
47838,note_off,18,0,0,,12,,,71,127
47878,note_on,40,0,0,,2,,,74,127
47896,note_off,18,0,0,,0,,,72,127
47936,note_on,40,0,0,,0,,,72,127
47954,note_off,18,0,0,,2,,,74,127
47992,note_off,38,0,0,,4,,,52,127
47993,note_on,1,0,0,,4,,,64,127
47993,note_on,0,0,0,,12,,,71,127
48011,note_off,18,0,0,,0,,,72,127
48222,note_off,211,0,0,,4,,,64,127
48223,note_on,1,0,0,,2,,,62,127
48452,note_off,229,0,0,,2,,,62,127
48452,note_off,0,0,0,,12,,,71,127
48452,note_off,0,0,0,,4,,,76,127
48453,note_on,1,0,0,,0,,,60,127
48453,note_on,0,0,0,,10,,,69,127
48453,note_on,0,0,0,,0,,,72,127
48682,note_off,229,0,0,,0,,,72,127
48682,note_off,0,0,0,,0,,,60,127
48683,note_on,1,0,0,,12,,,59,127
48683,note_on,0,0,0,,2,,,74,127
48912,note_off,229,0,0,,2,,,74,127
48912,note_off,0,0,0,,12,,,59,127
48913,note_on,1,0,0,,10,,,57,127
48913,note_on,0,0,0,,4,,,76,127
49142,note_off,229,0,0,,4,,,76,127
49142,note_off,0,0,0,,10,,,57,127
49142,note_off,0,0,0,,10,,,69,127
49143,note_on,1,0,0,,2,,,50,127
49143,note_on,0,0,0,,0,,,60,127
49143,note_on,0,0,0,,6,,,78,127
49143,note_on,0,0,0,,0,,,72,127
49201,note_on,58,0,0,,7,,,79,127
49219,note_off,18,0,0,,6,,,78,127
49259,note_on,40,0,0,,10,,,81,127
49277,note_off,18,0,0,,7,,,79,127
49317,note_on,40,0,0,,7,,,79,127
49335,note_off,18,0,0,,10,,,81,127
49373,note_off,38,0,0,,0,,,60,127
49373,note_off,0,0,0,,2,,,50,127
49374,note_on,1,0,0,,0,,,60,127
49374,note_on,0,0,0,,2,,,50,127
49374,note_on,0,0,0,,6,,,78,127
49392,note_off,18,0,0,,7,,,79,127
49603,note_off,211,0,0,,2,,,50,127
49603,note_off,0,0,0,,0,,,60,127
49604,note_on,1,0,0,,0,,,60,127
49604,note_on,0,0,0,,2,,,50,127
49833,note_off,229,0,0,,2,,,50,127
49833,note_off,0,0,0,,0,,,60,127
49833,note_off,0,0,0,,6,,,78,127
49833,note_off,0,0,0,,0,,,72,127
49834,note_on,1,0,0,,2,,,50,127
49834,note_on,0,0,0,,0,,,60,127
49834,note_on,0,0,0,,10,,,81,127
49834,note_on,0,0,0,,0,,,72,127
49892,note_on,58,0,0,,2,,,74,127
49910,note_off,18,0,0,,0,,,72,127
49950,note_on,40,0,0,,4,,,76,127
49968,note_off,18,0,0,,2,,,74,127
50008,note_on,40,0,0,,2,,,74,127
50026,note_off,18,0,0,,4,,,76,127
50064,note_off,38,0,0,,0,,,60,127
50064,note_off,0,0,0,,2,,,50,127
50065,note_on,1,0,0,,0,,,60,127
50065,note_on,0,0,0,,2,,,50,127
50065,note_on,0,0,0,,0,,,72,127
50083,note_off,18,0,0,,2,,,74,127
50294,note_off,211,0,0,,2,,,50,127
50294,note_off,0,0,0,,0,,,60,127
50295,note_on,1,0,0,,2,,,50,127
50295,note_on,0,0,0,,0,,,60,127
50524,note_off,229,0,0,,0,,,60,127
50524,note_off,0,0,0,,2,,,50,127
50524,note_off,0,0,0,,0,,,72,127
50524,note_off,0,0,0,,10,,,81,127
50525,note_on,1,0,0,,2,,,50,127
50525,note_on,0,0,0,,0,,,60,127
50525,note_on,0,0,0,,0,,,72,127
50525,note_on,0,0,0,,6,,,78,127
50583,note_on,58,0,0,,7,,,79,127
50601,note_off,18,0,0,,6,,,78,127
50641,note_on,40,0,0,,10,,,81,127
50659,note_off,18,0,0,,7,,,79,127
50699,note_on,40,0,0,,7,,,79,127
50717,note_off,18,0,0,,10,,,81,127
50755,note_off,38,0,0,,0,,,60,127
50755,note_off,0,0,0,,2,,,50,127
50756,note_on,1,0,0,,0,,,60,127
50756,note_on,0,0,0,,2,,,50,127
50756,note_on,0,0,0,,6,,,78,127
50774,note_off,18,0,0,,7,,,79,127
50985,note_off,211,0,0,,2,,,50,127
50985,note_off,0,0,0,,0,,,60,127
50986,note_on,1,0,0,,2,,,50,127
50986,note_on,0,0,0,,0,,,60,127
51215,note_off,229,0,0,,0,,,60,127
51215,note_off,0,0,0,,2,,,50,127
51215,note_off,0,0,0,,6,,,78,127
51215,note_off,0,0,0,,0,,,72,127
51216,note_on,1,0,0,,2,,,50,127
51216,note_on,0,0,0,,0,,,60,127
51216,note_on,0,0,0,,0,,,72,127
51216,note_on,0,0,0,,10,,,81,127
51274,note_on,58,0,0,,2,,,74,127
51292,note_off,18,0,0,,0,,,72,127
51332,note_on,40,0,0,,4,,,76,127
51350,note_off,18,0,0,,2,,,74,127
51390,note_on,40,0,0,,2,,,74,127
51408,note_off,18,0,0,,4,,,76,127
51446,note_off,38,0,0,,0,,,60,127
51446,note_off,0,0,0,,2,,,50,127
51447,note_on,1,0,0,,2,,,50,127
51447,note_on,0,0,0,,0,,,60,127
51447,note_on,0,0,0,,0,,,72,127
51465,note_off,18,0,0,,2,,,74,127
51676,note_off,211,0,0,,0,,,60,127
51676,note_off,0,0,0,,2,,,50,127
51677,note_on,1,0,0,,2,,,50,127
51677,note_on,0,0,0,,0,,,60,127
51906,note_off,229,0,0,,0,,,60,127
51906,note_off,0,0,0,,2,,,50,127
51906,note_off,0,0,0,,0,,,72,127
51906,note_off,0,0,0,,10,,,81,127
51907,note_on,1,0,0,,3,,,51,127
51907,note_on,0,0,0,,12,,,59,127
51907,note_on,0,0,0,,10,,,57,127
51907,note_on,0,0,0,,12,,,71,127
51907,note_on,0,0,0,,6,,,78,127
51965,note_on,58,0,0,,7,,,79,127
51983,note_off,18,0,0,,6,,,78,127
52023,note_on,40,0,0,,10,,,81,127
52041,note_off,18,0,0,,7,,,79,127
52081,note_on,40,0,0,,7,,,79,127
52099,note_off,18,0,0,,10,,,81,127
52137,note_off,38,0,0,,10,,,57,127
52137,note_off,0,0,0,,12,,,59,127
52137,note_off,0,0,0,,3,,,51,127
52138,note_on,1,0,0,,10,,,57,127
52138,note_on,0,0,0,,3,,,51,127
52138,note_on,0,0,0,,12,,,59,127
52138,note_on,0,0,0,,6,,,78,127
52156,note_off,18,0,0,,7,,,79,127
52367,note_off,211,0,0,,12,,,59,127
52367,note_off,0,0,0,,3,,,51,127
52367,note_off,0,0,0,,10,,,57,127
52368,note_on,1,0,0,,3,,,51,127
52368,note_on,0,0,0,,10,,,57,127
52368,note_on,0,0,0,,12,,,59,127
52597,note_off,229,0,0,,12,,,59,127
52597,note_off,0,0,0,,10,,,57,127
52597,note_off,0,0,0,,3,,,51,127
52597,note_off,0,0,0,,6,,,78,127
52597,note_off,0,0,0,,12,,,71,127
52598,note_on,1,0,0,,4,,,52,127
52598,note_on,0,0,0,,7,,,79,127
52598,note_on,0,0,0,,4,,,76,127
52827,note_off,229,0,0,,7,,,79,127
52827,note_off,0,0,0,,4,,,52,127
52828,note_on,1,0,0,,6,,,54,127
52828,note_on,0,0,0,,10,,,81,127
53057,note_off,229,0,0,,10,,,81,127
53057,note_off,0,0,0,,6,,,54,127
53058,note_on,1,0,0,,7,,,55,127
53058,note_on,0,0,0,,12,,,83,127
53287,note_off,229,0,0,,12,,,83,127
53287,note_off,0,0,0,,7,,,55,127
53287,note_off,0,0,0,,4,,,76,127
53288,note_on,1,0,0,,10,,,57,127
53288,note_on,0,0,0,,0,,,84,127
53288,note_on,0,0,0,,4,,,76,127
53402,note_off,114,0,0,,0,,,84,127
53403,note_on,1,0,0,,12,,,83,127
53517,note_off,114,0,0,,12,,,83,127
53517,note_off,0,0,0,,4,,,76,127
53517,note_off,0,0,0,,10,,,57,127
53518,note_on,1,0,0,,12,,,59,127
53518,note_on,0,0,0,,10,,,81,127
53632,note_off,114,0,0,,10,,,81,127
53633,note_on,1,0,0,,7,,,79,127
53747,note_off,114,0,0,,7,,,79,127
53747,note_off,0,0,0,,12,,,59,127
53748,note_on,1,0,0,,0,,,60,127
53748,note_on,0,0,0,,6,,,78,127
53862,note_off,114,0,0,,6,,,78,127
53863,note_on,1,0,0,,4,,,76,127
53977,note_off,114,0,0,,4,,,76,127
53977,note_off,0,0,0,,0,,,60,127
53978,note_on,1,0,0,,2,,,62,127
53978,note_on,0,0,0,,10,,,81,127
54092,note_off,114,0,0,,10,,,81,127
54093,note_on,1,0,0,,7,,,79,127
54207,note_off,114,0,0,,7,,,79,127
54207,note_off,0,0,0,,2,,,62,127
54208,note_on,1,0,0,,4,,,64,127
54208,note_on,0,0,0,,6,,,78,127
54322,note_off,114,0,0,,6,,,78,127
54323,note_on,1,0,0,,4,,,76,127
54437,note_off,114,0,0,,4,,,76,127
54437,note_off,0,0,0,,4,,,64,127
54438,note_on,1,0,0,,6,,,66,127
54438,note_on,0,0,0,,2,,,74,127
54552,note_off,114,0,0,,2,,,74,127
54553,note_on,1,0,0,,0,,,72,127
54667,note_off,114,0,0,,0,,,72,127
54667,note_off,0,0,0,,6,,,66,127
54668,note_on,1,0,0,,7,,,67,127
54668,note_on,0,0,0,,12,,,71,127
54782,note_off,114,0,0,,12,,,71,127
54783,note_on,1,0,0,,10,,,69,127
54897,note_off,114,0,0,,10,,,69,127
54898,note_on,1,0,0,,12,,,71,127
55012,note_off,114,0,0,,12,,,71,127
55013,note_on,1,0,0,,0,,,72,127
55127,note_off,114,0,0,,0,,,72,127
55128,note_on,1,0,0,,2,,,74,127
55242,note_off,114,0,0,,2,,,74,127
55243,note_on,1,0,0,,4,,,76,127
55357,note_off,114,0,0,,4,,,76,127
55357,note_off,0,0,0,,7,,,67,127
55358,note_on,1,0,0,,12,,,71,127
55358,note_on,0,0,0,,2,,,74,127
55472,note_off,114,0,0,,12,,,71,127
55473,note_on,1,0,0,,10,,,69,127
55587,note_off,114,0,0,,10,,,69,127
55587,note_off,0,0,0,,2,,,74,127
55588,note_on,1,0,0,,7,,,67,127
55588,note_on,0,0,0,,12,,,71,127
55702,note_off,114,0,0,,7,,,67,127
55703,note_on,1,0,0,,6,,,66,127
55817,note_off,114,0,0,,6,,,66,127
55817,note_off,0,0,0,,12,,,71,127
55818,note_on,1,0,0,,4,,,64,127
55818,note_on,0,0,0,,7,,,67,127
55932,note_off,114,0,0,,4,,,64,127
55933,note_on,1,0,0,,2,,,62,127
56047,note_off,114,0,0,,2,,,62,127
56047,note_off,0,0,0,,7,,,67,127
56048,note_on,1,0,0,,0,,,60,127
56048,note_on,0,0,0,,4,,,64,127
56162,note_off,114,0,0,,0,,,60,127
56163,note_on,1,0,0,,12,,,59,127
56277,note_off,114,0,0,,12,,,59,127
56277,note_off,0,0,0,,4,,,64,127
56278,note_on,1,0,0,,10,,,57,127
56278,note_on,0,0,0,,0,,,60,127
56392,note_off,114,0,0,,10,,,57,127
56393,note_on,1,0,0,,7,,,55,127
56507,note_off,114,0,0,,7,,,55,127
56507,note_off,0,0,0,,0,,,60,127
56508,note_on,1,0,0,,6,,,54,127
56508,note_on,0,0,0,,10,,,57,127
56622,note_off,114,0,0,,6,,,54,127
56623,note_on,1,0,0,,4,,,52,127
56737,note_off,114,0,0,,4,,,52,127
56737,note_off,0,0,0,,10,,,57,127
56738,note_on,1,0,0,,2,,,50,127
56738,note_on,0,0,0,,6,,,54,127
56852,note_off,114,0,0,,2,,,50,127
56853,note_on,1,0,0,,0,,,48,127
56967,note_off,114,0,0,,0,,,48,127
56967,note_off,0,0,0,,6,,,54,127
56968,note_on,1,0,0,,12,,,47,127
56968,note_on,0,0,0,,2,,,62,127
57082,note_off,114,0,0,,12,,,47,127
57083,note_on,1,0,0,,10,,,45,127
57197,note_off,114,0,0,,10,,,45,127
57197,note_off,0,0,0,,2,,,62,127
57198,note_on,1,0,0,,7,,,43,127
57198,note_on,0,0,0,,6,,,54,127
57312,note_off,114,0,0,,7,,,43,127
57313,note_on,1,0,0,,6,,,42,127
57427,note_off,114,0,0,,6,,,42,127
57427,note_off,0,0,0,,6,,,54,127
57428,note_on,1,0,0,,4,,,40,127
57428,note_on,0,0,0,,7,,,55,127
57657,note_off,229,0,0,,7,,,55,127
57658,note_on,1,0,0,,1,,,61,127
57887,note_off,229,0,0,,1,,,61,127
57888,note_on,1,0,0,,4,,,64,127
58117,note_off,229,0,0,,4,,,64,127
58118,note_on,1,0,0,,4,,,52,127
58118,note_on,0,0,0,,7,,,67,127
58347,note_off,229,0,0,,7,,,67,127
58348,note_on,1,0,0,,1,,,73,127
58577,note_off,229,0,0,,1,,,73,127
58578,note_on,1,0,0,,4,,,76,127
58806,note_off,228,0,0,,4,,,40,127
58807,note_off,1,0,0,,4,,,76,127
58807,note_off,0,0,0,,4,,,52,127
58808,note_on,1,0,0,,10,,,57,127
58808,note_on,0,0,0,,7,,,55,127
58808,note_on,0,0,0,,4,,,52,127
58808,note_on,0,0,0,,1,,,61,127
58808,note_on,0,0,0,,7,,,79,127
59037,note_off,229,0,0,,7,,,79,127
59038,note_on,1,0,0,,4,,,76,127
59267,note_off,229,0,0,,4,,,76,127
59268,note_on,1,0,0,,1,,,73,127
59497,note_off,229,0,0,,1,,,73,127
59497,note_off,0,0,0,,1,,,61,127
59497,note_off,0,0,0,,4,,,52,127
59497,note_off,0,0,0,,7,,,55,127
59497,note_off,0,0,0,,10,,,57,127
59498,note_on,1,0,0,,10,,,57,127
59498,note_on,0,0,0,,7,,,55,127
59498,note_on,0,0,0,,4,,,52,127
59498,note_on,0,0,0,,1,,,61,127
59498,note_on,0,0,0,,7,,,67,127
59727,note_off,229,0,0,,7,,,67,127
59728,note_on,1,0,0,,7,,,79,127
59958,note_on,230,0,0,,1,,,73,127
60187,note_off,229,0,0,,1,,,73,127
60187,note_off,0,0,0,,1,,,61,127
60187,note_off,0,0,0,,4,,,52,127
60187,note_off,0,0,0,,7,,,55,127
60187,note_off,0,0,0,,10,,,57,127
60188,note_on,1,0,0,,2,,,50,127
60188,note_on,0,0,0,,2,,,62,127
60188,note_on,0,0,0,,10,,,69,127
60417,note_off,229,0,0,,10,,,69,127
60417,note_off,0,0,0,,7,,,79,127
60418,note_on,1,0,0,,6,,,78,127
60532,note_off,114,0,0,,6,,,78,127
60533,note_on,1,0,0,,4,,,76,127
60647,note_off,114,0,0,,4,,,76,127
60648,note_on,1,0,0,,2,,,74,127
61108,note_off,460,0,0,,2,,,74,127
61108,note_off,0,0,0,,2,,,62,127
61108,note_off,0,0,0,,2,,,50,127
61570,note_on,462,0,0,,2,,,50,127
61570,note_on,0,0,0,,10,,,69,127
61570,note_on,0,0,0,,6,,,78,127
61628,note_on,58,0,0,,7,,,79,127
61646,note_off,18,0,0,,6,,,78,127
61686,note_on,40,0,0,,10,,,81,127
61704,note_off,18,0,0,,7,,,79,127
61744,note_on,40,0,0,,7,,,79,127
61762,note_off,18,0,0,,10,,,81,127
61800,note_off,38,0,0,,2,,,50,127
61801,note_on,1,0,0,,2,,,62,127
61801,note_on,0,0,0,,6,,,78,127
61819,note_off,18,0,0,,7,,,79,127
62030,note_off,211,0,0,,2,,,62,127
62031,note_on,1,0,0,,0,,,60,127
62260,note_off,229,0,0,,0,,,60,127
62260,note_off,0,0,0,,6,,,78,127
62260,note_off,0,0,0,,10,,,69,127
62261,note_on,1,0,0,,11,,,58,127
62261,note_on,0,0,0,,11,,,70,127
62261,note_on,0,0,0,,7,,,79,127
62490,note_off,229,0,0,,7,,,79,127
62490,note_off,0,0,0,,11,,,70,127
62490,note_off,0,0,0,,11,,,58,127
62491,note_on,1,0,0,,10,,,57,127
62491,note_on,0,0,0,,10,,,81,127
62491,note_on,0,0,0,,0,,,72,127
62720,note_off,229,0,0,,0,,,72,127
62720,note_off,0,0,0,,10,,,81,127
62720,note_off,0,0,0,,10,,,57,127
62721,note_on,1,0,0,,7,,,55,127
62721,note_on,0,0,0,,11,,,82,127
62721,note_on,0,0,0,,2,,,74,127
62950,note_off,229,0,0,,2,,,74,127
62950,note_off,0,0,0,,11,,,82,127
62950,note_off,0,0,0,,7,,,55,127
62951,note_on,1,0,0,,2,,,50,127
62951,note_on,0,0,0,,6,,,78,127
62951,note_on,0,0,0,,10,,,69,127
63009,note_on,58,0,0,,7,,,79,127
63027,note_off,18,0,0,,6,,,78,127
63067,note_on,40,0,0,,10,,,81,127
63085,note_off,18,0,0,,7,,,79,127
63125,note_on,40,0,0,,7,,,79,127
63143,note_off,18,0,0,,10,,,81,127
63181,note_off,38,0,0,,2,,,50,127
63182,note_on,1,0,0,,2,,,62,127
63182,note_on,0,0,0,,6,,,78,127
63200,note_off,18,0,0,,7,,,79,127
63411,note_off,211,0,0,,2,,,62,127
63412,note_on,1,0,0,,0,,,60,127
63641,note_off,229,0,0,,0,,,60,127
63641,note_off,0,0,0,,6,,,78,127
63641,note_off,0,0,0,,10,,,69,127
63642,note_on,1,0,0,,11,,,58,127
63642,note_on,0,0,0,,7,,,79,127
63642,note_on,0,0,0,,11,,,70,127
63871,note_off,229,0,0,,11,,,70,127
63871,note_off,0,0,0,,7,,,79,127
63871,note_off,0,0,0,,11,,,58,127
63872,note_on,1,0,0,,10,,,57,127
63872,note_on,0,0,0,,10,,,81,127
63872,note_on,0,0,0,,0,,,72,127
64101,note_off,229,0,0,,0,,,72,127
64101,note_off,0,0,0,,10,,,81,127
64101,note_off,0,0,0,,10,,,57,127
64102,note_on,1,0,0,,7,,,55,127
64102,note_on,0,0,0,,11,,,82,127
64102,note_on,0,0,0,,2,,,74,127
64331,note_off,229,0,0,,2,,,74,127
64331,note_off,0,0,0,,11,,,82,127
64331,note_off,0,0,0,,7,,,55,127
64332,note_on,1,0,0,,2,,,50,127
64332,note_on,0,0,0,,2,,,74,127
64332,note_on,0,0,0,,10,,,81,127
64332,note_on,0,0,0,,6,,,78,127
64390,note_on,58,0,0,,11,,,82,127
64408,note_off,18,0,0,,10,,,81,127
64448,note_on,40,0,0,,0,,,84,127
64466,note_off,18,0,0,,11,,,82,127
64506,note_on,40,0,0,,11,,,82,127
64524,note_off,18,0,0,,0,,,84,127
64562,note_off,38,0,0,,2,,,50,127
64563,note_on,1,0,0,,2,,,62,127
64563,note_on,0,0,0,,10,,,81,127
64581,note_off,18,0,0,,11,,,82,127
64792,note_off,211,0,0,,2,,,62,127
64793,note_on,1,0,0,,0,,,60,127
65022,note_off,229,0,0,,0,,,60,127
65022,note_off,0,0,0,,10,,,81,127
65022,note_off,0,0,0,,6,,,78,127
65022,note_off,0,0,0,,2,,,74,127
65023,note_on,1,0,0,,11,,,58,127
65023,note_on,0,0,0,,11,,,82,127
65023,note_on,0,0,0,,7,,,79,127
65023,note_on,0,0,0,,2,,,74,127
65252,note_off,229,0,0,,7,,,79,127
65252,note_off,0,0,0,,11,,,82,127
65252,note_off,0,0,0,,11,,,58,127
65253,note_on,1,0,0,,10,,,57,127
65253,note_on,0,0,0,,0,,,84,127
65482,note_off,229,0,0,,0,,,84,127
65482,note_off,0,0,0,,10,,,57,127
65483,note_on,1,0,0,,7,,,55,127
65483,note_on,0,0,0,,2,,,86,127
65712,note_off,229,0,0,,2,,,86,127
65712,note_off,0,0,0,,7,,,55,127
65712,note_off,0,0,0,,2,,,74,127
65713,note_on,1,0,0,,6,,,54,127
65713,note_on,0,0,0,,6,,,78,127
65713,note_on,0,0,0,,10,,,81,127
65713,note_on,0,0,0,,2,,,74,127
65942,note_off,229,0,0,,10,,,81,127
65942,note_off,0,0,0,,6,,,78,127
65942,note_off,0,0,0,,6,,,54,127
65943,note_on,1,0,0,,2,,,50,127
65943,note_on,0,0,0,,0,,,84,127
66172,note_off,229,0,0,,0,,,84,127
66172,note_off,0,0,0,,2,,,50,127
66173,note_on,1,0,0,,7,,,55,127
66173,note_on,0,0,0,,11,,,82,127
66173,note_on,0,0,0,,7,,,79,127
66402,note_off,229,0,0,,7,,,79,127
66402,note_off,0,0,0,,11,,,82,127
66402,note_off,0,0,0,,7,,,55,127
66402,note_off,0,0,0,,2,,,74,127
66403,note_on,1,0,0,,0,,,60,127
66403,note_on,0,0,0,,10,,,81,127
66403,note_on,0,0,0,,0,,,72,127
66632,note_off,229,0,0,,0,,,72,127
66632,note_off,0,0,0,,10,,,81,127
66632,note_off,0,0,0,,0,,,60,127
66633,note_on,1,0,0,,2,,,62,127
66633,note_on,0,0,0,,7,,,79,127
66633,note_on,0,0,0,,11,,,70,127
66862,note_off,229,0,0,,11,,,70,127
66862,note_off,0,0,0,,7,,,79,127
66863,note_on,1,0,0,,2,,,50,127
66863,note_on,0,0,0,,6,,,78,127
66863,note_on,0,0,0,,10,,,69,127
67089,note_off,226,0,0,,2,,,62,127
67093,note_off,4,0,0,,10,,,69,127
67093,note_off,0,0,0,,6,,,78,127
67093,note_off,0,0,0,,2,,,50,127
67094,note_on,1,0,0,,7,,,55,127
67094,note_on,0,0,0,,7,,,79,127
67094,note_on,0,0,0,,12,,,71,127
67152,note_on,58,0,0,,0,,,72,127
67170,note_off,18,0,0,,12,,,71,127
67210,note_on,40,0,0,,2,,,74,127
67228,note_off,18,0,0,,0,,,72,127
67268,note_on,40,0,0,,0,,,72,127
67286,note_off,18,0,0,,2,,,74,127
67324,note_off,38,0,0,,7,,,55,127
67325,note_on,1,0,0,,7,,,67,127
67325,note_on,0,0,0,,12,,,71,127
67343,note_off,18,0,0,,0,,,72,127
67554,note_off,211,0,0,,7,,,67,127
67555,note_on,1,0,0,,5,,,65,127
67784,note_off,229,0,0,,5,,,65,127
67784,note_off,0,0,0,,12,,,71,127
67784,note_off,0,0,0,,7,,,79,127
67785,note_on,1,0,0,,3,,,63,127
67785,note_on,0,0,0,,0,,,72,127
68014,note_off,229,0,0,,0,,,72,127
68014,note_off,0,0,0,,3,,,63,127
68015,note_on,1,0,0,,2,,,62,127
68015,note_on,0,0,0,,2,,,74,127
68244,note_off,229,0,0,,2,,,74,127
68244,note_off,0,0,0,,2,,,62,127
68245,note_on,1,0,0,,0,,,60,127
68245,note_on,0,0,0,,3,,,75,127
68474,note_off,229,0,0,,3,,,75,127
68474,note_off,0,0,0,,0,,,60,127
68475,note_on,1,0,0,,6,,,54,127
68475,note_on,0,0,0,,0,,,60,127
68475,note_on,0,0,0,,2,,,62,127
68475,note_on,0,0,0,,10,,,81,127
68475,note_on,0,0,0,,2,,,74,127
68533,note_on,58,0,0,,11,,,82,127
68551,note_off,18,0,0,,10,,,81,127
68591,note_on,40,0,0,,0,,,84,127
68609,note_off,18,0,0,,11,,,82,127
68649,note_on,40,0,0,,11,,,82,127
68667,note_off,18,0,0,,0,,,84,127
68707,note_on,40,0,0,,10,,,81,127
68725,note_off,18,0,0,,11,,,82,127
68936,note_off,211,0,0,,10,,,81,127
68936,note_off,0,0,0,,2,,,74,127
68936,note_off,0,0,0,,2,,,62,127
68936,note_off,0,0,0,,0,,,60,127
68936,note_off,0,0,0,,6,,,54,127
68937,note_on,1,0,0,,7,,,55,127
68937,note_on,0,0,0,,11,,,82,127
68937,note_on,0,0,0,,2,,,74,127
69166,note_off,229,0,0,,2,,,74,127
69166,note_off,0,0,0,,11,,,82,127
69166,note_off,0,0,0,,7,,,55,127
69167,note_on,1,0,0,,0,,,60,127
69167,note_on,0,0,0,,10,,,81,127
69167,note_on,0,0,0,,0,,,72,127
69396,note_off,229,0,0,,0,,,72,127
69396,note_off,0,0,0,,10,,,81,127
69396,note_off,0,0,0,,0,,,60,127
69397,note_on,1,0,0,,2,,,62,127
69397,note_on,0,0,0,,11,,,70,127
69397,note_on,0,0,0,,7,,,79,127
69626,note_off,229,0,0,,7,,,79,127
69626,note_off,0,0,0,,11,,,70,127
69627,note_on,1,0,0,,2,,,50,127
69627,note_on,0,0,0,,6,,,78,127
69627,note_on,0,0,0,,10,,,69,127
69853,note_off,226,0,0,,2,,,62,127
69857,note_off,4,0,0,,10,,,69,127
69857,note_off,0,0,0,,6,,,78,127
69857,note_off,0,0,0,,2,,,50,127
69858,note_on,1,0,0,,7,,,55,127
69858,note_on,0,0,0,,12,,,71,127
69858,note_on,0,0,0,,7,,,79,127
69916,note_on,58,0,0,,0,,,72,127
69934,note_off,18,0,0,,12,,,71,127
69974,note_on,40,0,0,,2,,,74,127
69992,note_off,18,0,0,,0,,,72,127
70032,note_on,40,0,0,,0,,,72,127
70050,note_off,18,0,0,,2,,,74,127
70088,note_off,38,0,0,,7,,,55,127
70089,note_on,1,0,0,,7,,,67,127
70089,note_on,0,0,0,,12,,,71,127
70107,note_off,18,0,0,,0,,,72,127
70318,note_off,211,0,0,,7,,,67,127
70319,note_on,1,0,0,,5,,,65,127
70548,note_off,229,0,0,,5,,,65,127
70548,note_off,0,0,0,,12,,,71,127
70548,note_off,0,0,0,,7,,,79,127
70549,note_on,1,0,0,,3,,,63,127
70549,note_on,0,0,0,,0,,,72,127
70778,note_off,229,0,0,,0,,,72,127
70778,note_off,0,0,0,,3,,,63,127
70779,note_on,1,0,0,,2,,,62,127
70779,note_on,0,0,0,,2,,,74,127
71008,note_off,229,0,0,,2,,,74,127
71008,note_off,0,0,0,,2,,,62,127
71009,note_on,1,0,0,,0,,,60,127
71009,note_on,0,0,0,,3,,,75,127
71238,note_off,229,0,0,,3,,,75,127
71238,note_off,0,0,0,,0,,,60,127
71239,note_on,1,0,0,,0,,,60,127
71239,note_on,0,0,0,,6,,,54,127
71239,note_on,0,0,0,,2,,,62,127
71239,note_on,0,0,0,,10,,,81,127
71239,note_on,0,0,0,,2,,,74,127
71297,note_on,58,0,0,,11,,,82,127
71315,note_off,18,0,0,,10,,,81,127
71355,note_on,40,0,0,,0,,,84,127
71373,note_off,18,0,0,,11,,,82,127
71413,note_on,40,0,0,,11,,,82,127
71431,note_off,18,0,0,,0,,,84,127
71471,note_on,40,0,0,,10,,,81,127
71489,note_off,18,0,0,,11,,,82,127
71700,note_off,211,0,0,,10,,,81,127
71700,note_off,0,0,0,,2,,,74,127
71700,note_off,0,0,0,,2,,,62,127
71700,note_off,0,0,0,,6,,,54,127
71700,note_off,0,0,0,,0,,,60,127
71701,note_on,1,0,0,,7,,,55,127
71701,note_on,0,0,0,,11,,,82,127
71701,note_on,0,0,0,,2,,,74,127
71930,note_off,229,0,0,,2,,,74,127
71930,note_off,0,0,0,,11,,,82,127
71930,note_off,0,0,0,,7,,,55,127
71931,note_on,1,0,0,,0,,,60,127
71931,note_on,0,0,0,,10,,,81,127
71931,note_on,0,0,0,,0,,,72,127
72160,note_off,229,0,0,,0,,,72,127
72160,note_off,0,0,0,,10,,,81,127
72160,note_off,0,0,0,,0,,,60,127
72161,note_on,1,0,0,,2,,,62,127
72161,note_on,0,0,0,,7,,,79,127
72161,note_on,0,0,0,,11,,,70,127
72390,note_off,229,0,0,,11,,,70,127
72390,note_off,0,0,0,,7,,,79,127
72391,note_on,1,0,0,,2,,,50,127
72391,note_on,0,0,0,,6,,,78,127
72391,note_on,0,0,0,,10,,,69,127
72617,note_off,226,0,0,,2,,,62,127
72621,note_off,4,0,0,,10,,,69,127
72621,note_off,0,0,0,,6,,,78,127
72621,note_off,0,0,0,,2,,,50,127
72622,note_on,1,0,0,,7,,,55,127
72622,note_on,0,0,0,,7,,,79,127
72622,note_on,0,0,0,,12,,,71,127
72680,note_on,58,0,0,,0,,,72,127
72698,note_off,18,0,0,,12,,,71,127
72738,note_on,40,0,0,,2,,,74,127
72756,note_off,18,0,0,,0,,,72,127
72796,note_on,40,0,0,,0,,,72,127
72814,note_off,18,0,0,,2,,,74,127
72852,note_off,38,0,0,,7,,,55,127
72853,note_on,1,0,0,,7,,,67,127
72853,note_on,0,0,0,,12,,,71,127
72871,note_off,18,0,0,,0,,,72,127
73082,note_off,211,0,0,,7,,,67,127
73083,note_on,1,0,0,,6,,,66,127
73312,note_off,229,0,0,,6,,,66,127
73312,note_off,0,0,0,,12,,,71,127
73312,note_off,0,0,0,,7,,,79,127
73313,note_on,1,0,0,,4,,,64,127
73313,note_on,0,0,0,,4,,,76,127
73313,note_on,0,0,0,,7,,,79,127
73542,note_off,229,0,0,,4,,,76,127
73542,note_off,0,0,0,,4,,,64,127
73543,note_on,1,0,0,,2,,,62,127
73543,note_on,0,0,0,,0,,,72,127
73772,note_off,229,0,0,,0,,,72,127
73772,note_off,0,0,0,,2,,,62,127
73772,note_off,0,0,0,,7,,,79,127
73773,note_on,1,0,0,,0,,,60,127
73773,note_on,0,0,0,,10,,,81,127
73773,note_on,0,0,0,,6,,,78,127
74002,note_off,229,0,0,,6,,,78,127
74002,note_off,0,0,0,,10,,,81,127
74002,note_off,0,0,0,,0,,,60,127
74003,note_on,1,0,0,,12,,,59,127
74003,note_on,0,0,0,,7,,,79,127
74003,note_on,0,0,0,,2,,,74,127
74003,note_on,0,0,0,,12,,,83,127
74061,note_on,58,0,0,,0,,,84,127
74079,note_off,18,0,0,,12,,,83,127
74119,note_on,40,0,0,,2,,,86,127
74137,note_off,18,0,0,,0,,,84,127
74177,note_on,40,0,0,,0,,,84,127
74195,note_off,18,0,0,,2,,,86,127
74233,note_off,38,0,0,,12,,,59,127
74234,note_on,1,0,0,,10,,,57,127
74234,note_on,0,0,0,,12,,,83,127
74252,note_off,18,0,0,,0,,,84,127
74463,note_off,211,0,0,,10,,,57,127
74464,note_on,1,0,0,,7,,,55,127
74693,note_off,229,0,0,,7,,,55,127
74693,note_off,0,0,0,,12,,,83,127
74693,note_off,0,0,0,,2,,,74,127
74693,note_off,0,0,0,,7,,,79,127
74694,note_on,1,0,0,,0,,,60,127
74694,note_on,0,0,0,,10,,,81,127
74694,note_on,0,0,0,,0,,,72,127
74923,note_off,229,0,0,,0,,,72,127
74923,note_off,0,0,0,,10,,,81,127
74923,note_off,0,0,0,,0,,,60,127
74924,note_on,1,0,0,,2,,,62,127
74924,note_on,0,0,0,,7,,,79,127
74924,note_on,0,0,0,,12,,,71,127
75153,note_off,229,0,0,,12,,,71,127
75153,note_off,0,0,0,,7,,,79,127
75154,note_on,1,0,0,,2,,,50,127
75154,note_on,0,0,0,,6,,,78,127
75154,note_on,0,0,0,,10,,,69,127
75380,note_off,226,0,0,,2,,,62,127
75384,note_off,4,0,0,,10,,,69,127
75384,note_off,0,0,0,,6,,,78,127
75384,note_off,0,0,0,,2,,,50,127
75385,note_on,1,0,0,,7,,,55,127
75385,note_on,0,0,0,,7,,,79,127
75385,note_on,0,0,0,,12,,,71,127
75443,note_on,58,0,0,,0,,,72,127
75461,note_off,18,0,0,,12,,,71,127
75501,note_on,40,0,0,,2,,,74,127
75519,note_off,18,0,0,,0,,,72,127
75559,note_on,40,0,0,,0,,,72,127
75577,note_off,18,0,0,,2,,,74,127
75615,note_off,38,0,0,,7,,,55,127
75616,note_on,1,0,0,,7,,,67,127
75616,note_on,0,0,0,,7,,,55,127
75616,note_on,0,0,0,,12,,,71,127
75634,note_off,18,0,0,,0,,,72,127
75845,note_off,211,0,0,,7,,,55,127
75845,note_off,0,0,0,,7,,,67,127
75846,note_on,1,0,0,,6,,,54,127
75846,note_on,0,0,0,,6,,,66,127
76075,note_off,229,0,0,,6,,,66,127
76075,note_off,0,0,0,,6,,,54,127
76075,note_off,0,0,0,,12,,,71,127
76075,note_off,0,0,0,,7,,,79,127
76076,note_on,1,0,0,,4,,,52,127
76076,note_on,0,0,0,,4,,,64,127
76076,note_on,0,0,0,,7,,,79,127
76076,note_on,0,0,0,,4,,,76,127
76305,note_off,229,0,0,,4,,,76,127
76305,note_off,0,0,0,,4,,,64,127
76305,note_off,0,0,0,,4,,,52,127
76306,note_on,1,0,0,,2,,,50,127
76306,note_on,0,0,0,,2,,,62,127
76306,note_on,0,0,0,,0,,,72,127
76535,note_off,229,0,0,,0,,,72,127
76535,note_off,0,0,0,,2,,,62,127
76535,note_off,0,0,0,,2,,,50,127
76535,note_off,0,0,0,,7,,,79,127
76536,note_on,1,0,0,,0,,,60,127
76536,note_on,0,0,0,,0,,,48,127
76536,note_on,0,0,0,,6,,,78,127
76536,note_on,0,0,0,,10,,,81,127
76765,note_off,229,0,0,,10,,,81,127
76765,note_off,0,0,0,,6,,,78,127
76765,note_off,0,0,0,,0,,,48,127
76765,note_off,0,0,0,,0,,,60,127
76766,note_on,1,0,0,,12,,,59,127
76766,note_on,0,0,0,,12,,,47,127
76766,note_on,0,0,0,,12,,,83,127
76766,note_on,0,0,0,,7,,,79,127
76766,note_on,0,0,0,,2,,,74,127
76824,note_on,58,0,0,,0,,,84,127
76842,note_off,18,0,0,,7,,,79,127
76842,note_off,0,0,0,,12,,,83,127
76882,note_on,40,0,0,,2,,,86,127
76900,note_off,18,0,0,,0,,,84,127
76940,note_on,40,0,0,,0,,,84,127
76958,note_off,18,0,0,,2,,,86,127
76996,note_off,38,0,0,,12,,,47,127
76996,note_off,0,0,0,,12,,,59,127
76997,note_on,1,0,0,,10,,,45,127
76997,note_on,0,0,0,,10,,,57,127
76997,note_on,0,0,0,,12,,,83,127
77015,note_off,18,0,0,,0,,,84,127
77226,note_off,211,0,0,,10,,,57,127
77226,note_off,0,0,0,,10,,,45,127
77227,note_on,1,0,0,,7,,,43,127
77227,note_on,0,0,0,,7,,,55,127
77456,note_off,229,0,0,,7,,,55,127
77456,note_off,0,0,0,,7,,,43,127
77456,note_off,0,0,0,,12,,,83,127
77456,note_off,0,0,0,,2,,,74,127
77457,note_on,1,0,0,,0,,,48,127
77457,note_on,0,0,0,,10,,,81,127
77457,note_on,0,0,0,,0,,,72,127
77686,note_off,229,0,0,,0,,,72,127
77686,note_off,0,0,0,,10,,,81,127
77686,note_off,0,0,0,,0,,,48,127
77687,note_on,1,0,0,,2,,,50,127
77687,note_on,0,0,0,,7,,,79,127
77687,note_on,0,0,0,,12,,,71,127
77916,note_off,229,0,0,,12,,,71,127
77916,note_off,0,0,0,,7,,,79,127
77917,note_on,1,0,0,,2,,,38,127
77917,note_on,0,0,0,,6,,,78,127
77917,note_on,0,0,0,,10,,,69,127
78143,note_off,226,0,0,,2,,,50,127
78147,note_off,4,0,0,,10,,,69,127
78147,note_off,0,0,0,,6,,,78,127
78147,note_off,0,0,0,,2,,,38,127
78151,note_on,4,0,0,,7,,,79,127
78151,note_on,0,0,0,,7,,,43,127
78267,note_off,116,0,0,,7,,,79,127
78271,note_on,4,0,0,,2,,,74,127
78386,note_off,115,0,0,,7,,,43,127
78387,note_off,1,0,0,,2,,,74,127
78391,note_on,4,0,0,,12,,,71,127
78391,note_on,0,0,0,,12,,,47,127
78507,note_off,116,0,0,,12,,,71,127
78511,note_on,4,0,0,,7,,,67,127
78626,note_off,115,0,0,,12,,,47,127
78627,note_off,1,0,0,,7,,,67,127
78631,note_on,4,0,0,,4,,,64,127
78631,note_on,0,0,0,,0,,,48,127
78747,note_off,116,0,0,,4,,,64,127
78751,note_on,4,0,0,,0,,,60,127
78866,note_off,115,0,0,,0,,,48,127
78867,note_off,1,0,0,,0,,,60,127
78869,note_on,2,0,0,,10,,,57,127
78869,note_on,0,0,0,,2,,,50,127
79104,note_off,235,0,0,,10,,,57,127
79109,note_on,5,0,0,,6,,,66,127
79109,note_on,0,0,0,,12,,,71,127
79169,note_on,60,0,0,,10,,,69,127
79186,note_off,17,0,0,,12,,,71,127
79229,note_on,43,0,0,,12,,,71,127
79246,note_off,17,0,0,,10,,,69,127
79289,note_on,43,0,0,,10,,,69,127
79306,note_off,17,0,0,,12,,,71,127
79349,note_on,43,0,0,,12,,,71,127
79349,note_on,0,0,0,,2,,,38,127
79366,note_off,17,0,0,,10,,,69,127
79409,note_on,43,0,0,,10,,,69,127
79426,note_off,17,0,0,,12,,,71,127
79469,note_on,43,0,0,,7,,,67,127
79486,note_off,17,0,0,,10,,,69,127
79529,note_on,43,0,0,,10,,,69,127
79546,note_off,17,0,0,,7,,,67,127
79580,note_off,34,0,0,,2,,,50,127
79582,note_off,2,0,0,,6,,,66,127
79604,note_off,22,0,0,,2,,,38,127
79615,note_off,11,0,0,,10,,,69,127
79620,note_on,5,0,0,,7,,,43,127
79620,note_on,0,0,0,,7,,,67,127
81950,note_off,2330,0,0,,7,,,67,127
81950,note_off,0,0,0,,7,,,43,127
86016,end_of_track,4066,1,0,,,,,,
