tick,type,time,meta,track,program,channel,pitch,tempo,note,velocity
0,copyright,0,1,0,,,,,,
0,program_change,0,0,0,6,0,,,,
0,pitchwheel,0,0,0,,0,0,,,
0,program_change,0,0,0,6,1,,,,
0,pitchwheel,0,0,0,,1,-590,,,
0,program_change,0,0,0,6,2,,,,
0,pitchwheel,0,0,0,,2,-272,,,
0,program_change,0,0,0,6,3,,,,
0,pitchwheel,0,0,0,,3,-353,,,
0,program_change,0,0,0,6,4,,,,
0,pitchwheel,0,0,0,,4,-560,,,
0,program_change,0,0,0,6,5,,,,
0,pitchwheel,0,0,0,,5,-80,,,
0,program_change,0,0,0,6,6,,,,
0,pitchwheel,0,0,0,,6,-625,,,
0,program_change,0,0,0,6,7,,,,
0,pitchwheel,0,0,0,,7,-130,,,
0,program_change,0,0,0,6,8,,,,
0,pitchwheel,0,0,0,,8,-512,,,
0,program_change,0,0,0,6,10,,,,
0,pitchwheel,0,0,0,,10,-464,,,
0,program_change,0,0,0,6,11,,,,
0,pitchwheel,0,0,0,,11,-208,,,
0,program_change,0,0,0,6,12,,,,
0,pitchwheel,0,0,0,,12,-553,,,
0,set_tempo,0,1,0,,,,500000,,
134,note_on,134,0,0,,0,,,72,127
399,note_off,265,0,0,,0,,,72,127
402,note_on,3,0,0,,12,,,71,127
667,note_off,265,0,0,,12,,,71,127
670,note_on,3,0,0,,0,,,72,127
935,note_off,265,0,0,,0,,,72,127
938,note_on,3,0,0,,4,,,76,127
1069,note_off,131,0,0,,4,,,76,127
1072,note_on,3,0,0,,0,,,72,127
1203,note_off,131,0,0,,0,,,72,127
1206,note_on,3,0,0,,7,,,79,127
1337,note_off,131,0,0,,7,,,79,127
1340,note_on,3,0,0,,5,,,77,127
1471,note_off,131,0,0,,5,,,77,127
1474,note_on,3,0,0,,4,,,76,127
1739,note_off,265,0,0,,4,,,76,127
1742,note_on,3,0,0,,2,,,74,127
2007,note_off,265,0,0,,2,,,74,127
2010,note_on,3,0,0,,0,,,72,127
2278,note_on,268,0,0,,0,,,60,127
2512,note_off,234,0,0,,0,,,72,127
2543,note_off,31,0,0,,0,,,60,127
2546,note_on,3,0,0,,7,,,79,127
2546,note_on,0,0,0,,12,,,59,127
2811,note_off,265,0,0,,12,,,59,127
2814,note_on,3,0,0,,0,,,60,127
3079,note_off,265,0,0,,0,,,60,127
3082,note_on,3,0,0,,4,,,64,127
3213,note_off,131,0,0,,4,,,64,127
3216,note_off,3,0,0,,7,,,79,127
3216,note_on,0,0,0,,0,,,60,127
3347,note_off,131,0,0,,0,,,60,127
3350,note_on,3,0,0,,12,,,71,127
3350,note_on,0,0,0,,7,,,67,127
3481,note_off,131,0,0,,7,,,67,127
3484,note_on,3,0,0,,5,,,65,127
3615,note_off,131,0,0,,5,,,65,127
3615,note_off,0,0,0,,12,,,71,127
3618,note_on,3,0,0,,0,,,72,127
3618,note_on,0,0,0,,4,,,64,127
3883,note_off,265,0,0,,4,,,64,127
3883,note_off,0,0,0,,0,,,72,127
3886,note_on,3,0,0,,2,,,74,127
3886,note_on,0,0,0,,2,,,62,127
4151,note_off,265,0,0,,2,,,62,127
4151,note_off,0,0,0,,2,,,74,127
4154,note_on,3,0,0,,4,,,76,127
4154,note_on,0,0,0,,0,,,60,127
4285,note_off,131,0,0,,4,,,76,127
4288,note_on,3,0,0,,7,,,67,127
4419,note_off,131,0,0,,7,,,67,127
4422,note_on,3,0,0,,10,,,69,127
4553,note_off,131,0,0,,10,,,69,127
4556,note_off,3,0,0,,0,,,60,127
4556,note_on,0,0,0,,4,,,64,127
4687,note_off,131,0,0,,4,,,64,127
4690,note_on,3,0,0,,7,,,67,127
4754,note_off,64,0,0,,7,,,67,127
4757,note_on,3,0,0,,5,,,65,127
4821,note_off,64,0,0,,5,,,65,127
4824,note_on,3,0,0,,7,,,67,127
4888,note_off,64,0,0,,7,,,67,127
4891,note_on,3,0,0,,5,,,65,127
4955,note_off,64,0,0,,5,,,65,127
4958,note_on,3,0,0,,7,,,67,127
4958,note_on,0,0,0,,0,,,60,127
5022,note_off,64,0,0,,0,,,60,127
5022,note_off,0,0,0,,7,,,67,127
5025,note_on,3,0,0,,5,,,65,127
5025,note_on,0,0,0,,12,,,59,127
5089,note_off,64,0,0,,12,,,59,127
5089,note_off,0,0,0,,5,,,65,127
5092,note_on,3,0,0,,7,,,67,127
5092,note_on,0,0,0,,10,,,57,127
5156,note_off,64,0,0,,10,,,57,127
5156,note_off,0,0,0,,7,,,67,127
5159,note_on,3,0,0,,5,,,65,127
5159,note_on,0,0,0,,12,,,59,127
5223,note_off,64,0,0,,12,,,59,127
5223,note_off,0,0,0,,5,,,65,127
5226,note_on,3,0,0,,4,,,64,127
5226,note_on,0,0,0,,0,,,60,127
5357,note_off,131,0,0,,0,,,60,127
5360,note_on,3,0,0,,10,,,57,127
5491,note_off,131,0,0,,10,,,57,127
5494,note_on,3,0,0,,7,,,55,127
5625,note_off,131,0,0,,7,,,55,127
5628,note_on,3,0,0,,4,,,52,127
5756,note_off,128,0,0,,4,,,64,127
5759,note_off,3,0,0,,4,,,52,127
5762,note_on,3,0,0,,7,,,55,127
5826,note_off,64,0,0,,7,,,55,127
5829,note_on,3,0,0,,5,,,53,127
5893,note_off,64,0,0,,5,,,53,127
5896,note_on,3,0,0,,7,,,55,127
5960,note_off,64,0,0,,7,,,55,127
5963,note_on,3,0,0,,5,,,53,127
6027,note_off,64,0,0,,5,,,53,127
6030,note_on,3,0,0,,0,,,72,127
6030,note_on,0,0,0,,7,,,55,127
6094,note_off,64,0,0,,7,,,55,127
6094,note_off,0,0,0,,0,,,72,127
6097,note_on,3,0,0,,12,,,71,127
6097,note_on,0,0,0,,5,,,53,127
6161,note_off,64,0,0,,5,,,53,127
6161,note_off,0,0,0,,12,,,71,127
6164,note_on,3,0,0,,10,,,69,127
6164,note_on,0,0,0,,7,,,55,127
6228,note_off,64,0,0,,7,,,55,127
6228,note_off,0,0,0,,10,,,69,127
6231,note_on,3,0,0,,12,,,71,127
6231,note_on,0,0,0,,5,,,53,127
6295,note_off,64,0,0,,5,,,53,127
6295,note_off,0,0,0,,12,,,71,127
6298,note_on,3,0,0,,0,,,72,127
6298,note_on,0,0,0,,4,,,52,127
6429,note_off,131,0,0,,0,,,72,127
6432,note_on,3,0,0,,7,,,67,127
6563,note_off,131,0,0,,7,,,67,127
6566,note_on,3,0,0,,10,,,69,127
6697,note_off,131,0,0,,10,,,69,127
6700,note_off,3,0,0,,4,,,52,127
6700,note_on,0,0,0,,4,,,64,127
6831,note_off,131,0,0,,4,,,64,127
6834,note_on,3,0,0,,7,,,67,127
6898,note_off,64,0,0,,7,,,67,127
6901,note_on,3,0,0,,5,,,65,127
6965,note_off,64,0,0,,5,,,65,127
6968,note_on,3,0,0,,7,,,67,127
7032,note_off,64,0,0,,7,,,67,127
7035,note_on,3,0,0,,5,,,65,127
7099,note_off,64,0,0,,5,,,65,127
7102,note_on,3,0,0,,7,,,67,127
7102,note_on,0,0,0,,0,,,60,127
7166,note_off,64,0,0,,0,,,60,127
7166,note_off,0,0,0,,7,,,67,127
7169,note_on,3,0,0,,5,,,65,127
7169,note_on,0,0,0,,12,,,59,127
7233,note_off,64,0,0,,12,,,59,127
7233,note_off,0,0,0,,5,,,65,127
7236,note_on,3,0,0,,7,,,67,127
7236,note_on,0,0,0,,10,,,57,127
7300,note_off,64,0,0,,10,,,57,127
7300,note_off,0,0,0,,7,,,67,127
7303,note_on,3,0,0,,5,,,65,127
7303,note_on,0,0,0,,12,,,59,127
7367,note_off,64,0,0,,12,,,59,127
7367,note_off,0,0,0,,5,,,65,127
7370,note_on,3,0,0,,4,,,64,127
7370,note_on,0,0,0,,0,,,60,127
7501,note_off,131,0,0,,0,,,60,127
7504,note_on,3,0,0,,7,,,55,127
7635,note_off,131,0,0,,7,,,55,127
7638,note_on,3,0,0,,10,,,57,127
7769,note_off,131,0,0,,10,,,57,127
7772,note_on,3,0,0,,4,,,52,127
7900,note_off,128,0,0,,4,,,64,127
7903,note_off,3,0,0,,4,,,52,127
7906,note_on,3,0,0,,7,,,55,127
7970,note_off,64,0,0,,7,,,55,127
7973,note_on,3,0,0,,5,,,53,127
8037,note_off,64,0,0,,5,,,53,127
8040,note_on,3,0,0,,7,,,55,127
8104,note_off,64,0,0,,7,,,55,127
8107,note_on,3,0,0,,5,,,53,127
8171,note_off,64,0,0,,5,,,53,127
8174,note_on,3,0,0,,5,,,77,127
8174,note_on,0,0,0,,7,,,55,127
8238,note_off,64,0,0,,7,,,55,127
8238,note_off,0,0,0,,5,,,77,127
8241,note_on,3,0,0,,7,,,79,127
8241,note_on,0,0,0,,5,,,53,127
8305,note_off,64,0,0,,5,,,53,127
8305,note_off,0,0,0,,7,,,79,127
8308,note_on,3,0,0,,10,,,81,127
8308,note_on,0,0,0,,7,,,55,127
8372,note_off,64,0,0,,7,,,55,127
8375,note_on,3,0,0,,5,,,53,127
8439,note_off,64,0,0,,5,,,53,127
8439,note_off,0,0,0,,10,,,81,127
8442,note_on,3,0,0,,7,,,79,127
8442,note_on,0,0,0,,4,,,52,127
8573,note_off,131,0,0,,7,,,79,127
8576,note_on,3,0,0,,4,,,76,127
8707,note_off,131,0,0,,4,,,76,127
8710,note_on,3,0,0,,5,,,77,127
8841,note_off,131,0,0,,5,,,77,127
8844,note_on,3,0,0,,2,,,74,127
8972,note_off,128,0,0,,4,,,52,127
8975,note_off,3,0,0,,2,,,74,127
8978,note_on,3,0,0,,4,,,76,127
9109,note_off,131,0,0,,4,,,76,127
9112,note_on,3,0,0,,0,,,72,127
9243,note_off,131,0,0,,0,,,72,127
9246,note_on,3,0,0,,2,,,74,127
9246,note_on,0,0,0,,4,,,64,127
9377,note_off,131,0,0,,2,,,74,127
9380,note_on,3,0,0,,12,,,71,127
9511,note_off,131,0,0,,12,,,71,127
9511,note_off,0,0,0,,4,,,64,127
9514,note_on,3,0,0,,0,,,72,127
9514,note_on,0,0,0,,10,,,69,127
9645,note_off,131,0,0,,10,,,69,127
9648,note_on,3,0,0,,6,,,66,127
9779,note_off,131,0,0,,6,,,66,127
9782,note_on,3,0,0,,7,,,67,127
9913,note_off,131,0,0,,7,,,67,127
9916,note_on,3,0,0,,4,,,64,127
10044,note_off,128,0,0,,0,,,72,127
10047,note_off,3,0,0,,4,,,64,127
10050,note_on,3,0,0,,6,,,66,127
10181,note_off,131,0,0,,6,,,66,127
10184,note_on,3,0,0,,2,,,62,127
10325,note_off,141,0,0,,2,,,62,127
10326,note_on,1,0,0,,4,,,64,127
10326,note_on,0,0,0,,7,,,79,127
10390,note_off,64,0,0,,7,,,79,127
10394,note_on,4,0,0,,10,,,81,127
10457,note_off,63,0,0,,4,,,64,127
10458,note_off,1,0,0,,10,,,81,127
10462,note_on,4,0,0,,12,,,83,127
10462,note_on,0,0,0,,1,,,61,127
10593,note_off,131,0,0,,1,,,61,127
10593,note_off,0,0,0,,12,,,83,127
10596,note_on,3,0,0,,10,,,81,127
10596,note_on,0,0,0,,2,,,62,127
10727,note_off,131,0,0,,10,,,81,127
10730,note_on,3,0,0,,6,,,78,127
10861,note_off,131,0,0,,6,,,78,127
10864,note_on,3,0,0,,7,,,79,127
10995,note_off,131,0,0,,7,,,79,127
10998,note_on,3,0,0,,4,,,76,127
11126,note_off,128,0,0,,2,,,62,127
11129,note_off,3,0,0,,4,,,76,127
11132,note_on,3,0,0,,6,,,78,127
11263,note_off,131,0,0,,6,,,78,127
11266,note_on,3,0,0,,2,,,74,127
11397,note_off,131,0,0,,2,,,74,127
11400,note_on,3,0,0,,4,,,76,127
11400,note_on,0,0,0,,7,,,67,127
11531,note_off,131,0,0,,4,,,76,127
11534,note_on,3,0,0,,1,,,73,127
11665,note_off,131,0,0,,1,,,73,127
11665,note_off,0,0,0,,7,,,67,127
11668,note_on,3,0,0,,2,,,74,127
11668,note_on,0,0,0,,6,,,66,127
11799,note_off,131,0,0,,6,,,66,127
11802,note_on,3,0,0,,2,,,62,127
11933,note_off,131,0,0,,2,,,62,127
11936,note_on,3,0,0,,4,,,64,127
12067,note_off,131,0,0,,4,,,64,127
12070,note_on,3,0,0,,0,,,60,127
12198,note_off,128,0,0,,2,,,74,127
12201,note_off,3,0,0,,0,,,60,127
12204,note_on,3,0,0,,2,,,62,127
12335,note_off,131,0,0,,2,,,62,127
12338,note_on,3,0,0,,12,,,59,127
12469,note_off,131,0,0,,12,,,59,127
12472,note_on,3,0,0,,4,,,76,127
12472,note_on,0,0,0,,0,,,60,127
12603,note_off,131,0,0,,0,,,60,127
12606,note_on,3,0,0,,10,,,57,127
12737,note_off,131,0,0,,10,,,57,127
12737,note_off,0,0,0,,4,,,76,127
12740,note_on,3,0,0,,2,,,74,127
12740,note_on,0,0,0,,12,,,59,127
12871,note_off,131,0,0,,12,,,59,127
12874,note_on,3,0,0,,7,,,55,127
13005,note_off,131,0,0,,7,,,55,127
13005,note_off,0,0,0,,2,,,74,127
13008,note_on,3,0,0,,0,,,72,127
13008,note_on,0,0,0,,10,,,57,127
13139,note_off,131,0,0,,10,,,57,127
13142,note_on,3,0,0,,6,,,54,127
13273,note_off,131,0,0,,6,,,54,127
13273,note_off,0,0,0,,0,,,72,127
13276,note_on,3,0,0,,12,,,71,127
13276,note_on,0,0,0,,7,,,55,127
13410,note_on,134,0,0,,7,,,43,127
13541,note_off,131,0,0,,7,,,43,127
13541,note_off,0,0,0,,7,,,55,127
13541,note_off,0,0,0,,12,,,71,127
13544,note_on,3,0,0,,10,,,69,127
13544,note_on,0,0,0,,2,,,50,127
13678,note_on,134,0,0,,2,,,38,127
13795,note_off,117,0,0,,10,,,69,127
13809,note_off,14,0,0,,2,,,38,127
13809,note_off,0,0,0,,2,,,50,127
13812,note_on,3,0,0,,6,,,66,127
13812,note_on,0,0,0,,4,,,76,127
13857,note_on,45,0,0,,2,,,74,127
13877,note_off,20,0,0,,4,,,76,127
13902,note_on,25,0,0,,4,,,76,127
13922,note_off,20,0,0,,2,,,74,127
13944,note_off,22,0,0,,6,,,66,127
13947,note_on,3,0,0,,2,,,62,127
13947,note_on,0,0,0,,2,,,74,127
13967,note_off,20,0,0,,4,,,76,127
14079,note_off,112,0,0,,2,,,62,127
14082,note_on,3,0,0,,4,,,64,127
14213,note_off,131,0,0,,4,,,64,127
14216,note_on,3,0,0,,0,,,60,127
14347,note_off,131,0,0,,0,,,60,127
14350,note_off,3,0,0,,2,,,74,127
14350,note_on,0,0,0,,2,,,62,127
14481,note_off,131,0,0,,2,,,62,127
14484,note_on,3,0,0,,12,,,59,127
14615,note_off,131,0,0,,12,,,59,127
14629,note_on,14,0,0,,4,,,76,127
14629,note_on,0,0,0,,0,,,60,127
14760,note_off,131,0,0,,0,,,60,127
14763,note_on,3,0,0,,10,,,57,127
14894,note_off,131,0,0,,10,,,57,127
14894,note_off,0,0,0,,4,,,76,127
14897,note_on,3,0,0,,2,,,74,127
14897,note_on,0,0,0,,12,,,59,127
15028,note_off,131,0,0,,12,,,59,127
15031,note_on,3,0,0,,7,,,55,127
15162,note_off,131,0,0,,7,,,55,127
15162,note_off,0,0,0,,2,,,74,127
15165,note_on,3,0,0,,0,,,72,127
15165,note_on,0,0,0,,10,,,57,127
15296,note_off,131,0,0,,10,,,57,127
15299,note_on,3,0,0,,6,,,54,127
15430,note_off,131,0,0,,6,,,54,127
15430,note_off,0,0,0,,0,,,72,127
15433,note_on,3,0,0,,12,,,71,127
15433,note_on,0,0,0,,7,,,55,127
15567,note_on,134,0,0,,7,,,43,127
15698,note_off,131,0,0,,7,,,43,127
15698,note_off,0,0,0,,7,,,55,127
15698,note_off,0,0,0,,12,,,71,127
15701,note_on,3,0,0,,10,,,69,127
15701,note_on,0,0,0,,2,,,50,127
15835,note_on,134,0,0,,2,,,38,127
15966,note_off,131,0,0,,2,,,38,127
15966,note_off,0,0,0,,2,,,50,127
15966,note_off,0,0,0,,10,,,69,127
15969,note_on,3,0,0,,7,,,43,127
15969,note_on,0,0,0,,4,,,76,127
16014,note_on,45,0,0,,2,,,74,127
16034,note_off,20,0,0,,4,,,76,127
16059,note_on,25,0,0,,4,,,76,127
16079,note_off,20,0,0,,2,,,74,127
16104,note_on,25,0,0,,2,,,74,127
16124,note_off,20,0,0,,4,,,76,127
16149,note_on,25,0,0,,4,,,76,127
16169,note_off,20,0,0,,2,,,74,127
16194,note_on,25,0,0,,2,,,74,127
16214,note_off,20,0,0,,4,,,76,127
16239,note_on,25,0,0,,4,,,76,127
16259,note_off,20,0,0,,2,,,74,127
16284,note_on,25,0,0,,2,,,74,127
16304,note_off,20,0,0,,4,,,76,127
16557,note_off,253,0,0,,7,,,43,127
17087,note_off,530,0,0,,2,,,74,127
17446,note_on,359,0,0,,2,,,74,127
17979,note_off,533,0,0,,2,,,74,127
17982,note_on,3,0,0,,2,,,74,127
17982,note_on,0,0,0,,5,,,77,127
18247,note_off,265,0,0,,5,,,77,127
18247,note_off,0,0,0,,2,,,74,127
18250,note_on,3,0,0,,2,,,74,127
18250,note_on,0,0,0,,3,,,75,127
18515,note_off,265,0,0,,3,,,75,127
18515,note_off,0,0,0,,2,,,74,127
18518,note_on,3,0,0,,0,,,72,127
18518,note_on,0,0,0,,3,,,75,127
18783,note_off,265,0,0,,3,,,75,127
18783,note_off,0,0,0,,0,,,72,127
18786,note_on,3,0,0,,12,,,71,127
18786,note_on,0,0,0,,2,,,74,127
19051,note_off,265,0,0,,2,,,74,127
19051,note_off,0,0,0,,12,,,71,127
19054,note_on,3,0,0,,0,,,72,127
19054,note_on,0,0,0,,5,,,65,127
19054,note_on,0,0,0,,8,,,56,127
19319,note_off,265,0,0,,8,,,56,127
19319,note_off,0,0,0,,5,,,65,127
19322,note_on,3,0,0,,8,,,80,127
19322,note_on,0,0,0,,8,,,56,127
19322,note_on,0,0,0,,5,,,65,127
19347,note_off,25,0,0,,0,,,72,127
19587,note_off,240,0,0,,5,,,65,127
19587,note_off,0,0,0,,8,,,56,127
19590,note_on,3,0,0,,5,,,65,127
19590,note_on,0,0,0,,8,,,56,127
19855,note_off,265,0,0,,8,,,56,127
19855,note_off,0,0,0,,5,,,65,127
19858,note_on,3,0,0,,7,,,55,127
19858,note_on,0,0,0,,3,,,63,127
20123,note_off,265,0,0,,3,,,63,127
20123,note_off,0,0,0,,7,,,55,127
20123,note_off,0,0,0,,8,,,80,127
20126,note_on,3,0,0,,7,,,79,127
20126,note_on,0,0,0,,7,,,55,127
20126,note_on,0,0,0,,3,,,63,127
20257,note_off,131,0,0,,7,,,79,127
20260,note_on,3,0,0,,5,,,77,127
20391,note_off,131,0,0,,5,,,77,127
20391,note_off,0,0,0,,3,,,63,127
20391,note_off,0,0,0,,7,,,55,127
20394,note_on,3,0,0,,3,,,75,127
20394,note_on,0,0,0,,2,,,62,127
20394,note_on,0,0,0,,7,,,55,127
20525,note_off,131,0,0,,3,,,75,127
20528,note_on,3,0,0,,2,,,74,127
20659,note_off,131,0,0,,2,,,74,127
20659,note_off,0,0,0,,7,,,55,127
20659,note_off,0,0,0,,2,,,62,127
20662,note_on,3,0,0,,0,,,72,127
20662,note_on,0,0,0,,2,,,62,127
20662,note_on,0,0,0,,7,,,55,127
20793,note_off,131,0,0,,0,,,72,127
20796,note_on,3,0,0,,12,,,71,127
20927,note_off,131,0,0,,12,,,71,127
20927,note_off,0,0,0,,7,,,55,127
20927,note_off,0,0,0,,2,,,62,127
20930,note_on,3,0,0,,12,,,71,127
20930,note_on,0,0,0,,0,,,48,127
21195,note_off,265,0,0,,12,,,71,127
21198,note_on,3,0,0,,0,,,72,127
21466,note_on,268,0,0,,0,,,60,127
21600,note_off,134,0,0,,0,,,72,127
21731,note_off,131,0,0,,0,,,60,127
21732,note_off,1,0,0,,0,,,48,127
21733,note_on,1,0,0,,4,,,76,127
22266,note_off,533,0,0,,4,,,76,127
22269,note_on,3,0,0,,4,,,76,127
22269,note_on,0,0,0,,7,,,79,127
22534,note_off,265,0,0,,7,,,79,127
22534,note_off,0,0,0,,4,,,76,127
22537,note_on,3,0,0,,4,,,76,127
22537,note_on,0,0,0,,5,,,77,127
22802,note_off,265,0,0,,5,,,77,127
22802,note_off,0,0,0,,4,,,76,127
22805,note_on,3,0,0,,5,,,77,127
22805,note_on,0,0,0,,2,,,74,127
23070,note_off,265,0,0,,2,,,74,127
23070,note_off,0,0,0,,5,,,77,127
23073,note_on,3,0,0,,1,,,73,127
23073,note_on,0,0,0,,4,,,76,127
23338,note_off,265,0,0,,4,,,76,127
23338,note_off,0,0,0,,1,,,73,127
23341,note_on,3,0,0,,2,,,74,127
23341,note_on,0,0,0,,7,,,67,127
23341,note_on,0,0,0,,11,,,58,127
23606,note_off,265,0,0,,11,,,58,127
23606,note_off,0,0,0,,7,,,67,127
23609,note_on,3,0,0,,11,,,82,127
23609,note_on,0,0,0,,11,,,58,127
23609,note_on,0,0,0,,7,,,67,127
23634,note_off,25,0,0,,2,,,74,127
23874,note_off,240,0,0,,7,,,67,127
23874,note_off,0,0,0,,11,,,58,127
23877,note_on,3,0,0,,7,,,67,127
23877,note_on,0,0,0,,11,,,58,127
24142,note_off,265,0,0,,11,,,58,127
24142,note_off,0,0,0,,7,,,67,127
24145,note_on,3,0,0,,5,,,65,127
24145,note_on,0,0,0,,10,,,57,127
24410,note_off,265,0,0,,10,,,57,127
24410,note_off,0,0,0,,5,,,65,127
24410,note_off,0,0,0,,11,,,82,127
24413,note_on,3,0,0,,10,,,81,127
24413,note_on,0,0,0,,5,,,65,127
24413,note_on,0,0,0,,10,,,57,127
24544,note_off,131,0,0,,10,,,81,127
24547,note_on,3,0,0,,7,,,79,127
24678,note_off,131,0,0,,7,,,79,127
24678,note_off,0,0,0,,10,,,57,127
24678,note_off,0,0,0,,5,,,65,127
24681,note_on,3,0,0,,5,,,77,127
24681,note_on,0,0,0,,4,,,64,127
24681,note_on,0,0,0,,10,,,57,127
24812,note_off,131,0,0,,5,,,77,127
24815,note_on,3,0,0,,4,,,76,127
24946,note_off,131,0,0,,4,,,76,127
24946,note_off,0,0,0,,10,,,57,127
24946,note_off,0,0,0,,4,,,64,127
24949,note_on,3,0,0,,2,,,74,127
24949,note_on,0,0,0,,4,,,64,127
24949,note_on,0,0,0,,10,,,57,127
25080,note_off,131,0,0,,2,,,74,127
25083,note_on,3,0,0,,1,,,73,127
25195,note_off,112,0,0,,1,,,73,127
25215,note_off,20,0,0,,10,,,57,127
25215,note_off,0,0,0,,4,,,64,127
25229,note_on,14,0,0,,2,,,50,127
25229,note_on,0,0,0,,10,,,81,127
25278,note_on,49,0,0,,7,,,79,127
25293,note_off,15,0,0,,10,,,81,127
25326,note_on,33,0,0,,6,,,78,127
25341,note_off,15,0,0,,7,,,79,127
25374,note_on,33,0,0,,4,,,76,127
25389,note_off,15,0,0,,6,,,78,127
25422,note_on,33,0,0,,2,,,74,127
25437,note_off,15,0,0,,4,,,76,127
25472,note_on,35,0,0,,0,,,72,127
25486,note_off,14,0,0,,2,,,74,127
25521,note_on,35,0,0,,12,,,71,127
25536,note_off,15,0,0,,0,,,72,127
25569,note_on,33,0,0,,10,,,69,127
25584,note_off,15,0,0,,12,,,71,127
25617,note_on,33,0,0,,7,,,67,127
25632,note_off,15,0,0,,10,,,69,127
25665,note_on,33,0,0,,6,,,66,127
25680,note_off,15,0,0,,7,,,67,127
25715,note_on,35,0,0,,4,,,64,127
25729,note_off,14,0,0,,6,,,66,127
25754,note_off,25,0,0,,2,,,50,127
25764,note_on,10,0,0,,2,,,62,127
25779,note_off,15,0,0,,4,,,64,127
25812,note_on,33,0,0,,0,,,60,127
25827,note_off,15,0,0,,2,,,62,127
25860,note_on,33,0,0,,12,,,59,127
25875,note_off,15,0,0,,0,,,60,127
25908,note_on,33,0,0,,10,,,57,127
25923,note_off,15,0,0,,12,,,59,127
25958,note_on,35,0,0,,7,,,55,127
25972,note_off,14,0,0,,10,,,57,127
26006,note_off,34,0,0,,7,,,55,127
26007,note_on,1,0,0,,10,,,81,127
26007,note_on,0,0,0,,2,,,50,127
26008,note_on,1,0,0,,2,,,38,127
26055,note_on,47,0,0,,7,,,79,127
26070,note_off,15,0,0,,10,,,81,127
26103,note_on,33,0,0,,6,,,78,127
26118,note_off,15,0,0,,7,,,79,127
26151,note_on,33,0,0,,4,,,76,127
26166,note_off,15,0,0,,6,,,78,127
26201,note_on,35,0,0,,2,,,74,127
26215,note_off,14,0,0,,4,,,76,127
26250,note_on,35,0,0,,0,,,72,127
26265,note_off,15,0,0,,2,,,74,127
26298,note_on,33,0,0,,12,,,71,127
26313,note_off,15,0,0,,0,,,72,127
26346,note_on,33,0,0,,10,,,69,127
26361,note_off,15,0,0,,12,,,71,127
26394,note_on,33,0,0,,7,,,67,127
26409,note_off,15,0,0,,10,,,69,127
26444,note_on,35,0,0,,6,,,66,127
26458,note_off,14,0,0,,7,,,67,127
26493,note_on,35,0,0,,4,,,64,127
26508,note_off,15,0,0,,6,,,66,127
26532,note_off,24,0,0,,2,,,50,127
26533,note_off,1,0,0,,2,,,38,127
26542,note_on,9,0,0,,2,,,62,127
26557,note_off,15,0,0,,4,,,64,127
26590,note_on,33,0,0,,0,,,60,127
26605,note_off,15,0,0,,2,,,62,127
26638,note_on,33,0,0,,12,,,59,127
26653,note_off,15,0,0,,0,,,60,127
26688,note_on,35,0,0,,10,,,57,127
26702,note_off,14,0,0,,12,,,59,127
26737,note_on,35,0,0,,7,,,55,127
26752,note_off,15,0,0,,10,,,57,127
26799,note_on,47,0,0,,2,,,50,127
26799,note_on,0,0,0,,2,,,38,127
26800,note_off,1,0,0,,7,,,55,127
28054,note_off,1254,0,0,,2,,,38,127
28054,note_off,0,0,0,,2,,,50,127
28495,note_on,441,0,0,,0,,,84,127
28495,note_on,0,0,0,,4,,,76,127
28760,note_off,265,0,0,,4,,,76,127
28760,note_off,0,0,0,,0,,,84,127
28763,note_on,3,0,0,,2,,,74,127
28763,note_on,0,0,0,,12,,,83,127
29028,note_off,265,0,0,,12,,,83,127
29028,note_off,0,0,0,,2,,,74,127
29031,note_on,3,0,0,,7,,,79,127
29031,note_on,0,0,0,,12,,,71,127
29296,note_off,265,0,0,,12,,,71,127
29296,note_off,0,0,0,,7,,,79,127
29299,note_on,3,0,0,,0,,,72,127
29299,note_on,0,0,0,,10,,,81,127
29564,note_off,265,0,0,,10,,,81,127
29564,note_off,0,0,0,,0,,,72,127
29567,note_on,3,0,0,,7,,,67,127
29567,note_on,0,0,0,,4,,,76,127
29567,note_on,0,0,0,,2,,,50,127
29567,note_on,0,0,0,,1,,,61,127
29832,note_off,265,0,0,,1,,,61,127
29832,note_off,0,0,0,,4,,,76,127
29832,note_off,0,0,0,,7,,,67,127
29835,note_on,3,0,0,,10,,,69,127
29835,note_on,0,0,0,,6,,,78,127
29835,note_on,0,0,0,,2,,,62,127
30100,note_off,265,0,0,,2,,,62,127
30100,note_off,0,0,0,,6,,,78,127
30100,note_off,0,0,0,,10,,,69,127
30103,note_on,3,0,0,,7,,,79,127
30103,note_on,0,0,0,,12,,,71,127
30103,note_on,0,0,0,,0,,,60,127
30234,note_off,131,0,0,,12,,,71,127
30234,note_off,0,0,0,,7,,,79,127
30237,note_on,3,0,0,,6,,,78,127
30237,note_on,0,0,0,,10,,,69,127
30368,note_off,131,0,0,,10,,,69,127
30368,note_off,0,0,0,,6,,,78,127
30368,note_off,0,0,0,,0,,,60,127
30369,note_off,1,0,0,,2,,,50,127
30370,note_on,1,0,0,,7,,,79,127
30370,note_on,0,0,0,,12,,,71,127
30370,note_on,0,0,0,,12,,,59,127
30635,note_off,265,0,0,,12,,,71,127
30635,note_off,0,0,0,,7,,,79,127
30649,note_on,14,0,0,,0,,,84,127
30649,note_on,0,0,0,,4,,,76,127
30772,note_off,123,0,0,,12,,,59,127
30914,note_off,142,0,0,,4,,,76,127
30914,note_off,0,0,0,,0,,,84,127
30917,note_on,3,0,0,,2,,,74,127
30917,note_on,0,0,0,,12,,,83,127
31182,note_off,265,0,0,,12,,,83,127
31182,note_off,0,0,0,,2,,,74,127
31185,note_on,3,0,0,,7,,,79,127
31185,note_on,0,0,0,,12,,,71,127
31450,note_off,265,0,0,,12,,,71,127
31450,note_off,0,0,0,,7,,,79,127
31453,note_on,3,0,0,,10,,,81,127
31453,note_on,0,0,0,,0,,,72,127
31718,note_off,265,0,0,,0,,,72,127
31718,note_off,0,0,0,,10,,,81,127
31721,note_on,3,0,0,,12,,,71,127
31721,note_on,0,0,0,,7,,,79,127
31721,note_on,0,0,0,,2,,,50,127
31721,note_on,0,0,0,,1,,,61,127
31986,note_off,265,0,0,,1,,,61,127
31986,note_off,0,0,0,,7,,,79,127
31986,note_off,0,0,0,,12,,,71,127
31989,note_on,3,0,0,,6,,,78,127
31989,note_on,0,0,0,,10,,,69,127
31989,note_on,0,0,0,,2,,,62,127
32254,note_off,265,0,0,,2,,,62,127
32254,note_off,0,0,0,,10,,,69,127
32254,note_off,0,0,0,,6,,,78,127
32257,note_on,3,0,0,,7,,,79,127
32257,note_on,0,0,0,,12,,,71,127
32257,note_on,0,0,0,,0,,,60,127
32388,note_off,131,0,0,,12,,,71,127
32388,note_off,0,0,0,,7,,,79,127
32391,note_on,3,0,0,,6,,,78,127
32391,note_on,0,0,0,,10,,,69,127
32522,note_off,131,0,0,,10,,,69,127
32522,note_off,0,0,0,,6,,,78,127
32522,note_off,0,0,0,,0,,,60,127
32523,note_off,1,0,0,,2,,,50,127
32524,note_on,1,0,0,,7,,,79,127
32524,note_on,0,0,0,,12,,,71,127
32524,note_on,0,0,0,,12,,,59,127
32775,note_off,251,0,0,,7,,,79,127
32814,note_on,39,0,0,,2,,,74,127
32928,note_off,114,0,0,,12,,,71,127
33056,note_off,128,0,0,,12,,,59,127
33078,note_off,22,0,0,,2,,,74,127
33081,note_on,3,0,0,,4,,,76,127
33081,note_on,0,0,0,,7,,,55,127
33081,note_on,0,0,0,,12,,,59,127
33131,note_off,50,0,0,,4,,,76,127
33134,note_on,3,0,0,,2,,,74,127
33186,note_off,52,0,0,,2,,,74,127
33189,note_on,3,0,0,,4,,,76,127
33239,note_off,50,0,0,,4,,,76,127
33242,note_on,3,0,0,,2,,,74,127
33292,note_off,50,0,0,,2,,,74,127
33295,note_on,3,0,0,,4,,,76,127
33347,note_off,52,0,0,,4,,,76,127
33347,note_off,0,0,0,,12,,,59,127
33347,note_off,0,0,0,,7,,,55,127
33350,note_on,3,0,0,,2,,,74,127
33350,note_on,0,0,0,,0,,,60,127
33350,note_on,0,0,0,,10,,,57,127
33400,note_off,50,0,0,,2,,,74,127
33403,note_on,3,0,0,,0,,,72,127
33455,note_off,52,0,0,,0,,,72,127
33458,note_on,3,0,0,,12,,,71,127
33508,note_off,50,0,0,,12,,,71,127
33511,note_on,3,0,0,,0,,,72,127
33561,note_off,50,0,0,,0,,,72,127
33564,note_on,3,0,0,,2,,,74,127
33616,note_off,52,0,0,,2,,,74,127
33616,note_off,0,0,0,,10,,,57,127
33616,note_off,0,0,0,,0,,,60,127
33619,note_on,3,0,0,,4,,,76,127
33619,note_on,0,0,0,,2,,,62,127
33619,note_on,0,0,0,,12,,,59,127
33669,note_off,50,0,0,,4,,,76,127
33672,note_on,3,0,0,,2,,,74,127
33724,note_off,52,0,0,,2,,,74,127
33727,note_on,3,0,0,,4,,,76,127
33777,note_off,50,0,0,,4,,,76,127
33780,note_on,3,0,0,,2,,,74,127
33830,note_off,50,0,0,,2,,,74,127
33833,note_on,3,0,0,,4,,,76,127
33885,note_off,52,0,0,,4,,,76,127
33885,note_off,0,0,0,,12,,,59,127
33885,note_off,0,0,0,,2,,,62,127
33888,note_on,3,0,0,,2,,,74,127
33888,note_on,0,0,0,,4,,,64,127
33888,note_on,0,0,0,,0,,,60,127
33938,note_off,50,0,0,,2,,,74,127
33941,note_on,3,0,0,,0,,,72,127
33993,note_off,52,0,0,,0,,,72,127
33996,note_on,3,0,0,,12,,,71,127
34046,note_off,50,0,0,,12,,,71,127
34049,note_on,3,0,0,,0,,,72,127
34099,note_off,50,0,0,,0,,,72,127
34102,note_on,3,0,0,,2,,,74,127
34154,note_off,52,0,0,,2,,,74,127
34154,note_off,0,0,0,,0,,,60,127
34154,note_off,0,0,0,,4,,,64,127
34157,note_on,3,0,0,,4,,,76,127
34157,note_on,0,0,0,,2,,,62,127
34157,note_on,0,0,0,,7,,,55,127
34207,note_off,50,0,0,,4,,,76,127
34210,note_on,3,0,0,,2,,,74,127
34262,note_off,52,0,0,,2,,,74,127
34265,note_on,3,0,0,,4,,,76,127
34315,note_off,50,0,0,,4,,,76,127
34318,note_on,3,0,0,,2,,,74,127
34368,note_off,50,0,0,,2,,,74,127
34371,note_on,3,0,0,,4,,,76,127
34423,note_off,52,0,0,,4,,,76,127
34423,note_off,0,0,0,,7,,,55,127
34426,note_on,3,0,0,,2,,,74,127
34426,note_on,0,0,0,,10,,,57,127
34476,note_off,50,0,0,,2,,,74,127
34479,note_on,3,0,0,,0,,,72,127
34531,note_off,52,0,0,,0,,,72,127
34534,note_on,3,0,0,,12,,,71,127
34584,note_off,50,0,0,,12,,,71,127
34587,note_on,3,0,0,,0,,,72,127
34637,note_off,50,0,0,,0,,,72,127
34640,note_on,3,0,0,,2,,,74,127
34689,note_off,49,0,0,,2,,,62,127
34692,note_off,3,0,0,,2,,,74,127
34692,note_off,0,0,0,,10,,,57,127
34695,note_on,3,0,0,,4,,,76,127
34695,note_on,0,0,0,,2,,,62,127
34695,note_on,0,0,0,,12,,,59,127
34745,note_off,50,0,0,,4,,,76,127
34748,note_on,3,0,0,,2,,,74,127
34800,note_off,52,0,0,,2,,,74,127
34803,note_on,3,0,0,,4,,,76,127
34853,note_off,50,0,0,,4,,,76,127
34856,note_on,3,0,0,,2,,,74,127
34906,note_off,50,0,0,,2,,,74,127
34909,note_on,3,0,0,,4,,,76,127
34961,note_off,52,0,0,,4,,,76,127
34961,note_off,0,0,0,,12,,,59,127
34964,note_on,3,0,0,,2,,,74,127
34964,note_on,0,0,0,,7,,,55,127
35014,note_off,50,0,0,,2,,,74,127
35017,note_on,3,0,0,,4,,,76,127
35069,note_off,52,0,0,,4,,,76,127
35072,note_on,3,0,0,,2,,,74,127
35122,note_off,50,0,0,,2,,,74,127
35125,note_on,3,0,0,,0,,,72,127
35175,note_off,50,0,0,,0,,,72,127
35178,note_on,3,0,0,,2,,,74,127
35227,note_off,49,0,0,,2,,,62,127
35230,note_off,3,0,0,,2,,,74,127
35230,note_off,0,0,0,,7,,,55,127
35233,note_on,3,0,0,,4,,,76,127
35233,note_on,0,0,0,,0,,,48,127
35320,note_off,87,0,0,,4,,,76,127
35323,note_on,3,0,0,,2,,,74,127
35410,note_off,87,0,0,,2,,,74,127
35413,note_on,3,0,0,,0,,,72,127
35500,note_off,87,0,0,,0,,,72,127
35500,note_off,0,0,0,,0,,,48,127
35503,note_on,3,0,0,,12,,,71,127
35503,note_on,0,0,0,,0,,,60,127
35590,note_off,87,0,0,,12,,,71,127
35593,note_on,3,0,0,,10,,,69,127
35680,note_off,87,0,0,,10,,,69,127
35683,note_on,3,0,0,,7,,,67,127
35770,note_off,87,0,0,,7,,,67,127
35770,note_off,0,0,0,,0,,,60,127
35773,note_on,3,0,0,,7,,,67,127
35773,note_on,0,0,0,,2,,,62,127
36038,note_off,265,0,0,,2,,,62,127
36038,note_off,0,0,0,,7,,,67,127
36041,note_on,3,0,0,,7,,,67,127
36041,note_on,0,0,0,,2,,,50,127
36105,note_off,64,0,0,,7,,,67,127
36108,note_on,3,0,0,,6,,,66,127
36172,note_off,64,0,0,,6,,,66,127
36175,note_on,3,0,0,,4,,,64,127
36239,note_off,64,0,0,,4,,,64,127
36242,note_on,3,0,0,,6,,,66,127
36306,note_off,64,0,0,,6,,,66,127
36306,note_off,0,0,0,,2,,,50,127
36309,note_on,3,0,0,,7,,,67,127
36309,note_on,0,0,0,,7,,,55,127
36574,note_off,265,0,0,,7,,,55,127
36577,note_on,3,0,0,,2,,,50,127
36842,note_off,265,0,0,,2,,,50,127
36845,note_on,3,0,0,,7,,,43,127
36979,note_off,134,0,0,,7,,,67,127
37113,note_on,134,0,0,,2,,,74,127
37378,note_off,265,0,0,,2,,,74,127
37378,note_off,0,0,0,,7,,,43,127
37381,note_on,3,0,0,,4,,,76,127
37381,note_on,0,0,0,,7,,,55,127
37381,note_on,0,0,0,,12,,,59,127
37431,note_off,50,0,0,,4,,,76,127
37434,note_on,3,0,0,,2,,,74,127
37486,note_off,52,0,0,,2,,,74,127
37489,note_on,3,0,0,,4,,,76,127
37539,note_off,50,0,0,,4,,,76,127
37542,note_on,3,0,0,,2,,,74,127
37592,note_off,50,0,0,,2,,,74,127
37595,note_on,3,0,0,,4,,,76,127
37647,note_off,52,0,0,,4,,,76,127
37647,note_off,0,0,0,,12,,,59,127
37647,note_off,0,0,0,,7,,,55,127
37650,note_on,3,0,0,,2,,,74,127
37650,note_on,0,0,0,,0,,,60,127
37650,note_on,0,0,0,,10,,,57,127
37700,note_off,50,0,0,,2,,,74,127
37703,note_on,3,0,0,,0,,,72,127
37755,note_off,52,0,0,,0,,,72,127
37758,note_on,3,0,0,,12,,,71,127
37808,note_off,50,0,0,,12,,,71,127
37811,note_on,3,0,0,,0,,,72,127
37861,note_off,50,0,0,,0,,,72,127
37864,note_on,3,0,0,,2,,,74,127
37916,note_off,52,0,0,,2,,,74,127
37916,note_off,0,0,0,,10,,,57,127
37916,note_off,0,0,0,,0,,,60,127
37919,note_on,3,0,0,,4,,,76,127
37919,note_on,0,0,0,,2,,,62,127
37919,note_on,0,0,0,,12,,,59,127
37969,note_off,50,0,0,,4,,,76,127
37972,note_on,3,0,0,,2,,,74,127
38024,note_off,52,0,0,,2,,,74,127
38027,note_on,3,0,0,,4,,,76,127
38077,note_off,50,0,0,,4,,,76,127
38080,note_on,3,0,0,,2,,,74,127
38130,note_off,50,0,0,,2,,,74,127
38133,note_on,3,0,0,,4,,,76,127
38185,note_off,52,0,0,,4,,,76,127
38185,note_off,0,0,0,,12,,,59,127
38185,note_off,0,0,0,,2,,,62,127
38188,note_on,3,0,0,,2,,,74,127
38188,note_on,0,0,0,,4,,,64,127
38188,note_on,0,0,0,,0,,,60,127
38238,note_off,50,0,0,,2,,,74,127
38241,note_on,3,0,0,,0,,,72,127
38293,note_off,52,0,0,,0,,,72,127
38296,note_on,3,0,0,,12,,,71,127
38346,note_off,50,0,0,,12,,,71,127
38349,note_on,3,0,0,,0,,,72,127
38399,note_off,50,0,0,,0,,,72,127
38402,note_on,3,0,0,,2,,,74,127
38454,note_off,52,0,0,,2,,,74,127
38454,note_off,0,0,0,,0,,,60,127
38454,note_off,0,0,0,,4,,,64,127
38457,note_on,3,0,0,,4,,,76,127
38457,note_on,0,0,0,,2,,,62,127
38457,note_on,0,0,0,,7,,,55,127
38507,note_off,50,0,0,,4,,,76,127
38510,note_on,3,0,0,,2,,,74,127
38562,note_off,52,0,0,,2,,,74,127
38565,note_on,3,0,0,,4,,,76,127
38615,note_off,50,0,0,,4,,,76,127
38618,note_on,3,0,0,,2,,,74,127
38668,note_off,50,0,0,,2,,,74,127
38671,note_on,3,0,0,,4,,,76,127
38723,note_off,52,0,0,,4,,,76,127
38723,note_off,0,0,0,,7,,,55,127
38726,note_on,3,0,0,,2,,,74,127
38726,note_on,0,0,0,,10,,,57,127
38776,note_off,50,0,0,,2,,,74,127
38779,note_on,3,0,0,,0,,,72,127
38831,note_off,52,0,0,,0,,,72,127
38834,note_on,3,0,0,,12,,,71,127
38884,note_off,50,0,0,,12,,,71,127
38887,note_on,3,0,0,,0,,,72,127
38937,note_off,50,0,0,,0,,,72,127
38940,note_on,3,0,0,,2,,,74,127
38989,note_off,49,0,0,,2,,,62,127
38992,note_off,3,0,0,,2,,,74,127
38992,note_off,0,0,0,,10,,,57,127
38995,note_on,3,0,0,,4,,,76,127
38995,note_on,0,0,0,,2,,,62,127
38995,note_on,0,0,0,,12,,,59,127
39045,note_off,50,0,0,,4,,,76,127
39048,note_on,3,0,0,,2,,,74,127
39100,note_off,52,0,0,,2,,,74,127
39103,note_on,3,0,0,,4,,,76,127
39153,note_off,50,0,0,,4,,,76,127
39156,note_on,3,0,0,,2,,,74,127
39206,note_off,50,0,0,,2,,,74,127
39209,note_on,3,0,0,,4,,,76,127
39261,note_off,52,0,0,,4,,,76,127
39261,note_off,0,0,0,,12,,,59,127
39264,note_on,3,0,0,,2,,,74,127
39264,note_on,0,0,0,,7,,,55,127
39314,note_off,50,0,0,,2,,,74,127
39317,note_on,3,0,0,,4,,,76,127
39369,note_off,52,0,0,,4,,,76,127
39372,note_on,3,0,0,,2,,,74,127
39422,note_off,50,0,0,,2,,,74,127
39425,note_on,3,0,0,,0,,,72,127
39475,note_off,50,0,0,,0,,,72,127
39478,note_on,3,0,0,,2,,,74,127
39527,note_off,49,0,0,,2,,,62,127
39530,note_off,3,0,0,,2,,,74,127
39530,note_off,0,0,0,,7,,,55,127
39533,note_on,3,0,0,,4,,,76,127
39533,note_on,0,0,0,,0,,,48,127
39620,note_off,87,0,0,,4,,,76,127
39623,note_on,3,0,0,,2,,,74,127
39710,note_off,87,0,0,,2,,,74,127
39713,note_on,3,0,0,,0,,,72,127
39800,note_off,87,0,0,,0,,,72,127
39800,note_off,0,0,0,,0,,,48,127
39803,note_on,3,0,0,,12,,,71,127
39803,note_on,0,0,0,,0,,,60,127
39890,note_off,87,0,0,,12,,,71,127
39893,note_on,3,0,0,,10,,,69,127
39980,note_off,87,0,0,,10,,,69,127
39983,note_on,3,0,0,,7,,,67,127
40070,note_off,87,0,0,,7,,,67,127
40070,note_off,0,0,0,,0,,,60,127
40073,note_on,3,0,0,,7,,,67,127
40073,note_on,0,0,0,,2,,,62,127
40338,note_off,265,0,0,,2,,,62,127
40338,note_off,0,0,0,,7,,,67,127
40341,note_on,3,0,0,,7,,,67,127
40341,note_on,0,0,0,,2,,,50,127
40405,note_off,64,0,0,,7,,,67,127
40408,note_on,3,0,0,,6,,,66,127
40472,note_off,64,0,0,,6,,,66,127
40475,note_on,3,0,0,,7,,,67,127
40539,note_off,64,0,0,,7,,,67,127
40542,note_on,3,0,0,,6,,,66,127
40609,note_off,67,0,0,,6,,,66,127
40617,note_off,8,0,0,,2,,,50,127
40620,note_on,3,0,0,,12,,,59,127
40620,note_on,0,0,0,,7,,,67,127
40684,note_off,64,0,0,,7,,,67,127
40687,note_on,3,0,0,,10,,,69,127
40751,note_off,64,0,0,,10,,,69,127
40754,note_on,3,0,0,,12,,,71,127
40818,note_off,64,0,0,,12,,,71,127
40821,note_on,3,0,0,,0,,,72,127
40885,note_off,64,0,0,,0,,,72,127
40885,note_off,0,0,0,,12,,,59,127
40888,note_on,3,0,0,,0,,,60,127
40888,note_on,0,0,0,,2,,,74,127
40952,note_off,64,0,0,,2,,,74,127
40955,note_on,3,0,0,,4,,,76,127
41019,note_off,64,0,0,,4,,,76,127
41022,note_on,3,0,0,,6,,,78,127
41086,note_off,64,0,0,,6,,,78,127
41089,note_on,3,0,0,,7,,,79,127
41153,note_off,64,0,0,,7,,,79,127
41153,note_off,0,0,0,,0,,,60,127
41156,note_on,3,0,0,,2,,,62,127
41156,note_on,0,0,0,,7,,,67,127
41421,note_off,265,0,0,,7,,,67,127
41421,note_off,0,0,0,,2,,,62,127
41424,note_on,3,0,0,,0,,,60,127
41424,note_on,0,0,0,,7,,,67,127
41488,note_off,64,0,0,,7,,,67,127
41491,note_on,3,0,0,,6,,,66,127
41555,note_off,64,0,0,,6,,,66,127
41558,note_on,3,0,0,,7,,,67,127
41622,note_off,64,0,0,,7,,,67,127
41625,note_on,3,0,0,,6,,,66,127
41689,note_off,64,0,0,,6,,,66,127
41689,note_off,0,0,0,,0,,,60,127
41703,note_on,14,0,0,,12,,,59,127
41703,note_on,0,0,0,,7,,,67,127
41767,note_off,64,0,0,,7,,,67,127
41770,note_on,3,0,0,,10,,,69,127
41834,note_off,64,0,0,,10,,,69,127
41837,note_on,3,0,0,,12,,,71,127
41901,note_off,64,0,0,,12,,,71,127
41904,note_on,3,0,0,,0,,,72,127
41968,note_off,64,0,0,,0,,,72,127
41968,note_off,0,0,0,,12,,,59,127
41971,note_on,3,0,0,,0,,,60,127
41971,note_on,0,0,0,,2,,,74,127
42035,note_off,64,0,0,,2,,,74,127
42038,note_on,3,0,0,,4,,,76,127
42102,note_off,64,0,0,,4,,,76,127
42105,note_on,3,0,0,,6,,,78,127
42169,note_off,64,0,0,,6,,,78,127
42172,note_on,3,0,0,,7,,,79,127
42236,note_off,64,0,0,,7,,,79,127
42236,note_off,0,0,0,,0,,,60,127
42239,note_on,3,0,0,,2,,,62,127
42239,note_on,0,0,0,,7,,,67,127
42504,note_off,265,0,0,,7,,,67,127
42504,note_off,0,0,0,,2,,,62,127
42507,note_on,3,0,0,,0,,,60,127
42507,note_on,0,0,0,,7,,,67,127
42571,note_off,64,0,0,,7,,,67,127
42574,note_on,3,0,0,,6,,,66,127
42638,note_off,64,0,0,,6,,,66,127
42641,note_on,3,0,0,,7,,,67,127
42705,note_off,64,0,0,,7,,,67,127
42708,note_on,3,0,0,,6,,,66,127
42772,note_off,64,0,0,,6,,,66,127
42772,note_off,0,0,0,,0,,,60,127
42797,note_on,25,0,0,,7,,,67,127
42797,note_on,0,0,0,,12,,,47,127
42861,note_off,64,0,0,,7,,,67,127
42864,note_on,3,0,0,,10,,,69,127
42928,note_off,64,0,0,,10,,,69,127
42931,note_on,3,0,0,,12,,,71,127
42995,note_off,64,0,0,,12,,,71,127
42998,note_on,3,0,0,,0,,,72,127
43062,note_off,64,0,0,,0,,,72,127
43062,note_off,0,0,0,,12,,,47,127
43065,note_on,3,0,0,,2,,,74,127
43065,note_on,0,0,0,,0,,,48,127
43129,note_off,64,0,0,,2,,,74,127
43132,note_on,3,0,0,,4,,,76,127
43196,note_off,64,0,0,,4,,,76,127
43199,note_on,3,0,0,,6,,,78,127
43263,note_off,64,0,0,,6,,,78,127
43266,note_on,3,0,0,,7,,,79,127
43330,note_off,64,0,0,,7,,,79,127
43330,note_off,0,0,0,,0,,,48,127
43333,note_on,3,0,0,,7,,,67,127
43333,note_on,0,0,0,,2,,,50,127
43598,note_off,265,0,0,,2,,,50,127
43598,note_off,0,0,0,,7,,,67,127
43601,note_on,3,0,0,,7,,,67,127
43601,note_on,0,0,0,,2,,,38,127
43665,note_off,64,0,0,,7,,,67,127
43668,note_on,3,0,0,,6,,,66,127
43732,note_off,64,0,0,,6,,,66,127
43735,note_on,3,0,0,,4,,,64,127
43799,note_off,64,0,0,,4,,,64,127
43802,note_on,3,0,0,,6,,,66,127
43866,note_off,64,0,0,,6,,,66,127
43866,note_off,0,0,0,,2,,,38,127
43869,note_on,3,0,0,,10,,,69,127
43869,note_on,0,0,0,,7,,,43,127
43914,note_on,45,0,0,,7,,,67,127
43934,note_off,20,0,0,,10,,,69,127
43959,note_on,25,0,0,,10,,,69,127
43979,note_off,20,0,0,,7,,,67,127
44004,note_on,25,0,0,,7,,,67,127
44024,note_off,20,0,0,,10,,,69,127
44807,note_off,783,0,0,,7,,,67,127
44941,note_off,134,0,0,,7,,,43,127
45545,note_on,604,0,0,,8,,,68,127
45545,note_on,0,0,0,,2,,,62,127
45810,note_off,265,0,0,,8,,,68,127
45813,note_on,3,0,0,,10,,,69,127
46078,note_off,265,0,0,,2,,,62,127
46081,note_on,3,0,0,,0,,,60,127
46081,note_on,0,0,0,,3,,,51,127
46346,note_off,265,0,0,,3,,,51,127
46346,note_off,0,0,0,,0,,,60,127
46349,note_on,3,0,0,,12,,,59,127
46349,note_on,0,0,0,,4,,,52,127
46614,note_off,265,0,0,,12,,,59,127
46614,note_off,0,0,0,,10,,,69,127
46617,note_on,3,0,0,,8,,,68,127
46617,note_on,0,0,0,,2,,,62,127
46882,note_off,265,0,0,,8,,,68,127
46885,note_on,3,0,0,,10,,,69,127
47150,note_off,265,0,0,,2,,,62,127
47151,note_off,1,0,0,,4,,,52,127
47152,note_on,1,0,0,,3,,,51,127
47152,note_on,0,0,0,,0,,,60,127
47417,note_off,265,0,0,,0,,,60,127
47417,note_off,0,0,0,,3,,,51,127
47417,note_off,0,0,0,,10,,,69,127
47420,note_on,3,0,0,,8,,,68,127
47420,note_on,0,0,0,,12,,,59,127
47420,note_on,0,0,0,,4,,,52,127
47684,note_off,264,0,0,,8,,,68,127
47685,note_off,1,0,0,,12,,,59,127
47699,note_on,14,0,0,,4,,,76,127
47699,note_on,0,0,0,,8,,,68,127
47699,note_on,0,0,0,,4,,,64,127
47964,note_off,265,0,0,,8,,,68,127
47964,note_off,0,0,0,,4,,,76,127
47967,note_on,3,0,0,,10,,,69,127
47967,note_on,0,0,0,,5,,,77,127
48232,note_off,265,0,0,,5,,,77,127
48232,note_off,0,0,0,,10,,,69,127
48232,note_off,0,0,0,,4,,,64,127
48235,note_on,3,0,0,,10,,,81,127
48235,note_on,0,0,0,,2,,,74,127
48235,note_on,0,0,0,,2,,,62,127
48490,note_off,255,0,0,,4,,,52,127
48500,note_off,10,0,0,,2,,,62,127
48500,note_off,0,0,0,,2,,,74,127
48500,note_off,0,0,0,,10,,,81,127
48503,note_on,3,0,0,,12,,,83,127
48503,note_on,0,0,0,,2,,,74,127
48503,note_on,0,0,0,,8,,,56,127
48768,note_off,265,0,0,,8,,,56,127
48768,note_off,0,0,0,,2,,,74,127
48768,note_off,0,0,0,,12,,,83,127
48771,note_on,3,0,0,,0,,,84,127
48771,note_on,0,0,0,,4,,,76,127
48771,note_on,0,0,0,,0,,,60,127
48771,note_on,0,0,0,,10,,,57,127
49036,note_off,265,0,0,,10,,,57,127
49039,note_on,3,0,0,,2,,,50,127
49301,note_off,262,0,0,,0,,,60,127
49304,note_off,3,0,0,,4,,,76,127
49304,note_off,0,0,0,,0,,,84,127
49307,note_on,3,0,0,,12,,,83,127
49307,note_on,0,0,0,,2,,,74,127
49307,note_on,0,0,0,,2,,,62,127
49438,note_off,131,0,0,,2,,,74,127
49438,note_off,0,0,0,,12,,,83,127
49441,note_on,3,0,0,,10,,,81,127
49569,note_off,128,0,0,,2,,,50,127
49572,note_off,3,0,0,,10,,,81,127
49572,note_off,0,0,0,,2,,,62,127
49575,note_on,3,0,0,,12,,,83,127
49575,note_on,0,0,0,,4,,,52,127
49639,note_off,64,0,0,,4,,,52,127
49642,note_on,3,0,0,,6,,,54,127
49706,note_off,64,0,0,,6,,,54,127
49709,note_on,3,0,0,,8,,,56,127
49773,note_off,64,0,0,,8,,,56,127
49776,note_on,3,0,0,,10,,,57,127
49840,note_off,64,0,0,,10,,,57,127
49840,note_off,0,0,0,,12,,,83,127
49843,note_on,3,0,0,,4,,,76,127
49843,note_on,0,0,0,,12,,,59,127
49907,note_off,64,0,0,,12,,,59,127
49910,note_on,3,0,0,,0,,,60,127
49974,note_off,64,0,0,,0,,,60,127
49977,note_on,3,0,0,,2,,,62,127
50041,note_off,64,0,0,,2,,,62,127
50044,note_on,3,0,0,,4,,,64,127
50108,note_off,64,0,0,,4,,,64,127
50111,note_on,3,0,0,,10,,,57,127
50175,note_off,64,0,0,,10,,,57,127
50178,note_on,3,0,0,,12,,,59,127
50242,note_off,64,0,0,,12,,,59,127
50245,note_off,3,0,0,,4,,,76,127
50245,note_on,0,0,0,,0,,,60,127
50309,note_off,64,0,0,,0,,,60,127
50312,note_on,3,0,0,,2,,,62,127
50376,note_off,64,0,0,,2,,,62,127
50379,note_on,3,0,0,,10,,,81,127
50379,note_on,0,0,0,,4,,,64,127
50443,note_off,64,0,0,,4,,,64,127
50443,note_off,0,0,0,,10,,,81,127
50446,note_on,3,0,0,,12,,,83,127
50446,note_on,0,0,0,,6,,,66,127
50510,note_off,64,0,0,,6,,,66,127
50510,note_off,0,0,0,,12,,,83,127
50513,note_on,3,0,0,,0,,,84,127
50513,note_on,0,0,0,,8,,,68,127
50577,note_off,64,0,0,,8,,,68,127
50580,note_on,3,0,0,,10,,,69,127
50644,note_off,64,0,0,,10,,,69,127
50647,note_on,3,0,0,,4,,,52,127
50711,note_off,64,0,0,,0,,,84,127
50714,note_on,3,0,0,,12,,,83,127
50778,note_off,64,0,0,,12,,,83,127
50781,note_on,3,0,0,,10,,,81,127
50845,note_off,64,0,0,,10,,,81,127
50848,note_on,3,0,0,,8,,,80,127
50912,note_off,64,0,0,,8,,,80,127
50915,note_on,3,0,0,,6,,,78,127
50979,note_off,64,0,0,,6,,,78,127
50982,note_on,3,0,0,,4,,,76,127
51046,note_off,64,0,0,,4,,,76,127
51049,note_on,3,0,0,,2,,,74,127
51113,note_off,64,0,0,,2,,,74,127
51116,note_on,3,0,0,,0,,,72,127
51180,note_off,64,0,0,,0,,,72,127
51183,note_on,3,0,0,,12,,,71,127
51247,note_off,64,0,0,,12,,,71,127
51250,note_on,3,0,0,,10,,,69,127
51314,note_off,64,0,0,,10,,,69,127
51317,note_on,3,0,0,,8,,,68,127
51381,note_off,64,0,0,,8,,,68,127
51384,note_on,3,0,0,,6,,,66,127
51448,note_off,64,0,0,,6,,,66,127
51448,note_off,0,0,0,,4,,,52,127
51451,note_on,3,0,0,,4,,,64,127
51451,note_on,0,0,0,,4,,,40,127
51515,note_off,64,0,0,,4,,,64,127
51518,note_on,3,0,0,,2,,,62,127
51582,note_off,64,0,0,,2,,,62,127
51585,note_on,3,0,0,,0,,,60,127
51649,note_off,64,0,0,,0,,,60,127
51652,note_on,3,0,0,,12,,,59,127
51716,note_off,64,0,0,,12,,,59,127
51716,note_off,0,0,0,,4,,,40,127
51727,note_on,11,0,0,,10,,,57,127
51727,note_on,0,0,0,,10,,,45,127
51992,note_off,265,0,0,,10,,,57,127
52017,note_on,25,0,0,,4,,,76,127
52017,note_on,0,0,0,,4,,,64,127
52017,note_on,0,0,0,,10,,,57,127
52257,note_off,240,0,0,,10,,,45,127
52282,note_off,25,0,0,,4,,,64,127
52288,note_on,6,0,0,,5,,,65,127
52550,note_off,262,0,0,,4,,,76,127
52556,note_on,6,0,0,,2,,,74,127
52821,note_off,265,0,0,,2,,,74,127
52821,note_off,0,0,0,,5,,,65,127
52824,note_on,3,0,0,,4,,,64,127
52824,note_on,0,0,0,,1,,,73,127
53089,note_off,265,0,0,,1,,,73,127
53089,note_off,0,0,0,,4,,,64,127
53092,note_on,3,0,0,,2,,,62,127
53092,note_on,0,0,0,,11,,,70,127
53092,note_on,0,0,0,,2,,,74,127
53357,note_off,265,0,0,,2,,,74,127
53357,note_off,0,0,0,,11,,,70,127
53357,note_off,0,0,0,,2,,,62,127
53360,note_on,3,0,0,,1,,,61,127
53360,note_on,0,0,0,,10,,,69,127
53360,note_on,0,0,0,,7,,,79,127
53622,note_off,262,0,0,,10,,,57,127
53625,note_off,3,0,0,,1,,,61,127
53628,note_on,3,0,0,,10,,,57,127
53759,note_off,131,0,0,,7,,,79,127
53762,note_on,3,0,0,,5,,,77,127
53826,note_off,64,0,0,,5,,,77,127
53829,note_on,3,0,0,,4,,,76,127
53890,note_off,61,0,0,,10,,,69,127
53893,note_off,3,0,0,,10,,,57,127
53897,note_off,4,0,0,,4,,,76,127
53907,note_on,10,0,0,,2,,,62,127
53907,note_on,0,0,0,,5,,,65,127
53907,note_on,0,0,0,,5,,,77,127
54172,note_off,265,0,0,,5,,,77,127
54172,note_off,0,0,0,,5,,,65,127
54172,note_off,0,0,0,,2,,,62,127
54175,note_on,3,0,0,,7,,,67,127
54175,note_on,0,0,0,,4,,,64,127
54175,note_on,0,0,0,,4,,,76,127
54440,note_off,265,0,0,,4,,,64,127
54440,note_off,0,0,0,,7,,,67,127
54443,note_on,3,0,0,,5,,,65,127
54443,note_on,0,0,0,,10,,,69,127
54708,note_off,265,0,0,,5,,,65,127
54708,note_off,0,0,0,,4,,,76,127
54711,note_on,3,0,0,,5,,,65,127
54711,note_on,0,0,0,,2,,,74,127
54711,note_on,0,0,0,,10,,,81,127
54842,note_off,131,0,0,,2,,,74,127
54845,note_on,3,0,0,,0,,,72,127
54973,note_off,128,0,0,,10,,,69,127
54976,note_off,3,0,0,,0,,,72,127
54976,note_off,0,0,0,,10,,,81,127
54976,note_off,0,0,0,,5,,,65,127
54990,note_on,14,0,0,,5,,,65,127
54990,note_on,0,0,0,,7,,,55,127
54990,note_on,0,0,0,,7,,,79,127
54990,note_on,0,0,0,,12,,,71,127
55255,note_off,265,0,0,,12,,,71,127
55255,note_off,0,0,0,,7,,,55,127
55255,note_off,0,0,0,,5,,,65,127
55258,note_on,3,0,0,,7,,,55,127
55258,note_on,0,0,0,,4,,,64,127
55258,note_on,0,0,0,,0,,,72,127
55523,note_off,265,0,0,,0,,,72,127
55523,note_off,0,0,0,,4,,,64,127
55523,note_off,0,0,0,,7,,,55,127
55526,note_on,3,0,0,,7,,,55,127
55526,note_on,0,0,0,,2,,,62,127
55526,note_on,0,0,0,,2,,,74,127
55791,note_off,265,0,0,,2,,,74,127
55791,note_off,0,0,0,,2,,,62,127
55791,note_off,0,0,0,,7,,,55,127
55794,note_on,3,0,0,,7,,,55,127
55794,note_on,0,0,0,,0,,,60,127
55794,note_on,0,0,0,,4,,,76,127
56059,note_off,265,0,0,,4,,,76,127
56059,note_off,0,0,0,,0,,,60,127
56059,note_off,0,0,0,,7,,,55,127
56060,note_off,1,0,0,,7,,,79,127
56061,note_on,1,0,0,,12,,,59,127
56061,note_on,0,0,0,,7,,,79,127
56125,note_off,64,0,0,,7,,,79,127
56128,note_on,3,0,0,,5,,,77,127
56192,note_off,64,0,0,,5,,,77,127
56195,note_on,3,0,0,,7,,,79,127
56259,note_off,64,0,0,,7,,,79,127
56262,note_on,3,0,0,,5,,,77,127
56326,note_off,64,0,0,,5,,,77,127
56326,note_off,0,0,0,,12,,,59,127
56329,note_on,3,0,0,,7,,,55,127
56329,note_on,0,0,0,,7,,,79,127
56393,note_off,64,0,0,,7,,,79,127
56396,note_on,3,0,0,,5,,,77,127
56460,note_off,64,0,0,,5,,,77,127
56463,note_on,3,0,0,,4,,,76,127
56527,note_off,64,0,0,,4,,,76,127
56530,note_on,3,0,0,,2,,,74,127
56594,note_off,64,0,0,,2,,,74,127
56594,note_off,0,0,0,,7,,,55,127
56597,note_on,3,0,0,,0,,,60,127
56597,note_on,0,0,0,,5,,,77,127
56661,note_off,64,0,0,,5,,,77,127
56664,note_on,3,0,0,,4,,,76,127
56728,note_off,64,0,0,,4,,,76,127
56731,note_on,3,0,0,,5,,,77,127
56795,note_off,64,0,0,,5,,,77,127
56798,note_on,3,0,0,,4,,,76,127
56862,note_off,64,0,0,,4,,,76,127
56865,note_on,3,0,0,,0,,,48,127
56865,note_on,0,0,0,,5,,,77,127
56929,note_off,64,0,0,,5,,,77,127
56932,note_on,3,0,0,,4,,,76,127
56996,note_off,64,0,0,,4,,,76,127
56999,note_on,3,0,0,,2,,,74,127
57063,note_off,64,0,0,,2,,,74,127
57066,note_on,3,0,0,,0,,,72,127
57127,note_off,61,0,0,,0,,,60,127
57130,note_off,3,0,0,,0,,,72,127
57130,note_off,0,0,0,,0,,,48,127
57133,note_on,3,0,0,,7,,,55,127
57133,note_on,0,0,0,,2,,,74,127
57197,note_off,64,0,0,,7,,,55,127
57200,note_on,3,0,0,,10,,,57,127
57264,note_off,64,0,0,,10,,,57,127
57267,note_on,3,0,0,,12,,,59,127
57331,note_off,64,0,0,,12,,,59,127
57334,note_on,3,0,0,,0,,,60,127
57398,note_off,64,0,0,,0,,,60,127
57398,note_off,0,0,0,,2,,,74,127
57401,note_on,3,0,0,,2,,,62,127
57401,note_on,0,0,0,,7,,,79,127
57465,note_off,64,0,0,,2,,,62,127
57468,note_on,3,0,0,,4,,,64,127
57532,note_off,64,0,0,,4,,,64,127
57535,note_on,3,0,0,,5,,,65,127
57599,note_off,64,0,0,,5,,,65,127
57602,note_on,3,0,0,,7,,,67,127
57666,note_off,64,0,0,,7,,,67,127
57669,note_on,3,0,0,,0,,,60,127
57733,note_off,64,0,0,,0,,,60,127
57736,note_on,3,0,0,,2,,,62,127
57800,note_off,64,0,0,,2,,,62,127
57803,note_on,3,0,0,,4,,,64,127
57867,note_off,64,0,0,,4,,,64,127
57870,note_on,3,0,0,,5,,,65,127
57934,note_off,64,0,0,,5,,,65,127
57934,note_off,0,0,0,,7,,,79,127
57937,note_on,3,0,0,,7,,,67,127
57937,note_on,0,0,0,,4,,,76,127
58001,note_off,64,0,0,,7,,,67,127
58004,note_on,3,0,0,,10,,,69,127
58068,note_off,64,0,0,,10,,,69,127
58071,note_on,3,0,0,,12,,,71,127
58135,note_off,64,0,0,,12,,,71,127
58138,note_on,3,0,0,,0,,,72,127
58202,note_off,64,0,0,,0,,,72,127
58202,note_off,0,0,0,,4,,,76,127
58205,note_on,3,0,0,,7,,,55,127
58205,note_on,0,0,0,,2,,,74,127
58269,note_off,64,0,0,,2,,,74,127
58272,note_on,3,0,0,,7,,,79,127
58336,note_off,64,0,0,,7,,,79,127
58339,note_on,3,0,0,,5,,,77,127
58403,note_off,64,0,0,,5,,,77,127
58406,note_on,3,0,0,,4,,,76,127
58470,note_off,64,0,0,,4,,,76,127
58473,note_on,3,0,0,,2,,,74,127
58537,note_off,64,0,0,,2,,,74,127
58540,note_on,3,0,0,,0,,,72,127
58604,note_off,64,0,0,,0,,,72,127
58607,note_on,3,0,0,,12,,,71,127
58671,note_off,64,0,0,,12,,,71,127
58674,note_on,3,0,0,,10,,,69,127
58738,note_off,64,0,0,,10,,,69,127
58741,note_on,3,0,0,,7,,,67,127
58805,note_off,64,0,0,,7,,,67,127
58808,note_on,3,0,0,,5,,,65,127
58872,note_off,64,0,0,,5,,,65,127
58875,note_on,3,0,0,,4,,,64,127
58939,note_off,64,0,0,,4,,,64,127
58942,note_on,3,0,0,,2,,,62,127
59006,note_off,64,0,0,,2,,,62,127
59007,note_off,1,0,0,,7,,,55,127
59008,note_on,1,0,0,,0,,,60,127
59072,note_off,64,0,0,,0,,,60,127
59075,note_on,3,0,0,,12,,,59,127
59139,note_off,64,0,0,,12,,,59,127
59142,note_on,3,0,0,,10,,,57,127
59206,note_off,64,0,0,,10,,,57,127
59209,note_on,3,0,0,,7,,,55,127
59286,note_off,77,0,0,,7,,,55,127
59299,note_on,13,0,0,,0,,,48,127
59363,note_off,64,0,0,,0,,,48,127
59366,note_on,3,0,0,,2,,,50,127
59430,note_off,64,0,0,,2,,,50,127
59433,note_on,3,0,0,,4,,,52,127
59497,note_off,64,0,0,,4,,,52,127
59500,note_on,3,0,0,,5,,,53,127
59564,note_off,64,0,0,,5,,,53,127
59567,note_on,3,0,0,,7,,,79,127
59567,note_on,0,0,0,,7,,,55,127
59631,note_off,64,0,0,,7,,,55,127
59634,note_on,3,0,0,,10,,,57,127
59698,note_off,64,0,0,,10,,,57,127
59701,note_on,3,0,0,,12,,,59,127
59765,note_off,64,0,0,,12,,,59,127
59768,note_on,3,0,0,,0,,,60,127
59832,note_off,64,0,0,,0,,,60,127
59832,note_off,0,0,0,,7,,,79,127
59835,note_on,3,0,0,,10,,,81,127
59835,note_on,0,0,0,,7,,,55,127
59880,note_on,45,0,0,,7,,,79,127
59900,note_off,20,0,0,,7,,,55,127
59900,note_off,0,0,0,,10,,,81,127
59903,note_on,3,0,0,,10,,,57,127
59925,note_on,22,0,0,,10,,,81,127
59945,note_off,20,0,0,,7,,,79,127
59967,note_off,22,0,0,,10,,,57,127
59970,note_on,3,0,0,,7,,,79,127
59970,note_on,0,0,0,,12,,,59,127
59990,note_off,20,0,0,,10,,,81,127
60035,note_off,45,0,0,,12,,,59,127
60038,note_on,3,0,0,,0,,,60,127
60102,note_off,64,0,0,,0,,,60,127
60105,note_on,3,0,0,,2,,,62,127
60169,note_off,64,0,0,,2,,,62,127
60172,note_on,3,0,0,,4,,,64,127
60236,note_off,64,0,0,,4,,,64,127
60239,note_on,3,0,0,,5,,,65,127
60303,note_off,64,0,0,,5,,,65,127
60306,note_on,3,0,0,,7,,,67,127
60370,note_off,64,0,0,,7,,,67,127
60373,note_off,3,0,0,,7,,,79,127
60373,note_on,0,0,0,,0,,,60,127
60437,note_off,64,0,0,,0,,,60,127
60440,note_on,3,0,0,,2,,,62,127
60504,note_off,64,0,0,,2,,,62,127
60507,note_on,3,0,0,,4,,,64,127
60571,note_off,64,0,0,,4,,,64,127
60574,note_on,3,0,0,,5,,,65,127
60638,note_off,64,0,0,,5,,,65,127
60641,note_on,3,0,0,,7,,,79,127
60641,note_on,0,0,0,,7,,,67,127
60705,note_off,64,0,0,,7,,,67,127
60708,note_on,3,0,0,,10,,,69,127
60772,note_off,64,0,0,,10,,,69,127
60775,note_on,3,0,0,,12,,,71,127
60839,note_off,64,0,0,,12,,,71,127
60842,note_on,3,0,0,,0,,,72,127
60906,note_off,64,0,0,,0,,,72,127
60906,note_off,0,0,0,,7,,,79,127
60909,note_on,3,0,0,,10,,,81,127
60909,note_on,0,0,0,,7,,,67,127
60954,note_on,45,0,0,,7,,,79,127
60974,note_off,20,0,0,,7,,,67,127
60974,note_off,0,0,0,,10,,,81,127
60977,note_on,3,0,0,,10,,,69,127
60999,note_on,22,0,0,,10,,,81,127
61019,note_off,20,0,0,,7,,,79,127
61041,note_off,22,0,0,,10,,,69,127
61044,note_on,3,0,0,,7,,,79,127
61044,note_on,0,0,0,,12,,,71,127
61064,note_off,20,0,0,,10,,,81,127
61109,note_off,45,0,0,,12,,,71,127
61112,note_on,3,0,0,,0,,,72,127
61176,note_off,64,0,0,,0,,,72,127
61179,note_on,3,0,0,,2,,,74,127
61243,note_off,64,0,0,,2,,,74,127
61246,note_on,3,0,0,,4,,,76,127
61310,note_off,64,0,0,,4,,,76,127
61313,note_on,3,0,0,,5,,,77,127
61377,note_off,64,0,0,,5,,,77,127
61377,note_off,0,0,0,,7,,,79,127
61380,note_on,3,0,0,,7,,,79,127
61453,note_on,73,0,0,,0,,,36,127
61526,note_off,73,0,0,,7,,,79,127
61526,note_on,0,0,0,,0,,,84,127
61590,note_off,64,0,0,,0,,,84,127
61593,note_on,3,0,0,,12,,,83,127
61657,note_off,64,0,0,,12,,,83,127
61660,note_on,3,0,0,,10,,,81,127
61724,note_off,64,0,0,,10,,,81,127
61727,note_on,3,0,0,,7,,,79,127
61791,note_off,64,0,0,,7,,,79,127
61794,note_on,3,0,0,,5,,,77,127
61858,note_off,64,0,0,,5,,,77,127
61861,note_on,3,0,0,,4,,,76,127
61925,note_off,64,0,0,,4,,,76,127
61928,note_on,3,0,0,,2,,,74,127
61992,note_off,64,0,0,,2,,,74,127
61995,note_on,3,0,0,,0,,,72,127
62059,note_off,64,0,0,,0,,,72,127
62062,note_on,3,0,0,,12,,,71,127
62126,note_off,64,0,0,,12,,,71,127
62129,note_on,3,0,0,,10,,,69,127
62193,note_off,64,0,0,,10,,,69,127
62196,note_on,3,0,0,,7,,,67,127
62260,note_off,64,0,0,,7,,,67,127
62263,note_on,3,0,0,,5,,,65,127
62327,note_off,64,0,0,,5,,,65,127
62330,note_on,3,0,0,,4,,,64,127
62394,note_off,64,0,0,,4,,,64,127
62397,note_on,3,0,0,,2,,,62,127
62461,note_off,64,0,0,,2,,,62,127
62464,note_on,3,0,0,,0,,,60,127
62523,note_off,59,0,0,,0,,,36,127
62529,note_off,6,0,0,,0,,,60,127
62532,note_on,3,0,0,,10,,,69,127
62532,note_on,0,0,0,,5,,,41,127
62596,note_off,64,0,0,,10,,,69,127
62599,note_on,3,0,0,,7,,,67,127
62663,note_off,64,0,0,,7,,,67,127
62666,note_on,3,0,0,,5,,,65,127
62730,note_off,64,0,0,,5,,,65,127
62733,note_on,3,0,0,,4,,,64,127
62797,note_off,64,0,0,,4,,,64,127
62800,note_on,3,0,0,,2,,,62,127
62864,note_off,64,0,0,,2,,,62,127
62867,note_on,3,0,0,,0,,,60,127
62931,note_off,64,0,0,,0,,,60,127
62934,note_on,3,0,0,,12,,,59,127
62998,note_off,64,0,0,,12,,,59,127
63001,note_on,3,0,0,,10,,,57,127
63065,note_off,64,0,0,,10,,,57,127
63065,note_off,0,0,0,,5,,,41,127
63068,note_on,3,0,0,,2,,,62,127
63068,note_on,0,0,0,,7,,,43,127
63132,note_off,64,0,0,,2,,,62,127
63135,note_on,3,0,0,,0,,,60,127
63199,note_off,64,0,0,,0,,,60,127
63202,note_on,3,0,0,,12,,,59,127
63266,note_off,64,0,0,,12,,,59,127
63269,note_on,3,0,0,,10,,,57,127
63333,note_off,64,0,0,,10,,,57,127
63336,note_on,3,0,0,,7,,,55,127
63400,note_off,64,0,0,,7,,,55,127
63403,note_on,3,0,0,,5,,,53,127
63467,note_off,64,0,0,,5,,,53,127
63470,note_on,3,0,0,,4,,,52,127
63534,note_off,64,0,0,,4,,,52,127
63537,note_on,3,0,0,,2,,,50,127
63601,note_off,64,0,0,,2,,,50,127
63601,note_off,0,0,0,,7,,,43,127
63615,note_on,14,0,0,,0,,,48,127
63679,note_off,64,0,0,,0,,,48,127
63682,note_on,3,0,0,,2,,,50,127
63746,note_off,64,0,0,,2,,,50,127
63749,note_on,3,0,0,,4,,,52,127
63813,note_off,64,0,0,,4,,,52,127
63816,note_on,3,0,0,,5,,,53,127
63880,note_off,64,0,0,,5,,,53,127
63883,note_on,3,0,0,,7,,,79,127
63883,note_on,0,0,0,,7,,,55,127
63947,note_off,64,0,0,,7,,,55,127
63950,note_on,3,0,0,,10,,,57,127
64014,note_off,64,0,0,,10,,,57,127
64017,note_on,3,0,0,,12,,,59,127
64081,note_off,64,0,0,,12,,,59,127
64084,note_on,3,0,0,,0,,,60,127
64148,note_off,64,0,0,,0,,,60,127
64148,note_off,0,0,0,,7,,,79,127
64151,note_on,3,0,0,,10,,,81,127
64151,note_on,0,0,0,,7,,,55,127
64196,note_on,45,0,0,,7,,,79,127
64216,note_off,20,0,0,,7,,,55,127
64216,note_off,0,0,0,,10,,,81,127
64219,note_on,3,0,0,,10,,,57,127
64241,note_on,22,0,0,,10,,,81,127
64261,note_off,20,0,0,,7,,,79,127
64283,note_off,22,0,0,,10,,,57,127
64286,note_on,3,0,0,,7,,,79,127
64286,note_on,0,0,0,,12,,,59,127
64306,note_off,20,0,0,,10,,,81,127
64351,note_off,45,0,0,,12,,,59,127
64354,note_on,3,0,0,,0,,,60,127
64418,note_off,64,0,0,,0,,,60,127
64421,note_on,3,0,0,,2,,,62,127
64485,note_off,64,0,0,,2,,,62,127
64488,note_on,3,0,0,,4,,,64,127
64552,note_off,64,0,0,,4,,,64,127
64555,note_on,3,0,0,,5,,,65,127
64619,note_off,64,0,0,,5,,,65,127
64619,note_off,0,0,0,,7,,,79,127
64622,note_on,3,0,0,,7,,,67,127
64686,note_off,64,0,0,,7,,,67,127
64689,note_on,3,0,0,,0,,,60,127
64753,note_off,64,0,0,,0,,,60,127
64756,note_on,3,0,0,,2,,,62,127
64820,note_off,64,0,0,,2,,,62,127
64823,note_on,3,0,0,,4,,,64,127
64887,note_off,64,0,0,,4,,,64,127
64890,note_on,3,0,0,,5,,,65,127
64954,note_off,64,0,0,,5,,,65,127
64957,note_on,3,0,0,,7,,,79,127
64957,note_on,0,0,0,,7,,,67,127
65021,note_off,64,0,0,,7,,,67,127
65024,note_on,3,0,0,,10,,,69,127
65088,note_off,64,0,0,,10,,,69,127
65091,note_on,3,0,0,,12,,,71,127
65155,note_off,64,0,0,,12,,,71,127
65158,note_on,3,0,0,,0,,,72,127
65222,note_off,64,0,0,,0,,,72,127
65222,note_off,0,0,0,,7,,,79,127
65225,note_on,3,0,0,,10,,,81,127
65225,note_on,0,0,0,,7,,,67,127
65270,note_on,45,0,0,,7,,,79,127
65290,note_off,20,0,0,,7,,,67,127
65290,note_off,0,0,0,,10,,,81,127
65293,note_on,3,0,0,,10,,,69,127
65315,note_on,22,0,0,,10,,,81,127
65335,note_off,20,0,0,,7,,,79,127
65357,note_off,22,0,0,,10,,,69,127
65360,note_on,3,0,0,,7,,,79,127
65360,note_on,0,0,0,,12,,,71,127
65380,note_off,20,0,0,,10,,,81,127
65425,note_off,45,0,0,,12,,,71,127
65428,note_on,3,0,0,,0,,,72,127
65492,note_off,64,0,0,,0,,,72,127
65495,note_on,3,0,0,,2,,,74,127
65559,note_off,64,0,0,,2,,,74,127
65562,note_on,3,0,0,,4,,,76,127
65626,note_off,64,0,0,,4,,,76,127
65629,note_on,3,0,0,,5,,,77,127
65693,note_off,64,0,0,,5,,,77,127
65693,note_off,0,0,0,,7,,,79,127
65696,note_on,3,0,0,,7,,,79,127
65763,note_on,67,0,0,,0,,,36,127
65841,note_off,78,0,0,,7,,,79,127
65841,note_on,0,0,0,,0,,,84,127
65905,note_off,64,0,0,,0,,,84,127
65908,note_on,3,0,0,,12,,,83,127
65972,note_off,64,0,0,,12,,,83,127
65975,note_on,3,0,0,,10,,,81,127
66039,note_off,64,0,0,,10,,,81,127
66042,note_on,3,0,0,,7,,,79,127
66106,note_off,64,0,0,,7,,,79,127
66109,note_on,3,0,0,,5,,,77,127
66173,note_off,64,0,0,,5,,,77,127
66176,note_on,3,0,0,,4,,,76,127
66240,note_off,64,0,0,,4,,,76,127
66243,note_on,3,0,0,,2,,,74,127
66307,note_off,64,0,0,,2,,,74,127
66310,note_on,3,0,0,,0,,,72,127
66374,note_off,64,0,0,,0,,,72,127
66377,note_on,3,0,0,,12,,,71,127
66441,note_off,64,0,0,,12,,,71,127
66444,note_on,3,0,0,,10,,,69,127
66508,note_off,64,0,0,,10,,,69,127
66511,note_on,3,0,0,,7,,,67,127
66575,note_off,64,0,0,,7,,,67,127
66578,note_on,3,0,0,,5,,,65,127
66642,note_off,64,0,0,,5,,,65,127
66645,note_on,3,0,0,,4,,,64,127
66709,note_off,64,0,0,,4,,,64,127
66712,note_on,3,0,0,,2,,,62,127
66776,note_off,64,0,0,,2,,,62,127
66779,note_on,3,0,0,,0,,,60,127
66832,note_off,53,0,0,,0,,,36,127
66843,note_off,11,0,0,,0,,,60,127
66846,note_on,3,0,0,,10,,,69,127
66846,note_on,0,0,0,,5,,,41,127
66910,note_off,64,0,0,,10,,,69,127
66913,note_on,3,0,0,,7,,,67,127
66977,note_off,64,0,0,,7,,,67,127
66980,note_on,3,0,0,,5,,,65,127
67044,note_off,64,0,0,,5,,,65,127
67047,note_on,3,0,0,,4,,,64,127
67111,note_off,64,0,0,,4,,,64,127
67114,note_on,3,0,0,,2,,,62,127
67178,note_off,64,0,0,,2,,,62,127
67181,note_on,3,0,0,,0,,,60,127
67245,note_off,64,0,0,,0,,,60,127
67248,note_on,3,0,0,,12,,,59,127
67312,note_off,64,0,0,,12,,,59,127
67315,note_on,3,0,0,,10,,,57,127
67379,note_off,64,0,0,,10,,,57,127
67379,note_off,0,0,0,,5,,,41,127
67382,note_on,3,0,0,,2,,,62,127
67382,note_on,0,0,0,,7,,,43,127
67446,note_off,64,0,0,,2,,,62,127
67449,note_on,3,0,0,,0,,,60,127
67513,note_off,64,0,0,,0,,,60,127
67516,note_on,3,0,0,,12,,,59,127
67580,note_off,64,0,0,,12,,,59,127
67583,note_on,3,0,0,,10,,,57,127
67647,note_off,64,0,0,,10,,,57,127
67650,note_on,3,0,0,,7,,,55,127
67714,note_off,64,0,0,,7,,,55,127
67717,note_on,3,0,0,,5,,,53,127
67781,note_off,64,0,0,,5,,,53,127
67784,note_on,3,0,0,,4,,,52,127
67848,note_off,64,0,0,,4,,,52,127
67851,note_on,3,0,0,,2,,,50,127
67915,note_off,64,0,0,,2,,,50,127
67915,note_off,0,0,0,,7,,,43,127
67918,note_on,3,0,0,,0,,,48,127
68720,note_off,802,0,0,,0,,,48,127
68855,note_on,135,0,0,,7,,,79,127
69120,note_off,265,0,0,,7,,,79,127
69123,note_on,3,0,0,,10,,,81,127
69173,note_off,50,0,0,,10,,,81,127
69176,note_on,3,0,0,,7,,,79,127
69228,note_off,52,0,0,,7,,,79,127
69231,note_on,3,0,0,,10,,,81,127
69281,note_off,50,0,0,,10,,,81,127
69284,note_on,3,0,0,,7,,,79,127
69334,note_off,50,0,0,,7,,,79,127
69337,note_on,3,0,0,,10,,,81,127
69389,note_off,52,0,0,,10,,,81,127
69392,note_on,3,0,0,,2,,,50,127
69392,note_on,0,0,0,,12,,,59,127
69392,note_on,0,0,0,,7,,,79,127
69442,note_off,50,0,0,,7,,,79,127
69445,note_on,3,0,0,,5,,,77,127
69497,note_off,52,0,0,,5,,,77,127
69500,note_on,3,0,0,,4,,,76,127
69550,note_off,50,0,0,,4,,,76,127
69553,note_on,3,0,0,,5,,,77,127
69603,note_off,50,0,0,,5,,,77,127
69606,note_on,3,0,0,,7,,,79,127
69658,note_off,52,0,0,,7,,,79,127
69658,note_off,0,0,0,,12,,,59,127
69658,note_off,0,0,0,,2,,,50,127
69661,note_on,3,0,0,,0,,,60,127
69661,note_on,0,0,0,,4,,,52,127
69661,note_on,0,0,0,,10,,,81,127
69711,note_off,50,0,0,,10,,,81,127
69714,note_on,3,0,0,,7,,,79,127
69766,note_off,52,0,0,,7,,,79,127
69769,note_on,3,0,0,,10,,,81,127
69819,note_off,50,0,0,,10,,,81,127
69822,note_on,3,0,0,,7,,,79,127
69872,note_off,50,0,0,,7,,,79,127
69875,note_on,3,0,0,,10,,,81,127
69927,note_off,52,0,0,,10,,,81,127
69927,note_off,0,0,0,,4,,,52,127
69930,note_on,3,0,0,,2,,,50,127
69930,note_on,0,0,0,,7,,,79,127
69980,note_off,50,0,0,,7,,,79,127
69983,note_on,3,0,0,,5,,,77,127
70035,note_off,52,0,0,,5,,,77,127
70038,note_on,3,0,0,,4,,,76,127
70088,note_off,50,0,0,,4,,,76,127
70091,note_on,3,0,0,,5,,,77,127
70141,note_off,50,0,0,,5,,,77,127
70144,note_on,3,0,0,,7,,,79,127
70193,note_off,49,0,0,,0,,,60,127
70196,note_off,3,0,0,,7,,,79,127
70196,note_off,0,0,0,,2,,,50,127
70199,note_on,3,0,0,,0,,,60,127
70199,note_on,0,0,0,,4,,,52,127
70199,note_on,0,0,0,,10,,,81,127
70249,note_off,50,0,0,,10,,,81,127
70252,note_on,3,0,0,,7,,,79,127
70304,note_off,52,0,0,,7,,,79,127
70307,note_on,3,0,0,,10,,,81,127
70357,note_off,50,0,0,,10,,,81,127
70360,note_on,3,0,0,,7,,,79,127
70410,note_off,50,0,0,,7,,,79,127
70413,note_on,3,0,0,,10,,,81,127
70465,note_off,52,0,0,,10,,,81,127
70465,note_off,0,0,0,,4,,,52,127
70468,note_on,3,0,0,,0,,,48,127
70468,note_on,0,0,0,,7,,,79,127
70518,note_off,50,0,0,,7,,,79,127
70521,note_on,3,0,0,,10,,,81,127
70573,note_off,52,0,0,,10,,,81,127
70576,note_on,3,0,0,,7,,,79,127
70626,note_off,50,0,0,,7,,,79,127
70629,note_on,3,0,0,,5,,,77,127
70679,note_off,50,0,0,,5,,,77,127
70682,note_on,3,0,0,,7,,,79,127
70731,note_off,49,0,0,,0,,,60,127
70734,note_off,3,0,0,,7,,,79,127
70734,note_off,0,0,0,,0,,,48,127
70748,note_on,14,0,0,,5,,,53,127
70748,note_on,0,0,0,,10,,,81,127
70835,note_off,87,0,0,,10,,,81,127
70838,note_on,3,0,0,,7,,,79,127
70925,note_off,87,0,0,,7,,,79,127
70928,note_on,3,0,0,,5,,,77,127
71015,note_off,87,0,0,,5,,,77,127
71015,note_off,0,0,0,,5,,,53,127
71018,note_on,3,0,0,,5,,,65,127
71018,note_on,0,0,0,,4,,,76,127
71105,note_off,87,0,0,,4,,,76,127
71108,note_on,3,0,0,,2,,,74,127
71195,note_off,87,0,0,,2,,,74,127
71198,note_on,3,0,0,,0,,,72,127
71285,note_off,87,0,0,,0,,,72,127
71285,note_off,0,0,0,,5,,,65,127
71288,note_on,3,0,0,,7,,,67,127
71288,note_on,0,0,0,,0,,,72,127
71553,note_off,265,0,0,,0,,,72,127
71553,note_off,0,0,0,,7,,,67,127
71556,note_on,3,0,0,,5,,,65,127
71556,note_on,0,0,0,,0,,,72,127
71620,note_off,64,0,0,,0,,,72,127
71623,note_on,3,0,0,,12,,,71,127
71687,note_off,64,0,0,,12,,,71,127
71690,note_on,3,0,0,,0,,,72,127
71754,note_off,64,0,0,,0,,,72,127
71757,note_on,3,0,0,,12,,,71,127
71821,note_off,64,0,0,,5,,,65,127
71835,note_off,14,0,0,,12,,,71,127
71835,note_on,0,0,0,,4,,,64,127
71835,note_on,0,0,0,,0,,,72,127
71899,note_off,64,0,0,,0,,,72,127
71902,note_on,3,0,0,,2,,,74,127
71966,note_off,64,0,0,,2,,,74,127
71969,note_on,3,0,0,,4,,,76,127
72033,note_off,64,0,0,,4,,,76,127
72036,note_on,3,0,0,,5,,,77,127
72100,note_off,64,0,0,,5,,,77,127
72100,note_off,0,0,0,,4,,,64,127
72103,note_on,3,0,0,,5,,,65,127
72103,note_on,0,0,0,,7,,,79,127
72167,note_off,64,0,0,,7,,,79,127
72170,note_on,3,0,0,,10,,,81,127
72234,note_off,64,0,0,,10,,,81,127
72237,note_on,3,0,0,,12,,,83,127
72301,note_off,64,0,0,,12,,,83,127
72304,note_on,3,0,0,,0,,,84,127
72368,note_off,64,0,0,,0,,,84,127
72368,note_off,0,0,0,,5,,,65,127
72371,note_on,3,0,0,,7,,,67,127
72371,note_on,0,0,0,,0,,,72,127
72636,note_off,265,0,0,,0,,,72,127
72636,note_off,0,0,0,,7,,,67,127
72639,note_on,3,0,0,,5,,,65,127
72639,note_on,0,0,0,,0,,,72,127
72703,note_off,64,0,0,,0,,,72,127
72706,note_on,3,0,0,,12,,,71,127
72770,note_off,64,0,0,,12,,,71,127
72773,note_on,3,0,0,,0,,,72,127
72837,note_off,64,0,0,,0,,,72,127
72840,note_on,3,0,0,,12,,,71,127
72904,note_off,64,0,0,,5,,,65,127
72917,note_off,13,0,0,,12,,,71,127
72930,note_on,13,0,0,,4,,,64,127
72930,note_on,0,0,0,,0,,,72,127
72994,note_off,64,0,0,,0,,,72,127
72997,note_on,3,0,0,,2,,,74,127
73061,note_off,64,0,0,,2,,,74,127
73064,note_on,3,0,0,,4,,,76,127
73128,note_off,64,0,0,,4,,,76,127
73131,note_on,3,0,0,,5,,,77,127
73195,note_off,64,0,0,,5,,,77,127
73195,note_off,0,0,0,,4,,,64,127
73198,note_on,3,0,0,,5,,,65,127
73198,note_on,0,0,0,,7,,,79,127
73262,note_off,64,0,0,,7,,,79,127
73265,note_on,3,0,0,,10,,,81,127
73329,note_off,64,0,0,,10,,,81,127
73332,note_on,3,0,0,,12,,,83,127
73396,note_off,64,0,0,,12,,,83,127
73399,note_on,3,0,0,,0,,,84,127
73463,note_off,64,0,0,,0,,,84,127
73463,note_off,0,0,0,,5,,,65,127
73466,note_on,3,0,0,,7,,,67,127
73466,note_on,0,0,0,,0,,,72,127
73731,note_off,265,0,0,,0,,,72,127
73731,note_off,0,0,0,,7,,,67,127
73734,note_on,3,0,0,,5,,,65,127
73734,note_on,0,0,0,,0,,,72,127
73798,note_off,64,0,0,,0,,,72,127
73801,note_on,3,0,0,,12,,,71,127
73865,note_off,64,0,0,,12,,,71,127
73868,note_on,3,0,0,,0,,,72,127
73932,note_off,64,0,0,,0,,,72,127
73935,note_on,3,0,0,,12,,,71,127
73999,note_off,64,0,0,,12,,,71,127
73999,note_off,0,0,0,,5,,,65,127
74024,note_on,25,0,0,,0,,,72,127
74024,note_on,0,0,0,,4,,,52,127
74088,note_off,64,0,0,,0,,,72,127
74091,note_on,3,0,0,,2,,,74,127
74155,note_off,64,0,0,,2,,,74,127
74158,note_on,3,0,0,,4,,,76,127
74222,note_off,64,0,0,,4,,,76,127
74225,note_on,3,0,0,,5,,,77,127
74289,note_off,64,0,0,,5,,,77,127
74289,note_off,0,0,0,,4,,,52,127
74292,note_on,3,0,0,,7,,,79,127
74292,note_on,0,0,0,,5,,,53,127
74356,note_off,64,0,0,,7,,,79,127
74359,note_on,3,0,0,,10,,,81,127
74423,note_off,64,0,0,,10,,,81,127
74426,note_on,3,0,0,,12,,,83,127
74490,note_off,64,0,0,,12,,,83,127
74493,note_on,3,0,0,,0,,,84,127
74557,note_off,64,0,0,,0,,,84,127
74557,note_off,0,0,0,,5,,,53,127
74560,note_on,3,0,0,,0,,,72,127
74560,note_on,0,0,0,,7,,,55,127
74825,note_off,265,0,0,,0,,,72,127
74828,note_on,3,0,0,,0,,,72,127
74828,note_on,0,0,0,,7,,,43,127
74892,note_off,64,0,0,,0,,,72,127
74895,note_on,3,0,0,,12,,,71,127
74959,note_off,64,0,0,,12,,,71,127
74962,note_on,3,0,0,,10,,,69,127
75026,note_off,64,0,0,,10,,,69,127
75036,note_on,10,0,0,,12,,,71,127
75090,note_off,54,0,0,,7,,,55,127
75093,note_off,3,0,0,,7,,,43,127
75100,note_off,7,0,0,,12,,,71,127
75118,note_on,18,0,0,,0,,,36,127
75118,note_on,0,0,0,,2,,,74,127
75163,note_on,45,0,0,,0,,,72,127
75183,note_off,20,0,0,,2,,,74,127
75208,note_on,25,0,0,,2,,,74,127
75228,note_off,20,0,0,,0,,,72,127
75253,note_on,25,0,0,,0,,,72,127
75273,note_off,20,0,0,,2,,,74,127
76818,note_off,1545,0,0,,0,,,72,127
76885,note_off,67,0,0,,0,,,36,127
78336,end_of_track,1451,1,0,,,,,,
