tick,type,time,meta,track,program,channel,pitch,tempo,note,velocity
0,copyright,0,1,0,,,,,,
0,program_change,0,0,0,6,0,,,,
0,pitchwheel,0,0,0,,0,0,,,
0,program_change,0,0,0,6,1,,,,
0,pitchwheel,0,0,0,,1,-590,,,
0,program_change,0,0,0,6,2,,,,
0,pitchwheel,0,0,0,,2,-272,,,
0,program_change,0,0,0,6,3,,,,
0,pitchwheel,0,0,0,,3,-353,,,
0,program_change,0,0,0,6,4,,,,
0,pitchwheel,0,0,0,,4,-560,,,
0,program_change,0,0,0,6,5,,,,
0,pitchwheel,0,0,0,,5,-80,,,
0,program_change,0,0,0,6,6,,,,
0,pitchwheel,0,0,0,,6,-625,,,
0,program_change,0,0,0,6,7,,,,
0,pitchwheel,0,0,0,,7,-130,,,
0,program_change,0,0,0,6,8,,,,
0,pitchwheel,0,0,0,,8,-512,,,
0,program_change,0,0,0,6,10,,,,
0,pitchwheel,0,0,0,,10,-464,,,
0,program_change,0,0,0,6,11,,,,
0,pitchwheel,0,0,0,,11,-208,,,
0,program_change,0,0,0,6,12,,,,
0,pitchwheel,0,0,0,,12,-553,,,
0,set_tempo,0,1,0,,,,500000,,
77,note_on,77,0,0,,4,,,76,127
77,note_on,0,0,0,,7,,,79,127
77,note_on,0,0,0,,0,,,48,127
231,note_on,154,0,0,,0,,,72,127
261,note_off,30,0,0,,7,,,79,127
261,note_off,0,0,0,,4,,,76,127
383,note_off,122,0,0,,0,,,72,127
384,note_on,1,0,0,,0,,,60,127
537,note_off,153,0,0,,0,,,60,127
537,note_off,0,0,0,,0,,,48,127
538,note_on,1,0,0,,10,,,81,127
538,note_on,0,0,0,,5,,,77,127
538,note_on,0,0,0,,0,,,48,127
690,note_off,152,0,0,,5,,,77,127
690,note_off,0,0,0,,10,,,81,127
692,note_on,2,0,0,,0,,,72,127
845,note_off,153,0,0,,0,,,72,127
846,note_on,1,0,0,,0,,,60,127
999,note_off,153,0,0,,0,,,60,127
999,note_off,0,0,0,,0,,,48,127
1000,note_on,1,0,0,,7,,,79,127
1000,note_on,0,0,0,,4,,,76,127
1000,note_on,0,0,0,,0,,,48,127
1154,note_on,154,0,0,,0,,,72,127
1184,note_off,30,0,0,,4,,,76,127
1184,note_off,0,0,0,,7,,,79,127
1306,note_off,122,0,0,,0,,,72,127
1307,note_on,1,0,0,,0,,,60,127
1460,note_off,153,0,0,,0,,,60,127
1460,note_off,0,0,0,,0,,,48,127
1461,note_on,1,0,0,,5,,,77,127
1461,note_on,0,0,0,,2,,,74,127
1461,note_on,0,0,0,,7,,,43,127
1614,note_off,153,0,0,,2,,,74,127
1615,note_on,1,0,0,,7,,,67,127
1768,note_off,153,0,0,,7,,,67,127
1768,note_off,0,0,0,,5,,,77,127
1769,note_on,1,0,0,,5,,,77,127
1769,note_on,0,0,0,,2,,,74,127
1922,note_off,153,0,0,,2,,,74,127
1922,note_off,0,0,0,,5,,,77,127
1922,note_off,0,0,0,,7,,,43,127
1923,note_on,1,0,0,,4,,,76,127
1923,note_on,0,0,0,,0,,,72,127
1923,note_on,0,0,0,,0,,,48,127
1923,note_on,0,0,0,,0,,,60,127
2076,note_off,153,0,0,,0,,,48,127
2076,note_off,0,0,0,,0,,,72,127
2076,note_off,0,0,0,,4,,,76,127
2077,note_on,1,0,0,,5,,,77,127
2077,note_on,0,0,0,,2,,,50,127
2230,note_off,153,0,0,,2,,,50,127
2230,note_off,0,0,0,,5,,,77,127
2231,note_on,1,0,0,,7,,,79,127
2231,note_on,0,0,0,,4,,,52,127
2384,note_off,153,0,0,,4,,,52,127
2384,note_off,0,0,0,,7,,,79,127
2384,note_off,0,0,0,,0,,,60,127
2385,note_on,1,0,0,,10,,,81,127
2385,note_on,0,0,0,,5,,,53,127
2538,note_off,153,0,0,,10,,,81,127
2539,note_on,1,0,0,,5,,,77,127
2692,note_off,153,0,0,,5,,,77,127
2693,note_on,1,0,0,,2,,,74,127
2846,note_off,153,0,0,,2,,,74,127
2846,note_off,0,0,0,,5,,,53,127
2847,note_on,1,0,0,,10,,,69,127
2847,note_on,0,0,0,,5,,,65,127
2847,note_on,0,0,0,,5,,,53,127
3000,note_off,153,0,0,,5,,,53,127
3000,note_off,0,0,0,,5,,,65,127
3000,note_off,0,0,0,,10,,,69,127
3001,note_on,1,0,0,,0,,,72,127
3001,note_on,0,0,0,,7,,,55,127
3001,note_on,0,0,0,,4,,,64,127
3052,note_on,51,0,0,,12,,,71,127
3058,note_off,6,0,0,,0,,,72,127
3104,note_on,46,0,0,,0,,,72,127
3110,note_off,6,0,0,,12,,,71,127
3155,note_off,45,0,0,,4,,,64,127
3156,note_on,1,0,0,,2,,,62,127
3156,note_on,0,0,0,,12,,,71,127
3162,note_off,6,0,0,,0,,,72,127
3208,note_on,46,0,0,,10,,,69,127
3214,note_off,6,0,0,,12,,,71,127
3260,note_on,46,0,0,,12,,,71,127
3266,note_off,6,0,0,,10,,,69,127
3308,note_off,42,0,0,,7,,,55,127
3310,note_off,2,0,0,,12,,,71,127
3310,note_off,0,0,0,,2,,,62,127
3311,note_on,1,0,0,,0,,,72,127
3311,note_on,0,0,0,,0,,,60,127
3311,note_on,0,0,0,,0,,,48,127
3771,note_off,460,0,0,,0,,,48,127
3771,note_off,0,0,0,,0,,,60,127
3771,note_off,0,0,0,,0,,,72,127
3772,note_on,1,0,0,,4,,,76,127
3772,note_on,0,0,0,,7,,,79,127
3772,note_on,0,0,0,,7,,,67,127
3772,note_on,0,0,0,,4,,,64,127
3925,note_off,153,0,0,,4,,,64,127
3925,note_off,0,0,0,,7,,,67,127
3926,note_on,1,0,0,,7,,,55,127
4079,note_off,153,0,0,,7,,,55,127
4080,note_on,1,0,0,,7,,,43,127
4213,note_off,133,0,0,,7,,,79,127
4213,note_off,0,0,0,,4,,,76,127
4233,note_off,20,0,0,,7,,,43,127
4234,note_on,1,0,0,,12,,,71,127
4234,note_on,0,0,0,,5,,,77,127
4234,note_on,0,0,0,,5,,,65,127
4234,note_on,0,0,0,,2,,,62,127
4387,note_off,153,0,0,,2,,,62,127
4387,note_off,0,0,0,,5,,,65,127
4388,note_on,1,0,0,,7,,,55,127
4541,note_off,153,0,0,,7,,,55,127
4542,note_on,1,0,0,,7,,,43,127
4695,note_off,153,0,0,,7,,,43,127
4695,note_off,0,0,0,,5,,,77,127
4695,note_off,0,0,0,,12,,,71,127
4696,note_on,1,0,0,,0,,,72,127
4696,note_on,0,0,0,,4,,,76,127
4696,note_on,0,0,0,,4,,,64,127
4696,note_on,0,0,0,,0,,,60,127
4849,note_off,153,0,0,,0,,,60,127
4849,note_off,0,0,0,,4,,,64,127
4850,note_on,1,0,0,,7,,,55,127
5003,note_off,153,0,0,,7,,,55,127
5004,note_on,1,0,0,,7,,,43,127
5157,note_off,153,0,0,,7,,,43,127
5157,note_off,0,0,0,,4,,,76,127
5157,note_off,0,0,0,,0,,,72,127
5158,note_on,1,0,0,,7,,,67,127
5158,note_on,0,0,0,,2,,,74,127
5158,note_on,0,0,0,,2,,,62,127
5158,note_on,0,0,0,,12,,,59,127
5311,note_off,153,0,0,,12,,,59,127
5311,note_off,0,0,0,,2,,,62,127
5312,note_on,1,0,0,,7,,,55,127
5465,note_off,153,0,0,,7,,,55,127
5466,note_on,1,0,0,,7,,,43,127
5619,note_off,153,0,0,,7,,,43,127
5619,note_off,0,0,0,,7,,,67,127
5620,note_on,1,0,0,,7,,,79,127
5620,note_on,0,0,0,,4,,,76,127
5620,note_on,0,0,0,,7,,,67,127
5620,note_on,0,0,0,,4,,,64,127
5628,note_off,8,0,0,,2,,,74,127
5773,note_off,145,0,0,,4,,,64,127
5773,note_off,0,0,0,,7,,,67,127
5774,note_on,1,0,0,,7,,,55,127
5927,note_off,153,0,0,,7,,,55,127
5928,note_on,1,0,0,,7,,,43,127
6061,note_off,133,0,0,,4,,,76,127
6061,note_off,0,0,0,,7,,,79,127
6081,note_off,20,0,0,,7,,,43,127
6082,note_on,1,0,0,,5,,,77,127
6082,note_on,0,0,0,,12,,,71,127
6082,note_on,0,0,0,,5,,,65,127
6082,note_on,0,0,0,,2,,,62,127
6235,note_off,153,0,0,,2,,,62,127
6235,note_off,0,0,0,,5,,,65,127
6236,note_on,1,0,0,,7,,,55,127
6389,note_off,153,0,0,,7,,,55,127
6390,note_on,1,0,0,,7,,,43,127
6543,note_off,153,0,0,,7,,,43,127
6543,note_off,0,0,0,,12,,,71,127
6543,note_off,0,0,0,,5,,,77,127
6544,note_on,1,0,0,,0,,,72,127
6544,note_on,0,0,0,,4,,,76,127
6544,note_on,0,0,0,,4,,,64,127
6544,note_on,0,0,0,,0,,,60,127
6697,note_off,153,0,0,,0,,,60,127
6697,note_off,0,0,0,,4,,,64,127
6698,note_on,1,0,0,,7,,,55,127
6851,note_off,153,0,0,,7,,,55,127
6852,note_on,1,0,0,,7,,,43,127
7005,note_off,153,0,0,,7,,,43,127
7005,note_off,0,0,0,,0,,,72,127
7006,note_on,1,0,0,,7,,,43,127
7053,note_off,47,0,0,,4,,,76,127
7056,note_on,3,0,0,,2,,,74,127
7107,note_on,51,0,0,,4,,,76,127
7116,note_off,9,0,0,,2,,,74,127
7158,note_on,42,0,0,,2,,,74,127
7167,note_off,9,0,0,,4,,,76,127
7209,note_on,42,0,0,,4,,,76,127
7218,note_off,9,0,0,,2,,,74,127
7260,note_on,42,0,0,,2,,,74,127
7269,note_off,9,0,0,,4,,,76,127
7311,note_on,42,0,0,,4,,,76,127
7320,note_off,9,0,0,,2,,,74,127
7362,note_on,42,0,0,,2,,,74,127
7372,note_off,10,0,0,,4,,,76,127
7458,note_off,86,0,0,,2,,,74,127
7465,note_off,7,0,0,,7,,,43,127
7466,note_on,1,0,0,,7,,,55,127
7466,note_on,0,0,0,,7,,,67,127
7466,note_on,0,0,0,,2,,,74,127
7619,note_off,153,0,0,,7,,,67,127
7619,note_off,0,0,0,,7,,,55,127
7620,note_on,1,0,0,,7,,,67,127
7620,note_on,0,0,0,,7,,,55,127
7773,note_off,153,0,0,,7,,,55,127
7773,note_off,0,0,0,,7,,,67,127
7774,note_on,1,0,0,,7,,,55,127
7774,note_on,0,0,0,,7,,,67,127
7927,note_off,153,0,0,,7,,,67,127
7927,note_off,0,0,0,,7,,,55,127
7927,note_off,0,0,0,,2,,,74,127
7928,note_on,1,0,0,,2,,,74,127
7928,note_on,0,0,0,,8,,,56,127
7928,note_on,0,0,0,,5,,,65,127
8081,note_off,153,0,0,,5,,,65,127
8081,note_off,0,0,0,,8,,,56,127
8082,note_on,1,0,0,,8,,,56,127
8082,note_on,0,0,0,,5,,,65,127
8235,note_off,153,0,0,,5,,,65,127
8235,note_off,0,0,0,,8,,,56,127
8236,note_on,1,0,0,,5,,,65,127
8236,note_on,0,0,0,,8,,,56,127
8389,note_off,153,0,0,,8,,,56,127
8389,note_off,0,0,0,,5,,,65,127
8389,note_off,0,0,0,,2,,,74,127
8390,note_on,1,0,0,,2,,,74,127
8390,note_on,0,0,0,,8,,,56,127
8390,note_on,0,0,0,,5,,,65,127
8543,note_off,153,0,0,,5,,,65,127
8543,note_off,0,0,0,,8,,,56,127
8544,note_on,1,0,0,,8,,,56,127
8544,note_on,0,0,0,,5,,,65,127
8697,note_off,153,0,0,,5,,,65,127
8697,note_off,0,0,0,,8,,,56,127
8698,note_on,1,0,0,,5,,,65,127
8698,note_on,0,0,0,,8,,,56,127
8851,note_off,153,0,0,,8,,,56,127
8851,note_off,0,0,0,,5,,,65,127
8851,note_off,0,0,0,,2,,,74,127
8852,note_on,1,0,0,,2,,,74,127
8852,note_on,0,0,0,,5,,,65,127
8852,note_on,0,0,0,,11,,,58,127
9005,note_off,153,0,0,,11,,,58,127
9005,note_off,0,0,0,,5,,,65,127
9006,note_on,1,0,0,,5,,,65,127
9006,note_on,0,0,0,,11,,,58,127
9159,note_off,153,0,0,,11,,,58,127
9159,note_off,0,0,0,,5,,,65,127
9160,note_on,1,0,0,,11,,,58,127
9160,note_on,0,0,0,,5,,,65,127
9313,note_off,153,0,0,,5,,,65,127
9313,note_off,0,0,0,,11,,,58,127
9313,note_off,0,0,0,,2,,,74,127
9314,note_on,1,0,0,,2,,,74,127
9314,note_on,0,0,0,,8,,,68,127
9314,note_on,0,0,0,,11,,,58,127
9314,note_on,0,0,0,,5,,,65,127
9467,note_off,153,0,0,,5,,,65,127
9467,note_off,0,0,0,,11,,,58,127
9467,note_off,0,0,0,,8,,,68,127
9468,note_on,1,0,0,,5,,,65,127
9468,note_on,0,0,0,,8,,,68,127
9468,note_on,0,0,0,,11,,,58,127
9621,note_off,153,0,0,,11,,,58,127
9621,note_off,0,0,0,,8,,,68,127
9621,note_off,0,0,0,,5,,,65,127
9622,note_on,1,0,0,,5,,,65,127
9622,note_on,0,0,0,,8,,,68,127
9622,note_on,0,0,0,,11,,,58,127
9775,note_off,153,0,0,,11,,,58,127
9775,note_off,0,0,0,,8,,,68,127
9775,note_off,0,0,0,,5,,,65,127
9775,note_off,0,0,0,,2,,,74,127
9776,note_on,1,0,0,,5,,,77,127
9776,note_on,0,0,0,,11,,,58,127
9776,note_on,0,0,0,,5,,,65,127
9776,note_on,0,0,0,,8,,,68,127
9929,note_off,153,0,0,,8,,,68,127
9929,note_off,0,0,0,,5,,,65,127
9929,note_off,0,0,0,,11,,,58,127
9930,note_on,1,0,0,,8,,,68,127
9930,note_on,0,0,0,,11,,,58,127
9930,note_on,0,0,0,,5,,,65,127
10083,note_off,153,0,0,,5,,,65,127
10083,note_off,0,0,0,,11,,,58,127
10083,note_off,0,0,0,,8,,,68,127
10084,note_on,1,0,0,,5,,,65,127
10084,note_on,0,0,0,,8,,,68,127
10084,note_on,0,0,0,,11,,,58,127
10237,note_off,153,0,0,,11,,,58,127
10237,note_off,0,0,0,,8,,,68,127
10237,note_off,0,0,0,,5,,,65,127
10237,note_off,0,0,0,,5,,,77,127
10238,note_on,1,0,0,,8,,,80,127
10238,note_on,0,0,0,,8,,,68,127
10238,note_on,0,0,0,,11,,,58,127
10238,note_on,0,0,0,,5,,,65,127
10391,note_off,153,0,0,,5,,,65,127
10391,note_off,0,0,0,,11,,,58,127
10391,note_off,0,0,0,,8,,,68,127
10392,note_on,1,0,0,,5,,,65,127
10392,note_on,0,0,0,,8,,,68,127
10392,note_on,0,0,0,,11,,,58,127
10545,note_off,153,0,0,,11,,,58,127
10545,note_off,0,0,0,,8,,,68,127
10545,note_off,0,0,0,,5,,,65,127
10546,note_on,1,0,0,,5,,,65,127
10546,note_on,0,0,0,,8,,,68,127
10546,note_on,0,0,0,,11,,,58,127
10699,note_off,153,0,0,,11,,,58,127
10699,note_off,0,0,0,,8,,,68,127
10699,note_off,0,0,0,,5,,,65,127
10699,note_off,0,0,0,,8,,,80,127
10700,note_on,1,0,0,,8,,,80,127
10700,note_on,0,0,0,,8,,,68,127
10700,note_on,0,0,0,,12,,,59,127
10700,note_on,0,0,0,,5,,,65,127
10853,note_off,153,0,0,,5,,,65,127
10853,note_off,0,0,0,,12,,,59,127
10853,note_off,0,0,0,,8,,,68,127
10854,note_on,1,0,0,,8,,,68,127
10854,note_on,0,0,0,,12,,,59,127
10854,note_on,0,0,0,,5,,,65,127
11007,note_off,153,0,0,,5,,,65,127
11007,note_off,0,0,0,,12,,,59,127
11007,note_off,0,0,0,,8,,,68,127
11008,note_on,1,0,0,,5,,,65,127
11008,note_on,0,0,0,,8,,,68,127
11008,note_on,0,0,0,,12,,,59,127
11161,note_off,153,0,0,,12,,,59,127
11161,note_off,0,0,0,,8,,,68,127
11161,note_off,0,0,0,,5,,,65,127
11161,note_off,0,0,0,,8,,,80,127
11162,note_on,1,0,0,,8,,,80,127
11162,note_on,0,0,0,,8,,,68,127
11162,note_on,0,0,0,,12,,,59,127
11162,note_on,0,0,0,,5,,,65,127
11315,note_off,153,0,0,,5,,,65,127
11315,note_off,0,0,0,,12,,,59,127
11315,note_off,0,0,0,,8,,,68,127
11316,note_on,1,0,0,,8,,,68,127
11316,note_on,0,0,0,,12,,,59,127
11316,note_on,0,0,0,,5,,,65,127
11469,note_off,153,0,0,,5,,,65,127
11469,note_off,0,0,0,,12,,,59,127
11469,note_off,0,0,0,,8,,,68,127
11470,note_on,1,0,0,,8,,,68,127
11470,note_on,0,0,0,,12,,,59,127
11470,note_on,0,0,0,,5,,,65,127
11623,note_off,153,0,0,,5,,,65,127
11623,note_off,0,0,0,,12,,,59,127
11623,note_off,0,0,0,,8,,,68,127
11623,note_off,0,0,0,,8,,,80,127
11624,note_on,1,0,0,,8,,,80,127
11624,note_on,0,0,0,,2,,,62,127
11624,note_on,0,0,0,,4,,,64,127
11624,note_on,0,0,0,,8,,,68,127
11624,note_on,0,0,0,,12,,,59,127
11777,note_off,153,0,0,,12,,,59,127
11777,note_off,0,0,0,,8,,,68,127
11777,note_off,0,0,0,,4,,,64,127
11777,note_off,0,0,0,,2,,,62,127
11778,note_on,1,0,0,,2,,,62,127
11778,note_on,0,0,0,,4,,,64,127
11778,note_on,0,0,0,,8,,,68,127
11778,note_on,0,0,0,,12,,,59,127
11931,note_off,153,0,0,,12,,,59,127
11931,note_off,0,0,0,,8,,,68,127
11931,note_off,0,0,0,,4,,,64,127
11931,note_off,0,0,0,,2,,,62,127
11932,note_on,1,0,0,,8,,,68,127
11932,note_on,0,0,0,,12,,,59,127
11932,note_on,0,0,0,,2,,,62,127
11932,note_on,0,0,0,,4,,,64,127
12085,note_off,153,0,0,,4,,,64,127
12085,note_off,0,0,0,,2,,,62,127
12085,note_off,0,0,0,,12,,,59,127
12085,note_off,0,0,0,,8,,,68,127
12085,note_off,0,0,0,,8,,,80,127
12086,note_on,1,0,0,,8,,,80,127
12086,note_on,0,0,0,,8,,,68,127
12086,note_on,0,0,0,,12,,,59,127
12086,note_on,0,0,0,,2,,,62,127
12086,note_on,0,0,0,,4,,,64,127
12239,note_off,153,0,0,,4,,,64,127
12239,note_off,0,0,0,,2,,,62,127
12239,note_off,0,0,0,,12,,,59,127
12239,note_off,0,0,0,,8,,,68,127
12240,note_on,1,0,0,,4,,,64,127
12240,note_on,0,0,0,,8,,,68,127
12240,note_on,0,0,0,,12,,,59,127
12240,note_on,0,0,0,,2,,,62,127
12393,note_off,153,0,0,,2,,,62,127
12393,note_off,0,0,0,,12,,,59,127
12393,note_off,0,0,0,,8,,,68,127
12393,note_off,0,0,0,,4,,,64,127
12394,note_on,1,0,0,,8,,,68,127
12394,note_on,0,0,0,,12,,,59,127
12394,note_on,0,0,0,,2,,,62,127
12394,note_on,0,0,0,,4,,,64,127
12547,note_off,153,0,0,,4,,,64,127
12547,note_off,0,0,0,,2,,,62,127
12547,note_off,0,0,0,,12,,,59,127
12547,note_off,0,0,0,,8,,,68,127
12547,note_off,0,0,0,,8,,,80,127
12548,note_on,1,0,0,,10,,,81,127
12548,note_on,0,0,0,,5,,,65,127
12548,note_on,0,0,0,,10,,,57,127
12548,note_on,0,0,0,,2,,,62,127
12701,note_off,153,0,0,,2,,,62,127
12701,note_off,0,0,0,,10,,,57,127
12701,note_off,0,0,0,,5,,,65,127
12702,note_on,1,0,0,,5,,,65,127
12702,note_on,0,0,0,,10,,,57,127
12702,note_on,0,0,0,,2,,,62,127
12855,note_off,153,0,0,,2,,,62,127
12855,note_off,0,0,0,,10,,,57,127
12855,note_off,0,0,0,,5,,,65,127
12856,note_on,1,0,0,,2,,,62,127
12856,note_on,0,0,0,,5,,,65,127
12856,note_on,0,0,0,,10,,,57,127
13009,note_off,153,0,0,,10,,,57,127
13009,note_off,0,0,0,,5,,,65,127
13009,note_off,0,0,0,,2,,,62,127
13009,note_off,0,0,0,,10,,,81,127
13010,note_on,1,0,0,,12,,,83,127
13010,note_on,0,0,0,,2,,,62,127
13010,note_on,0,0,0,,4,,,64,127
13010,note_on,0,0,0,,8,,,56,127
13163,note_off,153,0,0,,8,,,56,127
13163,note_off,0,0,0,,4,,,64,127
13163,note_off,0,0,0,,2,,,62,127
13164,note_on,1,0,0,,2,,,62,127
13164,note_on,0,0,0,,4,,,64,127
13164,note_on,0,0,0,,8,,,56,127
13317,note_off,153,0,0,,8,,,56,127
13317,note_off,0,0,0,,4,,,64,127
13317,note_off,0,0,0,,2,,,62,127
13318,note_on,1,0,0,,4,,,64,127
13318,note_on,0,0,0,,2,,,62,127
13318,note_on,0,0,0,,8,,,56,127
13471,note_off,153,0,0,,8,,,56,127
13471,note_off,0,0,0,,2,,,62,127
13471,note_off,0,0,0,,4,,,64,127
13471,note_off,0,0,0,,12,,,83,127
13472,note_on,1,0,0,,1,,,85,127
13472,note_on,0,0,0,,4,,,64,127
13472,note_on,0,0,0,,7,,,55,127
13625,note_off,153,0,0,,7,,,55,127
13625,note_off,0,0,0,,4,,,64,127
13626,note_on,1,0,0,,4,,,64,127
13626,note_on,0,0,0,,7,,,55,127
13779,note_off,153,0,0,,7,,,55,127
13779,note_off,0,0,0,,4,,,64,127
13780,note_on,1,0,0,,7,,,55,127
13780,note_on,0,0,0,,4,,,64,127
13933,note_off,153,0,0,,4,,,64,127
13933,note_off,0,0,0,,7,,,55,127
13933,note_off,0,0,0,,1,,,85,127
13934,note_on,1,0,0,,2,,,74,127
13934,note_on,0,0,0,,2,,,86,127
13934,note_on,0,0,0,,6,,,54,127
13934,note_on,0,0,0,,2,,,62,127
14087,note_off,153,0,0,,2,,,62,127
14087,note_off,0,0,0,,6,,,54,127
14088,note_on,1,0,0,,2,,,62,127
14088,note_on,0,0,0,,6,,,54,127
14241,note_off,153,0,0,,6,,,54,127
14241,note_off,0,0,0,,2,,,62,127
14242,note_on,1,0,0,,2,,,62,127
14242,note_on,0,0,0,,6,,,54,127
14395,note_off,153,0,0,,6,,,54,127
14395,note_off,0,0,0,,2,,,62,127
14396,note_on,1,0,0,,2,,,62,127
14396,note_on,0,0,0,,7,,,55,127
14549,note_off,153,0,0,,2,,,86,127
14549,note_off,0,0,0,,2,,,74,127
14550,note_on,1,0,0,,12,,,83,127
14703,note_off,153,0,0,,12,,,83,127
14704,note_on,1,0,0,,7,,,79,127
14857,note_off,153,0,0,,7,,,79,127
14857,note_off,0,0,0,,7,,,55,127
14857,note_off,0,0,0,,2,,,62,127
14858,note_on,1,0,0,,4,,,76,127
14858,note_on,0,0,0,,0,,,60,127
14858,note_on,0,0,0,,0,,,48,127
15011,note_off,153,0,0,,4,,,76,127
15012,note_on,1,0,0,,0,,,72,127
15165,note_off,153,0,0,,0,,,72,127
15166,note_on,1,0,0,,10,,,69,127
15319,note_off,153,0,0,,10,,,69,127
15319,note_off,0,0,0,,0,,,48,127
15319,note_off,0,0,0,,0,,,60,127
15320,note_on,1,0,0,,2,,,50,127
15320,note_on,0,0,0,,7,,,67,127
15371,note_on,51,0,0,,6,,,66,127
15377,note_off,6,0,0,,7,,,67,127
15423,note_on,46,0,0,,7,,,67,127
15429,note_off,6,0,0,,6,,,66,127
15475,note_on,46,0,0,,6,,,66,127
15481,note_off,6,0,0,,7,,,67,127
15527,note_on,46,0,0,,7,,,67,127
15533,note_off,6,0,0,,6,,,66,127
15579,note_on,46,0,0,,6,,,66,127
15585,note_off,6,0,0,,7,,,67,127
15778,note_off,193,0,0,,6,,,66,127
15784,note_off,6,0,0,,2,,,50,127
15798,note_on,14,0,0,,12,,,59,127
15798,note_on,0,0,0,,2,,,62,127
15798,note_on,0,0,0,,2,,,74,127
15798,note_on,0,0,0,,12,,,71,127
15951,note_off,153,0,0,,2,,,62,127
15951,note_off,0,0,0,,12,,,59,127
15952,note_on,1,0,0,,2,,,50,127
16105,note_off,153,0,0,,2,,,50,127
16106,note_on,1,0,0,,2,,,38,127
16259,note_off,153,0,0,,2,,,38,127
16259,note_off,0,0,0,,12,,,71,127
16259,note_off,0,0,0,,2,,,74,127
16260,note_on,1,0,0,,10,,,57,127
16260,note_on,0,0,0,,0,,,60,127
16260,note_on,0,0,0,,6,,,66,127
16260,note_on,0,0,0,,0,,,72,127
16413,note_off,153,0,0,,0,,,60,127
16413,note_off,0,0,0,,10,,,57,127
16414,note_on,1,0,0,,2,,,50,127
16567,note_off,153,0,0,,2,,,50,127
16568,note_on,1,0,0,,2,,,38,127
16721,note_off,153,0,0,,2,,,38,127
16721,note_off,0,0,0,,0,,,72,127
16721,note_off,0,0,0,,6,,,66,127
16722,note_on,1,0,0,,7,,,55,127
16722,note_on,0,0,0,,12,,,59,127
16722,note_on,0,0,0,,7,,,67,127
16722,note_on,0,0,0,,12,,,71,127
16875,note_off,153,0,0,,12,,,59,127
16875,note_off,0,0,0,,7,,,55,127
16876,note_on,1,0,0,,2,,,50,127
17029,note_off,153,0,0,,2,,,50,127
17030,note_on,1,0,0,,2,,,38,127
17183,note_off,153,0,0,,2,,,38,127
17183,note_off,0,0,0,,12,,,71,127
17183,note_off,0,0,0,,7,,,67,127
17184,note_on,1,0,0,,6,,,54,127
17184,note_on,0,0,0,,10,,,57,127
17184,note_on,0,0,0,,2,,,62,127
17184,note_on,0,0,0,,10,,,69,127
17337,note_off,153,0,0,,10,,,57,127
17337,note_off,0,0,0,,6,,,54,127
17338,note_on,1,0,0,,2,,,50,127
17491,note_off,153,0,0,,2,,,50,127
17492,note_on,1,0,0,,2,,,38,127
17645,note_off,153,0,0,,2,,,38,127
17645,note_off,0,0,0,,10,,,69,127
17645,note_off,0,0,0,,2,,,62,127
17646,note_on,1,0,0,,12,,,59,127
17646,note_on,0,0,0,,2,,,62,127
17646,note_on,0,0,0,,2,,,74,127
17646,note_on,0,0,0,,12,,,71,127
17799,note_off,153,0,0,,2,,,62,127
17799,note_off,0,0,0,,12,,,59,127
17800,note_on,1,0,0,,2,,,50,127
17953,note_off,153,0,0,,2,,,50,127
17954,note_on,1,0,0,,2,,,38,127
18107,note_off,153,0,0,,2,,,38,127
18107,note_off,0,0,0,,12,,,71,127
18107,note_off,0,0,0,,2,,,74,127
18108,note_on,1,0,0,,10,,,57,127
18108,note_on,0,0,0,,0,,,60,127
18108,note_on,0,0,0,,10,,,69,127
18108,note_on,0,0,0,,0,,,72,127
18261,note_off,153,0,0,,0,,,60,127
18261,note_off,0,0,0,,10,,,57,127
18262,note_on,1,0,0,,2,,,50,127
18415,note_off,153,0,0,,2,,,50,127
18416,note_on,1,0,0,,2,,,38,127
18569,note_off,153,0,0,,2,,,38,127
18569,note_off,0,0,0,,0,,,72,127
18569,note_off,0,0,0,,10,,,69,127
18570,note_on,1,0,0,,6,,,54,127
18570,note_on,0,0,0,,10,,,57,127
18570,note_on,0,0,0,,6,,,66,127
18570,note_on,0,0,0,,10,,,69,127
18723,note_off,153,0,0,,10,,,57,127
18723,note_off,0,0,0,,6,,,54,127
18724,note_on,1,0,0,,2,,,50,127
18877,note_off,153,0,0,,2,,,50,127
18878,note_on,1,0,0,,2,,,38,127
19031,note_off,153,0,0,,2,,,38,127
19031,note_off,0,0,0,,10,,,69,127
19031,note_off,0,0,0,,6,,,66,127
19032,note_on,1,0,0,,7,,,55,127
19032,note_on,0,0,0,,12,,,59,127
19032,note_on,0,0,0,,7,,,67,127
19032,note_on,0,0,0,,12,,,71,127
19185,note_off,153,0,0,,7,,,67,127
19185,note_off,0,0,0,,12,,,59,127
19185,note_off,0,0,0,,7,,,55,127
19186,note_on,1,0,0,,7,,,67,127
19340,note_on,154,0,0,,7,,,43,127
19493,note_off,153,0,0,,7,,,43,127
19494,note_on,1,0,0,,7,,,43,127
19647,note_off,153,0,0,,7,,,43,127
19648,note_on,1,0,0,,7,,,43,127
19801,note_off,153,0,0,,7,,,43,127
19802,note_off,1,0,0,,7,,,67,127
19802,note_off,0,0,0,,12,,,71,127
19802,note_on,0,0,0,,12,,,47,127
19955,note_off,153,0,0,,12,,,47,127
19956,note_on,1,0,0,,10,,,45,127
20007,note_on,51,0,0,,7,,,43,127
20016,note_off,9,0,0,,10,,,45,127
20058,note_on,42,0,0,,10,,,45,127
20067,note_off,9,0,0,,7,,,43,127
20109,note_on,42,0,0,,2,,,86,127
20109,note_on,0,0,0,,7,,,43,127
20118,note_off,9,0,0,,10,,,45,127
20262,note_off,144,0,0,,2,,,86,127
20263,note_on,1,0,0,,12,,,83,127
20413,note_off,150,0,0,,7,,,43,127
20416,note_on,3,0,0,,7,,,55,127
20569,note_off,153,0,0,,12,,,83,127
20570,note_on,1,0,0,,7,,,79,127
20723,note_off,153,0,0,,7,,,79,127
20724,note_on,1,0,0,,4,,,76,127
20877,note_off,153,0,0,,7,,,55,127
20878,note_on,1,0,0,,0,,,48,127
21031,note_off,153,0,0,,4,,,76,127
21032,note_on,1,0,0,,0,,,72,127
21185,note_off,153,0,0,,0,,,72,127
21186,note_on,1,0,0,,10,,,69,127
21339,note_off,153,0,0,,0,,,48,127
21340,note_on,1,0,0,,0,,,60,127
21493,note_off,153,0,0,,10,,,69,127
21494,note_on,1,0,0,,7,,,67,127
21647,note_off,153,0,0,,7,,,67,127
21648,note_on,1,0,0,,4,,,64,127
21801,note_off,153,0,0,,4,,,64,127
21801,note_off,0,0,0,,0,,,60,127
21802,note_on,1,0,0,,2,,,38,127
21802,note_on,0,0,0,,2,,,62,127
22108,note_off,306,0,0,,2,,,62,127
22109,note_on,1,0,0,,4,,,64,127
22147,note_on,38,0,0,,6,,,66,127
22169,note_off,22,0,0,,4,,,64,127
22186,note_on,17,0,0,,7,,,67,127
22208,note_off,22,0,0,,6,,,66,127
22225,note_on,17,0,0,,10,,,69,127
22247,note_off,22,0,0,,7,,,67,127
22263,note_off,16,0,0,,2,,,38,127
22264,note_on,1,0,0,,12,,,71,127
22264,note_on,0,0,0,,2,,,50,127
22286,note_off,22,0,0,,10,,,69,127
22315,note_on,29,0,0,,10,,,69,127
22325,note_off,10,0,0,,12,,,71,127
22367,note_on,42,0,0,,12,,,71,127
22376,note_off,9,0,0,,10,,,69,127
22418,note_on,42,0,0,,10,,,69,127
22427,note_off,9,0,0,,12,,,71,127
22469,note_on,42,0,0,,12,,,71,127
22478,note_off,9,0,0,,10,,,69,127
22520,note_on,42,0,0,,10,,,69,127
22529,note_off,9,0,0,,12,,,71,127
22571,note_on,42,0,0,,12,,,71,127
22580,note_off,9,0,0,,10,,,69,127
22622,note_on,42,0,0,,10,,,69,127
22632,note_off,10,0,0,,12,,,71,127
22725,note_off,93,0,0,,10,,,69,127
22726,note_off,1,0,0,,2,,,50,127
22727,note_on,1,0,0,,7,,,43,127
22727,note_on,0,0,0,,7,,,67,127
23187,note_off,460,0,0,,7,,,67,127
23187,note_off,0,0,0,,7,,,43,127
23201,note_on,14,0,0,,11,,,70,127
23201,note_on,0,0,0,,7,,,79,127
23201,note_on,0,0,0,,7,,,55,127
23201,note_on,0,0,0,,7,,,67,127
23354,note_off,153,0,0,,7,,,67,127
23354,note_off,0,0,0,,11,,,70,127
23355,note_on,1,0,0,,10,,,69,127
23355,note_on,0,0,0,,6,,,66,127
23508,note_off,153,0,0,,6,,,66,127
23508,note_off,0,0,0,,10,,,69,127
23509,note_on,1,0,0,,11,,,70,127
23509,note_on,0,0,0,,7,,,67,127
23662,note_off,153,0,0,,7,,,67,127
23662,note_off,0,0,0,,11,,,70,127
23662,note_off,0,0,0,,7,,,55,127
23663,note_on,1,0,0,,7,,,67,127
23663,note_on,0,0,0,,3,,,63,127
23663,note_on,0,0,0,,7,,,55,127
23816,note_off,153,0,0,,3,,,63,127
23816,note_off,0,0,0,,7,,,79,127
23817,note_on,1,0,0,,6,,,78,127
23817,note_on,0,0,0,,2,,,62,127
23970,note_off,153,0,0,,2,,,62,127
23970,note_off,0,0,0,,6,,,78,127
23971,note_on,1,0,0,,7,,,79,127
23971,note_on,0,0,0,,3,,,63,127
24124,note_off,153,0,0,,3,,,63,127
24124,note_off,0,0,0,,7,,,79,127
24124,note_off,0,0,0,,7,,,55,127
24124,note_off,0,0,0,,7,,,67,127
24125,note_on,1,0,0,,3,,,75,127
24125,note_on,0,0,0,,0,,,84,127
24125,note_on,0,0,0,,0,,,60,127
24125,note_on,0,0,0,,7,,,55,127
24278,note_off,153,0,0,,0,,,60,127
24278,note_off,0,0,0,,3,,,75,127
24279,note_on,1,0,0,,2,,,74,127
24279,note_on,0,0,0,,12,,,59,127
24432,note_off,153,0,0,,12,,,59,127
24432,note_off,0,0,0,,2,,,74,127
24433,note_on,1,0,0,,3,,,75,127
24433,note_on,0,0,0,,0,,,60,127
24586,note_off,153,0,0,,0,,,60,127
24586,note_off,0,0,0,,3,,,75,127
24586,note_off,0,0,0,,7,,,55,127
24586,note_off,0,0,0,,0,,,84,127
24587,note_on,1,0,0,,11,,,82,127
24587,note_on,0,0,0,,2,,,74,127
24587,note_on,0,0,0,,7,,,55,127
24587,note_on,0,0,0,,2,,,62,127
24740,note_off,153,0,0,,11,,,82,127
24741,note_on,1,0,0,,2,,,86,127
24894,note_off,153,0,0,,2,,,86,127
24895,note_on,1,0,0,,11,,,82,127
25048,note_off,153,0,0,,11,,,82,127
25048,note_off,0,0,0,,2,,,62,127
25048,note_off,0,0,0,,7,,,55,127
25048,note_off,0,0,0,,2,,,74,127
25049,note_on,1,0,0,,11,,,70,127
25049,note_on,0,0,0,,7,,,79,127
25049,note_on,0,0,0,,7,,,55,127
25049,note_on,0,0,0,,7,,,67,127
25202,note_off,153,0,0,,7,,,67,127
25202,note_off,0,0,0,,11,,,70,127
25203,note_on,1,0,0,,10,,,69,127
25203,note_on,0,0,0,,6,,,66,127
25356,note_off,153,0,0,,6,,,66,127
25356,note_off,0,0,0,,10,,,69,127
25357,note_on,1,0,0,,11,,,70,127
25357,note_on,0,0,0,,7,,,67,127
25510,note_off,153,0,0,,7,,,67,127
25510,note_off,0,0,0,,11,,,70,127
25510,note_off,0,0,0,,7,,,55,127
25511,note_on,1,0,0,,7,,,67,127
25511,note_on,0,0,0,,3,,,63,127
25511,note_on,0,0,0,,7,,,55,127
25664,note_off,153,0,0,,3,,,63,127
25664,note_off,0,0,0,,7,,,79,127
25665,note_on,1,0,0,,6,,,78,127
25665,note_on,0,0,0,,2,,,62,127
25818,note_off,153,0,0,,2,,,62,127
25818,note_off,0,0,0,,6,,,78,127
25819,note_on,1,0,0,,7,,,79,127
25819,note_on,0,0,0,,3,,,63,127
25972,note_off,153,0,0,,3,,,63,127
25972,note_off,0,0,0,,7,,,79,127
25972,note_off,0,0,0,,7,,,55,127
25972,note_off,0,0,0,,7,,,67,127
25973,note_on,1,0,0,,0,,,84,127
25973,note_on,0,0,0,,3,,,75,127
25973,note_on,0,0,0,,7,,,55,127
25973,note_on,0,0,0,,0,,,60,127
26126,note_off,153,0,0,,0,,,60,127
26126,note_off,0,0,0,,3,,,75,127
26127,note_on,1,0,0,,2,,,74,127
26127,note_on,0,0,0,,12,,,59,127
26280,note_off,153,0,0,,12,,,59,127
26280,note_off,0,0,0,,2,,,74,127
26281,note_on,1,0,0,,3,,,75,127
26281,note_on,0,0,0,,0,,,60,127
26434,note_off,153,0,0,,0,,,60,127
26434,note_off,0,0,0,,3,,,75,127
26434,note_off,0,0,0,,7,,,55,127
26434,note_off,0,0,0,,0,,,84,127
26435,note_on,1,0,0,,2,,,74,127
26435,note_on,0,0,0,,11,,,82,127
26435,note_on,0,0,0,,2,,,62,127
26435,note_on,0,0,0,,7,,,55,127
26588,note_off,153,0,0,,11,,,82,127
26589,note_on,1,0,0,,2,,,86,127
26742,note_off,153,0,0,,2,,,86,127
26743,note_on,1,0,0,,11,,,82,127
26896,note_off,153,0,0,,7,,,55,127
26896,note_off,0,0,0,,2,,,62,127
26896,note_off,0,0,0,,2,,,74,127
26897,note_on,1,0,0,,7,,,55,127
26897,note_on,0,0,0,,2,,,62,127
27050,note_off,153,0,0,,11,,,82,127
27051,note_on,1,0,0,,11,,,82,127
27204,note_off,153,0,0,,11,,,82,127
27205,note_on,1,0,0,,7,,,79,127
27358,note_off,153,0,0,,2,,,62,127
27358,note_off,0,0,0,,7,,,55,127
27359,note_on,1,0,0,,3,,,51,127
27359,note_on,0,0,0,,0,,,60,127
27512,note_off,153,0,0,,7,,,79,127
27513,note_on,1,0,0,,7,,,79,127
27666,note_off,153,0,0,,7,,,79,127
27667,note_on,1,0,0,,3,,,75,127
27820,note_off,153,0,0,,0,,,60,127
27820,note_off,0,0,0,,3,,,51,127
27821,note_on,1,0,0,,0,,,60,127
27821,note_on,0,0,0,,0,,,48,127
27974,note_off,153,0,0,,3,,,75,127
27975,note_on,1,0,0,,0,,,72,127
28128,note_off,153,0,0,,0,,,72,127
28129,note_on,1,0,0,,10,,,69,127
28282,note_off,153,0,0,,10,,,69,127
28282,note_off,0,0,0,,0,,,48,127
28282,note_off,0,0,0,,0,,,60,127
28283,note_on,1,0,0,,2,,,50,127
28283,note_on,0,0,0,,7,,,67,127
28334,note_on,51,0,0,,6,,,66,127
28343,note_off,9,0,0,,7,,,67,127
28385,note_on,42,0,0,,7,,,67,127
28394,note_off,9,0,0,,6,,,66,127
28436,note_on,42,0,0,,6,,,66,127
28445,note_off,9,0,0,,7,,,67,127
28487,note_on,42,0,0,,7,,,67,127
28496,note_off,9,0,0,,6,,,66,127
28538,note_on,42,0,0,,6,,,66,127
28547,note_off,9,0,0,,7,,,67,127
28690,note_off,143,0,0,,6,,,66,127
28742,note_off,52,0,0,,2,,,50,127
28756,note_on,14,0,0,,12,,,59,127
28756,note_on,0,0,0,,2,,,62,127
28756,note_on,0,0,0,,12,,,71,127
28756,note_on,0,0,0,,2,,,74,127
28909,note_off,153,0,0,,2,,,62,127
28909,note_off,0,0,0,,12,,,59,127
28910,note_on,1,0,0,,2,,,50,127
29063,note_off,153,0,0,,2,,,50,127
29064,note_on,1,0,0,,2,,,38,127
29217,note_off,153,0,0,,2,,,38,127
29217,note_off,0,0,0,,2,,,74,127
29217,note_off,0,0,0,,12,,,71,127
29218,note_on,1,0,0,,10,,,57,127
29218,note_on,0,0,0,,0,,,60,127
29218,note_on,0,0,0,,0,,,72,127
29218,note_on,0,0,0,,6,,,66,127
29371,note_off,153,0,0,,0,,,60,127
29371,note_off,0,0,0,,10,,,57,127
29372,note_on,1,0,0,,2,,,50,127
29525,note_off,153,0,0,,2,,,50,127
29526,note_on,1,0,0,,2,,,38,127
29679,note_off,153,0,0,,2,,,38,127
29679,note_off,0,0,0,,6,,,66,127
29679,note_off,0,0,0,,0,,,72,127
29680,note_on,1,0,0,,7,,,55,127
29680,note_on,0,0,0,,12,,,59,127
29680,note_on,0,0,0,,12,,,71,127
29680,note_on,0,0,0,,7,,,67,127
29833,note_off,153,0,0,,12,,,59,127
29833,note_off,0,0,0,,7,,,55,127
29834,note_on,1,0,0,,2,,,50,127
29987,note_off,153,0,0,,2,,,50,127
29988,note_on,1,0,0,,2,,,38,127
30141,note_off,153,0,0,,2,,,38,127
30141,note_off,0,0,0,,7,,,67,127
30141,note_off,0,0,0,,12,,,71,127
30142,note_on,1,0,0,,6,,,54,127
30142,note_on,0,0,0,,10,,,57,127
30142,note_on,0,0,0,,10,,,69,127
30142,note_on,0,0,0,,2,,,62,127
30295,note_off,153,0,0,,10,,,57,127
30295,note_off,0,0,0,,6,,,54,127
30296,note_on,1,0,0,,2,,,50,127
30449,note_off,153,0,0,,2,,,50,127
30450,note_on,1,0,0,,2,,,38,127
30603,note_off,153,0,0,,2,,,38,127
30603,note_off,0,0,0,,2,,,62,127
30603,note_off,0,0,0,,10,,,69,127
30604,note_on,1,0,0,,12,,,59,127
30604,note_on,0,0,0,,2,,,62,127
30604,note_on,0,0,0,,2,,,74,127
30604,note_on,0,0,0,,12,,,71,127
30757,note_off,153,0,0,,2,,,62,127
30757,note_off,0,0,0,,12,,,59,127
30758,note_on,1,0,0,,2,,,50,127
30911,note_off,153,0,0,,2,,,50,127
30912,note_on,1,0,0,,2,,,38,127
31065,note_off,153,0,0,,2,,,38,127
31065,note_off,0,0,0,,12,,,71,127
31065,note_off,0,0,0,,2,,,74,127
31066,note_on,1,0,0,,10,,,57,127
31066,note_on,0,0,0,,0,,,60,127
31066,note_on,0,0,0,,10,,,69,127
31066,note_on,0,0,0,,0,,,72,127
31219,note_off,153,0,0,,0,,,60,127
31219,note_off,0,0,0,,10,,,57,127
31220,note_on,1,0,0,,2,,,50,127
31373,note_off,153,0,0,,2,,,50,127
31374,note_on,1,0,0,,2,,,38,127
31527,note_off,153,0,0,,2,,,38,127
31527,note_off,0,0,0,,0,,,72,127
31527,note_off,0,0,0,,10,,,69,127
31528,note_on,1,0,0,,6,,,54,127
31528,note_on,0,0,0,,10,,,57,127
31528,note_on,0,0,0,,10,,,69,127
31528,note_on,0,0,0,,6,,,66,127
31681,note_off,153,0,0,,10,,,57,127
31681,note_off,0,0,0,,6,,,54,127
31682,note_on,1,0,0,,2,,,50,127
31835,note_off,153,0,0,,2,,,50,127
31836,note_on,1,0,0,,2,,,38,127
31989,note_off,153,0,0,,2,,,38,127
31989,note_off,0,0,0,,6,,,66,127
31989,note_off,0,0,0,,10,,,69,127
31990,note_on,1,0,0,,12,,,59,127
31990,note_on,0,0,0,,7,,,55,127
31990,note_on,0,0,0,,12,,,71,127
31990,note_on,0,0,0,,7,,,67,127
32143,note_off,153,0,0,,7,,,67,127
32143,note_off,0,0,0,,7,,,55,127
32143,note_off,0,0,0,,12,,,59,127
32144,note_on,1,0,0,,7,,,67,127
32298,note_on,154,0,0,,7,,,43,127
32451,note_off,153,0,0,,7,,,43,127
32452,note_on,1,0,0,,7,,,43,127
32605,note_off,153,0,0,,7,,,43,127
32606,note_on,1,0,0,,7,,,43,127
32759,note_off,153,0,0,,7,,,43,127
32760,note_off,1,0,0,,7,,,67,127
32760,note_off,0,0,0,,12,,,71,127
32760,note_on,0,0,0,,12,,,47,127
32913,note_off,153,0,0,,12,,,47,127
32914,note_on,1,0,0,,10,,,45,127
32965,note_on,51,0,0,,7,,,43,127
32974,note_off,9,0,0,,10,,,45,127
33016,note_on,42,0,0,,10,,,45,127
33025,note_off,9,0,0,,7,,,43,127
33067,note_on,42,0,0,,7,,,43,127
33067,note_on,0,0,0,,2,,,86,127
33076,note_off,9,0,0,,10,,,45,127
33118,note_on,42,0,0,,10,,,45,127
33127,note_off,9,0,0,,7,,,43,127
33169,note_on,42,0,0,,7,,,43,127
33178,note_off,9,0,0,,10,,,45,127
33220,note_off,42,0,0,,2,,,86,127
33221,note_on,1,0,0,,12,,,83,127
33362,note_off,141,0,0,,7,,,43,127
33375,note_on,13,0,0,,7,,,55,127
33528,note_off,153,0,0,,12,,,83,127
33529,note_on,1,0,0,,7,,,79,127
33682,note_off,153,0,0,,7,,,79,127
33683,note_on,1,0,0,,4,,,76,127
33836,note_off,153,0,0,,7,,,55,127
33837,note_on,1,0,0,,0,,,48,127
33990,note_off,153,0,0,,4,,,76,127
33991,note_on,1,0,0,,0,,,72,127
34144,note_off,153,0,0,,0,,,72,127
34145,note_on,1,0,0,,10,,,69,127
34298,note_off,153,0,0,,0,,,48,127
34299,note_on,1,0,0,,0,,,60,127
34452,note_off,153,0,0,,10,,,69,127
34453,note_on,1,0,0,,7,,,67,127
34606,note_off,153,0,0,,7,,,67,127
34607,note_on,1,0,0,,4,,,64,127
34760,note_off,153,0,0,,4,,,64,127
34760,note_off,0,0,0,,0,,,60,127
34761,note_on,1,0,0,,2,,,38,127
34761,note_on,0,0,0,,2,,,62,127
35067,note_off,306,0,0,,2,,,62,127
35068,note_on,1,0,0,,4,,,64,127
35106,note_on,38,0,0,,6,,,66,127
35128,note_off,22,0,0,,4,,,64,127
35145,note_on,17,0,0,,7,,,67,127
35167,note_off,22,0,0,,6,,,66,127
35184,note_on,17,0,0,,10,,,69,127
35206,note_off,22,0,0,,7,,,67,127
35222,note_off,16,0,0,,2,,,38,127
35223,note_on,1,0,0,,12,,,71,127
35223,note_on,0,0,0,,2,,,50,127
35245,note_off,22,0,0,,10,,,69,127
35274,note_on,29,0,0,,10,,,69,127
35284,note_off,10,0,0,,12,,,71,127
35326,note_on,42,0,0,,12,,,71,127
35335,note_off,9,0,0,,10,,,69,127
35377,note_on,42,0,0,,10,,,69,127
35386,note_off,9,0,0,,12,,,71,127
35428,note_on,42,0,0,,12,,,71,127
35437,note_off,9,0,0,,10,,,69,127
35479,note_on,42,0,0,,10,,,69,127
35488,note_off,9,0,0,,12,,,71,127
35530,note_on,42,0,0,,12,,,71,127
35539,note_off,9,0,0,,10,,,69,127
35581,note_on,42,0,0,,10,,,69,127
35591,note_off,10,0,0,,12,,,71,127
35684,note_off,93,0,0,,10,,,69,127
35685,note_off,1,0,0,,2,,,50,127
35686,note_on,1,0,0,,7,,,43,127
35686,note_on,0,0,0,,7,,,67,127
35839,note_off,153,0,0,,7,,,67,127
35840,note_on,1,0,0,,2,,,74,127
35840,note_on,0,0,0,,12,,,71,127
35993,note_off,153,0,0,,12,,,71,127
35993,note_off,0,0,0,,2,,,74,127
35994,note_on,1,0,0,,10,,,69,127
35994,note_on,0,0,0,,0,,,72,127
36147,note_off,153,0,0,,0,,,72,127
36147,note_off,0,0,0,,10,,,69,127
36147,note_off,0,0,0,,7,,,43,127
36148,note_on,1,0,0,,7,,,43,127
36148,note_on,0,0,0,,7,,,67,127
36148,note_on,0,0,0,,12,,,71,127
36301,note_off,153,0,0,,12,,,71,127
36301,note_off,0,0,0,,7,,,67,127
36301,note_off,0,0,0,,7,,,43,127
36302,note_on,1,0,0,,7,,,55,127
36302,note_on,0,0,0,,12,,,71,127
36302,note_on,0,0,0,,7,,,67,127
36455,note_off,153,0,0,,7,,,67,127
36455,note_off,0,0,0,,12,,,71,127
36455,note_off,0,0,0,,7,,,55,127
36456,note_on,1,0,0,,2,,,50,127
36456,note_on,0,0,0,,10,,,69,127
36456,note_on,0,0,0,,2,,,62,127
36609,note_off,153,0,0,,2,,,62,127
36609,note_off,0,0,0,,10,,,69,127
36609,note_off,0,0,0,,2,,,50,127
36610,note_on,1,0,0,,7,,,43,127
36610,note_on,0,0,0,,12,,,59,127
36610,note_on,0,0,0,,7,,,67,127
36763,note_off,153,0,0,,7,,,67,127
36763,note_off,0,0,0,,12,,,59,127
36764,note_on,1,0,0,,2,,,74,127
36764,note_on,0,0,0,,12,,,71,127
36917,note_off,153,0,0,,12,,,71,127
36917,note_off,0,0,0,,2,,,74,127
36918,note_on,1,0,0,,0,,,72,127
36918,note_on,0,0,0,,10,,,69,127
37071,note_off,153,0,0,,10,,,69,127
37071,note_off,0,0,0,,0,,,72,127
37071,note_off,0,0,0,,7,,,43,127
37072,note_on,1,0,0,,7,,,43,127
37072,note_on,0,0,0,,12,,,71,127
37072,note_on,0,0,0,,7,,,67,127
37225,note_off,153,0,0,,7,,,67,127
37225,note_off,0,0,0,,12,,,71,127
37225,note_off,0,0,0,,7,,,43,127
37226,note_on,1,0,0,,7,,,55,127
37226,note_on,0,0,0,,12,,,71,127
37226,note_on,0,0,0,,7,,,67,127
37379,note_off,153,0,0,,7,,,67,127
37379,note_off,0,0,0,,12,,,71,127
37379,note_off,0,0,0,,7,,,55,127
37380,note_on,1,0,0,,2,,,50,127
37380,note_on,0,0,0,,2,,,62,127
37380,note_on,0,0,0,,10,,,69,127
37533,note_off,153,0,0,,10,,,69,127
37533,note_off,0,0,0,,2,,,62,127
37533,note_off,0,0,0,,2,,,50,127
37534,note_on,1,0,0,,7,,,43,127
37534,note_on,0,0,0,,7,,,67,127
37534,note_on,0,0,0,,12,,,59,127
37687,note_off,153,0,0,,12,,,59,127
37687,note_off,0,0,0,,7,,,67,127
37688,note_on,1,0,0,,2,,,74,127
37688,note_on,0,0,0,,12,,,71,127
37841,note_off,153,0,0,,12,,,71,127
37841,note_off,0,0,0,,2,,,74,127
37842,note_on,1,0,0,,10,,,69,127
37842,note_on,0,0,0,,0,,,72,127
37995,note_off,153,0,0,,0,,,72,127
37995,note_off,0,0,0,,10,,,69,127
37995,note_off,0,0,0,,7,,,43,127
37996,note_on,1,0,0,,7,,,43,127
37996,note_on,0,0,0,,7,,,67,127
37996,note_on,0,0,0,,12,,,71,127
38149,note_off,153,0,0,,12,,,71,127
38149,note_off,0,0,0,,7,,,67,127
38149,note_off,0,0,0,,7,,,43,127
38150,note_on,1,0,0,,7,,,55,127
38150,note_on,0,0,0,,7,,,79,127
38150,note_on,0,0,0,,12,,,71,127
38303,note_off,153,0,0,,12,,,71,127
38303,note_off,0,0,0,,7,,,79,127
38303,note_off,0,0,0,,7,,,55,127
38304,note_on,1,0,0,,2,,,50,127
38304,note_on,0,0,0,,6,,,78,127
38304,note_on,0,0,0,,10,,,69,127
38457,note_off,153,0,0,,10,,,69,127
38457,note_off,0,0,0,,6,,,78,127
38457,note_off,0,0,0,,2,,,50,127
38458,note_on,1,0,0,,7,,,43,127
38458,note_on,0,0,0,,12,,,71,127
38458,note_on,0,0,0,,7,,,79,127
38762,note_off,304,0,0,,7,,,79,127
38918,note_off,156,0,0,,12,,,71,127
38918,note_off,0,0,0,,7,,,43,127
38919,note_on,1,0,0,,7,,,67,127
38919,note_on,0,0,0,,12,,,71,127
39072,note_off,153,0,0,,7,,,67,127
39073,note_on,1,0,0,,7,,,67,127
39226,note_off,153,0,0,,7,,,67,127
39227,note_on,1,0,0,,7,,,67,127
39380,note_off,153,0,0,,7,,,67,127
39380,note_off,0,0,0,,12,,,71,127
39381,note_on,1,0,0,,7,,,67,127
39381,note_on,0,0,0,,0,,,72,127
39381,note_on,0,0,0,,10,,,69,127
39534,note_off,153,0,0,,7,,,67,127
39535,note_on,1,0,0,,7,,,67,127
39688,note_off,153,0,0,,7,,,67,127
39689,note_on,1,0,0,,7,,,67,127
39842,note_off,153,0,0,,7,,,67,127
39842,note_off,0,0,0,,10,,,69,127
39842,note_off,0,0,0,,0,,,72,127
39843,note_on,1,0,0,,6,,,66,127
39843,note_on,0,0,0,,10,,,69,127
39843,note_on,0,0,0,,3,,,75,127
39843,note_on,0,0,0,,0,,,72,127
39996,note_off,153,0,0,,6,,,66,127
39997,note_on,1,0,0,,6,,,66,127
40150,note_off,153,0,0,,6,,,66,127
40151,note_on,1,0,0,,6,,,66,127
40304,note_off,153,0,0,,6,,,66,127
40304,note_off,0,0,0,,0,,,72,127
40304,note_off,0,0,0,,3,,,75,127
40304,note_off,0,0,0,,10,,,69,127
40305,note_on,1,0,0,,4,,,64,127
40305,note_on,0,0,0,,0,,,72,127
40305,note_on,0,0,0,,10,,,69,127
40305,note_on,0,0,0,,4,,,76,127
40458,note_off,153,0,0,,4,,,64,127
40459,note_on,1,0,0,,4,,,64,127
40612,note_off,153,0,0,,4,,,64,127
40613,note_on,1,0,0,,4,,,64,127
40766,note_off,153,0,0,,4,,,64,127
40766,note_off,0,0,0,,4,,,76,127
40766,note_off,0,0,0,,10,,,69,127
40766,note_off,0,0,0,,0,,,72,127
40767,note_on,1,0,0,,3,,,63,127
40767,note_on,0,0,0,,6,,,78,127
40767,note_on,0,0,0,,12,,,71,127
40767,note_on,0,0,0,,10,,,69,127
40920,note_off,153,0,0,,3,,,63,127
40921,note_on,1,0,0,,3,,,63,127
41074,note_off,153,0,0,,3,,,63,127
41075,note_on,1,0,0,,3,,,63,127
41228,note_off,153,0,0,,3,,,63,127
41228,note_off,0,0,0,,10,,,69,127
41228,note_off,0,0,0,,12,,,71,127
41228,note_off,0,0,0,,6,,,78,127
41229,note_on,1,0,0,,2,,,62,127
41229,note_on,0,0,0,,2,,,74,127
41229,note_on,0,0,0,,12,,,71,127
41229,note_on,0,0,0,,8,,,80,127
41382,note_off,153,0,0,,2,,,62,127
41383,note_on,1,0,0,,2,,,62,127
41536,note_off,153,0,0,,2,,,62,127
41537,note_on,1,0,0,,2,,,62,127
41690,note_off,153,0,0,,2,,,62,127
41690,note_off,0,0,0,,8,,,80,127
41690,note_off,0,0,0,,12,,,71,127
41690,note_off,0,0,0,,2,,,74,127
41691,note_on,1,0,0,,0,,,60,127
41691,note_on,0,0,0,,4,,,64,127
41691,note_on,0,0,0,,10,,,81,127
41691,note_on,0,0,0,,4,,,76,127
41691,note_on,0,0,0,,0,,,72,127
41844,note_off,153,0,0,,4,,,64,127
41844,note_off,0,0,0,,0,,,60,127
41845,note_on,1,0,0,,0,,,60,127
41845,note_on,0,0,0,,4,,,64,127
41998,note_off,153,0,0,,4,,,64,127
41998,note_off,0,0,0,,0,,,60,127
41999,note_on,1,0,0,,0,,,60,127
41999,note_on,0,0,0,,4,,,64,127
42152,note_off,153,0,0,,4,,,64,127
42152,note_off,0,0,0,,0,,,60,127
42152,note_off,0,0,0,,0,,,72,127
42152,note_off,0,0,0,,4,,,76,127
42152,note_off,0,0,0,,10,,,81,127
42153,note_on,1,0,0,,12,,,59,127
42153,note_on,0,0,0,,4,,,64,127
42153,note_on,0,0,0,,2,,,62,127
42153,note_on,0,0,0,,12,,,83,127
42153,note_on,0,0,0,,2,,,74,127
42306,note_off,153,0,0,,2,,,62,127
42306,note_off,0,0,0,,4,,,64,127
42306,note_off,0,0,0,,12,,,59,127
42307,note_on,1,0,0,,2,,,62,127
42307,note_on,0,0,0,,12,,,59,127
42307,note_on,0,0,0,,4,,,64,127
42460,note_off,153,0,0,,4,,,64,127
42460,note_off,0,0,0,,12,,,59,127
42460,note_off,0,0,0,,2,,,62,127
42461,note_on,1,0,0,,12,,,59,127
42461,note_on,0,0,0,,4,,,64,127
42461,note_on,0,0,0,,2,,,62,127
42614,note_off,153,0,0,,2,,,62,127
42614,note_off,0,0,0,,4,,,64,127
42614,note_off,0,0,0,,12,,,59,127
42614,note_off,0,0,0,,2,,,74,127
42614,note_off,0,0,0,,12,,,83,127
42615,note_on,1,0,0,,4,,,64,127
42615,note_on,0,0,0,,10,,,57,127
42615,note_on,0,0,0,,0,,,84,127
42615,note_on,0,0,0,,4,,,76,127
42768,note_off,153,0,0,,10,,,57,127
42768,note_off,0,0,0,,4,,,64,127
42769,note_on,1,0,0,,4,,,64,127
42769,note_on,0,0,0,,10,,,57,127
42922,note_off,153,0,0,,10,,,57,127
42922,note_off,0,0,0,,4,,,64,127
42923,note_on,1,0,0,,10,,,57,127
42923,note_on,0,0,0,,4,,,64,127
43076,note_off,153,0,0,,4,,,64,127
43076,note_off,0,0,0,,10,,,57,127
43076,note_off,0,0,0,,4,,,76,127
43076,note_off,0,0,0,,0,,,84,127
43077,note_on,1,0,0,,4,,,64,127
43077,note_on,0,0,0,,7,,,55,127
43077,note_on,0,0,0,,4,,,76,127
43077,note_on,0,0,0,,1,,,85,127
43230,note_off,153,0,0,,7,,,55,127
43230,note_off,0,0,0,,4,,,64,127
43231,note_on,1,0,0,,4,,,64,127
43231,note_on,0,0,0,,7,,,55,127
43384,note_off,153,0,0,,7,,,55,127
43384,note_off,0,0,0,,4,,,64,127
43385,note_on,1,0,0,,4,,,64,127
43385,note_on,0,0,0,,7,,,55,127
43538,note_off,153,0,0,,7,,,55,127
43538,note_off,0,0,0,,4,,,64,127
43538,note_off,0,0,0,,1,,,85,127
43538,note_off,0,0,0,,4,,,76,127
43539,note_on,1,0,0,,5,,,53,127
43539,note_on,0,0,0,,2,,,62,127
43539,note_on,0,0,0,,2,,,86,127
43539,note_on,0,0,0,,2,,,74,127
43692,note_off,153,0,0,,2,,,62,127
43692,note_off,0,0,0,,5,,,53,127
43693,note_on,1,0,0,,5,,,53,127
43693,note_on,0,0,0,,2,,,62,127
43846,note_off,153,0,0,,2,,,62,127
43846,note_off,0,0,0,,5,,,53,127
43847,note_on,1,0,0,,5,,,53,127
43847,note_on,0,0,0,,2,,,62,127
44000,note_off,153,0,0,,2,,,62,127
44000,note_off,0,0,0,,5,,,53,127
44001,note_on,1,0,0,,11,,,58,127
44001,note_on,0,0,0,,7,,,55,127
44001,note_on,0,0,0,,2,,,62,127
44154,note_off,153,0,0,,2,,,62,127
44154,note_off,0,0,0,,7,,,55,127
44154,note_off,0,0,0,,11,,,58,127
44154,note_off,0,0,0,,2,,,74,127
44154,note_off,0,0,0,,2,,,86,127
44155,note_on,1,0,0,,11,,,58,127
44155,note_on,0,0,0,,7,,,55,127
44155,note_on,0,0,0,,2,,,62,127
44155,note_on,0,0,0,,2,,,86,127
44308,note_off,153,0,0,,2,,,86,127
44308,note_off,0,0,0,,2,,,62,127
44308,note_off,0,0,0,,7,,,55,127
44308,note_off,0,0,0,,11,,,58,127
44309,note_on,1,0,0,,7,,,55,127
44309,note_on,0,0,0,,11,,,58,127
44309,note_on,0,0,0,,2,,,62,127
44309,note_on,0,0,0,,11,,,82,127
44462,note_off,153,0,0,,2,,,62,127
44462,note_off,0,0,0,,11,,,58,127
44462,note_off,0,0,0,,7,,,55,127
44463,note_on,1,0,0,,7,,,55,127
44463,note_on,0,0,0,,7,,,67,127
44616,note_off,153,0,0,,7,,,67,127
44616,note_off,0,0,0,,7,,,55,127
44616,note_off,0,0,0,,11,,,82,127
44617,note_on,1,0,0,,7,,,55,127
44617,note_on,0,0,0,,7,,,67,127
44617,note_on,0,0,0,,7,,,79,127
44770,note_off,153,0,0,,7,,,79,127
44770,note_off,0,0,0,,7,,,67,127
44770,note_off,0,0,0,,7,,,55,127
44771,note_on,1,0,0,,7,,,67,127
44771,note_on,0,0,0,,7,,,55,127
44771,note_on,0,0,0,,4,,,76,127
44924,note_off,153,0,0,,4,,,76,127
44924,note_off,0,0,0,,7,,,55,127
44924,note_off,0,0,0,,7,,,67,127
44925,note_on,1,0,0,,10,,,69,127
44925,note_on,0,0,0,,10,,,57,127
44925,note_on,0,0,0,,2,,,74,127
44976,note_on,51,0,0,,1,,,73,127
44985,note_off,9,0,0,,2,,,74,127
45027,note_on,42,0,0,,2,,,74,127
45036,note_off,9,0,0,,1,,,73,127
45078,note_on,42,0,0,,1,,,73,127
45087,note_off,9,0,0,,2,,,74,127
45129,note_on,42,0,0,,2,,,74,127
45138,note_off,9,0,0,,1,,,73,127
45180,note_on,42,0,0,,1,,,73,127
45189,note_off,9,0,0,,2,,,74,127
45372,note_off,183,0,0,,1,,,73,127
45384,note_off,12,0,0,,10,,,57,127
45384,note_off,0,0,0,,10,,,69,127
45398,note_on,14,0,0,,5,,,77,127
45398,note_on,0,0,0,,10,,,81,127
45398,note_on,0,0,0,,5,,,65,127
45398,note_on,0,0,0,,10,,,69,127
45551,note_off,153,0,0,,10,,,69,127
45551,note_off,0,0,0,,5,,,65,127
45552,note_on,1,0,0,,10,,,57,127
45705,note_off,153,0,0,,10,,,57,127
45706,note_on,1,0,0,,10,,,45,127
45859,note_off,153,0,0,,10,,,45,127
45859,note_off,0,0,0,,10,,,81,127
45859,note_off,0,0,0,,5,,,77,127
45860,note_on,1,0,0,,1,,,73,127
45860,note_on,0,0,0,,7,,,79,127
45860,note_on,0,0,0,,7,,,67,127
45860,note_on,0,0,0,,4,,,64,127
46013,note_off,153,0,0,,4,,,64,127
46013,note_off,0,0,0,,7,,,67,127
46014,note_on,1,0,0,,10,,,57,127
46167,note_off,153,0,0,,10,,,57,127
46168,note_on,1,0,0,,10,,,45,127
46321,note_off,153,0,0,,10,,,45,127
46321,note_off,0,0,0,,7,,,79,127
46321,note_off,0,0,0,,1,,,73,127
46322,note_on,1,0,0,,2,,,74,127
46322,note_on,0,0,0,,5,,,77,127
46322,note_on,0,0,0,,5,,,65,127
46322,note_on,0,0,0,,2,,,62,127
46475,note_off,153,0,0,,2,,,62,127
46475,note_off,0,0,0,,5,,,65,127
46476,note_on,1,0,0,,10,,,57,127
46629,note_off,153,0,0,,10,,,57,127
46630,note_on,1,0,0,,10,,,45,127
46783,note_off,153,0,0,,10,,,45,127
46783,note_off,0,0,0,,5,,,77,127
46783,note_off,0,0,0,,2,,,74,127
46784,note_on,1,0,0,,4,,,76,127
46784,note_on,0,0,0,,10,,,69,127
46784,note_on,0,0,0,,4,,,64,127
46784,note_on,0,0,0,,1,,,61,127
46937,note_off,153,0,0,,1,,,61,127
46937,note_off,0,0,0,,4,,,64,127
46938,note_on,1,0,0,,10,,,57,127
47091,note_off,153,0,0,,10,,,57,127
47092,note_on,1,0,0,,10,,,45,127
47245,note_off,153,0,0,,10,,,45,127
47245,note_off,0,0,0,,10,,,69,127
47245,note_off,0,0,0,,4,,,76,127
47246,note_on,1,0,0,,10,,,81,127
47246,note_on,0,0,0,,5,,,77,127
47246,note_on,0,0,0,,10,,,69,127
47246,note_on,0,0,0,,5,,,65,127
47399,note_off,153,0,0,,5,,,65,127
47399,note_off,0,0,0,,10,,,69,127
47400,note_on,1,0,0,,10,,,57,127
47553,note_off,153,0,0,,10,,,57,127
47554,note_on,1,0,0,,10,,,45,127
47707,note_off,153,0,0,,10,,,45,127
47707,note_off,0,0,0,,5,,,77,127
47707,note_off,0,0,0,,10,,,81,127
47708,note_on,1,0,0,,7,,,79,127
47708,note_on,0,0,0,,4,,,76,127
47708,note_on,0,0,0,,7,,,67,127
47708,note_on,0,0,0,,4,,,64,127
47861,note_off,153,0,0,,4,,,64,127
47861,note_off,0,0,0,,7,,,67,127
47862,note_on,1,0,0,,10,,,57,127
48015,note_off,153,0,0,,10,,,57,127
48016,note_on,1,0,0,,10,,,45,127
48169,note_off,153,0,0,,10,,,45,127
48169,note_off,0,0,0,,4,,,76,127
48169,note_off,0,0,0,,7,,,79,127
48170,note_on,1,0,0,,4,,,76,127
48170,note_on,0,0,0,,1,,,73,127
48170,note_on,0,0,0,,4,,,64,127
48170,note_on,0,0,0,,1,,,61,127
48323,note_off,153,0,0,,1,,,61,127
48323,note_off,0,0,0,,4,,,64,127
48324,note_on,1,0,0,,10,,,57,127
48477,note_off,153,0,0,,10,,,57,127
48478,note_on,1,0,0,,10,,,45,127
48631,note_off,153,0,0,,10,,,45,127
48631,note_off,0,0,0,,1,,,73,127
48631,note_off,0,0,0,,4,,,76,127
48632,note_on,1,0,0,,7,,,79,127
48632,note_on,0,0,0,,2,,,50,127
48683,note_on,51,0,0,,5,,,77,127
48692,note_off,9,0,0,,7,,,79,127
48734,note_on,42,0,0,,7,,,79,127
48743,note_off,9,0,0,,5,,,77,127
48785,note_on,42,0,0,,5,,,77,127
48794,note_off,9,0,0,,7,,,79,127
48836,note_on,42,0,0,,4,,,76,127
48845,note_off,9,0,0,,5,,,77,127
48939,note_off,94,0,0,,4,,,76,127
48939,note_on,0,0,0,,2,,,74,127
49092,note_off,153,0,0,,2,,,74,127
49092,note_off,0,0,0,,2,,,50,127
49106,note_on,14,0,0,,4,,,64,127
49106,note_on,0,0,0,,7,,,67,127
49106,note_on,0,0,0,,4,,,76,127
49106,note_on,0,0,0,,7,,,79,127
49259,note_off,153,0,0,,7,,,67,127
49259,note_off,0,0,0,,4,,,64,127
49260,note_on,1,0,0,,7,,,55,127
49413,note_off,153,0,0,,7,,,55,127
49414,note_on,1,0,0,,7,,,43,127
49567,note_off,153,0,0,,7,,,43,127
49567,note_off,0,0,0,,7,,,79,127
49567,note_off,0,0,0,,4,,,76,127
49568,note_on,1,0,0,,2,,,62,127
49568,note_on,0,0,0,,5,,,65,127
49568,note_on,0,0,0,,12,,,71,127
49568,note_on,0,0,0,,5,,,77,127
49721,note_off,153,0,0,,5,,,65,127
49721,note_off,0,0,0,,2,,,62,127
49722,note_on,1,0,0,,7,,,55,127
49875,note_off,153,0,0,,7,,,55,127
49876,note_on,1,0,0,,7,,,43,127
50029,note_off,153,0,0,,7,,,43,127
50029,note_off,0,0,0,,5,,,77,127
50029,note_off,0,0,0,,12,,,71,127
50030,note_on,1,0,0,,0,,,60,127
50030,note_on,0,0,0,,4,,,64,127
50030,note_on,0,0,0,,0,,,72,127
50030,note_on,0,0,0,,4,,,76,127
50183,note_off,153,0,0,,4,,,64,127
50183,note_off,0,0,0,,0,,,60,127
50184,note_on,1,0,0,,7,,,55,127
50337,note_off,153,0,0,,7,,,55,127
50338,note_on,1,0,0,,7,,,43,127
50491,note_off,153,0,0,,7,,,43,127
50491,note_off,0,0,0,,4,,,76,127
50491,note_off,0,0,0,,0,,,72,127
50492,note_on,1,0,0,,12,,,59,127
50492,note_on,0,0,0,,2,,,62,127
50492,note_on,0,0,0,,2,,,74,127
50492,note_on,0,0,0,,7,,,67,127
50645,note_off,153,0,0,,2,,,62,127
50645,note_off,0,0,0,,12,,,59,127
50646,note_on,1,0,0,,7,,,55,127
50799,note_off,153,0,0,,7,,,55,127
50800,note_on,1,0,0,,7,,,43,127
50953,note_off,153,0,0,,7,,,43,127
50953,note_off,0,0,0,,7,,,67,127
50953,note_off,0,0,0,,2,,,74,127
50954,note_on,1,0,0,,4,,,64,127
50954,note_on,0,0,0,,7,,,67,127
50954,note_on,0,0,0,,4,,,76,127
50954,note_on,0,0,0,,7,,,79,127
51107,note_off,153,0,0,,7,,,67,127
51107,note_off,0,0,0,,4,,,64,127
51108,note_on,1,0,0,,7,,,55,127
51261,note_off,153,0,0,,7,,,55,127
51262,note_on,1,0,0,,7,,,43,127
51415,note_off,153,0,0,,7,,,43,127
51415,note_off,0,0,0,,7,,,79,127
51415,note_off,0,0,0,,4,,,76,127
51416,note_on,1,0,0,,2,,,62,127
51416,note_on,0,0,0,,5,,,65,127
51416,note_on,0,0,0,,2,,,74,127
51416,note_on,0,0,0,,5,,,77,127
51569,note_off,153,0,0,,5,,,65,127
51569,note_off,0,0,0,,2,,,62,127
51570,note_on,1,0,0,,7,,,55,127
51723,note_off,153,0,0,,7,,,55,127
51724,note_on,1,0,0,,7,,,43,127
51877,note_off,153,0,0,,7,,,43,127
51877,note_off,0,0,0,,5,,,77,127
51877,note_off,0,0,0,,2,,,74,127
51878,note_on,1,0,0,,12,,,59,127
51878,note_on,0,0,0,,2,,,62,127
51878,note_on,0,0,0,,12,,,71,127
51878,note_on,0,0,0,,2,,,74,127
52031,note_off,153,0,0,,2,,,62,127
52031,note_off,0,0,0,,12,,,59,127
52032,note_on,1,0,0,,7,,,55,127
52185,note_off,153,0,0,,7,,,55,127
52186,note_on,1,0,0,,7,,,43,127
52339,note_off,153,0,0,,7,,,43,127
52339,note_off,0,0,0,,2,,,74,127
52339,note_off,0,0,0,,12,,,71,127
52340,note_on,1,0,0,,0,,,48,127
52340,note_on,0,0,0,,5,,,77,127
52391,note_on,51,0,0,,4,,,76,127
52400,note_off,9,0,0,,5,,,77,127
52442,note_on,42,0,0,,5,,,77,127
52451,note_off,9,0,0,,4,,,76,127
52493,note_on,42,0,0,,4,,,76,127
52502,note_off,9,0,0,,5,,,77,127
52544,note_on,42,0,0,,2,,,74,127
52553,note_off,9,0,0,,4,,,76,127
52647,note_off,94,0,0,,2,,,74,127
52647,note_on,0,0,0,,0,,,72,127
52800,note_off,153,0,0,,0,,,72,127
52800,note_off,0,0,0,,0,,,48,127
52801,note_on,1,0,0,,0,,,60,127
52801,note_on,0,0,0,,12,,,59,127
52801,note_on,0,0,0,,7,,,79,127
52801,note_on,0,0,0,,11,,,70,127
52954,note_off,153,0,0,,12,,,59,127
52954,note_off,0,0,0,,0,,,60,127
52955,note_on,1,0,0,,0,,,60,127
53108,note_off,153,0,0,,0,,,60,127
53109,note_on,1,0,0,,0,,,60,127
53262,note_off,153,0,0,,0,,,60,127
53262,note_off,0,0,0,,11,,,70,127
53262,note_off,0,0,0,,7,,,79,127
53263,note_on,1,0,0,,0,,,60,127
53263,note_on,0,0,0,,5,,,77,127
53263,note_on,0,0,0,,8,,,68,127
53263,note_on,0,0,0,,12,,,59,127
53416,note_off,153,0,0,,12,,,59,127
53416,note_off,0,0,0,,0,,,60,127
53417,note_on,1,0,0,,0,,,60,127
53570,note_off,153,0,0,,0,,,60,127
53571,note_on,1,0,0,,0,,,60,127
53724,note_off,153,0,0,,0,,,60,127
53724,note_off,0,0,0,,8,,,68,127
53724,note_off,0,0,0,,5,,,77,127
53725,note_on,1,0,0,,0,,,60,127
53725,note_on,0,0,0,,7,,,67,127
53725,note_on,0,0,0,,3,,,75,127
53725,note_on,0,0,0,,12,,,59,127
53878,note_off,153,0,0,,12,,,59,127
53878,note_off,0,0,0,,0,,,60,127
53879,note_on,1,0,0,,0,,,60,127
54032,note_off,153,0,0,,0,,,60,127
54033,note_on,1,0,0,,0,,,60,127
54186,note_off,153,0,0,,0,,,60,127
54186,note_off,0,0,0,,3,,,75,127
54186,note_off,0,0,0,,7,,,67,127
54187,note_on,1,0,0,,0,,,60,127
54187,note_on,0,0,0,,5,,,65,127
54187,note_on,0,0,0,,1,,,73,127
54187,note_on,0,0,0,,12,,,59,127
54340,note_off,153,0,0,,12,,,59,127
54340,note_off,0,0,0,,0,,,60,127
54341,note_on,1,0,0,,0,,,60,127
54494,note_off,153,0,0,,0,,,60,127
54495,note_on,1,0,0,,0,,,60,127
54648,note_off,153,0,0,,0,,,60,127
54648,note_off,0,0,0,,1,,,73,127
54648,note_off,0,0,0,,5,,,65,127
54649,note_on,1,0,0,,0,,,60,127
54649,note_on,0,0,0,,4,,,64,127
54649,note_on,0,0,0,,0,,,72,127
54649,note_on,0,0,0,,12,,,59,127
54802,note_off,153,0,0,,12,,,59,127
54802,note_off,0,0,0,,0,,,60,127
54803,note_on,1,0,0,,0,,,60,127
54956,note_off,153,0,0,,0,,,60,127
54957,note_on,1,0,0,,0,,,60,127
55110,note_off,153,0,0,,0,,,60,127
55110,note_off,0,0,0,,0,,,72,127
55110,note_off,0,0,0,,4,,,64,127
55111,note_on,1,0,0,,1,,,61,127
55111,note_on,0,0,0,,5,,,65,127
55111,note_on,0,0,0,,11,,,70,127
55264,note_off,153,0,0,,1,,,61,127
55265,note_on,1,0,0,,1,,,61,127
55418,note_off,153,0,0,,1,,,61,127
55419,note_on,1,0,0,,1,,,61,127
55572,note_off,153,0,0,,1,,,61,127
55572,note_off,0,0,0,,11,,,70,127
55572,note_off,0,0,0,,5,,,65,127
55573,note_on,1,0,0,,0,,,60,127
55573,note_on,0,0,0,,10,,,69,127
55573,note_on,0,0,0,,3,,,63,127
55726,note_off,153,0,0,,0,,,60,127
55727,note_on,1,0,0,,0,,,60,127
55880,note_off,153,0,0,,0,,,60,127
55881,note_on,1,0,0,,0,,,60,127
56034,note_off,153,0,0,,0,,,60,127
56034,note_off,0,0,0,,3,,,63,127
56034,note_off,0,0,0,,10,,,69,127
56035,note_on,1,0,0,,1,,,61,127
56035,note_on,0,0,0,,11,,,70,127
56035,note_on,0,0,0,,5,,,65,127
56188,note_off,153,0,0,,1,,,61,127
56189,note_on,1,0,0,,1,,,61,127
56342,note_off,153,0,0,,1,,,61,127
56343,note_on,1,0,0,,1,,,61,127
56496,note_off,153,0,0,,1,,,61,127
56496,note_off,0,0,0,,5,,,65,127
56496,note_off,0,0,0,,11,,,70,127
56497,note_on,1,0,0,,0,,,60,127
56497,note_on,0,0,0,,7,,,79,127
56497,note_on,0,0,0,,11,,,70,127
56497,note_on,0,0,0,,12,,,59,127
56650,note_off,153,0,0,,12,,,59,127
56650,note_off,0,0,0,,0,,,60,127
56651,note_on,1,0,0,,0,,,60,127
56804,note_off,153,0,0,,0,,,60,127
56805,note_on,1,0,0,,0,,,60,127
56958,note_off,153,0,0,,0,,,60,127
56958,note_off,0,0,0,,11,,,70,127
56958,note_off,0,0,0,,7,,,79,127
56959,note_on,1,0,0,,0,,,60,127
56959,note_on,0,0,0,,8,,,68,127
56959,note_on,0,0,0,,5,,,77,127
56959,note_on,0,0,0,,12,,,59,127
57112,note_off,153,0,0,,12,,,59,127
57112,note_off,0,0,0,,0,,,60,127
57113,note_on,1,0,0,,0,,,60,127
57266,note_off,153,0,0,,0,,,60,127
57267,note_on,1,0,0,,0,,,60,127
57420,note_off,153,0,0,,0,,,60,127
57420,note_off,0,0,0,,5,,,77,127
57420,note_off,0,0,0,,8,,,68,127
57421,note_on,1,0,0,,0,,,60,127
57421,note_on,0,0,0,,7,,,67,127
57421,note_on,0,0,0,,3,,,75,127
57421,note_on,0,0,0,,12,,,59,127
57574,note_off,153,0,0,,12,,,59,127
57574,note_off,0,0,0,,0,,,60,127
57575,note_on,1,0,0,,0,,,60,127
57728,note_off,153,0,0,,0,,,60,127
57729,note_on,1,0,0,,0,,,60,127
57882,note_off,153,0,0,,0,,,60,127
57882,note_off,0,0,0,,3,,,75,127
57882,note_off,0,0,0,,7,,,67,127
57883,note_on,1,0,0,,0,,,60,127
57883,note_on,0,0,0,,5,,,65,127
57883,note_on,0,0,0,,1,,,73,127
57883,note_on,0,0,0,,12,,,59,127
58036,note_off,153,0,0,,12,,,59,127
58036,note_off,0,0,0,,0,,,60,127
58037,note_on,1,0,0,,0,,,60,127
58190,note_off,153,0,0,,0,,,60,127
58191,note_on,1,0,0,,0,,,60,127
58344,note_off,153,0,0,,0,,,60,127
58344,note_off,0,0,0,,1,,,73,127
58344,note_off,0,0,0,,5,,,65,127
58345,note_on,1,0,0,,0,,,60,127
58345,note_on,0,0,0,,0,,,72,127
58345,note_on,0,0,0,,4,,,64,127
58345,note_on,0,0,0,,12,,,59,127
58498,note_off,153,0,0,,12,,,59,127
58498,note_off,0,0,0,,0,,,60,127
58499,note_on,1,0,0,,0,,,60,127
58652,note_off,153,0,0,,0,,,60,127
58653,note_on,1,0,0,,0,,,60,127
58806,note_off,153,0,0,,0,,,60,127
58806,note_off,0,0,0,,4,,,64,127
58806,note_off,0,0,0,,0,,,72,127
58807,note_on,1,0,0,,1,,,61,127
58807,note_on,0,0,0,,5,,,65,127
58807,note_on,0,0,0,,11,,,70,127
58960,note_off,153,0,0,,1,,,61,127
58961,note_on,1,0,0,,1,,,61,127
59114,note_off,153,0,0,,1,,,61,127
59115,note_on,1,0,0,,1,,,61,127
59268,note_off,153,0,0,,1,,,61,127
59268,note_off,0,0,0,,11,,,70,127
59268,note_off,0,0,0,,5,,,65,127
59282,note_on,14,0,0,,10,,,69,127
59282,note_on,0,0,0,,0,,,60,127
59282,note_on,0,0,0,,3,,,63,127
59435,note_off,153,0,0,,3,,,63,127
59435,note_off,0,0,0,,0,,,60,127
59436,note_on,1,0,0,,0,,,60,127
59436,note_on,0,0,0,,3,,,63,127
59589,note_off,153,0,0,,3,,,63,127
59589,note_off,0,0,0,,0,,,60,127
59590,note_on,1,0,0,,0,,,60,127
59590,note_on,0,0,0,,5,,,65,127
59743,note_off,153,0,0,,5,,,65,127
59743,note_off,0,0,0,,0,,,60,127
59743,note_off,0,0,0,,10,,,69,127
59744,note_on,1,0,0,,11,,,70,127
59744,note_on,0,0,0,,11,,,58,127
59744,note_on,0,0,0,,3,,,63,127
59744,note_on,0,0,0,,6,,,66,127
59897,note_off,153,0,0,,6,,,66,127
59897,note_off,0,0,0,,3,,,63,127
59897,note_off,0,0,0,,11,,,58,127
59898,note_on,1,0,0,,6,,,66,127
59898,note_on,0,0,0,,3,,,63,127
59898,note_on,0,0,0,,11,,,58,127
60051,note_off,153,0,0,,11,,,58,127
60051,note_off,0,0,0,,3,,,63,127
60051,note_off,0,0,0,,6,,,66,127
60052,note_on,1,0,0,,6,,,66,127
60052,note_on,0,0,0,,11,,,58,127
60052,note_on,0,0,0,,3,,,63,127
60205,note_off,153,0,0,,3,,,63,127
60205,note_off,0,0,0,,11,,,58,127
60205,note_off,0,0,0,,6,,,66,127
60205,note_off,0,0,0,,11,,,70,127
60206,note_on,1,0,0,,0,,,72,127
60206,note_on,0,0,0,,5,,,65,127
60206,note_on,0,0,0,,10,,,57,127
60206,note_on,0,0,0,,3,,,63,127
60359,note_off,153,0,0,,3,,,63,127
60359,note_off,0,0,0,,10,,,57,127
60359,note_off,0,0,0,,5,,,65,127
60360,note_on,1,0,0,,3,,,63,127
60360,note_on,0,0,0,,5,,,65,127
60360,note_on,0,0,0,,10,,,57,127
60513,note_off,153,0,0,,10,,,57,127
60513,note_off,0,0,0,,5,,,65,127
60513,note_off,0,0,0,,3,,,63,127
60514,note_on,1,0,0,,10,,,57,127
60514,note_on,0,0,0,,3,,,63,127
60514,note_on,0,0,0,,5,,,65,127
60667,note_off,153,0,0,,5,,,65,127
60667,note_off,0,0,0,,3,,,63,127
60667,note_off,0,0,0,,10,,,57,127
60667,note_off,0,0,0,,0,,,72,127
60668,note_on,1,0,0,,3,,,75,127
60668,note_on,0,0,0,,11,,,58,127
60668,note_on,0,0,0,,6,,,66,127
60719,note_on,51,0,0,,1,,,73,127
60728,note_off,9,0,0,,3,,,75,127
60770,note_on,42,0,0,,3,,,75,127
60779,note_off,9,0,0,,1,,,73,127
60821,note_off,42,0,0,,6,,,66,127
60821,note_off,0,0,0,,11,,,58,127
60822,note_on,1,0,0,,6,,,66,127
60822,note_on,0,0,0,,11,,,58,127
60822,note_on,0,0,0,,1,,,73,127
60831,note_off,9,0,0,,3,,,75,127
60873,note_on,42,0,0,,0,,,72,127
60882,note_off,9,0,0,,1,,,73,127
60975,note_off,93,0,0,,11,,,58,127
60975,note_off,0,0,0,,6,,,66,127
60976,note_off,1,0,0,,0,,,72,127
60976,note_on,0,0,0,,11,,,70,127
60976,note_on,0,0,0,,6,,,66,127
60976,note_on,0,0,0,,11,,,58,127
61129,note_off,153,0,0,,11,,,58,127
61129,note_off,0,0,0,,6,,,66,127
61129,note_off,0,0,0,,11,,,70,127
61143,note_on,14,0,0,,11,,,58,127
61143,note_on,0,0,0,,7,,,67,127
61143,note_on,0,0,0,,4,,,64,127
61143,note_on,0,0,0,,4,,,76,127
61296,note_off,153,0,0,,4,,,64,127
61296,note_off,0,0,0,,7,,,67,127
61296,note_off,0,0,0,,11,,,58,127
61297,note_on,1,0,0,,11,,,58,127
61297,note_on,0,0,0,,4,,,64,127
61297,note_on,0,0,0,,7,,,67,127
61450,note_off,153,0,0,,7,,,67,127
61450,note_off,0,0,0,,4,,,64,127
61450,note_off,0,0,0,,11,,,58,127
61451,note_on,1,0,0,,11,,,58,127
61451,note_on,0,0,0,,4,,,64,127
61451,note_on,0,0,0,,7,,,67,127
61604,note_off,153,0,0,,7,,,67,127
61604,note_off,0,0,0,,4,,,64,127
61604,note_off,0,0,0,,11,,,58,127
61604,note_off,0,0,0,,4,,,76,127
61605,note_on,1,0,0,,10,,,57,127
61605,note_on,0,0,0,,0,,,60,127
61605,note_on,0,0,0,,5,,,65,127
61605,note_on,0,0,0,,5,,,77,127
61758,note_off,153,0,0,,5,,,65,127
61758,note_off,0,0,0,,0,,,60,127
61758,note_off,0,0,0,,10,,,57,127
61759,note_on,1,0,0,,10,,,57,127
61759,note_on,0,0,0,,0,,,60,127
61759,note_on,0,0,0,,5,,,65,127
61912,note_off,153,0,0,,5,,,65,127
61912,note_off,0,0,0,,0,,,60,127
61912,note_off,0,0,0,,10,,,57,127
61913,note_on,1,0,0,,0,,,60,127
61913,note_on,0,0,0,,10,,,57,127
61913,note_on,0,0,0,,5,,,65,127
62066,note_off,153,0,0,,5,,,65,127
62066,note_off,0,0,0,,10,,,57,127
62066,note_off,0,0,0,,0,,,60,127
62066,note_off,0,0,0,,5,,,77,127
62067,note_on,1,0,0,,7,,,55,127
62067,note_on,0,0,0,,5,,,65,127
62067,note_on,0,0,0,,2,,,62,127
62067,note_on,0,0,0,,12,,,83,127
62220,note_off,153,0,0,,2,,,62,127
62220,note_off,0,0,0,,5,,,65,127
62220,note_off,0,0,0,,7,,,55,127
62221,note_on,1,0,0,,7,,,55,127
62221,note_on,0,0,0,,2,,,62,127
62221,note_on,0,0,0,,5,,,65,127
62374,note_off,153,0,0,,5,,,65,127
62374,note_off,0,0,0,,2,,,62,127
62374,note_off,0,0,0,,7,,,55,127
62375,note_on,1,0,0,,5,,,65,127
62375,note_on,0,0,0,,2,,,62,127
62375,note_on,0,0,0,,7,,,55,127
62528,note_off,153,0,0,,7,,,55,127
62528,note_off,0,0,0,,2,,,62,127
62528,note_off,0,0,0,,5,,,65,127
62528,note_off,0,0,0,,12,,,83,127
62529,note_on,1,0,0,,4,,,64,127
62529,note_on,0,0,0,,0,,,60,127
62529,note_on,0,0,0,,0,,,84,127
62682,note_off,153,0,0,,0,,,60,127
62682,note_off,0,0,0,,4,,,64,127
62683,note_on,1,0,0,,0,,,60,127
62683,note_on,0,0,0,,4,,,64,127
62836,note_off,153,0,0,,4,,,64,127
62836,note_off,0,0,0,,0,,,60,127
62837,note_on,1,0,0,,4,,,64,127
62837,note_on,0,0,0,,0,,,60,127
62990,note_off,153,0,0,,0,,,60,127
62990,note_off,0,0,0,,4,,,64,127
62990,note_off,0,0,0,,0,,,84,127
62991,note_on,1,0,0,,10,,,57,127
62991,note_on,0,0,0,,0,,,60,127
62991,note_on,0,0,0,,2,,,62,127
62991,note_on,0,0,0,,0,,,84,127
62991,note_on,0,0,0,,6,,,78,127
63144,note_off,153,0,0,,2,,,62,127
63144,note_off,0,0,0,,0,,,60,127
63144,note_off,0,0,0,,10,,,57,127
63145,note_on,1,0,0,,10,,,57,127
63145,note_on,0,0,0,,2,,,62,127
63145,note_on,0,0,0,,0,,,60,127
63298,note_off,153,0,0,,0,,,60,127
63298,note_off,0,0,0,,2,,,62,127
63298,note_off,0,0,0,,10,,,57,127
63299,note_on,1,0,0,,2,,,62,127
63299,note_on,0,0,0,,0,,,60,127
63299,note_on,0,0,0,,10,,,57,127
63452,note_off,153,0,0,,10,,,57,127
63452,note_off,0,0,0,,0,,,60,127
63452,note_off,0,0,0,,2,,,62,127
63452,note_off,0,0,0,,6,,,78,127
63452,note_off,0,0,0,,0,,,84,127
63453,note_on,1,0,0,,2,,,62,127
63453,note_on,0,0,0,,7,,,55,127
63453,note_on,0,0,0,,12,,,83,127
63606,note_off,153,0,0,,12,,,83,127
63606,note_off,0,0,0,,7,,,55,127
63606,note_off,0,0,0,,2,,,62,127
63607,note_on,1,0,0,,2,,,62,127
63607,note_on,0,0,0,,7,,,55,127
63607,note_on,0,0,0,,2,,,86,127
63760,note_off,153,0,0,,2,,,86,127
63760,note_off,0,0,0,,7,,,55,127
63760,note_off,0,0,0,,2,,,62,127
63761,note_on,1,0,0,,2,,,62,127
63761,note_on,0,0,0,,7,,,55,127
63761,note_on,0,0,0,,5,,,77,127
63914,note_off,153,0,0,,5,,,77,127
63914,note_off,0,0,0,,7,,,55,127
63914,note_off,0,0,0,,2,,,62,127
63915,note_on,1,0,0,,4,,,64,127
63915,note_on,0,0,0,,0,,,60,127
63915,note_on,0,0,0,,4,,,76,127
64068,note_off,153,0,0,,4,,,76,127
64068,note_off,0,0,0,,0,,,60,127
64068,note_off,0,0,0,,4,,,64,127
64069,note_on,1,0,0,,4,,,64,127
64069,note_on,0,0,0,,0,,,60,127
64069,note_on,0,0,0,,0,,,84,127
64222,note_off,153,0,0,,0,,,84,127
64222,note_off,0,0,0,,0,,,60,127
64222,note_off,0,0,0,,4,,,64,127
64223,note_on,1,0,0,,0,,,60,127
64223,note_on,0,0,0,,4,,,64,127
64223,note_on,0,0,0,,7,,,79,127
64376,note_off,153,0,0,,7,,,79,127
64376,note_off,0,0,0,,4,,,64,127
64376,note_off,0,0,0,,0,,,60,127
64377,note_on,1,0,0,,5,,,53,127
64377,note_on,0,0,0,,4,,,64,127
64377,note_on,0,0,0,,8,,,80,127
64530,note_off,153,0,0,,8,,,80,127
64530,note_off,0,0,0,,4,,,64,127
64530,note_off,0,0,0,,5,,,53,127
64531,note_on,1,0,0,,4,,,64,127
64531,note_on,0,0,0,,5,,,53,127
64531,note_on,0,0,0,,10,,,81,127
64684,note_off,153,0,0,,5,,,53,127
64684,note_off,0,0,0,,4,,,64,127
64685,note_on,1,0,0,,5,,,53,127
64685,note_on,0,0,0,,4,,,64,127
64838,note_off,153,0,0,,4,,,64,127
64838,note_off,0,0,0,,5,,,53,127
64839,note_on,1,0,0,,2,,,62,127
64839,note_on,0,0,0,,5,,,53,127
64992,note_off,153,0,0,,5,,,53,127
64992,note_off,0,0,0,,2,,,62,127
64992,note_off,0,0,0,,10,,,81,127
64993,note_on,1,0,0,,2,,,62,127
64993,note_on,0,0,0,,5,,,53,127
64993,note_on,0,0,0,,5,,,77,127
65146,note_off,153,0,0,,5,,,77,127
65146,note_off,0,0,0,,5,,,53,127
65146,note_off,0,0,0,,2,,,62,127
65147,note_on,1,0,0,,5,,,53,127
65147,note_on,0,0,0,,2,,,62,127
65147,note_on,0,0,0,,2,,,74,127
65300,note_off,153,0,0,,2,,,74,127
65300,note_off,0,0,0,,2,,,62,127
65300,note_off,0,0,0,,5,,,53,127
65301,note_on,1,0,0,,0,,,72,127
65301,note_on,0,0,0,,5,,,53,127
65301,note_on,0,0,0,,2,,,62,127
65352,note_on,51,0,0,,12,,,71,127
65361,note_off,9,0,0,,0,,,72,127
65403,note_on,42,0,0,,0,,,72,127
65412,note_off,9,0,0,,12,,,71,127
65454,note_off,42,0,0,,2,,,62,127
65454,note_off,0,0,0,,5,,,53,127
65455,note_on,1,0,0,,12,,,71,127
65455,note_on,0,0,0,,5,,,53,127
65455,note_on,0,0,0,,2,,,62,127
65464,note_off,9,0,0,,0,,,72,127
65506,note_on,42,0,0,,0,,,72,127
65515,note_off,9,0,0,,12,,,71,127
65557,note_on,42,0,0,,12,,,71,127
65566,note_off,9,0,0,,0,,,72,127
65608,note_off,42,0,0,,2,,,62,127
65608,note_off,0,0,0,,5,,,53,127
65609,note_on,1,0,0,,2,,,62,127
65609,note_on,0,0,0,,5,,,53,127
65750,note_off,141,0,0,,12,,,71,127
65762,note_off,12,0,0,,5,,,53,127
65762,note_off,0,0,0,,2,,,62,127
65776,note_on,14,0,0,,7,,,79,127
65776,note_on,0,0,0,,4,,,52,127
65776,note_on,0,0,0,,0,,,60,127
65929,note_off,153,0,0,,0,,,60,127
65929,note_off,0,0,0,,4,,,52,127
65930,note_on,1,0,0,,0,,,60,127
65930,note_on,0,0,0,,4,,,52,127
66083,note_off,153,0,0,,4,,,52,127
66083,note_off,0,0,0,,0,,,60,127
66084,note_on,1,0,0,,0,,,60,127
66084,note_on,0,0,0,,4,,,52,127
66237,note_off,153,0,0,,4,,,52,127
66237,note_off,0,0,0,,0,,,60,127
66237,note_off,0,0,0,,7,,,79,127
66238,note_on,1,0,0,,7,,,79,127
66238,note_on,0,0,0,,2,,,50,127
66238,note_on,0,0,0,,12,,,59,127
66289,note_on,51,0,0,,5,,,77,127
66298,note_off,9,0,0,,7,,,79,127
66340,note_on,42,0,0,,7,,,79,127
66349,note_off,9,0,0,,5,,,77,127
66391,note_off,42,0,0,,12,,,59,127
66391,note_off,0,0,0,,2,,,50,127
66392,note_on,1,0,0,,2,,,50,127
66392,note_on,0,0,0,,12,,,59,127
66392,note_on,0,0,0,,5,,,77,127
66401,note_off,9,0,0,,7,,,79,127
66443,note_on,42,0,0,,4,,,76,127
66452,note_off,9,0,0,,5,,,77,127
66545,note_off,93,0,0,,12,,,59,127
66545,note_off,0,0,0,,2,,,50,127
66546,note_off,1,0,0,,4,,,76,127
66546,note_on,0,0,0,,5,,,77,127
66546,note_on,0,0,0,,12,,,59,127
66546,note_on,0,0,0,,2,,,50,127
66699,note_off,153,0,0,,2,,,50,127
66699,note_off,0,0,0,,12,,,59,127
66699,note_off,0,0,0,,5,,,77,127
66700,note_on,1,0,0,,5,,,77,127
66700,note_on,0,0,0,,0,,,60,127
66700,note_on,0,0,0,,7,,,55,127
66700,note_on,0,0,0,,0,,,48,127
66751,note_on,51,0,0,,4,,,76,127
66760,note_off,9,0,0,,5,,,77,127
66802,note_on,42,0,0,,5,,,77,127
66811,note_off,9,0,0,,4,,,76,127
66853,note_off,42,0,0,,0,,,48,127
66853,note_off,0,0,0,,7,,,55,127
66853,note_off,0,0,0,,0,,,60,127
66854,note_on,1,0,0,,0,,,60,127
66854,note_on,0,0,0,,7,,,55,127
66854,note_on,0,0,0,,0,,,48,127
66854,note_on,0,0,0,,4,,,76,127
66863,note_off,9,0,0,,5,,,77,127
66905,note_on,42,0,0,,2,,,74,127
66914,note_off,9,0,0,,4,,,76,127
67007,note_off,93,0,0,,0,,,48,127
67007,note_off,0,0,0,,7,,,55,127
67007,note_off,0,0,0,,0,,,60,127
67008,note_off,1,0,0,,2,,,74,127
67008,note_on,0,0,0,,4,,,76,127
67008,note_on,0,0,0,,0,,,60,127
67008,note_on,0,0,0,,0,,,48,127
67008,note_on,0,0,0,,7,,,55,127
67161,note_off,153,0,0,,7,,,55,127
67161,note_off,0,0,0,,0,,,48,127
67161,note_off,0,0,0,,0,,,60,127
67162,note_on,1,0,0,,7,,,43,127
67213,note_on,51,0,0,,2,,,74,127
67216,note_off,3,0,0,,4,,,76,127
67264,note_on,48,0,0,,4,,,76,127
67273,note_off,9,0,0,,2,,,74,127
67315,note_on,42,0,0,,2,,,74,127
67324,note_off,9,0,0,,4,,,76,127
67587,note_off,263,0,0,,2,,,74,127
67621,note_off,34,0,0,,7,,,43,127
67635,note_on,14,0,0,,4,,,64,127
67635,note_on,0,0,0,,7,,,67,127
67635,note_on,0,0,0,,7,,,79,127
67635,note_on,0,0,0,,4,,,76,127
67788,note_off,153,0,0,,7,,,67,127
67788,note_off,0,0,0,,4,,,64,127
67789,note_on,1,0,0,,7,,,55,127
67942,note_off,153,0,0,,7,,,55,127
67943,note_on,1,0,0,,7,,,43,127
68096,note_off,153,0,0,,7,,,43,127
68096,note_off,0,0,0,,4,,,76,127
68096,note_off,0,0,0,,7,,,79,127
68097,note_on,1,0,0,,2,,,62,127
68097,note_on,0,0,0,,5,,,65,127
68097,note_on,0,0,0,,5,,,77,127
68097,note_on,0,0,0,,12,,,71,127
68250,note_off,153,0,0,,5,,,65,127
68250,note_off,0,0,0,,2,,,62,127
68251,note_on,1,0,0,,7,,,55,127
68404,note_off,153,0,0,,7,,,55,127
68405,note_on,1,0,0,,7,,,43,127
68558,note_off,153,0,0,,7,,,43,127
68558,note_off,0,0,0,,12,,,71,127
68558,note_off,0,0,0,,5,,,77,127
68559,note_on,1,0,0,,0,,,60,127
68559,note_on,0,0,0,,4,,,64,127
68559,note_on,0,0,0,,0,,,72,127
68559,note_on,0,0,0,,4,,,76,127
68712,note_off,153,0,0,,4,,,64,127
68712,note_off,0,0,0,,0,,,60,127
68713,note_on,1,0,0,,7,,,55,127
68866,note_off,153,0,0,,7,,,55,127
68867,note_on,1,0,0,,7,,,43,127
69020,note_off,153,0,0,,7,,,43,127
69020,note_off,0,0,0,,4,,,76,127
69020,note_off,0,0,0,,0,,,72,127
69021,note_on,1,0,0,,12,,,59,127
69021,note_on,0,0,0,,2,,,62,127
69021,note_on,0,0,0,,2,,,74,127
69021,note_on,0,0,0,,7,,,67,127
69174,note_off,153,0,0,,2,,,62,127
69174,note_off,0,0,0,,12,,,59,127
69175,note_on,1,0,0,,7,,,55,127
69328,note_off,153,0,0,,7,,,55,127
69329,note_on,1,0,0,,7,,,43,127
69482,note_off,153,0,0,,7,,,43,127
69482,note_off,0,0,0,,7,,,67,127
69482,note_off,0,0,0,,2,,,74,127
69483,note_on,1,0,0,,4,,,64,127
69483,note_on,0,0,0,,7,,,67,127
69483,note_on,0,0,0,,7,,,79,127
69483,note_on,0,0,0,,4,,,76,127
69636,note_off,153,0,0,,7,,,67,127
69636,note_off,0,0,0,,4,,,64,127
69637,note_on,1,0,0,,7,,,55,127
69790,note_off,153,0,0,,7,,,55,127
69791,note_on,1,0,0,,7,,,43,127
69944,note_off,153,0,0,,7,,,43,127
69944,note_off,0,0,0,,4,,,76,127
69944,note_off,0,0,0,,7,,,79,127
69945,note_on,1,0,0,,2,,,62,127
69945,note_on,0,0,0,,5,,,65,127
69945,note_on,0,0,0,,5,,,77,127
69945,note_on,0,0,0,,2,,,74,127
70098,note_off,153,0,0,,5,,,65,127
70098,note_off,0,0,0,,2,,,62,127
70099,note_on,1,0,0,,7,,,55,127
70252,note_off,153,0,0,,7,,,55,127
70253,note_on,1,0,0,,7,,,43,127
70406,note_off,153,0,0,,7,,,43,127
70406,note_off,0,0,0,,2,,,74,127
70406,note_off,0,0,0,,5,,,77,127
70407,note_on,1,0,0,,12,,,59,127
70407,note_on,0,0,0,,2,,,62,127
70407,note_on,0,0,0,,12,,,71,127
70407,note_on,0,0,0,,2,,,74,127
70560,note_off,153,0,0,,2,,,62,127
70560,note_off,0,0,0,,12,,,59,127
70561,note_on,1,0,0,,7,,,55,127
70714,note_off,153,0,0,,7,,,55,127
70715,note_on,1,0,0,,7,,,43,127
70868,note_off,153,0,0,,7,,,43,127
70868,note_off,0,0,0,,2,,,74,127
70868,note_off,0,0,0,,12,,,71,127
70869,note_on,1,0,0,,0,,,60,127
70869,note_on,0,0,0,,4,,,64,127
70869,note_on,0,0,0,,0,,,72,127
70869,note_on,0,0,0,,4,,,76,127
71022,note_off,153,0,0,,0,,,72,127
71022,note_off,0,0,0,,4,,,64,127
71022,note_off,0,0,0,,0,,,60,127
71023,note_on,1,0,0,,0,,,72,127
71177,note_on,154,0,0,,0,,,36,127
71330,note_off,153,0,0,,0,,,36,127
71331,note_on,1,0,0,,0,,,36,127
71484,note_off,153,0,0,,0,,,36,127
71485,note_on,1,0,0,,0,,,36,127
71638,note_off,153,0,0,,0,,,36,127
71639,note_off,1,0,0,,0,,,72,127
71639,note_off,0,0,0,,4,,,76,127
71639,note_on,0,0,0,,4,,,40,127
71792,note_off,153,0,0,,4,,,40,127
71793,note_on,1,0,0,,2,,,38,127
71844,note_on,51,0,0,,0,,,36,127
71853,note_off,9,0,0,,2,,,38,127
71895,note_on,42,0,0,,2,,,38,127
71904,note_off,9,0,0,,0,,,36,127
71946,note_on,42,0,0,,0,,,36,127
71946,note_on,0,0,0,,0,,,84,127
71955,note_off,9,0,0,,2,,,38,127
71997,note_on,42,0,0,,2,,,38,127
72006,note_off,9,0,0,,0,,,36,127
72048,note_on,42,0,0,,0,,,36,127
72057,note_off,9,0,0,,2,,,38,127
72099,note_off,42,0,0,,0,,,84,127
72100,note_on,1,0,0,,7,,,79,127
72254,note_on,154,0,0,,0,,,48,127
72257,note_off,3,0,0,,0,,,36,127
72407,note_off,150,0,0,,7,,,79,127
72408,note_on,1,0,0,,4,,,76,127
72561,note_off,153,0,0,,4,,,76,127
72562,note_on,1,0,0,,0,,,72,127
72715,note_off,153,0,0,,0,,,48,127
72716,note_on,1,0,0,,5,,,41,127
72869,note_off,153,0,0,,0,,,72,127
72870,note_on,1,0,0,,10,,,69,127
73023,note_off,153,0,0,,10,,,69,127
73024,note_on,1,0,0,,5,,,65,127
73177,note_off,153,0,0,,5,,,65,127
73177,note_off,0,0,0,,5,,,41,127
73178,note_on,1,0,0,,5,,,53,127
73178,note_on,0,0,0,,0,,,84,127
73331,note_off,153,0,0,,0,,,84,127
73332,note_on,1,0,0,,10,,,81,127
73485,note_off,153,0,0,,10,,,81,127
73486,note_on,1,0,0,,2,,,74,127
73639,note_off,153,0,0,,2,,,74,127
73639,note_off,0,0,0,,5,,,53,127
73640,note_on,1,0,0,,7,,,55,127
73640,note_on,0,0,0,,0,,,72,127
73908,note_off,268,0,0,,0,,,72,127
73909,note_on,1,0,0,,2,,,74,127
73947,note_on,38,0,0,,0,,,72,127
73969,note_off,22,0,0,,2,,,74,127
73986,note_on,17,0,0,,12,,,71,127
74008,note_off,22,0,0,,0,,,72,127
74025,note_on,17,0,0,,0,,,72,127
74047,note_off,22,0,0,,12,,,71,127
74064,note_on,17,0,0,,2,,,74,127
74086,note_off,22,0,0,,0,,,72,127
74102,note_off,16,0,0,,7,,,55,127
74103,note_on,1,0,0,,4,,,76,127
74103,note_on,0,0,0,,7,,,43,127
74125,note_off,22,0,0,,2,,,74,127
74154,note_on,29,0,0,,2,,,74,127
74164,note_off,10,0,0,,4,,,76,127
74206,note_on,42,0,0,,4,,,76,127
74215,note_off,9,0,0,,2,,,74,127
74257,note_on,42,0,0,,2,,,74,127
74266,note_off,9,0,0,,4,,,76,127
74308,note_on,42,0,0,,4,,,76,127
74317,note_off,9,0,0,,2,,,74,127
74359,note_on,42,0,0,,2,,,74,127
74368,note_off,9,0,0,,4,,,76,127
74410,note_on,42,0,0,,4,,,76,127
74419,note_off,9,0,0,,2,,,74,127
74461,note_on,42,0,0,,2,,,74,127
74471,note_off,10,0,0,,4,,,76,127
74513,note_on,42,0,0,,4,,,76,127
74522,note_off,9,0,0,,2,,,74,127
74564,note_on,42,0,0,,2,,,74,127
74565,note_off,1,0,0,,7,,,43,127
74566,note_on,1,0,0,,0,,,36,127
74573,note_off,7,0,0,,4,,,76,127
74616,note_on,43,0,0,,0,,,72,127
74624,note_off,8,0,0,,2,,,74,127
74667,note_on,43,0,0,,2,,,74,127
74676,note_off,9,0,0,,0,,,72,127
74718,note_on,42,0,0,,0,,,72,127
74727,note_off,9,0,0,,2,,,74,127
74769,note_on,42,0,0,,2,,,74,127
74778,note_off,9,0,0,,0,,,72,127
74820,note_on,42,0,0,,0,,,72,127
74829,note_off,9,0,0,,2,,,74,127
74871,note_on,42,0,0,,2,,,74,127
74880,note_off,9,0,0,,0,,,72,127
74922,note_off,42,0,0,,2,,,74,127
74922,note_on,0,0,0,,0,,,72,127
75025,note_off,103,0,0,,0,,,36,127
75026,note_on,1,0,0,,4,,,64,127
75026,note_on,0,0,0,,7,,,67,127
75026,note_on,0,0,0,,7,,,79,127
75026,note_on,0,0,0,,4,,,76,127
75030,note_off,4,0,0,,0,,,72,127
75179,note_off,149,0,0,,7,,,67,127
75179,note_off,0,0,0,,4,,,64,127
75180,note_on,1,0,0,,7,,,55,127
75333,note_off,153,0,0,,7,,,55,127
75334,note_on,1,0,0,,7,,,43,127
75487,note_off,153,0,0,,7,,,43,127
75487,note_off,0,0,0,,4,,,76,127
75487,note_off,0,0,0,,7,,,79,127
75488,note_on,1,0,0,,2,,,62,127
75488,note_on,0,0,0,,5,,,65,127
75488,note_on,0,0,0,,5,,,77,127
75488,note_on,0,0,0,,12,,,71,127
75641,note_off,153,0,0,,5,,,65,127
75641,note_off,0,0,0,,2,,,62,127
75642,note_on,1,0,0,,7,,,55,127
75795,note_off,153,0,0,,7,,,55,127
75796,note_on,1,0,0,,7,,,43,127
75949,note_off,153,0,0,,7,,,43,127
75949,note_off,0,0,0,,12,,,71,127
75949,note_off,0,0,0,,5,,,77,127
75950,note_on,1,0,0,,0,,,60,127
75950,note_on,0,0,0,,4,,,64,127
75950,note_on,0,0,0,,4,,,76,127
75950,note_on,0,0,0,,0,,,72,127
76103,note_off,153,0,0,,4,,,64,127
76103,note_off,0,0,0,,0,,,60,127
76104,note_on,1,0,0,,7,,,55,127
76257,note_off,153,0,0,,7,,,55,127
76258,note_on,1,0,0,,7,,,43,127
76411,note_off,153,0,0,,7,,,43,127
76411,note_off,0,0,0,,0,,,72,127
76411,note_off,0,0,0,,4,,,76,127
76412,note_on,1,0,0,,12,,,59,127
76412,note_on,0,0,0,,2,,,62,127
76412,note_on,0,0,0,,2,,,74,127
76412,note_on,0,0,0,,7,,,67,127
76565,note_off,153,0,0,,2,,,62,127
76565,note_off,0,0,0,,12,,,59,127
76566,note_on,1,0,0,,7,,,55,127
76719,note_off,153,0,0,,7,,,55,127
76720,note_on,1,0,0,,7,,,43,127
76873,note_off,153,0,0,,7,,,43,127
76873,note_off,0,0,0,,7,,,67,127
76873,note_off,0,0,0,,2,,,74,127
76874,note_on,1,0,0,,4,,,64,127
76874,note_on,0,0,0,,7,,,67,127
76874,note_on,0,0,0,,4,,,76,127
76874,note_on,0,0,0,,7,,,79,127
77027,note_off,153,0,0,,7,,,67,127
77027,note_off,0,0,0,,4,,,64,127
77028,note_on,1,0,0,,7,,,55,127
77181,note_off,153,0,0,,7,,,55,127
77182,note_on,1,0,0,,7,,,43,127
77335,note_off,153,0,0,,7,,,43,127
77335,note_off,0,0,0,,7,,,79,127
77335,note_off,0,0,0,,4,,,76,127
77336,note_on,1,0,0,,2,,,62,127
77336,note_on,0,0,0,,5,,,65,127
77336,note_on,0,0,0,,5,,,77,127
77336,note_on,0,0,0,,2,,,74,127
77489,note_off,153,0,0,,5,,,65,127
77489,note_off,0,0,0,,2,,,62,127
77490,note_on,1,0,0,,7,,,55,127
77643,note_off,153,0,0,,7,,,55,127
77644,note_on,1,0,0,,7,,,43,127
77797,note_off,153,0,0,,7,,,43,127
77797,note_off,0,0,0,,2,,,74,127
77797,note_off,0,0,0,,5,,,77,127
77798,note_on,1,0,0,,12,,,59,127
77798,note_on,0,0,0,,2,,,62,127
77798,note_on,0,0,0,,2,,,74,127
77798,note_on,0,0,0,,12,,,71,127
77951,note_off,153,0,0,,2,,,62,127
77951,note_off,0,0,0,,12,,,59,127
77952,note_on,1,0,0,,7,,,55,127
78105,note_off,153,0,0,,7,,,55,127
78106,note_on,1,0,0,,7,,,43,127
78259,note_off,153,0,0,,7,,,43,127
78259,note_off,0,0,0,,12,,,71,127
78259,note_off,0,0,0,,2,,,74,127
78260,note_on,1,0,0,,4,,,64,127
78260,note_on,0,0,0,,0,,,60,127
78260,note_on,0,0,0,,4,,,76,127
78260,note_on,0,0,0,,0,,,72,127
78413,note_off,153,0,0,,0,,,72,127
78413,note_off,0,0,0,,0,,,60,127
78413,note_off,0,0,0,,4,,,64,127
78414,note_on,1,0,0,,0,,,72,127
78568,note_on,154,0,0,,0,,,36,127
78721,note_off,153,0,0,,0,,,36,127
78722,note_on,1,0,0,,0,,,36,127
78875,note_off,153,0,0,,0,,,36,127
78876,note_on,1,0,0,,0,,,36,127
79029,note_off,153,0,0,,0,,,36,127
79030,note_off,1,0,0,,0,,,72,127
79030,note_off,0,0,0,,4,,,76,127
79030,note_on,0,0,0,,4,,,40,127
79183,note_off,153,0,0,,4,,,40,127
79184,note_on,1,0,0,,2,,,38,127
79235,note_on,51,0,0,,0,,,36,127
79244,note_off,9,0,0,,2,,,38,127
79286,note_on,42,0,0,,2,,,38,127
79295,note_off,9,0,0,,0,,,36,127
79337,note_on,42,0,0,,0,,,36,127
79337,note_on,0,0,0,,0,,,84,127
79346,note_off,9,0,0,,2,,,38,127
79388,note_on,42,0,0,,2,,,38,127
79397,note_off,9,0,0,,0,,,36,127
79439,note_on,42,0,0,,0,,,36,127
79448,note_off,9,0,0,,2,,,38,127
79490,note_off,42,0,0,,0,,,84,127
79491,note_on,1,0,0,,7,,,79,127
79643,note_off,152,0,0,,0,,,36,127
79645,note_on,2,0,0,,0,,,48,127
79798,note_off,153,0,0,,7,,,79,127
79799,note_on,1,0,0,,4,,,76,127
79952,note_off,153,0,0,,4,,,76,127
79953,note_on,1,0,0,,0,,,72,127
80106,note_off,153,0,0,,0,,,48,127
80107,note_on,1,0,0,,5,,,41,127
80260,note_off,153,0,0,,0,,,72,127
80261,note_on,1,0,0,,10,,,69,127
80414,note_off,153,0,0,,10,,,69,127
80415,note_on,1,0,0,,5,,,65,127
80568,note_off,153,0,0,,5,,,65,127
80568,note_off,0,0,0,,5,,,41,127
80569,note_on,1,0,0,,5,,,53,127
80569,note_on,0,0,0,,10,,,81,127
80722,note_off,153,0,0,,10,,,81,127
80723,note_on,1,0,0,,5,,,77,127
80876,note_off,153,0,0,,5,,,77,127
80877,note_on,1,0,0,,2,,,74,127
81030,note_off,153,0,0,,2,,,74,127
81030,note_off,0,0,0,,5,,,53,127
81031,note_on,1,0,0,,2,,,74,127
81031,note_on,0,0,0,,7,,,55,127
81081,note_on,50,0,0,,0,,,72,127
81091,note_off,10,0,0,,2,,,74,127
81133,note_on,42,0,0,,2,,,74,127
81142,note_off,9,0,0,,0,,,72,127
81184,note_on,42,0,0,,0,,,72,127
81193,note_off,9,0,0,,2,,,74,127
81235,note_on,42,0,0,,2,,,74,127
81244,note_off,9,0,0,,0,,,72,127
81286,note_on,42,0,0,,0,,,72,127
81295,note_off,9,0,0,,2,,,74,127
81338,note_on,43,0,0,,12,,,71,127
81362,note_off,24,0,0,,0,,,72,127
81388,note_on,26,0,0,,0,,,72,127
81398,note_off,10,0,0,,12,,,71,127
81439,note_on,41,0,0,,2,,,74,127
81448,note_off,9,0,0,,0,,,72,127
81491,note_off,43,0,0,,7,,,55,127
81492,note_on,1,0,0,,4,,,76,127
81492,note_on,0,0,0,,7,,,43,127
81499,note_off,7,0,0,,2,,,74,127
81542,note_on,43,0,0,,2,,,74,127
81552,note_off,10,0,0,,4,,,76,127
81594,note_on,42,0,0,,4,,,76,127
81603,note_off,9,0,0,,2,,,74,127
81645,note_on,42,0,0,,2,,,74,127
81654,note_off,9,0,0,,4,,,76,127
81696,note_on,42,0,0,,4,,,76,127
81705,note_off,9,0,0,,2,,,74,127
81747,note_on,42,0,0,,2,,,74,127
81756,note_off,9,0,0,,4,,,76,127
81798,note_on,42,0,0,,4,,,76,127
81807,note_off,9,0,0,,2,,,74,127
81849,note_on,42,0,0,,2,,,74,127
81859,note_off,10,0,0,,4,,,76,127
81945,note_off,86,0,0,,2,,,74,127
81952,note_off,7,0,0,,7,,,43,127
81966,note_on,14,0,0,,0,,,72,127
81966,note_on,0,0,0,,0,,,48,127
82119,note_off,153,0,0,,0,,,72,127
82120,note_on,1,0,0,,7,,,79,127
82120,note_on,0,0,0,,4,,,76,127
82273,note_off,153,0,0,,4,,,76,127
82273,note_off,0,0,0,,7,,,79,127
82274,note_on,1,0,0,,5,,,77,127
82274,note_on,0,0,0,,2,,,74,127
82427,note_off,153,0,0,,2,,,74,127
82427,note_off,0,0,0,,5,,,77,127
82427,note_off,0,0,0,,0,,,48,127
82428,note_on,1,0,0,,4,,,76,127
82428,note_on,0,0,0,,0,,,72,127
82428,note_on,0,0,0,,0,,,48,127
82581,note_off,153,0,0,,0,,,48,127
82581,note_off,0,0,0,,0,,,72,127
82581,note_off,0,0,0,,4,,,76,127
82582,note_on,1,0,0,,0,,,72,127
82582,note_on,0,0,0,,4,,,76,127
82582,note_on,0,0,0,,0,,,60,127
82735,note_off,153,0,0,,0,,,60,127
82735,note_off,0,0,0,,4,,,76,127
82735,note_off,0,0,0,,0,,,72,127
82736,note_on,1,0,0,,7,,,67,127
82736,note_on,0,0,0,,2,,,74,127
82736,note_on,0,0,0,,7,,,55,127
82889,note_off,153,0,0,,7,,,55,127
82889,note_off,0,0,0,,2,,,74,127
82889,note_off,0,0,0,,7,,,67,127
82890,note_on,1,0,0,,0,,,72,127
82890,note_on,0,0,0,,4,,,64,127
82890,note_on,0,0,0,,0,,,48,127
83043,note_off,153,0,0,,4,,,64,127
83043,note_off,0,0,0,,0,,,72,127
83057,note_on,14,0,0,,7,,,79,127
83057,note_on,0,0,0,,4,,,76,127
83210,note_off,153,0,0,,4,,,76,127
83210,note_off,0,0,0,,7,,,79,127
83211,note_on,1,0,0,,2,,,74,127
83211,note_on,0,0,0,,5,,,77,127
83351,note_off,140,0,0,,0,,,48,127
83364,note_off,13,0,0,,5,,,77,127
83364,note_off,0,0,0,,2,,,74,127
83365,note_on,1,0,0,,0,,,48,127
83365,note_on,0,0,0,,4,,,76,127
83365,note_on,0,0,0,,0,,,72,127
83518,note_off,153,0,0,,0,,,72,127
83518,note_off,0,0,0,,4,,,76,127
83518,note_off,0,0,0,,0,,,48,127
83519,note_on,1,0,0,,0,,,60,127
83519,note_on,0,0,0,,4,,,76,127
83519,note_on,0,0,0,,0,,,72,127
83672,note_off,153,0,0,,0,,,72,127
83672,note_off,0,0,0,,4,,,76,127
83672,note_off,0,0,0,,0,,,60,127
83673,note_on,1,0,0,,7,,,55,127
83673,note_on,0,0,0,,2,,,74,127
83673,note_on,0,0,0,,7,,,67,127
83826,note_off,153,0,0,,7,,,67,127
83826,note_off,0,0,0,,2,,,74,127
83826,note_off,0,0,0,,7,,,55,127
83827,note_on,1,0,0,,0,,,48,127
83827,note_on,0,0,0,,4,,,64,127
83827,note_on,0,0,0,,0,,,72,127
83980,note_off,153,0,0,,0,,,72,127
83980,note_off,0,0,0,,4,,,64,127
83980,note_off,0,0,0,,0,,,48,127
83994,note_on,14,0,0,,4,,,76,127
83994,note_on,0,0,0,,7,,,79,127
83994,note_on,0,0,0,,0,,,48,127
84147,note_off,153,0,0,,0,,,48,127
84147,note_off,0,0,0,,7,,,79,127
84147,note_off,0,0,0,,4,,,76,127
84148,note_on,1,0,0,,5,,,77,127
84148,note_on,0,0,0,,2,,,74,127
84148,note_on,0,0,0,,0,,,48,127
84301,note_off,153,0,0,,0,,,48,127
84301,note_off,0,0,0,,2,,,74,127
84301,note_off,0,0,0,,5,,,77,127
84302,note_on,1,0,0,,4,,,76,127
84302,note_on,0,0,0,,0,,,72,127
84302,note_on,0,0,0,,0,,,48,127
84455,note_off,153,0,0,,0,,,48,127
84455,note_off,0,0,0,,0,,,72,127
84455,note_off,0,0,0,,4,,,76,127
84456,note_on,1,0,0,,0,,,84,127
84456,note_on,0,0,0,,4,,,76,127
84456,note_on,0,0,0,,0,,,48,127
84609,note_off,153,0,0,,0,,,48,127
84609,note_off,0,0,0,,4,,,76,127
84609,note_off,0,0,0,,0,,,84,127
84610,note_on,1,0,0,,12,,,83,127
84610,note_on,0,0,0,,2,,,74,127
84610,note_on,0,0,0,,7,,,43,127
84763,note_off,153,0,0,,7,,,43,127
84763,note_off,0,0,0,,2,,,74,127
84763,note_off,0,0,0,,12,,,83,127
84777,note_on,14,0,0,,0,,,36,127
84777,note_on,0,0,0,,0,,,84,127
84777,note_on,0,0,0,,0,,,72,127
86057,note_off,1280,0,0,,0,,,72,127
86057,note_off,0,0,0,,0,,,84,127
86057,note_off,0,0,0,,0,,,36,127
92160,end_of_track,6103,1,0,,,,,,
