tick,type,time,meta,track,program,channel,pitch,tempo,note,velocity
0,copyright,0,1,0,,,,,,
0,program_change,0,0,0,6,0,,,,
0,pitchwheel,0,0,0,,0,0,,,
0,program_change,0,0,0,6,1,,,,
0,pitchwheel,0,0,0,,1,-590,,,
0,program_change,0,0,0,6,2,,,,
0,pitchwheel,0,0,0,,2,-272,,,
0,program_change,0,0,0,6,3,,,,
0,pitchwheel,0,0,0,,3,-353,,,
0,program_change,0,0,0,6,4,,,,
0,pitchwheel,0,0,0,,4,-560,,,
0,program_change,0,0,0,6,5,,,,
0,pitchwheel,0,0,0,,5,-80,,,
0,program_change,0,0,0,6,6,,,,
0,pitchwheel,0,0,0,,6,-625,,,
0,program_change,0,0,0,6,7,,,,
0,pitchwheel,0,0,0,,7,-130,,,
0,program_change,0,0,0,6,8,,,,
0,pitchwheel,0,0,0,,8,-512,,,
0,program_change,0,0,0,6,10,,,,
0,pitchwheel,0,0,0,,10,-464,,,
0,program_change,0,0,0,6,11,,,,
0,pitchwheel,0,0,0,,11,-208,,,
0,program_change,0,0,0,6,12,,,,
0,pitchwheel,0,0,0,,12,-553,,,
0,set_tempo,0,1,0,,,,500000,,
110,note_on,110,0,0,,10,,,45,127
110,note_on,0,0,0,,10,,,81,127
328,note_off,218,0,0,,10,,,45,127
329,note_on,1,0,0,,0,,,48,127
547,note_off,218,0,0,,0,,,48,127
548,note_on,1,0,0,,4,,,52,127
766,note_off,218,0,0,,4,,,52,127
766,note_off,0,0,0,,10,,,81,127
767,note_on,1,0,0,,10,,,57,127
767,note_on,0,0,0,,0,,,84,127
876,note_off,109,0,0,,0,,,84,127
877,note_on,1,0,0,,10,,,81,127
986,note_off,109,0,0,,10,,,81,127
986,note_off,0,0,0,,10,,,57,127
987,note_on,1,0,0,,12,,,59,127
987,note_on,0,0,0,,12,,,83,127
1096,note_off,109,0,0,,12,,,83,127
1097,note_on,1,0,0,,8,,,80,127
1206,note_off,109,0,0,,8,,,80,127
1206,note_off,0,0,0,,12,,,59,127
1207,note_on,1,0,0,,0,,,60,127
1207,note_on,0,0,0,,10,,,81,127
1316,note_off,109,0,0,,10,,,81,127
1317,note_on,1,0,0,,4,,,76,127
1426,note_off,109,0,0,,4,,,76,127
1426,note_off,0,0,0,,0,,,60,127
1427,note_on,1,0,0,,2,,,62,127
1427,note_on,0,0,0,,5,,,77,127
1536,note_off,109,0,0,,5,,,77,127
1537,note_on,1,0,0,,2,,,74,127
1646,note_off,109,0,0,,2,,,74,127
1646,note_off,0,0,0,,2,,,62,127
1647,note_on,1,0,0,,12,,,59,127
1647,note_on,0,0,0,,4,,,76,127
1756,note_off,109,0,0,,4,,,76,127
1757,note_on,1,0,0,,0,,,72,127
1866,note_off,109,0,0,,0,,,72,127
1866,note_off,0,0,0,,12,,,59,127
1867,note_on,1,0,0,,8,,,56,127
1867,note_on,0,0,0,,2,,,74,127
1976,note_off,109,0,0,,2,,,74,127
1977,note_on,1,0,0,,12,,,71,127
2086,note_off,109,0,0,,12,,,71,127
2086,note_off,0,0,0,,8,,,56,127
2087,note_on,1,0,0,,10,,,57,127
2087,note_on,0,0,0,,0,,,72,127
2196,note_off,109,0,0,,0,,,72,127
2197,note_on,1,0,0,,10,,,69,127
2306,note_off,109,0,0,,10,,,69,127
2306,note_off,0,0,0,,10,,,57,127
2307,note_on,1,0,0,,5,,,53,127
2307,note_on,0,0,0,,2,,,74,127
2416,note_off,109,0,0,,2,,,74,127
2417,note_on,1,0,0,,10,,,69,127
2526,note_off,109,0,0,,5,,,53,127
2527,note_on,1,0,0,,2,,,50,127
2527,note_on,0,0,0,,5,,,77,127
2634,note_off,107,0,0,,10,,,69,127
2635,note_off,1,0,0,,5,,,77,127
2636,note_on,1,0,0,,10,,,69,127
2745,note_off,109,0,0,,10,,,69,127
2745,note_off,0,0,0,,2,,,50,127
2746,note_on,1,0,0,,4,,,52,127
2746,note_on,0,0,0,,10,,,69,127
2964,note_off,218,0,0,,4,,,52,127
2965,note_on,1,0,0,,4,,,64,127
3020,note_off,55,0,0,,10,,,69,127
3020,note_on,0,0,0,,8,,,68,127
3074,note_off,54,0,0,,8,,,68,127
3074,note_off,0,0,0,,4,,,64,127
3075,note_on,1,0,0,,2,,,62,127
3075,note_on,0,0,0,,10,,,69,127
3129,note_off,54,0,0,,10,,,69,127
3130,note_on,1,0,0,,8,,,68,127
3184,note_off,54,0,0,,8,,,68,127
3184,note_off,0,0,0,,2,,,62,127
3185,note_on,1,0,0,,0,,,60,127
3185,note_on,0,0,0,,10,,,69,127
3239,note_off,54,0,0,,10,,,69,127
3240,note_on,1,0,0,,8,,,68,127
3294,note_off,54,0,0,,8,,,68,127
3294,note_off,0,0,0,,0,,,60,127
3295,note_on,1,0,0,,12,,,59,127
3295,note_on,0,0,0,,10,,,69,127
3349,note_off,54,0,0,,10,,,69,127
3350,note_on,1,0,0,,8,,,68,127
3404,note_off,54,0,0,,8,,,68,127
3404,note_off,0,0,0,,12,,,59,127
3405,note_on,1,0,0,,10,,,57,127
3405,note_on,0,0,0,,0,,,72,127
3514,note_off,109,0,0,,0,,,72,127
3515,note_on,1,0,0,,10,,,69,127
3624,note_off,109,0,0,,10,,,69,127
3624,note_off,0,0,0,,10,,,57,127
3625,note_on,1,0,0,,12,,,59,127
3625,note_on,0,0,0,,2,,,74,127
3734,note_off,109,0,0,,2,,,74,127
3735,note_on,1,0,0,,12,,,71,127
3844,note_off,109,0,0,,12,,,71,127
3844,note_off,0,0,0,,12,,,59,127
3845,note_on,1,0,0,,0,,,60,127
3845,note_on,0,0,0,,4,,,76,127
3954,note_off,109,0,0,,4,,,76,127
3955,note_on,1,0,0,,0,,,72,127
4064,note_off,109,0,0,,0,,,72,127
4064,note_off,0,0,0,,0,,,60,127
4065,note_on,1,0,0,,2,,,62,127
4065,note_on,0,0,0,,5,,,77,127
4174,note_off,109,0,0,,5,,,77,127
4175,note_on,1,0,0,,2,,,74,127
4284,note_off,109,0,0,,2,,,74,127
4284,note_off,0,0,0,,2,,,62,127
4285,note_on,1,0,0,,8,,,56,127
4285,note_on,0,0,0,,4,,,76,127
4394,note_off,109,0,0,,4,,,76,127
4395,note_on,1,0,0,,0,,,72,127
4504,note_off,109,0,0,,0,,,72,127
4504,note_off,0,0,0,,8,,,56,127
4505,note_on,1,0,0,,4,,,52,127
4505,note_on,0,0,0,,2,,,74,127
4614,note_off,109,0,0,,2,,,74,127
4615,note_on,1,0,0,,12,,,71,127
4724,note_off,109,0,0,,12,,,71,127
4724,note_off,0,0,0,,4,,,52,127
4725,note_on,1,0,0,,10,,,57,127
4725,note_on,0,0,0,,0,,,72,127
4834,note_off,109,0,0,,0,,,72,127
4835,note_on,1,0,0,,10,,,69,127
4944,note_off,109,0,0,,10,,,69,127
4944,note_off,0,0,0,,10,,,57,127
4945,note_on,1,0,0,,2,,,50,127
4945,note_on,0,0,0,,12,,,71,127
5054,note_off,109,0,0,,12,,,71,127
5055,note_on,1,0,0,,2,,,74,127
5164,note_off,109,0,0,,2,,,74,127
5164,note_off,0,0,0,,2,,,50,127
5165,note_on,1,0,0,,4,,,52,127
5165,note_on,0,0,0,,10,,,69,127
5274,note_off,109,0,0,,10,,,69,127
5275,note_on,1,0,0,,8,,,68,127
5384,note_off,109,0,0,,8,,,68,127
5384,note_off,0,0,0,,4,,,52,127
5385,note_on,1,0,0,,10,,,57,127
5385,note_on,0,0,0,,10,,,69,127
5494,note_off,109,0,0,,10,,,57,127
5495,note_on,1,0,0,,4,,,52,127
5604,note_off,109,0,0,,4,,,52,127
5605,note_on,1,0,0,,0,,,48,127
5714,note_off,109,0,0,,0,,,48,127
5715,note_on,1,0,0,,4,,,52,127
5824,note_off,109,0,0,,4,,,52,127
5825,note_on,1,0,0,,10,,,45,127
5935,note_off,110,0,0,,10,,,69,127
6044,note_off,109,0,0,,10,,,45,127
6045,note_on,1,0,0,,10,,,57,127
6045,note_on,0,0,0,,0,,,72,127
6154,note_off,109,0,0,,0,,,72,127
6155,note_on,1,0,0,,10,,,69,127
6264,note_off,109,0,0,,10,,,69,127
6264,note_off,0,0,0,,10,,,57,127
6265,note_on,1,0,0,,12,,,59,127
6265,note_on,0,0,0,,2,,,74,127
6374,note_off,109,0,0,,2,,,74,127
6375,note_on,1,0,0,,12,,,71,127
6484,note_off,109,0,0,,12,,,71,127
6484,note_off,0,0,0,,12,,,59,127
6485,note_on,1,0,0,,0,,,60,127
6485,note_on,0,0,0,,4,,,76,127
6594,note_off,109,0,0,,4,,,76,127
6595,note_on,1,0,0,,0,,,72,127
6704,note_off,109,0,0,,0,,,72,127
6704,note_off,0,0,0,,0,,,60,127
6705,note_on,1,0,0,,2,,,62,127
6705,note_on,0,0,0,,5,,,77,127
6814,note_off,109,0,0,,2,,,62,127
6815,note_on,1,0,0,,12,,,59,127
6924,note_off,109,0,0,,12,,,59,127
6925,note_on,1,0,0,,0,,,60,127
6980,note_off,55,0,0,,5,,,77,127
6980,note_on,0,0,0,,4,,,76,127
7034,note_off,54,0,0,,4,,,76,127
7034,note_off,0,0,0,,0,,,60,127
7035,note_on,1,0,0,,10,,,57,127
7035,note_on,0,0,0,,5,,,77,127
7089,note_off,54,0,0,,5,,,77,127
7090,note_on,1,0,0,,4,,,76,127
7144,note_off,54,0,0,,4,,,76,127
7144,note_off,0,0,0,,10,,,57,127
7145,note_on,1,0,0,,12,,,59,127
7145,note_on,0,0,0,,5,,,77,127
7199,note_off,54,0,0,,5,,,77,127
7200,note_on,1,0,0,,4,,,76,127
7254,note_off,54,0,0,,4,,,76,127
7254,note_off,0,0,0,,12,,,59,127
7255,note_on,1,0,0,,8,,,56,127
7255,note_on,0,0,0,,2,,,74,127
7309,note_off,54,0,0,,2,,,74,127
7310,note_on,1,0,0,,4,,,76,127
7364,note_off,54,0,0,,4,,,76,127
7364,note_off,0,0,0,,8,,,56,127
7365,note_on,1,0,0,,10,,,57,127
7365,note_on,0,0,0,,0,,,72,127
7474,note_off,109,0,0,,0,,,72,127
7475,note_on,1,0,0,,10,,,69,127
7584,note_off,109,0,0,,10,,,69,127
7584,note_off,0,0,0,,10,,,57,127
7585,note_on,1,0,0,,12,,,59,127
7585,note_on,0,0,0,,2,,,74,127
7694,note_off,109,0,0,,2,,,74,127
7695,note_on,1,0,0,,12,,,71,127
7804,note_off,109,0,0,,12,,,71,127
7804,note_off,0,0,0,,12,,,59,127
7805,note_on,1,0,0,,0,,,60,127
7805,note_on,0,0,0,,4,,,76,127
7914,note_off,109,0,0,,4,,,76,127
7915,note_on,1,0,0,,0,,,72,127
8024,note_off,109,0,0,,0,,,72,127
8024,note_off,0,0,0,,0,,,60,127
8025,note_on,1,0,0,,2,,,62,127
8025,note_on,0,0,0,,5,,,77,127
8134,note_off,109,0,0,,2,,,62,127
8135,note_on,1,0,0,,12,,,59,127
8244,note_off,109,0,0,,12,,,59,127
8245,note_on,1,0,0,,0,,,60,127
8300,note_off,55,0,0,,5,,,77,127
8300,note_on,0,0,0,,4,,,76,127
8354,note_off,54,0,0,,4,,,76,127
8354,note_off,0,0,0,,0,,,60,127
8355,note_on,1,0,0,,10,,,57,127
8355,note_on,0,0,0,,5,,,77,127
8409,note_off,54,0,0,,5,,,77,127
8410,note_on,1,0,0,,4,,,76,127
8464,note_off,54,0,0,,4,,,76,127
8464,note_off,0,0,0,,10,,,57,127
8465,note_on,1,0,0,,12,,,59,127
8465,note_on,0,0,0,,5,,,77,127
8519,note_off,54,0,0,,5,,,77,127
8520,note_on,1,0,0,,4,,,76,127
8574,note_off,54,0,0,,4,,,76,127
8574,note_off,0,0,0,,12,,,59,127
8575,note_on,1,0,0,,8,,,56,127
8575,note_on,0,0,0,,2,,,74,127
8629,note_off,54,0,0,,2,,,74,127
8630,note_on,1,0,0,,4,,,76,127
8684,note_off,54,0,0,,4,,,76,127
8684,note_off,0,0,0,,8,,,56,127
8685,note_on,1,0,0,,10,,,57,127
8685,note_on,0,0,0,,0,,,72,127
8794,note_off,109,0,0,,0,,,72,127
8795,note_on,1,0,0,,10,,,69,127
8904,note_off,109,0,0,,10,,,69,127
8904,note_off,0,0,0,,10,,,57,127
8905,note_on,1,0,0,,12,,,59,127
8905,note_on,0,0,0,,2,,,74,127
9014,note_off,109,0,0,,2,,,74,127
9015,note_on,1,0,0,,12,,,71,127
9124,note_off,109,0,0,,12,,,71,127
9124,note_off,0,0,0,,12,,,59,127
9125,note_on,1,0,0,,0,,,60,127
9125,note_on,0,0,0,,4,,,76,127
9234,note_off,109,0,0,,4,,,76,127
9235,note_on,1,0,0,,0,,,72,127
9344,note_off,109,0,0,,0,,,72,127
9344,note_off,0,0,0,,0,,,60,127
9345,note_on,1,0,0,,2,,,62,127
9345,note_on,0,0,0,,5,,,77,127
9454,note_off,109,0,0,,5,,,77,127
9455,note_on,1,0,0,,2,,,74,127
9564,note_off,109,0,0,,2,,,74,127
9564,note_off,0,0,0,,2,,,62,127
9565,note_on,1,0,0,,4,,,64,127
9565,note_on,0,0,0,,7,,,79,127
9674,note_off,109,0,0,,7,,,79,127
9675,note_on,1,0,0,,4,,,76,127
9784,note_off,109,0,0,,4,,,76,127
9784,note_off,0,0,0,,4,,,64,127
9785,note_on,1,0,0,,5,,,65,127
9785,note_on,0,0,0,,10,,,81,127
9894,note_off,109,0,0,,10,,,81,127
9895,note_on,1,0,0,,0,,,72,127
10004,note_off,109,0,0,,0,,,72,127
10004,note_off,0,0,0,,5,,,65,127
10005,note_on,1,0,0,,7,,,67,127
10005,note_on,0,0,0,,12,,,71,127
10223,note_off,218,0,0,,12,,,71,127
10223,note_off,0,0,0,,7,,,67,127
10224,note_on,1,0,0,,4,,,64,127
10224,note_on,0,0,0,,2,,,74,127
10278,note_off,54,0,0,,2,,,74,127
10279,note_on,1,0,0,,0,,,72,127
10333,note_off,54,0,0,,0,,,72,127
10334,note_on,1,0,0,,2,,,74,127
10388,note_off,54,0,0,,2,,,74,127
10389,note_on,1,0,0,,0,,,72,127
10443,note_off,54,0,0,,0,,,72,127
10443,note_off,0,0,0,,4,,,64,127
10444,note_on,1,0,0,,0,,,60,127
10444,note_on,0,0,0,,2,,,74,127
10498,note_off,54,0,0,,2,,,74,127
10499,note_on,1,0,0,,0,,,72,127
10553,note_off,54,0,0,,0,,,72,127
10554,note_on,1,0,0,,12,,,71,127
10608,note_off,54,0,0,,12,,,71,127
10609,note_on,1,0,0,,0,,,72,127
10663,note_off,54,0,0,,0,,,72,127
10663,note_off,0,0,0,,0,,,60,127
10664,note_on,1,0,0,,7,,,55,127
10664,note_on,0,0,0,,0,,,72,127
10882,note_off,218,0,0,,0,,,72,127
10883,note_on,1,0,0,,2,,,74,127
11102,note_on,219,0,0,,7,,,43,127
11320,note_off,218,0,0,,7,,,43,127
11320,note_off,0,0,0,,2,,,74,127
11320,note_off,0,0,0,,7,,,55,127
11321,note_on,1,0,0,,7,,,55,127
11321,note_on,0,0,0,,7,,,79,127
11430,note_off,109,0,0,,7,,,79,127
11431,note_on,1,0,0,,2,,,74,127
11540,note_off,109,0,0,,2,,,74,127
11541,note_on,1,0,0,,4,,,76,127
11650,note_off,109,0,0,,4,,,76,127
11651,note_on,1,0,0,,0,,,72,127
11760,note_off,109,0,0,,0,,,72,127
11761,note_on,1,0,0,,2,,,74,127
11870,note_off,109,0,0,,2,,,74,127
11871,note_on,1,0,0,,10,,,69,127
11980,note_off,109,0,0,,10,,,69,127
11980,note_off,0,0,0,,7,,,55,127
11981,note_on,1,0,0,,7,,,55,127
11981,note_on,0,0,0,,0,,,72,127
12035,note_off,54,0,0,,0,,,72,127
12036,note_on,1,0,0,,12,,,71,127
12090,note_off,54,0,0,,12,,,71,127
12090,note_off,0,0,0,,7,,,55,127
12091,note_on,1,0,0,,7,,,67,127
12091,note_on,0,0,0,,0,,,72,127
12145,note_off,54,0,0,,0,,,72,127
12146,note_on,1,0,0,,12,,,71,127
12200,note_off,54,0,0,,12,,,71,127
12200,note_off,0,0,0,,7,,,67,127
12201,note_on,1,0,0,,5,,,65,127
12201,note_on,0,0,0,,0,,,72,127
12255,note_off,54,0,0,,0,,,72,127
12256,note_on,1,0,0,,12,,,71,127
12310,note_off,54,0,0,,12,,,71,127
12310,note_off,0,0,0,,5,,,65,127
12311,note_on,1,0,0,,4,,,64,127
12311,note_on,0,0,0,,0,,,72,127
12365,note_off,54,0,0,,0,,,72,127
12366,note_on,1,0,0,,12,,,71,127
12420,note_off,54,0,0,,12,,,71,127
12420,note_off,0,0,0,,4,,,64,127
12421,note_on,1,0,0,,2,,,62,127
12421,note_on,0,0,0,,0,,,72,127
12475,note_off,54,0,0,,0,,,72,127
12476,note_on,1,0,0,,12,,,71,127
12530,note_off,54,0,0,,12,,,71,127
12530,note_off,0,0,0,,2,,,62,127
12531,note_on,1,0,0,,4,,,64,127
12531,note_on,0,0,0,,10,,,69,127
12585,note_off,54,0,0,,10,,,69,127
12586,note_on,1,0,0,,12,,,71,127
12640,note_off,54,0,0,,12,,,71,127
12640,note_off,0,0,0,,4,,,64,127
12641,note_on,1,0,0,,5,,,65,127
12641,note_on,0,0,0,,10,,,81,127
12750,note_off,109,0,0,,10,,,81,127
12751,note_on,1,0,0,,4,,,76,127
12860,note_off,109,0,0,,4,,,76,127
12861,note_on,1,0,0,,5,,,77,127
12970,note_off,109,0,0,,5,,,77,127
12971,note_on,1,0,0,,0,,,72,127
13080,note_off,109,0,0,,0,,,72,127
13081,note_on,1,0,0,,2,,,74,127
13190,note_off,109,0,0,,2,,,74,127
13191,note_on,1,0,0,,10,,,69,127
13300,note_off,109,0,0,,10,,,69,127
13300,note_off,0,0,0,,5,,,65,127
13301,note_on,1,0,0,,5,,,53,127
13301,note_on,0,0,0,,0,,,72,127
13355,note_off,54,0,0,,0,,,72,127
13356,note_on,1,0,0,,12,,,71,127
13410,note_off,54,0,0,,12,,,71,127
13410,note_off,0,0,0,,5,,,53,127
13411,note_on,1,0,0,,5,,,65,127
13411,note_on,0,0,0,,0,,,72,127
13465,note_off,54,0,0,,0,,,72,127
13466,note_on,1,0,0,,12,,,71,127
13520,note_off,54,0,0,,12,,,71,127
13520,note_off,0,0,0,,5,,,65,127
13521,note_on,1,0,0,,4,,,64,127
13521,note_on,0,0,0,,0,,,72,127
13575,note_off,54,0,0,,0,,,72,127
13576,note_on,1,0,0,,12,,,71,127
13630,note_off,54,0,0,,12,,,71,127
13630,note_off,0,0,0,,4,,,64,127
13631,note_on,1,0,0,,2,,,62,127
13631,note_on,0,0,0,,0,,,72,127
13685,note_off,54,0,0,,0,,,72,127
13686,note_on,1,0,0,,12,,,71,127
13740,note_off,54,0,0,,12,,,71,127
13740,note_off,0,0,0,,2,,,62,127
13741,note_on,1,0,0,,0,,,60,127
13741,note_on,0,0,0,,0,,,72,127
13795,note_off,54,0,0,,0,,,72,127
13796,note_on,1,0,0,,12,,,71,127
13850,note_off,54,0,0,,12,,,71,127
13850,note_off,0,0,0,,0,,,60,127
13851,note_on,1,0,0,,2,,,62,127
13851,note_on,0,0,0,,10,,,69,127
13905,note_off,54,0,0,,10,,,69,127
13906,note_on,1,0,0,,12,,,71,127
13960,note_off,54,0,0,,12,,,71,127
13960,note_off,0,0,0,,2,,,62,127
13961,note_on,1,0,0,,4,,,64,127
13961,note_on,0,0,0,,7,,,79,127
14070,note_off,109,0,0,,7,,,79,127
14071,note_on,1,0,0,,2,,,74,127
14180,note_off,109,0,0,,2,,,74,127
14181,note_on,1,0,0,,4,,,76,127
14290,note_off,109,0,0,,4,,,76,127
14291,note_on,1,0,0,,12,,,71,127
14400,note_off,109,0,0,,12,,,71,127
14401,note_on,1,0,0,,0,,,72,127
14510,note_off,109,0,0,,0,,,72,127
14511,note_on,1,0,0,,7,,,67,127
14620,note_off,109,0,0,,7,,,67,127
14620,note_off,0,0,0,,4,,,64,127
14621,note_on,1,0,0,,5,,,53,127
14621,note_on,0,0,0,,10,,,69,127
14730,note_off,109,0,0,,10,,,69,127
14731,note_on,1,0,0,,5,,,65,127
14840,note_off,109,0,0,,5,,,65,127
14841,note_on,1,0,0,,5,,,77,127
14950,note_off,109,0,0,,5,,,77,127
14951,note_on,1,0,0,,2,,,74,127
15060,note_off,109,0,0,,2,,,74,127
15061,note_on,1,0,0,,10,,,81,127
15170,note_off,109,0,0,,10,,,81,127
15171,note_on,1,0,0,,5,,,77,127
15280,note_off,109,0,0,,5,,,77,127
15280,note_off,0,0,0,,5,,,53,127
15281,note_on,1,0,0,,7,,,55,127
15281,note_on,0,0,0,,4,,,76,127
15390,note_off,109,0,0,,4,,,76,127
15391,note_on,1,0,0,,10,,,81,127
15500,note_off,109,0,0,,10,,,81,127
15501,note_on,1,0,0,,7,,,79,127
15610,note_off,109,0,0,,7,,,79,127
15611,note_on,1,0,0,,5,,,77,127
15720,note_off,109,0,0,,5,,,77,127
15721,note_on,1,0,0,,7,,,43,127
15721,note_on,0,0,0,,4,,,76,127
15830,note_off,109,0,0,,4,,,76,127
15831,note_on,1,0,0,,2,,,74,127
15940,note_off,109,0,0,,2,,,74,127
15940,note_off,0,0,0,,7,,,43,127
15940,note_off,0,0,0,,7,,,55,127
15941,note_on,1,0,0,,0,,,60,127
15941,note_on,0,0,0,,0,,,72,127
16050,note_off,109,0,0,,0,,,60,127
16051,note_on,1,0,0,,7,,,67,127
16160,note_off,109,0,0,,7,,,67,127
16160,note_off,0,0,0,,0,,,72,127
16161,note_on,1,0,0,,4,,,64,127
16161,note_on,0,0,0,,7,,,79,127
16270,note_off,109,0,0,,4,,,64,127
16271,note_on,1,0,0,,7,,,67,127
16380,note_off,109,0,0,,7,,,67,127
16380,note_off,0,0,0,,7,,,79,127
16381,note_on,1,0,0,,0,,,60,127
16381,note_on,0,0,0,,7,,,79,127
16490,note_off,109,0,0,,0,,,60,127
16491,note_on,1,0,0,,7,,,67,127
16600,note_off,109,0,0,,7,,,67,127
16600,note_off,0,0,0,,7,,,79,127
16601,note_on,1,0,0,,12,,,59,127
16601,note_on,0,0,0,,7,,,79,127
16710,note_off,109,0,0,,12,,,59,127
16711,note_on,1,0,0,,2,,,62,127
16820,note_off,109,0,0,,2,,,62,127
16820,note_off,0,0,0,,7,,,79,127
16821,note_on,1,0,0,,7,,,55,127
16821,note_on,0,0,0,,7,,,79,127
16875,note_off,54,0,0,,7,,,79,127
16876,note_on,1,0,0,,5,,,77,127
16930,note_off,54,0,0,,5,,,77,127
16930,note_off,0,0,0,,7,,,55,127
16931,note_on,1,0,0,,2,,,62,127
16931,note_on,0,0,0,,7,,,79,127
16985,note_off,54,0,0,,7,,,79,127
16986,note_on,1,0,0,,5,,,77,127
17040,note_off,54,0,0,,5,,,77,127
17040,note_off,0,0,0,,2,,,62,127
17041,note_on,1,0,0,,12,,,59,127
17041,note_on,0,0,0,,7,,,79,127
17095,note_off,54,0,0,,7,,,79,127
17096,note_on,1,0,0,,5,,,77,127
17150,note_off,54,0,0,,5,,,77,127
17150,note_off,0,0,0,,12,,,59,127
17151,note_on,1,0,0,,2,,,62,127
17151,note_on,0,0,0,,4,,,76,127
17205,note_off,54,0,0,,4,,,76,127
17206,note_on,1,0,0,,5,,,77,127
17260,note_off,54,0,0,,5,,,77,127
17260,note_off,0,0,0,,2,,,62,127
17261,note_on,1,0,0,,0,,,60,127
17261,note_on,0,0,0,,4,,,76,127
17370,note_off,109,0,0,,0,,,60,127
17371,note_on,1,0,0,,7,,,67,127
17480,note_off,109,0,0,,7,,,67,127
17480,note_off,0,0,0,,4,,,76,127
17481,note_on,1,0,0,,4,,,64,127
17481,note_on,0,0,0,,7,,,79,127
17590,note_off,109,0,0,,4,,,64,127
17591,note_on,1,0,0,,7,,,67,127
17700,note_off,109,0,0,,7,,,67,127
17700,note_off,0,0,0,,7,,,79,127
17701,note_on,1,0,0,,0,,,60,127
17701,note_on,0,0,0,,7,,,79,127
17810,note_off,109,0,0,,0,,,60,127
17811,note_on,1,0,0,,7,,,67,127
17920,note_off,109,0,0,,7,,,67,127
17920,note_off,0,0,0,,7,,,79,127
17921,note_on,1,0,0,,12,,,59,127
17921,note_on,0,0,0,,7,,,79,127
18030,note_off,109,0,0,,12,,,59,127
18031,note_on,1,0,0,,2,,,62,127
18140,note_off,109,0,0,,2,,,62,127
18140,note_off,0,0,0,,7,,,79,127
18141,note_on,1,0,0,,7,,,55,127
18141,note_on,0,0,0,,7,,,79,127
18195,note_off,54,0,0,,7,,,79,127
18196,note_on,1,0,0,,5,,,77,127
18250,note_off,54,0,0,,5,,,77,127
18250,note_off,0,0,0,,7,,,55,127
18251,note_on,1,0,0,,2,,,62,127
18251,note_on,0,0,0,,7,,,79,127
18305,note_off,54,0,0,,7,,,79,127
18306,note_on,1,0,0,,5,,,77,127
18360,note_off,54,0,0,,5,,,77,127
18360,note_off,0,0,0,,2,,,62,127
18361,note_on,1,0,0,,12,,,59,127
18361,note_on,0,0,0,,7,,,79,127
18415,note_off,54,0,0,,7,,,79,127
18416,note_on,1,0,0,,5,,,77,127
18470,note_off,54,0,0,,5,,,77,127
18470,note_off,0,0,0,,12,,,59,127
18471,note_on,1,0,0,,2,,,62,127
18471,note_on,0,0,0,,4,,,76,127
18525,note_off,54,0,0,,4,,,76,127
18526,note_on,1,0,0,,5,,,77,127
18580,note_off,54,0,0,,5,,,77,127
18580,note_off,0,0,0,,2,,,62,127
18581,note_on,1,0,0,,0,,,60,127
18581,note_on,0,0,0,,4,,,76,127
18690,note_off,109,0,0,,4,,,76,127
18691,note_on,1,0,0,,10,,,81,127
18800,note_off,109,0,0,,10,,,81,127
18800,note_off,0,0,0,,0,,,60,127
18801,note_on,1,0,0,,2,,,62,127
18801,note_on,0,0,0,,7,,,79,127
18911,note_on,110,0,0,,12,,,71,127
18966,note_off,55,0,0,,7,,,79,127
19020,note_off,54,0,0,,12,,,71,127
19020,note_off,0,0,0,,2,,,62,127
19021,note_on,1,0,0,,4,,,64,127
19021,note_on,0,0,0,,0,,,72,127
19130,note_off,109,0,0,,0,,,72,127
19131,note_on,1,0,0,,4,,,76,127
19240,note_off,109,0,0,,4,,,76,127
19240,note_off,0,0,0,,4,,,64,127
19241,note_on,1,0,0,,5,,,65,127
19241,note_on,0,0,0,,2,,,74,127
19350,note_off,109,0,0,,2,,,74,127
19351,note_on,1,0,0,,10,,,81,127
19460,note_off,109,0,0,,10,,,81,127
19460,note_off,0,0,0,,5,,,65,127
19461,note_on,1,0,0,,7,,,67,127
19461,note_on,0,0,0,,7,,,79,127
19571,note_on,110,0,0,,0,,,72,127
19626,note_off,55,0,0,,7,,,79,127
19680,note_off,54,0,0,,0,,,72,127
19681,note_on,1,0,0,,7,,,55,127
19681,note_on,0,0,0,,2,,,74,127
19790,note_off,109,0,0,,2,,,74,127
19791,note_on,1,0,0,,12,,,71,127
19896,note_off,105,0,0,,7,,,67,127
19899,note_off,3,0,0,,12,,,71,127
19899,note_off,0,0,0,,7,,,55,127
19900,note_on,1,0,0,,0,,,48,127
19900,note_on,0,0,0,,0,,,72,127
20009,note_off,109,0,0,,0,,,48,127
20010,note_on,1,0,0,,7,,,55,127
20119,note_off,109,0,0,,7,,,55,127
20119,note_off,0,0,0,,0,,,72,127
20120,note_on,1,0,0,,4,,,52,127
20120,note_on,0,0,0,,7,,,67,127
20229,note_off,109,0,0,,4,,,52,127
20230,note_on,1,0,0,,7,,,55,127
20339,note_off,109,0,0,,7,,,55,127
20339,note_off,0,0,0,,7,,,67,127
20340,note_on,1,0,0,,0,,,48,127
20340,note_on,0,0,0,,7,,,67,127
20449,note_off,109,0,0,,0,,,48,127
20450,note_on,1,0,0,,7,,,55,127
20559,note_off,109,0,0,,7,,,55,127
20559,note_off,0,0,0,,7,,,67,127
20560,note_on,1,0,0,,12,,,47,127
20560,note_on,0,0,0,,7,,,67,127
20669,note_off,109,0,0,,12,,,47,127
20670,note_on,1,0,0,,2,,,50,127
20779,note_off,109,0,0,,2,,,50,127
20779,note_off,0,0,0,,7,,,67,127
20780,note_on,1,0,0,,7,,,43,127
20780,note_on,0,0,0,,7,,,67,127
20834,note_off,54,0,0,,7,,,67,127
20835,note_on,1,0,0,,5,,,65,127
20889,note_off,54,0,0,,5,,,65,127
20889,note_off,0,0,0,,7,,,43,127
20890,note_on,1,0,0,,2,,,50,127
20890,note_on,0,0,0,,7,,,67,127
20944,note_off,54,0,0,,7,,,67,127
20945,note_on,1,0,0,,5,,,65,127
20999,note_off,54,0,0,,5,,,65,127
20999,note_off,0,0,0,,2,,,50,127
21000,note_on,1,0,0,,12,,,47,127
21000,note_on,0,0,0,,7,,,67,127
21054,note_off,54,0,0,,7,,,67,127
21055,note_on,1,0,0,,5,,,65,127
21109,note_off,54,0,0,,5,,,65,127
21109,note_off,0,0,0,,12,,,47,127
21110,note_on,1,0,0,,2,,,50,127
21110,note_on,0,0,0,,4,,,64,127
21164,note_off,54,0,0,,4,,,64,127
21165,note_on,1,0,0,,5,,,65,127
21219,note_off,54,0,0,,5,,,65,127
21219,note_off,0,0,0,,2,,,50,127
21220,note_on,1,0,0,,0,,,48,127
21220,note_on,0,0,0,,4,,,64,127
21329,note_off,109,0,0,,0,,,48,127
21330,note_on,1,0,0,,7,,,55,127
21439,note_off,109,0,0,,7,,,55,127
21439,note_off,0,0,0,,4,,,64,127
21440,note_on,1,0,0,,4,,,52,127
21440,note_on,0,0,0,,7,,,67,127
21549,note_off,109,0,0,,4,,,52,127
21550,note_on,1,0,0,,7,,,55,127
21659,note_off,109,0,0,,7,,,55,127
21659,note_off,0,0,0,,7,,,67,127
21660,note_on,1,0,0,,0,,,48,127
21660,note_on,0,0,0,,7,,,67,127
21769,note_off,109,0,0,,0,,,48,127
21770,note_on,1,0,0,,7,,,55,127
21879,note_off,109,0,0,,7,,,55,127
21879,note_off,0,0,0,,7,,,67,127
21880,note_on,1,0,0,,12,,,47,127
21880,note_on,0,0,0,,7,,,67,127
21989,note_off,109,0,0,,12,,,47,127
21990,note_on,1,0,0,,2,,,50,127
22099,note_off,109,0,0,,2,,,50,127
22099,note_off,0,0,0,,7,,,67,127
22100,note_on,1,0,0,,7,,,43,127
22100,note_on,0,0,0,,7,,,67,127
22154,note_off,54,0,0,,7,,,67,127
22155,note_on,1,0,0,,5,,,65,127
22209,note_off,54,0,0,,5,,,65,127
22209,note_off,0,0,0,,7,,,43,127
22210,note_on,1,0,0,,2,,,50,127
22210,note_on,0,0,0,,7,,,67,127
22264,note_off,54,0,0,,7,,,67,127
22265,note_on,1,0,0,,5,,,65,127
22319,note_off,54,0,0,,5,,,65,127
22319,note_off,0,0,0,,2,,,50,127
22320,note_on,1,0,0,,12,,,47,127
22320,note_on,0,0,0,,7,,,67,127
22374,note_off,54,0,0,,7,,,67,127
22375,note_on,1,0,0,,5,,,65,127
22429,note_off,54,0,0,,5,,,65,127
22429,note_off,0,0,0,,12,,,47,127
22430,note_on,1,0,0,,2,,,50,127
22430,note_on,0,0,0,,4,,,64,127
22484,note_off,54,0,0,,4,,,64,127
22485,note_on,1,0,0,,5,,,65,127
22539,note_off,54,0,0,,5,,,65,127
22539,note_off,0,0,0,,2,,,50,127
22540,note_on,1,0,0,,0,,,48,127
22540,note_on,0,0,0,,4,,,64,127
22649,note_off,109,0,0,,4,,,64,127
22650,note_on,1,0,0,,0,,,72,127
22759,note_off,109,0,0,,0,,,72,127
22759,note_off,0,0,0,,0,,,48,127
22760,note_on,1,0,0,,2,,,50,127
22760,note_on,0,0,0,,12,,,71,127
22869,note_off,109,0,0,,12,,,71,127
22870,note_on,1,0,0,,10,,,69,127
22979,note_off,109,0,0,,10,,,69,127
22979,note_off,0,0,0,,2,,,50,127
22980,note_on,1,0,0,,4,,,52,127
22980,note_on,0,0,0,,7,,,67,127
23089,note_off,109,0,0,,7,,,67,127
23090,note_on,1,0,0,,10,,,81,127
23199,note_off,109,0,0,,10,,,81,127
23199,note_off,0,0,0,,4,,,52,127
23200,note_on,1,0,0,,5,,,53,127
23200,note_on,0,0,0,,7,,,79,127
23309,note_off,109,0,0,,7,,,79,127
23310,note_on,1,0,0,,5,,,77,127
23419,note_off,109,0,0,,5,,,77,127
23419,note_off,0,0,0,,5,,,53,127
23420,note_on,1,0,0,,7,,,55,127
23420,note_on,0,0,0,,4,,,76,127
23529,note_off,109,0,0,,4,,,76,127
23530,note_on,1,0,0,,2,,,74,127
23639,note_off,109,0,0,,2,,,74,127
23640,note_on,1,0,0,,7,,,43,127
23640,note_on,0,0,0,,0,,,72,127
23749,note_off,109,0,0,,0,,,72,127
23750,note_on,1,0,0,,12,,,71,127
23859,note_off,109,0,0,,12,,,71,127
23859,note_off,0,0,0,,7,,,43,127
23859,note_off,0,0,0,,7,,,55,127
23860,note_on,1,0,0,,0,,,48,127
23860,note_on,0,0,0,,0,,,72,127
23860,note_on,0,0,0,,0,,,84,127
23969,note_off,109,0,0,,0,,,48,127
23970,note_on,1,0,0,,0,,,60,127
24079,note_off,109,0,0,,0,,,60,127
24080,note_on,1,0,0,,4,,,52,127
24189,note_off,109,0,0,,4,,,52,127
24190,note_on,1,0,0,,0,,,60,127
24299,note_off,109,0,0,,0,,,60,127
24300,note_on,1,0,0,,0,,,48,127
24409,note_off,109,0,0,,0,,,48,127
24410,note_on,1,0,0,,0,,,60,127
24519,note_off,109,0,0,,0,,,60,127
24519,note_off,0,0,0,,0,,,84,127
24519,note_off,0,0,0,,0,,,72,127
24520,note_on,1,0,0,,5,,,53,127
24520,note_on,0,0,0,,0,,,84,127
24520,note_on,0,0,0,,0,,,72,127
24629,note_off,109,0,0,,5,,,53,127
24630,note_on,1,0,0,,0,,,60,127
24739,note_off,109,0,0,,0,,,60,127
24740,note_on,1,0,0,,10,,,57,127
24849,note_off,109,0,0,,10,,,57,127
24850,note_on,1,0,0,,0,,,60,127
24959,note_off,109,0,0,,0,,,60,127
24960,note_on,1,0,0,,5,,,53,127
25069,note_off,109,0,0,,5,,,53,127
25070,note_on,1,0,0,,0,,,60,127
25179,note_off,109,0,0,,0,,,60,127
25179,note_off,0,0,0,,0,,,72,127
25179,note_off,0,0,0,,0,,,84,127
25180,note_on,1,0,0,,4,,,52,127
25180,note_on,0,0,0,,0,,,84,127
25180,note_on,0,0,0,,0,,,72,127
25289,note_off,109,0,0,,4,,,52,127
25290,note_on,1,0,0,,0,,,60,127
25399,note_off,109,0,0,,0,,,60,127
25400,note_on,1,0,0,,0,,,48,127
25509,note_off,109,0,0,,0,,,48,127
25510,note_on,1,0,0,,0,,,60,127
25619,note_off,109,0,0,,0,,,60,127
25620,note_on,1,0,0,,4,,,52,127
25729,note_off,109,0,0,,4,,,52,127
25730,note_on,1,0,0,,0,,,60,127
25839,note_off,109,0,0,,0,,,60,127
25839,note_off,0,0,0,,0,,,72,127
25839,note_off,0,0,0,,0,,,84,127
25840,note_on,1,0,0,,5,,,53,127
25840,note_on,0,0,0,,0,,,84,127
25840,note_on,0,0,0,,0,,,72,127
25949,note_off,109,0,0,,0,,,84,127
25950,note_on,1,0,0,,10,,,81,127
26059,note_off,109,0,0,,10,,,81,127
26059,note_off,0,0,0,,0,,,72,127
26059,note_off,0,0,0,,5,,,53,127
26060,note_on,1,0,0,,7,,,55,127
26060,note_on,0,0,0,,7,,,79,127
26169,note_off,109,0,0,,7,,,79,127
26170,note_on,1,0,0,,5,,,77,127
26279,note_off,109,0,0,,5,,,77,127
26280,note_on,1,0,0,,7,,,43,127
26280,note_on,0,0,0,,4,,,76,127
26389,note_off,109,0,0,,4,,,76,127
26390,note_on,1,0,0,,2,,,74,127
26499,note_off,109,0,0,,2,,,74,127
26499,note_off,0,0,0,,7,,,43,127
26499,note_off,0,0,0,,7,,,55,127
26500,note_on,1,0,0,,0,,,48,127
26500,note_on,0,0,0,,0,,,84,127
26500,note_on,0,0,0,,0,,,72,127
26609,note_off,109,0,0,,0,,,48,127
26610,note_on,1,0,0,,0,,,60,127
26719,note_off,109,0,0,,0,,,60,127
26720,note_on,1,0,0,,4,,,52,127
26829,note_off,109,0,0,,4,,,52,127
26830,note_on,1,0,0,,0,,,60,127
26939,note_off,109,0,0,,0,,,60,127
26940,note_on,1,0,0,,0,,,48,127
27049,note_off,109,0,0,,0,,,48,127
27050,note_on,1,0,0,,0,,,60,127
27159,note_off,109,0,0,,0,,,60,127
27159,note_off,0,0,0,,0,,,72,127
27159,note_off,0,0,0,,0,,,84,127
27160,note_on,1,0,0,,5,,,53,127
27160,note_on,0,0,0,,0,,,84,127
27160,note_on,0,0,0,,0,,,72,127
27269,note_off,109,0,0,,5,,,53,127
27270,note_on,1,0,0,,0,,,60,127
27379,note_off,109,0,0,,0,,,60,127
27380,note_on,1,0,0,,10,,,57,127
27489,note_off,109,0,0,,10,,,57,127
27490,note_on,1,0,0,,0,,,60,127
27599,note_off,109,0,0,,0,,,60,127
27600,note_on,1,0,0,,5,,,53,127
27709,note_off,109,0,0,,5,,,53,127
27710,note_on,1,0,0,,0,,,60,127
27819,note_off,109,0,0,,0,,,60,127
27819,note_off,0,0,0,,0,,,72,127
27819,note_off,0,0,0,,0,,,84,127
27820,note_on,1,0,0,,4,,,52,127
27820,note_on,0,0,0,,0,,,84,127
27820,note_on,0,0,0,,0,,,72,127
27929,note_off,109,0,0,,4,,,52,127
27930,note_on,1,0,0,,0,,,60,127
28039,note_off,109,0,0,,0,,,60,127
28040,note_on,1,0,0,,0,,,48,127
28149,note_off,109,0,0,,0,,,48,127
28150,note_on,1,0,0,,0,,,60,127
28259,note_off,109,0,0,,0,,,60,127
28260,note_on,1,0,0,,4,,,52,127
28369,note_off,109,0,0,,4,,,52,127
28370,note_on,1,0,0,,0,,,60,127
28479,note_off,109,0,0,,0,,,60,127
28479,note_off,0,0,0,,0,,,72,127
28479,note_off,0,0,0,,0,,,84,127
28480,note_on,1,0,0,,5,,,53,127
28480,note_on,0,0,0,,0,,,84,127
28480,note_on,0,0,0,,0,,,72,127
28589,note_off,109,0,0,,0,,,84,127
28590,note_on,1,0,0,,10,,,81,127
28699,note_off,109,0,0,,10,,,81,127
28699,note_off,0,0,0,,0,,,72,127
28699,note_off,0,0,0,,5,,,53,127
28700,note_on,1,0,0,,7,,,55,127
28700,note_on,0,0,0,,7,,,79,127
28809,note_off,109,0,0,,7,,,79,127
28810,note_on,1,0,0,,5,,,77,127
28919,note_off,109,0,0,,5,,,77,127
28920,note_on,1,0,0,,7,,,43,127
28920,note_on,0,0,0,,4,,,76,127
29029,note_off,109,0,0,,4,,,76,127
29030,note_on,1,0,0,,2,,,74,127
29139,note_off,109,0,0,,2,,,74,127
29139,note_off,0,0,0,,7,,,43,127
29139,note_off,0,0,0,,7,,,55,127
29140,note_on,1,0,0,,0,,,48,127
29140,note_on,0,0,0,,0,,,72,127
29574,note_off,434,0,0,,0,,,72,127
29797,note_off,223,0,0,,0,,,48,127
29798,note_on,1,0,0,,0,,,60,127
29798,note_on,0,0,0,,4,,,76,127
29907,note_off,109,0,0,,4,,,76,127
29908,note_on,1,0,0,,0,,,72,127
30017,note_off,109,0,0,,0,,,72,127
30018,note_on,1,0,0,,7,,,79,127
30127,note_off,109,0,0,,7,,,79,127
30128,note_on,1,0,0,,4,,,76,127
30237,note_off,109,0,0,,4,,,76,127
30238,note_on,1,0,0,,0,,,84,127
30348,note_on,110,0,0,,0,,,72,127
30455,note_off,107,0,0,,0,,,84,127
30456,note_off,1,0,0,,0,,,72,127
30456,note_off,0,0,0,,0,,,60,127
30457,note_on,1,0,0,,7,,,55,127
30457,note_on,0,0,0,,12,,,71,127
30566,note_off,109,0,0,,12,,,71,127
30567,note_on,1,0,0,,0,,,72,127
30676,note_off,109,0,0,,0,,,72,127
30677,note_on,1,0,0,,2,,,74,127
30786,note_off,109,0,0,,7,,,55,127
30787,note_on,1,0,0,,7,,,67,127
30896,note_off,109,0,0,,7,,,67,127
30897,note_on,1,0,0,,5,,,65,127
31006,note_off,109,0,0,,5,,,65,127
31007,note_on,1,0,0,,4,,,64,127
31116,note_off,109,0,0,,4,,,64,127
31116,note_off,0,0,0,,2,,,74,127
31117,note_on,1,0,0,,2,,,62,127
31117,note_on,0,0,0,,5,,,77,127
31226,note_off,109,0,0,,5,,,77,127
31227,note_on,1,0,0,,2,,,74,127
31336,note_off,109,0,0,,2,,,74,127
31337,note_on,1,0,0,,10,,,81,127
31446,note_off,109,0,0,,10,,,81,127
31447,note_on,1,0,0,,5,,,77,127
31556,note_off,109,0,0,,5,,,77,127
31557,note_on,1,0,0,,2,,,86,127
31667,note_on,110,0,0,,2,,,74,127
31774,note_off,107,0,0,,2,,,86,127
31775,note_off,1,0,0,,2,,,74,127
31775,note_off,0,0,0,,2,,,62,127
31776,note_on,1,0,0,,10,,,57,127
31776,note_on,0,0,0,,0,,,72,127
31885,note_off,109,0,0,,0,,,72,127
31886,note_on,1,0,0,,2,,,74,127
31995,note_off,109,0,0,,2,,,74,127
31996,note_on,1,0,0,,4,,,76,127
32105,note_off,109,0,0,,10,,,57,127
32106,note_on,1,0,0,,10,,,69,127
32215,note_off,109,0,0,,10,,,69,127
32216,note_on,1,0,0,,8,,,68,127
32325,note_off,109,0,0,,8,,,68,127
32326,note_on,1,0,0,,6,,,66,127
32435,note_off,109,0,0,,6,,,66,127
32435,note_off,0,0,0,,4,,,76,127
32436,note_on,1,0,0,,4,,,64,127
32436,note_on,0,0,0,,4,,,76,127
32545,note_off,109,0,0,,4,,,76,127
32546,note_on,1,0,0,,12,,,71,127
32655,note_off,109,0,0,,12,,,71,127
32656,note_on,1,0,0,,0,,,72,127
32765,note_off,109,0,0,,0,,,72,127
32766,note_on,1,0,0,,10,,,69,127
32875,note_off,109,0,0,,10,,,69,127
32876,note_on,1,0,0,,12,,,71,127
32985,note_off,109,0,0,,12,,,71,127
32986,note_on,1,0,0,,6,,,66,127
33095,note_off,109,0,0,,6,,,66,127
33095,note_off,0,0,0,,4,,,64,127
33096,note_on,1,0,0,,4,,,52,127
33096,note_on,0,0,0,,10,,,69,127
33150,note_off,54,0,0,,10,,,69,127
33151,note_on,1,0,0,,8,,,68,127
33205,note_off,54,0,0,,8,,,68,127
33205,note_off,0,0,0,,4,,,52,127
33206,note_on,1,0,0,,4,,,64,127
33206,note_on,0,0,0,,10,,,69,127
33260,note_off,54,0,0,,10,,,69,127
33261,note_on,1,0,0,,8,,,68,127
33315,note_off,54,0,0,,8,,,68,127
33315,note_off,0,0,0,,4,,,64,127
33316,note_on,1,0,0,,2,,,62,127
33316,note_on,0,0,0,,10,,,69,127
33370,note_off,54,0,0,,10,,,69,127
33371,note_on,1,0,0,,8,,,68,127
33425,note_off,54,0,0,,8,,,68,127
33425,note_off,0,0,0,,2,,,62,127
33426,note_on,1,0,0,,0,,,60,127
33426,note_on,0,0,0,,10,,,69,127
33480,note_off,54,0,0,,10,,,69,127
33481,note_on,1,0,0,,8,,,68,127
33535,note_off,54,0,0,,8,,,68,127
33535,note_off,0,0,0,,0,,,60,127
33536,note_on,1,0,0,,12,,,59,127
33536,note_on,0,0,0,,10,,,69,127
33590,note_off,54,0,0,,10,,,69,127
33591,note_on,1,0,0,,8,,,68,127
33645,note_off,54,0,0,,8,,,68,127
33645,note_off,0,0,0,,12,,,59,127
33646,note_on,1,0,0,,0,,,60,127
33646,note_on,0,0,0,,6,,,66,127
33700,note_off,54,0,0,,6,,,66,127
33701,note_on,1,0,0,,8,,,68,127
33755,note_off,54,0,0,,8,,,68,127
33755,note_off,0,0,0,,0,,,60,127
33756,note_on,1,0,0,,2,,,62,127
33756,note_on,0,0,0,,5,,,77,127
33865,note_off,109,0,0,,5,,,77,127
33866,note_on,1,0,0,,2,,,74,127
33975,note_off,109,0,0,,2,,,74,127
33976,note_on,1,0,0,,4,,,76,127
34085,note_off,109,0,0,,4,,,76,127
34086,note_on,1,0,0,,12,,,71,127
34195,note_off,109,0,0,,12,,,71,127
34196,note_on,1,0,0,,0,,,72,127
34305,note_off,109,0,0,,0,,,72,127
34306,note_on,1,0,0,,10,,,69,127
34415,note_off,109,0,0,,2,,,62,127
34416,note_on,1,0,0,,2,,,50,127
34466,note_off,50,0,0,,10,,,69,127
34471,note_on,5,0,0,,8,,,68,127
34525,note_off,54,0,0,,8,,,68,127
34525,note_off,0,0,0,,2,,,50,127
34526,note_on,1,0,0,,2,,,62,127
34526,note_on,0,0,0,,10,,,69,127
34580,note_off,54,0,0,,10,,,69,127
34581,note_on,1,0,0,,8,,,68,127
34635,note_off,54,0,0,,8,,,68,127
34635,note_off,0,0,0,,2,,,62,127
34636,note_on,1,0,0,,0,,,60,127
34636,note_on,0,0,0,,10,,,69,127
34690,note_off,54,0,0,,10,,,69,127
34691,note_on,1,0,0,,8,,,68,127
34745,note_off,54,0,0,,8,,,68,127
34745,note_off,0,0,0,,0,,,60,127
34746,note_on,1,0,0,,12,,,59,127
34746,note_on,0,0,0,,10,,,69,127
34800,note_off,54,0,0,,10,,,69,127
34801,note_on,1,0,0,,8,,,68,127
34855,note_off,54,0,0,,8,,,68,127
34855,note_off,0,0,0,,12,,,59,127
34856,note_on,1,0,0,,10,,,57,127
34856,note_on,0,0,0,,10,,,69,127
34910,note_off,54,0,0,,10,,,69,127
34911,note_on,1,0,0,,8,,,68,127
34965,note_off,54,0,0,,8,,,68,127
34965,note_off,0,0,0,,10,,,57,127
34966,note_on,1,0,0,,12,,,59,127
34966,note_on,0,0,0,,6,,,66,127
35020,note_off,54,0,0,,6,,,66,127
35021,note_on,1,0,0,,8,,,68,127
35075,note_off,54,0,0,,8,,,68,127
35075,note_off,0,0,0,,12,,,59,127
35076,note_on,1,0,0,,0,,,60,127
35076,note_on,0,0,0,,4,,,76,127
35185,note_off,109,0,0,,4,,,76,127
35186,note_on,1,0,0,,12,,,71,127
35295,note_off,109,0,0,,12,,,71,127
35296,note_on,1,0,0,,0,,,72,127
35405,note_off,109,0,0,,0,,,72,127
35406,note_on,1,0,0,,8,,,68,127
35515,note_off,109,0,0,,8,,,68,127
35516,note_on,1,0,0,,10,,,69,127
35625,note_off,109,0,0,,10,,,69,127
35626,note_on,1,0,0,,4,,,64,127
35735,note_off,109,0,0,,4,,,64,127
35735,note_off,0,0,0,,0,,,60,127
35736,note_on,1,0,0,,2,,,62,127
35736,note_on,0,0,0,,5,,,65,127
35843,note_off,107,0,0,,2,,,62,127
35844,note_off,1,0,0,,5,,,65,127
35845,note_on,1,0,0,,2,,,62,127
35955,note_on,110,0,0,,10,,,69,127
36064,note_off,109,0,0,,10,,,69,127
36065,note_on,1,0,0,,5,,,65,127
36174,note_off,109,0,0,,5,,,65,127
36175,note_on,1,0,0,,2,,,74,127
36284,note_off,109,0,0,,2,,,74,127
36285,note_on,1,0,0,,10,,,69,127
36394,note_off,109,0,0,,10,,,69,127
36394,note_off,0,0,0,,2,,,62,127
36395,note_on,1,0,0,,2,,,50,127
36395,note_on,0,0,0,,5,,,77,127
36504,note_off,109,0,0,,5,,,77,127
36505,note_on,1,0,0,,2,,,74,127
36614,note_off,109,0,0,,2,,,74,127
36615,note_on,1,0,0,,4,,,76,127
36724,note_off,109,0,0,,4,,,76,127
36725,note_on,1,0,0,,12,,,71,127
36834,note_off,109,0,0,,12,,,71,127
36835,note_on,1,0,0,,0,,,72,127
36944,note_off,109,0,0,,0,,,72,127
36945,note_on,1,0,0,,10,,,69,127
37054,note_off,109,0,0,,10,,,69,127
37054,note_off,0,0,0,,2,,,50,127
37055,note_on,1,0,0,,4,,,52,127
37055,note_on,0,0,0,,8,,,68,127
37164,note_off,109,0,0,,8,,,68,127
37165,note_on,1,0,0,,6,,,66,127
37274,note_off,109,0,0,,6,,,66,127
37275,note_on,1,0,0,,4,,,64,127
37384,note_off,109,0,0,,4,,,52,127
37385,note_on,1,0,0,,2,,,50,127
37494,note_off,109,0,0,,2,,,50,127
37494,note_off,0,0,0,,4,,,64,127
37495,note_on,1,0,0,,0,,,48,127
37495,note_on,0,0,0,,2,,,74,127
37604,note_off,109,0,0,,0,,,48,127
37605,note_on,1,0,0,,12,,,47,127
37714,note_off,109,0,0,,12,,,47,127
37714,note_off,0,0,0,,2,,,74,127
37715,note_on,1,0,0,,10,,,45,127
37715,note_on,0,0,0,,10,,,57,127
37715,note_on,0,0,0,,0,,,72,127
37824,note_off,109,0,0,,0,,,72,127
37825,note_on,1,0,0,,12,,,71,127
37934,note_off,109,0,0,,12,,,71,127
37935,note_on,1,0,0,,10,,,69,127
38044,note_off,109,0,0,,10,,,57,127
38044,note_off,0,0,0,,10,,,45,127
38045,note_on,1,0,0,,7,,,55,127
38154,note_off,109,0,0,,7,,,55,127
38154,note_off,0,0,0,,10,,,69,127
38155,note_on,1,0,0,,5,,,53,127
38155,note_on,0,0,0,,7,,,79,127
38264,note_off,109,0,0,,5,,,53,127
38265,note_on,1,0,0,,4,,,52,127
38374,note_off,109,0,0,,4,,,52,127
38374,note_off,0,0,0,,7,,,79,127
38375,note_on,1,0,0,,2,,,50,127
38375,note_on,0,0,0,,2,,,62,127
38375,note_on,0,0,0,,5,,,77,127
38484,note_off,109,0,0,,5,,,77,127
38485,note_on,1,0,0,,4,,,76,127
38594,note_off,109,0,0,,4,,,76,127
38595,note_on,1,0,0,,2,,,74,127
38704,note_off,109,0,0,,2,,,62,127
38704,note_off,0,0,0,,2,,,50,127
38705,note_on,1,0,0,,0,,,60,127
38814,note_off,109,0,0,,0,,,60,127
38814,note_off,0,0,0,,2,,,74,127
38815,note_on,1,0,0,,12,,,59,127
38815,note_on,0,0,0,,10,,,81,127
38924,note_off,109,0,0,,12,,,59,127
38925,note_on,1,0,0,,10,,,57,127
39034,note_off,109,0,0,,10,,,57,127
39034,note_off,0,0,0,,10,,,81,127
39035,note_on,1,0,0,,4,,,52,127
39035,note_on,0,0,0,,4,,,64,127
39035,note_on,0,0,0,,8,,,80,127
39144,note_off,109,0,0,,8,,,80,127
39145,note_on,1,0,0,,6,,,78,127
39254,note_off,109,0,0,,6,,,78,127
39255,note_on,1,0,0,,4,,,76,127
39364,note_off,109,0,0,,4,,,64,127
39364,note_off,0,0,0,,4,,,52,127
39365,note_on,1,0,0,,2,,,62,127
39474,note_off,109,0,0,,2,,,62,127
39474,note_off,0,0,0,,4,,,76,127
39475,note_on,1,0,0,,0,,,60,127
39475,note_on,0,0,0,,2,,,86,127
39584,note_off,109,0,0,,0,,,60,127
39585,note_on,1,0,0,,12,,,59,127
39694,note_off,109,0,0,,12,,,59,127
39694,note_off,0,0,0,,2,,,86,127
39695,note_on,1,0,0,,10,,,57,127
39695,note_on,0,0,0,,10,,,69,127
39695,note_on,0,0,0,,0,,,84,127
39804,note_off,109,0,0,,0,,,84,127
39805,note_on,1,0,0,,12,,,83,127
39914,note_off,109,0,0,,12,,,83,127
39915,note_on,1,0,0,,10,,,81,127
40024,note_off,109,0,0,,10,,,69,127
40024,note_off,0,0,0,,10,,,57,127
40025,note_on,1,0,0,,7,,,67,127
40134,note_off,109,0,0,,7,,,67,127
40135,note_on,1,0,0,,5,,,65,127
40244,note_off,109,0,0,,5,,,65,127
40244,note_off,0,0,0,,10,,,81,127
40245,note_on,1,0,0,,4,,,64,127
40245,note_on,0,0,0,,7,,,79,127
40354,note_off,109,0,0,,7,,,79,127
40354,note_off,0,0,0,,4,,,64,127
40355,note_on,1,0,0,,2,,,62,127
40355,note_on,0,0,0,,2,,,50,127
40355,note_on,0,0,0,,5,,,77,127
40464,note_off,109,0,0,,5,,,77,127
40465,note_on,1,0,0,,4,,,76,127
40574,note_off,109,0,0,,4,,,76,127
40575,note_on,1,0,0,,2,,,74,127
40684,note_off,109,0,0,,2,,,74,127
40685,note_on,1,0,0,,0,,,72,127
40794,note_off,109,0,0,,0,,,72,127
40795,note_on,1,0,0,,12,,,71,127
40904,note_off,109,0,0,,12,,,71,127
40905,note_on,1,0,0,,10,,,69,127
41014,note_off,109,0,0,,10,,,69,127
41014,note_off,0,0,0,,2,,,50,127
41014,note_off,0,0,0,,2,,,62,127
41015,note_on,1,0,0,,2,,,62,127
41015,note_on,0,0,0,,2,,,50,127
41015,note_on,0,0,0,,8,,,68,127
41124,note_off,109,0,0,,8,,,68,127
41125,note_on,1,0,0,,5,,,77,127
41234,note_off,109,0,0,,2,,,50,127
41234,note_off,0,0,0,,2,,,62,127
41235,note_on,1,0,0,,0,,,60,127
41235,note_on,0,0,0,,0,,,48,127
41344,note_off,109,0,0,,5,,,77,127
41345,note_on,1,0,0,,4,,,76,127
41454,note_off,109,0,0,,0,,,48,127
41454,note_off,0,0,0,,0,,,60,127
41455,note_on,1,0,0,,12,,,59,127
41455,note_on,0,0,0,,12,,,47,127
41564,note_off,109,0,0,,4,,,76,127
41565,note_on,1,0,0,,2,,,74,127
41674,note_off,109,0,0,,12,,,47,127
41674,note_off,0,0,0,,12,,,59,127
41675,note_on,1,0,0,,10,,,45,127
41675,note_on,0,0,0,,10,,,57,127
41784,note_off,109,0,0,,2,,,74,127
41785,note_on,1,0,0,,0,,,72,127
41894,note_off,109,0,0,,10,,,57,127
41894,note_off,0,0,0,,10,,,45,127
41895,note_on,1,0,0,,2,,,50,127
42004,note_off,109,0,0,,0,,,72,127
42005,note_on,1,0,0,,12,,,71,127
42114,note_off,109,0,0,,12,,,71,127
42114,note_off,0,0,0,,2,,,50,127
42115,note_on,1,0,0,,4,,,52,127
42115,note_on,0,0,0,,10,,,69,127
42224,note_off,109,0,0,,10,,,69,127
42225,note_on,1,0,0,,8,,,68,127
42334,note_off,109,0,0,,8,,,68,127
42334,note_off,0,0,0,,4,,,52,127
42335,note_on,1,0,0,,10,,,57,127
42335,note_on,0,0,0,,10,,,69,127
42444,note_off,109,0,0,,10,,,57,127
42445,note_on,1,0,0,,4,,,64,127
42554,note_off,109,0,0,,4,,,64,127
42554,note_off,0,0,0,,10,,,69,127
42555,note_on,1,0,0,,0,,,60,127
42555,note_on,0,0,0,,4,,,76,127
42664,note_off,109,0,0,,0,,,60,127
42665,note_on,1,0,0,,4,,,64,127
42774,note_off,109,0,0,,4,,,64,127
42774,note_off,0,0,0,,4,,,76,127
42775,note_on,1,0,0,,10,,,57,127
42775,note_on,0,0,0,,4,,,76,127
42884,note_off,109,0,0,,10,,,57,127
42885,note_on,1,0,0,,4,,,64,127
42994,note_off,109,0,0,,4,,,64,127
42994,note_off,0,0,0,,4,,,76,127
42995,note_on,1,0,0,,8,,,56,127
42995,note_on,0,0,0,,4,,,76,127
43104,note_off,109,0,0,,8,,,56,127
43105,note_on,1,0,0,,12,,,59,127
43212,note_off,107,0,0,,4,,,76,127
43213,note_off,1,0,0,,12,,,59,127
43214,note_on,1,0,0,,4,,,52,127
43214,note_on,0,0,0,,4,,,76,127
43268,note_off,54,0,0,,4,,,76,127
43269,note_on,1,0,0,,2,,,74,127
43323,note_off,54,0,0,,2,,,74,127
43323,note_off,0,0,0,,4,,,52,127
43324,note_on,1,0,0,,12,,,59,127
43324,note_on,0,0,0,,4,,,76,127
43378,note_off,54,0,0,,4,,,76,127
43379,note_on,1,0,0,,2,,,74,127
43433,note_off,54,0,0,,2,,,74,127
43433,note_off,0,0,0,,12,,,59,127
43434,note_on,1,0,0,,8,,,56,127
43434,note_on,0,0,0,,4,,,76,127
43488,note_off,54,0,0,,4,,,76,127
43489,note_on,1,0,0,,2,,,74,127
43543,note_off,54,0,0,,2,,,74,127
43543,note_off,0,0,0,,8,,,56,127
43544,note_on,1,0,0,,12,,,59,127
43544,note_on,0,0,0,,0,,,72,127
43598,note_off,54,0,0,,0,,,72,127
43599,note_on,1,0,0,,2,,,74,127
43653,note_off,54,0,0,,2,,,74,127
43653,note_off,0,0,0,,12,,,59,127
43654,note_on,1,0,0,,10,,,57,127
43654,note_on,0,0,0,,0,,,72,127
43763,note_off,109,0,0,,10,,,57,127
43764,note_on,1,0,0,,4,,,64,127
43873,note_off,109,0,0,,4,,,64,127
43873,note_off,0,0,0,,0,,,72,127
43874,note_on,1,0,0,,0,,,60,127
43874,note_on,0,0,0,,4,,,76,127
43983,note_off,109,0,0,,0,,,60,127
43984,note_on,1,0,0,,4,,,64,127
44093,note_off,109,0,0,,4,,,64,127
44093,note_off,0,0,0,,4,,,76,127
44094,note_on,1,0,0,,10,,,57,127
44094,note_on,0,0,0,,4,,,76,127
44203,note_off,109,0,0,,10,,,57,127
44204,note_on,1,0,0,,4,,,64,127
44313,note_off,109,0,0,,4,,,64,127
44313,note_off,0,0,0,,4,,,76,127
44314,note_on,1,0,0,,8,,,56,127
44314,note_on,0,0,0,,4,,,76,127
44423,note_off,109,0,0,,8,,,56,127
44424,note_on,1,0,0,,12,,,59,127
44533,note_off,109,0,0,,12,,,59,127
44533,note_off,0,0,0,,4,,,76,127
44534,note_on,1,0,0,,4,,,52,127
44534,note_on,0,0,0,,4,,,76,127
44588,note_off,54,0,0,,4,,,76,127
44589,note_on,1,0,0,,2,,,74,127
44643,note_off,54,0,0,,2,,,74,127
44643,note_off,0,0,0,,4,,,52,127
44644,note_on,1,0,0,,12,,,59,127
44644,note_on,0,0,0,,4,,,76,127
44698,note_off,54,0,0,,4,,,76,127
44699,note_on,1,0,0,,2,,,74,127
44753,note_off,54,0,0,,2,,,74,127
44753,note_off,0,0,0,,12,,,59,127
44754,note_on,1,0,0,,8,,,56,127
44754,note_on,0,0,0,,4,,,76,127
44808,note_off,54,0,0,,4,,,76,127
44809,note_on,1,0,0,,2,,,74,127
44863,note_off,54,0,0,,2,,,74,127
44863,note_off,0,0,0,,8,,,56,127
44864,note_on,1,0,0,,12,,,59,127
44864,note_on,0,0,0,,0,,,72,127
44918,note_off,54,0,0,,0,,,72,127
44919,note_on,1,0,0,,2,,,74,127
44973,note_off,54,0,0,,2,,,74,127
44973,note_off,0,0,0,,12,,,59,127
44974,note_on,1,0,0,,10,,,57,127
44974,note_on,0,0,0,,0,,,72,127
45083,note_off,109,0,0,,0,,,72,127
45084,note_on,1,0,0,,4,,,76,127
45193,note_off,109,0,0,,4,,,76,127
45193,note_off,0,0,0,,10,,,57,127
45194,note_on,1,0,0,,12,,,59,127
45194,note_on,0,0,0,,8,,,68,127
45303,note_off,109,0,0,,8,,,68,127
45304,note_on,1,0,0,,12,,,71,127
45413,note_off,109,0,0,,12,,,71,127
45413,note_off,0,0,0,,12,,,59,127
45414,note_on,1,0,0,,0,,,60,127
45414,note_on,0,0,0,,10,,,69,127
45523,note_off,109,0,0,,10,,,69,127
45524,note_on,1,0,0,,0,,,72,127
45633,note_off,109,0,0,,0,,,72,127
45633,note_off,0,0,0,,0,,,60,127
45634,note_on,1,0,0,,2,,,62,127
45634,note_on,0,0,0,,12,,,71,127
45743,note_off,109,0,0,,12,,,71,127
45744,note_on,1,0,0,,5,,,77,127
45853,note_off,109,0,0,,5,,,77,127
45853,note_off,0,0,0,,2,,,62,127
45854,note_on,1,0,0,,4,,,64,127
45854,note_on,0,0,0,,4,,,76,127
45963,note_off,109,0,0,,4,,,76,127
45964,note_on,1,0,0,,2,,,74,127
46073,note_off,109,0,0,,2,,,74,127
46074,note_on,1,0,0,,4,,,52,127
46074,note_on,0,0,0,,0,,,72,127
46183,note_off,109,0,0,,0,,,72,127
46184,note_on,1,0,0,,12,,,71,127
46293,note_off,109,0,0,,12,,,71,127
46293,note_off,0,0,0,,4,,,52,127
46293,note_off,0,0,0,,4,,,64,127
46303,note_on,10,0,0,,10,,,69,127
46303,note_on,0,0,0,,10,,,81,127
46303,note_on,0,0,0,,10,,,45,127
46412,note_off,109,0,0,,10,,,45,127
46413,note_on,1,0,0,,10,,,57,127
46522,note_off,109,0,0,,10,,,57,127
46523,note_on,1,0,0,,0,,,48,127
46632,note_off,109,0,0,,0,,,48,127
46633,note_on,1,0,0,,10,,,57,127
46742,note_off,109,0,0,,10,,,57,127
46743,note_on,1,0,0,,10,,,45,127
46852,note_off,109,0,0,,10,,,45,127
46853,note_on,1,0,0,,10,,,57,127
46962,note_off,109,0,0,,10,,,57,127
46962,note_off,0,0,0,,10,,,81,127
46962,note_off,0,0,0,,10,,,69,127
46963,note_on,1,0,0,,10,,,69,127
46963,note_on,0,0,0,,10,,,81,127
46963,note_on,0,0,0,,2,,,50,127
47072,note_off,109,0,0,,2,,,50,127
47073,note_on,1,0,0,,10,,,57,127
47182,note_off,109,0,0,,10,,,57,127
47183,note_on,1,0,0,,5,,,53,127
47292,note_off,109,0,0,,5,,,53,127
47293,note_on,1,0,0,,10,,,57,127
47402,note_off,109,0,0,,10,,,57,127
47403,note_on,1,0,0,,2,,,50,127
47512,note_off,109,0,0,,2,,,50,127
47513,note_on,1,0,0,,10,,,57,127
47622,note_off,109,0,0,,10,,,57,127
47622,note_off,0,0,0,,10,,,81,127
47622,note_off,0,0,0,,10,,,69,127
47623,note_on,1,0,0,,10,,,69,127
47623,note_on,0,0,0,,10,,,81,127
47623,note_on,0,0,0,,0,,,48,127
47732,note_off,109,0,0,,0,,,48,127
47733,note_on,1,0,0,,10,,,57,127
47842,note_off,109,0,0,,10,,,57,127
47843,note_on,1,0,0,,10,,,45,127
47952,note_off,109,0,0,,10,,,45,127
47953,note_on,1,0,0,,10,,,57,127
48062,note_off,109,0,0,,10,,,57,127
48063,note_on,1,0,0,,0,,,48,127
48172,note_off,109,0,0,,0,,,48,127
48173,note_on,1,0,0,,10,,,57,127
48282,note_off,109,0,0,,10,,,57,127
48282,note_off,0,0,0,,10,,,81,127
48282,note_off,0,0,0,,10,,,69,127
48283,note_on,1,0,0,,10,,,69,127
48283,note_on,0,0,0,,10,,,81,127
48283,note_on,0,0,0,,2,,,50,127
48392,note_off,109,0,0,,10,,,81,127
48393,note_on,1,0,0,,5,,,77,127
48502,note_off,109,0,0,,5,,,77,127
48502,note_off,0,0,0,,2,,,50,127
48502,note_off,0,0,0,,10,,,69,127
48503,note_on,1,0,0,,4,,,76,127
48503,note_on,0,0,0,,4,,,52,127
48612,note_off,109,0,0,,4,,,76,127
48613,note_on,1,0,0,,2,,,74,127
48722,note_off,109,0,0,,2,,,74,127
48723,note_on,1,0,0,,0,,,72,127
48723,note_on,0,0,0,,4,,,40,127
48832,note_off,109,0,0,,0,,,72,127
48833,note_on,1,0,0,,12,,,71,127
48942,note_off,109,0,0,,12,,,71,127
48942,note_off,0,0,0,,4,,,40,127
48942,note_off,0,0,0,,4,,,52,127
48943,note_on,1,0,0,,10,,,69,127
48943,note_on,0,0,0,,10,,,81,127
48943,note_on,0,0,0,,10,,,45,127
49052,note_off,109,0,0,,10,,,45,127
49055,note_on,3,0,0,,10,,,57,127
49164,note_off,109,0,0,,10,,,57,127
49167,note_on,3,0,0,,0,,,48,127
49276,note_off,109,0,0,,0,,,48,127
49279,note_on,3,0,0,,10,,,57,127
49388,note_off,109,0,0,,10,,,57,127
49391,note_on,3,0,0,,10,,,45,127
49500,note_off,109,0,0,,10,,,45,127
49503,note_on,3,0,0,,10,,,57,127
49606,note_off,103,0,0,,10,,,81,127
49606,note_off,0,0,0,,10,,,69,127
49612,note_off,6,0,0,,10,,,57,127
49615,note_on,3,0,0,,10,,,69,127
49615,note_on,0,0,0,,10,,,81,127
49615,note_on,0,0,0,,2,,,50,127
49724,note_off,109,0,0,,2,,,50,127
49727,note_on,3,0,0,,10,,,57,127
49836,note_off,109,0,0,,10,,,57,127
49838,note_on,2,0,0,,5,,,53,127
49947,note_off,109,0,0,,5,,,53,127
49950,note_on,3,0,0,,10,,,57,127
50059,note_off,109,0,0,,10,,,57,127
50062,note_on,3,0,0,,2,,,50,127
50171,note_off,109,0,0,,2,,,50,127
50174,note_on,3,0,0,,10,,,57,127
50278,note_off,104,0,0,,10,,,81,127
50278,note_off,0,0,0,,10,,,69,127
50283,note_off,5,0,0,,10,,,57,127
50286,note_on,3,0,0,,10,,,81,127
50286,note_on,0,0,0,,10,,,69,127
50286,note_on,0,0,0,,0,,,48,127
50395,note_off,109,0,0,,0,,,48,127
50398,note_on,3,0,0,,10,,,57,127
50507,note_off,109,0,0,,10,,,57,127
50510,note_on,3,0,0,,10,,,45,127
50619,note_off,109,0,0,,10,,,45,127
50622,note_on,3,0,0,,10,,,57,127
50731,note_off,109,0,0,,10,,,57,127
50733,note_on,2,0,0,,0,,,48,127
50842,note_off,109,0,0,,0,,,48,127
50845,note_on,3,0,0,,10,,,57,127
50949,note_off,104,0,0,,10,,,69,127
50949,note_off,0,0,0,,10,,,81,127
50954,note_off,5,0,0,,10,,,57,127
50957,note_on,3,0,0,,10,,,81,127
50957,note_on,0,0,0,,10,,,69,127
50957,note_on,0,0,0,,2,,,50,127
51066,note_off,109,0,0,,10,,,81,127
51072,note_on,6,0,0,,5,,,77,127
51177,note_off,105,0,0,,2,,,50,127
51177,note_off,0,0,0,,10,,,69,127
51180,note_off,3,0,0,,5,,,77,127
51190,note_on,10,0,0,,4,,,76,127
51190,note_on,0,0,0,,4,,,52,127
51299,note_off,109,0,0,,4,,,76,127
51309,note_on,10,0,0,,2,,,74,127
51418,note_off,109,0,0,,2,,,74,127
51428,note_on,10,0,0,,0,,,72,127
51428,note_on,0,0,0,,4,,,40,127
51537,note_off,109,0,0,,0,,,72,127
51547,note_on,10,0,0,,12,,,71,127
51632,note_off,85,0,0,,4,,,52,127
51648,note_off,16,0,0,,4,,,40,127
51656,note_off,8,0,0,,12,,,71,127
51673,note_on,17,0,0,,10,,,45,127
51673,note_on,0,0,0,,10,,,69,127
53444,note_off,1771,0,0,,10,,,69,127
53444,note_off,0,0,0,,10,,,45,127
56832,end_of_track,3388,1,0,,,,,,
