tick,type,time,meta,track,program,channel,pitch,tempo,note,velocity
0,copyright,0,1,0,,,,,,
0,program_change,0,0,0,6,0,,,,
0,pitchwheel,0,0,0,,0,0,,,
0,program_change,0,0,0,6,1,,,,
0,pitchwheel,0,0,0,,1,-590,,,
0,program_change,0,0,0,6,2,,,,
0,pitchwheel,0,0,0,,2,-272,,,
0,program_change,0,0,0,6,3,,,,
0,pitchwheel,0,0,0,,3,-353,,,
0,program_change,0,0,0,6,4,,,,
0,pitchwheel,0,0,0,,4,-560,,,
0,program_change,0,0,0,6,5,,,,
0,pitchwheel,0,0,0,,5,-80,,,
0,program_change,0,0,0,6,6,,,,
0,pitchwheel,0,0,0,,6,-625,,,
0,program_change,0,0,0,6,7,,,,
0,pitchwheel,0,0,0,,7,-130,,,
0,program_change,0,0,0,6,8,,,,
0,pitchwheel,0,0,0,,8,-512,,,
0,program_change,0,0,0,6,10,,,,
0,pitchwheel,0,0,0,,10,-464,,,
0,program_change,0,0,0,6,11,,,,
0,pitchwheel,0,0,0,,11,-208,,,
0,program_change,0,0,0,6,12,,,,
0,pitchwheel,0,0,0,,12,-553,,,
0,set_tempo,0,1,0,,,,500000,,
154,note_on,154,0,0,,2,,,74,127
154,note_on,0,0,0,,1,,,73,127
154,note_on,0,0,0,,10,,,57,127
306,note_off,152,0,0,,1,,,73,127
306,note_off,0,0,0,,2,,,74,127
308,note_on,2,0,0,,12,,,71,127
460,note_off,152,0,0,,12,,,71,127
462,note_on,2,0,0,,1,,,73,127
614,note_off,152,0,0,,1,,,73,127
616,note_on,2,0,0,,2,,,74,127
768,note_off,152,0,0,,2,,,74,127
770,note_on,2,0,0,,4,,,76,127
922,note_off,152,0,0,,4,,,76,127
924,note_on,2,0,0,,1,,,73,127
1036,note_off,112,0,0,,10,,,57,127
1076,note_off,40,0,0,,1,,,73,127
1078,note_on,2,0,0,,10,,,69,127
1078,note_on,0,0,0,,1,,,61,127
1230,note_off,152,0,0,,10,,,69,127
1232,note_on,2,0,0,,4,,,64,127
1384,note_off,152,0,0,,4,,,64,127
1384,note_off,0,0,0,,1,,,61,127
1386,note_on,2,0,0,,6,,,66,127
1386,note_on,0,0,0,,2,,,62,127
1540,note_on,154,0,0,,2,,,74,127
1690,note_off,150,0,0,,6,,,66,127
1692,note_off,2,0,0,,2,,,62,127
1694,note_on,2,0,0,,8,,,68,127
1694,note_on,0,0,0,,4,,,64,127
1844,note_off,150,0,0,,2,,,74,127
1847,note_on,3,0,0,,4,,,76,127
1997,note_off,150,0,0,,8,,,68,127
1999,note_off,2,0,0,,4,,,64,127
2001,note_on,2,0,0,,10,,,69,127
2001,note_on,0,0,0,,6,,,66,127
2151,note_off,150,0,0,,4,,,76,127
2154,note_on,3,0,0,,12,,,83,127
2304,note_off,150,0,0,,10,,,69,127
2306,note_off,2,0,0,,6,,,66,127
2308,note_on,2,0,0,,8,,,68,127
2462,note_on,154,0,0,,2,,,74,127
2539,note_off,77,0,0,,12,,,83,127
2598,note_off,59,0,0,,2,,,74,127
2614,note_off,16,0,0,,8,,,68,127
2616,note_on,2,0,0,,1,,,73,127
2616,note_on,0,0,0,,2,,,74,127
2616,note_on,0,0,0,,10,,,69,127
2768,note_off,152,0,0,,2,,,74,127
2768,note_off,0,0,0,,1,,,73,127
2770,note_on,2,0,0,,12,,,71,127
2922,note_off,152,0,0,,12,,,71,127
2924,note_on,2,0,0,,1,,,73,127
3076,note_off,152,0,0,,1,,,73,127
3078,note_on,2,0,0,,2,,,74,127
3230,note_off,152,0,0,,2,,,74,127
3232,note_on,2,0,0,,4,,,76,127
3384,note_off,152,0,0,,4,,,76,127
3386,note_on,2,0,0,,1,,,73,127
3498,note_off,112,0,0,,10,,,69,127
3538,note_off,40,0,0,,1,,,73,127
3540,note_on,2,0,0,,10,,,69,127
3540,note_on,0,0,0,,1,,,61,127
3694,note_on,154,0,0,,4,,,64,127
3844,note_off,150,0,0,,10,,,69,127
3846,note_off,2,0,0,,4,,,64,127
3846,note_off,0,0,0,,1,,,61,127
3848,note_on,2,0,0,,6,,,66,127
3848,note_on,0,0,0,,2,,,62,127
4000,note_off,152,0,0,,6,,,66,127
4002,note_on,2,0,0,,2,,,74,127
4154,note_off,152,0,0,,2,,,62,127
4156,note_on,2,0,0,,8,,,68,127
4156,note_on,0,0,0,,4,,,64,127
4306,note_off,150,0,0,,2,,,74,127
4308,note_off,2,0,0,,8,,,68,127
4310,note_on,2,0,0,,4,,,76,127
4462,note_off,152,0,0,,4,,,64,127
4464,note_on,2,0,0,,10,,,69,127
4464,note_on,0,0,0,,6,,,66,127
4614,note_off,150,0,0,,4,,,76,127
4616,note_off,2,0,0,,10,,,69,127
4618,note_on,2,0,0,,12,,,83,127
4770,note_off,152,0,0,,6,,,66,127
4772,note_on,2,0,0,,8,,,68,127
4924,note_off,152,0,0,,12,,,83,127
4926,note_on,2,0,0,,2,,,74,127
5078,note_off,152,0,0,,2,,,74,127
5078,note_off,0,0,0,,8,,,68,127
5080,note_on,2,0,0,,2,,,74,127
5080,note_on,0,0,0,,10,,,57,127
5232,note_off,152,0,0,,10,,,57,127
5232,note_off,0,0,0,,2,,,74,127
5234,note_on,2,0,0,,1,,,73,127
5234,note_on,0,0,0,,10,,,69,127
5386,note_off,152,0,0,,10,,,69,127
5386,note_off,0,0,0,,1,,,73,127
5388,note_on,2,0,0,,12,,,71,127
5388,note_on,0,0,0,,8,,,68,127
5540,note_off,152,0,0,,8,,,68,127
5540,note_off,0,0,0,,12,,,71,127
5542,note_on,2,0,0,,10,,,69,127
5542,note_on,0,0,0,,6,,,66,127
5694,note_off,152,0,0,,6,,,66,127
5694,note_off,0,0,0,,10,,,69,127
5696,note_on,2,0,0,,12,,,71,127
5696,note_on,0,0,0,,8,,,68,127
6002,note_off,306,0,0,,8,,,68,127
6004,note_on,2,0,0,,12,,,83,127
6004,note_on,0,0,0,,4,,,64,127
6081,note_off,77,0,0,,12,,,71,127
6156,note_off,75,0,0,,12,,,83,127
6158,note_on,2,0,0,,2,,,74,127
6310,note_off,152,0,0,,2,,,74,127
6310,note_off,0,0,0,,4,,,64,127
6312,note_on,2,0,0,,2,,,74,127
6312,note_on,0,0,0,,10,,,57,127
6464,note_off,152,0,0,,10,,,57,127
6464,note_off,0,0,0,,2,,,74,127
6466,note_on,2,0,0,,1,,,73,127
6466,note_on,0,0,0,,10,,,69,127
6618,note_off,152,0,0,,10,,,69,127
6618,note_off,0,0,0,,1,,,73,127
6620,note_on,2,0,0,,12,,,71,127
6620,note_on,0,0,0,,8,,,68,127
6772,note_off,152,0,0,,8,,,68,127
6772,note_off,0,0,0,,12,,,71,127
6774,note_on,2,0,0,,10,,,69,127
6774,note_on,0,0,0,,6,,,66,127
6926,note_off,152,0,0,,6,,,66,127
6926,note_off,0,0,0,,10,,,69,127
6928,note_on,2,0,0,,12,,,71,127
6928,note_on,0,0,0,,8,,,68,127
7234,note_off,306,0,0,,8,,,68,127
7236,note_on,2,0,0,,12,,,83,127
7236,note_on,0,0,0,,4,,,64,127
7388,note_off,152,0,0,,12,,,83,127
7390,note_on,2,0,0,,2,,,74,127
7408,note_off,18,0,0,,12,,,71,127
7542,note_off,134,0,0,,2,,,74,127
7542,note_off,0,0,0,,4,,,64,127
7544,note_on,2,0,0,,10,,,81,127
7544,note_on,0,0,0,,1,,,73,127
7544,note_on,0,0,0,,10,,,57,127
7696,note_off,152,0,0,,1,,,73,127
7698,note_on,2,0,0,,2,,,74,127
7850,note_off,152,0,0,,2,,,74,127
7850,note_off,0,0,0,,10,,,57,127
7852,note_on,2,0,0,,4,,,76,127
7852,note_on,0,0,0,,1,,,61,127
8002,note_off,150,0,0,,10,,,81,127
8005,note_on,3,0,0,,8,,,80,127
8155,note_off,150,0,0,,4,,,76,127
8157,note_off,2,0,0,,8,,,80,127
8157,note_off,0,0,0,,1,,,61,127
8159,note_on,2,0,0,,6,,,66,127
8159,note_on,0,0,0,,6,,,78,127
8159,note_on,0,0,0,,2,,,62,127
8311,note_off,152,0,0,,6,,,66,127
8313,note_on,2,0,0,,8,,,68,127
8465,note_off,152,0,0,,8,,,68,127
8465,note_off,0,0,0,,2,,,62,127
8467,note_on,2,0,0,,10,,,69,127
8467,note_on,0,0,0,,1,,,61,127
8617,note_off,150,0,0,,6,,,78,127
8620,note_on,3,0,0,,4,,,76,127
8770,note_off,150,0,0,,10,,,69,127
8772,note_off,2,0,0,,4,,,76,127
8772,note_off,0,0,0,,1,,,61,127
8774,note_on,2,0,0,,2,,,74,127
8774,note_on,0,0,0,,2,,,62,127
8774,note_on,0,0,0,,12,,,59,127
8926,note_off,152,0,0,,2,,,62,127
8928,note_on,2,0,0,,4,,,64,127
9080,note_off,152,0,0,,4,,,64,127
9080,note_off,0,0,0,,12,,,59,127
9082,note_on,2,0,0,,6,,,66,127
9082,note_on,0,0,0,,10,,,57,127
9232,note_off,150,0,0,,2,,,74,127
9235,note_on,3,0,0,,1,,,73,127
9385,note_off,150,0,0,,6,,,66,127
9387,note_off,2,0,0,,1,,,73,127
9387,note_off,0,0,0,,10,,,57,127
9389,note_on,2,0,0,,12,,,59,127
9389,note_on,0,0,0,,12,,,71,127
9389,note_on,0,0,0,,8,,,56,127
9541,note_off,152,0,0,,12,,,59,127
9543,note_on,2,0,0,,1,,,61,127
9695,note_off,152,0,0,,1,,,61,127
9695,note_off,0,0,0,,8,,,56,127
9697,note_on,2,0,0,,2,,,62,127
9697,note_on,0,0,0,,6,,,54,127
9847,note_off,150,0,0,,12,,,71,127
9850,note_on,3,0,0,,10,,,69,127
10000,note_off,150,0,0,,2,,,62,127
10002,note_off,2,0,0,,10,,,69,127
10002,note_off,0,0,0,,6,,,54,127
10004,note_on,2,0,0,,8,,,68,127
10004,note_on,0,0,0,,4,,,52,127
10156,note_off,152,0,0,,4,,,52,127
10156,note_off,0,0,0,,8,,,68,127
10158,note_on,2,0,0,,10,,,69,127
10158,note_on,0,0,0,,4,,,64,127
10310,note_off,152,0,0,,4,,,64,127
10310,note_off,0,0,0,,10,,,69,127
10312,note_on,2,0,0,,12,,,71,127
10312,note_on,0,0,0,,2,,,62,127
10464,note_off,152,0,0,,2,,,62,127
10466,note_on,2,0,0,,12,,,59,127
10618,note_off,152,0,0,,12,,,59,127
10620,note_on,2,0,0,,4,,,64,127
10620,note_on,0,0,0,,1,,,61,127
10665,note_off,45,0,0,,12,,,71,127
10774,note_on,109,0,0,,4,,,76,127
10924,note_off,150,0,0,,4,,,64,127
10926,note_off,2,0,0,,4,,,76,127
10926,note_off,0,0,0,,1,,,61,127
10928,note_on,2,0,0,,2,,,74,127
10928,note_on,0,0,0,,12,,,59,127
11080,note_off,152,0,0,,2,,,74,127
11082,note_on,2,0,0,,12,,,71,127
11234,note_off,152,0,0,,12,,,71,127
11234,note_off,0,0,0,,12,,,59,127
11236,note_on,2,0,0,,1,,,73,127
11236,note_on,0,0,0,,10,,,57,127
11388,note_off,152,0,0,,10,,,57,127
11390,note_on,2,0,0,,10,,,69,127
11542,note_off,152,0,0,,10,,,69,127
11542,note_off,0,0,0,,1,,,73,127
11544,note_on,2,0,0,,12,,,71,127
11544,note_on,0,0,0,,8,,,68,127
11696,note_off,152,0,0,,8,,,68,127
11698,note_on,2,0,0,,4,,,64,127
11850,note_off,152,0,0,,4,,,64,127
11850,note_off,0,0,0,,12,,,71,127
11852,note_on,2,0,0,,10,,,69,127
11852,note_on,0,0,0,,6,,,66,127
12006,note_on,154,0,0,,10,,,81,127
12156,note_off,150,0,0,,10,,,69,127
12158,note_off,2,0,0,,10,,,81,127
12158,note_off,0,0,0,,6,,,66,127
12160,note_on,2,0,0,,8,,,80,127
12160,note_on,0,0,0,,4,,,64,127
12312,note_off,152,0,0,,8,,,80,127
12314,note_on,2,0,0,,4,,,76,127
12466,note_off,152,0,0,,4,,,76,127
12466,note_off,0,0,0,,4,,,64,127
12468,note_on,2,0,0,,6,,,78,127
12468,note_on,0,0,0,,2,,,62,127
12622,note_on,154,0,0,,12,,,71,127
12774,note_off,152,0,0,,12,,,71,127
12774,note_off,0,0,0,,2,,,62,127
12776,note_on,2,0,0,,10,,,69,127
12776,note_on,0,0,0,,3,,,63,127
12928,note_off,152,0,0,,10,,,69,127
12930,note_on,2,0,0,,6,,,66,127
13077,note_off,147,0,0,,6,,,78,127
13082,note_off,5,0,0,,6,,,66,127
13082,note_off,0,0,0,,3,,,63,127
13084,note_on,2,0,0,,8,,,68,127
13084,note_on,0,0,0,,4,,,64,127
13238,note_on,154,0,0,,4,,,76,127
13388,note_off,150,0,0,,8,,,68,127
13390,note_off,2,0,0,,4,,,76,127
13390,note_off,0,0,0,,4,,,64,127
13392,note_on,2,0,0,,3,,,75,127
13392,note_on,0,0,0,,11,,,70,127
13392,note_on,0,0,0,,1,,,61,127
13544,note_off,152,0,0,,3,,,75,127
13546,note_on,2,0,0,,1,,,73,127
13696,note_off,150,0,0,,11,,,70,127
13698,note_off,2,0,0,,1,,,73,127
13698,note_off,0,0,0,,1,,,61,127
13700,note_on,2,0,0,,3,,,75,127
13700,note_on,0,0,0,,12,,,59,127
13852,note_off,152,0,0,,3,,,75,127
13854,note_on,2,0,0,,6,,,78,127
13854,note_on,0,0,0,,12,,,71,127
14006,note_off,152,0,0,,12,,,71,127
14006,note_off,0,0,0,,12,,,59,127
14008,note_on,2,0,0,,10,,,69,127
14008,note_on,0,0,0,,3,,,63,127
14160,note_off,152,0,0,,10,,,69,127
14162,note_on,2,0,0,,6,,,66,127
14314,note_off,152,0,0,,6,,,66,127
14314,note_off,0,0,0,,3,,,63,127
14316,note_on,2,0,0,,8,,,68,127
14316,note_on,0,0,0,,4,,,64,127
14431,note_off,115,0,0,,6,,,78,127
14469,note_on,38,0,0,,4,,,76,127
14619,note_off,150,0,0,,8,,,68,127
14621,note_off,2,0,0,,4,,,76,127
14621,note_off,0,0,0,,4,,,64,127
14623,note_on,2,0,0,,11,,,70,127
14623,note_on,0,0,0,,3,,,75,127
14623,note_on,0,0,0,,1,,,61,127
14775,note_off,152,0,0,,3,,,75,127
14777,note_on,2,0,0,,1,,,73,127
14927,note_off,150,0,0,,11,,,70,127
14929,note_off,2,0,0,,1,,,73,127
14929,note_off,0,0,0,,1,,,61,127
14931,note_on,2,0,0,,12,,,71,127
14931,note_on,0,0,0,,3,,,75,127
14931,note_on,0,0,0,,12,,,59,127
15083,note_off,152,0,0,,3,,,75,127
15085,note_on,2,0,0,,12,,,83,127
15237,note_off,152,0,0,,12,,,83,127
15237,note_off,0,0,0,,12,,,59,127
15239,note_on,2,0,0,,10,,,81,127
15239,note_on,0,0,0,,3,,,63,127
15391,note_off,152,0,0,,10,,,81,127
15393,note_on,2,0,0,,6,,,78,127
15545,note_off,152,0,0,,6,,,78,127
15545,note_off,0,0,0,,3,,,63,127
15547,note_on,2,0,0,,8,,,80,127
15547,note_on,0,0,0,,4,,,64,127
15697,note_off,150,0,0,,12,,,71,127
15700,note_on,3,0,0,,4,,,76,127
15850,note_off,150,0,0,,8,,,80,127
15852,note_off,2,0,0,,4,,,76,127
15852,note_off,0,0,0,,4,,,64,127
15854,note_on,2,0,0,,3,,,75,127
15854,note_on,0,0,0,,11,,,82,127
15854,note_on,0,0,0,,1,,,61,127
16006,note_off,152,0,0,,3,,,75,127
16008,note_on,2,0,0,,1,,,73,127
16126,note_off,118,0,0,,11,,,82,127
16160,note_off,34,0,0,,1,,,73,127
16160,note_off,0,0,0,,1,,,61,127
16162,note_on,2,0,0,,12,,,83,127
16162,note_on,0,0,0,,3,,,75,127
16162,note_on,0,0,0,,12,,,59,127
16314,note_off,152,0,0,,12,,,83,127
16316,note_on,2,0,0,,12,,,83,127
16466,note_off,150,0,0,,3,,,75,127
16468,note_off,2,0,0,,12,,,83,127
16468,note_off,0,0,0,,12,,,59,127
16470,note_on,2,0,0,,12,,,71,127
16470,note_on,0,0,0,,10,,,81,127
16470,note_on,0,0,0,,3,,,63,127
16622,note_off,152,0,0,,10,,,81,127
16624,note_on,2,0,0,,6,,,78,127
16776,note_off,152,0,0,,6,,,78,127
16776,note_off,0,0,0,,3,,,63,127
16778,note_on,2,0,0,,8,,,80,127
16778,note_on,0,0,0,,4,,,64,127
16928,note_off,150,0,0,,12,,,71,127
16931,note_on,3,0,0,,4,,,76,127
17081,note_off,150,0,0,,8,,,80,127
17083,note_off,2,0,0,,4,,,76,127
17083,note_off,0,0,0,,4,,,64,127
17085,note_on,2,0,0,,3,,,75,127
17085,note_on,0,0,0,,11,,,82,127
17085,note_on,0,0,0,,1,,,61,127
17237,note_off,152,0,0,,3,,,75,127
17239,note_on,2,0,0,,1,,,73,127
17373,note_off,134,0,0,,11,,,82,127
17391,note_off,18,0,0,,1,,,73,127
17391,note_off,0,0,0,,1,,,61,127
17393,note_on,2,0,0,,12,,,83,127
17393,note_on,0,0,0,,3,,,75,127
17393,note_on,0,0,0,,12,,,59,127
17545,note_off,152,0,0,,12,,,59,127
17545,note_off,0,0,0,,3,,,75,127
17547,note_on,2,0,0,,4,,,76,127
17547,note_on,0,0,0,,12,,,71,127
17699,note_off,152,0,0,,12,,,71,127
17699,note_off,0,0,0,,4,,,76,127
17701,note_on,2,0,0,,6,,,78,127
17701,note_on,0,0,0,,10,,,69,127
17853,note_off,152,0,0,,10,,,69,127
17855,note_on,2,0,0,,6,,,66,127
18007,note_off,152,0,0,,6,,,66,127
18007,note_off,0,0,0,,6,,,78,127
18009,note_on,2,0,0,,12,,,71,127
18009,note_on,0,0,0,,8,,,56,127
18159,note_off,150,0,0,,12,,,83,127
18161,note_off,2,0,0,,8,,,56,127
18163,note_on,2,0,0,,12,,,83,127
18163,note_on,0,0,0,,8,,,68,127
18315,note_off,152,0,0,,8,,,68,127
18315,note_off,0,0,0,,12,,,83,127
18317,note_on,2,0,0,,10,,,81,127
18317,note_on,0,0,0,,6,,,66,127
18469,note_off,152,0,0,,6,,,66,127
18469,note_off,0,0,0,,10,,,81,127
18471,note_on,2,0,0,,6,,,78,127
18471,note_on,0,0,0,,3,,,63,127
18618,note_off,147,0,0,,12,,,71,127
18623,note_off,5,0,0,,3,,,63,127
18623,note_off,0,0,0,,6,,,78,127
18625,note_on,2,0,0,,8,,,80,127
18625,note_on,0,0,0,,12,,,71,127
18625,note_on,0,0,0,,4,,,52,127
18777,note_off,152,0,0,,4,,,52,127
18779,note_on,2,0,0,,4,,,64,127
18931,note_off,152,0,0,,4,,,64,127
18931,note_off,0,0,0,,8,,,80,127
18933,note_on,2,0,0,,6,,,78,127
18933,note_on,0,0,0,,3,,,63,127
19085,note_off,152,0,0,,3,,,63,127
19085,note_off,0,0,0,,6,,,78,127
19087,note_on,2,0,0,,3,,,75,127
19087,note_on,0,0,0,,12,,,59,127
19234,note_off,147,0,0,,12,,,71,127
19239,note_off,5,0,0,,12,,,59,127
19239,note_off,0,0,0,,3,,,75,127
19241,note_on,2,0,0,,4,,,76,127
19241,note_on,0,0,0,,1,,,49,127
19393,note_off,152,0,0,,1,,,49,127
19395,note_on,2,0,0,,1,,,61,127
19547,note_off,152,0,0,,1,,,61,127
19547,note_off,0,0,0,,4,,,76,127
19549,note_on,2,0,0,,3,,,75,127
19549,note_on,0,0,0,,12,,,59,127
19701,note_off,152,0,0,,12,,,59,127
19701,note_off,0,0,0,,3,,,75,127
19703,note_on,2,0,0,,12,,,71,127
19703,note_on,0,0,0,,8,,,56,127
19855,note_off,152,0,0,,8,,,56,127
19855,note_off,0,0,0,,12,,,71,127
19857,note_on,2,0,0,,1,,,73,127
19857,note_on,0,0,0,,10,,,45,127
20009,note_off,152,0,0,,1,,,73,127
20011,note_on,2,0,0,,3,,,75,127
20163,note_off,152,0,0,,3,,,75,127
20163,note_off,0,0,0,,10,,,45,127
20165,note_on,2,0,0,,4,,,76,127
20165,note_on,0,0,0,,10,,,57,127
20317,note_off,152,0,0,,4,,,76,127
20319,note_on,2,0,0,,10,,,69,127
20471,note_off,152,0,0,,10,,,69,127
20471,note_off,0,0,0,,10,,,57,127
20473,note_on,2,0,0,,8,,,68,127
20473,note_on,0,0,0,,12,,,59,127
20625,note_off,152,0,0,,8,,,68,127
20627,note_on,2,0,0,,6,,,66,127
20779,note_off,152,0,0,,6,,,66,127
20781,note_on,2,0,0,,4,,,64,127
20781,note_on,0,0,0,,12,,,47,127
20933,note_off,152,0,0,,4,,,64,127
20935,note_on,2,0,0,,3,,,63,127
21082,note_off,147,0,0,,12,,,59,127
21087,note_off,5,0,0,,3,,,63,127
21087,note_off,0,0,0,,12,,,47,127
21098,note_on,11,0,0,,4,,,52,127
21098,note_on,0,0,0,,4,,,64,127
21268,note_on,170,0,0,,4,,,76,127
21386,note_off,118,0,0,,4,,,64,127
21404,note_off,18,0,0,,4,,,52,127
21420,note_off,16,0,0,,4,,,76,127
21422,note_on,2,0,0,,4,,,64,127
21422,note_on,0,0,0,,12,,,83,127
21422,note_on,0,0,0,,2,,,74,127
21574,note_off,152,0,0,,2,,,74,127
21576,note_on,2,0,0,,12,,,71,127
21728,note_off,152,0,0,,12,,,71,127
21730,note_on,2,0,0,,0,,,72,127
21880,note_off,150,0,0,,12,,,83,127
21883,note_on,3,0,0,,10,,,81,127
22035,note_off,152,0,0,,10,,,81,127
22035,note_off,0,0,0,,4,,,64,127
22037,note_on,2,0,0,,6,,,66,127
22037,note_on,0,0,0,,7,,,79,127
22189,note_off,152,0,0,,7,,,79,127
22191,note_on,2,0,0,,6,,,78,127
22338,note_off,147,0,0,,0,,,72,127
22343,note_off,5,0,0,,6,,,78,127
22343,note_off,0,0,0,,6,,,66,127
22345,note_on,2,0,0,,7,,,67,127
22345,note_on,0,0,0,,4,,,76,127
22345,note_on,0,0,0,,12,,,71,127
22497,note_off,152,0,0,,12,,,71,127
22497,note_off,0,0,0,,4,,,76,127
22499,note_on,2,0,0,,4,,,76,127
22651,note_off,152,0,0,,4,,,76,127
22651,note_off,0,0,0,,7,,,67,127
22653,note_on,2,0,0,,4,,,64,127
22653,note_on,0,0,0,,12,,,83,127
22653,note_on,0,0,0,,2,,,74,127
22805,note_off,152,0,0,,2,,,74,127
22807,note_on,2,0,0,,12,,,71,127
22959,note_off,152,0,0,,12,,,71,127
22961,note_on,2,0,0,,0,,,72,127
23111,note_off,150,0,0,,12,,,83,127
23114,note_on,3,0,0,,10,,,81,127
23266,note_off,152,0,0,,10,,,81,127
23266,note_off,0,0,0,,4,,,64,127
23268,note_on,2,0,0,,6,,,66,127
23268,note_on,0,0,0,,7,,,79,127
23420,note_off,152,0,0,,7,,,79,127
23422,note_on,2,0,0,,6,,,78,127
23569,note_off,147,0,0,,0,,,72,127
23574,note_off,5,0,0,,6,,,78,127
23574,note_off,0,0,0,,6,,,66,127
23576,note_on,2,0,0,,7,,,67,127
23576,note_on,0,0,0,,4,,,76,127
23576,note_on,0,0,0,,12,,,71,127
23728,note_off,152,0,0,,4,,,76,127
23730,note_on,2,0,0,,2,,,74,127
23880,note_off,150,0,0,,12,,,71,127
23882,note_off,2,0,0,,2,,,74,127
23882,note_off,0,0,0,,7,,,67,127
23884,note_on,2,0,0,,4,,,64,127
23884,note_on,0,0,0,,0,,,72,127
24036,note_off,152,0,0,,0,,,72,127
24038,note_on,2,0,0,,12,,,71,127
24190,note_off,152,0,0,,12,,,71,127
24190,note_off,0,0,0,,4,,,64,127
24192,note_on,2,0,0,,0,,,60,127
24192,note_on,0,0,0,,10,,,69,127
24344,note_off,152,0,0,,10,,,69,127
24346,note_on,2,0,0,,7,,,67,127
24498,note_off,152,0,0,,7,,,67,127
24500,note_on,2,0,0,,6,,,66,127
24652,note_off,152,0,0,,6,,,66,127
24654,note_on,2,0,0,,4,,,64,127
24806,note_off,152,0,0,,4,,,64,127
24806,note_off,0,0,0,,0,,,60,127
24808,note_on,2,0,0,,12,,,59,127
24808,note_on,0,0,0,,12,,,71,127
24962,note_on,154,0,0,,7,,,67,127
25114,note_off,152,0,0,,7,,,67,127
25116,note_on,2,0,0,,6,,,66,127
25268,note_off,152,0,0,,6,,,66,127
25270,note_on,2,0,0,,7,,,67,127
25422,note_off,152,0,0,,7,,,67,127
25424,note_on,2,0,0,,10,,,69,127
25562,note_off,138,0,0,,12,,,71,127
25575,note_off,13,0,0,,12,,,59,127
25591,note_on,16,0,0,,0,,,60,127
25591,note_on,0,0,0,,4,,,76,127
25743,note_off,152,0,0,,4,,,76,127
25743,note_off,0,0,0,,0,,,60,127
25745,note_on,2,0,0,,12,,,59,127
25745,note_on,0,0,0,,3,,,75,127
25897,note_off,152,0,0,,3,,,75,127
25897,note_off,0,0,0,,12,,,59,127
25899,note_on,2,0,0,,10,,,57,127
25899,note_on,0,0,0,,4,,,76,127
26051,note_off,152,0,0,,4,,,76,127
26051,note_off,0,0,0,,10,,,57,127
26053,note_on,2,0,0,,12,,,59,127
26053,note_on,0,0,0,,12,,,71,127
26053,note_on,0,0,0,,12,,,83,127
26178,note_off,125,0,0,,10,,,69,127
26207,note_on,29,0,0,,7,,,67,127
26359,note_off,152,0,0,,7,,,67,127
26361,note_on,2,0,0,,6,,,66,127
26513,note_off,152,0,0,,6,,,66,127
26515,note_on,2,0,0,,7,,,67,127
26667,note_off,152,0,0,,7,,,67,127
26669,note_on,2,0,0,,10,,,69,127
26791,note_off,122,0,0,,12,,,71,127
26820,note_off,29,0,0,,12,,,59,127
26822,note_off,2,0,0,,12,,,83,127
26824,note_on,2,0,0,,0,,,60,127
26824,note_on,0,0,0,,4,,,76,127
26976,note_off,152,0,0,,4,,,76,127
26976,note_off,0,0,0,,0,,,60,127
26978,note_on,2,0,0,,12,,,59,127
26978,note_on,0,0,0,,3,,,75,127
27130,note_off,152,0,0,,3,,,75,127
27130,note_off,0,0,0,,12,,,59,127
27132,note_on,2,0,0,,10,,,57,127
27132,note_on,0,0,0,,4,,,76,127
27284,note_off,152,0,0,,4,,,76,127
27284,note_off,0,0,0,,10,,,57,127
27286,note_on,2,0,0,,12,,,59,127
27286,note_on,0,0,0,,12,,,71,127
27286,note_on,0,0,0,,12,,,83,127
27436,note_off,150,0,0,,10,,,69,127
27439,note_on,3,0,0,,7,,,67,127
27591,note_off,152,0,0,,7,,,67,127
27593,note_on,2,0,0,,6,,,66,127
27745,note_off,152,0,0,,6,,,66,127
27747,note_on,2,0,0,,7,,,67,127
27899,note_off,152,0,0,,7,,,67,127
27901,note_on,2,0,0,,10,,,69,127
28051,note_off,150,0,0,,12,,,59,127
28053,note_off,2,0,0,,12,,,83,127
28053,note_off,0,0,0,,12,,,71,127
28055,note_on,2,0,0,,0,,,60,127
28055,note_on,0,0,0,,4,,,76,127
28207,note_off,152,0,0,,4,,,76,127
28207,note_off,0,0,0,,0,,,60,127
28209,note_on,2,0,0,,12,,,59,127
28209,note_on,0,0,0,,3,,,75,127
28361,note_off,152,0,0,,3,,,75,127
28361,note_off,0,0,0,,12,,,59,127
28363,note_on,2,0,0,,10,,,57,127
28363,note_on,0,0,0,,4,,,76,127
28510,note_off,147,0,0,,10,,,69,127
28515,note_off,5,0,0,,4,,,76,127
28515,note_off,0,0,0,,10,,,57,127
28517,note_on,2,0,0,,12,,,59,127
28517,note_on,0,0,0,,12,,,83,127
28669,note_off,152,0,0,,12,,,59,127
28671,note_on,2,0,0,,12,,,71,127
28823,note_off,152,0,0,,12,,,71,127
28825,note_on,2,0,0,,10,,,69,127
28977,note_off,152,0,0,,10,,,69,127
28979,note_on,2,0,0,,6,,,66,127
29131,note_off,152,0,0,,6,,,66,127
29133,note_on,2,0,0,,8,,,68,127
29285,note_off,152,0,0,,12,,,83,127
29287,note_on,2,0,0,,12,,,83,127
29439,note_off,152,0,0,,12,,,83,127
29439,note_off,0,0,0,,8,,,68,127
29441,note_on,2,0,0,,6,,,66,127
29441,note_on,0,0,0,,10,,,81,127
29593,note_off,152,0,0,,10,,,81,127
29595,note_on,2,0,0,,6,,,78,127
29747,note_off,152,0,0,,6,,,78,127
29747,note_off,0,0,0,,6,,,66,127
29749,note_on,2,0,0,,4,,,52,127
29749,note_on,0,0,0,,12,,,71,127
29749,note_on,0,0,0,,8,,,80,127
29901,note_off,152,0,0,,4,,,52,127
29903,note_on,2,0,0,,4,,,64,127
30055,note_off,152,0,0,,4,,,64,127
30055,note_off,0,0,0,,8,,,80,127
30057,note_on,2,0,0,,3,,,63,127
30057,note_on,0,0,0,,6,,,78,127
30209,note_off,152,0,0,,6,,,78,127
30209,note_off,0,0,0,,3,,,63,127
30211,note_on,2,0,0,,12,,,59,127
30211,note_on,0,0,0,,12,,,83,127
30358,note_off,147,0,0,,12,,,71,127
30363,note_off,5,0,0,,12,,,83,127
30363,note_off,0,0,0,,12,,,59,127
30365,note_on,2,0,0,,1,,,49,127
30365,note_on,0,0,0,,4,,,76,127
30517,note_off,152,0,0,,1,,,49,127
30519,note_on,2,0,0,,1,,,61,127
30671,note_off,152,0,0,,1,,,61,127
30671,note_off,0,0,0,,4,,,76,127
30673,note_on,2,0,0,,12,,,59,127
30673,note_on,0,0,0,,3,,,75,127
30825,note_off,152,0,0,,3,,,75,127
30825,note_off,0,0,0,,12,,,59,127
30827,note_on,2,0,0,,8,,,56,127
30827,note_on,0,0,0,,8,,,80,127
30979,note_off,152,0,0,,8,,,80,127
30979,note_off,0,0,0,,8,,,56,127
30981,note_on,2,0,0,,10,,,45,127
30981,note_on,0,0,0,,1,,,73,127
31133,note_off,152,0,0,,10,,,45,127
31135,note_on,2,0,0,,10,,,57,127
31287,note_off,152,0,0,,10,,,57,127
31287,note_off,0,0,0,,1,,,73,127
31289,note_on,2,0,0,,8,,,56,127
31289,note_on,0,0,0,,12,,,71,127
31441,note_off,152,0,0,,12,,,71,127
31441,note_off,0,0,0,,8,,,56,127
31443,note_on,2,0,0,,4,,,52,127
31443,note_on,0,0,0,,4,,,76,127
31595,note_off,152,0,0,,4,,,76,127
31595,note_off,0,0,0,,4,,,52,127
31597,note_on,2,0,0,,6,,,42,127
31597,note_on,0,0,0,,10,,,69,127
31749,note_off,152,0,0,,6,,,42,127
31751,note_on,2,0,0,,6,,,54,127
31903,note_off,152,0,0,,6,,,54,127
31903,note_off,0,0,0,,10,,,69,127
31905,note_on,2,0,0,,4,,,40,127
31905,note_on,0,0,0,,8,,,68,127
32057,note_off,152,0,0,,4,,,40,127
32059,note_on,2,0,0,,4,,,52,127
32211,note_off,152,0,0,,4,,,52,127
32211,note_off,0,0,0,,8,,,68,127
32213,note_on,2,0,0,,12,,,47,127
32213,note_on,0,0,0,,6,,,66,127
32365,note_off,152,0,0,,6,,,66,127
32367,note_on,2,0,0,,6,,,66,127
32519,note_off,152,0,0,,6,,,66,127
32519,note_off,0,0,0,,12,,,47,127
32521,note_on,2,0,0,,12,,,59,127
32521,note_on,0,0,0,,8,,,68,127
32673,note_off,152,0,0,,8,,,68,127
32675,note_on,2,0,0,,10,,,69,127
32827,note_off,152,0,0,,10,,,69,127
32829,note_on,2,0,0,,12,,,71,127
32970,note_off,141,0,0,,12,,,59,127
32983,note_on,13,0,0,,12,,,59,127
33135,note_off,152,0,0,,12,,,59,127
33137,note_on,2,0,0,,10,,,57,127
33137,note_on,0,0,0,,1,,,61,127
33289,note_off,152,0,0,,1,,,61,127
33291,note_on,2,0,0,,3,,,63,127
33443,note_off,152,0,0,,3,,,63,127
33443,note_off,0,0,0,,10,,,57,127
33445,note_on,2,0,0,,8,,,56,127
33445,note_on,0,0,0,,4,,,64,127
33595,note_off,150,0,0,,12,,,71,127
33598,note_on,3,0,0,,1,,,73,127
33750,note_off,152,0,0,,1,,,73,127
33750,note_off,0,0,0,,8,,,56,127
33752,note_on,2,0,0,,10,,,57,127
33752,note_on,0,0,0,,12,,,71,127
33904,note_off,152,0,0,,12,,,71,127
33906,note_on,2,0,0,,10,,,69,127
34053,note_off,147,0,0,,4,,,64,127
34058,note_off,5,0,0,,10,,,69,127
34058,note_off,0,0,0,,10,,,57,127
34060,note_on,2,0,0,,12,,,59,127
34060,note_on,0,0,0,,8,,,68,127
34212,note_off,152,0,0,,8,,,68,127
34214,note_on,2,0,0,,6,,,66,127
34366,note_off,152,0,0,,6,,,66,127
34368,note_on,2,0,0,,12,,,47,127
34368,note_on,0,0,0,,4,,,64,127
34520,note_off,152,0,0,,4,,,64,127
34522,note_on,2,0,0,,3,,,63,127
34658,note_off,136,0,0,,3,,,63,127
34669,note_off,11,0,0,,12,,,59,127
34674,note_off,5,0,0,,12,,,47,127
34688,note_on,14,0,0,,4,,,52,127
34688,note_on,0,0,0,,8,,,80,127
34688,note_on,0,0,0,,12,,,71,127
34840,note_off,152,0,0,,4,,,52,127
34842,note_on,2,0,0,,4,,,64,127
34994,note_off,152,0,0,,4,,,64,127
34994,note_off,0,0,0,,8,,,80,127
34996,note_on,2,0,0,,3,,,63,127
34996,note_on,0,0,0,,6,,,78,127
35148,note_off,152,0,0,,6,,,78,127
35148,note_off,0,0,0,,3,,,63,127
35150,note_on,2,0,0,,12,,,59,127
35150,note_on,0,0,0,,12,,,83,127
35297,note_off,147,0,0,,12,,,71,127
35302,note_off,5,0,0,,12,,,83,127
35302,note_off,0,0,0,,12,,,59,127
35304,note_on,2,0,0,,1,,,49,127
35304,note_on,0,0,0,,4,,,76,127
35456,note_off,152,0,0,,1,,,49,127
35458,note_on,2,0,0,,1,,,61,127
35610,note_off,152,0,0,,1,,,61,127
35610,note_off,0,0,0,,4,,,76,127
35612,note_on,2,0,0,,12,,,59,127
35612,note_on,0,0,0,,3,,,75,127
35764,note_off,152,0,0,,3,,,75,127
35764,note_off,0,0,0,,12,,,59,127
35766,note_on,2,0,0,,8,,,56,127
35766,note_on,0,0,0,,8,,,80,127
35918,note_off,152,0,0,,8,,,80,127
35918,note_off,0,0,0,,8,,,56,127
35920,note_on,2,0,0,,10,,,45,127
35920,note_on,0,0,0,,1,,,73,127
36072,note_off,152,0,0,,10,,,45,127
36074,note_on,2,0,0,,10,,,57,127
36226,note_off,152,0,0,,10,,,57,127
36226,note_off,0,0,0,,1,,,73,127
36228,note_on,2,0,0,,8,,,56,127
36228,note_on,0,0,0,,12,,,71,127
36380,note_off,152,0,0,,12,,,71,127
36380,note_off,0,0,0,,8,,,56,127
36382,note_on,2,0,0,,4,,,52,127
36382,note_on,0,0,0,,4,,,76,127
36534,note_off,152,0,0,,4,,,76,127
36534,note_off,0,0,0,,4,,,52,127
36536,note_on,2,0,0,,6,,,42,127
36536,note_on,0,0,0,,10,,,69,127
36688,note_off,152,0,0,,6,,,42,127
36690,note_on,2,0,0,,6,,,54,127
36842,note_off,152,0,0,,6,,,54,127
36842,note_off,0,0,0,,10,,,69,127
36844,note_on,2,0,0,,4,,,40,127
36844,note_on,0,0,0,,8,,,68,127
36996,note_off,152,0,0,,4,,,40,127
36998,note_on,2,0,0,,4,,,52,127
37150,note_off,152,0,0,,4,,,52,127
37150,note_off,0,0,0,,8,,,68,127
37152,note_on,2,0,0,,12,,,47,127
37152,note_on,0,0,0,,6,,,66,127
37304,note_off,152,0,0,,6,,,66,127
37306,note_on,2,0,0,,6,,,66,127
37458,note_off,152,0,0,,6,,,66,127
37458,note_off,0,0,0,,12,,,47,127
37460,note_on,2,0,0,,12,,,59,127
37460,note_on,0,0,0,,8,,,68,127
37612,note_off,152,0,0,,8,,,68,127
37614,note_on,2,0,0,,10,,,69,127
37766,note_off,152,0,0,,10,,,69,127
37768,note_on,2,0,0,,12,,,71,127
37918,note_off,150,0,0,,12,,,59,127
37921,note_on,3,0,0,,12,,,59,127
38073,note_off,152,0,0,,12,,,59,127
38075,note_on,2,0,0,,10,,,57,127
38075,note_on,0,0,0,,1,,,61,127
38227,note_off,152,0,0,,1,,,61,127
38229,note_on,2,0,0,,3,,,63,127
38381,note_off,152,0,0,,3,,,63,127
38381,note_off,0,0,0,,10,,,57,127
38383,note_on,2,0,0,,8,,,56,127
38383,note_on,0,0,0,,4,,,64,127
38533,note_off,150,0,0,,12,,,71,127
38536,note_on,3,0,0,,1,,,73,127
38688,note_off,152,0,0,,1,,,73,127
38688,note_off,0,0,0,,8,,,56,127
38690,note_on,2,0,0,,10,,,57,127
38690,note_on,0,0,0,,12,,,71,127
38842,note_off,152,0,0,,12,,,71,127
38844,note_on,2,0,0,,10,,,69,127
38991,note_off,147,0,0,,4,,,64,127
38996,note_off,5,0,0,,10,,,69,127
38996,note_off,0,0,0,,10,,,57,127
38998,note_on,2,0,0,,12,,,59,127
38998,note_on,0,0,0,,8,,,68,127
39150,note_off,152,0,0,,8,,,68,127
39152,note_on,2,0,0,,6,,,66,127
39304,note_off,152,0,0,,6,,,66,127
39306,note_on,2,0,0,,12,,,47,127
39306,note_on,0,0,0,,4,,,64,127
39458,note_off,152,0,0,,4,,,64,127
39460,note_on,2,0,0,,3,,,63,127
39607,note_off,147,0,0,,12,,,59,127
39612,note_off,5,0,0,,3,,,63,127
39612,note_off,0,0,0,,12,,,47,127
39614,note_on,2,0,0,,4,,,52,127
39614,note_on,0,0,0,,4,,,64,127
39750,note_off,136,0,0,,4,,,64,127
39774,note_on,24,0,0,,12,,,83,127
39920,note_off,146,0,0,,4,,,52,127
39922,note_on,2,0,0,,12,,,47,127
40005,note_off,83,0,0,,12,,,83,127
40075,note_on,70,0,0,,6,,,78,127
40075,note_on,0,0,0,,3,,,75,127
40227,note_off,152,0,0,,3,,,75,127
40227,note_off,0,0,0,,6,,,78,127
40227,note_off,0,0,0,,12,,,47,127
40229,note_on,2,0,0,,4,,,52,127
40229,note_on,0,0,0,,4,,,76,127
40229,note_on,0,0,0,,8,,,80,127
40383,note_on,154,0,0,,12,,,71,127
40460,note_off,77,0,0,,8,,,80,127
40460,note_off,0,0,0,,4,,,76,127
40535,note_off,75,0,0,,4,,,52,127
40537,note_on,2,0,0,,12,,,47,127
40614,note_off,77,0,0,,12,,,71,127
40691,note_on,77,0,0,,3,,,63,127
40691,note_on,0,0,0,,6,,,66,127
40843,note_off,152,0,0,,6,,,66,127
40843,note_off,0,0,0,,3,,,63,127
40843,note_off,0,0,0,,12,,,47,127
40845,note_on,2,0,0,,4,,,52,127
40845,note_on,0,0,0,,4,,,64,127
40845,note_on,0,0,0,,8,,,68,127
40997,note_off,152,0,0,,8,,,68,127
40997,note_off,0,0,0,,4,,,64,127
40999,note_on,2,0,0,,12,,,83,127
41151,note_off,152,0,0,,4,,,52,127
41153,note_on,2,0,0,,12,,,47,127
41230,note_off,77,0,0,,12,,,83,127
41307,note_on,77,0,0,,6,,,78,127
41307,note_on,0,0,0,,3,,,75,127
41459,note_off,152,0,0,,3,,,75,127
41459,note_off,0,0,0,,6,,,78,127
41459,note_off,0,0,0,,12,,,47,127
41461,note_on,2,0,0,,4,,,52,127
41461,note_on,0,0,0,,8,,,80,127
41461,note_on,0,0,0,,4,,,76,127
41615,note_on,154,0,0,,12,,,71,127
41692,note_off,77,0,0,,4,,,76,127
41692,note_off,0,0,0,,8,,,80,127
41767,note_off,75,0,0,,4,,,52,127
41769,note_on,2,0,0,,12,,,47,127
41846,note_off,77,0,0,,12,,,71,127
41923,note_on,77,0,0,,6,,,66,127
41923,note_on,0,0,0,,3,,,63,127
42075,note_off,152,0,0,,3,,,63,127
42075,note_off,0,0,0,,6,,,66,127
42075,note_off,0,0,0,,12,,,47,127
42077,note_on,2,0,0,,4,,,40,127
42077,note_on,0,0,0,,4,,,64,127
42685,note_off,608,0,0,,4,,,40,127
42997,note_off,312,0,0,,4,,,64,127
42999,note_on,2,0,0,,4,,,64,127
42999,note_on,0,0,0,,4,,,52,127
43149,note_off,150,0,0,,4,,,64,127
43151,note_off,2,0,0,,4,,,52,127
43153,note_on,2,0,0,,4,,,64,127
43305,note_off,152,0,0,,4,,,64,127
43307,note_on,2,0,0,,2,,,62,127
43459,note_off,152,0,0,,2,,,62,127
43461,note_on,2,0,0,,12,,,59,127
43613,note_off,152,0,0,,12,,,59,127
43615,note_on,2,0,0,,1,,,61,127
43769,note_on,154,0,0,,4,,,64,127
43769,note_on,0,0,0,,4,,,76,127
43921,note_off,152,0,0,,4,,,76,127
43921,note_off,0,0,0,,4,,,64,127
43921,note_off,0,0,0,,1,,,61,127
43923,note_on,2,0,0,,6,,,66,127
43923,note_on,0,0,0,,2,,,74,127
43923,note_on,0,0,0,,12,,,59,127
44075,note_off,152,0,0,,2,,,74,127
44075,note_off,0,0,0,,6,,,66,127
44077,note_on,2,0,0,,12,,,71,127
44077,note_on,0,0,0,,8,,,68,127
44229,note_off,152,0,0,,8,,,68,127
44229,note_off,0,0,0,,12,,,71,127
44229,note_off,0,0,0,,12,,,59,127
44231,note_on,2,0,0,,1,,,73,127
44231,note_on,0,0,0,,10,,,69,127
44231,note_on,0,0,0,,10,,,57,127
44383,note_off,152,0,0,,10,,,57,127
44383,note_off,0,0,0,,10,,,69,127
44385,note_on,2,0,0,,10,,,69,127
44537,note_off,152,0,0,,10,,,69,127
44537,note_off,0,0,0,,1,,,73,127
44539,note_on,2,0,0,,12,,,71,127
44539,note_on,0,0,0,,7,,,67,127
44691,note_off,152,0,0,,7,,,67,127
44693,note_on,2,0,0,,4,,,64,127
44843,note_off,150,0,0,,12,,,71,127
44845,note_off,2,0,0,,4,,,64,127
44847,note_on,2,0,0,,6,,,66,127
45001,note_on,154,0,0,,10,,,81,127
45001,note_on,0,0,0,,10,,,69,127
45153,note_off,152,0,0,,10,,,69,127
45153,note_off,0,0,0,,10,,,81,127
45153,note_off,0,0,0,,6,,,66,127
45155,note_on,2,0,0,,7,,,79,127
45155,note_on,0,0,0,,12,,,71,127
45155,note_on,0,0,0,,4,,,64,127
45307,note_off,152,0,0,,12,,,71,127
45307,note_off,0,0,0,,7,,,79,127
45309,note_on,2,0,0,,4,,,76,127
45309,note_on,0,0,0,,1,,,73,127
45461,note_off,152,0,0,,1,,,73,127
45461,note_off,0,0,0,,4,,,76,127
45461,note_off,0,0,0,,4,,,64,127
45463,note_on,2,0,0,,2,,,74,127
45463,note_on,0,0,0,,6,,,78,127
45463,note_on,0,0,0,,2,,,62,127
45615,note_off,152,0,0,,2,,,74,127
45617,note_on,2,0,0,,6,,,66,127
45767,note_off,150,0,0,,6,,,78,127
45769,note_off,2,0,0,,6,,,66,127
45769,note_off,0,0,0,,2,,,62,127
45771,note_on,2,0,0,,8,,,68,127
45771,note_on,0,0,0,,4,,,76,127
45771,note_on,0,0,0,,1,,,61,127
45923,note_off,152,0,0,,8,,,68,127
45925,note_on,2,0,0,,11,,,70,127
46075,note_off,150,0,0,,4,,,76,127
46077,note_off,2,0,0,,11,,,70,127
46077,note_off,0,0,0,,1,,,61,127
46079,note_on,2,0,0,,12,,,71,127
46079,note_on,0,0,0,,2,,,74,127
46079,note_on,0,0,0,,12,,,59,127
46231,note_off,152,0,0,,12,,,71,127
46233,note_on,2,0,0,,2,,,62,127
46383,note_off,150,0,0,,2,,,74,127
46385,note_off,2,0,0,,2,,,62,127
46385,note_off,0,0,0,,12,,,59,127
46387,note_on,2,0,0,,1,,,73,127
46387,note_on,0,0,0,,4,,,64,127
46387,note_on,0,0,0,,10,,,57,127
46539,note_off,152,0,0,,4,,,64,127
46541,note_on,2,0,0,,6,,,66,127
46691,note_off,150,0,0,,1,,,73,127
46693,note_off,2,0,0,,6,,,66,127
46693,note_off,0,0,0,,10,,,57,127
46695,note_on,2,0,0,,7,,,67,127
46695,note_on,0,0,0,,12,,,71,127
46695,note_on,0,0,0,,7,,,55,127
46847,note_off,152,0,0,,7,,,67,127
46849,note_on,2,0,0,,12,,,59,127
46999,note_off,150,0,0,,12,,,71,127
47001,note_off,2,0,0,,12,,,59,127
47001,note_off,0,0,0,,7,,,55,127
47003,note_on,2,0,0,,10,,,69,127
47003,note_on,0,0,0,,1,,,61,127
47003,note_on,0,0,0,,6,,,54,127
47155,note_off,152,0,0,,1,,,61,127
47157,note_on,2,0,0,,3,,,63,127
47307,note_off,150,0,0,,10,,,69,127
47309,note_off,2,0,0,,3,,,63,127
47309,note_off,0,0,0,,6,,,54,127
47311,note_on,2,0,0,,4,,,64,127
47311,note_on,0,0,0,,7,,,67,127
47311,note_on,0,0,0,,4,,,52,127
47463,note_off,152,0,0,,7,,,67,127
47465,note_on,2,0,0,,2,,,74,127
47615,note_off,150,0,0,,4,,,64,127
47617,note_off,2,0,0,,2,,,74,127
47617,note_off,0,0,0,,4,,,52,127
47619,note_on,2,0,0,,1,,,73,127
47619,note_on,0,0,0,,4,,,64,127
47771,note_off,152,0,0,,1,,,73,127
47773,note_on,2,0,0,,4,,,76,127
47925,note_off,152,0,0,,4,,,76,127
47925,note_off,0,0,0,,4,,,64,127
47927,note_on,2,0,0,,11,,,70,127
47927,note_on,0,0,0,,6,,,54,127
48079,note_off,152,0,0,,6,,,54,127
48081,note_on,2,0,0,,6,,,66,127
48233,note_off,152,0,0,,6,,,66,127
48235,note_on,2,0,0,,7,,,67,127
48387,note_off,152,0,0,,7,,,67,127
48389,note_on,2,0,0,,6,,,66,127
48541,note_off,152,0,0,,6,,,66,127
48541,note_off,0,0,0,,11,,,70,127
48543,note_on,2,0,0,,12,,,71,127
48543,note_on,0,0,0,,4,,,64,127
48695,note_off,152,0,0,,4,,,64,127
48695,note_off,0,0,0,,12,,,71,127
48697,note_on,2,0,0,,4,,,76,127
48697,note_on,0,0,0,,7,,,55,127
48849,note_off,152,0,0,,7,,,55,127
48849,note_off,0,0,0,,4,,,76,127
48851,note_on,2,0,0,,6,,,78,127
48851,note_on,0,0,0,,6,,,54,127
49003,note_off,152,0,0,,6,,,54,127
49003,note_off,0,0,0,,6,,,78,127
49005,note_on,2,0,0,,7,,,79,127
49005,note_on,0,0,0,,4,,,52,127
49157,note_off,152,0,0,,4,,,52,127
49157,note_off,0,0,0,,7,,,79,127
49159,note_on,2,0,0,,1,,,73,127
49159,note_on,0,0,0,,11,,,70,127
49159,note_on,0,0,0,,6,,,54,127
49311,note_off,152,0,0,,6,,,54,127
49313,note_on,2,0,0,,6,,,66,127
49465,note_off,152,0,0,,6,,,66,127
49467,note_on,2,0,0,,7,,,67,127
49619,note_off,152,0,0,,7,,,67,127
49621,note_on,2,0,0,,6,,,66,127
49773,note_off,152,0,0,,6,,,66,127
49775,note_on,2,0,0,,4,,,64,127
49881,note_off,106,0,0,,11,,,70,127
49881,note_off,0,0,0,,1,,,73,127
49927,note_off,46,0,0,,4,,,64,127
49929,note_on,2,0,0,,4,,,76,127
49929,note_on,0,0,0,,7,,,55,127
50081,note_off,152,0,0,,7,,,55,127
50081,note_off,0,0,0,,4,,,76,127
50083,note_on,2,0,0,,6,,,78,127
50083,note_on,0,0,0,,6,,,54,127
50235,note_off,152,0,0,,6,,,54,127
50235,note_off,0,0,0,,6,,,78,127
50237,note_on,2,0,0,,7,,,79,127
50237,note_on,0,0,0,,4,,,52,127
50389,note_off,152,0,0,,4,,,52,127
50391,note_on,2,0,0,,11,,,70,127
50391,note_on,0,0,0,,6,,,54,127
50541,note_off,150,0,0,,7,,,79,127
50543,note_off,2,0,0,,11,,,70,127
50545,note_on,2,0,0,,7,,,79,127
50697,note_off,152,0,0,,7,,,79,127
50697,note_off,0,0,0,,6,,,54,127
50699,note_on,2,0,0,,6,,,78,127
50699,note_on,0,0,0,,11,,,58,127
50851,note_off,152,0,0,,6,,,78,127
50853,note_on,2,0,0,,4,,,76,127
51005,note_off,152,0,0,,4,,,76,127
51005,note_off,0,0,0,,11,,,58,127
51007,note_on,2,0,0,,3,,,75,127
51007,note_on,0,0,0,,12,,,59,127
51159,note_off,152,0,0,,3,,,75,127
51161,note_on,2,0,0,,12,,,71,127
51161,note_on,0,0,0,,6,,,78,127
51313,note_off,152,0,0,,12,,,71,127
51313,note_off,0,0,0,,12,,,59,127
51315,note_on,2,0,0,,10,,,69,127
51315,note_on,0,0,0,,3,,,63,127
51467,note_off,152,0,0,,10,,,69,127
51469,note_on,2,0,0,,6,,,66,127
51621,note_off,152,0,0,,6,,,66,127
51621,note_off,0,0,0,,3,,,63,127
51623,note_on,2,0,0,,7,,,67,127
51623,note_on,0,0,0,,4,,,64,127
51770,note_off,147,0,0,,6,,,78,127
51776,note_on,6,0,0,,7,,,79,127
51926,note_off,150,0,0,,7,,,67,127
51928,note_off,2,0,0,,7,,,79,127
51928,note_off,0,0,0,,4,,,64,127
51930,note_on,2,0,0,,10,,,69,127
51930,note_on,0,0,0,,6,,,78,127
51930,note_on,0,0,0,,0,,,60,127
52082,note_off,152,0,0,,6,,,78,127
52084,note_on,2,0,0,,4,,,76,127
52234,note_off,150,0,0,,10,,,69,127
52236,note_off,2,0,0,,4,,,76,127
52236,note_off,0,0,0,,0,,,60,127
52238,note_on,2,0,0,,3,,,75,127
52238,note_on,0,0,0,,12,,,59,127
52390,note_off,152,0,0,,3,,,75,127
52392,note_on,2,0,0,,12,,,71,127
52392,note_on,0,0,0,,6,,,78,127
52544,note_off,152,0,0,,12,,,71,127
52544,note_off,0,0,0,,12,,,59,127
52546,note_on,2,0,0,,10,,,69,127
52546,note_on,0,0,0,,3,,,63,127
52698,note_off,152,0,0,,10,,,69,127
52700,note_on,2,0,0,,6,,,66,127
52852,note_off,152,0,0,,6,,,66,127
52852,note_off,0,0,0,,3,,,63,127
52854,note_on,2,0,0,,7,,,67,127
52854,note_on,0,0,0,,4,,,64,127
53001,note_off,147,0,0,,6,,,78,127
53007,note_on,6,0,0,,4,,,76,127
53157,note_off,150,0,0,,7,,,67,127
53159,note_off,2,0,0,,4,,,76,127
53159,note_off,0,0,0,,4,,,64,127
53161,note_on,2,0,0,,10,,,69,127
53161,note_on,0,0,0,,3,,,75,127
53161,note_on,0,0,0,,0,,,60,127
53313,note_off,152,0,0,,3,,,75,127
53315,note_on,2,0,0,,4,,,76,127
53465,note_off,150,0,0,,10,,,69,127
53467,note_off,2,0,0,,4,,,76,127
53467,note_off,0,0,0,,0,,,60,127
53469,note_on,2,0,0,,6,,,78,127
53469,note_on,0,0,0,,12,,,59,127
53621,note_off,152,0,0,,6,,,78,127
53623,note_on,2,0,0,,12,,,71,127
53623,note_on,0,0,0,,6,,,78,127
53775,note_off,152,0,0,,12,,,71,127
53775,note_off,0,0,0,,12,,,59,127
53777,note_on,2,0,0,,10,,,69,127
53777,note_on,0,0,0,,3,,,63,127
53929,note_off,152,0,0,,10,,,69,127
53931,note_on,2,0,0,,6,,,66,127
54083,note_off,152,0,0,,6,,,66,127
54083,note_off,0,0,0,,3,,,63,127
54085,note_on,2,0,0,,7,,,67,127
54085,note_on,0,0,0,,4,,,64,127
54232,note_off,147,0,0,,6,,,78,127
54238,note_on,6,0,0,,7,,,79,127
54388,note_off,150,0,0,,7,,,67,127
54390,note_off,2,0,0,,7,,,79,127
54390,note_off,0,0,0,,4,,,64,127
54392,note_on,2,0,0,,4,,,76,127
54392,note_on,0,0,0,,7,,,55,127
54544,note_off,152,0,0,,4,,,76,127
54546,note_on,2,0,0,,2,,,74,127
54698,note_off,152,0,0,,2,,,74,127
54698,note_off,0,0,0,,7,,,55,127
54700,note_on,2,0,0,,1,,,73,127
54700,note_on,0,0,0,,10,,,57,127
54852,note_off,152,0,0,,1,,,73,127
54854,note_on,2,0,0,,4,,,76,127
54854,note_on,0,0,0,,10,,,69,127
55006,note_off,152,0,0,,10,,,69,127
55006,note_off,0,0,0,,10,,,57,127
55008,note_on,2,0,0,,7,,,67,127
55008,note_on,0,0,0,,1,,,61,127
55160,note_off,152,0,0,,7,,,67,127
55162,note_on,2,0,0,,4,,,64,127
55314,note_off,152,0,0,,4,,,64,127
55314,note_off,0,0,0,,1,,,61,127
55316,note_on,2,0,0,,6,,,66,127
55316,note_on,0,0,0,,2,,,62,127
55463,note_off,147,0,0,,4,,,76,127
55469,note_on,6,0,0,,2,,,74,127
55619,note_off,150,0,0,,6,,,66,127
55621,note_off,2,0,0,,2,,,74,127
55621,note_off,0,0,0,,2,,,62,127
55623,note_on,2,0,0,,7,,,67,127
55623,note_on,0,0,0,,1,,,73,127
55623,note_on,0,0,0,,12,,,59,127
55775,note_off,152,0,0,,1,,,73,127
55777,note_on,2,0,0,,2,,,74,127
55927,note_off,150,0,0,,7,,,67,127
55929,note_off,2,0,0,,2,,,74,127
55929,note_off,0,0,0,,12,,,59,127
55931,note_on,2,0,0,,4,,,76,127
55931,note_on,0,0,0,,10,,,57,127
56083,note_off,152,0,0,,4,,,76,127
56085,note_on,2,0,0,,4,,,76,127
56085,note_on,0,0,0,,10,,,69,127
56237,note_off,152,0,0,,10,,,69,127
56237,note_off,0,0,0,,10,,,57,127
56239,note_on,2,0,0,,7,,,67,127
56239,note_on,0,0,0,,1,,,61,127
56391,note_off,152,0,0,,7,,,67,127
56393,note_on,2,0,0,,4,,,64,127
56545,note_off,152,0,0,,4,,,64,127
56545,note_off,0,0,0,,1,,,61,127
56547,note_on,2,0,0,,6,,,66,127
56547,note_on,0,0,0,,2,,,62,127
56694,note_off,147,0,0,,4,,,76,127
56700,note_on,6,0,0,,2,,,74,127
56850,note_off,150,0,0,,6,,,66,127
56852,note_off,2,0,0,,2,,,74,127
56852,note_off,0,0,0,,2,,,62,127
56854,note_on,2,0,0,,7,,,67,127
56854,note_on,0,0,0,,1,,,73,127
56854,note_on,0,0,0,,12,,,59,127
57006,note_off,152,0,0,,1,,,73,127
57008,note_on,2,0,0,,2,,,74,127
57158,note_off,150,0,0,,7,,,67,127
57160,note_off,2,0,0,,2,,,74,127
57160,note_off,0,0,0,,12,,,59,127
57162,note_on,2,0,0,,4,,,76,127
57162,note_on,0,0,0,,10,,,57,127
57314,note_off,152,0,0,,10,,,57,127
57316,note_on,2,0,0,,10,,,69,127
57468,note_off,152,0,0,,10,,,69,127
57470,note_on,2,0,0,,7,,,67,127
57622,note_off,152,0,0,,7,,,67,127
57624,note_off,2,0,0,,4,,,76,127
57624,note_on,0,0,0,,4,,,64,127
57776,note_off,152,0,0,,4,,,64,127
57778,note_on,2,0,0,,6,,,66,127
57932,note_on,154,0,0,,10,,,69,127
57932,note_on,0,0,0,,10,,,81,127
58084,note_off,152,0,0,,10,,,81,127
58084,note_off,0,0,0,,10,,,69,127
58084,note_off,0,0,0,,6,,,66,127
58086,note_on,2,0,0,,7,,,79,127
58086,note_on,0,0,0,,12,,,71,127
58086,note_on,0,0,0,,4,,,64,127
58238,note_off,152,0,0,,12,,,71,127
58238,note_off,0,0,0,,7,,,79,127
58240,note_on,2,0,0,,1,,,73,127
58240,note_on,0,0,0,,4,,,76,127
58392,note_off,152,0,0,,4,,,76,127
58392,note_off,0,0,0,,1,,,73,127
58392,note_off,0,0,0,,4,,,64,127
58394,note_on,2,0,0,,2,,,74,127
58394,note_on,0,0,0,,6,,,78,127
58394,note_on,0,0,0,,2,,,62,127
58546,note_off,152,0,0,,2,,,62,127
58546,note_off,0,0,0,,2,,,74,127
58548,note_on,2,0,0,,2,,,74,127
58700,note_off,152,0,0,,2,,,74,127
58700,note_off,0,0,0,,6,,,78,127
58702,note_on,2,0,0,,4,,,76,127
58702,note_on,0,0,0,,1,,,73,127
58854,note_off,152,0,0,,1,,,73,127
58856,note_on,2,0,0,,10,,,69,127
59008,note_off,152,0,0,,10,,,69,127
59008,note_off,0,0,0,,4,,,76,127
59010,note_on,2,0,0,,2,,,74,127
59010,note_on,0,0,0,,12,,,71,127
59162,note_off,152,0,0,,12,,,71,127
59164,note_on,2,0,0,,8,,,68,127
59316,note_off,152,0,0,,8,,,68,127
59316,note_off,0,0,0,,2,,,74,127
59318,note_on,2,0,0,,1,,,73,127
59318,note_on,0,0,0,,10,,,69,127
59470,note_off,152,0,0,,10,,,69,127
59472,note_on,2,0,0,,10,,,57,127
59622,note_off,150,0,0,,1,,,73,127
59624,note_off,2,0,0,,10,,,57,127
59638,note_on,14,0,0,,6,,,78,127
59638,note_on,0,0,0,,2,,,62,127
59792,note_on,154,0,0,,12,,,71,127
59942,note_off,150,0,0,,6,,,78,127
59944,note_off,2,0,0,,2,,,62,127
59946,note_on,2,0,0,,4,,,76,127
59946,note_on,0,0,0,,1,,,61,127
60096,note_off,150,0,0,,12,,,71,127
60099,note_on,3,0,0,,10,,,69,127
60251,note_off,152,0,0,,10,,,69,127
60251,note_off,0,0,0,,1,,,61,127
60253,note_on,2,0,0,,8,,,68,127
60253,note_on,0,0,0,,12,,,59,127
60403,note_off,150,0,0,,4,,,76,127
60406,note_on,3,0,0,,2,,,74,127
60556,note_off,150,0,0,,8,,,68,127
60558,note_off,2,0,0,,12,,,59,127
60560,note_on,2,0,0,,10,,,69,127
60560,note_on,0,0,0,,10,,,57,127
60707,note_off,147,0,0,,2,,,74,127
60710,note_on,3,0,0,,1,,,73,127
60860,note_off,150,0,0,,1,,,73,127
60863,note_off,3,0,0,,10,,,69,127
60865,note_off,2,0,0,,10,,,57,127
60867,note_on,2,0,0,,12,,,71,127
60867,note_on,0,0,0,,8,,,68,127
60867,note_on,0,0,0,,4,,,64,127
61019,note_off,152,0,0,,8,,,68,127
61019,note_off,0,0,0,,12,,,71,127
61021,note_on,2,0,0,,12,,,83,127
61021,note_on,0,0,0,,4,,,76,127
61173,note_off,152,0,0,,4,,,76,127
61173,note_off,0,0,0,,4,,,64,127
61175,note_on,2,0,0,,2,,,74,127
61175,note_on,0,0,0,,8,,,68,127
61327,note_off,152,0,0,,2,,,74,127
61329,note_on,2,0,0,,12,,,71,127
61481,note_off,152,0,0,,12,,,71,127
61481,note_off,0,0,0,,8,,,68,127
61483,note_on,2,0,0,,0,,,72,127
61483,note_on,0,0,0,,10,,,69,127
61630,note_off,147,0,0,,12,,,83,127
61636,note_on,6,0,0,,0,,,84,127
61786,note_off,150,0,0,,0,,,72,127
61788,note_off,2,0,0,,0,,,84,127
61788,note_off,0,0,0,,10,,,69,127
61790,note_on,2,0,0,,2,,,74,127
61790,note_on,0,0,0,,12,,,83,127
61790,note_on,0,0,0,,5,,,65,127
61942,note_off,152,0,0,,12,,,83,127
61944,note_on,2,0,0,,10,,,81,127
62096,note_off,152,0,0,,10,,,81,127
62096,note_off,0,0,0,,5,,,65,127
62098,note_on,2,0,0,,12,,,83,127
62098,note_on,0,0,0,,4,,,64,127
62248,note_off,150,0,0,,2,,,74,127
62251,note_on,3,0,0,,4,,,76,127
62401,note_off,150,0,0,,12,,,83,127
62403,note_off,2,0,0,,4,,,76,127
62403,note_off,0,0,0,,4,,,64,127
62405,note_on,2,0,0,,12,,,83,127
62405,note_on,0,0,0,,2,,,74,127
62405,note_on,0,0,0,,8,,,68,127
62557,note_off,152,0,0,,2,,,74,127
62559,note_on,2,0,0,,12,,,71,127
62711,note_off,152,0,0,,12,,,71,127
62711,note_off,0,0,0,,8,,,68,127
62713,note_on,2,0,0,,0,,,72,127
62713,note_on,0,0,0,,10,,,69,127
62863,note_off,150,0,0,,12,,,83,127
62866,note_on,3,0,0,,10,,,81,127
63016,note_off,150,0,0,,0,,,72,127
63018,note_off,2,0,0,,10,,,81,127
63018,note_off,0,0,0,,10,,,69,127
63020,note_on,2,0,0,,8,,,80,127
63020,note_on,0,0,0,,2,,,74,127
63020,note_on,0,0,0,,5,,,65,127
63172,note_off,152,0,0,,8,,,80,127
63174,note_on,2,0,0,,10,,,81,127
63326,note_off,152,0,0,,10,,,81,127
63326,note_off,0,0,0,,5,,,65,127
63328,note_on,2,0,0,,12,,,83,127
63328,note_on,0,0,0,,4,,,64,127
63478,note_off,150,0,0,,2,,,74,127
63480,note_off,2,0,0,,12,,,83,127
63482,note_on,2,0,0,,4,,,76,127
63634,note_off,152,0,0,,4,,,76,127
63634,note_off,0,0,0,,4,,,64,127
63636,note_on,2,0,0,,2,,,74,127
63636,note_on,0,0,0,,8,,,56,127
63788,note_off,152,0,0,,2,,,74,127
63790,note_on,2,0,0,,12,,,71,127
63942,note_off,152,0,0,,12,,,71,127
63942,note_off,0,0,0,,8,,,56,127
63944,note_on,2,0,0,,2,,,74,127
63944,note_on,0,0,0,,10,,,57,127
64019,note_off,75,0,0,,2,,,74,127
64021,note_on,2,0,0,,0,,,72,127
64096,note_off,75,0,0,,0,,,72,127
64098,note_on,2,0,0,,2,,,74,127
64173,note_off,75,0,0,,2,,,74,127
64175,note_on,2,0,0,,0,,,72,127
64250,note_off,75,0,0,,0,,,72,127
64250,note_off,0,0,0,,10,,,57,127
64252,note_on,2,0,0,,2,,,74,127
64252,note_on,0,0,0,,5,,,53,127
64327,note_off,75,0,0,,2,,,74,127
64329,note_on,2,0,0,,0,,,72,127
64404,note_off,75,0,0,,0,,,72,127
64406,note_on,2,0,0,,12,,,71,127
64481,note_off,75,0,0,,12,,,71,127
64483,note_on,2,0,0,,10,,,69,127
64558,note_off,75,0,0,,10,,,69,127
64558,note_off,0,0,0,,5,,,53,127
64560,note_on,2,0,0,,12,,,71,127
64560,note_on,0,0,0,,4,,,52,127
64712,note_off,152,0,0,,12,,,71,127
64714,note_on,2,0,0,,4,,,64,127
64714,note_on,0,0,0,,12,,,71,127
64866,note_off,152,0,0,,4,,,64,127
64866,note_off,0,0,0,,4,,,52,127
64868,note_on,2,0,0,,2,,,62,127
64868,note_on,0,0,0,,8,,,56,127
65020,note_off,152,0,0,,2,,,62,127
65022,note_on,2,0,0,,12,,,59,127
65174,note_off,152,0,0,,12,,,59,127
65174,note_off,0,0,0,,8,,,56,127
65176,note_on,2,0,0,,0,,,60,127
65176,note_on,0,0,0,,10,,,57,127
65323,note_off,147,0,0,,12,,,71,127
65329,note_on,6,0,0,,10,,,69,127
65479,note_off,150,0,0,,0,,,60,127
65481,note_off,2,0,0,,10,,,69,127
65481,note_off,0,0,0,,10,,,57,127
65483,note_on,2,0,0,,2,,,62,127
65483,note_on,0,0,0,,8,,,68,127
65483,note_on,0,0,0,,5,,,53,127
65635,note_off,152,0,0,,8,,,68,127
65637,note_on,2,0,0,,10,,,69,127
65787,note_off,150,0,0,,2,,,62,127
65789,note_off,2,0,0,,10,,,69,127
65789,note_off,0,0,0,,5,,,53,127
65791,note_on,2,0,0,,12,,,71,127
65791,note_on,0,0,0,,4,,,52,127
65943,note_off,152,0,0,,12,,,71,127
65945,note_on,2,0,0,,12,,,71,127
65945,note_on,0,0,0,,4,,,64,127
66097,note_off,152,0,0,,4,,,64,127
66097,note_off,0,0,0,,4,,,52,127
66099,note_on,2,0,0,,2,,,62,127
66099,note_on,0,0,0,,8,,,56,127
66251,note_off,152,0,0,,2,,,62,127
66253,note_on,2,0,0,,12,,,59,127
66405,note_off,152,0,0,,12,,,59,127
66405,note_off,0,0,0,,8,,,56,127
66407,note_on,2,0,0,,0,,,60,127
66407,note_on,0,0,0,,10,,,57,127
66554,note_off,147,0,0,,12,,,71,127
66560,note_on,6,0,0,,10,,,69,127
66710,note_off,150,0,0,,0,,,60,127
66712,note_off,2,0,0,,10,,,69,127
66712,note_off,0,0,0,,10,,,57,127
66714,note_on,2,0,0,,2,,,62,127
66714,note_on,0,0,0,,8,,,68,127
66714,note_on,0,0,0,,5,,,53,127
66866,note_off,152,0,0,,8,,,68,127
66868,note_on,2,0,0,,10,,,69,127
67018,note_off,150,0,0,,2,,,62,127
67020,note_off,2,0,0,,10,,,69,127
67020,note_off,0,0,0,,5,,,53,127
67022,note_on,2,0,0,,12,,,71,127
67022,note_on,0,0,0,,4,,,52,127
67174,note_off,152,0,0,,4,,,52,127
67176,note_on,2,0,0,,4,,,64,127
67328,note_off,152,0,0,,4,,,64,127
67330,note_on,2,0,0,,2,,,62,127
67482,note_off,152,0,0,,2,,,62,127
67484,note_off,2,0,0,,12,,,71,127
67484,note_on,0,0,0,,12,,,59,127
67636,note_off,152,0,0,,12,,,59,127
67638,note_on,2,0,0,,1,,,61,127
67792,note_on,154,0,0,,4,,,76,127
67792,note_on,0,0,0,,4,,,64,127
67944,note_off,152,0,0,,4,,,64,127
67944,note_off,0,0,0,,4,,,76,127
67944,note_off,0,0,0,,1,,,61,127
67946,note_on,2,0,0,,6,,,66,127
67946,note_on,0,0,0,,2,,,74,127
67946,note_on,0,0,0,,12,,,59,127
68098,note_off,152,0,0,,2,,,74,127
68098,note_off,0,0,0,,6,,,66,127
68100,note_on,2,0,0,,8,,,68,127
68100,note_on,0,0,0,,12,,,71,127
68252,note_off,152,0,0,,12,,,71,127
68252,note_off,0,0,0,,8,,,68,127
68252,note_off,0,0,0,,12,,,59,127
68254,note_on,2,0,0,,1,,,73,127
68254,note_on,0,0,0,,10,,,69,127
68254,note_on,0,0,0,,10,,,45,127
68406,note_off,152,0,0,,10,,,45,127
68408,note_on,2,0,0,,10,,,57,127
68560,note_off,152,0,0,,10,,,57,127
68560,note_off,0,0,0,,10,,,69,127
68560,note_off,0,0,0,,1,,,73,127
68562,note_on,2,0,0,,12,,,71,127
68562,note_on,0,0,0,,8,,,56,127
68714,note_off,152,0,0,,8,,,56,127
68714,note_off,0,0,0,,12,,,71,127
68716,note_on,2,0,0,,4,,,76,127
68716,note_on,0,0,0,,4,,,52,127
68868,note_off,152,0,0,,4,,,52,127
68868,note_off,0,0,0,,4,,,76,127
68870,note_on,2,0,0,,10,,,69,127
68870,note_on,0,0,0,,6,,,42,127
69022,note_off,152,0,0,,6,,,42,127
69024,note_on,2,0,0,,6,,,54,127
69176,note_off,152,0,0,,6,,,54,127
69176,note_off,0,0,0,,10,,,69,127
69178,note_on,2,0,0,,8,,,68,127
69178,note_on,0,0,0,,4,,,52,127
69330,note_off,152,0,0,,4,,,52,127
69330,note_off,0,0,0,,8,,,68,127
69332,note_on,2,0,0,,1,,,73,127
69332,note_on,0,0,0,,1,,,49,127
69484,note_off,152,0,0,,1,,,49,127
69484,note_off,0,0,0,,1,,,73,127
69486,note_on,2,0,0,,6,,,66,127
69486,note_on,0,0,0,,2,,,38,127
69638,note_off,152,0,0,,6,,,66,127
69640,note_on,2,0,0,,6,,,78,127
69792,note_off,152,0,0,,6,,,78,127
69792,note_off,0,0,0,,2,,,38,127
69794,note_on,2,0,0,,4,,,76,127
69794,note_on,0,0,0,,2,,,50,127
69946,note_off,152,0,0,,4,,,76,127
69948,note_on,2,0,0,,2,,,74,127
70100,note_off,152,0,0,,2,,,74,127
70100,note_off,0,0,0,,2,,,50,127
70102,note_on,2,0,0,,1,,,73,127
70102,note_on,0,0,0,,4,,,52,127
70254,note_off,152,0,0,,1,,,73,127
70256,note_on,2,0,0,,12,,,71,127
70408,note_off,152,0,0,,12,,,71,127
70410,note_on,2,0,0,,10,,,69,127
70410,note_on,0,0,0,,4,,,40,127
70562,note_off,152,0,0,,10,,,69,127
70564,note_on,2,0,0,,8,,,68,127
70711,note_off,147,0,0,,4,,,52,127
70716,note_off,5,0,0,,8,,,68,127
70716,note_off,0,0,0,,4,,,40,127
70718,note_on,2,0,0,,10,,,69,127
70718,note_on,0,0,0,,10,,,45,127
70870,note_off,152,0,0,,10,,,69,127
70872,note_on,2,0,0,,1,,,85,127
71024,note_off,152,0,0,,1,,,85,127
71024,note_off,0,0,0,,10,,,45,127
71026,note_on,2,0,0,,12,,,83,127
71026,note_on,0,0,0,,8,,,68,127
71180,note_on,154,0,0,,12,,,71,127
71330,note_off,150,0,0,,12,,,83,127
71332,note_off,2,0,0,,12,,,71,127
71332,note_off,0,0,0,,8,,,68,127
71334,note_on,2,0,0,,10,,,69,127
71334,note_on,0,0,0,,6,,,66,127
71488,note_on,154,0,0,,10,,,81,127
71638,note_off,150,0,0,,10,,,69,127
71640,note_off,2,0,0,,10,,,81,127
71640,note_off,0,0,0,,6,,,66,127
71642,note_on,2,0,0,,8,,,80,127
71642,note_on,0,0,0,,4,,,64,127
71796,note_on,154,0,0,,8,,,68,127
71946,note_off,150,0,0,,8,,,80,127
71948,note_off,2,0,0,,8,,,68,127
71948,note_off,0,0,0,,4,,,64,127
71950,note_on,2,0,0,,6,,,66,127
71950,note_on,0,0,0,,2,,,62,127
72104,note_on,154,0,0,,6,,,78,127
72254,note_off,150,0,0,,6,,,66,127
72256,note_off,2,0,0,,6,,,78,127
72256,note_off,0,0,0,,2,,,62,127
72258,note_on,2,0,0,,4,,,76,127
72258,note_on,0,0,0,,1,,,61,127
72412,note_on,154,0,0,,4,,,64,127
72562,note_off,150,0,0,,4,,,76,127
72564,note_off,2,0,0,,4,,,64,127
72564,note_off,0,0,0,,1,,,61,127
72566,note_on,2,0,0,,2,,,62,127
72566,note_on,0,0,0,,12,,,59,127
72720,note_on,154,0,0,,2,,,74,127
72870,note_off,150,0,0,,2,,,62,127
72872,note_off,2,0,0,,2,,,74,127
72872,note_off,0,0,0,,12,,,59,127
72874,note_on,2,0,0,,1,,,73,127
72874,note_on,0,0,0,,10,,,57,127
73026,note_off,152,0,0,,1,,,73,127
73028,note_on,2,0,0,,10,,,69,127
73180,note_off,152,0,0,,10,,,69,127
73180,note_off,0,0,0,,10,,,57,127
73182,note_on,2,0,0,,12,,,71,127
73182,note_on,0,0,0,,8,,,56,127
73334,note_off,152,0,0,,8,,,56,127
73336,note_on,2,0,0,,4,,,64,127
73488,note_off,152,0,0,,4,,,64,127
73490,note_on,2,0,0,,2,,,62,127
73567,note_off,77,0,0,,12,,,71,127
73642,note_off,75,0,0,,2,,,62,127
73644,note_on,2,0,0,,12,,,59,127
73796,note_off,152,0,0,,12,,,59,127
73798,note_on,2,0,0,,1,,,61,127
73952,note_on,154,0,0,,4,,,76,127
73952,note_on,0,0,0,,4,,,64,127
74104,note_off,152,0,0,,4,,,64,127
74104,note_off,0,0,0,,4,,,76,127
74104,note_off,0,0,0,,1,,,61,127
74106,note_on,2,0,0,,6,,,66,127
74106,note_on,0,0,0,,2,,,74,127
74106,note_on,0,0,0,,12,,,59,127
74258,note_off,152,0,0,,2,,,74,127
74258,note_off,0,0,0,,6,,,66,127
74260,note_on,2,0,0,,8,,,68,127
74260,note_on,0,0,0,,12,,,71,127
74412,note_off,152,0,0,,12,,,71,127
74412,note_off,0,0,0,,8,,,68,127
74412,note_off,0,0,0,,12,,,59,127
74414,note_on,2,0,0,,1,,,73,127
74414,note_on,0,0,0,,10,,,69,127
74414,note_on,0,0,0,,10,,,45,127
74566,note_off,152,0,0,,10,,,45,127
74568,note_on,2,0,0,,10,,,57,127
74720,note_off,152,0,0,,10,,,57,127
74720,note_off,0,0,0,,10,,,69,127
74720,note_off,0,0,0,,1,,,73,127
74722,note_on,2,0,0,,12,,,71,127
74722,note_on,0,0,0,,8,,,56,127
74874,note_off,152,0,0,,8,,,56,127
74874,note_off,0,0,0,,12,,,71,127
74876,note_on,2,0,0,,4,,,76,127
74876,note_on,0,0,0,,4,,,52,127
75028,note_off,152,0,0,,4,,,52,127
75028,note_off,0,0,0,,4,,,76,127
75030,note_on,2,0,0,,10,,,69,127
75030,note_on,0,0,0,,6,,,42,127
75182,note_off,152,0,0,,6,,,42,127
75184,note_on,2,0,0,,6,,,54,127
75336,note_off,152,0,0,,6,,,54,127
75336,note_off,0,0,0,,10,,,69,127
75338,note_on,2,0,0,,8,,,68,127
75338,note_on,0,0,0,,4,,,52,127
75490,note_off,152,0,0,,4,,,52,127
75490,note_off,0,0,0,,8,,,68,127
75492,note_on,2,0,0,,1,,,73,127
75492,note_on,0,0,0,,1,,,49,127
75644,note_off,152,0,0,,1,,,49,127
75644,note_off,0,0,0,,1,,,73,127
75646,note_on,2,0,0,,6,,,66,127
75646,note_on,0,0,0,,2,,,38,127
75798,note_off,152,0,0,,6,,,66,127
75800,note_on,2,0,0,,6,,,78,127
75952,note_off,152,0,0,,6,,,78,127
75952,note_off,0,0,0,,2,,,38,127
75954,note_on,2,0,0,,4,,,76,127
75954,note_on,0,0,0,,2,,,50,127
76106,note_off,152,0,0,,4,,,76,127
76108,note_on,2,0,0,,2,,,74,127
76260,note_off,152,0,0,,2,,,74,127
76260,note_off,0,0,0,,2,,,50,127
76262,note_on,2,0,0,,1,,,73,127
76262,note_on,0,0,0,,4,,,52,127
76414,note_off,152,0,0,,1,,,73,127
76416,note_on,2,0,0,,12,,,71,127
76568,note_off,152,0,0,,12,,,71,127
76570,note_on,2,0,0,,10,,,69,127
76570,note_on,0,0,0,,4,,,40,127
76722,note_off,152,0,0,,10,,,69,127
76724,note_on,2,0,0,,8,,,68,127
76871,note_off,147,0,0,,4,,,52,127
76876,note_off,5,0,0,,8,,,68,127
76876,note_off,0,0,0,,4,,,40,127
76878,note_on,2,0,0,,10,,,69,127
76878,note_on,0,0,0,,10,,,45,127
77006,note_off,128,0,0,,10,,,69,127
77044,note_on,38,0,0,,1,,,85,127
77044,note_on,0,0,0,,10,,,81,127
77044,note_on,0,0,0,,4,,,76,127
77183,note_off,139,0,0,,10,,,45,127
77197,note_on,14,0,0,,4,,,52,127
77299,note_off,102,0,0,,4,,,76,127
77299,note_off,0,0,0,,10,,,81,127
77299,note_off,0,0,0,,1,,,85,127
77350,note_on,51,0,0,,8,,,80,127
77350,note_on,0,0,0,,12,,,83,127
77350,note_on,0,0,0,,4,,,76,127
77502,note_off,152,0,0,,4,,,76,127
77502,note_off,0,0,0,,12,,,83,127
77502,note_off,0,0,0,,8,,,80,127
77502,note_off,0,0,0,,4,,,52,127
77504,note_on,2,0,0,,10,,,81,127
77504,note_on,0,0,0,,1,,,85,127
77504,note_on,0,0,0,,4,,,76,127
77504,note_on,0,0,0,,10,,,57,127
77656,note_off,152,0,0,,4,,,76,127
77656,note_off,0,0,0,,1,,,85,127
77656,note_off,0,0,0,,10,,,81,127
77658,note_on,2,0,0,,4,,,76,127
77658,note_on,0,0,0,,1,,,73,127
77658,note_on,0,0,0,,10,,,81,127
77810,note_off,152,0,0,,10,,,57,127
77812,note_on,2,0,0,,4,,,52,127
77922,note_off,110,0,0,,10,,,81,127
77922,note_off,0,0,0,,1,,,73,127
77922,note_off,0,0,0,,4,,,76,127
77965,note_on,43,0,0,,2,,,74,127
77965,note_on,0,0,0,,8,,,80,127
77965,note_on,0,0,0,,12,,,71,127
78117,note_off,152,0,0,,12,,,71,127
78117,note_off,0,0,0,,8,,,80,127
78117,note_off,0,0,0,,2,,,74,127
78117,note_off,0,0,0,,4,,,52,127
78119,note_on,2,0,0,,4,,,76,127
78119,note_on,0,0,0,,1,,,73,127
78119,note_on,0,0,0,,10,,,81,127
78119,note_on,0,0,0,,10,,,45,127
78271,note_off,152,0,0,,10,,,81,127
78271,note_off,0,0,0,,1,,,73,127
78271,note_off,0,0,0,,4,,,76,127
78273,note_on,2,0,0,,1,,,73,127
78273,note_on,0,0,0,,4,,,76,127
78273,note_on,0,0,0,,10,,,69,127
78425,note_off,152,0,0,,10,,,45,127
78427,note_on,2,0,0,,4,,,52,127
78545,note_off,118,0,0,,10,,,69,127
78545,note_off,0,0,0,,4,,,76,127
78545,note_off,0,0,0,,1,,,73,127
78580,note_on,35,0,0,,12,,,71,127
78580,note_on,0,0,0,,8,,,68,127
78732,note_off,152,0,0,,8,,,68,127
78732,note_off,0,0,0,,12,,,71,127
78732,note_off,0,0,0,,4,,,52,127
78734,note_on,2,0,0,,10,,,69,127
78734,note_on,0,0,0,,1,,,73,127
78734,note_on,0,0,0,,10,,,45,127
78886,note_off,152,0,0,,1,,,73,127
78886,note_off,0,0,0,,10,,,69,127
78888,note_on,2,0,0,,4,,,64,127
78888,note_on,0,0,0,,10,,,69,127
78888,note_on,0,0,0,,1,,,61,127
79040,note_off,152,0,0,,10,,,45,127
79042,note_on,2,0,0,,4,,,40,127
79176,note_off,134,0,0,,1,,,61,127
79176,note_off,0,0,0,,10,,,69,127
79176,note_off,0,0,0,,4,,,64,127
79195,note_on,19,0,0,,8,,,68,127
79195,note_on,0,0,0,,12,,,59,127
79195,note_on,0,0,0,,2,,,62,127
79195,note_on,0,0,0,,4,,,64,127
79347,note_off,152,0,0,,4,,,64,127
79347,note_off,0,0,0,,2,,,62,127
79347,note_off,0,0,0,,12,,,59,127
79347,note_off,0,0,0,,8,,,68,127
79347,note_off,0,0,0,,4,,,40,127
79361,note_on,14,0,0,,10,,,45,127
79361,note_on,0,0,0,,1,,,61,127
79361,note_on,0,0,0,,4,,,64,127
79361,note_on,0,0,0,,10,,,69,127
81127,note_off,1766,0,0,,10,,,69,127
81127,note_off,0,0,0,,4,,,64,127
81127,note_off,0,0,0,,1,,,61,127
81127,note_off,0,0,0,,10,,,45,127
82944,end_of_track,1817,1,0,,,,,,
