tick,type,time,meta,track,program,channel,pitch,tempo,note,velocity
0,copyright,0,1,0,,,,,,
0,program_change,0,0,0,6,0,,,,
0,pitchwheel,0,0,0,,0,0,,,
0,program_change,0,0,0,6,1,,,,
0,pitchwheel,0,0,0,,1,-590,,,
0,program_change,0,0,0,6,2,,,,
0,pitchwheel,0,0,0,,2,-272,,,
0,program_change,0,0,0,6,3,,,,
0,pitchwheel,0,0,0,,3,-353,,,
0,program_change,0,0,0,6,4,,,,
0,pitchwheel,0,0,0,,4,-560,,,
0,program_change,0,0,0,6,5,,,,
0,pitchwheel,0,0,0,,5,-80,,,
0,program_change,0,0,0,6,6,,,,
0,pitchwheel,0,0,0,,6,-625,,,
0,program_change,0,0,0,6,7,,,,
0,pitchwheel,0,0,0,,7,-130,,,
0,program_change,0,0,0,6,8,,,,
0,pitchwheel,0,0,0,,8,-512,,,
0,program_change,0,0,0,6,10,,,,
0,pitchwheel,0,0,0,,10,-464,,,
0,program_change,0,0,0,6,11,,,,
0,pitchwheel,0,0,0,,11,-208,,,
0,program_change,0,0,0,6,12,,,,
0,pitchwheel,0,0,0,,12,-553,,,
0,set_tempo,0,1,0,,,,500000,,
118,note_on,118,0,0,,10,,,57,127
118,note_on,0,0,0,,10,,,81,127
233,note_off,115,0,0,,10,,,81,127
235,note_on,2,0,0,,4,,,76,127
350,note_off,115,0,0,,4,,,76,127
352,note_on,2,0,0,,1,,,73,127
467,note_off,115,0,0,,1,,,73,127
469,note_on,2,0,0,,10,,,69,127
584,note_off,115,0,0,,10,,,69,127
586,note_on,2,0,0,,4,,,64,127
701,note_off,115,0,0,,4,,,64,127
703,note_on,2,0,0,,1,,,61,127
818,note_off,115,0,0,,1,,,61,127
818,note_off,0,0,0,,10,,,57,127
820,note_on,2,0,0,,12,,,59,127
820,note_on,0,0,0,,4,,,76,127
876,note_off,56,0,0,,4,,,76,127
878,note_on,2,0,0,,2,,,74,127
934,note_off,56,0,0,,2,,,74,127
936,note_on,2,0,0,,4,,,76,127
992,note_off,56,0,0,,4,,,76,127
994,note_on,2,0,0,,2,,,74,127
1050,note_off,56,0,0,,2,,,74,127
1050,note_off,0,0,0,,12,,,59,127
1052,note_on,2,0,0,,8,,,56,127
1052,note_on,0,0,0,,4,,,76,127
1108,note_off,56,0,0,,4,,,76,127
1110,note_on,2,0,0,,2,,,74,127
1166,note_off,56,0,0,,2,,,74,127
1168,note_on,2,0,0,,4,,,76,127
1224,note_off,56,0,0,,4,,,76,127
1226,note_on,2,0,0,,2,,,74,127
1282,note_off,56,0,0,,2,,,74,127
1282,note_off,0,0,0,,8,,,56,127
1284,note_on,2,0,0,,10,,,57,127
1284,note_on,0,0,0,,1,,,73,127
1504,note_off,220,0,0,,1,,,73,127
1516,note_off,12,0,0,,10,,,57,127
1518,note_on,2,0,0,,2,,,50,127
1518,note_on,0,0,0,,12,,,71,127
1633,note_off,115,0,0,,12,,,71,127
1635,note_on,2,0,0,,2,,,74,127
1750,note_off,115,0,0,,2,,,74,127
1752,note_on,2,0,0,,6,,,78,127
1867,note_off,115,0,0,,6,,,78,127
1869,note_on,2,0,0,,10,,,69,127
1984,note_off,115,0,0,,10,,,69,127
1984,note_off,0,0,0,,2,,,50,127
1986,note_on,2,0,0,,6,,,54,127
1986,note_on,0,0,0,,8,,,68,127
2101,note_off,115,0,0,,8,,,68,127
2103,note_on,2,0,0,,10,,,69,127
2218,note_off,115,0,0,,10,,,69,127
2218,note_off,0,0,0,,6,,,54,127
2220,note_on,2,0,0,,4,,,52,127
2220,note_on,0,0,0,,10,,,69,127
2276,note_off,56,0,0,,10,,,69,127
2278,note_on,2,0,0,,8,,,68,127
2334,note_off,56,0,0,,8,,,68,127
2336,note_on,2,0,0,,10,,,69,127
2392,note_off,56,0,0,,10,,,69,127
2394,note_on,2,0,0,,8,,,68,127
2450,note_off,56,0,0,,8,,,68,127
2452,note_on,2,0,0,,4,,,40,127
2452,note_on,0,0,0,,10,,,69,127
2508,note_off,56,0,0,,10,,,69,127
2510,note_on,2,0,0,,8,,,68,127
2566,note_off,56,0,0,,8,,,68,127
2568,note_on,2,0,0,,6,,,66,127
2683,note_off,115,0,0,,6,,,66,127
2685,note_on,2,0,0,,4,,,64,127
2918,note_off,233,0,0,,4,,,64,127
2918,note_off,0,0,0,,4,,,40,127
2919,note_off,1,0,0,,4,,,52,127
2920,note_on,1,0,0,,4,,,64,127
3035,note_off,115,0,0,,4,,,64,127
3037,note_on,2,0,0,,12,,,59,127
3152,note_off,115,0,0,,12,,,59,127
3154,note_on,2,0,0,,8,,,56,127
3269,note_off,115,0,0,,8,,,56,127
3271,note_on,2,0,0,,4,,,52,127
3386,note_off,115,0,0,,4,,,52,127
3388,note_on,2,0,0,,2,,,62,127
3388,note_on,0,0,0,,4,,,76,127
3503,note_off,115,0,0,,4,,,76,127
3505,note_on,2,0,0,,8,,,68,127
3620,note_off,115,0,0,,8,,,68,127
3620,note_off,0,0,0,,2,,,62,127
3622,note_on,2,0,0,,1,,,61,127
3622,note_on,0,0,0,,10,,,69,127
3855,note_off,233,0,0,,10,,,69,127
3855,note_off,0,0,0,,1,,,61,127
3857,note_on,2,0,0,,12,,,59,127
3857,note_on,0,0,0,,12,,,71,127
4090,note_off,233,0,0,,12,,,71,127
4090,note_off,0,0,0,,12,,,59,127
4092,note_on,2,0,0,,10,,,57,127
4092,note_on,0,0,0,,1,,,73,127
4312,note_off,220,0,0,,1,,,73,127
4324,note_off,12,0,0,,10,,,57,127
4326,note_on,2,0,0,,2,,,62,127
4326,note_on,0,0,0,,6,,,66,127
4444,note_on,118,0,0,,2,,,74,127
4559,note_off,115,0,0,,2,,,74,127
4559,note_off,0,0,0,,6,,,66,127
4559,note_off,0,0,0,,2,,,62,127
4561,note_on,2,0,0,,4,,,64,127
4561,note_on,0,0,0,,10,,,69,127
4794,note_off,233,0,0,,10,,,69,127
4794,note_off,0,0,0,,4,,,64,127
4796,note_on,2,0,0,,4,,,52,127
4796,note_on,0,0,0,,10,,,69,127
4852,note_off,56,0,0,,10,,,69,127
4854,note_on,2,0,0,,8,,,68,127
4910,note_off,56,0,0,,8,,,68,127
4912,note_on,2,0,0,,6,,,66,127
4968,note_off,56,0,0,,6,,,66,127
4970,note_on,2,0,0,,8,,,68,127
5026,note_off,56,0,0,,8,,,68,127
5026,note_off,0,0,0,,4,,,52,127
5032,note_on,6,0,0,,10,,,57,127
5032,note_on,0,0,0,,10,,,69,127
5289,note_off,257,0,0,,10,,,57,127
5295,note_on,6,0,0,,4,,,52,127
5552,note_off,257,0,0,,4,,,52,127
5558,note_on,6,0,0,,10,,,45,127
5864,note_off,306,0,0,,10,,,45,127
5888,note_off,24,0,0,,10,,,69,127
5968,note_on,80,0,0,,10,,,81,127
5968,note_on,0,0,0,,10,,,57,127
6083,note_off,115,0,0,,10,,,81,127
6085,note_on,2,0,0,,4,,,76,127
6200,note_off,115,0,0,,4,,,76,127
6202,note_on,2,0,0,,0,,,72,127
6317,note_off,115,0,0,,0,,,72,127
6319,note_on,2,0,0,,10,,,69,127
6434,note_off,115,0,0,,10,,,69,127
6434,note_off,0,0,0,,10,,,57,127
6436,note_on,2,0,0,,5,,,77,127
6436,note_on,0,0,0,,2,,,62,127
6551,note_off,115,0,0,,5,,,77,127
6553,note_on,2,0,0,,8,,,68,127
6668,note_off,115,0,0,,8,,,68,127
6668,note_off,0,0,0,,2,,,62,127
6670,note_on,2,0,0,,10,,,69,127
6670,note_on,0,0,0,,0,,,60,127
6903,note_off,233,0,0,,0,,,60,127
6903,note_off,0,0,0,,10,,,69,127
6905,note_on,2,0,0,,12,,,71,127
6905,note_on,0,0,0,,12,,,59,127
7138,note_off,233,0,0,,12,,,59,127
7138,note_off,0,0,0,,12,,,71,127
7140,note_on,2,0,0,,0,,,72,127
7140,note_on,0,0,0,,10,,,57,127
7373,note_off,233,0,0,,10,,,57,127
7373,note_off,0,0,0,,0,,,72,127
7375,note_on,2,0,0,,0,,,72,127
7375,note_on,0,0,0,,10,,,69,127
7490,note_off,115,0,0,,10,,,69,127
7492,note_on,2,0,0,,4,,,64,127
7607,note_off,115,0,0,,4,,,64,127
7609,note_on,2,0,0,,0,,,60,127
7724,note_off,115,0,0,,0,,,60,127
7726,note_on,2,0,0,,10,,,57,127
7841,note_off,115,0,0,,10,,,57,127
7841,note_off,0,0,0,,0,,,72,127
7843,note_on,2,0,0,,2,,,74,127
7843,note_on,0,0,0,,5,,,65,127
7958,note_off,115,0,0,,5,,,65,127
7960,note_on,2,0,0,,8,,,56,127
8075,note_off,115,0,0,,8,,,56,127
8075,note_off,0,0,0,,2,,,74,127
8077,note_on,2,0,0,,2,,,74,127
8077,note_on,0,0,0,,10,,,57,127
8133,note_off,56,0,0,,2,,,74,127
8135,note_on,2,0,0,,0,,,72,127
8191,note_off,56,0,0,,0,,,72,127
8193,note_on,2,0,0,,2,,,74,127
8249,note_off,56,0,0,,2,,,74,127
8251,note_on,2,0,0,,0,,,72,127
8307,note_off,56,0,0,,0,,,72,127
8307,note_off,0,0,0,,10,,,57,127
8309,note_on,2,0,0,,12,,,71,127
8309,note_on,0,0,0,,4,,,52,127
8542,note_off,233,0,0,,4,,,52,127
8542,note_off,0,0,0,,12,,,71,127
8544,note_on,2,0,0,,10,,,69,127
8544,note_on,0,0,0,,10,,,45,127
8764,note_off,220,0,0,,10,,,69,127
8776,note_off,12,0,0,,10,,,45,127
8778,note_on,2,0,0,,10,,,81,127
8778,note_on,0,0,0,,10,,,57,127
8893,note_off,115,0,0,,10,,,81,127
8895,note_on,2,0,0,,4,,,76,127
9010,note_off,115,0,0,,4,,,76,127
9012,note_on,2,0,0,,0,,,72,127
9127,note_off,115,0,0,,0,,,72,127
9129,note_on,2,0,0,,10,,,69,127
9244,note_off,115,0,0,,10,,,69,127
9244,note_off,0,0,0,,10,,,57,127
9246,note_on,2,0,0,,5,,,77,127
9246,note_on,0,0,0,,2,,,62,127
9361,note_off,115,0,0,,5,,,77,127
9363,note_on,2,0,0,,8,,,68,127
9478,note_off,115,0,0,,8,,,68,127
9478,note_off,0,0,0,,2,,,62,127
9480,note_on,2,0,0,,10,,,69,127
9480,note_on,0,0,0,,0,,,60,127
9713,note_off,233,0,0,,0,,,60,127
9713,note_off,0,0,0,,10,,,69,127
9715,note_on,2,0,0,,12,,,71,127
9715,note_on,0,0,0,,12,,,59,127
9948,note_off,233,0,0,,12,,,59,127
9948,note_off,0,0,0,,12,,,71,127
9950,note_on,2,0,0,,0,,,72,127
9950,note_on,0,0,0,,10,,,57,127
10177,note_off,227,0,0,,0,,,72,127
10183,note_off,6,0,0,,10,,,57,127
10185,note_on,2,0,0,,0,,,72,127
10185,note_on,0,0,0,,10,,,69,127
10300,note_off,115,0,0,,10,,,69,127
10302,note_on,2,0,0,,4,,,64,127
10417,note_off,115,0,0,,4,,,64,127
10419,note_on,2,0,0,,0,,,60,127
10534,note_off,115,0,0,,0,,,60,127
10536,note_on,2,0,0,,10,,,57,127
10651,note_off,115,0,0,,10,,,57,127
10651,note_off,0,0,0,,0,,,72,127
10653,note_on,2,0,0,,2,,,74,127
10653,note_on,0,0,0,,5,,,65,127
10768,note_off,115,0,0,,5,,,65,127
10770,note_on,2,0,0,,8,,,56,127
10885,note_off,115,0,0,,8,,,56,127
10885,note_off,0,0,0,,2,,,74,127
10887,note_on,2,0,0,,2,,,74,127
10887,note_on,0,0,0,,10,,,57,127
10943,note_off,56,0,0,,2,,,74,127
10945,note_on,2,0,0,,0,,,72,127
11001,note_off,56,0,0,,0,,,72,127
11003,note_on,2,0,0,,2,,,74,127
11059,note_off,56,0,0,,2,,,74,127
11061,note_on,2,0,0,,0,,,72,127
11117,note_off,56,0,0,,0,,,72,127
11117,note_off,0,0,0,,10,,,57,127
11119,note_on,2,0,0,,12,,,71,127
11119,note_on,0,0,0,,4,,,52,127
11352,note_off,233,0,0,,4,,,52,127
11352,note_off,0,0,0,,12,,,71,127
11354,note_on,2,0,0,,10,,,69,127
11354,note_on,0,0,0,,10,,,45,127
11599,note_off,245,0,0,,10,,,45,127
11609,note_on,10,0,0,,10,,,45,127
11609,note_on,0,0,0,,10,,,81,127
11697,note_off,88,0,0,,10,,,69,127
11724,note_off,27,0,0,,10,,,81,127
11726,note_on,2,0,0,,4,,,76,127
11841,note_off,115,0,0,,4,,,76,127
11841,note_off,0,0,0,,10,,,45,127
11843,note_on,2,0,0,,12,,,47,127
11843,note_on,0,0,0,,0,,,72,127
11958,note_off,115,0,0,,0,,,72,127
11960,note_on,2,0,0,,10,,,69,127
12075,note_off,115,0,0,,10,,,69,127
12075,note_off,0,0,0,,12,,,47,127
12077,note_on,2,0,0,,0,,,48,127
12077,note_on,0,0,0,,7,,,67,127
12077,note_on,0,0,0,,7,,,79,127
12077,note_on,0,0,0,,4,,,76,127
12310,note_off,233,0,0,,4,,,76,127
12310,note_off,0,0,0,,7,,,79,127
12310,note_off,0,0,0,,7,,,67,127
12310,note_off,0,0,0,,0,,,48,127
12312,note_on,2,0,0,,2,,,50,127
12312,note_on,0,0,0,,5,,,77,127
12427,note_off,115,0,0,,5,,,77,127
12429,note_on,2,0,0,,2,,,74,127
12544,note_off,115,0,0,,2,,,74,127
12546,note_on,2,0,0,,10,,,69,127
12661,note_off,115,0,0,,10,,,69,127
12663,note_on,2,0,0,,5,,,65,127
12778,note_off,115,0,0,,5,,,65,127
12778,note_off,0,0,0,,2,,,50,127
12780,note_on,2,0,0,,4,,,52,127
12780,note_on,0,0,0,,0,,,72,127
12780,note_on,0,0,0,,4,,,64,127
12780,note_on,0,0,0,,4,,,76,127
13013,note_off,233,0,0,,4,,,76,127
13013,note_off,0,0,0,,4,,,64,127
13013,note_off,0,0,0,,0,,,72,127
13013,note_off,0,0,0,,4,,,52,127
13015,note_on,2,0,0,,5,,,53,127
13015,note_on,0,0,0,,2,,,74,127
13130,note_off,115,0,0,,2,,,74,127
13132,note_on,2,0,0,,12,,,71,127
13247,note_off,115,0,0,,12,,,71,127
13249,note_on,2,0,0,,5,,,65,127
13364,note_off,115,0,0,,5,,,65,127
13366,note_on,2,0,0,,2,,,62,127
13481,note_off,115,0,0,,2,,,62,127
13481,note_off,0,0,0,,5,,,53,127
13483,note_on,2,0,0,,5,,,41,127
13483,note_on,0,0,0,,0,,,72,127
13483,note_on,0,0,0,,0,,,60,127
13483,note_on,0,0,0,,10,,,69,127
13716,note_off,233,0,0,,0,,,60,127
13716,note_off,0,0,0,,5,,,41,127
13718,note_on,2,0,0,,4,,,40,127
13951,note_off,233,0,0,,10,,,69,127
13951,note_off,0,0,0,,0,,,72,127
13953,note_on,2,0,0,,12,,,71,127
13953,note_on,0,0,0,,8,,,68,127
14068,note_off,115,0,0,,8,,,68,127
14068,note_off,0,0,0,,12,,,71,127
14070,note_on,2,0,0,,10,,,69,127
14070,note_on,0,0,0,,6,,,66,127
14185,note_off,115,0,0,,6,,,66,127
14185,note_off,0,0,0,,10,,,69,127
14187,note_on,2,0,0,,12,,,71,127
14187,note_on,0,0,0,,8,,,68,127
14420,note_off,233,0,0,,8,,,68,127
14420,note_off,0,0,0,,12,,,71,127
14420,note_off,0,0,0,,4,,,40,127
14442,note_on,22,0,0,,4,,,64,127
14557,note_off,115,0,0,,4,,,64,127
14559,note_on,2,0,0,,12,,,59,127
14674,note_off,115,0,0,,12,,,59,127
14676,note_on,2,0,0,,8,,,56,127
14791,note_off,115,0,0,,8,,,56,127
14793,note_on,2,0,0,,4,,,52,127
14908,note_off,115,0,0,,4,,,52,127
14910,note_on,2,0,0,,12,,,71,127
14910,note_on,0,0,0,,2,,,50,127
15025,note_off,115,0,0,,2,,,50,127
15027,note_on,2,0,0,,2,,,62,127
15142,note_off,115,0,0,,2,,,62,127
15142,note_off,0,0,0,,12,,,71,127
15144,note_on,2,0,0,,4,,,76,127
15144,note_on,0,0,0,,0,,,48,127
15259,note_off,115,0,0,,0,,,48,127
15261,note_on,2,0,0,,0,,,60,127
15376,note_off,115,0,0,,0,,,60,127
15378,note_on,2,0,0,,10,,,57,127
15493,note_off,115,0,0,,10,,,57,127
15495,note_on,2,0,0,,0,,,48,127
15610,note_off,115,0,0,,0,,,48,127
15610,note_off,0,0,0,,4,,,76,127
15612,note_on,2,0,0,,2,,,74,127
15612,note_on,0,0,0,,12,,,47,127
15727,note_off,115,0,0,,12,,,47,127
15729,note_on,2,0,0,,12,,,59,127
15844,note_off,115,0,0,,12,,,59,127
15844,note_off,0,0,0,,2,,,74,127
15846,note_on,2,0,0,,2,,,74,127
15846,note_on,0,0,0,,10,,,45,127
15905,note_on,59,0,0,,0,,,72,127
15923,note_off,18,0,0,,2,,,74,127
15961,note_off,38,0,0,,10,,,45,127
15963,note_on,2,0,0,,2,,,74,127
15963,note_on,0,0,0,,10,,,57,127
15981,note_off,18,0,0,,0,,,72,127
16021,note_on,40,0,0,,0,,,72,127
16039,note_off,18,0,0,,2,,,74,127
16077,note_off,38,0,0,,10,,,57,127
16079,note_on,2,0,0,,2,,,74,127
16079,note_on,0,0,0,,4,,,52,127
16097,note_off,18,0,0,,0,,,72,127
16137,note_on,40,0,0,,0,,,72,127
16155,note_off,18,0,0,,2,,,74,127
16193,note_off,38,0,0,,4,,,52,127
16195,note_on,2,0,0,,2,,,74,127
16195,note_on,0,0,0,,10,,,45,127
16213,note_off,18,0,0,,0,,,72,127
16253,note_on,40,0,0,,0,,,72,127
16271,note_off,18,0,0,,2,,,74,127
16309,note_off,38,0,0,,10,,,45,127
16311,note_off,2,0,0,,0,,,72,127
16311,note_on,0,0,0,,12,,,71,127
16311,note_on,0,0,0,,7,,,43,127
16426,note_off,115,0,0,,7,,,43,127
16428,note_on,2,0,0,,7,,,55,127
16543,note_off,115,0,0,,7,,,55,127
16543,note_off,0,0,0,,12,,,71,127
16545,note_on,2,0,0,,12,,,71,127
16545,note_on,0,0,0,,5,,,41,127
16604,note_on,59,0,0,,10,,,69,127
16622,note_off,18,0,0,,12,,,71,127
16660,note_off,38,0,0,,5,,,41,127
16662,note_on,2,0,0,,12,,,71,127
16662,note_on,0,0,0,,5,,,53,127
16680,note_off,18,0,0,,10,,,69,127
16720,note_on,40,0,0,,10,,,69,127
16738,note_off,18,0,0,,12,,,71,127
16776,note_off,38,0,0,,5,,,53,127
16778,note_on,2,0,0,,12,,,71,127
16778,note_on,0,0,0,,2,,,50,127
16796,note_off,18,0,0,,10,,,69,127
16836,note_on,40,0,0,,10,,,69,127
16854,note_off,18,0,0,,12,,,71,127
16892,note_off,38,0,0,,2,,,50,127
16894,note_on,2,0,0,,12,,,71,127
16894,note_on,0,0,0,,5,,,41,127
16912,note_off,18,0,0,,10,,,69,127
16952,note_on,40,0,0,,10,,,69,127
16970,note_off,18,0,0,,12,,,71,127
17008,note_off,38,0,0,,5,,,41,127
17010,note_off,2,0,0,,10,,,69,127
17010,note_on,0,0,0,,7,,,67,127
17010,note_on,0,0,0,,4,,,40,127
17125,note_off,115,0,0,,4,,,40,127
17127,note_on,2,0,0,,4,,,52,127
17242,note_off,115,0,0,,4,,,52,127
17242,note_off,0,0,0,,7,,,67,127
17244,note_on,2,0,0,,7,,,67,127
17244,note_on,0,0,0,,2,,,38,127
17303,note_on,59,0,0,,5,,,65,127
17321,note_off,18,0,0,,7,,,67,127
17359,note_off,38,0,0,,2,,,38,127
17361,note_on,2,0,0,,7,,,67,127
17361,note_on,0,0,0,,2,,,50,127
17379,note_off,18,0,0,,5,,,65,127
17419,note_on,40,0,0,,5,,,65,127
17437,note_off,18,0,0,,7,,,67,127
17475,note_off,38,0,0,,2,,,50,127
17477,note_on,2,0,0,,7,,,67,127
17477,note_on,0,0,0,,12,,,47,127
17495,note_off,18,0,0,,5,,,65,127
17535,note_on,40,0,0,,5,,,65,127
17553,note_off,18,0,0,,7,,,67,127
17591,note_off,38,0,0,,12,,,47,127
17593,note_on,2,0,0,,7,,,67,127
17593,note_on,0,0,0,,7,,,43,127
17611,note_off,18,0,0,,5,,,65,127
17651,note_on,40,0,0,,5,,,65,127
17669,note_off,18,0,0,,7,,,67,127
17707,note_off,38,0,0,,7,,,43,127
17709,note_off,2,0,0,,5,,,65,127
17709,note_on,0,0,0,,4,,,64,127
17709,note_on,0,0,0,,0,,,36,127
17942,note_off,233,0,0,,0,,,36,127
17942,note_off,0,0,0,,4,,,64,127
17964,note_on,22,0,0,,0,,,60,127
17964,note_on,0,0,0,,7,,,79,127
18079,note_off,115,0,0,,7,,,79,127
18081,note_on,2,0,0,,4,,,76,127
18196,note_off,115,0,0,,4,,,76,127
18198,note_on,2,0,0,,11,,,70,127
18313,note_off,115,0,0,,11,,,70,127
18315,note_on,2,0,0,,7,,,67,127
18430,note_off,115,0,0,,7,,,67,127
18430,note_off,0,0,0,,0,,,60,127
18432,note_on,2,0,0,,1,,,61,127
18432,note_on,0,0,0,,10,,,69,127
18547,note_off,115,0,0,,10,,,69,127
18549,note_on,2,0,0,,7,,,79,127
18664,note_off,115,0,0,,7,,,79,127
18664,note_off,0,0,0,,1,,,61,127
18666,note_on,2,0,0,,2,,,62,127
18666,note_on,0,0,0,,5,,,77,127
18899,note_off,233,0,0,,5,,,77,127
18899,note_off,0,0,0,,2,,,62,127
18901,note_on,2,0,0,,10,,,57,127
18901,note_on,0,0,0,,4,,,76,127
19134,note_off,233,0,0,,4,,,76,127
19134,note_off,0,0,0,,10,,,57,127
19136,note_on,2,0,0,,2,,,50,127
19136,note_on,0,0,0,,2,,,74,127
19369,note_off,233,0,0,,2,,,74,127
19369,note_off,0,0,0,,2,,,50,127
19371,note_on,2,0,0,,2,,,62,127
19371,note_on,0,0,0,,10,,,81,127
19486,note_off,115,0,0,,10,,,81,127
19488,note_on,2,0,0,,5,,,77,127
19603,note_off,115,0,0,,5,,,77,127
19605,note_on,2,0,0,,2,,,74,127
19720,note_off,115,0,0,,2,,,74,127
19722,note_on,2,0,0,,10,,,69,127
19837,note_off,115,0,0,,10,,,69,127
19837,note_off,0,0,0,,2,,,62,127
19839,note_on,2,0,0,,3,,,63,127
19839,note_on,0,0,0,,12,,,71,127
19954,note_off,115,0,0,,12,,,71,127
19956,note_on,2,0,0,,10,,,81,127
20071,note_off,115,0,0,,10,,,81,127
20071,note_off,0,0,0,,3,,,63,127
20073,note_on,2,0,0,,4,,,64,127
20073,note_on,0,0,0,,7,,,79,127
20306,note_off,233,0,0,,7,,,79,127
20306,note_off,0,0,0,,4,,,64,127
20308,note_on,2,0,0,,12,,,59,127
20308,note_on,0,0,0,,6,,,78,127
20541,note_off,233,0,0,,6,,,78,127
20541,note_off,0,0,0,,12,,,59,127
20543,note_on,2,0,0,,4,,,52,127
20543,note_on,0,0,0,,4,,,76,127
20776,note_off,233,0,0,,4,,,76,127
20776,note_off,0,0,0,,4,,,52,127
20778,note_on,2,0,0,,4,,,52,127
20778,note_on,0,0,0,,7,,,79,127
20893,note_off,115,0,0,,7,,,79,127
20895,note_on,2,0,0,,6,,,78,127
21010,note_off,115,0,0,,6,,,78,127
21010,note_off,0,0,0,,4,,,52,127
21012,note_on,2,0,0,,0,,,48,127
21012,note_on,0,0,0,,10,,,81,127
21127,note_off,115,0,0,,10,,,81,127
21129,note_on,2,0,0,,7,,,79,127
21244,note_off,115,0,0,,7,,,79,127
21244,note_off,0,0,0,,0,,,48,127
21246,note_on,2,0,0,,10,,,45,127
21246,note_on,0,0,0,,0,,,84,127
21361,note_off,115,0,0,,0,,,84,127
21363,note_on,2,0,0,,4,,,76,127
21478,note_off,115,0,0,,4,,,76,127
21478,note_off,0,0,0,,10,,,45,127
21480,note_on,2,0,0,,12,,,47,127
21480,note_on,0,0,0,,6,,,78,127
21536,note_off,56,0,0,,6,,,78,127
21538,note_on,2,0,0,,4,,,76,127
21594,note_off,56,0,0,,4,,,76,127
21596,note_on,2,0,0,,6,,,78,127
21652,note_off,56,0,0,,6,,,78,127
21654,note_on,2,0,0,,4,,,76,127
21710,note_off,56,0,0,,4,,,76,127
21712,note_on,2,0,0,,3,,,75,127
21827,note_off,115,0,0,,3,,,75,127
21829,note_on,2,0,0,,1,,,73,127
21944,note_off,115,0,0,,1,,,73,127
21946,note_on,2,0,0,,12,,,71,127
22179,note_off,233,0,0,,12,,,71,127
22179,note_off,0,0,0,,12,,,47,127
22201,note_on,22,0,0,,6,,,78,127
22201,note_on,0,0,0,,12,,,47,127
22316,note_off,115,0,0,,6,,,78,127
22318,note_on,2,0,0,,3,,,75,127
22433,note_off,115,0,0,,3,,,75,127
22433,note_off,0,0,0,,12,,,47,127
22435,note_on,2,0,0,,12,,,71,127
22435,note_on,0,0,0,,6,,,54,127
22550,note_off,115,0,0,,12,,,71,127
22552,note_on,2,0,0,,6,,,66,127
22667,note_off,115,0,0,,6,,,66,127
22667,note_off,0,0,0,,6,,,54,127
22669,note_on,2,0,0,,0,,,72,127
22669,note_on,0,0,0,,12,,,59,127
22784,note_off,115,0,0,,0,,,72,127
22786,note_on,2,0,0,,12,,,71,127
22901,note_off,115,0,0,,12,,,71,127
22901,note_off,0,0,0,,12,,,59,127
22903,note_on,2,0,0,,12,,,71,127
22903,note_on,0,0,0,,0,,,48,127
22959,note_off,56,0,0,,12,,,71,127
22961,note_on,2,0,0,,10,,,69,127
23017,note_off,56,0,0,,10,,,69,127
23019,note_on,2,0,0,,12,,,71,127
23075,note_off,56,0,0,,12,,,71,127
23077,note_on,2,0,0,,10,,,69,127
23133,note_off,56,0,0,,10,,,69,127
23133,note_off,0,0,0,,0,,,48,127
23135,note_on,2,0,0,,7,,,67,127
23135,note_on,0,0,0,,4,,,52,127
23368,note_off,233,0,0,,4,,,52,127
23368,note_off,0,0,0,,7,,,67,127
23370,note_on,2,0,0,,10,,,69,127
23370,note_on,0,0,0,,10,,,57,127
23603,note_off,233,0,0,,10,,,57,127
23603,note_off,0,0,0,,10,,,69,127
23605,note_on,2,0,0,,6,,,78,127
23605,note_on,0,0,0,,12,,,47,127
23720,note_off,115,0,0,,6,,,78,127
23722,note_on,2,0,0,,3,,,75,127
23837,note_off,115,0,0,,3,,,75,127
23837,note_off,0,0,0,,12,,,47,127
23839,note_on,2,0,0,,12,,,71,127
23839,note_on,0,0,0,,6,,,54,127
23954,note_off,115,0,0,,12,,,71,127
23956,note_on,2,0,0,,6,,,66,127
24071,note_off,115,0,0,,6,,,66,127
24071,note_off,0,0,0,,6,,,54,127
24073,note_on,2,0,0,,0,,,72,127
24073,note_on,0,0,0,,12,,,59,127
24188,note_off,115,0,0,,0,,,72,127
24190,note_on,2,0,0,,12,,,71,127
24305,note_off,115,0,0,,12,,,71,127
24305,note_off,0,0,0,,12,,,59,127
24307,note_on,2,0,0,,12,,,71,127
24307,note_on,0,0,0,,0,,,48,127
24363,note_off,56,0,0,,12,,,71,127
24365,note_on,2,0,0,,10,,,69,127
24421,note_off,56,0,0,,10,,,69,127
24423,note_on,2,0,0,,12,,,71,127
24479,note_off,56,0,0,,12,,,71,127
24481,note_on,2,0,0,,10,,,69,127
24537,note_off,56,0,0,,10,,,69,127
24537,note_off,0,0,0,,0,,,48,127
24539,note_on,2,0,0,,8,,,68,127
24539,note_on,0,0,0,,4,,,52,127
24772,note_off,233,0,0,,4,,,52,127
24772,note_off,0,0,0,,8,,,68,127
24774,note_on,2,0,0,,10,,,69,127
24774,note_on,0,0,0,,10,,,57,127
24994,note_off,220,0,0,,10,,,69,127
25006,note_off,12,0,0,,10,,,57,127
25008,note_on,2,0,0,,10,,,81,127
25008,note_on,0,0,0,,12,,,47,127
25123,note_off,115,0,0,,10,,,81,127
25125,note_on,2,0,0,,6,,,78,127
25240,note_off,115,0,0,,6,,,78,127
25242,note_on,2,0,0,,3,,,75,127
25357,note_off,115,0,0,,3,,,75,127
25359,note_on,2,0,0,,12,,,71,127
25474,note_off,115,0,0,,12,,,71,127
25474,note_off,0,0,0,,12,,,47,127
25476,note_on,2,0,0,,12,,,83,127
25476,note_on,0,0,0,,3,,,51,127
25591,note_off,115,0,0,,12,,,83,127
25593,note_on,2,0,0,,10,,,81,127
25708,note_off,115,0,0,,10,,,81,127
25708,note_off,0,0,0,,3,,,51,127
25710,note_on,2,0,0,,7,,,79,127
25710,note_on,0,0,0,,4,,,52,127
25943,note_off,233,0,0,,4,,,52,127
25943,note_off,0,0,0,,7,,,79,127
25945,note_on,2,0,0,,10,,,81,127
25945,note_on,0,0,0,,6,,,54,127
26178,note_off,233,0,0,,6,,,54,127
26178,note_off,0,0,0,,10,,,81,127
26180,note_on,2,0,0,,12,,,83,127
26180,note_on,0,0,0,,7,,,55,127
26413,note_off,233,0,0,,7,,,55,127
26413,note_off,0,0,0,,12,,,83,127
26415,note_on,2,0,0,,0,,,84,127
26415,note_on,0,0,0,,10,,,57,127
26648,note_off,233,0,0,,10,,,57,127
26648,note_off,0,0,0,,0,,,84,127
26650,note_on,2,0,0,,4,,,76,127
26650,note_on,0,0,0,,12,,,59,127
26883,note_off,233,0,0,,4,,,76,127
26885,note_on,2,0,0,,4,,,76,127
26885,note_on,0,0,0,,12,,,47,127
26941,note_off,56,0,0,,4,,,76,127
26943,note_on,2,0,0,,3,,,75,127
26999,note_off,56,0,0,,3,,,75,127
27001,note_on,2,0,0,,1,,,73,127
27057,note_off,56,0,0,,1,,,73,127
27059,note_on,2,0,0,,3,,,75,127
27113,note_off,54,0,0,,12,,,59,127
27115,note_off,2,0,0,,3,,,75,127
27115,note_off,0,0,0,,12,,,47,127
27117,note_on,2,0,0,,3,,,75,127
27117,note_on,0,0,0,,4,,,52,127
27585,note_off,468,0,0,,3,,,75,127
27587,note_on,2,0,0,,4,,,76,127
27807,note_off,220,0,0,,4,,,76,127
27839,note_off,32,0,0,,4,,,52,127
27851,note_on,12,0,0,,12,,,47,127
27969,note_on,118,0,0,,12,,,71,127
28084,note_off,115,0,0,,12,,,71,127
28084,note_off,0,0,0,,12,,,47,127
28086,note_on,2,0,0,,6,,,54,127
28086,note_on,0,0,0,,0,,,72,127
28201,note_off,115,0,0,,0,,,72,127
28203,note_on,2,0,0,,2,,,74,127
28318,note_off,115,0,0,,2,,,74,127
28318,note_off,0,0,0,,6,,,54,127
28320,note_on,2,0,0,,12,,,59,127
28320,note_on,0,0,0,,0,,,72,127
28435,note_off,115,0,0,,0,,,72,127
28437,note_on,2,0,0,,12,,,71,127
28552,note_off,115,0,0,,12,,,71,127
28552,note_off,0,0,0,,12,,,59,127
28554,note_on,2,0,0,,0,,,48,127
28554,note_on,0,0,0,,12,,,71,127
28669,note_off,115,0,0,,12,,,71,127
28671,note_on,2,0,0,,10,,,69,127
28786,note_off,115,0,0,,10,,,69,127
28786,note_off,0,0,0,,0,,,48,127
28788,note_on,2,0,0,,4,,,52,127
28788,note_on,0,0,0,,8,,,68,127
28903,note_off,115,0,0,,8,,,68,127
28905,note_on,2,0,0,,10,,,69,127
29020,note_off,115,0,0,,10,,,69,127
29020,note_off,0,0,0,,4,,,52,127
29022,note_on,2,0,0,,10,,,57,127
29022,note_on,0,0,0,,8,,,68,127
29137,note_off,115,0,0,,8,,,68,127
29139,note_on,2,0,0,,10,,,69,127
29254,note_off,115,0,0,,10,,,69,127
29254,note_off,0,0,0,,10,,,57,127
29256,note_on,2,0,0,,12,,,47,127
29374,note_on,118,0,0,,12,,,71,127
29489,note_off,115,0,0,,12,,,71,127
29489,note_off,0,0,0,,12,,,47,127
29491,note_on,2,0,0,,6,,,54,127
29491,note_on,0,0,0,,0,,,72,127
29606,note_off,115,0,0,,0,,,72,127
29608,note_on,2,0,0,,2,,,74,127
29723,note_off,115,0,0,,2,,,74,127
29723,note_off,0,0,0,,6,,,54,127
29725,note_on,2,0,0,,12,,,59,127
29725,note_on,0,0,0,,0,,,72,127
29840,note_off,115,0,0,,0,,,72,127
29842,note_on,2,0,0,,12,,,71,127
29957,note_off,115,0,0,,12,,,71,127
29957,note_off,0,0,0,,12,,,59,127
29959,note_on,2,0,0,,0,,,48,127
29959,note_on,0,0,0,,4,,,76,127
30074,note_off,115,0,0,,4,,,76,127
30076,note_on,2,0,0,,10,,,69,127
30191,note_off,115,0,0,,10,,,69,127
30191,note_off,0,0,0,,0,,,48,127
30193,note_on,2,0,0,,4,,,52,127
30193,note_on,0,0,0,,8,,,68,127
30308,note_off,115,0,0,,8,,,68,127
30310,note_on,2,0,0,,10,,,69,127
30425,note_off,115,0,0,,10,,,69,127
30425,note_off,0,0,0,,4,,,52,127
30427,note_on,2,0,0,,10,,,57,127
30427,note_on,0,0,0,,8,,,68,127
30542,note_off,115,0,0,,8,,,68,127
30544,note_on,2,0,0,,10,,,69,127
30659,note_off,115,0,0,,10,,,69,127
30659,note_off,0,0,0,,10,,,57,127
30661,note_on,2,0,0,,12,,,47,127
30661,note_on,0,0,0,,10,,,81,127
30776,note_off,115,0,0,,10,,,81,127
30778,note_on,2,0,0,,6,,,78,127
30893,note_off,115,0,0,,6,,,78,127
30895,note_on,2,0,0,,3,,,75,127
31010,note_off,115,0,0,,3,,,75,127
31012,note_on,2,0,0,,12,,,71,127
31127,note_off,115,0,0,,12,,,71,127
31127,note_off,0,0,0,,12,,,47,127
31129,note_on,2,0,0,,3,,,51,127
31129,note_on,0,0,0,,12,,,83,127
31244,note_off,115,0,0,,12,,,83,127
31246,note_on,2,0,0,,10,,,81,127
31361,note_off,115,0,0,,10,,,81,127
31361,note_off,0,0,0,,3,,,51,127
31363,note_on,2,0,0,,4,,,52,127
31363,note_on,0,0,0,,7,,,79,127
31596,note_off,233,0,0,,7,,,79,127
31596,note_off,0,0,0,,4,,,52,127
31598,note_on,2,0,0,,6,,,54,127
31598,note_on,0,0,0,,10,,,81,127
31831,note_off,233,0,0,,10,,,81,127
31831,note_off,0,0,0,,6,,,54,127
31833,note_on,2,0,0,,7,,,55,127
31833,note_on,0,0,0,,12,,,83,127
32066,note_off,233,0,0,,12,,,83,127
32066,note_off,0,0,0,,7,,,55,127
32068,note_on,2,0,0,,10,,,57,127
32068,note_on,0,0,0,,0,,,84,127
32301,note_off,233,0,0,,0,,,84,127
32301,note_off,0,0,0,,10,,,57,127
32303,note_on,2,0,0,,12,,,59,127
32303,note_on,0,0,0,,4,,,76,127
32536,note_off,233,0,0,,4,,,76,127
32538,note_on,2,0,0,,12,,,47,127
32538,note_on,0,0,0,,4,,,76,127
32594,note_off,56,0,0,,4,,,76,127
32596,note_on,2,0,0,,3,,,75,127
32652,note_off,56,0,0,,3,,,75,127
32654,note_on,2,0,0,,1,,,73,127
32710,note_off,56,0,0,,1,,,73,127
32712,note_on,2,0,0,,3,,,75,127
32766,note_off,54,0,0,,12,,,59,127
32768,note_off,2,0,0,,3,,,75,127
32768,note_off,0,0,0,,12,,,47,127
32770,note_on,2,0,0,,4,,,52,127
32770,note_on,0,0,0,,4,,,76,127
32885,note_off,115,0,0,,4,,,76,127
32887,note_on,2,0,0,,8,,,80,127
33002,note_off,115,0,0,,8,,,80,127
33004,note_on,2,0,0,,12,,,83,127
33119,note_off,115,0,0,,4,,,52,127
33121,note_on,2,0,0,,4,,,64,127
33236,note_off,115,0,0,,4,,,64,127
33236,note_off,0,0,0,,12,,,83,127
33238,note_on,2,0,0,,4,,,40,127
33356,note_on,118,0,0,,8,,,80,127
33471,note_off,115,0,0,,8,,,80,127
33471,note_off,0,0,0,,4,,,40,127
33473,note_on,2,0,0,,12,,,83,127
33591,note_on,118,0,0,,4,,,64,127
33706,note_off,115,0,0,,4,,,64,127
33706,note_off,0,0,0,,12,,,83,127
33708,note_on,2,0,0,,4,,,40,127
33826,note_on,118,0,0,,8,,,80,127
33941,note_off,115,0,0,,8,,,80,127
33941,note_off,0,0,0,,4,,,40,127
33943,note_on,2,0,0,,4,,,64,127
33943,note_on,0,0,0,,12,,,83,127
34058,note_off,115,0,0,,12,,,83,127
34060,note_on,2,0,0,,8,,,80,127
34175,note_off,115,0,0,,8,,,80,127
34175,note_off,0,0,0,,4,,,64,127
34177,note_on,2,0,0,,4,,,40,127
34177,note_on,0,0,0,,12,,,83,127
34292,note_off,115,0,0,,12,,,83,127
34294,note_on,2,0,0,,10,,,81,127
34409,note_off,115,0,0,,10,,,81,127
34409,note_off,0,0,0,,4,,,40,127
34411,note_on,2,0,0,,6,,,42,127
34411,note_on,0,0,0,,8,,,80,127
34526,note_off,115,0,0,,8,,,80,127
34528,note_on,2,0,0,,6,,,78,127
34643,note_off,115,0,0,,6,,,78,127
34643,note_off,0,0,0,,6,,,42,127
34645,note_on,2,0,0,,8,,,44,127
34645,note_on,0,0,0,,4,,,76,127
34760,note_off,115,0,0,,4,,,76,127
34762,note_on,2,0,0,,8,,,80,127
34877,note_off,115,0,0,,8,,,80,127
34877,note_off,0,0,0,,8,,,44,127
34879,note_on,2,0,0,,10,,,45,127
34879,note_on,0,0,0,,6,,,78,127
34994,note_off,115,0,0,,6,,,78,127
34996,note_on,2,0,0,,10,,,81,127
35111,note_off,115,0,0,,10,,,81,127
35111,note_off,0,0,0,,10,,,45,127
35113,note_on,2,0,0,,12,,,47,127
35113,note_on,0,0,0,,8,,,80,127
35228,note_off,115,0,0,,8,,,80,127
35230,note_on,2,0,0,,6,,,78,127
35345,note_off,115,0,0,,6,,,78,127
35345,note_off,0,0,0,,12,,,47,127
35347,note_on,2,0,0,,12,,,47,127
35347,note_on,0,0,0,,4,,,76,127
35462,note_off,115,0,0,,4,,,76,127
35464,note_on,2,0,0,,3,,,75,127
35579,note_off,115,0,0,,3,,,75,127
35579,note_off,0,0,0,,12,,,47,127
35581,note_on,2,0,0,,4,,,52,127
35581,note_on,0,0,0,,4,,,76,127
35696,note_off,115,0,0,,4,,,76,127
35698,note_on,2,0,0,,8,,,80,127
35813,note_off,115,0,0,,8,,,80,127
35815,note_on,2,0,0,,12,,,83,127
35930,note_off,115,0,0,,4,,,52,127
35932,note_on,2,0,0,,4,,,64,127
36047,note_off,115,0,0,,4,,,64,127
36047,note_off,0,0,0,,12,,,83,127
36049,note_on,2,0,0,,4,,,40,127
36167,note_on,118,0,0,,8,,,80,127
36282,note_off,115,0,0,,8,,,80,127
36282,note_off,0,0,0,,4,,,40,127
36284,note_on,2,0,0,,12,,,83,127
36402,note_on,118,0,0,,4,,,64,127
36517,note_off,115,0,0,,4,,,64,127
36517,note_off,0,0,0,,12,,,83,127
36519,note_on,2,0,0,,4,,,40,127
36637,note_on,118,0,0,,8,,,80,127
36752,note_off,115,0,0,,8,,,80,127
36752,note_off,0,0,0,,4,,,40,127
36754,note_on,2,0,0,,4,,,64,127
36754,note_on,0,0,0,,12,,,83,127
36869,note_off,115,0,0,,12,,,83,127
36871,note_on,2,0,0,,8,,,80,127
36986,note_off,115,0,0,,8,,,80,127
36986,note_off,0,0,0,,4,,,64,127
36988,note_on,2,0,0,,4,,,40,127
36988,note_on,0,0,0,,12,,,83,127
37103,note_off,115,0,0,,12,,,83,127
37105,note_on,2,0,0,,10,,,81,127
37220,note_off,115,0,0,,10,,,81,127
37220,note_off,0,0,0,,4,,,40,127
37222,note_on,2,0,0,,6,,,42,127
37222,note_on,0,0,0,,8,,,80,127
37337,note_off,115,0,0,,8,,,80,127
37339,note_on,2,0,0,,6,,,78,127
37454,note_off,115,0,0,,6,,,78,127
37454,note_off,0,0,0,,6,,,42,127
37456,note_on,2,0,0,,8,,,44,127
37456,note_on,0,0,0,,4,,,76,127
37571,note_off,115,0,0,,4,,,76,127
37573,note_on,2,0,0,,8,,,80,127
37688,note_off,115,0,0,,8,,,80,127
37688,note_off,0,0,0,,8,,,44,127
37690,note_on,2,0,0,,10,,,45,127
37690,note_on,0,0,0,,6,,,78,127
37805,note_off,115,0,0,,6,,,78,127
37807,note_on,2,0,0,,10,,,81,127
37922,note_off,115,0,0,,10,,,81,127
37922,note_off,0,0,0,,10,,,45,127
37924,note_on,2,0,0,,12,,,47,127
37924,note_on,0,0,0,,8,,,80,127
38039,note_off,115,0,0,,8,,,80,127
38041,note_on,2,0,0,,6,,,78,127
38156,note_off,115,0,0,,6,,,78,127
38156,note_off,0,0,0,,12,,,47,127
38158,note_on,2,0,0,,12,,,47,127
38158,note_on,0,0,0,,4,,,76,127
38273,note_off,115,0,0,,4,,,76,127
38275,note_on,2,0,0,,3,,,75,127
38390,note_off,115,0,0,,3,,,75,127
38390,note_off,0,0,0,,12,,,47,127
38392,note_on,2,0,0,,4,,,52,127
38392,note_on,0,0,0,,4,,,76,127
38507,note_off,115,0,0,,4,,,76,127
38509,note_on,2,0,0,,3,,,75,127
38624,note_off,115,0,0,,3,,,75,127
38624,note_off,0,0,0,,4,,,52,127
38626,note_on,2,0,0,,6,,,54,127
38626,note_on,0,0,0,,1,,,73,127
38741,note_off,115,0,0,,1,,,73,127
38743,note_on,2,0,0,,12,,,71,127
38858,note_off,115,0,0,,12,,,71,127
38858,note_off,0,0,0,,6,,,54,127
38860,note_on,2,0,0,,8,,,56,127
38860,note_on,0,0,0,,10,,,69,127
38975,note_off,115,0,0,,10,,,69,127
38977,note_on,2,0,0,,8,,,68,127
39092,note_off,115,0,0,,8,,,68,127
39092,note_off,0,0,0,,8,,,56,127
39094,note_on,2,0,0,,10,,,57,127
39094,note_on,0,0,0,,6,,,66,127
39209,note_off,115,0,0,,6,,,66,127
39211,note_on,2,0,0,,10,,,69,127
39326,note_off,115,0,0,,10,,,69,127
39326,note_off,0,0,0,,10,,,57,127
39328,note_on,2,0,0,,12,,,59,127
39328,note_on,0,0,0,,8,,,68,127
39443,note_off,115,0,0,,8,,,68,127
39445,note_on,2,0,0,,6,,,66,127
39560,note_off,115,0,0,,6,,,66,127
39560,note_off,0,0,0,,12,,,59,127
39562,note_on,2,0,0,,12,,,47,127
39562,note_on,0,0,0,,4,,,64,127
39677,note_off,115,0,0,,4,,,64,127
39679,note_on,2,0,0,,3,,,63,127
39794,note_off,115,0,0,,3,,,63,127
39794,note_off,0,0,0,,12,,,47,127
39796,note_on,2,0,0,,4,,,40,127
39796,note_on,0,0,0,,4,,,64,127
40384,note_off,588,0,0,,4,,,64,127
40499,note_off,115,0,0,,4,,,40,127
40521,note_on,22,0,0,,4,,,64,127
40636,note_off,115,0,0,,4,,,64,127
40638,note_on,2,0,0,,12,,,59,127
40753,note_off,115,0,0,,12,,,59,127
40755,note_on,2,0,0,,8,,,56,127
40870,note_off,115,0,0,,8,,,56,127
40872,note_on,2,0,0,,4,,,52,127
40987,note_off,115,0,0,,4,,,52,127
40989,note_on,2,0,0,,12,,,71,127
40989,note_on,0,0,0,,2,,,50,127
41104,note_off,115,0,0,,2,,,50,127
41106,note_on,2,0,0,,2,,,62,127
41221,note_off,115,0,0,,2,,,62,127
41221,note_off,0,0,0,,12,,,71,127
41223,note_on,2,0,0,,4,,,76,127
41223,note_on,0,0,0,,1,,,61,127
41338,note_off,115,0,0,,1,,,61,127
41340,note_on,2,0,0,,10,,,57,127
41455,note_off,115,0,0,,10,,,57,127
41457,note_on,2,0,0,,4,,,52,127
41572,note_off,115,0,0,,4,,,52,127
41574,note_on,2,0,0,,1,,,49,127
41689,note_off,115,0,0,,1,,,49,127
41689,note_off,0,0,0,,4,,,76,127
41691,note_on,2,0,0,,2,,,74,127
41691,note_on,0,0,0,,12,,,47,127
41806,note_off,115,0,0,,12,,,47,127
41808,note_on,2,0,0,,12,,,59,127
41923,note_off,115,0,0,,12,,,59,127
41923,note_off,0,0,0,,2,,,74,127
41925,note_on,2,0,0,,1,,,73,127
41925,note_on,0,0,0,,10,,,57,127
42040,note_off,115,0,0,,10,,,57,127
42042,note_on,2,0,0,,4,,,52,127
42157,note_off,115,0,0,,4,,,52,127
42159,note_on,2,0,0,,1,,,49,127
42274,note_off,115,0,0,,1,,,49,127
42276,note_on,2,0,0,,10,,,45,127
42391,note_off,115,0,0,,10,,,45,127
42391,note_off,0,0,0,,1,,,73,127
42393,note_on,2,0,0,,12,,,71,127
42393,note_on,0,0,0,,4,,,40,127
42626,note_off,233,0,0,,4,,,40,127
42626,note_off,0,0,0,,12,,,71,127
42628,note_on,2,0,0,,2,,,74,127
42628,note_on,0,0,0,,10,,,45,127
42684,note_off,56,0,0,,2,,,74,127
42686,note_on,2,0,0,,1,,,73,127
42742,note_off,56,0,0,,1,,,73,127
42744,note_on,2,0,0,,2,,,74,127
42800,note_off,56,0,0,,2,,,74,127
42802,note_on,2,0,0,,1,,,73,127
42858,note_off,56,0,0,,1,,,73,127
42860,note_on,2,0,0,,12,,,71,127
42975,note_off,115,0,0,,12,,,71,127
42977,note_on,2,0,0,,1,,,73,127
43092,note_off,115,0,0,,1,,,73,127
43094,note_on,2,0,0,,10,,,69,127
43327,note_off,233,0,0,,10,,,69,127
43327,note_off,0,0,0,,10,,,45,127
43329,note_on,2,0,0,,10,,,81,127
43329,note_on,0,0,0,,10,,,45,127
43444,note_off,115,0,0,,10,,,81,127
43446,note_on,2,0,0,,4,,,76,127
43561,note_off,115,0,0,,4,,,76,127
43561,note_off,0,0,0,,10,,,45,127
43563,note_on,2,0,0,,1,,,73,127
43563,note_on,0,0,0,,12,,,47,127
43678,note_off,115,0,0,,1,,,73,127
43680,note_on,2,0,0,,10,,,69,127
43795,note_off,115,0,0,,10,,,69,127
43795,note_off,0,0,0,,12,,,47,127
43797,note_on,2,0,0,,8,,,68,127
43797,note_on,0,0,0,,1,,,49,127
43915,note_on,118,0,0,,8,,,80,127
44030,note_off,115,0,0,,8,,,80,127
44030,note_off,0,0,0,,1,,,49,127
44030,note_off,0,0,0,,8,,,68,127
44032,note_on,2,0,0,,6,,,78,127
44032,note_on,0,0,0,,2,,,50,127
44147,note_off,115,0,0,,6,,,78,127
44149,note_on,2,0,0,,2,,,74,127
44264,note_off,115,0,0,,2,,,74,127
44266,note_on,2,0,0,,10,,,69,127
44381,note_off,115,0,0,,10,,,69,127
44383,note_on,2,0,0,,6,,,66,127
44498,note_off,115,0,0,,6,,,66,127
44498,note_off,0,0,0,,2,,,50,127
44500,note_on,2,0,0,,4,,,64,127
44500,note_on,0,0,0,,1,,,49,127
44618,note_on,118,0,0,,4,,,76,127
44733,note_off,115,0,0,,4,,,76,127
44733,note_off,0,0,0,,1,,,49,127
44733,note_off,0,0,0,,4,,,64,127
44735,note_on,2,0,0,,2,,,74,127
44735,note_on,0,0,0,,12,,,47,127
44850,note_off,115,0,0,,2,,,74,127
44852,note_on,2,0,0,,12,,,71,127
44967,note_off,115,0,0,,12,,,71,127
44969,note_on,2,0,0,,8,,,68,127
45084,note_off,115,0,0,,8,,,68,127
45086,note_on,2,0,0,,2,,,62,127
45201,note_off,115,0,0,,2,,,62,127
45201,note_off,0,0,0,,12,,,47,127
45203,note_on,2,0,0,,1,,,61,127
45203,note_on,0,0,0,,10,,,45,127
45321,note_on,118,0,0,,1,,,73,127
45436,note_off,115,0,0,,1,,,73,127
45436,note_off,0,0,0,,10,,,45,127
45436,note_off,0,0,0,,1,,,61,127
45438,note_on,2,0,0,,1,,,73,127
45438,note_on,0,0,0,,4,,,40,127
45671,note_off,233,0,0,,1,,,73,127
45673,note_on,2,0,0,,1,,,73,127
45729,note_off,56,0,0,,1,,,73,127
45731,note_on,2,0,0,,12,,,71,127
45787,note_off,56,0,0,,12,,,71,127
45789,note_on,2,0,0,,1,,,73,127
45845,note_off,56,0,0,,1,,,73,127
45847,note_on,2,0,0,,12,,,71,127
45903,note_off,56,0,0,,12,,,71,127
45905,note_on,2,0,0,,1,,,73,127
45961,note_off,56,0,0,,1,,,73,127
45963,note_on,2,0,0,,12,,,71,127
46019,note_off,56,0,0,,12,,,71,127
46021,note_on,2,0,0,,10,,,69,127
46077,note_off,56,0,0,,10,,,69,127
46079,note_on,2,0,0,,12,,,71,127
46135,note_off,56,0,0,,4,,,40,127
46137,note_on,2,0,0,,12,,,59,127
46137,note_on,0,0,0,,4,,,52,127
46252,note_off,115,0,0,,12,,,71,127
46254,note_on,2,0,0,,8,,,68,127
46369,note_off,115,0,0,,8,,,68,127
46371,note_on,2,0,0,,4,,,64,127
46489,note_on,118,0,0,,4,,,76,127
46604,note_off,115,0,0,,4,,,76,127
46604,note_off,0,0,0,,4,,,64,127
46606,note_on,2,0,0,,2,,,74,127
46721,note_off,115,0,0,,2,,,74,127
46723,note_on,2,0,0,,1,,,73,127
46838,note_off,115,0,0,,1,,,73,127
46838,note_off,0,0,0,,4,,,52,127
46838,note_off,0,0,0,,12,,,59,127
46840,note_on,2,0,0,,1,,,73,127
46840,note_on,0,0,0,,12,,,59,127
46840,note_on,0,0,0,,2,,,50,127
46896,note_off,56,0,0,,1,,,73,127
46898,note_on,2,0,0,,12,,,71,127
46954,note_off,56,0,0,,12,,,71,127
46956,note_on,2,0,0,,1,,,73,127
47012,note_off,56,0,0,,1,,,73,127
47014,note_on,2,0,0,,12,,,71,127
47070,note_off,56,0,0,,12,,,71,127
47072,note_on,2,0,0,,11,,,70,127
47305,note_off,233,0,0,,11,,,70,127
47307,note_on,2,0,0,,12,,,71,127
47527,note_off,220,0,0,,12,,,71,127
47539,note_off,12,0,0,,2,,,50,127
47539,note_off,0,0,0,,12,,,59,127
47541,note_on,2,0,0,,12,,,71,127
47541,note_on,0,0,0,,2,,,50,127
47541,note_on,0,0,0,,8,,,56,127
47656,note_off,115,0,0,,12,,,71,127
47658,note_on,2,0,0,,8,,,68,127
47773,note_off,115,0,0,,8,,,68,127
47775,note_on,2,0,0,,2,,,62,127
47893,note_on,118,0,0,,2,,,74,127
48008,note_off,115,0,0,,2,,,74,127
48008,note_off,0,0,0,,2,,,62,127
48010,note_on,2,0,0,,1,,,73,127
48125,note_off,115,0,0,,1,,,73,127
48127,note_on,2,0,0,,12,,,71,127
48242,note_off,115,0,0,,12,,,71,127
48242,note_off,0,0,0,,8,,,56,127
48242,note_off,0,0,0,,2,,,50,127
48244,note_on,2,0,0,,12,,,71,127
48244,note_on,0,0,0,,10,,,57,127
48244,note_on,0,0,0,,1,,,49,127
48300,note_off,56,0,0,,12,,,71,127
48302,note_on,2,0,0,,10,,,69,127
48358,note_off,56,0,0,,10,,,69,127
48360,note_on,2,0,0,,12,,,71,127
48416,note_off,56,0,0,,12,,,71,127
48418,note_on,2,0,0,,10,,,69,127
48474,note_off,56,0,0,,10,,,69,127
48476,note_on,2,0,0,,8,,,68,127
48709,note_off,233,0,0,,8,,,68,127
48711,note_on,2,0,0,,10,,,69,127
48944,note_off,233,0,0,,10,,,69,127
48944,note_off,0,0,0,,1,,,49,127
48944,note_off,0,0,0,,10,,,57,127
48946,note_on,2,0,0,,10,,,81,127
48946,note_on,0,0,0,,12,,,47,127
49061,note_off,115,0,0,,10,,,81,127
49063,note_on,2,0,0,,6,,,78,127
49178,note_off,115,0,0,,6,,,78,127
49178,note_off,0,0,0,,12,,,47,127
49180,note_on,2,0,0,,3,,,75,127
49180,note_on,0,0,0,,1,,,49,127
49295,note_off,115,0,0,,3,,,75,127
49297,note_on,2,0,0,,1,,,85,127
49412,note_off,115,0,0,,1,,,85,127
49412,note_off,0,0,0,,1,,,49,127
49414,note_on,2,0,0,,12,,,83,127
49414,note_on,0,0,0,,3,,,51,127
49529,note_off,115,0,0,,12,,,83,127
49531,note_on,2,0,0,,10,,,81,127
49646,note_off,115,0,0,,10,,,81,127
49646,note_off,0,0,0,,3,,,51,127
49648,note_on,2,0,0,,8,,,80,127
49648,note_on,0,0,0,,4,,,52,127
49763,note_off,115,0,0,,8,,,80,127
49765,note_on,2,0,0,,6,,,78,127
49880,note_off,115,0,0,,6,,,78,127
49880,note_off,0,0,0,,4,,,52,127
49882,note_on,2,0,0,,4,,,76,127
49882,note_on,0,0,0,,6,,,54,127
49997,note_off,115,0,0,,4,,,76,127
49999,note_on,2,0,0,,2,,,74,127
50114,note_off,115,0,0,,2,,,74,127
50114,note_off,0,0,0,,6,,,54,127
50116,note_on,2,0,0,,1,,,73,127
50116,note_on,0,0,0,,8,,,56,127
50231,note_off,115,0,0,,1,,,73,127
50233,note_on,2,0,0,,12,,,71,127
50348,note_off,115,0,0,,12,,,71,127
50348,note_off,0,0,0,,8,,,56,127
50350,note_on,2,0,0,,1,,,73,127
50350,note_on,0,0,0,,10,,,57,127
50426,note_off,76,0,0,,1,,,73,127
50428,note_on,2,0,0,,2,,,74,127
50504,note_off,76,0,0,,2,,,74,127
50506,note_on,2,0,0,,4,,,76,127
50582,note_off,76,0,0,,4,,,76,127
50582,note_off,0,0,0,,10,,,57,127
50584,note_on,2,0,0,,2,,,74,127
50584,note_on,0,0,0,,6,,,54,127
50699,note_off,115,0,0,,2,,,74,127
50701,note_on,2,0,0,,1,,,73,127
50816,note_off,115,0,0,,1,,,73,127
50816,note_off,0,0,0,,6,,,54,127
50818,note_on,2,0,0,,12,,,71,127
50818,note_on,0,0,0,,2,,,50,127
50933,note_off,115,0,0,,12,,,71,127
50935,note_on,2,0,0,,10,,,69,127
51050,note_off,115,0,0,,10,,,69,127
51050,note_off,0,0,0,,2,,,50,127
51052,note_on,2,0,0,,10,,,69,127
51052,note_on,0,0,0,,4,,,40,127
51108,note_off,56,0,0,,10,,,69,127
51110,note_on,2,0,0,,8,,,68,127
51166,note_off,56,0,0,,8,,,68,127
51168,note_on,2,0,0,,10,,,69,127
51224,note_off,56,0,0,,10,,,69,127
51226,note_on,2,0,0,,8,,,68,127
51282,note_off,56,0,0,,8,,,68,127
51284,note_on,2,0,0,,10,,,69,127
51340,note_off,56,0,0,,10,,,69,127
51342,note_on,2,0,0,,8,,,68,127
51398,note_off,56,0,0,,8,,,68,127
51400,note_on,2,0,0,,6,,,66,127
51515,note_off,115,0,0,,6,,,66,127
51517,note_on,2,0,0,,4,,,64,127
51750,note_off,233,0,0,,4,,,64,127
51750,note_off,0,0,0,,4,,,40,127
51772,note_on,22,0,0,,4,,,52,127
51890,note_on,118,0,0,,4,,,76,127
52005,note_off,115,0,0,,4,,,76,127
52005,note_off,0,0,0,,4,,,52,127
52007,note_on,2,0,0,,12,,,59,127
52007,note_on,0,0,0,,5,,,77,127
52122,note_off,115,0,0,,5,,,77,127
52124,note_on,2,0,0,,7,,,79,127
52239,note_off,115,0,0,,7,,,79,127
52239,note_off,0,0,0,,12,,,59,127
52241,note_on,2,0,0,,4,,,64,127
52241,note_on,0,0,0,,5,,,77,127
52356,note_off,115,0,0,,5,,,77,127
52358,note_on,2,0,0,,4,,,76,127
52473,note_off,115,0,0,,4,,,76,127
52473,note_off,0,0,0,,4,,,64,127
52475,note_on,2,0,0,,5,,,53,127
52475,note_on,0,0,0,,4,,,76,127
52590,note_off,115,0,0,,4,,,76,127
52592,note_on,2,0,0,,2,,,74,127
52707,note_off,115,0,0,,2,,,74,127
52707,note_off,0,0,0,,5,,,53,127
52709,note_on,2,0,0,,10,,,57,127
52709,note_on,0,0,0,,1,,,73,127
52824,note_off,115,0,0,,1,,,73,127
52826,note_on,2,0,0,,2,,,74,127
52941,note_off,115,0,0,,2,,,74,127
52941,note_off,0,0,0,,10,,,57,127
52943,note_on,2,0,0,,2,,,62,127
52943,note_on,0,0,0,,1,,,73,127
53058,note_off,115,0,0,,1,,,73,127
53060,note_on,2,0,0,,2,,,74,127
53175,note_off,115,0,0,,2,,,74,127
53175,note_off,0,0,0,,2,,,62,127
53177,note_on,2,0,0,,4,,,52,127
53295,note_on,118,0,0,,4,,,76,127
53410,note_off,115,0,0,,4,,,76,127
53410,note_off,0,0,0,,4,,,52,127
53412,note_on,2,0,0,,12,,,59,127
53412,note_on,0,0,0,,5,,,77,127
53527,note_off,115,0,0,,5,,,77,127
53529,note_on,2,0,0,,7,,,79,127
53644,note_off,115,0,0,,7,,,79,127
53644,note_off,0,0,0,,12,,,59,127
53646,note_on,2,0,0,,4,,,64,127
53646,note_on,0,0,0,,5,,,77,127
53761,note_off,115,0,0,,5,,,77,127
53763,note_on,2,0,0,,4,,,76,127
53878,note_off,115,0,0,,4,,,76,127
53878,note_off,0,0,0,,4,,,64,127
53880,note_on,2,0,0,,5,,,53,127
53880,note_on,0,0,0,,10,,,81,127
53995,note_off,115,0,0,,10,,,81,127
53997,note_on,2,0,0,,2,,,74,127
54112,note_off,115,0,0,,2,,,74,127
54112,note_off,0,0,0,,5,,,53,127
54114,note_on,2,0,0,,10,,,57,127
54114,note_on,0,0,0,,1,,,73,127
54229,note_off,115,0,0,,1,,,73,127
54231,note_on,2,0,0,,2,,,74,127
54346,note_off,115,0,0,,2,,,74,127
54346,note_off,0,0,0,,10,,,57,127
54348,note_on,2,0,0,,2,,,62,127
54348,note_on,0,0,0,,1,,,73,127
54463,note_off,115,0,0,,1,,,73,127
54465,note_on,2,0,0,,2,,,74,127
54580,note_off,115,0,0,,2,,,74,127
54580,note_off,0,0,0,,2,,,62,127
54582,note_on,2,0,0,,4,,,52,127
54700,note_on,118,0,0,,12,,,83,127
54815,note_off,115,0,0,,12,,,83,127
54815,note_off,0,0,0,,4,,,52,127
54817,note_on,2,0,0,,4,,,64,127
54817,note_on,0,0,0,,8,,,80,127
54932,note_off,115,0,0,,8,,,80,127
54934,note_on,2,0,0,,4,,,76,127
55049,note_off,115,0,0,,4,,,76,127
55049,note_off,0,0,0,,4,,,64,127
55051,note_on,2,0,0,,8,,,56,127
55051,note_on,0,0,0,,2,,,74,127
55166,note_off,115,0,0,,2,,,74,127
55168,note_on,2,0,0,,12,,,71,127
55283,note_off,115,0,0,,12,,,71,127
55283,note_off,0,0,0,,8,,,56,127
55285,note_on,2,0,0,,10,,,57,127
55285,note_on,0,0,0,,0,,,72,127
55400,note_off,115,0,0,,0,,,72,127
55402,note_on,2,0,0,,12,,,71,127
55517,note_off,115,0,0,,12,,,71,127
55517,note_off,0,0,0,,10,,,57,127
55519,note_on,2,0,0,,12,,,59,127
55519,note_on,0,0,0,,0,,,72,127
55634,note_off,115,0,0,,0,,,72,127
55636,note_on,2,0,0,,2,,,74,127
55751,note_off,115,0,0,,2,,,74,127
55751,note_off,0,0,0,,12,,,59,127
55753,note_on,2,0,0,,0,,,60,127
55753,note_on,0,0,0,,4,,,76,127
55986,note_off,233,0,0,,4,,,76,127
55986,note_off,0,0,0,,0,,,60,127
55988,note_on,2,0,0,,2,,,50,127
55988,note_on,0,0,0,,5,,,77,127
56221,note_off,233,0,0,,5,,,77,127
56221,note_off,0,0,0,,2,,,50,127
56223,note_on,2,0,0,,4,,,52,127
56223,note_on,0,0,0,,10,,,69,127
56456,note_off,233,0,0,,10,,,69,127
56458,note_on,2,0,0,,4,,,40,127
56458,note_on,0,0,0,,10,,,69,127
56514,note_off,56,0,0,,10,,,69,127
56516,note_on,2,0,0,,8,,,68,127
56572,note_off,56,0,0,,8,,,68,127
56574,note_on,2,0,0,,6,,,66,127
56630,note_off,56,0,0,,6,,,66,127
56632,note_on,2,0,0,,8,,,68,127
56686,note_off,54,0,0,,4,,,52,127
56688,note_off,2,0,0,,8,,,68,127
56688,note_off,0,0,0,,4,,,40,127
56693,note_on,5,0,0,,8,,,68,127
56693,note_on,0,0,0,,10,,,45,127
57161,note_off,468,0,0,,8,,,68,127
57161,note_on,0,0,0,,10,,,69,127
57394,note_off,233,0,0,,10,,,69,127
57423,note_off,29,0,0,,10,,,45,127
57435,note_on,12,0,0,,4,,,52,127
57553,note_on,118,0,0,,4,,,76,127
57668,note_off,115,0,0,,4,,,76,127
57668,note_off,0,0,0,,4,,,52,127
57670,note_on,2,0,0,,12,,,59,127
57670,note_on,0,0,0,,5,,,77,127
57785,note_off,115,0,0,,5,,,77,127
57787,note_on,2,0,0,,7,,,79,127
57902,note_off,115,0,0,,7,,,79,127
57902,note_off,0,0,0,,12,,,59,127
57904,note_on,2,0,0,,4,,,64,127
57904,note_on,0,0,0,,5,,,77,127
58019,note_off,115,0,0,,5,,,77,127
58021,note_on,2,0,0,,4,,,76,127
58136,note_off,115,0,0,,4,,,76,127
58136,note_off,0,0,0,,4,,,64,127
58138,note_on,2,0,0,,5,,,53,127
58138,note_on,0,0,0,,8,,,80,127
58253,note_off,115,0,0,,8,,,80,127
58255,note_on,2,0,0,,10,,,81,127
58370,note_off,115,0,0,,10,,,81,127
58370,note_off,0,0,0,,5,,,53,127
58372,note_on,2,0,0,,10,,,57,127
58372,note_on,0,0,0,,4,,,76,127
58487,note_off,115,0,0,,4,,,76,127
58489,note_on,2,0,0,,5,,,77,127
58604,note_off,115,0,0,,5,,,77,127
58604,note_off,0,0,0,,10,,,57,127
58606,note_on,2,0,0,,2,,,62,127
58606,note_on,0,0,0,,1,,,73,127
58721,note_off,115,0,0,,1,,,73,127
58723,note_on,2,0,0,,2,,,74,127
58838,note_off,115,0,0,,2,,,74,127
58838,note_off,0,0,0,,2,,,62,127
58840,note_on,2,0,0,,4,,,52,127
58958,note_on,118,0,0,,4,,,76,127
59073,note_off,115,0,0,,4,,,76,127
59073,note_off,0,0,0,,4,,,52,127
59075,note_on,2,0,0,,12,,,59,127
59075,note_on,0,0,0,,5,,,77,127
59190,note_off,115,0,0,,5,,,77,127
59192,note_on,2,0,0,,7,,,79,127
59307,note_off,115,0,0,,7,,,79,127
59307,note_off,0,0,0,,12,,,59,127
59309,note_on,2,0,0,,4,,,64,127
59309,note_on,0,0,0,,5,,,77,127
59424,note_off,115,0,0,,5,,,77,127
59426,note_on,2,0,0,,4,,,76,127
59541,note_off,115,0,0,,4,,,76,127
59541,note_off,0,0,0,,4,,,64,127
59543,note_on,2,0,0,,5,,,53,127
59543,note_on,0,0,0,,10,,,81,127
59619,note_off,76,0,0,,10,,,81,127
59621,note_on,2,0,0,,7,,,79,127
59697,note_off,76,0,0,,7,,,79,127
59699,note_on,2,0,0,,5,,,77,127
59775,note_off,76,0,0,,5,,,77,127
59775,note_off,0,0,0,,5,,,53,127
59777,note_on,2,0,0,,10,,,57,127
59777,note_on,0,0,0,,4,,,76,127
59853,note_off,76,0,0,,4,,,76,127
59855,note_on,2,0,0,,2,,,74,127
59931,note_off,76,0,0,,2,,,74,127
59933,note_on,2,0,0,,1,,,73,127
60009,note_off,76,0,0,,1,,,73,127
60009,note_off,0,0,0,,10,,,57,127
60011,note_on,2,0,0,,2,,,62,127
60011,note_on,0,0,0,,2,,,74,127
60244,note_off,233,0,0,,2,,,74,127
60244,note_off,0,0,0,,2,,,62,127
60246,note_on,2,0,0,,4,,,52,127
60364,note_on,118,0,0,,12,,,83,127
60479,note_off,115,0,0,,12,,,83,127
60479,note_off,0,0,0,,4,,,52,127
60481,note_on,2,0,0,,4,,,64,127
60481,note_on,0,0,0,,8,,,80,127
60596,note_off,115,0,0,,8,,,80,127
60598,note_on,2,0,0,,4,,,76,127
60713,note_off,115,0,0,,4,,,76,127
60713,note_off,0,0,0,,4,,,64,127
60715,note_on,2,0,0,,8,,,56,127
60715,note_on,0,0,0,,2,,,74,127
60830,note_off,115,0,0,,2,,,74,127
60832,note_on,2,0,0,,12,,,71,127
60947,note_off,115,0,0,,12,,,71,127
60947,note_off,0,0,0,,8,,,56,127
60949,note_on,2,0,0,,10,,,57,127
60949,note_on,0,0,0,,0,,,72,127
61064,note_off,115,0,0,,0,,,72,127
61066,note_on,2,0,0,,12,,,71,127
61181,note_off,115,0,0,,12,,,71,127
61181,note_off,0,0,0,,10,,,57,127
61183,note_on,2,0,0,,12,,,59,127
61183,note_on,0,0,0,,0,,,72,127
61298,note_off,115,0,0,,0,,,72,127
61300,note_on,2,0,0,,2,,,74,127
61415,note_off,115,0,0,,2,,,74,127
61415,note_off,0,0,0,,12,,,59,127
61417,note_on,2,0,0,,0,,,60,127
61417,note_on,0,0,0,,4,,,76,127
61637,note_off,220,0,0,,4,,,76,127
61649,note_off,12,0,0,,0,,,60,127
61651,note_on,2,0,0,,2,,,50,127
61651,note_on,0,0,0,,5,,,77,127
61884,note_off,233,0,0,,5,,,77,127
61884,note_off,0,0,0,,2,,,50,127
61886,note_on,2,0,0,,4,,,52,127
61886,note_on,0,0,0,,10,,,69,127
62119,note_off,233,0,0,,10,,,69,127
62119,note_off,0,0,0,,4,,,52,127
62121,note_on,2,0,0,,4,,,40,127
62121,note_on,0,0,0,,10,,,69,127
62177,note_off,56,0,0,,10,,,69,127
62179,note_on,2,0,0,,8,,,68,127
62235,note_off,56,0,0,,8,,,68,127
62237,note_on,2,0,0,,6,,,66,127
62293,note_off,56,0,0,,6,,,66,127
62295,note_on,2,0,0,,8,,,68,127
62351,note_off,56,0,0,,8,,,68,127
62351,note_off,0,0,0,,4,,,40,127
62353,note_on,2,0,0,,10,,,45,127
62353,note_on,0,0,0,,10,,,69,127
62468,note_off,115,0,0,,10,,,69,127
62470,note_on,2,0,0,,1,,,73,127
62585,note_off,115,0,0,,1,,,73,127
62585,note_off,0,0,0,,10,,,45,127
62587,note_on,2,0,0,,4,,,76,127
62705,note_on,118,0,0,,10,,,69,127
62820,note_off,115,0,0,,10,,,69,127
62820,note_off,0,0,0,,4,,,76,127
62822,note_on,2,0,0,,10,,,45,127
62940,note_on,118,0,0,,4,,,76,127
63055,note_off,115,0,0,,4,,,76,127
63055,note_off,0,0,0,,10,,,45,127
63057,note_on,2,0,0,,10,,,81,127
63175,note_on,118,0,0,,10,,,69,127
63290,note_off,115,0,0,,10,,,69,127
63290,note_off,0,0,0,,10,,,81,127
63292,note_on,2,0,0,,10,,,45,127
63410,note_on,118,0,0,,4,,,76,127
63525,note_off,115,0,0,,4,,,76,127
63525,note_off,0,0,0,,10,,,45,127
63527,note_on,2,0,0,,10,,,69,127
63527,note_on,0,0,0,,10,,,81,127
63642,note_off,115,0,0,,10,,,81,127
63644,note_on,2,0,0,,4,,,76,127
63759,note_off,115,0,0,,4,,,76,127
63759,note_off,0,0,0,,10,,,69,127
63761,note_on,2,0,0,,10,,,45,127
63761,note_on,0,0,0,,1,,,85,127
63876,note_off,115,0,0,,1,,,85,127
63878,note_on,2,0,0,,12,,,83,127
63993,note_off,115,0,0,,12,,,83,127
63993,note_off,0,0,0,,10,,,45,127
63995,note_on,2,0,0,,12,,,47,127
63995,note_on,0,0,0,,10,,,81,127
64110,note_off,115,0,0,,10,,,81,127
64112,note_on,2,0,0,,8,,,80,127
64227,note_off,115,0,0,,8,,,80,127
64227,note_off,0,0,0,,12,,,47,127
64229,note_on,2,0,0,,1,,,49,127
64229,note_on,0,0,0,,10,,,81,127
64344,note_off,115,0,0,,10,,,81,127
64346,note_on,2,0,0,,4,,,76,127
64461,note_off,115,0,0,,4,,,76,127
64461,note_off,0,0,0,,1,,,49,127
64463,note_on,2,0,0,,2,,,50,127
64463,note_on,0,0,0,,6,,,78,127
64578,note_off,115,0,0,,6,,,78,127
64580,note_on,2,0,0,,2,,,74,127
64695,note_off,115,0,0,,2,,,74,127
64695,note_off,0,0,0,,2,,,50,127
64697,note_on,2,0,0,,4,,,52,127
64697,note_on,0,0,0,,1,,,73,127
64812,note_off,115,0,0,,1,,,73,127
64814,note_on,2,0,0,,12,,,71,127
64929,note_off,115,0,0,,12,,,71,127
64931,note_on,2,0,0,,4,,,40,127
64931,note_on,0,0,0,,10,,,69,127
65046,note_off,115,0,0,,10,,,69,127
65048,note_on,2,0,0,,8,,,68,127
65161,note_off,113,0,0,,4,,,52,127
65163,note_off,2,0,0,,8,,,68,127
65163,note_off,0,0,0,,4,,,40,127
65165,note_on,2,0,0,,10,,,45,127
65165,note_on,0,0,0,,10,,,69,127
65280,note_off,115,0,0,,10,,,69,127
65282,note_on,2,0,0,,1,,,73,127
65397,note_off,115,0,0,,1,,,73,127
65397,note_off,0,0,0,,10,,,45,127
65399,note_on,2,0,0,,4,,,76,127
65517,note_on,118,0,0,,10,,,69,127
65632,note_off,115,0,0,,10,,,69,127
65632,note_off,0,0,0,,4,,,76,127
65634,note_on,2,0,0,,10,,,45,127
65752,note_on,118,0,0,,4,,,76,127
65867,note_off,115,0,0,,4,,,76,127
65867,note_off,0,0,0,,10,,,45,127
65869,note_on,2,0,0,,10,,,81,127
65987,note_on,118,0,0,,10,,,69,127
66102,note_off,115,0,0,,10,,,69,127
66102,note_off,0,0,0,,10,,,81,127
66104,note_on,2,0,0,,10,,,45,127
66222,note_on,118,0,0,,4,,,76,127
66337,note_off,115,0,0,,4,,,76,127
66337,note_off,0,0,0,,10,,,45,127
66339,note_on,2,0,0,,10,,,69,127
66339,note_on,0,0,0,,10,,,81,127
66454,note_off,115,0,0,,10,,,81,127
66456,note_on,2,0,0,,4,,,76,127
66571,note_off,115,0,0,,4,,,76,127
66571,note_off,0,0,0,,10,,,69,127
66573,note_on,2,0,0,,10,,,45,127
66573,note_on,0,0,0,,1,,,85,127
66688,note_off,115,0,0,,1,,,85,127
66690,note_on,2,0,0,,12,,,83,127
66805,note_off,115,0,0,,12,,,83,127
66805,note_off,0,0,0,,10,,,45,127
66807,note_on,2,0,0,,12,,,47,127
66807,note_on,0,0,0,,10,,,81,127
66922,note_off,115,0,0,,10,,,81,127
66924,note_on,2,0,0,,8,,,80,127
67039,note_off,115,0,0,,8,,,80,127
67039,note_off,0,0,0,,12,,,47,127
67041,note_on,2,0,0,,1,,,49,127
67041,note_on,0,0,0,,10,,,81,127
67156,note_off,115,0,0,,10,,,81,127
67158,note_on,2,0,0,,4,,,76,127
67273,note_off,115,0,0,,4,,,76,127
67273,note_off,0,0,0,,1,,,49,127
67275,note_on,2,0,0,,2,,,50,127
67275,note_on,0,0,0,,6,,,78,127
67390,note_off,115,0,0,,6,,,78,127
67392,note_on,2,0,0,,2,,,74,127
67507,note_off,115,0,0,,2,,,74,127
67507,note_off,0,0,0,,2,,,50,127
67509,note_on,2,0,0,,4,,,52,127
67509,note_on,0,0,0,,1,,,73,127
67624,note_off,115,0,0,,1,,,73,127
67626,note_on,2,0,0,,12,,,71,127
67741,note_off,115,0,0,,12,,,71,127
67743,note_on,2,0,0,,4,,,40,127
67743,note_on,0,0,0,,10,,,69,127
67858,note_off,115,0,0,,10,,,69,127
67860,note_on,2,0,0,,8,,,68,127
67973,note_off,113,0,0,,4,,,52,127
67975,note_off,2,0,0,,8,,,68,127
67975,note_off,0,0,0,,4,,,40,127
67988,note_on,13,0,0,,10,,,45,127
67988,note_on,0,0,0,,1,,,73,127
68104,note_off,116,0,0,,1,,,73,127
68108,note_on,4,0,0,,12,,,71,127
68224,note_off,116,0,0,,12,,,71,127
68224,note_off,0,0,0,,10,,,45,127
68229,note_on,5,0,0,,12,,,47,127
68229,note_on,0,0,0,,10,,,69,127
68345,note_off,116,0,0,,10,,,69,127
68350,note_on,5,0,0,,8,,,68,127
68465,note_off,115,0,0,,12,,,47,127
68466,note_off,1,0,0,,8,,,68,127
68471,note_on,5,0,0,,1,,,49,127
68471,note_on,0,0,0,,6,,,66,127
68587,note_off,116,0,0,,6,,,66,127
68592,note_on,5,0,0,,4,,,64,127
68707,note_off,115,0,0,,1,,,49,127
68708,note_off,1,0,0,,4,,,64,127
68713,note_on,5,0,0,,2,,,50,127
68713,note_on,0,0,0,,2,,,62,127
68790,note_off,77,0,0,,2,,,62,127
68794,note_on,4,0,0,,4,,,64,127
68871,note_off,77,0,0,,4,,,64,127
68875,note_on,4,0,0,,6,,,66,127
68950,note_off,75,0,0,,2,,,50,127
68952,note_off,2,0,0,,6,,,66,127
68956,note_on,4,0,0,,4,,,52,127
68956,note_on,0,0,0,,4,,,64,127
69072,note_off,116,0,0,,4,,,64,127
69076,note_on,4,0,0,,2,,,62,127
69192,note_off,116,0,0,,2,,,62,127
69192,note_off,0,0,0,,4,,,52,127
69197,note_on,5,0,0,,4,,,40,127
69197,note_on,0,0,0,,1,,,61,127
69313,note_off,116,0,0,,1,,,61,127
69318,note_on,5,0,0,,12,,,59,127
69433,note_off,115,0,0,,4,,,40,127
69434,note_off,1,0,0,,12,,,59,127
69457,note_on,23,0,0,,10,,,45,127
69457,note_on,0,0,0,,10,,,57,127
71668,note_off,2211,0,0,,10,,,57,127
71668,note_off,0,0,0,,10,,,45,127
76800,end_of_track,5132,1,0,,,,,,
