tick,type,time,meta,track,program,channel,pitch,tempo,note,velocity
0,copyright,0,1,0,,,,,,
0,program_change,0,0,0,6,0,,,,
0,pitchwheel,0,0,0,,0,0,,,
0,program_change,0,0,0,6,1,,,,
0,pitchwheel,0,0,0,,1,-590,,,
0,program_change,0,0,0,6,2,,,,
0,pitchwheel,0,0,0,,2,-272,,,
0,program_change,0,0,0,6,3,,,,
0,pitchwheel,0,0,0,,3,-353,,,
0,program_change,0,0,0,6,4,,,,
0,pitchwheel,0,0,0,,4,-560,,,
0,program_change,0,0,0,6,5,,,,
0,pitchwheel,0,0,0,,5,-80,,,
0,program_change,0,0,0,6,6,,,,
0,pitchwheel,0,0,0,,6,-625,,,
0,program_change,0,0,0,6,7,,,,
0,pitchwheel,0,0,0,,7,-130,,,
0,program_change,0,0,0,6,8,,,,
0,pitchwheel,0,0,0,,8,-512,,,
0,program_change,0,0,0,6,10,,,,
0,pitchwheel,0,0,0,,10,-464,,,
0,program_change,0,0,0,6,11,,,,
0,pitchwheel,0,0,0,,11,-208,,,
0,program_change,0,0,0,6,12,,,,
0,pitchwheel,0,0,0,,12,-553,,,
0,set_tempo,0,1,0,,,,500000,,
105,note_on,105,0,0,,2,,,74,127
523,note_off,418,0,0,,2,,,74,127
524,note_on,1,0,0,,10,,,69,127
942,note_off,418,0,0,,10,,,69,127
943,note_on,1,0,0,,2,,,74,127
1151,note_off,208,0,0,,2,,,74,127
1152,note_on,1,0,0,,6,,,78,127
1256,note_off,104,0,0,,6,,,78,127
1257,note_on,1,0,0,,7,,,79,127
1361,note_off,104,0,0,,7,,,79,127
1362,note_on,1,0,0,,10,,,81,127
1570,note_off,208,0,0,,10,,,81,127
1571,note_on,1,0,0,,7,,,79,127
1779,note_off,208,0,0,,7,,,79,127
1780,note_on,1,0,0,,6,,,78,127
1988,note_off,208,0,0,,6,,,78,127
1989,note_on,1,0,0,,4,,,76,127
2197,note_off,208,0,0,,4,,,76,127
2198,note_on,1,0,0,,2,,,74,127
2406,note_off,208,0,0,,2,,,74,127
2407,note_on,1,0,0,,4,,,76,127
2615,note_off,208,0,0,,4,,,76,127
2616,note_on,1,0,0,,10,,,69,127
2824,note_off,208,0,0,,10,,,69,127
2825,note_on,1,0,0,,6,,,78,127
2929,note_off,104,0,0,,6,,,78,127
2930,note_on,1,0,0,,7,,,79,127
3034,note_off,104,0,0,,7,,,79,127
3035,note_on,1,0,0,,10,,,81,127
3243,note_off,208,0,0,,10,,,81,127
3244,note_on,1,0,0,,7,,,79,127
3452,note_off,208,0,0,,7,,,79,127
3453,note_on,1,0,0,,6,,,78,127
3661,note_off,208,0,0,,6,,,78,127
3662,note_on,1,0,0,,4,,,76,127
3870,note_off,208,0,0,,4,,,76,127
3871,note_on,1,0,0,,2,,,74,127
4079,note_off,208,0,0,,2,,,74,127
4080,note_on,1,0,0,,4,,,76,127
4288,note_off,208,0,0,,4,,,76,127
4289,note_on,1,0,0,,12,,,71,127
4328,note_on,39,0,0,,10,,,69,127
4332,note_off,4,0,0,,12,,,71,127
4367,note_on,35,0,0,,12,,,71,127
4371,note_off,4,0,0,,10,,,69,127
4406,note_on,35,0,0,,10,,,69,127
4410,note_off,4,0,0,,12,,,71,127
4705,note_off,295,0,0,,10,,,69,127
4707,note_on,2,0,0,,10,,,45,127
4707,note_on,0,0,0,,10,,,81,127
4707,note_on,0,0,0,,10,,,69,127
4811,note_off,104,0,0,,10,,,45,127
4812,note_on,1,0,0,,1,,,49,127
4916,note_off,104,0,0,,1,,,49,127
4917,note_on,1,0,0,,12,,,47,127
5021,note_off,104,0,0,,12,,,47,127
5022,note_on,1,0,0,,2,,,50,127
5126,note_off,104,0,0,,2,,,50,127
5126,note_off,0,0,0,,10,,,69,127
5126,note_off,0,0,0,,10,,,81,127
5127,note_on,1,0,0,,1,,,49,127
5127,note_on,0,0,0,,10,,,69,127
5127,note_on,0,0,0,,10,,,81,127
5231,note_off,104,0,0,,1,,,49,127
5232,note_on,1,0,0,,4,,,52,127
5336,note_off,104,0,0,,4,,,52,127
5337,note_on,1,0,0,,2,,,50,127
5441,note_off,104,0,0,,2,,,50,127
5442,note_on,1,0,0,,6,,,54,127
5546,note_off,104,0,0,,6,,,54,127
5546,note_off,0,0,0,,10,,,81,127
5546,note_off,0,0,0,,10,,,69,127
5547,note_on,1,0,0,,4,,,52,127
5547,note_on,0,0,0,,10,,,81,127
5547,note_on,0,0,0,,10,,,69,127
5651,note_off,104,0,0,,4,,,52,127
5652,note_on,1,0,0,,7,,,55,127
5756,note_off,104,0,0,,7,,,55,127
5757,note_on,1,0,0,,6,,,54,127
5861,note_off,104,0,0,,6,,,54,127
5862,note_on,1,0,0,,10,,,57,127
5966,note_off,104,0,0,,10,,,57,127
5966,note_off,0,0,0,,10,,,69,127
5966,note_off,0,0,0,,10,,,81,127
5967,note_on,1,0,0,,7,,,55,127
5967,note_on,0,0,0,,10,,,81,127
5967,note_on,0,0,0,,10,,,69,127
6071,note_off,104,0,0,,7,,,55,127
6072,note_on,1,0,0,,12,,,59,127
6176,note_off,104,0,0,,12,,,59,127
6177,note_on,1,0,0,,10,,,57,127
6281,note_off,104,0,0,,10,,,57,127
6282,note_on,1,0,0,,1,,,61,127
6386,note_off,104,0,0,,1,,,61,127
6386,note_off,0,0,0,,10,,,69,127
6386,note_off,0,0,0,,10,,,81,127
6387,note_on,1,0,0,,12,,,59,127
6387,note_on,0,0,0,,10,,,81,127
6387,note_on,0,0,0,,10,,,69,127
6491,note_off,104,0,0,,12,,,59,127
6492,note_on,1,0,0,,2,,,62,127
6596,note_off,104,0,0,,2,,,62,127
6597,note_on,1,0,0,,1,,,61,127
6701,note_off,104,0,0,,1,,,61,127
6702,note_on,1,0,0,,4,,,64,127
6806,note_off,104,0,0,,4,,,64,127
6806,note_off,0,0,0,,10,,,69,127
6806,note_off,0,0,0,,10,,,81,127
6807,note_on,1,0,0,,2,,,62,127
6807,note_on,0,0,0,,10,,,69,127
6807,note_on,0,0,0,,10,,,81,127
7015,note_off,208,0,0,,10,,,81,127
7016,note_on,1,0,0,,6,,,78,127
7221,note_off,205,0,0,,10,,,69,127
7224,note_off,3,0,0,,6,,,78,127
7224,note_off,0,0,0,,2,,,62,127
7225,note_on,1,0,0,,6,,,66,127
7225,note_on,0,0,0,,10,,,81,127
7433,note_off,208,0,0,,10,,,81,127
7433,note_off,0,0,0,,6,,,66,127
7434,note_on,1,0,0,,4,,,64,127
7434,note_on,0,0,0,,7,,,79,127
7538,note_off,104,0,0,,7,,,79,127
7538,note_off,0,0,0,,4,,,64,127
7539,note_on,1,0,0,,2,,,62,127
7539,note_on,0,0,0,,6,,,78,127
7643,note_off,104,0,0,,6,,,78,127
7643,note_off,0,0,0,,2,,,62,127
7644,note_on,1,0,0,,10,,,57,127
7644,note_on,0,0,0,,6,,,78,127
7683,note_on,39,0,0,,4,,,76,127
7687,note_off,4,0,0,,6,,,78,127
7722,note_on,35,0,0,,6,,,78,127
7726,note_off,4,0,0,,4,,,76,127
7761,note_on,35,0,0,,4,,,76,127
7765,note_off,4,0,0,,6,,,78,127
8061,note_off,296,0,0,,10,,,57,127
8062,note_on,1,0,0,,10,,,45,127
8062,note_on,0,0,0,,10,,,81,127
8062,note_on,0,0,0,,10,,,69,127
8074,note_off,12,0,0,,4,,,76,127
8166,note_off,92,0,0,,10,,,45,127
8167,note_on,1,0,0,,1,,,49,127
8271,note_off,104,0,0,,1,,,49,127
8272,note_on,1,0,0,,12,,,47,127
8376,note_off,104,0,0,,12,,,47,127
8377,note_on,1,0,0,,2,,,50,127
8481,note_off,104,0,0,,2,,,50,127
8481,note_off,0,0,0,,10,,,69,127
8481,note_off,0,0,0,,10,,,81,127
8482,note_on,1,0,0,,1,,,49,127
8482,note_on,0,0,0,,10,,,81,127
8482,note_on,0,0,0,,10,,,69,127
8586,note_off,104,0,0,,1,,,49,127
8587,note_on,1,0,0,,4,,,52,127
8691,note_off,104,0,0,,4,,,52,127
8692,note_on,1,0,0,,2,,,50,127
8796,note_off,104,0,0,,2,,,50,127
8797,note_on,1,0,0,,6,,,54,127
8901,note_off,104,0,0,,6,,,54,127
8901,note_off,0,0,0,,10,,,69,127
8901,note_off,0,0,0,,10,,,81,127
8902,note_on,1,0,0,,4,,,52,127
8902,note_on,0,0,0,,10,,,81,127
8902,note_on,0,0,0,,10,,,69,127
9006,note_off,104,0,0,,4,,,52,127
9007,note_on,1,0,0,,7,,,55,127
9111,note_off,104,0,0,,7,,,55,127
9112,note_on,1,0,0,,6,,,54,127
9216,note_off,104,0,0,,6,,,54,127
9217,note_on,1,0,0,,10,,,57,127
9321,note_off,104,0,0,,10,,,57,127
9321,note_off,0,0,0,,10,,,69,127
9321,note_off,0,0,0,,10,,,81,127
9322,note_on,1,0,0,,7,,,55,127
9322,note_on,0,0,0,,10,,,81,127
9322,note_on,0,0,0,,10,,,69,127
9426,note_off,104,0,0,,7,,,55,127
9427,note_on,1,0,0,,12,,,59,127
9531,note_off,104,0,0,,12,,,59,127
9532,note_on,1,0,0,,10,,,57,127
9636,note_off,104,0,0,,10,,,57,127
9637,note_on,1,0,0,,1,,,61,127
9741,note_off,104,0,0,,1,,,61,127
9741,note_off,0,0,0,,10,,,69,127
9741,note_off,0,0,0,,10,,,81,127
9742,note_on,1,0,0,,12,,,59,127
9742,note_on,0,0,0,,10,,,69,127
9742,note_on,0,0,0,,10,,,81,127
9846,note_off,104,0,0,,12,,,59,127
9847,note_on,1,0,0,,2,,,62,127
9951,note_off,104,0,0,,2,,,62,127
9952,note_on,1,0,0,,1,,,61,127
10056,note_off,104,0,0,,1,,,61,127
10057,note_on,1,0,0,,4,,,64,127
10161,note_off,104,0,0,,4,,,64,127
10161,note_off,0,0,0,,10,,,81,127
10161,note_off,0,0,0,,10,,,69,127
10162,note_on,1,0,0,,2,,,62,127
10162,note_on,0,0,0,,10,,,81,127
10162,note_on,0,0,0,,10,,,69,127
10370,note_off,208,0,0,,10,,,81,127
10371,note_on,1,0,0,,6,,,78,127
10576,note_off,205,0,0,,10,,,69,127
10579,note_off,3,0,0,,6,,,78,127
10579,note_off,0,0,0,,2,,,62,127
10580,note_on,1,0,0,,6,,,66,127
10580,note_on,0,0,0,,10,,,81,127
10788,note_off,208,0,0,,10,,,81,127
10788,note_off,0,0,0,,6,,,66,127
10789,note_on,1,0,0,,4,,,64,127
10789,note_on,0,0,0,,7,,,79,127
10893,note_off,104,0,0,,7,,,79,127
10893,note_off,0,0,0,,4,,,64,127
10894,note_on,1,0,0,,2,,,62,127
10894,note_on,0,0,0,,6,,,78,127
10998,note_off,104,0,0,,6,,,78,127
10998,note_off,0,0,0,,2,,,62,127
10999,note_on,1,0,0,,10,,,57,127
10999,note_on,0,0,0,,6,,,78,127
11038,note_on,39,0,0,,4,,,76,127
11042,note_off,4,0,0,,6,,,78,127
11077,note_on,35,0,0,,6,,,78,127
11081,note_off,4,0,0,,4,,,76,127
11116,note_on,35,0,0,,4,,,76,127
11120,note_off,4,0,0,,6,,,78,127
11416,note_off,296,0,0,,10,,,57,127
11417,note_on,1,0,0,,10,,,57,127
11417,note_on,0,0,0,,10,,,69,127
11429,note_off,12,0,0,,4,,,76,127
11521,note_off,92,0,0,,10,,,69,127
11522,note_on,1,0,0,,1,,,73,127
11626,note_off,104,0,0,,1,,,73,127
11627,note_on,1,0,0,,12,,,71,127
11731,note_off,104,0,0,,12,,,71,127
11732,note_on,1,0,0,,2,,,74,127
11836,note_off,104,0,0,,2,,,74,127
11836,note_off,0,0,0,,10,,,57,127
11837,note_on,1,0,0,,10,,,57,127
11837,note_on,0,0,0,,1,,,73,127
11941,note_off,104,0,0,,1,,,73,127
11942,note_on,1,0,0,,4,,,76,127
12046,note_off,104,0,0,,4,,,76,127
12047,note_on,1,0,0,,2,,,74,127
12151,note_off,104,0,0,,2,,,74,127
12152,note_on,1,0,0,,6,,,78,127
12256,note_off,104,0,0,,6,,,78,127
12256,note_off,0,0,0,,10,,,57,127
12257,note_on,1,0,0,,10,,,57,127
12257,note_on,0,0,0,,4,,,76,127
12361,note_off,104,0,0,,4,,,76,127
12362,note_on,1,0,0,,7,,,79,127
12466,note_off,104,0,0,,7,,,79,127
12467,note_on,1,0,0,,6,,,78,127
12571,note_off,104,0,0,,6,,,78,127
12572,note_on,1,0,0,,10,,,81,127
12676,note_off,104,0,0,,10,,,81,127
12676,note_off,0,0,0,,10,,,57,127
12677,note_on,1,0,0,,12,,,59,127
12677,note_on,0,0,0,,10,,,57,127
12677,note_on,0,0,0,,12,,,71,127
13095,note_off,418,0,0,,12,,,71,127
13095,note_off,0,0,0,,10,,,57,127
13095,note_off,0,0,0,,12,,,59,127
13096,note_on,1,0,0,,7,,,55,127
13096,note_on,0,0,0,,12,,,59,127
13096,note_on,0,0,0,,12,,,71,127
13200,note_off,104,0,0,,12,,,71,127
13201,note_on,1,0,0,,2,,,74,127
13305,note_off,104,0,0,,2,,,74,127
13306,note_on,1,0,0,,1,,,73,127
13410,note_off,104,0,0,,1,,,73,127
13411,note_on,1,0,0,,4,,,76,127
13515,note_off,104,0,0,,4,,,76,127
13515,note_off,0,0,0,,12,,,59,127
13515,note_off,0,0,0,,7,,,55,127
13516,note_on,1,0,0,,7,,,55,127
13516,note_on,0,0,0,,12,,,59,127
13516,note_on,0,0,0,,2,,,74,127
13620,note_off,104,0,0,,2,,,74,127
13621,note_on,1,0,0,,6,,,78,127
13725,note_off,104,0,0,,6,,,78,127
13726,note_on,1,0,0,,4,,,76,127
13830,note_off,104,0,0,,4,,,76,127
13831,note_on,1,0,0,,7,,,79,127
13935,note_off,104,0,0,,7,,,79,127
13935,note_off,0,0,0,,12,,,59,127
13935,note_off,0,0,0,,7,,,55,127
13936,note_on,1,0,0,,12,,,59,127
13936,note_on,0,0,0,,7,,,55,127
13936,note_on,0,0,0,,6,,,78,127
14040,note_off,104,0,0,,6,,,78,127
14041,note_on,1,0,0,,10,,,81,127
14145,note_off,104,0,0,,10,,,81,127
14146,note_on,1,0,0,,7,,,79,127
14250,note_off,104,0,0,,7,,,79,127
14251,note_on,1,0,0,,12,,,83,127
14355,note_off,104,0,0,,12,,,83,127
14355,note_off,0,0,0,,7,,,55,127
14355,note_off,0,0,0,,12,,,59,127
14356,note_on,1,0,0,,10,,,57,127
14356,note_on,0,0,0,,7,,,55,127
14356,note_on,0,0,0,,10,,,69,127
14774,note_off,418,0,0,,10,,,69,127
14774,note_off,0,0,0,,7,,,55,127
14774,note_off,0,0,0,,10,,,57,127
14775,note_on,1,0,0,,10,,,57,127
14775,note_on,0,0,0,,6,,,54,127
14775,note_on,0,0,0,,10,,,81,127
14879,note_off,104,0,0,,10,,,81,127
14880,note_on,1,0,0,,6,,,78,127
14984,note_off,104,0,0,,6,,,78,127
14985,note_on,1,0,0,,7,,,79,127
15089,note_off,104,0,0,,7,,,79,127
15090,note_on,1,0,0,,4,,,76,127
15194,note_off,104,0,0,,4,,,76,127
15194,note_off,0,0,0,,6,,,54,127
15194,note_off,0,0,0,,10,,,57,127
15195,note_on,1,0,0,,6,,,54,127
15195,note_on,0,0,0,,10,,,57,127
15195,note_on,0,0,0,,6,,,78,127
15299,note_off,104,0,0,,6,,,78,127
15300,note_on,1,0,0,,2,,,74,127
15404,note_off,104,0,0,,2,,,74,127
15405,note_on,1,0,0,,4,,,76,127
15509,note_off,104,0,0,,4,,,76,127
15510,note_on,1,0,0,,1,,,73,127
15614,note_off,104,0,0,,1,,,73,127
15614,note_off,0,0,0,,10,,,57,127
15614,note_off,0,0,0,,6,,,54,127
15615,note_on,1,0,0,,10,,,57,127
15615,note_on,0,0,0,,6,,,54,127
15615,note_on,0,0,0,,2,,,74,127
15719,note_off,104,0,0,,2,,,74,127
15720,note_on,1,0,0,,12,,,71,127
15824,note_off,104,0,0,,12,,,71,127
15825,note_on,1,0,0,,1,,,73,127
15929,note_off,104,0,0,,1,,,73,127
15930,note_on,1,0,0,,10,,,69,127
16034,note_off,104,0,0,,10,,,69,127
16034,note_off,0,0,0,,6,,,54,127
16034,note_off,0,0,0,,10,,,57,127
16035,note_on,1,0,0,,7,,,55,127
16035,note_on,0,0,0,,12,,,59,127
16035,note_on,0,0,0,,12,,,71,127
16139,note_off,104,0,0,,12,,,71,127
16140,note_on,1,0,0,,7,,,67,127
16244,note_off,104,0,0,,7,,,67,127
16245,note_on,1,0,0,,10,,,69,127
16349,note_off,104,0,0,,10,,,69,127
16350,note_on,1,0,0,,6,,,66,127
16454,note_off,104,0,0,,6,,,66,127
16454,note_off,0,0,0,,12,,,59,127
16454,note_off,0,0,0,,7,,,55,127
16455,note_on,1,0,0,,12,,,59,127
16455,note_on,0,0,0,,7,,,55,127
16455,note_on,0,0,0,,7,,,67,127
16559,note_off,104,0,0,,7,,,67,127
16560,note_on,1,0,0,,4,,,64,127
16664,note_off,104,0,0,,4,,,64,127
16665,note_on,1,0,0,,2,,,74,127
16770,note_on,105,0,0,,2,,,62,127
16873,note_off,103,0,0,,2,,,74,127
16874,note_off,1,0,0,,2,,,62,127
16874,note_off,0,0,0,,7,,,55,127
16874,note_off,0,0,0,,12,,,59,127
16875,note_on,1,0,0,,10,,,57,127
16875,note_on,0,0,0,,6,,,66,127
16875,note_on,0,0,0,,2,,,62,127
17293,note_off,418,0,0,,2,,,62,127
17293,note_off,0,0,0,,6,,,66,127
17294,note_on,1,0,0,,10,,,45,127
17294,note_on,0,0,0,,6,,,66,127
17294,note_on,0,0,0,,1,,,61,127
17363,note_off,69,0,0,,6,,,66,127
17364,note_on,1,0,0,,4,,,64,127
17433,note_off,69,0,0,,4,,,64,127
17434,note_on,1,0,0,,6,,,66,127
17503,note_off,69,0,0,,6,,,66,127
17504,note_on,1,0,0,,4,,,64,127
17573,note_off,69,0,0,,4,,,64,127
17574,note_on,1,0,0,,2,,,62,127
17643,note_off,69,0,0,,2,,,62,127
17644,note_on,1,0,0,,4,,,64,127
17709,note_off,65,0,0,,1,,,61,127
17712,note_off,3,0,0,,4,,,64,127
17712,note_off,0,0,0,,10,,,45,127
17712,note_off,0,0,0,,10,,,57,127
17713,note_on,1,0,0,,2,,,50,127
17713,note_on,0,0,0,,2,,,62,127
18027,note_off,314,0,0,,2,,,62,127
18131,note_off,104,0,0,,2,,,50,127
18132,note_on,1,0,0,,2,,,62,127
18132,note_on,0,0,0,,10,,,69,127
18236,note_off,104,0,0,,10,,,69,127
18237,note_on,1,0,0,,6,,,66,127
18341,note_off,104,0,0,,6,,,66,127
18342,note_on,1,0,0,,12,,,71,127
18446,note_off,104,0,0,,12,,,71,127
18447,note_on,1,0,0,,10,,,69,127
18551,note_off,104,0,0,,10,,,69,127
18551,note_off,0,0,0,,2,,,62,127
18552,note_on,1,0,0,,2,,,62,127
18552,note_on,0,0,0,,4,,,64,127
18552,note_on,0,0,0,,10,,,69,127
18760,note_off,208,0,0,,10,,,69,127
18761,note_on,1,0,0,,7,,,67,127
18969,note_off,208,0,0,,7,,,67,127
18969,note_off,0,0,0,,4,,,64,127
18969,note_off,0,0,0,,2,,,62,127
18970,note_on,1,0,0,,4,,,64,127
18970,note_on,0,0,0,,1,,,61,127
18970,note_on,0,0,0,,4,,,76,127
19074,note_off,104,0,0,,4,,,76,127
19075,note_on,1,0,0,,7,,,67,127
19179,note_off,104,0,0,,7,,,67,127
19180,note_on,1,0,0,,10,,,69,127
19283,note_off,103,0,0,,4,,,64,127
19284,note_off,1,0,0,,10,,,69,127
19285,note_on,1,0,0,,4,,,64,127
19389,note_off,104,0,0,,4,,,64,127
19389,note_off,0,0,0,,1,,,61,127
19390,note_on,1,0,0,,2,,,62,127
19390,note_on,0,0,0,,4,,,64,127
19598,note_off,208,0,0,,4,,,64,127
19599,note_on,1,0,0,,6,,,66,127
19807,note_off,208,0,0,,6,,,66,127
19807,note_off,0,0,0,,2,,,62,127
19808,note_on,1,0,0,,2,,,62,127
19808,note_on,0,0,0,,10,,,69,127
19912,note_off,104,0,0,,10,,,69,127
19913,note_on,1,0,0,,6,,,66,127
20017,note_off,104,0,0,,6,,,66,127
20018,note_on,1,0,0,,12,,,71,127
20122,note_off,104,0,0,,12,,,71,127
20123,note_on,1,0,0,,10,,,69,127
20227,note_off,104,0,0,,10,,,69,127
20227,note_off,0,0,0,,2,,,62,127
20228,note_on,1,0,0,,4,,,64,127
20228,note_on,0,0,0,,2,,,62,127
20228,note_on,0,0,0,,10,,,69,127
20436,note_off,208,0,0,,10,,,69,127
20437,note_on,1,0,0,,7,,,67,127
20645,note_off,208,0,0,,7,,,67,127
20645,note_off,0,0,0,,2,,,62,127
20645,note_off,0,0,0,,4,,,64,127
20646,note_on,1,0,0,,4,,,64,127
20646,note_on,0,0,0,,1,,,61,127
20646,note_on,0,0,0,,4,,,76,127
20750,note_off,104,0,0,,4,,,76,127
20751,note_on,1,0,0,,7,,,67,127
20855,note_off,104,0,0,,7,,,67,127
20856,note_on,1,0,0,,10,,,69,127
20959,note_off,103,0,0,,4,,,64,127
20960,note_off,1,0,0,,10,,,69,127
20961,note_on,1,0,0,,4,,,64,127
21065,note_off,104,0,0,,4,,,64,127
21065,note_off,0,0,0,,1,,,61,127
21066,note_on,1,0,0,,2,,,62,127
21066,note_on,0,0,0,,4,,,64,127
21274,note_off,208,0,0,,4,,,64,127
21275,note_on,1,0,0,,6,,,66,127
21432,note_off,157,0,0,,6,,,66,127
21483,note_off,51,0,0,,2,,,62,127
21484,note_on,1,0,0,,4,,,64,127
21484,note_on,0,0,0,,12,,,71,127
21588,note_off,104,0,0,,12,,,71,127
21589,note_on,1,0,0,,7,,,67,127
21693,note_off,104,0,0,,7,,,67,127
21694,note_on,1,0,0,,0,,,72,127
21798,note_off,104,0,0,,0,,,72,127
21799,note_on,1,0,0,,12,,,71,127
21903,note_off,104,0,0,,12,,,71,127
21903,note_off,0,0,0,,4,,,64,127
21904,note_on,1,0,0,,4,,,64,127
21904,note_on,0,0,0,,6,,,66,127
21904,note_on,0,0,0,,12,,,71,127
22112,note_off,208,0,0,,12,,,71,127
22113,note_on,1,0,0,,10,,,69,127
22321,note_off,208,0,0,,10,,,69,127
22321,note_off,0,0,0,,6,,,66,127
22321,note_off,0,0,0,,4,,,64,127
22322,note_on,1,0,0,,3,,,63,127
22322,note_on,0,0,0,,6,,,66,127
22322,note_on,0,0,0,,6,,,78,127
22426,note_off,104,0,0,,6,,,78,127
22427,note_on,1,0,0,,10,,,69,127
22531,note_off,104,0,0,,10,,,69,127
22532,note_on,1,0,0,,12,,,71,127
22635,note_off,103,0,0,,6,,,66,127
22636,note_off,1,0,0,,12,,,71,127
22637,note_on,1,0,0,,6,,,66,127
22741,note_off,104,0,0,,6,,,66,127
22741,note_off,0,0,0,,3,,,63,127
22742,note_on,1,0,0,,4,,,64,127
22742,note_on,0,0,0,,6,,,66,127
22950,note_off,208,0,0,,6,,,66,127
22951,note_on,1,0,0,,7,,,67,127
23159,note_off,208,0,0,,7,,,67,127
23159,note_off,0,0,0,,4,,,64,127
23160,note_on,1,0,0,,4,,,64,127
23160,note_on,0,0,0,,12,,,71,127
23264,note_off,104,0,0,,12,,,71,127
23265,note_on,1,0,0,,7,,,67,127
23369,note_off,104,0,0,,7,,,67,127
23370,note_on,1,0,0,,0,,,72,127
23474,note_off,104,0,0,,0,,,72,127
23475,note_on,1,0,0,,12,,,71,127
23579,note_off,104,0,0,,12,,,71,127
23579,note_off,0,0,0,,4,,,64,127
23580,note_on,1,0,0,,6,,,66,127
23580,note_on,0,0,0,,4,,,64,127
23580,note_on,0,0,0,,12,,,71,127
23788,note_off,208,0,0,,12,,,71,127
23789,note_on,1,0,0,,10,,,69,127
23997,note_off,208,0,0,,10,,,69,127
23997,note_off,0,0,0,,4,,,64,127
23997,note_off,0,0,0,,6,,,66,127
23998,note_on,1,0,0,,3,,,63,127
23998,note_on,0,0,0,,6,,,66,127
23998,note_on,0,0,0,,6,,,78,127
24102,note_off,104,0,0,,6,,,78,127
24103,note_on,1,0,0,,10,,,69,127
24207,note_off,104,0,0,,10,,,69,127
24208,note_on,1,0,0,,12,,,71,127
24311,note_off,103,0,0,,6,,,66,127
24312,note_off,1,0,0,,12,,,71,127
24313,note_on,1,0,0,,6,,,66,127
24417,note_off,104,0,0,,6,,,66,127
24417,note_off,0,0,0,,3,,,63,127
24418,note_on,1,0,0,,4,,,64,127
24418,note_on,0,0,0,,6,,,66,127
24626,note_off,208,0,0,,6,,,66,127
24627,note_on,1,0,0,,7,,,67,127
24835,note_off,208,0,0,,7,,,67,127
24835,note_off,0,0,0,,4,,,64,127
24836,note_on,1,0,0,,4,,,64,127
24836,note_on,0,0,0,,7,,,79,127
24940,note_off,104,0,0,,7,,,79,127
24941,note_on,1,0,0,,6,,,78,127
25045,note_off,104,0,0,,6,,,78,127
25046,note_on,1,0,0,,7,,,79,127
25150,note_off,104,0,0,,7,,,79,127
25151,note_on,1,0,0,,4,,,76,127
25255,note_off,104,0,0,,4,,,76,127
25255,note_off,0,0,0,,4,,,64,127
25256,note_on,1,0,0,,0,,,60,127
25256,note_on,0,0,0,,6,,,78,127
25464,note_off,208,0,0,,6,,,78,127
25465,note_on,1,0,0,,7,,,79,127
25673,note_off,208,0,0,,7,,,79,127
25673,note_off,0,0,0,,0,,,60,127
25674,note_on,1,0,0,,0,,,60,127
25674,note_on,0,0,0,,7,,,79,127
25778,note_off,104,0,0,,7,,,79,127
25779,note_on,1,0,0,,6,,,78,127
25883,note_off,104,0,0,,6,,,78,127
25884,note_on,1,0,0,,7,,,79,127
25988,note_off,104,0,0,,7,,,79,127
25989,note_on,1,0,0,,4,,,76,127
26093,note_off,104,0,0,,4,,,76,127
26093,note_off,0,0,0,,0,,,60,127
26094,note_on,1,0,0,,12,,,59,127
26094,note_on,0,0,0,,6,,,78,127
26302,note_off,208,0,0,,6,,,78,127
26303,note_on,1,0,0,,7,,,79,127
26511,note_off,208,0,0,,7,,,79,127
26511,note_off,0,0,0,,12,,,59,127
26512,note_on,1,0,0,,12,,,59,127
26512,note_on,0,0,0,,12,,,83,127
26720,note_off,208,0,0,,12,,,83,127
26721,note_on,1,0,0,,7,,,79,127
26929,note_off,208,0,0,,7,,,79,127
26929,note_off,0,0,0,,12,,,59,127
26930,note_on,1,0,0,,1,,,61,127
26930,note_on,0,0,0,,4,,,76,127
27138,note_off,208,0,0,,4,,,76,127
27139,note_on,1,0,0,,1,,,73,127
27347,note_off,208,0,0,,1,,,73,127
27347,note_off,0,0,0,,1,,,61,127
27348,note_on,1,0,0,,1,,,61,127
27348,note_on,0,0,0,,10,,,69,127
27417,note_off,69,0,0,,10,,,69,127
27418,note_on,1,0,0,,7,,,67,127
27487,note_off,69,0,0,,7,,,67,127
27488,note_on,1,0,0,,10,,,69,127
27557,note_off,69,0,0,,10,,,69,127
27558,note_on,1,0,0,,7,,,67,127
27627,note_off,69,0,0,,7,,,67,127
27628,note_on,1,0,0,,10,,,69,127
27697,note_off,69,0,0,,10,,,69,127
27698,note_on,1,0,0,,7,,,67,127
27767,note_off,69,0,0,,7,,,67,127
27767,note_off,0,0,0,,1,,,61,127
27768,note_on,1,0,0,,2,,,62,127
27768,note_on,0,0,0,,6,,,66,127
28186,note_off,418,0,0,,6,,,66,127
28186,note_off,0,0,0,,2,,,62,127
28187,note_on,1,0,0,,6,,,66,127
28187,note_on,0,0,0,,10,,,81,127
28291,note_off,104,0,0,,10,,,81,127
28292,note_on,1,0,0,,8,,,80,127
28396,note_off,104,0,0,,8,,,80,127
28397,note_on,1,0,0,,10,,,81,127
28501,note_off,104,0,0,,10,,,81,127
28502,note_on,1,0,0,,6,,,78,127
28606,note_off,104,0,0,,6,,,78,127
28606,note_off,0,0,0,,6,,,66,127
28607,note_on,1,0,0,,2,,,62,127
28607,note_on,0,0,0,,8,,,80,127
28815,note_off,208,0,0,,8,,,80,127
28816,note_on,1,0,0,,10,,,81,127
29024,note_off,208,0,0,,10,,,81,127
29024,note_off,0,0,0,,2,,,62,127
29025,note_on,1,0,0,,2,,,62,127
29025,note_on,0,0,0,,10,,,81,127
29129,note_off,104,0,0,,10,,,81,127
29130,note_on,1,0,0,,8,,,80,127
29234,note_off,104,0,0,,8,,,80,127
29235,note_on,1,0,0,,10,,,81,127
29339,note_off,104,0,0,,10,,,81,127
29340,note_on,1,0,0,,6,,,78,127
29444,note_off,104,0,0,,6,,,78,127
29444,note_off,0,0,0,,2,,,62,127
29445,note_on,1,0,0,,1,,,61,127
29445,note_on,0,0,0,,8,,,80,127
29653,note_off,208,0,0,,8,,,80,127
29654,note_on,1,0,0,,10,,,81,127
29862,note_off,208,0,0,,10,,,81,127
29862,note_off,0,0,0,,1,,,61,127
29863,note_on,1,0,0,,1,,,61,127
29863,note_on,0,0,0,,1,,,85,127
30071,note_off,208,0,0,,1,,,85,127
30072,note_on,1,0,0,,10,,,81,127
30280,note_off,208,0,0,,10,,,81,127
30280,note_off,0,0,0,,1,,,61,127
30281,note_on,1,0,0,,3,,,63,127
30281,note_on,0,0,0,,6,,,78,127
30489,note_off,208,0,0,,6,,,78,127
30490,note_on,1,0,0,,3,,,75,127
30698,note_off,208,0,0,,3,,,75,127
30698,note_off,0,0,0,,3,,,63,127
30699,note_on,1,0,0,,3,,,63,127
30699,note_on,0,0,0,,12,,,71,127
30768,note_off,69,0,0,,12,,,71,127
30769,note_on,1,0,0,,10,,,69,127
30838,note_off,69,0,0,,10,,,69,127
30839,note_on,1,0,0,,12,,,71,127
30908,note_off,69,0,0,,12,,,71,127
30909,note_on,1,0,0,,10,,,69,127
30978,note_off,69,0,0,,10,,,69,127
30979,note_on,1,0,0,,12,,,71,127
31048,note_off,69,0,0,,12,,,71,127
31049,note_on,1,0,0,,10,,,69,127
31118,note_off,69,0,0,,10,,,69,127
31118,note_off,0,0,0,,3,,,63,127
31119,note_on,1,0,0,,4,,,64,127
31119,note_on,0,0,0,,8,,,68,127
31537,note_off,418,0,0,,8,,,68,127
31537,note_off,0,0,0,,4,,,64,127
31538,note_on,1,0,0,,4,,,40,127
31538,note_on,0,0,0,,4,,,64,127
31538,note_on,0,0,0,,4,,,76,127
31642,note_off,104,0,0,,4,,,40,127
31643,note_on,1,0,0,,8,,,44,127
31747,note_off,104,0,0,,8,,,44,127
31748,note_on,1,0,0,,6,,,42,127
31852,note_off,104,0,0,,6,,,42,127
31853,note_on,1,0,0,,10,,,45,127
31957,note_off,104,0,0,,10,,,45,127
31957,note_off,0,0,0,,4,,,76,127
31957,note_off,0,0,0,,4,,,64,127
31958,note_on,1,0,0,,8,,,44,127
31958,note_on,0,0,0,,4,,,64,127
31958,note_on,0,0,0,,4,,,76,127
32062,note_off,104,0,0,,8,,,44,127
32063,note_on,1,0,0,,12,,,47,127
32167,note_off,104,0,0,,12,,,47,127
32168,note_on,1,0,0,,10,,,45,127
32272,note_off,104,0,0,,10,,,45,127
32273,note_on,1,0,0,,1,,,49,127
32377,note_off,104,0,0,,1,,,49,127
32377,note_off,0,0,0,,4,,,76,127
32377,note_off,0,0,0,,4,,,64,127
32378,note_on,1,0,0,,12,,,47,127
32378,note_on,0,0,0,,4,,,76,127
32378,note_on,0,0,0,,4,,,64,127
32482,note_off,104,0,0,,12,,,47,127
32483,note_on,1,0,0,,2,,,50,127
32587,note_off,104,0,0,,2,,,50,127
32588,note_on,1,0,0,,1,,,49,127
32692,note_off,104,0,0,,1,,,49,127
32693,note_on,1,0,0,,4,,,52,127
32797,note_off,104,0,0,,4,,,52,127
32797,note_off,0,0,0,,4,,,64,127
32797,note_off,0,0,0,,4,,,76,127
32798,note_on,1,0,0,,2,,,50,127
32798,note_on,0,0,0,,4,,,76,127
32798,note_on,0,0,0,,4,,,64,127
32902,note_off,104,0,0,,2,,,50,127
32903,note_on,1,0,0,,6,,,54,127
33007,note_off,104,0,0,,6,,,54,127
33008,note_on,1,0,0,,4,,,52,127
33112,note_off,104,0,0,,4,,,52,127
33113,note_on,1,0,0,,8,,,56,127
33217,note_off,104,0,0,,8,,,56,127
33217,note_off,0,0,0,,4,,,64,127
33217,note_off,0,0,0,,4,,,76,127
33218,note_on,1,0,0,,6,,,54,127
33218,note_on,0,0,0,,4,,,64,127
33218,note_on,0,0,0,,4,,,76,127
33322,note_off,104,0,0,,6,,,54,127
33323,note_on,1,0,0,,10,,,57,127
33427,note_off,104,0,0,,10,,,57,127
33428,note_on,1,0,0,,8,,,56,127
33532,note_off,104,0,0,,8,,,56,127
33533,note_on,1,0,0,,12,,,59,127
33637,note_off,104,0,0,,12,,,59,127
33637,note_off,0,0,0,,4,,,76,127
33637,note_off,0,0,0,,4,,,64,127
33638,note_on,1,0,0,,10,,,57,127
33638,note_on,0,0,0,,4,,,76,127
33638,note_on,0,0,0,,4,,,64,127
33846,note_off,208,0,0,,4,,,76,127
33847,note_on,1,0,0,,1,,,73,127
34052,note_off,205,0,0,,4,,,64,127
34055,note_off,3,0,0,,1,,,73,127
34055,note_off,0,0,0,,10,,,57,127
34056,note_on,1,0,0,,1,,,61,127
34056,note_on,0,0,0,,4,,,76,127
34264,note_off,208,0,0,,4,,,76,127
34264,note_off,0,0,0,,1,,,61,127
34265,note_on,1,0,0,,12,,,59,127
34265,note_on,0,0,0,,2,,,74,127
34369,note_off,104,0,0,,2,,,74,127
34369,note_off,0,0,0,,12,,,59,127
34370,note_on,1,0,0,,10,,,57,127
34370,note_on,0,0,0,,1,,,73,127
34474,note_off,104,0,0,,1,,,73,127
34474,note_off,0,0,0,,10,,,57,127
34475,note_on,1,0,0,,4,,,52,127
34475,note_on,0,0,0,,1,,,73,127
34514,note_on,39,0,0,,12,,,71,127
34518,note_off,4,0,0,,1,,,73,127
34553,note_on,35,0,0,,1,,,73,127
34557,note_off,4,0,0,,12,,,71,127
34592,note_on,35,0,0,,12,,,71,127
34596,note_off,4,0,0,,1,,,73,127
34892,note_off,296,0,0,,4,,,52,127
34893,note_on,1,0,0,,4,,,40,127
34893,note_on,0,0,0,,4,,,76,127
34893,note_on,0,0,0,,4,,,64,127
34905,note_off,12,0,0,,12,,,71,127
34997,note_off,92,0,0,,4,,,40,127
34998,note_on,1,0,0,,8,,,44,127
35102,note_off,104,0,0,,8,,,44,127
35103,note_on,1,0,0,,6,,,42,127
35207,note_off,104,0,0,,6,,,42,127
35208,note_on,1,0,0,,10,,,45,127
35312,note_off,104,0,0,,10,,,45,127
35312,note_off,0,0,0,,4,,,64,127
35312,note_off,0,0,0,,4,,,76,127
35313,note_on,1,0,0,,8,,,44,127
35313,note_on,0,0,0,,4,,,64,127
35313,note_on,0,0,0,,4,,,76,127
35417,note_off,104,0,0,,8,,,44,127
35418,note_on,1,0,0,,12,,,47,127
35522,note_off,104,0,0,,12,,,47,127
35523,note_on,1,0,0,,10,,,45,127
35627,note_off,104,0,0,,10,,,45,127
35628,note_on,1,0,0,,1,,,49,127
35732,note_off,104,0,0,,1,,,49,127
35732,note_off,0,0,0,,4,,,76,127
35732,note_off,0,0,0,,4,,,64,127
35733,note_on,1,0,0,,12,,,47,127
35733,note_on,0,0,0,,4,,,76,127
35733,note_on,0,0,0,,4,,,64,127
35837,note_off,104,0,0,,12,,,47,127
35838,note_on,1,0,0,,2,,,50,127
35942,note_off,104,0,0,,2,,,50,127
35943,note_on,1,0,0,,1,,,49,127
36047,note_off,104,0,0,,1,,,49,127
36048,note_on,1,0,0,,4,,,52,127
36152,note_off,104,0,0,,4,,,52,127
36152,note_off,0,0,0,,4,,,64,127
36152,note_off,0,0,0,,4,,,76,127
36153,note_on,1,0,0,,2,,,50,127
36153,note_on,0,0,0,,4,,,76,127
36153,note_on,0,0,0,,4,,,64,127
36257,note_off,104,0,0,,2,,,50,127
36258,note_on,1,0,0,,6,,,54,127
36362,note_off,104,0,0,,6,,,54,127
36363,note_on,1,0,0,,4,,,52,127
36467,note_off,104,0,0,,4,,,52,127
36468,note_on,1,0,0,,8,,,56,127
36572,note_off,104,0,0,,8,,,56,127
36572,note_off,0,0,0,,4,,,64,127
36572,note_off,0,0,0,,4,,,76,127
36573,note_on,1,0,0,,6,,,54,127
36573,note_on,0,0,0,,4,,,76,127
36573,note_on,0,0,0,,4,,,64,127
36677,note_off,104,0,0,,6,,,54,127
36678,note_on,1,0,0,,10,,,57,127
36782,note_off,104,0,0,,10,,,57,127
36783,note_on,1,0,0,,8,,,56,127
36887,note_off,104,0,0,,8,,,56,127
36888,note_on,1,0,0,,12,,,59,127
36992,note_off,104,0,0,,12,,,59,127
36992,note_off,0,0,0,,4,,,64,127
36992,note_off,0,0,0,,4,,,76,127
36993,note_on,1,0,0,,10,,,57,127
36993,note_on,0,0,0,,4,,,76,127
36993,note_on,0,0,0,,4,,,64,127
37201,note_off,208,0,0,,4,,,76,127
37202,note_on,1,0,0,,1,,,73,127
37407,note_off,205,0,0,,4,,,64,127
37410,note_off,3,0,0,,1,,,73,127
37410,note_off,0,0,0,,10,,,57,127
37411,note_on,1,0,0,,1,,,61,127
37411,note_on,0,0,0,,4,,,76,127
37619,note_off,208,0,0,,4,,,76,127
37619,note_off,0,0,0,,1,,,61,127
37620,note_on,1,0,0,,12,,,59,127
37620,note_on,0,0,0,,2,,,74,127
37724,note_off,104,0,0,,2,,,74,127
37724,note_off,0,0,0,,12,,,59,127
37725,note_on,1,0,0,,10,,,57,127
37725,note_on,0,0,0,,1,,,73,127
37829,note_off,104,0,0,,1,,,73,127
37829,note_off,0,0,0,,10,,,57,127
37830,note_on,1,0,0,,4,,,52,127
37830,note_on,0,0,0,,1,,,73,127
37869,note_on,39,0,0,,12,,,71,127
37873,note_off,4,0,0,,1,,,73,127
37908,note_on,35,0,0,,1,,,73,127
37912,note_off,4,0,0,,12,,,71,127
37947,note_on,35,0,0,,12,,,71,127
37951,note_off,4,0,0,,1,,,73,127
38247,note_off,296,0,0,,4,,,52,127
38248,note_on,1,0,0,,4,,,64,127
38248,note_on,0,0,0,,8,,,68,127
38260,note_off,12,0,0,,12,,,71,127
38352,note_off,92,0,0,,8,,,68,127
38353,note_on,1,0,0,,12,,,71,127
38457,note_off,104,0,0,,12,,,71,127
38458,note_on,1,0,0,,10,,,69,127
38562,note_off,104,0,0,,10,,,69,127
38563,note_on,1,0,0,,1,,,73,127
38667,note_off,104,0,0,,1,,,73,127
38667,note_off,0,0,0,,4,,,64,127
38668,note_on,1,0,0,,4,,,64,127
38668,note_on,0,0,0,,12,,,71,127
38876,note_off,208,0,0,,12,,,71,127
38877,note_on,1,0,0,,8,,,80,127
39085,note_off,208,0,0,,4,,,64,127
39086,note_on,1,0,0,,2,,,62,127
39294,note_off,208,0,0,,8,,,80,127
39295,note_on,1,0,0,,10,,,81,127
39399,note_off,104,0,0,,10,,,81,127
39400,note_on,1,0,0,,12,,,83,127
39504,note_off,104,0,0,,12,,,83,127
39504,note_off,0,0,0,,2,,,62,127
39505,note_on,1,0,0,,1,,,61,127
39505,note_on,0,0,0,,10,,,81,127
39714,note_on,209,0,0,,10,,,69,127
39919,note_off,205,0,0,,10,,,81,127
39922,note_off,3,0,0,,10,,,69,127
39922,note_off,0,0,0,,1,,,61,127
39923,note_on,1,0,0,,4,,,64,127
39923,note_on,0,0,0,,8,,,68,127
40027,note_off,104,0,0,,8,,,68,127
40028,note_on,1,0,0,,12,,,71,127
40132,note_off,104,0,0,,12,,,71,127
40133,note_on,1,0,0,,10,,,69,127
40237,note_off,104,0,0,,10,,,69,127
40238,note_on,1,0,0,,1,,,73,127
40342,note_off,104,0,0,,1,,,73,127
40342,note_off,0,0,0,,4,,,64,127
40343,note_on,1,0,0,,4,,,64,127
40343,note_on,0,0,0,,12,,,71,127
40551,note_off,208,0,0,,12,,,71,127
40552,note_on,1,0,0,,8,,,80,127
40760,note_off,208,0,0,,4,,,64,127
40761,note_on,1,0,0,,2,,,62,127
40969,note_off,208,0,0,,8,,,80,127
40970,note_on,1,0,0,,10,,,81,127
41074,note_off,104,0,0,,10,,,81,127
41075,note_on,1,0,0,,12,,,83,127
41179,note_off,104,0,0,,12,,,83,127
41179,note_off,0,0,0,,2,,,62,127
41180,note_on,1,0,0,,1,,,61,127
41180,note_on,0,0,0,,10,,,81,127
41388,note_off,208,0,0,,10,,,81,127
41389,note_on,1,0,0,,1,,,85,127
41493,note_off,104,0,0,,1,,,85,127
41494,note_on,1,0,0,,12,,,83,127
41598,note_off,104,0,0,,12,,,83,127
41598,note_off,0,0,0,,1,,,61,127
41599,note_on,1,0,0,,1,,,49,127
41599,note_on,0,0,0,,10,,,81,127
41703,note_off,104,0,0,,10,,,81,127
41704,note_on,1,0,0,,8,,,80,127
41808,note_off,104,0,0,,8,,,80,127
41809,note_on,1,0,0,,6,,,78,127
41913,note_off,104,0,0,,6,,,78,127
41914,note_on,1,0,0,,4,,,76,127
42018,note_off,104,0,0,,4,,,76,127
42018,note_off,0,0,0,,1,,,49,127
42019,note_on,1,0,0,,2,,,50,127
42019,note_on,0,0,0,,2,,,74,127
42123,note_off,104,0,0,,2,,,74,127
42124,note_on,1,0,0,,1,,,73,127
42228,note_off,104,0,0,,1,,,73,127
42229,note_on,1,0,0,,12,,,71,127
42333,note_off,104,0,0,,12,,,71,127
42334,note_on,1,0,0,,10,,,69,127
42438,note_off,104,0,0,,10,,,69,127
42438,note_off,0,0,0,,2,,,50,127
42439,note_on,1,0,0,,4,,,52,127
42439,note_on,0,0,0,,8,,,68,127
42543,note_off,104,0,0,,8,,,68,127
42544,note_on,1,0,0,,6,,,66,127
42648,note_off,104,0,0,,6,,,66,127
42649,note_on,1,0,0,,4,,,64,127
42753,note_off,104,0,0,,4,,,64,127
42754,note_on,1,0,0,,2,,,62,127
42858,note_off,104,0,0,,2,,,62,127
42858,note_off,0,0,0,,4,,,52,127
42859,note_on,1,0,0,,10,,,57,127
42859,note_on,0,0,0,,2,,,62,127
42898,note_on,39,0,0,,1,,,61,127
42902,note_off,4,0,0,,2,,,62,127
42937,note_on,35,0,0,,2,,,62,127
42941,note_off,4,0,0,,1,,,61,127
42976,note_on,35,0,0,,1,,,61,127
42980,note_off,4,0,0,,2,,,62,127
43276,note_off,296,0,0,,10,,,57,127
43277,note_on,1,0,0,,6,,,54,127
43277,note_on,0,0,0,,1,,,73,127
43289,note_off,12,0,0,,1,,,61,127
43381,note_off,92,0,0,,1,,,73,127
43382,note_on,1,0,0,,2,,,74,127
43486,note_off,104,0,0,,2,,,74,127
43487,note_on,1,0,0,,4,,,76,127
43591,note_off,104,0,0,,4,,,76,127
43592,note_on,1,0,0,,10,,,69,127
43696,note_off,104,0,0,,10,,,69,127
43696,note_off,0,0,0,,6,,,54,127
43697,note_on,1,0,0,,2,,,50,127
43697,note_on,0,0,0,,10,,,69,127
43905,note_off,208,0,0,,10,,,69,127
43906,note_on,1,0,0,,12,,,71,127
44114,note_off,208,0,0,,12,,,71,127
44114,note_off,0,0,0,,2,,,50,127
44115,note_on,1,0,0,,12,,,47,127
44115,note_on,0,0,0,,12,,,71,127
44219,note_off,104,0,0,,12,,,71,127
44220,note_on,1,0,0,,1,,,73,127
44324,note_off,104,0,0,,1,,,73,127
44325,note_on,1,0,0,,2,,,74,127
44429,note_off,104,0,0,,2,,,74,127
44430,note_on,1,0,0,,8,,,68,127
44534,note_off,104,0,0,,8,,,68,127
44534,note_off,0,0,0,,12,,,47,127
44535,note_on,1,0,0,,1,,,49,127
44535,note_on,0,0,0,,8,,,68,127
44743,note_off,208,0,0,,8,,,68,127
44744,note_on,1,0,0,,10,,,69,127
44952,note_off,208,0,0,,10,,,69,127
44952,note_off,0,0,0,,1,,,49,127
44953,note_on,1,0,0,,1,,,49,127
44953,note_on,0,0,0,,1,,,73,127
45057,note_off,104,0,0,,1,,,73,127
45058,note_on,1,0,0,,2,,,74,127
45162,note_off,104,0,0,,2,,,74,127
45163,note_on,1,0,0,,4,,,76,127
45267,note_off,104,0,0,,4,,,76,127
45268,note_on,1,0,0,,10,,,69,127
45372,note_off,104,0,0,,10,,,69,127
45372,note_off,0,0,0,,1,,,49,127
45373,note_on,1,0,0,,2,,,50,127
45373,note_on,0,0,0,,6,,,78,127
45477,note_off,104,0,0,,6,,,78,127
45478,note_on,1,0,0,,8,,,80,127
45582,note_off,104,0,0,,8,,,80,127
45583,note_on,1,0,0,,10,,,81,127
45688,note_on,105,0,0,,10,,,69,127
45791,note_off,103,0,0,,10,,,81,127
45792,note_off,1,0,0,,10,,,69,127
45792,note_off,0,0,0,,2,,,50,127
45793,note_on,1,0,0,,12,,,47,127
45793,note_on,0,0,0,,8,,,80,127
45897,note_off,104,0,0,,8,,,80,127
45898,note_on,1,0,0,,10,,,81,127
46002,note_off,104,0,0,,10,,,81,127
46003,note_on,1,0,0,,12,,,83,127
46107,note_off,104,0,0,,12,,,83,127
46108,note_on,1,0,0,,8,,,80,127
46212,note_off,104,0,0,,8,,,80,127
46212,note_off,0,0,0,,12,,,47,127
46213,note_on,1,0,0,,10,,,45,127
46213,note_on,0,0,0,,8,,,80,127
46421,note_off,208,0,0,,8,,,80,127
46422,note_on,1,0,0,,10,,,81,127
46630,note_off,208,0,0,,10,,,81,127
46630,note_off,0,0,0,,10,,,45,127
46631,note_on,1,0,0,,6,,,54,127
46631,note_on,0,0,0,,1,,,73,127
46735,note_off,104,0,0,,1,,,73,127
46736,note_on,1,0,0,,2,,,74,127
46840,note_off,104,0,0,,2,,,74,127
46841,note_on,1,0,0,,4,,,76,127
46945,note_off,104,0,0,,4,,,76,127
46946,note_on,1,0,0,,10,,,69,127
47050,note_off,104,0,0,,10,,,69,127
47050,note_off,0,0,0,,6,,,54,127
47051,note_on,1,0,0,,2,,,50,127
47051,note_on,0,0,0,,10,,,69,127
47259,note_off,208,0,0,,10,,,69,127
47260,note_on,1,0,0,,12,,,71,127
47468,note_off,208,0,0,,12,,,71,127
47468,note_off,0,0,0,,2,,,50,127
47469,note_on,1,0,0,,12,,,47,127
47469,note_on,0,0,0,,12,,,71,127
47573,note_off,104,0,0,,12,,,71,127
47574,note_on,1,0,0,,1,,,73,127
47678,note_off,104,0,0,,1,,,73,127
47679,note_on,1,0,0,,2,,,74,127
47783,note_off,104,0,0,,2,,,74,127
47784,note_on,1,0,0,,8,,,68,127
47888,note_off,104,0,0,,8,,,68,127
47888,note_off,0,0,0,,12,,,47,127
47889,note_on,1,0,0,,1,,,49,127
47889,note_on,0,0,0,,8,,,68,127
48097,note_off,208,0,0,,8,,,68,127
48098,note_on,1,0,0,,10,,,69,127
48306,note_off,208,0,0,,10,,,69,127
48306,note_off,0,0,0,,1,,,49,127
48307,note_on,1,0,0,,1,,,49,127
48307,note_on,0,0,0,,1,,,73,127
48411,note_off,104,0,0,,1,,,73,127
48412,note_on,1,0,0,,2,,,74,127
48516,note_off,104,0,0,,2,,,74,127
48517,note_on,1,0,0,,4,,,76,127
48621,note_off,104,0,0,,4,,,76,127
48622,note_on,1,0,0,,10,,,69,127
48726,note_off,104,0,0,,10,,,69,127
48726,note_off,0,0,0,,1,,,49,127
48727,note_on,1,0,0,,2,,,50,127
48727,note_on,0,0,0,,6,,,78,127
48831,note_off,104,0,0,,6,,,78,127
48832,note_on,1,0,0,,8,,,80,127
48936,note_off,104,0,0,,8,,,80,127
48937,note_on,1,0,0,,10,,,81,127
49042,note_on,105,0,0,,10,,,69,127
49145,note_off,103,0,0,,10,,,81,127
49146,note_off,1,0,0,,10,,,69,127
49146,note_off,0,0,0,,2,,,50,127
49147,note_on,1,0,0,,12,,,47,127
49147,note_on,0,0,0,,8,,,80,127
49251,note_off,104,0,0,,8,,,80,127
49252,note_on,1,0,0,,10,,,81,127
49356,note_off,104,0,0,,10,,,81,127
49357,note_on,1,0,0,,12,,,83,127
49461,note_off,104,0,0,,12,,,83,127
49462,note_on,1,0,0,,8,,,80,127
49566,note_off,104,0,0,,8,,,80,127
49566,note_off,0,0,0,,12,,,47,127
49567,note_on,1,0,0,,1,,,49,127
49567,note_on,0,0,0,,10,,,81,127
49671,note_off,104,0,0,,10,,,81,127
49672,note_on,1,0,0,,8,,,80,127
49776,note_off,104,0,0,,8,,,80,127
49777,note_on,1,0,0,,10,,,81,127
49881,note_off,104,0,0,,10,,,81,127
49882,note_on,1,0,0,,4,,,76,127
49986,note_off,104,0,0,,4,,,76,127
49986,note_off,0,0,0,,1,,,49,127
49987,note_on,1,0,0,,1,,,49,127
49987,note_on,0,0,0,,10,,,81,127
50091,note_off,104,0,0,,10,,,81,127
50092,note_on,1,0,0,,8,,,80,127
50196,note_off,104,0,0,,8,,,80,127
50197,note_on,1,0,0,,6,,,78,127
50301,note_off,104,0,0,,6,,,78,127
50302,note_on,1,0,0,,4,,,76,127
50406,note_off,104,0,0,,4,,,76,127
50406,note_off,0,0,0,,1,,,49,127
50407,note_on,1,0,0,,2,,,50,127
50407,note_on,0,0,0,,4,,,76,127
50511,note_off,104,0,0,,4,,,76,127
50512,note_on,1,0,0,,2,,,74,127
50616,note_off,104,0,0,,2,,,74,127
50617,note_on,1,0,0,,4,,,76,127
50721,note_off,104,0,0,,4,,,76,127
50722,note_on,1,0,0,,6,,,78,127
50826,note_off,104,0,0,,6,,,78,127
50826,note_off,0,0,0,,2,,,50,127
50827,note_on,1,0,0,,4,,,52,127
50827,note_on,0,0,0,,4,,,76,127
50931,note_off,104,0,0,,4,,,76,127
50932,note_on,1,0,0,,2,,,74,127
51036,note_off,104,0,0,,2,,,74,127
51037,note_on,1,0,0,,1,,,73,127
51141,note_off,104,0,0,,1,,,73,127
51142,note_on,1,0,0,,12,,,71,127
51246,note_off,104,0,0,,12,,,71,127
51246,note_off,0,0,0,,4,,,52,127
51247,note_on,1,0,0,,10,,,57,127
51247,note_on,0,0,0,,12,,,71,127
51455,note_off,208,0,0,,12,,,71,127
51456,note_on,1,0,0,,1,,,73,127
51664,note_off,208,0,0,,1,,,73,127
51664,note_off,0,0,0,,10,,,57,127
51665,note_on,1,0,0,,1,,,49,127
51665,note_on,0,0,0,,10,,,81,127
51769,note_off,104,0,0,,10,,,81,127
51770,note_on,1,0,0,,8,,,80,127
51874,note_off,104,0,0,,8,,,80,127
51875,note_on,1,0,0,,6,,,78,127
51979,note_off,104,0,0,,6,,,78,127
51980,note_on,1,0,0,,4,,,76,127
52084,note_off,104,0,0,,4,,,76,127
52084,note_off,0,0,0,,1,,,49,127
52085,note_on,1,0,0,,2,,,50,127
52085,note_on,0,0,0,,4,,,76,127
52189,note_off,104,0,0,,4,,,76,127
52190,note_on,1,0,0,,2,,,74,127
52294,note_off,104,0,0,,2,,,74,127
52295,note_on,1,0,0,,4,,,76,127
52399,note_off,104,0,0,,4,,,76,127
52400,note_on,1,0,0,,6,,,78,127
52504,note_off,104,0,0,,6,,,78,127
52504,note_off,0,0,0,,2,,,50,127
52505,note_on,1,0,0,,4,,,52,127
52505,note_on,0,0,0,,4,,,76,127
52609,note_off,104,0,0,,4,,,76,127
52610,note_on,1,0,0,,2,,,74,127
52714,note_off,104,0,0,,2,,,74,127
52715,note_on,1,0,0,,1,,,73,127
52819,note_off,104,0,0,,1,,,73,127
52820,note_on,1,0,0,,12,,,71,127
52924,note_off,104,0,0,,12,,,71,127
52924,note_off,0,0,0,,4,,,52,127
52925,note_on,1,0,0,,10,,,57,127
52925,note_on,0,0,0,,1,,,73,127
53029,note_off,104,0,0,,1,,,73,127
53030,note_on,1,0,0,,10,,,69,127
53134,note_off,104,0,0,,10,,,69,127
53135,note_on,1,0,0,,1,,,73,127
53239,note_off,104,0,0,,1,,,73,127
53240,note_on,1,0,0,,4,,,76,127
53344,note_off,104,0,0,,4,,,76,127
53344,note_off,0,0,0,,10,,,57,127
53345,note_on,1,0,0,,1,,,49,127
53345,note_on,0,0,0,,10,,,81,127
53449,note_off,104,0,0,,10,,,81,127
53450,note_on,1,0,0,,8,,,80,127
53554,note_off,104,0,0,,8,,,80,127
53555,note_on,1,0,0,,6,,,78,127
53659,note_off,104,0,0,,6,,,78,127
53660,note_on,1,0,0,,4,,,76,127
53764,note_off,104,0,0,,4,,,76,127
53764,note_off,0,0,0,,1,,,49,127
53765,note_on,1,0,0,,2,,,50,127
53765,note_on,0,0,0,,6,,,78,127
53869,note_off,104,0,0,,6,,,78,127
53870,note_on,1,0,0,,8,,,80,127
53974,note_off,104,0,0,,8,,,80,127
53975,note_on,1,0,0,,10,,,81,127
54079,note_off,104,0,0,,10,,,81,127
54080,note_on,1,0,0,,2,,,74,127
54184,note_off,104,0,0,,2,,,74,127
54184,note_off,0,0,0,,2,,,50,127
54185,note_on,1,0,0,,4,,,52,127
54185,note_on,0,0,0,,1,,,73,127
54289,note_off,104,0,0,,1,,,73,127
54290,note_on,1,0,0,,10,,,81,127
54394,note_off,104,0,0,,10,,,81,127
54395,note_on,1,0,0,,12,,,71,127
54499,note_off,104,0,0,,12,,,71,127
54500,note_on,1,0,0,,8,,,80,127
54604,note_off,104,0,0,,8,,,80,127
54604,note_off,0,0,0,,4,,,52,127
54605,note_on,1,0,0,,10,,,45,127
54605,note_on,0,0,0,,10,,,81,127
55023,note_off,418,0,0,,10,,,81,127
55023,note_off,0,0,0,,10,,,45,127
55024,note_on,1,0,0,,10,,,69,127
55024,note_on,0,0,0,,10,,,81,127
55128,note_off,104,0,0,,10,,,81,127
55129,note_on,1,0,0,,4,,,76,127
55233,note_off,104,0,0,,4,,,76,127
55234,note_on,1,0,0,,6,,,78,127
55338,note_off,104,0,0,,6,,,78,127
55339,note_on,1,0,0,,1,,,73,127
55443,note_off,104,0,0,,1,,,73,127
55443,note_off,0,0,0,,10,,,69,127
55444,note_on,1,0,0,,12,,,71,127
55444,note_on,0,0,0,,10,,,69,127
55444,note_on,0,0,0,,1,,,73,127
55652,note_off,208,0,0,,1,,,73,127
55653,note_on,1,0,0,,2,,,74,127
55861,note_off,208,0,0,,2,,,74,127
55861,note_off,0,0,0,,10,,,69,127
55861,note_off,0,0,0,,12,,,71,127
55862,note_on,1,0,0,,8,,,68,127
55862,note_on,0,0,0,,12,,,83,127
55966,note_off,104,0,0,,12,,,83,127
55967,note_on,1,0,0,,2,,,74,127
56071,note_off,104,0,0,,2,,,74,127
56072,note_on,1,0,0,,4,,,76,127
56176,note_off,104,0,0,,4,,,76,127
56177,note_on,1,0,0,,12,,,71,127
56281,note_off,104,0,0,,12,,,71,127
56281,note_off,0,0,0,,8,,,68,127
56282,note_on,1,0,0,,10,,,69,127
56282,note_on,0,0,0,,12,,,71,127
56490,note_off,208,0,0,,12,,,71,127
56491,note_on,1,0,0,,1,,,73,127
56699,note_off,208,0,0,,1,,,73,127
56699,note_off,0,0,0,,10,,,69,127
56700,note_on,1,0,0,,10,,,69,127
56700,note_on,0,0,0,,10,,,81,127
56804,note_off,104,0,0,,10,,,81,127
56805,note_on,1,0,0,,4,,,76,127
56909,note_off,104,0,0,,4,,,76,127
56910,note_on,1,0,0,,6,,,78,127
57014,note_off,104,0,0,,6,,,78,127
57015,note_on,1,0,0,,1,,,73,127
57119,note_off,104,0,0,,1,,,73,127
57119,note_off,0,0,0,,10,,,69,127
57120,note_on,1,0,0,,10,,,69,127
57120,note_on,0,0,0,,12,,,71,127
57120,note_on,0,0,0,,1,,,73,127
57328,note_off,208,0,0,,1,,,73,127
57329,note_on,1,0,0,,2,,,74,127
57537,note_off,208,0,0,,2,,,74,127
57537,note_off,0,0,0,,12,,,71,127
57537,note_off,0,0,0,,10,,,69,127
57538,note_on,1,0,0,,7,,,67,127
57538,note_on,0,0,0,,12,,,83,127
57642,note_off,104,0,0,,12,,,83,127
57643,note_on,1,0,0,,2,,,74,127
57747,note_off,104,0,0,,2,,,74,127
57748,note_on,1,0,0,,4,,,76,127
57852,note_off,104,0,0,,4,,,76,127
57853,note_on,1,0,0,,12,,,71,127
57957,note_off,104,0,0,,12,,,71,127
57957,note_off,0,0,0,,7,,,67,127
57958,note_on,1,0,0,,7,,,67,127
57958,note_on,0,0,0,,10,,,69,127
57958,note_on,0,0,0,,12,,,71,127
58166,note_off,208,0,0,,12,,,71,127
58167,note_on,1,0,0,,1,,,73,127
58375,note_off,208,0,0,,1,,,73,127
58375,note_off,0,0,0,,10,,,69,127
58375,note_off,0,0,0,,7,,,67,127
58376,note_on,1,0,0,,6,,,66,127
58376,note_on,0,0,0,,10,,,81,127
58480,note_off,104,0,0,,10,,,81,127
58481,note_on,1,0,0,,1,,,73,127
58585,note_off,104,0,0,,1,,,73,127
58586,note_on,1,0,0,,2,,,74,127
58690,note_off,104,0,0,,2,,,74,127
58691,note_on,1,0,0,,10,,,69,127
58795,note_off,104,0,0,,10,,,69,127
58795,note_off,0,0,0,,6,,,66,127
58796,note_on,1,0,0,,7,,,67,127
58796,note_on,0,0,0,,6,,,66,127
58796,note_on,0,0,0,,10,,,69,127
59004,note_off,208,0,0,,10,,,69,127
59005,note_on,1,0,0,,12,,,71,127
59213,note_off,208,0,0,,12,,,71,127
59213,note_off,0,0,0,,6,,,66,127
59213,note_off,0,0,0,,7,,,67,127
59214,note_on,1,0,0,,4,,,64,127
59214,note_on,0,0,0,,7,,,79,127
59318,note_off,104,0,0,,7,,,79,127
59319,note_on,1,0,0,,12,,,71,127
59423,note_off,104,0,0,,12,,,71,127
59424,note_on,1,0,0,,1,,,73,127
59528,note_off,104,0,0,,1,,,73,127
59529,note_on,1,0,0,,12,,,71,127
59633,note_off,104,0,0,,12,,,71,127
59633,note_off,0,0,0,,4,,,64,127
59634,note_on,1,0,0,,4,,,64,127
59634,note_on,0,0,0,,11,,,70,127
59738,note_off,104,0,0,,4,,,64,127
59739,note_on,1,0,0,,6,,,66,127
59843,note_off,104,0,0,,6,,,66,127
59843,note_off,0,0,0,,11,,,70,127
59844,note_on,1,0,0,,2,,,62,127
59844,note_on,0,0,0,,12,,,71,127
59948,note_off,104,0,0,,2,,,62,127
59949,note_on,1,0,0,,4,,,64,127
60053,note_off,104,0,0,,4,,,64,127
60053,note_off,0,0,0,,12,,,71,127
60054,note_on,1,0,0,,1,,,61,127
60054,note_on,0,0,0,,1,,,73,127
60158,note_off,104,0,0,,1,,,61,127
60159,note_on,1,0,0,,2,,,62,127
60263,note_off,104,0,0,,2,,,62,127
60263,note_off,0,0,0,,1,,,73,127
60264,note_on,1,0,0,,12,,,59,127
60264,note_on,0,0,0,,2,,,74,127
60368,note_off,104,0,0,,12,,,59,127
60369,note_on,1,0,0,,1,,,61,127
60473,note_off,104,0,0,,1,,,61,127
60473,note_off,0,0,0,,2,,,74,127
60474,note_on,1,0,0,,11,,,58,127
60474,note_on,0,0,0,,4,,,76,127
60578,note_off,104,0,0,,4,,,76,127
60579,note_on,1,0,0,,2,,,74,127
60683,note_off,104,0,0,,2,,,74,127
60684,note_on,1,0,0,,4,,,76,127
60788,note_off,104,0,0,,4,,,76,127
60789,note_on,1,0,0,,1,,,73,127
60893,note_off,104,0,0,,1,,,73,127
60893,note_off,0,0,0,,11,,,58,127
60894,note_on,1,0,0,,12,,,59,127
60894,note_on,0,0,0,,2,,,74,127
60998,note_off,104,0,0,,2,,,74,127
60999,note_on,1,0,0,,1,,,73,127
61103,note_off,104,0,0,,1,,,73,127
61104,note_on,1,0,0,,2,,,74,127
61208,note_off,104,0,0,,2,,,74,127
61209,note_on,1,0,0,,12,,,71,127
61313,note_off,104,0,0,,12,,,71,127
61313,note_off,0,0,0,,12,,,59,127
61314,note_on,1,0,0,,6,,,54,127
61314,note_on,0,0,0,,2,,,74,127
61353,note_on,39,0,0,,1,,,73,127
61357,note_off,4,0,0,,2,,,74,127
61392,note_on,35,0,0,,2,,,74,127
61396,note_off,4,0,0,,1,,,73,127
61431,note_on,35,0,0,,1,,,73,127
61435,note_off,4,0,0,,2,,,74,127
61731,note_off,296,0,0,,6,,,54,127
61732,note_on,1,0,0,,6,,,54,127
61732,note_on,0,0,0,,6,,,78,127
61732,note_on,0,0,0,,6,,,66,127
61744,note_off,12,0,0,,1,,,73,127
61836,note_off,92,0,0,,6,,,54,127
61837,note_on,1,0,0,,11,,,58,127
61941,note_off,104,0,0,,11,,,58,127
61942,note_on,1,0,0,,8,,,56,127
62046,note_off,104,0,0,,8,,,56,127
62047,note_on,1,0,0,,12,,,59,127
62151,note_off,104,0,0,,12,,,59,127
62151,note_off,0,0,0,,6,,,66,127
62151,note_off,0,0,0,,6,,,78,127
62152,note_on,1,0,0,,11,,,58,127
62152,note_on,0,0,0,,6,,,66,127
62152,note_on,0,0,0,,6,,,78,127
62256,note_off,104,0,0,,11,,,58,127
62257,note_on,1,0,0,,1,,,61,127
62361,note_off,104,0,0,,1,,,61,127
62362,note_on,1,0,0,,12,,,59,127
62466,note_off,104,0,0,,12,,,59,127
62467,note_on,1,0,0,,2,,,62,127
62571,note_off,104,0,0,,2,,,62,127
62571,note_off,0,0,0,,6,,,78,127
62571,note_off,0,0,0,,6,,,66,127
62572,note_on,1,0,0,,1,,,61,127
62572,note_on,0,0,0,,4,,,76,127
62780,note_off,208,0,0,,4,,,76,127
62780,note_off,0,0,0,,1,,,61,127
62781,note_on,1,0,0,,11,,,58,127
62781,note_on,0,0,0,,2,,,74,127
62885,note_off,104,0,0,,2,,,74,127
62886,note_on,1,0,0,,1,,,73,127
62990,note_off,104,0,0,,1,,,73,127
62990,note_off,0,0,0,,11,,,58,127
62991,note_on,1,0,0,,12,,,59,127
62991,note_on,0,0,0,,4,,,76,127
63042,note_off,51,0,0,,4,,,76,127
63043,note_on,1,0,0,,2,,,74,127
63094,note_off,51,0,0,,2,,,74,127
63095,note_on,1,0,0,,4,,,76,127
63146,note_off,51,0,0,,4,,,76,127
63147,note_on,1,0,0,,2,,,74,127
63198,note_off,51,0,0,,2,,,74,127
63198,note_off,0,0,0,,12,,,59,127
63199,note_on,1,0,0,,6,,,54,127
63199,note_on,0,0,0,,1,,,73,127
63407,note_off,208,0,0,,1,,,73,127
63407,note_off,0,0,0,,6,,,54,127
63408,note_on,1,0,0,,6,,,54,127
63408,note_on,0,0,0,,6,,,66,127
63408,note_on,0,0,0,,6,,,78,127
63512,note_off,104,0,0,,6,,,54,127
63513,note_on,1,0,0,,11,,,58,127
63617,note_off,104,0,0,,11,,,58,127
63618,note_on,1,0,0,,8,,,56,127
63722,note_off,104,0,0,,8,,,56,127
63723,note_on,1,0,0,,12,,,59,127
63827,note_off,104,0,0,,12,,,59,127
63827,note_off,0,0,0,,6,,,78,127
63827,note_off,0,0,0,,6,,,66,127
63828,note_on,1,0,0,,11,,,58,127
63828,note_on,0,0,0,,6,,,66,127
63828,note_on,0,0,0,,6,,,78,127
63932,note_off,104,0,0,,11,,,58,127
63933,note_on,1,0,0,,1,,,61,127
64037,note_off,104,0,0,,1,,,61,127
64038,note_on,1,0,0,,12,,,59,127
64142,note_off,104,0,0,,12,,,59,127
64143,note_on,1,0,0,,2,,,62,127
64247,note_off,104,0,0,,2,,,62,127
64247,note_off,0,0,0,,6,,,78,127
64247,note_off,0,0,0,,6,,,66,127
64248,note_on,1,0,0,,1,,,61,127
64248,note_on,0,0,0,,4,,,76,127
64456,note_off,208,0,0,,4,,,76,127
64456,note_off,0,0,0,,1,,,61,127
64457,note_on,1,0,0,,6,,,54,127
64457,note_on,0,0,0,,2,,,74,127
64561,note_off,104,0,0,,2,,,74,127
64562,note_on,1,0,0,,1,,,73,127
64666,note_off,104,0,0,,1,,,73,127
64666,note_off,0,0,0,,6,,,54,127
64667,note_on,1,0,0,,12,,,59,127
64667,note_on,0,0,0,,2,,,74,127
64875,note_off,208,0,0,,2,,,74,127
64876,note_on,1,0,0,,1,,,73,127
64980,note_off,104,0,0,,1,,,73,127
64981,note_on,1,0,0,,12,,,71,127
65085,note_off,104,0,0,,12,,,71,127
65085,note_off,0,0,0,,12,,,59,127
65086,note_on,1,0,0,,7,,,67,127
65086,note_on,0,0,0,,2,,,74,127
65190,note_off,104,0,0,,2,,,74,127
65191,note_on,1,0,0,,1,,,73,127
65295,note_off,104,0,0,,1,,,73,127
65296,note_on,1,0,0,,2,,,74,127
65400,note_off,104,0,0,,2,,,74,127
65401,note_on,1,0,0,,12,,,71,127
65505,note_off,104,0,0,,12,,,71,127
65505,note_off,0,0,0,,7,,,67,127
65506,note_on,1,0,0,,7,,,67,127
65506,note_on,0,0,0,,10,,,69,127
65506,note_on,0,0,0,,12,,,71,127
65714,note_off,208,0,0,,12,,,71,127
65714,note_off,0,0,0,,7,,,67,127
65715,note_on,1,0,0,,6,,,66,127
65715,note_on,0,0,0,,1,,,73,127
65920,note_off,205,0,0,,10,,,69,127
65923,note_off,3,0,0,,1,,,73,127
65923,note_off,0,0,0,,6,,,66,127
65924,note_on,1,0,0,,7,,,67,127
65924,note_on,0,0,0,,2,,,74,127
66028,note_off,104,0,0,,2,,,74,127
66029,note_on,1,0,0,,1,,,73,127
66133,note_off,104,0,0,,1,,,73,127
66134,note_on,1,0,0,,2,,,74,127
66238,note_off,104,0,0,,2,,,74,127
66239,note_on,1,0,0,,12,,,71,127
66343,note_off,104,0,0,,12,,,71,127
66343,note_off,0,0,0,,7,,,67,127
66344,note_on,1,0,0,,7,,,67,127
66344,note_on,0,0,0,,10,,,69,127
66344,note_on,0,0,0,,1,,,73,127
66552,note_off,208,0,0,,1,,,73,127
66552,note_off,0,0,0,,7,,,67,127
66553,note_on,1,0,0,,6,,,66,127
66553,note_on,0,0,0,,2,,,74,127
66758,note_off,205,0,0,,10,,,69,127
66761,note_off,3,0,0,,2,,,74,127
66761,note_off,0,0,0,,6,,,66,127
66762,note_on,1,0,0,,8,,,68,127
66762,note_on,0,0,0,,2,,,74,127
66866,note_off,104,0,0,,2,,,74,127
66867,note_on,1,0,0,,1,,,73,127
66971,note_off,104,0,0,,1,,,73,127
66972,note_on,1,0,0,,2,,,74,127
67076,note_off,104,0,0,,2,,,74,127
67077,note_on,1,0,0,,12,,,71,127
67181,note_off,104,0,0,,12,,,71,127
67181,note_off,0,0,0,,8,,,68,127
67182,note_on,1,0,0,,10,,,69,127
67182,note_on,0,0,0,,12,,,71,127
67390,note_off,208,0,0,,12,,,71,127
67391,note_on,1,0,0,,1,,,73,127
67599,note_off,208,0,0,,1,,,73,127
67599,note_off,0,0,0,,10,,,69,127
67600,note_on,1,0,0,,8,,,68,127
67600,note_on,0,0,0,,2,,,74,127
67704,note_off,104,0,0,,2,,,74,127
67705,note_on,1,0,0,,1,,,73,127
67809,note_off,104,0,0,,1,,,73,127
67810,note_on,1,0,0,,2,,,74,127
67914,note_off,104,0,0,,2,,,74,127
67915,note_on,1,0,0,,12,,,71,127
68019,note_off,104,0,0,,12,,,71,127
68019,note_off,0,0,0,,8,,,68,127
68020,note_on,1,0,0,,10,,,69,127
68020,note_on,0,0,0,,12,,,71,127
68228,note_off,208,0,0,,12,,,71,127
68229,note_on,1,0,0,,1,,,73,127
68437,note_off,208,0,0,,1,,,73,127
68437,note_off,0,0,0,,10,,,69,127
68438,note_on,1,0,0,,10,,,45,127
68438,note_on,0,0,0,,10,,,81,127
68438,note_on,0,0,0,,10,,,69,127
68542,note_off,104,0,0,,10,,,45,127
68543,note_on,1,0,0,,1,,,49,127
68647,note_off,104,0,0,,1,,,49,127
68648,note_on,1,0,0,,12,,,47,127
68752,note_off,104,0,0,,12,,,47,127
68753,note_on,1,0,0,,2,,,50,127
68857,note_off,104,0,0,,2,,,50,127
68857,note_off,0,0,0,,10,,,69,127
68857,note_off,0,0,0,,10,,,81,127
68858,note_on,1,0,0,,1,,,49,127
68858,note_on,0,0,0,,10,,,81,127
68858,note_on,0,0,0,,10,,,69,127
68962,note_off,104,0,0,,1,,,49,127
68963,note_on,1,0,0,,4,,,52,127
69067,note_off,104,0,0,,4,,,52,127
69068,note_on,1,0,0,,2,,,50,127
69172,note_off,104,0,0,,2,,,50,127
69173,note_on,1,0,0,,6,,,54,127
69277,note_off,104,0,0,,6,,,54,127
69277,note_off,0,0,0,,10,,,69,127
69277,note_off,0,0,0,,10,,,81,127
69278,note_on,1,0,0,,4,,,52,127
69278,note_on,0,0,0,,10,,,81,127
69278,note_on,0,0,0,,10,,,69,127
69382,note_off,104,0,0,,4,,,52,127
69383,note_on,1,0,0,,7,,,55,127
69487,note_off,104,0,0,,7,,,55,127
69488,note_on,1,0,0,,6,,,54,127
69592,note_off,104,0,0,,6,,,54,127
69593,note_on,1,0,0,,10,,,57,127
69697,note_off,104,0,0,,10,,,57,127
69697,note_off,0,0,0,,10,,,69,127
69697,note_off,0,0,0,,10,,,81,127
69698,note_on,1,0,0,,7,,,55,127
69698,note_on,0,0,0,,10,,,81,127
69698,note_on,0,0,0,,12,,,71,127
69906,note_off,208,0,0,,10,,,81,127
69907,note_on,1,0,0,,7,,,79,127
70112,note_off,205,0,0,,12,,,71,127
70115,note_off,3,0,0,,7,,,79,127
70115,note_off,0,0,0,,7,,,55,127
70116,note_on,1,0,0,,7,,,43,127
70116,note_on,0,0,0,,7,,,79,127
70116,note_on,0,0,0,,12,,,71,127
70220,note_off,104,0,0,,7,,,43,127
70221,note_on,1,0,0,,12,,,47,127
70325,note_off,104,0,0,,12,,,47,127
70326,note_on,1,0,0,,10,,,45,127
70430,note_off,104,0,0,,10,,,45,127
70431,note_on,1,0,0,,1,,,49,127
70535,note_off,104,0,0,,1,,,49,127
70535,note_off,0,0,0,,12,,,71,127
70535,note_off,0,0,0,,7,,,79,127
70536,note_on,1,0,0,,12,,,47,127
70536,note_on,0,0,0,,7,,,79,127
70536,note_on,0,0,0,,12,,,71,127
70640,note_off,104,0,0,,12,,,47,127
70641,note_on,1,0,0,,2,,,50,127
70745,note_off,104,0,0,,2,,,50,127
70746,note_on,1,0,0,,1,,,49,127
70850,note_off,104,0,0,,1,,,49,127
70851,note_on,1,0,0,,4,,,52,127
70955,note_off,104,0,0,,4,,,52,127
70955,note_off,0,0,0,,12,,,71,127
70955,note_off,0,0,0,,7,,,79,127
70956,note_on,1,0,0,,2,,,50,127
70956,note_on,0,0,0,,7,,,79,127
70956,note_on,0,0,0,,12,,,71,127
71060,note_off,104,0,0,,2,,,50,127
71061,note_on,1,0,0,,6,,,54,127
71165,note_off,104,0,0,,6,,,54,127
71166,note_on,1,0,0,,4,,,52,127
71270,note_off,104,0,0,,4,,,52,127
71271,note_on,1,0,0,,7,,,55,127
71375,note_off,104,0,0,,7,,,55,127
71375,note_off,0,0,0,,12,,,71,127
71375,note_off,0,0,0,,7,,,79,127
71376,note_on,1,0,0,,6,,,54,127
71376,note_on,0,0,0,,7,,,79,127
71376,note_on,0,0,0,,10,,,69,127
71584,note_off,208,0,0,,7,,,79,127
71585,note_on,1,0,0,,6,,,78,127
71689,note_off,104,0,0,,6,,,78,127
71690,note_on,1,0,0,,4,,,76,127
71790,note_off,100,0,0,,10,,,69,127
71793,note_off,3,0,0,,4,,,76,127
71793,note_off,0,0,0,,6,,,54,127
71794,note_on,1,0,0,,6,,,54,127
71794,note_on,0,0,0,,2,,,74,127
71898,note_off,104,0,0,,2,,,74,127
71899,note_on,1,0,0,,1,,,73,127
72003,note_off,104,0,0,,1,,,73,127
72004,note_on,1,0,0,,12,,,71,127
72108,note_off,104,0,0,,12,,,71,127
72109,note_on,1,0,0,,10,,,69,127
72213,note_off,104,0,0,,10,,,69,127
72213,note_off,0,0,0,,6,,,54,127
72214,note_on,1,0,0,,7,,,55,127
72214,note_on,0,0,0,,12,,,71,127
72318,note_off,104,0,0,,12,,,71,127
72319,note_on,1,0,0,,2,,,74,127
72423,note_off,104,0,0,,2,,,74,127
72424,note_on,1,0,0,,1,,,73,127
72528,note_off,104,0,0,,1,,,73,127
72529,note_on,1,0,0,,4,,,76,127
72633,note_off,104,0,0,,4,,,76,127
72633,note_off,0,0,0,,7,,,55,127
72634,note_on,1,0,0,,7,,,55,127
72634,note_on,0,0,0,,2,,,74,127
72738,note_off,104,0,0,,2,,,74,127
72739,note_on,1,0,0,,6,,,78,127
72843,note_off,104,0,0,,6,,,78,127
72844,note_on,1,0,0,,7,,,79,127
72948,note_off,104,0,0,,7,,,79,127
72949,note_on,1,0,0,,4,,,76,127
73053,note_off,104,0,0,,4,,,76,127
73053,note_off,0,0,0,,7,,,55,127
73054,note_on,1,0,0,,10,,,57,127
73054,note_on,0,0,0,,2,,,74,127
73472,note_off,418,0,0,,2,,,74,127
73473,note_on,1,0,0,,10,,,45,127
73473,note_on,0,0,0,,6,,,78,127
73542,note_off,69,0,0,,6,,,78,127
73543,note_on,1,0,0,,4,,,76,127
73612,note_off,69,0,0,,4,,,76,127
73613,note_on,1,0,0,,6,,,78,127
73682,note_off,69,0,0,,6,,,78,127
73683,note_on,1,0,0,,4,,,76,127
73752,note_off,69,0,0,,4,,,76,127
73753,note_on,1,0,0,,2,,,74,127
73822,note_off,69,0,0,,2,,,74,127
73823,note_on,1,0,0,,4,,,76,127
73892,note_off,69,0,0,,4,,,76,127
73892,note_off,0,0,0,,10,,,45,127
73892,note_off,0,0,0,,10,,,57,127
73893,note_on,1,0,0,,2,,,50,127
73893,note_on,0,0,0,,2,,,74,127
74311,note_off,418,0,0,,2,,,74,127
74311,note_off,0,0,0,,2,,,50,127
74312,note_on,1,0,0,,2,,,50,127
74312,note_on,0,0,0,,6,,,78,127
74312,note_on,0,0,0,,2,,,86,127
74416,note_off,104,0,0,,2,,,50,127
74417,note_on,1,0,0,,6,,,54,127
74521,note_off,104,0,0,,6,,,54,127
74522,note_on,1,0,0,,4,,,52,127
74626,note_off,104,0,0,,4,,,52,127
74627,note_on,1,0,0,,7,,,55,127
74731,note_off,104,0,0,,7,,,55,127
74731,note_off,0,0,0,,2,,,86,127
74731,note_off,0,0,0,,6,,,78,127
74732,note_on,1,0,0,,6,,,54,127
74732,note_on,0,0,0,,6,,,78,127
74732,note_on,0,0,0,,2,,,86,127
74836,note_off,104,0,0,,6,,,54,127
74837,note_on,1,0,0,,10,,,57,127
74941,note_off,104,0,0,,10,,,57,127
74942,note_on,1,0,0,,7,,,55,127
75046,note_off,104,0,0,,7,,,55,127
75047,note_on,1,0,0,,12,,,59,127
75151,note_off,104,0,0,,12,,,59,127
75151,note_off,0,0,0,,2,,,86,127
75151,note_off,0,0,0,,6,,,78,127
75152,note_on,1,0,0,,10,,,57,127
75152,note_on,0,0,0,,2,,,86,127
75152,note_on,0,0,0,,6,,,78,127
75256,note_off,104,0,0,,10,,,57,127
75257,note_on,1,0,0,,1,,,61,127
75361,note_off,104,0,0,,1,,,61,127
75362,note_on,1,0,0,,12,,,59,127
75466,note_off,104,0,0,,12,,,59,127
75467,note_on,1,0,0,,2,,,62,127
75571,note_off,104,0,0,,2,,,62,127
75571,note_off,0,0,0,,6,,,78,127
75571,note_off,0,0,0,,2,,,86,127
75572,note_on,1,0,0,,1,,,61,127
75572,note_on,0,0,0,,2,,,86,127
75572,note_on,0,0,0,,4,,,76,127
75780,note_off,208,0,0,,2,,,86,127
75781,note_on,1,0,0,,1,,,85,127
75986,note_off,205,0,0,,4,,,76,127
75989,note_off,3,0,0,,1,,,85,127
75989,note_off,0,0,0,,1,,,61,127
75990,note_on,1,0,0,,1,,,49,127
75990,note_on,0,0,0,,4,,,76,127
75990,note_on,0,0,0,,1,,,85,127
76094,note_off,104,0,0,,1,,,49,127
76095,note_on,1,0,0,,4,,,52,127
76199,note_off,104,0,0,,4,,,52,127
76200,note_on,1,0,0,,2,,,50,127
76304,note_off,104,0,0,,2,,,50,127
76305,note_on,1,0,0,,6,,,54,127
76409,note_off,104,0,0,,6,,,54,127
76409,note_off,0,0,0,,1,,,85,127
76409,note_off,0,0,0,,4,,,76,127
76410,note_on,1,0,0,,4,,,52,127
76410,note_on,0,0,0,,4,,,76,127
76410,note_on,0,0,0,,1,,,85,127
76514,note_off,104,0,0,,4,,,52,127
76515,note_on,1,0,0,,7,,,55,127
76619,note_off,104,0,0,,7,,,55,127
76620,note_on,1,0,0,,6,,,54,127
76724,note_off,104,0,0,,6,,,54,127
76725,note_on,1,0,0,,10,,,57,127
76829,note_off,104,0,0,,10,,,57,127
76829,note_off,0,0,0,,1,,,85,127
76829,note_off,0,0,0,,4,,,76,127
76830,note_on,1,0,0,,7,,,55,127
76830,note_on,0,0,0,,4,,,76,127
76830,note_on,0,0,0,,1,,,85,127
76934,note_off,104,0,0,,7,,,55,127
76935,note_on,1,0,0,,12,,,59,127
77039,note_off,104,0,0,,12,,,59,127
77040,note_on,1,0,0,,10,,,57,127
77144,note_off,104,0,0,,10,,,57,127
77145,note_on,1,0,0,,1,,,61,127
77249,note_off,104,0,0,,1,,,61,127
77249,note_off,0,0,0,,1,,,85,127
77249,note_off,0,0,0,,4,,,76,127
77250,note_on,1,0,0,,12,,,59,127
77250,note_on,0,0,0,,2,,,74,127
77250,note_on,0,0,0,,1,,,85,127
77458,note_off,208,0,0,,1,,,85,127
77459,note_on,1,0,0,,12,,,83,127
77664,note_off,205,0,0,,2,,,74,127
77667,note_off,3,0,0,,12,,,83,127
77667,note_off,0,0,0,,12,,,59,127
77668,note_on,1,0,0,,12,,,47,127
77668,note_on,0,0,0,,2,,,74,127
77668,note_on,0,0,0,,12,,,83,127
77772,note_off,104,0,0,,12,,,47,127
77773,note_on,1,0,0,,2,,,50,127
77877,note_off,104,0,0,,2,,,50,127
77878,note_on,1,0,0,,1,,,49,127
77982,note_off,104,0,0,,1,,,49,127
77983,note_on,1,0,0,,4,,,52,127
78087,note_off,104,0,0,,4,,,52,127
78087,note_off,0,0,0,,12,,,83,127
78087,note_off,0,0,0,,2,,,74,127
78088,note_on,1,0,0,,2,,,50,127
78088,note_on,0,0,0,,12,,,83,127
78088,note_on,0,0,0,,2,,,74,127
78192,note_off,104,0,0,,2,,,50,127
78193,note_on,1,0,0,,6,,,54,127
78297,note_off,104,0,0,,6,,,54,127
78298,note_on,1,0,0,,4,,,52,127
78402,note_off,104,0,0,,4,,,52,127
78403,note_on,1,0,0,,7,,,55,127
78507,note_off,104,0,0,,7,,,55,127
78507,note_off,0,0,0,,2,,,74,127
78507,note_off,0,0,0,,12,,,83,127
78508,note_on,1,0,0,,6,,,54,127
78508,note_on,0,0,0,,2,,,74,127
78508,note_on,0,0,0,,12,,,83,127
78612,note_off,104,0,0,,6,,,54,127
78613,note_on,1,0,0,,10,,,57,127
78717,note_off,104,0,0,,10,,,57,127
78718,note_on,1,0,0,,7,,,55,127
78822,note_off,104,0,0,,7,,,55,127
78823,note_on,1,0,0,,12,,,59,127
78927,note_off,104,0,0,,12,,,59,127
78927,note_off,0,0,0,,12,,,83,127
78927,note_off,0,0,0,,2,,,74,127
78928,note_on,1,0,0,,10,,,57,127
78928,note_on,0,0,0,,1,,,73,127
78928,note_on,0,0,0,,12,,,83,127
79136,note_off,208,0,0,,12,,,83,127
79137,note_on,1,0,0,,10,,,81,127
79342,note_off,205,0,0,,1,,,73,127
79345,note_off,3,0,0,,10,,,81,127
79345,note_off,0,0,0,,10,,,57,127
79346,note_on,1,0,0,,10,,,45,127
79346,note_on,0,0,0,,10,,,69,127
79346,note_on,0,0,0,,10,,,81,127
79450,note_off,104,0,0,,10,,,45,127
79451,note_on,1,0,0,,1,,,49,127
79555,note_off,104,0,0,,1,,,49,127
79556,note_on,1,0,0,,12,,,47,127
79660,note_off,104,0,0,,12,,,47,127
79661,note_on,1,0,0,,2,,,50,127
79765,note_off,104,0,0,,2,,,50,127
79765,note_off,0,0,0,,10,,,81,127
79765,note_off,0,0,0,,10,,,69,127
79766,note_on,1,0,0,,1,,,49,127
79766,note_on,0,0,0,,10,,,69,127
79766,note_on,0,0,0,,10,,,81,127
79870,note_off,104,0,0,,1,,,49,127
79871,note_on,1,0,0,,4,,,52,127
79975,note_off,104,0,0,,4,,,52,127
79976,note_on,1,0,0,,2,,,50,127
80080,note_off,104,0,0,,2,,,50,127
80081,note_on,1,0,0,,6,,,54,127
80185,note_off,104,0,0,,6,,,54,127
80185,note_off,0,0,0,,10,,,81,127
80185,note_off,0,0,0,,10,,,69,127
80186,note_on,1,0,0,,4,,,52,127
80186,note_on,0,0,0,,10,,,69,127
80186,note_on,0,0,0,,10,,,81,127
80290,note_off,104,0,0,,4,,,52,127
80291,note_on,1,0,0,,7,,,55,127
80395,note_off,104,0,0,,7,,,55,127
80396,note_on,1,0,0,,6,,,54,127
80500,note_off,104,0,0,,6,,,54,127
80501,note_on,1,0,0,,10,,,57,127
80605,note_off,104,0,0,,10,,,57,127
80605,note_off,0,0,0,,10,,,81,127
80605,note_off,0,0,0,,10,,,69,127
80606,note_on,1,0,0,,7,,,55,127
80606,note_on,0,0,0,,10,,,81,127
80606,note_on,0,0,0,,10,,,69,127
80710,note_off,104,0,0,,7,,,55,127
80711,note_on,1,0,0,,12,,,59,127
80815,note_off,104,0,0,,12,,,59,127
80816,note_on,1,0,0,,10,,,57,127
80920,note_off,104,0,0,,10,,,57,127
80921,note_on,1,0,0,,1,,,61,127
81025,note_off,104,0,0,,1,,,61,127
81025,note_off,0,0,0,,10,,,69,127
81025,note_off,0,0,0,,10,,,81,127
81026,note_on,1,0,0,,12,,,59,127
81026,note_on,0,0,0,,10,,,81,127
81026,note_on,0,0,0,,10,,,69,127
81130,note_off,104,0,0,,12,,,59,127
81131,note_on,1,0,0,,2,,,62,127
81235,note_off,104,0,0,,2,,,62,127
81236,note_on,1,0,0,,1,,,61,127
81340,note_off,104,0,0,,1,,,61,127
81341,note_on,1,0,0,,4,,,64,127
81445,note_off,104,0,0,,4,,,64,127
81445,note_off,0,0,0,,10,,,69,127
81445,note_off,0,0,0,,10,,,81,127
81446,note_on,1,0,0,,2,,,62,127
81446,note_on,0,0,0,,10,,,81,127
81446,note_on,0,0,0,,10,,,69,127
81654,note_off,208,0,0,,10,,,81,127
81655,note_on,1,0,0,,6,,,78,127
81860,note_off,205,0,0,,10,,,69,127
81863,note_off,3,0,0,,6,,,78,127
81863,note_off,0,0,0,,2,,,62,127
81864,note_on,1,0,0,,6,,,66,127
81864,note_on,0,0,0,,10,,,81,127
82072,note_off,208,0,0,,10,,,81,127
82072,note_off,0,0,0,,6,,,66,127
82073,note_on,1,0,0,,4,,,64,127
82073,note_on,0,0,0,,7,,,79,127
82177,note_off,104,0,0,,7,,,79,127
82177,note_off,0,0,0,,4,,,64,127
82178,note_on,1,0,0,,2,,,62,127
82178,note_on,0,0,0,,6,,,78,127
82282,note_off,104,0,0,,6,,,78,127
82282,note_off,0,0,0,,2,,,62,127
82283,note_on,1,0,0,,10,,,57,127
82283,note_on,0,0,0,,6,,,78,127
82322,note_on,39,0,0,,4,,,76,127
82326,note_off,4,0,0,,6,,,78,127
82361,note_on,35,0,0,,6,,,78,127
82365,note_off,4,0,0,,4,,,76,127
82400,note_on,35,0,0,,4,,,76,127
82404,note_off,4,0,0,,6,,,78,127
82700,note_off,296,0,0,,10,,,57,127
82701,note_on,1,0,0,,10,,,45,127
82701,note_on,0,0,0,,10,,,81,127
82701,note_on,0,0,0,,10,,,69,127
82713,note_off,12,0,0,,4,,,76,127
82805,note_off,92,0,0,,10,,,45,127
82806,note_on,1,0,0,,1,,,49,127
82910,note_off,104,0,0,,1,,,49,127
82911,note_on,1,0,0,,12,,,47,127
83015,note_off,104,0,0,,12,,,47,127
83016,note_on,1,0,0,,2,,,50,127
83120,note_off,104,0,0,,2,,,50,127
83120,note_off,0,0,0,,10,,,69,127
83120,note_off,0,0,0,,10,,,81,127
83121,note_on,1,0,0,,1,,,49,127
83121,note_on,0,0,0,,10,,,81,127
83121,note_on,0,0,0,,10,,,69,127
83225,note_off,104,0,0,,1,,,49,127
83226,note_on,1,0,0,,4,,,52,127
83330,note_off,104,0,0,,4,,,52,127
83331,note_on,1,0,0,,2,,,50,127
83435,note_off,104,0,0,,2,,,50,127
83436,note_on,1,0,0,,6,,,54,127
83540,note_off,104,0,0,,6,,,54,127
83540,note_off,0,0,0,,10,,,69,127
83540,note_off,0,0,0,,10,,,81,127
83541,note_on,1,0,0,,4,,,52,127
83541,note_on,0,0,0,,10,,,69,127
83541,note_on,0,0,0,,10,,,81,127
83645,note_off,104,0,0,,4,,,52,127
83646,note_on,1,0,0,,7,,,55,127
83750,note_off,104,0,0,,7,,,55,127
83751,note_on,1,0,0,,6,,,54,127
83855,note_off,104,0,0,,6,,,54,127
83856,note_on,1,0,0,,10,,,57,127
83960,note_off,104,0,0,,10,,,57,127
83960,note_off,0,0,0,,10,,,81,127
83960,note_off,0,0,0,,10,,,69,127
83961,note_on,1,0,0,,7,,,55,127
83961,note_on,0,0,0,,10,,,81,127
83961,note_on,0,0,0,,10,,,69,127
84065,note_off,104,0,0,,7,,,55,127
84066,note_on,1,0,0,,12,,,59,127
84170,note_off,104,0,0,,12,,,59,127
84171,note_on,1,0,0,,10,,,57,127
84275,note_off,104,0,0,,10,,,57,127
84276,note_on,1,0,0,,1,,,61,127
84380,note_off,104,0,0,,1,,,61,127
84380,note_off,0,0,0,,10,,,69,127
84380,note_off,0,0,0,,10,,,81,127
84381,note_on,1,0,0,,12,,,59,127
84381,note_on,0,0,0,,10,,,81,127
84381,note_on,0,0,0,,10,,,69,127
84485,note_off,104,0,0,,12,,,59,127
84486,note_on,1,0,0,,2,,,62,127
84590,note_off,104,0,0,,2,,,62,127
84591,note_on,1,0,0,,1,,,61,127
84695,note_off,104,0,0,,1,,,61,127
84696,note_on,1,0,0,,4,,,64,127
84800,note_off,104,0,0,,4,,,64,127
84800,note_off,0,0,0,,10,,,69,127
84800,note_off,0,0,0,,10,,,81,127
84801,note_on,1,0,0,,2,,,62,127
84801,note_on,0,0,0,,10,,,69,127
84801,note_on,0,0,0,,10,,,81,127
85009,note_off,208,0,0,,10,,,81,127
85010,note_on,1,0,0,,6,,,78,127
85215,note_off,205,0,0,,10,,,69,127
85218,note_off,3,0,0,,6,,,78,127
85218,note_off,0,0,0,,2,,,62,127
85219,note_on,1,0,0,,6,,,66,127
85219,note_on,0,0,0,,10,,,81,127
85427,note_off,208,0,0,,10,,,81,127
85427,note_off,0,0,0,,6,,,66,127
85428,note_on,1,0,0,,4,,,64,127
85428,note_on,0,0,0,,7,,,79,127
85532,note_off,104,0,0,,7,,,79,127
85532,note_off,0,0,0,,4,,,64,127
85533,note_on,1,0,0,,2,,,62,127
85533,note_on,0,0,0,,6,,,78,127
85637,note_off,104,0,0,,6,,,78,127
85637,note_off,0,0,0,,2,,,62,127
85638,note_on,1,0,0,,10,,,57,127
85638,note_on,0,0,0,,6,,,78,127
85677,note_on,39,0,0,,4,,,76,127
85681,note_off,4,0,0,,6,,,78,127
85716,note_on,35,0,0,,6,,,78,127
85720,note_off,4,0,0,,4,,,76,127
85755,note_on,35,0,0,,4,,,76,127
85759,note_off,4,0,0,,6,,,78,127
86055,note_off,296,0,0,,10,,,57,127
86056,note_on,1,0,0,,10,,,57,127
86056,note_on,0,0,0,,1,,,73,127
86068,note_off,12,0,0,,4,,,76,127
86160,note_off,92,0,0,,1,,,73,127
86161,note_on,1,0,0,,2,,,74,127
86265,note_off,104,0,0,,2,,,74,127
86266,note_on,1,0,0,,4,,,76,127
86370,note_off,104,0,0,,4,,,76,127
86371,note_on,1,0,0,,10,,,69,127
86475,note_off,104,0,0,,10,,,69,127
86475,note_off,0,0,0,,10,,,57,127
86476,note_on,1,0,0,,10,,,57,127
86476,note_on,0,0,0,,12,,,59,127
86476,note_on,0,0,0,,10,,,69,127
86684,note_off,208,0,0,,10,,,69,127
86685,note_on,1,0,0,,12,,,71,127
86893,note_off,208,0,0,,12,,,71,127
86893,note_off,0,0,0,,12,,,59,127
86893,note_off,0,0,0,,10,,,57,127
86894,note_on,1,0,0,,12,,,59,127
86894,note_on,0,0,0,,7,,,55,127
86894,note_on,0,0,0,,12,,,71,127
86998,note_off,104,0,0,,12,,,71,127
86999,note_on,1,0,0,,1,,,73,127
87103,note_off,104,0,0,,1,,,73,127
87104,note_on,1,0,0,,2,,,74,127
87208,note_off,104,0,0,,2,,,74,127
87209,note_on,1,0,0,,7,,,67,127
87313,note_off,104,0,0,,7,,,67,127
87313,note_off,0,0,0,,7,,,55,127
87313,note_off,0,0,0,,12,,,59,127
87314,note_on,1,0,0,,10,,,57,127
87314,note_on,0,0,0,,7,,,55,127
87314,note_on,0,0,0,,7,,,67,127
87522,note_off,208,0,0,,7,,,67,127
87523,note_on,1,0,0,,10,,,69,127
87731,note_off,208,0,0,,10,,,69,127
87731,note_off,0,0,0,,7,,,55,127
87731,note_off,0,0,0,,10,,,57,127
87732,note_on,1,0,0,,6,,,54,127
87732,note_on,0,0,0,,10,,,57,127
87732,note_on,0,0,0,,6,,,78,127
87836,note_off,104,0,0,,6,,,78,127
87837,note_on,1,0,0,,7,,,79,127
87941,note_off,104,0,0,,7,,,79,127
87942,note_on,1,0,0,,10,,,81,127
88046,note_off,104,0,0,,10,,,81,127
88047,note_on,1,0,0,,2,,,74,127
88151,note_off,104,0,0,,2,,,74,127
88151,note_off,0,0,0,,10,,,57,127
88151,note_off,0,0,0,,6,,,54,127
88152,note_on,1,0,0,,7,,,55,127
88152,note_on,0,0,0,,12,,,59,127
88152,note_on,0,0,0,,2,,,74,127
88360,note_off,208,0,0,,2,,,74,127
88361,note_on,1,0,0,,4,,,76,127
88569,note_off,208,0,0,,4,,,76,127
88569,note_off,0,0,0,,12,,,59,127
88569,note_off,0,0,0,,7,,,55,127
88570,note_on,1,0,0,,7,,,55,127
88570,note_on,0,0,0,,4,,,52,127
88570,note_on,0,0,0,,4,,,76,127
88674,note_off,104,0,0,,4,,,76,127
88675,note_on,1,0,0,,6,,,78,127
88779,note_off,104,0,0,,6,,,78,127
88780,note_on,1,0,0,,7,,,79,127
88884,note_off,104,0,0,,7,,,79,127
88885,note_on,1,0,0,,1,,,73,127
88989,note_off,104,0,0,,1,,,73,127
88989,note_off,0,0,0,,4,,,52,127
88989,note_off,0,0,0,,7,,,55,127
88990,note_on,1,0,0,,6,,,54,127
88990,note_on,0,0,0,,10,,,57,127
88990,note_on,0,0,0,,1,,,73,127
89198,note_off,208,0,0,,1,,,73,127
89199,note_on,1,0,0,,2,,,74,127
89407,note_off,208,0,0,,2,,,74,127
89407,note_off,0,0,0,,10,,,57,127
89407,note_off,0,0,0,,6,,,54,127
89408,note_on,1,0,0,,10,,,57,127
89408,note_on,0,0,0,,6,,,54,127
89408,note_on,0,0,0,,6,,,78,127
89512,note_off,104,0,0,,6,,,78,127
89513,note_on,1,0,0,,7,,,79,127
89617,note_off,104,0,0,,7,,,79,127
89618,note_on,1,0,0,,10,,,81,127
89722,note_off,104,0,0,,10,,,81,127
89723,note_on,1,0,0,,2,,,74,127
89827,note_off,104,0,0,,2,,,74,127
89827,note_off,0,0,0,,6,,,54,127
89827,note_off,0,0,0,,10,,,57,127
89828,note_on,1,0,0,,12,,,59,127
89828,note_on,0,0,0,,7,,,55,127
89828,note_on,0,0,0,,7,,,79,127
89932,note_off,104,0,0,,7,,,79,127
89933,note_on,1,0,0,,10,,,81,127
90037,note_off,104,0,0,,10,,,81,127
90038,note_on,1,0,0,,12,,,83,127
90142,note_off,104,0,0,,12,,,83,127
90143,note_on,1,0,0,,2,,,74,127
90247,note_off,104,0,0,,2,,,74,127
90247,note_off,0,0,0,,7,,,55,127
90247,note_off,0,0,0,,12,,,59,127
90248,note_on,1,0,0,,7,,,55,127
90248,note_on,0,0,0,,4,,,52,127
90248,note_on,0,0,0,,10,,,81,127
90352,note_off,104,0,0,,10,,,81,127
90353,note_on,1,0,0,,12,,,83,127
90457,note_off,104,0,0,,12,,,83,127
90458,note_on,1,0,0,,1,,,85,127
90562,note_off,104,0,0,,1,,,85,127
90563,note_on,1,0,0,,4,,,76,127
90667,note_off,104,0,0,,4,,,76,127
90667,note_off,0,0,0,,4,,,52,127
90667,note_off,0,0,0,,7,,,55,127
90668,note_on,1,0,0,,10,,,57,127
90668,note_on,0,0,0,,6,,,54,127
90668,note_on,0,0,0,,2,,,86,127
90772,note_off,104,0,0,,2,,,86,127
90773,note_on,1,0,0,,10,,,81,127
90877,note_off,104,0,0,,10,,,81,127
90878,note_on,1,0,0,,6,,,78,127
90982,note_off,104,0,0,,6,,,78,127
90983,note_on,1,0,0,,2,,,74,127
91087,note_off,104,0,0,,2,,,74,127
91087,note_off,0,0,0,,6,,,54,127
91087,note_off,0,0,0,,10,,,57,127
91088,note_on,1,0,0,,6,,,54,127
91088,note_on,0,0,0,,10,,,57,127
91088,note_on,0,0,0,,2,,,86,127
91192,note_off,104,0,0,,2,,,86,127
91193,note_on,1,0,0,,1,,,85,127
91297,note_off,104,0,0,,1,,,85,127
91298,note_on,1,0,0,,12,,,83,127
91402,note_off,104,0,0,,12,,,83,127
91403,note_on,1,0,0,,10,,,81,127
91507,note_off,104,0,0,,10,,,81,127
91507,note_off,0,0,0,,10,,,57,127
91507,note_off,0,0,0,,6,,,54,127
91508,note_on,1,0,0,,7,,,55,127
91508,note_on,0,0,0,,12,,,59,127
91508,note_on,0,0,0,,10,,,81,127
91612,note_off,104,0,0,,10,,,81,127
91613,note_on,1,0,0,,7,,,79,127
91717,note_off,104,0,0,,7,,,79,127
91718,note_on,1,0,0,,10,,,81,127
91822,note_off,104,0,0,,10,,,81,127
91823,note_on,1,0,0,,12,,,83,127
91927,note_off,104,0,0,,12,,,83,127
91927,note_off,0,0,0,,12,,,59,127
91927,note_off,0,0,0,,7,,,55,127
91928,note_on,1,0,0,,1,,,49,127
91928,note_on,0,0,0,,10,,,57,127
91928,note_on,0,0,0,,10,,,81,127
92032,note_off,104,0,0,,10,,,81,127
92033,note_on,1,0,0,,7,,,79,127
92137,note_off,104,0,0,,7,,,79,127
92138,note_on,1,0,0,,6,,,78,127
92242,note_off,104,0,0,,6,,,78,127
92243,note_on,1,0,0,,4,,,76,127
92347,note_off,104,0,0,,4,,,76,127
92347,note_off,0,0,0,,10,,,57,127
92347,note_off,0,0,0,,1,,,49,127
92348,note_on,1,0,0,,2,,,50,127
92348,note_on,0,0,0,,10,,,57,127
92348,note_on,0,0,0,,6,,,78,127
92452,note_off,104,0,0,,6,,,78,127
92453,note_on,1,0,0,,2,,,74,127
92557,note_off,104,0,0,,2,,,74,127
92558,note_on,1,0,0,,6,,,78,127
92662,note_off,104,0,0,,6,,,78,127
92663,note_on,1,0,0,,10,,,81,127
92767,note_off,104,0,0,,10,,,81,127
92767,note_off,0,0,0,,10,,,57,127
92767,note_off,0,0,0,,2,,,50,127
92768,note_on,1,0,0,,6,,,54,127
92768,note_on,0,0,0,,10,,,57,127
92768,note_on,0,0,0,,2,,,86,127
92872,note_off,104,0,0,,2,,,86,127
92873,note_on,1,0,0,,1,,,85,127
92977,note_off,104,0,0,,1,,,85,127
92978,note_on,1,0,0,,12,,,83,127
93082,note_off,104,0,0,,12,,,83,127
93083,note_on,1,0,0,,10,,,81,127
93187,note_off,104,0,0,,10,,,81,127
93187,note_off,0,0,0,,10,,,57,127
93187,note_off,0,0,0,,6,,,54,127
93188,note_on,1,0,0,,12,,,59,127
93188,note_on,0,0,0,,7,,,55,127
93188,note_on,0,0,0,,10,,,81,127
93292,note_off,104,0,0,,10,,,81,127
93293,note_on,1,0,0,,7,,,79,127
93397,note_off,104,0,0,,7,,,79,127
93398,note_on,1,0,0,,10,,,81,127
93502,note_off,104,0,0,,10,,,81,127
93503,note_on,1,0,0,,12,,,83,127
93607,note_off,104,0,0,,12,,,83,127
93607,note_off,0,0,0,,7,,,55,127
93607,note_off,0,0,0,,12,,,59,127
93608,note_on,1,0,0,,10,,,57,127
93608,note_on,0,0,0,,1,,,49,127
93608,note_on,0,0,0,,10,,,81,127
93712,note_off,104,0,0,,10,,,81,127
93713,note_on,1,0,0,,7,,,79,127
93817,note_off,104,0,0,,7,,,79,127
93818,note_on,1,0,0,,6,,,78,127
93922,note_off,104,0,0,,6,,,78,127
93923,note_on,1,0,0,,4,,,76,127
94027,note_off,104,0,0,,4,,,76,127
94027,note_off,0,0,0,,1,,,49,127
94027,note_off,0,0,0,,10,,,57,127
94028,note_on,1,0,0,,2,,,50,127
94028,note_on,0,0,0,,10,,,57,127
94028,note_on,0,0,0,,6,,,78,127
94132,note_off,104,0,0,,6,,,78,127
94133,note_on,1,0,0,,4,,,76,127
94237,note_off,104,0,0,,4,,,76,127
94238,note_on,1,0,0,,2,,,74,127
94342,note_off,104,0,0,,2,,,74,127
94343,note_on,1,0,0,,1,,,73,127
94447,note_off,104,0,0,,1,,,73,127
94447,note_off,0,0,0,,10,,,57,127
94447,note_off,0,0,0,,2,,,50,127
94448,note_on,1,0,0,,2,,,50,127
94448,note_on,0,0,0,,2,,,74,127
94552,note_off,104,0,0,,2,,,74,127
94553,note_on,1,0,0,,1,,,73,127
94657,note_off,104,0,0,,1,,,73,127
94658,note_on,1,0,0,,12,,,71,127
94762,note_off,104,0,0,,12,,,71,127
94763,note_on,1,0,0,,10,,,69,127
94867,note_off,104,0,0,,10,,,69,127
94867,note_off,0,0,0,,2,,,50,127
94868,note_on,1,0,0,,1,,,49,127
94868,note_on,0,0,0,,10,,,69,127
94972,note_off,104,0,0,,10,,,69,127
94973,note_on,1,0,0,,7,,,67,127
95077,note_off,104,0,0,,7,,,67,127
95078,note_on,1,0,0,,10,,,69,127
95182,note_off,104,0,0,,10,,,69,127
95183,note_on,1,0,0,,12,,,71,127
95287,note_off,104,0,0,,12,,,71,127
95287,note_off,0,0,0,,1,,,49,127
95288,note_on,1,0,0,,10,,,45,127
95288,note_on,0,0,0,,10,,,69,127
95392,note_off,104,0,0,,10,,,69,127
95393,note_on,1,0,0,,7,,,67,127
95497,note_off,104,0,0,,7,,,67,127
95498,note_on,1,0,0,,6,,,66,127
95602,note_off,104,0,0,,6,,,66,127
95603,note_on,1,0,0,,4,,,64,127
95707,note_off,104,0,0,,4,,,64,127
95707,note_off,0,0,0,,10,,,45,127
95708,note_on,1,0,0,,2,,,50,127
95708,note_on,0,0,0,,6,,,66,127
95812,note_off,104,0,0,,6,,,66,127
95813,note_on,1,0,0,,2,,,62,127
95917,note_off,104,0,0,,2,,,62,127
95918,note_on,1,0,0,,6,,,66,127
96022,note_off,104,0,0,,6,,,66,127
96023,note_on,1,0,0,,10,,,69,127
96127,note_off,104,0,0,,10,,,69,127
96127,note_off,0,0,0,,2,,,50,127
96128,note_on,1,0,0,,2,,,50,127
96128,note_on,0,0,0,,2,,,74,127
96232,note_off,104,0,0,,2,,,74,127
96233,note_on,1,0,0,,1,,,73,127
96337,note_off,104,0,0,,1,,,73,127
96338,note_on,1,0,0,,12,,,71,127
96442,note_off,104,0,0,,12,,,71,127
96443,note_on,1,0,0,,10,,,69,127
96547,note_off,104,0,0,,10,,,69,127
96547,note_off,0,0,0,,2,,,50,127
96548,note_on,1,0,0,,1,,,49,127
96548,note_on,0,0,0,,10,,,69,127
96652,note_off,104,0,0,,10,,,69,127
96653,note_on,1,0,0,,7,,,67,127
96757,note_off,104,0,0,,7,,,67,127
96758,note_on,1,0,0,,10,,,69,127
96862,note_off,104,0,0,,10,,,69,127
96863,note_on,1,0,0,,12,,,71,127
96967,note_off,104,0,0,,12,,,71,127
96967,note_off,0,0,0,,1,,,49,127
96968,note_on,1,0,0,,10,,,45,127
96968,note_on,0,0,0,,10,,,69,127
97072,note_off,104,0,0,,10,,,69,127
97073,note_on,1,0,0,,7,,,67,127
97177,note_off,104,0,0,,7,,,67,127
97178,note_on,1,0,0,,6,,,66,127
97282,note_off,104,0,0,,6,,,66,127
97283,note_on,1,0,0,,4,,,64,127
97387,note_off,104,0,0,,4,,,64,127
97387,note_off,0,0,0,,10,,,45,127
97388,note_on,1,0,0,,2,,,50,127
97388,note_on,0,0,0,,6,,,66,127
97492,note_off,104,0,0,,6,,,66,127
97493,note_on,1,0,0,,4,,,64,127
97597,note_off,104,0,0,,4,,,64,127
97598,note_on,1,0,0,,2,,,62,127
97702,note_off,104,0,0,,2,,,62,127
97703,note_on,1,0,0,,1,,,61,127
97807,note_off,104,0,0,,1,,,61,127
97807,note_off,0,0,0,,2,,,50,127
97808,note_on,1,0,0,,6,,,42,127
97808,note_on,0,0,0,,6,,,54,127
97808,note_on,0,0,0,,2,,,62,127
97912,note_off,104,0,0,,2,,,62,127
97913,note_on,1,0,0,,1,,,61,127
98017,note_off,104,0,0,,1,,,61,127
98018,note_on,1,0,0,,12,,,59,127
98122,note_off,104,0,0,,12,,,59,127
98123,note_on,1,0,0,,10,,,57,127
98227,note_off,104,0,0,,10,,,57,127
98227,note_off,0,0,0,,6,,,54,127
98227,note_off,0,0,0,,6,,,42,127
98246,note_on,19,0,0,,12,,,71,127
98246,note_on,0,0,0,,7,,,55,127
98246,note_on,0,0,0,,7,,,43,127
98350,note_off,104,0,0,,12,,,71,127
98352,note_on,2,0,0,,1,,,73,127
98456,note_off,104,0,0,,1,,,73,127
98458,note_on,2,0,0,,2,,,74,127
98562,note_off,104,0,0,,2,,,74,127
98564,note_on,2,0,0,,4,,,76,127
98664,note_off,100,0,0,,7,,,43,127
98664,note_off,0,0,0,,7,,,55,127
98669,note_on,5,0,0,,6,,,66,127
98669,note_on,0,0,0,,10,,,45,127
98669,note_on,0,0,0,,10,,,57,127
98770,note_off,101,0,0,,4,,,76,127
98774,note_on,4,0,0,,2,,,74,127
98825,note_off,51,0,0,,6,,,66,127
98880,note_on,55,0,0,,4,,,64,127
98981,note_off,101,0,0,,2,,,74,127
98985,note_on,4,0,0,,1,,,73,127
99036,note_off,51,0,0,,4,,,64,127
99085,note_off,49,0,0,,10,,,57,127
99085,note_off,0,0,0,,10,,,45,127
99088,note_off,3,0,0,,1,,,73,127
99099,note_on,11,0,0,,2,,,74,127
99099,note_on,0,0,0,,2,,,50,127
99099,note_on,0,0,0,,2,,,38,127
101377,note_off,2278,0,0,,2,,,38,127
101377,note_off,0,0,0,,2,,,50,127
101377,note_off,0,0,0,,2,,,74,127
102912,end_of_track,1535,1,0,,,,,,
