tick,type,time,meta,track,program,channel,pitch,tempo,note,velocity
0,copyright,0,1,0,,,,,,
0,program_change,0,0,0,6,0,,,,
0,pitchwheel,0,0,0,,0,0,,,
0,program_change,0,0,0,6,1,,,,
0,pitchwheel,0,0,0,,1,-590,,,
0,program_change,0,0,0,6,2,,,,
0,pitchwheel,0,0,0,,2,-272,,,
0,program_change,0,0,0,6,3,,,,
0,pitchwheel,0,0,0,,3,-353,,,
0,program_change,0,0,0,6,4,,,,
0,pitchwheel,0,0,0,,4,-560,,,
0,program_change,0,0,0,6,5,,,,
0,pitchwheel,0,0,0,,5,-80,,,
0,program_change,0,0,0,6,6,,,,
0,pitchwheel,0,0,0,,6,-625,,,
0,program_change,0,0,0,6,7,,,,
0,pitchwheel,0,0,0,,7,-130,,,
0,program_change,0,0,0,6,8,,,,
0,pitchwheel,0,0,0,,8,-512,,,
0,program_change,0,0,0,6,10,,,,
0,pitchwheel,0,0,0,,10,-464,,,
0,program_change,0,0,0,6,11,,,,
0,pitchwheel,0,0,0,,11,-208,,,
0,program_change,0,0,0,6,12,,,,
0,pitchwheel,0,0,0,,12,-553,,,
0,set_tempo,0,1,0,,,,500000,,
105,note_on,105,0,0,,10,,,81,127
732,note_off,627,0,0,,10,,,81,127
733,note_on,1,0,0,,6,,,78,127
1360,note_off,627,0,0,,6,,,78,127
1361,note_on,1,0,0,,12,,,83,127
1465,note_off,104,0,0,,12,,,83,127
1466,note_on,1,0,0,,10,,,81,127
1570,note_off,104,0,0,,10,,,81,127
1571,note_on,1,0,0,,7,,,79,127
1675,note_off,104,0,0,,7,,,79,127
1676,note_on,1,0,0,,6,,,78,127
1780,note_off,104,0,0,,6,,,78,127
1781,note_on,1,0,0,,4,,,76,127
1885,note_off,104,0,0,,4,,,76,127
1886,note_on,1,0,0,,2,,,74,127
1990,note_off,104,0,0,,2,,,74,127
1991,note_on,1,0,0,,1,,,73,127
2096,note_on,105,0,0,,12,,,71,127
2097,note_off,1,0,0,,1,,,73,127
2200,note_off,103,0,0,,12,,,71,127
2201,note_on,1,0,0,,10,,,69,127
2305,note_off,104,0,0,,10,,,69,127
2306,note_on,1,0,0,,7,,,79,127
2410,note_off,104,0,0,,7,,,79,127
2411,note_on,1,0,0,,6,,,78,127
2515,note_off,104,0,0,,6,,,78,127
2516,note_on,1,0,0,,4,,,76,127
2620,note_off,104,0,0,,4,,,76,127
2621,note_on,1,0,0,,6,,,66,127
2621,note_on,0,0,0,,2,,,74,127
2829,note_off,208,0,0,,2,,,74,127
2830,note_on,1,0,0,,6,,,78,127
3038,note_off,208,0,0,,6,,,78,127
3039,note_on,1,0,0,,10,,,81,127
3247,note_off,208,0,0,,6,,,66,127
3248,note_on,1,0,0,,2,,,62,127
3352,note_off,104,0,0,,10,,,81,127
3353,note_on,1,0,0,,7,,,79,127
3457,note_off,104,0,0,,7,,,79,127
3458,note_on,1,0,0,,6,,,78,127
3562,note_off,104,0,0,,6,,,78,127
3563,note_on,1,0,0,,4,,,76,127
3667,note_off,104,0,0,,4,,,76,127
3668,note_on,1,0,0,,2,,,74,127
3772,note_off,104,0,0,,2,,,74,127
3773,note_on,1,0,0,,1,,,73,127
3877,note_off,104,0,0,,1,,,73,127
3877,note_off,0,0,0,,2,,,62,127
3878,note_on,1,0,0,,7,,,67,127
3878,note_on,0,0,0,,12,,,71,127
3982,note_off,104,0,0,,7,,,67,127
3983,note_on,1,0,0,,6,,,66,127
4087,note_off,104,0,0,,6,,,66,127
4087,note_off,0,0,0,,12,,,71,127
4088,note_on,1,0,0,,4,,,64,127
4088,note_on,0,0,0,,1,,,73,127
4192,note_off,104,0,0,,4,,,64,127
4193,note_on,1,0,0,,2,,,62,127
4297,note_off,104,0,0,,2,,,62,127
4297,note_off,0,0,0,,1,,,73,127
4298,note_on,1,0,0,,1,,,61,127
4298,note_on,0,0,0,,2,,,74,127
4402,note_off,104,0,0,,1,,,61,127
4403,note_on,1,0,0,,12,,,59,127
4507,note_off,104,0,0,,12,,,59,127
4507,note_off,0,0,0,,2,,,74,127
4508,note_on,1,0,0,,10,,,57,127
4508,note_on,0,0,0,,4,,,76,127
4716,note_off,208,0,0,,4,,,76,127
4716,note_off,0,0,0,,10,,,57,127
4717,note_on,1,0,0,,12,,,59,127
4717,note_on,0,0,0,,10,,,69,127
4768,note_off,51,0,0,,10,,,69,127
4769,note_on,1,0,0,,7,,,67,127
4820,note_off,51,0,0,,7,,,67,127
4821,note_on,1,0,0,,10,,,69,127
4872,note_off,51,0,0,,10,,,69,127
4873,note_on,1,0,0,,7,,,67,127
4924,note_off,51,0,0,,7,,,67,127
4924,note_off,0,0,0,,12,,,59,127
4925,note_on,1,0,0,,1,,,61,127
4925,note_on,0,0,0,,10,,,69,127
4976,note_off,51,0,0,,10,,,69,127
4977,note_on,1,0,0,,7,,,67,127
5028,note_off,51,0,0,,7,,,67,127
5029,note_on,1,0,0,,6,,,66,127
5080,note_off,51,0,0,,6,,,66,127
5081,note_on,1,0,0,,7,,,67,127
5132,note_off,51,0,0,,7,,,67,127
5132,note_off,0,0,0,,1,,,61,127
5133,note_on,1,0,0,,2,,,62,127
5133,note_on,0,0,0,,6,,,66,127
5341,note_off,208,0,0,,6,,,66,127
5342,note_on,1,0,0,,6,,,78,127
5446,note_off,104,0,0,,6,,,78,127
5447,note_on,1,0,0,,4,,,76,127
5551,note_off,104,0,0,,4,,,76,127
5551,note_off,0,0,0,,2,,,62,127
5552,note_on,1,0,0,,6,,,66,127
5552,note_on,0,0,0,,2,,,74,127
5656,note_off,104,0,0,,2,,,74,127
5657,note_on,1,0,0,,4,,,76,127
5761,note_off,104,0,0,,4,,,76,127
5761,note_off,0,0,0,,6,,,66,127
5762,note_on,1,0,0,,4,,,64,127
5762,note_on,0,0,0,,7,,,67,127
5970,note_off,208,0,0,,7,,,67,127
5971,note_on,1,0,0,,10,,,57,127
5971,note_on,0,0,0,,4,,,76,127
6075,note_off,104,0,0,,4,,,76,127
6076,note_off,1,0,0,,4,,,64,127
6076,note_on,0,0,0,,2,,,74,127
6180,note_off,104,0,0,,2,,,74,127
6180,note_off,0,0,0,,10,,,57,127
6181,note_on,1,0,0,,4,,,64,127
6181,note_on,0,0,0,,1,,,73,127
6285,note_off,104,0,0,,1,,,73,127
6286,note_on,1,0,0,,2,,,74,127
6390,note_off,104,0,0,,2,,,74,127
6390,note_off,0,0,0,,4,,,64,127
6391,note_on,1,0,0,,6,,,66,127
6391,note_on,0,0,0,,10,,,69,127
6599,note_off,208,0,0,,10,,,69,127
6600,note_on,1,0,0,,10,,,57,127
6600,note_on,0,0,0,,6,,,78,127
6704,note_off,104,0,0,,6,,,78,127
6705,note_off,1,0,0,,6,,,66,127
6705,note_on,0,0,0,,4,,,76,127
6809,note_off,104,0,0,,4,,,76,127
6809,note_off,0,0,0,,10,,,57,127
6810,note_on,1,0,0,,6,,,66,127
6810,note_on,0,0,0,,2,,,74,127
6914,note_off,104,0,0,,2,,,74,127
6915,note_on,1,0,0,,4,,,76,127
7019,note_off,104,0,0,,4,,,76,127
7019,note_off,0,0,0,,6,,,66,127
7020,note_on,1,0,0,,4,,,64,127
7020,note_on,0,0,0,,7,,,67,127
7228,note_off,208,0,0,,7,,,67,127
7229,note_on,1,0,0,,10,,,57,127
7229,note_on,0,0,0,,4,,,76,127
7333,note_off,104,0,0,,4,,,76,127
7334,note_off,1,0,0,,4,,,64,127
7334,note_on,0,0,0,,2,,,74,127
7438,note_off,104,0,0,,2,,,74,127
7438,note_off,0,0,0,,10,,,57,127
7439,note_on,1,0,0,,4,,,64,127
7439,note_on,0,0,0,,1,,,73,127
7543,note_off,104,0,0,,1,,,73,127
7544,note_on,1,0,0,,2,,,74,127
7648,note_off,104,0,0,,2,,,74,127
7648,note_off,0,0,0,,4,,,64,127
7649,note_on,1,0,0,,6,,,66,127
7649,note_on,0,0,0,,10,,,69,127
7857,note_off,208,0,0,,10,,,69,127
7858,note_on,1,0,0,,10,,,57,127
7858,note_on,0,0,0,,6,,,78,127
7962,note_off,104,0,0,,6,,,78,127
7963,note_off,1,0,0,,6,,,66,127
7963,note_on,0,0,0,,4,,,76,127
8067,note_off,104,0,0,,4,,,76,127
8067,note_off,0,0,0,,10,,,57,127
8068,note_on,1,0,0,,6,,,66,127
8068,note_on,0,0,0,,2,,,74,127
8172,note_off,104,0,0,,2,,,74,127
8173,note_on,1,0,0,,1,,,73,127
8277,note_off,104,0,0,,1,,,73,127
8277,note_off,0,0,0,,6,,,66,127
8278,note_on,1,0,0,,8,,,68,127
8278,note_on,0,0,0,,12,,,71,127
8382,note_off,104,0,0,,12,,,71,127
8383,note_on,1,0,0,,6,,,78,127
8487,note_off,104,0,0,,6,,,78,127
8488,note_on,1,0,0,,4,,,64,127
8488,note_on,0,0,0,,4,,,76,127
8592,note_off,104,0,0,,4,,,76,127
8593,note_off,1,0,0,,8,,,68,127
8593,note_on,0,0,0,,2,,,74,127
8697,note_off,104,0,0,,2,,,74,127
8697,note_off,0,0,0,,4,,,64,127
8698,note_on,1,0,0,,8,,,68,127
8698,note_on,0,0,0,,1,,,73,127
8802,note_off,104,0,0,,1,,,73,127
8803,note_on,1,0,0,,12,,,71,127
8907,note_off,104,0,0,,12,,,71,127
8907,note_off,0,0,0,,8,,,68,127
8908,note_on,1,0,0,,10,,,57,127
8908,note_on,0,0,0,,1,,,73,127
9116,note_off,208,0,0,,1,,,73,127
9117,note_on,1,0,0,,4,,,52,127
9117,note_on,0,0,0,,4,,,76,127
9221,note_off,104,0,0,,4,,,76,127
9222,note_off,1,0,0,,10,,,57,127
9222,note_on,0,0,0,,2,,,74,127
9326,note_off,104,0,0,,2,,,74,127
9326,note_off,0,0,0,,4,,,52,127
9327,note_on,1,0,0,,10,,,57,127
9327,note_on,0,0,0,,1,,,73,127
9431,note_off,104,0,0,,1,,,73,127
9432,note_on,1,0,0,,2,,,74,127
9536,note_off,104,0,0,,2,,,74,127
9536,note_off,0,0,0,,10,,,57,127
9537,note_on,1,0,0,,12,,,59,127
9537,note_on,0,0,0,,8,,,68,127
9745,note_off,208,0,0,,8,,,68,127
9746,note_on,1,0,0,,4,,,52,127
9746,note_on,0,0,0,,2,,,74,127
9850,note_off,104,0,0,,2,,,74,127
9851,note_off,1,0,0,,12,,,59,127
9851,note_on,0,0,0,,1,,,73,127
9955,note_off,104,0,0,,1,,,73,127
9955,note_off,0,0,0,,4,,,52,127
9956,note_on,1,0,0,,12,,,59,127
9956,note_on,0,0,0,,12,,,71,127
10060,note_off,104,0,0,,12,,,71,127
10061,note_on,1,0,0,,1,,,73,127
10165,note_off,104,0,0,,1,,,73,127
10165,note_off,0,0,0,,12,,,59,127
10166,note_on,1,0,0,,1,,,61,127
10166,note_on,0,0,0,,10,,,69,127
10374,note_off,208,0,0,,10,,,69,127
10375,note_on,1,0,0,,4,,,52,127
10375,note_on,0,0,0,,4,,,76,127
10479,note_off,104,0,0,,4,,,76,127
10480,note_off,1,0,0,,1,,,61,127
10480,note_on,0,0,0,,2,,,74,127
10584,note_off,104,0,0,,2,,,74,127
10584,note_off,0,0,0,,4,,,52,127
10585,note_on,1,0,0,,1,,,61,127
10585,note_on,0,0,0,,1,,,73,127
10689,note_off,104,0,0,,1,,,73,127
10690,note_on,1,0,0,,2,,,74,127
10794,note_off,104,0,0,,2,,,74,127
10794,note_off,0,0,0,,1,,,61,127
10795,note_on,1,0,0,,2,,,62,127
10795,note_on,0,0,0,,8,,,68,127
11003,note_off,208,0,0,,8,,,68,127
11004,note_on,1,0,0,,4,,,52,127
11004,note_on,0,0,0,,2,,,74,127
11108,note_off,104,0,0,,2,,,74,127
11109,note_off,1,0,0,,2,,,62,127
11109,note_on,0,0,0,,1,,,73,127
11213,note_off,104,0,0,,1,,,73,127
11213,note_off,0,0,0,,4,,,52,127
11214,note_on,1,0,0,,2,,,62,127
11214,note_on,0,0,0,,12,,,71,127
11318,note_off,104,0,0,,12,,,71,127
11319,note_on,1,0,0,,1,,,73,127
11423,note_off,104,0,0,,1,,,73,127
11423,note_off,0,0,0,,2,,,62,127
11424,note_on,1,0,0,,1,,,61,127
11424,note_on,0,0,0,,10,,,69,127
11632,note_off,208,0,0,,10,,,69,127
11633,note_on,1,0,0,,10,,,57,127
11633,note_on,0,0,0,,10,,,81,127
11737,note_off,104,0,0,,10,,,81,127
11738,note_off,1,0,0,,1,,,61,127
11738,note_on,0,0,0,,8,,,80,127
11842,note_off,104,0,0,,8,,,80,127
11842,note_off,0,0,0,,10,,,57,127
11843,note_on,1,0,0,,1,,,61,127
11843,note_on,0,0,0,,6,,,78,127
11947,note_off,104,0,0,,6,,,78,127
11948,note_on,1,0,0,,8,,,80,127
12052,note_off,104,0,0,,8,,,80,127
12052,note_off,0,0,0,,1,,,61,127
12053,note_on,1,0,0,,3,,,63,127
12053,note_on,0,0,0,,10,,,69,127
12261,note_off,208,0,0,,10,,,69,127
12262,note_on,1,0,0,,12,,,59,127
12262,note_on,0,0,0,,10,,,81,127
12366,note_off,104,0,0,,10,,,81,127
12367,note_off,1,0,0,,3,,,63,127
12367,note_on,0,0,0,,8,,,80,127
12471,note_off,104,0,0,,8,,,80,127
12471,note_off,0,0,0,,12,,,59,127
12472,note_on,1,0,0,,3,,,63,127
12472,note_on,0,0,0,,6,,,78,127
12576,note_off,104,0,0,,6,,,78,127
12577,note_on,1,0,0,,10,,,81,127
12681,note_off,104,0,0,,10,,,81,127
12681,note_off,0,0,0,,3,,,63,127
12682,note_on,1,0,0,,4,,,64,127
12682,note_on,0,0,0,,8,,,80,127
12786,note_off,104,0,0,,8,,,80,127
12787,note_on,1,0,0,,6,,,78,127
12891,note_off,104,0,0,,6,,,78,127
12891,note_off,0,0,0,,4,,,64,127
12892,note_on,1,0,0,,6,,,66,127
12892,note_on,0,0,0,,4,,,76,127
12996,note_off,104,0,0,,4,,,76,127
12997,note_on,1,0,0,,2,,,74,127
13101,note_off,104,0,0,,2,,,74,127
13101,note_off,0,0,0,,6,,,66,127
13102,note_on,1,0,0,,8,,,68,127
13102,note_on,0,0,0,,1,,,73,127
13206,note_off,104,0,0,,1,,,73,127
13207,note_on,1,0,0,,12,,,71,127
13311,note_off,104,0,0,,12,,,71,127
13311,note_off,0,0,0,,8,,,68,127
13312,note_on,1,0,0,,10,,,69,127
13312,note_on,0,0,0,,1,,,73,127
13417,note_on,105,0,0,,4,,,64,127
13491,note_off,74,0,0,,10,,,69,127
13520,note_off,29,0,0,,1,,,73,127
13521,note_on,1,0,0,,12,,,71,127
13521,note_on,0,0,0,,2,,,74,127
13595,note_off,74,0,0,,4,,,64,127
13626,note_on,31,0,0,,4,,,64,127
13700,note_off,74,0,0,,12,,,71,127
13729,note_off,29,0,0,,2,,,74,127
13730,note_on,1,0,0,,8,,,68,127
13730,note_on,0,0,0,,12,,,71,127
13804,note_off,74,0,0,,4,,,64,127
13835,note_on,31,0,0,,4,,,64,127
13909,note_off,74,0,0,,8,,,68,127
13938,note_off,29,0,0,,12,,,71,127
13939,note_on,1,0,0,,10,,,69,127
13939,note_on,0,0,0,,1,,,73,127
14013,note_off,74,0,0,,4,,,64,127
14044,note_on,31,0,0,,4,,,64,127
14118,note_off,74,0,0,,10,,,69,127
14147,note_off,29,0,0,,1,,,73,127
14148,note_on,1,0,0,,12,,,71,127
14148,note_on,0,0,0,,2,,,74,127
14222,note_off,74,0,0,,4,,,64,127
14253,note_on,31,0,0,,4,,,64,127
14327,note_off,74,0,0,,12,,,71,127
14356,note_off,29,0,0,,2,,,74,127
14357,note_on,1,0,0,,8,,,68,127
14357,note_on,0,0,0,,12,,,71,127
14431,note_off,74,0,0,,4,,,64,127
14462,note_on,31,0,0,,4,,,64,127
14536,note_off,74,0,0,,8,,,68,127
14565,note_off,29,0,0,,12,,,71,127
14566,note_on,1,0,0,,10,,,69,127
14566,note_on,0,0,0,,1,,,73,127
14640,note_off,74,0,0,,4,,,64,127
14671,note_on,31,0,0,,4,,,64,127
14745,note_off,74,0,0,,10,,,69,127
14774,note_off,29,0,0,,1,,,73,127
14775,note_on,1,0,0,,12,,,71,127
14775,note_on,0,0,0,,2,,,74,127
14849,note_off,74,0,0,,4,,,64,127
14880,note_on,31,0,0,,4,,,64,127
14954,note_off,74,0,0,,12,,,71,127
14983,note_off,29,0,0,,2,,,74,127
14984,note_on,1,0,0,,8,,,68,127
14984,note_on,0,0,0,,12,,,71,127
15058,note_off,74,0,0,,4,,,64,127
15089,note_on,31,0,0,,4,,,64,127
15163,note_off,74,0,0,,8,,,68,127
15192,note_off,29,0,0,,12,,,71,127
15193,note_on,1,0,0,,10,,,69,127
15193,note_on,0,0,0,,1,,,73,127
15267,note_off,74,0,0,,4,,,64,127
15296,note_off,29,0,0,,10,,,69,127
15297,note_on,1,0,0,,7,,,67,127
15401,note_off,104,0,0,,7,,,67,127
15401,note_off,0,0,0,,1,,,73,127
15402,note_on,1,0,0,,6,,,66,127
15402,note_on,0,0,0,,2,,,74,127
15506,note_off,104,0,0,,6,,,66,127
15507,note_on,1,0,0,,4,,,64,127
15611,note_off,104,0,0,,4,,,64,127
15611,note_off,0,0,0,,2,,,74,127
15612,note_on,1,0,0,,2,,,62,127
15612,note_on,0,0,0,,4,,,76,127
15716,note_off,104,0,0,,2,,,62,127
15717,note_on,1,0,0,,1,,,61,127
15821,note_off,104,0,0,,1,,,61,127
15821,note_off,0,0,0,,4,,,76,127
15822,note_on,1,0,0,,2,,,62,127
15822,note_on,0,0,0,,6,,,78,127
15822,note_on,0,0,0,,10,,,69,127
15927,note_on,105,0,0,,10,,,57,127
16001,note_off,74,0,0,,2,,,62,127
16030,note_off,29,0,0,,6,,,78,127
16031,note_on,1,0,0,,4,,,64,127
16031,note_on,0,0,0,,7,,,79,127
16105,note_off,74,0,0,,10,,,57,127
16136,note_on,31,0,0,,10,,,57,127
16210,note_off,74,0,0,,4,,,64,127
16239,note_off,29,0,0,,7,,,79,127
16240,note_on,1,0,0,,1,,,61,127
16240,note_on,0,0,0,,4,,,76,127
16314,note_off,74,0,0,,10,,,57,127
16345,note_on,31,0,0,,10,,,57,127
16419,note_off,74,0,0,,1,,,61,127
16448,note_off,29,0,0,,4,,,76,127
16448,note_off,0,0,0,,10,,,69,127
16449,note_on,1,0,0,,2,,,62,127
16449,note_on,0,0,0,,10,,,69,127
16449,note_on,0,0,0,,6,,,78,127
16523,note_off,74,0,0,,10,,,57,127
16554,note_on,31,0,0,,10,,,57,127
16628,note_off,74,0,0,,2,,,62,127
16657,note_off,29,0,0,,6,,,78,127
16658,note_on,1,0,0,,4,,,64,127
16658,note_on,0,0,0,,7,,,79,127
16732,note_off,74,0,0,,10,,,57,127
16763,note_on,31,0,0,,10,,,57,127
16837,note_off,74,0,0,,4,,,64,127
16866,note_off,29,0,0,,7,,,79,127
16867,note_on,1,0,0,,1,,,61,127
16867,note_on,0,0,0,,4,,,76,127
16941,note_off,74,0,0,,10,,,57,127
16972,note_on,31,0,0,,10,,,57,127
17046,note_off,74,0,0,,1,,,61,127
17075,note_off,29,0,0,,4,,,76,127
17075,note_off,0,0,0,,10,,,69,127
17076,note_on,1,0,0,,2,,,62,127
17076,note_on,0,0,0,,6,,,78,127
17150,note_off,74,0,0,,10,,,57,127
17179,note_off,29,0,0,,6,,,78,127
17180,note_on,1,0,0,,4,,,76,127
17284,note_off,104,0,0,,4,,,76,127
17285,note_on,1,0,0,,2,,,74,127
17389,note_off,104,0,0,,2,,,74,127
17390,note_on,1,0,0,,1,,,73,127
17494,note_off,104,0,0,,1,,,73,127
17494,note_off,0,0,0,,2,,,62,127
17495,note_on,1,0,0,,3,,,63,127
17495,note_on,0,0,0,,12,,,71,127
17599,note_off,104,0,0,,12,,,71,127
17600,note_on,1,0,0,,10,,,69,127
17704,note_off,104,0,0,,10,,,69,127
17704,note_off,0,0,0,,3,,,63,127
17705,note_on,1,0,0,,4,,,64,127
17705,note_on,0,0,0,,8,,,68,127
17809,note_off,104,0,0,,8,,,68,127
17810,note_on,1,0,0,,12,,,71,127
17914,note_off,104,0,0,,12,,,71,127
17914,note_off,0,0,0,,4,,,64,127
17915,note_on,1,0,0,,1,,,61,127
17915,note_on,0,0,0,,10,,,69,127
18019,note_off,104,0,0,,10,,,69,127
18020,note_on,1,0,0,,1,,,73,127
18124,note_off,104,0,0,,1,,,73,127
18124,note_off,0,0,0,,1,,,61,127
18125,note_on,1,0,0,,8,,,56,127
18125,note_on,0,0,0,,12,,,71,127
18229,note_off,104,0,0,,12,,,71,127
18230,note_on,1,0,0,,2,,,74,127
18334,note_off,104,0,0,,2,,,74,127
18334,note_off,0,0,0,,8,,,56,127
18335,note_on,1,0,0,,10,,,57,127
18335,note_on,0,0,0,,1,,,73,127
18439,note_off,104,0,0,,1,,,73,127
18440,note_on,1,0,0,,4,,,76,127
18544,note_off,104,0,0,,4,,,76,127
18544,note_off,0,0,0,,10,,,57,127
18545,note_on,1,0,0,,6,,,54,127
18545,note_on,0,0,0,,2,,,74,127
18649,note_off,104,0,0,,2,,,74,127
18650,note_on,1,0,0,,4,,,76,127
18754,note_off,104,0,0,,4,,,76,127
18754,note_off,0,0,0,,6,,,54,127
18755,note_on,1,0,0,,2,,,50,127
18755,note_on,0,0,0,,6,,,78,127
18859,note_off,104,0,0,,6,,,78,127
18860,note_on,1,0,0,,10,,,69,127
18964,note_off,104,0,0,,2,,,50,127
18965,note_on,1,0,0,,4,,,52,127
19013,note_off,48,0,0,,10,,,69,127
19017,note_on,4,0,0,,8,,,68,127
19068,note_off,51,0,0,,8,,,68,127
19069,note_on,1,0,0,,10,,,69,127
19120,note_off,51,0,0,,10,,,69,127
19121,note_on,1,0,0,,8,,,68,127
19172,note_off,51,0,0,,8,,,68,127
19173,note_on,1,0,0,,4,,,40,127
19173,note_on,0,0,0,,10,,,69,127
19224,note_off,51,0,0,,10,,,69,127
19225,note_on,1,0,0,,8,,,68,127
19276,note_off,51,0,0,,8,,,68,127
19277,note_on,1,0,0,,6,,,66,127
19381,note_off,104,0,0,,6,,,66,127
19382,note_on,1,0,0,,4,,,64,127
19578,note_off,196,0,0,,4,,,64,127
19590,note_off,12,0,0,,4,,,40,127
19590,note_off,0,0,0,,4,,,52,127
19591,note_on,1,0,0,,4,,,64,127
19696,note_on,105,0,0,,11,,,70,127
19800,note_off,104,0,0,,11,,,70,127
19800,note_off,0,0,0,,4,,,64,127
19801,note_on,1,0,0,,2,,,62,127
19801,note_on,0,0,0,,12,,,71,127
19905,note_off,104,0,0,,12,,,71,127
19906,note_on,1,0,0,,11,,,70,127
20010,note_off,104,0,0,,11,,,70,127
20010,note_off,0,0,0,,2,,,62,127
20011,note_on,1,0,0,,1,,,61,127
20011,note_on,0,0,0,,12,,,71,127
20115,note_off,104,0,0,,12,,,71,127
20116,note_on,1,0,0,,1,,,73,127
20220,note_off,104,0,0,,1,,,61,127
20221,note_on,1,0,0,,12,,,59,127
20325,note_off,104,0,0,,1,,,73,127
20326,note_on,1,0,0,,1,,,73,127
20430,note_off,104,0,0,,1,,,73,127
20430,note_off,0,0,0,,12,,,59,127
20431,note_on,1,0,0,,10,,,57,127
20431,note_on,0,0,0,,2,,,74,127
20535,note_off,104,0,0,,2,,,74,127
20536,note_on,1,0,0,,1,,,73,127
20640,note_off,104,0,0,,1,,,73,127
20640,note_off,0,0,0,,10,,,57,127
20641,note_on,1,0,0,,8,,,56,127
20641,note_on,0,0,0,,2,,,74,127
20745,note_off,104,0,0,,2,,,74,127
20746,note_on,1,0,0,,4,,,76,127
20850,note_off,104,0,0,,8,,,56,127
20851,note_on,1,0,0,,6,,,54,127
20955,note_off,104,0,0,,4,,,76,127
20956,note_on,1,0,0,,6,,,78,127
21060,note_off,104,0,0,,6,,,78,127
21060,note_off,0,0,0,,6,,,54,127
21061,note_on,1,0,0,,8,,,56,127
21061,note_on,0,0,0,,4,,,76,127
21165,note_off,104,0,0,,4,,,76,127
21166,note_on,1,0,0,,2,,,74,127
21270,note_off,104,0,0,,2,,,74,127
21270,note_off,0,0,0,,8,,,56,127
21271,note_on,1,0,0,,4,,,52,127
21271,note_on,0,0,0,,1,,,73,127
21375,note_off,104,0,0,,1,,,73,127
21376,note_on,1,0,0,,12,,,71,127
21480,note_off,104,0,0,,12,,,71,127
21480,note_off,0,0,0,,4,,,52,127
21481,note_on,1,0,0,,10,,,45,127
21481,note_on,0,0,0,,1,,,73,127
21585,note_off,104,0,0,,1,,,73,127
21586,note_on,1,0,0,,8,,,68,127
21690,note_off,104,0,0,,8,,,68,127
21690,note_off,0,0,0,,10,,,45,127
21691,note_on,1,0,0,,10,,,57,127
21691,note_on,0,0,0,,10,,,69,127
21795,note_off,104,0,0,,10,,,69,127
21796,note_on,1,0,0,,8,,,68,127
21900,note_off,104,0,0,,8,,,68,127
21900,note_off,0,0,0,,10,,,57,127
21901,note_on,1,0,0,,8,,,56,127
21901,note_on,0,0,0,,10,,,69,127
22005,note_off,104,0,0,,10,,,69,127
22006,note_on,1,0,0,,12,,,71,127
22110,note_off,104,0,0,,8,,,56,127
22111,note_on,1,0,0,,6,,,54,127
22203,note_off,92,0,0,,12,,,71,127
22216,note_on,13,0,0,,12,,,71,127
22320,note_off,104,0,0,,12,,,71,127
22320,note_off,0,0,0,,6,,,54,127
22321,note_on,1,0,0,,4,,,52,127
22321,note_on,0,0,0,,1,,,73,127
22425,note_off,104,0,0,,1,,,73,127
22426,note_on,1,0,0,,12,,,71,127
22530,note_off,104,0,0,,12,,,71,127
22530,note_off,0,0,0,,4,,,52,127
22531,note_on,1,0,0,,2,,,50,127
22531,note_on,0,0,0,,1,,,73,127
22635,note_off,104,0,0,,1,,,73,127
22636,note_on,1,0,0,,2,,,74,127
22740,note_off,104,0,0,,2,,,50,127
22741,note_on,1,0,0,,1,,,49,127
22833,note_off,92,0,0,,2,,,74,127
22846,note_on,13,0,0,,4,,,76,127
22950,note_off,104,0,0,,4,,,76,127
22950,note_off,0,0,0,,1,,,49,127
22951,note_on,1,0,0,,10,,,57,127
22951,note_on,0,0,0,,6,,,78,127
23055,note_off,104,0,0,,6,,,78,127
23056,note_on,1,0,0,,4,,,76,127
23160,note_off,104,0,0,,4,,,76,127
23160,note_off,0,0,0,,10,,,57,127
23161,note_on,1,0,0,,12,,,47,127
23161,note_on,0,0,0,,6,,,78,127
23265,note_off,104,0,0,,6,,,78,127
23266,note_on,1,0,0,,8,,,80,127
23370,note_off,104,0,0,,8,,,80,127
23370,note_off,0,0,0,,12,,,47,127
23371,note_on,1,0,0,,10,,,45,127
23371,note_on,0,0,0,,10,,,81,127
23475,note_off,104,0,0,,10,,,81,127
23476,note_on,1,0,0,,4,,,76,127
23580,note_off,104,0,0,,4,,,76,127
23580,note_off,0,0,0,,10,,,45,127
23581,note_on,1,0,0,,12,,,47,127
23581,note_on,0,0,0,,1,,,73,127
23685,note_off,104,0,0,,1,,,73,127
23686,note_on,1,0,0,,2,,,74,127
23790,note_off,104,0,0,,2,,,74,127
23790,note_off,0,0,0,,12,,,47,127
23791,note_on,1,0,0,,1,,,49,127
23791,note_on,0,0,0,,4,,,76,127
23895,note_off,104,0,0,,4,,,76,127
23896,note_on,1,0,0,,1,,,73,127
24000,note_off,104,0,0,,1,,,73,127
24000,note_off,0,0,0,,1,,,49,127
24001,note_on,1,0,0,,2,,,50,127
24001,note_on,0,0,0,,6,,,78,127
24105,note_off,104,0,0,,6,,,78,127
24106,note_on,1,0,0,,2,,,74,127
24210,note_off,104,0,0,,2,,,74,127
24210,note_off,0,0,0,,2,,,50,127
24211,note_on,1,0,0,,4,,,52,127
24211,note_on,0,0,0,,1,,,73,127
24315,note_off,104,0,0,,1,,,73,127
24316,note_on,1,0,0,,12,,,71,127
24420,note_off,104,0,0,,12,,,71,127
24421,note_on,1,0,0,,4,,,40,127
24421,note_on,0,0,0,,10,,,69,127
24525,note_off,104,0,0,,10,,,69,127
24526,note_on,1,0,0,,12,,,71,127
24630,note_off,104,0,0,,12,,,71,127
24630,note_off,0,0,0,,4,,,40,127
24630,note_off,0,0,0,,4,,,52,127
24631,note_on,1,0,0,,10,,,45,127
24631,note_on,0,0,0,,1,,,73,127
24735,note_off,104,0,0,,1,,,73,127
24736,note_on,1,0,0,,8,,,68,127
24840,note_off,104,0,0,,8,,,68,127
24840,note_off,0,0,0,,10,,,45,127
24841,note_on,1,0,0,,10,,,57,127
24841,note_on,0,0,0,,10,,,69,127
24945,note_off,104,0,0,,10,,,69,127
24946,note_on,1,0,0,,8,,,68,127
25050,note_off,104,0,0,,8,,,68,127
25050,note_off,0,0,0,,10,,,57,127
25051,note_on,1,0,0,,8,,,56,127
25051,note_on,0,0,0,,10,,,69,127
25155,note_off,104,0,0,,10,,,69,127
25156,note_on,1,0,0,,12,,,71,127
25260,note_off,104,0,0,,8,,,56,127
25261,note_on,1,0,0,,6,,,54,127
25313,note_off,52,0,0,,12,,,71,127
25365,note_on,52,0,0,,12,,,71,127
25469,note_off,104,0,0,,12,,,71,127
25469,note_off,0,0,0,,6,,,54,127
25470,note_on,1,0,0,,4,,,52,127
25470,note_on,0,0,0,,1,,,73,127
25574,note_off,104,0,0,,1,,,73,127
25575,note_on,1,0,0,,12,,,71,127
25679,note_off,104,0,0,,12,,,71,127
25679,note_off,0,0,0,,4,,,52,127
25680,note_on,1,0,0,,2,,,50,127
25680,note_on,0,0,0,,1,,,73,127
25784,note_off,104,0,0,,1,,,73,127
25785,note_on,1,0,0,,2,,,74,127
25889,note_off,104,0,0,,2,,,50,127
25890,note_on,1,0,0,,1,,,49,127
25942,note_off,52,0,0,,2,,,74,127
25994,note_on,52,0,0,,4,,,76,127
26098,note_off,104,0,0,,4,,,76,127
26098,note_off,0,0,0,,1,,,49,127
26099,note_on,1,0,0,,10,,,57,127
26099,note_on,0,0,0,,6,,,78,127
26203,note_off,104,0,0,,6,,,78,127
26204,note_on,1,0,0,,4,,,76,127
26308,note_off,104,0,0,,4,,,76,127
26308,note_off,0,0,0,,10,,,57,127
26309,note_on,1,0,0,,12,,,47,127
26309,note_on,0,0,0,,6,,,78,127
26413,note_off,104,0,0,,6,,,78,127
26414,note_on,1,0,0,,8,,,80,127
26518,note_off,104,0,0,,8,,,80,127
26518,note_off,0,0,0,,12,,,47,127
26519,note_on,1,0,0,,10,,,45,127
26519,note_on,0,0,0,,10,,,81,127
26623,note_off,104,0,0,,10,,,81,127
26624,note_on,1,0,0,,4,,,76,127
26728,note_off,104,0,0,,4,,,76,127
26728,note_off,0,0,0,,10,,,45,127
26729,note_on,1,0,0,,12,,,47,127
26729,note_on,0,0,0,,1,,,73,127
26833,note_off,104,0,0,,1,,,73,127
26834,note_on,1,0,0,,2,,,74,127
26938,note_off,104,0,0,,2,,,74,127
26938,note_off,0,0,0,,12,,,47,127
26939,note_on,1,0,0,,1,,,49,127
26939,note_on,0,0,0,,4,,,76,127
27043,note_off,104,0,0,,4,,,76,127
27044,note_on,1,0,0,,1,,,73,127
27148,note_off,104,0,0,,1,,,73,127
27148,note_off,0,0,0,,1,,,49,127
27149,note_on,1,0,0,,2,,,50,127
27149,note_on,0,0,0,,6,,,78,127
27253,note_off,104,0,0,,6,,,78,127
27254,note_on,1,0,0,,2,,,74,127
27358,note_off,104,0,0,,2,,,74,127
27358,note_off,0,0,0,,2,,,50,127
27359,note_on,1,0,0,,4,,,52,127
27359,note_on,0,0,0,,1,,,73,127
27463,note_off,104,0,0,,1,,,73,127
27464,note_on,1,0,0,,12,,,71,127
27568,note_off,104,0,0,,12,,,71,127
27569,note_on,1,0,0,,4,,,40,127
27569,note_on,0,0,0,,10,,,69,127
27673,note_off,104,0,0,,10,,,69,127
27674,note_on,1,0,0,,12,,,71,127
27778,note_off,104,0,0,,12,,,71,127
27778,note_off,0,0,0,,4,,,40,127
27778,note_off,0,0,0,,4,,,52,127
27779,note_on,1,0,0,,10,,,45,127
27779,note_on,0,0,0,,1,,,73,127
27883,note_off,104,0,0,,1,,,73,127
27884,note_on,1,0,0,,12,,,71,127
27988,note_off,104,0,0,,12,,,71,127
27988,note_off,0,0,0,,10,,,45,127
27989,note_on,1,0,0,,12,,,47,127
27989,note_on,0,0,0,,10,,,69,127
28093,note_off,104,0,0,,10,,,69,127
28094,note_on,1,0,0,,8,,,68,127
28198,note_off,104,0,0,,8,,,68,127
28198,note_off,0,0,0,,12,,,47,127
28199,note_on,1,0,0,,1,,,49,127
28199,note_on,0,0,0,,10,,,69,127
28303,note_off,104,0,0,,10,,,69,127
28304,note_on,1,0,0,,4,,,64,127
28408,note_off,104,0,0,,4,,,64,127
28408,note_off,0,0,0,,1,,,49,127
28409,note_on,1,0,0,,2,,,50,127
28409,note_on,0,0,0,,12,,,71,127
28513,note_off,104,0,0,,12,,,71,127
28514,note_on,1,0,0,,8,,,68,127
28618,note_off,104,0,0,,8,,,68,127
28618,note_off,0,0,0,,2,,,50,127
28619,note_on,1,0,0,,4,,,52,127
28619,note_on,0,0,0,,2,,,74,127
28723,note_off,104,0,0,,2,,,74,127
28724,note_on,1,0,0,,12,,,71,127
28828,note_off,104,0,0,,12,,,71,127
28829,note_on,1,0,0,,4,,,40,127
28829,note_on,0,0,0,,4,,,76,127
28933,note_off,104,0,0,,4,,,76,127
28934,note_on,1,0,0,,2,,,74,127
29038,note_off,104,0,0,,2,,,74,127
29038,note_off,0,0,0,,4,,,40,127
29038,note_off,0,0,0,,4,,,52,127
29039,note_on,1,0,0,,10,,,45,127
29039,note_on,0,0,0,,1,,,73,127
29143,note_off,104,0,0,,1,,,73,127
29144,note_on,1,0,0,,12,,,71,127
29248,note_off,104,0,0,,12,,,71,127
29248,note_off,0,0,0,,10,,,45,127
29249,note_on,1,0,0,,12,,,47,127
29249,note_on,0,0,0,,10,,,69,127
29353,note_off,104,0,0,,10,,,69,127
29354,note_on,1,0,0,,8,,,68,127
29458,note_off,104,0,0,,8,,,68,127
29458,note_off,0,0,0,,12,,,47,127
29459,note_on,1,0,0,,1,,,49,127
29459,note_on,0,0,0,,10,,,69,127
29563,note_off,104,0,0,,10,,,69,127
29564,note_on,1,0,0,,4,,,64,127
29668,note_off,104,0,0,,4,,,64,127
29668,note_off,0,0,0,,1,,,49,127
29669,note_on,1,0,0,,2,,,50,127
29669,note_on,0,0,0,,12,,,71,127
29773,note_off,104,0,0,,12,,,71,127
29774,note_on,1,0,0,,8,,,68,127
29878,note_off,104,0,0,,8,,,68,127
29878,note_off,0,0,0,,2,,,50,127
29879,note_on,1,0,0,,4,,,52,127
29879,note_on,0,0,0,,2,,,74,127
29983,note_off,104,0,0,,2,,,74,127
29984,note_on,1,0,0,,12,,,71,127
30088,note_off,104,0,0,,12,,,71,127
30089,note_on,1,0,0,,4,,,40,127
30089,note_on,0,0,0,,4,,,76,127
30193,note_off,104,0,0,,4,,,76,127
30194,note_on,1,0,0,,2,,,74,127
30298,note_off,104,0,0,,2,,,74,127
30298,note_off,0,0,0,,4,,,40,127
30298,note_off,0,0,0,,4,,,52,127
30299,note_on,1,0,0,,10,,,45,127
30299,note_on,0,0,0,,1,,,73,127
30403,note_off,104,0,0,,1,,,73,127
30404,note_on,1,0,0,,12,,,71,127
30508,note_off,104,0,0,,12,,,71,127
30508,note_off,0,0,0,,10,,,45,127
30509,note_on,1,0,0,,12,,,47,127
30509,note_on,0,0,0,,10,,,69,127
30613,note_off,104,0,0,,10,,,69,127
30614,note_on,1,0,0,,8,,,68,127
30718,note_off,104,0,0,,8,,,68,127
30718,note_off,0,0,0,,12,,,47,127
30719,note_on,1,0,0,,1,,,49,127
30719,note_on,0,0,0,,10,,,81,127
30823,note_off,104,0,0,,10,,,81,127
30824,note_on,1,0,0,,4,,,76,127
30928,note_off,104,0,0,,4,,,76,127
30928,note_off,0,0,0,,1,,,49,127
30929,note_on,1,0,0,,2,,,50,127
30929,note_on,0,0,0,,6,,,78,127
31033,note_off,104,0,0,,6,,,78,127
31034,note_on,1,0,0,,2,,,74,127
31138,note_off,104,0,0,,2,,,74,127
31138,note_off,0,0,0,,2,,,50,127
31139,note_on,1,0,0,,4,,,52,127
31139,note_on,0,0,0,,1,,,73,127
31243,note_off,104,0,0,,1,,,73,127
31244,note_on,1,0,0,,12,,,71,127
31348,note_off,104,0,0,,12,,,71,127
31349,note_on,1,0,0,,4,,,40,127
31349,note_on,0,0,0,,10,,,69,127
31453,note_off,104,0,0,,10,,,69,127
31454,note_on,1,0,0,,8,,,68,127
31558,note_off,104,0,0,,8,,,68,127
31558,note_off,0,0,0,,4,,,40,127
31558,note_off,0,0,0,,4,,,52,127
31559,note_on,1,0,0,,10,,,45,127
31559,note_on,0,0,0,,10,,,69,127
32083,note_off,524,0,0,,10,,,69,127
32187,note_off,104,0,0,,10,,,45,127
32188,note_on,1,0,0,,4,,,76,127
32815,note_off,627,0,0,,4,,,76,127
32816,note_on,1,0,0,,10,,,57,127
32816,note_on,0,0,0,,1,,,73,127
33443,note_off,627,0,0,,1,,,73,127
33443,note_off,0,0,0,,10,,,57,127
33444,note_on,1,0,0,,6,,,54,127
33444,note_on,0,0,0,,6,,,78,127
33548,note_off,104,0,0,,6,,,78,127
33549,note_on,1,0,0,,4,,,76,127
33653,note_off,104,0,0,,4,,,76,127
33654,note_on,1,0,0,,2,,,74,127
33758,note_off,104,0,0,,2,,,74,127
33759,note_on,1,0,0,,1,,,73,127
33863,note_off,104,0,0,,1,,,73,127
33864,note_on,1,0,0,,12,,,71,127
33968,note_off,104,0,0,,12,,,71,127
33969,note_on,1,0,0,,11,,,70,127
34073,note_off,104,0,0,,11,,,70,127
34073,note_off,0,0,0,,6,,,54,127
34074,note_on,1,0,0,,7,,,55,127
34074,note_on,0,0,0,,4,,,76,127
34178,note_off,104,0,0,,4,,,76,127
34179,note_on,1,0,0,,2,,,74,127
34283,note_off,104,0,0,,2,,,74,127
34283,note_off,0,0,0,,7,,,55,127
34284,note_on,1,0,0,,4,,,52,127
34284,note_on,0,0,0,,1,,,73,127
34388,note_off,104,0,0,,1,,,73,127
34389,note_on,1,0,0,,12,,,71,127
34493,note_off,104,0,0,,12,,,71,127
34493,note_off,0,0,0,,4,,,52,127
34494,note_on,1,0,0,,7,,,55,127
34494,note_on,0,0,0,,11,,,70,127
34598,note_off,104,0,0,,11,,,70,127
34599,note_on,1,0,0,,12,,,71,127
34703,note_off,104,0,0,,7,,,55,127
34704,note_on,1,0,0,,6,,,54,127
34752,note_off,48,0,0,,12,,,71,127
34756,note_on,4,0,0,,11,,,70,127
34807,note_off,51,0,0,,11,,,70,127
34808,note_on,1,0,0,,12,,,71,127
34859,note_off,51,0,0,,12,,,71,127
34860,note_on,1,0,0,,11,,,70,127
34911,note_off,51,0,0,,11,,,70,127
34912,note_on,1,0,0,,6,,,42,127
34912,note_on,0,0,0,,12,,,71,127
34963,note_off,51,0,0,,12,,,71,127
34964,note_on,1,0,0,,11,,,70,127
35015,note_off,51,0,0,,11,,,70,127
35016,note_on,1,0,0,,8,,,68,127
35120,note_off,104,0,0,,8,,,68,127
35121,note_on,1,0,0,,6,,,66,127
35329,note_off,208,0,0,,6,,,42,127
35329,note_off,0,0,0,,6,,,54,127
35330,note_on,1,0,0,,4,,,64,127
35538,note_off,208,0,0,,6,,,66,127
35539,note_on,1,0,0,,6,,,54,127
35539,note_on,0,0,0,,1,,,73,127
35643,note_off,104,0,0,,1,,,73,127
35644,note_off,1,0,0,,4,,,64,127
35644,note_on,0,0,0,,12,,,71,127
35748,note_off,104,0,0,,12,,,71,127
35748,note_off,0,0,0,,6,,,54,127
35749,note_on,1,0,0,,4,,,64,127
35749,note_on,0,0,0,,11,,,70,127
35853,note_off,104,0,0,,11,,,70,127
35854,note_on,1,0,0,,12,,,71,127
35958,note_off,104,0,0,,12,,,71,127
35958,note_off,0,0,0,,4,,,64,127
35959,note_on,1,0,0,,2,,,62,127
35959,note_on,0,0,0,,6,,,66,127
36167,note_off,208,0,0,,6,,,66,127
36168,note_on,1,0,0,,6,,,54,127
36168,note_on,0,0,0,,2,,,74,127
36272,note_off,104,0,0,,2,,,74,127
36273,note_off,1,0,0,,2,,,62,127
36273,note_on,0,0,0,,1,,,73,127
36377,note_off,104,0,0,,1,,,73,127
36377,note_off,0,0,0,,6,,,54,127
36378,note_on,1,0,0,,2,,,62,127
36378,note_on,0,0,0,,12,,,71,127
36482,note_off,104,0,0,,12,,,71,127
36483,note_on,1,0,0,,1,,,73,127
36587,note_off,104,0,0,,1,,,73,127
36587,note_off,0,0,0,,2,,,62,127
36588,note_on,1,0,0,,4,,,64,127
36588,note_on,0,0,0,,7,,,67,127
36796,note_off,208,0,0,,7,,,67,127
36797,note_on,1,0,0,,6,,,54,127
36797,note_on,0,0,0,,1,,,73,127
36901,note_off,104,0,0,,1,,,73,127
36902,note_off,1,0,0,,4,,,64,127
36902,note_on,0,0,0,,12,,,71,127
37006,note_off,104,0,0,,12,,,71,127
37006,note_off,0,0,0,,6,,,54,127
37007,note_on,1,0,0,,4,,,64,127
37007,note_on,0,0,0,,11,,,70,127
37111,note_off,104,0,0,,11,,,70,127
37112,note_on,1,0,0,,12,,,71,127
37216,note_off,104,0,0,,12,,,71,127
37216,note_off,0,0,0,,4,,,64,127
37217,note_on,1,0,0,,2,,,62,127
37217,note_on,0,0,0,,6,,,66,127
37425,note_off,208,0,0,,6,,,66,127
37426,note_on,1,0,0,,6,,,54,127
37426,note_on,0,0,0,,2,,,74,127
37530,note_off,104,0,0,,2,,,74,127
37531,note_off,1,0,0,,2,,,62,127
37531,note_on,0,0,0,,1,,,73,127
37635,note_off,104,0,0,,1,,,73,127
37635,note_off,0,0,0,,6,,,54,127
37636,note_on,1,0,0,,2,,,62,127
37636,note_on,0,0,0,,12,,,71,127
37740,note_off,104,0,0,,12,,,71,127
37741,note_on,1,0,0,,1,,,73,127
37845,note_off,104,0,0,,1,,,73,127
37845,note_off,0,0,0,,2,,,62,127
37846,note_on,1,0,0,,3,,,63,127
37846,note_on,0,0,0,,10,,,69,127
38054,note_off,208,0,0,,10,,,69,127
38055,note_on,1,0,0,,12,,,59,127
38055,note_on,0,0,0,,6,,,78,127
38159,note_off,104,0,0,,6,,,78,127
38160,note_off,1,0,0,,3,,,63,127
38160,note_on,0,0,0,,4,,,76,127
38264,note_off,104,0,0,,4,,,76,127
38264,note_off,0,0,0,,12,,,59,127
38265,note_on,1,0,0,,6,,,66,127
38265,note_on,0,0,0,,3,,,75,127
38369,note_off,104,0,0,,3,,,75,127
38370,note_on,1,0,0,,4,,,76,127
38474,note_off,104,0,0,,4,,,76,127
38474,note_off,0,0,0,,6,,,66,127
38475,note_on,1,0,0,,7,,,67,127
38475,note_on,0,0,0,,12,,,71,127
38683,note_off,208,0,0,,12,,,71,127
38684,note_on,1,0,0,,12,,,59,127
38684,note_on,0,0,0,,7,,,79,127
38788,note_off,104,0,0,,7,,,79,127
38789,note_off,1,0,0,,7,,,67,127
38789,note_on,0,0,0,,6,,,78,127
38893,note_off,104,0,0,,6,,,78,127
38893,note_off,0,0,0,,12,,,59,127
38894,note_on,1,0,0,,7,,,67,127
38894,note_on,0,0,0,,4,,,76,127
38998,note_off,104,0,0,,4,,,76,127
38999,note_on,1,0,0,,6,,,78,127
39103,note_off,104,0,0,,6,,,78,127
39103,note_off,0,0,0,,7,,,67,127
39104,note_on,1,0,0,,10,,,69,127
39104,note_on,0,0,0,,0,,,72,127
39312,note_off,208,0,0,,0,,,72,127
39313,note_on,1,0,0,,12,,,59,127
39313,note_on,0,0,0,,6,,,78,127
39417,note_off,104,0,0,,6,,,78,127
39418,note_off,1,0,0,,10,,,69,127
39418,note_on,0,0,0,,4,,,76,127
39522,note_off,104,0,0,,4,,,76,127
39522,note_off,0,0,0,,12,,,59,127
39523,note_on,1,0,0,,10,,,69,127
39523,note_on,0,0,0,,3,,,75,127
39627,note_off,104,0,0,,3,,,75,127
39628,note_on,1,0,0,,4,,,76,127
39732,note_off,104,0,0,,4,,,76,127
39732,note_off,0,0,0,,10,,,69,127
39733,note_on,1,0,0,,7,,,67,127
39733,note_on,0,0,0,,12,,,71,127
39941,note_off,208,0,0,,12,,,71,127
39942,note_on,1,0,0,,12,,,59,127
39942,note_on,0,0,0,,7,,,79,127
40046,note_off,104,0,0,,7,,,79,127
40047,note_off,1,0,0,,7,,,67,127
40047,note_on,0,0,0,,6,,,78,127
40151,note_off,104,0,0,,6,,,78,127
40151,note_off,0,0,0,,12,,,59,127
40152,note_on,1,0,0,,7,,,67,127
40152,note_on,0,0,0,,4,,,76,127
40256,note_off,104,0,0,,4,,,76,127
40257,note_on,1,0,0,,6,,,78,127
40361,note_off,104,0,0,,6,,,78,127
40361,note_off,0,0,0,,7,,,67,127
40362,note_on,1,0,0,,10,,,69,127
40362,note_on,0,0,0,,0,,,72,127
40570,note_off,208,0,0,,0,,,72,127
40571,note_on,1,0,0,,12,,,59,127
40571,note_on,0,0,0,,6,,,78,127
40675,note_off,104,0,0,,6,,,78,127
40676,note_off,1,0,0,,10,,,69,127
40676,note_on,0,0,0,,4,,,76,127
40780,note_off,104,0,0,,4,,,76,127
40780,note_off,0,0,0,,12,,,59,127
40781,note_on,1,0,0,,10,,,69,127
40781,note_on,0,0,0,,3,,,75,127
40885,note_off,104,0,0,,3,,,75,127
40886,note_on,1,0,0,,4,,,76,127
40990,note_off,104,0,0,,4,,,76,127
40990,note_off,0,0,0,,10,,,69,127
40991,note_on,1,0,0,,7,,,67,127
40991,note_on,0,0,0,,12,,,71,127
41095,note_off,104,0,0,,12,,,71,127
41096,note_on,1,0,0,,3,,,75,127
41200,note_off,104,0,0,,3,,,75,127
41201,note_on,1,0,0,,4,,,76,127
41305,note_off,104,0,0,,4,,,76,127
41306,note_on,1,0,0,,3,,,75,127
41410,note_off,104,0,0,,3,,,75,127
41410,note_off,0,0,0,,7,,,67,127
41411,note_on,1,0,0,,6,,,66,127
41411,note_on,0,0,0,,4,,,76,127
41515,note_off,104,0,0,,4,,,76,127
41516,note_on,1,0,0,,6,,,78,127
41620,note_off,104,0,0,,6,,,66,127
41621,note_on,1,0,0,,4,,,64,127
41725,note_off,104,0,0,,6,,,78,127
41726,note_on,1,0,0,,6,,,78,127
41830,note_off,104,0,0,,6,,,78,127
41831,note_on,1,0,0,,7,,,79,127
41935,note_off,104,0,0,,7,,,79,127
41936,note_on,1,0,0,,6,,,78,127
42040,note_off,104,0,0,,6,,,78,127
42040,note_off,0,0,0,,4,,,64,127
42041,note_on,1,0,0,,2,,,62,127
42041,note_on,0,0,0,,7,,,79,127
42145,note_off,104,0,0,,7,,,79,127
42146,note_on,1,0,0,,10,,,81,127
42250,note_off,104,0,0,,2,,,62,127
42251,note_on,1,0,0,,1,,,61,127
42355,note_off,104,0,0,,10,,,81,127
42356,note_on,1,0,0,,12,,,83,127
42460,note_off,104,0,0,,12,,,83,127
42460,note_off,0,0,0,,1,,,61,127
42461,note_on,1,0,0,,10,,,57,127
42461,note_on,0,0,0,,10,,,81,127
42565,note_off,104,0,0,,10,,,81,127
42566,note_on,1,0,0,,7,,,79,127
42670,note_off,104,0,0,,7,,,79,127
42670,note_off,0,0,0,,10,,,57,127
42671,note_on,1,0,0,,1,,,61,127
42671,note_on,0,0,0,,6,,,78,127
42775,note_off,104,0,0,,6,,,78,127
42776,note_on,1,0,0,,4,,,76,127
42880,note_off,104,0,0,,4,,,76,127
42880,note_off,0,0,0,,1,,,61,127
42881,note_on,1,0,0,,2,,,62,127
42881,note_on,0,0,0,,6,,,78,127
42881,note_on,0,0,0,,10,,,69,127
42986,note_on,105,0,0,,10,,,57,127
43060,note_off,74,0,0,,2,,,62,127
43089,note_off,29,0,0,,6,,,78,127
43090,note_on,1,0,0,,4,,,64,127
43090,note_on,0,0,0,,7,,,79,127
43164,note_off,74,0,0,,10,,,57,127
43195,note_on,31,0,0,,10,,,57,127
43269,note_off,74,0,0,,4,,,64,127
43298,note_off,29,0,0,,7,,,79,127
43299,note_on,1,0,0,,1,,,61,127
43299,note_on,0,0,0,,4,,,76,127
43373,note_off,74,0,0,,10,,,57,127
43404,note_on,31,0,0,,10,,,57,127
43478,note_off,74,0,0,,1,,,61,127
43507,note_off,29,0,0,,4,,,76,127
43507,note_off,0,0,0,,10,,,69,127
43508,note_on,1,0,0,,2,,,62,127
43508,note_on,0,0,0,,6,,,78,127
43508,note_on,0,0,0,,10,,,69,127
43582,note_off,74,0,0,,10,,,57,127
43613,note_on,31,0,0,,10,,,57,127
43687,note_off,74,0,0,,2,,,62,127
43716,note_off,29,0,0,,6,,,78,127
43717,note_on,1,0,0,,4,,,64,127
43717,note_on,0,0,0,,7,,,79,127
43791,note_off,74,0,0,,10,,,57,127
43822,note_on,31,0,0,,10,,,57,127
43896,note_off,74,0,0,,4,,,64,127
43925,note_off,29,0,0,,7,,,79,127
43926,note_on,1,0,0,,1,,,61,127
43926,note_on,0,0,0,,4,,,76,127
44000,note_off,74,0,0,,10,,,57,127
44031,note_on,31,0,0,,10,,,57,127
44105,note_off,74,0,0,,1,,,61,127
44134,note_off,29,0,0,,4,,,76,127
44134,note_off,0,0,0,,10,,,69,127
44135,note_on,1,0,0,,2,,,62,127
44135,note_on,0,0,0,,6,,,78,127
44209,note_off,74,0,0,,10,,,57,127
44238,note_off,29,0,0,,6,,,78,127
44239,note_on,1,0,0,,4,,,76,127
44343,note_off,104,0,0,,4,,,76,127
44343,note_off,0,0,0,,2,,,62,127
44344,note_on,1,0,0,,4,,,64,127
44344,note_on,0,0,0,,2,,,74,127
44448,note_off,104,0,0,,2,,,74,127
44449,note_on,1,0,0,,0,,,72,127
44553,note_off,104,0,0,,0,,,72,127
44553,note_off,0,0,0,,4,,,64,127
44554,note_on,1,0,0,,6,,,66,127
44554,note_on,0,0,0,,12,,,71,127
44658,note_off,104,0,0,,12,,,71,127
44659,note_on,1,0,0,,10,,,69,127
44763,note_off,104,0,0,,10,,,69,127
44763,note_off,0,0,0,,6,,,66,127
44764,note_on,1,0,0,,7,,,67,127
44764,note_on,0,0,0,,12,,,71,127
44869,note_on,105,0,0,,2,,,62,127
44943,note_off,74,0,0,,7,,,67,127
44972,note_off,29,0,0,,12,,,71,127
44973,note_on,1,0,0,,10,,,69,127
44973,note_on,0,0,0,,0,,,72,127
45047,note_off,74,0,0,,2,,,62,127
45078,note_on,31,0,0,,2,,,62,127
45152,note_off,74,0,0,,10,,,69,127
45181,note_off,29,0,0,,0,,,72,127
45182,note_on,1,0,0,,6,,,66,127
45182,note_on,0,0,0,,10,,,69,127
45256,note_off,74,0,0,,2,,,62,127
45287,note_on,31,0,0,,2,,,62,127
45361,note_off,74,0,0,,6,,,66,127
45390,note_off,29,0,0,,10,,,69,127
45391,note_on,1,0,0,,7,,,67,127
45391,note_on,0,0,0,,12,,,71,127
45465,note_off,74,0,0,,2,,,62,127
45496,note_on,31,0,0,,2,,,62,127
45570,note_off,74,0,0,,7,,,67,127
45599,note_off,29,0,0,,12,,,71,127
45600,note_on,1,0,0,,10,,,69,127
45600,note_on,0,0,0,,0,,,72,127
45674,note_off,74,0,0,,2,,,62,127
45705,note_on,31,0,0,,2,,,62,127
45779,note_off,74,0,0,,10,,,69,127
45808,note_off,29,0,0,,0,,,72,127
45809,note_on,1,0,0,,6,,,66,127
45809,note_on,0,0,0,,10,,,69,127
45883,note_off,74,0,0,,2,,,62,127
45914,note_on,31,0,0,,2,,,62,127
45988,note_off,74,0,0,,6,,,66,127
46017,note_off,29,0,0,,10,,,69,127
46018,note_on,1,0,0,,7,,,67,127
46018,note_on,0,0,0,,12,,,71,127
46092,note_off,74,0,0,,2,,,62,127
46121,note_off,29,0,0,,12,,,71,127
46122,note_on,1,0,0,,2,,,74,127
46226,note_off,104,0,0,,2,,,74,127
46226,note_off,0,0,0,,7,,,67,127
46227,note_on,1,0,0,,4,,,64,127
46227,note_on,0,0,0,,1,,,73,127
46331,note_off,104,0,0,,1,,,73,127
46332,note_on,1,0,0,,4,,,76,127
46436,note_off,104,0,0,,4,,,76,127
46436,note_off,0,0,0,,4,,,64,127
46437,note_on,1,0,0,,6,,,66,127
46437,note_on,0,0,0,,2,,,74,127
46541,note_off,104,0,0,,2,,,74,127
46542,note_on,1,0,0,,6,,,78,127
46646,note_off,104,0,0,,6,,,78,127
46646,note_off,0,0,0,,6,,,66,127
46647,note_on,1,0,0,,1,,,61,127
46647,note_on,0,0,0,,4,,,76,127
46751,note_off,104,0,0,,4,,,76,127
46752,note_on,1,0,0,,7,,,79,127
46856,note_off,104,0,0,,7,,,79,127
46856,note_off,0,0,0,,1,,,61,127
46857,note_on,1,0,0,,2,,,62,127
46857,note_on,0,0,0,,6,,,78,127
46961,note_off,104,0,0,,6,,,78,127
46962,note_on,1,0,0,,10,,,81,127
47066,note_off,104,0,0,,10,,,81,127
47066,note_off,0,0,0,,2,,,62,127
47067,note_on,1,0,0,,7,,,55,127
47067,note_on,0,0,0,,12,,,83,127
47171,note_off,104,0,0,,12,,,83,127
47172,note_on,1,0,0,,2,,,74,127
47276,note_off,104,0,0,,7,,,55,127
47277,note_on,1,0,0,,10,,,57,127
47325,note_off,48,0,0,,2,,,74,127
47329,note_on,4,0,0,,1,,,73,127
47380,note_off,51,0,0,,1,,,73,127
47381,note_on,1,0,0,,2,,,74,127
47432,note_off,51,0,0,,2,,,74,127
47433,note_on,1,0,0,,1,,,73,127
47484,note_off,51,0,0,,1,,,73,127
47485,note_on,1,0,0,,10,,,45,127
47485,note_on,0,0,0,,2,,,74,127
47536,note_off,51,0,0,,2,,,74,127
47537,note_on,1,0,0,,1,,,73,127
47588,note_off,51,0,0,,1,,,73,127
47589,note_on,1,0,0,,12,,,71,127
47693,note_off,104,0,0,,12,,,71,127
47694,note_on,1,0,0,,10,,,69,127
47890,note_off,196,0,0,,10,,,69,127
47902,note_off,12,0,0,,10,,,45,127
47902,note_off,0,0,0,,10,,,57,127
47903,note_on,1,0,0,,10,,,69,127
48008,note_on,105,0,0,,3,,,75,127
48112,note_off,104,0,0,,3,,,75,127
48112,note_off,0,0,0,,10,,,69,127
48113,note_on,1,0,0,,7,,,67,127
48113,note_on,0,0,0,,4,,,76,127
48217,note_off,104,0,0,,4,,,76,127
48218,note_on,1,0,0,,3,,,75,127
48322,note_off,104,0,0,,3,,,75,127
48322,note_off,0,0,0,,7,,,67,127
48323,note_on,1,0,0,,6,,,66,127
48323,note_on,0,0,0,,4,,,76,127
48427,note_off,104,0,0,,4,,,76,127
48428,note_on,1,0,0,,6,,,78,127
48532,note_off,104,0,0,,6,,,66,127
48533,note_on,1,0,0,,4,,,64,127
48637,note_off,104,0,0,,6,,,78,127
48638,note_on,1,0,0,,6,,,78,127
48742,note_off,104,0,0,,6,,,78,127
48743,note_on,1,0,0,,4,,,52,127
48743,note_on,0,0,0,,7,,,79,127
48847,note_off,104,0,0,,7,,,79,127
48848,note_off,1,0,0,,4,,,64,127
48848,note_on,0,0,0,,6,,,78,127
48952,note_off,104,0,0,,6,,,78,127
48952,note_off,0,0,0,,4,,,52,127
48953,note_on,1,0,0,,2,,,62,127
48953,note_on,0,0,0,,7,,,79,127
49057,note_off,104,0,0,,7,,,79,127
49058,note_on,1,0,0,,10,,,81,127
49162,note_off,104,0,0,,2,,,62,127
49163,note_on,1,0,0,,1,,,61,127
49267,note_off,104,0,0,,10,,,81,127
49268,note_on,1,0,0,,12,,,83,127
49372,note_off,104,0,0,,12,,,83,127
49372,note_off,0,0,0,,1,,,61,127
49373,note_on,1,0,0,,10,,,57,127
49373,note_on,0,0,0,,10,,,81,127
49477,note_off,104,0,0,,10,,,81,127
49478,note_on,1,0,0,,7,,,79,127
49582,note_off,104,0,0,,7,,,79,127
49582,note_off,0,0,0,,10,,,57,127
49583,note_on,1,0,0,,1,,,61,127
49583,note_on,0,0,0,,6,,,78,127
49687,note_off,104,0,0,,6,,,78,127
49688,note_on,1,0,0,,4,,,76,127
49792,note_off,104,0,0,,4,,,76,127
49792,note_off,0,0,0,,1,,,61,127
49793,note_on,1,0,0,,2,,,50,127
49793,note_on,0,0,0,,6,,,78,127
49897,note_off,104,0,0,,6,,,78,127
49898,note_on,1,0,0,,1,,,73,127
50002,note_off,104,0,0,,1,,,73,127
50002,note_off,0,0,0,,2,,,50,127
50003,note_on,1,0,0,,2,,,62,127
50003,note_on,0,0,0,,2,,,74,127
50107,note_off,104,0,0,,2,,,74,127
50108,note_on,1,0,0,,1,,,73,127
50212,note_off,104,0,0,,1,,,73,127
50212,note_off,0,0,0,,2,,,62,127
50213,note_on,1,0,0,,1,,,61,127
50213,note_on,0,0,0,,2,,,74,127
50317,note_off,104,0,0,,2,,,74,127
50318,note_on,1,0,0,,4,,,76,127
50422,note_off,104,0,0,,1,,,61,127
50423,note_on,1,0,0,,12,,,59,127
50515,note_off,92,0,0,,4,,,76,127
50528,note_on,13,0,0,,4,,,76,127
50632,note_off,104,0,0,,4,,,76,127
50632,note_off,0,0,0,,12,,,59,127
50633,note_on,1,0,0,,10,,,57,127
50633,note_on,0,0,0,,6,,,78,127
50737,note_off,104,0,0,,6,,,78,127
50738,note_on,1,0,0,,4,,,76,127
50842,note_off,104,0,0,,4,,,76,127
50842,note_off,0,0,0,,10,,,57,127
50843,note_on,1,0,0,,7,,,55,127
50843,note_on,0,0,0,,6,,,78,127
50947,note_off,104,0,0,,6,,,78,127
50948,note_on,1,0,0,,7,,,79,127
51052,note_off,104,0,0,,7,,,55,127
51053,note_on,1,0,0,,6,,,54,127
51145,note_off,92,0,0,,7,,,79,127
51158,note_on,13,0,0,,10,,,81,127
51262,note_off,104,0,0,,10,,,81,127
51263,note_on,1,0,0,,2,,,62,127
51263,note_on,0,0,0,,12,,,83,127
51367,note_off,104,0,0,,12,,,83,127
51368,note_on,1,0,0,,10,,,81,127
51468,note_off,100,0,0,,6,,,54,127
51471,note_off,3,0,0,,10,,,81,127
51471,note_off,0,0,0,,2,,,62,127
51472,note_on,1,0,0,,4,,,52,127
51472,note_on,0,0,0,,12,,,83,127
51576,note_off,104,0,0,,12,,,83,127
51577,note_on,1,0,0,,1,,,85,127
51681,note_off,104,0,0,,1,,,85,127
51681,note_off,0,0,0,,4,,,52,127
51682,note_on,1,0,0,,2,,,50,127
51682,note_on,0,0,0,,2,,,86,127
51786,note_off,104,0,0,,2,,,86,127
51787,note_on,1,0,0,,10,,,81,127
51891,note_off,104,0,0,,10,,,81,127
51891,note_off,0,0,0,,2,,,50,127
51892,note_on,1,0,0,,4,,,52,127
51892,note_on,0,0,0,,6,,,78,127
51996,note_off,104,0,0,,6,,,78,127
51997,note_on,1,0,0,,7,,,79,127
52101,note_off,104,0,0,,7,,,79,127
52101,note_off,0,0,0,,4,,,52,127
52102,note_on,1,0,0,,6,,,54,127
52102,note_on,0,0,0,,10,,,81,127
52206,note_off,104,0,0,,10,,,81,127
52207,note_on,1,0,0,,6,,,78,127
52311,note_off,104,0,0,,6,,,78,127
52311,note_off,0,0,0,,6,,,54,127
52312,note_on,1,0,0,,7,,,55,127
52312,note_on,0,0,0,,12,,,83,127
52416,note_off,104,0,0,,12,,,83,127
52417,note_on,1,0,0,,7,,,79,127
52521,note_off,104,0,0,,7,,,79,127
52521,note_off,0,0,0,,7,,,55,127
52522,note_on,1,0,0,,10,,,57,127
52522,note_on,0,0,0,,6,,,78,127
52626,note_off,104,0,0,,6,,,78,127
52627,note_on,1,0,0,,4,,,76,127
52731,note_off,104,0,0,,4,,,76,127
52732,note_on,1,0,0,,10,,,45,127
52732,note_on,0,0,0,,2,,,74,127
52836,note_off,104,0,0,,2,,,74,127
52837,note_on,1,0,0,,4,,,76,127
52941,note_off,104,0,0,,4,,,76,127
52941,note_off,0,0,0,,10,,,45,127
52941,note_off,0,0,0,,10,,,57,127
52942,note_on,1,0,0,,2,,,50,127
52942,note_on,0,0,0,,6,,,78,127
53046,note_off,104,0,0,,6,,,78,127
53047,note_on,1,0,0,,1,,,73,127
53151,note_off,104,0,0,,1,,,73,127
53151,note_off,0,0,0,,2,,,50,127
53152,note_on,1,0,0,,2,,,62,127
53152,note_on,0,0,0,,2,,,74,127
53256,note_off,104,0,0,,2,,,74,127
53257,note_on,1,0,0,,1,,,73,127
53361,note_off,104,0,0,,1,,,73,127
53361,note_off,0,0,0,,2,,,62,127
53362,note_on,1,0,0,,1,,,61,127
53362,note_on,0,0,0,,2,,,74,127
53466,note_off,104,0,0,,2,,,74,127
53467,note_on,1,0,0,,4,,,76,127
53571,note_off,104,0,0,,1,,,61,127
53572,note_on,1,0,0,,12,,,59,127
53624,note_off,52,0,0,,4,,,76,127
53676,note_on,52,0,0,,4,,,76,127
53780,note_off,104,0,0,,4,,,76,127
53780,note_off,0,0,0,,12,,,59,127
53781,note_on,1,0,0,,10,,,57,127
53781,note_on,0,0,0,,6,,,78,127
53885,note_off,104,0,0,,6,,,78,127
53886,note_on,1,0,0,,4,,,76,127
53990,note_off,104,0,0,,4,,,76,127
53990,note_off,0,0,0,,10,,,57,127
53991,note_on,1,0,0,,7,,,55,127
53991,note_on,0,0,0,,6,,,78,127
54095,note_off,104,0,0,,6,,,78,127
54096,note_on,1,0,0,,7,,,79,127
54200,note_off,104,0,0,,7,,,55,127
54201,note_on,1,0,0,,6,,,54,127
54253,note_off,52,0,0,,7,,,79,127
54305,note_on,52,0,0,,10,,,81,127
54409,note_off,104,0,0,,10,,,81,127
54410,note_on,1,0,0,,2,,,62,127
54410,note_on,0,0,0,,12,,,83,127
54514,note_off,104,0,0,,12,,,83,127
54515,note_on,1,0,0,,10,,,81,127
54615,note_off,100,0,0,,6,,,54,127
54618,note_off,3,0,0,,10,,,81,127
54618,note_off,0,0,0,,2,,,62,127
54619,note_on,1,0,0,,4,,,52,127
54619,note_on,0,0,0,,12,,,83,127
54723,note_off,104,0,0,,12,,,83,127
54724,note_on,1,0,0,,1,,,85,127
54828,note_off,104,0,0,,1,,,85,127
54828,note_off,0,0,0,,4,,,52,127
54829,note_on,1,0,0,,2,,,50,127
54829,note_on,0,0,0,,2,,,86,127
54933,note_off,104,0,0,,2,,,86,127
54934,note_on,1,0,0,,10,,,81,127
55038,note_off,104,0,0,,10,,,81,127
55038,note_off,0,0,0,,2,,,50,127
55039,note_on,1,0,0,,4,,,52,127
55039,note_on,0,0,0,,6,,,78,127
55143,note_off,104,0,0,,6,,,78,127
55144,note_on,1,0,0,,7,,,79,127
55248,note_off,104,0,0,,7,,,79,127
55248,note_off,0,0,0,,4,,,52,127
55249,note_on,1,0,0,,6,,,54,127
55249,note_on,0,0,0,,10,,,81,127
55353,note_off,104,0,0,,10,,,81,127
55354,note_on,1,0,0,,6,,,78,127
55458,note_off,104,0,0,,6,,,78,127
55458,note_off,0,0,0,,6,,,54,127
55459,note_on,1,0,0,,7,,,55,127
55459,note_on,0,0,0,,12,,,83,127
55563,note_off,104,0,0,,12,,,83,127
55564,note_on,1,0,0,,7,,,79,127
55668,note_off,104,0,0,,7,,,79,127
55668,note_off,0,0,0,,7,,,55,127
55669,note_on,1,0,0,,10,,,57,127
55669,note_on,0,0,0,,6,,,78,127
55773,note_off,104,0,0,,6,,,78,127
55774,note_on,1,0,0,,4,,,76,127
55878,note_off,104,0,0,,4,,,76,127
55879,note_on,1,0,0,,10,,,45,127
55879,note_on,0,0,0,,2,,,74,127
55983,note_off,104,0,0,,2,,,74,127
55984,note_on,1,0,0,,4,,,76,127
56088,note_off,104,0,0,,4,,,76,127
56088,note_off,0,0,0,,10,,,45,127
56088,note_off,0,0,0,,10,,,57,127
56089,note_on,1,0,0,,2,,,50,127
56089,note_on,0,0,0,,6,,,78,127
56193,note_off,104,0,0,,6,,,78,127
56194,note_on,1,0,0,,4,,,76,127
56298,note_off,104,0,0,,4,,,76,127
56298,note_off,0,0,0,,2,,,50,127
56299,note_on,1,0,0,,4,,,52,127
56299,note_on,0,0,0,,2,,,74,127
56403,note_off,104,0,0,,2,,,74,127
56404,note_on,1,0,0,,1,,,73,127
56508,note_off,104,0,0,,1,,,73,127
56508,note_off,0,0,0,,4,,,52,127
56509,note_on,1,0,0,,6,,,54,127
56509,note_on,0,0,0,,2,,,74,127
56613,note_off,104,0,0,,2,,,74,127
56614,note_on,1,0,0,,10,,,69,127
56718,note_off,104,0,0,,10,,,69,127
56718,note_off,0,0,0,,6,,,54,127
56719,note_on,1,0,0,,7,,,55,127
56719,note_on,0,0,0,,4,,,76,127
56823,note_off,104,0,0,,4,,,76,127
56824,note_on,1,0,0,,1,,,73,127
56928,note_off,104,0,0,,1,,,73,127
56928,note_off,0,0,0,,7,,,55,127
56929,note_on,1,0,0,,10,,,57,127
56929,note_on,0,0,0,,7,,,79,127
57033,note_off,104,0,0,,7,,,79,127
57034,note_on,1,0,0,,4,,,76,127
57138,note_off,104,0,0,,4,,,76,127
57139,note_on,1,0,0,,10,,,45,127
57139,note_on,0,0,0,,10,,,81,127
57243,note_off,104,0,0,,10,,,81,127
57244,note_on,1,0,0,,7,,,79,127
57348,note_off,104,0,0,,7,,,79,127
57348,note_off,0,0,0,,10,,,45,127
57348,note_off,0,0,0,,10,,,57,127
57349,note_on,1,0,0,,2,,,50,127
57349,note_on,0,0,0,,6,,,78,127
57453,note_off,104,0,0,,6,,,78,127
57454,note_on,1,0,0,,4,,,76,127
57558,note_off,104,0,0,,4,,,76,127
57558,note_off,0,0,0,,2,,,50,127
57559,note_on,1,0,0,,4,,,52,127
57559,note_on,0,0,0,,2,,,74,127
57663,note_off,104,0,0,,2,,,74,127
57664,note_on,1,0,0,,1,,,73,127
57768,note_off,104,0,0,,1,,,73,127
57768,note_off,0,0,0,,4,,,52,127
57769,note_on,1,0,0,,6,,,54,127
57769,note_on,0,0,0,,2,,,74,127
57874,note_on,105,0,0,,10,,,69,127
57977,note_off,103,0,0,,2,,,74,127
57978,note_off,1,0,0,,10,,,69,127
57978,note_off,0,0,0,,6,,,54,127
57979,note_on,1,0,0,,7,,,55,127
57979,note_on,0,0,0,,4,,,76,127
58084,note_on,105,0,0,,1,,,73,127
58187,note_off,103,0,0,,4,,,76,127
58188,note_off,1,0,0,,1,,,73,127
58188,note_off,0,0,0,,7,,,55,127
58189,note_on,1,0,0,,10,,,57,127
58189,note_on,0,0,0,,7,,,79,127
58294,note_on,105,0,0,,4,,,76,127
58397,note_off,103,0,0,,7,,,79,127
58398,note_off,1,0,0,,4,,,76,127
58399,note_on,1,0,0,,10,,,45,127
58399,note_on,0,0,0,,10,,,81,127
58503,note_off,104,0,0,,10,,,81,127
58504,note_on,1,0,0,,7,,,79,127
58608,note_off,104,0,0,,7,,,79,127
58608,note_off,0,0,0,,10,,,45,127
58608,note_off,0,0,0,,10,,,57,127
58613,note_on,5,0,0,,2,,,50,127
58613,note_on,0,0,0,,6,,,78,127
58717,note_off,104,0,0,,6,,,78,127
58719,note_on,2,0,0,,4,,,76,127
58822,note_off,103,0,0,,2,,,50,127
58823,note_off,1,0,0,,4,,,76,127
58824,note_on,1,0,0,,4,,,52,127
58824,note_on,0,0,0,,2,,,74,127
58928,note_off,104,0,0,,2,,,74,127
58929,note_on,1,0,0,,1,,,73,127
59033,note_off,104,0,0,,1,,,73,127
59033,note_off,0,0,0,,4,,,52,127
59043,note_on,10,0,0,,2,,,86,127
59043,note_on,0,0,0,,6,,,54,127
59147,note_off,104,0,0,,2,,,86,127
59148,note_on,1,0,0,,10,,,81,127
59252,note_off,104,0,0,,10,,,81,127
59252,note_off,0,0,0,,6,,,54,127
59253,note_on,1,0,0,,12,,,83,127
59253,note_on,0,0,0,,7,,,55,127
59357,note_off,104,0,0,,12,,,83,127
59358,note_on,1,0,0,,7,,,79,127
59462,note_off,104,0,0,,7,,,79,127
59462,note_off,0,0,0,,7,,,55,127
59463,note_on,1,0,0,,6,,,78,127
59463,note_on,0,0,0,,10,,,57,127
59567,note_off,104,0,0,,6,,,78,127
59568,note_on,1,0,0,,4,,,76,127
59672,note_off,104,0,0,,4,,,76,127
59673,note_on,1,0,0,,2,,,74,127
59673,note_on,0,0,0,,10,,,45,127
59777,note_off,104,0,0,,2,,,74,127
59778,note_on,1,0,0,,4,,,76,127
59882,note_off,104,0,0,,4,,,76,127
59882,note_off,0,0,0,,10,,,45,127
59882,note_off,0,0,0,,10,,,57,127
59883,note_on,1,0,0,,6,,,78,127
59883,note_on,0,0,0,,2,,,50,127
59987,note_off,104,0,0,,6,,,78,127
59988,note_on,1,0,0,,4,,,76,127
60092,note_off,104,0,0,,4,,,76,127
60092,note_off,0,0,0,,2,,,50,127
60093,note_on,1,0,0,,2,,,74,127
60093,note_on,0,0,0,,4,,,52,127
60197,note_off,104,0,0,,2,,,74,127
60198,note_on,1,0,0,,1,,,73,127
60302,note_off,104,0,0,,1,,,73,127
60302,note_off,0,0,0,,4,,,52,127
60302,note_on,0,0,0,,2,,,74,127
60302,note_on,0,0,0,,6,,,54,127
60406,note_off,104,0,0,,2,,,74,127
60407,note_on,1,0,0,,10,,,69,127
60511,note_off,104,0,0,,10,,,69,127
60511,note_off,0,0,0,,6,,,54,127
60516,note_on,5,0,0,,7,,,55,127
60516,note_on,0,0,0,,12,,,71,127
60620,note_off,104,0,0,,12,,,71,127
60625,note_on,5,0,0,,7,,,67,127
60725,note_off,100,0,0,,7,,,55,127
60728,note_off,3,0,0,,7,,,67,127
60733,note_on,5,0,0,,10,,,57,127
60733,note_on,0,0,0,,6,,,66,127
60837,note_off,104,0,0,,6,,,66,127
60841,note_on,4,0,0,,4,,,64,127
60945,note_off,104,0,0,,4,,,64,127
60950,note_on,5,0,0,,10,,,45,127
60950,note_on,0,0,0,,2,,,62,127
61054,note_off,104,0,0,,2,,,62,127
61062,note_on,8,0,0,,1,,,61,127
61155,note_off,93,0,0,,10,,,57,127
61160,note_off,5,0,0,,10,,,45,127
61175,note_off,15,0,0,,1,,,61,127
61196,note_on,21,0,0,,2,,,38,127
61196,note_on,0,0,0,,2,,,62,127
63433,note_off,2237,0,0,,2,,,62,127
63433,note_off,0,0,0,,2,,,38,127
67584,end_of_track,4151,1,0,,,,,,
