tick,type,time,meta,track,program,channel,pitch,tempo,note,velocity
0,copyright,0,1,0,,,,,,
0,program_change,0,0,0,6,0,,,,
0,pitchwheel,0,0,0,,0,0,,,
0,program_change,0,0,0,6,1,,,,
0,pitchwheel,0,0,0,,1,-590,,,
0,program_change,0,0,0,6,2,,,,
0,pitchwheel,0,0,0,,2,-272,,,
0,program_change,0,0,0,6,3,,,,
0,pitchwheel,0,0,0,,3,-353,,,
0,program_change,0,0,0,6,4,,,,
0,pitchwheel,0,0,0,,4,-560,,,
0,program_change,0,0,0,6,5,,,,
0,pitchwheel,0,0,0,,5,-80,,,
0,program_change,0,0,0,6,6,,,,
0,pitchwheel,0,0,0,,6,-625,,,
0,program_change,0,0,0,6,7,,,,
0,pitchwheel,0,0,0,,7,-130,,,
0,program_change,0,0,0,6,8,,,,
0,pitchwheel,0,0,0,,8,-512,,,
0,program_change,0,0,0,6,10,,,,
0,pitchwheel,0,0,0,,10,-464,,,
0,program_change,0,0,0,6,11,,,,
0,pitchwheel,0,0,0,,11,-208,,,
0,program_change,0,0,0,6,12,,,,
0,pitchwheel,0,0,0,,12,-553,,,
0,set_tempo,0,1,0,,,,500000,,
105,note_on,105,0,0,,11,,,82,127
105,note_on,0,0,0,,2,,,74,127
105,note_on,0,0,0,,7,,,79,127
105,note_on,0,0,0,,11,,,70,127
105,note_on,0,0,0,,7,,,55,127
105,note_on,0,0,0,,2,,,50,127
105,note_on,0,0,0,,7,,,43,127
419,note_off,314,0,0,,7,,,43,127
419,note_off,0,0,0,,2,,,50,127
419,note_off,0,0,0,,7,,,55,127
419,note_off,0,0,0,,11,,,70,127
419,note_off,0,0,0,,7,,,79,127
419,note_off,0,0,0,,2,,,74,127
419,note_off,0,0,0,,11,,,82,127
890,note_on,471,0,0,,2,,,38,127
890,note_on,0,0,0,,2,,,50,127
890,note_on,0,0,0,,10,,,45,127
890,note_on,0,0,0,,6,,,78,127
890,note_on,0,0,0,,2,,,74,127
890,note_on,0,0,0,,0,,,72,127
890,note_on,0,0,0,,10,,,81,127
890,note_on,0,0,0,,10,,,69,127
1204,note_off,314,0,0,,10,,,69,127
1204,note_off,0,0,0,,10,,,81,127
1204,note_off,0,0,0,,0,,,72,127
1204,note_off,0,0,0,,2,,,74,127
1204,note_off,0,0,0,,6,,,78,127
1204,note_off,0,0,0,,10,,,45,127
1204,note_off,0,0,0,,2,,,50,127
1204,note_off,0,0,0,,2,,,38,127
1675,note_on,471,0,0,,7,,,43,127
1675,note_on,0,0,0,,2,,,50,127
1675,note_on,0,0,0,,7,,,55,127
1675,note_on,0,0,0,,7,,,67,127
1675,note_on,0,0,0,,2,,,74,127
1675,note_on,0,0,0,,11,,,70,127
1675,note_on,0,0,0,,7,,,79,127
1814,note_off,139,0,0,,7,,,79,127
1814,note_off,0,0,0,,2,,,74,127
1815,note_on,1,0,0,,2,,,74,127
1937,note_off,122,0,0,,11,,,70,127
1953,note_off,16,0,0,,2,,,74,127
1954,note_on,1,0,0,,11,,,70,127
1989,note_off,35,0,0,,7,,,67,127
1989,note_off,0,0,0,,7,,,55,127
1989,note_off,0,0,0,,2,,,50,127
1989,note_off,0,0,0,,7,,,43,127
2093,note_off,104,0,0,,11,,,70,127
2094,note_on,1,0,0,,7,,,67,127
2233,note_off,139,0,0,,7,,,67,127
2234,note_on,1,0,0,,2,,,62,127
2373,note_off,139,0,0,,2,,,62,127
2374,note_on,1,0,0,,11,,,58,127
2513,note_off,139,0,0,,11,,,58,127
2514,note_on,1,0,0,,7,,,55,127
2653,note_off,139,0,0,,7,,,55,127
2654,note_on,1,0,0,,2,,,50,127
2793,note_off,139,0,0,,2,,,50,127
2794,note_on,1,0,0,,11,,,46,127
2933,note_off,139,0,0,,11,,,46,127
2934,note_on,1,0,0,,7,,,43,127
2934,note_on,0,0,0,,2,,,74,127
3073,note_off,139,0,0,,2,,,74,127
3074,note_on,1,0,0,,3,,,75,127
3213,note_off,139,0,0,,3,,,75,127
3214,note_on,1,0,0,,5,,,77,127
3353,note_off,139,0,0,,5,,,77,127
3353,note_off,0,0,0,,7,,,43,127
3354,note_on,1,0,0,,0,,,48,127
3354,note_on,0,0,0,,3,,,75,127
3354,note_on,0,0,0,,5,,,77,127
3493,note_off,139,0,0,,5,,,77,127
3493,note_off,0,0,0,,3,,,75,127
3494,note_on,1,0,0,,2,,,74,127
3633,note_off,139,0,0,,2,,,74,127
3634,note_on,1,0,0,,0,,,72,127
3773,note_off,139,0,0,,0,,,72,127
3774,note_on,1,0,0,,0,,,60,127
3774,note_on,0,0,0,,2,,,86,127
3774,note_on,0,0,0,,0,,,84,127
3913,note_off,139,0,0,,0,,,84,127
3913,note_off,0,0,0,,2,,,86,127
3914,note_on,1,0,0,,11,,,82,127
4053,note_off,139,0,0,,11,,,82,127
4054,note_on,1,0,0,,10,,,81,127
4193,note_off,139,0,0,,10,,,81,127
4193,note_off,0,0,0,,0,,,60,127
4193,note_off,0,0,0,,0,,,48,127
4194,note_on,1,0,0,,2,,,50,127
4194,note_on,0,0,0,,7,,,55,127
4194,note_on,0,0,0,,11,,,58,127
4194,note_on,0,0,0,,2,,,62,127
4194,note_on,0,0,0,,7,,,79,127
4612,note_off,418,0,0,,7,,,79,127
4612,note_off,0,0,0,,2,,,62,127
4612,note_off,0,0,0,,11,,,58,127
4612,note_off,0,0,0,,7,,,55,127
4612,note_off,0,0,0,,2,,,50,127
4613,note_on,1,0,0,,2,,,50,127
4613,note_on,0,0,0,,10,,,57,127
4613,note_on,0,0,0,,0,,,60,127
4613,note_on,0,0,0,,7,,,79,127
4682,note_off,69,0,0,,7,,,79,127
4683,note_on,1,0,0,,6,,,78,127
4752,note_off,69,0,0,,6,,,78,127
4753,note_on,1,0,0,,7,,,79,127
4822,note_off,69,0,0,,7,,,79,127
4823,note_on,1,0,0,,6,,,78,127
4892,note_off,69,0,0,,6,,,78,127
4893,note_on,1,0,0,,4,,,76,127
4962,note_off,69,0,0,,4,,,76,127
4963,note_on,1,0,0,,6,,,78,127
5032,note_off,69,0,0,,6,,,78,127
5032,note_off,0,0,0,,0,,,60,127
5032,note_off,0,0,0,,10,,,57,127
5032,note_off,0,0,0,,2,,,50,127
5033,note_on,1,0,0,,7,,,43,127
5033,note_on,0,0,0,,2,,,50,127
5033,note_on,0,0,0,,7,,,55,127
5033,note_on,0,0,0,,7,,,79,127
5172,note_off,139,0,0,,7,,,79,127
5173,note_on,1,0,0,,2,,,74,127
5312,note_off,139,0,0,,2,,,74,127
5313,note_on,1,0,0,,11,,,70,127
5348,note_off,35,0,0,,7,,,55,127
5348,note_off,0,0,0,,2,,,50,127
5348,note_off,0,0,0,,7,,,43,127
5452,note_off,104,0,0,,11,,,70,127
5453,note_on,1,0,0,,7,,,67,127
5592,note_off,139,0,0,,7,,,67,127
5593,note_on,1,0,0,,2,,,62,127
5732,note_off,139,0,0,,2,,,62,127
5733,note_on,1,0,0,,11,,,58,127
5872,note_off,139,0,0,,11,,,58,127
5873,note_on,1,0,0,,7,,,55,127
6012,note_off,139,0,0,,7,,,55,127
6013,note_on,1,0,0,,2,,,50,127
6152,note_off,139,0,0,,2,,,50,127
6153,note_on,1,0,0,,11,,,46,127
6292,note_off,139,0,0,,11,,,46,127
6293,note_on,1,0,0,,7,,,43,127
6293,note_on,0,0,0,,5,,,77,127
6293,note_on,0,0,0,,7,,,79,127
6432,note_off,139,0,0,,7,,,79,127
6432,note_off,0,0,0,,5,,,77,127
6433,note_on,1,0,0,,3,,,75,127
6572,note_off,139,0,0,,3,,,75,127
6573,note_on,1,0,0,,2,,,74,127
6712,note_off,139,0,0,,2,,,74,127
6712,note_off,0,0,0,,7,,,43,127
6713,note_on,1,0,0,,0,,,48,127
6713,note_on,0,0,0,,3,,,75,127
6713,note_on,0,0,0,,5,,,77,127
6852,note_off,139,0,0,,5,,,77,127
6852,note_off,0,0,0,,3,,,75,127
6853,note_on,1,0,0,,2,,,74,127
6992,note_off,139,0,0,,2,,,74,127
6993,note_on,1,0,0,,0,,,72,127
7132,note_off,139,0,0,,0,,,72,127
7133,note_on,1,0,0,,0,,,60,127
7133,note_on,0,0,0,,2,,,86,127
7133,note_on,0,0,0,,0,,,84,127
7272,note_off,139,0,0,,0,,,84,127
7272,note_off,0,0,0,,2,,,86,127
7273,note_on,1,0,0,,11,,,82,127
7412,note_off,139,0,0,,11,,,82,127
7413,note_on,1,0,0,,10,,,81,127
7552,note_off,139,0,0,,10,,,81,127
7552,note_off,0,0,0,,0,,,60,127
7552,note_off,0,0,0,,0,,,48,127
7553,note_on,1,0,0,,11,,,58,127
7553,note_on,0,0,0,,2,,,50,127
7553,note_on,0,0,0,,2,,,62,127
7553,note_on,0,0,0,,7,,,55,127
7553,note_on,0,0,0,,7,,,79,127
7971,note_off,418,0,0,,7,,,79,127
7971,note_off,0,0,0,,7,,,55,127
7971,note_off,0,0,0,,2,,,62,127
7971,note_off,0,0,0,,2,,,50,127
7971,note_off,0,0,0,,11,,,58,127
7972,note_on,1,0,0,,10,,,57,127
7972,note_on,0,0,0,,2,,,50,127
7972,note_on,0,0,0,,0,,,60,127
7972,note_on,0,0,0,,7,,,79,127
8041,note_off,69,0,0,,7,,,79,127
8042,note_on,1,0,0,,6,,,78,127
8111,note_off,69,0,0,,6,,,78,127
8112,note_on,1,0,0,,7,,,79,127
8181,note_off,69,0,0,,7,,,79,127
8182,note_on,1,0,0,,6,,,78,127
8251,note_off,69,0,0,,6,,,78,127
8252,note_on,1,0,0,,4,,,76,127
8321,note_off,69,0,0,,4,,,76,127
8322,note_on,1,0,0,,6,,,78,127
8391,note_off,69,0,0,,6,,,78,127
8391,note_off,0,0,0,,0,,,60,127
8391,note_off,0,0,0,,2,,,50,127
8391,note_off,0,0,0,,10,,,57,127
8392,note_on,1,0,0,,7,,,43,127
8392,note_on,0,0,0,,7,,,79,127
8531,note_off,139,0,0,,7,,,43,127
8532,note_on,1,0,0,,11,,,46,127
8671,note_off,139,0,0,,11,,,46,127
8672,note_on,1,0,0,,2,,,50,127
8811,note_off,139,0,0,,2,,,50,127
8812,note_on,1,0,0,,7,,,55,127
8951,note_off,139,0,0,,7,,,55,127
8952,note_on,1,0,0,,11,,,58,127
9091,note_off,139,0,0,,11,,,58,127
9092,note_on,1,0,0,,2,,,62,127
9231,note_off,139,0,0,,2,,,62,127
9232,note_on,1,0,0,,7,,,67,127
9371,note_off,139,0,0,,7,,,67,127
9372,note_on,1,0,0,,11,,,70,127
9511,note_off,139,0,0,,11,,,70,127
9512,note_on,1,0,0,,2,,,74,127
9651,note_off,139,0,0,,2,,,74,127
9652,note_off,1,0,0,,7,,,79,127
9652,note_on,0,0,0,,0,,,72,127
9652,note_on,0,0,0,,11,,,70,127
9791,note_off,139,0,0,,11,,,70,127
9791,note_off,0,0,0,,0,,,72,127
9792,note_on,1,0,0,,10,,,69,127
9931,note_off,139,0,0,,10,,,69,127
9932,note_on,1,0,0,,7,,,67,127
10071,note_off,139,0,0,,7,,,67,127
10072,note_on,1,0,0,,2,,,38,127
10212,note_on,140,0,0,,3,,,75,127
10351,note_off,139,0,0,,3,,,75,127
10352,note_on,1,0,0,,2,,,74,127
10491,note_off,139,0,0,,2,,,74,127
10492,note_on,1,0,0,,0,,,72,127
10631,note_off,139,0,0,,0,,,72,127
10632,note_on,1,0,0,,10,,,81,127
10771,note_off,139,0,0,,10,,,81,127
10772,note_on,1,0,0,,7,,,79,127
10911,note_off,139,0,0,,7,,,79,127
10912,note_on,1,0,0,,6,,,78,127
11051,note_off,139,0,0,,6,,,78,127
11052,note_on,1,0,0,,0,,,84,127
11122,note_off,70,0,0,,2,,,38,127
11191,note_off,69,0,0,,0,,,84,127
11192,note_on,1,0,0,,11,,,82,127
11331,note_off,139,0,0,,11,,,82,127
11332,note_on,1,0,0,,2,,,50,127
11332,note_on,0,0,0,,10,,,81,127
11471,note_off,139,0,0,,10,,,81,127
11472,note_on,1,0,0,,7,,,79,127
11611,note_off,139,0,0,,7,,,79,127
11612,note_on,1,0,0,,6,,,78,127
11751,note_off,139,0,0,,6,,,78,127
11751,note_off,0,0,0,,2,,,50,127
11752,note_on,1,0,0,,7,,,43,127
11752,note_on,0,0,0,,7,,,79,127
11891,note_off,139,0,0,,7,,,43,127
11892,note_on,1,0,0,,11,,,46,127
12031,note_off,139,0,0,,11,,,46,127
12032,note_on,1,0,0,,2,,,50,127
12171,note_off,139,0,0,,2,,,50,127
12172,note_on,1,0,0,,7,,,55,127
12311,note_off,139,0,0,,7,,,55,127
12312,note_on,1,0,0,,11,,,58,127
12451,note_off,139,0,0,,11,,,58,127
12452,note_on,1,0,0,,2,,,62,127
12591,note_off,139,0,0,,2,,,62,127
12592,note_on,1,0,0,,7,,,67,127
12731,note_off,139,0,0,,7,,,67,127
12732,note_on,1,0,0,,11,,,70,127
12871,note_off,139,0,0,,11,,,70,127
12872,note_on,1,0,0,,2,,,74,127
13011,note_off,139,0,0,,2,,,74,127
13012,note_off,1,0,0,,7,,,79,127
13012,note_on,0,0,0,,11,,,70,127
13012,note_on,0,0,0,,0,,,72,127
13151,note_off,139,0,0,,0,,,72,127
13151,note_off,0,0,0,,11,,,70,127
13152,note_on,1,0,0,,10,,,69,127
13291,note_off,139,0,0,,10,,,69,127
13292,note_on,1,0,0,,7,,,67,127
13431,note_off,139,0,0,,7,,,67,127
13432,note_on,1,0,0,,2,,,38,127
13572,note_on,140,0,0,,3,,,75,127
13711,note_off,139,0,0,,3,,,75,127
13712,note_on,1,0,0,,2,,,74,127
13851,note_off,139,0,0,,2,,,74,127
13852,note_on,1,0,0,,0,,,72,127
13991,note_off,139,0,0,,0,,,72,127
13992,note_on,1,0,0,,10,,,81,127
14131,note_off,139,0,0,,10,,,81,127
14132,note_on,1,0,0,,7,,,79,127
14271,note_off,139,0,0,,7,,,79,127
14272,note_on,1,0,0,,6,,,78,127
14411,note_off,139,0,0,,6,,,78,127
14412,note_on,1,0,0,,0,,,84,127
14551,note_off,139,0,0,,0,,,84,127
14552,note_on,1,0,0,,11,,,82,127
14691,note_off,139,0,0,,11,,,82,127
14691,note_off,0,0,0,,2,,,38,127
14692,note_on,1,0,0,,2,,,50,127
14692,note_on,0,0,0,,10,,,81,127
14831,note_off,139,0,0,,10,,,81,127
14832,note_on,1,0,0,,7,,,79,127
14971,note_off,139,0,0,,7,,,79,127
14972,note_on,1,0,0,,6,,,78,127
15111,note_off,139,0,0,,6,,,78,127
15111,note_off,0,0,0,,2,,,50,127
15112,note_on,1,0,0,,7,,,43,127
15112,note_on,0,0,0,,7,,,55,127
15112,note_on,0,0,0,,0,,,84,127
15112,note_on,0,0,0,,11,,,82,127
15251,note_off,139,0,0,,11,,,82,127
15251,note_off,0,0,0,,0,,,84,127
15252,note_on,1,0,0,,10,,,81,127
15391,note_off,139,0,0,,10,,,81,127
15392,note_on,1,0,0,,11,,,82,127
15531,note_off,139,0,0,,11,,,82,127
15531,note_off,0,0,0,,7,,,55,127
15531,note_off,0,0,0,,7,,,43,127
15532,note_on,1,0,0,,6,,,54,127
15532,note_on,0,0,0,,10,,,45,127
15532,note_on,0,0,0,,10,,,81,127
15532,note_on,0,0,0,,11,,,82,127
15671,note_off,139,0,0,,11,,,82,127
15671,note_off,0,0,0,,10,,,81,127
15672,note_on,1,0,0,,7,,,79,127
15811,note_off,139,0,0,,7,,,79,127
15812,note_on,1,0,0,,10,,,81,127
15951,note_off,139,0,0,,10,,,81,127
15951,note_off,0,0,0,,10,,,45,127
15951,note_off,0,0,0,,6,,,54,127
15952,note_on,1,0,0,,11,,,46,127
15952,note_on,0,0,0,,7,,,55,127
15952,note_on,0,0,0,,10,,,81,127
15952,note_on,0,0,0,,7,,,79,127
16091,note_off,139,0,0,,7,,,79,127
16091,note_off,0,0,0,,10,,,81,127
16092,note_on,1,0,0,,6,,,78,127
16231,note_off,139,0,0,,6,,,78,127
16232,note_on,1,0,0,,7,,,79,127
16371,note_off,139,0,0,,7,,,79,127
16371,note_off,0,0,0,,7,,,55,127
16371,note_off,0,0,0,,11,,,46,127
16372,note_on,1,0,0,,7,,,55,127
16372,note_on,0,0,0,,12,,,47,127
16372,note_on,0,0,0,,7,,,79,127
16372,note_on,0,0,0,,5,,,77,127
16511,note_off,139,0,0,,5,,,77,127
16511,note_off,0,0,0,,7,,,79,127
16512,note_on,1,0,0,,3,,,75,127
16651,note_off,139,0,0,,3,,,75,127
16652,note_on,1,0,0,,5,,,77,127
16791,note_off,139,0,0,,5,,,77,127
16791,note_off,0,0,0,,12,,,47,127
16791,note_off,0,0,0,,7,,,55,127
16792,note_on,1,0,0,,0,,,60,127
16792,note_on,0,0,0,,0,,,48,127
16792,note_on,0,0,0,,5,,,77,127
16792,note_on,0,0,0,,3,,,75,127
16931,note_off,139,0,0,,3,,,75,127
16931,note_off,0,0,0,,5,,,77,127
16932,note_on,1,0,0,,2,,,74,127
17071,note_off,139,0,0,,2,,,74,127
17072,note_on,1,0,0,,3,,,75,127
17211,note_off,139,0,0,,3,,,75,127
17211,note_off,0,0,0,,0,,,48,127
17211,note_off,0,0,0,,0,,,60,127
17212,note_on,1,0,0,,2,,,50,127
17212,note_on,0,0,0,,12,,,59,127
17212,note_on,0,0,0,,3,,,75,127
17212,note_on,0,0,0,,2,,,74,127
17351,note_off,139,0,0,,2,,,74,127
17351,note_off,0,0,0,,3,,,75,127
17352,note_on,1,0,0,,0,,,72,127
17491,note_off,139,0,0,,0,,,72,127
17492,note_on,1,0,0,,2,,,74,127
17631,note_off,139,0,0,,2,,,74,127
17631,note_off,0,0,0,,12,,,59,127
17631,note_off,0,0,0,,2,,,50,127
17632,note_on,1,0,0,,0,,,60,127
17632,note_on,0,0,0,,3,,,51,127
17632,note_on,0,0,0,,0,,,72,127
17632,note_on,0,0,0,,2,,,74,127
17771,note_off,139,0,0,,2,,,74,127
17772,note_on,1,0,0,,11,,,70,127
17911,note_off,139,0,0,,11,,,70,127
17912,note_on,1,0,0,,10,,,69,127
18051,note_off,139,0,0,,10,,,69,127
18051,note_off,0,0,0,,3,,,51,127
18051,note_off,0,0,0,,0,,,60,127
18052,note_on,1,0,0,,3,,,51,127
18052,note_on,0,0,0,,0,,,60,127
18052,note_on,0,0,0,,7,,,67,127
18191,note_off,139,0,0,,7,,,67,127
18192,note_on,1,0,0,,6,,,66,127
18331,note_off,139,0,0,,6,,,66,127
18332,note_on,1,0,0,,7,,,67,127
18471,note_off,139,0,0,,7,,,67,127
18471,note_off,0,0,0,,0,,,60,127
18471,note_off,0,0,0,,3,,,51,127
18472,note_on,1,0,0,,2,,,50,127
18472,note_on,0,0,0,,0,,,60,127
18472,note_on,0,0,0,,6,,,66,127
18611,note_off,139,0,0,,0,,,72,127
18612,note_on,1,0,0,,2,,,74,127
18751,note_off,139,0,0,,2,,,74,127
18752,note_on,1,0,0,,0,,,72,127
18891,note_off,139,0,0,,6,,,66,127
18891,note_off,0,0,0,,0,,,60,127
18891,note_off,0,0,0,,2,,,50,127
18892,note_on,1,0,0,,3,,,51,127
18892,note_on,0,0,0,,0,,,60,127
18892,note_on,0,0,0,,7,,,67,127
19031,note_off,139,0,0,,7,,,67,127
19032,note_on,1,0,0,,6,,,66,127
19171,note_off,139,0,0,,6,,,66,127
19172,note_on,1,0,0,,7,,,67,127
19311,note_off,139,0,0,,7,,,67,127
19311,note_off,0,0,0,,0,,,60,127
19311,note_off,0,0,0,,3,,,51,127
19312,note_on,1,0,0,,2,,,50,127
19312,note_on,0,0,0,,0,,,60,127
19312,note_on,0,0,0,,6,,,66,127
19451,note_off,139,0,0,,0,,,72,127
19452,note_on,1,0,0,,2,,,74,127
19591,note_off,139,0,0,,2,,,74,127
19592,note_on,1,0,0,,0,,,72,127
19731,note_off,139,0,0,,6,,,66,127
19731,note_off,0,0,0,,0,,,60,127
19731,note_off,0,0,0,,2,,,50,127
19732,note_on,1,0,0,,3,,,51,127
19732,note_on,0,0,0,,0,,,60,127
19732,note_on,0,0,0,,7,,,67,127
19871,note_off,139,0,0,,7,,,67,127
19872,note_on,1,0,0,,6,,,66,127
20011,note_off,139,0,0,,6,,,66,127
20012,note_on,1,0,0,,7,,,67,127
20151,note_off,139,0,0,,7,,,67,127
20151,note_off,0,0,0,,0,,,60,127
20151,note_off,0,0,0,,3,,,51,127
20152,note_on,1,0,0,,2,,,50,127
20152,note_on,0,0,0,,6,,,66,127
20291,note_off,139,0,0,,0,,,72,127
20292,note_on,1,0,0,,2,,,74,127
20431,note_off,139,0,0,,2,,,74,127
20432,note_on,1,0,0,,1,,,73,127
20571,note_off,139,0,0,,2,,,50,127
20572,note_on,1,0,0,,2,,,38,127
20711,note_off,139,0,0,,1,,,73,127
20712,note_on,1,0,0,,4,,,76,127
20851,note_off,139,0,0,,4,,,76,127
20852,note_on,1,0,0,,2,,,74,127
20991,note_off,139,0,0,,6,,,66,127
21167,note_off,176,0,0,,2,,,74,127
21410,note_off,243,0,0,,2,,,38,127
21900,note_on,490,0,0,,2,,,62,127
21969,note_off,69,0,0,,2,,,62,127
21970,note_on,1,0,0,,3,,,63,127
22039,note_off,69,0,0,,3,,,63,127
22040,note_on,1,0,0,,4,,,64,127
22109,note_off,69,0,0,,4,,,64,127
22110,note_on,1,0,0,,5,,,65,127
22179,note_off,69,0,0,,5,,,65,127
22180,note_on,1,0,0,,6,,,66,127
22249,note_off,69,0,0,,6,,,66,127
22250,note_on,1,0,0,,7,,,67,127
22319,note_off,69,0,0,,7,,,67,127
22320,note_on,1,0,0,,10,,,69,127
22389,note_off,69,0,0,,10,,,69,127
22390,note_on,1,0,0,,11,,,70,127
22459,note_off,69,0,0,,11,,,70,127
22460,note_on,1,0,0,,12,,,71,127
22529,note_off,69,0,0,,12,,,71,127
22530,note_on,1,0,0,,0,,,72,127
22599,note_off,69,0,0,,0,,,72,127
22600,note_on,1,0,0,,1,,,73,127
22669,note_off,69,0,0,,1,,,73,127
22670,note_on,1,0,0,,2,,,74,127
22740,note_on,70,0,0,,2,,,50,127
22809,note_off,69,0,0,,2,,,50,127
22810,note_on,1,0,0,,3,,,51,127
22879,note_off,69,0,0,,3,,,51,127
22880,note_on,1,0,0,,4,,,52,127
22949,note_off,69,0,0,,4,,,52,127
22950,note_on,1,0,0,,5,,,53,127
23019,note_off,69,0,0,,5,,,53,127
23020,note_on,1,0,0,,6,,,54,127
23089,note_off,69,0,0,,6,,,54,127
23090,note_on,1,0,0,,7,,,55,127
23159,note_off,69,0,0,,7,,,55,127
23160,note_on,1,0,0,,10,,,57,127
23229,note_off,69,0,0,,10,,,57,127
23230,note_on,1,0,0,,11,,,58,127
23299,note_off,69,0,0,,11,,,58,127
23300,note_on,1,0,0,,12,,,59,127
23369,note_off,69,0,0,,12,,,59,127
23370,note_on,1,0,0,,0,,,60,127
23439,note_off,69,0,0,,0,,,60,127
23440,note_on,1,0,0,,1,,,61,127
23509,note_off,69,0,0,,1,,,61,127
23510,note_on,1,0,0,,2,,,62,127
23649,note_off,139,0,0,,2,,,74,127
23650,note_on,1,0,0,,2,,,74,127
23789,note_off,139,0,0,,2,,,74,127
23790,note_on,1,0,0,,0,,,72,127
23929,note_off,139,0,0,,0,,,72,127
23929,note_off,0,0,0,,2,,,62,127
23930,note_on,1,0,0,,2,,,50,127
23930,note_on,0,0,0,,0,,,72,127
23930,note_on,0,0,0,,2,,,74,127
24069,note_off,139,0,0,,2,,,74,127
24069,note_off,0,0,0,,0,,,72,127
24070,note_on,1,0,0,,11,,,70,127
24209,note_off,139,0,0,,11,,,70,127
24210,note_on,1,0,0,,10,,,69,127
24349,note_off,139,0,0,,10,,,69,127
24350,note_on,1,0,0,,5,,,77,127
24350,note_on,0,0,0,,3,,,75,127
24489,note_off,139,0,0,,3,,,75,127
24489,note_off,0,0,0,,5,,,77,127
24490,note_on,1,0,0,,2,,,74,127
24629,note_off,139,0,0,,2,,,74,127
24630,note_on,1,0,0,,0,,,72,127
24769,note_off,139,0,0,,0,,,72,127
24769,note_off,0,0,0,,2,,,50,127
24770,note_on,1,0,0,,6,,,54,127
24770,note_on,0,0,0,,2,,,62,127
24770,note_on,0,0,0,,2,,,74,127
24770,note_on,0,0,0,,0,,,72,127
24909,note_off,139,0,0,,0,,,72,127
24909,note_off,0,0,0,,2,,,74,127
24910,note_on,1,0,0,,11,,,70,127
25049,note_off,139,0,0,,11,,,70,127
25050,note_on,1,0,0,,10,,,69,127
25189,note_off,139,0,0,,10,,,69,127
25189,note_off,0,0,0,,2,,,62,127
25189,note_off,0,0,0,,6,,,54,127
25190,note_on,1,0,0,,2,,,62,127
25190,note_on,0,0,0,,7,,,55,127
25190,note_on,0,0,0,,0,,,84,127
25190,note_on,0,0,0,,11,,,82,127
25329,note_off,139,0,0,,11,,,82,127
25329,note_off,0,0,0,,0,,,84,127
25330,note_on,1,0,0,,10,,,81,127
25469,note_off,139,0,0,,10,,,81,127
25470,note_on,1,0,0,,11,,,82,127
25609,note_off,139,0,0,,11,,,82,127
25609,note_off,0,0,0,,7,,,55,127
25609,note_off,0,0,0,,2,,,62,127
25610,note_on,1,0,0,,10,,,57,127
25610,note_on,0,0,0,,1,,,61,127
25610,note_on,0,0,0,,10,,,81,127
25610,note_on,0,0,0,,11,,,82,127
25749,note_off,139,0,0,,11,,,82,127
25749,note_off,0,0,0,,10,,,81,127
25750,note_on,1,0,0,,7,,,79,127
25889,note_off,139,0,0,,7,,,79,127
25890,note_on,1,0,0,,10,,,81,127
26029,note_off,139,0,0,,10,,,81,127
26029,note_off,0,0,0,,1,,,61,127
26029,note_off,0,0,0,,10,,,57,127
26030,note_on,1,0,0,,11,,,58,127
26030,note_on,0,0,0,,2,,,62,127
26030,note_on,0,0,0,,7,,,79,127
26030,note_on,0,0,0,,10,,,81,127
26169,note_off,139,0,0,,10,,,81,127
26170,note_on,1,0,0,,5,,,77,127
26309,note_off,139,0,0,,5,,,77,127
26310,note_on,1,0,0,,3,,,75,127
26449,note_off,139,0,0,,3,,,75,127
26449,note_off,0,0,0,,2,,,62,127
26449,note_off,0,0,0,,11,,,58,127
26450,note_on,1,0,0,,7,,,55,127
26450,note_on,0,0,0,,7,,,67,127
26450,note_on,0,0,0,,2,,,74,127
26589,note_off,139,0,0,,2,,,74,127
26590,note_on,1,0,0,,1,,,73,127
26729,note_off,139,0,0,,1,,,73,127
26730,note_on,1,0,0,,2,,,74,127
26869,note_off,139,0,0,,2,,,74,127
26869,note_off,0,0,0,,7,,,67,127
26869,note_off,0,0,0,,7,,,55,127
26870,note_on,1,0,0,,10,,,57,127
26870,note_on,0,0,0,,7,,,67,127
26870,note_on,0,0,0,,1,,,73,127
27009,note_off,139,0,0,,7,,,79,127
27010,note_on,1,0,0,,10,,,81,127
27149,note_off,139,0,0,,10,,,81,127
27150,note_on,1,0,0,,7,,,79,127
27289,note_off,139,0,0,,1,,,73,127
27289,note_off,0,0,0,,7,,,67,127
27289,note_off,0,0,0,,10,,,57,127
27290,note_on,1,0,0,,7,,,67,127
27290,note_on,0,0,0,,11,,,58,127
27290,note_on,0,0,0,,2,,,74,127
27429,note_off,139,0,0,,2,,,74,127
27430,note_on,1,0,0,,1,,,73,127
27569,note_off,139,0,0,,1,,,73,127
27570,note_on,1,0,0,,2,,,74,127
27709,note_off,139,0,0,,2,,,74,127
27709,note_off,0,0,0,,11,,,58,127
27709,note_off,0,0,0,,7,,,67,127
27710,note_on,1,0,0,,10,,,57,127
27710,note_on,0,0,0,,7,,,67,127
27710,note_on,0,0,0,,1,,,73,127
27849,note_off,139,0,0,,7,,,79,127
27850,note_on,1,0,0,,10,,,81,127
27989,note_off,139,0,0,,10,,,81,127
27990,note_on,1,0,0,,7,,,79,127
28129,note_off,139,0,0,,1,,,73,127
28129,note_off,0,0,0,,7,,,67,127
28129,note_off,0,0,0,,10,,,57,127
28130,note_on,1,0,0,,11,,,58,127
28130,note_on,0,0,0,,7,,,67,127
28130,note_on,0,0,0,,2,,,74,127
28269,note_off,139,0,0,,2,,,74,127
28270,note_on,1,0,0,,1,,,73,127
28409,note_off,139,0,0,,1,,,73,127
28410,note_on,1,0,0,,2,,,74,127
28549,note_off,139,0,0,,2,,,74,127
28549,note_off,0,0,0,,7,,,67,127
28549,note_off,0,0,0,,11,,,58,127
28550,note_on,1,0,0,,10,,,57,127
28550,note_on,0,0,0,,1,,,73,127
28689,note_off,139,0,0,,7,,,79,127
28690,note_on,1,0,0,,10,,,81,127
28829,note_off,139,0,0,,10,,,81,127
28830,note_on,1,0,0,,8,,,80,127
28969,note_off,139,0,0,,10,,,57,127
28970,note_on,1,0,0,,10,,,45,127
29109,note_off,139,0,0,,8,,,80,127
29110,note_on,1,0,0,,12,,,83,127
29249,note_off,139,0,0,,12,,,83,127
29250,note_on,1,0,0,,10,,,81,127
29389,note_off,139,0,0,,1,,,73,127
29565,note_off,176,0,0,,10,,,81,127
29808,note_off,243,0,0,,10,,,45,127
30298,note_on,490,0,0,,10,,,69,127
30367,note_off,69,0,0,,10,,,69,127
30368,note_on,1,0,0,,11,,,70,127
30437,note_off,69,0,0,,11,,,70,127
30438,note_on,1,0,0,,12,,,71,127
30507,note_off,69,0,0,,12,,,71,127
30508,note_on,1,0,0,,0,,,72,127
30577,note_off,69,0,0,,0,,,72,127
30578,note_on,1,0,0,,1,,,73,127
30647,note_off,69,0,0,,1,,,73,127
30648,note_on,1,0,0,,2,,,74,127
30717,note_off,69,0,0,,2,,,74,127
30718,note_on,1,0,0,,4,,,76,127
30787,note_off,69,0,0,,4,,,76,127
30788,note_on,1,0,0,,5,,,77,127
30857,note_off,69,0,0,,5,,,77,127
30858,note_on,1,0,0,,6,,,78,127
30927,note_off,69,0,0,,6,,,78,127
30928,note_on,1,0,0,,7,,,79,127
30997,note_off,69,0,0,,7,,,79,127
30998,note_on,1,0,0,,8,,,80,127
31067,note_off,69,0,0,,8,,,80,127
31068,note_on,1,0,0,,10,,,81,127
31138,note_on,70,0,0,,10,,,57,127
31207,note_off,69,0,0,,10,,,57,127
31208,note_on,1,0,0,,11,,,58,127
31277,note_off,69,0,0,,11,,,58,127
31278,note_on,1,0,0,,12,,,59,127
31347,note_off,69,0,0,,12,,,59,127
31348,note_on,1,0,0,,0,,,60,127
31417,note_off,69,0,0,,0,,,60,127
31418,note_on,1,0,0,,1,,,61,127
31487,note_off,69,0,0,,1,,,61,127
31488,note_on,1,0,0,,2,,,62,127
31557,note_off,69,0,0,,2,,,62,127
31558,note_on,1,0,0,,4,,,64,127
31627,note_off,69,0,0,,4,,,64,127
31628,note_on,1,0,0,,5,,,65,127
31697,note_off,69,0,0,,5,,,65,127
31698,note_on,1,0,0,,6,,,66,127
31767,note_off,69,0,0,,6,,,66,127
31768,note_on,1,0,0,,7,,,67,127
31837,note_off,69,0,0,,7,,,67,127
31838,note_on,1,0,0,,8,,,68,127
31907,note_off,69,0,0,,8,,,68,127
31908,note_on,1,0,0,,10,,,69,127
32047,note_off,139,0,0,,10,,,81,127
32048,note_on,1,0,0,,10,,,81,127
32187,note_off,139,0,0,,10,,,81,127
32188,note_on,1,0,0,,7,,,79,127
32327,note_off,139,0,0,,7,,,79,127
32327,note_off,0,0,0,,10,,,69,127
32328,note_on,1,0,0,,10,,,57,127
32328,note_on,0,0,0,,7,,,79,127
32328,note_on,0,0,0,,10,,,81,127
32467,note_off,139,0,0,,10,,,81,127
32467,note_off,0,0,0,,7,,,79,127
32468,note_on,1,0,0,,5,,,77,127
32607,note_off,139,0,0,,5,,,77,127
32608,note_on,1,0,0,,4,,,76,127
32747,note_off,139,0,0,,4,,,76,127
32748,note_on,1,0,0,,0,,,84,127
32748,note_on,0,0,0,,11,,,82,127
32887,note_off,139,0,0,,11,,,82,127
32887,note_off,0,0,0,,0,,,84,127
32888,note_on,1,0,0,,10,,,81,127
33027,note_off,139,0,0,,10,,,81,127
33028,note_on,1,0,0,,7,,,79,127
33167,note_off,139,0,0,,7,,,79,127
33167,note_off,0,0,0,,10,,,57,127
33168,note_on,1,0,0,,1,,,49,127
33168,note_on,0,0,0,,10,,,57,127
33168,note_on,0,0,0,,7,,,79,127
33168,note_on,0,0,0,,10,,,81,127
33307,note_off,139,0,0,,10,,,81,127
33307,note_off,0,0,0,,7,,,79,127
33308,note_on,1,0,0,,5,,,77,127
33447,note_off,139,0,0,,5,,,77,127
33448,note_on,1,0,0,,4,,,76,127
33587,note_off,139,0,0,,4,,,76,127
33587,note_off,0,0,0,,10,,,57,127
33587,note_off,0,0,0,,1,,,49,127
33588,note_on,1,0,0,,10,,,57,127
33588,note_on,0,0,0,,2,,,50,127
33588,note_on,0,0,0,,5,,,77,127
33588,note_on,0,0,0,,7,,,79,127
33727,note_off,139,0,0,,7,,,79,127
33727,note_off,0,0,0,,5,,,77,127
33728,note_on,1,0,0,,4,,,76,127
33867,note_off,139,0,0,,4,,,76,127
33868,note_on,1,0,0,,5,,,77,127
34007,note_off,139,0,0,,5,,,77,127
34007,note_off,0,0,0,,2,,,50,127
34007,note_off,0,0,0,,10,,,57,127
34008,note_on,1,0,0,,7,,,67,127
34008,note_on,0,0,0,,11,,,58,127
34008,note_on,0,0,0,,10,,,81,127
34008,note_on,0,0,0,,7,,,79,127
34147,note_off,139,0,0,,7,,,79,127
34147,note_off,0,0,0,,10,,,81,127
34148,note_on,1,0,0,,5,,,77,127
34287,note_off,139,0,0,,5,,,77,127
34288,note_on,1,0,0,,4,,,76,127
34427,note_off,139,0,0,,4,,,76,127
34427,note_off,0,0,0,,11,,,58,127
34427,note_off,0,0,0,,7,,,67,127
34428,note_on,1,0,0,,10,,,57,127
34428,note_on,0,0,0,,5,,,65,127
34428,note_on,0,0,0,,2,,,74,127
34846,note_off,418,0,0,,2,,,74,127
34846,note_off,0,0,0,,5,,,65,127
34846,note_off,0,0,0,,10,,,57,127
34847,note_on,1,0,0,,4,,,64,127
34847,note_on,0,0,0,,10,,,57,127
34847,note_on,0,0,0,,2,,,74,127
34916,note_off,69,0,0,,2,,,74,127
34917,note_on,1,0,0,,1,,,73,127
34986,note_off,69,0,0,,1,,,73,127
34987,note_on,1,0,0,,2,,,74,127
35056,note_off,69,0,0,,2,,,74,127
35057,note_on,1,0,0,,1,,,73,127
35126,note_off,69,0,0,,1,,,73,127
35127,note_on,1,0,0,,12,,,71,127
35196,note_off,69,0,0,,12,,,71,127
35197,note_on,1,0,0,,1,,,73,127
35266,note_off,69,0,0,,1,,,73,127
35266,note_off,0,0,0,,10,,,57,127
35266,note_off,0,0,0,,4,,,64,127
35267,note_on,1,0,0,,2,,,50,127
35267,note_on,0,0,0,,2,,,62,127
35267,note_on,0,0,0,,2,,,74,127
35685,note_off,418,0,0,,2,,,74,127
35685,note_off,0,0,0,,2,,,62,127
35685,note_off,0,0,0,,2,,,50,127
35686,note_on,1,0,0,,2,,,38,127
35686,note_on,0,0,0,,10,,,69,127
35686,note_on,0,0,0,,7,,,79,127
35686,note_on,0,0,0,,5,,,77,127
35825,note_off,139,0,0,,5,,,77,127
35825,note_off,0,0,0,,7,,,79,127
35826,note_on,1,0,0,,4,,,76,127
35965,note_off,139,0,0,,4,,,76,127
35966,note_on,1,0,0,,5,,,77,127
36105,note_off,139,0,0,,10,,,69,127
36105,note_off,0,0,0,,2,,,38,127
36106,note_on,1,0,0,,4,,,40,127
36106,note_on,0,0,0,,7,,,67,127
36524,note_off,418,0,0,,7,,,67,127
36524,note_off,0,0,0,,4,,,40,127
36524,note_off,0,0,0,,5,,,77,127
36525,note_on,1,0,0,,4,,,52,127
36525,note_on,0,0,0,,7,,,67,127
36525,note_on,0,0,0,,4,,,76,127
36525,note_on,0,0,0,,5,,,77,127
36664,note_off,139,0,0,,5,,,77,127
36664,note_off,0,0,0,,4,,,76,127
36665,note_on,1,0,0,,2,,,74,127
36804,note_off,139,0,0,,2,,,74,127
36805,note_on,1,0,0,,4,,,76,127
36944,note_off,139,0,0,,7,,,67,127
36944,note_off,0,0,0,,4,,,52,127
36945,note_on,1,0,0,,5,,,41,127
36945,note_on,0,0,0,,5,,,65,127
37363,note_off,418,0,0,,5,,,65,127
37363,note_off,0,0,0,,5,,,41,127
37363,note_off,0,0,0,,4,,,76,127
37364,note_on,1,0,0,,5,,,53,127
37364,note_on,0,0,0,,4,,,76,127
37364,note_on,0,0,0,,5,,,65,127
37364,note_on,0,0,0,,2,,,74,127
37503,note_off,139,0,0,,2,,,74,127
37503,note_off,0,0,0,,4,,,76,127
37504,note_on,1,0,0,,1,,,73,127
37643,note_off,139,0,0,,1,,,73,127
37644,note_on,1,0,0,,2,,,74,127
37783,note_off,139,0,0,,5,,,65,127
37783,note_off,0,0,0,,5,,,53,127
37784,note_on,1,0,0,,7,,,43,127
37784,note_on,0,0,0,,4,,,64,127
37923,note_off,139,0,0,,4,,,64,127
37924,note_on,1,0,0,,11,,,70,127
38063,note_off,139,0,0,,11,,,70,127
38064,note_on,1,0,0,,10,,,69,127
38203,note_off,139,0,0,,10,,,69,127
38203,note_off,0,0,0,,7,,,43,127
38203,note_off,0,0,0,,2,,,74,127
38204,note_on,1,0,0,,10,,,45,127
38204,note_on,0,0,0,,1,,,73,127
38204,note_on,0,0,0,,7,,,67,127
38343,note_off,139,0,0,,7,,,67,127
38344,note_on,1,0,0,,5,,,65,127
38483,note_off,139,0,0,,5,,,65,127
38484,note_on,1,0,0,,4,,,64,127
38623,note_off,139,0,0,,4,,,64,127
38623,note_off,0,0,0,,1,,,73,127
38623,note_off,0,0,0,,10,,,45,127
38624,note_on,1,0,0,,2,,,38,127
38624,note_on,0,0,0,,2,,,74,127
39042,note_off,418,0,0,,2,,,74,127
39042,note_off,0,0,0,,2,,,38,127
39043,note_on,1,0,0,,2,,,38,127
39043,note_on,0,0,0,,5,,,77,127
39043,note_on,0,0,0,,10,,,69,127
39182,note_off,139,0,0,,5,,,77,127
39183,note_on,1,0,0,,7,,,79,127
39322,note_off,139,0,0,,7,,,79,127
39323,note_on,1,0,0,,10,,,81,127
39462,note_off,139,0,0,,10,,,81,127
39462,note_off,0,0,0,,10,,,69,127
39462,note_off,0,0,0,,2,,,38,127
39463,note_on,1,0,0,,4,,,40,127
39463,note_on,0,0,0,,7,,,67,127
39463,note_on,0,0,0,,5,,,77,127
39463,note_on,0,0,0,,7,,,79,127
39602,note_off,139,0,0,,7,,,79,127
39602,note_off,0,0,0,,5,,,77,127
39603,note_on,1,0,0,,4,,,76,127
39742,note_off,139,0,0,,4,,,76,127
39743,note_on,1,0,0,,2,,,74,127
39882,note_off,139,0,0,,2,,,74,127
39882,note_off,0,0,0,,7,,,67,127
39882,note_off,0,0,0,,4,,,40,127
39883,note_on,1,0,0,,4,,,52,127
39883,note_on,0,0,0,,4,,,76,127
39883,note_on,0,0,0,,7,,,67,127
40022,note_off,139,0,0,,4,,,76,127
40023,note_on,1,0,0,,5,,,77,127
40162,note_off,139,0,0,,5,,,77,127
40163,note_on,1,0,0,,7,,,79,127
40302,note_off,139,0,0,,7,,,79,127
40302,note_off,0,0,0,,7,,,67,127
40302,note_off,0,0,0,,4,,,52,127
40303,note_on,1,0,0,,5,,,41,127
40303,note_on,0,0,0,,4,,,76,127
40303,note_on,0,0,0,,5,,,77,127
40303,note_on,0,0,0,,5,,,65,127
40442,note_off,139,0,0,,5,,,77,127
40442,note_off,0,0,0,,4,,,76,127
40443,note_on,1,0,0,,2,,,74,127
40582,note_off,139,0,0,,2,,,74,127
40583,note_on,1,0,0,,1,,,73,127
40722,note_off,139,0,0,,1,,,73,127
40722,note_off,0,0,0,,5,,,65,127
40722,note_off,0,0,0,,5,,,41,127
40723,note_on,1,0,0,,5,,,53,127
40723,note_on,0,0,0,,2,,,74,127
40723,note_on,0,0,0,,5,,,65,127
40862,note_off,139,0,0,,2,,,74,127
40863,note_on,1,0,0,,1,,,73,127
41002,note_off,139,0,0,,1,,,73,127
41003,note_on,1,0,0,,2,,,74,127
41142,note_off,139,0,0,,5,,,65,127
41142,note_off,0,0,0,,5,,,53,127
41143,note_on,1,0,0,,7,,,43,127
41143,note_on,0,0,0,,4,,,64,127
41282,note_off,139,0,0,,4,,,64,127
41283,note_on,1,0,0,,11,,,70,127
41422,note_off,139,0,0,,11,,,70,127
41423,note_on,1,0,0,,10,,,69,127
41562,note_off,139,0,0,,10,,,69,127
41562,note_off,0,0,0,,7,,,43,127
41562,note_off,0,0,0,,2,,,74,127
41563,note_on,1,0,0,,10,,,45,127
41563,note_on,0,0,0,,1,,,73,127
41563,note_on,0,0,0,,7,,,67,127
41702,note_off,139,0,0,,7,,,67,127
41703,note_on,1,0,0,,5,,,65,127
41842,note_off,139,0,0,,5,,,65,127
41843,note_on,1,0,0,,4,,,64,127
41982,note_off,139,0,0,,4,,,64,127
41982,note_off,0,0,0,,1,,,73,127
41982,note_off,0,0,0,,10,,,45,127
41983,note_on,1,0,0,,11,,,46,127
41983,note_on,0,0,0,,2,,,62,127
41983,note_on,0,0,0,,2,,,74,127
42122,note_off,139,0,0,,2,,,62,127
42123,note_on,1,0,0,,4,,,64,127
42262,note_off,139,0,0,,4,,,64,127
42263,note_on,1,0,0,,5,,,65,127
42402,note_off,139,0,0,,5,,,65,127
42402,note_off,0,0,0,,11,,,46,127
42403,note_on,1,0,0,,7,,,43,127
42403,note_on,0,0,0,,7,,,67,127
42542,note_off,139,0,0,,7,,,67,127
42543,note_on,1,0,0,,5,,,65,127
42682,note_off,139,0,0,,5,,,65,127
42683,note_on,1,0,0,,4,,,64,127
42822,note_off,139,0,0,,4,,,64,127
42822,note_off,0,0,0,,7,,,43,127
42823,note_on,1,0,0,,10,,,45,127
42823,note_on,0,0,0,,5,,,65,127
43241,note_off,418,0,0,,5,,,65,127
43241,note_off,0,0,0,,10,,,45,127
43241,note_off,0,0,0,,2,,,74,127
43242,note_on,1,0,0,,10,,,45,127
43242,note_on,0,0,0,,2,,,74,127
43242,note_on,0,0,0,,4,,,64,127
43311,note_off,69,0,0,,2,,,74,127
43312,note_on,1,0,0,,1,,,73,127
43381,note_off,69,0,0,,1,,,73,127
43382,note_on,1,0,0,,2,,,74,127
43451,note_off,69,0,0,,2,,,74,127
43452,note_on,1,0,0,,1,,,73,127
43521,note_off,69,0,0,,1,,,73,127
43522,note_on,1,0,0,,12,,,71,127
43591,note_off,69,0,0,,12,,,71,127
43592,note_on,1,0,0,,1,,,73,127
43661,note_off,69,0,0,,1,,,73,127
43661,note_off,0,0,0,,4,,,64,127
43661,note_off,0,0,0,,10,,,45,127
43662,note_on,1,0,0,,2,,,38,127
43662,note_on,0,0,0,,2,,,74,127
43662,note_on,0,0,0,,5,,,65,127
44289,note_off,627,0,0,,5,,,65,127
44289,note_off,0,0,0,,2,,,74,127
44498,note_off,209,0,0,,2,,,38,127
44499,note_on,1,0,0,,2,,,50,127
44499,note_on,0,0,0,,7,,,55,127
44499,note_on,0,0,0,,7,,,43,127
44499,note_on,0,0,0,,2,,,74,127
44499,note_on,0,0,0,,7,,,79,127
44499,note_on,0,0,0,,7,,,67,127
44499,note_on,0,0,0,,12,,,71,127
44638,note_off,139,0,0,,7,,,79,127
44638,note_off,0,0,0,,2,,,74,127
44639,note_on,1,0,0,,2,,,74,127
44761,note_off,122,0,0,,12,,,71,127
44777,note_off,16,0,0,,2,,,74,127
44778,note_on,1,0,0,,12,,,71,127
44813,note_off,35,0,0,,7,,,67,127
44813,note_off,0,0,0,,7,,,43,127
44813,note_off,0,0,0,,7,,,55,127
44813,note_off,0,0,0,,2,,,50,127
44917,note_off,104,0,0,,12,,,71,127
44918,note_on,1,0,0,,7,,,67,127
45057,note_off,139,0,0,,7,,,67,127
45058,note_on,1,0,0,,2,,,62,127
45197,note_off,139,0,0,,2,,,62,127
45198,note_on,1,0,0,,12,,,59,127
45337,note_off,139,0,0,,12,,,59,127
45338,note_on,1,0,0,,7,,,55,127
45477,note_off,139,0,0,,7,,,55,127
45478,note_on,1,0,0,,5,,,65,127
45617,note_off,139,0,0,,5,,,65,127
45618,note_on,1,0,0,,3,,,63,127
45757,note_off,139,0,0,,3,,,63,127
45758,note_on,1,0,0,,7,,,55,127
45758,note_on,0,0,0,,7,,,43,127
45758,note_on,0,0,0,,2,,,62,127
45897,note_off,139,0,0,,2,,,62,127
45898,note_on,1,0,0,,0,,,60,127
46037,note_off,139,0,0,,0,,,60,127
46038,note_on,1,0,0,,12,,,59,127
46177,note_off,139,0,0,,12,,,59,127
46177,note_off,0,0,0,,7,,,43,127
46177,note_off,0,0,0,,7,,,55,127
46178,note_on,1,0,0,,5,,,53,127
46178,note_on,0,0,0,,2,,,50,127
46178,note_on,0,0,0,,7,,,43,127
46178,note_on,0,0,0,,12,,,71,127
46178,note_on,0,0,0,,8,,,80,127
46178,note_on,0,0,0,,2,,,74,127
46178,note_on,0,0,0,,5,,,77,127
46317,note_off,139,0,0,,5,,,77,127
46317,note_off,0,0,0,,8,,,80,127
46318,note_on,1,0,0,,5,,,77,127
46440,note_off,122,0,0,,2,,,74,127
46456,note_off,16,0,0,,5,,,77,127
46457,note_on,1,0,0,,2,,,74,127
46492,note_off,35,0,0,,12,,,71,127
46492,note_off,0,0,0,,7,,,43,127
46492,note_off,0,0,0,,2,,,50,127
46492,note_off,0,0,0,,5,,,53,127
46596,note_off,104,0,0,,2,,,74,127
46597,note_on,1,0,0,,12,,,71,127
46736,note_off,139,0,0,,12,,,71,127
46737,note_on,1,0,0,,8,,,68,127
46876,note_off,139,0,0,,8,,,68,127
46877,note_on,1,0,0,,5,,,65,127
47016,note_off,139,0,0,,5,,,65,127
47017,note_on,1,0,0,,2,,,62,127
47156,note_off,139,0,0,,2,,,62,127
47157,note_on,1,0,0,,5,,,77,127
47296,note_off,139,0,0,,5,,,77,127
47297,note_on,1,0,0,,3,,,75,127
47436,note_off,139,0,0,,3,,,75,127
47437,note_on,1,0,0,,2,,,50,127
47437,note_on,0,0,0,,5,,,53,127
47437,note_on,0,0,0,,7,,,43,127
47437,note_on,0,0,0,,2,,,74,127
47576,note_off,139,0,0,,2,,,74,127
47577,note_on,1,0,0,,0,,,72,127
47716,note_off,139,0,0,,0,,,72,127
47717,note_on,1,0,0,,12,,,71,127
47856,note_off,139,0,0,,12,,,71,127
47856,note_off,0,0,0,,7,,,43,127
47856,note_off,0,0,0,,5,,,53,127
47856,note_off,0,0,0,,2,,,50,127
47857,note_on,1,0,0,,0,,,60,127
47857,note_on,0,0,0,,7,,,55,127
47857,note_on,0,0,0,,3,,,51,127
47857,note_on,0,0,0,,0,,,84,127
47996,note_off,139,0,0,,0,,,84,127
47997,note_on,1,0,0,,7,,,79,127
48136,note_off,139,0,0,,7,,,79,127
48137,note_on,1,0,0,,3,,,75,127
48276,note_off,139,0,0,,3,,,75,127
48276,note_off,0,0,0,,3,,,51,127
48276,note_off,0,0,0,,7,,,55,127
48276,note_off,0,0,0,,0,,,60,127
48277,note_on,1,0,0,,0,,,60,127
48277,note_on,0,0,0,,3,,,51,127
48277,note_on,0,0,0,,7,,,55,127
48277,note_on,0,0,0,,0,,,72,127
48416,note_off,139,0,0,,0,,,72,127
48417,note_on,1,0,0,,7,,,67,127
48556,note_off,139,0,0,,7,,,67,127
48557,note_on,1,0,0,,7,,,79,127
48696,note_off,139,0,0,,7,,,79,127
48696,note_off,0,0,0,,7,,,55,127
48696,note_off,0,0,0,,3,,,51,127
48696,note_off,0,0,0,,0,,,60,127
48697,note_on,1,0,0,,0,,,60,127
48697,note_on,0,0,0,,2,,,50,127
48697,note_on,0,0,0,,5,,,53,127
48697,note_on,0,0,0,,5,,,77,127
48836,note_off,139,0,0,,5,,,77,127
48837,note_on,1,0,0,,8,,,80,127
48976,note_off,139,0,0,,8,,,80,127
48977,note_on,1,0,0,,7,,,79,127
49116,note_off,139,0,0,,7,,,79,127
49116,note_off,0,0,0,,5,,,53,127
49116,note_off,0,0,0,,2,,,50,127
49116,note_off,0,0,0,,0,,,60,127
49117,note_on,1,0,0,,2,,,62,127
49117,note_on,0,0,0,,7,,,55,127
49117,note_on,0,0,0,,5,,,77,127
49117,note_on,0,0,0,,7,,,79,127
49256,note_off,139,0,0,,7,,,79,127
49256,note_off,0,0,0,,5,,,77,127
49257,note_on,1,0,0,,3,,,75,127
49396,note_off,139,0,0,,3,,,75,127
49397,note_on,1,0,0,,2,,,74,127
49536,note_off,139,0,0,,2,,,74,127
49536,note_off,0,0,0,,7,,,55,127
49536,note_off,0,0,0,,2,,,62,127
49537,note_on,1,0,0,,7,,,67,127
49537,note_on,0,0,0,,3,,,63,127
49537,note_on,0,0,0,,0,,,60,127
49537,note_on,0,0,0,,3,,,75,127
49537,note_on,0,0,0,,5,,,77,127
49676,note_off,139,0,0,,5,,,77,127
49676,note_off,0,0,0,,3,,,75,127
49677,note_on,1,0,0,,2,,,74,127
49816,note_off,139,0,0,,2,,,74,127
49817,note_on,1,0,0,,3,,,75,127
49956,note_off,139,0,0,,3,,,75,127
49956,note_off,0,0,0,,0,,,60,127
49956,note_off,0,0,0,,3,,,63,127
49956,note_off,0,0,0,,7,,,67,127
49957,note_on,1,0,0,,7,,,67,127
49957,note_on,0,0,0,,11,,,58,127
49957,note_on,0,0,0,,2,,,62,127
49957,note_on,0,0,0,,2,,,74,127
50096,note_off,139,0,0,,2,,,74,127
50097,note_on,1,0,0,,8,,,80,127
50236,note_off,139,0,0,,8,,,80,127
50237,note_on,1,0,0,,7,,,79,127
50376,note_off,139,0,0,,7,,,79,127
50376,note_off,0,0,0,,2,,,62,127
50376,note_off,0,0,0,,11,,,58,127
50376,note_off,0,0,0,,7,,,67,127
50377,note_on,1,0,0,,0,,,60,127
50377,note_on,0,0,0,,7,,,67,127
50377,note_on,0,0,0,,8,,,56,127
50377,note_on,0,0,0,,5,,,77,127
50517,note_on,140,0,0,,3,,,75,127
50656,note_off,139,0,0,,3,,,75,127
50657,note_on,1,0,0,,2,,,74,127
50796,note_off,139,0,0,,2,,,74,127
50796,note_off,0,0,0,,8,,,56,127
50796,note_off,0,0,0,,7,,,67,127
50796,note_off,0,0,0,,0,,,60,127
50797,note_on,1,0,0,,0,,,60,127
50797,note_on,0,0,0,,5,,,65,127
50797,note_on,0,0,0,,8,,,56,127
50797,note_on,0,0,0,,0,,,72,127
50936,note_off,139,0,0,,0,,,72,127
50937,note_on,1,0,0,,12,,,71,127
51076,note_off,139,0,0,,12,,,71,127
51077,note_on,1,0,0,,0,,,72,127
51216,note_off,139,0,0,,0,,,72,127
51216,note_off,0,0,0,,8,,,56,127
51216,note_off,0,0,0,,5,,,65,127
51216,note_off,0,0,0,,0,,,60,127
51217,note_on,1,0,0,,2,,,62,127
51217,note_on,0,0,0,,5,,,65,127
51217,note_on,0,0,0,,7,,,55,127
51217,note_on,0,0,0,,12,,,71,127
51356,note_off,139,0,0,,5,,,77,127
51357,note_on,1,0,0,,7,,,79,127
51496,note_off,139,0,0,,7,,,79,127
51497,note_on,1,0,0,,5,,,77,127
51636,note_off,139,0,0,,12,,,71,127
51636,note_off,0,0,0,,7,,,55,127
51636,note_off,0,0,0,,5,,,65,127
51636,note_off,0,0,0,,2,,,62,127
51637,note_on,1,0,0,,5,,,65,127
51637,note_on,0,0,0,,0,,,60,127
51637,note_on,0,0,0,,8,,,56,127
51637,note_on,0,0,0,,0,,,72,127
51776,note_off,139,0,0,,0,,,72,127
51777,note_on,1,0,0,,12,,,71,127
51916,note_off,139,0,0,,12,,,71,127
51917,note_on,1,0,0,,0,,,72,127
52056,note_off,139,0,0,,0,,,72,127
52056,note_off,0,0,0,,8,,,56,127
52056,note_off,0,0,0,,0,,,60,127
52056,note_off,0,0,0,,5,,,65,127
52057,note_on,1,0,0,,5,,,65,127
52057,note_on,0,0,0,,2,,,62,127
52057,note_on,0,0,0,,7,,,55,127
52057,note_on,0,0,0,,12,,,71,127
52196,note_off,139,0,0,,5,,,77,127
52197,note_on,1,0,0,,7,,,79,127
52336,note_off,139,0,0,,7,,,79,127
52337,note_on,1,0,0,,5,,,77,127
52476,note_off,139,0,0,,12,,,71,127
52476,note_off,0,0,0,,7,,,55,127
52476,note_off,0,0,0,,2,,,62,127
52476,note_off,0,0,0,,5,,,65,127
52477,note_on,1,0,0,,0,,,60,127
52477,note_on,0,0,0,,5,,,65,127
52477,note_on,0,0,0,,8,,,56,127
52477,note_on,0,0,0,,0,,,72,127
52616,note_off,139,0,0,,0,,,72,127
52617,note_on,1,0,0,,12,,,71,127
52756,note_off,139,0,0,,12,,,71,127
52757,note_on,1,0,0,,0,,,72,127
52896,note_off,139,0,0,,0,,,72,127
52896,note_off,0,0,0,,8,,,56,127
52896,note_off,0,0,0,,5,,,65,127
52896,note_off,0,0,0,,0,,,60,127
52897,note_on,1,0,0,,7,,,55,127
52897,note_on,0,0,0,,12,,,71,127
53036,note_off,139,0,0,,5,,,77,127
53037,note_on,1,0,0,,7,,,79,127
53176,note_off,139,0,0,,7,,,79,127
53177,note_on,1,0,0,,6,,,78,127
53317,note_on,140,0,0,,7,,,43,127
53456,note_off,139,0,0,,6,,,78,127
53457,note_on,1,0,0,,10,,,81,127
53596,note_off,139,0,0,,10,,,81,127
53597,note_on,1,0,0,,7,,,79,127
53736,note_off,139,0,0,,12,,,71,127
53736,note_off,0,0,0,,7,,,55,127
53945,note_off,209,0,0,,7,,,43,127
54012,note_off,67,0,0,,7,,,79,127
54645,note_on,633,0,0,,7,,,67,127
54714,note_off,69,0,0,,7,,,67,127
54715,note_on,1,0,0,,8,,,68,127
54784,note_off,69,0,0,,8,,,68,127
54785,note_on,1,0,0,,10,,,69,127
54854,note_off,69,0,0,,10,,,69,127
54855,note_on,1,0,0,,11,,,70,127
54924,note_off,69,0,0,,11,,,70,127
54925,note_on,1,0,0,,12,,,71,127
54994,note_off,69,0,0,,12,,,71,127
54995,note_on,1,0,0,,0,,,72,127
55064,note_off,69,0,0,,0,,,72,127
55065,note_on,1,0,0,,2,,,74,127
55134,note_off,69,0,0,,2,,,74,127
55135,note_on,1,0,0,,3,,,75,127
55204,note_off,69,0,0,,3,,,75,127
55205,note_on,1,0,0,,4,,,76,127
55274,note_off,69,0,0,,4,,,76,127
55275,note_on,1,0,0,,5,,,77,127
55344,note_off,69,0,0,,5,,,77,127
55345,note_on,1,0,0,,6,,,78,127
55414,note_off,69,0,0,,6,,,78,127
55415,note_on,1,0,0,,7,,,79,127
55485,note_on,70,0,0,,7,,,55,127
55554,note_off,69,0,0,,7,,,55,127
55555,note_on,1,0,0,,8,,,56,127
55624,note_off,69,0,0,,8,,,56,127
55625,note_on,1,0,0,,10,,,57,127
55694,note_off,69,0,0,,10,,,57,127
55695,note_on,1,0,0,,11,,,58,127
55764,note_off,69,0,0,,11,,,58,127
55765,note_on,1,0,0,,12,,,59,127
55834,note_off,69,0,0,,12,,,59,127
55835,note_on,1,0,0,,0,,,60,127
55904,note_off,69,0,0,,0,,,60,127
55905,note_on,1,0,0,,2,,,62,127
55974,note_off,69,0,0,,2,,,62,127
55975,note_on,1,0,0,,3,,,63,127
56044,note_off,69,0,0,,3,,,63,127
56045,note_on,1,0,0,,4,,,64,127
56114,note_off,69,0,0,,4,,,64,127
56115,note_on,1,0,0,,5,,,65,127
56184,note_off,69,0,0,,5,,,65,127
56185,note_on,1,0,0,,6,,,66,127
56254,note_off,69,0,0,,6,,,66,127
56255,note_on,1,0,0,,7,,,67,127
56394,note_off,139,0,0,,7,,,79,127
56395,note_on,1,0,0,,7,,,79,127
56534,note_off,139,0,0,,7,,,79,127
56535,note_on,1,0,0,,5,,,77,127
56674,note_off,139,0,0,,5,,,77,127
56675,note_on,1,0,0,,7,,,55,127
56675,note_on,0,0,0,,5,,,77,127
56675,note_on,0,0,0,,7,,,79,127
56814,note_off,139,0,0,,7,,,79,127
56814,note_off,0,0,0,,5,,,77,127
56815,note_on,1,0,0,,3,,,75,127
56954,note_off,139,0,0,,3,,,75,127
56955,note_on,1,0,0,,2,,,74,127
57094,note_off,139,0,0,,2,,,74,127
57094,note_off,0,0,0,,7,,,67,127
57095,note_on,1,0,0,,11,,,82,127
57095,note_on,0,0,0,,8,,,80,127
57234,note_off,139,0,0,,8,,,80,127
57234,note_off,0,0,0,,11,,,82,127
57235,note_on,1,0,0,,7,,,79,127
57374,note_off,139,0,0,,7,,,79,127
57375,note_on,1,0,0,,5,,,77,127
57514,note_off,139,0,0,,5,,,77,127
57514,note_off,0,0,0,,7,,,55,127
57515,note_on,1,0,0,,7,,,55,127
57515,note_on,0,0,0,,12,,,47,127
57515,note_on,0,0,0,,5,,,77,127
57515,note_on,0,0,0,,7,,,79,127
57654,note_off,139,0,0,,7,,,79,127
57654,note_off,0,0,0,,5,,,77,127
57655,note_on,1,0,0,,3,,,75,127
57794,note_off,139,0,0,,3,,,75,127
57795,note_on,1,0,0,,2,,,74,127
57934,note_off,139,0,0,,2,,,74,127
57934,note_off,0,0,0,,12,,,47,127
57934,note_off,0,0,0,,7,,,55,127
57935,note_on,1,0,0,,0,,,60,127
57935,note_on,0,0,0,,0,,,48,127
57935,note_on,0,0,0,,7,,,55,127
57935,note_on,0,0,0,,5,,,77,127
57935,note_on,0,0,0,,3,,,75,127
58074,note_off,139,0,0,,3,,,75,127
58074,note_off,0,0,0,,5,,,77,127
58075,note_on,1,0,0,,2,,,74,127
58214,note_off,139,0,0,,2,,,74,127
58215,note_on,1,0,0,,3,,,75,127
58354,note_off,139,0,0,,3,,,75,127
58354,note_off,0,0,0,,7,,,55,127
58354,note_off,0,0,0,,0,,,48,127
58354,note_off,0,0,0,,0,,,60,127
58355,note_on,1,0,0,,2,,,62,127
58355,note_on,0,0,0,,2,,,50,127
58355,note_on,0,0,0,,12,,,59,127
58355,note_on,0,0,0,,2,,,74,127
58494,note_off,139,0,0,,2,,,74,127
58495,note_on,1,0,0,,0,,,72,127
58634,note_off,139,0,0,,0,,,72,127
58635,note_on,1,0,0,,2,,,74,127
58774,note_off,139,0,0,,2,,,74,127
58774,note_off,0,0,0,,12,,,59,127
58774,note_off,0,0,0,,2,,,50,127
58774,note_off,0,0,0,,2,,,62,127
58775,note_on,1,0,0,,7,,,55,127
58775,note_on,0,0,0,,2,,,62,127
58775,note_on,0,0,0,,3,,,51,127
58775,note_on,0,0,0,,0,,,72,127
58915,note_on,140,0,0,,11,,,70,127
59054,note_off,139,0,0,,11,,,70,127
59055,note_on,1,0,0,,10,,,69,127
59194,note_off,139,0,0,,10,,,69,127
59194,note_off,0,0,0,,3,,,51,127
59194,note_off,0,0,0,,2,,,62,127
59194,note_off,0,0,0,,7,,,55,127
59195,note_on,1,0,0,,7,,,55,127
59195,note_on,0,0,0,,0,,,60,127
59195,note_on,0,0,0,,3,,,51,127
59195,note_on,0,0,0,,7,,,67,127
59334,note_off,139,0,0,,7,,,67,127
59335,note_on,1,0,0,,6,,,66,127
59474,note_off,139,0,0,,6,,,66,127
59475,note_on,1,0,0,,7,,,67,127
59614,note_off,139,0,0,,7,,,67,127
59614,note_off,0,0,0,,3,,,51,127
59614,note_off,0,0,0,,0,,,60,127
59614,note_off,0,0,0,,7,,,55,127
59615,note_on,1,0,0,,10,,,57,127
59615,note_on,0,0,0,,0,,,60,127
59615,note_on,0,0,0,,2,,,50,127
59615,note_on,0,0,0,,6,,,66,127
59754,note_off,139,0,0,,0,,,72,127
59755,note_on,1,0,0,,2,,,74,127
59894,note_off,139,0,0,,2,,,74,127
59895,note_on,1,0,0,,0,,,72,127
60034,note_off,139,0,0,,6,,,66,127
60034,note_off,0,0,0,,2,,,50,127
60034,note_off,0,0,0,,0,,,60,127
60034,note_off,0,0,0,,10,,,57,127
60035,note_on,1,0,0,,7,,,55,127
60035,note_on,0,0,0,,0,,,60,127
60035,note_on,0,0,0,,3,,,51,127
60035,note_on,0,0,0,,7,,,67,127
60174,note_off,139,0,0,,7,,,67,127
60175,note_on,1,0,0,,6,,,66,127
60314,note_off,139,0,0,,6,,,66,127
60315,note_on,1,0,0,,7,,,67,127
60454,note_off,139,0,0,,7,,,67,127
60454,note_off,0,0,0,,3,,,51,127
60454,note_off,0,0,0,,0,,,60,127
60454,note_off,0,0,0,,7,,,55,127
60455,note_on,1,0,0,,10,,,57,127
60455,note_on,0,0,0,,0,,,60,127
60455,note_on,0,0,0,,2,,,50,127
60455,note_on,0,0,0,,6,,,66,127
60594,note_off,139,0,0,,0,,,72,127
60595,note_on,1,0,0,,2,,,74,127
60734,note_off,139,0,0,,2,,,74,127
60735,note_on,1,0,0,,0,,,72,127
60874,note_off,139,0,0,,6,,,66,127
60874,note_off,0,0,0,,2,,,50,127
60874,note_off,0,0,0,,0,,,60,127
60874,note_off,0,0,0,,10,,,57,127
60875,note_on,1,0,0,,0,,,60,127
60875,note_on,0,0,0,,7,,,55,127
60875,note_on,0,0,0,,3,,,51,127
60875,note_on,0,0,0,,7,,,67,127
61014,note_off,139,0,0,,7,,,67,127
61015,note_on,1,0,0,,6,,,66,127
61154,note_off,139,0,0,,6,,,66,127
61155,note_on,1,0,0,,7,,,67,127
61294,note_off,139,0,0,,7,,,67,127
61294,note_off,0,0,0,,3,,,51,127
61294,note_off,0,0,0,,7,,,55,127
61294,note_off,0,0,0,,0,,,60,127
61295,note_on,1,0,0,,2,,,50,127
61295,note_on,0,0,0,,6,,,66,127
61434,note_off,139,0,0,,0,,,72,127
61435,note_on,1,0,0,,2,,,74,127
61574,note_off,139,0,0,,2,,,74,127
61575,note_on,1,0,0,,1,,,73,127
61715,note_on,140,0,0,,2,,,38,127
61854,note_off,139,0,0,,1,,,73,127
61855,note_on,1,0,0,,4,,,76,127
61994,note_off,139,0,0,,4,,,76,127
61995,note_on,1,0,0,,2,,,74,127
62134,note_off,139,0,0,,6,,,66,127
62134,note_off,0,0,0,,2,,,50,127
62343,note_off,209,0,0,,2,,,38,127
62622,note_off,279,0,0,,2,,,74,127
63042,note_on,420,0,0,,2,,,62,127
63111,note_off,69,0,0,,2,,,62,127
63112,note_on,1,0,0,,3,,,63,127
63181,note_off,69,0,0,,3,,,63,127
63182,note_on,1,0,0,,4,,,64,127
63251,note_off,69,0,0,,4,,,64,127
63252,note_on,1,0,0,,5,,,65,127
63321,note_off,69,0,0,,5,,,65,127
63322,note_on,1,0,0,,6,,,66,127
63391,note_off,69,0,0,,6,,,66,127
63392,note_on,1,0,0,,7,,,67,127
63461,note_off,69,0,0,,7,,,67,127
63462,note_on,1,0,0,,10,,,69,127
63531,note_off,69,0,0,,10,,,69,127
63532,note_on,1,0,0,,11,,,70,127
63601,note_off,69,0,0,,11,,,70,127
63602,note_on,1,0,0,,12,,,71,127
63671,note_off,69,0,0,,12,,,71,127
63672,note_on,1,0,0,,0,,,72,127
63741,note_off,69,0,0,,0,,,72,127
63742,note_on,1,0,0,,1,,,73,127
63811,note_off,69,0,0,,1,,,73,127
63812,note_on,1,0,0,,2,,,74,127
63882,note_on,70,0,0,,2,,,50,127
63951,note_off,69,0,0,,2,,,50,127
63952,note_on,1,0,0,,3,,,51,127
64021,note_off,69,0,0,,3,,,51,127
64022,note_on,1,0,0,,4,,,52,127
64091,note_off,69,0,0,,4,,,52,127
64092,note_on,1,0,0,,5,,,53,127
64161,note_off,69,0,0,,5,,,53,127
64162,note_on,1,0,0,,6,,,54,127
64231,note_off,69,0,0,,6,,,54,127
64232,note_on,1,0,0,,7,,,55,127
64301,note_off,69,0,0,,7,,,55,127
64302,note_on,1,0,0,,10,,,57,127
64371,note_off,69,0,0,,10,,,57,127
64372,note_on,1,0,0,,11,,,58,127
64441,note_off,69,0,0,,11,,,58,127
64442,note_on,1,0,0,,12,,,59,127
64511,note_off,69,0,0,,12,,,59,127
64512,note_on,1,0,0,,0,,,60,127
64581,note_off,69,0,0,,0,,,60,127
64582,note_on,1,0,0,,1,,,61,127
64651,note_off,69,0,0,,1,,,61,127
64652,note_on,1,0,0,,2,,,62,127
64791,note_off,139,0,0,,2,,,74,127
64792,note_on,1,0,0,,0,,,72,127
64931,note_off,139,0,0,,0,,,72,127
64932,note_on,1,0,0,,11,,,70,127
65071,note_off,139,0,0,,11,,,70,127
65071,note_off,0,0,0,,2,,,62,127
65072,note_on,1,0,0,,2,,,50,127
65072,note_on,0,0,0,,0,,,72,127
65072,note_on,0,0,0,,2,,,74,127
65211,note_off,139,0,0,,2,,,74,127
65211,note_off,0,0,0,,0,,,72,127
65212,note_on,1,0,0,,11,,,70,127
65351,note_off,139,0,0,,11,,,70,127
65352,note_on,1,0,0,,10,,,69,127
65491,note_off,139,0,0,,10,,,69,127
65492,note_on,1,0,0,,3,,,75,127
65492,note_on,0,0,0,,5,,,77,127
65631,note_off,139,0,0,,5,,,77,127
65631,note_off,0,0,0,,3,,,75,127
65632,note_on,1,0,0,,2,,,74,127
65771,note_off,139,0,0,,2,,,74,127
65772,note_on,1,0,0,,0,,,72,127
65911,note_off,139,0,0,,0,,,72,127
65911,note_off,0,0,0,,2,,,50,127
65912,note_on,1,0,0,,2,,,62,127
65912,note_on,0,0,0,,6,,,54,127
65912,note_on,0,0,0,,0,,,72,127
65912,note_on,0,0,0,,2,,,74,127
66051,note_off,139,0,0,,2,,,74,127
66051,note_off,0,0,0,,0,,,72,127
66052,note_on,1,0,0,,11,,,70,127
66191,note_off,139,0,0,,11,,,70,127
66192,note_on,1,0,0,,10,,,69,127
66331,note_off,139,0,0,,10,,,69,127
66331,note_off,0,0,0,,6,,,54,127
66331,note_off,0,0,0,,2,,,62,127
66332,note_on,1,0,0,,7,,,55,127
66332,note_on,0,0,0,,2,,,62,127
66332,note_on,0,0,0,,0,,,72,127
66332,note_on,0,0,0,,11,,,70,127
66471,note_off,139,0,0,,11,,,70,127
66471,note_off,0,0,0,,0,,,72,127
66472,note_on,1,0,0,,10,,,69,127
66611,note_off,139,0,0,,10,,,69,127
66612,note_on,1,0,0,,11,,,70,127
66751,note_off,139,0,0,,11,,,70,127
66751,note_off,0,0,0,,2,,,62,127
66751,note_off,0,0,0,,7,,,55,127
66752,note_on,1,0,0,,0,,,60,127
66752,note_on,0,0,0,,3,,,51,127
66752,note_on,0,0,0,,0,,,72,127
66752,note_on,0,0,0,,2,,,74,127
66891,note_off,139,0,0,,2,,,74,127
66891,note_off,0,0,0,,0,,,72,127
66892,note_on,1,0,0,,11,,,70,127
67031,note_off,139,0,0,,11,,,70,127
67032,note_on,1,0,0,,10,,,69,127
67171,note_off,139,0,0,,10,,,69,127
67171,note_off,0,0,0,,3,,,51,127
67171,note_off,0,0,0,,0,,,60,127
67172,note_on,1,0,0,,2,,,62,127
67172,note_on,0,0,0,,11,,,58,127
67172,note_on,0,0,0,,2,,,50,127
67172,note_on,0,0,0,,7,,,67,127
67590,note_off,418,0,0,,7,,,67,127
67590,note_off,0,0,0,,2,,,50,127
67590,note_off,0,0,0,,11,,,58,127
67590,note_off,0,0,0,,2,,,62,127
67591,note_on,1,0,0,,0,,,60,127
67591,note_on,0,0,0,,10,,,57,127
67591,note_on,0,0,0,,2,,,50,127
67591,note_on,0,0,0,,7,,,67,127
67660,note_off,69,0,0,,7,,,67,127
67661,note_on,1,0,0,,6,,,66,127
67730,note_off,69,0,0,,6,,,66,127
67731,note_on,1,0,0,,7,,,67,127
67800,note_off,69,0,0,,7,,,67,127
67801,note_on,1,0,0,,6,,,66,127
67870,note_off,69,0,0,,6,,,66,127
67871,note_on,1,0,0,,4,,,64,127
67940,note_off,69,0,0,,4,,,64,127
67941,note_on,1,0,0,,6,,,66,127
68010,note_off,69,0,0,,6,,,66,127
68010,note_off,0,0,0,,2,,,50,127
68010,note_off,0,0,0,,10,,,57,127
68010,note_off,0,0,0,,0,,,60,127
68011,note_on,1,0,0,,7,,,43,127
68011,note_on,0,0,0,,7,,,67,127
68429,note_off,418,0,0,,7,,,67,127
68429,note_off,0,0,0,,7,,,43,127
68430,note_on,1,0,0,,7,,,55,127
68430,note_on,0,0,0,,2,,,74,127
68430,note_on,0,0,0,,0,,,84,127
68430,note_on,0,0,0,,11,,,82,127
68569,note_off,139,0,0,,11,,,82,127
68569,note_off,0,0,0,,0,,,84,127
68570,note_on,1,0,0,,10,,,81,127
68709,note_off,139,0,0,,10,,,81,127
68710,note_on,1,0,0,,11,,,82,127
68849,note_off,139,0,0,,2,,,74,127
68849,note_off,0,0,0,,7,,,55,127
68850,note_on,1,0,0,,10,,,45,127
68850,note_on,0,0,0,,0,,,72,127
69268,note_off,418,0,0,,0,,,72,127
69268,note_off,0,0,0,,10,,,45,127
69268,note_off,0,0,0,,11,,,82,127
69269,note_on,1,0,0,,10,,,57,127
69269,note_on,0,0,0,,10,,,81,127
69269,note_on,0,0,0,,0,,,72,127
69269,note_on,0,0,0,,11,,,82,127
69408,note_off,139,0,0,,11,,,82,127
69408,note_off,0,0,0,,10,,,81,127
69409,note_on,1,0,0,,7,,,79,127
69548,note_off,139,0,0,,7,,,79,127
69549,note_on,1,0,0,,10,,,81,127
69688,note_off,139,0,0,,0,,,72,127
69688,note_off,0,0,0,,10,,,57,127
69689,note_on,1,0,0,,11,,,46,127
69689,note_on,0,0,0,,11,,,70,127
70107,note_off,418,0,0,,11,,,70,127
70107,note_off,0,0,0,,11,,,46,127
70107,note_off,0,0,0,,10,,,81,127
70108,note_on,1,0,0,,11,,,58,127
70108,note_on,0,0,0,,11,,,70,127
70108,note_on,0,0,0,,7,,,79,127
70108,note_on,0,0,0,,10,,,81,127
70247,note_off,139,0,0,,10,,,81,127
70247,note_off,0,0,0,,7,,,79,127
70248,note_on,1,0,0,,6,,,78,127
70387,note_off,139,0,0,,6,,,78,127
70388,note_on,1,0,0,,7,,,79,127
70527,note_off,139,0,0,,11,,,70,127
70527,note_off,0,0,0,,11,,,58,127
70528,note_on,1,0,0,,0,,,60,127
70528,note_on,0,0,0,,0,,,48,127
70528,note_on,0,0,0,,10,,,69,127
70667,note_off,139,0,0,,10,,,69,127
70668,note_on,1,0,0,,3,,,75,127
70807,note_off,139,0,0,,3,,,75,127
70808,note_on,1,0,0,,2,,,74,127
70947,note_off,139,0,0,,2,,,74,127
70947,note_off,0,0,0,,0,,,48,127
70947,note_off,0,0,0,,0,,,60,127
70947,note_off,0,0,0,,7,,,79,127
70948,note_on,1,0,0,,0,,,60,127
70948,note_on,0,0,0,,10,,,57,127
70948,note_on,0,0,0,,2,,,50,127
70948,note_on,0,0,0,,6,,,78,127
70948,note_on,0,0,0,,0,,,72,127
71087,note_off,139,0,0,,0,,,72,127
71088,note_on,1,0,0,,11,,,70,127
71227,note_off,139,0,0,,11,,,70,127
71228,note_on,1,0,0,,10,,,69,127
71367,note_off,139,0,0,,10,,,69,127
71367,note_off,0,0,0,,6,,,78,127
71367,note_off,0,0,0,,2,,,50,127
71367,note_off,0,0,0,,10,,,57,127
71367,note_off,0,0,0,,0,,,60,127
71368,note_on,1,0,0,,7,,,43,127
71368,note_on,0,0,0,,7,,,67,127
71368,note_on,0,0,0,,7,,,79,127
71786,note_off,418,0,0,,7,,,79,127
71786,note_off,0,0,0,,7,,,67,127
71786,note_off,0,0,0,,7,,,43,127
71787,note_on,1,0,0,,7,,,55,127
71787,note_on,0,0,0,,11,,,82,127
71787,note_on,0,0,0,,2,,,74,127
71926,note_off,139,0,0,,11,,,82,127
71927,note_on,1,0,0,,0,,,84,127
72066,note_off,139,0,0,,0,,,84,127
72067,note_on,1,0,0,,2,,,86,127
72206,note_off,139,0,0,,2,,,86,127
72206,note_off,0,0,0,,2,,,74,127
72206,note_off,0,0,0,,7,,,55,127
72207,note_on,1,0,0,,10,,,45,127
72207,note_on,0,0,0,,0,,,84,127
72207,note_on,0,0,0,,11,,,82,127
72207,note_on,0,0,0,,0,,,72,127
72346,note_off,139,0,0,,11,,,82,127
72346,note_off,0,0,0,,0,,,84,127
72347,note_on,1,0,0,,10,,,81,127
72486,note_off,139,0,0,,10,,,81,127
72487,note_on,1,0,0,,7,,,79,127
72626,note_off,139,0,0,,7,,,79,127
72626,note_off,0,0,0,,0,,,72,127
72626,note_off,0,0,0,,10,,,45,127
72627,note_on,1,0,0,,10,,,57,127
72627,note_on,0,0,0,,0,,,72,127
72627,note_on,0,0,0,,10,,,81,127
72766,note_off,139,0,0,,10,,,81,127
72767,note_on,1,0,0,,11,,,82,127
72906,note_off,139,0,0,,11,,,82,127
72907,note_on,1,0,0,,0,,,84,127
73046,note_off,139,0,0,,0,,,84,127
73046,note_off,0,0,0,,0,,,72,127
73046,note_off,0,0,0,,10,,,57,127
73047,note_on,1,0,0,,11,,,46,127
73047,note_on,0,0,0,,10,,,81,127
73047,note_on,0,0,0,,11,,,70,127
73047,note_on,0,0,0,,11,,,82,127
73186,note_off,139,0,0,,11,,,82,127
73186,note_off,0,0,0,,10,,,81,127
73187,note_on,1,0,0,,7,,,79,127
73326,note_off,139,0,0,,7,,,79,127
73327,note_on,1,0,0,,6,,,78,127
73466,note_off,139,0,0,,6,,,78,127
73466,note_off,0,0,0,,11,,,70,127
73466,note_off,0,0,0,,11,,,46,127
73467,note_on,1,0,0,,11,,,58,127
73467,note_on,0,0,0,,11,,,70,127
73467,note_on,0,0,0,,7,,,79,127
73606,note_off,139,0,0,,7,,,79,127
73607,note_on,1,0,0,,10,,,81,127
73746,note_off,139,0,0,,10,,,81,127
73747,note_on,1,0,0,,11,,,82,127
73886,note_off,139,0,0,,11,,,70,127
73886,note_off,0,0,0,,11,,,58,127
73887,note_on,1,0,0,,0,,,60,127
73887,note_on,0,0,0,,0,,,48,127
73887,note_on,0,0,0,,0,,,72,127
74026,note_off,139,0,0,,11,,,82,127
74027,note_on,1,0,0,,10,,,81,127
74166,note_off,139,0,0,,10,,,81,127
74167,note_on,1,0,0,,7,,,79,127
74306,note_off,139,0,0,,0,,,72,127
74306,note_off,0,0,0,,0,,,48,127
74306,note_off,0,0,0,,0,,,60,127
74307,note_on,1,0,0,,2,,,50,127
74307,note_on,0,0,0,,2,,,62,127
74307,note_on,0,0,0,,10,,,69,127
74446,note_off,139,0,0,,7,,,79,127
74447,note_on,1,0,0,,10,,,81,127
74586,note_off,139,0,0,,10,,,81,127
74587,note_on,1,0,0,,6,,,78,127
74726,note_off,139,0,0,,6,,,78,127
74726,note_off,0,0,0,,10,,,69,127
74726,note_off,0,0,0,,2,,,62,127
74726,note_off,0,0,0,,2,,,50,127
74727,note_on,1,0,0,,3,,,51,127
74727,note_on,0,0,0,,2,,,62,127
74727,note_on,0,0,0,,7,,,79,127
74727,note_on,0,0,0,,7,,,67,127
74866,note_off,139,0,0,,7,,,67,127
74867,note_on,1,0,0,,10,,,69,127
75006,note_off,139,0,0,,10,,,69,127
75007,note_on,1,0,0,,11,,,70,127
75146,note_off,139,0,0,,11,,,70,127
75146,note_off,0,0,0,,2,,,62,127
75146,note_off,0,0,0,,3,,,51,127
75147,note_on,1,0,0,,3,,,51,127
75147,note_on,0,0,0,,0,,,60,127
75147,note_on,0,0,0,,0,,,72,127
75286,note_off,139,0,0,,0,,,72,127
75287,note_on,1,0,0,,2,,,74,127
75426,note_off,139,0,0,,2,,,74,127
75427,note_on,1,0,0,,3,,,75,127
75566,note_off,139,0,0,,3,,,75,127
75566,note_off,0,0,0,,0,,,60,127
75566,note_off,0,0,0,,3,,,51,127
75567,note_on,1,0,0,,2,,,50,127
75567,note_on,0,0,0,,2,,,74,127
75706,note_off,139,0,0,,2,,,74,127
75707,note_on,1,0,0,,0,,,72,127
75846,note_off,139,0,0,,0,,,72,127
75847,note_on,1,0,0,,11,,,70,127
75986,note_off,139,0,0,,11,,,70,127
75986,note_off,0,0,0,,7,,,79,127
75987,note_on,1,0,0,,2,,,38,127
75987,note_on,0,0,0,,10,,,69,127
75987,note_on,0,0,0,,6,,,78,127
76126,note_off,139,0,0,,10,,,69,127
76127,note_on,1,0,0,,7,,,67,127
76266,note_off,139,0,0,,7,,,67,127
76267,note_on,1,0,0,,10,,,69,127
76406,note_off,139,0,0,,10,,,69,127
76406,note_off,0,0,0,,6,,,78,127
76406,note_off,0,0,0,,2,,,38,127
76406,note_off,0,0,0,,2,,,50,127
76415,note_on,9,0,0,,7,,,43,127
76415,note_on,0,0,0,,7,,,67,127
76415,note_on,0,0,0,,7,,,79,127
78510,note_off,2095,0,0,,7,,,79,127
78510,note_off,0,0,0,,7,,,67,127
78510,note_off,0,0,0,,7,,,43,127
79872,end_of_track,1362,1,0,,,,,,
