tick,type,time,meta,track,program,channel,pitch,tempo,note,velocity
0,copyright,0,1,0,,,,,,
0,program_change,0,0,0,6,0,,,,
0,pitchwheel,0,0,0,,0,0,,,
0,program_change,0,0,0,6,1,,,,
0,pitchwheel,0,0,0,,1,-590,,,
0,program_change,0,0,0,6,2,,,,
0,pitchwheel,0,0,0,,2,-272,,,
0,program_change,0,0,0,6,3,,,,
0,pitchwheel,0,0,0,,3,-353,,,
0,program_change,0,0,0,6,4,,,,
0,pitchwheel,0,0,0,,4,-560,,,
0,program_change,0,0,0,6,5,,,,
0,pitchwheel,0,0,0,,5,-80,,,
0,program_change,0,0,0,6,6,,,,
0,pitchwheel,0,0,0,,6,-625,,,
0,program_change,0,0,0,6,7,,,,
0,pitchwheel,0,0,0,,7,-130,,,
0,program_change,0,0,0,6,8,,,,
0,pitchwheel,0,0,0,,8,-512,,,
0,program_change,0,0,0,6,10,,,,
0,pitchwheel,0,0,0,,10,-464,,,
0,program_change,0,0,0,6,11,,,,
0,pitchwheel,0,0,0,,11,-208,,,
0,program_change,0,0,0,6,12,,,,
0,pitchwheel,0,0,0,,12,-553,,,
0,set_tempo,0,1,0,,,,500000,,
78,note_on,78,0,0,,7,,,43,127
78,note_on,0,0,0,,7,,,67,127
156,note_on,78,0,0,,12,,,71,127
167,note_off,11,0,0,,7,,,67,127
234,note_on,67,0,0,,10,,,69,127
245,note_off,11,0,0,,12,,,71,127
312,note_on,67,0,0,,0,,,72,127
323,note_off,11,0,0,,10,,,69,127
351,note_off,28,0,0,,7,,,43,127
390,note_on,39,0,0,,12,,,71,127
401,note_off,11,0,0,,0,,,72,127
468,note_on,67,0,0,,2,,,74,127
479,note_off,11,0,0,,12,,,71,127
546,note_on,67,0,0,,0,,,72,127
557,note_off,11,0,0,,2,,,74,127
624,note_on,67,0,0,,4,,,76,127
635,note_off,11,0,0,,0,,,72,127
702,note_on,67,0,0,,2,,,74,127
713,note_off,11,0,0,,4,,,76,127
780,note_on,67,0,0,,6,,,78,127
791,note_off,11,0,0,,2,,,74,127
858,note_on,67,0,0,,4,,,76,127
869,note_off,11,0,0,,6,,,78,127
936,note_on,67,0,0,,7,,,79,127
947,note_off,11,0,0,,4,,,76,127
1014,note_on,67,0,0,,6,,,78,127
1025,note_off,11,0,0,,7,,,79,127
1092,note_on,67,0,0,,10,,,81,127
1103,note_off,11,0,0,,6,,,78,127
1170,note_on,67,0,0,,7,,,79,127
1181,note_off,11,0,0,,10,,,81,127
1248,note_on,67,0,0,,12,,,83,127
1259,note_off,11,0,0,,7,,,79,127
1326,note_on,67,0,0,,10,,,81,127
1337,note_off,11,0,0,,12,,,83,127
1404,note_on,67,0,0,,7,,,79,127
1415,note_off,11,0,0,,10,,,81,127
1482,note_on,67,0,0,,6,,,78,127
1493,note_off,11,0,0,,7,,,79,127
1560,note_on,67,0,0,,4,,,76,127
1571,note_off,11,0,0,,6,,,78,127
1639,note_on,68,0,0,,2,,,74,127
1649,note_off,10,0,0,,4,,,76,127
1717,note_on,68,0,0,,0,,,72,127
1728,note_off,11,0,0,,2,,,74,127
1795,note_on,67,0,0,,12,,,71,127
1806,note_off,11,0,0,,0,,,72,127
1873,note_on,67,0,0,,10,,,69,127
1884,note_off,11,0,0,,12,,,71,127
1951,note_on,67,0,0,,7,,,55,127
1951,note_on,0,0,0,,12,,,71,127
1962,note_off,11,0,0,,10,,,69,127
2029,note_on,67,0,0,,12,,,59,127
2040,note_off,11,0,0,,7,,,55,127
2107,note_on,67,0,0,,10,,,57,127
2118,note_off,11,0,0,,12,,,59,127
2185,note_on,67,0,0,,0,,,60,127
2196,note_off,11,0,0,,10,,,57,127
2224,note_off,28,0,0,,12,,,71,127
2263,note_on,39,0,0,,12,,,59,127
2274,note_off,11,0,0,,0,,,60,127
2341,note_on,67,0,0,,2,,,62,127
2352,note_off,11,0,0,,12,,,59,127
2419,note_on,67,0,0,,0,,,60,127
2430,note_off,11,0,0,,2,,,62,127
2497,note_on,67,0,0,,4,,,64,127
2508,note_off,11,0,0,,0,,,60,127
2575,note_on,67,0,0,,2,,,62,127
2586,note_off,11,0,0,,4,,,64,127
2653,note_on,67,0,0,,6,,,66,127
2664,note_off,11,0,0,,2,,,62,127
2731,note_on,67,0,0,,4,,,64,127
2742,note_off,11,0,0,,6,,,66,127
2809,note_on,67,0,0,,7,,,67,127
2820,note_off,11,0,0,,4,,,64,127
2887,note_on,67,0,0,,6,,,66,127
2898,note_off,11,0,0,,7,,,67,127
2965,note_on,67,0,0,,10,,,69,127
2976,note_off,11,0,0,,6,,,66,127
3043,note_on,67,0,0,,7,,,67,127
3054,note_off,11,0,0,,10,,,69,127
3121,note_on,67,0,0,,12,,,71,127
3132,note_off,11,0,0,,7,,,67,127
3200,note_on,68,0,0,,10,,,69,127
3210,note_off,10,0,0,,12,,,71,127
3278,note_on,68,0,0,,7,,,67,127
3289,note_off,11,0,0,,10,,,69,127
3356,note_on,67,0,0,,6,,,66,127
3367,note_off,11,0,0,,7,,,67,127
3434,note_on,67,0,0,,4,,,64,127
3445,note_off,11,0,0,,6,,,66,127
3512,note_on,67,0,0,,2,,,62,127
3523,note_off,11,0,0,,4,,,64,127
3590,note_on,67,0,0,,0,,,60,127
3601,note_off,11,0,0,,2,,,62,127
3668,note_on,67,0,0,,12,,,59,127
3679,note_off,11,0,0,,0,,,60,127
3746,note_on,67,0,0,,10,,,57,127
3757,note_off,11,0,0,,12,,,59,127
3824,note_on,67,0,0,,7,,,55,127
3835,note_off,11,0,0,,10,,,57,127
3902,note_on,67,0,0,,2,,,74,127
3980,note_on,78,0,0,,4,,,76,127
3991,note_off,11,0,0,,2,,,74,127
4058,note_on,67,0,0,,6,,,78,127
4069,note_off,11,0,0,,4,,,76,127
4097,note_off,28,0,0,,7,,,55,127
4136,note_on,39,0,0,,7,,,79,127
4147,note_off,11,0,0,,6,,,78,127
4214,note_on,67,0,0,,2,,,74,127
4225,note_off,11,0,0,,7,,,79,127
4292,note_on,67,0,0,,12,,,71,127
4303,note_off,11,0,0,,2,,,74,127
4370,note_on,67,0,0,,7,,,67,127
4381,note_off,11,0,0,,12,,,71,127
4448,note_on,67,0,0,,2,,,50,127
4448,note_on,0,0,0,,2,,,62,127
4459,note_off,11,0,0,,7,,,67,127
4526,note_on,67,0,0,,0,,,72,127
4537,note_off,11,0,0,,2,,,62,127
4604,note_on,67,0,0,,12,,,71,127
4615,note_off,11,0,0,,0,,,72,127
4682,note_on,67,0,0,,10,,,69,127
4693,note_off,11,0,0,,12,,,71,127
4721,note_off,28,0,0,,2,,,50,127
4760,note_on,39,0,0,,7,,,43,127
4760,note_on,0,0,0,,12,,,71,127
4771,note_off,11,0,0,,10,,,69,127
4839,note_on,68,0,0,,2,,,74,127
4849,note_off,10,0,0,,12,,,71,127
4917,note_on,68,0,0,,4,,,76,127
4928,note_off,11,0,0,,2,,,74,127
4995,note_on,67,0,0,,6,,,78,127
5006,note_off,11,0,0,,4,,,76,127
5033,note_off,27,0,0,,7,,,43,127
5073,note_on,40,0,0,,7,,,79,127
5084,note_off,11,0,0,,6,,,78,127
5151,note_on,67,0,0,,2,,,74,127
5162,note_off,11,0,0,,7,,,79,127
5229,note_on,67,0,0,,12,,,71,127
5240,note_off,11,0,0,,2,,,74,127
5307,note_on,67,0,0,,7,,,67,127
5318,note_off,11,0,0,,12,,,71,127
5385,note_on,67,0,0,,2,,,50,127
5385,note_on,0,0,0,,2,,,62,127
5396,note_off,11,0,0,,7,,,67,127
5463,note_on,67,0,0,,0,,,72,127
5474,note_off,11,0,0,,2,,,62,127
5541,note_on,67,0,0,,12,,,71,127
5552,note_off,11,0,0,,0,,,72,127
5619,note_on,67,0,0,,10,,,69,127
5630,note_off,11,0,0,,12,,,71,127
5658,note_off,28,0,0,,2,,,50,127
5697,note_on,39,0,0,,7,,,43,127
5697,note_on,0,0,0,,12,,,71,127
5708,note_off,11,0,0,,10,,,69,127
5775,note_on,67,0,0,,2,,,62,127
5786,note_off,11,0,0,,7,,,43,127
5853,note_on,67,0,0,,4,,,64,127
5864,note_off,11,0,0,,2,,,62,127
5931,note_on,67,0,0,,6,,,66,127
5942,note_off,11,0,0,,4,,,64,127
5970,note_off,28,0,0,,12,,,71,127
6009,note_on,39,0,0,,7,,,67,127
6020,note_off,11,0,0,,6,,,66,127
6087,note_on,67,0,0,,2,,,62,127
6098,note_off,11,0,0,,7,,,67,127
6165,note_on,67,0,0,,12,,,59,127
6176,note_off,11,0,0,,2,,,62,127
6243,note_on,67,0,0,,7,,,55,127
6254,note_off,11,0,0,,12,,,59,127
6321,note_on,67,0,0,,2,,,50,127
6321,note_on,0,0,0,,2,,,74,127
6332,note_off,11,0,0,,7,,,55,127
6373,note_on,41,0,0,,0,,,72,127
6394,note_off,21,0,0,,2,,,74,127
6400,note_on,6,0,0,,0,,,60,127
6410,note_off,10,0,0,,2,,,50,127
6426,note_on,16,0,0,,2,,,74,127
6446,note_off,20,0,0,,0,,,72,127
6478,note_on,32,0,0,,0,,,72,127
6478,note_on,0,0,0,,12,,,59,127
6489,note_off,11,0,0,,0,,,60,127
6499,note_off,10,0,0,,2,,,74,127
6530,note_on,31,0,0,,2,,,74,127
6551,note_off,21,0,0,,0,,,72,127
6556,note_on,5,0,0,,10,,,57,127
6567,note_off,11,0,0,,12,,,59,127
6582,note_on,15,0,0,,0,,,72,127
6603,note_off,21,0,0,,2,,,74,127
6634,note_off,31,0,0,,0,,,72,127
6634,note_on,0,0,0,,7,,,55,127
6634,note_on,0,0,0,,12,,,71,127
6645,note_off,11,0,0,,10,,,57,127
6712,note_on,67,0,0,,2,,,62,127
6723,note_off,11,0,0,,7,,,55,127
6790,note_on,67,0,0,,4,,,64,127
6801,note_off,11,0,0,,2,,,62,127
6868,note_on,67,0,0,,6,,,66,127
6879,note_off,11,0,0,,4,,,64,127
6907,note_off,28,0,0,,12,,,71,127
6946,note_on,39,0,0,,7,,,67,127
6957,note_off,11,0,0,,6,,,66,127
7024,note_on,67,0,0,,2,,,62,127
7035,note_off,11,0,0,,7,,,67,127
7102,note_on,67,0,0,,12,,,59,127
7113,note_off,11,0,0,,2,,,62,127
7180,note_on,67,0,0,,7,,,55,127
7191,note_off,11,0,0,,12,,,59,127
7258,note_on,67,0,0,,2,,,74,127
7258,note_on,0,0,0,,2,,,50,127
7269,note_off,11,0,0,,7,,,55,127
7310,note_on,41,0,0,,0,,,72,127
7331,note_off,21,0,0,,2,,,74,127
7336,note_on,5,0,0,,0,,,60,127
7347,note_off,11,0,0,,2,,,50,127
7362,note_on,15,0,0,,2,,,74,127
7383,note_off,21,0,0,,0,,,72,127
7414,note_on,31,0,0,,0,,,72,127
7414,note_on,0,0,0,,12,,,59,127
7425,note_off,11,0,0,,0,,,60,127
7435,note_off,10,0,0,,2,,,74,127
7466,note_on,31,0,0,,2,,,74,127
7487,note_off,21,0,0,,0,,,72,127
7492,note_on,5,0,0,,10,,,57,127
7503,note_off,11,0,0,,12,,,59,127
7518,note_on,15,0,0,,0,,,72,127
7539,note_off,21,0,0,,2,,,74,127
7570,note_off,31,0,0,,0,,,72,127
7570,note_on,0,0,0,,7,,,55,127
7570,note_on,0,0,0,,12,,,71,127
7581,note_off,11,0,0,,10,,,57,127
7648,note_on,67,0,0,,7,,,79,127
7659,note_off,11,0,0,,12,,,71,127
7726,note_on,67,0,0,,6,,,78,127
7737,note_off,11,0,0,,7,,,79,127
7804,note_on,67,0,0,,7,,,79,127
7815,note_off,11,0,0,,6,,,78,127
7843,note_off,28,0,0,,7,,,55,127
7882,note_on,39,0,0,,12,,,83,127
7893,note_off,11,0,0,,7,,,79,127
7960,note_on,67,0,0,,7,,,79,127
7971,note_off,11,0,0,,12,,,83,127
8039,note_on,68,0,0,,6,,,78,127
8049,note_off,10,0,0,,7,,,79,127
8117,note_on,68,0,0,,7,,,79,127
8128,note_off,11,0,0,,6,,,78,127
8195,note_on,67,0,0,,7,,,43,127
8195,note_on,0,0,0,,12,,,71,127
8206,note_off,11,0,0,,7,,,79,127
8273,note_on,67,0,0,,12,,,83,127
8284,note_off,11,0,0,,12,,,71,127
8351,note_on,67,0,0,,10,,,81,127
8362,note_off,11,0,0,,12,,,83,127
8429,note_on,67,0,0,,7,,,79,127
8440,note_off,11,0,0,,10,,,81,127
8468,note_off,28,0,0,,7,,,43,127
8507,note_on,39,0,0,,6,,,42,127
8507,note_on,0,0,0,,10,,,69,127
8518,note_off,11,0,0,,7,,,79,127
8585,note_on,67,0,0,,6,,,78,127
8596,note_off,11,0,0,,10,,,69,127
8663,note_on,67,0,0,,4,,,76,127
8674,note_off,11,0,0,,6,,,78,127
8741,note_on,67,0,0,,6,,,78,127
8752,note_off,11,0,0,,4,,,76,127
8780,note_off,28,0,0,,6,,,42,127
8819,note_on,39,0,0,,10,,,81,127
8830,note_off,11,0,0,,6,,,78,127
8897,note_on,67,0,0,,6,,,78,127
8908,note_off,11,0,0,,10,,,81,127
8975,note_on,67,0,0,,4,,,76,127
8986,note_off,11,0,0,,6,,,78,127
9053,note_on,67,0,0,,6,,,78,127
9064,note_off,11,0,0,,4,,,76,127
9131,note_on,67,0,0,,6,,,54,127
9131,note_on,0,0,0,,10,,,69,127
9142,note_off,11,0,0,,6,,,78,127
9209,note_on,67,0,0,,10,,,81,127
9220,note_off,11,0,0,,10,,,69,127
9287,note_on,67,0,0,,7,,,79,127
9298,note_off,11,0,0,,10,,,81,127
9365,note_on,67,0,0,,6,,,78,127
9376,note_off,11,0,0,,7,,,79,127
9404,note_off,28,0,0,,6,,,54,127
9443,note_on,39,0,0,,4,,,52,127
9443,note_on,0,0,0,,7,,,67,127
9454,note_off,11,0,0,,6,,,78,127
9521,note_on,67,0,0,,4,,,76,127
9532,note_off,11,0,0,,7,,,67,127
9600,note_on,68,0,0,,2,,,74,127
9610,note_off,10,0,0,,4,,,76,127
9678,note_on,68,0,0,,4,,,76,127
9689,note_off,11,0,0,,2,,,74,127
9716,note_off,27,0,0,,4,,,52,127
9756,note_on,40,0,0,,7,,,79,127
9767,note_off,11,0,0,,4,,,76,127
9834,note_on,67,0,0,,4,,,76,127
9845,note_off,11,0,0,,7,,,79,127
9912,note_on,67,0,0,,2,,,74,127
9923,note_off,11,0,0,,4,,,76,127
9990,note_on,67,0,0,,4,,,76,127
10001,note_off,11,0,0,,2,,,74,127
10068,note_on,67,0,0,,10,,,45,127
10068,note_on,0,0,0,,7,,,67,127
10079,note_off,11,0,0,,4,,,76,127
10146,note_on,67,0,0,,7,,,79,127
10157,note_off,11,0,0,,7,,,67,127
10224,note_on,67,0,0,,6,,,78,127
10235,note_off,11,0,0,,7,,,79,127
10302,note_on,67,0,0,,4,,,76,127
10313,note_off,11,0,0,,6,,,78,127
10341,note_off,28,0,0,,10,,,45,127
10380,note_on,39,0,0,,2,,,50,127
10380,note_on,0,0,0,,2,,,74,127
10391,note_off,11,0,0,,4,,,76,127
10458,note_on,67,0,0,,2,,,62,127
10469,note_off,11,0,0,,2,,,50,127
10536,note_on,67,0,0,,1,,,61,127
10547,note_off,11,0,0,,2,,,62,127
10614,note_on,67,0,0,,2,,,62,127
10625,note_off,11,0,0,,1,,,61,127
10653,note_off,28,0,0,,2,,,74,127
10692,note_on,39,0,0,,6,,,66,127
10692,note_on,0,0,0,,2,,,74,127
10703,note_off,11,0,0,,2,,,62,127
10770,note_on,67,0,0,,2,,,62,127
10781,note_off,11,0,0,,6,,,66,127
10848,note_on,67,0,0,,1,,,61,127
10859,note_off,11,0,0,,2,,,62,127
10926,note_on,67,0,0,,2,,,62,127
10937,note_off,11,0,0,,1,,,61,127
10965,note_off,28,0,0,,2,,,74,127
11004,note_on,39,0,0,,2,,,50,127
11004,note_on,0,0,0,,6,,,78,127
11015,note_off,11,0,0,,2,,,62,127
11082,note_on,67,0,0,,2,,,62,127
11093,note_off,11,0,0,,2,,,50,127
11160,note_on,67,0,0,,1,,,61,127
11171,note_off,11,0,0,,2,,,62,127
11239,note_on,68,0,0,,12,,,59,127
11249,note_off,10,0,0,,1,,,61,127
11277,note_off,28,0,0,,6,,,78,127
11317,note_on,40,0,0,,10,,,45,127
11317,note_on,0,0,0,,10,,,81,127
11328,note_off,11,0,0,,12,,,59,127
11395,note_on,67,0,0,,10,,,57,127
11406,note_off,11,0,0,,10,,,45,127
11473,note_on,67,0,0,,8,,,56,127
11484,note_off,11,0,0,,10,,,57,127
11551,note_on,67,0,0,,10,,,57,127
11562,note_off,11,0,0,,8,,,56,127
11590,note_off,28,0,0,,10,,,81,127
11629,note_on,39,0,0,,1,,,61,127
11629,note_on,0,0,0,,10,,,69,127
11640,note_off,11,0,0,,10,,,57,127
11707,note_on,67,0,0,,10,,,57,127
11718,note_off,11,0,0,,1,,,61,127
11785,note_on,67,0,0,,8,,,56,127
11796,note_off,11,0,0,,10,,,57,127
11863,note_on,67,0,0,,10,,,57,127
11874,note_off,11,0,0,,8,,,56,127
11902,note_off,28,0,0,,10,,,69,127
11941,note_on,39,0,0,,10,,,45,127
11941,note_on,0,0,0,,7,,,79,127
11952,note_off,11,0,0,,10,,,57,127
12019,note_on,67,0,0,,7,,,55,127
12030,note_off,11,0,0,,10,,,45,127
12097,note_on,67,0,0,,6,,,54,127
12108,note_off,11,0,0,,7,,,55,127
12175,note_on,67,0,0,,4,,,52,127
12186,note_off,11,0,0,,6,,,54,127
12214,note_off,28,0,0,,7,,,79,127
12253,note_on,39,0,0,,2,,,50,127
12253,note_on,0,0,0,,6,,,78,127
12264,note_off,11,0,0,,4,,,52,127
12331,note_on,67,0,0,,2,,,62,127
12342,note_off,11,0,0,,2,,,50,127
12409,note_on,67,0,0,,1,,,61,127
12420,note_off,11,0,0,,2,,,62,127
12487,note_on,67,0,0,,2,,,62,127
12498,note_off,11,0,0,,1,,,61,127
12526,note_off,28,0,0,,6,,,78,127
12565,note_on,39,0,0,,6,,,66,127
12565,note_on,0,0,0,,2,,,74,127
12576,note_off,11,0,0,,2,,,62,127
12643,note_on,67,0,0,,2,,,62,127
12654,note_off,11,0,0,,6,,,66,127
12721,note_on,67,0,0,,1,,,61,127
12732,note_off,11,0,0,,2,,,62,127
12800,note_on,68,0,0,,2,,,62,127
12810,note_off,10,0,0,,1,,,61,127
12838,note_off,28,0,0,,2,,,74,127
12878,note_on,40,0,0,,2,,,50,127
12878,note_on,0,0,0,,6,,,78,127
12889,note_off,11,0,0,,2,,,62,127
12956,note_on,67,0,0,,2,,,62,127
12967,note_off,11,0,0,,2,,,50,127
13034,note_on,67,0,0,,1,,,61,127
13045,note_off,11,0,0,,2,,,62,127
13112,note_on,67,0,0,,12,,,59,127
13123,note_off,11,0,0,,1,,,61,127
13151,note_off,28,0,0,,6,,,78,127
13190,note_on,39,0,0,,10,,,45,127
13190,note_on,0,0,0,,10,,,69,127
13201,note_off,11,0,0,,12,,,59,127
13268,note_on,67,0,0,,1,,,49,127
13279,note_off,11,0,0,,10,,,45,127
13346,note_on,67,0,0,,4,,,52,127
13357,note_off,11,0,0,,1,,,49,127
13424,note_on,67,0,0,,10,,,57,127
13435,note_off,11,0,0,,4,,,52,127
13463,note_off,28,0,0,,10,,,69,127
13502,note_on,39,0,0,,1,,,61,127
13502,note_on,0,0,0,,10,,,81,127
13513,note_off,11,0,0,,10,,,57,127
13580,note_on,67,0,0,,4,,,64,127
13591,note_off,11,0,0,,1,,,61,127
13658,note_on,67,0,0,,1,,,61,127
13669,note_off,11,0,0,,4,,,64,127
13736,note_on,67,0,0,,10,,,57,127
13747,note_off,11,0,0,,1,,,61,127
13775,note_off,28,0,0,,10,,,81,127
13814,note_on,39,0,0,,6,,,66,127
13814,note_on,0,0,0,,2,,,74,127
13814,note_on,0,0,0,,6,,,78,127
13825,note_off,11,0,0,,10,,,57,127
13892,note_on,67,0,0,,10,,,69,127
13903,note_off,11,0,0,,6,,,66,127
13970,note_on,67,0,0,,6,,,66,127
13981,note_off,11,0,0,,10,,,69,127
14048,note_on,67,0,0,,2,,,62,127
14059,note_off,11,0,0,,6,,,66,127
14087,note_off,28,0,0,,6,,,78,127
14125,note_off,38,0,0,,2,,,74,127
14126,note_on,1,0,0,,10,,,45,127
14126,note_on,0,0,0,,4,,,76,127
14126,note_on,0,0,0,,1,,,73,127
14137,note_off,11,0,0,,2,,,62,127
14204,note_on,67,0,0,,1,,,49,127
14215,note_off,11,0,0,,10,,,45,127
14282,note_on,67,0,0,,4,,,52,127
14293,note_off,11,0,0,,1,,,49,127
14360,note_on,67,0,0,,10,,,57,127
14371,note_off,11,0,0,,4,,,52,127
14399,note_off,28,0,0,,1,,,73,127
14399,note_off,0,0,0,,4,,,76,127
14439,note_on,40,0,0,,1,,,61,127
14439,note_on,0,0,0,,10,,,81,127
14449,note_off,10,0,0,,10,,,57,127
14517,note_on,68,0,0,,4,,,64,127
14528,note_off,11,0,0,,1,,,61,127
14595,note_on,67,0,0,,1,,,61,127
14606,note_off,11,0,0,,4,,,64,127
14673,note_on,67,0,0,,10,,,57,127
14684,note_off,11,0,0,,1,,,61,127
14712,note_off,28,0,0,,10,,,81,127
14751,note_on,39,0,0,,6,,,66,127
14751,note_on,0,0,0,,2,,,74,127
14751,note_on,0,0,0,,6,,,78,127
14762,note_off,11,0,0,,10,,,57,127
14829,note_on,67,0,0,,10,,,69,127
14840,note_off,11,0,0,,6,,,66,127
14907,note_on,67,0,0,,6,,,66,127
14918,note_off,11,0,0,,10,,,69,127
14985,note_on,67,0,0,,2,,,62,127
14996,note_off,11,0,0,,6,,,66,127
15024,note_off,28,0,0,,6,,,78,127
15062,note_off,38,0,0,,2,,,74,127
15063,note_on,1,0,0,,7,,,43,127
15063,note_on,0,0,0,,1,,,73,127
15063,note_on,0,0,0,,4,,,76,127
15074,note_off,11,0,0,,2,,,62,127
15141,note_on,67,0,0,,1,,,49,127
15152,note_off,11,0,0,,7,,,43,127
15219,note_on,67,0,0,,4,,,52,127
15230,note_off,11,0,0,,1,,,49,127
15297,note_on,67,0,0,,7,,,55,127
15308,note_off,11,0,0,,4,,,52,127
15336,note_off,28,0,0,,4,,,76,127
15336,note_off,0,0,0,,1,,,73,127
15375,note_on,39,0,0,,1,,,61,127
15375,note_on,0,0,0,,7,,,79,127
15386,note_off,11,0,0,,7,,,55,127
15453,note_on,67,0,0,,4,,,64,127
15464,note_off,11,0,0,,1,,,61,127
15531,note_on,67,0,0,,1,,,61,127
15542,note_off,11,0,0,,4,,,64,127
15609,note_on,67,0,0,,7,,,55,127
15620,note_off,11,0,0,,1,,,61,127
15648,note_off,28,0,0,,7,,,79,127
15687,note_on,39,0,0,,4,,,64,127
15687,note_on,0,0,0,,4,,,76,127
15687,note_on,0,0,0,,1,,,73,127
15698,note_off,11,0,0,,7,,,55,127
15765,note_on,67,0,0,,7,,,67,127
15776,note_off,11,0,0,,4,,,64,127
15843,note_on,67,0,0,,4,,,64,127
15854,note_off,11,0,0,,7,,,67,127
15921,note_on,67,0,0,,1,,,61,127
15932,note_off,11,0,0,,4,,,64,127
15960,note_off,28,0,0,,4,,,76,127
15998,note_off,38,0,0,,1,,,73,127
16000,note_on,2,0,0,,6,,,42,127
16010,note_off,10,0,0,,1,,,61,127
16078,note_on,68,0,0,,10,,,81,127
16156,note_on,78,0,0,,8,,,80,127
16167,note_off,11,0,0,,10,,,81,127
16234,note_on,67,0,0,,10,,,81,127
16245,note_off,11,0,0,,8,,,80,127
16273,note_off,28,0,0,,6,,,42,127
16312,note_on,39,0,0,,6,,,66,127
16390,note_off,78,0,0,,10,,,81,127
16390,note_on,0,0,0,,7,,,79,127
16468,note_on,78,0,0,,6,,,78,127
16479,note_off,11,0,0,,7,,,79,127
16546,note_on,67,0,0,,4,,,76,127
16557,note_off,11,0,0,,6,,,78,127
16585,note_off,28,0,0,,6,,,66,127
16624,note_on,39,0,0,,6,,,42,127
16624,note_on,0,0,0,,2,,,74,127
16635,note_off,11,0,0,,4,,,76,127
16702,note_on,67,0,0,,1,,,73,127
16713,note_off,11,0,0,,2,,,74,127
16780,note_on,67,0,0,,12,,,71,127
16791,note_off,11,0,0,,1,,,73,127
16858,note_on,67,0,0,,10,,,69,127
16869,note_off,11,0,0,,12,,,71,127
16897,note_off,28,0,0,,6,,,42,127
16936,note_on,39,0,0,,7,,,43,127
16936,note_on,0,0,0,,12,,,71,127
16947,note_off,11,0,0,,10,,,69,127
17014,note_on,67,0,0,,7,,,79,127
17025,note_off,11,0,0,,12,,,71,127
17092,note_on,67,0,0,,6,,,78,127
17103,note_off,11,0,0,,7,,,79,127
17170,note_on,67,0,0,,7,,,79,127
17181,note_off,11,0,0,,6,,,78,127
17209,note_off,28,0,0,,7,,,43,127
17248,note_on,39,0,0,,10,,,45,127
17248,note_on,0,0,0,,10,,,69,127
17259,note_off,11,0,0,,7,,,79,127
17326,note_on,67,0,0,,6,,,78,127
17337,note_off,11,0,0,,10,,,69,127
17404,note_on,67,0,0,,4,,,76,127
17415,note_off,11,0,0,,6,,,78,127
17482,note_on,67,0,0,,6,,,78,127
17493,note_off,11,0,0,,4,,,76,127
17521,note_off,28,0,0,,10,,,45,127
17560,note_on,39,0,0,,10,,,45,127
17560,note_on,0,0,0,,7,,,67,127
17571,note_off,11,0,0,,6,,,78,127
17639,note_on,68,0,0,,4,,,76,127
17649,note_off,10,0,0,,7,,,67,127
17717,note_on,68,0,0,,2,,,74,127
17728,note_off,11,0,0,,4,,,76,127
17795,note_on,67,0,0,,1,,,73,127
17806,note_off,11,0,0,,2,,,74,127
17833,note_off,27,0,0,,10,,,45,127
17873,note_on,40,0,0,,2,,,38,127
17873,note_on,0,0,0,,10,,,81,127
17884,note_off,11,0,0,,1,,,73,127
17951,note_on,67,0,0,,7,,,79,127
17962,note_off,11,0,0,,10,,,81,127
18029,note_on,67,0,0,,6,,,78,127
18040,note_off,11,0,0,,7,,,79,127
18107,note_on,67,0,0,,4,,,76,127
18118,note_off,11,0,0,,6,,,78,127
18146,note_off,28,0,0,,2,,,38,127
18185,note_on,39,0,0,,6,,,42,127
18185,note_on,0,0,0,,2,,,74,127
18196,note_off,11,0,0,,4,,,76,127
18263,note_on,67,0,0,,1,,,73,127
18274,note_off,11,0,0,,2,,,74,127
18341,note_on,67,0,0,,12,,,71,127
18352,note_off,11,0,0,,1,,,73,127
18419,note_on,67,0,0,,10,,,69,127
18430,note_off,11,0,0,,12,,,71,127
18458,note_off,28,0,0,,6,,,42,127
18497,note_on,39,0,0,,7,,,43,127
18497,note_on,0,0,0,,7,,,67,127
18508,note_off,11,0,0,,10,,,69,127
18575,note_on,67,0,0,,6,,,66,127
18586,note_off,11,0,0,,7,,,67,127
18653,note_on,67,0,0,,4,,,64,127
18664,note_off,11,0,0,,6,,,66,127
18731,note_on,67,0,0,,2,,,62,127
18742,note_off,11,0,0,,4,,,64,127
18770,note_off,28,0,0,,7,,,43,127
18809,note_on,39,0,0,,10,,,45,127
18809,note_on,0,0,0,,10,,,69,127
18820,note_off,11,0,0,,2,,,62,127
18887,note_on,67,0,0,,1,,,49,127
18898,note_off,11,0,0,,10,,,45,127
18965,note_on,67,0,0,,4,,,52,127
18976,note_off,11,0,0,,1,,,49,127
19043,note_on,67,0,0,,10,,,57,127
19054,note_off,11,0,0,,4,,,52,127
19082,note_off,28,0,0,,10,,,69,127
19121,note_on,39,0,0,,1,,,61,127
19121,note_on,0,0,0,,10,,,81,127
19132,note_off,11,0,0,,10,,,57,127
19200,note_on,68,0,0,,4,,,64,127
19210,note_off,10,0,0,,1,,,61,127
19278,note_on,68,0,0,,1,,,61,127
19289,note_off,11,0,0,,4,,,64,127
19356,note_on,67,0,0,,10,,,57,127
19367,note_off,11,0,0,,1,,,61,127
19394,note_off,27,0,0,,10,,,81,127
19434,note_on,40,0,0,,6,,,66,127
19434,note_on,0,0,0,,2,,,74,127
19434,note_on,0,0,0,,6,,,78,127
19445,note_off,11,0,0,,10,,,57,127
19512,note_on,67,0,0,,10,,,69,127
19523,note_off,11,0,0,,6,,,66,127
19590,note_on,67,0,0,,6,,,66,127
19601,note_off,11,0,0,,10,,,69,127
19668,note_on,67,0,0,,2,,,62,127
19679,note_off,11,0,0,,6,,,66,127
19707,note_off,28,0,0,,6,,,78,127
19745,note_off,38,0,0,,2,,,74,127
19746,note_on,1,0,0,,10,,,45,127
19746,note_on,0,0,0,,4,,,76,127
19746,note_on,0,0,0,,1,,,73,127
19757,note_off,11,0,0,,2,,,62,127
19824,note_on,67,0,0,,1,,,49,127
19835,note_off,11,0,0,,10,,,45,127
19902,note_on,67,0,0,,4,,,52,127
19913,note_off,11,0,0,,1,,,49,127
19980,note_on,67,0,0,,10,,,57,127
19991,note_off,11,0,0,,4,,,52,127
20019,note_off,28,0,0,,1,,,73,127
20019,note_off,0,0,0,,4,,,76,127
20058,note_on,39,0,0,,1,,,61,127
20058,note_on,0,0,0,,10,,,81,127
20069,note_off,11,0,0,,10,,,57,127
20136,note_on,67,0,0,,4,,,64,127
20147,note_off,11,0,0,,1,,,61,127
20214,note_on,67,0,0,,1,,,61,127
20225,note_off,11,0,0,,4,,,64,127
20292,note_on,67,0,0,,10,,,57,127
20303,note_off,11,0,0,,1,,,61,127
20331,note_off,28,0,0,,10,,,81,127
20370,note_on,39,0,0,,6,,,66,127
20370,note_on,0,0,0,,2,,,74,127
20370,note_on,0,0,0,,6,,,78,127
20381,note_off,11,0,0,,10,,,57,127
20448,note_on,67,0,0,,10,,,69,127
20459,note_off,11,0,0,,6,,,66,127
20526,note_on,67,0,0,,6,,,66,127
20537,note_off,11,0,0,,10,,,69,127
20604,note_on,67,0,0,,2,,,62,127
20615,note_off,11,0,0,,6,,,66,127
20643,note_off,28,0,0,,6,,,78,127
20681,note_off,38,0,0,,2,,,74,127
20682,note_on,1,0,0,,7,,,43,127
20682,note_on,0,0,0,,4,,,76,127
20682,note_on,0,0,0,,1,,,73,127
20693,note_off,11,0,0,,2,,,62,127
20760,note_on,67,0,0,,1,,,49,127
20771,note_off,11,0,0,,7,,,43,127
20839,note_on,68,0,0,,4,,,52,127
20849,note_off,10,0,0,,1,,,49,127
20917,note_on,68,0,0,,7,,,55,127
20928,note_off,11,0,0,,4,,,52,127
20955,note_off,27,0,0,,1,,,73,127
20955,note_off,0,0,0,,4,,,76,127
20995,note_on,40,0,0,,1,,,61,127
20995,note_on,0,0,0,,7,,,79,127
21006,note_off,11,0,0,,7,,,55,127
21073,note_on,67,0,0,,4,,,64,127
21084,note_off,11,0,0,,1,,,61,127
21151,note_on,67,0,0,,1,,,61,127
21162,note_off,11,0,0,,4,,,64,127
21229,note_on,67,0,0,,7,,,55,127
21240,note_off,11,0,0,,1,,,61,127
21268,note_off,28,0,0,,7,,,79,127
21307,note_on,39,0,0,,4,,,64,127
21307,note_on,0,0,0,,1,,,73,127
21307,note_on,0,0,0,,4,,,76,127
21318,note_off,11,0,0,,7,,,55,127
21385,note_on,67,0,0,,7,,,67,127
21396,note_off,11,0,0,,4,,,64,127
21463,note_on,67,0,0,,4,,,64,127
21474,note_off,11,0,0,,7,,,67,127
21541,note_on,67,0,0,,1,,,61,127
21552,note_off,11,0,0,,4,,,64,127
21580,note_off,28,0,0,,4,,,76,127
21618,note_off,38,0,0,,1,,,73,127
21619,note_on,1,0,0,,6,,,42,127
21630,note_off,11,0,0,,1,,,61,127
21697,note_on,67,0,0,,10,,,81,127
21775,note_on,78,0,0,,8,,,80,127
21786,note_off,11,0,0,,10,,,81,127
21853,note_on,67,0,0,,10,,,81,127
21864,note_off,11,0,0,,8,,,80,127
21892,note_off,28,0,0,,6,,,42,127
21931,note_on,39,0,0,,2,,,62,127
22008,note_off,77,0,0,,10,,,81,127
22009,note_on,1,0,0,,7,,,79,127
22087,note_on,78,0,0,,6,,,78,127
22098,note_off,11,0,0,,7,,,79,127
22165,note_on,67,0,0,,4,,,76,127
22176,note_off,11,0,0,,6,,,78,127
22204,note_off,28,0,0,,2,,,62,127
22243,note_on,39,0,0,,6,,,42,127
22243,note_on,0,0,0,,2,,,74,127
22254,note_off,11,0,0,,4,,,76,127
22321,note_on,67,0,0,,1,,,73,127
22332,note_off,11,0,0,,2,,,74,127
22400,note_on,68,0,0,,12,,,71,127
22410,note_off,10,0,0,,1,,,73,127
22478,note_on,68,0,0,,10,,,69,127
22489,note_off,11,0,0,,12,,,71,127
22516,note_off,27,0,0,,6,,,42,127
22556,note_on,40,0,0,,7,,,43,127
22556,note_on,0,0,0,,7,,,67,127
22567,note_off,11,0,0,,10,,,69,127
22634,note_on,67,0,0,,7,,,79,127
22645,note_off,11,0,0,,7,,,67,127
22712,note_on,67,0,0,,6,,,78,127
22723,note_off,11,0,0,,7,,,79,127
22790,note_on,67,0,0,,7,,,79,127
22801,note_off,11,0,0,,6,,,78,127
22829,note_off,28,0,0,,7,,,43,127
22868,note_on,39,0,0,,10,,,45,127
22868,note_on,0,0,0,,10,,,69,127
22879,note_off,11,0,0,,7,,,79,127
22946,note_on,67,0,0,,6,,,78,127
22957,note_off,11,0,0,,10,,,69,127
23024,note_on,67,0,0,,4,,,76,127
23035,note_off,11,0,0,,6,,,78,127
23102,note_on,67,0,0,,6,,,78,127
23113,note_off,11,0,0,,4,,,76,127
23141,note_off,28,0,0,,10,,,45,127
23180,note_on,39,0,0,,10,,,45,127
23180,note_on,0,0,0,,7,,,67,127
23191,note_off,11,0,0,,6,,,78,127
23258,note_on,67,0,0,,4,,,76,127
23269,note_off,11,0,0,,7,,,67,127
23336,note_on,67,0,0,,2,,,74,127
23347,note_off,11,0,0,,4,,,76,127
23414,note_on,67,0,0,,1,,,73,127
23425,note_off,11,0,0,,2,,,74,127
23453,note_off,28,0,0,,10,,,45,127
23492,note_on,39,0,0,,2,,,38,127
23492,note_on,0,0,0,,2,,,74,127
23503,note_off,11,0,0,,1,,,73,127
23570,note_on,67,0,0,,10,,,81,127
23581,note_off,11,0,0,,2,,,74,127
23648,note_on,67,0,0,,7,,,79,127
23659,note_off,11,0,0,,10,,,81,127
23726,note_on,67,0,0,,10,,,81,127
23737,note_off,11,0,0,,7,,,79,127
23765,note_off,28,0,0,,2,,,38,127
23804,note_on,39,0,0,,6,,,42,127
23804,note_on,0,0,0,,6,,,78,127
23815,note_off,11,0,0,,10,,,81,127
23882,note_on,67,0,0,,7,,,79,127
23893,note_off,11,0,0,,6,,,78,127
23960,note_on,67,0,0,,4,,,76,127
23971,note_off,11,0,0,,7,,,79,127
24039,note_on,68,0,0,,6,,,78,127
24049,note_off,10,0,0,,4,,,76,127
24077,note_off,28,0,0,,6,,,42,127
24117,note_on,40,0,0,,10,,,45,127
24117,note_on,0,0,0,,2,,,74,127
24128,note_off,11,0,0,,6,,,78,127
24195,note_on,67,0,0,,4,,,76,127
24206,note_off,11,0,0,,2,,,74,127
24273,note_on,67,0,0,,10,,,69,127
24284,note_off,11,0,0,,4,,,76,127
24351,note_on,67,0,0,,1,,,73,127
24362,note_off,11,0,0,,10,,,69,127
24390,note_off,28,0,0,,10,,,45,127
24429,note_on,39,0,0,,2,,,38,127
24429,note_on,0,0,0,,2,,,74,127
24440,note_off,11,0,0,,1,,,73,127
24507,note_on,67,0,0,,10,,,69,127
24518,note_off,11,0,0,,2,,,74,127
24585,note_on,67,0,0,,7,,,67,127
24596,note_off,11,0,0,,10,,,69,127
24663,note_on,67,0,0,,10,,,69,127
24674,note_off,11,0,0,,7,,,67,127
24702,note_off,28,0,0,,2,,,38,127
24741,note_on,39,0,0,,6,,,42,127
24741,note_on,0,0,0,,6,,,66,127
24752,note_off,11,0,0,,10,,,69,127
24819,note_on,67,0,0,,7,,,67,127
24830,note_off,11,0,0,,6,,,66,127
24897,note_on,67,0,0,,4,,,64,127
24908,note_off,11,0,0,,7,,,67,127
24975,note_on,67,0,0,,6,,,66,127
24986,note_off,11,0,0,,4,,,64,127
25014,note_off,28,0,0,,6,,,42,127
25053,note_on,39,0,0,,10,,,45,127
25053,note_on,0,0,0,,2,,,62,127
25064,note_off,11,0,0,,6,,,66,127
25131,note_on,67,0,0,,6,,,66,127
25142,note_off,11,0,0,,2,,,62,127
25209,note_on,67,0,0,,10,,,57,127
25220,note_off,11,0,0,,6,,,66,127
25287,note_on,67,0,0,,1,,,61,127
25298,note_off,11,0,0,,10,,,57,127
25326,note_off,28,0,0,,10,,,45,127
25365,note_on,39,0,0,,2,,,38,127
25365,note_on,0,0,0,,2,,,62,127
25376,note_off,11,0,0,,1,,,61,127
25443,note_on,67,0,0,,10,,,57,127
25454,note_off,11,0,0,,2,,,62,127
25521,note_on,67,0,0,,7,,,55,127
25532,note_off,11,0,0,,10,,,57,127
25600,note_on,68,0,0,,10,,,57,127
25610,note_off,10,0,0,,7,,,55,127
25638,note_off,28,0,0,,2,,,38,127
25678,note_on,40,0,0,,6,,,42,127
25678,note_on,0,0,0,,6,,,54,127
25689,note_off,11,0,0,,10,,,57,127
25756,note_on,67,0,0,,7,,,55,127
25767,note_off,11,0,0,,6,,,54,127
25834,note_on,67,0,0,,4,,,52,127
25845,note_off,11,0,0,,7,,,55,127
25912,note_on,67,0,0,,6,,,54,127
25923,note_off,11,0,0,,4,,,52,127
25951,note_off,28,0,0,,6,,,42,127
25990,note_on,39,0,0,,10,,,45,127
25990,note_on,0,0,0,,2,,,50,127
26001,note_off,11,0,0,,6,,,54,127
26068,note_on,67,0,0,,2,,,62,127
26079,note_off,11,0,0,,2,,,50,127
26146,note_on,67,0,0,,4,,,52,127
26157,note_off,11,0,0,,2,,,62,127
26224,note_on,67,0,0,,1,,,61,127
26235,note_off,11,0,0,,4,,,52,127
26263,note_off,28,0,0,,10,,,45,127
26297,note_off,34,0,0,,1,,,61,127
26302,note_on,5,0,0,,2,,,38,127
26302,note_on,0,0,0,,2,,,62,127
26925,note_off,623,0,0,,2,,,62,127
27237,note_off,312,0,0,,2,,,38,127
27239,note_on,2,0,0,,2,,,38,127
27239,note_on,0,0,0,,2,,,50,127
27239,note_on,0,0,0,,10,,,81,127
27317,note_on,78,0,0,,6,,,78,127
27328,note_off,11,0,0,,10,,,81,127
27395,note_on,67,0,0,,2,,,74,127
27406,note_off,11,0,0,,6,,,78,127
27473,note_on,67,0,0,,10,,,69,127
27484,note_off,11,0,0,,2,,,74,127
27512,note_off,28,0,0,,2,,,50,127
27512,note_off,0,0,0,,2,,,38,127
27551,note_on,39,0,0,,6,,,66,127
27562,note_off,11,0,0,,10,,,69,127
27629,note_on,67,0,0,,10,,,69,127
27640,note_off,11,0,0,,6,,,66,127
27707,note_on,67,0,0,,6,,,66,127
27718,note_off,11,0,0,,10,,,69,127
27785,note_on,67,0,0,,2,,,62,127
27796,note_off,11,0,0,,6,,,66,127
27863,note_on,67,0,0,,12,,,71,127
27874,note_off,11,0,0,,2,,,62,127
27941,note_on,67,0,0,,7,,,67,127
27952,note_off,11,0,0,,12,,,71,127
28019,note_on,67,0,0,,2,,,62,127
28030,note_off,11,0,0,,7,,,67,127
28097,note_on,67,0,0,,7,,,67,127
28108,note_off,11,0,0,,2,,,62,127
28175,note_on,67,0,0,,2,,,38,127
28175,note_on,0,0,0,,2,,,50,127
28175,note_on,0,0,0,,10,,,81,127
28186,note_off,11,0,0,,7,,,67,127
28253,note_on,67,0,0,,6,,,78,127
28264,note_off,11,0,0,,10,,,81,127
28331,note_on,67,0,0,,2,,,74,127
28342,note_off,11,0,0,,6,,,78,127
28409,note_on,67,0,0,,10,,,69,127
28420,note_off,11,0,0,,2,,,74,127
28448,note_off,28,0,0,,2,,,50,127
28448,note_off,0,0,0,,2,,,38,127
28487,note_on,39,0,0,,6,,,66,127
28498,note_off,11,0,0,,10,,,69,127
28565,note_on,67,0,0,,10,,,69,127
28576,note_off,11,0,0,,6,,,66,127
28643,note_on,67,0,0,,6,,,66,127
28654,note_off,11,0,0,,10,,,69,127
28721,note_on,67,0,0,,2,,,62,127
28732,note_off,11,0,0,,6,,,66,127
28800,note_on,68,0,0,,12,,,71,127
28810,note_off,10,0,0,,2,,,62,127
28878,note_on,68,0,0,,7,,,67,127
28889,note_off,11,0,0,,12,,,71,127
28956,note_on,67,0,0,,2,,,62,127
28967,note_off,11,0,0,,7,,,67,127
29034,note_on,67,0,0,,7,,,67,127
29045,note_off,11,0,0,,2,,,62,127
29112,note_on,67,0,0,,0,,,36,127
29112,note_on,0,0,0,,0,,,48,127
29112,note_on,0,0,0,,10,,,81,127
29123,note_off,11,0,0,,7,,,67,127
29190,note_on,67,0,0,,6,,,78,127
29201,note_off,11,0,0,,10,,,81,127
29268,note_on,67,0,0,,3,,,75,127
29279,note_off,11,0,0,,6,,,78,127
29346,note_on,67,0,0,,0,,,72,127
29357,note_off,11,0,0,,3,,,75,127
29385,note_off,28,0,0,,0,,,48,127
29385,note_off,0,0,0,,0,,,36,127
29424,note_on,39,0,0,,10,,,69,127
29435,note_off,11,0,0,,0,,,72,127
29502,note_on,67,0,0,,6,,,66,127
29513,note_off,11,0,0,,10,,,69,127
29580,note_on,67,0,0,,3,,,63,127
29591,note_off,11,0,0,,6,,,66,127
29658,note_on,67,0,0,,6,,,66,127
29669,note_off,11,0,0,,3,,,63,127
29736,note_on,67,0,0,,10,,,69,127
29747,note_off,11,0,0,,6,,,66,127
29814,note_on,67,0,0,,3,,,75,127
29825,note_off,11,0,0,,10,,,69,127
29892,note_on,67,0,0,,6,,,78,127
29903,note_off,11,0,0,,3,,,75,127
29970,note_on,67,0,0,,10,,,81,127
29981,note_off,11,0,0,,6,,,78,127
30044,note_off,63,0,0,,10,,,81,127
30048,note_on,4,0,0,,12,,,47,127
30048,note_on,0,0,0,,6,,,78,127
30048,note_on,0,0,0,,3,,,75,127
30048,note_on,0,0,0,,12,,,71,127
30048,note_on,0,0,0,,10,,,81,127
30126,note_on,78,0,0,,3,,,51,127
30137,note_off,11,0,0,,12,,,47,127
30204,note_on,67,0,0,,6,,,54,127
30215,note_off,11,0,0,,3,,,51,127
30282,note_on,67,0,0,,12,,,59,127
30293,note_off,11,0,0,,6,,,54,127
30321,note_off,28,0,0,,10,,,81,127
30321,note_off,0,0,0,,12,,,71,127
30321,note_off,0,0,0,,3,,,75,127
30321,note_off,0,0,0,,6,,,78,127
30360,note_on,39,0,0,,3,,,63,127
30371,note_off,11,0,0,,12,,,59,127
30439,note_on,68,0,0,,6,,,66,127
30449,note_off,10,0,0,,3,,,63,127
30517,note_on,68,0,0,,3,,,63,127
30528,note_off,11,0,0,,6,,,66,127
30595,note_on,67,0,0,,12,,,59,127
30606,note_off,11,0,0,,3,,,63,127
30673,note_on,67,0,0,,4,,,64,127
30673,note_on,0,0,0,,12,,,71,127
30673,note_on,0,0,0,,7,,,79,127
30673,note_on,0,0,0,,4,,,76,127
30684,note_off,11,0,0,,12,,,59,127
30751,note_on,67,0,0,,7,,,67,127
30762,note_off,11,0,0,,4,,,64,127
30829,note_on,67,0,0,,4,,,64,127
30840,note_off,11,0,0,,7,,,67,127
30907,note_on,67,0,0,,12,,,59,127
30918,note_off,11,0,0,,4,,,64,127
30946,note_off,28,0,0,,4,,,76,127
30946,note_off,0,0,0,,7,,,79,127
30946,note_off,0,0,0,,12,,,71,127
30985,note_on,39,0,0,,12,,,47,127
30985,note_on,0,0,0,,12,,,71,127
30985,note_on,0,0,0,,3,,,75,127
30985,note_on,0,0,0,,6,,,78,127
30996,note_off,11,0,0,,12,,,59,127
31063,note_on,67,0,0,,3,,,51,127
31074,note_off,11,0,0,,12,,,47,127
31141,note_on,67,0,0,,6,,,54,127
31152,note_off,11,0,0,,3,,,51,127
31219,note_on,67,0,0,,12,,,59,127
31230,note_off,11,0,0,,6,,,54,127
31258,note_off,28,0,0,,6,,,78,127
31258,note_off,0,0,0,,3,,,75,127
31258,note_off,0,0,0,,12,,,71,127
31297,note_on,39,0,0,,3,,,63,127
31308,note_off,11,0,0,,12,,,59,127
31375,note_on,67,0,0,,6,,,66,127
31386,note_off,11,0,0,,3,,,63,127
31453,note_on,67,0,0,,3,,,63,127
31464,note_off,11,0,0,,6,,,66,127
31531,note_on,67,0,0,,12,,,59,127
31542,note_off,11,0,0,,3,,,63,127
31609,note_on,67,0,0,,4,,,64,127
31609,note_on,0,0,0,,7,,,79,127
31609,note_on,0,0,0,,4,,,76,127
31609,note_on,0,0,0,,12,,,71,127
31620,note_off,11,0,0,,12,,,59,127
31687,note_on,67,0,0,,7,,,67,127
31698,note_off,11,0,0,,4,,,64,127
31765,note_on,67,0,0,,4,,,64,127
31776,note_off,11,0,0,,7,,,67,127
31843,note_on,67,0,0,,12,,,59,127
31854,note_off,11,0,0,,4,,,64,127
31882,note_off,28,0,0,,12,,,71,127
31882,note_off,0,0,0,,4,,,76,127
31882,note_off,0,0,0,,7,,,79,127
31921,note_on,39,0,0,,10,,,45,127
31921,note_on,0,0,0,,10,,,81,127
31921,note_on,0,0,0,,6,,,78,127
31921,note_on,0,0,0,,0,,,72,127
31932,note_off,11,0,0,,12,,,59,127
32000,note_on,68,0,0,,0,,,48,127
32010,note_off,10,0,0,,10,,,45,127
32078,note_on,68,0,0,,3,,,51,127
32089,note_off,11,0,0,,0,,,48,127
32156,note_on,67,0,0,,6,,,54,127
32167,note_off,11,0,0,,3,,,51,127
32194,note_off,27,0,0,,0,,,72,127
32194,note_off,0,0,0,,6,,,78,127
32194,note_off,0,0,0,,10,,,81,127
32234,note_on,40,0,0,,3,,,63,127
32245,note_off,11,0,0,,6,,,54,127
32312,note_on,67,0,0,,6,,,66,127
32323,note_off,11,0,0,,3,,,63,127
32390,note_on,67,0,0,,3,,,63,127
32401,note_off,11,0,0,,6,,,66,127
32468,note_on,67,0,0,,10,,,57,127
32479,note_off,11,0,0,,3,,,63,127
32546,note_on,67,0,0,,3,,,63,127
32546,note_on,0,0,0,,6,,,78,127
32546,note_on,0,0,0,,3,,,75,127
32557,note_off,11,0,0,,10,,,57,127
32624,note_on,67,0,0,,6,,,66,127
32635,note_off,11,0,0,,3,,,63,127
32702,note_on,67,0,0,,3,,,63,127
32713,note_off,11,0,0,,6,,,66,127
32780,note_on,67,0,0,,10,,,57,127
32791,note_off,11,0,0,,3,,,63,127
32819,note_off,28,0,0,,6,,,78,127
32857,note_off,38,0,0,,3,,,75,127
32858,note_on,1,0,0,,7,,,43,127
32869,note_off,11,0,0,,10,,,57,127
32936,note_on,67,0,0,,7,,,79,127
33014,note_on,78,0,0,,6,,,78,127
33025,note_off,11,0,0,,7,,,79,127
33092,note_on,67,0,0,,7,,,79,127
33103,note_off,11,0,0,,6,,,78,127
33131,note_off,28,0,0,,7,,,43,127
33170,note_on,39,0,0,,4,,,64,127
33170,note_on,0,0,0,,7,,,55,127
33170,note_on,0,0,0,,12,,,83,127
33181,note_off,11,0,0,,7,,,79,127
33248,note_on,67,0,0,,4,,,76,127
33259,note_off,11,0,0,,12,,,83,127
33326,note_on,67,0,0,,3,,,75,127
33337,note_off,11,0,0,,4,,,76,127
33404,note_on,67,0,0,,4,,,76,127
33415,note_off,11,0,0,,3,,,75,127
33443,note_off,28,0,0,,7,,,55,127
33443,note_off,0,0,0,,4,,,64,127
33482,note_on,39,0,0,,6,,,54,127
33482,note_on,0,0,0,,3,,,63,127
33482,note_on,0,0,0,,10,,,81,127
33493,note_off,11,0,0,,4,,,76,127
33560,note_on,67,0,0,,6,,,78,127
33571,note_off,11,0,0,,10,,,81,127
33639,note_on,68,0,0,,4,,,76,127
33649,note_off,10,0,0,,6,,,78,127
33717,note_on,68,0,0,,6,,,78,127
33728,note_off,11,0,0,,4,,,76,127
33755,note_off,27,0,0,,3,,,63,127
33755,note_off,0,0,0,,6,,,54,127
33795,note_on,40,0,0,,4,,,52,127
33795,note_on,0,0,0,,7,,,79,127
33806,note_off,11,0,0,,6,,,78,127
33873,note_on,67,0,0,,4,,,64,127
33884,note_off,11,0,0,,4,,,52,127
33951,note_on,67,0,0,,3,,,63,127
33962,note_off,11,0,0,,4,,,64,127
34029,note_on,67,0,0,,4,,,64,127
34040,note_off,11,0,0,,3,,,63,127
34068,note_off,28,0,0,,7,,,79,127
34107,note_on,39,0,0,,7,,,67,127
34118,note_off,11,0,0,,4,,,64,127
34185,note_on,67,0,0,,4,,,64,127
34196,note_off,11,0,0,,7,,,67,127
34263,note_on,67,0,0,,3,,,63,127
34274,note_off,11,0,0,,4,,,64,127
34341,note_on,67,0,0,,4,,,64,127
34352,note_off,11,0,0,,3,,,63,127
34419,note_on,67,0,0,,4,,,52,127
34419,note_on,0,0,0,,12,,,83,127
34430,note_off,11,0,0,,4,,,64,127
34497,note_on,67,0,0,,2,,,62,127
34508,note_off,11,0,0,,4,,,52,127
34575,note_on,67,0,0,,0,,,60,127
34586,note_off,11,0,0,,2,,,62,127
34653,note_on,67,0,0,,12,,,59,127
34664,note_off,11,0,0,,0,,,60,127
34692,note_off,28,0,0,,12,,,83,127
34731,note_on,39,0,0,,10,,,45,127
34742,note_off,11,0,0,,12,,,59,127
34809,note_on,67,0,0,,4,,,76,127
34887,note_on,78,0,0,,3,,,75,127
34898,note_off,11,0,0,,4,,,76,127
34965,note_on,67,0,0,,4,,,76,127
34976,note_off,11,0,0,,3,,,75,127
35004,note_off,28,0,0,,10,,,45,127
35043,note_on,39,0,0,,0,,,84,127
35054,note_off,11,0,0,,4,,,76,127
35121,note_on,67,0,0,,10,,,81,127
35132,note_off,11,0,0,,0,,,84,127
35200,note_on,68,0,0,,12,,,83,127
35210,note_off,10,0,0,,10,,,81,127
35278,note_on,68,0,0,,7,,,79,127
35289,note_off,11,0,0,,12,,,83,127
35356,note_on,67,0,0,,0,,,48,127
35356,note_on,0,0,0,,10,,,81,127
35367,note_off,11,0,0,,7,,,79,127
35434,note_on,67,0,0,,6,,,78,127
35445,note_off,11,0,0,,10,,,81,127
35512,note_on,67,0,0,,7,,,79,127
35523,note_off,11,0,0,,6,,,78,127
35590,note_on,67,0,0,,4,,,76,127
35601,note_off,11,0,0,,7,,,79,127
35629,note_off,28,0,0,,0,,,48,127
35668,note_on,39,0,0,,2,,,50,127
35668,note_on,0,0,0,,6,,,78,127
35679,note_off,11,0,0,,4,,,76,127
35746,note_on,67,0,0,,2,,,62,127
35757,note_off,11,0,0,,2,,,50,127
35824,note_on,67,0,0,,1,,,61,127
35835,note_off,11,0,0,,2,,,62,127
35902,note_on,67,0,0,,2,,,62,127
35913,note_off,11,0,0,,1,,,61,127
35941,note_off,28,0,0,,6,,,78,127
35980,note_on,39,0,0,,6,,,66,127
35991,note_off,11,0,0,,2,,,62,127
36058,note_on,67,0,0,,2,,,62,127
36069,note_off,11,0,0,,6,,,66,127
36136,note_on,67,0,0,,1,,,61,127
36147,note_off,11,0,0,,2,,,62,127
36214,note_on,67,0,0,,2,,,62,127
36225,note_off,11,0,0,,1,,,61,127
36292,note_on,67,0,0,,2,,,50,127
36292,note_on,0,0,0,,10,,,81,127
36303,note_off,11,0,0,,2,,,62,127
36370,note_on,67,0,0,,0,,,60,127
36381,note_off,11,0,0,,2,,,50,127
36448,note_on,67,0,0,,12,,,59,127
36459,note_off,11,0,0,,0,,,60,127
36526,note_on,67,0,0,,10,,,57,127
36537,note_off,11,0,0,,12,,,59,127
36565,note_off,28,0,0,,10,,,81,127
36604,note_on,39,0,0,,7,,,43,127
36615,note_off,11,0,0,,10,,,57,127
36682,note_on,67,0,0,,2,,,74,127
36760,note_on,78,0,0,,1,,,73,127
36771,note_off,11,0,0,,2,,,74,127
36839,note_on,68,0,0,,2,,,74,127
36849,note_off,10,0,0,,1,,,73,127
36877,note_off,28,0,0,,7,,,43,127
36917,note_on,40,0,0,,7,,,55,127
36917,note_on,0,0,0,,12,,,83,127
36928,note_off,11,0,0,,2,,,74,127
36995,note_on,67,0,0,,7,,,79,127
37006,note_off,11,0,0,,12,,,83,127
37073,note_on,67,0,0,,10,,,81,127
37084,note_off,11,0,0,,7,,,79,127
37151,note_on,67,0,0,,6,,,78,127
37162,note_off,11,0,0,,10,,,81,127
37190,note_off,28,0,0,,7,,,55,127
37229,note_on,39,0,0,,12,,,47,127
37229,note_on,0,0,0,,7,,,79,127
37240,note_off,11,0,0,,6,,,78,127
37307,note_on,67,0,0,,4,,,76,127
37318,note_off,11,0,0,,7,,,79,127
37385,note_on,67,0,0,,6,,,78,127
37396,note_off,11,0,0,,4,,,76,127
37463,note_on,67,0,0,,2,,,74,127
37474,note_off,11,0,0,,6,,,78,127
37502,note_off,28,0,0,,12,,,47,127
37541,note_on,39,0,0,,0,,,48,127
37541,note_on,0,0,0,,4,,,76,127
37552,note_off,11,0,0,,2,,,74,127
37619,note_on,67,0,0,,0,,,72,127
37630,note_off,11,0,0,,4,,,76,127
37697,note_on,67,0,0,,2,,,74,127
37708,note_off,11,0,0,,0,,,72,127
37775,note_on,67,0,0,,12,,,71,127
37786,note_off,11,0,0,,2,,,74,127
37814,note_off,28,0,0,,0,,,48,127
37853,note_on,39,0,0,,0,,,36,127
37853,note_on,0,0,0,,0,,,72,127
37864,note_off,11,0,0,,12,,,71,127
37931,note_on,67,0,0,,10,,,69,127
37942,note_off,11,0,0,,0,,,72,127
38009,note_on,67,0,0,,12,,,71,127
38020,note_off,11,0,0,,10,,,69,127
38087,note_on,67,0,0,,7,,,67,127
38098,note_off,11,0,0,,12,,,71,127
38126,note_off,28,0,0,,0,,,36,127
38165,note_on,39,0,0,,0,,,48,127
38165,note_on,0,0,0,,10,,,69,127
38176,note_off,11,0,0,,7,,,67,127
38243,note_on,67,0,0,,6,,,66,127
38254,note_off,11,0,0,,10,,,69,127
38321,note_on,67,0,0,,7,,,67,127
38332,note_off,11,0,0,,6,,,66,127
38400,note_on,68,0,0,,4,,,64,127
38410,note_off,10,0,0,,7,,,67,127
38438,note_off,28,0,0,,0,,,48,127
38478,note_on,40,0,0,,2,,,50,127
38478,note_on,0,0,0,,2,,,74,127
38478,note_on,0,0,0,,10,,,81,127
38478,note_on,0,0,0,,6,,,78,127
38489,note_off,11,0,0,,4,,,64,127
38556,note_on,67,0,0,,6,,,54,127
38567,note_off,11,0,0,,2,,,50,127
38634,note_on,67,0,0,,10,,,57,127
38645,note_off,11,0,0,,6,,,54,127
38712,note_on,67,0,0,,2,,,62,127
38723,note_off,11,0,0,,10,,,57,127
38751,note_off,28,0,0,,6,,,78,127
38751,note_off,0,0,0,,10,,,81,127
38751,note_off,0,0,0,,2,,,74,127
38790,note_on,39,0,0,,6,,,66,127
38790,note_on,0,0,0,,2,,,74,127
38801,note_off,11,0,0,,2,,,62,127
38868,note_on,67,0,0,,10,,,69,127
38879,note_off,11,0,0,,6,,,66,127
38946,note_on,67,0,0,,6,,,66,127
38957,note_off,11,0,0,,10,,,69,127
39024,note_on,67,0,0,,2,,,62,127
39035,note_off,11,0,0,,6,,,66,127
39063,note_off,28,0,0,,2,,,74,127
39102,note_on,39,0,0,,12,,,71,127
39102,note_on,0,0,0,,7,,,79,127
39102,note_on,0,0,0,,2,,,74,127
39102,note_on,0,0,0,,12,,,83,127
39113,note_off,11,0,0,,2,,,62,127
39179,note_off,66,0,0,,2,,,74,127
39180,note_on,1,0,0,,2,,,74,127
39191,note_off,11,0,0,,12,,,71,127
39258,note_on,67,0,0,,12,,,71,127
39336,note_on,78,0,0,,7,,,67,127
39347,note_off,11,0,0,,12,,,71,127
39375,note_off,28,0,0,,2,,,74,127
39375,note_off,0,0,0,,12,,,83,127
39375,note_off,0,0,0,,7,,,79,127
39414,note_on,39,0,0,,2,,,50,127
39414,note_on,0,0,0,,6,,,78,127
39414,note_on,0,0,0,,2,,,74,127
39414,note_on,0,0,0,,10,,,81,127
39425,note_off,11,0,0,,7,,,67,127
39492,note_on,67,0,0,,6,,,54,127
39503,note_off,11,0,0,,2,,,50,127
39570,note_on,67,0,0,,10,,,57,127
39581,note_off,11,0,0,,6,,,54,127
39648,note_on,67,0,0,,2,,,62,127
39659,note_off,11,0,0,,10,,,57,127
39687,note_off,28,0,0,,10,,,81,127
39687,note_off,0,0,0,,2,,,74,127
39687,note_off,0,0,0,,6,,,78,127
39726,note_on,39,0,0,,6,,,66,127
39726,note_on,0,0,0,,2,,,74,127
39737,note_off,11,0,0,,2,,,62,127
39804,note_on,67,0,0,,10,,,69,127
39815,note_off,11,0,0,,6,,,66,127
39882,note_on,67,0,0,,6,,,66,127
39893,note_off,11,0,0,,10,,,69,127
39960,note_on,67,0,0,,2,,,62,127
39971,note_off,11,0,0,,6,,,66,127
39999,note_off,28,0,0,,2,,,74,127
40039,note_on,40,0,0,,12,,,71,127
40039,note_on,0,0,0,,12,,,83,127
40039,note_on,0,0,0,,2,,,74,127
40039,note_on,0,0,0,,7,,,79,127
40049,note_off,10,0,0,,2,,,62,127
40116,note_off,67,0,0,,2,,,74,127
40117,note_on,1,0,0,,2,,,74,127
40128,note_off,11,0,0,,12,,,71,127
40195,note_on,67,0,0,,12,,,71,127
40273,note_on,78,0,0,,7,,,67,127
40284,note_off,11,0,0,,12,,,71,127
40312,note_off,28,0,0,,2,,,74,127
40312,note_off,0,0,0,,7,,,79,127
40312,note_off,0,0,0,,12,,,83,127
40351,note_on,39,0,0,,0,,,48,127
40351,note_on,0,0,0,,6,,,78,127
40351,note_on,0,0,0,,2,,,74,127
40351,note_on,0,0,0,,10,,,81,127
40362,note_off,11,0,0,,7,,,67,127
40429,note_on,67,0,0,,6,,,54,127
40440,note_off,11,0,0,,0,,,48,127
40507,note_on,67,0,0,,10,,,57,127
40518,note_off,11,0,0,,6,,,54,127
40585,note_on,67,0,0,,0,,,60,127
40596,note_off,11,0,0,,10,,,57,127
40624,note_off,28,0,0,,10,,,81,127
40624,note_off,0,0,0,,2,,,74,127
40624,note_off,0,0,0,,6,,,78,127
40663,note_on,39,0,0,,6,,,66,127
40674,note_off,11,0,0,,0,,,60,127
40741,note_on,67,0,0,,10,,,69,127
40752,note_off,11,0,0,,6,,,66,127
40819,note_on,67,0,0,,6,,,66,127
40830,note_off,11,0,0,,10,,,69,127
40897,note_on,67,0,0,,0,,,60,127
40908,note_off,11,0,0,,6,,,66,127
40975,note_on,67,0,0,,6,,,66,127
40975,note_on,0,0,0,,0,,,72,127
40975,note_on,0,0,0,,10,,,81,127
40975,note_on,0,0,0,,6,,,78,127
40986,note_off,11,0,0,,0,,,60,127
41053,note_on,67,0,0,,10,,,69,127
41064,note_off,11,0,0,,6,,,66,127
41131,note_on,67,0,0,,6,,,66,127
41142,note_off,11,0,0,,10,,,69,127
41209,note_on,67,0,0,,0,,,60,127
41220,note_off,11,0,0,,6,,,66,127
41248,note_off,28,0,0,,6,,,78,127
41248,note_off,0,0,0,,10,,,81,127
41248,note_off,0,0,0,,0,,,72,127
41287,note_on,39,0,0,,12,,,47,127
41298,note_off,11,0,0,,0,,,60,127
41365,note_on,67,0,0,,7,,,79,127
41443,note_on,78,0,0,,12,,,83,127
41454,note_off,11,0,0,,7,,,79,127
41521,note_on,67,0,0,,10,,,81,127
41532,note_off,11,0,0,,12,,,83,127
41560,note_off,28,0,0,,12,,,47,127
41600,note_on,40,0,0,,2,,,86,127
41600,note_on,0,0,0,,7,,,79,127
41610,note_off,10,0,0,,10,,,81,127
41678,note_on,68,0,0,,6,,,78,127
41689,note_off,11,0,0,,7,,,79,127
41756,note_on,67,0,0,,4,,,76,127
41767,note_off,11,0,0,,6,,,78,127
41834,note_on,67,0,0,,2,,,74,127
41845,note_off,11,0,0,,4,,,76,127
41873,note_off,28,0,0,,2,,,86,127
41912,note_on,39,0,0,,12,,,35,127
41912,note_on,0,0,0,,0,,,72,127
41923,note_off,11,0,0,,2,,,74,127
41990,note_on,67,0,0,,12,,,71,127
42001,note_off,11,0,0,,0,,,72,127
42068,note_on,67,0,0,,10,,,69,127
42079,note_off,11,0,0,,12,,,71,127
42146,note_on,67,0,0,,7,,,67,127
42157,note_off,11,0,0,,10,,,69,127
42185,note_off,28,0,0,,12,,,35,127
42224,note_on,39,0,0,,0,,,36,127
42224,note_on,0,0,0,,4,,,76,127
42235,note_off,11,0,0,,7,,,67,127
42302,note_on,67,0,0,,0,,,72,127
42313,note_off,11,0,0,,4,,,76,127
42380,note_on,67,0,0,,2,,,74,127
42391,note_off,11,0,0,,0,,,72,127
42458,note_on,67,0,0,,4,,,76,127
42469,note_off,11,0,0,,2,,,74,127
42497,note_off,28,0,0,,0,,,36,127
42536,note_on,39,0,0,,2,,,38,127
42536,note_on,0,0,0,,2,,,74,127
42547,note_off,11,0,0,,4,,,76,127
42614,note_on,67,0,0,,12,,,71,127
42625,note_off,11,0,0,,2,,,74,127
42692,note_on,67,0,0,,0,,,72,127
42703,note_off,11,0,0,,12,,,71,127
42770,note_on,67,0,0,,10,,,69,127
42781,note_off,11,0,0,,0,,,72,127
42809,note_off,28,0,0,,2,,,38,127
42848,note_on,39,0,0,,2,,,38,127
42848,note_on,0,0,0,,12,,,71,127
42859,note_off,11,0,0,,10,,,69,127
42926,note_on,67,0,0,,7,,,67,127
42937,note_off,11,0,0,,12,,,71,127
43004,note_on,67,0,0,,10,,,69,127
43015,note_off,11,0,0,,7,,,67,127
43082,note_on,67,0,0,,6,,,66,127
43093,note_off,11,0,0,,10,,,69,127
43121,note_off,28,0,0,,2,,,38,127
43157,note_off,36,0,0,,6,,,66,127
43160,note_on,3,0,0,,7,,,43,127
43160,note_on,0,0,0,,2,,,86,127
43239,note_on,79,0,0,,0,,,84,127
43249,note_off,10,0,0,,2,,,86,127
43317,note_on,68,0,0,,12,,,83,127
43328,note_off,11,0,0,,0,,,84,127
43395,note_on,67,0,0,,10,,,81,127
43406,note_off,11,0,0,,12,,,83,127
43433,note_off,27,0,0,,7,,,43,127
43473,note_on,40,0,0,,12,,,47,127
43473,note_on,0,0,0,,7,,,79,127
43484,note_off,11,0,0,,10,,,81,127
43551,note_on,67,0,0,,6,,,78,127
43562,note_off,11,0,0,,7,,,79,127
43629,note_on,67,0,0,,4,,,76,127
43640,note_off,11,0,0,,6,,,78,127
43707,note_on,67,0,0,,2,,,74,127
43718,note_off,11,0,0,,4,,,76,127
43746,note_off,28,0,0,,12,,,47,127
43785,note_on,39,0,0,,0,,,48,127
43785,note_on,0,0,0,,0,,,72,127
43796,note_off,11,0,0,,2,,,74,127
43863,note_on,67,0,0,,12,,,71,127
43874,note_off,11,0,0,,0,,,72,127
43941,note_on,67,0,0,,10,,,69,127
43952,note_off,11,0,0,,12,,,71,127
44019,note_on,67,0,0,,7,,,67,127
44030,note_off,11,0,0,,10,,,69,127
44058,note_off,28,0,0,,0,,,48,127
44097,note_on,39,0,0,,2,,,50,127
44097,note_on,0,0,0,,2,,,74,127
44097,note_on,0,0,0,,10,,,81,127
44097,note_on,0,0,0,,6,,,78,127
44108,note_off,11,0,0,,7,,,67,127
44175,note_on,67,0,0,,6,,,54,127
44186,note_off,11,0,0,,2,,,50,127
44253,note_on,67,0,0,,10,,,57,127
44264,note_off,11,0,0,,6,,,54,127
44331,note_on,67,0,0,,2,,,62,127
44342,note_off,11,0,0,,10,,,57,127
44370,note_off,28,0,0,,6,,,78,127
44370,note_off,0,0,0,,10,,,81,127
44370,note_off,0,0,0,,2,,,74,127
44409,note_on,39,0,0,,6,,,66,127
44409,note_on,0,0,0,,2,,,74,127
44420,note_off,11,0,0,,2,,,62,127
44487,note_on,67,0,0,,10,,,69,127
44498,note_off,11,0,0,,6,,,66,127
44565,note_on,67,0,0,,6,,,66,127
44576,note_off,11,0,0,,10,,,69,127
44643,note_on,67,0,0,,2,,,62,127
44654,note_off,11,0,0,,6,,,66,127
44682,note_off,28,0,0,,2,,,74,127
44721,note_on,39,0,0,,12,,,71,127
44721,note_on,0,0,0,,12,,,83,127
44721,note_on,0,0,0,,7,,,79,127
44721,note_on,0,0,0,,2,,,74,127
44732,note_off,11,0,0,,2,,,62,127
44798,note_off,66,0,0,,2,,,74,127
44800,note_on,2,0,0,,2,,,74,127
44810,note_off,10,0,0,,12,,,71,127
44878,note_on,68,0,0,,12,,,71,127
44956,note_on,78,0,0,,7,,,67,127
44967,note_off,11,0,0,,12,,,71,127
44994,note_off,27,0,0,,7,,,79,127
44994,note_off,0,0,0,,12,,,83,127
44995,note_off,1,0,0,,2,,,74,127
45034,note_on,39,0,0,,2,,,50,127
45034,note_on,0,0,0,,10,,,81,127
45034,note_on,0,0,0,,6,,,78,127
45034,note_on,0,0,0,,2,,,74,127
45045,note_off,11,0,0,,7,,,67,127
45112,note_on,67,0,0,,6,,,54,127
45123,note_off,11,0,0,,2,,,50,127
45190,note_on,67,0,0,,10,,,57,127
45201,note_off,11,0,0,,6,,,54,127
45268,note_on,67,0,0,,2,,,62,127
45279,note_off,11,0,0,,10,,,57,127
45307,note_off,28,0,0,,2,,,74,127
45307,note_off,0,0,0,,6,,,78,127
45307,note_off,0,0,0,,10,,,81,127
45346,note_on,39,0,0,,6,,,66,127
45346,note_on,0,0,0,,2,,,74,127
45357,note_off,11,0,0,,2,,,62,127
45424,note_on,67,0,0,,10,,,69,127
45435,note_off,11,0,0,,6,,,66,127
45502,note_on,67,0,0,,6,,,66,127
45513,note_off,11,0,0,,10,,,69,127
45580,note_on,67,0,0,,2,,,62,127
45591,note_off,11,0,0,,6,,,66,127
45619,note_off,28,0,0,,2,,,74,127
45658,note_on,39,0,0,,12,,,71,127
45658,note_on,0,0,0,,2,,,74,127
45658,note_on,0,0,0,,7,,,79,127
45658,note_on,0,0,0,,12,,,83,127
45669,note_off,11,0,0,,2,,,62,127
45735,note_off,66,0,0,,2,,,74,127
45736,note_on,1,0,0,,2,,,74,127
45747,note_off,11,0,0,,12,,,71,127
45814,note_on,67,0,0,,12,,,71,127
45892,note_on,78,0,0,,7,,,67,127
45903,note_off,11,0,0,,12,,,71,127
45931,note_off,28,0,0,,2,,,74,127
45931,note_off,0,0,0,,12,,,83,127
45931,note_off,0,0,0,,7,,,79,127
45970,note_on,39,0,0,,0,,,48,127
45970,note_on,0,0,0,,0,,,72,127
45970,note_on,0,0,0,,10,,,81,127
45970,note_on,0,0,0,,6,,,78,127
45981,note_off,11,0,0,,7,,,67,127
46048,note_on,67,0,0,,6,,,54,127
46059,note_off,11,0,0,,0,,,48,127
46126,note_on,67,0,0,,10,,,57,127
46137,note_off,11,0,0,,6,,,54,127
46204,note_on,67,0,0,,0,,,60,127
46215,note_off,11,0,0,,10,,,57,127
46243,note_off,28,0,0,,6,,,78,127
46243,note_off,0,0,0,,10,,,81,127
46243,note_off,0,0,0,,0,,,72,127
46282,note_on,39,0,0,,6,,,66,127
46293,note_off,11,0,0,,0,,,60,127
46360,note_on,67,0,0,,10,,,69,127
46371,note_off,11,0,0,,6,,,66,127
46439,note_on,68,0,0,,6,,,66,127
46449,note_off,10,0,0,,10,,,69,127
46517,note_on,68,0,0,,0,,,60,127
46528,note_off,11,0,0,,6,,,66,127
46595,note_on,67,0,0,,6,,,66,127
46595,note_on,0,0,0,,0,,,72,127
46595,note_on,0,0,0,,10,,,81,127
46595,note_on,0,0,0,,6,,,78,127
46606,note_off,11,0,0,,0,,,60,127
46673,note_on,67,0,0,,10,,,69,127
46684,note_off,11,0,0,,6,,,66,127
46751,note_on,67,0,0,,6,,,66,127
46762,note_off,11,0,0,,10,,,69,127
46829,note_on,67,0,0,,0,,,60,127
46840,note_off,11,0,0,,6,,,66,127
46868,note_off,28,0,0,,6,,,78,127
46868,note_off,0,0,0,,10,,,81,127
46868,note_off,0,0,0,,0,,,72,127
46907,note_on,39,0,0,,12,,,47,127
46918,note_off,11,0,0,,0,,,60,127
46985,note_on,67,0,0,,7,,,79,127
47063,note_on,78,0,0,,12,,,83,127
47074,note_off,11,0,0,,7,,,79,127
47141,note_on,67,0,0,,10,,,81,127
47152,note_off,11,0,0,,12,,,83,127
47180,note_off,28,0,0,,12,,,47,127
47219,note_on,39,0,0,,2,,,86,127
47219,note_on,0,0,0,,7,,,79,127
47230,note_off,11,0,0,,10,,,81,127
47297,note_on,67,0,0,,6,,,78,127
47308,note_off,11,0,0,,7,,,79,127
47375,note_on,67,0,0,,4,,,76,127
47386,note_off,11,0,0,,6,,,78,127
47453,note_on,67,0,0,,2,,,74,127
47464,note_off,11,0,0,,4,,,76,127
47492,note_off,28,0,0,,2,,,86,127
47531,note_on,39,0,0,,12,,,35,127
47531,note_on,0,0,0,,0,,,72,127
47542,note_off,11,0,0,,2,,,74,127
47609,note_on,67,0,0,,12,,,71,127
47620,note_off,11,0,0,,0,,,72,127
47687,note_on,67,0,0,,10,,,69,127
47698,note_off,11,0,0,,12,,,71,127
47765,note_on,67,0,0,,7,,,67,127
47776,note_off,11,0,0,,10,,,69,127
47804,note_off,28,0,0,,12,,,35,127
47843,note_on,39,0,0,,0,,,36,127
47843,note_on,0,0,0,,4,,,76,127
47854,note_off,11,0,0,,7,,,67,127
47921,note_on,67,0,0,,7,,,79,127
47932,note_off,11,0,0,,4,,,76,127
48000,note_on,68,0,0,,6,,,78,127
48010,note_off,10,0,0,,7,,,79,127
48078,note_on,68,0,0,,4,,,76,127
48089,note_off,11,0,0,,6,,,78,127
48116,note_off,27,0,0,,0,,,36,127
48156,note_on,40,0,0,,2,,,38,127
48156,note_on,0,0,0,,2,,,74,127
48167,note_off,11,0,0,,4,,,76,127
48234,note_on,67,0,0,,0,,,72,127
48245,note_off,11,0,0,,2,,,74,127
48312,note_on,67,0,0,,12,,,71,127
48323,note_off,11,0,0,,0,,,72,127
48390,note_on,67,0,0,,10,,,69,127
48401,note_off,11,0,0,,12,,,71,127
48429,note_off,28,0,0,,2,,,38,127
48468,note_on,39,0,0,,2,,,38,127
48468,note_on,0,0,0,,7,,,67,127
48479,note_off,11,0,0,,10,,,69,127
48546,note_on,67,0,0,,10,,,69,127
48557,note_off,11,0,0,,7,,,67,127
48624,note_on,67,0,0,,2,,,62,127
48635,note_off,11,0,0,,10,,,69,127
48702,note_on,67,0,0,,6,,,66,127
48713,note_off,11,0,0,,2,,,62,127
48741,note_off,28,0,0,,2,,,38,127
48780,note_on,39,0,0,,7,,,43,127
48780,note_on,0,0,0,,7,,,67,127
48791,note_off,11,0,0,,6,,,66,127
48851,note_off,60,0,0,,7,,,67,127
48858,note_on,7,0,0,,2,,,86,127
48936,note_on,78,0,0,,0,,,84,127
48947,note_off,11,0,0,,2,,,86,127
49014,note_on,67,0,0,,2,,,86,127
49025,note_off,11,0,0,,0,,,84,127
49053,note_off,28,0,0,,7,,,43,127
49092,note_on,39,0,0,,12,,,47,127
49092,note_on,0,0,0,,12,,,83,127
49103,note_off,11,0,0,,2,,,86,127
49170,note_on,67,0,0,,0,,,84,127
49181,note_off,11,0,0,,12,,,83,127
49248,note_on,67,0,0,,10,,,81,127
49259,note_off,11,0,0,,0,,,84,127
49326,note_on,67,0,0,,12,,,83,127
49337,note_off,11,0,0,,10,,,81,127
49365,note_off,28,0,0,,12,,,47,127
49404,note_on,39,0,0,,2,,,50,127
49404,note_on,0,0,0,,7,,,79,127
49415,note_off,11,0,0,,12,,,83,127
49482,note_on,67,0,0,,10,,,81,127
49493,note_off,11,0,0,,7,,,79,127
49560,note_on,67,0,0,,2,,,74,127
49571,note_off,11,0,0,,10,,,81,127
49639,note_on,68,0,0,,6,,,78,127
49649,note_off,10,0,0,,2,,,74,127
49677,note_off,28,0,0,,2,,,50,127
49717,note_on,40,0,0,,7,,,43,127
49717,note_on,0,0,0,,7,,,79,127
49728,note_off,11,0,0,,6,,,78,127
49795,note_on,67,0,0,,2,,,74,127
49806,note_off,11,0,0,,7,,,79,127
49873,note_on,67,0,0,,0,,,72,127
49884,note_off,11,0,0,,2,,,74,127
49951,note_on,67,0,0,,2,,,74,127
49962,note_off,11,0,0,,0,,,72,127
49990,note_off,28,0,0,,7,,,43,127
50029,note_on,39,0,0,,7,,,43,127
50029,note_on,0,0,0,,12,,,71,127
50040,note_off,11,0,0,,2,,,74,127
50107,note_on,67,0,0,,0,,,72,127
50118,note_off,11,0,0,,12,,,71,127
50185,note_on,67,0,0,,10,,,69,127
50196,note_off,11,0,0,,0,,,72,127
50263,note_on,67,0,0,,12,,,71,127
50274,note_off,11,0,0,,10,,,69,127
50302,note_off,28,0,0,,7,,,43,127
50341,note_on,39,0,0,,2,,,38,127
50341,note_on,0,0,0,,7,,,67,127
50352,note_off,11,0,0,,12,,,71,127
50419,note_on,67,0,0,,10,,,69,127
50430,note_off,11,0,0,,7,,,67,127
50497,note_on,67,0,0,,2,,,62,127
50508,note_off,11,0,0,,10,,,69,127
50575,note_on,67,0,0,,6,,,66,127
50586,note_off,11,0,0,,2,,,62,127
50614,note_off,28,0,0,,2,,,38,127
50653,note_on,39,0,0,,7,,,43,127
50653,note_on,0,0,0,,7,,,67,127
50664,note_off,11,0,0,,6,,,66,127
50731,note_on,67,0,0,,2,,,62,127
50742,note_off,11,0,0,,7,,,67,127
50809,note_on,67,0,0,,0,,,60,127
50820,note_off,11,0,0,,2,,,62,127
50887,note_on,67,0,0,,2,,,62,127
50898,note_off,11,0,0,,0,,,60,127
50926,note_off,28,0,0,,7,,,43,127
50965,note_on,39,0,0,,7,,,43,127
50965,note_on,0,0,0,,12,,,59,127
50976,note_off,11,0,0,,2,,,62,127
51043,note_on,67,0,0,,0,,,60,127
51054,note_off,11,0,0,,12,,,59,127
51121,note_on,67,0,0,,10,,,57,127
51132,note_off,11,0,0,,0,,,60,127
51200,note_on,68,0,0,,12,,,59,127
51210,note_off,10,0,0,,10,,,57,127
51238,note_off,28,0,0,,7,,,43,127
51278,note_on,40,0,0,,2,,,38,127
51278,note_on,0,0,0,,7,,,55,127
51289,note_off,11,0,0,,12,,,59,127
51356,note_on,67,0,0,,10,,,57,127
51367,note_off,11,0,0,,7,,,55,127
51434,note_on,67,0,0,,2,,,50,127
51445,note_off,11,0,0,,10,,,57,127
51512,note_on,67,0,0,,6,,,54,127
51523,note_off,11,0,0,,2,,,50,127
51551,note_off,28,0,0,,2,,,38,127
51605,note_off,54,0,0,,6,,,54,127
51616,note_on,11,0,0,,7,,,43,127
51616,note_on,0,0,0,,7,,,55,127
53385,note_off,1769,0,0,,7,,,55,127
53385,note_off,0,0,0,,7,,,43,127
59904,end_of_track,6519,1,0,,,,,,
