tick,type,time,meta,track,program,channel,pitch,tempo,note,velocity
0,copyright,0,1,0,,,,,,
0,program_change,0,0,0,6,0,,,,
0,pitchwheel,0,0,0,,0,0,,,
0,program_change,0,0,0,6,1,,,,
0,pitchwheel,0,0,0,,1,-590,,,
0,program_change,0,0,0,6,2,,,,
0,pitchwheel,0,0,0,,2,-272,,,
0,program_change,0,0,0,6,3,,,,
0,pitchwheel,0,0,0,,3,-353,,,
0,program_change,0,0,0,6,4,,,,
0,pitchwheel,0,0,0,,4,-560,,,
0,program_change,0,0,0,6,5,,,,
0,pitchwheel,0,0,0,,5,-80,,,
0,program_change,0,0,0,6,6,,,,
0,pitchwheel,0,0,0,,6,-625,,,
0,program_change,0,0,0,6,7,,,,
0,pitchwheel,0,0,0,,7,-130,,,
0,program_change,0,0,0,6,8,,,,
0,pitchwheel,0,0,0,,8,-512,,,
0,program_change,0,0,0,6,10,,,,
0,pitchwheel,0,0,0,,10,-464,,,
0,program_change,0,0,0,6,11,,,,
0,pitchwheel,0,0,0,,11,-208,,,
0,program_change,0,0,0,6,12,,,,
0,pitchwheel,0,0,0,,12,-553,,,
0,set_tempo,0,1,0,,,,500000,,
105,note_on,105,0,0,,5,,,65,127
208,note_off,103,0,0,,5,,,65,127
210,note_on,2,0,0,,4,,,64,127
313,note_off,103,0,0,,4,,,64,127
315,note_on,2,0,0,,7,,,67,127
418,note_off,103,0,0,,7,,,67,127
420,note_on,2,0,0,,5,,,65,127
523,note_off,103,0,0,,5,,,65,127
525,note_on,2,0,0,,10,,,69,127
628,note_off,103,0,0,,10,,,69,127
630,note_on,2,0,0,,7,,,67,127
733,note_off,103,0,0,,7,,,67,127
735,note_on,2,0,0,,11,,,70,127
838,note_off,103,0,0,,11,,,70,127
840,note_on,2,0,0,,10,,,69,127
943,note_off,103,0,0,,10,,,69,127
945,note_on,2,0,0,,0,,,72,127
1048,note_off,103,0,0,,0,,,72,127
1050,note_on,2,0,0,,11,,,70,127
1153,note_off,103,0,0,,11,,,70,127
1155,note_on,2,0,0,,10,,,69,127
1258,note_off,103,0,0,,10,,,69,127
1260,note_on,2,0,0,,7,,,67,127
1363,note_off,103,0,0,,7,,,67,127
1365,note_on,2,0,0,,5,,,53,127
1365,note_on,0,0,0,,10,,,69,127
1468,note_off,103,0,0,,5,,,53,127
1470,note_on,2,0,0,,4,,,52,127
1573,note_off,103,0,0,,4,,,52,127
1573,note_off,0,0,0,,10,,,69,127
1575,note_on,2,0,0,,7,,,55,127
1575,note_on,0,0,0,,11,,,70,127
1678,note_off,103,0,0,,7,,,55,127
1680,note_on,2,0,0,,5,,,53,127
1783,note_off,103,0,0,,5,,,53,127
1783,note_off,0,0,0,,11,,,70,127
1785,note_on,2,0,0,,10,,,57,127
1785,note_on,0,0,0,,0,,,72,127
1888,note_off,103,0,0,,10,,,57,127
1890,note_on,2,0,0,,7,,,55,127
1993,note_off,103,0,0,,7,,,55,127
1993,note_off,0,0,0,,0,,,72,127
1995,note_on,2,0,0,,11,,,58,127
1995,note_on,0,0,0,,2,,,74,127
2098,note_off,103,0,0,,11,,,58,127
2100,note_on,2,0,0,,10,,,57,127
2203,note_off,103,0,0,,10,,,57,127
2203,note_off,0,0,0,,2,,,74,127
2205,note_on,2,0,0,,0,,,60,127
2205,note_on,0,0,0,,5,,,65,127
2274,note_off,69,0,0,,5,,,65,127
2275,note_on,1,0,0,,4,,,64,127
2308,note_off,33,0,0,,0,,,60,127
2310,note_on,2,0,0,,11,,,58,127
2344,note_off,34,0,0,,4,,,64,127
2345,note_on,1,0,0,,5,,,65,127
2413,note_off,68,0,0,,11,,,58,127
2414,note_off,1,0,0,,5,,,65,127
2415,note_on,1,0,0,,10,,,57,127
2415,note_on,0,0,0,,4,,,64,127
2484,note_off,69,0,0,,4,,,64,127
2485,note_on,1,0,0,,2,,,62,127
2518,note_off,33,0,0,,10,,,57,127
2520,note_on,2,0,0,,7,,,55,127
2554,note_off,34,0,0,,2,,,62,127
2555,note_on,1,0,0,,4,,,64,127
2623,note_off,68,0,0,,7,,,55,127
2624,note_off,1,0,0,,4,,,64,127
2625,note_on,1,0,0,,10,,,57,127
2625,note_on,0,0,0,,0,,,60,127
2625,note_on,0,0,0,,5,,,65,127
2728,note_off,103,0,0,,5,,,65,127
2730,note_on,2,0,0,,0,,,72,127
2833,note_off,103,0,0,,0,,,72,127
2835,note_on,2,0,0,,11,,,70,127
2938,note_off,103,0,0,,11,,,70,127
2940,note_on,2,0,0,,0,,,72,127
3043,note_off,103,0,0,,0,,,72,127
3045,note_on,2,0,0,,2,,,74,127
3148,note_off,103,0,0,,2,,,74,127
3150,note_on,2,0,0,,0,,,72,127
3253,note_off,103,0,0,,0,,,60,127
3253,note_off,0,0,0,,10,,,57,127
3255,note_on,2,0,0,,4,,,52,127
3255,note_on,0,0,0,,0,,,60,127
3255,note_on,0,0,0,,7,,,79,127
3358,note_off,103,0,0,,0,,,72,127
3360,note_on,2,0,0,,11,,,70,127
3463,note_off,103,0,0,,11,,,70,127
3463,note_off,0,0,0,,7,,,79,127
3465,note_on,2,0,0,,10,,,69,127
3568,note_off,103,0,0,,10,,,69,127
3570,note_on,2,0,0,,11,,,70,127
3673,note_off,103,0,0,,11,,,70,127
3675,note_on,2,0,0,,0,,,72,127
3778,note_off,103,0,0,,0,,,72,127
3780,note_on,2,0,0,,11,,,70,127
3883,note_off,103,0,0,,11,,,70,127
3883,note_off,0,0,0,,0,,,60,127
3883,note_off,0,0,0,,4,,,52,127
3885,note_on,2,0,0,,5,,,53,127
3885,note_on,0,0,0,,0,,,60,127
3885,note_on,0,0,0,,10,,,81,127
3990,note_on,105,0,0,,0,,,72,127
4093,note_off,103,0,0,,0,,,72,127
4093,note_off,0,0,0,,10,,,81,127
4095,note_on,2,0,0,,11,,,70,127
4198,note_off,103,0,0,,11,,,70,127
4200,note_on,2,0,0,,0,,,72,127
4303,note_off,103,0,0,,0,,,72,127
4305,note_on,2,0,0,,2,,,74,127
4408,note_off,103,0,0,,2,,,74,127
4410,note_on,2,0,0,,0,,,72,127
4513,note_off,103,0,0,,0,,,60,127
4513,note_off,0,0,0,,5,,,53,127
4515,note_on,2,0,0,,4,,,52,127
4515,note_on,0,0,0,,0,,,60,127
4515,note_on,0,0,0,,7,,,79,127
4567,note_off,52,0,0,,0,,,72,127
4619,note_on,52,0,0,,11,,,70,127
4722,note_off,103,0,0,,11,,,70,127
4722,note_off,0,0,0,,7,,,79,127
4724,note_on,2,0,0,,10,,,69,127
4827,note_off,103,0,0,,10,,,69,127
4829,note_on,2,0,0,,11,,,70,127
4932,note_off,103,0,0,,11,,,70,127
4934,note_on,2,0,0,,0,,,72,127
5037,note_off,103,0,0,,0,,,72,127
5039,note_on,2,0,0,,11,,,70,127
5142,note_off,103,0,0,,11,,,70,127
5142,note_off,0,0,0,,0,,,60,127
5142,note_off,0,0,0,,4,,,52,127
5144,note_on,2,0,0,,5,,,53,127
5144,note_on,0,0,0,,10,,,69,127
5144,note_on,0,0,0,,0,,,72,127
5247,note_off,103,0,0,,5,,,53,127
5249,note_on,2,0,0,,5,,,65,127
5352,note_off,103,0,0,,5,,,65,127
5354,note_on,2,0,0,,4,,,64,127
5457,note_off,103,0,0,,4,,,64,127
5459,note_on,2,0,0,,5,,,65,127
5562,note_off,103,0,0,,5,,,65,127
5564,note_on,2,0,0,,7,,,67,127
5667,note_off,103,0,0,,7,,,67,127
5669,note_on,2,0,0,,5,,,65,127
5772,note_off,103,0,0,,5,,,65,127
5772,note_off,0,0,0,,0,,,72,127
5772,note_off,0,0,0,,10,,,69,127
5774,note_on,2,0,0,,11,,,58,127
5774,note_on,0,0,0,,11,,,70,127
5774,note_on,0,0,0,,2,,,74,127
5877,note_off,103,0,0,,11,,,58,127
5879,note_on,2,0,0,,5,,,65,127
5982,note_off,103,0,0,,5,,,65,127
5984,note_on,2,0,0,,4,,,64,127
6087,note_off,103,0,0,,4,,,64,127
6089,note_on,2,0,0,,5,,,65,127
6192,note_off,103,0,0,,5,,,65,127
6194,note_on,2,0,0,,7,,,67,127
6297,note_off,103,0,0,,7,,,67,127
6299,note_on,2,0,0,,5,,,65,127
6402,note_off,103,0,0,,5,,,65,127
6402,note_off,0,0,0,,2,,,74,127
6402,note_off,0,0,0,,11,,,70,127
6404,note_on,2,0,0,,5,,,53,127
6404,note_on,0,0,0,,0,,,72,127
6404,note_on,0,0,0,,10,,,69,127
6507,note_off,103,0,0,,5,,,53,127
6509,note_on,2,0,0,,5,,,65,127
6612,note_off,103,0,0,,5,,,65,127
6614,note_on,2,0,0,,4,,,64,127
6717,note_off,103,0,0,,4,,,64,127
6719,note_on,2,0,0,,5,,,65,127
6822,note_off,103,0,0,,5,,,65,127
6824,note_on,2,0,0,,7,,,67,127
6927,note_off,103,0,0,,7,,,67,127
6929,note_on,2,0,0,,5,,,65,127
7032,note_off,103,0,0,,5,,,65,127
7032,note_off,0,0,0,,10,,,69,127
7032,note_off,0,0,0,,0,,,72,127
7034,note_on,2,0,0,,0,,,48,127
7034,note_on,0,0,0,,11,,,70,127
7034,note_on,0,0,0,,7,,,67,127
7137,note_off,103,0,0,,0,,,48,127
7139,note_on,2,0,0,,5,,,65,127
7242,note_off,103,0,0,,5,,,65,127
7244,note_on,2,0,0,,4,,,64,127
7347,note_off,103,0,0,,4,,,64,127
7349,note_on,2,0,0,,5,,,65,127
7449,note_off,100,0,0,,7,,,67,127
7451,note_off,2,0,0,,5,,,65,127
7453,note_on,2,0,0,,7,,,67,127
7556,note_off,103,0,0,,7,,,67,127
7558,note_on,2,0,0,,5,,,65,127
7661,note_off,103,0,0,,5,,,65,127
7661,note_off,0,0,0,,11,,,70,127
7663,note_on,2,0,0,,5,,,41,127
7663,note_on,0,0,0,,10,,,69,127
7663,note_on,0,0,0,,0,,,72,127
7766,note_off,103,0,0,,5,,,41,127
7768,note_on,2,0,0,,5,,,65,127
7871,note_off,103,0,0,,5,,,65,127
7873,note_on,2,0,0,,4,,,64,127
7976,note_off,103,0,0,,4,,,64,127
7978,note_on,2,0,0,,5,,,65,127
8081,note_off,103,0,0,,5,,,65,127
8083,note_on,2,0,0,,7,,,67,127
8186,note_off,103,0,0,,7,,,67,127
8188,note_on,2,0,0,,5,,,65,127
8291,note_off,103,0,0,,5,,,65,127
8291,note_off,0,0,0,,0,,,72,127
8291,note_off,0,0,0,,10,,,69,127
8293,note_on,2,0,0,,11,,,58,127
8293,note_on,0,0,0,,2,,,74,127
8293,note_on,0,0,0,,11,,,70,127
8396,note_off,103,0,0,,11,,,58,127
8398,note_on,2,0,0,,5,,,65,127
8501,note_off,103,0,0,,5,,,65,127
8503,note_on,2,0,0,,4,,,64,127
8606,note_off,103,0,0,,4,,,64,127
8608,note_on,2,0,0,,5,,,65,127
8711,note_off,103,0,0,,5,,,65,127
8713,note_on,2,0,0,,7,,,67,127
8816,note_off,103,0,0,,7,,,67,127
8818,note_on,2,0,0,,5,,,65,127
8921,note_off,103,0,0,,5,,,65,127
8921,note_off,0,0,0,,11,,,70,127
8921,note_off,0,0,0,,2,,,74,127
8923,note_on,2,0,0,,5,,,53,127
8923,note_on,0,0,0,,10,,,69,127
8923,note_on,0,0,0,,0,,,72,127
9026,note_off,103,0,0,,5,,,53,127
9028,note_on,2,0,0,,5,,,65,127
9131,note_off,103,0,0,,5,,,65,127
9133,note_on,2,0,0,,4,,,64,127
9236,note_off,103,0,0,,4,,,64,127
9238,note_on,2,0,0,,5,,,65,127
9341,note_off,103,0,0,,5,,,65,127
9343,note_on,2,0,0,,7,,,67,127
9446,note_off,103,0,0,,7,,,67,127
9448,note_on,2,0,0,,5,,,65,127
9551,note_off,103,0,0,,5,,,65,127
9551,note_off,0,0,0,,0,,,72,127
9551,note_off,0,0,0,,10,,,69,127
9553,note_on,2,0,0,,0,,,48,127
9553,note_on,0,0,0,,11,,,70,127
9553,note_on,0,0,0,,7,,,67,127
9656,note_off,103,0,0,,0,,,48,127
9658,note_on,2,0,0,,5,,,65,127
9761,note_off,103,0,0,,5,,,65,127
9763,note_on,2,0,0,,4,,,64,127
9866,note_off,103,0,0,,4,,,64,127
9868,note_on,2,0,0,,5,,,65,127
9968,note_off,100,0,0,,7,,,67,127
9970,note_off,2,0,0,,5,,,65,127
9972,note_on,2,0,0,,7,,,67,127
10075,note_off,103,0,0,,7,,,67,127
10077,note_on,2,0,0,,5,,,65,127
10180,note_off,103,0,0,,5,,,65,127
10180,note_off,0,0,0,,11,,,70,127
10182,note_on,2,0,0,,5,,,41,127
10182,note_on,0,0,0,,10,,,69,127
10285,note_off,103,0,0,,10,,,69,127
10287,note_on,2,0,0,,7,,,67,127
10390,note_off,103,0,0,,7,,,67,127
10392,note_on,2,0,0,,12,,,71,127
10495,note_off,103,0,0,,12,,,71,127
10497,note_on,2,0,0,,10,,,69,127
10600,note_off,103,0,0,,10,,,69,127
10602,note_on,2,0,0,,0,,,72,127
10705,note_off,103,0,0,,0,,,72,127
10707,note_on,2,0,0,,12,,,71,127
10810,note_off,103,0,0,,12,,,71,127
10810,note_off,0,0,0,,5,,,41,127
10812,note_on,2,0,0,,5,,,53,127
10812,note_on,0,0,0,,2,,,62,127
10812,note_on,0,0,0,,2,,,74,127
10915,note_off,103,0,0,,2,,,74,127
10917,note_on,2,0,0,,0,,,72,127
11020,note_off,103,0,0,,0,,,72,127
11022,note_on,2,0,0,,4,,,76,127
11125,note_off,103,0,0,,4,,,76,127
11127,note_on,2,0,0,,2,,,74,127
11230,note_off,103,0,0,,2,,,74,127
11232,note_on,2,0,0,,5,,,77,127
11335,note_off,103,0,0,,5,,,77,127
11337,note_on,2,0,0,,4,,,76,127
11440,note_off,103,0,0,,4,,,76,127
11440,note_off,0,0,0,,2,,,62,127
11440,note_off,0,0,0,,5,,,53,127
11442,note_on,2,0,0,,4,,,52,127
11442,note_on,0,0,0,,2,,,62,127
11442,note_on,0,0,0,,7,,,67,127
11545,note_off,103,0,0,,7,,,67,127
11547,note_on,2,0,0,,5,,,65,127
11650,note_off,103,0,0,,5,,,65,127
11652,note_on,2,0,0,,10,,,69,127
11755,note_off,103,0,0,,10,,,69,127
11757,note_on,2,0,0,,7,,,67,127
11860,note_off,103,0,0,,7,,,67,127
11862,note_on,2,0,0,,12,,,71,127
11965,note_off,103,0,0,,12,,,71,127
11967,note_on,2,0,0,,10,,,69,127
12070,note_off,103,0,0,,10,,,69,127
12070,note_off,0,0,0,,2,,,62,127
12070,note_off,0,0,0,,4,,,52,127
12072,note_on,2,0,0,,4,,,52,127
12072,note_on,0,0,0,,0,,,60,127
12072,note_on,0,0,0,,0,,,72,127
12175,note_off,103,0,0,,0,,,72,127
12177,note_on,2,0,0,,12,,,71,127
12280,note_off,103,0,0,,12,,,71,127
12282,note_on,2,0,0,,2,,,74,127
12385,note_off,103,0,0,,2,,,74,127
12387,note_on,2,0,0,,0,,,72,127
12490,note_off,103,0,0,,0,,,72,127
12492,note_on,2,0,0,,4,,,76,127
12595,note_off,103,0,0,,4,,,76,127
12597,note_on,2,0,0,,2,,,74,127
12700,note_off,103,0,0,,2,,,74,127
12700,note_off,0,0,0,,0,,,60,127
12700,note_off,0,0,0,,4,,,52,127
12702,note_on,2,0,0,,0,,,60,127
12702,note_on,0,0,0,,2,,,50,127
12702,note_on,0,0,0,,5,,,65,127
12805,note_off,103,0,0,,5,,,65,127
12807,note_on,2,0,0,,4,,,64,127
12910,note_off,103,0,0,,4,,,64,127
12912,note_on,2,0,0,,7,,,67,127
13015,note_off,103,0,0,,7,,,67,127
13017,note_on,2,0,0,,5,,,65,127
13120,note_off,103,0,0,,5,,,65,127
13122,note_on,2,0,0,,10,,,69,127
13225,note_off,103,0,0,,10,,,69,127
13227,note_on,2,0,0,,7,,,67,127
13330,note_off,103,0,0,,7,,,67,127
13330,note_off,0,0,0,,2,,,50,127
13330,note_off,0,0,0,,0,,,60,127
13332,note_on,2,0,0,,2,,,50,127
13332,note_on,0,0,0,,12,,,59,127
13332,note_on,0,0,0,,12,,,71,127
13435,note_off,103,0,0,,12,,,71,127
13437,note_on,2,0,0,,10,,,69,127
13540,note_off,103,0,0,,10,,,69,127
13542,note_on,2,0,0,,0,,,72,127
13645,note_off,103,0,0,,0,,,72,127
13647,note_on,2,0,0,,12,,,71,127
13750,note_off,103,0,0,,12,,,71,127
13752,note_on,2,0,0,,2,,,74,127
13855,note_off,103,0,0,,2,,,74,127
13857,note_on,2,0,0,,0,,,72,127
13960,note_off,103,0,0,,0,,,72,127
13960,note_off,0,0,0,,12,,,59,127
13960,note_off,0,0,0,,2,,,50,127
13962,note_on,2,0,0,,0,,,48,127
13962,note_on,0,0,0,,4,,,76,127
14065,note_off,103,0,0,,0,,,48,127
14067,note_on,2,0,0,,12,,,47,127
14170,note_off,103,0,0,,12,,,47,127
14170,note_off,0,0,0,,4,,,76,127
14172,note_on,2,0,0,,2,,,50,127
14172,note_on,0,0,0,,5,,,77,127
14275,note_off,103,0,0,,2,,,50,127
14277,note_on,2,0,0,,0,,,48,127
14380,note_off,103,0,0,,0,,,48,127
14380,note_off,0,0,0,,5,,,77,127
14382,note_on,2,0,0,,4,,,52,127
14382,note_on,0,0,0,,7,,,79,127
14485,note_off,103,0,0,,4,,,52,127
14487,note_on,2,0,0,,2,,,50,127
14590,note_off,103,0,0,,2,,,50,127
14590,note_off,0,0,0,,7,,,79,127
14592,note_on,2,0,0,,5,,,53,127
14592,note_on,0,0,0,,10,,,81,127
14695,note_off,103,0,0,,5,,,53,127
14697,note_on,2,0,0,,4,,,52,127
14800,note_off,103,0,0,,4,,,52,127
14800,note_off,0,0,0,,10,,,81,127
14802,note_on,2,0,0,,7,,,55,127
14802,note_on,0,0,0,,0,,,72,127
14871,note_off,69,0,0,,0,,,72,127
14872,note_on,1,0,0,,12,,,71,127
14905,note_off,33,0,0,,7,,,55,127
14907,note_on,2,0,0,,5,,,53,127
14941,note_off,34,0,0,,12,,,71,127
14942,note_on,1,0,0,,0,,,72,127
15010,note_off,68,0,0,,5,,,53,127
15011,note_off,1,0,0,,0,,,72,127
15012,note_on,1,0,0,,4,,,52,127
15012,note_on,0,0,0,,12,,,71,127
15081,note_off,69,0,0,,12,,,71,127
15082,note_on,1,0,0,,10,,,69,127
15115,note_off,33,0,0,,4,,,52,127
15117,note_on,2,0,0,,2,,,50,127
15151,note_off,34,0,0,,10,,,69,127
15152,note_on,1,0,0,,12,,,71,127
15220,note_off,68,0,0,,2,,,50,127
15221,note_off,1,0,0,,12,,,71,127
15222,note_on,1,0,0,,7,,,55,127
15222,note_on,0,0,0,,0,,,48,127
15222,note_on,0,0,0,,0,,,72,127
15325,note_off,103,0,0,,0,,,72,127
15327,note_on,2,0,0,,12,,,71,127
15430,note_off,103,0,0,,12,,,71,127
15432,note_on,2,0,0,,2,,,74,127
15535,note_off,103,0,0,,2,,,74,127
15537,note_on,2,0,0,,0,,,72,127
15640,note_off,103,0,0,,0,,,72,127
15642,note_on,2,0,0,,4,,,76,127
15745,note_off,103,0,0,,4,,,76,127
15747,note_on,2,0,0,,2,,,74,127
15850,note_off,103,0,0,,2,,,74,127
15850,note_off,0,0,0,,0,,,48,127
15850,note_off,0,0,0,,7,,,55,127
15852,note_on,2,0,0,,12,,,47,127
15852,note_on,0,0,0,,7,,,55,127
15852,note_on,0,0,0,,5,,,77,127
15955,note_off,103,0,0,,5,,,77,127
15957,note_on,2,0,0,,4,,,76,127
16060,note_off,103,0,0,,4,,,76,127
16062,note_on,2,0,0,,7,,,79,127
16165,note_off,103,0,0,,7,,,79,127
16167,note_on,2,0,0,,5,,,77,127
16270,note_off,103,0,0,,5,,,77,127
16272,note_on,2,0,0,,4,,,76,127
16375,note_off,103,0,0,,4,,,76,127
16377,note_on,2,0,0,,2,,,74,127
16480,note_off,103,0,0,,2,,,74,127
16480,note_off,0,0,0,,7,,,55,127
16480,note_off,0,0,0,,12,,,47,127
16482,note_on,2,0,0,,0,,,36,127
16482,note_on,0,0,0,,0,,,72,127
16689,note_off,207,0,0,,0,,,36,127
16691,note_on,2,0,0,,0,,,60,127
16794,note_off,103,0,0,,0,,,60,127
16796,note_off,2,0,0,,0,,,72,127
16796,note_on,0,0,0,,12,,,59,127
16899,note_off,103,0,0,,12,,,59,127
16901,note_on,2,0,0,,2,,,62,127
17004,note_off,103,0,0,,2,,,62,127
17006,note_on,2,0,0,,0,,,60,127
17109,note_off,103,0,0,,0,,,60,127
17111,note_on,2,0,0,,4,,,64,127
17214,note_off,103,0,0,,4,,,64,127
17216,note_on,2,0,0,,2,,,62,127
17319,note_off,103,0,0,,2,,,62,127
17321,note_on,2,0,0,,5,,,65,127
17424,note_off,103,0,0,,5,,,65,127
17426,note_on,2,0,0,,4,,,64,127
17529,note_off,103,0,0,,4,,,64,127
17531,note_on,2,0,0,,7,,,67,127
17634,note_off,103,0,0,,7,,,67,127
17636,note_on,2,0,0,,5,,,65,127
17739,note_off,103,0,0,,5,,,65,127
17741,note_on,2,0,0,,8,,,68,127
17950,note_on,209,0,0,,0,,,72,127
18053,note_off,103,0,0,,0,,,72,127
18055,note_on,2,0,0,,12,,,71,127
18158,note_off,103,0,0,,12,,,71,127
18160,note_on,2,0,0,,2,,,74,127
18263,note_off,103,0,0,,2,,,74,127
18265,note_on,2,0,0,,0,,,72,127
18368,note_off,103,0,0,,0,,,72,127
18368,note_off,0,0,0,,8,,,68,127
18370,note_on,2,0,0,,7,,,67,127
18370,note_on,0,0,0,,4,,,76,127
18473,note_off,103,0,0,,4,,,76,127
18475,note_on,2,0,0,,2,,,74,127
18578,note_off,103,0,0,,2,,,74,127
18580,note_on,2,0,0,,5,,,77,127
18683,note_off,103,0,0,,5,,,77,127
18685,note_on,2,0,0,,4,,,76,127
18788,note_off,103,0,0,,4,,,76,127
18790,note_on,2,0,0,,7,,,79,127
18893,note_off,103,0,0,,7,,,79,127
18895,note_on,2,0,0,,5,,,77,127
18998,note_off,103,0,0,,5,,,77,127
18998,note_off,0,0,0,,7,,,67,127
19000,note_on,2,0,0,,5,,,65,127
19000,note_on,0,0,0,,8,,,80,127
19103,note_off,103,0,0,,8,,,80,127
19105,note_on,2,0,0,,7,,,79,127
19208,note_off,103,0,0,,7,,,79,127
19210,note_on,2,0,0,,11,,,82,127
19313,note_off,103,0,0,,11,,,82,127
19315,note_on,2,0,0,,8,,,80,127
19418,note_off,103,0,0,,8,,,80,127
19420,note_on,2,0,0,,0,,,84,127
19523,note_off,103,0,0,,0,,,84,127
19525,note_on,2,0,0,,11,,,82,127
19628,note_off,103,0,0,,11,,,82,127
19628,note_off,0,0,0,,5,,,65,127
19630,note_on,2,0,0,,3,,,63,127
19630,note_on,0,0,0,,1,,,85,127
19733,note_off,103,0,0,,1,,,85,127
19735,note_on,2,0,0,,0,,,84,127
19838,note_off,103,0,0,,0,,,84,127
19840,note_on,2,0,0,,11,,,82,127
19943,note_off,103,0,0,,11,,,82,127
19945,note_on,2,0,0,,8,,,80,127
20048,note_off,103,0,0,,8,,,80,127
20050,note_on,2,0,0,,7,,,79,127
20153,note_off,103,0,0,,7,,,79,127
20155,note_on,2,0,0,,1,,,85,127
20258,note_off,103,0,0,,1,,,85,127
20258,note_off,0,0,0,,3,,,63,127
20260,note_on,2,0,0,,8,,,56,127
20260,note_on,0,0,0,,0,,,84,127
20363,note_off,103,0,0,,0,,,84,127
20365,note_on,2,0,0,,11,,,82,127
20468,note_off,103,0,0,,11,,,82,127
20468,note_off,0,0,0,,8,,,56,127
20470,note_on,2,0,0,,11,,,58,127
20470,note_on,0,0,0,,8,,,80,127
20573,note_off,103,0,0,,8,,,80,127
20575,note_on,2,0,0,,7,,,79,127
20678,note_off,103,0,0,,7,,,79,127
20678,note_off,0,0,0,,11,,,58,127
20680,note_on,2,0,0,,0,,,60,127
20680,note_on,0,0,0,,5,,,77,127
20783,note_off,103,0,0,,5,,,77,127
20785,note_on,2,0,0,,3,,,75,127
20888,note_off,103,0,0,,3,,,75,127
20888,note_off,0,0,0,,0,,,60,127
20890,note_on,2,0,0,,1,,,61,127
20890,note_on,0,0,0,,1,,,73,127
20993,note_off,103,0,0,,1,,,73,127
20995,note_on,2,0,0,,0,,,72,127
21098,note_off,103,0,0,,0,,,72,127
21098,note_off,0,0,0,,1,,,61,127
21100,note_on,2,0,0,,3,,,63,127
21100,note_on,0,0,0,,11,,,70,127
21203,note_off,103,0,0,,11,,,70,127
21205,note_on,2,0,0,,8,,,68,127
21308,note_off,103,0,0,,8,,,68,127
21310,note_on,2,0,0,,3,,,51,127
21310,note_on,0,0,0,,7,,,67,127
21413,note_off,103,0,0,,7,,,67,127
21415,note_on,2,0,0,,11,,,70,127
21515,note_off,100,0,0,,3,,,63,127
21517,note_off,2,0,0,,11,,,70,127
21517,note_off,0,0,0,,3,,,51,127
21519,note_on,2,0,0,,8,,,56,127
21519,note_on,0,0,0,,3,,,63,127
21519,note_on,0,0,0,,8,,,68,127
21622,note_off,103,0,0,,8,,,68,127
21624,note_on,2,0,0,,7,,,67,127
21727,note_off,103,0,0,,7,,,67,127
21729,note_on,2,0,0,,11,,,70,127
21832,note_off,103,0,0,,11,,,70,127
21834,note_on,2,0,0,,8,,,68,127
21937,note_off,103,0,0,,8,,,68,127
21939,note_on,2,0,0,,0,,,72,127
22042,note_off,103,0,0,,0,,,72,127
22044,note_on,2,0,0,,11,,,70,127
22147,note_off,103,0,0,,11,,,70,127
22147,note_off,0,0,0,,3,,,63,127
22147,note_off,0,0,0,,8,,,56,127
22149,note_on,2,0,0,,3,,,63,127
22149,note_on,0,0,0,,6,,,54,127
22149,note_on,0,0,0,,1,,,73,127
22252,note_off,103,0,0,,1,,,73,127
22254,note_on,2,0,0,,0,,,72,127
22357,note_off,103,0,0,,0,,,72,127
22359,note_on,2,0,0,,3,,,75,127
22462,note_off,103,0,0,,3,,,75,127
22464,note_on,2,0,0,,1,,,73,127
22567,note_off,103,0,0,,1,,,73,127
22569,note_on,2,0,0,,0,,,72,127
22672,note_off,103,0,0,,0,,,72,127
22674,note_on,2,0,0,,11,,,70,127
22777,note_off,103,0,0,,11,,,70,127
22777,note_off,0,0,0,,6,,,54,127
22777,note_off,0,0,0,,3,,,63,127
22779,note_on,2,0,0,,5,,,53,127
22779,note_on,0,0,0,,3,,,63,127
22779,note_on,0,0,0,,11,,,70,127
22882,note_off,103,0,0,,11,,,70,127
22884,note_on,2,0,0,,10,,,69,127
22987,note_off,103,0,0,,10,,,69,127
22989,note_on,2,0,0,,0,,,72,127
23092,note_off,103,0,0,,0,,,72,127
23094,note_on,2,0,0,,11,,,70,127
23197,note_off,103,0,0,,11,,,70,127
23199,note_on,2,0,0,,1,,,73,127
23302,note_off,103,0,0,,1,,,73,127
23304,note_on,2,0,0,,0,,,72,127
23407,note_off,103,0,0,,0,,,72,127
23407,note_off,0,0,0,,3,,,63,127
23407,note_off,0,0,0,,5,,,53,127
23409,note_on,2,0,0,,5,,,53,127
23409,note_on,0,0,0,,5,,,65,127
23409,note_on,0,0,0,,3,,,75,127
23512,note_off,103,0,0,,3,,,75,127
23514,note_on,2,0,0,,2,,,74,127
23617,note_off,103,0,0,,2,,,74,127
23619,note_on,2,0,0,,5,,,77,127
23722,note_off,103,0,0,,5,,,77,127
23724,note_on,2,0,0,,3,,,75,127
23827,note_off,103,0,0,,3,,,75,127
23829,note_on,2,0,0,,2,,,74,127
23932,note_off,103,0,0,,2,,,74,127
23934,note_on,2,0,0,,0,,,72,127
24037,note_off,103,0,0,,0,,,72,127
24037,note_off,0,0,0,,5,,,65,127
24037,note_off,0,0,0,,5,,,53,127
24039,note_on,2,0,0,,7,,,55,127
24039,note_on,0,0,0,,5,,,65,127
24039,note_on,0,0,0,,0,,,72,127
24142,note_off,103,0,0,,0,,,72,127
24144,note_on,2,0,0,,12,,,71,127
24247,note_off,103,0,0,,12,,,71,127
24249,note_on,2,0,0,,2,,,74,127
24352,note_off,103,0,0,,2,,,74,127
24354,note_on,2,0,0,,0,,,72,127
24457,note_off,103,0,0,,0,,,72,127
24459,note_on,2,0,0,,3,,,75,127
24562,note_off,103,0,0,,3,,,75,127
24564,note_on,2,0,0,,2,,,74,127
24667,note_off,103,0,0,,2,,,74,127
24667,note_off,0,0,0,,5,,,65,127
24667,note_off,0,0,0,,7,,,55,127
24669,note_on,2,0,0,,7,,,67,127
24669,note_on,0,0,0,,7,,,55,127
24669,note_on,0,0,0,,5,,,77,127
24772,note_off,103,0,0,,5,,,77,127
24774,note_on,2,0,0,,3,,,75,127
24877,note_off,103,0,0,,3,,,75,127
24879,note_on,2,0,0,,7,,,79,127
24982,note_off,103,0,0,,7,,,79,127
24984,note_on,2,0,0,,5,,,77,127
25087,note_off,103,0,0,,5,,,77,127
25089,note_on,2,0,0,,3,,,75,127
25192,note_off,103,0,0,,3,,,75,127
25194,note_on,2,0,0,,2,,,74,127
25297,note_off,103,0,0,,2,,,74,127
25297,note_off,0,0,0,,7,,,55,127
25297,note_off,0,0,0,,7,,,67,127
25299,note_on,2,0,0,,7,,,67,127
25299,note_on,0,0,0,,8,,,56,127
25299,note_on,0,0,0,,2,,,74,127
25402,note_off,103,0,0,,2,,,74,127
25404,note_on,2,0,0,,0,,,72,127
25507,note_off,103,0,0,,0,,,72,127
25509,note_on,2,0,0,,3,,,75,127
25612,note_off,103,0,0,,3,,,75,127
25614,note_on,2,0,0,,2,,,74,127
25717,note_off,103,0,0,,2,,,74,127
25719,note_on,2,0,0,,5,,,77,127
25822,note_off,103,0,0,,5,,,77,127
25824,note_on,2,0,0,,3,,,75,127
25927,note_off,103,0,0,,3,,,75,127
25927,note_off,0,0,0,,8,,,56,127
25927,note_off,0,0,0,,7,,,67,127
25929,note_on,2,0,0,,5,,,53,127
25929,note_on,0,0,0,,5,,,65,127
25929,note_on,0,0,0,,8,,,80,127
26032,note_off,103,0,0,,8,,,80,127
26034,note_on,2,0,0,,7,,,79,127
26137,note_off,103,0,0,,7,,,79,127
26139,note_on,2,0,0,,5,,,77,127
26242,note_off,103,0,0,,5,,,77,127
26244,note_on,2,0,0,,3,,,75,127
26347,note_off,103,0,0,,3,,,75,127
26349,note_on,2,0,0,,2,,,74,127
26452,note_off,103,0,0,,2,,,74,127
26454,note_on,2,0,0,,0,,,72,127
26557,note_off,103,0,0,,0,,,72,127
26557,note_off,0,0,0,,5,,,65,127
26557,note_off,0,0,0,,5,,,53,127
26559,note_on,2,0,0,,7,,,55,127
26559,note_on,0,0,0,,2,,,74,127
26559,note_on,0,0,0,,12,,,71,127
26662,note_off,103,0,0,,7,,,55,127
26664,note_on,2,0,0,,7,,,67,127
26767,note_off,103,0,0,,7,,,67,127
26769,note_on,2,0,0,,6,,,66,127
26872,note_off,103,0,0,,6,,,66,127
26874,note_on,2,0,0,,7,,,67,127
26977,note_off,103,0,0,,7,,,67,127
26979,note_on,2,0,0,,8,,,68,127
27082,note_off,103,0,0,,8,,,68,127
27084,note_on,2,0,0,,7,,,67,127
27187,note_off,103,0,0,,7,,,67,127
27187,note_off,0,0,0,,12,,,71,127
27187,note_off,0,0,0,,2,,,74,127
27189,note_on,2,0,0,,0,,,60,127
27189,note_on,0,0,0,,3,,,75,127
27189,note_on,0,0,0,,0,,,72,127
27292,note_off,103,0,0,,0,,,60,127
27294,note_on,2,0,0,,7,,,67,127
27397,note_off,103,0,0,,7,,,67,127
27399,note_on,2,0,0,,6,,,66,127
27502,note_off,103,0,0,,6,,,66,127
27504,note_on,2,0,0,,7,,,67,127
27607,note_off,103,0,0,,7,,,67,127
27609,note_on,2,0,0,,8,,,68,127
27712,note_off,103,0,0,,8,,,68,127
27714,note_on,2,0,0,,7,,,67,127
27817,note_off,103,0,0,,7,,,67,127
27817,note_off,0,0,0,,0,,,72,127
27817,note_off,0,0,0,,3,,,75,127
27819,note_on,2,0,0,,7,,,55,127
27819,note_on,0,0,0,,12,,,71,127
27819,note_on,0,0,0,,2,,,74,127
27922,note_off,103,0,0,,7,,,55,127
27924,note_on,2,0,0,,7,,,67,127
28027,note_off,103,0,0,,7,,,67,127
28029,note_on,2,0,0,,6,,,66,127
28132,note_off,103,0,0,,6,,,66,127
28134,note_on,2,0,0,,7,,,67,127
28237,note_off,103,0,0,,7,,,67,127
28239,note_on,2,0,0,,8,,,68,127
28342,note_off,103,0,0,,8,,,68,127
28344,note_on,2,0,0,,7,,,67,127
28447,note_off,103,0,0,,7,,,67,127
28447,note_off,0,0,0,,2,,,74,127
28447,note_off,0,0,0,,12,,,71,127
28449,note_on,2,0,0,,0,,,48,127
28449,note_on,0,0,0,,0,,,72,127
28449,note_on,0,0,0,,3,,,75,127
28552,note_off,103,0,0,,0,,,48,127
28554,note_on,2,0,0,,7,,,67,127
28657,note_off,103,0,0,,7,,,67,127
28659,note_on,2,0,0,,6,,,66,127
28762,note_off,103,0,0,,6,,,66,127
28764,note_on,2,0,0,,7,,,67,127
28867,note_off,103,0,0,,7,,,67,127
28869,note_on,2,0,0,,8,,,68,127
28972,note_off,103,0,0,,8,,,68,127
28974,note_on,2,0,0,,7,,,67,127
29077,note_off,103,0,0,,7,,,67,127
29077,note_off,0,0,0,,3,,,75,127
29077,note_off,0,0,0,,0,,,72,127
29079,note_on,2,0,0,,7,,,43,127
29079,note_on,0,0,0,,2,,,74,127
29182,note_off,103,0,0,,2,,,74,127
29184,note_on,2,0,0,,0,,,72,127
29287,note_off,103,0,0,,0,,,72,127
29289,note_on,2,0,0,,12,,,71,127
29392,note_off,103,0,0,,12,,,71,127
29394,note_on,2,0,0,,10,,,69,127
29497,note_off,103,0,0,,10,,,69,127
29499,note_on,2,0,0,,7,,,67,127
29602,note_off,103,0,0,,7,,,67,127
29604,note_on,2,0,0,,5,,,65,127
29707,note_off,103,0,0,,5,,,65,127
29707,note_off,0,0,0,,7,,,43,127
29709,note_on,2,0,0,,0,,,48,127
29709,note_on,0,0,0,,7,,,67,127
29709,note_on,0,0,0,,4,,,76,127
29709,note_on,0,0,0,,0,,,72,127
29812,note_off,103,0,0,,0,,,48,127
29814,note_on,2,0,0,,0,,,60,127
29917,note_off,103,0,0,,0,,,60,127
29919,note_on,2,0,0,,12,,,59,127
30022,note_off,103,0,0,,12,,,59,127
30024,note_on,2,0,0,,0,,,60,127
30127,note_off,103,0,0,,0,,,60,127
30129,note_on,2,0,0,,2,,,62,127
30232,note_off,103,0,0,,2,,,62,127
30234,note_on,2,0,0,,0,,,60,127
30337,note_off,103,0,0,,0,,,60,127
30337,note_off,0,0,0,,0,,,72,127
30337,note_off,0,0,0,,4,,,76,127
30337,note_off,0,0,0,,7,,,67,127
30339,note_on,2,0,0,,5,,,53,127
30339,note_on,0,0,0,,5,,,77,127
30339,note_on,0,0,0,,10,,,69,127
30339,note_on,0,0,0,,10,,,81,127
30442,note_off,103,0,0,,5,,,53,127
30444,note_on,2,0,0,,0,,,60,127
30547,note_off,103,0,0,,0,,,60,127
30549,note_on,2,0,0,,12,,,59,127
30652,note_off,103,0,0,,12,,,59,127
30654,note_on,2,0,0,,0,,,60,127
30757,note_off,103,0,0,,0,,,60,127
30759,note_on,2,0,0,,2,,,62,127
30862,note_off,103,0,0,,2,,,62,127
30864,note_on,2,0,0,,0,,,60,127
30967,note_off,103,0,0,,0,,,60,127
30967,note_off,0,0,0,,10,,,81,127
30967,note_off,0,0,0,,10,,,69,127
30967,note_off,0,0,0,,5,,,77,127
30969,note_on,2,0,0,,0,,,48,127
30969,note_on,0,0,0,,7,,,67,127
30969,note_on,0,0,0,,7,,,79,127
30969,note_on,0,0,0,,4,,,76,127
31072,note_off,103,0,0,,0,,,48,127
31074,note_on,2,0,0,,0,,,60,127
31177,note_off,103,0,0,,0,,,60,127
31179,note_on,2,0,0,,12,,,59,127
31282,note_off,103,0,0,,12,,,59,127
31284,note_on,2,0,0,,0,,,60,127
31387,note_off,103,0,0,,0,,,60,127
31389,note_on,2,0,0,,2,,,62,127
31492,note_off,103,0,0,,2,,,62,127
31494,note_on,2,0,0,,0,,,60,127
31597,note_off,103,0,0,,0,,,60,127
31597,note_off,0,0,0,,4,,,76,127
31597,note_off,0,0,0,,7,,,79,127
31597,note_off,0,0,0,,7,,,67,127
31599,note_on,2,0,0,,7,,,43,127
31599,note_on,0,0,0,,2,,,74,127
31599,note_on,0,0,0,,5,,,65,127
31599,note_on,0,0,0,,5,,,77,127
31702,note_off,103,0,0,,7,,,43,127
31704,note_on,2,0,0,,0,,,60,127
31807,note_off,103,0,0,,0,,,60,127
31809,note_on,2,0,0,,12,,,59,127
31912,note_off,103,0,0,,12,,,59,127
31914,note_on,2,0,0,,0,,,60,127
32017,note_off,103,0,0,,0,,,60,127
32019,note_on,2,0,0,,2,,,62,127
32122,note_off,103,0,0,,2,,,62,127
32124,note_on,2,0,0,,0,,,60,127
32227,note_off,103,0,0,,0,,,60,127
32227,note_off,0,0,0,,5,,,77,127
32227,note_off,0,0,0,,5,,,65,127
32227,note_off,0,0,0,,2,,,74,127
32229,note_on,2,0,0,,0,,,36,127
32229,note_on,0,0,0,,0,,,72,127
32229,note_on,0,0,0,,4,,,64,127
32229,note_on,0,0,0,,4,,,76,127
32332,note_off,103,0,0,,0,,,36,127
32334,note_on,2,0,0,,0,,,60,127
32437,note_off,103,0,0,,0,,,60,127
32439,note_on,2,0,0,,12,,,59,127
32542,note_off,103,0,0,,12,,,59,127
32544,note_on,2,0,0,,0,,,60,127
32647,note_off,103,0,0,,0,,,60,127
32649,note_on,2,0,0,,2,,,62,127
32752,note_off,103,0,0,,2,,,62,127
32754,note_on,2,0,0,,0,,,60,127
32857,note_off,103,0,0,,0,,,60,127
32857,note_off,0,0,0,,4,,,76,127
32857,note_off,0,0,0,,4,,,64,127
32857,note_off,0,0,0,,0,,,72,127
32859,note_on,2,0,0,,5,,,53,127
32859,note_on,0,0,0,,10,,,69,127
32859,note_on,0,0,0,,10,,,81,127
32859,note_on,0,0,0,,5,,,77,127
32962,note_off,103,0,0,,5,,,53,127
32964,note_on,2,0,0,,0,,,60,127
33067,note_off,103,0,0,,0,,,60,127
33069,note_on,2,0,0,,12,,,59,127
33172,note_off,103,0,0,,12,,,59,127
33174,note_on,2,0,0,,0,,,60,127
33277,note_off,103,0,0,,0,,,60,127
33279,note_on,2,0,0,,2,,,62,127
33382,note_off,103,0,0,,2,,,62,127
33384,note_on,2,0,0,,0,,,60,127
33487,note_off,103,0,0,,0,,,60,127
33487,note_off,0,0,0,,5,,,77,127
33487,note_off,0,0,0,,10,,,81,127
33487,note_off,0,0,0,,10,,,69,127
33489,note_on,2,0,0,,0,,,48,127
33489,note_on,0,0,0,,7,,,67,127
33489,note_on,0,0,0,,7,,,79,127
33489,note_on,0,0,0,,4,,,76,127
33592,note_off,103,0,0,,0,,,48,127
33594,note_on,2,0,0,,0,,,60,127
33697,note_off,103,0,0,,0,,,60,127
33699,note_on,2,0,0,,12,,,59,127
33802,note_off,103,0,0,,12,,,59,127
33804,note_on,2,0,0,,0,,,60,127
33907,note_off,103,0,0,,0,,,60,127
33909,note_on,2,0,0,,2,,,62,127
34012,note_off,103,0,0,,2,,,62,127
34014,note_on,2,0,0,,0,,,60,127
34117,note_off,103,0,0,,0,,,60,127
34117,note_off,0,0,0,,4,,,76,127
34117,note_off,0,0,0,,7,,,79,127
34117,note_off,0,0,0,,7,,,67,127
34119,note_on,2,0,0,,7,,,43,127
34119,note_on,0,0,0,,5,,,65,127
34119,note_on,0,0,0,,5,,,77,127
34119,note_on,0,0,0,,2,,,74,127
34222,note_off,103,0,0,,7,,,43,127
34224,note_on,2,0,0,,0,,,60,127
34327,note_off,103,0,0,,0,,,60,127
34329,note_on,2,0,0,,12,,,59,127
34432,note_off,103,0,0,,12,,,59,127
34434,note_on,2,0,0,,0,,,60,127
34537,note_off,103,0,0,,0,,,60,127
34539,note_on,2,0,0,,2,,,62,127
34642,note_off,103,0,0,,2,,,62,127
34644,note_on,2,0,0,,0,,,60,127
34747,note_off,103,0,0,,0,,,60,127
34747,note_off,0,0,0,,2,,,74,127
34747,note_off,0,0,0,,5,,,77,127
34747,note_off,0,0,0,,5,,,65,127
34749,note_on,2,0,0,,0,,,36,127
34749,note_on,0,0,0,,4,,,76,127
34852,note_off,103,0,0,,4,,,76,127
34854,note_on,2,0,0,,2,,,74,127
34957,note_off,103,0,0,,2,,,74,127
34957,note_off,0,0,0,,0,,,36,127
34959,note_on,2,0,0,,2,,,38,127
34959,note_on,0,0,0,,0,,,72,127
35062,note_off,103,0,0,,0,,,72,127
35064,note_on,2,0,0,,12,,,71,127
35167,note_off,103,0,0,,12,,,71,127
35167,note_off,0,0,0,,2,,,38,127
35169,note_on,2,0,0,,4,,,40,127
35169,note_on,0,0,0,,0,,,72,127
35272,note_off,103,0,0,,0,,,72,127
35274,note_on,2,0,0,,4,,,76,127
35377,note_off,103,0,0,,4,,,76,127
35377,note_off,0,0,0,,4,,,40,127
35379,note_on,2,0,0,,5,,,41,127
35379,note_on,0,0,0,,2,,,74,127
35482,note_off,103,0,0,,2,,,74,127
35484,note_on,2,0,0,,5,,,77,127
35587,note_off,103,0,0,,5,,,77,127
35587,note_off,0,0,0,,5,,,41,127
35589,note_on,2,0,0,,7,,,43,127
35589,note_on,0,0,0,,4,,,76,127
35692,note_off,103,0,0,,4,,,76,127
35694,note_on,2,0,0,,2,,,74,127
35797,note_off,103,0,0,,2,,,74,127
35797,note_off,0,0,0,,7,,,43,127
35799,note_on,2,0,0,,7,,,43,127
35799,note_on,0,0,0,,0,,,72,127
35902,note_off,103,0,0,,0,,,72,127
35904,note_on,2,0,0,,12,,,71,127
36007,note_off,103,0,0,,12,,,71,127
36007,note_off,0,0,0,,7,,,43,127
36009,note_on,2,0,0,,0,,,36,127
36009,note_on,0,0,0,,0,,,72,127
36112,note_off,103,0,0,,0,,,72,127
36114,note_on,2,0,0,,7,,,79,127
36217,note_off,103,0,0,,7,,,79,127
36219,note_on,2,0,0,,5,,,77,127
36322,note_off,103,0,0,,5,,,77,127
36324,note_on,2,0,0,,7,,,79,127
36427,note_off,103,0,0,,7,,,79,127
36429,note_on,2,0,0,,10,,,81,127
36532,note_off,103,0,0,,10,,,81,127
36534,note_off,2,0,0,,0,,,36,127
36534,note_on,0,0,0,,7,,,79,127
36639,note_on,105,0,0,,7,,,55,127
36639,note_on,0,0,0,,12,,,47,127
36639,note_on,0,0,0,,7,,,67,127
36742,note_off,103,0,0,,7,,,67,127
36742,note_off,0,0,0,,7,,,79,127
36744,note_on,2,0,0,,5,,,77,127
36847,note_off,103,0,0,,5,,,77,127
36849,note_on,2,0,0,,4,,,76,127
36952,note_off,103,0,0,,4,,,76,127
36954,note_on,2,0,0,,5,,,77,127
37057,note_off,103,0,0,,5,,,77,127
37059,note_on,2,0,0,,7,,,79,127
37162,note_off,103,0,0,,7,,,79,127
37164,note_on,2,0,0,,5,,,77,127
37267,note_off,103,0,0,,12,,,47,127
37267,note_off,0,0,0,,7,,,55,127
37269,note_on,2,0,0,,0,,,48,127
37269,note_on,0,0,0,,7,,,55,127
37269,note_on,0,0,0,,7,,,67,127
37372,note_off,103,0,0,,7,,,67,127
37372,note_off,0,0,0,,5,,,77,127
37374,note_on,2,0,0,,4,,,76,127
37477,note_off,103,0,0,,4,,,76,127
37479,note_on,2,0,0,,2,,,74,127
37582,note_off,103,0,0,,2,,,74,127
37584,note_on,2,0,0,,4,,,76,127
37687,note_off,103,0,0,,4,,,76,127
37689,note_on,2,0,0,,5,,,77,127
37792,note_off,103,0,0,,5,,,77,127
37794,note_on,2,0,0,,4,,,76,127
37897,note_off,103,0,0,,4,,,76,127
37897,note_off,0,0,0,,7,,,55,127
37897,note_off,0,0,0,,0,,,48,127
37899,note_on,2,0,0,,5,,,53,127
37899,note_on,0,0,0,,5,,,65,127
38002,note_off,103,0,0,,5,,,65,127
38004,note_on,2,0,0,,2,,,74,127
38107,note_off,103,0,0,,2,,,74,127
38107,note_off,0,0,0,,5,,,53,127
38109,note_on,2,0,0,,7,,,55,127
38109,note_on,0,0,0,,4,,,64,127
38212,note_off,103,0,0,,4,,,64,127
38214,note_on,2,0,0,,0,,,72,127
38317,note_off,103,0,0,,0,,,72,127
38319,note_on,2,0,0,,7,,,43,127
38319,note_on,0,0,0,,2,,,62,127
38422,note_off,103,0,0,,2,,,62,127
38424,note_on,2,0,0,,12,,,71,127
38524,note_off,100,0,0,,7,,,55,127
38526,note_off,2,0,0,,12,,,71,127
38526,note_off,0,0,0,,7,,,43,127
38528,note_on,2,0,0,,0,,,48,127
38528,note_on,0,0,0,,7,,,55,127
38528,note_on,0,0,0,,0,,,72,127
38631,note_off,103,0,0,,0,,,72,127
38633,note_on,2,0,0,,7,,,79,127
38736,note_off,103,0,0,,7,,,79,127
38738,note_on,2,0,0,,5,,,77,127
38841,note_off,103,0,0,,5,,,77,127
38843,note_on,2,0,0,,7,,,79,127
38946,note_off,103,0,0,,7,,,79,127
38948,note_on,2,0,0,,10,,,81,127
39051,note_off,103,0,0,,10,,,81,127
39053,note_on,2,0,0,,7,,,79,127
39156,note_off,103,0,0,,7,,,55,127
39156,note_off,0,0,0,,0,,,48,127
39158,note_on,2,0,0,,12,,,47,127
39158,note_on,0,0,0,,7,,,55,127
39158,note_on,0,0,0,,7,,,67,127
39261,note_off,103,0,0,,7,,,79,127
39263,note_on,2,0,0,,5,,,77,127
39315,note_off,52,0,0,,7,,,67,127
39365,note_off,50,0,0,,5,,,77,127
39367,note_on,2,0,0,,4,,,76,127
39470,note_off,103,0,0,,4,,,76,127
39472,note_on,2,0,0,,5,,,77,127
39575,note_off,103,0,0,,5,,,77,127
39577,note_on,2,0,0,,7,,,79,127
39680,note_off,103,0,0,,7,,,79,127
39682,note_on,2,0,0,,5,,,77,127
39785,note_off,103,0,0,,7,,,55,127
39785,note_off,0,0,0,,12,,,47,127
39787,note_on,2,0,0,,7,,,55,127
39787,note_on,0,0,0,,0,,,48,127
39787,note_on,0,0,0,,7,,,67,127
39890,note_off,103,0,0,,5,,,77,127
39892,note_on,2,0,0,,4,,,76,127
39944,note_off,52,0,0,,7,,,67,127
39994,note_off,50,0,0,,4,,,76,127
39994,note_off,0,0,0,,0,,,48,127
39996,note_on,2,0,0,,2,,,50,127
39996,note_on,0,0,0,,2,,,74,127
40099,note_off,103,0,0,,2,,,74,127
40101,note_on,2,0,0,,4,,,76,127
40204,note_off,103,0,0,,4,,,76,127
40204,note_off,0,0,0,,2,,,50,127
40206,note_on,2,0,0,,4,,,52,127
40206,note_on,0,0,0,,5,,,77,127
40309,note_off,103,0,0,,5,,,77,127
40311,note_on,2,0,0,,4,,,76,127
40414,note_off,103,0,0,,4,,,52,127
40415,note_off,1,0,0,,7,,,55,127
40416,note_on,1,0,0,,5,,,53,127
40416,note_on,0,0,0,,5,,,65,127
40519,note_off,103,0,0,,5,,,65,127
40519,note_off,0,0,0,,4,,,76,127
40521,note_on,2,0,0,,2,,,74,127
40624,note_off,103,0,0,,5,,,53,127
40626,note_on,2,0,0,,7,,,55,127
40626,note_on,0,0,0,,4,,,64,127
40729,note_off,103,0,0,,4,,,64,127
40729,note_off,0,0,0,,2,,,74,127
40731,note_on,2,0,0,,0,,,72,127
40834,note_off,103,0,0,,7,,,55,127
40836,note_on,2,0,0,,5,,,53,127
40836,note_on,0,0,0,,2,,,62,127
40939,note_off,103,0,0,,2,,,62,127
40939,note_off,0,0,0,,0,,,72,127
40941,note_on,2,0,0,,12,,,71,127
41044,note_off,103,0,0,,12,,,71,127
41044,note_off,0,0,0,,5,,,53,127
41046,note_on,2,0,0,,4,,,52,127
41046,note_on,0,0,0,,4,,,40,127
41046,note_on,0,0,0,,0,,,72,127
41149,note_off,103,0,0,,0,,,72,127
41151,note_on,2,0,0,,4,,,76,127
41254,note_off,103,0,0,,4,,,76,127
41254,note_off,0,0,0,,4,,,40,127
41254,note_off,0,0,0,,4,,,52,127
41256,note_on,2,0,0,,5,,,41,127
41256,note_on,0,0,0,,5,,,53,127
41256,note_on,0,0,0,,2,,,74,127
41359,note_off,103,0,0,,2,,,74,127
41361,note_on,2,0,0,,5,,,77,127
41464,note_off,103,0,0,,5,,,77,127
41464,note_off,0,0,0,,5,,,53,127
41464,note_off,0,0,0,,5,,,41,127
41466,note_on,2,0,0,,7,,,43,127
41466,note_on,0,0,0,,7,,,55,127
41466,note_on,0,0,0,,4,,,76,127
41569,note_off,103,0,0,,4,,,76,127
41571,note_on,2,0,0,,2,,,74,127
41674,note_off,103,0,0,,2,,,74,127
41674,note_off,0,0,0,,7,,,55,127
41674,note_off,0,0,0,,7,,,43,127
41676,note_on,2,0,0,,4,,,40,127
41676,note_on,0,0,0,,4,,,52,127
41676,note_on,0,0,0,,0,,,72,127
41779,note_off,103,0,0,,0,,,72,127
41781,note_on,2,0,0,,7,,,67,127
41884,note_off,103,0,0,,7,,,67,127
41884,note_off,0,0,0,,4,,,52,127
41884,note_off,0,0,0,,4,,,40,127
41886,note_on,2,0,0,,5,,,41,127
41886,note_on,0,0,0,,5,,,53,127
41886,note_on,0,0,0,,10,,,69,127
41989,note_off,103,0,0,,10,,,69,127
41991,note_on,2,0,0,,5,,,65,127
42094,note_off,103,0,0,,5,,,65,127
42094,note_off,0,0,0,,5,,,53,127
42094,note_off,0,0,0,,5,,,41,127
42096,note_on,2,0,0,,7,,,43,127
42096,note_on,0,0,0,,7,,,55,127
42096,note_on,0,0,0,,2,,,62,127
42199,note_off,103,0,0,,2,,,62,127
42201,note_on,2,0,0,,12,,,71,127
42304,note_off,103,0,0,,12,,,71,127
42304,note_off,0,0,0,,7,,,55,127
42304,note_off,0,0,0,,7,,,43,127
42306,note_on,2,0,0,,4,,,40,127
42306,note_on,0,0,0,,4,,,52,127
42306,note_on,0,0,0,,0,,,72,127
42409,note_off,103,0,0,,0,,,72,127
42411,note_on,2,0,0,,4,,,76,127
42514,note_off,103,0,0,,4,,,76,127
42514,note_off,0,0,0,,4,,,52,127
42514,note_off,0,0,0,,4,,,40,127
42516,note_on,2,0,0,,5,,,41,127
42516,note_on,0,0,0,,5,,,53,127
42516,note_on,0,0,0,,2,,,74,127
42619,note_off,103,0,0,,2,,,74,127
42621,note_on,2,0,0,,5,,,77,127
42724,note_off,103,0,0,,5,,,77,127
42724,note_off,0,0,0,,5,,,53,127
42724,note_off,0,0,0,,5,,,41,127
42726,note_on,2,0,0,,7,,,43,127
42726,note_on,0,0,0,,7,,,55,127
42726,note_on,0,0,0,,4,,,76,127
42829,note_off,103,0,0,,4,,,76,127
42831,note_on,2,0,0,,2,,,74,127
42934,note_off,103,0,0,,2,,,74,127
42934,note_off,0,0,0,,7,,,55,127
42934,note_off,0,0,0,,7,,,43,127
42936,note_on,2,0,0,,0,,,48,127
42936,note_on,0,0,0,,0,,,36,127
42936,note_on,0,0,0,,0,,,72,127
43351,note_off,415,0,0,,0,,,72,127
43563,note_off,212,0,0,,0,,,36,127
43563,note_off,0,0,0,,0,,,48,127
43565,note_on,2,0,0,,0,,,36,127
43565,note_on,0,0,0,,0,,,48,127
43565,note_on,0,0,0,,0,,,72,127
43668,note_off,103,0,0,,0,,,72,127
43670,note_on,2,0,0,,12,,,71,127
43773,note_off,103,0,0,,12,,,71,127
43775,note_on,2,0,0,,2,,,74,127
43878,note_off,103,0,0,,2,,,74,127
43880,note_on,2,0,0,,0,,,72,127
43983,note_off,103,0,0,,0,,,72,127
43985,note_on,2,0,0,,3,,,75,127
44088,note_off,103,0,0,,3,,,75,127
44090,note_on,2,0,0,,2,,,74,127
44193,note_off,103,0,0,,2,,,74,127
44193,note_off,0,0,0,,0,,,48,127
44193,note_off,0,0,0,,0,,,36,127
44195,note_on,2,0,0,,0,,,48,127
44195,note_on,0,0,0,,0,,,36,127
44195,note_on,0,0,0,,5,,,77,127
44298,note_off,103,0,0,,5,,,77,127
44300,note_on,2,0,0,,3,,,75,127
44403,note_off,103,0,0,,3,,,75,127
44405,note_on,2,0,0,,7,,,79,127
44508,note_off,103,0,0,,7,,,79,127
44510,note_on,2,0,0,,5,,,77,127
44613,note_off,103,0,0,,5,,,77,127
44615,note_on,2,0,0,,8,,,80,127
44718,note_off,103,0,0,,8,,,80,127
44720,note_on,2,0,0,,7,,,79,127
44823,note_off,103,0,0,,7,,,79,127
44823,note_off,0,0,0,,0,,,36,127
44823,note_off,0,0,0,,0,,,48,127
44825,note_on,2,0,0,,8,,,44,127
44825,note_on,0,0,0,,8,,,56,127
44825,note_on,0,0,0,,0,,,84,127
44928,note_off,103,0,0,,0,,,84,127
44930,note_on,2,0,0,,11,,,82,127
45033,note_off,103,0,0,,11,,,82,127
45035,note_on,2,0,0,,8,,,80,127
45138,note_off,103,0,0,,8,,,80,127
45140,note_on,2,0,0,,7,,,79,127
45243,note_off,103,0,0,,7,,,79,127
45245,note_on,2,0,0,,5,,,77,127
45348,note_off,103,0,0,,5,,,77,127
45350,note_on,2,0,0,,3,,,75,127
45453,note_off,103,0,0,,3,,,75,127
45453,note_off,0,0,0,,8,,,56,127
45453,note_off,0,0,0,,8,,,44,127
45455,note_on,2,0,0,,11,,,58,127
45455,note_on,0,0,0,,11,,,46,127
45455,note_on,0,0,0,,2,,,74,127
45558,note_off,103,0,0,,2,,,74,127
45560,note_on,2,0,0,,0,,,72,127
45663,note_off,103,0,0,,0,,,72,127
45665,note_on,2,0,0,,11,,,70,127
45768,note_off,103,0,0,,11,,,70,127
45770,note_on,2,0,0,,8,,,68,127
45873,note_off,103,0,0,,8,,,68,127
45875,note_on,2,0,0,,7,,,67,127
45978,note_off,103,0,0,,7,,,67,127
45980,note_on,2,0,0,,5,,,65,127
46083,note_off,103,0,0,,5,,,65,127
46083,note_off,0,0,0,,11,,,46,127
46083,note_off,0,0,0,,11,,,58,127
46085,note_on,2,0,0,,3,,,51,127
46085,note_on,0,0,0,,7,,,67,127
46188,note_off,103,0,0,,3,,,51,127
46190,note_on,2,0,0,,2,,,50,127
46293,note_off,103,0,0,,2,,,50,127
46293,note_off,0,0,0,,7,,,67,127
46295,note_on,2,0,0,,5,,,53,127
46295,note_on,0,0,0,,8,,,68,127
46398,note_off,103,0,0,,5,,,53,127
46400,note_on,2,0,0,,3,,,51,127
46503,note_off,103,0,0,,3,,,51,127
46503,note_off,0,0,0,,8,,,68,127
46505,note_on,2,0,0,,7,,,55,127
46505,note_on,0,0,0,,11,,,70,127
46608,note_off,103,0,0,,7,,,55,127
46610,note_on,2,0,0,,5,,,53,127
46713,note_off,103,0,0,,5,,,53,127
46713,note_off,0,0,0,,11,,,70,127
46715,note_on,2,0,0,,8,,,56,127
46715,note_on,0,0,0,,0,,,72,127
46818,note_off,103,0,0,,8,,,56,127
46820,note_on,2,0,0,,7,,,55,127
46923,note_off,103,0,0,,7,,,55,127
46923,note_off,0,0,0,,0,,,72,127
46925,note_on,2,0,0,,11,,,58,127
46925,note_on,0,0,0,,3,,,63,127
46994,note_off,69,0,0,,3,,,63,127
46995,note_on,1,0,0,,2,,,62,127
47028,note_off,33,0,0,,11,,,58,127
47030,note_on,2,0,0,,8,,,56,127
47064,note_off,34,0,0,,2,,,62,127
47065,note_on,1,0,0,,3,,,63,127
47133,note_off,68,0,0,,8,,,56,127
47134,note_off,1,0,0,,3,,,63,127
47135,note_on,1,0,0,,7,,,55,127
47135,note_on,0,0,0,,2,,,62,127
47204,note_off,69,0,0,,2,,,62,127
47205,note_on,1,0,0,,0,,,60,127
47238,note_off,33,0,0,,7,,,55,127
47240,note_on,2,0,0,,5,,,53,127
47274,note_off,34,0,0,,0,,,60,127
47275,note_on,1,0,0,,2,,,62,127
47343,note_off,68,0,0,,5,,,53,127
47344,note_off,1,0,0,,2,,,62,127
47345,note_on,1,0,0,,11,,,58,127
47345,note_on,0,0,0,,3,,,51,127
47345,note_on,0,0,0,,3,,,63,127
47448,note_off,103,0,0,,3,,,63,127
47450,note_on,2,0,0,,2,,,62,127
47553,note_off,103,0,0,,2,,,62,127
47555,note_on,2,0,0,,5,,,65,127
47658,note_off,103,0,0,,5,,,65,127
47660,note_on,2,0,0,,3,,,63,127
47763,note_off,103,0,0,,3,,,63,127
47765,note_on,2,0,0,,7,,,67,127
47868,note_off,103,0,0,,7,,,67,127
47870,note_on,2,0,0,,5,,,65,127
47973,note_off,103,0,0,,5,,,65,127
47973,note_off,0,0,0,,3,,,51,127
47973,note_off,0,0,0,,11,,,58,127
47975,note_on,2,0,0,,2,,,50,127
47975,note_on,0,0,0,,11,,,58,127
47975,note_on,0,0,0,,8,,,68,127
48078,note_off,103,0,0,,8,,,68,127
48080,note_on,2,0,0,,7,,,67,127
48183,note_off,103,0,0,,7,,,67,127
48185,note_on,2,0,0,,11,,,70,127
48288,note_off,103,0,0,,11,,,70,127
48290,note_on,2,0,0,,8,,,68,127
48393,note_off,103,0,0,,8,,,68,127
48395,note_on,2,0,0,,7,,,67,127
48498,note_off,103,0,0,,7,,,67,127
48500,note_on,2,0,0,,5,,,65,127
48603,note_off,103,0,0,,5,,,65,127
48603,note_off,0,0,0,,11,,,58,127
48603,note_off,0,0,0,,2,,,50,127
48605,note_on,2,0,0,,0,,,48,127
48605,note_on,0,0,0,,11,,,58,127
48605,note_on,0,0,0,,5,,,65,127
48708,note_off,103,0,0,,5,,,65,127
48710,note_on,2,0,0,,4,,,64,127
48813,note_off,103,0,0,,4,,,64,127
48815,note_on,2,0,0,,7,,,67,127
48918,note_off,103,0,0,,7,,,67,127
48920,note_on,2,0,0,,5,,,65,127
49023,note_off,103,0,0,,5,,,65,127
49025,note_on,2,0,0,,8,,,68,127
49128,note_off,103,0,0,,8,,,68,127
49130,note_on,2,0,0,,7,,,67,127
49233,note_off,103,0,0,,7,,,67,127
49233,note_off,0,0,0,,11,,,58,127
49233,note_off,0,0,0,,0,,,48,127
49235,note_on,2,0,0,,0,,,48,127
49235,note_on,0,0,0,,0,,,60,127
49235,note_on,0,0,0,,11,,,70,127
49338,note_off,103,0,0,,11,,,70,127
49340,note_on,2,0,0,,8,,,68,127
49443,note_off,103,0,0,,8,,,68,127
49445,note_on,2,0,0,,0,,,72,127
49548,note_off,103,0,0,,0,,,72,127
49550,note_on,2,0,0,,11,,,70,127
49653,note_off,103,0,0,,11,,,70,127
49655,note_on,2,0,0,,10,,,69,127
49758,note_off,103,0,0,,10,,,69,127
49760,note_on,2,0,0,,7,,,67,127
49863,note_off,103,0,0,,7,,,67,127
49863,note_off,0,0,0,,0,,,60,127
49863,note_off,0,0,0,,0,,,48,127
49865,note_on,2,0,0,,0,,,60,127
49865,note_on,0,0,0,,2,,,50,127
49865,note_on,0,0,0,,7,,,67,127
49968,note_off,103,0,0,,7,,,67,127
49970,note_on,2,0,0,,6,,,66,127
50073,note_off,103,0,0,,6,,,66,127
50075,note_on,2,0,0,,10,,,69,127
50178,note_off,103,0,0,,10,,,69,127
50180,note_on,2,0,0,,7,,,67,127
50283,note_off,103,0,0,,7,,,67,127
50285,note_on,2,0,0,,11,,,70,127
50388,note_off,103,0,0,,11,,,70,127
50390,note_on,2,0,0,,10,,,69,127
50493,note_off,103,0,0,,10,,,69,127
50493,note_off,0,0,0,,2,,,50,127
50493,note_off,0,0,0,,0,,,60,127
50495,note_on,2,0,0,,2,,,62,127
50495,note_on,0,0,0,,2,,,50,127
50495,note_on,0,0,0,,0,,,72,127
50598,note_off,103,0,0,,0,,,72,127
50600,note_on,2,0,0,,11,,,70,127
50703,note_off,103,0,0,,11,,,70,127
50705,note_on,2,0,0,,2,,,74,127
50808,note_off,103,0,0,,2,,,74,127
50810,note_on,2,0,0,,0,,,72,127
50913,note_off,103,0,0,,0,,,72,127
50915,note_on,2,0,0,,11,,,70,127
51018,note_off,103,0,0,,11,,,70,127
51020,note_on,2,0,0,,10,,,69,127
51123,note_off,103,0,0,,10,,,69,127
51123,note_off,0,0,0,,2,,,50,127
51123,note_off,0,0,0,,2,,,62,127
51125,note_on,2,0,0,,7,,,55,127
51125,note_on,0,0,0,,11,,,70,127
51228,note_off,103,0,0,,7,,,55,127
51230,note_on,2,0,0,,6,,,54,127
51333,note_off,103,0,0,,6,,,54,127
51333,note_off,0,0,0,,11,,,70,127
51335,note_on,2,0,0,,10,,,57,127
51335,note_on,0,0,0,,0,,,72,127
51438,note_off,103,0,0,,10,,,57,127
51440,note_on,2,0,0,,7,,,55,127
51543,note_off,103,0,0,,7,,,55,127
51543,note_off,0,0,0,,0,,,72,127
51545,note_on,2,0,0,,11,,,58,127
51545,note_on,0,0,0,,2,,,74,127
51648,note_off,103,0,0,,11,,,58,127
51650,note_on,2,0,0,,10,,,57,127
51753,note_off,103,0,0,,10,,,57,127
51753,note_off,0,0,0,,2,,,74,127
51755,note_on,2,0,0,,0,,,60,127
51755,note_on,0,0,0,,3,,,75,127
51858,note_off,103,0,0,,0,,,60,127
51860,note_on,2,0,0,,11,,,58,127
51963,note_off,103,0,0,,11,,,58,127
51963,note_off,0,0,0,,3,,,75,127
51965,note_on,2,0,0,,2,,,62,127
51965,note_on,0,0,0,,7,,,67,127
52034,note_off,69,0,0,,7,,,67,127
52035,note_on,1,0,0,,6,,,66,127
52068,note_off,33,0,0,,2,,,62,127
52070,note_on,2,0,0,,0,,,60,127
52104,note_off,34,0,0,,6,,,66,127
52105,note_on,1,0,0,,7,,,67,127
52173,note_off,68,0,0,,0,,,60,127
52174,note_off,1,0,0,,7,,,67,127
52175,note_on,1,0,0,,11,,,58,127
52175,note_on,0,0,0,,6,,,66,127
52244,note_off,69,0,0,,6,,,66,127
52245,note_on,1,0,0,,4,,,64,127
52278,note_off,33,0,0,,11,,,58,127
52280,note_on,2,0,0,,10,,,57,127
52314,note_off,34,0,0,,4,,,64,127
52315,note_on,1,0,0,,6,,,66,127
52383,note_off,68,0,0,,10,,,57,127
52384,note_off,1,0,0,,6,,,66,127
52385,note_on,1,0,0,,7,,,55,127
52385,note_on,0,0,0,,2,,,62,127
52385,note_on,0,0,0,,7,,,67,127
52488,note_off,103,0,0,,7,,,67,127
52490,note_on,2,0,0,,6,,,66,127
52593,note_off,103,0,0,,6,,,66,127
52595,note_on,2,0,0,,10,,,69,127
52698,note_off,103,0,0,,10,,,69,127
52700,note_on,2,0,0,,7,,,67,127
52803,note_off,103,0,0,,7,,,67,127
52805,note_on,2,0,0,,11,,,70,127
52908,note_off,103,0,0,,11,,,70,127
52910,note_on,2,0,0,,10,,,69,127
53013,note_off,103,0,0,,10,,,69,127
53013,note_off,0,0,0,,2,,,62,127
53013,note_off,0,0,0,,7,,,55,127
53015,note_on,2,0,0,,5,,,53,127
53015,note_on,0,0,0,,2,,,62,127
53015,note_on,0,0,0,,0,,,72,127
53118,note_off,103,0,0,,0,,,72,127
53120,note_on,2,0,0,,11,,,70,127
53223,note_off,103,0,0,,11,,,70,127
53225,note_on,2,0,0,,2,,,74,127
53328,note_off,103,0,0,,2,,,74,127
53330,note_on,2,0,0,,0,,,72,127
53433,note_off,103,0,0,,0,,,72,127
53435,note_on,2,0,0,,12,,,71,127
53538,note_off,103,0,0,,12,,,71,127
53540,note_on,2,0,0,,10,,,69,127
53643,note_off,103,0,0,,10,,,69,127
53643,note_off,0,0,0,,2,,,62,127
53643,note_off,0,0,0,,5,,,53,127
53645,note_on,2,0,0,,4,,,52,127
53645,note_on,0,0,0,,2,,,62,127
53645,note_on,0,0,0,,10,,,69,127
53748,note_off,103,0,0,,10,,,69,127
53750,note_on,2,0,0,,8,,,68,127
53853,note_off,103,0,0,,8,,,68,127
53855,note_on,2,0,0,,12,,,71,127
53958,note_off,103,0,0,,12,,,71,127
53960,note_on,2,0,0,,10,,,69,127
54063,note_off,103,0,0,,10,,,69,127
54065,note_on,2,0,0,,0,,,72,127
54168,note_off,103,0,0,,0,,,72,127
54170,note_on,2,0,0,,12,,,71,127
54273,note_off,103,0,0,,12,,,71,127
54273,note_off,0,0,0,,2,,,62,127
54273,note_off,0,0,0,,4,,,52,127
54275,note_on,2,0,0,,4,,,52,127
54275,note_on,0,0,0,,4,,,64,127
54275,note_on,0,0,0,,2,,,74,127
54378,note_off,103,0,0,,2,,,74,127
54380,note_on,2,0,0,,0,,,72,127
54483,note_off,103,0,0,,0,,,72,127
54485,note_on,2,0,0,,4,,,76,127
54588,note_off,103,0,0,,4,,,76,127
54590,note_on,2,0,0,,2,,,74,127
54693,note_off,103,0,0,,2,,,74,127
54695,note_on,2,0,0,,0,,,72,127
54798,note_off,103,0,0,,0,,,72,127
54800,note_on,2,0,0,,12,,,71,127
54903,note_off,103,0,0,,12,,,71,127
54903,note_off,0,0,0,,4,,,64,127
54903,note_off,0,0,0,,4,,,52,127
54905,note_on,2,0,0,,4,,,64,127
54905,note_on,0,0,0,,10,,,57,127
54905,note_on,0,0,0,,2,,,74,127
55008,note_off,103,0,0,,2,,,74,127
55010,note_on,2,0,0,,1,,,73,127
55113,note_off,103,0,0,,1,,,73,127
55115,note_on,2,0,0,,4,,,76,127
55218,note_off,103,0,0,,4,,,76,127
55220,note_on,2,0,0,,2,,,74,127
55323,note_off,103,0,0,,2,,,74,127
55325,note_on,2,0,0,,5,,,77,127
55428,note_off,103,0,0,,5,,,77,127
55430,note_on,2,0,0,,4,,,76,127
55533,note_off,103,0,0,,4,,,76,127
55533,note_off,0,0,0,,4,,,64,127
55535,note_on,2,0,0,,10,,,45,127
55535,note_on,0,0,0,,7,,,79,127
55638,note_off,103,0,0,,7,,,79,127
55640,note_on,2,0,0,,5,,,77,127
55743,note_off,103,0,0,,5,,,77,127
55745,note_on,2,0,0,,10,,,81,127
55848,note_off,103,0,0,,10,,,81,127
55850,note_on,2,0,0,,7,,,79,127
55953,note_off,103,0,0,,7,,,79,127
55955,note_on,2,0,0,,5,,,77,127
56058,note_off,103,0,0,,5,,,77,127
56060,note_on,2,0,0,,4,,,76,127
56163,note_off,103,0,0,,4,,,76,127
56163,note_off,0,0,0,,10,,,45,127
56164,note_off,1,0,0,,10,,,57,127
56165,note_on,1,0,0,,2,,,50,127
56165,note_on,0,0,0,,2,,,74,127
56165,note_on,0,0,0,,5,,,77,127
56268,note_off,103,0,0,,2,,,50,127
56270,note_on,2,0,0,,2,,,62,127
56373,note_off,103,0,0,,2,,,62,127
56375,note_on,2,0,0,,1,,,61,127
56478,note_off,103,0,0,,1,,,61,127
56480,note_on,2,0,0,,2,,,62,127
56583,note_off,103,0,0,,2,,,62,127
56585,note_on,2,0,0,,4,,,64,127
56688,note_off,103,0,0,,4,,,64,127
56690,note_on,2,0,0,,2,,,62,127
56793,note_off,103,0,0,,2,,,62,127
56793,note_off,0,0,0,,5,,,77,127
56793,note_off,0,0,0,,2,,,74,127
56795,note_on,2,0,0,,7,,,55,127
56795,note_on,0,0,0,,11,,,70,127
56795,note_on,0,0,0,,11,,,82,127
56795,note_on,0,0,0,,1,,,73,127
56898,note_off,103,0,0,,7,,,55,127
56900,note_on,2,0,0,,2,,,62,127
57003,note_off,103,0,0,,2,,,62,127
57005,note_on,2,0,0,,1,,,61,127
57108,note_off,103,0,0,,1,,,61,127
57110,note_on,2,0,0,,2,,,62,127
57213,note_off,103,0,0,,2,,,62,127
57215,note_on,2,0,0,,4,,,64,127
57318,note_off,103,0,0,,4,,,64,127
57320,note_on,2,0,0,,2,,,62,127
57423,note_off,103,0,0,,2,,,62,127
57423,note_off,0,0,0,,1,,,73,127
57423,note_off,0,0,0,,11,,,82,127
57423,note_off,0,0,0,,11,,,70,127
57425,note_on,2,0,0,,2,,,50,127
57425,note_on,0,0,0,,10,,,69,127
57425,note_on,0,0,0,,10,,,81,127
57425,note_on,0,0,0,,5,,,77,127
57528,note_off,103,0,0,,2,,,50,127
57530,note_on,2,0,0,,2,,,62,127
57633,note_off,103,0,0,,2,,,62,127
57635,note_on,2,0,0,,1,,,61,127
57738,note_off,103,0,0,,1,,,61,127
57740,note_on,2,0,0,,2,,,62,127
57843,note_off,103,0,0,,2,,,62,127
57845,note_on,2,0,0,,4,,,64,127
57948,note_off,103,0,0,,4,,,64,127
57950,note_on,2,0,0,,2,,,62,127
58053,note_off,103,0,0,,2,,,62,127
58053,note_off,0,0,0,,5,,,77,127
58053,note_off,0,0,0,,10,,,81,127
58053,note_off,0,0,0,,10,,,69,127
58055,note_on,2,0,0,,10,,,45,127
58055,note_on,0,0,0,,7,,,79,127
58055,note_on,0,0,0,,4,,,76,127
58055,note_on,0,0,0,,7,,,67,127
58158,note_off,103,0,0,,10,,,45,127
58160,note_on,2,0,0,,2,,,62,127
58263,note_off,103,0,0,,2,,,62,127
58265,note_on,2,0,0,,1,,,61,127
58368,note_off,103,0,0,,1,,,61,127
58370,note_on,2,0,0,,2,,,62,127
58473,note_off,103,0,0,,2,,,62,127
58475,note_on,2,0,0,,4,,,64,127
58578,note_off,103,0,0,,4,,,64,127
58580,note_on,2,0,0,,2,,,62,127
58683,note_off,103,0,0,,2,,,62,127
58683,note_off,0,0,0,,7,,,67,127
58683,note_off,0,0,0,,4,,,76,127
58683,note_off,0,0,0,,7,,,79,127
58685,note_on,2,0,0,,2,,,38,127
58685,note_on,0,0,0,,10,,,69,127
58685,note_on,0,0,0,,5,,,77,127
58685,note_on,0,0,0,,2,,,74,127
58788,note_off,103,0,0,,2,,,38,127
58790,note_on,2,0,0,,2,,,62,127
58893,note_off,103,0,0,,2,,,62,127
58895,note_on,2,0,0,,1,,,61,127
58998,note_off,103,0,0,,1,,,61,127
59000,note_on,2,0,0,,2,,,62,127
59103,note_off,103,0,0,,2,,,62,127
59105,note_on,2,0,0,,4,,,64,127
59208,note_off,103,0,0,,4,,,64,127
59210,note_on,2,0,0,,2,,,62,127
59313,note_off,103,0,0,,2,,,62,127
59313,note_off,0,0,0,,2,,,74,127
59313,note_off,0,0,0,,5,,,77,127
59313,note_off,0,0,0,,10,,,69,127
59315,note_on,2,0,0,,7,,,55,127
59315,note_on,0,0,0,,11,,,82,127
59315,note_on,0,0,0,,1,,,73,127
59315,note_on,0,0,0,,11,,,70,127
59418,note_off,103,0,0,,7,,,55,127
59420,note_on,2,0,0,,2,,,62,127
59523,note_off,103,0,0,,2,,,62,127
59525,note_on,2,0,0,,1,,,61,127
59628,note_off,103,0,0,,1,,,61,127
59630,note_on,2,0,0,,2,,,62,127
59733,note_off,103,0,0,,2,,,62,127
59735,note_on,2,0,0,,4,,,64,127
59838,note_off,103,0,0,,4,,,64,127
59840,note_on,2,0,0,,2,,,62,127
59943,note_off,103,0,0,,2,,,62,127
59943,note_off,0,0,0,,11,,,70,127
59943,note_off,0,0,0,,1,,,73,127
59943,note_off,0,0,0,,11,,,82,127
59945,note_on,2,0,0,,2,,,50,127
59945,note_on,0,0,0,,10,,,69,127
59945,note_on,0,0,0,,10,,,81,127
59945,note_on,0,0,0,,5,,,77,127
60048,note_off,103,0,0,,2,,,50,127
60050,note_on,2,0,0,,2,,,62,127
60153,note_off,103,0,0,,2,,,62,127
60155,note_on,2,0,0,,1,,,61,127
60258,note_off,103,0,0,,1,,,61,127
60260,note_on,2,0,0,,2,,,62,127
60363,note_off,103,0,0,,2,,,62,127
60365,note_on,2,0,0,,4,,,64,127
60468,note_off,103,0,0,,4,,,64,127
60470,note_on,2,0,0,,2,,,62,127
60573,note_off,103,0,0,,2,,,62,127
60573,note_off,0,0,0,,5,,,77,127
60573,note_off,0,0,0,,10,,,81,127
60573,note_off,0,0,0,,10,,,69,127
60575,note_on,2,0,0,,10,,,45,127
60575,note_on,0,0,0,,4,,,76,127
60575,note_on,0,0,0,,7,,,67,127
60575,note_on,0,0,0,,7,,,79,127
60678,note_off,103,0,0,,10,,,45,127
60680,note_on,2,0,0,,2,,,62,127
60783,note_off,103,0,0,,2,,,62,127
60785,note_on,2,0,0,,1,,,61,127
60888,note_off,103,0,0,,1,,,61,127
60890,note_on,2,0,0,,2,,,62,127
60993,note_off,103,0,0,,2,,,62,127
60995,note_on,2,0,0,,4,,,64,127
61098,note_off,103,0,0,,4,,,64,127
61100,note_on,2,0,0,,2,,,62,127
61203,note_off,103,0,0,,2,,,62,127
61203,note_off,0,0,0,,7,,,79,127
61203,note_off,0,0,0,,7,,,67,127
61203,note_off,0,0,0,,4,,,76,127
61205,note_on,2,0,0,,2,,,38,127
61205,note_on,0,0,0,,5,,,77,127
61308,note_off,103,0,0,,5,,,77,127
61310,note_on,2,0,0,,7,,,79,127
61413,note_off,103,0,0,,7,,,79,127
61415,note_on,2,0,0,,5,,,77,127
61518,note_off,103,0,0,,5,,,77,127
61520,note_on,2,0,0,,3,,,75,127
61623,note_off,103,0,0,,3,,,75,127
61625,note_on,2,0,0,,2,,,74,127
61728,note_off,103,0,0,,2,,,74,127
61730,note_on,2,0,0,,0,,,72,127
61833,note_off,103,0,0,,0,,,72,127
61833,note_off,0,0,0,,2,,,38,127
61835,note_on,2,0,0,,7,,,43,127
61835,note_on,0,0,0,,12,,,71,127
61938,note_off,103,0,0,,12,,,71,127
61940,note_on,2,0,0,,8,,,68,127
62043,note_off,103,0,0,,8,,,68,127
62045,note_on,2,0,0,,7,,,67,127
62148,note_off,103,0,0,,7,,,67,127
62150,note_on,2,0,0,,5,,,65,127
62253,note_off,103,0,0,,5,,,65,127
62255,note_on,2,0,0,,3,,,63,127
62358,note_off,103,0,0,,3,,,63,127
62360,note_on,2,0,0,,2,,,62,127
62463,note_off,103,0,0,,2,,,62,127
62463,note_off,0,0,0,,7,,,43,127
62465,note_on,2,0,0,,0,,,48,127
62465,note_on,0,0,0,,7,,,67,127
62465,note_on,0,0,0,,7,,,79,127
62465,note_on,0,0,0,,3,,,75,127
62568,note_off,103,0,0,,0,,,48,127
62570,note_on,2,0,0,,0,,,60,127
62673,note_off,103,0,0,,0,,,60,127
62675,note_on,2,0,0,,12,,,59,127
62778,note_off,103,0,0,,12,,,59,127
62780,note_on,2,0,0,,0,,,60,127
62883,note_off,103,0,0,,0,,,60,127
62885,note_on,2,0,0,,2,,,62,127
62988,note_off,103,0,0,,2,,,62,127
62990,note_on,2,0,0,,0,,,60,127
63093,note_off,103,0,0,,0,,,60,127
63093,note_off,0,0,0,,3,,,75,127
63093,note_off,0,0,0,,7,,,79,127
63093,note_off,0,0,0,,7,,,67,127
63095,note_on,2,0,0,,5,,,53,127
63095,note_on,0,0,0,,5,,,77,127
63095,note_on,0,0,0,,12,,,71,127
63095,note_on,0,0,0,,8,,,80,127
63198,note_off,103,0,0,,5,,,53,127
63200,note_on,2,0,0,,0,,,60,127
63303,note_off,103,0,0,,0,,,60,127
63305,note_on,2,0,0,,12,,,59,127
63408,note_off,103,0,0,,12,,,59,127
63410,note_on,2,0,0,,0,,,60,127
63513,note_off,103,0,0,,0,,,60,127
63515,note_on,2,0,0,,2,,,62,127
63618,note_off,103,0,0,,2,,,62,127
63620,note_on,2,0,0,,0,,,60,127
63723,note_off,103,0,0,,0,,,60,127
63723,note_off,0,0,0,,8,,,80,127
63723,note_off,0,0,0,,12,,,71,127
63723,note_off,0,0,0,,5,,,77,127
63725,note_on,2,0,0,,0,,,48,127
63725,note_on,0,0,0,,3,,,75,127
63725,note_on,0,0,0,,7,,,67,127
63725,note_on,0,0,0,,7,,,79,127
63828,note_off,103,0,0,,0,,,48,127
63830,note_on,2,0,0,,0,,,60,127
63933,note_off,103,0,0,,0,,,60,127
63935,note_on,2,0,0,,12,,,59,127
64038,note_off,103,0,0,,12,,,59,127
64040,note_on,2,0,0,,0,,,60,127
64143,note_off,103,0,0,,0,,,60,127
64145,note_on,2,0,0,,2,,,62,127
64248,note_off,103,0,0,,2,,,62,127
64250,note_on,2,0,0,,0,,,60,127
64353,note_off,103,0,0,,0,,,60,127
64353,note_off,0,0,0,,7,,,79,127
64353,note_off,0,0,0,,7,,,67,127
64353,note_off,0,0,0,,3,,,75,127
64355,note_on,2,0,0,,7,,,43,127
64355,note_on,0,0,0,,2,,,74,127
64355,note_on,0,0,0,,7,,,67,127
64355,note_on,0,0,0,,5,,,77,127
64458,note_off,103,0,0,,7,,,43,127
64460,note_on,2,0,0,,0,,,60,127
64563,note_off,103,0,0,,0,,,60,127
64565,note_on,2,0,0,,12,,,59,127
64668,note_off,103,0,0,,12,,,59,127
64670,note_on,2,0,0,,0,,,60,127
64773,note_off,103,0,0,,0,,,60,127
64775,note_on,2,0,0,,2,,,62,127
64878,note_off,103,0,0,,2,,,62,127
64880,note_on,2,0,0,,0,,,60,127
64983,note_off,103,0,0,,0,,,60,127
64983,note_off,0,0,0,,5,,,77,127
64983,note_off,0,0,0,,7,,,67,127
64983,note_off,0,0,0,,2,,,74,127
64985,note_on,2,0,0,,0,,,36,127
64985,note_on,0,0,0,,3,,,75,127
64985,note_on,0,0,0,,0,,,72,127
64985,note_on,0,0,0,,7,,,67,127
65088,note_off,103,0,0,,0,,,36,127
65090,note_on,2,0,0,,0,,,60,127
65193,note_off,103,0,0,,0,,,60,127
65195,note_on,2,0,0,,12,,,59,127
65298,note_off,103,0,0,,12,,,59,127
65300,note_on,2,0,0,,0,,,60,127
65403,note_off,103,0,0,,0,,,60,127
65405,note_on,2,0,0,,2,,,62,127
65508,note_off,103,0,0,,2,,,62,127
65510,note_on,2,0,0,,0,,,60,127
65613,note_off,103,0,0,,0,,,60,127
65613,note_off,0,0,0,,7,,,67,127
65613,note_off,0,0,0,,0,,,72,127
65613,note_off,0,0,0,,3,,,75,127
65615,note_on,2,0,0,,5,,,53,127
65615,note_on,0,0,0,,12,,,71,127
65615,note_on,0,0,0,,8,,,80,127
65615,note_on,0,0,0,,5,,,77,127
65718,note_off,103,0,0,,5,,,53,127
65720,note_on,2,0,0,,0,,,60,127
65823,note_off,103,0,0,,0,,,60,127
65825,note_on,2,0,0,,12,,,59,127
65928,note_off,103,0,0,,12,,,59,127
65930,note_on,2,0,0,,0,,,60,127
66033,note_off,103,0,0,,0,,,60,127
66035,note_on,2,0,0,,2,,,62,127
66138,note_off,103,0,0,,2,,,62,127
66140,note_on,2,0,0,,0,,,60,127
66243,note_off,103,0,0,,0,,,60,127
66243,note_off,0,0,0,,5,,,77,127
66243,note_off,0,0,0,,8,,,80,127
66243,note_off,0,0,0,,12,,,71,127
66245,note_on,2,0,0,,0,,,48,127
66245,note_on,0,0,0,,7,,,67,127
66245,note_on,0,0,0,,7,,,79,127
66245,note_on,0,0,0,,3,,,75,127
66348,note_off,103,0,0,,0,,,48,127
66350,note_on,2,0,0,,0,,,60,127
66453,note_off,103,0,0,,0,,,60,127
66455,note_on,2,0,0,,12,,,59,127
66558,note_off,103,0,0,,12,,,59,127
66560,note_on,2,0,0,,0,,,60,127
66663,note_off,103,0,0,,0,,,60,127
66665,note_on,2,0,0,,2,,,62,127
66768,note_off,103,0,0,,2,,,62,127
66770,note_on,2,0,0,,0,,,60,127
66873,note_off,103,0,0,,0,,,60,127
66873,note_off,0,0,0,,3,,,75,127
66873,note_off,0,0,0,,7,,,79,127
66873,note_off,0,0,0,,7,,,67,127
66875,note_on,2,0,0,,7,,,43,127
66875,note_on,0,0,0,,7,,,67,127
66875,note_on,0,0,0,,2,,,74,127
66875,note_on,0,0,0,,5,,,77,127
66978,note_off,103,0,0,,7,,,43,127
66980,note_on,2,0,0,,0,,,60,127
67083,note_off,103,0,0,,0,,,60,127
67085,note_on,2,0,0,,12,,,59,127
67188,note_off,103,0,0,,12,,,59,127
67190,note_on,2,0,0,,0,,,60,127
67293,note_off,103,0,0,,0,,,60,127
67295,note_on,2,0,0,,2,,,62,127
67398,note_off,103,0,0,,2,,,62,127
67400,note_on,2,0,0,,0,,,60,127
67503,note_off,103,0,0,,0,,,60,127
67503,note_off,0,0,0,,5,,,77,127
67503,note_off,0,0,0,,2,,,74,127
67503,note_off,0,0,0,,7,,,67,127
67505,note_on,2,0,0,,0,,,36,127
67505,note_on,0,0,0,,3,,,75,127
67505,note_on,0,0,0,,0,,,72,127
67608,note_off,103,0,0,,0,,,72,127
67610,note_on,2,0,0,,7,,,67,127
67713,note_off,103,0,0,,7,,,67,127
67713,note_off,0,0,0,,3,,,75,127
67715,note_on,2,0,0,,8,,,68,127
67818,note_off,103,0,0,,8,,,68,127
67820,note_on,2,0,0,,11,,,70,127
67916,note_off,96,0,0,,11,,,70,127
67925,note_on,9,0,0,,8,,,68,127
67925,note_on,0,0,0,,11,,,70,127
68028,note_off,103,0,0,,11,,,70,127
68028,note_off,0,0,0,,8,,,68,127
68030,note_on,2,0,0,,7,,,67,127
68133,note_off,103,0,0,,7,,,67,127
68133,note_off,0,0,0,,0,,,36,127
68135,note_on,2,0,0,,11,,,58,127
68135,note_on,0,0,0,,2,,,50,127
68135,note_on,0,0,0,,5,,,77,127
68238,note_off,103,0,0,,5,,,77,127
68240,note_on,2,0,0,,8,,,68,127
68343,note_off,103,0,0,,8,,,68,127
68345,note_on,2,0,0,,11,,,70,127
68448,note_off,103,0,0,,11,,,70,127
68450,note_on,2,0,0,,0,,,72,127
68546,note_off,96,0,0,,0,,,72,127
68555,note_on,9,0,0,,11,,,70,127
68555,note_on,0,0,0,,0,,,72,127
68658,note_off,103,0,0,,0,,,72,127
68658,note_off,0,0,0,,11,,,70,127
68660,note_on,2,0,0,,8,,,68,127
68763,note_off,103,0,0,,8,,,68,127
68763,note_off,0,0,0,,2,,,50,127
68763,note_off,0,0,0,,11,,,58,127
68765,note_on,2,0,0,,3,,,51,127
68765,note_on,0,0,0,,11,,,58,127
68765,note_on,0,0,0,,7,,,79,127
68868,note_off,103,0,0,,7,,,79,127
68870,note_on,2,0,0,,11,,,70,127
68973,note_off,103,0,0,,11,,,70,127
68975,note_on,2,0,0,,0,,,72,127
69078,note_off,103,0,0,,0,,,72,127
69080,note_on,2,0,0,,2,,,74,127
69176,note_off,96,0,0,,2,,,74,127
69185,note_on,9,0,0,,2,,,74,127
69185,note_on,0,0,0,,0,,,72,127
69288,note_off,103,0,0,,0,,,72,127
69288,note_off,0,0,0,,2,,,74,127
69290,note_on,2,0,0,,11,,,70,127
69393,note_off,103,0,0,,11,,,70,127
69393,note_off,0,0,0,,11,,,58,127
69393,note_off,0,0,0,,3,,,51,127
69395,note_on,2,0,0,,0,,,48,127
69395,note_on,0,0,0,,10,,,57,127
69395,note_on,0,0,0,,10,,,81,127
69500,note_on,105,0,0,,0,,,72,127
69552,note_off,52,0,0,,10,,,81,127
69602,note_off,50,0,0,,0,,,72,127
69604,note_on,2,0,0,,2,,,74,127
69707,note_off,103,0,0,,2,,,74,127
69709,note_on,2,0,0,,3,,,75,127
69805,note_off,96,0,0,,3,,,75,127
69814,note_on,9,0,0,,3,,,75,127
69814,note_on,0,0,0,,2,,,74,127
69917,note_off,103,0,0,,2,,,74,127
69917,note_off,0,0,0,,3,,,75,127
69919,note_on,2,0,0,,0,,,72,127
70022,note_off,103,0,0,,0,,,72,127
70022,note_off,0,0,0,,10,,,57,127
70022,note_off,0,0,0,,0,,,48,127
70024,note_on,2,0,0,,11,,,58,127
70024,note_on,0,0,0,,2,,,50,127
70024,note_on,0,0,0,,11,,,82,127
70129,note_on,105,0,0,,2,,,74,127
70181,note_off,52,0,0,,11,,,82,127
70231,note_off,50,0,0,,2,,,74,127
70233,note_on,2,0,0,,4,,,76,127
70336,note_off,103,0,0,,4,,,76,127
70338,note_on,2,0,0,,5,,,77,127
70434,note_off,96,0,0,,5,,,77,127
70443,note_on,9,0,0,,4,,,76,127
70443,note_on,0,0,0,,5,,,77,127
70546,note_off,103,0,0,,5,,,77,127
70546,note_off,0,0,0,,4,,,76,127
70548,note_on,2,0,0,,2,,,74,127
70651,note_off,103,0,0,,2,,,74,127
70651,note_off,0,0,0,,2,,,50,127
70651,note_off,0,0,0,,11,,,58,127
70653,note_on,2,0,0,,0,,,60,127
70653,note_on,0,0,0,,4,,,52,127
70653,note_on,0,0,0,,7,,,79,127
70758,note_on,105,0,0,,11,,,70,127
70810,note_off,52,0,0,,7,,,79,127
70860,note_off,50,0,0,,11,,,70,127
70862,note_on,2,0,0,,0,,,72,127
70965,note_off,103,0,0,,0,,,72,127
70967,note_on,2,0,0,,2,,,74,127
71063,note_off,96,0,0,,2,,,74,127
71072,note_on,9,0,0,,0,,,72,127
71072,note_on,0,0,0,,2,,,74,127
71175,note_off,103,0,0,,2,,,74,127
71175,note_off,0,0,0,,0,,,72,127
71177,note_on,2,0,0,,11,,,70,127
71280,note_off,103,0,0,,11,,,70,127
71280,note_off,0,0,0,,4,,,52,127
71280,note_off,0,0,0,,0,,,60,127
71282,note_on,2,0,0,,5,,,53,127
71282,note_on,0,0,0,,0,,,60,127
71282,note_on,0,0,0,,10,,,81,127
71387,note_on,105,0,0,,10,,,69,127
71490,note_off,103,0,0,,10,,,69,127
71490,note_off,0,0,0,,10,,,81,127
71492,note_on,2,0,0,,12,,,71,127
71595,note_off,103,0,0,,12,,,71,127
71597,note_on,2,0,0,,0,,,72,127
71693,note_off,96,0,0,,0,,,72,127
71702,note_on,9,0,0,,12,,,71,127
71702,note_on,0,0,0,,0,,,72,127
71805,note_off,103,0,0,,0,,,72,127
71805,note_off,0,0,0,,12,,,71,127
71807,note_on,2,0,0,,10,,,69,127
71910,note_off,103,0,0,,10,,,69,127
71910,note_off,0,0,0,,0,,,60,127
71910,note_off,0,0,0,,5,,,53,127
71912,note_on,2,0,0,,2,,,50,127
71912,note_on,0,0,0,,12,,,59,127
71912,note_on,0,0,0,,2,,,74,127
72017,note_on,105,0,0,,5,,,65,127
72120,note_off,103,0,0,,5,,,65,127
72120,note_off,0,0,0,,2,,,74,127
72122,note_on,2,0,0,,7,,,67,127
72225,note_off,103,0,0,,7,,,67,127
72227,note_on,2,0,0,,10,,,69,127
72323,note_off,96,0,0,,10,,,69,127
72332,note_on,9,0,0,,10,,,69,127
72332,note_on,0,0,0,,7,,,67,127
72435,note_off,103,0,0,,7,,,67,127
72435,note_off,0,0,0,,10,,,69,127
72437,note_on,2,0,0,,5,,,65,127
72540,note_off,103,0,0,,5,,,65,127
72540,note_off,0,0,0,,12,,,59,127
72540,note_off,0,0,0,,2,,,50,127
72542,note_on,2,0,0,,4,,,52,127
72542,note_on,0,0,0,,7,,,55,127
72542,note_on,0,0,0,,0,,,72,127
72647,note_on,105,0,0,,0,,,60,127
72750,note_off,103,0,0,,0,,,60,127
72750,note_off,0,0,0,,0,,,72,127
72752,note_on,2,0,0,,2,,,62,127
72855,note_off,103,0,0,,2,,,62,127
72857,note_on,2,0,0,,4,,,64,127
72953,note_off,96,0,0,,4,,,64,127
72962,note_on,9,0,0,,2,,,62,127
72962,note_on,0,0,0,,4,,,64,127
73065,note_off,103,0,0,,4,,,64,127
73065,note_off,0,0,0,,2,,,62,127
73067,note_on,2,0,0,,0,,,60,127
73170,note_off,103,0,0,,0,,,60,127
73170,note_off,0,0,0,,7,,,55,127
73170,note_off,0,0,0,,4,,,52,127
73172,note_on,2,0,0,,5,,,53,127
73172,note_on,0,0,0,,10,,,57,127
73172,note_on,0,0,0,,10,,,69,127
73277,note_on,105,0,0,,5,,,65,127
73380,note_off,103,0,0,,5,,,65,127
73380,note_off,0,0,0,,10,,,69,127
73382,note_on,2,0,0,,7,,,67,127
73485,note_off,103,0,0,,7,,,67,127
73487,note_on,2,0,0,,10,,,69,127
73583,note_off,96,0,0,,10,,,69,127
73592,note_on,9,0,0,,10,,,69,127
73592,note_on,0,0,0,,7,,,67,127
73695,note_off,103,0,0,,7,,,67,127
73695,note_off,0,0,0,,10,,,69,127
73697,note_on,2,0,0,,5,,,65,127
73800,note_off,103,0,0,,5,,,65,127
73800,note_off,0,0,0,,10,,,57,127
73800,note_off,0,0,0,,5,,,53,127
73802,note_on,2,0,0,,11,,,58,127
73802,note_on,0,0,0,,2,,,50,127
73802,note_on,0,0,0,,11,,,70,127
73907,note_on,105,0,0,,5,,,65,127
74010,note_off,103,0,0,,5,,,65,127
74012,note_on,2,0,0,,7,,,67,127
74115,note_off,103,0,0,,7,,,67,127
74117,note_off,2,0,0,,11,,,70,127
74117,note_on,0,0,0,,10,,,69,127
74213,note_off,96,0,0,,10,,,69,127
74222,note_on,9,0,0,,10,,,69,127
74222,note_on,0,0,0,,7,,,67,127
74325,note_off,103,0,0,,7,,,67,127
74325,note_off,0,0,0,,10,,,69,127
74327,note_on,2,0,0,,5,,,65,127
74430,note_off,103,0,0,,5,,,65,127
74430,note_off,0,0,0,,2,,,50,127
74430,note_off,0,0,0,,11,,,58,127
74432,note_on,2,0,0,,10,,,45,127
74432,note_on,0,0,0,,5,,,53,127
74432,note_on,0,0,0,,0,,,72,127
74537,note_on,105,0,0,,5,,,65,127
74640,note_off,103,0,0,,5,,,65,127
74642,note_on,2,0,0,,7,,,67,127
74745,note_off,103,0,0,,7,,,67,127
74747,note_on,2,0,0,,10,,,69,127
74843,note_off,96,0,0,,10,,,69,127
74843,note_off,0,0,0,,0,,,72,127
74852,note_on,9,0,0,,10,,,69,127
74852,note_on,0,0,0,,7,,,67,127
74955,note_off,103,0,0,,7,,,67,127
74955,note_off,0,0,0,,10,,,69,127
74957,note_on,2,0,0,,5,,,65,127
75060,note_off,103,0,0,,5,,,65,127
75060,note_off,0,0,0,,5,,,53,127
75060,note_off,0,0,0,,10,,,45,127
75062,note_on,2,0,0,,11,,,46,127
75062,note_on,0,0,0,,2,,,74,127
75167,note_on,105,0,0,,5,,,65,127
75270,note_off,103,0,0,,5,,,65,127
75270,note_off,0,0,0,,11,,,46,127
75272,note_on,2,0,0,,11,,,58,127
75272,note_on,0,0,0,,7,,,67,127
75375,note_off,103,0,0,,2,,,74,127
75377,note_on,2,0,0,,4,,,76,127
75480,note_off,103,0,0,,4,,,76,127
75480,note_off,0,0,0,,11,,,58,127
75482,note_on,2,0,0,,10,,,57,127
75482,note_on,0,0,0,,5,,,77,127
75585,note_off,103,0,0,,7,,,67,127
75587,note_on,2,0,0,,10,,,69,127
75690,note_off,103,0,0,,10,,,69,127
75690,note_off,0,0,0,,10,,,57,127
75692,note_on,2,0,0,,4,,,52,127
75692,note_on,0,0,0,,11,,,70,127
75795,note_off,103,0,0,,5,,,77,127
75797,note_on,2,0,0,,7,,,79,127
75900,note_off,103,0,0,,7,,,79,127
75900,note_off,0,0,0,,4,,,52,127
75902,note_on,2,0,0,,5,,,53,127
75902,note_on,0,0,0,,10,,,81,127
76005,note_off,103,0,0,,11,,,70,127
76007,note_on,2,0,0,,5,,,77,127
76110,note_off,103,0,0,,5,,,77,127
76110,note_off,0,0,0,,5,,,53,127
76112,note_on,2,0,0,,0,,,48,127
76112,note_on,0,0,0,,0,,,72,127
76215,note_off,103,0,0,,10,,,81,127
76217,note_on,2,0,0,,11,,,82,127
76320,note_off,103,0,0,,11,,,82,127
76320,note_off,0,0,0,,0,,,72,127
76320,note_off,0,0,0,,0,,,48,127
76322,note_on,2,0,0,,5,,,53,127
76322,note_on,0,0,0,,10,,,81,127
76322,note_on,0,0,0,,5,,,77,127
76425,note_off,103,0,0,,5,,,53,127
76427,note_on,2,0,0,,5,,,65,127
76530,note_off,103,0,0,,5,,,65,127
76532,note_on,2,0,0,,4,,,64,127
76635,note_off,103,0,0,,4,,,64,127
76637,note_on,2,0,0,,5,,,65,127
76740,note_off,103,0,0,,5,,,65,127
76742,note_on,2,0,0,,7,,,67,127
76845,note_off,103,0,0,,7,,,67,127
76847,note_on,2,0,0,,5,,,65,127
76950,note_off,103,0,0,,5,,,65,127
76950,note_off,0,0,0,,5,,,77,127
76950,note_off,0,0,0,,10,,,81,127
76952,note_on,2,0,0,,11,,,58,127
76952,note_on,0,0,0,,2,,,74,127
76952,note_on,0,0,0,,2,,,86,127
76952,note_on,0,0,0,,11,,,82,127
77055,note_off,103,0,0,,11,,,58,127
77057,note_on,2,0,0,,5,,,65,127
77160,note_off,103,0,0,,5,,,65,127
77162,note_on,2,0,0,,4,,,64,127
77265,note_off,103,0,0,,4,,,64,127
77267,note_on,2,0,0,,5,,,65,127
77370,note_off,103,0,0,,5,,,65,127
77372,note_on,2,0,0,,7,,,67,127
77475,note_off,103,0,0,,7,,,67,127
77477,note_on,2,0,0,,5,,,65,127
77580,note_off,103,0,0,,5,,,65,127
77580,note_off,0,0,0,,11,,,82,127
77580,note_off,0,0,0,,2,,,86,127
77580,note_off,0,0,0,,2,,,74,127
77582,note_on,2,0,0,,5,,,53,127
77582,note_on,0,0,0,,0,,,72,127
77582,note_on,0,0,0,,10,,,81,127
77582,note_on,0,0,0,,0,,,84,127
77685,note_off,103,0,0,,5,,,53,127
77687,note_on,2,0,0,,5,,,65,127
77790,note_off,103,0,0,,5,,,65,127
77792,note_on,2,0,0,,4,,,64,127
77895,note_off,103,0,0,,4,,,64,127
77897,note_on,2,0,0,,5,,,65,127
78000,note_off,103,0,0,,5,,,65,127
78002,note_on,2,0,0,,7,,,67,127
78105,note_off,103,0,0,,7,,,67,127
78107,note_on,2,0,0,,5,,,65,127
78210,note_off,103,0,0,,5,,,65,127
78210,note_off,0,0,0,,0,,,84,127
78210,note_off,0,0,0,,10,,,81,127
78210,note_off,0,0,0,,0,,,72,127
78212,note_on,2,0,0,,0,,,48,127
78212,note_on,0,0,0,,11,,,82,127
78212,note_on,0,0,0,,7,,,79,127
78212,note_on,0,0,0,,0,,,72,127
78315,note_off,103,0,0,,0,,,48,127
78317,note_on,2,0,0,,5,,,65,127
78420,note_off,103,0,0,,5,,,65,127
78422,note_on,2,0,0,,4,,,64,127
78525,note_off,103,0,0,,4,,,64,127
78527,note_on,2,0,0,,5,,,65,127
78630,note_off,103,0,0,,5,,,65,127
78632,note_on,2,0,0,,7,,,67,127
78735,note_off,103,0,0,,7,,,67,127
78737,note_on,2,0,0,,5,,,65,127
78840,note_off,103,0,0,,5,,,65,127
78840,note_off,0,0,0,,0,,,72,127
78840,note_off,0,0,0,,7,,,79,127
78840,note_off,0,0,0,,11,,,82,127
78842,note_on,2,0,0,,5,,,41,127
78842,note_on,0,0,0,,10,,,81,127
78842,note_on,0,0,0,,5,,,77,127
78842,note_on,0,0,0,,0,,,72,127
78945,note_off,103,0,0,,5,,,41,127
78947,note_on,2,0,0,,5,,,65,127
79050,note_off,103,0,0,,5,,,65,127
79052,note_on,2,0,0,,4,,,64,127
79155,note_off,103,0,0,,4,,,64,127
79157,note_on,2,0,0,,5,,,65,127
79260,note_off,103,0,0,,5,,,65,127
79262,note_on,2,0,0,,7,,,67,127
79365,note_off,103,0,0,,7,,,67,127
79367,note_on,2,0,0,,5,,,65,127
79470,note_off,103,0,0,,5,,,65,127
79470,note_off,0,0,0,,0,,,72,127
79470,note_off,0,0,0,,5,,,77,127
79470,note_off,0,0,0,,10,,,81,127
79472,note_on,2,0,0,,11,,,58,127
79472,note_on,0,0,0,,2,,,74,127
79472,note_on,0,0,0,,11,,,82,127
79472,note_on,0,0,0,,2,,,86,127
79575,note_off,103,0,0,,11,,,58,127
79577,note_on,2,0,0,,5,,,65,127
79680,note_off,103,0,0,,5,,,65,127
79682,note_on,2,0,0,,4,,,64,127
79785,note_off,103,0,0,,4,,,64,127
79787,note_on,2,0,0,,5,,,65,127
79890,note_off,103,0,0,,5,,,65,127
79892,note_on,2,0,0,,7,,,67,127
79995,note_off,103,0,0,,7,,,67,127
79997,note_on,2,0,0,,5,,,65,127
80100,note_off,103,0,0,,5,,,65,127
80100,note_off,0,0,0,,2,,,86,127
80100,note_off,0,0,0,,11,,,82,127
80100,note_off,0,0,0,,2,,,74,127
80102,note_on,2,0,0,,5,,,53,127
80102,note_on,0,0,0,,10,,,81,127
80102,note_on,0,0,0,,0,,,84,127
80102,note_on,0,0,0,,0,,,72,127
80205,note_off,103,0,0,,5,,,53,127
80207,note_on,2,0,0,,5,,,65,127
80310,note_off,103,0,0,,5,,,65,127
80312,note_on,2,0,0,,4,,,64,127
80415,note_off,103,0,0,,4,,,64,127
80417,note_on,2,0,0,,5,,,65,127
80520,note_off,103,0,0,,5,,,65,127
80522,note_on,2,0,0,,7,,,67,127
80625,note_off,103,0,0,,7,,,67,127
80627,note_on,2,0,0,,5,,,65,127
80730,note_off,103,0,0,,5,,,65,127
80730,note_off,0,0,0,,0,,,72,127
80730,note_off,0,0,0,,0,,,84,127
80730,note_off,0,0,0,,10,,,81,127
80732,note_on,2,0,0,,0,,,48,127
80732,note_on,0,0,0,,0,,,72,127
80732,note_on,0,0,0,,11,,,82,127
80732,note_on,0,0,0,,7,,,79,127
80835,note_off,103,0,0,,0,,,48,127
80837,note_on,2,0,0,,5,,,65,127
80940,note_off,103,0,0,,5,,,65,127
80942,note_on,2,0,0,,4,,,64,127
81045,note_off,103,0,0,,4,,,64,127
81047,note_on,2,0,0,,5,,,65,127
81150,note_off,103,0,0,,5,,,65,127
81152,note_on,2,0,0,,7,,,67,127
81255,note_off,103,0,0,,7,,,67,127
81257,note_on,2,0,0,,5,,,65,127
81360,note_off,103,0,0,,5,,,65,127
81360,note_off,0,0,0,,7,,,79,127
81360,note_off,0,0,0,,11,,,82,127
81360,note_off,0,0,0,,0,,,72,127
81362,note_on,2,0,0,,5,,,41,127
81362,note_on,0,0,0,,10,,,81,127
81465,note_off,103,0,0,,10,,,81,127
81467,note_on,2,0,0,,7,,,79,127
81570,note_off,103,0,0,,7,,,79,127
81570,note_off,0,0,0,,5,,,41,127
81572,note_on,2,0,0,,7,,,43,127
81572,note_on,0,0,0,,5,,,77,127
81675,note_off,103,0,0,,5,,,77,127
81677,note_on,2,0,0,,4,,,76,127
81780,note_off,103,0,0,,4,,,76,127
81780,note_off,0,0,0,,7,,,43,127
81782,note_on,2,0,0,,10,,,45,127
81782,note_on,0,0,0,,5,,,77,127
81885,note_off,103,0,0,,5,,,77,127
81887,note_on,2,0,0,,10,,,81,127
81990,note_off,103,0,0,,10,,,81,127
81990,note_off,0,0,0,,10,,,45,127
81992,note_on,2,0,0,,11,,,46,127
81992,note_on,0,0,0,,7,,,79,127
82095,note_off,103,0,0,,7,,,79,127
82097,note_on,2,0,0,,11,,,82,127
82200,note_off,103,0,0,,11,,,82,127
82200,note_off,0,0,0,,11,,,46,127
82202,note_on,2,0,0,,0,,,48,127
82202,note_on,0,0,0,,10,,,81,127
82305,note_off,103,0,0,,10,,,81,127
82307,note_on,2,0,0,,7,,,79,127
82410,note_off,103,0,0,,7,,,79,127
82412,note_on,2,0,0,,0,,,36,127
82412,note_on,0,0,0,,5,,,77,127
82515,note_off,103,0,0,,5,,,77,127
82517,note_on,2,0,0,,4,,,76,127
82617,note_off,100,0,0,,0,,,48,127
82619,note_off,2,0,0,,4,,,76,127
82619,note_off,0,0,0,,0,,,36,127
82621,note_on,2,0,0,,5,,,41,127
82621,note_on,0,0,0,,5,,,77,127
82724,note_off,103,0,0,,5,,,77,127
82726,note_on,2,0,0,,0,,,84,127
82829,note_off,103,0,0,,0,,,84,127
82831,note_on,2,0,0,,11,,,82,127
82934,note_off,103,0,0,,11,,,82,127
82936,note_on,2,0,0,,0,,,84,127
83039,note_off,103,0,0,,0,,,84,127
83041,note_on,2,0,0,,2,,,86,127
83144,note_off,103,0,0,,2,,,86,127
83146,note_on,2,0,0,,0,,,84,127
83249,note_off,103,0,0,,5,,,41,127
83251,note_on,2,0,0,,0,,,60,127
83251,note_on,0,0,0,,4,,,52,127
83251,note_on,0,0,0,,0,,,72,127
83354,note_off,103,0,0,,0,,,72,127
83354,note_off,0,0,0,,0,,,84,127
83356,note_on,2,0,0,,11,,,82,127
83459,note_off,103,0,0,,11,,,82,127
83461,note_on,2,0,0,,10,,,81,127
83564,note_off,103,0,0,,10,,,81,127
83566,note_on,2,0,0,,11,,,82,127
83669,note_off,103,0,0,,11,,,82,127
83671,note_on,2,0,0,,0,,,84,127
83774,note_off,103,0,0,,0,,,84,127
83776,note_on,2,0,0,,11,,,82,127
83879,note_off,103,0,0,,4,,,52,127
83879,note_off,0,0,0,,0,,,60,127
83881,note_on,2,0,0,,0,,,60,127
83881,note_on,0,0,0,,5,,,53,127
83881,note_on,0,0,0,,0,,,72,127
83984,note_off,103,0,0,,0,,,72,127
83984,note_off,0,0,0,,11,,,82,127
83986,note_on,2,0,0,,10,,,81,127
84089,note_off,103,0,0,,10,,,81,127
84091,note_on,2,0,0,,7,,,79,127
84194,note_off,103,0,0,,7,,,79,127
84196,note_on,2,0,0,,10,,,81,127
84299,note_off,103,0,0,,10,,,81,127
84301,note_on,2,0,0,,11,,,82,127
84404,note_off,103,0,0,,11,,,82,127
84406,note_on,2,0,0,,10,,,81,127
84509,note_off,103,0,0,,5,,,53,127
84509,note_off,0,0,0,,0,,,60,127
84511,note_on,2,0,0,,11,,,58,127
84511,note_on,0,0,0,,11,,,70,127
84563,note_off,52,0,0,,10,,,81,127
84615,note_on,52,0,0,,7,,,79,127
84667,note_off,52,0,0,,11,,,70,127
84717,note_off,50,0,0,,11,,,58,127
84719,note_on,2,0,0,,0,,,60,127
84719,note_on,0,0,0,,10,,,69,127
84771,note_off,52,0,0,,7,,,79,127
84823,note_on,52,0,0,,5,,,77,127
84875,note_off,52,0,0,,10,,,69,127
84927,note_on,52,0,0,,0,,,48,127
84927,note_on,0,0,0,,7,,,67,127
84979,note_off,52,0,0,,5,,,77,127
85031,note_on,52,0,0,,4,,,76,127
85083,note_off,52,0,0,,7,,,67,127
85131,note_off,48,0,0,,0,,,60,127
85133,note_off,2,0,0,,4,,,76,127
85133,note_off,0,0,0,,0,,,48,127
85135,note_on,2,0,0,,0,,,60,127
85135,note_on,0,0,0,,5,,,53,127
85135,note_on,0,0,0,,5,,,77,127
85240,note_on,105,0,0,,0,,,72,127
85343,note_off,103,0,0,,0,,,72,127
85343,note_off,0,0,0,,5,,,77,127
85345,note_on,2,0,0,,11,,,70,127
85448,note_off,103,0,0,,11,,,70,127
85450,note_on,2,0,0,,0,,,72,127
85553,note_off,103,0,0,,0,,,72,127
85555,note_on,2,0,0,,2,,,74,127
85658,note_off,103,0,0,,2,,,74,127
85660,note_on,2,0,0,,0,,,72,127
85763,note_off,103,0,0,,0,,,72,127
85763,note_off,0,0,0,,5,,,53,127
85763,note_off,0,0,0,,0,,,60,127
85765,note_on,2,0,0,,0,,,60,127
85765,note_on,0,0,0,,4,,,52,127
85765,note_on,0,0,0,,7,,,79,127
85870,note_on,105,0,0,,11,,,70,127
85973,note_off,103,0,0,,11,,,70,127
85973,note_off,0,0,0,,7,,,79,127
85975,note_on,2,0,0,,10,,,69,127
86078,note_off,103,0,0,,10,,,69,127
86080,note_on,2,0,0,,11,,,70,127
86183,note_off,103,0,0,,11,,,70,127
86185,note_on,2,0,0,,0,,,72,127
86288,note_off,103,0,0,,0,,,72,127
86290,note_on,2,0,0,,11,,,70,127
86393,note_off,103,0,0,,11,,,70,127
86393,note_off,0,0,0,,4,,,52,127
86393,note_off,0,0,0,,0,,,60,127
86395,note_on,2,0,0,,0,,,60,127
86395,note_on,0,0,0,,5,,,53,127
86395,note_on,0,0,0,,10,,,81,127
86500,note_on,105,0,0,,10,,,69,127
86603,note_off,103,0,0,,10,,,69,127
86603,note_off,0,0,0,,10,,,81,127
86603,note_off,0,0,0,,5,,,53,127
86605,note_on,2,0,0,,7,,,55,127
86605,note_on,0,0,0,,11,,,70,127
86708,note_off,103,0,0,,11,,,70,127
86710,note_on,2,0,0,,0,,,72,127
86813,note_off,103,0,0,,0,,,72,127
86813,note_off,0,0,0,,7,,,55,127
86815,note_on,2,0,0,,10,,,57,127
86815,note_on,0,0,0,,11,,,70,127
86918,note_off,103,0,0,,11,,,70,127
86920,note_on,2,0,0,,10,,,69,127
87023,note_off,103,0,0,,10,,,69,127
87023,note_off,0,0,0,,10,,,57,127
87024,note_off,1,0,0,,0,,,60,127
87025,note_on,1,0,0,,11,,,58,127
87025,note_on,0,0,0,,2,,,74,127
87128,note_off,103,0,0,,2,,,74,127
87130,note_on,2,0,0,,11,,,70,127
87233,note_off,103,0,0,,11,,,70,127
87233,note_off,0,0,0,,11,,,58,127
87235,note_on,2,0,0,,0,,,60,127
87235,note_on,0,0,0,,10,,,69,127
87338,note_off,103,0,0,,10,,,69,127
87340,note_on,2,0,0,,7,,,67,127
87443,note_off,103,0,0,,7,,,67,127
87445,note_on,2,0,0,,0,,,48,127
87445,note_on,0,0,0,,5,,,65,127
87548,note_off,103,0,0,,5,,,65,127
87550,note_on,2,0,0,,4,,,64,127
87650,note_off,100,0,0,,0,,,60,127
87652,note_off,2,0,0,,4,,,64,127
87652,note_off,0,0,0,,0,,,48,127
87654,note_on,2,0,0,,5,,,53,127
87654,note_on,0,0,0,,5,,,65,127
87757,note_off,103,0,0,,5,,,65,127
87759,note_on,2,0,0,,0,,,72,127
87862,note_off,103,0,0,,0,,,72,127
87862,note_off,0,0,0,,5,,,53,127
87864,note_on,2,0,0,,11,,,46,127
87864,note_on,0,0,0,,11,,,70,127
87967,note_off,103,0,0,,11,,,70,127
87969,note_on,2,0,0,,2,,,74,127
88072,note_off,103,0,0,,2,,,74,127
88072,note_off,0,0,0,,11,,,46,127
88074,note_on,2,0,0,,0,,,48,127
88074,note_on,0,0,0,,7,,,67,127
88177,note_off,103,0,0,,7,,,67,127
88179,note_on,2,0,0,,11,,,70,127
88282,note_off,103,0,0,,11,,,70,127
88282,note_off,0,0,0,,0,,,48,127
88284,note_on,2,0,0,,5,,,53,127
88284,note_on,0,0,0,,10,,,69,127
88387,note_off,103,0,0,,10,,,69,127
88389,note_on,2,0,0,,0,,,72,127
88492,note_off,103,0,0,,0,,,72,127
88492,note_off,0,0,0,,5,,,53,127
88494,note_on,2,0,0,,11,,,46,127
88494,note_on,0,0,0,,2,,,62,127
88597,note_off,103,0,0,,2,,,62,127
88599,note_on,2,0,0,,5,,,65,127
88702,note_off,103,0,0,,5,,,65,127
88702,note_off,0,0,0,,11,,,46,127
88704,note_on,2,0,0,,0,,,48,127
88704,note_on,0,0,0,,4,,,64,127
88807,note_off,103,0,0,,4,,,64,127
88809,note_on,2,0,0,,7,,,67,127
88912,note_off,103,0,0,,7,,,67,127
88912,note_off,0,0,0,,0,,,48,127
88914,note_on,2,0,0,,5,,,53,127
88914,note_on,0,0,0,,5,,,65,127
89017,note_off,103,0,0,,5,,,65,127
89019,note_on,2,0,0,,0,,,72,127
89122,note_off,103,0,0,,0,,,72,127
89122,note_off,0,0,0,,5,,,53,127
89124,note_on,2,0,0,,11,,,46,127
89124,note_on,0,0,0,,11,,,70,127
89227,note_off,103,0,0,,11,,,70,127
89229,note_on,2,0,0,,2,,,74,127
89332,note_off,103,0,0,,2,,,74,127
89332,note_off,0,0,0,,11,,,46,127
89334,note_on,2,0,0,,0,,,48,127
89334,note_on,0,0,0,,0,,,72,127
89437,note_off,103,0,0,,0,,,72,127
89439,note_on,2,0,0,,11,,,70,127
89542,note_off,103,0,0,,11,,,70,127
89542,note_off,0,0,0,,0,,,48,127
89544,note_on,2,0,0,,5,,,41,127
89544,note_on,0,0,0,,10,,,69,127
89647,note_off,103,0,0,,10,,,69,127
89649,note_on,2,0,0,,0,,,72,127
89752,note_off,103,0,0,,0,,,72,127
89752,note_off,0,0,0,,5,,,41,127
89754,note_on,2,0,0,,11,,,46,127
89754,note_on,0,0,0,,2,,,62,127
89859,note_on,105,0,0,,2,,,74,127
89962,note_off,103,0,0,,2,,,74,127
89962,note_off,0,0,0,,2,,,62,127
89962,note_off,0,0,0,,11,,,46,127
89964,note_on,2,0,0,,0,,,48,127
89964,note_on,0,0,0,,4,,,64,127
90069,note_on,105,0,0,,4,,,76,127
90172,note_off,103,0,0,,4,,,64,127
90172,note_off,0,0,0,,0,,,48,127
90179,note_off,7,0,0,,4,,,76,127
90207,note_on,28,0,0,,5,,,41,127
90207,note_on,0,0,0,,5,,,77,127
92583,note_off,2376,0,0,,5,,,77,127
92583,note_off,0,0,0,,5,,,41,127
93696,end_of_track,1113,1,0,,,,,,
