tick,type,time,meta,track,program,channel,pitch,tempo,note,velocity
0,copyright,0,1,0,,,,,,
0,program_change,0,0,0,6,0,,,,
0,pitchwheel,0,0,0,,0,0,,,
0,program_change,0,0,0,6,1,,,,
0,pitchwheel,0,0,0,,1,-590,,,
0,program_change,0,0,0,6,2,,,,
0,pitchwheel,0,0,0,,2,-272,,,
0,program_change,0,0,0,6,3,,,,
0,pitchwheel,0,0,0,,3,-353,,,
0,program_change,0,0,0,6,4,,,,
0,pitchwheel,0,0,0,,4,-560,,,
0,program_change,0,0,0,6,5,,,,
0,pitchwheel,0,0,0,,5,-80,,,
0,program_change,0,0,0,6,6,,,,
0,pitchwheel,0,0,0,,6,-625,,,
0,program_change,0,0,0,6,7,,,,
0,pitchwheel,0,0,0,,7,-130,,,
0,program_change,0,0,0,6,8,,,,
0,pitchwheel,0,0,0,,8,-512,,,
0,program_change,0,0,0,6,10,,,,
0,pitchwheel,0,0,0,,10,-464,,,
0,program_change,0,0,0,6,11,,,,
0,pitchwheel,0,0,0,,11,-208,,,
0,program_change,0,0,0,6,12,,,,
0,pitchwheel,0,0,0,,12,-553,,,
0,set_tempo,0,1,0,,,,500000,,
105,note_on,105,0,0,,5,,,65,127
242,note_off,137,0,0,,5,,,65,127
244,note_on,2,0,0,,10,,,69,127
381,note_off,137,0,0,,10,,,69,127
383,note_on,2,0,0,,0,,,72,127
520,note_off,137,0,0,,0,,,72,127
522,note_on,2,0,0,,5,,,53,127
522,note_on,0,0,0,,5,,,77,127
659,note_off,137,0,0,,5,,,53,127
661,note_on,2,0,0,,10,,,57,127
798,note_off,137,0,0,,10,,,57,127
800,note_on,2,0,0,,0,,,60,127
937,note_off,137,0,0,,0,,,60,127
937,note_off,0,0,0,,5,,,77,127
939,note_on,2,0,0,,5,,,65,127
939,note_on,0,0,0,,10,,,69,127
1076,note_off,137,0,0,,10,,,69,127
1078,note_on,2,0,0,,0,,,72,127
1215,note_off,137,0,0,,0,,,72,127
1217,note_on,2,0,0,,5,,,77,127
1354,note_off,137,0,0,,5,,,77,127
1354,note_off,0,0,0,,5,,,65,127
1356,note_on,2,0,0,,10,,,57,127
1356,note_on,0,0,0,,10,,,81,127
1493,note_off,137,0,0,,10,,,57,127
1495,note_on,2,0,0,,0,,,60,127
1632,note_off,137,0,0,,0,,,60,127
1634,note_on,2,0,0,,5,,,65,127
1771,note_off,137,0,0,,5,,,65,127
1771,note_off,0,0,0,,10,,,81,127
1773,note_on,2,0,0,,10,,,69,127
1773,note_on,0,0,0,,0,,,72,127
1910,note_off,137,0,0,,0,,,72,127
1912,note_on,2,0,0,,5,,,77,127
2049,note_off,137,0,0,,5,,,77,127
2050,note_off,1,0,0,,10,,,69,127
2051,note_on,1,0,0,,10,,,81,127
2188,note_off,137,0,0,,10,,,81,127
2190,note_on,2,0,0,,0,,,48,127
2190,note_on,0,0,0,,0,,,84,127
2327,note_off,137,0,0,,0,,,48,127
2329,note_on,2,0,0,,0,,,60,127
2466,note_off,137,0,0,,0,,,60,127
2466,note_off,0,0,0,,0,,,84,127
2468,note_on,2,0,0,,4,,,64,127
2468,note_on,0,0,0,,11,,,82,127
2605,note_off,137,0,0,,11,,,82,127
2605,note_off,0,0,0,,4,,,64,127
2607,note_on,2,0,0,,5,,,65,127
2607,note_on,0,0,0,,10,,,81,127
2744,note_off,137,0,0,,10,,,81,127
2746,note_on,2,0,0,,7,,,79,127
2883,note_off,137,0,0,,7,,,79,127
2885,note_on,2,0,0,,5,,,77,127
3022,note_off,137,0,0,,5,,,77,127
3022,note_off,0,0,0,,5,,,65,127
3024,note_on,2,0,0,,0,,,48,127
3024,note_on,0,0,0,,0,,,84,127
3161,note_off,137,0,0,,0,,,48,127
3163,note_on,2,0,0,,0,,,60,127
3300,note_off,137,0,0,,0,,,60,127
3300,note_off,0,0,0,,0,,,84,127
3302,note_on,2,0,0,,4,,,64,127
3302,note_on,0,0,0,,11,,,82,127
3439,note_off,137,0,0,,11,,,82,127
3439,note_off,0,0,0,,4,,,64,127
3441,note_on,2,0,0,,5,,,65,127
3441,note_on,0,0,0,,10,,,81,127
3578,note_off,137,0,0,,10,,,81,127
3580,note_on,2,0,0,,7,,,79,127
3717,note_off,137,0,0,,7,,,79,127
3719,note_on,2,0,0,,5,,,77,127
3856,note_off,137,0,0,,5,,,77,127
3856,note_off,0,0,0,,5,,,65,127
3858,note_on,2,0,0,,0,,,48,127
3858,note_on,0,0,0,,0,,,84,127
3995,note_off,137,0,0,,0,,,48,127
3997,note_on,2,0,0,,0,,,60,127
4134,note_off,137,0,0,,0,,,60,127
4134,note_off,0,0,0,,0,,,84,127
4136,note_on,2,0,0,,4,,,64,127
4136,note_on,0,0,0,,11,,,82,127
4273,note_off,137,0,0,,11,,,82,127
4273,note_off,0,0,0,,4,,,64,127
4275,note_on,2,0,0,,5,,,65,127
4275,note_on,0,0,0,,10,,,81,127
4412,note_off,137,0,0,,10,,,81,127
4414,note_on,2,0,0,,5,,,77,127
4551,note_off,137,0,0,,5,,,77,127
4553,note_on,2,0,0,,2,,,74,127
4690,note_off,137,0,0,,2,,,74,127
4692,note_on,2,0,0,,12,,,71,127
4831,note_off,139,0,0,,5,,,65,127
4832,note_on,1,0,0,,2,,,62,127
4969,note_off,137,0,0,,2,,,62,127
4971,note_on,2,0,0,,12,,,59,127
5006,note_off,35,0,0,,12,,,71,127
5109,note_off,103,0,0,,12,,,59,127
5111,note_on,2,0,0,,4,,,52,127
5111,note_on,0,0,0,,7,,,79,127
5248,note_off,137,0,0,,7,,,79,127
5250,note_on,2,0,0,,4,,,76,127
5387,note_off,137,0,0,,4,,,76,127
5389,note_on,2,0,0,,0,,,72,127
5526,note_off,137,0,0,,0,,,72,127
5526,note_off,0,0,0,,4,,,52,127
5528,note_on,2,0,0,,4,,,64,127
5528,note_on,0,0,0,,10,,,69,127
5665,note_off,137,0,0,,4,,,64,127
5667,note_on,2,0,0,,0,,,60,127
5804,note_off,137,0,0,,0,,,60,127
5806,note_on,2,0,0,,10,,,57,127
5841,note_off,35,0,0,,10,,,69,127
5944,note_off,103,0,0,,10,,,57,127
5946,note_on,2,0,0,,2,,,50,127
5946,note_on,0,0,0,,5,,,77,127
6083,note_off,137,0,0,,5,,,77,127
6085,note_on,2,0,0,,2,,,74,127
6222,note_off,137,0,0,,2,,,74,127
6224,note_on,2,0,0,,12,,,71,127
6361,note_off,137,0,0,,12,,,71,127
6361,note_off,0,0,0,,2,,,50,127
6363,note_on,2,0,0,,2,,,62,127
6363,note_on,0,0,0,,7,,,67,127
6500,note_off,137,0,0,,2,,,62,127
6502,note_on,2,0,0,,12,,,59,127
6639,note_off,137,0,0,,12,,,59,127
6641,note_on,2,0,0,,7,,,55,127
6676,note_off,35,0,0,,7,,,67,127
6779,note_off,103,0,0,,7,,,55,127
6781,note_on,2,0,0,,0,,,48,127
6781,note_on,0,0,0,,4,,,76,127
6918,note_off,137,0,0,,4,,,76,127
6920,note_on,2,0,0,,0,,,72,127
7057,note_off,137,0,0,,0,,,72,127
7059,note_on,2,0,0,,7,,,67,127
7196,note_off,137,0,0,,7,,,67,127
7196,note_off,0,0,0,,0,,,48,127
7198,note_on,2,0,0,,0,,,60,127
7198,note_on,0,0,0,,4,,,64,127
7335,note_off,137,0,0,,0,,,60,127
7337,note_on,2,0,0,,4,,,52,127
7474,note_off,137,0,0,,4,,,52,127
7476,note_on,2,0,0,,0,,,48,127
7511,note_off,35,0,0,,4,,,64,127
7614,note_off,103,0,0,,0,,,48,127
7616,note_on,2,0,0,,10,,,45,127
7616,note_on,0,0,0,,0,,,60,127
7753,note_off,137,0,0,,0,,,60,127
7755,note_on,2,0,0,,6,,,66,127
7892,note_off,137,0,0,,6,,,66,127
7894,note_on,2,0,0,,10,,,69,127
8031,note_off,137,0,0,,10,,,69,127
8031,note_off,0,0,0,,10,,,45,127
8033,note_on,2,0,0,,10,,,57,127
8033,note_on,0,0,0,,0,,,72,127
8170,note_off,137,0,0,,10,,,57,127
8172,note_on,2,0,0,,6,,,54,127
8309,note_off,137,0,0,,6,,,54,127
8311,note_off,2,0,0,,0,,,72,127
8311,note_on,0,0,0,,10,,,45,127
8448,note_off,137,0,0,,10,,,45,127
8450,note_on,2,0,0,,7,,,43,127
8450,note_on,0,0,0,,5,,,65,127
8587,note_off,137,0,0,,5,,,65,127
8589,note_on,2,0,0,,12,,,71,127
8726,note_off,137,0,0,,12,,,71,127
8728,note_on,2,0,0,,2,,,74,127
8865,note_off,137,0,0,,2,,,74,127
8865,note_off,0,0,0,,7,,,43,127
8867,note_on,2,0,0,,7,,,55,127
8867,note_on,0,0,0,,5,,,77,127
9004,note_off,137,0,0,,7,,,55,127
9006,note_on,2,0,0,,2,,,50,127
9143,note_off,137,0,0,,2,,,50,127
9145,note_off,2,0,0,,5,,,77,127
9145,note_on,0,0,0,,7,,,43,127
9284,note_off,139,0,0,,7,,,43,127
9285,note_on,1,0,0,,10,,,45,127
9285,note_on,0,0,0,,0,,,72,127
9422,note_off,137,0,0,,0,,,72,127
9424,note_on,2,0,0,,6,,,78,127
9561,note_off,137,0,0,,6,,,78,127
9563,note_on,2,0,0,,10,,,81,127
9700,note_off,137,0,0,,10,,,81,127
9700,note_off,0,0,0,,10,,,45,127
9702,note_on,2,0,0,,10,,,57,127
9702,note_on,0,0,0,,0,,,84,127
9839,note_off,137,0,0,,10,,,57,127
9841,note_on,2,0,0,,6,,,54,127
9978,note_off,137,0,0,,6,,,54,127
9980,note_off,2,0,0,,0,,,84,127
9980,note_on,0,0,0,,10,,,45,127
10117,note_off,137,0,0,,10,,,45,127
10119,note_on,2,0,0,,7,,,43,127
10119,note_on,0,0,0,,12,,,83,127
10256,note_off,137,0,0,,12,,,83,127
10258,note_on,2,0,0,,7,,,79,127
10395,note_off,137,0,0,,7,,,79,127
10397,note_on,2,0,0,,2,,,74,127
10534,note_off,137,0,0,,2,,,74,127
10534,note_off,0,0,0,,7,,,43,127
10536,note_on,2,0,0,,0,,,48,127
10536,note_on,0,0,0,,4,,,76,127
10673,note_off,137,0,0,,4,,,76,127
10675,note_on,2,0,0,,5,,,77,127
10812,note_off,137,0,0,,5,,,77,127
10814,note_on,2,0,0,,7,,,79,127
10951,note_off,137,0,0,,0,,,48,127
10953,note_on,2,0,0,,5,,,53,127
10953,note_on,0,0,0,,10,,,69,127
11092,note_off,139,0,0,,7,,,79,127
11093,note_on,1,0,0,,5,,,77,127
11230,note_off,137,0,0,,5,,,77,127
11232,note_on,2,0,0,,4,,,76,127
11367,note_off,135,0,0,,10,,,69,127
11369,note_off,2,0,0,,4,,,76,127
11369,note_off,0,0,0,,5,,,53,127
11371,note_on,2,0,0,,10,,,57,127
11371,note_on,0,0,0,,4,,,76,127
11371,note_on,0,0,0,,5,,,77,127
11508,note_off,137,0,0,,5,,,77,127
11508,note_off,0,0,0,,4,,,76,127
11510,note_on,2,0,0,,2,,,74,127
11647,note_off,137,0,0,,2,,,74,127
11649,note_on,2,0,0,,0,,,72,127
11786,note_off,137,0,0,,0,,,72,127
11786,note_off,0,0,0,,10,,,57,127
11788,note_on,2,0,0,,7,,,55,127
11788,note_on,0,0,0,,2,,,74,127
11925,note_off,137,0,0,,7,,,55,127
11927,note_on,2,0,0,,7,,,67,127
12064,note_off,137,0,0,,7,,,67,127
12066,note_on,2,0,0,,4,,,64,127
12201,note_off,135,0,0,,2,,,74,127
12203,note_off,2,0,0,,4,,,64,127
12205,note_on,2,0,0,,0,,,60,127
12342,note_off,137,0,0,,0,,,60,127
12344,note_on,2,0,0,,10,,,57,127
12481,note_off,137,0,0,,10,,,57,127
12483,note_on,2,0,0,,6,,,54,127
12483,note_on,0,0,0,,0,,,72,127
12483,note_on,0,0,0,,4,,,76,127
12620,note_off,137,0,0,,4,,,76,127
12620,note_off,0,0,0,,0,,,72,127
12620,note_off,0,0,0,,6,,,54,127
12622,note_on,2,0,0,,7,,,43,127
12622,note_on,0,0,0,,2,,,74,127
12622,note_on,0,0,0,,12,,,71,127
12759,note_off,137,0,0,,7,,,43,127
12761,note_on,2,0,0,,7,,,67,127
12898,note_off,137,0,0,,7,,,67,127
12900,note_on,2,0,0,,4,,,64,127
13035,note_off,135,0,0,,12,,,71,127
13035,note_off,0,0,0,,2,,,74,127
13037,note_off,2,0,0,,4,,,64,127
13039,note_on,2,0,0,,0,,,60,127
13176,note_off,137,0,0,,0,,,60,127
13178,note_on,2,0,0,,10,,,57,127
13315,note_off,137,0,0,,10,,,57,127
13317,note_on,2,0,0,,6,,,54,127
13317,note_on,0,0,0,,4,,,76,127
13317,note_on,0,0,0,,0,,,72,127
13454,note_off,137,0,0,,0,,,72,127
13454,note_off,0,0,0,,4,,,76,127
13454,note_off,0,0,0,,6,,,54,127
13456,note_on,2,0,0,,7,,,43,127
13456,note_on,0,0,0,,12,,,71,127
13456,note_on,0,0,0,,2,,,74,127
13593,note_off,137,0,0,,7,,,43,127
13595,note_on,2,0,0,,7,,,67,127
13732,note_off,137,0,0,,7,,,67,127
13734,note_on,2,0,0,,4,,,64,127
13871,note_off,137,0,0,,4,,,64,127
13873,note_on,2,0,0,,0,,,60,127
13978,note_off,105,0,0,,2,,,74,127
13978,note_off,0,0,0,,12,,,71,127
14011,note_off,33,0,0,,0,,,60,127
14013,note_on,2,0,0,,10,,,57,127
14150,note_off,137,0,0,,10,,,57,127
14152,note_on,2,0,0,,6,,,54,127
14152,note_on,0,0,0,,4,,,76,127
14152,note_on,0,0,0,,0,,,72,127
14289,note_off,137,0,0,,0,,,72,127
14289,note_off,0,0,0,,4,,,76,127
14289,note_off,0,0,0,,6,,,54,127
14291,note_on,2,0,0,,7,,,43,127
14291,note_on,0,0,0,,2,,,74,127
14291,note_on,0,0,0,,12,,,71,127
14428,note_off,137,0,0,,7,,,43,127
14430,note_on,2,0,0,,12,,,59,127
14567,note_off,137,0,0,,12,,,59,127
14569,note_on,2,0,0,,2,,,62,127
14706,note_off,137,0,0,,2,,,62,127
14706,note_off,0,0,0,,12,,,71,127
14706,note_off,0,0,0,,2,,,74,127
14708,note_on,2,0,0,,0,,,36,127
14708,note_on,0,0,0,,0,,,72,127
14708,note_on,0,0,0,,4,,,76,127
14845,note_off,137,0,0,,0,,,36,127
14847,note_on,2,0,0,,0,,,60,127
14984,note_off,137,0,0,,0,,,60,127
14986,note_on,2,0,0,,4,,,64,127
15123,note_off,137,0,0,,4,,,64,127
15123,note_off,0,0,0,,0,,,72,127
15125,note_on,2,0,0,,5,,,41,127
15125,note_on,0,0,0,,10,,,69,127
15264,note_off,139,0,0,,4,,,76,127
15265,note_on,1,0,0,,10,,,81,127
15265,note_on,0,0,0,,5,,,77,127
15402,note_off,137,0,0,,5,,,77,127
15402,note_off,0,0,0,,10,,,81,127
15403,note_off,1,0,0,,10,,,69,127
15404,note_on,1,0,0,,4,,,76,127
15404,note_on,0,0,0,,7,,,79,127
15541,note_off,137,0,0,,7,,,79,127
15541,note_off,0,0,0,,4,,,76,127
15541,note_off,0,0,0,,5,,,41,127
15543,note_on,2,0,0,,7,,,43,127
15543,note_on,0,0,0,,2,,,74,127
15543,note_on,0,0,0,,5,,,77,127
15680,note_off,137,0,0,,5,,,77,127
15680,note_off,0,0,0,,2,,,74,127
15682,note_on,2,0,0,,0,,,72,127
15682,note_on,0,0,0,,4,,,76,127
15819,note_off,137,0,0,,4,,,76,127
15819,note_off,0,0,0,,0,,,72,127
15821,note_on,2,0,0,,2,,,74,127
15821,note_on,0,0,0,,12,,,71,127
15958,note_off,137,0,0,,12,,,71,127
15958,note_off,0,0,0,,2,,,74,127
15958,note_off,0,0,0,,7,,,43,127
15960,note_on,2,0,0,,0,,,36,127
15960,note_on,0,0,0,,0,,,72,127
15960,note_on,0,0,0,,4,,,76,127
16097,note_off,137,0,0,,4,,,76,127
16097,note_off,0,0,0,,0,,,72,127
16099,note_on,2,0,0,,2,,,74,127
16099,note_on,0,0,0,,5,,,77,127
16236,note_off,137,0,0,,5,,,77,127
16236,note_off,0,0,0,,2,,,74,127
16238,note_on,2,0,0,,4,,,76,127
16238,note_on,0,0,0,,7,,,79,127
16375,note_off,137,0,0,,0,,,36,127
16377,note_on,2,0,0,,5,,,41,127
16377,note_on,0,0,0,,10,,,69,127
16514,note_off,137,0,0,,10,,,69,127
16515,note_off,1,0,0,,7,,,79,127
16515,note_off,0,0,0,,4,,,76,127
16516,note_on,1,0,0,,5,,,77,127
16516,note_on,0,0,0,,2,,,74,127
16653,note_off,137,0,0,,2,,,74,127
16653,note_off,0,0,0,,5,,,77,127
16655,note_on,2,0,0,,4,,,76,127
16655,note_on,0,0,0,,0,,,72,127
16792,note_off,137,0,0,,0,,,72,127
16792,note_off,0,0,0,,4,,,76,127
16792,note_off,0,0,0,,5,,,41,127
16794,note_on,2,0,0,,7,,,43,127
16794,note_on,0,0,0,,2,,,74,127
16794,note_on,0,0,0,,12,,,71,127
16931,note_off,137,0,0,,7,,,43,127
16933,note_on,2,0,0,,7,,,67,127
17070,note_off,137,0,0,,7,,,67,127
17072,note_on,2,0,0,,4,,,64,127
17107,note_off,35,0,0,,12,,,71,127
17107,note_off,0,0,0,,2,,,74,127
17210,note_off,103,0,0,,4,,,64,127
17212,note_on,2,0,0,,0,,,60,127
17349,note_off,137,0,0,,0,,,60,127
17351,note_on,2,0,0,,10,,,57,127
17488,note_off,137,0,0,,10,,,57,127
17490,note_on,2,0,0,,6,,,54,127
17490,note_on,0,0,0,,0,,,72,127
17490,note_on,0,0,0,,4,,,76,127
17627,note_off,137,0,0,,4,,,76,127
17627,note_off,0,0,0,,0,,,72,127
17627,note_off,0,0,0,,6,,,54,127
17629,note_on,2,0,0,,7,,,43,127
17629,note_on,0,0,0,,12,,,71,127
17629,note_on,0,0,0,,2,,,74,127
17766,note_off,137,0,0,,7,,,43,127
17768,note_on,2,0,0,,7,,,67,127
17905,note_off,137,0,0,,7,,,67,127
17907,note_on,2,0,0,,4,,,64,127
18042,note_off,135,0,0,,2,,,74,127
18042,note_off,0,0,0,,12,,,71,127
18044,note_off,2,0,0,,4,,,64,127
18046,note_on,2,0,0,,0,,,60,127
18183,note_off,137,0,0,,0,,,60,127
18185,note_on,2,0,0,,10,,,57,127
18322,note_off,137,0,0,,10,,,57,127
18324,note_on,2,0,0,,6,,,54,127
18324,note_on,0,0,0,,0,,,72,127
18324,note_on,0,0,0,,4,,,76,127
18461,note_off,137,0,0,,4,,,76,127
18461,note_off,0,0,0,,0,,,72,127
18461,note_off,0,0,0,,6,,,54,127
18463,note_on,2,0,0,,7,,,43,127
18463,note_on,0,0,0,,12,,,71,127
18463,note_on,0,0,0,,2,,,74,127
18600,note_off,137,0,0,,7,,,43,127
18602,note_on,2,0,0,,7,,,67,127
18739,note_off,137,0,0,,7,,,67,127
18741,note_on,2,0,0,,4,,,64,127
18878,note_off,137,0,0,,4,,,64,127
18880,note_on,2,0,0,,0,,,60,127
19017,note_off,137,0,0,,0,,,60,127
19019,note_on,2,0,0,,10,,,57,127
19088,note_off,69,0,0,,2,,,74,127
19088,note_off,0,0,0,,12,,,71,127
19157,note_off,69,0,0,,10,,,57,127
19159,note_on,2,0,0,,6,,,54,127
19159,note_on,0,0,0,,0,,,72,127
19159,note_on,0,0,0,,4,,,76,127
19296,note_off,137,0,0,,4,,,76,127
19296,note_off,0,0,0,,0,,,72,127
19296,note_off,0,0,0,,6,,,54,127
19298,note_on,2,0,0,,7,,,43,127
19298,note_on,0,0,0,,12,,,71,127
19298,note_on,0,0,0,,2,,,74,127
19435,note_off,137,0,0,,7,,,43,127
19437,note_on,2,0,0,,12,,,59,127
19574,note_off,137,0,0,,12,,,59,127
19576,note_on,2,0,0,,2,,,62,127
19713,note_off,137,0,0,,2,,,62,127
19713,note_off,0,0,0,,2,,,74,127
19713,note_off,0,0,0,,12,,,71,127
19715,note_on,2,0,0,,0,,,36,127
19715,note_on,0,0,0,,0,,,72,127
19715,note_on,0,0,0,,4,,,76,127
19852,note_off,137,0,0,,0,,,36,127
19854,note_on,2,0,0,,0,,,60,127
19991,note_off,137,0,0,,0,,,60,127
19993,note_on,2,0,0,,4,,,64,127
20130,note_off,137,0,0,,4,,,64,127
20130,note_off,0,0,0,,4,,,76,127
20132,note_on,2,0,0,,5,,,41,127
20132,note_on,0,0,0,,10,,,69,127
20271,note_off,139,0,0,,0,,,72,127
20272,note_on,1,0,0,,5,,,77,127
20272,note_on,0,0,0,,10,,,81,127
20409,note_off,137,0,0,,10,,,81,127
20409,note_off,0,0,0,,5,,,77,127
20410,note_off,1,0,0,,10,,,69,127
20411,note_on,1,0,0,,4,,,76,127
20411,note_on,0,0,0,,7,,,79,127
20548,note_off,137,0,0,,7,,,79,127
20548,note_off,0,0,0,,4,,,76,127
20548,note_off,0,0,0,,5,,,41,127
20550,note_on,2,0,0,,7,,,43,127
20550,note_on,0,0,0,,5,,,77,127
20550,note_on,0,0,0,,2,,,74,127
20687,note_off,137,0,0,,2,,,74,127
20687,note_off,0,0,0,,5,,,77,127
20689,note_on,2,0,0,,0,,,72,127
20689,note_on,0,0,0,,4,,,76,127
20826,note_off,137,0,0,,4,,,76,127
20826,note_off,0,0,0,,0,,,72,127
20828,note_on,2,0,0,,2,,,74,127
20828,note_on,0,0,0,,12,,,71,127
20965,note_off,137,0,0,,12,,,71,127
20965,note_off,0,0,0,,2,,,74,127
20965,note_off,0,0,0,,7,,,43,127
20967,note_on,2,0,0,,0,,,36,127
20967,note_on,0,0,0,,0,,,72,127
21107,note_on,140,0,0,,7,,,67,127
21153,note_off,46,0,0,,0,,,72,127
21245,note_off,92,0,0,,7,,,67,127
21247,note_on,2,0,0,,4,,,76,127
21384,note_off,137,0,0,,4,,,76,127
21384,note_off,0,0,0,,0,,,36,127
21386,note_on,2,0,0,,7,,,43,127
21386,note_on,0,0,0,,7,,,67,127
21386,note_on,0,0,0,,7,,,79,127
21523,note_off,137,0,0,,7,,,43,127
21525,note_on,2,0,0,,7,,,55,127
21662,note_off,137,0,0,,7,,,55,127
21662,note_off,0,0,0,,7,,,79,127
21664,note_on,2,0,0,,12,,,59,127
21664,note_on,0,0,0,,5,,,77,127
21799,note_off,135,0,0,,7,,,67,127
21801,note_off,2,0,0,,5,,,77,127
21801,note_off,0,0,0,,12,,,59,127
21803,note_on,2,0,0,,0,,,60,127
21803,note_on,0,0,0,,4,,,76,127
21940,note_off,137,0,0,,4,,,76,127
21942,note_on,2,0,0,,2,,,74,127
22079,note_off,137,0,0,,2,,,74,127
22081,note_on,2,0,0,,0,,,72,127
22218,note_off,137,0,0,,0,,,72,127
22218,note_off,0,0,0,,0,,,60,127
22220,note_on,2,0,0,,7,,,43,127
22220,note_on,0,0,0,,7,,,79,127
22220,note_on,0,0,0,,7,,,67,127
22357,note_off,137,0,0,,7,,,43,127
22359,note_on,2,0,0,,7,,,55,127
22496,note_off,137,0,0,,7,,,55,127
22496,note_off,0,0,0,,7,,,79,127
22498,note_on,2,0,0,,12,,,59,127
22498,note_on,0,0,0,,5,,,77,127
22633,note_off,135,0,0,,7,,,67,127
22635,note_off,2,0,0,,5,,,77,127
22635,note_off,0,0,0,,12,,,59,127
22637,note_on,2,0,0,,0,,,60,127
22637,note_on,0,0,0,,4,,,76,127
22774,note_off,137,0,0,,4,,,76,127
22776,note_on,2,0,0,,2,,,74,127
22913,note_off,137,0,0,,2,,,74,127
22915,note_on,2,0,0,,0,,,72,127
23052,note_off,137,0,0,,0,,,72,127
23052,note_off,0,0,0,,0,,,60,127
23054,note_on,2,0,0,,7,,,43,127
23054,note_on,0,0,0,,7,,,67,127
23054,note_on,0,0,0,,7,,,79,127
23191,note_off,137,0,0,,7,,,43,127
23193,note_on,2,0,0,,7,,,55,127
23330,note_off,137,0,0,,7,,,55,127
23330,note_off,0,0,0,,7,,,79,127
23332,note_on,2,0,0,,12,,,59,127
23332,note_on,0,0,0,,5,,,77,127
23467,note_off,135,0,0,,7,,,67,127
23469,note_off,2,0,0,,5,,,77,127
23469,note_off,0,0,0,,12,,,59,127
23471,note_on,2,0,0,,0,,,60,127
23471,note_on,0,0,0,,0,,,72,127
23471,note_on,0,0,0,,4,,,76,127
23608,note_off,137,0,0,,4,,,76,127
23610,note_on,2,0,0,,5,,,77,127
23747,note_off,137,0,0,,5,,,77,127
23747,note_off,0,0,0,,0,,,60,127
23749,note_on,2,0,0,,0,,,48,127
23749,note_on,0,0,0,,7,,,79,127
23886,note_off,137,0,0,,7,,,79,127
23886,note_off,0,0,0,,0,,,48,127
23888,note_on,2,0,0,,5,,,53,127
23888,note_on,0,0,0,,5,,,77,127
24025,note_off,137,0,0,,5,,,77,127
24027,note_on,2,0,0,,4,,,76,127
24164,note_off,137,0,0,,4,,,76,127
24164,note_off,0,0,0,,5,,,53,127
24164,note_off,0,0,0,,0,,,72,127
24166,note_on,2,0,0,,7,,,55,127
24166,note_on,0,0,0,,2,,,74,127
24303,note_off,137,0,0,,2,,,74,127
24303,note_off,0,0,0,,7,,,55,127
24305,note_on,2,0,0,,4,,,52,127
24305,note_on,0,0,0,,0,,,84,127
24445,note_on,140,0,0,,7,,,79,127
24582,note_off,137,0,0,,7,,,79,127
24582,note_off,0,0,0,,4,,,52,127
24584,note_on,2,0,0,,5,,,53,127
24584,note_on,0,0,0,,5,,,77,127
24721,note_off,137,0,0,,5,,,77,127
24721,note_off,0,0,0,,5,,,53,127
24723,note_on,2,0,0,,7,,,55,127
24723,note_on,0,0,0,,4,,,76,127
24860,note_off,137,0,0,,4,,,76,127
24862,note_on,2,0,0,,5,,,77,127
24999,note_off,137,0,0,,5,,,77,127
24999,note_off,0,0,0,,7,,,55,127
24999,note_off,0,0,0,,0,,,84,127
25001,note_on,2,0,0,,5,,,53,127
25001,note_on,0,0,0,,12,,,83,127
25001,note_on,0,0,0,,2,,,74,127
25138,note_off,137,0,0,,2,,,74,127
25138,note_off,0,0,0,,12,,,83,127
25138,note_off,0,0,0,,5,,,53,127
25140,note_on,2,0,0,,4,,,52,127
25140,note_on,0,0,0,,0,,,84,127
25280,note_on,140,0,0,,7,,,79,127
25417,note_off,137,0,0,,7,,,79,127
25417,note_off,0,0,0,,4,,,52,127
25419,note_on,2,0,0,,5,,,53,127
25419,note_on,0,0,0,,5,,,77,127
25556,note_off,137,0,0,,5,,,77,127
25556,note_off,0,0,0,,5,,,53,127
25558,note_on,2,0,0,,7,,,55,127
25558,note_on,0,0,0,,4,,,76,127
25695,note_off,137,0,0,,4,,,76,127
25697,note_on,2,0,0,,5,,,77,127
25834,note_off,137,0,0,,5,,,77,127
25834,note_off,0,0,0,,7,,,55,127
25834,note_off,0,0,0,,0,,,84,127
25836,note_on,2,0,0,,5,,,53,127
25836,note_on,0,0,0,,12,,,83,127
25836,note_on,0,0,0,,2,,,74,127
25973,note_off,137,0,0,,2,,,74,127
25973,note_off,0,0,0,,12,,,83,127
25973,note_off,0,0,0,,5,,,53,127
25975,note_on,2,0,0,,4,,,52,127
25975,note_on,0,0,0,,0,,,84,127
26115,note_on,140,0,0,,7,,,79,127
26252,note_off,137,0,0,,7,,,79,127
26252,note_off,0,0,0,,4,,,52,127
26254,note_on,2,0,0,,5,,,53,127
26254,note_on,0,0,0,,5,,,77,127
26389,note_off,135,0,0,,0,,,84,127
26391,note_off,2,0,0,,5,,,77,127
26391,note_off,0,0,0,,5,,,53,127
26393,note_on,2,0,0,,7,,,55,127
26393,note_on,0,0,0,,0,,,72,127
26393,note_on,0,0,0,,4,,,76,127
26530,note_off,137,0,0,,4,,,76,127
26532,note_on,2,0,0,,5,,,77,127
26669,note_off,137,0,0,,5,,,77,127
26669,note_off,0,0,0,,7,,,55,127
26670,note_off,1,0,0,,0,,,72,127
26671,note_on,1,0,0,,5,,,53,127
26671,note_on,0,0,0,,12,,,71,127
26671,note_on,0,0,0,,2,,,74,127
26808,note_off,137,0,0,,2,,,74,127
26808,note_off,0,0,0,,12,,,71,127
26808,note_off,0,0,0,,5,,,53,127
26810,note_on,2,0,0,,4,,,52,127
26810,note_on,0,0,0,,0,,,72,127
26950,note_on,140,0,0,,7,,,67,127
27087,note_off,137,0,0,,7,,,67,127
27087,note_off,0,0,0,,4,,,52,127
27088,note_off,1,0,0,,0,,,72,127
27089,note_on,1,0,0,,5,,,53,127
27089,note_on,0,0,0,,5,,,65,127
27226,note_off,137,0,0,,5,,,65,127
27226,note_off,0,0,0,,5,,,53,127
27228,note_on,2,0,0,,7,,,55,127
27228,note_on,0,0,0,,4,,,64,127
27228,note_on,0,0,0,,0,,,60,127
27365,note_off,137,0,0,,4,,,64,127
27367,note_on,2,0,0,,5,,,65,127
27504,note_off,137,0,0,,5,,,65,127
27504,note_off,0,0,0,,7,,,55,127
27505,note_off,1,0,0,,0,,,60,127
27506,note_on,1,0,0,,7,,,43,127
27506,note_on,0,0,0,,12,,,59,127
27506,note_on,0,0,0,,2,,,62,127
27643,note_off,137,0,0,,2,,,62,127
27643,note_off,0,0,0,,12,,,59,127
27643,note_off,0,0,0,,7,,,43,127
27645,note_on,2,0,0,,0,,,36,127
27645,note_on,0,0,0,,0,,,60,127
27959,note_off,314,0,0,,0,,,60,127
28062,note_off,103,0,0,,0,,,36,127
28064,note_on,2,0,0,,7,,,43,127
28064,note_on,0,0,0,,7,,,79,127
28201,note_off,137,0,0,,7,,,43,127
28203,note_on,2,0,0,,7,,,55,127
28340,note_off,137,0,0,,7,,,55,127
28340,note_off,0,0,0,,7,,,79,127
28342,note_on,2,0,0,,12,,,59,127
28342,note_on,0,0,0,,5,,,77,127
28479,note_off,137,0,0,,5,,,77,127
28479,note_off,0,0,0,,12,,,59,127
28481,note_on,2,0,0,,0,,,60,127
28481,note_on,0,0,0,,3,,,75,127
28618,note_off,137,0,0,,3,,,75,127
28620,note_on,2,0,0,,2,,,74,127
28757,note_off,137,0,0,,2,,,74,127
28759,note_on,2,0,0,,0,,,72,127
28896,note_off,137,0,0,,0,,,72,127
28896,note_off,0,0,0,,0,,,60,127
28898,note_on,2,0,0,,7,,,43,127
28898,note_on,0,0,0,,7,,,79,127
29035,note_off,137,0,0,,7,,,43,127
29037,note_on,2,0,0,,7,,,55,127
29174,note_off,137,0,0,,7,,,55,127
29174,note_off,0,0,0,,7,,,79,127
29176,note_on,2,0,0,,12,,,59,127
29176,note_on,0,0,0,,5,,,77,127
29313,note_off,137,0,0,,5,,,77,127
29313,note_off,0,0,0,,12,,,59,127
29315,note_on,2,0,0,,0,,,60,127
29315,note_on,0,0,0,,3,,,75,127
29452,note_off,137,0,0,,3,,,75,127
29454,note_on,2,0,0,,2,,,74,127
29591,note_off,137,0,0,,2,,,74,127
29593,note_on,2,0,0,,0,,,72,127
29730,note_off,137,0,0,,0,,,72,127
29730,note_off,0,0,0,,0,,,60,127
29732,note_on,2,0,0,,11,,,46,127
29732,note_on,0,0,0,,11,,,82,127
29732,note_on,0,0,0,,11,,,70,127
29869,note_off,137,0,0,,11,,,46,127
29871,note_on,2,0,0,,11,,,58,127
30008,note_off,137,0,0,,11,,,58,127
30008,note_off,0,0,0,,11,,,82,127
30010,note_on,2,0,0,,2,,,62,127
30010,note_on,0,0,0,,8,,,80,127
30147,note_off,137,0,0,,8,,,80,127
30147,note_off,0,0,0,,2,,,62,127
30149,note_on,2,0,0,,3,,,63,127
30149,note_on,0,0,0,,7,,,79,127
30286,note_off,137,0,0,,7,,,79,127
30288,note_on,2,0,0,,5,,,77,127
30425,note_off,137,0,0,,5,,,77,127
30427,note_on,2,0,0,,3,,,75,127
30564,note_off,137,0,0,,3,,,75,127
30564,note_off,0,0,0,,3,,,63,127
30565,note_off,1,0,0,,11,,,70,127
30566,note_on,1,0,0,,11,,,46,127
30566,note_on,0,0,0,,11,,,70,127
30566,note_on,0,0,0,,11,,,82,127
30703,note_off,137,0,0,,11,,,46,127
30705,note_on,2,0,0,,11,,,58,127
30842,note_off,137,0,0,,11,,,58,127
30842,note_off,0,0,0,,11,,,82,127
30844,note_on,2,0,0,,2,,,62,127
30844,note_on,0,0,0,,8,,,80,127
30981,note_off,137,0,0,,8,,,80,127
30981,note_off,0,0,0,,2,,,62,127
30983,note_on,2,0,0,,3,,,63,127
30983,note_on,0,0,0,,7,,,79,127
31120,note_off,137,0,0,,7,,,79,127
31122,note_on,2,0,0,,5,,,77,127
31259,note_off,137,0,0,,5,,,77,127
31261,note_on,2,0,0,,3,,,75,127
31398,note_off,137,0,0,,3,,,75,127
31398,note_off,0,0,0,,3,,,63,127
31399,note_off,1,0,0,,11,,,70,127
31400,note_on,1,0,0,,0,,,48,127
31400,note_on,0,0,0,,0,,,72,127
31400,note_on,0,0,0,,0,,,84,127
31537,note_off,137,0,0,,0,,,48,127
31539,note_on,2,0,0,,0,,,60,127
31676,note_off,137,0,0,,0,,,60,127
31676,note_off,0,0,0,,0,,,84,127
31678,note_on,2,0,0,,4,,,64,127
31678,note_on,0,0,0,,11,,,82,127
31815,note_off,137,0,0,,11,,,82,127
31815,note_off,0,0,0,,4,,,64,127
31817,note_on,2,0,0,,5,,,65,127
31817,note_on,0,0,0,,8,,,80,127
31954,note_off,137,0,0,,8,,,80,127
31956,note_on,2,0,0,,7,,,79,127
32093,note_off,137,0,0,,7,,,79,127
32095,note_on,2,0,0,,5,,,77,127
32232,note_off,137,0,0,,5,,,77,127
32232,note_off,0,0,0,,5,,,65,127
32233,note_off,1,0,0,,0,,,72,127
32234,note_on,1,0,0,,0,,,48,127
32234,note_on,0,0,0,,0,,,84,127
32234,note_on,0,0,0,,0,,,72,127
32371,note_off,137,0,0,,0,,,48,127
32373,note_on,2,0,0,,0,,,60,127
32510,note_off,137,0,0,,0,,,60,127
32510,note_off,0,0,0,,0,,,84,127
32512,note_on,2,0,0,,4,,,64,127
32512,note_on,0,0,0,,11,,,82,127
32649,note_off,137,0,0,,11,,,82,127
32649,note_off,0,0,0,,4,,,64,127
32651,note_on,2,0,0,,5,,,65,127
32651,note_on,0,0,0,,8,,,80,127
32788,note_off,137,0,0,,8,,,80,127
32790,note_on,2,0,0,,7,,,79,127
32927,note_off,137,0,0,,7,,,79,127
32929,note_on,2,0,0,,5,,,77,127
33066,note_off,137,0,0,,5,,,77,127
33066,note_off,0,0,0,,5,,,65,127
33067,note_off,1,0,0,,0,,,72,127
33068,note_on,1,0,0,,2,,,50,127
33068,note_on,0,0,0,,2,,,86,127
33068,note_on,0,0,0,,2,,,74,127
33205,note_off,137,0,0,,2,,,50,127
33207,note_on,2,0,0,,2,,,62,127
33344,note_off,137,0,0,,2,,,62,127
33344,note_off,0,0,0,,2,,,86,127
33346,note_on,2,0,0,,6,,,66,127
33346,note_on,0,0,0,,0,,,84,127
33483,note_off,137,0,0,,0,,,84,127
33483,note_off,0,0,0,,6,,,66,127
33485,note_on,2,0,0,,7,,,67,127
33485,note_on,0,0,0,,11,,,82,127
33622,note_off,137,0,0,,11,,,82,127
33624,note_on,2,0,0,,10,,,81,127
33761,note_off,137,0,0,,10,,,81,127
33763,note_on,2,0,0,,7,,,79,127
33900,note_off,137,0,0,,7,,,79,127
33900,note_off,0,0,0,,7,,,67,127
33901,note_off,1,0,0,,2,,,74,127
33902,note_on,1,0,0,,2,,,50,127
33902,note_on,0,0,0,,2,,,86,127
33902,note_on,0,0,0,,2,,,74,127
34039,note_off,137,0,0,,2,,,50,127
34041,note_on,2,0,0,,2,,,62,127
34178,note_off,137,0,0,,2,,,62,127
34178,note_off,0,0,0,,2,,,86,127
34180,note_on,2,0,0,,6,,,66,127
34180,note_on,0,0,0,,0,,,84,127
34315,note_off,135,0,0,,2,,,74,127
34317,note_off,2,0,0,,0,,,84,127
34317,note_off,0,0,0,,6,,,66,127
34319,note_on,2,0,0,,7,,,55,127
34319,note_on,0,0,0,,2,,,74,127
34319,note_on,0,0,0,,11,,,82,127
34456,note_off,137,0,0,,7,,,55,127
34458,note_on,2,0,0,,7,,,67,127
34595,note_off,137,0,0,,7,,,67,127
34597,note_on,2,0,0,,3,,,63,127
34732,note_off,135,0,0,,11,,,82,127
34732,note_off,0,0,0,,2,,,74,127
34734,note_off,2,0,0,,3,,,63,127
34736,note_on,2,0,0,,0,,,60,127
34873,note_off,137,0,0,,0,,,60,127
34875,note_on,2,0,0,,10,,,57,127
35012,note_off,137,0,0,,10,,,57,127
35014,note_on,2,0,0,,6,,,54,127
35014,note_on,0,0,0,,0,,,84,127
35014,note_on,0,0,0,,3,,,75,127
35151,note_off,137,0,0,,3,,,75,127
35151,note_off,0,0,0,,0,,,84,127
35151,note_off,0,0,0,,6,,,54,127
35153,note_on,2,0,0,,7,,,55,127
35153,note_on,0,0,0,,11,,,82,127
35153,note_on,0,0,0,,2,,,74,127
35290,note_off,137,0,0,,7,,,55,127
35292,note_on,2,0,0,,7,,,67,127
35429,note_off,137,0,0,,7,,,67,127
35431,note_on,2,0,0,,3,,,63,127
35568,note_off,137,0,0,,3,,,63,127
35570,note_on,2,0,0,,0,,,60,127
35675,note_off,105,0,0,,2,,,74,127
35675,note_off,0,0,0,,11,,,82,127
35708,note_off,33,0,0,,0,,,60,127
35710,note_on,2,0,0,,10,,,57,127
35847,note_off,137,0,0,,10,,,57,127
35849,note_on,2,0,0,,6,,,54,127
35849,note_on,0,0,0,,3,,,75,127
35849,note_on,0,0,0,,0,,,84,127
35986,note_off,137,0,0,,0,,,84,127
35986,note_off,0,0,0,,3,,,75,127
35986,note_off,0,0,0,,6,,,54,127
35988,note_on,2,0,0,,7,,,43,127
35988,note_on,0,0,0,,11,,,82,127
35988,note_on,0,0,0,,2,,,74,127
36125,note_off,137,0,0,,7,,,43,127
36127,note_on,2,0,0,,2,,,62,127
36264,note_off,137,0,0,,2,,,62,127
36266,note_on,2,0,0,,11,,,58,127
36403,note_off,137,0,0,,11,,,58,127
36405,note_on,2,0,0,,7,,,55,127
36542,note_off,137,0,0,,7,,,55,127
36542,note_off,0,0,0,,11,,,82,127
36544,note_on,2,0,0,,4,,,52,127
36544,note_on,0,0,0,,10,,,81,127
36681,note_off,137,0,0,,10,,,81,127
36681,note_off,0,0,0,,4,,,52,127
36683,note_off,2,0,0,,2,,,74,127
36683,note_on,0,0,0,,1,,,49,127
36683,note_on,0,0,0,,7,,,79,127
36683,note_on,0,0,0,,11,,,82,127
36820,note_off,137,0,0,,11,,,82,127
36820,note_off,0,0,0,,7,,,79,127
36820,note_off,0,0,0,,1,,,49,127
36822,note_on,2,0,0,,2,,,38,127
36822,note_on,0,0,0,,6,,,78,127
36822,note_on,0,0,0,,10,,,81,127
36959,note_off,137,0,0,,2,,,38,127
36961,note_on,2,0,0,,2,,,62,127
37098,note_off,137,0,0,,2,,,62,127
37100,note_on,2,0,0,,11,,,58,127
37135,note_off,35,0,0,,10,,,81,127
37135,note_off,0,0,0,,6,,,78,127
37238,note_off,103,0,0,,11,,,58,127
37240,note_on,2,0,0,,7,,,55,127
37377,note_off,137,0,0,,7,,,55,127
37379,note_on,2,0,0,,4,,,52,127
37516,note_off,137,0,0,,4,,,52,127
37518,note_on,2,0,0,,1,,,49,127
37518,note_on,0,0,0,,11,,,82,127
37518,note_on,0,0,0,,7,,,79,127
37655,note_off,137,0,0,,7,,,79,127
37655,note_off,0,0,0,,11,,,82,127
37655,note_off,0,0,0,,1,,,49,127
37657,note_on,2,0,0,,2,,,38,127
37657,note_on,0,0,0,,6,,,78,127
37657,note_on,0,0,0,,10,,,81,127
37794,note_off,137,0,0,,2,,,38,127
37796,note_on,2,0,0,,2,,,62,127
37933,note_off,137,0,0,,2,,,62,127
37935,note_on,2,0,0,,11,,,58,127
38070,note_off,135,0,0,,10,,,81,127
38070,note_off,0,0,0,,6,,,78,127
38072,note_off,2,0,0,,11,,,58,127
38074,note_on,2,0,0,,7,,,55,127
38211,note_off,137,0,0,,7,,,55,127
38213,note_on,2,0,0,,4,,,52,127
38350,note_off,137,0,0,,4,,,52,127
38352,note_on,2,0,0,,1,,,49,127
38352,note_on,0,0,0,,11,,,82,127
38352,note_on,0,0,0,,7,,,79,127
38489,note_off,137,0,0,,7,,,79,127
38489,note_off,0,0,0,,11,,,82,127
38489,note_off,0,0,0,,1,,,49,127
38491,note_on,2,0,0,,2,,,38,127
38491,note_on,0,0,0,,10,,,81,127
38491,note_on,0,0,0,,6,,,78,127
38628,note_off,137,0,0,,2,,,38,127
38630,note_on,2,0,0,,2,,,50,127
38767,note_off,137,0,0,,2,,,50,127
38769,note_on,2,0,0,,6,,,54,127
38906,note_off,137,0,0,,6,,,54,127
38906,note_off,0,0,0,,6,,,78,127
38906,note_off,0,0,0,,10,,,81,127
38908,note_on,2,0,0,,7,,,43,127
38908,note_on,0,0,0,,7,,,79,127
38908,note_on,0,0,0,,11,,,82,127
38908,note_on,0,0,0,,2,,,74,127
39045,note_off,137,0,0,,7,,,43,127
39047,note_on,2,0,0,,7,,,55,127
39184,note_off,137,0,0,,7,,,55,127
39186,note_on,2,0,0,,11,,,58,127
39323,note_off,137,0,0,,11,,,58,127
39323,note_off,0,0,0,,2,,,74,127
39323,note_off,0,0,0,,11,,,82,127
39323,note_off,0,0,0,,7,,,79,127
39325,note_on,2,0,0,,10,,,45,127
39325,note_on,0,0,0,,0,,,84,127
39325,note_on,0,0,0,,0,,,72,127
39325,note_on,0,0,0,,3,,,75,127
39462,note_off,137,0,0,,10,,,45,127
39464,note_on,2,0,0,,10,,,57,127
39601,note_off,137,0,0,,10,,,57,127
39603,note_on,2,0,0,,0,,,60,127
39740,note_off,137,0,0,,0,,,60,127
39740,note_off,0,0,0,,3,,,75,127
39740,note_off,0,0,0,,0,,,72,127
39740,note_off,0,0,0,,0,,,84,127
39742,note_on,2,0,0,,11,,,46,127
39742,note_on,0,0,0,,2,,,74,127
39742,note_on,0,0,0,,2,,,86,127
39879,note_off,137,0,0,,11,,,46,127
39881,note_on,2,0,0,,11,,,58,127
40018,note_off,137,0,0,,11,,,58,127
40019,note_off,1,0,0,,2,,,86,127
40019,note_off,0,0,0,,2,,,74,127
40020,note_on,1,0,0,,2,,,62,127
40157,note_off,137,0,0,,2,,,62,127
40159,note_on,2,0,0,,0,,,48,127
40159,note_on,0,0,0,,0,,,72,127
40159,note_on,0,0,0,,0,,,84,127
40296,note_off,137,0,0,,0,,,48,127
40298,note_on,2,0,0,,0,,,60,127
40435,note_off,137,0,0,,0,,,60,127
40435,note_off,0,0,0,,0,,,84,127
40437,note_on,2,0,0,,4,,,64,127
40437,note_on,0,0,0,,11,,,82,127
40572,note_off,135,0,0,,0,,,72,127
40574,note_off,2,0,0,,11,,,82,127
40574,note_off,0,0,0,,4,,,64,127
40576,note_on,2,0,0,,5,,,65,127
40576,note_on,0,0,0,,10,,,81,127
40713,note_off,137,0,0,,10,,,81,127
40715,note_on,2,0,0,,7,,,79,127
40852,note_off,137,0,0,,7,,,79,127
40854,note_on,2,0,0,,5,,,77,127
40991,note_off,137,0,0,,5,,,77,127
40991,note_off,0,0,0,,5,,,65,127
40993,note_on,2,0,0,,0,,,48,127
40993,note_on,0,0,0,,0,,,72,127
40993,note_on,0,0,0,,0,,,84,127
41130,note_off,137,0,0,,0,,,48,127
41132,note_on,2,0,0,,0,,,60,127
41269,note_off,137,0,0,,0,,,60,127
41269,note_off,0,0,0,,0,,,84,127
41271,note_on,2,0,0,,4,,,64,127
41271,note_on,0,0,0,,11,,,82,127
41406,note_off,135,0,0,,0,,,72,127
41408,note_off,2,0,0,,11,,,82,127
41408,note_off,0,0,0,,4,,,64,127
41410,note_on,2,0,0,,5,,,65,127
41410,note_on,0,0,0,,10,,,81,127
41547,note_off,137,0,0,,10,,,81,127
41549,note_on,2,0,0,,7,,,79,127
41686,note_off,137,0,0,,7,,,79,127
41688,note_on,2,0,0,,5,,,77,127
41825,note_off,137,0,0,,5,,,77,127
41825,note_off,0,0,0,,5,,,65,127
41827,note_on,2,0,0,,0,,,48,127
41827,note_on,0,0,0,,4,,,76,127
41827,note_on,0,0,0,,7,,,79,127
41964,note_off,137,0,0,,0,,,48,127
41966,note_on,2,0,0,,0,,,60,127
42103,note_off,137,0,0,,0,,,60,127
42105,note_on,2,0,0,,10,,,57,127
42240,note_off,135,0,0,,7,,,79,127
42240,note_off,0,0,0,,4,,,76,127
42242,note_off,2,0,0,,10,,,57,127
42244,note_on,2,0,0,,5,,,53,127
42381,note_off,137,0,0,,5,,,53,127
42383,note_on,2,0,0,,2,,,50,127
42520,note_off,137,0,0,,2,,,50,127
42522,note_on,2,0,0,,12,,,47,127
42522,note_on,0,0,0,,10,,,81,127
42522,note_on,0,0,0,,5,,,77,127
42659,note_off,137,0,0,,5,,,77,127
42659,note_off,0,0,0,,10,,,81,127
42659,note_off,0,0,0,,12,,,47,127
42661,note_on,2,0,0,,0,,,48,127
42661,note_on,0,0,0,,4,,,76,127
42661,note_on,0,0,0,,7,,,79,127
42798,note_off,137,0,0,,0,,,48,127
42800,note_on,2,0,0,,0,,,60,127
42937,note_off,137,0,0,,0,,,60,127
42939,note_on,2,0,0,,10,,,57,127
43076,note_off,137,0,0,,10,,,57,127
43078,note_on,2,0,0,,5,,,53,127
43183,note_off,105,0,0,,7,,,79,127
43183,note_off,0,0,0,,4,,,76,127
43216,note_off,33,0,0,,5,,,53,127
43218,note_on,2,0,0,,2,,,50,127
43355,note_off,137,0,0,,2,,,50,127
43357,note_on,2,0,0,,12,,,47,127
43357,note_on,0,0,0,,5,,,77,127
43357,note_on,0,0,0,,10,,,81,127
43494,note_off,137,0,0,,10,,,81,127
43494,note_off,0,0,0,,5,,,77,127
43494,note_off,0,0,0,,12,,,47,127
43496,note_on,2,0,0,,0,,,36,127
43496,note_on,0,0,0,,4,,,76,127
43496,note_on,0,0,0,,7,,,79,127
43633,note_off,137,0,0,,0,,,36,127
43635,note_on,2,0,0,,0,,,60,127
43772,note_off,137,0,0,,0,,,60,127
43774,note_on,2,0,0,,4,,,64,127
43911,note_off,137,0,0,,4,,,64,127
43911,note_off,0,0,0,,7,,,79,127
43911,note_off,0,0,0,,4,,,76,127
43913,note_on,2,0,0,,5,,,41,127
43913,note_on,0,0,0,,5,,,77,127
43913,note_on,0,0,0,,10,,,81,127
44050,note_off,137,0,0,,5,,,41,127
44052,note_on,2,0,0,,5,,,65,127
44189,note_off,137,0,0,,5,,,65,127
44191,note_on,2,0,0,,10,,,69,127
44328,note_off,137,0,0,,10,,,69,127
44328,note_off,0,0,0,,5,,,77,127
44330,note_on,2,0,0,,11,,,46,127
44330,note_on,0,0,0,,2,,,74,127
44469,note_off,139,0,0,,10,,,81,127
44470,note_on,1,0,0,,2,,,86,127
44470,note_on,0,0,0,,11,,,82,127
44607,note_off,137,0,0,,11,,,82,127
44607,note_off,0,0,0,,2,,,86,127
44608,note_off,1,0,0,,2,,,74,127
44609,note_on,1,0,0,,0,,,84,127
44609,note_on,0,0,0,,10,,,81,127
44746,note_off,137,0,0,,10,,,81,127
44746,note_off,0,0,0,,0,,,84,127
44746,note_off,0,0,0,,11,,,46,127
44748,note_on,2,0,0,,0,,,48,127
44748,note_on,0,0,0,,7,,,79,127
44748,note_on,0,0,0,,11,,,82,127
44885,note_off,137,0,0,,11,,,82,127
44885,note_off,0,0,0,,7,,,79,127
44887,note_on,2,0,0,,10,,,81,127
44887,note_on,0,0,0,,5,,,77,127
45024,note_off,137,0,0,,5,,,77,127
45024,note_off,0,0,0,,10,,,81,127
45026,note_on,2,0,0,,7,,,79,127
45026,note_on,0,0,0,,4,,,76,127
45163,note_off,137,0,0,,4,,,76,127
45163,note_off,0,0,0,,7,,,79,127
45163,note_off,0,0,0,,0,,,48,127
45165,note_on,2,0,0,,5,,,53,127
45165,note_on,0,0,0,,10,,,81,127
45165,note_on,0,0,0,,5,,,77,127
45302,note_off,137,0,0,,10,,,81,127
45304,note_on,2,0,0,,11,,,82,127
45441,note_off,137,0,0,,11,,,82,127
45443,note_on,2,0,0,,0,,,84,127
45578,note_off,135,0,0,,5,,,77,127
45580,note_off,2,0,0,,5,,,53,127
45582,note_on,2,0,0,,11,,,46,127
45582,note_on,0,0,0,,2,,,74,127
45719,note_off,137,0,0,,2,,,74,127
45720,note_off,1,0,0,,0,,,84,127
45721,note_on,1,0,0,,7,,,79,127
45721,note_on,0,0,0,,11,,,82,127
45858,note_off,137,0,0,,11,,,82,127
45858,note_off,0,0,0,,7,,,79,127
45860,note_on,2,0,0,,10,,,81,127
45860,note_on,0,0,0,,5,,,77,127
45997,note_off,137,0,0,,5,,,77,127
45997,note_off,0,0,0,,10,,,81,127
45997,note_off,0,0,0,,11,,,46,127
45999,note_on,2,0,0,,0,,,48,127
45999,note_on,0,0,0,,7,,,79,127
45999,note_on,0,0,0,,4,,,76,127
46136,note_off,137,0,0,,0,,,48,127
46138,note_on,2,0,0,,0,,,60,127
46275,note_off,137,0,0,,0,,,60,127
46277,note_on,2,0,0,,10,,,57,127
46412,note_off,135,0,0,,4,,,76,127
46412,note_off,0,0,0,,7,,,79,127
46414,note_off,2,0,0,,10,,,57,127
46416,note_on,2,0,0,,5,,,53,127
46553,note_off,137,0,0,,5,,,53,127
46555,note_on,2,0,0,,2,,,50,127
46692,note_off,137,0,0,,2,,,50,127
46694,note_on,2,0,0,,12,,,47,127
46694,note_on,0,0,0,,10,,,81,127
46694,note_on,0,0,0,,5,,,77,127
46831,note_off,137,0,0,,5,,,77,127
46831,note_off,0,0,0,,10,,,81,127
46831,note_off,0,0,0,,12,,,47,127
46833,note_on,2,0,0,,0,,,48,127
46833,note_on,0,0,0,,7,,,79,127
46833,note_on,0,0,0,,4,,,76,127
46970,note_off,137,0,0,,0,,,48,127
46972,note_on,2,0,0,,0,,,60,127
47109,note_off,137,0,0,,0,,,60,127
47111,note_on,2,0,0,,10,,,57,127
47248,note_off,137,0,0,,10,,,57,127
47250,note_on,2,0,0,,5,,,53,127
47355,note_off,105,0,0,,4,,,76,127
47355,note_off,0,0,0,,7,,,79,127
47388,note_off,33,0,0,,5,,,53,127
47390,note_on,2,0,0,,2,,,50,127
47527,note_off,137,0,0,,2,,,50,127
47529,note_on,2,0,0,,12,,,47,127
47529,note_on,0,0,0,,5,,,77,127
47529,note_on,0,0,0,,10,,,81,127
47666,note_off,137,0,0,,10,,,81,127
47666,note_off,0,0,0,,5,,,77,127
47666,note_off,0,0,0,,12,,,47,127
47668,note_on,2,0,0,,0,,,36,127
47668,note_on,0,0,0,,7,,,79,127
47668,note_on,0,0,0,,4,,,76,127
47805,note_off,137,0,0,,0,,,36,127
47807,note_on,2,0,0,,0,,,60,127
47944,note_off,137,0,0,,0,,,60,127
47946,note_on,2,0,0,,4,,,64,127
48083,note_off,137,0,0,,4,,,64,127
48083,note_off,0,0,0,,4,,,76,127
48083,note_off,0,0,0,,7,,,79,127
48085,note_on,2,0,0,,5,,,41,127
48085,note_on,0,0,0,,5,,,77,127
48085,note_on,0,0,0,,10,,,81,127
48222,note_off,137,0,0,,5,,,41,127
48224,note_on,2,0,0,,5,,,65,127
48361,note_off,137,0,0,,5,,,65,127
48363,note_on,2,0,0,,10,,,69,127
48500,note_off,137,0,0,,10,,,69,127
48500,note_off,0,0,0,,10,,,81,127
48502,note_on,2,0,0,,11,,,46,127
48502,note_on,0,0,0,,2,,,74,127
48641,note_off,139,0,0,,5,,,77,127
48642,note_on,1,0,0,,2,,,86,127
48642,note_on,0,0,0,,11,,,82,127
48779,note_off,137,0,0,,11,,,82,127
48779,note_off,0,0,0,,2,,,86,127
48780,note_off,1,0,0,,2,,,74,127
48781,note_on,1,0,0,,0,,,84,127
48781,note_on,0,0,0,,10,,,81,127
48918,note_off,137,0,0,,10,,,81,127
48918,note_off,0,0,0,,0,,,84,127
48918,note_off,0,0,0,,11,,,46,127
48920,note_on,2,0,0,,0,,,48,127
48920,note_on,0,0,0,,11,,,82,127
48920,note_on,0,0,0,,7,,,79,127
49057,note_off,137,0,0,,7,,,79,127
49057,note_off,0,0,0,,11,,,82,127
49059,note_on,2,0,0,,10,,,81,127
49059,note_on,0,0,0,,5,,,77,127
49196,note_off,137,0,0,,5,,,77,127
49196,note_off,0,0,0,,10,,,81,127
49198,note_on,2,0,0,,4,,,76,127
49198,note_on,0,0,0,,7,,,79,127
49335,note_off,137,0,0,,7,,,79,127
49335,note_off,0,0,0,,4,,,76,127
49335,note_off,0,0,0,,0,,,48,127
49337,note_on,2,0,0,,5,,,41,127
49337,note_on,0,0,0,,5,,,77,127
49477,note_on,140,0,0,,0,,,72,127
49523,note_off,46,0,0,,5,,,77,127
49615,note_off,92,0,0,,0,,,72,127
49617,note_on,2,0,0,,10,,,81,127
49754,note_off,137,0,0,,10,,,81,127
49754,note_off,0,0,0,,5,,,41,127
49756,note_on,2,0,0,,0,,,48,127
49756,note_on,0,0,0,,0,,,84,127
49756,note_on,0,0,0,,0,,,72,127
49893,note_off,137,0,0,,0,,,48,127
49895,note_on,2,0,0,,0,,,60,127
50032,note_off,137,0,0,,0,,,60,127
50032,note_off,0,0,0,,0,,,84,127
50034,note_on,2,0,0,,4,,,64,127
50034,note_on,0,0,0,,11,,,82,127
50169,note_off,135,0,0,,0,,,72,127
50171,note_off,2,0,0,,11,,,82,127
50171,note_off,0,0,0,,4,,,64,127
50173,note_on,2,0,0,,5,,,65,127
50173,note_on,0,0,0,,10,,,81,127
50310,note_off,137,0,0,,10,,,81,127
50312,note_on,2,0,0,,7,,,79,127
50449,note_off,137,0,0,,7,,,79,127
50451,note_on,2,0,0,,5,,,77,127
50588,note_off,137,0,0,,5,,,77,127
50588,note_off,0,0,0,,5,,,65,127
50590,note_on,2,0,0,,0,,,36,127
50590,note_on,0,0,0,,0,,,84,127
50590,note_on,0,0,0,,0,,,72,127
50727,note_off,137,0,0,,0,,,36,127
50729,note_on,2,0,0,,0,,,60,127
50866,note_off,137,0,0,,0,,,60,127
50866,note_off,0,0,0,,0,,,84,127
50868,note_on,2,0,0,,4,,,64,127
50868,note_on,0,0,0,,11,,,82,127
51003,note_off,135,0,0,,0,,,72,127
51005,note_off,2,0,0,,11,,,82,127
51005,note_off,0,0,0,,4,,,64,127
51007,note_on,2,0,0,,5,,,65,127
51007,note_on,0,0,0,,10,,,81,127
51144,note_off,137,0,0,,10,,,81,127
51146,note_on,2,0,0,,7,,,79,127
51283,note_off,137,0,0,,7,,,79,127
51285,note_on,2,0,0,,5,,,77,127
51422,note_off,137,0,0,,5,,,77,127
51422,note_off,0,0,0,,5,,,65,127
51424,note_on,2,0,0,,0,,,36,127
51424,note_on,0,0,0,,0,,,84,127
51424,note_on,0,0,0,,0,,,72,127
51561,note_off,137,0,0,,0,,,36,127
51563,note_on,2,0,0,,0,,,60,127
51700,note_off,137,0,0,,0,,,60,127
51700,note_off,0,0,0,,0,,,84,127
51702,note_on,2,0,0,,4,,,64,127
51702,note_on,0,0,0,,11,,,82,127
51837,note_off,135,0,0,,0,,,72,127
51839,note_off,2,0,0,,11,,,82,127
51839,note_off,0,0,0,,4,,,64,127
51841,note_on,2,0,0,,5,,,53,127
51841,note_on,0,0,0,,10,,,81,127
51978,note_off,137,0,0,,10,,,81,127
51978,note_off,0,0,0,,5,,,53,127
51980,note_on,2,0,0,,7,,,55,127
51980,note_on,0,0,0,,7,,,79,127
52117,note_off,137,0,0,,7,,,79,127
52117,note_off,0,0,0,,7,,,55,127
52119,note_on,2,0,0,,10,,,57,127
52119,note_on,0,0,0,,5,,,77,127
52256,note_off,137,0,0,,5,,,77,127
52256,note_off,0,0,0,,10,,,57,127
52258,note_on,2,0,0,,11,,,46,127
52258,note_on,0,0,0,,7,,,79,127
52395,note_off,137,0,0,,7,,,79,127
52397,note_on,2,0,0,,5,,,77,127
52534,note_off,137,0,0,,5,,,77,127
52534,note_off,0,0,0,,11,,,46,127
52536,note_on,2,0,0,,0,,,48,127
52536,note_on,0,0,0,,4,,,76,127
52673,note_off,137,0,0,,4,,,76,127
52673,note_off,0,0,0,,0,,,48,127
52675,note_on,2,0,0,,10,,,45,127
52675,note_on,0,0,0,,5,,,77,127
52815,note_on,140,0,0,,0,,,72,127
52952,note_off,137,0,0,,0,,,72,127
52952,note_off,0,0,0,,10,,,45,127
52954,note_on,2,0,0,,11,,,46,127
52954,note_on,0,0,0,,11,,,70,127
53091,note_off,137,0,0,,11,,,70,127
53091,note_off,0,0,0,,11,,,46,127
53093,note_on,2,0,0,,0,,,48,127
53093,note_on,0,0,0,,10,,,69,127
53230,note_off,137,0,0,,10,,,69,127
53232,note_on,2,0,0,,11,,,70,127
53369,note_off,137,0,0,,11,,,70,127
53369,note_off,0,0,0,,0,,,48,127
53369,note_off,0,0,0,,5,,,77,127
53371,note_on,2,0,0,,11,,,46,127
53371,note_on,0,0,0,,7,,,67,127
53371,note_on,0,0,0,,4,,,76,127
53508,note_off,137,0,0,,4,,,76,127
53508,note_off,0,0,0,,7,,,67,127
53508,note_off,0,0,0,,11,,,46,127
53510,note_on,2,0,0,,10,,,45,127
53510,note_on,0,0,0,,5,,,77,127
53650,note_on,140,0,0,,0,,,72,127
53787,note_off,137,0,0,,0,,,72,127
53787,note_off,0,0,0,,10,,,45,127
53789,note_on,2,0,0,,11,,,46,127
53789,note_on,0,0,0,,11,,,70,127
53926,note_off,137,0,0,,11,,,70,127
53926,note_off,0,0,0,,11,,,46,127
53928,note_on,2,0,0,,0,,,48,127
53928,note_on,0,0,0,,10,,,69,127
54065,note_off,137,0,0,,10,,,69,127
54067,note_on,2,0,0,,11,,,70,127
54204,note_off,137,0,0,,11,,,70,127
54204,note_off,0,0,0,,0,,,48,127
54204,note_off,0,0,0,,5,,,77,127
54206,note_on,2,0,0,,11,,,46,127
54206,note_on,0,0,0,,7,,,67,127
54206,note_on,0,0,0,,4,,,76,127
54343,note_off,137,0,0,,4,,,76,127
54343,note_off,0,0,0,,7,,,67,127
54343,note_off,0,0,0,,11,,,46,127
54345,note_on,2,0,0,,5,,,77,127
54345,note_on,0,0,0,,10,,,45,127
54489,note_on,144,0,0,,0,,,72,127
54630,note_off,141,0,0,,0,,,72,127
54630,note_off,0,0,0,,10,,,45,127
54633,note_on,3,0,0,,11,,,70,127
54633,note_on,0,0,0,,11,,,46,127
54772,note_off,139,0,0,,5,,,77,127
54774,note_off,2,0,0,,11,,,46,127
54774,note_off,0,0,0,,11,,,70,127
54776,note_on,2,0,0,,10,,,69,127
54776,note_on,0,0,0,,5,,,65,127
54776,note_on,0,0,0,,0,,,48,127
54917,note_off,141,0,0,,10,,,69,127
54920,note_on,3,0,0,,11,,,70,127
55061,note_off,141,0,0,,11,,,70,127
55062,note_off,1,0,0,,5,,,65,127
55064,note_on,2,0,0,,4,,,64,127
55064,note_on,0,0,0,,7,,,67,127
55064,note_on,0,0,0,,0,,,36,127
55203,note_off,139,0,0,,0,,,48,127
55205,note_off,2,0,0,,0,,,36,127
55205,note_off,0,0,0,,7,,,67,127
55205,note_off,0,0,0,,4,,,64,127
55226,note_on,21,0,0,,5,,,41,127
55226,note_on,0,0,0,,5,,,65,127
56968,note_off,1742,0,0,,5,,,65,127
56968,note_off,0,0,0,,5,,,41,127
62976,end_of_track,6008,1,0,,,,,,
