tick,type,time,meta,track,program,channel,pitch,tempo,note,velocity
0,copyright,0,1,0,,,,,,
0,program_change,0,0,0,6,0,,,,
0,pitchwheel,0,0,0,,0,0,,,
0,program_change,0,0,0,6,1,,,,
0,pitchwheel,0,0,0,,1,-590,,,
0,program_change,0,0,0,6,2,,,,
0,pitchwheel,0,0,0,,2,-272,,,
0,program_change,0,0,0,6,3,,,,
0,pitchwheel,0,0,0,,3,-353,,,
0,program_change,0,0,0,6,4,,,,
0,pitchwheel,0,0,0,,4,-560,,,
0,program_change,0,0,0,6,5,,,,
0,pitchwheel,0,0,0,,5,-80,,,
0,program_change,0,0,0,6,6,,,,
0,pitchwheel,0,0,0,,6,-625,,,
0,program_change,0,0,0,6,7,,,,
0,pitchwheel,0,0,0,,7,-130,,,
0,program_change,0,0,0,6,8,,,,
0,pitchwheel,0,0,0,,8,-512,,,
0,program_change,0,0,0,6,10,,,,
0,pitchwheel,0,0,0,,10,-464,,,
0,program_change,0,0,0,6,11,,,,
0,pitchwheel,0,0,0,,11,-208,,,
0,program_change,0,0,0,6,12,,,,
0,pitchwheel,0,0,0,,12,-553,,,
0,set_tempo,0,1,0,,,,500000,,
78,note_on,78,0,0,,11,,,46,127
444,note_on,366,0,0,,5,,,77,127
798,note_off,354,0,0,,5,,,77,127
799,note_on,1,0,0,,5,,,77,127
965,note_off,166,0,0,,11,,,46,127
1152,note_off,187,0,0,,5,,,77,127
1153,note_on,1,0,0,,11,,,58,127
1153,note_on,0,0,0,,2,,,74,127
1507,note_off,354,0,0,,2,,,74,127
1507,note_off,0,0,0,,11,,,58,127
1508,note_on,1,0,0,,11,,,58,127
1508,note_on,0,0,0,,5,,,77,127
1862,note_off,354,0,0,,5,,,77,127
1862,note_off,0,0,0,,11,,,58,127
1863,note_on,1,0,0,,3,,,51,127
1863,note_on,0,0,0,,7,,,79,127
1863,note_on,0,0,0,,10,,,81,127
1980,note_off,117,0,0,,10,,,81,127
1980,note_off,0,0,0,,7,,,79,127
1981,note_on,1,0,0,,5,,,77,127
2098,note_off,117,0,0,,5,,,77,127
2099,note_on,1,0,0,,3,,,75,127
2216,note_off,117,0,0,,3,,,75,127
2216,note_off,0,0,0,,3,,,51,127
2217,note_on,1,0,0,,5,,,53,127
2217,note_on,0,0,0,,2,,,74,127
2571,note_off,354,0,0,,2,,,74,127
2571,note_off,0,0,0,,5,,,53,127
2572,note_on,1,0,0,,10,,,57,127
2572,note_on,0,0,0,,0,,,72,127
2926,note_off,354,0,0,,0,,,72,127
2926,note_off,0,0,0,,10,,,57,127
2927,note_on,1,0,0,,11,,,58,127
2927,note_on,0,0,0,,2,,,74,127
3281,note_off,354,0,0,,2,,,74,127
3282,note_on,1,0,0,,2,,,74,127
3636,note_off,354,0,0,,2,,,74,127
3636,note_off,0,0,0,,11,,,58,127
3637,note_on,1,0,0,,2,,,74,127
3991,note_off,354,0,0,,2,,,74,127
3992,note_on,1,0,0,,7,,,55,127
3992,note_on,0,0,0,,11,,,70,127
4346,note_off,354,0,0,,11,,,70,127
4346,note_off,0,0,0,,7,,,55,127
4347,note_on,1,0,0,,7,,,55,127
4347,note_on,0,0,0,,2,,,74,127
4701,note_off,354,0,0,,2,,,74,127
4701,note_off,0,0,0,,7,,,55,127
4702,note_on,1,0,0,,3,,,51,127
4702,note_on,0,0,0,,3,,,75,127
4702,note_on,0,0,0,,5,,,77,127
4819,note_off,117,0,0,,5,,,77,127
4819,note_off,0,0,0,,3,,,75,127
4820,note_on,1,0,0,,2,,,74,127
4937,note_off,117,0,0,,2,,,74,127
4938,note_on,1,0,0,,0,,,72,127
5055,note_off,117,0,0,,0,,,72,127
5055,note_off,0,0,0,,3,,,51,127
5056,note_on,1,0,0,,5,,,53,127
5056,note_on,0,0,0,,11,,,70,127
5410,note_off,354,0,0,,11,,,70,127
5411,note_on,1,0,0,,5,,,41,127
5411,note_on,0,0,0,,10,,,69,127
5765,note_off,354,0,0,,10,,,69,127
5765,note_off,0,0,0,,5,,,41,127
5765,note_off,0,0,0,,5,,,53,127
5766,note_on,1,0,0,,11,,,46,127
5766,note_on,0,0,0,,11,,,70,127
6108,note_off,342,0,0,,11,,,70,127
6120,note_off,12,0,0,,11,,,46,127
6128,note_on,8,0,0,,11,,,58,127
6128,note_on,0,0,0,,2,,,74,127
6245,note_off,117,0,0,,2,,,74,127
6246,note_on,1,0,0,,11,,,70,127
6363,note_off,117,0,0,,11,,,70,127
6364,note_on,1,0,0,,5,,,77,127
6481,note_off,117,0,0,,11,,,58,127
6482,note_on,1,0,0,,10,,,57,127
6482,note_on,0,0,0,,5,,,65,127
6599,note_off,117,0,0,,5,,,77,127
6835,note_off,236,0,0,,10,,,57,127
6836,note_on,1,0,0,,5,,,53,127
6894,note_off,58,0,0,,5,,,65,127
6895,note_on,1,0,0,,3,,,63,127
6953,note_off,58,0,0,,3,,,63,127
6954,note_on,1,0,0,,5,,,65,127
7012,note_off,58,0,0,,5,,,65,127
7013,note_on,1,0,0,,3,,,63,127
7071,note_off,58,0,0,,3,,,63,127
7072,note_on,1,0,0,,2,,,62,127
7130,note_off,58,0,0,,2,,,62,127
7131,note_on,1,0,0,,3,,,63,127
7189,note_off,58,0,0,,3,,,63,127
7189,note_off,0,0,0,,5,,,53,127
7190,note_on,1,0,0,,11,,,58,127
7190,note_on,0,0,0,,2,,,62,127
7544,note_off,354,0,0,,2,,,62,127
7544,note_off,0,0,0,,11,,,58,127
7545,note_on,1,0,0,,11,,,58,127
7545,note_on,0,0,0,,2,,,74,127
7662,note_off,117,0,0,,2,,,74,127
7663,note_on,1,0,0,,11,,,70,127
7780,note_off,117,0,0,,11,,,70,127
7781,note_on,1,0,0,,5,,,77,127
7898,note_off,117,0,0,,11,,,58,127
7899,note_on,1,0,0,,10,,,57,127
7899,note_on,0,0,0,,5,,,65,127
8016,note_off,117,0,0,,5,,,77,127
8252,note_off,236,0,0,,10,,,57,127
8253,note_on,1,0,0,,5,,,53,127
8311,note_off,58,0,0,,5,,,65,127
8312,note_on,1,0,0,,3,,,63,127
8370,note_off,58,0,0,,3,,,63,127
8371,note_on,1,0,0,,5,,,65,127
8429,note_off,58,0,0,,5,,,65,127
8430,note_on,1,0,0,,3,,,63,127
8488,note_off,58,0,0,,3,,,63,127
8489,note_on,1,0,0,,2,,,62,127
8547,note_off,58,0,0,,2,,,62,127
8548,note_on,1,0,0,,3,,,63,127
8606,note_off,58,0,0,,3,,,63,127
8606,note_off,0,0,0,,5,,,53,127
8607,note_on,1,0,0,,11,,,58,127
8607,note_on,0,0,0,,2,,,62,127
8961,note_off,354,0,0,,2,,,62,127
8961,note_off,0,0,0,,11,,,58,127
8962,note_on,1,0,0,,2,,,50,127
8962,note_on,0,0,0,,11,,,70,127
9079,note_off,117,0,0,,11,,,70,127
9080,note_on,1,0,0,,10,,,69,127
9197,note_off,117,0,0,,10,,,69,127
9198,note_on,1,0,0,,2,,,74,127
9315,note_off,117,0,0,,2,,,74,127
9315,note_off,0,0,0,,2,,,50,127
9316,note_on,1,0,0,,3,,,51,127
9316,note_on,0,0,0,,0,,,72,127
9670,note_off,354,0,0,,3,,,51,127
9671,note_on,1,0,0,,7,,,55,127
9729,note_off,58,0,0,,0,,,72,127
9730,note_on,1,0,0,,11,,,70,127
9788,note_off,58,0,0,,11,,,70,127
9789,note_on,1,0,0,,0,,,72,127
9847,note_off,58,0,0,,0,,,72,127
9848,note_on,1,0,0,,11,,,70,127
9906,note_off,58,0,0,,11,,,70,127
9907,note_on,1,0,0,,10,,,69,127
9965,note_off,58,0,0,,10,,,69,127
9966,note_on,1,0,0,,11,,,70,127
10024,note_off,58,0,0,,11,,,70,127
10024,note_off,0,0,0,,7,,,55,127
10025,note_on,1,0,0,,5,,,53,127
10025,note_on,0,0,0,,10,,,69,127
10362,note_off,337,0,0,,10,,,69,127
10379,note_off,17,0,0,,5,,,53,127
10380,note_on,1,0,0,,2,,,50,127
10380,note_on,0,0,0,,11,,,70,127
10497,note_off,117,0,0,,11,,,70,127
10498,note_on,1,0,0,,10,,,69,127
10615,note_off,117,0,0,,10,,,69,127
10616,note_on,1,0,0,,2,,,74,127
10733,note_off,117,0,0,,2,,,74,127
10733,note_off,0,0,0,,2,,,50,127
10734,note_on,1,0,0,,3,,,51,127
10734,note_on,0,0,0,,0,,,72,127
11088,note_off,354,0,0,,3,,,51,127
11089,note_on,1,0,0,,7,,,55,127
11146,note_off,57,0,0,,0,,,72,127
11148,note_on,2,0,0,,11,,,70,127
11206,note_off,58,0,0,,11,,,70,127
11207,note_on,1,0,0,,0,,,72,127
11265,note_off,58,0,0,,0,,,72,127
11266,note_on,1,0,0,,11,,,70,127
11324,note_off,58,0,0,,11,,,70,127
11325,note_on,1,0,0,,10,,,69,127
11383,note_off,58,0,0,,10,,,69,127
11384,note_on,1,0,0,,11,,,70,127
11442,note_off,58,0,0,,11,,,70,127
11442,note_off,0,0,0,,7,,,55,127
11443,note_on,1,0,0,,5,,,53,127
11443,note_on,0,0,0,,10,,,69,127
11709,note_off,266,0,0,,10,,,69,127
11797,note_off,88,0,0,,5,,,53,127
11798,note_on,1,0,0,,2,,,50,127
11798,note_on,0,0,0,,11,,,82,127
12152,note_off,354,0,0,,11,,,82,127
12152,note_off,0,0,0,,2,,,50,127
12153,note_on,1,0,0,,3,,,51,127
12153,note_on,0,0,0,,0,,,72,127
12507,note_off,354,0,0,,3,,,51,127
12508,note_on,1,0,0,,5,,,53,127
12625,note_off,117,0,0,,0,,,72,127
12626,note_on,1,0,0,,2,,,74,127
12743,note_off,117,0,0,,2,,,74,127
12744,note_on,1,0,0,,3,,,75,127
12861,note_off,117,0,0,,3,,,75,127
12861,note_off,0,0,0,,5,,,53,127
12862,note_on,1,0,0,,11,,,58,127
12862,note_on,0,0,0,,2,,,74,127
12979,note_off,117,0,0,,2,,,74,127
12980,note_on,1,0,0,,3,,,75,127
13097,note_off,117,0,0,,3,,,75,127
13098,note_on,1,0,0,,5,,,77,127
13215,note_off,117,0,0,,5,,,77,127
13215,note_off,0,0,0,,11,,,58,127
13216,note_on,1,0,0,,3,,,51,127
13216,note_on,0,0,0,,3,,,75,127
13333,note_off,117,0,0,,3,,,75,127
13334,note_on,1,0,0,,2,,,74,127
13451,note_off,117,0,0,,2,,,74,127
13452,note_on,1,0,0,,0,,,72,127
13569,note_off,117,0,0,,0,,,72,127
13569,note_off,0,0,0,,3,,,51,127
13570,note_on,1,0,0,,5,,,53,127
13570,note_on,0,0,0,,11,,,70,127
13924,note_off,354,0,0,,11,,,70,127
13924,note_off,0,0,0,,5,,,53,127
13925,note_on,1,0,0,,5,,,53,127
13925,note_on,0,0,0,,11,,,70,127
13983,note_off,58,0,0,,11,,,70,127
13984,note_on,1,0,0,,10,,,69,127
14042,note_off,58,0,0,,10,,,69,127
14043,note_on,1,0,0,,11,,,70,127
14101,note_off,58,0,0,,11,,,70,127
14102,note_on,1,0,0,,10,,,69,127
14160,note_off,58,0,0,,10,,,69,127
14161,note_on,1,0,0,,7,,,67,127
14219,note_off,58,0,0,,7,,,67,127
14220,note_on,1,0,0,,10,,,69,127
14278,note_off,58,0,0,,10,,,69,127
14278,note_off,0,0,0,,5,,,53,127
14279,note_on,1,0,0,,7,,,55,127
14279,note_on,0,0,0,,11,,,70,127
14633,note_off,354,0,0,,7,,,55,127
14634,note_on,1,0,0,,7,,,55,127
14634,note_on,0,0,0,,11,,,82,127
14988,note_off,354,0,0,,11,,,82,127
14988,note_off,0,0,0,,7,,,55,127
14988,note_off,0,0,0,,11,,,70,127
14989,note_on,1,0,0,,10,,,57,127
14989,note_on,0,0,0,,0,,,72,127
15343,note_off,354,0,0,,10,,,57,127
15344,note_on,1,0,0,,5,,,53,127
15461,note_off,117,0,0,,0,,,72,127
15462,note_on,1,0,0,,2,,,74,127
15579,note_off,117,0,0,,2,,,74,127
15580,note_on,1,0,0,,3,,,75,127
15697,note_off,117,0,0,,3,,,75,127
15697,note_off,0,0,0,,5,,,53,127
15698,note_on,1,0,0,,11,,,58,127
15698,note_on,0,0,0,,2,,,74,127
15815,note_off,117,0,0,,2,,,74,127
15816,note_on,1,0,0,,3,,,75,127
15933,note_off,117,0,0,,3,,,75,127
15934,note_on,1,0,0,,5,,,77,127
16051,note_off,117,0,0,,5,,,77,127
16051,note_off,0,0,0,,11,,,58,127
16052,note_on,1,0,0,,3,,,51,127
16052,note_on,0,0,0,,7,,,79,127
16169,note_off,117,0,0,,7,,,79,127
16170,note_on,1,0,0,,3,,,75,127
16287,note_off,117,0,0,,3,,,75,127
16288,note_on,1,0,0,,0,,,72,127
16405,note_off,117,0,0,,0,,,72,127
16405,note_off,0,0,0,,3,,,51,127
16406,note_on,1,0,0,,5,,,53,127
16406,note_on,0,0,0,,11,,,70,127
16760,note_off,354,0,0,,5,,,53,127
16761,note_on,1,0,0,,5,,,41,127
16818,note_off,57,0,0,,11,,,70,127
16820,note_on,2,0,0,,10,,,69,127
16878,note_off,58,0,0,,10,,,69,127
16879,note_on,1,0,0,,11,,,70,127
16937,note_off,58,0,0,,11,,,70,127
16938,note_on,1,0,0,,10,,,69,127
16996,note_off,58,0,0,,10,,,69,127
16997,note_on,1,0,0,,7,,,67,127
17055,note_off,58,0,0,,7,,,67,127
17062,note_on,7,0,0,,10,,,69,127
17114,note_off,52,0,0,,5,,,41,127
17134,note_off,20,0,0,,10,,,69,127
17136,note_on,2,0,0,,11,,,70,127
17136,note_on,0,0,0,,11,,,46,127
17281,note_off,145,0,0,,11,,,70,127
17282,note_on,1,0,0,,5,,,65,127
17427,note_off,145,0,0,,5,,,65,127
17428,note_off,1,0,0,,11,,,46,127
17429,note_on,1,0,0,,11,,,70,127
17429,note_on,0,0,0,,2,,,50,127
17574,note_off,145,0,0,,2,,,50,127
17574,note_off,0,0,0,,11,,,70,127
17576,note_on,2,0,0,,11,,,70,127
17576,note_on,0,0,0,,0,,,48,127
17721,note_off,145,0,0,,11,,,70,127
17722,note_on,1,0,0,,10,,,69,127
17867,note_off,145,0,0,,10,,,69,127
17868,note_off,1,0,0,,0,,,48,127
17869,note_on,1,0,0,,0,,,72,127
17869,note_on,0,0,0,,3,,,51,127
18014,note_off,145,0,0,,3,,,51,127
18014,note_off,0,0,0,,0,,,72,127
18016,note_on,2,0,0,,0,,,72,127
18016,note_on,0,0,0,,2,,,50,127
18161,note_off,145,0,0,,0,,,72,127
18163,note_on,2,0,0,,11,,,70,127
18308,note_off,145,0,0,,11,,,70,127
18308,note_off,0,0,0,,2,,,50,127
18309,note_on,1,0,0,,2,,,74,127
18309,note_on,0,0,0,,11,,,58,127
18454,note_off,145,0,0,,11,,,58,127
18454,note_off,0,0,0,,2,,,74,127
18456,note_on,2,0,0,,2,,,74,127
18456,note_on,0,0,0,,10,,,57,127
18601,note_off,145,0,0,,10,,,57,127
18601,note_off,0,0,0,,2,,,74,127
18603,note_on,2,0,0,,0,,,72,127
18603,note_on,0,0,0,,5,,,53,127
18748,note_off,145,0,0,,5,,,53,127
18748,note_off,0,0,0,,0,,,72,127
18749,note_on,1,0,0,,3,,,75,127
18749,note_on,0,0,0,,10,,,57,127
18894,note_off,145,0,0,,10,,,57,127
18894,note_off,0,0,0,,3,,,75,127
18896,note_on,2,0,0,,2,,,74,127
18896,note_on,0,0,0,,11,,,58,127
19041,note_off,145,0,0,,2,,,74,127
19043,note_on,2,0,0,,5,,,77,127
19188,note_off,145,0,0,,5,,,77,127
19188,note_off,0,0,0,,11,,,58,127
19190,note_on,2,0,0,,11,,,70,127
19190,note_on,0,0,0,,2,,,62,127
19335,note_off,145,0,0,,2,,,62,127
19335,note_off,0,0,0,,11,,,70,127
19336,note_on,1,0,0,,11,,,70,127
19336,note_on,0,0,0,,0,,,60,127
19481,note_off,145,0,0,,11,,,70,127
19483,note_on,2,0,0,,10,,,69,127
19628,note_off,145,0,0,,10,,,69,127
19628,note_off,0,0,0,,0,,,60,127
19630,note_on,2,0,0,,0,,,72,127
19630,note_on,0,0,0,,3,,,63,127
19775,note_off,145,0,0,,3,,,63,127
19775,note_off,0,0,0,,0,,,72,127
19777,note_on,2,0,0,,0,,,72,127
19777,note_on,0,0,0,,2,,,62,127
19922,note_off,145,0,0,,0,,,72,127
19923,note_on,1,0,0,,11,,,70,127
20068,note_off,145,0,0,,11,,,70,127
20069,note_off,1,0,0,,2,,,62,127
20070,note_on,1,0,0,,2,,,74,127
20070,note_on,0,0,0,,11,,,58,127
20215,note_off,145,0,0,,11,,,58,127
20215,note_off,0,0,0,,2,,,74,127
20217,note_on,2,0,0,,2,,,74,127
20217,note_on,0,0,0,,10,,,57,127
20362,note_off,145,0,0,,10,,,57,127
20362,note_off,0,0,0,,2,,,74,127
20363,note_on,1,0,0,,0,,,72,127
20363,note_on,0,0,0,,5,,,53,127
20508,note_off,145,0,0,,5,,,53,127
20508,note_off,0,0,0,,0,,,72,127
20510,note_on,2,0,0,,3,,,75,127
20510,note_on,0,0,0,,10,,,57,127
20655,note_off,145,0,0,,10,,,57,127
20655,note_off,0,0,0,,3,,,75,127
20657,note_on,2,0,0,,2,,,74,127
20657,note_on,0,0,0,,11,,,58,127
20802,note_off,145,0,0,,11,,,58,127
20804,note_on,2,0,0,,2,,,62,127
20949,note_off,145,0,0,,2,,,62,127
20949,note_off,0,0,0,,2,,,74,127
20950,note_on,1,0,0,,5,,,77,127
20950,note_on,0,0,0,,11,,,58,127
21095,note_off,145,0,0,,11,,,58,127
21095,note_off,0,0,0,,5,,,77,127
21097,note_on,2,0,0,,5,,,77,127
21097,note_on,0,0,0,,10,,,57,127
21242,note_off,145,0,0,,5,,,77,127
21244,note_on,2,0,0,,0,,,72,127
21389,note_off,145,0,0,,0,,,72,127
21389,note_off,0,0,0,,10,,,57,127
21390,note_on,1,0,0,,3,,,75,127
21390,note_on,0,0,0,,5,,,53,127
21535,note_off,145,0,0,,5,,,53,127
21535,note_off,0,0,0,,3,,,75,127
21537,note_on,2,0,0,,2,,,74,127
21537,note_on,0,0,0,,11,,,58,127
21682,note_off,145,0,0,,11,,,58,127
21684,note_on,2,0,0,,2,,,62,127
21829,note_off,145,0,0,,2,,,62,127
21829,note_off,0,0,0,,2,,,74,127
21831,note_on,2,0,0,,5,,,77,127
21831,note_on,0,0,0,,11,,,58,127
21976,note_off,145,0,0,,11,,,58,127
21976,note_off,0,0,0,,5,,,77,127
21977,note_on,1,0,0,,5,,,77,127
21977,note_on,0,0,0,,10,,,57,127
22122,note_off,145,0,0,,5,,,77,127
22124,note_on,2,0,0,,0,,,72,127
22269,note_off,145,0,0,,0,,,72,127
22269,note_off,0,0,0,,10,,,57,127
22271,note_on,2,0,0,,3,,,75,127
22271,note_on,0,0,0,,5,,,53,127
22416,note_off,145,0,0,,5,,,53,127
22416,note_off,0,0,0,,3,,,75,127
22417,note_on,1,0,0,,2,,,74,127
22417,note_on,0,0,0,,11,,,46,127
22562,note_off,145,0,0,,11,,,46,127
22564,note_on,2,0,0,,0,,,48,127
22709,note_off,145,0,0,,0,,,48,127
22709,note_off,0,0,0,,2,,,74,127
22711,note_on,2,0,0,,11,,,82,127
22711,note_on,0,0,0,,2,,,50,127
22856,note_off,145,0,0,,2,,,50,127
22856,note_off,0,0,0,,11,,,82,127
22858,note_on,2,0,0,,11,,,82,127
22858,note_on,0,0,0,,3,,,51,127
23003,note_off,145,0,0,,11,,,82,127
23004,note_on,1,0,0,,0,,,72,127
23149,note_off,145,0,0,,0,,,72,127
23150,note_off,1,0,0,,3,,,51,127
23151,note_on,1,0,0,,10,,,81,127
23151,note_on,0,0,0,,5,,,53,127
23296,note_off,145,0,0,,5,,,53,127
23296,note_off,0,0,0,,10,,,81,127
23298,note_on,2,0,0,,10,,,81,127
23298,note_on,0,0,0,,7,,,55,127
23443,note_off,145,0,0,,10,,,81,127
23445,note_on,2,0,0,,11,,,70,127
23590,note_off,145,0,0,,11,,,70,127
23590,note_off,0,0,0,,7,,,55,127
23591,note_on,1,0,0,,7,,,79,127
23591,note_on,0,0,0,,7,,,55,127
23736,note_off,145,0,0,,7,,,55,127
23736,note_off,0,0,0,,7,,,79,127
23738,note_on,2,0,0,,7,,,79,127
23738,note_on,0,0,0,,10,,,57,127
23883,note_off,145,0,0,,7,,,79,127
23885,note_on,2,0,0,,5,,,77,127
24030,note_off,145,0,0,,5,,,77,127
24030,note_off,0,0,0,,10,,,57,127
24031,note_on,1,0,0,,3,,,75,127
24031,note_on,0,0,0,,5,,,53,127
24176,note_off,145,0,0,,5,,,53,127
24176,note_off,0,0,0,,3,,,75,127
24178,note_on,2,0,0,,2,,,74,127
24178,note_on,0,0,0,,11,,,58,127
24323,note_off,145,0,0,,11,,,58,127
24325,note_on,2,0,0,,2,,,62,127
24470,note_off,145,0,0,,2,,,62,127
24470,note_off,0,0,0,,2,,,74,127
24472,note_on,2,0,0,,5,,,77,127
24472,note_on,0,0,0,,11,,,58,127
24617,note_off,145,0,0,,11,,,58,127
24617,note_off,0,0,0,,5,,,77,127
24618,note_on,1,0,0,,5,,,77,127
24618,note_on,0,0,0,,7,,,55,127
24763,note_off,145,0,0,,5,,,77,127
24765,note_on,2,0,0,,4,,,76,127
24910,note_off,145,0,0,,4,,,76,127
24910,note_off,0,0,0,,7,,,55,127
24912,note_on,2,0,0,,7,,,79,127
24912,note_on,0,0,0,,11,,,58,127
25057,note_off,145,0,0,,11,,,58,127
25057,note_off,0,0,0,,7,,,79,127
25058,note_on,1,0,0,,7,,,79,127
25058,note_on,0,0,0,,10,,,57,127
25203,note_off,145,0,0,,7,,,79,127
25205,note_on,2,0,0,,5,,,77,127
25350,note_off,145,0,0,,5,,,77,127
25350,note_off,0,0,0,,10,,,57,127
25352,note_on,2,0,0,,10,,,81,127
25352,note_on,0,0,0,,5,,,53,127
25497,note_off,145,0,0,,5,,,53,127
25497,note_off,0,0,0,,10,,,81,127
25499,note_on,2,0,0,,10,,,81,127
25499,note_on,0,0,0,,4,,,52,127
25644,note_off,145,0,0,,10,,,81,127
25645,note_on,1,0,0,,7,,,79,127
25790,note_off,145,0,0,,7,,,79,127
25791,note_off,1,0,0,,4,,,52,127
25792,note_on,1,0,0,,11,,,82,127
25792,note_on,0,0,0,,0,,,48,127
25937,note_off,145,0,0,,0,,,48,127
25937,note_off,0,0,0,,11,,,82,127
25939,note_on,2,0,0,,10,,,81,127
25939,note_on,0,0,0,,5,,,53,127
26084,note_off,145,0,0,,5,,,53,127
26085,note_on,1,0,0,,10,,,57,127
26208,note_off,123,0,0,,10,,,81,127
26230,note_off,22,0,0,,10,,,57,127
26232,note_on,2,0,0,,0,,,84,127
26232,note_on,0,0,0,,5,,,53,127
26377,note_off,145,0,0,,5,,,53,127
26377,note_off,0,0,0,,0,,,84,127
26379,note_on,2,0,0,,0,,,84,127
26379,note_on,0,0,0,,4,,,52,127
26524,note_off,145,0,0,,0,,,84,127
26526,note_on,2,0,0,,7,,,79,127
26671,note_off,145,0,0,,7,,,79,127
26671,note_off,0,0,0,,4,,,52,127
26672,note_on,1,0,0,,11,,,82,127
26672,note_on,0,0,0,,0,,,48,127
26817,note_off,145,0,0,,0,,,48,127
26817,note_off,0,0,0,,11,,,82,127
26819,note_on,2,0,0,,10,,,81,127
26819,note_on,0,0,0,,5,,,53,127
26964,note_off,145,0,0,,5,,,53,127
26966,note_on,2,0,0,,10,,,57,127
27111,note_off,145,0,0,,10,,,57,127
27111,note_off,0,0,0,,10,,,81,127
27113,note_on,2,0,0,,0,,,84,127
27113,note_on,0,0,0,,5,,,53,127
27258,note_off,145,0,0,,5,,,53,127
27258,note_off,0,0,0,,0,,,84,127
27259,note_on,1,0,0,,0,,,84,127
27259,note_on,0,0,0,,4,,,52,127
27404,note_off,145,0,0,,0,,,84,127
27406,note_on,2,0,0,,7,,,79,127
27551,note_off,145,0,0,,7,,,79,127
27551,note_off,0,0,0,,4,,,52,127
27553,note_on,2,0,0,,11,,,82,127
27553,note_on,0,0,0,,0,,,48,127
27698,note_off,145,0,0,,0,,,48,127
27698,note_off,0,0,0,,11,,,82,127
27699,note_on,1,0,0,,10,,,81,127
27699,note_on,0,0,0,,5,,,53,127
27771,note_off,72,0,0,,10,,,81,127
27773,note_on,2,0,0,,7,,,79,127
27844,note_off,71,0,0,,5,,,53,127
27845,note_off,1,0,0,,7,,,79,127
27846,note_on,1,0,0,,5,,,77,127
27846,note_on,0,0,0,,7,,,55,127
27918,note_off,72,0,0,,5,,,77,127
27919,note_on,1,0,0,,4,,,76,127
27991,note_off,72,0,0,,4,,,76,127
27991,note_off,0,0,0,,7,,,55,127
27993,note_on,2,0,0,,2,,,74,127
27993,note_on,0,0,0,,10,,,57,127
28065,note_off,72,0,0,,2,,,74,127
28066,note_on,1,0,0,,0,,,72,127
28138,note_off,72,0,0,,0,,,72,127
28138,note_off,0,0,0,,10,,,57,127
28140,note_on,2,0,0,,2,,,74,127
28140,note_on,0,0,0,,11,,,58,127
28212,note_off,72,0,0,,2,,,74,127
28213,note_on,1,0,0,,0,,,72,127
28285,note_off,72,0,0,,0,,,72,127
28286,note_on,1,0,0,,11,,,70,127
28358,note_off,72,0,0,,11,,,70,127
28360,note_on,2,0,0,,10,,,69,127
28432,note_off,72,0,0,,10,,,69,127
28432,note_off,0,0,0,,11,,,58,127
28433,note_on,1,0,0,,7,,,67,127
28433,note_on,0,0,0,,11,,,46,127
28505,note_off,72,0,0,,7,,,67,127
28506,note_on,1,0,0,,5,,,65,127
28578,note_off,72,0,0,,5,,,65,127
28578,note_off,0,0,0,,11,,,46,127
28580,note_on,2,0,0,,4,,,64,127
28580,note_on,0,0,0,,0,,,48,127
28725,note_off,145,0,0,,4,,,64,127
28726,note_on,1,0,0,,2,,,74,127
28871,note_off,145,0,0,,2,,,74,127
28873,note_on,2,0,0,,11,,,70,127
28910,note_off,37,0,0,,0,,,48,127
29020,note_on,110,0,0,,4,,,52,127
29165,note_off,145,0,0,,11,,,70,127
29167,note_on,2,0,0,,7,,,79,127
29312,note_off,145,0,0,,7,,,79,127
29313,note_on,1,0,0,,7,,,67,127
29350,note_off,37,0,0,,4,,,52,127
29458,note_off,108,0,0,,7,,,67,127
29460,note_on,2,0,0,,10,,,69,127
29460,note_on,0,0,0,,5,,,53,127
29605,note_off,145,0,0,,10,,,69,127
29607,note_on,2,0,0,,2,,,74,127
29752,note_off,145,0,0,,2,,,74,127
29753,note_on,1,0,0,,11,,,70,127
29790,note_off,37,0,0,,5,,,53,127
29900,note_on,110,0,0,,4,,,52,127
30045,note_off,145,0,0,,11,,,70,127
30047,note_on,2,0,0,,7,,,79,127
30192,note_off,145,0,0,,7,,,79,127
30194,note_on,2,0,0,,7,,,67,127
30230,note_off,36,0,0,,4,,,52,127
30339,note_off,109,0,0,,7,,,67,127
30340,note_on,1,0,0,,10,,,69,127
30340,note_on,0,0,0,,5,,,53,127
30485,note_off,145,0,0,,5,,,53,127
30487,note_on,2,0,0,,7,,,55,127
30617,note_off,130,0,0,,10,,,69,127
30632,note_off,15,0,0,,7,,,55,127
30634,note_on,2,0,0,,5,,,77,127
30634,note_on,0,0,0,,10,,,57,127
30779,note_off,145,0,0,,10,,,57,127
30779,note_off,0,0,0,,5,,,77,127
30781,note_on,2,0,0,,7,,,79,127
30781,note_on,0,0,0,,5,,,77,127
30781,note_on,0,0,0,,11,,,58,127
30926,note_off,145,0,0,,5,,,77,127
30926,note_off,0,0,0,,7,,,79,127
30927,note_on,1,0,0,,4,,,76,127
31072,note_off,145,0,0,,4,,,76,127
31073,note_off,1,0,0,,11,,,58,127
31074,note_on,1,0,0,,5,,,77,127
31074,note_on,0,0,0,,7,,,55,127
31219,note_off,145,0,0,,7,,,55,127
31219,note_off,0,0,0,,5,,,77,127
31221,note_on,2,0,0,,0,,,84,127
31221,note_on,0,0,0,,10,,,57,127
31366,note_off,145,0,0,,10,,,57,127
31366,note_off,0,0,0,,0,,,84,127
31367,note_on,1,0,0,,11,,,82,127
31367,note_on,0,0,0,,7,,,55,127
31512,note_off,145,0,0,,7,,,55,127
31512,note_off,0,0,0,,11,,,82,127
31514,note_on,2,0,0,,10,,,81,127
31514,note_on,0,0,0,,5,,,53,127
31659,note_off,145,0,0,,5,,,53,127
31659,note_off,0,0,0,,10,,,81,127
31661,note_on,2,0,0,,7,,,79,127
31661,note_on,0,0,0,,11,,,58,127
31733,note_off,72,0,0,,7,,,79,127
31734,note_on,1,0,0,,11,,,82,127
31806,note_off,72,0,0,,11,,,82,127
31806,note_off,0,0,0,,11,,,58,127
31808,note_on,2,0,0,,10,,,81,127
31808,note_on,0,0,0,,0,,,60,127
31880,note_off,72,0,0,,10,,,81,127
31881,note_on,1,0,0,,7,,,79,127
31953,note_off,72,0,0,,7,,,79,127
31954,note_on,1,0,0,,5,,,77,127
31954,note_on,0,0,0,,0,,,48,127
32026,note_off,72,0,0,,5,,,77,127
32028,note_on,2,0,0,,4,,,76,127
32099,note_off,71,0,0,,0,,,48,127
32100,note_off,1,0,0,,4,,,76,127
32100,note_off,0,0,0,,0,,,60,127
32101,note_on,1,0,0,,5,,,77,127
32101,note_on,0,0,0,,5,,,53,127
32246,note_off,145,0,0,,5,,,53,127
32248,note_on,2,0,0,,7,,,55,127
32393,note_off,145,0,0,,7,,,55,127
32393,note_off,0,0,0,,5,,,77,127
32394,note_on,1,0,0,,5,,,77,127
32394,note_on,0,0,0,,10,,,57,127
32539,note_off,145,0,0,,10,,,57,127
32539,note_off,0,0,0,,5,,,77,127
32541,note_on,2,0,0,,5,,,77,127
32541,note_on,0,0,0,,7,,,79,127
32541,note_on,0,0,0,,11,,,58,127
32686,note_off,145,0,0,,7,,,79,127
32686,note_off,0,0,0,,5,,,77,127
32688,note_on,2,0,0,,4,,,76,127
32833,note_off,145,0,0,,4,,,76,127
32833,note_off,0,0,0,,11,,,58,127
32835,note_on,2,0,0,,5,,,77,127
32835,note_on,0,0,0,,11,,,58,127
32980,note_off,145,0,0,,11,,,58,127
32980,note_off,0,0,0,,5,,,77,127
32981,note_on,1,0,0,,0,,,84,127
32981,note_on,0,0,0,,10,,,57,127
33126,note_off,145,0,0,,10,,,57,127
33126,note_off,0,0,0,,0,,,84,127
33128,note_on,2,0,0,,11,,,82,127
33128,note_on,0,0,0,,7,,,55,127
33273,note_off,145,0,0,,7,,,55,127
33273,note_off,0,0,0,,11,,,82,127
33275,note_on,2,0,0,,10,,,81,127
33275,note_on,0,0,0,,5,,,53,127
33420,note_off,145,0,0,,5,,,53,127
33420,note_off,0,0,0,,10,,,81,127
33421,note_on,1,0,0,,7,,,79,127
33421,note_on,0,0,0,,11,,,58,127
33493,note_off,72,0,0,,7,,,79,127
33495,note_on,2,0,0,,11,,,82,127
33566,note_off,71,0,0,,11,,,58,127
33567,note_off,1,0,0,,11,,,82,127
33568,note_on,1,0,0,,10,,,81,127
33568,note_on,0,0,0,,0,,,60,127
33640,note_off,72,0,0,,10,,,81,127
33642,note_on,2,0,0,,7,,,79,127
33714,note_off,72,0,0,,7,,,79,127
33715,note_on,1,0,0,,5,,,77,127
33715,note_on,0,0,0,,0,,,48,127
33781,note_on,66,0,0,,4,,,76,127
33787,note_off,6,0,0,,5,,,77,127
33860,note_off,73,0,0,,0,,,48,127
33870,note_off,10,0,0,,0,,,60,127
33873,note_off,3,0,0,,4,,,76,127
33884,note_on,11,0,0,,5,,,53,127
33884,note_on,0,0,0,,5,,,77,127
34236,note_off,352,0,0,,5,,,77,127
34246,note_on,10,0,0,,5,,,77,127
34591,note_off,345,0,0,,5,,,53,127
34597,note_off,6,0,0,,5,,,77,127
34599,note_on,2,0,0,,5,,,77,127
34951,note_off,352,0,0,,5,,,77,127
34955,note_on,4,0,0,,11,,,58,127
34955,note_on,0,0,0,,2,,,74,127
35307,note_off,352,0,0,,2,,,74,127
35307,note_off,0,0,0,,11,,,58,127
35310,note_on,3,0,0,,11,,,58,127
35310,note_on,0,0,0,,5,,,77,127
35662,note_off,352,0,0,,5,,,77,127
35662,note_off,0,0,0,,11,,,58,127
35664,note_on,2,0,0,,3,,,51,127
35664,note_on,0,0,0,,10,,,81,127
35664,note_on,0,0,0,,7,,,79,127
35780,note_off,116,0,0,,7,,,79,127
35780,note_off,0,0,0,,10,,,81,127
35783,note_on,3,0,0,,5,,,77,127
35899,note_off,116,0,0,,5,,,77,127
35901,note_on,2,0,0,,3,,,75,127
36015,note_off,114,0,0,,3,,,51,127
36017,note_off,2,0,0,,3,,,75,127
36019,note_on,2,0,0,,5,,,53,127
36019,note_on,0,0,0,,2,,,74,127
36371,note_off,352,0,0,,2,,,74,127
36371,note_off,0,0,0,,5,,,53,127
36374,note_on,3,0,0,,10,,,57,127
36374,note_on,0,0,0,,0,,,72,127
36726,note_off,352,0,0,,0,,,72,127
36726,note_off,0,0,0,,10,,,57,127
36728,note_on,2,0,0,,11,,,58,127
36728,note_on,0,0,0,,2,,,74,127
37080,note_off,352,0,0,,2,,,74,127
37084,note_on,4,0,0,,2,,,74,127
37436,note_off,352,0,0,,2,,,74,127
37436,note_off,0,0,0,,11,,,58,127
37439,note_on,3,0,0,,2,,,74,127
37791,note_off,352,0,0,,2,,,74,127
37793,note_on,2,0,0,,7,,,55,127
37793,note_on,0,0,0,,11,,,70,127
38145,note_off,352,0,0,,11,,,70,127
38145,note_off,0,0,0,,7,,,55,127
38149,note_on,4,0,0,,7,,,55,127
38149,note_on,0,0,0,,2,,,74,127
38501,note_off,352,0,0,,2,,,74,127
38501,note_off,0,0,0,,7,,,55,127
38504,note_on,3,0,0,,3,,,51,127
38504,note_on,0,0,0,,3,,,75,127
38504,note_on,0,0,0,,5,,,77,127
38620,note_off,116,0,0,,5,,,77,127
38620,note_off,0,0,0,,3,,,75,127
38622,note_on,2,0,0,,2,,,74,127
38738,note_off,116,0,0,,2,,,74,127
38739,note_on,1,0,0,,0,,,72,127
38855,note_off,116,0,0,,0,,,72,127
38855,note_off,0,0,0,,3,,,51,127
38857,note_on,2,0,0,,5,,,53,127
38857,note_on,0,0,0,,11,,,70,127
39209,note_off,352,0,0,,11,,,70,127
39213,note_on,4,0,0,,5,,,41,127
39213,note_on,0,0,0,,10,,,69,127
39565,note_off,352,0,0,,10,,,69,127
39565,note_off,0,0,0,,5,,,41,127
39565,note_off,0,0,0,,5,,,53,127
39568,note_on,3,0,0,,11,,,46,127
39568,note_on,0,0,0,,11,,,70,127
39910,note_off,342,0,0,,11,,,70,127
39916,note_off,6,0,0,,11,,,46,127
39922,note_on,6,0,0,,11,,,58,127
39922,note_on,0,0,0,,2,,,74,127
40038,note_off,116,0,0,,2,,,74,127
40041,note_on,3,0,0,,11,,,70,127
40157,note_off,116,0,0,,11,,,70,127
40159,note_on,2,0,0,,5,,,77,127
40273,note_off,114,0,0,,11,,,58,127
40277,note_on,4,0,0,,10,,,57,127
40277,note_on,0,0,0,,5,,,65,127
40393,note_off,116,0,0,,5,,,77,127
40628,note_off,235,0,0,,10,,,57,127
40631,note_on,3,0,0,,5,,,53,127
40687,note_off,56,0,0,,5,,,65,127
40689,note_on,2,0,0,,3,,,63,127
40746,note_off,57,0,0,,3,,,63,127
40749,note_on,3,0,0,,5,,,65,127
40806,note_off,57,0,0,,5,,,65,127
40808,note_on,2,0,0,,3,,,63,127
40865,note_off,57,0,0,,3,,,63,127
40866,note_on,1,0,0,,2,,,62,127
40923,note_off,57,0,0,,2,,,62,127
40926,note_on,3,0,0,,3,,,63,127
40982,note_off,56,0,0,,5,,,53,127
40983,note_off,1,0,0,,3,,,63,127
40984,note_on,1,0,0,,11,,,58,127
40984,note_on,0,0,0,,2,,,62,127
41336,note_off,352,0,0,,2,,,62,127
41336,note_off,0,0,0,,11,,,58,127
41339,note_on,3,0,0,,11,,,58,127
41339,note_on,0,0,0,,2,,,74,127
41455,note_off,116,0,0,,2,,,74,127
41457,note_on,2,0,0,,11,,,70,127
41573,note_off,116,0,0,,11,,,70,127
41576,note_on,3,0,0,,5,,,77,127
41690,note_off,114,0,0,,11,,,58,127
41694,note_on,4,0,0,,10,,,57,127
41694,note_on,0,0,0,,5,,,65,127
41810,note_off,116,0,0,,5,,,77,127
42045,note_off,235,0,0,,10,,,57,127
42048,note_on,3,0,0,,5,,,53,127
42104,note_off,56,0,0,,5,,,65,127
42107,note_on,3,0,0,,3,,,63,127
42164,note_off,57,0,0,,3,,,63,127
42166,note_on,2,0,0,,5,,,65,127
42223,note_off,57,0,0,,5,,,65,127
42224,note_on,1,0,0,,3,,,63,127
42281,note_off,57,0,0,,3,,,63,127
42284,note_on,3,0,0,,2,,,62,127
42341,note_off,57,0,0,,2,,,62,127
42343,note_on,2,0,0,,3,,,63,127
42399,note_off,56,0,0,,5,,,53,127
42400,note_off,1,0,0,,3,,,63,127
42401,note_on,1,0,0,,11,,,58,127
42401,note_on,0,0,0,,2,,,62,127
42753,note_off,352,0,0,,2,,,62,127
42753,note_off,0,0,0,,11,,,58,127
42757,note_on,4,0,0,,2,,,50,127
42757,note_on,0,0,0,,11,,,70,127
42873,note_off,116,0,0,,11,,,70,127
42875,note_on,2,0,0,,10,,,69,127
42991,note_off,116,0,0,,10,,,69,127
42992,note_on,1,0,0,,2,,,74,127
43108,note_off,116,0,0,,2,,,74,127
43108,note_off,0,0,0,,2,,,50,127
43111,note_on,3,0,0,,3,,,51,127
43111,note_on,0,0,0,,0,,,72,127
43463,note_off,352,0,0,,3,,,51,127
43465,note_on,2,0,0,,7,,,55,127
43522,note_off,57,0,0,,0,,,72,127
43525,note_on,3,0,0,,11,,,70,127
43582,note_off,57,0,0,,11,,,70,127
43583,note_on,1,0,0,,0,,,72,127
43640,note_off,57,0,0,,0,,,72,127
43643,note_on,3,0,0,,11,,,70,127
43700,note_off,57,0,0,,11,,,70,127
43702,note_on,2,0,0,,10,,,69,127
43759,note_off,57,0,0,,10,,,69,127
43760,note_on,1,0,0,,11,,,70,127
43816,note_off,56,0,0,,7,,,55,127
43817,note_off,1,0,0,,11,,,70,127
43820,note_on,3,0,0,,5,,,53,127
43820,note_on,0,0,0,,10,,,69,127
44172,note_off,352,0,0,,10,,,69,127
44172,note_off,0,0,0,,5,,,53,127
44175,note_on,3,0,0,,2,,,50,127
44175,note_on,0,0,0,,11,,,70,127
44291,note_off,116,0,0,,11,,,70,127
44293,note_on,2,0,0,,10,,,69,127
44409,note_off,116,0,0,,10,,,69,127
44411,note_on,2,0,0,,2,,,74,127
44526,note_off,115,0,0,,2,,,50,127
44527,note_off,1,0,0,,2,,,74,127
44528,note_on,1,0,0,,3,,,51,127
44528,note_on,0,0,0,,0,,,72,127
44880,note_off,352,0,0,,3,,,51,127
44884,note_on,4,0,0,,7,,,55,127
44939,note_off,55,0,0,,0,,,72,127
44943,note_on,4,0,0,,11,,,70,127
45000,note_off,57,0,0,,11,,,70,127
45001,note_on,1,0,0,,0,,,72,127
45058,note_off,57,0,0,,0,,,72,127
45061,note_on,3,0,0,,11,,,70,127
45118,note_off,57,0,0,,11,,,70,127
45119,note_on,1,0,0,,10,,,69,127
45176,note_off,57,0,0,,10,,,69,127
45179,note_on,3,0,0,,11,,,70,127
45235,note_off,56,0,0,,7,,,55,127
45236,note_off,1,0,0,,11,,,70,127
45238,note_on,2,0,0,,5,,,53,127
45238,note_on,0,0,0,,10,,,69,127
45503,note_off,265,0,0,,10,,,69,127
45590,note_off,87,0,0,,5,,,53,127
45592,note_on,2,0,0,,2,,,50,127
45592,note_on,0,0,0,,11,,,82,127
45944,note_off,352,0,0,,11,,,82,127
45944,note_off,0,0,0,,2,,,50,127
45948,note_on,4,0,0,,3,,,51,127
45948,note_on,0,0,0,,0,,,72,127
46300,note_off,352,0,0,,3,,,51,127
46303,note_on,3,0,0,,5,,,53,127
46419,note_off,116,0,0,,0,,,72,127
46421,note_on,2,0,0,,2,,,74,127
46537,note_off,116,0,0,,2,,,74,127
46539,note_on,2,0,0,,3,,,75,127
46654,note_off,115,0,0,,5,,,53,127
46655,note_off,1,0,0,,3,,,75,127
46656,note_on,1,0,0,,11,,,58,127
46656,note_on,0,0,0,,2,,,74,127
46772,note_off,116,0,0,,2,,,74,127
46775,note_on,3,0,0,,3,,,75,127
46891,note_off,116,0,0,,3,,,75,127
46893,note_on,2,0,0,,5,,,77,127
47007,note_off,114,0,0,,11,,,58,127
47009,note_off,2,0,0,,5,,,77,127
47011,note_on,2,0,0,,3,,,51,127
47011,note_on,0,0,0,,3,,,75,127
47127,note_off,116,0,0,,3,,,75,127
47128,note_on,1,0,0,,2,,,74,127
47244,note_off,116,0,0,,2,,,74,127
47246,note_on,2,0,0,,0,,,72,127
47362,note_off,116,0,0,,0,,,72,127
47362,note_off,0,0,0,,3,,,51,127
47365,note_on,3,0,0,,5,,,53,127
47365,note_on,0,0,0,,11,,,70,127
47717,note_off,352,0,0,,5,,,53,127
47719,note_on,2,0,0,,5,,,53,127
47776,note_off,57,0,0,,11,,,70,127
47779,note_on,3,0,0,,10,,,69,127
47836,note_off,57,0,0,,10,,,69,127
47838,note_on,2,0,0,,11,,,70,127
47895,note_off,57,0,0,,11,,,70,127
47896,note_on,1,0,0,,10,,,69,127
47953,note_off,57,0,0,,10,,,69,127
47956,note_on,3,0,0,,7,,,67,127
48013,note_off,57,0,0,,7,,,67,127
48014,note_on,1,0,0,,10,,,69,127
48070,note_off,56,0,0,,5,,,53,127
48071,note_off,1,0,0,,10,,,69,127
48074,note_on,3,0,0,,7,,,55,127
48074,note_on,0,0,0,,11,,,70,127
48426,note_off,352,0,0,,7,,,55,127
48429,note_on,3,0,0,,7,,,55,127
48429,note_on,0,0,0,,11,,,82,127
48781,note_off,352,0,0,,11,,,82,127
48781,note_off,0,0,0,,7,,,55,127
48782,note_off,1,0,0,,11,,,70,127
48783,note_on,1,0,0,,10,,,57,127
48783,note_on,0,0,0,,0,,,72,127
49135,note_off,352,0,0,,10,,,57,127
49139,note_on,4,0,0,,5,,,53,127
49254,note_off,115,0,0,,0,,,72,127
49256,note_on,2,0,0,,2,,,74,127
49372,note_off,116,0,0,,2,,,74,127
49375,note_on,3,0,0,,3,,,75,127
49490,note_off,115,0,0,,5,,,53,127
49491,note_off,1,0,0,,3,,,75,127
49493,note_on,2,0,0,,11,,,58,127
49493,note_on,0,0,0,,2,,,74,127
49609,note_off,116,0,0,,2,,,74,127
49611,note_on,2,0,0,,3,,,75,127
49727,note_off,116,0,0,,3,,,75,127
49728,note_on,1,0,0,,5,,,77,127
49844,note_off,116,0,0,,5,,,77,127
49844,note_off,0,0,0,,11,,,58,127
49846,note_on,2,0,0,,3,,,51,127
49846,note_on,0,0,0,,7,,,79,127
49962,note_off,116,0,0,,7,,,79,127
49965,note_on,3,0,0,,3,,,75,127
50081,note_off,116,0,0,,3,,,75,127
50083,note_on,2,0,0,,0,,,72,127
50197,note_off,114,0,0,,3,,,51,127
50199,note_off,2,0,0,,0,,,72,127
50201,note_on,2,0,0,,5,,,53,127
50201,note_on,0,0,0,,11,,,70,127
50576,note_on,375,0,0,,5,,,41,127
50612,note_off,36,0,0,,11,,,70,127
50650,note_on,38,0,0,,10,,,69,127
50720,note_off,70,0,0,,10,,,69,127
50723,note_on,3,0,0,,11,,,70,127
50793,note_off,70,0,0,,11,,,70,127
50796,note_on,3,0,0,,10,,,69,127
50866,note_off,70,0,0,,10,,,69,127
50870,note_on,4,0,0,,7,,,67,127
50909,note_off,39,0,0,,5,,,53,127
50940,note_off,31,0,0,,7,,,67,127
50943,note_on,3,0,0,,10,,,69,127
51013,note_off,70,0,0,,10,,,69,127
51013,note_off,0,0,0,,5,,,41,127
51016,note_on,3,0,0,,11,,,70,127
51016,note_on,0,0,0,,11,,,58,127
51160,note_off,144,0,0,,11,,,70,127
51163,note_on,3,0,0,,5,,,65,127
51306,note_off,143,0,0,,11,,,58,127
51307,note_off,1,0,0,,5,,,65,127
51310,note_on,3,0,0,,11,,,70,127
51310,note_on,0,0,0,,2,,,62,127
51454,note_off,144,0,0,,2,,,62,127
51454,note_off,0,0,0,,11,,,70,127
51457,note_on,3,0,0,,11,,,70,127
51457,note_on,0,0,0,,0,,,72,127
51457,note_on,0,0,0,,0,,,60,127
51601,note_off,144,0,0,,0,,,72,127
51601,note_off,0,0,0,,11,,,70,127
51603,note_on,2,0,0,,10,,,69,127
51747,note_off,144,0,0,,10,,,69,127
51747,note_off,0,0,0,,0,,,60,127
51750,note_on,3,0,0,,0,,,72,127
51750,note_on,0,0,0,,3,,,63,127
51894,note_off,144,0,0,,3,,,63,127
51894,note_off,0,0,0,,0,,,72,127
51897,note_on,3,0,0,,2,,,74,127
51897,note_on,0,0,0,,0,,,72,127
51897,note_on,0,0,0,,2,,,62,127
52041,note_off,144,0,0,,0,,,72,127
52041,note_off,0,0,0,,2,,,74,127
52043,note_on,2,0,0,,11,,,70,127
52187,note_off,144,0,0,,11,,,70,127
52187,note_off,0,0,0,,2,,,62,127
52190,note_on,3,0,0,,2,,,74,127
52190,note_on,0,0,0,,11,,,58,127
52334,note_off,144,0,0,,11,,,58,127
52334,note_off,0,0,0,,2,,,74,127
52337,note_on,3,0,0,,2,,,74,127
52337,note_on,0,0,0,,3,,,75,127
52337,note_on,0,0,0,,10,,,57,127
52481,note_off,144,0,0,,10,,,57,127
52481,note_off,0,0,0,,3,,,75,127
52481,note_off,0,0,0,,2,,,74,127
52484,note_on,3,0,0,,0,,,72,127
52484,note_on,0,0,0,,5,,,53,127
52628,note_off,144,0,0,,5,,,53,127
52628,note_off,0,0,0,,0,,,72,127
52630,note_on,2,0,0,,3,,,75,127
52630,note_on,0,0,0,,10,,,57,127
52774,note_off,144,0,0,,10,,,57,127
52774,note_off,0,0,0,,3,,,75,127
52777,note_on,3,0,0,,2,,,74,127
52777,note_on,0,0,0,,11,,,58,127
52921,note_off,144,0,0,,11,,,58,127
52924,note_on,3,0,0,,8,,,56,127
53067,note_off,143,0,0,,2,,,74,127
53068,note_off,1,0,0,,8,,,56,127
53071,note_on,3,0,0,,3,,,75,127
53071,note_on,0,0,0,,7,,,55,127
53215,note_off,144,0,0,,7,,,55,127
53215,note_off,0,0,0,,3,,,75,127
53217,note_on,2,0,0,,5,,,77,127
53217,note_on,0,0,0,,3,,,75,127
53217,note_on,0,0,0,,5,,,53,127
53361,note_off,144,0,0,,3,,,75,127
53361,note_off,0,0,0,,5,,,77,127
53364,note_on,3,0,0,,2,,,74,127
53507,note_off,143,0,0,,5,,,53,127
53508,note_off,1,0,0,,2,,,74,127
53511,note_on,3,0,0,,5,,,77,127
53511,note_on,0,0,0,,8,,,56,127
53655,note_off,144,0,0,,8,,,56,127
53655,note_off,0,0,0,,5,,,77,127
53657,note_on,2,0,0,,7,,,79,127
53657,note_on,0,0,0,,5,,,77,127
53657,note_on,0,0,0,,7,,,55,127
53801,note_off,144,0,0,,5,,,77,127
53801,note_off,0,0,0,,7,,,79,127
53804,note_on,3,0,0,,3,,,75,127
53947,note_off,143,0,0,,7,,,55,127
53948,note_off,1,0,0,,3,,,75,127
53951,note_on,3,0,0,,7,,,79,127
53951,note_on,0,0,0,,3,,,63,127
54095,note_off,144,0,0,,3,,,63,127
54095,note_off,0,0,0,,7,,,79,127
54098,note_on,3,0,0,,7,,,79,127
54098,note_on,0,0,0,,8,,,80,127
54098,note_on,0,0,0,,2,,,62,127
54242,note_off,144,0,0,,2,,,62,127
54242,note_off,0,0,0,,8,,,80,127
54242,note_off,0,0,0,,7,,,79,127
54244,note_on,2,0,0,,5,,,77,127
54244,note_on,0,0,0,,11,,,58,127
54388,note_off,144,0,0,,11,,,58,127
54388,note_off,0,0,0,,5,,,77,127
54391,note_on,3,0,0,,8,,,80,127
54391,note_on,0,0,0,,2,,,62,127
54535,note_off,144,0,0,,2,,,62,127
54538,note_on,3,0,0,,3,,,63,127
54681,note_off,143,0,0,,8,,,80,127
54684,note_on,3,0,0,,7,,,79,127
54828,note_off,144,0,0,,7,,,79,127
54828,note_off,0,0,0,,3,,,63,127
54831,note_on,3,0,0,,0,,,72,127
54831,note_on,0,0,0,,3,,,63,127
54975,note_off,144,0,0,,3,,,63,127
54975,note_off,0,0,0,,0,,,72,127
54978,note_on,3,0,0,,0,,,72,127
54978,note_on,0,0,0,,2,,,74,127
54978,note_on,0,0,0,,2,,,62,127
55122,note_off,144,0,0,,2,,,74,127
55122,note_off,0,0,0,,0,,,72,127
55125,note_on,3,0,0,,12,,,71,127
55268,note_off,143,0,0,,2,,,62,127
55269,note_off,1,0,0,,12,,,71,127
55271,note_on,2,0,0,,2,,,74,127
55271,note_on,0,0,0,,5,,,65,127
55415,note_off,144,0,0,,5,,,65,127
55415,note_off,0,0,0,,2,,,74,127
55418,note_on,3,0,0,,3,,,75,127
55418,note_on,0,0,0,,2,,,74,127
55418,note_on,0,0,0,,3,,,63,127
55562,note_off,144,0,0,,2,,,74,127
55562,note_off,0,0,0,,3,,,75,127
55565,note_on,3,0,0,,0,,,72,127
55708,note_off,143,0,0,,3,,,63,127
55709,note_off,1,0,0,,0,,,72,127
55711,note_on,2,0,0,,3,,,75,127
55711,note_on,0,0,0,,0,,,60,127
55855,note_off,144,0,0,,0,,,60,127
55855,note_off,0,0,0,,3,,,75,127
55858,note_on,3,0,0,,5,,,77,127
55858,note_on,0,0,0,,3,,,75,127
55858,note_on,0,0,0,,12,,,59,127
56002,note_off,144,0,0,,12,,,59,127
56002,note_off,0,0,0,,3,,,75,127
56002,note_off,0,0,0,,5,,,77,127
56005,note_on,3,0,0,,2,,,74,127
56005,note_on,0,0,0,,7,,,55,127
56149,note_off,144,0,0,,7,,,55,127
56149,note_off,0,0,0,,2,,,74,127
56152,note_on,3,0,0,,5,,,77,127
56152,note_on,0,0,0,,12,,,59,127
56296,note_off,144,0,0,,12,,,59,127
56296,note_off,0,0,0,,5,,,77,127
56298,note_on,2,0,0,,3,,,75,127
56298,note_on,0,0,0,,0,,,60,127
56442,note_off,144,0,0,,0,,,60,127
56445,note_on,3,0,0,,3,,,63,127
56514,note_off,69,0,0,,3,,,75,127
56565,note_off,51,0,0,,3,,,63,127
56599,note_on,34,0,0,,7,,,79,127
56599,note_on,0,0,0,,0,,,60,127
56743,note_off,144,0,0,,0,,,60,127
56746,note_on,3,0,0,,12,,,59,127
56889,note_off,143,0,0,,7,,,79,127
56892,note_on,3,0,0,,2,,,74,127
57036,note_off,144,0,0,,2,,,74,127
57036,note_off,0,0,0,,12,,,59,127
57039,note_on,3,0,0,,5,,,77,127
57039,note_on,0,0,0,,7,,,55,127
57183,note_off,144,0,0,,7,,,55,127
57183,note_off,0,0,0,,5,,,77,127
57186,note_on,3,0,0,,3,,,75,127
57186,note_on,0,0,0,,0,,,60,127
57330,note_off,144,0,0,,0,,,60,127
57332,note_on,2,0,0,,3,,,63,127
57476,note_off,144,0,0,,3,,,63,127
57476,note_off,0,0,0,,3,,,75,127
57479,note_on,3,0,0,,7,,,79,127
57479,note_on,0,0,0,,0,,,60,127
57623,note_off,144,0,0,,0,,,60,127
57626,note_on,3,0,0,,12,,,59,127
57769,note_off,143,0,0,,7,,,79,127
57773,note_on,4,0,0,,2,,,74,127
57916,note_off,143,0,0,,12,,,59,127
57917,note_off,1,0,0,,2,,,74,127
57919,note_on,2,0,0,,5,,,77,127
57919,note_on,0,0,0,,7,,,55,127
58063,note_off,144,0,0,,7,,,55,127
58063,note_off,0,0,0,,5,,,77,127
58066,note_on,3,0,0,,3,,,75,127
58066,note_on,0,0,0,,0,,,60,127
58210,note_off,144,0,0,,0,,,60,127
58213,note_on,3,0,0,,3,,,63,127
58356,note_off,143,0,0,,3,,,75,127
58357,note_off,1,0,0,,3,,,63,127
58359,note_on,2,0,0,,7,,,79,127
58359,note_on,0,0,0,,0,,,60,127
58503,note_off,144,0,0,,0,,,60,127
58503,note_off,0,0,0,,7,,,79,127
58506,note_on,3,0,0,,10,,,81,127
58506,note_on,0,0,0,,7,,,79,127
58506,note_on,0,0,0,,10,,,57,127
58650,note_off,144,0,0,,7,,,79,127
58650,note_off,0,0,0,,10,,,81,127
58653,note_on,3,0,0,,6,,,78,127
58796,note_off,143,0,0,,10,,,57,127
58797,note_off,1,0,0,,6,,,78,127
58800,note_on,3,0,0,,10,,,81,127
58800,note_on,0,0,0,,0,,,60,127
58944,note_off,144,0,0,,0,,,60,127
58944,note_off,0,0,0,,10,,,81,127
58946,note_on,2,0,0,,11,,,82,127
58946,note_on,0,0,0,,10,,,81,127
58946,note_on,0,0,0,,11,,,58,127
59090,note_off,144,0,0,,10,,,81,127
59090,note_off,0,0,0,,11,,,82,127
59093,note_on,3,0,0,,7,,,79,127
59236,note_off,143,0,0,,11,,,58,127
59237,note_off,1,0,0,,7,,,79,127
59240,note_on,3,0,0,,11,,,82,127
59240,note_on,0,0,0,,7,,,67,127
59384,note_off,144,0,0,,7,,,67,127
59384,note_off,0,0,0,,11,,,82,127
59386,note_on,2,0,0,,0,,,84,127
59386,note_on,0,0,0,,11,,,82,127
59386,note_on,0,0,0,,6,,,66,127
59530,note_off,144,0,0,,6,,,66,127
59530,note_off,0,0,0,,11,,,82,127
59530,note_off,0,0,0,,0,,,84,127
59533,note_on,3,0,0,,10,,,81,127
59533,note_on,0,0,0,,2,,,62,127
59677,note_off,144,0,0,,2,,,62,127
59677,note_off,0,0,0,,10,,,81,127
59680,note_on,3,0,0,,0,,,84,127
59680,note_on,0,0,0,,6,,,66,127
59824,note_off,144,0,0,,6,,,66,127
59824,note_off,0,0,0,,0,,,84,127
59827,note_on,3,0,0,,11,,,82,127
59827,note_on,0,0,0,,7,,,67,127
59971,note_off,144,0,0,,7,,,67,127
59973,note_on,2,0,0,,11,,,70,127
60043,note_off,70,0,0,,11,,,82,127
60117,note_off,74,0,0,,11,,,70,127
60120,note_on,3,0,0,,2,,,86,127
60120,note_on,0,0,0,,7,,,67,127
60264,note_off,144,0,0,,7,,,67,127
60267,note_on,3,0,0,,6,,,66,127
60410,note_off,143,0,0,,2,,,86,127
60414,note_on,4,0,0,,10,,,81,127
60557,note_off,143,0,0,,6,,,66,127
60558,note_off,1,0,0,,10,,,81,127
60560,note_on,2,0,0,,0,,,84,127
60560,note_on,0,0,0,,2,,,62,127
60704,note_off,144,0,0,,2,,,62,127
60704,note_off,0,0,0,,0,,,84,127
60707,note_on,3,0,0,,11,,,82,127
60707,note_on,0,0,0,,7,,,67,127
60851,note_off,144,0,0,,7,,,67,127
60854,note_on,3,0,0,,11,,,70,127
60997,note_off,143,0,0,,11,,,82,127
60998,note_off,1,0,0,,11,,,70,127
61000,note_on,2,0,0,,2,,,86,127
61000,note_on,0,0,0,,7,,,67,127
61144,note_off,144,0,0,,7,,,67,127
61147,note_on,3,0,0,,6,,,66,127
61290,note_off,143,0,0,,2,,,86,127
61294,note_on,4,0,0,,10,,,81,127
61437,note_off,143,0,0,,6,,,66,127
61438,note_off,1,0,0,,10,,,81,127
61441,note_on,3,0,0,,0,,,84,127
61441,note_on,0,0,0,,2,,,62,127
61585,note_off,144,0,0,,2,,,62,127
61585,note_off,0,0,0,,0,,,84,127
61587,note_on,2,0,0,,11,,,82,127
61587,note_on,0,0,0,,7,,,67,127
61731,note_off,144,0,0,,11,,,82,127
61734,note_on,3,0,0,,2,,,86,127
61878,note_off,144,0,0,,2,,,86,127
61881,note_on,3,0,0,,11,,,82,127
62024,note_off,143,0,0,,7,,,67,127
62027,note_on,3,0,0,,7,,,55,127
62098,note_off,71,0,0,,11,,,82,127
62101,note_on,3,0,0,,10,,,81,127
62171,note_off,70,0,0,,10,,,81,127
62174,note_on,3,0,0,,7,,,79,127
62244,note_off,70,0,0,,7,,,79,127
62248,note_on,4,0,0,,5,,,77,127
62318,note_off,70,0,0,,5,,,77,127
62321,note_on,3,0,0,,3,,,75,127
62391,note_off,70,0,0,,3,,,75,127
62394,note_on,3,0,0,,2,,,74,127
62464,note_off,70,0,0,,2,,,74,127
62464,note_off,0,0,0,,7,,,55,127
62468,note_on,4,0,0,,0,,,72,127
62468,note_on,0,0,0,,10,,,57,127
62612,note_off,144,0,0,,0,,,72,127
62614,note_on,2,0,0,,0,,,84,127
62758,note_off,144,0,0,,0,,,84,127
62761,note_on,3,0,0,,10,,,81,127
62905,note_off,144,0,0,,10,,,57,127
62908,note_on,3,0,0,,2,,,50,127
62978,note_off,70,0,0,,10,,,81,127
62981,note_on,3,0,0,,7,,,79,127
63051,note_off,70,0,0,,7,,,79,127
63054,note_on,3,0,0,,6,,,78,127
63124,note_off,70,0,0,,6,,,78,127
63128,note_on,4,0,0,,4,,,76,127
63198,note_off,70,0,0,,4,,,76,127
63201,note_on,3,0,0,,2,,,74,127
63271,note_off,70,0,0,,2,,,74,127
63275,note_on,4,0,0,,0,,,72,127
63345,note_off,70,0,0,,0,,,72,127
63345,note_off,0,0,0,,2,,,50,127
63348,note_on,3,0,0,,11,,,70,127
63348,note_on,0,0,0,,7,,,55,127
63492,note_off,144,0,0,,7,,,55,127
63495,note_on,3,0,0,,11,,,58,127
63638,note_off,143,0,0,,11,,,70,127
63639,note_off,1,0,0,,11,,,58,127
63641,note_on,2,0,0,,7,,,79,127
63641,note_on,0,0,0,,7,,,55,127
63785,note_off,144,0,0,,7,,,55,127
63785,note_off,0,0,0,,7,,,79,127
63788,note_on,3,0,0,,7,,,79,127
63788,note_on,0,0,0,,3,,,51,127
63932,note_off,144,0,0,,7,,,79,127
63935,note_on,3,0,0,,0,,,72,127
64079,note_off,144,0,0,,0,,,72,127
64082,note_on,3,0,0,,7,,,79,127
64225,note_off,143,0,0,,3,,,51,127
64226,note_off,1,0,0,,7,,,79,127
64228,note_on,2,0,0,,7,,,79,127
64228,note_on,0,0,0,,2,,,50,127
64372,note_off,144,0,0,,7,,,79,127
64375,note_on,3,0,0,,11,,,70,127
64519,note_off,144,0,0,,11,,,70,127
64522,note_on,3,0,0,,7,,,79,127
64665,note_off,143,0,0,,2,,,50,127
64666,note_off,1,0,0,,7,,,79,127
64668,note_on,2,0,0,,7,,,79,127
64668,note_on,0,0,0,,0,,,48,127
64812,note_off,144,0,0,,7,,,79,127
64815,note_on,3,0,0,,10,,,69,127
64959,note_off,144,0,0,,10,,,69,127
64962,note_on,3,0,0,,7,,,79,127
65105,note_off,143,0,0,,0,,,48,127
65106,note_off,1,0,0,,7,,,79,127
65109,note_on,3,0,0,,7,,,79,127
65109,note_on,0,0,0,,11,,,46,127
65255,note_on,146,0,0,,7,,,67,127
65399,note_off,144,0,0,,7,,,67,127
65399,note_off,0,0,0,,7,,,79,127
65402,note_on,3,0,0,,7,,,79,127
65546,note_off,144,0,0,,11,,,46,127
65549,note_on,3,0,0,,10,,,45,127
65619,note_off,70,0,0,,7,,,79,127
65622,note_on,3,0,0,,5,,,77,127
65692,note_off,70,0,0,,5,,,77,127
65695,note_on,3,0,0,,4,,,76,127
65765,note_off,70,0,0,,4,,,76,127
65769,note_on,4,0,0,,2,,,74,127
65839,note_off,70,0,0,,2,,,74,127
65842,note_on,3,0,0,,1,,,73,127
65912,note_off,70,0,0,,1,,,73,127
65916,note_on,4,0,0,,7,,,79,127
65986,note_off,70,0,0,,7,,,79,127
65986,note_off,0,0,0,,10,,,45,127
65989,note_on,3,0,0,,5,,,77,127
65989,note_on,0,0,0,,2,,,50,127
66133,note_off,144,0,0,,5,,,77,127
66136,note_on,3,0,0,,10,,,81,127
66280,note_off,144,0,0,,10,,,81,127
66282,note_on,2,0,0,,5,,,77,127
66426,note_off,144,0,0,,2,,,50,127
66429,note_on,3,0,0,,7,,,43,127
66499,note_off,70,0,0,,5,,,77,127
66502,note_on,3,0,0,,3,,,75,127
66572,note_off,70,0,0,,3,,,75,127
66576,note_on,4,0,0,,2,,,74,127
66646,note_off,70,0,0,,2,,,74,127
66649,note_on,3,0,0,,0,,,72,127
66719,note_off,70,0,0,,0,,,72,127
66722,note_on,3,0,0,,12,,,71,127
66792,note_off,70,0,0,,12,,,71,127
66796,note_on,4,0,0,,5,,,77,127
66866,note_off,70,0,0,,5,,,77,127
66866,note_off,0,0,0,,7,,,43,127
66869,note_on,3,0,0,,3,,,75,127
66869,note_on,0,0,0,,0,,,48,127
67013,note_off,144,0,0,,3,,,75,127
67016,note_on,3,0,0,,7,,,79,127
67160,note_off,144,0,0,,7,,,79,127
67163,note_on,3,0,0,,3,,,75,127
67306,note_off,143,0,0,,0,,,48,127
67309,note_on,3,0,0,,5,,,41,127
67380,note_off,71,0,0,,3,,,75,127
67383,note_on,3,0,0,,2,,,74,127
67453,note_off,70,0,0,,2,,,74,127
67456,note_on,3,0,0,,0,,,72,127
67526,note_off,70,0,0,,0,,,72,127
67529,note_on,3,0,0,,11,,,70,127
67599,note_off,70,0,0,,11,,,70,127
67603,note_on,4,0,0,,10,,,69,127
67673,note_off,70,0,0,,10,,,69,127
67676,note_on,3,0,0,,3,,,75,127
67746,note_off,70,0,0,,3,,,75,127
67746,note_off,0,0,0,,5,,,41,127
67750,note_on,4,0,0,,2,,,74,127
67750,note_on,0,0,0,,11,,,58,127
67894,note_off,144,0,0,,11,,,58,127
67896,note_on,2,0,0,,2,,,62,127
67966,note_off,70,0,0,,2,,,74,127
68040,note_off,74,0,0,,2,,,62,127
68043,note_on,3,0,0,,5,,,77,127
68043,note_on,0,0,0,,11,,,58,127
68187,note_off,144,0,0,,11,,,58,127
68190,note_on,3,0,0,,10,,,57,127
68333,note_off,143,0,0,,5,,,77,127
68336,note_on,3,0,0,,0,,,72,127
68480,note_off,144,0,0,,0,,,72,127
68480,note_off,0,0,0,,10,,,57,127
68483,note_on,3,0,0,,3,,,75,127
68483,note_on,0,0,0,,5,,,53,127
68627,note_off,144,0,0,,5,,,53,127
68627,note_off,0,0,0,,3,,,75,127
68630,note_on,3,0,0,,2,,,74,127
68630,note_on,0,0,0,,11,,,58,127
68774,note_off,144,0,0,,11,,,58,127
68777,note_on,3,0,0,,2,,,62,127
68846,note_off,69,0,0,,2,,,74,127
68921,note_off,75,0,0,,2,,,62,127
68923,note_on,2,0,0,,5,,,77,127
68923,note_on,0,0,0,,11,,,58,127
69067,note_off,144,0,0,,11,,,58,127
69070,note_on,3,0,0,,10,,,57,127
69213,note_off,143,0,0,,5,,,77,127
69217,note_on,4,0,0,,0,,,72,127
69360,note_off,143,0,0,,10,,,57,127
69361,note_off,1,0,0,,0,,,72,127
69363,note_on,2,0,0,,3,,,75,127
69363,note_on,0,0,0,,5,,,53,127
69507,note_off,144,0,0,,5,,,53,127
69507,note_off,0,0,0,,3,,,75,127
69510,note_on,3,0,0,,2,,,74,127
69510,note_on,0,0,0,,11,,,58,127
69654,note_off,144,0,0,,2,,,74,127
69657,note_on,3,0,0,,7,,,79,127
69801,note_off,144,0,0,,7,,,79,127
69804,note_on,3,0,0,,3,,,75,127
69926,note_off,122,0,0,,11,,,58,127
69950,note_on,24,0,0,,10,,,57,127
70094,note_off,144,0,0,,3,,,75,127
70097,note_on,3,0,0,,0,,,84,127
70244,note_on,147,0,0,,0,,,72,127
70366,note_off,122,0,0,,10,,,57,127
70387,note_off,21,0,0,,0,,,84,127
70388,note_off,1,0,0,,0,,,72,127
70390,note_on,2,0,0,,2,,,74,127
70390,note_on,0,0,0,,11,,,58,127
70534,note_off,144,0,0,,2,,,74,127
70537,note_on,3,0,0,,7,,,79,127
70681,note_off,144,0,0,,7,,,79,127
70684,note_on,3,0,0,,3,,,75,127
70806,note_off,122,0,0,,11,,,58,127
70831,note_on,25,0,0,,10,,,57,127
70974,note_off,143,0,0,,3,,,75,127
70977,note_on,3,0,0,,0,,,84,127
71124,note_on,147,0,0,,0,,,72,127
71247,note_off,123,0,0,,10,,,57,127
71267,note_off,20,0,0,,0,,,84,127
71268,note_off,1,0,0,,0,,,72,127
71271,note_on,3,0,0,,2,,,74,127
71271,note_on,0,0,0,,11,,,58,127
71415,note_off,144,0,0,,2,,,74,127
71418,note_on,3,0,0,,2,,,86,127
71488,note_off,70,0,0,,2,,,86,127
71491,note_on,3,0,0,,0,,,84,127
71561,note_off,70,0,0,,0,,,84,127
71564,note_on,3,0,0,,11,,,82,127
71634,note_off,70,0,0,,11,,,82,127
71638,note_on,4,0,0,,10,,,81,127
71708,note_off,70,0,0,,10,,,81,127
71708,note_off,0,0,0,,11,,,58,127
71711,note_on,3,0,0,,7,,,79,127
71711,note_on,0,0,0,,3,,,51,127
71781,note_off,70,0,0,,7,,,79,127
71784,note_on,3,0,0,,5,,,77,127
71854,note_off,70,0,0,,5,,,77,127
71858,note_on,4,0,0,,3,,,75,127
71928,note_off,70,0,0,,3,,,75,127
71931,note_on,3,0,0,,2,,,74,127
72001,note_off,70,0,0,,2,,,74,127
72001,note_off,0,0,0,,3,,,51,127
72004,note_on,3,0,0,,0,,,72,127
72004,note_on,0,0,0,,3,,,63,127
72074,note_off,70,0,0,,0,,,72,127
72078,note_on,4,0,0,,11,,,70,127
72148,note_off,70,0,0,,11,,,70,127
72151,note_on,3,0,0,,10,,,69,127
72294,note_off,143,0,0,,3,,,63,127
72295,note_off,1,0,0,,10,,,69,127
72298,note_on,3,0,0,,11,,,70,127
72298,note_on,0,0,0,,2,,,62,127
72442,note_off,144,0,0,,2,,,62,127
72442,note_off,0,0,0,,11,,,70,127
72445,note_on,3,0,0,,0,,,72,127
72445,note_on,0,0,0,,0,,,60,127
72589,note_off,144,0,0,,0,,,60,127
72589,note_off,0,0,0,,0,,,72,127
72591,note_on,2,0,0,,2,,,74,127
72591,note_on,0,0,0,,11,,,58,127
72735,note_off,144,0,0,,11,,,58,127
72735,note_off,0,0,0,,2,,,74,127
72738,note_on,3,0,0,,3,,,75,127
72738,note_on,0,0,0,,10,,,57,127
72882,note_off,144,0,0,,10,,,57,127
72882,note_off,0,0,0,,3,,,75,127
72885,note_on,3,0,0,,2,,,74,127
72885,note_on,0,0,0,,11,,,58,127
73029,note_off,144,0,0,,11,,,58,127
73029,note_off,0,0,0,,2,,,74,127
73031,note_on,2,0,0,,0,,,72,127
73031,note_on,0,0,0,,5,,,53,127
73175,note_off,144,0,0,,5,,,53,127
73175,note_off,0,0,0,,0,,,72,127
73178,note_on,3,0,0,,11,,,70,127
73178,note_on,0,0,0,,2,,,62,127
73322,note_off,144,0,0,,2,,,62,127
73322,note_off,0,0,0,,11,,,70,127
73325,note_on,3,0,0,,0,,,72,127
73325,note_on,0,0,0,,0,,,60,127
73469,note_off,144,0,0,,0,,,60,127
73469,note_off,0,0,0,,0,,,72,127
73472,note_on,3,0,0,,2,,,74,127
73472,note_on,0,0,0,,11,,,58,127
73616,note_off,144,0,0,,11,,,58,127
73616,note_off,0,0,0,,2,,,74,127
73618,note_on,2,0,0,,3,,,75,127
73618,note_on,0,0,0,,10,,,57,127
73762,note_off,144,0,0,,10,,,57,127
73762,note_off,0,0,0,,3,,,75,127
73765,note_on,3,0,0,,2,,,74,127
73765,note_on,0,0,0,,11,,,58,127
73909,note_off,144,0,0,,11,,,58,127
73909,note_off,0,0,0,,2,,,74,127
73912,note_on,3,0,0,,0,,,72,127
73912,note_on,0,0,0,,5,,,53,127
74056,note_off,144,0,0,,5,,,53,127
74056,note_off,0,0,0,,0,,,72,127
74058,note_on,2,0,0,,5,,,77,127
74058,note_on,0,0,0,,5,,,65,127
74202,note_off,144,0,0,,5,,,65,127
74202,note_off,0,0,0,,5,,,77,127
74205,note_on,3,0,0,,10,,,69,127
74205,note_on,0,0,0,,3,,,63,127
74349,note_off,144,0,0,,3,,,63,127
74349,note_off,0,0,0,,10,,,69,127
74352,note_on,3,0,0,,11,,,70,127
74352,note_on,0,0,0,,2,,,62,127
74496,note_off,144,0,0,,2,,,62,127
74496,note_off,0,0,0,,11,,,70,127
74499,note_on,3,0,0,,10,,,69,127
74499,note_on,0,0,0,,0,,,60,127
74643,note_off,144,0,0,,0,,,60,127
74643,note_off,0,0,0,,10,,,69,127
74645,note_on,2,0,0,,11,,,70,127
74645,note_on,0,0,0,,11,,,58,127
74789,note_off,144,0,0,,11,,,58,127
74789,note_off,0,0,0,,11,,,70,127
74792,note_on,3,0,0,,0,,,72,127
74792,note_on,0,0,0,,5,,,41,127
74936,note_off,144,0,0,,5,,,41,127
74936,note_off,0,0,0,,0,,,72,127
74939,note_on,3,0,0,,5,,,77,127
74939,note_on,0,0,0,,5,,,53,127
75083,note_off,144,0,0,,5,,,53,127
75083,note_off,0,0,0,,5,,,77,127
75086,note_on,3,0,0,,10,,,69,127
75086,note_on,0,0,0,,3,,,51,127
75230,note_off,144,0,0,,3,,,51,127
75230,note_off,0,0,0,,10,,,69,127
75232,note_on,2,0,0,,11,,,70,127
75232,note_on,0,0,0,,2,,,50,127
75376,note_off,144,0,0,,2,,,50,127
75376,note_off,0,0,0,,11,,,70,127
75379,note_on,3,0,0,,10,,,69,127
75379,note_on,0,0,0,,0,,,48,127
75523,note_off,144,0,0,,0,,,48,127
75523,note_off,0,0,0,,10,,,69,127
75526,note_on,3,0,0,,11,,,70,127
75526,note_on,0,0,0,,11,,,46,127
75670,note_off,144,0,0,,11,,,46,127
75670,note_off,0,0,0,,11,,,70,127
75688,note_on,18,0,0,,5,,,53,127
75688,note_on,0,0,0,,0,,,72,127
76038,note_off,350,0,0,,0,,,72,127
76050,note_on,12,0,0,,5,,,77,127
76394,note_off,344,0,0,,5,,,53,127
76400,note_off,6,0,0,,5,,,77,127
76403,note_on,3,0,0,,5,,,77,127
76754,note_off,351,0,0,,5,,,77,127
76758,note_on,4,0,0,,11,,,58,127
76758,note_on,0,0,0,,2,,,74,127
77109,note_off,351,0,0,,2,,,74,127
77109,note_off,0,0,0,,11,,,58,127
77114,note_on,5,0,0,,11,,,58,127
77114,note_on,0,0,0,,5,,,77,127
77465,note_off,351,0,0,,5,,,77,127
77465,note_off,0,0,0,,11,,,58,127
77468,note_on,3,0,0,,3,,,51,127
77468,note_on,0,0,0,,7,,,79,127
77468,note_on,0,0,0,,10,,,81,127
77583,note_off,115,0,0,,10,,,81,127
77583,note_off,0,0,0,,7,,,79,127
77587,note_on,4,0,0,,5,,,77,127
77702,note_off,115,0,0,,5,,,77,127
77705,note_on,3,0,0,,3,,,75,127
77819,note_off,114,0,0,,3,,,51,127
77821,note_off,2,0,0,,3,,,75,127
77823,note_on,2,0,0,,5,,,53,127
77823,note_on,0,0,0,,2,,,74,127
78174,note_off,351,0,0,,2,,,74,127
78174,note_off,0,0,0,,5,,,53,127
78179,note_on,5,0,0,,10,,,57,127
78179,note_on,0,0,0,,0,,,72,127
78530,note_off,351,0,0,,0,,,72,127
78530,note_off,0,0,0,,10,,,57,127
78533,note_on,3,0,0,,11,,,58,127
78533,note_on,0,0,0,,2,,,74,127
78884,note_off,351,0,0,,2,,,74,127
78888,note_on,4,0,0,,2,,,74,127
79239,note_off,351,0,0,,2,,,74,127
79240,note_off,1,0,0,,11,,,58,127
79244,note_on,4,0,0,,2,,,74,127
79595,note_off,351,0,0,,2,,,74,127
79598,note_on,3,0,0,,7,,,55,127
79598,note_on,0,0,0,,11,,,70,127
79949,note_off,351,0,0,,11,,,70,127
79949,note_off,0,0,0,,7,,,55,127
79953,note_on,4,0,0,,7,,,55,127
79953,note_on,0,0,0,,2,,,74,127
80304,note_off,351,0,0,,2,,,74,127
80304,note_off,0,0,0,,7,,,55,127
80309,note_on,5,0,0,,3,,,51,127
80309,note_on,0,0,0,,5,,,77,127
80309,note_on,0,0,0,,3,,,75,127
80424,note_off,115,0,0,,3,,,75,127
80424,note_off,0,0,0,,5,,,77,127
80426,note_on,2,0,0,,2,,,74,127
80541,note_off,115,0,0,,2,,,74,127
80544,note_on,3,0,0,,0,,,72,127
80659,note_off,115,0,0,,0,,,72,127
80659,note_off,0,0,0,,3,,,51,127
80662,note_on,3,0,0,,5,,,53,127
80662,note_on,0,0,0,,11,,,70,127
81016,note_on,354,0,0,,5,,,41,127
81070,note_off,54,0,0,,11,,,70,127
81076,note_on,6,0,0,,10,,,69,127
81133,note_off,57,0,0,,10,,,69,127
81134,note_on,1,0,0,,11,,,70,127
81191,note_off,57,0,0,,11,,,70,127
81194,note_on,3,0,0,,10,,,69,127
81251,note_off,57,0,0,,10,,,69,127
81253,note_on,2,0,0,,7,,,67,127
81310,note_off,57,0,0,,7,,,67,127
81311,note_on,1,0,0,,10,,,69,127
81366,note_off,55,0,0,,5,,,41,127
81367,note_off,1,0,0,,5,,,53,127
81368,note_off,1,0,0,,10,,,69,127
81371,note_on,3,0,0,,11,,,46,127
81371,note_on,0,0,0,,11,,,70,127
81722,note_off,351,0,0,,11,,,70,127
81722,note_off,0,0,0,,11,,,46,127
81725,note_on,3,0,0,,11,,,58,127
81725,note_on,0,0,0,,2,,,74,127
81840,note_off,115,0,0,,2,,,74,127
81844,note_on,4,0,0,,11,,,70,127
81959,note_off,115,0,0,,11,,,70,127
81962,note_on,3,0,0,,5,,,77,127
82076,note_off,114,0,0,,11,,,58,127
82080,note_on,4,0,0,,10,,,57,127
82080,note_on,0,0,0,,5,,,65,127
82195,note_off,115,0,0,,5,,,77,127
82430,note_off,235,0,0,,10,,,57,127
82435,note_on,5,0,0,,5,,,53,127
82489,note_off,54,0,0,,5,,,65,127
82494,note_on,5,0,0,,3,,,63,127
82551,note_off,57,0,0,,3,,,63,127
82553,note_on,2,0,0,,5,,,65,127
82610,note_off,57,0,0,,5,,,65,127
82613,note_on,3,0,0,,3,,,63,127
82670,note_off,57,0,0,,3,,,63,127
82671,note_on,1,0,0,,2,,,62,127
82728,note_off,57,0,0,,2,,,62,127
82731,note_on,3,0,0,,3,,,63,127
82786,note_off,55,0,0,,5,,,53,127
82788,note_off,2,0,0,,3,,,63,127
82789,note_on,1,0,0,,11,,,58,127
82789,note_on,0,0,0,,2,,,62,127
83140,note_off,351,0,0,,2,,,62,127
83140,note_off,0,0,0,,11,,,58,127
83144,note_on,4,0,0,,11,,,58,127
83144,note_on,0,0,0,,2,,,74,127
83259,note_off,115,0,0,,2,,,74,127
83262,note_on,3,0,0,,11,,,70,127
83377,note_off,115,0,0,,11,,,70,127
83381,note_on,4,0,0,,5,,,77,127
83495,note_off,114,0,0,,11,,,58,127
83500,note_on,5,0,0,,10,,,57,127
83500,note_on,0,0,0,,5,,,65,127
83614,note_off,114,0,0,,5,,,77,127
83850,note_off,236,0,0,,10,,,57,127
83854,note_on,4,0,0,,5,,,53,127
83908,note_off,54,0,0,,5,,,65,127
83912,note_on,4,0,0,,3,,,63,127
83969,note_off,57,0,0,,3,,,63,127
83972,note_on,3,0,0,,5,,,65,127
84029,note_off,57,0,0,,5,,,65,127
84030,note_on,1,0,0,,3,,,63,127
84087,note_off,57,0,0,,3,,,63,127
84089,note_on,2,0,0,,2,,,62,127
84146,note_off,57,0,0,,2,,,62,127
84149,note_on,3,0,0,,3,,,63,127
84204,note_off,55,0,0,,5,,,53,127
84206,note_off,2,0,0,,3,,,63,127
84207,note_on,1,0,0,,11,,,58,127
84207,note_on,0,0,0,,2,,,62,127
84558,note_off,351,0,0,,2,,,62,127
84558,note_off,0,0,0,,11,,,58,127
84563,note_on,5,0,0,,2,,,50,127
84563,note_on,0,0,0,,11,,,70,127
84678,note_off,115,0,0,,11,,,70,127
84680,note_on,2,0,0,,10,,,69,127
84795,note_off,115,0,0,,10,,,69,127
84798,note_on,3,0,0,,2,,,74,127
84913,note_off,115,0,0,,2,,,74,127
84913,note_off,0,0,0,,2,,,50,127
84917,note_on,4,0,0,,3,,,51,127
84917,note_on,0,0,0,,0,,,72,127
85268,note_off,351,0,0,,3,,,51,127
85271,note_on,3,0,0,,7,,,55,127
85326,note_off,55,0,0,,0,,,72,127
85331,note_on,5,0,0,,11,,,70,127
85388,note_off,57,0,0,,11,,,70,127
85389,note_on,1,0,0,,0,,,72,127
85446,note_off,57,0,0,,0,,,72,127
85448,note_on,2,0,0,,11,,,70,127
85505,note_off,57,0,0,,11,,,70,127
85508,note_on,3,0,0,,10,,,69,127
85565,note_off,57,0,0,,10,,,69,127
85566,note_on,1,0,0,,11,,,70,127
85621,note_off,55,0,0,,7,,,55,127
85623,note_off,2,0,0,,11,,,70,127
85626,note_on,3,0,0,,5,,,53,127
85626,note_on,0,0,0,,10,,,69,127
85977,note_off,351,0,0,,10,,,69,127
85977,note_off,0,0,0,,5,,,53,127
85981,note_on,4,0,0,,2,,,50,127
85981,note_on,0,0,0,,11,,,70,127
86096,note_off,115,0,0,,11,,,70,127
86099,note_on,3,0,0,,10,,,69,127
86214,note_off,115,0,0,,10,,,69,127
86216,note_on,2,0,0,,2,,,74,127
86331,note_off,115,0,0,,2,,,74,127
86331,note_off,0,0,0,,2,,,50,127
86334,note_on,3,0,0,,3,,,51,127
86334,note_on,0,0,0,,0,,,72,127
86685,note_off,351,0,0,,3,,,51,127
86690,note_on,5,0,0,,7,,,55,127
86744,note_off,54,0,0,,0,,,72,127
86750,note_on,6,0,0,,11,,,70,127
86807,note_off,57,0,0,,11,,,70,127
86808,note_on,1,0,0,,0,,,72,127
86865,note_off,57,0,0,,0,,,72,127
86868,note_on,3,0,0,,11,,,70,127
86925,note_off,57,0,0,,11,,,70,127
86926,note_on,1,0,0,,10,,,69,127
86983,note_off,57,0,0,,10,,,69,127
86985,note_on,2,0,0,,11,,,70,127
87041,note_off,56,0,0,,7,,,55,127
87042,note_off,1,0,0,,11,,,70,127
87045,note_on,3,0,0,,5,,,53,127
87045,note_on,0,0,0,,10,,,69,127
87309,note_off,264,0,0,,10,,,69,127
87396,note_off,87,0,0,,5,,,53,127
87399,note_on,3,0,0,,2,,,50,127
87399,note_on,0,0,0,,11,,,82,127
87750,note_off,351,0,0,,11,,,82,127
87750,note_off,0,0,0,,2,,,50,127
87754,note_on,4,0,0,,3,,,51,127
87754,note_on,0,0,0,,0,,,72,127
88105,note_off,351,0,0,,3,,,51,127
88110,note_on,5,0,0,,5,,,53,127
88224,note_off,114,0,0,,0,,,72,127
88228,note_on,4,0,0,,2,,,74,127
88343,note_off,115,0,0,,2,,,74,127
88345,note_on,2,0,0,,3,,,75,127
88460,note_off,115,0,0,,3,,,75,127
88460,note_off,0,0,0,,5,,,53,127
88463,note_on,3,0,0,,11,,,58,127
88463,note_on,0,0,0,,2,,,74,127
88578,note_off,115,0,0,,2,,,74,127
88582,note_on,4,0,0,,3,,,75,127
88697,note_off,115,0,0,,3,,,75,127
88700,note_on,3,0,0,,5,,,77,127
88814,note_off,114,0,0,,11,,,58,127
88816,note_off,2,0,0,,5,,,77,127
88818,note_on,2,0,0,,3,,,51,127
88818,note_on,0,0,0,,3,,,75,127
88933,note_off,115,0,0,,3,,,75,127
88936,note_on,3,0,0,,2,,,74,127
89051,note_off,115,0,0,,2,,,74,127
89054,note_on,3,0,0,,0,,,72,127
89168,note_off,114,0,0,,3,,,51,127
89169,note_off,1,0,0,,0,,,72,127
89173,note_on,4,0,0,,5,,,53,127
89173,note_on,0,0,0,,11,,,70,127
89524,note_off,351,0,0,,5,,,53,127
89527,note_on,3,0,0,,5,,,53,127
89582,note_off,55,0,0,,11,,,70,127
89586,note_on,4,0,0,,10,,,69,127
89643,note_off,57,0,0,,10,,,69,127
89646,note_on,3,0,0,,11,,,70,127
89703,note_off,57,0,0,,11,,,70,127
89704,note_on,1,0,0,,10,,,69,127
89761,note_off,57,0,0,,10,,,69,127
89764,note_on,3,0,0,,7,,,67,127
89821,note_off,57,0,0,,7,,,67,127
89822,note_on,1,0,0,,10,,,69,127
89877,note_off,55,0,0,,5,,,53,127
89879,note_off,2,0,0,,10,,,69,127
89881,note_on,2,0,0,,7,,,55,127
89881,note_on,0,0,0,,11,,,70,127
90232,note_off,351,0,0,,7,,,55,127
90237,note_on,5,0,0,,7,,,55,127
90237,note_on,0,0,0,,11,,,82,127
90588,note_off,351,0,0,,11,,,82,127
90588,note_off,0,0,0,,7,,,55,127
90588,note_off,0,0,0,,11,,,70,127
90591,note_on,3,0,0,,10,,,57,127
90591,note_on,0,0,0,,0,,,72,127
90942,note_off,351,0,0,,10,,,57,127
90946,note_on,4,0,0,,5,,,53,127
91061,note_off,115,0,0,,0,,,72,127
91064,note_on,3,0,0,,2,,,74,127
91179,note_off,115,0,0,,2,,,74,127
91183,note_on,4,0,0,,3,,,75,127
91297,note_off,114,0,0,,5,,,53,127
91299,note_off,2,0,0,,3,,,75,127
91302,note_on,3,0,0,,11,,,58,127
91302,note_on,0,0,0,,2,,,74,127
91417,note_off,115,0,0,,2,,,74,127
91419,note_on,2,0,0,,3,,,75,127
91534,note_off,115,0,0,,3,,,75,127
91537,note_on,3,0,0,,5,,,77,127
91652,note_off,115,0,0,,5,,,77,127
91652,note_off,0,0,0,,11,,,58,127
91655,note_on,3,0,0,,3,,,51,127
91655,note_on,0,0,0,,7,,,79,127
91770,note_off,115,0,0,,7,,,79,127
91774,note_on,4,0,0,,3,,,75,127
91889,note_off,115,0,0,,3,,,75,127
91892,note_on,3,0,0,,0,,,72,127
92006,note_off,114,0,0,,3,,,51,127
92008,note_off,2,0,0,,0,,,72,127
92010,note_on,2,0,0,,5,,,53,127
92010,note_on,0,0,0,,11,,,70,127
92365,note_on,355,0,0,,5,,,41,127
92419,note_off,54,0,0,,11,,,70,127
92424,note_on,5,0,0,,10,,,69,127
92481,note_off,57,0,0,,10,,,69,127
92483,note_on,2,0,0,,11,,,70,127
92540,note_off,57,0,0,,11,,,70,127
92543,note_on,3,0,0,,10,,,69,127
92600,note_off,57,0,0,,10,,,69,127
92601,note_on,1,0,0,,7,,,67,127
92658,note_off,57,0,0,,7,,,67,127
92658,note_on,0,0,0,,10,,,69,127
92711,note_off,53,0,0,,10,,,69,127
92715,note_on,4,0,0,,11,,,70,127
92715,note_on,0,0,0,,11,,,46,127
92717,note_off,2,0,0,,5,,,41,127
92717,note_off,0,0,0,,5,,,53,127
92879,note_off,162,0,0,,11,,,70,127
92882,note_on,3,0,0,,11,,,82,127
93046,note_off,164,0,0,,11,,,82,127
93049,note_on,3,0,0,,11,,,82,127
93213,note_off,164,0,0,,11,,,82,127
93216,note_on,3,0,0,,2,,,86,127
93380,note_off,164,0,0,,2,,,86,127
93380,note_off,0,0,0,,11,,,46,127
93383,note_on,3,0,0,,11,,,82,127
93383,note_on,0,0,0,,0,,,84,127
93547,note_off,164,0,0,,0,,,84,127
93547,note_off,0,0,0,,11,,,82,127
93550,note_on,3,0,0,,10,,,81,127
93550,note_on,0,0,0,,11,,,70,127
93629,note_off,79,0,0,,10,,,81,127
93634,note_on,5,0,0,,7,,,79,127
93713,note_off,79,0,0,,7,,,79,127
93714,note_off,1,0,0,,11,,,70,127
93717,note_on,3,0,0,,5,,,77,127
93717,note_on,0,0,0,,10,,,69,127
93796,note_off,79,0,0,,5,,,77,127
93801,note_on,5,0,0,,3,,,75,127
93880,note_off,79,0,0,,3,,,75,127
93881,note_off,1,0,0,,10,,,69,127
93884,note_on,3,0,0,,2,,,74,127
93884,note_on,0,0,0,,5,,,65,127
93963,note_off,79,0,0,,2,,,74,127
93969,note_on,6,0,0,,0,,,72,127
94048,note_off,79,0,0,,0,,,72,127
94048,note_off,0,0,0,,5,,,65,127
94051,note_on,3,0,0,,2,,,74,127
94051,note_on,0,0,0,,11,,,70,127
94215,note_off,164,0,0,,2,,,74,127
94218,note_on,3,0,0,,5,,,77,127
94382,note_off,164,0,0,,5,,,77,127
94385,note_on,3,0,0,,5,,,77,127
94549,note_off,164,0,0,,5,,,77,127
94554,note_on,5,0,0,,11,,,82,127
94718,note_off,164,0,0,,11,,,82,127
94721,note_on,3,0,0,,10,,,81,127
94800,note_off,79,0,0,,10,,,81,127
94803,note_on,3,0,0,,7,,,79,127
94882,note_off,79,0,0,,7,,,79,127
94883,note_off,1,0,0,,11,,,70,127
94888,note_on,5,0,0,,5,,,77,127
94888,note_on,0,0,0,,3,,,63,127
94967,note_off,79,0,0,,5,,,77,127
94970,note_on,3,0,0,,3,,,75,127
95049,note_off,79,0,0,,3,,,75,127
95052,note_off,3,0,0,,3,,,63,127
95055,note_on,3,0,0,,2,,,74,127
95055,note_on,0,0,0,,5,,,65,127
95134,note_off,79,0,0,,2,,,74,127
95137,note_on,3,0,0,,0,,,72,127
95216,note_off,79,0,0,,0,,,72,127
95219,note_off,3,0,0,,5,,,65,127
95222,note_on,3,0,0,,11,,,70,127
95222,note_on,0,0,0,,5,,,53,127
95301,note_off,79,0,0,,11,,,70,127
95305,note_on,4,0,0,,10,,,69,127
95384,note_off,79,0,0,,10,,,69,127
95386,note_off,2,0,0,,5,,,53,127
95389,note_on,3,0,0,,11,,,70,127
95389,note_on,0,0,0,,11,,,46,127
95468,note_off,79,0,0,,11,,,70,127
95472,note_on,4,0,0,,0,,,72,127
95551,note_off,79,0,0,,0,,,72,127
95556,note_on,5,0,0,,2,,,74,127
95635,note_off,79,0,0,,2,,,74,127
95639,note_on,4,0,0,,3,,,75,127
95718,note_off,79,0,0,,3,,,75,127
95723,note_on,5,0,0,,5,,,77,127
95802,note_off,79,0,0,,5,,,77,127
95806,note_on,4,0,0,,2,,,74,127
95885,note_off,79,0,0,,2,,,74,127
95887,note_off,2,0,0,,11,,,46,127
95890,note_on,3,0,0,,0,,,72,127
95890,note_on,0,0,0,,11,,,58,127
95969,note_off,79,0,0,,0,,,72,127
95973,note_on,4,0,0,,11,,,70,127
96052,note_off,79,0,0,,11,,,70,127
96054,note_off,2,0,0,,11,,,58,127
96057,note_on,3,0,0,,0,,,72,127
96057,note_on,0,0,0,,10,,,57,127
96136,note_off,79,0,0,,0,,,72,127
96140,note_on,4,0,0,,2,,,74,127
96219,note_off,79,0,0,,2,,,74,127
96221,note_off,2,0,0,,10,,,57,127
96224,note_on,3,0,0,,3,,,75,127
96224,note_on,0,0,0,,5,,,53,127
96303,note_off,79,0,0,,3,,,75,127
96308,note_on,5,0,0,,5,,,77,127
96387,note_off,79,0,0,,5,,,77,127
96388,note_off,1,0,0,,5,,,53,127
96391,note_on,3,0,0,,7,,,79,127
96391,note_on,0,0,0,,5,,,53,127
96470,note_off,79,0,0,,7,,,79,127
96476,note_on,6,0,0,,3,,,75,127
96555,note_off,79,0,0,,3,,,75,127
96555,note_off,0,0,0,,5,,,53,127
96558,note_on,3,0,0,,2,,,74,127
96558,note_on,0,0,0,,10,,,57,127
96637,note_off,79,0,0,,2,,,74,127
96643,note_on,6,0,0,,0,,,72,127
96722,note_off,79,0,0,,0,,,72,127
96722,note_off,0,0,0,,10,,,57,127
96725,note_on,3,0,0,,2,,,74,127
96725,note_on,0,0,0,,11,,,58,127
96804,note_off,79,0,0,,2,,,74,127
96810,note_on,6,0,0,,0,,,72,127
96889,note_off,79,0,0,,0,,,72,127
96892,note_on,3,0,0,,2,,,74,127
96971,note_off,79,0,0,,2,,,74,127
96977,note_on,6,0,0,,3,,,75,127
97056,note_off,79,0,0,,3,,,75,127
97060,note_on,4,0,0,,5,,,77,127
97139,note_off,79,0,0,,5,,,77,127
97144,note_on,5,0,0,,2,,,74,127
97186,note_off,42,0,0,,11,,,58,127
97223,note_off,37,0,0,,2,,,74,127
97227,note_on,4,0,0,,0,,,72,127
97227,note_on,0,0,0,,11,,,58,127
97306,note_off,79,0,0,,0,,,72,127
97311,note_on,5,0,0,,11,,,70,127
97390,note_off,79,0,0,,11,,,70,127
97391,note_off,1,0,0,,11,,,58,127
97395,note_on,4,0,0,,0,,,72,127
97395,note_on,0,0,0,,10,,,57,127
97474,note_off,79,0,0,,0,,,72,127
97478,note_on,4,0,0,,2,,,74,127
97557,note_off,79,0,0,,2,,,74,127
97559,note_off,2,0,0,,10,,,57,127
97562,note_on,3,0,0,,3,,,75,127
97562,note_on,0,0,0,,5,,,53,127
97641,note_off,79,0,0,,3,,,75,127
97644,note_on,3,0,0,,5,,,77,127
97723,note_off,79,0,0,,5,,,77,127
97726,note_off,3,0,0,,5,,,53,127
97729,note_on,3,0,0,,7,,,79,127
97729,note_on,0,0,0,,5,,,53,127
97808,note_off,79,0,0,,7,,,79,127
97812,note_on,4,0,0,,3,,,75,127
97891,note_off,79,0,0,,3,,,75,127
97893,note_off,2,0,0,,5,,,53,127
97896,note_on,3,0,0,,2,,,74,127
97896,note_on,0,0,0,,10,,,57,127
97975,note_off,79,0,0,,2,,,74,127
97979,note_on,4,0,0,,0,,,72,127
98058,note_off,79,0,0,,0,,,72,127
98060,note_off,2,0,0,,10,,,57,127
98063,note_on,3,0,0,,2,,,74,127
98063,note_on,0,0,0,,11,,,58,127
98142,note_off,79,0,0,,2,,,74,127
98146,note_on,4,0,0,,0,,,72,127
98225,note_off,79,0,0,,0,,,72,127
98230,note_on,5,0,0,,2,,,74,127
98309,note_off,79,0,0,,2,,,74,127
98313,note_on,4,0,0,,3,,,75,127
98392,note_off,79,0,0,,3,,,75,127
98398,note_on,6,0,0,,5,,,77,127
98477,note_off,79,0,0,,5,,,77,127
98478,note_off,1,0,0,,11,,,58,127
98480,note_on,2,0,0,,7,,,79,127
98559,note_off,79,0,0,,7,,,79,127
98565,note_on,6,0,0,,8,,,80,127
98565,note_on,0,0,0,,8,,,56,127
98644,note_off,79,0,0,,8,,,80,127
98647,note_on,3,0,0,,0,,,72,127
98726,note_off,79,0,0,,0,,,72,127
98729,note_off,3,0,0,,8,,,56,127
98731,note_on,2,0,0,,12,,,71,127
98731,note_on,0,0,0,,7,,,55,127
98810,note_off,79,0,0,,12,,,71,127
98814,note_on,4,0,0,,8,,,80,127
98893,note_off,79,0,0,,8,,,80,127
98895,note_off,2,0,0,,7,,,55,127
98898,note_on,3,0,0,,7,,,79,127
98898,note_on,0,0,0,,7,,,55,127
98977,note_off,79,0,0,,7,,,79,127
98983,note_on,6,0,0,,5,,,77,127
99062,note_off,79,0,0,,5,,,77,127
99062,note_off,0,0,0,,7,,,55,127
99065,note_on,3,0,0,,3,,,75,127
99065,note_on,0,0,0,,7,,,55,127
99144,note_off,79,0,0,,3,,,75,127
99150,note_on,6,0,0,,2,,,74,127
99229,note_off,79,0,0,,2,,,74,127
99229,note_off,0,0,0,,7,,,55,127
99232,note_on,3,0,0,,0,,,72,127
99232,note_on,0,0,0,,5,,,53,127
99311,note_off,79,0,0,,0,,,72,127
99317,note_on,6,0,0,,12,,,71,127
99396,note_off,79,0,0,,12,,,71,127
99396,note_off,0,0,0,,5,,,53,127
99399,note_on,3,0,0,,0,,,72,127
99399,note_on,0,0,0,,3,,,51,127
99478,note_off,79,0,0,,0,,,72,127
99484,note_on,6,0,0,,2,,,74,127
99563,note_off,79,0,0,,2,,,74,127
99563,note_off,0,0,0,,3,,,51,127
99566,note_on,3,0,0,,3,,,75,127
99566,note_on,0,0,0,,0,,,48,127
99645,note_off,79,0,0,,3,,,75,127
99651,note_on,6,0,0,,5,,,77,127
99729,note_off,78,0,0,,0,,,48,127
99730,note_off,1,0,0,,5,,,77,127
99734,note_on,4,0,0,,7,,,79,127
99813,note_off,79,0,0,,7,,,79,127
99818,note_on,5,0,0,,10,,,81,127
99897,note_off,79,0,0,,10,,,81,127
99901,note_on,4,0,0,,11,,,82,127
99901,note_on,0,0,0,,11,,,58,127
99980,note_off,79,0,0,,11,,,82,127
99985,note_on,5,0,0,,2,,,74,127
100064,note_off,79,0,0,,2,,,74,127
100065,note_off,1,0,0,,11,,,58,127
100068,note_on,3,0,0,,1,,,73,127
100068,note_on,0,0,0,,10,,,57,127
100147,note_off,79,0,0,,1,,,73,127
100152,note_on,5,0,0,,11,,,82,127
100231,note_off,79,0,0,,11,,,82,127
100232,note_off,1,0,0,,10,,,57,127
100235,note_on,3,0,0,,10,,,81,127
100235,note_on,0,0,0,,10,,,57,127
100314,note_off,79,0,0,,10,,,81,127
100319,note_on,5,0,0,,7,,,79,127
100398,note_off,79,0,0,,7,,,79,127
100399,note_off,1,0,0,,10,,,57,127
100402,note_on,3,0,0,,5,,,77,127
100402,note_on,0,0,0,,10,,,57,127
100481,note_off,79,0,0,,5,,,77,127
100486,note_on,5,0,0,,4,,,76,127
100565,note_off,79,0,0,,4,,,76,127
100566,note_off,1,0,0,,10,,,57,127
100570,note_on,4,0,0,,2,,,74,127
100570,note_on,0,0,0,,7,,,55,127
100649,note_off,79,0,0,,2,,,74,127
100653,note_on,4,0,0,,1,,,73,127
100732,note_off,79,0,0,,1,,,73,127
100734,note_off,2,0,0,,7,,,55,127
100737,note_on,3,0,0,,2,,,74,127
100737,note_on,0,0,0,,6,,,54,127
100816,note_off,79,0,0,,6,,,54,127
100820,note_on,4,0,0,,2,,,50,127
100899,note_off,79,0,0,,2,,,50,127
100901,note_off,2,0,0,,2,,,74,127
100905,note_on,4,0,0,,10,,,81,127
100905,note_on,0,0,0,,4,,,52,127
100984,note_off,79,0,0,,4,,,52,127
100987,note_on,3,0,0,,6,,,54,127
101066,note_off,79,0,0,,6,,,54,127
101072,note_on,6,0,0,,7,,,55,127
101151,note_off,79,0,0,,7,,,55,127
101153,note_off,2,0,0,,10,,,81,127
101154,note_on,1,0,0,,10,,,57,127
101233,note_off,79,0,0,,10,,,57,127
101239,note_on,6,0,0,,7,,,79,127
101239,note_on,0,0,0,,11,,,58,127
101318,note_off,79,0,0,,11,,,58,127
101321,note_on,3,0,0,,0,,,60,127
101400,note_off,79,0,0,,0,,,60,127
101403,note_off,3,0,0,,7,,,79,127
101406,note_on,3,0,0,,6,,,78,127
101406,note_on,0,0,0,,2,,,62,127
101485,note_off,79,0,0,,2,,,62,127
101489,note_on,4,0,0,,2,,,50,127
101568,note_off,79,0,0,,2,,,50,127
101570,note_off,2,0,0,,6,,,78,127
101573,note_on,3,0,0,,10,,,81,127
101573,note_on,0,0,0,,4,,,52,127
101652,note_off,79,0,0,,4,,,52,127
101657,note_on,5,0,0,,6,,,54,127
101736,note_off,79,0,0,,6,,,54,127
101740,note_on,4,0,0,,7,,,55,127
101819,note_off,79,0,0,,7,,,55,127
101821,note_off,2,0,0,,10,,,81,127
101824,note_on,3,0,0,,10,,,57,127
101903,note_off,79,0,0,,10,,,57,127
101906,note_on,3,0,0,,7,,,79,127
101906,note_on,0,0,0,,11,,,58,127
101985,note_off,79,0,0,,11,,,58,127
101991,note_on,6,0,0,,0,,,60,127
102070,note_off,79,0,0,,0,,,60,127
102070,note_off,0,0,0,,7,,,79,127
102073,note_on,3,0,0,,6,,,78,127
102073,note_on,0,0,0,,2,,,62,127
102152,note_off,79,0,0,,6,,,78,127
102158,note_on,6,0,0,,7,,,79,127
102237,note_off,79,0,0,,7,,,79,127
102237,note_off,0,0,0,,2,,,62,127
102241,note_on,4,0,0,,10,,,81,127
102241,note_on,0,0,0,,2,,,50,127
102320,note_off,79,0,0,,10,,,81,127
102325,note_on,5,0,0,,11,,,82,127
102404,note_off,79,0,0,,11,,,82,127
102405,note_off,1,0,0,,2,,,50,127
102408,note_on,3,0,0,,0,,,84,127
102408,note_on,0,0,0,,2,,,62,127
102487,note_off,79,0,0,,0,,,84,127
102492,note_on,5,0,0,,10,,,81,127
102571,note_off,79,0,0,,10,,,81,127
102572,note_off,1,0,0,,2,,,62,127
102575,note_on,3,0,0,,7,,,79,127
102575,note_on,0,0,0,,0,,,60,127
102654,note_off,79,0,0,,7,,,79,127
102659,note_on,5,0,0,,6,,,78,127
102738,note_off,79,0,0,,6,,,78,127
102739,note_off,1,0,0,,0,,,60,127
102742,note_on,3,0,0,,7,,,79,127
102742,note_on,0,0,0,,11,,,58,127
102821,note_off,79,0,0,,7,,,79,127
102827,note_on,6,0,0,,10,,,81,127
102906,note_off,79,0,0,,10,,,81,127
102906,note_off,0,0,0,,11,,,58,127
102909,note_on,3,0,0,,11,,,82,127
102909,note_on,0,0,0,,7,,,55,127
102988,note_off,79,0,0,,11,,,82,127
102993,note_on,5,0,0,,0,,,84,127
103072,note_off,79,0,0,,0,,,84,127
103076,note_on,4,0,0,,2,,,86,127
103155,note_off,79,0,0,,2,,,86,127
103160,note_on,5,0,0,,11,,,82,127
103239,note_off,79,0,0,,11,,,82,127
103240,note_off,1,0,0,,7,,,55,127
103243,note_on,3,0,0,,10,,,81,127
103243,note_on,0,0,0,,7,,,55,127
103322,note_off,79,0,0,,10,,,81,127
103327,note_on,5,0,0,,7,,,79,127
103406,note_off,79,0,0,,7,,,79,127
103407,note_off,1,0,0,,7,,,55,127
103412,note_on,5,0,0,,10,,,81,127
103412,note_on,0,0,0,,6,,,54,127
103491,note_off,79,0,0,,10,,,81,127
103494,note_on,3,0,0,,7,,,79,127
103573,note_off,79,0,0,,7,,,79,127
103576,note_off,3,0,0,,6,,,54,127
103579,note_on,3,0,0,,10,,,81,127
103579,note_on,0,0,0,,2,,,50,127
103658,note_off,79,0,0,,10,,,81,127
103661,note_on,3,0,0,,11,,,82,127
103740,note_off,79,0,0,,11,,,82,127
103743,note_off,3,0,0,,2,,,50,127
103746,note_on,3,0,0,,0,,,84,127
103746,note_on,0,0,0,,2,,,62,127
103825,note_off,79,0,0,,0,,,84,127
103828,note_on,3,0,0,,10,,,81,127
103907,note_off,79,0,0,,10,,,81,127
103910,note_off,3,0,0,,2,,,62,127
103913,note_on,3,0,0,,7,,,79,127
103913,note_on,0,0,0,,0,,,60,127
103992,note_off,79,0,0,,7,,,79,127
103995,note_on,3,0,0,,6,,,78,127
104074,note_off,79,0,0,,6,,,78,127
104077,note_off,3,0,0,,0,,,60,127
104080,note_on,3,0,0,,7,,,79,127
104080,note_on,0,0,0,,11,,,58,127
104159,note_off,79,0,0,,7,,,79,127
104163,note_on,4,0,0,,10,,,81,127
104242,note_off,79,0,0,,10,,,81,127
104244,note_off,2,0,0,,11,,,58,127
104247,note_on,3,0,0,,11,,,82,127
104247,note_on,0,0,0,,7,,,55,127
104326,note_off,79,0,0,,11,,,82,127
104330,note_on,4,0,0,,0,,,84,127
104409,note_off,79,0,0,,0,,,84,127
104414,note_on,5,0,0,,2,,,86,127
104493,note_off,79,0,0,,2,,,86,127
104497,note_on,4,0,0,,11,,,82,127
104576,note_off,79,0,0,,11,,,82,127
104578,note_off,2,0,0,,7,,,55,127
104581,note_on,3,0,0,,10,,,81,127
104581,note_on,0,0,0,,7,,,55,127
104660,note_off,79,0,0,,10,,,81,127
104664,note_on,4,0,0,,7,,,79,127
104743,note_off,79,0,0,,7,,,79,127
104745,note_off,2,0,0,,7,,,55,127
104748,note_on,3,0,0,,10,,,81,127
104748,note_on,0,0,0,,6,,,54,127
104827,note_off,79,0,0,,10,,,81,127
104832,note_on,5,0,0,,7,,,79,127
104911,note_off,79,0,0,,7,,,79,127
104912,note_off,1,0,0,,6,,,54,127
104915,note_on,3,0,0,,6,,,78,127
104915,note_on,0,0,0,,2,,,50,127
104994,note_off,79,0,0,,6,,,78,127
104999,note_on,5,0,0,,4,,,76,127
105078,note_off,79,0,0,,4,,,76,127
105079,note_off,1,0,0,,2,,,50,127
105082,note_on,3,0,0,,2,,,74,127
105082,note_on,0,0,0,,2,,,50,127
105161,note_off,79,0,0,,2,,,74,127
105166,note_on,5,0,0,,0,,,72,127
105245,note_off,79,0,0,,0,,,72,127
105246,note_off,1,0,0,,2,,,50,127
105249,note_on,3,0,0,,11,,,70,127
105249,note_on,0,0,0,,6,,,54,127
105328,note_off,79,0,0,,11,,,70,127
105334,note_on,6,0,0,,10,,,69,127
105413,note_off,79,0,0,,10,,,69,127
105413,note_off,0,0,0,,6,,,54,127
105416,note_on,3,0,0,,11,,,70,127
105416,note_on,0,0,0,,7,,,55,127
105495,note_off,79,0,0,,11,,,70,127
105501,note_on,6,0,0,,10,,,69,127
105580,note_off,79,0,0,,10,,,69,127
105580,note_off,0,0,0,,7,,,55,127
105583,note_on,3,0,0,,11,,,70,127
105583,note_on,0,0,0,,7,,,55,127
105662,note_off,79,0,0,,11,,,70,127
105668,note_on,6,0,0,,10,,,69,127
105747,note_off,79,0,0,,10,,,69,127
105747,note_off,0,0,0,,7,,,55,127
105750,note_on,3,0,0,,11,,,70,127
105750,note_on,0,0,0,,7,,,55,127
105829,note_off,79,0,0,,11,,,70,127
105835,note_on,6,0,0,,10,,,69,127
105914,note_off,79,0,0,,10,,,69,127
105914,note_off,0,0,0,,7,,,55,127
105919,note_on,5,0,0,,11,,,70,127
105919,note_on,0,0,0,,5,,,53,127
105998,note_off,79,0,0,,11,,,70,127
106002,note_on,4,0,0,,12,,,71,127
106081,note_off,79,0,0,,12,,,71,127
106083,note_off,2,0,0,,5,,,53,127
106086,note_on,3,0,0,,0,,,72,127
106086,note_on,0,0,0,,3,,,51,127
106165,note_off,79,0,0,,0,,,72,127
106168,note_on,3,0,0,,12,,,71,127
106247,note_off,79,0,0,,12,,,71,127
106250,note_off,3,0,0,,3,,,51,127
106253,note_on,3,0,0,,0,,,72,127
106253,note_on,0,0,0,,3,,,51,127
106332,note_off,79,0,0,,0,,,72,127
106335,note_on,3,0,0,,12,,,71,127
106414,note_off,79,0,0,,12,,,71,127
106417,note_off,3,0,0,,3,,,51,127
106420,note_on,3,0,0,,0,,,72,127
106420,note_on,0,0,0,,3,,,51,127
106499,note_off,79,0,0,,0,,,72,127
106502,note_on,3,0,0,,12,,,71,127
106581,note_off,79,0,0,,12,,,71,127
106584,note_off,3,0,0,,3,,,51,127
106587,note_on,3,0,0,,0,,,72,127
106587,note_on,0,0,0,,2,,,50,127
106666,note_off,79,0,0,,0,,,72,127
106670,note_on,4,0,0,,2,,,74,127
106749,note_off,79,0,0,,2,,,74,127
106751,note_off,2,0,0,,2,,,50,127
106754,note_on,3,0,0,,3,,,75,127
106754,note_on,0,0,0,,0,,,48,127
106833,note_off,79,0,0,,3,,,75,127
106837,note_on,4,0,0,,2,,,74,127
106916,note_off,79,0,0,,2,,,74,127
106918,note_off,2,0,0,,0,,,48,127
106921,note_on,3,0,0,,3,,,75,127
106921,note_on,0,0,0,,0,,,60,127
107000,note_off,79,0,0,,3,,,75,127
107004,note_on,4,0,0,,2,,,74,127
107083,note_off,79,0,0,,2,,,74,127
107085,note_off,2,0,0,,0,,,60,127
107088,note_on,3,0,0,,3,,,75,127
107088,note_on,0,0,0,,0,,,60,127
107167,note_off,79,0,0,,3,,,75,127
107171,note_on,4,0,0,,2,,,74,127
107250,note_off,79,0,0,,2,,,74,127
107252,note_off,2,0,0,,0,,,60,127
107255,note_on,3,0,0,,3,,,75,127
107255,note_on,0,0,0,,11,,,58,127
107334,note_off,79,0,0,,3,,,75,127
107338,note_on,4,0,0,,4,,,76,127
107417,note_off,79,0,0,,4,,,76,127
107419,note_off,2,0,0,,11,,,58,127
107422,note_on,3,0,0,,5,,,77,127
107422,note_on,0,0,0,,10,,,57,127
107501,note_off,79,0,0,,5,,,77,127
107505,note_on,4,0,0,,4,,,76,127
107584,note_off,79,0,0,,4,,,76,127
107586,note_off,2,0,0,,10,,,57,127
107589,note_on,3,0,0,,5,,,77,127
107589,note_on,0,0,0,,10,,,57,127
107668,note_off,79,0,0,,5,,,77,127
107672,note_on,4,0,0,,4,,,76,127
107751,note_off,79,0,0,,4,,,76,127
107753,note_off,2,0,0,,10,,,57,127
107756,note_on,3,0,0,,5,,,77,127
107756,note_on,0,0,0,,10,,,57,127
107835,note_off,79,0,0,,5,,,77,127
107841,note_on,6,0,0,,4,,,76,127
107920,note_off,79,0,0,,4,,,76,127
107920,note_off,0,0,0,,10,,,57,127
107923,note_on,3,0,0,,5,,,77,127
107923,note_on,0,0,0,,7,,,55,127
108002,note_off,79,0,0,,5,,,77,127
108008,note_on,6,0,0,,7,,,79,127
108087,note_off,79,0,0,,7,,,79,127
108087,note_off,0,0,0,,7,,,55,127
108090,note_on,3,0,0,,10,,,81,127
108090,note_on,0,0,0,,5,,,53,127
108169,note_off,79,0,0,,10,,,81,127
108175,note_on,6,0,0,,7,,,79,127
108254,note_off,79,0,0,,7,,,79,127
108254,note_off,0,0,0,,5,,,53,127
108257,note_on,3,0,0,,5,,,77,127
108257,note_on,0,0,0,,5,,,53,127
108336,note_off,79,0,0,,5,,,77,127
108342,note_on,6,0,0,,4,,,76,127
108421,note_off,79,0,0,,4,,,76,127
108421,note_off,0,0,0,,5,,,53,127
108424,note_on,3,0,0,,2,,,74,127
108424,note_on,0,0,0,,5,,,53,127
108503,note_off,79,0,0,,2,,,74,127
108509,note_on,6,0,0,,0,,,72,127
108588,note_off,79,0,0,,0,,,72,127
108588,note_off,0,0,0,,5,,,53,127
108592,note_on,4,0,0,,11,,,70,127
108592,note_on,0,0,0,,5,,,53,127
108671,note_off,79,0,0,,11,,,70,127
108676,note_on,5,0,0,,10,,,69,127
108755,note_off,79,0,0,,10,,,69,127
108756,note_off,1,0,0,,5,,,53,127
108759,note_on,3,0,0,,11,,,82,127
108759,note_on,0,0,0,,7,,,55,127
108838,note_off,79,0,0,,11,,,82,127
108843,note_on,5,0,0,,10,,,81,127
108922,note_off,79,0,0,,10,,,81,127
108923,note_off,1,0,0,,7,,,55,127
108926,note_on,3,0,0,,7,,,79,127
108926,note_on,0,0,0,,10,,,57,127
109005,note_off,79,0,0,,7,,,79,127
109010,note_on,5,0,0,,5,,,77,127
109089,note_off,79,0,0,,5,,,77,127
109090,note_off,1,0,0,,10,,,57,127
109094,note_on,4,0,0,,7,,,79,127
109094,note_on,0,0,0,,11,,,58,127
109173,note_off,79,0,0,,7,,,79,127
109177,note_on,4,0,0,,5,,,77,127
109256,note_off,79,0,0,,5,,,77,127
109258,note_off,2,0,0,,11,,,58,127
109261,note_on,3,0,0,,4,,,76,127
109261,note_on,0,0,0,,7,,,55,127
109340,note_off,79,0,0,,4,,,76,127
109344,note_on,4,0,0,,2,,,74,127
109423,note_off,79,0,0,,2,,,74,127
109425,note_off,2,0,0,,7,,,55,127
109428,note_on,3,0,0,,1,,,73,127
109428,note_on,0,0,0,,10,,,57,127
109507,note_off,79,0,0,,1,,,73,127
109511,note_on,4,0,0,,2,,,74,127
109590,note_off,79,0,0,,2,,,74,127
109592,note_off,2,0,0,,10,,,57,127
109595,note_on,3,0,0,,4,,,76,127
109595,note_on,0,0,0,,10,,,57,127
109674,note_off,79,0,0,,4,,,76,127
109678,note_on,4,0,0,,5,,,77,127
109757,note_off,79,0,0,,5,,,77,127
109759,note_off,2,0,0,,10,,,57,127
109763,note_on,4,0,0,,7,,,79,127
109763,note_on,0,0,0,,10,,,57,127
109842,note_off,79,0,0,,7,,,79,127
109845,note_on,3,0,0,,4,,,76,127
109924,note_off,79,0,0,,4,,,76,127
109927,note_off,3,0,0,,10,,,57,127
109930,note_on,3,0,0,,2,,,74,127
109930,note_on,0,0,0,,7,,,55,127
110009,note_off,79,0,0,,2,,,74,127
110012,note_on,3,0,0,,1,,,73,127
110091,note_off,79,0,0,,1,,,73,127
110094,note_off,3,0,0,,7,,,55,127
110097,note_on,3,0,0,,2,,,74,127
110097,note_on,0,0,0,,5,,,53,127
110176,note_off,79,0,0,,2,,,74,127
110179,note_on,3,0,0,,4,,,76,127
110258,note_off,79,0,0,,4,,,76,127
110261,note_off,3,0,0,,5,,,53,127
110264,note_on,3,0,0,,5,,,77,127
110264,note_on,0,0,0,,2,,,50,127
110343,note_off,79,0,0,,5,,,77,127
110348,note_on,5,0,0,,7,,,79,127
110427,note_off,79,0,0,,7,,,79,127
110428,note_off,1,0,0,,2,,,50,127
110430,note_on,2,0,0,,10,,,81,127
110430,note_on,0,0,0,,2,,,50,127
110509,note_off,79,0,0,,10,,,81,127
110515,note_on,6,0,0,,5,,,77,127
110594,note_off,79,0,0,,5,,,77,127
110594,note_off,0,0,0,,2,,,50,127
110597,note_on,3,0,0,,4,,,76,127
110597,note_on,0,0,0,,2,,,62,127
110676,note_off,79,0,0,,4,,,76,127
110682,note_on,6,0,0,,2,,,74,127
110761,note_off,79,0,0,,2,,,74,127
110761,note_off,0,0,0,,2,,,62,127
110764,note_on,3,0,0,,4,,,76,127
110764,note_on,0,0,0,,1,,,61,127
110843,note_off,79,0,0,,4,,,76,127
110849,note_on,6,0,0,,2,,,74,127
110928,note_off,79,0,0,,2,,,74,127
110928,note_off,0,0,0,,1,,,61,127
110931,note_on,3,0,0,,1,,,73,127
110931,note_on,0,0,0,,10,,,57,127
111010,note_off,79,0,0,,1,,,73,127
111016,note_on,6,0,0,,12,,,71,127
111095,note_off,79,0,0,,12,,,71,127
111095,note_off,0,0,0,,10,,,57,127
111099,note_on,4,0,0,,10,,,69,127
111099,note_on,0,0,0,,10,,,57,127
111178,note_off,79,0,0,,10,,,69,127
111183,note_on,5,0,0,,7,,,67,127
111262,note_off,79,0,0,,7,,,67,127
111263,note_off,1,0,0,,10,,,57,127
111266,note_on,3,0,0,,5,,,65,127
111266,note_on,0,0,0,,1,,,61,127
111345,note_off,79,0,0,,5,,,65,127
111350,note_on,5,0,0,,4,,,64,127
111429,note_off,79,0,0,,4,,,64,127
111430,note_off,1,0,0,,1,,,61,127
111433,note_on,3,0,0,,5,,,65,127
111433,note_on,0,0,0,,2,,,62,127
111512,note_off,79,0,0,,5,,,65,127
111517,note_on,5,0,0,,4,,,64,127
111596,note_off,79,0,0,,4,,,64,127
111597,note_off,1,0,0,,2,,,62,127
111600,note_on,3,0,0,,5,,,65,127
111600,note_on,0,0,0,,2,,,62,127
111679,note_off,79,0,0,,5,,,65,127
111684,note_on,5,0,0,,4,,,64,127
111763,note_off,79,0,0,,4,,,64,127
111764,note_off,1,0,0,,2,,,62,127
111767,note_on,3,0,0,,5,,,65,127
111767,note_on,0,0,0,,2,,,62,127
111846,note_off,79,0,0,,5,,,65,127
111851,note_on,5,0,0,,4,,,64,127
111930,note_off,79,0,0,,4,,,64,127
111931,note_off,1,0,0,,2,,,62,127
111934,note_on,3,0,0,,5,,,65,127
111934,note_on,0,0,0,,0,,,60,127
112013,note_off,79,0,0,,5,,,65,127
112018,note_on,5,0,0,,6,,,66,127
112097,note_off,79,0,0,,6,,,66,127
112098,note_off,1,0,0,,0,,,60,127
112101,note_on,3,0,0,,7,,,67,127
112101,note_on,0,0,0,,11,,,58,127
112180,note_off,79,0,0,,7,,,67,127
112185,note_on,5,0,0,,6,,,66,127
112264,note_off,79,0,0,,6,,,66,127
112265,note_off,1,0,0,,11,,,58,127
112270,note_on,5,0,0,,7,,,67,127
112270,note_on,0,0,0,,11,,,58,127
112349,note_off,79,0,0,,7,,,67,127
112352,note_on,3,0,0,,6,,,66,127
112431,note_off,79,0,0,,6,,,66,127
112434,note_off,3,0,0,,11,,,58,127
112437,note_on,3,0,0,,7,,,67,127
112437,note_on,0,0,0,,11,,,58,127
112516,note_off,79,0,0,,7,,,67,127
112519,note_on,3,0,0,,6,,,66,127
112598,note_off,79,0,0,,6,,,66,127
112601,note_off,3,0,0,,11,,,58,127
112604,note_on,3,0,0,,7,,,67,127
112604,note_on,0,0,0,,10,,,57,127
112683,note_off,79,0,0,,7,,,67,127
112686,note_on,3,0,0,,10,,,69,127
112765,note_off,79,0,0,,10,,,69,127
112768,note_off,3,0,0,,10,,,57,127
112771,note_on,3,0,0,,11,,,70,127
112771,note_on,0,0,0,,7,,,55,127
112850,note_off,79,0,0,,11,,,70,127
112853,note_on,3,0,0,,10,,,69,127
112932,note_off,79,0,0,,10,,,69,127
112935,note_off,3,0,0,,7,,,55,127
112938,note_on,3,0,0,,11,,,70,127
112938,note_on,0,0,0,,7,,,55,127
113017,note_off,79,0,0,,11,,,70,127
113021,note_on,4,0,0,,10,,,69,127
113100,note_off,79,0,0,,10,,,69,127
113102,note_off,2,0,0,,7,,,55,127
113105,note_on,3,0,0,,11,,,70,127
113105,note_on,0,0,0,,7,,,55,127
113184,note_off,79,0,0,,11,,,70,127
113188,note_on,4,0,0,,10,,,69,127
113267,note_off,79,0,0,,10,,,69,127
113269,note_off,2,0,0,,7,,,55,127
113272,note_on,3,0,0,,11,,,70,127
113272,note_on,0,0,0,,5,,,53,127
113351,note_off,79,0,0,,11,,,70,127
113356,note_on,5,0,0,,12,,,71,127
113435,note_off,79,0,0,,12,,,71,127
113436,note_off,1,0,0,,5,,,53,127
113439,note_on,3,0,0,,0,,,72,127
113439,note_on,0,0,0,,3,,,51,127
113518,note_off,79,0,0,,0,,,72,127
113523,note_on,5,0,0,,12,,,71,127
113602,note_off,79,0,0,,12,,,71,127
113603,note_off,1,0,0,,3,,,51,127
113606,note_on,3,0,0,,0,,,72,127
113606,note_on,0,0,0,,3,,,51,127
113685,note_off,79,0,0,,0,,,72,127
113690,note_on,5,0,0,,12,,,71,127
113769,note_off,79,0,0,,12,,,71,127
113770,note_off,1,0,0,,3,,,51,127
113773,note_on,3,0,0,,0,,,72,127
113773,note_on,0,0,0,,3,,,51,127
113852,note_off,79,0,0,,0,,,72,127
113857,note_on,5,0,0,,12,,,71,127
113936,note_off,79,0,0,,12,,,71,127
113937,note_off,1,0,0,,3,,,51,127
113940,note_on,3,0,0,,0,,,72,127
113940,note_on,0,0,0,,2,,,50,127
114019,note_off,79,0,0,,0,,,72,127
114024,note_on,5,0,0,,2,,,74,127
114103,note_off,79,0,0,,2,,,74,127
114104,note_off,1,0,0,,2,,,50,127
114107,note_on,3,0,0,,3,,,75,127
114107,note_on,0,0,0,,0,,,48,127
114186,note_off,79,0,0,,3,,,75,127
114192,note_on,6,0,0,,2,,,74,127
114271,note_off,79,0,0,,2,,,74,127
114271,note_off,0,0,0,,0,,,48,127
114274,note_on,3,0,0,,3,,,75,127
114274,note_on,0,0,0,,0,,,60,127
114353,note_off,79,0,0,,3,,,75,127
114359,note_on,6,0,0,,2,,,74,127
114438,note_off,79,0,0,,2,,,74,127
114438,note_off,0,0,0,,0,,,60,127
114441,note_on,3,0,0,,3,,,75,127
114441,note_on,0,0,0,,0,,,60,127
114520,note_off,79,0,0,,3,,,75,127
114526,note_on,6,0,0,,2,,,74,127
114605,note_off,79,0,0,,2,,,74,127
114605,note_off,0,0,0,,0,,,60,127
114608,note_on,3,0,0,,3,,,75,127
114608,note_on,0,0,0,,11,,,58,127
114687,note_off,79,0,0,,3,,,75,127
114692,note_on,5,0,0,,4,,,76,127
114771,note_off,79,0,0,,4,,,76,127
114772,note_off,1,0,0,,11,,,58,127
114777,note_on,5,0,0,,5,,,77,127
114777,note_on,0,0,0,,10,,,57,127
114856,note_off,79,0,0,,5,,,77,127
114859,note_on,3,0,0,,4,,,76,127
114938,note_off,79,0,0,,4,,,76,127
114941,note_off,3,0,0,,10,,,57,127
114944,note_on,3,0,0,,5,,,77,127
114944,note_on,0,0,0,,10,,,57,127
115023,note_off,79,0,0,,5,,,77,127
115026,note_on,3,0,0,,4,,,76,127
115105,note_off,79,0,0,,4,,,76,127
115108,note_off,3,0,0,,10,,,57,127
115111,note_on,3,0,0,,5,,,77,127
115111,note_on,0,0,0,,10,,,57,127
115190,note_off,79,0,0,,5,,,77,127
115193,note_on,3,0,0,,4,,,76,127
115272,note_off,79,0,0,,4,,,76,127
115275,note_off,3,0,0,,10,,,57,127
115278,note_on,3,0,0,,5,,,77,127
115278,note_on,0,0,0,,7,,,55,127
115357,note_off,79,0,0,,5,,,77,127
115360,note_on,3,0,0,,7,,,79,127
115439,note_off,79,0,0,,7,,,79,127
115442,note_off,3,0,0,,7,,,55,127
115445,note_on,3,0,0,,10,,,81,127
115445,note_on,0,0,0,,5,,,53,127
115524,note_off,79,0,0,,10,,,81,127
115528,note_on,4,0,0,,7,,,79,127
115607,note_off,79,0,0,,7,,,79,127
115609,note_off,2,0,0,,5,,,53,127
115612,note_on,3,0,0,,10,,,81,127
115612,note_on,0,0,0,,5,,,53,127
115691,note_off,79,0,0,,10,,,81,127
115695,note_on,4,0,0,,11,,,82,127
115774,note_off,79,0,0,,11,,,82,127
115776,note_off,2,0,0,,5,,,53,127
115779,note_on,3,0,0,,0,,,84,127
115779,note_on,0,0,0,,5,,,53,127
115858,note_off,79,0,0,,0,,,84,127
115862,note_on,4,0,0,,10,,,81,127
115941,note_off,79,0,0,,10,,,81,127
115943,note_off,2,0,0,,5,,,53,127
115946,note_on,3,0,0,,7,,,79,127
115946,note_on,0,0,0,,5,,,53,127
116025,note_off,79,0,0,,7,,,79,127
116029,note_on,4,0,0,,5,,,77,127
116108,note_off,79,0,0,,5,,,77,127
116110,note_off,2,0,0,,5,,,53,127
116113,note_on,3,0,0,,7,,,79,127
116113,note_on,0,0,0,,4,,,52,127
116192,note_off,79,0,0,,7,,,79,127
116196,note_on,4,0,0,,10,,,81,127
116275,note_off,79,0,0,,10,,,81,127
116277,note_off,2,0,0,,4,,,52,127
116280,note_on,3,0,0,,11,,,82,127
116280,note_on,0,0,0,,0,,,48,127
116359,note_off,79,0,0,,11,,,82,127
116363,note_on,4,0,0,,0,,,84,127
116442,note_off,79,0,0,,0,,,84,127
116444,note_off,2,0,0,,0,,,48,127
116447,note_on,3,0,0,,2,,,86,127
116447,note_on,0,0,0,,0,,,48,127
116526,note_off,79,0,0,,2,,,86,127
116531,note_on,5,0,0,,11,,,82,127
116610,note_off,79,0,0,,11,,,82,127
116611,note_off,1,0,0,,0,,,48,127
116614,note_on,3,0,0,,10,,,81,127
116614,note_on,0,0,0,,4,,,52,127
116693,note_off,79,0,0,,10,,,81,127
116699,note_on,6,0,0,,7,,,79,127
116778,note_off,79,0,0,,7,,,79,127
116778,note_off,0,0,0,,4,,,52,127
116781,note_on,3,0,0,,10,,,81,127
116781,note_on,0,0,0,,5,,,53,127
116860,note_off,79,0,0,,10,,,81,127
116866,note_on,6,0,0,,7,,,79,127
116945,note_off,79,0,0,,7,,,79,127
116945,note_off,0,0,0,,5,,,53,127
116948,note_on,3,0,0,,10,,,81,127
116948,note_on,0,0,0,,5,,,53,127
117027,note_off,79,0,0,,10,,,81,127
117033,note_on,6,0,0,,11,,,82,127
117112,note_off,79,0,0,,11,,,82,127
117112,note_off,0,0,0,,5,,,53,127
117115,note_on,3,0,0,,0,,,84,127
117115,note_on,0,0,0,,5,,,53,127
117194,note_off,79,0,0,,0,,,84,127
117200,note_on,6,0,0,,10,,,81,127
117279,note_off,79,0,0,,10,,,81,127
117279,note_off,0,0,0,,5,,,53,127
117282,note_on,3,0,0,,7,,,79,127
117282,note_on,0,0,0,,5,,,53,127
117361,note_off,79,0,0,,7,,,79,127
117367,note_on,6,0,0,,5,,,77,127
117446,note_off,79,0,0,,5,,,77,127
117446,note_off,0,0,0,,5,,,53,127
117450,note_on,4,0,0,,3,,,75,127
117450,note_on,0,0,0,,7,,,55,127
117529,note_off,79,0,0,,3,,,75,127
117534,note_on,5,0,0,,5,,,77,127
117613,note_off,79,0,0,,5,,,77,127
117614,note_off,1,0,0,,7,,,55,127
117618,note_on,4,0,0,,7,,,79,127
117618,note_on,0,0,0,,7,,,55,127
117697,note_off,79,0,0,,7,,,79,127
117701,note_on,4,0,0,,10,,,81,127
117780,note_off,79,0,0,,10,,,81,127
117782,note_off,2,0,0,,7,,,55,127
117785,note_on,3,0,0,,11,,,82,127
117785,note_on,0,0,0,,7,,,55,127
117864,note_off,79,0,0,,11,,,82,127
117867,note_on,3,0,0,,7,,,79,127
117946,note_off,79,0,0,,7,,,79,127
117949,note_off,3,0,0,,7,,,55,127
117952,note_on,3,0,0,,5,,,77,127
117952,note_on,0,0,0,,10,,,57,127
118031,note_off,79,0,0,,5,,,77,127
118035,note_on,4,0,0,,3,,,75,127
118114,note_off,79,0,0,,3,,,75,127
118116,note_off,2,0,0,,10,,,57,127
118119,note_on,3,0,0,,2,,,74,127
118119,note_on,0,0,0,,11,,,58,127
118198,note_off,79,0,0,,2,,,74,127
118202,note_on,4,0,0,,0,,,72,127
118281,note_off,79,0,0,,0,,,72,127
118283,note_off,2,0,0,,11,,,58,127
118286,note_on,3,0,0,,2,,,74,127
118286,note_on,0,0,0,,11,,,58,127
118365,note_off,79,0,0,,2,,,74,127
118369,note_on,4,0,0,,3,,,75,127
118448,note_off,79,0,0,,3,,,75,127
118450,note_off,2,0,0,,11,,,58,127
118453,note_on,3,0,0,,5,,,77,127
118453,note_on,0,0,0,,11,,,58,127
118532,note_off,79,0,0,,5,,,77,127
118536,note_on,4,0,0,,2,,,74,127
118615,note_off,79,0,0,,2,,,74,127
118617,note_off,2,0,0,,11,,,58,127
118621,note_on,4,0,0,,0,,,72,127
118621,note_on,0,0,0,,11,,,58,127
118700,note_off,79,0,0,,0,,,72,127
118703,note_on,3,0,0,,11,,,70,127
118782,note_off,79,0,0,,11,,,70,127
118785,note_off,3,0,0,,11,,,58,127
118788,note_on,3,0,0,,0,,,72,127
118788,note_on,0,0,0,,10,,,57,127
118867,note_off,79,0,0,,0,,,72,127
118870,note_on,3,0,0,,2,,,74,127
118949,note_off,79,0,0,,2,,,74,127
118952,note_off,3,0,0,,10,,,57,127
118954,note_on,2,0,0,,3,,,75,127
118954,note_on,0,0,0,,5,,,53,127
119033,note_off,79,0,0,,3,,,75,127
119037,note_on,4,0,0,,5,,,77,127
119116,note_off,79,0,0,,5,,,77,127
119118,note_off,2,0,0,,5,,,53,127
119121,note_on,3,0,0,,7,,,79,127
119121,note_on,0,0,0,,5,,,53,127
119200,note_off,79,0,0,,7,,,79,127
119206,note_on,6,0,0,,3,,,75,127
119285,note_off,79,0,0,,3,,,75,127
119285,note_off,0,0,0,,5,,,53,127
119288,note_on,3,0,0,,2,,,74,127
119288,note_on,0,0,0,,10,,,57,127
119367,note_off,79,0,0,,2,,,74,127
119373,note_on,6,0,0,,0,,,72,127
119452,note_off,79,0,0,,0,,,72,127
119452,note_off,0,0,0,,10,,,57,127
119455,note_on,3,0,0,,2,,,74,127
119455,note_on,0,0,0,,11,,,58,127
119534,note_off,79,0,0,,2,,,74,127
119540,note_on,6,0,0,,0,,,72,127
119619,note_off,79,0,0,,0,,,72,127
119619,note_off,0,0,0,,11,,,58,127
119622,note_on,3,0,0,,2,,,74,127
119622,note_on,0,0,0,,11,,,58,127
119701,note_off,79,0,0,,2,,,74,127
119707,note_on,6,0,0,,3,,,75,127
119786,note_off,79,0,0,,3,,,75,127
119786,note_off,0,0,0,,11,,,58,127
119789,note_on,3,0,0,,5,,,77,127
119789,note_on,0,0,0,,11,,,58,127
119868,note_off,79,0,0,,5,,,77,127
119874,note_on,6,0,0,,2,,,74,127
119953,note_off,79,0,0,,2,,,74,127
119953,note_off,0,0,0,,11,,,58,127
119957,note_on,4,0,0,,0,,,72,127
119957,note_on,0,0,0,,11,,,58,127
120036,note_off,79,0,0,,0,,,72,127
120041,note_on,5,0,0,,12,,,71,127
120120,note_off,79,0,0,,12,,,71,127
120121,note_off,1,0,0,,11,,,58,127
120124,note_on,3,0,0,,0,,,72,127
120124,note_on,0,0,0,,10,,,57,127
120203,note_off,79,0,0,,0,,,72,127
120208,note_on,5,0,0,,2,,,74,127
120287,note_off,79,0,0,,2,,,74,127
120288,note_off,1,0,0,,10,,,57,127
120291,note_on,3,0,0,,3,,,75,127
120291,note_on,0,0,0,,5,,,53,127
120370,note_off,79,0,0,,3,,,75,127
120375,note_on,5,0,0,,5,,,77,127
120454,note_off,79,0,0,,5,,,77,127
120455,note_off,1,0,0,,5,,,53,127
120458,note_on,3,0,0,,7,,,79,127
120458,note_on,0,0,0,,5,,,53,127
120537,note_off,79,0,0,,7,,,79,127
120542,note_on,5,0,0,,3,,,75,127
120621,note_off,79,0,0,,3,,,75,127
120622,note_off,1,0,0,,5,,,53,127
120625,note_on,3,0,0,,2,,,74,127
120625,note_on,0,0,0,,10,,,57,127
120704,note_off,79,0,0,,2,,,74,127
120712,note_on,8,0,0,,0,,,72,127
120797,note_off,85,0,0,,10,,,57,127
120807,note_off,10,0,0,,0,,,72,127
120807,note_on,0,0,0,,11,,,58,127
120807,note_on,0,0,0,,11,,,82,127
120886,note_off,79,0,0,,11,,,82,127
120890,note_on,4,0,0,,10,,,81,127
120969,note_off,79,0,0,,10,,,81,127
120971,note_off,2,0,0,,11,,,58,127
120974,note_on,3,0,0,,2,,,50,127
120974,note_on,0,0,0,,7,,,79,127
121053,note_off,79,0,0,,7,,,79,127
121057,note_on,4,0,0,,5,,,77,127
121136,note_off,79,0,0,,5,,,77,127
121138,note_off,2,0,0,,2,,,50,127
121142,note_on,4,0,0,,3,,,51,127
121142,note_on,0,0,0,,3,,,75,127
121221,note_off,79,0,0,,3,,,75,127
121224,note_on,3,0,0,,2,,,74,127
121303,note_off,79,0,0,,2,,,74,127
121306,note_off,3,0,0,,3,,,51,127
121309,note_on,3,0,0,,7,,,55,127
121309,note_on,0,0,0,,0,,,72,127
121388,note_off,79,0,0,,0,,,72,127
121391,note_on,3,0,0,,11,,,70,127
121470,note_off,79,0,0,,11,,,70,127
121473,note_off,3,0,0,,7,,,55,127
121476,note_on,3,0,0,,5,,,53,127
121476,note_on,0,0,0,,0,,,72,127
121555,note_off,79,0,0,,0,,,72,127
121558,note_on,3,0,0,,11,,,70,127
121637,note_off,79,0,0,,11,,,70,127
121640,note_off,3,0,0,,5,,,53,127
121643,note_on,3,0,0,,5,,,53,127
121643,note_on,0,0,0,,10,,,69,127
121722,note_off,79,0,0,,10,,,69,127
121725,note_on,3,0,0,,7,,,67,127
121804,note_off,79,0,0,,7,,,67,127
121807,note_off,3,0,0,,5,,,53,127
121810,note_on,3,0,0,,5,,,53,127
121810,note_on,0,0,0,,5,,,65,127
121889,note_off,79,0,0,,5,,,65,127
121894,note_on,5,0,0,,3,,,63,127
121973,note_off,79,0,0,,3,,,63,127
121974,note_off,1,0,0,,5,,,53,127
121977,note_on,3,0,0,,5,,,53,127
121977,note_on,0,0,0,,2,,,62,127
122056,note_off,79,0,0,,2,,,62,127
122061,note_on,5,0,0,,0,,,60,127
122140,note_off,79,0,0,,0,,,60,127
122141,note_off,1,0,0,,5,,,53,127
122143,note_on,2,0,0,,7,,,55,127
122143,note_on,0,0,0,,11,,,58,127
122222,note_off,79,0,0,,11,,,58,127
122228,note_on,6,0,0,,10,,,57,127
122307,note_off,79,0,0,,10,,,57,127
122307,note_off,0,0,0,,7,,,55,127
122310,note_on,3,0,0,,5,,,53,127
122310,note_on,0,0,0,,11,,,58,127
122389,note_off,79,0,0,,11,,,58,127
122395,note_on,6,0,0,,12,,,59,127
122474,note_off,79,0,0,,12,,,59,127
122474,note_off,0,0,0,,5,,,53,127
122478,note_on,4,0,0,,3,,,51,127
122478,note_on,0,0,0,,0,,,60,127
122557,note_off,79,0,0,,0,,,60,127
122562,note_on,5,0,0,,12,,,59,127
122641,note_off,79,0,0,,12,,,59,127
122642,note_off,1,0,0,,3,,,51,127
122645,note_on,3,0,0,,2,,,50,127
122645,note_on,0,0,0,,0,,,60,127
122724,note_off,79,0,0,,0,,,60,127
122729,note_on,5,0,0,,2,,,62,127
122808,note_off,79,0,0,,2,,,62,127
122809,note_off,1,0,0,,2,,,50,127
122812,note_on,3,0,0,,0,,,48,127
122812,note_on,0,0,0,,3,,,63,127
122891,note_off,79,0,0,,3,,,63,127
122896,note_on,5,0,0,,2,,,62,127
122975,note_off,79,0,0,,2,,,62,127
122976,note_off,1,0,0,,0,,,48,127
122979,note_on,3,0,0,,11,,,46,127
122979,note_on,0,0,0,,3,,,63,127
123058,note_off,79,0,0,,3,,,63,127
123064,note_on,6,0,0,,4,,,64,127
123143,note_off,79,0,0,,4,,,64,127
123143,note_off,0,0,0,,11,,,46,127
123146,note_on,3,0,0,,10,,,45,127
123146,note_on,0,0,0,,5,,,65,127
123225,note_off,79,0,0,,5,,,65,127
123230,note_on,5,0,0,,4,,,64,127
123309,note_off,79,0,0,,4,,,64,127
123310,note_off,1,0,0,,10,,,45,127
123313,note_on,3,0,0,,7,,,43,127
123313,note_on,0,0,0,,5,,,65,127
123392,note_off,79,0,0,,5,,,65,127
123397,note_on,5,0,0,,7,,,67,127
123476,note_off,79,0,0,,7,,,67,127
123477,note_off,1,0,0,,7,,,43,127
123480,note_on,3,0,0,,5,,,41,127
123480,note_on,0,0,0,,10,,,69,127
123559,note_off,79,0,0,,10,,,69,127
123564,note_on,5,0,0,,11,,,70,127
123643,note_off,79,0,0,,11,,,70,127
123644,note_off,1,0,0,,5,,,41,127
123649,note_on,5,0,0,,5,,,53,127
123649,note_on,0,0,0,,0,,,72,127
123728,note_off,79,0,0,,0,,,72,127
123731,note_on,3,0,0,,2,,,74,127
123810,note_off,79,0,0,,2,,,74,127
123813,note_off,3,0,0,,5,,,53,127
123816,note_on,3,0,0,,5,,,53,127
123816,note_on,0,0,0,,3,,,75,127
123895,note_off,79,0,0,,3,,,75,127
123898,note_on,3,0,0,,0,,,72,127
123977,note_off,79,0,0,,0,,,72,127
123980,note_off,3,0,0,,5,,,53,127
123983,note_on,3,0,0,,3,,,51,127
123983,note_on,0,0,0,,11,,,70,127
124062,note_off,79,0,0,,11,,,70,127
124065,note_on,3,0,0,,10,,,69,127
124144,note_off,79,0,0,,10,,,69,127
124147,note_off,3,0,0,,3,,,51,127
124150,note_on,3,0,0,,2,,,50,127
124150,note_on,0,0,0,,5,,,77,127
124229,note_off,79,0,0,,5,,,77,127
124232,note_on,3,0,0,,2,,,74,127
124311,note_off,79,0,0,,2,,,74,127
124314,note_off,3,0,0,,2,,,50,127
124317,note_on,3,0,0,,3,,,51,127
124317,note_on,0,0,0,,7,,,79,127
124396,note_off,79,0,0,,7,,,79,127
124400,note_on,4,0,0,,3,,,75,127
124479,note_off,79,0,0,,3,,,75,127
124481,note_off,2,0,0,,3,,,51,127
124484,note_on,3,0,0,,5,,,53,127
124484,note_on,0,0,0,,2,,,74,127
124563,note_off,79,0,0,,2,,,74,127
124567,note_on,4,0,0,,0,,,72,127
124646,note_off,79,0,0,,0,,,72,127
124648,note_off,2,0,0,,5,,,53,127
124651,note_on,3,0,0,,5,,,53,127
124651,note_on,0,0,0,,11,,,70,127
124730,note_off,79,0,0,,11,,,70,127
124734,note_on,4,0,0,,10,,,69,127
124813,note_off,79,0,0,,10,,,69,127
124815,note_off,2,0,0,,5,,,53,127
124818,note_on,3,0,0,,7,,,55,127
124818,note_on,0,0,0,,11,,,70,127
124897,note_off,79,0,0,,11,,,70,127
124901,note_on,4,0,0,,10,,,69,127
124980,note_off,79,0,0,,10,,,69,127
124982,note_off,2,0,0,,7,,,55,127
124985,note_on,3,0,0,,5,,,53,127
124985,note_on,0,0,0,,11,,,70,127
125064,note_off,79,0,0,,11,,,70,127
125069,note_on,5,0,0,,12,,,71,127
125148,note_off,79,0,0,,12,,,71,127
125149,note_off,1,0,0,,5,,,53,127
125152,note_on,3,0,0,,3,,,51,127
125152,note_on,0,0,0,,0,,,72,127
125231,note_off,79,0,0,,0,,,72,127
125236,note_on,5,0,0,,12,,,71,127
125315,note_off,79,0,0,,12,,,71,127
125316,note_off,1,0,0,,3,,,51,127
125319,note_on,3,0,0,,2,,,50,127
125319,note_on,0,0,0,,0,,,72,127
125398,note_off,79,0,0,,0,,,72,127
125403,note_on,5,0,0,,2,,,74,127
125482,note_off,79,0,0,,2,,,74,127
125483,note_off,1,0,0,,2,,,50,127
125486,note_on,3,0,0,,0,,,48,127
125486,note_on,0,0,0,,3,,,75,127
125565,note_off,79,0,0,,3,,,75,127
125571,note_on,6,0,0,,2,,,74,127
125650,note_off,79,0,0,,2,,,74,127
125650,note_off,0,0,0,,0,,,48,127
125653,note_on,3,0,0,,11,,,46,127
125653,note_on,0,0,0,,3,,,75,127
125732,note_off,79,0,0,,3,,,75,127
125738,note_on,6,0,0,,4,,,76,127
125817,note_off,79,0,0,,4,,,76,127
125817,note_off,0,0,0,,11,,,46,127
125820,note_on,3,0,0,,10,,,45,127
125820,note_on,0,0,0,,5,,,77,127
125899,note_off,79,0,0,,5,,,77,127
125905,note_on,6,0,0,,4,,,76,127
125984,note_off,79,0,0,,4,,,76,127
125984,note_off,0,0,0,,10,,,45,127
125987,note_on,3,0,0,,7,,,43,127
125987,note_on,0,0,0,,5,,,77,127
126066,note_off,79,0,0,,5,,,77,127
126072,note_on,6,0,0,,7,,,79,127
126151,note_off,79,0,0,,7,,,79,127
126151,note_off,0,0,0,,7,,,43,127
126154,note_on,3,0,0,,5,,,53,127
126154,note_on,0,0,0,,10,,,81,127
126233,note_off,79,0,0,,10,,,81,127
126239,note_on,6,0,0,,5,,,77,127
126318,note_off,79,0,0,,5,,,77,127
126318,note_off,0,0,0,,5,,,53,127
126323,note_on,5,0,0,,3,,,51,127
126323,note_on,0,0,0,,7,,,79,127
126402,note_off,79,0,0,,7,,,79,127
126405,note_on,3,0,0,,10,,,81,127
126484,note_off,79,0,0,,10,,,81,127
126487,note_off,3,0,0,,3,,,51,127
126490,note_on,3,0,0,,2,,,50,127
126490,note_on,0,0,0,,11,,,82,127
126569,note_off,79,0,0,,11,,,82,127
126572,note_on,3,0,0,,10,,,81,127
126651,note_off,79,0,0,,10,,,81,127
126654,note_off,3,0,0,,2,,,50,127
126657,note_on,3,0,0,,11,,,46,127
126657,note_on,0,0,0,,7,,,79,127
126736,note_off,79,0,0,,7,,,79,127
126739,note_on,3,0,0,,5,,,77,127
126818,note_off,79,0,0,,5,,,77,127
126821,note_off,3,0,0,,11,,,46,127
126824,note_on,3,0,0,,3,,,51,127
126824,note_on,0,0,0,,3,,,75,127
126903,note_off,79,0,0,,3,,,75,127
126907,note_on,4,0,0,,7,,,79,127
126986,note_off,79,0,0,,7,,,79,127
126988,note_off,2,0,0,,3,,,51,127
126991,note_on,3,0,0,,3,,,51,127
126991,note_on,0,0,0,,5,,,77,127
127070,note_off,79,0,0,,5,,,77,127
127074,note_on,4,0,0,,3,,,75,127
127153,note_off,79,0,0,,3,,,75,127
127155,note_off,2,0,0,,3,,,51,127
127158,note_on,3,0,0,,5,,,53,127
127158,note_on,0,0,0,,2,,,74,127
127237,note_off,79,0,0,,2,,,74,127
127241,note_on,4,0,0,,0,,,72,127
127320,note_off,79,0,0,,0,,,72,127
127322,note_off,2,0,0,,5,,,53,127
127325,note_on,3,0,0,,5,,,41,127
127325,note_on,0,0,0,,11,,,70,127
127404,note_off,79,0,0,,11,,,70,127
127408,note_on,4,0,0,,10,,,69,127
127489,note_off,81,0,0,,5,,,41,127
127494,note_off,5,0,0,,10,,,69,127
127497,note_on,3,0,0,,11,,,70,127
127497,note_on,0,0,0,,11,,,58,127
127583,note_off,86,0,0,,11,,,58,127
127585,note_on,2,0,0,,0,,,60,127
127671,note_off,86,0,0,,0,,,60,127
127671,note_off,0,0,0,,11,,,70,127
127675,note_on,4,0,0,,2,,,74,127
127675,note_on,0,0,0,,11,,,70,127
127675,note_on,0,0,0,,2,,,62,127
127761,note_off,86,0,0,,2,,,62,127
127765,note_on,4,0,0,,3,,,63,127
127851,note_off,86,0,0,,3,,,63,127
127852,note_on,1,0,0,,5,,,65,127
127938,note_off,86,0,0,,5,,,65,127
127942,note_on,4,0,0,,5,,,53,127
128027,note_off,85,0,0,,11,,,70,127
128027,note_off,0,0,0,,2,,,74,127
128028,note_off,1,0,0,,5,,,53,127
128031,note_on,3,0,0,,10,,,69,127
128031,note_on,0,0,0,,0,,,72,127
128031,note_on,0,0,0,,7,,,55,127
128117,note_off,86,0,0,,7,,,55,127
128120,note_on,3,0,0,,10,,,57,127
128204,note_off,84,0,0,,0,,,72,127
128204,note_off,0,0,0,,10,,,69,127
128206,note_off,2,0,0,,10,,,57,127
128208,note_on,2,0,0,,11,,,58,127
128294,note_off,86,0,0,,11,,,58,127
128297,note_on,3,0,0,,0,,,60,127
128383,note_off,86,0,0,,0,,,60,127
128388,note_on,5,0,0,,2,,,74,127
128388,note_on,0,0,0,,11,,,70,127
128388,note_on,0,0,0,,2,,,62,127
128474,note_off,86,0,0,,2,,,62,127
128476,note_on,2,0,0,,3,,,63,127
128562,note_off,86,0,0,,3,,,63,127
128565,note_on,3,0,0,,5,,,65,127
128651,note_off,86,0,0,,5,,,65,127
128653,note_on,2,0,0,,5,,,53,127
128739,note_off,86,0,0,,5,,,53,127
128740,note_off,1,0,0,,11,,,70,127
128740,note_off,0,0,0,,2,,,74,127
128743,note_on,3,0,0,,0,,,72,127
128743,note_on,0,0,0,,10,,,69,127
128743,note_on,0,0,0,,7,,,55,127
128829,note_off,86,0,0,,7,,,55,127
128833,note_on,4,0,0,,10,,,57,127
128917,note_off,84,0,0,,10,,,69,127
128917,note_off,0,0,0,,0,,,72,127
128919,note_off,2,0,0,,10,,,57,127
128920,note_on,1,0,0,,2,,,74,127
128920,note_on,0,0,0,,11,,,58,127
129006,note_off,86,0,0,,2,,,74,127
129010,note_on,4,0,0,,5,,,77,127
129094,note_off,84,0,0,,11,,,58,127
129096,note_off,2,0,0,,5,,,77,127
129099,note_on,3,0,0,,3,,,75,127
129099,note_on,0,0,0,,3,,,51,127
129185,note_off,86,0,0,,3,,,75,127
129188,note_on,3,0,0,,0,,,72,127
129273,note_off,85,0,0,,3,,,51,127
129274,note_off,1,0,0,,0,,,72,127
129276,note_on,2,0,0,,2,,,74,127
129276,note_on,0,0,0,,5,,,53,127
129362,note_off,86,0,0,,2,,,74,127
129366,note_on,4,0,0,,11,,,70,127
129450,note_off,84,0,0,,5,,,53,127
129452,note_off,2,0,0,,11,,,70,127
129456,note_on,4,0,0,,0,,,72,127
129456,note_on,0,0,0,,5,,,41,127
129542,note_off,86,0,0,,0,,,72,127
129544,note_on,2,0,0,,10,,,69,127
129630,note_off,86,0,0,,5,,,41,127
129636,note_off,6,0,0,,10,,,69,127
129640,note_on,4,0,0,,11,,,46,127
129640,note_on,0,0,0,,11,,,70,127
129731,note_off,91,0,0,,11,,,46,127
129735,note_on,4,0,0,,0,,,48,127
129826,note_off,91,0,0,,0,,,48,127
129827,note_off,1,0,0,,11,,,70,127
129831,note_on,4,0,0,,2,,,50,127
129831,note_on,0,0,0,,5,,,77,127
129831,note_on,0,0,0,,2,,,74,127
129922,note_off,91,0,0,,2,,,50,127
129927,note_on,5,0,0,,3,,,51,127
130018,note_off,91,0,0,,3,,,51,127
130024,note_on,6,0,0,,5,,,53,127
130115,note_off,91,0,0,,5,,,53,127
130118,note_on,3,0,0,,5,,,41,127
130209,note_off,91,0,0,,5,,,41,127
130209,note_off,0,0,0,,2,,,74,127
130209,note_off,0,0,0,,5,,,77,127
130213,note_on,4,0,0,,7,,,43,127
130213,note_on,0,0,0,,0,,,72,127
130213,note_on,0,0,0,,3,,,75,127
130304,note_off,91,0,0,,7,,,43,127
130310,note_on,6,0,0,,10,,,45,127
130400,note_off,90,0,0,,3,,,75,127
130400,note_off,0,0,0,,0,,,72,127
130402,note_off,2,0,0,,10,,,45,127
130408,note_on,6,0,0,,11,,,46,127
130499,note_off,91,0,0,,11,,,46,127
130503,note_on,4,0,0,,0,,,48,127
130594,note_off,91,0,0,,0,,,48,127
130598,note_on,4,0,0,,2,,,50,127
130598,note_on,0,0,0,,5,,,77,127
130598,note_on,0,0,0,,2,,,74,127
130689,note_off,91,0,0,,2,,,50,127
130694,note_on,5,0,0,,3,,,51,127
130785,note_off,91,0,0,,3,,,51,127
130789,note_on,4,0,0,,5,,,53,127
130880,note_off,91,0,0,,5,,,53,127
130885,note_on,5,0,0,,5,,,41,127
130976,note_off,91,0,0,,5,,,41,127
130976,note_off,0,0,0,,2,,,74,127
130976,note_off,0,0,0,,5,,,77,127
130980,note_on,4,0,0,,7,,,43,127
130980,note_on,0,0,0,,0,,,72,127
130980,note_on,0,0,0,,3,,,75,127
131071,note_off,91,0,0,,7,,,43,127
131075,note_on,4,0,0,,10,,,45,127
131166,note_off,91,0,0,,10,,,45,127
131167,note_off,1,0,0,,3,,,75,127
131167,note_off,0,0,0,,0,,,72,127
131171,note_on,4,0,0,,11,,,46,127
131171,note_on,0,0,0,,2,,,74,127
131262,note_off,91,0,0,,2,,,74,127
131268,note_on,6,0,0,,5,,,77,127
131358,note_off,90,0,0,,11,,,46,127
131359,note_off,1,0,0,,5,,,77,127
131363,note_on,4,0,0,,3,,,51,127
131363,note_on,0,0,0,,3,,,75,127
131454,note_off,91,0,0,,3,,,75,127
131458,note_on,4,0,0,,0,,,72,127
131549,note_off,91,0,0,,0,,,72,127
131550,note_off,1,0,0,,3,,,51,127
131554,note_on,4,0,0,,5,,,53,127
131554,note_on,0,0,0,,2,,,74,127
131645,note_off,91,0,0,,2,,,74,127
131651,note_on,6,0,0,,11,,,70,127
131741,note_off,90,0,0,,5,,,53,127
131742,note_off,1,0,0,,11,,,70,127
131747,note_on,5,0,0,,3,,,51,127
131747,note_on,0,0,0,,0,,,72,127
131838,note_off,91,0,0,,0,,,72,127
131842,note_on,4,0,0,,10,,,69,127
131934,note_off,92,0,0,,3,,,51,127
131945,note_off,11,0,0,,10,,,69,127
131950,note_on,5,0,0,,11,,,70,127
131950,note_on,0,0,0,,2,,,50,127
132058,note_on,108,0,0,,5,,,65,127
132161,note_off,103,0,0,,5,,,65,127
132162,note_off,1,0,0,,2,,,50,127
132162,note_off,0,0,0,,11,,,70,127
132168,note_on,6,0,0,,11,,,70,127
132168,note_on,0,0,0,,3,,,51,127
132277,note_on,109,0,0,,3,,,75,127
132380,note_off,103,0,0,,3,,,75,127
132380,note_off,0,0,0,,3,,,51,127
132380,note_off,0,0,0,,11,,,70,127
132386,note_on,6,0,0,,2,,,74,127
132386,note_on,0,0,0,,5,,,65,127
132386,note_on,0,0,0,,11,,,70,127
132386,note_on,0,0,0,,5,,,53,127
132608,note_off,222,0,0,,5,,,53,127
132608,note_off,0,0,0,,11,,,70,127
132608,note_off,0,0,0,,5,,,65,127
132608,note_off,0,0,0,,2,,,74,127
132658,note_on,50,0,0,,5,,,41,127
132658,note_on,0,0,0,,5,,,65,127
132658,note_on,0,0,0,,10,,,69,127
132658,note_on,0,0,0,,0,,,72,127
132870,note_off,212,0,0,,0,,,72,127
132870,note_off,0,0,0,,10,,,69,127
132870,note_off,0,0,0,,5,,,65,127
132870,note_off,0,0,0,,5,,,41,127
132970,note_on,100,0,0,,11,,,70,127
132970,note_on,0,0,0,,11,,,46,127
135042,note_off,2072,0,0,,11,,,46,127
135042,note_off,0,0,0,,11,,,70,127
141312,end_of_track,6270,1,0,,,,,,
