tick,type,time,meta,track,program,channel,pitch,tempo,note,velocity
0,copyright,0,1,0,,,,,,
0,program_change,0,0,0,6,0,,,,
0,pitchwheel,0,0,0,,0,0,,,
0,program_change,0,0,0,6,1,,,,
0,pitchwheel,0,0,0,,1,-590,,,
0,program_change,0,0,0,6,2,,,,
0,pitchwheel,0,0,0,,2,-272,,,
0,program_change,0,0,0,6,3,,,,
0,pitchwheel,0,0,0,,3,-353,,,
0,program_change,0,0,0,6,4,,,,
0,pitchwheel,0,0,0,,4,-560,,,
0,program_change,0,0,0,6,5,,,,
0,pitchwheel,0,0,0,,5,-80,,,
0,program_change,0,0,0,6,6,,,,
0,pitchwheel,0,0,0,,6,-625,,,
0,program_change,0,0,0,6,7,,,,
0,pitchwheel,0,0,0,,7,-130,,,
0,program_change,0,0,0,6,8,,,,
0,pitchwheel,0,0,0,,8,-512,,,
0,program_change,0,0,0,6,10,,,,
0,pitchwheel,0,0,0,,10,-464,,,
0,program_change,0,0,0,6,11,,,,
0,pitchwheel,0,0,0,,11,-208,,,
0,program_change,0,0,0,6,12,,,,
0,pitchwheel,0,0,0,,12,-553,,,
0,set_tempo,0,1,0,,,,500000,,
99,note_on,99,0,0,,4,,,76,127
197,note_off,98,0,0,,4,,,76,127
198,note_on,1,0,0,,2,,,74,127
296,note_off,98,0,0,,2,,,74,127
297,note_on,1,0,0,,1,,,73,127
395,note_off,98,0,0,,1,,,73,127
396,note_on,1,0,0,,2,,,74,127
494,note_off,98,0,0,,2,,,74,127
495,note_on,1,0,0,,4,,,76,127
693,note_off,198,0,0,,4,,,76,127
694,note_on,1,0,0,,10,,,69,127
892,note_off,198,0,0,,10,,,69,127
893,note_on,1,0,0,,4,,,64,127
893,note_on,0,0,0,,7,,,79,127
991,note_off,98,0,0,,7,,,79,127
991,note_off,0,0,0,,4,,,64,127
992,note_on,1,0,0,,2,,,62,127
992,note_on,0,0,0,,6,,,78,127
1090,note_off,98,0,0,,6,,,78,127
1090,note_off,0,0,0,,2,,,62,127
1091,note_on,1,0,0,,1,,,61,127
1091,note_on,0,0,0,,4,,,76,127
1189,note_off,98,0,0,,4,,,76,127
1189,note_off,0,0,0,,1,,,61,127
1190,note_on,1,0,0,,2,,,62,127
1190,note_on,0,0,0,,6,,,78,127
1288,note_off,98,0,0,,6,,,78,127
1288,note_off,0,0,0,,2,,,62,127
1289,note_on,1,0,0,,4,,,64,127
1289,note_on,0,0,0,,7,,,79,127
1487,note_off,198,0,0,,7,,,79,127
1487,note_off,0,0,0,,4,,,64,127
1488,note_on,1,0,0,,10,,,57,127
1488,note_on,0,0,0,,10,,,81,127
1686,note_off,198,0,0,,10,,,81,127
1686,note_off,0,0,0,,10,,,57,127
1687,note_on,1,0,0,,7,,,67,127
1687,note_on,0,0,0,,4,,,76,127
1785,note_off,98,0,0,,4,,,76,127
1785,note_off,0,0,0,,7,,,67,127
1786,note_on,1,0,0,,6,,,66,127
1786,note_on,0,0,0,,2,,,74,127
1884,note_off,98,0,0,,2,,,74,127
1884,note_off,0,0,0,,6,,,66,127
1885,note_on,1,0,0,,4,,,64,127
1885,note_on,0,0,0,,1,,,73,127
1983,note_off,98,0,0,,1,,,73,127
1983,note_off,0,0,0,,4,,,64,127
1984,note_on,1,0,0,,6,,,66,127
1984,note_on,0,0,0,,2,,,74,127
2082,note_off,98,0,0,,2,,,74,127
2082,note_off,0,0,0,,6,,,66,127
2083,note_on,1,0,0,,7,,,67,127
2083,note_on,0,0,0,,4,,,76,127
2281,note_off,198,0,0,,4,,,76,127
2281,note_off,0,0,0,,7,,,67,127
2282,note_on,1,0,0,,4,,,64,127
2282,note_on,0,0,0,,1,,,73,127
2480,note_off,198,0,0,,1,,,73,127
2480,note_off,0,0,0,,4,,,64,127
2481,note_on,1,0,0,,6,,,66,127
2481,note_on,0,0,0,,2,,,74,127
2679,note_off,198,0,0,,2,,,74,127
2679,note_off,0,0,0,,6,,,66,127
2680,note_on,1,0,0,,2,,,62,127
2680,note_on,0,0,0,,10,,,81,127
2778,note_off,98,0,0,,10,,,81,127
2779,note_on,1,0,0,,6,,,78,127
2877,note_off,98,0,0,,6,,,78,127
2877,note_off,0,0,0,,2,,,62,127
2878,note_on,1,0,0,,12,,,59,127
2878,note_on,0,0,0,,6,,,78,127
3076,note_off,198,0,0,,6,,,78,127
3076,note_off,0,0,0,,12,,,59,127
3077,note_on,1,0,0,,1,,,61,127
3077,note_on,0,0,0,,7,,,79,127
3175,note_off,98,0,0,,7,,,79,127
3176,note_on,1,0,0,,4,,,76,127
3274,note_off,98,0,0,,4,,,76,127
3274,note_off,0,0,0,,1,,,61,127
3275,note_on,1,0,0,,2,,,62,127
3275,note_on,0,0,0,,4,,,76,127
3473,note_off,198,0,0,,4,,,76,127
3473,note_off,0,0,0,,2,,,62,127
3474,note_on,1,0,0,,6,,,54,127
3474,note_on,0,0,0,,6,,,78,127
3572,note_off,98,0,0,,6,,,78,127
3573,note_on,1,0,0,,2,,,74,127
3671,note_off,98,0,0,,2,,,74,127
3671,note_off,0,0,0,,6,,,54,127
3672,note_on,1,0,0,,7,,,55,127
3672,note_on,0,0,0,,2,,,74,127
3870,note_off,198,0,0,,2,,,74,127
3870,note_off,0,0,0,,7,,,55,127
3871,note_on,1,0,0,,10,,,57,127
3871,note_on,0,0,0,,4,,,76,127
3969,note_off,98,0,0,,4,,,76,127
3970,note_on,1,0,0,,1,,,73,127
4068,note_off,98,0,0,,1,,,73,127
4068,note_off,0,0,0,,10,,,57,127
4069,note_on,1,0,0,,12,,,59,127
4069,note_on,0,0,0,,2,,,74,127
4167,note_off,98,0,0,,2,,,74,127
4168,note_on,1,0,0,,10,,,81,127
4266,note_off,98,0,0,,10,,,81,127
4266,note_off,0,0,0,,12,,,59,127
4267,note_on,1,0,0,,7,,,55,127
4267,note_on,0,0,0,,7,,,79,127
4365,note_off,98,0,0,,7,,,79,127
4366,note_on,1,0,0,,6,,,78,127
4464,note_off,98,0,0,,6,,,78,127
4464,note_off,0,0,0,,7,,,55,127
4465,note_on,1,0,0,,1,,,61,127
4465,note_on,0,0,0,,4,,,76,127
4563,note_off,98,0,0,,1,,,61,127
4564,note_on,1,0,0,,12,,,59,127
4662,note_off,98,0,0,,12,,,59,127
4662,note_off,0,0,0,,4,,,76,127
4663,note_on,1,0,0,,10,,,57,127
4663,note_on,0,0,0,,4,,,76,127
4761,note_off,98,0,0,,10,,,57,127
4762,note_on,1,0,0,,7,,,55,127
4860,note_off,98,0,0,,7,,,55,127
4860,note_off,0,0,0,,4,,,76,127
4861,note_on,1,0,0,,6,,,54,127
4861,note_on,0,0,0,,10,,,69,127
4960,note_on,99,0,0,,10,,,81,127
5010,note_off,50,0,0,,10,,,69,127
5059,note_off,49,0,0,,10,,,81,127
5059,note_off,0,0,0,,6,,,54,127
5060,note_on,1,0,0,,2,,,62,127
5060,note_on,0,0,0,,7,,,79,127
5158,note_off,98,0,0,,7,,,79,127
5159,note_on,1,0,0,,6,,,78,127
5257,note_off,98,0,0,,6,,,78,127
5257,note_off,0,0,0,,2,,,62,127
5258,note_on,1,0,0,,1,,,61,127
5258,note_on,0,0,0,,4,,,76,127
5356,note_off,98,0,0,,1,,,61,127
5357,note_on,1,0,0,,12,,,59,127
5455,note_off,98,0,0,,12,,,59,127
5455,note_off,0,0,0,,4,,,76,127
5456,note_on,1,0,0,,10,,,57,127
5456,note_on,0,0,0,,4,,,76,127
5554,note_off,98,0,0,,10,,,57,127
5555,note_on,1,0,0,,7,,,55,127
5653,note_off,98,0,0,,7,,,55,127
5653,note_off,0,0,0,,4,,,76,127
5654,note_on,1,0,0,,6,,,54,127
5654,note_on,0,0,0,,10,,,69,127
5753,note_on,99,0,0,,10,,,81,127
5803,note_off,50,0,0,,10,,,69,127
5852,note_off,49,0,0,,10,,,81,127
5852,note_off,0,0,0,,6,,,54,127
5853,note_on,1,0,0,,2,,,50,127
5853,note_on,0,0,0,,7,,,79,127
5951,note_off,98,0,0,,7,,,79,127
5952,note_on,1,0,0,,6,,,78,127
6050,note_off,98,0,0,,6,,,78,127
6050,note_off,0,0,0,,2,,,50,127
6051,note_on,1,0,0,,7,,,55,127
6051,note_on,0,0,0,,12,,,83,127
6249,note_off,198,0,0,,12,,,83,127
6249,note_off,0,0,0,,7,,,55,127
6250,note_on,1,0,0,,7,,,67,127
6250,note_on,0,0,0,,2,,,74,127
6448,note_off,198,0,0,,2,,,74,127
6448,note_off,0,0,0,,7,,,67,127
6449,note_on,1,0,0,,7,,,67,127
6449,note_on,0,0,0,,1,,,73,127
6647,note_off,198,0,0,,1,,,73,127
6647,note_off,0,0,0,,7,,,67,127
6648,note_on,1,0,0,,6,,,66,127
6648,note_on,0,0,0,,2,,,74,127
6846,note_off,198,0,0,,2,,,74,127
6846,note_off,0,0,0,,6,,,66,127
6847,note_on,1,0,0,,4,,,64,127
6847,note_on,0,0,0,,4,,,76,127
7045,note_off,198,0,0,,4,,,64,127
7046,note_on,1,0,0,,1,,,61,127
7111,note_off,65,0,0,,4,,,76,127
7112,note_on,1,0,0,,6,,,78,127
7177,note_off,65,0,0,,6,,,78,127
7178,note_on,1,0,0,,7,,,79,127
7243,note_off,65,0,0,,7,,,79,127
7243,note_off,0,0,0,,1,,,61,127
7244,note_on,1,0,0,,2,,,62,127
7244,note_on,0,0,0,,6,,,78,127
7442,note_off,198,0,0,,6,,,78,127
7442,note_off,0,0,0,,2,,,62,127
7443,note_on,1,0,0,,6,,,54,127
7443,note_on,0,0,0,,2,,,74,127
7641,note_off,198,0,0,,2,,,74,127
7641,note_off,0,0,0,,6,,,54,127
7642,note_on,1,0,0,,7,,,55,127
7642,note_on,0,0,0,,4,,,76,127
7840,note_off,198,0,0,,7,,,55,127
7841,note_on,1,0,0,,10,,,57,127
7906,note_off,65,0,0,,4,,,76,127
7907,note_on,1,0,0,,6,,,78,127
7972,note_off,65,0,0,,6,,,78,127
7973,note_on,1,0,0,,7,,,79,127
8038,note_off,65,0,0,,7,,,79,127
8038,note_off,0,0,0,,10,,,57,127
8039,note_on,1,0,0,,2,,,62,127
8039,note_on,0,0,0,,6,,,78,127
8237,note_off,198,0,0,,6,,,78,127
8237,note_off,0,0,0,,2,,,62,127
8238,note_on,1,0,0,,6,,,54,127
8238,note_on,0,0,0,,2,,,74,127
8436,note_off,198,0,0,,2,,,74,127
8436,note_off,0,0,0,,6,,,54,127
8437,note_on,1,0,0,,7,,,55,127
8437,note_on,0,0,0,,4,,,76,127
8635,note_off,198,0,0,,7,,,55,127
8636,note_on,1,0,0,,10,,,57,127
8701,note_off,65,0,0,,4,,,76,127
8702,note_on,1,0,0,,6,,,78,127
8767,note_off,65,0,0,,6,,,78,127
8768,note_on,1,0,0,,7,,,79,127
8833,note_off,65,0,0,,7,,,79,127
8833,note_off,0,0,0,,10,,,57,127
8834,note_on,1,0,0,,2,,,50,127
8834,note_on,0,0,0,,6,,,78,127
9032,note_off,198,0,0,,6,,,78,127
9032,note_off,0,0,0,,2,,,50,127
9033,note_on,1,0,0,,6,,,54,127
9033,note_on,0,0,0,,10,,,81,127
9131,note_off,98,0,0,,10,,,81,127
9132,note_on,1,0,0,,2,,,74,127
9230,note_off,98,0,0,,2,,,74,127
9230,note_off,0,0,0,,6,,,54,127
9231,note_on,1,0,0,,4,,,52,127
9231,note_on,0,0,0,,2,,,74,127
9429,note_off,198,0,0,,2,,,74,127
9429,note_off,0,0,0,,4,,,52,127
9430,note_on,1,0,0,,7,,,55,127
9430,note_on,0,0,0,,1,,,73,127
9528,note_off,98,0,0,,1,,,73,127
9529,note_on,1,0,0,,12,,,71,127
9626,note_off,97,0,0,,7,,,55,127
9627,note_off,1,0,0,,12,,,71,127
9628,note_on,1,0,0,,10,,,69,127
9727,note_on,99,0,0,,6,,,66,127
9825,note_off,98,0,0,,6,,,66,127
9825,note_off,0,0,0,,10,,,69,127
9826,note_on,1,0,0,,4,,,64,127
9826,note_on,0,0,0,,10,,,81,127
9924,note_off,98,0,0,,4,,,64,127
9925,note_on,1,0,0,,2,,,62,127
10023,note_off,98,0,0,,2,,,62,127
10023,note_off,0,0,0,,10,,,81,127
10024,note_on,1,0,0,,1,,,61,127
10024,note_on,0,0,0,,10,,,81,127
10122,note_off,98,0,0,,1,,,61,127
10123,note_on,1,0,0,,12,,,59,127
10221,note_off,98,0,0,,12,,,59,127
10221,note_off,0,0,0,,10,,,81,127
10222,note_on,1,0,0,,10,,,57,127
10222,note_on,0,0,0,,10,,,81,127
10320,note_off,98,0,0,,10,,,57,127
10321,note_on,1,0,0,,7,,,55,127
10419,note_off,98,0,0,,7,,,55,127
10419,note_off,0,0,0,,10,,,81,127
10420,note_on,1,0,0,,6,,,54,127
10420,note_on,0,0,0,,2,,,86,127
10518,note_off,98,0,0,,2,,,86,127
10519,note_on,1,0,0,,1,,,85,127
10617,note_off,98,0,0,,1,,,85,127
10618,note_on,1,0,0,,12,,,83,127
10716,note_off,98,0,0,,12,,,83,127
10717,note_on,1,0,0,,10,,,81,127
10815,note_off,98,0,0,,10,,,81,127
10815,note_off,0,0,0,,6,,,54,127
10816,note_on,1,0,0,,7,,,55,127
10816,note_on,0,0,0,,7,,,79,127
10914,note_off,98,0,0,,7,,,79,127
10915,note_on,1,0,0,,6,,,78,127
11013,note_off,98,0,0,,6,,,78,127
11014,note_on,1,0,0,,4,,,76,127
11112,note_off,98,0,0,,4,,,76,127
11113,note_on,1,0,0,,2,,,74,127
11211,note_off,98,0,0,,2,,,74,127
11211,note_off,0,0,0,,7,,,55,127
11212,note_on,1,0,0,,10,,,69,127
11311,note_on,99,0,0,,6,,,66,127
11409,note_off,98,0,0,,6,,,66,127
11409,note_off,0,0,0,,10,,,69,127
11410,note_on,1,0,0,,4,,,64,127
11410,note_on,0,0,0,,10,,,81,127
11508,note_off,98,0,0,,4,,,64,127
11509,note_on,1,0,0,,2,,,62,127
11607,note_off,98,0,0,,2,,,62,127
11607,note_off,0,0,0,,10,,,81,127
11608,note_on,1,0,0,,1,,,61,127
11608,note_on,0,0,0,,10,,,81,127
11706,note_off,98,0,0,,1,,,61,127
11707,note_on,1,0,0,,12,,,59,127
11805,note_off,98,0,0,,12,,,59,127
11805,note_off,0,0,0,,10,,,81,127
11806,note_on,1,0,0,,10,,,57,127
11806,note_on,0,0,0,,10,,,81,127
11904,note_off,98,0,0,,10,,,57,127
11905,note_on,1,0,0,,7,,,55,127
12003,note_off,98,0,0,,7,,,55,127
12003,note_off,0,0,0,,10,,,81,127
12004,note_on,1,0,0,,6,,,54,127
12004,note_on,0,0,0,,2,,,86,127
12102,note_off,98,0,0,,2,,,86,127
12103,note_on,1,0,0,,1,,,85,127
12201,note_off,98,0,0,,1,,,85,127
12202,note_on,1,0,0,,12,,,83,127
12300,note_off,98,0,0,,12,,,83,127
12301,note_on,1,0,0,,10,,,81,127
12399,note_off,98,0,0,,10,,,81,127
12399,note_off,0,0,0,,6,,,54,127
12400,note_on,1,0,0,,7,,,55,127
12400,note_on,0,0,0,,7,,,79,127
12498,note_off,98,0,0,,7,,,79,127
12499,note_on,1,0,0,,6,,,78,127
12597,note_off,98,0,0,,6,,,78,127
12598,note_on,1,0,0,,4,,,76,127
12696,note_off,98,0,0,,4,,,76,127
12697,note_on,1,0,0,,2,,,74,127
12795,note_off,98,0,0,,2,,,74,127
12795,note_off,0,0,0,,7,,,55,127
12796,note_on,1,0,0,,10,,,45,127
12796,note_on,0,0,0,,12,,,71,127
12845,note_off,49,0,0,,12,,,71,127
12846,note_on,1,0,0,,10,,,69,127
12895,note_off,49,0,0,,10,,,69,127
12896,note_on,1,0,0,,12,,,71,127
12945,note_off,49,0,0,,12,,,71,127
12946,note_on,1,0,0,,10,,,69,127
13541,note_off,595,0,0,,10,,,69,127
13989,note_off,448,0,0,,10,,,45,127
13989,note_on,0,0,0,,4,,,64,127
13989,note_on,0,0,0,,10,,,57,127
14188,note_on,199,0,0,,4,,,76,127
14286,note_off,98,0,0,,4,,,76,127
14287,note_on,1,0,0,,0,,,72,127
14385,note_off,98,0,0,,0,,,72,127
14386,note_on,1,0,0,,0,,,72,127
14584,note_off,198,0,0,,0,,,72,127
14585,note_on,1,0,0,,5,,,77,127
14683,note_off,98,0,0,,5,,,77,127
14684,note_on,1,0,0,,2,,,74,127
14782,note_off,98,0,0,,2,,,74,127
14782,note_off,0,0,0,,10,,,57,127
14782,note_off,0,0,0,,4,,,64,127
14783,note_on,1,0,0,,2,,,74,127
14783,note_on,0,0,0,,5,,,65,127
14783,note_on,0,0,0,,10,,,57,127
14981,note_off,198,0,0,,2,,,74,127
14982,note_on,1,0,0,,12,,,83,127
15080,note_off,98,0,0,,12,,,83,127
15081,note_on,1,0,0,,8,,,80,127
15179,note_off,98,0,0,,8,,,80,127
15180,note_on,1,0,0,,8,,,80,127
15278,note_off,98,0,0,,8,,,80,127
15279,note_on,1,0,0,,2,,,86,127
15377,note_off,98,0,0,,2,,,86,127
15378,note_on,1,0,0,,0,,,84,127
15476,note_off,98,0,0,,0,,,84,127
15477,note_on,1,0,0,,12,,,83,127
15575,note_off,98,0,0,,12,,,83,127
15575,note_off,0,0,0,,10,,,57,127
15575,note_off,0,0,0,,5,,,65,127
15576,note_on,1,0,0,,0,,,84,127
15576,note_on,0,0,0,,10,,,57,127
15576,note_on,0,0,0,,4,,,64,127
15774,note_off,198,0,0,,0,,,84,127
15775,note_on,1,0,0,,4,,,76,127
15873,note_off,98,0,0,,4,,,76,127
15874,note_on,1,0,0,,0,,,72,127
15972,note_off,98,0,0,,0,,,72,127
15973,note_on,1,0,0,,0,,,72,127
16171,note_off,198,0,0,,0,,,72,127
16172,note_on,1,0,0,,5,,,77,127
16270,note_off,98,0,0,,5,,,77,127
16271,note_on,1,0,0,,2,,,74,127
16369,note_off,98,0,0,,2,,,74,127
16369,note_off,0,0,0,,4,,,64,127
16369,note_off,0,0,0,,10,,,57,127
16370,note_on,1,0,0,,2,,,74,127
16370,note_on,0,0,0,,5,,,65,127
16370,note_on,0,0,0,,10,,,57,127
16568,note_off,198,0,0,,2,,,74,127
16569,note_on,1,0,0,,12,,,83,127
16667,note_off,98,0,0,,12,,,83,127
16668,note_on,1,0,0,,8,,,80,127
16766,note_off,98,0,0,,8,,,80,127
16767,note_on,1,0,0,,8,,,80,127
16865,note_off,98,0,0,,8,,,80,127
16866,note_on,1,0,0,,2,,,86,127
16964,note_off,98,0,0,,2,,,86,127
16965,note_on,1,0,0,,0,,,84,127
17063,note_off,98,0,0,,0,,,84,127
17064,note_on,1,0,0,,12,,,83,127
17162,note_off,98,0,0,,12,,,83,127
17162,note_off,0,0,0,,10,,,57,127
17162,note_off,0,0,0,,5,,,65,127
17163,note_on,1,0,0,,0,,,84,127
17163,note_on,0,0,0,,4,,,64,127
17163,note_on,0,0,0,,10,,,57,127
17361,note_off,198,0,0,,0,,,84,127
17362,note_on,1,0,0,,4,,,76,127
17460,note_off,98,0,0,,4,,,76,127
17461,note_on,1,0,0,,0,,,72,127
17559,note_off,98,0,0,,0,,,72,127
17560,note_on,1,0,0,,0,,,72,127
17758,note_off,198,0,0,,0,,,72,127
17759,note_on,1,0,0,,4,,,76,127
17857,note_off,98,0,0,,4,,,76,127
17858,note_on,1,0,0,,0,,,72,127
17956,note_off,98,0,0,,0,,,72,127
17956,note_off,0,0,0,,10,,,57,127
17956,note_off,0,0,0,,4,,,64,127
17957,note_on,1,0,0,,0,,,72,127
17957,note_on,0,0,0,,4,,,64,127
17957,note_on,0,0,0,,7,,,55,127
18155,note_off,198,0,0,,0,,,72,127
18156,note_on,1,0,0,,4,,,76,127
18254,note_off,98,0,0,,4,,,76,127
18255,note_on,1,0,0,,0,,,72,127
18353,note_off,98,0,0,,0,,,72,127
18354,note_on,1,0,0,,0,,,72,127
18552,note_off,198,0,0,,0,,,72,127
18553,note_on,1,0,0,,4,,,76,127
18651,note_off,98,0,0,,4,,,76,127
18652,note_on,1,0,0,,0,,,72,127
18750,note_off,98,0,0,,0,,,72,127
18750,note_off,0,0,0,,7,,,55,127
18750,note_off,0,0,0,,4,,,64,127
18751,note_on,1,0,0,,0,,,72,127
18751,note_on,0,0,0,,4,,,64,127
18751,note_on,0,0,0,,5,,,53,127
18849,note_off,98,0,0,,0,,,72,127
18850,note_on,1,0,0,,12,,,83,127
18948,note_off,98,0,0,,12,,,83,127
18949,note_on,1,0,0,,10,,,81,127
19047,note_off,98,0,0,,10,,,81,127
19048,note_on,1,0,0,,7,,,79,127
19146,note_off,98,0,0,,7,,,79,127
19147,note_on,1,0,0,,5,,,77,127
19245,note_off,98,0,0,,5,,,77,127
19246,note_on,1,0,0,,4,,,76,127
19344,note_off,98,0,0,,4,,,76,127
19345,note_on,1,0,0,,2,,,74,127
19443,note_off,98,0,0,,2,,,74,127
19444,note_on,1,0,0,,0,,,72,127
19542,note_off,98,0,0,,0,,,72,127
19542,note_off,0,0,0,,5,,,53,127
19542,note_off,0,0,0,,4,,,64,127
19543,note_on,1,0,0,,5,,,77,127
19543,note_on,0,0,0,,5,,,53,127
19543,note_on,0,0,0,,2,,,62,127
19641,note_off,98,0,0,,5,,,77,127
19642,note_on,1,0,0,,4,,,76,127
19740,note_off,98,0,0,,4,,,76,127
19741,note_on,1,0,0,,2,,,74,127
19839,note_off,98,0,0,,2,,,74,127
19840,note_on,1,0,0,,0,,,72,127
19938,note_off,98,0,0,,0,,,72,127
19939,note_on,1,0,0,,12,,,71,127
20037,note_off,98,0,0,,12,,,71,127
20038,note_on,1,0,0,,10,,,69,127
20136,note_off,98,0,0,,10,,,69,127
20137,note_on,1,0,0,,8,,,68,127
20235,note_off,98,0,0,,8,,,68,127
20236,note_on,1,0,0,,10,,,69,127
20334,note_off,98,0,0,,10,,,69,127
20334,note_off,0,0,0,,2,,,62,127
20334,note_off,0,0,0,,5,,,53,127
20335,note_on,1,0,0,,4,,,64,127
20335,note_on,0,0,0,,2,,,62,127
20335,note_on,0,0,0,,4,,,52,127
20533,note_off,198,0,0,,4,,,64,127
20534,note_on,1,0,0,,12,,,71,127
20632,note_off,98,0,0,,12,,,71,127
20633,note_on,1,0,0,,8,,,68,127
20731,note_off,98,0,0,,8,,,68,127
20732,note_on,1,0,0,,8,,,68,127
20930,note_off,198,0,0,,8,,,68,127
20931,note_on,1,0,0,,0,,,72,127
21029,note_off,98,0,0,,0,,,72,127
21030,note_on,1,0,0,,10,,,69,127
21128,note_off,98,0,0,,10,,,69,127
21128,note_off,0,0,0,,4,,,52,127
21128,note_off,0,0,0,,2,,,62,127
21129,note_on,1,0,0,,10,,,69,127
21129,note_on,0,0,0,,0,,,60,127
21129,note_on,0,0,0,,4,,,52,127
21327,note_off,198,0,0,,10,,,69,127
21328,note_on,1,0,0,,10,,,81,127
21426,note_off,98,0,0,,10,,,81,127
21427,note_on,1,0,0,,3,,,75,127
21525,note_off,98,0,0,,3,,,75,127
21526,note_on,1,0,0,,3,,,75,127
21724,note_off,198,0,0,,3,,,75,127
21725,note_on,1,0,0,,4,,,76,127
21823,note_off,98,0,0,,4,,,76,127
21824,note_on,1,0,0,,6,,,78,127
21922,note_off,98,0,0,,6,,,78,127
21922,note_off,0,0,0,,4,,,52,127
21922,note_off,0,0,0,,0,,,60,127
21923,note_on,1,0,0,,4,,,76,127
21923,note_on,0,0,0,,4,,,52,127
21923,note_on,0,0,0,,2,,,62,127
22121,note_off,198,0,0,,4,,,76,127
22122,note_on,1,0,0,,12,,,71,127
22220,note_off,98,0,0,,12,,,71,127
22221,note_on,1,0,0,,8,,,68,127
22319,note_off,98,0,0,,8,,,68,127
22320,note_on,1,0,0,,8,,,68,127
22518,note_off,198,0,0,,8,,,68,127
22519,note_on,1,0,0,,0,,,72,127
22617,note_off,98,0,0,,0,,,72,127
22618,note_on,1,0,0,,10,,,69,127
22716,note_off,98,0,0,,10,,,69,127
22716,note_off,0,0,0,,2,,,62,127
22716,note_off,0,0,0,,4,,,52,127
22717,note_on,1,0,0,,10,,,69,127
22717,note_on,0,0,0,,0,,,60,127
22717,note_on,0,0,0,,4,,,52,127
22915,note_off,198,0,0,,10,,,69,127
22916,note_on,1,0,0,,10,,,81,127
23014,note_off,98,0,0,,10,,,81,127
23015,note_on,1,0,0,,3,,,75,127
23113,note_off,98,0,0,,3,,,75,127
23114,note_on,1,0,0,,3,,,75,127
23312,note_off,198,0,0,,3,,,75,127
23313,note_on,1,0,0,,4,,,76,127
23411,note_off,98,0,0,,4,,,76,127
23412,note_on,1,0,0,,6,,,78,127
23510,note_off,98,0,0,,6,,,78,127
23510,note_off,0,0,0,,4,,,52,127
23510,note_off,0,0,0,,0,,,60,127
23511,note_on,1,0,0,,6,,,66,127
23511,note_on,0,0,0,,4,,,40,127
23561,note_on,50,0,0,,4,,,64,127
23578,note_off,17,0,0,,6,,,66,127
23611,note_on,33,0,0,,6,,,66,127
23628,note_off,17,0,0,,4,,,64,127
23661,note_on,33,0,0,,4,,,64,127
23678,note_off,17,0,0,,6,,,66,127
24055,note_off,377,0,0,,4,,,64,127
24506,note_off,451,0,0,,4,,,40,127
24506,note_on,0,0,0,,4,,,52,127
24605,note_on,99,0,0,,12,,,83,127
24703,note_off,98,0,0,,12,,,83,127
24704,note_on,1,0,0,,10,,,81,127
24802,note_off,98,0,0,,10,,,81,127
24803,note_on,1,0,0,,8,,,80,127
24901,note_off,98,0,0,,8,,,80,127
24902,note_on,1,0,0,,2,,,74,127
25000,note_off,98,0,0,,4,,,52,127
25001,note_on,1,0,0,,12,,,71,127
25099,note_off,98,0,0,,12,,,71,127
25100,note_on,1,0,0,,10,,,69,127
25198,note_off,98,0,0,,10,,,69,127
25199,note_on,1,0,0,,8,,,68,127
25297,note_off,98,0,0,,8,,,68,127
25298,note_on,1,0,0,,10,,,57,127
25396,note_off,98,0,0,,2,,,74,127
25397,note_on,1,0,0,,1,,,73,127
25495,note_off,98,0,0,,1,,,73,127
25496,note_on,1,0,0,,12,,,71,127
25594,note_off,98,0,0,,12,,,71,127
25595,note_on,1,0,0,,10,,,69,127
25693,note_off,98,0,0,,10,,,69,127
25694,note_on,1,0,0,,4,,,64,127
25792,note_off,98,0,0,,10,,,57,127
25793,note_on,1,0,0,,1,,,61,127
25891,note_off,98,0,0,,1,,,61,127
25892,note_on,1,0,0,,12,,,59,127
25990,note_off,98,0,0,,12,,,59,127
25991,note_on,1,0,0,,10,,,57,127
26089,note_off,98,0,0,,10,,,57,127
26090,note_on,1,0,0,,4,,,52,127
26188,note_off,98,0,0,,4,,,64,127
26189,note_on,1,0,0,,12,,,71,127
26287,note_off,98,0,0,,12,,,71,127
26288,note_on,1,0,0,,10,,,69,127
26386,note_off,98,0,0,,10,,,69,127
26387,note_on,1,0,0,,8,,,68,127
26485,note_off,98,0,0,,8,,,68,127
26486,note_on,1,0,0,,2,,,62,127
26584,note_off,98,0,0,,4,,,52,127
26585,note_on,1,0,0,,12,,,59,127
26683,note_off,98,0,0,,12,,,59,127
26684,note_on,1,0,0,,10,,,57,127
26782,note_off,98,0,0,,10,,,57,127
26783,note_on,1,0,0,,8,,,56,127
26881,note_off,98,0,0,,8,,,56,127
26882,note_on,1,0,0,,10,,,45,127
26980,note_off,98,0,0,,2,,,62,127
26981,note_on,1,0,0,,1,,,61,127
27079,note_off,98,0,0,,1,,,61,127
27080,note_on,1,0,0,,12,,,59,127
27178,note_off,98,0,0,,12,,,59,127
27179,note_on,1,0,0,,10,,,57,127
27277,note_off,98,0,0,,10,,,57,127
27278,note_on,1,0,0,,4,,,64,127
27376,note_off,98,0,0,,10,,,45,127
27377,note_on,1,0,0,,1,,,73,127
27475,note_off,98,0,0,,1,,,73,127
27476,note_on,1,0,0,,12,,,71,127
27574,note_off,98,0,0,,12,,,71,127
27575,note_on,1,0,0,,10,,,69,127
27673,note_off,98,0,0,,10,,,69,127
27674,note_on,1,0,0,,4,,,52,127
27772,note_off,98,0,0,,4,,,64,127
27773,note_on,1,0,0,,12,,,71,127
27871,note_off,98,0,0,,12,,,71,127
27872,note_on,1,0,0,,10,,,69,127
27970,note_off,98,0,0,,10,,,69,127
27971,note_on,1,0,0,,8,,,68,127
28069,note_off,98,0,0,,8,,,68,127
28070,note_on,1,0,0,,2,,,62,127
28168,note_off,98,0,0,,4,,,52,127
28169,note_on,1,0,0,,12,,,59,127
28267,note_off,98,0,0,,12,,,59,127
28268,note_on,1,0,0,,10,,,57,127
28366,note_off,98,0,0,,10,,,57,127
28367,note_on,1,0,0,,8,,,56,127
28465,note_off,98,0,0,,8,,,56,127
28466,note_on,1,0,0,,10,,,45,127
28564,note_off,98,0,0,,2,,,62,127
28565,note_on,1,0,0,,1,,,61,127
28663,note_off,98,0,0,,1,,,61,127
28664,note_on,1,0,0,,12,,,59,127
28762,note_off,98,0,0,,12,,,59,127
28763,note_on,1,0,0,,10,,,57,127
28861,note_off,98,0,0,,10,,,57,127
28862,note_on,1,0,0,,4,,,64,127
28960,note_off,98,0,0,,10,,,45,127
28961,note_on,1,0,0,,1,,,73,127
29059,note_off,98,0,0,,1,,,73,127
29060,note_on,1,0,0,,12,,,71,127
29158,note_off,98,0,0,,12,,,71,127
29159,note_on,1,0,0,,10,,,69,127
29257,note_off,98,0,0,,10,,,69,127
29258,note_on,1,0,0,,4,,,52,127
29356,note_off,98,0,0,,4,,,64,127
29357,note_on,1,0,0,,12,,,71,127
29455,note_off,98,0,0,,12,,,71,127
29456,note_on,1,0,0,,10,,,69,127
29554,note_off,98,0,0,,10,,,69,127
29555,note_on,1,0,0,,8,,,68,127
29653,note_off,98,0,0,,8,,,68,127
29654,note_on,1,0,0,,2,,,62,127
29752,note_off,98,0,0,,4,,,52,127
29753,note_on,1,0,0,,12,,,59,127
29851,note_off,98,0,0,,12,,,59,127
29852,note_on,1,0,0,,10,,,57,127
29950,note_off,98,0,0,,10,,,57,127
29951,note_on,1,0,0,,8,,,56,127
30049,note_off,98,0,0,,8,,,56,127
30049,note_off,0,0,0,,2,,,62,127
30050,note_on,1,0,0,,10,,,45,127
30050,note_on,0,0,0,,1,,,61,127
30248,note_off,198,0,0,,1,,,61,127
30249,note_on,1,0,0,,4,,,64,127
30347,note_off,98,0,0,,4,,,64,127
30348,note_on,1,0,0,,1,,,61,127
30446,note_off,98,0,0,,1,,,61,127
30447,note_on,1,0,0,,1,,,61,127
30645,note_off,198,0,0,,1,,,61,127
30646,note_on,1,0,0,,10,,,69,127
30744,note_off,98,0,0,,10,,,69,127
30745,note_on,1,0,0,,4,,,64,127
30843,note_off,98,0,0,,4,,,64,127
30843,note_off,0,0,0,,10,,,45,127
30844,note_on,1,0,0,,10,,,45,127
30844,note_on,0,0,0,,4,,,64,127
31042,note_off,198,0,0,,4,,,64,127
31043,note_on,1,0,0,,1,,,73,127
31141,note_off,98,0,0,,1,,,73,127
31142,note_on,1,0,0,,10,,,69,127
31240,note_off,98,0,0,,10,,,69,127
31241,note_on,1,0,0,,10,,,69,127
31439,note_off,198,0,0,,10,,,69,127
31440,note_on,1,0,0,,4,,,76,127
31538,note_off,98,0,0,,4,,,76,127
31539,note_on,1,0,0,,1,,,73,127
31637,note_off,98,0,0,,1,,,73,127
31637,note_off,0,0,0,,10,,,45,127
31638,note_on,1,0,0,,1,,,49,127
31638,note_on,0,0,0,,1,,,73,127
31736,note_off,98,0,0,,1,,,73,127
31737,note_on,1,0,0,,10,,,81,127
31835,note_off,98,0,0,,10,,,81,127
31836,note_on,1,0,0,,8,,,80,127
31934,note_off,98,0,0,,8,,,80,127
31935,note_on,1,0,0,,6,,,78,127
32033,note_off,98,0,0,,6,,,78,127
32034,note_on,1,0,0,,4,,,76,127
32232,note_off,198,0,0,,4,,,76,127
32233,note_on,1,0,0,,4,,,76,127
32431,note_off,198,0,0,,4,,,76,127
32431,note_off,0,0,0,,1,,,49,127
32432,note_on,1,0,0,,2,,,50,127
32432,note_on,0,0,0,,4,,,76,127
32530,note_off,98,0,0,,4,,,76,127
32531,note_on,1,0,0,,8,,,80,127
32629,note_off,98,0,0,,8,,,80,127
32630,note_on,1,0,0,,6,,,78,127
32728,note_off,98,0,0,,6,,,78,127
32729,note_on,1,0,0,,4,,,76,127
32827,note_off,98,0,0,,4,,,76,127
32827,note_off,0,0,0,,2,,,50,127
32828,note_on,1,0,0,,2,,,50,127
32828,note_on,0,0,0,,2,,,74,127
32926,note_off,98,0,0,,2,,,74,127
32927,note_on,1,0,0,,2,,,74,127
33025,note_off,98,0,0,,2,,,74,127
33026,note_on,1,0,0,,1,,,73,127
33124,note_off,98,0,0,,1,,,73,127
33125,note_on,1,0,0,,12,,,71,127
33223,note_off,98,0,0,,12,,,71,127
33223,note_off,0,0,0,,2,,,50,127
33224,note_on,1,0,0,,4,,,52,127
33224,note_on,0,0,0,,10,,,69,127
33372,note_off,148,0,0,,10,,,69,127
33373,note_on,1,0,0,,12,,,71,127
33422,note_off,49,0,0,,12,,,71,127
33423,note_on,1,0,0,,10,,,69,127
33472,note_off,49,0,0,,10,,,69,127
33473,note_on,1,0,0,,8,,,68,127
33522,note_off,49,0,0,,8,,,68,127
33523,note_on,1,0,0,,10,,,69,127
33572,note_off,49,0,0,,10,,,69,127
33573,note_on,1,0,0,,12,,,71,127
33622,note_off,49,0,0,,12,,,71,127
33623,note_on,1,0,0,,4,,,40,127
33623,note_on,0,0,0,,1,,,73,127
33672,note_off,49,0,0,,1,,,73,127
33673,note_on,1,0,0,,12,,,71,127
33722,note_off,49,0,0,,12,,,71,127
33723,note_on,1,0,0,,1,,,73,127
33772,note_off,49,0,0,,1,,,73,127
33773,note_on,1,0,0,,12,,,71,127
33822,note_off,49,0,0,,12,,,71,127
33823,note_on,1,0,0,,1,,,73,127
33872,note_off,49,0,0,,1,,,73,127
33873,note_on,1,0,0,,12,,,71,127
33922,note_off,49,0,0,,12,,,71,127
33923,note_on,1,0,0,,10,,,69,127
34021,note_off,98,0,0,,10,,,69,127
34021,note_off,0,0,0,,4,,,40,127
34021,note_off,0,0,0,,4,,,52,127
34022,note_on,1,0,0,,10,,,45,127
34022,note_on,0,0,0,,10,,,69,127
34220,note_off,198,0,0,,10,,,69,127
34220,note_off,0,0,0,,10,,,45,127
34221,note_on,1,0,0,,1,,,49,127
34221,note_on,0,0,0,,10,,,81,127
34319,note_off,98,0,0,,10,,,81,127
34320,note_on,1,0,0,,1,,,73,127
34418,note_off,98,0,0,,1,,,73,127
34418,note_off,0,0,0,,1,,,49,127
34419,note_on,1,0,0,,2,,,50,127
34419,note_on,0,0,0,,12,,,71,127
34617,note_off,198,0,0,,12,,,71,127
34617,note_off,0,0,0,,2,,,50,127
34618,note_on,1,0,0,,4,,,52,127
34618,note_on,0,0,0,,8,,,80,127
34816,note_off,198,0,0,,4,,,52,127
34817,note_on,1,0,0,,1,,,49,127
34916,note_off,99,0,0,,8,,,80,127
35014,note_off,98,0,0,,1,,,49,127
35015,note_on,1,0,0,,10,,,45,127
35015,note_on,0,0,0,,10,,,81,127
35113,note_off,98,0,0,,10,,,81,127
35114,note_on,1,0,0,,1,,,73,127
35212,note_off,98,0,0,,1,,,73,127
35212,note_off,0,0,0,,10,,,45,127
35213,note_on,1,0,0,,2,,,50,127
35213,note_on,0,0,0,,12,,,71,127
35411,note_off,198,0,0,,12,,,71,127
35411,note_off,0,0,0,,2,,,50,127
35412,note_on,1,0,0,,4,,,52,127
35412,note_on,0,0,0,,8,,,80,127
35610,note_off,198,0,0,,4,,,52,127
35611,note_on,1,0,0,,1,,,49,127
35710,note_off,99,0,0,,8,,,80,127
35808,note_off,98,0,0,,1,,,49,127
35809,note_on,1,0,0,,10,,,45,127
35809,note_on,0,0,0,,10,,,81,127
35907,note_off,98,0,0,,10,,,81,127
35908,note_on,1,0,0,,4,,,76,127
36006,note_off,98,0,0,,4,,,76,127
36006,note_off,0,0,0,,10,,,45,127
36007,note_on,1,0,0,,2,,,50,127
36007,note_on,0,0,0,,6,,,78,127
36105,note_off,98,0,0,,6,,,78,127
36106,note_on,1,0,0,,2,,,74,127
36204,note_off,98,0,0,,2,,,74,127
36204,note_off,0,0,0,,2,,,50,127
36205,note_on,1,0,0,,4,,,52,127
36205,note_on,0,0,0,,12,,,71,127
36303,note_off,98,0,0,,12,,,71,127
36304,note_on,1,0,0,,8,,,68,127
36402,note_off,98,0,0,,8,,,68,127
36402,note_off,0,0,0,,4,,,52,127
36403,note_on,1,0,0,,4,,,52,127
36403,note_on,0,0,0,,4,,,64,127
36650,note_off,247,0,0,,4,,,64,127
36651,note_on,1,0,0,,6,,,66,127
36700,note_off,49,0,0,,6,,,66,127
36701,note_on,1,0,0,,8,,,68,127
36750,note_off,49,0,0,,8,,,68,127
36751,note_on,1,0,0,,10,,,69,127
36800,note_off,49,0,0,,10,,,69,127
36801,note_on,1,0,0,,4,,,40,127
36801,note_on,0,0,0,,1,,,73,127
36850,note_off,49,0,0,,1,,,73,127
36851,note_on,1,0,0,,12,,,71,127
36900,note_off,49,0,0,,12,,,71,127
36901,note_on,1,0,0,,1,,,73,127
36950,note_off,49,0,0,,1,,,73,127
36951,note_on,1,0,0,,12,,,71,127
37000,note_off,49,0,0,,12,,,71,127
37001,note_on,1,0,0,,1,,,73,127
37050,note_off,49,0,0,,1,,,73,127
37051,note_on,1,0,0,,12,,,71,127
37100,note_off,49,0,0,,12,,,71,127
37101,note_on,1,0,0,,10,,,69,127
37199,note_off,98,0,0,,10,,,69,127
37199,note_off,0,0,0,,4,,,40,127
37199,note_off,0,0,0,,4,,,52,127
37200,note_on,1,0,0,,10,,,45,127
37200,note_on,0,0,0,,10,,,69,127
37795,note_off,595,0,0,,10,,,69,127
37994,note_off,199,0,0,,10,,,45,127
37995,note_on,1,0,0,,2,,,74,127
38093,note_off,98,0,0,,2,,,74,127
38094,note_on,1,0,0,,1,,,73,127
38192,note_off,98,0,0,,1,,,73,127
38193,note_on,1,0,0,,12,,,71,127
38291,note_off,98,0,0,,12,,,71,127
38292,note_on,1,0,0,,1,,,73,127
38390,note_off,98,0,0,,1,,,73,127
38391,note_on,1,0,0,,2,,,74,127
38589,note_off,198,0,0,,2,,,74,127
38590,note_on,1,0,0,,4,,,76,127
38788,note_off,198,0,0,,4,,,76,127
38789,note_on,1,0,0,,2,,,62,127
38789,note_on,0,0,0,,10,,,69,127
38887,note_off,98,0,0,,2,,,62,127
38888,note_on,1,0,0,,1,,,61,127
38986,note_off,98,0,0,,1,,,61,127
38986,note_off,0,0,0,,10,,,69,127
38987,note_on,1,0,0,,12,,,59,127
38987,note_on,0,0,0,,2,,,74,127
39085,note_off,98,0,0,,2,,,74,127
39085,note_off,0,0,0,,12,,,59,127
39086,note_on,1,0,0,,1,,,61,127
39086,note_on,0,0,0,,4,,,76,127
39184,note_off,98,0,0,,4,,,76,127
39184,note_off,0,0,0,,1,,,61,127
39185,note_on,1,0,0,,2,,,62,127
39185,note_on,0,0,0,,6,,,78,127
39383,note_off,198,0,0,,6,,,78,127
39383,note_off,0,0,0,,2,,,62,127
39384,note_on,1,0,0,,4,,,64,127
39384,note_on,0,0,0,,7,,,79,127
39582,note_off,198,0,0,,7,,,79,127
39582,note_off,0,0,0,,4,,,64,127
39583,note_on,1,0,0,,6,,,66,127
39583,note_on,0,0,0,,10,,,81,127
39681,note_off,98,0,0,,10,,,81,127
39682,note_on,1,0,0,,2,,,86,127
39780,note_off,98,0,0,,2,,,86,127
39780,note_off,0,0,0,,6,,,66,127
39781,note_on,1,0,0,,2,,,62,127
39781,note_on,0,0,0,,1,,,85,127
39879,note_off,98,0,0,,1,,,85,127
39880,note_on,1,0,0,,12,,,83,127
39978,note_off,98,0,0,,12,,,83,127
39978,note_off,0,0,0,,2,,,62,127
39979,note_on,1,0,0,,1,,,61,127
39979,note_on,0,0,0,,10,,,81,127
40077,note_off,98,0,0,,1,,,61,127
40078,note_on,1,0,0,,12,,,59,127
40176,note_off,98,0,0,,12,,,59,127
40176,note_off,0,0,0,,10,,,81,127
40177,note_on,1,0,0,,10,,,57,127
40177,note_on,0,0,0,,10,,,81,127
40275,note_off,98,0,0,,10,,,57,127
40276,note_on,1,0,0,,7,,,55,127
40374,note_off,98,0,0,,7,,,55,127
40374,note_off,0,0,0,,10,,,81,127
40375,note_on,1,0,0,,6,,,54,127
40375,note_on,0,0,0,,10,,,81,127
40473,note_off,98,0,0,,10,,,81,127
40474,note_on,1,0,0,,2,,,86,127
40572,note_off,98,0,0,,2,,,86,127
40572,note_off,0,0,0,,6,,,54,127
40573,note_on,1,0,0,,2,,,62,127
40573,note_on,0,0,0,,1,,,85,127
40671,note_off,98,0,0,,1,,,85,127
40672,note_on,1,0,0,,12,,,83,127
40770,note_off,98,0,0,,12,,,83,127
40770,note_off,0,0,0,,2,,,62,127
40771,note_on,1,0,0,,1,,,61,127
40771,note_on,0,0,0,,10,,,81,127
40869,note_off,98,0,0,,1,,,61,127
40870,note_on,1,0,0,,12,,,59,127
40968,note_off,98,0,0,,12,,,59,127
40968,note_off,0,0,0,,10,,,81,127
40969,note_on,1,0,0,,10,,,57,127
40969,note_on,0,0,0,,7,,,79,127
41067,note_off,98,0,0,,10,,,57,127
41068,note_on,1,0,0,,1,,,61,127
41166,note_off,98,0,0,,1,,,61,127
41166,note_off,0,0,0,,7,,,79,127
41167,note_on,1,0,0,,2,,,62,127
41167,note_on,0,0,0,,7,,,79,127
41265,note_off,98,0,0,,7,,,79,127
41266,note_on,1,0,0,,6,,,78,127
41364,note_off,98,0,0,,6,,,78,127
41364,note_off,0,0,0,,2,,,62,127
41365,note_on,1,0,0,,1,,,61,127
41365,note_on,0,0,0,,4,,,76,127
41463,note_off,98,0,0,,4,,,76,127
41464,note_on,1,0,0,,6,,,78,127
41562,note_off,98,0,0,,6,,,78,127
41562,note_off,0,0,0,,1,,,61,127
41563,note_on,1,0,0,,12,,,59,127
41563,note_on,0,0,0,,7,,,79,127
41661,note_off,98,0,0,,7,,,79,127
41662,note_on,1,0,0,,10,,,81,127
41760,note_off,98,0,0,,10,,,81,127
41760,note_off,0,0,0,,12,,,59,127
41761,note_on,1,0,0,,10,,,57,127
41761,note_on,0,0,0,,12,,,83,127
41859,note_off,98,0,0,,12,,,83,127
41860,note_on,1,0,0,,2,,,74,127
41958,note_off,98,0,0,,2,,,74,127
41959,note_on,1,0,0,,10,,,45,127
41959,note_on,0,0,0,,2,,,74,127
42057,note_off,98,0,0,,2,,,74,127
42058,note_on,1,0,0,,1,,,73,127
42156,note_off,98,0,0,,1,,,73,127
42157,note_on,1,0,0,,12,,,71,127
42255,note_off,98,0,0,,12,,,71,127
42256,note_on,1,0,0,,10,,,69,127
42354,note_off,98,0,0,,10,,,69,127
42355,note_on,1,0,0,,10,,,69,127
42553,note_off,198,0,0,,10,,,69,127
42553,note_off,0,0,0,,10,,,57,127
42554,note_on,1,0,0,,10,,,69,127
42752,note_off,198,0,0,,10,,,45,127
42753,note_on,1,0,0,,10,,,57,127
42753,note_on,0,0,0,,4,,,64,127
42851,note_off,98,0,0,,10,,,69,127
42852,note_on,1,0,0,,10,,,81,127
42950,note_off,98,0,0,,10,,,81,127
42951,note_on,1,0,0,,7,,,79,127
43049,note_off,98,0,0,,7,,,79,127
43050,note_on,1,0,0,,6,,,78,127
43148,note_off,98,0,0,,6,,,78,127
43149,note_on,1,0,0,,4,,,76,127
43347,note_off,198,0,0,,4,,,76,127
43348,note_on,1,0,0,,4,,,76,127
43546,note_off,198,0,0,,4,,,76,127
43546,note_off,0,0,0,,4,,,64,127
43546,note_off,0,0,0,,10,,,57,127
43547,note_on,1,0,0,,7,,,55,127
43547,note_on,0,0,0,,4,,,64,127
43547,note_on,0,0,0,,4,,,76,127
43645,note_off,98,0,0,,4,,,76,127
43646,note_on,1,0,0,,10,,,81,127
43744,note_off,98,0,0,,10,,,81,127
43745,note_on,1,0,0,,7,,,79,127
43843,note_off,98,0,0,,7,,,79,127
43844,note_on,1,0,0,,6,,,78,127
43942,note_off,98,0,0,,6,,,78,127
43943,note_on,1,0,0,,4,,,76,127
44141,note_off,198,0,0,,4,,,76,127
44142,note_on,1,0,0,,4,,,76,127
44339,note_off,197,0,0,,4,,,76,127
44340,note_off,1,0,0,,4,,,64,127
44340,note_off,0,0,0,,7,,,55,127
44341,note_on,1,0,0,,6,,,54,127
44341,note_on,0,0,0,,4,,,64,127
44440,note_on,99,0,0,,0,,,84,127
44538,note_off,98,0,0,,0,,,84,127
44539,note_on,1,0,0,,12,,,83,127
44637,note_off,98,0,0,,12,,,83,127
44638,note_on,1,0,0,,10,,,81,127
44736,note_off,98,0,0,,10,,,81,127
44736,note_off,0,0,0,,4,,,64,127
44737,note_on,1,0,0,,3,,,63,127
44737,note_on,0,0,0,,7,,,79,127
44835,note_off,98,0,0,,7,,,79,127
44836,note_on,1,0,0,,6,,,78,127
44934,note_off,98,0,0,,6,,,78,127
44935,note_on,1,0,0,,4,,,76,127
45033,note_off,98,0,0,,4,,,76,127
45034,note_on,1,0,0,,6,,,78,127
45132,note_off,98,0,0,,6,,,78,127
45132,note_off,0,0,0,,3,,,63,127
45132,note_off,0,0,0,,6,,,54,127
45133,note_on,1,0,0,,4,,,52,127
45133,note_on,0,0,0,,4,,,64,127
45133,note_on,0,0,0,,7,,,79,127
45133,note_on,0,0,0,,10,,,81,127
45331,note_off,198,0,0,,10,,,81,127
45331,note_off,0,0,0,,7,,,79,127
45332,note_on,1,0,0,,6,,,78,127
45430,note_off,98,0,0,,6,,,78,127
45431,note_on,1,0,0,,4,,,76,127
45529,note_off,98,0,0,,4,,,76,127
45530,note_on,1,0,0,,4,,,76,127
45728,note_off,198,0,0,,4,,,76,127
45729,note_on,1,0,0,,4,,,76,127
45926,note_off,197,0,0,,4,,,76,127
45927,note_off,1,0,0,,4,,,64,127
45927,note_off,0,0,0,,4,,,52,127
45928,note_on,1,0,0,,10,,,57,127
45928,note_on,0,0,0,,4,,,64,127
46027,note_on,99,0,0,,10,,,81,127
46125,note_off,98,0,0,,10,,,81,127
46126,note_on,1,0,0,,7,,,79,127
46224,note_off,98,0,0,,7,,,79,127
46225,note_on,1,0,0,,6,,,78,127
46323,note_off,98,0,0,,6,,,78,127
46324,note_on,1,0,0,,4,,,76,127
46522,note_off,198,0,0,,4,,,76,127
46523,note_on,1,0,0,,4,,,76,127
46721,note_off,198,0,0,,4,,,76,127
46721,note_off,0,0,0,,4,,,64,127
46721,note_off,0,0,0,,10,,,57,127
46722,note_on,1,0,0,,7,,,55,127
46722,note_on,0,0,0,,4,,,64,127
46722,note_on,0,0,0,,4,,,76,127
46820,note_off,98,0,0,,4,,,76,127
46821,note_on,1,0,0,,10,,,81,127
46919,note_off,98,0,0,,10,,,81,127
46920,note_on,1,0,0,,7,,,79,127
47018,note_off,98,0,0,,7,,,79,127
47019,note_on,1,0,0,,6,,,78,127
47117,note_off,98,0,0,,6,,,78,127
47118,note_on,1,0,0,,4,,,76,127
47316,note_off,198,0,0,,4,,,76,127
47317,note_on,1,0,0,,4,,,76,127
47515,note_off,198,0,0,,4,,,76,127
47515,note_off,0,0,0,,4,,,64,127
47515,note_off,0,0,0,,7,,,55,127
47516,note_on,1,0,0,,4,,,64,127
47516,note_on,0,0,0,,6,,,54,127
47516,note_on,0,0,0,,4,,,76,127
47614,note_off,98,0,0,,4,,,76,127
47615,note_on,1,0,0,,2,,,86,127
47713,note_off,98,0,0,,2,,,86,127
47714,note_on,1,0,0,,0,,,84,127
47812,note_off,98,0,0,,0,,,84,127
47813,note_on,1,0,0,,12,,,83,127
47911,note_off,98,0,0,,12,,,83,127
47912,note_on,1,0,0,,11,,,82,127
48010,note_off,98,0,0,,11,,,82,127
48011,note_on,1,0,0,,7,,,79,127
48109,note_off,98,0,0,,7,,,79,127
48110,note_on,1,0,0,,6,,,78,127
48208,note_off,98,0,0,,6,,,78,127
48209,note_on,1,0,0,,4,,,76,127
48307,note_off,98,0,0,,4,,,76,127
48307,note_off,0,0,0,,6,,,54,127
48307,note_off,0,0,0,,4,,,64,127
48308,note_on,1,0,0,,12,,,59,127
48308,note_on,0,0,0,,2,,,62,127
48308,note_on,0,0,0,,2,,,74,127
48308,note_on,0,0,0,,4,,,76,127
48506,note_off,198,0,0,,4,,,76,127
48506,note_off,0,0,0,,2,,,74,127
48507,note_on,1,0,0,,1,,,73,127
48605,note_off,98,0,0,,1,,,73,127
48606,note_on,1,0,0,,12,,,71,127
48704,note_off,98,0,0,,12,,,71,127
48705,note_on,1,0,0,,12,,,71,127
48903,note_off,198,0,0,,12,,,71,127
48904,note_on,1,0,0,,12,,,71,127
49102,note_off,198,0,0,,2,,,62,127
49102,note_off,0,0,0,,12,,,59,127
49103,note_on,1,0,0,,2,,,62,127
49103,note_on,0,0,0,,12,,,59,127
49202,note_off,99,0,0,,12,,,71,127
49301,note_on,99,0,0,,6,,,78,127
49399,note_off,98,0,0,,6,,,78,127
49400,note_on,1,0,0,,2,,,74,127
49498,note_off,98,0,0,,2,,,74,127
49499,note_on,1,0,0,,2,,,74,127
49697,note_off,198,0,0,,2,,,74,127
49698,note_on,1,0,0,,6,,,78,127
49796,note_off,98,0,0,,6,,,78,127
49797,note_on,1,0,0,,2,,,74,127
49895,note_off,98,0,0,,2,,,74,127
49895,note_off,0,0,0,,12,,,59,127
49895,note_off,0,0,0,,2,,,62,127
49896,note_on,1,0,0,,2,,,62,127
49896,note_on,0,0,0,,10,,,57,127
49896,note_on,0,0,0,,2,,,74,127
50094,note_off,198,0,0,,2,,,74,127
50095,note_on,1,0,0,,6,,,78,127
50193,note_off,98,0,0,,6,,,78,127
50194,note_on,1,0,0,,2,,,74,127
50292,note_off,98,0,0,,2,,,74,127
50293,note_on,1,0,0,,2,,,74,127
50491,note_off,198,0,0,,2,,,74,127
50492,note_on,1,0,0,,6,,,78,127
50590,note_off,98,0,0,,6,,,78,127
50591,note_on,1,0,0,,2,,,74,127
50689,note_off,98,0,0,,2,,,74,127
50689,note_off,0,0,0,,10,,,57,127
50689,note_off,0,0,0,,2,,,62,127
50690,note_on,1,0,0,,7,,,55,127
50690,note_on,0,0,0,,2,,,62,127
50690,note_on,0,0,0,,2,,,74,127
50888,note_off,198,0,0,,2,,,74,127
50889,note_on,1,0,0,,12,,,83,127
50987,note_off,98,0,0,,12,,,83,127
50988,note_on,1,0,0,,2,,,74,127
51086,note_off,98,0,0,,2,,,74,127
51087,note_on,1,0,0,,2,,,74,127
51285,note_off,198,0,0,,2,,,74,127
51286,note_on,1,0,0,,12,,,83,127
51384,note_off,98,0,0,,12,,,83,127
51385,note_on,1,0,0,,2,,,74,127
51483,note_off,98,0,0,,2,,,74,127
51483,note_off,0,0,0,,2,,,62,127
51483,note_off,0,0,0,,7,,,55,127
51484,note_on,1,0,0,,6,,,54,127
51484,note_on,0,0,0,,2,,,62,127
51484,note_on,0,0,0,,10,,,81,127
51582,note_off,98,0,0,,10,,,81,127
51583,note_on,1,0,0,,12,,,83,127
51681,note_off,98,0,0,,12,,,83,127
51682,note_on,1,0,0,,10,,,81,127
51780,note_off,98,0,0,,10,,,81,127
51781,note_on,1,0,0,,7,,,79,127
51879,note_off,98,0,0,,7,,,79,127
51880,note_on,1,0,0,,6,,,78,127
51978,note_off,98,0,0,,6,,,78,127
51979,note_on,1,0,0,,4,,,76,127
52077,note_off,98,0,0,,4,,,76,127
52078,note_on,1,0,0,,2,,,74,127
52176,note_off,98,0,0,,2,,,74,127
52177,note_on,1,0,0,,0,,,72,127
52275,note_off,98,0,0,,0,,,72,127
52275,note_off,0,0,0,,2,,,62,127
52275,note_off,0,0,0,,6,,,54,127
52276,note_on,1,0,0,,7,,,55,127
52276,note_on,0,0,0,,12,,,71,127
52374,note_off,98,0,0,,7,,,55,127
52375,note_on,1,0,0,,7,,,67,127
52473,note_off,98,0,0,,7,,,67,127
52473,note_off,0,0,0,,12,,,71,127
52474,note_on,1,0,0,,6,,,66,127
52474,note_on,0,0,0,,2,,,74,127
52572,note_off,98,0,0,,6,,,66,127
52573,note_on,1,0,0,,4,,,64,127
52671,note_off,98,0,0,,4,,,64,127
52671,note_off,0,0,0,,2,,,74,127
52672,note_on,1,0,0,,2,,,62,127
52672,note_on,0,0,0,,2,,,74,127
52770,note_off,98,0,0,,2,,,62,127
52771,note_on,1,0,0,,0,,,60,127
52869,note_off,98,0,0,,0,,,60,127
52869,note_off,0,0,0,,2,,,74,127
52870,note_on,1,0,0,,12,,,59,127
52870,note_on,0,0,0,,2,,,74,127
52968,note_off,98,0,0,,12,,,59,127
52969,note_on,1,0,0,,10,,,57,127
53067,note_off,98,0,0,,10,,,57,127
53067,note_off,0,0,0,,2,,,74,127
53068,note_on,1,0,0,,7,,,55,127
53068,note_on,0,0,0,,7,,,79,127
53166,note_off,98,0,0,,7,,,79,127
53167,note_on,1,0,0,,12,,,83,127
53265,note_off,98,0,0,,12,,,83,127
53266,note_on,1,0,0,,10,,,81,127
53364,note_off,98,0,0,,10,,,81,127
53365,note_on,1,0,0,,7,,,79,127
53463,note_off,98,0,0,,7,,,79,127
53464,note_on,1,0,0,,6,,,78,127
53562,note_off,98,0,0,,6,,,78,127
53563,note_on,1,0,0,,4,,,76,127
53661,note_off,98,0,0,,4,,,76,127
53661,note_off,0,0,0,,7,,,55,127
53662,note_on,1,0,0,,2,,,74,127
53760,note_off,98,0,0,,2,,,74,127
53761,note_on,1,0,0,,0,,,72,127
53859,note_off,98,0,0,,0,,,72,127
53860,note_on,1,0,0,,7,,,55,127
53860,note_on,0,0,0,,12,,,71,127
53958,note_off,98,0,0,,7,,,55,127
53959,note_on,1,0,0,,7,,,67,127
54057,note_off,98,0,0,,7,,,67,127
54057,note_off,0,0,0,,12,,,71,127
54058,note_on,1,0,0,,6,,,66,127
54058,note_on,0,0,0,,2,,,74,127
54156,note_off,98,0,0,,6,,,66,127
54157,note_on,1,0,0,,4,,,64,127
54255,note_off,98,0,0,,4,,,64,127
54255,note_off,0,0,0,,2,,,74,127
54256,note_on,1,0,0,,2,,,62,127
54256,note_on,0,0,0,,2,,,74,127
54354,note_off,98,0,0,,2,,,62,127
54355,note_on,1,0,0,,0,,,60,127
54453,note_off,98,0,0,,0,,,60,127
54453,note_off,0,0,0,,2,,,74,127
54454,note_on,1,0,0,,12,,,59,127
54454,note_on,0,0,0,,2,,,74,127
54552,note_off,98,0,0,,12,,,59,127
54553,note_on,1,0,0,,10,,,57,127
54651,note_off,98,0,0,,10,,,57,127
54651,note_off,0,0,0,,2,,,74,127
54652,note_on,1,0,0,,7,,,55,127
54652,note_on,0,0,0,,12,,,83,127
54750,note_off,98,0,0,,12,,,83,127
54751,note_on,1,0,0,,10,,,81,127
54849,note_off,98,0,0,,10,,,81,127
54850,note_on,1,0,0,,7,,,79,127
54948,note_off,98,0,0,,7,,,79,127
54949,note_on,1,0,0,,6,,,78,127
55047,note_off,98,0,0,,6,,,78,127
55048,note_on,1,0,0,,4,,,76,127
55146,note_off,98,0,0,,4,,,76,127
55147,note_on,1,0,0,,2,,,74,127
55245,note_off,98,0,0,,2,,,74,127
55245,note_off,0,0,0,,7,,,55,127
55246,note_on,1,0,0,,1,,,73,127
55344,note_off,98,0,0,,1,,,73,127
55345,note_on,1,0,0,,12,,,71,127
55443,note_off,98,0,0,,12,,,71,127
55444,note_on,1,0,0,,10,,,69,127
55543,note_on,99,0,0,,6,,,66,127
55641,note_off,98,0,0,,6,,,66,127
55641,note_off,0,0,0,,10,,,69,127
55642,note_on,1,0,0,,4,,,64,127
55642,note_on,0,0,0,,10,,,69,127
55740,note_off,98,0,0,,4,,,64,127
55741,note_on,1,0,0,,2,,,62,127
55839,note_off,98,0,0,,2,,,62,127
55839,note_off,0,0,0,,10,,,69,127
55840,note_on,1,0,0,,1,,,61,127
55840,note_on,0,0,0,,10,,,69,127
55938,note_off,98,0,0,,1,,,61,127
55939,note_on,1,0,0,,12,,,59,127
56037,note_off,98,0,0,,12,,,59,127
56037,note_off,0,0,0,,10,,,69,127
56038,note_on,1,0,0,,10,,,57,127
56038,note_on,0,0,0,,10,,,69,127
56136,note_off,98,0,0,,10,,,57,127
56137,note_on,1,0,0,,7,,,55,127
56235,note_off,98,0,0,,7,,,55,127
56235,note_off,0,0,0,,10,,,69,127
56236,note_on,1,0,0,,6,,,54,127
56236,note_on,0,0,0,,10,,,81,127
56334,note_off,98,0,0,,10,,,81,127
56335,note_on,1,0,0,,7,,,79,127
56433,note_off,98,0,0,,7,,,79,127
56434,note_on,1,0,0,,6,,,78,127
56532,note_off,98,0,0,,6,,,78,127
56533,note_on,1,0,0,,4,,,76,127
56631,note_off,98,0,0,,4,,,76,127
56632,note_on,1,0,0,,2,,,74,127
56730,note_off,98,0,0,,2,,,74,127
56731,note_on,1,0,0,,1,,,73,127
56829,note_off,98,0,0,,1,,,73,127
56830,note_on,1,0,0,,12,,,71,127
56928,note_off,98,0,0,,12,,,71,127
56929,note_on,1,0,0,,10,,,69,127
57027,note_off,98,0,0,,10,,,69,127
57027,note_off,0,0,0,,6,,,54,127
57028,note_on,1,0,0,,7,,,67,127
57127,note_on,99,0,0,,4,,,64,127
57225,note_off,98,0,0,,4,,,64,127
57225,note_off,0,0,0,,7,,,67,127
57226,note_on,1,0,0,,2,,,62,127
57226,note_on,0,0,0,,7,,,67,127
57324,note_off,98,0,0,,2,,,62,127
57325,note_on,1,0,0,,1,,,61,127
57423,note_off,98,0,0,,1,,,61,127
57423,note_off,0,0,0,,7,,,67,127
57424,note_on,1,0,0,,12,,,59,127
57424,note_on,0,0,0,,7,,,67,127
57522,note_off,98,0,0,,12,,,59,127
57523,note_on,1,0,0,,10,,,57,127
57621,note_off,98,0,0,,10,,,57,127
57621,note_off,0,0,0,,7,,,67,127
57622,note_on,1,0,0,,7,,,55,127
57622,note_on,0,0,0,,7,,,67,127
57720,note_off,98,0,0,,7,,,55,127
57721,note_on,1,0,0,,6,,,54,127
57819,note_off,98,0,0,,6,,,54,127
57819,note_off,0,0,0,,7,,,67,127
57820,note_on,1,0,0,,4,,,52,127
57820,note_on,0,0,0,,7,,,79,127
57918,note_off,98,0,0,,7,,,79,127
57919,note_on,1,0,0,,6,,,78,127
58017,note_off,98,0,0,,6,,,78,127
58018,note_on,1,0,0,,4,,,76,127
58116,note_off,98,0,0,,4,,,76,127
58117,note_on,1,0,0,,2,,,74,127
58215,note_off,98,0,0,,2,,,74,127
58216,note_on,1,0,0,,1,,,73,127
58314,note_off,98,0,0,,1,,,73,127
58315,note_on,1,0,0,,12,,,71,127
58413,note_off,98,0,0,,12,,,71,127
58414,note_on,1,0,0,,10,,,69,127
58512,note_off,98,0,0,,10,,,69,127
58513,note_on,1,0,0,,7,,,67,127
58611,note_off,98,0,0,,7,,,67,127
58611,note_off,0,0,0,,4,,,52,127
58612,note_on,1,0,0,,6,,,66,127
58711,note_on,99,0,0,,2,,,62,127
58809,note_off,98,0,0,,2,,,62,127
58809,note_off,0,0,0,,6,,,66,127
58810,note_on,1,0,0,,1,,,61,127
58810,note_on,0,0,0,,6,,,66,127
58908,note_off,98,0,0,,1,,,61,127
58909,note_on,1,0,0,,12,,,59,127
59007,note_off,98,0,0,,12,,,59,127
59007,note_off,0,0,0,,6,,,66,127
59008,note_on,1,0,0,,10,,,57,127
59008,note_on,0,0,0,,6,,,66,127
59106,note_off,98,0,0,,10,,,57,127
59107,note_on,1,0,0,,7,,,55,127
59205,note_off,98,0,0,,7,,,55,127
59205,note_off,0,0,0,,6,,,66,127
59206,note_on,1,0,0,,6,,,54,127
59206,note_on,0,0,0,,6,,,66,127
59304,note_off,98,0,0,,6,,,54,127
59305,note_on,1,0,0,,4,,,52,127
59403,note_off,98,0,0,,4,,,52,127
59403,note_off,0,0,0,,6,,,66,127
59404,note_on,1,0,0,,2,,,50,127
59404,note_on,0,0,0,,6,,,78,127
59502,note_off,98,0,0,,6,,,78,127
59503,note_on,1,0,0,,4,,,76,127
59601,note_off,98,0,0,,4,,,76,127
59602,note_on,1,0,0,,2,,,74,127
59700,note_off,98,0,0,,2,,,74,127
59701,note_on,1,0,0,,1,,,73,127
59799,note_off,98,0,0,,1,,,73,127
59800,note_on,1,0,0,,12,,,71,127
59898,note_off,98,0,0,,12,,,71,127
59899,note_on,1,0,0,,10,,,69,127
59997,note_off,98,0,0,,10,,,69,127
59998,note_on,1,0,0,,7,,,67,127
60096,note_off,98,0,0,,7,,,67,127
60097,note_on,1,0,0,,6,,,66,127
60195,note_off,98,0,0,,6,,,66,127
60195,note_off,0,0,0,,2,,,50,127
60196,note_on,1,0,0,,7,,,43,127
60196,note_on,0,0,0,,12,,,71,127
60294,note_off,98,0,0,,12,,,71,127
60295,note_on,1,0,0,,10,,,69,127
60393,note_off,98,0,0,,10,,,69,127
60394,note_on,1,0,0,,7,,,67,127
60492,note_off,98,0,0,,7,,,67,127
60493,note_on,1,0,0,,6,,,66,127
60591,note_off,98,0,0,,6,,,66,127
60592,note_on,1,0,0,,4,,,64,127
60690,note_off,98,0,0,,4,,,64,127
60691,note_on,1,0,0,,2,,,62,127
60789,note_off,98,0,0,,2,,,62,127
60790,note_on,1,0,0,,1,,,61,127
60888,note_off,98,0,0,,1,,,61,127
60889,note_on,1,0,0,,12,,,59,127
60987,note_off,98,0,0,,12,,,59,127
60987,note_off,0,0,0,,7,,,43,127
60988,note_on,1,0,0,,10,,,45,127
60988,note_on,0,0,0,,12,,,59,127
61037,note_off,49,0,0,,12,,,59,127
61038,note_on,1,0,0,,10,,,57,127
61087,note_off,49,0,0,,10,,,57,127
61088,note_on,1,0,0,,12,,,59,127
61137,note_off,49,0,0,,12,,,59,127
61138,note_on,1,0,0,,10,,,57,127
61733,note_off,595,0,0,,10,,,57,127
62181,note_off,448,0,0,,10,,,45,127
62181,note_on,0,0,0,,10,,,57,127
62181,note_on,0,0,0,,4,,,64,127
62380,note_on,199,0,0,,4,,,76,127
62478,note_off,98,0,0,,4,,,76,127
62479,note_on,1,0,0,,1,,,73,127
62577,note_off,98,0,0,,1,,,73,127
62578,note_on,1,0,0,,1,,,73,127
62776,note_off,198,0,0,,1,,,73,127
62777,note_on,1,0,0,,5,,,77,127
62875,note_off,98,0,0,,5,,,77,127
62876,note_on,1,0,0,,2,,,74,127
62974,note_off,98,0,0,,2,,,74,127
62974,note_off,0,0,0,,4,,,64,127
62974,note_off,0,0,0,,10,,,57,127
62975,note_on,1,0,0,,2,,,74,127
62975,note_on,0,0,0,,10,,,57,127
62975,note_on,0,0,0,,5,,,65,127
63173,note_off,198,0,0,,2,,,74,127
63174,note_on,1,0,0,,10,,,81,127
63272,note_off,98,0,0,,10,,,81,127
63273,note_on,1,0,0,,2,,,74,127
63371,note_off,98,0,0,,2,,,74,127
63372,note_on,1,0,0,,2,,,74,127
63570,note_off,198,0,0,,2,,,74,127
63571,note_on,1,0,0,,10,,,81,127
63669,note_off,98,0,0,,10,,,81,127
63670,note_on,1,0,0,,2,,,74,127
63768,note_off,98,0,0,,2,,,74,127
63768,note_off,0,0,0,,5,,,65,127
63768,note_off,0,0,0,,10,,,57,127
63769,note_on,1,0,0,,2,,,74,127
63769,note_on,0,0,0,,8,,,68,127
63769,note_on,0,0,0,,10,,,57,127
63967,note_off,198,0,0,,2,,,74,127
63968,note_on,1,0,0,,2,,,86,127
64067,note_on,99,0,0,,2,,,74,127
64164,note_off,97,0,0,,2,,,86,127
64165,note_off,1,0,0,,2,,,74,127
64166,note_on,1,0,0,,2,,,74,127
64364,note_off,198,0,0,,2,,,74,127
64365,note_on,1,0,0,,2,,,86,127
64464,note_on,99,0,0,,2,,,74,127
64561,note_off,97,0,0,,2,,,86,127
64562,note_off,1,0,0,,2,,,74,127
64562,note_off,0,0,0,,10,,,57,127
64562,note_off,0,0,0,,8,,,68,127
64563,note_on,1,0,0,,1,,,85,127
64563,note_on,0,0,0,,10,,,69,127
64563,note_on,0,0,0,,10,,,57,127
64761,note_off,198,0,0,,1,,,85,127
64762,note_on,1,0,0,,4,,,76,127
64860,note_off,98,0,0,,4,,,76,127
64861,note_on,1,0,0,,1,,,73,127
64959,note_off,98,0,0,,1,,,73,127
64959,note_off,0,0,0,,10,,,69,127
64960,note_on,1,0,0,,1,,,73,127
64960,note_on,0,0,0,,4,,,64,127
65158,note_off,198,0,0,,1,,,73,127
65159,note_on,1,0,0,,5,,,77,127
65257,note_off,98,0,0,,5,,,77,127
65258,note_on,1,0,0,,2,,,74,127
65356,note_off,98,0,0,,2,,,74,127
65356,note_off,0,0,0,,4,,,64,127
65356,note_off,0,0,0,,10,,,57,127
65357,note_on,1,0,0,,2,,,74,127
65357,note_on,0,0,0,,5,,,65,127
65357,note_on,0,0,0,,10,,,57,127
65555,note_off,198,0,0,,2,,,74,127
65556,note_on,1,0,0,,10,,,81,127
65654,note_off,98,0,0,,10,,,81,127
65655,note_on,1,0,0,,2,,,74,127
65753,note_off,98,0,0,,2,,,74,127
65754,note_on,1,0,0,,2,,,74,127
65952,note_off,198,0,0,,2,,,74,127
65953,note_on,1,0,0,,10,,,81,127
66051,note_off,98,0,0,,10,,,81,127
66052,note_on,1,0,0,,2,,,74,127
66150,note_off,98,0,0,,2,,,74,127
66150,note_off,0,0,0,,10,,,57,127
66150,note_off,0,0,0,,5,,,65,127
66151,note_on,1,0,0,,2,,,74,127
66151,note_on,0,0,0,,8,,,68,127
66151,note_on,0,0,0,,10,,,57,127
66349,note_off,198,0,0,,2,,,74,127
66350,note_on,1,0,0,,2,,,86,127
66449,note_on,99,0,0,,2,,,74,127
66546,note_off,97,0,0,,2,,,86,127
66547,note_off,1,0,0,,2,,,74,127
66548,note_on,1,0,0,,2,,,74,127
66746,note_off,198,0,0,,2,,,74,127
66747,note_on,1,0,0,,2,,,86,127
66846,note_on,99,0,0,,2,,,74,127
66943,note_off,97,0,0,,2,,,86,127
66944,note_off,1,0,0,,2,,,74,127
66944,note_off,0,0,0,,10,,,57,127
66944,note_off,0,0,0,,8,,,68,127
66945,note_on,1,0,0,,1,,,85,127
66945,note_on,0,0,0,,10,,,69,127
66945,note_on,0,0,0,,10,,,57,127
67043,note_off,98,0,0,,1,,,85,127
67044,note_on,1,0,0,,10,,,81,127
67142,note_off,98,0,0,,10,,,81,127
67143,note_on,1,0,0,,7,,,79,127
67241,note_off,98,0,0,,7,,,79,127
67242,note_on,1,0,0,,6,,,78,127
67340,note_off,98,0,0,,6,,,78,127
67341,note_on,1,0,0,,4,,,76,127
67439,note_off,98,0,0,,10,,,57,127
67439,note_off,0,0,0,,10,,,69,127
67440,note_on,1,0,0,,10,,,69,127
67538,note_off,98,0,0,,10,,,69,127
67538,note_off,0,0,0,,4,,,76,127
67539,note_on,1,0,0,,4,,,76,127
67539,note_on,0,0,0,,7,,,67,127
67637,note_off,98,0,0,,7,,,67,127
67638,note_on,1,0,0,,6,,,66,127
67736,note_off,98,0,0,,6,,,66,127
67736,note_off,0,0,0,,4,,,76,127
67737,note_on,1,0,0,,4,,,76,127
67737,note_on,0,0,0,,4,,,64,127
67835,note_off,98,0,0,,4,,,64,127
67836,note_on,1,0,0,,2,,,62,127
67934,note_off,98,0,0,,2,,,62,127
67934,note_off,0,0,0,,4,,,76,127
67935,note_on,1,0,0,,4,,,76,127
67935,note_on,0,0,0,,1,,,61,127
68033,note_off,98,0,0,,1,,,61,127
68034,note_on,1,0,0,,12,,,59,127
68132,note_off,98,0,0,,12,,,59,127
68132,note_off,0,0,0,,4,,,76,127
68133,note_on,1,0,0,,4,,,76,127
68133,note_on,0,0,0,,10,,,57,127
68231,note_off,98,0,0,,10,,,57,127
68232,note_on,1,0,0,,7,,,55,127
68330,note_off,98,0,0,,7,,,55,127
68330,note_off,0,0,0,,4,,,76,127
68331,note_on,1,0,0,,4,,,76,127
68331,note_on,0,0,0,,6,,,54,127
68429,note_off,98,0,0,,6,,,54,127
68430,note_on,1,0,0,,4,,,52,127
68528,note_off,98,0,0,,4,,,52,127
68528,note_off,0,0,0,,4,,,76,127
68529,note_on,1,0,0,,6,,,78,127
68529,note_on,0,0,0,,2,,,50,127
68627,note_off,98,0,0,,6,,,78,127
68628,note_on,1,0,0,,7,,,79,127
68726,note_off,98,0,0,,7,,,79,127
68727,note_on,1,0,0,,10,,,81,127
68825,note_off,98,0,0,,10,,,81,127
68826,note_on,1,0,0,,1,,,73,127
68924,note_off,98,0,0,,1,,,73,127
68924,note_off,0,0,0,,2,,,50,127
68925,note_on,1,0,0,,2,,,74,127
68925,note_on,0,0,0,,6,,,54,127
69023,note_off,98,0,0,,2,,,74,127
69024,note_on,1,0,0,,4,,,76,127
69122,note_off,98,0,0,,4,,,76,127
69123,note_on,1,0,0,,6,,,78,127
69221,note_off,98,0,0,,6,,,78,127
69222,note_on,1,0,0,,10,,,69,127
69320,note_off,98,0,0,,10,,,69,127
69320,note_off,0,0,0,,6,,,54,127
69321,note_on,1,0,0,,12,,,71,127
69321,note_on,0,0,0,,7,,,55,127
69419,note_off,98,0,0,,12,,,71,127
69420,note_on,1,0,0,,1,,,73,127
69518,note_off,98,0,0,,1,,,73,127
69519,note_on,1,0,0,,2,,,74,127
69617,note_off,98,0,0,,2,,,74,127
69618,note_on,1,0,0,,6,,,66,127
69716,note_off,98,0,0,,6,,,66,127
69716,note_off,0,0,0,,7,,,55,127
69717,note_on,1,0,0,,7,,,67,127
69717,note_on,0,0,0,,7,,,55,127
69815,note_off,98,0,0,,7,,,67,127
69816,note_on,1,0,0,,10,,,69,127
69914,note_off,98,0,0,,10,,,69,127
69915,note_on,1,0,0,,12,,,71,127
70013,note_off,98,0,0,,12,,,71,127
70014,note_on,1,0,0,,4,,,64,127
70112,note_off,98,0,0,,4,,,64,127
70112,note_off,0,0,0,,7,,,55,127
70113,note_on,1,0,0,,6,,,66,127
70113,note_on,0,0,0,,10,,,57,127
70211,note_off,98,0,0,,6,,,66,127
70212,note_on,1,0,0,,7,,,67,127
70310,note_off,98,0,0,,7,,,67,127
70311,note_on,1,0,0,,10,,,69,127
70409,note_off,98,0,0,,10,,,69,127
70410,note_on,1,0,0,,2,,,62,127
70508,note_off,98,0,0,,2,,,62,127
70508,note_off,0,0,0,,10,,,57,127
70509,note_on,1,0,0,,6,,,66,127
70509,note_on,0,0,0,,10,,,45,127
70607,note_off,98,0,0,,6,,,66,127
70608,note_on,1,0,0,,4,,,64,127
70706,note_off,98,0,0,,4,,,64,127
70707,note_on,1,0,0,,2,,,62,127
70805,note_off,98,0,0,,2,,,62,127
70806,note_on,1,0,0,,1,,,61,127
70904,note_off,98,0,0,,1,,,61,127
70904,note_off,0,0,0,,10,,,45,127
70905,note_on,1,0,0,,2,,,62,127
70905,note_on,0,0,0,,2,,,50,127
71003,note_off,98,0,0,,2,,,62,127
71004,note_on,1,0,0,,6,,,66,127
71102,note_off,98,0,0,,6,,,66,127
71103,note_on,1,0,0,,4,,,64,127
71201,note_off,98,0,0,,4,,,64,127
71202,note_on,1,0,0,,2,,,62,127
71300,note_off,98,0,0,,2,,,62,127
71301,note_on,1,0,0,,10,,,69,127
71399,note_off,98,0,0,,2,,,50,127
71400,note_on,1,0,0,,6,,,78,127
71498,note_off,98,0,0,,6,,,78,127
71499,note_on,1,0,0,,4,,,76,127
71597,note_off,98,0,0,,4,,,76,127
71598,note_on,1,0,0,,2,,,74,127
71696,note_off,98,0,0,,2,,,74,127
71697,note_on,1,0,0,,10,,,57,127
71795,note_off,98,0,0,,10,,,69,127
71796,note_on,1,0,0,,4,,,64,127
71894,note_off,98,0,0,,4,,,64,127
71895,note_on,1,0,0,,2,,,62,127
71993,note_off,98,0,0,,2,,,62,127
71994,note_on,1,0,0,,1,,,61,127
72092,note_off,98,0,0,,1,,,61,127
72093,note_on,1,0,0,,7,,,67,127
72191,note_off,98,0,0,,10,,,57,127
72192,note_on,1,0,0,,4,,,64,127
72290,note_off,98,0,0,,4,,,64,127
72291,note_on,1,0,0,,2,,,62,127
72389,note_off,98,0,0,,2,,,62,127
72390,note_on,1,0,0,,1,,,61,127
72488,note_off,98,0,0,,1,,,61,127
72489,note_on,1,0,0,,2,,,50,127
72587,note_off,98,0,0,,7,,,67,127
72588,note_on,1,0,0,,6,,,66,127
72686,note_off,98,0,0,,6,,,66,127
72687,note_on,1,0,0,,4,,,64,127
72785,note_off,98,0,0,,4,,,64,127
72786,note_on,1,0,0,,2,,,62,127
72884,note_off,98,0,0,,2,,,62,127
72885,note_on,1,0,0,,10,,,69,127
72983,note_off,98,0,0,,2,,,50,127
72984,note_on,1,0,0,,6,,,78,127
73082,note_off,98,0,0,,6,,,78,127
73083,note_on,1,0,0,,4,,,76,127
73181,note_off,98,0,0,,4,,,76,127
73182,note_on,1,0,0,,2,,,74,127
73280,note_off,98,0,0,,2,,,74,127
73281,note_on,1,0,0,,10,,,57,127
73379,note_off,98,0,0,,10,,,69,127
73380,note_on,1,0,0,,4,,,64,127
73478,note_off,98,0,0,,4,,,64,127
73479,note_on,1,0,0,,2,,,62,127
73577,note_off,98,0,0,,2,,,62,127
73578,note_on,1,0,0,,1,,,61,127
73676,note_off,98,0,0,,1,,,61,127
73677,note_on,1,0,0,,7,,,67,127
73775,note_off,98,0,0,,10,,,57,127
73776,note_on,1,0,0,,4,,,64,127
73874,note_off,98,0,0,,4,,,64,127
73875,note_on,1,0,0,,2,,,62,127
73973,note_off,98,0,0,,2,,,62,127
73974,note_on,1,0,0,,1,,,61,127
74072,note_off,98,0,0,,1,,,61,127
74072,note_off,0,0,0,,7,,,67,127
74073,note_on,1,0,0,,6,,,66,127
74073,note_on,0,0,0,,2,,,50,127
74271,note_off,198,0,0,,6,,,66,127
74272,note_on,1,0,0,,10,,,69,127
74370,note_off,98,0,0,,10,,,69,127
74371,note_on,1,0,0,,6,,,66,127
74469,note_off,98,0,0,,6,,,66,127
74470,note_on,1,0,0,,6,,,66,127
74668,note_off,198,0,0,,6,,,66,127
74669,note_on,1,0,0,,2,,,74,127
74767,note_off,98,0,0,,2,,,74,127
74768,note_on,1,0,0,,10,,,69,127
74866,note_off,98,0,0,,10,,,69,127
74866,note_off,0,0,0,,2,,,50,127
74867,note_on,1,0,0,,10,,,69,127
74867,note_on,0,0,0,,6,,,54,127
75065,note_off,198,0,0,,10,,,69,127
75066,note_on,1,0,0,,6,,,78,127
75164,note_off,98,0,0,,6,,,78,127
75165,note_on,1,0,0,,2,,,74,127
75263,note_off,98,0,0,,2,,,74,127
75264,note_on,1,0,0,,2,,,74,127
75462,note_off,198,0,0,,2,,,74,127
75463,note_on,1,0,0,,10,,,81,127
75562,note_on,99,0,0,,10,,,69,127
75659,note_off,97,0,0,,10,,,81,127
75660,note_off,1,0,0,,10,,,69,127
75660,note_off,0,0,0,,6,,,54,127
75661,note_on,1,0,0,,12,,,71,127
75661,note_on,0,0,0,,7,,,55,127
75859,note_off,198,0,0,,12,,,71,127
75860,note_on,1,0,0,,12,,,83,127
76058,note_off,198,0,0,,12,,,83,127
76059,note_on,1,0,0,,10,,,81,127
76157,note_off,98,0,0,,10,,,81,127
76158,note_on,1,0,0,,7,,,79,127
76256,note_off,98,0,0,,7,,,79,127
76257,note_on,1,0,0,,6,,,78,127
76355,note_off,98,0,0,,6,,,78,127
76356,note_on,1,0,0,,4,,,76,127
76454,note_off,98,0,0,,4,,,76,127
76454,note_off,0,0,0,,7,,,55,127
76455,note_on,1,0,0,,2,,,74,127
76455,note_on,0,0,0,,10,,,57,127
76603,note_off,148,0,0,,2,,,74,127
76604,note_on,1,0,0,,4,,,76,127
76653,note_off,49,0,0,,4,,,76,127
76654,note_on,1,0,0,,2,,,74,127
76703,note_off,49,0,0,,2,,,74,127
76704,note_on,1,0,0,,1,,,73,127
76753,note_off,49,0,0,,1,,,73,127
76754,note_on,1,0,0,,2,,,74,127
76803,note_off,49,0,0,,2,,,74,127
76804,note_on,1,0,0,,4,,,76,127
76853,note_off,49,0,0,,4,,,76,127
76853,note_off,0,0,0,,10,,,57,127
76854,note_on,1,0,0,,6,,,78,127
76854,note_on,0,0,0,,10,,,45,127
76903,note_off,49,0,0,,6,,,78,127
76904,note_on,1,0,0,,4,,,76,127
76953,note_off,49,0,0,,4,,,76,127
76954,note_on,1,0,0,,6,,,78,127
77003,note_off,49,0,0,,6,,,78,127
77004,note_on,1,0,0,,4,,,76,127
77053,note_off,49,0,0,,4,,,76,127
77054,note_on,1,0,0,,6,,,78,127
77103,note_off,49,0,0,,6,,,78,127
77104,note_on,1,0,0,,4,,,76,127
77153,note_off,49,0,0,,4,,,76,127
77154,note_on,1,0,0,,2,,,74,127
77252,note_off,98,0,0,,2,,,74,127
77252,note_off,0,0,0,,10,,,45,127
77253,note_on,1,0,0,,2,,,74,127
77253,note_on,0,0,0,,2,,,50,127
77451,note_off,198,0,0,,2,,,50,127
77451,note_off,0,0,0,,2,,,74,127
77452,note_on,1,0,0,,2,,,86,127
77452,note_on,0,0,0,,6,,,54,127
77550,note_off,98,0,0,,2,,,86,127
77551,note_on,1,0,0,,6,,,78,127
77649,note_off,98,0,0,,6,,,78,127
77649,note_off,0,0,0,,6,,,54,127
77650,note_on,1,0,0,,4,,,76,127
77650,note_on,0,0,0,,7,,,55,127
77848,note_off,198,0,0,,7,,,55,127
77848,note_off,0,0,0,,4,,,76,127
77849,note_on,1,0,0,,1,,,85,127
77849,note_on,0,0,0,,10,,,57,127
78047,note_off,198,0,0,,10,,,57,127
78048,note_on,1,0,0,,6,,,54,127
78147,note_off,99,0,0,,1,,,85,127
78245,note_off,98,0,0,,6,,,54,127
78246,note_on,1,0,0,,2,,,86,127
78246,note_on,0,0,0,,2,,,50,127
78344,note_off,98,0,0,,2,,,86,127
78345,note_on,1,0,0,,6,,,78,127
78443,note_off,98,0,0,,6,,,78,127
78443,note_off,0,0,0,,2,,,50,127
78444,note_on,1,0,0,,4,,,76,127
78444,note_on,0,0,0,,7,,,55,127
78642,note_off,198,0,0,,7,,,55,127
78642,note_off,0,0,0,,4,,,76,127
78643,note_on,1,0,0,,1,,,85,127
78643,note_on,0,0,0,,10,,,57,127
78841,note_off,198,0,0,,10,,,57,127
78842,note_on,1,0,0,,6,,,54,127
78941,note_off,99,0,0,,1,,,85,127
79039,note_off,98,0,0,,6,,,54,127
79040,note_on,1,0,0,,2,,,86,127
79040,note_on,0,0,0,,2,,,50,127
79138,note_off,98,0,0,,2,,,86,127
79139,note_on,1,0,0,,10,,,81,127
79237,note_off,98,0,0,,10,,,81,127
79237,note_off,0,0,0,,2,,,50,127
79238,note_on,1,0,0,,12,,,83,127
79238,note_on,0,0,0,,7,,,55,127
79336,note_off,98,0,0,,12,,,83,127
79337,note_on,1,0,0,,7,,,79,127
79435,note_off,98,0,0,,7,,,79,127
79435,note_off,0,0,0,,7,,,55,127
79436,note_on,1,0,0,,10,,,81,127
79436,note_on,0,0,0,,1,,,49,127
79534,note_off,98,0,0,,10,,,81,127
79535,note_on,1,0,0,,4,,,76,127
79633,note_off,98,0,0,,4,,,76,127
79633,note_off,0,0,0,,1,,,49,127
79634,note_on,1,0,0,,6,,,78,127
79634,note_on,0,0,0,,2,,,50,127
79732,note_off,98,0,0,,6,,,78,127
79733,note_on,1,0,0,,1,,,73,127
79831,note_off,98,0,0,,1,,,73,127
79831,note_off,0,0,0,,2,,,50,127
79832,note_on,1,0,0,,2,,,74,127
79832,note_on,0,0,0,,6,,,42,127
79930,note_off,98,0,0,,2,,,74,127
79931,note_on,1,0,0,,10,,,69,127
80029,note_off,98,0,0,,10,,,69,127
80029,note_off,0,0,0,,6,,,42,127
80030,note_on,1,0,0,,6,,,78,127
80030,note_on,0,0,0,,7,,,43,127
80079,note_off,49,0,0,,6,,,78,127
80086,note_on,7,0,0,,4,,,76,127
80135,note_off,49,0,0,,4,,,76,127
80145,note_on,10,0,0,,6,,,78,127
80194,note_off,49,0,0,,6,,,78,127
80205,note_on,11,0,0,,4,,,76,127
80228,note_off,23,0,0,,7,,,43,127
80254,note_off,26,0,0,,4,,,76,127
80266,note_on,12,0,0,,6,,,78,127
80266,note_on,0,0,0,,10,,,45,127
80315,note_off,49,0,0,,6,,,78,127
80326,note_on,11,0,0,,4,,,76,127
80375,note_off,49,0,0,,4,,,76,127
80386,note_on,11,0,0,,2,,,74,127
80435,note_off,49,0,0,,2,,,74,127
80445,note_on,10,0,0,,4,,,76,127
80464,note_off,19,0,0,,10,,,45,127
80498,note_off,34,0,0,,4,,,76,127
80519,note_on,21,0,0,,2,,,74,127
80519,note_on,0,0,0,,2,,,38,127
82307,note_off,1788,0,0,,2,,,38,127
82307,note_off,0,0,0,,2,,,74,127
84480,end_of_track,2173,1,0,,,,,,
