tick,type,time,meta,track,program,channel,pitch,tempo,note,velocity
0,copyright,0,1,0,,,,,,
0,program_change,0,0,0,6,0,,,,
0,pitchwheel,0,0,0,,0,0,,,
0,program_change,0,0,0,6,1,,,,
0,pitchwheel,0,0,0,,1,-590,,,
0,program_change,0,0,0,6,2,,,,
0,pitchwheel,0,0,0,,2,-272,,,
0,program_change,0,0,0,6,3,,,,
0,pitchwheel,0,0,0,,3,-353,,,
0,program_change,0,0,0,6,4,,,,
0,pitchwheel,0,0,0,,4,-560,,,
0,program_change,0,0,0,6,5,,,,
0,pitchwheel,0,0,0,,5,-80,,,
0,program_change,0,0,0,6,6,,,,
0,pitchwheel,0,0,0,,6,-625,,,
0,program_change,0,0,0,6,7,,,,
0,pitchwheel,0,0,0,,7,-130,,,
0,program_change,0,0,0,6,8,,,,
0,pitchwheel,0,0,0,,8,-512,,,
0,program_change,0,0,0,6,10,,,,
0,pitchwheel,0,0,0,,10,-464,,,
0,program_change,0,0,0,6,11,,,,
0,pitchwheel,0,0,0,,11,-208,,,
0,program_change,0,0,0,6,12,,,,
0,pitchwheel,0,0,0,,12,-553,,,
0,set_tempo,0,1,0,,,,500000,,
100,note_on,100,0,0,,6,,,66,127
100,note_on,0,0,0,,10,,,81,127
298,note_off,198,0,0,,6,,,66,127
300,note_on,2,0,0,,2,,,62,127
498,note_off,198,0,0,,2,,,62,127
500,note_on,2,0,0,,10,,,69,127
698,note_off,198,0,0,,10,,,69,127
698,note_off,0,0,0,,10,,,81,127
700,note_on,2,0,0,,6,,,66,127
700,note_on,0,0,0,,4,,,76,127
775,note_on,75,0,0,,2,,,74,127
798,note_off,23,0,0,,4,,,76,127
850,note_on,52,0,0,,4,,,76,127
873,note_off,23,0,0,,2,,,74,127
898,note_off,25,0,0,,6,,,66,127
900,note_on,2,0,0,,2,,,62,127
925,note_on,25,0,0,,2,,,74,127
948,note_off,23,0,0,,4,,,76,127
1000,note_on,52,0,0,,4,,,76,127
1023,note_off,23,0,0,,2,,,74,127
1075,note_on,52,0,0,,2,,,74,127
1098,note_off,23,0,0,,4,,,76,127
1098,note_off,0,0,0,,2,,,62,127
1100,note_on,2,0,0,,10,,,69,127
1150,note_on,50,0,0,,4,,,76,127
1173,note_off,23,0,0,,2,,,74,127
1225,note_on,52,0,0,,2,,,74,127
1248,note_off,23,0,0,,4,,,76,127
1298,note_off,50,0,0,,10,,,69,127
1299,note_off,1,0,0,,2,,,74,127
1300,note_on,1,0,0,,6,,,66,127
1300,note_on,0,0,0,,10,,,81,127
1498,note_off,198,0,0,,6,,,66,127
1500,note_on,2,0,0,,2,,,62,127
1698,note_off,198,0,0,,2,,,62,127
1700,note_on,2,0,0,,10,,,69,127
1898,note_off,198,0,0,,10,,,69,127
1898,note_off,0,0,0,,10,,,81,127
1900,note_on,2,0,0,,6,,,66,127
1900,note_on,0,0,0,,4,,,76,127
1975,note_on,75,0,0,,2,,,74,127
1998,note_off,23,0,0,,4,,,76,127
2050,note_on,52,0,0,,4,,,76,127
2073,note_off,23,0,0,,2,,,74,127
2098,note_off,25,0,0,,6,,,66,127
2100,note_on,2,0,0,,2,,,62,127
2125,note_on,25,0,0,,2,,,74,127
2148,note_off,23,0,0,,4,,,76,127
2200,note_on,52,0,0,,4,,,76,127
2223,note_off,23,0,0,,2,,,74,127
2275,note_on,52,0,0,,2,,,74,127
2298,note_off,23,0,0,,4,,,76,127
2298,note_off,0,0,0,,2,,,62,127
2300,note_on,2,0,0,,10,,,69,127
2350,note_on,50,0,0,,4,,,76,127
2373,note_off,23,0,0,,2,,,74,127
2425,note_on,52,0,0,,2,,,74,127
2448,note_off,23,0,0,,4,,,76,127
2498,note_off,50,0,0,,10,,,69,127
2499,note_off,1,0,0,,2,,,74,127
2500,note_on,1,0,0,,7,,,67,127
2500,note_on,0,0,0,,12,,,83,127
2598,note_off,98,0,0,,12,,,83,127
2600,note_on,2,0,0,,10,,,81,127
2698,note_off,98,0,0,,10,,,81,127
2700,note_on,2,0,0,,7,,,79,127
2798,note_off,98,0,0,,7,,,79,127
2800,note_on,2,0,0,,6,,,78,127
2898,note_off,98,0,0,,6,,,78,127
2898,note_off,0,0,0,,7,,,67,127
2900,note_on,2,0,0,,7,,,55,127
2900,note_on,0,0,0,,4,,,76,127
2998,note_off,98,0,0,,4,,,76,127
3000,note_on,2,0,0,,2,,,74,127
3098,note_off,98,0,0,,2,,,74,127
3098,note_off,0,0,0,,7,,,55,127
3100,note_on,2,0,0,,10,,,57,127
3100,note_on,0,0,0,,1,,,73,127
3198,note_off,98,0,0,,1,,,73,127
3200,note_on,2,0,0,,12,,,71,127
3298,note_off,98,0,0,,12,,,71,127
3298,note_off,0,0,0,,10,,,57,127
3300,note_on,2,0,0,,12,,,59,127
3300,note_on,0,0,0,,10,,,69,127
3398,note_off,98,0,0,,10,,,69,127
3400,note_on,2,0,0,,7,,,67,127
3498,note_off,98,0,0,,7,,,67,127
3498,note_off,0,0,0,,12,,,59,127
3500,note_on,2,0,0,,1,,,61,127
3500,note_on,0,0,0,,6,,,66,127
3598,note_off,98,0,0,,6,,,66,127
3600,note_on,2,0,0,,4,,,64,127
3698,note_off,98,0,0,,4,,,64,127
3698,note_off,0,0,0,,1,,,61,127
3700,note_on,2,0,0,,2,,,62,127
3700,note_on,0,0,0,,6,,,66,127
3798,note_off,98,0,0,,6,,,66,127
3800,note_on,2,0,0,,10,,,69,127
3898,note_off,98,0,0,,10,,,69,127
3898,note_off,0,0,0,,2,,,62,127
3900,note_on,2,0,0,,12,,,59,127
3900,note_on,0,0,0,,7,,,67,127
3998,note_off,98,0,0,,7,,,67,127
4000,note_on,2,0,0,,6,,,66,127
4098,note_off,98,0,0,,6,,,66,127
4098,note_off,0,0,0,,12,,,59,127
4100,note_on,2,0,0,,7,,,55,127
4100,note_on,0,0,0,,4,,,64,127
4198,note_off,98,0,0,,4,,,64,127
4200,note_on,2,0,0,,2,,,62,127
4298,note_off,98,0,0,,2,,,62,127
4298,note_off,0,0,0,,7,,,55,127
4300,note_on,2,0,0,,10,,,57,127
4300,note_on,0,0,0,,1,,,61,127
4398,note_off,98,0,0,,1,,,61,127
4400,note_on,2,0,0,,12,,,59,127
4498,note_off,98,0,0,,12,,,59,127
4498,note_off,0,0,0,,10,,,57,127
4500,note_on,2,0,0,,10,,,57,127
4600,note_on,100,0,0,,7,,,55,127
4698,note_off,98,0,0,,7,,,55,127
4700,note_on,2,0,0,,6,,,54,127
4798,note_off,98,0,0,,6,,,54,127
4800,note_on,2,0,0,,4,,,52,127
4898,note_off,98,0,0,,4,,,52,127
4898,note_off,0,0,0,,10,,,57,127
4900,note_on,2,0,0,,6,,,54,127
4900,note_on,0,0,0,,10,,,69,127
5098,note_off,198,0,0,,6,,,54,127
5100,note_on,2,0,0,,2,,,50,127
5298,note_off,198,0,0,,2,,,50,127
5300,note_on,2,0,0,,10,,,57,127
5498,note_off,198,0,0,,10,,,57,127
5498,note_off,0,0,0,,10,,,69,127
5500,note_on,2,0,0,,6,,,54,127
5500,note_on,0,0,0,,4,,,64,127
5575,note_on,75,0,0,,2,,,62,127
5598,note_off,23,0,0,,4,,,64,127
5650,note_on,52,0,0,,4,,,64,127
5673,note_off,23,0,0,,2,,,62,127
5698,note_off,25,0,0,,6,,,54,127
5700,note_on,2,0,0,,2,,,50,127
5725,note_on,25,0,0,,2,,,62,127
5748,note_off,23,0,0,,4,,,64,127
5800,note_on,52,0,0,,4,,,64,127
5823,note_off,23,0,0,,2,,,62,127
5875,note_on,52,0,0,,2,,,62,127
5898,note_off,23,0,0,,4,,,64,127
5898,note_off,0,0,0,,2,,,50,127
5900,note_on,2,0,0,,10,,,57,127
5950,note_on,50,0,0,,4,,,64,127
5973,note_off,23,0,0,,2,,,62,127
6025,note_on,52,0,0,,2,,,62,127
6048,note_off,23,0,0,,4,,,64,127
6098,note_off,50,0,0,,10,,,57,127
6099,note_off,1,0,0,,2,,,62,127
6100,note_on,1,0,0,,6,,,54,127
6100,note_on,0,0,0,,10,,,69,127
6298,note_off,198,0,0,,6,,,54,127
6300,note_on,2,0,0,,2,,,50,127
6498,note_off,198,0,0,,2,,,50,127
6500,note_on,2,0,0,,10,,,57,127
6698,note_off,198,0,0,,10,,,57,127
6698,note_off,0,0,0,,10,,,69,127
6700,note_on,2,0,0,,6,,,54,127
6700,note_on,0,0,0,,4,,,64,127
6775,note_on,75,0,0,,2,,,62,127
6798,note_off,23,0,0,,4,,,64,127
6850,note_on,52,0,0,,4,,,64,127
6873,note_off,23,0,0,,2,,,62,127
6898,note_off,25,0,0,,6,,,54,127
6900,note_on,2,0,0,,2,,,50,127
6925,note_on,25,0,0,,2,,,62,127
6948,note_off,23,0,0,,4,,,64,127
7000,note_on,52,0,0,,4,,,64,127
7023,note_off,23,0,0,,2,,,62,127
7075,note_on,52,0,0,,2,,,62,127
7098,note_off,23,0,0,,4,,,64,127
7098,note_off,0,0,0,,2,,,50,127
7100,note_on,2,0,0,,10,,,57,127
7150,note_on,50,0,0,,4,,,64,127
7173,note_off,23,0,0,,2,,,62,127
7225,note_on,52,0,0,,2,,,62,127
7248,note_off,23,0,0,,4,,,64,127
7298,note_off,50,0,0,,10,,,57,127
7299,note_off,1,0,0,,2,,,62,127
7300,note_on,1,0,0,,7,,,55,127
7300,note_on,0,0,0,,12,,,71,127
7398,note_off,98,0,0,,12,,,71,127
7400,note_on,2,0,0,,10,,,69,127
7498,note_off,98,0,0,,10,,,69,127
7500,note_on,2,0,0,,7,,,67,127
7598,note_off,98,0,0,,7,,,67,127
7600,note_on,2,0,0,,6,,,66,127
7698,note_off,98,0,0,,6,,,66,127
7698,note_off,0,0,0,,7,,,55,127
7700,note_on,2,0,0,,7,,,43,127
7700,note_on,0,0,0,,4,,,64,127
7798,note_off,98,0,0,,4,,,64,127
7800,note_on,2,0,0,,2,,,62,127
7898,note_off,98,0,0,,2,,,62,127
7898,note_off,0,0,0,,7,,,43,127
7900,note_on,2,0,0,,10,,,45,127
7900,note_on,0,0,0,,1,,,61,127
7998,note_off,98,0,0,,1,,,61,127
8000,note_on,2,0,0,,4,,,64,127
8098,note_off,98,0,0,,4,,,64,127
8098,note_off,0,0,0,,10,,,45,127
8100,note_on,2,0,0,,12,,,47,127
8100,note_on,0,0,0,,2,,,62,127
8198,note_off,98,0,0,,2,,,62,127
8200,note_on,2,0,0,,6,,,66,127
8298,note_off,98,0,0,,6,,,66,127
8298,note_off,0,0,0,,12,,,47,127
8300,note_on,2,0,0,,1,,,49,127
8300,note_on,0,0,0,,4,,,64,127
8398,note_off,98,0,0,,4,,,64,127
8400,note_on,2,0,0,,7,,,67,127
8498,note_off,98,0,0,,7,,,67,127
8498,note_off,0,0,0,,1,,,49,127
8500,note_on,2,0,0,,2,,,50,127
8500,note_on,0,0,0,,6,,,66,127
8598,note_off,98,0,0,,6,,,66,127
8600,note_on,2,0,0,,10,,,69,127
8698,note_off,98,0,0,,10,,,69,127
8698,note_off,0,0,0,,2,,,50,127
8700,note_on,2,0,0,,4,,,52,127
8700,note_on,0,0,0,,7,,,67,127
8798,note_off,98,0,0,,7,,,67,127
8800,note_on,2,0,0,,12,,,71,127
8898,note_off,98,0,0,,12,,,71,127
8898,note_off,0,0,0,,4,,,52,127
8900,note_on,2,0,0,,6,,,54,127
8900,note_on,0,0,0,,10,,,69,127
8998,note_off,98,0,0,,10,,,69,127
9000,note_on,2,0,0,,1,,,73,127
9098,note_off,98,0,0,,1,,,73,127
9098,note_off,0,0,0,,6,,,54,127
9100,note_on,2,0,0,,7,,,55,127
9100,note_on,0,0,0,,12,,,71,127
9198,note_off,98,0,0,,12,,,71,127
9200,note_on,2,0,0,,2,,,74,127
9298,note_off,98,0,0,,2,,,74,127
9298,note_off,0,0,0,,7,,,55,127
9300,note_on,2,0,0,,10,,,57,127
9300,note_on,0,0,0,,1,,,73,127
9398,note_off,98,0,0,,1,,,73,127
9400,note_on,2,0,0,,4,,,76,127
9498,note_off,98,0,0,,4,,,76,127
9498,note_off,0,0,0,,10,,,57,127
9500,note_on,2,0,0,,12,,,59,127
9500,note_on,0,0,0,,2,,,74,127
9598,note_off,98,0,0,,2,,,74,127
9600,note_on,2,0,0,,6,,,78,127
9698,note_off,98,0,0,,6,,,78,127
9698,note_off,0,0,0,,12,,,59,127
9700,note_on,2,0,0,,1,,,61,127
9700,note_on,0,0,0,,4,,,76,127
9798,note_off,98,0,0,,4,,,76,127
9800,note_on,2,0,0,,7,,,79,127
9898,note_off,98,0,0,,7,,,79,127
9898,note_off,0,0,0,,1,,,61,127
9900,note_on,2,0,0,,2,,,62,127
9900,note_on,0,0,0,,6,,,78,127
9998,note_off,98,0,0,,6,,,78,127
10000,note_on,2,0,0,,10,,,81,127
10098,note_off,98,0,0,,10,,,81,127
10098,note_off,0,0,0,,2,,,62,127
10100,note_on,2,0,0,,2,,,50,127
10100,note_on,0,0,0,,7,,,79,127
10198,note_off,98,0,0,,7,,,79,127
10200,note_on,2,0,0,,6,,,78,127
10298,note_off,98,0,0,,6,,,78,127
10298,note_off,0,0,0,,2,,,50,127
10300,note_on,2,0,0,,10,,,45,127
10300,note_on,0,0,0,,6,,,78,127
10367,note_on,67,0,0,,4,,,76,127
10398,note_off,31,0,0,,6,,,78,127
10433,note_on,35,0,0,,6,,,78,127
10464,note_off,31,0,0,,4,,,76,127
10499,note_on,35,0,0,,4,,,76,127
10502,note_off,3,0,0,,6,,,78,127
10807,note_off,305,0,0,,10,,,45,127
10896,note_off,89,0,0,,4,,,76,127
10900,note_on,4,0,0,,4,,,64,127
10900,note_on,0,0,0,,7,,,79,127
10900,note_on,0,0,0,,1,,,73,127
11098,note_off,198,0,0,,4,,,64,127
11100,note_on,2,0,0,,1,,,61,127
11298,note_off,198,0,0,,1,,,61,127
11300,note_on,2,0,0,,10,,,57,127
11498,note_off,198,0,0,,10,,,57,127
11498,note_off,0,0,0,,1,,,73,127
11498,note_off,0,0,0,,7,,,79,127
11500,note_on,2,0,0,,5,,,65,127
11500,note_on,0,0,0,,10,,,81,127
11500,note_on,0,0,0,,2,,,74,127
11698,note_off,198,0,0,,5,,,65,127
11700,note_on,2,0,0,,2,,,62,127
11898,note_off,198,0,0,,2,,,62,127
11900,note_on,2,0,0,,10,,,57,127
12098,note_off,198,0,0,,10,,,57,127
12098,note_off,0,0,0,,2,,,74,127
12098,note_off,0,0,0,,10,,,81,127
12100,note_on,2,0,0,,8,,,68,127
12100,note_on,0,0,0,,2,,,86,127
12100,note_on,0,0,0,,2,,,74,127
12300,note_on,200,0,0,,10,,,57,127
12496,note_off,196,0,0,,8,,,68,127
12498,note_off,2,0,0,,10,,,57,127
12500,note_on,2,0,0,,8,,,68,127
12698,note_off,198,0,0,,8,,,68,127
12698,note_off,0,0,0,,2,,,74,127
12698,note_off,0,0,0,,2,,,86,127
12700,note_on,2,0,0,,10,,,69,127
12700,note_on,0,0,0,,10,,,57,127
12700,note_on,0,0,0,,1,,,85,127
12798,note_off,98,0,0,,1,,,85,127
12800,note_on,2,0,0,,12,,,83,127
12898,note_off,98,0,0,,12,,,83,127
12900,note_on,2,0,0,,10,,,81,127
12998,note_off,98,0,0,,10,,,81,127
13000,note_on,2,0,0,,8,,,80,127
13098,note_off,98,0,0,,8,,,80,127
13100,note_on,2,0,0,,10,,,81,127
13298,note_off,198,0,0,,10,,,81,127
13298,note_off,0,0,0,,10,,,57,127
13298,note_off,0,0,0,,10,,,69,127
13300,note_on,2,0,0,,4,,,64,127
13300,note_on,0,0,0,,1,,,73,127
13300,note_on,0,0,0,,7,,,79,127
13498,note_off,198,0,0,,4,,,64,127
13500,note_on,2,0,0,,1,,,61,127
13698,note_off,198,0,0,,1,,,61,127
13700,note_on,2,0,0,,10,,,57,127
13898,note_off,198,0,0,,10,,,57,127
13898,note_off,0,0,0,,7,,,79,127
13898,note_off,0,0,0,,1,,,73,127
13900,note_on,2,0,0,,5,,,65,127
13900,note_on,0,0,0,,10,,,81,127
13900,note_on,0,0,0,,2,,,74,127
14098,note_off,198,0,0,,5,,,65,127
14100,note_on,2,0,0,,2,,,62,127
14298,note_off,198,0,0,,2,,,62,127
14300,note_on,2,0,0,,10,,,57,127
14498,note_off,198,0,0,,10,,,57,127
14498,note_off,0,0,0,,2,,,74,127
14498,note_off,0,0,0,,10,,,81,127
14500,note_on,2,0,0,,8,,,68,127
14500,note_on,0,0,0,,2,,,86,127
14500,note_on,0,0,0,,2,,,74,127
14700,note_on,200,0,0,,10,,,57,127
14896,note_off,196,0,0,,8,,,68,127
14898,note_off,2,0,0,,10,,,57,127
14900,note_on,2,0,0,,8,,,68,127
15098,note_off,198,0,0,,8,,,68,127
15098,note_off,0,0,0,,2,,,74,127
15098,note_off,0,0,0,,2,,,86,127
15100,note_on,2,0,0,,10,,,69,127
15100,note_on,0,0,0,,10,,,57,127
15100,note_on,0,0,0,,1,,,85,127
15198,note_off,98,0,0,,1,,,85,127
15200,note_on,2,0,0,,12,,,83,127
15298,note_off,98,0,0,,12,,,83,127
15300,note_on,2,0,0,,10,,,81,127
15398,note_off,98,0,0,,10,,,81,127
15400,note_on,2,0,0,,7,,,79,127
15498,note_off,98,0,0,,7,,,79,127
15500,note_on,2,0,0,,6,,,78,127
15598,note_off,98,0,0,,6,,,78,127
15600,note_on,2,0,0,,4,,,76,127
15698,note_off,98,0,0,,4,,,76,127
15698,note_off,0,0,0,,10,,,57,127
15698,note_off,0,0,0,,10,,,69,127
15700,note_on,2,0,0,,2,,,50,127
15700,note_on,0,0,0,,2,,,62,127
15700,note_on,0,0,0,,6,,,78,127
15798,note_off,98,0,0,,6,,,78,127
15800,note_on,2,0,0,,4,,,76,127
15898,note_off,98,0,0,,4,,,76,127
15900,note_on,2,0,0,,2,,,74,127
15998,note_off,98,0,0,,2,,,74,127
16000,note_on,2,0,0,,1,,,73,127
16098,note_off,98,0,0,,1,,,73,127
16100,note_on,2,0,0,,12,,,71,127
16198,note_off,98,0,0,,12,,,71,127
16200,note_on,2,0,0,,10,,,69,127
16298,note_off,98,0,0,,10,,,69,127
16298,note_off,0,0,0,,2,,,62,127
16298,note_off,0,0,0,,2,,,50,127
16300,note_on,2,0,0,,4,,,52,127
16300,note_on,0,0,0,,8,,,68,127
16398,note_off,98,0,0,,8,,,68,127
16400,note_on,2,0,0,,6,,,66,127
16498,note_off,98,0,0,,6,,,66,127
16498,note_off,0,0,0,,4,,,52,127
16500,note_on,2,0,0,,6,,,54,127
16500,note_on,0,0,0,,4,,,64,127
16598,note_off,98,0,0,,4,,,64,127
16600,note_on,2,0,0,,2,,,62,127
16698,note_off,98,0,0,,2,,,62,127
16698,note_off,0,0,0,,6,,,54,127
16700,note_on,2,0,0,,8,,,56,127
16700,note_on,0,0,0,,1,,,61,127
16798,note_off,98,0,0,,1,,,61,127
16800,note_on,2,0,0,,12,,,59,127
16898,note_off,98,0,0,,12,,,59,127
16898,note_off,0,0,0,,8,,,56,127
16900,note_on,2,0,0,,10,,,57,127
16900,note_on,0,0,0,,1,,,61,127
16998,note_off,98,0,0,,1,,,61,127
17000,note_on,2,0,0,,2,,,62,127
17098,note_off,98,0,0,,2,,,62,127
17100,note_on,2,0,0,,1,,,61,127
17198,note_off,98,0,0,,1,,,61,127
17200,note_on,2,0,0,,12,,,59,127
17298,note_off,98,0,0,,12,,,59,127
17298,note_off,0,0,0,,10,,,57,127
17300,note_on,2,0,0,,10,,,45,127
17300,note_on,0,0,0,,1,,,61,127
17398,note_off,98,0,0,,1,,,61,127
17400,note_on,2,0,0,,10,,,57,127
17498,note_off,98,0,0,,10,,,57,127
17498,note_off,0,0,0,,10,,,45,127
17500,note_on,2,0,0,,4,,,52,127
17500,note_on,0,0,0,,1,,,61,127
17567,note_on,67,0,0,,12,,,59,127
17598,note_off,31,0,0,,1,,,61,127
17633,note_on,35,0,0,,1,,,61,127
17664,note_off,31,0,0,,12,,,59,127
17699,note_on,35,0,0,,12,,,59,127
17730,note_off,31,0,0,,1,,,61,127
18095,note_off,365,0,0,,12,,,59,127
18098,note_off,3,0,0,,4,,,52,127
18099,note_on,1,0,0,,12,,,83,127
18099,note_on,0,0,0,,2,,,74,127
18199,note_on,100,0,0,,12,,,71,127
18297,note_off,98,0,0,,12,,,71,127
18299,note_on,2,0,0,,10,,,69,127
18397,note_off,98,0,0,,10,,,69,127
18399,note_on,2,0,0,,8,,,68,127
18495,note_off,96,0,0,,2,,,74,127
18495,note_off,0,0,0,,12,,,83,127
18497,note_off,2,0,0,,8,,,68,127
18499,note_on,2,0,0,,10,,,69,127
18599,note_on,100,0,0,,10,,,57,127
18599,note_on,0,0,0,,10,,,81,127
18599,note_on,0,0,0,,1,,,73,127
18697,note_off,98,0,0,,1,,,73,127
18697,note_off,0,0,0,,10,,,81,127
18697,note_off,0,0,0,,10,,,69,127
18699,note_on,2,0,0,,12,,,83,127
18699,note_on,0,0,0,,2,,,74,127
18797,note_off,98,0,0,,10,,,57,127
18799,note_on,2,0,0,,4,,,64,127
18897,note_off,98,0,0,,4,,,64,127
18899,note_on,2,0,0,,6,,,66,127
18997,note_off,98,0,0,,6,,,66,127
18999,note_on,2,0,0,,8,,,68,127
19095,note_off,96,0,0,,2,,,74,127
19095,note_off,0,0,0,,12,,,83,127
19097,note_off,2,0,0,,8,,,68,127
19099,note_on,2,0,0,,10,,,69,127
19199,note_on,100,0,0,,10,,,57,127
19199,note_on,0,0,0,,1,,,73,127
19199,note_on,0,0,0,,10,,,81,127
19297,note_off,98,0,0,,10,,,81,127
19297,note_off,0,0,0,,1,,,73,127
19297,note_off,0,0,0,,10,,,69,127
19299,note_on,2,0,0,,2,,,74,127
19299,note_on,0,0,0,,12,,,83,127
19397,note_off,98,0,0,,10,,,57,127
19399,note_on,2,0,0,,12,,,71,127
19497,note_off,98,0,0,,12,,,71,127
19499,note_on,2,0,0,,10,,,69,127
19597,note_off,98,0,0,,10,,,69,127
19599,note_on,2,0,0,,8,,,68,127
19695,note_off,96,0,0,,12,,,83,127
19695,note_off,0,0,0,,2,,,74,127
19697,note_off,2,0,0,,8,,,68,127
19699,note_on,2,0,0,,10,,,69,127
19799,note_on,100,0,0,,10,,,57,127
19799,note_on,0,0,0,,10,,,81,127
19799,note_on,0,0,0,,1,,,73,127
19897,note_off,98,0,0,,1,,,73,127
19897,note_off,0,0,0,,10,,,81,127
19897,note_off,0,0,0,,10,,,69,127
19899,note_on,2,0,0,,2,,,74,127
19899,note_on,0,0,0,,12,,,83,127
19997,note_off,98,0,0,,10,,,57,127
19999,note_on,2,0,0,,4,,,64,127
20097,note_off,98,0,0,,4,,,64,127
20099,note_on,2,0,0,,6,,,66,127
20197,note_off,98,0,0,,6,,,66,127
20199,note_on,2,0,0,,8,,,68,127
20297,note_off,98,0,0,,8,,,68,127
20299,note_on,2,0,0,,10,,,69,127
20397,note_off,98,0,0,,12,,,83,127
20397,note_off,0,0,0,,2,,,74,127
20399,note_on,2,0,0,,10,,,57,127
20399,note_on,0,0,0,,1,,,73,127
20399,note_on,0,0,0,,10,,,81,127
20497,note_off,98,0,0,,10,,,81,127
20497,note_off,0,0,0,,1,,,73,127
20497,note_off,0,0,0,,10,,,57,127
20497,note_off,0,0,0,,10,,,69,127
20499,note_on,2,0,0,,4,,,64,127
20499,note_on,0,0,0,,8,,,80,127
20597,note_off,98,0,0,,8,,,80,127
20599,note_on,2,0,0,,6,,,78,127
20697,note_off,98,0,0,,6,,,78,127
20697,note_off,0,0,0,,4,,,64,127
20699,note_on,2,0,0,,2,,,62,127
20699,note_on,0,0,0,,4,,,76,127
20797,note_off,98,0,0,,4,,,76,127
20799,note_on,2,0,0,,8,,,80,127
20897,note_off,98,0,0,,8,,,80,127
20897,note_off,0,0,0,,2,,,62,127
20899,note_on,2,0,0,,1,,,61,127
20899,note_on,0,0,0,,10,,,81,127
20997,note_off,98,0,0,,10,,,81,127
20999,note_on,2,0,0,,4,,,76,127
21097,note_off,98,0,0,,4,,,76,127
21097,note_off,0,0,0,,1,,,61,127
21099,note_on,2,0,0,,2,,,62,127
21099,note_on,0,0,0,,6,,,78,127
21197,note_off,98,0,0,,6,,,78,127
21199,note_on,2,0,0,,2,,,74,127
21297,note_off,98,0,0,,2,,,74,127
21297,note_off,0,0,0,,2,,,62,127
21299,note_on,2,0,0,,4,,,64,127
21299,note_on,0,0,0,,1,,,73,127
21397,note_off,98,0,0,,1,,,73,127
21399,note_on,2,0,0,,12,,,71,127
21497,note_off,98,0,0,,12,,,71,127
21497,note_off,0,0,0,,4,,,64,127
21499,note_on,2,0,0,,4,,,52,127
21499,note_on,0,0,0,,10,,,69,127
21597,note_off,98,0,0,,10,,,69,127
21599,note_on,2,0,0,,8,,,68,127
21697,note_off,98,0,0,,8,,,68,127
21697,note_off,0,0,0,,4,,,52,127
21699,note_on,2,0,0,,10,,,45,127
21699,note_on,0,0,0,,10,,,69,127
21797,note_off,98,0,0,,10,,,69,127
21799,note_on,2,0,0,,12,,,71,127
21897,note_off,98,0,0,,12,,,71,127
21899,note_on,2,0,0,,1,,,73,127
21997,note_off,98,0,0,,1,,,73,127
21999,note_on,2,0,0,,2,,,74,127
22097,note_off,98,0,0,,2,,,74,127
22099,note_on,2,0,0,,4,,,76,127
22197,note_off,98,0,0,,4,,,76,127
22199,note_on,2,0,0,,1,,,73,127
22297,note_off,98,0,0,,1,,,73,127
22298,note_off,1,0,0,,10,,,45,127
22299,note_on,1,0,0,,4,,,64,127
22299,note_on,0,0,0,,12,,,71,127
22299,note_on,0,0,0,,2,,,74,127
22399,note_on,100,0,0,,12,,,59,127
22497,note_off,98,0,0,,12,,,59,127
22499,note_on,2,0,0,,10,,,57,127
22597,note_off,98,0,0,,10,,,57,127
22599,note_on,2,0,0,,8,,,56,127
22695,note_off,96,0,0,,2,,,74,127
22695,note_off,0,0,0,,12,,,71,127
22695,note_off,0,0,0,,4,,,64,127
22697,note_off,2,0,0,,8,,,56,127
22699,note_on,2,0,0,,10,,,57,127
22799,note_on,100,0,0,,10,,,45,127
22799,note_on,0,0,0,,4,,,64,127
22799,note_on,0,0,0,,1,,,73,127
22799,note_on,0,0,0,,10,,,69,127
22897,note_off,98,0,0,,10,,,69,127
22897,note_off,0,0,0,,1,,,73,127
22897,note_off,0,0,0,,10,,,57,127
22899,note_on,2,0,0,,12,,,71,127
22899,note_on,0,0,0,,2,,,74,127
22949,note_off,50,0,0,,10,,,45,127
22999,note_on,50,0,0,,4,,,52,127
23097,note_off,98,0,0,,4,,,52,127
23099,note_on,2,0,0,,6,,,54,127
23197,note_off,98,0,0,,6,,,54,127
23199,note_on,2,0,0,,8,,,56,127
23295,note_off,96,0,0,,2,,,74,127
23295,note_off,0,0,0,,12,,,71,127
23297,note_off,2,0,0,,8,,,56,127
23297,note_off,0,0,0,,4,,,64,127
23299,note_on,2,0,0,,10,,,57,127
23399,note_on,100,0,0,,10,,,45,127
23399,note_on,0,0,0,,4,,,64,127
23399,note_on,0,0,0,,10,,,69,127
23399,note_on,0,0,0,,1,,,73,127
23497,note_off,98,0,0,,1,,,73,127
23497,note_off,0,0,0,,10,,,69,127
23497,note_off,0,0,0,,10,,,57,127
23499,note_on,2,0,0,,2,,,74,127
23499,note_on,0,0,0,,12,,,71,127
23549,note_off,50,0,0,,10,,,45,127
23599,note_on,50,0,0,,12,,,59,127
23697,note_off,98,0,0,,12,,,59,127
23699,note_on,2,0,0,,10,,,57,127
23797,note_off,98,0,0,,10,,,57,127
23799,note_on,2,0,0,,8,,,56,127
23895,note_off,96,0,0,,12,,,71,127
23895,note_off,0,0,0,,2,,,74,127
23897,note_off,2,0,0,,8,,,56,127
23897,note_off,0,0,0,,4,,,64,127
23899,note_on,2,0,0,,10,,,57,127
23999,note_on,100,0,0,,10,,,45,127
23999,note_on,0,0,0,,4,,,64,127
23999,note_on,0,0,0,,1,,,73,127
23999,note_on,0,0,0,,10,,,69,127
24097,note_off,98,0,0,,10,,,69,127
24097,note_off,0,0,0,,1,,,73,127
24097,note_off,0,0,0,,10,,,57,127
24099,note_on,2,0,0,,12,,,71,127
24099,note_on,0,0,0,,2,,,74,127
24149,note_off,50,0,0,,10,,,45,127
24199,note_on,50,0,0,,4,,,52,127
24297,note_off,98,0,0,,4,,,52,127
24299,note_on,2,0,0,,6,,,54,127
24397,note_off,98,0,0,,6,,,54,127
24399,note_on,2,0,0,,8,,,56,127
24497,note_off,98,0,0,,8,,,56,127
24499,note_on,2,0,0,,10,,,57,127
24597,note_off,98,0,0,,2,,,74,127
24597,note_off,0,0,0,,12,,,71,127
24598,note_off,1,0,0,,4,,,64,127
24599,note_on,1,0,0,,10,,,45,127
24599,note_on,0,0,0,,4,,,64,127
24599,note_on,0,0,0,,1,,,73,127
24599,note_on,0,0,0,,10,,,69,127
24697,note_off,98,0,0,,10,,,69,127
24697,note_off,0,0,0,,1,,,73,127
24697,note_off,0,0,0,,10,,,45,127
24697,note_off,0,0,0,,10,,,57,127
24699,note_on,2,0,0,,4,,,52,127
24699,note_on,0,0,0,,12,,,71,127
24797,note_off,98,0,0,,12,,,71,127
24797,note_off,0,0,0,,4,,,64,127
24799,note_on,2,0,0,,4,,,76,127
24897,note_off,98,0,0,,4,,,76,127
24897,note_off,0,0,0,,4,,,52,127
24899,note_on,2,0,0,,2,,,50,127
24899,note_on,0,0,0,,6,,,78,127
24997,note_off,98,0,0,,6,,,78,127
24999,note_on,2,0,0,,8,,,80,127
25097,note_off,98,0,0,,8,,,80,127
25097,note_off,0,0,0,,2,,,50,127
25099,note_on,2,0,0,,1,,,49,127
25099,note_on,0,0,0,,10,,,81,127
25197,note_off,98,0,0,,10,,,81,127
25199,note_on,2,0,0,,4,,,76,127
25297,note_off,98,0,0,,4,,,76,127
25297,note_off,0,0,0,,1,,,49,127
25299,note_on,2,0,0,,2,,,50,127
25299,note_on,0,0,0,,6,,,78,127
25397,note_off,98,0,0,,6,,,78,127
25399,note_on,2,0,0,,2,,,74,127
25497,note_off,98,0,0,,2,,,74,127
25497,note_off,0,0,0,,2,,,50,127
25499,note_on,2,0,0,,4,,,52,127
25499,note_on,0,0,0,,1,,,73,127
25597,note_off,98,0,0,,1,,,73,127
25599,note_on,2,0,0,,12,,,71,127
25697,note_off,98,0,0,,12,,,71,127
25699,note_on,2,0,0,,4,,,40,127
25699,note_on,0,0,0,,10,,,69,127
25797,note_off,98,0,0,,10,,,69,127
25799,note_on,2,0,0,,8,,,68,127
25895,note_off,96,0,0,,4,,,52,127
25897,note_off,2,0,0,,8,,,68,127
25897,note_off,0,0,0,,4,,,40,127
25899,note_on,2,0,0,,10,,,57,127
25899,note_on,0,0,0,,8,,,80,127
26097,note_off,198,0,0,,8,,,80,127
26099,note_on,2,0,0,,10,,,81,127
26197,note_off,98,0,0,,10,,,57,127
26199,note_on,2,0,0,,8,,,56,127
26297,note_off,98,0,0,,8,,,56,127
26297,note_off,0,0,0,,10,,,81,127
26299,note_on,2,0,0,,6,,,54,127
26299,note_on,0,0,0,,10,,,69,127
26397,note_off,98,0,0,,6,,,54,127
26399,note_on,2,0,0,,4,,,52,127
26497,note_off,98,0,0,,4,,,52,127
26499,note_on,2,0,0,,2,,,50,127
26597,note_off,98,0,0,,10,,,69,127
26599,note_on,2,0,0,,6,,,78,127
26697,note_off,98,0,0,,6,,,78,127
26697,note_off,0,0,0,,2,,,50,127
26699,note_on,2,0,0,,4,,,52,127
26699,note_on,0,0,0,,4,,,76,127
26797,note_off,98,0,0,,4,,,76,127
26799,note_on,2,0,0,,2,,,74,127
26897,note_off,98,0,0,,2,,,74,127
26899,note_on,2,0,0,,4,,,40,127
26899,note_on,0,0,0,,1,,,73,127
26997,note_off,98,0,0,,1,,,73,127
26999,note_on,2,0,0,,12,,,71,127
27095,note_off,96,0,0,,4,,,52,127
27097,note_off,2,0,0,,12,,,71,127
27097,note_off,0,0,0,,4,,,40,127
27099,note_on,2,0,0,,10,,,57,127
27099,note_on,0,0,0,,8,,,80,127
27297,note_off,198,0,0,,8,,,80,127
27299,note_on,2,0,0,,10,,,81,127
27397,note_off,98,0,0,,10,,,57,127
27399,note_on,2,0,0,,8,,,56,127
27497,note_off,98,0,0,,8,,,56,127
27497,note_off,0,0,0,,10,,,81,127
27499,note_on,2,0,0,,6,,,54,127
27499,note_on,0,0,0,,10,,,69,127
27597,note_off,98,0,0,,6,,,54,127
27599,note_on,2,0,0,,4,,,52,127
27697,note_off,98,0,0,,4,,,52,127
27699,note_on,2,0,0,,2,,,50,127
27797,note_off,98,0,0,,10,,,69,127
27799,note_on,2,0,0,,6,,,78,127
27897,note_off,98,0,0,,6,,,78,127
27897,note_off,0,0,0,,2,,,50,127
27899,note_on,2,0,0,,4,,,52,127
27899,note_on,0,0,0,,4,,,76,127
27997,note_off,98,0,0,,4,,,76,127
27999,note_on,2,0,0,,2,,,74,127
28097,note_off,98,0,0,,2,,,74,127
28099,note_on,2,0,0,,4,,,40,127
28099,note_on,0,0,0,,1,,,73,127
28197,note_off,98,0,0,,1,,,73,127
28199,note_on,2,0,0,,12,,,71,127
28295,note_off,96,0,0,,4,,,52,127
28297,note_off,2,0,0,,12,,,71,127
28297,note_off,0,0,0,,4,,,40,127
28299,note_on,2,0,0,,10,,,45,127
28299,note_on,0,0,0,,1,,,73,127
28397,note_off,98,0,0,,1,,,73,127
28399,note_on,2,0,0,,12,,,71,127
28497,note_off,98,0,0,,12,,,71,127
28497,note_off,0,0,0,,10,,,45,127
28499,note_on,2,0,0,,12,,,47,127
28499,note_on,0,0,0,,10,,,69,127
28597,note_off,98,0,0,,10,,,69,127
28599,note_on,2,0,0,,8,,,68,127
28697,note_off,98,0,0,,8,,,68,127
28697,note_off,0,0,0,,12,,,47,127
28699,note_on,2,0,0,,1,,,49,127
28699,note_on,0,0,0,,10,,,69,127
28797,note_off,98,0,0,,10,,,69,127
28799,note_on,2,0,0,,4,,,64,127
28897,note_off,98,0,0,,4,,,64,127
28897,note_off,0,0,0,,1,,,49,127
28899,note_on,2,0,0,,2,,,50,127
28899,note_on,0,0,0,,6,,,66,127
28997,note_off,98,0,0,,6,,,66,127
28999,note_on,2,0,0,,2,,,62,127
29097,note_off,98,0,0,,2,,,62,127
29097,note_off,0,0,0,,2,,,50,127
29099,note_on,2,0,0,,4,,,52,127
29099,note_on,0,0,0,,1,,,61,127
29197,note_off,98,0,0,,1,,,61,127
29199,note_on,2,0,0,,10,,,69,127
29297,note_off,98,0,0,,10,,,69,127
29299,note_on,2,0,0,,4,,,40,127
29299,note_on,0,0,0,,12,,,59,127
29397,note_off,98,0,0,,12,,,59,127
29399,note_on,2,0,0,,8,,,68,127
29495,note_off,96,0,0,,4,,,52,127
29497,note_off,2,0,0,,8,,,68,127
29497,note_off,0,0,0,,4,,,40,127
29499,note_on,2,0,0,,10,,,45,127
29499,note_on,0,0,0,,10,,,69,127
29896,note_off,397,0,0,,10,,,69,127
30098,note_off,202,0,0,,10,,,45,127
30100,note_on,2,0,0,,7,,,55,127
30100,note_on,0,0,0,,1,,,73,127
30100,note_on,0,0,0,,4,,,64,127
30298,note_off,198,0,0,,7,,,55,127
30300,note_on,2,0,0,,4,,,52,127
30498,note_off,198,0,0,,4,,,52,127
30500,note_on,2,0,0,,10,,,45,127
30698,note_off,198,0,0,,10,,,45,127
30698,note_off,0,0,0,,4,,,64,127
30698,note_off,0,0,0,,1,,,73,127
30700,note_on,2,0,0,,6,,,54,127
30700,note_on,0,0,0,,6,,,66,127
30700,note_on,0,0,0,,2,,,74,127
30898,note_off,198,0,0,,6,,,54,127
30900,note_on,2,0,0,,2,,,50,127
31098,note_off,198,0,0,,2,,,50,127
31100,note_on,2,0,0,,10,,,45,127
31298,note_off,198,0,0,,10,,,45,127
31298,note_off,0,0,0,,2,,,74,127
31298,note_off,0,0,0,,6,,,66,127
31300,note_on,2,0,0,,4,,,52,127
31300,note_on,0,0,0,,4,,,76,127
31300,note_on,0,0,0,,7,,,67,127
31498,note_off,198,0,0,,4,,,52,127
31500,note_on,2,0,0,,1,,,49,127
31698,note_off,198,0,0,,1,,,49,127
31700,note_on,2,0,0,,10,,,45,127
31898,note_off,198,0,0,,10,,,45,127
31898,note_off,0,0,0,,7,,,67,127
31898,note_off,0,0,0,,4,,,76,127
31900,note_on,2,0,0,,2,,,38,127
31900,note_on,0,0,0,,6,,,78,127
31998,note_off,98,0,0,,6,,,78,127
32000,note_on,2,0,0,,4,,,76,127
32098,note_off,98,0,0,,4,,,76,127
32100,note_on,2,0,0,,2,,,74,127
32198,note_off,98,0,0,,2,,,74,127
32200,note_on,2,0,0,,1,,,73,127
32298,note_off,98,0,0,,1,,,73,127
32300,note_on,2,0,0,,2,,,74,127
32498,note_off,198,0,0,,2,,,74,127
32498,note_off,0,0,0,,2,,,38,127
32500,note_on,2,0,0,,0,,,60,127
32500,note_on,0,0,0,,10,,,69,127
32500,note_on,0,0,0,,6,,,78,127
32698,note_off,198,0,0,,0,,,60,127
32700,note_on,2,0,0,,10,,,57,127
32898,note_off,198,0,0,,10,,,57,127
32900,note_on,2,0,0,,2,,,50,127
33098,note_off,198,0,0,,2,,,50,127
33098,note_off,0,0,0,,6,,,78,127
33098,note_off,0,0,0,,10,,,69,127
33100,note_on,2,0,0,,12,,,59,127
33100,note_on,0,0,0,,12,,,71,127
33100,note_on,0,0,0,,7,,,79,127
33298,note_off,198,0,0,,12,,,59,127
33300,note_on,2,0,0,,7,,,55,127
33498,note_off,198,0,0,,7,,,55,127
33500,note_on,2,0,0,,2,,,50,127
33698,note_off,198,0,0,,2,,,50,127
33698,note_off,0,0,0,,7,,,79,127
33698,note_off,0,0,0,,12,,,71,127
33700,note_on,2,0,0,,10,,,57,127
33700,note_on,0,0,0,,10,,,81,127
33700,note_on,0,0,0,,0,,,72,127
33898,note_off,198,0,0,,10,,,57,127
33900,note_on,2,0,0,,6,,,54,127
34098,note_off,198,0,0,,6,,,54,127
34100,note_on,2,0,0,,2,,,50,127
34298,note_off,198,0,0,,2,,,50,127
34298,note_off,0,0,0,,0,,,72,127
34298,note_off,0,0,0,,10,,,81,127
34300,note_on,2,0,0,,7,,,43,127
34300,note_on,0,0,0,,12,,,83,127
34398,note_off,98,0,0,,12,,,83,127
34400,note_on,2,0,0,,10,,,81,127
34498,note_off,98,0,0,,10,,,81,127
34500,note_on,2,0,0,,7,,,79,127
34598,note_off,98,0,0,,7,,,79,127
34600,note_on,2,0,0,,6,,,78,127
34698,note_off,98,0,0,,6,,,78,127
34700,note_on,2,0,0,,7,,,79,127
34800,note_off,100,0,0,,7,,,43,127
34898,note_off,98,0,0,,7,,,79,127
34900,note_on,2,0,0,,3,,,75,127
34900,note_on,0,0,0,,12,,,71,127
34900,note_on,0,0,0,,6,,,78,127
35000,note_on,100,0,0,,6,,,66,127
35098,note_off,98,0,0,,6,,,66,127
35100,note_on,2,0,0,,4,,,64,127
35198,note_off,98,0,0,,4,,,64,127
35200,note_on,2,0,0,,3,,,63,127
35296,note_off,96,0,0,,6,,,78,127
35296,note_off,0,0,0,,12,,,71,127
35296,note_off,0,0,0,,3,,,75,127
35298,note_off,2,0,0,,3,,,63,127
35300,note_on,2,0,0,,4,,,64,127
35400,note_on,100,0,0,,4,,,52,127
35400,note_on,0,0,0,,12,,,71,127
35400,note_on,0,0,0,,7,,,79,127
35400,note_on,0,0,0,,4,,,76,127
35498,note_off,98,0,0,,4,,,76,127
35498,note_off,0,0,0,,7,,,79,127
35498,note_off,0,0,0,,4,,,64,127
35500,note_on,2,0,0,,3,,,75,127
35500,note_on,0,0,0,,6,,,78,127
35550,note_off,50,0,0,,4,,,52,127
35600,note_on,50,0,0,,12,,,59,127
35698,note_off,98,0,0,,12,,,59,127
35700,note_on,2,0,0,,1,,,61,127
35798,note_off,98,0,0,,1,,,61,127
35800,note_on,2,0,0,,3,,,63,127
35896,note_off,96,0,0,,6,,,78,127
35896,note_off,0,0,0,,3,,,75,127
35898,note_off,2,0,0,,3,,,63,127
35898,note_off,0,0,0,,12,,,71,127
35900,note_on,2,0,0,,4,,,64,127
36000,note_on,100,0,0,,4,,,52,127
36000,note_on,0,0,0,,12,,,71,127
36000,note_on,0,0,0,,4,,,76,127
36000,note_on,0,0,0,,7,,,79,127
36098,note_off,98,0,0,,7,,,79,127
36098,note_off,0,0,0,,4,,,76,127
36098,note_off,0,0,0,,4,,,64,127
36100,note_on,2,0,0,,6,,,78,127
36100,note_on,0,0,0,,3,,,75,127
36150,note_off,50,0,0,,4,,,52,127
36200,note_on,50,0,0,,6,,,66,127
36298,note_off,98,0,0,,6,,,66,127
36300,note_on,2,0,0,,4,,,64,127
36398,note_off,98,0,0,,4,,,64,127
36400,note_on,2,0,0,,3,,,63,127
36498,note_off,98,0,0,,3,,,63,127
36500,note_on,2,0,0,,4,,,64,127
36598,note_off,98,0,0,,3,,,75,127
36598,note_off,0,0,0,,6,,,78,127
36599,note_off,1,0,0,,12,,,71,127
36600,note_on,1,0,0,,4,,,52,127
36600,note_on,0,0,0,,4,,,76,127
36600,note_on,0,0,0,,12,,,71,127
36600,note_on,0,0,0,,7,,,79,127
36698,note_off,98,0,0,,7,,,79,127
36698,note_off,0,0,0,,4,,,76,127
36698,note_off,0,0,0,,4,,,52,127
36698,note_off,0,0,0,,4,,,64,127
36700,note_on,2,0,0,,12,,,47,127
36700,note_on,0,0,0,,6,,,78,127
36798,note_off,98,0,0,,6,,,78,127
36798,note_off,0,0,0,,12,,,71,127
36800,note_on,2,0,0,,4,,,76,127
36898,note_off,98,0,0,,4,,,76,127
36900,note_on,2,0,0,,3,,,75,127
36998,note_off,98,0,0,,3,,,75,127
37000,note_on,2,0,0,,1,,,73,127
37098,note_off,98,0,0,,1,,,73,127
37100,note_on,2,0,0,,12,,,71,127
37298,note_off,198,0,0,,12,,,47,127
37300,note_on,2,0,0,,6,,,66,127
37300,note_on,0,0,0,,12,,,59,127
37398,note_off,98,0,0,,12,,,71,127
37400,note_on,2,0,0,,10,,,81,127
37498,note_off,98,0,0,,10,,,81,127
37500,note_on,2,0,0,,7,,,79,127
37598,note_off,98,0,0,,7,,,79,127
37600,note_on,2,0,0,,6,,,78,127
37698,note_off,98,0,0,,6,,,78,127
37700,note_on,2,0,0,,0,,,84,127
37798,note_off,98,0,0,,0,,,84,127
37800,note_on,2,0,0,,3,,,75,127
37898,note_off,98,0,0,,3,,,75,127
37898,note_off,0,0,0,,12,,,59,127
37898,note_off,0,0,0,,6,,,66,127
37900,note_on,2,0,0,,4,,,64,127
37900,note_on,0,0,0,,7,,,55,127
37900,note_on,0,0,0,,12,,,83,127
38098,note_off,198,0,0,,12,,,83,127
38100,note_on,2,0,0,,7,,,79,127
38298,note_off,198,0,0,,7,,,79,127
38300,note_on,2,0,0,,4,,,76,127
38498,note_off,198,0,0,,7,,,55,127
38498,note_off,0,0,0,,4,,,64,127
38500,note_on,2,0,0,,10,,,57,127
38500,note_on,0,0,0,,6,,,54,127
38598,note_off,98,0,0,,4,,,76,127
38600,note_on,2,0,0,,6,,,78,127
38698,note_off,98,0,0,,6,,,78,127
38700,note_on,2,0,0,,4,,,76,127
38798,note_off,98,0,0,,4,,,76,127
38800,note_on,2,0,0,,3,,,75,127
38898,note_off,98,0,0,,3,,,75,127
38900,note_on,2,0,0,,10,,,81,127
38998,note_off,98,0,0,,10,,,81,127
39000,note_on,2,0,0,,6,,,78,127
39098,note_off,98,0,0,,6,,,78,127
39098,note_off,0,0,0,,6,,,54,127
39098,note_off,0,0,0,,10,,,57,127
39100,note_on,2,0,0,,4,,,52,127
39100,note_on,0,0,0,,12,,,59,127
39100,note_on,0,0,0,,7,,,79,127
39298,note_off,198,0,0,,7,,,79,127
39300,note_on,2,0,0,,4,,,76,127
39498,note_off,198,0,0,,4,,,76,127
39500,note_on,2,0,0,,12,,,71,127
39698,note_off,198,0,0,,12,,,71,127
39698,note_off,0,0,0,,12,,,59,127
39698,note_off,0,0,0,,4,,,52,127
39700,note_on,2,0,0,,4,,,52,127
39700,note_on,0,0,0,,2,,,62,127
39800,note_on,100,0,0,,5,,,77,127
39898,note_off,98,0,0,,5,,,77,127
39900,note_on,2,0,0,,4,,,76,127
39998,note_off,98,0,0,,4,,,76,127
40000,note_on,2,0,0,,2,,,74,127
40098,note_off,98,0,0,,2,,,74,127
40100,note_on,2,0,0,,12,,,83,127
40198,note_off,98,0,0,,12,,,83,127
40200,note_on,2,0,0,,8,,,80,127
40298,note_off,98,0,0,,8,,,80,127
40298,note_off,0,0,0,,2,,,62,127
40298,note_off,0,0,0,,4,,,52,127
40300,note_on,2,0,0,,0,,,60,127
40300,note_on,0,0,0,,4,,,52,127
40300,note_on,0,0,0,,10,,,81,127
40498,note_off,198,0,0,,10,,,81,127
40500,note_on,2,0,0,,4,,,76,127
40698,note_off,198,0,0,,4,,,76,127
40700,note_on,2,0,0,,10,,,69,127
40898,note_off,198,0,0,,4,,,52,127
40898,note_off,0,0,0,,0,,,60,127
40900,note_on,2,0,0,,4,,,52,127
40900,note_on,0,0,0,,12,,,59,127
40998,note_off,98,0,0,,10,,,69,127
41000,note_on,2,0,0,,2,,,74,127
41098,note_off,98,0,0,,2,,,74,127
41100,note_on,2,0,0,,0,,,72,127
41198,note_off,98,0,0,,0,,,72,127
41200,note_on,2,0,0,,12,,,71,127
41298,note_off,98,0,0,,12,,,71,127
41300,note_on,2,0,0,,4,,,76,127
41398,note_off,98,0,0,,4,,,76,127
41400,note_on,2,0,0,,2,,,74,127
41498,note_off,98,0,0,,2,,,74,127
41498,note_off,0,0,0,,12,,,59,127
41498,note_off,0,0,0,,4,,,52,127
41500,note_on,2,0,0,,10,,,45,127
41500,note_on,0,0,0,,10,,,57,127
41500,note_on,0,0,0,,2,,,74,127
41598,note_off,98,0,0,,2,,,74,127
41600,note_on,2,0,0,,0,,,72,127
41698,note_off,98,0,0,,0,,,72,127
41700,note_on,2,0,0,,12,,,71,127
41898,note_off,198,0,0,,12,,,71,127
41900,note_on,2,0,0,,0,,,72,127
42000,note_off,100,0,0,,10,,,45,127
42098,note_off,98,0,0,,0,,,72,127
42098,note_off,0,0,0,,10,,,57,127
42100,note_on,2,0,0,,5,,,53,127
42100,note_on,0,0,0,,2,,,62,127
42100,note_on,0,0,0,,10,,,81,127
42198,note_off,98,0,0,,10,,,81,127
42200,note_on,2,0,0,,5,,,77,127
42298,note_off,98,0,0,,5,,,77,127
42300,note_on,2,0,0,,2,,,74,127
42398,note_off,98,0,0,,2,,,74,127
42400,note_on,2,0,0,,0,,,72,127
42498,note_off,98,0,0,,0,,,72,127
42500,note_on,2,0,0,,12,,,71,127
42598,note_off,98,0,0,,12,,,71,127
42600,note_on,2,0,0,,10,,,69,127
42698,note_off,98,0,0,,10,,,69,127
42698,note_off,0,0,0,,2,,,62,127
42698,note_off,0,0,0,,5,,,53,127
42700,note_on,2,0,0,,7,,,55,127
42700,note_on,0,0,0,,2,,,62,127
42700,note_on,0,0,0,,0,,,72,127
42798,note_off,98,0,0,,0,,,72,127
42800,note_on,2,0,0,,12,,,71,127
42898,note_off,98,0,0,,12,,,71,127
42900,note_on,2,0,0,,10,,,69,127
43098,note_off,198,0,0,,10,,,69,127
43100,note_on,2,0,0,,12,,,71,127
43298,note_off,198,0,0,,12,,,71,127
43298,note_off,0,0,0,,2,,,62,127
43298,note_off,0,0,0,,7,,,55,127
43300,note_on,2,0,0,,1,,,61,127
43300,note_on,0,0,0,,4,,,52,127
43300,note_on,0,0,0,,7,,,79,127
43398,note_off,98,0,0,,7,,,79,127
43400,note_on,2,0,0,,4,,,76,127
43498,note_off,98,0,0,,4,,,76,127
43500,note_on,2,0,0,,1,,,73,127
43598,note_off,98,0,0,,1,,,73,127
43600,note_on,2,0,0,,12,,,71,127
43698,note_off,98,0,0,,12,,,71,127
43700,note_on,2,0,0,,10,,,69,127
43798,note_off,98,0,0,,10,,,69,127
43800,note_on,2,0,0,,7,,,67,127
43898,note_off,98,0,0,,7,,,67,127
43898,note_off,0,0,0,,4,,,52,127
43898,note_off,0,0,0,,1,,,61,127
43900,note_on,2,0,0,,6,,,54,127
43900,note_on,0,0,0,,2,,,62,127
43900,note_on,0,0,0,,12,,,71,127
43998,note_off,98,0,0,,12,,,71,127
44000,note_on,2,0,0,,10,,,69,127
44098,note_off,98,0,0,,10,,,69,127
44100,note_on,2,0,0,,7,,,67,127
44298,note_off,198,0,0,,7,,,67,127
44300,note_on,2,0,0,,10,,,69,127
44498,note_off,198,0,0,,10,,,69,127
44498,note_off,0,0,0,,2,,,62,127
44498,note_off,0,0,0,,6,,,54,127
44500,note_on,2,0,0,,2,,,50,127
44500,note_on,0,0,0,,6,,,78,127
44598,note_off,98,0,0,,6,,,78,127
44600,note_on,2,0,0,,2,,,74,127
44698,note_off,98,0,0,,2,,,74,127
44700,note_on,2,0,0,,12,,,71,127
44798,note_off,98,0,0,,12,,,71,127
44800,note_on,2,0,0,,10,,,69,127
44898,note_off,98,0,0,,10,,,69,127
44900,note_on,2,0,0,,7,,,67,127
44998,note_off,98,0,0,,7,,,67,127
45000,note_on,2,0,0,,6,,,66,127
45098,note_off,98,0,0,,6,,,66,127
45098,note_off,0,0,0,,2,,,50,127
45100,note_on,2,0,0,,7,,,55,127
45100,note_on,0,0,0,,4,,,52,127
45100,note_on,0,0,0,,7,,,67,127
45198,note_off,98,0,0,,7,,,67,127
45200,note_on,2,0,0,,10,,,69,127
45298,note_off,98,0,0,,10,,,69,127
45300,note_on,2,0,0,,12,,,71,127
45398,note_off,98,0,0,,12,,,71,127
45400,note_on,2,0,0,,1,,,73,127
45498,note_off,98,0,0,,1,,,73,127
45500,note_on,2,0,0,,2,,,74,127
45598,note_off,98,0,0,,2,,,74,127
45600,note_on,2,0,0,,4,,,76,127
45698,note_off,98,0,0,,4,,,76,127
45698,note_off,0,0,0,,4,,,52,127
45698,note_off,0,0,0,,7,,,55,127
45700,note_on,2,0,0,,10,,,45,127
45700,note_on,0,0,0,,7,,,55,127
45700,note_on,0,0,0,,1,,,73,127
45798,note_off,98,0,0,,1,,,73,127
45800,note_on,2,0,0,,2,,,74,127
45898,note_off,98,0,0,,2,,,74,127
45900,note_on,2,0,0,,4,,,76,127
45998,note_off,98,0,0,,4,,,76,127
46000,note_on,2,0,0,,6,,,78,127
46098,note_off,98,0,0,,6,,,78,127
46100,note_on,2,0,0,,7,,,79,127
46198,note_off,98,0,0,,7,,,79,127
46200,note_on,2,0,0,,10,,,81,127
46298,note_off,98,0,0,,10,,,81,127
46298,note_off,0,0,0,,7,,,55,127
46298,note_off,0,0,0,,10,,,45,127
46300,note_on,2,0,0,,10,,,57,127
46300,note_on,0,0,0,,2,,,50,127
46300,note_on,0,0,0,,6,,,78,127
46398,note_off,98,0,0,,6,,,78,127
46400,note_on,2,0,0,,7,,,79,127
46498,note_off,98,0,0,,7,,,79,127
46500,note_on,2,0,0,,10,,,81,127
46598,note_off,98,0,0,,10,,,81,127
46600,note_on,2,0,0,,12,,,83,127
46698,note_off,98,0,0,,12,,,83,127
46700,note_on,2,0,0,,1,,,85,127
46798,note_off,98,0,0,,1,,,85,127
46800,note_on,2,0,0,,2,,,86,127
46898,note_off,98,0,0,,2,,,86,127
46898,note_off,0,0,0,,2,,,50,127
46898,note_off,0,0,0,,10,,,57,127
46900,note_on,2,0,0,,7,,,43,127
46900,note_on,0,0,0,,7,,,55,127
46900,note_on,0,0,0,,12,,,83,127
46998,note_off,98,0,0,,12,,,83,127
47000,note_on,2,0,0,,10,,,81,127
47098,note_off,98,0,0,,10,,,81,127
47100,note_on,2,0,0,,7,,,79,127
47198,note_off,98,0,0,,7,,,79,127
47200,note_on,2,0,0,,6,,,78,127
47298,note_off,98,0,0,,6,,,78,127
47300,note_on,2,0,0,,4,,,76,127
47398,note_off,98,0,0,,4,,,76,127
47400,note_on,2,0,0,,2,,,74,127
47498,note_off,98,0,0,,2,,,74,127
47498,note_off,0,0,0,,7,,,55,127
47498,note_off,0,0,0,,7,,,43,127
47500,note_on,2,0,0,,10,,,45,127
47500,note_on,0,0,0,,10,,,57,127
47500,note_on,0,0,0,,2,,,74,127
47598,note_off,98,0,0,,2,,,74,127
47600,note_on,2,0,0,,1,,,73,127
47798,note_off,198,0,0,,1,,,73,127
47800,note_on,2,0,0,,12,,,71,127
47898,note_off,98,0,0,,12,,,71,127
47900,note_on,2,0,0,,10,,,69,127
48000,note_off,100,0,0,,10,,,45,127
48098,note_off,98,0,0,,10,,,69,127
48099,note_off,1,0,0,,10,,,57,127
48100,note_on,1,0,0,,4,,,76,127
48100,note_on,0,0,0,,7,,,67,127
48200,note_on,100,0,0,,4,,,64,127
48298,note_off,98,0,0,,4,,,64,127
48300,note_on,2,0,0,,2,,,62,127
48398,note_off,98,0,0,,2,,,62,127
48400,note_on,2,0,0,,1,,,61,127
48496,note_off,96,0,0,,7,,,67,127
48496,note_off,0,0,0,,4,,,76,127
48498,note_off,2,0,0,,1,,,61,127
48500,note_on,2,0,0,,2,,,62,127
48600,note_on,100,0,0,,2,,,50,127
48600,note_on,0,0,0,,6,,,66,127
48600,note_on,0,0,0,,2,,,74,127
48698,note_off,98,0,0,,2,,,74,127
48698,note_off,0,0,0,,6,,,66,127
48698,note_off,0,0,0,,2,,,62,127
48700,note_on,2,0,0,,4,,,76,127
48700,note_on,0,0,0,,7,,,67,127
48750,note_off,50,0,0,,2,,,50,127
48800,note_on,50,0,0,,10,,,57,127
48898,note_off,98,0,0,,10,,,57,127
48900,note_on,2,0,0,,12,,,59,127
48998,note_off,98,0,0,,12,,,59,127
49000,note_on,2,0,0,,1,,,61,127
49096,note_off,96,0,0,,7,,,67,127
49096,note_off,0,0,0,,4,,,76,127
49098,note_off,2,0,0,,1,,,61,127
49100,note_on,2,0,0,,2,,,62,127
49200,note_on,100,0,0,,2,,,50,127
49200,note_on,0,0,0,,6,,,66,127
49200,note_on,0,0,0,,2,,,74,127
49298,note_off,98,0,0,,2,,,74,127
49298,note_off,0,0,0,,6,,,66,127
49298,note_off,0,0,0,,2,,,62,127
49300,note_on,2,0,0,,7,,,67,127
49300,note_on,0,0,0,,4,,,76,127
49350,note_off,50,0,0,,2,,,50,127
49400,note_on,50,0,0,,4,,,64,127
49498,note_off,98,0,0,,4,,,64,127
49500,note_on,2,0,0,,2,,,62,127
49598,note_off,98,0,0,,2,,,62,127
49600,note_on,2,0,0,,1,,,61,127
49696,note_off,96,0,0,,4,,,76,127
49696,note_off,0,0,0,,7,,,67,127
49698,note_off,2,0,0,,1,,,61,127
49700,note_on,2,0,0,,2,,,62,127
49800,note_on,100,0,0,,2,,,50,127
49800,note_on,0,0,0,,6,,,66,127
49800,note_on,0,0,0,,2,,,74,127
49898,note_off,98,0,0,,2,,,74,127
49898,note_off,0,0,0,,6,,,66,127
49898,note_off,0,0,0,,2,,,62,127
49900,note_on,2,0,0,,7,,,67,127
49900,note_on,0,0,0,,4,,,76,127
49950,note_off,50,0,0,,2,,,50,127
50000,note_on,50,0,0,,10,,,57,127
50098,note_off,98,0,0,,10,,,57,127
50100,note_on,2,0,0,,12,,,59,127
50198,note_off,98,0,0,,12,,,59,127
50200,note_on,2,0,0,,1,,,61,127
50298,note_off,98,0,0,,1,,,61,127
50300,note_on,2,0,0,,2,,,62,127
50398,note_off,98,0,0,,4,,,76,127
50398,note_off,0,0,0,,7,,,67,127
50400,note_on,2,0,0,,2,,,50,127
50400,note_on,0,0,0,,2,,,74,127
50400,note_on,0,0,0,,6,,,66,127
50498,note_off,98,0,0,,6,,,66,127
50498,note_off,0,0,0,,2,,,74,127
50498,note_off,0,0,0,,2,,,50,127
50498,note_off,0,0,0,,2,,,62,127
50500,note_on,2,0,0,,10,,,57,127
50500,note_on,0,0,0,,1,,,73,127
50598,note_off,98,0,0,,1,,,73,127
50600,note_on,2,0,0,,12,,,71,127
50698,note_off,98,0,0,,12,,,71,127
50698,note_off,0,0,0,,10,,,57,127
50700,note_on,2,0,0,,7,,,55,127
50700,note_on,0,0,0,,10,,,69,127
50798,note_off,98,0,0,,10,,,69,127
50800,note_on,2,0,0,,1,,,73,127
50898,note_off,98,0,0,,1,,,73,127
50898,note_off,0,0,0,,7,,,55,127
50900,note_on,2,0,0,,6,,,54,127
50900,note_on,0,0,0,,2,,,74,127
50998,note_off,98,0,0,,2,,,74,127
51000,note_on,2,0,0,,4,,,76,127
51098,note_off,98,0,0,,4,,,76,127
51098,note_off,0,0,0,,6,,,54,127
51100,note_on,2,0,0,,7,,,55,127
51100,note_on,0,0,0,,6,,,78,127
51198,note_off,98,0,0,,6,,,78,127
51200,note_on,2,0,0,,7,,,79,127
51298,note_off,98,0,0,,7,,,79,127
51298,note_off,0,0,0,,7,,,55,127
51300,note_on,2,0,0,,10,,,57,127
51300,note_on,0,0,0,,6,,,78,127
51398,note_off,98,0,0,,6,,,78,127
51400,note_on,2,0,0,,4,,,76,127
51498,note_off,98,0,0,,4,,,76,127
51500,note_on,2,0,0,,10,,,45,127
51500,note_on,0,0,0,,2,,,74,127
51598,note_off,98,0,0,,2,,,74,127
51600,note_on,2,0,0,,1,,,73,127
51696,note_off,96,0,0,,10,,,57,127
51698,note_off,2,0,0,,1,,,73,127
51698,note_off,0,0,0,,10,,,45,127
51700,note_on,2,0,0,,2,,,50,127
51700,note_on,0,0,0,,2,,,74,127
51798,note_off,98,0,0,,2,,,74,127
51800,note_on,2,0,0,,4,,,76,127
51898,note_off,98,0,0,,4,,,76,127
51900,note_on,2,0,0,,6,,,78,127
51998,note_off,98,0,0,,6,,,78,127
52000,note_on,2,0,0,,7,,,79,127
52098,note_off,98,0,0,,7,,,79,127
52100,note_on,2,0,0,,10,,,81,127
52198,note_off,98,0,0,,10,,,81,127
52200,note_on,2,0,0,,6,,,78,127
52298,note_off,98,0,0,,6,,,78,127
52299,note_off,1,0,0,,2,,,50,127
52300,note_on,1,0,0,,4,,,76,127
52300,note_on,0,0,0,,10,,,69,127
52300,note_on,0,0,0,,7,,,79,127
52400,note_on,100,0,0,,4,,,52,127
52498,note_off,98,0,0,,4,,,52,127
52500,note_on,2,0,0,,2,,,50,127
52598,note_off,98,0,0,,2,,,50,127
52600,note_on,2,0,0,,1,,,49,127
52696,note_off,96,0,0,,7,,,79,127
52696,note_off,0,0,0,,10,,,69,127
52696,note_off,0,0,0,,4,,,76,127
52698,note_off,2,0,0,,1,,,49,127
52700,note_on,2,0,0,,2,,,50,127
52798,note_off,98,0,0,,2,,,50,127
52800,note_on,2,0,0,,2,,,38,127
52800,note_on,0,0,0,,10,,,69,127
52800,note_on,0,0,0,,6,,,78,127
52800,note_on,0,0,0,,2,,,74,127
52898,note_off,98,0,0,,2,,,74,127
52898,note_off,0,0,0,,6,,,78,127
52900,note_on,2,0,0,,4,,,76,127
52900,note_on,0,0,0,,7,,,79,127
52950,note_off,50,0,0,,2,,,38,127
53000,note_on,50,0,0,,10,,,45,127
53098,note_off,98,0,0,,10,,,45,127
53100,note_on,2,0,0,,12,,,47,127
53198,note_off,98,0,0,,12,,,47,127
53200,note_on,2,0,0,,1,,,49,127
53296,note_off,96,0,0,,7,,,79,127
53296,note_off,0,0,0,,4,,,76,127
53298,note_off,2,0,0,,1,,,49,127
53298,note_off,0,0,0,,10,,,69,127
53300,note_on,2,0,0,,2,,,50,127
53400,note_on,100,0,0,,2,,,38,127
53400,note_on,0,0,0,,10,,,69,127
53400,note_on,0,0,0,,6,,,78,127
53400,note_on,0,0,0,,2,,,74,127
53498,note_off,98,0,0,,2,,,74,127
53498,note_off,0,0,0,,6,,,78,127
53498,note_off,0,0,0,,2,,,50,127
53500,note_on,2,0,0,,7,,,79,127
53500,note_on,0,0,0,,4,,,76,127
53550,note_off,50,0,0,,2,,,38,127
53600,note_on,50,0,0,,4,,,52,127
53698,note_off,98,0,0,,4,,,52,127
53700,note_on,2,0,0,,2,,,50,127
53798,note_off,98,0,0,,2,,,50,127
53800,note_on,2,0,0,,1,,,49,127
53896,note_off,96,0,0,,4,,,76,127
53896,note_off,0,0,0,,7,,,79,127
53898,note_off,2,0,0,,1,,,49,127
53898,note_off,0,0,0,,10,,,69,127
53900,note_on,2,0,0,,2,,,50,127
54000,note_on,100,0,0,,2,,,38,127
54000,note_on,0,0,0,,10,,,69,127
54000,note_on,0,0,0,,6,,,78,127
54000,note_on,0,0,0,,2,,,74,127
54098,note_off,98,0,0,,2,,,74,127
54098,note_off,0,0,0,,6,,,78,127
54098,note_off,0,0,0,,2,,,50,127
54100,note_on,2,0,0,,7,,,79,127
54100,note_on,0,0,0,,4,,,76,127
54150,note_off,50,0,0,,2,,,38,127
54200,note_on,50,0,0,,10,,,45,127
54298,note_off,98,0,0,,10,,,45,127
54300,note_on,2,0,0,,12,,,47,127
54398,note_off,98,0,0,,12,,,47,127
54400,note_on,2,0,0,,1,,,49,127
54498,note_off,98,0,0,,1,,,49,127
54500,note_on,2,0,0,,2,,,50,127
54598,note_off,98,0,0,,4,,,76,127
54598,note_off,0,0,0,,7,,,79,127
54599,note_off,1,0,0,,10,,,69,127
54600,note_on,1,0,0,,2,,,38,127
54600,note_on,0,0,0,,10,,,69,127
54600,note_on,0,0,0,,6,,,78,127
54600,note_on,0,0,0,,2,,,74,127
54698,note_off,98,0,0,,2,,,74,127
54698,note_off,0,0,0,,6,,,78,127
54698,note_off,0,0,0,,2,,,38,127
54698,note_off,0,0,0,,2,,,50,127
54700,note_on,2,0,0,,10,,,45,127
54700,note_on,0,0,0,,4,,,76,127
54798,note_off,98,0,0,,4,,,76,127
54798,note_off,0,0,0,,10,,,69,127
54800,note_on,2,0,0,,2,,,74,127
54898,note_off,98,0,0,,2,,,74,127
54898,note_off,0,0,0,,10,,,45,127
54900,note_on,2,0,0,,7,,,43,127
54900,note_on,0,0,0,,1,,,73,127
54998,note_off,98,0,0,,1,,,73,127
55000,note_on,2,0,0,,4,,,76,127
55098,note_off,98,0,0,,4,,,76,127
55098,note_off,0,0,0,,7,,,43,127
55100,note_on,2,0,0,,6,,,42,127
55100,note_on,0,0,0,,2,,,74,127
55198,note_off,98,0,0,,2,,,74,127
55200,note_on,2,0,0,,6,,,78,127
55298,note_off,98,0,0,,6,,,78,127
55298,note_off,0,0,0,,6,,,42,127
55300,note_on,2,0,0,,7,,,43,127
55300,note_on,0,0,0,,4,,,76,127
55398,note_off,98,0,0,,4,,,76,127
55400,note_on,2,0,0,,7,,,79,127
55498,note_off,98,0,0,,7,,,79,127
55498,note_off,0,0,0,,7,,,43,127
55500,note_on,2,0,0,,10,,,45,127
55500,note_on,0,0,0,,6,,,78,127
55598,note_off,98,0,0,,6,,,78,127
55600,note_on,2,0,0,,4,,,76,127
55698,note_off,98,0,0,,4,,,76,127
55698,note_off,0,0,0,,10,,,45,127
55700,note_on,2,0,0,,10,,,45,127
55700,note_on,0,0,0,,2,,,74,127
55798,note_off,98,0,0,,2,,,74,127
55800,note_on,2,0,0,,1,,,73,127
55898,note_off,98,0,0,,1,,,73,127
55898,note_off,0,0,0,,10,,,45,127
55917,note_on,19,0,0,,1,,,85,127
55917,note_on,0,0,0,,2,,,62,127
56015,note_off,98,0,0,,1,,,85,127
56017,note_on,2,0,0,,2,,,86,127
56115,note_off,98,0,0,,2,,,86,127
56117,note_on,2,0,0,,2,,,74,127
56215,note_off,98,0,0,,2,,,62,127
56217,note_on,2,0,0,,1,,,61,127
56315,note_off,98,0,0,,1,,,61,127
56317,note_on,2,0,0,,12,,,59,127
56415,note_off,98,0,0,,12,,,59,127
56417,note_on,2,0,0,,10,,,57,127
56515,note_off,98,0,0,,10,,,57,127
56517,note_on,2,0,0,,7,,,55,127
56615,note_off,98,0,0,,2,,,74,127
56617,note_on,2,0,0,,12,,,83,127
56715,note_off,98,0,0,,12,,,83,127
56715,note_off,0,0,0,,7,,,55,127
56717,note_on,2,0,0,,10,,,81,127
56717,note_on,0,0,0,,10,,,57,127
56815,note_off,98,0,0,,10,,,81,127
56817,note_on,2,0,0,,7,,,79,127
56915,note_off,98,0,0,,7,,,79,127
56917,note_on,2,0,0,,6,,,78,127
56917,note_on,0,0,0,,10,,,45,127
57015,note_off,98,0,0,,6,,,78,127
57017,note_on,2,0,0,,4,,,76,127
57113,note_off,96,0,0,,10,,,57,127
57115,note_off,2,0,0,,4,,,76,127
57115,note_off,0,0,0,,10,,,45,127
57117,note_on,2,0,0,,2,,,50,127
57117,note_on,0,0,0,,1,,,85,127
57215,note_off,98,0,0,,1,,,85,127
57218,note_on,3,0,0,,2,,,86,127
57316,note_off,98,0,0,,2,,,86,127
57319,note_on,3,0,0,,2,,,74,127
57417,note_off,98,0,0,,2,,,50,127
57420,note_on,3,0,0,,1,,,49,127
57518,note_off,98,0,0,,1,,,49,127
57521,note_on,3,0,0,,12,,,47,127
57619,note_off,98,0,0,,12,,,47,127
57622,note_on,3,0,0,,10,,,45,127
57720,note_off,98,0,0,,10,,,45,127
57723,note_on,3,0,0,,7,,,43,127
57821,note_off,98,0,0,,2,,,74,127
57824,note_on,3,0,0,,12,,,83,127
57922,note_off,98,0,0,,12,,,83,127
57922,note_off,0,0,0,,7,,,43,127
57925,note_on,3,0,0,,10,,,45,127
57925,note_on,0,0,0,,10,,,81,127
58023,note_off,98,0,0,,10,,,81,127
58026,note_on,3,0,0,,7,,,79,127
58124,note_off,98,0,0,,7,,,79,127
58124,note_off,0,0,0,,10,,,45,127
58127,note_on,3,0,0,,1,,,49,127
58127,note_on,0,0,0,,6,,,78,127
58225,note_off,98,0,0,,6,,,78,127
58228,note_on,3,0,0,,4,,,76,127
58326,note_off,98,0,0,,4,,,76,127
58326,note_off,0,0,0,,1,,,49,127
58328,note_on,2,0,0,,6,,,78,127
58328,note_on,0,0,0,,2,,,50,127
58426,note_off,98,0,0,,6,,,78,127
58430,note_on,4,0,0,,4,,,76,127
58528,note_off,98,0,0,,4,,,76,127
58528,note_off,0,0,0,,2,,,50,127
58532,note_on,4,0,0,,2,,,74,127
58532,note_on,0,0,0,,4,,,52,127
58630,note_off,98,0,0,,2,,,74,127
58634,note_on,4,0,0,,1,,,73,127
58732,note_off,98,0,0,,1,,,73,127
58732,note_off,0,0,0,,4,,,52,127
58736,note_on,4,0,0,,2,,,74,127
58736,note_on,0,0,0,,6,,,54,127
58834,note_off,98,0,0,,2,,,74,127
58838,note_on,4,0,0,,10,,,69,127
58936,note_off,98,0,0,,10,,,69,127
58936,note_off,0,0,0,,6,,,54,127
58940,note_on,4,0,0,,7,,,55,127
58940,note_on,0,0,0,,12,,,71,127
59038,note_off,98,0,0,,12,,,71,127
59045,note_on,7,0,0,,7,,,67,127
59140,note_off,95,0,0,,7,,,55,127
59143,note_off,3,0,0,,7,,,67,127
59150,note_on,7,0,0,,10,,,57,127
59150,note_on,0,0,0,,6,,,66,127
59248,note_off,98,0,0,,6,,,66,127
59255,note_on,7,0,0,,4,,,64,127
59353,note_off,98,0,0,,4,,,64,127
59360,note_on,7,0,0,,10,,,45,127
59360,note_on,0,0,0,,2,,,62,127
59454,note_off,94,0,0,,10,,,57,127
59458,note_off,4,0,0,,2,,,62,127
59468,note_on,10,0,0,,1,,,61,127
59560,note_off,92,0,0,,10,,,45,127
59579,note_off,19,0,0,,1,,,61,127
59597,note_on,18,0,0,,2,,,38,127
59597,note_on,0,0,0,,2,,,62,127
61513,note_off,1916,0,0,,2,,,62,127
61513,note_off,0,0,0,,2,,,38,127
66048,end_of_track,4535,1,0,,,,,,
