tick,type,time,meta,track,program,channel,pitch,tempo,note,velocity
0,copyright,0,1,0,,,,,,
0,program_change,0,0,0,6,0,,,,
0,pitchwheel,0,0,0,,0,0,,,
0,program_change,0,0,0,6,1,,,,
0,pitchwheel,0,0,0,,1,-590,,,
0,program_change,0,0,0,6,2,,,,
0,pitchwheel,0,0,0,,2,-272,,,
0,program_change,0,0,0,6,3,,,,
0,pitchwheel,0,0,0,,3,-353,,,
0,program_change,0,0,0,6,4,,,,
0,pitchwheel,0,0,0,,4,-560,,,
0,program_change,0,0,0,6,5,,,,
0,pitchwheel,0,0,0,,5,-80,,,
0,program_change,0,0,0,6,6,,,,
0,pitchwheel,0,0,0,,6,-625,,,
0,program_change,0,0,0,6,7,,,,
0,pitchwheel,0,0,0,,7,-130,,,
0,program_change,0,0,0,6,8,,,,
0,pitchwheel,0,0,0,,8,-512,,,
0,program_change,0,0,0,6,10,,,,
0,pitchwheel,0,0,0,,10,-464,,,
0,program_change,0,0,0,6,11,,,,
0,pitchwheel,0,0,0,,11,-208,,,
0,program_change,0,0,0,6,12,,,,
0,pitchwheel,0,0,0,,12,-553,,,
0,set_tempo,0,1,0,,,,500000,,
136,note_on,136,0,0,,5,,,53,127
136,note_on,0,0,0,,0,,,84,127
406,note_off,270,0,0,,5,,,53,127
407,note_on,1,0,0,,10,,,57,127
677,note_off,270,0,0,,10,,,57,127
678,note_on,1,0,0,,0,,,60,127
948,note_off,270,0,0,,0,,,60,127
949,note_on,1,0,0,,5,,,65,127
1083,note_off,134,0,0,,0,,,84,127
1084,note_on,1,0,0,,11,,,82,127
1218,note_off,134,0,0,,11,,,82,127
1218,note_off,0,0,0,,5,,,65,127
1219,note_on,1,0,0,,7,,,67,127
1219,note_on,0,0,0,,10,,,81,127
1353,note_off,134,0,0,,10,,,81,127
1354,note_on,1,0,0,,7,,,79,127
1488,note_off,134,0,0,,7,,,79,127
1488,note_off,0,0,0,,7,,,67,127
1489,note_on,1,0,0,,10,,,69,127
1489,note_on,0,0,0,,5,,,77,127
1623,note_off,134,0,0,,5,,,77,127
1624,note_on,1,0,0,,4,,,76,127
1758,note_off,134,0,0,,4,,,76,127
1758,note_off,0,0,0,,10,,,69,127
1759,note_on,1,0,0,,11,,,70,127
1759,note_on,0,0,0,,2,,,74,127
2029,note_off,270,0,0,,2,,,74,127
2029,note_off,0,0,0,,11,,,70,127
2030,note_on,1,0,0,,10,,,69,127
2030,note_on,0,0,0,,0,,,72,127
2300,note_off,270,0,0,,0,,,72,127
2300,note_off,0,0,0,,10,,,69,127
2301,note_on,1,0,0,,7,,,67,127
2301,note_on,0,0,0,,11,,,70,127
2571,note_off,270,0,0,,11,,,70,127
2571,note_off,0,0,0,,7,,,67,127
2572,note_on,1,0,0,,5,,,65,127
2572,note_on,0,0,0,,10,,,69,127
2842,note_off,270,0,0,,10,,,69,127
2842,note_off,0,0,0,,5,,,65,127
2843,note_on,1,0,0,,4,,,64,127
2843,note_on,0,0,0,,7,,,67,127
3113,note_off,270,0,0,,7,,,67,127
3113,note_off,0,0,0,,4,,,64,127
3114,note_on,1,0,0,,5,,,65,127
3114,note_on,0,0,0,,10,,,69,127
3384,note_off,270,0,0,,5,,,65,127
3385,note_on,1,0,0,,0,,,60,127
3430,note_on,45,0,0,,7,,,67,127
3453,note_off,23,0,0,,10,,,69,127
3476,note_on,23,0,0,,10,,,69,127
3499,note_off,23,0,0,,7,,,67,127
3522,note_on,23,0,0,,7,,,67,127
3545,note_off,23,0,0,,10,,,69,127
3568,note_on,23,0,0,,10,,,69,127
3591,note_off,23,0,0,,7,,,67,127
3614,note_on,23,0,0,,7,,,67,127
3637,note_off,23,0,0,,10,,,69,127
4155,note_off,518,0,0,,7,,,67,127
4200,note_off,45,0,0,,0,,,60,127
4201,note_on,1,0,0,,4,,,64,127
4201,note_on,0,0,0,,2,,,74,127
4335,note_off,134,0,0,,2,,,74,127
4336,note_on,1,0,0,,11,,,70,127
4470,note_off,134,0,0,,11,,,70,127
4470,note_off,0,0,0,,4,,,64,127
4471,note_on,1,0,0,,4,,,64,127
4471,note_on,0,0,0,,10,,,69,127
4605,note_off,134,0,0,,10,,,69,127
4606,note_on,1,0,0,,7,,,67,127
4740,note_off,134,0,0,,7,,,67,127
4740,note_off,0,0,0,,4,,,64,127
4741,note_on,1,0,0,,4,,,64,127
4741,note_on,0,0,0,,7,,,79,127
4875,note_off,134,0,0,,7,,,79,127
4876,note_on,1,0,0,,11,,,70,127
5010,note_off,134,0,0,,11,,,70,127
5010,note_off,0,0,0,,4,,,64,127
5011,note_on,1,0,0,,5,,,65,127
5011,note_on,0,0,0,,10,,,69,127
5281,note_off,270,0,0,,10,,,69,127
5281,note_off,0,0,0,,5,,,65,127
5282,note_on,1,0,0,,5,,,65,127
5282,note_on,0,0,0,,0,,,72,127
5348,note_off,66,0,0,,0,,,72,127
5349,note_on,1,0,0,,11,,,70,127
5415,note_off,66,0,0,,11,,,70,127
5416,note_on,1,0,0,,10,,,69,127
5482,note_off,66,0,0,,10,,,69,127
5483,note_on,1,0,0,,11,,,70,127
5549,note_off,66,0,0,,11,,,70,127
5549,note_off,0,0,0,,5,,,65,127
5550,note_on,1,0,0,,5,,,65,127
5550,note_on,0,0,0,,0,,,72,127
5820,note_off,270,0,0,,0,,,72,127
5820,note_off,0,0,0,,5,,,65,127
5821,note_on,1,0,0,,4,,,64,127
5821,note_on,0,0,0,,2,,,74,127
5955,note_off,134,0,0,,2,,,74,127
5956,note_on,1,0,0,,11,,,70,127
6090,note_off,134,0,0,,11,,,70,127
6090,note_off,0,0,0,,4,,,64,127
6091,note_on,1,0,0,,4,,,64,127
6091,note_on,0,0,0,,10,,,69,127
6225,note_off,134,0,0,,10,,,69,127
6226,note_on,1,0,0,,7,,,67,127
6360,note_off,134,0,0,,7,,,67,127
6360,note_off,0,0,0,,4,,,64,127
6361,note_on,1,0,0,,4,,,64,127
6361,note_on,0,0,0,,7,,,79,127
6495,note_off,134,0,0,,7,,,79,127
6496,note_on,1,0,0,,11,,,70,127
6630,note_off,134,0,0,,11,,,70,127
6630,note_off,0,0,0,,4,,,64,127
6631,note_on,1,0,0,,5,,,65,127
6631,note_on,0,0,0,,10,,,69,127
6901,note_off,270,0,0,,10,,,69,127
6901,note_off,0,0,0,,5,,,65,127
6902,note_on,1,0,0,,5,,,65,127
6902,note_on,0,0,0,,0,,,72,127
6968,note_off,66,0,0,,0,,,72,127
6969,note_on,1,0,0,,11,,,70,127
7035,note_off,66,0,0,,11,,,70,127
7036,note_on,1,0,0,,10,,,69,127
7102,note_off,66,0,0,,10,,,69,127
7103,note_on,1,0,0,,11,,,70,127
7169,note_off,66,0,0,,11,,,70,127
7169,note_off,0,0,0,,5,,,65,127
7170,note_on,1,0,0,,5,,,65,127
7170,note_on,0,0,0,,0,,,72,127
7440,note_off,270,0,0,,0,,,72,127
7440,note_off,0,0,0,,5,,,65,127
7441,note_on,1,0,0,,3,,,63,127
7441,note_on,0,0,0,,5,,,53,127
7441,note_on,0,0,0,,3,,,75,127
7575,note_off,134,0,0,,3,,,75,127
7576,note_on,1,0,0,,0,,,72,127
7710,note_off,134,0,0,,0,,,72,127
7710,note_off,0,0,0,,5,,,53,127
7710,note_off,0,0,0,,3,,,63,127
7711,note_on,1,0,0,,5,,,53,127
7711,note_on,0,0,0,,3,,,63,127
7711,note_on,0,0,0,,11,,,70,127
7845,note_off,134,0,0,,11,,,70,127
7846,note_on,1,0,0,,10,,,69,127
7980,note_off,134,0,0,,10,,,69,127
7980,note_off,0,0,0,,3,,,63,127
7980,note_off,0,0,0,,5,,,53,127
7981,note_on,1,0,0,,5,,,53,127
7981,note_on,0,0,0,,3,,,63,127
7981,note_on,0,0,0,,5,,,77,127
8115,note_off,134,0,0,,5,,,77,127
8116,note_on,1,0,0,,10,,,69,127
8250,note_off,134,0,0,,10,,,69,127
8250,note_off,0,0,0,,3,,,63,127
8250,note_off,0,0,0,,5,,,53,127
8251,note_on,1,0,0,,2,,,62,127
8251,note_on,0,0,0,,5,,,53,127
8251,note_on,0,0,0,,0,,,72,127
8319,note_off,68,0,0,,0,,,72,127
8319,note_on,0,0,0,,11,,,70,127
8387,note_off,68,0,0,,11,,,70,127
8387,note_on,0,0,0,,0,,,72,127
8455,note_off,68,0,0,,0,,,72,127
8455,note_on,0,0,0,,11,,,70,127
8521,note_off,66,0,0,,5,,,53,127
8521,note_off,0,0,0,,2,,,62,127
8522,note_off,1,0,0,,11,,,70,127
8522,note_on,0,0,0,,5,,,53,127
8522,note_on,0,0,0,,2,,,62,127
8522,note_on,0,0,0,,10,,,69,127
8792,note_off,270,0,0,,10,,,69,127
8792,note_off,0,0,0,,2,,,62,127
8792,note_off,0,0,0,,5,,,53,127
8793,note_on,1,0,0,,5,,,53,127
8793,note_on,0,0,0,,2,,,62,127
8793,note_on,0,0,0,,11,,,70,127
9063,note_off,270,0,0,,11,,,70,127
9063,note_off,0,0,0,,2,,,62,127
9063,note_off,0,0,0,,5,,,53,127
9064,note_on,1,0,0,,5,,,53,127
9064,note_on,0,0,0,,3,,,63,127
9064,note_on,0,0,0,,3,,,75,127
9198,note_off,134,0,0,,3,,,75,127
9199,note_on,1,0,0,,0,,,72,127
9333,note_off,134,0,0,,0,,,72,127
9333,note_off,0,0,0,,3,,,63,127
9333,note_off,0,0,0,,5,,,53,127
9334,note_on,1,0,0,,3,,,63,127
9334,note_on,0,0,0,,5,,,53,127
9334,note_on,0,0,0,,11,,,70,127
9468,note_off,134,0,0,,11,,,70,127
9469,note_on,1,0,0,,10,,,69,127
9603,note_off,134,0,0,,10,,,69,127
9603,note_off,0,0,0,,5,,,53,127
9603,note_off,0,0,0,,3,,,63,127
9604,note_on,1,0,0,,3,,,63,127
9604,note_on,0,0,0,,5,,,53,127
9604,note_on,0,0,0,,5,,,77,127
9738,note_off,134,0,0,,5,,,77,127
9739,note_on,1,0,0,,10,,,69,127
9873,note_off,134,0,0,,10,,,69,127
9873,note_off,0,0,0,,5,,,53,127
9873,note_off,0,0,0,,3,,,63,127
9874,note_on,1,0,0,,2,,,62,127
9874,note_on,0,0,0,,5,,,53,127
9874,note_on,0,0,0,,0,,,72,127
9942,note_off,68,0,0,,0,,,72,127
9942,note_on,0,0,0,,11,,,70,127
10010,note_off,68,0,0,,11,,,70,127
10010,note_on,0,0,0,,0,,,72,127
10078,note_off,68,0,0,,0,,,72,127
10078,note_on,0,0,0,,11,,,70,127
10144,note_off,66,0,0,,5,,,53,127
10144,note_off,0,0,0,,2,,,62,127
10145,note_off,1,0,0,,11,,,70,127
10145,note_on,0,0,0,,2,,,62,127
10145,note_on,0,0,0,,5,,,53,127
10145,note_on,0,0,0,,10,,,69,127
10415,note_off,270,0,0,,10,,,69,127
10415,note_off,0,0,0,,5,,,53,127
10415,note_off,0,0,0,,2,,,62,127
10416,note_on,1,0,0,,5,,,53,127
10416,note_on,0,0,0,,2,,,62,127
10416,note_on,0,0,0,,11,,,70,127
10619,note_off,203,0,0,,11,,,70,127
10685,note_off,66,0,0,,2,,,62,127
10685,note_off,0,0,0,,5,,,53,127
10686,note_on,1,0,0,,2,,,62,127
10686,note_on,0,0,0,,5,,,53,127
10686,note_on,0,0,0,,5,,,77,127
10820,note_off,134,0,0,,5,,,77,127
10821,note_on,1,0,0,,2,,,74,127
10955,note_off,134,0,0,,2,,,74,127
10955,note_off,0,0,0,,5,,,53,127
10955,note_off,0,0,0,,2,,,62,127
10956,note_on,1,0,0,,5,,,53,127
10956,note_on,0,0,0,,2,,,62,127
10956,note_on,0,0,0,,0,,,72,127
11090,note_off,134,0,0,,0,,,72,127
11091,note_on,1,0,0,,12,,,71,127
11225,note_off,134,0,0,,12,,,71,127
11225,note_off,0,0,0,,2,,,62,127
11225,note_off,0,0,0,,5,,,53,127
11226,note_on,1,0,0,,2,,,62,127
11226,note_on,0,0,0,,5,,,53,127
11226,note_on,0,0,0,,7,,,79,127
11360,note_off,134,0,0,,7,,,79,127
11361,note_on,1,0,0,,12,,,71,127
11495,note_off,134,0,0,,12,,,71,127
11495,note_off,0,0,0,,5,,,53,127
11495,note_off,0,0,0,,2,,,62,127
11496,note_on,1,0,0,,4,,,52,127
11496,note_on,0,0,0,,0,,,60,127
11496,note_on,0,0,0,,2,,,74,127
11564,note_off,68,0,0,,2,,,74,127
11564,note_on,0,0,0,,0,,,72,127
11632,note_off,68,0,0,,0,,,72,127
11632,note_on,0,0,0,,2,,,74,127
11700,note_off,68,0,0,,2,,,74,127
11700,note_on,0,0,0,,0,,,72,127
11766,note_off,66,0,0,,0,,,60,127
11766,note_off,0,0,0,,4,,,52,127
11767,note_off,1,0,0,,0,,,72,127
11767,note_on,0,0,0,,4,,,52,127
11767,note_on,0,0,0,,0,,,60,127
11767,note_on,0,0,0,,12,,,71,127
12037,note_off,270,0,0,,12,,,71,127
12037,note_off,0,0,0,,0,,,60,127
12037,note_off,0,0,0,,4,,,52,127
12038,note_on,1,0,0,,4,,,52,127
12038,note_on,0,0,0,,0,,,60,127
12038,note_on,0,0,0,,0,,,72,127
12308,note_off,270,0,0,,0,,,72,127
12308,note_off,0,0,0,,0,,,60,127
12308,note_off,0,0,0,,4,,,52,127
12309,note_on,1,0,0,,2,,,62,127
12309,note_on,0,0,0,,5,,,53,127
12309,note_on,0,0,0,,5,,,77,127
12443,note_off,134,0,0,,5,,,77,127
12444,note_on,1,0,0,,2,,,74,127
12578,note_off,134,0,0,,2,,,74,127
12578,note_off,0,0,0,,5,,,53,127
12578,note_off,0,0,0,,2,,,62,127
12579,note_on,1,0,0,,2,,,62,127
12579,note_on,0,0,0,,5,,,53,127
12579,note_on,0,0,0,,0,,,72,127
12713,note_off,134,0,0,,0,,,72,127
12714,note_on,1,0,0,,12,,,71,127
12848,note_off,134,0,0,,12,,,71,127
12848,note_off,0,0,0,,5,,,53,127
12848,note_off,0,0,0,,2,,,62,127
12849,note_on,1,0,0,,2,,,62,127
12849,note_on,0,0,0,,5,,,53,127
12849,note_on,0,0,0,,7,,,79,127
12983,note_off,134,0,0,,7,,,79,127
12984,note_on,1,0,0,,12,,,71,127
13118,note_off,134,0,0,,12,,,71,127
13118,note_off,0,0,0,,5,,,53,127
13118,note_off,0,0,0,,2,,,62,127
13119,note_on,1,0,0,,0,,,60,127
13119,note_on,0,0,0,,4,,,52,127
13119,note_on,0,0,0,,2,,,74,127
13187,note_off,68,0,0,,2,,,74,127
13187,note_on,0,0,0,,0,,,72,127
13255,note_off,68,0,0,,0,,,72,127
13255,note_on,0,0,0,,2,,,74,127
13323,note_off,68,0,0,,2,,,74,127
13323,note_on,0,0,0,,0,,,72,127
13389,note_off,66,0,0,,4,,,52,127
13389,note_off,0,0,0,,0,,,60,127
13390,note_off,1,0,0,,0,,,72,127
13390,note_on,0,0,0,,4,,,52,127
13390,note_on,0,0,0,,0,,,60,127
13390,note_on,0,0,0,,12,,,71,127
13660,note_off,270,0,0,,12,,,71,127
13660,note_off,0,0,0,,0,,,60,127
13660,note_off,0,0,0,,4,,,52,127
13661,note_on,1,0,0,,0,,,60,127
13661,note_on,0,0,0,,4,,,52,127
13661,note_on,0,0,0,,0,,,72,127
13929,note_off,268,0,0,,0,,,72,127
13930,note_off,1,0,0,,4,,,52,127
13930,note_off,0,0,0,,0,,,60,127
13931,note_on,1,0,0,,2,,,50,127
13931,note_on,0,0,0,,0,,,60,127
14067,note_on,136,0,0,,0,,,72,127
14201,note_off,134,0,0,,0,,,72,127
14201,note_off,0,0,0,,0,,,60,127
14201,note_off,0,0,0,,2,,,50,127
14202,note_on,1,0,0,,0,,,60,127
14202,note_on,0,0,0,,2,,,50,127
14202,note_on,0,0,0,,10,,,81,127
14336,note_off,134,0,0,,10,,,81,127
14337,note_on,1,0,0,,0,,,72,127
14471,note_off,134,0,0,,0,,,72,127
14471,note_off,0,0,0,,2,,,50,127
14471,note_off,0,0,0,,0,,,60,127
14472,note_on,1,0,0,,0,,,60,127
14472,note_on,0,0,0,,2,,,50,127
14472,note_on,0,0,0,,12,,,71,127
14606,note_off,134,0,0,,12,,,71,127
14607,note_on,1,0,0,,0,,,72,127
14741,note_off,134,0,0,,0,,,72,127
14741,note_off,0,0,0,,2,,,50,127
14741,note_off,0,0,0,,0,,,60,127
14742,note_on,1,0,0,,12,,,59,127
14742,note_on,0,0,0,,2,,,50,127
14742,note_on,0,0,0,,4,,,76,127
14810,note_off,68,0,0,,4,,,76,127
14810,note_on,0,0,0,,2,,,74,127
14878,note_off,68,0,0,,2,,,74,127
14878,note_on,0,0,0,,4,,,76,127
14946,note_off,68,0,0,,4,,,76,127
14946,note_on,0,0,0,,2,,,74,127
15012,note_off,66,0,0,,2,,,50,127
15012,note_off,0,0,0,,12,,,59,127
15013,note_off,1,0,0,,2,,,74,127
15013,note_on,0,0,0,,12,,,59,127
15013,note_on,0,0,0,,2,,,50,127
15013,note_on,0,0,0,,1,,,73,127
15283,note_off,270,0,0,,1,,,73,127
15283,note_off,0,0,0,,2,,,50,127
15283,note_off,0,0,0,,12,,,59,127
15284,note_on,1,0,0,,12,,,59,127
15284,note_on,0,0,0,,2,,,50,127
15284,note_on,0,0,0,,2,,,74,127
15554,note_off,270,0,0,,2,,,50,127
15554,note_off,0,0,0,,12,,,59,127
15555,note_on,1,0,0,,10,,,57,127
15555,note_on,0,0,0,,2,,,50,127
15689,note_off,134,0,0,,2,,,74,127
15690,note_on,1,0,0,,6,,,78,127
15824,note_off,134,0,0,,6,,,78,127
15824,note_off,0,0,0,,2,,,50,127
15824,note_off,0,0,0,,10,,,57,127
15825,note_on,1,0,0,,2,,,50,127
15825,note_on,0,0,0,,10,,,57,127
15825,note_on,0,0,0,,10,,,81,127
15959,note_off,134,0,0,,10,,,81,127
15960,note_on,1,0,0,,0,,,72,127
16094,note_off,134,0,0,,0,,,72,127
16094,note_off,0,0,0,,10,,,57,127
16094,note_off,0,0,0,,2,,,50,127
16095,note_on,1,0,0,,10,,,57,127
16095,note_on,0,0,0,,2,,,50,127
16095,note_on,0,0,0,,12,,,71,127
16229,note_off,134,0,0,,12,,,71,127
16230,note_on,1,0,0,,0,,,72,127
16364,note_off,134,0,0,,2,,,50,127
16364,note_off,0,0,0,,10,,,57,127
16365,note_on,1,0,0,,7,,,55,127
16427,note_off,62,0,0,,0,,,72,127
16433,note_on,6,0,0,,12,,,71,127
16499,note_off,66,0,0,,12,,,71,127
16500,note_on,1,0,0,,0,,,72,127
16566,note_off,66,0,0,,0,,,72,127
16567,note_on,1,0,0,,12,,,71,127
16633,note_off,66,0,0,,12,,,71,127
16634,note_on,1,0,0,,7,,,43,127
16634,note_on,0,0,0,,0,,,72,127
16700,note_off,66,0,0,,0,,,72,127
16701,note_on,1,0,0,,12,,,71,127
16767,note_off,66,0,0,,12,,,71,127
16768,note_on,1,0,0,,10,,,69,127
16902,note_off,134,0,0,,10,,,69,127
16903,note_on,1,0,0,,7,,,67,127
17039,note_off,136,0,0,,7,,,43,127
17173,note_off,134,0,0,,7,,,67,127
17173,note_off,0,0,0,,7,,,55,127
17174,note_on,1,0,0,,5,,,65,127
17174,note_on,0,0,0,,7,,,55,127
17174,note_on,0,0,0,,2,,,74,127
17240,note_off,66,0,0,,2,,,74,127
17241,note_on,1,0,0,,0,,,72,127
17307,note_off,66,0,0,,0,,,72,127
17308,note_on,1,0,0,,12,,,71,127
17442,note_off,134,0,0,,7,,,55,127
17442,note_off,0,0,0,,5,,,65,127
17443,note_on,1,0,0,,5,,,65,127
17443,note_on,0,0,0,,7,,,55,127
17713,note_off,270,0,0,,7,,,55,127
17713,note_off,0,0,0,,5,,,65,127
17714,note_on,1,0,0,,5,,,65,127
17714,note_on,0,0,0,,7,,,55,127
17984,note_off,270,0,0,,7,,,55,127
17984,note_off,0,0,0,,5,,,65,127
17984,note_off,0,0,0,,12,,,71,127
17985,note_on,1,0,0,,4,,,64,127
17985,note_on,0,0,0,,7,,,55,127
17985,note_on,0,0,0,,0,,,72,127
18119,note_off,134,0,0,,0,,,72,127
18120,note_on,1,0,0,,2,,,74,127
18254,note_off,134,0,0,,2,,,74,127
18254,note_off,0,0,0,,7,,,55,127
18254,note_off,0,0,0,,4,,,64,127
18255,note_on,1,0,0,,7,,,55,127
18255,note_on,0,0,0,,4,,,64,127
18255,note_on,0,0,0,,4,,,76,127
18389,note_off,134,0,0,,4,,,76,127
18390,note_on,1,0,0,,5,,,77,127
18524,note_off,134,0,0,,5,,,77,127
18524,note_off,0,0,0,,4,,,64,127
18524,note_off,0,0,0,,7,,,55,127
18525,note_on,1,0,0,,4,,,64,127
18525,note_on,0,0,0,,7,,,55,127
18525,note_on,0,0,0,,7,,,79,127
18659,note_off,134,0,0,,7,,,79,127
18660,note_on,1,0,0,,10,,,81,127
18794,note_off,134,0,0,,10,,,81,127
18794,note_off,0,0,0,,7,,,55,127
18794,note_off,0,0,0,,4,,,64,127
18795,note_on,1,0,0,,5,,,65,127
18795,note_on,0,0,0,,7,,,55,127
18795,note_on,0,0,0,,2,,,74,127
18861,note_off,66,0,0,,2,,,74,127
18862,note_on,1,0,0,,0,,,72,127
18928,note_off,66,0,0,,0,,,72,127
18929,note_on,1,0,0,,12,,,71,127
19063,note_off,134,0,0,,7,,,55,127
19063,note_off,0,0,0,,5,,,65,127
19064,note_on,1,0,0,,5,,,65,127
19064,note_on,0,0,0,,7,,,55,127
19334,note_off,270,0,0,,7,,,55,127
19334,note_off,0,0,0,,5,,,65,127
19335,note_on,1,0,0,,5,,,65,127
19335,note_on,0,0,0,,7,,,55,127
19605,note_off,270,0,0,,7,,,55,127
19605,note_off,0,0,0,,5,,,65,127
19605,note_off,0,0,0,,12,,,71,127
19606,note_on,1,0,0,,4,,,64,127
19606,note_on,0,0,0,,7,,,55,127
19606,note_on,0,0,0,,0,,,72,127
19740,note_off,134,0,0,,0,,,72,127
19741,note_on,1,0,0,,2,,,74,127
19875,note_off,134,0,0,,2,,,74,127
19875,note_off,0,0,0,,7,,,55,127
19875,note_off,0,0,0,,4,,,64,127
19876,note_on,1,0,0,,4,,,64,127
19876,note_on,0,0,0,,7,,,55,127
19876,note_on,0,0,0,,4,,,76,127
20010,note_off,134,0,0,,4,,,76,127
20011,note_on,1,0,0,,5,,,77,127
20145,note_off,134,0,0,,5,,,77,127
20145,note_off,0,0,0,,7,,,55,127
20145,note_off,0,0,0,,4,,,64,127
20146,note_on,1,0,0,,4,,,64,127
20146,note_on,0,0,0,,7,,,55,127
20146,note_on,0,0,0,,7,,,79,127
20280,note_off,134,0,0,,7,,,79,127
20281,note_on,1,0,0,,10,,,81,127
20415,note_off,134,0,0,,10,,,81,127
20415,note_off,0,0,0,,7,,,55,127
20415,note_off,0,0,0,,4,,,64,127
20416,note_on,1,0,0,,7,,,55,127
20416,note_on,0,0,0,,4,,,64,127
20416,note_on,0,0,0,,11,,,82,127
20482,note_off,66,0,0,,11,,,82,127
20483,note_on,1,0,0,,10,,,81,127
20549,note_off,66,0,0,,10,,,81,127
20550,note_on,1,0,0,,7,,,79,127
20684,note_off,134,0,0,,4,,,64,127
20684,note_off,0,0,0,,7,,,55,127
20685,note_on,1,0,0,,4,,,64,127
20685,note_on,0,0,0,,7,,,55,127
20955,note_off,270,0,0,,7,,,55,127
20955,note_off,0,0,0,,4,,,64,127
20956,note_on,1,0,0,,4,,,64,127
20956,note_on,0,0,0,,7,,,55,127
21226,note_off,270,0,0,,7,,,55,127
21226,note_off,0,0,0,,4,,,64,127
21226,note_off,0,0,0,,7,,,79,127
21227,note_on,1,0,0,,5,,,65,127
21227,note_on,0,0,0,,10,,,57,127
21227,note_on,0,0,0,,5,,,77,127
21361,note_off,134,0,0,,5,,,77,127
21362,note_on,1,0,0,,7,,,79,127
21496,note_off,134,0,0,,7,,,79,127
21496,note_off,0,0,0,,10,,,57,127
21496,note_off,0,0,0,,5,,,65,127
21497,note_on,1,0,0,,10,,,57,127
21497,note_on,0,0,0,,5,,,65,127
21497,note_on,0,0,0,,10,,,81,127
21631,note_off,134,0,0,,10,,,81,127
21632,note_on,1,0,0,,11,,,82,127
21766,note_off,134,0,0,,11,,,82,127
21766,note_off,0,0,0,,5,,,65,127
21766,note_off,0,0,0,,10,,,57,127
21767,note_on,1,0,0,,5,,,65,127
21767,note_on,0,0,0,,10,,,57,127
21767,note_on,0,0,0,,0,,,84,127
21901,note_off,134,0,0,,0,,,84,127
21902,note_on,1,0,0,,2,,,86,127
22036,note_off,134,0,0,,2,,,86,127
22036,note_off,0,0,0,,10,,,57,127
22036,note_off,0,0,0,,5,,,65,127
22037,note_on,1,0,0,,7,,,67,127
22037,note_on,0,0,0,,11,,,58,127
22037,note_on,0,0,0,,7,,,79,127
22103,note_off,66,0,0,,7,,,79,127
22104,note_on,1,0,0,,5,,,77,127
22170,note_off,66,0,0,,5,,,77,127
22171,note_on,1,0,0,,4,,,76,127
22305,note_off,134,0,0,,11,,,58,127
22305,note_off,0,0,0,,7,,,67,127
22306,note_on,1,0,0,,7,,,67,127
22306,note_on,0,0,0,,11,,,58,127
22576,note_off,270,0,0,,11,,,58,127
22576,note_off,0,0,0,,7,,,67,127
22577,note_on,1,0,0,,11,,,58,127
22577,note_on,0,0,0,,7,,,67,127
22847,note_off,270,0,0,,7,,,67,127
22847,note_off,0,0,0,,11,,,58,127
22847,note_off,0,0,0,,4,,,76,127
22848,note_on,1,0,0,,5,,,65,127
22848,note_on,0,0,0,,10,,,57,127
22848,note_on,0,0,0,,5,,,77,127
22982,note_off,134,0,0,,5,,,77,127
22983,note_on,1,0,0,,11,,,82,127
23117,note_off,134,0,0,,10,,,57,127
23117,note_off,0,0,0,,5,,,65,127
23118,note_on,1,0,0,,10,,,57,127
23118,note_on,0,0,0,,5,,,65,127
23180,note_off,62,0,0,,11,,,82,127
23186,note_on,6,0,0,,10,,,81,127
23252,note_off,66,0,0,,10,,,81,127
23253,note_on,1,0,0,,11,,,82,127
23319,note_off,66,0,0,,11,,,82,127
23320,note_on,1,0,0,,10,,,81,127
23386,note_off,66,0,0,,10,,,81,127
23386,note_off,0,0,0,,5,,,65,127
23386,note_off,0,0,0,,10,,,57,127
23387,note_on,1,0,0,,5,,,65,127
23387,note_on,0,0,0,,10,,,57,127
23387,note_on,0,0,0,,11,,,82,127
23453,note_off,66,0,0,,11,,,82,127
23454,note_on,1,0,0,,10,,,81,127
23520,note_off,66,0,0,,10,,,81,127
23521,note_on,1,0,0,,7,,,79,127
23587,note_off,66,0,0,,7,,,79,127
23588,note_on,1,0,0,,5,,,77,127
23654,note_off,66,0,0,,5,,,77,127
23654,note_off,0,0,0,,10,,,57,127
23654,note_off,0,0,0,,5,,,65,127
23655,note_on,1,0,0,,4,,,64,127
23655,note_on,0,0,0,,7,,,55,127
23655,note_on,0,0,0,,4,,,76,127
23789,note_off,134,0,0,,4,,,76,127
23790,note_on,1,0,0,,10,,,81,127
23924,note_off,134,0,0,,7,,,55,127
23924,note_off,0,0,0,,4,,,64,127
23925,note_on,1,0,0,,4,,,64,127
23925,note_on,0,0,0,,7,,,55,127
23987,note_off,62,0,0,,10,,,81,127
23993,note_on,6,0,0,,7,,,79,127
24059,note_off,66,0,0,,7,,,79,127
24060,note_on,1,0,0,,10,,,81,127
24126,note_off,66,0,0,,10,,,81,127
24127,note_on,1,0,0,,7,,,79,127
24193,note_off,66,0,0,,7,,,79,127
24193,note_off,0,0,0,,7,,,55,127
24193,note_off,0,0,0,,4,,,64,127
24194,note_on,1,0,0,,7,,,55,127
24194,note_on,0,0,0,,4,,,64,127
24194,note_on,0,0,0,,10,,,81,127
24260,note_off,66,0,0,,10,,,81,127
24261,note_on,1,0,0,,7,,,79,127
24327,note_off,66,0,0,,7,,,79,127
24328,note_on,1,0,0,,5,,,77,127
24394,note_off,66,0,0,,5,,,77,127
24395,note_on,1,0,0,,4,,,76,127
24461,note_off,66,0,0,,4,,,76,127
24461,note_off,0,0,0,,4,,,64,127
24461,note_off,0,0,0,,7,,,55,127
24462,note_on,1,0,0,,2,,,62,127
24462,note_on,0,0,0,,5,,,53,127
24462,note_on,0,0,0,,2,,,74,127
24596,note_off,134,0,0,,2,,,74,127
24597,note_on,1,0,0,,7,,,79,127
24731,note_off,134,0,0,,5,,,53,127
24731,note_off,0,0,0,,2,,,62,127
24732,note_on,1,0,0,,5,,,53,127
24732,note_on,0,0,0,,2,,,62,127
24794,note_off,62,0,0,,7,,,79,127
24800,note_on,6,0,0,,5,,,77,127
24866,note_off,66,0,0,,5,,,77,127
24867,note_on,1,0,0,,7,,,79,127
24933,note_off,66,0,0,,7,,,79,127
24934,note_on,1,0,0,,5,,,77,127
25000,note_off,66,0,0,,5,,,77,127
25000,note_off,0,0,0,,2,,,62,127
25000,note_off,0,0,0,,5,,,53,127
25001,note_on,1,0,0,,2,,,62,127
25001,note_on,0,0,0,,5,,,53,127
25001,note_on,0,0,0,,7,,,79,127
25067,note_off,66,0,0,,7,,,79,127
25068,note_on,1,0,0,,5,,,77,127
25134,note_off,66,0,0,,5,,,77,127
25135,note_on,1,0,0,,4,,,76,127
25201,note_off,66,0,0,,4,,,76,127
25202,note_on,1,0,0,,2,,,74,127
25268,note_off,66,0,0,,2,,,74,127
25268,note_off,0,0,0,,5,,,53,127
25268,note_off,0,0,0,,2,,,62,127
25269,note_on,1,0,0,,4,,,52,127
25269,note_on,0,0,0,,0,,,60,127
25269,note_on,0,0,0,,0,,,72,127
25403,note_off,134,0,0,,0,,,72,127
25404,note_on,1,0,0,,5,,,77,127
25538,note_off,134,0,0,,0,,,60,127
25538,note_off,0,0,0,,4,,,52,127
25539,note_on,1,0,0,,4,,,52,127
25539,note_on,0,0,0,,0,,,60,127
25601,note_off,62,0,0,,5,,,77,127
25607,note_on,6,0,0,,4,,,76,127
25673,note_off,66,0,0,,4,,,76,127
25674,note_on,1,0,0,,5,,,77,127
25740,note_off,66,0,0,,5,,,77,127
25741,note_on,1,0,0,,4,,,76,127
25807,note_off,66,0,0,,4,,,76,127
25807,note_off,0,0,0,,0,,,60,127
25807,note_off,0,0,0,,4,,,52,127
25808,note_on,1,0,0,,0,,,60,127
25808,note_on,0,0,0,,4,,,52,127
25808,note_on,0,0,0,,5,,,77,127
25874,note_off,66,0,0,,5,,,77,127
25875,note_on,1,0,0,,4,,,76,127
25941,note_off,66,0,0,,4,,,76,127
25942,note_on,1,0,0,,2,,,74,127
26008,note_off,66,0,0,,2,,,74,127
26009,note_on,1,0,0,,0,,,72,127
26075,note_off,66,0,0,,0,,,72,127
26075,note_off,0,0,0,,4,,,52,127
26075,note_off,0,0,0,,0,,,60,127
26076,note_on,1,0,0,,2,,,50,127
26076,note_on,0,0,0,,12,,,71,127
26346,note_off,270,0,0,,12,,,71,127
26346,note_off,0,0,0,,2,,,50,127
26347,note_on,1,0,0,,4,,,52,127
26347,note_on,0,0,0,,2,,,74,127
26413,note_off,66,0,0,,2,,,74,127
26414,note_on,1,0,0,,0,,,72,127
26480,note_off,66,0,0,,0,,,72,127
26481,note_on,1,0,0,,2,,,74,127
26547,note_off,66,0,0,,2,,,74,127
26548,note_on,1,0,0,,0,,,72,127
26614,note_off,66,0,0,,0,,,72,127
26614,note_off,0,0,0,,4,,,52,127
26615,note_on,1,0,0,,0,,,48,127
26615,note_on,0,0,0,,2,,,74,127
26681,note_off,66,0,0,,2,,,74,127
26682,note_on,1,0,0,,0,,,72,127
26748,note_off,66,0,0,,0,,,72,127
26749,note_on,1,0,0,,12,,,71,127
26815,note_off,66,0,0,,12,,,71,127
26816,note_on,1,0,0,,0,,,72,127
26882,note_off,66,0,0,,0,,,72,127
26882,note_off,0,0,0,,0,,,48,127
26883,note_on,1,0,0,,7,,,43,127
26883,note_on,0,0,0,,0,,,72,127
27424,note_off,541,0,0,,0,,,72,127
27425,note_on,1,0,0,,2,,,74,127
27628,note_off,203,0,0,,2,,,74,127
27694,note_off,66,0,0,,7,,,43,127
27695,note_on,1,0,0,,4,,,52,127
27695,note_on,0,0,0,,4,,,76,127
27695,note_on,0,0,0,,0,,,72,127
27829,note_off,134,0,0,,4,,,52,127
27830,note_on,1,0,0,,0,,,48,127
27964,note_off,134,0,0,,0,,,48,127
27965,note_on,1,0,0,,7,,,55,127
28099,note_off,134,0,0,,7,,,55,127
28100,note_on,1,0,0,,4,,,52,127
28234,note_off,134,0,0,,4,,,52,127
28234,note_off,0,0,0,,0,,,72,127
28234,note_off,0,0,0,,4,,,76,127
28235,note_on,1,0,0,,0,,,60,127
28235,note_on,0,0,0,,7,,,79,127
28235,note_on,0,0,0,,4,,,76,127
28369,note_off,134,0,0,,0,,,60,127
28370,note_on,1,0,0,,0,,,48,127
28504,note_off,134,0,0,,0,,,48,127
28504,note_off,0,0,0,,4,,,76,127
28504,note_off,0,0,0,,7,,,79,127
28505,note_on,1,0,0,,7,,,43,127
28505,note_on,0,0,0,,2,,,74,127
28505,note_on,0,0,0,,5,,,77,127
28775,note_off,270,0,0,,5,,,77,127
28775,note_off,0,0,0,,2,,,74,127
28776,note_on,1,0,0,,0,,,72,127
28776,note_on,0,0,0,,4,,,76,127
29046,note_off,270,0,0,,4,,,76,127
29046,note_off,0,0,0,,0,,,72,127
29047,note_on,1,0,0,,12,,,71,127
29047,note_on,0,0,0,,2,,,74,127
29317,note_off,270,0,0,,12,,,71,127
29317,note_off,0,0,0,,7,,,43,127
29318,note_on,1,0,0,,4,,,52,127
29318,note_on,0,0,0,,0,,,72,127
29452,note_off,134,0,0,,4,,,52,127
29453,note_on,1,0,0,,0,,,48,127
29587,note_off,134,0,0,,0,,,48,127
29587,note_off,0,0,0,,2,,,74,127
29588,note_on,1,0,0,,7,,,55,127
29588,note_on,0,0,0,,4,,,76,127
29722,note_off,134,0,0,,7,,,55,127
29723,note_on,1,0,0,,4,,,52,127
29857,note_off,134,0,0,,4,,,52,127
29857,note_off,0,0,0,,4,,,76,127
29857,note_off,0,0,0,,0,,,72,127
29858,note_on,1,0,0,,0,,,60,127
29858,note_on,0,0,0,,7,,,79,127
29858,note_on,0,0,0,,4,,,76,127
29992,note_off,134,0,0,,0,,,60,127
29993,note_on,1,0,0,,0,,,48,127
30127,note_off,134,0,0,,0,,,48,127
30127,note_off,0,0,0,,4,,,76,127
30127,note_off,0,0,0,,7,,,79,127
30128,note_on,1,0,0,,7,,,43,127
30128,note_on,0,0,0,,2,,,74,127
30128,note_on,0,0,0,,5,,,77,127
30398,note_off,270,0,0,,5,,,77,127
30398,note_off,0,0,0,,2,,,74,127
30399,note_on,1,0,0,,0,,,72,127
30399,note_on,0,0,0,,4,,,76,127
30669,note_off,270,0,0,,4,,,76,127
30669,note_off,0,0,0,,0,,,72,127
30670,note_on,1,0,0,,2,,,74,127
30670,note_on,0,0,0,,12,,,71,127
30940,note_off,270,0,0,,12,,,71,127
30940,note_off,0,0,0,,7,,,43,127
30941,note_on,1,0,0,,4,,,52,127
30941,note_on,0,0,0,,0,,,72,127
31075,note_off,134,0,0,,4,,,52,127
31076,note_on,1,0,0,,0,,,48,127
31210,note_off,134,0,0,,0,,,48,127
31210,note_off,0,0,0,,2,,,74,127
31211,note_on,1,0,0,,7,,,55,127
31211,note_on,0,0,0,,4,,,76,127
31345,note_off,134,0,0,,7,,,55,127
31346,note_on,1,0,0,,4,,,52,127
31480,note_off,134,0,0,,4,,,52,127
31480,note_off,0,0,0,,4,,,76,127
31480,note_off,0,0,0,,0,,,72,127
31481,note_on,1,0,0,,0,,,60,127
31481,note_on,0,0,0,,7,,,79,127
31615,note_off,134,0,0,,0,,,60,127
31616,note_on,1,0,0,,4,,,52,127
31750,note_off,134,0,0,,4,,,52,127
31751,note_on,1,0,0,,5,,,53,127
31885,note_off,134,0,0,,7,,,79,127
31886,note_on,1,0,0,,10,,,81,127
32020,note_off,134,0,0,,10,,,81,127
32020,note_off,0,0,0,,5,,,53,127
32021,note_on,1,0,0,,5,,,53,127
32021,note_on,0,0,0,,5,,,77,127
32155,note_off,134,0,0,,5,,,77,127
32156,note_on,1,0,0,,4,,,76,127
32290,note_off,134,0,0,,4,,,76,127
32290,note_off,0,0,0,,5,,,53,127
32291,note_on,1,0,0,,5,,,53,127
32291,note_on,0,0,0,,2,,,74,127
32425,note_off,134,0,0,,2,,,74,127
32426,note_on,1,0,0,,0,,,72,127
32560,note_off,134,0,0,,0,,,72,127
32560,note_off,0,0,0,,5,,,53,127
32561,note_on,1,0,0,,7,,,55,127
32561,note_on,0,0,0,,0,,,84,127
32831,note_off,270,0,0,,0,,,84,127
32832,note_on,1,0,0,,0,,,72,127
32898,note_off,66,0,0,,0,,,72,127
32899,note_on,1,0,0,,12,,,71,127
32965,note_off,66,0,0,,12,,,71,127
32966,note_on,1,0,0,,0,,,72,127
33032,note_off,66,0,0,,0,,,72,127
33033,note_on,1,0,0,,12,,,71,127
33099,note_off,66,0,0,,12,,,71,127
33100,note_on,1,0,0,,7,,,43,127
33100,note_on,0,0,0,,0,,,72,127
33166,note_off,66,0,0,,0,,,72,127
33167,note_on,1,0,0,,12,,,71,127
33233,note_off,66,0,0,,12,,,71,127
33234,note_on,1,0,0,,10,,,69,127
33300,note_off,66,0,0,,10,,,69,127
33301,note_on,1,0,0,,12,,,71,127
33367,note_off,66,0,0,,12,,,71,127
33367,note_off,0,0,0,,7,,,43,127
33367,note_off,0,0,0,,7,,,55,127
33368,note_on,1,0,0,,4,,,52,127
33368,note_on,0,0,0,,4,,,76,127
33368,note_on,0,0,0,,0,,,72,127
33502,note_off,134,0,0,,4,,,52,127
33503,note_on,1,0,0,,0,,,48,127
33637,note_off,134,0,0,,0,,,48,127
33638,note_on,1,0,0,,7,,,55,127
33772,note_off,134,0,0,,7,,,55,127
33773,note_on,1,0,0,,4,,,52,127
33907,note_off,134,0,0,,4,,,52,127
33907,note_off,0,0,0,,0,,,72,127
33907,note_off,0,0,0,,4,,,76,127
33908,note_on,1,0,0,,0,,,60,127
33908,note_on,0,0,0,,4,,,76,127
33908,note_on,0,0,0,,7,,,79,127
34042,note_off,134,0,0,,0,,,60,127
34043,note_on,1,0,0,,0,,,48,127
34177,note_off,134,0,0,,0,,,48,127
34177,note_off,0,0,0,,7,,,79,127
34177,note_off,0,0,0,,4,,,76,127
34178,note_on,1,0,0,,7,,,43,127
34178,note_on,0,0,0,,2,,,74,127
34178,note_on,0,0,0,,5,,,77,127
34448,note_off,270,0,0,,5,,,77,127
34448,note_off,0,0,0,,2,,,74,127
34449,note_on,1,0,0,,4,,,76,127
34449,note_on,0,0,0,,0,,,72,127
34719,note_off,270,0,0,,0,,,72,127
34719,note_off,0,0,0,,4,,,76,127
34720,note_on,1,0,0,,2,,,74,127
34720,note_on,0,0,0,,12,,,71,127
34990,note_off,270,0,0,,12,,,71,127
34990,note_off,0,0,0,,7,,,43,127
34991,note_on,1,0,0,,4,,,52,127
34991,note_on,0,0,0,,0,,,72,127
35125,note_off,134,0,0,,4,,,52,127
35126,note_on,1,0,0,,0,,,48,127
35260,note_off,134,0,0,,0,,,48,127
35260,note_off,0,0,0,,2,,,74,127
35261,note_on,1,0,0,,7,,,55,127
35261,note_on,0,0,0,,4,,,76,127
35395,note_off,134,0,0,,7,,,55,127
35396,note_on,1,0,0,,4,,,52,127
35530,note_off,134,0,0,,4,,,52,127
35530,note_off,0,0,0,,4,,,76,127
35530,note_off,0,0,0,,0,,,72,127
35531,note_on,1,0,0,,0,,,60,127
35531,note_on,0,0,0,,7,,,79,127
35531,note_on,0,0,0,,4,,,76,127
35665,note_off,134,0,0,,0,,,60,127
35666,note_on,1,0,0,,0,,,48,127
35800,note_off,134,0,0,,0,,,48,127
35800,note_off,0,0,0,,4,,,76,127
35800,note_off,0,0,0,,7,,,79,127
35801,note_on,1,0,0,,7,,,43,127
35801,note_on,0,0,0,,5,,,77,127
35801,note_on,0,0,0,,2,,,74,127
36071,note_off,270,0,0,,2,,,74,127
36071,note_off,0,0,0,,5,,,77,127
36072,note_on,1,0,0,,0,,,72,127
36072,note_on,0,0,0,,4,,,76,127
36342,note_off,270,0,0,,4,,,76,127
36342,note_off,0,0,0,,0,,,72,127
36343,note_on,1,0,0,,2,,,74,127
36343,note_on,0,0,0,,12,,,71,127
36613,note_off,270,0,0,,12,,,71,127
36613,note_off,0,0,0,,7,,,43,127
36614,note_on,1,0,0,,4,,,52,127
36614,note_on,0,0,0,,0,,,72,127
36748,note_off,134,0,0,,4,,,52,127
36749,note_on,1,0,0,,0,,,48,127
36883,note_off,134,0,0,,0,,,48,127
36883,note_off,0,0,0,,2,,,74,127
36884,note_on,1,0,0,,7,,,55,127
36884,note_on,0,0,0,,4,,,76,127
37018,note_off,134,0,0,,7,,,55,127
37019,note_on,1,0,0,,4,,,52,127
37153,note_off,134,0,0,,4,,,52,127
37153,note_off,0,0,0,,4,,,76,127
37153,note_off,0,0,0,,0,,,72,127
37154,note_on,1,0,0,,0,,,60,127
37154,note_on,0,0,0,,7,,,79,127
37288,note_off,134,0,0,,0,,,60,127
37289,note_on,1,0,0,,4,,,52,127
37423,note_off,134,0,0,,4,,,52,127
37424,note_on,1,0,0,,5,,,53,127
37558,note_off,134,0,0,,7,,,79,127
37559,note_on,1,0,0,,10,,,81,127
37693,note_off,134,0,0,,10,,,81,127
37693,note_off,0,0,0,,5,,,53,127
37694,note_on,1,0,0,,5,,,53,127
37694,note_on,0,0,0,,5,,,77,127
37828,note_off,134,0,0,,5,,,77,127
37829,note_on,1,0,0,,4,,,76,127
37963,note_off,134,0,0,,4,,,76,127
37963,note_off,0,0,0,,5,,,53,127
37964,note_on,1,0,0,,5,,,53,127
37964,note_on,0,0,0,,2,,,74,127
38098,note_off,134,0,0,,2,,,74,127
38099,note_on,1,0,0,,0,,,72,127
38233,note_off,134,0,0,,0,,,72,127
38233,note_off,0,0,0,,5,,,53,127
38234,note_on,1,0,0,,7,,,55,127
38234,note_on,0,0,0,,0,,,84,127
38504,note_off,270,0,0,,0,,,84,127
38505,note_on,1,0,0,,0,,,72,127
38571,note_off,66,0,0,,0,,,72,127
38572,note_on,1,0,0,,12,,,71,127
38638,note_off,66,0,0,,12,,,71,127
38639,note_on,1,0,0,,0,,,72,127
38705,note_off,66,0,0,,0,,,72,127
38706,note_on,1,0,0,,12,,,71,127
38772,note_off,66,0,0,,12,,,71,127
38773,note_on,1,0,0,,7,,,43,127
38773,note_on,0,0,0,,0,,,72,127
38839,note_off,66,0,0,,0,,,72,127
38840,note_on,1,0,0,,12,,,71,127
38906,note_off,66,0,0,,12,,,71,127
38907,note_on,1,0,0,,10,,,69,127
38973,note_off,66,0,0,,10,,,69,127
38974,note_on,1,0,0,,12,,,71,127
39040,note_off,66,0,0,,12,,,71,127
39040,note_off,0,0,0,,7,,,43,127
39040,note_off,0,0,0,,7,,,55,127
39041,note_on,1,0,0,,0,,,48,127
39041,note_on,0,0,0,,0,,,72,127
39175,note_off,134,0,0,,0,,,72,127
39176,note_on,1,0,0,,5,,,77,127
39310,note_off,134,0,0,,5,,,77,127
39311,note_on,1,0,0,,4,,,76,127
39445,note_off,134,0,0,,4,,,76,127
39446,note_on,1,0,0,,10,,,81,127
39580,note_off,134,0,0,,10,,,81,127
39581,note_on,1,0,0,,7,,,79,127
39851,note_off,270,0,0,,0,,,48,127
39852,note_on,1,0,0,,4,,,52,127
39986,note_off,134,0,0,,7,,,79,127
39987,note_on,1,0,0,,5,,,77,127
40121,note_off,134,0,0,,5,,,77,127
40121,note_off,0,0,0,,4,,,52,127
40122,note_on,1,0,0,,4,,,52,127
40122,note_on,0,0,0,,4,,,76,127
40256,note_off,134,0,0,,4,,,76,127
40257,note_on,1,0,0,,2,,,74,127
40391,note_off,134,0,0,,2,,,74,127
40391,note_off,0,0,0,,4,,,52,127
40392,note_on,1,0,0,,4,,,52,127
40392,note_on,0,0,0,,0,,,72,127
40526,note_off,134,0,0,,0,,,72,127
40527,note_on,1,0,0,,12,,,71,127
40661,note_off,134,0,0,,12,,,71,127
40661,note_off,0,0,0,,4,,,52,127
40662,note_on,1,0,0,,5,,,53,127
40662,note_on,0,0,0,,8,,,68,127
40796,note_off,134,0,0,,8,,,68,127
40797,note_on,1,0,0,,10,,,69,127
40931,note_off,134,0,0,,10,,,69,127
40931,note_off,0,0,0,,5,,,53,127
40932,note_on,1,0,0,,5,,,53,127
40932,note_on,0,0,0,,12,,,71,127
41066,note_off,134,0,0,,12,,,71,127
41067,note_on,1,0,0,,0,,,72,127
41201,note_off,134,0,0,,0,,,72,127
41201,note_off,0,0,0,,5,,,53,127
41202,note_on,1,0,0,,5,,,53,127
41202,note_on,0,0,0,,2,,,74,127
41291,note_off,89,0,0,,2,,,74,127
41292,note_on,1,0,0,,4,,,76,127
41381,note_off,89,0,0,,4,,,76,127
41382,note_on,1,0,0,,5,,,77,127
41471,note_off,89,0,0,,5,,,77,127
41471,note_off,0,0,0,,5,,,53,127
41472,note_on,1,0,0,,7,,,55,127
41472,note_on,0,0,0,,4,,,76,127
41561,note_off,89,0,0,,4,,,76,127
41562,note_on,1,0,0,,2,,,74,127
41651,note_off,89,0,0,,2,,,74,127
41652,note_on,1,0,0,,0,,,72,127
41741,note_off,89,0,0,,0,,,72,127
41742,note_on,1,0,0,,4,,,76,127
41808,note_off,66,0,0,,4,,,76,127
41809,note_on,1,0,0,,2,,,74,127
41875,note_off,66,0,0,,2,,,74,127
41876,note_on,1,0,0,,4,,,76,127
41942,note_off,66,0,0,,4,,,76,127
41943,note_on,1,0,0,,2,,,74,127
42009,note_off,66,0,0,,2,,,74,127
42010,note_on,1,0,0,,7,,,43,127
42010,note_on,0,0,0,,4,,,76,127
42076,note_off,66,0,0,,4,,,76,127
42077,note_on,1,0,0,,2,,,74,127
42143,note_off,66,0,0,,2,,,74,127
42144,note_on,1,0,0,,0,,,72,127
42210,note_off,66,0,0,,0,,,72,127
42211,note_on,1,0,0,,2,,,74,127
42277,note_off,66,0,0,,2,,,74,127
42277,note_off,0,0,0,,7,,,43,127
42277,note_off,0,0,0,,7,,,55,127
42278,note_on,1,0,0,,0,,,48,127
42278,note_on,0,0,0,,0,,,72,127
42412,note_off,134,0,0,,0,,,72,127
42413,note_on,1,0,0,,5,,,77,127
42547,note_off,134,0,0,,5,,,77,127
42547,note_off,0,0,0,,0,,,48,127
42548,note_on,1,0,0,,0,,,48,127
42548,note_on,0,0,0,,4,,,76,127
42682,note_off,134,0,0,,4,,,76,127
42683,note_on,1,0,0,,10,,,81,127
42817,note_off,134,0,0,,10,,,81,127
42817,note_off,0,0,0,,0,,,48,127
42818,note_on,1,0,0,,0,,,48,127
42818,note_on,0,0,0,,7,,,79,127
43088,note_off,270,0,0,,0,,,48,127
43089,note_on,1,0,0,,4,,,52,127
43223,note_off,134,0,0,,7,,,79,127
43224,note_on,1,0,0,,11,,,82,127
43358,note_off,134,0,0,,11,,,82,127
43358,note_off,0,0,0,,4,,,52,127
43359,note_on,1,0,0,,4,,,52,127
43359,note_on,0,0,0,,10,,,81,127
43493,note_off,134,0,0,,10,,,81,127
43494,note_on,1,0,0,,7,,,79,127
43628,note_off,134,0,0,,7,,,79,127
43628,note_off,0,0,0,,4,,,52,127
43629,note_on,1,0,0,,4,,,52,127
43629,note_on,0,0,0,,5,,,77,127
43763,note_off,134,0,0,,5,,,77,127
43764,note_on,1,0,0,,4,,,76,127
43898,note_off,134,0,0,,4,,,76,127
43898,note_off,0,0,0,,4,,,52,127
43899,note_on,1,0,0,,5,,,53,127
43899,note_on,0,0,0,,8,,,80,127
44033,note_off,134,0,0,,8,,,80,127
44034,note_on,1,0,0,,10,,,81,127
44168,note_off,134,0,0,,10,,,81,127
44168,note_off,0,0,0,,5,,,53,127
44169,note_on,1,0,0,,5,,,53,127
44169,note_on,0,0,0,,5,,,77,127
44169,note_on,0,0,0,,7,,,79,127
44303,note_off,134,0,0,,7,,,79,127
44303,note_off,0,0,0,,5,,,77,127
44304,note_on,1,0,0,,4,,,76,127
44438,note_off,134,0,0,,4,,,76,127
44438,note_off,0,0,0,,5,,,53,127
44439,note_on,1,0,0,,5,,,53,127
44439,note_on,0,0,0,,2,,,74,127
44573,note_off,134,0,0,,2,,,74,127
44574,note_on,1,0,0,,0,,,72,127
44708,note_off,134,0,0,,0,,,72,127
44708,note_off,0,0,0,,5,,,53,127
44709,note_on,1,0,0,,7,,,55,127
44709,note_on,0,0,0,,7,,,67,127
44979,note_off,270,0,0,,7,,,67,127
44980,note_on,1,0,0,,4,,,76,127
45046,note_off,66,0,0,,4,,,76,127
45047,note_on,1,0,0,,2,,,74,127
45113,note_off,66,0,0,,2,,,74,127
45114,note_on,1,0,0,,4,,,76,127
45180,note_off,66,0,0,,4,,,76,127
45181,note_on,1,0,0,,2,,,74,127
45247,note_off,66,0,0,,2,,,74,127
45248,note_on,1,0,0,,7,,,43,127
45248,note_on,0,0,0,,4,,,76,127
45314,note_off,66,0,0,,4,,,76,127
45315,note_on,1,0,0,,2,,,74,127
45381,note_off,66,0,0,,2,,,74,127
45382,note_on,1,0,0,,0,,,72,127
45448,note_off,66,0,0,,0,,,72,127
45449,note_on,1,0,0,,2,,,74,127
45515,note_off,66,0,0,,2,,,74,127
45515,note_off,0,0,0,,7,,,43,127
45515,note_off,0,0,0,,7,,,55,127
45516,note_on,1,0,0,,0,,,36,127
45516,note_on,0,0,0,,0,,,72,127
46052,note_off,536,0,0,,0,,,72,127
46327,note_off,275,0,0,,0,,,36,127
46328,note_on,1,0,0,,0,,,48,127
46328,note_on,0,0,0,,7,,,79,127
46598,note_off,270,0,0,,0,,,48,127
46599,note_on,1,0,0,,4,,,52,127
46869,note_off,270,0,0,,4,,,52,127
46870,note_on,1,0,0,,7,,,55,127
47140,note_off,270,0,0,,7,,,55,127
47141,note_on,1,0,0,,0,,,60,127
47275,note_off,134,0,0,,7,,,79,127
47276,note_on,1,0,0,,5,,,77,127
47410,note_off,134,0,0,,5,,,77,127
47411,note_on,1,0,0,,4,,,76,127
47545,note_off,134,0,0,,4,,,76,127
47546,note_on,1,0,0,,2,,,74,127
47680,note_off,134,0,0,,2,,,74,127
47681,note_on,1,0,0,,0,,,72,127
47815,note_off,134,0,0,,0,,,72,127
47816,note_on,1,0,0,,11,,,70,127
47950,note_off,134,0,0,,11,,,70,127
47950,note_off,0,0,0,,0,,,60,127
47951,note_on,1,0,0,,1,,,61,127
47951,note_on,0,0,0,,10,,,69,127
48085,note_off,134,0,0,,10,,,69,127
48086,note_on,1,0,0,,7,,,79,127
48220,note_off,134,0,0,,7,,,79,127
48220,note_off,0,0,0,,1,,,61,127
48221,note_on,1,0,0,,1,,,61,127
48221,note_on,0,0,0,,5,,,77,127
48355,note_off,134,0,0,,5,,,77,127
48356,note_on,1,0,0,,4,,,76,127
48490,note_off,134,0,0,,4,,,76,127
48490,note_off,0,0,0,,1,,,61,127
48491,note_on,1,0,0,,1,,,61,127
48491,note_on,0,0,0,,10,,,81,127
48625,note_off,134,0,0,,10,,,81,127
48626,note_on,1,0,0,,7,,,79,127
48760,note_off,134,0,0,,1,,,61,127
48761,note_on,1,0,0,,2,,,62,127
48823,note_off,62,0,0,,7,,,79,127
48829,note_on,6,0,0,,5,,,77,127
48895,note_off,66,0,0,,5,,,77,127
48896,note_on,1,0,0,,7,,,79,127
48962,note_off,66,0,0,,7,,,79,127
48963,note_on,1,0,0,,5,,,77,127
49029,note_off,66,0,0,,5,,,77,127
49029,note_off,0,0,0,,2,,,62,127
49030,note_on,1,0,0,,10,,,57,127
49030,note_on,0,0,0,,4,,,76,127
49300,note_off,270,0,0,,4,,,76,127
49300,note_off,0,0,0,,10,,,57,127
49301,note_on,1,0,0,,2,,,50,127
49301,note_on,0,0,0,,2,,,74,127
49571,note_off,270,0,0,,2,,,74,127
49571,note_off,0,0,0,,2,,,50,127
49572,note_on,1,0,0,,2,,,50,127
49572,note_on,0,0,0,,10,,,81,127
49842,note_off,270,0,0,,2,,,50,127
49843,note_on,1,0,0,,5,,,53,127
50113,note_off,270,0,0,,5,,,53,127
50114,note_on,1,0,0,,10,,,57,127
50384,note_off,270,0,0,,10,,,57,127
50385,note_on,1,0,0,,2,,,62,127
50519,note_off,134,0,0,,10,,,81,127
50520,note_on,1,0,0,,7,,,79,127
50654,note_off,134,0,0,,7,,,79,127
50655,note_on,1,0,0,,5,,,77,127
50789,note_off,134,0,0,,5,,,77,127
50790,note_on,1,0,0,,4,,,76,127
50924,note_off,134,0,0,,4,,,76,127
50925,note_on,1,0,0,,2,,,74,127
51059,note_off,134,0,0,,2,,,74,127
51060,note_on,1,0,0,,0,,,72,127
51194,note_off,134,0,0,,0,,,72,127
51194,note_off,0,0,0,,2,,,62,127
51195,note_on,1,0,0,,3,,,63,127
51195,note_on,0,0,0,,12,,,71,127
51329,note_off,134,0,0,,12,,,71,127
51330,note_on,1,0,0,,10,,,81,127
51464,note_off,134,0,0,,10,,,81,127
51464,note_off,0,0,0,,3,,,63,127
51465,note_on,1,0,0,,3,,,63,127
51465,note_on,0,0,0,,8,,,80,127
51599,note_off,134,0,0,,8,,,80,127
51600,note_on,1,0,0,,10,,,81,127
51734,note_off,134,0,0,,10,,,81,127
51734,note_off,0,0,0,,3,,,63,127
51735,note_on,1,0,0,,3,,,63,127
51735,note_on,0,0,0,,0,,,84,127
51869,note_off,134,0,0,,0,,,84,127
51870,note_on,1,0,0,,10,,,81,127
52004,note_off,134,0,0,,3,,,63,127
52005,note_on,1,0,0,,4,,,64,127
52067,note_off,62,0,0,,10,,,81,127
52073,note_on,6,0,0,,8,,,80,127
52139,note_off,66,0,0,,8,,,80,127
52140,note_on,1,0,0,,10,,,81,127
52206,note_off,66,0,0,,10,,,81,127
52207,note_on,1,0,0,,8,,,80,127
52273,note_off,66,0,0,,8,,,80,127
52273,note_off,0,0,0,,4,,,64,127
52274,note_on,1,0,0,,12,,,59,127
52274,note_on,0,0,0,,6,,,78,127
52544,note_off,270,0,0,,6,,,78,127
52544,note_off,0,0,0,,12,,,59,127
52545,note_on,1,0,0,,4,,,52,127
52545,note_on,0,0,0,,4,,,76,127
52748,note_off,203,0,0,,4,,,76,127
52814,note_off,66,0,0,,4,,,52,127
52815,note_on,1,0,0,,4,,,64,127
52815,note_on,0,0,0,,2,,,74,127
52881,note_off,66,0,0,,2,,,74,127
52882,note_on,1,0,0,,0,,,72,127
52948,note_off,66,0,0,,0,,,72,127
52949,note_on,1,0,0,,12,,,71,127
53083,note_off,134,0,0,,4,,,64,127
53084,note_on,1,0,0,,4,,,64,127
53354,note_off,270,0,0,,4,,,64,127
53355,note_on,1,0,0,,4,,,64,127
53625,note_off,270,0,0,,4,,,64,127
53625,note_off,0,0,0,,12,,,71,127
53626,note_on,1,0,0,,5,,,65,127
53626,note_on,0,0,0,,2,,,62,127
53626,note_on,0,0,0,,12,,,71,127
53692,note_off,66,0,0,,12,,,71,127
53693,note_on,1,0,0,,10,,,69,127
53759,note_off,66,0,0,,10,,,69,127
53760,note_on,1,0,0,,8,,,68,127
53894,note_off,134,0,0,,2,,,62,127
53894,note_off,0,0,0,,5,,,65,127
53895,note_on,1,0,0,,5,,,65,127
53895,note_on,0,0,0,,2,,,62,127
54165,note_off,270,0,0,,2,,,62,127
54165,note_off,0,0,0,,5,,,65,127
54166,note_on,1,0,0,,5,,,65,127
54166,note_on,0,0,0,,2,,,62,127
54436,note_off,270,0,0,,2,,,62,127
54436,note_off,0,0,0,,5,,,65,127
54436,note_off,0,0,0,,8,,,68,127
54437,note_on,1,0,0,,2,,,62,127
54437,note_on,0,0,0,,5,,,65,127
54437,note_on,0,0,0,,5,,,77,127
54503,note_off,66,0,0,,5,,,77,127
54504,note_on,1,0,0,,4,,,76,127
54570,note_off,66,0,0,,4,,,76,127
54571,note_on,1,0,0,,2,,,74,127
54705,note_off,134,0,0,,5,,,65,127
54705,note_off,0,0,0,,2,,,62,127
54706,note_on,1,0,0,,2,,,62,127
54706,note_on,0,0,0,,5,,,65,127
54976,note_off,270,0,0,,5,,,65,127
54976,note_off,0,0,0,,2,,,62,127
54977,note_on,1,0,0,,2,,,62,127
54977,note_on,0,0,0,,5,,,65,127
55247,note_off,270,0,0,,5,,,65,127
55247,note_off,0,0,0,,2,,,62,127
55247,note_off,0,0,0,,2,,,74,127
55248,note_on,1,0,0,,4,,,64,127
55248,note_on,0,0,0,,1,,,61,127
55248,note_on,0,0,0,,4,,,76,127
55314,note_off,66,0,0,,4,,,76,127
55315,note_on,1,0,0,,5,,,77,127
55381,note_off,66,0,0,,5,,,77,127
55382,note_on,1,0,0,,7,,,79,127
55516,note_off,134,0,0,,1,,,61,127
55516,note_off,0,0,0,,4,,,64,127
55517,note_on,1,0,0,,4,,,64,127
55517,note_on,0,0,0,,1,,,61,127
55787,note_off,270,0,0,,1,,,61,127
55787,note_off,0,0,0,,4,,,64,127
55788,note_on,1,0,0,,1,,,61,127
55788,note_on,0,0,0,,4,,,64,127
56058,note_off,270,0,0,,4,,,64,127
56058,note_off,0,0,0,,1,,,61,127
56058,note_off,0,0,0,,7,,,79,127
56059,note_on,1,0,0,,5,,,65,127
56059,note_on,0,0,0,,2,,,62,127
56059,note_on,0,0,0,,5,,,77,127
56125,note_off,66,0,0,,5,,,77,127
56126,note_on,1,0,0,,7,,,79,127
56192,note_off,66,0,0,,7,,,79,127
56193,note_on,1,0,0,,10,,,81,127
56327,note_off,134,0,0,,2,,,62,127
56327,note_off,0,0,0,,5,,,65,127
56328,note_on,1,0,0,,2,,,62,127
56328,note_on,0,0,0,,5,,,65,127
56598,note_off,270,0,0,,5,,,65,127
56598,note_off,0,0,0,,2,,,62,127
56599,note_on,1,0,0,,2,,,62,127
56599,note_on,0,0,0,,5,,,65,127
56869,note_off,270,0,0,,5,,,65,127
56869,note_off,0,0,0,,2,,,62,127
56870,note_on,1,0,0,,7,,,55,127
56870,note_on,0,0,0,,7,,,67,127
57004,note_off,134,0,0,,10,,,81,127
57005,note_on,1,0,0,,11,,,82,127
57139,note_off,134,0,0,,11,,,82,127
57139,note_off,0,0,0,,7,,,67,127
57139,note_off,0,0,0,,7,,,55,127
57140,note_on,1,0,0,,7,,,55,127
57140,note_on,0,0,0,,7,,,67,127
57140,note_on,0,0,0,,7,,,79,127
57274,note_off,134,0,0,,7,,,79,127
57275,note_on,1,0,0,,5,,,77,127
57409,note_off,134,0,0,,5,,,77,127
57409,note_off,0,0,0,,7,,,67,127
57409,note_off,0,0,0,,7,,,55,127
57410,note_on,1,0,0,,7,,,55,127
57410,note_on,0,0,0,,7,,,67,127
57410,note_on,0,0,0,,4,,,76,127
57544,note_off,134,0,0,,4,,,76,127
57545,note_on,1,0,0,,2,,,74,127
57679,note_off,134,0,0,,2,,,74,127
57679,note_off,0,0,0,,7,,,67,127
57679,note_off,0,0,0,,7,,,55,127
57680,note_on,1,0,0,,7,,,43,127
57680,note_on,0,0,0,,7,,,55,127
57680,note_on,0,0,0,,1,,,85,127
57814,note_off,134,0,0,,1,,,85,127
57815,note_on,1,0,0,,2,,,86,127
57949,note_off,134,0,0,,2,,,86,127
57949,note_off,0,0,0,,7,,,55,127
57949,note_off,0,0,0,,7,,,43,127
57950,note_on,1,0,0,,7,,,43,127
57950,note_on,0,0,0,,7,,,55,127
57950,note_on,0,0,0,,7,,,79,127
58084,note_off,134,0,0,,7,,,79,127
58085,note_on,1,0,0,,5,,,77,127
58219,note_off,134,0,0,,5,,,77,127
58219,note_off,0,0,0,,7,,,55,127
58219,note_off,0,0,0,,7,,,43,127
58220,note_on,1,0,0,,7,,,43,127
58220,note_on,0,0,0,,7,,,55,127
58220,note_on,0,0,0,,4,,,76,127
58354,note_off,134,0,0,,4,,,76,127
58355,note_on,1,0,0,,2,,,74,127
58489,note_off,134,0,0,,7,,,55,127
58489,note_off,0,0,0,,7,,,43,127
58490,note_on,1,0,0,,10,,,45,127
58490,note_on,0,0,0,,10,,,57,127
58552,note_off,62,0,0,,2,,,74,127
58558,note_on,6,0,0,,1,,,73,127
58624,note_off,66,0,0,,1,,,73,127
58625,note_on,1,0,0,,2,,,74,127
58691,note_off,66,0,0,,2,,,74,127
58692,note_on,1,0,0,,1,,,73,127
58758,note_off,66,0,0,,1,,,73,127
58759,note_on,1,0,0,,2,,,74,127
58825,note_off,66,0,0,,2,,,74,127
58826,note_on,1,0,0,,1,,,73,127
58892,note_off,66,0,0,,1,,,73,127
58893,note_on,1,0,0,,12,,,71,127
59027,note_off,134,0,0,,12,,,71,127
59028,note_on,1,0,0,,10,,,69,127
59164,note_off,136,0,0,,10,,,45,127
59298,note_off,134,0,0,,10,,,69,127
59298,note_off,0,0,0,,10,,,57,127
59299,note_on,1,0,0,,5,,,53,127
59299,note_on,0,0,0,,5,,,77,127
59299,note_on,0,0,0,,2,,,74,127
59433,note_off,134,0,0,,5,,,53,127
59434,note_on,1,0,0,,2,,,50,127
59568,note_off,134,0,0,,2,,,50,127
59569,note_on,1,0,0,,10,,,57,127
59703,note_off,134,0,0,,10,,,57,127
59704,note_on,1,0,0,,5,,,53,127
59838,note_off,134,0,0,,5,,,53,127
59838,note_off,0,0,0,,2,,,74,127
59838,note_off,0,0,0,,5,,,77,127
59839,note_on,1,0,0,,2,,,62,127
59839,note_on,0,0,0,,10,,,81,127
59839,note_on,0,0,0,,5,,,77,127
59973,note_off,134,0,0,,2,,,62,127
59974,note_on,1,0,0,,10,,,57,127
60108,note_off,134,0,0,,10,,,57,127
60108,note_off,0,0,0,,5,,,77,127
60108,note_off,0,0,0,,10,,,81,127
60109,note_on,1,0,0,,10,,,45,127
60109,note_on,0,0,0,,7,,,79,127
60109,note_on,0,0,0,,4,,,76,127
60379,note_off,270,0,0,,4,,,76,127
60379,note_off,0,0,0,,7,,,79,127
60380,note_on,1,0,0,,5,,,77,127
60380,note_on,0,0,0,,2,,,74,127
60650,note_off,270,0,0,,2,,,74,127
60650,note_off,0,0,0,,5,,,77,127
60651,note_on,1,0,0,,1,,,73,127
60651,note_on,0,0,0,,4,,,76,127
60921,note_off,270,0,0,,1,,,73,127
60921,note_off,0,0,0,,10,,,45,127
60922,note_on,1,0,0,,5,,,53,127
60922,note_on,0,0,0,,2,,,74,127
61056,note_off,134,0,0,,5,,,53,127
61057,note_on,1,0,0,,2,,,50,127
61191,note_off,134,0,0,,2,,,50,127
61191,note_off,0,0,0,,4,,,76,127
61192,note_on,1,0,0,,10,,,57,127
61192,note_on,0,0,0,,5,,,77,127
61326,note_off,134,0,0,,10,,,57,127
61327,note_on,1,0,0,,5,,,53,127
61461,note_off,134,0,0,,5,,,53,127
61461,note_off,0,0,0,,5,,,77,127
61461,note_off,0,0,0,,2,,,74,127
61462,note_on,1,0,0,,2,,,62,127
61462,note_on,0,0,0,,10,,,81,127
61462,note_on,0,0,0,,5,,,77,127
61596,note_off,134,0,0,,2,,,62,127
61597,note_on,1,0,0,,10,,,57,127
61731,note_off,134,0,0,,10,,,57,127
61731,note_off,0,0,0,,5,,,77,127
61731,note_off,0,0,0,,10,,,81,127
61732,note_on,1,0,0,,10,,,45,127
61732,note_on,0,0,0,,7,,,79,127
61732,note_on,0,0,0,,4,,,76,127
62002,note_off,270,0,0,,4,,,76,127
62002,note_off,0,0,0,,7,,,79,127
62003,note_on,1,0,0,,2,,,74,127
62003,note_on,0,0,0,,5,,,77,127
62273,note_off,270,0,0,,5,,,77,127
62273,note_off,0,0,0,,2,,,74,127
62274,note_on,1,0,0,,4,,,76,127
62274,note_on,0,0,0,,1,,,73,127
62477,note_off,203,0,0,,4,,,76,127
62543,note_off,66,0,0,,1,,,73,127
62543,note_off,0,0,0,,10,,,45,127
62544,note_on,1,0,0,,6,,,54,127
62544,note_on,0,0,0,,10,,,81,127
62544,note_on,0,0,0,,2,,,74,127
62678,note_off,134,0,0,,6,,,54,127
62679,note_on,1,0,0,,2,,,50,127
62813,note_off,134,0,0,,2,,,50,127
62814,note_on,1,0,0,,10,,,57,127
62948,note_off,134,0,0,,10,,,57,127
62949,note_on,1,0,0,,6,,,54,127
63083,note_off,134,0,0,,6,,,54,127
63083,note_off,0,0,0,,2,,,74,127
63083,note_off,0,0,0,,10,,,81,127
63084,note_on,1,0,0,,2,,,62,127
63084,note_on,0,0,0,,0,,,84,127
63218,note_off,134,0,0,,2,,,62,127
63219,note_on,1,0,0,,2,,,50,127
63353,note_off,134,0,0,,2,,,50,127
63353,note_off,0,0,0,,0,,,84,127
63354,note_on,1,0,0,,7,,,43,127
63354,note_on,0,0,0,,11,,,82,127
63624,note_off,270,0,0,,11,,,82,127
63625,note_on,1,0,0,,10,,,81,127
63895,note_off,270,0,0,,10,,,81,127
63896,note_on,1,0,0,,7,,,79,127
64166,note_off,270,0,0,,7,,,79,127
64166,note_off,0,0,0,,7,,,43,127
64167,note_on,1,0,0,,6,,,54,127
64167,note_on,0,0,0,,2,,,74,127
64167,note_on,0,0,0,,10,,,81,127
64301,note_off,134,0,0,,6,,,54,127
64302,note_on,1,0,0,,2,,,50,127
64436,note_off,134,0,0,,2,,,50,127
64437,note_on,1,0,0,,10,,,57,127
64571,note_off,134,0,0,,10,,,57,127
64572,note_on,1,0,0,,6,,,54,127
64706,note_off,134,0,0,,6,,,54,127
64706,note_off,0,0,0,,10,,,81,127
64706,note_off,0,0,0,,2,,,74,127
64707,note_on,1,0,0,,2,,,62,127
64707,note_on,0,0,0,,0,,,84,127
64841,note_off,134,0,0,,2,,,62,127
64842,note_on,1,0,0,,2,,,50,127
64976,note_off,134,0,0,,2,,,50,127
64976,note_off,0,0,0,,0,,,84,127
64977,note_on,1,0,0,,7,,,43,127
64977,note_on,0,0,0,,11,,,82,127
65247,note_off,270,0,0,,11,,,82,127
65248,note_on,1,0,0,,10,,,81,127
65518,note_off,270,0,0,,10,,,81,127
65519,note_on,1,0,0,,7,,,79,127
65789,note_off,270,0,0,,7,,,79,127
65789,note_off,0,0,0,,7,,,43,127
65790,note_on,1,0,0,,4,,,52,127
65790,note_on,0,0,0,,0,,,72,127
65790,note_on,0,0,0,,7,,,79,127
65924,note_off,134,0,0,,4,,,52,127
65925,note_on,1,0,0,,0,,,48,127
66059,note_off,134,0,0,,0,,,48,127
66060,note_on,1,0,0,,7,,,55,127
66194,note_off,134,0,0,,7,,,55,127
66195,note_on,1,0,0,,4,,,52,127
66329,note_off,134,0,0,,4,,,52,127
66329,note_off,0,0,0,,7,,,79,127
66329,note_off,0,0,0,,0,,,72,127
66330,note_on,1,0,0,,0,,,60,127
66330,note_on,0,0,0,,11,,,82,127
66464,note_off,134,0,0,,0,,,60,127
66465,note_on,1,0,0,,0,,,48,127
66599,note_off,134,0,0,,0,,,48,127
66599,note_off,0,0,0,,11,,,82,127
66600,note_on,1,0,0,,5,,,41,127
66600,note_on,0,0,0,,10,,,81,127
66870,note_off,270,0,0,,10,,,81,127
66871,note_on,1,0,0,,7,,,79,127
67141,note_off,270,0,0,,7,,,79,127
67142,note_on,1,0,0,,5,,,77,127
67412,note_off,270,0,0,,5,,,77,127
67412,note_off,0,0,0,,5,,,41,127
67413,note_on,1,0,0,,4,,,52,127
67413,note_on,0,0,0,,7,,,79,127
67413,note_on,0,0,0,,0,,,72,127
67547,note_off,134,0,0,,4,,,52,127
67548,note_on,1,0,0,,0,,,48,127
67682,note_off,134,0,0,,0,,,48,127
67683,note_on,1,0,0,,7,,,55,127
67817,note_off,134,0,0,,7,,,55,127
67818,note_on,1,0,0,,4,,,52,127
67952,note_off,134,0,0,,4,,,52,127
67952,note_off,0,0,0,,0,,,72,127
67952,note_off,0,0,0,,7,,,79,127
67953,note_on,1,0,0,,0,,,60,127
67953,note_on,0,0,0,,11,,,82,127
68087,note_off,134,0,0,,0,,,60,127
68088,note_on,1,0,0,,0,,,48,127
68222,note_off,134,0,0,,0,,,48,127
68222,note_off,0,0,0,,11,,,82,127
68223,note_on,1,0,0,,5,,,41,127
68223,note_on,0,0,0,,10,,,81,127
68493,note_off,270,0,0,,10,,,81,127
68494,note_on,1,0,0,,7,,,79,127
68764,note_off,270,0,0,,7,,,79,127
68765,note_on,1,0,0,,5,,,77,127
69005,note_off,240,0,0,,5,,,77,127
69035,note_off,30,0,0,,5,,,41,127
69036,note_on,1,0,0,,0,,,60,127
69036,note_on,0,0,0,,10,,,57,127
69036,note_on,0,0,0,,0,,,72,127
69102,note_off,66,0,0,,0,,,72,127
69103,note_on,1,0,0,,2,,,74,127
69169,note_off,66,0,0,,2,,,74,127
69170,note_on,1,0,0,,3,,,75,127
69304,note_off,134,0,0,,10,,,57,127
69304,note_off,0,0,0,,0,,,60,127
69305,note_on,1,0,0,,0,,,60,127
69305,note_on,0,0,0,,10,,,57,127
69575,note_off,270,0,0,,10,,,57,127
69575,note_off,0,0,0,,0,,,60,127
69576,note_on,1,0,0,,0,,,60,127
69576,note_on,0,0,0,,10,,,57,127
69846,note_off,270,0,0,,10,,,57,127
69846,note_off,0,0,0,,0,,,60,127
69846,note_off,0,0,0,,3,,,75,127
69847,note_on,1,0,0,,11,,,58,127
69847,note_on,0,0,0,,2,,,62,127
69847,note_on,0,0,0,,2,,,74,127
69913,note_off,66,0,0,,2,,,74,127
69914,note_on,1,0,0,,4,,,76,127
69980,note_off,66,0,0,,4,,,76,127
69981,note_on,1,0,0,,5,,,77,127
70115,note_off,134,0,0,,2,,,62,127
70115,note_off,0,0,0,,11,,,58,127
70116,note_on,1,0,0,,11,,,58,127
70116,note_on,0,0,0,,2,,,62,127
70386,note_off,270,0,0,,2,,,62,127
70386,note_off,0,0,0,,11,,,58,127
70387,note_on,1,0,0,,11,,,58,127
70387,note_on,0,0,0,,2,,,62,127
70657,note_off,270,0,0,,2,,,62,127
70657,note_off,0,0,0,,11,,,58,127
70657,note_off,0,0,0,,5,,,77,127
70658,note_on,1,0,0,,7,,,55,127
70658,note_on,0,0,0,,4,,,76,127
70928,note_off,270,0,0,,4,,,76,127
70928,note_off,0,0,0,,7,,,55,127
70929,note_on,1,0,0,,10,,,57,127
70929,note_on,0,0,0,,7,,,79,127
70995,note_off,66,0,0,,7,,,79,127
70996,note_on,1,0,0,,5,,,77,127
71062,note_off,66,0,0,,5,,,77,127
71063,note_on,1,0,0,,7,,,79,127
71129,note_off,66,0,0,,7,,,79,127
71130,note_on,1,0,0,,5,,,77,127
71196,note_off,66,0,0,,5,,,77,127
71196,note_off,0,0,0,,10,,,57,127
71197,note_on,1,0,0,,5,,,53,127
71197,note_on,0,0,0,,7,,,79,127
71263,note_off,66,0,0,,7,,,79,127
71264,note_on,1,0,0,,5,,,77,127
71330,note_off,66,0,0,,5,,,77,127
71331,note_on,1,0,0,,4,,,76,127
71397,note_off,66,0,0,,4,,,76,127
71398,note_on,1,0,0,,5,,,77,127
71464,note_off,66,0,0,,5,,,77,127
71464,note_off,0,0,0,,5,,,53,127
71465,note_on,1,0,0,,0,,,48,127
71465,note_on,0,0,0,,7,,,79,127
71735,note_off,270,0,0,,0,,,48,127
71736,note_on,1,0,0,,10,,,57,127
71804,note_off,68,0,0,,7,,,79,127
71804,note_on,0,0,0,,5,,,77,127
71870,note_off,66,0,0,,5,,,77,127
71871,note_on,1,0,0,,7,,,79,127
71937,note_off,66,0,0,,7,,,79,127
71938,note_on,1,0,0,,5,,,77,127
72004,note_off,66,0,0,,5,,,77,127
72004,note_off,0,0,0,,10,,,57,127
72005,note_on,1,0,0,,5,,,53,127
72005,note_on,0,0,0,,7,,,79,127
72071,note_off,66,0,0,,7,,,79,127
72072,note_on,1,0,0,,5,,,77,127
72138,note_off,66,0,0,,5,,,77,127
72139,note_on,1,0,0,,4,,,76,127
72205,note_off,66,0,0,,4,,,76,127
72206,note_on,1,0,0,,5,,,77,127
72272,note_off,66,0,0,,5,,,77,127
72272,note_off,0,0,0,,5,,,53,127
72273,note_on,1,0,0,,0,,,48,127
72273,note_on,0,0,0,,7,,,79,127
72543,note_off,270,0,0,,0,,,48,127
72544,note_on,1,0,0,,10,,,57,127
72612,note_off,68,0,0,,7,,,79,127
72612,note_on,0,0,0,,5,,,77,127
72678,note_off,66,0,0,,5,,,77,127
72679,note_on,1,0,0,,7,,,79,127
72745,note_off,66,0,0,,7,,,79,127
72746,note_on,1,0,0,,5,,,77,127
72812,note_off,66,0,0,,5,,,77,127
72812,note_off,0,0,0,,10,,,57,127
72813,note_on,1,0,0,,5,,,53,127
72813,note_on,0,0,0,,7,,,79,127
72879,note_off,66,0,0,,7,,,79,127
72880,note_on,1,0,0,,5,,,77,127
72946,note_off,66,0,0,,5,,,77,127
72947,note_on,1,0,0,,4,,,76,127
73013,note_off,66,0,0,,4,,,76,127
73014,note_on,1,0,0,,5,,,77,127
73080,note_off,66,0,0,,5,,,77,127
73080,note_off,0,0,0,,5,,,53,127
73081,note_on,1,0,0,,0,,,36,127
73081,note_on,0,0,0,,5,,,77,127
73622,note_off,541,0,0,,5,,,77,127
73623,note_on,1,0,0,,7,,,79,127
73826,note_off,203,0,0,,7,,,79,127
73892,note_off,66,0,0,,0,,,36,127
73893,note_on,1,0,0,,10,,,57,127
73893,note_on,0,0,0,,10,,,81,127
73893,note_on,0,0,0,,5,,,77,127
74027,note_off,134,0,0,,10,,,57,127
74028,note_on,1,0,0,,5,,,53,127
74162,note_off,134,0,0,,5,,,53,127
74163,note_on,1,0,0,,0,,,60,127
74297,note_off,134,0,0,,0,,,60,127
74298,note_on,1,0,0,,10,,,57,127
74432,note_off,134,0,0,,10,,,57,127
74432,note_off,0,0,0,,5,,,77,127
74432,note_off,0,0,0,,10,,,81,127
74433,note_on,1,0,0,,5,,,65,127
74433,note_on,0,0,0,,0,,,84,127
74433,note_on,0,0,0,,10,,,81,127
74567,note_off,134,0,0,,5,,,65,127
74568,note_on,1,0,0,,5,,,53,127
74702,note_off,134,0,0,,5,,,53,127
74702,note_off,0,0,0,,10,,,81,127
74702,note_off,0,0,0,,0,,,84,127
74703,note_on,1,0,0,,0,,,48,127
74703,note_on,0,0,0,,11,,,82,127
74703,note_on,0,0,0,,7,,,79,127
74973,note_off,270,0,0,,7,,,79,127
74973,note_off,0,0,0,,11,,,82,127
74974,note_on,1,0,0,,10,,,81,127
74974,note_on,0,0,0,,5,,,77,127
75244,note_off,270,0,0,,5,,,77,127
75244,note_off,0,0,0,,10,,,81,127
75245,note_on,1,0,0,,4,,,76,127
75245,note_on,0,0,0,,7,,,79,127
75515,note_off,270,0,0,,4,,,76,127
75515,note_off,0,0,0,,0,,,48,127
75516,note_on,1,0,0,,10,,,57,127
75516,note_on,0,0,0,,5,,,77,127
75650,note_off,134,0,0,,10,,,57,127
75651,note_on,1,0,0,,5,,,53,127
75785,note_off,134,0,0,,5,,,53,127
75785,note_off,0,0,0,,7,,,79,127
75786,note_on,1,0,0,,0,,,60,127
75786,note_on,0,0,0,,10,,,81,127
75920,note_off,134,0,0,,0,,,60,127
75921,note_on,1,0,0,,10,,,57,127
76055,note_off,134,0,0,,10,,,57,127
76055,note_off,0,0,0,,10,,,81,127
76055,note_off,0,0,0,,5,,,77,127
76056,note_on,1,0,0,,5,,,65,127
76056,note_on,0,0,0,,0,,,84,127
76056,note_on,0,0,0,,10,,,81,127
76190,note_off,134,0,0,,5,,,65,127
76191,note_on,1,0,0,,5,,,53,127
76325,note_off,134,0,0,,5,,,53,127
76325,note_off,0,0,0,,10,,,81,127
76325,note_off,0,0,0,,0,,,84,127
76326,note_on,1,0,0,,0,,,48,127
76326,note_on,0,0,0,,7,,,79,127
76326,note_on,0,0,0,,11,,,82,127
76596,note_off,270,0,0,,11,,,82,127
76596,note_off,0,0,0,,7,,,79,127
76597,note_on,1,0,0,,10,,,81,127
76597,note_on,0,0,0,,5,,,77,127
76867,note_off,270,0,0,,5,,,77,127
76867,note_off,0,0,0,,10,,,81,127
76868,note_on,1,0,0,,7,,,79,127
76868,note_on,0,0,0,,4,,,76,127
77138,note_off,270,0,0,,4,,,76,127
77138,note_off,0,0,0,,0,,,48,127
77139,note_on,1,0,0,,10,,,57,127
77139,note_on,0,0,0,,5,,,77,127
77273,note_off,134,0,0,,10,,,57,127
77274,note_on,1,0,0,,5,,,53,127
77408,note_off,134,0,0,,5,,,53,127
77408,note_off,0,0,0,,7,,,79,127
77409,note_on,1,0,0,,0,,,60,127
77409,note_on,0,0,0,,10,,,81,127
77543,note_off,134,0,0,,0,,,60,127
77544,note_on,1,0,0,,10,,,57,127
77678,note_off,134,0,0,,10,,,57,127
77678,note_off,0,0,0,,10,,,81,127
77678,note_off,0,0,0,,5,,,77,127
77679,note_on,1,0,0,,5,,,65,127
77679,note_on,0,0,0,,0,,,84,127
77813,note_off,134,0,0,,5,,,65,127
77814,note_on,1,0,0,,10,,,57,127
77948,note_off,134,0,0,,10,,,57,127
77949,note_on,1,0,0,,11,,,58,127
78083,note_off,134,0,0,,0,,,84,127
78084,note_on,1,0,0,,2,,,86,127
78218,note_off,134,0,0,,2,,,86,127
78219,note_on,1,0,0,,11,,,46,127
78219,note_on,0,0,0,,11,,,82,127
78353,note_off,134,0,0,,11,,,82,127
78354,note_on,1,0,0,,10,,,81,127
78487,note_off,133,0,0,,11,,,58,127
78488,note_off,1,0,0,,10,,,81,127
78488,note_off,0,0,0,,11,,,46,127
78489,note_on,1,0,0,,11,,,58,127
78489,note_on,0,0,0,,7,,,79,127
78623,note_off,134,0,0,,7,,,79,127
78624,note_on,1,0,0,,5,,,77,127
78758,note_off,134,0,0,,11,,,58,127
78759,note_on,1,0,0,,0,,,60,127
78893,note_off,134,0,0,,5,,,77,127
78894,note_on,1,0,0,,7,,,79,127
79028,note_off,134,0,0,,7,,,79,127
79029,note_on,1,0,0,,10,,,81,127
79095,note_off,66,0,0,,10,,,81,127
79096,note_on,1,0,0,,7,,,79,127
79162,note_off,66,0,0,,7,,,79,127
79163,note_on,1,0,0,,10,,,81,127
79229,note_off,66,0,0,,10,,,81,127
79230,note_on,1,0,0,,7,,,79,127
79296,note_off,66,0,0,,7,,,79,127
79297,note_on,1,0,0,,0,,,48,127
79297,note_on,0,0,0,,10,,,81,127
79363,note_off,66,0,0,,10,,,81,127
79364,note_on,1,0,0,,7,,,79,127
79430,note_off,66,0,0,,7,,,79,127
79431,note_on,1,0,0,,5,,,77,127
79497,note_off,66,0,0,,5,,,77,127
79498,note_on,1,0,0,,7,,,79,127
79564,note_off,66,0,0,,7,,,79,127
79564,note_off,0,0,0,,0,,,48,127
79564,note_off,0,0,0,,0,,,60,127
79565,note_on,1,0,0,,5,,,41,127
79565,note_on,0,0,0,,5,,,77,127
79699,note_off,134,0,0,,5,,,77,127
79700,note_on,1,0,0,,0,,,72,127
79834,note_off,134,0,0,,0,,,72,127
79835,note_on,1,0,0,,10,,,69,127
79969,note_off,134,0,0,,10,,,69,127
79970,note_on,1,0,0,,5,,,65,127
80104,note_off,134,0,0,,5,,,65,127
80105,note_on,1,0,0,,10,,,69,127
80239,note_off,134,0,0,,10,,,69,127
80240,note_off,1,0,0,,5,,,41,127
80240,note_on,0,0,0,,0,,,72,127
80374,note_off,134,0,0,,0,,,72,127
80375,note_on,1,0,0,,10,,,45,127
80375,note_on,0,0,0,,5,,,65,127
80375,note_on,0,0,0,,10,,,69,127
80509,note_off,134,0,0,,10,,,45,127
80510,note_on,1,0,0,,5,,,41,127
80644,note_off,134,0,0,,5,,,41,127
80645,note_on,1,0,0,,0,,,48,127
80779,note_off,134,0,0,,0,,,48,127
80780,note_on,1,0,0,,10,,,45,127
80914,note_off,134,0,0,,10,,,45,127
80914,note_off,0,0,0,,10,,,69,127
80914,note_off,0,0,0,,5,,,65,127
80915,note_on,1,0,0,,5,,,53,127
80915,note_on,0,0,0,,10,,,69,127
80915,note_on,0,0,0,,0,,,72,127
81049,note_off,134,0,0,,5,,,53,127
81050,note_on,1,0,0,,5,,,41,127
81184,note_off,134,0,0,,5,,,41,127
81184,note_off,0,0,0,,0,,,72,127
81184,note_off,0,0,0,,10,,,69,127
81185,note_on,1,0,0,,0,,,36,127
81185,note_on,0,0,0,,11,,,70,127
81185,note_on,0,0,0,,7,,,67,127
81455,note_off,270,0,0,,7,,,67,127
81455,note_off,0,0,0,,11,,,70,127
81456,note_on,1,0,0,,5,,,65,127
81456,note_on,0,0,0,,10,,,69,127
81726,note_off,270,0,0,,10,,,69,127
81726,note_off,0,0,0,,5,,,65,127
81727,note_on,1,0,0,,4,,,64,127
81727,note_on,0,0,0,,7,,,67,127
81997,note_off,270,0,0,,4,,,64,127
81997,note_off,0,0,0,,0,,,36,127
81998,note_on,1,0,0,,10,,,45,127
81998,note_on,0,0,0,,5,,,65,127
82132,note_off,134,0,0,,10,,,45,127
82133,note_on,1,0,0,,5,,,41,127
82267,note_off,134,0,0,,5,,,41,127
82267,note_off,0,0,0,,7,,,67,127
82268,note_on,1,0,0,,0,,,48,127
82268,note_on,0,0,0,,10,,,69,127
82402,note_off,134,0,0,,0,,,48,127
82403,note_on,1,0,0,,10,,,45,127
82537,note_off,134,0,0,,10,,,45,127
82537,note_off,0,0,0,,10,,,69,127
82537,note_off,0,0,0,,5,,,65,127
82538,note_on,1,0,0,,5,,,53,127
82538,note_on,0,0,0,,0,,,72,127
82538,note_on,0,0,0,,10,,,69,127
82672,note_off,134,0,0,,5,,,53,127
82673,note_on,1,0,0,,5,,,41,127
82807,note_off,134,0,0,,5,,,41,127
82807,note_off,0,0,0,,10,,,69,127
82807,note_off,0,0,0,,0,,,72,127
82808,note_on,1,0,0,,0,,,36,127
82808,note_on,0,0,0,,11,,,70,127
82808,note_on,0,0,0,,7,,,67,127
83078,note_off,270,0,0,,7,,,67,127
83078,note_off,0,0,0,,11,,,70,127
83079,note_on,1,0,0,,10,,,69,127
83079,note_on,0,0,0,,5,,,65,127
83349,note_off,270,0,0,,5,,,65,127
83349,note_off,0,0,0,,10,,,69,127
83350,note_on,1,0,0,,7,,,67,127
83350,note_on,0,0,0,,4,,,64,127
83620,note_off,270,0,0,,4,,,64,127
83620,note_off,0,0,0,,0,,,36,127
83621,note_on,1,0,0,,10,,,45,127
83621,note_on,0,0,0,,5,,,65,127
83755,note_off,134,0,0,,10,,,45,127
83756,note_on,1,0,0,,5,,,41,127
83890,note_off,134,0,0,,5,,,41,127
83890,note_off,0,0,0,,7,,,67,127
83891,note_on,1,0,0,,0,,,48,127
83891,note_on,0,0,0,,10,,,69,127
84025,note_off,134,0,0,,0,,,48,127
84026,note_on,1,0,0,,10,,,45,127
84160,note_off,134,0,0,,10,,,45,127
84160,note_off,0,0,0,,10,,,69,127
84160,note_off,0,0,0,,5,,,65,127
84161,note_on,1,0,0,,5,,,53,127
84161,note_on,0,0,0,,0,,,72,127
84295,note_off,134,0,0,,5,,,53,127
84296,note_on,1,0,0,,10,,,45,127
84430,note_off,134,0,0,,10,,,45,127
84431,note_on,1,0,0,,11,,,46,127
84565,note_off,134,0,0,,0,,,72,127
84566,note_on,1,0,0,,2,,,74,127
84700,note_off,134,0,0,,2,,,74,127
84701,note_on,1,0,0,,11,,,34,127
84701,note_on,0,0,0,,11,,,70,127
84835,note_off,134,0,0,,11,,,70,127
84836,note_on,1,0,0,,10,,,69,127
84969,note_off,133,0,0,,11,,,46,127
84970,note_off,1,0,0,,10,,,69,127
84970,note_off,0,0,0,,11,,,34,127
84971,note_on,1,0,0,,11,,,46,127
84971,note_on,0,0,0,,7,,,67,127
85105,note_off,134,0,0,,7,,,67,127
85106,note_on,1,0,0,,5,,,65,127
85240,note_off,134,0,0,,11,,,46,127
85241,note_on,1,0,0,,0,,,48,127
85375,note_off,134,0,0,,5,,,65,127
85376,note_on,1,0,0,,7,,,67,127
85510,note_off,134,0,0,,7,,,67,127
85511,note_on,1,0,0,,10,,,69,127
85577,note_off,66,0,0,,10,,,69,127
85578,note_on,1,0,0,,7,,,67,127
85644,note_off,66,0,0,,7,,,67,127
85645,note_on,1,0,0,,10,,,69,127
85711,note_off,66,0,0,,10,,,69,127
85712,note_on,1,0,0,,7,,,67,127
85778,note_off,66,0,0,,7,,,67,127
85779,note_on,1,0,0,,0,,,36,127
85779,note_on,0,0,0,,10,,,69,127
85845,note_off,66,0,0,,10,,,69,127
85846,note_on,1,0,0,,7,,,67,127
85912,note_off,66,0,0,,7,,,67,127
85913,note_on,1,0,0,,5,,,65,127
85979,note_off,66,0,0,,5,,,65,127
85980,note_on,1,0,0,,7,,,67,127
86046,note_off,66,0,0,,7,,,67,127
86046,note_off,0,0,0,,0,,,36,127
86046,note_off,0,0,0,,0,,,48,127
86047,note_on,1,0,0,,5,,,41,127
86047,note_on,0,0,0,,5,,,65,127
86181,note_off,134,0,0,,5,,,65,127
86182,note_on,1,0,0,,11,,,70,127
86316,note_off,134,0,0,,11,,,70,127
86316,note_off,0,0,0,,5,,,41,127
86317,note_on,1,0,0,,5,,,41,127
86317,note_on,0,0,0,,10,,,69,127
86451,note_off,134,0,0,,10,,,69,127
86452,note_on,1,0,0,,2,,,74,127
86586,note_off,134,0,0,,2,,,74,127
86586,note_off,0,0,0,,5,,,41,127
86587,note_on,1,0,0,,5,,,41,127
86587,note_on,0,0,0,,0,,,72,127
86857,note_off,270,0,0,,5,,,41,127
86858,note_on,1,0,0,,10,,,57,127
86992,note_off,134,0,0,,0,,,72,127
86993,note_on,1,0,0,,5,,,77,127
87127,note_off,134,0,0,,5,,,77,127
87127,note_off,0,0,0,,10,,,57,127
87128,note_on,1,0,0,,10,,,57,127
87128,note_on,0,0,0,,4,,,76,127
87262,note_off,134,0,0,,4,,,76,127
87263,note_on,1,0,0,,7,,,79,127
87397,note_off,134,0,0,,7,,,79,127
87397,note_off,0,0,0,,10,,,57,127
87398,note_on,1,0,0,,10,,,57,127
87398,note_on,0,0,0,,5,,,77,127
87668,note_off,270,0,0,,10,,,57,127
87669,note_on,1,0,0,,11,,,58,127
87803,note_off,134,0,0,,5,,,77,127
87804,note_on,1,0,0,,7,,,79,127
87938,note_off,134,0,0,,7,,,79,127
87938,note_off,0,0,0,,11,,,58,127
87939,note_on,1,0,0,,11,,,58,127
87939,note_on,0,0,0,,6,,,78,127
88073,note_off,134,0,0,,6,,,78,127
88074,note_on,1,0,0,,7,,,79,127
88208,note_off,134,0,0,,7,,,79,127
88208,note_off,0,0,0,,11,,,58,127
88209,note_on,1,0,0,,11,,,58,127
88209,note_on,0,0,0,,10,,,81,127
88298,note_off,89,0,0,,10,,,81,127
88299,note_on,1,0,0,,11,,,82,127
88388,note_off,89,0,0,,11,,,82,127
88389,note_on,1,0,0,,0,,,84,127
88478,note_off,89,0,0,,0,,,84,127
88478,note_off,0,0,0,,11,,,58,127
88479,note_on,1,0,0,,0,,,60,127
88479,note_on,0,0,0,,10,,,81,127
88568,note_off,89,0,0,,10,,,81,127
88569,note_on,1,0,0,,7,,,79,127
88658,note_off,89,0,0,,7,,,79,127
88659,note_on,1,0,0,,5,,,77,127
88748,note_off,89,0,0,,5,,,77,127
88749,note_on,1,0,0,,10,,,81,127
88815,note_off,66,0,0,,10,,,81,127
88816,note_on,1,0,0,,7,,,79,127
88882,note_off,66,0,0,,7,,,79,127
88883,note_on,1,0,0,,10,,,81,127
88949,note_off,66,0,0,,10,,,81,127
88950,note_on,1,0,0,,7,,,79,127
89016,note_off,66,0,0,,7,,,79,127
89017,note_on,1,0,0,,0,,,48,127
89017,note_on,0,0,0,,10,,,81,127
89083,note_off,66,0,0,,10,,,81,127
89084,note_on,1,0,0,,7,,,79,127
89150,note_off,66,0,0,,7,,,79,127
89151,note_on,1,0,0,,5,,,77,127
89217,note_off,66,0,0,,5,,,77,127
89218,note_on,1,0,0,,7,,,79,127
89284,note_off,66,0,0,,7,,,79,127
89284,note_off,0,0,0,,0,,,48,127
89284,note_off,0,0,0,,0,,,60,127
89285,note_on,1,0,0,,5,,,53,127
89285,note_on,0,0,0,,5,,,77,127
89419,note_off,134,0,0,,5,,,77,127
89420,note_on,1,0,0,,11,,,82,127
89554,note_off,134,0,0,,11,,,82,127
89554,note_off,0,0,0,,5,,,53,127
89555,note_on,1,0,0,,5,,,53,127
89555,note_on,0,0,0,,10,,,81,127
89689,note_off,134,0,0,,10,,,81,127
89690,note_on,1,0,0,,2,,,86,127
89824,note_off,134,0,0,,2,,,86,127
89824,note_off,0,0,0,,5,,,53,127
89825,note_on,1,0,0,,5,,,53,127
89825,note_on,0,0,0,,0,,,84,127
90095,note_off,270,0,0,,5,,,53,127
90096,note_on,1,0,0,,10,,,45,127
90230,note_off,134,0,0,,0,,,84,127
90231,note_on,1,0,0,,11,,,82,127
90365,note_off,134,0,0,,11,,,82,127
90365,note_off,0,0,0,,10,,,45,127
90366,note_on,1,0,0,,10,,,45,127
90366,note_on,0,0,0,,10,,,81,127
90500,note_off,134,0,0,,10,,,81,127
90501,note_on,1,0,0,,7,,,79,127
90635,note_off,134,0,0,,7,,,79,127
90635,note_off,0,0,0,,10,,,45,127
90636,note_on,1,0,0,,10,,,45,127
90636,note_on,0,0,0,,5,,,77,127
90770,note_off,134,0,0,,5,,,77,127
90771,note_on,1,0,0,,4,,,76,127
90905,note_off,134,0,0,,4,,,76,127
90905,note_off,0,0,0,,10,,,45,127
90906,note_on,1,0,0,,11,,,46,127
90906,note_on,0,0,0,,2,,,74,127
91040,note_off,134,0,0,,2,,,74,127
91041,note_on,1,0,0,,0,,,72,127
91175,note_off,134,0,0,,0,,,72,127
91175,note_off,0,0,0,,11,,,46,127
91176,note_on,1,0,0,,11,,,46,127
91176,note_on,0,0,0,,11,,,70,127
91310,note_off,134,0,0,,11,,,70,127
91311,note_on,1,0,0,,10,,,69,127
91445,note_off,134,0,0,,10,,,69,127
91445,note_off,0,0,0,,11,,,46,127
91446,note_on,1,0,0,,11,,,46,127
91446,note_on,0,0,0,,7,,,67,127
91580,note_off,134,0,0,,7,,,67,127
91581,note_on,1,0,0,,5,,,65,127
91715,note_off,134,0,0,,5,,,65,127
91715,note_off,0,0,0,,11,,,46,127
91716,note_on,1,0,0,,0,,,48,127
91716,note_on,0,0,0,,4,,,64,127
91850,note_off,134,0,0,,4,,,64,127
91851,note_on,1,0,0,,2,,,62,127
91985,note_off,134,0,0,,2,,,62,127
91986,note_on,1,0,0,,0,,,60,127
92120,note_off,134,0,0,,0,,,60,127
92121,note_on,1,0,0,,11,,,58,127
92255,note_off,134,0,0,,11,,,58,127
92256,note_on,1,0,0,,0,,,36,127
92256,note_on,0,0,0,,10,,,57,127
92390,note_off,134,0,0,,10,,,57,127
92391,note_on,1,0,0,,7,,,55,127
92525,note_off,134,0,0,,7,,,55,127
92525,note_off,0,0,0,,0,,,36,127
92525,note_off,0,0,0,,0,,,48,127
92526,note_on,1,0,0,,5,,,41,127
92526,note_on,0,0,0,,5,,,53,127
94152,note_off,1626,0,0,,5,,,53,127
94152,note_off,0,0,0,,5,,,41,127
96768,end_of_track,2616,1,0,,,,,,
