tick,type,time,meta,track,program,channel,pitch,tempo,note,velocity
0,copyright,0,1,0,,,,,,
0,program_change,0,0,0,6,0,,,,
0,pitchwheel,0,0,0,,0,0,,,
0,program_change,0,0,0,6,1,,,,
0,pitchwheel,0,0,0,,1,-590,,,
0,program_change,0,0,0,6,2,,,,
0,pitchwheel,0,0,0,,2,-272,,,
0,program_change,0,0,0,6,3,,,,
0,pitchwheel,0,0,0,,3,-353,,,
0,program_change,0,0,0,6,4,,,,
0,pitchwheel,0,0,0,,4,-560,,,
0,program_change,0,0,0,6,5,,,,
0,pitchwheel,0,0,0,,5,-80,,,
0,program_change,0,0,0,6,6,,,,
0,pitchwheel,0,0,0,,6,-625,,,
0,program_change,0,0,0,6,7,,,,
0,pitchwheel,0,0,0,,7,-130,,,
0,program_change,0,0,0,6,8,,,,
0,pitchwheel,0,0,0,,8,-512,,,
0,program_change,0,0,0,6,10,,,,
0,pitchwheel,0,0,0,,10,-464,,,
0,program_change,0,0,0,6,11,,,,
0,pitchwheel,0,0,0,,11,-208,,,
0,program_change,0,0,0,6,12,,,,
0,pitchwheel,0,0,0,,12,-553,,,
0,set_tempo,0,1,0,,,,500000,,
109,note_on,109,0,0,,5,,,53,127
109,note_on,0,0,0,,10,,,81,127
541,note_off,432,0,0,,10,,,81,127
541,note_off,0,0,0,,5,,,53,127
543,note_on,2,0,0,,7,,,55,127
543,note_on,0,0,0,,0,,,84,127
615,note_on,72,0,0,,11,,,82,127
624,note_off,9,0,0,,0,,,84,127
687,note_on,63,0,0,,0,,,84,127
696,note_off,9,0,0,,11,,,82,127
759,note_on,63,0,0,,11,,,82,127
768,note_off,9,0,0,,0,,,84,127
831,note_on,63,0,0,,10,,,81,127
840,note_off,9,0,0,,11,,,82,127
901,note_off,61,0,0,,10,,,81,127
903,note_on,2,0,0,,11,,,82,127
973,note_off,70,0,0,,11,,,82,127
973,note_off,0,0,0,,7,,,55,127
975,note_on,2,0,0,,10,,,57,127
975,note_on,0,0,0,,0,,,84,127
1081,note_off,106,0,0,,0,,,84,127
1083,note_on,2,0,0,,2,,,86,127
1189,note_off,106,0,0,,2,,,86,127
1191,note_on,2,0,0,,4,,,76,127
1297,note_off,106,0,0,,4,,,76,127
1299,note_on,2,0,0,,7,,,79,127
1405,note_off,106,0,0,,7,,,79,127
1405,note_off,0,0,0,,10,,,57,127
1407,note_on,2,0,0,,10,,,57,127
1407,note_on,0,0,0,,5,,,77,127
1513,note_off,106,0,0,,5,,,77,127
1515,note_on,2,0,0,,10,,,81,127
1621,note_off,106,0,0,,10,,,81,127
1623,note_on,2,0,0,,0,,,72,127
1729,note_off,106,0,0,,0,,,72,127
1731,note_on,2,0,0,,4,,,76,127
1837,note_off,106,0,0,,4,,,76,127
1837,note_off,0,0,0,,10,,,57,127
1839,note_on,2,0,0,,11,,,58,127
1839,note_on,0,0,0,,2,,,74,127
1945,note_off,106,0,0,,2,,,74,127
1947,note_on,2,0,0,,5,,,77,127
2053,note_off,106,0,0,,5,,,77,127
2055,note_on,2,0,0,,4,,,76,127
2161,note_off,106,0,0,,4,,,76,127
2163,note_on,2,0,0,,5,,,77,127
2269,note_off,106,0,0,,5,,,77,127
2269,note_off,0,0,0,,11,,,58,127
2271,note_on,2,0,0,,4,,,52,127
2271,note_on,0,0,0,,7,,,79,127
2377,note_off,106,0,0,,7,,,79,127
2379,note_on,2,0,0,,11,,,70,127
2485,note_off,106,0,0,,11,,,70,127
2487,note_on,2,0,0,,10,,,69,127
2593,note_off,106,0,0,,10,,,69,127
2595,note_on,2,0,0,,11,,,70,127
2701,note_off,106,0,0,,4,,,52,127
2703,note_on,2,0,0,,5,,,53,127
2775,note_on,72,0,0,,10,,,69,127
2809,note_off,34,0,0,,5,,,53,127
2809,note_off,0,0,0,,11,,,70,127
2811,note_on,2,0,0,,0,,,48,127
2847,note_on,36,0,0,,11,,,70,127
2856,note_off,9,0,0,,10,,,69,127
2917,note_off,61,0,0,,0,,,48,127
2919,note_on,2,0,0,,10,,,45,127
2919,note_on,0,0,0,,10,,,69,127
2928,note_off,9,0,0,,11,,,70,127
2991,note_on,63,0,0,,11,,,70,127
3000,note_off,9,0,0,,10,,,69,127
3025,note_off,25,0,0,,10,,,45,127
3027,note_on,2,0,0,,0,,,48,127
3063,note_on,36,0,0,,10,,,69,127
3072,note_off,9,0,0,,11,,,70,127
3133,note_off,61,0,0,,0,,,48,127
3135,note_on,2,0,0,,5,,,41,127
3493,note_off,358,0,0,,10,,,69,127
3568,note_off,75,0,0,,5,,,41,127
3570,note_on,2,0,0,,5,,,53,127
3570,note_on,0,0,0,,10,,,81,127
4002,note_off,432,0,0,,10,,,81,127
4002,note_off,0,0,0,,5,,,53,127
4004,note_on,2,0,0,,7,,,55,127
4004,note_on,0,0,0,,0,,,84,127
4076,note_on,72,0,0,,11,,,82,127
4085,note_off,9,0,0,,0,,,84,127
4148,note_on,63,0,0,,0,,,84,127
4157,note_off,9,0,0,,11,,,82,127
4220,note_on,63,0,0,,11,,,82,127
4229,note_off,9,0,0,,0,,,84,127
4292,note_on,63,0,0,,10,,,81,127
4301,note_off,9,0,0,,11,,,82,127
4362,note_off,61,0,0,,10,,,81,127
4364,note_on,2,0,0,,11,,,82,127
4434,note_off,70,0,0,,11,,,82,127
4434,note_off,0,0,0,,7,,,55,127
4436,note_on,2,0,0,,10,,,57,127
4436,note_on,0,0,0,,0,,,84,127
4542,note_off,106,0,0,,0,,,84,127
4544,note_on,2,0,0,,2,,,86,127
4650,note_off,106,0,0,,2,,,86,127
4652,note_on,2,0,0,,4,,,76,127
4758,note_off,106,0,0,,4,,,76,127
4760,note_on,2,0,0,,7,,,79,127
4866,note_off,106,0,0,,7,,,79,127
4866,note_off,0,0,0,,10,,,57,127
4868,note_on,2,0,0,,10,,,57,127
4868,note_on,0,0,0,,5,,,77,127
4974,note_off,106,0,0,,5,,,77,127
4976,note_on,2,0,0,,10,,,81,127
5082,note_off,106,0,0,,10,,,81,127
5084,note_on,2,0,0,,0,,,72,127
5190,note_off,106,0,0,,0,,,72,127
5192,note_on,2,0,0,,4,,,76,127
5298,note_off,106,0,0,,4,,,76,127
5298,note_off,0,0,0,,10,,,57,127
5300,note_on,2,0,0,,11,,,58,127
5300,note_on,0,0,0,,2,,,74,127
5406,note_off,106,0,0,,2,,,74,127
5408,note_on,2,0,0,,0,,,72,127
5514,note_off,106,0,0,,0,,,72,127
5516,note_on,2,0,0,,11,,,70,127
5622,note_off,106,0,0,,11,,,70,127
5624,note_on,2,0,0,,10,,,69,127
5730,note_off,106,0,0,,10,,,69,127
5730,note_off,0,0,0,,11,,,58,127
5732,note_on,2,0,0,,12,,,59,127
5732,note_on,0,0,0,,7,,,67,127
5838,note_off,106,0,0,,7,,,67,127
5840,note_on,2,0,0,,5,,,65,127
5946,note_off,106,0,0,,5,,,65,127
5948,note_on,2,0,0,,4,,,64,127
6054,note_off,106,0,0,,4,,,64,127
6056,note_on,2,0,0,,5,,,65,127
6162,note_off,106,0,0,,12,,,59,127
6164,note_on,2,0,0,,0,,,60,127
6236,note_on,72,0,0,,4,,,64,127
6270,note_off,34,0,0,,0,,,60,127
6270,note_off,0,0,0,,5,,,65,127
6272,note_on,2,0,0,,7,,,55,127
6308,note_on,36,0,0,,5,,,65,127
6317,note_off,9,0,0,,4,,,64,127
6378,note_off,61,0,0,,7,,,55,127
6380,note_on,2,0,0,,4,,,52,127
6380,note_on,0,0,0,,4,,,64,127
6389,note_off,9,0,0,,5,,,65,127
6452,note_on,63,0,0,,5,,,65,127
6461,note_off,9,0,0,,4,,,64,127
6486,note_off,25,0,0,,4,,,52,127
6488,note_on,2,0,0,,7,,,55,127
6524,note_on,36,0,0,,4,,,64,127
6533,note_off,9,0,0,,5,,,65,127
6594,note_off,61,0,0,,7,,,55,127
6596,note_on,2,0,0,,0,,,48,127
6954,note_off,358,0,0,,4,,,64,127
7029,note_off,75,0,0,,0,,,48,127
7031,note_on,2,0,0,,0,,,60,127
7031,note_on,0,0,0,,7,,,67,127
7031,note_on,0,0,0,,10,,,69,127
7137,note_off,106,0,0,,10,,,69,127
7137,note_off,0,0,0,,7,,,67,127
7139,note_on,2,0,0,,6,,,66,127
7245,note_off,106,0,0,,6,,,66,127
7247,note_on,2,0,0,,7,,,67,127
7353,note_off,106,0,0,,7,,,67,127
7355,note_on,2,0,0,,10,,,69,127
7461,note_off,106,0,0,,10,,,69,127
7461,note_off,0,0,0,,0,,,60,127
7463,note_on,2,0,0,,0,,,60,127
7463,note_on,0,0,0,,11,,,70,127
7569,note_off,106,0,0,,11,,,70,127
7571,note_on,2,0,0,,0,,,72,127
7677,note_off,106,0,0,,0,,,72,127
7679,note_on,2,0,0,,2,,,74,127
7785,note_off,106,0,0,,2,,,74,127
7787,note_on,2,0,0,,3,,,75,127
7893,note_off,106,0,0,,3,,,75,127
7893,note_off,0,0,0,,0,,,60,127
7895,note_on,2,0,0,,11,,,58,127
7895,note_on,0,0,0,,3,,,75,127
8001,note_off,106,0,0,,3,,,75,127
8003,note_on,2,0,0,,2,,,74,127
8109,note_off,106,0,0,,2,,,74,127
8111,note_on,2,0,0,,2,,,74,127
8217,note_off,106,0,0,,2,,,74,127
8219,note_on,2,0,0,,1,,,73,127
8325,note_off,106,0,0,,1,,,73,127
8325,note_off,0,0,0,,11,,,58,127
8327,note_on,2,0,0,,11,,,58,127
8327,note_on,0,0,0,,1,,,73,127
8542,note_off,215,0,0,,1,,,73,127
8544,note_on,2,0,0,,2,,,74,127
8759,note_off,215,0,0,,2,,,74,127
8759,note_off,0,0,0,,11,,,58,127
8761,note_on,2,0,0,,11,,,58,127
8761,note_on,0,0,0,,10,,,69,127
8761,note_on,0,0,0,,7,,,67,127
8867,note_off,106,0,0,,7,,,67,127
8867,note_off,0,0,0,,10,,,69,127
8869,note_on,2,0,0,,6,,,66,127
8975,note_off,106,0,0,,6,,,66,127
8977,note_on,2,0,0,,7,,,67,127
9083,note_off,106,0,0,,7,,,67,127
9085,note_on,2,0,0,,10,,,69,127
9191,note_off,106,0,0,,10,,,69,127
9191,note_off,0,0,0,,11,,,58,127
9193,note_on,2,0,0,,11,,,58,127
9193,note_on,0,0,0,,10,,,69,127
9299,note_off,106,0,0,,10,,,69,127
9301,note_on,2,0,0,,11,,,70,127
9407,note_off,106,0,0,,11,,,70,127
9409,note_on,2,0,0,,0,,,72,127
9515,note_off,106,0,0,,0,,,72,127
9517,note_on,2,0,0,,2,,,74,127
9623,note_off,106,0,0,,2,,,74,127
9623,note_off,0,0,0,,11,,,58,127
9625,note_on,2,0,0,,10,,,57,127
9625,note_on,0,0,0,,2,,,74,127
9731,note_off,106,0,0,,2,,,74,127
9733,note_on,2,0,0,,0,,,72,127
9839,note_off,106,0,0,,0,,,72,127
9841,note_on,2,0,0,,0,,,72,127
9947,note_off,106,0,0,,0,,,72,127
9949,note_on,2,0,0,,12,,,71,127
10055,note_off,106,0,0,,12,,,71,127
10055,note_off,0,0,0,,10,,,57,127
10057,note_on,2,0,0,,10,,,57,127
10057,note_on,0,0,0,,12,,,71,127
10272,note_off,215,0,0,,12,,,71,127
10274,note_on,2,0,0,,0,,,72,127
10489,note_off,215,0,0,,0,,,72,127
10489,note_off,0,0,0,,10,,,57,127
10491,note_on,2,0,0,,10,,,57,127
10491,note_on,0,0,0,,5,,,77,127
10491,note_on,0,0,0,,7,,,79,127
10597,note_off,106,0,0,,7,,,79,127
10597,note_off,0,0,0,,5,,,77,127
10599,note_on,2,0,0,,4,,,76,127
10705,note_off,106,0,0,,4,,,76,127
10707,note_on,2,0,0,,5,,,77,127
10813,note_off,106,0,0,,5,,,77,127
10815,note_on,2,0,0,,7,,,79,127
10921,note_off,106,0,0,,7,,,79,127
10921,note_off,0,0,0,,10,,,57,127
10923,note_on,2,0,0,,10,,,57,127
10923,note_on,0,0,0,,10,,,81,127
11029,note_off,106,0,0,,10,,,81,127
11031,note_on,2,0,0,,5,,,77,127
11137,note_off,106,0,0,,5,,,77,127
11139,note_on,2,0,0,,4,,,76,127
11245,note_off,106,0,0,,4,,,76,127
11247,note_on,2,0,0,,5,,,77,127
11353,note_off,106,0,0,,10,,,57,127
11355,note_on,2,0,0,,12,,,59,127
11355,note_on,0,0,0,,7,,,79,127
11461,note_off,106,0,0,,7,,,79,127
11461,note_off,0,0,0,,5,,,77,127
11463,note_on,2,0,0,,4,,,76,127
11569,note_off,106,0,0,,4,,,76,127
11571,note_on,2,0,0,,5,,,77,127
11677,note_off,106,0,0,,5,,,77,127
11679,note_on,2,0,0,,7,,,79,127
11785,note_off,106,0,0,,7,,,79,127
11785,note_off,0,0,0,,12,,,59,127
11787,note_on,2,0,0,,12,,,59,127
11787,note_on,0,0,0,,10,,,81,127
11893,note_off,106,0,0,,10,,,81,127
11895,note_on,2,0,0,,5,,,77,127
12001,note_off,106,0,0,,5,,,77,127
12003,note_on,2,0,0,,4,,,76,127
12109,note_off,106,0,0,,4,,,76,127
12111,note_on,2,0,0,,5,,,77,127
12217,note_off,106,0,0,,5,,,77,127
12217,note_off,0,0,0,,12,,,59,127
12219,note_on,2,0,0,,0,,,60,127
12219,note_on,0,0,0,,4,,,76,127
12325,note_off,106,0,0,,4,,,76,127
12327,note_on,2,0,0,,7,,,79,127
12433,note_off,106,0,0,,7,,,79,127
12435,note_on,2,0,0,,5,,,77,127
12541,note_off,106,0,0,,5,,,77,127
12543,note_on,2,0,0,,4,,,76,127
12649,note_off,106,0,0,,4,,,76,127
12649,note_off,0,0,0,,0,,,60,127
12651,note_on,2,0,0,,5,,,53,127
12651,note_on,0,0,0,,2,,,74,127
12757,note_off,106,0,0,,2,,,74,127
12759,note_on,2,0,0,,0,,,72,127
12865,note_off,106,0,0,,0,,,72,127
12867,note_on,2,0,0,,12,,,71,127
12973,note_off,106,0,0,,12,,,71,127
12975,note_on,2,0,0,,0,,,72,127
13081,note_off,106,0,0,,5,,,53,127
13083,note_on,2,0,0,,7,,,55,127
13155,note_on,72,0,0,,12,,,71,127
13189,note_off,34,0,0,,0,,,72,127
13227,note_on,38,0,0,,0,,,72,127
13236,note_off,9,0,0,,12,,,71,127
13299,note_on,63,0,0,,12,,,71,127
13308,note_off,9,0,0,,0,,,72,127
13405,note_off,97,0,0,,12,,,71,127
13407,note_on,2,0,0,,10,,,69,127
13513,note_off,106,0,0,,10,,,69,127
13513,note_off,0,0,0,,7,,,55,127
13515,note_on,2,0,0,,7,,,43,127
13515,note_on,0,0,0,,7,,,67,127
13841,note_off,326,0,0,,7,,,67,127
13947,note_off,106,0,0,,7,,,43,127
13949,note_on,2,0,0,,7,,,55,127
13949,note_on,0,0,0,,2,,,74,127
14055,note_off,106,0,0,,7,,,55,127
14057,note_on,2,0,0,,12,,,59,127
14163,note_off,106,0,0,,12,,,59,127
14165,note_on,2,0,0,,2,,,62,127
14271,note_off,106,0,0,,2,,,62,127
14273,note_on,2,0,0,,5,,,65,127
14379,note_off,106,0,0,,5,,,65,127
14381,note_on,2,0,0,,7,,,43,127
14487,note_off,106,0,0,,2,,,74,127
14489,note_on,2,0,0,,5,,,77,127
14595,note_off,106,0,0,,5,,,77,127
14597,note_on,2,0,0,,4,,,76,127
14703,note_off,106,0,0,,4,,,76,127
14705,note_on,2,0,0,,2,,,74,127
14811,note_off,106,0,0,,2,,,74,127
14811,note_off,0,0,0,,7,,,43,127
14813,note_on,2,0,0,,0,,,48,127
14813,note_on,0,0,0,,4,,,76,127
14919,note_off,106,0,0,,4,,,76,127
14921,note_on,2,0,0,,0,,,72,127
15027,note_off,106,0,0,,0,,,72,127
15027,note_off,0,0,0,,0,,,48,127
15029,note_on,2,0,0,,2,,,50,127
15029,note_on,0,0,0,,7,,,79,127
15135,note_off,106,0,0,,7,,,79,127
15137,note_on,2,0,0,,4,,,76,127
15243,note_off,106,0,0,,4,,,76,127
15243,note_off,0,0,0,,2,,,50,127
15245,note_on,2,0,0,,4,,,52,127
15245,note_on,0,0,0,,0,,,84,127
15351,note_off,106,0,0,,0,,,84,127
15353,note_on,2,0,0,,7,,,79,127
15459,note_off,106,0,0,,7,,,79,127
15459,note_off,0,0,0,,4,,,52,127
15461,note_on,2,0,0,,5,,,53,127
15461,note_on,0,0,0,,4,,,76,127
15567,note_off,106,0,0,,4,,,76,127
15569,note_on,2,0,0,,0,,,72,127
15675,note_off,106,0,0,,0,,,72,127
15675,note_off,0,0,0,,5,,,53,127
15677,note_on,2,0,0,,7,,,55,127
15677,note_on,0,0,0,,0,,,72,127
15783,note_off,106,0,0,,7,,,55,127
15785,note_on,2,0,0,,12,,,59,127
15871,note_off,86,0,0,,0,,,72,127
15891,note_off,20,0,0,,12,,,59,127
15893,note_on,2,0,0,,2,,,62,127
15893,note_on,0,0,0,,2,,,74,127
15999,note_off,106,0,0,,2,,,62,127
16001,note_on,2,0,0,,5,,,65,127
16107,note_off,106,0,0,,5,,,65,127
16109,note_on,2,0,0,,7,,,43,127
16215,note_off,106,0,0,,2,,,74,127
16217,note_on,2,0,0,,5,,,77,127
16323,note_off,106,0,0,,5,,,77,127
16325,note_on,2,0,0,,4,,,76,127
16431,note_off,106,0,0,,4,,,76,127
16433,note_on,2,0,0,,2,,,74,127
16539,note_off,106,0,0,,2,,,74,127
16539,note_off,0,0,0,,7,,,43,127
16541,note_on,2,0,0,,0,,,48,127
16541,note_on,0,0,0,,4,,,76,127
16647,note_off,106,0,0,,4,,,76,127
16649,note_on,2,0,0,,0,,,72,127
16755,note_off,106,0,0,,0,,,72,127
16755,note_off,0,0,0,,0,,,48,127
16757,note_on,2,0,0,,2,,,50,127
16757,note_on,0,0,0,,7,,,79,127
16863,note_off,106,0,0,,7,,,79,127
16865,note_on,2,0,0,,4,,,76,127
16971,note_off,106,0,0,,4,,,76,127
16971,note_off,0,0,0,,2,,,50,127
16973,note_on,2,0,0,,4,,,52,127
16973,note_on,0,0,0,,0,,,84,127
17079,note_off,106,0,0,,0,,,84,127
17081,note_on,2,0,0,,7,,,79,127
17187,note_off,106,0,0,,7,,,79,127
17187,note_off,0,0,0,,4,,,52,127
17189,note_on,2,0,0,,5,,,53,127
17189,note_on,0,0,0,,4,,,76,127
17295,note_off,106,0,0,,4,,,76,127
17297,note_on,2,0,0,,0,,,72,127
17403,note_off,106,0,0,,0,,,72,127
17403,note_off,0,0,0,,5,,,53,127
17405,note_on,2,0,0,,7,,,55,127
17405,note_on,0,0,0,,0,,,72,127
17511,note_off,106,0,0,,7,,,55,127
17513,note_on,2,0,0,,12,,,59,127
17599,note_off,86,0,0,,0,,,72,127
17619,note_off,20,0,0,,12,,,59,127
17621,note_on,2,0,0,,2,,,62,127
17621,note_on,0,0,0,,2,,,74,127
17727,note_off,106,0,0,,2,,,62,127
17729,note_on,2,0,0,,5,,,65,127
17835,note_off,106,0,0,,5,,,65,127
17837,note_on,2,0,0,,7,,,43,127
17943,note_off,106,0,0,,2,,,74,127
17945,note_on,2,0,0,,5,,,77,127
18051,note_off,106,0,0,,5,,,77,127
18053,note_on,2,0,0,,4,,,76,127
18159,note_off,106,0,0,,4,,,76,127
18161,note_on,2,0,0,,2,,,74,127
18267,note_off,106,0,0,,2,,,74,127
18267,note_off,0,0,0,,7,,,43,127
18269,note_on,2,0,0,,0,,,48,127
18269,note_on,0,0,0,,4,,,76,127
18375,note_off,106,0,0,,4,,,76,127
18377,note_on,2,0,0,,10,,,81,127
18483,note_off,106,0,0,,10,,,81,127
18485,note_on,2,0,0,,7,,,79,127
18700,note_off,215,0,0,,0,,,48,127
18702,note_on,2,0,0,,4,,,52,127
18756,note_off,54,0,0,,7,,,79,127
18810,note_on,54,0,0,,2,,,86,127
18916,note_off,106,0,0,,2,,,86,127
18918,note_on,2,0,0,,0,,,84,127
19133,note_off,215,0,0,,4,,,52,127
19135,note_on,2,0,0,,5,,,53,127
19189,note_off,54,0,0,,0,,,84,127
19243,note_on,54,0,0,,10,,,81,127
19349,note_off,106,0,0,,10,,,81,127
19351,note_on,2,0,0,,12,,,83,127
19457,note_off,106,0,0,,12,,,83,127
19459,note_on,2,0,0,,0,,,84,127
19565,note_off,106,0,0,,0,,,84,127
19565,note_off,0,0,0,,5,,,53,127
19567,note_on,2,0,0,,5,,,53,127
19567,note_on,0,0,0,,2,,,74,127
19673,note_off,106,0,0,,2,,,74,127
19675,note_on,2,0,0,,2,,,74,127
19781,note_off,106,0,0,,2,,,74,127
19783,note_on,2,0,0,,4,,,76,127
19889,note_off,106,0,0,,4,,,76,127
19891,note_on,2,0,0,,5,,,77,127
19997,note_off,106,0,0,,5,,,77,127
19997,note_off,0,0,0,,5,,,53,127
19999,note_on,2,0,0,,7,,,55,127
19999,note_on,0,0,0,,0,,,72,127
20160,note_off,161,0,0,,0,,,72,127
20162,note_on,2,0,0,,2,,,74,127
20214,note_off,52,0,0,,2,,,74,127
20216,note_on,2,0,0,,0,,,72,127
20268,note_off,52,0,0,,0,,,72,127
20270,note_on,2,0,0,,12,,,71,127
20322,note_off,52,0,0,,12,,,71,127
20324,note_on,2,0,0,,0,,,72,127
20376,note_off,52,0,0,,0,,,72,127
20378,note_on,2,0,0,,2,,,74,127
20430,note_off,52,0,0,,2,,,74,127
20432,note_on,2,0,0,,7,,,43,127
20432,note_on,0,0,0,,4,,,76,127
20484,note_off,52,0,0,,4,,,76,127
20486,note_on,2,0,0,,2,,,74,127
20538,note_off,52,0,0,,2,,,74,127
20540,note_on,2,0,0,,4,,,76,127
20592,note_off,52,0,0,,4,,,76,127
20594,note_on,2,0,0,,2,,,74,127
20646,note_off,52,0,0,,2,,,74,127
20648,note_on,2,0,0,,4,,,76,127
20700,note_off,52,0,0,,4,,,76,127
20702,note_on,2,0,0,,2,,,74,127
20754,note_off,52,0,0,,2,,,74,127
20756,note_on,2,0,0,,0,,,72,127
20862,note_off,106,0,0,,0,,,72,127
20862,note_off,0,0,0,,7,,,43,127
20863,note_off,1,0,0,,7,,,55,127
20864,note_on,1,0,0,,0,,,48,127
20864,note_on,0,0,0,,0,,,72,127
20970,note_off,106,0,0,,0,,,72,127
20972,note_on,2,0,0,,5,,,77,127
21078,note_off,106,0,0,,5,,,77,127
21080,note_on,2,0,0,,4,,,76,127
21186,note_off,106,0,0,,4,,,76,127
21188,note_on,2,0,0,,10,,,81,127
21294,note_off,106,0,0,,10,,,81,127
21296,note_on,2,0,0,,7,,,79,127
21402,note_off,106,0,0,,7,,,79,127
21404,note_on,2,0,0,,4,,,76,127
21510,note_off,106,0,0,,4,,,76,127
21511,note_off,1,0,0,,0,,,48,127
21512,note_on,1,0,0,,2,,,74,127
21618,note_off,106,0,0,,2,,,74,127
21620,note_on,2,0,0,,0,,,72,127
21726,note_off,106,0,0,,0,,,72,127
21728,note_on,2,0,0,,7,,,55,127
21728,note_on,0,0,0,,0,,,72,127
21834,note_off,106,0,0,,7,,,55,127
21836,note_on,2,0,0,,12,,,59,127
21922,note_off,86,0,0,,0,,,72,127
21942,note_off,20,0,0,,12,,,59,127
21944,note_on,2,0,0,,2,,,62,127
21944,note_on,0,0,0,,2,,,74,127
22050,note_off,106,0,0,,2,,,62,127
22052,note_on,2,0,0,,5,,,65,127
22158,note_off,106,0,0,,5,,,65,127
22160,note_on,2,0,0,,7,,,43,127
22266,note_off,106,0,0,,2,,,74,127
22268,note_on,2,0,0,,5,,,77,127
22374,note_off,106,0,0,,5,,,77,127
22376,note_on,2,0,0,,4,,,76,127
22482,note_off,106,0,0,,4,,,76,127
22484,note_on,2,0,0,,2,,,74,127
22590,note_off,106,0,0,,2,,,74,127
22590,note_off,0,0,0,,7,,,43,127
22592,note_on,2,0,0,,0,,,48,127
22592,note_on,0,0,0,,4,,,76,127
22698,note_off,106,0,0,,4,,,76,127
22700,note_on,2,0,0,,0,,,72,127
22806,note_off,106,0,0,,0,,,72,127
22806,note_off,0,0,0,,0,,,48,127
22808,note_on,2,0,0,,2,,,50,127
22808,note_on,0,0,0,,7,,,79,127
22914,note_off,106,0,0,,7,,,79,127
22916,note_on,2,0,0,,4,,,76,127
23022,note_off,106,0,0,,4,,,76,127
23022,note_off,0,0,0,,2,,,50,127
23024,note_on,2,0,0,,4,,,52,127
23024,note_on,0,0,0,,0,,,84,127
23130,note_off,106,0,0,,0,,,84,127
23132,note_on,2,0,0,,7,,,79,127
23238,note_off,106,0,0,,7,,,79,127
23238,note_off,0,0,0,,4,,,52,127
23240,note_on,2,0,0,,5,,,53,127
23240,note_on,0,0,0,,4,,,76,127
23346,note_off,106,0,0,,4,,,76,127
23348,note_on,2,0,0,,0,,,72,127
23454,note_off,106,0,0,,0,,,72,127
23454,note_off,0,0,0,,5,,,53,127
23456,note_on,2,0,0,,7,,,55,127
23456,note_on,0,0,0,,0,,,72,127
23562,note_off,106,0,0,,7,,,55,127
23564,note_on,2,0,0,,12,,,59,127
23650,note_off,86,0,0,,0,,,72,127
23670,note_off,20,0,0,,12,,,59,127
23672,note_on,2,0,0,,2,,,62,127
23672,note_on,0,0,0,,2,,,74,127
23778,note_off,106,0,0,,2,,,62,127
23780,note_on,2,0,0,,5,,,65,127
23886,note_off,106,0,0,,5,,,65,127
23888,note_on,2,0,0,,7,,,43,127
23994,note_off,106,0,0,,2,,,74,127
23996,note_on,2,0,0,,5,,,77,127
24102,note_off,106,0,0,,5,,,77,127
24104,note_on,2,0,0,,4,,,76,127
24210,note_off,106,0,0,,4,,,76,127
24212,note_on,2,0,0,,2,,,74,127
24318,note_off,106,0,0,,2,,,74,127
24318,note_off,0,0,0,,7,,,43,127
24320,note_on,2,0,0,,0,,,48,127
24320,note_on,0,0,0,,4,,,76,127
24426,note_off,106,0,0,,4,,,76,127
24428,note_on,2,0,0,,0,,,72,127
24534,note_off,106,0,0,,0,,,72,127
24534,note_off,0,0,0,,0,,,48,127
24536,note_on,2,0,0,,2,,,50,127
24536,note_on,0,0,0,,7,,,79,127
24642,note_off,106,0,0,,7,,,79,127
24644,note_on,2,0,0,,4,,,76,127
24750,note_off,106,0,0,,4,,,76,127
24750,note_off,0,0,0,,2,,,50,127
24752,note_on,2,0,0,,4,,,52,127
24752,note_on,0,0,0,,0,,,84,127
24858,note_off,106,0,0,,0,,,84,127
24860,note_on,2,0,0,,7,,,79,127
24966,note_off,106,0,0,,7,,,79,127
24966,note_off,0,0,0,,4,,,52,127
24968,note_on,2,0,0,,5,,,53,127
24968,note_on,0,0,0,,4,,,76,127
25074,note_off,106,0,0,,4,,,76,127
25076,note_on,2,0,0,,0,,,72,127
25182,note_off,106,0,0,,0,,,72,127
25182,note_off,0,0,0,,5,,,53,127
25184,note_on,2,0,0,,7,,,55,127
25184,note_on,0,0,0,,0,,,72,127
25290,note_off,106,0,0,,7,,,55,127
25292,note_on,2,0,0,,12,,,59,127
25378,note_off,86,0,0,,0,,,72,127
25398,note_off,20,0,0,,12,,,59,127
25400,note_on,2,0,0,,2,,,62,127
25400,note_on,0,0,0,,2,,,74,127
25506,note_off,106,0,0,,2,,,62,127
25508,note_on,2,0,0,,5,,,65,127
25614,note_off,106,0,0,,5,,,65,127
25616,note_on,2,0,0,,7,,,43,127
25722,note_off,106,0,0,,2,,,74,127
25724,note_on,2,0,0,,5,,,77,127
25830,note_off,106,0,0,,5,,,77,127
25832,note_on,2,0,0,,4,,,76,127
25938,note_off,106,0,0,,4,,,76,127
25940,note_on,2,0,0,,2,,,74,127
26046,note_off,106,0,0,,2,,,74,127
26046,note_off,0,0,0,,7,,,43,127
26048,note_on,2,0,0,,0,,,48,127
26048,note_on,0,0,0,,4,,,76,127
26154,note_off,106,0,0,,4,,,76,127
26156,note_on,2,0,0,,10,,,81,127
26262,note_off,106,0,0,,10,,,81,127
26264,note_on,2,0,0,,7,,,79,127
26479,note_off,215,0,0,,0,,,48,127
26481,note_on,2,0,0,,4,,,52,127
26535,note_off,54,0,0,,7,,,79,127
26589,note_on,54,0,0,,2,,,86,127
26695,note_off,106,0,0,,2,,,86,127
26697,note_on,2,0,0,,0,,,84,127
26912,note_off,215,0,0,,4,,,52,127
26914,note_on,2,0,0,,5,,,53,127
26968,note_off,54,0,0,,0,,,84,127
27022,note_on,54,0,0,,10,,,81,127
27128,note_off,106,0,0,,10,,,81,127
27130,note_on,2,0,0,,12,,,83,127
27236,note_off,106,0,0,,12,,,83,127
27238,note_on,2,0,0,,0,,,84,127
27344,note_off,106,0,0,,0,,,84,127
27344,note_off,0,0,0,,5,,,53,127
27346,note_on,2,0,0,,5,,,53,127
27346,note_on,0,0,0,,2,,,74,127
27452,note_off,106,0,0,,2,,,74,127
27454,note_on,2,0,0,,2,,,74,127
27560,note_off,106,0,0,,2,,,74,127
27562,note_on,2,0,0,,4,,,76,127
27668,note_off,106,0,0,,4,,,76,127
27670,note_on,2,0,0,,5,,,77,127
27776,note_off,106,0,0,,5,,,77,127
27776,note_off,0,0,0,,5,,,53,127
27778,note_on,2,0,0,,7,,,55,127
27778,note_on,0,0,0,,0,,,72,127
27939,note_off,161,0,0,,0,,,72,127
27941,note_on,2,0,0,,2,,,74,127
27993,note_off,52,0,0,,2,,,74,127
27995,note_on,2,0,0,,0,,,72,127
28047,note_off,52,0,0,,0,,,72,127
28049,note_on,2,0,0,,12,,,71,127
28101,note_off,52,0,0,,12,,,71,127
28103,note_on,2,0,0,,0,,,72,127
28155,note_off,52,0,0,,0,,,72,127
28157,note_on,2,0,0,,2,,,74,127
28209,note_off,52,0,0,,2,,,74,127
28211,note_on,2,0,0,,7,,,43,127
28211,note_on,0,0,0,,4,,,76,127
28263,note_off,52,0,0,,4,,,76,127
28265,note_on,2,0,0,,2,,,74,127
28317,note_off,52,0,0,,2,,,74,127
28319,note_on,2,0,0,,4,,,76,127
28371,note_off,52,0,0,,4,,,76,127
28373,note_on,2,0,0,,2,,,74,127
28425,note_off,52,0,0,,2,,,74,127
28427,note_on,2,0,0,,4,,,76,127
28479,note_off,52,0,0,,4,,,76,127
28481,note_on,2,0,0,,2,,,74,127
28533,note_off,52,0,0,,2,,,74,127
28535,note_on,2,0,0,,0,,,72,127
28641,note_off,106,0,0,,0,,,72,127
28641,note_off,0,0,0,,7,,,43,127
28642,note_off,1,0,0,,7,,,55,127
28643,note_on,1,0,0,,0,,,48,127
28643,note_on,0,0,0,,0,,,72,127
28749,note_off,106,0,0,,0,,,48,127
28751,note_on,2,0,0,,7,,,43,127
28857,note_off,106,0,0,,7,,,43,127
28859,note_on,2,0,0,,4,,,40,127
28965,note_off,106,0,0,,4,,,40,127
28967,note_on,2,0,0,,7,,,43,127
29073,note_off,106,0,0,,7,,,43,127
29075,note_on,2,0,0,,0,,,36,127
29291,note_off,216,0,0,,0,,,72,127
29507,note_off,216,0,0,,0,,,36,127
29509,note_on,2,0,0,,0,,,48,127
29509,note_on,0,0,0,,0,,,72,127
29509,note_on,0,0,0,,2,,,74,127
29615,note_off,106,0,0,,2,,,74,127
29615,note_off,0,0,0,,0,,,72,127
29617,note_on,2,0,0,,12,,,71,127
29723,note_off,106,0,0,,12,,,71,127
29725,note_on,2,0,0,,0,,,72,127
29831,note_off,106,0,0,,0,,,72,127
29833,note_on,2,0,0,,2,,,74,127
29939,note_off,106,0,0,,2,,,74,127
29939,note_off,0,0,0,,0,,,48,127
29941,note_on,2,0,0,,0,,,60,127
29941,note_on,0,0,0,,3,,,75,127
30047,note_off,106,0,0,,3,,,75,127
30049,note_on,2,0,0,,5,,,77,127
30155,note_off,106,0,0,,5,,,77,127
30157,note_on,2,0,0,,7,,,79,127
30263,note_off,106,0,0,,7,,,79,127
30265,note_on,2,0,0,,8,,,80,127
30371,note_off,106,0,0,,8,,,80,127
30371,note_off,0,0,0,,0,,,60,127
30373,note_on,2,0,0,,12,,,59,127
30373,note_on,0,0,0,,8,,,80,127
30479,note_off,106,0,0,,8,,,80,127
30481,note_on,2,0,0,,7,,,79,127
30587,note_off,106,0,0,,7,,,79,127
30589,note_on,2,0,0,,7,,,79,127
30695,note_off,106,0,0,,7,,,79,127
30697,note_on,2,0,0,,6,,,78,127
30803,note_off,106,0,0,,6,,,78,127
30803,note_off,0,0,0,,12,,,59,127
30805,note_on,2,0,0,,12,,,59,127
30805,note_on,0,0,0,,6,,,78,127
31020,note_off,215,0,0,,6,,,78,127
31022,note_on,2,0,0,,7,,,79,127
31237,note_off,215,0,0,,12,,,59,127
31239,note_on,2,0,0,,0,,,60,127
31345,note_off,106,0,0,,7,,,79,127
31347,note_on,2,0,0,,3,,,75,127
31453,note_off,106,0,0,,3,,,75,127
31455,note_on,2,0,0,,2,,,74,127
31561,note_off,106,0,0,,2,,,74,127
31563,note_on,2,0,0,,3,,,75,127
31669,note_off,106,0,0,,3,,,75,127
31669,note_off,0,0,0,,0,,,60,127
31671,note_on,2,0,0,,8,,,56,127
31671,note_on,0,0,0,,5,,,77,127
31777,note_off,106,0,0,,5,,,77,127
31779,note_on,2,0,0,,2,,,74,127
31885,note_off,106,0,0,,2,,,74,127
31887,note_on,2,0,0,,3,,,75,127
31993,note_off,106,0,0,,3,,,75,127
31995,note_on,2,0,0,,0,,,72,127
32101,note_off,106,0,0,,0,,,72,127
32101,note_off,0,0,0,,8,,,56,127
32103,note_on,2,0,0,,7,,,55,127
32103,note_on,0,0,0,,2,,,74,127
32175,note_on,72,0,0,,0,,,72,127
32184,note_off,9,0,0,,2,,,74,127
32209,note_off,25,0,0,,7,,,55,127
32211,note_on,2,0,0,,2,,,50,127
32247,note_on,36,0,0,,2,,,74,127
32256,note_off,9,0,0,,0,,,72,127
32317,note_off,61,0,0,,2,,,50,127
32319,note_on,2,0,0,,12,,,47,127
32319,note_on,0,0,0,,0,,,72,127
32328,note_off,9,0,0,,2,,,74,127
32391,note_on,63,0,0,,12,,,71,127
32400,note_off,9,0,0,,0,,,72,127
32425,note_off,25,0,0,,12,,,47,127
32427,note_on,2,0,0,,2,,,50,127
32461,note_off,34,0,0,,12,,,71,127
32463,note_on,2,0,0,,0,,,72,127
32533,note_off,70,0,0,,0,,,72,127
32533,note_off,0,0,0,,2,,,50,127
32535,note_on,2,0,0,,7,,,43,127
32535,note_on,0,0,0,,12,,,71,127
32861,note_off,326,0,0,,7,,,43,127
32967,note_off,106,0,0,,12,,,71,127
32969,note_on,2,0,0,,7,,,55,127
32969,note_on,0,0,0,,12,,,71,127
32969,note_on,0,0,0,,0,,,72,127
33075,note_off,106,0,0,,0,,,72,127
33075,note_off,0,0,0,,12,,,71,127
33077,note_on,2,0,0,,10,,,69,127
33183,note_off,106,0,0,,10,,,69,127
33185,note_on,2,0,0,,12,,,71,127
33291,note_off,106,0,0,,12,,,71,127
33293,note_on,2,0,0,,0,,,72,127
33399,note_off,106,0,0,,0,,,72,127
33399,note_off,0,0,0,,7,,,55,127
33401,note_on,2,0,0,,7,,,55,127
33401,note_on,0,0,0,,2,,,74,127
33507,note_off,106,0,0,,2,,,74,127
33509,note_on,2,0,0,,3,,,75,127
33615,note_off,106,0,0,,3,,,75,127
33617,note_on,2,0,0,,5,,,77,127
33723,note_off,106,0,0,,5,,,77,127
33725,note_on,2,0,0,,7,,,79,127
33831,note_off,106,0,0,,7,,,79,127
33831,note_off,0,0,0,,7,,,55,127
33833,note_on,2,0,0,,5,,,53,127
33833,note_on,0,0,0,,7,,,79,127
33939,note_off,106,0,0,,7,,,79,127
33941,note_on,2,0,0,,8,,,80,127
34047,note_off,106,0,0,,8,,,80,127
34049,note_on,2,0,0,,8,,,80,127
34155,note_off,106,0,0,,8,,,80,127
34157,note_on,2,0,0,,7,,,79,127
34263,note_off,106,0,0,,7,,,79,127
34263,note_off,0,0,0,,5,,,53,127
34265,note_on,2,0,0,,5,,,53,127
34265,note_on,0,0,0,,7,,,79,127
34480,note_off,215,0,0,,7,,,79,127
34482,note_on,2,0,0,,8,,,80,127
34697,note_off,215,0,0,,8,,,80,127
34697,note_off,0,0,0,,5,,,53,127
34699,note_on,2,0,0,,5,,,53,127
34699,note_on,0,0,0,,8,,,68,127
34699,note_on,0,0,0,,11,,,70,127
34805,note_off,106,0,0,,11,,,70,127
34805,note_off,0,0,0,,8,,,68,127
34807,note_on,2,0,0,,7,,,67,127
34913,note_off,106,0,0,,7,,,67,127
34915,note_on,2,0,0,,8,,,68,127
35021,note_off,106,0,0,,8,,,68,127
35023,note_on,2,0,0,,11,,,70,127
35129,note_off,106,0,0,,11,,,70,127
35129,note_off,0,0,0,,5,,,53,127
35131,note_on,2,0,0,,5,,,53,127
35131,note_on,0,0,0,,0,,,72,127
35237,note_off,106,0,0,,0,,,72,127
35239,note_on,2,0,0,,2,,,74,127
35345,note_off,106,0,0,,2,,,74,127
35347,note_on,2,0,0,,3,,,75,127
35453,note_off,106,0,0,,3,,,75,127
35455,note_on,2,0,0,,5,,,77,127
35561,note_off,106,0,0,,5,,,77,127
35561,note_off,0,0,0,,5,,,53,127
35563,note_on,2,0,0,,3,,,51,127
35563,note_on,0,0,0,,5,,,77,127
35669,note_off,106,0,0,,5,,,77,127
35671,note_on,2,0,0,,7,,,79,127
35777,note_off,106,0,0,,7,,,79,127
35779,note_on,2,0,0,,7,,,79,127
35885,note_off,106,0,0,,7,,,79,127
35887,note_on,2,0,0,,5,,,77,127
35993,note_off,106,0,0,,5,,,77,127
35993,note_off,0,0,0,,3,,,51,127
35995,note_on,2,0,0,,3,,,51,127
35995,note_on,0,0,0,,5,,,77,127
36210,note_off,215,0,0,,5,,,77,127
36212,note_on,2,0,0,,7,,,79,127
36427,note_off,215,0,0,,3,,,51,127
36429,note_on,2,0,0,,3,,,63,127
36535,note_off,106,0,0,,7,,,79,127
36537,note_on,2,0,0,,5,,,77,127
36643,note_off,106,0,0,,5,,,77,127
36645,note_on,2,0,0,,3,,,75,127
36751,note_off,106,0,0,,3,,,75,127
36753,note_on,2,0,0,,2,,,74,127
36859,note_off,106,0,0,,2,,,74,127
36859,note_off,0,0,0,,3,,,63,127
36861,note_on,2,0,0,,3,,,63,127
36861,note_on,0,0,0,,0,,,72,127
36967,note_off,106,0,0,,0,,,72,127
36969,note_on,2,0,0,,11,,,70,127
37075,note_off,106,0,0,,11,,,70,127
37077,note_on,2,0,0,,10,,,69,127
37183,note_off,106,0,0,,10,,,69,127
37185,note_on,2,0,0,,11,,,70,127
37291,note_off,106,0,0,,11,,,70,127
37291,note_off,0,0,0,,3,,,63,127
37293,note_on,2,0,0,,3,,,63,127
37293,note_on,0,0,0,,7,,,79,127
37399,note_off,106,0,0,,7,,,79,127
37401,note_on,2,0,0,,5,,,77,127
37507,note_off,106,0,0,,5,,,77,127
37509,note_on,2,0,0,,3,,,75,127
37615,note_off,106,0,0,,3,,,75,127
37617,note_on,2,0,0,,2,,,74,127
37723,note_off,106,0,0,,2,,,74,127
37723,note_off,0,0,0,,3,,,63,127
37725,note_on,2,0,0,,3,,,63,127
37725,note_on,0,0,0,,0,,,72,127
37831,note_off,106,0,0,,0,,,72,127
37833,note_on,2,0,0,,11,,,70,127
37939,note_off,106,0,0,,11,,,70,127
37941,note_on,2,0,0,,10,,,69,127
38047,note_off,106,0,0,,10,,,69,127
38049,note_on,2,0,0,,11,,,70,127
38155,note_off,106,0,0,,11,,,70,127
38155,note_off,0,0,0,,3,,,63,127
38157,note_on,2,0,0,,4,,,64,127
38157,note_on,0,0,0,,7,,,79,127
38263,note_off,106,0,0,,7,,,79,127
38265,note_on,2,0,0,,5,,,77,127
38371,note_off,106,0,0,,5,,,77,127
38373,note_on,2,0,0,,4,,,76,127
38479,note_off,106,0,0,,4,,,76,127
38481,note_on,2,0,0,,2,,,74,127
38587,note_off,106,0,0,,2,,,74,127
38587,note_off,0,0,0,,4,,,64,127
38589,note_on,2,0,0,,4,,,64,127
38589,note_on,0,0,0,,0,,,72,127
38695,note_off,106,0,0,,0,,,72,127
38697,note_on,2,0,0,,11,,,70,127
38803,note_off,106,0,0,,11,,,70,127
38805,note_on,2,0,0,,10,,,69,127
38911,note_off,106,0,0,,10,,,69,127
38913,note_on,2,0,0,,11,,,70,127
39019,note_off,106,0,0,,11,,,70,127
39019,note_off,0,0,0,,4,,,64,127
39021,note_on,2,0,0,,5,,,65,127
39021,note_on,0,0,0,,0,,,72,127
39093,note_on,72,0,0,,11,,,70,127
39102,note_off,9,0,0,,0,,,72,127
39127,note_off,25,0,0,,5,,,65,127
39129,note_on,2,0,0,,0,,,60,127
39165,note_on,36,0,0,,0,,,72,127
39174,note_off,9,0,0,,11,,,70,127
39235,note_off,61,0,0,,0,,,60,127
39237,note_on,2,0,0,,10,,,57,127
39237,note_on,0,0,0,,11,,,70,127
39246,note_off,9,0,0,,0,,,72,127
39309,note_on,63,0,0,,10,,,69,127
39318,note_off,9,0,0,,11,,,70,127
39343,note_off,25,0,0,,10,,,57,127
39345,note_on,2,0,0,,0,,,60,127
39379,note_off,34,0,0,,10,,,69,127
39381,note_on,2,0,0,,11,,,70,127
39451,note_off,70,0,0,,11,,,70,127
39451,note_off,0,0,0,,0,,,60,127
39453,note_on,2,0,0,,5,,,53,127
39453,note_on,0,0,0,,10,,,69,127
39779,note_off,326,0,0,,10,,,69,127
39885,note_off,106,0,0,,5,,,53,127
39887,note_on,2,0,0,,5,,,53,127
39887,note_on,0,0,0,,5,,,65,127
39887,note_on,0,0,0,,7,,,67,127
39993,note_off,106,0,0,,7,,,67,127
39993,note_off,0,0,0,,5,,,65,127
39995,note_on,2,0,0,,4,,,64,127
40101,note_off,106,0,0,,4,,,64,127
40103,note_on,2,0,0,,5,,,65,127
40209,note_off,106,0,0,,5,,,65,127
40211,note_on,2,0,0,,7,,,67,127
40317,note_off,106,0,0,,7,,,67,127
40317,note_off,0,0,0,,5,,,53,127
40319,note_on,2,0,0,,5,,,53,127
40319,note_on,0,0,0,,10,,,69,127
40425,note_off,106,0,0,,10,,,69,127
40427,note_on,2,0,0,,11,,,70,127
40533,note_off,106,0,0,,11,,,70,127
40535,note_on,2,0,0,,0,,,72,127
40641,note_off,106,0,0,,0,,,72,127
40643,note_on,2,0,0,,2,,,74,127
40749,note_off,106,0,0,,2,,,74,127
40749,note_off,0,0,0,,5,,,53,127
40751,note_on,2,0,0,,4,,,52,127
40751,note_on,0,0,0,,2,,,74,127
40857,note_off,106,0,0,,2,,,74,127
40859,note_on,2,0,0,,0,,,72,127
40965,note_off,106,0,0,,0,,,72,127
40967,note_on,2,0,0,,0,,,72,127
41073,note_off,106,0,0,,0,,,72,127
41075,note_on,2,0,0,,12,,,71,127
41181,note_off,106,0,0,,12,,,71,127
41181,note_off,0,0,0,,4,,,52,127
41183,note_on,2,0,0,,4,,,52,127
41183,note_on,0,0,0,,12,,,71,127
41398,note_off,215,0,0,,12,,,71,127
41400,note_on,2,0,0,,0,,,72,127
41615,note_off,215,0,0,,0,,,72,127
41615,note_off,0,0,0,,4,,,52,127
41617,note_on,2,0,0,,2,,,50,127
41617,note_on,0,0,0,,5,,,65,127
41723,note_off,106,0,0,,5,,,65,127
41725,note_on,2,0,0,,7,,,67,127
41831,note_off,106,0,0,,7,,,67,127
41833,note_on,2,0,0,,10,,,69,127
41939,note_off,106,0,0,,10,,,69,127
41941,note_on,2,0,0,,12,,,71,127
42047,note_off,106,0,0,,12,,,71,127
42047,note_off,0,0,0,,2,,,50,127
42049,note_on,2,0,0,,2,,,50,127
42049,note_on,0,0,0,,0,,,72,127
42155,note_off,106,0,0,,0,,,72,127
42157,note_on,2,0,0,,2,,,74,127
42263,note_off,106,0,0,,2,,,74,127
42265,note_on,2,0,0,,4,,,76,127
42371,note_off,106,0,0,,4,,,76,127
42373,note_on,2,0,0,,5,,,77,127
42479,note_off,106,0,0,,5,,,77,127
42479,note_off,0,0,0,,2,,,50,127
42481,note_on,2,0,0,,0,,,48,127
42481,note_on,0,0,0,,5,,,77,127
42587,note_off,106,0,0,,5,,,77,127
42589,note_on,2,0,0,,4,,,76,127
42695,note_off,106,0,0,,4,,,76,127
42697,note_on,2,0,0,,4,,,76,127
42803,note_off,106,0,0,,4,,,76,127
42805,note_on,2,0,0,,2,,,74,127
42911,note_off,106,0,0,,2,,,74,127
42911,note_off,0,0,0,,0,,,48,127
42913,note_on,2,0,0,,0,,,48,127
42913,note_on,0,0,0,,2,,,74,127
43128,note_off,215,0,0,,2,,,74,127
43130,note_on,2,0,0,,4,,,76,127
43334,note_off,204,0,0,,4,,,76,127
43345,note_off,11,0,0,,0,,,48,127
43347,note_on,2,0,0,,11,,,46,127
43347,note_on,0,0,0,,5,,,65,127
43347,note_on,0,0,0,,7,,,67,127
43453,note_off,106,0,0,,7,,,67,127
43453,note_off,0,0,0,,5,,,65,127
43455,note_on,2,0,0,,4,,,64,127
43561,note_off,106,0,0,,4,,,64,127
43563,note_on,2,0,0,,5,,,65,127
43669,note_off,106,0,0,,5,,,65,127
43671,note_on,2,0,0,,7,,,67,127
43777,note_off,106,0,0,,7,,,67,127
43777,note_off,0,0,0,,11,,,46,127
43779,note_on,2,0,0,,11,,,46,127
43779,note_on,0,0,0,,10,,,69,127
43885,note_off,106,0,0,,10,,,69,127
43887,note_on,2,0,0,,11,,,70,127
43993,note_off,106,0,0,,11,,,70,127
43995,note_on,2,0,0,,0,,,72,127
44101,note_off,106,0,0,,0,,,72,127
44103,note_on,2,0,0,,2,,,74,127
44209,note_off,106,0,0,,2,,,74,127
44209,note_off,0,0,0,,11,,,46,127
44211,note_on,2,0,0,,10,,,45,127
44211,note_on,0,0,0,,2,,,74,127
44317,note_off,106,0,0,,2,,,74,127
44319,note_on,2,0,0,,0,,,72,127
44425,note_off,106,0,0,,0,,,72,127
44427,note_on,2,0,0,,0,,,72,127
44533,note_off,106,0,0,,0,,,72,127
44535,note_on,2,0,0,,12,,,71,127
44641,note_off,106,0,0,,12,,,71,127
44641,note_off,0,0,0,,10,,,45,127
44643,note_on,2,0,0,,10,,,45,127
44643,note_on,0,0,0,,12,,,71,127
44858,note_off,215,0,0,,12,,,71,127
44860,note_on,2,0,0,,0,,,72,127
45075,note_off,215,0,0,,0,,,72,127
45075,note_off,0,0,0,,10,,,45,127
45077,note_on,2,0,0,,7,,,43,127
45077,note_on,0,0,0,,11,,,70,127
45183,note_off,106,0,0,,11,,,70,127
45185,note_on,2,0,0,,0,,,72,127
45291,note_off,106,0,0,,0,,,72,127
45293,note_on,2,0,0,,2,,,74,127
45399,note_off,106,0,0,,2,,,74,127
45401,note_on,2,0,0,,4,,,76,127
45507,note_off,106,0,0,,4,,,76,127
45507,note_off,0,0,0,,7,,,43,127
45509,note_on,2,0,0,,7,,,43,127
45509,note_on,0,0,0,,5,,,77,127
45615,note_off,106,0,0,,5,,,77,127
45617,note_on,2,0,0,,7,,,79,127
45723,note_off,106,0,0,,7,,,79,127
45725,note_on,2,0,0,,10,,,81,127
45831,note_off,106,0,0,,10,,,81,127
45833,note_on,2,0,0,,11,,,82,127
45939,note_off,106,0,0,,11,,,82,127
45939,note_off,0,0,0,,7,,,43,127
45941,note_on,2,0,0,,5,,,41,127
45941,note_on,0,0,0,,11,,,82,127
46047,note_off,106,0,0,,11,,,82,127
46049,note_on,2,0,0,,10,,,81,127
46155,note_off,106,0,0,,10,,,81,127
46157,note_on,2,0,0,,10,,,81,127
46263,note_off,106,0,0,,10,,,81,127
46265,note_on,2,0,0,,7,,,79,127
46371,note_off,106,0,0,,7,,,79,127
46371,note_off,0,0,0,,5,,,41,127
46373,note_on,2,0,0,,5,,,41,127
46373,note_on,0,0,0,,7,,,79,127
46588,note_off,215,0,0,,7,,,79,127
46590,note_on,2,0,0,,10,,,81,127
46805,note_off,215,0,0,,5,,,41,127
46807,note_on,2,0,0,,10,,,57,127
46913,note_off,106,0,0,,10,,,81,127
46915,note_on,2,0,0,,0,,,84,127
47021,note_off,106,0,0,,0,,,84,127
47023,note_on,2,0,0,,4,,,76,127
47129,note_off,106,0,0,,4,,,76,127
47131,note_on,2,0,0,,7,,,79,127
47237,note_off,106,0,0,,7,,,79,127
47237,note_off,0,0,0,,10,,,57,127
47239,note_on,2,0,0,,10,,,57,127
47239,note_on,0,0,0,,5,,,77,127
47345,note_off,106,0,0,,5,,,77,127
47347,note_on,2,0,0,,10,,,81,127
47453,note_off,106,0,0,,10,,,81,127
47455,note_on,2,0,0,,0,,,72,127
47561,note_off,106,0,0,,0,,,72,127
47563,note_on,2,0,0,,4,,,76,127
47669,note_off,106,0,0,,4,,,76,127
47669,note_off,0,0,0,,10,,,57,127
47671,note_on,2,0,0,,11,,,58,127
47671,note_on,0,0,0,,2,,,74,127
47777,note_off,106,0,0,,2,,,74,127
47779,note_on,2,0,0,,0,,,72,127
47885,note_off,106,0,0,,0,,,72,127
47887,note_on,2,0,0,,11,,,70,127
47993,note_off,106,0,0,,11,,,70,127
47995,note_on,2,0,0,,10,,,69,127
48101,note_off,106,0,0,,10,,,69,127
48101,note_off,0,0,0,,11,,,58,127
48103,note_on,2,0,0,,11,,,58,127
48103,note_on,0,0,0,,7,,,67,127
48209,note_off,106,0,0,,7,,,67,127
48211,note_on,2,0,0,,5,,,65,127
48317,note_off,106,0,0,,5,,,65,127
48319,note_on,2,0,0,,4,,,64,127
48425,note_off,106,0,0,,4,,,64,127
48427,note_on,2,0,0,,5,,,65,127
48533,note_off,106,0,0,,5,,,65,127
48533,note_off,0,0,0,,11,,,58,127
48535,note_on,2,0,0,,12,,,59,127
48535,note_on,0,0,0,,2,,,74,127
48641,note_off,106,0,0,,2,,,74,127
48643,note_on,2,0,0,,0,,,72,127
48749,note_off,106,0,0,,0,,,72,127
48751,note_on,2,0,0,,12,,,71,127
48857,note_off,106,0,0,,12,,,71,127
48859,note_on,2,0,0,,10,,,69,127
48965,note_off,106,0,0,,10,,,69,127
48965,note_off,0,0,0,,12,,,59,127
48967,note_on,2,0,0,,12,,,59,127
48967,note_on,0,0,0,,7,,,67,127
49073,note_off,106,0,0,,7,,,67,127
49075,note_on,2,0,0,,5,,,65,127
49181,note_off,106,0,0,,5,,,65,127
49183,note_on,2,0,0,,4,,,64,127
49289,note_off,106,0,0,,4,,,64,127
49291,note_on,2,0,0,,5,,,65,127
49397,note_off,106,0,0,,5,,,65,127
49397,note_off,0,0,0,,12,,,59,127
49399,note_on,2,0,0,,0,,,60,127
49399,note_on,0,0,0,,7,,,67,127
49471,note_on,72,0,0,,5,,,65,127
49480,note_off,9,0,0,,7,,,67,127
49505,note_off,25,0,0,,0,,,60,127
49507,note_on,2,0,0,,7,,,55,127
49543,note_on,36,0,0,,7,,,67,127
49552,note_off,9,0,0,,5,,,65,127
49613,note_off,61,0,0,,7,,,55,127
49615,note_on,2,0,0,,4,,,52,127
49615,note_on,0,0,0,,5,,,65,127
49624,note_off,9,0,0,,7,,,67,127
49687,note_on,63,0,0,,4,,,64,127
49696,note_off,9,0,0,,5,,,65,127
49721,note_off,25,0,0,,4,,,52,127
49723,note_on,2,0,0,,7,,,55,127
49757,note_off,34,0,0,,4,,,64,127
49759,note_on,2,0,0,,5,,,65,127
49829,note_off,70,0,0,,5,,,65,127
49829,note_off,0,0,0,,7,,,55,127
49831,note_on,2,0,0,,0,,,48,127
49831,note_on,0,0,0,,4,,,64,127
50157,note_off,326,0,0,,4,,,64,127
50263,note_off,106,0,0,,0,,,48,127
50265,note_on,2,0,0,,0,,,48,127
50265,note_on,0,0,0,,7,,,79,127
50371,note_off,106,0,0,,0,,,48,127
50373,note_on,2,0,0,,4,,,52,127
50479,note_off,106,0,0,,4,,,52,127
50481,note_on,2,0,0,,7,,,55,127
50587,note_off,106,0,0,,7,,,55,127
50589,note_on,2,0,0,,0,,,60,127
50695,note_off,106,0,0,,0,,,60,127
50697,note_on,2,0,0,,0,,,36,127
50803,note_off,106,0,0,,7,,,79,127
50805,note_on,2,0,0,,11,,,82,127
50911,note_off,106,0,0,,11,,,82,127
50913,note_on,2,0,0,,10,,,81,127
51019,note_off,106,0,0,,10,,,81,127
51021,note_on,2,0,0,,7,,,79,127
51127,note_off,106,0,0,,7,,,79,127
51127,note_off,0,0,0,,0,,,36,127
51129,note_on,2,0,0,,5,,,53,127
51129,note_on,0,0,0,,10,,,81,127
51235,note_off,106,0,0,,10,,,81,127
51237,note_on,2,0,0,,0,,,84,127
51343,note_off,106,0,0,,0,,,84,127
51343,note_off,0,0,0,,5,,,53,127
51345,note_on,2,0,0,,7,,,55,127
51345,note_on,0,0,0,,4,,,76,127
51451,note_off,106,0,0,,4,,,76,127
51453,note_on,2,0,0,,7,,,79,127
51559,note_off,106,0,0,,7,,,79,127
51559,note_off,0,0,0,,7,,,55,127
51561,note_on,2,0,0,,10,,,57,127
51561,note_on,0,0,0,,5,,,77,127
51667,note_off,106,0,0,,5,,,77,127
51669,note_on,2,0,0,,10,,,81,127
51775,note_off,106,0,0,,10,,,81,127
51775,note_off,0,0,0,,10,,,57,127
51777,note_on,2,0,0,,11,,,58,127
51777,note_on,0,0,0,,7,,,79,127
51883,note_off,106,0,0,,7,,,79,127
51885,note_on,2,0,0,,5,,,77,127
51991,note_off,106,0,0,,5,,,77,127
51991,note_off,0,0,0,,11,,,58,127
51993,note_on,2,0,0,,0,,,48,127
51993,note_on,0,0,0,,5,,,77,127
52099,note_off,106,0,0,,0,,,48,127
52101,note_on,2,0,0,,4,,,52,127
52187,note_off,86,0,0,,5,,,77,127
52207,note_off,20,0,0,,4,,,52,127
52209,note_on,2,0,0,,7,,,55,127
52209,note_on,0,0,0,,7,,,79,127
52315,note_off,106,0,0,,7,,,55,127
52317,note_on,2,0,0,,0,,,60,127
52423,note_off,106,0,0,,0,,,60,127
52425,note_on,2,0,0,,0,,,36,127
52531,note_off,106,0,0,,7,,,79,127
52533,note_on,2,0,0,,11,,,82,127
52639,note_off,106,0,0,,11,,,82,127
52641,note_on,2,0,0,,10,,,81,127
52747,note_off,106,0,0,,10,,,81,127
52749,note_on,2,0,0,,7,,,79,127
52855,note_off,106,0,0,,7,,,79,127
52855,note_off,0,0,0,,0,,,36,127
52857,note_on,2,0,0,,5,,,53,127
52857,note_on,0,0,0,,10,,,81,127
52963,note_off,106,0,0,,10,,,81,127
52965,note_on,2,0,0,,0,,,84,127
53071,note_off,106,0,0,,0,,,84,127
53071,note_off,0,0,0,,5,,,53,127
53073,note_on,2,0,0,,7,,,55,127
53073,note_on,0,0,0,,4,,,76,127
53179,note_off,106,0,0,,4,,,76,127
53181,note_on,2,0,0,,7,,,79,127
53287,note_off,106,0,0,,7,,,79,127
53287,note_off,0,0,0,,7,,,55,127
53289,note_on,2,0,0,,10,,,57,127
53289,note_on,0,0,0,,5,,,77,127
53395,note_off,106,0,0,,5,,,77,127
53397,note_on,2,0,0,,10,,,81,127
53503,note_off,106,0,0,,10,,,81,127
53503,note_off,0,0,0,,10,,,57,127
53505,note_on,2,0,0,,11,,,58,127
53505,note_on,0,0,0,,7,,,79,127
53611,note_off,106,0,0,,7,,,79,127
53613,note_on,2,0,0,,5,,,77,127
53719,note_off,106,0,0,,5,,,77,127
53719,note_off,0,0,0,,11,,,58,127
53721,note_on,2,0,0,,0,,,48,127
53721,note_on,0,0,0,,5,,,77,127
53827,note_off,106,0,0,,0,,,48,127
53829,note_on,2,0,0,,4,,,52,127
53915,note_off,86,0,0,,5,,,77,127
53935,note_off,20,0,0,,4,,,52,127
53937,note_on,2,0,0,,7,,,55,127
53937,note_on,0,0,0,,7,,,79,127
54043,note_off,106,0,0,,7,,,55,127
54045,note_on,2,0,0,,0,,,60,127
54151,note_off,106,0,0,,0,,,60,127
54153,note_on,2,0,0,,0,,,36,127
54259,note_off,106,0,0,,7,,,79,127
54261,note_on,2,0,0,,11,,,82,127
54367,note_off,106,0,0,,11,,,82,127
54369,note_on,2,0,0,,10,,,81,127
54475,note_off,106,0,0,,10,,,81,127
54477,note_on,2,0,0,,7,,,79,127
54583,note_off,106,0,0,,7,,,79,127
54583,note_off,0,0,0,,0,,,36,127
54585,note_on,2,0,0,,5,,,41,127
54585,note_on,0,0,0,,10,,,81,127
54691,note_off,106,0,0,,10,,,81,127
54693,note_on,2,0,0,,2,,,86,127
54799,note_off,106,0,0,,2,,,86,127
54801,note_on,2,0,0,,0,,,84,127
55016,note_off,215,0,0,,5,,,41,127
55018,note_on,2,0,0,,10,,,45,127
55072,note_off,54,0,0,,0,,,84,127
55126,note_on,54,0,0,,4,,,76,127
55232,note_off,106,0,0,,4,,,76,127
55234,note_on,2,0,0,,5,,,77,127
55449,note_off,215,0,0,,10,,,45,127
55451,note_on,2,0,0,,11,,,46,127
55505,note_off,54,0,0,,5,,,77,127
55559,note_on,54,0,0,,2,,,74,127
55665,note_off,106,0,0,,2,,,74,127
55667,note_on,2,0,0,,4,,,76,127
55773,note_off,106,0,0,,4,,,76,127
55775,note_on,2,0,0,,5,,,77,127
55881,note_off,106,0,0,,5,,,77,127
55881,note_off,0,0,0,,11,,,46,127
55883,note_on,2,0,0,,11,,,58,127
55883,note_on,0,0,0,,7,,,67,127
55989,note_off,106,0,0,,7,,,67,127
55991,note_on,2,0,0,,7,,,67,127
56097,note_off,106,0,0,,7,,,67,127
56099,note_on,2,0,0,,10,,,69,127
56205,note_off,106,0,0,,10,,,69,127
56207,note_on,2,0,0,,11,,,70,127
56313,note_off,106,0,0,,11,,,70,127
56313,note_off,0,0,0,,11,,,58,127
56315,note_on,2,0,0,,0,,,60,127
56315,note_on,0,0,0,,5,,,65,127
56476,note_off,161,0,0,,5,,,65,127
56478,note_on,2,0,0,,7,,,67,127
56530,note_off,52,0,0,,7,,,67,127
56532,note_on,2,0,0,,5,,,65,127
56584,note_off,52,0,0,,5,,,65,127
56586,note_on,2,0,0,,4,,,64,127
56638,note_off,52,0,0,,4,,,64,127
56640,note_on,2,0,0,,5,,,65,127
56692,note_off,52,0,0,,5,,,65,127
56694,note_on,2,0,0,,7,,,67,127
56746,note_off,52,0,0,,7,,,67,127
56746,note_off,0,0,0,,0,,,60,127
56748,note_on,2,0,0,,0,,,48,127
56748,note_on,0,0,0,,10,,,69,127
56800,note_off,52,0,0,,10,,,69,127
56802,note_on,2,0,0,,7,,,67,127
56854,note_off,52,0,0,,7,,,67,127
56856,note_on,2,0,0,,10,,,69,127
56908,note_off,52,0,0,,10,,,69,127
56910,note_on,2,0,0,,7,,,67,127
56962,note_off,52,0,0,,7,,,67,127
56964,note_on,2,0,0,,10,,,69,127
57016,note_off,52,0,0,,10,,,69,127
57018,note_on,2,0,0,,7,,,67,127
57070,note_off,52,0,0,,7,,,67,127
57072,note_on,2,0,0,,5,,,65,127
57178,note_off,106,0,0,,5,,,65,127
57178,note_off,0,0,0,,0,,,48,127
57180,note_on,2,0,0,,5,,,53,127
57180,note_on,0,0,0,,5,,,65,127
57286,note_off,106,0,0,,5,,,65,127
57288,note_on,2,0,0,,11,,,70,127
57394,note_off,106,0,0,,11,,,70,127
57396,note_on,2,0,0,,10,,,69,127
57502,note_off,106,0,0,,10,,,69,127
57504,note_on,2,0,0,,2,,,74,127
57610,note_off,106,0,0,,2,,,74,127
57612,note_on,2,0,0,,0,,,72,127
57718,note_off,106,0,0,,0,,,72,127
57720,note_on,2,0,0,,5,,,77,127
57826,note_off,106,0,0,,5,,,77,127
57827,note_off,1,0,0,,5,,,53,127
57828,note_on,1,0,0,,4,,,76,127
57934,note_off,106,0,0,,4,,,76,127
57936,note_on,2,0,0,,5,,,77,127
58042,note_off,106,0,0,,5,,,77,127
58044,note_on,2,0,0,,0,,,48,127
58044,note_on,0,0,0,,5,,,77,127
58150,note_off,106,0,0,,0,,,48,127
58152,note_on,2,0,0,,4,,,52,127
58238,note_off,86,0,0,,5,,,77,127
58258,note_off,20,0,0,,4,,,52,127
58260,note_on,2,0,0,,7,,,55,127
58260,note_on,0,0,0,,7,,,79,127
58366,note_off,106,0,0,,7,,,55,127
58368,note_on,2,0,0,,0,,,60,127
58474,note_off,106,0,0,,0,,,60,127
58476,note_on,2,0,0,,0,,,36,127
58582,note_off,106,0,0,,7,,,79,127
58584,note_on,2,0,0,,11,,,82,127
58690,note_off,106,0,0,,11,,,82,127
58692,note_on,2,0,0,,10,,,81,127
58798,note_off,106,0,0,,10,,,81,127
58800,note_on,2,0,0,,7,,,79,127
58906,note_off,106,0,0,,7,,,79,127
58906,note_off,0,0,0,,0,,,36,127
58908,note_on,2,0,0,,5,,,53,127
58908,note_on,0,0,0,,10,,,81,127
59014,note_off,106,0,0,,10,,,81,127
59016,note_on,2,0,0,,0,,,84,127
59122,note_off,106,0,0,,0,,,84,127
59122,note_off,0,0,0,,5,,,53,127
59124,note_on,2,0,0,,7,,,55,127
59124,note_on,0,0,0,,4,,,76,127
59230,note_off,106,0,0,,4,,,76,127
59232,note_on,2,0,0,,7,,,79,127
59338,note_off,106,0,0,,7,,,79,127
59338,note_off,0,0,0,,7,,,55,127
59340,note_on,2,0,0,,10,,,57,127
59340,note_on,0,0,0,,5,,,77,127
59446,note_off,106,0,0,,5,,,77,127
59448,note_on,2,0,0,,10,,,81,127
59554,note_off,106,0,0,,10,,,81,127
59554,note_off,0,0,0,,10,,,57,127
59556,note_on,2,0,0,,11,,,58,127
59556,note_on,0,0,0,,7,,,79,127
59662,note_off,106,0,0,,7,,,79,127
59664,note_on,2,0,0,,5,,,77,127
59770,note_off,106,0,0,,5,,,77,127
59770,note_off,0,0,0,,11,,,58,127
59772,note_on,2,0,0,,0,,,48,127
59772,note_on,0,0,0,,5,,,77,127
59878,note_off,106,0,0,,0,,,48,127
59880,note_on,2,0,0,,4,,,52,127
59966,note_off,86,0,0,,5,,,77,127
59986,note_off,20,0,0,,4,,,52,127
59988,note_on,2,0,0,,7,,,55,127
59988,note_on,0,0,0,,7,,,79,127
60094,note_off,106,0,0,,7,,,55,127
60096,note_on,2,0,0,,0,,,60,127
60202,note_off,106,0,0,,0,,,60,127
60204,note_on,2,0,0,,0,,,36,127
60310,note_off,106,0,0,,7,,,79,127
60312,note_on,2,0,0,,11,,,82,127
60418,note_off,106,0,0,,11,,,82,127
60420,note_on,2,0,0,,10,,,81,127
60526,note_off,106,0,0,,10,,,81,127
60528,note_on,2,0,0,,7,,,79,127
60634,note_off,106,0,0,,7,,,79,127
60634,note_off,0,0,0,,0,,,36,127
60636,note_on,2,0,0,,5,,,53,127
60636,note_on,0,0,0,,10,,,81,127
60742,note_off,106,0,0,,10,,,81,127
60744,note_on,2,0,0,,0,,,84,127
60850,note_off,106,0,0,,0,,,84,127
60850,note_off,0,0,0,,5,,,53,127
60852,note_on,2,0,0,,7,,,55,127
60852,note_on,0,0,0,,4,,,76,127
60958,note_off,106,0,0,,4,,,76,127
60960,note_on,2,0,0,,7,,,79,127
61066,note_off,106,0,0,,7,,,79,127
61066,note_off,0,0,0,,7,,,55,127
61068,note_on,2,0,0,,10,,,57,127
61068,note_on,0,0,0,,5,,,77,127
61174,note_off,106,0,0,,5,,,77,127
61176,note_on,2,0,0,,10,,,81,127
61282,note_off,106,0,0,,10,,,81,127
61282,note_off,0,0,0,,10,,,57,127
61284,note_on,2,0,0,,11,,,58,127
61284,note_on,0,0,0,,7,,,79,127
61390,note_off,106,0,0,,7,,,79,127
61392,note_on,2,0,0,,5,,,77,127
61498,note_off,106,0,0,,5,,,77,127
61498,note_off,0,0,0,,11,,,58,127
61500,note_on,2,0,0,,0,,,48,127
61500,note_on,0,0,0,,5,,,77,127
61606,note_off,106,0,0,,0,,,48,127
61608,note_on,2,0,0,,4,,,52,127
61694,note_off,86,0,0,,5,,,77,127
61714,note_off,20,0,0,,4,,,52,127
61716,note_on,2,0,0,,7,,,55,127
61716,note_on,0,0,0,,7,,,79,127
61822,note_off,106,0,0,,7,,,55,127
61824,note_on,2,0,0,,0,,,60,127
61930,note_off,106,0,0,,0,,,60,127
61932,note_on,2,0,0,,0,,,36,127
62038,note_off,106,0,0,,7,,,79,127
62040,note_on,2,0,0,,11,,,82,127
62146,note_off,106,0,0,,11,,,82,127
62148,note_on,2,0,0,,10,,,81,127
62254,note_off,106,0,0,,10,,,81,127
62256,note_on,2,0,0,,7,,,79,127
62362,note_off,106,0,0,,7,,,79,127
62362,note_off,0,0,0,,0,,,36,127
62364,note_on,2,0,0,,5,,,41,127
62364,note_on,0,0,0,,10,,,81,127
62470,note_off,106,0,0,,10,,,81,127
62472,note_on,2,0,0,,2,,,86,127
62578,note_off,106,0,0,,2,,,86,127
62580,note_on,2,0,0,,0,,,84,127
62795,note_off,215,0,0,,5,,,41,127
62797,note_on,2,0,0,,10,,,45,127
62851,note_off,54,0,0,,0,,,84,127
62905,note_on,54,0,0,,4,,,76,127
63011,note_off,106,0,0,,4,,,76,127
63013,note_on,2,0,0,,5,,,77,127
63228,note_off,215,0,0,,10,,,45,127
63230,note_on,2,0,0,,11,,,46,127
63284,note_off,54,0,0,,5,,,77,127
63338,note_on,54,0,0,,2,,,74,127
63444,note_off,106,0,0,,2,,,74,127
63446,note_on,2,0,0,,4,,,76,127
63552,note_off,106,0,0,,4,,,76,127
63554,note_on,2,0,0,,5,,,77,127
63660,note_off,106,0,0,,5,,,77,127
63660,note_off,0,0,0,,11,,,46,127
63662,note_on,2,0,0,,11,,,58,127
63662,note_on,0,0,0,,7,,,67,127
63768,note_off,106,0,0,,7,,,67,127
63770,note_on,2,0,0,,7,,,67,127
63876,note_off,106,0,0,,7,,,67,127
63878,note_on,2,0,0,,10,,,69,127
63984,note_off,106,0,0,,10,,,69,127
63986,note_on,2,0,0,,11,,,70,127
64092,note_off,106,0,0,,11,,,70,127
64092,note_off,0,0,0,,11,,,58,127
64094,note_on,2,0,0,,0,,,60,127
64094,note_on,0,0,0,,5,,,65,127
64255,note_off,161,0,0,,5,,,65,127
64257,note_on,2,0,0,,7,,,67,127
64309,note_off,52,0,0,,7,,,67,127
64311,note_on,2,0,0,,5,,,65,127
64363,note_off,52,0,0,,5,,,65,127
64365,note_on,2,0,0,,4,,,64,127
64417,note_off,52,0,0,,4,,,64,127
64419,note_on,2,0,0,,5,,,65,127
64471,note_off,52,0,0,,5,,,65,127
64473,note_on,2,0,0,,7,,,67,127
64525,note_off,52,0,0,,7,,,67,127
64525,note_off,0,0,0,,0,,,60,127
64527,note_on,2,0,0,,0,,,48,127
64527,note_on,0,0,0,,10,,,69,127
64579,note_off,52,0,0,,10,,,69,127
64581,note_on,2,0,0,,7,,,67,127
64633,note_off,52,0,0,,7,,,67,127
64635,note_on,2,0,0,,10,,,69,127
64687,note_off,52,0,0,,10,,,69,127
64689,note_on,2,0,0,,7,,,67,127
64741,note_off,52,0,0,,7,,,67,127
64743,note_on,2,0,0,,10,,,69,127
64795,note_off,52,0,0,,10,,,69,127
64797,note_on,2,0,0,,7,,,67,127
64849,note_off,52,0,0,,7,,,67,127
64851,note_on,2,0,0,,5,,,65,127
64957,note_off,106,0,0,,5,,,65,127
64957,note_off,0,0,0,,0,,,48,127
64959,note_on,2,0,0,,5,,,53,127
64959,note_on,0,0,0,,5,,,65,127
65065,note_off,106,0,0,,5,,,65,127
65067,note_on,2,0,0,,11,,,70,127
65173,note_off,106,0,0,,11,,,70,127
65175,note_on,2,0,0,,10,,,69,127
65281,note_off,106,0,0,,10,,,69,127
65283,note_on,2,0,0,,2,,,74,127
65389,note_off,106,0,0,,2,,,74,127
65391,note_on,2,0,0,,0,,,72,127
65497,note_off,106,0,0,,0,,,72,127
65499,note_on,2,0,0,,5,,,77,127
65605,note_off,106,0,0,,5,,,77,127
65607,note_on,2,0,0,,4,,,76,127
65713,note_off,106,0,0,,4,,,76,127
65715,note_on,2,0,0,,11,,,82,127
65821,note_off,106,0,0,,11,,,82,127
65822,note_off,1,0,0,,5,,,53,127
65823,note_on,1,0,0,,10,,,81,127
65929,note_off,106,0,0,,10,,,81,127
65931,note_on,2,0,0,,2,,,86,127
66037,note_off,106,0,0,,2,,,86,127
66039,note_on,2,0,0,,0,,,84,127
66145,note_off,106,0,0,,0,,,84,127
66147,note_on,2,0,0,,11,,,82,127
66253,note_off,106,0,0,,11,,,82,127
66255,note_on,2,0,0,,5,,,53,127
66255,note_on,0,0,0,,10,,,81,127
66361,note_off,106,0,0,,10,,,81,127
66363,note_on,2,0,0,,7,,,79,127
66469,note_off,106,0,0,,7,,,79,127
66471,note_on,2,0,0,,5,,,77,127
66577,note_off,106,0,0,,5,,,77,127
66579,note_on,2,0,0,,4,,,76,127
66685,note_off,106,0,0,,4,,,76,127
66685,note_off,0,0,0,,5,,,53,127
66687,note_on,2,0,0,,11,,,58,127
66687,note_on,0,0,0,,2,,,74,127
66793,note_off,106,0,0,,2,,,74,127
66795,note_on,2,0,0,,2,,,74,127
66901,note_off,106,0,0,,2,,,74,127
66903,note_on,2,0,0,,4,,,76,127
67009,note_off,106,0,0,,4,,,76,127
67011,note_on,2,0,0,,5,,,77,127
67117,note_off,106,0,0,,5,,,77,127
67119,note_on,2,0,0,,11,,,46,127
67119,note_on,0,0,0,,7,,,67,127
67225,note_off,106,0,0,,7,,,67,127
67227,note_on,2,0,0,,7,,,67,127
67333,note_off,106,0,0,,7,,,67,127
67335,note_on,2,0,0,,10,,,69,127
67441,note_off,106,0,0,,10,,,69,127
67443,note_on,2,0,0,,11,,,70,127
67549,note_off,106,0,0,,11,,,70,127
67549,note_off,0,0,0,,11,,,46,127
67550,note_off,1,0,0,,11,,,58,127
67551,note_on,1,0,0,,0,,,48,127
67551,note_on,0,0,0,,5,,,65,127
67820,note_off,269,0,0,,5,,,65,127
67822,note_on,2,0,0,,4,,,64,127
67874,note_off,52,0,0,,4,,,64,127
67876,note_on,2,0,0,,5,,,65,127
67928,note_off,52,0,0,,5,,,65,127
67930,note_on,2,0,0,,7,,,67,127
67982,note_off,52,0,0,,7,,,67,127
67984,note_on,2,0,0,,0,,,36,127
67984,note_on,0,0,0,,10,,,69,127
68036,note_off,52,0,0,,10,,,69,127
68038,note_on,2,0,0,,7,,,67,127
68090,note_off,52,0,0,,7,,,67,127
68092,note_on,2,0,0,,10,,,69,127
68144,note_off,52,0,0,,10,,,69,127
68146,note_on,2,0,0,,7,,,67,127
68198,note_off,52,0,0,,7,,,67,127
68200,note_on,2,0,0,,10,,,69,127
68252,note_off,52,0,0,,10,,,69,127
68254,note_on,2,0,0,,7,,,67,127
68306,note_off,52,0,0,,7,,,67,127
68308,note_on,2,0,0,,5,,,65,127
68414,note_off,106,0,0,,5,,,65,127
68414,note_off,0,0,0,,0,,,36,127
68415,note_off,1,0,0,,0,,,48,127
68416,note_on,1,0,0,,5,,,41,127
68416,note_on,0,0,0,,5,,,65,127
68522,note_off,106,0,0,,5,,,65,127
68524,note_on,2,0,0,,11,,,70,127
68630,note_off,106,0,0,,11,,,70,127
68632,note_on,2,0,0,,10,,,69,127
68738,note_off,106,0,0,,10,,,69,127
68740,note_on,2,0,0,,2,,,74,127
68846,note_off,106,0,0,,2,,,74,127
68848,note_on,2,0,0,,0,,,72,127
68954,note_off,106,0,0,,0,,,72,127
68956,note_on,2,0,0,,5,,,77,127
69062,note_off,106,0,0,,5,,,77,127
69064,note_on,2,0,0,,4,,,76,127
69170,note_off,106,0,0,,4,,,76,127
69172,note_on,2,0,0,,11,,,82,127
69278,note_off,106,0,0,,11,,,82,127
69279,note_off,1,0,0,,5,,,41,127
69280,note_on,1,0,0,,10,,,81,127
69386,note_off,106,0,0,,10,,,81,127
69388,note_on,2,0,0,,2,,,86,127
69494,note_off,106,0,0,,2,,,86,127
69496,note_on,2,0,0,,0,,,84,127
69602,note_off,106,0,0,,0,,,84,127
69604,note_on,2,0,0,,11,,,82,127
69710,note_off,106,0,0,,11,,,82,127
69712,note_on,2,0,0,,5,,,53,127
69712,note_on,0,0,0,,10,,,81,127
69818,note_off,106,0,0,,10,,,81,127
69820,note_on,2,0,0,,7,,,79,127
69926,note_off,106,0,0,,7,,,79,127
69928,note_on,2,0,0,,5,,,77,127
70034,note_off,106,0,0,,5,,,77,127
70036,note_on,2,0,0,,4,,,76,127
70142,note_off,106,0,0,,4,,,76,127
70142,note_off,0,0,0,,5,,,53,127
70144,note_on,2,0,0,,11,,,58,127
70144,note_on,0,0,0,,2,,,74,127
70250,note_off,106,0,0,,2,,,74,127
70252,note_on,2,0,0,,2,,,74,127
70358,note_off,106,0,0,,2,,,74,127
70360,note_on,2,0,0,,4,,,76,127
70466,note_off,106,0,0,,4,,,76,127
70468,note_on,2,0,0,,5,,,77,127
70574,note_off,106,0,0,,5,,,77,127
70576,note_on,2,0,0,,11,,,46,127
70576,note_on,0,0,0,,7,,,67,127
70682,note_off,106,0,0,,7,,,67,127
70684,note_on,2,0,0,,7,,,67,127
70790,note_off,106,0,0,,7,,,67,127
70792,note_on,2,0,0,,10,,,69,127
70898,note_off,106,0,0,,10,,,69,127
70900,note_on,2,0,0,,11,,,70,127
71006,note_off,106,0,0,,11,,,70,127
71006,note_off,0,0,0,,11,,,46,127
71007,note_off,1,0,0,,11,,,58,127
71009,note_on,2,0,0,,0,,,48,127
71009,note_on,0,0,0,,5,,,65,127
71293,note_off,284,0,0,,5,,,65,127
71296,note_on,3,0,0,,4,,,64,127
71349,note_off,53,0,0,,4,,,64,127
71354,note_on,5,0,0,,5,,,65,127
71407,note_off,53,0,0,,5,,,65,127
71412,note_on,5,0,0,,7,,,67,127
71465,note_off,53,0,0,,7,,,67,127
71470,note_on,5,0,0,,0,,,36,127
71470,note_on,0,0,0,,10,,,69,127
71523,note_off,53,0,0,,10,,,69,127
71528,note_on,5,0,0,,7,,,67,127
71581,note_off,53,0,0,,7,,,67,127
71586,note_on,5,0,0,,10,,,69,127
71639,note_off,53,0,0,,10,,,69,127
71644,note_on,5,0,0,,7,,,67,127
71697,note_off,53,0,0,,7,,,67,127
71702,note_on,5,0,0,,10,,,69,127
71755,note_off,53,0,0,,10,,,69,127
71760,note_on,5,0,0,,7,,,67,127
71813,note_off,53,0,0,,7,,,67,127
71818,note_on,5,0,0,,5,,,65,127
71929,note_off,111,0,0,,5,,,65,127
71929,note_off,0,0,0,,0,,,36,127
71931,note_off,2,0,0,,0,,,48,127
71949,note_on,18,0,0,,5,,,41,127
71949,note_on,0,0,0,,5,,,65,127
74161,note_off,2212,0,0,,5,,,65,127
74161,note_off,0,0,0,,5,,,41,127
79872,end_of_track,5711,1,0,,,,,,
