tick,type,time,meta,track,program,channel,pitch,tempo,note,velocity
0,copyright,0,1,0,,,,,,
0,program_change,0,0,0,6,0,,,,
0,pitchwheel,0,0,0,,0,0,,,
0,program_change,0,0,0,6,1,,,,
0,pitchwheel,0,0,0,,1,-590,,,
0,program_change,0,0,0,6,2,,,,
0,pitchwheel,0,0,0,,2,-272,,,
0,program_change,0,0,0,6,3,,,,
0,pitchwheel,0,0,0,,3,-353,,,
0,program_change,0,0,0,6,4,,,,
0,pitchwheel,0,0,0,,4,-560,,,
0,program_change,0,0,0,6,5,,,,
0,pitchwheel,0,0,0,,5,-80,,,
0,program_change,0,0,0,6,6,,,,
0,pitchwheel,0,0,0,,6,-625,,,
0,program_change,0,0,0,6,7,,,,
0,pitchwheel,0,0,0,,7,-130,,,
0,program_change,0,0,0,6,8,,,,
0,pitchwheel,0,0,0,,8,-512,,,
0,program_change,0,0,0,6,10,,,,
0,pitchwheel,0,0,0,,10,-464,,,
0,program_change,0,0,0,6,11,,,,
0,pitchwheel,0,0,0,,11,-208,,,
0,program_change,0,0,0,6,12,,,,
0,pitchwheel,0,0,0,,12,-553,,,
0,set_tempo,0,1,0,,,,500000,,
177,note_on,177,0,0,,5,,,77,127
177,note_on,0,0,0,,10,,,81,127
234,note_off,57,0,0,,10,,,81,127
234,note_off,0,0,0,,5,,,77,127
236,note_on,2,0,0,,4,,,76,127
236,note_on,0,0,0,,7,,,79,127
293,note_off,57,0,0,,7,,,79,127
293,note_off,0,0,0,,4,,,76,127
295,note_on,2,0,0,,5,,,77,127
295,note_on,0,0,0,,10,,,81,127
352,note_off,57,0,0,,10,,,81,127
352,note_off,0,0,0,,5,,,77,127
354,note_on,2,0,0,,4,,,76,127
354,note_on,0,0,0,,7,,,79,127
411,note_off,57,0,0,,7,,,79,127
411,note_off,0,0,0,,4,,,76,127
413,note_on,2,0,0,,5,,,77,127
413,note_on,0,0,0,,10,,,81,127
470,note_off,57,0,0,,10,,,81,127
470,note_off,0,0,0,,5,,,77,127
472,note_on,2,0,0,,4,,,76,127
472,note_on,0,0,0,,7,,,79,127
529,note_off,57,0,0,,7,,,79,127
529,note_off,0,0,0,,4,,,76,127
531,note_on,2,0,0,,5,,,77,127
531,note_on,0,0,0,,10,,,81,127
588,note_off,57,0,0,,10,,,81,127
588,note_off,0,0,0,,5,,,77,127
590,note_on,2,0,0,,4,,,76,127
590,note_on,0,0,0,,7,,,79,127
647,note_off,57,0,0,,7,,,79,127
647,note_off,0,0,0,,4,,,76,127
649,note_on,2,0,0,,5,,,77,127
649,note_on,0,0,0,,10,,,81,127
706,note_off,57,0,0,,10,,,81,127
706,note_off,0,0,0,,5,,,77,127
708,note_on,2,0,0,,4,,,76,127
708,note_on,0,0,0,,7,,,79,127
765,note_off,57,0,0,,7,,,79,127
765,note_off,0,0,0,,4,,,76,127
767,note_on,2,0,0,,2,,,74,127
767,note_on,0,0,0,,5,,,77,127
824,note_off,57,0,0,,5,,,77,127
824,note_off,0,0,0,,2,,,74,127
826,note_on,2,0,0,,4,,,76,127
826,note_on,0,0,0,,7,,,79,127
883,note_off,57,0,0,,7,,,79,127
883,note_off,0,0,0,,4,,,76,127
885,note_on,2,0,0,,0,,,72,127
885,note_on,0,0,0,,0,,,84,127
1238,note_off,353,0,0,,0,,,84,127
1238,note_off,0,0,0,,0,,,72,127
1240,note_on,2,0,0,,4,,,76,127
1240,note_on,0,0,0,,7,,,79,127
1545,note_off,305,0,0,,7,,,79,127
1545,note_off,0,0,0,,4,,,76,127
1595,note_on,50,0,0,,5,,,77,127
1595,note_on,0,0,0,,10,,,81,127
1652,note_off,57,0,0,,10,,,81,127
1652,note_off,0,0,0,,5,,,77,127
1654,note_on,2,0,0,,4,,,76,127
1654,note_on,0,0,0,,7,,,79,127
1711,note_off,57,0,0,,7,,,79,127
1711,note_off,0,0,0,,4,,,76,127
1713,note_on,2,0,0,,5,,,77,127
1713,note_on,0,0,0,,10,,,81,127
1770,note_off,57,0,0,,10,,,81,127
1770,note_off,0,0,0,,5,,,77,127
1772,note_on,2,0,0,,4,,,76,127
1772,note_on,0,0,0,,7,,,79,127
1829,note_off,57,0,0,,7,,,79,127
1829,note_off,0,0,0,,4,,,76,127
1831,note_on,2,0,0,,5,,,77,127
1831,note_on,0,0,0,,10,,,81,127
1888,note_off,57,0,0,,10,,,81,127
1888,note_off,0,0,0,,5,,,77,127
1890,note_on,2,0,0,,4,,,76,127
1890,note_on,0,0,0,,7,,,79,127
1947,note_off,57,0,0,,7,,,79,127
1947,note_off,0,0,0,,4,,,76,127
1949,note_on,2,0,0,,5,,,77,127
1949,note_on,0,0,0,,10,,,81,127
2006,note_off,57,0,0,,10,,,81,127
2006,note_off,0,0,0,,5,,,77,127
2008,note_on,2,0,0,,4,,,76,127
2008,note_on,0,0,0,,7,,,79,127
2065,note_off,57,0,0,,7,,,79,127
2065,note_off,0,0,0,,4,,,76,127
2067,note_on,2,0,0,,5,,,77,127
2067,note_on,0,0,0,,10,,,81,127
2124,note_off,57,0,0,,10,,,81,127
2124,note_off,0,0,0,,5,,,77,127
2126,note_on,2,0,0,,4,,,76,127
2126,note_on,0,0,0,,7,,,79,127
2183,note_off,57,0,0,,7,,,79,127
2183,note_off,0,0,0,,4,,,76,127
2185,note_on,2,0,0,,2,,,74,127
2185,note_on,0,0,0,,5,,,77,127
2242,note_off,57,0,0,,5,,,77,127
2242,note_off,0,0,0,,2,,,74,127
2244,note_on,2,0,0,,4,,,76,127
2244,note_on,0,0,0,,7,,,79,127
2301,note_off,57,0,0,,7,,,79,127
2301,note_off,0,0,0,,4,,,76,127
2303,note_on,2,0,0,,0,,,72,127
2303,note_on,0,0,0,,0,,,84,127
2656,note_off,353,0,0,,0,,,84,127
2656,note_off,0,0,0,,0,,,72,127
2658,note_on,2,0,0,,4,,,76,127
2658,note_on,0,0,0,,7,,,79,127
2972,note_off,314,0,0,,7,,,79,127
2972,note_off,0,0,0,,4,,,76,127
3013,note_on,41,0,0,,5,,,77,127
3013,note_on,0,0,0,,10,,,81,127
3070,note_off,57,0,0,,10,,,81,127
3070,note_off,0,0,0,,5,,,77,127
3072,note_on,2,0,0,,4,,,76,127
3072,note_on,0,0,0,,7,,,79,127
3129,note_off,57,0,0,,7,,,79,127
3129,note_off,0,0,0,,4,,,76,127
3131,note_on,2,0,0,,5,,,77,127
3131,note_on,0,0,0,,10,,,81,127
3188,note_off,57,0,0,,10,,,81,127
3188,note_off,0,0,0,,5,,,77,127
3190,note_on,2,0,0,,4,,,76,127
3190,note_on,0,0,0,,7,,,79,127
3247,note_off,57,0,0,,7,,,79,127
3247,note_off,0,0,0,,4,,,76,127
3249,note_on,2,0,0,,5,,,77,127
3249,note_on,0,0,0,,10,,,81,127
3306,note_off,57,0,0,,10,,,81,127
3306,note_off,0,0,0,,5,,,77,127
3308,note_on,2,0,0,,4,,,76,127
3308,note_on,0,0,0,,7,,,79,127
3365,note_off,57,0,0,,7,,,79,127
3365,note_off,0,0,0,,4,,,76,127
3367,note_on,2,0,0,,5,,,77,127
3367,note_on,0,0,0,,10,,,81,127
3424,note_off,57,0,0,,10,,,81,127
3424,note_off,0,0,0,,5,,,77,127
3426,note_on,2,0,0,,4,,,76,127
3426,note_on,0,0,0,,7,,,79,127
3483,note_off,57,0,0,,7,,,79,127
3483,note_off,0,0,0,,4,,,76,127
3485,note_on,2,0,0,,5,,,77,127
3485,note_on,0,0,0,,10,,,81,127
3542,note_off,57,0,0,,10,,,81,127
3542,note_off,0,0,0,,5,,,77,127
3544,note_on,2,0,0,,4,,,76,127
3544,note_on,0,0,0,,7,,,79,127
3601,note_off,57,0,0,,7,,,79,127
3601,note_off,0,0,0,,4,,,76,127
3603,note_on,2,0,0,,2,,,74,127
3603,note_on,0,0,0,,5,,,77,127
3660,note_off,57,0,0,,5,,,77,127
3660,note_off,0,0,0,,2,,,74,127
3662,note_on,2,0,0,,4,,,76,127
3662,note_on,0,0,0,,7,,,79,127
3719,note_off,57,0,0,,7,,,79,127
3719,note_off,0,0,0,,4,,,76,127
3721,note_on,2,0,0,,5,,,65,127
3721,note_on,0,0,0,,10,,,81,127
3837,note_off,116,0,0,,10,,,81,127
3839,note_on,2,0,0,,5,,,77,127
3955,note_off,116,0,0,,5,,,77,127
3957,note_on,2,0,0,,7,,,79,127
4073,note_off,116,0,0,,7,,,79,127
4073,note_off,0,0,0,,5,,,65,127
4075,note_on,2,0,0,,5,,,65,127
4075,note_on,0,0,0,,10,,,81,127
4191,note_off,116,0,0,,10,,,81,127
4193,note_on,2,0,0,,12,,,83,127
4309,note_off,116,0,0,,12,,,83,127
4311,note_on,2,0,0,,0,,,84,127
4427,note_off,116,0,0,,0,,,84,127
4427,note_off,0,0,0,,5,,,65,127
4429,note_on,2,0,0,,7,,,67,127
4429,note_on,0,0,0,,12,,,83,127
4545,note_off,116,0,0,,12,,,83,127
4547,note_on,2,0,0,,10,,,81,127
4663,note_off,116,0,0,,10,,,81,127
4665,note_on,2,0,0,,7,,,79,127
4781,note_off,116,0,0,,7,,,79,127
4781,note_off,0,0,0,,7,,,67,127
4783,note_on,2,0,0,,7,,,67,127
4783,note_on,0,0,0,,5,,,77,127
4899,note_off,116,0,0,,5,,,77,127
4901,note_on,2,0,0,,4,,,76,127
5017,note_off,116,0,0,,4,,,76,127
5019,note_on,2,0,0,,2,,,74,127
5135,note_off,116,0,0,,2,,,74,127
5135,note_off,0,0,0,,7,,,67,127
5137,note_on,2,0,0,,0,,,60,127
5137,note_on,0,0,0,,4,,,76,127
5490,note_off,353,0,0,,4,,,76,127
5492,note_on,2,0,0,,0,,,72,127
5758,note_off,266,0,0,,0,,,72,127
5876,note_on,118,0,0,,0,,,48,127
5876,note_on,0,0,0,,5,,,53,127
5876,note_on,0,0,0,,10,,,57,127
5882,note_off,6,0,0,,0,,,60,127
5946,note_on,64,0,0,,7,,,55,127
5957,note_on,11,0,0,,4,,,52,127
5963,note_off,6,0,0,,10,,,57,127
5963,note_off,0,0,0,,5,,,53,127
6018,note_on,55,0,0,,5,,,53,127
6018,note_on,0,0,0,,10,,,57,127
6033,note_off,15,0,0,,7,,,55,127
6044,note_off,11,0,0,,4,,,52,127
6088,note_on,44,0,0,,4,,,52,127
6088,note_on,0,0,0,,7,,,55,127
6105,note_off,17,0,0,,10,,,57,127
6105,note_off,0,0,0,,5,,,53,127
6160,note_on,55,0,0,,5,,,53,127
6160,note_on,0,0,0,,10,,,57,127
6175,note_off,15,0,0,,7,,,55,127
6175,note_off,0,0,0,,4,,,52,127
6230,note_on,55,0,0,,4,,,52,127
6230,note_on,0,0,0,,7,,,55,127
6247,note_off,17,0,0,,10,,,57,127
6247,note_off,0,0,0,,5,,,53,127
6301,note_on,54,0,0,,5,,,53,127
6301,note_on,0,0,0,,10,,,57,127
6318,note_off,17,0,0,,7,,,55,127
6318,note_off,0,0,0,,4,,,52,127
6373,note_on,55,0,0,,4,,,52,127
6373,note_on,0,0,0,,7,,,55,127
6388,note_off,15,0,0,,10,,,57,127
6388,note_off,0,0,0,,5,,,53,127
6443,note_on,55,0,0,,2,,,50,127
6443,note_on,0,0,0,,5,,,53,127
6460,note_off,17,0,0,,7,,,55,127
6460,note_off,0,0,0,,4,,,52,127
6515,note_on,55,0,0,,4,,,52,127
6515,note_on,0,0,0,,7,,,55,127
6530,note_off,15,0,0,,5,,,53,127
6530,note_off,0,0,0,,2,,,50,127
6578,note_off,48,0,0,,0,,,48,127
6585,note_on,7,0,0,,0,,,36,127
6585,note_on,0,0,0,,0,,,60,127
6587,note_off,2,0,0,,7,,,55,127
6587,note_off,0,0,0,,4,,,52,127
6938,note_off,351,0,0,,0,,,60,127
6938,note_off,0,0,0,,0,,,36,127
6940,note_on,2,0,0,,4,,,52,127
6940,note_on,0,0,0,,7,,,55,127
7293,note_off,353,0,0,,7,,,55,127
7293,note_off,0,0,0,,4,,,52,127
7295,note_on,2,0,0,,0,,,48,127
7295,note_on,0,0,0,,5,,,53,127
7295,note_on,0,0,0,,10,,,57,127
7365,note_on,70,0,0,,7,,,55,127
7376,note_on,11,0,0,,4,,,52,127
7382,note_off,6,0,0,,10,,,57,127
7382,note_off,0,0,0,,5,,,53,127
7437,note_on,55,0,0,,5,,,53,127
7437,note_on,0,0,0,,10,,,57,127
7452,note_off,15,0,0,,7,,,55,127
7463,note_off,11,0,0,,4,,,52,127
7507,note_on,44,0,0,,4,,,52,127
7507,note_on,0,0,0,,7,,,55,127
7524,note_off,17,0,0,,10,,,57,127
7524,note_off,0,0,0,,5,,,53,127
7579,note_on,55,0,0,,5,,,53,127
7579,note_on,0,0,0,,10,,,57,127
7594,note_off,15,0,0,,7,,,55,127
7594,note_off,0,0,0,,4,,,52,127
7649,note_on,55,0,0,,4,,,52,127
7649,note_on,0,0,0,,7,,,55,127
7666,note_off,17,0,0,,10,,,57,127
7666,note_off,0,0,0,,5,,,53,127
7720,note_on,54,0,0,,5,,,53,127
7720,note_on,0,0,0,,10,,,57,127
7737,note_off,17,0,0,,7,,,55,127
7737,note_off,0,0,0,,4,,,52,127
7792,note_on,55,0,0,,4,,,52,127
7792,note_on,0,0,0,,7,,,55,127
7807,note_off,15,0,0,,10,,,57,127
7807,note_off,0,0,0,,5,,,53,127
7862,note_on,55,0,0,,2,,,50,127
7862,note_on,0,0,0,,5,,,53,127
7879,note_off,17,0,0,,7,,,55,127
7879,note_off,0,0,0,,4,,,52,127
7934,note_on,55,0,0,,4,,,52,127
7934,note_on,0,0,0,,7,,,55,127
7949,note_off,15,0,0,,5,,,53,127
7949,note_off,0,0,0,,2,,,50,127
7997,note_off,48,0,0,,0,,,48,127
8004,note_on,7,0,0,,0,,,36,127
8004,note_on,0,0,0,,0,,,60,127
8006,note_off,2,0,0,,7,,,55,127
8006,note_off,0,0,0,,4,,,52,127
8357,note_off,351,0,0,,0,,,60,127
8357,note_off,0,0,0,,0,,,36,127
8359,note_on,2,0,0,,4,,,52,127
8359,note_on,0,0,0,,7,,,55,127
8712,note_off,353,0,0,,7,,,55,127
8712,note_off,0,0,0,,4,,,52,127
8714,note_on,2,0,0,,0,,,48,127
8714,note_on,0,0,0,,5,,,53,127
8714,note_on,0,0,0,,10,,,57,127
8784,note_on,70,0,0,,7,,,55,127
8795,note_on,11,0,0,,4,,,52,127
8801,note_off,6,0,0,,10,,,57,127
8801,note_off,0,0,0,,5,,,53,127
8856,note_on,55,0,0,,5,,,53,127
8856,note_on,0,0,0,,10,,,57,127
8871,note_off,15,0,0,,7,,,55,127
8882,note_off,11,0,0,,4,,,52,127
8926,note_on,44,0,0,,4,,,52,127
8926,note_on,0,0,0,,7,,,55,127
8943,note_off,17,0,0,,10,,,57,127
8943,note_off,0,0,0,,5,,,53,127
8998,note_on,55,0,0,,5,,,53,127
8998,note_on,0,0,0,,10,,,57,127
9013,note_off,15,0,0,,7,,,55,127
9013,note_off,0,0,0,,4,,,52,127
9068,note_on,55,0,0,,4,,,52,127
9068,note_on,0,0,0,,7,,,55,127
9085,note_off,17,0,0,,10,,,57,127
9085,note_off,0,0,0,,5,,,53,127
9139,note_on,54,0,0,,5,,,53,127
9139,note_on,0,0,0,,10,,,57,127
9156,note_off,17,0,0,,7,,,55,127
9156,note_off,0,0,0,,4,,,52,127
9211,note_on,55,0,0,,4,,,52,127
9211,note_on,0,0,0,,7,,,55,127
9226,note_off,15,0,0,,10,,,57,127
9226,note_off,0,0,0,,5,,,53,127
9281,note_on,55,0,0,,2,,,50,127
9281,note_on,0,0,0,,5,,,53,127
9298,note_off,17,0,0,,7,,,55,127
9298,note_off,0,0,0,,4,,,52,127
9353,note_on,55,0,0,,4,,,52,127
9353,note_on,0,0,0,,7,,,55,127
9368,note_off,15,0,0,,5,,,53,127
9368,note_off,0,0,0,,2,,,50,127
9416,note_off,48,0,0,,0,,,48,127
9423,note_on,7,0,0,,5,,,41,127
9423,note_on,0,0,0,,10,,,57,127
9425,note_off,2,0,0,,7,,,55,127
9425,note_off,0,0,0,,4,,,52,127
9776,note_off,351,0,0,,10,,,57,127
9776,note_off,0,0,0,,5,,,41,127
9778,note_on,2,0,0,,5,,,53,127
9778,note_on,0,0,0,,10,,,69,127
10131,note_off,353,0,0,,10,,,69,127
10131,note_off,0,0,0,,5,,,53,127
10133,note_on,2,0,0,,7,,,55,127
10133,note_on,0,0,0,,7,,,67,127
10249,note_off,116,0,0,,7,,,67,127
10251,note_on,2,0,0,,5,,,65,127
10367,note_off,116,0,0,,5,,,65,127
10369,note_on,2,0,0,,4,,,64,127
10485,note_off,116,0,0,,4,,,64,127
10487,note_on,2,0,0,,7,,,43,127
10487,note_on,0,0,0,,2,,,62,127
10603,note_off,116,0,0,,2,,,62,127
10605,note_on,2,0,0,,0,,,60,127
10721,note_off,116,0,0,,0,,,60,127
10723,note_on,2,0,0,,12,,,59,127
10834,note_off,111,0,0,,7,,,55,127
10840,note_off,6,0,0,,12,,,59,127
10840,note_off,0,0,0,,7,,,43,127
10842,note_on,2,0,0,,0,,,48,127
10842,note_on,0,0,0,,0,,,60,127
11193,note_off,351,0,0,,0,,,60,127
11396,note_off,203,0,0,,0,,,48,127
11409,note_on,13,0,0,,7,,,79,127
11584,note_off,175,0,0,,7,,,79,127
11595,note_on,11,0,0,,10,,,81,127
11595,note_on,0,0,0,,0,,,72,127
11595,note_on,0,0,0,,4,,,76,127
11652,note_off,57,0,0,,10,,,81,127
11654,note_on,2,0,0,,7,,,79,127
11711,note_off,57,0,0,,7,,,79,127
11713,note_on,2,0,0,,10,,,81,127
11770,note_off,57,0,0,,10,,,81,127
11772,note_on,2,0,0,,7,,,79,127
11829,note_off,57,0,0,,7,,,79,127
11831,note_on,2,0,0,,10,,,81,127
11888,note_off,57,0,0,,10,,,81,127
11890,note_on,2,0,0,,7,,,79,127
11947,note_off,57,0,0,,7,,,79,127
11947,note_off,0,0,0,,4,,,76,127
11947,note_off,0,0,0,,0,,,72,127
11949,note_on,2,0,0,,10,,,81,127
11949,note_on,0,0,0,,0,,,72,127
11949,note_on,0,0,0,,4,,,76,127
12006,note_off,57,0,0,,10,,,81,127
12008,note_on,2,0,0,,7,,,79,127
12065,note_off,57,0,0,,7,,,79,127
12067,note_on,2,0,0,,10,,,81,127
12124,note_off,57,0,0,,10,,,81,127
12126,note_on,2,0,0,,7,,,79,127
12183,note_off,57,0,0,,7,,,79,127
12185,note_on,2,0,0,,5,,,77,127
12242,note_off,57,0,0,,5,,,77,127
12244,note_on,2,0,0,,7,,,79,127
12301,note_off,57,0,0,,7,,,79,127
12301,note_off,0,0,0,,4,,,76,127
12301,note_off,0,0,0,,0,,,72,127
12303,note_on,2,0,0,,10,,,81,127
12303,note_on,0,0,0,,5,,,77,127
12303,note_on,0,0,0,,0,,,72,127
12419,note_off,116,0,0,,10,,,81,127
12421,note_on,2,0,0,,0,,,84,127
12537,note_off,116,0,0,,0,,,84,127
12539,note_on,2,0,0,,12,,,83,127
12655,note_off,116,0,0,,12,,,83,127
12655,note_off,0,0,0,,0,,,72,127
12655,note_off,0,0,0,,5,,,77,127
12657,note_on,2,0,0,,12,,,83,127
12657,note_on,0,0,0,,5,,,77,127
12657,note_on,0,0,0,,0,,,72,127
13010,note_off,353,0,0,,0,,,72,127
13010,note_off,0,0,0,,5,,,77,127
13012,note_on,2,0,0,,0,,,72,127
13012,note_on,0,0,0,,5,,,77,127
13128,note_off,116,0,0,,12,,,83,127
13130,note_on,2,0,0,,0,,,84,127
13246,note_off,116,0,0,,0,,,84,127
13248,note_on,2,0,0,,2,,,86,127
13364,note_off,116,0,0,,2,,,86,127
13364,note_off,0,0,0,,5,,,77,127
13364,note_off,0,0,0,,0,,,72,127
13366,note_on,2,0,0,,0,,,84,127
13366,note_on,0,0,0,,0,,,72,127
13366,note_on,0,0,0,,5,,,77,127
13482,note_off,116,0,0,,0,,,84,127
13484,note_on,2,0,0,,12,,,83,127
13600,note_off,116,0,0,,12,,,83,127
13602,note_on,2,0,0,,10,,,81,127
13718,note_off,116,0,0,,10,,,81,127
13718,note_off,0,0,0,,5,,,77,127
13718,note_off,0,0,0,,0,,,72,127
13720,note_on,2,0,0,,7,,,79,127
13720,note_on,0,0,0,,4,,,76,127
13720,note_on,0,0,0,,0,,,72,127
13836,note_off,116,0,0,,7,,,79,127
13838,note_on,2,0,0,,4,,,88,127
13954,note_off,116,0,0,,4,,,88,127
13956,note_on,2,0,0,,2,,,86,127
14072,note_off,116,0,0,,2,,,86,127
14072,note_off,0,0,0,,0,,,72,127
14072,note_off,0,0,0,,4,,,76,127
14074,note_on,2,0,0,,0,,,84,127
14074,note_on,0,0,0,,0,,,72,127
14074,note_on,0,0,0,,4,,,76,127
14190,note_off,116,0,0,,0,,,84,127
14192,note_on,2,0,0,,12,,,83,127
14308,note_off,116,0,0,,12,,,83,127
14310,note_on,2,0,0,,10,,,81,127
14426,note_off,116,0,0,,10,,,81,127
14426,note_off,0,0,0,,4,,,76,127
14426,note_off,0,0,0,,0,,,72,127
14428,note_on,2,0,0,,10,,,81,127
14428,note_on,0,0,0,,4,,,76,127
14428,note_on,0,0,0,,0,,,72,127
14485,note_off,57,0,0,,10,,,81,127
14487,note_on,2,0,0,,7,,,79,127
14544,note_off,57,0,0,,7,,,79,127
14546,note_on,2,0,0,,10,,,81,127
14603,note_off,57,0,0,,10,,,81,127
14605,note_on,2,0,0,,7,,,79,127
14662,note_off,57,0,0,,7,,,79,127
14664,note_on,2,0,0,,10,,,81,127
14721,note_off,57,0,0,,10,,,81,127
14723,note_on,2,0,0,,7,,,79,127
14780,note_off,57,0,0,,7,,,79,127
14780,note_off,0,0,0,,0,,,72,127
14780,note_off,0,0,0,,4,,,76,127
14782,note_on,2,0,0,,10,,,81,127
14782,note_on,0,0,0,,0,,,72,127
14782,note_on,0,0,0,,4,,,76,127
14839,note_off,57,0,0,,10,,,81,127
14841,note_on,2,0,0,,7,,,79,127
14898,note_off,57,0,0,,7,,,79,127
14900,note_on,2,0,0,,10,,,81,127
14957,note_off,57,0,0,,10,,,81,127
14959,note_on,2,0,0,,7,,,79,127
15016,note_off,57,0,0,,7,,,79,127
15018,note_on,2,0,0,,5,,,77,127
15075,note_off,57,0,0,,5,,,77,127
15077,note_on,2,0,0,,7,,,79,127
15134,note_off,57,0,0,,7,,,79,127
15134,note_off,0,0,0,,4,,,76,127
15134,note_off,0,0,0,,0,,,72,127
15136,note_on,2,0,0,,10,,,81,127
15136,note_on,0,0,0,,0,,,72,127
15136,note_on,0,0,0,,5,,,77,127
15252,note_off,116,0,0,,10,,,81,127
15254,note_on,2,0,0,,0,,,84,127
15370,note_off,116,0,0,,0,,,84,127
15372,note_on,2,0,0,,12,,,83,127
15488,note_off,116,0,0,,12,,,83,127
15488,note_off,0,0,0,,5,,,77,127
15488,note_off,0,0,0,,0,,,72,127
15490,note_on,2,0,0,,12,,,83,127
15490,note_on,0,0,0,,0,,,72,127
15490,note_on,0,0,0,,5,,,77,127
15843,note_off,353,0,0,,5,,,77,127
15843,note_off,0,0,0,,0,,,72,127
15845,note_on,2,0,0,,0,,,72,127
15845,note_on,0,0,0,,5,,,77,127
15961,note_off,116,0,0,,12,,,83,127
15963,note_on,2,0,0,,0,,,84,127
16079,note_off,116,0,0,,0,,,84,127
16081,note_on,2,0,0,,2,,,86,127
16197,note_off,116,0,0,,2,,,86,127
16197,note_off,0,0,0,,5,,,77,127
16197,note_off,0,0,0,,0,,,72,127
16199,note_on,2,0,0,,0,,,84,127
16199,note_on,0,0,0,,5,,,77,127
16199,note_on,0,0,0,,0,,,72,127
16315,note_off,116,0,0,,0,,,84,127
16317,note_on,2,0,0,,12,,,83,127
16433,note_off,116,0,0,,12,,,83,127
16435,note_on,2,0,0,,10,,,81,127
16551,note_off,116,0,0,,10,,,81,127
16551,note_off,0,0,0,,0,,,72,127
16551,note_off,0,0,0,,5,,,77,127
16553,note_on,2,0,0,,7,,,79,127
16553,note_on,0,0,0,,4,,,76,127
16553,note_on,0,0,0,,0,,,72,127
17001,note_on,448,0,0,,7,,,55,127
17107,note_off,106,0,0,,0,,,72,127
17107,note_off,0,0,0,,4,,,76,127
17107,note_off,0,0,0,,7,,,79,127
17259,note_off,152,0,0,,7,,,55,127
17277,note_on,18,0,0,,0,,,48,127
17277,note_on,0,0,0,,5,,,53,127
17277,note_on,0,0,0,,10,,,57,127
17347,note_on,70,0,0,,7,,,55,127
17358,note_on,11,0,0,,4,,,52,127
17364,note_off,6,0,0,,10,,,57,127
17364,note_off,0,0,0,,5,,,53,127
17419,note_on,55,0,0,,5,,,53,127
17419,note_on,0,0,0,,10,,,57,127
17434,note_off,15,0,0,,7,,,55,127
17445,note_off,11,0,0,,4,,,52,127
17489,note_on,44,0,0,,4,,,52,127
17489,note_on,0,0,0,,7,,,55,127
17506,note_off,17,0,0,,10,,,57,127
17506,note_off,0,0,0,,5,,,53,127
17561,note_on,55,0,0,,5,,,53,127
17561,note_on,0,0,0,,10,,,57,127
17576,note_off,15,0,0,,7,,,55,127
17576,note_off,0,0,0,,4,,,52,127
17631,note_on,55,0,0,,4,,,52,127
17631,note_on,0,0,0,,7,,,55,127
17648,note_off,17,0,0,,10,,,57,127
17648,note_off,0,0,0,,5,,,53,127
17702,note_on,54,0,0,,5,,,53,127
17702,note_on,0,0,0,,10,,,57,127
17719,note_off,17,0,0,,7,,,55,127
17719,note_off,0,0,0,,4,,,52,127
17774,note_on,55,0,0,,4,,,52,127
17774,note_on,0,0,0,,7,,,55,127
17789,note_off,15,0,0,,10,,,57,127
17789,note_off,0,0,0,,5,,,53,127
17844,note_on,55,0,0,,2,,,50,127
17844,note_on,0,0,0,,5,,,53,127
17861,note_off,17,0,0,,7,,,55,127
17861,note_off,0,0,0,,4,,,52,127
17916,note_on,55,0,0,,4,,,52,127
17916,note_on,0,0,0,,7,,,55,127
17931,note_off,15,0,0,,5,,,53,127
17931,note_off,0,0,0,,2,,,50,127
17979,note_off,48,0,0,,0,,,48,127
17986,note_on,7,0,0,,0,,,36,127
17986,note_on,0,0,0,,10,,,57,127
17988,note_off,2,0,0,,7,,,55,127
17988,note_off,0,0,0,,4,,,52,127
18102,note_off,114,0,0,,10,,,57,127
18104,note_on,2,0,0,,0,,,60,127
18220,note_off,116,0,0,,0,,,60,127
18222,note_on,2,0,0,,12,,,59,127
18338,note_off,116,0,0,,12,,,59,127
18338,note_off,0,0,0,,0,,,36,127
18340,note_on,2,0,0,,0,,,48,127
18340,note_on,0,0,0,,5,,,53,127
18340,note_on,0,0,0,,12,,,59,127
18693,note_off,353,0,0,,5,,,53,127
18693,note_off,0,0,0,,0,,,48,127
18695,note_on,2,0,0,,0,,,48,127
18695,note_on,0,0,0,,5,,,53,127
18811,note_off,116,0,0,,12,,,59,127
18813,note_on,2,0,0,,0,,,60,127
18929,note_off,116,0,0,,0,,,60,127
18931,note_on,2,0,0,,2,,,62,127
19047,note_off,116,0,0,,2,,,62,127
19047,note_off,0,0,0,,5,,,53,127
19047,note_off,0,0,0,,0,,,48,127
19049,note_on,2,0,0,,0,,,48,127
19049,note_on,0,0,0,,5,,,53,127
19049,note_on,0,0,0,,0,,,60,127
19165,note_off,116,0,0,,0,,,60,127
19167,note_on,2,0,0,,12,,,59,127
19283,note_off,116,0,0,,12,,,59,127
19285,note_on,2,0,0,,10,,,57,127
19401,note_off,116,0,0,,10,,,57,127
19401,note_off,0,0,0,,5,,,53,127
19401,note_off,0,0,0,,0,,,48,127
19403,note_on,2,0,0,,0,,,36,127
19403,note_on,0,0,0,,7,,,55,127
19519,note_off,116,0,0,,7,,,55,127
19521,note_on,2,0,0,,4,,,64,127
19637,note_off,116,0,0,,4,,,64,127
19639,note_on,2,0,0,,2,,,62,127
19755,note_off,116,0,0,,2,,,62,127
19755,note_off,0,0,0,,0,,,36,127
19757,note_on,2,0,0,,4,,,52,127
19757,note_on,0,0,0,,0,,,48,127
19757,note_on,0,0,0,,0,,,60,127
19873,note_off,116,0,0,,0,,,60,127
19875,note_on,2,0,0,,12,,,59,127
19991,note_off,116,0,0,,12,,,59,127
19993,note_on,2,0,0,,10,,,57,127
20109,note_off,116,0,0,,10,,,57,127
20109,note_off,0,0,0,,0,,,48,127
20109,note_off,0,0,0,,4,,,52,127
20111,note_on,2,0,0,,0,,,48,127
20111,note_on,0,0,0,,5,,,53,127
20111,note_on,0,0,0,,10,,,57,127
20181,note_on,70,0,0,,7,,,55,127
20192,note_on,11,0,0,,4,,,52,127
20198,note_off,6,0,0,,10,,,57,127
20198,note_off,0,0,0,,5,,,53,127
20253,note_on,55,0,0,,5,,,53,127
20253,note_on,0,0,0,,10,,,57,127
20268,note_off,15,0,0,,7,,,55,127
20279,note_off,11,0,0,,4,,,52,127
20323,note_on,44,0,0,,4,,,52,127
20323,note_on,0,0,0,,7,,,55,127
20340,note_off,17,0,0,,10,,,57,127
20340,note_off,0,0,0,,5,,,53,127
20395,note_on,55,0,0,,5,,,53,127
20395,note_on,0,0,0,,10,,,57,127
20410,note_off,15,0,0,,7,,,55,127
20410,note_off,0,0,0,,4,,,52,127
20465,note_on,55,0,0,,4,,,52,127
20465,note_on,0,0,0,,7,,,55,127
20482,note_off,17,0,0,,10,,,57,127
20482,note_off,0,0,0,,5,,,53,127
20536,note_on,54,0,0,,5,,,53,127
20536,note_on,0,0,0,,10,,,57,127
20553,note_off,17,0,0,,7,,,55,127
20553,note_off,0,0,0,,4,,,52,127
20608,note_on,55,0,0,,4,,,52,127
20608,note_on,0,0,0,,7,,,55,127
20623,note_off,15,0,0,,10,,,57,127
20623,note_off,0,0,0,,5,,,53,127
20678,note_on,55,0,0,,2,,,50,127
20678,note_on,0,0,0,,5,,,53,127
20695,note_off,17,0,0,,7,,,55,127
20695,note_off,0,0,0,,4,,,52,127
20750,note_on,55,0,0,,4,,,52,127
20750,note_on,0,0,0,,7,,,55,127
20765,note_off,15,0,0,,5,,,53,127
20765,note_off,0,0,0,,2,,,50,127
20813,note_off,48,0,0,,0,,,48,127
20820,note_on,7,0,0,,0,,,36,127
20820,note_on,0,0,0,,10,,,57,127
20822,note_off,2,0,0,,7,,,55,127
20822,note_off,0,0,0,,4,,,52,127
20936,note_off,114,0,0,,10,,,57,127
20938,note_on,2,0,0,,0,,,60,127
21054,note_off,116,0,0,,0,,,60,127
21056,note_on,2,0,0,,12,,,59,127
21172,note_off,116,0,0,,12,,,59,127
21172,note_off,0,0,0,,0,,,36,127
21174,note_on,2,0,0,,5,,,53,127
21174,note_on,0,0,0,,0,,,48,127
21174,note_on,0,0,0,,12,,,59,127
21527,note_off,353,0,0,,0,,,48,127
21527,note_off,0,0,0,,5,,,53,127
21529,note_on,2,0,0,,0,,,48,127
21529,note_on,0,0,0,,5,,,53,127
21645,note_off,116,0,0,,12,,,59,127
21647,note_on,2,0,0,,0,,,60,127
21763,note_off,116,0,0,,0,,,60,127
21765,note_on,2,0,0,,2,,,62,127
21881,note_off,116,0,0,,2,,,62,127
21881,note_off,0,0,0,,5,,,53,127
21881,note_off,0,0,0,,0,,,48,127
21883,note_on,2,0,0,,0,,,48,127
21883,note_on,0,0,0,,5,,,53,127
21883,note_on,0,0,0,,0,,,60,127
21999,note_off,116,0,0,,0,,,60,127
22001,note_on,2,0,0,,12,,,59,127
22117,note_off,116,0,0,,12,,,59,127
22119,note_on,2,0,0,,10,,,57,127
22235,note_off,116,0,0,,10,,,57,127
22235,note_off,0,0,0,,5,,,53,127
22235,note_off,0,0,0,,0,,,48,127
22237,note_on,2,0,0,,0,,,36,127
22237,note_on,0,0,0,,7,,,55,127
22643,note_off,406,0,0,,0,,,36,127
22961,note_on,318,0,0,,4,,,76,127
22961,note_on,0,0,0,,0,,,72,127
22994,note_off,33,0,0,,7,,,55,127
23079,note_on,85,0,0,,5,,,77,127
23195,note_off,116,0,0,,5,,,77,127
23197,note_on,2,0,0,,7,,,79,127
23313,note_off,116,0,0,,7,,,79,127
23313,note_off,0,0,0,,0,,,72,127
23313,note_off,0,0,0,,4,,,76,127
23315,note_on,2,0,0,,7,,,79,127
23315,note_on,0,0,0,,4,,,76,127
23315,note_on,0,0,0,,0,,,72,127
23668,note_off,353,0,0,,0,,,72,127
23668,note_off,0,0,0,,4,,,76,127
23668,note_off,0,0,0,,7,,,79,127
23670,note_on,2,0,0,,10,,,81,127
23670,note_on,0,0,0,,2,,,74,127
23670,note_on,0,0,0,,12,,,71,127
23786,note_off,116,0,0,,10,,,81,127
23788,note_on,2,0,0,,7,,,79,127
23904,note_off,116,0,0,,7,,,79,127
23906,note_on,2,0,0,,5,,,77,127
24022,note_off,116,0,0,,5,,,77,127
24022,note_off,0,0,0,,12,,,71,127
24022,note_off,0,0,0,,2,,,74,127
24024,note_on,2,0,0,,2,,,86,127
24024,note_on,0,0,0,,12,,,71,127
24024,note_on,0,0,0,,2,,,74,127
24377,note_off,353,0,0,,2,,,74,127
24377,note_off,0,0,0,,12,,,71,127
24379,note_on,2,0,0,,4,,,76,127
24379,note_on,0,0,0,,0,,,72,127
24732,note_off,353,0,0,,0,,,72,127
24732,note_off,0,0,0,,4,,,76,127
24732,note_off,0,0,0,,2,,,86,127
24734,note_on,2,0,0,,0,,,84,127
24734,note_on,0,0,0,,2,,,86,127
24734,note_on,0,0,0,,4,,,76,127
24734,note_on,0,0,0,,0,,,72,127
24850,note_off,116,0,0,,2,,,86,127
24850,note_off,0,0,0,,0,,,84,127
24852,note_on,2,0,0,,12,,,83,127
24968,note_off,116,0,0,,12,,,83,127
24970,note_on,2,0,0,,0,,,84,127
25086,note_off,116,0,0,,0,,,84,127
25086,note_off,0,0,0,,0,,,72,127
25086,note_off,0,0,0,,4,,,76,127
25088,note_on,2,0,0,,7,,,91,127
25088,note_on,0,0,0,,2,,,74,127
25088,note_on,0,0,0,,7,,,67,127
25204,note_off,116,0,0,,7,,,91,127
25206,note_on,2,0,0,,2,,,86,127
25322,note_off,116,0,0,,2,,,86,127
25324,note_on,2,0,0,,12,,,83,127
25440,note_off,116,0,0,,12,,,83,127
25440,note_off,0,0,0,,7,,,67,127
25440,note_off,0,0,0,,2,,,74,127
25442,note_on,2,0,0,,7,,,79,127
25442,note_on,0,0,0,,7,,,67,127
25442,note_on,0,0,0,,2,,,74,127
25784,note_off,342,0,0,,2,,,74,127
25784,note_off,0,0,0,,7,,,67,127
25795,note_off,11,0,0,,7,,,79,127
25797,note_on,2,0,0,,4,,,76,127
25797,note_on,0,0,0,,0,,,72,127
25915,note_on,118,0,0,,5,,,77,127
26031,note_off,116,0,0,,5,,,77,127
26033,note_on,2,0,0,,7,,,79,127
26149,note_off,116,0,0,,7,,,79,127
26149,note_off,0,0,0,,0,,,72,127
26149,note_off,0,0,0,,4,,,76,127
26151,note_on,2,0,0,,7,,,79,127
26151,note_on,0,0,0,,0,,,72,127
26151,note_on,0,0,0,,4,,,76,127
26504,note_off,353,0,0,,4,,,76,127
26504,note_off,0,0,0,,0,,,72,127
26504,note_off,0,0,0,,7,,,79,127
26506,note_on,2,0,0,,10,,,81,127
26506,note_on,0,0,0,,2,,,74,127
26506,note_on,0,0,0,,12,,,71,127
26622,note_off,116,0,0,,10,,,81,127
26624,note_on,2,0,0,,7,,,79,127
26740,note_off,116,0,0,,7,,,79,127
26742,note_on,2,0,0,,5,,,77,127
26858,note_off,116,0,0,,5,,,77,127
26858,note_off,0,0,0,,12,,,71,127
26858,note_off,0,0,0,,2,,,74,127
26860,note_on,2,0,0,,2,,,86,127
26860,note_on,0,0,0,,12,,,71,127
26860,note_on,0,0,0,,2,,,74,127
27213,note_off,353,0,0,,2,,,74,127
27213,note_off,0,0,0,,12,,,71,127
27215,note_on,2,0,0,,4,,,76,127
27215,note_on,0,0,0,,0,,,72,127
27568,note_off,353,0,0,,0,,,72,127
27568,note_off,0,0,0,,4,,,76,127
27568,note_off,0,0,0,,2,,,86,127
27570,note_on,2,0,0,,2,,,86,127
27570,note_on,0,0,0,,0,,,84,127
27570,note_on,0,0,0,,4,,,76,127
27570,note_on,0,0,0,,0,,,72,127
27686,note_off,116,0,0,,0,,,84,127
27686,note_off,0,0,0,,2,,,86,127
27688,note_on,2,0,0,,12,,,83,127
27804,note_off,116,0,0,,12,,,83,127
27806,note_on,2,0,0,,0,,,84,127
27922,note_off,116,0,0,,0,,,84,127
27922,note_off,0,0,0,,0,,,72,127
27922,note_off,0,0,0,,4,,,76,127
27924,note_on,2,0,0,,7,,,91,127
27924,note_on,0,0,0,,2,,,74,127
27924,note_on,0,0,0,,7,,,67,127
28042,note_on,118,0,0,,2,,,86,127
28158,note_off,116,0,0,,2,,,86,127
28160,note_on,2,0,0,,12,,,83,127
28274,note_off,114,0,0,,7,,,67,127
28274,note_off,0,0,0,,2,,,74,127
28274,note_off,0,0,0,,7,,,91,127
28276,note_off,2,0,0,,12,,,83,127
28278,note_on,2,0,0,,7,,,79,127
28396,note_on,118,0,0,,2,,,74,127
28512,note_off,116,0,0,,2,,,74,127
28514,note_on,2,0,0,,12,,,71,127
28628,note_off,114,0,0,,7,,,79,127
28630,note_off,2,0,0,,12,,,71,127
28632,note_on,2,0,0,,7,,,67,127
28750,note_on,118,0,0,,2,,,62,127
28866,note_off,116,0,0,,2,,,62,127
28868,note_on,2,0,0,,12,,,59,127
28982,note_off,114,0,0,,7,,,67,127
28984,note_off,2,0,0,,12,,,59,127
28986,note_on,2,0,0,,7,,,55,127
29104,note_on,118,0,0,,2,,,50,127
29220,note_off,116,0,0,,2,,,50,127
29222,note_on,2,0,0,,12,,,47,127
29336,note_off,114,0,0,,7,,,55,127
29338,note_off,2,0,0,,12,,,47,127
29340,note_on,2,0,0,,7,,,43,127
29882,note_on,542,0,0,,2,,,62,127
29894,note_off,12,0,0,,7,,,43,127
30057,note_off,163,0,0,,2,,,62,127
30078,note_on,21,0,0,,4,,,64,127
30078,note_on,0,0,0,,0,,,60,127
30078,note_on,0,0,0,,7,,,55,127
30148,note_on,70,0,0,,2,,,62,127
30159,note_on,11,0,0,,12,,,59,127
30165,note_off,6,0,0,,0,,,60,127
30165,note_off,0,0,0,,4,,,64,127
30220,note_on,55,0,0,,4,,,64,127
30220,note_on,0,0,0,,0,,,60,127
30235,note_off,15,0,0,,2,,,62,127
30246,note_off,11,0,0,,12,,,59,127
30290,note_on,44,0,0,,2,,,62,127
30290,note_on,0,0,0,,12,,,59,127
30307,note_off,17,0,0,,0,,,60,127
30307,note_off,0,0,0,,4,,,64,127
30362,note_on,55,0,0,,4,,,64,127
30362,note_on,0,0,0,,0,,,60,127
30377,note_off,15,0,0,,12,,,59,127
30377,note_off,0,0,0,,2,,,62,127
30432,note_on,55,0,0,,2,,,62,127
30432,note_on,0,0,0,,12,,,59,127
30449,note_off,17,0,0,,0,,,60,127
30449,note_off,0,0,0,,4,,,64,127
30503,note_on,54,0,0,,4,,,64,127
30503,note_on,0,0,0,,0,,,60,127
30520,note_off,17,0,0,,12,,,59,127
30520,note_off,0,0,0,,2,,,62,127
30575,note_on,55,0,0,,2,,,62,127
30575,note_on,0,0,0,,12,,,59,127
30590,note_off,15,0,0,,0,,,60,127
30590,note_off,0,0,0,,4,,,64,127
30645,note_on,55,0,0,,0,,,60,127
30645,note_on,0,0,0,,10,,,57,127
30662,note_off,17,0,0,,12,,,59,127
30662,note_off,0,0,0,,2,,,62,127
30717,note_on,55,0,0,,2,,,62,127
30717,note_on,0,0,0,,12,,,59,127
30732,note_off,15,0,0,,10,,,57,127
30732,note_off,0,0,0,,0,,,60,127
30780,note_off,48,0,0,,7,,,55,127
30787,note_on,7,0,0,,4,,,64,127
30787,note_on,0,0,0,,7,,,43,127
30789,note_off,2,0,0,,12,,,59,127
30789,note_off,0,0,0,,2,,,62,127
30903,note_off,114,0,0,,4,,,64,127
30905,note_on,2,0,0,,7,,,67,127
31021,note_off,116,0,0,,7,,,67,127
31023,note_on,2,0,0,,6,,,66,127
31139,note_off,116,0,0,,6,,,66,127
31139,note_off,0,0,0,,7,,,43,127
31141,note_on,2,0,0,,6,,,66,127
31141,note_on,0,0,0,,0,,,60,127
31141,note_on,0,0,0,,7,,,55,127
31494,note_off,353,0,0,,7,,,55,127
31494,note_off,0,0,0,,0,,,60,127
31496,note_on,2,0,0,,0,,,60,127
31496,note_on,0,0,0,,7,,,55,127
31612,note_off,116,0,0,,6,,,66,127
31614,note_on,2,0,0,,7,,,67,127
31730,note_off,116,0,0,,7,,,67,127
31732,note_on,2,0,0,,10,,,69,127
31848,note_off,116,0,0,,10,,,69,127
31848,note_off,0,0,0,,7,,,55,127
31848,note_off,0,0,0,,0,,,60,127
31850,note_on,2,0,0,,7,,,67,127
31850,note_on,0,0,0,,0,,,60,127
31850,note_on,0,0,0,,7,,,55,127
31966,note_off,116,0,0,,7,,,67,127
31968,note_on,2,0,0,,6,,,66,127
32084,note_off,116,0,0,,6,,,66,127
32086,note_on,2,0,0,,4,,,64,127
32202,note_off,116,0,0,,4,,,64,127
32202,note_off,0,0,0,,7,,,55,127
32202,note_off,0,0,0,,0,,,60,127
32204,note_on,2,0,0,,2,,,62,127
32204,note_on,0,0,0,,7,,,43,127
32320,note_off,116,0,0,,2,,,62,127
32322,note_on,2,0,0,,12,,,71,127
32438,note_off,116,0,0,,12,,,71,127
32440,note_on,2,0,0,,10,,,69,127
32556,note_off,116,0,0,,10,,,69,127
32556,note_off,0,0,0,,7,,,43,127
32558,note_on,2,0,0,,7,,,67,127
32558,note_on,0,0,0,,12,,,59,127
32558,note_on,0,0,0,,7,,,55,127
32674,note_off,116,0,0,,7,,,67,127
32676,note_on,2,0,0,,6,,,66,127
32792,note_off,116,0,0,,6,,,66,127
32794,note_on,2,0,0,,4,,,64,127
32910,note_off,116,0,0,,4,,,64,127
32910,note_off,0,0,0,,7,,,55,127
32910,note_off,0,0,0,,12,,,59,127
32912,note_on,2,0,0,,4,,,64,127
32912,note_on,0,0,0,,12,,,59,127
32912,note_on,0,0,0,,7,,,55,127
32982,note_on,70,0,0,,2,,,62,127
32999,note_off,17,0,0,,4,,,64,127
33054,note_on,55,0,0,,4,,,64,127
33069,note_off,15,0,0,,2,,,62,127
33124,note_on,55,0,0,,2,,,62,127
33141,note_off,17,0,0,,4,,,64,127
33196,note_on,55,0,0,,4,,,64,127
33211,note_off,15,0,0,,2,,,62,127
33265,note_off,54,0,0,,7,,,55,127
33265,note_off,0,0,0,,12,,,59,127
33267,note_on,2,0,0,,2,,,62,127
33267,note_on,0,0,0,,7,,,55,127
33267,note_on,0,0,0,,12,,,59,127
33284,note_off,17,0,0,,4,,,64,127
33338,note_on,54,0,0,,4,,,64,127
33355,note_off,17,0,0,,2,,,62,127
33410,note_on,55,0,0,,2,,,62,127
33425,note_off,15,0,0,,4,,,64,127
33480,note_on,55,0,0,,0,,,60,127
33497,note_off,17,0,0,,2,,,62,127
33552,note_on,55,0,0,,2,,,62,127
33567,note_off,15,0,0,,0,,,60,127
33621,note_off,54,0,0,,12,,,59,127
33621,note_off,0,0,0,,7,,,55,127
33623,note_on,2,0,0,,4,,,64,127
33623,note_on,0,0,0,,7,,,43,127
33625,note_off,2,0,0,,2,,,62,127
33739,note_off,114,0,0,,4,,,64,127
33741,note_on,2,0,0,,7,,,67,127
33857,note_off,116,0,0,,7,,,67,127
33859,note_on,2,0,0,,6,,,66,127
33975,note_off,116,0,0,,6,,,66,127
33975,note_off,0,0,0,,7,,,43,127
33977,note_on,2,0,0,,6,,,66,127
33977,note_on,0,0,0,,0,,,60,127
33977,note_on,0,0,0,,7,,,55,127
34330,note_off,353,0,0,,7,,,55,127
34330,note_off,0,0,0,,0,,,60,127
34332,note_on,2,0,0,,0,,,60,127
34332,note_on,0,0,0,,7,,,55,127
34448,note_off,116,0,0,,6,,,66,127
34450,note_on,2,0,0,,7,,,67,127
34566,note_off,116,0,0,,7,,,67,127
34568,note_on,2,0,0,,10,,,69,127
34684,note_off,116,0,0,,10,,,69,127
34684,note_off,0,0,0,,7,,,55,127
34684,note_off,0,0,0,,0,,,60,127
34686,note_on,2,0,0,,7,,,67,127
34686,note_on,0,0,0,,0,,,60,127
34686,note_on,0,0,0,,7,,,55,127
34802,note_off,116,0,0,,7,,,67,127
34804,note_on,2,0,0,,6,,,66,127
34920,note_off,116,0,0,,6,,,66,127
34922,note_on,2,0,0,,4,,,64,127
35038,note_off,116,0,0,,4,,,64,127
35038,note_off,0,0,0,,7,,,55,127
35038,note_off,0,0,0,,0,,,60,127
35045,note_on,7,0,0,,7,,,43,127
35045,note_on,0,0,0,,2,,,62,127
35479,note_off,434,0,0,,2,,,62,127
35483,note_on,4,0,0,,12,,,83,127
35599,note_off,116,0,0,,7,,,43,127
35835,note_off,236,0,0,,12,,,83,127
35837,note_on,2,0,0,,0,,,84,127
35894,note_off,57,0,0,,0,,,84,127
35896,note_on,2,0,0,,12,,,83,127
35953,note_off,57,0,0,,12,,,83,127
35955,note_on,2,0,0,,0,,,84,127
36012,note_off,57,0,0,,0,,,84,127
36014,note_on,2,0,0,,12,,,83,127
36071,note_off,57,0,0,,12,,,83,127
36073,note_on,2,0,0,,0,,,84,127
36130,note_off,57,0,0,,0,,,84,127
36132,note_on,2,0,0,,12,,,83,127
36189,note_off,57,0,0,,12,,,83,127
36191,note_on,2,0,0,,0,,,84,127
36191,note_on,0,0,0,,7,,,79,127
36248,note_off,57,0,0,,0,,,84,127
36250,note_on,2,0,0,,12,,,83,127
36307,note_off,57,0,0,,12,,,83,127
36309,note_on,2,0,0,,0,,,84,127
36366,note_off,57,0,0,,0,,,84,127
36368,note_on,2,0,0,,12,,,83,127
36425,note_off,57,0,0,,12,,,83,127
36427,note_on,2,0,0,,10,,,81,127
36484,note_off,57,0,0,,10,,,81,127
36486,note_on,2,0,0,,12,,,83,127
36543,note_off,57,0,0,,12,,,83,127
36545,note_on,2,0,0,,7,,,91,127
36898,note_off,353,0,0,,7,,,91,127
36898,note_off,0,0,0,,7,,,79,127
36915,note_on,17,0,0,,7,,,79,127
36915,note_on,0,0,0,,12,,,83,127
37268,note_off,353,0,0,,12,,,83,127
37268,note_off,0,0,0,,7,,,79,127
37270,note_on,2,0,0,,7,,,79,127
37270,note_on,0,0,0,,0,,,84,127
37327,note_off,57,0,0,,0,,,84,127
37329,note_on,2,0,0,,12,,,83,127
37386,note_off,57,0,0,,12,,,83,127
37388,note_on,2,0,0,,0,,,84,127
37445,note_off,57,0,0,,0,,,84,127
37447,note_on,2,0,0,,12,,,83,127
37504,note_off,57,0,0,,12,,,83,127
37506,note_on,2,0,0,,0,,,84,127
37563,note_off,57,0,0,,0,,,84,127
37565,note_on,2,0,0,,12,,,83,127
37622,note_off,57,0,0,,12,,,83,127
37622,note_off,0,0,0,,7,,,79,127
37624,note_on,2,0,0,,7,,,79,127
37624,note_on,0,0,0,,0,,,84,127
37681,note_off,57,0,0,,0,,,84,127
37683,note_on,2,0,0,,12,,,83,127
37740,note_off,57,0,0,,12,,,83,127
37742,note_on,2,0,0,,0,,,84,127
37799,note_off,57,0,0,,0,,,84,127
37801,note_on,2,0,0,,12,,,83,127
37858,note_off,57,0,0,,12,,,83,127
37860,note_on,2,0,0,,10,,,81,127
37917,note_off,57,0,0,,10,,,81,127
37919,note_on,2,0,0,,12,,,83,127
37976,note_off,57,0,0,,12,,,83,127
37978,note_on,2,0,0,,7,,,91,127
38331,note_off,353,0,0,,7,,,91,127
38338,note_off,7,0,0,,7,,,79,127
38347,note_on,9,0,0,,7,,,79,127
38347,note_on,0,0,0,,4,,,76,127
38700,note_off,353,0,0,,4,,,76,127
38700,note_off,0,0,0,,7,,,79,127
38702,note_on,2,0,0,,10,,,81,127
38702,note_on,0,0,0,,4,,,76,127
38759,note_off,57,0,0,,10,,,81,127
38761,note_on,2,0,0,,7,,,79,127
38818,note_off,57,0,0,,7,,,79,127
38820,note_on,2,0,0,,10,,,81,127
38877,note_off,57,0,0,,10,,,81,127
38879,note_on,2,0,0,,7,,,79,127
38936,note_off,57,0,0,,7,,,79,127
38938,note_on,2,0,0,,10,,,81,127
38995,note_off,57,0,0,,10,,,81,127
38997,note_on,2,0,0,,7,,,79,127
39054,note_off,57,0,0,,7,,,79,127
39054,note_off,0,0,0,,4,,,76,127
39056,note_on,2,0,0,,10,,,81,127
39056,note_on,0,0,0,,4,,,76,127
39113,note_off,57,0,0,,10,,,81,127
39115,note_on,2,0,0,,7,,,79,127
39172,note_off,57,0,0,,7,,,79,127
39174,note_on,2,0,0,,10,,,81,127
39231,note_off,57,0,0,,10,,,81,127
39233,note_on,2,0,0,,7,,,79,127
39290,note_off,57,0,0,,7,,,79,127
39292,note_on,2,0,0,,6,,,78,127
39349,note_off,57,0,0,,6,,,78,127
39351,note_on,2,0,0,,7,,,79,127
39408,note_off,57,0,0,,7,,,79,127
39425,note_on,17,0,0,,10,,,81,127
39763,note_off,338,0,0,,4,,,76,127
39780,note_on,17,0,0,,4,,,76,127
39780,note_on,0,0,0,,0,,,72,127
40014,note_off,234,0,0,,10,,,81,127
40016,note_on,2,0,0,,12,,,83,127
40132,note_off,116,0,0,,12,,,83,127
40132,note_off,0,0,0,,0,,,72,127
40132,note_off,0,0,0,,4,,,76,127
40134,note_on,2,0,0,,0,,,72,127
40134,note_on,0,0,0,,4,,,76,127
40134,note_on,0,0,0,,0,,,84,127
40487,note_off,353,0,0,,0,,,84,127
40487,note_off,0,0,0,,4,,,76,127
40487,note_off,0,0,0,,0,,,72,127
40489,note_on,2,0,0,,4,,,76,127
40489,note_on,0,0,0,,0,,,72,127
40489,note_on,0,0,0,,12,,,83,127
40605,note_off,116,0,0,,12,,,83,127
40607,note_on,2,0,0,,10,,,81,127
40723,note_off,116,0,0,,10,,,81,127
40725,note_on,2,0,0,,7,,,79,127
40841,note_off,116,0,0,,7,,,79,127
40841,note_off,0,0,0,,0,,,72,127
40841,note_off,0,0,0,,4,,,76,127
40843,note_on,2,0,0,,2,,,74,127
40843,note_on,0,0,0,,0,,,72,127
40843,note_on,0,0,0,,6,,,78,127
40959,note_off,116,0,0,,6,,,78,127
40961,note_on,2,0,0,,7,,,79,127
41077,note_off,116,0,0,,7,,,79,127
41079,note_on,2,0,0,,10,,,81,127
41195,note_off,116,0,0,,10,,,81,127
41195,note_off,0,0,0,,0,,,72,127
41195,note_off,0,0,0,,2,,,74,127
41197,note_on,2,0,0,,2,,,74,127
41197,note_on,0,0,0,,12,,,71,127
41197,note_on,0,0,0,,12,,,83,127
41313,note_off,116,0,0,,12,,,83,127
41315,note_on,2,0,0,,0,,,84,127
41431,note_off,116,0,0,,0,,,84,127
41433,note_on,2,0,0,,2,,,86,127
41549,note_off,116,0,0,,2,,,86,127
41549,note_off,0,0,0,,12,,,71,127
41549,note_off,0,0,0,,2,,,74,127
41551,note_on,2,0,0,,0,,,72,127
41551,note_on,0,0,0,,10,,,69,127
41551,note_on,0,0,0,,4,,,88,127
41667,note_off,116,0,0,,4,,,88,127
41669,note_on,2,0,0,,6,,,90,127
41785,note_off,116,0,0,,6,,,90,127
41787,note_on,2,0,0,,7,,,91,127
41903,note_off,116,0,0,,7,,,91,127
41903,note_off,0,0,0,,10,,,69,127
41903,note_off,0,0,0,,0,,,72,127
41905,note_on,2,0,0,,4,,,76,127
41905,note_on,0,0,0,,7,,,67,127
41905,note_on,0,0,0,,4,,,88,127
42021,note_off,116,0,0,,4,,,88,127
42023,note_on,2,0,0,,2,,,86,127
42139,note_off,116,0,0,,2,,,86,127
42141,note_on,2,0,0,,0,,,84,127
42257,note_off,116,0,0,,7,,,67,127
42257,note_off,0,0,0,,4,,,76,127
42259,note_on,2,0,0,,2,,,74,127
42259,note_on,0,0,0,,0,,,72,127
42259,note_on,0,0,0,,6,,,66,127
42375,note_off,116,0,0,,0,,,84,127
42377,note_on,2,0,0,,4,,,88,127
42493,note_off,116,0,0,,4,,,88,127
42495,note_on,2,0,0,,2,,,86,127
42611,note_off,116,0,0,,2,,,86,127
42611,note_off,0,0,0,,6,,,66,127
42611,note_off,0,0,0,,0,,,72,127
42611,note_off,0,0,0,,2,,,74,127
42613,note_on,2,0,0,,0,,,72,127
42613,note_on,0,0,0,,7,,,67,127
42613,note_on,0,0,0,,4,,,76,127
42613,note_on,0,0,0,,0,,,84,127
42613,note_on,0,0,0,,2,,,86,127
42729,note_off,116,0,0,,2,,,86,127
42729,note_off,0,0,0,,0,,,84,127
42731,note_on,2,0,0,,12,,,83,127
42847,note_off,116,0,0,,12,,,83,127
42849,note_on,2,0,0,,0,,,84,127
42965,note_off,116,0,0,,4,,,76,127
42965,note_off,0,0,0,,7,,,67,127
42965,note_off,0,0,0,,0,,,72,127
42967,note_on,2,0,0,,0,,,72,127
42967,note_on,0,0,0,,6,,,66,127
42967,note_on,0,0,0,,2,,,74,127
43083,note_off,116,0,0,,0,,,84,127
43085,note_on,2,0,0,,4,,,88,127
43201,note_off,116,0,0,,4,,,88,127
43203,note_on,2,0,0,,2,,,86,127
43319,note_off,116,0,0,,2,,,86,127
43319,note_off,0,0,0,,2,,,74,127
43319,note_off,0,0,0,,6,,,66,127
43319,note_off,0,0,0,,0,,,72,127
43321,note_on,2,0,0,,4,,,76,127
43321,note_on,0,0,0,,0,,,72,127
43321,note_on,0,0,0,,7,,,67,127
43321,note_on,0,0,0,,0,,,84,127
43334,note_on,13,0,0,,2,,,86,127
43437,note_off,103,0,0,,0,,,84,127
43439,note_on,2,0,0,,12,,,83,127
43450,note_off,11,0,0,,2,,,86,127
43555,note_off,105,0,0,,12,,,83,127
43557,note_on,2,0,0,,0,,,84,127
43673,note_off,116,0,0,,7,,,67,127
43673,note_off,0,0,0,,0,,,72,127
43673,note_off,0,0,0,,4,,,76,127
43675,note_on,2,0,0,,0,,,72,127
43675,note_on,0,0,0,,6,,,66,127
43675,note_on,0,0,0,,2,,,74,127
43791,note_off,116,0,0,,0,,,84,127
43793,note_on,2,0,0,,2,,,86,127
43909,note_off,116,0,0,,2,,,86,127
43911,note_on,2,0,0,,0,,,84,127
44027,note_off,116,0,0,,0,,,84,127
44027,note_off,0,0,0,,2,,,74,127
44027,note_off,0,0,0,,6,,,66,127
44027,note_off,0,0,0,,0,,,72,127
44029,note_on,2,0,0,,2,,,74,127
44029,note_on,0,0,0,,7,,,67,127
44029,note_on,0,0,0,,12,,,83,127
44145,note_off,116,0,0,,12,,,83,127
44147,note_on,2,0,0,,10,,,81,127
44263,note_off,116,0,0,,10,,,81,127
44265,note_on,2,0,0,,7,,,79,127
44381,note_off,116,0,0,,7,,,79,127
44381,note_off,0,0,0,,7,,,67,127
44381,note_off,0,0,0,,2,,,74,127
44383,note_on,2,0,0,,2,,,62,127
44383,note_on,0,0,0,,2,,,86,127
44501,note_on,118,0,0,,10,,,81,127
44617,note_off,116,0,0,,10,,,81,127
44619,note_on,2,0,0,,6,,,78,127
44733,note_off,114,0,0,,2,,,86,127
44733,note_off,0,0,0,,2,,,62,127
44735,note_off,2,0,0,,6,,,78,127
44737,note_on,2,0,0,,2,,,74,127
44855,note_on,118,0,0,,10,,,69,127
44971,note_off,116,0,0,,10,,,69,127
44973,note_on,2,0,0,,6,,,66,127
45087,note_off,114,0,0,,2,,,74,127
45089,note_off,2,0,0,,6,,,66,127
45091,note_on,2,0,0,,2,,,62,127
45209,note_on,118,0,0,,10,,,57,127
45325,note_off,116,0,0,,10,,,57,127
45327,note_on,2,0,0,,6,,,54,127
45441,note_off,114,0,0,,2,,,62,127
45443,note_off,2,0,0,,6,,,54,127
45445,note_on,2,0,0,,2,,,50,127
45563,note_on,118,0,0,,10,,,45,127
45679,note_off,116,0,0,,10,,,45,127
45681,note_on,2,0,0,,6,,,42,127
45795,note_off,114,0,0,,2,,,50,127
45797,note_off,2,0,0,,6,,,42,127
45809,note_on,12,0,0,,2,,,38,127
46212,note_on,403,0,0,,2,,,62,127
46212,note_on,0,0,0,,10,,,69,127
46252,note_off,40,0,0,,2,,,38,127
46329,note_off,77,0,0,,10,,,69,127
46331,note_on,2,0,0,,8,,,68,127
46447,note_off,116,0,0,,8,,,68,127
46449,note_on,2,0,0,,10,,,69,127
46565,note_off,116,0,0,,2,,,62,127
46567,note_on,2,0,0,,0,,,60,127
46567,note_on,0,0,0,,4,,,64,127
46683,note_off,116,0,0,,10,,,69,127
46685,note_on,2,0,0,,8,,,68,127
46801,note_off,116,0,0,,8,,,68,127
46803,note_on,2,0,0,,10,,,69,127
46919,note_off,116,0,0,,4,,,64,127
46919,note_off,0,0,0,,0,,,60,127
46921,note_on,2,0,0,,5,,,65,127
46921,note_on,0,0,0,,2,,,62,127
47037,note_off,116,0,0,,10,,,69,127
47039,note_on,2,0,0,,8,,,68,127
47155,note_off,116,0,0,,8,,,68,127
47157,note_on,2,0,0,,10,,,69,127
47273,note_off,116,0,0,,2,,,62,127
47273,note_off,0,0,0,,5,,,65,127
47275,note_on,2,0,0,,0,,,60,127
47275,note_on,0,0,0,,4,,,64,127
47391,note_off,116,0,0,,10,,,69,127
47393,note_on,2,0,0,,12,,,71,127
47509,note_off,116,0,0,,12,,,71,127
47511,note_on,2,0,0,,0,,,72,127
47627,note_off,116,0,0,,0,,,72,127
47627,note_off,0,0,0,,4,,,64,127
47627,note_off,0,0,0,,0,,,60,127
47629,note_on,2,0,0,,12,,,59,127
47629,note_on,0,0,0,,2,,,62,127
47629,note_on,0,0,0,,2,,,74,127
47745,note_off,116,0,0,,2,,,74,127
47747,note_on,2,0,0,,0,,,72,127
47863,note_off,116,0,0,,0,,,72,127
47865,note_on,2,0,0,,12,,,71,127
47981,note_off,116,0,0,,12,,,71,127
47981,note_off,0,0,0,,2,,,62,127
47981,note_off,0,0,0,,12,,,59,127
47983,note_on,2,0,0,,10,,,57,127
47983,note_on,0,0,0,,4,,,64,127
47983,note_on,0,0,0,,0,,,72,127
48099,note_off,116,0,0,,0,,,72,127
48101,note_on,2,0,0,,12,,,71,127
48217,note_off,116,0,0,,12,,,71,127
48219,note_on,2,0,0,,10,,,69,127
48335,note_off,116,0,0,,4,,,64,127
48335,note_off,0,0,0,,10,,,57,127
48366,note_on,31,0,0,,12,,,83,127
48366,note_on,0,0,0,,5,,,77,127
48366,note_on,0,0,0,,2,,,74,127
48366,note_on,0,0,0,,10,,,81,127
48455,note_off,89,0,0,,10,,,69,127
48483,note_off,28,0,0,,10,,,81,127
48483,note_off,0,0,0,,12,,,83,127
48485,note_on,2,0,0,,8,,,80,127
48601,note_off,116,0,0,,8,,,80,127
48603,note_on,2,0,0,,10,,,81,127
48719,note_off,116,0,0,,2,,,74,127
48719,note_off,0,0,0,,5,,,77,127
48721,note_on,2,0,0,,4,,,76,127
48721,note_on,0,0,0,,0,,,72,127
48837,note_off,116,0,0,,10,,,81,127
48839,note_on,2,0,0,,12,,,83,127
48955,note_off,116,0,0,,12,,,83,127
48957,note_on,2,0,0,,0,,,84,127
49073,note_off,116,0,0,,0,,,84,127
49073,note_off,0,0,0,,0,,,72,127
49073,note_off,0,0,0,,4,,,76,127
49075,note_on,2,0,0,,2,,,74,127
49075,note_on,0,0,0,,12,,,71,127
49075,note_on,0,0,0,,2,,,86,127
49191,note_off,116,0,0,,2,,,86,127
49193,note_on,2,0,0,,0,,,84,127
49309,note_off,116,0,0,,0,,,84,127
49311,note_on,2,0,0,,12,,,83,127
49427,note_off,116,0,0,,12,,,83,127
49427,note_off,0,0,0,,12,,,71,127
49427,note_off,0,0,0,,2,,,74,127
49429,note_on,2,0,0,,10,,,69,127
49429,note_on,0,0,0,,4,,,76,127
49429,note_on,0,0,0,,0,,,84,127
49545,note_off,116,0,0,,0,,,84,127
49547,note_on,2,0,0,,12,,,83,127
49663,note_off,116,0,0,,12,,,83,127
49670,note_on,7,0,0,,10,,,81,127
49797,note_off,127,0,0,,10,,,69,127
49805,note_off,8,0,0,,4,,,76,127
49806,note_off,1,0,0,,10,,,81,127
49812,note_on,6,0,0,,2,,,50,127
49812,note_on,0,0,0,,2,,,38,127
49812,note_on,0,0,0,,5,,,65,127
49929,note_off,117,0,0,,5,,,65,127
49931,note_on,2,0,0,,2,,,62,127
50047,note_off,116,0,0,,2,,,62,127
50049,note_on,2,0,0,,10,,,57,127
50165,note_off,116,0,0,,10,,,57,127
50165,note_off,0,0,0,,2,,,38,127
50165,note_off,0,0,0,,2,,,50,127
50167,note_on,2,0,0,,4,,,40,127
50167,note_on,0,0,0,,4,,,52,127
50167,note_on,0,0,0,,8,,,56,127
50283,note_off,116,0,0,,8,,,56,127
50285,note_on,2,0,0,,12,,,59,127
50401,note_off,116,0,0,,12,,,59,127
50403,note_on,2,0,0,,4,,,64,127
50519,note_off,116,0,0,,4,,,64,127
50519,note_off,0,0,0,,4,,,52,127
50519,note_off,0,0,0,,4,,,40,127
50521,note_on,2,0,0,,5,,,41,127
50521,note_on,0,0,0,,5,,,53,127
50521,note_on,0,0,0,,2,,,62,127
50637,note_off,116,0,0,,2,,,62,127
50639,note_on,2,0,0,,0,,,60,127
50755,note_off,116,0,0,,0,,,60,127
50757,note_on,2,0,0,,2,,,62,127
50873,note_off,116,0,0,,2,,,62,127
50873,note_off,0,0,0,,5,,,53,127
50873,note_off,0,0,0,,5,,,41,127
50875,note_on,2,0,0,,4,,,40,127
50875,note_on,0,0,0,,4,,,52,127
50875,note_on,0,0,0,,4,,,64,127
50991,note_off,116,0,0,,4,,,64,127
50993,note_on,2,0,0,,2,,,62,127
51109,note_off,116,0,0,,2,,,62,127
51111,note_on,2,0,0,,4,,,64,127
51227,note_off,116,0,0,,4,,,64,127
51227,note_off,0,0,0,,4,,,52,127
51227,note_off,0,0,0,,4,,,40,127
51229,note_on,2,0,0,,2,,,50,127
51229,note_on,0,0,0,,2,,,38,127
51229,note_on,0,0,0,,5,,,65,127
51345,note_off,116,0,0,,5,,,65,127
51347,note_on,2,0,0,,2,,,62,127
51463,note_off,116,0,0,,2,,,62,127
51465,note_on,2,0,0,,10,,,57,127
51581,note_off,116,0,0,,10,,,57,127
51581,note_off,0,0,0,,2,,,38,127
51581,note_off,0,0,0,,2,,,50,127
51583,note_on,2,0,0,,4,,,40,127
51583,note_on,0,0,0,,4,,,52,127
51583,note_on,0,0,0,,8,,,56,127
51699,note_off,116,0,0,,8,,,56,127
51701,note_on,2,0,0,,12,,,59,127
51817,note_off,116,0,0,,12,,,59,127
51819,note_on,2,0,0,,4,,,64,127
51935,note_off,116,0,0,,4,,,64,127
51935,note_off,0,0,0,,4,,,52,127
51935,note_off,0,0,0,,4,,,40,127
51937,note_on,2,0,0,,5,,,41,127
51937,note_on,0,0,0,,5,,,53,127
51937,note_on,0,0,0,,2,,,62,127
52053,note_off,116,0,0,,2,,,62,127
52055,note_on,2,0,0,,0,,,60,127
52171,note_off,116,0,0,,0,,,60,127
52174,note_on,3,0,0,,2,,,62,127
52289,note_off,115,0,0,,5,,,53,127
52289,note_off,0,0,0,,5,,,41,127
52293,note_off,4,0,0,,2,,,62,127
52295,note_on,2,0,0,,4,,,40,127
52295,note_on,0,0,0,,4,,,52,127
52295,note_on,0,0,0,,4,,,64,127
52686,note_off,391,0,0,,4,,,64,127
52690,note_on,4,0,0,,12,,,83,127
52827,note_off,137,0,0,,4,,,40,127
52997,note_off,170,0,0,,4,,,52,127
53043,note_off,46,0,0,,12,,,83,127
53045,note_on,2,0,0,,0,,,84,127
53102,note_off,57,0,0,,0,,,84,127
53104,note_on,2,0,0,,12,,,83,127
53161,note_off,57,0,0,,12,,,83,127
53163,note_on,2,0,0,,0,,,84,127
53220,note_off,57,0,0,,0,,,84,127
53222,note_on,2,0,0,,12,,,83,127
53279,note_off,57,0,0,,12,,,83,127
53281,note_on,2,0,0,,0,,,84,127
53338,note_off,57,0,0,,0,,,84,127
53340,note_on,2,0,0,,12,,,83,127
53397,note_off,57,0,0,,12,,,83,127
53399,note_on,2,0,0,,0,,,84,127
53399,note_on,0,0,0,,4,,,76,127
53456,note_off,57,0,0,,0,,,84,127
53458,note_on,2,0,0,,12,,,83,127
53515,note_off,57,0,0,,12,,,83,127
53517,note_on,2,0,0,,0,,,84,127
53574,note_off,57,0,0,,0,,,84,127
53576,note_on,2,0,0,,12,,,83,127
53633,note_off,57,0,0,,12,,,83,127
53635,note_on,2,0,0,,0,,,84,127
53692,note_off,57,0,0,,0,,,84,127
53694,note_on,2,0,0,,2,,,86,127
53751,note_off,57,0,0,,2,,,86,127
53751,note_off,0,0,0,,4,,,76,127
53753,note_on,2,0,0,,12,,,83,127
53753,note_on,0,0,0,,2,,,74,127
53753,note_on,0,0,0,,5,,,77,127
53869,note_off,116,0,0,,12,,,83,127
53871,note_on,2,0,0,,10,,,81,127
53987,note_off,116,0,0,,10,,,81,127
53989,note_on,2,0,0,,8,,,80,127
54105,note_off,116,0,0,,8,,,80,127
54105,note_off,0,0,0,,5,,,77,127
54105,note_off,0,0,0,,2,,,74,127
54107,note_on,2,0,0,,2,,,86,127
54107,note_on,0,0,0,,2,,,74,127
54107,note_on,0,0,0,,5,,,77,127
54223,note_off,116,0,0,,2,,,86,127
54225,note_on,2,0,0,,0,,,84,127
54341,note_off,116,0,0,,0,,,84,127
54343,note_on,2,0,0,,12,,,83,127
54459,note_off,116,0,0,,12,,,83,127
54459,note_off,0,0,0,,5,,,77,127
54459,note_off,0,0,0,,2,,,74,127
54461,note_on,2,0,0,,5,,,89,127
54461,note_on,0,0,0,,2,,,74,127
54461,note_on,0,0,0,,5,,,77,127
54577,note_off,116,0,0,,5,,,89,127
54579,note_on,2,0,0,,4,,,88,127
54695,note_off,116,0,0,,4,,,88,127
54697,note_on,2,0,0,,2,,,86,127
54813,note_off,116,0,0,,2,,,86,127
54813,note_off,0,0,0,,5,,,77,127
54813,note_off,0,0,0,,2,,,74,127
54815,note_on,2,0,0,,2,,,86,127
54815,note_on,0,0,0,,2,,,74,127
54815,note_on,0,0,0,,5,,,77,127
54931,note_off,116,0,0,,2,,,86,127
54933,note_on,2,0,0,,0,,,84,127
55049,note_off,116,0,0,,0,,,84,127
55051,note_on,2,0,0,,12,,,83,127
55167,note_off,116,0,0,,12,,,83,127
55167,note_off,0,0,0,,5,,,77,127
55167,note_off,0,0,0,,2,,,74,127
55169,note_on,2,0,0,,10,,,81,127
55169,note_on,0,0,0,,0,,,72,127
55169,note_on,0,0,0,,4,,,76,127
55522,note_off,353,0,0,,10,,,81,127
55539,note_on,17,0,0,,10,,,69,127
55892,note_off,353,0,0,,10,,,69,127
55894,note_on,2,0,0,,12,,,71,127
55951,note_off,57,0,0,,12,,,71,127
55953,note_on,2,0,0,,10,,,69,127
56010,note_off,57,0,0,,10,,,69,127
56012,note_on,2,0,0,,12,,,71,127
56069,note_off,57,0,0,,12,,,71,127
56071,note_on,2,0,0,,10,,,69,127
56128,note_off,57,0,0,,10,,,69,127
56130,note_on,2,0,0,,12,,,71,127
56187,note_off,57,0,0,,12,,,71,127
56189,note_on,2,0,0,,10,,,69,127
56231,note_off,42,0,0,,4,,,76,127
56231,note_off,0,0,0,,0,,,72,127
56246,note_off,15,0,0,,10,,,69,127
56248,note_on,2,0,0,,0,,,60,127
56248,note_on,0,0,0,,4,,,64,127
56248,note_on,0,0,0,,12,,,71,127
56305,note_off,57,0,0,,12,,,71,127
56307,note_on,2,0,0,,10,,,69,127
56364,note_off,57,0,0,,10,,,69,127
56366,note_on,2,0,0,,12,,,71,127
56423,note_off,57,0,0,,12,,,71,127
56425,note_on,2,0,0,,10,,,69,127
56482,note_off,57,0,0,,10,,,69,127
56484,note_on,2,0,0,,12,,,71,127
56541,note_off,57,0,0,,12,,,71,127
56543,note_on,2,0,0,,0,,,72,127
56600,note_off,57,0,0,,0,,,72,127
56600,note_off,0,0,0,,4,,,64,127
56600,note_off,0,0,0,,0,,,60,127
56602,note_on,2,0,0,,0,,,60,127
56602,note_on,0,0,0,,4,,,64,127
56602,note_on,0,0,0,,10,,,69,127
56718,note_off,116,0,0,,10,,,69,127
56720,note_on,2,0,0,,7,,,67,127
56836,note_off,116,0,0,,7,,,67,127
56838,note_on,2,0,0,,6,,,66,127
56954,note_off,116,0,0,,6,,,66,127
56954,note_off,0,0,0,,4,,,64,127
56954,note_off,0,0,0,,0,,,60,127
56956,note_on,2,0,0,,4,,,64,127
56956,note_on,0,0,0,,0,,,60,127
56956,note_on,0,0,0,,0,,,72,127
57072,note_off,116,0,0,,0,,,72,127
57074,note_on,2,0,0,,12,,,71,127
57190,note_off,116,0,0,,12,,,71,127
57192,note_on,2,0,0,,10,,,69,127
57308,note_off,116,0,0,,10,,,69,127
57308,note_off,0,0,0,,0,,,60,127
57308,note_off,0,0,0,,4,,,64,127
57310,note_on,2,0,0,,0,,,60,127
57310,note_on,0,0,0,,4,,,64,127
57310,note_on,0,0,0,,4,,,76,127
57426,note_off,116,0,0,,4,,,76,127
57428,note_on,2,0,0,,2,,,74,127
57544,note_off,116,0,0,,2,,,74,127
57546,note_on,2,0,0,,0,,,72,127
57662,note_off,116,0,0,,0,,,72,127
57662,note_off,0,0,0,,4,,,64,127
57662,note_off,0,0,0,,0,,,60,127
57664,note_on,2,0,0,,0,,,60,127
57664,note_on,0,0,0,,4,,,64,127
57664,note_on,0,0,0,,0,,,72,127
57780,note_off,116,0,0,,0,,,72,127
57782,note_on,2,0,0,,12,,,71,127
57898,note_off,116,0,0,,12,,,71,127
57900,note_on,2,0,0,,10,,,69,127
58016,note_off,116,0,0,,10,,,69,127
58016,note_off,0,0,0,,4,,,64,127
58016,note_off,0,0,0,,0,,,60,127
58018,note_on,2,0,0,,12,,,59,127
58018,note_on,0,0,0,,2,,,62,127
58018,note_on,0,0,0,,7,,,67,127
58371,note_off,353,0,0,,7,,,67,127
58417,note_on,46,0,0,,7,,,55,127
58720,note_off,303,0,0,,2,,,62,127
58720,note_off,0,0,0,,12,,,59,127
58770,note_off,50,0,0,,7,,,55,127
58772,note_on,2,0,0,,10,,,57,127
58842,note_on,70,0,0,,7,,,55,127
58859,note_off,17,0,0,,10,,,57,127
58914,note_on,55,0,0,,10,,,57,127
58929,note_off,15,0,0,,7,,,55,127
58984,note_on,55,0,0,,7,,,55,127
59001,note_off,17,0,0,,10,,,57,127
59056,note_on,55,0,0,,10,,,57,127
59071,note_off,15,0,0,,7,,,55,127
59126,note_on,55,0,0,,7,,,55,127
59126,note_on,0,0,0,,12,,,47,127
59143,note_off,17,0,0,,10,,,57,127
59197,note_on,54,0,0,,10,,,57,127
59214,note_off,17,0,0,,7,,,55,127
59269,note_on,55,0,0,,7,,,55,127
59284,note_off,15,0,0,,10,,,57,127
59332,note_on,48,0,0,,6,,,54,127
59356,note_off,24,0,0,,7,,,55,127
59403,note_on,47,0,0,,7,,,55,127
59419,note_off,16,0,0,,6,,,54,127
59469,note_off,50,0,0,,7,,,55,127
59480,note_off,11,0,0,,12,,,47,127
59482,note_on,2,0,0,,7,,,55,127
59482,note_on,0,0,0,,0,,,48,127
59598,note_off,116,0,0,,7,,,55,127
59600,note_on,2,0,0,,10,,,57,127
59716,note_off,116,0,0,,10,,,57,127
59718,note_on,2,0,0,,12,,,59,127
59834,note_off,116,0,0,,12,,,59,127
59834,note_off,0,0,0,,0,,,48,127
59836,note_on,2,0,0,,12,,,59,127
59836,note_on,0,0,0,,12,,,47,127
59952,note_off,116,0,0,,12,,,59,127
59954,note_on,2,0,0,,0,,,60,127
60070,note_off,116,0,0,,0,,,60,127
60072,note_on,2,0,0,,2,,,62,127
60188,note_off,116,0,0,,2,,,62,127
60188,note_off,0,0,0,,12,,,47,127
60190,note_on,2,0,0,,2,,,62,127
60190,note_on,0,0,0,,10,,,45,127
60260,note_on,70,0,0,,0,,,60,127
60277,note_off,17,0,0,,2,,,62,127
60332,note_on,55,0,0,,2,,,62,127
60347,note_off,15,0,0,,0,,,60,127
60402,note_on,55,0,0,,0,,,60,127
60419,note_off,17,0,0,,2,,,62,127
60474,note_on,55,0,0,,2,,,62,127
60489,note_off,15,0,0,,0,,,60,127
60543,note_off,54,0,0,,10,,,45,127
60545,note_on,2,0,0,,0,,,60,127
60545,note_on,0,0,0,,2,,,50,127
60562,note_off,17,0,0,,2,,,62,127
60616,note_on,54,0,0,,2,,,62,127
60633,note_off,17,0,0,,0,,,60,127
60688,note_on,55,0,0,,0,,,60,127
60703,note_off,15,0,0,,2,,,62,127
60758,note_on,55,0,0,,12,,,59,127
60775,note_off,17,0,0,,0,,,60,127
60830,note_on,55,0,0,,0,,,60,127
60845,note_off,15,0,0,,12,,,59,127
60899,note_off,54,0,0,,2,,,50,127
60901,note_on,2,0,0,,12,,,59,127
60901,note_on,0,0,0,,7,,,43,127
60903,note_off,2,0,0,,0,,,60,127
61017,note_off,114,0,0,,12,,,59,127
61019,note_on,2,0,0,,7,,,55,127
61135,note_off,116,0,0,,7,,,55,127
61137,note_on,2,0,0,,10,,,57,127
61253,note_off,116,0,0,,10,,,57,127
61253,note_off,0,0,0,,7,,,43,127
61255,note_on,2,0,0,,12,,,59,127
61255,note_on,0,0,0,,12,,,35,127
61255,note_on,0,0,0,,12,,,47,127
61371,note_off,116,0,0,,12,,,59,127
61373,note_on,2,0,0,,0,,,60,127
61489,note_off,116,0,0,,0,,,60,127
61491,note_on,2,0,0,,2,,,62,127
61607,note_off,116,0,0,,2,,,62,127
61607,note_off,0,0,0,,12,,,47,127
61607,note_off,0,0,0,,12,,,35,127
61609,note_on,2,0,0,,2,,,62,127
61609,note_on,0,0,0,,10,,,33,127
61609,note_on,0,0,0,,10,,,45,127
61679,note_on,70,0,0,,0,,,60,127
61696,note_off,17,0,0,,2,,,62,127
61751,note_on,55,0,0,,2,,,62,127
61766,note_off,15,0,0,,0,,,60,127
61821,note_on,55,0,0,,0,,,60,127
61838,note_off,17,0,0,,2,,,62,127
61893,note_on,55,0,0,,2,,,62,127
61908,note_off,15,0,0,,0,,,60,127
61962,note_off,54,0,0,,10,,,45,127
61962,note_off,0,0,0,,10,,,33,127
61964,note_on,2,0,0,,0,,,60,127
61964,note_on,0,0,0,,2,,,38,127
61964,note_on,0,0,0,,2,,,50,127
61981,note_off,17,0,0,,2,,,62,127
62035,note_on,54,0,0,,2,,,62,127
62052,note_off,17,0,0,,0,,,60,127
62107,note_on,55,0,0,,0,,,60,127
62122,note_off,15,0,0,,2,,,62,127
62177,note_on,55,0,0,,12,,,59,127
62194,note_off,17,0,0,,0,,,60,127
62249,note_on,55,0,0,,0,,,60,127
62264,note_off,15,0,0,,12,,,59,127
62318,note_off,54,0,0,,2,,,50,127
62318,note_off,0,0,0,,2,,,38,127
62322,note_off,4,0,0,,0,,,60,127
62328,note_on,6,0,0,,7,,,31,127
62328,note_on,0,0,0,,12,,,59,127
62328,note_on,0,0,0,,7,,,43,127
62697,note_off,369,0,0,,12,,,59,127
62749,note_on,52,0,0,,12,,,83,127
62860,note_off,111,0,0,,7,,,31,127
63030,note_off,170,0,0,,7,,,43,127
63102,note_off,72,0,0,,12,,,83,127
63104,note_on,2,0,0,,0,,,84,127
63161,note_off,57,0,0,,0,,,84,127
63163,note_on,2,0,0,,12,,,83,127
63220,note_off,57,0,0,,12,,,83,127
63222,note_on,2,0,0,,0,,,84,127
63279,note_off,57,0,0,,0,,,84,127
63281,note_on,2,0,0,,12,,,83,127
63338,note_off,57,0,0,,12,,,83,127
63340,note_on,2,0,0,,0,,,84,127
63397,note_off,57,0,0,,0,,,84,127
63399,note_on,2,0,0,,12,,,83,127
63456,note_off,57,0,0,,12,,,83,127
63458,note_on,2,0,0,,2,,,74,127
63458,note_on,0,0,0,,7,,,67,127
63458,note_on,0,0,0,,0,,,84,127
63515,note_off,57,0,0,,0,,,84,127
63517,note_on,2,0,0,,12,,,83,127
63574,note_off,57,0,0,,12,,,83,127
63576,note_on,2,0,0,,0,,,84,127
63633,note_off,57,0,0,,0,,,84,127
63635,note_on,2,0,0,,12,,,83,127
63692,note_off,57,0,0,,12,,,83,127
63694,note_on,2,0,0,,10,,,81,127
63751,note_off,57,0,0,,10,,,81,127
63753,note_on,2,0,0,,12,,,83,127
63810,note_off,57,0,0,,12,,,83,127
63810,note_off,0,0,0,,7,,,67,127
63810,note_off,0,0,0,,2,,,74,127
63812,note_on,2,0,0,,0,,,72,127
63812,note_on,0,0,0,,4,,,76,127
63812,note_on,0,0,0,,3,,,87,127
63928,note_off,116,0,0,,3,,,87,127
63930,note_on,2,0,0,,4,,,88,127
64046,note_off,116,0,0,,4,,,88,127
64048,note_on,2,0,0,,12,,,83,127
64164,note_off,116,0,0,,12,,,83,127
64164,note_off,0,0,0,,4,,,76,127
64164,note_off,0,0,0,,0,,,72,127
64166,note_on,2,0,0,,4,,,76,127
64166,note_on,0,0,0,,0,,,72,127
64166,note_on,0,0,0,,12,,,83,127
64282,note_off,116,0,0,,12,,,83,127
64284,note_on,2,0,0,,0,,,84,127
64400,note_off,116,0,0,,0,,,84,127
64402,note_on,2,0,0,,8,,,80,127
64518,note_off,116,0,0,,8,,,80,127
64518,note_off,0,0,0,,0,,,72,127
64518,note_off,0,0,0,,4,,,76,127
64520,note_on,2,0,0,,4,,,76,127
64520,note_on,0,0,0,,0,,,72,127
64520,note_on,0,0,0,,10,,,81,127
64636,note_off,116,0,0,,10,,,81,127
64638,note_on,2,0,0,,12,,,83,127
64754,note_off,116,0,0,,12,,,83,127
64756,note_on,2,0,0,,0,,,84,127
64872,note_off,116,0,0,,0,,,84,127
64872,note_off,0,0,0,,0,,,72,127
64872,note_off,0,0,0,,4,,,76,127
64874,note_on,2,0,0,,0,,,72,127
64874,note_on,0,0,0,,4,,,76,127
64874,note_on,0,0,0,,2,,,86,127
64874,note_on,0,0,0,,0,,,84,127
64990,note_off,116,0,0,,0,,,84,127
64990,note_off,0,0,0,,2,,,86,127
64992,note_on,2,0,0,,12,,,83,127
65108,note_off,116,0,0,,12,,,83,127
65110,note_on,2,0,0,,0,,,84,127
65226,note_off,116,0,0,,0,,,84,127
65226,note_off,0,0,0,,4,,,76,127
65226,note_off,0,0,0,,0,,,72,127
65228,note_on,2,0,0,,12,,,71,127
65228,note_on,0,0,0,,2,,,74,127
65228,note_on,0,0,0,,1,,,85,127
65344,note_off,116,0,0,,1,,,85,127
65346,note_on,2,0,0,,2,,,86,127
65462,note_off,116,0,0,,2,,,86,127
65464,note_on,2,0,0,,10,,,81,127
65580,note_off,116,0,0,,10,,,81,127
65580,note_off,0,0,0,,2,,,74,127
65580,note_off,0,0,0,,12,,,71,127
65582,note_on,2,0,0,,12,,,71,127
65582,note_on,0,0,0,,2,,,74,127
65582,note_on,0,0,0,,10,,,81,127
65698,note_off,116,0,0,,10,,,81,127
65700,note_on,2,0,0,,12,,,83,127
65816,note_off,116,0,0,,12,,,83,127
65818,note_on,2,0,0,,6,,,78,127
65934,note_off,116,0,0,,6,,,78,127
65934,note_off,0,0,0,,2,,,74,127
65934,note_off,0,0,0,,12,,,71,127
65936,note_on,2,0,0,,12,,,71,127
65936,note_on,0,0,0,,2,,,74,127
65936,note_on,0,0,0,,7,,,79,127
66054,note_on,118,0,0,,7,,,91,127
66168,note_off,114,0,0,,7,,,79,127
66170,note_off,2,0,0,,7,,,91,127
66172,note_on,2,0,0,,6,,,90,127
66288,note_off,116,0,0,,6,,,90,127
66288,note_off,0,0,0,,2,,,74,127
66288,note_off,0,0,0,,12,,,71,127
66290,note_on,2,0,0,,2,,,74,127
66290,note_on,0,0,0,,12,,,71,127
66290,note_on,0,0,0,,6,,,90,127
66406,note_off,116,0,0,,6,,,90,127
66408,note_on,2,0,0,,4,,,88,127
66524,note_off,116,0,0,,4,,,88,127
66526,note_on,2,0,0,,2,,,86,127
66642,note_off,116,0,0,,12,,,71,127
66642,note_off,0,0,0,,2,,,74,127
66644,note_on,2,0,0,,0,,,72,127
66644,note_on,0,0,0,,4,,,76,127
66729,note_off,85,0,0,,2,,,86,127
66762,note_on,33,0,0,,4,,,88,127
66878,note_off,116,0,0,,4,,,88,127
66880,note_on,2,0,0,,2,,,86,127
66996,note_off,116,0,0,,2,,,86,127
66996,note_off,0,0,0,,4,,,76,127
66996,note_off,0,0,0,,0,,,72,127
66998,note_on,2,0,0,,0,,,72,127
66998,note_on,0,0,0,,4,,,76,127
66998,note_on,0,0,0,,2,,,86,127
67114,note_off,116,0,0,,2,,,86,127
67116,note_on,2,0,0,,0,,,84,127
67232,note_off,116,0,0,,0,,,84,127
67234,note_on,2,0,0,,12,,,83,127
67350,note_off,116,0,0,,12,,,83,127
67350,note_off,0,0,0,,4,,,76,127
67350,note_off,0,0,0,,0,,,72,127
67352,note_on,2,0,0,,1,,,73,127
67352,note_on,0,0,0,,4,,,76,127
67352,note_on,0,0,0,,10,,,81,127
67468,note_off,116,0,0,,10,,,81,127
67470,note_on,2,0,0,,0,,,84,127
67586,note_off,116,0,0,,0,,,84,127
67588,note_on,2,0,0,,12,,,83,127
67704,note_off,116,0,0,,12,,,83,127
67704,note_off,0,0,0,,4,,,76,127
67704,note_off,0,0,0,,1,,,73,127
67706,note_on,2,0,0,,1,,,73,127
67706,note_on,0,0,0,,4,,,76,127
67706,note_on,0,0,0,,12,,,83,127
67822,note_off,116,0,0,,12,,,83,127
67824,note_on,2,0,0,,10,,,81,127
67940,note_off,116,0,0,,10,,,81,127
67942,note_on,2,0,0,,7,,,79,127
68058,note_off,116,0,0,,7,,,79,127
68058,note_off,0,0,0,,4,,,76,127
68058,note_off,0,0,0,,1,,,73,127
68060,note_on,2,0,0,,2,,,74,127
68060,note_on,0,0,0,,6,,,78,127
68413,note_off,353,0,0,,6,,,78,127
68413,note_off,0,0,0,,2,,,74,127
68430,note_on,17,0,0,,6,,,66,127
68430,note_on,0,0,0,,2,,,62,127
68546,note_off,116,0,0,,6,,,66,127
68548,note_on,2,0,0,,7,,,67,127
68664,note_off,116,0,0,,7,,,67,127
68666,note_on,2,0,0,,10,,,69,127
68782,note_off,116,0,0,,10,,,69,127
68782,note_off,0,0,0,,2,,,62,127
68784,note_on,2,0,0,,12,,,71,127
68784,note_on,0,0,0,,12,,,59,127
68900,note_off,116,0,0,,12,,,71,127
68902,note_on,2,0,0,,0,,,72,127
69018,note_off,116,0,0,,0,,,72,127
69020,note_on,2,0,0,,2,,,74,127
69136,note_off,116,0,0,,2,,,74,127
69136,note_off,0,0,0,,12,,,59,127
69138,note_on,2,0,0,,12,,,71,127
69138,note_on,0,0,0,,7,,,55,127
69254,note_off,116,0,0,,12,,,71,127
69256,note_on,2,0,0,,10,,,69,127
69372,note_off,116,0,0,,10,,,69,127
69374,note_on,2,0,0,,7,,,67,127
69490,note_off,116,0,0,,7,,,67,127
69490,note_off,0,0,0,,7,,,55,127
69492,note_on,2,0,0,,6,,,66,127
69492,note_on,0,0,0,,2,,,50,127
69845,note_off,353,0,0,,2,,,50,127
69845,note_off,0,0,0,,6,,,66,127
69862,note_on,17,0,0,,2,,,38,127
69862,note_on,0,0,0,,2,,,50,127
69862,note_on,0,0,0,,6,,,54,127
69978,note_off,116,0,0,,6,,,54,127
69980,note_on,2,0,0,,7,,,55,127
70096,note_off,116,0,0,,7,,,55,127
70098,note_on,2,0,0,,10,,,57,127
70214,note_off,116,0,0,,10,,,57,127
70214,note_off,0,0,0,,2,,,50,127
70214,note_off,0,0,0,,2,,,38,127
70216,note_on,2,0,0,,12,,,35,127
70216,note_on,0,0,0,,12,,,47,127
70216,note_on,0,0,0,,12,,,59,127
70332,note_off,116,0,0,,12,,,59,127
70334,note_on,2,0,0,,0,,,60,127
70450,note_off,116,0,0,,0,,,60,127
70452,note_on,2,0,0,,2,,,62,127
70568,note_off,116,0,0,,2,,,62,127
70568,note_off,0,0,0,,12,,,47,127
70568,note_off,0,0,0,,12,,,35,127
70570,note_on,2,0,0,,7,,,31,127
70570,note_on,0,0,0,,7,,,43,127
70570,note_on,0,0,0,,12,,,59,127
70686,note_off,116,0,0,,12,,,59,127
70688,note_on,2,0,0,,10,,,57,127
70804,note_off,116,0,0,,10,,,57,127
70806,note_on,2,0,0,,7,,,55,127
70922,note_off,116,0,0,,7,,,55,127
70922,note_off,0,0,0,,7,,,43,127
70922,note_off,0,0,0,,7,,,31,127
70924,note_on,2,0,0,,2,,,38,127
70924,note_on,0,0,0,,2,,,50,127
70924,note_on,0,0,0,,10,,,57,127
71244,note_off,320,0,0,,2,,,38,127
71311,note_off,67,0,0,,10,,,57,127
71311,note_off,0,0,0,,2,,,50,127
71337,note_on,26,0,0,,0,,,72,127
71337,note_on,0,0,0,,2,,,86,127
71453,note_off,116,0,0,,2,,,86,127
71455,note_on,2,0,0,,10,,,81,127
71571,note_off,116,0,0,,10,,,81,127
71573,note_on,2,0,0,,6,,,78,127
71689,note_off,116,0,0,,6,,,78,127
71689,note_off,0,0,0,,0,,,72,127
71691,note_on,2,0,0,,2,,,74,127
71691,note_on,0,0,0,,12,,,71,127
71691,note_on,0,0,0,,7,,,79,127
71807,note_off,116,0,0,,7,,,79,127
71809,note_on,2,0,0,,12,,,83,127
71925,note_off,116,0,0,,12,,,83,127
71927,note_on,2,0,0,,7,,,91,127
72043,note_off,116,0,0,,7,,,91,127
72043,note_off,0,0,0,,12,,,71,127
72043,note_off,0,0,0,,2,,,74,127
72045,note_on,2,0,0,,0,,,72,127
72045,note_on,0,0,0,,10,,,69,127
72045,note_on,0,0,0,,6,,,90,127
72163,note_on,118,0,0,,10,,,81,127
72279,note_off,116,0,0,,10,,,81,127
72281,note_on,2,0,0,,0,,,84,127
72395,note_off,114,0,0,,6,,,90,127
72397,note_off,2,0,0,,0,,,84,127
72397,note_off,0,0,0,,10,,,69,127
72397,note_off,0,0,0,,0,,,72,127
72399,note_on,2,0,0,,7,,,67,127
72399,note_on,0,0,0,,12,,,71,127
72399,note_on,0,0,0,,12,,,83,127
72399,note_on,0,0,0,,7,,,91,127
72752,note_off,353,0,0,,7,,,91,127
72752,note_off,0,0,0,,12,,,83,127
72752,note_off,0,0,0,,12,,,71,127
72752,note_off,0,0,0,,7,,,67,127
72783,note_on,31,0,0,,0,,,60,127
72783,note_on,0,0,0,,2,,,74,127
72899,note_off,116,0,0,,2,,,74,127
72901,note_on,2,0,0,,10,,,69,127
73017,note_off,116,0,0,,10,,,69,127
73019,note_on,2,0,0,,6,,,66,127
73135,note_off,116,0,0,,6,,,66,127
73135,note_off,0,0,0,,0,,,60,127
73137,note_on,2,0,0,,2,,,62,127
73137,note_on,0,0,0,,12,,,59,127
73137,note_on,0,0,0,,7,,,67,127
73253,note_off,116,0,0,,7,,,67,127
73255,note_on,2,0,0,,12,,,71,127
73371,note_off,116,0,0,,12,,,71,127
73373,note_on,2,0,0,,7,,,79,127
73489,note_off,116,0,0,,7,,,79,127
73489,note_off,0,0,0,,12,,,59,127
73489,note_off,0,0,0,,2,,,62,127
73491,note_on,2,0,0,,10,,,57,127
73491,note_on,0,0,0,,0,,,60,127
73491,note_on,0,0,0,,6,,,78,127
73609,note_on,118,0,0,,10,,,69,127
73725,note_off,116,0,0,,10,,,69,127
73727,note_on,2,0,0,,0,,,72,127
73841,note_off,114,0,0,,6,,,78,127
73843,note_off,2,0,0,,0,,,72,127
73843,note_off,0,0,0,,0,,,60,127
73843,note_off,0,0,0,,10,,,57,127
73845,note_on,2,0,0,,12,,,59,127
73845,note_on,0,0,0,,7,,,55,127
73845,note_on,0,0,0,,7,,,79,127
73845,note_on,0,0,0,,12,,,71,127
74198,note_off,353,0,0,,12,,,71,127
74198,note_off,0,0,0,,7,,,79,127
74198,note_off,0,0,0,,7,,,55,127
74198,note_off,0,0,0,,12,,,59,127
74244,note_on,46,0,0,,2,,,62,127
74244,note_on,0,0,0,,0,,,36,127
74244,note_on,0,0,0,,0,,,48,127
74360,note_off,116,0,0,,2,,,62,127
74362,note_on,2,0,0,,6,,,54,127
74478,note_off,116,0,0,,6,,,54,127
74480,note_on,2,0,0,,10,,,57,127
74596,note_off,116,0,0,,10,,,57,127
74596,note_off,0,0,0,,0,,,48,127
74596,note_off,0,0,0,,0,,,36,127
74598,note_on,2,0,0,,7,,,55,127
74598,note_on,0,0,0,,12,,,35,127
74598,note_on,0,0,0,,12,,,47,127
74714,note_off,116,0,0,,7,,,55,127
74716,note_on,2,0,0,,12,,,59,127
74832,note_off,116,0,0,,12,,,59,127
74834,note_on,2,0,0,,7,,,67,127
74950,note_off,116,0,0,,7,,,67,127
74950,note_off,0,0,0,,12,,,47,127
74950,note_off,0,0,0,,12,,,35,127
74952,note_on,2,0,0,,6,,,66,127
74952,note_on,0,0,0,,10,,,33,127
74952,note_on,0,0,0,,10,,,45,127
75070,note_on,118,0,0,,10,,,57,127
75186,note_off,116,0,0,,10,,,57,127
75188,note_on,2,0,0,,0,,,60,127
75302,note_off,114,0,0,,6,,,66,127
75304,note_off,2,0,0,,0,,,60,127
75304,note_off,0,0,0,,10,,,45,127
75304,note_off,0,0,0,,10,,,33,127
75306,note_on,2,0,0,,7,,,67,127
75306,note_on,0,0,0,,12,,,59,127
75306,note_on,0,0,0,,7,,,31,127
75306,note_on,0,0,0,,7,,,43,127
75659,note_off,353,0,0,,12,,,59,127
75659,note_off,0,0,0,,7,,,67,127
75690,note_on,31,0,0,,12,,,83,127
75806,note_off,116,0,0,,12,,,83,127
75808,note_on,2,0,0,,7,,,79,127
75924,note_off,116,0,0,,7,,,79,127
75926,note_on,2,0,0,,7,,,91,127
76007,note_off,81,0,0,,7,,,43,127
76007,note_off,0,0,0,,7,,,31,127
76042,note_off,35,0,0,,7,,,91,127
76044,note_on,2,0,0,,12,,,83,127
76044,note_on,0,0,0,,7,,,79,127
76398,note_on,354,0,0,,12,,,71,127
76514,note_off,116,0,0,,12,,,71,127
76516,note_on,2,0,0,,7,,,67,127
76632,note_off,116,0,0,,7,,,67,127
76634,note_on,2,0,0,,2,,,74,127
76745,note_off,111,0,0,,7,,,79,127
76745,note_off,0,0,0,,12,,,83,127
76751,note_off,6,0,0,,2,,,74,127
76753,note_on,2,0,0,,7,,,67,127
76753,note_on,0,0,0,,12,,,71,127
77107,note_on,354,0,0,,12,,,59,127
77223,note_off,116,0,0,,12,,,59,127
77225,note_on,2,0,0,,7,,,55,127
77341,note_off,116,0,0,,7,,,55,127
77343,note_on,2,0,0,,2,,,62,127
77459,note_off,116,0,0,,2,,,62,127
77459,note_off,0,0,0,,12,,,71,127
77459,note_off,0,0,0,,7,,,67,127
77461,note_on,2,0,0,,12,,,59,127
77461,note_on,0,0,0,,7,,,55,127
77577,note_off,116,0,0,,7,,,55,127
77579,note_on,2,0,0,,2,,,50,127
77695,note_off,116,0,0,,2,,,50,127
77697,note_on,2,0,0,,12,,,47,127
77813,note_off,116,0,0,,12,,,47,127
77815,note_on,2,0,0,,7,,,43,127
77931,note_off,116,0,0,,7,,,43,127
77933,note_on,2,0,0,,2,,,38,127
78049,note_off,116,0,0,,2,,,38,127
78051,note_on,2,0,0,,12,,,35,127
78167,note_off,116,0,0,,12,,,35,127
78167,note_off,0,0,0,,12,,,59,127
78169,note_on,2,0,0,,7,,,91,127
78169,note_on,0,0,0,,7,,,31,127
78285,note_off,116,0,0,,7,,,91,127
78287,note_on,2,0,0,,2,,,86,127
78403,note_off,116,0,0,,2,,,86,127
78405,note_on,2,0,0,,12,,,83,127
78521,note_off,116,0,0,,12,,,83,127
78523,note_on,2,0,0,,7,,,79,127
78639,note_off,116,0,0,,7,,,79,127
78641,note_on,2,0,0,,2,,,74,127
78700,note_off,59,0,0,,7,,,31,127
78757,note_off,57,0,0,,2,,,74,127
78759,note_on,2,0,0,,12,,,71,127
78875,note_off,116,0,0,,12,,,71,127
78877,note_on,2,0,0,,12,,,83,127
78877,note_on,0,0,0,,2,,,50,127
78934,note_off,57,0,0,,12,,,83,127
78936,note_on,2,0,0,,10,,,81,127
78993,note_off,57,0,0,,10,,,81,127
78995,note_on,2,0,0,,12,,,83,127
79052,note_off,57,0,0,,12,,,83,127
79054,note_on,2,0,0,,10,,,81,127
79111,note_off,57,0,0,,10,,,81,127
79113,note_on,2,0,0,,12,,,83,127
79170,note_off,57,0,0,,12,,,83,127
79172,note_on,2,0,0,,10,,,81,127
79229,note_off,57,0,0,,10,,,81,127
79229,note_off,0,0,0,,2,,,50,127
79231,note_on,2,0,0,,12,,,83,127
79231,note_on,0,0,0,,2,,,38,127
79288,note_off,57,0,0,,12,,,83,127
79290,note_on,2,0,0,,10,,,81,127
79347,note_off,57,0,0,,10,,,81,127
79349,note_on,2,0,0,,12,,,83,127
79406,note_off,57,0,0,,12,,,83,127
79408,note_on,2,0,0,,10,,,81,127
79465,note_off,57,0,0,,10,,,81,127
79467,note_on,2,0,0,,7,,,79,127
79524,note_off,57,0,0,,7,,,79,127
79526,note_on,2,0,0,,10,,,81,127
79583,note_off,57,0,0,,10,,,81,127
79583,note_off,0,0,0,,2,,,38,127
79585,note_on,2,0,0,,7,,,79,127
79585,note_on,0,0,0,,7,,,43,127
79701,note_off,116,0,0,,7,,,79,127
79703,note_on,2,0,0,,2,,,74,127
79819,note_off,116,0,0,,2,,,74,127
79821,note_on,2,0,0,,12,,,71,127
79935,note_off,114,0,0,,7,,,43,127
79937,note_off,2,0,0,,12,,,71,127
79939,note_on,2,0,0,,7,,,67,127
80057,note_on,118,0,0,,2,,,62,127
80173,note_off,116,0,0,,2,,,62,127
80175,note_on,2,0,0,,12,,,59,127
80289,note_off,114,0,0,,7,,,67,127
80291,note_off,2,0,0,,12,,,59,127
80293,note_on,2,0,0,,7,,,55,127
80411,note_on,118,0,0,,2,,,50,127
80527,note_off,116,0,0,,2,,,50,127
80529,note_on,2,0,0,,12,,,47,127
80643,note_off,114,0,0,,7,,,55,127
80645,note_off,2,0,0,,12,,,47,127
80647,note_on,2,0,0,,7,,,43,127
80767,note_on,120,0,0,,2,,,38,127
80883,note_off,116,0,0,,2,,,38,127
80892,note_on,9,0,0,,12,,,35,127
81014,note_off,122,0,0,,12,,,35,127
81014,note_off,0,0,0,,7,,,43,127
81023,note_on,9,0,0,,7,,,31,127
81023,note_on,0,0,0,,7,,,91,127
81139,note_off,116,0,0,,7,,,91,127
81141,note_on,2,0,0,,2,,,86,127
81257,note_off,116,0,0,,2,,,86,127
81259,note_on,2,0,0,,12,,,83,127
81375,note_off,116,0,0,,12,,,83,127
81377,note_on,2,0,0,,7,,,79,127
81493,note_off,116,0,0,,7,,,79,127
81495,note_on,2,0,0,,2,,,74,127
81554,note_off,59,0,0,,7,,,31,127
81611,note_off,57,0,0,,2,,,74,127
81613,note_on,2,0,0,,12,,,71,127
81729,note_off,116,0,0,,12,,,71,127
81731,note_on,2,0,0,,2,,,50,127
81731,note_on,0,0,0,,12,,,83,127
81788,note_off,57,0,0,,12,,,83,127
81790,note_on,2,0,0,,10,,,81,127
81847,note_off,57,0,0,,10,,,81,127
81849,note_on,2,0,0,,12,,,83,127
81906,note_off,57,0,0,,12,,,83,127
81908,note_on,2,0,0,,10,,,81,127
81965,note_off,57,0,0,,10,,,81,127
81967,note_on,2,0,0,,12,,,83,127
82024,note_off,57,0,0,,12,,,83,127
82026,note_on,2,0,0,,10,,,81,127
82083,note_off,57,0,0,,10,,,81,127
82083,note_off,0,0,0,,2,,,50,127
82085,note_on,2,0,0,,2,,,38,127
82085,note_on,0,0,0,,12,,,83,127
82142,note_off,57,0,0,,12,,,83,127
82144,note_on,2,0,0,,10,,,81,127
82201,note_off,57,0,0,,10,,,81,127
82203,note_on,2,0,0,,12,,,83,127
82260,note_off,57,0,0,,12,,,83,127
82262,note_on,2,0,0,,10,,,81,127
82319,note_off,57,0,0,,10,,,81,127
82321,note_on,2,0,0,,7,,,79,127
82378,note_off,57,0,0,,7,,,79,127
82380,note_on,2,0,0,,10,,,81,127
82437,note_off,57,0,0,,10,,,81,127
82437,note_off,0,0,0,,2,,,38,127
82439,note_on,2,0,0,,7,,,43,127
82439,note_on,0,0,0,,7,,,79,127
82555,note_off,116,0,0,,7,,,79,127
82557,note_on,2,0,0,,2,,,74,127
82673,note_off,116,0,0,,2,,,74,127
82675,note_on,2,0,0,,6,,,78,127
82791,note_off,116,0,0,,6,,,78,127
82791,note_off,0,0,0,,7,,,43,127
82793,note_on,2,0,0,,0,,,48,127
82793,note_on,0,0,0,,0,,,36,127
82793,note_on,0,0,0,,4,,,76,127
82909,note_off,116,0,0,,4,,,76,127
82911,note_on,2,0,0,,10,,,69,127
83027,note_off,116,0,0,,10,,,69,127
83029,note_on,2,0,0,,0,,,72,127
83145,note_off,116,0,0,,0,,,72,127
83145,note_off,0,0,0,,0,,,36,127
83145,note_off,0,0,0,,0,,,48,127
83147,note_on,2,0,0,,2,,,50,127
83147,note_on,0,0,0,,2,,,38,127
83147,note_on,0,0,0,,12,,,71,127
83263,note_off,116,0,0,,12,,,71,127
83265,note_on,2,0,0,,2,,,74,127
83381,note_off,116,0,0,,2,,,74,127
83383,note_on,2,0,0,,7,,,67,127
83499,note_off,116,0,0,,7,,,67,127
83499,note_off,0,0,0,,2,,,38,127
83499,note_off,0,0,0,,2,,,50,127
83501,note_on,2,0,0,,2,,,50,127
83501,note_on,0,0,0,,2,,,38,127
83501,note_on,0,0,0,,2,,,62,127
83617,note_off,116,0,0,,2,,,62,127
83619,note_on,2,0,0,,10,,,69,127
83735,note_off,116,0,0,,10,,,69,127
83737,note_on,2,0,0,,6,,,66,127
83853,note_off,116,0,0,,6,,,66,127
83853,note_off,0,0,0,,2,,,38,127
83853,note_off,0,0,0,,2,,,50,127
83855,note_on,2,0,0,,7,,,43,127
83855,note_on,0,0,0,,7,,,55,127
83855,note_on,0,0,0,,7,,,67,127
83971,note_off,116,0,0,,7,,,67,127
83973,note_on,2,0,0,,12,,,59,127
84089,note_off,116,0,0,,12,,,59,127
84091,note_on,2,0,0,,2,,,62,127
84207,note_off,116,0,0,,2,,,62,127
84207,note_off,0,0,0,,7,,,55,127
84207,note_off,0,0,0,,7,,,43,127
84209,note_on,2,0,0,,0,,,36,127
84209,note_on,0,0,0,,0,,,48,127
84209,note_on,0,0,0,,0,,,60,127
84325,note_off,116,0,0,,0,,,60,127
84327,note_on,2,0,0,,4,,,64,127
84443,note_off,116,0,0,,4,,,64,127
84445,note_on,2,0,0,,10,,,57,127
84561,note_off,116,0,0,,10,,,57,127
84561,note_off,0,0,0,,0,,,48,127
84561,note_off,0,0,0,,0,,,36,127
84563,note_on,2,0,0,,2,,,38,127
84563,note_on,0,0,0,,2,,,50,127
84563,note_on,0,0,0,,12,,,59,127
84679,note_off,116,0,0,,12,,,59,127
84681,note_on,2,0,0,,2,,,62,127
84797,note_off,116,0,0,,2,,,62,127
84799,note_on,2,0,0,,7,,,55,127
84915,note_off,116,0,0,,7,,,55,127
84915,note_off,0,0,0,,2,,,50,127
84915,note_off,0,0,0,,2,,,38,127
84917,note_on,2,0,0,,2,,,38,127
84917,note_on,0,0,0,,2,,,50,127
85035,note_on,118,0,0,,10,,,57,127
85151,note_off,116,0,0,,10,,,57,127
85160,note_on,9,0,0,,6,,,54,127
85269,note_off,109,0,0,,2,,,50,127
85269,note_off,0,0,0,,2,,,38,127
85276,note_off,7,0,0,,6,,,54,127
85286,note_on,10,0,0,,7,,,43,127
85286,note_on,0,0,0,,7,,,55,127
85286,note_on,0,0,0,,7,,,31,127
85932,note_off,646,0,0,,7,,,31,127
86070,note_off,138,0,0,,7,,,55,127
86070,note_off,0,0,0,,7,,,43,127
86163,note_on,93,0,0,,4,,,76,127
86163,note_on,0,0,0,,0,,,72,127
86163,note_on,0,0,0,,7,,,67,127
86233,note_on,70,0,0,,2,,,74,127
86244,note_on,11,0,0,,12,,,71,127
86250,note_off,6,0,0,,0,,,72,127
86250,note_off,0,0,0,,4,,,76,127
86305,note_on,55,0,0,,4,,,76,127
86305,note_on,0,0,0,,0,,,72,127
86320,note_off,15,0,0,,2,,,74,127
86331,note_off,11,0,0,,12,,,71,127
86375,note_on,44,0,0,,2,,,74,127
86375,note_on,0,0,0,,12,,,71,127
86392,note_off,17,0,0,,0,,,72,127
86392,note_off,0,0,0,,4,,,76,127
86447,note_on,55,0,0,,4,,,76,127
86447,note_on,0,0,0,,0,,,72,127
86462,note_off,15,0,0,,12,,,71,127
86462,note_off,0,0,0,,2,,,74,127
86517,note_on,55,0,0,,2,,,74,127
86517,note_on,0,0,0,,12,,,71,127
86534,note_off,17,0,0,,0,,,72,127
86534,note_off,0,0,0,,4,,,76,127
86588,note_on,54,0,0,,4,,,76,127
86588,note_on,0,0,0,,0,,,72,127
86605,note_off,17,0,0,,12,,,71,127
86605,note_off,0,0,0,,2,,,74,127
86660,note_on,55,0,0,,2,,,74,127
86660,note_on,0,0,0,,12,,,71,127
86675,note_off,15,0,0,,0,,,72,127
86675,note_off,0,0,0,,4,,,76,127
86730,note_on,55,0,0,,0,,,72,127
86730,note_on,0,0,0,,10,,,69,127
86747,note_off,17,0,0,,12,,,71,127
86747,note_off,0,0,0,,2,,,74,127
86802,note_on,55,0,0,,2,,,74,127
86802,note_on,0,0,0,,12,,,71,127
86817,note_off,15,0,0,,10,,,69,127
86817,note_off,0,0,0,,0,,,72,127
86865,note_off,48,0,0,,7,,,67,127
86872,note_on,7,0,0,,10,,,81,127
86872,note_on,0,0,0,,0,,,72,127
86872,note_on,0,0,0,,5,,,65,127
86874,note_off,2,0,0,,12,,,71,127
86874,note_off,0,0,0,,2,,,74,127
87225,note_off,351,0,0,,5,,,65,127
87225,note_off,0,0,0,,0,,,72,127
87225,note_off,0,0,0,,10,,,81,127
87227,note_on,2,0,0,,5,,,77,127
87227,note_on,0,0,0,,0,,,72,127
87227,note_on,0,0,0,,5,,,65,127
87580,note_off,353,0,0,,5,,,65,127
87580,note_off,0,0,0,,0,,,72,127
87580,note_off,0,0,0,,5,,,77,127
87611,note_on,31,0,0,,4,,,76,127
87611,note_on,0,0,0,,10,,,69,127
87611,note_on,0,0,0,,5,,,65,127
87681,note_on,70,0,0,,2,,,74,127
87698,note_off,17,0,0,,4,,,76,127
87753,note_on,55,0,0,,4,,,76,127
87768,note_off,15,0,0,,2,,,74,127
87823,note_on,55,0,0,,2,,,74,127
87840,note_off,17,0,0,,4,,,76,127
87895,note_on,55,0,0,,4,,,76,127
87910,note_off,15,0,0,,2,,,74,127
87964,note_off,54,0,0,,5,,,65,127
87964,note_off,0,0,0,,10,,,69,127
87966,note_on,2,0,0,,2,,,74,127
87966,note_on,0,0,0,,5,,,65,127
87966,note_on,0,0,0,,10,,,69,127
87983,note_off,17,0,0,,4,,,76,127
88037,note_on,54,0,0,,4,,,76,127
88054,note_off,17,0,0,,2,,,74,127
88109,note_on,55,0,0,,2,,,74,127
88124,note_off,15,0,0,,4,,,76,127
88179,note_on,55,0,0,,0,,,72,127
88196,note_off,17,0,0,,2,,,74,127
88251,note_on,55,0,0,,2,,,74,127
88266,note_off,15,0,0,,0,,,72,127
88320,note_off,54,0,0,,10,,,69,127
88320,note_off,0,0,0,,5,,,65,127
88322,note_on,2,0,0,,8,,,80,127
88322,note_on,0,0,0,,12,,,71,127
88322,note_on,0,0,0,,2,,,62,127
88324,note_off,2,0,0,,2,,,74,127
88675,note_off,351,0,0,,2,,,62,127
88675,note_off,0,0,0,,12,,,71,127
88677,note_on,2,0,0,,5,,,77,127
88677,note_on,0,0,0,,2,,,62,127
88677,note_on,0,0,0,,12,,,71,127
89024,note_off,347,0,0,,8,,,80,127
89030,note_off,6,0,0,,12,,,71,127
89030,note_off,0,0,0,,2,,,62,127
89030,note_off,0,0,0,,5,,,77,127
89047,note_on,17,0,0,,12,,,71,127
89047,note_on,0,0,0,,2,,,62,127
89047,note_on,0,0,0,,8,,,80,127
89047,note_on,0,0,0,,2,,,74,127
89400,note_off,353,0,0,,2,,,62,127
89400,note_off,0,0,0,,12,,,71,127
89402,note_on,2,0,0,,2,,,62,127
89402,note_on,0,0,0,,12,,,71,127
89518,note_off,116,0,0,,2,,,74,127
89520,note_on,2,0,0,,0,,,72,127
89634,note_off,114,0,0,,12,,,71,127
89636,note_off,2,0,0,,0,,,72,127
89638,note_on,2,0,0,,12,,,71,127
89749,note_off,111,0,0,,8,,,80,127
89755,note_off,6,0,0,,12,,,71,127
89755,note_off,0,0,0,,2,,,62,127
89757,note_on,2,0,0,,0,,,60,127
89757,note_on,0,0,0,,10,,,69,127
89757,note_on,0,0,0,,10,,,81,127
89757,note_on,0,0,0,,4,,,76,127
90110,note_off,353,0,0,,4,,,76,127
90110,note_off,0,0,0,,10,,,81,127
90164,note_on,54,0,0,,10,,,57,127
90459,note_off,295,0,0,,10,,,69,127
90459,note_off,0,0,0,,0,,,60,127
90516,note_off,57,0,0,,10,,,57,127
90518,note_on,2,0,0,,12,,,59,127
90588,note_on,70,0,0,,10,,,57,127
90605,note_off,17,0,0,,12,,,59,127
90660,note_on,55,0,0,,12,,,59,127
90675,note_off,15,0,0,,10,,,57,127
90730,note_on,55,0,0,,10,,,57,127
90747,note_off,17,0,0,,12,,,59,127
90802,note_on,55,0,0,,12,,,59,127
90817,note_off,15,0,0,,10,,,57,127
90872,note_on,55,0,0,,10,,,57,127
90872,note_on,0,0,0,,0,,,36,127
90872,note_on,0,0,0,,0,,,48,127
90889,note_off,17,0,0,,12,,,59,127
90943,note_on,54,0,0,,12,,,59,127
90960,note_off,17,0,0,,10,,,57,127
91015,note_on,55,0,0,,10,,,57,127
91030,note_off,15,0,0,,12,,,59,127
91085,note_on,55,0,0,,7,,,55,127
91102,note_off,17,0,0,,10,,,57,127
91157,note_on,55,0,0,,10,,,57,127
91172,note_off,15,0,0,,7,,,55,127
91226,note_off,54,0,0,,0,,,48,127
91226,note_off,0,0,0,,0,,,36,127
91228,note_on,2,0,0,,5,,,65,127
91228,note_on,0,0,0,,2,,,38,127
91228,note_on,0,0,0,,2,,,50,127
91230,note_off,2,0,0,,10,,,57,127
91344,note_off,114,0,0,,5,,,65,127
91346,note_on,2,0,0,,2,,,62,127
91462,note_off,116,0,0,,2,,,62,127
91464,note_on,2,0,0,,8,,,68,127
91580,note_off,116,0,0,,8,,,68,127
91580,note_off,0,0,0,,2,,,50,127
91580,note_off,0,0,0,,2,,,38,127
91582,note_on,2,0,0,,10,,,69,127
91582,note_on,0,0,0,,0,,,36,127
91582,note_on,0,0,0,,0,,,48,127
91698,note_off,116,0,0,,10,,,69,127
91700,note_on,2,0,0,,4,,,64,127
91816,note_off,116,0,0,,4,,,64,127
91818,note_on,2,0,0,,10,,,57,127
91934,note_off,116,0,0,,10,,,57,127
91934,note_off,0,0,0,,0,,,48,127
91934,note_off,0,0,0,,0,,,36,127
91936,note_on,2,0,0,,4,,,64,127
91936,note_on,0,0,0,,12,,,35,127
91936,note_on,0,0,0,,12,,,47,127
92006,note_on,70,0,0,,2,,,62,127
92023,note_off,17,0,0,,4,,,64,127
92078,note_on,55,0,0,,4,,,64,127
92093,note_off,15,0,0,,2,,,62,127
92148,note_on,55,0,0,,2,,,62,127
92165,note_off,17,0,0,,4,,,64,127
92220,note_on,55,0,0,,4,,,64,127
92235,note_off,15,0,0,,2,,,62,127
92289,note_off,54,0,0,,12,,,47,127
92289,note_off,0,0,0,,12,,,35,127
92291,note_on,2,0,0,,2,,,62,127
92291,note_on,0,0,0,,4,,,40,127
92291,note_on,0,0,0,,4,,,52,127
92308,note_off,17,0,0,,4,,,64,127
92362,note_on,54,0,0,,4,,,64,127
92379,note_off,17,0,0,,2,,,62,127
92434,note_on,55,0,0,,2,,,62,127
92449,note_off,15,0,0,,4,,,64,127
92504,note_on,55,0,0,,0,,,60,127
92521,note_off,17,0,0,,2,,,62,127
92578,note_on,57,0,0,,2,,,62,127
92591,note_off,13,0,0,,0,,,60,127
92645,note_off,54,0,0,,4,,,52,127
92645,note_off,0,0,0,,4,,,40,127
92647,note_on,2,0,0,,10,,,45,127
92651,note_off,4,0,0,,2,,,62,127
92657,note_on,6,0,0,,0,,,60,127
93049,note_off,392,0,0,,0,,,60,127
93076,note_on,27,0,0,,0,,,84,127
93179,note_off,103,0,0,,10,,,45,127
93428,note_off,249,0,0,,0,,,84,127
93430,note_on,2,0,0,,0,,,84,127
93783,note_off,353,0,0,,0,,,84,127
93785,note_on,2,0,0,,0,,,84,127
93785,note_on,0,0,0,,10,,,81,127
93785,note_on,0,0,0,,5,,,77,127
94138,note_off,353,0,0,,5,,,77,127
94138,note_off,0,0,0,,10,,,81,127
94138,note_off,0,0,0,,0,,,84,127
94140,note_on,2,0,0,,0,,,84,127
94140,note_on,0,0,0,,4,,,76,127
94140,note_on,0,0,0,,7,,,79,127
94256,note_off,116,0,0,,0,,,84,127
94258,note_on,2,0,0,,11,,,82,127
94374,note_off,116,0,0,,11,,,82,127
94376,note_on,2,0,0,,10,,,81,127
94492,note_off,116,0,0,,10,,,81,127
94492,note_off,0,0,0,,7,,,79,127
94492,note_off,0,0,0,,4,,,76,127
94494,note_on,2,0,0,,0,,,84,127
94494,note_on,0,0,0,,4,,,76,127
94494,note_on,0,0,0,,7,,,79,127
94847,note_off,353,0,0,,7,,,79,127
94847,note_off,0,0,0,,4,,,76,127
94847,note_off,0,0,0,,0,,,84,127
94849,note_on,2,0,0,,0,,,84,127
94849,note_on,0,0,0,,4,,,76,127
94849,note_on,0,0,0,,7,,,79,127
94906,note_off,57,0,0,,0,,,84,127
94908,note_on,2,0,0,,11,,,82,127
94965,note_off,57,0,0,,11,,,82,127
94967,note_on,2,0,0,,0,,,84,127
95024,note_off,57,0,0,,0,,,84,127
95026,note_on,2,0,0,,11,,,82,127
95083,note_off,57,0,0,,11,,,82,127
95085,note_on,2,0,0,,0,,,84,127
95142,note_off,57,0,0,,0,,,84,127
95144,note_on,2,0,0,,11,,,82,127
95201,note_off,57,0,0,,11,,,82,127
95201,note_off,0,0,0,,7,,,79,127
95201,note_off,0,0,0,,4,,,76,127
95203,note_on,2,0,0,,0,,,84,127
95203,note_on,0,0,0,,4,,,76,127
95203,note_on,0,0,0,,7,,,79,127
95260,note_off,57,0,0,,0,,,84,127
95262,note_on,2,0,0,,11,,,82,127
95319,note_off,57,0,0,,11,,,82,127
95321,note_on,2,0,0,,0,,,84,127
95378,note_off,57,0,0,,0,,,84,127
95380,note_on,2,0,0,,11,,,82,127
95437,note_off,57,0,0,,11,,,82,127
95439,note_on,2,0,0,,10,,,81,127
95496,note_off,57,0,0,,10,,,81,127
95498,note_on,2,0,0,,11,,,82,127
95555,note_off,57,0,0,,11,,,82,127
95555,note_off,0,0,0,,7,,,79,127
95555,note_off,0,0,0,,4,,,76,127
95557,note_on,2,0,0,,10,,,81,127
95557,note_on,0,0,0,,5,,,77,127
95910,note_off,353,0,0,,5,,,77,127
95910,note_off,0,0,0,,10,,,81,127
95927,note_on,17,0,0,,5,,,65,127
95927,note_on,0,0,0,,10,,,69,127
95927,note_on,0,0,0,,0,,,72,127
96280,note_off,353,0,0,,0,,,72,127
96280,note_off,0,0,0,,10,,,69,127
96280,note_off,0,0,0,,5,,,65,127
96282,note_on,2,0,0,,7,,,67,127
96282,note_on,0,0,0,,0,,,60,127
96282,note_on,0,0,0,,0,,,72,127
96339,note_off,57,0,0,,0,,,72,127
96341,note_on,2,0,0,,11,,,70,127
96398,note_off,57,0,0,,11,,,70,127
96400,note_on,2,0,0,,0,,,72,127
96457,note_off,57,0,0,,0,,,72,127
96459,note_on,2,0,0,,11,,,70,127
96516,note_off,57,0,0,,11,,,70,127
96518,note_on,2,0,0,,0,,,72,127
96575,note_off,57,0,0,,0,,,72,127
96577,note_on,2,0,0,,11,,,70,127
96634,note_off,57,0,0,,11,,,70,127
96634,note_off,0,0,0,,0,,,60,127
96634,note_off,0,0,0,,7,,,67,127
96636,note_on,2,0,0,,7,,,67,127
96636,note_on,0,0,0,,0,,,60,127
96636,note_on,0,0,0,,0,,,72,127
96693,note_off,57,0,0,,0,,,72,127
96695,note_on,2,0,0,,11,,,70,127
96752,note_off,57,0,0,,11,,,70,127
96754,note_on,2,0,0,,0,,,72,127
96811,note_off,57,0,0,,0,,,72,127
96813,note_on,2,0,0,,11,,,70,127
96870,note_off,57,0,0,,11,,,70,127
96872,note_on,2,0,0,,10,,,69,127
96929,note_off,57,0,0,,10,,,69,127
96931,note_on,2,0,0,,11,,,70,127
96988,note_off,57,0,0,,11,,,70,127
96988,note_off,0,0,0,,0,,,60,127
96988,note_off,0,0,0,,7,,,67,127
96992,note_on,4,0,0,,10,,,69,127
96992,note_on,0,0,0,,5,,,65,127
97354,note_off,362,0,0,,5,,,65,127
97354,note_off,0,0,0,,10,,,69,127
97374,note_on,20,0,0,,10,,,57,127
97374,note_on,0,0,0,,5,,,53,127
97374,note_on,0,0,0,,0,,,60,127
97727,note_off,353,0,0,,0,,,60,127
97727,note_off,0,0,0,,5,,,53,127
97727,note_off,0,0,0,,10,,,57,127
97729,note_on,2,0,0,,0,,,48,127
97729,note_on,0,0,0,,7,,,55,127
97729,note_on,0,0,0,,0,,,60,127
97799,note_on,70,0,0,,11,,,58,127
97816,note_off,17,0,0,,0,,,60,127
97871,note_on,55,0,0,,0,,,60,127
97886,note_off,15,0,0,,11,,,58,127
97941,note_on,55,0,0,,11,,,58,127
97958,note_off,17,0,0,,0,,,60,127
98013,note_on,55,0,0,,0,,,60,127
98028,note_off,15,0,0,,11,,,58,127
98082,note_off,54,0,0,,7,,,55,127
98082,note_off,0,0,0,,0,,,48,127
98084,note_on,2,0,0,,7,,,55,127
98084,note_on,0,0,0,,0,,,48,127
98084,note_on,0,0,0,,11,,,58,127
98101,note_off,17,0,0,,0,,,60,127
98155,note_on,54,0,0,,0,,,60,127
98172,note_off,17,0,0,,11,,,58,127
98227,note_on,55,0,0,,11,,,58,127
98242,note_off,15,0,0,,0,,,60,127
98297,note_on,55,0,0,,10,,,57,127
98314,note_off,17,0,0,,11,,,58,127
98369,note_on,55,0,0,,11,,,58,127
98384,note_off,15,0,0,,10,,,57,127
98438,note_off,54,0,0,,0,,,48,127
98438,note_off,0,0,0,,7,,,55,127
98440,note_on,2,0,0,,5,,,41,127
98440,note_on,0,0,0,,5,,,53,127
98440,note_on,0,0,0,,10,,,57,127
98442,note_off,2,0,0,,11,,,58,127
98793,note_off,351,0,0,,10,,,57,127
98869,note_on,76,0,0,,10,,,81,127
98972,note_off,103,0,0,,5,,,41,127
99142,note_off,170,0,0,,5,,,53,127
99221,note_off,79,0,0,,10,,,81,127
99223,note_on,2,0,0,,0,,,84,127
99339,note_off,116,0,0,,0,,,84,127
99341,note_on,2,0,0,,11,,,82,127
99457,note_off,116,0,0,,11,,,82,127
99459,note_on,2,0,0,,10,,,81,127
99575,note_off,116,0,0,,10,,,81,127
99577,note_on,2,0,0,,3,,,87,127
99577,note_on,0,0,0,,7,,,79,127
99577,note_on,0,0,0,,3,,,75,127
99577,note_on,0,0,0,,0,,,72,127
99930,note_off,353,0,0,,0,,,72,127
99930,note_off,0,0,0,,3,,,75,127
99930,note_off,0,0,0,,7,,,79,127
99930,note_off,0,0,0,,3,,,87,127
99932,note_on,2,0,0,,2,,,86,127
99932,note_on,0,0,0,,6,,,78,127
99932,note_on,0,0,0,,0,,,72,127
99932,note_on,0,0,0,,2,,,74,127
100285,note_off,353,0,0,,2,,,74,127
100285,note_off,0,0,0,,0,,,72,127
100285,note_off,0,0,0,,6,,,78,127
100287,note_on,2,0,0,,7,,,91,127
100287,note_on,0,0,0,,2,,,74,127
100287,note_on,0,0,0,,11,,,70,127
100634,note_off,347,0,0,,2,,,86,127
100640,note_off,6,0,0,,11,,,70,127
100640,note_off,0,0,0,,2,,,74,127
100640,note_off,0,0,0,,7,,,91,127
100642,note_on,2,0,0,,2,,,86,127
100642,note_on,0,0,0,,10,,,69,127
100699,note_off,57,0,0,,2,,,86,127
100701,note_on,2,0,0,,0,,,84,127
100758,note_off,57,0,0,,0,,,84,127
100760,note_on,2,0,0,,2,,,86,127
100817,note_off,57,0,0,,2,,,86,127
100819,note_on,2,0,0,,0,,,84,127
100876,note_off,57,0,0,,0,,,84,127
100878,note_on,2,0,0,,2,,,86,127
100935,note_off,57,0,0,,2,,,86,127
100937,note_on,2,0,0,,0,,,84,127
100994,note_off,57,0,0,,0,,,84,127
100994,note_off,0,0,0,,10,,,69,127
100996,note_on,2,0,0,,2,,,86,127
100996,note_on,0,0,0,,2,,,62,127
101053,note_off,57,0,0,,2,,,86,127
101055,note_on,2,0,0,,0,,,84,127
101112,note_off,57,0,0,,0,,,84,127
101114,note_on,2,0,0,,2,,,86,127
101171,note_off,57,0,0,,2,,,86,127
101173,note_on,2,0,0,,0,,,84,127
101230,note_off,57,0,0,,0,,,84,127
101232,note_on,2,0,0,,11,,,82,127
101289,note_off,57,0,0,,11,,,82,127
101291,note_on,2,0,0,,10,,,81,127
101348,note_off,57,0,0,,10,,,81,127
101348,note_off,0,0,0,,2,,,62,127
101350,note_on,2,0,0,,11,,,82,127
101350,note_on,0,0,0,,7,,,67,127
101703,note_off,353,0,0,,7,,,67,127
101703,note_off,0,0,0,,11,,,82,127
101720,note_on,17,0,0,,11,,,70,127
101720,note_on,0,0,0,,2,,,74,127
102073,note_off,353,0,0,,2,,,74,127
102073,note_off,0,0,0,,11,,,70,127
102075,note_on,2,0,0,,10,,,69,127
102075,note_on,0,0,0,,2,,,74,127
102132,note_off,57,0,0,,2,,,74,127
102134,note_on,2,0,0,,0,,,72,127
102191,note_off,57,0,0,,0,,,72,127
102193,note_on,2,0,0,,2,,,74,127
102250,note_off,57,0,0,,2,,,74,127
102252,note_on,2,0,0,,0,,,72,127
102309,note_off,57,0,0,,0,,,72,127
102311,note_on,2,0,0,,2,,,74,127
102368,note_off,57,0,0,,2,,,74,127
102370,note_on,2,0,0,,0,,,72,127
102427,note_off,57,0,0,,0,,,72,127
102427,note_off,0,0,0,,10,,,69,127
102429,note_on,2,0,0,,2,,,62,127
102429,note_on,0,0,0,,2,,,74,127
102486,note_off,57,0,0,,2,,,74,127
102488,note_on,2,0,0,,0,,,72,127
102545,note_off,57,0,0,,0,,,72,127
102547,note_on,2,0,0,,2,,,74,127
102604,note_off,57,0,0,,2,,,74,127
102606,note_on,2,0,0,,0,,,72,127
102663,note_off,57,0,0,,0,,,72,127
102665,note_on,2,0,0,,11,,,70,127
102722,note_off,57,0,0,,11,,,70,127
102724,note_on,2,0,0,,10,,,69,127
102781,note_off,57,0,0,,10,,,69,127
102781,note_off,0,0,0,,2,,,62,127
102783,note_on,2,0,0,,7,,,67,127
102783,note_on,0,0,0,,11,,,70,127
103136,note_off,353,0,0,,11,,,70,127
103136,note_off,0,0,0,,7,,,67,127
103153,note_on,17,0,0,,2,,,62,127
103153,note_on,0,0,0,,11,,,58,127
103153,note_on,0,0,0,,7,,,55,127
103153,note_on,0,0,0,,7,,,43,127
103506,note_off,353,0,0,,7,,,43,127
103506,note_off,0,0,0,,7,,,55,127
103506,note_off,0,0,0,,11,,,58,127
103506,note_off,0,0,0,,2,,,62,127
103508,note_on,2,0,0,,2,,,62,127
103508,note_on,0,0,0,,10,,,57,127
103508,note_on,0,0,0,,10,,,45,127
103578,note_on,70,0,0,,0,,,60,127
103595,note_off,17,0,0,,2,,,62,127
103650,note_on,55,0,0,,2,,,62,127
103665,note_off,15,0,0,,0,,,60,127
103720,note_on,55,0,0,,0,,,60,127
103737,note_off,17,0,0,,2,,,62,127
103792,note_on,55,0,0,,2,,,62,127
103807,note_off,15,0,0,,0,,,60,127
103861,note_off,54,0,0,,10,,,45,127
103861,note_off,0,0,0,,10,,,57,127
103863,note_on,2,0,0,,0,,,60,127
103863,note_on,0,0,0,,2,,,50,127
103863,note_on,0,0,0,,2,,,38,127
103880,note_off,17,0,0,,2,,,62,127
103934,note_on,54,0,0,,2,,,62,127
103951,note_off,17,0,0,,0,,,60,127
104006,note_on,55,0,0,,0,,,60,127
104021,note_off,15,0,0,,2,,,62,127
104076,note_on,55,0,0,,11,,,58,127
104093,note_off,17,0,0,,0,,,60,127
104148,note_on,55,0,0,,0,,,60,127
104163,note_off,15,0,0,,11,,,58,127
104217,note_off,54,0,0,,2,,,38,127
104217,note_off,0,0,0,,2,,,50,127
104221,note_off,4,0,0,,0,,,60,127
104225,note_on,4,0,0,,7,,,55,127
104225,note_on,0,0,0,,7,,,43,127
104225,note_on,0,0,0,,11,,,58,127
104578,note_off,353,0,0,,11,,,58,127
104670,note_on,92,0,0,,11,,,82,127
104757,note_off,87,0,0,,7,,,43,127
104927,note_off,170,0,0,,7,,,55,127
105023,note_off,96,0,0,,11,,,82,127
105025,note_on,2,0,0,,11,,,82,127
105378,note_off,353,0,0,,11,,,82,127
105380,note_on,2,0,0,,3,,,75,127
105380,note_on,0,0,0,,7,,,79,127
105380,note_on,0,0,0,,11,,,82,127
105733,note_off,353,0,0,,11,,,82,127
105733,note_off,0,0,0,,7,,,79,127
105733,note_off,0,0,0,,3,,,75,127
105735,note_on,2,0,0,,5,,,77,127
105735,note_on,0,0,0,,2,,,74,127
105735,note_on,0,0,0,,2,,,86,127
105851,note_off,116,0,0,,2,,,86,127
105853,note_on,2,0,0,,0,,,84,127
105969,note_off,116,0,0,,0,,,84,127
105971,note_on,2,0,0,,11,,,82,127
106087,note_off,116,0,0,,11,,,82,127
106087,note_off,0,0,0,,2,,,74,127
106087,note_off,0,0,0,,5,,,77,127
106089,note_on,2,0,0,,2,,,74,127
106089,note_on,0,0,0,,5,,,77,127
106089,note_on,0,0,0,,11,,,82,127
106442,note_off,353,0,0,,11,,,82,127
106442,note_off,0,0,0,,5,,,77,127
106442,note_off,0,0,0,,2,,,74,127
106444,note_on,2,0,0,,5,,,77,127
106444,note_on,0,0,0,,0,,,72,127
106444,note_on,0,0,0,,11,,,82,127
106501,note_off,57,0,0,,11,,,82,127
106503,note_on,2,0,0,,8,,,80,127
106560,note_off,57,0,0,,8,,,80,127
106562,note_on,2,0,0,,11,,,82,127
106619,note_off,57,0,0,,11,,,82,127
106621,note_on,2,0,0,,8,,,80,127
106678,note_off,57,0,0,,8,,,80,127
106680,note_on,2,0,0,,11,,,82,127
106737,note_off,57,0,0,,11,,,82,127
106739,note_on,2,0,0,,8,,,80,127
106796,note_off,57,0,0,,8,,,80,127
106796,note_off,0,0,0,,0,,,72,127
106796,note_off,0,0,0,,5,,,77,127
106798,note_on,2,0,0,,0,,,72,127
106798,note_on,0,0,0,,5,,,77,127
106798,note_on,0,0,0,,11,,,82,127
106855,note_off,57,0,0,,11,,,82,127
106857,note_on,2,0,0,,8,,,80,127
106914,note_off,57,0,0,,8,,,80,127
106916,note_on,2,0,0,,11,,,82,127
106973,note_off,57,0,0,,11,,,82,127
106975,note_on,2,0,0,,8,,,80,127
107032,note_off,57,0,0,,8,,,80,127
107034,note_on,2,0,0,,7,,,79,127
107091,note_off,57,0,0,,7,,,79,127
107093,note_on,2,0,0,,8,,,80,127
107150,note_off,57,0,0,,8,,,80,127
107150,note_off,0,0,0,,5,,,77,127
107150,note_off,0,0,0,,0,,,72,127
107152,note_on,2,0,0,,5,,,77,127
107152,note_on,0,0,0,,12,,,71,127
107152,note_on,0,0,0,,7,,,79,127
107505,note_off,353,0,0,,12,,,71,127
107505,note_off,0,0,0,,5,,,77,127
107507,note_on,2,0,0,,0,,,72,127
107507,note_on,0,0,0,,3,,,75,127
107507,note_on,0,0,0,,7,,,91,127
107854,note_off,347,0,0,,7,,,79,127
107860,note_off,6,0,0,,7,,,91,127
107860,note_off,0,0,0,,3,,,75,127
107860,note_off,0,0,0,,0,,,72,127
107862,note_on,2,0,0,,0,,,72,127
107862,note_on,0,0,0,,8,,,68,127
107862,note_on,0,0,0,,7,,,91,127
107978,note_off,116,0,0,,7,,,91,127
107980,note_on,2,0,0,,5,,,89,127
108096,note_off,116,0,0,,5,,,89,127
108098,note_on,2,0,0,,3,,,87,127
108214,note_off,116,0,0,,3,,,87,127
108214,note_off,0,0,0,,8,,,68,127
108214,note_off,0,0,0,,0,,,72,127
108216,note_on,2,0,0,,0,,,72,127
108216,note_on,0,0,0,,8,,,68,127
108216,note_on,0,0,0,,2,,,86,127
108332,note_off,116,0,0,,2,,,86,127
108334,note_on,2,0,0,,3,,,87,127
108450,note_off,116,0,0,,3,,,87,127
108452,note_on,2,0,0,,0,,,84,127
108568,note_off,116,0,0,,0,,,84,127
108568,note_off,0,0,0,,8,,,68,127
108568,note_off,0,0,0,,0,,,72,127
108570,note_on,2,0,0,,7,,,67,127
108570,note_on,0,0,0,,12,,,71,127
108570,note_on,0,0,0,,2,,,86,127
108932,note_off,362,0,0,,2,,,86,127
108932,note_off,0,0,0,,12,,,71,127
108932,note_off,0,0,0,,7,,,67,127
108947,note_on,15,0,0,,7,,,79,127
108947,note_on,0,0,0,,7,,,67,127
108947,note_on,0,0,0,,12,,,71,127
109300,note_off,353,0,0,,12,,,71,127
109300,note_off,0,0,0,,7,,,67,127
109302,note_on,2,0,0,,0,,,72,127
109302,note_on,0,0,0,,8,,,68,127
109405,note_off,103,0,0,,7,,,79,127
109420,note_on,15,0,0,,5,,,77,127
109536,note_off,116,0,0,,5,,,77,127
109538,note_on,2,0,0,,3,,,75,127
109654,note_off,116,0,0,,3,,,75,127
109654,note_off,0,0,0,,8,,,68,127
109654,note_off,0,0,0,,0,,,72,127
109656,note_on,2,0,0,,2,,,74,127
109656,note_on,0,0,0,,8,,,68,127
109656,note_on,0,0,0,,0,,,72,127
109772,note_off,116,0,0,,2,,,74,127
109774,note_on,2,0,0,,3,,,75,127
109877,note_off,103,0,0,,0,,,72,127
109890,note_off,13,0,0,,3,,,75,127
109892,note_on,2,0,0,,0,,,72,127
110008,note_off,116,0,0,,0,,,72,127
110008,note_off,0,0,0,,8,,,68,127
110010,note_on,2,0,0,,2,,,74,127
110010,note_on,0,0,0,,12,,,71,127
110010,note_on,0,0,0,,7,,,67,127
110363,note_off,353,0,0,,7,,,67,127
110363,note_off,0,0,0,,12,,,71,127
110380,note_on,17,0,0,,7,,,67,127
110498,note_on,118,0,0,,7,,,55,127
110601,note_off,103,0,0,,7,,,67,127
110614,note_off,13,0,0,,7,,,55,127
110616,note_on,2,0,0,,7,,,67,127
110732,note_off,116,0,0,,7,,,67,127
110734,note_on,2,0,0,,5,,,65,127
110852,note_on,118,0,0,,5,,,53,127
110955,note_off,103,0,0,,5,,,65,127
110968,note_off,13,0,0,,5,,,53,127
110970,note_on,2,0,0,,5,,,65,127
111086,note_off,116,0,0,,5,,,65,127
111088,note_on,2,0,0,,4,,,64,127
111206,note_on,118,0,0,,4,,,52,127
111309,note_off,103,0,0,,4,,,64,127
111322,note_off,13,0,0,,4,,,52,127
111324,note_on,2,0,0,,4,,,64,127
111440,note_off,116,0,0,,4,,,64,127
111442,note_on,2,0,0,,2,,,62,127
111560,note_on,118,0,0,,2,,,50,127
111663,note_off,103,0,0,,2,,,62,127
111676,note_off,13,0,0,,2,,,50,127
111678,note_on,2,0,0,,2,,,62,127
111794,note_off,116,0,0,,2,,,62,127
111796,note_on,2,0,0,,0,,,60,127
111914,note_on,118,0,0,,0,,,48,127
112017,note_off,103,0,0,,0,,,60,127
112030,note_off,13,0,0,,0,,,48,127
112032,note_on,2,0,0,,0,,,60,127
112148,note_off,116,0,0,,0,,,60,127
112150,note_on,2,0,0,,12,,,59,127
112268,note_on,118,0,0,,12,,,47,127
112371,note_off,103,0,0,,12,,,59,127
112384,note_off,13,0,0,,12,,,47,127
112386,note_on,2,0,0,,12,,,59,127
112502,note_off,116,0,0,,12,,,59,127
112504,note_on,2,0,0,,10,,,57,127
112622,note_on,118,0,0,,10,,,45,127
112725,note_off,103,0,0,,10,,,57,127
112738,note_off,13,0,0,,10,,,45,127
112740,note_on,2,0,0,,10,,,57,127
112856,note_off,116,0,0,,10,,,57,127
112858,note_on,2,0,0,,7,,,43,127
112858,note_on,0,0,0,,7,,,55,127
113196,note_off,338,0,0,,2,,,74,127
113362,note_on,166,0,0,,2,,,74,127
113560,note_off,198,0,0,,7,,,55,127
113560,note_off,0,0,0,,7,,,43,127
113561,note_off,1,0,0,,2,,,74,127
113567,note_on,6,0,0,,4,,,76,127
113624,note_off,57,0,0,,4,,,76,127
113626,note_on,2,0,0,,2,,,74,127
113683,note_off,57,0,0,,2,,,74,127
113685,note_on,2,0,0,,4,,,76,127
113742,note_off,57,0,0,,4,,,76,127
113744,note_on,2,0,0,,2,,,74,127
113801,note_off,57,0,0,,2,,,74,127
113803,note_on,2,0,0,,4,,,76,127
113860,note_off,57,0,0,,4,,,76,127
113862,note_on,2,0,0,,2,,,74,127
113919,note_off,57,0,0,,2,,,74,127
113921,note_on,2,0,0,,7,,,67,127
113921,note_on,0,0,0,,12,,,71,127
113921,note_on,0,0,0,,4,,,76,127
113978,note_off,57,0,0,,4,,,76,127
113980,note_on,2,0,0,,2,,,74,127
114037,note_off,57,0,0,,2,,,74,127
114039,note_on,2,0,0,,4,,,76,127
114096,note_off,57,0,0,,4,,,76,127
114098,note_on,2,0,0,,2,,,74,127
114155,note_off,57,0,0,,2,,,74,127
114157,note_on,2,0,0,,0,,,72,127
114214,note_off,57,0,0,,0,,,72,127
114216,note_on,2,0,0,,2,,,74,127
114273,note_off,57,0,0,,2,,,74,127
114273,note_off,0,0,0,,12,,,71,127
114273,note_off,0,0,0,,7,,,67,127
114275,note_on,2,0,0,,2,,,74,127
114275,note_on,0,0,0,,5,,,65,127
114275,note_on,0,0,0,,10,,,81,127
114628,note_off,353,0,0,,10,,,81,127
114628,note_off,0,0,0,,5,,,65,127
114628,note_off,0,0,0,,2,,,74,127
114630,note_on,2,0,0,,5,,,65,127
114630,note_on,0,0,0,,2,,,74,127
114630,note_on,0,0,0,,5,,,77,127
114983,note_off,353,0,0,,5,,,77,127
114983,note_off,0,0,0,,2,,,74,127
114983,note_off,0,0,0,,5,,,65,127
114992,note_on,9,0,0,,5,,,65,127
114992,note_on,0,0,0,,12,,,71,127
114992,note_on,0,0,0,,4,,,76,127
115049,note_off,57,0,0,,4,,,76,127
115051,note_on,2,0,0,,2,,,74,127
115108,note_off,57,0,0,,2,,,74,127
115110,note_on,2,0,0,,4,,,76,127
115167,note_off,57,0,0,,4,,,76,127
115169,note_on,2,0,0,,2,,,74,127
115226,note_off,57,0,0,,2,,,74,127
115228,note_on,2,0,0,,4,,,76,127
115285,note_off,57,0,0,,4,,,76,127
115287,note_on,2,0,0,,2,,,74,127
115344,note_off,57,0,0,,2,,,74,127
115344,note_off,0,0,0,,12,,,71,127
115344,note_off,0,0,0,,5,,,65,127
115346,note_on,2,0,0,,5,,,65,127
115346,note_on,0,0,0,,12,,,71,127
115346,note_on,0,0,0,,4,,,76,127
115403,note_off,57,0,0,,4,,,76,127
115405,note_on,2,0,0,,2,,,74,127
115462,note_off,57,0,0,,2,,,74,127
115464,note_on,2,0,0,,4,,,76,127
115521,note_off,57,0,0,,4,,,76,127
115523,note_on,2,0,0,,2,,,74,127
115580,note_off,57,0,0,,2,,,74,127
115582,note_on,2,0,0,,0,,,72,127
115639,note_off,57,0,0,,0,,,72,127
115641,note_on,2,0,0,,2,,,74,127
115698,note_off,57,0,0,,2,,,74,127
115698,note_off,0,0,0,,12,,,71,127
115698,note_off,0,0,0,,5,,,65,127
115700,note_on,2,0,0,,4,,,64,127
115700,note_on,0,0,0,,0,,,72,127
115700,note_on,0,0,0,,0,,,84,127
115816,note_off,116,0,0,,0,,,84,127
115818,note_on,2,0,0,,7,,,79,127
115934,note_off,116,0,0,,7,,,79,127
115936,note_on,2,0,0,,4,,,76,127
116052,note_off,116,0,0,,4,,,76,127
116052,note_off,0,0,0,,0,,,72,127
116052,note_off,0,0,0,,4,,,64,127
116054,note_on,2,0,0,,0,,,60,127
116054,note_on,0,0,0,,0,,,72,127
116172,note_on,118,0,0,,0,,,48,127
116275,note_off,103,0,0,,0,,,60,127
116288,note_off,13,0,0,,0,,,48,127
116290,note_on,2,0,0,,0,,,60,127
116406,note_off,116,0,0,,0,,,60,127
116408,note_on,2,0,0,,12,,,59,127
116526,note_on,118,0,0,,12,,,47,127
116629,note_off,103,0,0,,12,,,59,127
116642,note_off,13,0,0,,12,,,47,127
116644,note_on,2,0,0,,12,,,59,127
116760,note_off,116,0,0,,12,,,59,127
116762,note_on,2,0,0,,10,,,57,127
116880,note_on,118,0,0,,10,,,45,127
116983,note_off,103,0,0,,10,,,57,127
116996,note_off,13,0,0,,10,,,45,127
116998,note_on,2,0,0,,10,,,57,127
117114,note_off,116,0,0,,10,,,57,127
117116,note_on,2,0,0,,7,,,55,127
117234,note_on,118,0,0,,7,,,43,127
117337,note_off,103,0,0,,7,,,55,127
117350,note_off,13,0,0,,7,,,43,127
117352,note_on,2,0,0,,7,,,55,127
117468,note_off,116,0,0,,7,,,55,127
117470,note_on,2,0,0,,5,,,53,127
117588,note_on,118,0,0,,5,,,41,127
117691,note_off,103,0,0,,5,,,53,127
117704,note_off,13,0,0,,5,,,41,127
117706,note_on,2,0,0,,5,,,53,127
117822,note_off,116,0,0,,5,,,53,127
117824,note_on,2,0,0,,4,,,52,127
117942,note_on,118,0,0,,4,,,40,127
118045,note_off,103,0,0,,4,,,52,127
118058,note_off,13,0,0,,4,,,40,127
118060,note_on,2,0,0,,4,,,52,127
118176,note_off,116,0,0,,4,,,52,127
118178,note_on,2,0,0,,2,,,50,127
118296,note_on,118,0,0,,2,,,38,127
118399,note_off,103,0,0,,2,,,50,127
118412,note_off,13,0,0,,2,,,38,127
118414,note_on,2,0,0,,2,,,50,127
118530,note_off,116,0,0,,2,,,50,127
118532,note_on,2,0,0,,0,,,36,127
118532,note_on,0,0,0,,0,,,48,127
118885,note_off,353,0,0,,0,,,72,127
119023,note_on,138,0,0,,4,,,76,127
119233,note_off,210,0,0,,0,,,48,127
119233,note_off,0,0,0,,0,,,36,127
119253,note_off,20,0,0,,4,,,76,127
119270,note_on,17,0,0,,5,,,77,127
119327,note_off,57,0,0,,5,,,77,127
119329,note_on,2,0,0,,4,,,76,127
119386,note_off,57,0,0,,4,,,76,127
119388,note_on,2,0,0,,5,,,77,127
119445,note_off,57,0,0,,5,,,77,127
119447,note_on,2,0,0,,4,,,76,127
119504,note_off,57,0,0,,4,,,76,127
119506,note_on,2,0,0,,5,,,77,127
119563,note_off,57,0,0,,5,,,77,127
119565,note_on,2,0,0,,4,,,76,127
119622,note_off,57,0,0,,4,,,76,127
119624,note_on,2,0,0,,0,,,72,127
119624,note_on,0,0,0,,5,,,77,127
119681,note_off,57,0,0,,5,,,77,127
119683,note_on,2,0,0,,4,,,76,127
119740,note_off,57,0,0,,4,,,76,127
119742,note_on,2,0,0,,5,,,77,127
119799,note_off,57,0,0,,5,,,77,127
119801,note_on,2,0,0,,4,,,76,127
119858,note_off,57,0,0,,4,,,76,127
119860,note_on,2,0,0,,2,,,74,127
119917,note_off,57,0,0,,2,,,74,127
119919,note_on,2,0,0,,4,,,76,127
119976,note_off,57,0,0,,4,,,76,127
119976,note_off,0,0,0,,0,,,72,127
119993,note_on,17,0,0,,8,,,80,127
119993,note_on,0,0,0,,5,,,65,127
119993,note_on,0,0,0,,10,,,69,127
120109,note_off,116,0,0,,8,,,80,127
120111,note_on,2,0,0,,10,,,81,127
120227,note_off,116,0,0,,10,,,81,127
120229,note_on,2,0,0,,4,,,76,127
120345,note_off,116,0,0,,4,,,76,127
120345,note_off,0,0,0,,10,,,69,127
120345,note_off,0,0,0,,5,,,65,127
120347,note_on,2,0,0,,4,,,76,127
120347,note_on,0,0,0,,10,,,69,127
120347,note_on,0,0,0,,5,,,65,127
120463,note_off,116,0,0,,4,,,76,127
120465,note_on,2,0,0,,5,,,77,127
120581,note_off,116,0,0,,5,,,77,127
120583,note_on,2,0,0,,1,,,73,127
120699,note_off,116,0,0,,1,,,73,127
120699,note_off,0,0,0,,5,,,65,127
120699,note_off,0,0,0,,10,,,69,127
120701,note_on,2,0,0,,2,,,74,127
120701,note_on,0,0,0,,10,,,69,127
120701,note_on,0,0,0,,5,,,65,127
120817,note_off,116,0,0,,2,,,74,127
120819,note_on,2,0,0,,4,,,76,127
120935,note_off,116,0,0,,4,,,76,127
120937,note_on,2,0,0,,5,,,77,127
121053,note_off,116,0,0,,5,,,77,127
121053,note_off,0,0,0,,5,,,65,127
121053,note_off,0,0,0,,10,,,69,127
121055,note_on,2,0,0,,5,,,77,127
121055,note_on,0,0,0,,10,,,69,127
121055,note_on,0,0,0,,5,,,65,127
121171,note_off,116,0,0,,5,,,77,127
121173,note_on,2,0,0,,4,,,76,127
121289,note_off,116,0,0,,4,,,76,127
121291,note_on,2,0,0,,5,,,77,127
121407,note_off,116,0,0,,5,,,77,127
121407,note_off,0,0,0,,5,,,65,127
121407,note_off,0,0,0,,10,,,69,127
121409,note_on,2,0,0,,6,,,78,127
121409,note_on,0,0,0,,4,,,64,127
121409,note_on,0,0,0,,7,,,67,127
121525,note_off,116,0,0,,6,,,78,127
121527,note_on,2,0,0,,7,,,79,127
121643,note_off,116,0,0,,7,,,79,127
121645,note_on,2,0,0,,2,,,74,127
121761,note_off,116,0,0,,2,,,74,127
121761,note_off,0,0,0,,7,,,67,127
121761,note_off,0,0,0,,4,,,64,127
121763,note_on,2,0,0,,2,,,74,127
121763,note_on,0,0,0,,4,,,64,127
121763,note_on,0,0,0,,7,,,67,127
121879,note_off,116,0,0,,2,,,74,127
121881,note_on,2,0,0,,4,,,76,127
121997,note_off,116,0,0,,4,,,76,127
121999,note_on,2,0,0,,12,,,71,127
122115,note_off,116,0,0,,12,,,71,127
122115,note_off,0,0,0,,7,,,67,127
122115,note_off,0,0,0,,4,,,64,127
122117,note_on,2,0,0,,0,,,72,127
122117,note_on,0,0,0,,7,,,67,127
122117,note_on,0,0,0,,4,,,64,127
122233,note_off,116,0,0,,0,,,72,127
122235,note_on,2,0,0,,2,,,74,127
122351,note_off,116,0,0,,2,,,74,127
122353,note_on,2,0,0,,4,,,76,127
122469,note_off,116,0,0,,4,,,76,127
122469,note_off,0,0,0,,4,,,64,127
122469,note_off,0,0,0,,7,,,67,127
122471,note_on,2,0,0,,4,,,76,127
122471,note_on,0,0,0,,7,,,67,127
122471,note_on,0,0,0,,4,,,64,127
122587,note_off,116,0,0,,4,,,76,127
122589,note_on,2,0,0,,5,,,77,127
122705,note_off,116,0,0,,5,,,77,127
122707,note_on,2,0,0,,7,,,79,127
122823,note_off,116,0,0,,7,,,79,127
122823,note_off,0,0,0,,4,,,64,127
122823,note_off,0,0,0,,7,,,67,127
122825,note_on,2,0,0,,7,,,79,127
122825,note_on,0,0,0,,5,,,65,127
122825,note_on,0,0,0,,10,,,69,127
122941,note_off,116,0,0,,7,,,79,127
122943,note_on,2,0,0,,5,,,77,127
123059,note_off,116,0,0,,5,,,77,127
123061,note_on,2,0,0,,4,,,76,127
123177,note_off,116,0,0,,4,,,76,127
123177,note_off,0,0,0,,10,,,69,127
123177,note_off,0,0,0,,5,,,65,127
123179,note_on,2,0,0,,4,,,76,127
123179,note_on,0,0,0,,10,,,69,127
123179,note_on,0,0,0,,5,,,65,127
123295,note_off,116,0,0,,4,,,76,127
123297,note_on,2,0,0,,2,,,74,127
123413,note_off,116,0,0,,2,,,74,127
123415,note_on,2,0,0,,0,,,72,127
123531,note_off,116,0,0,,0,,,72,127
123531,note_off,0,0,0,,5,,,65,127
123531,note_off,0,0,0,,10,,,69,127
123533,note_on,2,0,0,,0,,,72,127
123533,note_on,0,0,0,,10,,,69,127
123533,note_on,0,0,0,,6,,,66,127
123649,note_off,116,0,0,,0,,,72,127
123651,note_on,2,0,0,,4,,,76,127
123767,note_off,116,0,0,,4,,,76,127
123769,note_on,2,0,0,,2,,,74,127
123885,note_off,116,0,0,,2,,,74,127
123885,note_off,0,0,0,,6,,,66,127
123885,note_off,0,0,0,,10,,,69,127
123887,note_on,2,0,0,,0,,,72,127
123887,note_on,0,0,0,,10,,,69,127
123887,note_on,0,0,0,,6,,,66,127
124003,note_off,116,0,0,,0,,,72,127
124005,note_on,2,0,0,,12,,,71,127
124108,note_off,103,0,0,,10,,,69,127
124121,note_off,13,0,0,,12,,,71,127
124123,note_on,2,0,0,,10,,,69,127
124239,note_off,116,0,0,,10,,,69,127
124239,note_off,0,0,0,,6,,,66,127
124241,note_on,2,0,0,,12,,,71,127
124241,note_on,0,0,0,,7,,,67,127
124594,note_off,353,0,0,,7,,,67,127
124596,note_on,2,0,0,,7,,,55,127
124712,note_off,116,0,0,,7,,,55,127
124714,note_on,2,0,0,,7,,,43,127
124830,note_off,116,0,0,,7,,,43,127
124832,note_on,2,0,0,,7,,,55,127
124948,note_off,116,0,0,,7,,,55,127
124950,note_on,2,0,0,,5,,,53,127
125066,note_off,116,0,0,,5,,,53,127
125068,note_on,2,0,0,,5,,,41,127
125184,note_off,116,0,0,,5,,,41,127
125186,note_on,2,0,0,,5,,,53,127
125302,note_off,116,0,0,,5,,,53,127
125304,note_on,2,0,0,,4,,,52,127
125420,note_off,116,0,0,,4,,,52,127
125422,note_on,2,0,0,,4,,,40,127
125538,note_off,116,0,0,,4,,,40,127
125540,note_on,2,0,0,,4,,,52,127
125656,note_off,116,0,0,,4,,,52,127
125658,note_on,2,0,0,,2,,,50,127
125774,note_off,116,0,0,,2,,,50,127
125776,note_on,2,0,0,,2,,,38,127
125892,note_off,116,0,0,,2,,,38,127
125894,note_on,2,0,0,,2,,,50,127
126010,note_off,116,0,0,,2,,,50,127
126012,note_on,2,0,0,,0,,,48,127
126128,note_off,116,0,0,,0,,,48,127
126130,note_on,2,0,0,,0,,,36,127
126246,note_off,116,0,0,,0,,,36,127
126248,note_on,2,0,0,,0,,,48,127
126364,note_off,116,0,0,,0,,,48,127
126366,note_on,2,0,0,,12,,,47,127
126482,note_off,116,0,0,,12,,,47,127
126484,note_on,2,0,0,,12,,,35,127
126600,note_off,116,0,0,,12,,,35,127
126602,note_on,2,0,0,,12,,,47,127
126718,note_off,116,0,0,,12,,,47,127
126720,note_on,2,0,0,,10,,,45,127
126836,note_off,116,0,0,,10,,,45,127
126838,note_on,2,0,0,,10,,,33,127
126954,note_off,116,0,0,,10,,,33,127
126956,note_on,2,0,0,,10,,,45,127
127078,note_off,122,0,0,,10,,,45,127
127082,note_on,4,0,0,,7,,,31,127
127082,note_on,0,0,0,,7,,,43,127
127427,note_off,345,0,0,,12,,,71,127
127591,note_on,164,0,0,,7,,,91,127
127613,note_off,22,0,0,,7,,,31,127
127783,note_off,170,0,0,,7,,,43,127
127944,note_off,161,0,0,,7,,,91,127
127946,note_on,2,0,0,,7,,,79,127
128299,note_off,353,0,0,,7,,,79,127
128301,note_on,2,0,0,,7,,,79,127
128301,note_on,0,0,0,,5,,,77,127
128417,note_off,116,0,0,,7,,,79,127
128419,note_on,2,0,0,,10,,,81,127
128535,note_off,116,0,0,,10,,,81,127
128537,note_on,2,0,0,,12,,,83,127
128653,note_off,116,0,0,,12,,,83,127
128653,note_off,0,0,0,,5,,,77,127
128655,note_on,2,0,0,,0,,,84,127
128655,note_on,0,0,0,,4,,,76,127
128771,note_off,116,0,0,,0,,,84,127
128773,note_on,2,0,0,,2,,,86,127
128889,note_off,116,0,0,,2,,,86,127
128891,note_on,2,0,0,,4,,,88,127
129007,note_off,116,0,0,,4,,,88,127
129007,note_off,0,0,0,,4,,,76,127
129009,note_on,2,0,0,,7,,,91,127
129009,note_on,0,0,0,,0,,,72,127
129362,note_off,353,0,0,,0,,,72,127
129362,note_off,0,0,0,,7,,,91,127
129364,note_on,2,0,0,,7,,,79,127
129364,note_on,0,0,0,,7,,,67,127
129717,note_off,353,0,0,,7,,,67,127
129717,note_off,0,0,0,,7,,,79,127
129719,note_on,2,0,0,,7,,,79,127
129719,note_on,0,0,0,,5,,,77,127
129835,note_off,116,0,0,,7,,,79,127
129837,note_on,2,0,0,,10,,,81,127
129953,note_off,116,0,0,,10,,,81,127
129955,note_on,2,0,0,,12,,,83,127
130071,note_off,116,0,0,,12,,,83,127
130071,note_off,0,0,0,,5,,,77,127
130073,note_on,2,0,0,,0,,,84,127
130073,note_on,0,0,0,,4,,,76,127
130189,note_off,116,0,0,,0,,,84,127
130191,note_on,2,0,0,,2,,,86,127
130307,note_off,116,0,0,,2,,,86,127
130309,note_on,2,0,0,,4,,,88,127
130425,note_off,116,0,0,,4,,,88,127
130425,note_off,0,0,0,,4,,,76,127
130427,note_on,2,0,0,,7,,,91,127
130427,note_on,0,0,0,,0,,,72,127
130780,note_off,353,0,0,,7,,,91,127
130797,note_on,17,0,0,,7,,,67,127
131135,note_off,338,0,0,,0,,,72,127
131150,note_off,15,0,0,,7,,,67,127
131152,note_on,2,0,0,,5,,,65,127
131152,note_on,0,0,0,,7,,,67,127
131268,note_off,116,0,0,,7,,,67,127
131270,note_on,2,0,0,,10,,,69,127
131386,note_off,116,0,0,,10,,,69,127
131388,note_on,2,0,0,,12,,,71,127
131504,note_off,116,0,0,,12,,,71,127
131504,note_off,0,0,0,,5,,,65,127
131506,note_on,2,0,0,,4,,,64,127
131506,note_on,0,0,0,,0,,,72,127
131622,note_off,116,0,0,,0,,,72,127
131624,note_on,2,0,0,,2,,,74,127
131740,note_off,116,0,0,,2,,,74,127
131742,note_on,2,0,0,,4,,,76,127
131858,note_off,116,0,0,,4,,,76,127
131858,note_off,0,0,0,,4,,,64,127
131860,note_on,2,0,0,,0,,,60,127
131860,note_on,0,0,0,,7,,,79,127
132213,note_off,353,0,0,,7,,,79,127
132213,note_off,0,0,0,,0,,,60,127
132215,note_on,2,0,0,,7,,,55,127
132215,note_on,0,0,0,,7,,,67,127
132568,note_off,353,0,0,,7,,,67,127
132568,note_off,0,0,0,,7,,,55,127
132570,note_on,2,0,0,,5,,,65,127
132570,note_on,0,0,0,,7,,,67,127
132686,note_off,116,0,0,,7,,,67,127
132688,note_on,2,0,0,,10,,,69,127
132804,note_off,116,0,0,,10,,,69,127
132806,note_on,2,0,0,,12,,,71,127
132922,note_off,116,0,0,,12,,,71,127
132922,note_off,0,0,0,,5,,,65,127
132924,note_on,2,0,0,,4,,,64,127
132924,note_on,0,0,0,,0,,,72,127
133040,note_off,116,0,0,,0,,,72,127
133042,note_on,2,0,0,,7,,,67,127
133158,note_off,116,0,0,,7,,,67,127
133160,note_on,2,0,0,,0,,,72,127
133276,note_off,116,0,0,,0,,,72,127
133276,note_off,0,0,0,,4,,,64,127
133278,note_on,2,0,0,,0,,,60,127
133278,note_on,0,0,0,,4,,,76,127
133394,note_off,116,0,0,,4,,,76,127
133396,note_on,2,0,0,,0,,,72,127
133512,note_off,116,0,0,,0,,,72,127
133518,note_on,6,0,0,,4,,,76,127
133634,note_off,116,0,0,,4,,,76,127
133653,note_on,19,0,0,,7,,,79,127
133769,note_off,116,0,0,,7,,,79,127
133771,note_on,2,0,0,,4,,,76,127
133808,note_off,37,0,0,,0,,,60,127
133887,note_off,79,0,0,,4,,,76,127
133889,note_on,2,0,0,,7,,,79,127
134005,note_off,116,0,0,,7,,,79,127
134007,note_on,2,0,0,,0,,,84,127
134007,note_on,0,0,0,,7,,,67,127
134007,note_on,0,0,0,,4,,,64,127
134360,note_off,353,0,0,,4,,,64,127
134360,note_off,0,0,0,,7,,,67,127
134360,note_off,0,0,0,,0,,,84,127
134362,note_on,2,0,0,,10,,,81,127
134362,note_on,0,0,0,,5,,,65,127
134362,note_on,0,0,0,,10,,,69,127
134478,note_off,116,0,0,,10,,,81,127
134480,note_on,2,0,0,,7,,,79,127
134596,note_off,116,0,0,,7,,,79,127
134598,note_on,2,0,0,,5,,,77,127
134714,note_off,116,0,0,,5,,,77,127
134714,note_off,0,0,0,,10,,,69,127
134714,note_off,0,0,0,,5,,,65,127
134716,note_on,2,0,0,,4,,,76,127
134716,note_on,0,0,0,,5,,,65,127
134716,note_on,0,0,0,,10,,,69,127
134832,note_off,116,0,0,,4,,,76,127
134834,note_on,2,0,0,,2,,,74,127
134950,note_off,116,0,0,,2,,,74,127
134952,note_on,2,0,0,,0,,,72,127
135068,note_off,116,0,0,,0,,,72,127
135068,note_off,0,0,0,,10,,,69,127
135068,note_off,0,0,0,,5,,,65,127
135070,note_on,2,0,0,,4,,,76,127
135070,note_on,0,0,0,,7,,,67,127
135127,note_off,57,0,0,,4,,,76,127
135129,note_on,2,0,0,,2,,,74,127
135186,note_off,57,0,0,,2,,,74,127
135188,note_on,2,0,0,,4,,,76,127
135245,note_off,57,0,0,,4,,,76,127
135247,note_on,2,0,0,,2,,,74,127
135304,note_off,57,0,0,,2,,,74,127
135306,note_on,2,0,0,,4,,,76,127
135363,note_off,57,0,0,,4,,,76,127
135365,note_on,2,0,0,,2,,,74,127
135422,note_off,57,0,0,,2,,,74,127
135424,note_on,2,0,0,,4,,,76,127
135424,note_on,0,0,0,,7,,,55,127
135481,note_off,57,0,0,,4,,,76,127
135483,note_on,2,0,0,,2,,,74,127
135540,note_off,57,0,0,,2,,,74,127
135542,note_on,2,0,0,,4,,,76,127
135599,note_off,57,0,0,,4,,,76,127
135601,note_on,2,0,0,,2,,,74,127
135658,note_off,57,0,0,,2,,,74,127
135660,note_on,2,0,0,,0,,,72,127
135717,note_off,57,0,0,,0,,,72,127
135719,note_on,2,0,0,,2,,,74,127
135771,note_off,52,0,0,,7,,,67,127
135777,note_off,6,0,0,,2,,,74,127
135777,note_off,0,0,0,,7,,,55,127
135783,note_on,6,0,0,,0,,,60,127
135783,note_on,0,0,0,,0,,,72,127
136171,note_off,388,0,0,,0,,,72,127
136191,note_on,20,0,0,,4,,,64,127
136191,note_on,0,0,0,,0,,,48,127
136191,note_on,0,0,0,,0,,,36,127
136198,note_off,7,0,0,,0,,,60,127
136311,note_on,113,0,0,,0,,,60,127
136427,note_off,116,0,0,,0,,,60,127
136429,note_on,2,0,0,,7,,,55,127
136542,note_off,113,0,0,,4,,,64,127
136544,note_off,2,0,0,,0,,,36,127
136544,note_off,0,0,0,,0,,,48,127
136546,note_off,2,0,0,,7,,,55,127
136548,note_on,2,0,0,,0,,,36,127
136548,note_on,0,0,0,,0,,,48,127
136548,note_on,0,0,0,,5,,,65,127
136666,note_on,118,0,0,,10,,,57,127
136782,note_off,116,0,0,,10,,,57,127
136784,note_on,2,0,0,,0,,,60,127
136898,note_off,114,0,0,,5,,,65,127
136900,note_off,2,0,0,,0,,,60,127
136900,note_off,0,0,0,,0,,,48,127
136900,note_off,0,0,0,,0,,,36,127
136902,note_on,2,0,0,,0,,,36,127
136902,note_on,0,0,0,,0,,,48,127
136902,note_on,0,0,0,,2,,,62,127
137020,note_on,118,0,0,,7,,,55,127
137136,note_off,116,0,0,,7,,,55,127
137138,note_on,2,0,0,,12,,,59,127
137252,note_off,114,0,0,,2,,,62,127
137254,note_off,2,0,0,,12,,,59,127
137256,note_on,2,0,0,,4,,,64,127
137374,note_on,118,0,0,,7,,,55,127
137490,note_off,116,0,0,,7,,,55,127
137492,note_on,2,0,0,,0,,,60,127
137606,note_off,114,0,0,,4,,,64,127
137608,note_off,2,0,0,,0,,,60,127
137608,note_off,0,0,0,,0,,,48,127
137608,note_off,0,0,0,,0,,,36,127
137610,note_on,2,0,0,,0,,,36,127
137610,note_on,0,0,0,,0,,,48,127
137610,note_on,0,0,0,,4,,,64,127
137728,note_on,118,0,0,,7,,,55,127
137844,note_off,116,0,0,,7,,,55,127
137846,note_on,2,0,0,,0,,,60,127
137960,note_off,114,0,0,,4,,,64,127
137962,note_off,2,0,0,,0,,,60,127
137962,note_off,0,0,0,,0,,,48,127
137962,note_off,0,0,0,,0,,,36,127
137964,note_on,2,0,0,,0,,,36,127
137964,note_on,0,0,0,,0,,,48,127
137964,note_on,0,0,0,,5,,,65,127
138082,note_on,118,0,0,,10,,,57,127
138198,note_off,116,0,0,,10,,,57,127
138200,note_on,2,0,0,,0,,,60,127
138314,note_off,114,0,0,,5,,,65,127
138316,note_off,2,0,0,,0,,,60,127
138316,note_off,0,0,0,,0,,,48,127
138316,note_off,0,0,0,,0,,,36,127
138318,note_on,2,0,0,,0,,,36,127
138318,note_on,0,0,0,,0,,,48,127
138318,note_on,0,0,0,,2,,,62,127
138436,note_on,118,0,0,,7,,,55,127
138552,note_off,116,0,0,,7,,,55,127
138554,note_on,2,0,0,,12,,,59,127
138668,note_off,114,0,0,,2,,,62,127
138670,note_off,2,0,0,,12,,,59,127
138670,note_off,0,0,0,,0,,,48,127
138670,note_off,0,0,0,,0,,,36,127
138672,note_on,2,0,0,,0,,,36,127
138672,note_on,0,0,0,,0,,,48,127
138672,note_on,0,0,0,,4,,,64,127
138672,note_on,0,0,0,,0,,,60,127
139025,note_off,353,0,0,,0,,,60,127
139060,note_off,35,0,0,,4,,,64,127
139071,note_on,11,0,0,,7,,,91,127
139204,note_off,133,0,0,,0,,,36,127
139374,note_off,170,0,0,,0,,,48,127
139424,note_off,50,0,0,,7,,,91,127
139426,note_on,2,0,0,,4,,,88,127
139542,note_off,116,0,0,,4,,,88,127
139544,note_on,2,0,0,,2,,,86,127
139660,note_off,116,0,0,,2,,,86,127
139662,note_on,2,0,0,,0,,,84,127
139778,note_off,116,0,0,,0,,,84,127
139780,note_on,2,0,0,,11,,,82,127
139780,note_on,0,0,0,,0,,,72,127
139780,note_on,0,0,0,,7,,,79,127
140133,note_off,353,0,0,,7,,,79,127
140133,note_off,0,0,0,,0,,,72,127
140133,note_off,0,0,0,,11,,,82,127
140135,note_on,2,0,0,,10,,,81,127
140135,note_on,0,0,0,,1,,,73,127
140135,note_on,0,0,0,,7,,,79,127
140488,note_off,353,0,0,,7,,,79,127
140488,note_off,0,0,0,,1,,,73,127
140488,note_off,0,0,0,,10,,,81,127
140490,note_on,2,0,0,,4,,,88,127
140490,note_on,0,0,0,,1,,,73,127
140490,note_on,0,0,0,,7,,,79,127
140843,note_off,353,0,0,,7,,,79,127
140843,note_off,0,0,0,,1,,,73,127
140843,note_off,0,0,0,,4,,,88,127
140845,note_on,2,0,0,,1,,,85,127
140845,note_on,0,0,0,,7,,,79,127
140845,note_on,0,0,0,,1,,,73,127
140961,note_off,116,0,0,,1,,,85,127
140963,note_on,2,0,0,,12,,,83,127
141079,note_off,116,0,0,,12,,,83,127
141081,note_on,2,0,0,,10,,,81,127
141197,note_off,116,0,0,,10,,,81,127
141197,note_off,0,0,0,,1,,,73,127
141197,note_off,0,0,0,,7,,,79,127
141199,note_on,2,0,0,,7,,,79,127
141199,note_on,0,0,0,,1,,,73,127
141552,note_off,353,0,0,,1,,,73,127
141552,note_off,0,0,0,,7,,,79,127
141554,note_on,2,0,0,,6,,,78,127
141554,note_on,0,0,0,,2,,,74,127
141907,note_off,353,0,0,,2,,,74,127
141907,note_off,0,0,0,,6,,,78,127
141924,note_on,17,0,0,,6,,,66,127
141924,note_on,0,0,0,,10,,,69,127
141924,note_on,0,0,0,,10,,,81,127
142277,note_off,353,0,0,,10,,,81,127
142277,note_off,0,0,0,,10,,,69,127
142277,note_off,0,0,0,,6,,,66,127
142279,note_on,2,0,0,,6,,,66,127
142279,note_on,0,0,0,,10,,,69,127
142279,note_on,0,0,0,,6,,,78,127
142395,note_off,116,0,0,,6,,,78,127
142397,note_on,2,0,0,,4,,,76,127
142513,note_off,116,0,0,,4,,,76,127
142515,note_on,2,0,0,,2,,,74,127
142631,note_off,116,0,0,,2,,,74,127
142631,note_off,0,0,0,,10,,,69,127
142631,note_off,0,0,0,,6,,,66,127
142633,note_on,2,0,0,,6,,,66,127
142633,note_on,0,0,0,,10,,,69,127
142633,note_on,0,0,0,,0,,,72,127
142986,note_off,353,0,0,,0,,,72,127
142986,note_off,0,0,0,,10,,,69,127
142986,note_off,0,0,0,,6,,,66,127
142992,note_on,6,0,0,,7,,,67,127
142992,note_on,0,0,0,,12,,,71,127
143360,note_off,368,0,0,,12,,,71,127
143360,note_off,0,0,0,,7,,,67,127
143372,note_on,12,0,0,,2,,,74,127
143372,note_on,0,0,0,,12,,,71,127
143372,note_on,0,0,0,,2,,,86,127
143725,note_off,353,0,0,,2,,,86,127
143725,note_off,0,0,0,,12,,,71,127
143725,note_off,0,0,0,,2,,,74,127
143727,note_on,2,0,0,,2,,,74,127
143727,note_on,0,0,0,,12,,,71,127
143727,note_on,0,0,0,,12,,,83,127
143843,note_off,116,0,0,,12,,,83,127
143845,note_on,2,0,0,,10,,,81,127
143961,note_off,116,0,0,,10,,,81,127
143963,note_on,2,0,0,,7,,,79,127
144079,note_off,116,0,0,,7,,,79,127
144079,note_off,0,0,0,,12,,,71,127
144079,note_off,0,0,0,,2,,,74,127
144081,note_on,2,0,0,,2,,,74,127
144081,note_on,0,0,0,,12,,,71,127
144081,note_on,0,0,0,,5,,,77,127
144434,note_off,353,0,0,,5,,,77,127
144434,note_off,0,0,0,,12,,,71,127
144434,note_off,0,0,0,,2,,,74,127
144436,note_on,2,0,0,,0,,,72,127
144436,note_on,0,0,0,,4,,,76,127
144805,note_off,369,0,0,,4,,,76,127
144822,note_off,17,0,0,,0,,,72,127
144826,note_on,4,0,0,,4,,,64,127
144826,note_on,0,0,0,,0,,,48,127
144826,note_on,0,0,0,,0,,,36,127
144946,note_on,120,0,0,,7,,,55,127
145062,note_off,116,0,0,,7,,,55,127
145064,note_on,2,0,0,,0,,,60,127
145177,note_off,113,0,0,,4,,,64,127
145179,note_off,2,0,0,,0,,,36,127
145179,note_off,0,0,0,,0,,,48,127
145181,note_off,2,0,0,,0,,,60,127
145183,note_on,2,0,0,,0,,,36,127
145183,note_on,0,0,0,,0,,,48,127
145183,note_on,0,0,0,,5,,,65,127
145301,note_on,118,0,0,,10,,,57,127
145417,note_off,116,0,0,,10,,,57,127
145419,note_on,2,0,0,,0,,,60,127
145533,note_off,114,0,0,,5,,,65,127
145535,note_off,2,0,0,,0,,,60,127
145535,note_off,0,0,0,,0,,,48,127
145535,note_off,0,0,0,,0,,,36,127
145537,note_on,2,0,0,,0,,,36,127
145537,note_on,0,0,0,,0,,,48,127
145537,note_on,0,0,0,,2,,,62,127
145655,note_on,118,0,0,,7,,,55,127
145771,note_off,116,0,0,,7,,,55,127
145773,note_on,2,0,0,,12,,,59,127
145887,note_off,114,0,0,,2,,,62,127
145889,note_off,2,0,0,,12,,,59,127
145891,note_on,2,0,0,,4,,,64,127
146009,note_on,118,0,0,,7,,,55,127
146125,note_off,116,0,0,,7,,,55,127
146127,note_on,2,0,0,,0,,,60,127
146241,note_off,114,0,0,,4,,,64,127
146243,note_off,2,0,0,,0,,,60,127
146243,note_off,0,0,0,,0,,,48,127
146243,note_off,0,0,0,,0,,,36,127
146245,note_on,2,0,0,,0,,,36,127
146245,note_on,0,0,0,,0,,,48,127
146245,note_on,0,0,0,,4,,,64,127
146363,note_on,118,0,0,,7,,,55,127
146479,note_off,116,0,0,,7,,,55,127
146481,note_on,2,0,0,,0,,,60,127
146595,note_off,114,0,0,,4,,,64,127
146597,note_off,2,0,0,,0,,,60,127
146597,note_off,0,0,0,,0,,,48,127
146597,note_off,0,0,0,,0,,,36,127
146599,note_on,2,0,0,,0,,,36,127
146599,note_on,0,0,0,,0,,,48,127
146599,note_on,0,0,0,,5,,,65,127
146717,note_on,118,0,0,,10,,,57,127
146833,note_off,116,0,0,,10,,,57,127
146835,note_on,2,0,0,,0,,,60,127
146949,note_off,114,0,0,,5,,,65,127
146951,note_off,2,0,0,,0,,,60,127
146951,note_off,0,0,0,,0,,,48,127
146951,note_off,0,0,0,,0,,,36,127
146953,note_on,2,0,0,,0,,,36,127
146953,note_on,0,0,0,,0,,,48,127
146953,note_on,0,0,0,,2,,,62,127
147071,note_on,118,0,0,,7,,,55,127
147187,note_off,116,0,0,,7,,,55,127
147189,note_on,2,0,0,,12,,,59,127
147303,note_off,114,0,0,,2,,,62,127
147305,note_off,2,0,0,,12,,,59,127
147305,note_off,0,0,0,,0,,,48,127
147305,note_off,0,0,0,,0,,,36,127
147307,note_on,2,0,0,,0,,,48,127
147307,note_on,0,0,0,,0,,,36,127
147307,note_on,0,0,0,,0,,,60,127
147307,note_on,0,0,0,,4,,,64,127
147660,note_off,353,0,0,,0,,,36,127
147660,note_off,0,0,0,,0,,,48,127
147677,note_off,17,0,0,,4,,,64,127
147677,note_off,0,0,0,,0,,,60,127
147721,note_on,44,0,0,,4,,,76,127
147721,note_on,0,0,0,,0,,,84,127
147837,note_off,116,0,0,,0,,,84,127
147839,note_on,2,0,0,,2,,,86,127
147955,note_off,116,0,0,,2,,,86,127
147957,note_on,2,0,0,,4,,,88,127
148073,note_off,116,0,0,,4,,,88,127
148073,note_off,0,0,0,,4,,,76,127
148075,note_on,2,0,0,,5,,,77,127
148075,note_on,0,0,0,,4,,,88,127
148132,note_off,57,0,0,,4,,,88,127
148134,note_on,2,0,0,,2,,,86,127
148191,note_off,57,0,0,,2,,,86,127
148193,note_on,2,0,0,,4,,,88,127
148250,note_off,57,0,0,,4,,,88,127
148252,note_on,2,0,0,,2,,,86,127
148309,note_off,57,0,0,,2,,,86,127
148311,note_on,2,0,0,,4,,,88,127
148368,note_off,57,0,0,,4,,,88,127
148370,note_on,2,0,0,,2,,,86,127
148427,note_off,57,0,0,,2,,,86,127
148427,note_off,0,0,0,,5,,,77,127
148429,note_on,2,0,0,,7,,,79,127
148429,note_on,0,0,0,,4,,,88,127
148486,note_off,57,0,0,,4,,,88,127
148488,note_on,2,0,0,,2,,,86,127
148545,note_off,57,0,0,,2,,,86,127
148547,note_on,2,0,0,,4,,,88,127
148604,note_off,57,0,0,,4,,,88,127
148606,note_on,2,0,0,,2,,,86,127
148663,note_off,57,0,0,,2,,,86,127
148665,note_on,2,0,0,,4,,,88,127
148722,note_off,57,0,0,,4,,,88,127
148724,note_on,2,0,0,,2,,,86,127
148781,note_off,57,0,0,,2,,,86,127
148781,note_off,0,0,0,,7,,,79,127
148783,note_on,2,0,0,,4,,,76,127
148783,note_on,0,0,0,,0,,,84,127
149136,note_off,353,0,0,,0,,,84,127
149136,note_off,0,0,0,,4,,,76,127
149153,note_on,17,0,0,,0,,,72,127
149153,note_on,0,0,0,,4,,,64,127
149269,note_off,116,0,0,,0,,,72,127
149271,note_on,2,0,0,,2,,,74,127
149387,note_off,116,0,0,,2,,,74,127
149389,note_on,2,0,0,,4,,,76,127
149505,note_off,116,0,0,,4,,,76,127
149505,note_off,0,0,0,,4,,,64,127
149507,note_on,2,0,0,,4,,,76,127
149507,note_on,0,0,0,,5,,,65,127
149564,note_off,57,0,0,,4,,,76,127
149566,note_on,2,0,0,,2,,,74,127
149623,note_off,57,0,0,,2,,,74,127
149625,note_on,2,0,0,,4,,,76,127
149682,note_off,57,0,0,,4,,,76,127
149684,note_on,2,0,0,,2,,,74,127
149741,note_off,57,0,0,,2,,,74,127
149743,note_on,2,0,0,,4,,,76,127
149800,note_off,57,0,0,,4,,,76,127
149802,note_on,2,0,0,,2,,,74,127
149859,note_off,57,0,0,,2,,,74,127
149859,note_off,0,0,0,,5,,,65,127
149861,note_on,2,0,0,,4,,,76,127
149861,note_on,0,0,0,,7,,,67,127
149918,note_off,57,0,0,,4,,,76,127
149920,note_on,2,0,0,,2,,,74,127
149977,note_off,57,0,0,,2,,,74,127
149979,note_on,2,0,0,,4,,,76,127
150036,note_off,57,0,0,,4,,,76,127
150038,note_on,2,0,0,,2,,,74,127
150095,note_off,57,0,0,,2,,,74,127
150097,note_on,2,0,0,,4,,,76,127
150154,note_off,57,0,0,,4,,,76,127
150156,note_on,2,0,0,,2,,,74,127
150213,note_off,57,0,0,,2,,,74,127
150213,note_off,0,0,0,,7,,,67,127
150215,note_on,2,0,0,,0,,,72,127
150215,note_on,0,0,0,,4,,,64,127
150568,note_off,353,0,0,,4,,,64,127
150568,note_off,0,0,0,,0,,,72,127
150585,note_on,17,0,0,,0,,,48,127
150585,note_on,0,0,0,,0,,,60,127
150701,note_off,116,0,0,,0,,,60,127
150703,note_on,2,0,0,,2,,,62,127
150819,note_off,116,0,0,,2,,,62,127
150821,note_on,2,0,0,,4,,,64,127
150937,note_off,116,0,0,,4,,,64,127
150937,note_off,0,0,0,,0,,,48,127
150939,note_on,2,0,0,,5,,,41,127
150939,note_on,0,0,0,,5,,,53,127
150939,note_on,0,0,0,,4,,,64,127
151009,note_on,70,0,0,,2,,,62,127
151026,note_off,17,0,0,,4,,,64,127
151081,note_on,55,0,0,,4,,,64,127
151096,note_off,15,0,0,,2,,,62,127
151151,note_on,55,0,0,,2,,,62,127
151168,note_off,17,0,0,,4,,,64,127
151223,note_on,55,0,0,,4,,,64,127
151238,note_off,15,0,0,,2,,,62,127
151292,note_off,54,0,0,,5,,,53,127
151292,note_off,0,0,0,,5,,,41,127
151294,note_on,2,0,0,,7,,,43,127
151294,note_on,0,0,0,,7,,,55,127
151294,note_on,0,0,0,,2,,,62,127
151311,note_off,17,0,0,,4,,,64,127
151365,note_on,54,0,0,,4,,,64,127
151382,note_off,17,0,0,,2,,,62,127
151437,note_on,55,0,0,,2,,,62,127
151452,note_off,15,0,0,,4,,,64,127
151507,note_on,55,0,0,,0,,,60,127
151524,note_off,17,0,0,,2,,,62,127
151579,note_on,55,0,0,,2,,,62,127
151594,note_off,15,0,0,,0,,,60,127
151648,note_off,54,0,0,,7,,,55,127
151648,note_off,0,0,0,,7,,,43,127
151650,note_on,2,0,0,,0,,,36,127
151650,note_on,0,0,0,,0,,,48,127
151650,note_on,0,0,0,,0,,,60,127
151652,note_off,2,0,0,,2,,,62,127
152003,note_off,351,0,0,,0,,,48,127
152003,note_off,0,0,0,,0,,,36,127
152011,note_off,8,0,0,,0,,,60,127
152019,note_on,8,0,0,,0,,,84,127
152019,note_on,0,0,0,,0,,,60,127
152135,note_off,116,0,0,,0,,,60,127
152135,note_off,0,0,0,,0,,,84,127
152137,note_on,2,0,0,,0,,,72,127
152137,note_on,0,0,0,,0,,,48,127
152253,note_off,116,0,0,,0,,,48,127
152253,note_off,0,0,0,,0,,,72,127
152255,note_on,2,0,0,,0,,,84,127
152255,note_on,0,0,0,,0,,,60,127
152371,note_off,116,0,0,,0,,,60,127
152371,note_off,0,0,0,,0,,,84,127
152373,note_on,2,0,0,,12,,,83,127
152373,note_on,0,0,0,,12,,,59,127
152489,note_off,116,0,0,,12,,,59,127
152489,note_off,0,0,0,,12,,,83,127
152491,note_on,2,0,0,,12,,,71,127
152491,note_on,0,0,0,,12,,,47,127
152607,note_off,116,0,0,,12,,,47,127
152607,note_off,0,0,0,,12,,,71,127
152609,note_on,2,0,0,,12,,,83,127
152609,note_on,0,0,0,,12,,,59,127
152725,note_off,116,0,0,,12,,,59,127
152725,note_off,0,0,0,,12,,,83,127
152727,note_on,2,0,0,,10,,,81,127
152727,note_on,0,0,0,,10,,,57,127
152843,note_off,116,0,0,,10,,,57,127
152843,note_off,0,0,0,,10,,,81,127
152845,note_on,2,0,0,,10,,,69,127
152845,note_on,0,0,0,,10,,,45,127
152961,note_off,116,0,0,,10,,,45,127
152961,note_off,0,0,0,,10,,,69,127
152963,note_on,2,0,0,,10,,,81,127
152963,note_on,0,0,0,,10,,,57,127
153079,note_off,116,0,0,,10,,,57,127
153079,note_off,0,0,0,,10,,,81,127
153081,note_on,2,0,0,,7,,,79,127
153081,note_on,0,0,0,,7,,,55,127
153197,note_off,116,0,0,,7,,,55,127
153197,note_off,0,0,0,,7,,,79,127
153199,note_on,2,0,0,,7,,,67,127
153199,note_on,0,0,0,,7,,,43,127
153315,note_off,116,0,0,,7,,,43,127
153315,note_off,0,0,0,,7,,,67,127
153317,note_on,2,0,0,,7,,,79,127
153317,note_on,0,0,0,,7,,,55,127
153433,note_off,116,0,0,,7,,,55,127
153433,note_off,0,0,0,,7,,,79,127
153435,note_on,2,0,0,,5,,,77,127
153435,note_on,0,0,0,,5,,,53,127
153551,note_off,116,0,0,,5,,,53,127
153551,note_off,0,0,0,,5,,,77,127
153553,note_on,2,0,0,,5,,,65,127
153553,note_on,0,0,0,,5,,,41,127
153669,note_off,116,0,0,,5,,,41,127
153669,note_off,0,0,0,,5,,,65,127
153671,note_on,2,0,0,,5,,,77,127
153671,note_on,0,0,0,,5,,,53,127
153787,note_off,116,0,0,,5,,,53,127
153787,note_off,0,0,0,,5,,,77,127
153789,note_on,2,0,0,,4,,,76,127
153789,note_on,0,0,0,,4,,,52,127
153905,note_off,116,0,0,,4,,,52,127
153905,note_off,0,0,0,,4,,,76,127
153907,note_on,2,0,0,,4,,,64,127
153907,note_on,0,0,0,,4,,,40,127
154023,note_off,116,0,0,,4,,,40,127
154023,note_off,0,0,0,,4,,,64,127
154025,note_on,2,0,0,,4,,,76,127
154025,note_on,0,0,0,,4,,,52,127
154141,note_off,116,0,0,,4,,,52,127
154141,note_off,0,0,0,,4,,,76,127
154143,note_on,2,0,0,,2,,,74,127
154143,note_on,0,0,0,,2,,,50,127
154259,note_off,116,0,0,,2,,,50,127
154259,note_off,0,0,0,,2,,,74,127
154261,note_on,2,0,0,,2,,,62,127
154261,note_on,0,0,0,,2,,,38,127
154377,note_off,116,0,0,,2,,,38,127
154377,note_off,0,0,0,,2,,,62,127
154383,note_on,6,0,0,,2,,,50,127
154383,note_on,0,0,0,,2,,,74,127
154509,note_off,126,0,0,,2,,,74,127
154509,note_off,0,0,0,,2,,,50,127
154527,note_on,18,0,0,,0,,,84,127
154527,note_on,0,0,0,,0,,,48,127
154527,note_on,0,0,0,,0,,,36,127
154643,note_off,116,0,0,,0,,,84,127
154645,note_on,2,0,0,,7,,,79,127
154761,note_off,116,0,0,,7,,,79,127
154763,note_on,2,0,0,,4,,,76,127
154879,note_off,116,0,0,,4,,,76,127
154881,note_on,2,0,0,,0,,,72,127
154997,note_off,116,0,0,,0,,,72,127
154999,note_on,2,0,0,,7,,,67,127
155058,note_off,59,0,0,,0,,,36,127
155115,note_off,57,0,0,,7,,,67,127
155117,note_on,2,0,0,,4,,,64,127
155233,note_off,116,0,0,,4,,,64,127
155233,note_off,0,0,0,,0,,,48,127
155235,note_on,2,0,0,,0,,,60,127
155353,note_on,118,0,0,,7,,,55,127
155469,note_off,116,0,0,,7,,,55,127
155471,note_on,2,0,0,,4,,,52,127
155585,note_off,114,0,0,,0,,,60,127
155587,note_off,2,0,0,,4,,,52,127
155589,note_on,2,0,0,,0,,,48,127
155707,note_on,118,0,0,,7,,,43,127
155823,note_off,116,0,0,,7,,,43,127
155825,note_on,2,0,0,,4,,,40,127
155939,note_off,114,0,0,,0,,,48,127
155941,note_off,2,0,0,,4,,,40,127
155943,note_on,2,0,0,,0,,,84,127
155943,note_on,0,0,0,,0,,,36,127
156059,note_off,116,0,0,,0,,,84,127
156061,note_on,2,0,0,,7,,,79,127
156177,note_off,116,0,0,,7,,,79,127
156179,note_on,2,0,0,,4,,,76,127
156295,note_off,116,0,0,,4,,,76,127
156295,note_off,0,0,0,,0,,,36,127
156297,note_on,2,0,0,,0,,,72,127
156297,note_on,0,0,0,,4,,,52,127
156297,note_on,0,0,0,,4,,,40,127
156413,note_off,116,0,0,,0,,,72,127
156415,note_on,2,0,0,,7,,,67,127
156531,note_off,116,0,0,,7,,,67,127
156533,note_on,2,0,0,,4,,,64,127
156649,note_off,116,0,0,,4,,,64,127
156649,note_off,0,0,0,,4,,,40,127
156649,note_off,0,0,0,,4,,,52,127
156651,note_on,2,0,0,,4,,,76,127
156651,note_on,0,0,0,,5,,,53,127
156651,note_on,0,0,0,,5,,,41,127
156708,note_off,57,0,0,,4,,,76,127
156710,note_on,2,0,0,,2,,,74,127
156767,note_off,57,0,0,,2,,,74,127
156769,note_on,2,0,0,,4,,,76,127
156826,note_off,57,0,0,,4,,,76,127
156828,note_on,2,0,0,,2,,,74,127
156885,note_off,57,0,0,,2,,,74,127
156887,note_on,2,0,0,,4,,,76,127
156944,note_off,57,0,0,,4,,,76,127
156946,note_on,2,0,0,,2,,,74,127
157003,note_off,57,0,0,,2,,,74,127
157003,note_off,0,0,0,,5,,,41,127
157003,note_off,0,0,0,,5,,,53,127
157005,note_on,2,0,0,,4,,,76,127
157005,note_on,0,0,0,,7,,,55,127
157005,note_on,0,0,0,,7,,,43,127
157062,note_off,57,0,0,,4,,,76,127
157064,note_on,2,0,0,,2,,,74,127
157121,note_off,57,0,0,,2,,,74,127
157123,note_on,2,0,0,,4,,,76,127
157180,note_off,57,0,0,,4,,,76,127
157182,note_on,2,0,0,,2,,,74,127
157239,note_off,57,0,0,,2,,,74,127
157241,note_on,2,0,0,,4,,,76,127
157298,note_off,57,0,0,,4,,,76,127
157300,note_on,2,0,0,,2,,,74,127
157357,note_off,57,0,0,,2,,,74,127
157357,note_off,0,0,0,,7,,,43,127
157357,note_off,0,0,0,,7,,,55,127
157359,note_on,2,0,0,,0,,,72,127
157359,note_on,0,0,0,,0,,,48,127
157359,note_on,0,0,0,,0,,,36,127
157712,note_off,353,0,0,,0,,,36,127
157712,note_off,0,0,0,,0,,,48,127
157712,note_off,0,0,0,,0,,,72,127
157729,note_on,17,0,0,,0,,,60,127
157729,note_on,0,0,0,,4,,,88,127
157729,note_on,0,0,0,,4,,,76,127
157847,note_on,118,0,0,,0,,,48,127
157950,note_off,103,0,0,,0,,,60,127
157963,note_off,13,0,0,,0,,,48,127
157965,note_on,2,0,0,,0,,,60,127
158081,note_off,116,0,0,,0,,,60,127
158081,note_off,0,0,0,,4,,,76,127
158081,note_off,0,0,0,,4,,,88,127
158083,note_on,2,0,0,,12,,,59,127
158083,note_on,0,0,0,,4,,,88,127
158083,note_on,0,0,0,,4,,,76,127
158201,note_on,118,0,0,,12,,,47,127
158304,note_off,103,0,0,,12,,,59,127
158317,note_off,13,0,0,,12,,,47,127
158319,note_on,2,0,0,,12,,,59,127
158435,note_off,116,0,0,,12,,,59,127
158435,note_off,0,0,0,,4,,,76,127
158435,note_off,0,0,0,,4,,,88,127
158437,note_on,2,0,0,,10,,,57,127
158437,note_on,0,0,0,,4,,,88,127
158437,note_on,0,0,0,,4,,,76,127
158555,note_on,118,0,0,,10,,,45,127
158658,note_off,103,0,0,,10,,,57,127
158671,note_off,13,0,0,,10,,,45,127
158673,note_on,2,0,0,,10,,,57,127
158789,note_off,116,0,0,,10,,,57,127
158789,note_off,0,0,0,,4,,,76,127
158789,note_off,0,0,0,,4,,,88,127
158791,note_on,2,0,0,,7,,,55,127
158791,note_on,0,0,0,,7,,,79,127
158791,note_on,0,0,0,,7,,,91,127
158909,note_on,118,0,0,,7,,,43,127
159012,note_off,103,0,0,,7,,,55,127
159025,note_off,13,0,0,,7,,,43,127
159027,note_on,2,0,0,,7,,,55,127
159143,note_off,116,0,0,,7,,,55,127
159143,note_off,0,0,0,,7,,,91,127
159143,note_off,0,0,0,,7,,,79,127
159145,note_on,2,0,0,,5,,,53,127
159145,note_on,0,0,0,,7,,,91,127
159145,note_on,0,0,0,,7,,,79,127
159263,note_on,118,0,0,,5,,,41,127
159366,note_off,103,0,0,,5,,,53,127
159379,note_off,13,0,0,,5,,,41,127
159381,note_on,2,0,0,,5,,,53,127
159497,note_off,116,0,0,,5,,,53,127
159497,note_off,0,0,0,,7,,,79,127
159497,note_off,0,0,0,,7,,,91,127
159499,note_on,2,0,0,,4,,,52,127
159499,note_on,0,0,0,,7,,,79,127
159499,note_on,0,0,0,,7,,,91,127
159617,note_on,118,0,0,,4,,,40,127
159720,note_off,103,0,0,,4,,,52,127
159733,note_off,13,0,0,,4,,,40,127
159735,note_on,2,0,0,,4,,,52,127
159851,note_off,116,0,0,,4,,,52,127
159851,note_off,0,0,0,,7,,,91,127
159851,note_off,0,0,0,,7,,,79,127
159853,note_on,2,0,0,,2,,,50,127
159853,note_on,0,0,0,,12,,,83,127
159853,note_on,0,0,0,,12,,,71,127
159971,note_on,118,0,0,,2,,,38,127
160074,note_off,103,0,0,,2,,,50,127
160087,note_off,13,0,0,,2,,,38,127
160089,note_on,2,0,0,,2,,,50,127
160205,note_off,116,0,0,,2,,,50,127
160205,note_off,0,0,0,,12,,,71,127
160205,note_off,0,0,0,,12,,,83,127
160222,note_on,17,0,0,,0,,,72,127
160222,note_on,0,0,0,,0,,,84,127
160222,note_on,0,0,0,,0,,,48,127
160222,note_on,0,0,0,,0,,,36,127
160338,note_off,116,0,0,,0,,,84,127
160340,note_on,2,0,0,,7,,,79,127
160456,note_off,116,0,0,,7,,,79,127
160458,note_on,2,0,0,,4,,,76,127
160572,note_off,114,0,0,,0,,,72,127
160574,note_off,2,0,0,,4,,,76,127
160576,note_on,2,0,0,,0,,,72,127
160694,note_on,118,0,0,,7,,,67,127
160753,note_off,59,0,0,,0,,,36,127
160753,note_off,0,0,0,,0,,,48,127
160810,note_off,57,0,0,,7,,,67,127
160812,note_on,2,0,0,,4,,,64,127
160926,note_off,114,0,0,,0,,,72,127
160928,note_off,2,0,0,,4,,,64,127
160930,note_on,2,0,0,,0,,,60,127
161048,note_on,118,0,0,,7,,,55,127
161164,note_off,116,0,0,,7,,,55,127
161166,note_on,2,0,0,,4,,,52,127
161280,note_off,114,0,0,,0,,,60,127
161282,note_off,2,0,0,,4,,,52,127
161284,note_on,2,0,0,,0,,,48,127
161402,note_on,118,0,0,,7,,,43,127
161518,note_off,116,0,0,,7,,,43,127
161520,note_on,2,0,0,,4,,,40,127
161634,note_off,114,0,0,,0,,,48,127
161636,note_off,2,0,0,,4,,,40,127
161653,note_on,17,0,0,,0,,,36,127
161653,note_on,0,0,0,,0,,,84,127
161786,note_on,133,0,0,,7,,,79,127
161788,note_off,2,0,0,,0,,,84,127
161902,note_off,114,0,0,,7,,,79,127
161904,note_on,2,0,0,,4,,,76,127
162006,note_off,102,0,0,,0,,,36,127
162021,note_off,15,0,0,,4,,,76,127
162023,note_on,2,0,0,,0,,,72,127
162023,note_on,0,0,0,,4,,,40,127
162139,note_off,116,0,0,,0,,,72,127
162141,note_on,2,0,0,,7,,,67,127
162257,note_off,116,0,0,,7,,,67,127
162259,note_on,2,0,0,,4,,,64,127
162375,note_off,116,0,0,,4,,,64,127
162375,note_off,0,0,0,,4,,,40,127
162392,note_on,17,0,0,,5,,,41,127
162392,note_on,0,0,0,,4,,,76,127
162449,note_off,57,0,0,,4,,,76,127
162451,note_on,2,0,0,,2,,,74,127
162508,note_off,57,0,0,,2,,,74,127
162510,note_on,2,0,0,,4,,,76,127
162567,note_off,57,0,0,,4,,,76,127
162569,note_on,2,0,0,,2,,,74,127
162626,note_off,57,0,0,,2,,,74,127
162628,note_on,2,0,0,,4,,,76,127
162685,note_off,57,0,0,,4,,,76,127
162687,note_on,2,0,0,,2,,,74,127
162744,note_off,57,0,0,,2,,,74,127
162744,note_off,0,0,0,,5,,,41,127
162746,note_on,2,0,0,,7,,,43,127
162746,note_on,0,0,0,,4,,,76,127
162803,note_off,57,0,0,,4,,,76,127
162805,note_on,2,0,0,,2,,,74,127
162862,note_off,57,0,0,,2,,,74,127
162864,note_on,2,0,0,,4,,,76,127
162921,note_off,57,0,0,,4,,,76,127
162923,note_on,2,0,0,,2,,,74,127
162980,note_off,57,0,0,,2,,,74,127
162986,note_on,6,0,0,,0,,,72,127
163043,note_off,57,0,0,,0,,,72,127
163050,note_on,7,0,0,,2,,,74,127
163107,note_off,57,0,0,,2,,,74,127
163113,note_off,6,0,0,,7,,,43,127
163119,note_on,6,0,0,,0,,,48,127
163119,note_on,0,0,0,,0,,,72,127
163839,note_off,720,0,0,,0,,,72,127
163839,note_off,0,0,0,,0,,,48,127
163855,note_on,16,0,0,,11,,,82,127
163855,note_on,0,0,0,,4,,,64,127
163855,note_on,0,0,0,,7,,,67,127
163975,note_off,120,0,0,,11,,,82,127
163980,note_on,5,0,0,,7,,,79,127
164100,note_off,120,0,0,,7,,,79,127
164106,note_on,6,0,0,,0,,,72,127
164220,note_off,114,0,0,,7,,,67,127
164220,note_off,0,0,0,,4,,,64,127
164226,note_off,6,0,0,,0,,,72,127
164231,note_on,5,0,0,,10,,,81,127
164231,note_on,0,0,0,,5,,,65,127
164231,note_on,0,0,0,,10,,,69,127
164597,note_off,366,0,0,,10,,,69,127
164597,note_off,0,0,0,,5,,,65,127
164597,note_off,0,0,0,,10,,,81,127
164607,note_on,10,0,0,,7,,,79,127
164607,note_on,0,0,0,,7,,,67,127
164607,note_on,0,0,0,,4,,,64,127
164973,note_off,366,0,0,,4,,,64,127
164973,note_off,0,0,0,,7,,,67,127
164973,note_off,0,0,0,,7,,,79,127
164983,note_on,10,0,0,,12,,,71,127
164983,note_on,0,0,0,,5,,,65,127
164983,note_on,0,0,0,,2,,,62,127
165103,note_off,120,0,0,,12,,,71,127
165109,note_on,6,0,0,,2,,,74,127
165229,note_off,120,0,0,,2,,,74,127
165234,note_on,5,0,0,,5,,,77,127
165348,note_off,114,0,0,,2,,,62,127
165348,note_off,0,0,0,,5,,,65,127
165354,note_off,6,0,0,,5,,,77,127
165360,note_on,6,0,0,,4,,,76,127
165360,note_on,0,0,0,,4,,,64,127
165360,note_on,0,0,0,,0,,,60,127
165480,note_off,120,0,0,,4,,,76,127
165486,note_on,6,0,0,,7,,,79,127
165606,note_off,120,0,0,,7,,,79,127
165611,note_on,5,0,0,,0,,,72,127
165726,note_off,115,0,0,,0,,,60,127
165726,note_off,0,0,0,,4,,,64,127
165731,note_off,5,0,0,,0,,,72,127
165737,note_on,6,0,0,,4,,,76,127
165737,note_on,0,0,0,,5,,,41,127
165795,note_off,58,0,0,,4,,,76,127
165800,note_on,5,0,0,,2,,,74,127
165858,note_off,58,0,0,,2,,,74,127
165863,note_on,5,0,0,,4,,,76,127
165921,note_off,58,0,0,,4,,,76,127
165925,note_on,4,0,0,,2,,,74,127
165983,note_off,58,0,0,,2,,,74,127
165989,note_on,6,0,0,,4,,,76,127
166047,note_off,58,0,0,,4,,,76,127
166052,note_on,5,0,0,,2,,,74,127
166104,note_off,52,0,0,,5,,,41,127
166110,note_off,6,0,0,,2,,,74,127
166114,note_on,4,0,0,,4,,,76,127
166114,note_on,0,0,0,,7,,,43,127
166172,note_off,58,0,0,,4,,,76,127
166177,note_on,5,0,0,,2,,,74,127
166235,note_off,58,0,0,,2,,,74,127
166240,note_on,5,0,0,,4,,,76,127
166298,note_off,58,0,0,,4,,,76,127
166303,note_on,5,0,0,,2,,,74,127
166361,note_off,58,0,0,,2,,,74,127
166366,note_on,5,0,0,,0,,,72,127
166424,note_off,58,0,0,,0,,,72,127
166429,note_on,5,0,0,,2,,,74,127
166481,note_off,52,0,0,,7,,,43,127
166487,note_off,6,0,0,,2,,,74,127
166495,note_on,8,0,0,,0,,,48,127
166495,note_on,0,0,0,,0,,,72,127
167021,note_off,526,0,0,,0,,,72,127
167021,note_off,0,0,0,,0,,,48,127
167030,note_on,9,0,0,,4,,,52,127
167030,note_on,0,0,0,,7,,,55,127
167030,note_on,0,0,0,,11,,,70,127
167155,note_off,125,0,0,,11,,,70,127
167161,note_on,6,0,0,,7,,,67,127
167286,note_off,125,0,0,,7,,,67,127
167291,note_on,5,0,0,,0,,,60,127
167412,note_off,121,0,0,,7,,,55,127
167412,note_off,0,0,0,,4,,,52,127
167416,note_off,4,0,0,,0,,,60,127
167422,note_on,6,0,0,,5,,,53,127
167422,note_on,0,0,0,,10,,,57,127
167422,note_on,0,0,0,,10,,,69,127
167802,note_off,380,0,0,,10,,,69,127
167802,note_off,0,0,0,,10,,,57,127
167802,note_off,0,0,0,,5,,,53,127
167813,note_on,11,0,0,,4,,,52,127
167813,note_on,0,0,0,,7,,,55,127
167813,note_on,0,0,0,,7,,,67,127
168193,note_off,380,0,0,,7,,,67,127
168193,note_off,0,0,0,,7,,,55,127
168193,note_off,0,0,0,,4,,,52,127
168204,note_on,11,0,0,,5,,,53,127
168204,note_on,0,0,0,,2,,,50,127
168204,note_on,0,0,0,,12,,,59,127
168329,note_off,125,0,0,,12,,,59,127
168335,note_on,6,0,0,,2,,,62,127
168460,note_off,125,0,0,,2,,,62,127
168465,note_on,5,0,0,,5,,,65,127
168586,note_off,121,0,0,,2,,,50,127
168586,note_off,0,0,0,,5,,,53,127
168590,note_off,4,0,0,,5,,,65,127
168596,note_on,6,0,0,,0,,,48,127
168596,note_on,0,0,0,,4,,,52,127
168596,note_on,0,0,0,,4,,,64,127
168721,note_off,125,0,0,,4,,,64,127
168727,note_on,6,0,0,,7,,,67,127
168852,note_off,125,0,0,,7,,,67,127
168857,note_on,5,0,0,,0,,,60,127
168977,note_off,120,0,0,,4,,,52,127
168977,note_off,0,0,0,,0,,,48,127
168982,note_off,5,0,0,,0,,,60,127
168989,note_on,7,0,0,,5,,,41,127
168989,note_on,0,0,0,,5,,,53,127
168989,note_on,0,0,0,,4,,,64,127
169065,note_on,76,0,0,,2,,,62,127
169082,note_off,17,0,0,,4,,,64,127
169145,note_on,63,0,0,,4,,,64,127
169158,note_off,13,0,0,,2,,,62,127
169223,note_on,65,0,0,,2,,,62,127
169238,note_off,15,0,0,,4,,,64,127
169303,note_on,65,0,0,,4,,,64,127
169316,note_off,13,0,0,,2,,,62,127
169371,note_off,55,0,0,,5,,,53,127
169371,note_off,0,0,0,,5,,,41,127
169381,note_on,10,0,0,,7,,,55,127
169381,note_on,0,0,0,,7,,,43,127
169381,note_on,0,0,0,,2,,,62,127
169395,note_off,14,0,0,,4,,,64,127
169459,note_on,64,0,0,,4,,,64,127
169474,note_off,15,0,0,,2,,,62,127
169538,note_on,64,0,0,,2,,,62,127
169552,note_off,14,0,0,,4,,,64,127
169616,note_on,64,0,0,,0,,,60,127
169631,note_off,15,0,0,,2,,,62,127
169695,note_on,64,0,0,,2,,,62,127
169709,note_off,14,0,0,,0,,,60,127
169763,note_off,54,0,0,,7,,,43,127
169763,note_off,0,0,0,,7,,,55,127
169781,note_off,18,0,0,,2,,,62,127
169795,note_on,14,0,0,,0,,,60,127
169795,note_on,0,0,0,,0,,,48,127
169795,note_on,0,0,0,,0,,,36,127
171791,note_off,1996,0,0,,0,,,36,127
171791,note_off,0,0,0,,0,,,48,127
171791,note_off,0,0,0,,0,,,60,127
178176,end_of_track,6385,1,0,,,,,,
