tick,type,time,meta,track,program,channel,pitch,tempo,note,velocity
0,copyright,0,1,0,,,,,,
0,program_change,0,0,0,6,0,,,,
0,pitchwheel,0,0,0,,0,0,,,
0,program_change,0,0,0,6,1,,,,
0,pitchwheel,0,0,0,,1,-590,,,
0,program_change,0,0,0,6,2,,,,
0,pitchwheel,0,0,0,,2,-272,,,
0,program_change,0,0,0,6,3,,,,
0,pitchwheel,0,0,0,,3,-353,,,
0,program_change,0,0,0,6,4,,,,
0,pitchwheel,0,0,0,,4,-560,,,
0,program_change,0,0,0,6,5,,,,
0,pitchwheel,0,0,0,,5,-80,,,
0,program_change,0,0,0,6,6,,,,
0,pitchwheel,0,0,0,,6,-625,,,
0,program_change,0,0,0,6,7,,,,
0,pitchwheel,0,0,0,,7,-130,,,
0,program_change,0,0,0,6,8,,,,
0,pitchwheel,0,0,0,,8,-512,,,
0,program_change,0,0,0,6,10,,,,
0,pitchwheel,0,0,0,,10,-464,,,
0,program_change,0,0,0,6,11,,,,
0,pitchwheel,0,0,0,,11,-208,,,
0,program_change,0,0,0,6,12,,,,
0,pitchwheel,0,0,0,,12,-553,,,
0,set_tempo,0,1,0,,,,500000,,
48,note_on,48,0,0,,0,,,72,127
179,note_off,131,0,0,,0,,,72,127
196,note_on,17,0,0,,7,,,67,127
319,note_off,123,0,0,,7,,,67,127
344,note_on,25,0,0,,4,,,76,127
467,note_off,123,0,0,,4,,,76,127
492,note_on,25,0,0,,0,,,72,127
615,note_off,123,0,0,,0,,,72,127
640,note_on,25,0,0,,7,,,79,127
763,note_off,123,0,0,,7,,,79,127
788,note_on,25,0,0,,4,,,76,127
911,note_off,123,0,0,,4,,,76,127
936,note_on,25,0,0,,0,,,84,127
1059,note_off,123,0,0,,0,,,84,127
1084,note_on,25,0,0,,7,,,79,127
1207,note_off,123,0,0,,7,,,79,127
1232,note_on,25,0,0,,4,,,88,127
1377,note_off,145,0,0,,4,,,88,127
1380,note_on,3,0,0,,0,,,84,127
1503,note_off,123,0,0,,0,,,84,127
1528,note_on,25,0,0,,7,,,91,127
1823,note_on,295,0,0,,7,,,79,127
1897,note_off,74,0,0,,7,,,91,127
1971,note_on,74,0,0,,4,,,76,127
2116,note_off,145,0,0,,4,,,76,127
2116,note_off,0,0,0,,7,,,79,127
2119,note_on,3,0,0,,5,,,77,127
2119,note_on,0,0,0,,10,,,81,127
2264,note_off,145,0,0,,5,,,77,127
2267,note_on,3,0,0,,2,,,74,127
2412,note_off,145,0,0,,2,,,74,127
2412,note_off,0,0,0,,10,,,81,127
2415,note_on,3,0,0,,7,,,79,127
2415,note_on,0,0,0,,12,,,83,127
2560,note_off,145,0,0,,7,,,79,127
2563,note_on,3,0,0,,5,,,77,127
2708,note_off,145,0,0,,5,,,77,127
2708,note_off,0,0,0,,12,,,83,127
2711,note_on,3,0,0,,4,,,76,127
2711,note_on,0,0,0,,0,,,84,127
2839,note_off,128,0,0,,0,,,84,127
2859,note_on,20,0,0,,7,,,79,127
2987,note_off,128,0,0,,7,,,79,127
3004,note_off,17,0,0,,4,,,76,127
3007,note_on,3,0,0,,2,,,74,127
3007,note_on,0,0,0,,4,,,88,127
3135,note_off,128,0,0,,4,,,88,127
3155,note_on,20,0,0,,0,,,84,127
3283,note_off,128,0,0,,0,,,84,127
3300,note_off,17,0,0,,2,,,74,127
3303,note_on,3,0,0,,0,,,72,127
3303,note_on,0,0,0,,7,,,91,127
3595,note_off,292,0,0,,7,,,91,127
3595,note_off,0,0,0,,0,,,72,127
3598,note_on,3,0,0,,7,,,79,127
3746,note_on,148,0,0,,4,,,76,127
3891,note_off,145,0,0,,4,,,76,127
3891,note_off,0,0,0,,7,,,79,127
3894,note_on,3,0,0,,5,,,77,127
3894,note_on,0,0,0,,10,,,81,127
4039,note_off,145,0,0,,5,,,77,127
4042,note_on,3,0,0,,2,,,74,127
4187,note_off,145,0,0,,2,,,74,127
4187,note_off,0,0,0,,10,,,81,127
4190,note_on,3,0,0,,7,,,79,127
4190,note_on,0,0,0,,12,,,83,127
4335,note_off,145,0,0,,7,,,79,127
4338,note_on,3,0,0,,5,,,77,127
4483,note_off,145,0,0,,5,,,77,127
4483,note_off,0,0,0,,12,,,83,127
4486,note_on,3,0,0,,4,,,76,127
4486,note_on,0,0,0,,0,,,84,127
4631,note_off,145,0,0,,0,,,84,127
4634,note_on,3,0,0,,2,,,86,127
4779,note_off,145,0,0,,2,,,86,127
4779,note_off,0,0,0,,4,,,76,127
4782,note_on,3,0,0,,2,,,74,127
4782,note_on,0,0,0,,4,,,88,127
4927,note_off,145,0,0,,4,,,88,127
4930,note_on,3,0,0,,5,,,89,127
5075,note_off,145,0,0,,5,,,89,127
5075,note_off,0,0,0,,2,,,74,127
5078,note_on,3,0,0,,0,,,72,127
5078,note_on,0,0,0,,7,,,91,127
5226,note_on,148,0,0,,7,,,79,127
5371,note_off,145,0,0,,7,,,79,127
5371,note_off,0,0,0,,7,,,91,127
5371,note_off,0,0,0,,0,,,72,127
5374,note_on,3,0,0,,5,,,65,127
5374,note_on,0,0,0,,10,,,81,127
5519,note_off,145,0,0,,10,,,81,127
5522,note_on,3,0,0,,5,,,89,127
5667,note_off,145,0,0,,5,,,89,127
5667,note_off,0,0,0,,5,,,65,127
5670,note_on,3,0,0,,7,,,67,127
5670,note_on,0,0,0,,4,,,88,127
5815,note_off,145,0,0,,4,,,88,127
5818,note_on,3,0,0,,2,,,86,127
5963,note_off,145,0,0,,2,,,86,127
5963,note_off,0,0,0,,7,,,67,127
5966,note_on,3,0,0,,7,,,55,127
5966,note_on,0,0,0,,0,,,84,127
6111,note_off,145,0,0,,0,,,84,127
6114,note_on,3,0,0,,12,,,83,127
6259,note_off,145,0,0,,12,,,83,127
6259,note_off,0,0,0,,7,,,55,127
6262,note_on,3,0,0,,0,,,60,127
6262,note_on,0,0,0,,0,,,84,127
7093,note_off,831,0,0,,0,,,60,127
7147,note_off,54,0,0,,0,,,84,127
7165,note_on,18,0,0,,0,,,36,127
7313,note_on,148,0,0,,4,,,64,127
7458,note_off,145,0,0,,4,,,64,127
7461,note_on,3,0,0,,4,,,64,127
7461,note_on,0,0,0,,7,,,67,127
7606,note_off,145,0,0,,0,,,36,127
7609,note_on,3,0,0,,2,,,50,127
7754,note_off,145,0,0,,2,,,50,127
7754,note_off,0,0,0,,7,,,67,127
7754,note_off,0,0,0,,4,,,64,127
7757,note_on,3,0,0,,2,,,62,127
7757,note_on,0,0,0,,5,,,65,127
7757,note_on,0,0,0,,12,,,47,127
7902,note_off,145,0,0,,12,,,47,127
7905,note_on,3,0,0,,7,,,43,127
8050,note_off,145,0,0,,7,,,43,127
8053,note_on,3,0,0,,0,,,36,127
8127,note_off,74,0,0,,5,,,65,127
8127,note_off,0,0,0,,2,,,62,127
8201,note_on,74,0,0,,0,,,60,127
8201,note_on,0,0,0,,4,,,64,127
8346,note_off,145,0,0,,4,,,64,127
8346,note_off,0,0,0,,0,,,60,127
8349,note_on,3,0,0,,7,,,67,127
8349,note_on,0,0,0,,4,,,64,127
8494,note_off,145,0,0,,0,,,36,127
8497,note_on,3,0,0,,2,,,50,127
8642,note_off,145,0,0,,2,,,50,127
8642,note_off,0,0,0,,4,,,64,127
8642,note_off,0,0,0,,7,,,67,127
8645,note_on,3,0,0,,5,,,65,127
8645,note_on,0,0,0,,2,,,62,127
8645,note_on,0,0,0,,12,,,47,127
8790,note_off,145,0,0,,12,,,47,127
8793,note_on,3,0,0,,7,,,43,127
8938,note_off,145,0,0,,7,,,43,127
8941,note_on,3,0,0,,0,,,36,127
9046,note_off,105,0,0,,2,,,62,127
9046,note_off,0,0,0,,5,,,65,127
9089,note_on,43,0,0,,4,,,64,127
9089,note_on,0,0,0,,0,,,60,127
9234,note_off,145,0,0,,0,,,60,127
9234,note_off,0,0,0,,4,,,64,127
9237,note_on,3,0,0,,4,,,64,127
9237,note_on,0,0,0,,7,,,67,127
9382,note_off,145,0,0,,0,,,36,127
9385,note_on,3,0,0,,2,,,50,127
9530,note_off,145,0,0,,2,,,50,127
9530,note_off,0,0,0,,7,,,67,127
9530,note_off,0,0,0,,4,,,64,127
9533,note_on,3,0,0,,2,,,62,127
9533,note_on,0,0,0,,5,,,65,127
9533,note_on,0,0,0,,12,,,47,127
9678,note_off,145,0,0,,12,,,47,127
9681,note_on,3,0,0,,7,,,43,127
9826,note_off,145,0,0,,7,,,43,127
9826,note_off,0,0,0,,5,,,65,127
9826,note_off,0,0,0,,2,,,62,127
9829,note_on,3,0,0,,4,,,64,127
9829,note_on,0,0,0,,0,,,36,127
9829,note_on,0,0,0,,0,,,48,127
9974,note_off,145,0,0,,4,,,64,127
9977,note_on,3,0,0,,2,,,62,127
10122,note_off,145,0,0,,2,,,62,127
10122,note_off,0,0,0,,0,,,48,127
10122,note_off,0,0,0,,0,,,36,127
10125,note_on,3,0,0,,0,,,60,127
10125,note_on,0,0,0,,2,,,38,127
10125,note_on,0,0,0,,2,,,50,127
10270,note_off,145,0,0,,0,,,60,127
10273,note_on,3,0,0,,12,,,59,127
10418,note_off,145,0,0,,12,,,59,127
10418,note_off,0,0,0,,2,,,50,127
10418,note_off,0,0,0,,2,,,38,127
10421,note_on,3,0,0,,0,,,60,127
10421,note_on,0,0,0,,4,,,40,127
10421,note_on,0,0,0,,4,,,52,127
10566,note_off,145,0,0,,0,,,60,127
10569,note_on,3,0,0,,7,,,55,127
10714,note_off,145,0,0,,7,,,55,127
10714,note_off,0,0,0,,4,,,52,127
10714,note_off,0,0,0,,4,,,40,127
10717,note_on,3,0,0,,10,,,57,127
10717,note_on,0,0,0,,5,,,53,127
10717,note_on,0,0,0,,5,,,41,127
10862,note_off,145,0,0,,10,,,57,127
10865,note_on,3,0,0,,0,,,60,127
11010,note_off,145,0,0,,0,,,60,127
11010,note_off,0,0,0,,5,,,41,127
11010,note_off,0,0,0,,5,,,53,127
11013,note_on,3,0,0,,12,,,59,127
11013,note_on,0,0,0,,2,,,38,127
11013,note_on,0,0,0,,2,,,50,127
11273,note_off,260,0,0,,12,,,59,127
11305,note_off,32,0,0,,2,,,50,127
11305,note_off,0,0,0,,2,,,38,127
11308,note_on,3,0,0,,2,,,62,127
11308,note_on,0,0,0,,0,,,36,127
11308,note_on,0,0,0,,0,,,48,127
11379,note_off,71,0,0,,2,,,62,127
11382,note_on,3,0,0,,0,,,60,127
11453,note_off,71,0,0,,0,,,60,127
11456,note_on,3,0,0,,12,,,59,127
11527,note_off,71,0,0,,12,,,59,127
11530,note_on,3,0,0,,0,,,60,127
11601,note_off,71,0,0,,0,,,60,127
11601,note_off,0,0,0,,0,,,48,127
11601,note_off,0,0,0,,0,,,36,127
11604,note_on,3,0,0,,2,,,62,127
11604,note_on,0,0,0,,7,,,43,127
11604,note_on,0,0,0,,7,,,55,127
11749,note_off,145,0,0,,2,,,62,127
11752,note_on,3,0,0,,12,,,59,127
11897,note_off,145,0,0,,12,,,59,127
11897,note_off,0,0,0,,7,,,55,127
11897,note_off,0,0,0,,7,,,43,127
11900,note_on,3,0,0,,2,,,62,127
11900,note_on,0,0,0,,4,,,40,127
11900,note_on,0,0,0,,4,,,52,127
11971,note_off,71,0,0,,2,,,62,127
11974,note_on,3,0,0,,0,,,60,127
12045,note_off,71,0,0,,0,,,60,127
12048,note_on,3,0,0,,2,,,62,127
12119,note_off,71,0,0,,2,,,62,127
12122,note_on,3,0,0,,0,,,60,127
12193,note_off,71,0,0,,0,,,60,127
12193,note_off,0,0,0,,4,,,52,127
12193,note_off,0,0,0,,4,,,40,127
12196,note_on,3,0,0,,2,,,62,127
12196,note_on,0,0,0,,0,,,36,127
12196,note_on,0,0,0,,0,,,48,127
12267,note_off,71,0,0,,2,,,62,127
12270,note_on,3,0,0,,0,,,60,127
12341,note_off,71,0,0,,0,,,60,127
12344,note_on,3,0,0,,12,,,59,127
12415,note_off,71,0,0,,12,,,59,127
12418,note_on,3,0,0,,0,,,60,127
12489,note_off,71,0,0,,0,,,60,127
12489,note_off,0,0,0,,0,,,48,127
12489,note_off,0,0,0,,0,,,36,127
12492,note_on,3,0,0,,2,,,62,127
12492,note_on,0,0,0,,7,,,43,127
12492,note_on,0,0,0,,7,,,55,127
12637,note_off,145,0,0,,2,,,62,127
12640,note_on,3,0,0,,12,,,59,127
12785,note_off,145,0,0,,12,,,59,127
12785,note_off,0,0,0,,7,,,55,127
12785,note_off,0,0,0,,7,,,43,127
12788,note_on,3,0,0,,2,,,62,127
12788,note_on,0,0,0,,4,,,40,127
12788,note_on,0,0,0,,4,,,52,127
12834,note_off,46,0,0,,2,,,62,127
12837,note_on,3,0,0,,0,,,60,127
12883,note_off,46,0,0,,0,,,60,127
12886,note_on,3,0,0,,2,,,62,127
12932,note_off,46,0,0,,2,,,62,127
12935,note_on,3,0,0,,0,,,60,127
13080,note_off,145,0,0,,4,,,52,127
13080,note_off,0,0,0,,4,,,40,127
13083,note_on,3,0,0,,0,,,36,127
13083,note_on,0,0,0,,0,,,48,127
13228,note_off,145,0,0,,0,,,60,127
13231,note_on,3,0,0,,12,,,59,127
13302,note_off,71,0,0,,12,,,59,127
13305,note_on,3,0,0,,0,,,60,127
13376,note_off,71,0,0,,0,,,60,127
13376,note_off,0,0,0,,0,,,48,127
13376,note_off,0,0,0,,0,,,36,127
13379,note_on,3,0,0,,0,,,60,127
13379,note_on,0,0,0,,7,,,43,127
13810,note_off,431,0,0,,0,,,60,127
13822,note_on,12,0,0,,2,,,62,127
14262,note_off,440,0,0,,7,,,43,127
14560,note_off,298,0,0,,2,,,62,127
14855,note_on,295,0,0,,2,,,74,127
14855,note_on,0,0,0,,5,,,77,127
14855,note_on,0,0,0,,11,,,70,127
15147,note_off,292,0,0,,11,,,70,127
15147,note_off,0,0,0,,5,,,77,127
15147,note_off,0,0,0,,2,,,74,127
15150,note_on,3,0,0,,2,,,74,127
15150,note_on,0,0,0,,5,,,77,127
15150,note_on,0,0,0,,11,,,70,127
15442,note_off,292,0,0,,11,,,70,127
15442,note_off,0,0,0,,5,,,77,127
15442,note_off,0,0,0,,2,,,74,127
15445,note_on,3,0,0,,2,,,74,127
15445,note_on,0,0,0,,5,,,77,127
15445,note_on,0,0,0,,11,,,70,127
15737,note_off,292,0,0,,11,,,70,127
15737,note_off,0,0,0,,5,,,77,127
15737,note_off,0,0,0,,2,,,74,127
15740,note_on,3,0,0,,2,,,74,127
15740,note_on,0,0,0,,5,,,77,127
15740,note_on,0,0,0,,8,,,68,127
15740,note_on,0,0,0,,0,,,72,127
16032,note_off,292,0,0,,0,,,72,127
16032,note_off,0,0,0,,8,,,68,127
16032,note_off,0,0,0,,5,,,77,127
16032,note_off,0,0,0,,2,,,74,127
16035,note_on,3,0,0,,2,,,74,127
16035,note_on,0,0,0,,5,,,77,127
16035,note_on,0,0,0,,8,,,68,127
16035,note_on,0,0,0,,0,,,72,127
16327,note_off,292,0,0,,0,,,72,127
16327,note_off,0,0,0,,8,,,68,127
16327,note_off,0,0,0,,5,,,77,127
16327,note_off,0,0,0,,2,,,74,127
16330,note_on,3,0,0,,2,,,74,127
16330,note_on,0,0,0,,5,,,77,127
16330,note_on,0,0,0,,0,,,72,127
16330,note_on,0,0,0,,8,,,68,127
16622,note_off,292,0,0,,8,,,68,127
16622,note_off,0,0,0,,0,,,72,127
16622,note_off,0,0,0,,5,,,77,127
16622,note_off,0,0,0,,2,,,74,127
16625,note_on,3,0,0,,7,,,67,127
16625,note_on,0,0,0,,12,,,71,127
16625,note_on,0,0,0,,5,,,77,127
16696,note_off,71,0,0,,5,,,77,127
16699,note_on,3,0,0,,7,,,79,127
16770,note_off,71,0,0,,7,,,79,127
16773,note_on,3,0,0,,8,,,80,127
16918,note_off,145,0,0,,8,,,80,127
16918,note_off,0,0,0,,12,,,71,127
16918,note_off,0,0,0,,7,,,67,127
16921,note_on,3,0,0,,7,,,67,127
16921,note_on,0,0,0,,12,,,71,127
16921,note_on,0,0,0,,7,,,79,127
17066,note_off,145,0,0,,7,,,79,127
17069,note_on,3,0,0,,5,,,77,127
17214,note_off,145,0,0,,5,,,77,127
17214,note_off,0,0,0,,12,,,71,127
17214,note_off,0,0,0,,7,,,67,127
17217,note_on,3,0,0,,12,,,71,127
17217,note_on,0,0,0,,7,,,67,127
17217,note_on,0,0,0,,3,,,75,127
17362,note_off,145,0,0,,3,,,75,127
17365,note_on,3,0,0,,2,,,74,127
17510,note_off,145,0,0,,2,,,74,127
17510,note_off,0,0,0,,7,,,67,127
17510,note_off,0,0,0,,12,,,71,127
17513,note_on,3,0,0,,7,,,67,127
17513,note_on,0,0,0,,0,,,72,127
17513,note_on,0,0,0,,5,,,77,127
17575,note_off,62,0,0,,5,,,77,127
17575,note_on,0,0,0,,3,,,75,127
17637,note_off,62,0,0,,3,,,75,127
17637,note_on,0,0,0,,5,,,77,127
17699,note_off,62,0,0,,5,,,77,127
17699,note_on,0,0,0,,3,,,75,127
17761,note_off,62,0,0,,3,,,75,127
17761,note_on,0,0,0,,5,,,77,127
17823,note_off,62,0,0,,5,,,77,127
17823,note_on,0,0,0,,3,,,75,127
18097,note_off,274,0,0,,3,,,75,127
18103,note_off,6,0,0,,0,,,72,127
18103,note_off,0,0,0,,7,,,67,127
18106,note_on,3,0,0,,12,,,71,127
18106,note_on,0,0,0,,2,,,74,127
18352,note_off,246,0,0,,2,,,74,127
18398,note_off,46,0,0,,12,,,71,127
18417,note_on,19,0,0,,2,,,74,127
18417,note_on,0,0,0,,5,,,77,127
18417,note_on,0,0,0,,11,,,70,127
18709,note_off,292,0,0,,11,,,70,127
18709,note_off,0,0,0,,5,,,77,127
18709,note_off,0,0,0,,2,,,74,127
18712,note_on,3,0,0,,5,,,77,127
18712,note_on,0,0,0,,2,,,74,127
18712,note_on,0,0,0,,11,,,70,127
19004,note_off,292,0,0,,11,,,70,127
19004,note_off,0,0,0,,2,,,74,127
19004,note_off,0,0,0,,5,,,77,127
19007,note_on,3,0,0,,2,,,74,127
19007,note_on,0,0,0,,5,,,77,127
19007,note_on,0,0,0,,11,,,70,127
19299,note_off,292,0,0,,11,,,70,127
19299,note_off,0,0,0,,5,,,77,127
19299,note_off,0,0,0,,2,,,74,127
19302,note_on,3,0,0,,2,,,74,127
19302,note_on,0,0,0,,5,,,77,127
19302,note_on,0,0,0,,10,,,69,127
19594,note_off,292,0,0,,10,,,69,127
19594,note_off,0,0,0,,5,,,77,127
19594,note_off,0,0,0,,2,,,74,127
19597,note_on,3,0,0,,5,,,77,127
19597,note_on,0,0,0,,2,,,74,127
19597,note_on,0,0,0,,10,,,69,127
19889,note_off,292,0,0,,10,,,69,127
19889,note_off,0,0,0,,2,,,74,127
19889,note_off,0,0,0,,5,,,77,127
19892,note_on,3,0,0,,5,,,77,127
19892,note_on,0,0,0,,2,,,74,127
19892,note_on,0,0,0,,10,,,69,127
20184,note_off,292,0,0,,10,,,69,127
20184,note_off,0,0,0,,2,,,74,127
20184,note_off,0,0,0,,5,,,77,127
20187,note_on,3,0,0,,5,,,77,127
20187,note_on,0,0,0,,8,,,68,127
20187,note_on,0,0,0,,12,,,71,127
20258,note_off,71,0,0,,5,,,77,127
20261,note_on,3,0,0,,7,,,79,127
20332,note_off,71,0,0,,7,,,79,127
20335,note_on,3,0,0,,10,,,81,127
20480,note_off,145,0,0,,10,,,81,127
20480,note_off,0,0,0,,12,,,71,127
20480,note_off,0,0,0,,8,,,68,127
20483,note_on,3,0,0,,7,,,79,127
20483,note_on,0,0,0,,8,,,68,127
20483,note_on,0,0,0,,12,,,71,127
20628,note_off,145,0,0,,7,,,79,127
20631,note_on,3,0,0,,5,,,77,127
20776,note_off,145,0,0,,5,,,77,127
20776,note_off,0,0,0,,12,,,71,127
20776,note_off,0,0,0,,8,,,68,127
20779,note_on,3,0,0,,4,,,76,127
20779,note_on,0,0,0,,12,,,71,127
20779,note_on,0,0,0,,8,,,68,127
20924,note_off,145,0,0,,4,,,76,127
20927,note_on,3,0,0,,2,,,74,127
21072,note_off,145,0,0,,2,,,74,127
21072,note_off,0,0,0,,8,,,68,127
21072,note_off,0,0,0,,12,,,71,127
21075,note_on,3,0,0,,4,,,76,127
21075,note_on,0,0,0,,10,,,69,127
21137,note_off,62,0,0,,4,,,76,127
21137,note_on,0,0,0,,2,,,74,127
21199,note_off,62,0,0,,2,,,74,127
21199,note_on,0,0,0,,4,,,76,127
21261,note_off,62,0,0,,4,,,76,127
21261,note_on,0,0,0,,2,,,74,127
21323,note_off,62,0,0,,2,,,74,127
21323,note_on,0,0,0,,4,,,76,127
21372,note_on,49,0,0,,2,,,74,127
21372,note_on,0,0,0,,10,,,57,127
21384,note_off,12,0,0,,4,,,76,127
21516,note_off,132,0,0,,10,,,69,127
21664,note_off,148,0,0,,2,,,74,127
21667,note_on,3,0,0,,1,,,73,127
21913,note_off,246,0,0,,1,,,73,127
21959,note_off,46,0,0,,10,,,57,127
21962,note_on,3,0,0,,4,,,76,127
22110,note_on,148,0,0,,1,,,73,127
22255,note_off,145,0,0,,1,,,73,127
22255,note_off,0,0,0,,4,,,76,127
22258,note_on,3,0,0,,5,,,77,127
22258,note_on,0,0,0,,2,,,74,127
22403,note_off,145,0,0,,2,,,74,127
22406,note_on,3,0,0,,10,,,69,127
22551,note_off,145,0,0,,10,,,69,127
22551,note_off,0,0,0,,5,,,77,127
22554,note_on,3,0,0,,7,,,79,127
22554,note_on,0,0,0,,4,,,76,127
22699,note_off,145,0,0,,4,,,76,127
22702,note_on,3,0,0,,2,,,74,127
22847,note_off,145,0,0,,2,,,74,127
22847,note_off,0,0,0,,7,,,79,127
22850,note_on,3,0,0,,10,,,81,127
22850,note_on,0,0,0,,1,,,73,127
22995,note_off,145,0,0,,1,,,73,127
22998,note_on,3,0,0,,4,,,76,127
23143,note_off,145,0,0,,4,,,76,127
23146,note_on,3,0,0,,5,,,77,127
23291,note_off,145,0,0,,5,,,77,127
23294,note_on,3,0,0,,2,,,74,127
23439,note_off,145,0,0,,2,,,74,127
23439,note_off,0,0,0,,10,,,81,127
23442,note_on,3,0,0,,12,,,83,127
23442,note_on,0,0,0,,7,,,79,127
23587,note_off,145,0,0,,7,,,79,127
23590,note_on,3,0,0,,5,,,77,127
23735,note_off,145,0,0,,5,,,77,127
23735,note_off,0,0,0,,12,,,83,127
23738,note_on,3,0,0,,1,,,85,127
23738,note_on,0,0,0,,4,,,76,127
23883,note_off,145,0,0,,4,,,76,127
23886,note_on,3,0,0,,7,,,79,127
24031,note_off,145,0,0,,7,,,79,127
24031,note_off,0,0,0,,1,,,85,127
24034,note_on,3,0,0,,2,,,86,127
24034,note_on,0,0,0,,5,,,77,127
24179,note_off,145,0,0,,5,,,77,127
24182,note_on,3,0,0,,2,,,74,127
24327,note_off,145,0,0,,2,,,74,127
24330,note_on,3,0,0,,11,,,82,127
24475,note_off,145,0,0,,11,,,82,127
24478,note_on,3,0,0,,7,,,79,127
24623,note_off,145,0,0,,7,,,79,127
24623,note_off,0,0,0,,2,,,86,127
24626,note_on,3,0,0,,4,,,88,127
24626,note_on,0,0,0,,10,,,81,127
24771,note_off,145,0,0,,4,,,88,127
24774,note_on,3,0,0,,1,,,85,127
24919,note_off,145,0,0,,1,,,85,127
24919,note_off,0,0,0,,10,,,81,127
24922,note_on,3,0,0,,10,,,81,127
25067,note_off,145,0,0,,10,,,81,127
25070,note_on,3,0,0,,4,,,76,127
25215,note_off,145,0,0,,4,,,76,127
25218,note_on,3,0,0,,1,,,73,127
25363,note_off,145,0,0,,1,,,73,127
25366,note_on,3,0,0,,10,,,69,127
25511,note_off,145,0,0,,10,,,69,127
25514,note_on,3,0,0,,4,,,64,127
25659,note_off,145,0,0,,4,,,64,127
25662,note_on,3,0,0,,1,,,61,127
25807,note_off,145,0,0,,1,,,61,127
25810,note_on,3,0,0,,10,,,57,127
25955,note_off,145,0,0,,10,,,57,127
25958,note_on,3,0,0,,4,,,52,127
26103,note_off,145,0,0,,4,,,52,127
26106,note_on,3,0,0,,1,,,49,127
26251,note_off,145,0,0,,1,,,49,127
26254,note_on,3,0,0,,10,,,45,127
26399,note_off,145,0,0,,10,,,45,127
26402,note_on,3,0,0,,10,,,33,127
27582,note_off,1180,0,0,,10,,,33,127
27879,note_on,297,0,0,,5,,,65,127
27879,note_on,0,0,0,,0,,,72,127
27879,note_on,0,0,0,,10,,,69,127
28171,note_off,292,0,0,,10,,,69,127
28171,note_off,0,0,0,,0,,,72,127
28171,note_off,0,0,0,,5,,,65,127
28174,note_on,3,0,0,,5,,,65,127
28174,note_on,0,0,0,,0,,,72,127
28174,note_on,0,0,0,,10,,,69,127
28466,note_off,292,0,0,,10,,,69,127
28466,note_off,0,0,0,,0,,,72,127
28466,note_off,0,0,0,,5,,,65,127
28469,note_on,3,0,0,,5,,,65,127
28469,note_on,0,0,0,,10,,,69,127
28469,note_on,0,0,0,,0,,,72,127
28761,note_off,292,0,0,,0,,,72,127
28761,note_off,0,0,0,,10,,,69,127
28761,note_off,0,0,0,,5,,,65,127
28764,note_on,3,0,0,,3,,,63,127
28764,note_on,0,0,0,,7,,,67,127
28764,note_on,0,0,0,,10,,,69,127
28764,note_on,0,0,0,,0,,,72,127
29056,note_off,292,0,0,,0,,,72,127
29056,note_off,0,0,0,,10,,,69,127
29056,note_off,0,0,0,,7,,,67,127
29056,note_off,0,0,0,,3,,,63,127
29059,note_on,3,0,0,,3,,,63,127
29059,note_on,0,0,0,,7,,,67,127
29059,note_on,0,0,0,,0,,,72,127
29059,note_on,0,0,0,,10,,,69,127
29351,note_off,292,0,0,,10,,,69,127
29351,note_off,0,0,0,,0,,,72,127
29351,note_off,0,0,0,,7,,,67,127
29351,note_off,0,0,0,,3,,,63,127
29354,note_on,3,0,0,,3,,,63,127
29354,note_on,0,0,0,,7,,,67,127
29354,note_on,0,0,0,,0,,,72,127
29354,note_on,0,0,0,,10,,,69,127
29646,note_off,292,0,0,,10,,,69,127
29646,note_off,0,0,0,,0,,,72,127
29646,note_off,0,0,0,,7,,,67,127
29646,note_off,0,0,0,,3,,,63,127
29649,note_on,3,0,0,,2,,,62,127
29649,note_on,0,0,0,,6,,,66,127
29649,note_on,0,0,0,,0,,,72,127
29735,note_off,86,0,0,,0,,,72,127
29735,note_on,0,0,0,,2,,,74,127
29821,note_off,86,0,0,,2,,,74,127
29821,note_on,0,0,0,,3,,,75,127
29933,note_off,112,0,0,,3,,,75,127
29941,note_off,8,0,0,,6,,,66,127
29941,note_off,0,0,0,,2,,,62,127
29944,note_on,3,0,0,,6,,,66,127
29944,note_on,0,0,0,,2,,,62,127
29944,note_on,0,0,0,,2,,,74,127
30089,note_off,145,0,0,,2,,,74,127
30092,note_on,3,0,0,,0,,,72,127
30237,note_off,145,0,0,,0,,,72,127
30237,note_off,0,0,0,,2,,,62,127
30237,note_off,0,0,0,,6,,,66,127
30240,note_on,3,0,0,,6,,,66,127
30240,note_on,0,0,0,,2,,,62,127
30240,note_on,0,0,0,,11,,,70,127
30385,note_off,145,0,0,,11,,,70,127
30388,note_on,3,0,0,,10,,,69,127
30533,note_off,145,0,0,,10,,,69,127
30533,note_off,0,0,0,,2,,,62,127
30533,note_off,0,0,0,,6,,,66,127
30536,note_on,3,0,0,,2,,,62,127
30536,note_on,0,0,0,,7,,,67,127
30536,note_on,0,0,0,,0,,,72,127
30598,note_off,62,0,0,,0,,,72,127
30598,note_on,0,0,0,,11,,,70,127
30660,note_off,62,0,0,,11,,,70,127
30660,note_on,0,0,0,,0,,,72,127
30722,note_off,62,0,0,,0,,,72,127
30722,note_on,0,0,0,,11,,,70,127
30784,note_off,62,0,0,,11,,,70,127
30784,note_on,0,0,0,,0,,,72,127
30833,note_on,49,0,0,,11,,,70,127
30845,note_off,12,0,0,,0,,,72,127
31125,note_off,280,0,0,,7,,,67,127
31128,note_off,3,0,0,,11,,,70,127
31128,note_on,0,0,0,,6,,,66,127
31128,note_on,0,0,0,,10,,,69,127
31374,note_off,246,0,0,,10,,,69,127
31420,note_off,46,0,0,,6,,,66,127
31422,note_off,2,0,0,,2,,,62,127
31440,note_on,18,0,0,,0,,,72,127
31440,note_on,0,0,0,,10,,,69,127
31440,note_on,0,0,0,,5,,,65,127
31732,note_off,292,0,0,,5,,,65,127
31732,note_off,0,0,0,,10,,,69,127
31732,note_off,0,0,0,,0,,,72,127
31735,note_on,3,0,0,,10,,,69,127
31735,note_on,0,0,0,,0,,,72,127
31735,note_on,0,0,0,,5,,,65,127
32027,note_off,292,0,0,,5,,,65,127
32027,note_off,0,0,0,,0,,,72,127
32027,note_off,0,0,0,,10,,,69,127
32030,note_on,3,0,0,,10,,,69,127
32030,note_on,0,0,0,,0,,,72,127
32030,note_on,0,0,0,,5,,,65,127
32322,note_off,292,0,0,,5,,,65,127
32322,note_off,0,0,0,,0,,,72,127
32322,note_off,0,0,0,,10,,,69,127
32325,note_on,3,0,0,,10,,,69,127
32325,note_on,0,0,0,,0,,,72,127
32325,note_on,0,0,0,,4,,,64,127
32617,note_off,292,0,0,,4,,,64,127
32617,note_off,0,0,0,,0,,,72,127
32617,note_off,0,0,0,,10,,,69,127
32620,note_on,3,0,0,,10,,,69,127
32620,note_on,0,0,0,,0,,,72,127
32620,note_on,0,0,0,,4,,,64,127
32912,note_off,292,0,0,,4,,,64,127
32912,note_off,0,0,0,,0,,,72,127
32912,note_off,0,0,0,,10,,,69,127
32915,note_on,3,0,0,,10,,,69,127
32915,note_on,0,0,0,,0,,,72,127
32915,note_on,0,0,0,,4,,,64,127
33207,note_off,292,0,0,,4,,,64,127
33207,note_off,0,0,0,,0,,,72,127
33207,note_off,0,0,0,,10,,,69,127
33210,note_on,3,0,0,,0,,,72,127
33210,note_on,0,0,0,,6,,,66,127
33210,note_on,0,0,0,,3,,,63,127
33281,note_off,71,0,0,,0,,,72,127
33284,note_on,3,0,0,,2,,,74,127
33355,note_off,71,0,0,,2,,,74,127
33358,note_on,3,0,0,,4,,,76,127
33503,note_off,145,0,0,,4,,,76,127
33503,note_off,0,0,0,,3,,,63,127
33503,note_off,0,0,0,,6,,,66,127
33506,note_on,3,0,0,,2,,,74,127
33506,note_on,0,0,0,,3,,,63,127
33506,note_on,0,0,0,,6,,,66,127
33651,note_off,145,0,0,,2,,,74,127
33654,note_on,3,0,0,,0,,,72,127
33799,note_off,145,0,0,,0,,,72,127
33799,note_off,0,0,0,,6,,,66,127
33799,note_off,0,0,0,,3,,,63,127
33802,note_on,3,0,0,,12,,,71,127
33802,note_on,0,0,0,,3,,,63,127
33802,note_on,0,0,0,,6,,,66,127
33947,note_off,145,0,0,,12,,,71,127
33950,note_on,3,0,0,,10,,,69,127
34095,note_off,145,0,0,,10,,,69,127
34095,note_off,0,0,0,,6,,,66,127
34095,note_off,0,0,0,,3,,,63,127
34098,note_on,3,0,0,,10,,,69,127
34098,note_on,0,0,0,,4,,,64,127
34390,note_off,292,0,0,,4,,,64,127
34393,note_on,3,0,0,,4,,,52,127
34685,note_off,292,0,0,,10,,,69,127
34688,note_on,3,0,0,,8,,,68,127
34977,note_off,289,0,0,,4,,,52,127
34980,note_off,3,0,0,,8,,,68,127
34983,note_on,3,0,0,,12,,,71,127
35131,note_on,148,0,0,,8,,,68,127
35276,note_off,145,0,0,,8,,,68,127
35276,note_off,0,0,0,,12,,,71,127
35279,note_on,3,0,0,,0,,,72,127
35279,note_on,0,0,0,,10,,,69,127
35424,note_off,145,0,0,,10,,,69,127
35427,note_on,3,0,0,,4,,,64,127
35541,note_off,114,0,0,,0,,,72,127
35572,note_off,31,0,0,,4,,,64,127
35575,note_on,3,0,0,,2,,,74,127
35575,note_on,0,0,0,,12,,,71,127
35720,note_off,145,0,0,,12,,,71,127
35723,note_on,3,0,0,,10,,,69,127
35837,note_off,114,0,0,,2,,,74,127
35868,note_off,31,0,0,,10,,,69,127
35871,note_on,3,0,0,,4,,,76,127
35871,note_on,0,0,0,,8,,,68,127
36016,note_off,145,0,0,,8,,,68,127
36019,note_on,3,0,0,,12,,,71,127
36164,note_off,145,0,0,,12,,,71,127
36167,note_on,3,0,0,,0,,,72,127
36312,note_off,145,0,0,,0,,,72,127
36315,note_on,3,0,0,,10,,,69,127
36395,note_off,80,0,0,,4,,,76,127
36460,note_off,65,0,0,,10,,,69,127
36463,note_on,3,0,0,,6,,,78,127
36463,note_on,0,0,0,,2,,,74,127
36608,note_off,145,0,0,,2,,,74,127
36611,note_on,3,0,0,,0,,,72,127
36756,note_off,145,0,0,,0,,,72,127
36756,note_off,0,0,0,,6,,,78,127
36759,note_on,3,0,0,,8,,,80,127
36759,note_on,0,0,0,,12,,,71,127
36904,note_off,145,0,0,,12,,,71,127
36907,note_on,3,0,0,,4,,,76,127
37021,note_off,114,0,0,,8,,,80,127
37052,note_off,31,0,0,,4,,,76,127
37055,note_on,3,0,0,,10,,,81,127
37055,note_on,0,0,0,,0,,,72,127
37200,note_off,145,0,0,,0,,,72,127
37203,note_on,3,0,0,,10,,,69,127
37348,note_off,145,0,0,,10,,,69,127
37351,note_on,3,0,0,,5,,,77,127
37496,note_off,145,0,0,,5,,,77,127
37499,note_on,3,0,0,,2,,,74,127
37644,note_off,145,0,0,,2,,,74,127
37644,note_off,0,0,0,,10,,,81,127
37647,note_on,3,0,0,,12,,,83,127
37647,note_on,0,0,0,,4,,,76,127
37792,note_off,145,0,0,,12,,,83,127
37795,note_on,3,0,0,,8,,,80,127
37940,note_off,145,0,0,,8,,,80,127
37940,note_off,0,0,0,,4,,,76,127
37943,note_on,3,0,0,,4,,,76,127
38088,note_off,145,0,0,,4,,,76,127
38091,note_on,3,0,0,,12,,,71,127
38236,note_off,145,0,0,,12,,,71,127
38239,note_on,3,0,0,,8,,,68,127
38384,note_off,145,0,0,,8,,,68,127
38387,note_on,3,0,0,,4,,,64,127
38532,note_off,145,0,0,,4,,,64,127
38535,note_on,3,0,0,,12,,,59,127
38680,note_off,145,0,0,,12,,,59,127
38683,note_on,3,0,0,,8,,,56,127
38828,note_off,145,0,0,,8,,,56,127
38831,note_on,3,0,0,,4,,,52,127
38976,note_off,145,0,0,,4,,,52,127
38979,note_on,3,0,0,,12,,,47,127
39124,note_off,145,0,0,,12,,,47,127
39127,note_on,3,0,0,,8,,,44,127
39272,note_off,145,0,0,,8,,,44,127
39275,note_on,3,0,0,,4,,,40,127
39420,note_off,145,0,0,,4,,,40,127
39423,note_on,3,0,0,,8,,,56,127
39423,note_on,0,0,0,,4,,,64,127
39423,note_on,0,0,0,,12,,,59,127
39423,note_on,0,0,0,,4,,,52,127
39423,note_on,0,0,0,,4,,,40,127
40603,note_off,1180,0,0,,4,,,40,127
40603,note_off,0,0,0,,4,,,52,127
40603,note_off,0,0,0,,12,,,59,127
40603,note_off,0,0,0,,4,,,64,127
40603,note_off,0,0,0,,8,,,56,127
40900,note_on,297,0,0,,4,,,88,127
40900,note_on,0,0,0,,7,,,43,127
40900,note_on,0,0,0,,0,,,36,127
40900,note_on,0,0,0,,0,,,48,127
41045,note_off,145,0,0,,4,,,88,127
41048,note_on,3,0,0,,0,,,84,127
41193,note_off,145,0,0,,0,,,84,127
41196,note_on,3,0,0,,7,,,79,127
41341,note_off,145,0,0,,7,,,79,127
41344,note_on,3,0,0,,4,,,76,127
41489,note_off,145,0,0,,4,,,76,127
41489,note_off,0,0,0,,0,,,48,127
41489,note_off,0,0,0,,0,,,36,127
41489,note_off,0,0,0,,7,,,43,127
41492,note_on,3,0,0,,2,,,74,127
41492,note_on,0,0,0,,5,,,77,127
41492,note_on,0,0,0,,2,,,38,127
41492,note_on,0,0,0,,2,,,50,127
41492,note_on,0,0,0,,12,,,47,127
41637,note_off,145,0,0,,5,,,77,127
41637,note_off,0,0,0,,2,,,74,127
41640,note_on,3,0,0,,2,,,86,127
41785,note_off,145,0,0,,2,,,86,127
41785,note_off,0,0,0,,12,,,47,127
41785,note_off,0,0,0,,2,,,50,127
41785,note_off,0,0,0,,2,,,38,127
41788,note_on,3,0,0,,0,,,84,127
41788,note_on,0,0,0,,4,,,40,127
41788,note_on,0,0,0,,4,,,52,127
41788,note_on,0,0,0,,0,,,48,127
41933,note_off,145,0,0,,0,,,84,127
41936,note_on,3,0,0,,7,,,79,127
42081,note_off,145,0,0,,7,,,79,127
42081,note_off,0,0,0,,4,,,52,127
42081,note_off,0,0,0,,4,,,40,127
42084,note_on,3,0,0,,4,,,76,127
42084,note_on,0,0,0,,5,,,41,127
42084,note_on,0,0,0,,5,,,53,127
42229,note_off,145,0,0,,4,,,76,127
42232,note_on,3,0,0,,0,,,72,127
42374,note_off,142,0,0,,0,,,48,127
42377,note_off,3,0,0,,0,,,72,127
42377,note_off,0,0,0,,5,,,53,127
42377,note_off,0,0,0,,5,,,41,127
42380,note_on,3,0,0,,12,,,71,127
42380,note_on,0,0,0,,2,,,74,127
42380,note_on,0,0,0,,7,,,55,127
42380,note_on,0,0,0,,7,,,43,127
42525,note_off,145,0,0,,2,,,74,127
42525,note_off,0,0,0,,12,,,71,127
42528,note_on,3,0,0,,12,,,83,127
42673,note_off,145,0,0,,12,,,83,127
42673,note_off,0,0,0,,7,,,43,127
42673,note_off,0,0,0,,7,,,55,127
42676,note_on,3,0,0,,4,,,88,127
42676,note_on,0,0,0,,0,,,48,127
42676,note_on,0,0,0,,7,,,43,127
42676,note_on,0,0,0,,0,,,36,127
42821,note_off,145,0,0,,4,,,88,127
42824,note_on,3,0,0,,0,,,84,127
42969,note_off,145,0,0,,0,,,84,127
42972,note_on,3,0,0,,7,,,79,127
43117,note_off,145,0,0,,7,,,79,127
43120,note_on,3,0,0,,4,,,76,127
43265,note_off,145,0,0,,4,,,76,127
43265,note_off,0,0,0,,0,,,36,127
43265,note_off,0,0,0,,7,,,43,127
43265,note_off,0,0,0,,0,,,48,127
43268,note_on,3,0,0,,2,,,74,127
43268,note_on,0,0,0,,5,,,77,127
43268,note_on,0,0,0,,5,,,53,127
43268,note_on,0,0,0,,2,,,50,127
43268,note_on,0,0,0,,5,,,41,127
43413,note_off,145,0,0,,5,,,77,127
43413,note_off,0,0,0,,2,,,74,127
43416,note_on,3,0,0,,2,,,86,127
43561,note_off,145,0,0,,2,,,86,127
43561,note_off,0,0,0,,5,,,41,127
43561,note_off,0,0,0,,2,,,50,127
43561,note_off,0,0,0,,5,,,53,127
43564,note_on,3,0,0,,0,,,84,127
43564,note_on,0,0,0,,4,,,52,127
43564,note_on,0,0,0,,4,,,40,127
43709,note_off,145,0,0,,0,,,84,127
43712,note_on,3,0,0,,7,,,79,127
43857,note_off,145,0,0,,7,,,79,127
43857,note_off,0,0,0,,4,,,40,127
43857,note_off,0,0,0,,4,,,52,127
43860,note_on,3,0,0,,4,,,76,127
43860,note_on,0,0,0,,5,,,41,127
43860,note_on,0,0,0,,5,,,53,127
44005,note_off,145,0,0,,4,,,76,127
44008,note_on,3,0,0,,0,,,72,127
44153,note_off,145,0,0,,0,,,72,127
44153,note_off,0,0,0,,5,,,53,127
44153,note_off,0,0,0,,5,,,41,127
44156,note_on,3,0,0,,12,,,71,127
44156,note_on,0,0,0,,2,,,74,127
44156,note_on,0,0,0,,7,,,43,127
44156,note_on,0,0,0,,7,,,55,127
44301,note_off,145,0,0,,2,,,74,127
44301,note_off,0,0,0,,12,,,71,127
44304,note_on,3,0,0,,2,,,86,127
44449,note_off,145,0,0,,2,,,86,127
44449,note_off,0,0,0,,7,,,55,127
44449,note_off,0,0,0,,7,,,43,127
44452,note_on,3,0,0,,4,,,88,127
44452,note_on,0,0,0,,0,,,48,127
44452,note_on,0,0,0,,0,,,36,127
44597,note_off,145,0,0,,4,,,88,127
44600,note_on,3,0,0,,0,,,84,127
44745,note_off,145,0,0,,0,,,84,127
44748,note_on,3,0,0,,7,,,79,127
44893,note_off,145,0,0,,7,,,79,127
44896,note_on,3,0,0,,4,,,76,127
44932,note_off,36,0,0,,0,,,36,127
45041,note_off,109,0,0,,4,,,76,127
45041,note_off,0,0,0,,0,,,48,127
45044,note_on,3,0,0,,2,,,74,127
45044,note_on,0,0,0,,12,,,47,127
45189,note_off,145,0,0,,2,,,74,127
45192,note_on,3,0,0,,2,,,86,127
45337,note_off,145,0,0,,2,,,86,127
45337,note_off,0,0,0,,12,,,47,127
45340,note_on,3,0,0,,0,,,84,127
45340,note_on,0,0,0,,10,,,45,127
45485,note_off,145,0,0,,0,,,84,127
45488,note_on,3,0,0,,10,,,81,127
45633,note_off,145,0,0,,10,,,81,127
45633,note_off,0,0,0,,10,,,45,127
45636,note_on,3,0,0,,6,,,78,127
45636,note_on,0,0,0,,2,,,50,127
45781,note_off,145,0,0,,6,,,78,127
45784,note_on,3,0,0,,0,,,72,127
45929,note_off,145,0,0,,0,,,72,127
45929,note_off,0,0,0,,2,,,50,127
45932,note_on,3,0,0,,2,,,74,127
45932,note_on,0,0,0,,7,,,43,127
46077,note_off,145,0,0,,2,,,74,127
46080,note_on,3,0,0,,12,,,83,127
46225,note_off,145,0,0,,12,,,83,127
46225,note_off,0,0,0,,7,,,43,127
46228,note_on,3,0,0,,12,,,83,127
46228,note_on,0,0,0,,0,,,48,127
46373,note_off,145,0,0,,12,,,83,127
46376,note_on,3,0,0,,10,,,81,127
46521,note_off,145,0,0,,10,,,81,127
46521,note_off,0,0,0,,0,,,48,127
46524,note_on,3,0,0,,10,,,81,127
46524,note_on,0,0,0,,2,,,50,127
46669,note_off,145,0,0,,10,,,81,127
46672,note_on,3,0,0,,7,,,79,127
46817,note_off,145,0,0,,7,,,79,127
46817,note_off,0,0,0,,2,,,50,127
46820,note_on,3,0,0,,6,,,78,127
46820,note_on,0,0,0,,4,,,52,127
46965,note_off,145,0,0,,6,,,78,127
46968,note_on,3,0,0,,7,,,79,127
47113,note_off,145,0,0,,7,,,79,127
47113,note_off,0,0,0,,4,,,52,127
47116,note_on,3,0,0,,7,,,79,127
47116,note_on,0,0,0,,2,,,50,127
47178,note_off,62,0,0,,7,,,79,127
47178,note_on,0,0,0,,6,,,78,127
47240,note_off,62,0,0,,6,,,78,127
47240,note_on,0,0,0,,7,,,79,127
47302,note_off,62,0,0,,7,,,79,127
47302,note_on,0,0,0,,6,,,78,127
47536,note_off,234,0,0,,6,,,78,127
47561,note_on,25,0,0,,4,,,76,127
47706,note_off,145,0,0,,4,,,76,127
47709,note_on,3,0,0,,2,,,74,127
48001,note_off,292,0,0,,2,,,74,127
48001,note_off,0,0,0,,2,,,50,127
48004,note_on,3,0,0,,2,,,86,127
48004,note_on,0,0,0,,2,,,74,127
48004,note_on,0,0,0,,2,,,62,127
48149,note_off,145,0,0,,2,,,86,127
48152,note_on,3,0,0,,6,,,78,127
48297,note_off,145,0,0,,6,,,78,127
48297,note_off,0,0,0,,2,,,62,127
48297,note_off,0,0,0,,2,,,74,127
48300,note_on,3,0,0,,7,,,79,127
48300,note_on,0,0,0,,12,,,71,127
48300,note_on,0,0,0,,12,,,59,127
48445,note_off,145,0,0,,7,,,79,127
48448,note_on,3,0,0,,10,,,81,127
48519,note_off,71,0,0,,10,,,81,127
48522,note_on,3,0,0,,12,,,83,127
48593,note_off,71,0,0,,12,,,83,127
48593,note_off,0,0,0,,12,,,59,127
48593,note_off,0,0,0,,12,,,71,127
48596,note_on,3,0,0,,10,,,81,127
48596,note_on,0,0,0,,7,,,55,127
48596,note_on,0,0,0,,7,,,67,127
48741,note_off,145,0,0,,10,,,81,127
48744,note_on,3,0,0,,7,,,79,127
48889,note_off,145,0,0,,7,,,79,127
48889,note_off,0,0,0,,7,,,67,127
48889,note_off,0,0,0,,7,,,55,127
48892,note_on,3,0,0,,2,,,86,127
48892,note_on,0,0,0,,2,,,62,127
48892,note_on,0,0,0,,2,,,50,127
49037,note_off,145,0,0,,2,,,86,127
49040,note_on,3,0,0,,6,,,78,127
49185,note_off,145,0,0,,6,,,78,127
49185,note_off,0,0,0,,2,,,50,127
49185,note_off,0,0,0,,2,,,62,127
49188,note_on,3,0,0,,7,,,79,127
49188,note_on,0,0,0,,12,,,59,127
49188,note_on,0,0,0,,12,,,47,127
49333,note_off,145,0,0,,7,,,79,127
49336,note_on,3,0,0,,10,,,81,127
49407,note_off,71,0,0,,10,,,81,127
49410,note_on,3,0,0,,12,,,83,127
49481,note_off,71,0,0,,12,,,83,127
49481,note_off,0,0,0,,12,,,47,127
49481,note_off,0,0,0,,12,,,59,127
49484,note_on,3,0,0,,12,,,83,127
49484,note_on,0,0,0,,7,,,55,127
49484,note_on,0,0,0,,7,,,43,127
49538,note_on,54,0,0,,10,,,81,127
49546,note_off,8,0,0,,12,,,83,127
49592,note_on,46,0,0,,12,,,83,127
49600,note_off,8,0,0,,10,,,81,127
49646,note_on,46,0,0,,10,,,81,127
49654,note_off,8,0,0,,12,,,83,127
49700,note_on,46,0,0,,7,,,79,127
49708,note_off,8,0,0,,10,,,81,127
49762,note_off,54,0,0,,7,,,79,127
49777,note_off,15,0,0,,7,,,43,127
49777,note_off,0,0,0,,7,,,55,127
49780,note_on,3,0,0,,2,,,86,127
49780,note_on,0,0,0,,2,,,50,127
49780,note_on,0,0,0,,2,,,38,127
49925,note_off,145,0,0,,2,,,86,127
49928,note_on,3,0,0,,6,,,78,127
50073,note_off,145,0,0,,6,,,78,127
50073,note_off,0,0,0,,2,,,38,127
50073,note_off,0,0,0,,2,,,50,127
50076,note_on,3,0,0,,7,,,79,127
50076,note_on,0,0,0,,12,,,47,127
50221,note_off,145,0,0,,7,,,79,127
50224,note_on,3,0,0,,10,,,81,127
50295,note_off,71,0,0,,10,,,81,127
50298,note_on,3,0,0,,12,,,83,127
50369,note_off,71,0,0,,12,,,83,127
50369,note_off,0,0,0,,12,,,47,127
50372,note_on,3,0,0,,10,,,81,127
50372,note_on,0,0,0,,7,,,43,127
50517,note_off,145,0,0,,10,,,81,127
50520,note_on,3,0,0,,7,,,79,127
50665,note_off,145,0,0,,7,,,79,127
50665,note_off,0,0,0,,7,,,43,127
50668,note_on,3,0,0,,7,,,79,127
50668,note_on,0,0,0,,2,,,50,127
50960,note_off,292,0,0,,7,,,79,127
50963,note_on,3,0,0,,10,,,81,127
51012,note_off,49,0,0,,10,,,81,127
51012,note_on,0,0,0,,7,,,79,127
51061,note_off,49,0,0,,7,,,79,127
51061,note_on,0,0,0,,10,,,81,127
51492,note_off,431,0,0,,10,,,81,127
51550,note_off,58,0,0,,2,,,50,127
51553,note_on,3,0,0,,4,,,64,127
51630,note_on,77,0,0,,2,,,62,127
51645,note_off,15,0,0,,4,,,64,127
51703,note_on,58,0,0,,4,,,64,127
51721,note_off,18,0,0,,2,,,62,127
51759,note_on,38,0,0,,2,,,62,127
51787,note_off,28,0,0,,4,,,64,127
51818,note_on,31,0,0,,4,,,64,127
51844,note_off,26,0,0,,2,,,62,127
51847,note_on,3,0,0,,6,,,54,127
51847,note_on,0,0,0,,10,,,57,127
51875,note_on,28,0,0,,2,,,62,127
51903,note_off,28,0,0,,4,,,64,127
51934,note_on,31,0,0,,4,,,64,127
51960,note_off,26,0,0,,2,,,62,127
51989,note_on,29,0,0,,2,,,62,127
52018,note_off,29,0,0,,4,,,64,127
52049,note_on,31,0,0,,4,,,64,127
52074,note_off,25,0,0,,2,,,62,127
52102,note_on,28,0,0,,2,,,62,127
52134,note_off,32,0,0,,4,,,64,127
52140,note_off,6,0,0,,10,,,57,127
52140,note_off,0,0,0,,6,,,54,127
52143,note_on,3,0,0,,7,,,67,127
52143,note_on,0,0,0,,12,,,59,127
52143,note_on,0,0,0,,7,,,55,127
52160,note_on,17,0,0,,4,,,64,127
52186,note_off,26,0,0,,2,,,62,127
52217,note_on,31,0,0,,2,,,62,127
52245,note_off,28,0,0,,4,,,64,127
52276,note_on,31,0,0,,4,,,64,127
52302,note_off,26,0,0,,2,,,62,127
52333,note_on,31,0,0,,2,,,62,127
52361,note_off,28,0,0,,4,,,64,127
52392,note_on,31,0,0,,4,,,64,127
52406,note_off,14,0,0,,7,,,67,127
52418,note_off,12,0,0,,2,,,62,127
52436,note_off,18,0,0,,7,,,55,127
52436,note_off,0,0,0,,12,,,59,127
52439,note_on,3,0,0,,10,,,69,127
52439,note_on,0,0,0,,10,,,57,127
52439,note_on,0,0,0,,6,,,54,127
52447,note_on,8,0,0,,2,,,62,127
52476,note_off,29,0,0,,4,,,64,127
52507,note_on,31,0,0,,4,,,64,127
52532,note_off,25,0,0,,2,,,62,127
52561,note_on,29,0,0,,2,,,62,127
52592,note_off,31,0,0,,4,,,64,127
52618,note_on,26,0,0,,4,,,64,127
52646,note_off,28,0,0,,2,,,62,127
52677,note_on,31,0,0,,2,,,62,127
52703,note_off,26,0,0,,4,,,64,127
52732,note_off,29,0,0,,6,,,54,127
52732,note_off,0,0,0,,10,,,57,127
52734,note_on,2,0,0,,4,,,64,127
52736,note_on,2,0,0,,2,,,50,127
52762,note_off,26,0,0,,2,,,62,127
52794,note_on,32,0,0,,2,,,62,127
52819,note_off,25,0,0,,4,,,64,127
52850,note_on,31,0,0,,4,,,64,127
52879,note_off,29,0,0,,2,,,62,127
52910,note_on,31,0,0,,2,,,62,127
52935,note_off,25,0,0,,4,,,64,127
52966,note_on,31,0,0,,4,,,64,127
52995,note_off,29,0,0,,2,,,62,127
52998,note_off,3,0,0,,10,,,69,127
53026,note_on,28,0,0,,2,,,62,127
53029,note_off,3,0,0,,2,,,50,127
53032,note_on,3,0,0,,12,,,71,127
53032,note_on,0,0,0,,12,,,59,127
53032,note_on,0,0,0,,7,,,55,127
53050,note_off,18,0,0,,4,,,64,127
53079,note_on,29,0,0,,4,,,64,127
53110,note_off,31,0,0,,2,,,62,127
53136,note_on,26,0,0,,2,,,62,127
53164,note_off,28,0,0,,4,,,64,127
53193,note_on,29,0,0,,4,,,64,127
53221,note_off,28,0,0,,2,,,62,127
53250,note_on,29,0,0,,2,,,62,127
53278,note_off,28,0,0,,4,,,64,127
53293,note_off,15,0,0,,12,,,71,127
53308,note_on,15,0,0,,4,,,64,127
53323,note_off,15,0,0,,7,,,55,127
53323,note_off,0,0,0,,12,,,59,127
53326,note_on,3,0,0,,0,,,72,127
53326,note_on,0,0,0,,10,,,57,127
53326,note_on,0,0,0,,6,,,54,127
53334,note_off,8,0,0,,2,,,62,127
53365,note_on,31,0,0,,2,,,62,127
53393,note_off,28,0,0,,4,,,64,127
53424,note_on,31,0,0,,4,,,64,127
53450,note_off,26,0,0,,2,,,62,127
53481,note_on,31,0,0,,2,,,62,127
53509,note_off,28,0,0,,4,,,64,127
53537,note_on,28,0,0,,4,,,64,127
53566,note_off,29,0,0,,2,,,62,127
53597,note_on,31,0,0,,2,,,62,127
53620,note_off,23,0,0,,6,,,54,127
53620,note_off,0,0,0,,10,,,57,127
53622,note_off,2,0,0,,4,,,64,127
53624,note_on,2,0,0,,2,,,50,127
53650,note_on,26,0,0,,4,,,64,127
53682,note_off,32,0,0,,2,,,62,127
53710,note_on,28,0,0,,2,,,62,127
53735,note_off,25,0,0,,4,,,64,127
53766,note_on,31,0,0,,4,,,64,127
53795,note_off,29,0,0,,2,,,62,127
53826,note_on,31,0,0,,2,,,62,127
53851,note_off,25,0,0,,4,,,64,127
53882,note_on,31,0,0,,4,,,64,127
53887,note_off,5,0,0,,0,,,72,127
53912,note_off,25,0,0,,2,,,62,127
53918,note_off,6,0,0,,2,,,50,127
53921,note_on,3,0,0,,12,,,71,127
53921,note_on,0,0,0,,12,,,59,127
53921,note_on,0,0,0,,7,,,55,127
53943,note_on,22,0,0,,2,,,62,127
53968,note_off,25,0,0,,4,,,64,127
54000,note_on,32,0,0,,4,,,64,127
54028,note_off,28,0,0,,2,,,62,127
54057,note_on,29,0,0,,2,,,62,127
54085,note_off,28,0,0,,4,,,64,127
54116,note_on,31,0,0,,4,,,64,127
54142,note_off,26,0,0,,2,,,62,127
54170,note_on,28,0,0,,2,,,62,127
54184,note_off,14,0,0,,12,,,71,127
54201,note_off,17,0,0,,4,,,64,127
54215,note_off,14,0,0,,7,,,55,127
54215,note_off,0,0,0,,12,,,59,127
54218,note_on,3,0,0,,10,,,69,127
54218,note_on,0,0,0,,10,,,57,127
54218,note_on,0,0,0,,6,,,54,127
54230,note_on,12,0,0,,4,,,64,127
54255,note_off,25,0,0,,2,,,62,127
54286,note_on,31,0,0,,2,,,62,127
54315,note_off,29,0,0,,4,,,64,127
54344,note_on,29,0,0,,4,,,64,127
54370,note_off,26,0,0,,2,,,62,127
54399,note_on,29,0,0,,2,,,62,127
54428,note_off,29,0,0,,4,,,64,127
54459,note_on,31,0,0,,4,,,64,127
54484,note_off,25,0,0,,2,,,62,127
54510,note_off,26,0,0,,6,,,54,127
54510,note_off,0,0,0,,10,,,57,127
54513,note_on,3,0,0,,2,,,50,127
54515,note_on,2,0,0,,2,,,62,127
54544,note_off,29,0,0,,4,,,64,127
54573,note_on,29,0,0,,4,,,64,127
54599,note_off,26,0,0,,2,,,62,127
54627,note_on,28,0,0,,2,,,62,127
54658,note_off,31,0,0,,4,,,64,127
54687,note_on,29,0,0,,4,,,64,127
54712,note_off,25,0,0,,2,,,62,127
54743,note_on,31,0,0,,2,,,62,127
54772,note_off,29,0,0,,4,,,64,127
54775,note_off,3,0,0,,10,,,69,127
54801,note_on,26,0,0,,4,,,64,127
54806,note_off,5,0,0,,2,,,50,127
54809,note_on,3,0,0,,7,,,67,127
54809,note_on,0,0,0,,12,,,59,127
54809,note_on,0,0,0,,7,,,55,127
54827,note_off,18,0,0,,2,,,62,127
54859,note_on,32,0,0,,2,,,62,127
54885,note_off,26,0,0,,4,,,64,127
54916,note_on,31,0,0,,4,,,64,127
54944,note_off,28,0,0,,2,,,62,127
54972,note_on,28,0,0,,2,,,62,127
55001,note_off,29,0,0,,4,,,64,127
55032,note_on,31,0,0,,4,,,64,127
55057,note_off,25,0,0,,2,,,62,127
55071,note_off,14,0,0,,7,,,67,127
55089,note_on,18,0,0,,2,,,62,127
55101,note_off,12,0,0,,7,,,55,127
55101,note_off,0,0,0,,12,,,59,127
55104,note_on,3,0,0,,10,,,69,127
55104,note_on,0,0,0,,10,,,57,127
55104,note_on,0,0,0,,6,,,54,127
55116,note_off,12,0,0,,4,,,64,127
55144,note_on,28,0,0,,4,,,64,127
55173,note_off,29,0,0,,2,,,62,127
55201,note_on,28,0,0,,2,,,62,127
55229,note_off,28,0,0,,4,,,64,127
55258,note_on,29,0,0,,4,,,64,127
55286,note_off,28,0,0,,2,,,62,127
55318,note_on,32,0,0,,2,,,62,127
55343,note_off,25,0,0,,4,,,64,127
55374,note_on,31,0,0,,4,,,64,127
55397,note_off,23,0,0,,6,,,54,127
55397,note_off,0,0,0,,10,,,57,127
55400,note_on,3,0,0,,2,,,50,127
55403,note_off,3,0,0,,2,,,62,127
55432,note_on,29,0,0,,2,,,62,127
55458,note_off,26,0,0,,4,,,64,127
55487,note_on,29,0,0,,4,,,64,127
55516,note_off,29,0,0,,2,,,62,127
55547,note_on,31,0,0,,2,,,62,127
55572,note_off,25,0,0,,4,,,64,127
55603,note_on,31,0,0,,4,,,64,127
55632,note_off,29,0,0,,2,,,62,127
55661,note_off,29,0,0,,10,,,69,127
55661,note_on,0,0,0,,2,,,62,127
55687,note_off,26,0,0,,4,,,64,127
55692,note_off,5,0,0,,2,,,50,127
55695,note_on,3,0,0,,12,,,71,127
55695,note_on,0,0,0,,12,,,59,127
55695,note_on,0,0,0,,7,,,55,127
55715,note_on,20,0,0,,4,,,64,127
55746,note_off,31,0,0,,2,,,62,127
55777,note_on,31,0,0,,2,,,62,127
55800,note_off,23,0,0,,4,,,64,127
55831,note_on,31,0,0,,4,,,64,127
55862,note_off,31,0,0,,2,,,62,127
55891,note_on,29,0,0,,2,,,62,127
55916,note_off,25,0,0,,4,,,64,127
55947,note_on,31,0,0,,4,,,64,127
55958,note_off,11,0,0,,12,,,71,127
55976,note_off,18,0,0,,2,,,62,127
55988,note_off,12,0,0,,7,,,55,127
55988,note_off,0,0,0,,12,,,59,127
55991,note_on,3,0,0,,0,,,72,127
55991,note_on,0,0,0,,10,,,57,127
55991,note_on,0,0,0,,6,,,54,127
56003,note_on,12,0,0,,2,,,62,127
56031,note_off,28,0,0,,4,,,64,127
56063,note_on,32,0,0,,4,,,64,127
56088,note_off,25,0,0,,2,,,62,127
56119,note_on,31,0,0,,2,,,62,127
56148,note_off,29,0,0,,4,,,64,127
56176,note_on,28,0,0,,4,,,64,127
56204,note_off,28,0,0,,2,,,62,127
56233,note_on,29,0,0,,2,,,62,127
56261,note_off,28,0,0,,4,,,64,127
56284,note_off,23,0,0,,6,,,54,127
56284,note_off,0,0,0,,10,,,57,127
56287,note_on,3,0,0,,2,,,50,127
56293,note_on,6,0,0,,4,,,64,127
56318,note_off,25,0,0,,2,,,62,127
56347,note_on,29,0,0,,2,,,62,127
56378,note_off,31,0,0,,4,,,64,127
56407,note_on,29,0,0,,4,,,64,127
56432,note_off,25,0,0,,2,,,62,127
56463,note_on,31,0,0,,2,,,62,127
56492,note_off,29,0,0,,4,,,64,127
56521,note_on,29,0,0,,4,,,64,127
56547,note_off,26,0,0,,2,,,62,127
56549,note_off,2,0,0,,0,,,72,127
56578,note_on,29,0,0,,2,,,62,127
56580,note_off,2,0,0,,2,,,50,127
56583,note_on,3,0,0,,12,,,71,127
56583,note_on,0,0,0,,12,,,59,127
56583,note_on,0,0,0,,7,,,55,127
56606,note_off,23,0,0,,4,,,64,127
56637,note_on,31,0,0,,4,,,64,127
56663,note_off,26,0,0,,2,,,62,127
56692,note_on,29,0,0,,2,,,62,127
56721,note_off,29,0,0,,4,,,64,127
56749,note_on,28,0,0,,4,,,64,127
56777,note_off,28,0,0,,2,,,62,127
56806,note_on,29,0,0,,2,,,62,127
56834,note_off,28,0,0,,4,,,64,127
56845,note_off,11,0,0,,12,,,71,127
56876,note_off,31,0,0,,7,,,55,127
56876,note_off,0,0,0,,12,,,59,127
56891,note_off,15,0,0,,2,,,62,127
56895,note_on,4,0,0,,0,,,48,127
56895,note_on,0,0,0,,0,,,60,127
57039,note_off,144,0,0,,0,,,60,127
57042,note_on,3,0,0,,10,,,69,127
57187,note_off,145,0,0,,10,,,69,127
57187,note_off,0,0,0,,0,,,48,127
57190,note_on,3,0,0,,2,,,50,127
57190,note_on,0,0,0,,12,,,59,127
57335,note_off,145,0,0,,12,,,59,127
57338,note_on,3,0,0,,7,,,67,127
57483,note_off,145,0,0,,7,,,67,127
57483,note_off,0,0,0,,2,,,50,127
57486,note_on,3,0,0,,2,,,38,127
57486,note_on,0,0,0,,10,,,57,127
57631,note_off,145,0,0,,10,,,57,127
57634,note_on,3,0,0,,6,,,66,127
57779,note_off,145,0,0,,6,,,66,127
57779,note_off,0,0,0,,2,,,38,127
57782,note_on,3,0,0,,7,,,43,127
57782,note_on,0,0,0,,7,,,67,127
57853,note_off,71,0,0,,7,,,67,127
57856,note_on,3,0,0,,6,,,66,127
57927,note_off,71,0,0,,6,,,66,127
57930,note_on,3,0,0,,7,,,67,127
58665,note_off,735,0,0,,7,,,43,127
58668,note_on,3,0,0,,4,,,76,127
58742,note_on,74,0,0,,2,,,74,127
58748,note_off,6,0,0,,4,,,76,127
58814,note_on,66,0,0,,4,,,76,127
58822,note_off,8,0,0,,2,,,74,127
58870,note_on,48,0,0,,2,,,74,127
58895,note_off,25,0,0,,4,,,76,127
58927,note_on,32,0,0,,4,,,76,127
58950,note_off,23,0,0,,2,,,74,127
58964,note_on,14,0,0,,6,,,66,127
58964,note_on,0,0,0,,10,,,69,127
58981,note_on,17,0,0,,2,,,74,127
59007,note_off,26,0,0,,4,,,76,127
59038,note_on,31,0,0,,4,,,76,127
59061,note_off,23,0,0,,2,,,74,127
59093,note_on,32,0,0,,2,,,74,127
59118,note_off,25,0,0,,4,,,76,127
59152,note_on,34,0,0,,4,,,76,127
59174,note_off,22,0,0,,2,,,74,127
59209,note_on,35,0,0,,2,,,74,127
59232,note_off,23,0,0,,4,,,76,127
59257,note_off,25,0,0,,10,,,69,127
59257,note_off,0,0,0,,6,,,66,127
59257,note_off,0,0,0,,7,,,67,127
59260,note_on,3,0,0,,7,,,67,127
59260,note_on,0,0,0,,12,,,71,127
59260,note_on,0,0,0,,7,,,79,127
59265,note_on,5,0,0,,4,,,76,127
59290,note_off,25,0,0,,2,,,74,127
59322,note_on,32,0,0,,2,,,74,127
59345,note_off,23,0,0,,4,,,76,127
59377,note_on,32,0,0,,4,,,76,127
59402,note_off,25,0,0,,2,,,74,127
59434,note_on,32,0,0,,2,,,74,127
59457,note_off,23,0,0,,4,,,76,127
59489,note_on,32,0,0,,4,,,76,127
59514,note_off,25,0,0,,2,,,74,127
59522,note_off,8,0,0,,7,,,79,127
59547,note_on,25,0,0,,2,,,74,127
59553,note_off,6,0,0,,12,,,71,127
59553,note_off,0,0,0,,7,,,67,127
59556,note_on,3,0,0,,10,,,69,127
59556,note_on,0,0,0,,6,,,66,127
59556,note_on,0,0,0,,10,,,81,127
59570,note_off,14,0,0,,4,,,76,127
59604,note_on,34,0,0,,4,,,76,127
59627,note_off,23,0,0,,2,,,74,127
59661,note_on,34,0,0,,2,,,74,127
59684,note_off,23,0,0,,4,,,76,127
59716,note_on,32,0,0,,4,,,76,127
59741,note_off,25,0,0,,2,,,74,127
59772,note_on,31,0,0,,2,,,74,127
59797,note_off,25,0,0,,4,,,76,127
59829,note_on,32,0,0,,4,,,76,127
59849,note_off,20,0,0,,6,,,66,127
59849,note_off,0,0,0,,10,,,69,127
59852,note_off,3,0,0,,2,,,74,127
59852,note_on,0,0,0,,2,,,62,127
59884,note_on,32,0,0,,2,,,74,127
59909,note_off,25,0,0,,4,,,76,127
59941,note_on,32,0,0,,4,,,76,127
59964,note_off,23,0,0,,2,,,74,127
59998,note_on,34,0,0,,2,,,74,127
60021,note_off,23,0,0,,4,,,76,127
60055,note_on,34,0,0,,4,,,76,127
60078,note_off,23,0,0,,2,,,74,127
60112,note_on,34,0,0,,2,,,74,127
60114,note_off,2,0,0,,10,,,81,127
60136,note_off,22,0,0,,4,,,76,127
60145,note_off,9,0,0,,2,,,62,127
60148,note_on,3,0,0,,7,,,67,127
60148,note_on,0,0,0,,12,,,71,127
60148,note_on,0,0,0,,12,,,83,127
60168,note_on,20,0,0,,4,,,76,127
60193,note_off,25,0,0,,2,,,74,127
60225,note_on,32,0,0,,2,,,74,127
60248,note_off,23,0,0,,4,,,76,127
60280,note_on,32,0,0,,4,,,76,127
60305,note_off,25,0,0,,2,,,74,127
60337,note_on,32,0,0,,2,,,74,127
60360,note_off,23,0,0,,4,,,76,127
60394,note_on,34,0,0,,4,,,76,127
60409,note_off,15,0,0,,12,,,83,127
60417,note_off,8,0,0,,2,,,74,127
60440,note_off,23,0,0,,12,,,71,127
60440,note_off,0,0,0,,7,,,67,127
60443,note_on,3,0,0,,10,,,69,127
60443,note_on,0,0,0,,6,,,66,127
60443,note_on,0,0,0,,0,,,84,127
60449,note_on,6,0,0,,2,,,74,127
60474,note_off,25,0,0,,4,,,76,127
60505,note_on,31,0,0,,4,,,76,127
60530,note_off,25,0,0,,2,,,74,127
60562,note_on,32,0,0,,2,,,74,127
60585,note_off,23,0,0,,4,,,76,127
60619,note_on,34,0,0,,4,,,76,127
60642,note_off,23,0,0,,2,,,74,127
60674,note_on,32,0,0,,2,,,74,127
60699,note_off,25,0,0,,4,,,76,127
60731,note_on,32,0,0,,4,,,76,127
60736,note_off,5,0,0,,6,,,66,127
60736,note_off,0,0,0,,10,,,69,127
60739,note_on,3,0,0,,2,,,62,127
60754,note_off,15,0,0,,2,,,74,127
60788,note_on,34,0,0,,2,,,74,127
60811,note_off,23,0,0,,4,,,76,127
60845,note_on,34,0,0,,4,,,76,127
60868,note_off,23,0,0,,2,,,74,127
60900,note_on,32,0,0,,2,,,74,127
60925,note_off,25,0,0,,4,,,76,127
60957,note_on,32,0,0,,4,,,76,127
60980,note_off,23,0,0,,2,,,74,127
61000,note_off,20,0,0,,0,,,84,127
61012,note_on,12,0,0,,2,,,74,127
61030,note_off,18,0,0,,2,,,62,127
61033,note_on,3,0,0,,7,,,67,127
61033,note_on,0,0,0,,12,,,71,127
61033,note_on,0,0,0,,12,,,83,127
61036,note_off,3,0,0,,4,,,76,127
61068,note_on,32,0,0,,4,,,76,127
61091,note_off,23,0,0,,2,,,74,127
61125,note_on,34,0,0,,2,,,74,127
61148,note_off,23,0,0,,4,,,76,127
61180,note_on,32,0,0,,4,,,76,127
61205,note_off,25,0,0,,2,,,74,127
61237,note_on,32,0,0,,2,,,74,127
61260,note_off,23,0,0,,4,,,76,127
61292,note_on,32,0,0,,4,,,76,127
61294,note_off,2,0,0,,12,,,83,127
61317,note_off,23,0,0,,2,,,74,127
61325,note_off,8,0,0,,12,,,71,127
61325,note_off,0,0,0,,7,,,67,127
61328,note_on,3,0,0,,10,,,69,127
61328,note_on,0,0,0,,6,,,66,127
61328,note_on,0,0,0,,10,,,81,127
61350,note_on,22,0,0,,2,,,74,127
61373,note_off,23,0,0,,4,,,76,127
61405,note_on,32,0,0,,4,,,76,127
61430,note_off,25,0,0,,2,,,74,127
61462,note_on,32,0,0,,2,,,74,127
61485,note_off,23,0,0,,4,,,76,127
61519,note_on,34,0,0,,4,,,76,127
61542,note_off,23,0,0,,2,,,74,127
61574,note_on,32,0,0,,2,,,74,127
61599,note_off,25,0,0,,4,,,76,127
61621,note_off,22,0,0,,6,,,66,127
61621,note_off,0,0,0,,10,,,69,127
61624,note_on,3,0,0,,2,,,62,127
61633,note_on,9,0,0,,4,,,76,127
61655,note_off,22,0,0,,2,,,74,127
61689,note_on,34,0,0,,2,,,74,127
61714,note_off,25,0,0,,4,,,76,127
61746,note_on,32,0,0,,4,,,76,127
61769,note_off,23,0,0,,2,,,74,127
61801,note_on,32,0,0,,2,,,74,127
61826,note_off,25,0,0,,4,,,76,127
61858,note_on,32,0,0,,4,,,76,127
61881,note_off,23,0,0,,2,,,74,127
61886,note_off,5,0,0,,10,,,81,127
61912,note_on,26,0,0,,2,,,74,127
61917,note_off,5,0,0,,2,,,62,127
61920,note_on,3,0,0,,7,,,67,127
61920,note_on,0,0,0,,12,,,71,127
61920,note_on,0,0,0,,7,,,79,127
61938,note_off,18,0,0,,4,,,76,127
61969,note_on,31,0,0,,4,,,76,127
61992,note_off,23,0,0,,2,,,74,127
62027,note_on,35,0,0,,2,,,74,127
62049,note_off,22,0,0,,4,,,76,127
62083,note_on,34,0,0,,4,,,76,127
62108,note_off,25,0,0,,2,,,74,127
62140,note_on,32,0,0,,2,,,74,127
62163,note_off,23,0,0,,4,,,76,127
62181,note_off,18,0,0,,7,,,79,127
62195,note_on,14,0,0,,4,,,76,127
62212,note_off,17,0,0,,12,,,71,127
62212,note_off,0,0,0,,7,,,67,127
62215,note_on,3,0,0,,6,,,66,127
62215,note_on,0,0,0,,10,,,69,127
62215,note_on,0,0,0,,10,,,81,127
62220,note_off,5,0,0,,2,,,74,127
62252,note_on,32,0,0,,2,,,74,127
62275,note_off,23,0,0,,4,,,76,127
62307,note_on,32,0,0,,4,,,76,127
62332,note_off,25,0,0,,2,,,74,127
62364,note_on,32,0,0,,2,,,74,127
62387,note_off,23,0,0,,4,,,76,127
62421,note_on,34,0,0,,4,,,76,127
62444,note_off,23,0,0,,2,,,74,127
62478,note_on,34,0,0,,2,,,74,127
62501,note_off,23,0,0,,4,,,76,127
62507,note_off,6,0,0,,10,,,69,127
62507,note_off,0,0,0,,6,,,66,127
62510,note_on,3,0,0,,2,,,62,127
62535,note_on,25,0,0,,4,,,76,127
62558,note_off,23,0,0,,2,,,74,127
62590,note_on,32,0,0,,2,,,74,127
62615,note_off,25,0,0,,4,,,76,127
62646,note_on,31,0,0,,4,,,76,127
62671,note_off,25,0,0,,2,,,74,127
62702,note_on,31,0,0,,2,,,74,127
62727,note_off,25,0,0,,4,,,76,127
62759,note_on,32,0,0,,4,,,76,127
62773,note_off,14,0,0,,10,,,81,127
62782,note_off,9,0,0,,2,,,74,127
62804,note_off,22,0,0,,2,,,62,127
62807,note_on,3,0,0,,7,,,67,127
62807,note_on,0,0,0,,12,,,71,127
62807,note_on,0,0,0,,12,,,83,127
62816,note_on,9,0,0,,2,,,74,127
62839,note_off,23,0,0,,4,,,76,127
62873,note_on,34,0,0,,4,,,76,127
62896,note_off,23,0,0,,2,,,74,127
62930,note_on,34,0,0,,2,,,74,127
62953,note_off,23,0,0,,4,,,76,127
62985,note_on,32,0,0,,4,,,76,127
63010,note_off,25,0,0,,2,,,74,127
63042,note_on,32,0,0,,2,,,74,127
63065,note_off,23,0,0,,4,,,76,127
63068,note_off,3,0,0,,12,,,83,127
63097,note_on,29,0,0,,4,,,76,127
63099,note_off,2,0,0,,12,,,71,127
63099,note_off,0,0,0,,7,,,67,127
63102,note_on,3,0,0,,10,,,69,127
63102,note_on,0,0,0,,6,,,66,127
63102,note_on,0,0,0,,0,,,84,127
63122,note_off,20,0,0,,2,,,74,127
63154,note_on,32,0,0,,2,,,74,127
63177,note_off,23,0,0,,4,,,76,127
63211,note_on,34,0,0,,4,,,76,127
63234,note_off,23,0,0,,2,,,74,127
63268,note_on,34,0,0,,2,,,74,127
63291,note_off,23,0,0,,4,,,76,127
63323,note_on,32,0,0,,4,,,76,127
63348,note_off,25,0,0,,2,,,74,127
63379,note_on,31,0,0,,2,,,74,127
63394,note_off,15,0,0,,6,,,66,127
63394,note_off,0,0,0,,10,,,69,127
63397,note_on,3,0,0,,2,,,62,127
63403,note_off,6,0,0,,4,,,76,127
63435,note_on,32,0,0,,4,,,76,127
63458,note_off,23,0,0,,2,,,74,127
63490,note_on,32,0,0,,2,,,74,127
63515,note_off,25,0,0,,4,,,76,127
63547,note_on,32,0,0,,4,,,76,127
63570,note_off,23,0,0,,2,,,74,127
63602,note_on,32,0,0,,2,,,74,127
63627,note_off,25,0,0,,4,,,76,127
63658,note_off,31,0,0,,0,,,84,127
63661,note_on,3,0,0,,4,,,76,127
63683,note_off,22,0,0,,2,,,74,127
63689,note_off,6,0,0,,2,,,62,127
63692,note_on,3,0,0,,7,,,67,127
63692,note_on,0,0,0,,12,,,71,127
63692,note_on,0,0,0,,12,,,83,127
63717,note_on,25,0,0,,2,,,74,127
63742,note_off,25,0,0,,4,,,76,127
63774,note_on,32,0,0,,4,,,76,127
63797,note_off,23,0,0,,2,,,74,127
63834,note_on,37,0,0,,2,,,74,127
63854,note_off,20,0,0,,4,,,76,127
63942,note_off,88,0,0,,2,,,74,127
63954,note_off,12,0,0,,12,,,83,127
63985,note_off,31,0,0,,12,,,71,127
63985,note_off,0,0,0,,7,,,67,127
63988,note_on,3,0,0,,0,,,60,127
63988,note_on,0,0,0,,0,,,72,127
64133,note_off,145,0,0,,0,,,72,127
64136,note_on,3,0,0,,10,,,81,127
64281,note_off,145,0,0,,10,,,81,127
64281,note_off,0,0,0,,0,,,60,127
64284,note_on,3,0,0,,2,,,62,127
64284,note_on,0,0,0,,12,,,71,127
64429,note_off,145,0,0,,12,,,71,127
64432,note_on,3,0,0,,7,,,79,127
64577,note_off,145,0,0,,7,,,79,127
64577,note_off,0,0,0,,2,,,62,127
64580,note_on,3,0,0,,2,,,50,127
64580,note_on,0,0,0,,10,,,69,127
64725,note_off,145,0,0,,10,,,69,127
64728,note_on,3,0,0,,6,,,78,127
64873,note_off,145,0,0,,6,,,78,127
64873,note_off,0,0,0,,2,,,50,127
64892,note_on,19,0,0,,7,,,91,127
64892,note_on,0,0,0,,7,,,55,127
65037,note_off,145,0,0,,7,,,91,127
65040,note_on,3,0,0,,2,,,86,127
65185,note_off,145,0,0,,2,,,86,127
65188,note_on,3,0,0,,2,,,86,127
65333,note_off,145,0,0,,2,,,86,127
65336,note_on,3,0,0,,12,,,83,127
65481,note_off,145,0,0,,12,,,83,127
65481,note_off,0,0,0,,7,,,55,127
65484,note_on,3,0,0,,12,,,83,127
65484,note_on,0,0,0,,7,,,79,127
65629,note_off,145,0,0,,12,,,83,127
65632,note_on,3,0,0,,2,,,86,127
65777,note_off,145,0,0,,2,,,86,127
65777,note_off,0,0,0,,7,,,79,127
65780,note_on,3,0,0,,4,,,88,127
65780,note_on,0,0,0,,0,,,84,127
65918,note_off,138,0,0,,0,,,84,127
65924,note_off,6,0,0,,4,,,88,127
65927,note_on,3,0,0,,0,,,84,127
66072,note_off,145,0,0,,0,,,84,127
66075,note_on,3,0,0,,0,,,84,127
66075,note_on,0,0,0,,10,,,81,127
66213,note_off,138,0,0,,10,,,81,127
66219,note_off,6,0,0,,0,,,84,127
66222,note_on,3,0,0,,10,,,81,127
66367,note_off,145,0,0,,10,,,81,127
66370,note_on,3,0,0,,10,,,81,127
66370,note_on,0,0,0,,6,,,78,127
66516,note_off,146,0,0,,10,,,81,127
66518,note_on,2,0,0,,2,,,86,127
66663,note_off,145,0,0,,6,,,78,127
66665,note_off,2,0,0,,2,,,86,127
66667,note_on,2,0,0,,2,,,86,127
66667,note_on,0,0,0,,7,,,79,127
66812,note_off,145,0,0,,2,,,86,127
66815,note_on,3,0,0,,12,,,83,127
66960,note_off,145,0,0,,12,,,83,127
66960,note_off,0,0,0,,7,,,79,127
66963,note_on,3,0,0,,12,,,83,127
66963,note_on,0,0,0,,2,,,74,127
67108,note_off,145,0,0,,12,,,83,127
67111,note_on,3,0,0,,7,,,79,127
67256,note_off,145,0,0,,7,,,79,127
67256,note_off,0,0,0,,2,,,74,127
67259,note_on,3,0,0,,7,,,79,127
67259,note_on,0,0,0,,12,,,71,127
67404,note_off,145,0,0,,7,,,79,127
67407,note_on,3,0,0,,2,,,74,127
67552,note_off,145,0,0,,2,,,74,127
67552,note_off,0,0,0,,12,,,71,127
67555,note_on,3,0,0,,4,,,76,127
67555,note_on,0,0,0,,0,,,72,127
67700,note_off,145,0,0,,4,,,76,127
67703,note_on,3,0,0,,0,,,84,127
67848,note_off,145,0,0,,0,,,84,127
67848,note_off,0,0,0,,0,,,72,127
67851,note_on,3,0,0,,12,,,83,127
67851,note_on,0,0,0,,2,,,74,127
67996,note_off,145,0,0,,12,,,83,127
67999,note_on,3,0,0,,10,,,81,127
68144,note_off,145,0,0,,10,,,81,127
68144,note_off,0,0,0,,2,,,74,127
68147,note_on,3,0,0,,7,,,79,127
68147,note_on,0,0,0,,2,,,62,127
68292,note_off,145,0,0,,7,,,79,127
68295,note_on,3,0,0,,6,,,78,127
68440,note_off,145,0,0,,6,,,78,127
68440,note_off,0,0,0,,2,,,62,127
68443,note_on,3,0,0,,7,,,79,127
68443,note_on,0,0,0,,7,,,55,127
68588,note_off,145,0,0,,7,,,79,127
68591,note_on,3,0,0,,2,,,74,127
68736,note_off,145,0,0,,2,,,74,127
68739,note_on,3,0,0,,2,,,74,127
68884,note_off,145,0,0,,2,,,74,127
68887,note_on,3,0,0,,12,,,71,127
69032,note_off,145,0,0,,12,,,71,127
69032,note_off,0,0,0,,7,,,55,127
69035,note_on,3,0,0,,12,,,71,127
69035,note_on,0,0,0,,7,,,67,127
69180,note_off,145,0,0,,12,,,71,127
69183,note_on,3,0,0,,2,,,74,127
69328,note_off,145,0,0,,2,,,74,127
69328,note_off,0,0,0,,7,,,67,127
69331,note_on,3,0,0,,4,,,76,127
69331,note_on,0,0,0,,0,,,72,127
69469,note_off,138,0,0,,0,,,72,127
69475,note_off,6,0,0,,4,,,76,127
69478,note_on,3,0,0,,0,,,72,127
69623,note_off,145,0,0,,0,,,72,127
69626,note_on,3,0,0,,0,,,72,127
69626,note_on,0,0,0,,10,,,69,127
69764,note_off,138,0,0,,10,,,69,127
69770,note_off,6,0,0,,0,,,72,127
69773,note_on,3,0,0,,10,,,69,127
69918,note_off,145,0,0,,10,,,69,127
69921,note_on,3,0,0,,10,,,69,127
69921,note_on,0,0,0,,6,,,66,127
70066,note_off,145,0,0,,10,,,69,127
70069,note_on,3,0,0,,2,,,74,127
70214,note_off,145,0,0,,2,,,74,127
70214,note_off,0,0,0,,6,,,66,127
70217,note_on,3,0,0,,2,,,74,127
70217,note_on,0,0,0,,7,,,67,127
70362,note_off,145,0,0,,2,,,74,127
70365,note_on,3,0,0,,12,,,71,127
70510,note_off,145,0,0,,12,,,71,127
70510,note_off,0,0,0,,7,,,67,127
70513,note_on,3,0,0,,12,,,71,127
70513,note_on,0,0,0,,2,,,62,127
70658,note_off,145,0,0,,12,,,71,127
70661,note_on,3,0,0,,7,,,67,127
70806,note_off,145,0,0,,7,,,67,127
70806,note_off,0,0,0,,2,,,62,127
70809,note_on,3,0,0,,7,,,67,127
70809,note_on,0,0,0,,12,,,59,127
70954,note_off,145,0,0,,7,,,67,127
70957,note_on,3,0,0,,2,,,62,127
71102,note_off,145,0,0,,2,,,62,127
71102,note_off,0,0,0,,12,,,59,127
71105,note_on,3,0,0,,4,,,64,127
71105,note_on,0,0,0,,0,,,60,127
71250,note_off,145,0,0,,4,,,64,127
71253,note_on,3,0,0,,0,,,72,127
71398,note_off,145,0,0,,0,,,72,127
71398,note_off,0,0,0,,0,,,60,127
71401,note_on,3,0,0,,12,,,71,127
71401,note_on,0,0,0,,2,,,62,127
71546,note_off,145,0,0,,12,,,71,127
71549,note_on,3,0,0,,10,,,69,127
71694,note_off,145,0,0,,10,,,69,127
71694,note_off,0,0,0,,2,,,62,127
71697,note_on,3,0,0,,7,,,67,127
71697,note_on,0,0,0,,2,,,50,127
71842,note_off,145,0,0,,7,,,67,127
71845,note_on,3,0,0,,6,,,66,127
71990,note_off,145,0,0,,6,,,66,127
71990,note_off,0,0,0,,2,,,50,127
71993,note_on,3,0,0,,7,,,67,127
71993,note_on,0,0,0,,7,,,43,127
72138,note_off,145,0,0,,7,,,43,127
72141,note_on,3,0,0,,2,,,62,127
72286,note_off,145,0,0,,2,,,62,127
72289,note_on,3,0,0,,12,,,59,127
72434,note_off,145,0,0,,12,,,59,127
72437,note_on,3,0,0,,7,,,55,127
72582,note_off,145,0,0,,7,,,55,127
72585,note_on,3,0,0,,12,,,59,127
72730,note_off,145,0,0,,12,,,59,127
72733,note_off,3,0,0,,7,,,67,127
72733,note_on,0,0,0,,2,,,62,127
72878,note_off,145,0,0,,2,,,62,127
72897,note_on,19,0,0,,2,,,62,127
72897,note_on,0,0,0,,2,,,74,127
73042,note_off,145,0,0,,2,,,74,127
73045,note_on,3,0,0,,6,,,66,127
73190,note_off,145,0,0,,6,,,66,127
73190,note_off,0,0,0,,2,,,62,127
73193,note_on,3,0,0,,12,,,59,127
73193,note_on,0,0,0,,7,,,67,127
73338,note_off,145,0,0,,7,,,67,127
73341,note_on,3,0,0,,10,,,69,127
73412,note_off,71,0,0,,10,,,69,127
73415,note_on,3,0,0,,12,,,71,127
73486,note_off,71,0,0,,12,,,71,127
73486,note_off,0,0,0,,12,,,59,127
73489,note_on,3,0,0,,7,,,55,127
73489,note_on,0,0,0,,10,,,69,127
73538,note_off,49,0,0,,10,,,69,127
73538,note_on,0,0,0,,12,,,71,127
73587,note_off,49,0,0,,12,,,71,127
73587,note_on,0,0,0,,10,,,69,127
73636,note_off,49,0,0,,10,,,69,127
73636,note_on,0,0,0,,7,,,67,127
73781,note_off,145,0,0,,7,,,67,127
73781,note_off,0,0,0,,7,,,55,127
73784,note_on,3,0,0,,2,,,50,127
73784,note_on,0,0,0,,2,,,74,127
73929,note_off,145,0,0,,2,,,74,127
73932,note_on,3,0,0,,6,,,66,127
74077,note_off,145,0,0,,6,,,66,127
74077,note_off,0,0,0,,2,,,50,127
74080,note_on,3,0,0,,12,,,47,127
74080,note_on,0,0,0,,7,,,67,127
74225,note_off,145,0,0,,7,,,67,127
74228,note_on,3,0,0,,10,,,69,127
74299,note_off,71,0,0,,10,,,69,127
74302,note_on,3,0,0,,12,,,71,127
74373,note_off,71,0,0,,12,,,71,127
74373,note_off,0,0,0,,12,,,47,127
74376,note_on,3,0,0,,7,,,43,127
74376,note_on,0,0,0,,10,,,69,127
74438,note_off,62,0,0,,10,,,69,127
74438,note_on,0,0,0,,12,,,71,127
74500,note_off,62,0,0,,12,,,71,127
74500,note_on,0,0,0,,10,,,69,127
74562,note_off,62,0,0,,10,,,69,127
74562,note_on,0,0,0,,7,,,67,127
74648,note_off,86,0,0,,7,,,67,127
74670,note_off,22,0,0,,7,,,43,127
74673,note_on,3,0,0,,2,,,50,127
74673,note_on,0,0,0,,2,,,74,127
74818,note_off,145,0,0,,2,,,74,127
74821,note_on,3,0,0,,6,,,66,127
74966,note_off,145,0,0,,6,,,66,127
74966,note_off,0,0,0,,2,,,50,127
74969,note_on,3,0,0,,12,,,47,127
74969,note_on,0,0,0,,7,,,67,127
75114,note_off,145,0,0,,7,,,67,127
75117,note_on,3,0,0,,10,,,69,127
75188,note_off,71,0,0,,10,,,69,127
75191,note_on,3,0,0,,12,,,71,127
75262,note_off,71,0,0,,12,,,71,127
75262,note_off,0,0,0,,12,,,47,127
75265,note_on,3,0,0,,7,,,43,127
75265,note_on,0,0,0,,12,,,71,127
75319,note_off,54,0,0,,12,,,71,127
75319,note_on,0,0,0,,10,,,69,127
75373,note_off,54,0,0,,10,,,69,127
75373,note_on,0,0,0,,12,,,71,127
75427,note_off,54,0,0,,12,,,71,127
75427,note_on,0,0,0,,10,,,69,127
75481,note_off,54,0,0,,10,,,69,127
75481,note_on,0,0,0,,7,,,67,127
75535,note_off,54,0,0,,7,,,67,127
75558,note_off,23,0,0,,7,,,43,127
75561,note_on,3,0,0,,2,,,50,127
75561,note_on,0,0,0,,2,,,74,127
75706,note_off,145,0,0,,2,,,74,127
75709,note_on,3,0,0,,6,,,66,127
75854,note_off,145,0,0,,6,,,66,127
75854,note_off,0,0,0,,2,,,50,127
75857,note_on,3,0,0,,12,,,47,127
75857,note_on,0,0,0,,7,,,67,127
76002,note_off,145,0,0,,7,,,67,127
76005,note_on,3,0,0,,10,,,69,127
76076,note_off,71,0,0,,10,,,69,127
76079,note_on,3,0,0,,12,,,71,127
76150,note_off,71,0,0,,12,,,71,127
76150,note_off,0,0,0,,12,,,47,127
76153,note_on,3,0,0,,7,,,43,127
76153,note_on,0,0,0,,10,,,69,127
76298,note_off,145,0,0,,10,,,69,127
76301,note_on,3,0,0,,7,,,67,127
76446,note_off,145,0,0,,7,,,67,127
76446,note_off,0,0,0,,7,,,43,127
76449,note_on,3,0,0,,6,,,54,127
76449,note_on,0,0,0,,10,,,69,127
76594,note_off,145,0,0,,10,,,69,127
76597,note_on,3,0,0,,2,,,62,127
76742,note_off,145,0,0,,2,,,62,127
76742,note_off,0,0,0,,6,,,54,127
76745,note_on,3,0,0,,2,,,50,127
76745,note_on,0,0,0,,0,,,72,127
76890,note_off,145,0,0,,0,,,72,127
76893,note_on,3,0,0,,2,,,62,127
77038,note_off,145,0,0,,2,,,62,127
77038,note_off,0,0,0,,2,,,50,127
77041,note_on,3,0,0,,7,,,55,127
77041,note_on,0,0,0,,12,,,71,127
77186,note_off,145,0,0,,12,,,71,127
77189,note_on,3,0,0,,2,,,62,127
77334,note_off,145,0,0,,2,,,62,127
77334,note_off,0,0,0,,7,,,55,127
77337,note_on,3,0,0,,0,,,48,127
77337,note_on,0,0,0,,0,,,60,127
77482,note_off,145,0,0,,0,,,60,127
77485,note_on,3,0,0,,10,,,69,127
77630,note_off,145,0,0,,10,,,69,127
77630,note_off,0,0,0,,0,,,48,127
77633,note_on,3,0,0,,2,,,50,127
77633,note_on,0,0,0,,12,,,59,127
77778,note_off,145,0,0,,12,,,59,127
77781,note_on,3,0,0,,7,,,67,127
77926,note_off,145,0,0,,7,,,67,127
77926,note_off,0,0,0,,2,,,50,127
77929,note_on,3,0,0,,2,,,50,127
77929,note_on,0,0,0,,10,,,57,127
78074,note_off,145,0,0,,10,,,57,127
78077,note_on,3,0,0,,6,,,66,127
78222,note_off,145,0,0,,6,,,66,127
78222,note_off,0,0,0,,2,,,50,127
78225,note_on,3,0,0,,7,,,43,127
78225,note_on,0,0,0,,7,,,67,127
78370,note_off,145,0,0,,7,,,67,127
78373,note_on,3,0,0,,2,,,62,127
78518,note_off,145,0,0,,2,,,62,127
78521,note_on,3,0,0,,12,,,59,127
78666,note_off,145,0,0,,12,,,59,127
78669,note_on,3,0,0,,7,,,55,127
78814,note_off,145,0,0,,7,,,55,127
78817,note_on,3,0,0,,2,,,62,127
78962,note_off,145,0,0,,2,,,62,127
78965,note_on,3,0,0,,12,,,59,127
79110,note_off,145,0,0,,12,,,59,127
79110,note_off,0,0,0,,7,,,43,127
79113,note_on,3,0,0,,2,,,74,127
79113,note_on,0,0,0,,2,,,50,127
79258,note_off,145,0,0,,2,,,74,127
79261,note_on,3,0,0,,6,,,66,127
79406,note_off,145,0,0,,6,,,66,127
79406,note_off,0,0,0,,2,,,50,127
79409,note_on,3,0,0,,7,,,67,127
79409,note_on,0,0,0,,12,,,47,127
79554,note_off,145,0,0,,7,,,67,127
79557,note_on,3,0,0,,10,,,69,127
79628,note_off,71,0,0,,10,,,69,127
79631,note_on,3,0,0,,12,,,71,127
79702,note_off,71,0,0,,12,,,71,127
79702,note_off,0,0,0,,12,,,47,127
79705,note_on,3,0,0,,12,,,71,127
79705,note_on,0,0,0,,7,,,43,127
79751,note_off,46,0,0,,12,,,71,127
79751,note_on,0,0,0,,10,,,69,127
79797,note_off,46,0,0,,10,,,69,127
79797,note_on,0,0,0,,12,,,71,127
79843,note_off,46,0,0,,12,,,71,127
79843,note_on,0,0,0,,10,,,69,127
79889,note_off,46,0,0,,10,,,69,127
79889,note_on,0,0,0,,7,,,67,127
79981,note_off,92,0,0,,7,,,67,127
79996,note_off,15,0,0,,7,,,43,127
79999,note_on,3,0,0,,2,,,74,127
79999,note_on,0,0,0,,2,,,50,127
80144,note_off,145,0,0,,2,,,74,127
80147,note_on,3,0,0,,6,,,66,127
80292,note_off,145,0,0,,6,,,66,127
80292,note_off,0,0,0,,2,,,50,127
80295,note_on,3,0,0,,7,,,67,127
80295,note_on,0,0,0,,12,,,47,127
80440,note_off,145,0,0,,7,,,67,127
80443,note_on,3,0,0,,10,,,69,127
80514,note_off,71,0,0,,10,,,69,127
80517,note_on,3,0,0,,12,,,71,127
80588,note_off,71,0,0,,12,,,71,127
80588,note_off,0,0,0,,12,,,47,127
80591,note_on,3,0,0,,10,,,69,127
80591,note_on,0,0,0,,7,,,43,127
80637,note_off,46,0,0,,10,,,69,127
80643,note_on,6,0,0,,12,,,71,127
80689,note_off,46,0,0,,12,,,71,127
80695,note_on,6,0,0,,10,,,69,127
80741,note_off,46,0,0,,10,,,69,127
80747,note_on,6,0,0,,7,,,67,127
80882,note_off,135,0,0,,7,,,67,127
80882,note_off,0,0,0,,7,,,43,127
80885,note_on,3,0,0,,2,,,74,127
80885,note_on,0,0,0,,2,,,50,127
81030,note_off,145,0,0,,2,,,74,127
81033,note_on,3,0,0,,6,,,66,127
81178,note_off,145,0,0,,6,,,66,127
81178,note_off,0,0,0,,2,,,50,127
81181,note_on,3,0,0,,7,,,67,127
81181,note_on,0,0,0,,12,,,47,127
81326,note_off,145,0,0,,7,,,67,127
81329,note_on,3,0,0,,10,,,69,127
81400,note_off,71,0,0,,10,,,69,127
81403,note_on,3,0,0,,12,,,71,127
81474,note_off,71,0,0,,12,,,71,127
81474,note_off,0,0,0,,12,,,47,127
81477,note_on,3,0,0,,10,,,69,127
81477,note_on,0,0,0,,7,,,43,127
81622,note_off,145,0,0,,10,,,69,127
81625,note_on,3,0,0,,7,,,67,127
81745,note_off,120,0,0,,7,,,67,127
81771,note_off,26,0,0,,7,,,43,127
81774,note_on,3,0,0,,2,,,74,127
81774,note_on,0,0,0,,2,,,50,127
81919,note_off,145,0,0,,2,,,74,127
81922,note_on,3,0,0,,6,,,66,127
82067,note_off,145,0,0,,6,,,66,127
82067,note_off,0,0,0,,2,,,50,127
82070,note_on,3,0,0,,7,,,67,127
82070,note_on,0,0,0,,12,,,47,127
82215,note_off,145,0,0,,7,,,67,127
82218,note_on,3,0,0,,10,,,69,127
82289,note_off,71,0,0,,10,,,69,127
82292,note_on,3,0,0,,12,,,71,127
82363,note_off,71,0,0,,12,,,71,127
82363,note_off,0,0,0,,12,,,47,127
82366,note_on,3,0,0,,10,,,69,127
82366,note_on,0,0,0,,7,,,43,127
82437,note_off,71,0,0,,10,,,69,127
82440,note_on,3,0,0,,12,,,71,127
82511,note_off,71,0,0,,12,,,71,127
82514,note_on,3,0,0,,10,,,69,127
82585,note_off,71,0,0,,10,,,69,127
82588,note_on,3,0,0,,7,,,67,127
82659,note_off,71,0,0,,7,,,67,127
82659,note_off,0,0,0,,7,,,43,127
82662,note_on,3,0,0,,10,,,69,127
82662,note_on,0,0,0,,6,,,42,127
82807,note_off,145,0,0,,10,,,69,127
82810,note_on,3,0,0,,2,,,62,127
82955,note_off,145,0,0,,2,,,62,127
82955,note_off,0,0,0,,6,,,42,127
82958,note_on,3,0,0,,0,,,72,127
82958,note_on,0,0,0,,2,,,38,127
83103,note_off,145,0,0,,0,,,72,127
83106,note_on,3,0,0,,2,,,62,127
83251,note_off,145,0,0,,2,,,62,127
83251,note_off,0,0,0,,2,,,38,127
83254,note_on,3,0,0,,12,,,71,127
83254,note_on,0,0,0,,7,,,43,127
83399,note_off,145,0,0,,12,,,71,127
83402,note_on,3,0,0,,2,,,62,127
83547,note_off,145,0,0,,2,,,62,127
83547,note_off,0,0,0,,7,,,43,127
83550,note_on,3,0,0,,0,,,60,127
83550,note_on,0,0,0,,0,,,48,127
83550,note_on,0,0,0,,0,,,36,127
83695,note_off,145,0,0,,0,,,60,127
83698,note_on,3,0,0,,10,,,69,127
83843,note_off,145,0,0,,10,,,69,127
83843,note_off,0,0,0,,0,,,36,127
83843,note_off,0,0,0,,0,,,48,127
83846,note_on,3,0,0,,12,,,59,127
83846,note_on,0,0,0,,2,,,50,127
83846,note_on,0,0,0,,2,,,38,127
83991,note_off,145,0,0,,12,,,59,127
83994,note_on,3,0,0,,7,,,67,127
84139,note_off,145,0,0,,7,,,67,127
84139,note_off,0,0,0,,2,,,38,127
84139,note_off,0,0,0,,2,,,50,127
84142,note_on,3,0,0,,10,,,57,127
84142,note_on,0,0,0,,2,,,50,127
84142,note_on,0,0,0,,2,,,38,127
84287,note_off,145,0,0,,10,,,57,127
84290,note_on,3,0,0,,6,,,66,127
84404,note_off,114,0,0,,2,,,38,127
84404,note_off,0,0,0,,2,,,50,127
84435,note_off,31,0,0,,6,,,66,127
84438,note_on,3,0,0,,7,,,67,127
84438,note_on,0,0,0,,7,,,55,127
84438,note_on,0,0,0,,7,,,43,127
84583,note_off,145,0,0,,7,,,67,127
84586,note_on,3,0,0,,2,,,62,127
84731,note_off,145,0,0,,2,,,62,127
84734,note_on,3,0,0,,12,,,59,127
84869,note_off,135,0,0,,7,,,55,127
84878,note_off,9,0,0,,12,,,59,127
84881,note_on,3,0,0,,7,,,55,127
85026,note_off,145,0,0,,7,,,55,127
85029,note_on,3,0,0,,12,,,59,127
85174,note_off,145,0,0,,12,,,59,127
85177,note_on,3,0,0,,2,,,62,127
85285,note_off,108,0,0,,7,,,43,127
85322,note_off,37,0,0,,2,,,62,127
85325,note_on,3,0,0,,7,,,67,127
85325,note_on,0,0,0,,7,,,55,127
85325,note_on,0,0,0,,7,,,43,127
85470,note_off,145,0,0,,7,,,67,127
85473,note_on,3,0,0,,2,,,62,127
85618,note_off,145,0,0,,2,,,62,127
85621,note_on,3,0,0,,12,,,59,127
85756,note_off,135,0,0,,7,,,55,127
85765,note_off,9,0,0,,12,,,59,127
85768,note_on,3,0,0,,7,,,55,127
85913,note_off,145,0,0,,7,,,55,127
85913,note_off,0,0,0,,7,,,43,127
85916,note_on,3,0,0,,10,,,57,127
85916,note_on,0,0,0,,2,,,50,127
86061,note_off,145,0,0,,10,,,57,127
86064,note_on,3,0,0,,10,,,69,127
86064,note_on,0,0,0,,6,,,66,127
86209,note_off,145,0,0,,6,,,66,127
86209,note_off,0,0,0,,10,,,69,127
86209,note_off,0,0,0,,2,,,50,127
86212,note_on,3,0,0,,7,,,67,127
86212,note_on,0,0,0,,12,,,71,127
86212,note_on,0,0,0,,12,,,47,127
86357,note_off,145,0,0,,7,,,67,127
86360,note_on,3,0,0,,2,,,62,127
86505,note_off,145,0,0,,2,,,62,127
86505,note_off,0,0,0,,12,,,47,127
86508,note_on,3,0,0,,12,,,59,127
86508,note_on,0,0,0,,7,,,43,127
86653,note_off,145,0,0,,12,,,59,127
86656,note_on,3,0,0,,7,,,55,127
86801,note_off,145,0,0,,7,,,55,127
86801,note_off,0,0,0,,7,,,43,127
86804,note_on,3,0,0,,10,,,57,127
86804,note_on,0,0,0,,2,,,50,127
86949,note_off,145,0,0,,10,,,57,127
86952,note_off,3,0,0,,12,,,71,127
86952,note_on,0,0,0,,10,,,69,127
86952,note_on,0,0,0,,6,,,66,127
87097,note_off,145,0,0,,6,,,66,127
87097,note_off,0,0,0,,10,,,69,127
87097,note_off,0,0,0,,2,,,50,127
87100,note_on,3,0,0,,7,,,67,127
87100,note_on,0,0,0,,12,,,71,127
87100,note_on,0,0,0,,12,,,47,127
87248,note_on,148,0,0,,2,,,62,127
87393,note_off,145,0,0,,2,,,62,127
87393,note_off,0,0,0,,12,,,47,127
87393,note_off,0,0,0,,7,,,67,127
87396,note_on,3,0,0,,12,,,59,127
87396,note_on,0,0,0,,7,,,43,127
87541,note_off,145,0,0,,12,,,59,127
87544,note_on,3,0,0,,7,,,55,127
87686,note_off,142,0,0,,12,,,71,127
87689,note_off,3,0,0,,7,,,55,127
87689,note_off,0,0,0,,7,,,43,127
87692,note_on,3,0,0,,10,,,57,127
87692,note_on,0,0,0,,2,,,50,127
87837,note_off,145,0,0,,10,,,57,127
87840,note_on,3,0,0,,10,,,69,127
87840,note_on,0,0,0,,6,,,66,127
87985,note_off,145,0,0,,6,,,66,127
87985,note_off,0,0,0,,10,,,69,127
87985,note_off,0,0,0,,2,,,50,127
87988,note_on,3,0,0,,7,,,67,127
87988,note_on,0,0,0,,12,,,71,127
87988,note_on,0,0,0,,12,,,47,127
88136,note_on,148,0,0,,2,,,62,127
88281,note_off,145,0,0,,2,,,62,127
88281,note_off,0,0,0,,12,,,47,127
88284,note_on,3,0,0,,12,,,59,127
88284,note_on,0,0,0,,7,,,43,127
88419,note_off,135,0,0,,12,,,71,127
88419,note_off,0,0,0,,7,,,67,127
88428,note_off,9,0,0,,12,,,59,127
88431,note_on,3,0,0,,7,,,55,127
88576,note_off,145,0,0,,7,,,55,127
88576,note_off,0,0,0,,7,,,43,127
88579,note_on,3,0,0,,10,,,57,127
88579,note_on,0,0,0,,2,,,50,127
88724,note_off,145,0,0,,10,,,57,127
88727,note_on,3,0,0,,10,,,69,127
88727,note_on,0,0,0,,6,,,66,127
88872,note_off,145,0,0,,6,,,66,127
88872,note_off,0,0,0,,10,,,69,127
88872,note_off,0,0,0,,2,,,50,127
88875,note_on,3,0,0,,7,,,67,127
88875,note_on,0,0,0,,12,,,71,127
88875,note_on,0,0,0,,12,,,47,127
89020,note_off,145,0,0,,12,,,71,127
89023,note_on,3,0,0,,2,,,62,127
89168,note_off,145,0,0,,2,,,62,127
89168,note_off,0,0,0,,12,,,47,127
89171,note_on,3,0,0,,12,,,59,127
89171,note_on,0,0,0,,7,,,43,127
89316,note_off,145,0,0,,12,,,59,127
89319,note_on,3,0,0,,7,,,55,127
89461,note_off,142,0,0,,7,,,67,127
89464,note_off,3,0,0,,7,,,55,127
89464,note_off,0,0,0,,7,,,43,127
89467,note_on,3,0,0,,10,,,57,127
89467,note_on,0,0,0,,2,,,50,127
89615,note_on,148,0,0,,10,,,69,127
89615,note_on,0,0,0,,6,,,66,127
89760,note_off,145,0,0,,6,,,66,127
89760,note_off,0,0,0,,10,,,69,127
89760,note_off,0,0,0,,2,,,50,127
89760,note_off,0,0,0,,10,,,57,127
89763,note_on,3,0,0,,7,,,67,127
89763,note_on,0,0,0,,2,,,62,127
89763,note_on,0,0,0,,12,,,59,127
89763,note_on,0,0,0,,7,,,43,127
90646,note_off,883,0,0,,7,,,43,127
90646,note_off,0,0,0,,12,,,59,127
90646,note_off,0,0,0,,2,,,62,127
90646,note_off,0,0,0,,7,,,67,127
90681,note_on,35,0,0,,12,,,71,127
90681,note_on,0,0,0,,2,,,74,127
90681,note_on,0,0,0,,7,,,67,127
90973,note_off,292,0,0,,7,,,67,127
90973,note_off,0,0,0,,2,,,74,127
90973,note_off,0,0,0,,12,,,71,127
90976,note_on,3,0,0,,12,,,71,127
90976,note_on,0,0,0,,2,,,74,127
90976,note_on,0,0,0,,7,,,67,127
91268,note_off,292,0,0,,7,,,67,127
91268,note_off,0,0,0,,2,,,74,127
91268,note_off,0,0,0,,12,,,71,127
91271,note_on,3,0,0,,2,,,74,127
91271,note_on,0,0,0,,12,,,71,127
91271,note_on,0,0,0,,7,,,67,127
91563,note_off,292,0,0,,7,,,67,127
91563,note_off,0,0,0,,12,,,71,127
91563,note_off,0,0,0,,2,,,74,127
91566,note_on,3,0,0,,12,,,71,127
91566,note_on,0,0,0,,2,,,74,127
91566,note_on,0,0,0,,10,,,69,127
91566,note_on,0,0,0,,5,,,65,127
91858,note_off,292,0,0,,5,,,65,127
91858,note_off,0,0,0,,10,,,69,127
91858,note_off,0,0,0,,2,,,74,127
91858,note_off,0,0,0,,12,,,71,127
91861,note_on,3,0,0,,2,,,74,127
91861,note_on,0,0,0,,12,,,71,127
91861,note_on,0,0,0,,5,,,65,127
91861,note_on,0,0,0,,10,,,69,127
92153,note_off,292,0,0,,10,,,69,127
92153,note_off,0,0,0,,5,,,65,127
92153,note_off,0,0,0,,12,,,71,127
92153,note_off,0,0,0,,2,,,74,127
92156,note_on,3,0,0,,2,,,74,127
92156,note_on,0,0,0,,12,,,71,127
92156,note_on,0,0,0,,5,,,65,127
92156,note_on,0,0,0,,10,,,69,127
92448,note_off,292,0,0,,10,,,69,127
92448,note_off,0,0,0,,5,,,65,127
92448,note_off,0,0,0,,12,,,71,127
92448,note_off,0,0,0,,2,,,74,127
92451,note_on,3,0,0,,2,,,74,127
92451,note_on,0,0,0,,4,,,64,127
92451,note_on,0,0,0,,8,,,68,127
92522,note_off,71,0,0,,2,,,74,127
92525,note_on,3,0,0,,4,,,76,127
92596,note_off,71,0,0,,4,,,76,127
92599,note_on,3,0,0,,5,,,77,127
92744,note_off,145,0,0,,5,,,77,127
92744,note_off,0,0,0,,8,,,68,127
92744,note_off,0,0,0,,4,,,64,127
92747,note_on,3,0,0,,4,,,76,127
92747,note_on,0,0,0,,4,,,64,127
92747,note_on,0,0,0,,8,,,68,127
92892,note_off,145,0,0,,4,,,76,127
92895,note_on,3,0,0,,2,,,74,127
93040,note_off,145,0,0,,2,,,74,127
93040,note_off,0,0,0,,8,,,68,127
93040,note_off,0,0,0,,4,,,64,127
93043,note_on,3,0,0,,0,,,72,127
93043,note_on,0,0,0,,4,,,64,127
93043,note_on,0,0,0,,8,,,68,127
93188,note_off,145,0,0,,0,,,72,127
93191,note_on,3,0,0,,12,,,71,127
93336,note_off,145,0,0,,12,,,71,127
93336,note_off,0,0,0,,8,,,68,127
93336,note_off,0,0,0,,4,,,64,127
93339,note_on,3,0,0,,2,,,74,127
93339,note_on,0,0,0,,4,,,64,127
93339,note_on,0,0,0,,10,,,69,127
93413,note_off,74,0,0,,2,,,74,127
93413,note_on,0,0,0,,0,,,72,127
93487,note_off,74,0,0,,0,,,72,127
93487,note_on,0,0,0,,2,,,74,127
93561,note_off,74,0,0,,2,,,74,127
93561,note_on,0,0,0,,0,,,72,127
93635,note_off,74,0,0,,0,,,72,127
93635,note_on,0,0,0,,2,,,74,127
93709,note_off,74,0,0,,2,,,74,127
93709,note_on,0,0,0,,0,,,72,127
93927,note_off,218,0,0,,10,,,69,127
93927,note_off,0,0,0,,4,,,64,127
93930,note_off,3,0,0,,0,,,72,127
93930,note_on,0,0,0,,12,,,71,127
93930,note_on,0,0,0,,8,,,68,127
94222,note_off,292,0,0,,8,,,68,127
94222,note_off,0,0,0,,12,,,71,127
94241,note_on,19,0,0,,7,,,67,127
94241,note_on,0,0,0,,2,,,74,127
94241,note_on,0,0,0,,12,,,71,127
94533,note_off,292,0,0,,12,,,71,127
94533,note_off,0,0,0,,2,,,74,127
94533,note_off,0,0,0,,7,,,67,127
94536,note_on,3,0,0,,7,,,67,127
94536,note_on,0,0,0,,12,,,71,127
94536,note_on,0,0,0,,2,,,74,127
94828,note_off,292,0,0,,2,,,74,127
94828,note_off,0,0,0,,12,,,71,127
94828,note_off,0,0,0,,7,,,67,127
94831,note_on,3,0,0,,7,,,67,127
94831,note_on,0,0,0,,12,,,71,127
94831,note_on,0,0,0,,2,,,74,127
95123,note_off,292,0,0,,2,,,74,127
95123,note_off,0,0,0,,12,,,71,127
95123,note_off,0,0,0,,7,,,67,127
95126,note_on,3,0,0,,6,,,66,127
95126,note_on,0,0,0,,12,,,71,127
95126,note_on,0,0,0,,2,,,74,127
95418,note_off,292,0,0,,2,,,74,127
95418,note_off,0,0,0,,12,,,71,127
95418,note_off,0,0,0,,6,,,66,127
95421,note_on,3,0,0,,6,,,66,127
95421,note_on,0,0,0,,2,,,74,127
95421,note_on,0,0,0,,12,,,71,127
95713,note_off,292,0,0,,12,,,71,127
95713,note_off,0,0,0,,2,,,74,127
95713,note_off,0,0,0,,6,,,66,127
95716,note_on,3,0,0,,6,,,66,127
95716,note_on,0,0,0,,12,,,71,127
95716,note_on,0,0,0,,2,,,74,127
96008,note_off,292,0,0,,2,,,74,127
96008,note_off,0,0,0,,12,,,71,127
96008,note_off,0,0,0,,6,,,66,127
96011,note_on,3,0,0,,5,,,65,127
96011,note_on,0,0,0,,2,,,74,127
96082,note_off,71,0,0,,2,,,74,127
96085,note_on,3,0,0,,4,,,76,127
96156,note_off,71,0,0,,4,,,76,127
96159,note_on,3,0,0,,6,,,78,127
96304,note_off,145,0,0,,6,,,78,127
96304,note_off,0,0,0,,5,,,65,127
96307,note_on,3,0,0,,5,,,65,127
96307,note_on,0,0,0,,4,,,76,127
96452,note_off,145,0,0,,4,,,76,127
96455,note_on,3,0,0,,2,,,74,127
96600,note_off,145,0,0,,2,,,74,127
96600,note_off,0,0,0,,5,,,65,127
96603,note_on,3,0,0,,5,,,65,127
96603,note_on,0,0,0,,1,,,73,127
96748,note_off,145,0,0,,1,,,73,127
96751,note_on,3,0,0,,12,,,71,127
96896,note_off,145,0,0,,12,,,71,127
96896,note_off,0,0,0,,5,,,65,127
96899,note_on,3,0,0,,6,,,66,127
96899,note_on,0,0,0,,1,,,73,127
96961,note_off,62,0,0,,1,,,73,127
96961,note_on,0,0,0,,12,,,71,127
97023,note_off,62,0,0,,12,,,71,127
97023,note_on,0,0,0,,1,,,73,127
97085,note_off,62,0,0,,1,,,73,127
97085,note_on,0,0,0,,12,,,71,127
97531,note_on,446,0,0,,11,,,70,127
97537,note_off,6,0,0,,12,,,71,127
97878,note_off,341,0,0,,11,,,70,127
97879,note_off,1,0,0,,6,,,66,127
97890,note_on,11,0,0,,6,,,66,127
97890,note_on,0,0,0,,6,,,78,127
98182,note_off,292,0,0,,6,,,66,127
98185,note_on,3,0,0,,6,,,66,127
98185,note_on,0,0,0,,10,,,69,127
98477,note_off,292,0,0,,10,,,69,127
98477,note_off,0,0,0,,6,,,66,127
98480,note_on,3,0,0,,6,,,66,127
98480,note_on,0,0,0,,10,,,69,127
98772,note_off,292,0,0,,10,,,69,127
98772,note_off,0,0,0,,6,,,66,127
98772,note_off,0,0,0,,6,,,78,127
98775,note_on,3,0,0,,10,,,69,127
98775,note_on,0,0,0,,4,,,64,127
98775,note_on,0,0,0,,0,,,72,127
98775,note_on,0,0,0,,10,,,81,127
99067,note_off,292,0,0,,4,,,64,127
99067,note_off,0,0,0,,10,,,69,127
99070,note_on,3,0,0,,4,,,64,127
99070,note_on,0,0,0,,10,,,69,127
99362,note_off,292,0,0,,10,,,69,127
99362,note_off,0,0,0,,4,,,64,127
99365,note_on,3,0,0,,10,,,69,127
99365,note_on,0,0,0,,4,,,64,127
99657,note_off,292,0,0,,4,,,64,127
99657,note_off,0,0,0,,10,,,69,127
99657,note_off,0,0,0,,10,,,81,127
99657,note_off,0,0,0,,0,,,72,127
99660,note_on,3,0,0,,10,,,69,127
99660,note_on,0,0,0,,3,,,63,127
99660,note_on,0,0,0,,10,,,81,127
99660,note_on,0,0,0,,12,,,71,127
99952,note_off,292,0,0,,3,,,63,127
99952,note_off,0,0,0,,10,,,69,127
99955,note_on,3,0,0,,3,,,63,127
99955,note_on,0,0,0,,10,,,69,127
100247,note_off,292,0,0,,10,,,69,127
100247,note_off,0,0,0,,3,,,63,127
100250,note_on,3,0,0,,10,,,69,127
100250,note_on,0,0,0,,3,,,63,127
100542,note_off,292,0,0,,3,,,63,127
100542,note_off,0,0,0,,10,,,69,127
100542,note_off,0,0,0,,12,,,71,127
100542,note_off,0,0,0,,10,,,81,127
100545,note_on,3,0,0,,4,,,64,127
100545,note_on,0,0,0,,7,,,67,127
100545,note_on,0,0,0,,7,,,79,127
100690,note_off,145,0,0,,7,,,79,127
100693,note_on,3,0,0,,6,,,78,127
100838,note_off,145,0,0,,6,,,78,127
100838,note_off,0,0,0,,7,,,67,127
100838,note_off,0,0,0,,4,,,64,127
100841,note_on,3,0,0,,6,,,66,127
100841,note_on,0,0,0,,10,,,69,127
100841,note_on,0,0,0,,4,,,76,127
100986,note_off,145,0,0,,4,,,76,127
100989,note_on,3,0,0,,3,,,75,127
101134,note_off,145,0,0,,3,,,75,127
101134,note_off,0,0,0,,10,,,69,127
101134,note_off,0,0,0,,6,,,66,127
101137,note_on,3,0,0,,12,,,71,127
101137,note_on,0,0,0,,7,,,67,127
101137,note_on,0,0,0,,4,,,76,127
101429,note_off,292,0,0,,4,,,76,127
101429,note_off,0,0,0,,7,,,67,127
101429,note_off,0,0,0,,12,,,71,127
101432,note_on,3,0,0,,0,,,72,127
101432,note_on,0,0,0,,10,,,69,127
101580,note_on,148,0,0,,3,,,87,127
101725,note_off,145,0,0,,3,,,87,127
101725,note_off,0,0,0,,10,,,69,127
101725,note_off,0,0,0,,0,,,72,127
101728,note_on,3,0,0,,0,,,72,127
101728,note_on,0,0,0,,10,,,69,127
101728,note_on,0,0,0,,4,,,88,127
101873,note_off,145,0,0,,4,,,88,127
101876,note_on,3,0,0,,3,,,87,127
102021,note_off,145,0,0,,3,,,87,127
102021,note_off,0,0,0,,10,,,69,127
102021,note_off,0,0,0,,0,,,72,127
102024,note_on,3,0,0,,0,,,72,127
102024,note_on,0,0,0,,10,,,69,127
102024,note_on,0,0,0,,4,,,88,127
102169,note_off,145,0,0,,4,,,88,127
102172,note_on,3,0,0,,0,,,84,127
102317,note_off,145,0,0,,0,,,84,127
102317,note_off,0,0,0,,10,,,69,127
102317,note_off,0,0,0,,0,,,72,127
102320,note_on,3,0,0,,4,,,76,127
102320,note_on,0,0,0,,7,,,67,127
102320,note_on,0,0,0,,12,,,83,127
102465,note_off,145,0,0,,12,,,83,127
102468,note_on,3,0,0,,3,,,87,127
102613,note_off,145,0,0,,3,,,87,127
102613,note_off,0,0,0,,7,,,67,127
102613,note_off,0,0,0,,4,,,76,127
102616,note_on,3,0,0,,7,,,67,127
102616,note_on,0,0,0,,4,,,76,127
102616,note_on,0,0,0,,4,,,88,127
102761,note_off,145,0,0,,4,,,88,127
102764,note_on,3,0,0,,3,,,87,127
102909,note_off,145,0,0,,3,,,87,127
102909,note_off,0,0,0,,4,,,76,127
102909,note_off,0,0,0,,7,,,67,127
102912,note_on,3,0,0,,4,,,76,127
102912,note_on,0,0,0,,7,,,67,127
102912,note_on,0,0,0,,4,,,88,127
103057,note_off,145,0,0,,4,,,88,127
103060,note_on,3,0,0,,12,,,83,127
103205,note_off,145,0,0,,12,,,83,127
103205,note_off,0,0,0,,7,,,67,127
103205,note_off,0,0,0,,4,,,76,127
103208,note_on,3,0,0,,10,,,69,127
103208,note_on,0,0,0,,6,,,66,127
103208,note_on,0,0,0,,10,,,81,127
103353,note_off,145,0,0,,10,,,81,127
103356,note_on,3,0,0,,3,,,87,127
103501,note_off,145,0,0,,3,,,87,127
103501,note_off,0,0,0,,6,,,66,127
103501,note_off,0,0,0,,10,,,69,127
103504,note_on,3,0,0,,6,,,66,127
103504,note_on,0,0,0,,10,,,69,127
103504,note_on,0,0,0,,4,,,88,127
103649,note_off,145,0,0,,4,,,88,127
103652,note_on,3,0,0,,3,,,87,127
103797,note_off,145,0,0,,3,,,87,127
103797,note_off,0,0,0,,10,,,69,127
103797,note_off,0,0,0,,6,,,66,127
103800,note_on,3,0,0,,10,,,69,127
103800,note_on,0,0,0,,6,,,66,127
103800,note_on,0,0,0,,4,,,88,127
103945,note_off,145,0,0,,4,,,88,127
103948,note_on,3,0,0,,10,,,81,127
104093,note_off,145,0,0,,10,,,81,127
104093,note_off,0,0,0,,6,,,66,127
104093,note_off,0,0,0,,10,,,69,127
104096,note_on,3,0,0,,4,,,64,127
104096,note_on,0,0,0,,7,,,67,127
104096,note_on,0,0,0,,7,,,79,127
104241,note_off,145,0,0,,7,,,79,127
104244,note_on,3,0,0,,3,,,87,127
104389,note_off,145,0,0,,3,,,87,127
104389,note_off,0,0,0,,7,,,67,127
104389,note_off,0,0,0,,4,,,64,127
104392,note_on,3,0,0,,4,,,64,127
104392,note_on,0,0,0,,7,,,67,127
104392,note_on,0,0,0,,4,,,88,127
104537,note_off,145,0,0,,4,,,88,127
104540,note_on,3,0,0,,3,,,87,127
104685,note_off,145,0,0,,3,,,87,127
104685,note_off,0,0,0,,7,,,67,127
104685,note_off,0,0,0,,4,,,64,127
104688,note_on,3,0,0,,7,,,67,127
104688,note_on,0,0,0,,4,,,64,127
104688,note_on,0,0,0,,4,,,88,127
104833,note_off,145,0,0,,4,,,88,127
104836,note_on,3,0,0,,12,,,83,127
104981,note_off,145,0,0,,12,,,83,127
104981,note_off,0,0,0,,4,,,64,127
104981,note_off,0,0,0,,7,,,67,127
104984,note_on,3,0,0,,10,,,57,127
104984,note_on,0,0,0,,10,,,69,127
104984,note_on,0,0,0,,0,,,84,127
105129,note_off,145,0,0,,0,,,84,127
105132,note_on,3,0,0,,10,,,81,127
105277,note_off,145,0,0,,10,,,81,127
105277,note_off,0,0,0,,10,,,69,127
105277,note_off,0,0,0,,10,,,57,127
105280,note_on,3,0,0,,10,,,57,127
105280,note_on,0,0,0,,10,,,69,127
105280,note_on,0,0,0,,10,,,81,127
105425,note_off,145,0,0,,10,,,81,127
105428,note_on,3,0,0,,7,,,79,127
105573,note_off,145,0,0,,7,,,79,127
105573,note_off,0,0,0,,10,,,69,127
105573,note_off,0,0,0,,10,,,57,127
105576,note_on,3,0,0,,10,,,57,127
105576,note_on,0,0,0,,10,,,69,127
105576,note_on,0,0,0,,6,,,78,127
105721,note_off,145,0,0,,6,,,78,127
105724,note_on,3,0,0,,4,,,76,127
105869,note_off,145,0,0,,4,,,76,127
105869,note_off,0,0,0,,10,,,69,127
105869,note_off,0,0,0,,10,,,57,127
105872,note_on,3,0,0,,12,,,59,127
105872,note_on,0,0,0,,7,,,67,127
105872,note_on,0,0,0,,6,,,78,127
105926,note_off,54,0,0,,6,,,78,127
105926,note_on,0,0,0,,4,,,76,127
105980,note_off,54,0,0,,4,,,76,127
105980,note_on,0,0,0,,6,,,78,127
106034,note_off,54,0,0,,6,,,78,127
106034,note_on,0,0,0,,4,,,76,127
106165,note_off,131,0,0,,7,,,67,127
106165,note_off,0,0,0,,12,,,59,127
106168,note_on,3,0,0,,6,,,66,127
106440,note_off,272,0,0,,4,,,76,127
106463,note_on,23,0,0,,3,,,75,127
106685,note_off,222,0,0,,3,,,75,127
106756,note_off,71,0,0,,6,,,66,127
106775,note_on,19,0,0,,6,,,66,127
106775,note_on,0,0,0,,3,,,63,127
106920,note_off,145,0,0,,3,,,63,127
106923,note_on,3,0,0,,12,,,59,127
107068,note_off,145,0,0,,6,,,66,127
107071,note_on,3,0,0,,6,,,66,127
107071,note_on,0,0,0,,3,,,63,127
107093,note_off,22,0,0,,12,,,59,127
107216,note_off,123,0,0,,3,,,63,127
107219,note_on,3,0,0,,12,,,59,127
107364,note_off,145,0,0,,6,,,66,127
107367,note_on,3,0,0,,6,,,66,127
107367,note_on,0,0,0,,3,,,63,127
107389,note_off,22,0,0,,12,,,59,127
107512,note_off,123,0,0,,3,,,63,127
107515,note_on,3,0,0,,12,,,59,127
107660,note_off,145,0,0,,6,,,66,127
107663,note_on,3,0,0,,6,,,66,127
107663,note_on,0,0,0,,3,,,63,127
107685,note_off,22,0,0,,12,,,59,127
107808,note_off,123,0,0,,3,,,63,127
107811,note_on,3,0,0,,0,,,60,127
107956,note_off,145,0,0,,6,,,66,127
107959,note_on,3,0,0,,7,,,67,127
107959,note_on,0,0,0,,4,,,64,127
107981,note_off,22,0,0,,0,,,60,127
108104,note_off,123,0,0,,4,,,64,127
108107,note_on,3,0,0,,0,,,60,127
108252,note_off,145,0,0,,7,,,67,127
108255,note_on,3,0,0,,10,,,69,127
108255,note_on,0,0,0,,6,,,66,127
108277,note_off,22,0,0,,0,,,60,127
108400,note_off,123,0,0,,6,,,66,127
108403,note_on,3,0,0,,12,,,59,127
108548,note_off,145,0,0,,10,,,69,127
108551,note_on,3,0,0,,7,,,67,127
108551,note_on,0,0,0,,4,,,64,127
108573,note_off,22,0,0,,12,,,59,127
108696,note_off,123,0,0,,4,,,64,127
108699,note_on,3,0,0,,12,,,59,127
108844,note_off,145,0,0,,7,,,67,127
108847,note_on,3,0,0,,6,,,66,127
108847,note_on,0,0,0,,3,,,63,127
108869,note_off,22,0,0,,12,,,59,127
108992,note_off,123,0,0,,3,,,63,127
108995,note_on,3,0,0,,10,,,57,127
109140,note_off,145,0,0,,6,,,66,127
109143,note_on,3,0,0,,4,,,64,127
109165,note_off,22,0,0,,10,,,57,127
109291,note_on,126,0,0,,10,,,57,127
109436,note_off,145,0,0,,10,,,57,127
109436,note_off,0,0,0,,4,,,64,127
109439,note_on,3,0,0,,4,,,64,127
109439,note_on,0,0,0,,12,,,59,127
110027,note_off,588,0,0,,4,,,64,127
110030,note_on,3,0,0,,6,,,66,127
110322,note_off,292,0,0,,6,,,66,127
110322,note_off,0,0,0,,12,,,59,127
110325,note_on,3,0,0,,6,,,66,127
110325,note_on,0,0,0,,3,,,63,127
110473,note_on,148,0,0,,12,,,59,127
110547,note_off,74,0,0,,6,,,66,127
110618,note_off,71,0,0,,12,,,59,127
110618,note_off,0,0,0,,3,,,63,127
110621,note_on,3,0,0,,6,,,66,127
110621,note_on,0,0,0,,3,,,63,127
110769,note_on,148,0,0,,12,,,59,127
110843,note_off,74,0,0,,6,,,66,127
110914,note_off,71,0,0,,12,,,59,127
110914,note_off,0,0,0,,3,,,63,127
110917,note_on,3,0,0,,6,,,66,127
110917,note_on,0,0,0,,3,,,63,127
111065,note_on,148,0,0,,12,,,59,127
111139,note_off,74,0,0,,6,,,66,127
111210,note_off,71,0,0,,12,,,59,127
111210,note_off,0,0,0,,3,,,63,127
111213,note_on,3,0,0,,6,,,66,127
111213,note_on,0,0,0,,3,,,63,127
111361,note_on,148,0,0,,0,,,60,127
111435,note_off,74,0,0,,6,,,66,127
111506,note_off,71,0,0,,0,,,60,127
111506,note_off,0,0,0,,3,,,63,127
111509,note_on,3,0,0,,7,,,67,127
111509,note_on,0,0,0,,4,,,64,127
111657,note_on,148,0,0,,0,,,60,127
111731,note_off,74,0,0,,7,,,67,127
111802,note_off,71,0,0,,0,,,60,127
111802,note_off,0,0,0,,4,,,64,127
111805,note_on,3,0,0,,10,,,69,127
111805,note_on,0,0,0,,6,,,66,127
111953,note_on,148,0,0,,12,,,59,127
112027,note_off,74,0,0,,10,,,69,127
112098,note_off,71,0,0,,12,,,59,127
112098,note_off,0,0,0,,6,,,66,127
112101,note_on,3,0,0,,7,,,67,127
112101,note_on,0,0,0,,4,,,64,127
112249,note_on,148,0,0,,12,,,59,127
112323,note_off,74,0,0,,7,,,67,127
112394,note_off,71,0,0,,12,,,59,127
112394,note_off,0,0,0,,4,,,64,127
112397,note_on,3,0,0,,6,,,66,127
112397,note_on,0,0,0,,3,,,63,127
112545,note_on,148,0,0,,10,,,57,127
112619,note_off,74,0,0,,6,,,66,127
112690,note_off,71,0,0,,10,,,57,127
112690,note_off,0,0,0,,3,,,63,127
112693,note_on,3,0,0,,4,,,64,127
112841,note_on,148,0,0,,10,,,57,127
112915,note_off,74,0,0,,4,,,64,127
112986,note_off,71,0,0,,10,,,57,127
112989,note_on,3,0,0,,4,,,64,127
112989,note_on,0,0,0,,12,,,59,127
112989,note_on,0,0,0,,12,,,47,127
113577,note_off,588,0,0,,4,,,64,127
113580,note_on,3,0,0,,6,,,66,127
113872,note_off,292,0,0,,6,,,66,127
113872,note_off,0,0,0,,12,,,47,127
113872,note_off,0,0,0,,12,,,59,127
113875,note_on,3,0,0,,6,,,78,127
113875,note_on,0,0,0,,12,,,71,127
113875,note_on,0,0,0,,3,,,75,127
114167,note_off,292,0,0,,3,,,75,127
114167,note_off,0,0,0,,12,,,71,127
114167,note_off,0,0,0,,6,,,78,127
114170,note_on,3,0,0,,6,,,78,127
114170,note_on,0,0,0,,12,,,71,127
114170,note_on,0,0,0,,3,,,75,127
114462,note_off,292,0,0,,3,,,75,127
114462,note_off,0,0,0,,12,,,71,127
114462,note_off,0,0,0,,6,,,78,127
114465,note_on,3,0,0,,6,,,78,127
114465,note_on,0,0,0,,3,,,75,127
114465,note_on,0,0,0,,12,,,71,127
114757,note_off,292,0,0,,12,,,71,127
114757,note_off,0,0,0,,3,,,75,127
114757,note_off,0,0,0,,6,,,78,127
114760,note_on,3,0,0,,6,,,78,127
114760,note_on,0,0,0,,3,,,75,127
114760,note_on,0,0,0,,10,,,69,127
114760,note_on,0,0,0,,12,,,71,127
115052,note_off,292,0,0,,12,,,71,127
115052,note_off,0,0,0,,10,,,69,127
115052,note_off,0,0,0,,3,,,75,127
115052,note_off,0,0,0,,6,,,78,127
115055,note_on,3,0,0,,6,,,78,127
115055,note_on,0,0,0,,3,,,75,127
115055,note_on,0,0,0,,12,,,71,127
115055,note_on,0,0,0,,10,,,69,127
115347,note_off,292,0,0,,10,,,69,127
115347,note_off,0,0,0,,12,,,71,127
115347,note_off,0,0,0,,3,,,75,127
115347,note_off,0,0,0,,6,,,78,127
115350,note_on,3,0,0,,3,,,75,127
115350,note_on,0,0,0,,6,,,78,127
115350,note_on,0,0,0,,12,,,71,127
115350,note_on,0,0,0,,10,,,69,127
115642,note_off,292,0,0,,10,,,69,127
115642,note_off,0,0,0,,12,,,71,127
115642,note_off,0,0,0,,6,,,78,127
115642,note_off,0,0,0,,3,,,75,127
115645,note_on,3,0,0,,6,,,78,127
115645,note_on,0,0,0,,10,,,69,127
115645,note_on,0,0,0,,12,,,71,127
115645,note_on,0,0,0,,3,,,75,127
115725,note_off,80,0,0,,6,,,78,127
115727,note_on,2,0,0,,7,,,79,127
115807,note_off,80,0,0,,7,,,79,127
115809,note_on,2,0,0,,10,,,81,127
115937,note_off,128,0,0,,10,,,81,127
115939,note_off,2,0,0,,3,,,75,127
115939,note_off,0,0,0,,12,,,71,127
115939,note_off,0,0,0,,10,,,69,127
115942,note_on,3,0,0,,7,,,79,127
115942,note_on,0,0,0,,3,,,75,127
115942,note_on,0,0,0,,10,,,69,127
115942,note_on,0,0,0,,12,,,71,127
116087,note_off,145,0,0,,7,,,79,127
116090,note_on,3,0,0,,6,,,78,127
116235,note_off,145,0,0,,6,,,78,127
116235,note_off,0,0,0,,12,,,71,127
116235,note_off,0,0,0,,10,,,69,127
116235,note_off,0,0,0,,3,,,75,127
116238,note_on,3,0,0,,4,,,76,127
116238,note_on,0,0,0,,12,,,71,127
116238,note_on,0,0,0,,10,,,69,127
116383,note_off,145,0,0,,4,,,76,127
116386,note_on,3,0,0,,3,,,75,127
116531,note_off,145,0,0,,3,,,75,127
116531,note_off,0,0,0,,10,,,69,127
116531,note_off,0,0,0,,12,,,71,127
116534,note_on,3,0,0,,3,,,75,127
116534,note_on,0,0,0,,7,,,67,127
116534,note_on,0,0,0,,12,,,71,127
117119,note_off,585,0,0,,3,,,75,127
117125,note_on,6,0,0,,4,,,76,127
117417,note_off,292,0,0,,4,,,76,127
117417,note_off,0,0,0,,12,,,71,127
117417,note_off,0,0,0,,7,,,67,127
117436,note_on,19,0,0,,12,,,71,127
117436,note_on,0,0,0,,7,,,67,127
117436,note_on,0,0,0,,4,,,76,127
117728,note_off,292,0,0,,4,,,76,127
117728,note_off,0,0,0,,7,,,67,127
117728,note_off,0,0,0,,12,,,71,127
117731,note_on,3,0,0,,12,,,71,127
117731,note_on,0,0,0,,7,,,67,127
117731,note_on,0,0,0,,4,,,76,127
118023,note_off,292,0,0,,4,,,76,127
118023,note_off,0,0,0,,7,,,67,127
118023,note_off,0,0,0,,12,,,71,127
118026,note_on,3,0,0,,12,,,71,127
118026,note_on,0,0,0,,7,,,67,127
118026,note_on,0,0,0,,4,,,76,127
118318,note_off,292,0,0,,4,,,76,127
118318,note_off,0,0,0,,7,,,67,127
118318,note_off,0,0,0,,12,,,71,127
118321,note_on,3,0,0,,7,,,67,127
118321,note_on,0,0,0,,10,,,69,127
118321,note_on,0,0,0,,4,,,76,127
118321,note_on,0,0,0,,1,,,73,127
118613,note_off,292,0,0,,1,,,73,127
118613,note_off,0,0,0,,4,,,76,127
118613,note_off,0,0,0,,10,,,69,127
118613,note_off,0,0,0,,7,,,67,127
118616,note_on,3,0,0,,7,,,67,127
118616,note_on,0,0,0,,10,,,69,127
118616,note_on,0,0,0,,4,,,76,127
118616,note_on,0,0,0,,1,,,73,127
118908,note_off,292,0,0,,1,,,73,127
118908,note_off,0,0,0,,4,,,76,127
118908,note_off,0,0,0,,10,,,69,127
118908,note_off,0,0,0,,7,,,67,127
118911,note_on,3,0,0,,7,,,67,127
118911,note_on,0,0,0,,10,,,69,127
118911,note_on,0,0,0,,4,,,76,127
118911,note_on,0,0,0,,1,,,73,127
119203,note_off,292,0,0,,1,,,73,127
119203,note_off,0,0,0,,4,,,76,127
119203,note_off,0,0,0,,10,,,69,127
119203,note_off,0,0,0,,7,,,67,127
119206,note_on,3,0,0,,10,,,69,127
119206,note_on,0,0,0,,7,,,67,127
119206,note_on,0,0,0,,1,,,73,127
119206,note_on,0,0,0,,4,,,76,127
119277,note_off,71,0,0,,4,,,76,127
119280,note_on,3,0,0,,6,,,78,127
119351,note_off,71,0,0,,6,,,78,127
119354,note_on,3,0,0,,7,,,79,127
119499,note_off,145,0,0,,7,,,79,127
119499,note_off,0,0,0,,1,,,73,127
119499,note_off,0,0,0,,7,,,67,127
119499,note_off,0,0,0,,10,,,69,127
119502,note_on,3,0,0,,10,,,69,127
119502,note_on,0,0,0,,7,,,67,127
119502,note_on,0,0,0,,1,,,73,127
119502,note_on,0,0,0,,6,,,78,127
119647,note_off,145,0,0,,6,,,78,127
119650,note_on,3,0,0,,4,,,76,127
119795,note_off,145,0,0,,4,,,76,127
119795,note_off,0,0,0,,1,,,73,127
119795,note_off,0,0,0,,7,,,67,127
119795,note_off,0,0,0,,10,,,69,127
119798,note_on,3,0,0,,7,,,67,127
119798,note_on,0,0,0,,10,,,69,127
119798,note_on,0,0,0,,2,,,74,127
119943,note_off,145,0,0,,2,,,74,127
119946,note_on,3,0,0,,1,,,73,127
120091,note_off,145,0,0,,1,,,73,127
120091,note_off,0,0,0,,10,,,69,127
120091,note_off,0,0,0,,7,,,67,127
120094,note_on,3,0,0,,10,,,69,127
120094,note_on,0,0,0,,6,,,66,127
120094,note_on,0,0,0,,1,,,73,127
120525,note_off,431,0,0,,1,,,73,127
120551,note_on,26,0,0,,2,,,74,127
120890,note_off,339,0,0,,2,,,74,127
120977,note_off,87,0,0,,6,,,66,127
120977,note_off,0,0,0,,10,,,69,127
120996,note_on,19,0,0,,2,,,74,127
120996,note_on,0,0,0,,10,,,69,127
120996,note_on,0,0,0,,5,,,65,127
121288,note_off,292,0,0,,5,,,65,127
121288,note_off,0,0,0,,10,,,69,127
121288,note_off,0,0,0,,2,,,74,127
121291,note_on,3,0,0,,2,,,74,127
121291,note_on,0,0,0,,10,,,69,127
121291,note_on,0,0,0,,5,,,65,127
121583,note_off,292,0,0,,5,,,65,127
121583,note_off,0,0,0,,10,,,69,127
121583,note_off,0,0,0,,2,,,74,127
121586,note_on,3,0,0,,2,,,74,127
121586,note_on,0,0,0,,10,,,69,127
121586,note_on,0,0,0,,5,,,65,127
121878,note_off,292,0,0,,5,,,65,127
121878,note_off,0,0,0,,10,,,69,127
121878,note_off,0,0,0,,2,,,74,127
121881,note_on,3,0,0,,12,,,71,127
121881,note_on,0,0,0,,2,,,74,127
121881,note_on,0,0,0,,7,,,67,127
121881,note_on,0,0,0,,5,,,65,127
122173,note_off,292,0,0,,5,,,65,127
122173,note_off,0,0,0,,7,,,67,127
122173,note_off,0,0,0,,2,,,74,127
122173,note_off,0,0,0,,12,,,71,127
122176,note_on,3,0,0,,12,,,71,127
122176,note_on,0,0,0,,2,,,74,127
122176,note_on,0,0,0,,7,,,67,127
122176,note_on,0,0,0,,5,,,65,127
122468,note_off,292,0,0,,5,,,65,127
122468,note_off,0,0,0,,7,,,67,127
122468,note_off,0,0,0,,2,,,74,127
122468,note_off,0,0,0,,12,,,71,127
122471,note_on,3,0,0,,2,,,74,127
122471,note_on,0,0,0,,12,,,71,127
122471,note_on,0,0,0,,5,,,65,127
122471,note_on,0,0,0,,7,,,67,127
122763,note_off,292,0,0,,7,,,67,127
122763,note_off,0,0,0,,5,,,65,127
122763,note_off,0,0,0,,12,,,71,127
122763,note_off,0,0,0,,2,,,74,127
122766,note_on,3,0,0,,2,,,74,127
122766,note_on,0,0,0,,12,,,71,127
122766,note_on,0,0,0,,7,,,67,127
122766,note_on,0,0,0,,5,,,65,127
122837,note_off,71,0,0,,2,,,74,127
122840,note_on,3,0,0,,4,,,76,127
122911,note_off,71,0,0,,4,,,76,127
122914,note_on,3,0,0,,5,,,77,127
123059,note_off,145,0,0,,5,,,77,127
123059,note_off,0,0,0,,5,,,65,127
123059,note_off,0,0,0,,7,,,67,127
123059,note_off,0,0,0,,12,,,71,127
123062,note_on,3,0,0,,4,,,76,127
123062,note_on,0,0,0,,12,,,71,127
123062,note_on,0,0,0,,5,,,65,127
123062,note_on,0,0,0,,7,,,67,127
123207,note_off,145,0,0,,4,,,76,127
123210,note_on,3,0,0,,2,,,74,127
123355,note_off,145,0,0,,2,,,74,127
123355,note_off,0,0,0,,7,,,67,127
123355,note_off,0,0,0,,5,,,65,127
123355,note_off,0,0,0,,12,,,71,127
123358,note_on,3,0,0,,0,,,72,127
123358,note_on,0,0,0,,5,,,65,127
123358,note_on,0,0,0,,7,,,67,127
123503,note_off,145,0,0,,0,,,72,127
123506,note_on,3,0,0,,12,,,71,127
123651,note_off,145,0,0,,12,,,71,127
123651,note_off,0,0,0,,7,,,67,127
123651,note_off,0,0,0,,5,,,65,127
123654,note_on,3,0,0,,12,,,71,127
123654,note_on,0,0,0,,7,,,67,127
123654,note_on,0,0,0,,4,,,64,127
123946,note_off,292,0,0,,12,,,71,127
123949,note_on,3,0,0,,0,,,72,127
124392,note_off,443,0,0,,7,,,67,127
124537,note_off,145,0,0,,0,,,72,127
124540,note_on,3,0,0,,7,,,67,127
124685,note_off,145,0,0,,4,,,64,127
124688,note_on,3,0,0,,4,,,64,127
124833,note_off,145,0,0,,4,,,64,127
124833,note_off,0,0,0,,7,,,67,127
124836,note_on,3,0,0,,10,,,69,127
124836,note_on,0,0,0,,5,,,65,127
124981,note_off,145,0,0,,5,,,65,127
124984,note_on,3,0,0,,2,,,62,127
125129,note_off,145,0,0,,2,,,62,127
125129,note_off,0,0,0,,10,,,69,127
125132,note_on,3,0,0,,12,,,71,127
125132,note_on,0,0,0,,7,,,67,127
125277,note_off,145,0,0,,7,,,67,127
125280,note_on,3,0,0,,5,,,65,127
125425,note_off,145,0,0,,5,,,65,127
125425,note_off,0,0,0,,12,,,71,127
125428,note_on,3,0,0,,0,,,72,127
125428,note_on,0,0,0,,4,,,64,127
125573,note_off,145,0,0,,4,,,64,127
125576,note_on,3,0,0,,10,,,69,127
125721,note_off,145,0,0,,10,,,69,127
125721,note_off,0,0,0,,0,,,72,127
125724,note_on,3,0,0,,2,,,74,127
125724,note_on,0,0,0,,12,,,71,127
125869,note_off,145,0,0,,12,,,71,127
125872,note_on,3,0,0,,7,,,67,127
126017,note_off,145,0,0,,7,,,67,127
126017,note_off,0,0,0,,2,,,74,127
126020,note_on,3,0,0,,4,,,76,127
126020,note_on,0,0,0,,0,,,72,127
126165,note_off,145,0,0,,0,,,72,127
126168,note_on,3,0,0,,12,,,71,127
126313,note_off,145,0,0,,12,,,71,127
126313,note_off,0,0,0,,4,,,76,127
126316,note_on,3,0,0,,5,,,77,127
126316,note_on,0,0,0,,10,,,69,127
126461,note_off,145,0,0,,10,,,69,127
126464,note_on,3,0,0,,2,,,74,127
126609,note_off,145,0,0,,2,,,74,127
126609,note_off,0,0,0,,5,,,77,127
126612,note_on,3,0,0,,7,,,79,127
126612,note_on,0,0,0,,4,,,76,127
126757,note_off,145,0,0,,4,,,76,127
126760,note_on,3,0,0,,0,,,72,127
126905,note_off,145,0,0,,0,,,72,127
126905,note_off,0,0,0,,7,,,79,127
126908,note_on,3,0,0,,10,,,81,127
126908,note_on,0,0,0,,5,,,77,127
127053,note_off,145,0,0,,5,,,77,127
127056,note_on,3,0,0,,4,,,76,127
127201,note_off,145,0,0,,4,,,76,127
127201,note_off,0,0,0,,10,,,81,127
127204,note_on,3,0,0,,12,,,83,127
127204,note_on,0,0,0,,2,,,74,127
127349,note_off,145,0,0,,2,,,74,127
127352,note_on,3,0,0,,7,,,79,127
127497,note_off,145,0,0,,7,,,79,127
127497,note_off,0,0,0,,12,,,83,127
127500,note_on,3,0,0,,2,,,86,127
127500,note_on,0,0,0,,4,,,76,127
127571,note_off,71,0,0,,2,,,86,127
127574,note_on,3,0,0,,0,,,84,127
127645,note_off,71,0,0,,0,,,84,127
127648,note_on,3,0,0,,2,,,86,127
127719,note_off,71,0,0,,2,,,86,127
127722,note_on,3,0,0,,0,,,84,127
127793,note_off,71,0,0,,0,,,84,127
127793,note_off,0,0,0,,4,,,76,127
127796,note_on,3,0,0,,12,,,83,127
127796,note_on,0,0,0,,0,,,72,127
127941,note_off,145,0,0,,12,,,83,127
127944,note_on,3,0,0,,0,,,84,127
128089,note_off,145,0,0,,0,,,84,127
128089,note_off,0,0,0,,0,,,72,127
128092,note_on,3,0,0,,2,,,86,127
128092,note_on,0,0,0,,7,,,79,127
128237,note_off,145,0,0,,2,,,86,127
128240,note_on,3,0,0,,12,,,83,127
128385,note_off,145,0,0,,12,,,83,127
128385,note_off,0,0,0,,7,,,79,127
128388,note_on,3,0,0,,2,,,86,127
128388,note_on,0,0,0,,4,,,76,127
128434,note_off,46,0,0,,2,,,86,127
128437,note_on,3,0,0,,0,,,84,127
128483,note_off,46,0,0,,0,,,84,127
128486,note_on,3,0,0,,2,,,86,127
128532,note_off,46,0,0,,2,,,86,127
128535,note_on,3,0,0,,0,,,84,127
128581,note_off,46,0,0,,0,,,84,127
128584,note_on,3,0,0,,2,,,86,127
128630,note_off,46,0,0,,2,,,86,127
128633,note_on,3,0,0,,0,,,84,127
128679,note_off,46,0,0,,0,,,84,127
128679,note_off,0,0,0,,4,,,76,127
128682,note_on,3,0,0,,2,,,86,127
128682,note_on,0,0,0,,0,,,72,127
128753,note_off,71,0,0,,2,,,86,127
128756,note_on,3,0,0,,0,,,84,127
128827,note_off,71,0,0,,0,,,84,127
128830,note_on,3,0,0,,12,,,83,127
128901,note_off,71,0,0,,12,,,83,127
128904,note_on,3,0,0,,0,,,84,127
128975,note_off,71,0,0,,0,,,84,127
128975,note_off,0,0,0,,0,,,72,127
128978,note_on,3,0,0,,2,,,86,127
128978,note_on,0,0,0,,7,,,67,127
129123,note_off,145,0,0,,2,,,86,127
129126,note_on,3,0,0,,12,,,83,127
129271,note_off,145,0,0,,12,,,83,127
129271,note_off,0,0,0,,7,,,67,127
129274,note_on,3,0,0,,2,,,86,127
129274,note_on,0,0,0,,4,,,64,127
129317,note_on,43,0,0,,0,,,84,127
129323,note_off,6,0,0,,2,,,86,127
129360,note_on,37,0,0,,2,,,86,127
129366,note_off,6,0,0,,0,,,84,127
129403,note_on,37,0,0,,0,,,84,127
129409,note_off,6,0,0,,2,,,86,127
129566,note_off,157,0,0,,4,,,64,127
129569,note_on,3,0,0,,0,,,60,127
129717,note_on,148,0,0,,12,,,83,127
129720,note_off,3,0,0,,0,,,84,127
129788,note_off,68,0,0,,12,,,83,127
129791,note_on,3,0,0,,0,,,84,127
129862,note_off,71,0,0,,0,,,84,127
129862,note_off,0,0,0,,0,,,60,127
129865,note_on,3,0,0,,2,,,86,127
129865,note_on,0,0,0,,7,,,55,127
130010,note_off,145,0,0,,2,,,86,127
130013,note_on,3,0,0,,12,,,83,127
130158,note_off,145,0,0,,12,,,83,127
130158,note_off,0,0,0,,7,,,55,127
130161,note_on,3,0,0,,2,,,86,127
130161,note_on,0,0,0,,4,,,52,127
130258,note_on,97,0,0,,0,,,84,127
130266,note_off,8,0,0,,2,,,86,127
130321,note_off,55,0,0,,0,,,84,127
130324,note_on,3,0,0,,2,,,86,127
130387,note_off,63,0,0,,2,,,86,127
130390,note_on,3,0,0,,0,,,84,127
130453,note_off,63,0,0,,0,,,84,127
130453,note_off,0,0,0,,4,,,52,127
130456,note_on,3,0,0,,2,,,86,127
130456,note_on,0,0,0,,0,,,48,127
130527,note_off,71,0,0,,2,,,86,127
130530,note_on,3,0,0,,0,,,84,127
130601,note_off,71,0,0,,0,,,84,127
130604,note_on,3,0,0,,12,,,83,127
130675,note_off,71,0,0,,12,,,83,127
130678,note_on,3,0,0,,0,,,84,127
130749,note_off,71,0,0,,0,,,84,127
130749,note_off,0,0,0,,0,,,48,127
130752,note_on,3,0,0,,0,,,84,127
130752,note_on,0,0,0,,7,,,43,127
131044,note_off,292,0,0,,0,,,84,127
131047,note_on,3,0,0,,2,,,86,127
131632,note_off,585,0,0,,2,,,86,127
131635,note_off,3,0,0,,7,,,43,127
131670,note_on,35,0,0,,10,,,69,127
131732,note_on,62,0,0,,7,,,67,127
131744,note_off,12,0,0,,10,,,69,127
131801,note_on,57,0,0,,10,,,69,127
131806,note_off,5,0,0,,7,,,67,127
131858,note_on,52,0,0,,7,,,67,127
131875,note_off,17,0,0,,10,,,69,127
131909,note_on,34,0,0,,10,,,69,127
131932,note_off,23,0,0,,7,,,67,127
131961,note_on,29,0,0,,7,,,67,127
131966,note_on,5,0,0,,2,,,62,127
131966,note_on,0,0,0,,12,,,59,127
131983,note_off,17,0,0,,10,,,69,127
132012,note_on,29,0,0,,10,,,69,127
132035,note_off,23,0,0,,7,,,67,127
132063,note_on,28,0,0,,7,,,67,127
132086,note_off,23,0,0,,10,,,69,127
132114,note_on,28,0,0,,10,,,69,127
132137,note_off,23,0,0,,7,,,67,127
132166,note_on,29,0,0,,7,,,67,127
132188,note_off,22,0,0,,10,,,69,127
132219,note_on,31,0,0,,10,,,69,127
132241,note_off,22,0,0,,7,,,67,127
132259,note_off,18,0,0,,12,,,59,127
132259,note_off,0,0,0,,2,,,62,127
132262,note_on,3,0,0,,0,,,72,127
132262,note_on,0,0,0,,0,,,60,127
132262,note_on,0,0,0,,4,,,64,127
132270,note_on,8,0,0,,7,,,67,127
132293,note_off,23,0,0,,10,,,69,127
132322,note_on,29,0,0,,10,,,69,127
132344,note_off,22,0,0,,7,,,67,127
132372,note_on,28,0,0,,7,,,67,127
132397,note_off,25,0,0,,10,,,69,127
132425,note_on,28,0,0,,10,,,69,127
132447,note_off,22,0,0,,7,,,67,127
132478,note_on,31,0,0,,7,,,67,127
132500,note_off,22,0,0,,10,,,69,127
132526,note_off,26,0,0,,0,,,72,127
132529,note_on,3,0,0,,10,,,69,127
132552,note_off,23,0,0,,7,,,67,127
132557,note_off,5,0,0,,4,,,64,127
132557,note_off,0,0,0,,0,,,60,127
132560,note_on,3,0,0,,2,,,74,127
132560,note_on,0,0,0,,12,,,59,127
132560,note_on,0,0,0,,2,,,62,127
132582,note_on,22,0,0,,7,,,67,127
132604,note_off,22,0,0,,10,,,69,127
132633,note_on,29,0,0,,10,,,69,127
132656,note_off,23,0,0,,7,,,67,127
132682,note_on,26,0,0,,7,,,67,127
132707,note_off,25,0,0,,10,,,69,127
132733,note_on,26,0,0,,10,,,69,127
132756,note_off,23,0,0,,7,,,67,127
132785,note_on,29,0,0,,7,,,67,127
132807,note_off,22,0,0,,10,,,69,127
132838,note_on,31,0,0,,10,,,69,127
132853,note_off,15,0,0,,2,,,62,127
132853,note_off,0,0,0,,12,,,59,127
132856,note_on,3,0,0,,7,,,55,127
132859,note_off,3,0,0,,7,,,67,127
132888,note_on,29,0,0,,7,,,67,127
132911,note_off,23,0,0,,10,,,69,127
132940,note_on,29,0,0,,10,,,69,127
132962,note_off,22,0,0,,7,,,67,127
132991,note_on,29,0,0,,7,,,67,127
133014,note_off,23,0,0,,10,,,69,127
133042,note_on,28,0,0,,10,,,69,127
133065,note_off,23,0,0,,7,,,67,127
133093,note_on,28,0,0,,7,,,67,127
133116,note_off,23,0,0,,10,,,69,127
133118,note_off,2,0,0,,2,,,74,127
133146,note_on,28,0,0,,10,,,69,127
133149,note_off,3,0,0,,7,,,55,127
133152,note_on,3,0,0,,4,,,76,127
133152,note_on,0,0,0,,0,,,60,127
133167,note_off,15,0,0,,7,,,67,127
133198,note_on,31,0,0,,7,,,67,127
133220,note_off,22,0,0,,10,,,69,127
133249,note_on,29,0,0,,10,,,69,127
133272,note_off,23,0,0,,7,,,67,127
133301,note_on,29,0,0,,7,,,67,127
133323,note_off,22,0,0,,10,,,69,127
133351,note_on,28,0,0,,10,,,69,127
133376,note_off,25,0,0,,7,,,67,127
133404,note_on,28,0,0,,7,,,67,127
133415,note_off,11,0,0,,4,,,76,127
133426,note_off,11,0,0,,10,,,69,127
133446,note_off,20,0,0,,0,,,60,127
133449,note_on,3,0,0,,5,,,77,127
133449,note_on,0,0,0,,12,,,59,127
133449,note_on,0,0,0,,2,,,62,127
133455,note_on,6,0,0,,10,,,69,127
133478,note_off,23,0,0,,7,,,67,127
133507,note_on,29,0,0,,7,,,67,127
133529,note_off,22,0,0,,10,,,69,127
133560,note_on,31,0,0,,10,,,69,127
133582,note_off,22,0,0,,7,,,67,127
133611,note_on,29,0,0,,7,,,67,127
133634,note_off,23,0,0,,10,,,69,127
133660,note_on,26,0,0,,10,,,69,127
133685,note_off,25,0,0,,7,,,67,127
133711,note_on,26,0,0,,7,,,67,127
133734,note_off,23,0,0,,10,,,69,127
133742,note_off,8,0,0,,2,,,62,127
133742,note_off,0,0,0,,12,,,59,127
133745,note_on,3,0,0,,7,,,55,127
133763,note_on,18,0,0,,10,,,69,127
133785,note_off,22,0,0,,7,,,67,127
133814,note_on,29,0,0,,7,,,67,127
133837,note_off,23,0,0,,10,,,69,127
133866,note_on,29,0,0,,10,,,69,127
133888,note_off,22,0,0,,7,,,67,127
133919,note_on,31,0,0,,7,,,67,127
133941,note_off,22,0,0,,10,,,69,127
133969,note_on,28,0,0,,10,,,69,127
133994,note_off,25,0,0,,7,,,67,127
134008,note_off,14,0,0,,5,,,77,127
134022,note_on,14,0,0,,7,,,67,127
134039,note_off,17,0,0,,7,,,55,127
134042,note_on,3,0,0,,4,,,76,127
134042,note_on,0,0,0,,4,,,64,127
134042,note_on,0,0,0,,0,,,60,127
134044,note_off,2,0,0,,10,,,69,127
134073,note_on,29,0,0,,10,,,69,127
134096,note_off,23,0,0,,7,,,67,127
134125,note_on,29,0,0,,7,,,67,127
134147,note_off,22,0,0,,10,,,69,127
134178,note_on,31,0,0,,10,,,69,127
134200,note_off,22,0,0,,7,,,67,127
134229,note_on,29,0,0,,7,,,67,127
134252,note_off,23,0,0,,10,,,69,127
134281,note_on,29,0,0,,10,,,69,127
134303,note_off,22,0,0,,7,,,67,127
134305,note_off,2,0,0,,4,,,76,127
134331,note_on,26,0,0,,7,,,67,127
134336,note_off,5,0,0,,0,,,60,127
134336,note_off,0,0,0,,4,,,64,127
134339,note_on,3,0,0,,2,,,74,127
134339,note_on,0,0,0,,2,,,62,127
134339,note_on,0,0,0,,12,,,59,127
134356,note_off,17,0,0,,10,,,69,127
134384,note_on,28,0,0,,10,,,69,127
134406,note_off,22,0,0,,7,,,67,127
134435,note_on,29,0,0,,7,,,67,127
134458,note_off,23,0,0,,10,,,69,127
134487,note_on,29,0,0,,10,,,69,127
134509,note_off,22,0,0,,7,,,67,127
134540,note_on,31,0,0,,7,,,67,127
134562,note_off,22,0,0,,10,,,69,127
134591,note_on,29,0,0,,10,,,69,127
134614,note_off,23,0,0,,7,,,67,127
134632,note_off,18,0,0,,12,,,59,127
134632,note_off,0,0,0,,2,,,62,127
134635,note_on,3,0,0,,7,,,55,127
134641,note_on,6,0,0,,7,,,67,127
134664,note_off,23,0,0,,10,,,69,127
134690,note_on,26,0,0,,10,,,69,127
134715,note_off,25,0,0,,7,,,67,127
134743,note_on,28,0,0,,7,,,67,127
134765,note_off,22,0,0,,10,,,69,127
134794,note_on,29,0,0,,10,,,69,127
134817,note_off,23,0,0,,7,,,67,127
134846,note_on,29,0,0,,7,,,67,127
134868,note_off,22,0,0,,10,,,69,127
134897,note_off,29,0,0,,2,,,74,127
134899,note_on,2,0,0,,10,,,69,127
134921,note_off,22,0,0,,7,,,67,127
134929,note_off,8,0,0,,7,,,55,127
134932,note_on,3,0,0,,0,,,72,127
134932,note_on,0,0,0,,4,,,64,127
134932,note_on,0,0,0,,0,,,60,127
134949,note_on,17,0,0,,7,,,67,127
134974,note_off,25,0,0,,10,,,69,127
135002,note_on,28,0,0,,10,,,69,127
135024,note_off,22,0,0,,7,,,67,127
135053,note_on,29,0,0,,7,,,67,127
135076,note_off,23,0,0,,10,,,69,127
135105,note_on,29,0,0,,10,,,69,127
135127,note_off,22,0,0,,7,,,67,127
135156,note_on,29,0,0,,7,,,67,127
135179,note_off,23,0,0,,10,,,69,127
135194,note_off,15,0,0,,0,,,72,127
135208,note_on,14,0,0,,10,,,69,127
135225,note_off,17,0,0,,0,,,60,127
135225,note_off,0,0,0,,4,,,64,127
135228,note_on,3,0,0,,2,,,74,127
135228,note_on,0,0,0,,12,,,59,127
135228,note_on,0,0,0,,2,,,62,127
135230,note_off,2,0,0,,7,,,67,127
135259,note_on,29,0,0,,7,,,67,127
135282,note_off,23,0,0,,10,,,69,127
135310,note_on,28,0,0,,10,,,69,127
135333,note_off,23,0,0,,7,,,67,127
135362,note_on,29,0,0,,7,,,67,127
135384,note_off,22,0,0,,10,,,69,127
135413,note_on,29,0,0,,10,,,69,127
135436,note_off,23,0,0,,7,,,67,127
135465,note_on,29,0,0,,7,,,67,127
135487,note_off,22,0,0,,10,,,69,127
135518,note_on,31,0,0,,10,,,69,127
135521,note_off,3,0,0,,2,,,62,127
135521,note_off,0,0,0,,12,,,59,127
135524,note_on,3,0,0,,7,,,55,127
135539,note_off,15,0,0,,7,,,67,127
135568,note_on,29,0,0,,7,,,67,127
135591,note_off,23,0,0,,10,,,69,127
135619,note_on,28,0,0,,10,,,69,127
135642,note_off,23,0,0,,7,,,67,127
135670,note_on,28,0,0,,7,,,67,127
135693,note_off,23,0,0,,10,,,69,127
135721,note_on,28,0,0,,10,,,69,127
135744,note_off,23,0,0,,7,,,67,127
135772,note_on,28,0,0,,7,,,67,127
135786,note_off,14,0,0,,2,,,74,127
135795,note_off,9,0,0,,10,,,69,127
135817,note_off,22,0,0,,7,,,55,127
135820,note_on,3,0,0,,4,,,76,127
135820,note_on,0,0,0,,4,,,64,127
135820,note_on,0,0,0,,0,,,60,127
135825,note_on,5,0,0,,10,,,69,127
135847,note_off,22,0,0,,7,,,67,127
135876,note_on,29,0,0,,7,,,67,127
135899,note_off,23,0,0,,10,,,69,127
135927,note_on,28,0,0,,10,,,69,127
135950,note_off,23,0,0,,7,,,67,127
135979,note_on,29,0,0,,7,,,67,127
136001,note_off,22,0,0,,10,,,69,127
136030,note_on,29,0,0,,10,,,69,127
136053,note_off,23,0,0,,7,,,67,127
136082,note_off,29,0,0,,4,,,76,127
136082,note_on,0,0,0,,7,,,67,127
136104,note_off,22,0,0,,10,,,69,127
136113,note_off,9,0,0,,0,,,60,127
136113,note_off,0,0,0,,4,,,64,127
136116,note_on,3,0,0,,5,,,77,127
136116,note_on,0,0,0,,2,,,62,127
136116,note_on,0,0,0,,12,,,59,127
136133,note_on,17,0,0,,10,,,69,127
136156,note_off,23,0,0,,7,,,67,127
136185,note_on,29,0,0,,7,,,67,127
136207,note_off,22,0,0,,10,,,69,127
136235,note_on,28,0,0,,10,,,69,127
136260,note_off,25,0,0,,7,,,67,127
136288,note_on,28,0,0,,7,,,67,127
136310,note_off,22,0,0,,10,,,69,127
136341,note_on,31,0,0,,10,,,69,127
136363,note_off,22,0,0,,7,,,67,127
136392,note_on,29,0,0,,7,,,67,127
136410,note_off,18,0,0,,12,,,59,127
136410,note_off,0,0,0,,2,,,62,127
136413,note_on,3,0,0,,7,,,55,127
136415,note_off,2,0,0,,10,,,69,127
136444,note_on,29,0,0,,10,,,69,127
136466,note_off,22,0,0,,7,,,67,127
136495,note_on,29,0,0,,7,,,67,127
136518,note_off,23,0,0,,10,,,69,127
136546,note_on,28,0,0,,10,,,69,127
136569,note_off,23,0,0,,7,,,67,127
136598,note_on,29,0,0,,7,,,67,127
136620,note_off,22,0,0,,10,,,69,127
136649,note_on,29,0,0,,10,,,69,127
136672,note_off,23,0,0,,7,,,67,127
136675,note_off,3,0,0,,5,,,77,127
136701,note_on,26,0,0,,7,,,67,127
136706,note_off,5,0,0,,7,,,55,127
136709,note_on,3,0,0,,4,,,76,127
136709,note_on,0,0,0,,0,,,60,127
136709,note_on,0,0,0,,4,,,64,127
136723,note_off,14,0,0,,10,,,69,127
136751,note_on,28,0,0,,10,,,69,127
136776,note_off,25,0,0,,7,,,67,127
136804,note_on,28,0,0,,7,,,67,127
136826,note_off,22,0,0,,10,,,69,127
136855,note_on,29,0,0,,10,,,69,127
136878,note_off,23,0,0,,7,,,67,127
136906,note_on,28,0,0,,7,,,67,127
136929,note_off,23,0,0,,10,,,69,127
136972,note_off,43,0,0,,4,,,76,127
136980,note_off,8,0,0,,7,,,67,127
137003,note_off,23,0,0,,4,,,64,127
137003,note_off,0,0,0,,0,,,60,127
137022,note_on,19,0,0,,5,,,53,127
137022,note_on,0,0,0,,5,,,65,127
137167,note_off,145,0,0,,5,,,65,127
137170,note_on,3,0,0,,2,,,74,127
137315,note_off,145,0,0,,2,,,74,127
137315,note_off,0,0,0,,5,,,53,127
137318,note_on,3,0,0,,7,,,55,127
137318,note_on,0,0,0,,4,,,64,127
137463,note_off,145,0,0,,4,,,64,127
137466,note_on,3,0,0,,0,,,72,127
137611,note_off,145,0,0,,0,,,72,127
137611,note_off,0,0,0,,7,,,55,127
137614,note_on,3,0,0,,7,,,43,127
137614,note_on,0,0,0,,2,,,62,127
137759,note_off,145,0,0,,2,,,62,127
137762,note_on,3,0,0,,12,,,71,127
137907,note_off,145,0,0,,12,,,71,127
137907,note_off,0,0,0,,7,,,43,127
137910,note_on,3,0,0,,0,,,36,127
137910,note_on,0,0,0,,12,,,71,127
138202,note_off,292,0,0,,12,,,71,127
138205,note_on,3,0,0,,0,,,72,127
138793,note_off,588,0,0,,0,,,36,127
138796,note_on,3,0,0,,10,,,81,127
138864,note_off,68,0,0,,10,,,81,127
138887,note_on,23,0,0,,7,,,79,127
138953,note_on,66,0,0,,10,,,81,127
138955,note_off,2,0,0,,7,,,79,127
139020,note_on,65,0,0,,7,,,79,127
139022,note_off,2,0,0,,10,,,81,127
139074,note_on,52,0,0,,10,,,81,127
139088,note_off,14,0,0,,7,,,79,127
139093,note_on,5,0,0,,2,,,74,127
139093,note_on,0,0,0,,12,,,71,127
139125,note_on,32,0,0,,7,,,79,127
139142,note_off,17,0,0,,10,,,81,127
139179,note_on,37,0,0,,10,,,81,127
139193,note_off,14,0,0,,7,,,79,127
139228,note_on,35,0,0,,7,,,79,127
139246,note_off,18,0,0,,10,,,81,127
139281,note_on,35,0,0,,10,,,81,127
139295,note_off,14,0,0,,7,,,79,127
139333,note_on,38,0,0,,7,,,79,127
139348,note_off,15,0,0,,10,,,81,127
139383,note_off,35,0,0,,12,,,71,127
139383,note_off,0,0,0,,2,,,74,127
139383,note_off,0,0,0,,0,,,72,127
139383,note_on,0,0,0,,10,,,81,127
139386,note_on,3,0,0,,4,,,76,127
139386,note_on,0,0,0,,0,,,72,127
139386,note_on,0,0,0,,0,,,84,127
139400,note_off,14,0,0,,7,,,79,127
139434,note_on,34,0,0,,7,,,79,127
139451,note_off,17,0,0,,10,,,81,127
139486,note_on,35,0,0,,10,,,81,127
139501,note_off,15,0,0,,7,,,79,127
139536,note_on,35,0,0,,7,,,79,127
139553,note_off,17,0,0,,10,,,81,127
139588,note_on,35,0,0,,10,,,81,127
139603,note_off,15,0,0,,7,,,79,127
139638,note_on,35,0,0,,7,,,79,127
139646,note_off,8,0,0,,0,,,84,127
139655,note_off,9,0,0,,10,,,81,127
139677,note_off,22,0,0,,0,,,72,127
139677,note_off,0,0,0,,4,,,76,127
139680,note_on,3,0,0,,2,,,74,127
139680,note_on,0,0,0,,12,,,71,127
139680,note_on,0,0,0,,2,,,86,127
139691,note_on,11,0,0,,10,,,81,127
139706,note_off,15,0,0,,7,,,79,127
139741,note_on,35,0,0,,7,,,79,127
139758,note_off,17,0,0,,10,,,81,127
139793,note_on,35,0,0,,10,,,81,127
139808,note_off,15,0,0,,7,,,79,127
139842,note_on,34,0,0,,7,,,79,127
139860,note_off,18,0,0,,10,,,81,127
139897,note_on,37,0,0,,10,,,81,127
139909,note_off,12,0,0,,7,,,79,127
139947,note_on,38,0,0,,7,,,79,127
139964,note_off,17,0,0,,10,,,81,127
139970,note_off,6,0,0,,12,,,71,127
139970,note_off,0,0,0,,2,,,74,127
139973,note_on,3,0,0,,7,,,67,127
139998,note_on,25,0,0,,10,,,81,127
140015,note_off,17,0,0,,7,,,79,127
140050,note_on,35,0,0,,7,,,79,127
140065,note_off,15,0,0,,10,,,81,127
140102,note_on,37,0,0,,10,,,81,127
140117,note_off,15,0,0,,7,,,79,127
140152,note_on,35,0,0,,7,,,79,127
140169,note_off,17,0,0,,10,,,81,127
140204,note_on,35,0,0,,10,,,81,127
140219,note_off,15,0,0,,7,,,79,127
140233,note_off,14,0,0,,2,,,86,127
140255,note_on,22,0,0,,7,,,79,127
140264,note_off,9,0,0,,7,,,67,127
140267,note_on,3,0,0,,4,,,76,127
140267,note_on,0,0,0,,0,,,72,127
140267,note_on,0,0,0,,4,,,88,127
140272,note_off,5,0,0,,10,,,81,127
140307,note_on,35,0,0,,10,,,81,127
140322,note_off,15,0,0,,7,,,79,127
140356,note_on,34,0,0,,7,,,79,127
140374,note_off,18,0,0,,10,,,81,127
140409,note_on,35,0,0,,10,,,81,127
140423,note_off,14,0,0,,7,,,79,127
140460,note_on,37,0,0,,7,,,79,127
140477,note_off,17,0,0,,10,,,81,127
140509,note_on,32,0,0,,10,,,81,127
140527,note_off,18,0,0,,7,,,79,127
140527,note_off,0,0,0,,4,,,88,127
140558,note_off,31,0,0,,0,,,72,127
140558,note_off,0,0,0,,4,,,76,127
140561,note_on,3,0,0,,12,,,71,127
140561,note_on,0,0,0,,2,,,74,127
140561,note_on,0,0,0,,5,,,89,127
140564,note_on,3,0,0,,7,,,79,127
140576,note_off,12,0,0,,10,,,81,127
140616,note_on,40,0,0,,10,,,81,127
140631,note_off,15,0,0,,7,,,79,127
140665,note_on,34,0,0,,7,,,79,127
140683,note_off,18,0,0,,10,,,81,127
140717,note_on,34,0,0,,10,,,81,127
140732,note_off,15,0,0,,7,,,79,127
140769,note_on,37,0,0,,7,,,79,127
140784,note_off,15,0,0,,10,,,81,127
140818,note_on,34,0,0,,10,,,81,127
140836,note_off,18,0,0,,7,,,79,127
140851,note_off,15,0,0,,2,,,74,127
140851,note_off,0,0,0,,12,,,71,127
140854,note_on,3,0,0,,7,,,67,127
140869,note_on,15,0,0,,7,,,79,127
140884,note_off,15,0,0,,10,,,81,127
140921,note_on,37,0,0,,10,,,81,127
140936,note_off,15,0,0,,7,,,79,127
140971,note_on,35,0,0,,7,,,79,127
140988,note_off,17,0,0,,10,,,81,127
141022,note_on,34,0,0,,10,,,81,127
141039,note_off,17,0,0,,7,,,79,127
141076,note_on,37,0,0,,7,,,79,127
141090,note_off,14,0,0,,10,,,81,127
141115,note_off,25,0,0,,5,,,89,127
141126,note_on,11,0,0,,10,,,81,127
141144,note_off,18,0,0,,7,,,79,127
141146,note_off,2,0,0,,7,,,67,127
141149,note_on,3,0,0,,0,,,72,127
141149,note_on,0,0,0,,4,,,76,127
141149,note_on,0,0,0,,4,,,88,127
141180,note_on,31,0,0,,7,,,79,127
141194,note_off,14,0,0,,10,,,81,127
141232,note_on,38,0,0,,10,,,81,127
141247,note_off,15,0,0,,7,,,79,127
141282,note_on,35,0,0,,7,,,79,127
141299,note_off,17,0,0,,10,,,81,127
141333,note_on,34,0,0,,10,,,81,127
141350,note_off,17,0,0,,7,,,79,127
141387,note_on,37,0,0,,7,,,79,127
141401,note_off,14,0,0,,10,,,81,127
141410,note_off,9,0,0,,4,,,88,127
141438,note_on,28,0,0,,10,,,81,127
141441,note_off,3,0,0,,4,,,76,127
141441,note_off,0,0,0,,0,,,72,127
141444,note_on,3,0,0,,2,,,74,127
141444,note_on,0,0,0,,12,,,71,127
141444,note_on,0,0,0,,2,,,86,127
141455,note_off,11,0,0,,7,,,79,127
141489,note_on,34,0,0,,7,,,79,127
141506,note_off,17,0,0,,10,,,81,127
141540,note_on,34,0,0,,10,,,81,127
141557,note_off,17,0,0,,7,,,79,127
141594,note_on,37,0,0,,7,,,79,127
141608,note_off,14,0,0,,10,,,81,127
141643,note_on,35,0,0,,10,,,81,127
141661,note_off,18,0,0,,7,,,79,127
141695,note_on,34,0,0,,7,,,79,127
141710,note_off,15,0,0,,10,,,81,127
141736,note_off,26,0,0,,12,,,71,127
141736,note_off,0,0,0,,2,,,74,127
141739,note_on,3,0,0,,7,,,67,127
141748,note_on,9,0,0,,10,,,81,127
141762,note_off,14,0,0,,7,,,79,127
141799,note_on,37,0,0,,7,,,79,127
141816,note_off,17,0,0,,10,,,81,127
141850,note_on,34,0,0,,10,,,81,127
141867,note_off,17,0,0,,7,,,79,127
141904,note_on,37,0,0,,7,,,79,127
141918,note_off,14,0,0,,10,,,81,127
141953,note_on,35,0,0,,10,,,81,127
141971,note_off,18,0,0,,7,,,79,127
142000,note_off,29,0,0,,2,,,86,127
142005,note_on,5,0,0,,7,,,79,127
142020,note_off,15,0,0,,10,,,81,127
142031,note_off,11,0,0,,7,,,67,127
142034,note_on,3,0,0,,0,,,72,127
142034,note_on,0,0,0,,4,,,76,127
142034,note_on,0,0,0,,0,,,84,127
142056,note_on,22,0,0,,10,,,81,127
142073,note_off,17,0,0,,7,,,79,127
142108,note_on,35,0,0,,7,,,79,127
142123,note_off,15,0,0,,10,,,81,127
142158,note_on,35,0,0,,10,,,81,127
142175,note_off,17,0,0,,7,,,79,127
142209,note_on,34,0,0,,7,,,79,127
142226,note_off,17,0,0,,10,,,81,127
142261,note_on,35,0,0,,10,,,81,127
142276,note_off,15,0,0,,7,,,79,127
142294,note_off,18,0,0,,0,,,84,127
142311,note_on,17,0,0,,7,,,79,127
142325,note_off,14,0,0,,4,,,76,127
142325,note_off,0,0,0,,0,,,72,127
142328,note_off,3,0,0,,10,,,81,127
142328,note_on,0,0,0,,12,,,71,127
142328,note_on,0,0,0,,2,,,74,127
142328,note_on,0,0,0,,2,,,86,127
142363,note_on,35,0,0,,10,,,81,127
142378,note_off,15,0,0,,7,,,79,127
142412,note_on,34,0,0,,7,,,79,127
142430,note_off,18,0,0,,10,,,81,127
142467,note_on,37,0,0,,10,,,81,127
142479,note_off,12,0,0,,7,,,79,127
142517,note_on,38,0,0,,7,,,79,127
142534,note_off,17,0,0,,10,,,81,127
142568,note_on,34,0,0,,10,,,81,127
142585,note_off,17,0,0,,7,,,79,127
142619,note_off,34,0,0,,2,,,74,127
142619,note_off,0,0,0,,12,,,71,127
142621,note_on,2,0,0,,7,,,79,127
142623,note_on,2,0,0,,7,,,67,127
142637,note_off,14,0,0,,10,,,81,127
142674,note_on,37,0,0,,10,,,81,127
142689,note_off,15,0,0,,7,,,79,127
142724,note_on,35,0,0,,7,,,79,127
142741,note_off,17,0,0,,10,,,81,127
142776,note_on,35,0,0,,10,,,81,127
142791,note_off,15,0,0,,7,,,79,127
142826,note_on,35,0,0,,7,,,79,127
142843,note_off,17,0,0,,10,,,81,127
142878,note_on,35,0,0,,10,,,81,127
142883,note_off,5,0,0,,2,,,86,127
142894,note_off,11,0,0,,7,,,79,127
142914,note_off,20,0,0,,7,,,67,127
142917,note_on,3,0,0,,4,,,76,127
142917,note_on,0,0,0,,0,,,72,127
142917,note_on,0,0,0,,4,,,88,127
142928,note_on,11,0,0,,7,,,79,127
142946,note_off,18,0,0,,10,,,81,127
142981,note_on,35,0,0,,10,,,81,127
142995,note_off,14,0,0,,7,,,79,127
143033,note_on,38,0,0,,7,,,79,127
143048,note_off,15,0,0,,10,,,81,127
143083,note_on,35,0,0,,10,,,81,127
143100,note_off,17,0,0,,7,,,79,127
143135,note_on,35,0,0,,7,,,79,127
143150,note_off,15,0,0,,10,,,81,127
143176,note_off,26,0,0,,4,,,88,127
143187,note_on,11,0,0,,10,,,81,127
143202,note_off,15,0,0,,7,,,79,127
143207,note_off,5,0,0,,0,,,72,127
143207,note_off,0,0,0,,4,,,76,127
143210,note_on,3,0,0,,2,,,74,127
143210,note_on,0,0,0,,12,,,71,127
143210,note_on,0,0,0,,5,,,89,127
143236,note_on,26,0,0,,7,,,79,127
143254,note_off,18,0,0,,10,,,81,127
143289,note_on,35,0,0,,10,,,81,127
143303,note_off,14,0,0,,7,,,79,127
143340,note_on,37,0,0,,7,,,79,127
143357,note_off,17,0,0,,10,,,81,127
143391,note_on,34,0,0,,10,,,81,127
143408,note_off,17,0,0,,7,,,79,127
143443,note_on,35,0,0,,7,,,79,127
143458,note_off,15,0,0,,10,,,81,127
143495,note_on,37,0,0,,10,,,81,127
143501,note_off,6,0,0,,12,,,71,127
143501,note_off,0,0,0,,2,,,74,127
143504,note_on,3,0,0,,7,,,67,127
143510,note_off,6,0,0,,7,,,79,127
143544,note_on,34,0,0,,7,,,79,127
143562,note_off,18,0,0,,10,,,81,127
143596,note_on,34,0,0,,10,,,81,127
143611,note_off,15,0,0,,7,,,79,127
143649,note_on,38,0,0,,7,,,79,127
143663,note_off,14,0,0,,10,,,81,127
143700,note_on,37,0,0,,10,,,81,127
143717,note_off,17,0,0,,7,,,79,127
143751,note_on,34,0,0,,7,,,79,127
143765,note_off,14,0,0,,5,,,89,127
143768,note_off,3,0,0,,10,,,81,127
143796,note_off,28,0,0,,7,,,67,127
143799,note_on,3,0,0,,0,,,72,127
143799,note_on,0,0,0,,4,,,88,127
143805,note_on,6,0,0,,10,,,81,127
143819,note_off,14,0,0,,7,,,79,127
143854,note_on,35,0,0,,7,,,79,127
143872,note_off,18,0,0,,10,,,81,127
143904,note_on,32,0,0,,10,,,81,127
143921,note_off,17,0,0,,7,,,79,127
143958,note_on,37,0,0,,7,,,79,127
143972,note_off,14,0,0,,10,,,81,127
144026,note_off,54,0,0,,7,,,79,127
144060,note_off,34,0,0,,4,,,88,127
144091,note_off,31,0,0,,0,,,72,127
144094,note_on,3,0,0,,5,,,65,127
144094,note_on,0,0,0,,5,,,77,127
144239,note_off,145,0,0,,5,,,77,127
144242,note_on,3,0,0,,2,,,86,127
144387,note_off,145,0,0,,2,,,86,127
144387,note_off,0,0,0,,5,,,65,127
144390,note_on,3,0,0,,7,,,67,127
144390,note_on,0,0,0,,4,,,76,127
144535,note_off,145,0,0,,4,,,76,127
144538,note_on,3,0,0,,0,,,84,127
144683,note_off,145,0,0,,0,,,84,127
144683,note_off,0,0,0,,7,,,67,127
144686,note_on,3,0,0,,7,,,55,127
144686,note_on,0,0,0,,2,,,74,127
144831,note_off,145,0,0,,2,,,74,127
144834,note_on,3,0,0,,12,,,83,127
144979,note_off,145,0,0,,12,,,83,127
144979,note_off,0,0,0,,7,,,55,127
144982,note_on,3,0,0,,0,,,48,127
144982,note_on,0,0,0,,0,,,84,127
145127,note_off,145,0,0,,0,,,84,127
145130,note_on,3,0,0,,7,,,79,127
145275,note_off,145,0,0,,7,,,79,127
145278,note_on,3,0,0,,7,,,79,127
145423,note_off,145,0,0,,7,,,79,127
145426,note_on,3,0,0,,4,,,76,127
145571,note_off,145,0,0,,4,,,76,127
145571,note_off,0,0,0,,0,,,48,127
145574,note_on,3,0,0,,0,,,72,127
145574,note_on,0,0,0,,4,,,76,127
145719,note_off,145,0,0,,4,,,76,127
145722,note_on,3,0,0,,7,,,79,127
145867,note_off,145,0,0,,7,,,79,127
145867,note_off,0,0,0,,0,,,72,127
145870,note_on,3,0,0,,5,,,77,127
145870,note_on,0,0,0,,10,,,81,127
146008,note_off,138,0,0,,5,,,77,127
146014,note_off,6,0,0,,10,,,81,127
146017,note_on,3,0,0,,5,,,77,127
146162,note_off,145,0,0,,5,,,77,127
146165,note_on,3,0,0,,2,,,74,127
146165,note_on,0,0,0,,5,,,77,127
146303,note_off,138,0,0,,2,,,74,127
146309,note_off,6,0,0,,5,,,77,127
146312,note_on,3,0,0,,2,,,74,127
146457,note_off,145,0,0,,2,,,74,127
146460,note_on,3,0,0,,12,,,71,127
146460,note_on,0,0,0,,2,,,74,127
146605,note_off,145,0,0,,2,,,74,127
146608,note_on,3,0,0,,7,,,79,127
146753,note_off,145,0,0,,7,,,79,127
146753,note_off,0,0,0,,12,,,71,127
146756,note_on,3,0,0,,4,,,76,127
146756,note_on,0,0,0,,7,,,79,127
146894,note_off,138,0,0,,4,,,76,127
146900,note_off,6,0,0,,7,,,79,127
146903,note_on,3,0,0,,4,,,76,127
147048,note_off,145,0,0,,4,,,76,127
147051,note_on,3,0,0,,0,,,72,127
147051,note_on,0,0,0,,4,,,76,127
147189,note_off,138,0,0,,0,,,72,127
147195,note_off,6,0,0,,4,,,76,127
147198,note_on,3,0,0,,0,,,72,127
147343,note_off,145,0,0,,0,,,72,127
147346,note_on,3,0,0,,4,,,64,127
147346,note_on,0,0,0,,0,,,72,127
147491,note_off,145,0,0,,0,,,72,127
147494,note_on,3,0,0,,4,,,76,127
147639,note_off,145,0,0,,4,,,76,127
147639,note_off,0,0,0,,4,,,64,127
147642,note_on,3,0,0,,5,,,65,127
147642,note_on,0,0,0,,2,,,74,127
147787,note_off,145,0,0,,2,,,74,127
147790,note_on,3,0,0,,5,,,77,127
147935,note_off,145,0,0,,5,,,77,127
147935,note_off,0,0,0,,5,,,65,127
147938,note_on,3,0,0,,7,,,67,127
147938,note_on,0,0,0,,4,,,76,127
148083,note_off,145,0,0,,4,,,76,127
148086,note_on,3,0,0,,2,,,74,127
148231,note_off,145,0,0,,2,,,74,127
148231,note_off,0,0,0,,7,,,67,127
148234,note_on,3,0,0,,7,,,55,127
148234,note_on,0,0,0,,0,,,72,127
148379,note_off,145,0,0,,0,,,72,127
148382,note_on,3,0,0,,12,,,71,127
148527,note_off,145,0,0,,12,,,71,127
148527,note_off,0,0,0,,7,,,55,127
148530,note_on,3,0,0,,0,,,60,127
148530,note_on,0,0,0,,0,,,72,127
148675,note_off,145,0,0,,0,,,72,127
148678,note_on,3,0,0,,7,,,67,127
148823,note_off,145,0,0,,7,,,67,127
148826,note_on,3,0,0,,7,,,67,127
148971,note_off,145,0,0,,7,,,67,127
148974,note_on,3,0,0,,4,,,64,127
149119,note_off,145,0,0,,4,,,64,127
149119,note_off,0,0,0,,0,,,60,127
149122,note_on,3,0,0,,0,,,60,127
149122,note_on,0,0,0,,4,,,64,127
149267,note_off,145,0,0,,4,,,64,127
149270,note_on,3,0,0,,7,,,67,127
149415,note_off,145,0,0,,7,,,67,127
149415,note_off,0,0,0,,0,,,60,127
149418,note_on,3,0,0,,5,,,65,127
149418,note_on,0,0,0,,10,,,69,127
149556,note_off,138,0,0,,5,,,65,127
149562,note_off,6,0,0,,10,,,69,127
149565,note_on,3,0,0,,5,,,65,127
149710,note_off,145,0,0,,5,,,65,127
149713,note_on,3,0,0,,2,,,62,127
149713,note_on,0,0,0,,5,,,65,127
149851,note_off,138,0,0,,2,,,62,127
149857,note_off,6,0,0,,5,,,65,127
149860,note_on,3,0,0,,2,,,62,127
150005,note_off,145,0,0,,2,,,62,127
150008,note_on,3,0,0,,12,,,59,127
150008,note_on,0,0,0,,2,,,62,127
150153,note_off,145,0,0,,2,,,62,127
150156,note_on,3,0,0,,5,,,65,127
150301,note_off,145,0,0,,5,,,65,127
150301,note_off,0,0,0,,12,,,59,127
150304,note_on,3,0,0,,4,,,64,127
150304,note_on,0,0,0,,7,,,67,127
150442,note_off,138,0,0,,4,,,64,127
150448,note_off,6,0,0,,7,,,67,127
150451,note_on,3,0,0,,4,,,64,127
150596,note_off,145,0,0,,4,,,64,127
150599,note_on,3,0,0,,0,,,60,127
150599,note_on,0,0,0,,4,,,64,127
150737,note_off,138,0,0,,0,,,60,127
150743,note_off,6,0,0,,4,,,64,127
150746,note_on,3,0,0,,0,,,60,127
150891,note_off,145,0,0,,0,,,60,127
150894,note_on,3,0,0,,4,,,52,127
150894,note_on,0,0,0,,0,,,60,127
151039,note_off,145,0,0,,0,,,60,127
151042,note_on,3,0,0,,4,,,64,127
151187,note_off,145,0,0,,4,,,64,127
151187,note_off,0,0,0,,4,,,52,127
151190,note_on,3,0,0,,5,,,53,127
151190,note_on,0,0,0,,2,,,62,127
151335,note_off,145,0,0,,2,,,62,127
151338,note_on,3,0,0,,5,,,65,127
151483,note_off,145,0,0,,5,,,65,127
151483,note_off,0,0,0,,5,,,53,127
151486,note_on,3,0,0,,7,,,55,127
151486,note_on,0,0,0,,4,,,64,127
151631,note_off,145,0,0,,4,,,64,127
151634,note_on,3,0,0,,2,,,62,127
151779,note_off,145,0,0,,2,,,62,127
151779,note_off,0,0,0,,7,,,55,127
151782,note_on,3,0,0,,7,,,43,127
151782,note_on,0,0,0,,0,,,60,127
151927,note_off,145,0,0,,0,,,60,127
151930,note_on,3,0,0,,12,,,59,127
152075,note_off,145,0,0,,12,,,59,127
152075,note_off,0,0,0,,7,,,43,127
152078,note_on,3,0,0,,0,,,36,127
152078,note_on,0,0,0,,0,,,60,127
152223,note_off,145,0,0,,0,,,60,127
152226,note_on,3,0,0,,7,,,55,127
152371,note_off,145,0,0,,7,,,55,127
152374,note_on,3,0,0,,4,,,64,127
152519,note_off,145,0,0,,4,,,64,127
152522,note_on,3,0,0,,0,,,60,127
152667,note_off,145,0,0,,0,,,60,127
152670,note_on,3,0,0,,0,,,72,127
152815,note_off,145,0,0,,0,,,72,127
152825,note_on,10,0,0,,7,,,67,127
152963,note_off,138,0,0,,0,,,36,127
152970,note_off,7,0,0,,7,,,67,127
152982,note_on,12,0,0,,7,,,79,127
152982,note_on,0,0,0,,7,,,67,127
153127,note_off,145,0,0,,7,,,79,127
153130,note_on,3,0,0,,12,,,71,127
153275,note_off,145,0,0,,12,,,71,127
153275,note_off,0,0,0,,7,,,67,127
153278,note_on,3,0,0,,0,,,72,127
153278,note_on,0,0,0,,4,,,64,127
153423,note_off,145,0,0,,0,,,72,127
153426,note_on,3,0,0,,2,,,74,127
153497,note_off,71,0,0,,2,,,74,127
153500,note_on,3,0,0,,4,,,76,127
153571,note_off,71,0,0,,4,,,76,127
153571,note_off,0,0,0,,4,,,64,127
153574,note_on,3,0,0,,2,,,74,127
153574,note_on,0,0,0,,0,,,60,127
153617,note_on,43,0,0,,4,,,76,127
153623,note_off,6,0,0,,2,,,74,127
153660,note_on,37,0,0,,2,,,74,127
153666,note_off,6,0,0,,4,,,76,127
153715,note_off,49,0,0,,2,,,74,127
153721,note_on,6,0,0,,0,,,72,127
153866,note_off,145,0,0,,0,,,72,127
153866,note_off,0,0,0,,0,,,60,127
153869,note_on,3,0,0,,7,,,79,127
153869,note_on,0,0,0,,7,,,55,127
154014,note_off,145,0,0,,7,,,79,127
154017,note_on,3,0,0,,12,,,71,127
154162,note_off,145,0,0,,12,,,71,127
154162,note_off,0,0,0,,7,,,55,127
154165,note_on,3,0,0,,0,,,72,127
154165,note_on,0,0,0,,4,,,52,127
154288,note_on,123,0,0,,2,,,74,127
154293,note_off,5,0,0,,0,,,72,127
154350,note_on,57,0,0,,4,,,76,127
154358,note_off,8,0,0,,2,,,74,127
154458,note_off,100,0,0,,4,,,76,127
154458,note_off,0,0,0,,4,,,52,127
154461,note_on,3,0,0,,2,,,74,127
154461,note_on,0,0,0,,0,,,48,127
154606,note_off,145,0,0,,2,,,74,127
154609,note_on,3,0,0,,0,,,72,127
154754,note_off,145,0,0,,0,,,72,127
154754,note_off,0,0,0,,0,,,48,127
154757,note_on,3,0,0,,7,,,79,127
154757,note_on,0,0,0,,7,,,67,127
154902,note_off,145,0,0,,7,,,79,127
154905,note_on,3,0,0,,12,,,71,127
155050,note_off,145,0,0,,12,,,71,127
155050,note_off,0,0,0,,7,,,67,127
155053,note_on,3,0,0,,0,,,72,127
155053,note_on,0,0,0,,4,,,64,127
155198,note_off,145,0,0,,0,,,72,127
155201,note_on,3,0,0,,2,,,74,127
155272,note_off,71,0,0,,2,,,74,127
155275,note_on,3,0,0,,4,,,76,127
155346,note_off,71,0,0,,4,,,76,127
155346,note_off,0,0,0,,4,,,64,127
155349,note_on,3,0,0,,2,,,74,127
155349,note_on,0,0,0,,0,,,60,127
155420,note_off,71,0,0,,2,,,74,127
155423,note_on,3,0,0,,4,,,76,127
155494,note_off,71,0,0,,4,,,76,127
155497,note_on,3,0,0,,2,,,74,127
155568,note_off,71,0,0,,2,,,74,127
155571,note_on,3,0,0,,0,,,72,127
155642,note_off,71,0,0,,0,,,72,127
155642,note_off,0,0,0,,0,,,60,127
155645,note_on,3,0,0,,7,,,79,127
155645,note_on,0,0,0,,7,,,55,127
155790,note_off,145,0,0,,7,,,79,127
155793,note_on,3,0,0,,12,,,71,127
155938,note_off,145,0,0,,12,,,71,127
155938,note_off,0,0,0,,7,,,55,127
155941,note_on,3,0,0,,0,,,72,127
155941,note_on,0,0,0,,4,,,52,127
156086,note_off,145,0,0,,0,,,72,127
156089,note_on,3,0,0,,2,,,74,127
156160,note_off,71,0,0,,2,,,74,127
156163,note_on,3,0,0,,4,,,76,127
156234,note_off,71,0,0,,4,,,76,127
156234,note_off,0,0,0,,4,,,52,127
156237,note_on,3,0,0,,4,,,76,127
156237,note_on,0,0,0,,0,,,48,127
156280,note_on,43,0,0,,2,,,74,127
156283,note_off,3,0,0,,4,,,76,127
156323,note_on,40,0,0,,4,,,76,127
156326,note_off,3,0,0,,2,,,74,127
156366,note_on,40,0,0,,2,,,74,127
156369,note_off,3,0,0,,4,,,76,127
156409,note_on,40,0,0,,4,,,76,127
156412,note_off,3,0,0,,2,,,74,127
156452,note_on,40,0,0,,2,,,74,127
156455,note_off,3,0,0,,4,,,76,127
156495,note_on,40,0,0,,0,,,72,127
156498,note_off,3,0,0,,2,,,74,127
156529,note_off,31,0,0,,0,,,72,127
156529,note_off,0,0,0,,0,,,48,127
156532,note_on,3,0,0,,2,,,74,127
156532,note_on,0,0,0,,12,,,47,127
156677,note_off,145,0,0,,2,,,74,127
156680,note_on,3,0,0,,7,,,67,127
156825,note_off,145,0,0,,7,,,67,127
156825,note_off,0,0,0,,12,,,47,127
156828,note_on,3,0,0,,5,,,77,127
156828,note_on,0,0,0,,7,,,43,127
156973,note_off,145,0,0,,5,,,77,127
156976,note_on,3,0,0,,7,,,67,127
157121,note_off,145,0,0,,7,,,67,127
157121,note_off,0,0,0,,7,,,43,127
157124,note_on,3,0,0,,4,,,76,127
157124,note_on,0,0,0,,0,,,48,127
157269,note_off,145,0,0,,4,,,76,127
157272,note_on,3,0,0,,7,,,67,127
157417,note_off,145,0,0,,7,,,67,127
157417,note_off,0,0,0,,0,,,48,127
157420,note_on,3,0,0,,5,,,65,127
157420,note_on,0,0,0,,5,,,53,127
157565,note_off,145,0,0,,5,,,65,127
157568,note_on,3,0,0,,2,,,74,127
157713,note_off,145,0,0,,2,,,74,127
157713,note_off,0,0,0,,5,,,53,127
157716,note_on,3,0,0,,4,,,64,127
157716,note_on,0,0,0,,7,,,55,127
157861,note_off,145,0,0,,4,,,64,127
157864,note_on,3,0,0,,0,,,72,127
158009,note_off,145,0,0,,0,,,72,127
158009,note_off,0,0,0,,7,,,55,127
158012,note_on,3,0,0,,2,,,62,127
158012,note_on,0,0,0,,7,,,43,127
158157,note_off,145,0,0,,2,,,62,127
158160,note_on,3,0,0,,12,,,71,127
158305,note_off,145,0,0,,12,,,71,127
158305,note_off,0,0,0,,7,,,43,127
158308,note_on,3,0,0,,0,,,72,127
158308,note_on,0,0,0,,0,,,36,127
158453,note_off,145,0,0,,0,,,72,127
158456,note_on,3,0,0,,7,,,67,127
158601,note_off,145,0,0,,7,,,67,127
158604,note_on,3,0,0,,4,,,64,127
158749,note_off,145,0,0,,4,,,64,127
158752,note_on,3,0,0,,0,,,60,127
158897,note_off,145,0,0,,0,,,60,127
158900,note_on,3,0,0,,4,,,64,127
159045,note_off,145,0,0,,4,,,64,127
159048,note_on,3,0,0,,7,,,67,127
159193,note_off,145,0,0,,7,,,67,127
159193,note_off,0,0,0,,0,,,36,127
159196,note_on,3,0,0,,7,,,79,127
159196,note_on,0,0,0,,7,,,67,127
159341,note_off,145,0,0,,7,,,79,127
159344,note_on,3,0,0,,12,,,71,127
159489,note_off,145,0,0,,12,,,71,127
159489,note_off,0,0,0,,7,,,67,127
159492,note_on,3,0,0,,0,,,72,127
159492,note_on,0,0,0,,4,,,64,127
159637,note_off,145,0,0,,0,,,72,127
159640,note_on,3,0,0,,2,,,74,127
159711,note_off,71,0,0,,2,,,74,127
159714,note_on,3,0,0,,4,,,76,127
159785,note_off,71,0,0,,4,,,76,127
159785,note_off,0,0,0,,4,,,64,127
159788,note_on,3,0,0,,2,,,74,127
159788,note_on,0,0,0,,0,,,60,127
159826,note_on,38,0,0,,4,,,76,127
159834,note_off,8,0,0,,2,,,74,127
159865,note_on,31,0,0,,2,,,74,127
159873,note_off,8,0,0,,4,,,76,127
159936,note_on,63,0,0,,0,,,72,127
159948,note_off,12,0,0,,2,,,74,127
160080,note_off,132,0,0,,0,,,72,127
160080,note_off,0,0,0,,0,,,60,127
160083,note_on,3,0,0,,7,,,79,127
160083,note_on,0,0,0,,7,,,55,127
160228,note_off,145,0,0,,7,,,79,127
160231,note_on,3,0,0,,12,,,71,127
160376,note_off,145,0,0,,12,,,71,127
160376,note_off,0,0,0,,7,,,55,127
160379,note_on,3,0,0,,0,,,72,127
160379,note_on,0,0,0,,4,,,52,127
160524,note_off,145,0,0,,0,,,72,127
160527,note_on,3,0,0,,2,,,74,127
160598,note_off,71,0,0,,2,,,74,127
160601,note_on,3,0,0,,4,,,76,127
160667,note_off,66,0,0,,4,,,76,127
160672,note_off,5,0,0,,4,,,52,127
160675,note_on,3,0,0,,4,,,76,127
160675,note_on,0,0,0,,0,,,48,127
160721,note_on,46,0,0,,2,,,74,127
160727,note_off,6,0,0,,4,,,76,127
160767,note_on,40,0,0,,4,,,76,127
160773,note_off,6,0,0,,2,,,74,127
160813,note_on,40,0,0,,2,,,74,127
160819,note_off,6,0,0,,4,,,76,127
160859,note_on,40,0,0,,0,,,72,127
160865,note_off,6,0,0,,2,,,74,127
160956,note_off,91,0,0,,0,,,72,127
160967,note_off,11,0,0,,0,,,48,127
160970,note_on,3,0,0,,7,,,79,127
160970,note_on,0,0,0,,7,,,67,127
161115,note_off,145,0,0,,7,,,79,127
161118,note_on,3,0,0,,12,,,71,127
161263,note_off,145,0,0,,12,,,71,127
161263,note_off,0,0,0,,7,,,67,127
161266,note_on,3,0,0,,0,,,72,127
161266,note_on,0,0,0,,4,,,64,127
161411,note_off,145,0,0,,0,,,72,127
161414,note_on,3,0,0,,2,,,74,127
161485,note_off,71,0,0,,2,,,74,127
161488,note_on,3,0,0,,4,,,76,127
161559,note_off,71,0,0,,4,,,76,127
161559,note_off,0,0,0,,4,,,64,127
161562,note_on,3,0,0,,2,,,74,127
161562,note_on,0,0,0,,0,,,60,127
161707,note_off,145,0,0,,2,,,74,127
161710,note_on,3,0,0,,0,,,72,127
161855,note_off,145,0,0,,0,,,72,127
161855,note_off,0,0,0,,0,,,60,127
161858,note_on,3,0,0,,7,,,79,127
161858,note_on,0,0,0,,7,,,55,127
162003,note_off,145,0,0,,7,,,79,127
162006,note_on,3,0,0,,12,,,71,127
162151,note_off,145,0,0,,12,,,71,127
162151,note_off,0,0,0,,7,,,55,127
162154,note_on,3,0,0,,0,,,72,127
162154,note_on,0,0,0,,4,,,52,127
162249,note_off,95,0,0,,0,,,72,127
162252,note_on,3,0,0,,2,,,74,127
162347,note_off,95,0,0,,2,,,74,127
162350,note_on,3,0,0,,4,,,76,127
162445,note_off,95,0,0,,4,,,76,127
162445,note_off,0,0,0,,4,,,52,127
162448,note_on,3,0,0,,2,,,74,127
162448,note_on,0,0,0,,0,,,48,127
162593,note_off,145,0,0,,2,,,74,127
162596,note_on,3,0,0,,0,,,72,127
162741,note_off,145,0,0,,0,,,72,127
162741,note_off,0,0,0,,0,,,48,127
162744,note_on,3,0,0,,2,,,74,127
162744,note_on,0,0,0,,12,,,47,127
162889,note_off,145,0,0,,2,,,74,127
162892,note_on,3,0,0,,7,,,67,127
163037,note_off,145,0,0,,7,,,67,127
163037,note_off,0,0,0,,12,,,47,127
163040,note_on,3,0,0,,5,,,77,127
163040,note_on,0,0,0,,7,,,43,127
163185,note_off,145,0,0,,5,,,77,127
163188,note_on,3,0,0,,7,,,67,127
163333,note_off,145,0,0,,7,,,67,127
163333,note_off,0,0,0,,7,,,43,127
163336,note_on,3,0,0,,4,,,76,127
163336,note_on,0,0,0,,0,,,48,127
163481,note_off,145,0,0,,4,,,76,127
163484,note_on,3,0,0,,7,,,67,127
163629,note_off,145,0,0,,7,,,67,127
163629,note_off,0,0,0,,0,,,48,127
163632,note_on,3,0,0,,5,,,65,127
163632,note_on,0,0,0,,5,,,53,127
163777,note_off,145,0,0,,5,,,65,127
163780,note_on,3,0,0,,2,,,74,127
163925,note_off,145,0,0,,2,,,74,127
163925,note_off,0,0,0,,5,,,53,127
163928,note_on,3,0,0,,4,,,64,127
163928,note_on,0,0,0,,7,,,55,127
164073,note_off,145,0,0,,4,,,64,127
164076,note_on,3,0,0,,0,,,72,127
164221,note_off,145,0,0,,0,,,72,127
164221,note_off,0,0,0,,7,,,55,127
164224,note_on,3,0,0,,2,,,62,127
164224,note_on,0,0,0,,7,,,43,127
164369,note_off,145,0,0,,2,,,62,127
164380,note_on,11,0,0,,12,,,71,127
164517,note_off,137,0,0,,7,,,43,127
164525,note_off,8,0,0,,12,,,71,127
164536,note_on,11,0,0,,0,,,48,127
164536,note_on,0,0,0,,0,,,72,127
164684,note_on,148,0,0,,7,,,67,127
164701,note_off,17,0,0,,0,,,72,127
164829,note_off,128,0,0,,7,,,67,127
164832,note_on,3,0,0,,4,,,64,127
164977,note_off,145,0,0,,4,,,64,127
164980,note_on,3,0,0,,0,,,60,127
165060,note_off,80,0,0,,0,,,48,127
165125,note_off,65,0,0,,0,,,60,127
165128,note_on,3,0,0,,12,,,47,127
165128,note_on,0,0,0,,2,,,62,127
165273,note_off,145,0,0,,2,,,62,127
165276,note_on,3,0,0,,12,,,71,127
165421,note_off,145,0,0,,12,,,71,127
165421,note_off,0,0,0,,12,,,47,127
165424,note_on,3,0,0,,0,,,48,127
165424,note_on,0,0,0,,4,,,76,127
165569,note_off,145,0,0,,4,,,76,127
165572,note_on,3,0,0,,0,,,72,127
165717,note_off,145,0,0,,0,,,72,127
165720,note_on,3,0,0,,7,,,67,127
165865,note_off,145,0,0,,7,,,67,127
165868,note_on,3,0,0,,4,,,64,127
166013,note_off,145,0,0,,4,,,64,127
166013,note_off,0,0,0,,0,,,48,127
166016,note_on,3,0,0,,2,,,50,127
166016,note_on,0,0,0,,5,,,65,127
166161,note_off,145,0,0,,5,,,65,127
166164,note_on,3,0,0,,5,,,77,127
166309,note_off,145,0,0,,5,,,77,127
166309,note_off,0,0,0,,2,,,50,127
166312,note_on,3,0,0,,4,,,52,127
166312,note_on,0,0,0,,7,,,79,127
166457,note_off,145,0,0,,7,,,79,127
166460,note_on,3,0,0,,4,,,76,127
166605,note_off,145,0,0,,4,,,76,127
166608,note_on,3,0,0,,0,,,72,127
166753,note_off,145,0,0,,0,,,72,127
166756,note_on,3,0,0,,7,,,67,127
166901,note_off,145,0,0,,7,,,67,127
166901,note_off,0,0,0,,4,,,52,127
166904,note_on,3,0,0,,5,,,53,127
166904,note_on,0,0,0,,10,,,69,127
167049,note_off,145,0,0,,10,,,69,127
167052,note_on,3,0,0,,10,,,81,127
167197,note_off,145,0,0,,10,,,81,127
167197,note_off,0,0,0,,5,,,53,127
167200,note_on,3,0,0,,7,,,55,127
167200,note_on,0,0,0,,7,,,79,127
167345,note_off,145,0,0,,7,,,79,127
167348,note_on,3,0,0,,5,,,77,127
167493,note_off,145,0,0,,5,,,77,127
167496,note_on,3,0,0,,4,,,76,127
167641,note_off,145,0,0,,4,,,76,127
167644,note_on,3,0,0,,2,,,74,127
167789,note_off,145,0,0,,2,,,74,127
167789,note_off,0,0,0,,7,,,55,127
167792,note_on,3,0,0,,7,,,43,127
167792,note_on,0,0,0,,0,,,72,127
167937,note_off,145,0,0,,0,,,72,127
167956,note_on,19,0,0,,12,,,71,127
168085,note_off,129,0,0,,7,,,43,127
168101,note_off,16,0,0,,12,,,71,127
168136,note_on,35,0,0,,0,,,72,127
168136,note_on,0,0,0,,0,,,48,127
169673,note_off,1537,0,0,,0,,,48,127
169673,note_off,0,0,0,,0,,,72,127
175104,end_of_track,5431,1,0,,,,,,
