tick,type,time,meta,track,program,channel,pitch,tempo,note,velocity
0,copyright,0,1,0,,,,,,
0,program_change,0,0,0,6,0,,,,
0,pitchwheel,0,0,0,,0,0,,,
0,program_change,0,0,0,6,1,,,,
0,pitchwheel,0,0,0,,1,-590,,,
0,program_change,0,0,0,6,2,,,,
0,pitchwheel,0,0,0,,2,-272,,,
0,program_change,0,0,0,6,3,,,,
0,pitchwheel,0,0,0,,3,-353,,,
0,program_change,0,0,0,6,4,,,,
0,pitchwheel,0,0,0,,4,-560,,,
0,program_change,0,0,0,6,5,,,,
0,pitchwheel,0,0,0,,5,-80,,,
0,program_change,0,0,0,6,6,,,,
0,pitchwheel,0,0,0,,6,-625,,,
0,program_change,0,0,0,6,7,,,,
0,pitchwheel,0,0,0,,7,-130,,,
0,program_change,0,0,0,6,8,,,,
0,pitchwheel,0,0,0,,8,-512,,,
0,program_change,0,0,0,6,10,,,,
0,pitchwheel,0,0,0,,10,-464,,,
0,program_change,0,0,0,6,11,,,,
0,pitchwheel,0,0,0,,11,-208,,,
0,program_change,0,0,0,6,12,,,,
0,pitchwheel,0,0,0,,12,-553,,,
0,set_tempo,0,1,0,,,,500000,,
213,note_on,213,0,0,,6,,,78,127
213,note_on,0,0,0,,2,,,74,127
317,note_off,104,0,0,,2,,,74,127
317,note_off,0,0,0,,6,,,78,127
319,note_on,2,0,0,,4,,,76,127
319,note_on,0,0,0,,7,,,79,127
423,note_off,104,0,0,,7,,,79,127
423,note_off,0,0,0,,4,,,76,127
425,note_on,2,0,0,,6,,,78,127
425,note_on,0,0,0,,10,,,81,127
636,note_off,211,0,0,,10,,,81,127
636,note_off,0,0,0,,6,,,78,127
638,note_on,2,0,0,,2,,,74,127
638,note_on,0,0,0,,6,,,78,127
849,note_off,211,0,0,,6,,,78,127
849,note_off,0,0,0,,2,,,74,127
851,note_on,2,0,0,,4,,,76,127
851,note_on,0,0,0,,10,,,69,127
1062,note_off,211,0,0,,10,,,69,127
1062,note_off,0,0,0,,4,,,76,127
1064,note_on,2,0,0,,6,,,66,127
1064,note_on,0,0,0,,2,,,74,127
1275,note_off,211,0,0,,2,,,74,127
1275,note_off,0,0,0,,6,,,66,127
1277,note_on,2,0,0,,10,,,69,127
1277,note_on,0,0,0,,4,,,76,127
1488,note_off,211,0,0,,4,,,76,127
1488,note_off,0,0,0,,10,,,69,127
1490,note_on,2,0,0,,6,,,78,127
1490,note_on,0,0,0,,2,,,74,127
1594,note_off,104,0,0,,2,,,74,127
1594,note_off,0,0,0,,6,,,78,127
1596,note_on,2,0,0,,4,,,76,127
1596,note_on,0,0,0,,7,,,79,127
1700,note_off,104,0,0,,7,,,79,127
1700,note_off,0,0,0,,4,,,76,127
1702,note_on,2,0,0,,10,,,81,127
1702,note_on,0,0,0,,6,,,78,127
1913,note_off,211,0,0,,6,,,78,127
1913,note_off,0,0,0,,10,,,81,127
1915,note_on,2,0,0,,7,,,79,127
1915,note_on,0,0,0,,4,,,76,127
2126,note_off,211,0,0,,4,,,76,127
2126,note_off,0,0,0,,7,,,79,127
2128,note_on,2,0,0,,2,,,74,127
2128,note_on,0,0,0,,6,,,78,127
2339,note_off,211,0,0,,6,,,78,127
2339,note_off,0,0,0,,2,,,74,127
2341,note_on,2,0,0,,4,,,76,127
2341,note_on,0,0,0,,10,,,69,127
2552,note_off,211,0,0,,10,,,69,127
2552,note_off,0,0,0,,4,,,76,127
2554,note_on,2,0,0,,2,,,74,127
2554,note_on,0,0,0,,6,,,66,127
2765,note_off,211,0,0,,6,,,66,127
2767,note_on,2,0,0,,2,,,62,127
2767,note_on,0,0,0,,6,,,66,127
2871,note_off,104,0,0,,6,,,66,127
2871,note_off,0,0,0,,2,,,62,127
2873,note_on,2,0,0,,7,,,67,127
2873,note_on,0,0,0,,4,,,64,127
2977,note_off,104,0,0,,4,,,64,127
2977,note_off,0,0,0,,7,,,67,127
2977,note_off,0,0,0,,2,,,74,127
2979,note_on,2,0,0,,12,,,83,127
2979,note_on,0,0,0,,10,,,69,127
2979,note_on,0,0,0,,6,,,66,127
3030,note_off,51,0,0,,12,,,83,127
3032,note_on,2,0,0,,10,,,81,127
3083,note_off,51,0,0,,10,,,81,127
3085,note_on,2,0,0,,12,,,83,127
3136,note_off,51,0,0,,12,,,83,127
3138,note_on,2,0,0,,10,,,81,127
3189,note_off,51,0,0,,6,,,66,127
3189,note_off,0,0,0,,10,,,69,127
3191,note_on,2,0,0,,2,,,62,127
3191,note_on,0,0,0,,6,,,66,127
3402,note_off,211,0,0,,6,,,66,127
3402,note_off,0,0,0,,2,,,62,127
3402,note_off,0,0,0,,10,,,81,127
3404,note_on,2,0,0,,12,,,83,127
3404,note_on,0,0,0,,10,,,57,127
3404,note_on,0,0,0,,4,,,64,127
3455,note_off,51,0,0,,12,,,83,127
3457,note_on,2,0,0,,10,,,81,127
3508,note_off,51,0,0,,10,,,81,127
3510,note_on,2,0,0,,12,,,83,127
3561,note_off,51,0,0,,12,,,83,127
3563,note_on,2,0,0,,10,,,81,127
3614,note_off,51,0,0,,4,,,64,127
3614,note_off,0,0,0,,10,,,57,127
3616,note_on,2,0,0,,2,,,62,127
3616,note_on,0,0,0,,6,,,54,127
3827,note_off,211,0,0,,6,,,54,127
3827,note_off,0,0,0,,2,,,62,127
3827,note_off,0,0,0,,10,,,81,127
3829,note_on,2,0,0,,12,,,83,127
3829,note_on,0,0,0,,4,,,64,127
3829,note_on,0,0,0,,10,,,57,127
3880,note_off,51,0,0,,12,,,83,127
3882,note_on,2,0,0,,10,,,81,127
3933,note_off,51,0,0,,10,,,81,127
3935,note_on,2,0,0,,12,,,83,127
3986,note_off,51,0,0,,12,,,83,127
3988,note_on,2,0,0,,10,,,81,127
4039,note_off,51,0,0,,10,,,57,127
4039,note_off,0,0,0,,4,,,64,127
4041,note_on,2,0,0,,2,,,62,127
4041,note_on,0,0,0,,6,,,66,127
4145,note_off,104,0,0,,6,,,66,127
4145,note_off,0,0,0,,2,,,62,127
4147,note_on,2,0,0,,4,,,64,127
4147,note_on,0,0,0,,7,,,67,127
4251,note_off,104,0,0,,7,,,67,127
4251,note_off,0,0,0,,4,,,64,127
4251,note_off,0,0,0,,10,,,81,127
4253,note_on,2,0,0,,12,,,83,127
4253,note_on,0,0,0,,10,,,69,127
4253,note_on,0,0,0,,6,,,66,127
4304,note_off,51,0,0,,12,,,83,127
4306,note_on,2,0,0,,10,,,81,127
4357,note_off,51,0,0,,10,,,81,127
4359,note_on,2,0,0,,12,,,83,127
4410,note_off,51,0,0,,12,,,83,127
4412,note_on,2,0,0,,10,,,81,127
4463,note_off,51,0,0,,6,,,66,127
4463,note_off,0,0,0,,10,,,69,127
4465,note_on,2,0,0,,7,,,67,127
4465,note_on,0,0,0,,4,,,64,127
4676,note_off,211,0,0,,4,,,64,127
4676,note_off,0,0,0,,7,,,67,127
4676,note_off,0,0,0,,10,,,81,127
4678,note_on,2,0,0,,12,,,83,127
4678,note_on,0,0,0,,2,,,62,127
4678,note_on,0,0,0,,6,,,66,127
4729,note_off,51,0,0,,12,,,83,127
4731,note_on,2,0,0,,10,,,81,127
4782,note_off,51,0,0,,10,,,81,127
4784,note_on,2,0,0,,12,,,83,127
4835,note_off,51,0,0,,12,,,83,127
4837,note_on,2,0,0,,10,,,81,127
4888,note_off,51,0,0,,6,,,66,127
4888,note_off,0,0,0,,2,,,62,127
4890,note_on,2,0,0,,4,,,64,127
4890,note_on,0,0,0,,10,,,57,127
5101,note_off,211,0,0,,10,,,57,127
5101,note_off,0,0,0,,4,,,64,127
5103,note_on,2,0,0,,6,,,54,127
5103,note_on,0,0,0,,2,,,62,127
5314,note_off,211,0,0,,6,,,54,127
5314,note_off,0,0,0,,10,,,81,127
5316,note_on,2,0,0,,10,,,81,127
5316,note_on,0,0,0,,2,,,50,127
5527,note_off,211,0,0,,2,,,50,127
5527,note_off,0,0,0,,10,,,81,127
5529,note_on,2,0,0,,7,,,79,127
5529,note_on,0,0,0,,4,,,52,127
5598,note_off,69,0,0,,7,,,79,127
5600,note_on,2,0,0,,6,,,78,127
5669,note_off,69,0,0,,6,,,78,127
5671,note_on,2,0,0,,4,,,76,127
5740,note_off,69,0,0,,4,,,76,127
5741,note_off,1,0,0,,2,,,62,127
5742,note_on,1,0,0,,7,,,79,127
5742,note_on,0,0,0,,1,,,61,127
5951,note_off,209,0,0,,4,,,52,127
5953,note_off,2,0,0,,7,,,79,127
5955,note_on,2,0,0,,6,,,78,127
5955,note_on,0,0,0,,6,,,54,127
6024,note_off,69,0,0,,6,,,78,127
6026,note_on,2,0,0,,4,,,76,127
6095,note_off,69,0,0,,4,,,76,127
6097,note_on,2,0,0,,2,,,74,127
6164,note_off,67,0,0,,1,,,61,127
6166,note_off,2,0,0,,2,,,74,127
6168,note_on,2,0,0,,6,,,78,127
6168,note_on,0,0,0,,2,,,62,127
6377,note_off,209,0,0,,6,,,54,127
6379,note_off,2,0,0,,6,,,78,127
6381,note_on,2,0,0,,4,,,76,127
6381,note_on,0,0,0,,7,,,55,127
6450,note_off,69,0,0,,4,,,76,127
6452,note_on,2,0,0,,2,,,74,127
6521,note_off,69,0,0,,2,,,74,127
6523,note_on,2,0,0,,1,,,73,127
6590,note_off,67,0,0,,2,,,62,127
6592,note_off,2,0,0,,1,,,73,127
6594,note_on,2,0,0,,4,,,76,127
6594,note_on,0,0,0,,4,,,64,127
6803,note_off,209,0,0,,7,,,55,127
6805,note_off,2,0,0,,4,,,76,127
6807,note_on,2,0,0,,2,,,74,127
6807,note_on,0,0,0,,8,,,56,127
6876,note_off,69,0,0,,2,,,74,127
6878,note_on,2,0,0,,1,,,73,127
6947,note_off,69,0,0,,1,,,73,127
6949,note_on,2,0,0,,12,,,71,127
7016,note_off,67,0,0,,4,,,64,127
7018,note_off,2,0,0,,12,,,71,127
7020,note_on,2,0,0,,2,,,74,127
7020,note_on,0,0,0,,6,,,66,127
7229,note_off,209,0,0,,8,,,56,127
7231,note_off,2,0,0,,6,,,66,127
7231,note_off,0,0,0,,2,,,74,127
7233,note_on,2,0,0,,1,,,73,127
7233,note_on,0,0,0,,4,,,64,127
7444,note_off,211,0,0,,4,,,64,127
7444,note_off,0,0,0,,1,,,73,127
7446,note_on,2,0,0,,4,,,76,127
7446,note_on,0,0,0,,2,,,62,127
7497,note_off,51,0,0,,4,,,76,127
7499,note_on,2,0,0,,2,,,74,127
7550,note_off,51,0,0,,2,,,74,127
7552,note_on,2,0,0,,1,,,73,127
7603,note_off,51,0,0,,1,,,73,127
7605,note_on,2,0,0,,2,,,74,127
7656,note_off,51,0,0,,2,,,74,127
7656,note_off,0,0,0,,2,,,62,127
7658,note_on,2,0,0,,4,,,76,127
7658,note_on,0,0,0,,10,,,57,127
7658,note_on,0,0,0,,1,,,61,127
7762,note_off,104,0,0,,4,,,76,127
7764,note_on,2,0,0,,10,,,81,127
7868,note_off,104,0,0,,10,,,81,127
7870,note_on,2,0,0,,10,,,81,127
7974,note_off,104,0,0,,10,,,81,127
7976,note_on,2,0,0,,8,,,80,127
8080,note_off,104,0,0,,8,,,80,127
8082,note_on,2,0,0,,8,,,80,127
8186,note_off,104,0,0,,8,,,80,127
8188,note_on,2,0,0,,10,,,81,127
8292,note_off,104,0,0,,10,,,81,127
8292,note_off,0,0,0,,1,,,61,127
8292,note_off,0,0,0,,10,,,57,127
8294,note_on,2,0,0,,10,,,81,127
8294,note_on,0,0,0,,10,,,57,127
8398,note_off,104,0,0,,10,,,81,127
8400,note_on,2,0,0,,8,,,80,127
8504,note_off,104,0,0,,8,,,80,127
8504,note_off,0,0,0,,10,,,57,127
8506,note_on,2,0,0,,8,,,80,127
8506,note_on,0,0,0,,12,,,59,127
8610,note_off,104,0,0,,8,,,80,127
8612,note_on,2,0,0,,6,,,78,127
8716,note_off,104,0,0,,6,,,78,127
8716,note_off,0,0,0,,12,,,59,127
8718,note_on,2,0,0,,4,,,76,127
8718,note_on,0,0,0,,1,,,61,127
8822,note_off,104,0,0,,4,,,76,127
8824,note_on,2,0,0,,2,,,74,127
8928,note_off,104,0,0,,2,,,74,127
8928,note_off,0,0,0,,1,,,61,127
8930,note_on,2,0,0,,4,,,76,127
8930,note_on,0,0,0,,2,,,50,127
9034,note_off,104,0,0,,4,,,76,127
9036,note_on,2,0,0,,6,,,78,127
9140,note_off,104,0,0,,6,,,78,127
9140,note_off,0,0,0,,2,,,50,127
9142,note_on,2,0,0,,6,,,78,127
9142,note_on,0,0,0,,2,,,62,127
9246,note_off,104,0,0,,6,,,78,127
9248,note_on,2,0,0,,4,,,76,127
9352,note_off,104,0,0,,4,,,76,127
9354,note_on,2,0,0,,4,,,76,127
9458,note_off,104,0,0,,4,,,76,127
9460,note_on,2,0,0,,6,,,78,127
9564,note_off,104,0,0,,6,,,78,127
9564,note_off,0,0,0,,2,,,62,127
9566,note_on,2,0,0,,6,,,78,127
9566,note_on,0,0,0,,2,,,62,127
9670,note_off,104,0,0,,6,,,78,127
9672,note_on,2,0,0,,4,,,76,127
9776,note_off,104,0,0,,4,,,76,127
9776,note_off,0,0,0,,2,,,62,127
9778,note_on,2,0,0,,4,,,76,127
9778,note_on,0,0,0,,1,,,61,127
9882,note_off,104,0,0,,4,,,76,127
9884,note_on,2,0,0,,2,,,74,127
9988,note_off,104,0,0,,2,,,74,127
9988,note_off,0,0,0,,1,,,61,127
9990,note_on,2,0,0,,2,,,74,127
9990,note_on,0,0,0,,10,,,57,127
10094,note_off,104,0,0,,2,,,74,127
10096,note_on,2,0,0,,1,,,73,127
10200,note_off,104,0,0,,1,,,73,127
10200,note_off,0,0,0,,10,,,57,127
10202,note_on,2,0,0,,1,,,73,127
10202,note_on,0,0,0,,12,,,47,127
10306,note_off,104,0,0,,1,,,73,127
10308,note_on,2,0,0,,2,,,74,127
10412,note_off,104,0,0,,2,,,74,127
10412,note_off,0,0,0,,12,,,47,127
10414,note_on,2,0,0,,2,,,74,127
10414,note_on,0,0,0,,12,,,59,127
10518,note_off,104,0,0,,2,,,74,127
10520,note_on,2,0,0,,1,,,73,127
10624,note_off,104,0,0,,1,,,73,127
10626,note_on,2,0,0,,1,,,73,127
10730,note_off,104,0,0,,1,,,73,127
10732,note_on,2,0,0,,2,,,74,127
10836,note_off,104,0,0,,2,,,74,127
10836,note_off,0,0,0,,12,,,59,127
10838,note_on,2,0,0,,2,,,74,127
10838,note_on,0,0,0,,8,,,56,127
10942,note_off,104,0,0,,2,,,74,127
10944,note_on,2,0,0,,1,,,73,127
11048,note_off,104,0,0,,1,,,73,127
11048,note_off,0,0,0,,8,,,56,127
11050,note_on,2,0,0,,1,,,73,127
11050,note_on,0,0,0,,10,,,57,127
11154,note_off,104,0,0,,1,,,73,127
11156,note_on,2,0,0,,12,,,71,127
11260,note_off,104,0,0,,12,,,71,127
11262,note_on,2,0,0,,12,,,71,127
11262,note_on,0,0,0,,10,,,45,127
11366,note_off,104,0,0,,12,,,71,127
11368,note_on,2,0,0,,10,,,69,127
11470,note_off,102,0,0,,10,,,57,127
11472,note_off,2,0,0,,10,,,69,127
11472,note_off,0,0,0,,10,,,45,127
11474,note_on,2,0,0,,12,,,71,127
11474,note_on,0,0,0,,4,,,52,127
11578,note_off,104,0,0,,4,,,52,127
11580,note_on,2,0,0,,4,,,64,127
11684,note_off,104,0,0,,4,,,64,127
11686,note_on,2,0,0,,4,,,64,127
11790,note_off,104,0,0,,4,,,64,127
11792,note_on,2,0,0,,3,,,63,127
11896,note_off,104,0,0,,3,,,63,127
11898,note_on,2,0,0,,3,,,63,127
12002,note_off,104,0,0,,3,,,63,127
12004,note_off,2,0,0,,12,,,71,127
12004,note_on,0,0,0,,4,,,64,127
12108,note_off,104,0,0,,4,,,64,127
12110,note_on,2,0,0,,12,,,71,127
12110,note_on,0,0,0,,4,,,64,127
12214,note_off,104,0,0,,4,,,64,127
12216,note_on,2,0,0,,2,,,62,127
12320,note_off,104,0,0,,2,,,62,127
12320,note_off,0,0,0,,12,,,71,127
12322,note_on,2,0,0,,1,,,73,127
12322,note_on,0,0,0,,2,,,62,127
12426,note_off,104,0,0,,2,,,62,127
12428,note_on,2,0,0,,1,,,61,127
12532,note_off,104,0,0,,1,,,61,127
12532,note_off,0,0,0,,1,,,73,127
12534,note_on,2,0,0,,2,,,74,127
12534,note_on,0,0,0,,1,,,61,127
12638,note_off,104,0,0,,1,,,61,127
12640,note_on,2,0,0,,12,,,59,127
12744,note_off,104,0,0,,12,,,59,127
12744,note_off,0,0,0,,2,,,74,127
12746,note_on,2,0,0,,4,,,76,127
12746,note_on,0,0,0,,1,,,49,127
12850,note_off,104,0,0,,1,,,49,127
12852,note_on,2,0,0,,1,,,61,127
12956,note_off,104,0,0,,1,,,61,127
12958,note_on,2,0,0,,1,,,61,127
13062,note_off,104,0,0,,1,,,61,127
13064,note_on,2,0,0,,12,,,59,127
13168,note_off,104,0,0,,12,,,59,127
13170,note_on,2,0,0,,12,,,59,127
13274,note_off,104,0,0,,12,,,59,127
13276,note_off,2,0,0,,4,,,76,127
13276,note_on,0,0,0,,1,,,61,127
13380,note_off,104,0,0,,1,,,61,127
13382,note_on,2,0,0,,4,,,76,127
13382,note_on,0,0,0,,1,,,61,127
13486,note_off,104,0,0,,1,,,61,127
13488,note_on,2,0,0,,12,,,59,127
13592,note_off,104,0,0,,12,,,59,127
13592,note_off,0,0,0,,4,,,76,127
13594,note_on,2,0,0,,2,,,74,127
13594,note_on,0,0,0,,12,,,59,127
13698,note_off,104,0,0,,12,,,59,127
13700,note_on,2,0,0,,10,,,57,127
13804,note_off,104,0,0,,10,,,57,127
13804,note_off,0,0,0,,2,,,74,127
13806,note_on,2,0,0,,1,,,73,127
13806,note_on,0,0,0,,10,,,57,127
13910,note_off,104,0,0,,10,,,57,127
13910,note_off,0,0,0,,1,,,73,127
13912,note_on,2,0,0,,12,,,71,127
13912,note_on,0,0,0,,8,,,56,127
14016,note_off,104,0,0,,8,,,56,127
14016,note_off,0,0,0,,12,,,71,127
14018,note_on,2,0,0,,1,,,73,127
14018,note_on,0,0,0,,10,,,45,127
14122,note_off,104,0,0,,1,,,73,127
14124,note_on,2,0,0,,10,,,81,127
14228,note_off,104,0,0,,10,,,81,127
14230,note_on,2,0,0,,10,,,81,127
14334,note_off,104,0,0,,10,,,81,127
14336,note_on,2,0,0,,8,,,80,127
14440,note_off,104,0,0,,8,,,80,127
14440,note_off,0,0,0,,10,,,45,127
14442,note_on,2,0,0,,8,,,80,127
14442,note_on,0,0,0,,10,,,57,127
14546,note_off,104,0,0,,8,,,80,127
14548,note_on,2,0,0,,10,,,81,127
14652,note_off,104,0,0,,10,,,81,127
14654,note_on,2,0,0,,10,,,81,127
14758,note_off,104,0,0,,10,,,81,127
14760,note_on,2,0,0,,1,,,73,127
14864,note_off,104,0,0,,1,,,73,127
14864,note_off,0,0,0,,10,,,57,127
14866,note_on,2,0,0,,1,,,73,127
14866,note_on,0,0,0,,7,,,55,127
14970,note_off,104,0,0,,1,,,73,127
14972,note_on,2,0,0,,2,,,74,127
15076,note_off,104,0,0,,2,,,74,127
15078,note_on,2,0,0,,2,,,74,127
15182,note_off,104,0,0,,2,,,74,127
15184,note_on,2,0,0,,1,,,73,127
15288,note_off,104,0,0,,1,,,73,127
15288,note_off,0,0,0,,7,,,55,127
15290,note_on,2,0,0,,2,,,74,127
15290,note_on,0,0,0,,6,,,54,127
15394,note_off,104,0,0,,2,,,74,127
15396,note_on,2,0,0,,10,,,81,127
15500,note_off,104,0,0,,10,,,81,127
15502,note_on,2,0,0,,10,,,81,127
15606,note_off,104,0,0,,10,,,81,127
15608,note_on,2,0,0,,8,,,80,127
15712,note_off,104,0,0,,8,,,80,127
15712,note_off,0,0,0,,6,,,54,127
15714,note_on,2,0,0,,8,,,80,127
15714,note_on,0,0,0,,12,,,59,127
15818,note_off,104,0,0,,8,,,80,127
15820,note_on,2,0,0,,10,,,81,127
15924,note_off,104,0,0,,10,,,81,127
15926,note_on,2,0,0,,10,,,81,127
16030,note_off,104,0,0,,10,,,81,127
16032,note_on,2,0,0,,3,,,75,127
16136,note_off,104,0,0,,3,,,75,127
16136,note_off,0,0,0,,12,,,59,127
16138,note_on,2,0,0,,3,,,75,127
16138,note_on,0,0,0,,10,,,57,127
16242,note_off,104,0,0,,3,,,75,127
16244,note_on,2,0,0,,4,,,76,127
16348,note_off,104,0,0,,4,,,76,127
16350,note_on,2,0,0,,4,,,76,127
16454,note_off,104,0,0,,4,,,76,127
16456,note_on,2,0,0,,3,,,75,127
16560,note_off,104,0,0,,3,,,75,127
16560,note_off,0,0,0,,10,,,57,127
16562,note_on,2,0,0,,4,,,76,127
16562,note_on,0,0,0,,8,,,56,127
16666,note_off,104,0,0,,4,,,76,127
16668,note_on,2,0,0,,12,,,83,127
16772,note_off,104,0,0,,12,,,83,127
16774,note_on,2,0,0,,12,,,83,127
16878,note_off,104,0,0,,12,,,83,127
16880,note_on,2,0,0,,10,,,81,127
16984,note_off,104,0,0,,10,,,81,127
16984,note_off,0,0,0,,8,,,56,127
16986,note_on,2,0,0,,10,,,81,127
16986,note_on,0,0,0,,4,,,52,127
17090,note_off,104,0,0,,10,,,81,127
17092,note_on,2,0,0,,8,,,80,127
17196,note_off,104,0,0,,8,,,80,127
17198,note_on,2,0,0,,8,,,80,127
17302,note_off,104,0,0,,8,,,80,127
17304,note_on,2,0,0,,6,,,78,127
17408,note_off,104,0,0,,6,,,78,127
17408,note_off,0,0,0,,4,,,52,127
17410,note_on,2,0,0,,6,,,78,127
17410,note_on,0,0,0,,8,,,56,127
17514,note_off,104,0,0,,6,,,78,127
17516,note_on,2,0,0,,4,,,76,127
17620,note_off,104,0,0,,4,,,76,127
17622,note_on,2,0,0,,4,,,76,127
17726,note_off,104,0,0,,4,,,76,127
17728,note_on,2,0,0,,2,,,74,127
17832,note_off,104,0,0,,2,,,74,127
17832,note_off,0,0,0,,8,,,56,127
17834,note_on,2,0,0,,10,,,81,127
17834,note_on,0,0,0,,1,,,73,127
17834,note_on,0,0,0,,10,,,45,127
17941,note_on,107,0,0,,10,,,57,127
17994,note_off,53,0,0,,10,,,45,127
18045,note_off,51,0,0,,10,,,57,127
18047,note_on,2,0,0,,10,,,57,127
18151,note_off,104,0,0,,10,,,57,127
18153,note_on,2,0,0,,8,,,56,127
18257,note_off,104,0,0,,8,,,56,127
18257,note_off,0,0,0,,1,,,73,127
18257,note_off,0,0,0,,10,,,81,127
18259,note_on,2,0,0,,10,,,81,127
18259,note_on,0,0,0,,1,,,73,127
18259,note_on,0,0,0,,8,,,56,127
18363,note_off,104,0,0,,8,,,56,127
18365,note_on,2,0,0,,10,,,57,127
18469,note_off,104,0,0,,10,,,57,127
18471,note_on,2,0,0,,10,,,57,127
18575,note_off,104,0,0,,10,,,57,127
18577,note_on,2,0,0,,8,,,56,127
18681,note_off,104,0,0,,8,,,56,127
18681,note_off,0,0,0,,1,,,73,127
18681,note_off,0,0,0,,10,,,81,127
18683,note_on,2,0,0,,1,,,73,127
18683,note_on,0,0,0,,10,,,81,127
18683,note_on,0,0,0,,8,,,56,127
18787,note_off,104,0,0,,8,,,56,127
18789,note_on,2,0,0,,6,,,54,127
18893,note_off,104,0,0,,6,,,54,127
18895,note_on,2,0,0,,6,,,54,127
18999,note_off,104,0,0,,6,,,54,127
19001,note_on,2,0,0,,4,,,52,127
19105,note_off,104,0,0,,4,,,52,127
19105,note_off,0,0,0,,10,,,81,127
19105,note_off,0,0,0,,1,,,73,127
19107,note_on,2,0,0,,10,,,81,127
19107,note_on,0,0,0,,10,,,69,127
19107,note_on,0,0,0,,6,,,42,127
19214,note_on,107,0,0,,6,,,54,127
19267,note_off,53,0,0,,6,,,42,127
19318,note_off,51,0,0,,6,,,54,127
19320,note_on,2,0,0,,6,,,54,127
19424,note_off,104,0,0,,6,,,54,127
19426,note_on,2,0,0,,4,,,52,127
19530,note_off,104,0,0,,4,,,52,127
19530,note_off,0,0,0,,10,,,69,127
19530,note_off,0,0,0,,10,,,81,127
19532,note_on,2,0,0,,10,,,69,127
19532,note_on,0,0,0,,10,,,81,127
19532,note_on,0,0,0,,4,,,52,127
19636,note_off,104,0,0,,4,,,52,127
19638,note_on,2,0,0,,6,,,54,127
19742,note_off,104,0,0,,6,,,54,127
19744,note_on,2,0,0,,6,,,54,127
19848,note_off,104,0,0,,6,,,54,127
19850,note_on,2,0,0,,4,,,52,127
19954,note_off,104,0,0,,4,,,52,127
19954,note_off,0,0,0,,10,,,81,127
19954,note_off,0,0,0,,10,,,69,127
19956,note_on,2,0,0,,10,,,69,127
19956,note_on,0,0,0,,10,,,81,127
19956,note_on,0,0,0,,4,,,52,127
20060,note_off,104,0,0,,4,,,52,127
20062,note_on,2,0,0,,2,,,50,127
20166,note_off,104,0,0,,2,,,50,127
20168,note_on,2,0,0,,2,,,50,127
20272,note_off,104,0,0,,2,,,50,127
20274,note_on,2,0,0,,1,,,49,127
20378,note_off,104,0,0,,1,,,49,127
20378,note_off,0,0,0,,10,,,81,127
20378,note_off,0,0,0,,10,,,69,127
20380,note_on,2,0,0,,6,,,78,127
20380,note_on,0,0,0,,10,,,69,127
20380,note_on,0,0,0,,2,,,38,127
20487,note_on,107,0,0,,2,,,50,127
20540,note_off,53,0,0,,2,,,38,127
20591,note_off,51,0,0,,2,,,50,127
20593,note_on,2,0,0,,2,,,50,127
20697,note_off,104,0,0,,2,,,50,127
20699,note_on,2,0,0,,1,,,49,127
20803,note_off,104,0,0,,1,,,49,127
20803,note_off,0,0,0,,10,,,69,127
20803,note_off,0,0,0,,6,,,78,127
20805,note_on,2,0,0,,10,,,69,127
20805,note_on,0,0,0,,6,,,78,127
20805,note_on,0,0,0,,1,,,49,127
20909,note_off,104,0,0,,1,,,49,127
20911,note_on,2,0,0,,2,,,50,127
21015,note_off,104,0,0,,2,,,50,127
21017,note_on,2,0,0,,2,,,50,127
21121,note_off,104,0,0,,2,,,50,127
21123,note_on,2,0,0,,1,,,49,127
21227,note_off,104,0,0,,1,,,49,127
21229,note_on,2,0,0,,1,,,49,127
21333,note_off,104,0,0,,1,,,49,127
21333,note_off,0,0,0,,6,,,78,127
21333,note_off,0,0,0,,10,,,69,127
21335,note_on,2,0,0,,4,,,76,127
21335,note_on,0,0,0,,12,,,47,127
21439,note_off,104,0,0,,12,,,47,127
21439,note_off,0,0,0,,4,,,76,127
21441,note_on,2,0,0,,2,,,74,127
21441,note_on,0,0,0,,12,,,47,127
21545,note_off,104,0,0,,12,,,47,127
21545,note_off,0,0,0,,2,,,74,127
21547,note_on,2,0,0,,1,,,73,127
21547,note_on,0,0,0,,10,,,45,127
21651,note_off,104,0,0,,10,,,45,127
21651,note_off,0,0,0,,1,,,73,127
21653,note_on,2,0,0,,12,,,71,127
21653,note_on,0,0,0,,12,,,47,127
21757,note_off,104,0,0,,12,,,71,127
21759,note_on,2,0,0,,1,,,73,127
21863,note_off,104,0,0,,1,,,73,127
21865,note_on,2,0,0,,1,,,73,127
21969,note_off,104,0,0,,1,,,73,127
21971,note_on,2,0,0,,2,,,74,127
22075,note_off,104,0,0,,2,,,74,127
22075,note_off,0,0,0,,12,,,47,127
22077,note_on,2,0,0,,1,,,73,127
22077,note_on,0,0,0,,12,,,59,127
22181,note_off,104,0,0,,1,,,73,127
22183,note_on,2,0,0,,2,,,74,127
22287,note_off,104,0,0,,2,,,74,127
22289,note_on,2,0,0,,2,,,74,127
22393,note_off,104,0,0,,2,,,74,127
22395,note_on,2,0,0,,1,,,73,127
22499,note_off,104,0,0,,1,,,73,127
22499,note_off,0,0,0,,12,,,59,127
22501,note_on,2,0,0,,2,,,74,127
22501,note_on,0,0,0,,10,,,57,127
22605,note_off,104,0,0,,2,,,74,127
22607,note_on,2,0,0,,4,,,76,127
22711,note_off,104,0,0,,4,,,76,127
22713,note_on,2,0,0,,4,,,76,127
22817,note_off,104,0,0,,4,,,76,127
22819,note_on,2,0,0,,3,,,75,127
22923,note_off,104,0,0,,3,,,75,127
22923,note_off,0,0,0,,10,,,57,127
22925,note_on,2,0,0,,4,,,76,127
22925,note_on,0,0,0,,8,,,56,127
23029,note_off,104,0,0,,4,,,76,127
23031,note_on,2,0,0,,12,,,83,127
23135,note_off,104,0,0,,12,,,83,127
23137,note_on,2,0,0,,12,,,83,127
23241,note_off,104,0,0,,12,,,83,127
23243,note_on,2,0,0,,10,,,81,127
23347,note_off,104,0,0,,10,,,81,127
23347,note_off,0,0,0,,8,,,56,127
23349,note_on,2,0,0,,10,,,81,127
23349,note_on,0,0,0,,4,,,52,127
23453,note_off,104,0,0,,10,,,81,127
23455,note_on,2,0,0,,8,,,80,127
23559,note_off,104,0,0,,8,,,80,127
23561,note_on,2,0,0,,8,,,80,127
23665,note_off,104,0,0,,8,,,80,127
23667,note_on,2,0,0,,6,,,78,127
23771,note_off,104,0,0,,6,,,78,127
23771,note_off,0,0,0,,4,,,52,127
23773,note_on,2,0,0,,6,,,78,127
23773,note_on,0,0,0,,8,,,56,127
23877,note_off,104,0,0,,6,,,78,127
23879,note_on,2,0,0,,4,,,76,127
23983,note_off,104,0,0,,4,,,76,127
23985,note_on,2,0,0,,4,,,76,127
24089,note_off,104,0,0,,4,,,76,127
24091,note_on,2,0,0,,2,,,74,127
24195,note_off,104,0,0,,2,,,74,127
24195,note_off,0,0,0,,8,,,56,127
24197,note_on,2,0,0,,1,,,73,127
24197,note_on,0,0,0,,10,,,57,127
24301,note_off,104,0,0,,1,,,73,127
24303,note_on,2,0,0,,10,,,69,127
24407,note_off,104,0,0,,10,,,69,127
24409,note_on,2,0,0,,10,,,69,127
24513,note_off,104,0,0,,10,,,69,127
24515,note_on,2,0,0,,8,,,68,127
24619,note_off,104,0,0,,8,,,68,127
24621,note_on,2,0,0,,8,,,68,127
24725,note_off,104,0,0,,8,,,68,127
24727,note_on,2,0,0,,10,,,69,127
24831,note_off,104,0,0,,10,,,69,127
24831,note_off,0,0,0,,10,,,57,127
24833,note_on,2,0,0,,10,,,69,127
24833,note_on,0,0,0,,8,,,56,127
24937,note_off,104,0,0,,10,,,69,127
24939,note_on,2,0,0,,8,,,68,127
25043,note_off,104,0,0,,8,,,68,127
25043,note_off,0,0,0,,8,,,56,127
25045,note_on,2,0,0,,8,,,68,127
25045,note_on,0,0,0,,6,,,54,127
25149,note_off,104,0,0,,8,,,68,127
25151,note_on,2,0,0,,10,,,69,127
25255,note_off,104,0,0,,10,,,69,127
25255,note_off,0,0,0,,6,,,54,127
25257,note_on,2,0,0,,10,,,69,127
25257,note_on,0,0,0,,4,,,52,127
25361,note_off,104,0,0,,10,,,69,127
25363,note_on,2,0,0,,8,,,68,127
25467,note_off,104,0,0,,8,,,68,127
25467,note_off,0,0,0,,4,,,52,127
25469,note_on,2,0,0,,10,,,69,127
25469,note_on,0,0,0,,2,,,50,127
25573,note_off,104,0,0,,10,,,69,127
25575,note_on,2,0,0,,12,,,71,127
25679,note_off,104,0,0,,12,,,71,127
25679,note_off,0,0,0,,2,,,50,127
25681,note_on,2,0,0,,12,,,71,127
25681,note_on,0,0,0,,1,,,49,127
25785,note_off,104,0,0,,12,,,71,127
25787,note_on,2,0,0,,11,,,70,127
25891,note_off,104,0,0,,11,,,70,127
25891,note_off,0,0,0,,1,,,49,127
25893,note_on,2,0,0,,11,,,70,127
25893,note_on,0,0,0,,12,,,47,127
25997,note_off,104,0,0,,11,,,70,127
25999,note_on,2,0,0,,12,,,71,127
26103,note_off,104,0,0,,12,,,71,127
26103,note_off,0,0,0,,12,,,47,127
26105,note_on,2,0,0,,12,,,71,127
26105,note_on,0,0,0,,10,,,45,127
26209,note_off,104,0,0,,12,,,71,127
26211,note_on,2,0,0,,1,,,73,127
26315,note_off,104,0,0,,1,,,73,127
26315,note_off,0,0,0,,10,,,45,127
26317,note_on,2,0,0,,2,,,74,127
26317,note_on,0,0,0,,8,,,44,127
26421,note_off,104,0,0,,2,,,74,127
26423,note_on,2,0,0,,4,,,76,127
26527,note_off,104,0,0,,4,,,76,127
26527,note_off,0,0,0,,8,,,44,127
26529,note_on,2,0,0,,6,,,78,127
26529,note_on,0,0,0,,4,,,40,127
26633,note_off,104,0,0,,6,,,78,127
26635,note_on,2,0,0,,2,,,74,127
26739,note_off,104,0,0,,2,,,74,127
26739,note_off,0,0,0,,4,,,40,127
26741,note_on,2,0,0,,1,,,73,127
26741,note_on,0,0,0,,10,,,45,127
26952,note_off,211,0,0,,10,,,45,127
26952,note_off,0,0,0,,1,,,73,127
26954,note_on,2,0,0,,12,,,71,127
26954,note_on,0,0,0,,2,,,50,127
27058,note_off,104,0,0,,12,,,71,127
27060,note_on,2,0,0,,10,,,69,127
27164,note_off,104,0,0,,10,,,69,127
27164,note_off,0,0,0,,2,,,50,127
27166,note_on,2,0,0,,10,,,69,127
27166,note_on,0,0,0,,4,,,52,127
27324,note_off,158,0,0,,10,,,69,127
27326,note_on,2,0,0,,12,,,71,127
27377,note_off,51,0,0,,12,,,71,127
27379,note_on,2,0,0,,10,,,69,127
27430,note_off,51,0,0,,10,,,69,127
27432,note_on,2,0,0,,8,,,68,127
27483,note_off,51,0,0,,8,,,68,127
27485,note_on,2,0,0,,10,,,69,127
27536,note_off,51,0,0,,10,,,69,127
27538,note_on,2,0,0,,12,,,71,127
27589,note_off,51,0,0,,12,,,71,127
27591,note_on,2,0,0,,1,,,73,127
27591,note_on,0,0,0,,4,,,40,127
27642,note_off,51,0,0,,1,,,73,127
27644,note_on,2,0,0,,12,,,71,127
27695,note_off,51,0,0,,12,,,71,127
27697,note_on,2,0,0,,1,,,73,127
27748,note_off,51,0,0,,1,,,73,127
27750,note_on,2,0,0,,12,,,71,127
27801,note_off,51,0,0,,12,,,71,127
27803,note_on,2,0,0,,1,,,73,127
27854,note_off,51,0,0,,1,,,73,127
27856,note_on,2,0,0,,12,,,71,127
27907,note_off,51,0,0,,12,,,71,127
27909,note_on,2,0,0,,10,,,69,127
28013,note_off,104,0,0,,10,,,69,127
28013,note_off,0,0,0,,4,,,40,127
28014,note_off,1,0,0,,4,,,52,127
28015,note_on,1,0,0,,10,,,69,127
28015,note_on,0,0,0,,10,,,45,127
28119,note_off,104,0,0,,10,,,69,127
28121,note_on,2,0,0,,10,,,69,127
28225,note_off,104,0,0,,10,,,69,127
28225,note_off,0,0,0,,10,,,45,127
28227,note_on,2,0,0,,10,,,69,127
28227,note_on,0,0,0,,10,,,57,127
28331,note_off,104,0,0,,10,,,69,127
28333,note_on,2,0,0,,8,,,68,127
28437,note_off,104,0,0,,8,,,68,127
28439,note_on,2,0,0,,8,,,68,127
28543,note_off,104,0,0,,8,,,68,127
28545,note_on,2,0,0,,10,,,69,127
28649,note_off,104,0,0,,10,,,69,127
28649,note_off,0,0,0,,10,,,57,127
28651,note_on,2,0,0,,10,,,69,127
28651,note_on,0,0,0,,8,,,56,127
28755,note_off,104,0,0,,10,,,69,127
28757,note_on,2,0,0,,8,,,68,127
28861,note_off,104,0,0,,8,,,68,127
28861,note_off,0,0,0,,8,,,56,127
28863,note_on,2,0,0,,8,,,68,127
28863,note_on,0,0,0,,6,,,54,127
28967,note_off,104,0,0,,8,,,68,127
28969,note_on,2,0,0,,10,,,69,127
29073,note_off,104,0,0,,10,,,69,127
29073,note_off,0,0,0,,6,,,54,127
29075,note_on,2,0,0,,10,,,69,127
29075,note_on,0,0,0,,4,,,52,127
29179,note_off,104,0,0,,10,,,69,127
29181,note_on,2,0,0,,8,,,68,127
29285,note_off,104,0,0,,8,,,68,127
29285,note_off,0,0,0,,4,,,52,127
29287,note_on,2,0,0,,10,,,69,127
29287,note_on,0,0,0,,2,,,50,127
29391,note_off,104,0,0,,10,,,69,127
29393,note_on,2,0,0,,12,,,71,127
29497,note_off,104,0,0,,12,,,71,127
29497,note_off,0,0,0,,2,,,50,127
29499,note_on,2,0,0,,12,,,71,127
29499,note_on,0,0,0,,1,,,49,127
29603,note_off,104,0,0,,12,,,71,127
29605,note_on,2,0,0,,11,,,70,127
29709,note_off,104,0,0,,11,,,70,127
29709,note_off,0,0,0,,1,,,49,127
29711,note_on,2,0,0,,11,,,70,127
29711,note_on,0,0,0,,12,,,47,127
29815,note_off,104,0,0,,11,,,70,127
29817,note_on,2,0,0,,12,,,71,127
29921,note_off,104,0,0,,12,,,71,127
29921,note_off,0,0,0,,12,,,47,127
29923,note_on,2,0,0,,12,,,71,127
29923,note_on,0,0,0,,10,,,45,127
30027,note_off,104,0,0,,12,,,71,127
30029,note_on,2,0,0,,1,,,73,127
30133,note_off,104,0,0,,1,,,73,127
30133,note_off,0,0,0,,10,,,45,127
30135,note_on,2,0,0,,2,,,74,127
30135,note_on,0,0,0,,8,,,44,127
30239,note_off,104,0,0,,2,,,74,127
30241,note_on,2,0,0,,4,,,76,127
30345,note_off,104,0,0,,4,,,76,127
30345,note_off,0,0,0,,8,,,44,127
30347,note_on,2,0,0,,6,,,78,127
30347,note_on,0,0,0,,4,,,40,127
30451,note_off,104,0,0,,6,,,78,127
30453,note_on,2,0,0,,2,,,74,127
30557,note_off,104,0,0,,2,,,74,127
30557,note_off,0,0,0,,4,,,40,127
30559,note_on,2,0,0,,1,,,73,127
30559,note_on,0,0,0,,10,,,45,127
30770,note_off,211,0,0,,10,,,45,127
30770,note_off,0,0,0,,1,,,73,127
30772,note_on,2,0,0,,12,,,71,127
30772,note_on,0,0,0,,2,,,50,127
30876,note_off,104,0,0,,12,,,71,127
30878,note_on,2,0,0,,10,,,69,127
30982,note_off,104,0,0,,10,,,69,127
30982,note_off,0,0,0,,2,,,50,127
30984,note_on,2,0,0,,10,,,69,127
30984,note_on,0,0,0,,4,,,52,127
31142,note_off,158,0,0,,10,,,69,127
31144,note_on,2,0,0,,12,,,71,127
31195,note_off,51,0,0,,12,,,71,127
31197,note_on,2,0,0,,10,,,69,127
31248,note_off,51,0,0,,10,,,69,127
31250,note_on,2,0,0,,8,,,68,127
31301,note_off,51,0,0,,8,,,68,127
31303,note_on,2,0,0,,10,,,69,127
31354,note_off,51,0,0,,10,,,69,127
31356,note_on,2,0,0,,12,,,71,127
31407,note_off,51,0,0,,12,,,71,127
31409,note_on,2,0,0,,1,,,73,127
31409,note_on,0,0,0,,4,,,40,127
31460,note_off,51,0,0,,1,,,73,127
31462,note_on,2,0,0,,12,,,71,127
31513,note_off,51,0,0,,12,,,71,127
31515,note_on,2,0,0,,1,,,73,127
31566,note_off,51,0,0,,1,,,73,127
31568,note_on,2,0,0,,12,,,71,127
31619,note_off,51,0,0,,12,,,71,127
31621,note_on,2,0,0,,1,,,73,127
31672,note_off,51,0,0,,1,,,73,127
31674,note_on,2,0,0,,12,,,71,127
31725,note_off,51,0,0,,12,,,71,127
31727,note_on,2,0,0,,10,,,69,127
31831,note_off,104,0,0,,10,,,69,127
31831,note_off,0,0,0,,4,,,40,127
31832,note_off,1,0,0,,4,,,52,127
31833,note_on,1,0,0,,10,,,69,127
31833,note_on,0,0,0,,10,,,45,127
31937,note_off,104,0,0,,10,,,69,127
31939,note_on,2,0,0,,10,,,81,127
32043,note_off,104,0,0,,10,,,81,127
32045,note_on,2,0,0,,8,,,80,127
32149,note_off,104,0,0,,8,,,80,127
32151,note_on,2,0,0,,10,,,81,127
32253,note_off,102,0,0,,10,,,45,127
32255,note_off,2,0,0,,10,,,81,127
32257,note_on,2,0,0,,3,,,75,127
32361,note_off,104,0,0,,3,,,75,127
32363,note_on,2,0,0,,4,,,76,127
32467,note_off,104,0,0,,4,,,76,127
32469,note_on,2,0,0,,8,,,68,127
32573,note_off,104,0,0,,8,,,68,127
32575,note_on,2,0,0,,10,,,69,127
32679,note_off,104,0,0,,10,,,69,127
32681,note_on,2,0,0,,3,,,63,127
32681,note_on,0,0,0,,1,,,49,127
32785,note_off,104,0,0,,3,,,63,127
32787,note_on,2,0,0,,4,,,64,127
32891,note_off,104,0,0,,4,,,64,127
32893,note_on,2,0,0,,4,,,76,127
32997,note_off,104,0,0,,4,,,76,127
32999,note_on,2,0,0,,1,,,73,127
33103,note_off,104,0,0,,1,,,73,127
33103,note_off,0,0,0,,1,,,49,127
33105,note_on,2,0,0,,6,,,78,127
33105,note_on,0,0,0,,2,,,50,127
33209,note_off,104,0,0,,6,,,78,127
33211,note_on,2,0,0,,2,,,74,127
33315,note_off,104,0,0,,2,,,74,127
33317,note_on,2,0,0,,1,,,73,127
33421,note_off,104,0,0,,1,,,73,127
33423,note_on,2,0,0,,12,,,71,127
33527,note_off,104,0,0,,12,,,71,127
33527,note_off,0,0,0,,2,,,50,127
33529,note_on,2,0,0,,10,,,69,127
33529,note_on,0,0,0,,4,,,52,127
33687,note_off,158,0,0,,10,,,69,127
33689,note_on,2,0,0,,12,,,71,127
33740,note_off,51,0,0,,12,,,71,127
33742,note_on,2,0,0,,10,,,69,127
33793,note_off,51,0,0,,10,,,69,127
33795,note_on,2,0,0,,8,,,68,127
33846,note_off,51,0,0,,8,,,68,127
33848,note_on,2,0,0,,10,,,69,127
33899,note_off,51,0,0,,10,,,69,127
33901,note_on,2,0,0,,12,,,71,127
33952,note_off,51,0,0,,12,,,71,127
33954,note_on,2,0,0,,1,,,73,127
33954,note_on,0,0,0,,4,,,40,127
34005,note_off,51,0,0,,1,,,73,127
34007,note_on,2,0,0,,12,,,71,127
34058,note_off,51,0,0,,12,,,71,127
34060,note_on,2,0,0,,1,,,73,127
34111,note_off,51,0,0,,1,,,73,127
34113,note_on,2,0,0,,12,,,71,127
34164,note_off,51,0,0,,12,,,71,127
34166,note_on,2,0,0,,1,,,73,127
34217,note_off,51,0,0,,1,,,73,127
34219,note_on,2,0,0,,12,,,71,127
34270,note_off,51,0,0,,12,,,71,127
34272,note_on,2,0,0,,10,,,69,127
34376,note_off,104,0,0,,4,,,40,127
34377,note_off,1,0,0,,4,,,52,127
34378,note_on,1,0,0,,10,,,57,127
34482,note_off,104,0,0,,10,,,57,127
34482,note_off,0,0,0,,10,,,69,127
34484,note_on,2,0,0,,10,,,69,127
34588,note_off,104,0,0,,10,,,69,127
34590,note_on,2,0,0,,8,,,68,127
34694,note_off,104,0,0,,8,,,68,127
34696,note_on,2,0,0,,10,,,69,127
34800,note_off,104,0,0,,10,,,69,127
34802,note_on,2,0,0,,3,,,63,127
34906,note_off,104,0,0,,3,,,63,127
34908,note_on,2,0,0,,4,,,64,127
35012,note_off,104,0,0,,4,,,64,127
35014,note_on,2,0,0,,8,,,56,127
35118,note_off,104,0,0,,8,,,56,127
35120,note_on,2,0,0,,10,,,57,127
35224,note_off,104,0,0,,10,,,57,127
35226,note_on,2,0,0,,4,,,76,127
35226,note_on,0,0,0,,10,,,45,127
35330,note_off,104,0,0,,10,,,45,127
35332,note_on,2,0,0,,1,,,49,127
35436,note_off,104,0,0,,1,,,49,127
35438,note_on,2,0,0,,12,,,47,127
35542,note_off,104,0,0,,12,,,47,127
35544,note_on,2,0,0,,10,,,45,127
35648,note_off,104,0,0,,10,,,45,127
35650,note_on,2,0,0,,2,,,50,127
35754,note_off,104,0,0,,4,,,76,127
35756,note_on,2,0,0,,6,,,78,127
35860,note_off,104,0,0,,6,,,78,127
35862,note_on,2,0,0,,4,,,76,127
35966,note_off,104,0,0,,4,,,76,127
35968,note_on,2,0,0,,2,,,74,127
36072,note_off,104,0,0,,2,,,74,127
36072,note_off,0,0,0,,2,,,50,127
36074,note_on,2,0,0,,2,,,74,127
36074,note_on,0,0,0,,4,,,52,127
36178,note_off,104,0,0,,2,,,74,127
36180,note_on,2,0,0,,1,,,73,127
36284,note_off,104,0,0,,1,,,73,127
36286,note_on,2,0,0,,12,,,71,127
36390,note_off,104,0,0,,12,,,71,127
36392,note_on,2,0,0,,10,,,69,127
36496,note_off,104,0,0,,10,,,69,127
36498,note_on,2,0,0,,12,,,71,127
36498,note_on,0,0,0,,4,,,40,127
36602,note_off,104,0,0,,12,,,71,127
36604,note_on,2,0,0,,10,,,81,127
36708,note_off,104,0,0,,10,,,81,127
36710,note_on,2,0,0,,10,,,69,127
36814,note_off,104,0,0,,10,,,69,127
36816,note_on,2,0,0,,8,,,68,127
36920,note_off,104,0,0,,8,,,68,127
36920,note_off,0,0,0,,4,,,40,127
36921,note_off,1,0,0,,4,,,52,127
36922,note_on,1,0,0,,10,,,69,127
36922,note_on,0,0,0,,10,,,57,127
37026,note_off,104,0,0,,10,,,57,127
37026,note_off,0,0,0,,10,,,69,127
37028,note_on,2,0,0,,10,,,69,127
37132,note_off,104,0,0,,10,,,69,127
37134,note_on,2,0,0,,8,,,68,127
37238,note_off,104,0,0,,8,,,68,127
37240,note_on,2,0,0,,10,,,69,127
37344,note_off,104,0,0,,10,,,69,127
37346,note_on,2,0,0,,3,,,63,127
37450,note_off,104,0,0,,3,,,63,127
37452,note_on,2,0,0,,4,,,64,127
37556,note_off,104,0,0,,4,,,64,127
37558,note_on,2,0,0,,8,,,56,127
37662,note_off,104,0,0,,8,,,56,127
37664,note_on,2,0,0,,10,,,57,127
37768,note_off,104,0,0,,10,,,57,127
37770,note_on,2,0,0,,4,,,76,127
37770,note_on,0,0,0,,1,,,49,127
37874,note_off,104,0,0,,1,,,49,127
37876,note_on,2,0,0,,4,,,52,127
37980,note_off,104,0,0,,4,,,52,127
37982,note_on,2,0,0,,2,,,50,127
38086,note_off,104,0,0,,2,,,50,127
38088,note_on,2,0,0,,1,,,49,127
38192,note_off,104,0,0,,1,,,49,127
38194,note_on,2,0,0,,2,,,50,127
38298,note_off,104,0,0,,4,,,76,127
38300,note_on,2,0,0,,6,,,78,127
38404,note_off,104,0,0,,6,,,78,127
38406,note_on,2,0,0,,4,,,76,127
38510,note_off,104,0,0,,4,,,76,127
38512,note_on,2,0,0,,2,,,74,127
38616,note_off,104,0,0,,2,,,74,127
38616,note_off,0,0,0,,2,,,50,127
38618,note_on,2,0,0,,2,,,74,127
38618,note_on,0,0,0,,4,,,52,127
38722,note_off,104,0,0,,2,,,74,127
38724,note_on,2,0,0,,1,,,73,127
38828,note_off,104,0,0,,1,,,73,127
38830,note_on,2,0,0,,12,,,71,127
38934,note_off,104,0,0,,12,,,71,127
38936,note_on,2,0,0,,10,,,69,127
39040,note_off,104,0,0,,10,,,69,127
39042,note_on,2,0,0,,12,,,71,127
39042,note_on,0,0,0,,4,,,40,127
39146,note_off,104,0,0,,12,,,71,127
39148,note_on,2,0,0,,10,,,81,127
39252,note_off,104,0,0,,10,,,81,127
39254,note_on,2,0,0,,10,,,69,127
39358,note_off,104,0,0,,10,,,69,127
39360,note_on,2,0,0,,8,,,68,127
39464,note_off,104,0,0,,8,,,68,127
39464,note_off,0,0,0,,4,,,40,127
39465,note_off,1,0,0,,4,,,52,127
39466,note_on,1,0,0,,10,,,69,127
39466,note_on,0,0,0,,10,,,33,127
39570,note_off,104,0,0,,10,,,69,127
39572,note_on,2,0,0,,4,,,76,127
39676,note_off,104,0,0,,4,,,76,127
39678,note_on,2,0,0,,1,,,73,127
39782,note_off,104,0,0,,1,,,73,127
39784,note_on,2,0,0,,10,,,69,127
39888,note_off,104,0,0,,10,,,69,127
39888,note_off,0,0,0,,10,,,33,127
39890,note_on,2,0,0,,4,,,64,127
39890,note_on,0,0,0,,10,,,33,127
39994,note_off,104,0,0,,4,,,64,127
39996,note_on,2,0,0,,1,,,61,127
40100,note_off,104,0,0,,1,,,61,127
40102,note_on,2,0,0,,10,,,57,127
40206,note_off,104,0,0,,10,,,57,127
40208,note_on,2,0,0,,1,,,61,127
40312,note_off,104,0,0,,1,,,61,127
40312,note_off,0,0,0,,10,,,33,127
40314,note_on,2,0,0,,4,,,64,127
40314,note_on,0,0,0,,10,,,33,127
40418,note_off,104,0,0,,4,,,64,127
40420,note_on,2,0,0,,10,,,69,127
40524,note_off,104,0,0,,10,,,69,127
40526,note_on,2,0,0,,1,,,73,127
40630,note_off,104,0,0,,1,,,73,127
40632,note_on,2,0,0,,4,,,76,127
40736,note_off,104,0,0,,4,,,76,127
40736,note_off,0,0,0,,10,,,33,127
40738,note_on,2,0,0,,12,,,71,127
40738,note_on,0,0,0,,10,,,33,127
40791,note_on,53,0,0,,10,,,69,127
40809,note_off,18,0,0,,12,,,71,127
40845,note_on,36,0,0,,12,,,71,127
40863,note_off,18,0,0,,10,,,69,127
40899,note_on,36,0,0,,10,,,69,127
40917,note_off,18,0,0,,12,,,71,127
41751,note_off,834,0,0,,10,,,69,127
42017,note_off,266,0,0,,10,,,33,127
42019,note_on,2,0,0,,10,,,57,127
42232,note_on,213,0,0,,1,,,73,127
42232,note_on,0,0,0,,4,,,64,127
42336,note_off,104,0,0,,4,,,64,127
42336,note_off,0,0,0,,1,,,73,127
42338,note_on,2,0,0,,2,,,74,127
42338,note_on,0,0,0,,6,,,66,127
42442,note_off,104,0,0,,6,,,66,127
42442,note_off,0,0,0,,2,,,74,127
42444,note_on,2,0,0,,4,,,76,127
42444,note_on,0,0,0,,7,,,67,127
42655,note_off,211,0,0,,7,,,67,127
42655,note_off,0,0,0,,4,,,76,127
42657,note_on,2,0,0,,4,,,76,127
42657,note_on,0,0,0,,7,,,67,127
42868,note_off,211,0,0,,7,,,67,127
42868,note_off,0,0,0,,4,,,76,127
42870,note_on,2,0,0,,2,,,74,127
42870,note_on,0,0,0,,6,,,66,127
43081,note_off,211,0,0,,6,,,66,127
43081,note_off,0,0,0,,2,,,74,127
43083,note_on,2,0,0,,1,,,73,127
43083,note_on,0,0,0,,4,,,64,127
43294,note_off,211,0,0,,4,,,64,127
43294,note_off,0,0,0,,1,,,73,127
43295,note_off,1,0,0,,10,,,57,127
43296,note_on,1,0,0,,2,,,74,127
43296,note_on,0,0,0,,10,,,57,127
43296,note_on,0,0,0,,6,,,66,127
43507,note_off,211,0,0,,2,,,74,127
43509,note_on,2,0,0,,6,,,78,127
43613,note_off,104,0,0,,6,,,78,127
43615,note_on,2,0,0,,7,,,79,127
43719,note_off,104,0,0,,7,,,79,127
43721,note_on,2,0,0,,10,,,81,127
43932,note_off,211,0,0,,10,,,81,127
43932,note_off,0,0,0,,6,,,66,127
43934,note_on,2,0,0,,2,,,74,127
43934,note_on,0,0,0,,10,,,69,127
44145,note_off,211,0,0,,10,,,69,127
44145,note_off,0,0,0,,2,,,74,127
44147,note_on,2,0,0,,1,,,73,127
44147,note_on,0,0,0,,7,,,67,127
44358,note_off,211,0,0,,7,,,67,127
44358,note_off,0,0,0,,1,,,73,127
44360,note_on,2,0,0,,4,,,76,127
44360,note_on,0,0,0,,6,,,66,127
44411,note_off,51,0,0,,4,,,76,127
44413,note_on,2,0,0,,2,,,74,127
44464,note_off,51,0,0,,2,,,74,127
44466,note_on,2,0,0,,1,,,73,127
44517,note_off,51,0,0,,1,,,73,127
44519,note_on,2,0,0,,2,,,74,127
44570,note_off,51,0,0,,2,,,74,127
44570,note_off,0,0,0,,6,,,66,127
44571,note_off,1,0,0,,10,,,57,127
44572,note_on,1,0,0,,4,,,76,127
44572,note_on,0,0,0,,4,,,64,127
44572,note_on,0,0,0,,10,,,57,127
44676,note_off,104,0,0,,4,,,76,127
44678,note_on,2,0,0,,10,,,81,127
44782,note_off,104,0,0,,10,,,81,127
44784,note_on,2,0,0,,10,,,81,127
44888,note_off,104,0,0,,10,,,81,127
44890,note_on,2,0,0,,8,,,80,127
44994,note_off,104,0,0,,8,,,80,127
44996,note_on,2,0,0,,8,,,80,127
45100,note_off,104,0,0,,8,,,80,127
45102,note_on,2,0,0,,10,,,81,127
45206,note_off,104,0,0,,10,,,81,127
45206,note_off,0,0,0,,10,,,57,127
45206,note_off,0,0,0,,4,,,64,127
45208,note_on,2,0,0,,10,,,81,127
45208,note_on,0,0,0,,10,,,57,127
45312,note_off,104,0,0,,10,,,81,127
45314,note_on,2,0,0,,8,,,80,127
45418,note_off,104,0,0,,8,,,80,127
45418,note_off,0,0,0,,10,,,57,127
45420,note_on,2,0,0,,8,,,80,127
45420,note_on,0,0,0,,12,,,59,127
45524,note_off,104,0,0,,8,,,80,127
45526,note_on,2,0,0,,6,,,78,127
45630,note_off,104,0,0,,6,,,78,127
45630,note_off,0,0,0,,12,,,59,127
45632,note_on,2,0,0,,6,,,78,127
45632,note_on,0,0,0,,1,,,61,127
45736,note_off,104,0,0,,6,,,78,127
45738,note_on,2,0,0,,4,,,76,127
45842,note_off,104,0,0,,4,,,76,127
45842,note_off,0,0,0,,1,,,61,127
45844,note_on,2,0,0,,6,,,78,127
45844,note_on,0,0,0,,2,,,50,127
45948,note_off,104,0,0,,2,,,50,127
45950,note_on,2,0,0,,2,,,62,127
46054,note_off,104,0,0,,2,,,62,127
46056,note_on,2,0,0,,2,,,62,127
46160,note_off,104,0,0,,2,,,62,127
46162,note_on,2,0,0,,1,,,61,127
46266,note_off,104,0,0,,1,,,61,127
46268,note_on,2,0,0,,1,,,61,127
46372,note_off,104,0,0,,1,,,61,127
46374,note_on,2,0,0,,2,,,62,127
46478,note_off,104,0,0,,2,,,62,127
46480,note_on,2,0,0,,2,,,62,127
46584,note_off,104,0,0,,2,,,62,127
46586,note_on,2,0,0,,1,,,61,127
46690,note_off,104,0,0,,1,,,61,127
46692,note_on,2,0,0,,1,,,61,127
46796,note_off,104,0,0,,1,,,61,127
46796,note_off,0,0,0,,6,,,78,127
46798,note_on,2,0,0,,4,,,76,127
46798,note_on,0,0,0,,12,,,59,127
46902,note_off,104,0,0,,12,,,59,127
46902,note_off,0,0,0,,4,,,76,127
46904,note_on,2,0,0,,2,,,74,127
46904,note_on,0,0,0,,12,,,59,127
47008,note_off,104,0,0,,12,,,59,127
47008,note_off,0,0,0,,2,,,74,127
47010,note_on,2,0,0,,1,,,73,127
47010,note_on,0,0,0,,11,,,58,127
47114,note_off,104,0,0,,11,,,58,127
47114,note_off,0,0,0,,1,,,73,127
47116,note_on,2,0,0,,2,,,74,127
47116,note_on,0,0,0,,12,,,47,127
47220,note_off,104,0,0,,2,,,74,127
47222,note_on,2,0,0,,2,,,86,127
47326,note_off,104,0,0,,2,,,86,127
47328,note_on,2,0,0,,2,,,86,127
47432,note_off,104,0,0,,2,,,86,127
47434,note_on,2,0,0,,1,,,85,127
47538,note_off,104,0,0,,1,,,85,127
47540,note_on,2,0,0,,1,,,85,127
47540,note_on,0,0,0,,12,,,59,127
47644,note_off,104,0,0,,1,,,85,127
47646,note_on,2,0,0,,2,,,86,127
47750,note_off,104,0,0,,2,,,86,127
47752,note_on,2,0,0,,2,,,86,127
47856,note_off,104,0,0,,2,,,86,127
47858,note_on,2,0,0,,1,,,85,127
47962,note_off,104,0,0,,1,,,85,127
47962,note_off,0,0,0,,12,,,59,127
47963,note_off,1,0,0,,12,,,47,127
47964,note_on,1,0,0,,1,,,85,127
47964,note_on,0,0,0,,10,,,57,127
48068,note_off,104,0,0,,1,,,85,127
48070,note_on,2,0,0,,12,,,83,127
48174,note_off,104,0,0,,12,,,83,127
48176,note_on,2,0,0,,12,,,83,127
48280,note_off,104,0,0,,12,,,83,127
48282,note_on,2,0,0,,11,,,82,127
48386,note_off,104,0,0,,11,,,82,127
48386,note_off,0,0,0,,10,,,57,127
48388,note_on,2,0,0,,11,,,82,127
48388,note_on,0,0,0,,7,,,43,127
48492,note_off,104,0,0,,11,,,82,127
48494,note_on,2,0,0,,12,,,83,127
48598,note_off,104,0,0,,12,,,83,127
48600,note_on,2,0,0,,6,,,78,127
48704,note_off,104,0,0,,6,,,78,127
48706,note_on,2,0,0,,7,,,79,127
48810,note_off,104,0,0,,7,,,79,127
48812,note_on,2,0,0,,3,,,75,127
48812,note_on,0,0,0,,7,,,55,127
48916,note_off,104,0,0,,3,,,75,127
48918,note_on,2,0,0,,4,,,76,127
49022,note_off,104,0,0,,4,,,76,127
49024,note_on,2,0,0,,11,,,70,127
49128,note_off,104,0,0,,11,,,70,127
49130,note_on,2,0,0,,12,,,71,127
49234,note_off,104,0,0,,12,,,71,127
49235,note_off,1,0,0,,7,,,43,127
49236,note_on,1,0,0,,6,,,66,127
49236,note_on,0,0,0,,7,,,43,127
49340,note_off,104,0,0,,6,,,66,127
49342,note_on,2,0,0,,7,,,67,127
49446,note_off,104,0,0,,7,,,67,127
49448,note_on,2,0,0,,4,,,64,127
49552,note_off,104,0,0,,4,,,64,127
49554,note_on,2,0,0,,4,,,76,127
49658,note_off,104,0,0,,4,,,76,127
49658,note_off,0,0,0,,7,,,43,127
49659,note_off,1,0,0,,7,,,55,127
49660,note_on,1,0,0,,2,,,74,127
49660,note_on,0,0,0,,6,,,42,127
49871,note_off,211,0,0,,2,,,74,127
49873,note_on,2,0,0,,1,,,73,127
49977,note_off,104,0,0,,1,,,73,127
49979,note_on,2,0,0,,12,,,71,127
50083,note_off,104,0,0,,12,,,71,127
50085,note_on,2,0,0,,6,,,78,127
50085,note_on,0,0,0,,6,,,54,127
50296,note_off,211,0,0,,6,,,78,127
50298,note_on,2,0,0,,4,,,76,127
50402,note_off,104,0,0,,4,,,76,127
50404,note_on,2,0,0,,2,,,74,127
50508,note_off,104,0,0,,2,,,74,127
50508,note_off,0,0,0,,6,,,54,127
50509,note_off,1,0,0,,6,,,42,127
50510,note_on,1,0,0,,1,,,73,127
50510,note_on,0,0,0,,4,,,52,127
50721,note_off,211,0,0,,1,,,73,127
50723,note_on,2,0,0,,12,,,71,127
50827,note_off,104,0,0,,12,,,71,127
50829,note_on,2,0,0,,11,,,70,127
50933,note_off,104,0,0,,11,,,70,127
50933,note_off,0,0,0,,4,,,52,127
50935,note_on,2,0,0,,12,,,71,127
50935,note_on,0,0,0,,2,,,50,127
50935,note_on,0,0,0,,12,,,59,127
51039,note_off,104,0,0,,12,,,71,127
51041,note_on,2,0,0,,12,,,83,127
51145,note_off,104,0,0,,12,,,83,127
51147,note_on,2,0,0,,12,,,83,127
51251,note_off,104,0,0,,12,,,83,127
51253,note_on,2,0,0,,11,,,82,127
51357,note_off,104,0,0,,11,,,82,127
51357,note_off,0,0,0,,12,,,59,127
51357,note_off,0,0,0,,2,,,50,127
51359,note_on,2,0,0,,11,,,82,127
51359,note_on,0,0,0,,12,,,59,127
51359,note_on,0,0,0,,2,,,50,127
51463,note_off,104,0,0,,11,,,82,127
51465,note_on,2,0,0,,12,,,83,127
51569,note_off,104,0,0,,12,,,83,127
51571,note_on,2,0,0,,12,,,83,127
51675,note_off,104,0,0,,12,,,83,127
51677,note_on,2,0,0,,10,,,81,127
51781,note_off,104,0,0,,10,,,81,127
51781,note_off,0,0,0,,2,,,50,127
51781,note_off,0,0,0,,12,,,59,127
51783,note_on,2,0,0,,10,,,81,127
51783,note_on,0,0,0,,2,,,50,127
51783,note_on,0,0,0,,12,,,59,127
51887,note_off,104,0,0,,10,,,81,127
51889,note_on,2,0,0,,8,,,80,127
51993,note_off,104,0,0,,8,,,80,127
51995,note_on,2,0,0,,8,,,80,127
52099,note_off,104,0,0,,8,,,80,127
52101,note_on,2,0,0,,6,,,78,127
52205,note_off,104,0,0,,6,,,78,127
52205,note_off,0,0,0,,12,,,59,127
52205,note_off,0,0,0,,2,,,50,127
52207,note_on,2,0,0,,2,,,74,127
52207,note_on,0,0,0,,12,,,59,127
52207,note_on,0,0,0,,1,,,49,127
52418,note_off,211,0,0,,2,,,74,127
52420,note_on,2,0,0,,2,,,86,127
52631,note_off,211,0,0,,1,,,49,127
52631,note_off,0,0,0,,12,,,59,127
52633,note_on,2,0,0,,1,,,49,127
52633,note_on,0,0,0,,12,,,59,127
52737,note_off,104,0,0,,2,,,86,127
52739,note_on,2,0,0,,1,,,85,127
52843,note_off,104,0,0,,1,,,85,127
52845,note_on,2,0,0,,1,,,85,127
52949,note_off,104,0,0,,1,,,85,127
52951,note_on,2,0,0,,12,,,83,127
53055,note_off,104,0,0,,12,,,83,127
53055,note_off,0,0,0,,12,,,59,127
53055,note_off,0,0,0,,1,,,49,127
53057,note_on,2,0,0,,12,,,83,127
53057,note_on,0,0,0,,12,,,59,127
53057,note_on,0,0,0,,1,,,49,127
53161,note_off,104,0,0,,12,,,83,127
53163,note_on,2,0,0,,10,,,81,127
53267,note_off,104,0,0,,10,,,81,127
53269,note_on,2,0,0,,10,,,81,127
53373,note_off,104,0,0,,10,,,81,127
53375,note_on,2,0,0,,8,,,80,127
53479,note_off,104,0,0,,8,,,80,127
53479,note_off,0,0,0,,1,,,49,127
53479,note_off,0,0,0,,12,,,59,127
53481,note_on,2,0,0,,8,,,80,127
53481,note_on,0,0,0,,10,,,57,127
53481,note_on,0,0,0,,1,,,49,127
53585,note_off,104,0,0,,8,,,80,127
53587,note_on,2,0,0,,10,,,81,127
53691,note_off,104,0,0,,10,,,81,127
53693,note_on,2,0,0,,10,,,81,127
53797,note_off,104,0,0,,10,,,81,127
53799,note_on,2,0,0,,8,,,80,127
53903,note_off,104,0,0,,8,,,80,127
53903,note_off,0,0,0,,1,,,49,127
53903,note_off,0,0,0,,10,,,57,127
53905,note_on,2,0,0,,8,,,80,127
53905,note_on,0,0,0,,10,,,57,127
53905,note_on,0,0,0,,1,,,49,127
54009,note_off,104,0,0,,8,,,80,127
54011,note_on,2,0,0,,10,,,81,127
54115,note_off,104,0,0,,10,,,81,127
54117,note_on,2,0,0,,10,,,81,127
54221,note_off,104,0,0,,10,,,81,127
54223,note_on,2,0,0,,7,,,79,127
54327,note_off,104,0,0,,7,,,79,127
54327,note_off,0,0,0,,1,,,49,127
54327,note_off,0,0,0,,10,,,57,127
54329,note_on,2,0,0,,7,,,79,127
54329,note_on,0,0,0,,10,,,57,127
54329,note_on,0,0,0,,0,,,48,127
54433,note_off,104,0,0,,7,,,79,127
54435,note_on,2,0,0,,6,,,78,127
54539,note_off,104,0,0,,6,,,78,127
54541,note_on,2,0,0,,6,,,78,127
54645,note_off,104,0,0,,6,,,78,127
54647,note_on,2,0,0,,4,,,76,127
54751,note_off,104,0,0,,4,,,76,127
54751,note_off,0,0,0,,0,,,48,127
54751,note_off,0,0,0,,10,,,57,127
54753,note_on,2,0,0,,0,,,72,127
54753,note_on,0,0,0,,10,,,57,127
54753,note_on,0,0,0,,12,,,47,127
54964,note_off,211,0,0,,0,,,72,127
54966,note_on,2,0,0,,0,,,84,127
55177,note_off,211,0,0,,12,,,47,127
55177,note_off,0,0,0,,10,,,57,127
55179,note_on,2,0,0,,12,,,47,127
55179,note_on,0,0,0,,10,,,57,127
55283,note_off,104,0,0,,0,,,84,127
55285,note_on,2,0,0,,12,,,83,127
55389,note_off,104,0,0,,12,,,83,127
55391,note_on,2,0,0,,12,,,83,127
55495,note_off,104,0,0,,12,,,83,127
55497,note_on,2,0,0,,10,,,81,127
55601,note_off,104,0,0,,10,,,81,127
55601,note_off,0,0,0,,10,,,57,127
55601,note_off,0,0,0,,12,,,47,127
55603,note_on,2,0,0,,10,,,81,127
55603,note_on,0,0,0,,10,,,57,127
55603,note_on,0,0,0,,12,,,47,127
55707,note_off,104,0,0,,10,,,81,127
55709,note_on,2,0,0,,7,,,79,127
55813,note_off,104,0,0,,7,,,79,127
55815,note_on,2,0,0,,7,,,79,127
55919,note_off,104,0,0,,7,,,79,127
55921,note_on,2,0,0,,6,,,78,127
56025,note_off,104,0,0,,6,,,78,127
56025,note_off,0,0,0,,12,,,47,127
56025,note_off,0,0,0,,10,,,57,127
56027,note_on,2,0,0,,6,,,78,127
56027,note_on,0,0,0,,12,,,47,127
56027,note_on,0,0,0,,7,,,55,127
56131,note_off,104,0,0,,6,,,78,127
56133,note_on,2,0,0,,7,,,79,127
56237,note_off,104,0,0,,7,,,79,127
56239,note_on,2,0,0,,7,,,79,127
56343,note_off,104,0,0,,7,,,79,127
56345,note_on,2,0,0,,6,,,78,127
56449,note_off,104,0,0,,6,,,78,127
56449,note_off,0,0,0,,7,,,55,127
56449,note_off,0,0,0,,12,,,47,127
56451,note_on,2,0,0,,6,,,78,127
56451,note_on,0,0,0,,12,,,47,127
56451,note_on,0,0,0,,7,,,55,127
56555,note_off,104,0,0,,6,,,78,127
56557,note_on,2,0,0,,4,,,76,127
56661,note_off,104,0,0,,4,,,76,127
56663,note_on,2,0,0,,4,,,76,127
56767,note_off,104,0,0,,4,,,76,127
56769,note_on,2,0,0,,2,,,74,127
56873,note_off,104,0,0,,2,,,74,127
56873,note_off,0,0,0,,7,,,55,127
56873,note_off,0,0,0,,12,,,47,127
56875,note_on,2,0,0,,2,,,74,127
56875,note_on,0,0,0,,7,,,55,127
56875,note_on,0,0,0,,12,,,47,127
56979,note_off,104,0,0,,2,,,74,127
56981,note_on,2,0,0,,1,,,73,127
57085,note_off,104,0,0,,1,,,73,127
57087,note_on,2,0,0,,1,,,73,127
57191,note_off,104,0,0,,1,,,73,127
57193,note_on,2,0,0,,12,,,71,127
57297,note_off,104,0,0,,12,,,71,127
57297,note_off,0,0,0,,12,,,47,127
57297,note_off,0,0,0,,7,,,55,127
57299,note_on,2,0,0,,1,,,73,127
57299,note_on,0,0,0,,7,,,55,127
57299,note_on,0,0,0,,10,,,45,127
57510,note_off,211,0,0,,1,,,73,127
57512,note_on,2,0,0,,12,,,83,127
57723,note_off,211,0,0,,10,,,45,127
57723,note_off,0,0,0,,7,,,55,127
57725,note_on,2,0,0,,10,,,45,127
57725,note_on,0,0,0,,7,,,55,127
57829,note_off,104,0,0,,12,,,83,127
57831,note_on,2,0,0,,10,,,81,127
57935,note_off,104,0,0,,10,,,81,127
57937,note_on,2,0,0,,10,,,81,127
58041,note_off,104,0,0,,10,,,81,127
58043,note_on,2,0,0,,7,,,79,127
58147,note_off,104,0,0,,7,,,79,127
58147,note_off,0,0,0,,7,,,55,127
58147,note_off,0,0,0,,10,,,45,127
58149,note_on,2,0,0,,7,,,79,127
58149,note_on,0,0,0,,10,,,45,127
58149,note_on,0,0,0,,7,,,55,127
58253,note_off,104,0,0,,7,,,79,127
58255,note_on,2,0,0,,6,,,78,127
58359,note_off,104,0,0,,6,,,78,127
58361,note_on,2,0,0,,6,,,78,127
58465,note_off,104,0,0,,6,,,78,127
58467,note_on,2,0,0,,4,,,76,127
58571,note_off,104,0,0,,4,,,76,127
58571,note_off,0,0,0,,7,,,55,127
58571,note_off,0,0,0,,10,,,45,127
58573,note_on,2,0,0,,6,,,78,127
58573,note_on,0,0,0,,2,,,50,127
58680,note_on,107,0,0,,2,,,62,127
58733,note_off,53,0,0,,2,,,50,127
58784,note_off,51,0,0,,2,,,62,127
58786,note_on,2,0,0,,2,,,62,127
58890,note_off,104,0,0,,2,,,62,127
58892,note_on,2,0,0,,1,,,61,127
58996,note_off,104,0,0,,1,,,61,127
58996,note_off,0,0,0,,6,,,78,127
58998,note_on,2,0,0,,6,,,78,127
58998,note_on,0,0,0,,1,,,61,127
59102,note_off,104,0,0,,1,,,61,127
59104,note_on,2,0,0,,2,,,62,127
59208,note_off,104,0,0,,2,,,62,127
59210,note_on,2,0,0,,2,,,62,127
59314,note_off,104,0,0,,2,,,62,127
59316,note_on,2,0,0,,1,,,61,127
59420,note_off,104,0,0,,1,,,61,127
59420,note_off,0,0,0,,6,,,78,127
59422,note_on,2,0,0,,6,,,78,127
59422,note_on,0,0,0,,1,,,61,127
59526,note_off,104,0,0,,1,,,61,127
59528,note_on,2,0,0,,12,,,59,127
59632,note_off,104,0,0,,12,,,59,127
59634,note_on,2,0,0,,12,,,59,127
59738,note_off,104,0,0,,12,,,59,127
59740,note_on,2,0,0,,11,,,58,127
59844,note_off,104,0,0,,11,,,58,127
59844,note_off,0,0,0,,6,,,78,127
59846,note_on,2,0,0,,6,,,78,127
59846,note_on,0,0,0,,2,,,86,127
59846,note_on,0,0,0,,12,,,47,127
59953,note_on,107,0,0,,12,,,59,127
60006,note_off,53,0,0,,12,,,47,127
60057,note_off,51,0,0,,12,,,59,127
60059,note_on,2,0,0,,12,,,59,127
60163,note_off,104,0,0,,12,,,59,127
60165,note_on,2,0,0,,11,,,58,127
60269,note_off,104,0,0,,11,,,58,127
60269,note_off,0,0,0,,2,,,86,127
60269,note_off,0,0,0,,6,,,78,127
60271,note_on,2,0,0,,2,,,86,127
60271,note_on,0,0,0,,6,,,78,127
60271,note_on,0,0,0,,11,,,58,127
60375,note_off,104,0,0,,11,,,58,127
60377,note_on,2,0,0,,12,,,59,127
60481,note_off,104,0,0,,12,,,59,127
60483,note_on,2,0,0,,12,,,59,127
60587,note_off,104,0,0,,12,,,59,127
60589,note_on,2,0,0,,10,,,57,127
60693,note_off,104,0,0,,10,,,57,127
60693,note_off,0,0,0,,6,,,78,127
60693,note_off,0,0,0,,2,,,86,127
60695,note_on,2,0,0,,2,,,86,127
60695,note_on,0,0,0,,6,,,78,127
60695,note_on,0,0,0,,10,,,57,127
60799,note_off,104,0,0,,10,,,57,127
60801,note_on,2,0,0,,7,,,55,127
60905,note_off,104,0,0,,7,,,55,127
60907,note_on,2,0,0,,7,,,55,127
61011,note_off,104,0,0,,7,,,55,127
61013,note_on,2,0,0,,6,,,54,127
61117,note_off,104,0,0,,6,,,54,127
61117,note_off,0,0,0,,6,,,78,127
61117,note_off,0,0,0,,2,,,86,127
61119,note_on,2,0,0,,2,,,74,127
61119,note_on,0,0,0,,12,,,83,127
61119,note_on,0,0,0,,2,,,86,127
61119,note_on,0,0,0,,7,,,43,127
61226,note_on,107,0,0,,7,,,55,127
61279,note_off,53,0,0,,7,,,43,127
61330,note_off,51,0,0,,7,,,55,127
61332,note_on,2,0,0,,7,,,55,127
61436,note_off,104,0,0,,7,,,55,127
61438,note_on,2,0,0,,6,,,54,127
61542,note_off,104,0,0,,6,,,54,127
61542,note_off,0,0,0,,2,,,86,127
61542,note_off,0,0,0,,12,,,83,127
61542,note_off,0,0,0,,2,,,74,127
61544,note_on,2,0,0,,12,,,83,127
61544,note_on,0,0,0,,2,,,86,127
61544,note_on,0,0,0,,2,,,74,127
61544,note_on,0,0,0,,6,,,54,127
61648,note_off,104,0,0,,6,,,54,127
61650,note_on,2,0,0,,7,,,55,127
61754,note_off,104,0,0,,7,,,55,127
61756,note_on,2,0,0,,7,,,55,127
61860,note_off,104,0,0,,7,,,55,127
61862,note_on,2,0,0,,6,,,54,127
61966,note_off,104,0,0,,6,,,54,127
61966,note_off,0,0,0,,2,,,74,127
61966,note_off,0,0,0,,2,,,86,127
61966,note_off,0,0,0,,12,,,83,127
61968,note_on,2,0,0,,2,,,86,127
61968,note_on,0,0,0,,2,,,74,127
61968,note_on,0,0,0,,12,,,83,127
61968,note_on,0,0,0,,6,,,54,127
62072,note_off,104,0,0,,6,,,54,127
62074,note_on,2,0,0,,4,,,52,127
62178,note_off,104,0,0,,4,,,52,127
62180,note_on,2,0,0,,4,,,52,127
62284,note_off,104,0,0,,4,,,52,127
62286,note_on,2,0,0,,2,,,50,127
62390,note_off,104,0,0,,2,,,50,127
62390,note_off,0,0,0,,12,,,83,127
62390,note_off,0,0,0,,2,,,74,127
62390,note_off,0,0,0,,2,,,86,127
62392,note_on,2,0,0,,4,,,76,127
62392,note_on,0,0,0,,2,,,86,127
62392,note_on,0,0,0,,10,,,45,127
62496,note_off,104,0,0,,2,,,86,127
62498,note_on,2,0,0,,1,,,85,127
62602,note_off,104,0,0,,1,,,85,127
62602,note_off,0,0,0,,4,,,76,127
62604,note_on,2,0,0,,1,,,85,127
62708,note_off,104,0,0,,1,,,85,127
62710,note_on,2,0,0,,12,,,83,127
62814,note_off,104,0,0,,12,,,83,127
62816,note_on,2,0,0,,12,,,83,127
62816,note_on,0,0,0,,10,,,57,127
62920,note_off,104,0,0,,12,,,83,127
62922,note_on,2,0,0,,10,,,81,127
63026,note_off,104,0,0,,10,,,81,127
63028,note_on,2,0,0,,10,,,81,127
63132,note_off,104,0,0,,10,,,81,127
63134,note_on,2,0,0,,7,,,79,127
63238,note_off,104,0,0,,7,,,79,127
63239,note_off,1,0,0,,10,,,45,127
63240,note_on,1,0,0,,7,,,79,127
63240,note_on,0,0,0,,10,,,45,127
63344,note_off,104,0,0,,7,,,79,127
63346,note_on,2,0,0,,6,,,78,127
63450,note_off,104,0,0,,6,,,78,127
63452,note_on,2,0,0,,6,,,78,127
63556,note_off,104,0,0,,6,,,78,127
63558,note_off,2,0,0,,10,,,45,127
63558,note_on,0,0,0,,4,,,76,127
63662,note_off,104,0,0,,4,,,76,127
63663,note_off,1,0,0,,10,,,57,127
63664,note_on,1,0,0,,4,,,76,127
63664,note_on,0,0,0,,2,,,62,127
63768,note_off,104,0,0,,4,,,76,127
63770,note_on,2,0,0,,2,,,74,127
63874,note_off,104,0,0,,2,,,74,127
63876,note_on,2,0,0,,2,,,74,127
63980,note_off,104,0,0,,2,,,74,127
63982,note_on,2,0,0,,1,,,73,127
64086,note_off,104,0,0,,1,,,73,127
64088,note_on,2,0,0,,1,,,73,127
64192,note_off,104,0,0,,1,,,73,127
64194,note_on,2,0,0,,2,,,74,127
64298,note_off,104,0,0,,2,,,74,127
64298,note_off,0,0,0,,2,,,62,127
64300,note_on,2,0,0,,2,,,74,127
64300,note_on,0,0,0,,1,,,61,127
64404,note_off,104,0,0,,2,,,74,127
64406,note_on,2,0,0,,1,,,73,127
64510,note_off,104,0,0,,1,,,73,127
64510,note_off,0,0,0,,1,,,61,127
64512,note_on,2,0,0,,1,,,73,127
64512,note_on,0,0,0,,12,,,59,127
64616,note_off,104,0,0,,1,,,73,127
64618,note_on,2,0,0,,2,,,74,127
64722,note_off,104,0,0,,2,,,74,127
64722,note_off,0,0,0,,12,,,59,127
64724,note_on,2,0,0,,2,,,74,127
64724,note_on,0,0,0,,10,,,57,127
64828,note_off,104,0,0,,2,,,74,127
64830,note_on,2,0,0,,1,,,73,127
64934,note_off,104,0,0,,1,,,73,127
64934,note_off,0,0,0,,10,,,57,127
64936,note_on,2,0,0,,2,,,74,127
64936,note_on,0,0,0,,7,,,55,127
65040,note_off,104,0,0,,2,,,74,127
65042,note_on,2,0,0,,4,,,76,127
65146,note_off,104,0,0,,4,,,76,127
65146,note_off,0,0,0,,7,,,55,127
65148,note_on,2,0,0,,4,,,76,127
65148,note_on,0,0,0,,6,,,54,127
65252,note_off,104,0,0,,4,,,76,127
65254,note_on,2,0,0,,3,,,75,127
65358,note_off,104,0,0,,3,,,75,127
65358,note_off,0,0,0,,6,,,54,127
65360,note_on,2,0,0,,3,,,75,127
65360,note_on,0,0,0,,4,,,52,127
65464,note_off,104,0,0,,3,,,75,127
65466,note_on,2,0,0,,4,,,76,127
65570,note_off,104,0,0,,4,,,76,127
65570,note_off,0,0,0,,4,,,52,127
65572,note_on,2,0,0,,4,,,76,127
65572,note_on,0,0,0,,2,,,50,127
65676,note_off,104,0,0,,4,,,76,127
65678,note_on,2,0,0,,6,,,78,127
65782,note_off,104,0,0,,6,,,78,127
65782,note_off,0,0,0,,2,,,50,127
65784,note_on,2,0,0,,7,,,79,127
65784,note_on,0,0,0,,1,,,49,127
65888,note_off,104,0,0,,7,,,79,127
65890,note_on,2,0,0,,10,,,81,127
65994,note_off,104,0,0,,10,,,81,127
65994,note_off,0,0,0,,1,,,49,127
65996,note_on,2,0,0,,12,,,83,127
65996,note_on,0,0,0,,10,,,45,127
66100,note_off,104,0,0,,12,,,83,127
66102,note_on,2,0,0,,7,,,79,127
66206,note_off,104,0,0,,7,,,79,127
66206,note_off,0,0,0,,10,,,45,127
66208,note_on,2,0,0,,6,,,78,127
66208,note_on,0,0,0,,2,,,50,127
66419,note_off,211,0,0,,2,,,50,127
66419,note_off,0,0,0,,6,,,78,127
66421,note_on,2,0,0,,4,,,76,127
66421,note_on,0,0,0,,7,,,55,127
66525,note_off,104,0,0,,4,,,76,127
66527,note_on,2,0,0,,2,,,74,127
66631,note_off,104,0,0,,2,,,74,127
66631,note_off,0,0,0,,7,,,55,127
66633,note_on,2,0,0,,2,,,74,127
66633,note_on,0,0,0,,10,,,57,127
66791,note_off,158,0,0,,2,,,74,127
66793,note_on,2,0,0,,4,,,76,127
66844,note_off,51,0,0,,4,,,76,127
66846,note_on,2,0,0,,2,,,74,127
66897,note_off,51,0,0,,2,,,74,127
66899,note_on,2,0,0,,1,,,73,127
66950,note_off,51,0,0,,1,,,73,127
66952,note_on,2,0,0,,2,,,74,127
67003,note_off,51,0,0,,2,,,74,127
67005,note_on,2,0,0,,4,,,76,127
67056,note_off,51,0,0,,4,,,76,127
67058,note_on,2,0,0,,6,,,78,127
67058,note_on,0,0,0,,10,,,45,127
67109,note_off,51,0,0,,6,,,78,127
67111,note_on,2,0,0,,4,,,76,127
67162,note_off,51,0,0,,4,,,76,127
67164,note_on,2,0,0,,6,,,78,127
67215,note_off,51,0,0,,6,,,78,127
67217,note_on,2,0,0,,4,,,76,127
67268,note_off,51,0,0,,4,,,76,127
67270,note_on,2,0,0,,6,,,78,127
67321,note_off,51,0,0,,6,,,78,127
67323,note_on,2,0,0,,4,,,76,127
67374,note_off,51,0,0,,4,,,76,127
67376,note_off,2,0,0,,10,,,45,127
67376,note_on,0,0,0,,2,,,74,127
67480,note_off,104,0,0,,2,,,74,127
67481,note_off,1,0,0,,10,,,57,127
67482,note_on,1,0,0,,2,,,74,127
67482,note_on,0,0,0,,2,,,62,127
67586,note_off,104,0,0,,2,,,74,127
67588,note_on,2,0,0,,2,,,74,127
67692,note_off,104,0,0,,2,,,74,127
67694,note_on,2,0,0,,2,,,74,127
67798,note_off,104,0,0,,2,,,74,127
67800,note_on,2,0,0,,1,,,73,127
67904,note_off,104,0,0,,1,,,73,127
67906,note_on,2,0,0,,1,,,73,127
68010,note_off,104,0,0,,1,,,73,127
68012,note_on,2,0,0,,2,,,74,127
68116,note_off,104,0,0,,2,,,74,127
68116,note_off,0,0,0,,2,,,62,127
68118,note_on,2,0,0,,2,,,74,127
68118,note_on,0,0,0,,1,,,61,127
68222,note_off,104,0,0,,2,,,74,127
68224,note_on,2,0,0,,1,,,73,127
68328,note_off,104,0,0,,1,,,73,127
68328,note_off,0,0,0,,1,,,61,127
68330,note_on,2,0,0,,1,,,73,127
68330,note_on,0,0,0,,12,,,59,127
68434,note_off,104,0,0,,1,,,73,127
68436,note_on,2,0,0,,2,,,74,127
68540,note_off,104,0,0,,2,,,74,127
68540,note_off,0,0,0,,12,,,59,127
68542,note_on,2,0,0,,2,,,74,127
68542,note_on,0,0,0,,10,,,57,127
68646,note_off,104,0,0,,2,,,74,127
68648,note_on,2,0,0,,1,,,73,127
68752,note_off,104,0,0,,1,,,73,127
68752,note_off,0,0,0,,10,,,57,127
68754,note_on,2,0,0,,2,,,74,127
68754,note_on,0,0,0,,7,,,55,127
68858,note_off,104,0,0,,2,,,74,127
68860,note_on,2,0,0,,4,,,76,127
68964,note_off,104,0,0,,4,,,76,127
68964,note_off,0,0,0,,7,,,55,127
68966,note_on,2,0,0,,4,,,76,127
68966,note_on,0,0,0,,6,,,54,127
69070,note_off,104,0,0,,4,,,76,127
69072,note_on,2,0,0,,3,,,75,127
69176,note_off,104,0,0,,3,,,75,127
69176,note_off,0,0,0,,6,,,54,127
69178,note_on,2,0,0,,3,,,75,127
69178,note_on,0,0,0,,4,,,52,127
69282,note_off,104,0,0,,3,,,75,127
69284,note_on,2,0,0,,4,,,76,127
69388,note_off,104,0,0,,4,,,76,127
69388,note_off,0,0,0,,4,,,52,127
69390,note_on,2,0,0,,4,,,76,127
69390,note_on,0,0,0,,2,,,50,127
69494,note_off,104,0,0,,4,,,76,127
69496,note_on,2,0,0,,6,,,78,127
69600,note_off,104,0,0,,6,,,78,127
69600,note_off,0,0,0,,2,,,50,127
69602,note_on,2,0,0,,7,,,79,127
69602,note_on,0,0,0,,1,,,49,127
69706,note_off,104,0,0,,7,,,79,127
69708,note_on,2,0,0,,10,,,81,127
69812,note_off,104,0,0,,10,,,81,127
69812,note_off,0,0,0,,1,,,49,127
69814,note_on,2,0,0,,12,,,83,127
69814,note_on,0,0,0,,10,,,45,127
69918,note_off,104,0,0,,12,,,83,127
69920,note_on,2,0,0,,7,,,79,127
70024,note_off,104,0,0,,7,,,79,127
70024,note_off,0,0,0,,10,,,45,127
70026,note_on,2,0,0,,6,,,78,127
70026,note_on,0,0,0,,2,,,50,127
70237,note_off,211,0,0,,2,,,50,127
70237,note_off,0,0,0,,6,,,78,127
70239,note_on,2,0,0,,4,,,76,127
70239,note_on,0,0,0,,7,,,55,127
70343,note_off,104,0,0,,4,,,76,127
70345,note_on,2,0,0,,2,,,74,127
70449,note_off,104,0,0,,2,,,74,127
70449,note_off,0,0,0,,7,,,55,127
70451,note_on,2,0,0,,2,,,74,127
70451,note_on,0,0,0,,10,,,57,127
70609,note_off,158,0,0,,2,,,74,127
70611,note_on,2,0,0,,4,,,76,127
70662,note_off,51,0,0,,4,,,76,127
70664,note_on,2,0,0,,2,,,74,127
70715,note_off,51,0,0,,2,,,74,127
70717,note_on,2,0,0,,1,,,73,127
70768,note_off,51,0,0,,1,,,73,127
70770,note_on,2,0,0,,2,,,74,127
70821,note_off,51,0,0,,2,,,74,127
70823,note_on,2,0,0,,4,,,76,127
70874,note_off,51,0,0,,4,,,76,127
70876,note_on,2,0,0,,6,,,78,127
70876,note_on,0,0,0,,10,,,45,127
70927,note_off,51,0,0,,6,,,78,127
70929,note_on,2,0,0,,4,,,76,127
70980,note_off,51,0,0,,4,,,76,127
70982,note_on,2,0,0,,6,,,78,127
71033,note_off,51,0,0,,6,,,78,127
71035,note_on,2,0,0,,4,,,76,127
71086,note_off,51,0,0,,4,,,76,127
71088,note_on,2,0,0,,6,,,78,127
71139,note_off,51,0,0,,6,,,78,127
71141,note_on,2,0,0,,4,,,76,127
71192,note_off,51,0,0,,4,,,76,127
71194,note_on,2,0,0,,2,,,74,127
71298,note_off,104,0,0,,2,,,74,127
71298,note_off,0,0,0,,10,,,45,127
71299,note_off,1,0,0,,10,,,57,127
71300,note_on,1,0,0,,2,,,74,127
71300,note_on,0,0,0,,2,,,50,127
71404,note_off,104,0,0,,2,,,74,127
71406,note_on,2,0,0,,2,,,86,127
71510,note_off,104,0,0,,2,,,86,127
71512,note_on,2,0,0,,1,,,85,127
71616,note_off,104,0,0,,1,,,85,127
71618,note_on,2,0,0,,2,,,86,127
71722,note_off,104,0,0,,2,,,86,127
71724,note_on,2,0,0,,8,,,80,127
71828,note_off,104,0,0,,8,,,80,127
71830,note_on,2,0,0,,10,,,81,127
71934,note_off,104,0,0,,10,,,81,127
71935,note_off,1,0,0,,2,,,50,127
71936,note_on,1,0,0,,4,,,76,127
72040,note_off,104,0,0,,4,,,76,127
72042,note_on,2,0,0,,6,,,78,127
72146,note_off,104,0,0,,6,,,78,127
72148,note_on,2,0,0,,8,,,68,127
72148,note_on,0,0,0,,6,,,54,127
72252,note_off,104,0,0,,8,,,68,127
72254,note_on,2,0,0,,10,,,69,127
72358,note_off,104,0,0,,10,,,69,127
72360,note_on,2,0,0,,10,,,81,127
72464,note_off,104,0,0,,10,,,81,127
72466,note_on,2,0,0,,10,,,69,127
72570,note_off,104,0,0,,10,,,69,127
72570,note_off,0,0,0,,6,,,54,127
72572,note_on,2,0,0,,12,,,83,127
72572,note_on,0,0,0,,7,,,55,127
72676,note_off,104,0,0,,12,,,83,127
72678,note_on,2,0,0,,7,,,79,127
72782,note_off,104,0,0,,7,,,79,127
72784,note_on,2,0,0,,6,,,78,127
72888,note_off,104,0,0,,6,,,78,127
72890,note_on,2,0,0,,4,,,76,127
72994,note_off,104,0,0,,4,,,76,127
72994,note_off,0,0,0,,7,,,55,127
72996,note_on,2,0,0,,2,,,74,127
72996,note_on,0,0,0,,10,,,57,127
73154,note_off,158,0,0,,2,,,74,127
73156,note_on,2,0,0,,4,,,76,127
73207,note_off,51,0,0,,4,,,76,127
73209,note_on,2,0,0,,2,,,74,127
73260,note_off,51,0,0,,2,,,74,127
73262,note_on,2,0,0,,1,,,73,127
73313,note_off,51,0,0,,1,,,73,127
73315,note_on,2,0,0,,2,,,74,127
73366,note_off,51,0,0,,2,,,74,127
73368,note_on,2,0,0,,4,,,76,127
73419,note_off,51,0,0,,4,,,76,127
73421,note_on,2,0,0,,6,,,78,127
73421,note_on,0,0,0,,10,,,45,127
73472,note_off,51,0,0,,6,,,78,127
73474,note_on,2,0,0,,4,,,76,127
73525,note_off,51,0,0,,4,,,76,127
73527,note_on,2,0,0,,6,,,78,127
73578,note_off,51,0,0,,6,,,78,127
73580,note_on,2,0,0,,4,,,76,127
73631,note_off,51,0,0,,4,,,76,127
73633,note_on,2,0,0,,6,,,78,127
73684,note_off,51,0,0,,6,,,78,127
73686,note_on,2,0,0,,4,,,76,127
73737,note_off,51,0,0,,4,,,76,127
73739,note_on,2,0,0,,2,,,74,127
73843,note_off,104,0,0,,2,,,74,127
73843,note_off,0,0,0,,10,,,45,127
73844,note_off,1,0,0,,10,,,57,127
73845,note_on,1,0,0,,2,,,74,127
73845,note_on,0,0,0,,2,,,50,127
73949,note_off,104,0,0,,2,,,50,127
73951,note_on,2,0,0,,2,,,62,127
74055,note_off,104,0,0,,2,,,62,127
74057,note_on,2,0,0,,1,,,61,127
74161,note_off,104,0,0,,1,,,61,127
74163,note_on,2,0,0,,2,,,62,127
74267,note_off,104,0,0,,2,,,62,127
74269,note_on,2,0,0,,8,,,56,127
74373,note_off,104,0,0,,8,,,56,127
74375,note_on,2,0,0,,10,,,57,127
74479,note_off,104,0,0,,10,,,57,127
74481,note_on,2,0,0,,1,,,49,127
74585,note_off,104,0,0,,1,,,49,127
74587,note_on,2,0,0,,2,,,50,127
74691,note_off,104,0,0,,2,,,50,127
74691,note_off,0,0,0,,2,,,74,127
74693,note_on,2,0,0,,10,,,81,127
74693,note_on,0,0,0,,2,,,38,127
74797,note_off,104,0,0,,2,,,38,127
74799,note_on,2,0,0,,6,,,42,127
74903,note_off,104,0,0,,6,,,42,127
74905,note_on,2,0,0,,4,,,40,127
75009,note_off,104,0,0,,4,,,40,127
75011,note_on,2,0,0,,2,,,38,127
75115,note_off,104,0,0,,2,,,38,127
75117,note_on,2,0,0,,7,,,43,127
75221,note_off,104,0,0,,10,,,81,127
75223,note_on,2,0,0,,12,,,83,127
75327,note_off,104,0,0,,12,,,83,127
75329,note_on,2,0,0,,10,,,81,127
75433,note_off,104,0,0,,10,,,81,127
75435,note_on,2,0,0,,7,,,79,127
75539,note_off,104,0,0,,7,,,79,127
75539,note_off,0,0,0,,7,,,43,127
75541,note_on,2,0,0,,7,,,79,127
75541,note_on,0,0,0,,10,,,45,127
75645,note_off,104,0,0,,7,,,79,127
75647,note_on,2,0,0,,6,,,78,127
75751,note_off,104,0,0,,6,,,78,127
75753,note_on,2,0,0,,4,,,76,127
75857,note_off,104,0,0,,4,,,76,127
75859,note_on,2,0,0,,2,,,74,127
75963,note_off,104,0,0,,2,,,74,127
75963,note_off,0,0,0,,10,,,45,127
75965,note_on,2,0,0,,4,,,76,127
75965,note_on,0,0,0,,10,,,45,127
76069,note_off,104,0,0,,4,,,76,127
76071,note_on,2,0,0,,2,,,86,127
76175,note_off,104,0,0,,2,,,86,127
76177,note_on,2,0,0,,2,,,74,127
76281,note_off,104,0,0,,2,,,74,127
76283,note_on,2,0,0,,1,,,73,127
76387,note_off,104,0,0,,1,,,73,127
76387,note_off,0,0,0,,10,,,45,127
76389,note_on,2,0,0,,2,,,74,127
76389,note_on,0,0,0,,2,,,50,127
76493,note_off,104,0,0,,2,,,50,127
76495,note_on,2,0,0,,2,,,62,127
76599,note_off,104,0,0,,2,,,62,127
76601,note_on,2,0,0,,1,,,61,127
76705,note_off,104,0,0,,1,,,61,127
76707,note_on,2,0,0,,2,,,62,127
76811,note_off,104,0,0,,2,,,62,127
76813,note_on,2,0,0,,8,,,56,127
76917,note_off,104,0,0,,8,,,56,127
76919,note_on,2,0,0,,10,,,57,127
77023,note_off,104,0,0,,10,,,57,127
77024,note_off,1,0,0,,2,,,74,127
77025,note_on,1,0,0,,1,,,49,127
77129,note_off,104,0,0,,1,,,49,127
77131,note_on,2,0,0,,2,,,50,127
77235,note_off,104,0,0,,2,,,50,127
77237,note_on,2,0,0,,10,,,81,127
77237,note_on,0,0,0,,2,,,38,127
77341,note_off,104,0,0,,2,,,38,127
77343,note_on,2,0,0,,6,,,42,127
77447,note_off,104,0,0,,6,,,42,127
77449,note_on,2,0,0,,4,,,40,127
77553,note_off,104,0,0,,4,,,40,127
77555,note_on,2,0,0,,2,,,38,127
77659,note_off,104,0,0,,2,,,38,127
77661,note_on,2,0,0,,7,,,43,127
77765,note_off,104,0,0,,10,,,81,127
77767,note_on,2,0,0,,12,,,83,127
77871,note_off,104,0,0,,12,,,83,127
77873,note_on,2,0,0,,10,,,81,127
77977,note_off,104,0,0,,10,,,81,127
77979,note_on,2,0,0,,7,,,79,127
78083,note_off,104,0,0,,7,,,79,127
78083,note_off,0,0,0,,7,,,43,127
78085,note_on,2,0,0,,7,,,79,127
78085,note_on,0,0,0,,10,,,45,127
78189,note_off,104,0,0,,7,,,79,127
78191,note_on,2,0,0,,6,,,78,127
78295,note_off,104,0,0,,6,,,78,127
78297,note_on,2,0,0,,4,,,76,127
78401,note_off,104,0,0,,4,,,76,127
78403,note_on,2,0,0,,2,,,74,127
78507,note_off,104,0,0,,2,,,74,127
78507,note_off,0,0,0,,10,,,45,127
78509,note_on,2,0,0,,4,,,76,127
78509,note_on,0,0,0,,10,,,45,127
78613,note_off,104,0,0,,4,,,76,127
78615,note_on,2,0,0,,2,,,86,127
78719,note_off,104,0,0,,2,,,86,127
78721,note_on,2,0,0,,2,,,74,127
78825,note_off,104,0,0,,2,,,74,127
78827,note_on,2,0,0,,1,,,73,127
78931,note_off,104,0,0,,1,,,73,127
78931,note_off,0,0,0,,10,,,45,127
78933,note_on,2,0,0,,2,,,74,127
78933,note_on,0,0,0,,2,,,50,127
79037,note_off,104,0,0,,2,,,50,127
79039,note_on,2,0,0,,2,,,62,127
79143,note_off,104,0,0,,2,,,62,127
79145,note_on,2,0,0,,1,,,61,127
79249,note_off,104,0,0,,1,,,61,127
79251,note_on,2,0,0,,2,,,62,127
79353,note_off,102,0,0,,2,,,74,127
79355,note_off,2,0,0,,2,,,62,127
79357,note_on,2,0,0,,8,,,56,127
79461,note_off,104,0,0,,8,,,56,127
79463,note_on,2,0,0,,10,,,57,127
79567,note_off,104,0,0,,10,,,57,127
79569,note_on,2,0,0,,1,,,49,127
79673,note_off,104,0,0,,1,,,49,127
79675,note_on,2,0,0,,2,,,50,127
79779,note_off,104,0,0,,2,,,50,127
79781,note_on,2,0,0,,10,,,81,127
79781,note_on,0,0,0,,2,,,38,127
79885,note_off,104,0,0,,2,,,38,127
79887,note_on,2,0,0,,6,,,42,127
79991,note_off,104,0,0,,6,,,42,127
79993,note_on,2,0,0,,4,,,40,127
80097,note_off,104,0,0,,4,,,40,127
80099,note_on,2,0,0,,2,,,38,127
80203,note_off,104,0,0,,2,,,38,127
80205,note_on,2,0,0,,7,,,43,127
80309,note_off,104,0,0,,10,,,81,127
80311,note_on,2,0,0,,12,,,83,127
80415,note_off,104,0,0,,12,,,83,127
80417,note_on,2,0,0,,10,,,81,127
80521,note_off,104,0,0,,10,,,81,127
80523,note_on,2,0,0,,7,,,79,127
80627,note_off,104,0,0,,7,,,79,127
80627,note_off,0,0,0,,7,,,43,127
80629,note_on,2,0,0,,7,,,79,127
80629,note_on,0,0,0,,10,,,45,127
80733,note_off,104,0,0,,7,,,79,127
80735,note_on,2,0,0,,6,,,78,127
80839,note_off,104,0,0,,6,,,78,127
80841,note_on,2,0,0,,4,,,76,127
80945,note_off,104,0,0,,4,,,76,127
80947,note_on,2,0,0,,2,,,74,127
81051,note_off,104,0,0,,2,,,74,127
81051,note_off,0,0,0,,10,,,45,127
81053,note_on,2,0,0,,4,,,76,127
81053,note_on,0,0,0,,10,,,45,127
81157,note_off,104,0,0,,4,,,76,127
81159,note_on,2,0,0,,2,,,86,127
81263,note_off,104,0,0,,2,,,86,127
81265,note_on,2,0,0,,2,,,74,127
81369,note_off,104,0,0,,2,,,74,127
81371,note_on,2,0,0,,1,,,73,127
81475,note_off,104,0,0,,1,,,73,127
81475,note_off,0,0,0,,10,,,45,127
81477,note_on,2,0,0,,2,,,74,127
81477,note_on,0,0,0,,2,,,38,127
81581,note_off,104,0,0,,2,,,74,127
81583,note_on,2,0,0,,2,,,86,127
81687,note_off,104,0,0,,2,,,86,127
81689,note_on,2,0,0,,10,,,81,127
81793,note_off,104,0,0,,10,,,81,127
81795,note_on,2,0,0,,6,,,78,127
81899,note_off,104,0,0,,6,,,78,127
81899,note_off,0,0,0,,2,,,38,127
81901,note_on,2,0,0,,2,,,74,127
81901,note_on,0,0,0,,2,,,38,127
82005,note_off,104,0,0,,2,,,74,127
82007,note_on,2,0,0,,10,,,69,127
82111,note_off,104,0,0,,10,,,69,127
82113,note_on,2,0,0,,6,,,66,127
82217,note_off,104,0,0,,6,,,66,127
82219,note_on,2,0,0,,10,,,69,127
82323,note_off,104,0,0,,10,,,69,127
82323,note_off,0,0,0,,2,,,38,127
82325,note_on,2,0,0,,2,,,74,127
82325,note_on,0,0,0,,2,,,38,127
82429,note_off,104,0,0,,2,,,74,127
82431,note_on,2,0,0,,6,,,78,127
82535,note_off,104,0,0,,6,,,78,127
82537,note_on,2,0,0,,10,,,81,127
82641,note_off,104,0,0,,10,,,81,127
82643,note_on,2,0,0,,2,,,86,127
82747,note_off,104,0,0,,2,,,86,127
82747,note_off,0,0,0,,2,,,38,127
82749,note_on,2,0,0,,4,,,76,127
82749,note_on,0,0,0,,2,,,38,127
82813,note_on,64,0,0,,2,,,74,127
82820,note_off,7,0,0,,4,,,76,127
82879,note_on,59,0,0,,4,,,76,127
82885,note_off,6,0,0,,2,,,74,127
82943,note_on,58,0,0,,2,,,74,127
82951,note_off,8,0,0,,4,,,76,127
84883,note_off,1932,0,0,,2,,,38,127
84916,note_off,33,0,0,,2,,,74,127
86016,end_of_track,1100,1,0,,,,,,
