tick,type,time,meta,track,program,channel,pitch,tempo,note,velocity
0,copyright,0,1,0,,,,,,
0,program_change,0,0,0,6,0,,,,
0,pitchwheel,0,0,0,,0,0,,,
0,program_change,0,0,0,6,1,,,,
0,pitchwheel,0,0,0,,1,-590,,,
0,program_change,0,0,0,6,2,,,,
0,pitchwheel,0,0,0,,2,-272,,,
0,program_change,0,0,0,6,3,,,,
0,pitchwheel,0,0,0,,3,-353,,,
0,program_change,0,0,0,6,4,,,,
0,pitchwheel,0,0,0,,4,-560,,,
0,program_change,0,0,0,6,5,,,,
0,pitchwheel,0,0,0,,5,-80,,,
0,program_change,0,0,0,6,6,,,,
0,pitchwheel,0,0,0,,6,-625,,,
0,program_change,0,0,0,6,7,,,,
0,pitchwheel,0,0,0,,7,-130,,,
0,program_change,0,0,0,6,8,,,,
0,pitchwheel,0,0,0,,8,-512,,,
0,program_change,0,0,0,6,10,,,,
0,pitchwheel,0,0,0,,10,-464,,,
0,program_change,0,0,0,6,11,,,,
0,pitchwheel,0,0,0,,11,-208,,,
0,program_change,0,0,0,6,12,,,,
0,pitchwheel,0,0,0,,12,-553,,,
0,set_tempo,0,1,0,,,,500000,,
85,note_on,85,0,0,,2,,,62,127
85,note_on,0,0,0,,12,,,83,127
113,note_on,28,0,0,,10,,,81,127
126,note_off,13,0,0,,12,,,83,127
141,note_on,15,0,0,,12,,,83,127
154,note_off,13,0,0,,10,,,81,127
169,note_on,15,0,0,,10,,,81,127
182,note_off,13,0,0,,12,,,83,127
253,note_off,71,0,0,,2,,,62,127
254,note_on,1,0,0,,6,,,66,127
424,note_off,170,0,0,,6,,,66,127
424,note_off,0,0,0,,10,,,81,127
425,note_on,1,0,0,,2,,,62,127
425,note_on,0,0,0,,10,,,81,127
595,note_off,170,0,0,,10,,,81,127
595,note_off,0,0,0,,2,,,62,127
596,note_on,1,0,0,,1,,,61,127
596,note_on,0,0,0,,12,,,83,127
624,note_on,28,0,0,,10,,,81,127
637,note_off,13,0,0,,12,,,83,127
652,note_on,15,0,0,,12,,,83,127
665,note_off,13,0,0,,10,,,81,127
680,note_on,15,0,0,,10,,,81,127
693,note_off,13,0,0,,12,,,83,127
764,note_off,71,0,0,,1,,,61,127
765,note_on,1,0,0,,4,,,64,127
935,note_off,170,0,0,,4,,,64,127
935,note_off,0,0,0,,10,,,81,127
936,note_on,1,0,0,,10,,,57,127
936,note_on,0,0,0,,10,,,81,127
1106,note_off,170,0,0,,10,,,81,127
1106,note_off,0,0,0,,10,,,57,127
1107,note_on,1,0,0,,6,,,54,127
1107,note_on,0,0,0,,12,,,83,127
1135,note_on,28,0,0,,10,,,81,127
1148,note_off,13,0,0,,12,,,83,127
1163,note_on,15,0,0,,12,,,83,127
1176,note_off,13,0,0,,10,,,81,127
1191,note_on,15,0,0,,10,,,81,127
1204,note_off,13,0,0,,12,,,83,127
1275,note_off,71,0,0,,6,,,54,127
1276,note_on,1,0,0,,10,,,57,127
1446,note_off,170,0,0,,10,,,57,127
1446,note_off,0,0,0,,10,,,81,127
1447,note_on,1,0,0,,2,,,50,127
1447,note_on,0,0,0,,10,,,81,127
1617,note_off,170,0,0,,10,,,81,127
1617,note_off,0,0,0,,2,,,50,127
1618,note_on,1,0,0,,1,,,49,127
1618,note_on,0,0,0,,12,,,83,127
1646,note_on,28,0,0,,10,,,81,127
1659,note_off,13,0,0,,12,,,83,127
1674,note_on,15,0,0,,12,,,83,127
1687,note_off,13,0,0,,10,,,81,127
1702,note_on,15,0,0,,10,,,81,127
1715,note_off,13,0,0,,12,,,83,127
1786,note_off,71,0,0,,1,,,49,127
1787,note_on,1,0,0,,2,,,50,127
1957,note_off,170,0,0,,2,,,50,127
1957,note_off,0,0,0,,10,,,81,127
1958,note_on,1,0,0,,4,,,52,127
1958,note_on,0,0,0,,10,,,81,127
2128,note_off,170,0,0,,10,,,81,127
2128,note_off,0,0,0,,4,,,52,127
2129,note_on,1,0,0,,10,,,45,127
2129,note_on,0,0,0,,10,,,81,127
2213,note_off,84,0,0,,10,,,81,127
2214,note_on,1,0,0,,6,,,78,127
2298,note_off,84,0,0,,6,,,78,127
2299,note_on,1,0,0,,7,,,79,127
2383,note_off,84,0,0,,7,,,79,127
2384,note_on,1,0,0,,2,,,74,127
2468,note_off,84,0,0,,2,,,74,127
2469,note_on,1,0,0,,4,,,76,127
2553,note_off,84,0,0,,4,,,76,127
2554,note_on,1,0,0,,12,,,71,127
2638,note_off,84,0,0,,12,,,71,127
2638,note_off,0,0,0,,10,,,45,127
2639,note_on,1,0,0,,10,,,45,127
2639,note_on,0,0,0,,1,,,73,127
2723,note_off,84,0,0,,1,,,73,127
2724,note_on,1,0,0,,7,,,67,127
2808,note_off,84,0,0,,7,,,67,127
2809,note_on,1,0,0,,10,,,69,127
2893,note_off,84,0,0,,10,,,69,127
2894,note_on,1,0,0,,6,,,66,127
2978,note_off,84,0,0,,6,,,66,127
2979,note_on,1,0,0,,7,,,67,127
3063,note_off,84,0,0,,7,,,67,127
3064,note_on,1,0,0,,4,,,64,127
3148,note_off,84,0,0,,4,,,64,127
3148,note_off,0,0,0,,10,,,45,127
3149,note_on,1,0,0,,2,,,50,127
3149,note_on,0,0,0,,7,,,67,127
3191,note_off,42,0,0,,7,,,67,127
3192,note_on,1,0,0,,6,,,66,127
3234,note_off,42,0,0,,6,,,66,127
3235,note_on,1,0,0,,7,,,67,127
3277,note_off,42,0,0,,7,,,67,127
3278,note_on,1,0,0,,6,,,66,127
3320,note_off,42,0,0,,2,,,50,127
3321,note_on,1,0,0,,10,,,57,127
3491,note_off,170,0,0,,10,,,57,127
3492,note_off,1,0,0,,6,,,66,127
3492,note_on,0,0,0,,1,,,49,127
3492,note_on,0,0,0,,10,,,69,127
3662,note_off,170,0,0,,10,,,69,127
3662,note_off,0,0,0,,1,,,49,127
3663,note_on,1,0,0,,2,,,50,127
3663,note_on,0,0,0,,10,,,69,127
3833,note_off,170,0,0,,2,,,50,127
3834,note_on,1,0,0,,10,,,57,127
4004,note_off,170,0,0,,10,,,57,127
4004,note_off,0,0,0,,10,,,69,127
4005,note_on,1,0,0,,1,,,49,127
4005,note_on,0,0,0,,11,,,70,127
4175,note_off,170,0,0,,11,,,70,127
4175,note_off,0,0,0,,1,,,49,127
4176,note_on,1,0,0,,12,,,47,127
4176,note_on,0,0,0,,12,,,71,127
4346,note_off,170,0,0,,12,,,47,127
4347,note_on,1,0,0,,12,,,59,127
4517,note_off,170,0,0,,12,,,59,127
4517,note_off,0,0,0,,12,,,71,127
4518,note_on,1,0,0,,10,,,57,127
4518,note_on,0,0,0,,1,,,73,127
4688,note_off,170,0,0,,1,,,73,127
4688,note_off,0,0,0,,10,,,57,127
4689,note_on,1,0,0,,7,,,55,127
4689,note_on,0,0,0,,2,,,74,127
4859,note_off,170,0,0,,7,,,55,127
4860,note_on,1,0,0,,12,,,59,127
5030,note_off,170,0,0,,12,,,59,127
5030,note_off,0,0,0,,2,,,74,127
5031,note_on,1,0,0,,6,,,54,127
5031,note_on,0,0,0,,3,,,75,127
5201,note_off,170,0,0,,3,,,75,127
5201,note_off,0,0,0,,6,,,54,127
5202,note_on,1,0,0,,4,,,52,127
5202,note_on,0,0,0,,4,,,76,127
5372,note_off,170,0,0,,4,,,52,127
5373,note_on,1,0,0,,4,,,64,127
5543,note_off,170,0,0,,4,,,64,127
5543,note_off,0,0,0,,4,,,76,127
5544,note_on,1,0,0,,2,,,62,127
5544,note_on,0,0,0,,6,,,78,127
5714,note_off,170,0,0,,6,,,78,127
5714,note_off,0,0,0,,2,,,62,127
5715,note_on,1,0,0,,1,,,61,127
5715,note_on,0,0,0,,7,,,79,127
5885,note_off,170,0,0,,1,,,61,127
5886,note_on,1,0,0,,4,,,64,127
6056,note_off,170,0,0,,4,,,64,127
6056,note_off,0,0,0,,7,,,79,127
6057,note_on,1,0,0,,12,,,59,127
6057,note_on,0,0,0,,8,,,80,127
6227,note_off,170,0,0,,8,,,80,127
6227,note_off,0,0,0,,12,,,59,127
6228,note_on,1,0,0,,10,,,57,127
6228,note_on,0,0,0,,10,,,81,127
6312,note_off,84,0,0,,10,,,81,127
6313,note_on,1,0,0,,4,,,76,127
6397,note_off,84,0,0,,4,,,76,127
6398,note_on,1,0,0,,6,,,78,127
6482,note_off,84,0,0,,6,,,78,127
6483,note_on,1,0,0,,1,,,73,127
6567,note_off,84,0,0,,1,,,73,127
6567,note_off,0,0,0,,10,,,57,127
6568,note_on,1,0,0,,10,,,57,127
6568,note_on,0,0,0,,2,,,74,127
6652,note_off,84,0,0,,2,,,74,127
6653,note_on,1,0,0,,12,,,71,127
6737,note_off,84,0,0,,12,,,71,127
6737,note_off,0,0,0,,10,,,57,127
6738,note_on,1,0,0,,8,,,56,127
6738,note_on,0,0,0,,4,,,76,127
6822,note_off,84,0,0,,4,,,76,127
6823,note_on,1,0,0,,6,,,78,127
6907,note_off,84,0,0,,6,,,78,127
6908,note_on,1,0,0,,4,,,76,127
6992,note_off,84,0,0,,4,,,76,127
6993,note_on,1,0,0,,2,,,74,127
7077,note_off,84,0,0,,2,,,74,127
7077,note_off,0,0,0,,8,,,56,127
7078,note_on,1,0,0,,8,,,56,127
7078,note_on,0,0,0,,1,,,73,127
7162,note_off,84,0,0,,1,,,73,127
7163,note_on,1,0,0,,12,,,71,127
7247,note_off,84,0,0,,12,,,71,127
7247,note_off,0,0,0,,8,,,56,127
7248,note_on,1,0,0,,10,,,69,127
7248,note_on,0,0,0,,1,,,73,127
7332,note_off,84,0,0,,10,,,69,127
7333,note_on,1,0,0,,4,,,64,127
7417,note_off,84,0,0,,4,,,64,127
7418,note_on,1,0,0,,6,,,66,127
7502,note_off,84,0,0,,6,,,66,127
7503,note_on,1,0,0,,1,,,61,127
7587,note_off,84,0,0,,1,,,61,127
7587,note_off,0,0,0,,1,,,73,127
7588,note_on,1,0,0,,2,,,62,127
7588,note_on,0,0,0,,1,,,73,127
7672,note_off,84,0,0,,2,,,62,127
7673,note_on,1,0,0,,12,,,59,127
7757,note_off,84,0,0,,12,,,59,127
7757,note_off,0,0,0,,1,,,73,127
7758,note_on,1,0,0,,4,,,64,127
7758,note_on,0,0,0,,12,,,71,127
7842,note_off,84,0,0,,4,,,64,127
7843,note_on,1,0,0,,6,,,66,127
7927,note_off,84,0,0,,6,,,66,127
7928,note_on,1,0,0,,4,,,64,127
8012,note_off,84,0,0,,4,,,64,127
8013,note_on,1,0,0,,2,,,62,127
8097,note_off,84,0,0,,2,,,62,127
8097,note_off,0,0,0,,12,,,71,127
8098,note_on,1,0,0,,1,,,61,127
8098,note_on,0,0,0,,12,,,71,127
8182,note_off,84,0,0,,1,,,61,127
8183,note_on,1,0,0,,12,,,59,127
8267,note_off,84,0,0,,12,,,59,127
8267,note_off,0,0,0,,12,,,71,127
8268,note_on,1,0,0,,10,,,57,127
8268,note_on,0,0,0,,1,,,73,127
8352,note_off,84,0,0,,10,,,57,127
8353,note_on,1,0,0,,8,,,56,127
8437,note_off,84,0,0,,8,,,56,127
8438,note_on,1,0,0,,6,,,54,127
8522,note_off,84,0,0,,6,,,54,127
8523,note_on,1,0,0,,4,,,52,127
8607,note_off,84,0,0,,4,,,52,127
8607,note_off,0,0,0,,1,,,73,127
8608,note_on,1,0,0,,2,,,50,127
8608,note_on,0,0,0,,1,,,73,127
8692,note_off,84,0,0,,2,,,50,127
8693,note_on,1,0,0,,1,,,49,127
8777,note_off,84,0,0,,1,,,49,127
8777,note_off,0,0,0,,1,,,73,127
8778,note_on,1,0,0,,12,,,47,127
8778,note_on,0,0,0,,2,,,74,127
8862,note_off,84,0,0,,12,,,47,127
8863,note_on,1,0,0,,10,,,45,127
8947,note_off,84,0,0,,10,,,45,127
8948,note_on,1,0,0,,8,,,44,127
9032,note_off,84,0,0,,8,,,44,127
9033,note_on,1,0,0,,6,,,42,127
9117,note_off,84,0,0,,6,,,42,127
9117,note_off,0,0,0,,2,,,74,127
9118,note_on,1,0,0,,4,,,40,127
9118,note_on,0,0,0,,3,,,75,127
9203,note_on,85,0,0,,4,,,52,127
9287,note_off,84,0,0,,4,,,40,127
9288,note_off,1,0,0,,4,,,52,127
9288,note_off,0,0,0,,3,,,75,127
9289,note_on,1,0,0,,4,,,40,127
9289,note_on,0,0,0,,6,,,78,127
9331,note_off,42,0,0,,6,,,78,127
9332,note_on,1,0,0,,4,,,76,127
9374,note_off,42,0,0,,4,,,76,127
9375,note_on,1,0,0,,6,,,78,127
9417,note_off,42,0,0,,6,,,78,127
9418,note_on,1,0,0,,4,,,76,127
9973,note_off,555,0,0,,4,,,40,127
10229,note_off,256,0,0,,4,,,76,127
10314,note_on,85,0,0,,4,,,64,127
10314,note_on,0,0,0,,4,,,76,127
10484,note_off,170,0,0,,4,,,64,127
10485,note_on,1,0,0,,10,,,69,127
10655,note_off,170,0,0,,10,,,69,127
10656,note_on,1,0,0,,0,,,72,127
10826,note_off,170,0,0,,0,,,72,127
10826,note_off,0,0,0,,4,,,76,127
10827,note_on,1,0,0,,4,,,64,127
10827,note_on,0,0,0,,5,,,77,127
10827,note_on,0,0,0,,8,,,80,127
10997,note_off,170,0,0,,4,,,64,127
10998,note_on,1,0,0,,12,,,71,127
11168,note_off,170,0,0,,12,,,71,127
11169,note_on,1,0,0,,2,,,74,127
11339,note_off,170,0,0,,2,,,74,127
11339,note_off,0,0,0,,8,,,80,127
11339,note_off,0,0,0,,5,,,77,127
11340,note_on,1,0,0,,4,,,64,127
11340,note_on,0,0,0,,4,,,76,127
11510,note_off,170,0,0,,4,,,64,127
11511,note_on,1,0,0,,10,,,69,127
11681,note_off,170,0,0,,10,,,69,127
11682,note_on,1,0,0,,0,,,72,127
11852,note_off,170,0,0,,0,,,72,127
11852,note_off,0,0,0,,4,,,76,127
11853,note_on,1,0,0,,4,,,64,127
11853,note_on,0,0,0,,5,,,77,127
11853,note_on,0,0,0,,8,,,80,127
12023,note_off,170,0,0,,4,,,64,127
12024,note_on,1,0,0,,12,,,71,127
12194,note_off,170,0,0,,12,,,71,127
12195,note_on,1,0,0,,2,,,74,127
12365,note_off,170,0,0,,2,,,74,127
12365,note_off,0,0,0,,8,,,80,127
12365,note_off,0,0,0,,5,,,77,127
12366,note_on,1,0,0,,4,,,64,127
12366,note_on,0,0,0,,4,,,76,127
12536,note_off,170,0,0,,4,,,64,127
12537,note_on,1,0,0,,10,,,69,127
12707,note_off,170,0,0,,10,,,69,127
12708,note_on,1,0,0,,0,,,72,127
12878,note_off,170,0,0,,0,,,72,127
12878,note_off,0,0,0,,4,,,76,127
12879,note_on,1,0,0,,2,,,62,127
12879,note_on,0,0,0,,3,,,75,127
12879,note_on,0,0,0,,6,,,78,127
13049,note_off,170,0,0,,2,,,62,127
13050,note_on,1,0,0,,10,,,69,127
13220,note_off,170,0,0,,10,,,69,127
13221,note_on,1,0,0,,0,,,72,127
13391,note_off,170,0,0,,0,,,72,127
13391,note_off,0,0,0,,6,,,78,127
13391,note_off,0,0,0,,3,,,75,127
13392,note_on,1,0,0,,2,,,62,127
13392,note_on,0,0,0,,2,,,74,127
13562,note_off,170,0,0,,2,,,62,127
13563,note_on,1,0,0,,7,,,67,127
13733,note_off,170,0,0,,7,,,67,127
13734,note_on,1,0,0,,11,,,70,127
13904,note_off,170,0,0,,11,,,70,127
13904,note_off,0,0,0,,2,,,74,127
13905,note_on,1,0,0,,2,,,62,127
13905,note_on,0,0,0,,3,,,75,127
13905,note_on,0,0,0,,6,,,78,127
14075,note_off,170,0,0,,2,,,62,127
14076,note_on,1,0,0,,10,,,69,127
14246,note_off,170,0,0,,10,,,69,127
14247,note_on,1,0,0,,0,,,72,127
14417,note_off,170,0,0,,0,,,72,127
14417,note_off,0,0,0,,6,,,78,127
14417,note_off,0,0,0,,3,,,75,127
14418,note_on,1,0,0,,2,,,62,127
14418,note_on,0,0,0,,2,,,74,127
14588,note_off,170,0,0,,2,,,62,127
14589,note_on,1,0,0,,7,,,67,127
14759,note_off,170,0,0,,7,,,67,127
14760,note_on,1,0,0,,11,,,70,127
14930,note_off,170,0,0,,11,,,70,127
14930,note_off,0,0,0,,2,,,74,127
14931,note_on,1,0,0,,2,,,62,127
14931,note_on,0,0,0,,6,,,78,127
14931,note_on,0,0,0,,3,,,75,127
15101,note_off,170,0,0,,2,,,62,127
15102,note_on,1,0,0,,10,,,69,127
15272,note_off,170,0,0,,10,,,69,127
15273,note_on,1,0,0,,0,,,72,127
15443,note_off,170,0,0,,0,,,72,127
15443,note_off,0,0,0,,3,,,75,127
15443,note_off,0,0,0,,6,,,78,127
15444,note_on,1,0,0,,2,,,62,127
15444,note_on,0,0,0,,7,,,79,127
15614,note_off,170,0,0,,2,,,62,127
15615,note_on,1,0,0,,7,,,67,127
15785,note_off,170,0,0,,7,,,67,127
15786,note_on,1,0,0,,11,,,70,127
15956,note_off,170,0,0,,11,,,70,127
15956,note_off,0,0,0,,7,,,79,127
15957,note_on,1,0,0,,1,,,61,127
15957,note_on,0,0,0,,4,,,76,127
15957,note_on,0,0,0,,7,,,79,127
16127,note_off,170,0,0,,1,,,61,127
16128,note_on,1,0,0,,7,,,67,127
16298,note_off,170,0,0,,7,,,67,127
16299,note_on,1,0,0,,10,,,69,127
16469,note_off,170,0,0,,10,,,69,127
16469,note_off,0,0,0,,7,,,79,127
16469,note_off,0,0,0,,4,,,76,127
16470,note_on,1,0,0,,1,,,61,127
16470,note_on,0,0,0,,4,,,76,127
16470,note_on,0,0,0,,7,,,79,127
16640,note_off,170,0,0,,1,,,61,127
16641,note_on,1,0,0,,7,,,67,127
16811,note_off,170,0,0,,7,,,67,127
16812,note_on,1,0,0,,10,,,69,127
16982,note_off,170,0,0,,10,,,69,127
16982,note_off,0,0,0,,7,,,79,127
16982,note_off,0,0,0,,4,,,76,127
16983,note_on,1,0,0,,12,,,59,127
16983,note_on,0,0,0,,4,,,76,127
16983,note_on,0,0,0,,7,,,79,127
17153,note_off,170,0,0,,12,,,59,127
17154,note_on,1,0,0,,4,,,64,127
17324,note_off,170,0,0,,4,,,64,127
17325,note_on,1,0,0,,7,,,67,127
17495,note_off,170,0,0,,7,,,67,127
17495,note_off,0,0,0,,7,,,79,127
17495,note_off,0,0,0,,4,,,76,127
17496,note_on,1,0,0,,12,,,59,127
17496,note_on,0,0,0,,7,,,79,127
17496,note_on,0,0,0,,4,,,76,127
17666,note_off,170,0,0,,12,,,59,127
17667,note_on,1,0,0,,4,,,64,127
17837,note_off,170,0,0,,4,,,64,127
17838,note_on,1,0,0,,7,,,67,127
18008,note_off,170,0,0,,7,,,67,127
18008,note_off,0,0,0,,4,,,76,127
18008,note_off,0,0,0,,7,,,79,127
18009,note_on,1,0,0,,10,,,57,127
18009,note_on,0,0,0,,4,,,76,127
18009,note_on,0,0,0,,7,,,79,127
18179,note_off,170,0,0,,10,,,57,127
18180,note_on,1,0,0,,4,,,64,127
18350,note_off,170,0,0,,4,,,64,127
18351,note_on,1,0,0,,7,,,67,127
18521,note_off,170,0,0,,7,,,67,127
18521,note_off,0,0,0,,7,,,79,127
18521,note_off,0,0,0,,4,,,76,127
18522,note_on,1,0,0,,10,,,57,127
18522,note_on,0,0,0,,6,,,78,127
18522,note_on,0,0,0,,2,,,74,127
18692,note_off,170,0,0,,10,,,57,127
18693,note_on,1,0,0,,2,,,62,127
18863,note_off,170,0,0,,2,,,62,127
18864,note_on,1,0,0,,6,,,66,127
19034,note_off,170,0,0,,6,,,66,127
19034,note_off,0,0,0,,2,,,74,127
19034,note_off,0,0,0,,6,,,78,127
19035,note_on,1,0,0,,8,,,56,127
19035,note_on,0,0,0,,4,,,76,127
19035,note_on,0,0,0,,2,,,74,127
19205,note_off,170,0,0,,8,,,56,127
19206,note_on,1,0,0,,2,,,62,127
19376,note_off,170,0,0,,2,,,62,127
19377,note_on,1,0,0,,4,,,64,127
19547,note_off,170,0,0,,4,,,64,127
19547,note_off,0,0,0,,2,,,74,127
19547,note_off,0,0,0,,4,,,76,127
19548,note_on,1,0,0,,8,,,56,127
19548,note_on,0,0,0,,2,,,74,127
19548,note_on,0,0,0,,12,,,83,127
19548,note_on,0,0,0,,4,,,76,127
19718,note_off,170,0,0,,8,,,56,127
19719,note_on,1,0,0,,2,,,62,127
19889,note_off,170,0,0,,2,,,62,127
19890,note_on,1,0,0,,4,,,64,127
20060,note_off,170,0,0,,4,,,64,127
20060,note_off,0,0,0,,4,,,76,127
20060,note_off,0,0,0,,12,,,83,127
20060,note_off,0,0,0,,2,,,74,127
20061,note_on,1,0,0,,7,,,55,127
20061,note_on,0,0,0,,1,,,85,127
20061,note_on,0,0,0,,4,,,76,127
20231,note_off,170,0,0,,7,,,55,127
20232,note_on,1,0,0,,2,,,62,127
20402,note_off,170,0,0,,2,,,62,127
20403,note_on,1,0,0,,4,,,64,127
20573,note_off,170,0,0,,4,,,64,127
20573,note_off,0,0,0,,4,,,76,127
20573,note_off,0,0,0,,1,,,85,127
20574,note_on,1,0,0,,6,,,54,127
20574,note_on,0,0,0,,2,,,74,127
20574,note_on,0,0,0,,2,,,86,127
20574,note_on,0,0,0,,6,,,78,127
20744,note_off,170,0,0,,6,,,54,127
20745,note_on,1,0,0,,10,,,57,127
20915,note_off,170,0,0,,10,,,57,127
20916,note_on,1,0,0,,4,,,64,127
21086,note_off,170,0,0,,4,,,64,127
21086,note_off,0,0,0,,6,,,78,127
21086,note_off,0,0,0,,2,,,86,127
21086,note_off,0,0,0,,2,,,74,127
21087,note_on,1,0,0,,4,,,52,127
21087,note_on,0,0,0,,2,,,74,127
21087,note_on,0,0,0,,2,,,86,127
21087,note_on,0,0,0,,8,,,80,127
21257,note_off,170,0,0,,4,,,52,127
21258,note_on,1,0,0,,12,,,59,127
21428,note_off,170,0,0,,12,,,59,127
21429,note_on,1,0,0,,4,,,64,127
21599,note_off,170,0,0,,4,,,64,127
21599,note_off,0,0,0,,8,,,80,127
21599,note_off,0,0,0,,2,,,86,127
21599,note_off,0,0,0,,2,,,74,127
21600,note_on,1,0,0,,10,,,45,127
21600,note_on,0,0,0,,10,,,57,127
21600,note_on,0,0,0,,1,,,85,127
21600,note_on,0,0,0,,4,,,76,127
21684,note_off,84,0,0,,4,,,76,127
21684,note_off,0,0,0,,1,,,85,127
21685,note_on,1,0,0,,12,,,83,127
21769,note_off,84,0,0,,12,,,83,127
21770,note_on,1,0,0,,10,,,81,127
21854,note_off,84,0,0,,10,,,81,127
21855,note_on,1,0,0,,8,,,80,127
21939,note_off,84,0,0,,8,,,80,127
21940,note_on,1,0,0,,6,,,78,127
22024,note_off,84,0,0,,6,,,78,127
22025,note_on,1,0,0,,4,,,76,127
22109,note_off,84,0,0,,4,,,76,127
22109,note_off,0,0,0,,10,,,57,127
22109,note_off,0,0,0,,10,,,45,127
22110,note_on,1,0,0,,2,,,50,127
22110,note_on,0,0,0,,6,,,78,127
22194,note_off,84,0,0,,6,,,78,127
22195,note_on,1,0,0,,4,,,76,127
22279,note_off,84,0,0,,4,,,76,127
22280,note_on,1,0,0,,2,,,74,127
22364,note_off,84,0,0,,2,,,74,127
22365,note_on,1,0,0,,1,,,73,127
22449,note_off,84,0,0,,1,,,73,127
22450,note_on,1,0,0,,12,,,71,127
22534,note_off,84,0,0,,12,,,71,127
22535,note_on,1,0,0,,10,,,69,127
22619,note_off,84,0,0,,10,,,69,127
22619,note_off,0,0,0,,2,,,50,127
22620,note_on,1,0,0,,4,,,52,127
22620,note_on,0,0,0,,10,,,69,127
22662,note_off,42,0,0,,10,,,69,127
22663,note_on,1,0,0,,8,,,68,127
22705,note_off,42,0,0,,8,,,68,127
22706,note_on,1,0,0,,10,,,69,127
22748,note_off,42,0,0,,10,,,69,127
22749,note_on,1,0,0,,8,,,68,127
22791,note_off,42,0,0,,4,,,52,127
22792,note_on,1,0,0,,4,,,64,127
22962,note_off,170,0,0,,4,,,64,127
22963,note_off,1,0,0,,8,,,68,127
22963,note_on,0,0,0,,1,,,61,127
22963,note_on,0,0,0,,4,,,64,127
23133,note_off,170,0,0,,4,,,64,127
23133,note_off,0,0,0,,1,,,61,127
23134,note_on,1,0,0,,2,,,50,127
23134,note_on,0,0,0,,6,,,66,127
23304,note_off,170,0,0,,2,,,50,127
23305,note_on,1,0,0,,2,,,62,127
23475,note_off,170,0,0,,2,,,62,127
23475,note_off,0,0,0,,6,,,66,127
23476,note_on,1,0,0,,12,,,59,127
23476,note_on,0,0,0,,8,,,68,127
23646,note_off,170,0,0,,8,,,68,127
23646,note_off,0,0,0,,12,,,59,127
23647,note_on,1,0,0,,1,,,61,127
23647,note_on,0,0,0,,10,,,69,127
23817,note_off,170,0,0,,1,,,61,127
23818,note_on,1,0,0,,4,,,64,127
23988,note_off,170,0,0,,4,,,64,127
23988,note_off,0,0,0,,10,,,69,127
23989,note_on,1,0,0,,8,,,56,127
23989,note_on,0,0,0,,12,,,71,127
24159,note_off,170,0,0,,12,,,71,127
24159,note_off,0,0,0,,8,,,56,127
24160,note_on,1,0,0,,10,,,57,127
24160,note_on,0,0,0,,1,,,73,127
24330,note_off,170,0,0,,10,,,57,127
24331,note_on,1,0,0,,4,,,64,127
24501,note_off,170,0,0,,4,,,64,127
24501,note_off,0,0,0,,1,,,73,127
24502,note_on,1,0,0,,6,,,54,127
24502,note_on,0,0,0,,3,,,75,127
24672,note_off,170,0,0,,3,,,75,127
24672,note_off,0,0,0,,6,,,54,127
24673,note_on,1,0,0,,4,,,52,127
24673,note_on,0,0,0,,4,,,76,127
24843,note_off,170,0,0,,4,,,52,127
24844,note_on,1,0,0,,12,,,59,127
25014,note_off,170,0,0,,12,,,59,127
25014,note_off,0,0,0,,4,,,76,127
25015,note_on,1,0,0,,2,,,50,127
25015,note_on,0,0,0,,8,,,80,127
25185,note_off,170,0,0,,8,,,80,127
25185,note_off,0,0,0,,2,,,50,127
25186,note_on,1,0,0,,1,,,49,127
25186,note_on,0,0,0,,10,,,81,127
25356,note_off,170,0,0,,1,,,49,127
25357,note_on,1,0,0,,10,,,57,127
25527,note_off,170,0,0,,10,,,57,127
25527,note_off,0,0,0,,10,,,81,127
25528,note_on,1,0,0,,12,,,47,127
25528,note_on,0,0,0,,2,,,86,127
25698,note_off,170,0,0,,2,,,86,127
25698,note_off,0,0,0,,12,,,47,127
25699,note_on,1,0,0,,10,,,45,127
25699,note_on,0,0,0,,1,,,85,127
25783,note_off,84,0,0,,1,,,85,127
25784,note_on,1,0,0,,12,,,83,127
25868,note_off,84,0,0,,12,,,83,127
25869,note_on,1,0,0,,10,,,81,127
25953,note_off,84,0,0,,10,,,81,127
25954,note_on,1,0,0,,8,,,80,127
26038,note_off,84,0,0,,8,,,80,127
26038,note_off,0,0,0,,10,,,45,127
26039,note_on,1,0,0,,1,,,49,127
26039,note_on,0,0,0,,6,,,78,127
26123,note_off,84,0,0,,6,,,78,127
26124,note_on,1,0,0,,4,,,76,127
26208,note_off,84,0,0,,4,,,76,127
26208,note_off,0,0,0,,1,,,49,127
26209,note_on,1,0,0,,2,,,50,127
26209,note_on,0,0,0,,2,,,74,127
26293,note_off,84,0,0,,2,,,74,127
26294,note_on,1,0,0,,1,,,73,127
26378,note_off,84,0,0,,1,,,73,127
26379,note_on,1,0,0,,12,,,71,127
26463,note_off,84,0,0,,12,,,71,127
26464,note_on,1,0,0,,10,,,69,127
26548,note_off,84,0,0,,10,,,69,127
26548,note_off,0,0,0,,2,,,50,127
26549,note_on,1,0,0,,4,,,52,127
26549,note_on,0,0,0,,8,,,68,127
26633,note_off,84,0,0,,8,,,68,127
26634,note_on,1,0,0,,12,,,71,127
26718,note_off,84,0,0,,12,,,71,127
26718,note_off,0,0,0,,4,,,52,127
26719,note_on,1,0,0,,10,,,45,127
26719,note_on,0,0,0,,10,,,69,127
26889,note_off,170,0,0,,10,,,45,127
26890,note_on,1,0,0,,10,,,57,127
27060,note_off,170,0,0,,10,,,57,127
27060,note_off,0,0,0,,10,,,69,127
27061,note_on,1,0,0,,1,,,61,127
27061,note_on,0,0,0,,4,,,64,127
27231,note_off,170,0,0,,4,,,64,127
27231,note_off,0,0,0,,1,,,61,127
27232,note_on,1,0,0,,2,,,50,127
27232,note_on,0,0,0,,6,,,66,127
27402,note_off,170,0,0,,2,,,50,127
27403,note_on,1,0,0,,2,,,62,127
27573,note_off,170,0,0,,2,,,62,127
27573,note_off,0,0,0,,6,,,66,127
27574,note_on,1,0,0,,12,,,59,127
27574,note_on,0,0,0,,8,,,68,127
27744,note_off,170,0,0,,8,,,68,127
27744,note_off,0,0,0,,12,,,59,127
27745,note_on,1,0,0,,1,,,61,127
27745,note_on,0,0,0,,10,,,69,127
27915,note_off,170,0,0,,1,,,61,127
27916,note_on,1,0,0,,4,,,64,127
28086,note_off,170,0,0,,4,,,64,127
28086,note_off,0,0,0,,10,,,69,127
28087,note_on,1,0,0,,8,,,56,127
28087,note_on,0,0,0,,12,,,71,127
28257,note_off,170,0,0,,12,,,71,127
28257,note_off,0,0,0,,8,,,56,127
28258,note_on,1,0,0,,10,,,57,127
28258,note_on,0,0,0,,1,,,73,127
28428,note_off,170,0,0,,10,,,57,127
28429,note_on,1,0,0,,4,,,64,127
28599,note_off,170,0,0,,4,,,64,127
28599,note_off,0,0,0,,1,,,73,127
28600,note_on,1,0,0,,6,,,54,127
28600,note_on,0,0,0,,3,,,75,127
28770,note_off,170,0,0,,3,,,75,127
28770,note_off,0,0,0,,6,,,54,127
28771,note_on,1,0,0,,4,,,52,127
28771,note_on,0,0,0,,4,,,76,127
28941,note_off,170,0,0,,4,,,52,127
28942,note_on,1,0,0,,12,,,59,127
29112,note_off,170,0,0,,12,,,59,127
29112,note_off,0,0,0,,4,,,76,127
29113,note_on,1,0,0,,2,,,50,127
29113,note_on,0,0,0,,8,,,80,127
29283,note_off,170,0,0,,8,,,80,127
29283,note_off,0,0,0,,2,,,50,127
29284,note_on,1,0,0,,1,,,49,127
29284,note_on,0,0,0,,10,,,81,127
29454,note_off,170,0,0,,1,,,49,127
29455,note_on,1,0,0,,10,,,57,127
29625,note_off,170,0,0,,10,,,57,127
29625,note_off,0,0,0,,10,,,81,127
29626,note_on,1,0,0,,12,,,47,127
29626,note_on,0,0,0,,2,,,86,127
29796,note_off,170,0,0,,2,,,86,127
29796,note_off,0,0,0,,12,,,47,127
29797,note_on,1,0,0,,10,,,45,127
29797,note_on,0,0,0,,1,,,85,127
29881,note_off,84,0,0,,1,,,85,127
29882,note_on,1,0,0,,12,,,83,127
29966,note_off,84,0,0,,12,,,83,127
29967,note_on,1,0,0,,10,,,81,127
30051,note_off,84,0,0,,10,,,81,127
30052,note_on,1,0,0,,8,,,80,127
30136,note_off,84,0,0,,8,,,80,127
30136,note_off,0,0,0,,10,,,45,127
30137,note_on,1,0,0,,1,,,49,127
30137,note_on,0,0,0,,6,,,78,127
30221,note_off,84,0,0,,6,,,78,127
30222,note_on,1,0,0,,4,,,76,127
30306,note_off,84,0,0,,4,,,76,127
30306,note_off,0,0,0,,1,,,49,127
30307,note_on,1,0,0,,2,,,50,127
30307,note_on,0,0,0,,2,,,74,127
30391,note_off,84,0,0,,2,,,74,127
30392,note_on,1,0,0,,1,,,73,127
30476,note_off,84,0,0,,1,,,73,127
30477,note_on,1,0,0,,12,,,71,127
30561,note_off,84,0,0,,12,,,71,127
30562,note_on,1,0,0,,10,,,69,127
30646,note_off,84,0,0,,10,,,69,127
30646,note_off,0,0,0,,2,,,50,127
30647,note_on,1,0,0,,4,,,52,127
30647,note_on,0,0,0,,8,,,68,127
30731,note_off,84,0,0,,8,,,68,127
30732,note_on,1,0,0,,12,,,71,127
30816,note_off,84,0,0,,12,,,71,127
30816,note_off,0,0,0,,4,,,52,127
30817,note_on,1,0,0,,10,,,57,127
30817,note_on,0,0,0,,10,,,69,127
30901,note_off,84,0,0,,10,,,57,127
30902,note_on,1,0,0,,12,,,59,127
30986,note_off,84,0,0,,12,,,59,127
30987,note_on,1,0,0,,1,,,61,127
31071,note_off,84,0,0,,1,,,61,127
31072,note_on,1,0,0,,2,,,62,127
31156,note_off,84,0,0,,2,,,62,127
31156,note_off,0,0,0,,10,,,69,127
31157,note_on,1,0,0,,2,,,62,127
31157,note_on,0,0,0,,4,,,76,127
31241,note_off,84,0,0,,2,,,62,127
31242,note_on,1,0,0,,4,,,64,127
31326,note_off,84,0,0,,4,,,64,127
31326,note_off,0,0,0,,4,,,76,127
31327,note_on,1,0,0,,4,,,40,127
31327,note_on,0,0,0,,2,,,86,127
31497,note_off,170,0,0,,2,,,86,127
31498,note_on,1,0,0,,4,,,76,127
31668,note_off,170,0,0,,4,,,76,127
31669,note_on,1,0,0,,4,,,76,127
31839,note_off,170,0,0,,4,,,76,127
31839,note_off,0,0,0,,4,,,40,127
31840,note_on,1,0,0,,10,,,57,127
31840,note_on,0,0,0,,1,,,85,127
31924,note_off,84,0,0,,10,,,57,127
31925,note_on,1,0,0,,12,,,59,127
32009,note_off,84,0,0,,12,,,59,127
32009,note_off,0,0,0,,1,,,85,127
32010,note_on,1,0,0,,1,,,61,127
32010,note_on,0,0,0,,4,,,76,127
32094,note_off,84,0,0,,1,,,61,127
32095,note_on,1,0,0,,2,,,62,127
32179,note_off,84,0,0,,2,,,62,127
32179,note_off,0,0,0,,4,,,76,127
32180,note_on,1,0,0,,2,,,62,127
32180,note_on,0,0,0,,4,,,76,127
32264,note_off,84,0,0,,2,,,62,127
32265,note_on,1,0,0,,4,,,64,127
32349,note_off,84,0,0,,4,,,64,127
32349,note_off,0,0,0,,4,,,76,127
32350,note_on,1,0,0,,4,,,40,127
32350,note_on,0,0,0,,2,,,86,127
32520,note_off,170,0,0,,2,,,86,127
32521,note_on,1,0,0,,4,,,76,127
32691,note_off,170,0,0,,4,,,76,127
32692,note_on,1,0,0,,4,,,76,127
32862,note_off,170,0,0,,4,,,76,127
32862,note_off,0,0,0,,4,,,40,127
32863,note_on,1,0,0,,10,,,57,127
32863,note_on,0,0,0,,1,,,85,127
32947,note_off,84,0,0,,10,,,57,127
32948,note_on,1,0,0,,12,,,59,127
33032,note_off,84,0,0,,12,,,59,127
33032,note_off,0,0,0,,1,,,85,127
33033,note_on,1,0,0,,1,,,61,127
33033,note_on,0,0,0,,4,,,76,127
33117,note_off,84,0,0,,1,,,61,127
33118,note_on,1,0,0,,2,,,62,127
33202,note_off,84,0,0,,2,,,62,127
33202,note_off,0,0,0,,4,,,76,127
33203,note_on,1,0,0,,2,,,62,127
33203,note_on,0,0,0,,4,,,76,127
33287,note_off,84,0,0,,2,,,62,127
33288,note_on,1,0,0,,4,,,64,127
33372,note_off,84,0,0,,4,,,64,127
33372,note_off,0,0,0,,4,,,76,127
33373,note_on,1,0,0,,4,,,40,127
33373,note_on,0,0,0,,2,,,86,127
33543,note_off,170,0,0,,2,,,86,127
33544,note_on,1,0,0,,4,,,76,127
33714,note_off,170,0,0,,4,,,76,127
33715,note_on,1,0,0,,4,,,76,127
33885,note_off,170,0,0,,4,,,76,127
33885,note_off,0,0,0,,4,,,40,127
33886,note_on,1,0,0,,10,,,45,127
33886,note_on,0,0,0,,1,,,85,127
33970,note_off,84,0,0,,1,,,85,127
33971,note_on,1,0,0,,12,,,83,127
34055,note_off,84,0,0,,12,,,83,127
34056,note_on,1,0,0,,10,,,81,127
34140,note_off,84,0,0,,10,,,81,127
34141,note_on,1,0,0,,8,,,80,127
34225,note_off,84,0,0,,8,,,80,127
34225,note_off,0,0,0,,10,,,45,127
34226,note_on,1,0,0,,1,,,49,127
34226,note_on,0,0,0,,6,,,78,127
34310,note_off,84,0,0,,6,,,78,127
34311,note_on,1,0,0,,4,,,76,127
34395,note_off,84,0,0,,4,,,76,127
34395,note_off,0,0,0,,1,,,49,127
34396,note_on,1,0,0,,2,,,50,127
34396,note_on,0,0,0,,2,,,74,127
34480,note_off,84,0,0,,2,,,74,127
34481,note_on,1,0,0,,1,,,73,127
34565,note_off,84,0,0,,1,,,73,127
34566,note_on,1,0,0,,12,,,71,127
34650,note_off,84,0,0,,12,,,71,127
34651,note_on,1,0,0,,10,,,69,127
34735,note_off,84,0,0,,10,,,69,127
34735,note_off,0,0,0,,2,,,50,127
34736,note_on,1,0,0,,4,,,52,127
34736,note_on,0,0,0,,8,,,68,127
34820,note_off,84,0,0,,8,,,68,127
34821,note_on,1,0,0,,2,,,74,127
34905,note_off,84,0,0,,2,,,74,127
34905,note_off,0,0,0,,4,,,52,127
34906,note_on,1,0,0,,10,,,45,127
34906,note_on,0,0,0,,1,,,73,127
34990,note_off,84,0,0,,1,,,73,127
34991,note_on,1,0,0,,12,,,71,127
35075,note_off,84,0,0,,12,,,71,127
35076,note_on,1,0,0,,10,,,69,127
35160,note_off,84,0,0,,10,,,69,127
35161,note_on,1,0,0,,8,,,68,127
35245,note_off,84,0,0,,8,,,68,127
35245,note_off,0,0,0,,10,,,45,127
35246,note_on,1,0,0,,1,,,49,127
35246,note_on,0,0,0,,6,,,66,127
35330,note_off,84,0,0,,6,,,66,127
35331,note_on,1,0,0,,4,,,64,127
35415,note_off,84,0,0,,4,,,64,127
35415,note_off,0,0,0,,1,,,49,127
35416,note_on,1,0,0,,2,,,50,127
35416,note_on,0,0,0,,2,,,62,127
35500,note_off,84,0,0,,2,,,62,127
35501,note_on,1,0,0,,1,,,61,127
35585,note_off,84,0,0,,1,,,61,127
35586,note_on,1,0,0,,12,,,59,127
35670,note_off,84,0,0,,12,,,59,127
35671,note_on,1,0,0,,10,,,57,127
35755,note_off,84,0,0,,10,,,57,127
35755,note_off,0,0,0,,2,,,50,127
35756,note_on,1,0,0,,4,,,52,127
35756,note_on,0,0,0,,8,,,56,127
35840,note_off,84,0,0,,8,,,56,127
35841,note_on,1,0,0,,12,,,59,127
35925,note_off,84,0,0,,12,,,59,127
35925,note_off,0,0,0,,4,,,52,127
35926,note_on,1,0,0,,10,,,45,127
35926,note_on,0,0,0,,10,,,57,127
36264,note_off,338,0,0,,10,,,57,127
36438,note_on,174,0,0,,10,,,57,127
36438,note_on,0,0,0,,6,,,78,127
36442,note_off,4,0,0,,10,,,45,127
36466,note_on,24,0,0,,4,,,76,127
36479,note_off,13,0,0,,6,,,78,127
36494,note_on,15,0,0,,6,,,78,127
36507,note_off,13,0,0,,4,,,76,127
36522,note_on,15,0,0,,4,,,76,127
36535,note_off,13,0,0,,6,,,78,127
36606,note_off,71,0,0,,10,,,57,127
36607,note_on,1,0,0,,1,,,61,127
36777,note_off,170,0,0,,1,,,61,127
36777,note_off,0,0,0,,4,,,76,127
36778,note_on,1,0,0,,10,,,57,127
36778,note_on,0,0,0,,4,,,76,127
36948,note_off,170,0,0,,4,,,76,127
36948,note_off,0,0,0,,10,,,57,127
36949,note_on,1,0,0,,8,,,56,127
36949,note_on,0,0,0,,12,,,83,127
37119,note_off,170,0,0,,8,,,56,127
37120,note_on,1,0,0,,4,,,52,127
37290,note_off,170,0,0,,4,,,52,127
37290,note_off,0,0,0,,12,,,83,127
37291,note_on,1,0,0,,2,,,62,127
37291,note_on,0,0,0,,4,,,76,127
37461,note_off,170,0,0,,4,,,76,127
37461,note_off,0,0,0,,2,,,62,127
37462,note_on,1,0,0,,1,,,61,127
37462,note_on,0,0,0,,6,,,78,127
37490,note_on,28,0,0,,4,,,76,127
37503,note_off,13,0,0,,6,,,78,127
37518,note_on,15,0,0,,6,,,78,127
37531,note_off,13,0,0,,4,,,76,127
37546,note_on,15,0,0,,4,,,76,127
37559,note_off,13,0,0,,6,,,78,127
37630,note_off,71,0,0,,1,,,61,127
37631,note_on,1,0,0,,4,,,64,127
37801,note_off,170,0,0,,4,,,64,127
37801,note_off,0,0,0,,4,,,76,127
37802,note_on,1,0,0,,10,,,57,127
37802,note_on,0,0,0,,4,,,76,127
37972,note_off,170,0,0,,4,,,76,127
37972,note_off,0,0,0,,10,,,57,127
37973,note_on,1,0,0,,8,,,56,127
37973,note_on,0,0,0,,12,,,83,127
38143,note_off,170,0,0,,8,,,56,127
38144,note_on,1,0,0,,4,,,52,127
38314,note_off,170,0,0,,4,,,52,127
38314,note_off,0,0,0,,12,,,83,127
38315,note_on,1,0,0,,2,,,62,127
38315,note_on,0,0,0,,4,,,76,127
38485,note_off,170,0,0,,4,,,76,127
38485,note_off,0,0,0,,2,,,62,127
38486,note_on,1,0,0,,1,,,61,127
38486,note_on,0,0,0,,6,,,78,127
38514,note_on,28,0,0,,4,,,76,127
38527,note_off,13,0,0,,6,,,78,127
38542,note_on,15,0,0,,6,,,78,127
38555,note_off,13,0,0,,4,,,76,127
38570,note_on,15,0,0,,4,,,76,127
38583,note_off,13,0,0,,6,,,78,127
38654,note_off,71,0,0,,1,,,61,127
38655,note_on,1,0,0,,4,,,64,127
38825,note_off,170,0,0,,4,,,64,127
38825,note_off,0,0,0,,4,,,76,127
38826,note_on,1,0,0,,7,,,55,127
38826,note_on,0,0,0,,4,,,76,127
38996,note_off,170,0,0,,4,,,76,127
38996,note_off,0,0,0,,7,,,55,127
38997,note_on,1,0,0,,6,,,54,127
38997,note_on,0,0,0,,10,,,81,127
39167,note_off,170,0,0,,6,,,54,127
39168,note_on,1,0,0,,2,,,62,127
39338,note_off,170,0,0,,2,,,62,127
39338,note_off,0,0,0,,10,,,81,127
39339,note_on,1,0,0,,6,,,54,127
39339,note_on,0,0,0,,2,,,74,127
39509,note_off,170,0,0,,2,,,74,127
39509,note_off,0,0,0,,6,,,54,127
39510,note_on,1,0,0,,7,,,55,127
39510,note_on,0,0,0,,4,,,76,127
39538,note_on,28,0,0,,2,,,74,127
39551,note_off,13,0,0,,4,,,76,127
39566,note_on,15,0,0,,4,,,76,127
39579,note_off,13,0,0,,2,,,74,127
39594,note_on,15,0,0,,2,,,74,127
39607,note_off,13,0,0,,4,,,76,127
39678,note_off,71,0,0,,7,,,55,127
39679,note_on,1,0,0,,12,,,59,127
39849,note_off,170,0,0,,12,,,59,127
39849,note_off,0,0,0,,2,,,74,127
39850,note_on,1,0,0,,7,,,55,127
39850,note_on,0,0,0,,2,,,74,127
40020,note_off,170,0,0,,2,,,74,127
40020,note_off,0,0,0,,7,,,55,127
40021,note_on,1,0,0,,6,,,54,127
40021,note_on,0,0,0,,10,,,81,127
40191,note_off,170,0,0,,6,,,54,127
40192,note_on,1,0,0,,2,,,62,127
40362,note_off,170,0,0,,2,,,62,127
40362,note_off,0,0,0,,10,,,81,127
40363,note_on,1,0,0,,6,,,54,127
40363,note_on,0,0,0,,2,,,74,127
40533,note_off,170,0,0,,2,,,74,127
40533,note_off,0,0,0,,6,,,54,127
40534,note_on,1,0,0,,7,,,55,127
40534,note_on,0,0,0,,4,,,76,127
40562,note_on,28,0,0,,2,,,74,127
40575,note_off,13,0,0,,4,,,76,127
40590,note_on,15,0,0,,4,,,76,127
40603,note_off,13,0,0,,2,,,74,127
40618,note_on,15,0,0,,2,,,74,127
40631,note_off,13,0,0,,4,,,76,127
40702,note_off,71,0,0,,7,,,55,127
40703,note_on,1,0,0,,12,,,59,127
40873,note_off,170,0,0,,12,,,59,127
40873,note_off,0,0,0,,2,,,74,127
40874,note_on,1,0,0,,7,,,55,127
40874,note_on,0,0,0,,2,,,74,127
41044,note_off,170,0,0,,2,,,74,127
41044,note_off,0,0,0,,7,,,55,127
41045,note_on,1,0,0,,6,,,54,127
41045,note_on,0,0,0,,10,,,81,127
41215,note_off,170,0,0,,6,,,54,127
41216,note_on,1,0,0,,10,,,57,127
41386,note_off,170,0,0,,10,,,57,127
41386,note_off,0,0,0,,10,,,81,127
41387,note_on,1,0,0,,2,,,62,127
41387,note_on,0,0,0,,10,,,81,127
41557,note_off,170,0,0,,10,,,81,127
41557,note_off,0,0,0,,2,,,62,127
41558,note_on,1,0,0,,4,,,52,127
41558,note_on,0,0,0,,7,,,79,127
41728,note_off,170,0,0,,4,,,52,127
41729,note_on,1,0,0,,11,,,58,127
41899,note_off,170,0,0,,11,,,58,127
41899,note_off,0,0,0,,7,,,79,127
41900,note_on,1,0,0,,1,,,61,127
41900,note_on,0,0,0,,7,,,79,127
42070,note_off,170,0,0,,7,,,79,127
42070,note_off,0,0,0,,1,,,61,127
42071,note_on,1,0,0,,2,,,50,127
42071,note_on,0,0,0,,6,,,78,127
42241,note_off,170,0,0,,2,,,50,127
42242,note_on,1,0,0,,6,,,54,127
42412,note_off,170,0,0,,6,,,54,127
42412,note_off,0,0,0,,6,,,78,127
42413,note_on,1,0,0,,12,,,59,127
42413,note_on,0,0,0,,6,,,78,127
42583,note_off,170,0,0,,6,,,78,127
42583,note_off,0,0,0,,12,,,59,127
42584,note_on,1,0,0,,1,,,49,127
42584,note_on,0,0,0,,4,,,76,127
42754,note_off,170,0,0,,1,,,49,127
42755,note_on,1,0,0,,4,,,52,127
42925,note_off,170,0,0,,4,,,52,127
42925,note_off,0,0,0,,4,,,76,127
42926,note_on,1,0,0,,11,,,58,127
42926,note_on,0,0,0,,4,,,76,127
43096,note_off,170,0,0,,4,,,76,127
43096,note_off,0,0,0,,11,,,58,127
43097,note_on,1,0,0,,12,,,47,127
43097,note_on,0,0,0,,2,,,74,127
43267,note_off,170,0,0,,12,,,47,127
43268,note_on,1,0,0,,6,,,54,127
43438,note_off,170,0,0,,6,,,54,127
43438,note_off,0,0,0,,2,,,74,127
43439,note_on,1,0,0,,12,,,59,127
43439,note_on,0,0,0,,2,,,74,127
43609,note_off,170,0,0,,2,,,74,127
43609,note_off,0,0,0,,12,,,59,127
43610,note_on,1,0,0,,4,,,52,127
43610,note_on,0,0,0,,1,,,73,127
43780,note_off,170,0,0,,1,,,73,127
43780,note_off,0,0,0,,4,,,52,127
43781,note_on,1,0,0,,4,,,64,127
43781,note_on,0,0,0,,7,,,79,127
43951,note_off,170,0,0,,7,,,79,127
43951,note_off,0,0,0,,4,,,64,127
43952,note_on,1,0,0,,7,,,55,127
43952,note_on,0,0,0,,12,,,71,127
44122,note_off,170,0,0,,12,,,71,127
44122,note_off,0,0,0,,7,,,55,127
44123,note_on,1,0,0,,6,,,54,127
44123,note_on,0,0,0,,11,,,70,127
44293,note_off,170,0,0,,6,,,54,127
44294,note_on,1,0,0,,1,,,61,127
44464,note_off,170,0,0,,1,,,61,127
44464,note_off,0,0,0,,11,,,70,127
44465,note_on,1,0,0,,2,,,50,127
44465,note_on,0,0,0,,6,,,66,127
44635,note_off,170,0,0,,6,,,66,127
44635,note_off,0,0,0,,2,,,50,127
44636,note_on,1,0,0,,4,,,52,127
44636,note_on,0,0,0,,7,,,67,127
44806,note_off,170,0,0,,4,,,52,127
44807,note_on,1,0,0,,12,,,59,127
44977,note_off,170,0,0,,12,,,59,127
44977,note_off,0,0,0,,7,,,67,127
44978,note_on,1,0,0,,1,,,49,127
44978,note_on,0,0,0,,11,,,70,127
45148,note_off,170,0,0,,11,,,70,127
45148,note_off,0,0,0,,1,,,49,127
45149,note_on,1,0,0,,2,,,50,127
45149,note_on,0,0,0,,12,,,71,127
45319,note_off,170,0,0,,2,,,50,127
45320,note_on,1,0,0,,12,,,59,127
45490,note_off,170,0,0,,12,,,59,127
45490,note_off,0,0,0,,12,,,71,127
45491,note_on,1,0,0,,11,,,58,127
45491,note_on,0,0,0,,1,,,73,127
45661,note_off,170,0,0,,1,,,73,127
45661,note_off,0,0,0,,11,,,58,127
45662,note_on,1,0,0,,12,,,59,127
45662,note_on,0,0,0,,2,,,74,127
45832,note_off,170,0,0,,12,,,59,127
45833,note_on,1,0,0,,2,,,62,127
46003,note_off,170,0,0,,2,,,62,127
46003,note_off,0,0,0,,2,,,74,127
46004,note_on,1,0,0,,8,,,56,127
46004,note_on,0,0,0,,5,,,77,127
46174,note_off,170,0,0,,5,,,77,127
46174,note_off,0,0,0,,8,,,56,127
46175,note_on,1,0,0,,6,,,54,127
46175,note_on,0,0,0,,6,,,78,127
46345,note_off,170,0,0,,6,,,54,127
46346,note_on,1,0,0,,1,,,61,127
46516,note_off,170,0,0,,1,,,61,127
46516,note_off,0,0,0,,6,,,78,127
46517,note_on,1,0,0,,4,,,52,127
46517,note_on,0,0,0,,11,,,82,127
46687,note_off,170,0,0,,11,,,82,127
46687,note_off,0,0,0,,4,,,52,127
46688,note_on,1,0,0,,2,,,50,127
46688,note_on,0,0,0,,12,,,83,127
46858,note_off,170,0,0,,2,,,50,127
46859,note_on,1,0,0,,12,,,59,127
47029,note_off,170,0,0,,12,,,59,127
47029,note_off,0,0,0,,12,,,83,127
47030,note_on,1,0,0,,1,,,49,127
47030,note_on,0,0,0,,1,,,85,127
47200,note_off,170,0,0,,1,,,85,127
47200,note_off,0,0,0,,1,,,49,127
47201,note_on,1,0,0,,12,,,47,127
47201,note_on,0,0,0,,2,,,86,127
47371,note_off,170,0,0,,12,,,47,127
47372,note_on,1,0,0,,12,,,59,127
47542,note_off,170,0,0,,12,,,59,127
47542,note_off,0,0,0,,2,,,86,127
47543,note_on,1,0,0,,10,,,57,127
47543,note_on,0,0,0,,6,,,78,127
47543,note_on,0,0,0,,2,,,86,127
47713,note_off,170,0,0,,2,,,86,127
47713,note_off,0,0,0,,6,,,78,127
47713,note_off,0,0,0,,10,,,57,127
47714,note_on,1,0,0,,8,,,56,127
47714,note_on,0,0,0,,2,,,86,127
47714,note_on,0,0,0,,4,,,76,127
47884,note_off,170,0,0,,8,,,56,127
47885,note_on,1,0,0,,12,,,59,127
48055,note_off,170,0,0,,12,,,59,127
48055,note_off,0,0,0,,4,,,76,127
48055,note_off,0,0,0,,2,,,86,127
48056,note_on,1,0,0,,4,,,52,127
48056,note_on,0,0,0,,2,,,86,127
48056,note_on,0,0,0,,4,,,76,127
48226,note_off,170,0,0,,4,,,76,127
48226,note_off,0,0,0,,2,,,86,127
48226,note_off,0,0,0,,4,,,52,127
48227,note_on,1,0,0,,10,,,57,127
48227,note_on,0,0,0,,1,,,85,127
48227,note_on,0,0,0,,4,,,76,127
48397,note_off,170,0,0,,10,,,57,127
48398,note_on,1,0,0,,1,,,61,127
48568,note_off,170,0,0,,1,,,61,127
48568,note_off,0,0,0,,4,,,76,127
48568,note_off,0,0,0,,1,,,85,127
48569,note_on,1,0,0,,8,,,56,127
48569,note_on,0,0,0,,1,,,85,127
48569,note_on,0,0,0,,4,,,76,127
48739,note_off,170,0,0,,4,,,76,127
48739,note_off,0,0,0,,1,,,85,127
48739,note_off,0,0,0,,8,,,56,127
48740,note_on,1,0,0,,6,,,54,127
48740,note_on,0,0,0,,1,,,85,127
48740,note_on,0,0,0,,2,,,74,127
48910,note_off,170,0,0,,6,,,54,127
48911,note_on,1,0,0,,10,,,57,127
49081,note_off,170,0,0,,10,,,57,127
49081,note_off,0,0,0,,2,,,74,127
49081,note_off,0,0,0,,1,,,85,127
49082,note_on,1,0,0,,6,,,54,127
49082,note_on,0,0,0,,1,,,85,127
49082,note_on,0,0,0,,2,,,74,127
49252,note_off,170,0,0,,2,,,74,127
49252,note_off,0,0,0,,1,,,85,127
49252,note_off,0,0,0,,6,,,54,127
49253,note_on,1,0,0,,8,,,56,127
49253,note_on,0,0,0,,12,,,83,127
49253,note_on,0,0,0,,2,,,74,127
49423,note_off,170,0,0,,8,,,56,127
49424,note_on,1,0,0,,12,,,59,127
49594,note_off,170,0,0,,12,,,59,127
49594,note_off,0,0,0,,2,,,74,127
49594,note_off,0,0,0,,12,,,83,127
49595,note_on,1,0,0,,6,,,54,127
49595,note_on,0,0,0,,2,,,74,127
49595,note_on,0,0,0,,12,,,83,127
49765,note_off,170,0,0,,12,,,83,127
49765,note_off,0,0,0,,2,,,74,127
49765,note_off,0,0,0,,6,,,54,127
49766,note_on,1,0,0,,5,,,53,127
49766,note_on,0,0,0,,1,,,73,127
49766,note_on,0,0,0,,12,,,83,127
49936,note_off,170,0,0,,5,,,53,127
49937,note_on,1,0,0,,8,,,56,127
50107,note_off,170,0,0,,8,,,56,127
50107,note_off,0,0,0,,12,,,83,127
50107,note_off,0,0,0,,1,,,73,127
50108,note_on,1,0,0,,1,,,49,127
50108,note_on,0,0,0,,12,,,83,127
50108,note_on,0,0,0,,1,,,73,127
50278,note_off,170,0,0,,1,,,73,127
50278,note_off,0,0,0,,12,,,83,127
50278,note_off,0,0,0,,1,,,49,127
50279,note_on,1,0,0,,6,,,42,127
50279,note_on,0,0,0,,6,,,54,127
50279,note_on,0,0,0,,10,,,81,127
50279,note_on,0,0,0,,1,,,73,127
50363,note_off,84,0,0,,1,,,73,127
50363,note_off,0,0,0,,10,,,81,127
50364,note_on,1,0,0,,8,,,80,127
50448,note_off,84,0,0,,8,,,80,127
50449,note_on,1,0,0,,6,,,78,127
50533,note_off,84,0,0,,6,,,78,127
50534,note_on,1,0,0,,4,,,76,127
50618,note_off,84,0,0,,4,,,76,127
50619,note_on,1,0,0,,2,,,74,127
50703,note_off,84,0,0,,2,,,74,127
50704,note_on,1,0,0,,1,,,73,127
50788,note_off,84,0,0,,1,,,73,127
50788,note_off,0,0,0,,6,,,54,127
50788,note_off,0,0,0,,6,,,42,127
50789,note_on,1,0,0,,12,,,47,127
50789,note_on,0,0,0,,12,,,71,127
50873,note_off,84,0,0,,12,,,71,127
50874,note_on,1,0,0,,10,,,69,127
50958,note_off,84,0,0,,10,,,69,127
50959,note_on,1,0,0,,8,,,68,127
51043,note_off,84,0,0,,8,,,68,127
51044,note_on,1,0,0,,6,,,66,127
51128,note_off,84,0,0,,6,,,66,127
51129,note_on,1,0,0,,5,,,65,127
51213,note_off,84,0,0,,5,,,65,127
51214,note_on,1,0,0,,6,,,66,127
51298,note_off,84,0,0,,6,,,66,127
51298,note_off,0,0,0,,12,,,47,127
51299,note_on,1,0,0,,1,,,37,127
51299,note_on,0,0,0,,1,,,49,127
51299,note_on,0,0,0,,2,,,62,127
51341,note_off,42,0,0,,2,,,62,127
51342,note_on,1,0,0,,1,,,61,127
51384,note_off,42,0,0,,1,,,61,127
51385,note_on,1,0,0,,2,,,62,127
51427,note_off,42,0,0,,2,,,62,127
51428,note_on,1,0,0,,1,,,61,127
51812,note_off,384,0,0,,1,,,37,127
51897,note_off,85,0,0,,1,,,49,127
52238,note_off,341,0,0,,1,,,61,127
52323,note_on,85,0,0,,1,,,61,127
52323,note_on,0,0,0,,1,,,73,127
52493,note_off,170,0,0,,1,,,61,127
52494,note_on,1,0,0,,6,,,66,127
52664,note_off,170,0,0,,6,,,66,127
52665,note_on,1,0,0,,10,,,69,127
52835,note_off,170,0,0,,10,,,69,127
52835,note_off,0,0,0,,1,,,73,127
52836,note_on,1,0,0,,1,,,61,127
52836,note_on,0,0,0,,5,,,77,127
52836,note_on,0,0,0,,2,,,74,127
53006,note_off,170,0,0,,1,,,61,127
53007,note_on,1,0,0,,8,,,68,127
53177,note_off,170,0,0,,8,,,68,127
53178,note_on,1,0,0,,12,,,71,127
53348,note_off,170,0,0,,12,,,71,127
53348,note_off,0,0,0,,2,,,74,127
53348,note_off,0,0,0,,5,,,77,127
53349,note_on,1,0,0,,1,,,61,127
53349,note_on,0,0,0,,1,,,73,127
53519,note_off,170,0,0,,1,,,61,127
53520,note_on,1,0,0,,6,,,66,127
53690,note_off,170,0,0,,6,,,66,127
53691,note_on,1,0,0,,10,,,69,127
53861,note_off,170,0,0,,10,,,69,127
53861,note_off,0,0,0,,1,,,73,127
53862,note_on,1,0,0,,1,,,61,127
53862,note_on,0,0,0,,2,,,74,127
53862,note_on,0,0,0,,5,,,77,127
54032,note_off,170,0,0,,1,,,61,127
54033,note_on,1,0,0,,8,,,68,127
54203,note_off,170,0,0,,8,,,68,127
54204,note_on,1,0,0,,12,,,71,127
54374,note_off,170,0,0,,12,,,71,127
54374,note_off,0,0,0,,5,,,77,127
54374,note_off,0,0,0,,2,,,74,127
54375,note_on,1,0,0,,1,,,61,127
54375,note_on,0,0,0,,10,,,81,127
54545,note_off,170,0,0,,1,,,61,127
54546,note_on,1,0,0,,6,,,66,127
54716,note_off,170,0,0,,6,,,66,127
54717,note_on,1,0,0,,10,,,69,127
54887,note_off,170,0,0,,10,,,69,127
54887,note_off,0,0,0,,10,,,81,127
54888,note_on,1,0,0,,12,,,59,127
54888,note_on,0,0,0,,0,,,72,127
54888,note_on,0,0,0,,3,,,75,127
55058,note_off,170,0,0,,12,,,59,127
55059,note_on,1,0,0,,6,,,66,127
55229,note_off,170,0,0,,6,,,66,127
55230,note_on,1,0,0,,10,,,69,127
55400,note_off,170,0,0,,10,,,69,127
55400,note_off,0,0,0,,3,,,75,127
55400,note_off,0,0,0,,0,,,72,127
55401,note_on,1,0,0,,12,,,59,127
55401,note_on,0,0,0,,12,,,71,127
55571,note_off,170,0,0,,12,,,59,127
55572,note_on,1,0,0,,4,,,64,127
55742,note_off,170,0,0,,4,,,64,127
55743,note_on,1,0,0,,7,,,67,127
55913,note_off,170,0,0,,7,,,67,127
55913,note_off,0,0,0,,12,,,71,127
55914,note_on,1,0,0,,12,,,59,127
55914,note_on,0,0,0,,3,,,75,127
55914,note_on,0,0,0,,0,,,72,127
56084,note_off,170,0,0,,12,,,59,127
56085,note_on,1,0,0,,6,,,66,127
56255,note_off,170,0,0,,6,,,66,127
56256,note_on,1,0,0,,10,,,69,127
56426,note_off,170,0,0,,10,,,69,127
56426,note_off,0,0,0,,0,,,72,127
56426,note_off,0,0,0,,3,,,75,127
56427,note_on,1,0,0,,12,,,59,127
56427,note_on,0,0,0,,12,,,71,127
56597,note_off,170,0,0,,12,,,59,127
56598,note_on,1,0,0,,4,,,64,127
56768,note_off,170,0,0,,4,,,64,127
56769,note_on,1,0,0,,7,,,67,127
56939,note_off,170,0,0,,7,,,67,127
56939,note_off,0,0,0,,12,,,71,127
56940,note_on,1,0,0,,12,,,59,127
56940,note_on,0,0,0,,0,,,72,127
56940,note_on,0,0,0,,3,,,75,127
57110,note_off,170,0,0,,12,,,59,127
57111,note_on,1,0,0,,6,,,66,127
57281,note_off,170,0,0,,6,,,66,127
57282,note_on,1,0,0,,10,,,69,127
57452,note_off,170,0,0,,10,,,69,127
57452,note_off,0,0,0,,3,,,75,127
57452,note_off,0,0,0,,0,,,72,127
57453,note_on,1,0,0,,12,,,59,127
57453,note_on,0,0,0,,7,,,79,127
57623,note_off,170,0,0,,12,,,59,127
57624,note_on,1,0,0,,4,,,64,127
57794,note_off,170,0,0,,4,,,64,127
57795,note_on,1,0,0,,7,,,67,127
57965,note_off,170,0,0,,7,,,67,127
57965,note_off,0,0,0,,7,,,79,127
57966,note_on,1,0,0,,10,,,57,127
57966,note_on,0,0,0,,10,,,69,127
57966,note_on,0,0,0,,1,,,73,127
58136,note_off,170,0,0,,10,,,57,127
58137,note_on,1,0,0,,4,,,64,127
58307,note_off,170,0,0,,4,,,64,127
58308,note_on,1,0,0,,7,,,67,127
58478,note_off,170,0,0,,7,,,67,127
58478,note_off,0,0,0,,1,,,73,127
58478,note_off,0,0,0,,10,,,69,127
58479,note_on,1,0,0,,10,,,57,127
58479,note_on,0,0,0,,6,,,78,127
58479,note_on,0,0,0,,10,,,69,127
58649,note_off,170,0,0,,10,,,57,127
58650,note_on,1,0,0,,2,,,62,127
58820,note_off,170,0,0,,2,,,62,127
58821,note_on,1,0,0,,6,,,66,127
58991,note_off,170,0,0,,6,,,66,127
58991,note_off,0,0,0,,10,,,69,127
58991,note_off,0,0,0,,6,,,78,127
58992,note_on,1,0,0,,7,,,55,127
58992,note_on,0,0,0,,4,,,76,127
58992,note_on,0,0,0,,7,,,79,127
59162,note_off,170,0,0,,7,,,55,127
59163,note_on,1,0,0,,2,,,62,127
59333,note_off,170,0,0,,2,,,62,127
59334,note_on,1,0,0,,4,,,64,127
59504,note_off,170,0,0,,4,,,64,127
59504,note_off,0,0,0,,7,,,79,127
59504,note_off,0,0,0,,4,,,76,127
59505,note_on,1,0,0,,7,,,55,127
59505,note_on,0,0,0,,4,,,76,127
59505,note_on,0,0,0,,1,,,85,127
59675,note_off,170,0,0,,7,,,55,127
59676,note_on,1,0,0,,2,,,62,127
59846,note_off,170,0,0,,2,,,62,127
59847,note_on,1,0,0,,4,,,64,127
60017,note_off,170,0,0,,4,,,64,127
60017,note_off,0,0,0,,1,,,85,127
60017,note_off,0,0,0,,4,,,76,127
60018,note_on,1,0,0,,6,,,54,127
60018,note_on,0,0,0,,6,,,78,127
60018,note_on,0,0,0,,2,,,86,127
60188,note_off,170,0,0,,6,,,54,127
60189,note_on,1,0,0,,10,,,57,127
60359,note_off,170,0,0,,10,,,57,127
60360,note_on,1,0,0,,2,,,62,127
60530,note_off,170,0,0,,2,,,62,127
60531,note_on,1,0,0,,7,,,55,127
60531,note_on,0,0,0,,4,,,76,127
60615,note_off,84,0,0,,2,,,86,127
60615,note_off,0,0,0,,6,,,78,127
60616,note_on,1,0,0,,1,,,85,127
60700,note_off,84,0,0,,1,,,85,127
60701,note_on,1,0,0,,12,,,83,127
60785,note_off,84,0,0,,12,,,83,127
60786,note_on,1,0,0,,10,,,81,127
60868,note_off,82,0,0,,4,,,76,127
60871,note_off,3,0,0,,10,,,81,127
60872,note_on,1,0,0,,7,,,79,127
60956,note_off,84,0,0,,7,,,79,127
60957,note_on,1,0,0,,6,,,78,127
61041,note_off,84,0,0,,6,,,78,127
61041,note_off,0,0,0,,7,,,55,127
61042,note_on,1,0,0,,10,,,57,127
61042,note_on,0,0,0,,4,,,76,127
61126,note_off,84,0,0,,4,,,76,127
61127,note_on,1,0,0,,2,,,74,127
61211,note_off,84,0,0,,2,,,74,127
61212,note_on,1,0,0,,1,,,73,127
61296,note_off,84,0,0,,1,,,73,127
61297,note_on,1,0,0,,12,,,71,127
61381,note_off,84,0,0,,12,,,71,127
61382,note_on,1,0,0,,10,,,69,127
61466,note_off,84,0,0,,10,,,69,127
61467,note_on,1,0,0,,7,,,67,127
61551,note_off,84,0,0,,7,,,67,127
61551,note_off,0,0,0,,10,,,57,127
61552,note_on,1,0,0,,6,,,66,127
61636,note_off,84,0,0,,6,,,66,127
61637,note_on,1,0,0,,4,,,64,127
61721,note_off,84,0,0,,4,,,64,127
61722,note_on,1,0,0,,2,,,62,127
61806,note_off,84,0,0,,2,,,62,127
61807,note_on,1,0,0,,1,,,61,127
61891,note_off,84,0,0,,1,,,61,127
61892,note_on,1,0,0,,12,,,59,127
61976,note_off,84,0,0,,12,,,59,127
61977,note_on,1,0,0,,10,,,57,127
62061,note_off,84,0,0,,10,,,57,127
62062,note_on,1,0,0,,7,,,55,127
62146,note_off,84,0,0,,7,,,55,127
62147,note_on,1,0,0,,6,,,54,127
62231,note_off,84,0,0,,6,,,54,127
62232,note_on,1,0,0,,4,,,52,127
62316,note_off,84,0,0,,4,,,52,127
62317,note_on,1,0,0,,2,,,50,127
62401,note_off,84,0,0,,2,,,50,127
62402,note_on,1,0,0,,1,,,49,127
62486,note_off,84,0,0,,1,,,49,127
62487,note_on,1,0,0,,12,,,47,127
62571,note_off,84,0,0,,12,,,47,127
62572,note_on,1,0,0,,10,,,45,127
62743,note_on,171,0,0,,10,,,69,127
62913,note_off,170,0,0,,10,,,69,127
62914,note_on,1,0,0,,10,,,69,127
63084,note_off,170,0,0,,10,,,69,127
63084,note_off,0,0,0,,10,,,45,127
63085,note_on,1,0,0,,10,,,57,127
63085,note_on,0,0,0,,7,,,79,127
63085,note_on,0,0,0,,4,,,76,127
63169,note_off,84,0,0,,10,,,57,127
63170,note_on,1,0,0,,7,,,55,127
63254,note_off,84,0,0,,7,,,55,127
63254,note_off,0,0,0,,4,,,76,127
63255,note_on,1,0,0,,6,,,54,127
63255,note_on,0,0,0,,10,,,69,127
63339,note_off,84,0,0,,6,,,54,127
63340,note_on,1,0,0,,4,,,52,127
63424,note_off,84,0,0,,4,,,52,127
63424,note_off,0,0,0,,10,,,69,127
63425,note_on,1,0,0,,2,,,50,127
63425,note_on,0,0,0,,10,,,69,127
63509,note_off,84,0,0,,2,,,50,127
63510,note_on,1,0,0,,1,,,49,127
63594,note_off,84,0,0,,1,,,49,127
63594,note_off,0,0,0,,10,,,69,127
63594,note_off,0,0,0,,7,,,79,127
63595,note_on,1,0,0,,2,,,50,127
63595,note_on,0,0,0,,6,,,78,127
63595,note_on,0,0,0,,2,,,74,127
63679,note_off,84,0,0,,2,,,50,127
63680,note_on,1,0,0,,4,,,52,127
63764,note_off,84,0,0,,4,,,52,127
63764,note_off,0,0,0,,2,,,74,127
63765,note_on,1,0,0,,6,,,54,127
63765,note_on,0,0,0,,10,,,69,127
63849,note_off,84,0,0,,6,,,54,127
63850,note_on,1,0,0,,7,,,55,127
63934,note_off,84,0,0,,7,,,55,127
63934,note_off,0,0,0,,10,,,69,127
63935,note_on,1,0,0,,10,,,57,127
63935,note_on,0,0,0,,10,,,69,127
64019,note_off,84,0,0,,10,,,57,127
64020,note_on,1,0,0,,12,,,59,127
64104,note_off,84,0,0,,12,,,59,127
64104,note_off,0,0,0,,10,,,69,127
64104,note_off,0,0,0,,6,,,78,127
64105,note_on,1,0,0,,10,,,33,127
64105,note_on,0,0,0,,7,,,79,127
64105,note_on,0,0,0,,4,,,76,127
64275,note_off,170,0,0,,4,,,76,127
64276,note_on,1,0,0,,10,,,69,127
64446,note_off,170,0,0,,10,,,69,127
64447,note_on,1,0,0,,10,,,69,127
64617,note_off,170,0,0,,10,,,69,127
64617,note_off,0,0,0,,7,,,79,127
64617,note_off,0,0,0,,10,,,33,127
64618,note_on,1,0,0,,2,,,50,127
64618,note_on,0,0,0,,2,,,74,127
64618,note_on,0,0,0,,6,,,78,127
64702,note_off,84,0,0,,2,,,50,127
64703,note_on,1,0,0,,4,,,52,127
64787,note_off,84,0,0,,4,,,52,127
64787,note_off,0,0,0,,2,,,74,127
64788,note_on,1,0,0,,6,,,54,127
64788,note_on,0,0,0,,10,,,69,127
64872,note_off,84,0,0,,6,,,54,127
64873,note_on,1,0,0,,7,,,55,127
64957,note_off,84,0,0,,7,,,55,127
64957,note_off,0,0,0,,10,,,69,127
64958,note_on,1,0,0,,10,,,57,127
64958,note_on,0,0,0,,10,,,69,127
65042,note_off,84,0,0,,10,,,57,127
65043,note_on,1,0,0,,12,,,59,127
65127,note_off,84,0,0,,12,,,59,127
65127,note_off,0,0,0,,10,,,69,127
65127,note_off,0,0,0,,6,,,78,127
65128,note_on,1,0,0,,10,,,33,127
65128,note_on,0,0,0,,7,,,79,127
65128,note_on,0,0,0,,4,,,76,127
65298,note_off,170,0,0,,4,,,76,127
65299,note_on,1,0,0,,10,,,69,127
65469,note_off,170,0,0,,10,,,69,127
65470,note_on,1,0,0,,10,,,69,127
65640,note_off,170,0,0,,10,,,69,127
65640,note_off,0,0,0,,7,,,79,127
65640,note_off,0,0,0,,10,,,33,127
65641,note_on,1,0,0,,2,,,38,127
65641,note_on,0,0,0,,6,,,78,127
65725,note_off,84,0,0,,6,,,78,127
65726,note_on,1,0,0,,4,,,76,127
65810,note_off,84,0,0,,4,,,76,127
65811,note_on,1,0,0,,2,,,74,127
65895,note_off,84,0,0,,2,,,74,127
65896,note_on,1,0,0,,1,,,73,127
65980,note_off,84,0,0,,1,,,73,127
65980,note_off,0,0,0,,2,,,38,127
65981,note_on,1,0,0,,6,,,54,127
65981,note_on,0,0,0,,12,,,71,127
66065,note_off,84,0,0,,12,,,71,127
66066,note_on,1,0,0,,10,,,69,127
66150,note_off,84,0,0,,10,,,69,127
66150,note_off,0,0,0,,6,,,54,127
66151,note_on,1,0,0,,7,,,55,127
66151,note_on,0,0,0,,7,,,67,127
66235,note_off,84,0,0,,7,,,67,127
66236,note_on,1,0,0,,12,,,71,127
66320,note_off,84,0,0,,12,,,71,127
66321,note_on,1,0,0,,10,,,69,127
66405,note_off,84,0,0,,10,,,69,127
66406,note_on,1,0,0,,7,,,67,127
66490,note_off,84,0,0,,7,,,67,127
66490,note_off,0,0,0,,7,,,55,127
66491,note_on,1,0,0,,10,,,57,127
66491,note_on,0,0,0,,6,,,66,127
66575,note_off,84,0,0,,6,,,66,127
66576,note_on,1,0,0,,4,,,64,127
66660,note_off,84,0,0,,4,,,64,127
66660,note_off,0,0,0,,10,,,57,127
66661,note_on,1,0,0,,2,,,50,127
66661,note_on,0,0,0,,2,,,62,127
66745,note_off,84,0,0,,2,,,50,127
66746,note_on,1,0,0,,4,,,52,127
66830,note_off,84,0,0,,4,,,52,127
66830,note_off,0,0,0,,2,,,62,127
66831,note_on,1,0,0,,6,,,54,127
66831,note_on,0,0,0,,10,,,69,127
66915,note_off,84,0,0,,6,,,54,127
66916,note_on,1,0,0,,7,,,55,127
67000,note_off,84,0,0,,7,,,55,127
67000,note_off,0,0,0,,10,,,69,127
67001,note_on,1,0,0,,10,,,57,127
67001,note_on,0,0,0,,10,,,69,127
67085,note_off,84,0,0,,10,,,57,127
67086,note_on,1,0,0,,12,,,59,127
67170,note_off,84,0,0,,12,,,59,127
67170,note_off,0,0,0,,10,,,69,127
67171,note_on,1,0,0,,10,,,33,127
67171,note_on,0,0,0,,7,,,79,127
67171,note_on,0,0,0,,4,,,76,127
67341,note_off,170,0,0,,4,,,76,127
67342,note_on,1,0,0,,10,,,69,127
67512,note_off,170,0,0,,10,,,69,127
67513,note_on,1,0,0,,10,,,69,127
67683,note_off,170,0,0,,10,,,69,127
67683,note_off,0,0,0,,7,,,79,127
67683,note_off,0,0,0,,10,,,33,127
67684,note_on,1,0,0,,2,,,50,127
67684,note_on,0,0,0,,6,,,78,127
67684,note_on,0,0,0,,2,,,74,127
67768,note_off,84,0,0,,2,,,50,127
67769,note_on,1,0,0,,4,,,52,127
67853,note_off,84,0,0,,4,,,52,127
67853,note_off,0,0,0,,2,,,74,127
67854,note_on,1,0,0,,6,,,54,127
67854,note_on,0,0,0,,10,,,69,127
67938,note_off,84,0,0,,6,,,54,127
67939,note_on,1,0,0,,7,,,55,127
68023,note_off,84,0,0,,7,,,55,127
68023,note_off,0,0,0,,10,,,69,127
68024,note_on,1,0,0,,10,,,57,127
68024,note_on,0,0,0,,10,,,69,127
68108,note_off,84,0,0,,10,,,57,127
68109,note_on,1,0,0,,12,,,59,127
68193,note_off,84,0,0,,12,,,59,127
68193,note_off,0,0,0,,10,,,69,127
68193,note_off,0,0,0,,6,,,78,127
68194,note_on,1,0,0,,10,,,33,127
68194,note_on,0,0,0,,4,,,76,127
68194,note_on,0,0,0,,7,,,79,127
68364,note_off,170,0,0,,4,,,76,127
68365,note_on,1,0,0,,10,,,69,127
68535,note_off,170,0,0,,10,,,69,127
68536,note_on,1,0,0,,10,,,69,127
68706,note_off,170,0,0,,10,,,69,127
68706,note_off,0,0,0,,7,,,79,127
68706,note_off,0,0,0,,10,,,33,127
68707,note_on,1,0,0,,2,,,38,127
68707,note_on,0,0,0,,6,,,78,127
68791,note_off,84,0,0,,6,,,78,127
68792,note_on,1,0,0,,4,,,76,127
68876,note_off,84,0,0,,4,,,76,127
68877,note_on,1,0,0,,2,,,74,127
68961,note_off,84,0,0,,2,,,74,127
68962,note_on,1,0,0,,1,,,73,127
69046,note_off,84,0,0,,1,,,73,127
69046,note_off,0,0,0,,2,,,38,127
69047,note_on,1,0,0,,6,,,54,127
69047,note_on,0,0,0,,12,,,71,127
69131,note_off,84,0,0,,12,,,71,127
69132,note_on,1,0,0,,10,,,69,127
69216,note_off,84,0,0,,10,,,69,127
69216,note_off,0,0,0,,6,,,54,127
69217,note_on,1,0,0,,7,,,55,127
69217,note_on,0,0,0,,12,,,71,127
69301,note_off,84,0,0,,12,,,71,127
69302,note_on,1,0,0,,2,,,74,127
69386,note_off,84,0,0,,2,,,74,127
69387,note_on,1,0,0,,1,,,73,127
69471,note_off,84,0,0,,1,,,73,127
69472,note_on,1,0,0,,12,,,71,127
69556,note_off,84,0,0,,12,,,71,127
69556,note_off,0,0,0,,7,,,55,127
69557,note_on,1,0,0,,10,,,57,127
69557,note_on,0,0,0,,10,,,69,127
69641,note_off,84,0,0,,10,,,69,127
69642,note_on,1,0,0,,7,,,67,127
69726,note_off,84,0,0,,7,,,67,127
69726,note_off,0,0,0,,10,,,57,127
69727,note_on,1,0,0,,6,,,66,127
69727,note_on,0,0,0,,2,,,50,127
69811,note_off,84,0,0,,6,,,66,127
69814,note_on,3,0,0,,10,,,69,127
69898,note_off,84,0,0,,10,,,69,127
69901,note_on,3,0,0,,7,,,67,127
69985,note_off,84,0,0,,7,,,67,127
69988,note_on,3,0,0,,6,,,66,127
70070,note_off,82,0,0,,2,,,50,127
70073,note_off,3,0,0,,6,,,66,127
70076,note_on,3,0,0,,4,,,64,127
70076,note_on,0,0,0,,6,,,42,127
70160,note_off,84,0,0,,4,,,64,127
70163,note_on,3,0,0,,2,,,62,127
70247,note_off,84,0,0,,6,,,42,127
70248,note_off,1,0,0,,2,,,62,127
70251,note_on,3,0,0,,4,,,64,127
70251,note_on,0,0,0,,7,,,43,127
70335,note_off,84,0,0,,4,,,64,127
70338,note_on,3,0,0,,7,,,67,127
70422,note_off,84,0,0,,7,,,67,127
70425,note_on,3,0,0,,6,,,66,127
70509,note_off,84,0,0,,6,,,66,127
70512,note_on,3,0,0,,4,,,64,127
70594,note_off,82,0,0,,7,,,43,127
70597,note_off,3,0,0,,4,,,64,127
70600,note_on,3,0,0,,2,,,62,127
70600,note_on,0,0,0,,10,,,45,127
70684,note_off,84,0,0,,2,,,62,127
70691,note_on,7,0,0,,1,,,61,127
70770,note_off,79,0,0,,10,,,45,127
70797,note_off,27,0,0,,1,,,61,127
70804,note_on,7,0,0,,2,,,38,127
70804,note_on,0,0,0,,2,,,62,127
72355,note_off,1551,0,0,,2,,,62,127
72355,note_off,0,0,0,,2,,,38,127
76800,end_of_track,4445,1,0,,,,,,
