tick,type,time,meta,track,program,channel,pitch,tempo,note,velocity
0,copyright,0,1,0,,,,,,
0,program_change,0,0,0,6,0,,,,
0,pitchwheel,0,0,0,,0,0,,,
0,program_change,0,0,0,6,1,,,,
0,pitchwheel,0,0,0,,1,-590,,,
0,program_change,0,0,0,6,2,,,,
0,pitchwheel,0,0,0,,2,-272,,,
0,program_change,0,0,0,6,3,,,,
0,pitchwheel,0,0,0,,3,-353,,,
0,program_change,0,0,0,6,4,,,,
0,pitchwheel,0,0,0,,4,-560,,,
0,program_change,0,0,0,6,5,,,,
0,pitchwheel,0,0,0,,5,-80,,,
0,program_change,0,0,0,6,6,,,,
0,pitchwheel,0,0,0,,6,-625,,,
0,program_change,0,0,0,6,7,,,,
0,pitchwheel,0,0,0,,7,-130,,,
0,program_change,0,0,0,6,8,,,,
0,pitchwheel,0,0,0,,8,-512,,,
0,program_change,0,0,0,6,10,,,,
0,pitchwheel,0,0,0,,10,-464,,,
0,program_change,0,0,0,6,11,,,,
0,pitchwheel,0,0,0,,11,-208,,,
0,program_change,0,0,0,6,12,,,,
0,pitchwheel,0,0,0,,12,-553,,,
0,set_tempo,0,1,0,,,,500000,,
105,note_on,105,0,0,,11,,,82,127
523,note_off,418,0,0,,11,,,82,127
524,note_on,1,0,0,,5,,,77,127
942,note_off,418,0,0,,5,,,77,127
943,note_on,1,0,0,,2,,,74,127
1361,note_off,418,0,0,,2,,,74,127
1362,note_on,1,0,0,,11,,,70,127
1570,note_off,208,0,0,,11,,,70,127
1571,note_on,1,0,0,,10,,,69,127
1675,note_off,104,0,0,,10,,,69,127
1676,note_on,1,0,0,,7,,,67,127
1780,note_off,104,0,0,,7,,,67,127
1781,note_on,1,0,0,,5,,,65,127
1989,note_off,208,0,0,,5,,,65,127
1990,note_on,1,0,0,,0,,,72,127
2094,note_off,104,0,0,,0,,,72,127
2095,note_on,1,0,0,,10,,,69,127
2199,note_off,104,0,0,,10,,,69,127
2200,note_on,1,0,0,,5,,,65,127
2408,note_off,208,0,0,,5,,,65,127
2409,note_on,1,0,0,,2,,,74,127
2513,note_off,104,0,0,,2,,,74,127
2514,note_on,1,0,0,,11,,,70,127
2618,note_off,104,0,0,,11,,,70,127
2619,note_on,1,0,0,,5,,,65,127
2827,note_off,208,0,0,,5,,,65,127
2828,note_on,1,0,0,,5,,,77,127
2932,note_off,104,0,0,,5,,,77,127
2933,note_on,1,0,0,,3,,,75,127
3037,note_off,104,0,0,,3,,,75,127
3038,note_on,1,0,0,,2,,,74,127
3246,note_off,208,0,0,,2,,,74,127
3247,note_on,1,0,0,,0,,,72,127
3351,note_off,104,0,0,,0,,,72,127
3352,note_on,1,0,0,,11,,,70,127
3456,note_off,104,0,0,,11,,,70,127
3457,note_on,1,0,0,,5,,,65,127
3457,note_on,0,0,0,,10,,,69,127
3665,note_off,208,0,0,,10,,,69,127
3666,note_on,1,0,0,,7,,,67,127
3762,note_off,96,0,0,,5,,,65,127
3770,note_off,8,0,0,,7,,,67,127
3771,note_on,1,0,0,,5,,,65,127
3875,note_off,104,0,0,,5,,,65,127
3876,note_on,1,0,0,,2,,,62,127
3876,note_on,0,0,0,,11,,,70,127
4084,note_off,208,0,0,,11,,,70,127
4085,note_on,1,0,0,,0,,,72,127
4189,note_off,104,0,0,,0,,,72,127
4190,note_on,1,0,0,,2,,,74,127
4294,note_off,104,0,0,,2,,,74,127
4294,note_off,0,0,0,,2,,,62,127
4295,note_on,1,0,0,,11,,,58,127
4295,note_on,0,0,0,,2,,,74,127
4503,note_off,208,0,0,,2,,,74,127
4504,note_on,1,0,0,,0,,,72,127
4608,note_off,104,0,0,,0,,,72,127
4609,note_on,1,0,0,,11,,,70,127
4713,note_off,104,0,0,,11,,,70,127
4713,note_off,0,0,0,,11,,,58,127
4714,note_on,1,0,0,,3,,,51,127
4714,note_on,0,0,0,,11,,,70,127
4765,note_off,51,0,0,,11,,,70,127
4766,note_on,1,0,0,,10,,,69,127
4817,note_off,51,0,0,,10,,,69,127
4818,note_on,1,0,0,,11,,,70,127
4869,note_off,51,0,0,,11,,,70,127
4870,note_on,1,0,0,,10,,,69,127
4921,note_off,51,0,0,,10,,,69,127
4921,note_off,0,0,0,,3,,,51,127
4922,note_on,1,0,0,,2,,,50,127
4922,note_on,0,0,0,,11,,,70,127
4973,note_off,51,0,0,,11,,,70,127
4974,note_on,1,0,0,,10,,,69,127
5025,note_off,51,0,0,,10,,,69,127
5025,note_off,0,0,0,,2,,,50,127
5026,note_on,1,0,0,,0,,,48,127
5026,note_on,0,0,0,,7,,,67,127
5077,note_off,51,0,0,,7,,,67,127
5078,note_on,1,0,0,,10,,,69,127
5129,note_off,51,0,0,,10,,,69,127
5129,note_off,0,0,0,,0,,,48,127
5130,note_on,1,0,0,,11,,,46,127
5130,note_on,0,0,0,,11,,,70,127
5338,note_off,208,0,0,,11,,,46,127
5339,note_on,1,0,0,,5,,,53,127
5443,note_off,104,0,0,,5,,,53,127
5444,note_on,1,0,0,,2,,,50,127
5548,note_off,104,0,0,,2,,,50,127
5548,note_off,0,0,0,,11,,,70,127
5549,note_on,1,0,0,,11,,,46,127
5549,note_on,0,0,0,,11,,,70,127
5757,note_off,208,0,0,,11,,,46,127
5758,note_on,1,0,0,,7,,,55,127
5862,note_off,104,0,0,,7,,,55,127
5863,note_on,1,0,0,,3,,,51,127
5967,note_off,104,0,0,,3,,,51,127
5967,note_off,0,0,0,,11,,,70,127
5968,note_on,1,0,0,,11,,,46,127
5968,note_on,0,0,0,,11,,,70,127
6176,note_off,208,0,0,,11,,,46,127
6177,note_on,1,0,0,,7,,,55,127
6281,note_off,104,0,0,,7,,,55,127
6282,note_on,1,0,0,,5,,,53,127
6386,note_off,104,0,0,,5,,,53,127
6386,note_off,0,0,0,,11,,,70,127
6387,note_on,1,0,0,,3,,,51,127
6387,note_on,0,0,0,,11,,,70,127
6595,note_off,208,0,0,,11,,,70,127
6595,note_off,0,0,0,,3,,,51,127
6596,note_on,1,0,0,,2,,,50,127
6596,note_on,0,0,0,,0,,,72,127
6700,note_off,104,0,0,,2,,,50,127
6701,note_on,1,0,0,,0,,,48,127
6805,note_off,104,0,0,,0,,,48,127
6805,note_off,0,0,0,,0,,,72,127
6806,note_on,1,0,0,,11,,,46,127
6806,note_on,0,0,0,,2,,,74,127
7014,note_off,208,0,0,,2,,,74,127
7015,note_on,1,0,0,,2,,,86,127
7119,note_off,104,0,0,,2,,,86,127
7120,note_on,1,0,0,,11,,,82,127
7224,note_off,104,0,0,,11,,,82,127
7224,note_off,0,0,0,,11,,,46,127
7225,note_on,1,0,0,,11,,,58,127
7225,note_on,0,0,0,,11,,,82,127
7433,note_off,208,0,0,,11,,,82,127
7433,note_off,0,0,0,,11,,,58,127
7434,note_on,1,0,0,,0,,,60,127
7434,note_on,0,0,0,,2,,,86,127
7538,note_off,104,0,0,,2,,,86,127
7539,note_on,1,0,0,,11,,,82,127
7643,note_off,104,0,0,,11,,,82,127
7643,note_off,0,0,0,,0,,,60,127
7644,note_on,1,0,0,,2,,,62,127
7644,note_on,0,0,0,,11,,,82,127
7852,note_off,208,0,0,,11,,,82,127
7852,note_off,0,0,0,,2,,,62,127
7853,note_on,1,0,0,,3,,,63,127
7853,note_on,0,0,0,,10,,,81,127
7957,note_off,104,0,0,,10,,,81,127
7958,note_on,1,0,0,,7,,,79,127
8062,note_off,104,0,0,,7,,,79,127
8062,note_off,0,0,0,,3,,,63,127
8063,note_on,1,0,0,,5,,,65,127
8063,note_on,0,0,0,,5,,,77,127
8167,note_off,104,0,0,,5,,,77,127
8168,note_on,1,0,0,,3,,,75,127
8272,note_off,104,0,0,,3,,,75,127
8272,note_off,0,0,0,,5,,,65,127
8273,note_on,1,0,0,,10,,,69,127
8273,note_on,0,0,0,,2,,,74,127
8377,note_off,104,0,0,,2,,,74,127
8378,note_on,1,0,0,,0,,,72,127
8482,note_off,104,0,0,,0,,,72,127
8482,note_off,0,0,0,,10,,,69,127
8483,note_on,1,0,0,,11,,,70,127
8483,note_on,0,0,0,,2,,,74,127
8691,note_off,208,0,0,,2,,,74,127
8692,note_on,1,0,0,,2,,,86,127
8796,note_off,104,0,0,,2,,,86,127
8797,note_on,1,0,0,,11,,,82,127
8901,note_off,104,0,0,,11,,,82,127
8901,note_off,0,0,0,,11,,,70,127
8902,note_on,1,0,0,,11,,,58,127
8902,note_on,0,0,0,,11,,,82,127
9110,note_off,208,0,0,,11,,,82,127
9110,note_off,0,0,0,,11,,,58,127
9111,note_on,1,0,0,,0,,,60,127
9111,note_on,0,0,0,,2,,,86,127
9215,note_off,104,0,0,,2,,,86,127
9216,note_on,1,0,0,,11,,,82,127
9320,note_off,104,0,0,,11,,,82,127
9320,note_off,0,0,0,,0,,,60,127
9321,note_on,1,0,0,,2,,,62,127
9321,note_on,0,0,0,,11,,,82,127
9529,note_off,208,0,0,,11,,,82,127
9529,note_off,0,0,0,,2,,,62,127
9530,note_on,1,0,0,,3,,,63,127
9530,note_on,0,0,0,,10,,,81,127
9634,note_off,104,0,0,,10,,,81,127
9635,note_on,1,0,0,,7,,,79,127
9739,note_off,104,0,0,,7,,,79,127
9739,note_off,0,0,0,,3,,,63,127
9740,note_on,1,0,0,,5,,,65,127
9740,note_on,0,0,0,,5,,,77,127
9844,note_off,104,0,0,,5,,,77,127
9845,note_on,1,0,0,,3,,,75,127
9949,note_off,104,0,0,,3,,,75,127
9949,note_off,0,0,0,,5,,,65,127
9950,note_on,1,0,0,,10,,,69,127
9950,note_on,0,0,0,,2,,,74,127
10054,note_off,104,0,0,,2,,,74,127
10055,note_on,1,0,0,,0,,,72,127
10159,note_off,104,0,0,,0,,,72,127
10159,note_off,0,0,0,,10,,,69,127
10160,note_on,1,0,0,,11,,,70,127
10160,note_on,0,0,0,,2,,,74,127
10368,note_off,208,0,0,,2,,,74,127
10368,note_off,0,0,0,,11,,,70,127
10369,note_on,1,0,0,,2,,,74,127
10369,note_on,0,0,0,,5,,,77,127
10473,note_off,104,0,0,,2,,,74,127
10474,note_on,1,0,0,,11,,,70,127
10578,note_off,104,0,0,,11,,,70,127
10578,note_off,0,0,0,,5,,,77,127
10579,note_on,1,0,0,,11,,,70,127
10579,note_on,0,0,0,,2,,,74,127
10787,note_off,208,0,0,,2,,,74,127
10787,note_off,0,0,0,,11,,,70,127
10788,note_on,1,0,0,,2,,,74,127
10788,note_on,0,0,0,,5,,,77,127
10892,note_off,104,0,0,,2,,,74,127
10893,note_on,1,0,0,,11,,,70,127
10997,note_off,104,0,0,,11,,,70,127
10997,note_off,0,0,0,,5,,,77,127
10998,note_on,1,0,0,,11,,,70,127
10998,note_on,0,0,0,,2,,,74,127
11206,note_off,208,0,0,,2,,,74,127
11206,note_off,0,0,0,,11,,,70,127
11207,note_on,1,0,0,,10,,,69,127
11207,note_on,0,0,0,,5,,,77,127
11311,note_off,104,0,0,,10,,,69,127
11312,note_on,1,0,0,,7,,,67,127
11416,note_off,104,0,0,,7,,,67,127
11417,note_on,1,0,0,,5,,,65,127
11521,note_off,104,0,0,,5,,,65,127
11522,note_on,1,0,0,,3,,,63,127
11626,note_off,104,0,0,,3,,,63,127
11626,note_off,0,0,0,,5,,,77,127
11627,note_on,1,0,0,,2,,,62,127
11627,note_on,0,0,0,,10,,,81,127
11731,note_off,104,0,0,,2,,,62,127
11732,note_on,1,0,0,,0,,,60,127
11836,note_off,104,0,0,,0,,,60,127
11836,note_off,0,0,0,,10,,,81,127
11837,note_on,1,0,0,,2,,,62,127
11837,note_on,0,0,0,,11,,,82,127
12045,note_off,208,0,0,,11,,,82,127
12045,note_off,0,0,0,,2,,,62,127
12046,note_on,1,0,0,,2,,,74,127
12046,note_on,0,0,0,,5,,,77,127
12150,note_off,104,0,0,,2,,,74,127
12151,note_on,1,0,0,,11,,,70,127
12255,note_off,104,0,0,,11,,,70,127
12255,note_off,0,0,0,,5,,,77,127
12256,note_on,1,0,0,,11,,,70,127
12256,note_on,0,0,0,,2,,,74,127
12464,note_off,208,0,0,,2,,,74,127
12464,note_off,0,0,0,,11,,,70,127
12465,note_on,1,0,0,,2,,,74,127
12465,note_on,0,0,0,,5,,,77,127
12569,note_off,104,0,0,,2,,,74,127
12570,note_on,1,0,0,,11,,,70,127
12674,note_off,104,0,0,,11,,,70,127
12674,note_off,0,0,0,,5,,,77,127
12675,note_on,1,0,0,,11,,,70,127
12675,note_on,0,0,0,,2,,,74,127
12883,note_off,208,0,0,,2,,,74,127
12883,note_off,0,0,0,,11,,,70,127
12884,note_on,1,0,0,,10,,,69,127
12884,note_on,0,0,0,,5,,,77,127
12988,note_off,104,0,0,,10,,,69,127
12989,note_on,1,0,0,,7,,,67,127
13093,note_off,104,0,0,,7,,,67,127
13094,note_on,1,0,0,,5,,,65,127
13198,note_off,104,0,0,,5,,,65,127
13199,note_on,1,0,0,,3,,,63,127
13303,note_off,104,0,0,,3,,,63,127
13303,note_off,0,0,0,,5,,,77,127
13304,note_on,1,0,0,,2,,,62,127
13304,note_on,0,0,0,,3,,,75,127
13304,note_on,0,0,0,,10,,,81,127
13408,note_off,104,0,0,,2,,,62,127
13409,note_on,1,0,0,,0,,,60,127
13513,note_off,104,0,0,,0,,,60,127
13513,note_off,0,0,0,,10,,,81,127
13513,note_off,0,0,0,,3,,,75,127
13514,note_on,1,0,0,,11,,,58,127
13514,note_on,0,0,0,,2,,,74,127
13514,note_on,0,0,0,,11,,,82,127
13722,note_off,208,0,0,,11,,,82,127
13722,note_off,0,0,0,,2,,,74,127
13723,note_on,1,0,0,,2,,,86,127
13827,note_off,104,0,0,,2,,,86,127
13828,note_on,1,0,0,,11,,,82,127
13932,note_off,104,0,0,,11,,,82,127
13933,note_on,1,0,0,,11,,,82,127
14141,note_off,208,0,0,,11,,,82,127
14141,note_off,0,0,0,,11,,,58,127
14142,note_on,1,0,0,,0,,,60,127
14142,note_on,0,0,0,,2,,,86,127
14246,note_off,104,0,0,,2,,,86,127
14247,note_on,1,0,0,,11,,,82,127
14351,note_off,104,0,0,,11,,,82,127
14351,note_off,0,0,0,,0,,,60,127
14352,note_on,1,0,0,,2,,,62,127
14352,note_on,0,0,0,,11,,,82,127
14560,note_off,208,0,0,,11,,,82,127
14561,note_on,1,0,0,,2,,,86,127
14665,note_off,104,0,0,,2,,,86,127
14666,note_on,1,0,0,,11,,,82,127
14770,note_off,104,0,0,,11,,,82,127
14770,note_off,0,0,0,,2,,,62,127
14771,note_on,1,0,0,,4,,,64,127
14771,note_on,0,0,0,,0,,,84,127
14875,note_off,104,0,0,,0,,,84,127
14876,note_on,1,0,0,,11,,,82,127
14980,note_off,104,0,0,,11,,,82,127
14981,note_on,1,0,0,,10,,,81,127
15085,note_off,104,0,0,,10,,,81,127
15086,note_on,1,0,0,,7,,,79,127
15190,note_off,104,0,0,,7,,,79,127
15190,note_off,0,0,0,,4,,,64,127
15191,note_on,1,0,0,,5,,,65,127
15191,note_on,0,0,0,,10,,,81,127
15399,note_off,208,0,0,,10,,,81,127
15399,note_off,0,0,0,,5,,,65,127
15400,note_on,1,0,0,,10,,,69,127
15400,note_on,0,0,0,,0,,,84,127
15504,note_off,104,0,0,,0,,,84,127
15504,note_off,0,0,0,,10,,,69,127
15505,note_on,1,0,0,,5,,,65,127
15505,note_on,0,0,0,,10,,,81,127
15609,note_off,104,0,0,,10,,,81,127
15609,note_off,0,0,0,,5,,,65,127
15610,note_on,1,0,0,,5,,,65,127
15610,note_on,0,0,0,,10,,,81,127
15818,note_off,208,0,0,,10,,,81,127
15818,note_off,0,0,0,,5,,,65,127
15819,note_on,1,0,0,,10,,,69,127
15819,note_on,0,0,0,,0,,,84,127
15923,note_off,104,0,0,,0,,,84,127
15923,note_off,0,0,0,,10,,,69,127
15924,note_on,1,0,0,,5,,,65,127
15924,note_on,0,0,0,,10,,,81,127
16028,note_off,104,0,0,,10,,,81,127
16028,note_off,0,0,0,,5,,,65,127
16029,note_on,1,0,0,,5,,,65,127
16029,note_on,0,0,0,,11,,,82,127
16133,note_off,104,0,0,,11,,,82,127
16134,note_on,1,0,0,,10,,,81,127
16238,note_off,104,0,0,,10,,,81,127
16238,note_off,0,0,0,,5,,,65,127
16239,note_on,1,0,0,,4,,,64,127
16239,note_on,0,0,0,,7,,,79,127
16343,note_off,104,0,0,,7,,,79,127
16343,note_off,0,0,0,,4,,,64,127
16344,note_on,1,0,0,,2,,,62,127
16344,note_on,0,0,0,,5,,,77,127
16448,note_off,104,0,0,,5,,,77,127
16448,note_off,0,0,0,,2,,,62,127
16449,note_on,1,0,0,,0,,,60,127
16449,note_on,0,0,0,,7,,,79,127
16553,note_off,104,0,0,,0,,,60,127
16554,note_on,1,0,0,,11,,,58,127
16658,note_off,104,0,0,,11,,,58,127
16658,note_off,0,0,0,,7,,,79,127
16659,note_on,1,0,0,,10,,,57,127
16659,note_on,0,0,0,,4,,,76,127
16763,note_off,104,0,0,,10,,,57,127
16764,note_on,1,0,0,,7,,,55,127
16868,note_off,104,0,0,,7,,,55,127
16868,note_off,0,0,0,,4,,,76,127
16869,note_on,1,0,0,,5,,,53,127
16869,note_on,0,0,0,,5,,,77,127
17077,note_off,208,0,0,,5,,,77,127
17077,note_off,0,0,0,,5,,,53,127
17078,note_on,1,0,0,,10,,,69,127
17078,note_on,0,0,0,,0,,,84,127
17182,note_off,104,0,0,,0,,,84,127
17182,note_off,0,0,0,,10,,,69,127
17183,note_on,1,0,0,,5,,,65,127
17183,note_on,0,0,0,,10,,,81,127
17287,note_off,104,0,0,,10,,,81,127
17287,note_off,0,0,0,,5,,,65,127
17288,note_on,1,0,0,,5,,,65,127
17288,note_on,0,0,0,,10,,,81,127
17496,note_off,208,0,0,,10,,,81,127
17496,note_off,0,0,0,,5,,,65,127
17497,note_on,1,0,0,,10,,,69,127
17497,note_on,0,0,0,,0,,,84,127
17601,note_off,104,0,0,,0,,,84,127
17601,note_off,0,0,0,,10,,,69,127
17602,note_on,1,0,0,,5,,,65,127
17602,note_on,0,0,0,,10,,,81,127
17706,note_off,104,0,0,,10,,,81,127
17706,note_off,0,0,0,,5,,,65,127
17707,note_on,1,0,0,,5,,,65,127
17707,note_on,0,0,0,,10,,,81,127
17915,note_off,208,0,0,,10,,,81,127
17915,note_off,0,0,0,,5,,,65,127
17916,note_on,1,0,0,,4,,,64,127
17916,note_on,0,0,0,,7,,,79,127
18020,note_off,104,0,0,,7,,,79,127
18020,note_off,0,0,0,,4,,,64,127
18021,note_on,1,0,0,,2,,,62,127
18021,note_on,0,0,0,,5,,,77,127
18125,note_off,104,0,0,,5,,,77,127
18125,note_off,0,0,0,,2,,,62,127
18126,note_on,1,0,0,,0,,,60,127
18126,note_on,0,0,0,,7,,,79,127
18230,note_off,104,0,0,,0,,,60,127
18231,note_on,1,0,0,,11,,,58,127
18335,note_off,104,0,0,,11,,,58,127
18335,note_off,0,0,0,,7,,,79,127
18336,note_on,1,0,0,,10,,,57,127
18336,note_on,0,0,0,,10,,,81,127
18440,note_off,104,0,0,,10,,,81,127
18440,note_off,0,0,0,,10,,,57,127
18441,note_on,1,0,0,,7,,,55,127
18441,note_on,0,0,0,,11,,,82,127
18545,note_off,104,0,0,,11,,,82,127
18545,note_off,0,0,0,,7,,,55,127
18546,note_on,1,0,0,,5,,,53,127
18546,note_on,0,0,0,,10,,,81,127
18754,note_off,208,0,0,,10,,,81,127
18755,note_on,1,0,0,,0,,,84,127
18859,note_off,104,0,0,,0,,,84,127
18860,note_on,1,0,0,,10,,,81,127
18964,note_off,104,0,0,,10,,,81,127
18965,note_on,1,0,0,,10,,,81,127
19173,note_off,208,0,0,,10,,,81,127
19173,note_off,0,0,0,,5,,,53,127
19174,note_on,1,0,0,,7,,,55,127
19174,note_on,0,0,0,,0,,,84,127
19278,note_off,104,0,0,,0,,,84,127
19279,note_on,1,0,0,,10,,,81,127
19383,note_off,104,0,0,,10,,,81,127
19383,note_off,0,0,0,,7,,,55,127
19384,note_on,1,0,0,,10,,,57,127
19384,note_on,0,0,0,,10,,,81,127
19592,note_off,208,0,0,,10,,,81,127
19593,note_on,1,0,0,,7,,,79,127
19697,note_off,104,0,0,,7,,,79,127
19698,note_on,1,0,0,,5,,,77,127
19802,note_off,104,0,0,,5,,,77,127
19802,note_off,0,0,0,,10,,,57,127
19803,note_on,1,0,0,,12,,,59,127
19803,note_on,0,0,0,,7,,,79,127
19907,note_off,104,0,0,,7,,,79,127
19908,note_on,1,0,0,,5,,,77,127
20012,note_off,104,0,0,,5,,,77,127
20013,note_on,1,0,0,,4,,,76,127
20117,note_off,104,0,0,,4,,,76,127
20118,note_on,1,0,0,,2,,,74,127
20222,note_off,104,0,0,,2,,,74,127
20222,note_off,0,0,0,,12,,,59,127
20223,note_on,1,0,0,,0,,,60,127
20223,note_on,0,0,0,,4,,,76,127
20431,note_off,208,0,0,,4,,,76,127
20432,note_on,1,0,0,,7,,,79,127
20536,note_off,104,0,0,,7,,,79,127
20537,note_on,1,0,0,,4,,,76,127
20641,note_off,104,0,0,,4,,,76,127
20642,note_on,1,0,0,,4,,,76,127
20850,note_off,208,0,0,,4,,,76,127
20850,note_off,0,0,0,,0,,,60,127
20851,note_on,1,0,0,,4,,,52,127
20851,note_on,0,0,0,,7,,,79,127
20955,note_off,104,0,0,,7,,,79,127
20956,note_on,1,0,0,,4,,,76,127
21060,note_off,104,0,0,,4,,,76,127
21060,note_off,0,0,0,,4,,,52,127
21061,note_on,1,0,0,,5,,,53,127
21061,note_on,0,0,0,,10,,,81,127
21269,note_off,208,0,0,,10,,,81,127
21270,note_on,1,0,0,,7,,,79,127
21374,note_off,104,0,0,,7,,,79,127
21375,note_on,1,0,0,,5,,,77,127
21479,note_off,104,0,0,,5,,,77,127
21479,note_off,0,0,0,,5,,,53,127
21480,note_on,1,0,0,,7,,,55,127
21480,note_on,0,0,0,,4,,,76,127
21584,note_off,104,0,0,,4,,,76,127
21585,note_on,1,0,0,,2,,,74,127
21689,note_off,104,0,0,,2,,,74,127
21690,note_on,1,0,0,,0,,,72,127
21794,note_off,104,0,0,,0,,,72,127
21795,note_on,1,0,0,,12,,,71,127
21899,note_off,104,0,0,,12,,,71,127
21899,note_off,0,0,0,,7,,,55,127
21900,note_on,1,0,0,,0,,,48,127
21900,note_on,0,0,0,,0,,,72,127
22107,note_off,207,0,0,,0,,,48,127
22108,note_off,1,0,0,,0,,,72,127
22109,note_on,1,0,0,,0,,,84,127
22214,note_on,105,0,0,,0,,,72,127
22317,note_off,103,0,0,,0,,,84,127
22318,note_off,1,0,0,,0,,,72,127
22319,note_on,1,0,0,,0,,,72,127
22527,note_off,208,0,0,,0,,,72,127
22528,note_on,1,0,0,,0,,,72,127
22633,note_on,105,0,0,,0,,,60,127
22736,note_off,103,0,0,,0,,,72,127
22737,note_off,1,0,0,,0,,,60,127
22738,note_on,1,0,0,,0,,,60,127
22945,note_off,207,0,0,,0,,,60,127
22947,note_on,2,0,0,,0,,,60,127
23052,note_on,105,0,0,,0,,,48,127
23155,note_off,103,0,0,,0,,,60,127
23156,note_off,1,0,0,,0,,,48,127
23157,note_on,1,0,0,,0,,,48,127
23365,note_off,208,0,0,,0,,,48,127
23366,note_on,1,0,0,,0,,,48,127
23471,note_on,105,0,0,,0,,,36,127
23574,note_off,103,0,0,,0,,,48,127
23575,note_off,1,0,0,,0,,,36,127
23576,note_on,1,0,0,,0,,,36,127
24413,note_off,837,0,0,,0,,,36,127
24624,note_on,211,0,0,,0,,,84,127
24728,note_off,104,0,0,,0,,,84,127
24729,note_on,1,0,0,,7,,,79,127
24833,note_off,104,0,0,,7,,,79,127
24834,note_on,1,0,0,,7,,,79,127
24834,note_on,0,0,0,,0,,,72,127
24834,note_on,0,0,0,,4,,,64,127
25042,note_off,208,0,0,,7,,,79,127
25043,note_on,1,0,0,,7,,,79,127
25147,note_off,104,0,0,,7,,,79,127
25148,note_on,1,0,0,,7,,,79,127
25252,note_off,104,0,0,,7,,,79,127
25252,note_off,0,0,0,,4,,,64,127
25252,note_off,0,0,0,,0,,,72,127
25253,note_on,1,0,0,,7,,,79,127
25253,note_on,0,0,0,,1,,,73,127
25253,note_on,0,0,0,,5,,,65,127
25461,note_off,208,0,0,,7,,,79,127
25462,note_on,1,0,0,,8,,,80,127
25566,note_off,104,0,0,,8,,,80,127
25567,note_on,1,0,0,,5,,,77,127
25671,note_off,104,0,0,,5,,,65,127
25671,note_off,0,0,0,,1,,,73,127
25672,note_on,1,0,0,,0,,,72,127
25672,note_on,0,0,0,,4,,,64,127
25880,note_off,208,0,0,,5,,,77,127
25881,note_on,1,0,0,,7,,,79,127
26086,note_off,205,0,0,,4,,,64,127
26195,note_off,109,0,0,,7,,,79,127
26299,note_off,104,0,0,,0,,,72,127
26300,note_on,1,0,0,,0,,,84,127
26404,note_off,104,0,0,,0,,,84,127
26405,note_on,1,0,0,,7,,,79,127
26509,note_off,104,0,0,,7,,,79,127
26510,note_on,1,0,0,,7,,,79,127
26510,note_on,0,0,0,,4,,,64,127
26510,note_on,0,0,0,,0,,,72,127
26718,note_off,208,0,0,,7,,,79,127
26719,note_on,1,0,0,,7,,,79,127
26823,note_off,104,0,0,,7,,,79,127
26824,note_on,1,0,0,,7,,,79,127
26928,note_off,104,0,0,,7,,,79,127
26928,note_off,0,0,0,,0,,,72,127
26928,note_off,0,0,0,,4,,,64,127
26929,note_on,1,0,0,,7,,,79,127
26929,note_on,0,0,0,,1,,,73,127
26929,note_on,0,0,0,,5,,,65,127
27137,note_off,208,0,0,,7,,,79,127
27138,note_on,1,0,0,,8,,,80,127
27242,note_off,104,0,0,,8,,,80,127
27243,note_on,1,0,0,,5,,,77,127
27347,note_off,104,0,0,,5,,,77,127
27347,note_off,0,0,0,,5,,,65,127
27347,note_off,0,0,0,,1,,,73,127
27348,note_on,1,0,0,,5,,,77,127
27348,note_on,0,0,0,,4,,,64,127
27348,note_on,0,0,0,,0,,,72,127
27556,note_off,208,0,0,,5,,,77,127
27557,note_on,1,0,0,,7,,,79,127
27765,note_off,208,0,0,,0,,,72,127
27765,note_off,0,0,0,,4,,,64,127
27766,note_on,1,0,0,,0,,,60,127
27871,note_off,105,0,0,,7,,,79,127
27976,note_on,105,0,0,,7,,,79,127
28080,note_off,104,0,0,,7,,,79,127
28081,note_on,1,0,0,,7,,,79,127
28185,note_off,104,0,0,,7,,,79,127
28185,note_off,0,0,0,,0,,,60,127
28186,note_on,1,0,0,,7,,,79,127
28186,note_on,0,0,0,,1,,,73,127
28186,note_on,0,0,0,,11,,,58,127
28394,note_off,208,0,0,,7,,,79,127
28395,note_on,1,0,0,,7,,,79,127
28499,note_off,104,0,0,,7,,,79,127
28500,note_on,1,0,0,,7,,,79,127
28600,note_off,100,0,0,,1,,,73,127
28603,note_off,3,0,0,,7,,,79,127
28603,note_off,0,0,0,,11,,,58,127
28604,note_on,1,0,0,,7,,,79,127
28604,note_on,0,0,0,,0,,,72,127
28604,note_on,0,0,0,,4,,,64,127
28812,note_off,208,0,0,,7,,,79,127
28813,note_on,1,0,0,,8,,,80,127
28917,note_off,104,0,0,,8,,,80,127
28918,note_on,1,0,0,,11,,,82,127
29022,note_off,104,0,0,,11,,,82,127
29022,note_off,0,0,0,,4,,,64,127
29023,note_on,1,0,0,,8,,,80,127
29023,note_on,0,0,0,,5,,,65,127
29127,note_off,104,0,0,,8,,,80,127
29128,note_on,1,0,0,,7,,,79,127
29232,note_off,104,0,0,,7,,,79,127
29233,note_on,1,0,0,,5,,,77,127
29337,note_off,104,0,0,,5,,,77,127
29338,note_on,1,0,0,,4,,,76,127
29442,note_off,104,0,0,,4,,,76,127
29442,note_off,0,0,0,,5,,,65,127
29442,note_off,0,0,0,,0,,,72,127
29443,note_on,1,0,0,,0,,,72,127
29443,note_on,0,0,0,,5,,,77,127
29443,note_on,0,0,0,,8,,,56,127
29651,note_off,208,0,0,,0,,,72,127
29652,note_on,1,0,0,,11,,,70,127
29756,note_off,104,0,0,,11,,,70,127
29757,note_on,1,0,0,,8,,,68,127
29861,note_off,104,0,0,,8,,,68,127
29861,note_off,0,0,0,,8,,,56,127
29862,note_on,1,0,0,,7,,,67,127
29862,note_on,0,0,0,,11,,,58,127
30070,note_off,208,0,0,,7,,,67,127
30071,note_on,1,0,0,,8,,,68,127
30175,note_off,104,0,0,,8,,,68,127
30176,note_on,1,0,0,,11,,,70,127
30280,note_off,104,0,0,,11,,,70,127
30280,note_off,0,0,0,,11,,,58,127
30280,note_off,0,0,0,,5,,,77,127
30281,note_on,1,0,0,,8,,,68,127
30281,note_on,0,0,0,,4,,,76,127
30281,note_on,0,0,0,,0,,,60,127
30385,note_off,104,0,0,,8,,,68,127
30386,note_on,1,0,0,,7,,,67,127
30490,note_off,104,0,0,,7,,,67,127
30491,note_on,1,0,0,,5,,,65,127
30595,note_off,104,0,0,,5,,,65,127
30596,note_on,1,0,0,,4,,,64,127
30696,note_off,100,0,0,,4,,,76,127
30699,note_off,3,0,0,,4,,,64,127
30699,note_off,0,0,0,,0,,,60,127
30700,note_on,1,0,0,,5,,,77,127
30700,note_on,0,0,0,,5,,,65,127
30700,note_on,0,0,0,,5,,,41,127
30908,note_off,208,0,0,,5,,,65,127
30908,note_off,0,0,0,,5,,,77,127
30909,note_on,1,0,0,,7,,,79,127
31117,note_off,208,0,0,,5,,,41,127
31118,note_on,1,0,0,,0,,,60,127
31223,note_off,105,0,0,,7,,,79,127
31328,note_on,105,0,0,,7,,,79,127
31432,note_off,104,0,0,,7,,,79,127
31433,note_off,1,0,0,,0,,,60,127
31433,note_on,0,0,0,,7,,,79,127
31537,note_off,104,0,0,,7,,,79,127
31538,note_on,1,0,0,,1,,,73,127
31538,note_on,0,0,0,,7,,,79,127
31538,note_on,0,0,0,,11,,,58,127
31746,note_off,208,0,0,,7,,,79,127
31747,note_on,1,0,0,,7,,,79,127
31851,note_off,104,0,0,,7,,,79,127
31852,note_on,1,0,0,,7,,,79,127
31952,note_off,100,0,0,,1,,,73,127
31955,note_off,3,0,0,,7,,,79,127
31955,note_off,0,0,0,,11,,,58,127
31956,note_on,1,0,0,,0,,,72,127
31956,note_on,0,0,0,,7,,,79,127
31956,note_on,0,0,0,,4,,,64,127
32164,note_off,208,0,0,,7,,,79,127
32165,note_on,1,0,0,,8,,,80,127
32269,note_off,104,0,0,,8,,,80,127
32270,note_on,1,0,0,,11,,,82,127
32374,note_off,104,0,0,,11,,,82,127
32374,note_off,0,0,0,,4,,,64,127
32375,note_on,1,0,0,,8,,,80,127
32375,note_on,0,0,0,,5,,,65,127
32479,note_off,104,0,0,,8,,,80,127
32480,note_on,1,0,0,,7,,,79,127
32584,note_off,104,0,0,,7,,,79,127
32585,note_on,1,0,0,,5,,,77,127
32689,note_off,104,0,0,,5,,,77,127
32690,note_on,1,0,0,,4,,,76,127
32794,note_off,104,0,0,,4,,,76,127
32794,note_off,0,0,0,,5,,,65,127
32794,note_off,0,0,0,,0,,,72,127
32795,note_on,1,0,0,,5,,,77,127
32795,note_on,0,0,0,,0,,,72,127
32795,note_on,0,0,0,,8,,,56,127
33003,note_off,208,0,0,,0,,,72,127
33004,note_on,1,0,0,,11,,,70,127
33108,note_off,104,0,0,,11,,,70,127
33109,note_on,1,0,0,,8,,,68,127
33213,note_off,104,0,0,,8,,,68,127
33213,note_off,0,0,0,,8,,,56,127
33214,note_on,1,0,0,,7,,,67,127
33214,note_on,0,0,0,,11,,,58,127
33422,note_off,208,0,0,,7,,,67,127
33423,note_on,1,0,0,,8,,,68,127
33527,note_off,104,0,0,,8,,,68,127
33528,note_on,1,0,0,,11,,,70,127
33632,note_off,104,0,0,,11,,,70,127
33632,note_off,0,0,0,,11,,,58,127
33632,note_off,0,0,0,,5,,,77,127
33633,note_on,1,0,0,,4,,,76,127
33633,note_on,0,0,0,,8,,,68,127
33633,note_on,0,0,0,,0,,,60,127
33737,note_off,104,0,0,,8,,,68,127
33738,note_on,1,0,0,,7,,,67,127
33842,note_off,104,0,0,,7,,,67,127
33843,note_on,1,0,0,,5,,,65,127
33947,note_off,104,0,0,,5,,,65,127
33948,note_on,1,0,0,,4,,,64,127
34048,note_off,100,0,0,,4,,,76,127
34051,note_off,3,0,0,,4,,,64,127
34051,note_off,0,0,0,,0,,,60,127
34052,note_on,1,0,0,,5,,,77,127
34052,note_on,0,0,0,,5,,,65,127
34052,note_on,0,0,0,,5,,,53,127
34259,note_off,207,0,0,,5,,,65,127
34260,note_off,1,0,0,,5,,,77,127
34261,note_on,1,0,0,,10,,,81,127
34365,note_off,104,0,0,,10,,,81,127
34366,note_on,1,0,0,,0,,,72,127
34470,note_off,104,0,0,,0,,,72,127
34470,note_off,0,0,0,,5,,,53,127
34471,note_on,1,0,0,,0,,,72,127
34471,note_on,0,0,0,,10,,,57,127
34471,note_on,0,0,0,,5,,,65,127
34679,note_off,208,0,0,,0,,,72,127
34680,note_on,1,0,0,,10,,,81,127
34784,note_off,104,0,0,,10,,,81,127
34785,note_on,1,0,0,,0,,,72,127
34889,note_off,104,0,0,,0,,,72,127
34889,note_off,0,0,0,,5,,,65,127
34889,note_off,0,0,0,,10,,,57,127
34890,note_on,1,0,0,,0,,,72,127
34890,note_on,0,0,0,,5,,,65,127
34890,note_on,0,0,0,,7,,,55,127
35098,note_off,208,0,0,,0,,,72,127
35099,note_on,1,0,0,,2,,,74,127
35203,note_off,104,0,0,,2,,,74,127
35204,note_on,1,0,0,,11,,,70,127
35308,note_off,104,0,0,,11,,,70,127
35308,note_off,0,0,0,,7,,,55,127
35308,note_off,0,0,0,,5,,,65,127
35309,note_on,1,0,0,,11,,,70,127
35309,note_on,0,0,0,,4,,,64,127
35309,note_on,0,0,0,,7,,,55,127
35517,note_off,208,0,0,,11,,,70,127
35518,note_on,1,0,0,,7,,,79,127
35622,note_off,104,0,0,,7,,,79,127
35623,note_on,1,0,0,,11,,,70,127
35727,note_off,104,0,0,,11,,,70,127
35727,note_off,0,0,0,,7,,,55,127
35727,note_off,0,0,0,,4,,,64,127
35728,note_on,1,0,0,,11,,,70,127
35728,note_on,0,0,0,,5,,,53,127
35728,note_on,0,0,0,,5,,,65,127
35936,note_off,208,0,0,,11,,,70,127
35937,note_on,1,0,0,,0,,,72,127
36041,note_off,104,0,0,,0,,,72,127
36042,note_on,1,0,0,,10,,,69,127
36146,note_off,104,0,0,,10,,,69,127
36146,note_off,0,0,0,,5,,,65,127
36146,note_off,0,0,0,,5,,,53,127
36147,note_on,1,0,0,,10,,,69,127
36147,note_on,0,0,0,,5,,,65,127
36147,note_on,0,0,0,,10,,,57,127
36355,note_off,208,0,0,,10,,,69,127
36356,note_on,1,0,0,,5,,,77,127
36460,note_off,104,0,0,,5,,,77,127
36461,note_on,1,0,0,,0,,,72,127
36565,note_off,104,0,0,,0,,,72,127
36565,note_off,0,0,0,,10,,,57,127
36565,note_off,0,0,0,,5,,,65,127
36566,note_on,1,0,0,,0,,,72,127
36566,note_on,0,0,0,,11,,,58,127
36566,note_on,0,0,0,,5,,,65,127
36670,note_off,104,0,0,,0,,,72,127
36671,note_on,1,0,0,,10,,,69,127
36775,note_off,104,0,0,,10,,,69,127
36776,note_on,1,0,0,,11,,,70,127
36880,note_off,104,0,0,,11,,,70,127
36881,note_on,1,0,0,,7,,,67,127
36985,note_off,104,0,0,,7,,,67,127
36985,note_off,0,0,0,,5,,,65,127
36985,note_off,0,0,0,,11,,,58,127
36986,note_on,1,0,0,,5,,,65,127
36986,note_on,0,0,0,,0,,,60,127
37194,note_off,208,0,0,,5,,,65,127
37195,note_on,1,0,0,,5,,,65,127
37246,note_off,51,0,0,,5,,,65,127
37247,note_on,1,0,0,,4,,,64,127
37298,note_off,51,0,0,,4,,,64,127
37299,note_on,1,0,0,,2,,,62,127
37350,note_off,51,0,0,,2,,,62,127
37351,note_on,1,0,0,,4,,,64,127
37402,note_off,51,0,0,,4,,,64,127
37402,note_off,0,0,0,,0,,,60,127
37403,note_on,1,0,0,,5,,,65,127
37403,note_on,0,0,0,,5,,,53,127
37611,note_off,208,0,0,,5,,,65,127
37612,note_on,1,0,0,,8,,,80,127
37716,note_off,104,0,0,,8,,,80,127
37717,note_on,1,0,0,,10,,,81,127
37821,note_off,104,0,0,,10,,,81,127
37821,note_off,0,0,0,,5,,,53,127
37822,note_on,1,0,0,,10,,,69,127
37822,note_on,0,0,0,,5,,,65,127
37822,note_on,0,0,0,,10,,,57,127
38030,note_off,208,0,0,,10,,,69,127
38031,note_on,1,0,0,,1,,,85,127
38135,note_off,104,0,0,,1,,,85,127
38136,note_on,1,0,0,,2,,,86,127
38240,note_off,104,0,0,,2,,,86,127
38240,note_off,0,0,0,,10,,,57,127
38240,note_off,0,0,0,,5,,,65,127
38241,note_on,1,0,0,,2,,,74,127
38241,note_on,0,0,0,,5,,,65,127
38241,note_on,0,0,0,,11,,,58,127
38449,note_off,208,0,0,,2,,,74,127
38450,note_on,1,0,0,,4,,,76,127
38554,note_off,104,0,0,,4,,,76,127
38555,note_on,1,0,0,,5,,,77,127
38655,note_off,100,0,0,,5,,,65,127
38658,note_off,3,0,0,,5,,,77,127
38659,note_on,1,0,0,,5,,,65,127
38867,note_off,208,0,0,,11,,,58,127
38868,note_on,1,0,0,,12,,,59,127
38972,note_off,104,0,0,,12,,,59,127
38973,note_on,1,0,0,,0,,,60,127
39077,note_off,104,0,0,,0,,,60,127
39078,note_on,1,0,0,,0,,,36,127
39182,note_off,104,0,0,,5,,,65,127
39183,note_on,1,0,0,,4,,,64,127
39287,note_off,104,0,0,,4,,,64,127
39288,note_on,1,0,0,,5,,,65,127
39392,note_off,104,0,0,,5,,,65,127
39393,note_on,1,0,0,,7,,,67,127
39497,note_off,104,0,0,,7,,,67,127
39498,note_on,1,0,0,,10,,,69,127
39549,note_off,51,0,0,,10,,,69,127
39550,note_on,1,0,0,,7,,,67,127
39601,note_off,51,0,0,,7,,,67,127
39602,note_on,1,0,0,,10,,,69,127
39653,note_off,51,0,0,,10,,,69,127
39654,note_on,1,0,0,,7,,,67,127
39705,note_off,51,0,0,,7,,,67,127
39706,note_on,1,0,0,,10,,,69,127
39757,note_off,51,0,0,,10,,,69,127
39758,note_on,1,0,0,,7,,,67,127
39809,note_off,51,0,0,,7,,,67,127
39810,note_on,1,0,0,,5,,,65,127
39914,note_off,104,0,0,,5,,,65,127
39914,note_off,0,0,0,,0,,,36,127
39915,note_on,1,0,0,,5,,,65,127
39915,note_on,0,0,0,,5,,,41,127
40123,note_off,208,0,0,,5,,,65,127
40124,note_on,1,0,0,,8,,,80,127
40228,note_off,104,0,0,,8,,,80,127
40229,note_on,1,0,0,,10,,,81,127
40333,note_off,104,0,0,,10,,,81,127
40333,note_off,0,0,0,,5,,,41,127
40334,note_on,1,0,0,,10,,,69,127
40334,note_on,0,0,0,,5,,,65,127
40334,note_on,0,0,0,,10,,,57,127
40542,note_off,208,0,0,,10,,,69,127
40543,note_on,1,0,0,,1,,,85,127
40647,note_off,104,0,0,,1,,,85,127
40648,note_on,1,0,0,,2,,,86,127
40752,note_off,104,0,0,,2,,,86,127
40752,note_off,0,0,0,,10,,,57,127
40752,note_off,0,0,0,,5,,,65,127
40753,note_on,1,0,0,,2,,,74,127
40753,note_on,0,0,0,,5,,,65,127
40753,note_on,0,0,0,,11,,,58,127
40961,note_off,208,0,0,,2,,,74,127
40962,note_on,1,0,0,,4,,,76,127
41066,note_off,104,0,0,,4,,,76,127
41067,note_on,1,0,0,,5,,,77,127
41167,note_off,100,0,0,,5,,,65,127
41170,note_off,3,0,0,,5,,,77,127
41171,note_on,1,0,0,,5,,,65,127
41379,note_off,208,0,0,,11,,,58,127
41380,note_on,1,0,0,,12,,,59,127
41484,note_off,104,0,0,,12,,,59,127
41485,note_on,1,0,0,,0,,,60,127
41589,note_off,104,0,0,,0,,,60,127
41590,note_on,1,0,0,,0,,,36,127
41694,note_off,104,0,0,,5,,,65,127
41695,note_on,1,0,0,,4,,,64,127
41799,note_off,104,0,0,,4,,,64,127
41800,note_on,1,0,0,,5,,,65,127
41904,note_off,104,0,0,,5,,,65,127
41905,note_on,1,0,0,,7,,,67,127
42009,note_off,104,0,0,,7,,,67,127
42010,note_on,1,0,0,,10,,,69,127
42061,note_off,51,0,0,,10,,,69,127
42062,note_on,1,0,0,,7,,,67,127
42113,note_off,51,0,0,,7,,,67,127
42114,note_on,1,0,0,,10,,,69,127
42165,note_off,51,0,0,,10,,,69,127
42166,note_on,1,0,0,,7,,,67,127
42217,note_off,51,0,0,,7,,,67,127
42218,note_on,1,0,0,,10,,,69,127
42269,note_off,51,0,0,,10,,,69,127
42270,note_on,1,0,0,,7,,,67,127
42321,note_off,51,0,0,,7,,,67,127
42322,note_on,1,0,0,,5,,,65,127
42426,note_off,104,0,0,,5,,,65,127
42426,note_off,0,0,0,,0,,,36,127
42427,note_on,1,0,0,,5,,,65,127
42427,note_on,0,0,0,,5,,,41,127
42635,note_off,208,0,0,,5,,,65,127
42636,note_on,1,0,0,,10,,,81,127
42740,note_off,104,0,0,,10,,,81,127
42741,note_on,1,0,0,,5,,,77,127
42845,note_off,104,0,0,,5,,,77,127
42846,note_on,1,0,0,,0,,,72,127
42950,note_off,104,0,0,,0,,,72,127
42951,note_on,1,0,0,,10,,,69,127
43055,note_off,104,0,0,,10,,,69,127
43055,note_off,0,0,0,,5,,,41,127
43056,note_on,1,0,0,,11,,,70,127
43056,note_on,0,0,0,,4,,,76,127
43056,note_on,0,0,0,,0,,,36,127
43160,note_off,104,0,0,,11,,,70,127
43161,note_on,1,0,0,,7,,,67,127
43264,note_off,103,0,0,,4,,,76,127
43265,note_off,1,0,0,,7,,,67,127
43265,note_off,0,0,0,,0,,,36,127
43266,note_on,1,0,0,,10,,,69,127
43266,note_on,0,0,0,,5,,,77,127
43266,note_on,0,0,0,,5,,,41,127
43474,note_off,208,0,0,,5,,,77,127
43475,note_on,1,0,0,,10,,,81,127
43579,note_off,104,0,0,,10,,,81,127
43580,note_off,1,0,0,,10,,,69,127
43580,note_on,0,0,0,,5,,,77,127
43684,note_off,104,0,0,,5,,,77,127
43685,note_on,1,0,0,,0,,,72,127
43789,note_off,104,0,0,,0,,,72,127
43790,note_on,1,0,0,,10,,,69,127
43894,note_off,104,0,0,,10,,,69,127
43894,note_off,0,0,0,,5,,,41,127
43895,note_on,1,0,0,,4,,,76,127
43895,note_on,0,0,0,,11,,,70,127
43895,note_on,0,0,0,,0,,,36,127
43999,note_off,104,0,0,,11,,,70,127
44000,note_on,1,0,0,,7,,,67,127
44103,note_off,103,0,0,,4,,,76,127
44104,note_off,1,0,0,,7,,,67,127
44104,note_off,0,0,0,,0,,,36,127
44105,note_on,1,0,0,,5,,,77,127
44105,note_on,0,0,0,,10,,,69,127
44105,note_on,0,0,0,,5,,,41,127
44313,note_off,208,0,0,,5,,,77,127
44314,note_on,1,0,0,,10,,,81,127
44418,note_off,104,0,0,,10,,,81,127
44419,note_off,1,0,0,,10,,,69,127
44419,note_on,0,0,0,,5,,,77,127
44523,note_off,104,0,0,,5,,,77,127
44524,note_on,1,0,0,,0,,,72,127
44628,note_off,104,0,0,,0,,,72,127
44629,note_on,1,0,0,,10,,,69,127
44733,note_off,104,0,0,,10,,,69,127
44733,note_off,0,0,0,,5,,,41,127
44734,note_on,1,0,0,,11,,,70,127
44734,note_on,0,0,0,,4,,,76,127
44734,note_on,0,0,0,,0,,,36,127
44838,note_off,104,0,0,,11,,,70,127
44839,note_on,1,0,0,,7,,,67,127
44942,note_off,103,0,0,,4,,,76,127
44943,note_off,1,0,0,,7,,,67,127
44943,note_off,0,0,0,,0,,,36,127
44944,note_on,1,0,0,,5,,,77,127
44944,note_on,0,0,0,,10,,,69,127
44944,note_on,0,0,0,,5,,,41,127
45359,note_off,415,0,0,,10,,,69,127
45359,note_off,0,0,0,,5,,,77,127
45572,note_off,213,0,0,,5,,,41,127
45573,note_on,1,0,0,,0,,,72,127
45677,note_off,104,0,0,,0,,,72,127
45678,note_on,1,0,0,,10,,,69,127
45782,note_off,104,0,0,,10,,,69,127
45783,note_on,1,0,0,,10,,,69,127
45783,note_on,0,0,0,,5,,,65,127
45783,note_on,0,0,0,,5,,,53,127
45991,note_off,208,0,0,,10,,,69,127
45992,note_on,1,0,0,,0,,,72,127
46096,note_off,104,0,0,,0,,,72,127
46097,note_on,1,0,0,,10,,,69,127
46201,note_off,104,0,0,,10,,,69,127
46201,note_off,0,0,0,,5,,,65,127
46202,note_on,1,0,0,,10,,,69,127
46202,note_on,0,0,0,,4,,,64,127
46410,note_off,208,0,0,,10,,,69,127
46411,note_on,1,0,0,,0,,,72,127
46515,note_off,104,0,0,,0,,,72,127
46516,note_on,1,0,0,,10,,,69,127
46620,note_off,104,0,0,,10,,,69,127
46620,note_off,0,0,0,,4,,,64,127
46620,note_off,0,0,0,,5,,,53,127
46621,note_on,1,0,0,,0,,,72,127
46621,note_on,0,0,0,,7,,,55,127
46621,note_on,0,0,0,,2,,,62,127
46829,note_off,208,0,0,,0,,,72,127
46830,note_on,1,0,0,,12,,,71,127
47038,note_off,208,0,0,,2,,,62,127
47039,note_on,1,0,0,,7,,,67,127
47144,note_off,105,0,0,,12,,,71,127
47249,note_on,105,0,0,,2,,,74,127
47353,note_off,104,0,0,,2,,,74,127
47354,note_on,1,0,0,,12,,,71,127
47458,note_off,104,0,0,,12,,,71,127
47458,note_off,0,0,0,,7,,,67,127
47458,note_off,0,0,0,,7,,,55,127
47459,note_on,1,0,0,,12,,,71,127
47459,note_on,0,0,0,,7,,,67,127
47459,note_on,0,0,0,,7,,,55,127
47667,note_off,208,0,0,,12,,,71,127
47668,note_on,1,0,0,,2,,,74,127
47772,note_off,104,0,0,,2,,,74,127
47773,note_on,1,0,0,,12,,,71,127
47877,note_off,104,0,0,,12,,,71,127
47877,note_off,0,0,0,,7,,,67,127
47878,note_on,1,0,0,,12,,,71,127
47878,note_on,0,0,0,,5,,,65,127
48086,note_off,208,0,0,,12,,,71,127
48087,note_on,1,0,0,,2,,,74,127
48191,note_off,104,0,0,,2,,,74,127
48192,note_on,1,0,0,,12,,,71,127
48296,note_off,104,0,0,,12,,,71,127
48296,note_off,0,0,0,,5,,,65,127
48296,note_off,0,0,0,,7,,,55,127
48297,note_on,1,0,0,,2,,,74,127
48297,note_on,0,0,0,,10,,,57,127
48297,note_on,0,0,0,,4,,,64,127
48505,note_off,208,0,0,,2,,,74,127
48506,note_on,1,0,0,,1,,,73,127
48714,note_off,208,0,0,,4,,,64,127
48715,note_on,1,0,0,,10,,,69,127
48820,note_off,105,0,0,,1,,,73,127
48925,note_on,105,0,0,,4,,,76,127
49029,note_off,104,0,0,,4,,,76,127
49030,note_on,1,0,0,,1,,,73,127
49134,note_off,104,0,0,,1,,,73,127
49134,note_off,0,0,0,,10,,,69,127
49134,note_off,0,0,0,,10,,,57,127
49135,note_on,1,0,0,,1,,,73,127
49135,note_on,0,0,0,,10,,,57,127
49135,note_on,0,0,0,,10,,,69,127
49343,note_off,208,0,0,,1,,,73,127
49344,note_on,1,0,0,,4,,,76,127
49448,note_off,104,0,0,,4,,,76,127
49449,note_on,1,0,0,,1,,,73,127
49553,note_off,104,0,0,,1,,,73,127
49553,note_off,0,0,0,,10,,,69,127
49554,note_on,1,0,0,,1,,,73,127
49554,note_on,0,0,0,,7,,,67,127
49762,note_off,208,0,0,,1,,,73,127
49763,note_on,1,0,0,,4,,,76,127
49867,note_off,104,0,0,,4,,,76,127
49868,note_on,1,0,0,,1,,,73,127
49972,note_off,104,0,0,,1,,,73,127
49972,note_off,0,0,0,,7,,,67,127
49972,note_off,0,0,0,,10,,,57,127
49973,note_on,1,0,0,,1,,,73,127
49973,note_on,0,0,0,,5,,,65,127
49973,note_on,0,0,0,,11,,,58,127
50181,note_off,208,0,0,,1,,,73,127
50182,note_on,1,0,0,,2,,,74,127
50390,note_off,208,0,0,,11,,,58,127
50390,note_off,0,0,0,,5,,,65,127
50391,note_on,1,0,0,,2,,,62,127
50391,note_on,0,0,0,,5,,,53,127
50599,note_off,208,0,0,,2,,,74,127
50600,note_on,1,0,0,,2,,,86,127
50704,note_off,104,0,0,,2,,,86,127
50705,note_on,1,0,0,,0,,,84,127
50809,note_off,104,0,0,,0,,,84,127
50809,note_off,0,0,0,,5,,,53,127
50809,note_off,0,0,0,,2,,,62,127
50810,note_on,1,0,0,,11,,,82,127
50810,note_on,0,0,0,,2,,,62,127
50810,note_on,0,0,0,,7,,,55,127
51018,note_off,208,0,0,,11,,,82,127
51019,note_on,1,0,0,,10,,,81,127
51123,note_off,104,0,0,,10,,,81,127
51124,note_on,1,0,0,,7,,,79,127
51228,note_off,104,0,0,,7,,,79,127
51228,note_off,0,0,0,,7,,,55,127
51228,note_off,0,0,0,,2,,,62,127
51229,note_on,1,0,0,,5,,,77,127
51229,note_on,0,0,0,,11,,,70,127
51229,note_on,0,0,0,,7,,,55,127
51437,note_off,208,0,0,,5,,,77,127
51438,note_on,1,0,0,,4,,,76,127
51542,note_off,104,0,0,,4,,,76,127
51543,note_on,1,0,0,,2,,,74,127
51643,note_off,100,0,0,,11,,,70,127
51646,note_off,3,0,0,,2,,,74,127
51646,note_off,0,0,0,,7,,,55,127
51647,note_on,1,0,0,,1,,,73,127
51647,note_on,0,0,0,,10,,,57,127
51855,note_off,208,0,0,,10,,,57,127
51856,note_on,1,0,0,,10,,,69,127
51960,note_off,104,0,0,,10,,,69,127
51961,note_on,1,0,0,,5,,,65,127
52065,note_off,104,0,0,,5,,,65,127
52065,note_off,0,0,0,,1,,,73,127
52066,note_on,1,0,0,,10,,,81,127
52066,note_on,0,0,0,,5,,,65,127
52274,note_off,208,0,0,,5,,,65,127
52275,note_on,1,0,0,,10,,,69,127
52379,note_off,104,0,0,,10,,,69,127
52380,note_on,1,0,0,,5,,,65,127
52484,note_off,104,0,0,,5,,,65,127
52484,note_off,0,0,0,,10,,,81,127
52485,note_on,1,0,0,,2,,,74,127
52485,note_on,0,0,0,,5,,,65,127
52693,note_off,208,0,0,,5,,,65,127
52694,note_on,1,0,0,,4,,,64,127
52798,note_off,104,0,0,,4,,,64,127
52799,note_on,1,0,0,,2,,,62,127
52903,note_off,104,0,0,,2,,,62,127
52903,note_off,0,0,0,,2,,,74,127
52904,note_on,1,0,0,,4,,,76,127
52904,note_on,0,0,0,,1,,,61,127
53008,note_off,104,0,0,,1,,,61,127
53009,note_on,1,0,0,,12,,,59,127
53113,note_off,104,0,0,,12,,,59,127
53114,note_on,1,0,0,,10,,,57,127
53218,note_off,104,0,0,,10,,,57,127
53219,note_on,1,0,0,,7,,,55,127
53323,note_off,104,0,0,,7,,,55,127
53323,note_off,0,0,0,,4,,,76,127
53324,note_on,1,0,0,,10,,,69,127
53324,note_on,0,0,0,,5,,,53,127
53532,note_off,208,0,0,,5,,,53,127
53533,note_on,1,0,0,,5,,,65,127
53637,note_off,104,0,0,,5,,,65,127
53638,note_on,1,0,0,,2,,,62,127
53742,note_off,104,0,0,,2,,,62,127
53742,note_off,0,0,0,,10,,,69,127
53743,note_on,1,0,0,,10,,,69,127
53743,note_on,0,0,0,,5,,,77,127
53743,note_on,0,0,0,,2,,,62,127
53951,note_off,208,0,0,,2,,,62,127
53952,note_on,1,0,0,,5,,,65,127
54056,note_off,104,0,0,,5,,,65,127
54057,note_on,1,0,0,,2,,,62,127
54161,note_off,104,0,0,,2,,,62,127
54161,note_off,0,0,0,,5,,,77,127
54161,note_off,0,0,0,,10,,,69,127
54162,note_on,1,0,0,,10,,,81,127
54162,note_on,0,0,0,,2,,,62,127
54370,note_off,208,0,0,,2,,,62,127
54371,note_on,1,0,0,,1,,,61,127
54475,note_off,104,0,0,,1,,,61,127
54476,note_on,1,0,0,,12,,,59,127
54580,note_off,104,0,0,,12,,,59,127
54580,note_off,0,0,0,,10,,,81,127
54581,note_on,1,0,0,,1,,,73,127
54581,note_on,0,0,0,,10,,,57,127
54685,note_off,104,0,0,,10,,,57,127
54686,note_on,1,0,0,,7,,,55,127
54790,note_off,104,0,0,,7,,,55,127
54791,note_on,1,0,0,,5,,,53,127
54895,note_off,104,0,0,,5,,,53,127
54896,note_on,1,0,0,,4,,,52,127
55000,note_off,104,0,0,,4,,,52,127
55000,note_off,0,0,0,,1,,,73,127
55001,note_on,1,0,0,,2,,,74,127
55001,note_on,0,0,0,,5,,,53,127
55209,note_off,208,0,0,,2,,,74,127
55210,note_on,1,0,0,,10,,,81,127
55314,note_off,104,0,0,,10,,,81,127
55315,note_on,1,0,0,,2,,,74,127
55419,note_off,104,0,0,,2,,,74,127
55419,note_off,0,0,0,,5,,,53,127
55420,note_on,1,0,0,,2,,,74,127
55420,note_on,0,0,0,,2,,,62,127
55420,note_on,0,0,0,,5,,,53,127
55628,note_off,208,0,0,,2,,,74,127
55629,note_on,1,0,0,,10,,,81,127
55733,note_off,104,0,0,,10,,,81,127
55734,note_on,1,0,0,,2,,,74,127
55838,note_off,104,0,0,,2,,,74,127
55838,note_off,0,0,0,,5,,,53,127
55838,note_off,0,0,0,,2,,,62,127
55839,note_on,1,0,0,,2,,,74,127
55839,note_on,0,0,0,,2,,,62,127
55839,note_on,0,0,0,,6,,,54,127
56047,note_off,208,0,0,,2,,,74,127
56048,note_on,1,0,0,,10,,,81,127
56152,note_off,104,0,0,,10,,,81,127
56153,note_on,1,0,0,,2,,,74,127
56257,note_off,104,0,0,,2,,,74,127
56257,note_off,0,0,0,,6,,,54,127
56257,note_off,0,0,0,,2,,,62,127
56258,note_on,1,0,0,,0,,,72,127
56258,note_on,0,0,0,,2,,,50,127
56258,note_on,0,0,0,,2,,,62,127
56466,note_off,208,0,0,,0,,,72,127
56467,note_on,1,0,0,,0,,,72,127
56532,note_on,65,0,0,,11,,,70,127
56535,note_off,3,0,0,,0,,,72,127
56597,note_on,62,0,0,,10,,,69,127
56600,note_off,3,0,0,,11,,,70,127
56673,note_off,73,0,0,,10,,,69,127
56674,note_off,1,0,0,,2,,,62,127
56674,note_off,0,0,0,,2,,,50,127
56675,note_on,1,0,0,,11,,,70,127
56675,note_on,0,0,0,,2,,,62,127
56675,note_on,0,0,0,,7,,,55,127
56883,note_off,208,0,0,,11,,,70,127
56884,note_on,1,0,0,,7,,,79,127
56988,note_off,104,0,0,,7,,,79,127
56989,note_on,1,0,0,,11,,,70,127
57093,note_off,104,0,0,,11,,,70,127
57093,note_off,0,0,0,,7,,,55,127
57093,note_off,0,0,0,,2,,,62,127
57094,note_on,1,0,0,,11,,,70,127
57094,note_on,0,0,0,,2,,,62,127
57094,note_on,0,0,0,,5,,,53,127
57302,note_off,208,0,0,,11,,,70,127
57303,note_on,1,0,0,,7,,,79,127
57407,note_off,104,0,0,,7,,,79,127
57408,note_on,1,0,0,,11,,,70,127
57512,note_off,104,0,0,,11,,,70,127
57512,note_off,0,0,0,,5,,,53,127
57512,note_off,0,0,0,,2,,,62,127
57513,note_on,1,0,0,,11,,,70,127
57513,note_on,0,0,0,,0,,,60,127
57513,note_on,0,0,0,,4,,,52,127
57721,note_off,208,0,0,,11,,,70,127
57722,note_on,1,0,0,,7,,,79,127
57826,note_off,104,0,0,,7,,,79,127
57827,note_on,1,0,0,,0,,,72,127
57931,note_off,104,0,0,,0,,,72,127
57931,note_off,0,0,0,,4,,,52,127
57931,note_off,0,0,0,,0,,,60,127
57932,note_on,1,0,0,,11,,,70,127
57932,note_on,0,0,0,,0,,,60,127
57932,note_on,0,0,0,,0,,,48,127
58140,note_off,208,0,0,,11,,,70,127
58141,note_on,1,0,0,,11,,,70,127
58206,note_on,65,0,0,,10,,,69,127
58209,note_off,3,0,0,,11,,,70,127
58271,note_on,62,0,0,,7,,,67,127
58274,note_off,3,0,0,,10,,,69,127
58347,note_off,73,0,0,,7,,,67,127
58348,note_off,1,0,0,,0,,,48,127
58348,note_off,0,0,0,,0,,,60,127
58349,note_on,1,0,0,,10,,,69,127
58349,note_on,0,0,0,,5,,,53,127
58349,note_on,0,0,0,,0,,,60,127
58557,note_off,208,0,0,,10,,,69,127
58558,note_on,1,0,0,,0,,,84,127
58662,note_off,104,0,0,,0,,,84,127
58663,note_on,1,0,0,,5,,,77,127
58767,note_off,104,0,0,,5,,,77,127
58767,note_off,0,0,0,,0,,,60,127
58767,note_off,0,0,0,,5,,,53,127
58768,note_on,1,0,0,,5,,,77,127
58768,note_on,0,0,0,,5,,,53,127
58768,note_on,0,0,0,,0,,,60,127
58976,note_off,208,0,0,,5,,,77,127
58977,note_on,1,0,0,,0,,,84,127
59081,note_off,104,0,0,,0,,,84,127
59082,note_on,1,0,0,,5,,,77,127
59186,note_off,104,0,0,,5,,,77,127
59186,note_off,0,0,0,,0,,,60,127
59186,note_off,0,0,0,,5,,,53,127
59187,note_on,1,0,0,,5,,,77,127
59187,note_on,0,0,0,,5,,,65,127
59187,note_on,0,0,0,,10,,,57,127
59395,note_off,208,0,0,,5,,,77,127
59396,note_on,1,0,0,,0,,,84,127
59500,note_off,104,0,0,,0,,,84,127
59501,note_on,1,0,0,,5,,,77,127
59605,note_off,104,0,0,,5,,,77,127
59605,note_off,0,0,0,,10,,,57,127
59605,note_off,0,0,0,,5,,,65,127
59606,note_on,1,0,0,,3,,,75,127
59606,note_on,0,0,0,,10,,,57,127
59606,note_on,0,0,0,,5,,,65,127
59814,note_off,208,0,0,,3,,,75,127
59815,note_on,1,0,0,,3,,,75,127
59880,note_on,65,0,0,,2,,,74,127
59883,note_off,3,0,0,,3,,,75,127
59945,note_on,62,0,0,,0,,,72,127
59948,note_off,3,0,0,,2,,,74,127
60021,note_off,73,0,0,,0,,,72,127
60022,note_off,1,0,0,,5,,,65,127
60022,note_off,0,0,0,,10,,,57,127
60023,note_on,1,0,0,,2,,,74,127
60023,note_on,0,0,0,,11,,,58,127
60023,note_on,0,0,0,,5,,,65,127
60231,note_off,208,0,0,,2,,,74,127
60232,note_on,1,0,0,,2,,,86,127
60336,note_off,104,0,0,,2,,,86,127
60337,note_on,1,0,0,,11,,,82,127
60441,note_off,104,0,0,,11,,,82,127
60442,note_on,1,0,0,,11,,,82,127
60650,note_off,208,0,0,,11,,,82,127
60650,note_off,0,0,0,,5,,,65,127
60650,note_off,0,0,0,,11,,,58,127
60651,note_on,1,0,0,,2,,,86,127
60651,note_on,0,0,0,,0,,,60,127
60755,note_off,104,0,0,,2,,,86,127
60756,note_on,1,0,0,,11,,,82,127
60860,note_off,104,0,0,,11,,,82,127
60860,note_off,0,0,0,,0,,,60,127
60861,note_on,1,0,0,,11,,,82,127
60861,note_on,0,0,0,,2,,,62,127
61069,note_off,208,0,0,,2,,,62,127
61069,note_off,0,0,0,,11,,,82,127
61070,note_on,1,0,0,,10,,,81,127
61070,note_on,0,0,0,,3,,,63,127
61174,note_off,104,0,0,,10,,,81,127
61175,note_on,1,0,0,,7,,,79,127
61279,note_off,104,0,0,,7,,,79,127
61279,note_off,0,0,0,,3,,,63,127
61280,note_on,1,0,0,,5,,,77,127
61280,note_on,0,0,0,,5,,,65,127
61384,note_off,104,0,0,,5,,,77,127
61385,note_on,1,0,0,,3,,,75,127
61489,note_off,104,0,0,,3,,,75,127
61489,note_off,0,0,0,,5,,,65,127
61490,note_on,1,0,0,,2,,,74,127
61490,note_on,0,0,0,,5,,,53,127
61594,note_off,104,0,0,,2,,,74,127
61595,note_on,1,0,0,,0,,,72,127
61699,note_off,104,0,0,,0,,,72,127
61699,note_off,0,0,0,,5,,,53,127
61700,note_on,1,0,0,,2,,,74,127
61700,note_on,0,0,0,,11,,,58,127
61908,note_off,208,0,0,,11,,,58,127
61908,note_off,0,0,0,,2,,,74,127
61909,note_on,1,0,0,,5,,,77,127
61909,note_on,0,0,0,,2,,,62,127
62013,note_off,104,0,0,,2,,,62,127
62013,note_off,0,0,0,,5,,,77,127
62014,note_on,1,0,0,,2,,,74,127
62014,note_on,0,0,0,,11,,,58,127
62118,note_off,104,0,0,,11,,,58,127
62118,note_off,0,0,0,,2,,,74,127
62119,note_on,1,0,0,,2,,,74,127
62119,note_on,0,0,0,,11,,,58,127
62327,note_off,208,0,0,,11,,,58,127
62327,note_off,0,0,0,,2,,,74,127
62328,note_on,1,0,0,,5,,,77,127
62328,note_on,0,0,0,,2,,,62,127
62432,note_off,104,0,0,,2,,,62,127
62432,note_off,0,0,0,,5,,,77,127
62433,note_on,1,0,0,,2,,,74,127
62433,note_on,0,0,0,,11,,,58,127
62537,note_off,104,0,0,,11,,,58,127
62537,note_off,0,0,0,,2,,,74,127
62538,note_on,1,0,0,,2,,,74,127
62538,note_on,0,0,0,,11,,,58,127
62746,note_off,208,0,0,,11,,,58,127
62746,note_off,0,0,0,,2,,,74,127
62747,note_on,1,0,0,,5,,,77,127
62747,note_on,0,0,0,,5,,,65,127
62747,note_on,0,0,0,,10,,,57,127
62851,note_off,104,0,0,,10,,,57,127
62852,note_on,1,0,0,,7,,,55,127
62956,note_off,104,0,0,,7,,,55,127
62957,note_on,1,0,0,,5,,,53,127
63061,note_off,104,0,0,,5,,,53,127
63062,note_on,1,0,0,,3,,,51,127
63166,note_off,104,0,0,,3,,,51,127
63166,note_off,0,0,0,,5,,,65,127
63166,note_off,0,0,0,,5,,,77,127
63167,note_on,1,0,0,,10,,,69,127
63167,note_on,0,0,0,,3,,,75,127
63167,note_on,0,0,0,,2,,,50,127
63271,note_off,104,0,0,,2,,,50,127
63272,note_on,1,0,0,,0,,,48,127
63376,note_off,104,0,0,,0,,,48,127
63376,note_off,0,0,0,,3,,,75,127
63376,note_off,0,0,0,,10,,,69,127
63377,note_on,1,0,0,,2,,,74,127
63377,note_on,0,0,0,,11,,,46,127
63585,note_off,208,0,0,,2,,,74,127
63586,note_on,1,0,0,,2,,,86,127
63690,note_off,104,0,0,,2,,,86,127
63691,note_on,1,0,0,,11,,,82,127
63795,note_off,104,0,0,,11,,,82,127
63796,note_on,1,0,0,,11,,,82,127
64004,note_off,208,0,0,,11,,,82,127
64004,note_off,0,0,0,,11,,,46,127
64005,note_on,1,0,0,,2,,,86,127
64005,note_on,0,0,0,,0,,,48,127
64109,note_off,104,0,0,,2,,,86,127
64110,note_on,1,0,0,,11,,,82,127
64214,note_off,104,0,0,,11,,,82,127
64214,note_off,0,0,0,,0,,,48,127
64215,note_on,1,0,0,,11,,,82,127
64215,note_on,0,0,0,,2,,,50,127
64319,note_off,104,0,0,,11,,,82,127
64320,note_on,1,0,0,,10,,,81,127
64424,note_off,104,0,0,,10,,,81,127
64425,note_on,1,0,0,,7,,,79,127
64529,note_off,104,0,0,,7,,,79,127
64530,note_on,1,0,0,,5,,,77,127
64634,note_off,104,0,0,,5,,,77,127
64634,note_off,0,0,0,,2,,,50,127
64635,note_on,1,0,0,,3,,,75,127
64635,note_on,0,0,0,,3,,,51,127
64739,note_off,104,0,0,,3,,,75,127
64740,note_on,1,0,0,,2,,,74,127
64844,note_off,104,0,0,,2,,,74,127
64845,note_on,1,0,0,,0,,,72,127
64949,note_off,104,0,0,,0,,,72,127
64950,note_on,1,0,0,,11,,,70,127
65054,note_off,104,0,0,,11,,,70,127
65054,note_off,0,0,0,,3,,,51,127
65055,note_on,1,0,0,,5,,,77,127
65055,note_on,0,0,0,,5,,,53,127
65262,note_off,207,0,0,,5,,,53,127
65263,note_off,1,0,0,,5,,,77,127
65264,note_on,1,0,0,,5,,,89,127
65369,note_on,105,0,0,,5,,,77,127
65472,note_off,103,0,0,,5,,,89,127
65473,note_off,1,0,0,,5,,,77,127
65474,note_on,1,0,0,,5,,,77,127
65682,note_off,208,0,0,,5,,,77,127
65683,note_on,1,0,0,,5,,,77,127
65788,note_on,105,0,0,,5,,,65,127
65891,note_off,103,0,0,,5,,,77,127
65892,note_off,1,0,0,,5,,,65,127
65893,note_on,1,0,0,,5,,,65,127
66101,note_off,208,0,0,,5,,,65,127
66102,note_on,1,0,0,,5,,,65,127
66207,note_on,105,0,0,,5,,,53,127
66310,note_off,103,0,0,,5,,,65,127
66311,note_off,1,0,0,,5,,,53,127
66312,note_on,1,0,0,,5,,,53,127
66519,note_off,207,0,0,,5,,,53,127
66521,note_on,2,0,0,,5,,,53,127
66626,note_on,105,0,0,,5,,,41,127
66729,note_off,103,0,0,,5,,,53,127
66730,note_off,1,0,0,,5,,,41,127
66731,note_on,1,0,0,,5,,,41,127
67568,note_off,837,0,0,,5,,,41,127
67779,note_on,211,0,0,,5,,,77,127
67883,note_off,104,0,0,,5,,,77,127
67884,note_on,1,0,0,,0,,,72,127
67988,note_off,104,0,0,,0,,,72,127
67989,note_on,1,0,0,,10,,,57,127
67989,note_on,0,0,0,,5,,,65,127
67989,note_on,0,0,0,,0,,,72,127
68197,note_off,208,0,0,,0,,,72,127
68198,note_on,1,0,0,,0,,,72,127
68302,note_off,104,0,0,,0,,,72,127
68303,note_on,1,0,0,,0,,,72,127
68407,note_off,104,0,0,,0,,,72,127
68407,note_off,0,0,0,,5,,,65,127
68407,note_off,0,0,0,,10,,,57,127
68408,note_on,1,0,0,,11,,,58,127
68408,note_on,0,0,0,,6,,,66,127
68408,note_on,0,0,0,,0,,,72,127
68616,note_off,208,0,0,,0,,,72,127
68617,note_on,1,0,0,,1,,,73,127
68721,note_off,104,0,0,,1,,,73,127
68722,note_on,1,0,0,,11,,,70,127
68826,note_off,104,0,0,,11,,,70,127
68826,note_off,0,0,0,,6,,,66,127
68826,note_off,0,0,0,,11,,,58,127
68827,note_on,1,0,0,,10,,,57,127
68827,note_on,0,0,0,,5,,,65,127
68827,note_on,0,0,0,,11,,,70,127
69035,note_off,208,0,0,,11,,,70,127
69036,note_on,1,0,0,,0,,,72,127
69241,note_off,205,0,0,,5,,,65,127
69241,note_off,0,0,0,,10,,,57,127
69454,note_off,213,0,0,,0,,,72,127
69455,note_on,1,0,0,,5,,,77,127
69559,note_off,104,0,0,,5,,,77,127
69560,note_on,1,0,0,,0,,,72,127
69664,note_off,104,0,0,,0,,,72,127
69665,note_on,1,0,0,,5,,,65,127
69665,note_on,0,0,0,,10,,,57,127
69665,note_on,0,0,0,,0,,,72,127
69873,note_off,208,0,0,,0,,,72,127
69874,note_on,1,0,0,,0,,,72,127
69978,note_off,104,0,0,,0,,,72,127
69979,note_on,1,0,0,,0,,,72,127
70083,note_off,104,0,0,,0,,,72,127
70083,note_off,0,0,0,,10,,,57,127
70083,note_off,0,0,0,,5,,,65,127
70084,note_on,1,0,0,,11,,,58,127
70084,note_on,0,0,0,,6,,,66,127
70084,note_on,0,0,0,,0,,,72,127
70292,note_off,208,0,0,,0,,,72,127
70293,note_on,1,0,0,,1,,,73,127
70397,note_off,104,0,0,,1,,,73,127
70398,note_on,1,0,0,,11,,,70,127
70502,note_off,104,0,0,,11,,,70,127
70502,note_off,0,0,0,,6,,,66,127
70502,note_off,0,0,0,,11,,,58,127
70503,note_on,1,0,0,,10,,,57,127
70503,note_on,0,0,0,,5,,,65,127
70503,note_on,0,0,0,,11,,,70,127
70711,note_off,208,0,0,,11,,,70,127
70712,note_on,1,0,0,,0,,,72,127
70920,note_off,208,0,0,,5,,,65,127
70920,note_off,0,0,0,,10,,,57,127
70921,note_on,1,0,0,,5,,,53,127
71129,note_off,208,0,0,,0,,,72,127
71130,note_on,1,0,0,,0,,,84,127
71234,note_off,104,0,0,,0,,,84,127
71235,note_on,1,0,0,,0,,,84,127
71339,note_off,104,0,0,,0,,,84,127
71339,note_off,0,0,0,,5,,,53,127
71340,note_on,1,0,0,,3,,,51,127
71340,note_on,0,0,0,,0,,,84,127
71340,note_on,0,0,0,,6,,,78,127
71548,note_off,208,0,0,,0,,,84,127
71549,note_on,1,0,0,,0,,,84,127
71653,note_off,104,0,0,,0,,,84,127
71654,note_on,1,0,0,,0,,,84,127
71754,note_off,100,0,0,,6,,,78,127
71757,note_off,3,0,0,,0,,,84,127
71757,note_off,0,0,0,,3,,,51,127
71758,note_on,1,0,0,,10,,,57,127
71758,note_on,0,0,0,,5,,,77,127
71758,note_on,0,0,0,,0,,,84,127
71966,note_off,208,0,0,,0,,,84,127
71967,note_on,1,0,0,,1,,,85,127
72071,note_off,104,0,0,,1,,,85,127
72072,note_on,1,0,0,,3,,,87,127
72176,note_off,104,0,0,,3,,,87,127
72176,note_off,0,0,0,,10,,,57,127
72177,note_on,1,0,0,,11,,,58,127
72177,note_on,0,0,0,,1,,,85,127
72281,note_off,104,0,0,,1,,,85,127
72282,note_on,1,0,0,,0,,,84,127
72386,note_off,104,0,0,,0,,,84,127
72387,note_on,1,0,0,,11,,,82,127
72491,note_off,104,0,0,,11,,,82,127
72492,note_on,1,0,0,,10,,,81,127
72596,note_off,104,0,0,,10,,,81,127
72596,note_off,0,0,0,,11,,,58,127
72596,note_off,0,0,0,,5,,,77,127
72597,note_on,1,0,0,,1,,,49,127
72597,note_on,0,0,0,,11,,,82,127
72597,note_on,0,0,0,,5,,,77,127
72805,note_off,208,0,0,,5,,,77,127
72806,note_on,1,0,0,,3,,,75,127
72910,note_off,104,0,0,,3,,,75,127
72911,note_on,1,0,0,,1,,,73,127
73015,note_off,104,0,0,,1,,,73,127
73015,note_off,0,0,0,,1,,,49,127
73016,note_on,1,0,0,,3,,,51,127
73016,note_on,0,0,0,,0,,,72,127
73224,note_off,208,0,0,,0,,,72,127
73225,note_on,1,0,0,,1,,,73,127
73329,note_off,104,0,0,,1,,,73,127
73330,note_on,1,0,0,,3,,,75,127
73434,note_off,104,0,0,,3,,,75,127
73434,note_off,0,0,0,,3,,,51,127
73434,note_off,0,0,0,,11,,,82,127
73435,note_on,1,0,0,,5,,,53,127
73435,note_on,0,0,0,,1,,,73,127
73435,note_on,0,0,0,,10,,,81,127
73539,note_off,104,0,0,,1,,,73,127
73540,note_on,1,0,0,,0,,,72,127
73644,note_off,104,0,0,,0,,,72,127
73645,note_on,1,0,0,,11,,,70,127
73749,note_off,104,0,0,,11,,,70,127
73750,note_on,1,0,0,,10,,,69,127
73850,note_off,100,0,0,,10,,,81,127
73853,note_off,3,0,0,,10,,,69,127
73853,note_off,0,0,0,,5,,,53,127
73854,note_on,1,0,0,,11,,,46,127
73854,note_on,0,0,0,,11,,,82,127
73854,note_on,0,0,0,,11,,,70,127
74062,note_off,208,0,0,,11,,,70,127
74062,note_off,0,0,0,,11,,,82,127
74063,note_on,1,0,0,,0,,,84,127
74271,note_off,208,0,0,,11,,,46,127
74272,note_on,1,0,0,,5,,,53,127
74377,note_off,105,0,0,,0,,,84,127
74482,note_on,105,0,0,,0,,,84,127
74586,note_off,104,0,0,,0,,,84,127
74587,note_on,1,0,0,,0,,,84,127
74691,note_off,104,0,0,,0,,,84,127
74691,note_off,0,0,0,,5,,,53,127
74692,note_on,1,0,0,,3,,,51,127
74692,note_on,0,0,0,,0,,,84,127
74692,note_on,0,0,0,,6,,,78,127
74900,note_off,208,0,0,,0,,,84,127
74901,note_on,1,0,0,,0,,,84,127
75005,note_off,104,0,0,,0,,,84,127
75006,note_on,1,0,0,,0,,,84,127
75106,note_off,100,0,0,,6,,,78,127
75109,note_off,3,0,0,,0,,,84,127
75109,note_off,0,0,0,,3,,,51,127
75110,note_on,1,0,0,,10,,,57,127
75110,note_on,0,0,0,,0,,,84,127
75110,note_on,0,0,0,,5,,,77,127
75318,note_off,208,0,0,,0,,,84,127
75319,note_on,1,0,0,,1,,,85,127
75423,note_off,104,0,0,,1,,,85,127
75424,note_on,1,0,0,,3,,,87,127
75528,note_off,104,0,0,,3,,,87,127
75528,note_off,0,0,0,,10,,,57,127
75529,note_on,1,0,0,,11,,,58,127
75529,note_on,0,0,0,,1,,,85,127
75633,note_off,104,0,0,,1,,,85,127
75634,note_on,1,0,0,,0,,,84,127
75738,note_off,104,0,0,,0,,,84,127
75739,note_on,1,0,0,,11,,,82,127
75843,note_off,104,0,0,,11,,,82,127
75844,note_on,1,0,0,,10,,,81,127
75948,note_off,104,0,0,,10,,,81,127
75948,note_off,0,0,0,,11,,,58,127
75948,note_off,0,0,0,,5,,,77,127
75949,note_on,1,0,0,,1,,,49,127
75949,note_on,0,0,0,,11,,,82,127
75949,note_on,0,0,0,,5,,,77,127
76156,note_off,207,0,0,,5,,,77,127
76158,note_on,2,0,0,,3,,,75,127
76262,note_off,104,0,0,,3,,,75,127
76263,note_on,1,0,0,,1,,,73,127
76367,note_off,104,0,0,,1,,,73,127
76367,note_off,0,0,0,,1,,,49,127
76368,note_on,1,0,0,,3,,,51,127
76368,note_on,0,0,0,,0,,,72,127
76576,note_off,208,0,0,,0,,,72,127
76577,note_on,1,0,0,,1,,,73,127
76681,note_off,104,0,0,,1,,,73,127
76682,note_on,1,0,0,,3,,,75,127
76786,note_off,104,0,0,,3,,,75,127
76786,note_off,0,0,0,,3,,,51,127
76786,note_off,0,0,0,,11,,,82,127
76787,note_on,1,0,0,,5,,,53,127
76787,note_on,0,0,0,,10,,,81,127
76787,note_on,0,0,0,,1,,,73,127
76891,note_off,104,0,0,,1,,,73,127
76892,note_on,1,0,0,,0,,,72,127
76996,note_off,104,0,0,,0,,,72,127
76997,note_on,1,0,0,,11,,,70,127
77101,note_off,104,0,0,,11,,,70,127
77102,note_on,1,0,0,,10,,,69,127
77202,note_off,100,0,0,,10,,,81,127
77205,note_off,3,0,0,,10,,,69,127
77205,note_off,0,0,0,,5,,,53,127
77206,note_on,1,0,0,,11,,,46,127
77206,note_on,0,0,0,,11,,,82,127
77206,note_on,0,0,0,,11,,,70,127
77414,note_off,208,0,0,,11,,,70,127
77414,note_off,0,0,0,,11,,,82,127
77415,note_on,1,0,0,,11,,,82,127
77519,note_off,104,0,0,,11,,,82,127
77520,note_on,1,0,0,,5,,,77,127
77624,note_off,104,0,0,,5,,,77,127
77624,note_off,0,0,0,,11,,,46,127
77625,note_on,1,0,0,,2,,,62,127
77625,note_on,0,0,0,,5,,,77,127
77833,note_off,208,0,0,,5,,,77,127
77834,note_on,1,0,0,,2,,,86,127
77938,note_off,104,0,0,,2,,,86,127
77939,note_on,1,0,0,,5,,,77,127
78043,note_off,104,0,0,,5,,,77,127
78043,note_off,0,0,0,,2,,,62,127
78044,note_on,1,0,0,,0,,,60,127
78044,note_on,0,0,0,,5,,,77,127
78252,note_off,208,0,0,,5,,,77,127
78253,note_on,1,0,0,,7,,,79,127
78357,note_off,104,0,0,,7,,,79,127
78358,note_on,1,0,0,,3,,,75,127
78462,note_off,104,0,0,,3,,,75,127
78462,note_off,0,0,0,,0,,,60,127
78463,note_on,1,0,0,,5,,,65,127
78463,note_on,0,0,0,,5,,,53,127
78463,note_on,0,0,0,,3,,,75,127
78671,note_off,208,0,0,,3,,,75,127
78672,note_on,1,0,0,,0,,,84,127
78776,note_off,104,0,0,,0,,,84,127
78777,note_on,1,0,0,,3,,,75,127
78881,note_off,104,0,0,,3,,,75,127
78881,note_off,0,0,0,,5,,,53,127
78881,note_off,0,0,0,,5,,,65,127
78882,note_on,1,0,0,,11,,,58,127
78882,note_on,0,0,0,,5,,,65,127
78882,note_on,0,0,0,,3,,,75,127
79090,note_off,208,0,0,,3,,,75,127
79091,note_on,1,0,0,,5,,,77,127
79195,note_off,104,0,0,,5,,,77,127
79196,note_on,1,0,0,,2,,,74,127
79300,note_off,104,0,0,,2,,,74,127
79300,note_off,0,0,0,,5,,,65,127
79300,note_off,0,0,0,,11,,,58,127
79301,note_on,1,0,0,,2,,,50,127
79301,note_on,0,0,0,,11,,,58,127
79301,note_on,0,0,0,,2,,,74,127
79509,note_off,208,0,0,,2,,,74,127
79510,note_on,1,0,0,,11,,,82,127
79614,note_off,104,0,0,,11,,,82,127
79615,note_on,1,0,0,,5,,,77,127
79719,note_off,104,0,0,,5,,,77,127
79719,note_off,0,0,0,,11,,,58,127
79719,note_off,0,0,0,,2,,,50,127
79720,note_on,1,0,0,,3,,,51,127
79720,note_on,0,0,0,,7,,,79,127
79824,note_off,104,0,0,,7,,,79,127
79825,note_on,1,0,0,,2,,,74,127
79929,note_off,104,0,0,,2,,,74,127
79930,note_on,1,0,0,,3,,,75,127
80034,note_off,104,0,0,,3,,,75,127
80035,note_on,1,0,0,,0,,,72,127
80139,note_off,104,0,0,,0,,,72,127
80139,note_off,0,0,0,,3,,,51,127
80140,note_on,1,0,0,,5,,,53,127
80140,note_on,0,0,0,,11,,,70,127
80348,note_off,208,0,0,,11,,,70,127
80349,note_on,1,0,0,,11,,,70,127
80400,note_off,51,0,0,,11,,,70,127
80401,note_on,1,0,0,,10,,,69,127
80452,note_off,51,0,0,,10,,,69,127
80453,note_on,1,0,0,,7,,,67,127
80504,note_off,51,0,0,,7,,,67,127
80505,note_on,1,0,0,,10,,,69,127
80556,note_off,51,0,0,,10,,,69,127
80556,note_off,0,0,0,,5,,,53,127
80557,note_on,1,0,0,,11,,,46,127
80557,note_on,0,0,0,,11,,,70,127
80765,note_off,208,0,0,,11,,,46,127
80766,note_on,1,0,0,,10,,,69,127
80862,note_off,96,0,0,,11,,,70,127
80870,note_off,8,0,0,,10,,,69,127
80871,note_on,1,0,0,,11,,,70,127
80975,note_off,104,0,0,,11,,,70,127
80976,note_on,1,0,0,,11,,,58,127
80976,note_on,0,0,0,,5,,,77,127
80976,note_on,0,0,0,,2,,,86,127
81184,note_off,208,0,0,,11,,,58,127
81185,note_on,1,0,0,,4,,,64,127
81289,note_off,104,0,0,,4,,,64,127
81290,note_on,1,0,0,,5,,,65,127
81394,note_off,104,0,0,,5,,,65,127
81394,note_off,0,0,0,,2,,,86,127
81394,note_off,0,0,0,,5,,,77,127
81395,note_on,1,0,0,,5,,,53,127
81395,note_on,0,0,0,,0,,,84,127
81395,note_on,0,0,0,,3,,,75,127
81603,note_off,208,0,0,,5,,,53,127
81604,note_on,1,0,0,,10,,,57,127
81708,note_off,104,0,0,,10,,,57,127
81709,note_on,1,0,0,,11,,,58,127
81813,note_off,104,0,0,,11,,,58,127
81813,note_off,0,0,0,,3,,,75,127
81813,note_off,0,0,0,,0,,,84,127
81814,note_on,1,0,0,,11,,,46,127
81814,note_on,0,0,0,,11,,,82,127
81814,note_on,0,0,0,,2,,,74,127
82022,note_off,208,0,0,,11,,,46,127
82023,note_on,1,0,0,,4,,,52,127
82127,note_off,104,0,0,,4,,,52,127
82128,note_on,1,0,0,,5,,,53,127
82232,note_off,104,0,0,,5,,,53,127
82232,note_off,0,0,0,,2,,,74,127
82232,note_off,0,0,0,,11,,,82,127
82233,note_on,1,0,0,,5,,,41,127
82233,note_on,0,0,0,,0,,,84,127
82233,note_on,0,0,0,,0,,,72,127
82337,note_off,104,0,0,,0,,,84,127
82338,note_on,1,0,0,,11,,,82,127
82442,note_off,104,0,0,,11,,,82,127
82443,note_on,1,0,0,,10,,,81,127
82547,note_off,104,0,0,,10,,,81,127
82548,note_off,1,0,0,,0,,,72,127
82548,note_on,0,0,0,,7,,,79,127
82652,note_off,104,0,0,,7,,,79,127
82653,note_on,1,0,0,,5,,,77,127
82757,note_off,104,0,0,,5,,,77,127
82758,note_on,1,0,0,,3,,,75,127
82862,note_off,104,0,0,,3,,,75,127
82862,note_off,0,0,0,,5,,,41,127
82863,note_on,1,0,0,,10,,,57,127
82863,note_on,0,0,0,,2,,,74,127
82967,note_off,104,0,0,,2,,,74,127
82968,note_on,1,0,0,,0,,,72,127
83072,note_off,104,0,0,,0,,,72,127
83072,note_off,0,0,0,,10,,,57,127
83073,note_on,1,0,0,,11,,,58,127
83073,note_on,0,0,0,,2,,,74,127
83177,note_off,104,0,0,,2,,,74,127
83178,note_on,1,0,0,,5,,,77,127
83282,note_off,104,0,0,,5,,,77,127
83282,note_off,0,0,0,,11,,,58,127
83283,note_on,1,0,0,,3,,,51,127
83283,note_on,0,0,0,,3,,,75,127
83387,note_off,104,0,0,,3,,,75,127
83388,note_on,1,0,0,,0,,,72,127
83492,note_off,104,0,0,,0,,,72,127
83492,note_off,0,0,0,,3,,,51,127
83493,note_on,1,0,0,,5,,,53,127
83493,note_on,0,0,0,,11,,,70,127
83493,note_on,0,0,0,,2,,,74,127
83701,note_off,208,0,0,,2,,,74,127
83701,note_off,0,0,0,,11,,,70,127
83701,note_off,0,0,0,,5,,,53,127
83702,note_on,1,0,0,,5,,,41,127
83702,note_on,0,0,0,,10,,,69,127
83702,note_on,0,0,0,,2,,,74,127
83753,note_off,51,0,0,,2,,,74,127
83754,note_on,1,0,0,,0,,,72,127
83805,note_off,51,0,0,,0,,,72,127
83806,note_on,1,0,0,,11,,,70,127
83857,note_off,51,0,0,,11,,,70,127
83858,note_on,1,0,0,,0,,,72,127
83908,note_off,50,0,0,,10,,,69,127
83909,note_off,1,0,0,,0,,,72,127
83909,note_off,0,0,0,,5,,,41,127
83910,note_on,1,0,0,,11,,,46,127
83910,note_on,0,0,0,,11,,,70,127
84118,note_off,208,0,0,,11,,,46,127
84119,note_on,1,0,0,,10,,,69,127
84215,note_off,96,0,0,,11,,,70,127
84223,note_off,8,0,0,,10,,,69,127
84224,note_on,1,0,0,,11,,,70,127
84328,note_off,104,0,0,,11,,,70,127
84329,note_on,1,0,0,,11,,,58,127
84329,note_on,0,0,0,,2,,,86,127
84329,note_on,0,0,0,,5,,,77,127
84537,note_off,208,0,0,,11,,,58,127
84538,note_on,1,0,0,,4,,,64,127
84642,note_off,104,0,0,,4,,,64,127
84643,note_on,1,0,0,,5,,,65,127
84747,note_off,104,0,0,,5,,,65,127
84747,note_off,0,0,0,,5,,,77,127
84747,note_off,0,0,0,,2,,,86,127
84748,note_on,1,0,0,,5,,,53,127
84748,note_on,0,0,0,,0,,,84,127
84748,note_on,0,0,0,,3,,,75,127
84956,note_off,208,0,0,,5,,,53,127
84957,note_on,1,0,0,,10,,,57,127
85061,note_off,104,0,0,,10,,,57,127
85062,note_on,1,0,0,,11,,,58,127
85166,note_off,104,0,0,,11,,,58,127
85166,note_off,0,0,0,,3,,,75,127
85166,note_off,0,0,0,,0,,,84,127
85167,note_on,1,0,0,,11,,,46,127
85167,note_on,0,0,0,,2,,,74,127
85167,note_on,0,0,0,,11,,,82,127
85375,note_off,208,0,0,,11,,,46,127
85376,note_on,1,0,0,,4,,,52,127
85480,note_off,104,0,0,,4,,,52,127
85481,note_on,1,0,0,,5,,,53,127
85585,note_off,104,0,0,,5,,,53,127
85585,note_off,0,0,0,,11,,,82,127
85585,note_off,0,0,0,,2,,,74,127
85586,note_on,1,0,0,,5,,,41,127
85586,note_on,0,0,0,,0,,,84,127
85586,note_on,0,0,0,,0,,,72,127
85690,note_off,104,0,0,,0,,,84,127
85691,note_on,1,0,0,,11,,,82,127
85795,note_off,104,0,0,,11,,,82,127
85796,note_on,1,0,0,,10,,,81,127
85900,note_off,104,0,0,,10,,,81,127
85901,note_off,1,0,0,,0,,,72,127
85901,note_on,0,0,0,,7,,,79,127
86005,note_off,104,0,0,,7,,,79,127
86006,note_on,1,0,0,,5,,,77,127
86110,note_off,104,0,0,,5,,,77,127
86111,note_off,1,0,0,,5,,,41,127
86111,note_on,0,0,0,,3,,,75,127
86215,note_off,104,0,0,,3,,,75,127
86216,note_on,1,0,0,,10,,,57,127
86216,note_on,0,0,0,,2,,,74,127
86320,note_off,104,0,0,,2,,,74,127
86321,note_on,1,0,0,,0,,,72,127
86425,note_off,104,0,0,,0,,,72,127
86425,note_off,0,0,0,,10,,,57,127
86426,note_on,1,0,0,,11,,,58,127
86426,note_on,0,0,0,,2,,,74,127
86530,note_off,104,0,0,,2,,,74,127
86531,note_on,1,0,0,,5,,,77,127
86635,note_off,104,0,0,,5,,,77,127
86635,note_off,0,0,0,,11,,,58,127
86636,note_on,1,0,0,,3,,,51,127
86636,note_on,0,0,0,,3,,,75,127
86740,note_off,104,0,0,,3,,,75,127
86741,note_on,1,0,0,,0,,,72,127
86845,note_off,104,0,0,,0,,,72,127
86845,note_off,0,0,0,,3,,,51,127
86846,note_on,1,0,0,,5,,,53,127
86846,note_on,0,0,0,,11,,,70,127
86846,note_on,0,0,0,,2,,,74,127
87054,note_off,208,0,0,,2,,,74,127
87054,note_off,0,0,0,,11,,,70,127
87054,note_off,0,0,0,,5,,,53,127
87055,note_on,1,0,0,,5,,,41,127
87055,note_on,0,0,0,,2,,,74,127
87055,note_on,0,0,0,,10,,,69,127
87106,note_off,51,0,0,,2,,,74,127
87107,note_on,1,0,0,,0,,,72,127
87158,note_off,51,0,0,,0,,,72,127
87159,note_on,1,0,0,,11,,,70,127
87210,note_off,51,0,0,,11,,,70,127
87211,note_on,1,0,0,,0,,,72,127
87261,note_off,50,0,0,,10,,,69,127
87262,note_off,1,0,0,,0,,,72,127
87262,note_off,0,0,0,,5,,,41,127
87263,note_on,1,0,0,,11,,,46,127
87263,note_on,0,0,0,,11,,,70,127
87471,note_off,208,0,0,,11,,,70,127
87472,note_on,1,0,0,,5,,,77,127
87576,note_off,104,0,0,,5,,,77,127
87577,note_on,1,0,0,,2,,,74,127
87681,note_off,104,0,0,,2,,,74,127
87682,note_on,1,0,0,,11,,,70,127
87786,note_off,104,0,0,,11,,,70,127
87787,note_on,1,0,0,,5,,,65,127
87891,note_off,104,0,0,,5,,,65,127
87891,note_off,0,0,0,,11,,,46,127
87892,note_on,1,0,0,,5,,,41,127
87892,note_on,0,0,0,,3,,,63,127
87892,note_on,0,0,0,,0,,,72,127
87996,note_off,104,0,0,,0,,,72,127
87997,note_on,1,0,0,,10,,,69,127
88100,note_off,103,0,0,,3,,,63,127
88101,note_off,1,0,0,,10,,,69,127
88101,note_off,0,0,0,,5,,,41,127
88102,note_on,1,0,0,,11,,,46,127
88102,note_on,0,0,0,,11,,,70,127
88102,note_on,0,0,0,,2,,,62,127
88310,note_off,208,0,0,,2,,,62,127
88310,note_off,0,0,0,,11,,,70,127
88311,note_on,1,0,0,,5,,,77,127
88415,note_off,104,0,0,,5,,,77,127
88416,note_on,1,0,0,,2,,,74,127
88520,note_off,104,0,0,,2,,,74,127
88521,note_on,1,0,0,,11,,,70,127
88625,note_off,104,0,0,,11,,,70,127
88626,note_on,1,0,0,,5,,,65,127
88730,note_off,104,0,0,,5,,,65,127
88730,note_off,0,0,0,,11,,,46,127
88731,note_on,1,0,0,,5,,,41,127
88731,note_on,0,0,0,,3,,,63,127
88731,note_on,0,0,0,,0,,,72,127
88835,note_off,104,0,0,,0,,,72,127
88836,note_on,1,0,0,,10,,,69,127
88939,note_off,103,0,0,,3,,,63,127
88940,note_off,1,0,0,,10,,,69,127
88940,note_off,0,0,0,,5,,,41,127
88941,note_on,1,0,0,,11,,,46,127
88941,note_on,0,0,0,,11,,,70,127
88941,note_on,0,0,0,,2,,,62,127
89149,note_off,208,0,0,,2,,,62,127
89149,note_off,0,0,0,,11,,,70,127
89150,note_on,1,0,0,,5,,,77,127
89254,note_off,104,0,0,,5,,,77,127
89255,note_on,1,0,0,,2,,,74,127
89359,note_off,104,0,0,,2,,,74,127
89360,note_on,1,0,0,,11,,,70,127
89464,note_off,104,0,0,,11,,,70,127
89465,note_on,1,0,0,,5,,,65,127
89569,note_off,104,0,0,,5,,,65,127
89569,note_off,0,0,0,,11,,,46,127
89570,note_on,1,0,0,,5,,,41,127
89570,note_on,0,0,0,,3,,,63,127
89570,note_on,0,0,0,,0,,,72,127
89674,note_off,104,0,0,,0,,,72,127
89675,note_on,1,0,0,,10,,,69,127
89778,note_off,103,0,0,,3,,,63,127
89779,note_off,1,0,0,,10,,,69,127
89779,note_off,0,0,0,,5,,,41,127
89780,note_on,1,0,0,,11,,,46,127
89780,note_on,0,0,0,,11,,,70,127
89780,note_on,0,0,0,,2,,,62,127
91456,note_off,1676,0,0,,2,,,62,127
91456,note_off,0,0,0,,11,,,70,127
91456,note_off,0,0,0,,11,,,46,127
92160,end_of_track,704,1,0,,,,,,
