tick,type,time,meta,track,program,channel,pitch,tempo,note,velocity
0,copyright,0,1,0,,,,,,
0,program_change,0,0,0,6,0,,,,
0,pitchwheel,0,0,0,,0,0,,,
0,program_change,0,0,0,6,1,,,,
0,pitchwheel,0,0,0,,1,-590,,,
0,program_change,0,0,0,6,2,,,,
0,pitchwheel,0,0,0,,2,-272,,,
0,program_change,0,0,0,6,3,,,,
0,pitchwheel,0,0,0,,3,-353,,,
0,program_change,0,0,0,6,4,,,,
0,pitchwheel,0,0,0,,4,-560,,,
0,program_change,0,0,0,6,5,,,,
0,pitchwheel,0,0,0,,5,-80,,,
0,program_change,0,0,0,6,6,,,,
0,pitchwheel,0,0,0,,6,-625,,,
0,program_change,0,0,0,6,7,,,,
0,pitchwheel,0,0,0,,7,-130,,,
0,program_change,0,0,0,6,8,,,,
0,pitchwheel,0,0,0,,8,-512,,,
0,program_change,0,0,0,6,10,,,,
0,pitchwheel,0,0,0,,10,-464,,,
0,program_change,0,0,0,6,11,,,,
0,pitchwheel,0,0,0,,11,-208,,,
0,program_change,0,0,0,6,12,,,,
0,pitchwheel,0,0,0,,12,-553,,,
0,set_tempo,0,1,0,,,,500000,,
0,note_on,0,0,0,,11,,,82,127
0,note_on,0,0,0,,11,,,58,127
240,note_off,240,0,0,,11,,,58,127
243,note_on,3,0,0,,11,,,70,127
243,note_on,0,0,0,,0,,,60,127
480,note_off,237,0,0,,11,,,82,127
483,note_off,3,0,0,,0,,,60,127
486,note_on,3,0,0,,2,,,62,127
726,note_off,240,0,0,,2,,,62,127
726,note_off,0,0,0,,11,,,70,127
729,note_on,3,0,0,,10,,,69,127
729,note_on,0,0,0,,3,,,63,127
729,note_on,0,0,0,,11,,,58,127
787,note_off,58,0,0,,10,,,69,127
790,note_on,3,0,0,,7,,,67,127
848,note_off,58,0,0,,7,,,67,127
851,note_on,3,0,0,,10,,,69,127
909,note_off,58,0,0,,10,,,69,127
912,note_on,3,0,0,,7,,,67,127
970,note_off,58,0,0,,7,,,67,127
973,note_on,3,0,0,,5,,,65,127
1213,note_off,240,0,0,,5,,,65,127
1213,note_off,0,0,0,,3,,,63,127
1216,note_on,3,0,0,,5,,,77,127
1216,note_on,0,0,0,,2,,,62,127
1456,note_off,240,0,0,,2,,,62,127
1457,note_off,1,0,0,,11,,,58,127
1458,note_on,1,0,0,,5,,,53,127
1698,note_off,240,0,0,,5,,,53,127
1698,note_off,0,0,0,,5,,,77,127
1701,note_on,3,0,0,,3,,,75,127
1701,note_on,0,0,0,,7,,,55,127
1941,note_off,240,0,0,,7,,,55,127
1944,note_on,3,0,0,,10,,,57,127
2184,note_off,240,0,0,,10,,,57,127
2184,note_off,0,0,0,,3,,,75,127
2187,note_on,3,0,0,,2,,,74,127
2187,note_on,0,0,0,,11,,,58,127
2265,note_off,78,0,0,,2,,,74,127
2268,note_on,3,0,0,,0,,,72,127
2346,note_off,78,0,0,,0,,,72,127
2349,note_on,3,0,0,,11,,,70,127
2427,note_off,78,0,0,,11,,,70,127
2427,note_off,0,0,0,,11,,,58,127
2430,note_on,3,0,0,,11,,,70,127
2430,note_on,0,0,0,,5,,,53,127
2670,note_off,240,0,0,,11,,,70,127
2673,note_on,3,0,0,,0,,,72,127
2855,note_off,182,0,0,,0,,,72,127
2911,note_off,56,0,0,,5,,,53,127
2916,note_on,5,0,0,,11,,,82,127
2916,note_on,0,0,0,,11,,,58,127
3156,note_off,240,0,0,,11,,,58,127
3159,note_on,3,0,0,,11,,,70,127
3159,note_on,0,0,0,,0,,,60,127
3399,note_off,240,0,0,,0,,,60,127
3402,note_on,3,0,0,,2,,,62,127
3642,note_off,240,0,0,,2,,,62,127
3642,note_off,0,0,0,,11,,,70,127
3643,note_off,1,0,0,,11,,,82,127
3644,note_on,1,0,0,,7,,,67,127
3644,note_on,0,0,0,,7,,,79,127
3644,note_on,0,0,0,,3,,,63,127
3884,note_off,240,0,0,,7,,,79,127
3884,note_off,0,0,0,,7,,,67,127
3887,note_on,3,0,0,,10,,,69,127
3887,note_on,0,0,0,,5,,,77,127
4127,note_off,240,0,0,,10,,,69,127
4127,note_off,0,0,0,,3,,,63,127
4130,note_on,3,0,0,,11,,,70,127
4130,note_on,0,0,0,,2,,,62,127
4367,note_off,237,0,0,,5,,,77,127
4370,note_off,3,0,0,,2,,,62,127
4370,note_off,0,0,0,,11,,,70,127
4373,note_on,3,0,0,,3,,,75,127
4373,note_on,0,0,0,,3,,,63,127
4451,note_off,78,0,0,,3,,,75,127
4454,note_on,3,0,0,,2,,,74,127
4532,note_off,78,0,0,,2,,,74,127
4535,note_on,3,0,0,,0,,,72,127
4613,note_off,78,0,0,,0,,,72,127
4613,note_off,0,0,0,,3,,,63,127
4616,note_on,3,0,0,,11,,,70,127
4616,note_on,0,0,0,,2,,,74,127
4616,note_on,0,0,0,,5,,,65,127
4856,note_off,240,0,0,,5,,,65,127
4856,note_off,0,0,0,,2,,,74,127
4856,note_off,0,0,0,,11,,,70,127
4859,note_on,3,0,0,,10,,,69,127
4859,note_on,0,0,0,,0,,,72,127
4859,note_on,0,0,0,,5,,,53,127
5099,note_off,240,0,0,,5,,,53,127
5099,note_off,0,0,0,,0,,,72,127
5099,note_off,0,0,0,,10,,,69,127
5102,note_on,3,0,0,,0,,,72,127
5102,note_on,0,0,0,,11,,,46,127
5160,note_off,58,0,0,,0,,,72,127
5163,note_on,3,0,0,,11,,,70,127
5221,note_off,58,0,0,,11,,,70,127
5224,note_on,3,0,0,,0,,,72,127
5282,note_off,58,0,0,,0,,,72,127
5285,note_on,3,0,0,,11,,,70,127
5765,note_off,480,0,0,,11,,,70,127
5828,note_off,63,0,0,,11,,,46,127
5831,note_on,3,0,0,,11,,,82,127
5831,note_on,0,0,0,,11,,,58,127
6071,note_off,240,0,0,,11,,,58,127
6074,note_on,3,0,0,,11,,,70,127
6074,note_on,0,0,0,,0,,,60,127
6311,note_off,237,0,0,,11,,,82,127
6314,note_off,3,0,0,,0,,,60,127
6317,note_on,3,0,0,,2,,,62,127
6557,note_off,240,0,0,,2,,,62,127
6557,note_off,0,0,0,,11,,,70,127
6560,note_on,3,0,0,,8,,,68,127
6560,note_on,0,0,0,,3,,,63,127
6618,note_off,58,0,0,,8,,,68,127
6621,note_on,3,0,0,,6,,,66,127
6679,note_off,58,0,0,,6,,,66,127
6682,note_on,3,0,0,,8,,,68,127
6740,note_off,58,0,0,,8,,,68,127
6743,note_on,3,0,0,,6,,,66,127
6801,note_off,58,0,0,,6,,,66,127
6804,note_on,3,0,0,,5,,,65,127
7044,note_off,240,0,0,,5,,,65,127
7044,note_off,0,0,0,,3,,,63,127
7047,note_on,3,0,0,,3,,,75,127
7047,note_on,0,0,0,,10,,,57,127
7287,note_off,240,0,0,,10,,,57,127
7290,note_on,3,0,0,,11,,,58,127
7530,note_off,240,0,0,,3,,,75,127
7533,note_on,3,0,0,,1,,,73,127
7773,note_off,240,0,0,,1,,,73,127
7773,note_off,0,0,0,,11,,,58,127
7776,note_on,3,0,0,,0,,,72,127
7776,note_on,0,0,0,,5,,,53,127
8016,note_off,240,0,0,,5,,,53,127
8019,note_on,3,0,0,,11,,,46,127
8259,note_off,240,0,0,,0,,,72,127
8262,note_on,3,0,0,,0,,,72,127
8262,note_on,0,0,0,,11,,,70,127
8381,note_off,119,0,0,,11,,,70,127
8381,note_off,0,0,0,,0,,,72,127
8384,note_on,3,0,0,,10,,,69,127
8503,note_off,119,0,0,,10,,,69,127
8506,note_on,3,0,0,,11,,,70,127
8746,note_off,240,0,0,,11,,,70,127
8746,note_off,0,0,0,,11,,,46,127
8749,note_on,3,0,0,,11,,,82,127
8749,note_on,0,0,0,,11,,,58,127
8989,note_off,240,0,0,,11,,,58,127
8992,note_on,3,0,0,,11,,,70,127
8992,note_on,0,0,0,,0,,,60,127
9229,note_off,237,0,0,,11,,,82,127
9232,note_off,3,0,0,,0,,,60,127
9235,note_on,3,0,0,,1,,,61,127
9475,note_off,240,0,0,,1,,,61,127
9475,note_off,0,0,0,,11,,,70,127
9478,note_on,3,0,0,,8,,,68,127
9478,note_on,0,0,0,,3,,,63,127
9536,note_off,58,0,0,,8,,,68,127
9539,note_on,3,0,0,,6,,,66,127
9597,note_off,58,0,0,,6,,,66,127
9600,note_on,3,0,0,,8,,,68,127
9658,note_off,58,0,0,,8,,,68,127
9661,note_on,3,0,0,,6,,,66,127
9719,note_off,58,0,0,,6,,,66,127
9719,note_off,0,0,0,,3,,,63,127
9722,note_on,3,0,0,,5,,,65,127
9722,note_on,0,0,0,,1,,,61,127
9962,note_off,240,0,0,,1,,,61,127
9962,note_off,0,0,0,,5,,,65,127
9965,note_on,3,0,0,,6,,,78,127
9965,note_on,0,0,0,,3,,,75,127
9965,note_on,0,0,0,,6,,,54,127
10205,note_off,240,0,0,,6,,,54,127
10208,note_on,3,0,0,,8,,,56,127
10448,note_off,240,0,0,,3,,,75,127
10448,note_off,0,0,0,,6,,,78,127
10451,note_on,3,0,0,,1,,,73,127
10451,note_on,0,0,0,,5,,,77,127
10691,note_off,240,0,0,,5,,,77,127
10691,note_off,0,0,0,,1,,,73,127
10694,note_on,3,0,0,,0,,,72,127
10694,note_on,0,0,0,,3,,,75,127
10694,note_on,0,0,0,,8,,,44,127
10934,note_off,240,0,0,,8,,,44,127
10934,note_off,0,0,0,,0,,,72,127
10935,note_off,1,0,0,,8,,,56,127
10936,note_on,1,0,0,,1,,,49,127
11176,note_off,240,0,0,,3,,,75,127
11179,note_on,3,0,0,,3,,,75,127
11179,note_on,0,0,0,,1,,,73,127
11298,note_off,119,0,0,,1,,,73,127
11298,note_off,0,0,0,,3,,,75,127
11301,note_on,3,0,0,,0,,,72,127
11420,note_off,119,0,0,,0,,,72,127
11423,note_on,3,0,0,,1,,,73,127
11620,note_off,197,0,0,,1,,,49,127
11663,note_off,43,0,0,,1,,,73,127
11666,note_on,3,0,0,,8,,,80,127
11666,note_on,0,0,0,,1,,,61,127
11909,note_on,243,0,0,,8,,,68,127
12146,note_off,237,0,0,,8,,,80,127
12149,note_off,3,0,0,,1,,,61,127
12152,note_on,3,0,0,,5,,,65,127
12392,note_off,240,0,0,,5,,,65,127
12392,note_off,0,0,0,,8,,,68,127
12395,note_on,3,0,0,,8,,,68,127
12395,note_on,0,0,0,,3,,,63,127
12453,note_off,58,0,0,,8,,,68,127
12456,note_on,3,0,0,,6,,,66,127
12514,note_off,58,0,0,,6,,,66,127
12517,note_on,3,0,0,,8,,,68,127
12575,note_off,58,0,0,,8,,,68,127
12578,note_on,3,0,0,,6,,,66,127
12636,note_off,58,0,0,,6,,,66,127
12636,note_off,0,0,0,,3,,,63,127
12639,note_on,3,0,0,,5,,,65,127
12639,note_on,0,0,0,,1,,,61,127
12879,note_off,240,0,0,,1,,,61,127
12879,note_off,0,0,0,,5,,,65,127
12882,note_on,3,0,0,,8,,,80,127
12882,note_on,0,0,0,,0,,,60,127
13122,note_off,240,0,0,,0,,,60,127
13125,note_on,3,0,0,,3,,,75,127
13125,note_on,0,0,0,,11,,,58,127
13365,note_off,240,0,0,,3,,,75,127
13368,note_on,3,0,0,,2,,,74,127
13609,note_off,241,0,0,,8,,,80,127
13610,note_on,1,0,0,,8,,,80,127
13610,note_on,0,0,0,,11,,,46,127
13847,note_off,237,0,0,,2,,,74,127
13850,note_off,3,0,0,,11,,,46,127
13851,note_off,1,0,0,,11,,,58,127
13852,note_on,1,0,0,,3,,,75,127
13852,note_on,0,0,0,,3,,,51,127
14089,note_off,237,0,0,,8,,,80,127
14094,note_on,5,0,0,,6,,,78,127
14094,note_on,0,0,0,,8,,,80,127
14213,note_off,119,0,0,,8,,,80,127
14213,note_off,0,0,0,,6,,,78,127
14216,note_on,3,0,0,,5,,,77,127
14332,note_off,116,0,0,,3,,,75,127
14335,note_off,3,0,0,,5,,,77,127
14338,note_on,3,0,0,,3,,,75,127
14578,note_off,240,0,0,,3,,,75,127
14578,note_off,0,0,0,,3,,,51,127
14581,note_on,3,0,0,,11,,,82,127
14581,note_on,0,0,0,,3,,,63,127
14821,note_off,240,0,0,,3,,,63,127
14824,note_on,3,0,0,,11,,,70,127
14824,note_on,0,0,0,,5,,,65,127
15061,note_off,237,0,0,,11,,,82,127
15064,note_off,3,0,0,,5,,,65,127
15067,note_on,3,0,0,,6,,,66,127
15307,note_off,240,0,0,,6,,,66,127
15307,note_off,0,0,0,,11,,,70,127
15310,note_on,3,0,0,,11,,,70,127
15310,note_on,0,0,0,,5,,,65,127
15368,note_off,58,0,0,,11,,,70,127
15371,note_on,3,0,0,,8,,,68,127
15429,note_off,58,0,0,,8,,,68,127
15432,note_on,3,0,0,,11,,,70,127
15490,note_off,58,0,0,,11,,,70,127
15493,note_on,3,0,0,,8,,,68,127
15551,note_off,58,0,0,,8,,,68,127
15551,note_off,0,0,0,,5,,,65,127
15554,note_on,3,0,0,,6,,,66,127
15554,note_on,0,0,0,,3,,,63,127
15794,note_off,240,0,0,,3,,,63,127
15794,note_off,0,0,0,,6,,,66,127
15797,note_on,3,0,0,,11,,,82,127
15797,note_on,0,0,0,,1,,,61,127
16037,note_off,240,0,0,,1,,,61,127
16040,note_on,3,0,0,,5,,,77,127
16040,note_on,0,0,0,,0,,,60,127
16280,note_off,240,0,0,,5,,,77,127
16283,note_on,3,0,0,,4,,,76,127
16524,note_off,241,0,0,,11,,,82,127
16525,note_on,1,0,0,,11,,,82,127
16525,note_on,0,0,0,,0,,,48,127
16762,note_off,237,0,0,,4,,,76,127
16765,note_off,3,0,0,,0,,,48,127
16766,note_off,1,0,0,,0,,,60,127
16767,note_on,1,0,0,,5,,,77,127
16767,note_on,0,0,0,,5,,,53,127
17004,note_off,237,0,0,,11,,,82,127
17009,note_on,5,0,0,,11,,,82,127
17009,note_on,0,0,0,,8,,,80,127
17128,note_off,119,0,0,,8,,,80,127
17128,note_off,0,0,0,,11,,,82,127
17131,note_on,3,0,0,,7,,,79,127
17247,note_off,116,0,0,,5,,,77,127
17250,note_off,3,0,0,,7,,,79,127
17253,note_on,3,0,0,,5,,,77,127
17493,note_off,240,0,0,,5,,,77,127
17493,note_off,0,0,0,,5,,,53,127
17496,note_on,3,0,0,,0,,,84,127
17496,note_on,0,0,0,,5,,,53,127
17736,note_off,240,0,0,,5,,,53,127
17739,note_on,3,0,0,,5,,,77,127
17739,note_on,0,0,0,,7,,,55,127
17979,note_off,240,0,0,,7,,,55,127
17979,note_off,0,0,0,,5,,,77,127
17982,note_on,3,0,0,,0,,,72,127
17982,note_on,0,0,0,,8,,,56,127
18222,note_off,240,0,0,,8,,,56,127
18222,note_off,0,0,0,,0,,,72,127
18223,note_off,1,0,0,,0,,,84,127
18224,note_on,1,0,0,,1,,,73,127
18224,note_on,0,0,0,,11,,,58,127
18467,note_on,243,0,0,,1,,,85,127
18704,note_off,237,0,0,,1,,,73,127
18707,note_off,3,0,0,,1,,,85,127
18707,note_off,0,0,0,,11,,,58,127
18710,note_on,3,0,0,,0,,,84,127
18710,note_on,0,0,0,,8,,,56,127
18950,note_off,240,0,0,,8,,,56,127
18950,note_off,0,0,0,,0,,,84,127
18953,note_on,3,0,0,,4,,,76,127
18953,note_on,0,0,0,,7,,,55,127
19193,note_off,240,0,0,,7,,,55,127
19193,note_off,0,0,0,,4,,,76,127
19196,note_on,3,0,0,,7,,,79,127
19196,note_on,0,0,0,,8,,,56,127
19274,note_off,78,0,0,,7,,,79,127
19277,note_on,3,0,0,,5,,,77,127
19355,note_off,78,0,0,,5,,,77,127
19358,note_on,3,0,0,,7,,,79,127
19436,note_off,78,0,0,,7,,,79,127
19436,note_off,0,0,0,,8,,,56,127
19439,note_on,3,0,0,,5,,,77,127
19439,note_on,0,0,0,,5,,,53,127
19517,note_off,78,0,0,,5,,,77,127
19520,note_on,3,0,0,,4,,,76,127
19598,note_off,78,0,0,,4,,,76,127
19601,note_on,3,0,0,,5,,,77,127
19679,note_off,78,0,0,,5,,,77,127
19679,note_off,0,0,0,,5,,,53,127
19682,note_on,3,0,0,,5,,,77,127
19682,note_on,0,0,0,,0,,,48,127
19922,note_off,240,0,0,,5,,,77,127
19925,note_on,3,0,0,,7,,,79,127
20165,note_off,240,0,0,,7,,,79,127
20168,note_on,3,0,0,,0,,,36,127
20409,note_off,241,0,0,,0,,,48,127
20410,note_on,1,0,0,,11,,,82,127
20529,note_off,119,0,0,,11,,,82,127
20532,note_on,3,0,0,,7,,,79,127
20651,note_off,119,0,0,,7,,,79,127
20654,note_on,3,0,0,,4,,,76,127
20773,note_off,119,0,0,,4,,,76,127
20776,note_on,3,0,0,,0,,,72,127
20895,note_off,119,0,0,,0,,,72,127
20898,note_on,3,0,0,,11,,,70,127
21017,note_off,119,0,0,,11,,,70,127
21020,note_on,3,0,0,,7,,,67,127
21139,note_off,119,0,0,,7,,,67,127
21140,note_off,1,0,0,,0,,,36,127
21141,note_on,1,0,0,,4,,,64,127
21260,note_off,119,0,0,,4,,,64,127
21263,note_on,3,0,0,,0,,,60,127
21382,note_off,119,0,0,,0,,,60,127
21385,note_on,3,0,0,,11,,,58,127
21504,note_off,119,0,0,,11,,,58,127
21507,note_on,3,0,0,,7,,,55,127
21626,note_off,119,0,0,,7,,,55,127
21629,note_on,3,0,0,,4,,,52,127
21748,note_off,119,0,0,,4,,,52,127
21751,note_on,3,0,0,,0,,,48,127
21872,note_on,121,0,0,,11,,,82,127
21872,note_on,0,0,0,,0,,,36,127
21991,note_off,119,0,0,,11,,,82,127
21994,note_on,3,0,0,,7,,,79,127
22113,note_off,119,0,0,,7,,,79,127
22116,note_on,3,0,0,,4,,,76,127
22232,note_off,116,0,0,,0,,,48,127
22235,note_off,3,0,0,,4,,,76,127
22238,note_on,3,0,0,,0,,,72,127
22357,note_off,119,0,0,,0,,,72,127
22360,note_on,3,0,0,,11,,,70,127
22479,note_off,119,0,0,,11,,,70,127
22482,note_on,3,0,0,,7,,,67,127
22601,note_off,119,0,0,,7,,,67,127
22602,note_off,1,0,0,,0,,,36,127
22603,note_on,1,0,0,,4,,,64,127
22722,note_off,119,0,0,,4,,,64,127
22725,note_on,3,0,0,,0,,,60,127
22844,note_off,119,0,0,,0,,,60,127
22847,note_on,3,0,0,,11,,,58,127
22966,note_off,119,0,0,,11,,,58,127
22969,note_on,3,0,0,,7,,,55,127
23088,note_off,119,0,0,,7,,,55,127
23091,note_on,3,0,0,,4,,,52,127
23210,note_off,119,0,0,,4,,,52,127
23213,note_on,3,0,0,,0,,,48,127
23334,note_on,121,0,0,,11,,,82,127
23334,note_on,0,0,0,,0,,,36,127
23453,note_off,119,0,0,,11,,,82,127
23456,note_on,3,0,0,,7,,,79,127
23575,note_off,119,0,0,,7,,,79,127
23578,note_on,3,0,0,,4,,,76,127
23694,note_off,116,0,0,,0,,,48,127
23697,note_off,3,0,0,,4,,,76,127
23700,note_on,3,0,0,,0,,,72,127
23819,note_off,119,0,0,,0,,,72,127
23822,note_on,3,0,0,,11,,,70,127
23941,note_off,119,0,0,,11,,,70,127
23944,note_on,3,0,0,,7,,,67,127
24063,note_off,119,0,0,,7,,,67,127
24064,note_off,1,0,0,,0,,,36,127
24065,note_on,1,0,0,,4,,,64,127
24184,note_off,119,0,0,,4,,,64,127
24187,note_on,3,0,0,,0,,,60,127
24306,note_off,119,0,0,,0,,,60,127
24309,note_on,3,0,0,,11,,,58,127
24428,note_off,119,0,0,,11,,,58,127
24431,note_on,3,0,0,,7,,,55,127
24550,note_off,119,0,0,,7,,,55,127
24553,note_on,3,0,0,,4,,,52,127
24672,note_off,119,0,0,,4,,,52,127
24675,note_on,3,0,0,,0,,,36,127
24794,note_off,119,0,0,,0,,,36,127
24797,note_on,3,0,0,,10,,,81,127
24797,note_on,0,0,0,,5,,,41,127
24875,note_off,78,0,0,,10,,,81,127
24878,note_on,3,0,0,,7,,,79,127
24956,note_off,78,0,0,,7,,,79,127
24959,note_on,3,0,0,,5,,,77,127
25037,note_off,78,0,0,,5,,,77,127
25040,note_on,3,0,0,,5,,,77,127
25280,note_off,240,0,0,,5,,,77,127
25280,note_off,0,0,0,,5,,,41,127
25283,note_on,3,0,0,,5,,,77,127
25283,note_on,0,0,0,,10,,,45,127
25523,note_off,240,0,0,,10,,,45,127
25523,note_off,0,0,0,,5,,,77,127
25526,note_on,3,0,0,,2,,,74,127
25526,note_on,0,0,0,,11,,,46,127
25604,note_off,78,0,0,,2,,,74,127
25607,note_on,3,0,0,,4,,,76,127
25685,note_off,78,0,0,,4,,,76,127
25688,note_on,3,0,0,,5,,,77,127
25766,note_off,78,0,0,,5,,,77,127
25769,note_on,3,0,0,,5,,,77,127
26009,note_off,240,0,0,,5,,,77,127
26009,note_off,0,0,0,,11,,,46,127
26012,note_on,3,0,0,,5,,,77,127
26012,note_on,0,0,0,,0,,,48,127
26252,note_off,240,0,0,,0,,,48,127
26252,note_off,0,0,0,,5,,,77,127
26255,note_on,3,0,0,,5,,,77,127
26255,note_on,0,0,0,,2,,,50,127
26495,note_off,240,0,0,,5,,,77,127
26498,note_on,3,0,0,,2,,,86,127
26738,note_off,240,0,0,,2,,,86,127
26738,note_off,0,0,0,,2,,,50,127
26741,note_on,3,0,0,,0,,,84,127
26741,note_on,0,0,0,,4,,,52,127
26981,note_off,240,0,0,,4,,,52,127
26981,note_off,0,0,0,,0,,,84,127
26984,note_on,3,0,0,,10,,,81,127
26984,note_on,0,0,0,,5,,,53,127
27062,note_off,78,0,0,,10,,,81,127
27065,note_on,3,0,0,,7,,,79,127
27143,note_off,78,0,0,,7,,,79,127
27146,note_on,3,0,0,,5,,,77,127
27224,note_off,78,0,0,,5,,,77,127
27224,note_off,0,0,0,,5,,,53,127
27227,note_on,3,0,0,,10,,,81,127
27227,note_on,0,0,0,,5,,,77,127
27227,note_on,0,0,0,,0,,,60,127
27467,note_off,240,0,0,,5,,,77,127
27467,note_off,0,0,0,,10,,,81,127
27470,note_on,3,0,0,,7,,,79,127
27470,note_on,0,0,0,,4,,,76,127
27470,note_on,0,0,0,,0,,,48,127
27707,note_off,237,0,0,,0,,,60,127
27710,note_off,3,0,0,,0,,,48,127
27710,note_off,0,0,0,,4,,,76,127
27710,note_off,0,0,0,,7,,,79,127
27713,note_on,3,0,0,,10,,,81,127
27713,note_on,0,0,0,,5,,,53,127
27791,note_off,78,0,0,,10,,,81,127
27794,note_on,3,0,0,,7,,,79,127
27872,note_off,78,0,0,,7,,,79,127
27875,note_on,3,0,0,,5,,,77,127
27953,note_off,78,0,0,,5,,,77,127
27953,note_off,0,0,0,,5,,,53,127
27956,note_on,3,0,0,,5,,,77,127
27956,note_on,0,0,0,,7,,,55,127
28196,note_off,240,0,0,,7,,,55,127
28196,note_off,0,0,0,,5,,,77,127
28199,note_on,3,0,0,,5,,,77,127
28199,note_on,0,0,0,,10,,,57,127
28439,note_off,240,0,0,,10,,,57,127
28439,note_off,0,0,0,,5,,,77,127
28442,note_on,3,0,0,,2,,,74,127
28442,note_on,0,0,0,,11,,,58,127
28520,note_off,78,0,0,,2,,,74,127
28523,note_on,3,0,0,,4,,,76,127
28601,note_off,78,0,0,,4,,,76,127
28604,note_on,3,0,0,,5,,,77,127
28682,note_off,78,0,0,,5,,,77,127
28685,note_on,3,0,0,,5,,,77,127
28685,note_on,0,0,0,,11,,,46,127
28922,note_off,237,0,0,,11,,,58,127
28925,note_off,3,0,0,,11,,,46,127
28925,note_off,0,0,0,,5,,,77,127
28928,note_on,3,0,0,,5,,,77,127
28928,note_on,0,0,0,,0,,,48,127
29168,note_off,240,0,0,,0,,,48,127
29168,note_off,0,0,0,,5,,,77,127
29171,note_on,3,0,0,,5,,,77,127
29171,note_on,0,0,0,,2,,,50,127
29411,note_off,240,0,0,,5,,,77,127
29414,note_on,3,0,0,,2,,,86,127
29654,note_off,240,0,0,,2,,,86,127
29654,note_off,0,0,0,,2,,,50,127
29657,note_on,3,0,0,,0,,,84,127
29657,note_on,0,0,0,,4,,,52,127
29897,note_off,240,0,0,,4,,,52,127
29897,note_off,0,0,0,,0,,,84,127
29900,note_on,3,0,0,,10,,,81,127
29900,note_on,0,0,0,,5,,,53,127
29978,note_off,78,0,0,,10,,,81,127
29981,note_on,3,0,0,,7,,,79,127
30059,note_off,78,0,0,,7,,,79,127
30062,note_on,3,0,0,,5,,,77,127
30140,note_off,78,0,0,,5,,,77,127
30140,note_off,0,0,0,,5,,,53,127
30143,note_on,3,0,0,,5,,,77,127
30143,note_on,0,0,0,,10,,,81,127
30143,note_on,0,0,0,,0,,,60,127
30383,note_off,240,0,0,,10,,,81,127
30383,note_off,0,0,0,,5,,,77,127
30386,note_on,3,0,0,,7,,,79,127
30386,note_on,0,0,0,,4,,,76,127
30386,note_on,0,0,0,,0,,,48,127
30623,note_off,237,0,0,,0,,,60,127
30626,note_off,3,0,0,,0,,,48,127
30626,note_off,0,0,0,,4,,,76,127
30626,note_off,0,0,0,,7,,,79,127
30629,note_on,3,0,0,,5,,,77,127
30629,note_on,0,0,0,,5,,,53,127
30869,note_off,240,0,0,,5,,,77,127
30872,note_on,3,0,0,,5,,,77,127
30930,note_off,58,0,0,,5,,,77,127
30933,note_on,3,0,0,,4,,,76,127
30991,note_off,58,0,0,,4,,,76,127
30994,note_on,3,0,0,,2,,,74,127
31052,note_off,58,0,0,,2,,,74,127
31055,note_on,3,0,0,,0,,,72,127
31113,note_off,58,0,0,,0,,,72,127
31116,note_on,3,0,0,,11,,,70,127
31174,note_off,58,0,0,,11,,,70,127
31177,note_on,3,0,0,,10,,,69,127
31235,note_off,58,0,0,,10,,,69,127
31238,note_on,3,0,0,,7,,,67,127
31296,note_off,58,0,0,,7,,,67,127
31299,note_on,3,0,0,,5,,,65,127
31357,note_off,58,0,0,,5,,,65,127
31357,note_off,0,0,0,,5,,,53,127
31360,note_on,3,0,0,,10,,,69,127
31360,note_on,0,0,0,,5,,,65,127
31360,note_on,0,0,0,,0,,,48,127
31600,note_off,240,0,0,,5,,,65,127
31600,note_off,0,0,0,,10,,,69,127
31603,note_on,3,0,0,,5,,,65,127
31603,note_on,0,0,0,,10,,,69,127
31843,note_off,240,0,0,,10,,,69,127
31843,note_off,0,0,0,,5,,,65,127
31846,note_on,3,0,0,,4,,,64,127
31846,note_on,0,0,0,,7,,,67,127
32086,note_off,240,0,0,,7,,,67,127
32086,note_off,0,0,0,,4,,,64,127
32086,note_off,0,0,0,,0,,,48,127
32089,note_on,3,0,0,,5,,,65,127
32089,note_on,0,0,0,,5,,,41,127
32329,note_off,240,0,0,,5,,,65,127
32332,note_on,3,0,0,,2,,,62,127
32390,note_off,58,0,0,,2,,,62,127
32393,note_on,3,0,0,,0,,,60,127
32451,note_off,58,0,0,,0,,,60,127
32454,note_on,3,0,0,,11,,,58,127
32512,note_off,58,0,0,,11,,,58,127
32515,note_on,3,0,0,,10,,,57,127
32573,note_off,58,0,0,,10,,,57,127
32576,note_on,3,0,0,,7,,,55,127
32634,note_off,58,0,0,,7,,,55,127
32637,note_on,3,0,0,,5,,,53,127
32695,note_off,58,0,0,,5,,,53,127
32698,note_on,3,0,0,,4,,,52,127
32756,note_off,58,0,0,,4,,,52,127
32759,note_on,3,0,0,,2,,,50,127
32817,note_off,58,0,0,,2,,,50,127
32817,note_off,0,0,0,,5,,,41,127
32820,note_on,3,0,0,,5,,,53,127
32820,note_on,0,0,0,,10,,,57,127
32820,note_on,0,0,0,,0,,,36,127
33060,note_off,240,0,0,,10,,,57,127
33060,note_off,0,0,0,,5,,,53,127
33063,note_on,3,0,0,,10,,,57,127
33063,note_on,0,0,0,,5,,,53,127
33303,note_off,240,0,0,,5,,,53,127
33303,note_off,0,0,0,,10,,,57,127
33306,note_on,3,0,0,,7,,,55,127
33306,note_on,0,0,0,,4,,,52,127
33546,note_off,240,0,0,,4,,,52,127
33546,note_off,0,0,0,,7,,,55,127
33546,note_off,0,0,0,,0,,,36,127
33549,note_on,3,0,0,,7,,,55,127
33549,note_on,0,0,0,,5,,,41,127
33607,note_off,58,0,0,,7,,,55,127
33610,note_on,3,0,0,,5,,,53,127
33668,note_off,58,0,0,,5,,,53,127
33671,note_on,3,0,0,,7,,,55,127
33729,note_off,58,0,0,,7,,,55,127
33732,note_on,3,0,0,,5,,,53,127
34096,note_off,364,0,0,,5,,,53,127
34275,note_off,179,0,0,,5,,,41,127
34278,note_on,3,0,0,,0,,,84,127
34278,note_on,0,0,0,,0,,,60,127
34521,note_on,243,0,0,,0,,,72,127
34758,note_off,237,0,0,,0,,,84,127
34761,note_off,3,0,0,,0,,,60,127
34764,note_on,3,0,0,,10,,,69,127
35004,note_off,240,0,0,,10,,,69,127
35004,note_off,0,0,0,,0,,,72,127
35007,note_on,3,0,0,,0,,,72,127
35007,note_on,0,0,0,,0,,,60,127
35007,note_on,0,0,0,,7,,,67,127
35065,note_off,58,0,0,,0,,,72,127
35068,note_on,3,0,0,,11,,,70,127
35126,note_off,58,0,0,,11,,,70,127
35129,note_on,3,0,0,,0,,,72,127
35187,note_off,58,0,0,,0,,,72,127
35190,note_on,3,0,0,,11,,,70,127
35248,note_off,58,0,0,,11,,,70,127
35251,note_on,3,0,0,,10,,,69,127
35491,note_off,240,0,0,,7,,,67,127
35494,note_on,3,0,0,,5,,,65,127
35734,note_off,240,0,0,,5,,,65,127
35734,note_off,0,0,0,,10,,,69,127
35735,note_off,1,0,0,,0,,,60,127
35736,note_on,1,0,0,,10,,,81,127
35736,note_on,0,0,0,,0,,,48,127
35976,note_off,240,0,0,,0,,,48,127
35979,note_on,3,0,0,,10,,,69,127
35979,note_on,0,0,0,,0,,,60,127
36216,note_off,237,0,0,,10,,,81,127
36219,note_off,3,0,0,,0,,,60,127
36222,note_on,3,0,0,,5,,,65,127
36462,note_off,240,0,0,,10,,,69,127
36465,note_on,3,0,0,,10,,,69,127
36465,note_on,0,0,0,,0,,,60,127
36543,note_off,78,0,0,,10,,,69,127
36546,note_on,3,0,0,,7,,,67,127
36624,note_off,78,0,0,,7,,,67,127
36627,note_on,3,0,0,,10,,,69,127
36703,note_off,76,0,0,,5,,,65,127
36706,note_off,3,0,0,,10,,,69,127
36709,note_on,3,0,0,,7,,,67,127
36709,note_on,0,0,0,,4,,,64,127
36787,note_off,78,0,0,,7,,,67,127
36790,note_on,3,0,0,,5,,,65,127
36868,note_off,78,0,0,,5,,,65,127
36871,note_on,3,0,0,,7,,,67,127
36947,note_off,76,0,0,,0,,,60,127
36950,note_off,3,0,0,,7,,,67,127
36950,note_off,0,0,0,,4,,,64,127
36953,note_on,3,0,0,,10,,,69,127
36953,note_on,0,0,0,,5,,,65,127
36953,note_on,0,0,0,,5,,,53,127
37135,note_off,182,0,0,,10,,,69,127
37193,note_off,58,0,0,,5,,,53,127
37193,note_off,0,0,0,,5,,,65,127
37196,note_on,3,0,0,,10,,,81,127
37196,note_on,0,0,0,,10,,,57,127
37439,note_on,243,0,0,,10,,,69,127
37676,note_off,237,0,0,,10,,,81,127
37679,note_off,3,0,0,,10,,,57,127
37682,note_on,3,0,0,,5,,,65,127
37922,note_off,240,0,0,,5,,,65,127
37922,note_off,0,0,0,,10,,,69,127
37925,note_on,3,0,0,,10,,,69,127
37925,note_on,0,0,0,,4,,,64,127
37925,note_on,0,0,0,,10,,,57,127
37983,note_off,58,0,0,,10,,,69,127
37986,note_on,3,0,0,,7,,,67,127
38044,note_off,58,0,0,,7,,,67,127
38047,note_on,3,0,0,,10,,,69,127
38105,note_off,58,0,0,,10,,,69,127
38108,note_on,3,0,0,,7,,,67,127
38166,note_off,58,0,0,,7,,,67,127
38169,note_on,3,0,0,,5,,,65,127
38409,note_off,240,0,0,,4,,,64,127
38412,note_on,3,0,0,,2,,,62,127
38652,note_off,240,0,0,,2,,,62,127
38652,note_off,0,0,0,,5,,,65,127
38653,note_off,1,0,0,,10,,,57,127
38654,note_on,1,0,0,,5,,,77,127
38654,note_on,0,0,0,,10,,,45,127
38894,note_off,240,0,0,,10,,,45,127
38897,note_on,3,0,0,,5,,,65,127
38897,note_on,0,0,0,,10,,,57,127
39134,note_off,237,0,0,,5,,,77,127
39139,note_on,5,0,0,,2,,,62,127
39376,note_off,237,0,0,,10,,,57,127
39379,note_off,3,0,0,,5,,,65,127
39382,note_on,3,0,0,,5,,,65,127
39382,note_on,0,0,0,,10,,,57,127
39460,note_off,78,0,0,,5,,,65,127
39463,note_on,3,0,0,,4,,,64,127
39541,note_off,78,0,0,,4,,,64,127
39544,note_on,3,0,0,,5,,,65,127
39620,note_off,76,0,0,,2,,,62,127
39623,note_off,3,0,0,,5,,,65,127
39626,note_on,3,0,0,,4,,,64,127
39626,note_on,0,0,0,,1,,,61,127
39704,note_off,78,0,0,,4,,,64,127
39707,note_on,3,0,0,,2,,,62,127
39785,note_off,78,0,0,,2,,,62,127
39788,note_on,3,0,0,,4,,,64,127
39864,note_off,76,0,0,,10,,,57,127
39867,note_off,3,0,0,,4,,,64,127
39867,note_off,0,0,0,,1,,,61,127
39870,note_on,3,0,0,,5,,,65,127
39870,note_on,0,0,0,,2,,,50,127
40052,note_off,182,0,0,,5,,,65,127
40113,note_on,61,0,0,,2,,,74,127
40171,note_off,58,0,0,,2,,,74,127
40174,note_on,3,0,0,,0,,,72,127
40232,note_off,58,0,0,,0,,,72,127
40235,note_on,3,0,0,,11,,,70,127
40293,note_off,58,0,0,,11,,,70,127
40296,note_on,3,0,0,,10,,,69,127
40352,note_off,56,0,0,,2,,,50,127
40355,note_off,3,0,0,,10,,,69,127
40358,note_on,3,0,0,,7,,,67,127
40416,note_off,58,0,0,,7,,,67,127
40419,note_on,3,0,0,,6,,,66,127
40477,note_off,58,0,0,,6,,,66,127
40480,note_on,3,0,0,,4,,,64,127
40538,note_off,58,0,0,,4,,,64,127
40541,note_on,3,0,0,,2,,,62,127
40599,note_off,58,0,0,,2,,,62,127
40602,note_on,3,0,0,,10,,,69,127
40602,note_on,0,0,0,,6,,,66,127
40845,note_on,243,0,0,,2,,,62,127
40903,note_off,58,0,0,,2,,,62,127
40906,note_on,3,0,0,,0,,,60,127
40964,note_off,58,0,0,,0,,,60,127
40967,note_on,3,0,0,,11,,,58,127
41025,note_off,58,0,0,,11,,,58,127
41028,note_on,3,0,0,,10,,,57,127
41086,note_off,58,0,0,,10,,,57,127
41086,note_off,0,0,0,,6,,,66,127
41086,note_off,0,0,0,,10,,,69,127
41089,note_on,3,0,0,,7,,,67,127
41089,note_on,0,0,0,,11,,,70,127
41089,note_on,0,0,0,,7,,,55,127
41147,note_off,58,0,0,,7,,,55,127
41150,note_on,3,0,0,,6,,,54,127
41208,note_off,58,0,0,,6,,,54,127
41211,note_on,3,0,0,,4,,,52,127
41269,note_off,58,0,0,,4,,,52,127
41272,note_on,3,0,0,,2,,,50,127
41330,note_off,58,0,0,,2,,,50,127
41330,note_off,0,0,0,,11,,,70,127
41330,note_off,0,0,0,,7,,,67,127
41333,note_on,3,0,0,,0,,,72,127
41333,note_on,0,0,0,,10,,,69,127
41333,note_on,0,0,0,,2,,,38,127
41573,note_off,240,0,0,,2,,,38,127
41576,note_on,3,0,0,,7,,,43,127
41816,note_off,240,0,0,,10,,,69,127
41816,note_off,0,0,0,,0,,,72,127
41819,note_on,3,0,0,,11,,,70,127
41819,note_on,0,0,0,,7,,,67,127
42059,note_off,240,0,0,,7,,,67,127
42059,note_off,0,0,0,,11,,,70,127
42059,note_off,0,0,0,,7,,,43,127
42062,note_on,3,0,0,,6,,,66,127
42062,note_on,0,0,0,,10,,,69,127
42062,note_on,0,0,0,,2,,,50,127
42302,note_off,240,0,0,,2,,,50,127
42305,note_on,3,0,0,,7,,,43,127
42545,note_off,240,0,0,,10,,,69,127
42545,note_off,0,0,0,,6,,,66,127
42548,note_on,3,0,0,,0,,,72,127
42548,note_on,0,0,0,,11,,,70,127
42667,note_off,119,0,0,,11,,,70,127
42667,note_off,0,0,0,,0,,,72,127
42670,note_on,3,0,0,,10,,,69,127
42789,note_off,119,0,0,,10,,,69,127
42792,note_on,3,0,0,,7,,,67,127
42913,note_off,121,0,0,,7,,,43,127
43032,note_off,119,0,0,,7,,,67,127
43035,note_on,3,0,0,,0,,,72,127
43093,note_off,58,0,0,,0,,,72,127
43096,note_on,3,0,0,,11,,,70,127
43154,note_off,58,0,0,,11,,,70,127
43157,note_on,3,0,0,,10,,,69,127
43215,note_off,58,0,0,,10,,,69,127
43218,note_on,3,0,0,,7,,,67,127
43276,note_off,58,0,0,,7,,,67,127
43279,note_on,3,0,0,,5,,,65,127
43337,note_off,58,0,0,,5,,,65,127
43340,note_on,3,0,0,,4,,,64,127
43398,note_off,58,0,0,,4,,,64,127
43401,note_on,3,0,0,,2,,,62,127
43459,note_off,58,0,0,,2,,,62,127
43462,note_on,3,0,0,,0,,,60,127
43520,note_off,58,0,0,,0,,,60,127
43523,note_on,3,0,0,,7,,,67,127
43523,note_on,0,0,0,,4,,,64,127
43766,note_on,243,0,0,,0,,,60,127
43824,note_off,58,0,0,,0,,,60,127
43827,note_on,3,0,0,,11,,,58,127
43885,note_off,58,0,0,,11,,,58,127
43888,note_on,3,0,0,,10,,,57,127
43946,note_off,58,0,0,,10,,,57,127
43949,note_on,3,0,0,,7,,,55,127
44007,note_off,58,0,0,,7,,,55,127
44007,note_off,0,0,0,,4,,,64,127
44007,note_off,0,0,0,,7,,,67,127
44010,note_on,3,0,0,,5,,,65,127
44010,note_on,0,0,0,,10,,,69,127
44010,note_on,0,0,0,,5,,,53,127
44068,note_off,58,0,0,,5,,,53,127
44071,note_on,3,0,0,,4,,,52,127
44129,note_off,58,0,0,,4,,,52,127
44132,note_on,3,0,0,,2,,,50,127
44190,note_off,58,0,0,,2,,,50,127
44193,note_on,3,0,0,,0,,,48,127
44251,note_off,58,0,0,,0,,,48,127
44251,note_off,0,0,0,,10,,,69,127
44251,note_off,0,0,0,,5,,,65,127
44254,note_on,3,0,0,,11,,,70,127
44254,note_on,0,0,0,,7,,,67,127
44254,note_on,0,0,0,,0,,,36,127
44494,note_off,240,0,0,,0,,,36,127
44497,note_on,3,0,0,,5,,,41,127
44737,note_off,240,0,0,,7,,,67,127
44737,note_off,0,0,0,,11,,,70,127
44740,note_on,3,0,0,,10,,,69,127
44740,note_on,0,0,0,,5,,,65,127
44980,note_off,240,0,0,,5,,,65,127
44980,note_off,0,0,0,,10,,,69,127
44980,note_off,0,0,0,,5,,,41,127
44983,note_on,3,0,0,,7,,,67,127
44983,note_on,0,0,0,,4,,,64,127
44983,note_on,0,0,0,,0,,,48,127
45223,note_off,240,0,0,,0,,,48,127
45226,note_on,3,0,0,,5,,,41,127
45466,note_off,240,0,0,,4,,,64,127
45466,note_off,0,0,0,,7,,,67,127
45469,note_on,3,0,0,,10,,,69,127
45469,note_on,0,0,0,,11,,,70,127
45588,note_off,119,0,0,,11,,,70,127
45588,note_off,0,0,0,,10,,,69,127
45591,note_on,3,0,0,,7,,,67,127
45710,note_off,119,0,0,,7,,,67,127
45713,note_on,3,0,0,,5,,,65,127
45834,note_off,121,0,0,,5,,,41,127
45953,note_off,119,0,0,,5,,,65,127
45956,note_on,3,0,0,,5,,,77,127
46014,note_off,58,0,0,,5,,,77,127
46017,note_on,3,0,0,,3,,,75,127
46075,note_off,58,0,0,,3,,,75,127
46078,note_on,3,0,0,,2,,,74,127
46136,note_off,58,0,0,,2,,,74,127
46139,note_on,3,0,0,,0,,,72,127
46197,note_off,58,0,0,,0,,,72,127
46200,note_on,3,0,0,,11,,,70,127
46258,note_off,58,0,0,,11,,,70,127
46261,note_on,3,0,0,,10,,,69,127
46319,note_off,58,0,0,,10,,,69,127
46322,note_on,3,0,0,,7,,,67,127
46380,note_off,58,0,0,,7,,,67,127
46383,note_on,3,0,0,,5,,,65,127
46441,note_off,58,0,0,,5,,,65,127
46444,note_on,3,0,0,,10,,,69,127
46444,note_on,0,0,0,,0,,,72,127
46687,note_on,243,0,0,,5,,,65,127
46745,note_off,58,0,0,,5,,,65,127
46748,note_on,3,0,0,,3,,,63,127
46806,note_off,58,0,0,,3,,,63,127
46809,note_on,3,0,0,,2,,,62,127
46867,note_off,58,0,0,,2,,,62,127
46870,note_on,3,0,0,,0,,,60,127
46928,note_off,58,0,0,,0,,,60,127
46928,note_off,0,0,0,,0,,,72,127
46928,note_off,0,0,0,,10,,,69,127
46931,note_on,3,0,0,,2,,,74,127
46931,note_on,0,0,0,,11,,,70,127
46931,note_on,0,0,0,,11,,,58,127
46989,note_off,58,0,0,,11,,,58,127
46992,note_on,3,0,0,,10,,,57,127
47050,note_off,58,0,0,,10,,,57,127
47053,note_on,3,0,0,,7,,,55,127
47111,note_off,58,0,0,,7,,,55,127
47114,note_on,3,0,0,,5,,,53,127
47172,note_off,58,0,0,,5,,,53,127
47172,note_off,0,0,0,,11,,,70,127
47172,note_off,0,0,0,,2,,,74,127
47175,note_on,3,0,0,,0,,,72,127
47175,note_on,0,0,0,,3,,,75,127
47175,note_on,0,0,0,,5,,,41,127
47415,note_off,240,0,0,,5,,,41,127
47418,note_on,3,0,0,,11,,,46,127
47658,note_off,240,0,0,,3,,,75,127
47658,note_off,0,0,0,,0,,,72,127
47661,note_on,3,0,0,,2,,,74,127
47661,note_on,0,0,0,,11,,,70,127
47901,note_off,240,0,0,,11,,,70,127
47901,note_off,0,0,0,,2,,,74,127
47901,note_off,0,0,0,,11,,,46,127
47904,note_on,3,0,0,,10,,,69,127
47904,note_on,0,0,0,,0,,,72,127
47904,note_on,0,0,0,,5,,,41,127
48144,note_off,240,0,0,,5,,,41,127
48147,note_on,3,0,0,,11,,,46,127
48387,note_off,240,0,0,,0,,,72,127
48387,note_off,0,0,0,,10,,,69,127
48390,note_on,3,0,0,,2,,,74,127
48390,note_on,0,0,0,,3,,,75,127
48509,note_off,119,0,0,,3,,,75,127
48509,note_off,0,0,0,,2,,,74,127
48512,note_on,3,0,0,,0,,,72,127
48631,note_off,119,0,0,,0,,,72,127
48634,note_on,3,0,0,,11,,,70,127
48874,note_off,240,0,0,,11,,,70,127
48874,note_off,0,0,0,,11,,,46,127
48877,note_on,3,0,0,,11,,,82,127
48877,note_on,0,0,0,,11,,,58,127
48935,note_off,58,0,0,,11,,,82,127
48938,note_on,3,0,0,,10,,,81,127
48996,note_off,58,0,0,,10,,,81,127
48999,note_on,3,0,0,,7,,,79,127
49057,note_off,58,0,0,,7,,,79,127
49060,note_on,3,0,0,,5,,,77,127
49118,note_off,58,0,0,,5,,,77,127
49118,note_off,0,0,0,,11,,,58,127
49121,note_on,3,0,0,,3,,,75,127
49121,note_on,0,0,0,,0,,,60,127
49179,note_off,58,0,0,,3,,,75,127
49182,note_on,3,0,0,,2,,,74,127
49240,note_off,58,0,0,,2,,,74,127
49243,note_on,3,0,0,,0,,,72,127
49301,note_off,58,0,0,,0,,,72,127
49304,note_on,3,0,0,,11,,,70,127
49362,note_off,58,0,0,,11,,,70,127
49362,note_off,0,0,0,,0,,,60,127
49365,note_on,3,0,0,,11,,,70,127
49365,note_on,0,0,0,,2,,,62,127
49605,note_off,240,0,0,,2,,,62,127
49605,note_off,0,0,0,,11,,,70,127
49608,note_on,3,0,0,,11,,,70,127
49608,note_on,0,0,0,,3,,,63,127
49848,note_off,240,0,0,,11,,,70,127
49851,note_on,3,0,0,,7,,,79,127
50091,note_off,240,0,0,,7,,,79,127
50091,note_off,0,0,0,,3,,,63,127
50094,note_on,3,0,0,,5,,,77,127
50094,note_on,0,0,0,,2,,,62,127
50334,note_off,240,0,0,,2,,,62,127
50334,note_off,0,0,0,,5,,,77,127
50337,note_on,3,0,0,,3,,,75,127
50337,note_on,0,0,0,,0,,,60,127
50577,note_off,240,0,0,,0,,,60,127
50577,note_off,0,0,0,,3,,,75,127
50580,note_on,3,0,0,,3,,,75,127
50580,note_on,0,0,0,,11,,,58,127
50658,note_off,78,0,0,,3,,,75,127
50661,note_on,3,0,0,,2,,,74,127
50739,note_off,78,0,0,,2,,,74,127
50742,note_on,3,0,0,,3,,,75,127
50820,note_off,78,0,0,,3,,,75,127
50823,note_on,3,0,0,,2,,,74,127
50823,note_on,0,0,0,,11,,,46,127
50901,note_off,78,0,0,,2,,,74,127
50904,note_on,3,0,0,,0,,,72,127
50944,note_off,40,0,0,,11,,,58,127
50982,note_off,38,0,0,,0,,,72,127
50985,note_on,3,0,0,,2,,,74,127
51063,note_off,78,0,0,,2,,,74,127
51063,note_off,0,0,0,,11,,,46,127
51066,note_on,3,0,0,,2,,,74,127
51066,note_on,0,0,0,,5,,,41,127
51306,note_off,240,0,0,,2,,,74,127
51309,note_on,3,0,0,,0,,,72,127
51673,note_off,364,0,0,,5,,,41,127
51792,note_off,119,0,0,,0,,,72,127
51795,note_on,3,0,0,,0,,,84,127
51914,note_off,119,0,0,,0,,,84,127
51917,note_on,3,0,0,,10,,,81,127
52036,note_off,119,0,0,,10,,,81,127
52039,note_on,3,0,0,,5,,,77,127
52158,note_off,119,0,0,,5,,,77,127
52161,note_on,3,0,0,,3,,,75,127
52280,note_off,119,0,0,,3,,,75,127
52283,note_on,3,0,0,,0,,,72,127
52402,note_off,119,0,0,,0,,,72,127
52405,note_on,3,0,0,,10,,,69,127
52524,note_off,119,0,0,,10,,,69,127
52527,note_on,3,0,0,,5,,,65,127
52646,note_off,119,0,0,,5,,,65,127
52649,note_on,3,0,0,,3,,,63,127
52768,note_off,119,0,0,,3,,,63,127
52771,note_on,3,0,0,,0,,,60,127
52890,note_off,119,0,0,,0,,,60,127
52893,note_on,3,0,0,,10,,,57,127
53012,note_off,119,0,0,,10,,,57,127
53015,note_on,3,0,0,,5,,,53,127
53136,note_on,121,0,0,,5,,,41,127
53257,note_on,121,0,0,,0,,,84,127
53376,note_off,119,0,0,,0,,,84,127
53379,note_on,3,0,0,,10,,,81,127
53495,note_off,116,0,0,,5,,,53,127
53498,note_off,3,0,0,,10,,,81,127
53501,note_on,3,0,0,,5,,,77,127
53620,note_off,119,0,0,,5,,,77,127
53623,note_on,3,0,0,,3,,,75,127
53742,note_off,119,0,0,,3,,,75,127
53745,note_on,3,0,0,,0,,,72,127
53864,note_off,119,0,0,,0,,,72,127
53865,note_off,1,0,0,,5,,,41,127
53866,note_on,1,0,0,,10,,,69,127
53985,note_off,119,0,0,,10,,,69,127
53988,note_on,3,0,0,,5,,,65,127
54107,note_off,119,0,0,,5,,,65,127
54110,note_on,3,0,0,,3,,,63,127
54229,note_off,119,0,0,,3,,,63,127
54232,note_on,3,0,0,,0,,,60,127
54351,note_off,119,0,0,,0,,,60,127
54354,note_on,3,0,0,,10,,,57,127
54473,note_off,119,0,0,,10,,,57,127
54476,note_on,3,0,0,,5,,,53,127
54597,note_on,121,0,0,,5,,,41,127
54718,note_on,121,0,0,,0,,,84,127
54837,note_off,119,0,0,,0,,,84,127
54840,note_on,3,0,0,,10,,,81,127
54956,note_off,116,0,0,,5,,,53,127
54959,note_off,3,0,0,,10,,,81,127
54962,note_on,3,0,0,,5,,,77,127
55081,note_off,119,0,0,,5,,,77,127
55084,note_on,3,0,0,,3,,,75,127
55203,note_off,119,0,0,,3,,,75,127
55206,note_on,3,0,0,,0,,,72,127
55325,note_off,119,0,0,,0,,,72,127
55326,note_off,1,0,0,,5,,,41,127
55327,note_on,1,0,0,,10,,,69,127
55446,note_off,119,0,0,,10,,,69,127
55449,note_on,3,0,0,,5,,,65,127
55568,note_off,119,0,0,,5,,,65,127
55571,note_on,3,0,0,,3,,,63,127
55690,note_off,119,0,0,,3,,,63,127
55693,note_on,3,0,0,,0,,,60,127
55812,note_off,119,0,0,,0,,,60,127
55815,note_on,3,0,0,,10,,,57,127
55934,note_off,119,0,0,,10,,,57,127
55937,note_on,3,0,0,,5,,,53,127
56056,note_off,119,0,0,,5,,,53,127
56059,note_on,3,0,0,,5,,,41,127
56178,note_off,119,0,0,,5,,,41,127
56181,note_on,3,0,0,,2,,,86,127
56181,note_on,0,0,0,,11,,,46,127
56259,note_off,78,0,0,,2,,,86,127
56262,note_on,3,0,0,,0,,,84,127
56340,note_off,78,0,0,,0,,,84,127
56343,note_on,3,0,0,,11,,,82,127
56421,note_off,78,0,0,,11,,,82,127
56424,note_on,3,0,0,,11,,,82,127
56664,note_off,240,0,0,,11,,,82,127
56664,note_off,0,0,0,,11,,,46,127
56667,note_on,3,0,0,,11,,,82,127
56667,note_on,0,0,0,,2,,,50,127
56907,note_off,240,0,0,,2,,,50,127
56907,note_off,0,0,0,,11,,,82,127
56910,note_on,3,0,0,,7,,,79,127
56910,note_on,0,0,0,,3,,,51,127
56988,note_off,78,0,0,,7,,,79,127
56991,note_on,3,0,0,,10,,,81,127
57069,note_off,78,0,0,,10,,,81,127
57072,note_on,3,0,0,,11,,,82,127
57150,note_off,78,0,0,,11,,,82,127
57153,note_on,3,0,0,,11,,,82,127
57393,note_off,240,0,0,,11,,,82,127
57393,note_off,0,0,0,,3,,,51,127
57396,note_on,3,0,0,,11,,,82,127
57396,note_on,0,0,0,,5,,,53,127
57636,note_off,240,0,0,,5,,,53,127
57636,note_off,0,0,0,,11,,,82,127
57639,note_on,3,0,0,,11,,,82,127
57639,note_on,0,0,0,,7,,,55,127
57879,note_off,240,0,0,,11,,,82,127
57882,note_on,3,0,0,,0,,,84,127
58122,note_off,240,0,0,,0,,,84,127
58122,note_off,0,0,0,,7,,,55,127
58125,note_on,3,0,0,,3,,,75,127
58125,note_on,0,0,0,,10,,,57,127
58365,note_off,240,0,0,,10,,,57,127
58365,note_off,0,0,0,,3,,,75,127
58368,note_on,3,0,0,,2,,,74,127
58368,note_on,0,0,0,,11,,,58,127
58446,note_off,78,0,0,,2,,,74,127
58449,note_on,3,0,0,,0,,,72,127
58527,note_off,78,0,0,,0,,,72,127
58530,note_on,3,0,0,,11,,,70,127
58608,note_off,78,0,0,,11,,,70,127
58608,note_off,0,0,0,,11,,,58,127
58611,note_on,3,0,0,,2,,,74,127
58611,note_on,0,0,0,,11,,,70,127
58611,note_on,0,0,0,,5,,,53,127
58851,note_off,240,0,0,,11,,,70,127
58851,note_off,0,0,0,,2,,,74,127
58854,note_on,3,0,0,,0,,,72,127
58854,note_on,0,0,0,,10,,,69,127
58854,note_on,0,0,0,,5,,,41,127
59091,note_off,237,0,0,,5,,,53,127
59094,note_off,3,0,0,,5,,,41,127
59094,note_off,0,0,0,,10,,,69,127
59094,note_off,0,0,0,,0,,,72,127
59097,note_on,3,0,0,,11,,,70,127
59097,note_on,0,0,0,,2,,,74,127
59097,note_on,0,0,0,,11,,,46,127
59175,note_off,78,0,0,,2,,,74,127
59175,note_off,0,0,0,,11,,,70,127
59178,note_on,3,0,0,,0,,,72,127
59256,note_off,78,0,0,,0,,,72,127
59259,note_on,3,0,0,,11,,,70,127
59337,note_off,78,0,0,,11,,,70,127
59337,note_off,0,0,0,,11,,,46,127
59340,note_on,3,0,0,,11,,,70,127
59340,note_on,0,0,0,,0,,,48,127
59580,note_off,240,0,0,,0,,,48,127
59580,note_off,0,0,0,,11,,,70,127
59583,note_on,3,0,0,,11,,,70,127
59583,note_on,0,0,0,,2,,,50,127
59823,note_off,240,0,0,,2,,,50,127
59823,note_off,0,0,0,,11,,,70,127
59826,note_on,3,0,0,,7,,,67,127
59826,note_on,0,0,0,,3,,,51,127
59904,note_off,78,0,0,,7,,,67,127
59907,note_on,3,0,0,,10,,,69,127
59985,note_off,78,0,0,,10,,,69,127
59988,note_on,3,0,0,,11,,,70,127
60066,note_off,78,0,0,,11,,,70,127
60069,note_on,3,0,0,,11,,,70,127
60309,note_off,240,0,0,,11,,,70,127
60309,note_off,0,0,0,,3,,,51,127
60312,note_on,3,0,0,,11,,,70,127
60312,note_on,0,0,0,,5,,,53,127
60552,note_off,240,0,0,,5,,,53,127
60552,note_off,0,0,0,,11,,,70,127
60555,note_on,3,0,0,,11,,,70,127
60555,note_on,0,0,0,,7,,,55,127
60795,note_off,240,0,0,,11,,,70,127
60798,note_on,3,0,0,,7,,,79,127
61038,note_off,240,0,0,,7,,,79,127
61038,note_off,0,0,0,,7,,,55,127
61041,note_on,3,0,0,,5,,,77,127
61041,note_on,0,0,0,,10,,,57,127
61281,note_off,240,0,0,,10,,,57,127
61281,note_off,0,0,0,,5,,,77,127
61284,note_on,3,0,0,,2,,,74,127
61284,note_on,0,0,0,,11,,,58,127
61362,note_off,78,0,0,,2,,,74,127
61365,note_on,3,0,0,,0,,,72,127
61443,note_off,78,0,0,,0,,,72,127
61446,note_on,3,0,0,,11,,,70,127
61524,note_off,78,0,0,,11,,,70,127
61524,note_off,0,0,0,,11,,,58,127
61527,note_on,3,0,0,,2,,,74,127
61527,note_on,0,0,0,,11,,,70,127
61527,note_on,0,0,0,,5,,,53,127
61767,note_off,240,0,0,,11,,,70,127
61767,note_off,0,0,0,,2,,,74,127
61770,note_on,3,0,0,,10,,,69,127
61770,note_on,0,0,0,,0,,,72,127
61770,note_on,0,0,0,,5,,,41,127
62007,note_off,237,0,0,,5,,,53,127
62010,note_off,3,0,0,,5,,,41,127
62010,note_off,0,0,0,,0,,,72,127
62010,note_off,0,0,0,,10,,,69,127
62013,note_on,3,0,0,,11,,,70,127
62013,note_on,0,0,0,,11,,,46,127
62253,note_off,240,0,0,,11,,,70,127
62256,note_on,3,0,0,,11,,,82,127
62314,note_off,58,0,0,,11,,,82,127
62317,note_on,3,0,0,,10,,,81,127
62375,note_off,58,0,0,,10,,,81,127
62378,note_on,3,0,0,,7,,,79,127
62436,note_off,58,0,0,,7,,,79,127
62439,note_on,3,0,0,,5,,,77,127
62497,note_off,58,0,0,,5,,,77,127
62497,note_off,0,0,0,,11,,,46,127
62500,note_on,3,0,0,,3,,,75,127
62500,note_on,0,0,0,,11,,,46,127
62558,note_off,58,0,0,,3,,,75,127
62561,note_on,3,0,0,,2,,,74,127
62619,note_off,58,0,0,,2,,,74,127
62622,note_on,3,0,0,,0,,,72,127
62680,note_off,58,0,0,,0,,,72,127
62683,note_on,3,0,0,,11,,,70,127
62741,note_off,58,0,0,,11,,,70,127
62741,note_off,0,0,0,,11,,,46,127
62744,note_on,3,0,0,,2,,,74,127
62744,note_on,0,0,0,,11,,,70,127
62744,note_on,0,0,0,,5,,,53,127
62984,note_off,240,0,0,,11,,,70,127
62984,note_off,0,0,0,,2,,,74,127
62987,note_on,3,0,0,,2,,,74,127
62987,note_on,0,0,0,,11,,,70,127
63227,note_off,240,0,0,,11,,,70,127
63227,note_off,0,0,0,,2,,,74,127
63230,note_on,3,0,0,,10,,,69,127
63230,note_on,0,0,0,,0,,,72,127
63230,note_on,0,0,0,,5,,,41,127
63470,note_off,240,0,0,,5,,,41,127
63470,note_off,0,0,0,,0,,,72,127
63470,note_off,0,0,0,,10,,,69,127
63471,note_off,1,0,0,,5,,,53,127
63472,note_on,1,0,0,,11,,,70,127
63472,note_on,0,0,0,,11,,,46,127
63712,note_off,240,0,0,,11,,,70,127
63716,note_on,4,0,0,,11,,,70,127
63774,note_off,58,0,0,,11,,,70,127
63779,note_on,5,0,0,,10,,,69,127
63837,note_off,58,0,0,,10,,,69,127
63841,note_on,4,0,0,,7,,,67,127
63899,note_off,58,0,0,,7,,,67,127
63904,note_on,5,0,0,,5,,,65,127
63955,note_off,51,0,0,,11,,,46,127
63963,note_off,8,0,0,,5,,,65,127
63967,note_on,4,0,0,,11,,,46,127
63967,note_on,0,0,0,,3,,,63,127
64025,note_off,58,0,0,,3,,,63,127
64030,note_on,5,0,0,,2,,,62,127
64088,note_off,58,0,0,,2,,,62,127
64092,note_on,4,0,0,,0,,,60,127
64150,note_off,58,0,0,,0,,,60,127
64155,note_on,5,0,0,,11,,,58,127
64211,note_off,56,0,0,,11,,,46,127
64214,note_off,3,0,0,,11,,,58,127
64219,note_on,5,0,0,,2,,,62,127
64219,note_on,0,0,0,,11,,,58,127
64219,note_on,0,0,0,,5,,,41,127
64469,note_off,250,0,0,,11,,,58,127
64469,note_off,0,0,0,,2,,,62,127
64479,note_on,10,0,0,,2,,,62,127
64479,note_on,0,0,0,,11,,,58,127
64729,note_off,250,0,0,,11,,,58,127
64729,note_off,0,0,0,,2,,,62,127
64739,note_on,10,0,0,,0,,,60,127
64739,note_on,0,0,0,,10,,,57,127
64979,note_off,240,0,0,,5,,,41,127
64989,note_off,10,0,0,,10,,,57,127
64989,note_off,0,0,0,,0,,,60,127
64997,note_on,8,0,0,,0,,,60,127
64997,note_on,0,0,0,,11,,,46,127
65056,note_off,59,0,0,,0,,,60,127
65062,note_on,6,0,0,,11,,,58,127
65121,note_off,59,0,0,,11,,,58,127
65126,note_on,5,0,0,,0,,,60,127
65185,note_off,59,0,0,,0,,,60,127
65191,note_on,6,0,0,,11,,,58,127
67797,note_off,2606,0,0,,11,,,46,127
67802,note_off,5,0,0,,11,,,58,127
72192,end_of_track,4390,1,0,,,,,,
