tick,type,time,meta,track,program,channel,pitch,tempo,note,velocity
0,copyright,0,1,0,,,,,,
0,program_change,0,0,0,6,0,,,,
0,pitchwheel,0,0,0,,0,0,,,
0,program_change,0,0,0,6,1,,,,
0,pitchwheel,0,0,0,,1,-590,,,
0,program_change,0,0,0,6,2,,,,
0,pitchwheel,0,0,0,,2,-272,,,
0,program_change,0,0,0,6,3,,,,
0,pitchwheel,0,0,0,,3,-353,,,
0,program_change,0,0,0,6,4,,,,
0,pitchwheel,0,0,0,,4,-560,,,
0,program_change,0,0,0,6,5,,,,
0,pitchwheel,0,0,0,,5,-80,,,
0,program_change,0,0,0,6,6,,,,
0,pitchwheel,0,0,0,,6,-625,,,
0,program_change,0,0,0,6,7,,,,
0,pitchwheel,0,0,0,,7,-130,,,
0,program_change,0,0,0,6,8,,,,
0,pitchwheel,0,0,0,,8,-512,,,
0,program_change,0,0,0,6,10,,,,
0,pitchwheel,0,0,0,,10,-464,,,
0,program_change,0,0,0,6,11,,,,
0,pitchwheel,0,0,0,,11,-208,,,
0,program_change,0,0,0,6,12,,,,
0,pitchwheel,0,0,0,,12,-553,,,
0,set_tempo,0,1,0,,,,500000,,
115,note_on,115,0,0,,0,,,84,127
575,note_off,460,0,0,,0,,,84,127
576,note_on,1,0,0,,0,,,72,127
1032,note_off,456,0,0,,0,,,72,127
1037,note_on,5,0,0,,0,,,36,127
1497,note_off,460,0,0,,0,,,36,127
1498,note_on,1,0,0,,7,,,79,127
1954,note_off,456,0,0,,7,,,79,127
1959,note_on,5,0,0,,0,,,60,127
1959,note_on,0,0,0,,5,,,77,127
2073,note_off,114,0,0,,5,,,77,127
2074,note_on,1,0,0,,3,,,75,127
2188,note_off,114,0,0,,3,,,75,127
2189,note_on,1,0,0,,2,,,74,127
2303,note_off,114,0,0,,2,,,74,127
2304,note_on,1,0,0,,0,,,72,127
2418,note_off,114,0,0,,0,,,72,127
2418,note_off,0,0,0,,0,,,60,127
2419,note_on,1,0,0,,2,,,62,127
2419,note_on,0,0,0,,12,,,71,127
2533,note_off,114,0,0,,12,,,71,127
2534,note_on,1,0,0,,2,,,74,127
2648,note_off,114,0,0,,2,,,74,127
2649,note_on,1,0,0,,8,,,80,127
2763,note_off,114,0,0,,8,,,80,127
2764,note_on,1,0,0,,7,,,79,127
2878,note_off,114,0,0,,7,,,79,127
2878,note_off,0,0,0,,2,,,62,127
2879,note_on,1,0,0,,5,,,65,127
2879,note_on,0,0,0,,12,,,71,127
2993,note_off,114,0,0,,12,,,71,127
2994,note_on,1,0,0,,2,,,74,127
3108,note_off,114,0,0,,2,,,74,127
3109,note_on,1,0,0,,5,,,77,127
3223,note_off,114,0,0,,5,,,77,127
3224,note_on,1,0,0,,3,,,75,127
3338,note_off,114,0,0,,3,,,75,127
3338,note_off,0,0,0,,5,,,65,127
3339,note_on,1,0,0,,3,,,63,127
3339,note_on,0,0,0,,7,,,67,127
3453,note_off,114,0,0,,7,,,67,127
3454,note_on,1,0,0,,0,,,72,127
3568,note_off,114,0,0,,0,,,72,127
3569,note_on,1,0,0,,5,,,77,127
3683,note_off,114,0,0,,5,,,77,127
3684,note_on,1,0,0,,3,,,75,127
3798,note_off,114,0,0,,3,,,75,127
3798,note_off,0,0,0,,3,,,63,127
3799,note_on,1,0,0,,12,,,59,127
3799,note_on,0,0,0,,5,,,65,127
3913,note_off,114,0,0,,5,,,65,127
3914,note_on,1,0,0,,12,,,71,127
4028,note_off,114,0,0,,12,,,71,127
4029,note_on,1,0,0,,3,,,75,127
4143,note_off,114,0,0,,3,,,75,127
4144,note_on,1,0,0,,2,,,74,127
4258,note_off,114,0,0,,2,,,74,127
4258,note_off,0,0,0,,12,,,59,127
4259,note_on,1,0,0,,0,,,60,127
4259,note_on,0,0,0,,3,,,63,127
4373,note_off,114,0,0,,3,,,63,127
4374,note_on,1,0,0,,0,,,72,127
4488,note_off,114,0,0,,0,,,72,127
4489,note_on,1,0,0,,3,,,75,127
4603,note_off,114,0,0,,3,,,75,127
4604,note_on,1,0,0,,2,,,74,127
4718,note_off,114,0,0,,2,,,74,127
4718,note_off,0,0,0,,0,,,60,127
4719,note_on,1,0,0,,5,,,53,127
4719,note_on,0,0,0,,8,,,68,127
4833,note_off,114,0,0,,8,,,68,127
4834,note_on,1,0,0,,8,,,80,127
4948,note_off,114,0,0,,8,,,80,127
4949,note_on,1,0,0,,5,,,77,127
5063,note_off,114,0,0,,5,,,77,127
5064,note_on,1,0,0,,2,,,74,127
5178,note_off,114,0,0,,2,,,74,127
5178,note_off,0,0,0,,5,,,53,127
5179,note_on,1,0,0,,7,,,55,127
5179,note_on,0,0,0,,0,,,72,127
5293,note_off,114,0,0,,7,,,55,127
5294,note_on,1,0,0,,2,,,62,127
5408,note_off,114,0,0,,2,,,62,127
5408,note_off,0,0,0,,0,,,72,127
5409,note_on,1,0,0,,5,,,65,127
5409,note_on,0,0,0,,12,,,71,127
5523,note_off,114,0,0,,5,,,65,127
5524,note_on,1,0,0,,3,,,63,127
5638,note_off,114,0,0,,3,,,63,127
5639,note_on,1,0,0,,7,,,55,127
5753,note_off,114,0,0,,7,,,55,127
5754,note_off,1,0,0,,12,,,71,127
5754,note_on,0,0,0,,2,,,62,127
5868,note_off,114,0,0,,2,,,62,127
5869,note_on,1,0,0,,5,,,65,127
5869,note_on,0,0,0,,2,,,74,127
5983,note_off,114,0,0,,5,,,65,127
5984,note_on,1,0,0,,3,,,63,127
6098,note_off,114,0,0,,3,,,63,127
6099,note_on,1,0,0,,8,,,56,127
6213,note_off,114,0,0,,8,,,56,127
6214,note_off,1,0,0,,2,,,74,127
6214,note_on,0,0,0,,0,,,60,127
6328,note_off,114,0,0,,0,,,60,127
6329,note_on,1,0,0,,3,,,63,127
6329,note_on,0,0,0,,0,,,72,127
6443,note_off,114,0,0,,3,,,63,127
6444,note_on,1,0,0,,2,,,62,127
6558,note_off,114,0,0,,2,,,62,127
6559,note_on,1,0,0,,5,,,53,127
6673,note_off,114,0,0,,5,,,53,127
6674,note_off,1,0,0,,0,,,72,127
6674,note_on,0,0,0,,12,,,59,127
6788,note_off,114,0,0,,12,,,59,127
6789,note_on,1,0,0,,2,,,62,127
6789,note_on,0,0,0,,2,,,74,127
6903,note_off,114,0,0,,2,,,62,127
6904,note_on,1,0,0,,0,,,60,127
7018,note_off,114,0,0,,0,,,60,127
7019,note_on,1,0,0,,7,,,55,127
7133,note_off,114,0,0,,7,,,55,127
7134,note_off,1,0,0,,2,,,74,127
7134,note_on,0,0,0,,2,,,62,127
7248,note_off,114,0,0,,2,,,62,127
7249,note_on,1,0,0,,5,,,65,127
7249,note_on,0,0,0,,12,,,71,127
7363,note_off,114,0,0,,5,,,65,127
7364,note_on,1,0,0,,3,,,63,127
7478,note_off,114,0,0,,3,,,63,127
7479,note_on,1,0,0,,7,,,55,127
7593,note_off,114,0,0,,7,,,55,127
7594,note_off,1,0,0,,12,,,71,127
7594,note_on,0,0,0,,2,,,62,127
7708,note_off,114,0,0,,2,,,62,127
7709,note_on,1,0,0,,5,,,65,127
7709,note_on,0,0,0,,2,,,74,127
7823,note_off,114,0,0,,5,,,65,127
7824,note_on,1,0,0,,3,,,63,127
7938,note_off,114,0,0,,3,,,63,127
7939,note_on,1,0,0,,8,,,56,127
8053,note_off,114,0,0,,8,,,56,127
8054,note_off,1,0,0,,2,,,74,127
8054,note_on,0,0,0,,0,,,60,127
8168,note_off,114,0,0,,0,,,60,127
8169,note_on,1,0,0,,3,,,63,127
8169,note_on,0,0,0,,0,,,72,127
8283,note_off,114,0,0,,3,,,63,127
8284,note_on,1,0,0,,2,,,62,127
8398,note_off,114,0,0,,2,,,62,127
8399,note_on,1,0,0,,5,,,53,127
8513,note_off,114,0,0,,5,,,53,127
8514,note_off,1,0,0,,0,,,72,127
8514,note_on,0,0,0,,12,,,59,127
8628,note_off,114,0,0,,12,,,59,127
8629,note_on,1,0,0,,2,,,62,127
8629,note_on,0,0,0,,2,,,74,127
8743,note_off,114,0,0,,2,,,62,127
8744,note_on,1,0,0,,0,,,60,127
8858,note_off,114,0,0,,0,,,60,127
8859,note_on,1,0,0,,2,,,62,127
8859,note_on,0,0,0,,7,,,55,127
8859,note_on,0,0,0,,12,,,59,127
8974,note_on,115,0,0,,7,,,79,127
9024,note_off,50,0,0,,2,,,74,127
9088,note_off,64,0,0,,7,,,79,127
9089,note_on,1,0,0,,2,,,74,127
9203,note_off,114,0,0,,2,,,74,127
9204,note_on,1,0,0,,12,,,71,127
9318,note_off,114,0,0,,12,,,71,127
9318,note_off,0,0,0,,12,,,59,127
9318,note_off,0,0,0,,7,,,55,127
9318,note_off,0,0,0,,2,,,62,127
9319,note_on,1,0,0,,0,,,60,127
9319,note_on,0,0,0,,7,,,55,127
9319,note_on,0,0,0,,3,,,51,127
9319,note_on,0,0,0,,0,,,72,127
9434,note_on,115,0,0,,3,,,75,127
9492,note_off,58,0,0,,0,,,72,127
9548,note_off,56,0,0,,3,,,75,127
9549,note_on,1,0,0,,0,,,72,127
9663,note_off,114,0,0,,0,,,72,127
9664,note_on,1,0,0,,7,,,67,127
9778,note_off,114,0,0,,7,,,67,127
9778,note_off,0,0,0,,3,,,51,127
9778,note_off,0,0,0,,7,,,55,127
9778,note_off,0,0,0,,0,,,60,127
9779,note_on,1,0,0,,2,,,50,127
9779,note_on,0,0,0,,5,,,53,127
9779,note_on,0,0,0,,0,,,60,127
9779,note_on,0,0,0,,8,,,68,127
9894,note_on,115,0,0,,5,,,77,127
9952,note_off,58,0,0,,8,,,68,127
10008,note_off,56,0,0,,5,,,77,127
10009,note_on,1,0,0,,2,,,74,127
10123,note_off,114,0,0,,2,,,74,127
10124,note_on,1,0,0,,0,,,72,127
10238,note_off,114,0,0,,0,,,72,127
10238,note_off,0,0,0,,0,,,60,127
10238,note_off,0,0,0,,5,,,53,127
10238,note_off,0,0,0,,2,,,50,127
10239,note_on,1,0,0,,12,,,59,127
10239,note_on,0,0,0,,5,,,53,127
10239,note_on,0,0,0,,2,,,50,127
10239,note_on,0,0,0,,5,,,65,127
10353,note_off,114,0,0,,5,,,65,127
10354,note_on,1,0,0,,12,,,71,127
10468,note_off,114,0,0,,12,,,71,127
10469,note_on,1,0,0,,2,,,74,127
10583,note_off,114,0,0,,2,,,74,127
10584,note_on,1,0,0,,5,,,77,127
10698,note_off,114,0,0,,5,,,77,127
10698,note_off,0,0,0,,2,,,50,127
10698,note_off,0,0,0,,5,,,53,127
10698,note_off,0,0,0,,12,,,59,127
10699,note_on,1,0,0,,0,,,48,127
10699,note_on,0,0,0,,3,,,75,127
10813,note_off,114,0,0,,0,,,48,127
10814,note_on,1,0,0,,7,,,55,127
10928,note_off,114,0,0,,7,,,55,127
10929,note_on,1,0,0,,11,,,58,127
11043,note_off,114,0,0,,11,,,58,127
11044,note_on,1,0,0,,8,,,56,127
11154,note_off,110,0,0,,3,,,75,127
11158,note_off,4,0,0,,8,,,56,127
11159,note_on,1,0,0,,12,,,47,127
11273,note_off,114,0,0,,12,,,47,127
11274,note_on,1,0,0,,5,,,53,127
11388,note_off,114,0,0,,5,,,53,127
11389,note_on,1,0,0,,8,,,56,127
11389,note_on,0,0,0,,2,,,74,127
11503,note_off,114,0,0,,8,,,56,127
11504,note_on,1,0,0,,7,,,55,127
11618,note_off,114,0,0,,7,,,55,127
11619,note_on,1,0,0,,0,,,48,127
11733,note_off,114,0,0,,0,,,48,127
11734,note_off,1,0,0,,2,,,74,127
11734,note_on,0,0,0,,7,,,55,127
11848,note_off,114,0,0,,7,,,55,127
11849,note_on,1,0,0,,11,,,58,127
11849,note_on,0,0,0,,0,,,72,127
11963,note_off,114,0,0,,11,,,58,127
11964,note_on,1,0,0,,8,,,56,127
12078,note_off,114,0,0,,8,,,56,127
12079,note_on,1,0,0,,12,,,47,127
12193,note_off,114,0,0,,12,,,47,127
12194,note_off,1,0,0,,0,,,72,127
12194,note_on,0,0,0,,5,,,53,127
12308,note_off,114,0,0,,5,,,53,127
12309,note_on,1,0,0,,8,,,56,127
12309,note_on,0,0,0,,2,,,74,127
12423,note_off,114,0,0,,8,,,56,127
12424,note_on,1,0,0,,7,,,55,127
12538,note_off,114,0,0,,7,,,55,127
12539,note_on,1,0,0,,0,,,48,127
12653,note_off,114,0,0,,0,,,48,127
12654,note_off,1,0,0,,2,,,74,127
12654,note_on,0,0,0,,8,,,56,127
12768,note_off,114,0,0,,8,,,56,127
12769,note_on,1,0,0,,0,,,60,127
12769,note_on,0,0,0,,3,,,75,127
12883,note_off,114,0,0,,0,,,60,127
12884,note_on,1,0,0,,12,,,59,127
12998,note_off,114,0,0,,12,,,59,127
12999,note_on,1,0,0,,2,,,50,127
13113,note_off,114,0,0,,2,,,50,127
13114,note_off,1,0,0,,3,,,75,127
13114,note_on,0,0,0,,12,,,59,127
13228,note_off,114,0,0,,12,,,59,127
13229,note_on,1,0,0,,2,,,62,127
13229,note_on,0,0,0,,5,,,77,127
13343,note_off,114,0,0,,2,,,62,127
13344,note_on,1,0,0,,0,,,60,127
13458,note_off,114,0,0,,0,,,60,127
13459,note_on,1,0,0,,3,,,51,127
13573,note_off,114,0,0,,3,,,51,127
13574,note_off,1,0,0,,5,,,77,127
13574,note_on,0,0,0,,0,,,60,127
13688,note_off,114,0,0,,0,,,60,127
13689,note_on,1,0,0,,3,,,63,127
13689,note_on,0,0,0,,7,,,79,127
13803,note_off,114,0,0,,3,,,63,127
13804,note_on,1,0,0,,2,,,62,127
13918,note_off,114,0,0,,2,,,62,127
13919,note_on,1,0,0,,5,,,53,127
14033,note_off,114,0,0,,5,,,53,127
14034,note_off,1,0,0,,7,,,79,127
14034,note_on,0,0,0,,2,,,62,127
14148,note_off,114,0,0,,2,,,62,127
14149,note_on,1,0,0,,5,,,65,127
14149,note_on,0,0,0,,8,,,80,127
14263,note_off,114,0,0,,5,,,65,127
14264,note_on,1,0,0,,3,,,63,127
14378,note_off,114,0,0,,3,,,63,127
14379,note_on,1,0,0,,7,,,55,127
14493,note_off,114,0,0,,7,,,55,127
14494,note_off,1,0,0,,8,,,80,127
14494,note_on,0,0,0,,3,,,63,127
14608,note_off,114,0,0,,3,,,63,127
14609,note_on,1,0,0,,7,,,67,127
14609,note_on,0,0,0,,11,,,82,127
14723,note_off,114,0,0,,7,,,67,127
14724,note_on,1,0,0,,5,,,65,127
14838,note_off,114,0,0,,5,,,65,127
14839,note_on,1,0,0,,8,,,56,127
14953,note_off,114,0,0,,8,,,56,127
14954,note_off,1,0,0,,11,,,82,127
14954,note_on,0,0,0,,5,,,65,127
15068,note_off,114,0,0,,5,,,65,127
15069,note_on,1,0,0,,8,,,68,127
15069,note_on,0,0,0,,5,,,77,127
15183,note_off,114,0,0,,8,,,68,127
15184,note_on,1,0,0,,7,,,67,127
15298,note_off,114,0,0,,7,,,67,127
15299,note_on,1,0,0,,11,,,58,127
15413,note_off,114,0,0,,5,,,77,127
15414,note_on,1,0,0,,7,,,79,127
15528,note_off,114,0,0,,7,,,79,127
15529,note_on,1,0,0,,5,,,77,127
15643,note_off,114,0,0,,5,,,77,127
15644,note_on,1,0,0,,3,,,75,127
15758,note_off,114,0,0,,3,,,75,127
15758,note_off,0,0,0,,11,,,58,127
15759,note_on,1,0,0,,2,,,62,127
15759,note_on,0,0,0,,2,,,74,127
15873,note_off,114,0,0,,2,,,74,127
15874,note_on,1,0,0,,0,,,72,127
15988,note_off,114,0,0,,0,,,72,127
15989,note_on,1,0,0,,11,,,70,127
16103,note_off,114,0,0,,11,,,70,127
16104,note_on,1,0,0,,8,,,68,127
16218,note_off,114,0,0,,8,,,68,127
16218,note_off,0,0,0,,2,,,62,127
16219,note_on,1,0,0,,3,,,63,127
16219,note_on,0,0,0,,7,,,67,127
16334,note_on,115,0,0,,3,,,75,127
16447,note_off,113,0,0,,7,,,67,127
16448,note_off,1,0,0,,3,,,75,127
16449,note_on,1,0,0,,7,,,79,127
16563,note_off,114,0,0,,7,,,79,127
16564,note_on,1,0,0,,5,,,77,127
16678,note_off,114,0,0,,5,,,77,127
16678,note_off,0,0,0,,3,,,63,127
16679,note_on,1,0,0,,2,,,62,127
16679,note_on,0,0,0,,8,,,68,127
16794,note_on,115,0,0,,5,,,77,127
16907,note_off,113,0,0,,8,,,68,127
16908,note_off,1,0,0,,5,,,77,127
16909,note_on,1,0,0,,8,,,80,127
17023,note_off,114,0,0,,8,,,80,127
17024,note_on,1,0,0,,7,,,79,127
17138,note_off,114,0,0,,7,,,79,127
17138,note_off,0,0,0,,2,,,62,127
17139,note_on,1,0,0,,3,,,63,127
17139,note_on,0,0,0,,7,,,67,127
17254,note_on,115,0,0,,3,,,75,127
17367,note_off,113,0,0,,7,,,67,127
17368,note_off,1,0,0,,3,,,75,127
17369,note_on,1,0,0,,7,,,79,127
17483,note_off,114,0,0,,7,,,79,127
17484,note_on,1,0,0,,5,,,77,127
17598,note_off,114,0,0,,5,,,77,127
17598,note_off,0,0,0,,3,,,63,127
17599,note_on,1,0,0,,2,,,62,127
17599,note_on,0,0,0,,8,,,68,127
17714,note_on,115,0,0,,5,,,77,127
17827,note_off,113,0,0,,8,,,68,127
17828,note_off,1,0,0,,5,,,77,127
17829,note_on,1,0,0,,8,,,80,127
17943,note_off,114,0,0,,8,,,80,127
17944,note_on,1,0,0,,7,,,79,127
18058,note_off,114,0,0,,7,,,79,127
18058,note_off,0,0,0,,2,,,62,127
18059,note_on,1,0,0,,3,,,63,127
18059,note_on,0,0,0,,7,,,67,127
18173,note_off,114,0,0,,7,,,67,127
18174,note_on,1,0,0,,3,,,75,127
18288,note_off,114,0,0,,3,,,75,127
18289,note_on,1,0,0,,7,,,79,127
18403,note_off,114,0,0,,7,,,79,127
18404,note_on,1,0,0,,5,,,77,127
18518,note_off,114,0,0,,5,,,77,127
18518,note_off,0,0,0,,3,,,63,127
18519,note_on,1,0,0,,5,,,65,127
18519,note_on,0,0,0,,2,,,62,127
18519,note_on,0,0,0,,12,,,71,127
18634,note_on,115,0,0,,5,,,77,127
18692,note_off,58,0,0,,12,,,71,127
18748,note_off,56,0,0,,5,,,77,127
18749,note_on,1,0,0,,8,,,80,127
18863,note_off,114,0,0,,8,,,80,127
18864,note_on,1,0,0,,7,,,79,127
18978,note_off,114,0,0,,7,,,79,127
18978,note_off,0,0,0,,2,,,62,127
18978,note_off,0,0,0,,5,,,65,127
18979,note_on,1,0,0,,3,,,63,127
18979,note_on,0,0,0,,7,,,67,127
18979,note_on,0,0,0,,0,,,72,127
19094,note_on,115,0,0,,0,,,84,127
19152,note_off,58,0,0,,0,,,72,127
19208,note_off,56,0,0,,0,,,84,127
19209,note_on,1,0,0,,10,,,81,127
19323,note_off,114,0,0,,10,,,81,127
19324,note_on,1,0,0,,7,,,79,127
19438,note_off,114,0,0,,7,,,79,127
19438,note_off,0,0,0,,7,,,67,127
19438,note_off,0,0,0,,3,,,63,127
19439,note_on,1,0,0,,6,,,66,127
19439,note_on,0,0,0,,0,,,60,127
19439,note_on,0,0,0,,0,,,72,127
19554,note_on,115,0,0,,6,,,78,127
19667,note_off,113,0,0,,0,,,72,127
19668,note_off,1,0,0,,6,,,78,127
19669,note_on,1,0,0,,7,,,79,127
19783,note_off,114,0,0,,7,,,79,127
19784,note_on,1,0,0,,10,,,81,127
19898,note_off,114,0,0,,10,,,81,127
19898,note_off,0,0,0,,0,,,60,127
19898,note_off,0,0,0,,6,,,66,127
19899,note_on,1,0,0,,2,,,62,127
19899,note_on,0,0,0,,11,,,58,127
19899,note_on,0,0,0,,7,,,67,127
19899,note_on,0,0,0,,2,,,74,127
20014,note_on,115,0,0,,7,,,79,127
20127,note_off,113,0,0,,2,,,74,127
20128,note_off,1,0,0,,7,,,79,127
20129,note_on,1,0,0,,11,,,82,127
20243,note_off,114,0,0,,11,,,82,127
20244,note_on,1,0,0,,10,,,81,127
20358,note_off,114,0,0,,10,,,81,127
20358,note_off,0,0,0,,7,,,67,127
20358,note_off,0,0,0,,11,,,58,127
20358,note_off,0,0,0,,2,,,62,127
20359,note_on,1,0,0,,6,,,54,127
20359,note_on,0,0,0,,2,,,62,127
20359,note_on,0,0,0,,0,,,72,127
20474,note_on,115,0,0,,10,,,81,127
20587,note_off,113,0,0,,0,,,72,127
20588,note_off,1,0,0,,10,,,81,127
20589,note_on,1,0,0,,6,,,78,127
20703,note_off,114,0,0,,6,,,78,127
20704,note_on,1,0,0,,0,,,72,127
20818,note_off,114,0,0,,0,,,72,127
20818,note_off,0,0,0,,2,,,62,127
20818,note_off,0,0,0,,6,,,54,127
20819,note_on,1,0,0,,7,,,55,127
20819,note_on,0,0,0,,2,,,62,127
20819,note_on,0,0,0,,11,,,70,127
20934,note_on,115,0,0,,7,,,79,127
20992,note_off,58,0,0,,11,,,70,127
21048,note_off,56,0,0,,7,,,79,127
21049,note_on,1,0,0,,2,,,74,127
21163,note_off,114,0,0,,2,,,74,127
21164,note_on,1,0,0,,11,,,70,127
21278,note_off,114,0,0,,11,,,70,127
21278,note_off,0,0,0,,2,,,62,127
21278,note_off,0,0,0,,7,,,55,127
21279,note_on,1,0,0,,3,,,51,127
21279,note_on,0,0,0,,0,,,60,127
21279,note_on,0,0,0,,10,,,69,127
21394,note_on,115,0,0,,0,,,72,127
21452,note_off,58,0,0,,10,,,69,127
21508,note_off,56,0,0,,0,,,72,127
21509,note_on,1,0,0,,3,,,75,127
21623,note_off,114,0,0,,3,,,75,127
21624,note_on,1,0,0,,7,,,67,127
21738,note_off,114,0,0,,7,,,67,127
21738,note_off,0,0,0,,0,,,60,127
21738,note_off,0,0,0,,3,,,51,127
21739,note_on,1,0,0,,2,,,50,127
21739,note_on,0,0,0,,7,,,67,127
21795,note_off,56,0,0,,7,,,67,127
21796,note_on,1,0,0,,6,,,66,127
21852,note_off,56,0,0,,6,,,66,127
21852,note_off,0,0,0,,2,,,50,127
21853,note_on,1,0,0,,10,,,57,127
21853,note_on,0,0,0,,7,,,67,127
21909,note_off,56,0,0,,7,,,67,127
21910,note_on,1,0,0,,6,,,66,127
21966,note_off,56,0,0,,10,,,57,127
21967,note_on,1,0,0,,0,,,60,127
22081,note_off,114,0,0,,0,,,60,127
22082,note_on,1,0,0,,11,,,58,127
22196,note_off,114,0,0,,11,,,58,127
22197,note_on,1,0,0,,2,,,50,127
22255,note_off,58,0,0,,6,,,66,127
22311,note_off,56,0,0,,2,,,50,127
22312,note_on,1,0,0,,10,,,57,127
22426,note_off,114,0,0,,10,,,57,127
22427,note_on,1,0,0,,0,,,60,127
22427,note_on,0,0,0,,10,,,69,127
22541,note_off,114,0,0,,0,,,60,127
22542,note_on,1,0,0,,11,,,58,127
22656,note_off,114,0,0,,11,,,58,127
22657,note_on,1,0,0,,3,,,51,127
22771,note_off,114,0,0,,3,,,51,127
22772,note_off,1,0,0,,10,,,69,127
22772,note_on,0,0,0,,7,,,55,127
22886,note_off,114,0,0,,7,,,55,127
22887,note_on,1,0,0,,11,,,58,127
22887,note_on,0,0,0,,7,,,67,127
23001,note_off,114,0,0,,11,,,58,127
23002,note_on,1,0,0,,10,,,57,127
23116,note_off,114,0,0,,10,,,57,127
23117,note_on,1,0,0,,0,,,48,127
23231,note_off,114,0,0,,0,,,48,127
23232,note_off,1,0,0,,7,,,67,127
23232,note_on,0,0,0,,6,,,54,127
23346,note_off,114,0,0,,6,,,54,127
23347,note_on,1,0,0,,10,,,57,127
23347,note_on,0,0,0,,0,,,72,127
23461,note_off,114,0,0,,10,,,57,127
23462,note_on,1,0,0,,7,,,55,127
23576,note_off,114,0,0,,7,,,55,127
23577,note_on,1,0,0,,2,,,50,127
23691,note_off,114,0,0,,2,,,50,127
23692,note_off,1,0,0,,0,,,72,127
23692,note_on,0,0,0,,10,,,57,127
23806,note_off,114,0,0,,10,,,57,127
23807,note_on,1,0,0,,0,,,60,127
23807,note_on,0,0,0,,10,,,69,127
23921,note_off,114,0,0,,0,,,60,127
23922,note_on,1,0,0,,11,,,58,127
24036,note_off,114,0,0,,11,,,58,127
24037,note_on,1,0,0,,2,,,50,127
24151,note_off,114,0,0,,2,,,50,127
24152,note_off,1,0,0,,10,,,69,127
24152,note_on,0,0,0,,10,,,57,127
24266,note_off,114,0,0,,10,,,57,127
24267,note_on,1,0,0,,0,,,60,127
24267,note_on,0,0,0,,6,,,66,127
24381,note_off,114,0,0,,0,,,60,127
24382,note_on,1,0,0,,11,,,58,127
24496,note_off,114,0,0,,11,,,58,127
24497,note_on,1,0,0,,3,,,51,127
24611,note_off,114,0,0,,3,,,51,127
24612,note_off,1,0,0,,6,,,66,127
24612,note_on,0,0,0,,7,,,55,127
24726,note_off,114,0,0,,7,,,55,127
24727,note_on,1,0,0,,11,,,58,127
24727,note_on,0,0,0,,7,,,67,127
24841,note_off,114,0,0,,11,,,58,127
24842,note_on,1,0,0,,10,,,57,127
24956,note_off,114,0,0,,10,,,57,127
24957,note_on,1,0,0,,0,,,48,127
25071,note_off,114,0,0,,0,,,48,127
25072,note_off,1,0,0,,7,,,67,127
25072,note_on,0,0,0,,6,,,54,127
25186,note_off,114,0,0,,6,,,54,127
25187,note_on,1,0,0,,10,,,57,127
25187,note_on,0,0,0,,0,,,72,127
25301,note_off,114,0,0,,10,,,57,127
25302,note_on,1,0,0,,7,,,55,127
25416,note_off,114,0,0,,7,,,55,127
25417,note_on,1,0,0,,0,,,48,127
25417,note_on,0,0,0,,10,,,57,127
25417,note_on,0,0,0,,6,,,54,127
25531,note_off,114,0,0,,0,,,72,127
25532,note_on,1,0,0,,2,,,74,127
25646,note_off,114,0,0,,2,,,74,127
25647,note_on,1,0,0,,10,,,69,127
25761,note_off,114,0,0,,10,,,69,127
25762,note_on,1,0,0,,6,,,66,127
25876,note_off,114,0,0,,6,,,66,127
25876,note_off,0,0,0,,6,,,54,127
25876,note_off,0,0,0,,10,,,57,127
25876,note_off,0,0,0,,0,,,48,127
25877,note_on,1,0,0,,7,,,55,127
25877,note_on,0,0,0,,11,,,46,127
25877,note_on,0,0,0,,7,,,67,127
25992,note_on,115,0,0,,7,,,79,127
26105,note_off,113,0,0,,7,,,67,127
26106,note_off,1,0,0,,7,,,79,127
26107,note_on,1,0,0,,2,,,74,127
26221,note_off,114,0,0,,2,,,74,127
26222,note_on,1,0,0,,11,,,70,127
26336,note_off,114,0,0,,11,,,70,127
26336,note_off,0,0,0,,11,,,46,127
26336,note_off,0,0,0,,7,,,55,127
26337,note_on,1,0,0,,10,,,45,127
26337,note_on,0,0,0,,7,,,55,127
26337,note_on,0,0,0,,10,,,81,127
26451,note_off,114,0,0,,10,,,81,127
26452,note_on,1,0,0,,6,,,78,127
26566,note_off,114,0,0,,6,,,78,127
26567,note_on,1,0,0,,3,,,75,127
26681,note_off,114,0,0,,3,,,75,127
26682,note_on,1,0,0,,0,,,72,127
26796,note_off,114,0,0,,0,,,72,127
26796,note_off,0,0,0,,7,,,55,127
26796,note_off,0,0,0,,10,,,45,127
26797,note_on,1,0,0,,10,,,45,127
26797,note_on,0,0,0,,6,,,54,127
26797,note_on,0,0,0,,10,,,69,127
26911,note_off,114,0,0,,10,,,69,127
26912,note_on,1,0,0,,6,,,66,127
27026,note_off,114,0,0,,6,,,66,127
27027,note_on,1,0,0,,2,,,62,127
27141,note_off,114,0,0,,2,,,62,127
27142,note_on,1,0,0,,0,,,72,127
27256,note_off,114,0,0,,0,,,72,127
27256,note_off,0,0,0,,6,,,54,127
27256,note_off,0,0,0,,10,,,45,127
27257,note_on,1,0,0,,7,,,43,127
27257,note_on,0,0,0,,7,,,55,127
27257,note_on,0,0,0,,11,,,70,127
27371,note_off,114,0,0,,11,,,70,127
27372,note_on,1,0,0,,2,,,74,127
27486,note_off,114,0,0,,2,,,74,127
27487,note_on,1,0,0,,11,,,70,127
27601,note_off,114,0,0,,11,,,70,127
27602,note_on,1,0,0,,6,,,66,127
27716,note_off,114,0,0,,6,,,66,127
27716,note_off,0,0,0,,7,,,55,127
27716,note_off,0,0,0,,7,,,43,127
27717,note_on,1,0,0,,11,,,46,127
27717,note_on,0,0,0,,7,,,55,127
27717,note_on,0,0,0,,7,,,67,127
27831,note_off,114,0,0,,7,,,67,127
27832,note_on,1,0,0,,11,,,70,127
27946,note_off,114,0,0,,11,,,70,127
27947,note_on,1,0,0,,7,,,67,127
28061,note_off,114,0,0,,7,,,67,127
28062,note_on,1,0,0,,2,,,62,127
28176,note_off,114,0,0,,2,,,62,127
28176,note_off,0,0,0,,7,,,55,127
28176,note_off,0,0,0,,11,,,46,127
28177,note_on,1,0,0,,0,,,48,127
28177,note_on,0,0,0,,0,,,60,127
28177,note_on,0,0,0,,3,,,63,127
28291,note_off,114,0,0,,3,,,63,127
28292,note_on,1,0,0,,0,,,72,127
28406,note_off,114,0,0,,0,,,72,127
28407,note_on,1,0,0,,2,,,74,127
28521,note_off,114,0,0,,2,,,74,127
28522,note_on,1,0,0,,3,,,75,127
28636,note_off,114,0,0,,3,,,75,127
28636,note_off,0,0,0,,0,,,60,127
28636,note_off,0,0,0,,0,,,48,127
28637,note_on,1,0,0,,2,,,50,127
28637,note_on,0,0,0,,2,,,62,127
28637,note_on,0,0,0,,2,,,74,127
28751,note_off,114,0,0,,2,,,74,127
28752,note_on,1,0,0,,0,,,72,127
28866,note_off,114,0,0,,0,,,72,127
28867,note_on,1,0,0,,11,,,70,127
28981,note_off,114,0,0,,11,,,70,127
28982,note_on,1,0,0,,10,,,69,127
29096,note_off,114,0,0,,10,,,69,127
29096,note_off,0,0,0,,2,,,62,127
29096,note_off,0,0,0,,2,,,50,127
29097,note_on,1,0,0,,7,,,55,127
29097,note_on,0,0,0,,11,,,70,127
29211,note_off,114,0,0,,7,,,55,127
29212,note_on,1,0,0,,7,,,67,127
29326,note_off,114,0,0,,7,,,67,127
29327,note_on,1,0,0,,2,,,62,127
29441,note_off,114,0,0,,2,,,62,127
29442,note_off,1,0,0,,11,,,70,127
29442,note_on,0,0,0,,11,,,58,127
29556,note_off,114,0,0,,11,,,58,127
29557,note_on,1,0,0,,7,,,55,127
29557,note_on,0,0,0,,2,,,74,127
29671,note_off,114,0,0,,7,,,55,127
29672,note_on,1,0,0,,2,,,50,127
29786,note_off,114,0,0,,2,,,50,127
29787,note_on,1,0,0,,11,,,46,127
29901,note_off,114,0,0,,11,,,46,127
29902,note_off,1,0,0,,2,,,74,127
29902,note_on,0,0,0,,7,,,43,127
30016,note_off,114,0,0,,7,,,43,127
30017,note_on,1,0,0,,0,,,48,127
30017,note_on,0,0,0,,3,,,75,127
30131,note_off,114,0,0,,0,,,48,127
30132,note_on,1,0,0,,0,,,60,127
30246,note_off,114,0,0,,0,,,60,127
30246,note_off,0,0,0,,3,,,75,127
30247,note_on,1,0,0,,2,,,62,127
30247,note_on,0,0,0,,7,,,67,127
30361,note_off,114,0,0,,2,,,62,127
30362,note_on,1,0,0,,3,,,63,127
30476,note_off,114,0,0,,3,,,63,127
30477,note_on,1,0,0,,2,,,50,127
30477,note_on,0,0,0,,2,,,62,127
30591,note_off,114,0,0,,2,,,62,127
30591,note_off,0,0,0,,2,,,50,127
30591,note_off,0,0,0,,7,,,67,127
30592,note_on,1,0,0,,0,,,60,127
30592,note_on,0,0,0,,6,,,66,127
30706,note_off,114,0,0,,6,,,66,127
30706,note_off,0,0,0,,0,,,60,127
30707,note_on,1,0,0,,11,,,58,127
30707,note_on,0,0,0,,7,,,67,127
30821,note_off,114,0,0,,7,,,67,127
30821,note_off,0,0,0,,11,,,58,127
30822,note_on,1,0,0,,10,,,57,127
30822,note_on,0,0,0,,10,,,69,127
30936,note_off,114,0,0,,10,,,69,127
30936,note_off,0,0,0,,10,,,57,127
30937,note_on,1,0,0,,7,,,43,127
30937,note_on,0,0,0,,7,,,55,127
30937,note_on,0,0,0,,11,,,70,127
31051,note_off,114,0,0,,11,,,70,127
31052,note_on,1,0,0,,7,,,79,127
31166,note_off,114,0,0,,7,,,79,127
31167,note_on,1,0,0,,2,,,74,127
31281,note_off,114,0,0,,2,,,74,127
31282,note_on,1,0,0,,11,,,70,127
31396,note_off,114,0,0,,11,,,70,127
31396,note_off,0,0,0,,7,,,55,127
31396,note_off,0,0,0,,7,,,43,127
31397,note_on,1,0,0,,11,,,46,127
31397,note_on,0,0,0,,7,,,55,127
31397,note_on,0,0,0,,7,,,67,127
31511,note_off,114,0,0,,7,,,67,127
31512,note_on,1,0,0,,2,,,74,127
31626,note_off,114,0,0,,2,,,74,127
31627,note_on,1,0,0,,7,,,67,127
31741,note_off,114,0,0,,7,,,67,127
31742,note_on,1,0,0,,2,,,62,127
31856,note_off,114,0,0,,2,,,62,127
31856,note_off,0,0,0,,7,,,55,127
31856,note_off,0,0,0,,11,,,46,127
31857,note_on,1,0,0,,0,,,36,127
31857,note_on,0,0,0,,3,,,63,127
31971,note_off,114,0,0,,3,,,63,127
31972,note_on,1,0,0,,3,,,75,127
32086,note_off,114,0,0,,3,,,75,127
32087,note_on,1,0,0,,2,,,74,127
32201,note_off,114,0,0,,2,,,74,127
32202,note_on,1,0,0,,0,,,72,127
32316,note_off,114,0,0,,0,,,72,127
32316,note_off,0,0,0,,0,,,36,127
32317,note_on,1,0,0,,2,,,38,127
32317,note_on,0,0,0,,11,,,70,127
32431,note_off,114,0,0,,11,,,70,127
32432,note_on,1,0,0,,10,,,69,127
32546,note_off,114,0,0,,10,,,69,127
32547,note_on,1,0,0,,7,,,67,127
32661,note_off,114,0,0,,7,,,67,127
32662,note_on,1,0,0,,6,,,66,127
32776,note_off,114,0,0,,6,,,66,127
32776,note_off,0,0,0,,2,,,38,127
32777,note_on,1,0,0,,7,,,43,127
32777,note_on,0,0,0,,7,,,67,127
33467,note_off,690,0,0,,7,,,67,127
33697,note_off,230,0,0,,7,,,43,127
33698,note_on,1,0,0,,7,,,55,127
33813,note_on,115,0,0,,2,,,74,127
33927,note_off,114,0,0,,2,,,74,127
33928,note_on,1,0,0,,5,,,77,127
34042,note_off,114,0,0,,5,,,77,127
34043,note_on,1,0,0,,3,,,75,127
34157,note_off,114,0,0,,3,,,75,127
34157,note_off,0,0,0,,7,,,55,127
34158,note_on,1,0,0,,7,,,55,127
34158,note_on,0,0,0,,7,,,67,127
34273,note_on,115,0,0,,2,,,74,127
34331,note_off,58,0,0,,7,,,67,127
34387,note_off,56,0,0,,2,,,74,127
34388,note_on,1,0,0,,5,,,77,127
34502,note_off,114,0,0,,5,,,77,127
34503,note_on,1,0,0,,3,,,75,127
34617,note_off,114,0,0,,3,,,75,127
34617,note_off,0,0,0,,7,,,55,127
34618,note_on,1,0,0,,8,,,56,127
34618,note_on,0,0,0,,5,,,65,127
34733,note_on,115,0,0,,12,,,71,127
34791,note_off,58,0,0,,5,,,65,127
34847,note_off,56,0,0,,12,,,71,127
34848,note_on,1,0,0,,2,,,74,127
34962,note_off,114,0,0,,2,,,74,127
34963,note_on,1,0,0,,0,,,72,127
35077,note_off,114,0,0,,0,,,72,127
35077,note_off,0,0,0,,8,,,56,127
35078,note_on,1,0,0,,5,,,53,127
35078,note_on,0,0,0,,5,,,65,127
35193,note_on,115,0,0,,12,,,71,127
35251,note_off,58,0,0,,5,,,65,127
35307,note_off,56,0,0,,12,,,71,127
35308,note_on,1,0,0,,2,,,74,127
35422,note_off,114,0,0,,2,,,74,127
35423,note_on,1,0,0,,0,,,72,127
35537,note_off,114,0,0,,0,,,72,127
35537,note_off,0,0,0,,5,,,53,127
35538,note_on,1,0,0,,7,,,55,127
35538,note_on,0,0,0,,0,,,72,127
35594,note_off,56,0,0,,0,,,72,127
35595,note_on,1,0,0,,12,,,71,127
35651,note_off,56,0,0,,12,,,71,127
35651,note_off,0,0,0,,7,,,55,127
35652,note_on,1,0,0,,2,,,62,127
35652,note_on,0,0,0,,0,,,72,127
35708,note_off,56,0,0,,0,,,72,127
35709,note_on,1,0,0,,12,,,71,127
35765,note_off,56,0,0,,2,,,62,127
35766,note_on,1,0,0,,5,,,65,127
35880,note_off,114,0,0,,5,,,65,127
35881,note_on,1,0,0,,3,,,63,127
35995,note_off,114,0,0,,3,,,63,127
35996,note_on,1,0,0,,7,,,55,127
36054,note_off,58,0,0,,12,,,71,127
36110,note_off,56,0,0,,7,,,55,127
36111,note_on,1,0,0,,2,,,62,127
36225,note_off,114,0,0,,2,,,62,127
36226,note_on,1,0,0,,5,,,65,127
36226,note_on,0,0,0,,2,,,74,127
36340,note_off,114,0,0,,5,,,65,127
36341,note_on,1,0,0,,3,,,63,127
36455,note_off,114,0,0,,3,,,63,127
36456,note_on,1,0,0,,8,,,56,127
36570,note_off,114,0,0,,8,,,56,127
36571,note_off,1,0,0,,2,,,74,127
36571,note_on,0,0,0,,0,,,60,127
36685,note_off,114,0,0,,0,,,60,127
36686,note_on,1,0,0,,3,,,63,127
36686,note_on,0,0,0,,0,,,72,127
36800,note_off,114,0,0,,3,,,63,127
36801,note_on,1,0,0,,2,,,62,127
36915,note_off,114,0,0,,2,,,62,127
36916,note_on,1,0,0,,5,,,53,127
37030,note_off,114,0,0,,5,,,53,127
37031,note_off,1,0,0,,0,,,72,127
37031,note_on,0,0,0,,12,,,59,127
37145,note_off,114,0,0,,12,,,59,127
37146,note_on,1,0,0,,2,,,62,127
37146,note_on,0,0,0,,5,,,77,127
37260,note_off,114,0,0,,2,,,62,127
37261,note_on,1,0,0,,0,,,60,127
37375,note_off,114,0,0,,0,,,60,127
37376,note_on,1,0,0,,2,,,62,127
37376,note_on,0,0,0,,12,,,59,127
37376,note_on,0,0,0,,5,,,53,127
37490,note_off,114,0,0,,5,,,77,127
37491,note_on,1,0,0,,7,,,79,127
37605,note_off,114,0,0,,7,,,79,127
37606,note_on,1,0,0,,2,,,74,127
37720,note_off,114,0,0,,2,,,74,127
37721,note_on,1,0,0,,12,,,71,127
37835,note_off,114,0,0,,12,,,71,127
37835,note_off,0,0,0,,5,,,53,127
37835,note_off,0,0,0,,12,,,59,127
37835,note_off,0,0,0,,2,,,62,127
37836,note_on,1,0,0,,7,,,55,127
37836,note_on,0,0,0,,3,,,51,127
37836,note_on,0,0,0,,0,,,60,127
37836,note_on,0,0,0,,0,,,72,127
37950,note_off,114,0,0,,0,,,72,127
37951,note_on,1,0,0,,3,,,75,127
38065,note_off,114,0,0,,3,,,75,127
38066,note_on,1,0,0,,0,,,72,127
38180,note_off,114,0,0,,0,,,72,127
38181,note_on,1,0,0,,7,,,67,127
38295,note_off,114,0,0,,7,,,67,127
38295,note_off,0,0,0,,0,,,60,127
38295,note_off,0,0,0,,3,,,51,127
38295,note_off,0,0,0,,7,,,55,127
38296,note_on,1,0,0,,5,,,53,127
38296,note_on,0,0,0,,2,,,50,127
38296,note_on,0,0,0,,0,,,60,127
38296,note_on,0,0,0,,8,,,68,127
38410,note_off,114,0,0,,8,,,68,127
38411,note_on,1,0,0,,5,,,77,127
38525,note_off,114,0,0,,5,,,77,127
38526,note_on,1,0,0,,8,,,68,127
38640,note_off,114,0,0,,8,,,68,127
38641,note_on,1,0,0,,5,,,65,127
38755,note_off,114,0,0,,5,,,65,127
38755,note_off,0,0,0,,0,,,60,127
38755,note_off,0,0,0,,2,,,50,127
38755,note_off,0,0,0,,5,,,53,127
38756,note_on,1,0,0,,12,,,59,127
38756,note_on,0,0,0,,5,,,53,127
38756,note_on,0,0,0,,2,,,50,127
38756,note_on,0,0,0,,12,,,71,127
38870,note_off,114,0,0,,12,,,71,127
38871,note_on,1,0,0,,2,,,74,127
38985,note_off,114,0,0,,2,,,74,127
38986,note_on,1,0,0,,5,,,65,127
39100,note_off,114,0,0,,5,,,65,127
39101,note_on,1,0,0,,5,,,77,127
39215,note_off,114,0,0,,5,,,77,127
39215,note_off,0,0,0,,2,,,50,127
39215,note_off,0,0,0,,5,,,53,127
39215,note_off,0,0,0,,12,,,59,127
39216,note_on,1,0,0,,0,,,48,127
39216,note_on,0,0,0,,5,,,77,127
39272,note_off,56,0,0,,5,,,77,127
39273,note_on,1,0,0,,4,,,76,127
39329,note_off,56,0,0,,4,,,76,127
39329,note_off,0,0,0,,0,,,48,127
39330,note_on,1,0,0,,7,,,55,127
39330,note_on,0,0,0,,5,,,77,127
39386,note_off,56,0,0,,5,,,77,127
39387,note_on,1,0,0,,4,,,76,127
39443,note_off,56,0,0,,7,,,55,127
39444,note_on,1,0,0,,11,,,58,127
39558,note_off,114,0,0,,11,,,58,127
39559,note_on,1,0,0,,8,,,56,127
39673,note_off,114,0,0,,8,,,56,127
39674,note_on,1,0,0,,0,,,48,127
39732,note_off,58,0,0,,4,,,76,127
39788,note_off,56,0,0,,0,,,48,127
39789,note_on,1,0,0,,7,,,55,127
39903,note_off,114,0,0,,7,,,55,127
39904,note_on,1,0,0,,11,,,58,127
39904,note_on,0,0,0,,4,,,76,127
40018,note_off,114,0,0,,11,,,58,127
40019,note_on,1,0,0,,8,,,56,127
40133,note_off,114,0,0,,8,,,56,127
40134,note_on,1,0,0,,1,,,49,127
40248,note_off,114,0,0,,1,,,49,127
40249,note_off,1,0,0,,4,,,76,127
40249,note_on,0,0,0,,5,,,53,127
40363,note_off,114,0,0,,5,,,53,127
40364,note_on,1,0,0,,8,,,56,127
40364,note_on,0,0,0,,5,,,77,127
40478,note_off,114,0,0,,8,,,56,127
40479,note_on,1,0,0,,7,,,55,127
40593,note_off,114,0,0,,7,,,55,127
40594,note_on,1,0,0,,11,,,46,127
40708,note_off,114,0,0,,11,,,46,127
40709,note_off,1,0,0,,5,,,77,127
40709,note_on,0,0,0,,4,,,52,127
40823,note_off,114,0,0,,4,,,52,127
40824,note_on,1,0,0,,7,,,55,127
40824,note_on,0,0,0,,11,,,82,127
40938,note_off,114,0,0,,7,,,55,127
40939,note_on,1,0,0,,5,,,53,127
41053,note_off,114,0,0,,5,,,53,127
41054,note_on,1,0,0,,0,,,48,127
41168,note_off,114,0,0,,0,,,48,127
41169,note_off,1,0,0,,11,,,82,127
41169,note_on,0,0,0,,7,,,55,127
41283,note_off,114,0,0,,7,,,55,127
41284,note_on,1,0,0,,11,,,58,127
41284,note_on,0,0,0,,7,,,79,127
41398,note_off,114,0,0,,11,,,58,127
41399,note_on,1,0,0,,8,,,56,127
41513,note_off,114,0,0,,8,,,56,127
41514,note_on,1,0,0,,0,,,48,127
41628,note_off,114,0,0,,0,,,48,127
41629,note_off,1,0,0,,7,,,79,127
41629,note_on,0,0,0,,7,,,55,127
41743,note_off,114,0,0,,7,,,55,127
41744,note_on,1,0,0,,11,,,58,127
41744,note_on,0,0,0,,4,,,76,127
41858,note_off,114,0,0,,11,,,58,127
41859,note_on,1,0,0,,8,,,56,127
41973,note_off,114,0,0,,8,,,56,127
41974,note_on,1,0,0,,1,,,49,127
42088,note_off,114,0,0,,1,,,49,127
42089,note_off,1,0,0,,4,,,76,127
42089,note_on,0,0,0,,5,,,53,127
42203,note_off,114,0,0,,5,,,53,127
42204,note_on,1,0,0,,8,,,56,127
42204,note_on,0,0,0,,5,,,77,127
42318,note_off,114,0,0,,8,,,56,127
42319,note_on,1,0,0,,7,,,55,127
42433,note_off,114,0,0,,7,,,55,127
42434,note_on,1,0,0,,11,,,46,127
42548,note_off,114,0,0,,11,,,46,127
42549,note_off,1,0,0,,5,,,77,127
42549,note_on,0,0,0,,4,,,52,127
42663,note_off,114,0,0,,4,,,52,127
42664,note_on,1,0,0,,7,,,55,127
42664,note_on,0,0,0,,11,,,82,127
42778,note_off,114,0,0,,7,,,55,127
42779,note_on,1,0,0,,5,,,53,127
42893,note_off,114,0,0,,5,,,53,127
42894,note_on,1,0,0,,7,,,55,127
42894,note_on,0,0,0,,4,,,52,127
42894,note_on,0,0,0,,11,,,46,127
43008,note_off,114,0,0,,11,,,82,127
43009,note_on,1,0,0,,0,,,84,127
43123,note_off,114,0,0,,0,,,84,127
43124,note_on,1,0,0,,4,,,76,127
43238,note_off,114,0,0,,4,,,76,127
43239,note_on,1,0,0,,7,,,79,127
43353,note_off,114,0,0,,7,,,79,127
43353,note_off,0,0,0,,11,,,46,127
43353,note_off,0,0,0,,4,,,52,127
43353,note_off,0,0,0,,7,,,55,127
43354,note_on,1,0,0,,8,,,44,127
43354,note_on,0,0,0,,5,,,53,127
43354,note_on,0,0,0,,5,,,77,127
43468,note_off,114,0,0,,5,,,77,127
43469,note_on,1,0,0,,8,,,80,127
43583,note_off,114,0,0,,8,,,80,127
43584,note_on,1,0,0,,5,,,77,127
43698,note_off,114,0,0,,5,,,77,127
43699,note_on,1,0,0,,0,,,72,127
43813,note_off,114,0,0,,0,,,72,127
43813,note_off,0,0,0,,5,,,53,127
43813,note_off,0,0,0,,8,,,44,127
43814,note_on,1,0,0,,7,,,43,127
43814,note_on,0,0,0,,7,,,55,127
43814,note_on,0,0,0,,1,,,73,127
43928,note_off,114,0,0,,1,,,73,127
43929,note_on,1,0,0,,11,,,82,127
44043,note_off,114,0,0,,11,,,82,127
44044,note_on,1,0,0,,7,,,79,127
44158,note_off,114,0,0,,7,,,79,127
44159,note_on,1,0,0,,4,,,76,127
44273,note_off,114,0,0,,4,,,76,127
44273,note_off,0,0,0,,7,,,55,127
44273,note_off,0,0,0,,7,,,43,127
44274,note_on,1,0,0,,0,,,48,127
44274,note_on,0,0,0,,11,,,58,127
44274,note_on,0,0,0,,7,,,55,127
44274,note_on,0,0,0,,11,,,70,127
44388,note_off,114,0,0,,11,,,70,127
44389,note_on,1,0,0,,11,,,82,127
44503,note_off,114,0,0,,11,,,82,127
44504,note_on,1,0,0,,11,,,82,127
44504,note_on,0,0,0,,8,,,80,127
44618,note_off,114,0,0,,8,,,80,127
44618,note_off,0,0,0,,11,,,82,127
44619,note_on,1,0,0,,7,,,79,127
44733,note_off,114,0,0,,7,,,79,127
44733,note_off,0,0,0,,7,,,55,127
44733,note_off,0,0,0,,11,,,58,127
44733,note_off,0,0,0,,0,,,48,127
44734,note_on,1,0,0,,0,,,60,127
44734,note_on,0,0,0,,5,,,53,127
44734,note_on,0,0,0,,8,,,80,127
44848,note_off,114,0,0,,8,,,80,127
44849,note_on,1,0,0,,5,,,77,127
44963,note_off,114,0,0,,5,,,77,127
44964,note_on,1,0,0,,0,,,72,127
45078,note_off,114,0,0,,0,,,72,127
45079,note_on,1,0,0,,8,,,68,127
45193,note_off,114,0,0,,8,,,68,127
45193,note_off,0,0,0,,5,,,53,127
45193,note_off,0,0,0,,0,,,60,127
45194,note_on,1,0,0,,5,,,53,127
45194,note_on,0,0,0,,2,,,62,127
45194,note_on,0,0,0,,5,,,65,127
45308,note_off,114,0,0,,5,,,65,127
45309,note_on,1,0,0,,8,,,80,127
45423,note_off,114,0,0,,8,,,80,127
45424,note_on,1,0,0,,8,,,80,127
45424,note_on,0,0,0,,7,,,79,127
45538,note_off,114,0,0,,7,,,79,127
45538,note_off,0,0,0,,8,,,80,127
45539,note_on,1,0,0,,5,,,77,127
45653,note_off,114,0,0,,5,,,77,127
45653,note_off,0,0,0,,2,,,62,127
45653,note_off,0,0,0,,5,,,53,127
45654,note_on,1,0,0,,3,,,51,127
45654,note_on,0,0,0,,0,,,60,127
45654,note_on,0,0,0,,7,,,79,127
45768,note_off,114,0,0,,7,,,79,127
45769,note_on,1,0,0,,3,,,75,127
45883,note_off,114,0,0,,3,,,75,127
45884,note_on,1,0,0,,0,,,72,127
45998,note_off,114,0,0,,0,,,72,127
45999,note_on,1,0,0,,7,,,67,127
46113,note_off,114,0,0,,7,,,67,127
46113,note_off,0,0,0,,0,,,60,127
46113,note_off,0,0,0,,3,,,51,127
46114,note_on,1,0,0,,0,,,60,127
46114,note_on,0,0,0,,3,,,51,127
46114,note_on,0,0,0,,3,,,63,127
46228,note_off,114,0,0,,3,,,63,127
46229,note_on,1,0,0,,7,,,79,127
46343,note_off,114,0,0,,7,,,79,127
46344,note_on,1,0,0,,7,,,79,127
46344,note_on,0,0,0,,5,,,77,127
46458,note_off,114,0,0,,5,,,77,127
46458,note_off,0,0,0,,7,,,79,127
46459,note_on,1,0,0,,3,,,75,127
46573,note_off,114,0,0,,3,,,75,127
46573,note_off,0,0,0,,3,,,51,127
46573,note_off,0,0,0,,0,,,60,127
46574,note_on,1,0,0,,2,,,50,127
46574,note_on,0,0,0,,0,,,60,127
46574,note_on,0,0,0,,5,,,77,127
46688,note_off,114,0,0,,5,,,77,127
46689,note_on,1,0,0,,2,,,74,127
46803,note_off,114,0,0,,2,,,74,127
46804,note_on,1,0,0,,12,,,71,127
46918,note_off,114,0,0,,12,,,71,127
46919,note_on,1,0,0,,5,,,65,127
47033,note_off,114,0,0,,5,,,65,127
47033,note_off,0,0,0,,0,,,60,127
47033,note_off,0,0,0,,2,,,50,127
47034,note_on,1,0,0,,12,,,59,127
47034,note_on,0,0,0,,2,,,50,127
47034,note_on,0,0,0,,2,,,62,127
47148,note_off,114,0,0,,2,,,62,127
47149,note_on,1,0,0,,5,,,77,127
47263,note_off,114,0,0,,5,,,77,127
47264,note_on,1,0,0,,3,,,75,127
47264,note_on,0,0,0,,5,,,77,127
47378,note_off,114,0,0,,5,,,77,127
47378,note_off,0,0,0,,3,,,75,127
47379,note_on,1,0,0,,2,,,74,127
47493,note_off,114,0,0,,2,,,74,127
47493,note_off,0,0,0,,2,,,50,127
47493,note_off,0,0,0,,12,,,59,127
47494,note_on,1,0,0,,0,,,48,127
47494,note_on,0,0,0,,3,,,75,127
47608,note_off,114,0,0,,0,,,48,127
47609,note_on,1,0,0,,5,,,53,127
47723,note_off,114,0,0,,5,,,53,127
47723,note_off,0,0,0,,3,,,75,127
47724,note_on,1,0,0,,8,,,56,127
47724,note_on,0,0,0,,0,,,72,127
47838,note_off,114,0,0,,8,,,56,127
47839,note_on,1,0,0,,7,,,55,127
47953,note_off,114,0,0,,7,,,55,127
47954,note_on,1,0,0,,12,,,47,127
48068,note_off,114,0,0,,12,,,47,127
48069,note_off,1,0,0,,0,,,72,127
48069,note_on,0,0,0,,5,,,53,127
48183,note_off,114,0,0,,5,,,53,127
48184,note_on,1,0,0,,8,,,56,127
48184,note_on,0,0,0,,2,,,74,127
48298,note_off,114,0,0,,8,,,56,127
48299,note_on,1,0,0,,7,,,55,127
48413,note_off,114,0,0,,7,,,55,127
48413,note_off,0,0,0,,2,,,74,127
48414,note_on,1,0,0,,0,,,48,127
48414,note_on,0,0,0,,3,,,75,127
48528,note_off,114,0,0,,0,,,48,127
48529,note_on,1,0,0,,5,,,53,127
48643,note_off,114,0,0,,5,,,53,127
48643,note_off,0,0,0,,3,,,75,127
48644,note_on,1,0,0,,8,,,56,127
48644,note_on,0,0,0,,0,,,72,127
48758,note_off,114,0,0,,8,,,56,127
48759,note_on,1,0,0,,7,,,55,127
48873,note_off,114,0,0,,7,,,55,127
48874,note_on,1,0,0,,12,,,47,127
48988,note_off,114,0,0,,12,,,47,127
48989,note_off,1,0,0,,0,,,72,127
48989,note_on,0,0,0,,5,,,53,127
49103,note_off,114,0,0,,5,,,53,127
49104,note_on,1,0,0,,8,,,56,127
49104,note_on,0,0,0,,2,,,74,127
49218,note_off,114,0,0,,8,,,56,127
49219,note_on,1,0,0,,7,,,55,127
49333,note_off,114,0,0,,7,,,55,127
49334,note_on,1,0,0,,0,,,48,127
49448,note_off,114,0,0,,0,,,48,127
49449,note_off,1,0,0,,2,,,74,127
49449,note_on,0,0,0,,8,,,56,127
49563,note_off,114,0,0,,8,,,56,127
49564,note_on,1,0,0,,0,,,60,127
49564,note_on,0,0,0,,3,,,75,127
49678,note_off,114,0,0,,0,,,60,127
49679,note_on,1,0,0,,12,,,59,127
49793,note_off,114,0,0,,12,,,59,127
49794,note_on,1,0,0,,2,,,50,127
49908,note_off,114,0,0,,2,,,50,127
49909,note_off,1,0,0,,3,,,75,127
49909,note_on,0,0,0,,12,,,59,127
50023,note_off,114,0,0,,12,,,59,127
50024,note_on,1,0,0,,2,,,62,127
50024,note_on,0,0,0,,5,,,77,127
50138,note_off,114,0,0,,2,,,62,127
50139,note_on,1,0,0,,0,,,60,127
50253,note_off,114,0,0,,0,,,60,127
50254,note_on,1,0,0,,3,,,51,127
50368,note_off,114,0,0,,3,,,51,127
50369,note_off,1,0,0,,5,,,77,127
50369,note_on,0,0,0,,0,,,60,127
50483,note_off,114,0,0,,0,,,60,127
50484,note_on,1,0,0,,3,,,63,127
50484,note_on,0,0,0,,7,,,79,127
50598,note_off,114,0,0,,3,,,63,127
50599,note_on,1,0,0,,2,,,62,127
50713,note_off,114,0,0,,2,,,62,127
50714,note_on,1,0,0,,5,,,53,127
50828,note_off,114,0,0,,5,,,53,127
50829,note_off,1,0,0,,7,,,79,127
50829,note_on,0,0,0,,2,,,62,127
50943,note_off,114,0,0,,2,,,62,127
50944,note_on,1,0,0,,5,,,65,127
50944,note_on,0,0,0,,8,,,80,127
51058,note_off,114,0,0,,5,,,65,127
51059,note_on,1,0,0,,3,,,63,127
51173,note_off,114,0,0,,3,,,63,127
51174,note_on,1,0,0,,7,,,55,127
51288,note_off,114,0,0,,7,,,55,127
51289,note_off,1,0,0,,8,,,80,127
51289,note_on,0,0,0,,3,,,63,127
51403,note_off,114,0,0,,3,,,63,127
51404,note_on,1,0,0,,7,,,67,127
51404,note_on,0,0,0,,7,,,79,127
51518,note_off,114,0,0,,7,,,67,127
51519,note_on,1,0,0,,5,,,65,127
51633,note_off,114,0,0,,5,,,65,127
51634,note_on,1,0,0,,8,,,56,127
51748,note_off,114,0,0,,8,,,56,127
51749,note_off,1,0,0,,7,,,79,127
51749,note_on,0,0,0,,5,,,65,127
51863,note_off,114,0,0,,5,,,65,127
51864,note_on,1,0,0,,8,,,68,127
51864,note_on,0,0,0,,5,,,77,127
51978,note_off,114,0,0,,8,,,68,127
51979,note_on,1,0,0,,7,,,67,127
52093,note_off,114,0,0,,7,,,67,127
52094,note_on,1,0,0,,2,,,62,127
52094,note_on,0,0,0,,12,,,59,127
52208,note_off,114,0,0,,5,,,77,127
52209,note_on,1,0,0,,7,,,79,127
52323,note_off,114,0,0,,7,,,79,127
52324,note_on,1,0,0,,2,,,74,127
52438,note_off,114,0,0,,2,,,74,127
52439,note_on,1,0,0,,5,,,77,127
52553,note_off,114,0,0,,5,,,77,127
52553,note_off,0,0,0,,12,,,59,127
52553,note_off,0,0,0,,2,,,62,127
52554,note_on,1,0,0,,3,,,63,127
52554,note_on,0,0,0,,0,,,60,127
52554,note_on,0,0,0,,3,,,75,127
52668,note_off,114,0,0,,3,,,75,127
52669,note_on,1,0,0,,7,,,79,127
52783,note_off,114,0,0,,7,,,79,127
52784,note_on,1,0,0,,0,,,72,127
52898,note_off,114,0,0,,0,,,72,127
52899,note_on,1,0,0,,3,,,75,127
53013,note_off,114,0,0,,3,,,75,127
53013,note_off,0,0,0,,0,,,60,127
53013,note_off,0,0,0,,3,,,63,127
53014,note_on,1,0,0,,5,,,53,127
53014,note_on,0,0,0,,0,,,60,127
53014,note_on,0,0,0,,2,,,74,127
53128,note_off,114,0,0,,2,,,74,127
53129,note_on,1,0,0,,5,,,77,127
53243,note_off,114,0,0,,5,,,77,127
53244,note_on,1,0,0,,7,,,79,127
53358,note_off,114,0,0,,7,,,79,127
53359,note_on,1,0,0,,8,,,80,127
53473,note_off,114,0,0,,8,,,80,127
53473,note_off,0,0,0,,0,,,60,127
53473,note_off,0,0,0,,5,,,53,127
53474,note_on,1,0,0,,12,,,59,127
53474,note_on,0,0,0,,7,,,55,127
53474,note_on,0,0,0,,7,,,79,127
53588,note_off,114,0,0,,7,,,79,127
53589,note_on,1,0,0,,5,,,77,127
53703,note_off,114,0,0,,5,,,77,127
53704,note_on,1,0,0,,3,,,75,127
53818,note_off,114,0,0,,3,,,75,127
53819,note_on,1,0,0,,2,,,74,127
53933,note_off,114,0,0,,2,,,74,127
53933,note_off,0,0,0,,7,,,55,127
53933,note_off,0,0,0,,12,,,59,127
53934,note_on,1,0,0,,0,,,48,127
54048,note_off,114,0,0,,0,,,48,127
54049,note_on,1,0,0,,8,,,56,127
54163,note_off,114,0,0,,8,,,56,127
54164,note_on,1,0,0,,0,,,60,127
54164,note_on,0,0,0,,3,,,75,127
54278,note_off,114,0,0,,0,,,60,127
54279,note_on,1,0,0,,12,,,59,127
54393,note_off,114,0,0,,12,,,59,127
54394,note_on,1,0,0,,2,,,50,127
54508,note_off,114,0,0,,2,,,50,127
54509,note_off,1,0,0,,3,,,75,127
54509,note_on,0,0,0,,12,,,59,127
54623,note_off,114,0,0,,12,,,59,127
54624,note_on,1,0,0,,2,,,62,127
54624,note_on,0,0,0,,5,,,77,127
54738,note_off,114,0,0,,2,,,62,127
54739,note_on,1,0,0,,0,,,60,127
54853,note_off,114,0,0,,0,,,60,127
54854,note_on,1,0,0,,3,,,51,127
54968,note_off,114,0,0,,3,,,51,127
54969,note_off,1,0,0,,5,,,77,127
54969,note_on,0,0,0,,0,,,60,127
55083,note_off,114,0,0,,0,,,60,127
55084,note_on,1,0,0,,3,,,63,127
55084,note_on,0,0,0,,7,,,79,127
55198,note_off,114,0,0,,3,,,63,127
55199,note_on,1,0,0,,2,,,62,127
55313,note_off,114,0,0,,2,,,62,127
55314,note_on,1,0,0,,5,,,53,127
55428,note_off,114,0,0,,5,,,53,127
55429,note_off,1,0,0,,7,,,79,127
55429,note_on,0,0,0,,2,,,62,127
55543,note_off,114,0,0,,2,,,62,127
55544,note_on,1,0,0,,5,,,65,127
55544,note_on,0,0,0,,8,,,80,127
55658,note_off,114,0,0,,5,,,65,127
55659,note_on,1,0,0,,3,,,63,127
55773,note_off,114,0,0,,3,,,63,127
55774,note_on,1,0,0,,7,,,55,127
55888,note_off,114,0,0,,7,,,55,127
55889,note_off,1,0,0,,8,,,80,127
55889,note_on,0,0,0,,3,,,63,127
56003,note_off,114,0,0,,3,,,63,127
56004,note_on,1,0,0,,7,,,67,127
56004,note_on,0,0,0,,7,,,79,127
56118,note_off,114,0,0,,7,,,67,127
56119,note_on,1,0,0,,5,,,65,127
56233,note_off,114,0,0,,5,,,65,127
56234,note_on,1,0,0,,8,,,56,127
56348,note_off,114,0,0,,8,,,56,127
56349,note_off,1,0,0,,7,,,79,127
56349,note_on,0,0,0,,5,,,65,127
56463,note_off,114,0,0,,5,,,65,127
56464,note_on,1,0,0,,8,,,68,127
56464,note_on,0,0,0,,5,,,77,127
56578,note_off,114,0,0,,8,,,68,127
56579,note_on,1,0,0,,7,,,67,127
56693,note_off,114,0,0,,7,,,67,127
56694,note_on,1,0,0,,12,,,59,127
56694,note_on,0,0,0,,2,,,62,127
56808,note_off,114,0,0,,5,,,77,127
56809,note_on,1,0,0,,7,,,79,127
56923,note_off,114,0,0,,7,,,79,127
56924,note_on,1,0,0,,2,,,74,127
57038,note_off,114,0,0,,2,,,74,127
57039,note_on,1,0,0,,5,,,77,127
57153,note_off,114,0,0,,5,,,77,127
57153,note_off,0,0,0,,2,,,62,127
57153,note_off,0,0,0,,12,,,59,127
57154,note_on,1,0,0,,3,,,63,127
57154,note_on,0,0,0,,0,,,60,127
57154,note_on,0,0,0,,3,,,75,127
57268,note_off,114,0,0,,3,,,75,127
57269,note_on,1,0,0,,7,,,79,127
57383,note_off,114,0,0,,7,,,79,127
57384,note_on,1,0,0,,0,,,72,127
57498,note_off,114,0,0,,0,,,72,127
57499,note_on,1,0,0,,3,,,75,127
57613,note_off,114,0,0,,3,,,75,127
57613,note_off,0,0,0,,0,,,60,127
57613,note_off,0,0,0,,3,,,63,127
57614,note_on,1,0,0,,5,,,53,127
57614,note_on,0,0,0,,0,,,60,127
57614,note_on,0,0,0,,2,,,74,127
57728,note_off,114,0,0,,2,,,74,127
57729,note_on,1,0,0,,5,,,77,127
57843,note_off,114,0,0,,5,,,77,127
57844,note_on,1,0,0,,7,,,79,127
57958,note_off,114,0,0,,7,,,79,127
57959,note_on,1,0,0,,8,,,80,127
58073,note_off,114,0,0,,8,,,80,127
58073,note_off,0,0,0,,0,,,60,127
58073,note_off,0,0,0,,5,,,53,127
58074,note_on,1,0,0,,12,,,59,127
58074,note_on,0,0,0,,7,,,55,127
58074,note_on,0,0,0,,7,,,79,127
58188,note_off,114,0,0,,7,,,79,127
58189,note_on,1,0,0,,5,,,77,127
58303,note_off,114,0,0,,5,,,77,127
58304,note_on,1,0,0,,3,,,75,127
58418,note_off,114,0,0,,3,,,75,127
58419,note_on,1,0,0,,2,,,74,127
58533,note_off,114,0,0,,2,,,74,127
58533,note_off,0,0,0,,7,,,55,127
58533,note_off,0,0,0,,12,,,59,127
58534,note_on,1,0,0,,0,,,72,127
58534,note_on,0,0,0,,3,,,75,127
58648,note_off,114,0,0,,0,,,72,127
58649,note_on,1,0,0,,7,,,67,127
58763,note_off,114,0,0,,7,,,67,127
58764,note_on,1,0,0,,3,,,63,127
58878,note_off,114,0,0,,3,,,63,127
58879,note_on,1,0,0,,0,,,60,127
58989,note_off,110,0,0,,3,,,75,127
58993,note_off,4,0,0,,0,,,60,127
58994,note_on,1,0,0,,7,,,55,127
59108,note_off,114,0,0,,7,,,55,127
59109,note_on,1,0,0,,3,,,51,127
59223,note_off,114,0,0,,3,,,51,127
59224,note_on,1,0,0,,0,,,48,127
59224,note_on,0,0,0,,7,,,79,127
59338,note_off,114,0,0,,0,,,48,127
59339,note_on,1,0,0,,0,,,60,127
59453,note_off,114,0,0,,0,,,60,127
59453,note_off,0,0,0,,7,,,79,127
59454,note_on,1,0,0,,5,,,53,127
59454,note_on,0,0,0,,8,,,80,127
59568,note_off,114,0,0,,5,,,53,127
59569,note_on,1,0,0,,5,,,65,127
59683,note_off,114,0,0,,5,,,65,127
59683,note_off,0,0,0,,8,,,80,127
59684,note_on,1,0,0,,7,,,67,127
59684,note_on,0,0,0,,0,,,72,127
59798,note_off,114,0,0,,7,,,67,127
59799,note_on,1,0,0,,8,,,68,127
59913,note_off,114,0,0,,8,,,68,127
59914,note_on,1,0,0,,7,,,55,127
59914,note_on,0,0,0,,7,,,67,127
60028,note_off,114,0,0,,7,,,67,127
60028,note_off,0,0,0,,0,,,72,127
60029,note_on,1,0,0,,5,,,65,127
60029,note_on,0,0,0,,12,,,71,127
60143,note_off,114,0,0,,12,,,71,127
60143,note_off,0,0,0,,5,,,65,127
60144,note_on,1,0,0,,3,,,63,127
60144,note_on,0,0,0,,0,,,72,127
60258,note_off,114,0,0,,0,,,72,127
60258,note_off,0,0,0,,3,,,63,127
60259,note_on,1,0,0,,2,,,62,127
60259,note_on,0,0,0,,2,,,74,127
60369,note_off,110,0,0,,7,,,55,127
60373,note_off,4,0,0,,2,,,74,127
60373,note_off,0,0,0,,2,,,62,127
60374,note_on,1,0,0,,0,,,60,127
60374,note_on,0,0,0,,3,,,75,127
60488,note_off,114,0,0,,3,,,75,127
60489,note_on,1,0,0,,0,,,84,127
60603,note_off,114,0,0,,0,,,84,127
60604,note_on,1,0,0,,7,,,79,127
60718,note_off,114,0,0,,7,,,79,127
60719,note_on,1,0,0,,3,,,75,127
60833,note_off,114,0,0,,3,,,75,127
60833,note_off,0,0,0,,0,,,60,127
60834,note_on,1,0,0,,0,,,60,127
60834,note_on,0,0,0,,3,,,51,127
60834,note_on,0,0,0,,0,,,72,127
60948,note_off,114,0,0,,0,,,72,127
60949,note_on,1,0,0,,7,,,79,127
61063,note_off,114,0,0,,7,,,79,127
61064,note_on,1,0,0,,0,,,72,127
61178,note_off,114,0,0,,0,,,72,127
61179,note_on,1,0,0,,7,,,67,127
61293,note_off,114,0,0,,7,,,67,127
61293,note_off,0,0,0,,3,,,51,127
61293,note_off,0,0,0,,0,,,60,127
61294,note_on,1,0,0,,5,,,41,127
61294,note_on,0,0,0,,5,,,53,127
61294,note_on,0,0,0,,8,,,68,127
61408,note_off,114,0,0,,8,,,68,127
61409,note_on,1,0,0,,8,,,80,127
61523,note_off,114,0,0,,8,,,80,127
61524,note_on,1,0,0,,7,,,79,127
61638,note_off,114,0,0,,7,,,79,127
61639,note_on,1,0,0,,5,,,77,127
61753,note_off,114,0,0,,5,,,77,127
61753,note_off,0,0,0,,5,,,53,127
61753,note_off,0,0,0,,5,,,41,127
61754,note_on,1,0,0,,7,,,55,127
61754,note_on,0,0,0,,7,,,43,127
61754,note_on,0,0,0,,3,,,75,127
61868,note_off,114,0,0,,3,,,75,127
61869,note_on,1,0,0,,2,,,74,127
61983,note_off,114,0,0,,2,,,74,127
61984,note_on,1,0,0,,0,,,72,127
62098,note_off,114,0,0,,0,,,72,127
62099,note_on,1,0,0,,12,,,71,127
62213,note_off,114,0,0,,7,,,43,127
62213,note_off,0,0,0,,7,,,55,127
62218,note_off,5,0,0,,12,,,71,127
62226,note_on,8,0,0,,0,,,48,127
62226,note_on,0,0,0,,0,,,36,127
62226,note_on,0,0,0,,0,,,72,127
64172,note_off,1946,0,0,,0,,,72,127
64172,note_off,0,0,0,,0,,,36,127
64172,note_off,0,0,0,,0,,,48,127
64512,end_of_track,340,1,0,,,,,,
