tick,type,time,meta,track,program,channel,pitch,tempo,note,velocity
0,copyright,0,1,0,,,,,,
0,program_change,0,0,0,6,0,,,,
0,pitchwheel,0,0,0,,0,0,,,
0,program_change,0,0,0,6,1,,,,
0,pitchwheel,0,0,0,,1,-590,,,
0,program_change,0,0,0,6,2,,,,
0,pitchwheel,0,0,0,,2,-272,,,
0,program_change,0,0,0,6,3,,,,
0,pitchwheel,0,0,0,,3,-353,,,
0,program_change,0,0,0,6,4,,,,
0,pitchwheel,0,0,0,,4,-560,,,
0,program_change,0,0,0,6,5,,,,
0,pitchwheel,0,0,0,,5,-80,,,
0,program_change,0,0,0,6,6,,,,
0,pitchwheel,0,0,0,,6,-625,,,
0,program_change,0,0,0,6,7,,,,
0,pitchwheel,0,0,0,,7,-130,,,
0,program_change,0,0,0,6,8,,,,
0,pitchwheel,0,0,0,,8,-512,,,
0,program_change,0,0,0,6,10,,,,
0,pitchwheel,0,0,0,,10,-464,,,
0,program_change,0,0,0,6,11,,,,
0,pitchwheel,0,0,0,,11,-208,,,
0,program_change,0,0,0,6,12,,,,
0,pitchwheel,0,0,0,,12,-553,,,
0,set_tempo,0,1,0,,,,500000,,
105,note_on,105,0,0,,3,,,63,127
105,note_on,0,0,0,,7,,,79,127
310,note_off,205,0,0,,3,,,63,127
314,note_on,4,0,0,,0,,,60,127
519,note_off,205,0,0,,0,,,60,127
523,note_on,4,0,0,,0,,,48,127
728,note_off,205,0,0,,0,,,48,127
728,note_off,0,0,0,,7,,,79,127
732,note_on,4,0,0,,0,,,60,127
732,note_on,0,0,0,,3,,,75,127
937,note_off,205,0,0,,0,,,60,127
941,note_on,4,0,0,,8,,,56,127
1146,note_off,205,0,0,,8,,,56,127
1150,note_on,4,0,0,,8,,,44,127
1355,note_off,205,0,0,,8,,,44,127
1355,note_off,0,0,0,,3,,,75,127
1359,note_on,4,0,0,,8,,,56,127
1359,note_on,0,0,0,,0,,,72,127
1564,note_off,205,0,0,,8,,,56,127
1568,note_on,4,0,0,,5,,,53,127
1773,note_off,205,0,0,,5,,,53,127
1777,note_on,4,0,0,,5,,,41,127
1982,note_off,205,0,0,,5,,,41,127
1982,note_off,0,0,0,,0,,,72,127
1986,note_on,4,0,0,,5,,,53,127
1986,note_on,0,0,0,,8,,,80,127
2086,note_off,100,0,0,,8,,,80,127
2090,note_on,4,0,0,,0,,,72,127
2190,note_off,100,0,0,,0,,,72,127
2190,note_off,0,0,0,,5,,,53,127
2194,note_on,4,0,0,,2,,,50,127
2194,note_on,0,0,0,,12,,,71,127
2294,note_off,100,0,0,,12,,,71,127
2298,note_on,4,0,0,,5,,,77,127
2398,note_off,100,0,0,,5,,,77,127
2398,note_off,0,0,0,,2,,,50,127
2402,note_on,4,0,0,,3,,,51,127
2402,note_on,0,0,0,,7,,,67,127
2502,note_off,100,0,0,,7,,,67,127
2506,note_on,4,0,0,,3,,,75,127
2606,note_off,100,0,0,,3,,,75,127
2606,note_off,0,0,0,,3,,,51,127
2610,note_on,4,0,0,,12,,,47,127
2610,note_on,0,0,0,,5,,,65,127
2710,note_off,100,0,0,,5,,,65,127
2714,note_on,4,0,0,,2,,,74,127
2814,note_off,100,0,0,,2,,,74,127
2814,note_off,0,0,0,,12,,,47,127
2818,note_on,4,0,0,,0,,,48,127
2818,note_on,0,0,0,,3,,,63,127
2918,note_off,100,0,0,,3,,,63,127
2922,note_on,4,0,0,,0,,,72,127
3022,note_off,100,0,0,,0,,,72,127
3022,note_off,0,0,0,,0,,,48,127
3026,note_on,4,0,0,,7,,,43,127
3026,note_on,0,0,0,,2,,,62,127
3126,note_off,100,0,0,,2,,,62,127
3130,note_on,4,0,0,,12,,,71,127
3230,note_off,100,0,0,,12,,,71,127
3230,note_off,0,0,0,,7,,,43,127
3234,note_on,4,0,0,,0,,,36,127
3234,note_on,0,0,0,,0,,,72,127
3334,note_off,100,0,0,,0,,,72,127
3338,note_on,4,0,0,,7,,,67,127
3438,note_off,100,0,0,,7,,,67,127
3442,note_on,4,0,0,,3,,,63,127
3542,note_off,100,0,0,,3,,,63,127
3546,note_on,4,0,0,,0,,,60,127
3646,note_off,100,0,0,,0,,,60,127
3650,note_on,4,0,0,,3,,,63,127
3750,note_off,100,0,0,,3,,,63,127
3754,note_on,4,0,0,,7,,,67,127
3854,note_off,100,0,0,,7,,,67,127
3854,note_off,0,0,0,,0,,,36,127
3858,note_on,4,0,0,,3,,,63,127
3858,note_on,0,0,0,,7,,,79,127
4063,note_off,205,0,0,,3,,,63,127
4067,note_on,4,0,0,,0,,,60,127
4272,note_off,205,0,0,,0,,,60,127
4276,note_on,4,0,0,,0,,,48,127
4481,note_off,205,0,0,,0,,,48,127
4481,note_off,0,0,0,,7,,,79,127
4485,note_on,4,0,0,,0,,,60,127
4485,note_on,0,0,0,,3,,,75,127
4690,note_off,205,0,0,,0,,,60,127
4694,note_on,4,0,0,,8,,,56,127
4899,note_off,205,0,0,,8,,,56,127
4903,note_on,4,0,0,,8,,,44,127
5108,note_off,205,0,0,,8,,,44,127
5108,note_off,0,0,0,,3,,,75,127
5112,note_on,4,0,0,,8,,,56,127
5112,note_on,0,0,0,,0,,,72,127
5317,note_off,205,0,0,,8,,,56,127
5321,note_on,4,0,0,,5,,,53,127
5526,note_off,205,0,0,,5,,,53,127
5530,note_on,4,0,0,,5,,,41,127
5735,note_off,205,0,0,,5,,,41,127
5735,note_off,0,0,0,,0,,,72,127
5739,note_on,4,0,0,,5,,,53,127
5739,note_on,0,0,0,,8,,,80,127
5839,note_off,100,0,0,,8,,,80,127
5843,note_on,4,0,0,,0,,,72,127
5943,note_off,100,0,0,,0,,,72,127
5943,note_off,0,0,0,,5,,,53,127
5947,note_on,4,0,0,,2,,,50,127
5947,note_on,0,0,0,,11,,,70,127
6047,note_off,100,0,0,,11,,,70,127
6051,note_on,4,0,0,,8,,,80,127
6151,note_off,100,0,0,,8,,,80,127
6151,note_off,0,0,0,,2,,,50,127
6155,note_on,4,0,0,,3,,,51,127
6155,note_on,0,0,0,,7,,,79,127
6255,note_off,100,0,0,,7,,,79,127
6259,note_on,4,0,0,,11,,,70,127
6359,note_off,100,0,0,,11,,,70,127
6359,note_off,0,0,0,,3,,,51,127
6363,note_on,4,0,0,,8,,,56,127
6363,note_on,0,0,0,,8,,,68,127
6463,note_off,100,0,0,,8,,,68,127
6467,note_on,4,0,0,,5,,,77,127
6567,note_off,100,0,0,,5,,,77,127
6567,note_off,0,0,0,,8,,,56,127
6571,note_on,4,0,0,,11,,,58,127
6571,note_on,0,0,0,,7,,,67,127
6671,note_off,100,0,0,,7,,,67,127
6675,note_on,4,0,0,,3,,,75,127
6775,note_off,100,0,0,,3,,,75,127
6775,note_off,0,0,0,,11,,,58,127
6779,note_on,4,0,0,,11,,,46,127
6779,note_on,0,0,0,,5,,,65,127
6879,note_off,100,0,0,,5,,,65,127
6883,note_on,4,0,0,,2,,,74,127
6983,note_off,100,0,0,,2,,,74,127
6983,note_off,0,0,0,,11,,,46,127
6987,note_on,4,0,0,,3,,,39,127
6987,note_on,0,0,0,,3,,,75,127
7087,note_off,100,0,0,,3,,,75,127
7091,note_on,4,0,0,,11,,,70,127
7191,note_off,100,0,0,,11,,,70,127
7195,note_on,4,0,0,,7,,,67,127
7295,note_off,100,0,0,,7,,,67,127
7299,note_on,4,0,0,,3,,,63,127
7399,note_off,100,0,0,,3,,,63,127
7399,note_off,0,0,0,,3,,,39,127
7403,note_on,4,0,0,,11,,,70,127
7503,note_off,100,0,0,,11,,,70,127
7507,note_on,4,0,0,,3,,,75,127
7607,note_off,100,0,0,,3,,,75,127
7611,note_on,4,0,0,,3,,,63,127
7611,note_on,0,0,0,,11,,,70,127
7711,note_off,100,0,0,,3,,,63,127
7715,note_on,4,0,0,,7,,,67,127
7815,note_off,100,0,0,,7,,,67,127
7819,note_on,4,0,0,,2,,,62,127
7919,note_off,100,0,0,,2,,,62,127
7923,note_on,4,0,0,,5,,,65,127
8023,note_off,100,0,0,,5,,,65,127
8023,note_off,0,0,0,,11,,,70,127
8027,note_on,4,0,0,,11,,,58,127
8027,note_on,0,0,0,,11,,,70,127
8127,note_off,100,0,0,,11,,,58,127
8131,note_on,4,0,0,,2,,,62,127
8231,note_off,100,0,0,,2,,,62,127
8235,note_on,4,0,0,,3,,,63,127
8335,note_off,100,0,0,,3,,,63,127
8339,note_on,4,0,0,,7,,,67,127
8439,note_off,100,0,0,,7,,,67,127
8439,note_off,0,0,0,,11,,,70,127
8443,note_on,4,0,0,,2,,,62,127
8443,note_on,0,0,0,,11,,,70,127
8543,note_off,100,0,0,,2,,,62,127
8547,note_on,4,0,0,,5,,,65,127
8647,note_off,100,0,0,,5,,,65,127
8651,note_on,4,0,0,,11,,,58,127
8751,note_off,100,0,0,,11,,,58,127
8755,note_on,4,0,0,,2,,,62,127
8855,note_off,100,0,0,,2,,,62,127
8859,note_on,4,0,0,,3,,,63,127
8959,note_off,100,0,0,,3,,,63,127
8963,note_on,4,0,0,,7,,,67,127
9063,note_off,100,0,0,,7,,,67,127
9063,note_off,0,0,0,,11,,,70,127
9067,note_on,4,0,0,,2,,,62,127
9067,note_on,0,0,0,,11,,,70,127
9167,note_off,100,0,0,,2,,,62,127
9171,note_on,4,0,0,,5,,,65,127
9271,note_off,100,0,0,,5,,,65,127
9275,note_on,4,0,0,,11,,,58,127
9375,note_off,100,0,0,,11,,,58,127
9379,note_on,4,0,0,,2,,,62,127
9479,note_off,100,0,0,,2,,,62,127
9479,note_off,0,0,0,,11,,,70,127
9483,note_on,4,0,0,,5,,,65,127
9583,note_off,100,0,0,,5,,,65,127
9587,note_on,4,0,0,,7,,,67,127
9687,note_off,100,0,0,,7,,,67,127
9691,note_on,4,0,0,,4,,,64,127
9691,note_on,0,0,0,,0,,,72,127
9791,note_off,100,0,0,,4,,,64,127
9795,note_on,4,0,0,,7,,,67,127
9895,note_off,100,0,0,,7,,,67,127
9899,note_on,4,0,0,,0,,,60,127
9999,note_off,100,0,0,,0,,,60,127
10003,note_on,4,0,0,,7,,,67,127
10103,note_off,100,0,0,,7,,,67,127
10107,note_on,4,0,0,,5,,,65,127
10207,note_off,100,0,0,,5,,,65,127
10211,note_on,4,0,0,,8,,,68,127
10311,note_off,100,0,0,,8,,,68,127
10311,note_off,0,0,0,,0,,,72,127
10315,note_on,4,0,0,,4,,,64,127
10315,note_on,0,0,0,,0,,,72,127
10415,note_off,100,0,0,,4,,,64,127
10419,note_on,4,0,0,,7,,,67,127
10519,note_off,100,0,0,,7,,,67,127
10523,note_on,4,0,0,,0,,,60,127
10623,note_off,100,0,0,,0,,,60,127
10627,note_on,4,0,0,,7,,,67,127
10727,note_off,100,0,0,,7,,,67,127
10731,note_on,4,0,0,,5,,,65,127
10831,note_off,100,0,0,,5,,,65,127
10835,note_on,4,0,0,,8,,,68,127
10935,note_off,100,0,0,,8,,,68,127
10935,note_off,0,0,0,,0,,,72,127
10939,note_on,4,0,0,,4,,,64,127
10939,note_on,0,0,0,,0,,,72,127
11039,note_off,100,0,0,,4,,,64,127
11043,note_on,4,0,0,,7,,,67,127
11143,note_off,100,0,0,,7,,,67,127
11147,note_on,4,0,0,,0,,,60,127
11247,note_off,100,0,0,,0,,,60,127
11251,note_on,4,0,0,,7,,,67,127
11351,note_off,100,0,0,,7,,,67,127
11351,note_off,0,0,0,,0,,,72,127
11355,note_on,4,0,0,,5,,,65,127
11455,note_off,100,0,0,,5,,,65,127
11459,note_on,4,0,0,,7,,,67,127
11559,note_off,100,0,0,,7,,,67,127
11563,note_on,4,0,0,,6,,,66,127
11563,note_on,0,0,0,,2,,,74,127
11663,note_off,100,0,0,,6,,,66,127
11667,note_on,4,0,0,,10,,,69,127
11767,note_off,100,0,0,,10,,,69,127
11771,note_on,4,0,0,,2,,,62,127
11871,note_off,100,0,0,,2,,,62,127
11875,note_on,4,0,0,,10,,,69,127
11975,note_off,100,0,0,,10,,,69,127
11979,note_on,4,0,0,,7,,,67,127
12079,note_off,100,0,0,,7,,,67,127
12083,note_on,4,0,0,,11,,,70,127
12183,note_off,100,0,0,,11,,,70,127
12183,note_off,0,0,0,,2,,,74,127
12187,note_on,4,0,0,,6,,,66,127
12187,note_on,0,0,0,,2,,,74,127
12287,note_off,100,0,0,,6,,,66,127
12291,note_on,4,0,0,,10,,,69,127
12391,note_off,100,0,0,,10,,,69,127
12395,note_on,4,0,0,,2,,,62,127
12495,note_off,100,0,0,,2,,,62,127
12499,note_on,4,0,0,,10,,,69,127
12599,note_off,100,0,0,,10,,,69,127
12603,note_on,4,0,0,,7,,,67,127
12703,note_off,100,0,0,,7,,,67,127
12707,note_on,4,0,0,,11,,,70,127
12807,note_off,100,0,0,,11,,,70,127
12807,note_off,0,0,0,,2,,,74,127
12811,note_on,4,0,0,,3,,,63,127
12811,note_on,0,0,0,,7,,,79,127
12911,note_off,100,0,0,,3,,,63,127
12915,note_on,4,0,0,,7,,,67,127
13015,note_off,100,0,0,,7,,,67,127
13015,note_off,0,0,0,,7,,,79,127
13019,note_on,4,0,0,,0,,,60,127
13019,note_on,0,0,0,,3,,,75,127
13119,note_off,100,0,0,,0,,,60,127
13123,note_on,4,0,0,,3,,,63,127
13223,note_off,100,0,0,,3,,,63,127
13227,note_on,4,0,0,,10,,,57,127
13327,note_off,100,0,0,,10,,,57,127
13331,note_on,4,0,0,,0,,,60,127
13431,note_off,100,0,0,,0,,,60,127
13431,note_off,0,0,0,,3,,,75,127
13435,note_on,4,0,0,,6,,,54,127
13435,note_on,0,0,0,,0,,,72,127
13535,note_off,100,0,0,,6,,,54,127
13539,note_on,4,0,0,,10,,,57,127
13639,note_off,100,0,0,,10,,,57,127
13639,note_off,0,0,0,,0,,,72,127
13643,note_on,4,0,0,,2,,,50,127
13643,note_on,0,0,0,,2,,,74,127
13743,note_off,100,0,0,,2,,,50,127
13747,note_on,4,0,0,,2,,,62,127
13847,note_off,100,0,0,,2,,,62,127
13851,note_on,4,0,0,,7,,,55,127
13951,note_off,100,0,0,,7,,,55,127
13955,note_off,4,0,0,,2,,,74,127
13955,note_on,0,0,0,,11,,,58,127
14055,note_off,100,0,0,,11,,,58,127
14059,note_on,4,0,0,,3,,,51,127
14059,note_on,0,0,0,,7,,,79,127
14159,note_off,100,0,0,,3,,,51,127
14163,note_on,4,0,0,,7,,,55,127
14263,note_off,100,0,0,,7,,,55,127
14263,note_off,0,0,0,,7,,,79,127
14267,note_on,4,0,0,,0,,,48,127
14267,note_on,0,0,0,,3,,,75,127
14367,note_off,100,0,0,,0,,,48,127
14371,note_on,4,0,0,,3,,,51,127
14471,note_off,100,0,0,,3,,,51,127
14475,note_on,4,0,0,,10,,,45,127
14575,note_off,100,0,0,,10,,,45,127
14579,note_on,4,0,0,,0,,,48,127
14679,note_off,100,0,0,,0,,,48,127
14679,note_off,0,0,0,,3,,,75,127
14683,note_on,4,0,0,,6,,,42,127
14683,note_on,0,0,0,,2,,,74,127
14783,note_off,100,0,0,,6,,,42,127
14787,note_on,4,0,0,,10,,,45,127
14887,note_off,100,0,0,,10,,,45,127
14887,note_off,0,0,0,,2,,,74,127
14891,note_on,4,0,0,,2,,,38,127
14891,note_on,0,0,0,,0,,,72,127
14991,note_off,100,0,0,,2,,,38,127
14995,note_on,4,0,0,,2,,,50,127
15095,note_off,100,0,0,,2,,,50,127
15095,note_off,0,0,0,,0,,,72,127
15099,note_on,4,0,0,,7,,,43,127
15099,note_on,0,0,0,,11,,,70,127
15199,note_off,100,0,0,,7,,,43,127
15203,note_on,4,0,0,,11,,,46,127
15303,note_off,100,0,0,,11,,,46,127
15303,note_off,0,0,0,,11,,,70,127
15307,note_on,4,0,0,,10,,,45,127
15307,note_on,0,0,0,,0,,,72,127
15407,note_off,100,0,0,,10,,,45,127
15411,note_on,4,0,0,,0,,,48,127
15511,note_off,100,0,0,,0,,,48,127
15511,note_off,0,0,0,,0,,,72,127
15515,note_on,4,0,0,,11,,,46,127
15515,note_on,0,0,0,,2,,,74,127
15615,note_off,100,0,0,,11,,,46,127
15619,note_on,4,0,0,,2,,,50,127
15719,note_off,100,0,0,,2,,,50,127
15719,note_off,0,0,0,,2,,,74,127
15723,note_on,4,0,0,,0,,,48,127
15723,note_on,0,0,0,,3,,,75,127
15823,note_off,100,0,0,,0,,,48,127
15827,note_on,4,0,0,,3,,,51,127
15927,note_off,100,0,0,,3,,,51,127
15927,note_off,0,0,0,,3,,,75,127
15931,note_on,4,0,0,,2,,,50,127
15931,note_on,0,0,0,,2,,,74,127
16031,note_off,100,0,0,,2,,,50,127
16035,note_on,4,0,0,,6,,,54,127
16135,note_off,100,0,0,,6,,,54,127
16135,note_off,0,0,0,,2,,,74,127
16139,note_on,4,0,0,,4,,,52,127
16139,note_on,0,0,0,,0,,,72,127
16239,note_off,100,0,0,,4,,,52,127
16243,note_on,4,0,0,,7,,,55,127
16343,note_off,100,0,0,,7,,,55,127
16343,note_off,0,0,0,,0,,,72,127
16347,note_on,4,0,0,,2,,,50,127
16347,note_on,0,0,0,,2,,,74,127
16447,note_off,100,0,0,,2,,,50,127
16451,note_on,4,0,0,,2,,,62,127
16551,note_off,100,0,0,,2,,,62,127
16555,note_on,4,0,0,,6,,,54,127
16655,note_off,100,0,0,,6,,,54,127
16659,note_off,4,0,0,,2,,,74,127
16659,note_on,0,0,0,,10,,,57,127
16759,note_off,100,0,0,,10,,,57,127
16763,note_on,4,0,0,,2,,,50,127
16763,note_on,0,0,0,,10,,,69,127
16863,note_off,100,0,0,,2,,,50,127
16867,note_on,4,0,0,,0,,,60,127
16967,note_off,100,0,0,,0,,,60,127
16967,note_off,0,0,0,,10,,,69,127
16971,note_on,4,0,0,,7,,,55,127
16971,note_on,0,0,0,,11,,,70,127
17071,note_off,100,0,0,,7,,,55,127
17075,note_on,4,0,0,,2,,,62,127
17175,note_off,100,0,0,,2,,,62,127
17175,note_off,0,0,0,,11,,,70,127
17179,note_on,4,0,0,,6,,,54,127
17179,note_on,0,0,0,,0,,,72,127
17279,note_off,100,0,0,,6,,,54,127
17283,note_on,4,0,0,,10,,,57,127
17383,note_off,100,0,0,,10,,,57,127
17383,note_off,0,0,0,,0,,,72,127
17387,note_on,4,0,0,,2,,,50,127
17387,note_on,0,0,0,,2,,,74,127
17487,note_off,100,0,0,,2,,,50,127
17491,note_on,4,0,0,,0,,,60,127
17591,note_off,100,0,0,,0,,,60,127
17591,note_off,0,0,0,,2,,,74,127
17595,note_on,4,0,0,,7,,,55,127
17595,note_on,0,0,0,,0,,,72,127
17695,note_off,100,0,0,,0,,,72,127
17695,note_off,0,0,0,,7,,,55,127
17699,note_on,4,0,0,,2,,,62,127
17699,note_on,0,0,0,,11,,,70,127
17799,note_off,100,0,0,,11,,,70,127
17799,note_off,0,0,0,,2,,,62,127
17803,note_on,4,0,0,,6,,,54,127
17803,note_on,0,0,0,,10,,,69,127
17903,note_off,100,0,0,,6,,,54,127
17907,note_on,4,0,0,,10,,,57,127
18007,note_off,100,0,0,,10,,,57,127
18011,note_on,4,0,0,,2,,,50,127
18111,note_off,100,0,0,,2,,,50,127
18115,note_off,4,0,0,,10,,,69,127
18115,note_on,0,0,0,,0,,,60,127
18215,note_off,100,0,0,,0,,,60,127
18219,note_on,4,0,0,,7,,,55,127
18219,note_on,0,0,0,,11,,,70,127
18319,note_off,100,0,0,,7,,,55,127
18323,note_on,4,0,0,,11,,,58,127
18423,note_off,100,0,0,,11,,,58,127
18423,note_off,0,0,0,,11,,,70,127
18427,note_on,4,0,0,,10,,,57,127
18427,note_on,0,0,0,,0,,,72,127
18527,note_off,100,0,0,,10,,,57,127
18531,note_on,4,0,0,,0,,,60,127
18631,note_off,100,0,0,,0,,,60,127
18631,note_off,0,0,0,,0,,,72,127
18635,note_on,4,0,0,,6,,,54,127
18635,note_on,0,0,0,,2,,,74,127
18735,note_off,100,0,0,,6,,,54,127
18739,note_on,4,0,0,,2,,,62,127
18839,note_off,100,0,0,,2,,,62,127
18839,note_off,0,0,0,,2,,,74,127
18843,note_on,4,0,0,,7,,,55,127
18843,note_on,0,0,0,,11,,,70,127
18943,note_off,100,0,0,,7,,,55,127
18947,note_on,4,0,0,,11,,,58,127
19047,note_off,100,0,0,,11,,,58,127
19047,note_off,0,0,0,,11,,,70,127
19051,note_on,4,0,0,,3,,,51,127
19051,note_on,0,0,0,,3,,,75,127
19151,note_off,100,0,0,,3,,,51,127
19155,note_on,4,0,0,,0,,,60,127
19255,note_off,100,0,0,,0,,,60,127
19255,note_off,0,0,0,,3,,,75,127
19259,note_on,4,0,0,,5,,,53,127
19259,note_on,0,0,0,,10,,,69,127
19359,note_off,100,0,0,,5,,,53,127
19363,note_on,4,0,0,,10,,,57,127
19463,note_off,100,0,0,,10,,,57,127
19463,note_off,0,0,0,,10,,,69,127
19467,note_on,4,0,0,,2,,,50,127
19467,note_on,0,0,0,,2,,,74,127
19567,note_off,100,0,0,,2,,,50,127
19571,note_on,4,0,0,,11,,,58,127
19671,note_off,100,0,0,,11,,,58,127
19671,note_off,0,0,0,,2,,,74,127
19675,note_on,4,0,0,,3,,,51,127
19675,note_on,0,0,0,,7,,,67,127
19775,note_off,100,0,0,,3,,,51,127
19779,note_on,4,0,0,,7,,,55,127
19879,note_off,100,0,0,,7,,,55,127
19879,note_off,0,0,0,,7,,,67,127
19883,note_on,4,0,0,,0,,,48,127
19883,note_on,0,0,0,,0,,,72,127
19983,note_off,100,0,0,,0,,,48,127
19987,note_on,4,0,0,,10,,,57,127
20087,note_off,100,0,0,,10,,,57,127
20087,note_off,0,0,0,,0,,,72,127
20091,note_on,4,0,0,,2,,,50,127
20091,note_on,0,0,0,,6,,,66,127
20191,note_off,100,0,0,,2,,,50,127
20195,note_on,4,0,0,,10,,,57,127
20295,note_off,100,0,0,,10,,,57,127
20295,note_off,0,0,0,,6,,,66,127
20299,note_on,4,0,0,,11,,,46,127
20299,note_on,0,0,0,,7,,,67,127
20399,note_off,100,0,0,,11,,,46,127
20403,note_on,4,0,0,,7,,,55,127
20503,note_off,100,0,0,,7,,,55,127
20503,note_off,0,0,0,,7,,,67,127
20507,note_on,4,0,0,,10,,,45,127
20507,note_on,0,0,0,,10,,,69,127
20607,note_off,100,0,0,,10,,,45,127
20611,note_on,4,0,0,,6,,,54,127
20711,note_off,100,0,0,,6,,,54,127
20711,note_off,0,0,0,,10,,,69,127
20715,note_on,4,0,0,,7,,,43,127
20715,note_on,0,0,0,,11,,,70,127
20815,note_off,100,0,0,,7,,,43,127
20819,note_on,4,0,0,,3,,,51,127
20919,note_off,100,0,0,,3,,,51,127
20919,note_off,0,0,0,,11,,,70,127
20923,note_on,4,0,0,,5,,,41,127
20923,note_on,0,0,0,,10,,,69,127
21023,note_off,100,0,0,,5,,,41,127
21027,note_on,4,0,0,,2,,,50,127
21127,note_off,100,0,0,,2,,,50,127
21127,note_off,0,0,0,,10,,,69,127
21131,note_on,4,0,0,,3,,,39,127
21131,note_on,0,0,0,,7,,,67,127
21231,note_off,100,0,0,,3,,,39,127
21235,note_on,4,0,0,,0,,,48,127
21335,note_off,100,0,0,,0,,,48,127
21335,note_off,0,0,0,,7,,,67,127
21339,note_on,4,0,0,,2,,,38,127
21339,note_on,0,0,0,,2,,,74,127
21439,note_off,100,0,0,,2,,,38,127
21443,note_on,4,0,0,,2,,,50,127
21543,note_off,100,0,0,,2,,,50,127
21543,note_off,0,0,0,,2,,,74,127
21547,note_on,4,0,0,,0,,,36,127
21547,note_on,0,0,0,,6,,,66,127
21647,note_off,100,0,0,,0,,,36,127
21651,note_on,4,0,0,,0,,,48,127
21751,note_off,100,0,0,,0,,,48,127
21751,note_off,0,0,0,,6,,,66,127
21755,note_on,4,0,0,,11,,,46,127
21755,note_on,0,0,0,,7,,,67,127
21855,note_off,100,0,0,,11,,,46,127
21859,note_on,4,0,0,,7,,,55,127
21959,note_off,100,0,0,,7,,,55,127
21963,note_on,4,0,0,,0,,,48,127
22063,note_off,100,0,0,,0,,,48,127
22063,note_off,0,0,0,,7,,,67,127
22067,note_on,4,0,0,,10,,,57,127
22067,note_on,0,0,0,,0,,,72,127
22167,note_off,100,0,0,,0,,,72,127
22167,note_off,0,0,0,,10,,,57,127
22171,note_on,4,0,0,,2,,,50,127
22171,note_on,0,0,0,,11,,,70,127
22271,note_off,100,0,0,,11,,,70,127
22275,note_on,4,0,0,,7,,,67,127
22375,note_off,100,0,0,,7,,,67,127
22375,note_off,0,0,0,,2,,,50,127
22379,note_on,4,0,0,,2,,,38,127
22379,note_on,0,0,0,,10,,,69,127
22479,note_off,100,0,0,,10,,,69,127
22483,note_on,4,0,0,,6,,,66,127
22535,note_off,52,0,0,,2,,,38,127
22583,note_off,48,0,0,,6,,,66,127
22587,note_on,4,0,0,,7,,,55,127
22587,note_on,0,0,0,,11,,,70,127
22687,note_off,100,0,0,,7,,,55,127
22691,note_on,4,0,0,,2,,,62,127
22791,note_off,100,0,0,,2,,,62,127
22791,note_off,0,0,0,,11,,,70,127
22795,note_on,4,0,0,,6,,,54,127
22795,note_on,0,0,0,,0,,,72,127
22895,note_off,100,0,0,,6,,,54,127
22899,note_on,4,0,0,,10,,,57,127
22999,note_off,100,0,0,,10,,,57,127
22999,note_off,0,0,0,,0,,,72,127
23003,note_on,4,0,0,,2,,,50,127
23003,note_on,0,0,0,,2,,,74,127
23103,note_off,100,0,0,,2,,,50,127
23107,note_on,4,0,0,,0,,,60,127
23207,note_off,100,0,0,,0,,,60,127
23207,note_off,0,0,0,,2,,,74,127
23211,note_on,4,0,0,,7,,,55,127
23211,note_on,0,0,0,,11,,,70,127
23311,note_off,100,0,0,,7,,,55,127
23315,note_on,4,0,0,,2,,,62,127
23415,note_off,100,0,0,,2,,,62,127
23415,note_off,0,0,0,,11,,,70,127
23419,note_on,4,0,0,,6,,,54,127
23419,note_on,0,0,0,,10,,,69,127
23519,note_off,100,0,0,,6,,,54,127
23523,note_on,4,0,0,,10,,,57,127
23623,note_off,100,0,0,,10,,,57,127
23627,note_on,4,0,0,,2,,,50,127
23727,note_off,100,0,0,,2,,,50,127
23731,note_on,4,0,0,,0,,,60,127
23777,note_off,46,0,0,,10,,,69,127
23832,note_off,55,0,0,,0,,,60,127
23836,note_on,4,0,0,,7,,,55,127
23836,note_on,0,0,0,,11,,,70,127
23936,note_off,100,0,0,,7,,,55,127
23940,note_on,4,0,0,,2,,,62,127
24040,note_off,100,0,0,,2,,,62,127
24040,note_off,0,0,0,,11,,,70,127
24044,note_on,4,0,0,,6,,,54,127
24044,note_on,0,0,0,,0,,,72,127
24144,note_off,100,0,0,,6,,,54,127
24148,note_on,4,0,0,,10,,,57,127
24248,note_off,100,0,0,,10,,,57,127
24248,note_off,0,0,0,,0,,,72,127
24252,note_on,4,0,0,,2,,,50,127
24252,note_on,0,0,0,,2,,,74,127
24352,note_off,100,0,0,,2,,,50,127
24356,note_on,4,0,0,,2,,,62,127
24456,note_off,100,0,0,,2,,,62,127
24456,note_off,0,0,0,,2,,,74,127
24460,note_on,4,0,0,,7,,,55,127
24460,note_on,0,0,0,,11,,,70,127
24560,note_off,100,0,0,,7,,,55,127
24564,note_on,4,0,0,,11,,,58,127
24664,note_off,100,0,0,,11,,,58,127
24664,note_off,0,0,0,,11,,,70,127
24668,note_on,4,0,0,,3,,,51,127
24668,note_on,0,0,0,,3,,,75,127
24768,note_off,100,0,0,,3,,,51,127
24772,note_on,4,0,0,,0,,,60,127
24872,note_off,100,0,0,,0,,,60,127
24872,note_off,0,0,0,,3,,,75,127
24876,note_on,4,0,0,,5,,,53,127
24876,note_on,0,0,0,,10,,,69,127
24976,note_off,100,0,0,,5,,,53,127
24980,note_on,4,0,0,,10,,,57,127
25080,note_off,100,0,0,,10,,,57,127
25080,note_off,0,0,0,,10,,,69,127
25084,note_on,4,0,0,,2,,,50,127
25084,note_on,0,0,0,,2,,,74,127
25184,note_off,100,0,0,,2,,,50,127
25188,note_on,4,0,0,,11,,,58,127
25288,note_off,100,0,0,,11,,,58,127
25288,note_off,0,0,0,,2,,,74,127
25292,note_on,4,0,0,,3,,,51,127
25292,note_on,0,0,0,,7,,,67,127
25392,note_off,100,0,0,,3,,,51,127
25396,note_on,4,0,0,,7,,,55,127
25496,note_off,100,0,0,,7,,,55,127
25496,note_off,0,0,0,,7,,,67,127
25500,note_on,4,0,0,,0,,,48,127
25500,note_on,0,0,0,,0,,,72,127
25600,note_off,100,0,0,,0,,,48,127
25604,note_on,4,0,0,,10,,,57,127
25704,note_off,100,0,0,,10,,,57,127
25704,note_off,0,0,0,,0,,,72,127
25708,note_on,4,0,0,,2,,,50,127
25708,note_on,0,0,0,,6,,,66,127
25808,note_off,100,0,0,,2,,,50,127
25812,note_on,4,0,0,,10,,,57,127
25912,note_off,100,0,0,,10,,,57,127
25912,note_off,0,0,0,,6,,,66,127
25916,note_on,4,0,0,,11,,,46,127
25916,note_on,0,0,0,,7,,,67,127
26016,note_off,100,0,0,,11,,,46,127
26020,note_on,4,0,0,,7,,,55,127
26120,note_off,100,0,0,,7,,,55,127
26120,note_off,0,0,0,,7,,,67,127
26124,note_on,4,0,0,,10,,,45,127
26124,note_on,0,0,0,,10,,,69,127
26224,note_off,100,0,0,,10,,,45,127
26228,note_on,4,0,0,,6,,,54,127
26328,note_off,100,0,0,,6,,,54,127
26328,note_off,0,0,0,,10,,,69,127
26332,note_on,4,0,0,,7,,,43,127
26332,note_on,0,0,0,,11,,,70,127
26432,note_off,100,0,0,,7,,,43,127
26436,note_on,4,0,0,,3,,,51,127
26536,note_off,100,0,0,,3,,,51,127
26536,note_off,0,0,0,,11,,,70,127
26540,note_on,4,0,0,,5,,,41,127
26540,note_on,0,0,0,,10,,,69,127
26640,note_off,100,0,0,,5,,,41,127
26644,note_on,4,0,0,,2,,,50,127
26744,note_off,100,0,0,,2,,,50,127
26744,note_off,0,0,0,,10,,,69,127
26748,note_on,4,0,0,,3,,,39,127
26748,note_on,0,0,0,,7,,,67,127
26848,note_off,100,0,0,,3,,,39,127
26852,note_on,4,0,0,,0,,,48,127
26952,note_off,100,0,0,,0,,,48,127
26952,note_off,0,0,0,,7,,,67,127
26956,note_on,4,0,0,,2,,,38,127
26956,note_on,0,0,0,,2,,,74,127
27056,note_off,100,0,0,,2,,,38,127
27060,note_on,4,0,0,,2,,,50,127
27160,note_off,100,0,0,,2,,,50,127
27160,note_off,0,0,0,,2,,,74,127
27164,note_on,4,0,0,,0,,,36,127
27164,note_on,0,0,0,,6,,,66,127
27264,note_off,100,0,0,,0,,,36,127
27268,note_on,4,0,0,,0,,,48,127
27368,note_off,100,0,0,,0,,,48,127
27368,note_off,0,0,0,,6,,,66,127
27372,note_on,4,0,0,,11,,,46,127
27372,note_on,0,0,0,,7,,,67,127
27472,note_off,100,0,0,,11,,,46,127
27476,note_on,4,0,0,,7,,,55,127
27576,note_off,100,0,0,,7,,,55,127
27580,note_on,4,0,0,,0,,,48,127
27680,note_off,100,0,0,,0,,,48,127
27680,note_off,0,0,0,,7,,,67,127
27684,note_on,4,0,0,,10,,,57,127
27684,note_on,0,0,0,,0,,,72,127
27784,note_off,100,0,0,,0,,,72,127
27784,note_off,0,0,0,,10,,,57,127
27788,note_on,4,0,0,,2,,,50,127
27788,note_on,0,0,0,,11,,,70,127
27888,note_off,100,0,0,,11,,,70,127
27892,note_on,4,0,0,,7,,,67,127
27992,note_off,100,0,0,,7,,,67,127
27996,note_on,4,0,0,,2,,,38,127
27996,note_on,0,0,0,,10,,,69,127
28096,note_off,100,0,0,,10,,,69,127
28100,note_off,4,0,0,,2,,,50,127
28100,note_on,0,0,0,,6,,,66,127
28126,note_off,26,0,0,,2,,,38,127
28200,note_off,74,0,0,,6,,,66,127
28204,note_on,4,0,0,,7,,,43,127
28204,note_on,0,0,0,,7,,,67,127
28304,note_off,100,0,0,,7,,,67,127
28308,note_on,4,0,0,,7,,,79,127
28408,note_off,100,0,0,,7,,,79,127
28408,note_off,0,0,0,,7,,,43,127
28412,note_on,4,0,0,,2,,,50,127
28412,note_on,0,0,0,,10,,,69,127
28512,note_off,100,0,0,,10,,,69,127
28516,note_on,4,0,0,,6,,,78,127
28616,note_off,100,0,0,,6,,,78,127
28616,note_off,0,0,0,,2,,,50,127
28620,note_on,4,0,0,,7,,,55,127
28620,note_on,0,0,0,,11,,,70,127
28720,note_off,100,0,0,,11,,,70,127
28724,note_on,4,0,0,,7,,,79,127
28824,note_off,100,0,0,,7,,,79,127
28824,note_off,0,0,0,,7,,,55,127
28828,note_on,4,0,0,,3,,,51,127
28828,note_on,0,0,0,,0,,,72,127
28928,note_off,100,0,0,,0,,,72,127
28932,note_on,4,0,0,,10,,,81,127
29032,note_off,100,0,0,,10,,,81,127
29032,note_off,0,0,0,,3,,,51,127
29036,note_on,4,0,0,,2,,,50,127
29036,note_on,0,0,0,,2,,,74,127
29136,note_off,100,0,0,,2,,,74,127
29140,note_on,4,0,0,,11,,,82,127
29240,note_off,100,0,0,,11,,,82,127
29240,note_off,0,0,0,,2,,,50,127
29244,note_on,4,0,0,,0,,,48,127
29244,note_on,0,0,0,,3,,,75,127
29344,note_off,100,0,0,,3,,,75,127
29348,note_on,4,0,0,,0,,,84,127
29448,note_off,100,0,0,,0,,,84,127
29448,note_off,0,0,0,,0,,,48,127
29452,note_on,4,0,0,,11,,,46,127
29452,note_on,0,0,0,,2,,,86,127
29552,note_off,100,0,0,,2,,,86,127
29556,note_on,4,0,0,,7,,,79,127
29656,note_off,100,0,0,,7,,,79,127
29656,note_off,0,0,0,,11,,,46,127
29660,note_on,4,0,0,,10,,,45,127
29660,note_on,0,0,0,,10,,,81,127
29760,note_off,100,0,0,,10,,,81,127
29764,note_on,4,0,0,,6,,,78,127
29864,note_off,100,0,0,,6,,,78,127
29864,note_off,0,0,0,,10,,,45,127
29868,note_on,4,0,0,,11,,,46,127
29868,note_on,0,0,0,,7,,,79,127
29968,note_off,100,0,0,,7,,,79,127
29972,note_on,4,0,0,,2,,,74,127
30072,note_off,100,0,0,,2,,,74,127
30072,note_off,0,0,0,,11,,,46,127
30076,note_on,4,0,0,,0,,,48,127
30076,note_on,0,0,0,,3,,,75,127
30176,note_off,100,0,0,,3,,,75,127
30180,note_on,4,0,0,,0,,,72,127
30280,note_off,100,0,0,,0,,,72,127
30280,note_off,0,0,0,,0,,,48,127
30284,note_on,4,0,0,,2,,,50,127
30284,note_on,0,0,0,,11,,,70,127
30384,note_off,100,0,0,,11,,,70,127
30388,note_on,4,0,0,,7,,,79,127
30488,note_off,100,0,0,,7,,,79,127
30488,note_off,0,0,0,,2,,,50,127
30492,note_on,4,0,0,,2,,,38,127
30492,note_on,0,0,0,,10,,,69,127
30592,note_off,100,0,0,,10,,,69,127
30596,note_on,4,0,0,,6,,,78,127
30696,note_off,100,0,0,,6,,,78,127
30696,note_off,0,0,0,,2,,,38,127
30700,note_on,4,0,0,,7,,,43,127
30700,note_on,0,0,0,,7,,,67,127
30800,note_off,100,0,0,,7,,,67,127
30804,note_on,4,0,0,,7,,,79,127
30904,note_off,100,0,0,,7,,,79,127
30904,note_off,0,0,0,,7,,,43,127
30908,note_on,4,0,0,,2,,,50,127
30908,note_on,0,0,0,,10,,,69,127
31008,note_off,100,0,0,,10,,,69,127
31012,note_on,4,0,0,,6,,,78,127
31112,note_off,100,0,0,,6,,,78,127
31112,note_off,0,0,0,,2,,,50,127
31116,note_on,4,0,0,,7,,,55,127
31116,note_on,0,0,0,,11,,,70,127
31216,note_off,100,0,0,,11,,,70,127
31220,note_on,4,0,0,,7,,,79,127
31320,note_off,100,0,0,,7,,,79,127
31320,note_off,0,0,0,,7,,,55,127
31324,note_on,4,0,0,,3,,,51,127
31324,note_on,0,0,0,,0,,,72,127
31424,note_off,100,0,0,,0,,,72,127
31428,note_on,4,0,0,,10,,,81,127
31528,note_off,100,0,0,,10,,,81,127
31528,note_off,0,0,0,,3,,,51,127
31532,note_on,4,0,0,,2,,,50,127
31532,note_on,0,0,0,,2,,,74,127
31632,note_off,100,0,0,,2,,,74,127
31636,note_on,4,0,0,,11,,,82,127
31736,note_off,100,0,0,,11,,,82,127
31736,note_off,0,0,0,,2,,,50,127
31740,note_on,4,0,0,,0,,,48,127
31740,note_on,0,0,0,,3,,,75,127
31840,note_off,100,0,0,,3,,,75,127
31844,note_on,4,0,0,,0,,,84,127
31944,note_off,100,0,0,,0,,,84,127
31944,note_off,0,0,0,,0,,,48,127
31948,note_on,4,0,0,,11,,,46,127
31948,note_on,0,0,0,,2,,,86,127
32048,note_off,100,0,0,,2,,,86,127
32052,note_on,4,0,0,,7,,,79,127
32152,note_off,100,0,0,,7,,,79,127
32152,note_off,0,0,0,,11,,,46,127
32156,note_on,4,0,0,,10,,,45,127
32156,note_on,0,0,0,,10,,,81,127
32256,note_off,100,0,0,,10,,,81,127
32260,note_on,4,0,0,,6,,,78,127
32360,note_off,100,0,0,,6,,,78,127
32360,note_off,0,0,0,,10,,,45,127
32364,note_on,4,0,0,,11,,,46,127
32364,note_on,0,0,0,,7,,,79,127
32464,note_off,100,0,0,,7,,,79,127
32468,note_on,4,0,0,,2,,,74,127
32568,note_off,100,0,0,,2,,,74,127
32568,note_off,0,0,0,,11,,,46,127
32572,note_on,4,0,0,,0,,,48,127
32572,note_on,0,0,0,,3,,,75,127
32672,note_off,100,0,0,,3,,,75,127
32676,note_on,4,0,0,,0,,,72,127
32776,note_off,100,0,0,,0,,,72,127
32776,note_off,0,0,0,,0,,,48,127
32780,note_on,4,0,0,,2,,,50,127
32780,note_on,0,0,0,,11,,,70,127
32880,note_off,100,0,0,,11,,,70,127
32884,note_on,4,0,0,,7,,,79,127
32984,note_off,100,0,0,,7,,,79,127
32984,note_off,0,0,0,,2,,,50,127
32988,note_on,4,0,0,,2,,,38,127
32988,note_on,0,0,0,,10,,,69,127
33088,note_off,100,0,0,,10,,,69,127
33092,note_on,4,0,0,,6,,,78,127
33192,note_off,100,0,0,,6,,,78,127
33192,note_off,0,0,0,,2,,,38,127
33196,note_on,4,0,0,,7,,,43,127
33196,note_on,0,0,0,,7,,,79,127
33296,note_off,100,0,0,,7,,,79,127
33300,note_on,4,0,0,,2,,,74,127
33400,note_off,100,0,0,,2,,,74,127
33404,note_on,4,0,0,,12,,,71,127
33504,note_off,100,0,0,,12,,,71,127
33508,note_on,4,0,0,,7,,,67,127
33608,note_off,100,0,0,,7,,,67,127
33612,note_on,4,0,0,,2,,,62,127
33712,note_off,100,0,0,,2,,,62,127
33716,note_on,4,0,0,,12,,,59,127
33816,note_off,100,0,0,,12,,,59,127
33816,note_off,0,0,0,,7,,,43,127
33820,note_on,4,0,0,,7,,,55,127
33925,note_on,105,0,0,,2,,,50,127
34025,note_off,100,0,0,,2,,,50,127
34029,note_on,4,0,0,,12,,,47,127
34129,note_off,100,0,0,,12,,,47,127
34133,note_on,4,0,0,,7,,,43,127
34233,note_off,100,0,0,,7,,,43,127
34237,note_on,4,0,0,,2,,,38,127
34337,note_off,100,0,0,,2,,,38,127
34341,note_on,4,0,0,,12,,,35,127
34441,note_off,100,0,0,,12,,,35,127
34441,note_off,0,0,0,,7,,,55,127
34445,note_on,4,0,0,,7,,,31,127
35069,note_off,624,0,0,,7,,,31,127
35073,note_on,4,0,0,,7,,,67,127
35073,note_on,0,0,0,,7,,,79,127
35278,note_off,205,0,0,,7,,,67,127
35282,note_on,4,0,0,,3,,,63,127
35487,note_off,205,0,0,,3,,,63,127
35491,note_on,4,0,0,,3,,,51,127
35696,note_off,205,0,0,,3,,,51,127
35696,note_off,0,0,0,,7,,,79,127
35700,note_on,4,0,0,,3,,,63,127
35700,note_on,0,0,0,,3,,,75,127
35905,note_off,205,0,0,,3,,,63,127
35909,note_on,4,0,0,,0,,,60,127
36114,note_off,205,0,0,,0,,,60,127
36118,note_on,4,0,0,,0,,,48,127
36323,note_off,205,0,0,,0,,,48,127
36323,note_off,0,0,0,,3,,,75,127
36327,note_on,4,0,0,,0,,,60,127
36327,note_on,0,0,0,,0,,,72,127
36532,note_off,205,0,0,,0,,,60,127
36536,note_on,4,0,0,,8,,,56,127
36741,note_off,205,0,0,,8,,,56,127
36745,note_on,4,0,0,,8,,,44,127
36950,note_off,205,0,0,,8,,,44,127
36950,note_off,0,0,0,,0,,,72,127
36954,note_on,4,0,0,,8,,,56,127
36954,note_on,0,0,0,,8,,,80,127
37054,note_off,100,0,0,,8,,,80,127
37058,note_on,4,0,0,,0,,,72,127
37158,note_off,100,0,0,,0,,,72,127
37158,note_off,0,0,0,,8,,,56,127
37162,note_on,4,0,0,,2,,,62,127
37162,note_on,0,0,0,,11,,,70,127
37262,note_off,100,0,0,,11,,,70,127
37266,note_on,4,0,0,,8,,,80,127
37366,note_off,100,0,0,,8,,,80,127
37366,note_off,0,0,0,,2,,,62,127
37370,note_on,4,0,0,,3,,,63,127
37370,note_on,0,0,0,,11,,,70,127
37470,note_off,100,0,0,,11,,,70,127
37474,note_on,4,0,0,,7,,,79,127
37574,note_off,100,0,0,,7,,,79,127
37574,note_off,0,0,0,,3,,,63,127
37578,note_on,4,0,0,,8,,,56,127
37578,note_on,0,0,0,,8,,,68,127
37678,note_off,100,0,0,,8,,,68,127
37682,note_on,4,0,0,,5,,,77,127
37782,note_off,100,0,0,,5,,,77,127
37782,note_off,0,0,0,,8,,,56,127
37786,note_on,4,0,0,,11,,,58,127
37786,note_on,0,0,0,,7,,,67,127
37886,note_off,100,0,0,,7,,,67,127
37890,note_on,4,0,0,,3,,,75,127
37990,note_off,100,0,0,,3,,,75,127
37990,note_off,0,0,0,,11,,,58,127
37994,note_on,4,0,0,,11,,,46,127
37994,note_on,0,0,0,,5,,,65,127
38094,note_off,100,0,0,,5,,,65,127
38098,note_on,4,0,0,,2,,,74,127
38198,note_off,100,0,0,,2,,,74,127
38198,note_off,0,0,0,,11,,,46,127
38202,note_on,4,0,0,,3,,,39,127
38202,note_on,0,0,0,,3,,,75,127
38302,note_off,100,0,0,,3,,,75,127
38306,note_on,4,0,0,,11,,,70,127
38406,note_off,100,0,0,,11,,,70,127
38410,note_on,4,0,0,,7,,,67,127
38510,note_off,100,0,0,,7,,,67,127
38514,note_on,4,0,0,,11,,,70,127
38614,note_off,100,0,0,,11,,,70,127
38618,note_on,4,0,0,,3,,,63,127
38723,note_off,105,0,0,,3,,,39,127
38826,note_off,103,0,0,,3,,,63,127
38828,note_on,2,0,0,,7,,,67,127
38828,note_on,0,0,0,,11,,,82,127
39033,note_off,205,0,0,,7,,,67,127
39037,note_on,4,0,0,,4,,,64,127
39242,note_off,205,0,0,,4,,,64,127
39246,note_on,4,0,0,,4,,,52,127
39451,note_off,205,0,0,,4,,,52,127
39451,note_off,0,0,0,,11,,,82,127
39455,note_on,4,0,0,,4,,,64,127
39455,note_on,0,0,0,,7,,,79,127
39660,note_off,205,0,0,,4,,,64,127
39664,note_on,4,0,0,,0,,,60,127
39869,note_off,205,0,0,,0,,,60,127
39873,note_on,4,0,0,,0,,,48,127
40078,note_off,205,0,0,,0,,,48,127
40078,note_off,0,0,0,,7,,,79,127
40082,note_on,4,0,0,,0,,,60,127
40082,note_on,0,0,0,,4,,,76,127
40287,note_off,205,0,0,,0,,,60,127
40291,note_on,4,0,0,,11,,,58,127
40496,note_off,205,0,0,,11,,,58,127
40500,note_on,4,0,0,,11,,,46,127
40705,note_off,205,0,0,,11,,,46,127
40705,note_off,0,0,0,,4,,,76,127
40709,note_on,4,0,0,,11,,,58,127
40709,note_on,0,0,0,,11,,,82,127
40809,note_off,100,0,0,,11,,,82,127
40813,note_on,4,0,0,,1,,,73,127
40913,note_off,100,0,0,,1,,,73,127
40913,note_off,0,0,0,,11,,,58,127
40917,note_on,4,0,0,,4,,,52,127
40917,note_on,0,0,0,,0,,,72,127
41017,note_off,100,0,0,,0,,,72,127
41021,note_on,4,0,0,,11,,,82,127
41121,note_off,100,0,0,,11,,,82,127
41121,note_off,0,0,0,,4,,,52,127
41125,note_on,4,0,0,,5,,,53,127
41125,note_on,0,0,0,,0,,,72,127
41225,note_off,100,0,0,,0,,,72,127
41229,note_on,4,0,0,,8,,,80,127
41329,note_off,100,0,0,,8,,,80,127
41329,note_off,0,0,0,,5,,,53,127
41333,note_on,4,0,0,,11,,,58,127
41333,note_on,0,0,0,,11,,,70,127
41433,note_off,100,0,0,,11,,,70,127
41437,note_on,4,0,0,,7,,,79,127
41537,note_off,100,0,0,,7,,,79,127
41537,note_off,0,0,0,,11,,,58,127
41541,note_on,4,0,0,,0,,,60,127
41541,note_on,0,0,0,,8,,,68,127
41641,note_off,100,0,0,,8,,,68,127
41645,note_on,4,0,0,,5,,,77,127
41745,note_off,100,0,0,,5,,,77,127
41745,note_off,0,0,0,,0,,,60,127
41749,note_on,4,0,0,,0,,,48,127
41749,note_on,0,0,0,,7,,,67,127
41849,note_off,100,0,0,,7,,,67,127
41853,note_on,4,0,0,,4,,,76,127
41953,note_off,100,0,0,,4,,,76,127
41953,note_off,0,0,0,,0,,,48,127
41957,note_on,4,0,0,,5,,,41,127
41957,note_on,0,0,0,,5,,,77,127
42057,note_off,100,0,0,,5,,,77,127
42061,note_on,4,0,0,,0,,,72,127
42161,note_off,100,0,0,,0,,,72,127
42165,note_on,4,0,0,,8,,,68,127
42265,note_off,100,0,0,,8,,,68,127
42269,note_on,4,0,0,,0,,,72,127
42369,note_off,100,0,0,,0,,,72,127
42373,note_on,4,0,0,,5,,,65,127
42578,note_off,205,0,0,,5,,,41,127
42580,note_off,2,0,0,,5,,,65,127
42582,note_on,2,0,0,,5,,,65,127
42682,note_off,100,0,0,,5,,,65,127
42686,note_on,4,0,0,,8,,,68,127
42786,note_off,100,0,0,,8,,,68,127
42790,note_on,4,0,0,,4,,,64,127
42790,note_on,0,0,0,,0,,,72,127
42890,note_off,100,0,0,,4,,,64,127
42894,note_on,4,0,0,,7,,,67,127
42994,note_off,100,0,0,,7,,,67,127
42998,note_on,4,0,0,,0,,,60,127
43098,note_off,100,0,0,,0,,,60,127
43102,note_on,4,0,0,,7,,,67,127
43202,note_off,100,0,0,,7,,,67,127
43206,note_on,4,0,0,,5,,,65,127
43306,note_off,100,0,0,,5,,,65,127
43310,note_on,4,0,0,,8,,,68,127
43410,note_off,100,0,0,,8,,,68,127
43410,note_off,0,0,0,,0,,,72,127
43414,note_on,4,0,0,,4,,,64,127
43414,note_on,0,0,0,,0,,,72,127
43514,note_off,100,0,0,,4,,,64,127
43518,note_on,4,0,0,,7,,,67,127
43618,note_off,100,0,0,,7,,,67,127
43622,note_on,4,0,0,,0,,,60,127
43722,note_off,100,0,0,,0,,,60,127
43726,note_on,4,0,0,,7,,,67,127
43826,note_off,100,0,0,,7,,,67,127
43830,note_on,4,0,0,,5,,,65,127
43930,note_off,100,0,0,,5,,,65,127
43934,note_on,4,0,0,,8,,,68,127
44034,note_off,100,0,0,,8,,,68,127
44034,note_off,0,0,0,,0,,,72,127
44038,note_on,4,0,0,,4,,,64,127
44038,note_on,0,0,0,,0,,,72,127
44138,note_off,100,0,0,,4,,,64,127
44142,note_on,4,0,0,,7,,,67,127
44242,note_off,100,0,0,,7,,,67,127
44246,note_on,4,0,0,,0,,,60,127
44346,note_off,100,0,0,,0,,,60,127
44350,note_on,4,0,0,,7,,,67,127
44450,note_off,100,0,0,,7,,,67,127
44454,note_on,4,0,0,,5,,,65,127
44554,note_off,100,0,0,,5,,,65,127
44558,note_on,4,0,0,,8,,,68,127
44658,note_off,100,0,0,,8,,,68,127
44658,note_off,0,0,0,,0,,,72,127
44662,note_on,4,0,0,,2,,,62,127
44662,note_on,0,0,0,,5,,,77,127
44762,note_off,100,0,0,,2,,,62,127
44766,note_on,4,0,0,,5,,,65,127
44866,note_off,100,0,0,,5,,,65,127
44866,note_off,0,0,0,,5,,,77,127
44870,note_on,4,0,0,,12,,,59,127
44870,note_on,0,0,0,,2,,,74,127
44970,note_off,100,0,0,,12,,,59,127
44974,note_on,4,0,0,,2,,,62,127
45074,note_off,100,0,0,,2,,,62,127
45074,note_off,0,0,0,,2,,,74,127
45078,note_on,4,0,0,,0,,,60,127
45078,note_on,0,0,0,,3,,,75,127
45178,note_off,100,0,0,,0,,,60,127
45182,note_on,4,0,0,,3,,,63,127
45282,note_off,100,0,0,,3,,,63,127
45282,note_off,0,0,0,,3,,,75,127
45286,note_on,4,0,0,,12,,,59,127
45286,note_on,0,0,0,,3,,,75,127
45351,note_off,65,0,0,,3,,,75,127
45355,note_on,4,0,0,,2,,,74,127
45386,note_off,31,0,0,,12,,,59,127
45390,note_on,4,0,0,,2,,,62,127
45421,note_off,31,0,0,,2,,,74,127
45425,note_on,4,0,0,,3,,,75,127
45490,note_off,65,0,0,,3,,,75,127
45490,note_off,0,0,0,,2,,,62,127
45494,note_on,4,0,0,,7,,,55,127
45494,note_on,0,0,0,,2,,,74,127
45559,note_off,65,0,0,,2,,,74,127
45563,note_on,4,0,0,,3,,,75,127
45594,note_off,31,0,0,,7,,,55,127
45598,note_on,4,0,0,,2,,,62,127
45629,note_off,31,0,0,,3,,,75,127
45633,note_on,4,0,0,,2,,,74,127
45698,note_off,65,0,0,,2,,,74,127
45698,note_off,0,0,0,,2,,,62,127
45702,note_on,4,0,0,,0,,,60,127
45702,note_on,0,0,0,,3,,,75,127
45802,note_off,100,0,0,,0,,,60,127
45806,note_on,4,0,0,,3,,,63,127
45906,note_off,100,0,0,,3,,,63,127
45906,note_off,0,0,0,,3,,,75,127
45910,note_on,4,0,0,,12,,,59,127
45910,note_on,0,0,0,,5,,,77,127
46010,note_off,100,0,0,,12,,,59,127
46014,note_on,4,0,0,,2,,,62,127
46114,note_off,100,0,0,,2,,,62,127
46114,note_off,0,0,0,,5,,,77,127
46118,note_on,4,0,0,,7,,,55,127
46118,note_on,0,0,0,,7,,,79,127
46218,note_off,100,0,0,,7,,,55,127
46222,note_on,4,0,0,,2,,,62,127
46322,note_off,100,0,0,,2,,,62,127
46322,note_off,0,0,0,,7,,,79,127
46326,note_on,4,0,0,,0,,,60,127
46326,note_on,0,0,0,,3,,,75,127
46426,note_off,100,0,0,,0,,,60,127
46430,note_on,4,0,0,,3,,,63,127
46530,note_off,100,0,0,,3,,,63,127
46530,note_off,0,0,0,,3,,,75,127
46534,note_on,4,0,0,,10,,,57,127
46534,note_on,0,0,0,,5,,,77,127
46634,note_off,100,0,0,,10,,,57,127
46638,note_on,4,0,0,,0,,,60,127
46738,note_off,100,0,0,,0,,,60,127
46738,note_off,0,0,0,,5,,,77,127
46742,note_on,4,0,0,,5,,,53,127
46742,note_on,0,0,0,,0,,,72,127
46842,note_off,100,0,0,,5,,,53,127
46846,note_on,4,0,0,,10,,,57,127
46946,note_off,100,0,0,,10,,,57,127
46946,note_off,0,0,0,,0,,,72,127
46950,note_on,4,0,0,,11,,,58,127
46950,note_on,0,0,0,,1,,,73,127
47050,note_off,100,0,0,,11,,,58,127
47054,note_on,4,0,0,,1,,,61,127
47154,note_off,100,0,0,,1,,,61,127
47154,note_off,0,0,0,,1,,,73,127
47158,note_on,4,0,0,,10,,,57,127
47158,note_on,0,0,0,,1,,,73,127
47223,note_off,65,0,0,,1,,,73,127
47227,note_on,4,0,0,,0,,,72,127
47258,note_off,31,0,0,,10,,,57,127
47262,note_on,4,0,0,,0,,,60,127
47293,note_off,31,0,0,,0,,,72,127
47297,note_on,4,0,0,,1,,,73,127
47362,note_off,65,0,0,,1,,,73,127
47362,note_off,0,0,0,,0,,,60,127
47366,note_on,4,0,0,,5,,,53,127
47366,note_on,0,0,0,,0,,,72,127
47431,note_off,65,0,0,,0,,,72,127
47435,note_on,4,0,0,,1,,,73,127
47466,note_off,31,0,0,,5,,,53,127
47470,note_on,4,0,0,,0,,,60,127
47501,note_off,31,0,0,,1,,,73,127
47505,note_on,4,0,0,,0,,,72,127
47570,note_off,65,0,0,,0,,,72,127
47570,note_off,0,0,0,,0,,,60,127
47574,note_on,4,0,0,,11,,,58,127
47574,note_on,0,0,0,,1,,,73,127
47674,note_off,100,0,0,,11,,,58,127
47678,note_on,4,0,0,,1,,,61,127
47778,note_off,100,0,0,,1,,,61,127
47778,note_off,0,0,0,,1,,,73,127
47782,note_on,4,0,0,,10,,,57,127
47782,note_on,0,0,0,,3,,,75,127
47882,note_off,100,0,0,,10,,,57,127
47886,note_on,4,0,0,,0,,,60,127
47986,note_off,100,0,0,,0,,,60,127
47986,note_off,0,0,0,,3,,,75,127
47990,note_on,4,0,0,,5,,,53,127
47990,note_on,0,0,0,,5,,,77,127
48090,note_off,100,0,0,,5,,,53,127
48094,note_on,4,0,0,,0,,,60,127
48194,note_off,100,0,0,,0,,,60,127
48194,note_off,0,0,0,,5,,,77,127
48198,note_on,4,0,0,,11,,,58,127
48198,note_on,0,0,0,,1,,,73,127
48298,note_off,100,0,0,,11,,,58,127
48302,note_on,4,0,0,,1,,,61,127
48402,note_off,100,0,0,,1,,,61,127
48402,note_off,0,0,0,,1,,,73,127
48406,note_on,4,0,0,,7,,,55,127
48406,note_on,0,0,0,,3,,,75,127
48506,note_off,100,0,0,,7,,,55,127
48510,note_on,4,0,0,,11,,,58,127
48610,note_off,100,0,0,,11,,,58,127
48610,note_off,0,0,0,,3,,,75,127
48614,note_on,4,0,0,,3,,,51,127
48614,note_on,0,0,0,,11,,,70,127
48714,note_off,100,0,0,,3,,,51,127
48718,note_on,4,0,0,,11,,,58,127
48818,note_off,100,0,0,,11,,,58,127
48818,note_off,0,0,0,,11,,,70,127
48822,note_on,4,0,0,,8,,,56,127
48822,note_on,0,0,0,,0,,,72,127
48922,note_off,100,0,0,,8,,,56,127
48926,note_on,4,0,0,,0,,,60,127
49026,note_off,100,0,0,,0,,,60,127
49026,note_off,0,0,0,,0,,,72,127
49030,note_on,4,0,0,,7,,,55,127
49030,note_on,0,0,0,,0,,,72,127
49095,note_off,65,0,0,,0,,,72,127
49099,note_on,4,0,0,,11,,,70,127
49130,note_off,31,0,0,,7,,,55,127
49134,note_on,4,0,0,,11,,,58,127
49165,note_off,31,0,0,,11,,,70,127
49169,note_on,4,0,0,,0,,,72,127
49234,note_off,65,0,0,,0,,,72,127
49234,note_off,0,0,0,,11,,,58,127
49238,note_on,4,0,0,,3,,,51,127
49238,note_on,0,0,0,,11,,,70,127
49303,note_off,65,0,0,,11,,,70,127
49307,note_on,4,0,0,,0,,,72,127
49338,note_off,31,0,0,,3,,,51,127
49342,note_on,4,0,0,,11,,,58,127
49373,note_off,31,0,0,,0,,,72,127
49377,note_on,4,0,0,,11,,,70,127
49442,note_off,65,0,0,,11,,,70,127
49442,note_off,0,0,0,,11,,,58,127
49446,note_on,4,0,0,,8,,,56,127
49446,note_on,0,0,0,,0,,,72,127
49546,note_off,100,0,0,,8,,,56,127
49550,note_on,4,0,0,,0,,,60,127
49650,note_off,100,0,0,,0,,,60,127
49650,note_off,0,0,0,,0,,,72,127
49654,note_on,4,0,0,,7,,,55,127
49654,note_on,0,0,0,,1,,,73,127
49754,note_off,100,0,0,,7,,,55,127
49758,note_on,4,0,0,,11,,,58,127
49858,note_off,100,0,0,,11,,,58,127
49858,note_off,0,0,0,,1,,,73,127
49862,note_on,4,0,0,,3,,,51,127
49862,note_on,0,0,0,,3,,,75,127
49962,note_off,100,0,0,,3,,,51,127
49966,note_on,4,0,0,,11,,,58,127
50066,note_off,100,0,0,,11,,,58,127
50066,note_off,0,0,0,,3,,,75,127
50070,note_on,4,0,0,,8,,,44,127
50070,note_on,0,0,0,,0,,,72,127
50170,note_off,100,0,0,,8,,,44,127
50174,note_on,4,0,0,,0,,,48,127
50274,note_off,100,0,0,,0,,,48,127
50274,note_off,0,0,0,,0,,,72,127
50278,note_on,4,0,0,,11,,,46,127
50278,note_on,0,0,0,,1,,,73,127
50378,note_off,100,0,0,,11,,,46,127
50382,note_on,4,0,0,,1,,,49,127
50482,note_off,100,0,0,,1,,,49,127
50482,note_off,0,0,0,,1,,,73,127
50486,note_on,4,0,0,,0,,,48,127
50486,note_on,0,0,0,,3,,,75,127
50586,note_off,100,0,0,,0,,,48,127
50590,note_on,4,0,0,,3,,,51,127
50690,note_off,100,0,0,,3,,,51,127
50690,note_off,0,0,0,,3,,,75,127
50694,note_on,4,0,0,,2,,,50,127
50694,note_on,0,0,0,,8,,,68,127
50794,note_off,100,0,0,,2,,,50,127
50798,note_on,4,0,0,,5,,,53,127
50898,note_off,100,0,0,,5,,,53,127
50898,note_off,0,0,0,,8,,,68,127
50902,note_on,4,0,0,,3,,,51,127
50902,note_on,0,0,0,,7,,,67,127
51002,note_off,100,0,0,,3,,,51,127
51006,note_on,4,0,0,,7,,,55,127
51106,note_off,100,0,0,,7,,,55,127
51106,note_off,0,0,0,,7,,,67,127
51110,note_on,4,0,0,,0,,,48,127
51110,note_on,0,0,0,,10,,,69,127
51210,note_off,100,0,0,,0,,,48,127
51214,note_on,4,0,0,,3,,,51,127
51314,note_off,100,0,0,,3,,,51,127
51314,note_off,0,0,0,,10,,,69,127
51318,note_on,4,0,0,,2,,,50,127
51318,note_on,0,0,0,,11,,,70,127
51418,note_off,100,0,0,,2,,,50,127
51422,note_on,4,0,0,,5,,,53,127
51522,note_off,100,0,0,,5,,,53,127
51522,note_off,0,0,0,,11,,,70,127
51526,note_on,4,0,0,,4,,,52,127
51526,note_on,0,0,0,,7,,,67,127
51626,note_off,100,0,0,,4,,,52,127
51630,note_on,4,0,0,,7,,,55,127
51730,note_off,100,0,0,,7,,,55,127
51730,note_off,0,0,0,,7,,,67,127
51734,note_on,4,0,0,,5,,,53,127
51734,note_on,0,0,0,,10,,,69,127
51834,note_off,100,0,0,,5,,,53,127
51838,note_on,4,0,0,,10,,,57,127
51938,note_off,100,0,0,,10,,,57,127
51938,note_off,0,0,0,,10,,,69,127
51942,note_on,4,0,0,,2,,,50,127
51942,note_on,0,0,0,,12,,,71,127
52042,note_off,100,0,0,,2,,,50,127
52046,note_on,4,0,0,,5,,,53,127
52146,note_off,100,0,0,,5,,,53,127
52146,note_off,0,0,0,,12,,,71,127
52150,note_on,4,0,0,,4,,,52,127
52150,note_on,0,0,0,,0,,,72,127
52250,note_off,100,0,0,,4,,,52,127
52254,note_on,4,0,0,,7,,,55,127
52354,note_off,100,0,0,,7,,,55,127
52354,note_off,0,0,0,,0,,,72,127
52358,note_on,4,0,0,,5,,,53,127
52358,note_on,0,0,0,,2,,,74,127
52458,note_off,100,0,0,,5,,,53,127
52462,note_on,4,0,0,,8,,,56,127
52562,note_off,100,0,0,,8,,,56,127
52562,note_off,0,0,0,,2,,,74,127
52566,note_on,4,0,0,,7,,,55,127
52566,note_on,0,0,0,,12,,,71,127
52666,note_off,100,0,0,,7,,,55,127
52670,note_on,4,0,0,,12,,,59,127
52770,note_off,100,0,0,,12,,,59,127
52770,note_off,0,0,0,,12,,,71,127
52774,note_on,4,0,0,,10,,,57,127
52774,note_on,0,0,0,,0,,,72,127
52874,note_off,100,0,0,,10,,,57,127
52878,note_on,4,0,0,,0,,,60,127
52978,note_off,100,0,0,,0,,,60,127
52978,note_off,0,0,0,,0,,,72,127
52982,note_on,4,0,0,,12,,,59,127
52982,note_on,0,0,0,,2,,,74,127
53082,note_off,100,0,0,,12,,,59,127
53086,note_on,4,0,0,,2,,,62,127
53186,note_off,100,0,0,,2,,,62,127
53186,note_off,0,0,0,,2,,,74,127
53190,note_on,4,0,0,,0,,,60,127
53190,note_on,0,0,0,,3,,,75,127
53290,note_off,100,0,0,,0,,,60,127
53294,note_on,4,0,0,,3,,,63,127
53394,note_off,100,0,0,,3,,,63,127
53394,note_off,0,0,0,,3,,,75,127
53398,note_on,4,0,0,,12,,,59,127
53398,note_on,0,0,0,,3,,,75,127
53463,note_off,65,0,0,,3,,,75,127
53467,note_on,4,0,0,,2,,,74,127
53498,note_off,31,0,0,,12,,,59,127
53502,note_on,4,0,0,,2,,,62,127
53533,note_off,31,0,0,,2,,,74,127
53537,note_on,4,0,0,,3,,,75,127
53602,note_off,65,0,0,,3,,,75,127
53602,note_off,0,0,0,,2,,,62,127
53606,note_on,4,0,0,,7,,,55,127
53606,note_on,0,0,0,,2,,,74,127
53671,note_off,65,0,0,,2,,,74,127
53675,note_on,4,0,0,,3,,,75,127
53706,note_off,31,0,0,,7,,,55,127
53710,note_on,4,0,0,,2,,,62,127
53741,note_off,31,0,0,,3,,,75,127
53745,note_on,4,0,0,,2,,,74,127
53810,note_off,65,0,0,,2,,,74,127
53810,note_off,0,0,0,,2,,,62,127
53814,note_on,4,0,0,,0,,,60,127
53814,note_on,0,0,0,,3,,,75,127
53914,note_off,100,0,0,,0,,,60,127
53918,note_on,4,0,0,,3,,,63,127
54018,note_off,100,0,0,,3,,,63,127
54018,note_off,0,0,0,,3,,,75,127
54022,note_on,4,0,0,,12,,,59,127
54022,note_on,0,0,0,,5,,,77,127
54122,note_off,100,0,0,,12,,,59,127
54126,note_on,4,0,0,,2,,,62,127
54226,note_off,100,0,0,,2,,,62,127
54226,note_off,0,0,0,,5,,,77,127
54230,note_on,4,0,0,,7,,,55,127
54230,note_on,0,0,0,,7,,,79,127
54330,note_off,100,0,0,,7,,,55,127
54334,note_on,4,0,0,,2,,,62,127
54434,note_off,100,0,0,,2,,,62,127
54434,note_off,0,0,0,,7,,,79,127
54438,note_on,4,0,0,,0,,,60,127
54438,note_on,0,0,0,,3,,,75,127
54538,note_off,100,0,0,,0,,,60,127
54542,note_on,4,0,0,,3,,,63,127
54642,note_off,100,0,0,,3,,,63,127
54642,note_off,0,0,0,,3,,,75,127
54646,note_on,4,0,0,,12,,,59,127
54646,note_on,0,0,0,,3,,,75,127
54711,note_off,65,0,0,,3,,,75,127
54715,note_on,4,0,0,,2,,,74,127
54746,note_off,31,0,0,,12,,,59,127
54750,note_on,4,0,0,,2,,,62,127
54781,note_off,31,0,0,,2,,,74,127
54785,note_on,4,0,0,,3,,,75,127
54850,note_off,65,0,0,,3,,,75,127
54850,note_off,0,0,0,,2,,,62,127
54854,note_on,4,0,0,,7,,,55,127
54854,note_on,0,0,0,,2,,,74,127
54919,note_off,65,0,0,,2,,,74,127
54923,note_on,4,0,0,,3,,,75,127
54954,note_off,31,0,0,,7,,,55,127
54958,note_on,4,0,0,,2,,,62,127
54989,note_off,31,0,0,,3,,,75,127
54993,note_on,4,0,0,,2,,,74,127
55058,note_off,65,0,0,,2,,,74,127
55058,note_off,0,0,0,,2,,,62,127
55062,note_on,4,0,0,,0,,,60,127
55062,note_on,0,0,0,,3,,,75,127
55162,note_off,100,0,0,,0,,,60,127
55166,note_on,4,0,0,,3,,,63,127
55266,note_off,100,0,0,,3,,,63,127
55266,note_off,0,0,0,,3,,,75,127
55270,note_on,4,0,0,,8,,,56,127
55270,note_on,0,0,0,,5,,,77,127
55370,note_off,100,0,0,,8,,,56,127
55374,note_on,4,0,0,,5,,,65,127
55474,note_off,100,0,0,,5,,,65,127
55474,note_off,0,0,0,,5,,,77,127
55478,note_on,4,0,0,,11,,,58,127
55478,note_on,0,0,0,,2,,,74,127
55578,note_off,100,0,0,,11,,,58,127
55582,note_on,4,0,0,,2,,,62,127
55682,note_off,100,0,0,,2,,,62,127
55682,note_off,0,0,0,,2,,,74,127
55686,note_on,4,0,0,,7,,,55,127
55686,note_on,0,0,0,,7,,,79,127
55786,note_off,100,0,0,,7,,,55,127
55790,note_on,4,0,0,,3,,,63,127
55890,note_off,100,0,0,,3,,,63,127
55890,note_off,0,0,0,,7,,,79,127
55894,note_on,4,0,0,,8,,,56,127
55894,note_on,0,0,0,,0,,,72,127
55994,note_off,100,0,0,,8,,,56,127
55998,note_on,4,0,0,,0,,,60,127
56098,note_off,100,0,0,,0,,,60,127
56098,note_off,0,0,0,,0,,,72,127
56102,note_on,4,0,0,,5,,,53,127
56102,note_on,0,0,0,,8,,,80,127
56202,note_off,100,0,0,,5,,,53,127
56206,note_on,4,0,0,,2,,,62,127
56306,note_off,100,0,0,,2,,,62,127
56306,note_off,0,0,0,,8,,,80,127
56310,note_on,4,0,0,,7,,,55,127
56310,note_on,0,0,0,,12,,,71,127
56410,note_off,100,0,0,,7,,,55,127
56414,note_on,4,0,0,,2,,,62,127
56514,note_off,100,0,0,,2,,,62,127
56514,note_off,0,0,0,,12,,,71,127
56518,note_on,4,0,0,,3,,,51,127
56518,note_on,0,0,0,,0,,,72,127
56618,note_off,100,0,0,,3,,,51,127
56622,note_on,4,0,0,,0,,,60,127
56722,note_off,100,0,0,,0,,,60,127
56722,note_off,0,0,0,,0,,,72,127
56726,note_on,4,0,0,,2,,,50,127
56726,note_on,0,0,0,,2,,,74,127
56826,note_off,100,0,0,,2,,,50,127
56830,note_on,4,0,0,,12,,,59,127
56930,note_off,100,0,0,,12,,,59,127
56930,note_off,0,0,0,,2,,,74,127
56934,note_on,4,0,0,,0,,,48,127
56934,note_on,0,0,0,,3,,,75,127
57034,note_off,100,0,0,,0,,,48,127
57038,note_on,4,0,0,,8,,,56,127
57138,note_off,100,0,0,,8,,,56,127
57138,note_off,0,0,0,,3,,,75,127
57142,note_on,4,0,0,,11,,,46,127
57142,note_on,0,0,0,,2,,,74,127
57242,note_off,100,0,0,,11,,,46,127
57246,note_on,4,0,0,,7,,,55,127
57346,note_off,100,0,0,,7,,,55,127
57346,note_off,0,0,0,,2,,,74,127
57350,note_on,4,0,0,,8,,,44,127
57350,note_on,0,0,0,,0,,,72,127
57450,note_off,100,0,0,,8,,,44,127
57454,note_on,4,0,0,,5,,,53,127
57554,note_off,100,0,0,,5,,,53,127
57554,note_off,0,0,0,,0,,,72,127
57558,note_on,4,0,0,,7,,,43,127
57558,note_on,0,0,0,,7,,,79,127
57658,note_off,100,0,0,,7,,,43,127
57662,note_on,4,0,0,,7,,,55,127
57762,note_off,100,0,0,,7,,,55,127
57762,note_off,0,0,0,,7,,,79,127
57766,note_on,4,0,0,,5,,,41,127
57766,note_on,0,0,0,,12,,,71,127
57866,note_off,100,0,0,,5,,,41,127
57870,note_on,4,0,0,,5,,,53,127
57970,note_off,100,0,0,,5,,,53,127
57970,note_off,0,0,0,,12,,,71,127
57974,note_on,4,0,0,,3,,,39,127
57974,note_on,0,0,0,,0,,,72,127
58074,note_off,100,0,0,,3,,,39,127
58078,note_on,4,0,0,,0,,,48,127
58178,note_off,100,0,0,,0,,,48,127
58182,note_on,4,0,0,,5,,,41,127
58282,note_off,100,0,0,,5,,,41,127
58282,note_off,0,0,0,,0,,,72,127
58286,note_on,4,0,0,,5,,,53,127
58286,note_on,0,0,0,,5,,,77,127
58386,note_off,100,0,0,,5,,,77,127
58386,note_off,0,0,0,,5,,,53,127
58390,note_on,4,0,0,,7,,,55,127
58390,note_on,0,0,0,,3,,,75,127
58490,note_off,100,0,0,,3,,,75,127
58494,note_on,4,0,0,,0,,,72,127
58594,note_off,100,0,0,,0,,,72,127
58594,note_off,0,0,0,,7,,,55,127
58598,note_on,4,0,0,,7,,,43,127
58598,note_on,0,0,0,,2,,,74,127
58698,note_off,100,0,0,,2,,,74,127
58702,note_on,4,0,0,,12,,,71,127
58754,note_off,52,0,0,,7,,,43,127
58802,note_off,48,0,0,,12,,,71,127
58806,note_on,4,0,0,,0,,,60,127
58806,note_on,0,0,0,,3,,,75,127
58906,note_off,100,0,0,,0,,,60,127
58910,note_on,4,0,0,,3,,,63,127
59010,note_off,100,0,0,,3,,,63,127
59010,note_off,0,0,0,,3,,,75,127
59014,note_on,4,0,0,,12,,,59,127
59014,note_on,0,0,0,,3,,,75,127
59079,note_off,65,0,0,,3,,,75,127
59083,note_on,4,0,0,,2,,,74,127
59114,note_off,31,0,0,,12,,,59,127
59118,note_on,4,0,0,,2,,,62,127
59149,note_off,31,0,0,,2,,,74,127
59153,note_on,4,0,0,,3,,,75,127
59218,note_off,65,0,0,,3,,,75,127
59218,note_off,0,0,0,,2,,,62,127
59222,note_on,4,0,0,,7,,,55,127
59222,note_on,0,0,0,,2,,,74,127
59287,note_off,65,0,0,,2,,,74,127
59291,note_on,4,0,0,,3,,,75,127
59322,note_off,31,0,0,,7,,,55,127
59326,note_on,4,0,0,,2,,,62,127
59357,note_off,31,0,0,,3,,,75,127
59361,note_on,4,0,0,,2,,,74,127
59426,note_off,65,0,0,,2,,,74,127
59426,note_off,0,0,0,,2,,,62,127
59430,note_on,4,0,0,,0,,,60,127
59430,note_on,0,0,0,,3,,,75,127
59530,note_off,100,0,0,,0,,,60,127
59534,note_on,4,0,0,,3,,,63,127
59634,note_off,100,0,0,,3,,,63,127
59634,note_off,0,0,0,,3,,,75,127
59638,note_on,4,0,0,,12,,,59,127
59638,note_on,0,0,0,,5,,,77,127
59738,note_off,100,0,0,,12,,,59,127
59742,note_on,4,0,0,,2,,,62,127
59842,note_off,100,0,0,,2,,,62,127
59842,note_off,0,0,0,,5,,,77,127
59846,note_on,4,0,0,,7,,,55,127
59846,note_on,0,0,0,,7,,,79,127
59946,note_off,100,0,0,,7,,,55,127
59950,note_on,4,0,0,,2,,,62,127
60050,note_off,100,0,0,,2,,,62,127
60050,note_off,0,0,0,,7,,,79,127
60054,note_on,4,0,0,,0,,,60,127
60054,note_on,0,0,0,,3,,,75,127
60154,note_off,100,0,0,,0,,,60,127
60158,note_on,4,0,0,,3,,,63,127
60258,note_off,100,0,0,,3,,,63,127
60258,note_off,0,0,0,,3,,,75,127
60262,note_on,4,0,0,,12,,,59,127
60262,note_on,0,0,0,,3,,,75,127
60327,note_off,65,0,0,,3,,,75,127
60331,note_on,4,0,0,,2,,,74,127
60362,note_off,31,0,0,,12,,,59,127
60366,note_on,4,0,0,,2,,,62,127
60397,note_off,31,0,0,,2,,,74,127
60401,note_on,4,0,0,,3,,,75,127
60466,note_off,65,0,0,,3,,,75,127
60466,note_off,0,0,0,,2,,,62,127
60470,note_on,4,0,0,,7,,,55,127
60470,note_on,0,0,0,,2,,,74,127
60535,note_off,65,0,0,,2,,,74,127
60539,note_on,4,0,0,,3,,,75,127
60570,note_off,31,0,0,,7,,,55,127
60574,note_on,4,0,0,,2,,,62,127
60605,note_off,31,0,0,,3,,,75,127
60609,note_on,4,0,0,,2,,,74,127
60674,note_off,65,0,0,,2,,,74,127
60674,note_off,0,0,0,,2,,,62,127
60678,note_on,4,0,0,,0,,,60,127
60678,note_on,0,0,0,,3,,,75,127
60778,note_off,100,0,0,,0,,,60,127
60782,note_on,4,0,0,,3,,,63,127
60882,note_off,100,0,0,,3,,,63,127
60882,note_off,0,0,0,,3,,,75,127
60886,note_on,4,0,0,,8,,,56,127
60886,note_on,0,0,0,,5,,,77,127
60986,note_off,100,0,0,,8,,,56,127
60990,note_on,4,0,0,,5,,,65,127
61090,note_off,100,0,0,,5,,,65,127
61090,note_off,0,0,0,,5,,,77,127
61094,note_on,4,0,0,,11,,,58,127
61094,note_on,0,0,0,,2,,,74,127
61194,note_off,100,0,0,,11,,,58,127
61198,note_on,4,0,0,,2,,,62,127
61298,note_off,100,0,0,,2,,,62,127
61298,note_off,0,0,0,,2,,,74,127
61302,note_on,4,0,0,,7,,,55,127
61302,note_on,0,0,0,,7,,,79,127
61402,note_off,100,0,0,,7,,,55,127
61406,note_on,4,0,0,,3,,,63,127
61506,note_off,100,0,0,,3,,,63,127
61506,note_off,0,0,0,,7,,,79,127
61510,note_on,4,0,0,,8,,,56,127
61510,note_on,0,0,0,,0,,,72,127
61610,note_off,100,0,0,,8,,,56,127
61614,note_on,4,0,0,,0,,,60,127
61714,note_off,100,0,0,,0,,,60,127
61714,note_off,0,0,0,,0,,,72,127
61718,note_on,4,0,0,,5,,,53,127
61718,note_on,0,0,0,,8,,,80,127
61818,note_off,100,0,0,,5,,,53,127
61822,note_on,4,0,0,,2,,,62,127
61922,note_off,100,0,0,,2,,,62,127
61922,note_off,0,0,0,,8,,,80,127
61926,note_on,4,0,0,,7,,,55,127
61926,note_on,0,0,0,,12,,,71,127
62026,note_off,100,0,0,,7,,,55,127
62030,note_on,4,0,0,,2,,,62,127
62130,note_off,100,0,0,,2,,,62,127
62130,note_off,0,0,0,,12,,,71,127
62134,note_on,4,0,0,,3,,,51,127
62134,note_on,0,0,0,,0,,,72,127
62234,note_off,100,0,0,,3,,,51,127
62238,note_on,4,0,0,,0,,,60,127
62338,note_off,100,0,0,,0,,,60,127
62338,note_off,0,0,0,,0,,,72,127
62342,note_on,4,0,0,,2,,,50,127
62342,note_on,0,0,0,,2,,,74,127
62442,note_off,100,0,0,,2,,,50,127
62446,note_on,4,0,0,,12,,,59,127
62546,note_off,100,0,0,,12,,,59,127
62546,note_off,0,0,0,,2,,,74,127
62550,note_on,4,0,0,,0,,,48,127
62550,note_on,0,0,0,,3,,,75,127
62650,note_off,100,0,0,,0,,,48,127
62654,note_on,4,0,0,,8,,,56,127
62754,note_off,100,0,0,,8,,,56,127
62754,note_off,0,0,0,,3,,,75,127
62758,note_on,4,0,0,,11,,,46,127
62758,note_on,0,0,0,,2,,,74,127
62858,note_off,100,0,0,,11,,,46,127
62862,note_on,4,0,0,,7,,,55,127
62962,note_off,100,0,0,,7,,,55,127
62962,note_off,0,0,0,,2,,,74,127
62966,note_on,4,0,0,,8,,,44,127
62966,note_on,0,0,0,,0,,,72,127
63066,note_off,100,0,0,,8,,,44,127
63070,note_on,4,0,0,,5,,,53,127
63170,note_off,100,0,0,,5,,,53,127
63170,note_off,0,0,0,,0,,,72,127
63174,note_on,4,0,0,,7,,,43,127
63174,note_on,0,0,0,,7,,,79,127
63274,note_off,100,0,0,,7,,,43,127
63278,note_on,4,0,0,,7,,,55,127
63378,note_off,100,0,0,,7,,,55,127
63378,note_off,0,0,0,,7,,,79,127
63382,note_on,4,0,0,,5,,,41,127
63382,note_on,0,0,0,,12,,,71,127
63482,note_off,100,0,0,,5,,,41,127
63486,note_on,4,0,0,,5,,,53,127
63586,note_off,100,0,0,,5,,,53,127
63586,note_off,0,0,0,,12,,,71,127
63590,note_on,4,0,0,,3,,,39,127
63590,note_on,0,0,0,,0,,,72,127
63690,note_off,100,0,0,,3,,,39,127
63694,note_on,4,0,0,,0,,,48,127
63794,note_off,100,0,0,,0,,,48,127
63798,note_on,4,0,0,,5,,,41,127
63898,note_off,100,0,0,,5,,,41,127
63898,note_off,0,0,0,,0,,,72,127
63902,note_on,4,0,0,,5,,,53,127
63902,note_on,0,0,0,,5,,,77,127
64002,note_off,100,0,0,,5,,,77,127
64002,note_off,0,0,0,,5,,,53,127
64006,note_on,4,0,0,,7,,,55,127
64006,note_on,0,0,0,,3,,,75,127
64106,note_off,100,0,0,,3,,,75,127
64110,note_on,4,0,0,,0,,,72,127
64210,note_off,100,0,0,,0,,,72,127
64210,note_off,0,0,0,,7,,,55,127
64214,note_on,4,0,0,,7,,,43,127
64214,note_on,0,0,0,,2,,,74,127
64314,note_off,100,0,0,,2,,,74,127
64318,note_on,4,0,0,,12,,,71,127
64418,note_off,100,0,0,,12,,,71,127
64418,note_off,0,0,0,,7,,,43,127
64422,note_on,4,0,0,,0,,,48,127
64422,note_on,0,0,0,,0,,,60,127
64522,note_off,100,0,0,,0,,,60,127
64526,note_on,4,0,0,,0,,,72,127
64626,note_off,100,0,0,,0,,,72,127
64626,note_off,0,0,0,,0,,,48,127
64630,note_on,4,0,0,,7,,,55,127
64630,note_on,0,0,0,,2,,,62,127
64730,note_off,100,0,0,,2,,,62,127
64734,note_on,4,0,0,,12,,,71,127
64834,note_off,100,0,0,,12,,,71,127
64834,note_off,0,0,0,,7,,,55,127
64838,note_on,4,0,0,,0,,,60,127
64838,note_on,0,0,0,,3,,,63,127
64938,note_off,100,0,0,,3,,,63,127
64942,note_on,4,0,0,,0,,,72,127
65042,note_off,100,0,0,,0,,,72,127
65042,note_off,0,0,0,,0,,,60,127
65046,note_on,4,0,0,,8,,,56,127
65046,note_on,0,0,0,,5,,,65,127
65146,note_off,100,0,0,,5,,,65,127
65150,note_on,4,0,0,,2,,,74,127
65250,note_off,100,0,0,,2,,,74,127
65250,note_off,0,0,0,,8,,,56,127
65254,note_on,4,0,0,,7,,,55,127
65254,note_on,0,0,0,,7,,,67,127
65354,note_off,100,0,0,,7,,,67,127
65358,note_on,4,0,0,,3,,,75,127
65458,note_off,100,0,0,,3,,,75,127
65458,note_off,0,0,0,,7,,,55,127
65462,note_on,4,0,0,,5,,,53,127
65462,note_on,0,0,0,,8,,,68,127
65562,note_off,100,0,0,,8,,,68,127
65566,note_on,4,0,0,,5,,,77,127
65666,note_off,100,0,0,,5,,,77,127
65666,note_off,0,0,0,,5,,,53,127
65670,note_on,4,0,0,,3,,,51,127
65670,note_on,0,0,0,,7,,,79,127
65770,note_off,100,0,0,,7,,,79,127
65774,note_on,4,0,0,,0,,,72,127
65874,note_off,100,0,0,,0,,,72,127
65874,note_off,0,0,0,,3,,,51,127
65878,note_on,4,0,0,,2,,,50,127
65878,note_on,0,0,0,,2,,,74,127
65978,note_off,100,0,0,,2,,,74,127
65982,note_on,4,0,0,,12,,,71,127
66082,note_off,100,0,0,,12,,,71,127
66082,note_off,0,0,0,,2,,,50,127
66086,note_on,4,0,0,,3,,,51,127
66086,note_on,0,0,0,,0,,,72,127
66186,note_off,100,0,0,,0,,,72,127
66190,note_on,4,0,0,,7,,,67,127
66290,note_off,100,0,0,,7,,,67,127
66290,note_off,0,0,0,,3,,,51,127
66294,note_on,4,0,0,,5,,,53,127
66294,note_on,0,0,0,,8,,,68,127
66394,note_off,100,0,0,,8,,,68,127
66398,note_on,4,0,0,,5,,,65,127
66498,note_off,100,0,0,,5,,,65,127
66498,note_off,0,0,0,,5,,,53,127
66502,note_on,4,0,0,,7,,,55,127
66502,note_on,0,0,0,,3,,,63,127
66602,note_off,100,0,0,,3,,,63,127
66606,note_on,4,0,0,,0,,,72,127
66706,note_off,100,0,0,,0,,,72,127
66706,note_off,0,0,0,,7,,,55,127
66710,note_on,4,0,0,,7,,,43,127
66710,note_on,0,0,0,,2,,,62,127
66810,note_off,100,0,0,,2,,,62,127
66814,note_on,4,0,0,,12,,,71,127
66914,note_off,100,0,0,,12,,,71,127
66914,note_off,0,0,0,,7,,,43,127
66918,note_on,4,0,0,,0,,,48,127
66918,note_on,0,0,0,,0,,,60,127
67018,note_off,100,0,0,,0,,,60,127
67022,note_on,4,0,0,,0,,,72,127
67122,note_off,100,0,0,,0,,,72,127
67122,note_off,0,0,0,,0,,,48,127
67126,note_on,4,0,0,,7,,,43,127
67126,note_on,0,0,0,,2,,,62,127
67226,note_off,100,0,0,,2,,,62,127
67230,note_on,4,0,0,,12,,,71,127
67330,note_off,100,0,0,,12,,,71,127
67330,note_off,0,0,0,,7,,,43,127
67334,note_on,4,0,0,,0,,,48,127
67334,note_on,0,0,0,,3,,,63,127
67434,note_off,100,0,0,,3,,,63,127
67438,note_on,4,0,0,,0,,,72,127
67538,note_off,100,0,0,,0,,,72,127
67538,note_off,0,0,0,,0,,,48,127
67542,note_on,4,0,0,,8,,,44,127
67542,note_on,0,0,0,,5,,,65,127
67642,note_off,100,0,0,,5,,,65,127
67646,note_on,4,0,0,,2,,,74,127
67746,note_off,100,0,0,,2,,,74,127
67746,note_off,0,0,0,,8,,,44,127
67750,note_on,4,0,0,,7,,,43,127
67750,note_on,0,0,0,,7,,,67,127
67850,note_off,100,0,0,,7,,,67,127
67854,note_on,4,0,0,,3,,,75,127
67954,note_off,100,0,0,,3,,,75,127
67954,note_off,0,0,0,,7,,,43,127
67958,note_on,4,0,0,,5,,,41,127
67958,note_on,0,0,0,,8,,,68,127
68058,note_off,100,0,0,,8,,,68,127
68062,note_on,4,0,0,,5,,,77,127
68162,note_off,100,0,0,,5,,,77,127
68162,note_off,0,0,0,,5,,,41,127
68166,note_on,4,0,0,,3,,,39,127
68166,note_on,0,0,0,,7,,,79,127
68266,note_off,100,0,0,,7,,,79,127
68270,note_on,4,0,0,,0,,,72,127
68370,note_off,100,0,0,,0,,,72,127
68370,note_off,0,0,0,,3,,,39,127
68374,note_on,4,0,0,,2,,,38,127
68374,note_on,0,0,0,,2,,,74,127
68474,note_off,100,0,0,,2,,,74,127
68478,note_on,4,0,0,,12,,,71,127
68578,note_off,100,0,0,,12,,,71,127
68578,note_off,0,0,0,,2,,,38,127
68582,note_on,4,0,0,,3,,,39,127
68582,note_on,0,0,0,,0,,,72,127
68682,note_off,100,0,0,,0,,,72,127
68686,note_on,4,0,0,,12,,,83,127
68786,note_off,100,0,0,,12,,,83,127
68786,note_off,0,0,0,,3,,,39,127
68790,note_on,4,0,0,,5,,,41,127
68790,note_on,0,0,0,,0,,,84,127
68890,note_off,100,0,0,,0,,,84,127
68894,note_on,4,0,0,,5,,,77,127
68994,note_off,100,0,0,,5,,,77,127
68994,note_off,0,0,0,,5,,,41,127
68998,note_on,4,0,0,,7,,,43,127
68998,note_on,0,0,0,,3,,,75,127
69098,note_off,100,0,0,,3,,,75,127
69102,note_on,4,0,0,,0,,,84,127
69202,note_off,100,0,0,,0,,,84,127
69202,note_off,0,0,0,,7,,,43,127
69206,note_on,4,0,0,,7,,,31,127
69206,note_on,0,0,0,,2,,,74,127
69306,note_off,100,0,0,,2,,,74,127
69310,note_on,4,0,0,,12,,,83,127
69410,note_off,100,0,0,,12,,,83,127
69410,note_off,0,0,0,,7,,,31,127
69414,note_on,4,0,0,,0,,,36,127
69414,note_on,0,0,0,,0,,,84,127
69514,note_off,100,0,0,,0,,,84,127
69518,note_on,4,0,0,,7,,,79,127
69618,note_off,100,0,0,,7,,,79,127
69622,note_on,4,0,0,,3,,,75,127
69722,note_off,100,0,0,,3,,,75,127
69726,note_on,4,0,0,,0,,,72,127
69826,note_off,100,0,0,,0,,,72,127
69830,note_on,4,0,0,,7,,,67,127
69930,note_off,100,0,0,,7,,,67,127
69934,note_on,4,0,0,,3,,,63,127
70033,note_off,99,0,0,,3,,,63,127
70034,note_off,1,0,0,,0,,,36,127
70038,note_on,4,0,0,,0,,,60,127
70143,note_on,105,0,0,,7,,,55,127
70243,note_off,100,0,0,,7,,,55,127
70247,note_on,4,0,0,,3,,,51,127
70347,note_off,100,0,0,,3,,,51,127
70351,note_on,4,0,0,,0,,,48,127
70451,note_off,100,0,0,,0,,,48,127
70455,note_on,4,0,0,,7,,,43,127
70555,note_off,100,0,0,,7,,,43,127
70559,note_on,4,0,0,,3,,,39,127
70659,note_off,100,0,0,,3,,,39,127
70659,note_off,0,0,0,,0,,,60,127
70663,note_on,4,0,0,,0,,,36,127
72627,note_off,1964,0,0,,0,,,36,127
76800,end_of_track,4173,1,0,,,,,,
