tick,type,time,meta,track,program,channel,pitch,tempo,note,velocity
0,copyright,0,1,0,,,,,,
0,program_change,0,0,0,6,0,,,,
0,pitchwheel,0,0,0,,0,0,,,
0,program_change,0,0,0,6,1,,,,
0,pitchwheel,0,0,0,,1,-590,,,
0,program_change,0,0,0,6,2,,,,
0,pitchwheel,0,0,0,,2,-272,,,
0,program_change,0,0,0,6,3,,,,
0,pitchwheel,0,0,0,,3,-353,,,
0,program_change,0,0,0,6,4,,,,
0,pitchwheel,0,0,0,,4,-560,,,
0,program_change,0,0,0,6,5,,,,
0,pitchwheel,0,0,0,,5,-80,,,
0,program_change,0,0,0,6,6,,,,
0,pitchwheel,0,0,0,,6,-625,,,
0,program_change,0,0,0,6,7,,,,
0,pitchwheel,0,0,0,,7,-130,,,
0,program_change,0,0,0,6,8,,,,
0,pitchwheel,0,0,0,,8,-512,,,
0,program_change,0,0,0,6,10,,,,
0,pitchwheel,0,0,0,,10,-464,,,
0,program_change,0,0,0,6,11,,,,
0,pitchwheel,0,0,0,,11,-208,,,
0,program_change,0,0,0,6,12,,,,
0,pitchwheel,0,0,0,,12,-553,,,
0,set_tempo,0,1,0,,,,500000,,
105,note_on,105,0,0,,0,,,84,127
522,note_off,417,0,0,,0,,,84,127
524,note_on,2,0,0,,8,,,80,127
941,note_off,417,0,0,,8,,,80,127
943,note_on,2,0,0,,5,,,65,127
943,note_on,0,0,0,,5,,,77,127
1360,note_off,417,0,0,,5,,,65,127
1362,note_on,2,0,0,,1,,,61,127
1779,note_off,417,0,0,,1,,,61,127
1780,note_off,1,0,0,,5,,,77,127
1781,note_on,1,0,0,,0,,,60,127
1990,note_on,209,0,0,,11,,,82,127
2093,note_off,103,0,0,,11,,,82,127
2095,note_on,2,0,0,,1,,,73,127
2198,note_off,103,0,0,,1,,,73,127
2198,note_off,0,0,0,,0,,,60,127
2200,note_on,2,0,0,,4,,,64,127
2200,note_on,0,0,0,,0,,,72,127
2407,note_off,207,0,0,,0,,,72,127
2409,note_on,2,0,0,,11,,,82,127
2616,note_off,207,0,0,,11,,,82,127
2616,note_off,0,0,0,,4,,,64,127
2618,note_on,2,0,0,,5,,,65,127
2618,note_on,0,0,0,,11,,,82,127
2721,note_off,103,0,0,,11,,,82,127
2723,note_on,2,0,0,,8,,,80,127
2826,note_off,103,0,0,,8,,,80,127
2828,note_on,2,0,0,,7,,,79,127
2931,note_off,103,0,0,,7,,,79,127
2933,note_on,2,0,0,,5,,,77,127
3033,note_off,100,0,0,,5,,,65,127
3035,note_off,2,0,0,,5,,,77,127
3037,note_on,2,0,0,,5,,,77,127
3246,note_on,209,0,0,,11,,,70,127
3349,note_off,103,0,0,,11,,,70,127
3351,note_on,2,0,0,,1,,,61,127
3454,note_off,103,0,0,,1,,,61,127
3454,note_off,0,0,0,,5,,,77,127
3456,note_on,2,0,0,,0,,,60,127
3456,note_on,0,0,0,,7,,,79,127
3663,note_off,207,0,0,,0,,,60,127
3665,note_on,2,0,0,,0,,,72,127
3768,note_off,103,0,0,,0,,,72,127
3770,note_on,2,0,0,,4,,,64,127
3873,note_off,103,0,0,,4,,,64,127
3873,note_off,0,0,0,,7,,,79,127
3875,note_on,2,0,0,,5,,,65,127
3875,note_on,0,0,0,,11,,,82,127
3978,note_off,103,0,0,,11,,,82,127
3980,note_on,2,0,0,,8,,,80,127
4083,note_off,103,0,0,,8,,,80,127
4083,note_off,0,0,0,,5,,,65,127
4085,note_on,2,0,0,,1,,,61,127
4085,note_on,0,0,0,,7,,,79,127
4188,note_off,103,0,0,,7,,,79,127
4190,note_on,2,0,0,,5,,,77,127
4293,note_off,103,0,0,,5,,,77,127
4293,note_off,0,0,0,,1,,,61,127
4295,note_on,2,0,0,,0,,,60,127
4295,note_on,0,0,0,,7,,,79,127
4398,note_off,103,0,0,,7,,,79,127
4400,note_on,2,0,0,,5,,,77,127
4503,note_off,103,0,0,,5,,,77,127
4505,note_on,2,0,0,,4,,,76,127
4608,note_off,103,0,0,,4,,,76,127
4610,note_on,2,0,0,,5,,,77,127
4710,note_off,100,0,0,,0,,,60,127
4712,note_off,2,0,0,,5,,,77,127
4714,note_on,2,0,0,,7,,,79,127
4923,note_on,209,0,0,,11,,,70,127
5026,note_off,103,0,0,,11,,,70,127
5028,note_on,2,0,0,,1,,,61,127
5131,note_off,103,0,0,,1,,,61,127
5133,note_on,2,0,0,,0,,,60,127
5340,note_off,207,0,0,,0,,,60,127
5342,note_on,2,0,0,,0,,,72,127
5445,note_off,103,0,0,,0,,,72,127
5447,note_on,2,0,0,,4,,,64,127
5550,note_off,103,0,0,,4,,,64,127
5550,note_off,0,0,0,,7,,,79,127
5552,note_on,2,0,0,,5,,,65,127
5552,note_on,0,0,0,,11,,,82,127
5655,note_off,103,0,0,,11,,,82,127
5657,note_on,2,0,0,,8,,,80,127
5760,note_off,103,0,0,,8,,,80,127
5760,note_off,0,0,0,,5,,,65,127
5762,note_on,2,0,0,,1,,,61,127
5762,note_on,0,0,0,,7,,,79,127
5865,note_off,103,0,0,,7,,,79,127
5867,note_on,2,0,0,,5,,,77,127
5970,note_off,103,0,0,,5,,,77,127
5970,note_off,0,0,0,,1,,,61,127
5972,note_on,2,0,0,,0,,,60,127
5972,note_on,0,0,0,,7,,,79,127
6075,note_off,103,0,0,,7,,,79,127
6077,note_on,2,0,0,,5,,,77,127
6180,note_off,103,0,0,,5,,,77,127
6182,note_on,2,0,0,,4,,,76,127
6285,note_off,103,0,0,,4,,,76,127
6287,note_on,2,0,0,,5,,,77,127
6390,note_off,103,0,0,,5,,,77,127
6390,note_off,0,0,0,,0,,,60,127
6392,note_on,2,0,0,,11,,,70,127
6392,note_on,0,0,0,,7,,,79,127
6495,note_off,103,0,0,,11,,,70,127
6497,note_on,2,0,0,,7,,,67,127
6600,note_off,103,0,0,,7,,,67,127
6602,note_on,2,0,0,,4,,,64,127
6705,note_off,103,0,0,,4,,,64,127
6707,note_on,2,0,0,,0,,,60,127
6810,note_off,103,0,0,,0,,,60,127
6812,note_on,2,0,0,,8,,,56,127
7019,note_off,207,0,0,,7,,,79,127
7021,note_on,2,0,0,,0,,,72,127
7228,note_off,207,0,0,,0,,,72,127
7230,note_on,2,0,0,,7,,,79,127
7437,note_off,207,0,0,,7,,,79,127
7438,note_off,1,0,0,,8,,,56,127
7439,note_on,1,0,0,,8,,,80,127
7542,note_off,103,0,0,,8,,,80,127
7544,note_on,2,0,0,,11,,,82,127
7647,note_off,103,0,0,,11,,,82,127
7649,note_on,2,0,0,,1,,,61,127
7649,note_on,0,0,0,,11,,,82,127
7752,note_off,103,0,0,,11,,,82,127
7754,note_on,2,0,0,,8,,,80,127
7857,note_off,103,0,0,,8,,,80,127
7859,note_on,2,0,0,,7,,,79,127
7962,note_off,103,0,0,,7,,,79,127
7964,note_on,2,0,0,,5,,,77,127
8067,note_off,103,0,0,,5,,,77,127
8067,note_off,0,0,0,,1,,,61,127
8069,note_on,2,0,0,,11,,,70,127
8069,note_on,0,0,0,,7,,,79,127
8172,note_off,103,0,0,,11,,,70,127
8174,note_on,2,0,0,,7,,,67,127
8277,note_off,103,0,0,,7,,,67,127
8279,note_on,2,0,0,,4,,,64,127
8382,note_off,103,0,0,,4,,,64,127
8384,note_on,2,0,0,,0,,,60,127
8487,note_off,103,0,0,,0,,,60,127
8489,note_on,2,0,0,,8,,,56,127
8696,note_off,207,0,0,,7,,,79,127
8698,note_on,2,0,0,,0,,,72,127
8903,note_off,205,0,0,,8,,,56,127
8905,note_off,2,0,0,,0,,,72,127
8907,note_on,2,0,0,,7,,,79,127
9114,note_off,207,0,0,,7,,,79,127
9116,note_on,2,0,0,,8,,,80,127
9219,note_off,103,0,0,,8,,,80,127
9221,note_on,2,0,0,,11,,,82,127
9324,note_off,103,0,0,,11,,,82,127
9326,note_on,2,0,0,,1,,,61,127
9326,note_on,0,0,0,,11,,,82,127
9429,note_off,103,0,0,,11,,,82,127
9431,note_on,2,0,0,,8,,,80,127
9534,note_off,103,0,0,,8,,,80,127
9536,note_on,2,0,0,,7,,,79,127
9639,note_off,103,0,0,,7,,,79,127
9641,note_on,2,0,0,,5,,,77,127
9744,note_off,103,0,0,,5,,,77,127
9746,note_on,2,0,0,,5,,,77,127
9953,note_off,207,0,0,,5,,,77,127
9955,note_on,2,0,0,,3,,,75,127
10058,note_off,103,0,0,,3,,,75,127
10060,note_on,2,0,0,,1,,,73,127
10163,note_off,103,0,0,,1,,,73,127
10163,note_off,0,0,0,,1,,,61,127
10165,note_on,2,0,0,,5,,,53,127
10165,note_on,0,0,0,,1,,,73,127
10372,note_off,207,0,0,,1,,,73,127
10374,note_on,2,0,0,,0,,,72,127
10477,note_off,103,0,0,,0,,,72,127
10479,note_on,2,0,0,,11,,,70,127
10582,note_off,103,0,0,,11,,,70,127
10582,note_off,0,0,0,,5,,,53,127
10584,note_on,2,0,0,,7,,,55,127
10584,note_on,0,0,0,,11,,,70,127
10791,note_off,207,0,0,,11,,,70,127
10793,note_on,2,0,0,,8,,,68,127
10896,note_off,103,0,0,,8,,,68,127
10898,note_on,2,0,0,,7,,,67,127
11001,note_off,103,0,0,,7,,,67,127
11001,note_off,0,0,0,,7,,,55,127
11003,note_on,2,0,0,,8,,,56,127
11003,note_on,0,0,0,,5,,,65,127
11106,note_off,103,0,0,,5,,,65,127
11108,note_on,2,0,0,,8,,,68,127
11211,note_off,103,0,0,,8,,,68,127
11213,note_on,2,0,0,,0,,,72,127
11316,note_off,103,0,0,,0,,,72,127
11318,note_on,2,0,0,,5,,,77,127
11421,note_off,103,0,0,,5,,,77,127
11423,note_on,2,0,0,,0,,,84,127
11526,note_off,103,0,0,,8,,,56,127
11528,note_on,2,0,0,,0,,,60,127
11631,note_off,103,0,0,,0,,,60,127
11633,note_on,2,0,0,,5,,,65,127
11736,note_off,103,0,0,,5,,,65,127
11738,note_on,2,0,0,,8,,,68,127
11841,note_off,103,0,0,,8,,,68,127
11841,note_off,0,0,0,,0,,,84,127
11843,note_on,2,0,0,,7,,,55,127
11843,note_on,0,0,0,,7,,,67,127
11946,note_off,103,0,0,,7,,,67,127
11948,note_on,2,0,0,,11,,,70,127
12051,note_off,103,0,0,,11,,,70,127
12053,note_on,2,0,0,,4,,,76,127
12156,note_off,103,0,0,,4,,,76,127
12158,note_on,2,0,0,,7,,,79,127
12261,note_off,103,0,0,,7,,,79,127
12263,note_on,2,0,0,,11,,,82,127
12366,note_off,103,0,0,,7,,,55,127
12368,note_on,2,0,0,,11,,,58,127
12471,note_off,103,0,0,,11,,,58,127
12473,note_on,2,0,0,,4,,,64,127
12576,note_off,103,0,0,,4,,,64,127
12578,note_on,2,0,0,,7,,,67,127
12681,note_off,103,0,0,,7,,,67,127
12681,note_off,0,0,0,,11,,,82,127
12683,note_on,2,0,0,,5,,,53,127
12683,note_on,0,0,0,,5,,,65,127
12786,note_off,103,0,0,,5,,,65,127
12788,note_on,2,0,0,,8,,,68,127
12891,note_off,103,0,0,,8,,,68,127
12893,note_on,2,0,0,,1,,,73,127
12996,note_off,103,0,0,,1,,,73,127
12998,note_on,2,0,0,,5,,,77,127
13101,note_off,103,0,0,,5,,,77,127
13103,note_on,2,0,0,,8,,,80,127
13206,note_off,103,0,0,,5,,,53,127
13208,note_on,2,0,0,,8,,,56,127
13311,note_off,103,0,0,,8,,,56,127
13313,note_on,2,0,0,,1,,,61,127
13416,note_off,103,0,0,,1,,,61,127
13418,note_on,2,0,0,,5,,,65,127
13521,note_off,103,0,0,,5,,,65,127
13523,note_on,2,0,0,,0,,,48,127
13730,note_off,207,0,0,,8,,,80,127
13732,note_on,2,0,0,,7,,,79,127
13835,note_off,103,0,0,,7,,,79,127
13837,note_on,2,0,0,,0,,,72,127
13940,note_off,103,0,0,,0,,,72,127
13940,note_off,0,0,0,,0,,,48,127
13942,note_on,2,0,0,,4,,,52,127
13942,note_on,0,0,0,,11,,,58,127
13942,note_on,0,0,0,,0,,,60,127
13942,note_on,0,0,0,,11,,,70,127
14149,note_off,207,0,0,,11,,,70,127
14151,note_on,2,0,0,,8,,,68,127
14254,note_off,103,0,0,,8,,,68,127
14256,note_on,2,0,0,,7,,,67,127
14359,note_off,103,0,0,,7,,,67,127
14359,note_off,0,0,0,,0,,,60,127
14359,note_off,0,0,0,,11,,,58,127
14359,note_off,0,0,0,,4,,,52,127
14361,note_on,2,0,0,,5,,,53,127
14361,note_on,0,0,0,,0,,,60,127
14361,note_on,0,0,0,,8,,,68,127
14568,note_off,207,0,0,,8,,,68,127
14570,note_on,2,0,0,,1,,,73,127
14673,note_off,103,0,0,,1,,,73,127
14675,note_on,2,0,0,,0,,,72,127
14778,note_off,103,0,0,,0,,,72,127
14778,note_off,0,0,0,,0,,,60,127
14778,note_off,0,0,0,,5,,,53,127
14780,note_on,2,0,0,,4,,,52,127
14780,note_on,0,0,0,,0,,,60,127
14780,note_on,0,0,0,,11,,,58,127
14780,note_on,0,0,0,,11,,,70,127
14987,note_off,207,0,0,,11,,,70,127
14989,note_on,2,0,0,,8,,,68,127
15092,note_off,103,0,0,,8,,,68,127
15094,note_on,2,0,0,,7,,,67,127
15197,note_off,103,0,0,,7,,,67,127
15197,note_off,0,0,0,,11,,,58,127
15197,note_off,0,0,0,,0,,,60,127
15197,note_off,0,0,0,,4,,,52,127
15199,note_on,2,0,0,,5,,,53,127
15199,note_on,0,0,0,,0,,,60,127
15199,note_on,0,0,0,,8,,,68,127
15406,note_off,207,0,0,,8,,,68,127
15408,note_on,2,0,0,,7,,,79,127
15511,note_off,103,0,0,,7,,,79,127
15513,note_on,2,0,0,,0,,,72,127
15616,note_off,103,0,0,,0,,,72,127
15616,note_off,0,0,0,,0,,,60,127
15616,note_off,0,0,0,,5,,,53,127
15618,note_on,2,0,0,,4,,,52,127
15618,note_on,0,0,0,,11,,,58,127
15618,note_on,0,0,0,,0,,,60,127
15618,note_on,0,0,0,,11,,,70,127
15825,note_off,207,0,0,,11,,,70,127
15827,note_on,2,0,0,,8,,,68,127
15930,note_off,103,0,0,,8,,,68,127
15932,note_on,2,0,0,,7,,,67,127
16035,note_off,103,0,0,,7,,,67,127
16035,note_off,0,0,0,,0,,,60,127
16035,note_off,0,0,0,,11,,,58,127
16035,note_off,0,0,0,,4,,,52,127
16037,note_on,2,0,0,,0,,,60,127
16037,note_on,0,0,0,,5,,,53,127
16037,note_on,0,0,0,,0,,,84,127
16037,note_on,0,0,0,,0,,,72,127
16244,note_off,207,0,0,,0,,,84,127
16246,note_on,2,0,0,,11,,,82,127
16349,note_off,103,0,0,,11,,,82,127
16351,note_on,2,0,0,,8,,,80,127
16451,note_off,100,0,0,,0,,,72,127
16453,note_off,2,0,0,,8,,,80,127
16455,note_on,2,0,0,,8,,,80,127
16662,note_off,207,0,0,,8,,,80,127
16664,note_on,2,0,0,,7,,,79,127
16767,note_off,103,0,0,,7,,,79,127
16769,note_on,2,0,0,,5,,,77,127
16872,note_off,103,0,0,,5,,,77,127
16872,note_off,0,0,0,,5,,,53,127
16872,note_off,0,0,0,,0,,,60,127
16874,note_on,2,0,0,,0,,,60,127
16874,note_on,0,0,0,,5,,,53,127
16874,note_on,0,0,0,,2,,,62,127
16874,note_on,0,0,0,,5,,,77,127
17081,note_off,207,0,0,,5,,,77,127
17083,note_on,2,0,0,,3,,,75,127
17186,note_off,103,0,0,,3,,,75,127
17188,note_on,2,0,0,,2,,,74,127
17291,note_off,103,0,0,,2,,,74,127
17291,note_off,0,0,0,,2,,,62,127
17291,note_off,0,0,0,,5,,,53,127
17291,note_off,0,0,0,,0,,,60,127
17293,note_on,2,0,0,,6,,,54,127
17293,note_on,0,0,0,,0,,,60,127
17293,note_on,0,0,0,,2,,,62,127
17293,note_on,0,0,0,,2,,,74,127
17396,note_off,103,0,0,,2,,,74,127
17398,note_on,2,0,0,,0,,,72,127
17501,note_off,103,0,0,,0,,,72,127
17503,note_on,2,0,0,,12,,,71,127
17606,note_off,103,0,0,,12,,,71,127
17608,note_on,2,0,0,,0,,,72,127
17711,note_off,103,0,0,,0,,,72,127
17711,note_off,0,0,0,,2,,,62,127
17711,note_off,0,0,0,,0,,,60,127
17711,note_off,0,0,0,,6,,,54,127
17713,note_on,2,0,0,,2,,,62,127
17713,note_on,0,0,0,,7,,,55,127
17713,note_on,0,0,0,,12,,,71,127
17920,note_off,207,0,0,,12,,,71,127
17922,note_on,2,0,0,,5,,,77,127
18025,note_off,103,0,0,,5,,,77,127
18027,note_on,2,0,0,,3,,,75,127
18130,note_off,103,0,0,,3,,,75,127
18130,note_off,0,0,0,,7,,,55,127
18130,note_off,0,0,0,,2,,,62,127
18132,note_on,2,0,0,,8,,,56,127
18132,note_on,0,0,0,,5,,,65,127
18132,note_on,0,0,0,,5,,,77,127
18235,note_off,103,0,0,,5,,,77,127
18237,note_on,2,0,0,,3,,,75,127
18340,note_off,103,0,0,,3,,,75,127
18342,note_on,2,0,0,,2,,,74,127
18445,note_off,103,0,0,,2,,,74,127
18447,note_on,2,0,0,,0,,,72,127
18550,note_off,103,0,0,,0,,,72,127
18550,note_off,0,0,0,,5,,,65,127
18550,note_off,0,0,0,,8,,,56,127
18552,note_on,2,0,0,,5,,,65,127
18552,note_on,0,0,0,,7,,,55,127
18552,note_on,0,0,0,,12,,,71,127
18759,note_off,207,0,0,,12,,,71,127
18761,note_on,2,0,0,,5,,,77,127
18864,note_off,103,0,0,,5,,,77,127
18866,note_on,2,0,0,,3,,,75,127
18969,note_off,103,0,0,,3,,,75,127
18969,note_off,0,0,0,,7,,,55,127
18969,note_off,0,0,0,,5,,,65,127
18971,note_on,2,0,0,,5,,,65,127
18971,note_on,0,0,0,,8,,,56,127
18971,note_on,0,0,0,,5,,,77,127
19074,note_off,103,0,0,,5,,,77,127
19076,note_on,2,0,0,,3,,,75,127
19179,note_off,103,0,0,,3,,,75,127
19181,note_on,2,0,0,,2,,,74,127
19284,note_off,103,0,0,,2,,,74,127
19286,note_on,2,0,0,,0,,,72,127
19389,note_off,103,0,0,,0,,,72,127
19389,note_off,0,0,0,,8,,,56,127
19389,note_off,0,0,0,,5,,,65,127
19391,note_on,2,0,0,,5,,,65,127
19391,note_on,0,0,0,,7,,,55,127
19391,note_on,0,0,0,,12,,,71,127
19494,note_off,103,0,0,,12,,,71,127
19496,note_on,2,0,0,,0,,,72,127
19599,note_off,103,0,0,,0,,,72,127
19601,note_on,2,0,0,,12,,,71,127
19704,note_off,103,0,0,,12,,,71,127
19706,note_on,2,0,0,,0,,,72,127
19809,note_off,103,0,0,,0,,,72,127
19809,note_off,0,0,0,,7,,,55,127
19809,note_off,0,0,0,,5,,,65,127
19811,note_on,2,0,0,,8,,,56,127
19811,note_on,0,0,0,,5,,,65,127
19811,note_on,0,0,0,,2,,,74,127
19879,note_off,68,0,0,,2,,,74,127
19881,note_on,2,0,0,,0,,,72,127
19949,note_off,68,0,0,,0,,,72,127
19951,note_on,2,0,0,,2,,,74,127
20019,note_off,68,0,0,,2,,,74,127
20021,note_on,2,0,0,,0,,,72,127
20089,note_off,68,0,0,,0,,,72,127
20091,note_on,2,0,0,,12,,,71,127
20159,note_off,68,0,0,,12,,,71,127
20161,note_on,2,0,0,,0,,,72,127
20229,note_off,68,0,0,,0,,,72,127
20229,note_off,0,0,0,,5,,,65,127
20229,note_off,0,0,0,,8,,,56,127
20231,note_on,2,0,0,,7,,,43,127
20231,note_on,0,0,0,,2,,,74,127
20438,note_off,207,0,0,,2,,,74,127
20440,note_on,2,0,0,,7,,,55,127
20543,note_off,103,0,0,,7,,,55,127
20545,note_on,2,0,0,,10,,,57,127
20645,note_off,100,0,0,,7,,,43,127
20647,note_off,2,0,0,,10,,,57,127
20649,note_on,2,0,0,,12,,,59,127
20752,note_off,103,0,0,,12,,,59,127
20754,note_on,2,0,0,,7,,,55,127
20857,note_off,103,0,0,,7,,,55,127
20859,note_on,2,0,0,,7,,,43,127
20859,note_on,0,0,0,,7,,,55,127
20859,note_on,0,0,0,,0,,,60,127
20962,note_off,103,0,0,,0,,,60,127
20964,note_on,2,0,0,,8,,,56,127
21067,note_off,103,0,0,,8,,,56,127
21067,note_off,0,0,0,,7,,,55,127
21067,note_off,0,0,0,,7,,,43,127
21069,note_on,2,0,0,,5,,,41,127
21069,note_on,0,0,0,,5,,,53,127
21069,note_on,0,0,0,,2,,,62,127
21172,note_off,103,0,0,,2,,,62,127
21174,note_on,2,0,0,,12,,,59,127
21277,note_off,103,0,0,,12,,,59,127
21277,note_off,0,0,0,,5,,,53,127
21277,note_off,0,0,0,,5,,,41,127
21279,note_on,2,0,0,,3,,,39,127
21279,note_on,0,0,0,,3,,,51,127
21279,note_on,0,0,0,,3,,,63,127
21382,note_off,103,0,0,,3,,,63,127
21384,note_on,2,0,0,,0,,,60,127
21487,note_off,103,0,0,,0,,,60,127
21487,note_off,0,0,0,,3,,,51,127
21487,note_off,0,0,0,,3,,,39,127
21489,note_on,2,0,0,,2,,,38,127
21489,note_on,0,0,0,,2,,,50,127
21489,note_on,0,0,0,,5,,,65,127
21592,note_off,103,0,0,,5,,,65,127
21594,note_on,2,0,0,,2,,,62,127
21697,note_off,103,0,0,,2,,,62,127
21697,note_off,0,0,0,,2,,,50,127
21697,note_off,0,0,0,,2,,,38,127
21699,note_on,2,0,0,,0,,,36,127
21699,note_on,0,0,0,,0,,,48,127
21699,note_on,0,0,0,,7,,,67,127
21802,note_off,103,0,0,,7,,,67,127
21804,note_on,2,0,0,,3,,,63,127
21907,note_off,103,0,0,,3,,,63,127
21907,note_off,0,0,0,,0,,,48,127
21907,note_off,0,0,0,,0,,,36,127
21909,note_on,2,0,0,,12,,,35,127
21909,note_on,0,0,0,,12,,,47,127
21909,note_on,0,0,0,,8,,,68,127
22116,note_off,207,0,0,,8,,,68,127
22118,note_on,2,0,0,,12,,,59,127
22221,note_off,103,0,0,,12,,,59,127
22223,note_on,2,0,0,,0,,,60,127
22323,note_off,100,0,0,,12,,,47,127
22323,note_off,0,0,0,,12,,,35,127
22325,note_off,2,0,0,,0,,,60,127
22327,note_on,2,0,0,,2,,,62,127
22430,note_off,103,0,0,,2,,,62,127
22432,note_on,2,0,0,,12,,,59,127
22535,note_off,103,0,0,,12,,,59,127
22537,note_on,2,0,0,,8,,,44,127
22537,note_on,0,0,0,,8,,,56,127
22537,note_on,0,0,0,,3,,,63,127
22640,note_off,103,0,0,,3,,,63,127
22642,note_on,2,0,0,,0,,,60,127
22745,note_off,103,0,0,,0,,,60,127
22745,note_off,0,0,0,,8,,,56,127
22745,note_off,0,0,0,,8,,,44,127
22747,note_on,2,0,0,,7,,,43,127
22747,note_on,0,0,0,,7,,,55,127
22747,note_on,0,0,0,,5,,,65,127
22852,note_on,105,0,0,,2,,,62,127
22904,note_off,52,0,0,,5,,,65,127
22954,note_off,50,0,0,,7,,,55,127
22954,note_off,0,0,0,,7,,,43,127
22956,note_on,2,0,0,,5,,,53,127
22956,note_on,0,0,0,,5,,,41,127
22956,note_on,0,0,0,,12,,,71,127
23008,note_off,52,0,0,,2,,,62,127
23060,note_on,52,0,0,,2,,,62,127
23112,note_off,52,0,0,,12,,,71,127
23162,note_off,50,0,0,,5,,,41,127
23162,note_off,0,0,0,,5,,,53,127
23164,note_on,2,0,0,,3,,,39,127
23164,note_on,0,0,0,,3,,,51,127
23164,note_on,0,0,0,,0,,,72,127
23216,note_off,52,0,0,,2,,,62,127
23268,note_on,52,0,0,,3,,,63,127
23320,note_off,52,0,0,,0,,,72,127
23370,note_off,50,0,0,,3,,,51,127
23370,note_off,0,0,0,,3,,,39,127
23372,note_on,2,0,0,,2,,,38,127
23372,note_on,0,0,0,,2,,,50,127
23372,note_on,0,0,0,,2,,,74,127
23424,note_off,52,0,0,,3,,,63,127
23476,note_on,52,0,0,,5,,,65,127
23528,note_off,52,0,0,,2,,,74,127
23578,note_off,50,0,0,,5,,,65,127
23578,note_off,0,0,0,,2,,,50,127
23578,note_off,0,0,0,,2,,,38,127
23580,note_on,2,0,0,,0,,,36,127
23580,note_on,0,0,0,,0,,,48,127
23580,note_on,0,0,0,,3,,,75,127
23787,note_off,207,0,0,,3,,,75,127
23789,note_on,2,0,0,,7,,,67,127
23892,note_off,103,0,0,,7,,,67,127
23894,note_on,2,0,0,,10,,,69,127
23994,note_off,100,0,0,,0,,,48,127
23994,note_off,0,0,0,,0,,,36,127
23996,note_off,2,0,0,,10,,,69,127
23998,note_on,2,0,0,,12,,,71,127
24101,note_off,103,0,0,,12,,,71,127
24103,note_on,2,0,0,,7,,,67,127
24206,note_off,103,0,0,,7,,,67,127
24208,note_on,2,0,0,,7,,,55,127
24208,note_on,0,0,0,,7,,,67,127
24208,note_on,0,0,0,,0,,,72,127
24311,note_off,103,0,0,,0,,,72,127
24313,note_on,2,0,0,,8,,,68,127
24416,note_off,103,0,0,,8,,,68,127
24416,note_off,0,0,0,,7,,,67,127
24416,note_off,0,0,0,,7,,,55,127
24418,note_on,2,0,0,,5,,,65,127
24418,note_on,0,0,0,,5,,,53,127
24418,note_on,0,0,0,,2,,,74,127
24521,note_off,103,0,0,,2,,,74,127
24523,note_on,2,0,0,,12,,,71,127
24626,note_off,103,0,0,,12,,,71,127
24626,note_off,0,0,0,,5,,,53,127
24626,note_off,0,0,0,,5,,,65,127
24628,note_on,2,0,0,,3,,,51,127
24628,note_on,0,0,0,,3,,,63,127
24628,note_on,0,0,0,,3,,,75,127
24731,note_off,103,0,0,,3,,,75,127
24733,note_on,2,0,0,,0,,,72,127
24836,note_off,103,0,0,,0,,,72,127
24836,note_off,0,0,0,,3,,,63,127
24836,note_off,0,0,0,,3,,,51,127
24838,note_on,2,0,0,,2,,,50,127
24838,note_on,0,0,0,,2,,,62,127
24838,note_on,0,0,0,,5,,,77,127
24941,note_off,103,0,0,,5,,,77,127
24943,note_on,2,0,0,,2,,,74,127
25046,note_off,103,0,0,,2,,,74,127
25046,note_off,0,0,0,,2,,,62,127
25046,note_off,0,0,0,,2,,,50,127
25048,note_on,2,0,0,,0,,,48,127
25048,note_on,0,0,0,,0,,,60,127
25048,note_on,0,0,0,,7,,,79,127
25151,note_off,103,0,0,,7,,,79,127
25153,note_on,2,0,0,,3,,,75,127
25256,note_off,103,0,0,,3,,,75,127
25256,note_off,0,0,0,,0,,,60,127
25256,note_off,0,0,0,,0,,,48,127
25258,note_on,2,0,0,,12,,,59,127
25258,note_on,0,0,0,,12,,,47,127
25258,note_on,0,0,0,,11,,,82,127
25361,note_off,103,0,0,,11,,,82,127
25363,note_on,2,0,0,,8,,,80,127
25466,note_off,103,0,0,,8,,,80,127
25468,note_on,2,0,0,,7,,,79,127
25571,note_off,103,0,0,,7,,,79,127
25573,note_on,2,0,0,,5,,,77,127
25676,note_off,103,0,0,,5,,,77,127
25676,note_off,0,0,0,,12,,,47,127
25676,note_off,0,0,0,,12,,,59,127
25678,note_on,2,0,0,,0,,,48,127
25678,note_on,0,0,0,,0,,,60,127
25678,note_on,0,0,0,,3,,,75,127
25781,note_off,103,0,0,,3,,,75,127
25783,note_on,2,0,0,,2,,,74,127
25886,note_off,103,0,0,,2,,,74,127
25886,note_off,0,0,0,,0,,,60,127
25886,note_off,0,0,0,,0,,,48,127
25888,note_on,2,0,0,,5,,,53,127
25888,note_on,0,0,0,,0,,,72,127
25991,note_off,103,0,0,,0,,,72,127
25993,note_on,2,0,0,,12,,,71,127
26096,note_off,103,0,0,,12,,,71,127
26096,note_off,0,0,0,,5,,,53,127
26098,note_on,2,0,0,,7,,,55,127
26098,note_on,0,0,0,,0,,,72,127
26253,note_off,155,0,0,,0,,,72,127
26255,note_on,2,0,0,,2,,,74,127
26305,note_off,50,0,0,,2,,,74,127
26307,note_on,2,0,0,,0,,,72,127
26357,note_off,50,0,0,,0,,,72,127
26359,note_on,2,0,0,,12,,,71,127
26409,note_off,50,0,0,,12,,,71,127
26411,note_on,2,0,0,,0,,,72,127
26461,note_off,50,0,0,,0,,,72,127
26463,note_on,2,0,0,,2,,,74,127
26513,note_off,50,0,0,,2,,,74,127
26515,note_on,2,0,0,,7,,,43,127
26515,note_on,0,0,0,,3,,,75,127
26565,note_off,50,0,0,,3,,,75,127
26567,note_on,2,0,0,,2,,,74,127
26617,note_off,50,0,0,,2,,,74,127
26619,note_on,2,0,0,,3,,,75,127
26669,note_off,50,0,0,,3,,,75,127
26671,note_on,2,0,0,,2,,,74,127
26721,note_off,50,0,0,,2,,,74,127
26722,note_off,1,0,0,,7,,,55,127
26723,note_on,1,0,0,,3,,,75,127
26773,note_off,50,0,0,,3,,,75,127
26775,note_on,2,0,0,,2,,,74,127
26825,note_off,50,0,0,,2,,,74,127
26827,note_on,2,0,0,,0,,,72,127
26930,note_off,103,0,0,,0,,,72,127
26930,note_off,0,0,0,,7,,,43,127
26932,note_on,2,0,0,,0,,,36,127
26932,note_on,0,0,0,,0,,,72,127
27139,note_off,207,0,0,,0,,,72,127
27141,note_on,2,0,0,,7,,,55,127
27244,note_off,103,0,0,,7,,,55,127
27246,note_off,2,0,0,,0,,,36,127
27246,note_on,0,0,0,,10,,,57,127
27349,note_off,103,0,0,,10,,,57,127
27351,note_on,2,0,0,,12,,,59,127
27454,note_off,103,0,0,,12,,,59,127
27456,note_on,2,0,0,,7,,,55,127
27559,note_off,103,0,0,,7,,,55,127
27561,note_on,2,0,0,,7,,,43,127
27561,note_on,0,0,0,,7,,,55,127
27561,note_on,0,0,0,,0,,,60,127
27664,note_off,103,0,0,,0,,,60,127
27666,note_on,2,0,0,,8,,,56,127
27769,note_off,103,0,0,,8,,,56,127
27769,note_off,0,0,0,,7,,,55,127
27769,note_off,0,0,0,,7,,,43,127
27771,note_on,2,0,0,,5,,,53,127
27771,note_on,0,0,0,,5,,,41,127
27771,note_on,0,0,0,,2,,,62,127
27874,note_off,103,0,0,,2,,,62,127
27876,note_on,2,0,0,,12,,,59,127
27979,note_off,103,0,0,,12,,,59,127
27979,note_off,0,0,0,,5,,,41,127
27979,note_off,0,0,0,,5,,,53,127
27981,note_on,2,0,0,,3,,,39,127
27981,note_on,0,0,0,,3,,,51,127
27981,note_on,0,0,0,,3,,,63,127
28084,note_off,103,0,0,,3,,,63,127
28086,note_on,2,0,0,,0,,,60,127
28189,note_off,103,0,0,,0,,,60,127
28189,note_off,0,0,0,,3,,,51,127
28189,note_off,0,0,0,,3,,,39,127
28191,note_on,2,0,0,,2,,,38,127
28191,note_on,0,0,0,,2,,,50,127
28191,note_on,0,0,0,,5,,,65,127
28294,note_off,103,0,0,,5,,,65,127
28296,note_on,2,0,0,,2,,,62,127
28399,note_off,103,0,0,,2,,,62,127
28399,note_off,0,0,0,,2,,,50,127
28399,note_off,0,0,0,,2,,,38,127
28401,note_on,2,0,0,,0,,,36,127
28401,note_on,0,0,0,,0,,,48,127
28401,note_on,0,0,0,,7,,,67,127
28504,note_off,103,0,0,,7,,,67,127
28506,note_on,2,0,0,,3,,,63,127
28609,note_off,103,0,0,,3,,,63,127
28609,note_off,0,0,0,,0,,,48,127
28609,note_off,0,0,0,,0,,,36,127
28611,note_on,2,0,0,,12,,,47,127
28611,note_on,0,0,0,,12,,,35,127
28611,note_on,0,0,0,,8,,,68,127
28818,note_off,207,0,0,,8,,,68,127
28820,note_on,2,0,0,,12,,,59,127
28923,note_off,103,0,0,,12,,,59,127
28925,note_on,2,0,0,,0,,,60,127
29025,note_off,100,0,0,,12,,,35,127
29025,note_off,0,0,0,,12,,,47,127
29027,note_off,2,0,0,,0,,,60,127
29029,note_on,2,0,0,,2,,,62,127
29132,note_off,103,0,0,,2,,,62,127
29134,note_on,2,0,0,,12,,,59,127
29237,note_off,103,0,0,,12,,,59,127
29239,note_on,2,0,0,,8,,,44,127
29239,note_on,0,0,0,,8,,,56,127
29239,note_on,0,0,0,,3,,,63,127
29342,note_off,103,0,0,,3,,,63,127
29344,note_on,2,0,0,,0,,,60,127
29447,note_off,103,0,0,,0,,,60,127
29447,note_off,0,0,0,,8,,,56,127
29447,note_off,0,0,0,,8,,,44,127
29449,note_on,2,0,0,,7,,,43,127
29449,note_on,0,0,0,,7,,,55,127
29449,note_on,0,0,0,,5,,,65,127
29552,note_off,103,0,0,,5,,,65,127
29554,note_on,2,0,0,,2,,,62,127
29657,note_off,103,0,0,,2,,,62,127
29657,note_off,0,0,0,,7,,,55,127
29657,note_off,0,0,0,,7,,,43,127
29659,note_on,2,0,0,,5,,,53,127
29659,note_on,0,0,0,,5,,,41,127
29659,note_on,0,0,0,,12,,,71,127
29764,note_on,105,0,0,,2,,,62,127
29867,note_off,103,0,0,,2,,,62,127
29867,note_off,0,0,0,,12,,,71,127
29867,note_off,0,0,0,,5,,,41,127
29867,note_off,0,0,0,,5,,,53,127
29869,note_on,2,0,0,,3,,,39,127
29869,note_on,0,0,0,,3,,,51,127
29869,note_on,0,0,0,,0,,,72,127
29974,note_on,105,0,0,,3,,,63,127
30077,note_off,103,0,0,,3,,,63,127
30077,note_off,0,0,0,,0,,,72,127
30077,note_off,0,0,0,,3,,,51,127
30077,note_off,0,0,0,,3,,,39,127
30079,note_on,2,0,0,,2,,,38,127
30079,note_on,0,0,0,,2,,,50,127
30079,note_on,0,0,0,,2,,,74,127
30184,note_on,105,0,0,,5,,,65,127
30287,note_off,103,0,0,,5,,,65,127
30287,note_off,0,0,0,,2,,,74,127
30287,note_off,0,0,0,,2,,,50,127
30287,note_off,0,0,0,,2,,,38,127
30289,note_on,2,0,0,,0,,,36,127
30289,note_on,0,0,0,,0,,,48,127
30289,note_on,0,0,0,,3,,,75,127
30496,note_off,207,0,0,,3,,,75,127
30498,note_on,2,0,0,,7,,,67,127
30601,note_off,103,0,0,,7,,,67,127
30603,note_on,2,0,0,,10,,,69,127
30703,note_off,100,0,0,,0,,,48,127
30703,note_off,0,0,0,,0,,,36,127
30705,note_off,2,0,0,,10,,,69,127
30707,note_on,2,0,0,,12,,,71,127
30810,note_off,103,0,0,,12,,,71,127
30812,note_on,2,0,0,,7,,,67,127
30915,note_off,103,0,0,,7,,,67,127
30917,note_on,2,0,0,,7,,,67,127
30917,note_on,0,0,0,,7,,,55,127
30917,note_on,0,0,0,,0,,,72,127
31020,note_off,103,0,0,,0,,,72,127
31022,note_on,2,0,0,,8,,,68,127
31125,note_off,103,0,0,,8,,,68,127
31125,note_off,0,0,0,,7,,,55,127
31125,note_off,0,0,0,,7,,,67,127
31127,note_on,2,0,0,,5,,,53,127
31127,note_on,0,0,0,,5,,,65,127
31127,note_on,0,0,0,,2,,,74,127
31230,note_off,103,0,0,,2,,,74,127
31232,note_on,2,0,0,,12,,,71,127
31335,note_off,103,0,0,,12,,,71,127
31335,note_off,0,0,0,,5,,,65,127
31335,note_off,0,0,0,,5,,,53,127
31337,note_on,2,0,0,,3,,,51,127
31337,note_on,0,0,0,,3,,,63,127
31337,note_on,0,0,0,,3,,,75,127
31440,note_off,103,0,0,,3,,,75,127
31442,note_on,2,0,0,,0,,,72,127
31545,note_off,103,0,0,,0,,,72,127
31545,note_off,0,0,0,,3,,,63,127
31545,note_off,0,0,0,,3,,,51,127
31547,note_on,2,0,0,,2,,,50,127
31547,note_on,0,0,0,,2,,,62,127
31547,note_on,0,0,0,,5,,,77,127
31650,note_off,103,0,0,,5,,,77,127
31652,note_on,2,0,0,,2,,,74,127
31755,note_off,103,0,0,,2,,,74,127
31755,note_off,0,0,0,,2,,,62,127
31755,note_off,0,0,0,,2,,,50,127
31757,note_on,2,0,0,,0,,,48,127
31757,note_on,0,0,0,,0,,,60,127
31757,note_on,0,0,0,,7,,,79,127
31860,note_off,103,0,0,,7,,,79,127
31862,note_on,2,0,0,,3,,,75,127
31965,note_off,103,0,0,,3,,,75,127
31965,note_off,0,0,0,,0,,,60,127
31965,note_off,0,0,0,,0,,,48,127
31967,note_on,2,0,0,,12,,,47,127
31967,note_on,0,0,0,,12,,,59,127
31967,note_on,0,0,0,,11,,,82,127
32070,note_off,103,0,0,,11,,,82,127
32072,note_on,2,0,0,,8,,,80,127
32175,note_off,103,0,0,,8,,,80,127
32177,note_on,2,0,0,,7,,,79,127
32280,note_off,103,0,0,,7,,,79,127
32282,note_on,2,0,0,,5,,,77,127
32385,note_off,103,0,0,,5,,,77,127
32385,note_off,0,0,0,,12,,,59,127
32385,note_off,0,0,0,,12,,,47,127
32387,note_on,2,0,0,,0,,,48,127
32387,note_on,0,0,0,,0,,,60,127
32387,note_on,0,0,0,,3,,,75,127
32594,note_off,207,0,0,,3,,,75,127
32594,note_off,0,0,0,,0,,,60,127
32594,note_off,0,0,0,,0,,,48,127
32596,note_on,2,0,0,,5,,,53,127
32596,note_on,0,0,0,,2,,,74,127
32699,note_off,103,0,0,,2,,,74,127
32701,note_on,2,0,0,,0,,,72,127
32804,note_off,103,0,0,,0,,,72,127
32804,note_off,0,0,0,,5,,,53,127
32806,note_on,2,0,0,,7,,,55,127
32806,note_on,0,0,0,,0,,,72,127
32961,note_off,155,0,0,,0,,,72,127
32963,note_on,2,0,0,,2,,,74,127
33013,note_off,50,0,0,,2,,,74,127
33015,note_on,2,0,0,,0,,,72,127
33065,note_off,50,0,0,,0,,,72,127
33067,note_on,2,0,0,,12,,,71,127
33117,note_off,50,0,0,,12,,,71,127
33119,note_on,2,0,0,,0,,,72,127
33169,note_off,50,0,0,,0,,,72,127
33171,note_on,2,0,0,,2,,,74,127
33221,note_off,50,0,0,,2,,,74,127
33221,note_off,0,0,0,,7,,,55,127
33223,note_on,2,0,0,,7,,,43,127
33223,note_on,0,0,0,,3,,,75,127
33273,note_off,50,0,0,,3,,,75,127
33275,note_on,2,0,0,,2,,,74,127
33325,note_off,50,0,0,,2,,,74,127
33327,note_on,2,0,0,,3,,,75,127
33377,note_off,50,0,0,,3,,,75,127
33379,note_on,2,0,0,,2,,,74,127
33429,note_off,50,0,0,,2,,,74,127
33431,note_on,2,0,0,,3,,,75,127
33481,note_off,50,0,0,,3,,,75,127
33483,note_on,2,0,0,,2,,,74,127
33533,note_off,50,0,0,,2,,,74,127
33535,note_on,2,0,0,,0,,,72,127
33638,note_off,103,0,0,,0,,,72,127
33638,note_off,0,0,0,,7,,,43,127
33640,note_on,2,0,0,,8,,,56,127
33640,note_on,0,0,0,,0,,,84,127
33640,note_on,0,0,0,,0,,,72,127
33847,note_off,207,0,0,,0,,,84,127
33849,note_on,2,0,0,,11,,,82,127
33952,note_off,103,0,0,,11,,,82,127
33954,note_on,2,0,0,,8,,,80,127
34054,note_off,100,0,0,,0,,,72,127
34056,note_off,2,0,0,,8,,,80,127
34056,note_off,0,0,0,,8,,,56,127
34058,note_on,2,0,0,,5,,,53,127
34058,note_on,0,0,0,,8,,,80,127
34265,note_off,207,0,0,,8,,,80,127
34267,note_on,2,0,0,,7,,,79,127
34370,note_off,103,0,0,,7,,,79,127
34372,note_on,2,0,0,,5,,,77,127
34475,note_off,103,0,0,,5,,,77,127
34475,note_off,0,0,0,,5,,,53,127
34477,note_on,2,0,0,,7,,,55,127
34477,note_on,0,0,0,,5,,,77,127
34684,note_off,207,0,0,,5,,,77,127
34686,note_on,2,0,0,,3,,,75,127
34789,note_off,103,0,0,,3,,,75,127
34791,note_on,2,0,0,,2,,,74,127
34894,note_off,103,0,0,,2,,,74,127
34894,note_off,0,0,0,,7,,,55,127
34896,note_on,2,0,0,,7,,,43,127
34896,note_on,0,0,0,,2,,,74,127
35103,note_off,207,0,0,,2,,,74,127
35105,note_on,2,0,0,,0,,,72,127
35208,note_off,103,0,0,,0,,,72,127
35210,note_on,2,0,0,,12,,,71,127
35313,note_off,103,0,0,,12,,,71,127
35313,note_off,0,0,0,,7,,,43,127
35315,note_on,2,0,0,,8,,,56,127
35315,note_on,0,0,0,,0,,,72,127
35315,note_on,0,0,0,,0,,,84,127
35522,note_off,207,0,0,,0,,,84,127
35524,note_on,2,0,0,,11,,,82,127
35627,note_off,103,0,0,,11,,,82,127
35629,note_on,2,0,0,,8,,,80,127
35729,note_off,100,0,0,,0,,,72,127
35731,note_off,2,0,0,,8,,,80,127
35731,note_off,0,0,0,,8,,,56,127
35733,note_on,2,0,0,,5,,,53,127
35733,note_on,0,0,0,,8,,,80,127
35940,note_off,207,0,0,,8,,,80,127
35942,note_on,2,0,0,,7,,,79,127
36045,note_off,103,0,0,,7,,,79,127
36047,note_on,2,0,0,,5,,,77,127
36150,note_off,103,0,0,,5,,,77,127
36150,note_off,0,0,0,,5,,,53,127
36152,note_on,2,0,0,,7,,,55,127
36152,note_on,0,0,0,,3,,,75,127
36255,note_off,103,0,0,,3,,,75,127
36257,note_on,2,0,0,,7,,,79,127
36360,note_off,103,0,0,,7,,,79,127
36362,note_on,2,0,0,,0,,,72,127
36465,note_off,103,0,0,,0,,,72,127
36467,note_on,2,0,0,,7,,,67,127
36570,note_off,103,0,0,,7,,,67,127
36570,note_off,0,0,0,,7,,,55,127
36572,note_on,2,0,0,,7,,,43,127
36572,note_on,0,0,0,,3,,,75,127
36640,note_off,68,0,0,,3,,,75,127
36642,note_on,2,0,0,,2,,,74,127
36710,note_off,68,0,0,,2,,,74,127
36712,note_on,2,0,0,,3,,,75,127
36780,note_off,68,0,0,,3,,,75,127
36782,note_on,2,0,0,,2,,,74,127
36850,note_off,68,0,0,,2,,,74,127
36852,note_on,2,0,0,,0,,,72,127
36920,note_off,68,0,0,,0,,,72,127
36922,note_on,2,0,0,,2,,,74,127
36990,note_off,68,0,0,,2,,,74,127
36990,note_off,0,0,0,,7,,,43,127
36992,note_on,2,0,0,,0,,,36,127
36992,note_on,0,0,0,,0,,,72,127
37619,note_off,627,0,0,,0,,,72,127
37827,note_off,208,0,0,,0,,,36,127
37829,note_on,2,0,0,,7,,,67,127
37829,note_on,0,0,0,,7,,,79,127
38246,note_off,417,0,0,,7,,,79,127
38246,note_off,0,0,0,,7,,,67,127
38248,note_on,2,0,0,,4,,,64,127
38248,note_on,0,0,0,,4,,,76,127
38665,note_off,417,0,0,,4,,,76,127
38665,note_off,0,0,0,,4,,,64,127
38667,note_on,2,0,0,,0,,,60,127
38667,note_on,0,0,0,,0,,,72,127
39084,note_off,417,0,0,,0,,,72,127
39084,note_off,0,0,0,,0,,,60,127
39086,note_on,2,0,0,,8,,,56,127
39086,note_on,0,0,0,,8,,,68,127
39503,note_off,417,0,0,,8,,,68,127
39503,note_off,0,0,0,,8,,,56,127
39505,note_on,2,0,0,,5,,,53,127
39505,note_on,0,0,0,,5,,,65,127
39922,note_off,417,0,0,,5,,,65,127
39922,note_off,0,0,0,,5,,,53,127
39924,note_on,2,0,0,,1,,,49,127
39924,note_on,0,0,0,,1,,,61,127
40341,note_off,417,0,0,,1,,,61,127
40341,note_off,0,0,0,,1,,,49,127
40343,note_on,2,0,0,,0,,,48,127
40343,note_on,0,0,0,,0,,,60,127
40550,note_off,207,0,0,,0,,,60,127
40552,note_on,2,0,0,,0,,,60,127
40655,note_off,103,0,0,,0,,,60,127
40657,note_on,2,0,0,,1,,,61,127
40760,note_off,103,0,0,,1,,,61,127
40762,note_on,2,0,0,,3,,,63,127
40865,note_off,103,0,0,,3,,,63,127
40867,note_on,2,0,0,,0,,,60,127
40970,note_off,103,0,0,,0,,,60,127
40970,note_off,0,0,0,,0,,,48,127
40972,note_on,2,0,0,,0,,,48,127
40972,note_on,0,0,0,,0,,,60,127
40972,note_on,0,0,0,,5,,,65,127
41075,note_off,103,0,0,,5,,,65,127
41077,note_on,2,0,0,,2,,,62,127
41180,note_off,103,0,0,,2,,,62,127
41180,note_off,0,0,0,,0,,,60,127
41180,note_off,0,0,0,,0,,,48,127
41182,note_on,2,0,0,,11,,,46,127
41182,note_on,0,0,0,,11,,,58,127
41182,note_on,0,0,0,,7,,,67,127
41285,note_off,103,0,0,,7,,,67,127
41287,note_on,2,0,0,,3,,,63,127
41390,note_off,103,0,0,,3,,,63,127
41390,note_off,0,0,0,,11,,,58,127
41390,note_off,0,0,0,,11,,,46,127
41392,note_on,2,0,0,,8,,,44,127
41392,note_on,0,0,0,,8,,,56,127
41392,note_on,0,0,0,,8,,,68,127
41495,note_off,103,0,0,,8,,,68,127
41497,note_on,2,0,0,,5,,,65,127
41600,note_off,103,0,0,,5,,,65,127
41600,note_off,0,0,0,,8,,,56,127
41600,note_off,0,0,0,,8,,,44,127
41602,note_on,2,0,0,,7,,,55,127
41602,note_on,0,0,0,,7,,,43,127
41602,note_on,0,0,0,,11,,,70,127
41705,note_off,103,0,0,,11,,,70,127
41707,note_on,2,0,0,,7,,,67,127
41810,note_off,103,0,0,,7,,,67,127
41810,note_off,0,0,0,,7,,,43,127
41810,note_off,0,0,0,,7,,,55,127
41812,note_on,2,0,0,,5,,,53,127
41812,note_on,0,0,0,,5,,,41,127
41812,note_on,0,0,0,,0,,,72,127
41915,note_off,103,0,0,,0,,,72,127
41917,note_on,2,0,0,,8,,,68,127
42020,note_off,103,0,0,,8,,,68,127
42020,note_off,0,0,0,,5,,,41,127
42020,note_off,0,0,0,,5,,,53,127
42022,note_on,2,0,0,,3,,,51,127
42022,note_on,0,0,0,,3,,,39,127
42022,note_on,0,0,0,,1,,,73,127
42229,note_off,207,0,0,,1,,,73,127
42231,note_on,2,0,0,,1,,,61,127
42334,note_off,103,0,0,,1,,,61,127
42336,note_on,2,0,0,,3,,,63,127
42436,note_off,100,0,0,,3,,,39,127
42436,note_off,0,0,0,,3,,,51,127
42438,note_off,2,0,0,,3,,,63,127
42440,note_on,2,0,0,,5,,,65,127
42543,note_off,103,0,0,,5,,,65,127
42545,note_on,2,0,0,,1,,,61,127
42648,note_off,103,0,0,,1,,,61,127
42650,note_on,2,0,0,,1,,,49,127
42650,note_on,0,0,0,,1,,,61,127
42650,note_on,0,0,0,,7,,,67,127
42753,note_off,103,0,0,,7,,,67,127
42755,note_on,2,0,0,,3,,,63,127
42858,note_off,103,0,0,,3,,,63,127
42858,note_off,0,0,0,,1,,,61,127
42858,note_off,0,0,0,,1,,,49,127
42860,note_on,2,0,0,,0,,,48,127
42860,note_on,0,0,0,,0,,,60,127
42860,note_on,0,0,0,,8,,,68,127
42963,note_off,103,0,0,,8,,,68,127
42965,note_on,2,0,0,,5,,,65,127
43068,note_off,103,0,0,,5,,,65,127
43068,note_off,0,0,0,,0,,,60,127
43068,note_off,0,0,0,,0,,,48,127
43070,note_on,2,0,0,,11,,,46,127
43070,note_on,0,0,0,,11,,,58,127
43070,note_on,0,0,0,,11,,,70,127
43173,note_off,103,0,0,,11,,,70,127
43175,note_on,2,0,0,,7,,,67,127
43278,note_off,103,0,0,,7,,,67,127
43278,note_off,0,0,0,,11,,,58,127
43278,note_off,0,0,0,,11,,,46,127
43280,note_on,2,0,0,,8,,,44,127
43280,note_on,0,0,0,,8,,,56,127
43280,note_on,0,0,0,,0,,,72,127
43383,note_off,103,0,0,,0,,,72,127
43385,note_on,2,0,0,,8,,,68,127
43488,note_off,103,0,0,,8,,,68,127
43488,note_off,0,0,0,,8,,,56,127
43488,note_off,0,0,0,,8,,,44,127
43490,note_on,2,0,0,,7,,,43,127
43490,note_on,0,0,0,,7,,,55,127
43490,note_on,0,0,0,,1,,,73,127
43593,note_off,103,0,0,,1,,,73,127
43595,note_on,2,0,0,,11,,,70,127
43698,note_off,103,0,0,,11,,,70,127
43698,note_off,0,0,0,,7,,,55,127
43698,note_off,0,0,0,,7,,,43,127
43700,note_on,2,0,0,,8,,,44,127
43700,note_on,0,0,0,,8,,,56,127
43700,note_on,0,0,0,,0,,,72,127
43907,note_off,207,0,0,,0,,,72,127
43909,note_on,2,0,0,,8,,,68,127
44012,note_off,103,0,0,,8,,,68,127
44014,note_on,2,0,0,,11,,,70,127
44114,note_off,100,0,0,,8,,,56,127
44114,note_off,0,0,0,,8,,,44,127
44116,note_off,2,0,0,,11,,,70,127
44118,note_on,2,0,0,,0,,,72,127
44221,note_off,103,0,0,,0,,,72,127
44223,note_on,2,0,0,,8,,,68,127
44326,note_off,103,0,0,,8,,,68,127
44328,note_on,2,0,0,,8,,,56,127
44328,note_on,0,0,0,,8,,,68,127
44328,note_on,0,0,0,,1,,,73,127
44431,note_off,103,0,0,,1,,,73,127
44433,note_on,2,0,0,,11,,,70,127
44536,note_off,103,0,0,,11,,,70,127
44536,note_off,0,0,0,,8,,,68,127
44536,note_off,0,0,0,,8,,,56,127
44538,note_on,2,0,0,,6,,,54,127
44538,note_on,0,0,0,,6,,,66,127
44538,note_on,0,0,0,,3,,,75,127
44641,note_off,103,0,0,,3,,,75,127
44643,note_on,2,0,0,,0,,,72,127
44746,note_off,103,0,0,,0,,,72,127
44746,note_off,0,0,0,,6,,,66,127
44746,note_off,0,0,0,,6,,,54,127
44748,note_on,2,0,0,,5,,,53,127
44748,note_on,0,0,0,,5,,,65,127
44748,note_on,0,0,0,,5,,,77,127
44851,note_off,103,0,0,,5,,,77,127
44853,note_on,2,0,0,,1,,,73,127
44956,note_off,103,0,0,,1,,,73,127
44956,note_off,0,0,0,,5,,,65,127
44956,note_off,0,0,0,,5,,,53,127
44958,note_on,2,0,0,,3,,,51,127
44958,note_on,0,0,0,,3,,,63,127
44958,note_on,0,0,0,,6,,,78,127
45061,note_off,103,0,0,,6,,,78,127
45063,note_on,2,0,0,,3,,,75,127
45166,note_off,103,0,0,,3,,,75,127
45166,note_off,0,0,0,,3,,,63,127
45166,note_off,0,0,0,,3,,,51,127
45168,note_on,2,0,0,,1,,,49,127
45168,note_on,0,0,0,,1,,,61,127
45168,note_on,0,0,0,,8,,,80,127
45271,note_off,103,0,0,,8,,,80,127
45273,note_on,2,0,0,,5,,,77,127
45376,note_off,103,0,0,,5,,,77,127
45376,note_off,0,0,0,,1,,,61,127
45376,note_off,0,0,0,,1,,,49,127
45378,note_on,2,0,0,,0,,,48,127
45378,note_on,0,0,0,,0,,,60,127
45378,note_on,0,0,0,,6,,,78,127
45585,note_off,207,0,0,,6,,,78,127
45587,note_on,2,0,0,,3,,,63,127
45690,note_off,103,0,0,,3,,,63,127
45692,note_on,2,0,0,,5,,,65,127
45795,note_off,103,0,0,,5,,,65,127
45797,note_on,2,0,0,,6,,,66,127
45900,note_off,103,0,0,,6,,,66,127
45902,note_on,2,0,0,,3,,,63,127
45946,note_off,44,0,0,,0,,,60,127
45946,note_off,0,0,0,,0,,,48,127
46005,note_off,59,0,0,,3,,,63,127
46007,note_on,2,0,0,,11,,,46,127
46007,note_on,0,0,0,,11,,,58,127
46007,note_on,0,0,0,,11,,,70,127
46110,note_off,103,0,0,,11,,,70,127
46112,note_on,2,0,0,,6,,,66,127
46215,note_off,103,0,0,,6,,,66,127
46215,note_off,0,0,0,,11,,,58,127
46215,note_off,0,0,0,,11,,,46,127
46217,note_on,2,0,0,,8,,,44,127
46217,note_on,0,0,0,,8,,,56,127
46217,note_on,0,0,0,,0,,,72,127
46320,note_off,103,0,0,,0,,,72,127
46322,note_on,2,0,0,,8,,,68,127
46425,note_off,103,0,0,,8,,,68,127
46425,note_off,0,0,0,,8,,,56,127
46425,note_off,0,0,0,,8,,,44,127
46427,note_on,2,0,0,,6,,,42,127
46427,note_on,0,0,0,,6,,,54,127
46427,note_on,0,0,0,,0,,,72,127
46530,note_off,103,0,0,,0,,,72,127
46532,note_on,2,0,0,,8,,,68,127
46635,note_off,103,0,0,,8,,,68,127
46635,note_off,0,0,0,,6,,,54,127
46635,note_off,0,0,0,,6,,,42,127
46637,note_on,2,0,0,,5,,,53,127
46637,note_on,0,0,0,,5,,,41,127
46637,note_on,0,0,0,,1,,,73,127
46740,note_off,103,0,0,,1,,,73,127
46742,note_on,2,0,0,,11,,,70,127
46845,note_off,103,0,0,,11,,,70,127
46845,note_off,0,0,0,,5,,,41,127
46845,note_off,0,0,0,,5,,,53,127
46847,note_on,2,0,0,,3,,,39,127
46847,note_on,0,0,0,,3,,,51,127
46847,note_on,0,0,0,,3,,,75,127
46950,note_off,103,0,0,,3,,,75,127
46952,note_on,2,0,0,,0,,,72,127
47055,note_off,103,0,0,,0,,,72,127
47055,note_off,0,0,0,,3,,,51,127
47055,note_off,0,0,0,,3,,,39,127
47057,note_on,2,0,0,,1,,,37,127
47057,note_on,0,0,0,,1,,,49,127
47057,note_on,0,0,0,,5,,,77,127
47160,note_off,103,0,0,,5,,,77,127
47162,note_on,2,0,0,,3,,,75,127
47265,note_off,103,0,0,,3,,,75,127
47267,note_on,2,0,0,,1,,,73,127
47474,note_off,207,0,0,,1,,,49,127
47474,note_off,0,0,0,,1,,,37,127
47476,note_on,2,0,0,,1,,,61,127
47683,note_off,207,0,0,,1,,,73,127
47685,note_on,2,0,0,,5,,,65,127
47685,note_on,0,0,0,,5,,,77,127
47892,note_off,207,0,0,,5,,,77,127
47892,note_off,0,0,0,,5,,,65,127
47892,note_off,0,0,0,,1,,,61,127
47894,note_on,2,0,0,,0,,,60,127
47894,note_on,0,0,0,,3,,,63,127
47894,note_on,0,0,0,,5,,,77,127
47894,note_on,0,0,0,,6,,,66,127
48101,note_off,207,0,0,,5,,,77,127
48103,note_on,2,0,0,,3,,,75,127
48308,note_off,205,0,0,,6,,,66,127
48310,note_off,2,0,0,,3,,,63,127
48310,note_off,0,0,0,,0,,,60,127
48312,note_on,2,0,0,,5,,,53,127
48312,note_on,0,0,0,,3,,,63,127
48519,note_off,207,0,0,,3,,,75,127
48521,note_on,2,0,0,,10,,,69,127
48521,note_on,0,0,0,,3,,,75,127
48728,note_off,207,0,0,,3,,,75,127
48728,note_off,0,0,0,,10,,,69,127
48728,note_off,0,0,0,,3,,,63,127
48728,note_off,0,0,0,,5,,,53,127
48730,note_on,2,0,0,,3,,,63,127
48730,note_on,0,0,0,,5,,,53,127
48730,note_on,0,0,0,,3,,,75,127
48730,note_on,0,0,0,,0,,,72,127
48937,note_off,207,0,0,,0,,,72,127
48937,note_off,0,0,0,,3,,,75,127
48939,note_on,2,0,0,,11,,,70,127
48939,note_on,0,0,0,,1,,,73,127
49146,note_off,207,0,0,,5,,,53,127
49146,note_off,0,0,0,,3,,,63,127
49148,note_on,2,0,0,,4,,,64,127
49148,note_on,0,0,0,,5,,,53,127
49355,note_off,207,0,0,,1,,,73,127
49355,note_off,0,0,0,,11,,,70,127
49357,note_on,2,0,0,,1,,,73,127
49357,note_on,0,0,0,,11,,,70,127
49564,note_off,207,0,0,,11,,,70,127
49564,note_off,0,0,0,,1,,,73,127
49564,note_off,0,0,0,,5,,,53,127
49564,note_off,0,0,0,,4,,,64,127
49566,note_on,2,0,0,,5,,,65,127
49566,note_on,0,0,0,,5,,,53,127
49566,note_on,0,0,0,,1,,,73,127
49566,note_on,0,0,0,,11,,,70,127
49773,note_off,207,0,0,,11,,,70,127
49773,note_off,0,0,0,,1,,,73,127
49775,note_on,2,0,0,,0,,,72,127
49775,note_on,0,0,0,,10,,,69,127
49982,note_off,207,0,0,,10,,,69,127
49982,note_off,0,0,0,,0,,,72,127
49982,note_off,0,0,0,,5,,,53,127
49982,note_off,0,0,0,,5,,,65,127
49984,note_on,2,0,0,,1,,,61,127
50193,note_on,209,0,0,,5,,,77,127
50193,note_on,0,0,0,,5,,,65,127
50400,note_off,207,0,0,,5,,,65,127
50400,note_off,0,0,0,,5,,,77,127
50400,note_off,0,0,0,,1,,,61,127
50402,note_on,2,0,0,,3,,,63,127
50402,note_on,0,0,0,,0,,,60,127
50402,note_on,0,0,0,,5,,,77,127
50402,note_on,0,0,0,,6,,,66,127
50609,note_off,207,0,0,,5,,,77,127
50611,note_on,2,0,0,,3,,,75,127
50816,note_off,205,0,0,,6,,,66,127
50818,note_off,2,0,0,,0,,,60,127
50818,note_off,0,0,0,,3,,,63,127
50820,note_on,2,0,0,,3,,,63,127
50820,note_on,0,0,0,,5,,,53,127
51027,note_off,207,0,0,,3,,,75,127
51029,note_on,2,0,0,,10,,,69,127
51029,note_on,0,0,0,,3,,,75,127
51236,note_off,207,0,0,,3,,,75,127
51236,note_off,0,0,0,,10,,,69,127
51236,note_off,0,0,0,,5,,,53,127
51236,note_off,0,0,0,,3,,,63,127
51238,note_on,2,0,0,,5,,,53,127
51238,note_on,0,0,0,,3,,,63,127
51238,note_on,0,0,0,,3,,,75,127
51238,note_on,0,0,0,,0,,,72,127
51445,note_off,207,0,0,,0,,,72,127
51445,note_off,0,0,0,,3,,,75,127
51447,note_on,2,0,0,,11,,,70,127
51447,note_on,0,0,0,,1,,,73,127
51654,note_off,207,0,0,,3,,,63,127
51654,note_off,0,0,0,,5,,,53,127
51656,note_on,2,0,0,,5,,,53,127
51656,note_on,0,0,0,,4,,,64,127
51863,note_off,207,0,0,,1,,,73,127
51863,note_off,0,0,0,,11,,,70,127
51865,note_on,2,0,0,,11,,,70,127
51865,note_on,0,0,0,,1,,,73,127
52072,note_off,207,0,0,,1,,,73,127
52072,note_off,0,0,0,,11,,,70,127
52072,note_off,0,0,0,,4,,,64,127
52072,note_off,0,0,0,,5,,,53,127
52074,note_on,2,0,0,,5,,,65,127
52074,note_on,0,0,0,,5,,,53,127
52074,note_on,0,0,0,,11,,,70,127
52074,note_on,0,0,0,,1,,,73,127
52281,note_off,207,0,0,,1,,,73,127
52281,note_off,0,0,0,,11,,,70,127
52283,note_on,2,0,0,,0,,,72,127
52283,note_on,0,0,0,,10,,,69,127
52488,note_off,205,0,0,,5,,,53,127
52490,note_off,2,0,0,,10,,,69,127
52490,note_off,0,0,0,,0,,,72,127
52492,note_on,2,0,0,,5,,,77,127
52492,note_on,0,0,0,,6,,,78,127
52595,note_off,103,0,0,,6,,,78,127
52595,note_off,0,0,0,,5,,,77,127
52597,note_on,2,0,0,,4,,,76,127
52700,note_off,103,0,0,,4,,,76,127
52702,note_on,2,0,0,,5,,,77,127
52909,note_off,207,0,0,,5,,,77,127
52909,note_off,0,0,0,,5,,,65,127
52911,note_on,2,0,0,,5,,,65,127
52911,note_on,0,0,0,,6,,,78,127
52911,note_on,0,0,0,,5,,,77,127
53014,note_off,103,0,0,,5,,,77,127
53014,note_off,0,0,0,,6,,,78,127
53016,note_on,2,0,0,,4,,,76,127
53119,note_off,103,0,0,,4,,,76,127
53119,note_off,0,0,0,,5,,,65,127
53121,note_on,2,0,0,,3,,,63,127
53121,note_on,0,0,0,,5,,,77,127
53328,note_off,207,0,0,,5,,,77,127
53328,note_off,0,0,0,,3,,,63,127
53330,note_on,2,0,0,,1,,,61,127
53330,note_on,0,0,0,,6,,,78,127
53330,note_on,0,0,0,,5,,,77,127
53433,note_off,103,0,0,,5,,,77,127
53433,note_off,0,0,0,,6,,,78,127
53435,note_on,2,0,0,,4,,,76,127
53538,note_off,103,0,0,,4,,,76,127
53538,note_off,0,0,0,,1,,,61,127
53540,note_on,2,0,0,,0,,,60,127
53540,note_on,0,0,0,,5,,,77,127
53747,note_off,207,0,0,,5,,,77,127
53747,note_off,0,0,0,,0,,,60,127
53749,note_on,2,0,0,,1,,,61,127
53749,note_on,0,0,0,,11,,,58,127
53749,note_on,0,0,0,,5,,,65,127
53749,note_on,0,0,0,,6,,,78,127
53749,note_on,0,0,0,,5,,,77,127
53852,note_off,103,0,0,,5,,,77,127
53852,note_off,0,0,0,,6,,,78,127
53854,note_on,2,0,0,,4,,,76,127
53957,note_off,103,0,0,,4,,,76,127
53959,note_on,2,0,0,,5,,,77,127
54166,note_off,207,0,0,,5,,,77,127
54166,note_off,0,0,0,,5,,,65,127
54166,note_off,0,0,0,,11,,,58,127
54166,note_off,0,0,0,,1,,,61,127
54168,note_on,2,0,0,,0,,,60,127
54168,note_on,0,0,0,,8,,,56,127
54168,note_on,0,0,0,,5,,,65,127
54168,note_on,0,0,0,,6,,,78,127
54168,note_on,0,0,0,,5,,,77,127
54271,note_off,103,0,0,,5,,,77,127
54271,note_off,0,0,0,,6,,,78,127
54273,note_on,2,0,0,,4,,,76,127
54376,note_off,103,0,0,,4,,,76,127
54378,note_on,2,0,0,,5,,,77,127
54585,note_off,207,0,0,,5,,,77,127
54585,note_off,0,0,0,,5,,,65,127
54585,note_off,0,0,0,,8,,,56,127
54585,note_off,0,0,0,,0,,,60,127
54587,note_on,2,0,0,,7,,,55,127
54587,note_on,0,0,0,,4,,,64,127
54587,note_on,0,0,0,,0,,,60,127
54587,note_on,0,0,0,,11,,,58,127
54587,note_on,0,0,0,,7,,,79,127
54864,note_off,277,0,0,,7,,,79,127
54866,note_on,2,0,0,,8,,,80,127
54934,note_off,68,0,0,,8,,,80,127
54936,note_on,2,0,0,,11,,,82,127
55004,note_off,68,0,0,,11,,,82,127
55004,note_off,0,0,0,,11,,,58,127
55004,note_off,0,0,0,,0,,,60,127
55004,note_off,0,0,0,,4,,,64,127
55004,note_off,0,0,0,,7,,,55,127
55006,note_on,2,0,0,,5,,,65,127
55006,note_on,0,0,0,,0,,,60,127
55006,note_on,0,0,0,,8,,,56,127
55006,note_on,0,0,0,,11,,,82,127
55074,note_off,68,0,0,,11,,,82,127
55076,note_on,2,0,0,,8,,,80,127
55144,note_off,68,0,0,,8,,,80,127
55146,note_on,2,0,0,,11,,,82,127
55214,note_off,68,0,0,,11,,,82,127
55216,note_on,2,0,0,,8,,,80,127
55284,note_off,68,0,0,,8,,,80,127
55286,note_on,2,0,0,,7,,,79,127
55354,note_off,68,0,0,,7,,,79,127
55356,note_on,2,0,0,,8,,,80,127
55424,note_off,68,0,0,,8,,,80,127
55424,note_off,0,0,0,,8,,,56,127
55424,note_off,0,0,0,,0,,,60,127
55424,note_off,0,0,0,,5,,,65,127
55426,note_on,2,0,0,,11,,,46,127
55426,note_on,0,0,0,,11,,,58,127
55426,note_on,0,0,0,,8,,,80,127
55494,note_off,68,0,0,,8,,,80,127
55496,note_on,2,0,0,,7,,,79,127
55564,note_off,68,0,0,,7,,,79,127
55566,note_on,2,0,0,,8,,,80,127
55634,note_off,68,0,0,,8,,,80,127
55636,note_on,2,0,0,,7,,,79,127
55704,note_off,68,0,0,,7,,,79,127
55706,note_on,2,0,0,,5,,,77,127
55774,note_off,68,0,0,,5,,,77,127
55776,note_on,2,0,0,,7,,,79,127
55844,note_off,68,0,0,,7,,,79,127
55844,note_off,0,0,0,,11,,,58,127
55844,note_off,0,0,0,,11,,,46,127
55846,note_on,2,0,0,,11,,,58,127
55846,note_on,0,0,0,,1,,,49,127
55846,note_on,0,0,0,,7,,,79,127
55914,note_off,68,0,0,,7,,,79,127
55916,note_on,2,0,0,,5,,,77,127
55984,note_off,68,0,0,,5,,,77,127
55986,note_on,2,0,0,,7,,,79,127
56054,note_off,68,0,0,,7,,,79,127
56056,note_on,2,0,0,,5,,,77,127
56124,note_off,68,0,0,,5,,,77,127
56126,note_on,2,0,0,,4,,,76,127
56194,note_off,68,0,0,,4,,,76,127
56196,note_on,2,0,0,,5,,,77,127
56264,note_off,68,0,0,,5,,,77,127
56264,note_off,0,0,0,,1,,,49,127
56264,note_off,0,0,0,,11,,,58,127
56266,note_on,2,0,0,,0,,,48,127
56266,note_on,0,0,0,,11,,,58,127
56266,note_on,0,0,0,,4,,,76,127
56473,note_off,207,0,0,,4,,,76,127
56475,note_on,2,0,0,,5,,,77,127
56578,note_off,103,0,0,,5,,,77,127
56580,note_on,2,0,0,,7,,,79,127
56683,note_off,103,0,0,,7,,,79,127
56683,note_off,0,0,0,,11,,,58,127
56683,note_off,0,0,0,,0,,,48,127
56685,note_on,2,0,0,,11,,,58,127
56685,note_on,0,0,0,,0,,,48,127
56685,note_on,0,0,0,,1,,,73,127
56892,note_off,207,0,0,,1,,,73,127
56894,note_on,2,0,0,,0,,,72,127
56997,note_off,103,0,0,,0,,,72,127
56999,note_on,2,0,0,,11,,,70,127
57102,note_off,103,0,0,,11,,,70,127
57102,note_off,0,0,0,,0,,,48,127
57102,note_off,0,0,0,,11,,,58,127
57104,note_on,2,0,0,,0,,,48,127
57104,note_on,0,0,0,,11,,,58,127
57104,note_on,0,0,0,,11,,,70,127
57311,note_off,207,0,0,,11,,,70,127
57313,note_on,2,0,0,,8,,,68,127
57416,note_off,103,0,0,,8,,,68,127
57418,note_on,2,0,0,,7,,,67,127
57521,note_off,103,0,0,,7,,,67,127
57521,note_off,0,0,0,,11,,,58,127
57521,note_off,0,0,0,,0,,,48,127
57523,note_on,2,0,0,,0,,,48,127
57523,note_on,0,0,0,,11,,,58,127
57523,note_on,0,0,0,,7,,,67,127
57626,note_off,103,0,0,,7,,,67,127
57628,note_on,2,0,0,,5,,,65,127
57731,note_off,103,0,0,,5,,,65,127
57733,note_on,2,0,0,,4,,,64,127
57836,note_off,103,0,0,,4,,,64,127
57838,note_on,2,0,0,,5,,,65,127
57941,note_off,103,0,0,,5,,,65,127
57941,note_off,0,0,0,,11,,,58,127
57941,note_off,0,0,0,,0,,,48,127
57943,note_on,2,0,0,,0,,,36,127
57943,note_on,0,0,0,,4,,,64,127
58150,note_off,207,0,0,,4,,,64,127
58150,note_off,0,0,0,,0,,,36,127
58152,note_on,2,0,0,,0,,,60,127
58255,note_off,103,0,0,,0,,,60,127
58257,note_on,2,0,0,,2,,,62,127
58360,note_off,103,0,0,,2,,,62,127
58362,note_on,2,0,0,,4,,,64,127
58465,note_off,103,0,0,,4,,,64,127
58467,note_on,2,0,0,,0,,,60,127
58570,note_off,103,0,0,,0,,,60,127
58572,note_on,2,0,0,,0,,,48,127
58572,note_on,0,0,0,,0,,,60,127
58572,note_on,0,0,0,,5,,,65,127
58675,note_off,103,0,0,,5,,,65,127
58677,note_on,2,0,0,,2,,,62,127
58780,note_off,103,0,0,,2,,,62,127
58780,note_off,0,0,0,,0,,,60,127
58780,note_off,0,0,0,,0,,,48,127
58782,note_on,2,0,0,,11,,,46,127
58782,note_on,0,0,0,,11,,,58,127
58782,note_on,0,0,0,,7,,,67,127
58885,note_off,103,0,0,,7,,,67,127
58887,note_on,2,0,0,,4,,,64,127
58990,note_off,103,0,0,,4,,,64,127
58990,note_off,0,0,0,,11,,,58,127
58990,note_off,0,0,0,,11,,,46,127
58992,note_on,2,0,0,,8,,,44,127
58992,note_on,0,0,0,,8,,,56,127
58992,note_on,0,0,0,,8,,,68,127
59095,note_off,103,0,0,,8,,,68,127
59097,note_on,2,0,0,,5,,,65,127
59200,note_off,103,0,0,,5,,,65,127
59200,note_off,0,0,0,,8,,,56,127
59200,note_off,0,0,0,,8,,,44,127
59202,note_on,2,0,0,,7,,,43,127
59202,note_on,0,0,0,,7,,,55,127
59202,note_on,0,0,0,,11,,,70,127
59305,note_off,103,0,0,,11,,,70,127
59307,note_on,2,0,0,,7,,,67,127
59410,note_off,103,0,0,,7,,,67,127
59410,note_off,0,0,0,,7,,,55,127
59410,note_off,0,0,0,,7,,,43,127
59412,note_on,2,0,0,,5,,,41,127
59412,note_on,0,0,0,,5,,,53,127
59412,note_on,0,0,0,,0,,,72,127
59515,note_off,103,0,0,,0,,,72,127
59517,note_on,2,0,0,,8,,,68,127
59620,note_off,103,0,0,,8,,,68,127
59620,note_off,0,0,0,,5,,,53,127
59620,note_off,0,0,0,,5,,,41,127
59622,note_on,2,0,0,,4,,,40,127
59622,note_on,0,0,0,,4,,,52,127
59622,note_on,0,0,0,,1,,,73,127
59829,note_off,207,0,0,,1,,,73,127
59831,note_on,2,0,0,,4,,,64,127
59934,note_off,103,0,0,,4,,,64,127
59936,note_on,2,0,0,,5,,,65,127
60036,note_off,100,0,0,,4,,,52,127
60036,note_off,0,0,0,,4,,,40,127
60038,note_off,2,0,0,,5,,,65,127
60040,note_on,2,0,0,,7,,,67,127
60143,note_off,103,0,0,,7,,,67,127
60145,note_on,2,0,0,,4,,,64,127
60248,note_off,103,0,0,,4,,,64,127
60250,note_on,2,0,0,,1,,,49,127
60250,note_on,0,0,0,,1,,,61,127
60250,note_on,0,0,0,,8,,,68,127
60353,note_off,103,0,0,,8,,,68,127
60355,note_on,2,0,0,,5,,,65,127
60458,note_off,103,0,0,,5,,,65,127
60458,note_off,0,0,0,,1,,,61,127
60458,note_off,0,0,0,,1,,,49,127
60460,note_on,2,0,0,,0,,,48,127
60460,note_on,0,0,0,,0,,,60,127
60460,note_on,0,0,0,,11,,,70,127
60563,note_off,103,0,0,,11,,,70,127
60565,note_on,2,0,0,,7,,,67,127
60668,note_off,103,0,0,,7,,,67,127
60668,note_off,0,0,0,,0,,,60,127
60668,note_off,0,0,0,,0,,,48,127
60670,note_on,2,0,0,,11,,,46,127
60670,note_on,0,0,0,,11,,,58,127
60670,note_on,0,0,0,,4,,,76,127
60775,note_on,105,0,0,,7,,,67,127
60827,note_off,52,0,0,,4,,,76,127
60877,note_off,50,0,0,,11,,,58,127
60877,note_off,0,0,0,,11,,,46,127
60879,note_on,2,0,0,,8,,,44,127
60879,note_on,0,0,0,,8,,,56,127
60879,note_on,0,0,0,,5,,,77,127
60931,note_off,52,0,0,,7,,,67,127
60983,note_on,52,0,0,,8,,,68,127
61035,note_off,52,0,0,,5,,,77,127
61085,note_off,50,0,0,,8,,,56,127
61085,note_off,0,0,0,,8,,,44,127
61087,note_on,2,0,0,,7,,,43,127
61087,note_on,0,0,0,,7,,,55,127
61087,note_on,0,0,0,,7,,,79,127
61139,note_off,52,0,0,,8,,,68,127
61191,note_on,52,0,0,,11,,,70,127
61243,note_off,52,0,0,,7,,,79,127
61293,note_off,50,0,0,,11,,,70,127
61293,note_off,0,0,0,,7,,,55,127
61293,note_off,0,0,0,,7,,,43,127
61295,note_on,2,0,0,,5,,,41,127
61295,note_on,0,0,0,,5,,,53,127
61295,note_on,0,0,0,,8,,,80,127
61502,note_off,207,0,0,,8,,,80,127
61504,note_on,2,0,0,,0,,,72,127
61607,note_off,103,0,0,,0,,,72,127
61609,note_on,2,0,0,,2,,,74,127
61709,note_off,100,0,0,,5,,,53,127
61709,note_off,0,0,0,,5,,,41,127
61711,note_off,2,0,0,,2,,,74,127
61713,note_on,2,0,0,,4,,,76,127
61816,note_off,103,0,0,,4,,,76,127
61818,note_on,2,0,0,,0,,,72,127
61921,note_off,103,0,0,,0,,,72,127
61923,note_on,2,0,0,,0,,,60,127
61923,note_on,0,0,0,,0,,,72,127
61923,note_on,0,0,0,,5,,,77,127
62026,note_off,103,0,0,,5,,,77,127
62028,note_on,2,0,0,,1,,,73,127
62131,note_off,103,0,0,,1,,,73,127
62131,note_off,0,0,0,,0,,,72,127
62131,note_off,0,0,0,,0,,,60,127
62133,note_on,2,0,0,,11,,,70,127
62133,note_on,0,0,0,,11,,,58,127
62133,note_on,0,0,0,,7,,,79,127
62236,note_off,103,0,0,,7,,,79,127
62238,note_on,2,0,0,,4,,,76,127
62341,note_off,103,0,0,,4,,,76,127
62341,note_off,0,0,0,,11,,,58,127
62341,note_off,0,0,0,,11,,,70,127
62343,note_on,2,0,0,,8,,,56,127
62343,note_on,0,0,0,,8,,,68,127
62343,note_on,0,0,0,,8,,,80,127
62446,note_off,103,0,0,,8,,,80,127
62448,note_on,2,0,0,,5,,,77,127
62551,note_off,103,0,0,,5,,,77,127
62551,note_off,0,0,0,,8,,,68,127
62551,note_off,0,0,0,,8,,,56,127
62553,note_on,2,0,0,,7,,,67,127
62553,note_on,0,0,0,,7,,,55,127
62553,note_on,0,0,0,,11,,,82,127
62656,note_off,103,0,0,,11,,,82,127
62658,note_on,2,0,0,,7,,,79,127
62761,note_off,103,0,0,,7,,,79,127
62761,note_off,0,0,0,,7,,,55,127
62761,note_off,0,0,0,,7,,,67,127
62763,note_on,2,0,0,,5,,,53,127
62763,note_on,0,0,0,,5,,,65,127
62763,note_on,0,0,0,,0,,,84,127
62866,note_off,103,0,0,,0,,,84,127
62868,note_on,2,0,0,,8,,,80,127
62971,note_off,103,0,0,,8,,,80,127
62971,note_off,0,0,0,,5,,,65,127
62971,note_off,0,0,0,,5,,,53,127
62973,note_on,2,0,0,,4,,,52,127
62973,note_on,0,0,0,,4,,,64,127
62973,note_on,0,0,0,,1,,,85,127
63180,note_off,207,0,0,,1,,,85,127
63182,note_on,2,0,0,,0,,,84,127
63285,note_off,103,0,0,,0,,,84,127
63287,note_on,2,0,0,,11,,,82,127
63390,note_off,103,0,0,,11,,,82,127
63390,note_off,0,0,0,,4,,,64,127
63390,note_off,0,0,0,,4,,,52,127
63392,note_on,2,0,0,,5,,,53,127
63392,note_on,0,0,0,,5,,,65,127
63392,note_on,0,0,0,,8,,,80,127
63599,note_off,207,0,0,,8,,,80,127
63599,note_off,0,0,0,,5,,,65,127
63599,note_off,0,0,0,,5,,,53,127
63601,note_on,2,0,0,,11,,,58,127
63601,note_on,0,0,0,,7,,,79,127
63704,note_off,103,0,0,,7,,,79,127
63706,note_on,2,0,0,,5,,,77,127
63809,note_off,103,0,0,,5,,,77,127
63809,note_off,0,0,0,,11,,,58,127
63811,note_on,2,0,0,,0,,,60,127
63811,note_on,0,0,0,,5,,,77,127
63966,note_off,155,0,0,,5,,,77,127
63968,note_on,2,0,0,,7,,,79,127
64018,note_off,50,0,0,,7,,,79,127
64020,note_on,2,0,0,,5,,,77,127
64070,note_off,50,0,0,,5,,,77,127
64072,note_on,2,0,0,,4,,,76,127
64122,note_off,50,0,0,,4,,,76,127
64124,note_on,2,0,0,,5,,,77,127
64174,note_off,50,0,0,,5,,,77,127
64176,note_on,2,0,0,,7,,,79,127
64226,note_off,50,0,0,,7,,,79,127
64226,note_off,0,0,0,,0,,,60,127
64228,note_on,2,0,0,,0,,,48,127
64228,note_on,0,0,0,,8,,,80,127
64278,note_off,50,0,0,,8,,,80,127
64280,note_on,2,0,0,,7,,,79,127
64330,note_off,50,0,0,,7,,,79,127
64332,note_on,2,0,0,,8,,,80,127
64382,note_off,50,0,0,,8,,,80,127
64384,note_on,2,0,0,,7,,,79,127
64434,note_off,50,0,0,,7,,,79,127
64436,note_on,2,0,0,,8,,,80,127
64486,note_off,50,0,0,,8,,,80,127
64488,note_on,2,0,0,,7,,,79,127
64538,note_off,50,0,0,,7,,,79,127
64540,note_on,2,0,0,,5,,,77,127
64643,note_off,103,0,0,,5,,,77,127
64643,note_off,0,0,0,,0,,,48,127
64645,note_on,2,0,0,,5,,,41,127
64645,note_on,0,0,0,,5,,,77,127
64852,note_off,207,0,0,,5,,,77,127
64854,note_on,2,0,0,,0,,,60,127
64957,note_off,103,0,0,,0,,,60,127
64959,note_off,2,0,0,,5,,,41,127
64959,note_on,0,0,0,,2,,,62,127
65062,note_off,103,0,0,,2,,,62,127
65064,note_on,2,0,0,,4,,,64,127
65167,note_off,103,0,0,,4,,,64,127
65169,note_on,2,0,0,,0,,,60,127
65272,note_off,103,0,0,,0,,,60,127
65274,note_on,2,0,0,,0,,,48,127
65274,note_on,0,0,0,,0,,,60,127
65274,note_on,0,0,0,,5,,,65,127
65377,note_off,103,0,0,,5,,,65,127
65379,note_on,2,0,0,,1,,,61,127
65482,note_off,103,0,0,,1,,,61,127
65482,note_off,0,0,0,,0,,,60,127
65482,note_off,0,0,0,,0,,,48,127
65484,note_on,2,0,0,,11,,,46,127
65484,note_on,0,0,0,,11,,,58,127
65484,note_on,0,0,0,,7,,,67,127
65587,note_off,103,0,0,,7,,,67,127
65589,note_on,2,0,0,,4,,,64,127
65692,note_off,103,0,0,,4,,,64,127
65692,note_off,0,0,0,,11,,,58,127
65692,note_off,0,0,0,,11,,,46,127
65694,note_on,2,0,0,,8,,,44,127
65694,note_on,0,0,0,,8,,,56,127
65694,note_on,0,0,0,,8,,,68,127
65797,note_off,103,0,0,,8,,,68,127
65799,note_on,2,0,0,,5,,,65,127
65902,note_off,103,0,0,,5,,,65,127
65902,note_off,0,0,0,,8,,,56,127
65902,note_off,0,0,0,,8,,,44,127
65904,note_on,2,0,0,,7,,,43,127
65904,note_on,0,0,0,,7,,,55,127
65904,note_on,0,0,0,,11,,,70,127
66007,note_off,103,0,0,,11,,,70,127
66009,note_on,2,0,0,,7,,,67,127
66112,note_off,103,0,0,,7,,,67,127
66112,note_off,0,0,0,,7,,,55,127
66112,note_off,0,0,0,,7,,,43,127
66114,note_on,2,0,0,,5,,,41,127
66114,note_on,0,0,0,,5,,,53,127
66114,note_on,0,0,0,,0,,,72,127
66217,note_off,103,0,0,,0,,,72,127
66219,note_on,2,0,0,,8,,,68,127
66322,note_off,103,0,0,,8,,,68,127
66322,note_off,0,0,0,,5,,,53,127
66322,note_off,0,0,0,,5,,,41,127
66324,note_on,2,0,0,,4,,,52,127
66324,note_on,0,0,0,,4,,,40,127
66324,note_on,0,0,0,,1,,,73,127
66531,note_off,207,0,0,,1,,,73,127
66533,note_on,2,0,0,,4,,,64,127
66636,note_off,103,0,0,,4,,,64,127
66638,note_on,2,0,0,,5,,,65,127
66738,note_off,100,0,0,,4,,,40,127
66738,note_off,0,0,0,,4,,,52,127
66740,note_off,2,0,0,,5,,,65,127
66742,note_on,2,0,0,,7,,,67,127
66845,note_off,103,0,0,,7,,,67,127
66847,note_on,2,0,0,,4,,,64,127
66950,note_off,103,0,0,,4,,,64,127
66952,note_on,2,0,0,,1,,,49,127
66952,note_on,0,0,0,,1,,,61,127
66952,note_on,0,0,0,,8,,,68,127
67055,note_off,103,0,0,,8,,,68,127
67057,note_on,2,0,0,,5,,,65,127
67160,note_off,103,0,0,,5,,,65,127
67160,note_off,0,0,0,,1,,,61,127
67160,note_off,0,0,0,,1,,,49,127
67162,note_on,2,0,0,,0,,,48,127
67162,note_on,0,0,0,,0,,,60,127
67162,note_on,0,0,0,,11,,,70,127
67265,note_off,103,0,0,,11,,,70,127
67267,note_on,2,0,0,,7,,,67,127
67370,note_off,103,0,0,,7,,,67,127
67370,note_off,0,0,0,,0,,,60,127
67370,note_off,0,0,0,,0,,,48,127
67372,note_on,2,0,0,,11,,,46,127
67372,note_on,0,0,0,,11,,,58,127
67372,note_on,0,0,0,,4,,,76,127
67477,note_on,105,0,0,,7,,,67,127
67580,note_off,103,0,0,,7,,,67,127
67580,note_off,0,0,0,,4,,,76,127
67580,note_off,0,0,0,,11,,,58,127
67580,note_off,0,0,0,,11,,,46,127
67582,note_on,2,0,0,,8,,,44,127
67582,note_on,0,0,0,,8,,,56,127
67582,note_on,0,0,0,,5,,,77,127
67687,note_on,105,0,0,,8,,,68,127
67790,note_off,103,0,0,,8,,,68,127
67790,note_off,0,0,0,,5,,,77,127
67790,note_off,0,0,0,,8,,,56,127
67790,note_off,0,0,0,,8,,,44,127
67792,note_on,2,0,0,,7,,,55,127
67792,note_on,0,0,0,,7,,,43,127
67792,note_on,0,0,0,,7,,,79,127
67897,note_on,105,0,0,,11,,,70,127
68000,note_off,103,0,0,,11,,,70,127
68000,note_off,0,0,0,,7,,,79,127
68000,note_off,0,0,0,,7,,,43,127
68000,note_off,0,0,0,,7,,,55,127
68002,note_on,2,0,0,,5,,,41,127
68002,note_on,0,0,0,,5,,,53,127
68002,note_on,0,0,0,,8,,,80,127
68209,note_off,207,0,0,,8,,,80,127
68211,note_on,2,0,0,,0,,,72,127
68314,note_off,103,0,0,,0,,,72,127
68316,note_on,2,0,0,,2,,,74,127
68416,note_off,100,0,0,,5,,,53,127
68416,note_off,0,0,0,,5,,,41,127
68418,note_off,2,0,0,,2,,,74,127
68420,note_on,2,0,0,,4,,,76,127
68523,note_off,103,0,0,,4,,,76,127
68525,note_on,2,0,0,,0,,,72,127
68628,note_off,103,0,0,,0,,,72,127
68630,note_on,2,0,0,,0,,,60,127
68630,note_on,0,0,0,,0,,,72,127
68630,note_on,0,0,0,,5,,,77,127
68733,note_off,103,0,0,,5,,,77,127
68735,note_on,2,0,0,,1,,,73,127
68838,note_off,103,0,0,,1,,,73,127
68838,note_off,0,0,0,,0,,,72,127
68838,note_off,0,0,0,,0,,,60,127
68840,note_on,2,0,0,,11,,,58,127
68840,note_on,0,0,0,,11,,,70,127
68840,note_on,0,0,0,,7,,,79,127
68943,note_off,103,0,0,,7,,,79,127
68945,note_on,2,0,0,,4,,,76,127
69048,note_off,103,0,0,,4,,,76,127
69048,note_off,0,0,0,,11,,,70,127
69048,note_off,0,0,0,,11,,,58,127
69050,note_on,2,0,0,,8,,,56,127
69050,note_on,0,0,0,,8,,,68,127
69050,note_on,0,0,0,,8,,,80,127
69153,note_off,103,0,0,,8,,,80,127
69155,note_on,2,0,0,,5,,,77,127
69258,note_off,103,0,0,,5,,,77,127
69258,note_off,0,0,0,,8,,,68,127
69258,note_off,0,0,0,,8,,,56,127
69260,note_on,2,0,0,,7,,,67,127
69260,note_on,0,0,0,,7,,,55,127
69260,note_on,0,0,0,,11,,,82,127
69363,note_off,103,0,0,,11,,,82,127
69365,note_on,2,0,0,,7,,,79,127
69468,note_off,103,0,0,,7,,,79,127
69468,note_off,0,0,0,,7,,,55,127
69468,note_off,0,0,0,,7,,,67,127
69470,note_on,2,0,0,,5,,,53,127
69470,note_on,0,0,0,,5,,,65,127
69470,note_on,0,0,0,,0,,,84,127
69573,note_off,103,0,0,,0,,,84,127
69575,note_on,2,0,0,,8,,,80,127
69678,note_off,103,0,0,,8,,,80,127
69678,note_off,0,0,0,,5,,,65,127
69678,note_off,0,0,0,,5,,,53,127
69680,note_on,2,0,0,,4,,,52,127
69680,note_on,0,0,0,,4,,,64,127
69680,note_on,0,0,0,,1,,,85,127
69887,note_off,207,0,0,,1,,,85,127
69889,note_on,2,0,0,,0,,,84,127
69992,note_off,103,0,0,,0,,,84,127
69994,note_on,2,0,0,,11,,,82,127
70097,note_off,103,0,0,,11,,,82,127
70097,note_off,0,0,0,,4,,,64,127
70097,note_off,0,0,0,,4,,,52,127
70099,note_on,2,0,0,,5,,,53,127
70099,note_on,0,0,0,,5,,,65,127
70099,note_on,0,0,0,,8,,,80,127
70306,note_off,207,0,0,,8,,,80,127
70306,note_off,0,0,0,,5,,,65,127
70306,note_off,0,0,0,,5,,,53,127
70308,note_on,2,0,0,,11,,,58,127
70308,note_on,0,0,0,,7,,,79,127
70411,note_off,103,0,0,,7,,,79,127
70413,note_on,2,0,0,,5,,,77,127
70516,note_off,103,0,0,,5,,,77,127
70516,note_off,0,0,0,,11,,,58,127
70518,note_on,2,0,0,,0,,,60,127
70518,note_on,0,0,0,,5,,,77,127
70673,note_off,155,0,0,,5,,,77,127
70675,note_on,2,0,0,,7,,,79,127
70725,note_off,50,0,0,,7,,,79,127
70727,note_on,2,0,0,,5,,,77,127
70777,note_off,50,0,0,,5,,,77,127
70779,note_on,2,0,0,,4,,,76,127
70829,note_off,50,0,0,,4,,,76,127
70831,note_on,2,0,0,,5,,,77,127
70881,note_off,50,0,0,,5,,,77,127
70883,note_on,2,0,0,,7,,,79,127
70933,note_off,50,0,0,,7,,,79,127
70933,note_off,0,0,0,,0,,,60,127
70935,note_on,2,0,0,,0,,,48,127
70935,note_on,0,0,0,,8,,,80,127
70985,note_off,50,0,0,,8,,,80,127
70987,note_on,2,0,0,,7,,,79,127
71037,note_off,50,0,0,,7,,,79,127
71039,note_on,2,0,0,,8,,,80,127
71089,note_off,50,0,0,,8,,,80,127
71091,note_on,2,0,0,,7,,,79,127
71141,note_off,50,0,0,,7,,,79,127
71143,note_on,2,0,0,,8,,,80,127
71193,note_off,50,0,0,,8,,,80,127
71195,note_on,2,0,0,,7,,,79,127
71245,note_off,50,0,0,,7,,,79,127
71247,note_on,2,0,0,,5,,,77,127
71350,note_off,103,0,0,,5,,,77,127
71350,note_off,0,0,0,,0,,,48,127
71352,note_on,2,0,0,,1,,,61,127
71352,note_on,0,0,0,,5,,,77,127
71352,note_on,0,0,0,,5,,,89,127
71559,note_off,207,0,0,,5,,,89,127
71561,note_on,2,0,0,,3,,,87,127
71664,note_off,103,0,0,,3,,,87,127
71666,note_on,2,0,0,,1,,,85,127
71769,note_off,103,0,0,,1,,,85,127
71769,note_off,0,0,0,,1,,,61,127
71771,note_on,2,0,0,,11,,,58,127
71771,note_on,0,0,0,,1,,,85,127
71978,note_off,207,0,0,,1,,,85,127
71979,note_off,1,0,0,,5,,,77,127
71980,note_on,1,0,0,,0,,,84,127
72083,note_off,103,0,0,,0,,,84,127
72085,note_on,2,0,0,,11,,,82,127
72188,note_off,103,0,0,,11,,,82,127
72188,note_off,0,0,0,,11,,,58,127
72190,note_on,2,0,0,,0,,,60,127
72190,note_on,0,0,0,,11,,,82,127
72397,note_off,207,0,0,,11,,,82,127
72399,note_on,2,0,0,,8,,,80,127
72502,note_off,103,0,0,,8,,,80,127
72504,note_on,2,0,0,,7,,,79,127
72607,note_off,103,0,0,,7,,,79,127
72607,note_off,0,0,0,,0,,,60,127
72609,note_on,2,0,0,,0,,,48,127
72609,note_on,0,0,0,,7,,,79,127
72816,note_off,207,0,0,,7,,,79,127
72818,note_on,2,0,0,,5,,,77,127
72921,note_off,103,0,0,,5,,,77,127
72923,note_on,2,0,0,,4,,,76,127
73026,note_off,103,0,0,,4,,,76,127
73026,note_off,0,0,0,,0,,,48,127
73028,note_on,2,0,0,,1,,,49,127
73028,note_on,0,0,0,,5,,,77,127
73028,note_on,0,0,0,,5,,,65,127
73235,note_off,207,0,0,,5,,,77,127
73237,note_on,2,0,0,,3,,,75,127
73340,note_off,103,0,0,,3,,,75,127
73342,note_on,2,0,0,,1,,,73,127
73445,note_off,103,0,0,,1,,,73,127
73445,note_off,0,0,0,,1,,,49,127
73447,note_on,2,0,0,,11,,,46,127
73447,note_on,0,0,0,,1,,,73,127
73654,note_off,207,0,0,,1,,,73,127
73655,note_off,1,0,0,,5,,,65,127
73656,note_on,1,0,0,,0,,,72,127
73759,note_off,103,0,0,,0,,,72,127
73761,note_on,2,0,0,,11,,,70,127
73864,note_off,103,0,0,,11,,,70,127
73864,note_off,0,0,0,,11,,,46,127
73866,note_on,2,0,0,,0,,,48,127
73866,note_on,0,0,0,,11,,,70,127
74073,note_off,207,0,0,,11,,,70,127
74075,note_on,2,0,0,,8,,,68,127
74178,note_off,103,0,0,,8,,,68,127
74180,note_on,2,0,0,,7,,,67,127
74283,note_off,103,0,0,,7,,,67,127
74283,note_off,0,0,0,,0,,,48,127
74285,note_on,2,0,0,,0,,,48,127
74285,note_on,0,0,0,,7,,,67,127
74492,note_off,207,0,0,,7,,,67,127
74494,note_on,2,0,0,,5,,,65,127
74597,note_off,103,0,0,,5,,,65,127
74599,note_on,2,0,0,,4,,,64,127
74702,note_off,103,0,0,,4,,,64,127
74702,note_off,0,0,0,,0,,,48,127
74704,note_on,2,0,0,,1,,,49,127
74704,note_on,0,0,0,,5,,,65,127
74911,note_off,207,0,0,,5,,,65,127
74913,note_on,2,0,0,,3,,,63,127
75016,note_off,103,0,0,,3,,,63,127
75018,note_on,2,0,0,,1,,,61,127
75121,note_off,103,0,0,,1,,,61,127
75121,note_off,0,0,0,,1,,,49,127
75123,note_on,2,0,0,,11,,,46,127
75123,note_on,0,0,0,,1,,,61,127
75330,note_off,207,0,0,,1,,,61,127
75332,note_on,2,0,0,,0,,,60,127
75435,note_off,103,0,0,,0,,,60,127
75437,note_on,2,0,0,,11,,,58,127
75540,note_off,103,0,0,,11,,,58,127
75540,note_off,0,0,0,,11,,,46,127
75542,note_on,2,0,0,,0,,,48,127
75542,note_on,0,0,0,,11,,,58,127
75749,note_off,207,0,0,,11,,,58,127
75751,note_on,2,0,0,,8,,,56,127
75854,note_off,103,0,0,,8,,,56,127
75856,note_on,2,0,0,,7,,,55,127
75959,note_off,103,0,0,,7,,,55,127
75959,note_off,0,0,0,,0,,,48,127
75961,note_on,2,0,0,,0,,,36,127
75961,note_on,0,0,0,,7,,,55,127
76168,note_off,207,0,0,,7,,,55,127
76170,note_on,2,0,0,,5,,,53,127
76273,note_off,103,0,0,,5,,,53,127
76275,note_on,2,0,0,,4,,,52,127
76378,note_off,103,0,0,,0,,,36,127
76381,note_off,3,0,0,,4,,,52,127
76389,note_on,8,0,0,,5,,,41,127
76389,note_on,0,0,0,,5,,,53,127
78371,note_off,1982,0,0,,5,,,53,127
78371,note_off,0,0,0,,5,,,41,127
79872,end_of_track,1501,1,0,,,,,,
