tick,type,time,meta,track,program,channel,pitch,tempo,note,velocity
0,copyright,0,1,0,,,,,,
0,program_change,0,0,0,6,0,,,,
0,pitchwheel,0,0,0,,0,0,,,
0,program_change,0,0,0,6,1,,,,
0,pitchwheel,0,0,0,,1,-590,,,
0,program_change,0,0,0,6,2,,,,
0,pitchwheel,0,0,0,,2,-272,,,
0,program_change,0,0,0,6,3,,,,
0,pitchwheel,0,0,0,,3,-353,,,
0,program_change,0,0,0,6,4,,,,
0,pitchwheel,0,0,0,,4,-560,,,
0,program_change,0,0,0,6,5,,,,
0,pitchwheel,0,0,0,,5,-80,,,
0,program_change,0,0,0,6,6,,,,
0,pitchwheel,0,0,0,,6,-625,,,
0,program_change,0,0,0,6,7,,,,
0,pitchwheel,0,0,0,,7,-130,,,
0,program_change,0,0,0,6,8,,,,
0,pitchwheel,0,0,0,,8,-512,,,
0,program_change,0,0,0,6,10,,,,
0,pitchwheel,0,0,0,,10,-464,,,
0,program_change,0,0,0,6,11,,,,
0,pitchwheel,0,0,0,,11,-208,,,
0,program_change,0,0,0,6,12,,,,
0,pitchwheel,0,0,0,,12,-553,,,
0,set_tempo,0,1,0,,,,500000,,
115,note_on,115,0,0,,5,,,65,127
230,note_on,115,0,0,,0,,,72,127
343,note_off,113,0,0,,0,,,72,127
345,note_on,2,0,0,,8,,,80,127
458,note_off,113,0,0,,8,,,80,127
460,note_on,2,0,0,,7,,,79,127
573,note_off,113,0,0,,7,,,79,127
573,note_off,0,0,0,,5,,,65,127
575,note_on,2,0,0,,7,,,67,127
575,note_on,0,0,0,,5,,,77,127
688,note_off,113,0,0,,5,,,77,127
690,note_on,2,0,0,,4,,,76,127
803,note_off,113,0,0,,4,,,76,127
803,note_off,0,0,0,,7,,,67,127
805,note_on,2,0,0,,8,,,68,127
805,note_on,0,0,0,,5,,,77,127
918,note_off,113,0,0,,5,,,77,127
920,note_on,2,0,0,,0,,,72,127
1033,note_off,113,0,0,,0,,,72,127
1033,note_off,0,0,0,,8,,,68,127
1035,note_on,2,0,0,,11,,,70,127
1035,note_on,0,0,0,,0,,,84,127
1148,note_off,113,0,0,,0,,,84,127
1150,note_on,2,0,0,,11,,,82,127
1263,note_off,113,0,0,,11,,,82,127
1263,note_off,0,0,0,,11,,,70,127
1265,note_on,2,0,0,,0,,,72,127
1265,note_on,0,0,0,,8,,,80,127
1378,note_off,113,0,0,,8,,,80,127
1380,note_on,2,0,0,,7,,,79,127
1493,note_off,113,0,0,,7,,,79,127
1493,note_off,0,0,0,,0,,,72,127
1495,note_on,2,0,0,,1,,,73,127
1495,note_on,0,0,0,,5,,,77,127
1608,note_off,113,0,0,,5,,,77,127
1610,note_on,2,0,0,,8,,,80,127
1723,note_off,113,0,0,,8,,,80,127
1723,note_off,0,0,0,,1,,,73,127
1725,note_on,2,0,0,,11,,,70,127
1725,note_on,0,0,0,,7,,,79,127
1838,note_off,113,0,0,,7,,,79,127
1840,note_on,2,0,0,,11,,,82,127
1953,note_off,113,0,0,,11,,,82,127
1953,note_off,0,0,0,,11,,,70,127
1955,note_on,2,0,0,,0,,,72,127
1955,note_on,0,0,0,,8,,,80,127
2068,note_off,113,0,0,,8,,,80,127
2070,note_on,2,0,0,,7,,,79,127
2183,note_off,113,0,0,,7,,,79,127
2183,note_off,0,0,0,,0,,,72,127
2185,note_on,2,0,0,,5,,,65,127
2185,note_on,0,0,0,,8,,,80,127
2298,note_off,113,0,0,,5,,,65,127
2300,note_on,2,0,0,,4,,,64,127
2413,note_off,113,0,0,,4,,,64,127
2413,note_off,0,0,0,,8,,,80,127
2415,note_on,2,0,0,,7,,,67,127
2415,note_on,0,0,0,,11,,,82,127
2528,note_off,113,0,0,,7,,,67,127
2530,note_on,2,0,0,,5,,,65,127
2643,note_off,113,0,0,,5,,,65,127
2643,note_off,0,0,0,,11,,,82,127
2645,note_on,2,0,0,,8,,,68,127
2645,note_on,0,0,0,,0,,,84,127
2758,note_off,113,0,0,,8,,,68,127
2760,note_on,2,0,0,,7,,,67,127
2873,note_off,113,0,0,,7,,,67,127
2873,note_off,0,0,0,,0,,,84,127
2875,note_on,2,0,0,,11,,,70,127
2875,note_on,0,0,0,,5,,,77,127
2988,note_off,113,0,0,,11,,,70,127
2990,note_on,2,0,0,,8,,,68,127
3103,note_off,113,0,0,,8,,,68,127
3103,note_off,0,0,0,,5,,,77,127
3105,note_on,2,0,0,,0,,,72,127
3105,note_on,0,0,0,,4,,,76,127
3218,note_off,113,0,0,,0,,,72,127
3220,note_on,2,0,0,,11,,,70,127
3333,note_off,113,0,0,,11,,,70,127
3333,note_off,0,0,0,,4,,,76,127
3335,note_on,2,0,0,,8,,,68,127
3335,note_on,0,0,0,,7,,,79,127
3448,note_off,113,0,0,,8,,,68,127
3450,note_on,2,0,0,,7,,,67,127
3563,note_off,113,0,0,,7,,,67,127
3563,note_off,0,0,0,,7,,,79,127
3565,note_on,2,0,0,,5,,,65,127
3565,note_on,0,0,0,,8,,,80,127
3678,note_off,113,0,0,,5,,,65,127
3680,note_on,2,0,0,,4,,,64,127
3793,note_off,113,0,0,,4,,,64,127
3793,note_off,0,0,0,,8,,,80,127
3795,note_on,2,0,0,,7,,,67,127
3795,note_on,0,0,0,,11,,,82,127
3908,note_off,113,0,0,,7,,,67,127
3910,note_on,2,0,0,,5,,,65,127
4023,note_off,113,0,0,,5,,,65,127
4023,note_off,0,0,0,,11,,,82,127
4025,note_on,2,0,0,,8,,,68,127
4025,note_on,0,0,0,,0,,,84,127
4138,note_off,113,0,0,,8,,,68,127
4140,note_on,2,0,0,,7,,,67,127
4253,note_off,113,0,0,,7,,,67,127
4253,note_off,0,0,0,,0,,,84,127
4255,note_on,2,0,0,,11,,,70,127
4255,note_on,0,0,0,,5,,,77,127
4368,note_off,113,0,0,,11,,,70,127
4370,note_on,2,0,0,,8,,,68,127
4483,note_off,113,0,0,,8,,,68,127
4483,note_off,0,0,0,,5,,,77,127
4485,note_on,2,0,0,,0,,,72,127
4485,note_on,0,0,0,,4,,,76,127
4598,note_off,113,0,0,,0,,,72,127
4600,note_on,2,0,0,,11,,,70,127
4713,note_off,113,0,0,,11,,,70,127
4713,note_off,0,0,0,,4,,,76,127
4715,note_on,2,0,0,,8,,,68,127
4715,note_on,0,0,0,,7,,,79,127
4828,note_off,113,0,0,,8,,,68,127
4830,note_on,2,0,0,,7,,,67,127
4943,note_off,113,0,0,,7,,,67,127
4943,note_off,0,0,0,,7,,,79,127
4945,note_on,2,0,0,,5,,,65,127
4945,note_on,0,0,0,,8,,,80,127
5058,note_off,113,0,0,,8,,,80,127
5060,note_on,2,0,0,,7,,,79,127
5173,note_off,113,0,0,,7,,,79,127
5173,note_off,0,0,0,,5,,,65,127
5175,note_on,2,0,0,,7,,,67,127
5175,note_on,0,0,0,,8,,,80,127
5288,note_off,113,0,0,,8,,,80,127
5290,note_on,2,0,0,,11,,,82,127
5403,note_off,113,0,0,,11,,,82,127
5403,note_off,0,0,0,,7,,,67,127
5405,note_on,2,0,0,,8,,,68,127
5405,note_on,0,0,0,,0,,,84,127
5518,note_off,113,0,0,,0,,,84,127
5520,note_on,2,0,0,,5,,,77,127
5633,note_off,113,0,0,,5,,,77,127
5633,note_off,0,0,0,,8,,,68,127
5635,note_on,2,0,0,,11,,,70,127
5635,note_on,0,0,0,,7,,,79,127
5748,note_off,113,0,0,,7,,,79,127
5750,note_on,2,0,0,,11,,,82,127
5863,note_off,113,0,0,,11,,,82,127
5863,note_off,0,0,0,,11,,,70,127
5865,note_on,2,0,0,,0,,,72,127
5865,note_on,0,0,0,,8,,,80,127
5978,note_off,113,0,0,,8,,,80,127
5980,note_on,2,0,0,,7,,,79,127
6093,note_off,113,0,0,,7,,,79,127
6093,note_off,0,0,0,,0,,,72,127
6095,note_on,2,0,0,,0,,,60,127
6095,note_on,0,0,0,,5,,,77,127
6208,note_off,113,0,0,,5,,,77,127
6210,note_on,2,0,0,,4,,,76,127
6323,note_off,113,0,0,,4,,,76,127
6323,note_off,0,0,0,,0,,,60,127
6325,note_on,2,0,0,,5,,,53,127
6325,note_on,0,0,0,,5,,,77,127
6438,note_off,113,0,0,,5,,,77,127
6440,note_on,2,0,0,,0,,,72,127
6553,note_off,113,0,0,,0,,,72,127
6555,note_on,2,0,0,,8,,,68,127
6668,note_off,113,0,0,,8,,,68,127
6670,note_on,2,0,0,,5,,,65,127
6783,note_off,113,0,0,,5,,,65,127
6785,note_on,2,0,0,,8,,,68,127
6898,note_off,113,0,0,,8,,,68,127
6900,note_on,2,0,0,,0,,,72,127
7013,note_off,113,0,0,,0,,,72,127
7013,note_off,0,0,0,,5,,,53,127
7015,note_on,2,0,0,,5,,,65,127
7015,note_on,0,0,0,,5,,,77,127
7128,note_off,113,0,0,,5,,,65,127
7130,note_on,2,0,0,,0,,,60,127
7243,note_off,113,0,0,,0,,,60,127
7245,note_on,2,0,0,,8,,,56,127
7358,note_off,113,0,0,,8,,,56,127
7360,note_on,2,0,0,,5,,,53,127
7473,note_off,113,0,0,,5,,,53,127
7475,note_on,2,0,0,,0,,,48,127
7588,note_off,113,0,0,,0,,,48,127
7590,note_on,2,0,0,,8,,,44,127
7703,note_off,113,0,0,,8,,,44,127
7705,note_on,2,0,0,,5,,,41,127
7770,note_off,65,0,0,,5,,,77,127
8051,note_on,281,0,0,,0,,,72,127
8279,note_off,228,0,0,,0,,,72,127
8281,note_on,2,0,0,,5,,,77,127
8394,note_off,113,0,0,,5,,,77,127
8395,note_off,1,0,0,,5,,,41,127
8396,note_on,1,0,0,,3,,,75,127
8509,note_off,113,0,0,,3,,,75,127
8511,note_on,2,0,0,,5,,,65,127
8511,note_on,0,0,0,,1,,,73,127
8624,note_off,113,0,0,,1,,,73,127
8626,note_on,2,0,0,,0,,,72,127
8739,note_off,113,0,0,,0,,,72,127
8739,note_off,0,0,0,,5,,,65,127
8741,note_on,2,0,0,,7,,,67,127
8741,note_on,0,0,0,,0,,,72,127
8854,note_off,113,0,0,,0,,,72,127
8856,note_on,2,0,0,,11,,,70,127
8969,note_off,113,0,0,,11,,,70,127
8969,note_off,0,0,0,,7,,,67,127
8971,note_on,2,0,0,,7,,,67,127
8971,note_on,0,0,0,,11,,,70,127
9084,note_off,113,0,0,,11,,,70,127
9086,note_on,2,0,0,,10,,,69,127
9199,note_off,113,0,0,,10,,,69,127
9199,note_off,0,0,0,,7,,,67,127
9201,note_on,2,0,0,,5,,,65,127
9201,note_on,0,0,0,,10,,,69,127
9314,note_off,113,0,0,,10,,,69,127
9316,note_on,2,0,0,,11,,,70,127
9429,note_off,113,0,0,,5,,,65,127
9431,note_on,2,0,0,,4,,,64,127
9489,note_off,58,0,0,,11,,,70,127
9547,note_on,58,0,0,,11,,,70,127
9660,note_off,113,0,0,,11,,,70,127
9660,note_off,0,0,0,,4,,,64,127
9662,note_on,2,0,0,,4,,,64,127
9662,note_on,0,0,0,,7,,,79,127
9775,note_off,113,0,0,,7,,,79,127
9777,note_on,2,0,0,,11,,,70,127
9890,note_off,113,0,0,,11,,,70,127
9890,note_off,0,0,0,,4,,,64,127
9892,note_on,2,0,0,,4,,,64,127
9892,note_on,0,0,0,,0,,,72,127
10005,note_off,113,0,0,,0,,,72,127
10007,note_on,2,0,0,,11,,,70,127
10120,note_off,113,0,0,,11,,,70,127
10120,note_off,0,0,0,,4,,,64,127
10122,note_on,2,0,0,,5,,,65,127
10122,note_on,0,0,0,,11,,,70,127
10235,note_off,113,0,0,,11,,,70,127
10237,note_on,2,0,0,,8,,,68,127
10350,note_off,113,0,0,,8,,,68,127
10350,note_off,0,0,0,,5,,,65,127
10352,note_on,2,0,0,,5,,,65,127
10352,note_on,0,0,0,,8,,,68,127
10465,note_off,113,0,0,,8,,,68,127
10467,note_on,2,0,0,,7,,,67,127
10580,note_off,113,0,0,,7,,,67,127
10580,note_off,0,0,0,,5,,,65,127
10582,note_on,2,0,0,,3,,,63,127
10582,note_on,0,0,0,,7,,,67,127
10695,note_off,113,0,0,,7,,,67,127
10697,note_on,2,0,0,,8,,,68,127
10810,note_off,113,0,0,,3,,,63,127
10812,note_on,2,0,0,,1,,,61,127
10870,note_off,58,0,0,,8,,,68,127
10928,note_on,58,0,0,,8,,,68,127
11041,note_off,113,0,0,,8,,,68,127
11041,note_off,0,0,0,,1,,,61,127
11043,note_on,2,0,0,,1,,,61,127
11043,note_on,0,0,0,,5,,,77,127
11156,note_off,113,0,0,,5,,,77,127
11158,note_on,2,0,0,,8,,,68,127
11271,note_off,113,0,0,,8,,,68,127
11271,note_off,0,0,0,,1,,,61,127
11273,note_on,2,0,0,,0,,,60,127
11273,note_on,0,0,0,,11,,,70,127
11386,note_off,113,0,0,,11,,,70,127
11388,note_on,2,0,0,,8,,,68,127
11501,note_off,113,0,0,,8,,,68,127
11501,note_off,0,0,0,,0,,,60,127
11503,note_on,2,0,0,,11,,,58,127
11503,note_on,0,0,0,,8,,,68,127
11616,note_off,113,0,0,,8,,,68,127
11618,note_on,2,0,0,,7,,,67,127
11731,note_off,113,0,0,,7,,,67,127
11731,note_off,0,0,0,,11,,,58,127
11733,note_on,2,0,0,,11,,,58,127
11733,note_on,0,0,0,,7,,,67,127
11846,note_off,113,0,0,,7,,,67,127
11848,note_on,2,0,0,,8,,,68,127
11961,note_off,113,0,0,,8,,,68,127
11961,note_off,0,0,0,,11,,,58,127
11963,note_on,2,0,0,,8,,,56,127
11963,note_on,0,0,0,,5,,,65,127
11963,note_on,0,0,0,,8,,,68,127
12076,note_off,113,0,0,,8,,,68,127
12078,note_on,2,0,0,,11,,,70,127
12191,note_off,113,0,0,,11,,,70,127
12191,note_off,0,0,0,,5,,,65,127
12191,note_off,0,0,0,,8,,,56,127
12193,note_on,2,0,0,,5,,,65,127
12193,note_on,0,0,0,,7,,,55,127
12193,note_on,0,0,0,,11,,,70,127
12306,note_off,113,0,0,,11,,,70,127
12308,note_on,2,0,0,,0,,,72,127
12421,note_off,113,0,0,,0,,,72,127
12421,note_off,0,0,0,,7,,,55,127
12421,note_off,0,0,0,,5,,,65,127
12423,note_on,2,0,0,,7,,,55,127
12423,note_on,0,0,0,,4,,,64,127
12423,note_on,0,0,0,,1,,,73,127
12536,note_off,113,0,0,,1,,,73,127
12538,note_on,2,0,0,,0,,,72,127
12651,note_off,113,0,0,,0,,,72,127
12651,note_off,0,0,0,,4,,,64,127
12651,note_off,0,0,0,,7,,,55,127
12653,note_on,2,0,0,,5,,,53,127
12653,note_on,0,0,0,,5,,,65,127
12653,note_on,0,0,0,,11,,,70,127
12766,note_off,113,0,0,,11,,,70,127
12768,note_on,2,0,0,,8,,,68,127
12881,note_off,113,0,0,,8,,,68,127
12881,note_off,0,0,0,,5,,,65,127
12881,note_off,0,0,0,,5,,,53,127
12883,note_on,2,0,0,,0,,,48,127
12883,note_on,0,0,0,,11,,,70,127
12938,note_off,55,0,0,,11,,,70,127
12940,note_on,2,0,0,,8,,,68,127
12995,note_off,55,0,0,,8,,,68,127
12997,note_on,2,0,0,,11,,,70,127
13052,note_off,55,0,0,,11,,,70,127
13054,note_on,2,0,0,,8,,,68,127
13109,note_off,55,0,0,,8,,,68,127
13111,note_on,2,0,0,,7,,,67,127
13567,note_off,456,0,0,,7,,,67,127
13571,note_off,4,0,0,,0,,,48,127
13687,note_on,116,0,0,,7,,,79,127
13800,note_off,113,0,0,,7,,,79,127
13802,note_on,2,0,0,,0,,,72,127
13915,note_off,113,0,0,,0,,,72,127
13917,note_on,2,0,0,,7,,,79,127
14030,note_off,113,0,0,,7,,,79,127
14032,note_on,2,0,0,,0,,,72,127
14145,note_off,113,0,0,,0,,,72,127
14147,note_on,2,0,0,,7,,,79,127
14260,note_off,113,0,0,,7,,,79,127
14262,note_on,2,0,0,,11,,,82,127
14317,note_off,55,0,0,,11,,,82,127
14319,note_on,2,0,0,,8,,,80,127
14374,note_off,55,0,0,,8,,,80,127
14376,note_on,2,0,0,,7,,,67,127
14376,note_on,0,0,0,,11,,,82,127
14431,note_off,55,0,0,,11,,,82,127
14433,note_on,2,0,0,,8,,,80,127
14488,note_off,55,0,0,,8,,,80,127
14488,note_off,0,0,0,,7,,,67,127
14490,note_on,2,0,0,,0,,,60,127
14490,note_on,0,0,0,,11,,,82,127
14545,note_off,55,0,0,,11,,,82,127
14547,note_on,2,0,0,,8,,,80,127
14602,note_off,55,0,0,,8,,,80,127
14602,note_off,0,0,0,,0,,,60,127
14604,note_on,2,0,0,,7,,,67,127
14604,note_on,0,0,0,,11,,,82,127
14659,note_off,55,0,0,,11,,,82,127
14661,note_on,2,0,0,,8,,,80,127
14716,note_off,55,0,0,,8,,,80,127
14716,note_off,0,0,0,,7,,,67,127
14718,note_on,2,0,0,,0,,,60,127
14718,note_on,0,0,0,,7,,,79,127
14831,note_off,113,0,0,,0,,,60,127
14833,note_on,2,0,0,,7,,,67,127
14946,note_off,113,0,0,,7,,,67,127
14948,note_on,2,0,0,,0,,,60,127
14948,note_on,0,0,0,,8,,,68,127
14982,note_off,34,0,0,,7,,,79,127
15064,note_on,82,0,0,,5,,,77,127
15177,note_off,113,0,0,,5,,,77,127
15177,note_off,0,0,0,,8,,,68,127
15177,note_off,0,0,0,,0,,,60,127
15179,note_on,2,0,0,,8,,,68,127
15179,note_on,0,0,0,,0,,,60,127
15179,note_on,0,0,0,,4,,,76,127
15292,note_off,113,0,0,,4,,,76,127
15294,note_on,2,0,0,,5,,,77,127
15407,note_off,113,0,0,,5,,,77,127
15407,note_off,0,0,0,,0,,,60,127
15407,note_off,0,0,0,,8,,,68,127
15409,note_on,2,0,0,,0,,,60,127
15409,note_on,0,0,0,,12,,,71,127
15409,note_on,0,0,0,,7,,,79,127
15522,note_off,113,0,0,,7,,,79,127
15524,note_on,2,0,0,,5,,,77,127
15637,note_off,113,0,0,,5,,,77,127
15637,note_off,0,0,0,,12,,,71,127
15637,note_off,0,0,0,,0,,,60,127
15639,note_on,2,0,0,,0,,,60,127
15639,note_on,0,0,0,,0,,,72,127
15639,note_on,0,0,0,,4,,,76,127
15752,note_off,113,0,0,,4,,,76,127
15754,note_on,2,0,0,,7,,,79,127
15867,note_off,113,0,0,,7,,,79,127
15867,note_off,0,0,0,,0,,,72,127
15869,note_on,2,0,0,,0,,,72,127
15982,note_off,113,0,0,,0,,,72,127
15984,note_on,2,0,0,,7,,,79,127
16097,note_off,113,0,0,,7,,,79,127
16099,note_on,2,0,0,,0,,,72,127
16212,note_off,113,0,0,,0,,,72,127
16214,note_on,2,0,0,,7,,,79,127
16327,note_off,113,0,0,,7,,,79,127
16329,note_on,2,0,0,,11,,,82,127
16346,note_off,17,0,0,,0,,,60,127
16384,note_off,38,0,0,,11,,,82,127
16386,note_on,2,0,0,,8,,,80,127
16441,note_off,55,0,0,,8,,,80,127
16443,note_on,2,0,0,,7,,,67,127
16443,note_on,0,0,0,,11,,,82,127
16498,note_off,55,0,0,,11,,,82,127
16500,note_on,2,0,0,,8,,,80,127
16555,note_off,55,0,0,,8,,,80,127
16555,note_off,0,0,0,,7,,,67,127
16557,note_on,2,0,0,,0,,,60,127
16557,note_on,0,0,0,,11,,,82,127
16612,note_off,55,0,0,,11,,,82,127
16614,note_on,2,0,0,,8,,,80,127
16669,note_off,55,0,0,,8,,,80,127
16669,note_off,0,0,0,,0,,,60,127
16671,note_on,2,0,0,,7,,,67,127
16671,note_on,0,0,0,,11,,,82,127
16726,note_off,55,0,0,,11,,,82,127
16728,note_on,2,0,0,,8,,,80,127
16783,note_off,55,0,0,,8,,,80,127
16783,note_off,0,0,0,,7,,,67,127
16785,note_on,2,0,0,,0,,,60,127
16785,note_on,0,0,0,,7,,,79,127
16898,note_off,113,0,0,,0,,,60,127
16900,note_on,2,0,0,,7,,,67,127
17013,note_off,113,0,0,,7,,,67,127
17015,note_on,2,0,0,,8,,,68,127
17015,note_on,0,0,0,,0,,,60,127
17049,note_off,34,0,0,,7,,,79,127
17131,note_on,82,0,0,,5,,,77,127
17244,note_off,113,0,0,,5,,,77,127
17244,note_off,0,0,0,,0,,,60,127
17244,note_off,0,0,0,,8,,,68,127
17246,note_on,2,0,0,,0,,,60,127
17246,note_on,0,0,0,,8,,,68,127
17246,note_on,0,0,0,,4,,,76,127
17359,note_off,113,0,0,,4,,,76,127
17361,note_on,2,0,0,,5,,,77,127
17474,note_off,113,0,0,,5,,,77,127
17474,note_off,0,0,0,,8,,,68,127
17474,note_off,0,0,0,,0,,,60,127
17476,note_on,2,0,0,,0,,,60,127
17476,note_on,0,0,0,,12,,,71,127
17476,note_on,0,0,0,,7,,,79,127
17589,note_off,113,0,0,,7,,,79,127
17591,note_on,2,0,0,,5,,,77,127
17704,note_off,113,0,0,,5,,,77,127
17704,note_off,0,0,0,,12,,,71,127
17704,note_off,0,0,0,,0,,,60,127
17706,note_on,2,0,0,,0,,,60,127
17706,note_on,0,0,0,,0,,,72,127
17706,note_on,0,0,0,,4,,,76,127
17819,note_off,113,0,0,,4,,,76,127
17821,note_on,2,0,0,,11,,,82,127
17934,note_off,113,0,0,,11,,,82,127
17936,note_on,2,0,0,,7,,,79,127
18049,note_off,113,0,0,,7,,,79,127
18051,note_on,2,0,0,,4,,,76,127
18164,note_off,113,0,0,,4,,,76,127
18164,note_off,0,0,0,,0,,,72,127
18164,note_off,0,0,0,,0,,,60,127
18166,note_on,2,0,0,,7,,,67,127
18166,note_on,0,0,0,,4,,,64,127
18166,note_on,0,0,0,,0,,,72,127
18279,note_off,113,0,0,,0,,,72,127
18281,note_on,2,0,0,,11,,,82,127
18394,note_off,113,0,0,,11,,,82,127
18394,note_off,0,0,0,,4,,,64,127
18394,note_off,0,0,0,,7,,,67,127
18396,note_on,2,0,0,,5,,,65,127
18396,note_on,0,0,0,,8,,,68,127
18396,note_on,0,0,0,,11,,,82,127
18509,note_off,113,0,0,,11,,,82,127
18511,note_on,2,0,0,,8,,,80,127
18624,note_off,113,0,0,,8,,,80,127
18624,note_off,0,0,0,,8,,,68,127
18624,note_off,0,0,0,,5,,,65,127
18626,note_on,2,0,0,,8,,,68,127
18626,note_on,0,0,0,,5,,,65,127
18626,note_on,0,0,0,,8,,,80,127
18739,note_off,113,0,0,,8,,,80,127
18741,note_on,2,0,0,,7,,,79,127
18854,note_off,113,0,0,,7,,,79,127
18854,note_off,0,0,0,,5,,,65,127
18854,note_off,0,0,0,,8,,,68,127
18856,note_on,2,0,0,,3,,,63,127
18856,note_on,0,0,0,,7,,,67,127
18856,note_on,0,0,0,,7,,,79,127
18969,note_off,113,0,0,,7,,,79,127
18971,note_on,2,0,0,,8,,,80,127
19084,note_off,113,0,0,,7,,,67,127
19084,note_off,0,0,0,,3,,,63,127
19086,note_on,2,0,0,,2,,,62,127
19086,note_on,0,0,0,,5,,,65,127
19199,note_off,113,0,0,,8,,,80,127
19201,note_on,2,0,0,,8,,,80,127
19314,note_off,113,0,0,,8,,,80,127
19314,note_off,0,0,0,,5,,,65,127
19314,note_off,0,0,0,,2,,,62,127
19316,note_on,2,0,0,,5,,,65,127
19316,note_on,0,0,0,,2,,,62,127
19316,note_on,0,0,0,,5,,,77,127
19429,note_off,113,0,0,,5,,,77,127
19431,note_on,2,0,0,,2,,,74,127
19544,note_off,113,0,0,,2,,,74,127
19544,note_off,0,0,0,,2,,,62,127
19544,note_off,0,0,0,,5,,,65,127
19546,note_on,2,0,0,,5,,,65,127
19546,note_on,0,0,0,,2,,,62,127
19546,note_on,0,0,0,,12,,,71,127
19659,note_off,113,0,0,,12,,,71,127
19661,note_on,2,0,0,,8,,,80,127
19774,note_off,113,0,0,,8,,,80,127
19774,note_off,0,0,0,,2,,,62,127
19774,note_off,0,0,0,,5,,,65,127
19776,note_on,2,0,0,,3,,,63,127
19776,note_on,0,0,0,,7,,,67,127
19776,note_on,0,0,0,,8,,,80,127
19889,note_off,113,0,0,,8,,,80,127
19891,note_on,2,0,0,,7,,,79,127
20004,note_off,113,0,0,,7,,,79,127
20004,note_off,0,0,0,,7,,,67,127
20004,note_off,0,0,0,,3,,,63,127
20006,note_on,2,0,0,,3,,,63,127
20006,note_on,0,0,0,,7,,,67,127
20006,note_on,0,0,0,,7,,,79,127
20119,note_off,113,0,0,,7,,,79,127
20121,note_on,2,0,0,,6,,,78,127
20234,note_off,113,0,0,,6,,,78,127
20234,note_off,0,0,0,,7,,,67,127
20234,note_off,0,0,0,,3,,,63,127
20236,note_on,2,0,0,,2,,,62,127
20236,note_on,0,0,0,,5,,,65,127
20236,note_on,0,0,0,,6,,,78,127
20349,note_off,113,0,0,,6,,,78,127
20351,note_on,2,0,0,,7,,,79,127
20464,note_off,113,0,0,,5,,,65,127
20464,note_off,0,0,0,,2,,,62,127
20466,note_on,2,0,0,,0,,,60,127
20466,note_on,0,0,0,,3,,,63,127
20579,note_off,113,0,0,,7,,,79,127
20581,note_on,2,0,0,,7,,,79,127
20694,note_off,113,0,0,,7,,,79,127
20694,note_off,0,0,0,,3,,,63,127
20694,note_off,0,0,0,,0,,,60,127
20696,note_on,2,0,0,,3,,,63,127
20696,note_on,0,0,0,,0,,,60,127
20696,note_on,0,0,0,,3,,,75,127
20809,note_off,113,0,0,,3,,,75,127
20811,note_on,2,0,0,,0,,,72,127
20924,note_off,113,0,0,,0,,,72,127
20924,note_off,0,0,0,,0,,,60,127
20924,note_off,0,0,0,,3,,,63,127
20926,note_on,2,0,0,,3,,,63,127
20926,note_on,0,0,0,,0,,,60,127
20926,note_on,0,0,0,,8,,,68,127
21039,note_off,113,0,0,,8,,,68,127
21041,note_on,2,0,0,,7,,,79,127
21154,note_off,113,0,0,,7,,,79,127
21154,note_off,0,0,0,,0,,,60,127
21154,note_off,0,0,0,,3,,,63,127
21156,note_on,2,0,0,,2,,,62,127
21156,note_on,0,0,0,,5,,,65,127
21156,note_on,0,0,0,,7,,,79,127
21269,note_off,113,0,0,,7,,,79,127
21271,note_on,2,0,0,,5,,,77,127
21384,note_off,113,0,0,,5,,,77,127
21384,note_off,0,0,0,,5,,,65,127
21384,note_off,0,0,0,,2,,,62,127
21386,note_on,2,0,0,,5,,,65,127
21386,note_on,0,0,0,,2,,,62,127
21386,note_on,0,0,0,,5,,,77,127
21499,note_off,113,0,0,,5,,,77,127
21501,note_on,2,0,0,,4,,,76,127
21614,note_off,113,0,0,,4,,,76,127
21614,note_off,0,0,0,,2,,,62,127
21614,note_off,0,0,0,,5,,,65,127
21616,note_on,2,0,0,,0,,,60,127
21616,note_on,0,0,0,,8,,,68,127
21616,note_on,0,0,0,,4,,,76,127
21729,note_off,113,0,0,,4,,,76,127
21731,note_on,2,0,0,,5,,,77,127
21844,note_off,113,0,0,,8,,,68,127
21844,note_off,0,0,0,,0,,,60,127
21846,note_on,2,0,0,,12,,,59,127
21846,note_on,0,0,0,,7,,,67,127
21959,note_off,113,0,0,,5,,,77,127
21961,note_on,2,0,0,,5,,,77,127
22074,note_off,113,0,0,,5,,,77,127
22074,note_off,0,0,0,,7,,,67,127
22074,note_off,0,0,0,,12,,,59,127
22076,note_on,2,0,0,,12,,,59,127
22076,note_on,0,0,0,,7,,,67,127
22076,note_on,0,0,0,,2,,,74,127
22189,note_off,113,0,0,,2,,,74,127
22191,note_on,2,0,0,,12,,,71,127
22304,note_off,113,0,0,,12,,,71,127
22304,note_off,0,0,0,,7,,,67,127
22304,note_off,0,0,0,,12,,,59,127
22306,note_on,2,0,0,,12,,,59,127
22306,note_on,0,0,0,,7,,,67,127
22306,note_on,0,0,0,,7,,,79,127
22419,note_off,113,0,0,,7,,,79,127
22421,note_on,2,0,0,,5,,,77,127
22534,note_off,113,0,0,,5,,,77,127
22534,note_off,0,0,0,,7,,,67,127
22534,note_off,0,0,0,,12,,,59,127
22536,note_on,2,0,0,,0,,,60,127
22536,note_on,0,0,0,,5,,,77,127
22591,note_off,55,0,0,,5,,,77,127
22593,note_on,2,0,0,,3,,,75,127
22648,note_off,55,0,0,,3,,,75,127
22650,note_on,2,0,0,,5,,,77,127
22705,note_off,55,0,0,,5,,,77,127
22707,note_on,2,0,0,,3,,,75,127
22762,note_off,55,0,0,,3,,,75,127
22762,note_off,0,0,0,,0,,,60,127
22764,note_on,2,0,0,,0,,,48,127
22764,note_on,0,0,0,,5,,,77,127
22819,note_off,55,0,0,,5,,,77,127
22821,note_on,2,0,0,,3,,,75,127
22876,note_off,55,0,0,,3,,,75,127
22878,note_on,2,0,0,,2,,,74,127
22991,note_off,113,0,0,,2,,,74,127
22991,note_off,0,0,0,,0,,,48,127
22993,note_on,2,0,0,,0,,,36,127
22993,note_on,0,0,0,,0,,,72,127
23221,note_off,228,0,0,,0,,,72,127
23221,note_off,0,0,0,,0,,,36,127
23223,note_on,2,0,0,,0,,,60,127
23338,note_on,115,0,0,,5,,,77,127
23451,note_off,113,0,0,,5,,,77,127
23453,note_on,2,0,0,,3,,,75,127
23568,note_on,115,0,0,,7,,,67,127
23681,note_off,113,0,0,,7,,,67,127
23681,note_off,0,0,0,,0,,,60,127
23683,note_on,2,0,0,,5,,,65,127
23683,note_on,0,0,0,,8,,,68,127
23796,note_off,113,0,0,,3,,,75,127
23798,note_on,2,0,0,,2,,,74,127
23911,note_off,113,0,0,,8,,,68,127
23911,note_off,0,0,0,,5,,,65,127
23913,note_on,2,0,0,,3,,,63,127
23913,note_on,0,0,0,,7,,,67,127
24026,note_off,113,0,0,,2,,,74,127
24028,note_on,2,0,0,,0,,,72,127
24141,note_off,113,0,0,,7,,,67,127
24141,note_off,0,0,0,,3,,,63,127
24143,note_on,2,0,0,,2,,,62,127
24143,note_on,0,0,0,,5,,,65,127
24256,note_off,113,0,0,,0,,,72,127
24258,note_on,2,0,0,,12,,,71,127
24371,note_off,113,0,0,,12,,,71,127
24371,note_off,0,0,0,,5,,,65,127
24371,note_off,0,0,0,,2,,,62,127
24373,note_on,2,0,0,,0,,,60,127
24373,note_on,0,0,0,,0,,,72,127
24486,note_off,113,0,0,,0,,,72,127
24488,note_on,2,0,0,,8,,,68,127
24601,note_off,113,0,0,,0,,,60,127
24603,note_on,2,0,0,,12,,,59,127
24603,note_on,0,0,0,,2,,,74,127
24716,note_off,113,0,0,,8,,,68,127
24718,note_on,2,0,0,,7,,,67,127
24831,note_off,113,0,0,,2,,,74,127
24831,note_off,0,0,0,,12,,,59,127
24833,note_on,2,0,0,,2,,,62,127
24833,note_on,0,0,0,,12,,,71,127
24946,note_off,113,0,0,,7,,,67,127
24948,note_on,2,0,0,,5,,,65,127
25061,note_off,113,0,0,,12,,,71,127
25061,note_off,0,0,0,,2,,,62,127
25063,note_on,2,0,0,,0,,,60,127
25063,note_on,0,0,0,,0,,,72,127
25176,note_off,113,0,0,,5,,,65,127
25178,note_on,2,0,0,,3,,,63,127
25291,note_off,113,0,0,,3,,,63,127
25291,note_off,0,0,0,,0,,,60,127
25293,note_on,2,0,0,,7,,,55,127
25293,note_on,0,0,0,,2,,,62,127
25519,note_off,226,0,0,,0,,,72,127
25521,note_off,2,0,0,,7,,,55,127
25523,note_on,2,0,0,,7,,,43,127
25523,note_on,0,0,0,,0,,,72,127
25578,note_off,55,0,0,,0,,,72,127
25580,note_on,2,0,0,,12,,,71,127
25635,note_off,55,0,0,,12,,,71,127
25637,note_on,2,0,0,,10,,,69,127
25750,note_off,113,0,0,,10,,,69,127
25752,note_on,2,0,0,,12,,,71,127
25980,note_off,228,0,0,,12,,,71,127
25980,note_off,0,0,0,,7,,,43,127
25981,note_off,1,0,0,,2,,,62,127
25982,note_on,1,0,0,,0,,,60,127
26097,note_on,115,0,0,,5,,,77,127
26210,note_off,113,0,0,,5,,,77,127
26212,note_on,2,0,0,,3,,,75,127
26327,note_on,115,0,0,,7,,,67,127
26440,note_off,113,0,0,,7,,,67,127
26440,note_off,0,0,0,,0,,,60,127
26442,note_on,2,0,0,,5,,,65,127
26442,note_on,0,0,0,,8,,,68,127
26555,note_off,113,0,0,,3,,,75,127
26557,note_on,2,0,0,,2,,,74,127
26670,note_off,113,0,0,,8,,,68,127
26670,note_off,0,0,0,,5,,,65,127
26672,note_on,2,0,0,,3,,,63,127
26672,note_on,0,0,0,,7,,,67,127
26785,note_off,113,0,0,,2,,,74,127
26787,note_on,2,0,0,,0,,,72,127
26900,note_off,113,0,0,,7,,,67,127
26900,note_off,0,0,0,,3,,,63,127
26902,note_on,2,0,0,,2,,,62,127
26902,note_on,0,0,0,,5,,,65,127
27015,note_off,113,0,0,,0,,,72,127
27017,note_on,2,0,0,,12,,,71,127
27130,note_off,113,0,0,,12,,,71,127
27130,note_off,0,0,0,,5,,,65,127
27130,note_off,0,0,0,,2,,,62,127
27132,note_on,2,0,0,,0,,,60,127
27132,note_on,0,0,0,,0,,,72,127
27245,note_off,113,0,0,,0,,,72,127
27247,note_on,2,0,0,,8,,,68,127
27360,note_off,113,0,0,,0,,,60,127
27362,note_on,2,0,0,,12,,,59,127
27362,note_on,0,0,0,,2,,,74,127
27475,note_off,113,0,0,,8,,,68,127
27477,note_on,2,0,0,,7,,,67,127
27590,note_off,113,0,0,,2,,,74,127
27590,note_off,0,0,0,,12,,,59,127
27592,note_on,2,0,0,,2,,,62,127
27592,note_on,0,0,0,,12,,,71,127
27705,note_off,113,0,0,,7,,,67,127
27707,note_on,2,0,0,,5,,,65,127
27820,note_off,113,0,0,,12,,,71,127
27820,note_off,0,0,0,,2,,,62,127
27822,note_on,2,0,0,,0,,,60,127
27822,note_on,0,0,0,,0,,,72,127
27935,note_off,113,0,0,,5,,,65,127
27937,note_on,2,0,0,,3,,,63,127
28050,note_off,113,0,0,,3,,,63,127
28050,note_off,0,0,0,,0,,,60,127
28052,note_on,2,0,0,,7,,,55,127
28052,note_on,0,0,0,,2,,,62,127
28278,note_off,226,0,0,,0,,,72,127
28280,note_off,2,0,0,,7,,,55,127
28282,note_on,2,0,0,,7,,,43,127
28282,note_on,0,0,0,,0,,,72,127
28337,note_off,55,0,0,,0,,,72,127
28339,note_on,2,0,0,,12,,,71,127
28394,note_off,55,0,0,,12,,,71,127
28396,note_on,2,0,0,,10,,,69,127
28509,note_off,113,0,0,,10,,,69,127
28511,note_on,2,0,0,,12,,,71,127
28739,note_off,228,0,0,,12,,,71,127
28739,note_off,0,0,0,,7,,,43,127
28740,note_off,1,0,0,,2,,,62,127
28741,note_on,1,0,0,,7,,,55,127
28856,note_on,115,0,0,,2,,,74,127
28969,note_off,113,0,0,,2,,,74,127
28971,note_on,2,0,0,,12,,,71,127
29084,note_off,113,0,0,,12,,,71,127
29086,note_on,2,0,0,,7,,,67,127
29199,note_off,113,0,0,,7,,,67,127
29199,note_off,0,0,0,,7,,,55,127
29201,note_on,2,0,0,,5,,,53,127
29201,note_on,0,0,0,,8,,,68,127
29314,note_off,113,0,0,,8,,,68,127
29316,note_on,2,0,0,,0,,,72,127
29429,note_off,113,0,0,,0,,,72,127
29429,note_off,0,0,0,,5,,,53,127
29431,note_on,2,0,0,,7,,,55,127
29431,note_on,0,0,0,,0,,,72,127
29544,note_off,113,0,0,,7,,,55,127
29546,note_on,2,0,0,,2,,,62,127
29659,note_off,113,0,0,,2,,,62,127
29659,note_off,0,0,0,,0,,,72,127
29661,note_on,2,0,0,,12,,,59,127
29661,note_on,0,0,0,,2,,,74,127
29774,note_off,113,0,0,,12,,,59,127
29776,note_on,2,0,0,,7,,,55,127
29889,note_off,113,0,0,,7,,,55,127
29889,note_off,0,0,0,,2,,,74,127
29891,note_on,2,0,0,,8,,,56,127
29891,note_on,0,0,0,,0,,,72,127
30004,note_off,113,0,0,,8,,,56,127
30006,note_on,2,0,0,,0,,,60,127
30107,note_off,101,0,0,,0,,,72,127
30119,note_off,12,0,0,,0,,,60,127
30121,note_on,2,0,0,,7,,,55,127
30236,note_on,115,0,0,,2,,,74,127
30349,note_off,113,0,0,,2,,,74,127
30351,note_on,2,0,0,,12,,,71,127
30464,note_off,113,0,0,,12,,,71,127
30466,note_on,2,0,0,,7,,,67,127
30579,note_off,113,0,0,,7,,,67,127
30579,note_off,0,0,0,,7,,,55,127
30581,note_on,2,0,0,,5,,,53,127
30581,note_on,0,0,0,,8,,,68,127
30694,note_off,113,0,0,,8,,,68,127
30696,note_on,2,0,0,,0,,,72,127
30809,note_off,113,0,0,,0,,,72,127
30809,note_off,0,0,0,,5,,,53,127
30811,note_on,2,0,0,,7,,,55,127
30811,note_on,0,0,0,,0,,,72,127
30924,note_off,113,0,0,,7,,,55,127
30926,note_on,2,0,0,,2,,,62,127
31039,note_off,113,0,0,,2,,,62,127
31039,note_off,0,0,0,,0,,,72,127
31041,note_on,2,0,0,,12,,,59,127
31041,note_on,0,0,0,,2,,,74,127
31154,note_off,113,0,0,,12,,,59,127
31156,note_on,2,0,0,,7,,,55,127
31269,note_off,113,0,0,,7,,,55,127
31269,note_off,0,0,0,,2,,,74,127
31271,note_on,2,0,0,,8,,,56,127
31271,note_on,0,0,0,,0,,,72,127
31384,note_off,113,0,0,,8,,,56,127
31386,note_on,2,0,0,,0,,,60,127
31487,note_off,101,0,0,,0,,,72,127
31499,note_off,12,0,0,,0,,,60,127
31501,note_on,2,0,0,,7,,,55,127
31616,note_on,115,0,0,,2,,,74,127
31729,note_off,113,0,0,,2,,,74,127
31731,note_on,2,0,0,,7,,,67,127
31844,note_off,113,0,0,,7,,,67,127
31846,note_on,2,0,0,,2,,,74,127
31959,note_off,113,0,0,,2,,,74,127
31959,note_off,0,0,0,,7,,,55,127
31961,note_on,2,0,0,,12,,,59,127
31961,note_on,0,0,0,,7,,,67,127
32074,note_off,113,0,0,,7,,,67,127
32076,note_on,2,0,0,,2,,,74,127
32189,note_off,113,0,0,,2,,,74,127
32189,note_off,0,0,0,,12,,,59,127
32191,note_on,2,0,0,,0,,,60,127
32191,note_on,0,0,0,,3,,,75,127
32304,note_off,113,0,0,,3,,,75,127
32306,note_on,2,0,0,,7,,,79,127
32419,note_off,113,0,0,,7,,,79,127
32419,note_off,0,0,0,,0,,,60,127
32421,note_on,2,0,0,,0,,,48,127
32421,note_on,0,0,0,,0,,,72,127
32534,note_off,113,0,0,,0,,,72,127
32536,note_on,2,0,0,,7,,,79,127
32649,note_off,113,0,0,,7,,,79,127
32649,note_off,0,0,0,,0,,,48,127
32651,note_on,2,0,0,,3,,,51,127
32651,note_on,0,0,0,,0,,,72,127
32764,note_off,113,0,0,,0,,,72,127
32766,note_on,2,0,0,,7,,,79,127
32879,note_off,113,0,0,,7,,,79,127
32879,note_off,0,0,0,,3,,,51,127
32881,note_on,2,0,0,,5,,,53,127
32881,note_on,0,0,0,,0,,,84,127
32994,note_off,113,0,0,,0,,,84,127
32996,note_on,2,0,0,,8,,,80,127
33109,note_off,113,0,0,,8,,,80,127
33109,note_off,0,0,0,,5,,,53,127
33111,note_on,2,0,0,,7,,,55,127
33111,note_on,0,0,0,,7,,,79,127
33224,note_off,113,0,0,,7,,,79,127
33226,note_on,2,0,0,,5,,,77,127
33339,note_off,113,0,0,,5,,,77,127
33339,note_off,0,0,0,,7,,,55,127
33341,note_on,2,0,0,,7,,,43,127
33341,note_on,0,0,0,,3,,,75,127
33454,note_off,113,0,0,,3,,,75,127
33456,note_on,2,0,0,,2,,,74,127
33569,note_off,113,0,0,,2,,,74,127
33569,note_off,0,0,0,,7,,,43,127
33571,note_on,2,0,0,,0,,,36,127
33571,note_on,0,0,0,,0,,,72,127
34027,note_off,456,0,0,,0,,,72,127
34260,note_off,233,0,0,,0,,,36,127
34262,note_on,2,0,0,,7,,,55,127
34377,note_on,115,0,0,,2,,,74,127
34490,note_off,113,0,0,,2,,,74,127
34492,note_on,2,0,0,,12,,,71,127
34605,note_off,113,0,0,,12,,,71,127
34607,note_on,2,0,0,,7,,,67,127
34720,note_off,113,0,0,,7,,,67,127
34720,note_off,0,0,0,,7,,,55,127
34722,note_on,2,0,0,,5,,,53,127
34722,note_on,0,0,0,,8,,,68,127
34835,note_off,113,0,0,,8,,,68,127
34837,note_on,2,0,0,,0,,,72,127
34950,note_off,113,0,0,,5,,,53,127
34952,note_on,2,0,0,,7,,,55,127
35065,note_off,113,0,0,,7,,,55,127
35067,note_on,2,0,0,,2,,,62,127
35180,note_off,113,0,0,,2,,,62,127
35182,note_off,2,0,0,,0,,,72,127
35182,note_on,0,0,0,,12,,,59,127
35182,note_on,0,0,0,,2,,,74,127
35295,note_off,113,0,0,,12,,,59,127
35297,note_on,2,0,0,,7,,,55,127
35410,note_off,113,0,0,,7,,,55,127
35410,note_off,0,0,0,,2,,,74,127
35412,note_on,2,0,0,,8,,,56,127
35412,note_on,0,0,0,,0,,,72,127
35525,note_off,113,0,0,,8,,,56,127
35527,note_on,2,0,0,,0,,,60,127
35628,note_off,101,0,0,,0,,,72,127
35640,note_off,12,0,0,,0,,,60,127
35642,note_on,2,0,0,,7,,,55,127
35757,note_on,115,0,0,,2,,,74,127
35870,note_off,113,0,0,,2,,,74,127
35872,note_on,2,0,0,,12,,,71,127
35985,note_off,113,0,0,,12,,,71,127
35987,note_on,2,0,0,,7,,,67,127
36100,note_off,113,0,0,,7,,,67,127
36100,note_off,0,0,0,,7,,,55,127
36102,note_on,2,0,0,,5,,,53,127
36102,note_on,0,0,0,,8,,,68,127
36215,note_off,113,0,0,,8,,,68,127
36217,note_on,2,0,0,,0,,,72,127
36330,note_off,113,0,0,,5,,,53,127
36331,note_off,1,0,0,,0,,,72,127
36332,note_on,1,0,0,,0,,,72,127
36332,note_on,0,0,0,,7,,,55,127
36445,note_off,113,0,0,,7,,,55,127
36447,note_on,2,0,0,,2,,,62,127
36560,note_off,113,0,0,,2,,,62,127
36562,note_on,2,0,0,,12,,,59,127
36675,note_off,113,0,0,,12,,,59,127
36677,note_on,2,0,0,,7,,,55,127
36790,note_off,113,0,0,,7,,,55,127
36790,note_off,0,0,0,,0,,,72,127
36792,note_on,2,0,0,,8,,,56,127
36792,note_on,0,0,0,,2,,,74,127
36905,note_off,113,0,0,,8,,,56,127
36907,note_on,2,0,0,,0,,,60,127
37008,note_off,101,0,0,,2,,,74,127
37020,note_off,12,0,0,,0,,,60,127
37022,note_on,2,0,0,,7,,,55,127
37137,note_on,115,0,0,,2,,,74,127
37250,note_off,113,0,0,,2,,,74,127
37252,note_on,2,0,0,,7,,,67,127
37365,note_off,113,0,0,,7,,,67,127
37367,note_on,2,0,0,,2,,,74,127
37480,note_off,113,0,0,,2,,,74,127
37480,note_off,0,0,0,,7,,,55,127
37482,note_on,2,0,0,,12,,,59,127
37482,note_on,0,0,0,,7,,,67,127
37595,note_off,113,0,0,,7,,,67,127
37597,note_on,2,0,0,,2,,,74,127
37710,note_off,113,0,0,,2,,,74,127
37710,note_off,0,0,0,,12,,,59,127
37712,note_on,2,0,0,,0,,,60,127
37712,note_on,0,0,0,,3,,,75,127
37825,note_off,113,0,0,,3,,,75,127
37827,note_on,2,0,0,,7,,,79,127
37940,note_off,113,0,0,,7,,,79,127
37940,note_off,0,0,0,,0,,,60,127
37942,note_on,2,0,0,,0,,,48,127
37942,note_on,0,0,0,,0,,,72,127
38055,note_off,113,0,0,,0,,,72,127
38057,note_on,2,0,0,,7,,,79,127
38170,note_off,113,0,0,,7,,,79,127
38170,note_off,0,0,0,,0,,,48,127
38172,note_on,2,0,0,,3,,,51,127
38172,note_on,0,0,0,,0,,,72,127
38285,note_off,113,0,0,,0,,,72,127
38287,note_on,2,0,0,,7,,,79,127
38400,note_off,113,0,0,,7,,,79,127
38400,note_off,0,0,0,,3,,,51,127
38402,note_on,2,0,0,,5,,,53,127
38402,note_on,0,0,0,,0,,,84,127
38515,note_off,113,0,0,,0,,,84,127
38517,note_on,2,0,0,,8,,,80,127
38630,note_off,113,0,0,,8,,,80,127
38630,note_off,0,0,0,,5,,,53,127
38632,note_on,2,0,0,,7,,,55,127
38632,note_on,0,0,0,,7,,,79,127
38745,note_off,113,0,0,,7,,,79,127
38747,note_on,2,0,0,,5,,,77,127
38860,note_off,113,0,0,,5,,,77,127
38860,note_off,0,0,0,,7,,,55,127
38862,note_on,2,0,0,,7,,,43,127
38862,note_on,0,0,0,,3,,,75,127
38975,note_off,113,0,0,,3,,,75,127
38977,note_on,2,0,0,,2,,,74,127
39090,note_off,113,0,0,,2,,,74,127
39090,note_off,0,0,0,,7,,,43,127
39092,note_on,2,0,0,,0,,,48,127
39092,note_on,0,0,0,,0,,,84,127
39207,note_on,115,0,0,,0,,,72,127
39320,note_off,113,0,0,,0,,,72,127
39320,note_off,0,0,0,,0,,,84,127
39322,note_on,2,0,0,,7,,,79,127
39437,note_on,115,0,0,,7,,,67,127
39550,note_off,113,0,0,,7,,,67,127
39550,note_off,0,0,0,,7,,,79,127
39550,note_off,0,0,0,,0,,,48,127
39552,note_on,2,0,0,,3,,,51,127
39552,note_on,0,0,0,,0,,,72,127
39667,note_on,115,0,0,,0,,,60,127
39780,note_off,113,0,0,,0,,,72,127
39780,note_off,0,0,0,,3,,,51,127
39781,note_off,1,0,0,,0,,,60,127
39782,note_on,1,0,0,,5,,,53,127
39897,note_on,115,0,0,,8,,,80,127
40010,note_off,113,0,0,,8,,,80,127
40010,note_off,0,0,0,,5,,,53,127
40012,note_on,2,0,0,,7,,,55,127
40012,note_on,0,0,0,,7,,,79,127
40125,note_off,113,0,0,,7,,,79,127
40127,note_on,2,0,0,,5,,,77,127
40240,note_off,113,0,0,,5,,,77,127
40240,note_off,0,0,0,,7,,,55,127
40242,note_on,2,0,0,,7,,,43,127
40242,note_on,0,0,0,,3,,,75,127
40355,note_off,113,0,0,,3,,,75,127
40357,note_on,2,0,0,,2,,,74,127
40470,note_off,113,0,0,,2,,,74,127
40470,note_off,0,0,0,,7,,,43,127
40472,note_on,2,0,0,,0,,,48,127
40472,note_on,0,0,0,,0,,,84,127
40587,note_on,115,0,0,,0,,,72,127
40700,note_off,113,0,0,,0,,,72,127
40700,note_off,0,0,0,,0,,,84,127
40702,note_on,2,0,0,,7,,,79,127
40817,note_on,115,0,0,,7,,,67,127
40930,note_off,113,0,0,,7,,,67,127
40930,note_off,0,0,0,,7,,,79,127
40930,note_off,0,0,0,,0,,,48,127
40932,note_on,2,0,0,,3,,,51,127
40932,note_on,0,0,0,,0,,,72,127
41047,note_on,115,0,0,,0,,,60,127
41160,note_off,113,0,0,,0,,,72,127
41160,note_off,0,0,0,,3,,,51,127
41161,note_off,1,0,0,,0,,,60,127
41162,note_on,1,0,0,,5,,,53,127
41277,note_on,115,0,0,,8,,,80,127
41390,note_off,113,0,0,,8,,,80,127
41390,note_off,0,0,0,,5,,,53,127
41392,note_on,2,0,0,,7,,,55,127
41392,note_on,0,0,0,,7,,,79,127
41505,note_off,113,0,0,,7,,,79,127
41507,note_on,2,0,0,,5,,,77,127
41620,note_off,113,0,0,,5,,,77,127
41620,note_off,0,0,0,,7,,,55,127
41622,note_on,2,0,0,,7,,,43,127
41622,note_on,0,0,0,,3,,,75,127
41735,note_off,113,0,0,,3,,,75,127
41737,note_on,2,0,0,,2,,,74,127
41850,note_off,113,0,0,,2,,,74,127
41850,note_off,0,0,0,,7,,,43,127
41852,note_on,2,0,0,,0,,,48,127
41852,note_on,0,0,0,,0,,,84,127
41967,note_on,115,0,0,,0,,,72,127
42080,note_off,113,0,0,,0,,,72,127
42080,note_off,0,0,0,,0,,,84,127
42082,note_on,2,0,0,,7,,,79,127
42197,note_on,115,0,0,,7,,,67,127
42310,note_off,113,0,0,,7,,,67,127
42310,note_off,0,0,0,,7,,,79,127
42310,note_off,0,0,0,,0,,,48,127
42312,note_on,2,0,0,,3,,,51,127
42312,note_on,0,0,0,,0,,,72,127
42427,note_on,115,0,0,,0,,,60,127
42540,note_off,113,0,0,,0,,,60,127
42540,note_off,0,0,0,,0,,,72,127
42540,note_off,0,0,0,,3,,,51,127
42542,note_on,2,0,0,,5,,,53,127
42542,note_on,0,0,0,,5,,,65,127
42655,note_off,113,0,0,,5,,,65,127
42657,note_on,2,0,0,,8,,,68,127
42770,note_off,113,0,0,,8,,,68,127
42770,note_off,0,0,0,,5,,,53,127
42772,note_on,2,0,0,,7,,,55,127
42772,note_on,0,0,0,,7,,,67,127
42885,note_off,113,0,0,,7,,,67,127
42887,note_on,2,0,0,,5,,,65,127
43000,note_off,113,0,0,,5,,,65,127
43000,note_off,0,0,0,,7,,,55,127
43002,note_on,2,0,0,,7,,,43,127
43002,note_on,0,0,0,,3,,,63,127
43115,note_off,113,0,0,,3,,,63,127
43117,note_on,2,0,0,,2,,,62,127
43230,note_off,113,0,0,,2,,,62,127
43230,note_off,0,0,0,,7,,,43,127
43232,note_on,2,0,0,,0,,,36,127
43232,note_on,0,0,0,,0,,,60,127
43808,note_off,576,0,0,,0,,,60,127
43921,note_off,113,0,0,,0,,,36,127
43923,note_on,2,0,0,,0,,,48,127
44038,note_on,115,0,0,,7,,,79,127
44151,note_off,113,0,0,,7,,,79,127
44153,note_on,2,0,0,,0,,,72,127
44266,note_off,113,0,0,,0,,,72,127
44268,note_on,2,0,0,,7,,,79,127
44381,note_off,113,0,0,,7,,,79,127
44383,note_on,2,0,0,,0,,,72,127
44496,note_off,113,0,0,,0,,,72,127
44498,note_off,2,0,0,,0,,,48,127
44498,note_on,0,0,0,,7,,,79,127
44611,note_off,113,0,0,,7,,,79,127
44613,note_on,2,0,0,,11,,,82,127
44668,note_off,55,0,0,,11,,,82,127
44670,note_on,2,0,0,,8,,,80,127
44725,note_off,55,0,0,,8,,,80,127
44727,note_on,2,0,0,,7,,,67,127
44727,note_on,0,0,0,,11,,,82,127
44782,note_off,55,0,0,,11,,,82,127
44784,note_on,2,0,0,,8,,,80,127
44839,note_off,55,0,0,,8,,,80,127
44839,note_off,0,0,0,,7,,,67,127
44841,note_on,2,0,0,,0,,,60,127
44841,note_on,0,0,0,,11,,,82,127
44896,note_off,55,0,0,,11,,,82,127
44898,note_on,2,0,0,,8,,,80,127
44953,note_off,55,0,0,,8,,,80,127
44953,note_off,0,0,0,,0,,,60,127
44955,note_on,2,0,0,,7,,,67,127
44955,note_on,0,0,0,,11,,,82,127
45010,note_off,55,0,0,,11,,,82,127
45012,note_on,2,0,0,,8,,,80,127
45067,note_off,55,0,0,,8,,,80,127
45067,note_off,0,0,0,,7,,,67,127
45069,note_on,2,0,0,,0,,,60,127
45069,note_on,0,0,0,,7,,,79,127
45182,note_off,113,0,0,,0,,,60,127
45184,note_on,2,0,0,,7,,,67,127
45297,note_off,113,0,0,,7,,,67,127
45299,note_on,2,0,0,,0,,,60,127
45299,note_on,0,0,0,,8,,,68,127
45412,note_off,113,0,0,,7,,,79,127
45414,note_on,2,0,0,,5,,,77,127
45527,note_off,113,0,0,,5,,,77,127
45527,note_off,0,0,0,,8,,,68,127
45527,note_off,0,0,0,,0,,,60,127
45529,note_on,2,0,0,,8,,,68,127
45529,note_on,0,0,0,,0,,,60,127
45529,note_on,0,0,0,,4,,,76,127
45642,note_off,113,0,0,,4,,,76,127
45644,note_on,2,0,0,,5,,,77,127
45757,note_off,113,0,0,,5,,,77,127
45757,note_off,0,0,0,,0,,,60,127
45757,note_off,0,0,0,,8,,,68,127
45759,note_on,2,0,0,,12,,,71,127
45759,note_on,0,0,0,,0,,,60,127
45759,note_on,0,0,0,,7,,,79,127
45872,note_off,113,0,0,,7,,,79,127
45874,note_on,2,0,0,,5,,,77,127
45987,note_off,113,0,0,,5,,,77,127
45987,note_off,0,0,0,,0,,,60,127
45987,note_off,0,0,0,,12,,,71,127
45989,note_on,2,0,0,,0,,,60,127
45989,note_on,0,0,0,,0,,,72,127
45989,note_on,0,0,0,,4,,,76,127
46102,note_off,113,0,0,,4,,,76,127
46104,note_on,2,0,0,,7,,,79,127
46217,note_off,113,0,0,,7,,,79,127
46217,note_off,0,0,0,,0,,,72,127
46219,note_on,2,0,0,,0,,,72,127
46332,note_off,113,0,0,,0,,,72,127
46334,note_on,2,0,0,,7,,,79,127
46447,note_off,113,0,0,,7,,,79,127
46449,note_on,2,0,0,,0,,,72,127
46562,note_off,113,0,0,,0,,,72,127
46564,note_off,2,0,0,,0,,,60,127
46564,note_on,0,0,0,,7,,,79,127
46677,note_off,113,0,0,,7,,,79,127
46679,note_on,2,0,0,,11,,,82,127
46734,note_off,55,0,0,,11,,,82,127
46736,note_on,2,0,0,,8,,,80,127
46791,note_off,55,0,0,,8,,,80,127
46793,note_on,2,0,0,,7,,,67,127
46793,note_on,0,0,0,,11,,,82,127
46848,note_off,55,0,0,,11,,,82,127
46850,note_on,2,0,0,,8,,,80,127
46905,note_off,55,0,0,,8,,,80,127
46905,note_off,0,0,0,,7,,,67,127
46907,note_on,2,0,0,,0,,,60,127
46907,note_on,0,0,0,,11,,,82,127
46962,note_off,55,0,0,,11,,,82,127
46964,note_on,2,0,0,,8,,,80,127
47019,note_off,55,0,0,,8,,,80,127
47019,note_off,0,0,0,,0,,,60,127
47021,note_on,2,0,0,,7,,,67,127
47021,note_on,0,0,0,,11,,,82,127
47076,note_off,55,0,0,,11,,,82,127
47078,note_on,2,0,0,,8,,,80,127
47133,note_off,55,0,0,,8,,,80,127
47133,note_off,0,0,0,,7,,,67,127
47135,note_on,2,0,0,,0,,,60,127
47135,note_on,0,0,0,,7,,,79,127
47248,note_off,113,0,0,,0,,,60,127
47250,note_on,2,0,0,,7,,,67,127
47363,note_off,113,0,0,,7,,,67,127
47365,note_on,2,0,0,,0,,,60,127
47365,note_on,0,0,0,,8,,,68,127
47478,note_off,113,0,0,,7,,,79,127
47480,note_on,2,0,0,,5,,,77,127
47593,note_off,113,0,0,,5,,,77,127
47593,note_off,0,0,0,,8,,,68,127
47593,note_off,0,0,0,,0,,,60,127
47595,note_on,2,0,0,,8,,,68,127
47595,note_on,0,0,0,,0,,,60,127
47595,note_on,0,0,0,,4,,,76,127
47708,note_off,113,0,0,,4,,,76,127
47710,note_on,2,0,0,,5,,,77,127
47823,note_off,113,0,0,,5,,,77,127
47823,note_off,0,0,0,,0,,,60,127
47823,note_off,0,0,0,,8,,,68,127
47825,note_on,2,0,0,,0,,,60,127
47825,note_on,0,0,0,,12,,,71,127
47825,note_on,0,0,0,,7,,,79,127
47938,note_off,113,0,0,,7,,,79,127
47940,note_on,2,0,0,,5,,,77,127
48053,note_off,113,0,0,,5,,,77,127
48053,note_off,0,0,0,,12,,,71,127
48053,note_off,0,0,0,,0,,,60,127
48055,note_on,2,0,0,,0,,,72,127
48055,note_on,0,0,0,,0,,,60,127
48055,note_on,0,0,0,,4,,,76,127
48168,note_off,113,0,0,,4,,,76,127
48170,note_on,2,0,0,,0,,,84,127
48283,note_off,113,0,0,,0,,,84,127
48283,note_off,0,0,0,,0,,,60,127
48283,note_off,0,0,0,,0,,,72,127
48285,note_on,2,0,0,,8,,,68,127
48285,note_on,0,0,0,,5,,,77,127
48398,note_off,113,0,0,,5,,,77,127
48400,note_on,2,0,0,,0,,,84,127
48513,note_off,113,0,0,,0,,,84,127
48513,note_off,0,0,0,,8,,,68,127
48515,note_on,2,0,0,,5,,,65,127
48515,note_on,0,0,0,,5,,,77,127
48628,note_off,113,0,0,,5,,,77,127
48630,note_on,2,0,0,,0,,,84,127
48743,note_off,113,0,0,,0,,,84,127
48743,note_off,0,0,0,,5,,,65,127
48745,note_on,2,0,0,,11,,,70,127
48745,note_on,0,0,0,,1,,,85,127
48973,note_off,228,0,0,,1,,,85,127
48973,note_off,0,0,0,,11,,,70,127
48975,note_on,2,0,0,,4,,,64,127
48975,note_on,0,0,0,,0,,,84,127
49088,note_off,113,0,0,,0,,,84,127
49090,note_on,2,0,0,,11,,,82,127
49203,note_off,113,0,0,,11,,,82,127
49203,note_off,0,0,0,,4,,,64,127
49205,note_on,2,0,0,,0,,,60,127
49205,note_on,0,0,0,,8,,,80,127
49318,note_off,113,0,0,,8,,,80,127
49320,note_on,2,0,0,,7,,,79,127
49433,note_off,113,0,0,,7,,,79,127
49433,note_off,0,0,0,,0,,,60,127
49435,note_on,2,0,0,,5,,,65,127
49435,note_on,0,0,0,,8,,,80,127
49548,note_off,113,0,0,,8,,,80,127
49550,note_on,2,0,0,,0,,,84,127
49663,note_off,113,0,0,,0,,,84,127
49663,note_off,0,0,0,,5,,,65,127
49665,note_on,2,0,0,,7,,,67,127
49665,note_on,0,0,0,,5,,,77,127
49778,note_off,113,0,0,,5,,,77,127
49780,note_on,2,0,0,,0,,,84,127
49893,note_off,113,0,0,,0,,,84,127
49893,note_off,0,0,0,,7,,,67,127
49895,note_on,2,0,0,,8,,,68,127
49895,note_on,0,0,0,,5,,,77,127
50008,note_off,113,0,0,,5,,,77,127
50010,note_on,2,0,0,,0,,,84,127
50123,note_off,113,0,0,,0,,,84,127
50123,note_off,0,0,0,,8,,,68,127
50125,note_on,2,0,0,,11,,,70,127
50125,note_on,0,0,0,,1,,,85,127
50353,note_off,228,0,0,,1,,,85,127
50353,note_off,0,0,0,,11,,,70,127
50355,note_on,2,0,0,,4,,,64,127
50355,note_on,0,0,0,,0,,,84,127
50468,note_off,113,0,0,,0,,,84,127
50470,note_on,2,0,0,,11,,,82,127
50583,note_off,113,0,0,,11,,,82,127
50583,note_off,0,0,0,,4,,,64,127
50585,note_on,2,0,0,,0,,,60,127
50585,note_on,0,0,0,,8,,,80,127
50698,note_off,113,0,0,,8,,,80,127
50700,note_on,2,0,0,,7,,,79,127
50813,note_off,113,0,0,,7,,,79,127
50813,note_off,0,0,0,,0,,,60,127
50815,note_on,2,0,0,,5,,,53,127
50815,note_on,0,0,0,,5,,,65,127
50815,note_on,0,0,0,,8,,,80,127
50928,note_off,113,0,0,,8,,,80,127
50930,note_on,2,0,0,,0,,,84,127
51043,note_off,113,0,0,,0,,,84,127
51043,note_off,0,0,0,,5,,,53,127
51045,note_on,2,0,0,,7,,,55,127
51045,note_on,0,0,0,,5,,,77,127
51160,note_on,115,0,0,,0,,,84,127
51176,note_off,16,0,0,,5,,,77,127
51273,note_off,97,0,0,,7,,,55,127
51275,note_on,2,0,0,,8,,,56,127
51275,note_on,0,0,0,,3,,,75,127
51291,note_off,16,0,0,,0,,,84,127
51391,note_on,100,0,0,,0,,,84,127
51407,note_off,16,0,0,,3,,,75,127
51504,note_off,97,0,0,,8,,,56,127
51505,note_off,1,0,0,,5,,,65,127
51506,note_on,1,0,0,,5,,,65,127
51506,note_on,0,0,0,,11,,,58,127
51506,note_on,0,0,0,,1,,,73,127
51522,note_off,16,0,0,,0,,,84,127
51622,note_on,100,0,0,,0,,,84,127
51638,note_off,16,0,0,,1,,,73,127
51735,note_off,97,0,0,,11,,,58,127
51737,note_on,2,0,0,,0,,,60,127
51737,note_on,0,0,0,,1,,,73,127
51753,note_off,16,0,0,,0,,,84,127
51853,note_on,100,0,0,,11,,,82,127
51869,note_off,16,0,0,,1,,,73,127
51966,note_off,97,0,0,,0,,,60,127
51968,note_on,2,0,0,,1,,,61,127
51968,note_on,0,0,0,,1,,,73,127
51984,note_off,16,0,0,,11,,,82,127
52084,note_on,100,0,0,,8,,,80,127
52100,note_off,16,0,0,,1,,,73,127
52197,note_off,97,0,0,,1,,,61,127
52198,note_off,1,0,0,,5,,,65,127
52199,note_on,1,0,0,,3,,,51,127
52199,note_on,0,0,0,,3,,,63,127
52199,note_on,0,0,0,,1,,,73,127
52215,note_off,16,0,0,,8,,,80,127
52315,note_on,100,0,0,,7,,,79,127
52331,note_off,16,0,0,,1,,,73,127
52428,note_off,97,0,0,,3,,,51,127
52430,note_on,2,0,0,,5,,,53,127
52430,note_on,0,0,0,,3,,,75,127
52446,note_off,16,0,0,,7,,,79,127
52546,note_on,100,0,0,,11,,,82,127
52562,note_off,16,0,0,,3,,,75,127
52659,note_off,97,0,0,,5,,,53,127
52661,note_on,2,0,0,,7,,,55,127
52661,note_on,0,0,0,,1,,,73,127
52677,note_off,16,0,0,,11,,,82,127
52777,note_on,100,0,0,,11,,,82,127
52793,note_off,16,0,0,,1,,,73,127
52890,note_off,97,0,0,,7,,,55,127
52891,note_off,1,0,0,,3,,,63,127
52892,note_on,1,0,0,,8,,,56,127
52892,note_on,0,0,0,,3,,,63,127
52892,note_on,0,0,0,,0,,,72,127
52908,note_off,16,0,0,,11,,,82,127
53008,note_on,100,0,0,,11,,,82,127
53024,note_off,16,0,0,,0,,,72,127
53121,note_off,97,0,0,,8,,,56,127
53123,note_on,2,0,0,,11,,,58,127
53123,note_on,0,0,0,,0,,,72,127
53139,note_off,16,0,0,,11,,,82,127
53239,note_on,100,0,0,,8,,,80,127
53255,note_off,16,0,0,,0,,,72,127
53352,note_off,97,0,0,,11,,,58,127
53354,note_on,2,0,0,,0,,,60,127
53354,note_on,0,0,0,,0,,,72,127
53370,note_off,16,0,0,,8,,,80,127
53470,note_on,100,0,0,,7,,,79,127
53486,note_off,16,0,0,,0,,,72,127
53583,note_off,97,0,0,,0,,,60,127
53584,note_off,1,0,0,,3,,,63,127
53585,note_on,1,0,0,,1,,,49,127
53585,note_on,0,0,0,,1,,,61,127
53585,note_on,0,0,0,,0,,,72,127
53601,note_off,16,0,0,,7,,,79,127
53701,note_on,100,0,0,,5,,,77,127
53717,note_off,16,0,0,,0,,,72,127
53814,note_off,97,0,0,,1,,,49,127
53816,note_on,2,0,0,,3,,,51,127
53816,note_on,0,0,0,,1,,,73,127
53832,note_off,16,0,0,,5,,,77,127
53932,note_on,100,0,0,,8,,,80,127
53948,note_off,16,0,0,,1,,,73,127
54045,note_off,97,0,0,,3,,,51,127
54047,note_on,2,0,0,,5,,,53,127
54047,note_on,0,0,0,,0,,,72,127
54063,note_off,16,0,0,,8,,,80,127
54163,note_on,100,0,0,,8,,,80,127
54179,note_off,16,0,0,,0,,,72,127
54276,note_off,97,0,0,,5,,,53,127
54277,note_off,1,0,0,,1,,,61,127
54278,note_on,1,0,0,,7,,,55,127
54278,note_on,0,0,0,,1,,,61,127
54278,note_on,0,0,0,,11,,,70,127
54294,note_off,16,0,0,,8,,,80,127
54394,note_on,100,0,0,,8,,,80,127
54410,note_off,16,0,0,,11,,,70,127
54507,note_off,97,0,0,,7,,,55,127
54509,note_on,2,0,0,,8,,,56,127
54509,note_on,0,0,0,,11,,,70,127
54525,note_off,16,0,0,,8,,,80,127
54625,note_on,100,0,0,,7,,,79,127
54641,note_off,16,0,0,,11,,,70,127
54738,note_off,97,0,0,,8,,,56,127
54740,note_on,2,0,0,,11,,,58,127
54740,note_on,0,0,0,,11,,,70,127
54756,note_off,16,0,0,,7,,,79,127
54856,note_on,100,0,0,,5,,,77,127
54872,note_off,16,0,0,,11,,,70,127
54969,note_off,97,0,0,,11,,,58,127
54970,note_off,1,0,0,,1,,,61,127
54971,note_on,1,0,0,,0,,,48,127
54971,note_on,0,0,0,,0,,,60,127
54971,note_on,0,0,0,,4,,,76,127
54987,note_off,16,0,0,,5,,,77,127
55087,note_on,100,0,0,,7,,,79,127
55103,note_off,16,0,0,,4,,,76,127
55200,note_off,97,0,0,,0,,,48,127
55202,note_on,2,0,0,,2,,,50,127
55202,note_on,0,0,0,,4,,,76,127
55218,note_off,16,0,0,,7,,,79,127
55315,note_off,97,0,0,,4,,,76,127
55317,note_on,2,0,0,,0,,,72,127
55427,note_off,110,0,0,,0,,,60,127
55429,note_off,2,0,0,,0,,,72,127
55429,note_off,0,0,0,,2,,,50,127
55431,note_on,2,0,0,,4,,,52,127
55431,note_on,0,0,0,,11,,,70,127
55544,note_off,113,0,0,,11,,,70,127
55546,note_on,2,0,0,,7,,,67,127
55659,note_off,113,0,0,,7,,,67,127
55659,note_off,0,0,0,,4,,,52,127
55661,note_on,2,0,0,,5,,,53,127
55661,note_on,0,0,0,,11,,,70,127
55716,note_off,55,0,0,,11,,,70,127
55718,note_on,2,0,0,,8,,,68,127
55773,note_off,55,0,0,,8,,,68,127
55775,note_on,2,0,0,,11,,,70,127
55830,note_off,55,0,0,,11,,,70,127
55832,note_on,2,0,0,,8,,,68,127
55887,note_off,55,0,0,,8,,,68,127
55889,note_on,2,0,0,,5,,,41,127
55889,note_on,0,0,0,,11,,,70,127
55944,note_off,55,0,0,,11,,,70,127
55946,note_on,2,0,0,,8,,,68,127
56001,note_off,55,0,0,,8,,,68,127
56003,note_on,2,0,0,,7,,,67,127
56113,note_off,110,0,0,,5,,,53,127
56115,note_off,2,0,0,,7,,,67,127
56117,note_on,2,0,0,,5,,,65,127
56333,note_off,216,0,0,,5,,,65,127
56345,note_off,12,0,0,,5,,,41,127
56347,note_on,2,0,0,,5,,,65,127
56462,note_on,115,0,0,,11,,,82,127
56575,note_off,113,0,0,,11,,,82,127
56577,note_on,2,0,0,,8,,,80,127
56692,note_on,115,0,0,,0,,,72,127
56805,note_off,113,0,0,,0,,,72,127
56805,note_off,0,0,0,,8,,,80,127
56805,note_off,0,0,0,,5,,,65,127
56807,note_on,2,0,0,,11,,,70,127
56807,note_on,0,0,0,,1,,,73,127
56920,note_off,113,0,0,,1,,,73,127
56922,note_on,2,0,0,,7,,,79,127
57035,note_off,113,0,0,,7,,,79,127
57035,note_off,0,0,0,,11,,,70,127
57037,note_on,2,0,0,,8,,,68,127
57037,note_on,0,0,0,,0,,,72,127
57150,note_off,113,0,0,,0,,,72,127
57152,note_on,2,0,0,,5,,,77,127
57265,note_off,113,0,0,,5,,,77,127
57265,note_off,0,0,0,,8,,,68,127
57267,note_on,2,0,0,,7,,,67,127
57267,note_on,0,0,0,,11,,,70,127
57380,note_off,113,0,0,,11,,,70,127
57382,note_on,2,0,0,,4,,,76,127
57495,note_off,113,0,0,,4,,,76,127
57495,note_off,0,0,0,,7,,,67,127
57497,note_on,2,0,0,,5,,,65,127
57497,note_on,0,0,0,,5,,,77,127
57610,note_off,113,0,0,,5,,,77,127
57612,note_on,2,0,0,,1,,,73,127
57725,note_off,113,0,0,,1,,,73,127
57725,note_off,0,0,0,,5,,,65,127
57727,note_on,2,0,0,,4,,,64,127
57727,note_on,0,0,0,,7,,,79,127
57840,note_off,113,0,0,,7,,,79,127
57842,note_on,2,0,0,,0,,,72,127
57955,note_off,113,0,0,,0,,,72,127
57955,note_off,0,0,0,,4,,,64,127
57957,note_on,2,0,0,,7,,,67,127
57957,note_on,0,0,0,,4,,,76,127
58070,note_off,113,0,0,,4,,,76,127
58072,note_on,2,0,0,,11,,,70,127
58185,note_off,113,0,0,,11,,,70,127
58185,note_off,0,0,0,,7,,,67,127
58187,note_on,2,0,0,,5,,,65,127
58187,note_on,0,0,0,,5,,,77,127
58302,note_on,115,0,0,,8,,,68,127
58415,note_off,113,0,0,,8,,,68,127
58415,note_off,0,0,0,,5,,,65,127
58417,note_on,2,0,0,,0,,,60,127
58417,note_on,0,0,0,,7,,,67,127
58643,note_off,226,0,0,,5,,,77,127
58645,note_off,2,0,0,,7,,,67,127
58645,note_off,0,0,0,,0,,,60,127
58647,note_on,2,0,0,,0,,,48,127
58647,note_on,0,0,0,,5,,,77,127
58702,note_off,55,0,0,,5,,,77,127
58704,note_on,2,0,0,,4,,,76,127
58759,note_off,55,0,0,,4,,,76,127
58761,note_on,2,0,0,,2,,,74,127
58874,note_off,113,0,0,,2,,,74,127
58874,note_off,0,0,0,,0,,,48,127
58876,note_on,2,0,0,,0,,,36,127
58876,note_on,0,0,0,,4,,,76,127
59092,note_off,216,0,0,,4,,,76,127
59104,note_off,12,0,0,,0,,,36,127
59106,note_on,2,0,0,,5,,,65,127
59221,note_on,115,0,0,,11,,,82,127
59334,note_off,113,0,0,,11,,,82,127
59336,note_on,2,0,0,,8,,,80,127
59449,note_off,113,0,0,,8,,,80,127
59451,note_on,2,0,0,,0,,,72,127
59564,note_off,113,0,0,,0,,,72,127
59564,note_off,0,0,0,,5,,,65,127
59566,note_on,2,0,0,,11,,,70,127
59566,note_on,0,0,0,,1,,,73,127
59681,note_on,115,0,0,,7,,,79,127
59794,note_off,113,0,0,,7,,,79,127
59794,note_off,0,0,0,,1,,,73,127
59794,note_off,0,0,0,,11,,,70,127
59796,note_on,2,0,0,,8,,,68,127
59796,note_on,0,0,0,,0,,,72,127
59911,note_on,115,0,0,,5,,,77,127
60024,note_off,113,0,0,,5,,,77,127
60024,note_off,0,0,0,,0,,,72,127
60024,note_off,0,0,0,,8,,,68,127
60026,note_on,2,0,0,,7,,,67,127
60026,note_on,0,0,0,,11,,,70,127
60141,note_on,115,0,0,,4,,,76,127
60254,note_off,113,0,0,,4,,,76,127
60254,note_off,0,0,0,,7,,,67,127
60256,note_on,2,0,0,,5,,,65,127
60256,note_on,0,0,0,,5,,,77,127
60369,note_off,113,0,0,,5,,,77,127
60369,note_off,0,0,0,,11,,,70,127
60371,note_on,2,0,0,,1,,,73,127
60484,note_off,113,0,0,,5,,,65,127
60486,note_on,2,0,0,,4,,,64,127
60486,note_on,0,0,0,,7,,,79,127
60599,note_off,113,0,0,,7,,,79,127
60599,note_off,0,0,0,,1,,,73,127
60601,note_on,2,0,0,,0,,,72,127
60714,note_off,113,0,0,,4,,,64,127
60716,note_on,2,0,0,,7,,,67,127
60716,note_on,0,0,0,,4,,,76,127
60829,note_off,113,0,0,,4,,,76,127
60829,note_off,0,0,0,,0,,,72,127
60831,note_on,2,0,0,,11,,,70,127
60944,note_off,113,0,0,,7,,,67,127
60946,note_on,2,0,0,,5,,,65,127
60946,note_on,0,0,0,,5,,,77,127
61059,note_off,113,0,0,,5,,,77,127
61059,note_off,0,0,0,,11,,,70,127
61061,note_on,2,0,0,,8,,,68,127
61174,note_off,113,0,0,,8,,,68,127
61174,note_off,0,0,0,,5,,,65,127
61176,note_on,2,0,0,,0,,,60,127
61176,note_on,0,0,0,,7,,,67,127
61404,note_off,228,0,0,,0,,,60,127
61406,note_on,2,0,0,,0,,,48,127
61406,note_on,0,0,0,,4,,,76,127
61520,note_off,114,0,0,,4,,,76,127
61521,note_on,1,0,0,,2,,,74,127
61634,note_off,113,0,0,,2,,,74,127
61634,note_off,0,0,0,,0,,,48,127
61636,note_on,2,0,0,,0,,,36,127
61636,note_on,0,0,0,,4,,,76,127
61864,note_off,228,0,0,,0,,,36,127
61865,note_off,1,0,0,,7,,,67,127
61866,note_on,1,0,0,,0,,,60,127
61979,note_off,113,0,0,,4,,,76,127
61981,note_on,2,0,0,,7,,,79,127
62094,note_off,113,0,0,,7,,,79,127
62096,note_on,2,0,0,,4,,,76,127
62209,note_off,113,0,0,,4,,,76,127
62211,note_on,2,0,0,,0,,,72,127
62324,note_off,113,0,0,,0,,,72,127
62324,note_off,0,0,0,,0,,,60,127
62326,note_on,2,0,0,,11,,,58,127
62326,note_on,0,0,0,,1,,,73,127
62439,note_off,113,0,0,,1,,,73,127
62441,note_on,2,0,0,,5,,,77,127
62554,note_off,113,0,0,,5,,,77,127
62554,note_off,0,0,0,,11,,,58,127
62556,note_on,2,0,0,,0,,,60,127
62556,note_on,0,0,0,,5,,,77,127
62669,note_off,113,0,0,,0,,,60,127
62671,note_on,2,0,0,,7,,,67,127
62784,note_off,113,0,0,,7,,,67,127
62784,note_off,0,0,0,,5,,,77,127
62786,note_on,2,0,0,,4,,,64,127
62786,note_on,0,0,0,,7,,,79,127
62899,note_off,113,0,0,,4,,,64,127
62901,note_on,2,0,0,,0,,,60,127
63014,note_off,113,0,0,,0,,,60,127
63014,note_off,0,0,0,,7,,,79,127
63016,note_on,2,0,0,,1,,,61,127
63016,note_on,0,0,0,,5,,,77,127
63129,note_off,113,0,0,,1,,,61,127
63131,note_on,2,0,0,,5,,,65,127
63232,note_off,101,0,0,,5,,,77,127
63244,note_off,12,0,0,,5,,,65,127
63246,note_on,2,0,0,,0,,,60,127
63361,note_on,115,0,0,,7,,,79,127
63474,note_off,113,0,0,,7,,,79,127
63476,note_on,2,0,0,,4,,,76,127
63589,note_off,113,0,0,,4,,,76,127
63591,note_on,2,0,0,,0,,,72,127
63704,note_off,113,0,0,,0,,,72,127
63704,note_off,0,0,0,,0,,,60,127
63706,note_on,2,0,0,,11,,,58,127
63706,note_on,0,0,0,,1,,,73,127
63819,note_off,113,0,0,,1,,,73,127
63821,note_on,2,0,0,,5,,,77,127
63934,note_off,113,0,0,,5,,,77,127
63934,note_off,0,0,0,,11,,,58,127
63936,note_on,2,0,0,,0,,,60,127
63936,note_on,0,0,0,,5,,,77,127
64049,note_off,113,0,0,,0,,,60,127
64051,note_on,2,0,0,,7,,,67,127
64164,note_off,113,0,0,,7,,,67,127
64164,note_off,0,0,0,,5,,,77,127
64166,note_on,2,0,0,,4,,,64,127
64166,note_on,0,0,0,,7,,,79,127
64279,note_off,113,0,0,,4,,,64,127
64281,note_on,2,0,0,,0,,,60,127
64394,note_off,113,0,0,,0,,,60,127
64394,note_off,0,0,0,,7,,,79,127
64396,note_on,2,0,0,,1,,,61,127
64396,note_on,0,0,0,,5,,,77,127
64509,note_off,113,0,0,,1,,,61,127
64511,note_on,2,0,0,,5,,,65,127
64612,note_off,101,0,0,,5,,,77,127
64624,note_off,12,0,0,,5,,,65,127
64626,note_on,2,0,0,,0,,,60,127
64741,note_on,115,0,0,,7,,,79,127
64854,note_off,113,0,0,,7,,,79,127
64856,note_on,2,0,0,,0,,,72,127
64969,note_off,113,0,0,,0,,,72,127
64971,note_on,2,0,0,,7,,,79,127
65084,note_off,113,0,0,,7,,,79,127
65084,note_off,0,0,0,,0,,,60,127
65086,note_on,2,0,0,,4,,,64,127
65086,note_on,0,0,0,,0,,,72,127
65199,note_off,113,0,0,,0,,,72,127
65201,note_on,2,0,0,,7,,,79,127
65314,note_off,113,0,0,,7,,,79,127
65314,note_off,0,0,0,,4,,,64,127
65316,note_on,2,0,0,,5,,,65,127
65316,note_on,0,0,0,,8,,,80,127
65429,note_off,113,0,0,,8,,,80,127
65431,note_on,2,0,0,,0,,,84,127
65544,note_off,113,0,0,,0,,,84,127
65544,note_off,0,0,0,,5,,,65,127
65546,note_on,2,0,0,,5,,,53,127
65546,note_on,0,0,0,,5,,,77,127
65659,note_off,113,0,0,,5,,,77,127
65661,note_on,2,0,0,,0,,,84,127
65774,note_off,113,0,0,,0,,,84,127
65774,note_off,0,0,0,,5,,,53,127
65776,note_on,2,0,0,,8,,,56,127
65776,note_on,0,0,0,,5,,,77,127
65889,note_off,113,0,0,,5,,,77,127
65891,note_on,2,0,0,,0,,,84,127
66004,note_off,113,0,0,,0,,,84,127
66004,note_off,0,0,0,,8,,,56,127
66006,note_on,2,0,0,,11,,,58,127
66006,note_on,0,0,0,,1,,,85,127
66119,note_off,113,0,0,,1,,,85,127
66121,note_on,2,0,0,,11,,,82,127
66234,note_off,113,0,0,,11,,,82,127
66234,note_off,0,0,0,,11,,,58,127
66236,note_on,2,0,0,,0,,,60,127
66236,note_on,0,0,0,,8,,,80,127
66349,note_off,113,0,0,,8,,,80,127
66351,note_on,2,0,0,,7,,,79,127
66464,note_off,113,0,0,,7,,,79,127
66464,note_off,0,0,0,,0,,,60,127
66466,note_on,2,0,0,,0,,,48,127
66466,note_on,0,0,0,,5,,,77,127
66579,note_off,113,0,0,,5,,,77,127
66581,note_on,2,0,0,,4,,,76,127
66694,note_off,113,0,0,,4,,,76,127
66694,note_off,0,0,0,,0,,,48,127
66696,note_on,2,0,0,,5,,,53,127
66696,note_on,0,0,0,,5,,,77,127
67152,note_off,456,0,0,,5,,,77,127
67385,note_off,233,0,0,,5,,,53,127
67387,note_on,2,0,0,,0,,,60,127
67502,note_on,115,0,0,,7,,,79,127
67615,note_off,113,0,0,,7,,,79,127
67617,note_on,2,0,0,,4,,,76,127
67730,note_off,113,0,0,,4,,,76,127
67732,note_on,2,0,0,,0,,,72,127
67845,note_off,113,0,0,,0,,,72,127
67845,note_off,0,0,0,,0,,,60,127
67847,note_on,2,0,0,,11,,,58,127
67847,note_on,0,0,0,,1,,,73,127
67960,note_off,113,0,0,,1,,,73,127
67962,note_on,2,0,0,,5,,,77,127
68075,note_off,113,0,0,,11,,,58,127
68077,note_on,2,0,0,,0,,,60,127
68190,note_off,113,0,0,,0,,,60,127
68192,note_on,2,0,0,,7,,,67,127
68305,note_off,113,0,0,,7,,,67,127
68307,note_off,2,0,0,,5,,,77,127
68307,note_on,0,0,0,,4,,,64,127
68307,note_on,0,0,0,,7,,,79,127
68420,note_off,113,0,0,,4,,,64,127
68422,note_on,2,0,0,,0,,,60,127
68535,note_off,113,0,0,,0,,,60,127
68535,note_off,0,0,0,,7,,,79,127
68537,note_on,2,0,0,,1,,,61,127
68537,note_on,0,0,0,,5,,,77,127
68650,note_off,113,0,0,,1,,,61,127
68652,note_on,2,0,0,,5,,,65,127
68753,note_off,101,0,0,,5,,,77,127
68765,note_off,12,0,0,,5,,,65,127
68767,note_on,2,0,0,,0,,,60,127
68882,note_on,115,0,0,,7,,,79,127
68995,note_off,113,0,0,,7,,,79,127
68997,note_on,2,0,0,,4,,,76,127
69110,note_off,113,0,0,,4,,,76,127
69112,note_on,2,0,0,,0,,,72,127
69225,note_off,113,0,0,,0,,,72,127
69225,note_off,0,0,0,,0,,,60,127
69227,note_on,2,0,0,,11,,,58,127
69227,note_on,0,0,0,,1,,,73,127
69340,note_off,113,0,0,,1,,,73,127
69342,note_on,2,0,0,,5,,,77,127
69455,note_off,113,0,0,,5,,,77,127
69455,note_off,0,0,0,,11,,,58,127
69457,note_on,2,0,0,,0,,,60,127
69457,note_on,0,0,0,,5,,,77,127
69570,note_off,113,0,0,,0,,,60,127
69572,note_on,2,0,0,,7,,,67,127
69685,note_off,113,0,0,,7,,,67,127
69687,note_on,2,0,0,,4,,,64,127
69800,note_off,113,0,0,,4,,,64,127
69802,note_on,2,0,0,,0,,,60,127
69912,note_off,110,0,0,,5,,,77,127
69914,note_off,2,0,0,,0,,,60,127
69916,note_on,2,0,0,,1,,,61,127
69916,note_on,0,0,0,,7,,,79,127
70029,note_off,113,0,0,,1,,,61,127
70031,note_on,2,0,0,,5,,,65,127
70132,note_off,101,0,0,,7,,,79,127
70144,note_off,12,0,0,,5,,,65,127
70146,note_on,2,0,0,,0,,,60,127
70261,note_on,115,0,0,,7,,,79,127
70374,note_off,113,0,0,,7,,,79,127
70376,note_on,2,0,0,,0,,,72,127
70489,note_off,113,0,0,,0,,,72,127
70491,note_on,2,0,0,,7,,,79,127
70604,note_off,113,0,0,,7,,,79,127
70604,note_off,0,0,0,,0,,,60,127
70606,note_on,2,0,0,,4,,,64,127
70606,note_on,0,0,0,,0,,,72,127
70719,note_off,113,0,0,,0,,,72,127
70721,note_on,2,0,0,,7,,,79,127
70834,note_off,113,0,0,,7,,,79,127
70834,note_off,0,0,0,,4,,,64,127
70836,note_on,2,0,0,,5,,,65,127
70836,note_on,0,0,0,,8,,,80,127
70949,note_off,113,0,0,,8,,,80,127
70951,note_on,2,0,0,,0,,,84,127
71064,note_off,113,0,0,,0,,,84,127
71064,note_off,0,0,0,,5,,,65,127
71066,note_on,2,0,0,,5,,,53,127
71066,note_on,0,0,0,,5,,,77,127
71179,note_off,113,0,0,,5,,,77,127
71181,note_on,2,0,0,,0,,,84,127
71294,note_off,113,0,0,,0,,,84,127
71294,note_off,0,0,0,,5,,,53,127
71296,note_on,2,0,0,,8,,,56,127
71296,note_on,0,0,0,,5,,,77,127
71409,note_off,113,0,0,,5,,,77,127
71411,note_on,2,0,0,,0,,,84,127
71524,note_off,113,0,0,,0,,,84,127
71524,note_off,0,0,0,,8,,,56,127
71526,note_on,2,0,0,,11,,,58,127
71526,note_on,0,0,0,,1,,,85,127
71639,note_off,113,0,0,,1,,,85,127
71641,note_on,2,0,0,,11,,,82,127
71754,note_off,113,0,0,,11,,,82,127
71754,note_off,0,0,0,,11,,,58,127
71756,note_on,2,0,0,,0,,,60,127
71756,note_on,0,0,0,,8,,,80,127
71869,note_off,113,0,0,,8,,,80,127
71871,note_on,2,0,0,,7,,,79,127
71984,note_off,113,0,0,,7,,,79,127
71984,note_off,0,0,0,,0,,,60,127
71986,note_on,2,0,0,,0,,,48,127
71986,note_on,0,0,0,,5,,,77,127
72099,note_off,113,0,0,,5,,,77,127
72101,note_on,2,0,0,,4,,,76,127
72214,note_off,113,0,0,,4,,,76,127
72214,note_off,0,0,0,,0,,,48,127
72216,note_on,2,0,0,,5,,,53,127
72216,note_on,0,0,0,,5,,,77,127
72331,note_on,115,0,0,,5,,,65,127
72444,note_off,113,0,0,,5,,,65,127
72444,note_off,0,0,0,,5,,,77,127
72446,note_on,2,0,0,,8,,,80,127
72561,note_on,115,0,0,,8,,,68,127
72674,note_off,113,0,0,,8,,,68,127
72674,note_off,0,0,0,,8,,,80,127
72674,note_off,0,0,0,,5,,,53,127
72676,note_on,2,0,0,,8,,,56,127
72676,note_on,0,0,0,,0,,,84,127
72791,note_on,115,0,0,,0,,,72,127
72904,note_off,113,0,0,,0,,,72,127
72904,note_off,0,0,0,,8,,,56,127
72906,note_on,2,0,0,,11,,,58,127
72906,note_on,0,0,0,,1,,,73,127
73019,note_off,113,0,0,,0,,,84,127
73021,note_on,2,0,0,,11,,,82,127
73134,note_off,113,0,0,,11,,,82,127
73134,note_off,0,0,0,,1,,,73,127
73134,note_off,0,0,0,,11,,,58,127
73136,note_on,2,0,0,,0,,,60,127
73136,note_on,0,0,0,,8,,,80,127
73136,note_on,0,0,0,,0,,,72,127
73249,note_off,113,0,0,,8,,,80,127
73251,note_on,2,0,0,,7,,,79,127
73364,note_off,113,0,0,,7,,,79,127
73364,note_off,0,0,0,,0,,,72,127
73364,note_off,0,0,0,,0,,,60,127
73366,note_on,2,0,0,,0,,,48,127
73366,note_on,0,0,0,,5,,,77,127
73479,note_off,113,0,0,,5,,,77,127
73481,note_on,2,0,0,,4,,,76,127
73594,note_off,113,0,0,,4,,,76,127
73594,note_off,0,0,0,,0,,,48,127
73596,note_on,2,0,0,,5,,,53,127
73596,note_on,0,0,0,,5,,,77,127
73711,note_on,115,0,0,,5,,,65,127
73824,note_off,113,0,0,,5,,,65,127
73824,note_off,0,0,0,,5,,,77,127
73826,note_on,2,0,0,,8,,,80,127
73941,note_on,115,0,0,,8,,,68,127
74054,note_off,113,0,0,,8,,,68,127
74054,note_off,0,0,0,,8,,,80,127
74054,note_off,0,0,0,,5,,,53,127
74056,note_on,2,0,0,,8,,,56,127
74056,note_on,0,0,0,,0,,,84,127
74171,note_on,115,0,0,,0,,,72,127
74284,note_off,113,0,0,,0,,,72,127
74284,note_off,0,0,0,,8,,,56,127
74286,note_on,2,0,0,,11,,,58,127
74286,note_on,0,0,0,,1,,,73,127
74399,note_off,113,0,0,,1,,,73,127
74399,note_off,0,0,0,,0,,,84,127
74401,note_on,2,0,0,,11,,,82,127
74514,note_off,113,0,0,,11,,,82,127
74514,note_off,0,0,0,,11,,,58,127
74516,note_on,2,0,0,,0,,,60,127
74516,note_on,0,0,0,,8,,,80,127
74516,note_on,0,0,0,,0,,,72,127
74629,note_off,113,0,0,,0,,,72,127
74629,note_off,0,0,0,,8,,,80,127
74631,note_on,2,0,0,,7,,,79,127
74744,note_off,113,0,0,,7,,,79,127
74744,note_off,0,0,0,,0,,,60,127
74746,note_on,2,0,0,,0,,,48,127
74746,note_on,0,0,0,,5,,,77,127
74859,note_off,113,0,0,,5,,,77,127
74861,note_on,2,0,0,,4,,,76,127
74974,note_off,113,0,0,,4,,,76,127
74974,note_off,0,0,0,,0,,,48,127
74976,note_on,2,0,0,,5,,,41,127
74976,note_on,0,0,0,,5,,,77,127
75091,note_on,115,0,0,,5,,,65,127
75204,note_off,113,0,0,,5,,,65,127
75204,note_off,0,0,0,,5,,,77,127
75204,note_off,0,0,0,,5,,,41,127
75206,note_on,2,0,0,,7,,,43,127
75206,note_on,0,0,0,,8,,,68,127
75319,note_off,113,0,0,,8,,,68,127
75321,note_on,2,0,0,,5,,,65,127
75434,note_off,113,0,0,,5,,,65,127
75434,note_off,0,0,0,,7,,,43,127
75436,note_on,2,0,0,,8,,,44,127
75436,note_on,0,0,0,,0,,,72,127
75549,note_off,113,0,0,,0,,,72,127
75551,note_on,2,0,0,,5,,,65,127
75664,note_off,113,0,0,,5,,,65,127
75664,note_off,0,0,0,,8,,,44,127
75670,note_on,6,0,0,,11,,,70,127
75670,note_on,0,0,0,,11,,,46,127
75786,note_off,116,0,0,,11,,,70,127
75792,note_on,6,0,0,,1,,,73,127
75906,note_off,114,0,0,,11,,,46,127
75908,note_off,2,0,0,,1,,,73,127
75913,note_on,5,0,0,,0,,,72,127
75913,note_on,0,0,0,,0,,,48,127
76029,note_off,116,0,0,,0,,,72,127
76035,note_on,6,0,0,,11,,,70,127
76151,note_off,116,0,0,,11,,,70,127
76157,note_on,6,0,0,,8,,,68,127
76157,note_on,0,0,0,,0,,,36,127
76273,note_off,116,0,0,,8,,,68,127
76286,note_on,13,0,0,,7,,,67,127
76386,note_off,100,0,0,,0,,,48,127
76393,note_off,7,0,0,,0,,,36,127
76415,note_off,22,0,0,,7,,,67,127
76433,note_on,18,0,0,,5,,,41,127
76433,note_on,0,0,0,,5,,,65,127
78561,note_off,2128,0,0,,5,,,65,127
78561,note_off,0,0,0,,5,,,41,127
82944,end_of_track,4383,1,0,,,,,,
