tick,type,time,meta,track,program,channel,pitch,tempo,note,velocity
0,copyright,0,1,0,,,,,,
0,program_change,0,0,0,6,0,,,,
0,pitchwheel,0,0,0,,0,0,,,
0,program_change,0,0,0,6,1,,,,
0,pitchwheel,0,0,0,,1,-590,,,
0,program_change,0,0,0,6,2,,,,
0,pitchwheel,0,0,0,,2,-272,,,
0,program_change,0,0,0,6,3,,,,
0,pitchwheel,0,0,0,,3,-353,,,
0,program_change,0,0,0,6,4,,,,
0,pitchwheel,0,0,0,,4,-560,,,
0,program_change,0,0,0,6,5,,,,
0,pitchwheel,0,0,0,,5,-80,,,
0,program_change,0,0,0,6,6,,,,
0,pitchwheel,0,0,0,,6,-625,,,
0,program_change,0,0,0,6,7,,,,
0,pitchwheel,0,0,0,,7,-130,,,
0,program_change,0,0,0,6,8,,,,
0,pitchwheel,0,0,0,,8,-512,,,
0,program_change,0,0,0,6,10,,,,
0,pitchwheel,0,0,0,,10,-464,,,
0,program_change,0,0,0,6,11,,,,
0,pitchwheel,0,0,0,,11,-208,,,
0,program_change,0,0,0,6,12,,,,
0,pitchwheel,0,0,0,,12,-553,,,
0,set_tempo,0,1,0,,,,500000,,
115,note_on,115,0,0,,5,,,77,127
341,note_off,226,0,0,,5,,,77,127
346,note_on,5,0,0,,7,,,79,127
456,note_off,110,0,0,,7,,,79,127
461,note_on,5,0,0,,5,,,77,127
571,note_off,110,0,0,,5,,,77,127
576,note_on,5,0,0,,5,,,77,127
802,note_off,226,0,0,,5,,,77,127
807,note_on,5,0,0,,5,,,77,127
1033,note_off,226,0,0,,5,,,77,127
1038,note_on,5,0,0,,10,,,81,127
1264,note_off,226,0,0,,10,,,81,127
1269,note_on,5,0,0,,5,,,77,127
1495,note_off,226,0,0,,5,,,77,127
1500,note_on,5,0,0,,4,,,76,127
1726,note_off,226,0,0,,4,,,76,127
1731,note_on,5,0,0,,5,,,77,127
1957,note_off,226,0,0,,5,,,77,127
1962,note_on,5,0,0,,0,,,60,127
1962,note_on,0,0,0,,2,,,74,127
1996,note_off,34,0,0,,2,,,74,127
2001,note_on,5,0,0,,0,,,72,127
2035,note_off,34,0,0,,0,,,72,127
2040,note_on,5,0,0,,2,,,74,127
2074,note_off,34,0,0,,2,,,74,127
2079,note_on,5,0,0,,0,,,72,127
2189,note_off,110,0,0,,0,,,60,127
2194,note_on,5,0,0,,2,,,62,127
2304,note_off,110,0,0,,2,,,62,127
2309,note_on,5,0,0,,0,,,60,127
2419,note_off,110,0,0,,0,,,60,127
2424,note_on,5,0,0,,0,,,60,127
2539,note_off,115,0,0,,0,,,72,127
2649,note_off,110,0,0,,0,,,60,127
2654,note_on,5,0,0,,0,,,60,127
2880,note_off,226,0,0,,0,,,60,127
2885,note_on,5,0,0,,5,,,65,127
3111,note_off,226,0,0,,5,,,65,127
3116,note_on,5,0,0,,0,,,60,127
3342,note_off,226,0,0,,0,,,60,127
3347,note_on,5,0,0,,10,,,57,127
3573,note_off,226,0,0,,10,,,57,127
3578,note_on,5,0,0,,0,,,60,127
3804,note_off,226,0,0,,0,,,60,127
3809,note_on,5,0,0,,7,,,55,127
3847,note_on,38,0,0,,5,,,53,127
3848,note_off,1,0,0,,7,,,55,127
3885,note_on,37,0,0,,7,,,55,127
3886,note_off,1,0,0,,5,,,53,127
3923,note_on,37,0,0,,5,,,53,127
3924,note_off,1,0,0,,7,,,55,127
4038,note_on,114,0,0,,0,,,72,127
4148,note_off,110,0,0,,0,,,72,127
4153,note_on,5,0,0,,10,,,81,127
4263,note_off,110,0,0,,10,,,81,127
4268,note_on,5,0,0,,2,,,74,127
4378,note_off,110,0,0,,2,,,74,127
4383,note_on,5,0,0,,11,,,82,127
4493,note_off,110,0,0,,11,,,82,127
4493,note_off,0,0,0,,5,,,53,127
4498,note_on,5,0,0,,0,,,48,127
4498,note_on,0,0,0,,4,,,76,127
4608,note_off,110,0,0,,4,,,76,127
4613,note_on,5,0,0,,7,,,79,127
4723,note_off,110,0,0,,7,,,79,127
4723,note_off,0,0,0,,0,,,48,127
4728,note_on,5,0,0,,5,,,53,127
4728,note_on,0,0,0,,10,,,81,127
4728,note_on,0,0,0,,5,,,77,127
4954,note_off,226,0,0,,5,,,77,127
4954,note_off,0,0,0,,10,,,81,127
4959,note_on,5,0,0,,0,,,72,127
5069,note_off,110,0,0,,0,,,72,127
5074,note_on,5,0,0,,10,,,81,127
5184,note_off,110,0,0,,10,,,81,127
5189,note_on,5,0,0,,2,,,74,127
5299,note_off,110,0,0,,2,,,74,127
5304,note_on,5,0,0,,11,,,82,127
5414,note_off,110,0,0,,11,,,82,127
5414,note_off,0,0,0,,5,,,53,127
5419,note_on,5,0,0,,0,,,48,127
5419,note_on,0,0,0,,4,,,76,127
5529,note_off,110,0,0,,4,,,76,127
5534,note_on,5,0,0,,7,,,79,127
5644,note_off,110,0,0,,7,,,79,127
5644,note_off,0,0,0,,0,,,48,127
5649,note_on,5,0,0,,5,,,41,127
5649,note_on,0,0,0,,5,,,77,127
5649,note_on,0,0,0,,10,,,81,127
5875,note_off,226,0,0,,10,,,81,127
5875,note_off,0,0,0,,5,,,77,127
5880,note_on,5,0,0,,0,,,72,127
5990,note_off,110,0,0,,0,,,72,127
5995,note_on,5,0,0,,10,,,81,127
6105,note_off,110,0,0,,10,,,81,127
6110,note_on,5,0,0,,2,,,74,127
6220,note_off,110,0,0,,2,,,74,127
6225,note_on,5,0,0,,11,,,82,127
6335,note_off,110,0,0,,11,,,82,127
6335,note_off,0,0,0,,5,,,41,127
6340,note_on,5,0,0,,0,,,48,127
6340,note_on,0,0,0,,4,,,76,127
6450,note_off,110,0,0,,4,,,76,127
6455,note_on,5,0,0,,7,,,79,127
6565,note_off,110,0,0,,7,,,79,127
6565,note_off,0,0,0,,0,,,48,127
6570,note_on,5,0,0,,5,,,53,127
6570,note_on,0,0,0,,10,,,81,127
6570,note_on,0,0,0,,5,,,77,127
6796,note_off,226,0,0,,5,,,53,127
6801,note_on,5,0,0,,0,,,48,127
6911,note_off,110,0,0,,0,,,48,127
6916,note_on,5,0,0,,10,,,57,127
7026,note_off,110,0,0,,10,,,57,127
7031,note_off,5,0,0,,5,,,77,127
7031,note_off,0,0,0,,10,,,81,127
7031,note_on,0,0,0,,2,,,50,127
7141,note_off,110,0,0,,2,,,50,127
7146,note_on,5,0,0,,11,,,58,127
7256,note_off,110,0,0,,11,,,58,127
7261,note_on,5,0,0,,4,,,52,127
7261,note_on,0,0,0,,0,,,72,127
7261,note_on,0,0,0,,7,,,79,127
7371,note_off,110,0,0,,4,,,52,127
7376,note_on,5,0,0,,0,,,60,127
7486,note_off,110,0,0,,0,,,60,127
7486,note_off,0,0,0,,7,,,79,127
7486,note_off,0,0,0,,0,,,72,127
7491,note_on,5,0,0,,10,,,57,127
7491,note_on,0,0,0,,5,,,53,127
7491,note_on,0,0,0,,5,,,77,127
7491,note_on,0,0,0,,10,,,81,127
7717,note_off,226,0,0,,5,,,53,127
7717,note_off,0,0,0,,10,,,57,127
7722,note_on,5,0,0,,0,,,48,127
7832,note_off,110,0,0,,0,,,48,127
7837,note_on,5,0,0,,10,,,57,127
7947,note_off,110,0,0,,10,,,57,127
7952,note_off,5,0,0,,10,,,81,127
7952,note_off,0,0,0,,5,,,77,127
7952,note_on,0,0,0,,2,,,50,127
8062,note_off,110,0,0,,2,,,50,127
8067,note_on,5,0,0,,11,,,58,127
8177,note_off,110,0,0,,11,,,58,127
8182,note_on,5,0,0,,4,,,52,127
8182,note_on,0,0,0,,0,,,72,127
8182,note_on,0,0,0,,7,,,79,127
8292,note_off,110,0,0,,4,,,52,127
8297,note_on,5,0,0,,0,,,60,127
8407,note_off,110,0,0,,0,,,60,127
8407,note_off,0,0,0,,7,,,79,127
8407,note_off,0,0,0,,0,,,72,127
8412,note_on,5,0,0,,10,,,57,127
8412,note_on,0,0,0,,5,,,53,127
8412,note_on,0,0,0,,5,,,77,127
8412,note_on,0,0,0,,10,,,81,127
8638,note_off,226,0,0,,5,,,53,127
8638,note_off,0,0,0,,10,,,57,127
8643,note_on,5,0,0,,0,,,48,127
8753,note_off,110,0,0,,0,,,48,127
8758,note_on,5,0,0,,10,,,57,127
8868,note_off,110,0,0,,10,,,57,127
8873,note_off,5,0,0,,10,,,81,127
8873,note_off,0,0,0,,5,,,77,127
8873,note_on,0,0,0,,2,,,50,127
8983,note_off,110,0,0,,2,,,50,127
8988,note_on,5,0,0,,11,,,58,127
9098,note_off,110,0,0,,11,,,58,127
9103,note_on,5,0,0,,4,,,52,127
9103,note_on,0,0,0,,0,,,72,127
9103,note_on,0,0,0,,7,,,79,127
9213,note_off,110,0,0,,4,,,52,127
9218,note_on,5,0,0,,0,,,60,127
9328,note_off,110,0,0,,0,,,60,127
9328,note_off,0,0,0,,7,,,79,127
9328,note_off,0,0,0,,0,,,72,127
9333,note_on,5,0,0,,5,,,53,127
9333,note_on,0,0,0,,10,,,69,127
9333,note_on,0,0,0,,5,,,77,127
9443,note_off,110,0,0,,5,,,53,127
9448,note_on,5,0,0,,5,,,65,127
9558,note_off,110,0,0,,5,,,65,127
9563,note_on,5,0,0,,4,,,64,127
9673,note_off,110,0,0,,4,,,64,127
9678,note_on,5,0,0,,5,,,65,127
9788,note_off,110,0,0,,5,,,65,127
9793,note_off,5,0,0,,5,,,77,127
9793,note_off,0,0,0,,10,,,69,127
9793,note_on,0,0,0,,0,,,72,127
9903,note_off,110,0,0,,0,,,72,127
9908,note_on,5,0,0,,10,,,69,127
10018,note_off,110,0,0,,10,,,69,127
10023,note_on,5,0,0,,5,,,65,127
10133,note_off,110,0,0,,5,,,65,127
10138,note_on,5,0,0,,10,,,69,127
10248,note_off,110,0,0,,10,,,69,127
10253,note_on,5,0,0,,0,,,36,127
10368,note_on,115,0,0,,0,,,84,127
10478,note_off,110,0,0,,0,,,84,127
10483,note_on,5,0,0,,11,,,82,127
10593,note_off,110,0,0,,11,,,82,127
10598,note_on,5,0,0,,7,,,79,127
10708,note_off,110,0,0,,7,,,79,127
10713,note_on,5,0,0,,4,,,76,127
10823,note_off,110,0,0,,4,,,76,127
10828,note_on,5,0,0,,0,,,72,127
10938,note_off,110,0,0,,0,,,72,127
10943,note_on,5,0,0,,11,,,70,127
11053,note_off,110,0,0,,11,,,70,127
11058,note_on,5,0,0,,7,,,67,127
11168,note_off,110,0,0,,7,,,67,127
11173,note_on,5,0,0,,10,,,81,127
11173,note_on,0,0,0,,5,,,77,127
11283,note_off,110,0,0,,0,,,36,127
11288,note_on,5,0,0,,5,,,65,127
11398,note_off,110,0,0,,5,,,65,127
11403,note_on,5,0,0,,4,,,64,127
11513,note_off,110,0,0,,4,,,64,127
11518,note_on,5,0,0,,5,,,65,127
11628,note_off,110,0,0,,5,,,65,127
11633,note_off,5,0,0,,5,,,77,127
11633,note_off,0,0,0,,10,,,81,127
11633,note_on,0,0,0,,0,,,72,127
11743,note_off,110,0,0,,0,,,72,127
11748,note_on,5,0,0,,10,,,69,127
11858,note_off,110,0,0,,10,,,69,127
11863,note_on,5,0,0,,5,,,65,127
11973,note_off,110,0,0,,5,,,65,127
11978,note_on,5,0,0,,10,,,69,127
12088,note_off,110,0,0,,10,,,69,127
12093,note_on,5,0,0,,0,,,36,127
12208,note_on,115,0,0,,0,,,84,127
12318,note_off,110,0,0,,0,,,84,127
12323,note_on,5,0,0,,11,,,82,127
12433,note_off,110,0,0,,11,,,82,127
12438,note_on,5,0,0,,7,,,79,127
12548,note_off,110,0,0,,7,,,79,127
12553,note_on,5,0,0,,4,,,76,127
12663,note_off,110,0,0,,4,,,76,127
12668,note_on,5,0,0,,0,,,72,127
12778,note_off,110,0,0,,0,,,72,127
12783,note_on,5,0,0,,11,,,70,127
12893,note_off,110,0,0,,11,,,70,127
12898,note_on,5,0,0,,7,,,67,127
13008,note_off,110,0,0,,7,,,67,127
13012,note_off,4,0,0,,0,,,36,127
13013,note_on,1,0,0,,10,,,81,127
13013,note_on,0,0,0,,5,,,77,127
13243,note_on,230,0,0,,5,,,53,127
13353,note_off,110,0,0,,5,,,53,127
13358,note_on,5,0,0,,5,,,53,127
13468,note_off,110,0,0,,5,,,53,127
13473,note_off,5,0,0,,5,,,77,127
13473,note_off,0,0,0,,10,,,81,127
13473,note_on,0,0,0,,10,,,57,127
13583,note_off,110,0,0,,10,,,57,127
13588,note_on,5,0,0,,10,,,57,127
13698,note_off,110,0,0,,10,,,57,127
13703,note_on,5,0,0,,0,,,60,127
13703,note_on,0,0,0,,7,,,79,127
13703,note_on,0,0,0,,0,,,72,127
13813,note_off,110,0,0,,0,,,60,127
13818,note_on,5,0,0,,0,,,60,127
13928,note_off,110,0,0,,0,,,60,127
13928,note_off,0,0,0,,0,,,72,127
13928,note_off,0,0,0,,7,,,79,127
13933,note_on,5,0,0,,5,,,65,127
13933,note_on,0,0,0,,5,,,77,127
13933,note_on,0,0,0,,10,,,81,127
14043,note_off,110,0,0,,5,,,65,127
14048,note_on,5,0,0,,5,,,53,127
14158,note_off,110,0,0,,5,,,53,127
14163,note_on,5,0,0,,5,,,53,127
14273,note_off,110,0,0,,5,,,53,127
14278,note_on,5,0,0,,5,,,53,127
14388,note_off,110,0,0,,5,,,53,127
14393,note_off,5,0,0,,10,,,81,127
14393,note_off,0,0,0,,5,,,77,127
14393,note_on,0,0,0,,10,,,57,127
14503,note_off,110,0,0,,10,,,57,127
14508,note_on,5,0,0,,10,,,57,127
14618,note_off,110,0,0,,10,,,57,127
14623,note_on,5,0,0,,0,,,60,127
14623,note_on,0,0,0,,0,,,72,127
14623,note_on,0,0,0,,7,,,79,127
14733,note_off,110,0,0,,0,,,60,127
14738,note_on,5,0,0,,0,,,60,127
14848,note_off,110,0,0,,0,,,60,127
14848,note_off,0,0,0,,7,,,79,127
14848,note_off,0,0,0,,0,,,72,127
14853,note_on,5,0,0,,5,,,65,127
14853,note_on,0,0,0,,10,,,81,127
14853,note_on,0,0,0,,5,,,77,127
14963,note_off,110,0,0,,5,,,65,127
14968,note_on,5,0,0,,5,,,41,127
15078,note_off,110,0,0,,5,,,41,127
15083,note_on,5,0,0,,5,,,41,127
15193,note_off,110,0,0,,5,,,41,127
15198,note_on,5,0,0,,5,,,41,127
15308,note_off,110,0,0,,5,,,41,127
15313,note_off,5,0,0,,5,,,77,127
15313,note_off,0,0,0,,10,,,81,127
15313,note_on,0,0,0,,10,,,45,127
15423,note_off,110,0,0,,10,,,45,127
15428,note_on,5,0,0,,10,,,45,127
15538,note_off,110,0,0,,10,,,45,127
15543,note_on,5,0,0,,0,,,48,127
15543,note_on,0,0,0,,0,,,72,127
15543,note_on,0,0,0,,7,,,79,127
15653,note_off,110,0,0,,0,,,48,127
15658,note_on,5,0,0,,0,,,48,127
15768,note_off,110,0,0,,0,,,48,127
15768,note_off,0,0,0,,7,,,79,127
15768,note_off,0,0,0,,0,,,72,127
15773,note_on,5,0,0,,5,,,41,127
15773,note_on,0,0,0,,10,,,81,127
15773,note_on,0,0,0,,5,,,77,127
15883,note_off,110,0,0,,5,,,41,127
15888,note_on,5,0,0,,4,,,52,127
15998,note_off,110,0,0,,4,,,52,127
16003,note_on,5,0,0,,5,,,53,127
16113,note_off,110,0,0,,5,,,53,127
16118,note_on,5,0,0,,7,,,43,127
16228,note_off,110,0,0,,7,,,43,127
16233,note_off,5,0,0,,5,,,77,127
16233,note_off,0,0,0,,10,,,81,127
16233,note_on,0,0,0,,10,,,45,127
16343,note_off,110,0,0,,10,,,45,127
16348,note_on,5,0,0,,7,,,55,127
16458,note_off,110,0,0,,7,,,55,127
16463,note_on,5,0,0,,10,,,57,127
16463,note_on,0,0,0,,10,,,81,127
16463,note_on,0,0,0,,5,,,77,127
16573,note_off,110,0,0,,10,,,57,127
16578,note_on,5,0,0,,11,,,46,127
16688,note_off,110,0,0,,11,,,46,127
16688,note_off,0,0,0,,5,,,77,127
16688,note_off,0,0,0,,10,,,81,127
16693,note_on,5,0,0,,0,,,48,127
16693,note_on,0,0,0,,7,,,79,127
16693,note_on,0,0,0,,4,,,76,127
16803,note_off,110,0,0,,0,,,48,127
16808,note_on,5,0,0,,12,,,59,127
16918,note_off,110,0,0,,12,,,59,127
16923,note_on,5,0,0,,0,,,60,127
17033,note_off,110,0,0,,0,,,60,127
17038,note_on,5,0,0,,2,,,50,127
17148,note_off,110,0,0,,2,,,50,127
17153,note_off,5,0,0,,4,,,76,127
17153,note_off,0,0,0,,7,,,79,127
17153,note_on,0,0,0,,4,,,52,127
17263,note_off,110,0,0,,4,,,52,127
17268,note_on,5,0,0,,2,,,62,127
17378,note_off,110,0,0,,2,,,62,127
17383,note_on,5,0,0,,4,,,64,127
17383,note_on,0,0,0,,7,,,79,127
17383,note_on,0,0,0,,4,,,76,127
17493,note_off,110,0,0,,4,,,64,127
17498,note_on,5,0,0,,5,,,53,127
17608,note_off,110,0,0,,5,,,53,127
17608,note_off,0,0,0,,4,,,76,127
17608,note_off,0,0,0,,7,,,79,127
17613,note_on,5,0,0,,7,,,55,127
17613,note_on,0,0,0,,2,,,74,127
17613,note_on,0,0,0,,5,,,77,127
17723,note_off,110,0,0,,2,,,74,127
17728,note_on,5,0,0,,7,,,67,127
17838,note_off,110,0,0,,7,,,67,127
17843,note_on,5,0,0,,2,,,62,127
17843,note_on,0,0,0,,7,,,67,127
17953,note_off,110,0,0,,7,,,67,127
17958,note_on,5,0,0,,7,,,67,127
18068,note_off,110,0,0,,7,,,67,127
18068,note_off,0,0,0,,2,,,62,127
18073,note_on,5,0,0,,12,,,59,127
18073,note_on,0,0,0,,12,,,71,127
18183,note_off,110,0,0,,12,,,71,127
18188,note_on,5,0,0,,12,,,71,127
18296,note_off,108,0,0,,7,,,55,127
18298,note_off,2,0,0,,12,,,71,127
18298,note_off,0,0,0,,12,,,59,127
18303,note_off,5,0,0,,5,,,77,127
18303,note_on,0,0,0,,7,,,55,127
18303,note_on,0,0,0,,2,,,74,127
18303,note_on,0,0,0,,5,,,77,127
18413,note_off,110,0,0,,5,,,77,127
18413,note_off,0,0,0,,2,,,74,127
18418,note_on,5,0,0,,2,,,74,127
18528,note_off,110,0,0,,2,,,74,127
18528,note_off,0,0,0,,7,,,55,127
18533,note_on,5,0,0,,7,,,55,127
18533,note_on,0,0,0,,4,,,76,127
18533,note_on,0,0,0,,0,,,72,127
18643,note_off,110,0,0,,0,,,72,127
18648,note_on,5,0,0,,7,,,67,127
18758,note_off,110,0,0,,7,,,67,127
18763,note_on,5,0,0,,4,,,64,127
18763,note_on,0,0,0,,7,,,67,127
18873,note_off,110,0,0,,7,,,67,127
18878,note_on,5,0,0,,7,,,67,127
18988,note_off,110,0,0,,7,,,67,127
18988,note_off,0,0,0,,4,,,64,127
18993,note_on,5,0,0,,0,,,60,127
18993,note_on,0,0,0,,0,,,72,127
19103,note_off,110,0,0,,0,,,72,127
19108,note_on,5,0,0,,0,,,72,127
19216,note_off,108,0,0,,7,,,55,127
19218,note_off,2,0,0,,0,,,72,127
19218,note_off,0,0,0,,0,,,60,127
19223,note_off,5,0,0,,4,,,76,127
19223,note_on,0,0,0,,7,,,55,127
19223,note_on,0,0,0,,7,,,79,127
19223,note_on,0,0,0,,4,,,76,127
19333,note_off,110,0,0,,4,,,76,127
19333,note_off,0,0,0,,7,,,79,127
19338,note_on,5,0,0,,4,,,76,127
19448,note_off,110,0,0,,4,,,76,127
19448,note_off,0,0,0,,7,,,55,127
19453,note_on,5,0,0,,7,,,55,127
19453,note_on,0,0,0,,2,,,74,127
19453,note_on,0,0,0,,5,,,77,127
19563,note_off,110,0,0,,2,,,74,127
19568,note_on,5,0,0,,7,,,67,127
19678,note_off,110,0,0,,7,,,67,127
19683,note_on,5,0,0,,2,,,62,127
19683,note_on,0,0,0,,7,,,67,127
19793,note_off,110,0,0,,7,,,67,127
19798,note_on,5,0,0,,7,,,67,127
19908,note_off,110,0,0,,7,,,67,127
19908,note_off,0,0,0,,2,,,62,127
19913,note_on,5,0,0,,12,,,59,127
19913,note_on,0,0,0,,12,,,71,127
20023,note_off,110,0,0,,12,,,71,127
20028,note_on,5,0,0,,12,,,71,127
20136,note_off,108,0,0,,7,,,55,127
20138,note_off,2,0,0,,12,,,71,127
20138,note_off,0,0,0,,12,,,59,127
20143,note_off,5,0,0,,5,,,77,127
20143,note_on,0,0,0,,7,,,55,127
20143,note_on,0,0,0,,5,,,77,127
20143,note_on,0,0,0,,2,,,74,127
20253,note_off,110,0,0,,2,,,74,127
20253,note_off,0,0,0,,5,,,77,127
20258,note_on,5,0,0,,2,,,74,127
20368,note_off,110,0,0,,2,,,74,127
20368,note_off,0,0,0,,7,,,55,127
20373,note_on,5,0,0,,7,,,55,127
20373,note_on,0,0,0,,0,,,72,127
20373,note_on,0,0,0,,4,,,76,127
20483,note_off,110,0,0,,0,,,72,127
20488,note_on,5,0,0,,7,,,67,127
20598,note_off,110,0,0,,7,,,67,127
20603,note_on,5,0,0,,4,,,64,127
20603,note_on,0,0,0,,7,,,67,127
20713,note_off,110,0,0,,7,,,67,127
20718,note_on,5,0,0,,7,,,67,127
20828,note_off,110,0,0,,7,,,67,127
20828,note_off,0,0,0,,4,,,64,127
20833,note_on,5,0,0,,0,,,60,127
20833,note_on,0,0,0,,0,,,72,127
20943,note_off,110,0,0,,0,,,72,127
20948,note_on,5,0,0,,0,,,72,127
21056,note_off,108,0,0,,7,,,55,127
21058,note_off,2,0,0,,0,,,72,127
21058,note_off,0,0,0,,0,,,60,127
21063,note_off,5,0,0,,4,,,76,127
21063,note_on,0,0,0,,7,,,55,127
21063,note_on,0,0,0,,7,,,79,127
21063,note_on,0,0,0,,4,,,76,127
21173,note_off,110,0,0,,4,,,76,127
21173,note_off,0,0,0,,7,,,79,127
21178,note_on,5,0,0,,4,,,76,127
21288,note_off,110,0,0,,4,,,76,127
21288,note_off,0,0,0,,7,,,55,127
21293,note_on,5,0,0,,7,,,55,127
21293,note_on,0,0,0,,2,,,74,127
21293,note_on,0,0,0,,5,,,77,127
21403,note_off,110,0,0,,2,,,74,127
21408,note_on,5,0,0,,7,,,67,127
21518,note_off,110,0,0,,7,,,67,127
21523,note_on,5,0,0,,2,,,62,127
21523,note_on,0,0,0,,7,,,67,127
21633,note_off,110,0,0,,7,,,67,127
21638,note_on,5,0,0,,7,,,67,127
21748,note_off,110,0,0,,7,,,67,127
21748,note_off,0,0,0,,2,,,62,127
21753,note_on,5,0,0,,12,,,59,127
21753,note_on,0,0,0,,12,,,71,127
21863,note_off,110,0,0,,12,,,71,127
21868,note_on,5,0,0,,12,,,71,127
21976,note_off,108,0,0,,7,,,55,127
21978,note_off,2,0,0,,12,,,71,127
21978,note_off,0,0,0,,12,,,59,127
21983,note_off,5,0,0,,5,,,77,127
21983,note_on,0,0,0,,7,,,55,127
21983,note_on,0,0,0,,2,,,74,127
21983,note_on,0,0,0,,5,,,77,127
22093,note_off,110,0,0,,5,,,77,127
22093,note_off,0,0,0,,2,,,74,127
22098,note_on,5,0,0,,2,,,74,127
22208,note_off,110,0,0,,2,,,74,127
22208,note_off,0,0,0,,7,,,55,127
22213,note_on,5,0,0,,0,,,48,127
22213,note_on,0,0,0,,4,,,76,127
22213,note_on,0,0,0,,0,,,72,127
22439,note_off,226,0,0,,0,,,48,127
22444,note_off,5,0,0,,0,,,72,127
22444,note_off,0,0,0,,4,,,76,127
22444,note_on,0,0,0,,4,,,64,127
22554,note_off,110,0,0,,4,,,64,127
22559,note_on,5,0,0,,4,,,52,127
22669,note_off,110,0,0,,4,,,52,127
22674,note_on,5,0,0,,5,,,65,127
22784,note_off,110,0,0,,5,,,65,127
22789,note_on,5,0,0,,5,,,53,127
22899,note_off,110,0,0,,5,,,53,127
22904,note_on,5,0,0,,2,,,62,127
23014,note_off,110,0,0,,2,,,62,127
23019,note_on,5,0,0,,2,,,50,127
23129,note_off,110,0,0,,2,,,50,127
23134,note_on,5,0,0,,12,,,59,127
23244,note_off,110,0,0,,12,,,59,127
23249,note_on,5,0,0,,12,,,47,127
23359,note_off,110,0,0,,12,,,47,127
23364,note_on,5,0,0,,8,,,56,127
23474,note_off,110,0,0,,8,,,56,127
23479,note_on,5,0,0,,8,,,44,127
23589,note_off,110,0,0,,8,,,44,127
23594,note_on,5,0,0,,10,,,57,127
23704,note_off,110,0,0,,10,,,57,127
23709,note_on,5,0,0,,10,,,45,127
23819,note_off,110,0,0,,10,,,45,127
23824,note_on,5,0,0,,5,,,53,127
23934,note_off,110,0,0,,5,,,53,127
23939,note_on,5,0,0,,5,,,41,127
24049,note_off,110,0,0,,5,,,41,127
24054,note_on,5,0,0,,4,,,40,127
24054,note_on,0,0,0,,4,,,76,127
24169,note_on,115,0,0,,4,,,64,127
24279,note_off,110,0,0,,4,,,64,127
24279,note_off,0,0,0,,4,,,40,127
24284,note_on,5,0,0,,0,,,60,127
24284,note_on,0,0,0,,4,,,64,127
24394,note_off,110,0,0,,4,,,64,127
24399,note_on,5,0,0,,4,,,64,127
24509,note_off,110,0,0,,4,,,64,127
24509,note_off,0,0,0,,0,,,60,127
24514,note_on,5,0,0,,2,,,62,127
24514,note_on,0,0,0,,5,,,65,127
24624,note_off,110,0,0,,5,,,65,127
24629,note_on,5,0,0,,5,,,65,127
24739,note_off,110,0,0,,5,,,65,127
24739,note_off,0,0,0,,2,,,62,127
24744,note_off,5,0,0,,4,,,76,127
24744,note_on,0,0,0,,12,,,59,127
24744,note_on,0,0,0,,5,,,77,127
24744,note_on,0,0,0,,2,,,74,127
24854,note_off,110,0,0,,2,,,74,127
24854,note_off,0,0,0,,5,,,77,127
24859,note_on,5,0,0,,8,,,68,127
24969,note_off,110,0,0,,8,,,68,127
24969,note_off,0,0,0,,12,,,59,127
24974,note_on,5,0,0,,4,,,52,127
24974,note_on,0,0,0,,4,,,76,127
24974,note_on,0,0,0,,10,,,69,127
25084,note_off,110,0,0,,10,,,69,127
25089,note_on,5,0,0,,4,,,64,127
25199,note_off,110,0,0,,4,,,64,127
25204,note_on,5,0,0,,0,,,60,127
25204,note_on,0,0,0,,4,,,64,127
25314,note_off,110,0,0,,4,,,64,127
25319,note_on,5,0,0,,4,,,64,127
25429,note_off,110,0,0,,4,,,64,127
25429,note_off,0,0,0,,0,,,60,127
25434,note_on,5,0,0,,2,,,62,127
25434,note_on,0,0,0,,5,,,65,127
25544,note_off,110,0,0,,5,,,65,127
25549,note_on,5,0,0,,5,,,65,127
25659,note_off,110,0,0,,5,,,65,127
25659,note_off,0,0,0,,2,,,62,127
25664,note_off,5,0,0,,4,,,76,127
25664,note_on,0,0,0,,12,,,59,127
25664,note_on,0,0,0,,2,,,74,127
25664,note_on,0,0,0,,12,,,71,127
25774,note_off,110,0,0,,12,,,71,127
25774,note_off,0,0,0,,2,,,74,127
25779,note_on,5,0,0,,8,,,68,127
25889,note_off,110,0,0,,8,,,68,127
25889,note_off,0,0,0,,12,,,59,127
25894,note_off,5,0,0,,4,,,52,127
25894,note_on,0,0,0,,4,,,52,127
25894,note_on,0,0,0,,10,,,69,127
25894,note_on,0,0,0,,4,,,76,127
26004,note_off,110,0,0,,10,,,69,127
26009,note_on,5,0,0,,4,,,64,127
26119,note_off,110,0,0,,4,,,64,127
26124,note_on,5,0,0,,0,,,60,127
26124,note_on,0,0,0,,4,,,64,127
26234,note_off,110,0,0,,4,,,64,127
26239,note_on,5,0,0,,4,,,64,127
26349,note_off,110,0,0,,4,,,64,127
26349,note_off,0,0,0,,0,,,60,127
26354,note_on,5,0,0,,2,,,62,127
26354,note_on,0,0,0,,5,,,65,127
26464,note_off,110,0,0,,5,,,65,127
26469,note_on,5,0,0,,5,,,65,127
26579,note_off,110,0,0,,5,,,65,127
26579,note_off,0,0,0,,2,,,62,127
26584,note_off,5,0,0,,4,,,76,127
26584,note_on,0,0,0,,12,,,59,127
26584,note_on,0,0,0,,5,,,77,127
26584,note_on,0,0,0,,2,,,74,127
26694,note_off,110,0,0,,2,,,74,127
26694,note_off,0,0,0,,5,,,77,127
26699,note_on,5,0,0,,8,,,68,127
26809,note_off,110,0,0,,8,,,68,127
26809,note_off,0,0,0,,12,,,59,127
26814,note_off,5,0,0,,4,,,52,127
26814,note_on,0,0,0,,4,,,52,127
26814,note_on,0,0,0,,4,,,76,127
26814,note_on,0,0,0,,10,,,69,127
26924,note_off,110,0,0,,10,,,69,127
26929,note_on,5,0,0,,4,,,64,127
27039,note_off,110,0,0,,4,,,64,127
27044,note_on,5,0,0,,0,,,60,127
27044,note_on,0,0,0,,4,,,64,127
27154,note_off,110,0,0,,4,,,64,127
27159,note_on,5,0,0,,4,,,64,127
27269,note_off,110,0,0,,4,,,64,127
27269,note_off,0,0,0,,0,,,60,127
27274,note_on,5,0,0,,2,,,62,127
27274,note_on,0,0,0,,5,,,65,127
27384,note_off,110,0,0,,5,,,65,127
27389,note_on,5,0,0,,5,,,65,127
27499,note_off,110,0,0,,5,,,65,127
27499,note_off,0,0,0,,2,,,62,127
27504,note_off,5,0,0,,4,,,76,127
27504,note_on,0,0,0,,12,,,59,127
27504,note_on,0,0,0,,2,,,74,127
27504,note_on,0,0,0,,12,,,71,127
27614,note_off,110,0,0,,12,,,71,127
27614,note_off,0,0,0,,2,,,74,127
27619,note_on,5,0,0,,8,,,68,127
27729,note_off,110,0,0,,8,,,68,127
27729,note_off,0,0,0,,12,,,59,127
27734,note_off,5,0,0,,4,,,52,127
27734,note_on,0,0,0,,10,,,57,127
27734,note_on,0,0,0,,4,,,76,127
27734,note_on,0,0,0,,0,,,84,127
27829,note_off,95,0,0,,0,,,84,127
27829,note_off,0,0,0,,4,,,76,127
27849,note_on,20,0,0,,12,,,83,127
27849,note_on,0,0,0,,2,,,74,127
27944,note_off,95,0,0,,2,,,74,127
27944,note_off,0,0,0,,12,,,83,127
27964,note_on,20,0,0,,10,,,81,127
27964,note_on,0,0,0,,0,,,72,127
28059,note_off,95,0,0,,0,,,72,127
28059,note_off,0,0,0,,10,,,81,127
28079,note_on,20,0,0,,12,,,71,127
28079,note_on,0,0,0,,8,,,80,127
28174,note_off,95,0,0,,8,,,80,127
28174,note_off,0,0,0,,12,,,71,127
28194,note_on,20,0,0,,10,,,81,127
28194,note_on,0,0,0,,0,,,72,127
28289,note_off,95,0,0,,0,,,72,127
28289,note_off,0,0,0,,10,,,81,127
28309,note_on,20,0,0,,7,,,79,127
28309,note_on,0,0,0,,12,,,71,127
28404,note_off,95,0,0,,12,,,71,127
28404,note_off,0,0,0,,7,,,79,127
28424,note_on,20,0,0,,10,,,69,127
28424,note_on,0,0,0,,5,,,77,127
28519,note_off,95,0,0,,5,,,77,127
28519,note_off,0,0,0,,10,,,69,127
28539,note_on,20,0,0,,4,,,76,127
28539,note_on,0,0,0,,8,,,68,127
28634,note_off,95,0,0,,8,,,68,127
28634,note_off,0,0,0,,4,,,76,127
28650,note_off,16,0,0,,10,,,57,127
28655,note_on,5,0,0,,2,,,50,127
28655,note_on,0,0,0,,5,,,77,127
28655,note_on,0,0,0,,10,,,69,127
28750,note_off,95,0,0,,10,,,69,127
28750,note_off,0,0,0,,5,,,77,127
28770,note_on,20,0,0,,4,,,76,127
28770,note_on,0,0,0,,7,,,67,127
28865,note_off,95,0,0,,7,,,67,127
28865,note_off,0,0,0,,4,,,76,127
28885,note_on,20,0,0,,2,,,74,127
28885,note_on,0,0,0,,5,,,65,127
28980,note_off,95,0,0,,5,,,65,127
28980,note_off,0,0,0,,2,,,74,127
29000,note_on,20,0,0,,0,,,72,127
29000,note_on,0,0,0,,4,,,64,127
29095,note_off,95,0,0,,4,,,64,127
29095,note_off,0,0,0,,0,,,72,127
29115,note_on,20,0,0,,5,,,65,127
29115,note_on,0,0,0,,2,,,74,127
29210,note_off,95,0,0,,2,,,74,127
29210,note_off,0,0,0,,5,,,65,127
29230,note_on,20,0,0,,4,,,64,127
29230,note_on,0,0,0,,0,,,72,127
29325,note_off,95,0,0,,0,,,72,127
29325,note_off,0,0,0,,4,,,64,127
29345,note_on,20,0,0,,12,,,71,127
29345,note_on,0,0,0,,2,,,62,127
29440,note_off,95,0,0,,2,,,62,127
29440,note_off,0,0,0,,12,,,71,127
29460,note_on,20,0,0,,10,,,69,127
29460,note_on,0,0,0,,0,,,60,127
29555,note_off,95,0,0,,0,,,60,127
29555,note_off,0,0,0,,10,,,69,127
29575,note_on,20,0,0,,12,,,59,127
29575,note_on,0,0,0,,8,,,68,127
29801,note_off,226,0,0,,2,,,50,127
29806,note_off,5,0,0,,8,,,68,127
29806,note_off,0,0,0,,12,,,59,127
29806,note_on,0,0,0,,4,,,64,127
29916,note_off,110,0,0,,4,,,64,127
29921,note_on,5,0,0,,4,,,52,127
30031,note_off,110,0,0,,4,,,52,127
30036,note_on,5,0,0,,5,,,65,127
30146,note_off,110,0,0,,5,,,65,127
30151,note_on,5,0,0,,5,,,53,127
30261,note_off,110,0,0,,5,,,53,127
30266,note_on,5,0,0,,2,,,62,127
30376,note_off,110,0,0,,2,,,62,127
30381,note_on,5,0,0,,2,,,50,127
30491,note_off,110,0,0,,2,,,50,127
30496,note_on,5,0,0,,12,,,59,127
30606,note_off,110,0,0,,12,,,59,127
30611,note_on,5,0,0,,12,,,47,127
30721,note_off,110,0,0,,12,,,47,127
30726,note_on,5,0,0,,8,,,56,127
30836,note_off,110,0,0,,8,,,56,127
30841,note_on,5,0,0,,8,,,44,127
30951,note_off,110,0,0,,8,,,44,127
30956,note_on,5,0,0,,10,,,57,127
31066,note_off,110,0,0,,10,,,57,127
31071,note_on,5,0,0,,10,,,45,127
31181,note_off,110,0,0,,10,,,45,127
31186,note_on,5,0,0,,5,,,53,127
31296,note_off,110,0,0,,5,,,53,127
31301,note_on,5,0,0,,5,,,41,127
31411,note_off,110,0,0,,5,,,41,127
31416,note_on,5,0,0,,4,,,40,127
31416,note_on,0,0,0,,4,,,76,127
31531,note_on,115,0,0,,4,,,64,127
31641,note_off,110,0,0,,4,,,64,127
31641,note_off,0,0,0,,4,,,40,127
31646,note_on,5,0,0,,0,,,60,127
31646,note_on,0,0,0,,4,,,64,127
31756,note_off,110,0,0,,4,,,64,127
31761,note_on,5,0,0,,4,,,64,127
31871,note_off,110,0,0,,4,,,64,127
31871,note_off,0,0,0,,0,,,60,127
31876,note_on,5,0,0,,2,,,62,127
31876,note_on,0,0,0,,5,,,65,127
31986,note_off,110,0,0,,5,,,65,127
31991,note_on,5,0,0,,5,,,65,127
32101,note_off,110,0,0,,5,,,65,127
32101,note_off,0,0,0,,2,,,62,127
32106,note_off,5,0,0,,4,,,76,127
32106,note_on,0,0,0,,12,,,59,127
32106,note_on,0,0,0,,5,,,77,127
32106,note_on,0,0,0,,2,,,74,127
32216,note_off,110,0,0,,2,,,74,127
32216,note_off,0,0,0,,5,,,77,127
32221,note_on,5,0,0,,8,,,68,127
32331,note_off,110,0,0,,8,,,68,127
32331,note_off,0,0,0,,12,,,59,127
32336,note_on,5,0,0,,4,,,52,127
32336,note_on,0,0,0,,4,,,76,127
32336,note_on,0,0,0,,10,,,69,127
32446,note_off,110,0,0,,10,,,69,127
32451,note_on,5,0,0,,4,,,64,127
32561,note_off,110,0,0,,4,,,64,127
32566,note_on,5,0,0,,0,,,60,127
32566,note_on,0,0,0,,4,,,64,127
32676,note_off,110,0,0,,4,,,64,127
32681,note_on,5,0,0,,4,,,64,127
32791,note_off,110,0,0,,4,,,64,127
32791,note_off,0,0,0,,0,,,60,127
32796,note_on,5,0,0,,2,,,62,127
32796,note_on,0,0,0,,5,,,65,127
32906,note_off,110,0,0,,5,,,65,127
32911,note_on,5,0,0,,5,,,65,127
33021,note_off,110,0,0,,5,,,65,127
33021,note_off,0,0,0,,2,,,62,127
33026,note_off,5,0,0,,4,,,76,127
33026,note_on,0,0,0,,12,,,59,127
33026,note_on,0,0,0,,2,,,74,127
33026,note_on,0,0,0,,12,,,71,127
33136,note_off,110,0,0,,12,,,71,127
33136,note_off,0,0,0,,2,,,74,127
33141,note_on,5,0,0,,8,,,68,127
33251,note_off,110,0,0,,8,,,68,127
33251,note_off,0,0,0,,12,,,59,127
33256,note_off,5,0,0,,4,,,52,127
33256,note_on,0,0,0,,4,,,52,127
33256,note_on,0,0,0,,4,,,76,127
33256,note_on,0,0,0,,10,,,69,127
33366,note_off,110,0,0,,10,,,69,127
33371,note_on,5,0,0,,4,,,64,127
33481,note_off,110,0,0,,4,,,64,127
33486,note_on,5,0,0,,0,,,60,127
33486,note_on,0,0,0,,4,,,64,127
33596,note_off,110,0,0,,4,,,64,127
33601,note_on,5,0,0,,4,,,64,127
33711,note_off,110,0,0,,4,,,64,127
33711,note_off,0,0,0,,0,,,60,127
33716,note_on,5,0,0,,2,,,62,127
33716,note_on,0,0,0,,5,,,65,127
33826,note_off,110,0,0,,5,,,65,127
33831,note_on,5,0,0,,5,,,65,127
33941,note_off,110,0,0,,5,,,65,127
33941,note_off,0,0,0,,2,,,62,127
33946,note_off,5,0,0,,4,,,76,127
33946,note_on,0,0,0,,12,,,59,127
33946,note_on,0,0,0,,2,,,74,127
33946,note_on,0,0,0,,5,,,77,127
34056,note_off,110,0,0,,5,,,77,127
34056,note_off,0,0,0,,2,,,74,127
34061,note_on,5,0,0,,8,,,68,127
34171,note_off,110,0,0,,8,,,68,127
34171,note_off,0,0,0,,12,,,59,127
34176,note_off,5,0,0,,4,,,52,127
34176,note_on,0,0,0,,4,,,52,127
34176,note_on,0,0,0,,4,,,76,127
34176,note_on,0,0,0,,10,,,69,127
34286,note_off,110,0,0,,10,,,69,127
34291,note_on,5,0,0,,4,,,64,127
34401,note_off,110,0,0,,4,,,64,127
34406,note_on,5,0,0,,0,,,60,127
34406,note_on,0,0,0,,4,,,64,127
34516,note_off,110,0,0,,4,,,64,127
34521,note_on,5,0,0,,4,,,64,127
34631,note_off,110,0,0,,4,,,64,127
34631,note_off,0,0,0,,0,,,60,127
34636,note_on,5,0,0,,2,,,62,127
34636,note_on,0,0,0,,5,,,65,127
34746,note_off,110,0,0,,5,,,65,127
34751,note_on,5,0,0,,5,,,65,127
34861,note_off,110,0,0,,5,,,65,127
34861,note_off,0,0,0,,2,,,62,127
34866,note_off,5,0,0,,4,,,76,127
34866,note_on,0,0,0,,12,,,59,127
34866,note_on,0,0,0,,12,,,71,127
34866,note_on,0,0,0,,2,,,74,127
34976,note_off,110,0,0,,2,,,74,127
34976,note_off,0,0,0,,12,,,71,127
34981,note_on,5,0,0,,8,,,68,127
35091,note_off,110,0,0,,8,,,68,127
35091,note_off,0,0,0,,12,,,59,127
35096,note_off,5,0,0,,4,,,52,127
35096,note_on,0,0,0,,10,,,57,127
35096,note_on,0,0,0,,0,,,84,127
35096,note_on,0,0,0,,4,,,76,127
35191,note_off,95,0,0,,4,,,76,127
35191,note_off,0,0,0,,0,,,84,127
35211,note_on,20,0,0,,12,,,83,127
35211,note_on,0,0,0,,2,,,74,127
35306,note_off,95,0,0,,2,,,74,127
35306,note_off,0,0,0,,12,,,83,127
35326,note_on,20,0,0,,10,,,81,127
35326,note_on,0,0,0,,0,,,72,127
35421,note_off,95,0,0,,0,,,72,127
35421,note_off,0,0,0,,10,,,81,127
35441,note_on,20,0,0,,8,,,80,127
35441,note_on,0,0,0,,12,,,71,127
35536,note_off,95,0,0,,12,,,71,127
35536,note_off,0,0,0,,8,,,80,127
35552,note_off,16,0,0,,10,,,57,127
35557,note_on,5,0,0,,10,,,45,127
35557,note_on,0,0,0,,10,,,57,127
35557,note_on,0,0,0,,10,,,81,127
35557,note_on,0,0,0,,0,,,72,127
35652,note_off,95,0,0,,0,,,72,127
35652,note_off,0,0,0,,10,,,81,127
35672,note_on,20,0,0,,7,,,79,127
35672,note_on,0,0,0,,12,,,71,127
35767,note_off,95,0,0,,12,,,71,127
35767,note_off,0,0,0,,7,,,79,127
35787,note_on,20,0,0,,10,,,69,127
35787,note_on,0,0,0,,5,,,77,127
35882,note_off,95,0,0,,5,,,77,127
35882,note_off,0,0,0,,10,,,69,127
35902,note_on,20,0,0,,4,,,76,127
35902,note_on,0,0,0,,7,,,67,127
35997,note_off,95,0,0,,7,,,67,127
35997,note_off,0,0,0,,4,,,76,127
36013,note_off,16,0,0,,10,,,57,127
36013,note_off,0,0,0,,10,,,45,127
36018,note_on,5,0,0,,2,,,38,127
36018,note_on,0,0,0,,2,,,50,127
36018,note_on,0,0,0,,5,,,65,127
36018,note_on,0,0,0,,2,,,74,127
36113,note_off,95,0,0,,2,,,74,127
36113,note_off,0,0,0,,5,,,65,127
36133,note_on,20,0,0,,5,,,77,127
36133,note_on,0,0,0,,10,,,69,127
36228,note_off,95,0,0,,10,,,69,127
36228,note_off,0,0,0,,5,,,77,127
36248,note_on,20,0,0,,4,,,76,127
36248,note_on,0,0,0,,7,,,67,127
36343,note_off,95,0,0,,7,,,67,127
36343,note_off,0,0,0,,4,,,76,127
36363,note_on,20,0,0,,2,,,74,127
36363,note_on,0,0,0,,5,,,65,127
36458,note_off,95,0,0,,5,,,65,127
36458,note_off,0,0,0,,2,,,74,127
36474,note_off,16,0,0,,2,,,50,127
36474,note_off,0,0,0,,2,,,38,127
36479,note_on,5,0,0,,4,,,40,127
36479,note_on,0,0,0,,4,,,52,127
36479,note_on,0,0,0,,0,,,72,127
36479,note_on,0,0,0,,4,,,64,127
36574,note_off,95,0,0,,4,,,64,127
36574,note_off,0,0,0,,0,,,72,127
36594,note_on,20,0,0,,12,,,71,127
36594,note_on,0,0,0,,2,,,62,127
36689,note_off,95,0,0,,2,,,62,127
36689,note_off,0,0,0,,12,,,71,127
36709,note_on,20,0,0,,10,,,69,127
36709,note_on,0,0,0,,0,,,60,127
36804,note_off,95,0,0,,0,,,60,127
36804,note_off,0,0,0,,10,,,69,127
36824,note_on,20,0,0,,8,,,68,127
36824,note_on,0,0,0,,12,,,59,127
36919,note_off,95,0,0,,12,,,59,127
36919,note_off,0,0,0,,8,,,68,127
36935,note_off,16,0,0,,4,,,52,127
36935,note_off,0,0,0,,4,,,40,127
36940,note_on,5,0,0,,10,,,45,127
36940,note_on,0,0,0,,10,,,69,127
37050,note_off,110,0,0,,10,,,45,127
37055,note_on,5,0,0,,10,,,57,127
37165,note_off,110,0,0,,10,,,57,127
37170,note_on,5,0,0,,10,,,57,127
37280,note_off,110,0,0,,10,,,57,127
37285,note_on,5,0,0,,10,,,57,127
37395,note_off,110,0,0,,10,,,57,127
37400,note_off,5,0,0,,10,,,69,127
37400,note_on,0,0,0,,0,,,60,127
37510,note_off,110,0,0,,0,,,60,127
37515,note_on,5,0,0,,0,,,60,127
37625,note_off,110,0,0,,0,,,60,127
37630,note_on,5,0,0,,4,,,64,127
37630,note_on,0,0,0,,0,,,84,127
37630,note_on,0,0,0,,4,,,76,127
37740,note_off,110,0,0,,4,,,64,127
37745,note_on,5,0,0,,4,,,64,127
37855,note_off,110,0,0,,4,,,64,127
37855,note_off,0,0,0,,4,,,76,127
37855,note_off,0,0,0,,0,,,84,127
37860,note_on,5,0,0,,10,,,69,127
37860,note_on,0,0,0,,10,,,81,127
37860,note_on,0,0,0,,0,,,72,127
37970,note_off,110,0,0,,10,,,69,127
37975,note_on,5,0,0,,10,,,57,127
38085,note_off,110,0,0,,10,,,57,127
38090,note_on,5,0,0,,10,,,57,127
38200,note_off,110,0,0,,10,,,57,127
38205,note_on,5,0,0,,10,,,57,127
38315,note_off,110,0,0,,10,,,57,127
38320,note_off,5,0,0,,0,,,72,127
38320,note_off,0,0,0,,10,,,81,127
38320,note_on,0,0,0,,0,,,60,127
38430,note_off,110,0,0,,0,,,60,127
38435,note_on,5,0,0,,0,,,60,127
38545,note_off,110,0,0,,0,,,60,127
38550,note_on,5,0,0,,4,,,64,127
38550,note_on,0,0,0,,0,,,84,127
38550,note_on,0,0,0,,4,,,76,127
38660,note_off,110,0,0,,4,,,64,127
38665,note_on,5,0,0,,4,,,64,127
38775,note_off,110,0,0,,4,,,64,127
38775,note_off,0,0,0,,4,,,76,127
38775,note_off,0,0,0,,0,,,84,127
38780,note_on,5,0,0,,10,,,69,127
38780,note_on,0,0,0,,10,,,81,127
38780,note_on,0,0,0,,0,,,72,127
38890,note_off,110,0,0,,10,,,69,127
38895,note_on,5,0,0,,10,,,57,127
39005,note_off,110,0,0,,10,,,57,127
39010,note_on,5,0,0,,10,,,57,127
39120,note_off,110,0,0,,10,,,57,127
39125,note_on,5,0,0,,10,,,57,127
39235,note_off,110,0,0,,10,,,57,127
39240,note_off,5,0,0,,0,,,72,127
39240,note_off,0,0,0,,10,,,81,127
39240,note_on,0,0,0,,0,,,60,127
39350,note_off,110,0,0,,0,,,60,127
39355,note_on,5,0,0,,0,,,60,127
39465,note_off,110,0,0,,0,,,60,127
39470,note_on,5,0,0,,4,,,64,127
39470,note_on,0,0,0,,0,,,84,127
39470,note_on,0,0,0,,4,,,76,127
39580,note_off,110,0,0,,4,,,64,127
39585,note_on,5,0,0,,4,,,64,127
39695,note_off,110,0,0,,4,,,64,127
39695,note_off,0,0,0,,4,,,76,127
39695,note_off,0,0,0,,0,,,84,127
39700,note_on,5,0,0,,10,,,69,127
39700,note_on,0,0,0,,10,,,81,127
39700,note_on,0,0,0,,0,,,72,127
39810,note_off,110,0,0,,0,,,72,127
39810,note_off,0,0,0,,10,,,81,127
39815,note_on,5,0,0,,4,,,76,127
39925,note_off,110,0,0,,4,,,76,127
39925,note_off,0,0,0,,10,,,69,127
39930,note_on,5,0,0,,2,,,62,127
39930,note_on,0,0,0,,5,,,77,127
40040,note_off,110,0,0,,5,,,77,127
40045,note_on,5,0,0,,10,,,69,127
40155,note_off,110,0,0,,10,,,69,127
40155,note_off,0,0,0,,2,,,62,127
40160,note_on,5,0,0,,4,,,64,127
40160,note_on,0,0,0,,10,,,69,127
40386,note_off,226,0,0,,4,,,64,127
40391,note_on,5,0,0,,4,,,52,127
40425,note_off,34,0,0,,10,,,69,127
40430,note_on,5,0,0,,8,,,68,127
40464,note_off,34,0,0,,8,,,68,127
40469,note_on,5,0,0,,10,,,69,127
40503,note_off,34,0,0,,10,,,69,127
40508,note_on,5,0,0,,8,,,68,127
40618,note_off,110,0,0,,8,,,68,127
40618,note_off,0,0,0,,4,,,52,127
40623,note_on,5,0,0,,10,,,57,127
40623,note_on,0,0,0,,10,,,69,127
40733,note_off,110,0,0,,10,,,57,127
40738,note_on,5,0,0,,10,,,45,127
40848,note_off,110,0,0,,10,,,45,127
40853,note_on,5,0,0,,10,,,45,127
40963,note_off,110,0,0,,10,,,45,127
40968,note_on,5,0,0,,10,,,45,127
41078,note_off,110,0,0,,10,,,45,127
41083,note_off,5,0,0,,10,,,69,127
41083,note_on,0,0,0,,0,,,48,127
41193,note_off,110,0,0,,0,,,48,127
41198,note_on,5,0,0,,0,,,48,127
41308,note_off,110,0,0,,0,,,48,127
41313,note_on,5,0,0,,4,,,52,127
41313,note_on,0,0,0,,4,,,76,127
41313,note_on,0,0,0,,0,,,72,127
41423,note_off,110,0,0,,4,,,52,127
41428,note_on,5,0,0,,4,,,52,127
41538,note_off,110,0,0,,4,,,52,127
41538,note_off,0,0,0,,0,,,72,127
41538,note_off,0,0,0,,4,,,76,127
41543,note_on,5,0,0,,10,,,57,127
41543,note_on,0,0,0,,0,,,72,127
41543,note_on,0,0,0,,10,,,69,127
41653,note_off,110,0,0,,10,,,57,127
41658,note_on,5,0,0,,10,,,45,127
41768,note_off,110,0,0,,10,,,45,127
41773,note_on,5,0,0,,10,,,45,127
41883,note_off,110,0,0,,10,,,45,127
41888,note_on,5,0,0,,10,,,45,127
41998,note_off,110,0,0,,10,,,45,127
42003,note_off,5,0,0,,10,,,69,127
42003,note_off,0,0,0,,0,,,72,127
42003,note_on,0,0,0,,0,,,48,127
42113,note_off,110,0,0,,0,,,48,127
42118,note_on,5,0,0,,0,,,48,127
42228,note_off,110,0,0,,0,,,48,127
42233,note_on,5,0,0,,4,,,52,127
42233,note_on,0,0,0,,0,,,72,127
42233,note_on,0,0,0,,4,,,76,127
42343,note_off,110,0,0,,4,,,52,127
42348,note_on,5,0,0,,4,,,52,127
42458,note_off,110,0,0,,4,,,52,127
42458,note_off,0,0,0,,4,,,76,127
42458,note_off,0,0,0,,0,,,72,127
42463,note_on,5,0,0,,10,,,57,127
42463,note_on,0,0,0,,10,,,69,127
42463,note_on,0,0,0,,0,,,72,127
42573,note_off,110,0,0,,10,,,57,127
42578,note_on,5,0,0,,10,,,45,127
42688,note_off,110,0,0,,10,,,45,127
42693,note_on,5,0,0,,10,,,45,127
42803,note_off,110,0,0,,10,,,45,127
42808,note_on,5,0,0,,10,,,45,127
42918,note_off,110,0,0,,10,,,45,127
42923,note_off,5,0,0,,0,,,72,127
42923,note_off,0,0,0,,10,,,69,127
42923,note_on,0,0,0,,0,,,48,127
43033,note_off,110,0,0,,0,,,48,127
43038,note_on,5,0,0,,0,,,48,127
43148,note_off,110,0,0,,0,,,48,127
43153,note_on,5,0,0,,4,,,52,127
43153,note_on,0,0,0,,0,,,84,127
43153,note_on,0,0,0,,4,,,76,127
43263,note_off,110,0,0,,4,,,52,127
43268,note_on,5,0,0,,4,,,52,127
43378,note_off,110,0,0,,4,,,52,127
43378,note_off,0,0,0,,4,,,76,127
43378,note_off,0,0,0,,0,,,84,127
43383,note_on,5,0,0,,10,,,57,127
43383,note_on,0,0,0,,0,,,72,127
43383,note_on,0,0,0,,10,,,81,127
43493,note_off,110,0,0,,10,,,81,127
43493,note_off,0,0,0,,0,,,72,127
43498,note_on,5,0,0,,4,,,76,127
43608,note_off,110,0,0,,4,,,76,127
43608,note_off,0,0,0,,10,,,57,127
43613,note_on,5,0,0,,2,,,50,127
43613,note_on,0,0,0,,2,,,62,127
43613,note_on,0,0,0,,5,,,77,127
43723,note_off,110,0,0,,5,,,77,127
43728,note_on,5,0,0,,10,,,69,127
43838,note_off,110,0,0,,10,,,69,127
43838,note_off,0,0,0,,2,,,62,127
43838,note_off,0,0,0,,2,,,50,127
43843,note_on,5,0,0,,4,,,52,127
43843,note_on,0,0,0,,0,,,60,127
43843,note_on,0,0,0,,10,,,69,127
44069,note_off,226,0,0,,0,,,60,127
44069,note_off,0,0,0,,4,,,52,127
44074,note_on,5,0,0,,2,,,50,127
44074,note_on,0,0,0,,12,,,59,127
44105,note_off,31,0,0,,10,,,69,127
44112,note_on,7,0,0,,8,,,68,127
44146,note_off,34,0,0,,8,,,68,127
44151,note_on,5,0,0,,10,,,69,127
44185,note_off,34,0,0,,10,,,69,127
44190,note_on,5,0,0,,8,,,68,127
44300,note_off,110,0,0,,8,,,68,127
44300,note_off,0,0,0,,12,,,59,127
44300,note_off,0,0,0,,2,,,50,127
44305,note_on,5,0,0,,0,,,48,127
44305,note_on,0,0,0,,10,,,57,127
44305,note_on,0,0,0,,10,,,69,127
44415,note_off,110,0,0,,10,,,69,127
44420,note_on,5,0,0,,4,,,64,127
44530,note_off,110,0,0,,4,,,64,127
44530,note_off,0,0,0,,10,,,57,127
44530,note_off,0,0,0,,0,,,48,127
44535,note_on,5,0,0,,2,,,50,127
44535,note_on,0,0,0,,5,,,65,127
44645,note_off,110,0,0,,5,,,65,127
44650,note_on,5,0,0,,10,,,57,127
44760,note_off,110,0,0,,10,,,57,127
44760,note_off,0,0,0,,2,,,50,127
44765,note_on,5,0,0,,4,,,52,127
44765,note_on,0,0,0,,10,,,57,127
44991,note_off,226,0,0,,4,,,52,127
44996,note_on,5,0,0,,4,,,40,127
45030,note_off,34,0,0,,10,,,57,127
45035,note_on,5,0,0,,8,,,56,127
45069,note_off,34,0,0,,8,,,56,127
45074,note_on,5,0,0,,10,,,57,127
45108,note_off,34,0,0,,10,,,57,127
45113,note_on,5,0,0,,8,,,56,127
45223,note_off,110,0,0,,8,,,56,127
45223,note_off,0,0,0,,4,,,40,127
45228,note_on,5,0,0,,10,,,45,127
45228,note_on,0,0,0,,10,,,57,127
45918,note_off,690,0,0,,10,,,57,127
46145,note_off,227,0,0,,10,,,45,127
46150,note_on,5,0,0,,10,,,45,127
46380,note_on,230,0,0,,4,,,76,127
46490,note_off,110,0,0,,4,,,76,127
46495,note_on,5,0,0,,4,,,64,127
46605,note_off,110,0,0,,4,,,64,127
46610,note_on,5,0,0,,5,,,65,127
46720,note_off,110,0,0,,5,,,65,127
46725,note_on,5,0,0,,2,,,74,127
46835,note_off,110,0,0,,2,,,74,127
46840,note_on,5,0,0,,7,,,67,127
46950,note_off,110,0,0,,7,,,67,127
46955,note_on,5,0,0,,4,,,76,127
47065,note_off,110,0,0,,4,,,76,127
47065,note_off,0,0,0,,10,,,45,127
47070,note_on,5,0,0,,10,,,45,127
47070,note_on,0,0,0,,10,,,69,127
47070,note_on,0,0,0,,1,,,73,127
47296,note_off,226,0,0,,1,,,73,127
47296,note_off,0,0,0,,10,,,69,127
47301,note_on,5,0,0,,4,,,76,127
47411,note_off,110,0,0,,4,,,76,127
47416,note_on,5,0,0,,4,,,64,127
47526,note_off,110,0,0,,4,,,64,127
47531,note_on,5,0,0,,5,,,65,127
47641,note_off,110,0,0,,5,,,65,127
47646,note_on,5,0,0,,2,,,74,127
47756,note_off,110,0,0,,2,,,74,127
47761,note_on,5,0,0,,7,,,67,127
47871,note_off,110,0,0,,7,,,67,127
47876,note_on,5,0,0,,4,,,76,127
47986,note_off,110,0,0,,4,,,76,127
47986,note_off,0,0,0,,10,,,45,127
47991,note_on,5,0,0,,10,,,45,127
47991,note_on,0,0,0,,1,,,73,127
47991,note_on,0,0,0,,10,,,69,127
48217,note_off,226,0,0,,10,,,69,127
48217,note_off,0,0,0,,1,,,73,127
48222,note_on,5,0,0,,4,,,76,127
48332,note_off,110,0,0,,4,,,76,127
48337,note_on,5,0,0,,4,,,64,127
48447,note_off,110,0,0,,4,,,64,127
48452,note_on,5,0,0,,5,,,65,127
48562,note_off,110,0,0,,5,,,65,127
48567,note_on,5,0,0,,2,,,74,127
48677,note_off,110,0,0,,2,,,74,127
48682,note_on,5,0,0,,7,,,67,127
48792,note_off,110,0,0,,7,,,67,127
48797,note_on,5,0,0,,4,,,76,127
48907,note_off,110,0,0,,4,,,76,127
48907,note_off,0,0,0,,10,,,45,127
48912,note_on,5,0,0,,10,,,45,127
48912,note_on,0,0,0,,1,,,73,127
48912,note_on,0,0,0,,10,,,69,127
49138,note_off,226,0,0,,10,,,69,127
49138,note_off,0,0,0,,1,,,73,127
49138,note_off,0,0,0,,10,,,45,127
49143,note_on,5,0,0,,10,,,57,127
49143,note_on,0,0,0,,10,,,81,127
49253,note_off,110,0,0,,10,,,57,127
49258,note_on,5,0,0,,10,,,45,127
49368,note_off,110,0,0,,10,,,45,127
49373,note_on,5,0,0,,12,,,47,127
49483,note_off,110,0,0,,12,,,47,127
49488,note_off,5,0,0,,10,,,81,127
49488,note_on,0,0,0,,7,,,55,127
49598,note_off,110,0,0,,7,,,55,127
49603,note_on,5,0,0,,1,,,49,127
49603,note_on,0,0,0,,7,,,79,127
49603,note_on,0,0,0,,4,,,76,127
49603,note_on,0,0,0,,10,,,69,127
49713,note_off,110,0,0,,1,,,49,127
49718,note_on,5,0,0,,10,,,57,127
49828,note_off,110,0,0,,10,,,57,127
49828,note_off,0,0,0,,10,,,69,127
49828,note_off,0,0,0,,4,,,76,127
49828,note_off,0,0,0,,7,,,79,127
49833,note_on,5,0,0,,2,,,50,127
49833,note_on,0,0,0,,5,,,53,127
49833,note_on,0,0,0,,10,,,69,127
49833,note_on,0,0,0,,5,,,77,127
49833,note_on,0,0,0,,2,,,74,127
50059,note_off,226,0,0,,5,,,53,127
50059,note_off,0,0,0,,2,,,50,127
50064,note_on,5,0,0,,10,,,57,127
50174,note_off,110,0,0,,10,,,57,127
50179,note_on,5,0,0,,10,,,45,127
50289,note_off,110,0,0,,10,,,45,127
50294,note_off,5,0,0,,2,,,74,127
50294,note_off,0,0,0,,5,,,77,127
50294,note_off,0,0,0,,10,,,69,127
50294,note_on,0,0,0,,12,,,47,127
50404,note_off,110,0,0,,12,,,47,127
50409,note_on,5,0,0,,7,,,55,127
50519,note_off,110,0,0,,7,,,55,127
50524,note_on,5,0,0,,1,,,49,127
50524,note_on,0,0,0,,4,,,76,127
50524,note_on,0,0,0,,10,,,69,127
50524,note_on,0,0,0,,7,,,79,127
50634,note_off,110,0,0,,1,,,49,127
50639,note_on,5,0,0,,10,,,57,127
50749,note_off,110,0,0,,10,,,57,127
50749,note_off,0,0,0,,7,,,79,127
50749,note_off,0,0,0,,10,,,69,127
50749,note_off,0,0,0,,4,,,76,127
50754,note_on,5,0,0,,5,,,53,127
50754,note_on,0,0,0,,2,,,50,127
50754,note_on,0,0,0,,2,,,74,127
50754,note_on,0,0,0,,10,,,69,127
50754,note_on,0,0,0,,5,,,77,127
50980,note_off,226,0,0,,2,,,50,127
50980,note_off,0,0,0,,5,,,53,127
50985,note_on,5,0,0,,10,,,57,127
51095,note_off,110,0,0,,10,,,57,127
51100,note_on,5,0,0,,10,,,45,127
51210,note_off,110,0,0,,10,,,45,127
51215,note_off,5,0,0,,5,,,77,127
51215,note_off,0,0,0,,10,,,69,127
51215,note_off,0,0,0,,2,,,74,127
51215,note_on,0,0,0,,12,,,47,127
51325,note_off,110,0,0,,12,,,47,127
51330,note_on,5,0,0,,7,,,55,127
51440,note_off,110,0,0,,7,,,55,127
51445,note_on,5,0,0,,1,,,49,127
51445,note_on,0,0,0,,7,,,79,127
51445,note_on,0,0,0,,4,,,76,127
51445,note_on,0,0,0,,10,,,69,127
51555,note_off,110,0,0,,1,,,49,127
51560,note_on,5,0,0,,10,,,57,127
51670,note_off,110,0,0,,10,,,57,127
51670,note_off,0,0,0,,10,,,69,127
51670,note_off,0,0,0,,4,,,76,127
51670,note_off,0,0,0,,7,,,79,127
51675,note_on,5,0,0,,2,,,50,127
51675,note_on,0,0,0,,2,,,74,127
51675,note_on,0,0,0,,10,,,69,127
51675,note_on,0,0,0,,5,,,77,127
51785,note_off,110,0,0,,2,,,50,127
51790,note_on,5,0,0,,1,,,61,127
51900,note_off,110,0,0,,1,,,61,127
51905,note_on,5,0,0,,2,,,62,127
52015,note_off,110,0,0,,2,,,62,127
52020,note_on,5,0,0,,4,,,52,127
52130,note_off,110,0,0,,4,,,52,127
52135,note_off,5,0,0,,5,,,77,127
52135,note_off,0,0,0,,10,,,69,127
52135,note_off,0,0,0,,2,,,74,127
52135,note_on,0,0,0,,5,,,53,127
52245,note_off,110,0,0,,5,,,53,127
52250,note_on,5,0,0,,4,,,64,127
52360,note_off,110,0,0,,4,,,64,127
52365,note_on,5,0,0,,5,,,65,127
52365,note_on,0,0,0,,2,,,74,127
52365,note_on,0,0,0,,5,,,77,127
52475,note_off,110,0,0,,5,,,65,127
52480,note_on,5,0,0,,7,,,55,127
52590,note_off,110,0,0,,7,,,55,127
52590,note_off,0,0,0,,5,,,77,127
52590,note_off,0,0,0,,2,,,74,127
52595,note_on,5,0,0,,10,,,57,127
52595,note_on,0,0,0,,4,,,76,127
52595,note_on,0,0,0,,1,,,73,127
52787,note_off,192,0,0,,1,,,73,127
52787,note_off,0,0,0,,4,,,76,127
52825,note_on,38,0,0,,1,,,73,127
52825,note_on,0,0,0,,4,,,64,127
52920,note_off,95,0,0,,4,,,64,127
52920,note_off,0,0,0,,1,,,73,127
52940,note_on,20,0,0,,2,,,74,127
52940,note_on,0,0,0,,5,,,65,127
53035,note_off,95,0,0,,5,,,65,127
53035,note_off,0,0,0,,2,,,74,127
53055,note_on,20,0,0,,4,,,76,127
53055,note_on,0,0,0,,7,,,67,127
53150,note_off,95,0,0,,7,,,67,127
53150,note_off,0,0,0,,4,,,76,127
53170,note_on,20,0,0,,5,,,77,127
53170,note_on,0,0,0,,10,,,69,127
53265,note_off,95,0,0,,10,,,69,127
53265,note_off,0,0,0,,5,,,77,127
53281,note_off,16,0,0,,10,,,57,127
53286,note_on,5,0,0,,10,,,45,127
53286,note_on,0,0,0,,12,,,71,127
53286,note_on,0,0,0,,7,,,79,127
53381,note_off,95,0,0,,7,,,79,127
53381,note_off,0,0,0,,12,,,71,127
53401,note_on,20,0,0,,1,,,73,127
53401,note_on,0,0,0,,4,,,76,127
53496,note_off,95,0,0,,4,,,76,127
53496,note_off,0,0,0,,1,,,73,127
53512,note_off,16,0,0,,10,,,45,127
53517,note_on,5,0,0,,2,,,50,127
53517,note_on,0,0,0,,2,,,74,127
53517,note_on,0,0,0,,6,,,78,127
53709,note_off,192,0,0,,6,,,78,127
53709,note_off,0,0,0,,2,,,74,127
53747,note_on,38,0,0,,6,,,78,127
53747,note_on,0,0,0,,10,,,69,127
53842,note_off,95,0,0,,10,,,69,127
53842,note_off,0,0,0,,6,,,78,127
53862,note_on,20,0,0,,7,,,79,127
53862,note_on,0,0,0,,11,,,70,127
53957,note_off,95,0,0,,11,,,70,127
53957,note_off,0,0,0,,7,,,79,127
53977,note_on,20,0,0,,0,,,72,127
53977,note_on,0,0,0,,10,,,81,127
54072,note_off,95,0,0,,10,,,81,127
54072,note_off,0,0,0,,0,,,72,127
54092,note_on,20,0,0,,2,,,74,127
54092,note_on,0,0,0,,11,,,82,127
54187,note_off,95,0,0,,11,,,82,127
54187,note_off,0,0,0,,2,,,74,127
54203,note_off,16,0,0,,2,,,50,127
54208,note_on,5,0,0,,2,,,50,127
54208,note_on,0,0,0,,0,,,84,127
54208,note_on,0,0,0,,4,,,76,127
54303,note_off,95,0,0,,4,,,76,127
54303,note_off,0,0,0,,0,,,84,127
54323,note_on,20,0,0,,6,,,78,127
54323,note_on,0,0,0,,10,,,81,127
54418,note_off,95,0,0,,10,,,81,127
54418,note_off,0,0,0,,6,,,78,127
54434,note_off,16,0,0,,2,,,50,127
54439,note_on,5,0,0,,7,,,55,127
54439,note_on,0,0,0,,11,,,82,127
54439,note_on,0,0,0,,7,,,79,127
54631,note_off,192,0,0,,7,,,79,127
54631,note_off,0,0,0,,11,,,82,127
54665,note_off,34,0,0,,7,,,55,127
54670,note_on,5,0,0,,0,,,48,127
54670,note_on,0,0,0,,7,,,67,127
54670,note_on,0,0,0,,4,,,76,127
54765,note_off,95,0,0,,4,,,76,127
54765,note_off,0,0,0,,7,,,67,127
54785,note_on,20,0,0,,5,,,77,127
54785,note_on,0,0,0,,10,,,69,127
54880,note_off,95,0,0,,10,,,69,127
54880,note_off,0,0,0,,5,,,77,127
54900,note_on,20,0,0,,7,,,79,127
54900,note_on,0,0,0,,11,,,70,127
54995,note_off,95,0,0,,11,,,70,127
54995,note_off,0,0,0,,7,,,79,127
55015,note_on,20,0,0,,0,,,72,127
55015,note_on,0,0,0,,10,,,81,127
55110,note_off,95,0,0,,10,,,81,127
55110,note_off,0,0,0,,0,,,72,127
55126,note_off,16,0,0,,0,,,48,127
55131,note_on,5,0,0,,0,,,48,127
55131,note_on,0,0,0,,2,,,74,127
55131,note_on,0,0,0,,11,,,82,127
55226,note_off,95,0,0,,11,,,82,127
55226,note_off,0,0,0,,2,,,74,127
55246,note_on,20,0,0,,7,,,79,127
55246,note_on,0,0,0,,4,,,76,127
55341,note_off,95,0,0,,4,,,76,127
55341,note_off,0,0,0,,7,,,79,127
55357,note_off,16,0,0,,0,,,48,127
55362,note_on,5,0,0,,5,,,53,127
55362,note_on,0,0,0,,10,,,81,127
55362,note_on,0,0,0,,5,,,77,127
55554,note_off,192,0,0,,5,,,77,127
55554,note_off,0,0,0,,10,,,81,127
55588,note_off,34,0,0,,5,,,53,127
55593,note_on,5,0,0,,5,,,41,127
55593,note_on,0,0,0,,0,,,84,127
55593,note_on,0,0,0,,3,,,75,127
55688,note_off,95,0,0,,3,,,75,127
55688,note_off,0,0,0,,0,,,84,127
55708,note_on,20,0,0,,11,,,82,127
55708,note_on,0,0,0,,2,,,74,127
55803,note_off,95,0,0,,2,,,74,127
55803,note_off,0,0,0,,11,,,82,127
55823,note_on,20,0,0,,0,,,72,127
55823,note_on,0,0,0,,10,,,81,127
55918,note_off,95,0,0,,10,,,81,127
55918,note_off,0,0,0,,0,,,72,127
55938,note_on,20,0,0,,7,,,79,127
55938,note_on,0,0,0,,11,,,70,127
56033,note_off,95,0,0,,11,,,70,127
56033,note_off,0,0,0,,7,,,79,127
56049,note_off,16,0,0,,5,,,41,127
56054,note_on,5,0,0,,5,,,41,127
56054,note_on,0,0,0,,5,,,77,127
56054,note_on,0,0,0,,10,,,69,127
56149,note_off,95,0,0,,10,,,69,127
56149,note_off,0,0,0,,5,,,77,127
56169,note_on,20,0,0,,3,,,75,127
56169,note_on,0,0,0,,0,,,72,127
56264,note_off,95,0,0,,0,,,72,127
56264,note_off,0,0,0,,3,,,75,127
56280,note_off,16,0,0,,5,,,41,127
56285,note_on,5,0,0,,11,,,46,127
56285,note_on,0,0,0,,2,,,74,127
56285,note_on,0,0,0,,11,,,70,127
56395,note_off,110,0,0,,11,,,70,127
56400,note_on,5,0,0,,5,,,65,127
56510,note_off,110,0,0,,5,,,65,127
56510,note_off,0,0,0,,11,,,46,127
56515,note_on,5,0,0,,2,,,62,127
56515,note_on,0,0,0,,5,,,65,127
56625,note_off,110,0,0,,5,,,65,127
56630,note_on,5,0,0,,5,,,65,127
56740,note_off,110,0,0,,5,,,65,127
56740,note_off,0,0,0,,2,,,62,127
56745,note_on,5,0,0,,3,,,63,127
56745,note_on,0,0,0,,7,,,67,127
56855,note_off,110,0,0,,7,,,67,127
56860,note_on,5,0,0,,7,,,67,127
56970,note_off,110,0,0,,7,,,67,127
56970,note_off,0,0,0,,3,,,63,127
56975,note_off,5,0,0,,2,,,74,127
56975,note_on,0,0,0,,0,,,60,127
56975,note_on,0,0,0,,3,,,75,127
56975,note_on,0,0,0,,7,,,79,127
57085,note_off,110,0,0,,7,,,79,127
57085,note_off,0,0,0,,3,,,75,127
57090,note_on,5,0,0,,10,,,69,127
57200,note_off,110,0,0,,10,,,69,127
57200,note_off,0,0,0,,0,,,60,127
57205,note_on,5,0,0,,11,,,58,127
57205,note_on,0,0,0,,2,,,74,127
57205,note_on,0,0,0,,5,,,77,127
57315,note_off,110,0,0,,2,,,74,127
57320,note_on,5,0,0,,5,,,65,127
57430,note_off,110,0,0,,5,,,65,127
57435,note_on,5,0,0,,2,,,62,127
57435,note_on,0,0,0,,5,,,65,127
57545,note_off,110,0,0,,5,,,65,127
57550,note_on,5,0,0,,5,,,65,127
57660,note_off,110,0,0,,5,,,65,127
57660,note_off,0,0,0,,2,,,62,127
57665,note_on,5,0,0,,3,,,63,127
57665,note_on,0,0,0,,7,,,67,127
57775,note_off,110,0,0,,7,,,67,127
57780,note_on,5,0,0,,7,,,67,127
57890,note_off,110,0,0,,7,,,67,127
57890,note_off,0,0,0,,3,,,63,127
57895,note_off,5,0,0,,5,,,77,127
57895,note_off,0,0,0,,11,,,58,127
57895,note_on,0,0,0,,0,,,60,127
57895,note_on,0,0,0,,3,,,75,127
57895,note_on,0,0,0,,0,,,72,127
58005,note_off,110,0,0,,0,,,72,127
58005,note_off,0,0,0,,3,,,75,127
58010,note_on,5,0,0,,10,,,69,127
58120,note_off,110,0,0,,10,,,69,127
58120,note_off,0,0,0,,0,,,60,127
58125,note_on,5,0,0,,11,,,58,127
58125,note_on,0,0,0,,2,,,74,127
58125,note_on,0,0,0,,11,,,70,127
58235,note_off,110,0,0,,11,,,70,127
58240,note_on,5,0,0,,5,,,65,127
58350,note_off,110,0,0,,5,,,65,127
58355,note_on,5,0,0,,2,,,62,127
58355,note_on,0,0,0,,5,,,65,127
58465,note_off,110,0,0,,5,,,65,127
58470,note_on,5,0,0,,5,,,65,127
58580,note_off,110,0,0,,5,,,65,127
58580,note_off,0,0,0,,2,,,62,127
58585,note_on,5,0,0,,3,,,63,127
58585,note_on,0,0,0,,7,,,67,127
58695,note_off,110,0,0,,7,,,67,127
58700,note_on,5,0,0,,7,,,67,127
58810,note_off,110,0,0,,7,,,67,127
58810,note_off,0,0,0,,3,,,63,127
58815,note_off,5,0,0,,2,,,74,127
58815,note_off,0,0,0,,11,,,58,127
58815,note_on,0,0,0,,0,,,60,127
58815,note_on,0,0,0,,7,,,79,127
58815,note_on,0,0,0,,3,,,75,127
58925,note_off,110,0,0,,3,,,75,127
58925,note_off,0,0,0,,7,,,79,127
58930,note_on,5,0,0,,10,,,69,127
59040,note_off,110,0,0,,10,,,69,127
59040,note_off,0,0,0,,0,,,60,127
59045,note_on,5,0,0,,11,,,58,127
59045,note_on,0,0,0,,5,,,77,127
59045,note_on,0,0,0,,2,,,74,127
59155,note_off,110,0,0,,2,,,74,127
59160,note_on,5,0,0,,5,,,65,127
59270,note_off,110,0,0,,5,,,65,127
59275,note_on,5,0,0,,2,,,62,127
59275,note_on,0,0,0,,5,,,65,127
59385,note_off,110,0,0,,5,,,65,127
59390,note_on,5,0,0,,5,,,65,127
59500,note_off,110,0,0,,5,,,65,127
59500,note_off,0,0,0,,2,,,62,127
59505,note_on,5,0,0,,3,,,63,127
59505,note_on,0,0,0,,7,,,67,127
59615,note_off,110,0,0,,7,,,67,127
59620,note_on,5,0,0,,7,,,67,127
59730,note_off,110,0,0,,7,,,67,127
59730,note_off,0,0,0,,3,,,63,127
59735,note_off,5,0,0,,5,,,77,127
59735,note_off,0,0,0,,11,,,58,127
59735,note_on,0,0,0,,0,,,60,127
59735,note_on,0,0,0,,3,,,75,127
59735,note_on,0,0,0,,0,,,72,127
59845,note_off,110,0,0,,0,,,72,127
59845,note_off,0,0,0,,3,,,75,127
59850,note_on,5,0,0,,10,,,69,127
59960,note_off,110,0,0,,10,,,69,127
59960,note_off,0,0,0,,0,,,60,127
59965,note_on,5,0,0,,11,,,58,127
59965,note_on,0,0,0,,2,,,74,127
60075,note_off,110,0,0,,2,,,74,127
60080,note_on,5,0,0,,5,,,65,127
60190,note_off,110,0,0,,5,,,65,127
60190,note_off,0,0,0,,11,,,58,127
60195,note_on,5,0,0,,11,,,58,127
60195,note_on,0,0,0,,7,,,67,127
60305,note_off,110,0,0,,7,,,67,127
60310,note_on,5,0,0,,4,,,76,127
60420,note_off,110,0,0,,4,,,76,127
60420,note_off,0,0,0,,11,,,58,127
60425,note_on,5,0,0,,8,,,56,127
60425,note_on,0,0,0,,5,,,77,127
60535,note_off,110,0,0,,5,,,77,127
60540,note_on,5,0,0,,8,,,68,127
60650,note_off,110,0,0,,8,,,68,127
60650,note_off,0,0,0,,8,,,56,127
60655,note_on,5,0,0,,7,,,55,127
60655,note_on,0,0,0,,11,,,70,127
60765,note_off,110,0,0,,11,,,70,127
60770,note_on,5,0,0,,7,,,79,127
60880,note_off,110,0,0,,7,,,79,127
60880,note_off,0,0,0,,7,,,55,127
60885,note_on,5,0,0,,5,,,53,127
60885,note_on,0,0,0,,8,,,80,127
61000,note_on,115,0,0,,0,,,72,127
61110,note_off,110,0,0,,0,,,72,127
61110,note_off,0,0,0,,5,,,53,127
61115,note_on,5,0,0,,8,,,68,127
61115,note_on,0,0,0,,0,,,72,127
61225,note_off,110,0,0,,0,,,72,127
61230,note_on,5,0,0,,0,,,72,127
61340,note_off,110,0,0,,0,,,72,127
61340,note_off,0,0,0,,8,,,68,127
61345,note_on,5,0,0,,11,,,70,127
61345,note_on,0,0,0,,1,,,73,127
61455,note_off,110,0,0,,1,,,73,127
61460,note_on,5,0,0,,1,,,73,127
61570,note_off,110,0,0,,1,,,73,127
61570,note_off,0,0,0,,11,,,70,127
61575,note_off,5,0,0,,8,,,80,127
61575,note_on,0,0,0,,7,,,67,127
61575,note_on,0,0,0,,11,,,82,127
61575,note_on,0,0,0,,7,,,79,127
61685,note_off,110,0,0,,7,,,79,127
61685,note_off,0,0,0,,11,,,82,127
61690,note_on,5,0,0,,4,,,76,127
61800,note_off,110,0,0,,4,,,76,127
61800,note_off,0,0,0,,7,,,67,127
61805,note_on,5,0,0,,5,,,65,127
61805,note_on,0,0,0,,8,,,80,127
61805,note_on,0,0,0,,5,,,77,127
61915,note_off,110,0,0,,5,,,77,127
61920,note_on,5,0,0,,0,,,72,127
62030,note_off,110,0,0,,0,,,72,127
62035,note_on,5,0,0,,8,,,68,127
62035,note_on,0,0,0,,0,,,72,127
62145,note_off,110,0,0,,0,,,72,127
62150,note_on,5,0,0,,0,,,72,127
62260,note_off,110,0,0,,0,,,72,127
62260,note_off,0,0,0,,8,,,68,127
62265,note_on,5,0,0,,11,,,70,127
62265,note_on,0,0,0,,1,,,73,127
62375,note_off,110,0,0,,1,,,73,127
62380,note_on,5,0,0,,1,,,73,127
62490,note_off,110,0,0,,1,,,73,127
62490,note_off,0,0,0,,11,,,70,127
62495,note_off,5,0,0,,8,,,80,127
62495,note_off,0,0,0,,5,,,65,127
62495,note_on,0,0,0,,7,,,67,127
62495,note_on,0,0,0,,11,,,82,127
62495,note_on,0,0,0,,7,,,79,127
62605,note_off,110,0,0,,7,,,79,127
62605,note_off,0,0,0,,11,,,82,127
62610,note_on,5,0,0,,4,,,76,127
62720,note_off,110,0,0,,4,,,76,127
62720,note_off,0,0,0,,7,,,67,127
62725,note_on,5,0,0,,5,,,65,127
62725,note_on,0,0,0,,8,,,80,127
62840,note_on,115,0,0,,0,,,72,127
62950,note_off,110,0,0,,0,,,72,127
62955,note_on,5,0,0,,8,,,68,127
62955,note_on,0,0,0,,0,,,72,127
63065,note_off,110,0,0,,0,,,72,127
63070,note_on,5,0,0,,0,,,72,127
63180,note_off,110,0,0,,0,,,72,127
63180,note_off,0,0,0,,8,,,68,127
63185,note_on,5,0,0,,11,,,70,127
63185,note_on,0,0,0,,1,,,73,127
63295,note_off,110,0,0,,1,,,73,127
63300,note_on,5,0,0,,1,,,73,127
63410,note_off,110,0,0,,1,,,73,127
63410,note_off,0,0,0,,11,,,70,127
63415,note_off,5,0,0,,8,,,80,127
63415,note_off,0,0,0,,5,,,65,127
63415,note_on,0,0,0,,7,,,67,127
63415,note_on,0,0,0,,7,,,79,127
63415,note_on,0,0,0,,11,,,82,127
63525,note_off,110,0,0,,11,,,82,127
63525,note_off,0,0,0,,7,,,79,127
63530,note_on,5,0,0,,4,,,76,127
63640,note_off,110,0,0,,4,,,76,127
63640,note_off,0,0,0,,7,,,67,127
63645,note_on,5,0,0,,5,,,65,127
63645,note_on,0,0,0,,0,,,84,127
63755,note_off,110,0,0,,0,,,84,127
63760,note_on,5,0,0,,11,,,82,127
63870,note_off,110,0,0,,11,,,82,127
63870,note_off,0,0,0,,5,,,65,127
63875,note_on,5,0,0,,8,,,56,127
63875,note_on,0,0,0,,11,,,82,127
63985,note_off,110,0,0,,11,,,82,127
63990,note_on,5,0,0,,8,,,80,127
64100,note_off,110,0,0,,8,,,80,127
64100,note_off,0,0,0,,8,,,56,127
64105,note_on,5,0,0,,11,,,58,127
64105,note_on,0,0,0,,8,,,80,127
64215,note_off,110,0,0,,8,,,80,127
64220,note_on,5,0,0,,7,,,79,127
64330,note_off,110,0,0,,7,,,79,127
64330,note_off,0,0,0,,11,,,58,127
64335,note_on,5,0,0,,1,,,61,127
64335,note_on,0,0,0,,7,,,79,127
64445,note_off,110,0,0,,7,,,79,127
64450,note_on,5,0,0,,5,,,77,127
64560,note_off,110,0,0,,5,,,77,127
64560,note_off,0,0,0,,1,,,61,127
64565,note_on,5,0,0,,0,,,60,127
64565,note_on,0,0,0,,7,,,79,127
64675,note_off,110,0,0,,7,,,79,127
64680,note_on,5,0,0,,4,,,76,127
64790,note_off,110,0,0,,4,,,76,127
64795,note_on,5,0,0,,7,,,67,127
64795,note_on,0,0,0,,4,,,76,127
64905,note_off,110,0,0,,4,,,76,127
64910,note_on,5,0,0,,4,,,76,127
65020,note_off,110,0,0,,4,,,76,127
65020,note_off,0,0,0,,7,,,67,127
65025,note_on,5,0,0,,10,,,69,127
65025,note_on,0,0,0,,5,,,77,127
65135,note_off,110,0,0,,5,,,77,127
65140,note_on,5,0,0,,2,,,74,127
65250,note_off,110,0,0,,2,,,74,127
65250,note_off,0,0,0,,10,,,69,127
65255,note_on,5,0,0,,12,,,71,127
65255,note_on,0,0,0,,2,,,74,127
65365,note_off,110,0,0,,2,,,74,127
65370,note_on,5,0,0,,2,,,74,127
65480,note_off,110,0,0,,2,,,74,127
65480,note_off,0,0,0,,12,,,71,127
65485,note_off,5,0,0,,0,,,60,127
65485,note_on,0,0,0,,0,,,60,127
65485,note_on,0,0,0,,0,,,84,127
65595,note_off,110,0,0,,0,,,84,127
65600,note_on,5,0,0,,4,,,76,127
65710,note_off,110,0,0,,4,,,76,127
65715,note_on,5,0,0,,7,,,67,127
65715,note_on,0,0,0,,4,,,76,127
65825,note_off,110,0,0,,4,,,76,127
65830,note_on,5,0,0,,4,,,76,127
65940,note_off,110,0,0,,4,,,76,127
65940,note_off,0,0,0,,7,,,67,127
65945,note_on,5,0,0,,10,,,69,127
65945,note_on,0,0,0,,5,,,77,127
66055,note_off,110,0,0,,5,,,77,127
66060,note_on,5,0,0,,2,,,74,127
66170,note_off,110,0,0,,2,,,74,127
66170,note_off,0,0,0,,10,,,69,127
66175,note_on,5,0,0,,12,,,71,127
66175,note_on,0,0,0,,2,,,74,127
66285,note_off,110,0,0,,2,,,74,127
66290,note_on,5,0,0,,2,,,74,127
66400,note_off,110,0,0,,2,,,74,127
66400,note_off,0,0,0,,12,,,71,127
66405,note_off,5,0,0,,0,,,60,127
66405,note_on,0,0,0,,0,,,60,127
66405,note_on,0,0,0,,0,,,84,127
66515,note_off,110,0,0,,0,,,84,127
66520,note_on,5,0,0,,4,,,76,127
66630,note_off,110,0,0,,4,,,76,127
66635,note_on,5,0,0,,7,,,67,127
66635,note_on,0,0,0,,4,,,76,127
66745,note_off,110,0,0,,4,,,76,127
66750,note_on,5,0,0,,4,,,76,127
66860,note_off,110,0,0,,4,,,76,127
66860,note_off,0,0,0,,7,,,67,127
66865,note_on,5,0,0,,10,,,69,127
66865,note_on,0,0,0,,5,,,77,127
66975,note_off,110,0,0,,5,,,77,127
66980,note_on,5,0,0,,2,,,74,127
67090,note_off,110,0,0,,2,,,74,127
67090,note_off,0,0,0,,10,,,69,127
67095,note_on,5,0,0,,12,,,71,127
67095,note_on,0,0,0,,2,,,74,127
67205,note_off,110,0,0,,2,,,74,127
67210,note_on,5,0,0,,2,,,74,127
67320,note_off,110,0,0,,2,,,74,127
67320,note_off,0,0,0,,12,,,71,127
67325,note_off,5,0,0,,0,,,60,127
67325,note_on,0,0,0,,0,,,60,127
67325,note_on,0,0,0,,0,,,84,127
67325,note_on,0,0,0,,4,,,76,127
67551,note_off,226,0,0,,0,,,60,127
67556,note_off,5,0,0,,4,,,76,127
67556,note_off,0,0,0,,0,,,84,127
67556,note_on,0,0,0,,0,,,72,127
67666,note_off,110,0,0,,0,,,72,127
67671,note_on,5,0,0,,0,,,60,127
67781,note_off,110,0,0,,0,,,60,127
67786,note_on,5,0,0,,2,,,74,127
67896,note_off,110,0,0,,2,,,74,127
67901,note_on,5,0,0,,2,,,62,127
68011,note_off,110,0,0,,2,,,62,127
68016,note_on,5,0,0,,11,,,70,127
68126,note_off,110,0,0,,11,,,70,127
68131,note_on,5,0,0,,11,,,58,127
68241,note_off,110,0,0,,11,,,58,127
68246,note_on,5,0,0,,7,,,67,127
68356,note_off,110,0,0,,7,,,67,127
68361,note_on,5,0,0,,7,,,55,127
68471,note_off,110,0,0,,7,,,55,127
68476,note_on,5,0,0,,4,,,64,127
68586,note_off,110,0,0,,4,,,64,127
68591,note_on,5,0,0,,4,,,52,127
68701,note_off,110,0,0,,4,,,52,127
68706,note_on,5,0,0,,5,,,65,127
68816,note_off,110,0,0,,5,,,65,127
68821,note_on,5,0,0,,5,,,53,127
68931,note_off,110,0,0,,5,,,53,127
68936,note_on,5,0,0,,2,,,62,127
69046,note_off,110,0,0,,2,,,62,127
69051,note_on,5,0,0,,2,,,50,127
69161,note_off,110,0,0,,2,,,50,127
69166,note_on,5,0,0,,0,,,48,127
69166,note_on,0,0,0,,0,,,84,127
69281,note_on,115,0,0,,0,,,72,127
69391,note_off,110,0,0,,0,,,72,127
69391,note_off,0,0,0,,0,,,48,127
69396,note_on,5,0,0,,10,,,69,127
69396,note_on,0,0,0,,0,,,72,127
69506,note_off,110,0,0,,0,,,72,127
69511,note_on,5,0,0,,0,,,72,127
69621,note_off,110,0,0,,0,,,72,127
69621,note_off,0,0,0,,10,,,69,127
69626,note_on,5,0,0,,11,,,70,127
69626,note_on,0,0,0,,2,,,74,127
69736,note_off,110,0,0,,2,,,74,127
69741,note_on,5,0,0,,2,,,74,127
69851,note_off,110,0,0,,2,,,74,127
69851,note_off,0,0,0,,11,,,70,127
69856,note_off,5,0,0,,0,,,84,127
69856,note_on,0,0,0,,7,,,67,127
69856,note_on,0,0,0,,2,,,86,127
69856,note_on,0,0,0,,11,,,82,127
69966,note_off,110,0,0,,11,,,82,127
69966,note_off,0,0,0,,2,,,86,127
69971,note_on,5,0,0,,7,,,79,127
70081,note_off,110,0,0,,7,,,79,127
70081,note_off,0,0,0,,7,,,67,127
70086,note_on,5,0,0,,0,,,60,127
70086,note_on,0,0,0,,5,,,77,127
70086,note_on,0,0,0,,0,,,84,127
70196,note_off,110,0,0,,5,,,77,127
70201,note_on,5,0,0,,0,,,72,127
70311,note_off,110,0,0,,0,,,72,127
70316,note_on,5,0,0,,10,,,69,127
70316,note_on,0,0,0,,0,,,72,127
70426,note_off,110,0,0,,0,,,72,127
70431,note_on,5,0,0,,0,,,72,127
70541,note_off,110,0,0,,0,,,72,127
70541,note_off,0,0,0,,10,,,69,127
70546,note_on,5,0,0,,11,,,70,127
70546,note_on,0,0,0,,2,,,74,127
70656,note_off,110,0,0,,2,,,74,127
70661,note_on,5,0,0,,2,,,74,127
70771,note_off,110,0,0,,2,,,74,127
70771,note_off,0,0,0,,11,,,70,127
70776,note_off,5,0,0,,0,,,84,127
70776,note_on,0,0,0,,7,,,67,127
70776,note_on,0,0,0,,11,,,82,127
70776,note_on,0,0,0,,7,,,79,127
70886,note_off,110,0,0,,7,,,79,127
70886,note_off,0,0,0,,11,,,82,127
70891,note_on,5,0,0,,4,,,76,127
71001,note_off,110,0,0,,4,,,76,127
71001,note_off,0,0,0,,7,,,67,127
71006,note_off,5,0,0,,0,,,60,127
71006,note_on,0,0,0,,0,,,60,127
71006,note_on,0,0,0,,5,,,77,127
71006,note_on,0,0,0,,0,,,84,127
71116,note_off,110,0,0,,5,,,77,127
71121,note_on,5,0,0,,0,,,72,127
71231,note_off,110,0,0,,0,,,72,127
71236,note_on,5,0,0,,10,,,69,127
71236,note_on,0,0,0,,0,,,72,127
71346,note_off,110,0,0,,0,,,72,127
71351,note_on,5,0,0,,0,,,72,127
71461,note_off,110,0,0,,0,,,72,127
71461,note_off,0,0,0,,10,,,69,127
71466,note_on,5,0,0,,11,,,70,127
71466,note_on,0,0,0,,2,,,74,127
71576,note_off,110,0,0,,2,,,74,127
71581,note_on,5,0,0,,2,,,74,127
71691,note_off,110,0,0,,2,,,74,127
71691,note_off,0,0,0,,11,,,70,127
71696,note_off,5,0,0,,0,,,84,127
71696,note_on,0,0,0,,7,,,67,127
71696,note_on,0,0,0,,11,,,82,127
71696,note_on,0,0,0,,2,,,86,127
71806,note_off,110,0,0,,2,,,86,127
71806,note_off,0,0,0,,11,,,82,127
71811,note_on,5,0,0,,4,,,76,127
71921,note_off,110,0,0,,4,,,76,127
71921,note_off,0,0,0,,7,,,67,127
71926,note_off,5,0,0,,0,,,60,127
71926,note_on,0,0,0,,0,,,60,127
71926,note_on,0,0,0,,0,,,84,127
71926,note_on,0,0,0,,5,,,77,127
72036,note_off,110,0,0,,5,,,77,127
72041,note_on,5,0,0,,0,,,72,127
72151,note_off,110,0,0,,0,,,72,127
72156,note_on,5,0,0,,10,,,69,127
72156,note_on,0,0,0,,0,,,72,127
72266,note_off,110,0,0,,0,,,72,127
72271,note_on,5,0,0,,0,,,72,127
72381,note_off,110,0,0,,0,,,72,127
72381,note_off,0,0,0,,10,,,69,127
72386,note_on,5,0,0,,11,,,70,127
72386,note_on,0,0,0,,2,,,74,127
72496,note_off,110,0,0,,2,,,74,127
72501,note_on,5,0,0,,2,,,74,127
72611,note_off,110,0,0,,2,,,74,127
72611,note_off,0,0,0,,11,,,70,127
72616,note_off,5,0,0,,0,,,84,127
72616,note_on,0,0,0,,7,,,67,127
72616,note_on,0,0,0,,11,,,82,127
72616,note_on,0,0,0,,7,,,79,127
72726,note_off,110,0,0,,7,,,79,127
72726,note_off,0,0,0,,11,,,82,127
72731,note_on,5,0,0,,4,,,76,127
72841,note_off,110,0,0,,4,,,76,127
72841,note_off,0,0,0,,7,,,67,127
72846,note_off,5,0,0,,0,,,60,127
72846,note_on,0,0,0,,5,,,65,127
72846,note_on,0,0,0,,10,,,81,127
72846,note_on,0,0,0,,0,,,84,127
73072,note_off,226,0,0,,5,,,65,127
73077,note_off,5,0,0,,0,,,84,127
73077,note_off,0,0,0,,10,,,81,127
73077,note_on,0,0,0,,0,,,72,127
73187,note_off,110,0,0,,0,,,72,127
73192,note_on,5,0,0,,0,,,60,127
73302,note_off,110,0,0,,0,,,60,127
73307,note_on,5,0,0,,2,,,74,127
73417,note_off,110,0,0,,2,,,74,127
73422,note_on,5,0,0,,2,,,62,127
73532,note_off,110,0,0,,2,,,62,127
73537,note_on,5,0,0,,11,,,70,127
73647,note_off,110,0,0,,11,,,70,127
73652,note_on,5,0,0,,11,,,58,127
73762,note_off,110,0,0,,11,,,58,127
73767,note_on,5,0,0,,7,,,67,127
73877,note_off,110,0,0,,7,,,67,127
73882,note_on,5,0,0,,7,,,55,127
73992,note_off,110,0,0,,7,,,55,127
73997,note_on,5,0,0,,4,,,64,127
74107,note_off,110,0,0,,4,,,64,127
74112,note_on,5,0,0,,4,,,52,127
74222,note_off,110,0,0,,4,,,52,127
74227,note_on,5,0,0,,2,,,62,127
74337,note_off,110,0,0,,2,,,62,127
74342,note_on,5,0,0,,2,,,50,127
74452,note_off,110,0,0,,2,,,50,127
74457,note_on,5,0,0,,11,,,58,127
74567,note_off,110,0,0,,11,,,58,127
74572,note_on,5,0,0,,11,,,46,127
74682,note_off,110,0,0,,11,,,46,127
74687,note_on,5,0,0,,0,,,60,127
74797,note_off,110,0,0,,0,,,60,127
74802,note_on,5,0,0,,0,,,48,127
74912,note_off,110,0,0,,0,,,48,127
74917,note_on,5,0,0,,10,,,57,127
75027,note_off,110,0,0,,10,,,57,127
75032,note_on,5,0,0,,10,,,45,127
75142,note_off,110,0,0,,10,,,45,127
75147,note_on,5,0,0,,5,,,53,127
75257,note_off,110,0,0,,5,,,53,127
75262,note_on,5,0,0,,5,,,41,127
75372,note_off,110,0,0,,5,,,41,127
75377,note_on,5,0,0,,2,,,50,127
75487,note_off,110,0,0,,2,,,50,127
75492,note_on,5,0,0,,2,,,38,127
75602,note_off,110,0,0,,2,,,38,127
75607,note_on,5,0,0,,0,,,36,127
75607,note_on,0,0,0,,0,,,84,127
75722,note_on,115,0,0,,0,,,72,127
75832,note_off,110,0,0,,0,,,72,127
75832,note_off,0,0,0,,0,,,36,127
75837,note_on,5,0,0,,10,,,69,127
75837,note_on,0,0,0,,0,,,72,127
75947,note_off,110,0,0,,0,,,72,127
75952,note_on,5,0,0,,0,,,72,127
76062,note_off,110,0,0,,0,,,72,127
76062,note_off,0,0,0,,10,,,69,127
76067,note_on,5,0,0,,11,,,70,127
76067,note_on,0,0,0,,2,,,74,127
76177,note_off,110,0,0,,2,,,74,127
76182,note_on,5,0,0,,2,,,74,127
76292,note_off,110,0,0,,2,,,74,127
76292,note_off,0,0,0,,11,,,70,127
76297,note_off,5,0,0,,0,,,84,127
76297,note_on,0,0,0,,7,,,67,127
76297,note_on,0,0,0,,11,,,82,127
76297,note_on,0,0,0,,2,,,86,127
76407,note_off,110,0,0,,2,,,86,127
76407,note_off,0,0,0,,11,,,82,127
76412,note_on,5,0,0,,7,,,79,127
76522,note_off,110,0,0,,7,,,79,127
76522,note_off,0,0,0,,7,,,67,127
76527,note_on,5,0,0,,0,,,60,127
76527,note_on,0,0,0,,0,,,84,127
76527,note_on,0,0,0,,5,,,77,127
76637,note_off,110,0,0,,5,,,77,127
76642,note_on,5,0,0,,0,,,72,127
76752,note_off,110,0,0,,0,,,72,127
76757,note_on,5,0,0,,10,,,69,127
76757,note_on,0,0,0,,0,,,72,127
76867,note_off,110,0,0,,0,,,72,127
76872,note_on,5,0,0,,0,,,72,127
76982,note_off,110,0,0,,0,,,72,127
76982,note_off,0,0,0,,10,,,69,127
76987,note_on,5,0,0,,11,,,70,127
76987,note_on,0,0,0,,2,,,74,127
77097,note_off,110,0,0,,2,,,74,127
77102,note_on,5,0,0,,2,,,74,127
77212,note_off,110,0,0,,2,,,74,127
77212,note_off,0,0,0,,11,,,70,127
77217,note_off,5,0,0,,0,,,84,127
77217,note_off,0,0,0,,0,,,60,127
77217,note_on,0,0,0,,7,,,67,127
77217,note_on,0,0,0,,7,,,79,127
77217,note_on,0,0,0,,11,,,82,127
77327,note_off,110,0,0,,11,,,82,127
77327,note_off,0,0,0,,7,,,79,127
77332,note_on,5,0,0,,4,,,76,127
77442,note_off,110,0,0,,4,,,76,127
77442,note_off,0,0,0,,7,,,67,127
77447,note_on,5,0,0,,0,,,60,127
77447,note_on,0,0,0,,5,,,77,127
77447,note_on,0,0,0,,0,,,84,127
77557,note_off,110,0,0,,5,,,77,127
77562,note_on,5,0,0,,0,,,72,127
77672,note_off,110,0,0,,0,,,72,127
77677,note_on,5,0,0,,10,,,69,127
77677,note_on,0,0,0,,0,,,72,127
77787,note_off,110,0,0,,0,,,72,127
77792,note_on,5,0,0,,0,,,72,127
77902,note_off,110,0,0,,0,,,72,127
77902,note_off,0,0,0,,10,,,69,127
77907,note_on,5,0,0,,11,,,70,127
77907,note_on,0,0,0,,2,,,74,127
78017,note_off,110,0,0,,2,,,74,127
78022,note_on,5,0,0,,2,,,74,127
78132,note_off,110,0,0,,2,,,74,127
78132,note_off,0,0,0,,11,,,70,127
78137,note_off,5,0,0,,0,,,84,127
78137,note_off,0,0,0,,0,,,60,127
78137,note_on,0,0,0,,7,,,67,127
78137,note_on,0,0,0,,11,,,82,127
78137,note_on,0,0,0,,2,,,86,127
78247,note_off,110,0,0,,2,,,86,127
78247,note_off,0,0,0,,11,,,82,127
78252,note_on,5,0,0,,4,,,76,127
78362,note_off,110,0,0,,4,,,76,127
78362,note_off,0,0,0,,7,,,67,127
78367,note_on,5,0,0,,0,,,60,127
78367,note_on,0,0,0,,5,,,77,127
78367,note_on,0,0,0,,0,,,84,127
78477,note_off,110,0,0,,5,,,77,127
78482,note_on,5,0,0,,0,,,72,127
78592,note_off,110,0,0,,0,,,72,127
78597,note_on,5,0,0,,0,,,72,127
78707,note_off,110,0,0,,0,,,72,127
78712,note_on,5,0,0,,0,,,72,127
78822,note_off,110,0,0,,0,,,72,127
78827,note_on,5,0,0,,2,,,74,127
78937,note_off,110,0,0,,2,,,74,127
78942,note_on,5,0,0,,2,,,74,127
79052,note_off,110,0,0,,2,,,74,127
79057,note_off,5,0,0,,0,,,84,127
79057,note_on,0,0,0,,7,,,79,127
79057,note_on,0,0,0,,11,,,82,127
79167,note_off,110,0,0,,11,,,82,127
79167,note_off,0,0,0,,7,,,79,127
79172,note_on,5,0,0,,4,,,76,127
79282,note_off,110,0,0,,4,,,76,127
79282,note_off,0,0,0,,0,,,60,127
79287,note_on,5,0,0,,5,,,53,127
79287,note_on,0,0,0,,5,,,77,127
79287,note_on,0,0,0,,10,,,81,127
79397,note_off,110,0,0,,10,,,81,127
79397,note_off,0,0,0,,5,,,77,127
79402,note_on,5,0,0,,10,,,81,127
79512,note_off,110,0,0,,10,,,81,127
79517,note_on,5,0,0,,0,,,84,127
79627,note_off,110,0,0,,0,,,84,127
79632,note_on,5,0,0,,0,,,84,127
79742,note_off,110,0,0,,0,,,84,127
79747,note_on,5,0,0,,10,,,81,127
79857,note_off,110,0,0,,10,,,81,127
79862,note_on,5,0,0,,10,,,81,127
79972,note_off,110,0,0,,10,,,81,127
79972,note_off,0,0,0,,5,,,53,127
79977,note_on,5,0,0,,10,,,57,127
79977,note_on,0,0,0,,5,,,77,127
80087,note_off,110,0,0,,5,,,77,127
80092,note_on,5,0,0,,5,,,77,127
80202,note_off,110,0,0,,5,,,77,127
80202,note_off,0,0,0,,10,,,57,127
80207,note_on,5,0,0,,11,,,58,127
80207,note_on,0,0,0,,2,,,74,127
80317,note_off,110,0,0,,2,,,74,127
80322,note_on,5,0,0,,2,,,74,127
80432,note_off,110,0,0,,2,,,74,127
80432,note_off,0,0,0,,11,,,58,127
80437,note_on,5,0,0,,11,,,46,127
80437,note_on,0,0,0,,11,,,70,127
80547,note_off,110,0,0,,11,,,70,127
80552,note_on,5,0,0,,11,,,70,127
80662,note_off,110,0,0,,11,,,70,127
80662,note_off,0,0,0,,11,,,46,127
80667,note_on,5,0,0,,0,,,48,127
80667,note_on,0,0,0,,10,,,69,127
80777,note_off,110,0,0,,10,,,69,127
80782,note_on,5,0,0,,5,,,77,127
80892,note_off,110,0,0,,5,,,77,127
80892,note_off,0,0,0,,0,,,48,127
80897,note_on,5,0,0,,0,,,36,127
80897,note_on,0,0,0,,7,,,67,127
81007,note_off,110,0,0,,7,,,67,127
81012,note_on,5,0,0,,4,,,76,127
81122,note_off,110,0,0,,4,,,76,127
81122,note_off,0,0,0,,0,,,36,127
81127,note_on,5,0,0,,5,,,41,127
81127,note_on,0,0,0,,5,,,77,127
81237,note_off,110,0,0,,5,,,41,127
81242,note_on,5,0,0,,5,,,53,127
81352,note_off,110,0,0,,5,,,53,127
81357,note_on,5,0,0,,5,,,53,127
81467,note_off,110,0,0,,5,,,53,127
81472,note_on,5,0,0,,5,,,53,127
81582,note_off,110,0,0,,5,,,53,127
81587,note_off,5,0,0,,5,,,77,127
81587,note_on,0,0,0,,10,,,57,127
81697,note_off,110,0,0,,10,,,57,127
81702,note_on,5,0,0,,10,,,57,127
81812,note_off,110,0,0,,10,,,57,127
81817,note_on,5,0,0,,0,,,60,127
81817,note_on,0,0,0,,0,,,72,127
81817,note_on,0,0,0,,10,,,81,127
81927,note_off,110,0,0,,0,,,60,127
81932,note_on,5,0,0,,0,,,60,127
82042,note_off,110,0,0,,0,,,60,127
82042,note_off,0,0,0,,10,,,81,127
82042,note_off,0,0,0,,0,,,72,127
82047,note_on,5,0,0,,5,,,65,127
82047,note_on,0,0,0,,10,,,69,127
82047,note_on,0,0,0,,5,,,77,127
82157,note_off,110,0,0,,5,,,65,127
82162,note_on,5,0,0,,5,,,53,127
82272,note_off,110,0,0,,5,,,53,127
82277,note_on,5,0,0,,5,,,53,127
82387,note_off,110,0,0,,5,,,53,127
82392,note_on,5,0,0,,5,,,53,127
82502,note_off,110,0,0,,5,,,53,127
82507,note_off,5,0,0,,5,,,77,127
82507,note_off,0,0,0,,10,,,69,127
82507,note_on,0,0,0,,10,,,57,127
82617,note_off,110,0,0,,10,,,57,127
82622,note_on,5,0,0,,10,,,57,127
82732,note_off,110,0,0,,10,,,57,127
82737,note_on,5,0,0,,0,,,60,127
82737,note_on,0,0,0,,0,,,72,127
82737,note_on,0,0,0,,10,,,81,127
82847,note_off,110,0,0,,0,,,60,127
82852,note_on,5,0,0,,0,,,60,127
82962,note_off,110,0,0,,0,,,60,127
82962,note_off,0,0,0,,10,,,81,127
82962,note_off,0,0,0,,0,,,72,127
82967,note_on,5,0,0,,5,,,65,127
82967,note_on,0,0,0,,10,,,69,127
82967,note_on,0,0,0,,5,,,77,127
83077,note_off,110,0,0,,5,,,65,127
83082,note_on,5,0,0,,5,,,53,127
83192,note_off,110,0,0,,5,,,53,127
83197,note_on,5,0,0,,5,,,53,127
83307,note_off,110,0,0,,5,,,53,127
83312,note_on,5,0,0,,5,,,53,127
83422,note_off,110,0,0,,5,,,53,127
83427,note_off,5,0,0,,5,,,77,127
83427,note_off,0,0,0,,10,,,69,127
83427,note_on,0,0,0,,10,,,57,127
83537,note_off,110,0,0,,10,,,57,127
83542,note_on,5,0,0,,10,,,57,127
83652,note_off,110,0,0,,10,,,57,127
83657,note_on,5,0,0,,0,,,60,127
83657,note_on,0,0,0,,0,,,72,127
83657,note_on,0,0,0,,10,,,81,127
83767,note_off,110,0,0,,0,,,60,127
83772,note_on,5,0,0,,0,,,60,127
83882,note_off,110,0,0,,0,,,60,127
83882,note_off,0,0,0,,10,,,81,127
83882,note_off,0,0,0,,0,,,72,127
83887,note_on,5,0,0,,5,,,65,127
83887,note_on,0,0,0,,10,,,69,127
83887,note_on,0,0,0,,5,,,77,127
83997,note_off,110,0,0,,5,,,77,127
83997,note_off,0,0,0,,10,,,69,127
84002,note_on,5,0,0,,0,,,72,127
84112,note_off,110,0,0,,0,,,72,127
84112,note_off,0,0,0,,5,,,65,127
84117,note_on,5,0,0,,11,,,58,127
84117,note_on,0,0,0,,2,,,74,127
84227,note_off,110,0,0,,2,,,74,127
84232,note_on,5,0,0,,11,,,70,127
84342,note_off,110,0,0,,11,,,70,127
84342,note_off,0,0,0,,11,,,58,127
84347,note_on,5,0,0,,0,,,60,127
84347,note_on,0,0,0,,10,,,69,127
84457,note_off,110,0,0,,10,,,69,127
84462,note_on,5,0,0,,5,,,77,127
84572,note_off,110,0,0,,5,,,77,127
84572,note_off,0,0,0,,0,,,60,127
84577,note_on,5,0,0,,0,,,48,127
84577,note_on,0,0,0,,7,,,67,127
84687,note_off,110,0,0,,7,,,67,127
84692,note_on,5,0,0,,4,,,76,127
84802,note_off,110,0,0,,4,,,76,127
84802,note_off,0,0,0,,0,,,48,127
84807,note_on,5,0,0,,5,,,41,127
84807,note_on,0,0,0,,5,,,77,127
84917,note_off,110,0,0,,5,,,41,127
84922,note_on,5,0,0,,5,,,41,127
85032,note_off,110,0,0,,5,,,41,127
85037,note_on,5,0,0,,5,,,41,127
85147,note_off,110,0,0,,5,,,41,127
85152,note_on,5,0,0,,5,,,41,127
85262,note_off,110,0,0,,5,,,41,127
85267,note_off,5,0,0,,5,,,77,127
85267,note_on,0,0,0,,10,,,45,127
85377,note_off,110,0,0,,10,,,45,127
85382,note_on,5,0,0,,10,,,45,127
85492,note_off,110,0,0,,10,,,45,127
85497,note_on,5,0,0,,0,,,48,127
85497,note_on,0,0,0,,10,,,69,127
85497,note_on,0,0,0,,0,,,72,127
85607,note_off,110,0,0,,0,,,48,127
85612,note_on,5,0,0,,0,,,48,127
85722,note_off,110,0,0,,0,,,48,127
85722,note_off,0,0,0,,0,,,72,127
85722,note_off,0,0,0,,10,,,69,127
85727,note_on,5,0,0,,5,,,53,127
85727,note_on,0,0,0,,10,,,69,127
85727,note_on,0,0,0,,5,,,65,127
85837,note_off,110,0,0,,5,,,53,127
85842,note_on,5,0,0,,5,,,41,127
85952,note_off,110,0,0,,5,,,41,127
85957,note_on,5,0,0,,5,,,41,127
86067,note_off,110,0,0,,5,,,41,127
86072,note_on,5,0,0,,5,,,41,127
86182,note_off,110,0,0,,5,,,41,127
86187,note_off,5,0,0,,5,,,65,127
86187,note_off,0,0,0,,10,,,69,127
86187,note_on,0,0,0,,10,,,45,127
86297,note_off,110,0,0,,10,,,45,127
86302,note_on,5,0,0,,10,,,45,127
86412,note_off,110,0,0,,10,,,45,127
86417,note_on,5,0,0,,0,,,48,127
86417,note_on,0,0,0,,10,,,69,127
86417,note_on,0,0,0,,0,,,72,127
86527,note_off,110,0,0,,0,,,48,127
86532,note_on,5,0,0,,0,,,48,127
86642,note_off,110,0,0,,0,,,48,127
86642,note_off,0,0,0,,0,,,72,127
86642,note_off,0,0,0,,10,,,69,127
86647,note_on,5,0,0,,5,,,53,127
86647,note_on,0,0,0,,10,,,69,127
86647,note_on,0,0,0,,5,,,65,127
86757,note_off,110,0,0,,5,,,53,127
86762,note_on,5,0,0,,5,,,41,127
86872,note_off,110,0,0,,5,,,41,127
86877,note_on,5,0,0,,5,,,41,127
86987,note_off,110,0,0,,5,,,41,127
86992,note_on,5,0,0,,5,,,41,127
87102,note_off,110,0,0,,5,,,41,127
87107,note_off,5,0,0,,5,,,65,127
87107,note_off,0,0,0,,10,,,69,127
87107,note_on,0,0,0,,10,,,45,127
87217,note_off,110,0,0,,10,,,45,127
87222,note_on,5,0,0,,10,,,45,127
87332,note_off,110,0,0,,10,,,45,127
87337,note_on,5,0,0,,0,,,48,127
87337,note_on,0,0,0,,0,,,72,127
87337,note_on,0,0,0,,0,,,84,127
87447,note_off,110,0,0,,0,,,48,127
87452,note_on,5,0,0,,0,,,48,127
87562,note_off,110,0,0,,0,,,48,127
87562,note_off,0,0,0,,0,,,84,127
87562,note_off,0,0,0,,0,,,72,127
87567,note_on,5,0,0,,5,,,53,127
87567,note_on,0,0,0,,5,,,77,127
87567,note_on,0,0,0,,10,,,81,127
87677,note_off,110,0,0,,10,,,81,127
87677,note_off,0,0,0,,5,,,77,127
87682,note_on,5,0,0,,11,,,82,127
87792,note_off,110,0,0,,11,,,82,127
87792,note_off,0,0,0,,5,,,53,127
87797,note_on,5,0,0,,11,,,58,127
87797,note_on,0,0,0,,11,,,46,127
87797,note_on,0,0,0,,0,,,84,127
87907,note_off,110,0,0,,0,,,84,127
87912,note_on,5,0,0,,5,,,77,127
88022,note_off,110,0,0,,5,,,77,127
88022,note_off,0,0,0,,11,,,46,127
88022,note_off,0,0,0,,11,,,58,127
88027,note_on,5,0,0,,0,,,48,127
88027,note_on,0,0,0,,10,,,57,127
88027,note_on,0,0,0,,5,,,77,127
88253,note_off,226,0,0,,10,,,57,127
88253,note_off,0,0,0,,0,,,48,127
88258,note_on,5,0,0,,7,,,55,127
88258,note_on,0,0,0,,11,,,46,127
88292,note_off,34,0,0,,5,,,77,127
88297,note_on,5,0,0,,4,,,76,127
88331,note_off,34,0,0,,4,,,76,127
88336,note_on,5,0,0,,5,,,77,127
88370,note_off,34,0,0,,5,,,77,127
88375,note_on,5,0,0,,4,,,76,127
88485,note_off,110,0,0,,4,,,76,127
88485,note_off,0,0,0,,11,,,46,127
88485,note_off,0,0,0,,7,,,55,127
88490,note_on,5,0,0,,5,,,53,127
88490,note_on,0,0,0,,10,,,45,127
88490,note_on,0,0,0,,5,,,77,127
88600,note_off,110,0,0,,5,,,77,127
88605,note_on,5,0,0,,0,,,72,127
88715,note_off,110,0,0,,0,,,72,127
88715,note_off,0,0,0,,10,,,45,127
88715,note_off,0,0,0,,5,,,53,127
88720,note_on,5,0,0,,11,,,46,127
88720,note_on,0,0,0,,11,,,58,127
88720,note_on,0,0,0,,2,,,74,127
88830,note_off,110,0,0,,2,,,74,127
88835,note_on,5,0,0,,5,,,65,127
88945,note_off,110,0,0,,5,,,65,127
88945,note_off,0,0,0,,11,,,58,127
88945,note_off,0,0,0,,11,,,46,127
88950,note_on,5,0,0,,0,,,48,127
88950,note_on,0,0,0,,10,,,57,127
88950,note_on,0,0,0,,5,,,65,127
89176,note_off,226,0,0,,10,,,57,127
89176,note_off,0,0,0,,0,,,48,127
89181,note_on,5,0,0,,11,,,46,127
89181,note_on,0,0,0,,7,,,55,127
89215,note_off,34,0,0,,5,,,65,127
89220,note_on,5,0,0,,4,,,64,127
89254,note_off,34,0,0,,4,,,64,127
89259,note_on,5,0,0,,5,,,65,127
89293,note_off,34,0,0,,5,,,65,127
89298,note_on,5,0,0,,4,,,64,127
89408,note_off,110,0,0,,4,,,64,127
89408,note_off,0,0,0,,7,,,55,127
89408,note_off,0,0,0,,11,,,46,127
89413,note_on,5,0,0,,10,,,45,127
89413,note_on,0,0,0,,5,,,53,127
89413,note_on,0,0,0,,5,,,65,127
89523,note_off,110,0,0,,5,,,65,127
89528,note_on,5,0,0,,0,,,60,127
89638,note_off,110,0,0,,0,,,60,127
89638,note_off,0,0,0,,5,,,53,127
89638,note_off,0,0,0,,10,,,45,127
89643,note_on,5,0,0,,11,,,46,127
89643,note_on,0,0,0,,2,,,62,127
89753,note_off,110,0,0,,2,,,62,127
89758,note_on,5,0,0,,5,,,53,127
89868,note_off,110,0,0,,5,,,53,127
89868,note_off,0,0,0,,11,,,46,127
89873,note_on,5,0,0,,0,,,48,127
89873,note_on,0,0,0,,5,,,53,127
90099,note_off,226,0,0,,0,,,48,127
90104,note_on,5,0,0,,0,,,36,127
90138,note_off,34,0,0,,5,,,53,127
90143,note_on,5,0,0,,4,,,52,127
90177,note_off,34,0,0,,4,,,52,127
90182,note_on,5,0,0,,5,,,53,127
90216,note_off,34,0,0,,5,,,53,127
90221,note_on,5,0,0,,4,,,52,127
90331,note_off,110,0,0,,4,,,52,127
90331,note_off,0,0,0,,0,,,36,127
90336,note_on,5,0,0,,5,,,41,127
90336,note_on,0,0,0,,5,,,53,127
91834,note_off,1498,0,0,,5,,,53,127
91834,note_off,0,0,0,,5,,,41,127
92160,end_of_track,326,1,0,,,,,,
