tick,type,time,meta,track,program,channel,pitch,tempo,note,velocity
0,copyright,0,1,0,,,,,,
0,program_change,0,0,0,6,0,,,,
0,pitchwheel,0,0,0,,0,0,,,
0,program_change,0,0,0,6,1,,,,
0,pitchwheel,0,0,0,,1,-590,,,
0,program_change,0,0,0,6,2,,,,
0,pitchwheel,0,0,0,,2,-272,,,
0,program_change,0,0,0,6,3,,,,
0,pitchwheel,0,0,0,,3,-353,,,
0,program_change,0,0,0,6,4,,,,
0,pitchwheel,0,0,0,,4,-560,,,
0,program_change,0,0,0,6,5,,,,
0,pitchwheel,0,0,0,,5,-80,,,
0,program_change,0,0,0,6,6,,,,
0,pitchwheel,0,0,0,,6,-625,,,
0,program_change,0,0,0,6,7,,,,
0,pitchwheel,0,0,0,,7,-130,,,
0,program_change,0,0,0,6,8,,,,
0,pitchwheel,0,0,0,,8,-512,,,
0,program_change,0,0,0,6,10,,,,
0,pitchwheel,0,0,0,,10,-464,,,
0,program_change,0,0,0,6,11,,,,
0,pitchwheel,0,0,0,,11,-208,,,
0,program_change,0,0,0,6,12,,,,
0,pitchwheel,0,0,0,,12,-553,,,
0,set_tempo,0,1,0,,,,500000,,
115,note_on,115,0,0,,0,,,84,127
345,note_on,230,0,0,,5,,,65,127
572,note_off,227,0,0,,5,,,65,127
576,note_on,4,0,0,,10,,,69,127
806,note_on,230,0,0,,2,,,86,127
807,note_off,1,0,0,,0,,,84,127
1023,note_off,216,0,0,,10,,,69,127
1036,note_on,13,0,0,,11,,,70,127
1263,note_off,227,0,0,,11,,,70,127
1267,note_on,4,0,0,,2,,,74,127
1497,note_on,230,0,0,,0,,,84,127
1498,note_off,1,0,0,,2,,,86,127
1535,note_on,37,0,0,,11,,,82,127
1554,note_off,19,0,0,,0,,,84,127
1573,note_on,19,0,0,,0,,,84,127
1592,note_off,19,0,0,,11,,,82,127
1611,note_on,19,0,0,,11,,,82,127
1630,note_off,19,0,0,,0,,,84,127
1713,note_off,83,0,0,,2,,,74,127
1726,note_on,13,0,0,,7,,,67,127
1953,note_off,227,0,0,,7,,,67,127
1957,note_on,4,0,0,,11,,,70,127
2187,note_on,230,0,0,,0,,,60,127
2188,note_off,1,0,0,,11,,,82,127
2404,note_off,216,0,0,,11,,,70,127
2417,note_on,13,0,0,,0,,,36,127
2644,note_off,227,0,0,,0,,,36,127
2648,note_on,4,0,0,,0,,,36,127
2864,note_off,216,0,0,,0,,,60,127
2875,note_off,11,0,0,,0,,,36,127
2879,note_on,4,0,0,,0,,,36,127
2879,note_on,0,0,0,,2,,,86,127
2994,note_on,115,0,0,,0,,,84,127
2995,note_off,1,0,0,,2,,,86,127
3109,note_on,114,0,0,,2,,,86,127
3110,note_off,1,0,0,,0,,,84,127
3224,note_on,114,0,0,,11,,,82,127
3225,note_off,1,0,0,,2,,,86,127
3339,note_on,114,0,0,,10,,,81,127
3340,note_off,1,0,0,,11,,,82,127
3454,note_on,114,0,0,,7,,,79,127
3455,note_off,1,0,0,,10,,,81,127
3568,note_off,113,0,0,,0,,,36,127
3569,note_on,1,0,0,,0,,,84,127
3570,note_off,1,0,0,,7,,,79,127
3684,note_on,114,0,0,,11,,,82,127
3685,note_off,1,0,0,,0,,,84,127
3799,note_on,114,0,0,,5,,,41,127
3799,note_on,0,0,0,,0,,,84,127
3800,note_off,1,0,0,,11,,,82,127
3914,note_on,114,0,0,,10,,,81,127
3915,note_off,1,0,0,,0,,,84,127
4025,note_off,110,0,0,,5,,,41,127
4029,note_on,4,0,0,,10,,,45,127
4029,note_on,0,0,0,,7,,,79,127
4030,note_off,1,0,0,,10,,,81,127
4144,note_on,114,0,0,,5,,,77,127
4145,note_off,1,0,0,,7,,,79,127
4255,note_off,110,0,0,,10,,,45,127
4259,note_on,4,0,0,,11,,,46,127
4259,note_on,0,0,0,,7,,,79,127
4260,note_off,1,0,0,,5,,,77,127
4374,note_on,114,0,0,,11,,,82,127
4375,note_off,1,0,0,,7,,,79,127
4485,note_off,110,0,0,,11,,,46,127
4489,note_on,4,0,0,,0,,,48,127
4489,note_on,0,0,0,,10,,,81,127
4490,note_off,1,0,0,,11,,,82,127
4604,note_on,114,0,0,,7,,,79,127
4605,note_off,1,0,0,,10,,,81,127
4719,note_on,114,0,0,,0,,,36,127
4719,note_on,0,0,0,,5,,,77,127
4720,note_off,1,0,0,,7,,,79,127
4752,note_off,32,0,0,,0,,,48,127
4834,note_on,82,0,0,,4,,,76,127
4835,note_off,1,0,0,,5,,,77,127
4945,note_off,110,0,0,,0,,,36,127
4949,note_on,4,0,0,,5,,,41,127
4949,note_on,0,0,0,,7,,,79,127
4950,note_off,1,0,0,,4,,,76,127
4987,note_on,37,0,0,,5,,,77,127
5006,note_off,19,0,0,,7,,,79,127
5025,note_on,19,0,0,,7,,,79,127
5044,note_off,19,0,0,,5,,,77,127
5050,note_off,6,0,0,,5,,,41,127
5063,note_on,13,0,0,,10,,,45,127
5063,note_on,0,0,0,,5,,,77,127
5082,note_off,19,0,0,,7,,,79,127
5165,note_off,83,0,0,,10,,,45,127
5178,note_on,13,0,0,,0,,,48,127
5280,note_off,102,0,0,,0,,,48,127
5293,note_on,13,0,0,,5,,,53,127
5395,note_off,102,0,0,,5,,,53,127
5408,note_on,13,0,0,,10,,,57,127
5510,note_off,102,0,0,,10,,,57,127
5523,note_on,13,0,0,,0,,,60,127
5600,note_off,77,0,0,,0,,,60,127
5638,note_on,38,0,0,,5,,,65,127
5753,note_on,115,0,0,,10,,,81,127
5754,note_off,1,0,0,,5,,,77,127
5864,note_off,110,0,0,,5,,,65,127
5868,note_on,4,0,0,,0,,,36,127
5868,note_on,0,0,0,,7,,,79,127
5869,note_off,1,0,0,,10,,,81,127
5983,note_on,114,0,0,,11,,,82,127
5984,note_off,1,0,0,,7,,,79,127
6098,note_on,114,0,0,,10,,,81,127
6099,note_off,1,0,0,,11,,,82,127
6213,note_on,114,0,0,,7,,,79,127
6214,note_off,1,0,0,,10,,,81,127
6315,note_off,101,0,0,,0,,,36,127
6327,note_off,12,0,0,,7,,,79,127
6328,note_on,1,0,0,,5,,,41,127
6328,note_on,0,0,0,,7,,,79,127
6366,note_on,38,0,0,,5,,,77,127
6385,note_off,19,0,0,,7,,,79,127
6404,note_on,19,0,0,,7,,,79,127
6423,note_off,19,0,0,,5,,,77,127
6429,note_off,6,0,0,,5,,,41,127
6442,note_on,13,0,0,,10,,,45,127
6442,note_on,0,0,0,,5,,,77,127
6461,note_off,19,0,0,,7,,,79,127
6544,note_off,83,0,0,,10,,,45,127
6557,note_on,13,0,0,,0,,,48,127
6659,note_off,102,0,0,,0,,,48,127
6672,note_on,13,0,0,,5,,,53,127
6774,note_off,102,0,0,,5,,,53,127
6787,note_on,13,0,0,,10,,,57,127
6889,note_off,102,0,0,,10,,,57,127
6902,note_on,13,0,0,,0,,,60,127
6979,note_off,77,0,0,,0,,,60,127
7017,note_on,38,0,0,,5,,,65,127
7132,note_on,115,0,0,,10,,,81,127
7133,note_off,1,0,0,,5,,,77,127
7243,note_off,110,0,0,,5,,,65,127
7247,note_on,4,0,0,,0,,,36,127
7247,note_on,0,0,0,,7,,,79,127
7248,note_off,1,0,0,,10,,,81,127
7362,note_on,114,0,0,,11,,,82,127
7363,note_off,1,0,0,,7,,,79,127
7477,note_on,114,0,0,,10,,,81,127
7478,note_off,1,0,0,,11,,,82,127
7592,note_on,114,0,0,,7,,,79,127
7593,note_off,1,0,0,,10,,,81,127
7694,note_off,101,0,0,,0,,,36,127
7706,note_off,12,0,0,,7,,,79,127
7707,note_on,1,0,0,,2,,,38,127
7707,note_on,0,0,0,,7,,,79,127
7745,note_on,38,0,0,,5,,,77,127
7764,note_off,19,0,0,,7,,,79,127
7783,note_on,19,0,0,,7,,,79,127
7802,note_off,19,0,0,,5,,,77,127
7808,note_off,6,0,0,,2,,,38,127
7821,note_on,13,0,0,,5,,,41,127
7821,note_on,0,0,0,,5,,,77,127
7840,note_off,19,0,0,,7,,,79,127
7923,note_off,83,0,0,,5,,,41,127
7936,note_on,13,0,0,,10,,,45,127
8038,note_off,102,0,0,,10,,,45,127
8051,note_on,13,0,0,,2,,,50,127
8153,note_off,102,0,0,,2,,,50,127
8166,note_on,13,0,0,,5,,,53,127
8268,note_off,102,0,0,,5,,,53,127
8281,note_on,13,0,0,,10,,,57,127
8383,note_off,102,0,0,,10,,,57,127
8396,note_on,13,0,0,,2,,,62,127
8510,note_off,114,0,0,,5,,,77,127
8511,note_on,1,0,0,,5,,,77,127
8623,note_off,112,0,0,,2,,,62,127
8627,note_on,4,0,0,,10,,,45,127
8627,note_on,0,0,0,,4,,,76,127
8628,note_off,1,0,0,,5,,,77,127
8742,note_on,114,0,0,,7,,,79,127
8743,note_off,1,0,0,,4,,,76,127
8857,note_on,114,0,0,,5,,,77,127
8858,note_off,1,0,0,,7,,,79,127
8972,note_on,114,0,0,,4,,,76,127
8973,note_off,1,0,0,,5,,,77,127
9074,note_off,101,0,0,,10,,,45,127
9087,note_on,13,0,0,,2,,,38,127
9087,note_on,0,0,0,,7,,,79,127
9088,note_off,1,0,0,,4,,,76,127
9125,note_on,37,0,0,,5,,,77,127
9144,note_off,19,0,0,,7,,,79,127
9163,note_on,19,0,0,,7,,,79,127
9182,note_off,19,0,0,,5,,,77,127
9188,note_off,6,0,0,,2,,,38,127
9201,note_on,13,0,0,,5,,,41,127
9201,note_on,0,0,0,,5,,,77,127
9220,note_off,19,0,0,,7,,,79,127
9303,note_off,83,0,0,,5,,,41,127
9316,note_on,13,0,0,,10,,,45,127
9418,note_off,102,0,0,,10,,,45,127
9431,note_on,13,0,0,,2,,,50,127
9533,note_off,102,0,0,,2,,,50,127
9546,note_on,13,0,0,,5,,,53,127
9648,note_off,102,0,0,,5,,,53,127
9661,note_on,13,0,0,,10,,,57,127
9763,note_off,102,0,0,,10,,,57,127
9776,note_on,13,0,0,,2,,,62,127
9890,note_off,114,0,0,,5,,,77,127
9891,note_on,1,0,0,,5,,,77,127
10003,note_off,112,0,0,,2,,,62,127
10007,note_on,4,0,0,,10,,,45,127
10007,note_on,0,0,0,,4,,,76,127
10008,note_off,1,0,0,,5,,,77,127
10122,note_on,114,0,0,,7,,,79,127
10123,note_off,1,0,0,,4,,,76,127
10237,note_on,114,0,0,,5,,,77,127
10238,note_off,1,0,0,,7,,,79,127
10352,note_on,114,0,0,,4,,,76,127
10353,note_off,1,0,0,,5,,,77,127
10454,note_off,101,0,0,,10,,,45,127
10466,note_off,12,0,0,,4,,,76,127
10467,note_on,1,0,0,,11,,,46,127
10467,note_on,0,0,0,,4,,,76,127
10505,note_on,38,0,0,,2,,,74,127
10524,note_off,19,0,0,,4,,,76,127
10543,note_on,19,0,0,,4,,,76,127
10562,note_off,19,0,0,,2,,,74,127
10568,note_off,6,0,0,,11,,,46,127
10581,note_on,13,0,0,,2,,,50,127
10581,note_on,0,0,0,,2,,,74,127
10600,note_off,19,0,0,,4,,,76,127
10683,note_off,83,0,0,,2,,,50,127
10696,note_on,13,0,0,,5,,,53,127
10798,note_off,102,0,0,,5,,,53,127
10811,note_on,13,0,0,,11,,,58,127
10913,note_off,102,0,0,,11,,,58,127
10926,note_on,13,0,0,,2,,,62,127
11028,note_off,102,0,0,,2,,,62,127
11041,note_on,13,0,0,,5,,,65,127
11118,note_off,77,0,0,,5,,,65,127
11156,note_on,38,0,0,,11,,,70,127
11270,note_off,114,0,0,,2,,,74,127
11271,note_on,1,0,0,,2,,,74,127
11383,note_off,112,0,0,,11,,,70,127
11387,note_on,4,0,0,,5,,,41,127
11387,note_on,0,0,0,,0,,,72,127
11388,note_off,1,0,0,,2,,,74,127
11502,note_on,114,0,0,,3,,,75,127
11503,note_off,1,0,0,,0,,,72,127
11617,note_on,114,0,0,,2,,,74,127
11618,note_off,1,0,0,,3,,,75,127
11732,note_on,114,0,0,,0,,,72,127
11733,note_off,1,0,0,,2,,,74,127
11834,note_off,101,0,0,,5,,,41,127
11847,note_on,13,0,0,,11,,,46,127
11847,note_on,0,0,0,,3,,,75,127
11848,note_off,1,0,0,,0,,,72,127
11885,note_on,37,0,0,,2,,,74,127
11904,note_off,19,0,0,,3,,,75,127
11923,note_on,19,0,0,,3,,,75,127
11942,note_off,19,0,0,,2,,,74,127
11948,note_off,6,0,0,,11,,,46,127
11961,note_on,13,0,0,,2,,,50,127
11961,note_on,0,0,0,,2,,,74,127
11980,note_off,19,0,0,,3,,,75,127
12063,note_off,83,0,0,,2,,,50,127
12076,note_on,13,0,0,,5,,,53,127
12178,note_off,102,0,0,,5,,,53,127
12191,note_on,13,0,0,,11,,,58,127
12293,note_off,102,0,0,,11,,,58,127
12306,note_on,13,0,0,,2,,,62,127
12408,note_off,102,0,0,,2,,,62,127
12421,note_on,13,0,0,,5,,,65,127
12498,note_off,77,0,0,,5,,,65,127
12536,note_on,38,0,0,,11,,,70,127
12650,note_off,114,0,0,,2,,,74,127
12651,note_on,1,0,0,,2,,,74,127
12763,note_off,112,0,0,,11,,,70,127
12767,note_on,4,0,0,,5,,,41,127
12767,note_on,0,0,0,,0,,,72,127
12768,note_off,1,0,0,,2,,,74,127
12882,note_on,114,0,0,,3,,,75,127
12883,note_off,1,0,0,,0,,,72,127
12997,note_on,114,0,0,,2,,,74,127
12998,note_off,1,0,0,,3,,,75,127
13112,note_on,114,0,0,,0,,,72,127
13113,note_off,1,0,0,,2,,,74,127
13214,note_off,101,0,0,,5,,,41,127
13227,note_on,13,0,0,,11,,,46,127
13227,note_on,0,0,0,,11,,,70,127
13228,note_off,1,0,0,,0,,,72,127
13330,note_off,102,0,0,,11,,,46,127
13342,note_on,12,0,0,,11,,,58,127
13445,note_off,103,0,0,,11,,,58,127
13457,note_on,12,0,0,,8,,,56,127
13560,note_off,103,0,0,,8,,,56,127
13572,note_on,12,0,0,,7,,,55,127
13572,note_on,0,0,0,,0,,,72,127
13573,note_off,1,0,0,,11,,,70,127
13675,note_off,102,0,0,,7,,,55,127
13687,note_on,12,0,0,,5,,,53,127
13687,note_on,0,0,0,,2,,,74,127
13688,note_off,1,0,0,,0,,,72,127
13790,note_off,102,0,0,,5,,,53,127
13802,note_on,12,0,0,,3,,,51,127
13802,note_on,0,0,0,,3,,,75,127
13803,note_off,1,0,0,,2,,,74,127
13905,note_off,102,0,0,,3,,,51,127
13917,note_on,12,0,0,,2,,,50,127
13917,note_on,0,0,0,,5,,,77,127
13918,note_off,1,0,0,,3,,,75,127
14020,note_off,102,0,0,,2,,,50,127
14032,note_on,12,0,0,,0,,,48,127
14032,note_on,0,0,0,,7,,,79,127
14033,note_off,1,0,0,,5,,,77,127
14135,note_off,102,0,0,,0,,,48,127
14147,note_on,12,0,0,,11,,,46,127
14147,note_on,0,0,0,,11,,,82,127
14148,note_off,1,0,0,,7,,,79,127
14185,note_on,37,0,0,,8,,,80,127
14204,note_off,19,0,0,,11,,,82,127
14223,note_on,19,0,0,,11,,,82,127
14242,note_off,19,0,0,,8,,,80,127
14249,note_off,7,0,0,,11,,,46,127
14261,note_on,12,0,0,,8,,,44,127
14261,note_on,0,0,0,,8,,,80,127
14280,note_off,19,0,0,,11,,,82,127
14299,note_on,19,0,0,,11,,,82,127
14318,note_off,19,0,0,,8,,,80,127
14337,note_on,19,0,0,,8,,,80,127
14356,note_off,19,0,0,,11,,,82,127
14363,note_off,7,0,0,,8,,,44,127
14375,note_on,12,0,0,,7,,,43,127
14375,note_on,0,0,0,,11,,,82,127
14394,note_off,19,0,0,,8,,,80,127
14413,note_on,19,0,0,,8,,,80,127
14432,note_off,19,0,0,,11,,,82,127
14451,note_on,19,0,0,,11,,,82,127
14470,note_off,19,0,0,,8,,,80,127
14477,note_off,7,0,0,,7,,,43,127
14489,note_on,12,0,0,,5,,,41,127
14489,note_on,0,0,0,,8,,,80,127
14508,note_off,19,0,0,,11,,,82,127
14527,note_on,19,0,0,,7,,,79,127
14546,note_off,19,0,0,,8,,,80,127
14565,note_on,19,0,0,,8,,,80,127
14584,note_off,19,0,0,,7,,,79,127
14591,note_off,7,0,0,,5,,,41,127
14603,note_on,12,0,0,,3,,,39,127
14603,note_on,0,0,0,,7,,,79,127
14622,note_off,19,0,0,,8,,,80,127
14706,note_off,84,0,0,,3,,,39,127
14718,note_on,12,0,0,,11,,,58,127
14718,note_on,0,0,0,,11,,,70,127
14719,note_off,1,0,0,,7,,,79,127
14821,note_off,102,0,0,,11,,,58,127
14833,note_on,12,0,0,,8,,,56,127
14936,note_off,103,0,0,,8,,,56,127
14948,note_on,12,0,0,,7,,,55,127
14948,note_on,0,0,0,,0,,,72,127
14949,note_off,1,0,0,,11,,,70,127
15051,note_off,102,0,0,,7,,,55,127
15063,note_on,12,0,0,,5,,,53,127
15063,note_on,0,0,0,,2,,,74,127
15064,note_off,1,0,0,,0,,,72,127
15166,note_off,102,0,0,,5,,,53,127
15178,note_on,12,0,0,,3,,,51,127
15178,note_on,0,0,0,,3,,,75,127
15179,note_off,1,0,0,,2,,,74,127
15281,note_off,102,0,0,,3,,,51,127
15293,note_on,12,0,0,,2,,,50,127
15293,note_on,0,0,0,,5,,,77,127
15294,note_off,1,0,0,,3,,,75,127
15396,note_off,102,0,0,,2,,,50,127
15408,note_on,12,0,0,,0,,,48,127
15408,note_on,0,0,0,,7,,,79,127
15409,note_off,1,0,0,,5,,,77,127
15511,note_off,102,0,0,,0,,,48,127
15523,note_on,12,0,0,,11,,,46,127
15523,note_on,0,0,0,,11,,,82,127
15524,note_off,1,0,0,,7,,,79,127
15561,note_on,37,0,0,,8,,,80,127
15580,note_off,19,0,0,,11,,,82,127
15599,note_on,19,0,0,,11,,,82,127
15618,note_off,19,0,0,,8,,,80,127
15625,note_off,7,0,0,,11,,,46,127
15637,note_on,12,0,0,,8,,,44,127
15637,note_on,0,0,0,,8,,,80,127
15656,note_off,19,0,0,,11,,,82,127
15675,note_on,19,0,0,,11,,,82,127
15694,note_off,19,0,0,,8,,,80,127
15713,note_on,19,0,0,,8,,,80,127
15732,note_off,19,0,0,,11,,,82,127
15739,note_off,7,0,0,,8,,,44,127
15751,note_on,12,0,0,,7,,,43,127
15751,note_on,0,0,0,,11,,,82,127
15770,note_off,19,0,0,,8,,,80,127
15789,note_on,19,0,0,,8,,,80,127
15808,note_off,19,0,0,,11,,,82,127
15827,note_on,19,0,0,,11,,,82,127
15846,note_off,19,0,0,,8,,,80,127
15853,note_off,7,0,0,,7,,,43,127
15865,note_on,12,0,0,,5,,,41,127
15865,note_on,0,0,0,,8,,,80,127
15884,note_off,19,0,0,,11,,,82,127
15903,note_on,19,0,0,,7,,,79,127
15922,note_off,19,0,0,,8,,,80,127
15941,note_on,19,0,0,,8,,,80,127
15960,note_off,19,0,0,,7,,,79,127
15967,note_off,7,0,0,,5,,,41,127
15979,note_on,12,0,0,,3,,,39,127
15979,note_on,0,0,0,,7,,,79,127
15998,note_off,19,0,0,,8,,,80,127
16082,note_off,84,0,0,,3,,,39,127
16094,note_on,12,0,0,,0,,,60,127
16094,note_on,0,0,0,,0,,,72,127
16095,note_off,1,0,0,,7,,,79,127
16197,note_off,102,0,0,,0,,,60,127
16209,note_on,12,0,0,,11,,,58,127
16312,note_off,103,0,0,,11,,,58,127
16324,note_on,12,0,0,,10,,,57,127
16324,note_on,0,0,0,,2,,,74,127
16325,note_off,1,0,0,,0,,,72,127
16427,note_off,102,0,0,,10,,,57,127
16439,note_on,12,0,0,,7,,,55,127
16439,note_on,0,0,0,,4,,,76,127
16440,note_off,1,0,0,,2,,,74,127
16542,note_off,102,0,0,,7,,,55,127
16554,note_on,12,0,0,,5,,,53,127
16554,note_on,0,0,0,,5,,,77,127
16555,note_off,1,0,0,,4,,,76,127
16657,note_off,102,0,0,,5,,,53,127
16669,note_on,12,0,0,,4,,,52,127
16669,note_on,0,0,0,,7,,,79,127
16670,note_off,1,0,0,,5,,,77,127
16772,note_off,102,0,0,,4,,,52,127
16784,note_on,12,0,0,,2,,,50,127
16784,note_on,0,0,0,,10,,,81,127
16785,note_off,1,0,0,,7,,,79,127
16887,note_off,102,0,0,,2,,,50,127
16899,note_on,12,0,0,,0,,,48,127
16899,note_on,0,0,0,,0,,,84,127
16900,note_off,1,0,0,,10,,,81,127
16937,note_on,37,0,0,,11,,,82,127
16956,note_off,19,0,0,,0,,,84,127
16975,note_on,19,0,0,,0,,,84,127
16994,note_off,19,0,0,,11,,,82,127
17001,note_off,7,0,0,,0,,,48,127
17013,note_on,12,0,0,,11,,,46,127
17013,note_on,0,0,0,,11,,,82,127
17032,note_off,19,0,0,,0,,,84,127
17051,note_on,19,0,0,,0,,,84,127
17070,note_off,19,0,0,,11,,,82,127
17089,note_on,19,0,0,,11,,,82,127
17108,note_off,19,0,0,,0,,,84,127
17115,note_off,7,0,0,,11,,,46,127
17127,note_on,12,0,0,,10,,,45,127
17127,note_on,0,0,0,,0,,,84,127
17146,note_off,19,0,0,,11,,,82,127
17165,note_on,19,0,0,,11,,,82,127
17184,note_off,19,0,0,,0,,,84,127
17203,note_on,19,0,0,,0,,,84,127
17222,note_off,19,0,0,,11,,,82,127
17229,note_off,7,0,0,,10,,,45,127
17241,note_on,12,0,0,,7,,,43,127
17241,note_on,0,0,0,,11,,,82,127
17260,note_off,19,0,0,,0,,,84,127
17279,note_on,19,0,0,,10,,,81,127
17298,note_off,19,0,0,,11,,,82,127
17317,note_on,19,0,0,,11,,,82,127
17336,note_off,19,0,0,,10,,,81,127
17343,note_off,7,0,0,,7,,,43,127
17355,note_on,12,0,0,,5,,,41,127
17355,note_on,0,0,0,,10,,,81,127
17374,note_off,19,0,0,,11,,,82,127
17458,note_off,84,0,0,,5,,,41,127
17470,note_on,12,0,0,,0,,,60,127
17470,note_on,0,0,0,,0,,,72,127
17471,note_off,1,0,0,,10,,,81,127
17573,note_off,102,0,0,,0,,,60,127
17585,note_on,12,0,0,,11,,,58,127
17688,note_off,103,0,0,,11,,,58,127
17700,note_on,12,0,0,,10,,,57,127
17700,note_on,0,0,0,,2,,,74,127
17701,note_off,1,0,0,,0,,,72,127
17803,note_off,102,0,0,,10,,,57,127
17815,note_on,12,0,0,,7,,,55,127
17815,note_on,0,0,0,,4,,,76,127
17816,note_off,1,0,0,,2,,,74,127
17918,note_off,102,0,0,,7,,,55,127
17930,note_on,12,0,0,,5,,,53,127
17930,note_on,0,0,0,,5,,,77,127
17931,note_off,1,0,0,,4,,,76,127
18033,note_off,102,0,0,,5,,,53,127
18045,note_on,12,0,0,,4,,,52,127
18045,note_on,0,0,0,,7,,,79,127
18046,note_off,1,0,0,,5,,,77,127
18148,note_off,102,0,0,,4,,,52,127
18160,note_on,12,0,0,,2,,,50,127
18160,note_on,0,0,0,,10,,,81,127
18161,note_off,1,0,0,,7,,,79,127
18263,note_off,102,0,0,,2,,,50,127
18275,note_on,12,0,0,,0,,,48,127
18275,note_on,0,0,0,,0,,,84,127
18276,note_off,1,0,0,,10,,,81,127
18313,note_on,37,0,0,,11,,,82,127
18332,note_off,19,0,0,,0,,,84,127
18351,note_on,19,0,0,,0,,,84,127
18370,note_off,19,0,0,,11,,,82,127
18377,note_off,7,0,0,,0,,,48,127
18389,note_on,12,0,0,,11,,,46,127
18389,note_on,0,0,0,,11,,,82,127
18408,note_off,19,0,0,,0,,,84,127
18427,note_on,19,0,0,,0,,,84,127
18446,note_off,19,0,0,,11,,,82,127
18465,note_on,19,0,0,,11,,,82,127
18484,note_off,19,0,0,,0,,,84,127
18491,note_off,7,0,0,,11,,,46,127
18503,note_on,12,0,0,,10,,,45,127
18503,note_on,0,0,0,,0,,,84,127
18522,note_off,19,0,0,,11,,,82,127
18541,note_on,19,0,0,,11,,,82,127
18560,note_off,19,0,0,,0,,,84,127
18579,note_on,19,0,0,,0,,,84,127
18598,note_off,19,0,0,,11,,,82,127
18605,note_off,7,0,0,,10,,,45,127
18617,note_on,12,0,0,,7,,,43,127
18617,note_on,0,0,0,,11,,,82,127
18636,note_off,19,0,0,,0,,,84,127
18655,note_on,19,0,0,,10,,,81,127
18674,note_off,19,0,0,,11,,,82,127
18693,note_on,19,0,0,,11,,,82,127
18712,note_off,19,0,0,,10,,,81,127
18719,note_off,7,0,0,,7,,,43,127
18731,note_on,12,0,0,,5,,,41,127
18731,note_on,0,0,0,,10,,,81,127
18750,note_off,19,0,0,,11,,,82,127
18834,note_off,84,0,0,,5,,,41,127
18846,note_on,12,0,0,,2,,,62,127
18846,note_on,0,0,0,,2,,,74,127
18847,note_off,1,0,0,,10,,,81,127
18949,note_off,102,0,0,,2,,,62,127
18961,note_on,12,0,0,,0,,,60,127
19064,note_off,103,0,0,,0,,,60,127
19076,note_on,12,0,0,,12,,,59,127
19076,note_on,0,0,0,,4,,,76,127
19077,note_off,1,0,0,,2,,,74,127
19179,note_off,102,0,0,,12,,,59,127
19191,note_on,12,0,0,,10,,,57,127
19191,note_on,0,0,0,,6,,,78,127
19192,note_off,1,0,0,,4,,,76,127
19294,note_off,102,0,0,,10,,,57,127
19306,note_on,12,0,0,,7,,,55,127
19306,note_on,0,0,0,,7,,,79,127
19307,note_off,1,0,0,,6,,,78,127
19409,note_off,102,0,0,,7,,,55,127
19421,note_on,12,0,0,,6,,,54,127
19421,note_on,0,0,0,,10,,,81,127
19422,note_off,1,0,0,,7,,,79,127
19524,note_off,102,0,0,,6,,,54,127
19536,note_on,12,0,0,,4,,,52,127
19536,note_on,0,0,0,,12,,,83,127
19537,note_off,1,0,0,,10,,,81,127
19639,note_off,102,0,0,,4,,,52,127
19651,note_on,12,0,0,,2,,,50,127
19651,note_on,0,0,0,,2,,,86,127
19652,note_off,1,0,0,,12,,,83,127
19689,note_on,37,0,0,,0,,,84,127
19708,note_off,19,0,0,,2,,,86,127
19727,note_on,19,0,0,,2,,,86,127
19746,note_off,19,0,0,,0,,,84,127
19753,note_off,7,0,0,,2,,,50,127
19765,note_on,12,0,0,,0,,,48,127
19765,note_on,0,0,0,,0,,,84,127
19784,note_off,19,0,0,,2,,,86,127
19803,note_on,19,0,0,,2,,,86,127
19822,note_off,19,0,0,,0,,,84,127
19841,note_on,19,0,0,,0,,,84,127
19860,note_off,19,0,0,,2,,,86,127
19867,note_off,7,0,0,,0,,,48,127
19879,note_on,12,0,0,,12,,,47,127
19879,note_on,0,0,0,,2,,,86,127
19898,note_off,19,0,0,,0,,,84,127
19917,note_on,19,0,0,,0,,,84,127
19936,note_off,19,0,0,,2,,,86,127
19955,note_on,19,0,0,,2,,,86,127
19974,note_off,19,0,0,,0,,,84,127
19981,note_off,7,0,0,,12,,,47,127
19993,note_on,12,0,0,,10,,,45,127
19993,note_on,0,0,0,,0,,,84,127
20012,note_off,19,0,0,,2,,,86,127
20031,note_on,19,0,0,,12,,,83,127
20050,note_off,19,0,0,,0,,,84,127
20069,note_on,19,0,0,,0,,,84,127
20088,note_off,19,0,0,,12,,,83,127
20095,note_off,7,0,0,,10,,,45,127
20107,note_on,12,0,0,,7,,,43,127
20107,note_on,0,0,0,,12,,,83,127
20126,note_off,19,0,0,,0,,,84,127
20210,note_off,84,0,0,,7,,,43,127
20222,note_on,12,0,0,,2,,,62,127
20222,note_on,0,0,0,,2,,,74,127
20223,note_off,1,0,0,,12,,,83,127
20325,note_off,102,0,0,,2,,,62,127
20337,note_on,12,0,0,,0,,,60,127
20440,note_off,103,0,0,,0,,,60,127
20452,note_on,12,0,0,,12,,,59,127
20452,note_on,0,0,0,,4,,,76,127
20453,note_off,1,0,0,,2,,,74,127
20555,note_off,102,0,0,,12,,,59,127
20567,note_on,12,0,0,,10,,,57,127
20567,note_on,0,0,0,,6,,,78,127
20568,note_off,1,0,0,,4,,,76,127
20670,note_off,102,0,0,,10,,,57,127
20682,note_on,12,0,0,,7,,,55,127
20682,note_on,0,0,0,,7,,,79,127
20683,note_off,1,0,0,,6,,,78,127
20785,note_off,102,0,0,,7,,,55,127
20797,note_on,12,0,0,,6,,,54,127
20797,note_on,0,0,0,,10,,,81,127
20798,note_off,1,0,0,,7,,,79,127
20900,note_off,102,0,0,,6,,,54,127
20912,note_on,12,0,0,,4,,,52,127
20912,note_on,0,0,0,,12,,,83,127
20913,note_off,1,0,0,,10,,,81,127
21015,note_off,102,0,0,,4,,,52,127
21027,note_on,12,0,0,,2,,,50,127
21027,note_on,0,0,0,,2,,,86,127
21028,note_off,1,0,0,,12,,,83,127
21065,note_on,37,0,0,,0,,,84,127
21084,note_off,19,0,0,,2,,,86,127
21103,note_on,19,0,0,,2,,,86,127
21122,note_off,19,0,0,,0,,,84,127
21129,note_off,7,0,0,,2,,,50,127
21141,note_on,12,0,0,,0,,,48,127
21141,note_on,0,0,0,,0,,,84,127
21160,note_off,19,0,0,,2,,,86,127
21179,note_on,19,0,0,,2,,,86,127
21198,note_off,19,0,0,,0,,,84,127
21217,note_on,19,0,0,,0,,,84,127
21236,note_off,19,0,0,,2,,,86,127
21243,note_off,7,0,0,,0,,,48,127
21255,note_on,12,0,0,,12,,,47,127
21255,note_on,0,0,0,,2,,,86,127
21274,note_off,19,0,0,,0,,,84,127
21293,note_on,19,0,0,,0,,,84,127
21312,note_off,19,0,0,,2,,,86,127
21331,note_on,19,0,0,,2,,,86,127
21350,note_off,19,0,0,,0,,,84,127
21357,note_off,7,0,0,,12,,,47,127
21369,note_on,12,0,0,,10,,,45,127
21369,note_on,0,0,0,,0,,,84,127
21388,note_off,19,0,0,,2,,,86,127
21407,note_on,19,0,0,,12,,,83,127
21426,note_off,19,0,0,,0,,,84,127
21445,note_on,19,0,0,,0,,,84,127
21464,note_off,19,0,0,,12,,,83,127
21471,note_off,7,0,0,,10,,,45,127
21483,note_on,12,0,0,,7,,,43,127
21483,note_on,0,0,0,,12,,,83,127
21502,note_off,19,0,0,,0,,,84,127
21598,note_on,96,0,0,,10,,,81,127
21599,note_off,1,0,0,,12,,,83,127
21709,note_off,110,0,0,,7,,,43,127
21713,note_on,4,0,0,,10,,,45,127
21713,note_on,0,0,0,,7,,,79,127
21714,note_off,1,0,0,,10,,,81,127
21828,note_on,114,0,0,,5,,,77,127
21829,note_off,1,0,0,,7,,,79,127
21939,note_off,110,0,0,,10,,,45,127
21943,note_on,4,0,0,,12,,,47,127
21943,note_on,0,0,0,,4,,,76,127
21944,note_off,1,0,0,,5,,,77,127
22058,note_on,114,0,0,,2,,,74,127
22059,note_off,1,0,0,,4,,,76,127
22169,note_off,110,0,0,,12,,,47,127
22173,note_on,4,0,0,,0,,,48,127
22173,note_on,0,0,0,,4,,,76,127
22174,note_off,1,0,0,,2,,,74,127
22288,note_on,114,0,0,,5,,,77,127
22289,note_off,1,0,0,,4,,,76,127
22399,note_off,110,0,0,,0,,,48,127
22403,note_on,4,0,0,,4,,,52,127
22403,note_on,0,0,0,,7,,,79,127
22404,note_off,1,0,0,,5,,,77,127
22518,note_on,114,0,0,,4,,,76,127
22519,note_off,1,0,0,,7,,,79,127
22629,note_off,110,0,0,,4,,,52,127
22633,note_on,4,0,0,,5,,,53,127
22633,note_on,0,0,0,,10,,,81,127
22634,note_off,1,0,0,,4,,,76,127
22748,note_on,114,0,0,,0,,,72,127
22749,note_off,1,0,0,,10,,,81,127
22859,note_off,110,0,0,,5,,,53,127
22863,note_on,4,0,0,,7,,,55,127
22940,note_on,77,0,0,,12,,,71,127
22946,note_off,6,0,0,,0,,,72,127
22978,note_on,32,0,0,,0,,,72,127
22997,note_off,19,0,0,,12,,,71,127
23016,note_on,19,0,0,,12,,,71,127
23035,note_off,19,0,0,,0,,,72,127
23054,note_on,19,0,0,,0,,,72,127
23073,note_off,19,0,0,,12,,,71,127
23089,note_off,16,0,0,,7,,,55,127
23093,note_on,4,0,0,,7,,,43,127
23093,note_on,0,0,0,,12,,,71,127
23112,note_off,19,0,0,,0,,,72,127
23208,note_on,96,0,0,,10,,,69,127
23209,note_off,1,0,0,,12,,,71,127
23323,note_on,114,0,0,,7,,,67,127
23324,note_off,1,0,0,,10,,,69,127
23540,note_off,216,0,0,,7,,,43,127
23553,note_on,13,0,0,,7,,,55,127
23656,note_off,103,0,0,,7,,,55,127
23666,note_off,10,0,0,,7,,,67,127
23668,note_on,2,0,0,,7,,,67,127
23668,note_on,0,0,0,,2,,,74,127
23771,note_off,103,0,0,,7,,,67,127
23783,note_on,12,0,0,,5,,,65,127
23783,note_on,0,0,0,,12,,,71,127
23784,note_off,1,0,0,,2,,,74,127
23886,note_off,102,0,0,,5,,,65,127
23898,note_on,12,0,0,,4,,,64,127
23898,note_on,0,0,0,,0,,,72,127
23899,note_off,1,0,0,,12,,,71,127
24001,note_off,102,0,0,,4,,,64,127
24013,note_on,12,0,0,,2,,,62,127
24013,note_on,0,0,0,,2,,,74,127
24014,note_off,1,0,0,,0,,,72,127
24116,note_off,102,0,0,,2,,,62,127
24128,note_on,12,0,0,,0,,,60,127
24128,note_on,0,0,0,,4,,,76,127
24129,note_off,1,0,0,,2,,,74,127
24231,note_off,102,0,0,,0,,,60,127
24243,note_on,12,0,0,,12,,,59,127
24243,note_on,0,0,0,,5,,,77,127
24244,note_off,1,0,0,,4,,,76,127
24346,note_off,102,0,0,,12,,,59,127
24358,note_on,12,0,0,,10,,,57,127
24358,note_on,0,0,0,,7,,,79,127
24359,note_off,1,0,0,,5,,,77,127
24461,note_off,102,0,0,,10,,,57,127
24473,note_on,12,0,0,,7,,,55,127
24473,note_on,0,0,0,,10,,,81,127
24474,note_off,1,0,0,,7,,,79,127
24576,note_off,102,0,0,,7,,,55,127
24588,note_on,12,0,0,,5,,,53,127
24588,note_on,0,0,0,,12,,,83,127
24589,note_off,1,0,0,,10,,,81,127
24691,note_off,102,0,0,,5,,,53,127
24703,note_on,12,0,0,,4,,,52,127
24703,note_on,0,0,0,,0,,,84,127
24704,note_off,1,0,0,,12,,,83,127
24806,note_off,102,0,0,,4,,,52,127
24818,note_on,12,0,0,,2,,,50,127
24818,note_on,0,0,0,,2,,,86,127
24819,note_off,1,0,0,,0,,,84,127
24921,note_off,102,0,0,,2,,,50,127
24933,note_on,12,0,0,,0,,,48,127
24933,note_on,0,0,0,,4,,,88,127
24934,note_off,1,0,0,,2,,,86,127
25024,note_off,90,0,0,,4,,,88,127
25036,note_off,12,0,0,,0,,,48,127
25048,note_on,12,0,0,,7,,,67,127
25048,note_on,0,0,0,,2,,,74,127
25139,note_off,91,0,0,,2,,,74,127
25151,note_off,12,0,0,,7,,,67,127
25163,note_on,12,0,0,,5,,,65,127
25163,note_on,0,0,0,,12,,,71,127
25254,note_off,91,0,0,,12,,,71,127
25266,note_off,12,0,0,,5,,,65,127
25278,note_on,12,0,0,,4,,,64,127
25278,note_on,0,0,0,,0,,,72,127
25369,note_off,91,0,0,,0,,,72,127
25381,note_off,12,0,0,,4,,,64,127
25393,note_on,12,0,0,,2,,,62,127
25393,note_on,0,0,0,,2,,,74,127
25484,note_off,91,0,0,,2,,,74,127
25496,note_off,12,0,0,,2,,,62,127
25508,note_on,12,0,0,,0,,,60,127
25508,note_on,0,0,0,,4,,,76,127
25599,note_off,91,0,0,,4,,,76,127
25611,note_off,12,0,0,,0,,,60,127
25623,note_on,12,0,0,,12,,,59,127
25623,note_on,0,0,0,,5,,,77,127
25714,note_off,91,0,0,,5,,,77,127
25726,note_off,12,0,0,,12,,,59,127
25738,note_on,12,0,0,,10,,,57,127
25738,note_on,0,0,0,,7,,,79,127
25829,note_off,91,0,0,,7,,,79,127
25841,note_off,12,0,0,,10,,,57,127
25853,note_on,12,0,0,,7,,,55,127
25853,note_on,0,0,0,,10,,,81,127
25944,note_off,91,0,0,,10,,,81,127
25956,note_off,12,0,0,,7,,,55,127
25968,note_on,12,0,0,,5,,,53,127
25968,note_on,0,0,0,,12,,,83,127
26059,note_off,91,0,0,,12,,,83,127
26071,note_off,12,0,0,,5,,,53,127
26083,note_on,12,0,0,,4,,,52,127
26083,note_on,0,0,0,,0,,,84,127
26174,note_off,91,0,0,,0,,,84,127
26186,note_off,12,0,0,,4,,,52,127
26198,note_on,12,0,0,,2,,,50,127
26198,note_on,0,0,0,,2,,,86,127
26289,note_off,91,0,0,,2,,,86,127
26301,note_off,12,0,0,,2,,,50,127
26313,note_on,12,0,0,,0,,,48,127
26313,note_on,0,0,0,,4,,,88,127
26416,note_off,103,0,0,,0,,,48,127
26428,note_on,12,0,0,,7,,,67,127
26428,note_on,0,0,0,,2,,,74,127
26429,note_off,1,0,0,,4,,,88,127
26531,note_off,102,0,0,,7,,,67,127
26543,note_on,12,0,0,,5,,,65,127
26543,note_on,0,0,0,,12,,,71,127
26544,note_off,1,0,0,,2,,,74,127
26646,note_off,102,0,0,,5,,,65,127
26658,note_on,12,0,0,,4,,,64,127
26658,note_on,0,0,0,,0,,,72,127
26659,note_off,1,0,0,,12,,,71,127
26761,note_off,102,0,0,,4,,,64,127
26773,note_on,12,0,0,,2,,,62,127
26773,note_on,0,0,0,,2,,,74,127
26774,note_off,1,0,0,,0,,,72,127
26876,note_off,102,0,0,,2,,,62,127
26888,note_on,12,0,0,,0,,,60,127
26888,note_on,0,0,0,,4,,,76,127
26889,note_off,1,0,0,,2,,,74,127
26991,note_off,102,0,0,,0,,,60,127
27003,note_on,12,0,0,,12,,,59,127
27003,note_on,0,0,0,,5,,,77,127
27004,note_off,1,0,0,,4,,,76,127
27106,note_off,102,0,0,,12,,,59,127
27118,note_on,12,0,0,,10,,,57,127
27118,note_on,0,0,0,,7,,,79,127
27119,note_off,1,0,0,,5,,,77,127
27221,note_off,102,0,0,,10,,,57,127
27233,note_on,12,0,0,,7,,,55,127
27233,note_on,0,0,0,,10,,,81,127
27234,note_off,1,0,0,,7,,,79,127
27336,note_off,102,0,0,,7,,,55,127
27348,note_on,12,0,0,,5,,,53,127
27348,note_on,0,0,0,,12,,,83,127
27349,note_off,1,0,0,,10,,,81,127
27451,note_off,102,0,0,,5,,,53,127
27463,note_on,12,0,0,,4,,,52,127
27463,note_on,0,0,0,,0,,,84,127
27464,note_off,1,0,0,,12,,,83,127
27566,note_off,102,0,0,,4,,,52,127
27578,note_on,12,0,0,,2,,,50,127
27578,note_on,0,0,0,,2,,,86,127
27579,note_off,1,0,0,,0,,,84,127
27681,note_off,102,0,0,,2,,,50,127
27693,note_on,12,0,0,,0,,,48,127
27693,note_on,0,0,0,,4,,,88,127
27694,note_off,1,0,0,,2,,,86,127
27808,note_on,114,0,0,,2,,,86,127
27809,note_off,1,0,0,,4,,,88,127
27919,note_off,110,0,0,,0,,,48,127
27923,note_on,4,0,0,,2,,,50,127
27923,note_on,0,0,0,,0,,,84,127
27924,note_off,1,0,0,,2,,,86,127
28038,note_on,114,0,0,,12,,,83,127
28039,note_off,1,0,0,,0,,,84,127
28149,note_off,110,0,0,,2,,,50,127
28153,note_on,4,0,0,,4,,,52,127
28153,note_on,0,0,0,,0,,,84,127
28154,note_off,1,0,0,,12,,,83,127
28268,note_on,114,0,0,,7,,,79,127
28269,note_off,1,0,0,,0,,,84,127
28379,note_off,110,0,0,,4,,,52,127
28383,note_on,4,0,0,,5,,,53,127
28383,note_on,0,0,0,,10,,,81,127
28384,note_off,1,0,0,,7,,,79,127
28498,note_on,114,0,0,,5,,,77,127
28499,note_off,1,0,0,,10,,,81,127
28609,note_off,110,0,0,,5,,,53,127
28613,note_on,4,0,0,,7,,,55,127
28613,note_on,0,0,0,,4,,,76,127
28614,note_off,1,0,0,,5,,,77,127
28728,note_on,114,0,0,,2,,,74,127
28729,note_off,1,0,0,,4,,,76,127
28839,note_off,110,0,0,,7,,,55,127
28843,note_on,4,0,0,,7,,,43,127
28843,note_on,0,0,0,,0,,,72,127
28844,note_off,1,0,0,,2,,,74,127
28958,note_on,114,0,0,,12,,,71,127
28959,note_off,1,0,0,,0,,,72,127
29069,note_off,110,0,0,,7,,,43,127
29073,note_on,4,0,0,,0,,,48,127
29073,note_on,0,0,0,,0,,,72,127
29074,note_off,1,0,0,,12,,,71,127
29164,note_off,90,0,0,,0,,,72,127
29176,note_off,12,0,0,,0,,,48,127
29188,note_on,12,0,0,,7,,,67,127
29188,note_on,0,0,0,,2,,,74,127
29279,note_off,91,0,0,,2,,,74,127
29291,note_off,12,0,0,,7,,,67,127
29303,note_on,12,0,0,,5,,,65,127
29303,note_on,0,0,0,,12,,,71,127
29394,note_off,91,0,0,,12,,,71,127
29406,note_off,12,0,0,,5,,,65,127
29418,note_on,12,0,0,,4,,,64,127
29418,note_on,0,0,0,,0,,,72,127
29509,note_off,91,0,0,,0,,,72,127
29521,note_off,12,0,0,,4,,,64,127
29533,note_on,12,0,0,,2,,,62,127
29533,note_on,0,0,0,,2,,,74,127
29624,note_off,91,0,0,,2,,,74,127
29636,note_off,12,0,0,,2,,,62,127
29648,note_on,12,0,0,,0,,,60,127
29648,note_on,0,0,0,,4,,,76,127
29739,note_off,91,0,0,,4,,,76,127
29751,note_off,12,0,0,,0,,,60,127
29763,note_on,12,0,0,,12,,,59,127
29763,note_on,0,0,0,,5,,,77,127
29854,note_off,91,0,0,,5,,,77,127
29866,note_off,12,0,0,,12,,,59,127
29878,note_on,12,0,0,,10,,,57,127
29878,note_on,0,0,0,,7,,,79,127
29969,note_off,91,0,0,,7,,,79,127
29981,note_off,12,0,0,,10,,,57,127
29993,note_on,12,0,0,,7,,,55,127
29993,note_on,0,0,0,,10,,,81,127
30084,note_off,91,0,0,,10,,,81,127
30096,note_off,12,0,0,,7,,,55,127
30108,note_on,12,0,0,,5,,,53,127
30108,note_on,0,0,0,,12,,,83,127
30199,note_off,91,0,0,,12,,,83,127
30211,note_off,12,0,0,,5,,,53,127
30223,note_on,12,0,0,,4,,,52,127
30223,note_on,0,0,0,,0,,,84,127
30314,note_off,91,0,0,,0,,,84,127
30326,note_off,12,0,0,,4,,,52,127
30338,note_on,12,0,0,,2,,,50,127
30338,note_on,0,0,0,,2,,,86,127
30429,note_off,91,0,0,,2,,,86,127
30441,note_off,12,0,0,,2,,,50,127
30453,note_on,12,0,0,,0,,,48,127
30453,note_on,0,0,0,,4,,,88,127
30556,note_off,103,0,0,,0,,,48,127
30568,note_on,12,0,0,,7,,,67,127
30568,note_on,0,0,0,,2,,,74,127
30569,note_off,1,0,0,,4,,,88,127
30671,note_off,102,0,0,,7,,,67,127
30683,note_on,12,0,0,,5,,,65,127
30683,note_on,0,0,0,,12,,,71,127
30684,note_off,1,0,0,,2,,,74,127
30786,note_off,102,0,0,,5,,,65,127
30798,note_on,12,0,0,,4,,,64,127
30798,note_on,0,0,0,,0,,,72,127
30799,note_off,1,0,0,,12,,,71,127
30901,note_off,102,0,0,,4,,,64,127
30913,note_on,12,0,0,,2,,,62,127
30913,note_on,0,0,0,,2,,,74,127
30914,note_off,1,0,0,,0,,,72,127
31016,note_off,102,0,0,,2,,,62,127
31028,note_on,12,0,0,,0,,,60,127
31028,note_on,0,0,0,,4,,,76,127
31029,note_off,1,0,0,,2,,,74,127
31131,note_off,102,0,0,,0,,,60,127
31143,note_on,12,0,0,,12,,,59,127
31143,note_on,0,0,0,,5,,,77,127
31144,note_off,1,0,0,,4,,,76,127
31246,note_off,102,0,0,,12,,,59,127
31258,note_on,12,0,0,,10,,,57,127
31258,note_on,0,0,0,,7,,,79,127
31259,note_off,1,0,0,,5,,,77,127
31361,note_off,102,0,0,,10,,,57,127
31373,note_on,12,0,0,,7,,,55,127
31373,note_on,0,0,0,,10,,,81,127
31374,note_off,1,0,0,,7,,,79,127
31476,note_off,102,0,0,,7,,,55,127
31488,note_on,12,0,0,,5,,,53,127
31488,note_on,0,0,0,,12,,,83,127
31489,note_off,1,0,0,,10,,,81,127
31591,note_off,102,0,0,,5,,,53,127
31603,note_on,12,0,0,,4,,,52,127
31603,note_on,0,0,0,,0,,,84,127
31604,note_off,1,0,0,,12,,,83,127
31706,note_off,102,0,0,,4,,,52,127
31718,note_on,12,0,0,,2,,,50,127
31718,note_on,0,0,0,,2,,,86,127
31719,note_off,1,0,0,,0,,,84,127
31821,note_off,102,0,0,,2,,,50,127
31833,note_on,12,0,0,,0,,,48,127
31833,note_on,0,0,0,,4,,,88,127
31834,note_off,1,0,0,,2,,,86,127
31948,note_on,114,0,0,,2,,,86,127
31949,note_off,1,0,0,,4,,,88,127
32059,note_off,110,0,0,,0,,,48,127
32063,note_on,4,0,0,,2,,,50,127
32063,note_on,0,0,0,,0,,,84,127
32064,note_off,1,0,0,,2,,,86,127
32178,note_on,114,0,0,,12,,,83,127
32179,note_off,1,0,0,,0,,,84,127
32289,note_off,110,0,0,,2,,,50,127
32293,note_on,4,0,0,,4,,,52,127
32293,note_on,0,0,0,,0,,,84,127
32294,note_off,1,0,0,,12,,,83,127
32408,note_on,114,0,0,,7,,,79,127
32409,note_off,1,0,0,,0,,,84,127
32519,note_off,110,0,0,,4,,,52,127
32523,note_on,4,0,0,,5,,,53,127
32523,note_on,0,0,0,,10,,,81,127
32524,note_off,1,0,0,,7,,,79,127
32638,note_on,114,0,0,,5,,,77,127
32639,note_off,1,0,0,,10,,,81,127
32749,note_off,110,0,0,,5,,,53,127
32753,note_on,4,0,0,,7,,,55,127
32753,note_on,0,0,0,,4,,,76,127
32754,note_off,1,0,0,,5,,,77,127
32868,note_on,114,0,0,,2,,,74,127
32869,note_off,1,0,0,,4,,,76,127
32979,note_off,110,0,0,,7,,,55,127
32983,note_on,4,0,0,,7,,,43,127
32983,note_on,0,0,0,,0,,,72,127
32984,note_off,1,0,0,,2,,,74,127
33098,note_on,114,0,0,,12,,,71,127
33099,note_off,1,0,0,,0,,,72,127
33209,note_off,110,0,0,,7,,,43,127
33213,note_on,4,0,0,,0,,,36,127
33213,note_on,0,0,0,,2,,,74,127
33214,note_off,1,0,0,,12,,,71,127
33251,note_on,37,0,0,,0,,,72,127
33270,note_off,19,0,0,,2,,,74,127
33289,note_on,19,0,0,,2,,,74,127
33308,note_off,19,0,0,,0,,,72,127
33314,note_off,6,0,0,,0,,,36,127
33327,note_on,13,0,0,,4,,,40,127
33327,note_on,0,0,0,,0,,,72,127
33346,note_off,19,0,0,,2,,,74,127
33429,note_off,83,0,0,,4,,,40,127
33442,note_on,13,0,0,,7,,,43,127
33544,note_off,102,0,0,,7,,,43,127
33557,note_on,13,0,0,,0,,,48,127
33659,note_off,102,0,0,,0,,,48,127
33672,note_on,13,0,0,,4,,,52,127
33774,note_off,102,0,0,,4,,,52,127
33787,note_on,13,0,0,,7,,,55,127
33889,note_off,102,0,0,,7,,,55,127
33902,note_on,13,0,0,,0,,,60,127
34017,note_on,115,0,0,,4,,,76,127
34018,note_off,1,0,0,,0,,,72,127
34128,note_off,110,0,0,,0,,,60,127
34132,note_on,4,0,0,,7,,,43,127
34132,note_on,0,0,0,,2,,,74,127
34133,note_off,1,0,0,,4,,,76,127
34247,note_on,114,0,0,,5,,,77,127
34248,note_off,1,0,0,,2,,,74,127
34362,note_on,114,0,0,,4,,,76,127
34363,note_off,1,0,0,,5,,,77,127
34477,note_on,114,0,0,,2,,,74,127
34478,note_off,1,0,0,,4,,,76,127
34579,note_off,101,0,0,,7,,,43,127
34592,note_on,13,0,0,,0,,,36,127
34630,note_on,38,0,0,,0,,,72,127
34654,note_off,24,0,0,,2,,,74,127
34668,note_on,14,0,0,,2,,,74,127
34687,note_off,19,0,0,,0,,,72,127
34693,note_off,6,0,0,,0,,,36,127
34706,note_on,13,0,0,,4,,,40,127
34706,note_on,0,0,0,,0,,,72,127
34725,note_off,19,0,0,,2,,,74,127
34808,note_off,83,0,0,,4,,,40,127
34821,note_on,13,0,0,,7,,,43,127
34923,note_off,102,0,0,,7,,,43,127
34936,note_on,13,0,0,,0,,,48,127
35038,note_off,102,0,0,,0,,,48,127
35051,note_on,13,0,0,,4,,,52,127
35153,note_off,102,0,0,,4,,,52,127
35166,note_on,13,0,0,,7,,,55,127
35268,note_off,102,0,0,,7,,,55,127
35281,note_on,13,0,0,,0,,,60,127
35396,note_on,115,0,0,,4,,,76,127
35397,note_off,1,0,0,,0,,,72,127
35507,note_off,110,0,0,,0,,,60,127
35511,note_on,4,0,0,,7,,,43,127
35511,note_on,0,0,0,,2,,,74,127
35512,note_off,1,0,0,,4,,,76,127
35626,note_on,114,0,0,,5,,,77,127
35627,note_off,1,0,0,,2,,,74,127
35741,note_on,114,0,0,,4,,,76,127
35742,note_off,1,0,0,,5,,,77,127
35856,note_on,114,0,0,,2,,,74,127
35857,note_off,1,0,0,,4,,,76,127
35958,note_off,101,0,0,,7,,,43,127
35971,note_on,13,0,0,,0,,,48,127
35971,note_on,0,0,0,,0,,,72,127
35972,note_off,1,0,0,,2,,,74,127
36081,note_off,109,0,0,,0,,,72,127
36086,note_on,5,0,0,,0,,,84,127
36197,note_off,111,0,0,,0,,,48,127
36201,note_on,4,0,0,,2,,,50,127
36201,note_on,0,0,0,,7,,,79,127
36202,note_off,1,0,0,,0,,,84,127
36316,note_on,114,0,0,,4,,,76,127
36317,note_off,1,0,0,,7,,,79,127
36427,note_off,110,0,0,,2,,,50,127
36431,note_on,4,0,0,,4,,,52,127
36431,note_on,0,0,0,,0,,,72,127
36432,note_off,1,0,0,,4,,,76,127
36546,note_on,114,0,0,,7,,,79,127
36547,note_off,1,0,0,,0,,,72,127
36657,note_off,110,0,0,,4,,,52,127
36661,note_on,4,0,0,,5,,,53,127
36661,note_on,0,0,0,,10,,,69,127
36662,note_off,1,0,0,,7,,,79,127
36776,note_on,114,0,0,,5,,,77,127
36834,note_off,58,0,0,,10,,,69,127
36888,note_off,54,0,0,,5,,,53,127
36892,note_on,4,0,0,,7,,,55,127
36892,note_on,0,0,0,,7,,,67,127
36893,note_off,1,0,0,,5,,,77,127
37007,note_on,114,0,0,,4,,,76,127
37065,note_off,58,0,0,,7,,,67,127
37119,note_off,54,0,0,,7,,,55,127
37123,note_on,4,0,0,,7,,,43,127
37123,note_on,0,0,0,,5,,,65,127
37124,note_off,1,0,0,,4,,,76,127
37238,note_on,114,0,0,,2,,,74,127
37296,note_off,58,0,0,,5,,,65,127
37350,note_off,54,0,0,,7,,,43,127
37354,note_on,4,0,0,,0,,,48,127
37354,note_on,0,0,0,,0,,,72,127
37354,note_on,0,0,0,,4,,,64,127
37355,note_off,1,0,0,,2,,,74,127
37460,note_off,105,0,0,,4,,,64,127
37469,note_on,9,0,0,,0,,,84,127
37470,note_off,1,0,0,,0,,,72,127
37580,note_off,110,0,0,,0,,,48,127
37584,note_on,4,0,0,,2,,,50,127
37584,note_on,0,0,0,,7,,,79,127
37585,note_off,1,0,0,,0,,,84,127
37699,note_on,114,0,0,,4,,,76,127
37700,note_off,1,0,0,,7,,,79,127
37810,note_off,110,0,0,,2,,,50,127
37814,note_on,4,0,0,,4,,,52,127
37814,note_on,0,0,0,,0,,,72,127
37815,note_off,1,0,0,,4,,,76,127
37929,note_on,114,0,0,,7,,,79,127
37930,note_off,1,0,0,,0,,,72,127
38040,note_off,110,0,0,,4,,,52,127
38044,note_on,4,0,0,,5,,,53,127
38044,note_on,0,0,0,,10,,,69,127
38045,note_off,1,0,0,,7,,,79,127
38159,note_on,114,0,0,,5,,,77,127
38217,note_off,58,0,0,,10,,,69,127
38271,note_off,54,0,0,,5,,,53,127
38275,note_on,4,0,0,,7,,,55,127
38275,note_on,0,0,0,,7,,,67,127
38276,note_off,1,0,0,,5,,,77,127
38390,note_on,114,0,0,,4,,,76,127
38448,note_off,58,0,0,,7,,,67,127
38502,note_off,54,0,0,,7,,,55,127
38506,note_on,4,0,0,,7,,,43,127
38506,note_on,0,0,0,,5,,,65,127
38507,note_off,1,0,0,,4,,,76,127
38621,note_on,114,0,0,,2,,,74,127
38679,note_off,58,0,0,,5,,,65,127
38733,note_off,54,0,0,,7,,,43,127
38737,note_on,4,0,0,,0,,,48,127
38737,note_on,0,0,0,,0,,,72,127
38737,note_on,0,0,0,,4,,,64,127
38738,note_off,1,0,0,,2,,,74,127
38843,note_off,105,0,0,,4,,,64,127
38852,note_on,9,0,0,,0,,,84,127
38853,note_off,1,0,0,,0,,,72,127
38963,note_off,110,0,0,,0,,,48,127
38967,note_on,4,0,0,,2,,,50,127
38967,note_on,0,0,0,,7,,,79,127
38968,note_off,1,0,0,,0,,,84,127
39082,note_on,114,0,0,,4,,,76,127
39083,note_off,1,0,0,,7,,,79,127
39193,note_off,110,0,0,,2,,,50,127
39197,note_on,4,0,0,,4,,,52,127
39197,note_on,0,0,0,,0,,,72,127
39198,note_off,1,0,0,,4,,,76,127
39312,note_on,114,0,0,,7,,,79,127
39313,note_off,1,0,0,,0,,,72,127
39423,note_off,110,0,0,,4,,,52,127
39427,note_on,4,0,0,,5,,,53,127
39427,note_on,0,0,0,,10,,,69,127
39428,note_off,1,0,0,,7,,,79,127
39542,note_on,114,0,0,,5,,,77,127
39543,note_off,1,0,0,,10,,,69,127
39653,note_off,110,0,0,,5,,,53,127
39657,note_on,4,0,0,,7,,,55,127
39657,note_on,0,0,0,,4,,,76,127
39658,note_off,1,0,0,,5,,,77,127
39772,note_on,114,0,0,,2,,,74,127
39773,note_off,1,0,0,,4,,,76,127
39883,note_off,110,0,0,,7,,,55,127
39887,note_on,4,0,0,,7,,,43,127
39887,note_on,0,0,0,,0,,,72,127
39888,note_off,1,0,0,,2,,,74,127
40002,note_on,114,0,0,,12,,,71,127
40003,note_off,1,0,0,,0,,,72,127
40113,note_off,110,0,0,,7,,,43,127
40117,note_on,4,0,0,,0,,,36,127
40117,note_on,0,0,0,,2,,,74,127
40118,note_off,1,0,0,,12,,,71,127
40155,note_on,37,0,0,,0,,,72,127
40174,note_off,19,0,0,,2,,,74,127
40193,note_on,19,0,0,,2,,,74,127
40212,note_off,19,0,0,,0,,,72,127
40231,note_on,19,0,0,,0,,,72,127
40250,note_off,19,0,0,,2,,,74,127
40794,note_off,544,0,0,,0,,,36,127
40807,note_on,13,0,0,,0,,,48,127
40910,note_off,103,0,0,,0,,,48,127
40922,note_on,12,0,0,,0,,,60,127
40922,note_on,0,0,0,,7,,,67,127
40923,note_off,1,0,0,,0,,,72,127
41025,note_off,102,0,0,,0,,,60,127
41037,note_on,12,0,0,,11,,,58,127
41037,note_on,0,0,0,,4,,,64,127
41038,note_off,1,0,0,,7,,,67,127
41140,note_off,102,0,0,,11,,,58,127
41152,note_on,12,0,0,,10,,,57,127
41152,note_on,0,0,0,,5,,,65,127
41153,note_off,1,0,0,,4,,,64,127
41255,note_off,102,0,0,,10,,,57,127
41267,note_on,12,0,0,,7,,,55,127
41267,note_on,0,0,0,,7,,,67,127
41268,note_off,1,0,0,,5,,,65,127
41370,note_off,102,0,0,,7,,,55,127
41382,note_on,12,0,0,,5,,,53,127
41382,note_on,0,0,0,,10,,,69,127
41383,note_off,1,0,0,,7,,,67,127
41485,note_off,102,0,0,,5,,,53,127
41497,note_on,12,0,0,,4,,,52,127
41497,note_on,0,0,0,,11,,,70,127
41498,note_off,1,0,0,,10,,,69,127
41600,note_off,102,0,0,,4,,,52,127
41612,note_on,12,0,0,,2,,,50,127
41612,note_on,0,0,0,,0,,,72,127
41613,note_off,1,0,0,,11,,,70,127
41715,note_off,102,0,0,,2,,,50,127
41727,note_on,12,0,0,,0,,,48,127
41727,note_on,0,0,0,,2,,,74,127
41728,note_off,1,0,0,,0,,,72,127
41830,note_off,102,0,0,,0,,,48,127
41842,note_on,12,0,0,,11,,,46,127
41842,note_on,0,0,0,,4,,,76,127
41843,note_off,1,0,0,,2,,,74,127
41945,note_off,102,0,0,,11,,,46,127
41957,note_on,12,0,0,,10,,,45,127
41957,note_on,0,0,0,,5,,,77,127
41958,note_off,1,0,0,,4,,,76,127
42060,note_off,102,0,0,,10,,,45,127
42072,note_on,12,0,0,,7,,,43,127
42072,note_on,0,0,0,,7,,,79,127
42073,note_off,1,0,0,,5,,,77,127
42175,note_off,102,0,0,,7,,,43,127
42187,note_on,12,0,0,,5,,,41,127
42187,note_on,0,0,0,,10,,,81,127
42188,note_off,1,0,0,,7,,,79,127
42278,note_off,90,0,0,,10,,,81,127
42290,note_off,12,0,0,,5,,,41,127
42302,note_on,12,0,0,,0,,,60,127
42302,note_on,0,0,0,,7,,,67,127
42393,note_off,91,0,0,,7,,,67,127
42405,note_off,12,0,0,,0,,,60,127
42417,note_on,12,0,0,,11,,,58,127
42417,note_on,0,0,0,,4,,,64,127
42508,note_off,91,0,0,,4,,,64,127
42520,note_off,12,0,0,,11,,,58,127
42532,note_on,12,0,0,,10,,,57,127
42532,note_on,0,0,0,,5,,,65,127
42623,note_off,91,0,0,,5,,,65,127
42635,note_off,12,0,0,,10,,,57,127
42647,note_on,12,0,0,,7,,,55,127
42647,note_on,0,0,0,,7,,,67,127
42738,note_off,91,0,0,,7,,,67,127
42750,note_off,12,0,0,,7,,,55,127
42762,note_on,12,0,0,,5,,,53,127
42762,note_on,0,0,0,,10,,,69,127
42853,note_off,91,0,0,,10,,,69,127
42865,note_off,12,0,0,,5,,,53,127
42877,note_on,12,0,0,,4,,,52,127
42877,note_on,0,0,0,,11,,,70,127
42968,note_off,91,0,0,,11,,,70,127
42980,note_off,12,0,0,,4,,,52,127
42992,note_on,12,0,0,,2,,,50,127
42992,note_on,0,0,0,,0,,,72,127
43083,note_off,91,0,0,,0,,,72,127
43095,note_off,12,0,0,,2,,,50,127
43107,note_on,12,0,0,,0,,,48,127
43107,note_on,0,0,0,,2,,,74,127
43198,note_off,91,0,0,,2,,,74,127
43210,note_off,12,0,0,,0,,,48,127
43222,note_on,12,0,0,,11,,,46,127
43222,note_on,0,0,0,,4,,,76,127
43313,note_off,91,0,0,,4,,,76,127
43325,note_off,12,0,0,,11,,,46,127
43337,note_on,12,0,0,,10,,,45,127
43337,note_on,0,0,0,,5,,,77,127
43428,note_off,91,0,0,,5,,,77,127
43440,note_off,12,0,0,,10,,,45,127
43452,note_on,12,0,0,,7,,,43,127
43452,note_on,0,0,0,,7,,,79,127
43543,note_off,91,0,0,,7,,,79,127
43555,note_off,12,0,0,,7,,,43,127
43567,note_on,12,0,0,,5,,,41,127
43567,note_on,0,0,0,,10,,,81,127
43682,note_on,115,0,0,,4,,,76,127
43683,note_off,1,0,0,,10,,,81,127
43797,note_on,114,0,0,,5,,,77,127
43798,note_off,1,0,0,,4,,,76,127
43912,note_on,114,0,0,,1,,,73,127
43913,note_off,1,0,0,,5,,,77,127
44027,note_on,114,0,0,,2,,,74,127
44028,note_off,1,0,0,,1,,,73,127
44142,note_on,114,0,0,,10,,,69,127
44143,note_off,1,0,0,,2,,,74,127
44244,note_off,101,0,0,,5,,,41,127
44257,note_on,13,0,0,,7,,,43,127
44257,note_on,0,0,0,,11,,,70,127
44258,note_off,1,0,0,,10,,,69,127
44372,note_on,114,0,0,,5,,,65,127
44373,note_off,1,0,0,,11,,,70,127
44487,note_on,114,0,0,,7,,,67,127
44488,note_off,1,0,0,,5,,,65,127
44602,note_on,114,0,0,,4,,,64,127
44603,note_off,1,0,0,,7,,,67,127
44717,note_on,114,0,0,,5,,,65,127
44718,note_off,1,0,0,,4,,,64,127
44832,note_on,114,0,0,,2,,,62,127
44833,note_off,1,0,0,,5,,,65,127
44934,note_off,101,0,0,,7,,,43,127
44947,note_on,13,0,0,,10,,,45,127
45024,note_on,77,0,0,,1,,,61,127
45030,note_off,6,0,0,,2,,,62,127
45062,note_on,32,0,0,,2,,,62,127
45081,note_off,19,0,0,,1,,,61,127
45100,note_on,19,0,0,,1,,,61,127
45119,note_off,19,0,0,,2,,,62,127
45138,note_on,19,0,0,,2,,,62,127
45157,note_off,19,0,0,,1,,,61,127
45176,note_on,19,0,0,,1,,,61,127
45195,note_off,19,0,0,,2,,,62,127
45291,note_on,96,0,0,,12,,,59,127
45293,note_off,2,0,0,,1,,,61,127
45406,note_on,113,0,0,,10,,,57,127
45407,note_off,1,0,0,,12,,,59,127
45623,note_off,216,0,0,,10,,,45,127
45634,note_off,11,0,0,,10,,,57,127
45636,note_on,2,0,0,,10,,,57,127
45751,note_on,115,0,0,,10,,,69,127
45751,note_on,0,0,0,,4,,,76,127
45752,note_off,1,0,0,,10,,,57,127
45854,note_off,102,0,0,,10,,,69,127
45866,note_on,12,0,0,,7,,,67,127
45866,note_on,0,0,0,,1,,,73,127
45867,note_off,1,0,0,,4,,,76,127
45969,note_off,102,0,0,,7,,,67,127
45981,note_on,12,0,0,,5,,,65,127
45981,note_on,0,0,0,,2,,,74,127
45982,note_off,1,0,0,,1,,,73,127
46084,note_off,102,0,0,,5,,,65,127
46096,note_on,12,0,0,,4,,,64,127
46096,note_on,0,0,0,,4,,,76,127
46097,note_off,1,0,0,,2,,,74,127
46199,note_off,102,0,0,,4,,,64,127
46211,note_on,12,0,0,,2,,,62,127
46211,note_on,0,0,0,,5,,,77,127
46212,note_off,1,0,0,,4,,,76,127
46314,note_off,102,0,0,,2,,,62,127
46326,note_on,12,0,0,,1,,,61,127
46326,note_on,0,0,0,,7,,,79,127
46327,note_off,1,0,0,,5,,,77,127
46429,note_off,102,0,0,,1,,,61,127
46441,note_on,12,0,0,,12,,,59,127
46441,note_on,0,0,0,,10,,,81,127
46442,note_off,1,0,0,,7,,,79,127
46544,note_off,102,0,0,,12,,,59,127
46556,note_on,12,0,0,,10,,,57,127
46556,note_on,0,0,0,,12,,,83,127
46557,note_off,1,0,0,,10,,,81,127
46659,note_off,102,0,0,,10,,,57,127
46671,note_on,12,0,0,,7,,,55,127
46671,note_on,0,0,0,,1,,,85,127
46672,note_off,1,0,0,,12,,,83,127
46774,note_off,102,0,0,,7,,,55,127
46786,note_on,12,0,0,,5,,,53,127
46786,note_on,0,0,0,,2,,,86,127
46787,note_off,1,0,0,,1,,,85,127
46889,note_off,102,0,0,,5,,,53,127
46901,note_on,12,0,0,,4,,,52,127
46901,note_on,0,0,0,,1,,,85,127
46902,note_off,1,0,0,,2,,,86,127
47004,note_off,102,0,0,,4,,,52,127
47016,note_on,12,0,0,,2,,,50,127
47016,note_on,0,0,0,,2,,,86,127
47017,note_off,1,0,0,,1,,,85,127
47107,note_off,90,0,0,,2,,,86,127
47119,note_off,12,0,0,,2,,,50,127
47131,note_on,12,0,0,,10,,,69,127
47131,note_on,0,0,0,,4,,,76,127
47222,note_off,91,0,0,,4,,,76,127
47234,note_off,12,0,0,,10,,,69,127
47246,note_on,12,0,0,,7,,,67,127
47246,note_on,0,0,0,,1,,,73,127
47337,note_off,91,0,0,,1,,,73,127
47349,note_off,12,0,0,,7,,,67,127
47361,note_on,12,0,0,,5,,,65,127
47361,note_on,0,0,0,,2,,,74,127
47452,note_off,91,0,0,,2,,,74,127
47464,note_off,12,0,0,,5,,,65,127
47476,note_on,12,0,0,,4,,,64,127
47476,note_on,0,0,0,,4,,,76,127
47567,note_off,91,0,0,,4,,,76,127
47579,note_off,12,0,0,,4,,,64,127
47591,note_on,12,0,0,,2,,,62,127
47591,note_on,0,0,0,,5,,,77,127
47682,note_off,91,0,0,,5,,,77,127
47694,note_off,12,0,0,,2,,,62,127
47706,note_on,12,0,0,,1,,,61,127
47706,note_on,0,0,0,,7,,,79,127
47797,note_off,91,0,0,,7,,,79,127
47809,note_off,12,0,0,,1,,,61,127
47821,note_on,12,0,0,,12,,,59,127
47821,note_on,0,0,0,,10,,,81,127
47912,note_off,91,0,0,,10,,,81,127
47924,note_off,12,0,0,,12,,,59,127
47936,note_on,12,0,0,,10,,,57,127
47936,note_on,0,0,0,,12,,,83,127
48027,note_off,91,0,0,,12,,,83,127
48039,note_off,12,0,0,,10,,,57,127
48051,note_on,12,0,0,,7,,,55,127
48051,note_on,0,0,0,,1,,,85,127
48142,note_off,91,0,0,,1,,,85,127
48154,note_off,12,0,0,,7,,,55,127
48166,note_on,12,0,0,,5,,,53,127
48166,note_on,0,0,0,,2,,,86,127
48257,note_off,91,0,0,,2,,,86,127
48269,note_off,12,0,0,,5,,,53,127
48281,note_on,12,0,0,,4,,,52,127
48281,note_on,0,0,0,,1,,,85,127
48372,note_off,91,0,0,,1,,,85,127
48384,note_off,12,0,0,,4,,,52,127
48396,note_on,12,0,0,,2,,,50,127
48396,note_on,0,0,0,,2,,,86,127
48511,note_on,115,0,0,,10,,,81,127
48512,note_off,1,0,0,,2,,,86,127
48622,note_off,110,0,0,,2,,,50,127
48626,note_on,4,0,0,,2,,,62,127
48626,note_on,0,0,0,,6,,,78,127
48627,note_off,1,0,0,,10,,,81,127
48741,note_on,114,0,0,,7,,,79,127
48742,note_off,1,0,0,,6,,,78,127
48852,note_off,110,0,0,,2,,,62,127
48856,note_on,4,0,0,,6,,,54,127
48856,note_on,0,0,0,,10,,,81,127
48857,note_off,1,0,0,,7,,,79,127
48971,note_on,114,0,0,,0,,,84,127
48972,note_off,1,0,0,,10,,,81,127
49082,note_off,110,0,0,,6,,,54,127
49086,note_on,4,0,0,,7,,,55,127
49086,note_on,0,0,0,,11,,,82,127
49087,note_off,1,0,0,,0,,,84,127
49201,note_on,114,0,0,,2,,,74,127
49313,note_off,112,0,0,,7,,,55,127
49317,note_off,4,0,0,,11,,,82,127
49317,note_on,0,0,0,,0,,,48,127
49317,note_on,0,0,0,,0,,,72,127
49318,note_off,1,0,0,,2,,,74,127
49432,note_on,114,0,0,,10,,,81,127
49433,note_off,1,0,0,,0,,,72,127
49543,note_off,110,0,0,,0,,,48,127
49547,note_on,4,0,0,,3,,,51,127
49547,note_on,0,0,0,,7,,,79,127
49548,note_off,1,0,0,,10,,,81,127
49662,note_on,114,0,0,,11,,,70,127
49774,note_off,112,0,0,,3,,,51,127
49778,note_off,4,0,0,,7,,,79,127
49778,note_on,0,0,0,,2,,,50,127
49778,note_on,0,0,0,,10,,,69,127
49778,note_on,0,0,0,,6,,,78,127
49779,note_off,1,0,0,,11,,,70,127
49884,note_off,105,0,0,,10,,,69,127
49893,note_on,9,0,0,,2,,,86,127
49894,note_off,1,0,0,,6,,,78,127
50004,note_off,110,0,0,,2,,,50,127
50008,note_on,4,0,0,,2,,,62,127
50008,note_on,0,0,0,,6,,,78,127
50009,note_off,1,0,0,,2,,,86,127
50123,note_on,114,0,0,,7,,,79,127
50124,note_off,1,0,0,,6,,,78,127
50234,note_off,110,0,0,,2,,,62,127
50238,note_on,4,0,0,,6,,,54,127
50238,note_on,0,0,0,,10,,,81,127
50239,note_off,1,0,0,,7,,,79,127
50353,note_on,114,0,0,,0,,,84,127
50354,note_off,1,0,0,,10,,,81,127
50464,note_off,110,0,0,,6,,,54,127
50468,note_on,4,0,0,,7,,,55,127
50468,note_on,0,0,0,,11,,,82,127
50469,note_off,1,0,0,,0,,,84,127
50583,note_on,114,0,0,,2,,,74,127
50695,note_off,112,0,0,,7,,,55,127
50699,note_off,4,0,0,,11,,,82,127
50699,note_on,0,0,0,,0,,,48,127
50699,note_on,0,0,0,,0,,,72,127
50700,note_off,1,0,0,,2,,,74,127
50814,note_on,114,0,0,,10,,,81,127
50815,note_off,1,0,0,,0,,,72,127
50925,note_off,110,0,0,,0,,,48,127
50929,note_on,4,0,0,,3,,,51,127
50929,note_on,0,0,0,,7,,,79,127
50930,note_off,1,0,0,,10,,,81,127
51044,note_on,114,0,0,,11,,,70,127
51156,note_off,112,0,0,,3,,,51,127
51160,note_off,4,0,0,,7,,,79,127
51160,note_on,0,0,0,,2,,,50,127
51160,note_on,0,0,0,,10,,,69,127
51160,note_on,0,0,0,,6,,,78,127
51161,note_off,1,0,0,,11,,,70,127
51266,note_off,105,0,0,,10,,,69,127
51275,note_on,9,0,0,,2,,,86,127
51276,note_off,1,0,0,,6,,,78,127
51386,note_off,110,0,0,,2,,,50,127
51390,note_on,4,0,0,,2,,,62,127
51390,note_on,0,0,0,,6,,,78,127
51391,note_off,1,0,0,,2,,,86,127
51505,note_on,114,0,0,,7,,,79,127
51506,note_off,1,0,0,,6,,,78,127
51616,note_off,110,0,0,,2,,,62,127
51620,note_on,4,0,0,,6,,,54,127
51620,note_on,0,0,0,,10,,,81,127
51621,note_off,1,0,0,,7,,,79,127
51735,note_on,114,0,0,,0,,,84,127
51736,note_off,1,0,0,,10,,,81,127
51846,note_off,110,0,0,,6,,,54,127
51850,note_on,4,0,0,,7,,,55,127
51850,note_on,0,0,0,,11,,,82,127
51851,note_off,1,0,0,,0,,,84,127
51965,note_on,114,0,0,,10,,,81,127
51966,note_off,1,0,0,,11,,,82,127
52076,note_off,110,0,0,,7,,,55,127
52080,note_on,4,0,0,,10,,,57,127
52080,note_on,0,0,0,,7,,,79,127
52081,note_off,1,0,0,,10,,,81,127
52195,note_on,114,0,0,,5,,,77,127
52196,note_off,1,0,0,,7,,,79,127
52306,note_off,110,0,0,,10,,,57,127
52310,note_on,4,0,0,,11,,,58,127
52310,note_on,0,0,0,,4,,,76,127
52311,note_off,1,0,0,,5,,,77,127
52425,note_on,114,0,0,,2,,,74,127
52426,note_off,1,0,0,,4,,,76,127
52536,note_off,110,0,0,,11,,,58,127
52540,note_on,4,0,0,,0,,,48,127
52540,note_on,0,0,0,,4,,,76,127
52541,note_off,1,0,0,,2,,,74,127
52655,note_on,114,0,0,,0,,,84,127
52656,note_off,1,0,0,,4,,,76,127
52766,note_off,110,0,0,,0,,,48,127
52770,note_on,4,0,0,,2,,,50,127
52770,note_on,0,0,0,,11,,,82,127
52771,note_off,1,0,0,,0,,,84,127
52885,note_on,114,0,0,,2,,,74,127
52886,note_off,1,0,0,,11,,,82,127
52996,note_off,110,0,0,,2,,,50,127
53000,note_on,4,0,0,,4,,,52,127
53000,note_on,0,0,0,,0,,,72,127
53001,note_off,1,0,0,,2,,,74,127
53115,note_on,114,0,0,,11,,,82,127
53116,note_off,1,0,0,,0,,,72,127
53226,note_off,110,0,0,,4,,,52,127
53230,note_on,4,0,0,,5,,,53,127
53230,note_on,0,0,0,,10,,,81,127
53231,note_off,1,0,0,,11,,,82,127
53345,note_on,114,0,0,,0,,,72,127
53457,note_off,112,0,0,,5,,,53,127
53461,note_on,4,0,0,,11,,,46,127
53461,note_on,0,0,0,,11,,,70,127
53462,note_off,1,0,0,,0,,,72,127
53576,note_off,114,0,0,,10,,,81,127
53576,note_on,0,0,0,,7,,,79,127
53577,note_off,1,0,0,,11,,,70,127
53687,note_off,110,0,0,,11,,,46,127
53691,note_on,4,0,0,,2,,,50,127
53691,note_on,0,0,0,,5,,,77,127
53692,note_off,1,0,0,,7,,,79,127
53806,note_on,114,0,0,,10,,,69,127
53918,note_off,112,0,0,,2,,,50,127
53922,note_off,4,0,0,,5,,,77,127
53922,note_on,0,0,0,,0,,,48,127
53922,note_on,0,0,0,,4,,,76,127
53922,note_on,0,0,0,,7,,,67,127
53923,note_off,1,0,0,,10,,,69,127
54028,note_off,105,0,0,,7,,,67,127
54037,note_on,9,0,0,,0,,,84,127
54038,note_off,1,0,0,,4,,,76,127
54148,note_off,110,0,0,,0,,,48,127
54152,note_on,4,0,0,,2,,,50,127
54152,note_on,0,0,0,,11,,,82,127
54153,note_off,1,0,0,,0,,,84,127
54267,note_on,114,0,0,,2,,,74,127
54268,note_off,1,0,0,,11,,,82,127
54378,note_off,110,0,0,,2,,,50,127
54382,note_on,4,0,0,,4,,,52,127
54382,note_on,0,0,0,,0,,,72,127
54383,note_off,1,0,0,,2,,,74,127
54497,note_on,114,0,0,,11,,,82,127
54498,note_off,1,0,0,,0,,,72,127
54608,note_off,110,0,0,,4,,,52,127
54612,note_on,4,0,0,,5,,,53,127
54612,note_on,0,0,0,,10,,,81,127
54613,note_off,1,0,0,,11,,,82,127
54727,note_on,114,0,0,,0,,,72,127
54839,note_off,112,0,0,,5,,,53,127
54843,note_off,4,0,0,,10,,,81,127
54843,note_on,0,0,0,,11,,,46,127
54843,note_on,0,0,0,,11,,,70,127
54844,note_off,1,0,0,,0,,,72,127
54958,note_on,114,0,0,,7,,,79,127
54959,note_off,1,0,0,,11,,,70,127
55069,note_off,110,0,0,,11,,,46,127
55073,note_on,4,0,0,,2,,,50,127
55073,note_on,0,0,0,,5,,,77,127
55074,note_off,1,0,0,,7,,,79,127
55188,note_on,114,0,0,,10,,,69,127
55300,note_off,112,0,0,,2,,,50,127
55304,note_off,4,0,0,,5,,,77,127
55304,note_on,0,0,0,,0,,,36,127
55304,note_on,0,0,0,,7,,,67,127
55304,note_on,0,0,0,,4,,,76,127
55305,note_off,1,0,0,,10,,,69,127
55406,note_off,101,0,0,,0,,,36,127
55419,note_on,13,0,0,,4,,,40,127
55521,note_off,102,0,0,,4,,,40,127
55534,note_on,13,0,0,,7,,,43,127
55636,note_off,102,0,0,,7,,,43,127
55649,note_on,13,0,0,,0,,,48,127
55751,note_off,102,0,0,,0,,,48,127
55764,note_off,13,0,0,,4,,,76,127
55764,note_off,0,0,0,,7,,,67,127
55764,note_on,0,0,0,,4,,,52,127
55866,note_off,102,0,0,,4,,,52,127
55879,note_on,13,0,0,,7,,,55,127
55981,note_off,102,0,0,,7,,,55,127
55994,note_on,13,0,0,,0,,,60,127
56109,note_on,115,0,0,,4,,,76,127
56221,note_off,112,0,0,,0,,,60,127
56225,note_on,4,0,0,,7,,,43,127
56225,note_on,0,0,0,,2,,,74,127
56226,note_off,1,0,0,,4,,,76,127
56340,note_on,114,0,0,,5,,,77,127
56341,note_off,1,0,0,,2,,,74,127
56455,note_on,114,0,0,,4,,,76,127
56456,note_off,1,0,0,,5,,,77,127
56570,note_on,114,0,0,,2,,,74,127
56571,note_off,1,0,0,,4,,,76,127
56672,note_off,101,0,0,,7,,,43,127
56685,note_on,13,0,0,,0,,,36,127
56723,note_on,38,0,0,,0,,,72,127
56747,note_off,24,0,0,,2,,,74,127
56761,note_on,14,0,0,,2,,,74,127
56780,note_off,19,0,0,,0,,,72,127
56786,note_off,6,0,0,,0,,,36,127
56799,note_on,13,0,0,,4,,,40,127
56799,note_on,0,0,0,,0,,,72,127
56818,note_off,19,0,0,,2,,,74,127
56901,note_off,83,0,0,,4,,,40,127
56914,note_on,13,0,0,,7,,,43,127
57016,note_off,102,0,0,,7,,,43,127
57029,note_on,13,0,0,,0,,,48,127
57131,note_off,102,0,0,,0,,,48,127
57144,note_on,13,0,0,,4,,,52,127
57246,note_off,102,0,0,,4,,,52,127
57259,note_on,13,0,0,,7,,,55,127
57361,note_off,102,0,0,,7,,,55,127
57374,note_on,13,0,0,,0,,,60,127
57489,note_on,115,0,0,,7,,,79,127
57490,note_off,1,0,0,,0,,,72,127
57600,note_off,110,0,0,,0,,,60,127
57604,note_on,4,0,0,,7,,,43,127
57604,note_on,0,0,0,,12,,,71,127
57605,note_off,1,0,0,,7,,,79,127
57719,note_on,114,0,0,,2,,,74,127
57720,note_off,1,0,0,,12,,,71,127
57834,note_on,114,0,0,,0,,,72,127
57835,note_off,1,0,0,,2,,,74,127
57949,note_on,114,0,0,,12,,,71,127
57950,note_off,1,0,0,,0,,,72,127
58051,note_off,101,0,0,,7,,,43,127
58064,note_on,13,0,0,,0,,,48,127
58064,note_on,0,0,0,,0,,,72,127
58065,note_off,1,0,0,,12,,,71,127
58167,note_off,102,0,0,,0,,,48,127
58179,note_on,12,0,0,,0,,,60,127
58179,note_on,0,0,0,,7,,,67,127
58180,note_off,1,0,0,,0,,,72,127
58282,note_off,102,0,0,,0,,,60,127
58294,note_on,12,0,0,,11,,,58,127
58294,note_on,0,0,0,,4,,,64,127
58295,note_off,1,0,0,,7,,,67,127
58397,note_off,102,0,0,,11,,,58,127
58409,note_on,12,0,0,,10,,,57,127
58409,note_on,0,0,0,,5,,,65,127
58410,note_off,1,0,0,,4,,,64,127
58512,note_off,102,0,0,,10,,,57,127
58524,note_on,12,0,0,,7,,,55,127
58524,note_on,0,0,0,,7,,,67,127
58525,note_off,1,0,0,,5,,,65,127
58627,note_off,102,0,0,,7,,,55,127
58639,note_on,12,0,0,,5,,,53,127
58639,note_on,0,0,0,,10,,,69,127
58640,note_off,1,0,0,,7,,,67,127
58742,note_off,102,0,0,,5,,,53,127
58754,note_on,12,0,0,,4,,,52,127
58754,note_on,0,0,0,,11,,,70,127
58755,note_off,1,0,0,,10,,,69,127
58857,note_off,102,0,0,,4,,,52,127
58869,note_on,12,0,0,,2,,,50,127
58869,note_on,0,0,0,,0,,,72,127
58870,note_off,1,0,0,,11,,,70,127
58972,note_off,102,0,0,,2,,,50,127
58984,note_on,12,0,0,,0,,,48,127
58984,note_on,0,0,0,,2,,,74,127
58985,note_off,1,0,0,,0,,,72,127
59087,note_off,102,0,0,,0,,,48,127
59099,note_on,12,0,0,,11,,,46,127
59099,note_on,0,0,0,,4,,,76,127
59100,note_off,1,0,0,,2,,,74,127
59202,note_off,102,0,0,,11,,,46,127
59214,note_on,12,0,0,,10,,,45,127
59214,note_on,0,0,0,,5,,,77,127
59215,note_off,1,0,0,,4,,,76,127
59317,note_off,102,0,0,,10,,,45,127
59329,note_on,12,0,0,,7,,,43,127
59329,note_on,0,0,0,,7,,,79,127
59330,note_off,1,0,0,,5,,,77,127
59432,note_off,102,0,0,,7,,,43,127
59444,note_on,12,0,0,,5,,,41,127
59444,note_on,0,0,0,,10,,,81,127
59445,note_off,1,0,0,,7,,,79,127
59535,note_off,90,0,0,,10,,,81,127
59547,note_off,12,0,0,,5,,,41,127
59559,note_on,12,0,0,,0,,,60,127
59559,note_on,0,0,0,,7,,,67,127
59650,note_off,91,0,0,,7,,,67,127
59662,note_off,12,0,0,,0,,,60,127
59674,note_on,12,0,0,,11,,,58,127
59674,note_on,0,0,0,,4,,,64,127
59765,note_off,91,0,0,,4,,,64,127
59777,note_off,12,0,0,,11,,,58,127
59789,note_on,12,0,0,,10,,,57,127
59789,note_on,0,0,0,,5,,,65,127
59880,note_off,91,0,0,,5,,,65,127
59892,note_off,12,0,0,,10,,,57,127
59904,note_on,12,0,0,,7,,,55,127
59904,note_on,0,0,0,,7,,,67,127
59995,note_off,91,0,0,,7,,,67,127
60007,note_off,12,0,0,,7,,,55,127
60019,note_on,12,0,0,,5,,,53,127
60019,note_on,0,0,0,,10,,,69,127
60110,note_off,91,0,0,,10,,,69,127
60122,note_off,12,0,0,,5,,,53,127
60134,note_on,12,0,0,,4,,,52,127
60134,note_on,0,0,0,,11,,,70,127
60225,note_off,91,0,0,,11,,,70,127
60237,note_off,12,0,0,,4,,,52,127
60249,note_on,12,0,0,,2,,,50,127
60249,note_on,0,0,0,,0,,,72,127
60340,note_off,91,0,0,,0,,,72,127
60352,note_off,12,0,0,,2,,,50,127
60364,note_on,12,0,0,,0,,,48,127
60364,note_on,0,0,0,,2,,,74,127
60455,note_off,91,0,0,,2,,,74,127
60467,note_off,12,0,0,,0,,,48,127
60479,note_on,12,0,0,,11,,,46,127
60479,note_on,0,0,0,,4,,,76,127
60570,note_off,91,0,0,,4,,,76,127
60582,note_off,12,0,0,,11,,,46,127
60594,note_on,12,0,0,,10,,,45,127
60594,note_on,0,0,0,,5,,,77,127
60685,note_off,91,0,0,,5,,,77,127
60697,note_off,12,0,0,,10,,,45,127
60709,note_on,12,0,0,,7,,,43,127
60709,note_on,0,0,0,,7,,,79,127
60800,note_off,91,0,0,,7,,,79,127
60812,note_off,12,0,0,,7,,,43,127
60824,note_on,12,0,0,,5,,,41,127
60824,note_on,0,0,0,,10,,,81,127
60927,note_off,103,0,0,,5,,,41,127
60939,note_on,12,0,0,,0,,,60,127
60939,note_on,0,0,0,,7,,,67,127
60940,note_off,1,0,0,,10,,,81,127
61042,note_off,102,0,0,,0,,,60,127
61054,note_on,12,0,0,,11,,,58,127
61054,note_on,0,0,0,,4,,,64,127
61055,note_off,1,0,0,,7,,,67,127
61157,note_off,102,0,0,,11,,,58,127
61169,note_on,12,0,0,,10,,,57,127
61169,note_on,0,0,0,,5,,,65,127
61170,note_off,1,0,0,,4,,,64,127
61272,note_off,102,0,0,,10,,,57,127
61284,note_on,12,0,0,,7,,,55,127
61284,note_on,0,0,0,,7,,,67,127
61285,note_off,1,0,0,,5,,,65,127
61387,note_off,102,0,0,,7,,,55,127
61399,note_on,12,0,0,,5,,,53,127
61399,note_on,0,0,0,,10,,,69,127
61400,note_off,1,0,0,,7,,,67,127
61502,note_off,102,0,0,,5,,,53,127
61514,note_on,12,0,0,,4,,,52,127
61514,note_on,0,0,0,,11,,,70,127
61515,note_off,1,0,0,,10,,,69,127
61617,note_off,102,0,0,,4,,,52,127
61629,note_on,12,0,0,,2,,,50,127
61629,note_on,0,0,0,,0,,,72,127
61630,note_off,1,0,0,,11,,,70,127
61732,note_off,102,0,0,,2,,,50,127
61744,note_on,12,0,0,,0,,,48,127
61744,note_on,0,0,0,,2,,,74,127
61745,note_off,1,0,0,,0,,,72,127
61847,note_off,102,0,0,,0,,,48,127
61859,note_on,12,0,0,,11,,,46,127
61859,note_on,0,0,0,,4,,,76,127
61860,note_off,1,0,0,,2,,,74,127
61962,note_off,102,0,0,,11,,,46,127
61974,note_on,12,0,0,,10,,,45,127
61974,note_on,0,0,0,,5,,,77,127
61975,note_off,1,0,0,,4,,,76,127
62077,note_off,102,0,0,,10,,,45,127
62089,note_on,12,0,0,,7,,,43,127
62089,note_on,0,0,0,,7,,,79,127
62090,note_off,1,0,0,,5,,,77,127
62192,note_off,102,0,0,,7,,,43,127
62204,note_on,12,0,0,,5,,,41,127
62204,note_on,0,0,0,,10,,,81,127
62205,note_off,1,0,0,,7,,,79,127
62319,note_on,114,0,0,,7,,,79,127
62320,note_off,1,0,0,,10,,,81,127
62430,note_off,110,0,0,,5,,,41,127
62434,note_on,4,0,0,,7,,,43,127
62434,note_on,0,0,0,,5,,,77,127
62435,note_off,1,0,0,,7,,,79,127
62549,note_on,114,0,0,,4,,,76,127
62550,note_off,1,0,0,,5,,,77,127
62660,note_off,110,0,0,,7,,,43,127
62664,note_on,4,0,0,,10,,,45,127
62664,note_on,0,0,0,,5,,,77,127
62665,note_off,1,0,0,,4,,,76,127
62779,note_on,114,0,0,,0,,,72,127
62780,note_off,1,0,0,,5,,,77,127
62890,note_off,110,0,0,,10,,,45,127
62894,note_on,4,0,0,,11,,,46,127
62894,note_on,0,0,0,,2,,,74,127
62895,note_off,1,0,0,,0,,,72,127
63009,note_on,114,0,0,,11,,,70,127
63010,note_off,1,0,0,,2,,,74,127
63120,note_off,110,0,0,,11,,,46,127
63124,note_on,4,0,0,,0,,,48,127
63124,note_on,0,0,0,,10,,,69,127
63125,note_off,1,0,0,,11,,,70,127
63239,note_on,114,0,0,,7,,,67,127
63240,note_off,1,0,0,,10,,,69,127
63350,note_off,110,0,0,,0,,,48,127
63354,note_on,4,0,0,,0,,,36,127
63354,note_on,0,0,0,,5,,,65,127
63355,note_off,1,0,0,,7,,,67,127
63469,note_on,114,0,0,,4,,,64,127
63470,note_off,1,0,0,,5,,,65,127
63580,note_off,110,0,0,,0,,,36,127
63584,note_on,4,0,0,,5,,,41,127
63584,note_on,0,0,0,,7,,,67,127
63585,note_off,1,0,0,,4,,,64,127
63622,note_on,37,0,0,,5,,,65,127
63641,note_off,19,0,0,,7,,,67,127
63660,note_on,19,0,0,,7,,,67,127
63679,note_off,19,0,0,,5,,,65,127
63685,note_off,6,0,0,,5,,,41,127
63698,note_on,13,0,0,,10,,,45,127
63698,note_on,0,0,0,,5,,,65,127
63717,note_off,19,0,0,,7,,,67,127
63800,note_off,83,0,0,,10,,,45,127
63813,note_on,13,0,0,,0,,,48,127
63915,note_off,102,0,0,,0,,,48,127
63928,note_on,13,0,0,,5,,,53,127
64030,note_off,102,0,0,,5,,,53,127
64043,note_on,13,0,0,,10,,,57,127
64145,note_off,102,0,0,,10,,,57,127
64158,note_on,13,0,0,,0,,,60,127
64235,note_off,77,0,0,,0,,,60,127
64269,note_off,34,0,0,,5,,,65,127
64274,note_on,5,0,0,,5,,,65,127
64389,note_on,115,0,0,,10,,,81,127
64501,note_off,112,0,0,,5,,,65,127
64505,note_on,4,0,0,,0,,,36,127
64505,note_on,0,0,0,,7,,,79,127
64506,note_off,1,0,0,,10,,,81,127
64620,note_on,114,0,0,,11,,,82,127
64621,note_off,1,0,0,,7,,,79,127
64735,note_on,114,0,0,,10,,,81,127
64736,note_off,1,0,0,,11,,,82,127
64850,note_on,114,0,0,,7,,,79,127
64851,note_off,1,0,0,,10,,,81,127
64952,note_off,101,0,0,,0,,,36,127
64965,note_on,13,0,0,,5,,,41,127
65003,note_on,38,0,0,,5,,,77,127
65027,note_off,24,0,0,,7,,,79,127
65041,note_on,14,0,0,,7,,,79,127
65060,note_off,19,0,0,,5,,,77,127
65066,note_off,6,0,0,,5,,,41,127
65079,note_on,13,0,0,,10,,,45,127
65079,note_on,0,0,0,,5,,,77,127
65098,note_off,19,0,0,,7,,,79,127
65181,note_off,83,0,0,,10,,,45,127
65194,note_on,13,0,0,,0,,,48,127
65296,note_off,102,0,0,,0,,,48,127
65309,note_on,13,0,0,,5,,,53,127
65411,note_off,102,0,0,,5,,,53,127
65424,note_on,13,0,0,,10,,,57,127
65526,note_off,102,0,0,,10,,,57,127
65539,note_on,13,0,0,,0,,,60,127
65616,note_off,77,0,0,,0,,,60,127
65654,note_on,38,0,0,,5,,,65,127
65769,note_on,115,0,0,,0,,,84,127
65770,note_off,1,0,0,,5,,,77,127
65880,note_off,110,0,0,,5,,,65,127
65884,note_on,4,0,0,,0,,,36,127
65884,note_on,0,0,0,,4,,,76,127
65885,note_off,1,0,0,,0,,,84,127
65999,note_on,114,0,0,,7,,,79,127
66000,note_off,1,0,0,,4,,,76,127
66114,note_on,114,0,0,,5,,,77,127
66115,note_off,1,0,0,,7,,,79,127
66229,note_on,114,0,0,,4,,,76,127
66230,note_off,1,0,0,,5,,,77,127
66331,note_off,101,0,0,,0,,,36,127
66344,note_on,13,0,0,,5,,,41,127
66344,note_on,0,0,0,,5,,,77,127
66345,note_off,1,0,0,,4,,,76,127
66459,note_on,114,0,0,,0,,,84,127
66460,note_off,1,0,0,,5,,,77,127
66574,note_on,114,0,0,,10,,,81,127
66575,note_off,1,0,0,,0,,,84,127
66689,note_on,114,0,0,,5,,,77,127
66690,note_off,1,0,0,,10,,,81,127
66791,note_off,101,0,0,,5,,,41,127
66804,note_on,13,0,0,,10,,,45,127
66804,note_on,0,0,0,,0,,,72,127
66805,note_off,1,0,0,,5,,,77,127
66919,note_on,114,0,0,,10,,,81,127
66920,note_off,1,0,0,,0,,,72,127
67030,note_off,110,0,0,,10,,,45,127
67034,note_on,4,0,0,,11,,,46,127
67034,note_on,0,0,0,,11,,,70,127
67035,note_off,1,0,0,,10,,,81,127
67149,note_on,114,0,0,,7,,,79,127
67207,note_off,58,0,0,,11,,,70,127
67261,note_off,54,0,0,,11,,,46,127
67265,note_on,4,0,0,,0,,,48,127
67265,note_on,0,0,0,,10,,,69,127
67266,note_off,1,0,0,,7,,,79,127
67380,note_on,114,0,0,,5,,,77,127
67438,note_off,58,0,0,,10,,,69,127
67492,note_off,54,0,0,,0,,,48,127
67496,note_on,4,0,0,,0,,,36,127
67496,note_on,0,0,0,,7,,,67,127
67497,note_off,1,0,0,,5,,,77,127
67611,note_on,114,0,0,,4,,,76,127
67669,note_off,58,0,0,,7,,,67,127
67723,note_off,54,0,0,,0,,,36,127
67727,note_on,4,0,0,,5,,,41,127
67727,note_on,0,0,0,,5,,,77,127
67727,note_on,0,0,0,,10,,,69,127
67728,note_off,1,0,0,,4,,,76,127
67842,note_on,114,0,0,,0,,,84,127
67843,note_off,1,0,0,,10,,,69,127
67843,note_off,0,0,0,,5,,,77,127
67957,note_on,114,0,0,,10,,,81,127
67958,note_off,1,0,0,,0,,,84,127
68072,note_on,114,0,0,,5,,,77,127
68073,note_off,1,0,0,,10,,,81,127
68174,note_off,101,0,0,,5,,,41,127
68187,note_on,13,0,0,,10,,,45,127
68187,note_on,0,0,0,,0,,,72,127
68188,note_off,1,0,0,,5,,,77,127
68302,note_on,114,0,0,,10,,,81,127
68303,note_off,1,0,0,,0,,,72,127
68413,note_off,110,0,0,,10,,,45,127
68417,note_on,4,0,0,,11,,,46,127
68417,note_on,0,0,0,,11,,,70,127
68418,note_off,1,0,0,,10,,,81,127
68532,note_on,114,0,0,,7,,,79,127
68590,note_off,58,0,0,,11,,,70,127
68644,note_off,54,0,0,,11,,,46,127
68648,note_on,4,0,0,,0,,,48,127
68648,note_on,0,0,0,,10,,,69,127
68649,note_off,1,0,0,,7,,,79,127
68763,note_on,114,0,0,,5,,,77,127
68821,note_off,58,0,0,,10,,,69,127
68875,note_off,54,0,0,,0,,,48,127
68879,note_on,4,0,0,,0,,,36,127
68879,note_on,0,0,0,,7,,,67,127
68880,note_off,1,0,0,,5,,,77,127
68994,note_on,114,0,0,,4,,,76,127
69052,note_off,58,0,0,,7,,,67,127
69106,note_off,54,0,0,,0,,,36,127
69110,note_on,4,0,0,,5,,,41,127
69110,note_on,0,0,0,,5,,,77,127
69110,note_on,0,0,0,,10,,,69,127
69111,note_off,1,0,0,,4,,,76,127
69225,note_on,114,0,0,,0,,,84,127
69226,note_off,1,0,0,,10,,,69,127
69226,note_off,0,0,0,,5,,,77,127
69336,note_off,110,0,0,,5,,,41,127
69340,note_on,4,0,0,,7,,,43,127
69340,note_on,0,0,0,,10,,,81,127
69341,note_off,1,0,0,,0,,,84,127
69455,note_on,114,0,0,,5,,,77,127
69456,note_off,1,0,0,,10,,,81,127
69566,note_off,110,0,0,,7,,,43,127
69570,note_on,4,0,0,,10,,,45,127
69570,note_on,0,0,0,,0,,,72,127
69571,note_off,1,0,0,,5,,,77,127
69685,note_on,114,0,0,,2,,,74,127
69686,note_off,1,0,0,,0,,,72,127
69796,note_off,110,0,0,,10,,,45,127
69800,note_on,4,0,0,,11,,,46,127
69800,note_on,0,0,0,,0,,,72,127
69801,note_off,1,0,0,,2,,,74,127
69915,note_on,114,0,0,,11,,,70,127
69916,note_off,1,0,0,,0,,,72,127
70026,note_off,110,0,0,,11,,,46,127
70030,note_on,4,0,0,,0,,,48,127
70030,note_on,0,0,0,,10,,,69,127
70031,note_off,1,0,0,,11,,,70,127
70145,note_on,114,0,0,,7,,,67,127
70146,note_off,1,0,0,,10,,,69,127
70256,note_off,110,0,0,,0,,,48,127
70260,note_on,4,0,0,,0,,,36,127
70260,note_on,0,0,0,,5,,,65,127
70261,note_off,1,0,0,,7,,,67,127
70375,note_on,114,0,0,,4,,,64,127
70376,note_off,1,0,0,,5,,,65,127
70486,note_off,110,0,0,,0,,,36,127
70490,note_on,4,0,0,,5,,,41,127
70490,note_on,0,0,0,,7,,,67,127
70491,note_off,1,0,0,,4,,,64,127
70528,note_on,37,0,0,,5,,,65,127
70547,note_off,19,0,0,,7,,,67,127
70566,note_on,19,0,0,,7,,,67,127
70585,note_off,19,0,0,,5,,,65,127
70604,note_on,19,0,0,,5,,,65,127
70623,note_off,19,0,0,,7,,,67,127
72571,note_off,1948,0,0,,5,,,65,127
72571,note_off,0,0,0,,5,,,41,127
76800,end_of_track,4229,1,0,,,,,,
