tick,type,time,meta,track,program,channel,pitch,tempo,note,velocity
0,copyright,0,1,0,,,,,,
0,program_change,0,0,0,6,0,,,,
0,pitchwheel,0,0,0,,0,0,,,
0,program_change,0,0,0,6,1,,,,
0,pitchwheel,0,0,0,,1,-590,,,
0,program_change,0,0,0,6,2,,,,
0,pitchwheel,0,0,0,,2,-272,,,
0,program_change,0,0,0,6,3,,,,
0,pitchwheel,0,0,0,,3,-353,,,
0,program_change,0,0,0,6,4,,,,
0,pitchwheel,0,0,0,,4,-560,,,
0,program_change,0,0,0,6,5,,,,
0,pitchwheel,0,0,0,,5,-80,,,
0,program_change,0,0,0,6,6,,,,
0,pitchwheel,0,0,0,,6,-625,,,
0,program_change,0,0,0,6,7,,,,
0,pitchwheel,0,0,0,,7,-130,,,
0,program_change,0,0,0,6,8,,,,
0,pitchwheel,0,0,0,,8,-512,,,
0,program_change,0,0,0,6,10,,,,
0,pitchwheel,0,0,0,,10,-464,,,
0,program_change,0,0,0,6,11,,,,
0,pitchwheel,0,0,0,,11,-208,,,
0,program_change,0,0,0,6,12,,,,
0,pitchwheel,0,0,0,,12,-553,,,
0,set_tempo,0,1,0,,,,500000,,
89,note_on,89,0,0,,12,,,59,127
176,note_off,87,0,0,,12,,,59,127
178,note_on,2,0,0,,10,,,57,127
265,note_off,87,0,0,,10,,,57,127
267,note_on,2,0,0,,8,,,56,127
354,note_off,87,0,0,,8,,,56,127
356,note_on,2,0,0,,10,,,57,127
443,note_off,87,0,0,,10,,,57,127
445,note_on,2,0,0,,12,,,59,127
532,note_off,87,0,0,,12,,,59,127
534,note_on,2,0,0,,8,,,56,127
621,note_off,87,0,0,,8,,,56,127
623,note_on,2,0,0,,1,,,61,127
710,note_off,87,0,0,,1,,,61,127
712,note_on,2,0,0,,12,,,59,127
799,note_off,87,0,0,,12,,,59,127
801,note_on,2,0,0,,2,,,62,127
888,note_off,87,0,0,,2,,,62,127
890,note_on,2,0,0,,1,,,61,127
977,note_off,87,0,0,,1,,,61,127
979,note_on,2,0,0,,4,,,64,127
1066,note_off,87,0,0,,4,,,64,127
1068,note_on,2,0,0,,2,,,62,127
1155,note_off,87,0,0,,2,,,62,127
1157,note_on,2,0,0,,1,,,61,127
1244,note_off,87,0,0,,1,,,61,127
1246,note_on,2,0,0,,12,,,59,127
1333,note_off,87,0,0,,12,,,59,127
1335,note_on,2,0,0,,10,,,57,127
1422,note_off,87,0,0,,10,,,57,127
1424,note_on,2,0,0,,8,,,56,127
1511,note_off,87,0,0,,8,,,56,127
1513,note_on,2,0,0,,6,,,54,127
1513,note_on,0,0,0,,12,,,71,127
1600,note_off,87,0,0,,12,,,71,127
1602,note_on,2,0,0,,10,,,69,127
1689,note_off,87,0,0,,10,,,69,127
1691,note_on,2,0,0,,8,,,68,127
1778,note_off,87,0,0,,8,,,68,127
1780,note_on,2,0,0,,10,,,69,127
1867,note_off,87,0,0,,10,,,69,127
1867,note_off,0,0,0,,6,,,54,127
1869,note_on,2,0,0,,4,,,52,127
1869,note_on,0,0,0,,12,,,71,127
1956,note_off,87,0,0,,12,,,71,127
1958,note_on,2,0,0,,8,,,68,127
2045,note_off,87,0,0,,8,,,68,127
2047,note_on,2,0,0,,1,,,73,127
2134,note_off,87,0,0,,1,,,73,127
2136,note_on,2,0,0,,12,,,71,127
2223,note_off,87,0,0,,12,,,71,127
2223,note_off,0,0,0,,4,,,52,127
2225,note_on,2,0,0,,2,,,50,127
2225,note_on,0,0,0,,2,,,74,127
2312,note_off,87,0,0,,2,,,74,127
2314,note_on,2,0,0,,12,,,71,127
2401,note_off,87,0,0,,12,,,71,127
2403,note_on,2,0,0,,4,,,76,127
2490,note_off,87,0,0,,4,,,76,127
2492,note_on,2,0,0,,2,,,74,127
2579,note_off,87,0,0,,2,,,74,127
2579,note_off,0,0,0,,2,,,50,127
2581,note_on,2,0,0,,4,,,52,127
2581,note_on,0,0,0,,1,,,73,127
2668,note_off,87,0,0,,1,,,73,127
2670,note_on,2,0,0,,12,,,71,127
2757,note_off,87,0,0,,12,,,71,127
2759,note_on,2,0,0,,10,,,69,127
2846,note_off,87,0,0,,10,,,69,127
2848,note_on,2,0,0,,8,,,68,127
2935,note_off,87,0,0,,8,,,68,127
2935,note_off,0,0,0,,4,,,52,127
2937,note_on,2,0,0,,10,,,45,127
2937,note_on,0,0,0,,12,,,71,127
2994,note_off,57,0,0,,12,,,71,127
2996,note_on,2,0,0,,10,,,69,127
3024,note_off,28,0,0,,10,,,45,127
3026,note_on,2,0,0,,1,,,49,127
3054,note_off,28,0,0,,10,,,69,127
3056,note_on,2,0,0,,12,,,71,127
3113,note_off,57,0,0,,12,,,71,127
3113,note_off,0,0,0,,1,,,49,127
3115,note_on,2,0,0,,4,,,52,127
3115,note_on,0,0,0,,10,,,69,127
3172,note_off,57,0,0,,10,,,69,127
3174,note_on,2,0,0,,12,,,71,127
3202,note_off,28,0,0,,4,,,52,127
3204,note_on,2,0,0,,10,,,57,127
3232,note_off,28,0,0,,12,,,71,127
3234,note_on,2,0,0,,10,,,69,127
3291,note_off,57,0,0,,10,,,69,127
3291,note_off,0,0,0,,10,,,57,127
3293,note_on,2,0,0,,8,,,56,127
3293,note_on,0,0,0,,12,,,71,127
3350,note_off,57,0,0,,12,,,71,127
3352,note_on,2,0,0,,10,,,69,127
3380,note_off,28,0,0,,8,,,56,127
3382,note_on,2,0,0,,6,,,54,127
3410,note_off,28,0,0,,10,,,69,127
3412,note_on,2,0,0,,12,,,71,127
3469,note_off,57,0,0,,12,,,71,127
3469,note_off,0,0,0,,6,,,54,127
3471,note_on,2,0,0,,4,,,52,127
3471,note_on,0,0,0,,10,,,69,127
3558,note_off,87,0,0,,4,,,52,127
3560,note_on,2,0,0,,2,,,50,127
3647,note_off,87,0,0,,2,,,50,127
3647,note_off,0,0,0,,10,,,69,127
3649,note_on,2,0,0,,1,,,49,127
3738,note_on,89,0,0,,1,,,73,127
3825,note_off,87,0,0,,1,,,73,127
3825,note_off,0,0,0,,1,,,49,127
3827,note_on,2,0,0,,2,,,50,127
3827,note_on,0,0,0,,4,,,76,127
3914,note_off,87,0,0,,4,,,76,127
3916,note_on,2,0,0,,10,,,81,127
4003,note_off,87,0,0,,10,,,81,127
4003,note_off,0,0,0,,2,,,50,127
4005,note_on,2,0,0,,4,,,52,127
4005,note_on,0,0,0,,8,,,80,127
4092,note_off,87,0,0,,8,,,80,127
4094,note_on,2,0,0,,6,,,78,127
4181,note_off,87,0,0,,6,,,78,127
4181,note_off,0,0,0,,4,,,52,127
4183,note_on,2,0,0,,4,,,40,127
4183,note_on,0,0,0,,4,,,76,127
4270,note_off,87,0,0,,4,,,76,127
4272,note_on,2,0,0,,2,,,74,127
4358,note_off,86,0,0,,2,,,74,127
4359,note_off,1,0,0,,4,,,40,127
4361,note_on,2,0,0,,10,,,57,127
4361,note_on,0,0,0,,2,,,74,127
4418,note_off,57,0,0,,2,,,74,127
4418,note_on,0,0,0,,1,,,73,127
4448,note_off,30,0,0,,10,,,57,127
4450,note_on,2,0,0,,1,,,61,127
4476,note_off,26,0,0,,1,,,73,127
4476,note_on,0,0,0,,2,,,74,127
4533,note_off,57,0,0,,2,,,74,127
4533,note_on,0,0,0,,1,,,73,127
4537,note_off,4,0,0,,1,,,61,127
4539,note_on,2,0,0,,4,,,64,127
4591,note_off,52,0,0,,1,,,73,127
4591,note_on,0,0,0,,2,,,74,127
4626,note_off,35,0,0,,4,,,64,127
4628,note_on,2,0,0,,10,,,69,127
4648,note_off,20,0,0,,2,,,74,127
4648,note_on,0,0,0,,1,,,73,127
4705,note_off,57,0,0,,1,,,73,127
4705,note_on,0,0,0,,2,,,74,127
4714,note_off,9,0,0,,10,,,69,127
4716,note_on,2,0,0,,8,,,68,127
4762,note_off,46,0,0,,2,,,74,127
4762,note_on,0,0,0,,1,,,73,127
4803,note_off,41,0,0,,8,,,68,127
4805,note_on,2,0,0,,6,,,66,127
4820,note_off,15,0,0,,1,,,73,127
4820,note_on,0,0,0,,2,,,74,127
4877,note_off,57,0,0,,2,,,74,127
4877,note_on,0,0,0,,1,,,73,127
4892,note_off,15,0,0,,6,,,66,127
4894,note_on,2,0,0,,4,,,64,127
4981,note_off,87,0,0,,4,,,64,127
4983,note_on,2,0,0,,2,,,62,127
5053,note_off,70,0,0,,1,,,73,127
5070,note_off,17,0,0,,2,,,62,127
5072,note_on,2,0,0,,1,,,61,127
5072,note_on,0,0,0,,4,,,64,127
5159,note_off,87,0,0,,4,,,64,127
5161,note_on,2,0,0,,10,,,69,127
5248,note_off,87,0,0,,10,,,69,127
5250,note_on,2,0,0,,1,,,73,127
5337,note_off,87,0,0,,1,,,73,127
5339,note_on,2,0,0,,4,,,76,127
5426,note_off,87,0,0,,4,,,76,127
5426,note_off,0,0,0,,1,,,61,127
5428,note_on,2,0,0,,2,,,62,127
5428,note_on,0,0,0,,2,,,74,127
5515,note_off,87,0,0,,2,,,74,127
5517,note_on,2,0,0,,1,,,73,127
5604,note_off,87,0,0,,1,,,73,127
5606,note_on,2,0,0,,12,,,71,127
5693,note_off,87,0,0,,12,,,71,127
5695,note_on,2,0,0,,10,,,69,127
5782,note_off,87,0,0,,10,,,69,127
5782,note_off,0,0,0,,2,,,62,127
5784,note_on,2,0,0,,4,,,52,127
5784,note_on,0,0,0,,10,,,69,127
5841,note_off,57,0,0,,10,,,69,127
5843,note_on,2,0,0,,8,,,68,127
5871,note_off,28,0,0,,4,,,52,127
5873,note_on,2,0,0,,8,,,56,127
5901,note_off,28,0,0,,8,,,68,127
5903,note_on,2,0,0,,10,,,69,127
5960,note_off,57,0,0,,10,,,69,127
5960,note_off,0,0,0,,8,,,56,127
5962,note_on,2,0,0,,12,,,59,127
5962,note_on,0,0,0,,8,,,68,127
6019,note_off,57,0,0,,8,,,68,127
6021,note_on,2,0,0,,10,,,69,127
6049,note_off,28,0,0,,12,,,59,127
6051,note_on,2,0,0,,4,,,64,127
6079,note_off,28,0,0,,10,,,69,127
6081,note_on,2,0,0,,8,,,68,127
6138,note_off,57,0,0,,4,,,64,127
6140,note_on,2,0,0,,2,,,62,127
6227,note_off,87,0,0,,2,,,62,127
6229,note_on,2,0,0,,1,,,61,127
6316,note_off,87,0,0,,1,,,61,127
6317,note_off,1,0,0,,8,,,68,127
6318,note_on,1,0,0,,12,,,59,127
6405,note_off,87,0,0,,12,,,59,127
6407,note_on,2,0,0,,10,,,57,127
6494,note_off,87,0,0,,10,,,57,127
6496,note_on,2,0,0,,8,,,56,127
6585,note_on,89,0,0,,12,,,71,127
6672,note_off,87,0,0,,12,,,71,127
6674,note_on,2,0,0,,1,,,73,127
6761,note_off,87,0,0,,1,,,73,127
6763,note_on,2,0,0,,2,,,74,127
6850,note_off,87,0,0,,2,,,74,127
6850,note_off,0,0,0,,8,,,56,127
6852,note_on,2,0,0,,10,,,57,127
6852,note_on,0,0,0,,4,,,64,127
6852,note_on,0,0,0,,1,,,73,127
6939,note_off,87,0,0,,1,,,73,127
6941,note_on,2,0,0,,10,,,69,127
7028,note_off,87,0,0,,10,,,69,127
7030,note_on,2,0,0,,4,,,76,127
7117,note_off,87,0,0,,4,,,76,127
7119,note_on,2,0,0,,1,,,73,127
7206,note_off,87,0,0,,1,,,73,127
7206,note_off,0,0,0,,4,,,64,127
7206,note_off,0,0,0,,10,,,57,127
7208,note_on,2,0,0,,8,,,56,127
7208,note_on,0,0,0,,4,,,64,127
7208,note_on,0,0,0,,12,,,71,127
7295,note_off,87,0,0,,12,,,71,127
7297,note_on,2,0,0,,12,,,71,127
7384,note_off,87,0,0,,12,,,71,127
7386,note_on,2,0,0,,1,,,73,127
7473,note_off,87,0,0,,1,,,73,127
7475,note_on,2,0,0,,2,,,74,127
7562,note_off,87,0,0,,2,,,74,127
7562,note_off,0,0,0,,4,,,64,127
7562,note_off,0,0,0,,8,,,56,127
7564,note_on,2,0,0,,10,,,57,127
7564,note_on,0,0,0,,4,,,64,127
7564,note_on,0,0,0,,1,,,73,127
7651,note_off,87,0,0,,1,,,73,127
7653,note_on,2,0,0,,4,,,76,127
7740,note_off,87,0,0,,4,,,76,127
7742,note_on,2,0,0,,10,,,69,127
7829,note_off,87,0,0,,10,,,69,127
7831,note_on,2,0,0,,1,,,73,127
7918,note_off,87,0,0,,1,,,73,127
7918,note_off,0,0,0,,4,,,64,127
7918,note_off,0,0,0,,10,,,57,127
7920,note_on,2,0,0,,8,,,56,127
7920,note_on,0,0,0,,12,,,59,127
7920,note_on,0,0,0,,4,,,64,127
7920,note_on,0,0,0,,12,,,71,127
8007,note_off,87,0,0,,12,,,71,127
8009,note_on,2,0,0,,3,,,75,127
8096,note_off,87,0,0,,3,,,75,127
8098,note_on,2,0,0,,4,,,76,127
8185,note_off,87,0,0,,4,,,76,127
8187,note_on,2,0,0,,8,,,68,127
8274,note_off,87,0,0,,8,,,68,127
8274,note_off,0,0,0,,4,,,64,127
8274,note_off,0,0,0,,12,,,59,127
8274,note_off,0,0,0,,8,,,56,127
8276,note_on,2,0,0,,6,,,54,127
8276,note_on,0,0,0,,10,,,57,127
8276,note_on,0,0,0,,10,,,69,127
8363,note_off,87,0,0,,10,,,69,127
8365,note_on,2,0,0,,3,,,75,127
8452,note_off,87,0,0,,3,,,75,127
8454,note_on,2,0,0,,4,,,76,127
8541,note_off,87,0,0,,4,,,76,127
8543,note_on,2,0,0,,6,,,66,127
8630,note_off,87,0,0,,6,,,66,127
8630,note_off,0,0,0,,10,,,57,127
8630,note_off,0,0,0,,6,,,54,127
8632,note_on,2,0,0,,4,,,52,127
8632,note_on,0,0,0,,12,,,59,127
8632,note_on,0,0,0,,8,,,68,127
8719,note_off,87,0,0,,8,,,68,127
8721,note_on,2,0,0,,3,,,75,127
8808,note_off,87,0,0,,3,,,75,127
8810,note_on,2,0,0,,4,,,76,127
8897,note_off,87,0,0,,4,,,76,127
8899,note_on,2,0,0,,4,,,64,127
8986,note_off,87,0,0,,4,,,64,127
8986,note_off,0,0,0,,12,,,59,127
8986,note_off,0,0,0,,4,,,52,127
8988,note_on,2,0,0,,12,,,47,127
8988,note_on,0,0,0,,12,,,59,127
8988,note_on,0,0,0,,6,,,66,127
9075,note_off,87,0,0,,6,,,66,127
9077,note_on,2,0,0,,3,,,75,127
9164,note_off,87,0,0,,3,,,75,127
9166,note_on,2,0,0,,4,,,76,127
9253,note_off,87,0,0,,4,,,76,127
9255,note_on,2,0,0,,3,,,63,127
9342,note_off,87,0,0,,3,,,63,127
9342,note_off,0,0,0,,12,,,59,127
9342,note_off,0,0,0,,12,,,47,127
9344,note_on,2,0,0,,4,,,52,127
9344,note_on,0,0,0,,4,,,40,127
9344,note_on,0,0,0,,4,,,64,127
9431,note_off,87,0,0,,4,,,64,127
9433,note_on,2,0,0,,4,,,76,127
9520,note_off,87,0,0,,4,,,76,127
9522,note_on,2,0,0,,12,,,71,127
9609,note_off,87,0,0,,12,,,71,127
9611,note_on,2,0,0,,8,,,68,127
9698,note_off,87,0,0,,8,,,68,127
9700,note_on,2,0,0,,4,,,64,127
9787,note_off,87,0,0,,4,,,64,127
9789,note_on,2,0,0,,12,,,71,127
9876,note_off,87,0,0,,12,,,71,127
9878,note_on,2,0,0,,8,,,68,127
9965,note_off,87,0,0,,8,,,68,127
9967,note_on,2,0,0,,4,,,64,127
10054,note_off,87,0,0,,4,,,64,127
10056,note_on,2,0,0,,12,,,59,127
10143,note_off,87,0,0,,12,,,59,127
10145,note_on,2,0,0,,4,,,64,127
10232,note_off,87,0,0,,4,,,64,127
10234,note_on,2,0,0,,12,,,59,127
10321,note_off,87,0,0,,12,,,59,127
10323,note_on,2,0,0,,8,,,56,127
10410,note_off,87,0,0,,8,,,56,127
10410,note_off,0,0,0,,4,,,52,127
10412,note_on,2,0,0,,4,,,52,127
10499,note_off,87,0,0,,4,,,52,127
10499,note_off,0,0,0,,4,,,40,127
10501,note_on,2,0,0,,4,,,52,127
10590,note_on,89,0,0,,12,,,47,127
10677,note_off,87,0,0,,12,,,47,127
10679,note_on,2,0,0,,8,,,44,127
10766,note_off,87,0,0,,8,,,44,127
10768,note_off,2,0,0,,4,,,52,127
10768,note_on,0,0,0,,4,,,40,127
11783,note_off,1015,0,0,,4,,,40,127
11942,note_on,159,0,0,,12,,,83,127
11942,note_on,0,0,0,,12,,,59,127
11942,note_on,0,0,0,,8,,,56,127
11942,note_on,0,0,0,,1,,,49,127
12029,note_off,87,0,0,,12,,,83,127
12031,note_on,2,0,0,,8,,,80,127
12118,note_off,87,0,0,,8,,,80,127
12120,note_on,2,0,0,,5,,,77,127
12207,note_off,87,0,0,,5,,,77,127
12209,note_on,2,0,0,,2,,,74,127
12296,note_off,87,0,0,,2,,,74,127
12298,note_on,2,0,0,,12,,,71,127
12385,note_off,87,0,0,,12,,,71,127
12387,note_on,2,0,0,,12,,,83,127
12474,note_off,87,0,0,,12,,,83,127
12476,note_on,2,0,0,,10,,,81,127
12563,note_off,87,0,0,,10,,,81,127
12565,note_on,2,0,0,,8,,,80,127
12652,note_off,87,0,0,,8,,,80,127
12652,note_off,0,0,0,,1,,,49,127
12652,note_off,0,0,0,,8,,,56,127
12652,note_off,0,0,0,,12,,,59,127
12654,note_on,2,0,0,,8,,,80,127
12654,note_on,0,0,0,,6,,,54,127
12654,note_on,0,0,0,,10,,,57,127
12654,note_on,0,0,0,,1,,,49,127
13007,note_off,353,0,0,,8,,,80,127
13009,note_on,2,0,0,,10,,,81,127
13009,note_on,0,0,0,,1,,,73,127
13362,note_off,353,0,0,,1,,,73,127
13362,note_off,0,0,0,,10,,,81,127
13362,note_off,0,0,0,,1,,,49,127
13362,note_off,0,0,0,,10,,,57,127
13362,note_off,0,0,0,,6,,,54,127
13364,note_on,2,0,0,,12,,,83,127
13364,note_on,0,0,0,,12,,,59,127
13364,note_on,0,0,0,,1,,,49,127
13364,note_on,0,0,0,,8,,,56,127
13451,note_off,87,0,0,,12,,,83,127
13453,note_on,2,0,0,,8,,,80,127
13540,note_off,87,0,0,,8,,,80,127
13542,note_on,2,0,0,,5,,,77,127
13629,note_off,87,0,0,,5,,,77,127
13631,note_on,2,0,0,,2,,,74,127
13718,note_off,87,0,0,,2,,,74,127
13720,note_on,2,0,0,,12,,,71,127
13807,note_off,87,0,0,,12,,,71,127
13809,note_on,2,0,0,,12,,,83,127
13896,note_off,87,0,0,,12,,,83,127
13898,note_on,2,0,0,,11,,,82,127
13985,note_off,87,0,0,,11,,,82,127
13987,note_on,2,0,0,,12,,,83,127
14074,note_off,87,0,0,,12,,,83,127
14074,note_off,0,0,0,,8,,,56,127
14074,note_off,0,0,0,,1,,,49,127
14074,note_off,0,0,0,,12,,,59,127
14076,note_on,2,0,0,,12,,,83,127
14076,note_on,0,0,0,,11,,,58,127
14076,note_on,0,0,0,,1,,,61,127
14076,note_on,0,0,0,,4,,,52,127
14429,note_off,353,0,0,,12,,,83,127
14431,note_on,2,0,0,,1,,,85,127
14431,note_on,0,0,0,,4,,,76,127
14784,note_off,353,0,0,,4,,,76,127
14784,note_off,0,0,0,,1,,,85,127
14784,note_off,0,0,0,,4,,,52,127
14784,note_off,0,0,0,,1,,,61,127
14784,note_off,0,0,0,,11,,,58,127
14801,note_on,17,0,0,,3,,,51,127
14801,note_on,0,0,0,,11,,,58,127
14801,note_on,0,0,0,,3,,,63,127
14801,note_on,0,0,0,,1,,,85,127
14888,note_off,87,0,0,,1,,,85,127
14890,note_on,2,0,0,,11,,,82,127
14977,note_off,87,0,0,,11,,,82,127
14979,note_on,2,0,0,,7,,,79,127
15066,note_off,87,0,0,,7,,,79,127
15068,note_on,2,0,0,,3,,,75,127
15155,note_off,87,0,0,,3,,,75,127
15157,note_on,2,0,0,,7,,,79,127
15244,note_off,87,0,0,,7,,,79,127
15246,note_on,2,0,0,,1,,,85,127
15333,note_off,87,0,0,,1,,,85,127
15335,note_on,2,0,0,,12,,,83,127
15422,note_off,87,0,0,,12,,,83,127
15424,note_on,2,0,0,,11,,,82,127
15511,note_off,87,0,0,,11,,,82,127
15511,note_off,0,0,0,,3,,,63,127
15511,note_off,0,0,0,,11,,,58,127
15511,note_off,0,0,0,,3,,,51,127
15513,note_on,2,0,0,,3,,,51,127
15513,note_on,0,0,0,,12,,,59,127
15513,note_on,0,0,0,,8,,,56,127
15513,note_on,0,0,0,,11,,,82,127
15866,note_off,353,0,0,,11,,,82,127
15868,note_on,2,0,0,,3,,,75,127
15868,note_on,0,0,0,,12,,,83,127
16221,note_off,353,0,0,,12,,,83,127
16221,note_off,0,0,0,,3,,,75,127
16221,note_off,0,0,0,,8,,,56,127
16221,note_off,0,0,0,,12,,,59,127
16221,note_off,0,0,0,,3,,,51,127
16223,note_on,2,0,0,,3,,,51,127
16223,note_on,0,0,0,,11,,,58,127
16223,note_on,0,0,0,,3,,,63,127
16223,note_on,0,0,0,,1,,,85,127
16310,note_off,87,0,0,,1,,,85,127
16312,note_on,2,0,0,,11,,,82,127
16399,note_off,87,0,0,,11,,,82,127
16401,note_on,2,0,0,,7,,,79,127
16488,note_off,87,0,0,,7,,,79,127
16490,note_on,2,0,0,,3,,,75,127
16577,note_off,87,0,0,,3,,,75,127
16579,note_on,2,0,0,,7,,,79,127
16666,note_off,87,0,0,,7,,,79,127
16668,note_on,2,0,0,,1,,,85,127
16755,note_off,87,0,0,,1,,,85,127
16757,note_on,2,0,0,,12,,,83,127
16844,note_off,87,0,0,,12,,,83,127
16846,note_on,2,0,0,,11,,,82,127
16933,note_off,87,0,0,,11,,,82,127
16933,note_off,0,0,0,,3,,,63,127
16933,note_off,0,0,0,,11,,,58,127
16933,note_off,0,0,0,,3,,,51,127
16935,note_on,2,0,0,,8,,,56,127
16935,note_on,0,0,0,,3,,,63,127
16935,note_on,0,0,0,,11,,,82,127
17288,note_off,353,0,0,,11,,,82,127
17290,note_on,2,0,0,,12,,,83,127
17290,note_on,0,0,0,,3,,,75,127
17643,note_off,353,0,0,,3,,,75,127
17643,note_off,0,0,0,,12,,,83,127
17643,note_off,0,0,0,,3,,,63,127
17643,note_off,0,0,0,,8,,,56,127
17660,note_on,17,0,0,,12,,,83,127
17660,note_on,0,0,0,,3,,,63,127
17660,note_on,0,0,0,,8,,,56,127
17747,note_off,87,0,0,,12,,,83,127
17749,note_on,2,0,0,,8,,,80,127
17836,note_off,87,0,0,,8,,,80,127
17838,note_on,2,0,0,,3,,,75,127
17925,note_off,87,0,0,,3,,,75,127
17927,note_on,2,0,0,,12,,,71,127
18014,note_off,87,0,0,,12,,,71,127
18016,note_on,2,0,0,,3,,,75,127
18103,note_off,87,0,0,,3,,,75,127
18105,note_on,2,0,0,,8,,,80,127
18192,note_off,87,0,0,,8,,,80,127
18194,note_on,2,0,0,,12,,,83,127
18281,note_off,87,0,0,,12,,,83,127
18283,note_on,2,0,0,,3,,,75,127
18370,note_off,87,0,0,,3,,,75,127
18370,note_off,0,0,0,,8,,,56,127
18370,note_off,0,0,0,,3,,,63,127
18372,note_on,2,0,0,,3,,,75,127
18372,note_on,0,0,0,,12,,,83,127
18372,note_on,0,0,0,,6,,,54,127
18372,note_on,0,0,0,,11,,,58,127
18372,note_on,0,0,0,,3,,,63,127
18725,note_off,353,0,0,,12,,,83,127
18727,note_on,2,0,0,,11,,,82,127
19080,note_off,353,0,0,,11,,,82,127
19080,note_off,0,0,0,,3,,,63,127
19080,note_off,0,0,0,,11,,,58,127
19080,note_off,0,0,0,,6,,,54,127
19081,note_off,1,0,0,,3,,,75,127
19082,note_on,1,0,0,,8,,,80,127
19082,note_on,0,0,0,,8,,,56,127
19082,note_on,0,0,0,,4,,,52,127
19082,note_on,0,0,0,,1,,,61,127
19169,note_off,87,0,0,,8,,,80,127
19171,note_on,2,0,0,,1,,,73,127
19258,note_off,87,0,0,,1,,,73,127
19260,note_on,2,0,0,,8,,,68,127
19347,note_off,87,0,0,,8,,,68,127
19349,note_on,2,0,0,,1,,,73,127
19436,note_off,87,0,0,,1,,,73,127
19438,note_on,2,0,0,,8,,,80,127
19525,note_off,87,0,0,,8,,,80,127
19527,note_on,2,0,0,,8,,,68,127
19614,note_off,87,0,0,,8,,,68,127
19616,note_on,2,0,0,,8,,,80,127
19703,note_off,87,0,0,,8,,,80,127
19705,note_on,2,0,0,,11,,,70,127
19792,note_off,87,0,0,,11,,,70,127
19792,note_off,0,0,0,,1,,,61,127
19792,note_off,0,0,0,,4,,,52,127
19792,note_off,0,0,0,,8,,,56,127
19794,note_on,2,0,0,,12,,,71,127
19794,note_on,0,0,0,,8,,,80,127
19794,note_on,0,0,0,,3,,,63,127
19794,note_on,0,0,0,,3,,,51,127
20147,note_off,353,0,0,,8,,,80,127
20147,note_off,0,0,0,,12,,,71,127
20149,note_on,2,0,0,,11,,,70,127
20149,note_on,0,0,0,,7,,,79,127
20502,note_off,353,0,0,,7,,,79,127
20502,note_off,0,0,0,,11,,,70,127
20502,note_off,0,0,0,,3,,,51,127
20502,note_off,0,0,0,,3,,,63,127
20519,note_on,17,0,0,,3,,,51,127
20519,note_on,0,0,0,,3,,,63,127
20519,note_on,0,0,0,,8,,,80,127
20606,note_off,87,0,0,,8,,,80,127
20608,note_on,2,0,0,,3,,,75,127
20695,note_off,87,0,0,,3,,,75,127
20697,note_on,2,0,0,,11,,,70,127
20784,note_off,87,0,0,,11,,,70,127
20786,note_on,2,0,0,,3,,,75,127
20873,note_off,87,0,0,,3,,,75,127
20875,note_on,2,0,0,,8,,,80,127
20962,note_off,87,0,0,,8,,,80,127
20964,note_on,2,0,0,,3,,,75,127
21051,note_off,87,0,0,,3,,,75,127
21053,note_on,2,0,0,,11,,,70,127
21140,note_off,87,0,0,,11,,,70,127
21142,note_on,2,0,0,,3,,,75,127
21229,note_off,87,0,0,,3,,,75,127
21229,note_off,0,0,0,,3,,,63,127
21229,note_off,0,0,0,,3,,,51,127
21231,note_on,2,0,0,,1,,,49,127
21231,note_on,0,0,0,,1,,,61,127
21231,note_on,0,0,0,,11,,,82,127
21231,note_on,0,0,0,,3,,,75,127
21584,note_off,353,0,0,,3,,,75,127
21586,note_on,2,0,0,,4,,,76,127
21939,note_off,353,0,0,,4,,,76,127
21939,note_off,0,0,0,,1,,,61,127
21939,note_off,0,0,0,,1,,,49,127
21940,note_off,1,0,0,,11,,,82,127
21941,note_on,1,0,0,,4,,,52,127
21941,note_on,0,0,0,,1,,,49,127
21941,note_on,0,0,0,,11,,,58,127
21941,note_on,0,0,0,,11,,,82,127
22028,note_off,87,0,0,,11,,,82,127
22030,note_on,2,0,0,,4,,,76,127
22117,note_off,87,0,0,,4,,,76,127
22119,note_on,2,0,0,,1,,,73,127
22206,note_off,87,0,0,,1,,,73,127
22208,note_on,2,0,0,,4,,,76,127
22295,note_off,87,0,0,,4,,,76,127
22297,note_on,2,0,0,,11,,,82,127
22384,note_off,87,0,0,,11,,,82,127
22386,note_on,2,0,0,,4,,,76,127
22473,note_off,87,0,0,,4,,,76,127
22475,note_on,2,0,0,,1,,,73,127
22562,note_off,87,0,0,,1,,,73,127
22564,note_on,2,0,0,,4,,,76,127
22651,note_off,87,0,0,,4,,,76,127
22651,note_off,0,0,0,,11,,,58,127
22651,note_off,0,0,0,,1,,,49,127
22651,note_off,0,0,0,,4,,,52,127
22653,note_on,2,0,0,,6,,,54,127
22653,note_on,0,0,0,,12,,,59,127
22653,note_on,0,0,0,,12,,,47,127
22653,note_on,0,0,0,,12,,,71,127
22653,note_on,0,0,0,,12,,,83,127
22653,note_on,0,0,0,,6,,,78,127
22653,note_on,0,0,0,,4,,,76,127
23006,note_off,353,0,0,,4,,,76,127
23008,note_on,2,0,0,,3,,,75,127
23361,note_off,353,0,0,,3,,,75,127
23361,note_off,0,0,0,,12,,,47,127
23361,note_off,0,0,0,,12,,,59,127
23361,note_off,0,0,0,,6,,,54,127
23362,note_off,1,0,0,,6,,,78,127
23362,note_off,0,0,0,,12,,,83,127
23362,note_off,0,0,0,,12,,,71,127
23378,note_on,16,0,0,,12,,,83,127
23378,note_on,0,0,0,,3,,,63,127
23378,note_on,0,0,0,,12,,,59,127
23465,note_off,87,0,0,,12,,,83,127
23467,note_on,2,0,0,,6,,,78,127
23554,note_off,87,0,0,,6,,,78,127
23556,note_on,2,0,0,,3,,,75,127
23643,note_off,87,0,0,,3,,,75,127
23645,note_on,2,0,0,,12,,,71,127
23732,note_off,87,0,0,,12,,,71,127
23734,note_on,2,0,0,,3,,,75,127
23821,note_off,87,0,0,,3,,,75,127
23823,note_on,2,0,0,,12,,,71,127
23910,note_off,87,0,0,,12,,,71,127
23912,note_on,2,0,0,,12,,,83,127
23999,note_off,87,0,0,,12,,,83,127
24001,note_on,2,0,0,,12,,,71,127
24088,note_off,87,0,0,,12,,,71,127
24088,note_off,0,0,0,,12,,,59,127
24088,note_off,0,0,0,,3,,,63,127
24090,note_on,2,0,0,,12,,,83,127
24090,note_on,0,0,0,,0,,,72,127
24090,note_on,0,0,0,,10,,,57,127
24090,note_on,0,0,0,,0,,,60,127
24443,note_off,353,0,0,,12,,,83,127
24445,note_on,2,0,0,,0,,,84,127
24798,note_off,353,0,0,,0,,,84,127
24798,note_off,0,0,0,,0,,,60,127
24798,note_off,0,0,0,,10,,,57,127
24799,note_off,1,0,0,,0,,,72,127
24800,note_on,1,0,0,,10,,,81,127
24800,note_on,0,0,0,,0,,,60,127
24800,note_on,0,0,0,,4,,,64,127
24800,note_on,0,0,0,,10,,,57,127
24887,note_off,87,0,0,,10,,,81,127
24889,note_on,2,0,0,,4,,,76,127
24976,note_off,87,0,0,,4,,,76,127
24978,note_on,2,0,0,,0,,,72,127
25065,note_off,87,0,0,,0,,,72,127
25067,note_on,2,0,0,,10,,,69,127
25154,note_off,87,0,0,,10,,,69,127
25156,note_on,2,0,0,,0,,,72,127
25243,note_off,87,0,0,,0,,,72,127
25245,note_on,2,0,0,,10,,,69,127
25332,note_off,87,0,0,,10,,,69,127
25334,note_on,2,0,0,,10,,,81,127
25421,note_off,87,0,0,,10,,,81,127
25423,note_on,2,0,0,,10,,,69,127
25510,note_off,87,0,0,,10,,,69,127
25510,note_off,0,0,0,,10,,,57,127
25510,note_off,0,0,0,,4,,,64,127
25510,note_off,0,0,0,,0,,,60,127
25512,note_on,2,0,0,,10,,,81,127
25512,note_on,0,0,0,,12,,,71,127
25512,note_on,0,0,0,,10,,,57,127
25512,note_on,0,0,0,,12,,,59,127
25512,note_on,0,0,0,,3,,,63,127
25865,note_off,353,0,0,,10,,,81,127
25867,note_on,2,0,0,,12,,,83,127
26220,note_off,353,0,0,,12,,,83,127
26220,note_off,0,0,0,,3,,,63,127
26220,note_off,0,0,0,,12,,,59,127
26220,note_off,0,0,0,,10,,,57,127
26221,note_off,1,0,0,,12,,,71,127
26222,note_on,1,0,0,,7,,,79,127
26222,note_on,0,0,0,,4,,,64,127
26222,note_on,0,0,0,,7,,,55,127
26222,note_on,0,0,0,,12,,,59,127
26309,note_off,87,0,0,,7,,,79,127
26311,note_on,2,0,0,,4,,,76,127
26398,note_off,87,0,0,,4,,,76,127
26400,note_on,2,0,0,,12,,,71,127
26487,note_off,87,0,0,,12,,,71,127
26489,note_on,2,0,0,,7,,,67,127
26576,note_off,87,0,0,,7,,,67,127
26578,note_on,2,0,0,,12,,,71,127
26665,note_off,87,0,0,,12,,,71,127
26667,note_on,2,0,0,,7,,,67,127
26754,note_off,87,0,0,,7,,,67,127
26756,note_on,2,0,0,,7,,,79,127
26843,note_off,87,0,0,,7,,,79,127
26845,note_on,2,0,0,,7,,,67,127
26932,note_off,87,0,0,,7,,,67,127
26932,note_off,0,0,0,,12,,,59,127
26932,note_off,0,0,0,,7,,,55,127
26932,note_off,0,0,0,,4,,,64,127
26934,note_on,2,0,0,,7,,,79,127
26934,note_on,0,0,0,,10,,,69,127
26934,note_on,0,0,0,,7,,,55,127
26934,note_on,0,0,0,,10,,,57,127
26934,note_on,0,0,0,,0,,,60,127
27287,note_off,353,0,0,,7,,,79,127
27289,note_on,2,0,0,,10,,,81,127
27642,note_off,353,0,0,,10,,,81,127
27642,note_off,0,0,0,,0,,,60,127
27642,note_off,0,0,0,,10,,,57,127
27642,note_off,0,0,0,,7,,,55,127
27643,note_off,1,0,0,,10,,,69,127
27644,note_on,1,0,0,,6,,,78,127
27644,note_on,0,0,0,,3,,,63,127
27644,note_on,0,0,0,,6,,,54,127
27644,note_on,0,0,0,,10,,,57,127
27644,note_on,0,0,0,,0,,,60,127
27731,note_off,87,0,0,,6,,,78,127
27733,note_on,2,0,0,,3,,,75,127
27820,note_off,87,0,0,,3,,,75,127
27822,note_on,2,0,0,,0,,,72,127
27909,note_off,87,0,0,,0,,,72,127
27911,note_on,2,0,0,,10,,,69,127
27998,note_off,87,0,0,,10,,,69,127
28000,note_on,2,0,0,,6,,,66,127
28087,note_off,87,0,0,,6,,,66,127
28089,note_on,2,0,0,,10,,,69,127
28176,note_off,87,0,0,,10,,,69,127
28178,note_on,2,0,0,,6,,,78,127
28265,note_off,87,0,0,,6,,,78,127
28267,note_on,2,0,0,,6,,,66,127
28354,note_off,87,0,0,,6,,,66,127
28354,note_off,0,0,0,,0,,,60,127
28354,note_off,0,0,0,,10,,,57,127
28354,note_off,0,0,0,,6,,,54,127
28354,note_off,0,0,0,,3,,,63,127
28356,note_on,2,0,0,,6,,,78,127
28356,note_on,0,0,0,,7,,,67,127
28356,note_on,0,0,0,,12,,,59,127
28356,note_on,0,0,0,,6,,,54,127
28356,note_on,0,0,0,,7,,,55,127
28709,note_off,353,0,0,,6,,,78,127
28711,note_on,2,0,0,,7,,,79,127
29064,note_off,353,0,0,,7,,,79,127
29064,note_off,0,0,0,,7,,,55,127
29064,note_off,0,0,0,,6,,,54,127
29064,note_off,0,0,0,,12,,,59,127
29065,note_off,1,0,0,,7,,,67,127
29081,note_on,16,0,0,,7,,,55,127
29081,note_on,0,0,0,,4,,,52,127
29081,note_on,0,0,0,,12,,,59,127
29081,note_on,0,0,0,,7,,,79,127
29168,note_off,87,0,0,,7,,,79,127
29170,note_on,2,0,0,,4,,,76,127
29257,note_off,87,0,0,,4,,,76,127
29259,note_on,2,0,0,,12,,,71,127
29346,note_off,87,0,0,,12,,,71,127
29348,note_on,2,0,0,,7,,,67,127
29435,note_off,87,0,0,,7,,,67,127
29437,note_on,2,0,0,,12,,,71,127
29524,note_off,87,0,0,,12,,,71,127
29526,note_on,2,0,0,,7,,,67,127
29613,note_off,87,0,0,,7,,,67,127
29615,note_on,2,0,0,,7,,,79,127
29702,note_off,87,0,0,,7,,,79,127
29704,note_on,2,0,0,,12,,,71,127
29791,note_off,87,0,0,,12,,,71,127
29791,note_off,0,0,0,,12,,,59,127
29791,note_off,0,0,0,,4,,,52,127
29791,note_off,0,0,0,,7,,,55,127
29793,note_on,2,0,0,,4,,,52,127
29793,note_on,0,0,0,,10,,,45,127
29793,note_on,0,0,0,,10,,,57,127
29793,note_on,0,0,0,,0,,,72,127
29793,note_on,0,0,0,,7,,,79,127
30153,note_off,360,0,0,,7,,,79,127
30157,note_on,4,0,0,,6,,,78,127
30500,note_off,343,0,0,,10,,,57,127
30500,note_off,0,0,0,,10,,,45,127
30500,note_off,0,0,0,,4,,,52,127
30501,note_off,1,0,0,,0,,,72,127
30509,note_off,8,0,0,,6,,,78,127
30524,note_on,15,0,0,,10,,,81,127
30524,note_on,0,0,0,,4,,,52,127
30524,note_on,0,0,0,,10,,,57,127
30524,note_on,0,0,0,,0,,,48,127
30611,note_off,87,0,0,,10,,,81,127
30613,note_on,2,0,0,,6,,,78,127
30700,note_off,87,0,0,,6,,,78,127
30702,note_on,2,0,0,,4,,,76,127
30789,note_off,87,0,0,,4,,,76,127
30791,note_on,2,0,0,,3,,,75,127
30878,note_off,87,0,0,,3,,,75,127
30880,note_on,2,0,0,,4,,,76,127
30967,note_off,87,0,0,,4,,,76,127
30969,note_on,2,0,0,,0,,,72,127
31056,note_off,87,0,0,,0,,,72,127
31058,note_on,2,0,0,,12,,,71,127
31145,note_off,87,0,0,,12,,,71,127
31147,note_on,2,0,0,,10,,,69,127
31234,note_off,87,0,0,,10,,,69,127
31234,note_off,0,0,0,,0,,,48,127
31234,note_off,0,0,0,,10,,,57,127
31234,note_off,0,0,0,,4,,,52,127
31236,note_on,2,0,0,,10,,,69,127
31236,note_on,0,0,0,,4,,,64,127
31236,note_on,0,0,0,,12,,,59,127
31236,note_on,0,0,0,,12,,,47,127
31293,note_off,57,0,0,,10,,,69,127
31295,note_on,2,0,0,,7,,,67,127
31352,note_off,57,0,0,,7,,,67,127
31354,note_on,2,0,0,,10,,,69,127
31411,note_off,57,0,0,,10,,,69,127
31413,note_on,2,0,0,,7,,,67,127
31470,note_off,57,0,0,,7,,,67,127
31472,note_on,2,0,0,,10,,,69,127
31529,note_off,57,0,0,,10,,,69,127
31531,note_on,2,0,0,,7,,,67,127
31586,note_off,55,0,0,,4,,,64,127
31588,note_off,2,0,0,,7,,,67,127
31590,note_on,2,0,0,,6,,,66,127
31590,note_on,0,0,0,,3,,,63,127
31922,note_off,332,0,0,,3,,,63,127
31922,note_off,0,0,0,,6,,,66,127
31942,note_off,20,0,0,,12,,,47,127
31942,note_off,0,0,0,,12,,,59,127
31944,note_on,2,0,0,,10,,,81,127
31944,note_on,0,0,0,,0,,,48,127
31944,note_on,0,0,0,,4,,,52,127
31944,note_on,0,0,0,,10,,,57,127
32031,note_off,87,0,0,,10,,,81,127
32033,note_on,2,0,0,,6,,,78,127
32120,note_off,87,0,0,,6,,,78,127
32122,note_on,2,0,0,,4,,,76,127
32209,note_off,87,0,0,,4,,,76,127
32211,note_on,2,0,0,,3,,,75,127
32298,note_off,87,0,0,,3,,,75,127
32300,note_on,2,0,0,,4,,,76,127
32387,note_off,87,0,0,,4,,,76,127
32389,note_on,2,0,0,,0,,,72,127
32476,note_off,87,0,0,,0,,,72,127
32478,note_on,2,0,0,,12,,,71,127
32565,note_off,87,0,0,,12,,,71,127
32567,note_on,2,0,0,,10,,,69,127
32654,note_off,87,0,0,,10,,,69,127
32654,note_off,0,0,0,,10,,,57,127
32654,note_off,0,0,0,,4,,,52,127
32654,note_off,0,0,0,,0,,,48,127
32656,note_on,2,0,0,,10,,,69,127
32656,note_on,0,0,0,,4,,,64,127
32656,note_on,0,0,0,,12,,,47,127
32656,note_on,0,0,0,,12,,,59,127
32713,note_off,57,0,0,,10,,,69,127
32715,note_on,2,0,0,,7,,,67,127
32772,note_off,57,0,0,,7,,,67,127
32774,note_on,2,0,0,,10,,,69,127
32831,note_off,57,0,0,,10,,,69,127
32833,note_on,2,0,0,,7,,,67,127
32890,note_off,57,0,0,,7,,,67,127
32892,note_on,2,0,0,,10,,,69,127
32949,note_off,57,0,0,,10,,,69,127
32951,note_on,2,0,0,,7,,,67,127
33006,note_off,55,0,0,,4,,,64,127
33008,note_off,2,0,0,,7,,,67,127
33010,note_on,2,0,0,,3,,,63,127
33010,note_on,0,0,0,,6,,,66,127
33363,note_off,353,0,0,,6,,,66,127
33363,note_off,0,0,0,,3,,,63,127
33363,note_off,0,0,0,,12,,,59,127
33363,note_off,0,0,0,,12,,,47,127
33380,note_on,17,0,0,,12,,,59,127
33380,note_on,0,0,0,,3,,,63,127
33467,note_off,87,0,0,,3,,,63,127
33467,note_off,0,0,0,,12,,,59,127
33469,note_on,2,0,0,,1,,,61,127
33469,note_on,0,0,0,,4,,,64,127
33556,note_off,87,0,0,,4,,,64,127
33556,note_off,0,0,0,,1,,,61,127
33558,note_on,2,0,0,,3,,,63,127
33558,note_on,0,0,0,,6,,,66,127
33645,note_off,87,0,0,,6,,,66,127
33645,note_off,0,0,0,,3,,,63,127
33647,note_on,2,0,0,,4,,,64,127
33647,note_on,0,0,0,,8,,,68,127
33734,note_off,87,0,0,,8,,,68,127
33734,note_off,0,0,0,,4,,,64,127
33736,note_on,2,0,0,,6,,,66,127
33736,note_on,0,0,0,,10,,,69,127
33823,note_off,87,0,0,,10,,,69,127
33823,note_off,0,0,0,,6,,,66,127
33825,note_on,2,0,0,,3,,,63,127
33825,note_on,0,0,0,,12,,,71,127
33912,note_off,87,0,0,,12,,,71,127
33912,note_off,0,0,0,,3,,,63,127
33914,note_on,2,0,0,,12,,,59,127
33914,note_on,0,0,0,,6,,,66,127
34001,note_off,87,0,0,,6,,,66,127
34001,note_off,0,0,0,,12,,,59,127
34003,note_on,2,0,0,,3,,,63,127
34003,note_on,0,0,0,,10,,,69,127
34090,note_off,87,0,0,,10,,,69,127
34090,note_off,0,0,0,,3,,,63,127
34092,note_on,2,0,0,,4,,,64,127
34092,note_on,0,0,0,,8,,,68,127
34179,note_off,87,0,0,,8,,,68,127
34181,note_on,2,0,0,,12,,,83,127
34268,note_off,87,0,0,,12,,,83,127
34270,note_on,2,0,0,,8,,,80,127
34357,note_off,87,0,0,,8,,,80,127
34359,note_on,2,0,0,,4,,,76,127
34444,note_off,85,0,0,,4,,,64,127
34446,note_off,2,0,0,,4,,,76,127
34448,note_on,2,0,0,,12,,,71,127
34535,note_off,87,0,0,,12,,,71,127
34537,note_on,2,0,0,,8,,,68,127
34624,note_off,87,0,0,,8,,,68,127
34626,note_on,2,0,0,,4,,,64,127
34713,note_off,87,0,0,,4,,,64,127
34715,note_on,2,0,0,,12,,,71,127
34802,note_off,87,0,0,,12,,,71,127
34804,note_on,2,0,0,,12,,,59,127
34804,note_on,0,0,0,,3,,,63,127
34891,note_off,87,0,0,,3,,,63,127
34891,note_off,0,0,0,,12,,,59,127
34893,note_on,2,0,0,,1,,,61,127
34893,note_on,0,0,0,,4,,,64,127
34980,note_off,87,0,0,,4,,,64,127
34980,note_off,0,0,0,,1,,,61,127
34982,note_on,2,0,0,,3,,,63,127
34982,note_on,0,0,0,,6,,,66,127
35069,note_off,87,0,0,,6,,,66,127
35069,note_off,0,0,0,,3,,,63,127
35071,note_on,2,0,0,,4,,,64,127
35071,note_on,0,0,0,,8,,,68,127
35158,note_off,87,0,0,,8,,,68,127
35158,note_off,0,0,0,,4,,,64,127
35160,note_on,2,0,0,,6,,,66,127
35160,note_on,0,0,0,,10,,,69,127
35247,note_off,87,0,0,,10,,,69,127
35247,note_off,0,0,0,,6,,,66,127
35249,note_on,2,0,0,,3,,,63,127
35249,note_on,0,0,0,,12,,,71,127
35336,note_off,87,0,0,,12,,,71,127
35336,note_off,0,0,0,,3,,,63,127
35338,note_on,2,0,0,,12,,,59,127
35338,note_on,0,0,0,,6,,,66,127
35425,note_off,87,0,0,,6,,,66,127
35425,note_off,0,0,0,,12,,,59,127
35427,note_on,2,0,0,,3,,,63,127
35427,note_on,0,0,0,,10,,,69,127
35514,note_off,87,0,0,,10,,,69,127
35514,note_off,0,0,0,,3,,,63,127
35516,note_on,2,0,0,,4,,,64,127
35516,note_on,0,0,0,,8,,,68,127
35603,note_off,87,0,0,,8,,,68,127
35603,note_off,0,0,0,,4,,,64,127
35605,note_on,2,0,0,,8,,,68,127
35692,note_off,87,0,0,,8,,,68,127
35694,note_on,2,0,0,,4,,,64,127
35781,note_off,87,0,0,,4,,,64,127
35783,note_on,2,0,0,,12,,,59,127
35870,note_off,87,0,0,,12,,,59,127
35872,note_on,2,0,0,,8,,,56,127
35959,note_off,87,0,0,,8,,,56,127
35961,note_on,2,0,0,,4,,,52,127
36048,note_off,87,0,0,,4,,,52,127
36050,note_on,2,0,0,,8,,,56,127
36107,note_off,57,0,0,,8,,,56,127
36109,note_on,2,0,0,,12,,,59,127
36166,note_off,57,0,0,,12,,,59,127
36168,note_on,2,0,0,,4,,,64,127
36225,note_off,57,0,0,,4,,,64,127
36227,note_on,2,0,0,,12,,,59,127
36227,note_on,0,0,0,,3,,,63,127
36314,note_off,87,0,0,,3,,,63,127
36314,note_off,0,0,0,,12,,,59,127
36316,note_on,2,0,0,,1,,,61,127
36316,note_on,0,0,0,,4,,,64,127
36403,note_off,87,0,0,,4,,,64,127
36403,note_off,0,0,0,,1,,,61,127
36405,note_on,2,0,0,,3,,,63,127
36405,note_on,0,0,0,,6,,,66,127
36492,note_off,87,0,0,,6,,,66,127
36492,note_off,0,0,0,,3,,,63,127
36494,note_on,2,0,0,,4,,,64,127
36494,note_on,0,0,0,,8,,,68,127
36581,note_off,87,0,0,,8,,,68,127
36581,note_off,0,0,0,,4,,,64,127
36583,note_on,2,0,0,,6,,,66,127
36583,note_on,0,0,0,,10,,,69,127
36670,note_off,87,0,0,,10,,,69,127
36670,note_off,0,0,0,,6,,,66,127
36672,note_on,2,0,0,,3,,,63,127
36672,note_on,0,0,0,,12,,,71,127
36759,note_off,87,0,0,,12,,,71,127
36759,note_off,0,0,0,,3,,,63,127
36761,note_on,2,0,0,,12,,,59,127
36761,note_on,0,0,0,,6,,,66,127
36848,note_off,87,0,0,,6,,,66,127
36848,note_off,0,0,0,,12,,,59,127
36850,note_on,2,0,0,,3,,,63,127
36850,note_on,0,0,0,,10,,,69,127
36937,note_off,87,0,0,,10,,,69,127
36937,note_off,0,0,0,,3,,,63,127
36939,note_on,2,0,0,,4,,,64,127
36939,note_on,0,0,0,,8,,,68,127
37026,note_off,87,0,0,,8,,,68,127
37028,note_on,2,0,0,,12,,,83,127
37115,note_off,87,0,0,,12,,,83,127
37117,note_on,2,0,0,,8,,,80,127
37204,note_off,87,0,0,,8,,,80,127
37206,note_on,2,0,0,,4,,,76,127
37291,note_off,85,0,0,,4,,,64,127
37293,note_off,2,0,0,,4,,,76,127
37295,note_on,2,0,0,,12,,,71,127
37382,note_off,87,0,0,,12,,,71,127
37384,note_on,2,0,0,,8,,,68,127
37471,note_off,87,0,0,,8,,,68,127
37473,note_on,2,0,0,,4,,,64,127
37560,note_off,87,0,0,,4,,,64,127
37562,note_on,2,0,0,,12,,,71,127
37649,note_off,87,0,0,,12,,,71,127
37651,note_on,2,0,0,,12,,,59,127
37651,note_on,0,0,0,,3,,,63,127
37738,note_off,87,0,0,,3,,,63,127
37738,note_off,0,0,0,,12,,,59,127
37740,note_on,2,0,0,,1,,,61,127
37740,note_on,0,0,0,,4,,,64,127
37827,note_off,87,0,0,,4,,,64,127
37827,note_off,0,0,0,,1,,,61,127
37829,note_on,2,0,0,,3,,,63,127
37829,note_on,0,0,0,,6,,,66,127
37916,note_off,87,0,0,,6,,,66,127
37916,note_off,0,0,0,,3,,,63,127
37918,note_on,2,0,0,,4,,,64,127
37918,note_on,0,0,0,,8,,,68,127
38005,note_off,87,0,0,,8,,,68,127
38005,note_off,0,0,0,,4,,,64,127
38007,note_on,2,0,0,,6,,,66,127
38007,note_on,0,0,0,,10,,,69,127
38094,note_off,87,0,0,,10,,,69,127
38094,note_off,0,0,0,,6,,,66,127
38096,note_on,2,0,0,,3,,,63,127
38096,note_on,0,0,0,,12,,,71,127
38183,note_off,87,0,0,,12,,,71,127
38183,note_off,0,0,0,,3,,,63,127
38185,note_on,2,0,0,,12,,,59,127
38185,note_on,0,0,0,,6,,,66,127
38272,note_off,87,0,0,,6,,,66,127
38272,note_off,0,0,0,,12,,,59,127
38274,note_on,2,0,0,,3,,,63,127
38274,note_on,0,0,0,,10,,,69,127
38361,note_off,87,0,0,,10,,,69,127
38361,note_off,0,0,0,,3,,,63,127
38363,note_on,2,0,0,,4,,,64,127
38363,note_on,0,0,0,,8,,,68,127
38450,note_off,87,0,0,,4,,,64,127
38451,note_off,1,0,0,,8,,,68,127
38452,note_on,1,0,0,,8,,,68,127
38539,note_off,87,0,0,,8,,,68,127
38541,note_on,2,0,0,,4,,,64,127
38628,note_off,87,0,0,,4,,,64,127
38630,note_on,2,0,0,,12,,,59,127
38717,note_off,87,0,0,,12,,,59,127
38719,note_on,2,0,0,,8,,,56,127
38806,note_off,87,0,0,,8,,,56,127
38808,note_on,2,0,0,,4,,,52,127
38895,note_off,87,0,0,,4,,,52,127
38897,note_on,2,0,0,,8,,,56,127
38954,note_off,57,0,0,,8,,,56,127
38956,note_on,2,0,0,,12,,,59,127
39013,note_off,57,0,0,,12,,,59,127
39015,note_on,2,0,0,,4,,,64,127
39072,note_off,57,0,0,,4,,,64,127
39074,note_on,2,0,0,,8,,,56,127
39074,note_on,0,0,0,,4,,,64,127
39161,note_off,87,0,0,,4,,,64,127
39163,note_on,2,0,0,,6,,,66,127
39250,note_off,87,0,0,,6,,,66,127
39252,note_on,2,0,0,,8,,,68,127
39339,note_off,87,0,0,,8,,,68,127
39341,note_on,2,0,0,,10,,,69,127
39428,note_off,87,0,0,,10,,,69,127
39430,note_on,2,0,0,,12,,,71,127
39517,note_off,87,0,0,,12,,,71,127
39519,note_on,2,0,0,,1,,,73,127
39606,note_off,87,0,0,,1,,,73,127
39608,note_on,2,0,0,,3,,,75,127
39695,note_off,87,0,0,,3,,,75,127
39697,note_on,2,0,0,,4,,,76,127
39784,note_off,87,0,0,,4,,,76,127
39784,note_off,0,0,0,,8,,,56,127
39786,note_on,2,0,0,,10,,,57,127
39786,note_on,0,0,0,,4,,,64,127
39786,note_on,0,0,0,,1,,,73,127
39873,note_off,87,0,0,,1,,,73,127
39875,note_on,2,0,0,,3,,,75,127
39962,note_off,87,0,0,,3,,,75,127
39964,note_on,2,0,0,,4,,,76,127
40051,note_off,87,0,0,,4,,,76,127
40053,note_on,2,0,0,,6,,,78,127
40140,note_off,87,0,0,,6,,,78,127
40142,note_on,2,0,0,,8,,,80,127
40229,note_off,87,0,0,,8,,,80,127
40231,note_on,2,0,0,,10,,,81,127
40318,note_off,87,0,0,,10,,,81,127
40320,note_on,2,0,0,,12,,,83,127
40407,note_off,87,0,0,,12,,,83,127
40409,note_on,2,0,0,,1,,,85,127
40496,note_off,87,0,0,,1,,,85,127
40496,note_off,0,0,0,,4,,,64,127
40496,note_off,0,0,0,,10,,,57,127
40498,note_on,2,0,0,,12,,,59,127
40498,note_on,0,0,0,,12,,,83,127
40585,note_off,87,0,0,,12,,,83,127
40587,note_on,2,0,0,,10,,,81,127
40674,note_off,87,0,0,,10,,,81,127
40676,note_on,2,0,0,,8,,,80,127
40763,note_off,87,0,0,,8,,,80,127
40765,note_on,2,0,0,,6,,,78,127
40852,note_off,87,0,0,,6,,,78,127
40852,note_off,0,0,0,,12,,,59,127
40854,note_on,2,0,0,,12,,,47,127
40854,note_on,0,0,0,,8,,,80,127
40941,note_off,87,0,0,,8,,,80,127
40943,note_on,2,0,0,,6,,,78,127
41030,note_off,87,0,0,,6,,,78,127
41032,note_on,2,0,0,,4,,,76,127
41119,note_off,87,0,0,,4,,,76,127
41121,note_on,2,0,0,,3,,,75,127
41208,note_off,87,0,0,,3,,,75,127
41208,note_off,0,0,0,,12,,,47,127
41210,note_on,2,0,0,,4,,,40,127
41210,note_on,0,0,0,,4,,,76,127
41297,note_off,87,0,0,,4,,,76,127
41299,note_on,2,0,0,,12,,,83,127
41386,note_off,87,0,0,,12,,,83,127
41388,note_on,2,0,0,,8,,,80,127
41475,note_off,87,0,0,,8,,,80,127
41477,note_on,2,0,0,,4,,,76,127
41564,note_off,87,0,0,,4,,,76,127
41566,note_on,2,0,0,,12,,,71,127
41653,note_off,87,0,0,,12,,,71,127
41655,note_on,2,0,0,,8,,,68,127
41742,note_off,87,0,0,,8,,,68,127
41743,note_off,1,0,0,,4,,,40,127
41744,note_on,1,0,0,,4,,,64,127
41831,note_off,87,0,0,,4,,,64,127
41833,note_on,2,0,0,,12,,,71,127
41927,note_off,94,0,0,,12,,,71,127
41936,note_on,9,0,0,,3,,,63,127
41936,note_on,0,0,0,,12,,,59,127
42023,note_off,87,0,0,,12,,,59,127
42023,note_off,0,0,0,,3,,,63,127
42025,note_on,2,0,0,,4,,,64,127
42025,note_on,0,0,0,,1,,,61,127
42112,note_off,87,0,0,,1,,,61,127
42112,note_off,0,0,0,,4,,,64,127
42114,note_on,2,0,0,,6,,,66,127
42114,note_on,0,0,0,,3,,,63,127
42201,note_off,87,0,0,,3,,,63,127
42201,note_off,0,0,0,,6,,,66,127
42203,note_on,2,0,0,,8,,,68,127
42203,note_on,0,0,0,,4,,,64,127
42290,note_off,87,0,0,,4,,,64,127
42290,note_off,0,0,0,,8,,,68,127
42292,note_on,2,0,0,,10,,,69,127
42292,note_on,0,0,0,,6,,,66,127
42379,note_off,87,0,0,,6,,,66,127
42379,note_off,0,0,0,,10,,,69,127
42381,note_on,2,0,0,,12,,,71,127
42381,note_on,0,0,0,,3,,,63,127
42468,note_off,87,0,0,,3,,,63,127
42468,note_off,0,0,0,,12,,,71,127
42470,note_on,2,0,0,,6,,,66,127
42470,note_on,0,0,0,,12,,,59,127
42557,note_off,87,0,0,,12,,,59,127
42557,note_off,0,0,0,,6,,,66,127
42559,note_on,2,0,0,,10,,,69,127
42559,note_on,0,0,0,,3,,,63,127
42646,note_off,87,0,0,,3,,,63,127
42646,note_off,0,0,0,,10,,,69,127
42648,note_on,2,0,0,,8,,,68,127
42648,note_on,0,0,0,,4,,,64,127
42726,note_off,78,0,0,,8,,,68,127
42727,note_on,1,0,0,,8,,,68,127
42735,note_off,8,0,0,,4,,,64,127
42804,note_off,69,0,0,,8,,,68,127
42805,note_on,1,0,0,,4,,,64,127
42883,note_off,78,0,0,,4,,,64,127
42885,note_on,2,0,0,,12,,,59,127
42963,note_off,78,0,0,,12,,,59,127
42964,note_on,1,0,0,,8,,,56,127
43042,note_off,78,0,0,,8,,,56,127
43043,note_on,1,0,0,,4,,,52,127
43121,note_off,78,0,0,,4,,,52,127
43122,note_on,1,0,0,,8,,,56,127
43200,note_off,78,0,0,,8,,,56,127
43202,note_on,2,0,0,,12,,,59,127
43280,note_off,78,0,0,,12,,,59,127
43281,note_on,1,0,0,,4,,,64,127
43359,note_off,78,0,0,,4,,,64,127
43361,note_on,2,0,0,,3,,,63,127
43361,note_on,0,0,0,,12,,,59,127
43448,note_off,87,0,0,,12,,,59,127
43448,note_off,0,0,0,,3,,,63,127
43450,note_on,2,0,0,,4,,,64,127
43450,note_on,0,0,0,,1,,,61,127
43537,note_off,87,0,0,,1,,,61,127
43537,note_off,0,0,0,,4,,,64,127
43539,note_on,2,0,0,,6,,,66,127
43539,note_on,0,0,0,,3,,,63,127
43626,note_off,87,0,0,,3,,,63,127
43626,note_off,0,0,0,,6,,,66,127
43628,note_on,2,0,0,,8,,,68,127
43628,note_on,0,0,0,,4,,,64,127
43715,note_off,87,0,0,,4,,,64,127
43715,note_off,0,0,0,,8,,,68,127
43717,note_on,2,0,0,,10,,,69,127
43717,note_on,0,0,0,,6,,,66,127
43804,note_off,87,0,0,,6,,,66,127
43804,note_off,0,0,0,,10,,,69,127
43806,note_on,2,0,0,,12,,,71,127
43806,note_on,0,0,0,,3,,,63,127
43893,note_off,87,0,0,,3,,,63,127
43893,note_off,0,0,0,,12,,,71,127
43895,note_on,2,0,0,,6,,,66,127
43895,note_on,0,0,0,,12,,,59,127
43982,note_off,87,0,0,,12,,,59,127
43982,note_off,0,0,0,,6,,,66,127
43984,note_on,2,0,0,,10,,,69,127
43984,note_on,0,0,0,,3,,,63,127
44071,note_off,87,0,0,,3,,,63,127
44071,note_off,0,0,0,,10,,,69,127
44073,note_on,2,0,0,,8,,,68,127
44073,note_on,0,0,0,,4,,,64,127
44160,note_off,87,0,0,,8,,,68,127
44162,note_on,2,0,0,,12,,,83,127
44249,note_off,87,0,0,,12,,,83,127
44251,note_on,2,0,0,,8,,,80,127
44338,note_off,87,0,0,,8,,,80,127
44340,note_on,2,0,0,,4,,,76,127
44425,note_off,85,0,0,,4,,,64,127
44427,note_off,2,0,0,,4,,,76,127
44429,note_on,2,0,0,,12,,,71,127
44516,note_off,87,0,0,,12,,,71,127
44518,note_on,2,0,0,,8,,,68,127
44605,note_off,87,0,0,,8,,,68,127
44607,note_on,2,0,0,,4,,,64,127
44694,note_off,87,0,0,,4,,,64,127
44696,note_on,2,0,0,,12,,,71,127
44783,note_off,87,0,0,,12,,,71,127
44785,note_on,2,0,0,,3,,,63,127
44785,note_on,0,0,0,,12,,,59,127
44872,note_off,87,0,0,,12,,,59,127
44872,note_off,0,0,0,,3,,,63,127
44874,note_on,2,0,0,,4,,,64,127
44874,note_on,0,0,0,,1,,,61,127
44961,note_off,87,0,0,,1,,,61,127
44961,note_off,0,0,0,,4,,,64,127
44963,note_on,2,0,0,,6,,,66,127
44963,note_on,0,0,0,,3,,,63,127
45050,note_off,87,0,0,,3,,,63,127
45050,note_off,0,0,0,,6,,,66,127
45052,note_on,2,0,0,,8,,,68,127
45052,note_on,0,0,0,,4,,,64,127
45139,note_off,87,0,0,,4,,,64,127
45139,note_off,0,0,0,,8,,,68,127
45141,note_on,2,0,0,,10,,,69,127
45141,note_on,0,0,0,,6,,,66,127
45228,note_off,87,0,0,,6,,,66,127
45228,note_off,0,0,0,,10,,,69,127
45230,note_on,2,0,0,,12,,,71,127
45230,note_on,0,0,0,,3,,,63,127
45317,note_off,87,0,0,,3,,,63,127
45317,note_off,0,0,0,,12,,,71,127
45319,note_on,2,0,0,,6,,,66,127
45319,note_on,0,0,0,,12,,,59,127
45406,note_off,87,0,0,,12,,,59,127
45406,note_off,0,0,0,,6,,,66,127
45408,note_on,2,0,0,,10,,,69,127
45408,note_on,0,0,0,,3,,,63,127
45495,note_off,87,0,0,,3,,,63,127
45495,note_off,0,0,0,,10,,,69,127
45497,note_on,2,0,0,,8,,,68,127
45497,note_on,0,0,0,,4,,,64,127
45575,note_off,78,0,0,,8,,,68,127
45576,note_on,1,0,0,,8,,,68,127
45584,note_off,8,0,0,,4,,,64,127
45653,note_off,69,0,0,,8,,,68,127
45654,note_on,1,0,0,,4,,,64,127
45732,note_off,78,0,0,,4,,,64,127
45734,note_on,2,0,0,,12,,,59,127
45812,note_off,78,0,0,,12,,,59,127
45813,note_on,1,0,0,,8,,,56,127
45891,note_off,78,0,0,,8,,,56,127
45892,note_on,1,0,0,,4,,,52,127
45970,note_off,78,0,0,,4,,,52,127
45971,note_on,1,0,0,,8,,,56,127
46050,note_on,79,0,0,,12,,,59,127
46056,note_off,6,0,0,,8,,,56,127
46128,note_off,72,0,0,,12,,,59,127
46129,note_on,1,0,0,,4,,,64,127
46209,note_off,80,0,0,,4,,,64,127
46223,note_on,14,0,0,,8,,,56,127
46223,note_on,0,0,0,,4,,,64,127
46310,note_off,87,0,0,,4,,,64,127
46312,note_on,2,0,0,,6,,,66,127
46399,note_off,87,0,0,,6,,,66,127
46401,note_on,2,0,0,,8,,,68,127
46488,note_off,87,0,0,,8,,,68,127
46490,note_on,2,0,0,,10,,,69,127
46577,note_off,87,0,0,,10,,,69,127
46579,note_on,2,0,0,,12,,,71,127
46666,note_off,87,0,0,,12,,,71,127
46668,note_on,2,0,0,,1,,,73,127
46755,note_off,87,0,0,,1,,,73,127
46757,note_on,2,0,0,,3,,,75,127
46844,note_off,87,0,0,,3,,,75,127
46846,note_on,2,0,0,,4,,,76,127
46933,note_off,87,0,0,,4,,,76,127
46933,note_off,0,0,0,,8,,,56,127
46935,note_on,2,0,0,,10,,,57,127
46935,note_on,0,0,0,,4,,,64,127
46935,note_on,0,0,0,,1,,,73,127
47022,note_off,87,0,0,,1,,,73,127
47024,note_on,2,0,0,,3,,,75,127
47111,note_off,87,0,0,,3,,,75,127
47113,note_on,2,0,0,,4,,,76,127
47200,note_off,87,0,0,,4,,,76,127
47202,note_on,2,0,0,,6,,,78,127
47289,note_off,87,0,0,,6,,,78,127
47291,note_on,2,0,0,,8,,,80,127
47378,note_off,87,0,0,,8,,,80,127
47380,note_on,2,0,0,,10,,,81,127
47467,note_off,87,0,0,,10,,,81,127
47469,note_on,2,0,0,,12,,,83,127
47556,note_off,87,0,0,,12,,,83,127
47558,note_on,2,0,0,,1,,,85,127
47645,note_off,87,0,0,,1,,,85,127
47645,note_off,0,0,0,,4,,,64,127
47645,note_off,0,0,0,,10,,,57,127
47647,note_on,2,0,0,,12,,,59,127
47647,note_on,0,0,0,,12,,,83,127
47734,note_off,87,0,0,,12,,,83,127
47736,note_on,2,0,0,,10,,,81,127
47823,note_off,87,0,0,,10,,,81,127
47825,note_on,2,0,0,,8,,,80,127
47912,note_off,87,0,0,,8,,,80,127
47914,note_on,2,0,0,,6,,,78,127
48001,note_off,87,0,0,,6,,,78,127
48001,note_off,0,0,0,,12,,,59,127
48003,note_on,2,0,0,,12,,,47,127
48003,note_on,0,0,0,,8,,,80,127
48090,note_off,87,0,0,,8,,,80,127
48092,note_on,2,0,0,,6,,,78,127
48179,note_off,87,0,0,,6,,,78,127
48181,note_on,2,0,0,,4,,,76,127
48268,note_off,87,0,0,,4,,,76,127
48270,note_on,2,0,0,,3,,,75,127
48357,note_off,87,0,0,,3,,,75,127
48357,note_off,0,0,0,,12,,,47,127
48359,note_on,2,0,0,,4,,,52,127
48359,note_on,0,0,0,,8,,,80,127
48359,note_on,0,0,0,,4,,,76,127
48446,note_off,87,0,0,,4,,,76,127
48448,note_on,2,0,0,,3,,,75,127
48535,note_off,87,0,0,,3,,,75,127
48537,note_on,2,0,0,,4,,,76,127
48624,note_off,87,0,0,,4,,,76,127
48626,note_on,2,0,0,,12,,,71,127
48711,note_off,85,0,0,,8,,,80,127
48713,note_off,2,0,0,,12,,,71,127
48713,note_off,0,0,0,,4,,,52,127
48715,note_on,2,0,0,,12,,,47,127
48715,note_on,0,0,0,,12,,,59,127
48715,note_on,0,0,0,,10,,,81,127
48715,note_on,0,0,0,,3,,,75,127
48802,note_off,87,0,0,,3,,,75,127
48804,note_on,2,0,0,,1,,,73,127
48891,note_off,87,0,0,,1,,,73,127
48893,note_on,2,0,0,,3,,,75,127
48980,note_off,87,0,0,,3,,,75,127
48982,note_on,2,0,0,,12,,,71,127
49067,note_off,85,0,0,,10,,,81,127
49069,note_off,2,0,0,,12,,,71,127
49069,note_off,0,0,0,,12,,,59,127
49069,note_off,0,0,0,,12,,,47,127
49071,note_on,2,0,0,,4,,,52,127
49071,note_on,0,0,0,,4,,,64,127
49071,note_on,0,0,0,,4,,,76,127
49071,note_on,0,0,0,,8,,,80,127
49158,note_off,87,0,0,,4,,,76,127
49160,note_on,2,0,0,,3,,,75,127
49247,note_off,87,0,0,,3,,,75,127
49249,note_on,2,0,0,,4,,,76,127
49336,note_off,87,0,0,,4,,,76,127
49338,note_on,2,0,0,,12,,,71,127
49423,note_off,85,0,0,,8,,,80,127
49425,note_off,2,0,0,,12,,,71,127
49425,note_off,0,0,0,,4,,,64,127
49425,note_off,0,0,0,,4,,,52,127
49427,note_on,2,0,0,,12,,,59,127
49427,note_on,0,0,0,,12,,,47,127
49427,note_on,0,0,0,,10,,,81,127
49427,note_on,0,0,0,,3,,,75,127
49514,note_off,87,0,0,,3,,,75,127
49516,note_on,2,0,0,,1,,,73,127
49603,note_off,87,0,0,,1,,,73,127
49605,note_on,2,0,0,,3,,,75,127
49692,note_off,87,0,0,,3,,,75,127
49694,note_on,2,0,0,,12,,,71,127
49779,note_off,85,0,0,,10,,,81,127
49781,note_off,2,0,0,,12,,,71,127
49781,note_off,0,0,0,,12,,,47,127
49781,note_off,0,0,0,,12,,,59,127
49783,note_on,2,0,0,,4,,,52,127
49783,note_on,0,0,0,,4,,,64,127
49783,note_on,0,0,0,,8,,,80,127
49783,note_on,0,0,0,,4,,,76,127
49870,note_off,87,0,0,,4,,,76,127
49872,note_on,2,0,0,,3,,,75,127
49959,note_off,87,0,0,,3,,,75,127
49961,note_on,2,0,0,,4,,,76,127
50048,note_off,87,0,0,,4,,,76,127
50050,note_on,2,0,0,,12,,,71,127
50135,note_off,85,0,0,,8,,,80,127
50137,note_off,2,0,0,,12,,,71,127
50137,note_off,0,0,0,,4,,,64,127
50137,note_off,0,0,0,,4,,,52,127
50139,note_on,2,0,0,,12,,,59,127
50139,note_on,0,0,0,,12,,,47,127
50139,note_on,0,0,0,,10,,,81,127
50139,note_on,0,0,0,,3,,,75,127
50226,note_off,87,0,0,,3,,,75,127
50228,note_on,2,0,0,,1,,,73,127
50315,note_off,87,0,0,,1,,,73,127
50317,note_on,2,0,0,,3,,,75,127
50404,note_off,87,0,0,,3,,,75,127
50406,note_on,2,0,0,,12,,,71,127
50491,note_off,85,0,0,,10,,,81,127
50493,note_off,2,0,0,,12,,,71,127
50493,note_off,0,0,0,,12,,,47,127
50493,note_off,0,0,0,,12,,,59,127
50495,note_on,2,0,0,,4,,,52,127
50495,note_on,0,0,0,,8,,,80,127
50495,note_on,0,0,0,,4,,,76,127
50582,note_off,87,0,0,,8,,,80,127
50584,note_on,2,0,0,,12,,,83,127
50671,note_off,87,0,0,,12,,,83,127
50673,note_on,2,0,0,,8,,,80,127
50754,note_off,81,0,0,,4,,,76,127
50760,note_off,6,0,0,,8,,,80,127
50762,note_on,2,0,0,,4,,,76,127
50849,note_off,87,0,0,,4,,,76,127
50851,note_on,2,0,0,,12,,,71,127
50938,note_off,87,0,0,,12,,,71,127
50940,note_on,2,0,0,,8,,,68,127
51027,note_off,87,0,0,,8,,,68,127
51029,note_on,2,0,0,,4,,,64,127
51116,note_off,87,0,0,,4,,,64,127
51118,note_on,2,0,0,,12,,,59,127
51205,note_off,87,0,0,,12,,,59,127
51205,note_off,0,0,0,,4,,,52,127
51207,note_on,2,0,0,,4,,,40,127
51207,note_on,0,0,0,,4,,,52,127
51207,note_on,0,0,0,,8,,,68,127
51207,note_on,0,0,0,,4,,,64,127
51294,note_off,87,0,0,,4,,,64,127
51296,note_on,2,0,0,,3,,,63,127
51383,note_off,87,0,0,,3,,,63,127
51385,note_on,2,0,0,,4,,,64,127
51472,note_off,87,0,0,,4,,,64,127
51474,note_on,2,0,0,,12,,,59,127
51559,note_off,85,0,0,,8,,,68,127
51561,note_off,2,0,0,,12,,,59,127
51561,note_off,0,0,0,,4,,,52,127
51561,note_off,0,0,0,,4,,,40,127
51563,note_on,2,0,0,,12,,,47,127
51563,note_on,0,0,0,,10,,,69,127
51563,note_on,0,0,0,,3,,,63,127
51650,note_off,87,0,0,,3,,,63,127
51652,note_on,2,0,0,,1,,,61,127
51739,note_off,87,0,0,,1,,,61,127
51741,note_on,2,0,0,,3,,,63,127
51828,note_off,87,0,0,,3,,,63,127
51830,note_on,2,0,0,,12,,,59,127
51915,note_off,85,0,0,,10,,,69,127
51917,note_off,2,0,0,,12,,,59,127
51917,note_off,0,0,0,,12,,,47,127
51919,note_on,2,0,0,,4,,,52,127
51919,note_on,0,0,0,,4,,,40,127
51919,note_on,0,0,0,,8,,,68,127
51919,note_on,0,0,0,,4,,,64,127
52006,note_off,87,0,0,,4,,,64,127
52008,note_on,2,0,0,,3,,,63,127
52095,note_off,87,0,0,,3,,,63,127
52097,note_on,2,0,0,,4,,,64,127
52184,note_off,87,0,0,,4,,,64,127
52186,note_on,2,0,0,,12,,,59,127
52271,note_off,85,0,0,,8,,,68,127
52273,note_off,2,0,0,,12,,,59,127
52273,note_off,0,0,0,,4,,,40,127
52273,note_off,0,0,0,,4,,,52,127
52275,note_on,2,0,0,,12,,,47,127
52275,note_on,0,0,0,,10,,,69,127
52275,note_on,0,0,0,,3,,,63,127
52362,note_off,87,0,0,,3,,,63,127
52364,note_on,2,0,0,,1,,,61,127
52451,note_off,87,0,0,,1,,,61,127
52453,note_on,2,0,0,,3,,,63,127
52540,note_off,87,0,0,,3,,,63,127
52542,note_on,2,0,0,,12,,,59,127
52627,note_off,85,0,0,,10,,,69,127
52629,note_off,2,0,0,,12,,,59,127
52629,note_off,0,0,0,,12,,,47,127
52631,note_on,2,0,0,,4,,,40,127
52631,note_on,0,0,0,,4,,,52,127
52631,note_on,0,0,0,,4,,,64,127
52631,note_on,0,0,0,,8,,,68,127
52718,note_off,87,0,0,,4,,,64,127
52720,note_on,2,0,0,,3,,,63,127
52807,note_off,87,0,0,,3,,,63,127
52809,note_on,2,0,0,,4,,,64,127
52896,note_off,87,0,0,,4,,,64,127
52898,note_on,2,0,0,,12,,,59,127
52983,note_off,85,0,0,,8,,,68,127
52985,note_off,2,0,0,,12,,,59,127
52985,note_off,0,0,0,,4,,,52,127
52985,note_off,0,0,0,,4,,,40,127
52987,note_on,2,0,0,,12,,,47,127
52987,note_on,0,0,0,,10,,,69,127
52987,note_on,0,0,0,,3,,,63,127
53074,note_off,87,0,0,,3,,,63,127
53076,note_on,2,0,0,,1,,,61,127
53163,note_off,87,0,0,,1,,,61,127
53165,note_on,2,0,0,,3,,,63,127
53252,note_off,87,0,0,,3,,,63,127
53254,note_on,2,0,0,,12,,,59,127
53339,note_off,85,0,0,,10,,,69,127
53341,note_off,2,0,0,,12,,,59,127
53341,note_off,0,0,0,,12,,,47,127
53343,note_on,2,0,0,,4,,,40,127
53343,note_on,0,0,0,,8,,,68,127
53343,note_on,0,0,0,,4,,,64,127
53430,note_off,87,0,0,,4,,,40,127
53432,note_on,2,0,0,,8,,,44,127
53519,note_off,87,0,0,,8,,,44,127
53521,note_on,2,0,0,,12,,,47,127
53608,note_off,87,0,0,,12,,,47,127
53610,note_on,2,0,0,,4,,,52,127
53697,note_off,87,0,0,,4,,,52,127
53699,note_on,2,0,0,,8,,,56,127
53786,note_off,87,0,0,,8,,,56,127
53788,note_on,2,0,0,,12,,,59,127
53875,note_off,87,0,0,,12,,,59,127
53875,note_off,0,0,0,,4,,,64,127
53875,note_off,0,0,0,,8,,,68,127
53877,note_on,2,0,0,,4,,,64,127
53964,note_off,87,0,0,,4,,,64,127
53966,note_on,2,0,0,,4,,,76,127
54055,note_on,89,0,0,,4,,,40,127
54142,note_off,87,0,0,,4,,,40,127
54144,note_on,2,0,0,,8,,,44,127
54231,note_off,87,0,0,,8,,,44,127
54233,note_on,2,0,0,,12,,,47,127
54320,note_off,87,0,0,,12,,,47,127
54322,note_on,2,0,0,,4,,,52,127
54409,note_off,87,0,0,,4,,,52,127
54411,note_on,2,0,0,,8,,,56,127
54498,note_off,87,0,0,,8,,,56,127
54500,note_on,2,0,0,,12,,,59,127
54587,note_off,87,0,0,,12,,,59,127
54587,note_off,0,0,0,,4,,,76,127
54589,note_on,2,0,0,,4,,,64,127
54676,note_off,87,0,0,,4,,,64,127
54678,note_on,2,0,0,,4,,,76,127
54766,note_off,88,0,0,,4,,,76,127
54767,note_on,1,0,0,,4,,,40,127
55475,note_off,708,0,0,,4,,,40,127
55542,note_on,67,0,0,,4,,,52,127
55542,note_on,0,0,0,,4,,,76,127
55629,note_off,87,0,0,,4,,,52,127
55631,note_on,2,0,0,,8,,,56,127
55718,note_off,87,0,0,,8,,,56,127
55720,note_on,2,0,0,,12,,,59,127
55807,note_off,87,0,0,,12,,,59,127
55809,note_on,2,0,0,,4,,,64,127
55896,note_off,87,0,0,,4,,,64,127
55896,note_off,0,0,0,,4,,,76,127
55898,note_on,2,0,0,,2,,,50,127
55898,note_on,0,0,0,,4,,,76,127
55985,note_off,87,0,0,,2,,,50,127
55987,note_on,2,0,0,,8,,,56,127
56074,note_off,87,0,0,,8,,,56,127
56076,note_on,2,0,0,,12,,,59,127
56163,note_off,87,0,0,,12,,,59,127
56165,note_on,2,0,0,,2,,,62,127
56252,note_off,87,0,0,,2,,,62,127
56252,note_off,0,0,0,,4,,,76,127
56254,note_on,2,0,0,,1,,,49,127
56254,note_on,0,0,0,,4,,,76,127
56341,note_off,87,0,0,,1,,,49,127
56343,note_on,2,0,0,,10,,,57,127
56430,note_off,87,0,0,,10,,,57,127
56432,note_on,2,0,0,,1,,,61,127
56519,note_off,87,0,0,,1,,,61,127
56521,note_on,2,0,0,,10,,,57,127
56608,note_off,87,0,0,,10,,,57,127
56608,note_off,0,0,0,,4,,,76,127
56610,note_on,2,0,0,,12,,,47,127
56610,note_on,0,0,0,,4,,,76,127
56697,note_off,87,0,0,,12,,,47,127
56699,note_on,2,0,0,,8,,,56,127
56786,note_off,87,0,0,,8,,,56,127
56788,note_on,2,0,0,,12,,,59,127
56875,note_off,87,0,0,,12,,,59,127
56877,note_on,2,0,0,,8,,,56,127
56964,note_off,87,0,0,,8,,,56,127
56964,note_off,0,0,0,,4,,,76,127
56966,note_on,2,0,0,,10,,,45,127
56966,note_on,0,0,0,,4,,,76,127
57053,note_off,87,0,0,,4,,,76,127
57055,note_on,2,0,0,,10,,,81,127
57142,note_off,87,0,0,,10,,,81,127
57144,note_on,2,0,0,,4,,,76,127
57231,note_off,87,0,0,,4,,,76,127
57233,note_on,2,0,0,,1,,,73,127
57320,note_off,87,0,0,,1,,,73,127
57322,note_on,2,0,0,,10,,,69,127
57409,note_off,87,0,0,,10,,,69,127
57411,note_on,2,0,0,,1,,,73,127
57498,note_off,87,0,0,,1,,,73,127
57500,note_on,2,0,0,,10,,,69,127
57587,note_off,87,0,0,,10,,,69,127
57589,note_on,2,0,0,,4,,,64,127
57676,note_off,87,0,0,,4,,,64,127
57676,note_off,0,0,0,,10,,,45,127
57693,note_on,17,0,0,,10,,,81,127
57693,note_on,0,0,0,,10,,,45,127
57780,note_off,87,0,0,,10,,,45,127
57782,note_on,2,0,0,,1,,,49,127
57869,note_off,87,0,0,,1,,,49,127
57871,note_on,2,0,0,,4,,,52,127
57958,note_off,87,0,0,,4,,,52,127
57960,note_on,2,0,0,,10,,,57,127
58047,note_off,87,0,0,,10,,,57,127
58047,note_off,0,0,0,,10,,,81,127
58049,note_on,2,0,0,,10,,,81,127
58049,note_on,0,0,0,,7,,,43,127
58136,note_off,87,0,0,,7,,,43,127
58138,note_on,2,0,0,,1,,,49,127
58225,note_off,87,0,0,,1,,,49,127
58227,note_on,2,0,0,,4,,,52,127
58314,note_off,87,0,0,,4,,,52,127
58316,note_on,2,0,0,,7,,,55,127
58403,note_off,87,0,0,,7,,,55,127
58403,note_off,0,0,0,,10,,,81,127
58405,note_on,2,0,0,,10,,,81,127
58405,note_on,0,0,0,,6,,,42,127
58492,note_off,87,0,0,,6,,,42,127
58494,note_on,2,0,0,,2,,,50,127
58581,note_off,87,0,0,,2,,,50,127
58583,note_on,2,0,0,,6,,,54,127
58670,note_off,87,0,0,,6,,,54,127
58672,note_on,2,0,0,,2,,,50,127
58759,note_off,87,0,0,,2,,,50,127
58759,note_off,0,0,0,,10,,,81,127
58761,note_on,2,0,0,,10,,,81,127
58761,note_on,0,0,0,,4,,,40,127
58848,note_off,87,0,0,,4,,,40,127
58850,note_on,2,0,0,,1,,,49,127
58937,note_off,87,0,0,,1,,,49,127
58939,note_on,2,0,0,,4,,,52,127
59026,note_off,87,0,0,,4,,,52,127
59028,note_on,2,0,0,,1,,,49,127
59115,note_off,87,0,0,,1,,,49,127
59115,note_off,0,0,0,,10,,,81,127
59117,note_on,2,0,0,,2,,,86,127
59117,note_on,0,0,0,,2,,,38,127
59204,note_off,87,0,0,,2,,,86,127
59206,note_on,2,0,0,,10,,,81,127
59293,note_off,87,0,0,,10,,,81,127
59295,note_on,2,0,0,,6,,,78,127
59382,note_off,87,0,0,,6,,,78,127
59384,note_on,2,0,0,,2,,,74,127
59471,note_off,87,0,0,,2,,,74,127
59473,note_on,2,0,0,,2,,,74,127
59560,note_off,87,0,0,,2,,,74,127
59562,note_on,2,0,0,,6,,,78,127
59649,note_off,87,0,0,,6,,,78,127
59651,note_on,2,0,0,,2,,,74,127
59738,note_off,87,0,0,,2,,,74,127
59740,note_on,2,0,0,,10,,,69,127
59827,note_off,87,0,0,,10,,,69,127
59827,note_off,0,0,0,,2,,,38,127
59829,note_on,2,0,0,,2,,,74,127
59829,note_on,0,0,0,,2,,,38,127
60360,note_off,531,0,0,,2,,,74,127
60536,note_off,176,0,0,,2,,,38,127
60553,note_on,17,0,0,,2,,,50,127
60553,note_on,0,0,0,,2,,,62,127
60553,note_on,0,0,0,,6,,,78,127
60640,note_off,87,0,0,,6,,,78,127
60642,note_on,2,0,0,,2,,,74,127
60729,note_off,87,0,0,,2,,,74,127
60731,note_on,2,0,0,,6,,,66,127
60818,note_off,87,0,0,,6,,,66,127
60820,note_on,2,0,0,,2,,,74,127
60907,note_off,87,0,0,,2,,,74,127
60909,note_on,2,0,0,,6,,,78,127
60996,note_off,87,0,0,,6,,,78,127
60998,note_on,2,0,0,,6,,,66,127
61085,note_off,87,0,0,,6,,,66,127
61087,note_on,2,0,0,,6,,,78,127
61174,note_off,87,0,0,,6,,,78,127
61176,note_on,2,0,0,,6,,,66,127
61263,note_off,87,0,0,,6,,,66,127
61263,note_off,0,0,0,,2,,,62,127
61263,note_off,0,0,0,,2,,,50,127
61265,note_on,2,0,0,,12,,,59,127
61265,note_on,0,0,0,,4,,,52,127
61265,note_on,0,0,0,,4,,,64,127
61265,note_on,0,0,0,,6,,,78,127
61265,note_on,0,0,0,,7,,,67,127
61618,note_off,353,0,0,,6,,,78,127
61620,note_on,2,0,0,,4,,,76,127
61973,note_off,353,0,0,,4,,,76,127
61973,note_off,0,0,0,,4,,,64,127
61973,note_off,0,0,0,,4,,,52,127
61973,note_off,0,0,0,,12,,,59,127
61974,note_off,1,0,0,,7,,,67,127
61975,note_on,1,0,0,,7,,,55,127
61975,note_on,0,0,0,,4,,,64,127
61975,note_on,0,0,0,,4,,,76,127
62062,note_off,87,0,0,,4,,,76,127
62064,note_on,2,0,0,,11,,,70,127
62151,note_off,87,0,0,,11,,,70,127
62153,note_on,2,0,0,,7,,,67,127
62240,note_off,87,0,0,,7,,,67,127
62242,note_on,2,0,0,,11,,,70,127
62329,note_off,87,0,0,,11,,,70,127
62331,note_on,2,0,0,,4,,,76,127
62418,note_off,87,0,0,,4,,,76,127
62420,note_on,2,0,0,,12,,,71,127
62507,note_off,87,0,0,,12,,,71,127
62509,note_on,2,0,0,,7,,,67,127
62596,note_off,87,0,0,,7,,,67,127
62598,note_on,2,0,0,,4,,,76,127
62685,note_off,87,0,0,,4,,,76,127
62685,note_off,0,0,0,,4,,,64,127
62685,note_off,0,0,0,,7,,,55,127
62687,note_on,2,0,0,,6,,,54,127
62687,note_on,0,0,0,,6,,,66,127
62687,note_on,0,0,0,,2,,,74,127
62687,note_on,0,0,0,,12,,,71,127
63040,note_off,353,0,0,,12,,,71,127
63040,note_off,0,0,0,,2,,,74,127
63042,note_on,2,0,0,,11,,,70,127
63042,note_on,0,0,0,,1,,,73,127
63395,note_off,353,0,0,,1,,,73,127
63395,note_off,0,0,0,,11,,,70,127
63395,note_off,0,0,0,,6,,,66,127
63395,note_off,0,0,0,,6,,,54,127
63412,note_on,17,0,0,,1,,,73,127
63412,note_on,0,0,0,,6,,,54,127
63499,note_off,87,0,0,,1,,,73,127
63501,note_on,2,0,0,,6,,,66,127
63588,note_off,87,0,0,,6,,,66,127
63590,note_on,2,0,0,,1,,,61,127
63677,note_off,87,0,0,,1,,,61,127
63679,note_on,2,0,0,,6,,,66,127
63766,note_off,87,0,0,,6,,,66,127
63768,note_on,2,0,0,,1,,,73,127
63855,note_off,87,0,0,,1,,,73,127
63857,note_on,2,0,0,,6,,,66,127
63944,note_off,87,0,0,,6,,,66,127
63946,note_on,2,0,0,,1,,,61,127
64033,note_off,87,0,0,,1,,,61,127
64035,note_on,2,0,0,,6,,,66,127
64035,note_on,0,0,0,,1,,,73,127
64122,note_off,87,0,0,,1,,,73,127
64122,note_off,0,0,0,,6,,,66,127
64122,note_off,0,0,0,,6,,,54,127
64124,note_on,2,0,0,,6,,,66,127
64124,note_on,0,0,0,,1,,,73,127
64124,note_on,0,0,0,,7,,,55,127
64477,note_off,353,0,0,,6,,,66,127
64479,note_on,2,0,0,,4,,,64,127
64832,note_off,353,0,0,,4,,,64,127
64832,note_off,0,0,0,,7,,,55,127
64833,note_off,1,0,0,,1,,,73,127
64834,note_on,1,0,0,,1,,,73,127
64834,note_on,0,0,0,,4,,,52,127
64834,note_on,0,0,0,,7,,,55,127
64834,note_on,0,0,0,,10,,,45,127
64921,note_off,87,0,0,,1,,,73,127
64923,note_on,2,0,0,,7,,,67,127
65010,note_off,87,0,0,,7,,,67,127
65012,note_on,2,0,0,,4,,,64,127
65099,note_off,87,0,0,,4,,,64,127
65101,note_on,2,0,0,,7,,,67,127
65188,note_off,87,0,0,,7,,,67,127
65190,note_on,2,0,0,,1,,,73,127
65277,note_off,87,0,0,,1,,,73,127
65279,note_on,2,0,0,,7,,,67,127
65366,note_off,87,0,0,,7,,,67,127
65368,note_on,2,0,0,,4,,,64,127
65455,note_off,87,0,0,,4,,,64,127
65457,note_on,2,0,0,,1,,,73,127
65544,note_off,87,0,0,,1,,,73,127
65544,note_off,0,0,0,,10,,,45,127
65544,note_off,0,0,0,,7,,,55,127
65544,note_off,0,0,0,,4,,,52,127
65546,note_on,2,0,0,,10,,,69,127
65546,note_on,0,0,0,,2,,,74,127
65546,note_on,0,0,0,,7,,,67,127
65546,note_on,0,0,0,,2,,,50,127
65546,note_on,0,0,0,,2,,,38,127
65899,note_off,353,0,0,,7,,,67,127
65901,note_on,2,0,0,,6,,,66,127
66254,note_off,353,0,0,,6,,,66,127
66254,note_off,0,0,0,,2,,,38,127
66254,note_off,0,0,0,,2,,,50,127
66255,note_off,1,0,0,,2,,,74,127
66255,note_off,0,0,0,,10,,,69,127
66271,note_on,16,0,0,,2,,,50,127
66271,note_on,0,0,0,,2,,,62,127
66271,note_on,0,0,0,,2,,,74,127
66358,note_off,87,0,0,,2,,,74,127
66360,note_on,2,0,0,,6,,,66,127
66447,note_off,87,0,0,,6,,,66,127
66447,note_off,0,0,0,,2,,,62,127
66449,note_on,2,0,0,,2,,,62,127
66538,note_on,89,0,0,,6,,,66,127
66625,note_off,87,0,0,,6,,,66,127
66625,note_off,0,0,0,,2,,,62,127
66627,note_on,2,0,0,,2,,,74,127
66714,note_off,87,0,0,,2,,,74,127
66716,note_on,2,0,0,,6,,,66,127
66803,note_off,87,0,0,,6,,,66,127
66805,note_on,2,0,0,,2,,,62,127
66894,note_on,89,0,0,,6,,,66,127
66981,note_off,87,0,0,,6,,,66,127
66981,note_off,0,0,0,,2,,,62,127
66981,note_off,0,0,0,,2,,,50,127
66983,note_on,2,0,0,,2,,,50,127
66983,note_on,0,0,0,,2,,,62,127
66983,note_on,0,0,0,,0,,,60,127
66983,note_on,0,0,0,,2,,,74,127
66983,note_on,0,0,0,,7,,,67,127
67336,note_off,353,0,0,,7,,,67,127
67338,note_on,2,0,0,,6,,,66,127
67691,note_off,353,0,0,,6,,,66,127
67691,note_off,0,0,0,,0,,,60,127
67691,note_off,0,0,0,,2,,,62,127
67691,note_off,0,0,0,,2,,,50,127
67692,note_off,1,0,0,,2,,,74,127
67693,note_on,1,0,0,,2,,,50,127
67693,note_on,0,0,0,,0,,,60,127
67693,note_on,0,0,0,,2,,,74,127
67780,note_off,87,0,0,,2,,,74,127
67782,note_on,2,0,0,,6,,,66,127
67869,note_off,87,0,0,,6,,,66,127
67871,note_on,2,0,0,,2,,,62,127
67958,note_off,87,0,0,,2,,,62,127
67960,note_on,2,0,0,,6,,,66,127
68047,note_off,87,0,0,,6,,,66,127
68049,note_on,2,0,0,,2,,,74,127
68136,note_off,87,0,0,,2,,,74,127
68138,note_on,2,0,0,,6,,,66,127
68225,note_off,87,0,0,,6,,,66,127
68227,note_on,2,0,0,,2,,,62,127
68314,note_off,87,0,0,,2,,,62,127
68316,note_on,2,0,0,,6,,,66,127
68403,note_off,87,0,0,,6,,,66,127
68403,note_off,0,0,0,,0,,,60,127
68403,note_off,0,0,0,,2,,,50,127
68405,note_on,2,0,0,,2,,,50,127
68405,note_on,0,0,0,,12,,,59,127
68405,note_on,0,0,0,,6,,,66,127
68405,note_on,0,0,0,,2,,,74,127
68758,note_off,353,0,0,,6,,,66,127
68760,note_on,2,0,0,,8,,,68,127
69113,note_off,353,0,0,,8,,,68,127
69113,note_off,0,0,0,,12,,,59,127
69113,note_off,0,0,0,,2,,,50,127
69114,note_off,1,0,0,,2,,,74,127
69130,note_on,16,0,0,,2,,,74,127
69130,note_on,0,0,0,,12,,,59,127
69130,note_on,0,0,0,,2,,,50,127
69217,note_off,87,0,0,,2,,,74,127
69219,note_on,2,0,0,,8,,,68,127
69306,note_off,87,0,0,,8,,,68,127
69308,note_on,2,0,0,,2,,,62,127
69395,note_off,87,0,0,,2,,,62,127
69397,note_on,2,0,0,,8,,,68,127
69484,note_off,87,0,0,,8,,,68,127
69486,note_on,2,0,0,,2,,,74,127
69573,note_off,87,0,0,,2,,,74,127
69575,note_on,2,0,0,,8,,,68,127
69662,note_off,87,0,0,,8,,,68,127
69664,note_on,2,0,0,,2,,,62,127
69751,note_off,87,0,0,,2,,,62,127
69753,note_on,2,0,0,,2,,,74,127
69840,note_off,87,0,0,,2,,,74,127
69840,note_off,0,0,0,,2,,,50,127
69840,note_off,0,0,0,,12,,,59,127
69842,note_on,2,0,0,,5,,,65,127
69842,note_on,0,0,0,,2,,,74,127
69842,note_on,0,0,0,,12,,,59,127
69842,note_on,0,0,0,,8,,,56,127
69842,note_on,0,0,0,,1,,,49,127
70195,note_off,353,0,0,,2,,,74,127
70197,note_on,2,0,0,,5,,,77,127
70550,note_off,353,0,0,,5,,,77,127
70550,note_off,0,0,0,,1,,,49,127
70550,note_off,0,0,0,,8,,,56,127
70550,note_off,0,0,0,,12,,,59,127
70551,note_off,1,0,0,,5,,,65,127
70567,note_on,16,0,0,,8,,,56,127
70567,note_on,0,0,0,,1,,,49,127
70567,note_on,0,0,0,,12,,,59,127
70567,note_on,0,0,0,,8,,,80,127
70654,note_off,87,0,0,,8,,,80,127
70656,note_on,2,0,0,,2,,,74,127
70743,note_off,87,0,0,,2,,,74,127
70745,note_on,2,0,0,,12,,,71,127
70832,note_off,87,0,0,,12,,,71,127
70834,note_on,2,0,0,,2,,,74,127
70921,note_off,87,0,0,,2,,,74,127
70923,note_on,2,0,0,,8,,,80,127
71010,note_off,87,0,0,,8,,,80,127
71012,note_on,2,0,0,,2,,,74,127
71099,note_off,87,0,0,,2,,,74,127
71101,note_on,2,0,0,,12,,,71,127
71188,note_off,87,0,0,,12,,,71,127
71190,note_on,2,0,0,,2,,,74,127
71277,note_off,87,0,0,,2,,,74,127
71277,note_off,0,0,0,,12,,,59,127
71277,note_off,0,0,0,,1,,,49,127
71277,note_off,0,0,0,,8,,,56,127
71279,note_on,2,0,0,,4,,,52,127
71279,note_on,0,0,0,,2,,,50,127
71279,note_on,0,0,0,,12,,,47,127
71279,note_on,0,0,0,,8,,,56,127
71279,note_on,0,0,0,,8,,,80,127
71366,note_off,87,0,0,,8,,,80,127
71368,note_on,2,0,0,,2,,,74,127
71455,note_off,87,0,0,,2,,,74,127
71457,note_on,2,0,0,,12,,,71,127
71544,note_off,87,0,0,,12,,,71,127
71546,note_on,2,0,0,,2,,,74,127
71633,note_off,87,0,0,,2,,,74,127
71635,note_on,2,0,0,,12,,,83,127
71722,note_off,87,0,0,,12,,,83,127
71724,note_on,2,0,0,,2,,,74,127
71811,note_off,87,0,0,,2,,,74,127
71813,note_on,2,0,0,,12,,,71,127
71900,note_off,87,0,0,,12,,,71,127
71902,note_on,2,0,0,,2,,,74,127
71989,note_off,87,0,0,,2,,,74,127
71989,note_off,0,0,0,,8,,,56,127
71989,note_off,0,0,0,,12,,,47,127
71989,note_off,0,0,0,,2,,,50,127
71989,note_off,0,0,0,,4,,,52,127
71991,note_on,2,0,0,,12,,,47,127
71991,note_on,0,0,0,,8,,,56,127
71991,note_on,0,0,0,,4,,,52,127
71991,note_on,0,0,0,,2,,,50,127
71991,note_on,0,0,0,,10,,,81,127
72078,note_off,87,0,0,,10,,,81,127
72080,note_on,2,0,0,,2,,,74,127
72167,note_off,87,0,0,,2,,,74,127
72169,note_on,2,0,0,,12,,,71,127
72256,note_off,87,0,0,,12,,,71,127
72258,note_on,2,0,0,,2,,,74,127
72345,note_off,87,0,0,,2,,,74,127
72347,note_on,2,0,0,,8,,,80,127
72434,note_off,87,0,0,,8,,,80,127
72436,note_on,2,0,0,,4,,,76,127
72523,note_off,87,0,0,,4,,,76,127
72525,note_on,2,0,0,,12,,,71,127
72612,note_off,87,0,0,,12,,,71,127
72614,note_on,2,0,0,,4,,,76,127
72701,note_off,87,0,0,,4,,,76,127
72701,note_off,0,0,0,,2,,,50,127
72701,note_off,0,0,0,,4,,,52,127
72701,note_off,0,0,0,,8,,,56,127
72701,note_off,0,0,0,,12,,,47,127
72703,note_on,2,0,0,,10,,,57,127
72703,note_on,0,0,0,,2,,,50,127
72703,note_on,0,0,0,,10,,,45,127
72703,note_on,0,0,0,,10,,,81,127
72790,note_off,87,0,0,,10,,,81,127
72792,note_on,2,0,0,,5,,,77,127
72879,note_off,87,0,0,,5,,,77,127
72881,note_on,2,0,0,,10,,,69,127
72968,note_off,87,0,0,,10,,,69,127
72970,note_on,2,0,0,,5,,,77,127
73057,note_off,87,0,0,,5,,,77,127
73059,note_on,2,0,0,,10,,,81,127
73146,note_off,87,0,0,,10,,,81,127
73148,note_on,2,0,0,,5,,,77,127
73235,note_off,87,0,0,,5,,,77,127
73237,note_on,2,0,0,,10,,,69,127
73324,note_off,87,0,0,,10,,,69,127
73326,note_on,2,0,0,,5,,,77,127
73413,note_off,87,0,0,,5,,,77,127
73413,note_off,0,0,0,,10,,,45,127
73413,note_off,0,0,0,,2,,,50,127
73413,note_off,0,0,0,,10,,,57,127
73415,note_on,2,0,0,,4,,,52,127
73415,note_on,0,0,0,,10,,,45,127
73415,note_on,0,0,0,,10,,,57,127
73415,note_on,0,0,0,,10,,,81,127
73502,note_off,87,0,0,,10,,,81,127
73504,note_on,2,0,0,,4,,,76,127
73591,note_off,87,0,0,,4,,,76,127
73593,note_on,2,0,0,,0,,,72,127
73680,note_off,87,0,0,,0,,,72,127
73682,note_on,2,0,0,,4,,,76,127
73769,note_off,87,0,0,,4,,,76,127
73769,note_off,0,0,0,,10,,,45,127
73769,note_off,0,0,0,,4,,,52,127
73771,note_on,2,0,0,,2,,,50,127
73771,note_on,0,0,0,,12,,,83,127
73858,note_off,87,0,0,,12,,,83,127
73860,note_on,2,0,0,,2,,,74,127
73947,note_off,87,0,0,,2,,,74,127
73949,note_on,2,0,0,,12,,,71,127
74036,note_off,87,0,0,,12,,,71,127
74038,note_on,2,0,0,,2,,,74,127
74125,note_off,87,0,0,,2,,,74,127
74125,note_off,0,0,0,,2,,,50,127
74126,note_off,1,0,0,,10,,,57,127
74127,note_on,1,0,0,,4,,,52,127
74127,note_on,0,0,0,,10,,,45,127
74127,note_on,0,0,0,,10,,,57,127
74127,note_on,0,0,0,,0,,,84,127
74214,note_off,87,0,0,,0,,,84,127
74216,note_on,2,0,0,,4,,,76,127
74303,note_off,87,0,0,,4,,,76,127
74305,note_on,2,0,0,,0,,,72,127
74392,note_off,87,0,0,,0,,,72,127
74394,note_on,2,0,0,,4,,,76,127
74481,note_off,87,0,0,,4,,,76,127
74481,note_off,0,0,0,,10,,,57,127
74481,note_off,0,0,0,,10,,,45,127
74481,note_off,0,0,0,,4,,,52,127
74483,note_on,2,0,0,,4,,,64,127
74483,note_on,0,0,0,,4,,,52,127
74483,note_on,0,0,0,,12,,,83,127
74570,note_off,87,0,0,,12,,,83,127
74572,note_on,2,0,0,,4,,,76,127
74659,note_off,87,0,0,,4,,,76,127
74661,note_on,2,0,0,,12,,,71,127
74748,note_off,87,0,0,,12,,,71,127
74750,note_on,2,0,0,,4,,,76,127
74837,note_off,87,0,0,,4,,,76,127
74837,note_off,0,0,0,,4,,,52,127
74837,note_off,0,0,0,,4,,,64,127
74839,note_on,2,0,0,,5,,,53,127
74839,note_on,0,0,0,,2,,,62,127
74839,note_on,0,0,0,,10,,,81,127
74926,note_off,87,0,0,,10,,,81,127
74928,note_on,2,0,0,,2,,,74,127
75015,note_off,87,0,0,,2,,,74,127
75017,note_on,2,0,0,,10,,,69,127
75104,note_off,87,0,0,,10,,,69,127
75106,note_on,2,0,0,,2,,,74,127
75193,note_off,87,0,0,,2,,,74,127
75193,note_off,0,0,0,,2,,,62,127
75193,note_off,0,0,0,,5,,,53,127
75195,note_on,2,0,0,,4,,,52,127
75195,note_on,0,0,0,,0,,,60,127
75195,note_on,0,0,0,,7,,,79,127
75282,note_off,87,0,0,,7,,,79,127
75284,note_on,2,0,0,,0,,,72,127
75371,note_off,87,0,0,,0,,,72,127
75373,note_on,2,0,0,,7,,,67,127
75460,note_off,87,0,0,,7,,,67,127
75462,note_on,2,0,0,,0,,,72,127
75549,note_off,87,0,0,,0,,,72,127
75549,note_off,0,0,0,,0,,,60,127
75549,note_off,0,0,0,,4,,,52,127
75551,note_on,2,0,0,,2,,,50,127
75551,note_on,0,0,0,,8,,,56,127
75551,note_on,0,0,0,,5,,,77,127
75638,note_off,87,0,0,,5,,,77,127
75640,note_on,2,0,0,,12,,,71,127
75727,note_off,87,0,0,,12,,,71,127
75729,note_on,2,0,0,,5,,,65,127
75816,note_off,87,0,0,,5,,,65,127
75818,note_on,2,0,0,,12,,,71,127
75905,note_off,87,0,0,,12,,,71,127
75905,note_off,0,0,0,,8,,,56,127
75905,note_off,0,0,0,,2,,,50,127
75907,note_on,2,0,0,,0,,,48,127
75907,note_on,0,0,0,,10,,,57,127
75907,note_on,0,0,0,,4,,,76,127
75994,note_off,87,0,0,,4,,,76,127
75996,note_on,2,0,0,,10,,,69,127
76083,note_off,87,0,0,,10,,,69,127
76085,note_on,2,0,0,,4,,,64,127
76172,note_off,87,0,0,,4,,,64,127
76174,note_on,2,0,0,,10,,,69,127
76261,note_off,87,0,0,,10,,,69,127
76261,note_off,0,0,0,,10,,,57,127
76261,note_off,0,0,0,,0,,,48,127
76263,note_on,2,0,0,,12,,,47,127
76263,note_on,0,0,0,,8,,,56,127
76263,note_on,0,0,0,,2,,,74,127
76350,note_off,87,0,0,,2,,,74,127
76352,note_on,2,0,0,,8,,,68,127
76439,note_off,87,0,0,,8,,,68,127
76441,note_on,2,0,0,,2,,,62,127
76528,note_off,87,0,0,,2,,,62,127
76530,note_on,2,0,0,,8,,,68,127
76617,note_off,87,0,0,,8,,,68,127
76617,note_off,0,0,0,,8,,,56,127
76617,note_off,0,0,0,,12,,,47,127
76619,note_on,2,0,0,,10,,,57,127
76619,note_on,0,0,0,,10,,,45,127
76619,note_on,0,0,0,,0,,,72,127
76706,note_off,87,0,0,,0,,,72,127
76708,note_on,2,0,0,,4,,,64,127
76795,note_off,87,0,0,,4,,,64,127
76797,note_on,2,0,0,,0,,,60,127
76884,note_off,87,0,0,,0,,,60,127
76886,note_on,2,0,0,,4,,,64,127
76973,note_off,87,0,0,,4,,,64,127
76973,note_off,0,0,0,,10,,,45,127
76973,note_off,0,0,0,,10,,,57,127
76975,note_on,2,0,0,,4,,,40,127
76975,note_on,0,0,0,,4,,,52,127
76975,note_on,0,0,0,,0,,,72,127
76975,note_on,0,0,0,,10,,,69,127
76975,note_on,0,0,0,,4,,,64,127
77328,note_off,353,0,0,,10,,,69,127
77328,note_off,0,0,0,,0,,,72,127
77330,note_on,2,0,0,,8,,,68,127
77330,note_on,0,0,0,,12,,,71,127
77683,note_off,353,0,0,,12,,,71,127
77683,note_off,0,0,0,,8,,,68,127
77684,note_off,1,0,0,,4,,,64,127
77714,note_off,30,0,0,,4,,,52,127
77714,note_off,0,0,0,,4,,,40,127
77729,note_on,15,0,0,,2,,,86,127
77729,note_on,0,0,0,,10,,,57,127
77729,note_on,0,0,0,,2,,,62,127
77729,note_on,0,0,0,,5,,,53,127
77816,note_off,87,0,0,,2,,,86,127
77818,note_on,2,0,0,,12,,,83,127
77905,note_off,87,0,0,,12,,,83,127
77907,note_on,2,0,0,,10,,,81,127
77994,note_off,87,0,0,,10,,,81,127
77996,note_on,2,0,0,,8,,,80,127
78083,note_off,87,0,0,,8,,,80,127
78085,note_on,2,0,0,,10,,,81,127
78172,note_off,87,0,0,,10,,,81,127
78174,note_on,2,0,0,,5,,,77,127
78261,note_off,87,0,0,,5,,,77,127
78263,note_on,2,0,0,,4,,,76,127
78350,note_off,87,0,0,,4,,,76,127
78352,note_on,2,0,0,,2,,,74,127
78439,note_off,87,0,0,,2,,,74,127
78439,note_off,0,0,0,,5,,,53,127
78439,note_off,0,0,0,,2,,,62,127
78439,note_off,0,0,0,,10,,,57,127
78441,note_on,2,0,0,,2,,,74,127
78441,note_on,0,0,0,,10,,,69,127
78441,note_on,0,0,0,,4,,,52,127
78441,note_on,0,0,0,,4,,,64,127
78498,note_off,57,0,0,,2,,,74,127
78500,note_on,2,0,0,,0,,,72,127
78557,note_off,57,0,0,,0,,,72,127
78559,note_on,2,0,0,,2,,,74,127
78616,note_off,57,0,0,,2,,,74,127
78618,note_on,2,0,0,,0,,,72,127
78675,note_off,57,0,0,,0,,,72,127
78677,note_on,2,0,0,,2,,,74,127
78734,note_off,57,0,0,,2,,,74,127
78736,note_on,2,0,0,,0,,,72,127
78791,note_off,55,0,0,,10,,,69,127
78793,note_off,2,0,0,,0,,,72,127
78795,note_on,2,0,0,,8,,,68,127
78795,note_on,0,0,0,,12,,,71,127
79148,note_off,353,0,0,,12,,,71,127
79148,note_off,0,0,0,,8,,,68,127
79148,note_off,0,0,0,,4,,,64,127
79148,note_off,0,0,0,,4,,,52,127
79150,note_on,2,0,0,,2,,,86,127
79150,note_on,0,0,0,,5,,,53,127
79150,note_on,0,0,0,,10,,,57,127
79150,note_on,0,0,0,,2,,,62,127
79237,note_off,87,0,0,,2,,,86,127
79239,note_on,2,0,0,,12,,,83,127
79326,note_off,87,0,0,,12,,,83,127
79328,note_on,2,0,0,,10,,,81,127
79415,note_off,87,0,0,,10,,,81,127
79417,note_on,2,0,0,,8,,,80,127
79504,note_off,87,0,0,,8,,,80,127
79506,note_on,2,0,0,,10,,,81,127
79593,note_off,87,0,0,,10,,,81,127
79595,note_on,2,0,0,,5,,,77,127
79682,note_off,87,0,0,,5,,,77,127
79684,note_on,2,0,0,,4,,,76,127
79771,note_off,87,0,0,,4,,,76,127
79773,note_on,2,0,0,,2,,,74,127
79860,note_off,87,0,0,,2,,,74,127
79860,note_off,0,0,0,,2,,,62,127
79860,note_off,0,0,0,,10,,,57,127
79860,note_off,0,0,0,,5,,,53,127
79862,note_on,2,0,0,,10,,,69,127
79862,note_on,0,0,0,,2,,,74,127
79862,note_on,0,0,0,,4,,,52,127
79862,note_on,0,0,0,,4,,,64,127
79919,note_off,57,0,0,,2,,,74,127
79921,note_on,2,0,0,,0,,,72,127
79978,note_off,57,0,0,,0,,,72,127
79980,note_on,2,0,0,,2,,,74,127
80037,note_off,57,0,0,,2,,,74,127
80039,note_on,2,0,0,,0,,,72,127
80096,note_off,57,0,0,,0,,,72,127
80098,note_on,2,0,0,,2,,,74,127
80155,note_off,57,0,0,,2,,,74,127
80157,note_on,2,0,0,,0,,,72,127
80212,note_off,55,0,0,,10,,,69,127
80214,note_off,2,0,0,,0,,,72,127
80216,note_on,2,0,0,,8,,,68,127
80216,note_on,0,0,0,,12,,,71,127
80569,note_off,353,0,0,,12,,,71,127
80569,note_off,0,0,0,,8,,,68,127
80569,note_off,0,0,0,,4,,,64,127
80569,note_off,0,0,0,,4,,,52,127
80571,note_on,2,0,0,,2,,,86,127
80571,note_on,0,0,0,,2,,,62,127
80571,note_on,0,0,0,,5,,,53,127
80571,note_on,0,0,0,,10,,,57,127
80658,note_off,87,0,0,,2,,,86,127
80660,note_on,2,0,0,,12,,,83,127
80747,note_off,87,0,0,,12,,,83,127
80749,note_on,2,0,0,,10,,,81,127
80836,note_off,87,0,0,,10,,,81,127
80838,note_on,2,0,0,,8,,,80,127
80925,note_off,87,0,0,,8,,,80,127
80927,note_on,2,0,0,,10,,,81,127
81014,note_off,87,0,0,,10,,,81,127
81016,note_on,2,0,0,,5,,,77,127
81103,note_off,87,0,0,,5,,,77,127
81105,note_on,2,0,0,,4,,,76,127
81192,note_off,87,0,0,,4,,,76,127
81194,note_on,2,0,0,,2,,,74,127
81281,note_off,87,0,0,,2,,,74,127
81281,note_off,0,0,0,,10,,,57,127
81281,note_off,0,0,0,,5,,,53,127
81281,note_off,0,0,0,,2,,,62,127
81283,note_on,2,0,0,,10,,,69,127
81283,note_on,0,0,0,,2,,,74,127
81283,note_on,0,0,0,,4,,,64,127
81283,note_on,0,0,0,,4,,,52,127
81340,note_off,57,0,0,,2,,,74,127
81342,note_on,2,0,0,,0,,,72,127
81399,note_off,57,0,0,,0,,,72,127
81401,note_on,2,0,0,,2,,,74,127
81458,note_off,57,0,0,,2,,,74,127
81460,note_on,2,0,0,,0,,,72,127
81517,note_off,57,0,0,,0,,,72,127
81519,note_on,2,0,0,,2,,,74,127
81576,note_off,57,0,0,,2,,,74,127
81578,note_on,2,0,0,,0,,,72,127
81633,note_off,55,0,0,,10,,,69,127
81635,note_off,2,0,0,,0,,,72,127
81637,note_on,2,0,0,,8,,,68,127
81637,note_on,0,0,0,,12,,,71,127
81990,note_off,353,0,0,,12,,,71,127
81990,note_off,0,0,0,,8,,,68,127
81990,note_off,0,0,0,,4,,,52,127
81990,note_off,0,0,0,,4,,,64,127
82021,note_on,31,0,0,,8,,,68,127
82021,note_on,0,0,0,,4,,,64,127
82108,note_off,87,0,0,,4,,,64,127
82108,note_off,0,0,0,,8,,,68,127
82110,note_on,2,0,0,,10,,,69,127
82110,note_on,0,0,0,,6,,,66,127
82197,note_off,87,0,0,,6,,,66,127
82197,note_off,0,0,0,,10,,,69,127
82199,note_on,2,0,0,,12,,,71,127
82199,note_on,0,0,0,,8,,,68,127
82286,note_off,87,0,0,,8,,,68,127
82286,note_off,0,0,0,,12,,,71,127
82288,note_on,2,0,0,,1,,,73,127
82288,note_on,0,0,0,,10,,,69,127
82375,note_off,87,0,0,,10,,,69,127
82375,note_off,0,0,0,,1,,,73,127
82377,note_on,2,0,0,,2,,,74,127
82377,note_on,0,0,0,,12,,,71,127
82464,note_off,87,0,0,,12,,,71,127
82464,note_off,0,0,0,,2,,,74,127
82466,note_on,2,0,0,,4,,,76,127
82466,note_on,0,0,0,,8,,,68,127
82553,note_off,87,0,0,,8,,,68,127
82553,note_off,0,0,0,,4,,,76,127
82555,note_on,2,0,0,,12,,,71,127
82555,note_on,0,0,0,,4,,,64,127
82642,note_off,87,0,0,,4,,,64,127
82642,note_off,0,0,0,,12,,,71,127
82644,note_on,2,0,0,,2,,,74,127
82644,note_on,0,0,0,,8,,,68,127
82731,note_off,87,0,0,,8,,,68,127
82731,note_off,0,0,0,,2,,,74,127
82733,note_on,2,0,0,,1,,,73,127
82733,note_on,0,0,0,,10,,,69,127
82820,note_off,87,0,0,,1,,,73,127
82822,note_on,2,0,0,,1,,,85,127
82909,note_off,87,0,0,,1,,,85,127
82911,note_on,2,0,0,,10,,,81,127
82998,note_off,87,0,0,,10,,,81,127
83000,note_on,2,0,0,,4,,,76,127
83085,note_off,85,0,0,,10,,,69,127
83087,note_off,2,0,0,,4,,,76,127
83089,note_on,2,0,0,,1,,,73,127
83176,note_off,87,0,0,,1,,,73,127
83178,note_on,2,0,0,,10,,,69,127
83265,note_off,87,0,0,,10,,,69,127
83267,note_on,2,0,0,,4,,,64,127
83354,note_off,87,0,0,,4,,,64,127
83356,note_on,2,0,0,,4,,,76,127
83443,note_off,87,0,0,,4,,,76,127
83445,note_on,2,0,0,,8,,,68,127
83445,note_on,0,0,0,,4,,,64,127
83532,note_off,87,0,0,,4,,,64,127
83532,note_off,0,0,0,,8,,,68,127
83534,note_on,2,0,0,,10,,,69,127
83534,note_on,0,0,0,,6,,,66,127
83621,note_off,87,0,0,,6,,,66,127
83621,note_off,0,0,0,,10,,,69,127
83623,note_on,2,0,0,,12,,,71,127
83623,note_on,0,0,0,,8,,,68,127
83710,note_off,87,0,0,,8,,,68,127
83710,note_off,0,0,0,,12,,,71,127
83712,note_on,2,0,0,,1,,,73,127
83712,note_on,0,0,0,,10,,,69,127
83799,note_off,87,0,0,,10,,,69,127
83799,note_off,0,0,0,,1,,,73,127
83801,note_on,2,0,0,,2,,,74,127
83801,note_on,0,0,0,,12,,,71,127
83888,note_off,87,0,0,,12,,,71,127
83888,note_off,0,0,0,,2,,,74,127
83890,note_on,2,0,0,,4,,,76,127
83890,note_on,0,0,0,,8,,,68,127
83977,note_off,87,0,0,,8,,,68,127
83977,note_off,0,0,0,,4,,,76,127
83979,note_on,2,0,0,,12,,,71,127
83979,note_on,0,0,0,,4,,,64,127
84066,note_off,87,0,0,,4,,,64,127
84066,note_off,0,0,0,,12,,,71,127
84068,note_on,2,0,0,,2,,,74,127
84068,note_on,0,0,0,,8,,,68,127
84155,note_off,87,0,0,,8,,,68,127
84155,note_off,0,0,0,,2,,,74,127
84157,note_on,2,0,0,,1,,,73,127
84157,note_on,0,0,0,,10,,,69,127
84244,note_off,87,0,0,,10,,,69,127
84244,note_off,0,0,0,,1,,,73,127
84246,note_on,2,0,0,,1,,,73,127
84335,note_on,89,0,0,,10,,,69,127
84422,note_off,87,0,0,,10,,,69,127
84424,note_on,2,0,0,,4,,,64,127
84511,note_off,87,0,0,,4,,,64,127
84513,note_on,2,0,0,,1,,,61,127
84598,note_off,85,0,0,,1,,,73,127
84600,note_off,2,0,0,,1,,,61,127
84602,note_on,2,0,0,,10,,,57,127
84689,note_off,87,0,0,,10,,,57,127
84691,note_on,2,0,0,,1,,,61,127
84748,note_off,57,0,0,,1,,,61,127
84750,note_on,2,0,0,,4,,,64,127
84807,note_off,57,0,0,,4,,,64,127
84809,note_on,2,0,0,,10,,,69,127
84866,note_off,57,0,0,,10,,,69,127
84883,note_on,17,0,0,,4,,,64,127
84883,note_on,0,0,0,,8,,,68,127
84970,note_off,87,0,0,,8,,,68,127
84970,note_off,0,0,0,,4,,,64,127
84972,note_on,2,0,0,,6,,,66,127
84972,note_on,0,0,0,,10,,,69,127
85059,note_off,87,0,0,,10,,,69,127
85059,note_off,0,0,0,,6,,,66,127
85061,note_on,2,0,0,,8,,,68,127
85061,note_on,0,0,0,,12,,,71,127
85148,note_off,87,0,0,,12,,,71,127
85148,note_off,0,0,0,,8,,,68,127
85150,note_on,2,0,0,,10,,,69,127
85150,note_on,0,0,0,,1,,,73,127
85237,note_off,87,0,0,,1,,,73,127
85237,note_off,0,0,0,,10,,,69,127
85239,note_on,2,0,0,,12,,,71,127
85239,note_on,0,0,0,,2,,,74,127
85326,note_off,87,0,0,,2,,,74,127
85326,note_off,0,0,0,,12,,,71,127
85328,note_on,2,0,0,,8,,,68,127
85328,note_on,0,0,0,,4,,,76,127
85415,note_off,87,0,0,,4,,,76,127
85415,note_off,0,0,0,,8,,,68,127
85417,note_on,2,0,0,,4,,,64,127
85417,note_on,0,0,0,,12,,,71,127
85504,note_off,87,0,0,,12,,,71,127
85504,note_off,0,0,0,,4,,,64,127
85506,note_on,2,0,0,,8,,,68,127
85506,note_on,0,0,0,,2,,,74,127
85593,note_off,87,0,0,,2,,,74,127
85593,note_off,0,0,0,,8,,,68,127
85595,note_on,2,0,0,,10,,,69,127
85595,note_on,0,0,0,,1,,,73,127
85682,note_off,87,0,0,,1,,,73,127
85684,note_on,2,0,0,,1,,,85,127
85771,note_off,87,0,0,,1,,,85,127
85773,note_on,2,0,0,,10,,,81,127
85860,note_off,87,0,0,,10,,,81,127
85862,note_on,2,0,0,,4,,,76,127
85947,note_off,85,0,0,,10,,,69,127
85949,note_off,2,0,0,,4,,,76,127
85951,note_on,2,0,0,,1,,,73,127
86038,note_off,87,0,0,,1,,,73,127
86040,note_on,2,0,0,,10,,,69,127
86127,note_off,87,0,0,,10,,,69,127
86129,note_on,2,0,0,,4,,,64,127
86216,note_off,87,0,0,,4,,,64,127
86218,note_on,2,0,0,,4,,,76,127
86305,note_off,87,0,0,,4,,,76,127
86307,note_on,2,0,0,,4,,,64,127
86307,note_on,0,0,0,,8,,,68,127
86394,note_off,87,0,0,,8,,,68,127
86394,note_off,0,0,0,,4,,,64,127
86396,note_on,2,0,0,,6,,,66,127
86396,note_on,0,0,0,,10,,,69,127
86483,note_off,87,0,0,,10,,,69,127
86483,note_off,0,0,0,,6,,,66,127
86485,note_on,2,0,0,,8,,,68,127
86485,note_on,0,0,0,,12,,,71,127
86572,note_off,87,0,0,,12,,,71,127
86572,note_off,0,0,0,,8,,,68,127
86574,note_on,2,0,0,,10,,,69,127
86574,note_on,0,0,0,,1,,,73,127
86661,note_off,87,0,0,,1,,,73,127
86661,note_off,0,0,0,,10,,,69,127
86663,note_on,2,0,0,,12,,,71,127
86663,note_on,0,0,0,,2,,,74,127
86750,note_off,87,0,0,,2,,,74,127
86750,note_off,0,0,0,,12,,,71,127
86752,note_on,2,0,0,,8,,,68,127
86752,note_on,0,0,0,,4,,,76,127
86839,note_off,87,0,0,,4,,,76,127
86839,note_off,0,0,0,,8,,,68,127
86841,note_on,2,0,0,,4,,,64,127
86841,note_on,0,0,0,,12,,,71,127
86928,note_off,87,0,0,,12,,,71,127
86928,note_off,0,0,0,,4,,,64,127
86930,note_on,2,0,0,,8,,,68,127
86930,note_on,0,0,0,,2,,,74,127
87017,note_off,87,0,0,,2,,,74,127
87017,note_off,0,0,0,,8,,,68,127
87019,note_on,2,0,0,,10,,,69,127
87019,note_on,0,0,0,,1,,,73,127
87106,note_off,87,0,0,,10,,,69,127
87107,note_off,1,0,0,,1,,,73,127
87108,note_on,1,0,0,,1,,,73,127
87195,note_off,87,0,0,,1,,,73,127
87197,note_on,2,0,0,,10,,,69,127
87284,note_off,87,0,0,,10,,,69,127
87286,note_on,2,0,0,,4,,,64,127
87373,note_off,87,0,0,,4,,,64,127
87375,note_on,2,0,0,,1,,,61,127
87462,note_off,87,0,0,,1,,,61,127
87464,note_on,2,0,0,,10,,,57,127
87551,note_off,87,0,0,,10,,,57,127
87553,note_on,2,0,0,,1,,,61,127
87610,note_off,57,0,0,,1,,,61,127
87612,note_on,2,0,0,,4,,,64,127
87669,note_off,57,0,0,,4,,,64,127
87671,note_on,2,0,0,,10,,,69,127
87728,note_off,57,0,0,,10,,,69,127
87745,note_on,17,0,0,,10,,,69,127
87745,note_on,0,0,0,,1,,,61,127
87832,note_off,87,0,0,,10,,,69,127
87834,note_on,2,0,0,,12,,,71,127
87921,note_off,87,0,0,,12,,,71,127
87923,note_on,2,0,0,,1,,,73,127
88010,note_off,87,0,0,,1,,,73,127
88012,note_on,2,0,0,,2,,,74,127
88099,note_off,87,0,0,,2,,,74,127
88101,note_on,2,0,0,,4,,,76,127
88188,note_off,87,0,0,,4,,,76,127
88190,note_on,2,0,0,,6,,,78,127
88277,note_off,87,0,0,,6,,,78,127
88279,note_on,2,0,0,,8,,,80,127
88366,note_off,87,0,0,,8,,,80,127
88368,note_on,2,0,0,,10,,,81,127
88455,note_off,87,0,0,,10,,,81,127
88455,note_off,0,0,0,,1,,,61,127
88457,note_on,2,0,0,,6,,,78,127
88457,note_on,0,0,0,,2,,,62,127
88544,note_off,87,0,0,,6,,,78,127
88546,note_on,2,0,0,,4,,,76,127
88633,note_off,87,0,0,,4,,,76,127
88635,note_on,2,0,0,,2,,,74,127
88722,note_off,87,0,0,,2,,,74,127
88724,note_on,2,0,0,,1,,,73,127
88811,note_off,87,0,0,,1,,,73,127
88813,note_on,2,0,0,,12,,,71,127
88900,note_off,87,0,0,,12,,,71,127
88902,note_on,2,0,0,,10,,,69,127
88989,note_off,87,0,0,,10,,,69,127
88991,note_on,2,0,0,,8,,,68,127
89078,note_off,87,0,0,,8,,,68,127
89080,note_on,2,0,0,,6,,,66,127
89167,note_off,87,0,0,,6,,,66,127
89167,note_off,0,0,0,,2,,,62,127
89169,note_on,2,0,0,,4,,,64,127
89169,note_on,0,0,0,,4,,,52,127
89256,note_off,87,0,0,,4,,,64,127
89258,note_on,2,0,0,,1,,,73,127
89345,note_off,87,0,0,,1,,,73,127
89347,note_on,2,0,0,,12,,,71,127
89434,note_off,87,0,0,,12,,,71,127
89436,note_on,2,0,0,,10,,,69,127
89523,note_off,87,0,0,,10,,,69,127
89523,note_off,0,0,0,,4,,,52,127
89525,note_on,2,0,0,,1,,,73,127
89525,note_on,0,0,0,,4,,,52,127
89582,note_off,57,0,0,,1,,,73,127
89584,note_on,2,0,0,,12,,,71,127
89641,note_off,57,0,0,,12,,,71,127
89643,note_on,2,0,0,,1,,,73,127
89700,note_off,57,0,0,,1,,,73,127
89702,note_on,2,0,0,,12,,,71,127
89759,note_off,57,0,0,,12,,,71,127
89761,note_on,2,0,0,,1,,,73,127
89818,note_off,57,0,0,,1,,,73,127
89820,note_on,2,0,0,,12,,,71,127
89877,note_off,57,0,0,,12,,,71,127
89877,note_off,0,0,0,,4,,,52,127
89879,note_on,2,0,0,,10,,,69,127
89879,note_on,0,0,0,,10,,,45,127
89968,note_on,89,0,0,,10,,,81,127
90055,note_off,87,0,0,,10,,,81,127
90057,note_on,2,0,0,,4,,,76,127
90144,note_off,87,0,0,,4,,,76,127
90146,note_on,2,0,0,,1,,,73,127
90222,note_off,76,0,0,,10,,,69,127
90233,note_off,11,0,0,,1,,,73,127
90235,note_on,2,0,0,,10,,,69,127
90322,note_off,87,0,0,,10,,,69,127
90324,note_on,2,0,0,,1,,,73,127
90411,note_off,87,0,0,,1,,,73,127
90413,note_on,2,0,0,,10,,,69,127
90500,note_off,87,0,0,,10,,,69,127
90502,note_on,2,0,0,,4,,,64,127
90589,note_off,87,0,0,,4,,,64,127
90589,note_off,0,0,0,,10,,,45,127
90606,note_on,17,0,0,,4,,,64,127
90606,note_on,0,0,0,,8,,,68,127
90693,note_off,87,0,0,,8,,,68,127
90693,note_off,0,0,0,,4,,,64,127
90695,note_on,2,0,0,,6,,,66,127
90695,note_on,0,0,0,,10,,,69,127
90782,note_off,87,0,0,,10,,,69,127
90782,note_off,0,0,0,,6,,,66,127
90784,note_on,2,0,0,,8,,,68,127
90784,note_on,0,0,0,,12,,,71,127
90871,note_off,87,0,0,,12,,,71,127
90871,note_off,0,0,0,,8,,,68,127
90873,note_on,2,0,0,,10,,,69,127
90873,note_on,0,0,0,,1,,,73,127
90960,note_off,87,0,0,,1,,,73,127
90960,note_off,0,0,0,,10,,,69,127
90962,note_on,2,0,0,,12,,,71,127
90962,note_on,0,0,0,,2,,,74,127
91049,note_off,87,0,0,,2,,,74,127
91049,note_off,0,0,0,,12,,,71,127
91051,note_on,2,0,0,,8,,,68,127
91051,note_on,0,0,0,,4,,,76,127
91138,note_off,87,0,0,,4,,,76,127
91138,note_off,0,0,0,,8,,,68,127
91140,note_on,2,0,0,,4,,,64,127
91140,note_on,0,0,0,,12,,,71,127
91227,note_off,87,0,0,,12,,,71,127
91227,note_off,0,0,0,,4,,,64,127
91229,note_on,2,0,0,,8,,,68,127
91229,note_on,0,0,0,,2,,,74,127
91316,note_off,87,0,0,,2,,,74,127
91316,note_off,0,0,0,,8,,,68,127
91318,note_on,2,0,0,,10,,,69,127
91318,note_on,0,0,0,,1,,,73,127
91396,note_off,78,0,0,,1,,,73,127
91397,note_on,1,0,0,,1,,,73,127
91405,note_off,8,0,0,,10,,,69,127
91474,note_off,69,0,0,,1,,,73,127
91475,note_on,1,0,0,,10,,,69,127
91553,note_off,78,0,0,,10,,,69,127
91555,note_on,2,0,0,,4,,,64,127
91633,note_off,78,0,0,,4,,,64,127
91634,note_on,1,0,0,,1,,,61,127
91712,note_off,78,0,0,,1,,,61,127
91713,note_on,1,0,0,,10,,,57,127
91791,note_off,78,0,0,,10,,,57,127
91792,note_on,1,0,0,,1,,,61,127
91870,note_off,78,0,0,,1,,,61,127
91872,note_on,2,0,0,,4,,,64,127
91950,note_off,78,0,0,,4,,,64,127
91951,note_on,1,0,0,,10,,,69,127
92029,note_off,78,0,0,,10,,,69,127
92031,note_on,2,0,0,,4,,,64,127
92031,note_on,0,0,0,,8,,,68,127
92118,note_off,87,0,0,,8,,,68,127
92118,note_off,0,0,0,,4,,,64,127
92120,note_on,2,0,0,,6,,,66,127
92120,note_on,0,0,0,,10,,,69,127
92207,note_off,87,0,0,,10,,,69,127
92207,note_off,0,0,0,,6,,,66,127
92209,note_on,2,0,0,,8,,,68,127
92209,note_on,0,0,0,,12,,,71,127
92296,note_off,87,0,0,,12,,,71,127
92296,note_off,0,0,0,,8,,,68,127
92298,note_on,2,0,0,,10,,,69,127
92298,note_on,0,0,0,,1,,,73,127
92385,note_off,87,0,0,,1,,,73,127
92385,note_off,0,0,0,,10,,,69,127
92387,note_on,2,0,0,,12,,,71,127
92387,note_on,0,0,0,,2,,,74,127
92474,note_off,87,0,0,,2,,,74,127
92474,note_off,0,0,0,,12,,,71,127
92476,note_on,2,0,0,,8,,,68,127
92476,note_on,0,0,0,,4,,,76,127
92563,note_off,87,0,0,,4,,,76,127
92563,note_off,0,0,0,,8,,,68,127
92565,note_on,2,0,0,,4,,,64,127
92565,note_on,0,0,0,,12,,,71,127
92652,note_off,87,0,0,,12,,,71,127
92652,note_off,0,0,0,,4,,,64,127
92654,note_on,2,0,0,,8,,,68,127
92654,note_on,0,0,0,,2,,,74,127
92741,note_off,87,0,0,,2,,,74,127
92741,note_off,0,0,0,,8,,,68,127
92743,note_on,2,0,0,,10,,,69,127
92743,note_on,0,0,0,,1,,,73,127
92830,note_off,87,0,0,,1,,,73,127
92832,note_on,2,0,0,,1,,,85,127
92919,note_off,87,0,0,,1,,,85,127
92921,note_on,2,0,0,,10,,,81,127
93008,note_off,87,0,0,,10,,,81,127
93010,note_on,2,0,0,,4,,,76,127
93095,note_off,85,0,0,,10,,,69,127
93097,note_off,2,0,0,,4,,,76,127
93099,note_on,2,0,0,,1,,,73,127
93186,note_off,87,0,0,,1,,,73,127
93188,note_on,2,0,0,,10,,,69,127
93275,note_off,87,0,0,,10,,,69,127
93277,note_on,2,0,0,,4,,,64,127
93366,note_on,89,0,0,,4,,,76,127
93444,note_off,78,0,0,,4,,,64,127
93453,note_off,9,0,0,,4,,,76,127
93455,note_on,2,0,0,,4,,,64,127
93455,note_on,0,0,0,,8,,,68,127
93542,note_off,87,0,0,,8,,,68,127
93542,note_off,0,0,0,,4,,,64,127
93544,note_on,2,0,0,,6,,,66,127
93544,note_on,0,0,0,,10,,,69,127
93631,note_off,87,0,0,,10,,,69,127
93631,note_off,0,0,0,,6,,,66,127
93633,note_on,2,0,0,,8,,,68,127
93633,note_on,0,0,0,,12,,,71,127
93720,note_off,87,0,0,,12,,,71,127
93720,note_off,0,0,0,,8,,,68,127
93722,note_on,2,0,0,,10,,,69,127
93722,note_on,0,0,0,,1,,,73,127
93809,note_off,87,0,0,,1,,,73,127
93809,note_off,0,0,0,,10,,,69,127
93811,note_on,2,0,0,,12,,,71,127
93811,note_on,0,0,0,,2,,,74,127
93898,note_off,87,0,0,,2,,,74,127
93898,note_off,0,0,0,,12,,,71,127
93900,note_on,2,0,0,,8,,,68,127
93900,note_on,0,0,0,,4,,,76,127
93987,note_off,87,0,0,,4,,,76,127
93987,note_off,0,0,0,,8,,,68,127
93989,note_on,2,0,0,,4,,,64,127
93989,note_on,0,0,0,,12,,,71,127
94076,note_off,87,0,0,,12,,,71,127
94076,note_off,0,0,0,,4,,,64,127
94078,note_on,2,0,0,,8,,,68,127
94078,note_on,0,0,0,,2,,,74,127
94165,note_off,87,0,0,,2,,,74,127
94165,note_off,0,0,0,,8,,,68,127
94167,note_on,2,0,0,,10,,,69,127
94167,note_on,0,0,0,,1,,,73,127
94245,note_off,78,0,0,,1,,,73,127
94246,note_on,1,0,0,,1,,,73,127
94254,note_off,8,0,0,,10,,,69,127
94324,note_on,70,0,0,,10,,,69,127
94402,note_off,78,0,0,,10,,,69,127
94404,note_on,2,0,0,,4,,,64,127
94482,note_off,78,0,0,,4,,,64,127
94483,note_on,1,0,0,,1,,,61,127
94561,note_off,78,0,0,,1,,,61,127
94562,note_on,1,0,0,,10,,,57,127
94598,note_off,36,0,0,,1,,,73,127
94640,note_off,42,0,0,,10,,,57,127
94641,note_on,1,0,0,,1,,,61,127
94719,note_off,78,0,0,,1,,,61,127
94721,note_on,2,0,0,,4,,,64,127
94799,note_off,78,0,0,,4,,,64,127
94800,note_on,1,0,0,,10,,,69,127
94878,note_off,78,0,0,,10,,,69,127
94895,note_on,17,0,0,,10,,,69,127
94895,note_on,0,0,0,,1,,,61,127
94982,note_off,87,0,0,,10,,,69,127
94984,note_on,2,0,0,,12,,,71,127
95071,note_off,87,0,0,,12,,,71,127
95073,note_on,2,0,0,,1,,,73,127
95160,note_off,87,0,0,,1,,,73,127
95162,note_on,2,0,0,,2,,,74,127
95249,note_off,87,0,0,,2,,,74,127
95251,note_on,2,0,0,,4,,,76,127
95338,note_off,87,0,0,,4,,,76,127
95340,note_on,2,0,0,,6,,,78,127
95427,note_off,87,0,0,,6,,,78,127
95429,note_on,2,0,0,,8,,,80,127
95516,note_off,87,0,0,,8,,,80,127
95518,note_on,2,0,0,,10,,,81,127
95605,note_off,87,0,0,,10,,,81,127
95605,note_off,0,0,0,,1,,,61,127
95607,note_on,2,0,0,,6,,,78,127
95607,note_on,0,0,0,,2,,,62,127
95694,note_off,87,0,0,,6,,,78,127
95696,note_on,2,0,0,,4,,,76,127
95783,note_off,87,0,0,,4,,,76,127
95785,note_on,2,0,0,,2,,,74,127
95872,note_off,87,0,0,,2,,,74,127
95874,note_on,2,0,0,,1,,,73,127
95961,note_off,87,0,0,,1,,,73,127
95963,note_on,2,0,0,,12,,,71,127
96050,note_off,87,0,0,,12,,,71,127
96052,note_on,2,0,0,,10,,,69,127
96139,note_off,87,0,0,,10,,,69,127
96141,note_on,2,0,0,,8,,,68,127
96228,note_off,87,0,0,,8,,,68,127
96230,note_on,2,0,0,,6,,,66,127
96317,note_off,87,0,0,,6,,,66,127
96317,note_off,0,0,0,,2,,,62,127
96319,note_on,2,0,0,,4,,,64,127
96319,note_on,0,0,0,,4,,,52,127
96406,note_off,87,0,0,,4,,,64,127
96408,note_on,2,0,0,,1,,,73,127
96495,note_off,87,0,0,,1,,,73,127
96497,note_on,2,0,0,,12,,,71,127
96584,note_off,87,0,0,,12,,,71,127
96586,note_on,2,0,0,,10,,,69,127
96673,note_off,87,0,0,,10,,,69,127
96673,note_off,0,0,0,,4,,,52,127
96675,note_on,2,0,0,,1,,,73,127
96675,note_on,0,0,0,,4,,,52,127
96732,note_off,57,0,0,,1,,,73,127
96734,note_on,2,0,0,,12,,,71,127
96791,note_off,57,0,0,,12,,,71,127
96793,note_on,2,0,0,,1,,,73,127
96850,note_off,57,0,0,,1,,,73,127
96852,note_on,2,0,0,,12,,,71,127
96909,note_off,57,0,0,,12,,,71,127
96911,note_on,2,0,0,,1,,,73,127
96968,note_off,57,0,0,,1,,,73,127
96970,note_on,2,0,0,,12,,,71,127
97027,note_off,57,0,0,,12,,,71,127
97027,note_off,0,0,0,,4,,,52,127
97029,note_on,2,0,0,,10,,,69,127
97029,note_on,0,0,0,,1,,,73,127
97029,note_on,0,0,0,,10,,,57,127
97029,note_on,0,0,0,,10,,,45,127
97116,note_off,87,0,0,,10,,,69,127
97118,note_on,2,0,0,,8,,,68,127
97205,note_off,87,0,0,,8,,,68,127
97207,note_on,2,0,0,,10,,,69,127
97294,note_off,87,0,0,,10,,,69,127
97296,note_on,2,0,0,,4,,,64,127
97381,note_off,85,0,0,,1,,,73,127
97383,note_off,2,0,0,,4,,,64,127
97383,note_off,0,0,0,,10,,,45,127
97383,note_off,0,0,0,,10,,,57,127
97385,note_on,2,0,0,,8,,,68,127
97385,note_on,0,0,0,,2,,,74,127
97385,note_on,0,0,0,,4,,,40,127
97385,note_on,0,0,0,,4,,,52,127
97472,note_off,87,0,0,,8,,,68,127
97474,note_on,2,0,0,,6,,,66,127
97561,note_off,87,0,0,,6,,,66,127
97563,note_on,2,0,0,,8,,,68,127
97650,note_off,87,0,0,,8,,,68,127
97652,note_on,2,0,0,,4,,,64,127
97737,note_off,85,0,0,,2,,,74,127
97739,note_off,2,0,0,,4,,,64,127
97739,note_off,0,0,0,,4,,,52,127
97739,note_off,0,0,0,,4,,,40,127
97741,note_on,2,0,0,,10,,,69,127
97741,note_on,0,0,0,,1,,,73,127
97741,note_on,0,0,0,,10,,,57,127
97741,note_on,0,0,0,,10,,,45,127
97828,note_off,87,0,0,,10,,,69,127
97830,note_on,2,0,0,,8,,,68,127
97917,note_off,87,0,0,,8,,,68,127
97919,note_on,2,0,0,,10,,,69,127
98006,note_off,87,0,0,,10,,,69,127
98008,note_on,2,0,0,,4,,,64,127
98093,note_off,85,0,0,,1,,,73,127
98095,note_off,2,0,0,,4,,,64,127
98095,note_off,0,0,0,,10,,,45,127
98095,note_off,0,0,0,,10,,,57,127
98097,note_on,2,0,0,,8,,,68,127
98097,note_on,0,0,0,,2,,,74,127
98097,note_on,0,0,0,,4,,,52,127
98097,note_on,0,0,0,,4,,,40,127
98184,note_off,87,0,0,,8,,,68,127
98186,note_on,2,0,0,,6,,,66,127
98273,note_off,87,0,0,,6,,,66,127
98275,note_on,2,0,0,,8,,,68,127
98362,note_off,87,0,0,,8,,,68,127
98364,note_on,2,0,0,,4,,,64,127
98449,note_off,85,0,0,,2,,,74,127
98451,note_off,2,0,0,,4,,,64,127
98451,note_off,0,0,0,,4,,,40,127
98451,note_off,0,0,0,,4,,,52,127
98453,note_on,2,0,0,,10,,,69,127
98453,note_on,0,0,0,,1,,,73,127
98453,note_on,0,0,0,,10,,,57,127
98453,note_on,0,0,0,,10,,,45,127
98540,note_off,87,0,0,,10,,,69,127
98542,note_on,2,0,0,,8,,,68,127
98629,note_off,87,0,0,,8,,,68,127
98631,note_on,2,0,0,,10,,,69,127
98718,note_off,87,0,0,,10,,,69,127
98720,note_on,2,0,0,,4,,,64,127
98805,note_off,85,0,0,,1,,,73,127
98807,note_off,2,0,0,,4,,,64,127
98807,note_off,0,0,0,,10,,,45,127
98807,note_off,0,0,0,,10,,,57,127
98809,note_on,2,0,0,,8,,,68,127
98809,note_on,0,0,0,,2,,,74,127
98809,note_on,0,0,0,,4,,,52,127
98809,note_on,0,0,0,,4,,,40,127
98896,note_off,87,0,0,,8,,,68,127
98898,note_on,2,0,0,,6,,,66,127
98985,note_off,87,0,0,,6,,,66,127
98987,note_on,2,0,0,,8,,,68,127
99074,note_off,87,0,0,,8,,,68,127
99076,note_on,2,0,0,,4,,,64,127
99161,note_off,85,0,0,,2,,,74,127
99163,note_off,2,0,0,,4,,,64,127
99163,note_off,0,0,0,,4,,,40,127
99163,note_off,0,0,0,,4,,,52,127
99165,note_on,2,0,0,,10,,,69,127
99165,note_on,0,0,0,,4,,,64,127
99165,note_on,0,0,0,,1,,,73,127
99165,note_on,0,0,0,,10,,,57,127
99252,note_off,87,0,0,,10,,,57,127
99254,note_on,2,0,0,,8,,,56,127
99341,note_off,87,0,0,,8,,,56,127
99343,note_on,2,0,0,,10,,,57,127
99430,note_off,87,0,0,,10,,,57,127
99432,note_on,2,0,0,,4,,,52,127
99519,note_off,87,0,0,,4,,,52,127
99519,note_off,0,0,0,,1,,,73,127
99519,note_off,0,0,0,,4,,,64,127
99519,note_off,0,0,0,,10,,,69,127
99521,note_on,2,0,0,,12,,,71,127
99521,note_on,0,0,0,,2,,,74,127
99521,note_on,0,0,0,,4,,,64,127
99521,note_on,0,0,0,,8,,,56,127
99608,note_off,87,0,0,,8,,,56,127
99610,note_on,2,0,0,,6,,,54,127
99697,note_off,87,0,0,,6,,,54,127
99699,note_on,2,0,0,,8,,,56,127
99786,note_off,87,0,0,,8,,,56,127
99788,note_on,2,0,0,,4,,,52,127
99875,note_off,87,0,0,,4,,,52,127
99875,note_off,0,0,0,,4,,,64,127
99875,note_off,0,0,0,,2,,,74,127
99875,note_off,0,0,0,,12,,,71,127
99877,note_on,2,0,0,,4,,,64,127
99877,note_on,0,0,0,,10,,,69,127
99877,note_on,0,0,0,,1,,,73,127
99877,note_on,0,0,0,,10,,,57,127
99964,note_off,87,0,0,,10,,,57,127
99966,note_on,2,0,0,,8,,,56,127
100053,note_off,87,0,0,,8,,,56,127
100055,note_on,2,0,0,,10,,,57,127
100142,note_off,87,0,0,,10,,,57,127
100144,note_on,2,0,0,,4,,,52,127
100231,note_off,87,0,0,,4,,,52,127
100231,note_off,0,0,0,,1,,,73,127
100231,note_off,0,0,0,,10,,,69,127
100231,note_off,0,0,0,,4,,,64,127
100233,note_on,2,0,0,,12,,,71,127
100233,note_on,0,0,0,,2,,,74,127
100233,note_on,0,0,0,,4,,,64,127
100233,note_on,0,0,0,,8,,,56,127
100320,note_off,87,0,0,,8,,,56,127
100322,note_on,2,0,0,,6,,,54,127
100409,note_off,87,0,0,,6,,,54,127
100411,note_on,2,0,0,,8,,,56,127
100498,note_off,87,0,0,,8,,,56,127
100500,note_on,2,0,0,,4,,,52,127
100587,note_off,87,0,0,,4,,,52,127
100587,note_off,0,0,0,,4,,,64,127
100587,note_off,0,0,0,,2,,,74,127
100587,note_off,0,0,0,,12,,,71,127
100589,note_on,2,0,0,,4,,,64,127
100589,note_on,0,0,0,,10,,,69,127
100589,note_on,0,0,0,,1,,,73,127
100589,note_on,0,0,0,,10,,,57,127
100676,note_off,87,0,0,,10,,,57,127
100678,note_on,2,0,0,,8,,,56,127
100765,note_off,87,0,0,,8,,,56,127
100767,note_on,2,0,0,,10,,,57,127
100854,note_off,87,0,0,,10,,,57,127
100856,note_on,2,0,0,,4,,,52,127
100943,note_off,87,0,0,,4,,,52,127
100943,note_off,0,0,0,,1,,,73,127
100943,note_off,0,0,0,,10,,,69,127
100943,note_off,0,0,0,,4,,,64,127
100945,note_on,2,0,0,,12,,,71,127
100945,note_on,0,0,0,,2,,,74,127
100945,note_on,0,0,0,,4,,,64,127
100945,note_on,0,0,0,,8,,,56,127
101032,note_off,87,0,0,,8,,,56,127
101034,note_on,2,0,0,,6,,,54,127
101121,note_off,87,0,0,,6,,,54,127
101123,note_on,2,0,0,,8,,,56,127
101210,note_off,87,0,0,,8,,,56,127
101212,note_on,2,0,0,,4,,,52,127
101299,note_off,87,0,0,,4,,,52,127
101299,note_off,0,0,0,,4,,,64,127
101299,note_off,0,0,0,,2,,,74,127
101299,note_off,0,0,0,,12,,,71,127
101301,note_on,2,0,0,,1,,,73,127
101301,note_on,0,0,0,,10,,,69,127
101301,note_on,0,0,0,,4,,,64,127
101301,note_on,0,0,0,,10,,,57,127
101388,note_off,87,0,0,,10,,,57,127
101390,note_on,2,0,0,,4,,,52,127
101477,note_off,87,0,0,,4,,,52,127
101479,note_on,2,0,0,,1,,,49,127
101566,note_off,87,0,0,,1,,,49,127
101568,note_on,2,0,0,,4,,,52,127
101655,note_off,87,0,0,,4,,,52,127
101657,note_on,2,0,0,,10,,,45,127
101744,note_off,87,0,0,,10,,,45,127
101746,note_on,2,0,0,,12,,,47,127
101833,note_off,87,0,0,,12,,,47,127
101835,note_on,2,0,0,,1,,,49,127
101922,note_off,87,0,0,,1,,,49,127
101924,note_on,2,0,0,,10,,,45,127
102011,note_off,87,0,0,,10,,,45,127
102012,note_off,1,0,0,,4,,,64,127
102012,note_off,0,0,0,,10,,,69,127
102012,note_off,0,0,0,,1,,,73,127
102028,note_on,16,0,0,,2,,,38,127
102028,note_on,0,0,0,,2,,,50,127
102117,note_on,89,0,0,,6,,,78,127
102204,note_off,87,0,0,,6,,,78,127
102206,note_on,2,0,0,,4,,,76,127
102293,note_off,87,0,0,,4,,,76,127
102295,note_on,2,0,0,,2,,,74,127
102382,note_off,87,0,0,,2,,,74,127
102382,note_off,0,0,0,,2,,,50,127
102382,note_off,0,0,0,,2,,,38,127
102384,note_on,2,0,0,,4,,,40,127
102384,note_on,0,0,0,,4,,,52,127
102384,note_on,0,0,0,,1,,,73,127
102471,note_off,87,0,0,,1,,,73,127
102473,note_on,2,0,0,,12,,,71,127
102560,note_off,87,0,0,,12,,,71,127
102562,note_on,2,0,0,,10,,,69,127
102649,note_off,87,0,0,,10,,,69,127
102651,note_on,2,0,0,,8,,,68,127
102738,note_off,87,0,0,,8,,,68,127
102738,note_off,0,0,0,,4,,,52,127
102738,note_off,0,0,0,,4,,,40,127
102740,note_on,2,0,0,,10,,,45,127
102740,note_on,0,0,0,,10,,,69,127
102827,note_off,87,0,0,,10,,,45,127
102829,note_on,2,0,0,,1,,,49,127
102916,note_off,87,0,0,,1,,,49,127
102918,note_on,2,0,0,,4,,,52,127
103005,note_off,87,0,0,,4,,,52,127
103007,note_on,2,0,0,,10,,,57,127
103094,note_off,87,0,0,,10,,,57,127
103096,note_on,2,0,0,,1,,,61,127
103183,note_off,87,0,0,,1,,,61,127
103185,note_on,2,0,0,,4,,,64,127
103272,note_off,87,0,0,,4,,,64,127
103272,note_off,0,0,0,,10,,,69,127
103274,note_on,2,0,0,,10,,,69,127
103361,note_off,87,0,0,,10,,,69,127
103363,note_on,2,0,0,,10,,,81,127
103452,note_on,89,0,0,,10,,,45,127
103539,note_off,87,0,0,,10,,,45,127
103541,note_on,2,0,0,,1,,,49,127
103628,note_off,87,0,0,,1,,,49,127
103630,note_on,2,0,0,,4,,,52,127
103717,note_off,87,0,0,,4,,,52,127
103719,note_on,2,0,0,,10,,,57,127
103806,note_off,87,0,0,,10,,,57,127
103808,note_on,2,0,0,,1,,,61,127
103895,note_off,87,0,0,,1,,,61,127
103897,note_on,2,0,0,,4,,,64,127
103984,note_off,87,0,0,,4,,,64,127
103984,note_off,0,0,0,,10,,,81,127
103986,note_on,2,0,0,,10,,,69,127
104073,note_off,87,0,0,,10,,,69,127
104075,note_on,2,0,0,,10,,,81,127
104161,note_off,86,0,0,,10,,,81,127
104204,note_on,43,0,0,,10,,,45,127
105865,note_off,1661,0,0,,10,,,45,127
107520,end_of_track,1655,1,0,,,,,,
