tick,type,time,meta,track,program,channel,pitch,tempo,note,velocity
0,copyright,0,1,0,,,,,,
0,program_change,0,0,0,6,0,,,,
0,pitchwheel,0,0,0,,0,0,,,
0,program_change,0,0,0,6,1,,,,
0,pitchwheel,0,0,0,,1,-590,,,
0,program_change,0,0,0,6,2,,,,
0,pitchwheel,0,0,0,,2,-272,,,
0,program_change,0,0,0,6,3,,,,
0,pitchwheel,0,0,0,,3,-353,,,
0,program_change,0,0,0,6,4,,,,
0,pitchwheel,0,0,0,,4,-560,,,
0,program_change,0,0,0,6,5,,,,
0,pitchwheel,0,0,0,,5,-80,,,
0,program_change,0,0,0,6,6,,,,
0,pitchwheel,0,0,0,,6,-625,,,
0,program_change,0,0,0,6,7,,,,
0,pitchwheel,0,0,0,,7,-130,,,
0,program_change,0,0,0,6,8,,,,
0,pitchwheel,0,0,0,,8,-512,,,
0,program_change,0,0,0,6,10,,,,
0,pitchwheel,0,0,0,,10,-464,,,
0,program_change,0,0,0,6,11,,,,
0,pitchwheel,0,0,0,,11,-208,,,
0,program_change,0,0,0,6,12,,,,
0,pitchwheel,0,0,0,,12,-553,,,
0,set_tempo,0,1,0,,,,500000,,
33,note_on,33,0,0,,10,,,57,127
33,note_on,0,0,0,,10,,,81,127
128,note_off,95,0,0,,10,,,81,127
133,note_on,5,0,0,,1,,,73,127
228,note_off,95,0,0,,1,,,73,127
233,note_on,5,0,0,,2,,,74,127
328,note_off,95,0,0,,2,,,74,127
333,note_on,5,0,0,,12,,,71,127
428,note_off,95,0,0,,12,,,71,127
433,note_on,5,0,0,,1,,,73,127
528,note_off,95,0,0,,1,,,73,127
533,note_on,5,0,0,,10,,,69,127
628,note_off,95,0,0,,10,,,69,127
628,note_off,0,0,0,,10,,,57,127
633,note_on,5,0,0,,10,,,57,127
633,note_on,0,0,0,,10,,,81,127
728,note_off,95,0,0,,10,,,81,127
733,note_on,5,0,0,,1,,,73,127
828,note_off,95,0,0,,1,,,73,127
833,note_on,5,0,0,,2,,,74,127
928,note_off,95,0,0,,2,,,74,127
933,note_on,5,0,0,,12,,,71,127
1028,note_off,95,0,0,,12,,,71,127
1033,note_on,5,0,0,,1,,,73,127
1128,note_off,95,0,0,,1,,,73,127
1133,note_on,5,0,0,,10,,,69,127
1228,note_off,95,0,0,,10,,,69,127
1228,note_off,0,0,0,,10,,,57,127
1233,note_on,5,0,0,,10,,,69,127
1233,note_on,0,0,0,,12,,,83,127
1266,note_on,33,0,0,,10,,,81,127
1280,note_off,14,0,0,,12,,,83,127
1300,note_on,20,0,0,,12,,,83,127
1314,note_off,14,0,0,,10,,,81,127
1329,note_off,15,0,0,,10,,,69,127
1334,note_on,5,0,0,,1,,,61,127
1334,note_on,0,0,0,,10,,,81,127
1348,note_off,14,0,0,,12,,,83,127
1429,note_off,81,0,0,,1,,,61,127
1434,note_on,5,0,0,,2,,,62,127
1529,note_off,95,0,0,,2,,,62,127
1534,note_on,5,0,0,,12,,,59,127
1629,note_off,95,0,0,,12,,,59,127
1634,note_on,5,0,0,,1,,,61,127
1729,note_off,95,0,0,,1,,,61,127
1734,note_on,5,0,0,,10,,,57,127
1829,note_off,95,0,0,,10,,,57,127
1829,note_off,0,0,0,,10,,,81,127
1834,note_on,5,0,0,,10,,,69,127
1834,note_on,0,0,0,,12,,,83,127
1867,note_on,33,0,0,,10,,,81,127
1881,note_off,14,0,0,,12,,,83,127
1901,note_on,20,0,0,,12,,,83,127
1915,note_off,14,0,0,,10,,,81,127
1930,note_off,15,0,0,,10,,,69,127
1935,note_on,5,0,0,,1,,,61,127
1935,note_on,0,0,0,,10,,,81,127
1949,note_off,14,0,0,,12,,,83,127
2030,note_off,81,0,0,,1,,,61,127
2035,note_on,5,0,0,,2,,,62,127
2130,note_off,95,0,0,,2,,,62,127
2135,note_on,5,0,0,,12,,,59,127
2230,note_off,95,0,0,,12,,,59,127
2235,note_on,5,0,0,,1,,,61,127
2330,note_off,95,0,0,,1,,,61,127
2335,note_on,5,0,0,,10,,,57,127
2430,note_off,95,0,0,,10,,,57,127
2430,note_off,0,0,0,,10,,,81,127
2452,note_on,22,0,0,,1,,,85,127
2452,note_on,0,0,0,,10,,,69,127
2547,note_off,95,0,0,,1,,,85,127
2552,note_on,5,0,0,,10,,,81,127
2647,note_off,95,0,0,,10,,,81,127
2652,note_on,5,0,0,,4,,,76,127
2747,note_off,95,0,0,,4,,,76,127
2752,note_on,5,0,0,,1,,,73,127
2845,note_off,93,0,0,,10,,,69,127
2847,note_off,2,0,0,,1,,,73,127
2852,note_on,5,0,0,,10,,,69,127
2947,note_off,95,0,0,,10,,,69,127
2952,note_on,5,0,0,,4,,,64,127
3047,note_off,95,0,0,,4,,,64,127
3052,note_on,5,0,0,,10,,,81,127
3052,note_on,0,0,0,,2,,,50,127
3147,note_off,95,0,0,,2,,,50,127
3147,note_off,0,0,0,,10,,,81,127
3152,note_on,5,0,0,,6,,,78,127
3152,note_on,0,0,0,,2,,,62,127
3247,note_off,95,0,0,,2,,,62,127
3252,note_on,5,0,0,,1,,,49,127
3347,note_off,95,0,0,,1,,,49,127
3347,note_off,0,0,0,,6,,,78,127
3352,note_on,5,0,0,,4,,,76,127
3352,note_on,0,0,0,,1,,,61,127
3447,note_off,95,0,0,,1,,,61,127
3452,note_on,5,0,0,,12,,,47,127
3547,note_off,95,0,0,,12,,,47,127
3547,note_off,0,0,0,,4,,,76,127
3552,note_on,5,0,0,,2,,,74,127
3552,note_on,0,0,0,,12,,,59,127
3647,note_off,95,0,0,,12,,,59,127
3647,note_off,0,0,0,,2,,,74,127
3669,note_on,22,0,0,,10,,,45,127
3669,note_on,0,0,0,,1,,,85,127
3764,note_off,95,0,0,,1,,,85,127
3769,note_on,5,0,0,,10,,,81,127
3864,note_off,95,0,0,,10,,,81,127
3869,note_on,5,0,0,,4,,,76,127
3964,note_off,95,0,0,,4,,,76,127
3969,note_on,5,0,0,,1,,,73,127
4062,note_off,93,0,0,,10,,,45,127
4064,note_off,2,0,0,,1,,,73,127
4069,note_on,5,0,0,,10,,,69,127
4164,note_off,95,0,0,,10,,,69,127
4169,note_on,5,0,0,,4,,,64,127
4264,note_off,95,0,0,,4,,,64,127
4269,note_on,5,0,0,,2,,,50,127
4269,note_on,0,0,0,,10,,,81,127
4364,note_off,95,0,0,,10,,,81,127
4364,note_off,0,0,0,,2,,,50,127
4369,note_on,5,0,0,,2,,,62,127
4369,note_on,0,0,0,,6,,,78,127
4464,note_off,95,0,0,,2,,,62,127
4469,note_on,5,0,0,,1,,,49,127
4564,note_off,95,0,0,,1,,,49,127
4564,note_off,0,0,0,,6,,,78,127
4569,note_on,5,0,0,,1,,,61,127
4569,note_on,0,0,0,,4,,,76,127
4664,note_off,95,0,0,,1,,,61,127
4669,note_on,5,0,0,,12,,,47,127
4764,note_off,95,0,0,,12,,,47,127
4764,note_off,0,0,0,,4,,,76,127
4769,note_on,5,0,0,,12,,,59,127
4769,note_on,0,0,0,,2,,,74,127
4864,note_off,95,0,0,,2,,,74,127
4864,note_off,0,0,0,,12,,,59,127
4869,note_on,5,0,0,,10,,,45,127
4869,note_on,0,0,0,,2,,,74,127
4914,note_off,45,0,0,,2,,,74,127
4919,note_on,5,0,0,,1,,,73,127
4964,note_off,45,0,0,,1,,,73,127
4964,note_off,0,0,0,,10,,,45,127
4969,note_on,5,0,0,,1,,,49,127
4969,note_on,0,0,0,,2,,,74,127
5014,note_off,45,0,0,,2,,,74,127
5019,note_on,5,0,0,,1,,,73,127
5064,note_off,45,0,0,,1,,,73,127
5064,note_off,0,0,0,,1,,,49,127
5069,note_on,5,0,0,,4,,,52,127
5069,note_on,0,0,0,,2,,,74,127
5114,note_off,45,0,0,,2,,,74,127
5119,note_on,5,0,0,,1,,,73,127
5164,note_off,45,0,0,,1,,,73,127
5164,note_off,0,0,0,,4,,,52,127
5169,note_on,5,0,0,,10,,,57,127
5169,note_on,0,0,0,,2,,,74,127
5214,note_off,45,0,0,,2,,,74,127
5219,note_on,5,0,0,,1,,,73,127
5264,note_off,45,0,0,,1,,,73,127
5264,note_off,0,0,0,,10,,,57,127
5269,note_on,5,0,0,,12,,,47,127
5269,note_on,0,0,0,,2,,,74,127
5364,note_off,95,0,0,,12,,,47,127
5369,note_on,5,0,0,,8,,,56,127
5464,note_off,95,0,0,,8,,,56,127
5464,note_off,0,0,0,,2,,,74,127
5469,note_on,5,0,0,,1,,,49,127
5469,note_on,0,0,0,,4,,,76,127
5564,note_off,95,0,0,,1,,,49,127
5569,note_on,5,0,0,,10,,,57,127
5664,note_off,95,0,0,,10,,,57,127
5664,note_off,0,0,0,,4,,,76,127
5669,note_on,5,0,0,,2,,,50,127
5669,note_on,0,0,0,,6,,,78,127
5764,note_off,95,0,0,,2,,,50,127
5769,note_on,5,0,0,,12,,,59,127
5864,note_off,95,0,0,,12,,,59,127
5864,note_off,0,0,0,,6,,,78,127
5869,note_on,5,0,0,,4,,,52,127
5869,note_on,0,0,0,,8,,,80,127
5964,note_off,95,0,0,,4,,,52,127
5969,note_on,5,0,0,,1,,,61,127
6064,note_off,95,0,0,,1,,,61,127
6064,note_off,0,0,0,,8,,,80,127
6069,note_on,5,0,0,,6,,,54,127
6069,note_on,0,0,0,,10,,,81,127
6164,note_off,95,0,0,,6,,,54,127
6169,note_on,5,0,0,,2,,,62,127
6264,note_off,95,0,0,,2,,,62,127
6264,note_off,0,0,0,,10,,,81,127
6269,note_on,5,0,0,,8,,,56,127
6269,note_on,0,0,0,,2,,,74,127
6364,note_off,95,0,0,,8,,,56,127
6369,note_on,5,0,0,,4,,,64,127
6464,note_off,95,0,0,,4,,,64,127
6464,note_off,0,0,0,,2,,,74,127
6469,note_on,5,0,0,,10,,,57,127
6469,note_on,0,0,0,,1,,,73,127
6564,note_off,95,0,0,,10,,,57,127
6569,note_on,5,0,0,,4,,,64,127
6664,note_off,95,0,0,,4,,,64,127
6669,note_on,5,0,0,,4,,,52,127
6864,note_off,195,0,0,,1,,,73,127
6869,note_on,5,0,0,,1,,,73,127
6914,note_off,45,0,0,,1,,,73,127
6919,note_on,5,0,0,,12,,,71,127
6964,note_off,45,0,0,,12,,,71,127
6969,note_on,5,0,0,,10,,,69,127
7064,note_off,95,0,0,,10,,,69,127
7069,note_on,5,0,0,,12,,,71,127
7166,note_off,97,0,0,,4,,,52,127
7570,note_off,404,0,0,,12,,,71,127
7679,note_on,109,0,0,,4,,,76,127
7679,note_on,0,0,0,,4,,,52,127
7679,note_on,0,0,0,,4,,,64,127
7779,note_on,100,0,0,,8,,,68,127
7874,note_off,95,0,0,,8,,,68,127
7874,note_off,0,0,0,,4,,,76,127
7879,note_on,5,0,0,,10,,,69,127
7974,note_off,95,0,0,,10,,,69,127
7979,note_on,5,0,0,,6,,,66,127
8074,note_off,95,0,0,,6,,,66,127
8079,note_on,5,0,0,,8,,,68,127
8174,note_off,95,0,0,,8,,,68,127
8174,note_off,0,0,0,,4,,,64,127
8179,note_on,5,0,0,,4,,,64,127
8274,note_off,95,0,0,,4,,,64,127
8274,note_off,0,0,0,,4,,,52,127
8279,note_on,5,0,0,,4,,,76,127
8279,note_on,0,0,0,,4,,,52,127
8279,note_on,0,0,0,,2,,,62,127
8379,note_on,100,0,0,,8,,,68,127
8474,note_off,95,0,0,,8,,,68,127
8474,note_off,0,0,0,,4,,,76,127
8479,note_on,5,0,0,,10,,,69,127
8574,note_off,95,0,0,,10,,,69,127
8579,note_on,5,0,0,,6,,,66,127
8674,note_off,95,0,0,,6,,,66,127
8679,note_on,5,0,0,,8,,,68,127
8774,note_off,95,0,0,,8,,,68,127
8779,note_on,5,0,0,,4,,,64,127
8874,note_off,95,0,0,,4,,,64,127
8874,note_off,0,0,0,,2,,,62,127
8874,note_off,0,0,0,,4,,,52,127
8879,note_on,5,0,0,,4,,,76,127
8879,note_on,0,0,0,,2,,,62,127
8879,note_on,0,0,0,,4,,,52,127
8979,note_on,100,0,0,,8,,,68,127
9074,note_off,95,0,0,,8,,,68,127
9074,note_off,0,0,0,,4,,,76,127
9079,note_on,5,0,0,,10,,,69,127
9174,note_off,95,0,0,,10,,,69,127
9179,note_on,5,0,0,,6,,,66,127
9274,note_off,95,0,0,,6,,,66,127
9279,note_on,5,0,0,,8,,,68,127
9374,note_off,95,0,0,,8,,,68,127
9379,note_on,5,0,0,,4,,,64,127
9474,note_off,95,0,0,,4,,,64,127
9474,note_off,0,0,0,,4,,,52,127
9474,note_off,0,0,0,,2,,,62,127
9479,note_on,5,0,0,,4,,,76,127
9479,note_on,0,0,0,,4,,,52,127
9479,note_on,0,0,0,,1,,,61,127
9579,note_on,100,0,0,,11,,,70,127
9674,note_off,95,0,0,,11,,,70,127
9679,note_on,5,0,0,,12,,,71,127
9774,note_off,95,0,0,,12,,,71,127
9776,note_off,2,0,0,,4,,,76,127
9779,note_on,3,0,0,,8,,,68,127
9874,note_off,95,0,0,,8,,,68,127
9879,note_on,5,0,0,,11,,,70,127
9974,note_off,95,0,0,,11,,,70,127
9979,note_on,5,0,0,,6,,,66,127
10074,note_off,95,0,0,,6,,,66,127
10074,note_off,0,0,0,,1,,,61,127
10074,note_off,0,0,0,,4,,,52,127
10079,note_on,5,0,0,,4,,,76,127
10079,note_on,0,0,0,,1,,,61,127
10079,note_on,0,0,0,,4,,,52,127
10179,note_on,100,0,0,,11,,,70,127
10274,note_off,95,0,0,,11,,,70,127
10279,note_on,5,0,0,,12,,,71,127
10374,note_off,95,0,0,,12,,,71,127
10379,note_on,5,0,0,,8,,,68,127
10472,note_off,93,0,0,,4,,,76,127
10474,note_off,2,0,0,,8,,,68,127
10479,note_on,5,0,0,,11,,,70,127
10574,note_off,95,0,0,,11,,,70,127
10579,note_on,5,0,0,,6,,,66,127
10674,note_off,95,0,0,,6,,,66,127
10674,note_off,0,0,0,,4,,,52,127
10674,note_off,0,0,0,,1,,,61,127
10679,note_on,5,0,0,,6,,,78,127
10679,note_on,0,0,0,,12,,,59,127
10679,note_on,0,0,0,,3,,,51,127
10774,note_off,95,0,0,,6,,,78,127
10779,note_on,5,0,0,,12,,,71,127
10874,note_off,95,0,0,,12,,,71,127
10879,note_on,5,0,0,,1,,,73,127
10974,note_off,95,0,0,,1,,,73,127
10979,note_on,5,0,0,,11,,,70,127
11074,note_off,95,0,0,,11,,,70,127
11079,note_on,5,0,0,,12,,,71,127
11174,note_off,95,0,0,,12,,,71,127
11179,note_on,5,0,0,,6,,,66,127
11274,note_off,95,0,0,,6,,,66,127
11274,note_off,0,0,0,,3,,,51,127
11274,note_off,0,0,0,,12,,,59,127
11279,note_on,5,0,0,,6,,,78,127
11279,note_on,0,0,0,,12,,,59,127
11279,note_on,0,0,0,,2,,,50,127
11374,note_off,95,0,0,,6,,,78,127
11379,note_on,5,0,0,,12,,,71,127
11474,note_off,95,0,0,,12,,,71,127
11479,note_on,5,0,0,,1,,,73,127
11574,note_off,95,0,0,,1,,,73,127
11579,note_on,5,0,0,,11,,,70,127
11674,note_off,95,0,0,,11,,,70,127
11679,note_on,5,0,0,,12,,,71,127
11774,note_off,95,0,0,,12,,,71,127
11779,note_on,5,0,0,,6,,,66,127
11874,note_off,95,0,0,,6,,,66,127
11874,note_off,0,0,0,,2,,,50,127
11874,note_off,0,0,0,,12,,,59,127
11879,note_on,5,0,0,,4,,,76,127
11879,note_on,0,0,0,,1,,,49,127
11879,note_on,0,0,0,,10,,,57,127
11979,note_on,100,0,0,,10,,,69,127
12074,note_off,95,0,0,,10,,,69,127
12079,note_on,5,0,0,,12,,,71,127
12174,note_off,95,0,0,,12,,,71,127
12179,note_on,5,0,0,,8,,,68,127
12274,note_off,95,0,0,,8,,,68,127
12279,note_on,5,0,0,,10,,,69,127
12374,note_off,95,0,0,,10,,,69,127
12379,note_on,5,0,0,,4,,,64,127
12474,note_off,95,0,0,,4,,,64,127
12474,note_off,0,0,0,,10,,,57,127
12474,note_off,0,0,0,,1,,,49,127
12475,note_off,1,0,0,,4,,,76,127
12479,note_on,4,0,0,,10,,,81,127
12479,note_on,0,0,0,,12,,,71,127
12479,note_on,0,0,0,,12,,,47,127
12574,note_off,95,0,0,,12,,,47,127
12579,note_on,5,0,0,,3,,,51,127
12674,note_off,95,0,0,,3,,,51,127
12679,note_on,5,0,0,,6,,,54,127
12774,note_off,95,0,0,,6,,,54,127
12779,note_on,5,0,0,,12,,,59,127
12874,note_off,95,0,0,,12,,,59,127
12879,note_on,5,0,0,,3,,,63,127
12974,note_off,95,0,0,,3,,,63,127
12979,note_on,5,0,0,,12,,,59,127
13074,note_off,95,0,0,,12,,,59,127
13074,note_off,0,0,0,,12,,,71,127
13074,note_off,0,0,0,,10,,,81,127
13079,note_on,5,0,0,,8,,,80,127
13079,note_on,0,0,0,,12,,,71,127
13079,note_on,0,0,0,,4,,,52,127
13174,note_off,95,0,0,,4,,,52,127
13179,note_on,5,0,0,,8,,,56,127
13274,note_off,95,0,0,,8,,,56,127
13279,note_on,5,0,0,,12,,,59,127
13374,note_off,95,0,0,,12,,,59,127
13379,note_on,5,0,0,,4,,,64,127
13474,note_off,95,0,0,,4,,,64,127
13479,note_on,5,0,0,,8,,,68,127
13574,note_off,95,0,0,,8,,,68,127
13579,note_on,5,0,0,,4,,,64,127
13674,note_off,95,0,0,,4,,,64,127
13674,note_off,0,0,0,,12,,,71,127
13674,note_off,0,0,0,,8,,,80,127
13679,note_on,5,0,0,,4,,,76,127
13679,note_on,0,0,0,,1,,,85,127
13679,note_on,0,0,0,,10,,,57,127
13774,note_off,95,0,0,,10,,,57,127
13779,note_on,5,0,0,,1,,,61,127
13874,note_off,95,0,0,,1,,,61,127
13879,note_on,5,0,0,,4,,,64,127
13974,note_off,95,0,0,,4,,,64,127
13979,note_on,5,0,0,,10,,,69,127
14074,note_off,95,0,0,,10,,,69,127
14079,note_on,5,0,0,,1,,,73,127
14174,note_off,95,0,0,,1,,,73,127
14179,note_on,5,0,0,,10,,,69,127
14274,note_off,95,0,0,,10,,,69,127
14274,note_off,0,0,0,,1,,,85,127
14274,note_off,0,0,0,,4,,,76,127
14279,note_on,5,0,0,,12,,,83,127
14279,note_on,0,0,0,,8,,,68,127
14379,note_on,100,0,0,,4,,,76,127
14474,note_off,95,0,0,,4,,,76,127
14474,note_off,0,0,0,,8,,,68,127
14474,note_off,0,0,0,,12,,,83,127
14479,note_on,5,0,0,,3,,,75,127
14479,note_on,0,0,0,,6,,,66,127
14579,note_on,100,0,0,,10,,,81,127
14626,note_off,47,0,0,,3,,,75,127
14674,note_off,48,0,0,,10,,,81,127
14674,note_off,0,0,0,,6,,,66,127
14679,note_on,5,0,0,,8,,,80,127
14679,note_on,0,0,0,,4,,,64,127
14779,note_on,100,0,0,,12,,,71,127
14826,note_off,47,0,0,,8,,,80,127
14874,note_off,48,0,0,,12,,,71,127
14874,note_off,0,0,0,,4,,,64,127
14879,note_on,5,0,0,,1,,,73,127
14879,note_on,0,0,0,,10,,,57,127
15074,note_off,195,0,0,,10,,,57,127
15074,note_off,0,0,0,,1,,,73,127
15079,note_on,5,0,0,,6,,,78,127
15079,note_on,0,0,0,,12,,,59,127
15174,note_off,95,0,0,,6,,,78,127
15179,note_on,5,0,0,,3,,,75,127
15274,note_off,95,0,0,,12,,,59,127
15279,note_on,5,0,0,,1,,,61,127
15374,note_off,95,0,0,,3,,,75,127
15379,note_on,5,0,0,,4,,,76,127
15466,note_off,87,0,0,,4,,,76,127
15468,note_off,2,0,0,,1,,,61,127
15479,note_on,11,0,0,,6,,,78,127
15479,note_on,0,0,0,,12,,,71,127
15479,note_on,0,0,0,,12,,,59,127
15574,note_off,95,0,0,,6,,,78,127
15579,note_on,5,0,0,,3,,,75,127
15674,note_off,95,0,0,,12,,,59,127
15674,note_off,0,0,0,,12,,,71,127
15679,note_on,5,0,0,,10,,,57,127
15679,note_on,0,0,0,,10,,,69,127
15774,note_off,95,0,0,,3,,,75,127
15779,note_on,5,0,0,,1,,,73,127
15874,note_off,95,0,0,,10,,,69,127
15874,note_off,0,0,0,,10,,,57,127
15879,note_on,5,0,0,,8,,,68,127
15879,note_on,0,0,0,,8,,,56,127
15974,note_off,95,0,0,,1,,,73,127
15979,note_on,5,0,0,,12,,,71,127
16074,note_off,95,0,0,,8,,,56,127
16074,note_off,0,0,0,,8,,,68,127
16079,note_on,5,0,0,,6,,,66,127
16079,note_on,0,0,0,,6,,,54,127
16174,note_off,95,0,0,,12,,,71,127
16179,note_on,5,0,0,,10,,,69,127
16274,note_off,95,0,0,,6,,,54,127
16274,note_off,0,0,0,,6,,,66,127
16279,note_on,5,0,0,,4,,,52,127
16279,note_on,0,0,0,,4,,,64,127
16374,note_off,95,0,0,,10,,,69,127
16379,note_on,5,0,0,,8,,,68,127
16474,note_off,95,0,0,,4,,,64,127
16474,note_off,0,0,0,,4,,,52,127
16479,note_on,5,0,0,,3,,,63,127
16479,note_on,0,0,0,,3,,,51,127
16574,note_off,95,0,0,,8,,,68,127
16579,note_on,5,0,0,,6,,,66,127
16674,note_off,95,0,0,,3,,,51,127
16674,note_off,0,0,0,,3,,,63,127
16679,note_on,5,0,0,,4,,,52,127
16679,note_on,0,0,0,,4,,,64,127
16774,note_off,95,0,0,,6,,,66,127
16779,note_on,5,0,0,,8,,,68,127
16874,note_off,95,0,0,,8,,,68,127
16874,note_off,0,0,0,,4,,,64,127
16874,note_off,0,0,0,,4,,,52,127
16879,note_on,5,0,0,,6,,,66,127
16879,note_on,0,0,0,,3,,,51,127
16879,note_on,0,0,0,,3,,,63,127
17074,note_off,195,0,0,,3,,,63,127
17074,note_off,0,0,0,,3,,,51,127
17074,note_off,0,0,0,,6,,,66,127
17079,note_on,5,0,0,,4,,,64,127
17079,note_on,0,0,0,,1,,,61,127
17079,note_on,0,0,0,,1,,,49,127
17274,note_off,195,0,0,,1,,,49,127
17274,note_off,0,0,0,,1,,,61,127
17274,note_off,0,0,0,,4,,,64,127
17279,note_on,5,0,0,,12,,,71,127
17279,note_on,0,0,0,,12,,,47,127
17374,note_off,95,0,0,,12,,,71,127
17379,note_on,5,0,0,,6,,,66,127
17474,note_off,95,0,0,,6,,,66,127
17479,note_on,5,0,0,,3,,,63,127
17574,note_off,95,0,0,,3,,,63,127
17579,note_on,5,0,0,,12,,,59,127
17674,note_off,95,0,0,,12,,,59,127
17679,note_on,5,0,0,,6,,,54,127
17774,note_off,95,0,0,,6,,,54,127
17779,note_on,5,0,0,,3,,,51,127
17874,note_off,95,0,0,,3,,,51,127
17875,note_off,1,0,0,,12,,,47,127
17879,note_on,4,0,0,,12,,,47,127
19131,note_off,1252,0,0,,12,,,47,127
19498,note_on,367,0,0,,4,,,64,127
19693,note_off,195,0,0,,4,,,64,127
19698,note_on,5,0,0,,4,,,64,127
19893,note_off,195,0,0,,4,,,64,127
19898,note_on,5,0,0,,4,,,64,127
20093,note_off,195,0,0,,4,,,64,127
20098,note_on,5,0,0,,4,,,64,127
20098,note_on,0,0,0,,2,,,62,127
20293,note_off,195,0,0,,4,,,64,127
20298,note_on,5,0,0,,4,,,64,127
20493,note_off,195,0,0,,4,,,64,127
20498,note_on,5,0,0,,4,,,64,127
20693,note_off,195,0,0,,4,,,64,127
20693,note_off,0,0,0,,2,,,62,127
20698,note_on,5,0,0,,4,,,64,127
20698,note_on,0,0,0,,0,,,60,127
20893,note_off,195,0,0,,4,,,64,127
20898,note_on,5,0,0,,4,,,64,127
21093,note_off,195,0,0,,4,,,64,127
21098,note_on,5,0,0,,10,,,69,127
21293,note_off,195,0,0,,10,,,69,127
21293,note_off,0,0,0,,0,,,60,127
21298,note_on,5,0,0,,4,,,64,127
21298,note_on,0,0,0,,0,,,60,127
21298,note_on,0,0,0,,10,,,57,127
21493,note_off,195,0,0,,4,,,64,127
21498,note_on,5,0,0,,4,,,64,127
21693,note_off,195,0,0,,4,,,64,127
21698,note_on,5,0,0,,10,,,69,127
21893,note_off,195,0,0,,10,,,69,127
21893,note_off,0,0,0,,10,,,57,127
21893,note_off,0,0,0,,0,,,60,127
21898,note_on,5,0,0,,4,,,64,127
21898,note_on,0,0,0,,12,,,59,127
21898,note_on,0,0,0,,8,,,56,127
22093,note_off,195,0,0,,4,,,64,127
22098,note_on,5,0,0,,4,,,64,127
22293,note_off,195,0,0,,4,,,64,127
22298,note_on,5,0,0,,4,,,76,127
22493,note_off,195,0,0,,4,,,76,127
22493,note_off,0,0,0,,8,,,56,127
22493,note_off,0,0,0,,12,,,59,127
22498,note_on,5,0,0,,4,,,64,127
22498,note_on,0,0,0,,12,,,59,127
22498,note_on,0,0,0,,4,,,52,127
22693,note_off,195,0,0,,4,,,64,127
22698,note_on,5,0,0,,4,,,64,127
22893,note_off,195,0,0,,4,,,64,127
22898,note_on,5,0,0,,8,,,80,127
23093,note_off,195,0,0,,8,,,80,127
23093,note_off,0,0,0,,4,,,52,127
23093,note_off,0,0,0,,12,,,59,127
23098,note_on,5,0,0,,4,,,64,127
23098,note_on,0,0,0,,10,,,57,127
23098,note_on,0,0,0,,0,,,48,127
23293,note_off,195,0,0,,4,,,64,127
23298,note_on,5,0,0,,4,,,64,127
23493,note_off,195,0,0,,4,,,64,127
23498,note_on,5,0,0,,0,,,84,127
23693,note_off,195,0,0,,0,,,84,127
23693,note_off,0,0,0,,0,,,48,127
23693,note_off,0,0,0,,10,,,57,127
23698,note_on,5,0,0,,4,,,64,127
23698,note_on,0,0,0,,10,,,57,127
23698,note_on,0,0,0,,4,,,52,127
23698,note_on,0,0,0,,10,,,45,127
23893,note_off,195,0,0,,4,,,64,127
23898,note_on,5,0,0,,4,,,64,127
24093,note_off,195,0,0,,4,,,64,127
24098,note_on,5,0,0,,4,,,88,127
24293,note_off,195,0,0,,4,,,88,127
24293,note_off,0,0,0,,10,,,45,127
24293,note_off,0,0,0,,4,,,52,127
24293,note_off,0,0,0,,10,,,57,127
24298,note_on,5,0,0,,4,,,64,127
24298,note_on,0,0,0,,4,,,52,127
24298,note_on,0,0,0,,8,,,56,127
24298,note_on,0,0,0,,8,,,44,127
24493,note_off,195,0,0,,4,,,64,127
24498,note_on,5,0,0,,4,,,64,127
24693,note_off,195,0,0,,4,,,64,127
24698,note_on,5,0,0,,4,,,88,127
24893,note_off,195,0,0,,4,,,88,127
24893,note_off,0,0,0,,8,,,44,127
24893,note_off,0,0,0,,8,,,56,127
24893,note_off,0,0,0,,4,,,52,127
24898,note_on,5,0,0,,4,,,64,127
24898,note_on,0,0,0,,8,,,56,127
24898,note_on,0,0,0,,4,,,52,127
24898,note_on,0,0,0,,8,,,44,127
25093,note_off,195,0,0,,4,,,64,127
25098,note_on,5,0,0,,4,,,64,127
25293,note_off,195,0,0,,4,,,64,127
25298,note_on,5,0,0,,4,,,88,127
25493,note_off,195,0,0,,8,,,44,127
25493,note_off,0,0,0,,4,,,52,127
25493,note_off,0,0,0,,8,,,56,127
25498,note_on,5,0,0,,10,,,57,127
25498,note_on,0,0,0,,10,,,45,127
25498,note_on,0,0,0,,4,,,52,127
25593,note_off,95,0,0,,4,,,88,127
25598,note_on,5,0,0,,0,,,84,127
25693,note_off,95,0,0,,0,,,84,127
25698,note_on,5,0,0,,10,,,81,127
25793,note_off,95,0,0,,10,,,81,127
25798,note_on,5,0,0,,4,,,76,127
25893,note_off,95,0,0,,4,,,76,127
25898,note_on,5,0,0,,0,,,72,127
25993,note_off,95,0,0,,0,,,72,127
25998,note_on,5,0,0,,10,,,69,127
26093,note_off,95,0,0,,10,,,69,127
26093,note_off,0,0,0,,4,,,52,127
26093,note_off,0,0,0,,10,,,45,127
26093,note_off,0,0,0,,10,,,57,127
26098,note_on,5,0,0,,4,,,76,127
26098,note_on,0,0,0,,4,,,52,127
26098,note_on,0,0,0,,10,,,57,127
26098,note_on,0,0,0,,10,,,45,127
26193,note_off,95,0,0,,4,,,76,127
26198,note_on,5,0,0,,0,,,72,127
26293,note_off,95,0,0,,0,,,72,127
26298,note_on,5,0,0,,10,,,69,127
26393,note_off,95,0,0,,10,,,69,127
26398,note_on,5,0,0,,4,,,64,127
26493,note_off,95,0,0,,4,,,64,127
26498,note_on,5,0,0,,0,,,60,127
26593,note_off,95,0,0,,0,,,60,127
26593,note_off,0,0,0,,10,,,57,127
26598,note_on,5,0,0,,10,,,57,127
26693,note_off,95,0,0,,10,,,57,127
26693,note_off,0,0,0,,10,,,45,127
26693,note_off,0,0,0,,4,,,52,127
26698,note_on,5,0,0,,8,,,56,127
26698,note_on,0,0,0,,12,,,47,127
26893,note_off,195,0,0,,8,,,56,127
26898,note_on,5,0,0,,8,,,56,127
26943,note_off,45,0,0,,8,,,56,127
26948,note_on,5,0,0,,6,,,54,127
26993,note_off,45,0,0,,6,,,54,127
26998,note_on,5,0,0,,8,,,56,127
27043,note_off,45,0,0,,8,,,56,127
27048,note_on,5,0,0,,6,,,54,127
27243,note_off,195,0,0,,6,,,54,127
27393,note_off,150,0,0,,12,,,47,127
27715,note_on,322,0,0,,12,,,71,127
27715,note_on,0,0,0,,3,,,75,127
27715,note_on,0,0,0,,6,,,78,127
27810,note_off,95,0,0,,12,,,71,127
27815,note_on,5,0,0,,12,,,59,127
27910,note_off,95,0,0,,12,,,59,127
27910,note_off,0,0,0,,6,,,78,127
27910,note_off,0,0,0,,3,,,75,127
27915,note_on,5,0,0,,4,,,64,127
27915,note_on,0,0,0,,8,,,80,127
27915,note_on,0,0,0,,4,,,76,127
28010,note_off,95,0,0,,4,,,64,127
28015,note_on,5,0,0,,4,,,52,127
28110,note_off,95,0,0,,4,,,52,127
28110,note_off,0,0,0,,4,,,76,127
28110,note_off,0,0,0,,8,,,80,127
28115,note_on,5,0,0,,12,,,59,127
28115,note_on,0,0,0,,6,,,78,127
28115,note_on,0,0,0,,10,,,81,127
28210,note_off,95,0,0,,12,,,59,127
28215,note_on,5,0,0,,12,,,47,127
28310,note_off,95,0,0,,12,,,47,127
28310,note_off,0,0,0,,10,,,81,127
28310,note_off,0,0,0,,6,,,78,127
28315,note_on,5,0,0,,4,,,40,127
28315,note_on,0,0,0,,4,,,52,127
28315,note_on,0,0,0,,8,,,80,127
28315,note_on,0,0,0,,10,,,81,127
28410,note_off,95,0,0,,10,,,81,127
28410,note_off,0,0,0,,8,,,80,127
28415,note_on,5,0,0,,6,,,78,127
28510,note_off,95,0,0,,6,,,78,127
28515,note_on,5,0,0,,8,,,80,127
28610,note_off,95,0,0,,8,,,80,127
28615,note_on,5,0,0,,10,,,81,127
28710,note_off,95,0,0,,10,,,81,127
28715,note_on,5,0,0,,12,,,83,127
28715,note_on,0,0,0,,8,,,80,127
28812,note_off,97,0,0,,4,,,52,127
28812,note_off,0,0,0,,4,,,40,127
28910,note_off,98,0,0,,8,,,80,127
28910,note_off,0,0,0,,12,,,83,127
28915,note_on,5,0,0,,4,,,64,127
28915,note_on,0,0,0,,4,,,76,127
28915,note_on,0,0,0,,8,,,80,127
29010,note_off,95,0,0,,4,,,64,127
29015,note_on,5,0,0,,4,,,52,127
29110,note_off,95,0,0,,4,,,52,127
29110,note_off,0,0,0,,8,,,80,127
29110,note_off,0,0,0,,4,,,76,127
29115,note_on,5,0,0,,12,,,59,127
29115,note_on,0,0,0,,3,,,75,127
29115,note_on,0,0,0,,6,,,78,127
29210,note_off,95,0,0,,12,,,59,127
29215,note_on,5,0,0,,12,,,47,127
29310,note_off,95,0,0,,12,,,47,127
29310,note_off,0,0,0,,6,,,78,127
29310,note_off,0,0,0,,3,,,75,127
29315,note_on,5,0,0,,4,,,52,127
29315,note_on,0,0,0,,4,,,76,127
29410,note_off,95,0,0,,4,,,52,127
29415,note_on,5,0,0,,4,,,40,127
29510,note_off,95,0,0,,4,,,40,127
29510,note_off,0,0,0,,4,,,76,127
29515,note_on,5,0,0,,12,,,47,127
29515,note_on,0,0,0,,6,,,78,127
29515,note_on,0,0,0,,8,,,80,127
29610,note_off,95,0,0,,8,,,80,127
29610,note_off,0,0,0,,6,,,78,127
29615,note_on,5,0,0,,4,,,76,127
29710,note_off,95,0,0,,4,,,76,127
29715,note_on,5,0,0,,6,,,78,127
29810,note_off,95,0,0,,6,,,78,127
29815,note_on,5,0,0,,8,,,80,127
29910,note_off,95,0,0,,8,,,80,127
29915,note_on,5,0,0,,10,,,81,127
29915,note_on,0,0,0,,6,,,78,127
30012,note_off,97,0,0,,12,,,47,127
30110,note_off,98,0,0,,6,,,78,127
30110,note_off,0,0,0,,10,,,81,127
30115,note_on,5,0,0,,12,,,71,127
30115,note_on,0,0,0,,6,,,78,127
30115,note_on,0,0,0,,3,,,75,127
30210,note_off,95,0,0,,12,,,71,127
30215,note_on,5,0,0,,12,,,59,127
30310,note_off,95,0,0,,12,,,59,127
30310,note_off,0,0,0,,3,,,75,127
30310,note_off,0,0,0,,6,,,78,127
30315,note_on,5,0,0,,4,,,64,127
30315,note_on,0,0,0,,4,,,76,127
30315,note_on,0,0,0,,8,,,80,127
30410,note_off,95,0,0,,4,,,64,127
30415,note_on,5,0,0,,4,,,52,127
30510,note_off,95,0,0,,4,,,52,127
30510,note_off,0,0,0,,8,,,80,127
30510,note_off,0,0,0,,4,,,76,127
30515,note_on,5,0,0,,12,,,59,127
30515,note_on,0,0,0,,10,,,81,127
30515,note_on,0,0,0,,6,,,78,127
30610,note_off,95,0,0,,12,,,59,127
30615,note_on,5,0,0,,12,,,47,127
30710,note_off,95,0,0,,12,,,47,127
30710,note_off,0,0,0,,6,,,78,127
30710,note_off,0,0,0,,10,,,81,127
30715,note_on,5,0,0,,4,,,52,127
30715,note_on,0,0,0,,8,,,80,127
30810,note_off,95,0,0,,8,,,80,127
30815,note_on,5,0,0,,6,,,78,127
30910,note_off,95,0,0,,6,,,78,127
30910,note_off,0,0,0,,4,,,52,127
30915,note_on,5,0,0,,6,,,54,127
30915,note_on,0,0,0,,8,,,80,127
31010,note_off,95,0,0,,8,,,80,127
31015,note_on,5,0,0,,10,,,81,127
31110,note_off,95,0,0,,10,,,81,127
31110,note_off,0,0,0,,6,,,54,127
31115,note_on,5,0,0,,8,,,56,127
31115,note_on,0,0,0,,12,,,83,127
31210,note_off,95,0,0,,12,,,83,127
31215,note_on,5,0,0,,12,,,71,127
31310,note_off,95,0,0,,12,,,71,127
31310,note_off,0,0,0,,8,,,56,127
31315,note_on,5,0,0,,10,,,57,127
31315,note_on,0,0,0,,1,,,73,127
31410,note_off,95,0,0,,1,,,73,127
31415,note_on,5,0,0,,10,,,81,127
31510,note_off,95,0,0,,10,,,81,127
31510,note_off,0,0,0,,10,,,57,127
31515,note_on,5,0,0,,12,,,59,127
31515,note_on,0,0,0,,8,,,80,127
31610,note_off,95,0,0,,8,,,80,127
31615,note_on,5,0,0,,6,,,78,127
31710,note_off,95,0,0,,6,,,78,127
31710,note_off,0,0,0,,12,,,59,127
31715,note_on,5,0,0,,12,,,47,127
31715,note_on,0,0,0,,4,,,76,127
31810,note_off,95,0,0,,4,,,76,127
31815,note_on,5,0,0,,3,,,75,127
31910,note_off,95,0,0,,3,,,75,127
31910,note_off,0,0,0,,12,,,47,127
31915,note_on,5,0,0,,4,,,40,127
31915,note_on,0,0,0,,4,,,76,127
32115,note_on,200,0,0,,4,,,64,127
32310,note_off,195,0,0,,4,,,64,127
32315,note_on,5,0,0,,4,,,64,127
32478,note_off,163,0,0,,4,,,76,127
32510,note_off,32,0,0,,4,,,64,127
32510,note_off,0,0,0,,4,,,40,127
32515,note_on,5,0,0,,4,,,52,127
32515,note_on,0,0,0,,2,,,62,127
32515,note_on,0,0,0,,4,,,64,127
32710,note_off,195,0,0,,4,,,64,127
32715,note_on,5,0,0,,4,,,64,127
32910,note_off,195,0,0,,4,,,64,127
32915,note_on,5,0,0,,4,,,64,127
33110,note_off,195,0,0,,4,,,64,127
33110,note_off,0,0,0,,2,,,62,127
33110,note_off,0,0,0,,4,,,52,127
33115,note_on,5,0,0,,0,,,60,127
33115,note_on,0,0,0,,4,,,52,127
33115,note_on,0,0,0,,4,,,64,127
33310,note_off,195,0,0,,4,,,64,127
33315,note_on,5,0,0,,4,,,64,127
33510,note_off,195,0,0,,4,,,64,127
33515,note_on,5,0,0,,4,,,64,127
33710,note_off,195,0,0,,4,,,64,127
33710,note_off,0,0,0,,4,,,52,127
33710,note_off,0,0,0,,0,,,60,127
33715,note_on,5,0,0,,10,,,57,127
33715,note_on,0,0,0,,4,,,52,127
33715,note_on,0,0,0,,0,,,60,127
33715,note_on,0,0,0,,4,,,64,127
33910,note_off,195,0,0,,4,,,64,127
33915,note_on,5,0,0,,4,,,64,127
34110,note_off,195,0,0,,4,,,64,127
34115,note_on,5,0,0,,4,,,64,127
34310,note_off,195,0,0,,4,,,64,127
34310,note_off,0,0,0,,0,,,60,127
34310,note_off,0,0,0,,4,,,52,127
34310,note_off,0,0,0,,10,,,57,127
34315,note_on,5,0,0,,3,,,51,127
34315,note_on,0,0,0,,10,,,57,127
34315,note_on,0,0,0,,12,,,59,127
34315,note_on,0,0,0,,10,,,69,127
34510,note_off,195,0,0,,10,,,69,127
34515,note_on,5,0,0,,10,,,69,127
34710,note_off,195,0,0,,10,,,69,127
34715,note_on,5,0,0,,10,,,69,127
34910,note_off,195,0,0,,10,,,69,127
34910,note_off,0,0,0,,12,,,59,127
34910,note_off,0,0,0,,10,,,57,127
34910,note_off,0,0,0,,3,,,51,127
34915,note_on,5,0,0,,4,,,52,127
34915,note_on,0,0,0,,12,,,59,127
34915,note_on,0,0,0,,8,,,68,127
35110,note_off,195,0,0,,8,,,68,127
35115,note_on,5,0,0,,8,,,68,127
35310,note_off,195,0,0,,8,,,68,127
35315,note_on,5,0,0,,8,,,68,127
35510,note_off,195,0,0,,8,,,68,127
35510,note_off,0,0,0,,12,,,59,127
35510,note_off,0,0,0,,4,,,52,127
35515,note_on,5,0,0,,10,,,57,127
35515,note_on,0,0,0,,10,,,45,127
35515,note_on,0,0,0,,6,,,66,127
35710,note_off,195,0,0,,6,,,66,127
35715,note_on,5,0,0,,6,,,66,127
35910,note_off,195,0,0,,6,,,66,127
35915,note_on,5,0,0,,6,,,66,127
36110,note_off,195,0,0,,6,,,66,127
36110,note_off,0,0,0,,10,,,45,127
36110,note_off,0,0,0,,10,,,57,127
36115,note_on,5,0,0,,6,,,66,127
36115,note_on,0,0,0,,10,,,57,127
36115,note_on,0,0,0,,0,,,48,127
36211,note_off,96,0,0,,6,,,66,127
36215,note_on,4,0,0,,4,,,64,127
36311,note_off,96,0,0,,4,,,64,127
36315,note_on,4,0,0,,3,,,63,127
36510,note_off,195,0,0,,3,,,63,127
36515,note_on,5,0,0,,4,,,64,127
36710,note_off,195,0,0,,0,,,48,127
36710,note_off,0,0,0,,10,,,57,127
36715,note_on,5,0,0,,12,,,59,127
36715,note_on,0,0,0,,12,,,47,127
36910,note_off,195,0,0,,4,,,64,127
36915,note_on,5,0,0,,3,,,63,127
37010,note_off,95,0,0,,3,,,63,127
37015,note_on,5,0,0,,1,,,61,127
37110,note_off,95,0,0,,1,,,61,127
37126,note_on,16,0,0,,3,,,63,127
37320,note_off,194,0,0,,12,,,47,127
37418,note_off,98,0,0,,3,,,63,127
37424,note_off,6,0,0,,12,,,59,127
37541,note_on,117,0,0,,3,,,75,127
37541,note_on,0,0,0,,6,,,78,127
37541,note_on,0,0,0,,12,,,71,127
37636,note_off,95,0,0,,12,,,71,127
37641,note_on,5,0,0,,12,,,59,127
37736,note_off,95,0,0,,12,,,59,127
37736,note_off,0,0,0,,6,,,78,127
37736,note_off,0,0,0,,3,,,75,127
37741,note_on,5,0,0,,8,,,80,127
37741,note_on,0,0,0,,4,,,76,127
37741,note_on,0,0,0,,4,,,64,127
37836,note_off,95,0,0,,4,,,64,127
37841,note_on,5,0,0,,4,,,52,127
37936,note_off,95,0,0,,4,,,52,127
37936,note_off,0,0,0,,4,,,76,127
37936,note_off,0,0,0,,8,,,80,127
37941,note_on,5,0,0,,6,,,78,127
37941,note_on,0,0,0,,10,,,81,127
37941,note_on,0,0,0,,12,,,59,127
38036,note_off,95,0,0,,12,,,59,127
38041,note_on,5,0,0,,12,,,47,127
38136,note_off,95,0,0,,12,,,47,127
38136,note_off,0,0,0,,10,,,81,127
38136,note_off,0,0,0,,6,,,78,127
38141,note_on,5,0,0,,10,,,81,127
38141,note_on,0,0,0,,8,,,80,127
38141,note_on,0,0,0,,4,,,52,127
38141,note_on,0,0,0,,4,,,40,127
38236,note_off,95,0,0,,8,,,80,127
38236,note_off,0,0,0,,10,,,81,127
38241,note_on,5,0,0,,6,,,78,127
38336,note_off,95,0,0,,6,,,78,127
38341,note_on,5,0,0,,8,,,80,127
38436,note_off,95,0,0,,8,,,80,127
38441,note_on,5,0,0,,10,,,81,127
38536,note_off,95,0,0,,10,,,81,127
38541,note_on,5,0,0,,12,,,83,127
38541,note_on,0,0,0,,8,,,80,127
38638,note_off,97,0,0,,4,,,40,127
38638,note_off,0,0,0,,4,,,52,127
38736,note_off,98,0,0,,8,,,80,127
38736,note_off,0,0,0,,12,,,83,127
38741,note_on,5,0,0,,8,,,80,127
38741,note_on,0,0,0,,4,,,76,127
38741,note_on,0,0,0,,4,,,64,127
38836,note_off,95,0,0,,4,,,64,127
38841,note_on,5,0,0,,4,,,52,127
38936,note_off,95,0,0,,4,,,52,127
38936,note_off,0,0,0,,4,,,76,127
38936,note_off,0,0,0,,8,,,80,127
38941,note_on,5,0,0,,3,,,75,127
38941,note_on,0,0,0,,6,,,78,127
38941,note_on,0,0,0,,12,,,59,127
39036,note_off,95,0,0,,12,,,59,127
39041,note_on,5,0,0,,12,,,47,127
39136,note_off,95,0,0,,12,,,47,127
39136,note_off,0,0,0,,6,,,78,127
39136,note_off,0,0,0,,3,,,75,127
39141,note_on,5,0,0,,4,,,76,127
39141,note_on,0,0,0,,4,,,52,127
39236,note_off,95,0,0,,4,,,52,127
39241,note_on,5,0,0,,4,,,40,127
39336,note_off,95,0,0,,4,,,40,127
39336,note_off,0,0,0,,4,,,76,127
39341,note_on,5,0,0,,8,,,80,127
39341,note_on,0,0,0,,6,,,78,127
39341,note_on,0,0,0,,12,,,47,127
39436,note_off,95,0,0,,6,,,78,127
39436,note_off,0,0,0,,8,,,80,127
39441,note_on,5,0,0,,4,,,76,127
39536,note_off,95,0,0,,4,,,76,127
39541,note_on,5,0,0,,6,,,78,127
39636,note_off,95,0,0,,6,,,78,127
39641,note_on,5,0,0,,8,,,80,127
39736,note_off,95,0,0,,8,,,80,127
39741,note_on,5,0,0,,6,,,78,127
39741,note_on,0,0,0,,10,,,81,127
39838,note_off,97,0,0,,12,,,47,127
39936,note_off,98,0,0,,10,,,81,127
39936,note_off,0,0,0,,6,,,78,127
39941,note_on,5,0,0,,6,,,78,127
39941,note_on,0,0,0,,3,,,75,127
39941,note_on,0,0,0,,12,,,71,127
40036,note_off,95,0,0,,12,,,71,127
40041,note_on,5,0,0,,12,,,59,127
40136,note_off,95,0,0,,12,,,59,127
40136,note_off,0,0,0,,3,,,75,127
40136,note_off,0,0,0,,6,,,78,127
40141,note_on,5,0,0,,4,,,76,127
40141,note_on,0,0,0,,8,,,80,127
40141,note_on,0,0,0,,4,,,64,127
40236,note_off,95,0,0,,4,,,64,127
40241,note_on,5,0,0,,4,,,52,127
40336,note_off,95,0,0,,4,,,52,127
40336,note_off,0,0,0,,8,,,80,127
40336,note_off,0,0,0,,4,,,76,127
40341,note_on,5,0,0,,10,,,81,127
40341,note_on,0,0,0,,6,,,78,127
40341,note_on,0,0,0,,12,,,59,127
40436,note_off,95,0,0,,12,,,59,127
40441,note_on,5,0,0,,12,,,47,127
40536,note_off,95,0,0,,12,,,47,127
40536,note_off,0,0,0,,6,,,78,127
40536,note_off,0,0,0,,10,,,81,127
40541,note_on,5,0,0,,8,,,80,127
40541,note_on,0,0,0,,4,,,52,127
40636,note_off,95,0,0,,8,,,80,127
40641,note_on,5,0,0,,6,,,78,127
40736,note_off,95,0,0,,6,,,78,127
40736,note_off,0,0,0,,4,,,52,127
40741,note_on,5,0,0,,8,,,80,127
40741,note_on,0,0,0,,6,,,54,127
40836,note_off,95,0,0,,8,,,80,127
40841,note_on,5,0,0,,10,,,81,127
40936,note_off,95,0,0,,10,,,81,127
40936,note_off,0,0,0,,6,,,54,127
40941,note_on,5,0,0,,12,,,83,127
40941,note_on,0,0,0,,8,,,56,127
41036,note_off,95,0,0,,12,,,83,127
41041,note_on,5,0,0,,12,,,71,127
41136,note_off,95,0,0,,12,,,71,127
41136,note_off,0,0,0,,8,,,56,127
41141,note_on,5,0,0,,1,,,73,127
41141,note_on,0,0,0,,10,,,57,127
41236,note_off,95,0,0,,1,,,73,127
41241,note_on,5,0,0,,10,,,81,127
41336,note_off,95,0,0,,10,,,81,127
41336,note_off,0,0,0,,10,,,57,127
41341,note_on,5,0,0,,8,,,80,127
41341,note_on,0,0,0,,12,,,59,127
41436,note_off,95,0,0,,8,,,80,127
41441,note_on,5,0,0,,6,,,78,127
41536,note_off,95,0,0,,6,,,78,127
41541,note_on,5,0,0,,4,,,76,127
41541,note_on,0,0,0,,12,,,47,127
41636,note_off,95,0,0,,4,,,76,127
41641,note_on,5,0,0,,3,,,75,127
41713,note_off,72,0,0,,12,,,59,127
41715,note_off,2,0,0,,12,,,47,127
41736,note_off,21,0,0,,3,,,75,127
41758,note_on,22,0,0,,4,,,64,127
41758,note_on,0,0,0,,12,,,83,127
41853,note_off,95,0,0,,12,,,83,127
41853,note_off,0,0,0,,4,,,64,127
41858,note_on,5,0,0,,4,,,76,127
41858,note_on,0,0,0,,8,,,80,127
41953,note_off,95,0,0,,4,,,76,127
41958,note_on,5,0,0,,3,,,63,127
42053,note_off,95,0,0,,3,,,63,127
42053,note_off,0,0,0,,8,,,80,127
42058,note_on,5,0,0,,3,,,75,127
42058,note_on,0,0,0,,6,,,78,127
42153,note_off,95,0,0,,3,,,75,127
42158,note_on,5,0,0,,1,,,61,127
42253,note_off,95,0,0,,1,,,61,127
42253,note_off,0,0,0,,6,,,78,127
42258,note_on,5,0,0,,1,,,73,127
42258,note_on,0,0,0,,4,,,76,127
42353,note_off,95,0,0,,4,,,76,127
42353,note_off,0,0,0,,1,,,73,127
42358,note_on,5,0,0,,12,,,59,127
42358,note_on,0,0,0,,3,,,75,127
42453,note_off,95,0,0,,3,,,75,127
42458,note_on,5,0,0,,1,,,73,127
42553,note_off,95,0,0,,1,,,73,127
42558,note_on,5,0,0,,12,,,71,127
42653,note_off,95,0,0,,12,,,71,127
42658,note_on,5,0,0,,10,,,69,127
42753,note_off,95,0,0,,10,,,69,127
42758,note_on,5,0,0,,8,,,68,127
42853,note_off,95,0,0,,8,,,68,127
42855,note_off,2,0,0,,12,,,59,127
42858,note_on,3,0,0,,6,,,66,127
42953,note_off,95,0,0,,6,,,66,127
42958,note_on,5,0,0,,4,,,52,127
42958,note_on,0,0,0,,12,,,83,127
43053,note_off,95,0,0,,12,,,83,127
43053,note_off,0,0,0,,4,,,52,127
43058,note_on,5,0,0,,4,,,64,127
43058,note_on,0,0,0,,8,,,80,127
43153,note_off,95,0,0,,4,,,64,127
43158,note_on,5,0,0,,3,,,51,127
43253,note_off,95,0,0,,3,,,51,127
43253,note_off,0,0,0,,8,,,80,127
43258,note_on,5,0,0,,3,,,63,127
43258,note_on,0,0,0,,6,,,78,127
43353,note_off,95,0,0,,3,,,63,127
43358,note_on,5,0,0,,1,,,49,127
43453,note_off,95,0,0,,1,,,49,127
43453,note_off,0,0,0,,6,,,78,127
43458,note_on,5,0,0,,1,,,61,127
43458,note_on,0,0,0,,4,,,76,127
43553,note_off,95,0,0,,4,,,76,127
43553,note_off,0,0,0,,1,,,61,127
43558,note_on,5,0,0,,12,,,47,127
43558,note_on,0,0,0,,3,,,75,127
43653,note_off,95,0,0,,3,,,75,127
43658,note_on,5,0,0,,1,,,73,127
43753,note_off,95,0,0,,1,,,73,127
43758,note_on,5,0,0,,12,,,71,127
43853,note_off,95,0,0,,12,,,71,127
43858,note_on,5,0,0,,10,,,69,127
43953,note_off,95,0,0,,10,,,69,127
43958,note_on,5,0,0,,8,,,68,127
44053,note_off,95,0,0,,8,,,68,127
44055,note_off,2,0,0,,12,,,47,127
44058,note_on,3,0,0,,6,,,66,127
44153,note_off,95,0,0,,6,,,66,127
44158,note_on,5,0,0,,4,,,40,127
44158,note_on,0,0,0,,12,,,83,127
44253,note_off,95,0,0,,12,,,83,127
44253,note_off,0,0,0,,4,,,40,127
44258,note_on,5,0,0,,4,,,52,127
44258,note_on,0,0,0,,8,,,80,127
44353,note_off,95,0,0,,4,,,52,127
44358,note_on,5,0,0,,3,,,39,127
44453,note_off,95,0,0,,3,,,39,127
44453,note_off,0,0,0,,8,,,80,127
44458,note_on,5,0,0,,3,,,51,127
44458,note_on,0,0,0,,6,,,78,127
44553,note_off,95,0,0,,3,,,51,127
44558,note_on,5,0,0,,1,,,37,127
44653,note_off,95,0,0,,1,,,37,127
44653,note_off,0,0,0,,6,,,78,127
44658,note_on,5,0,0,,1,,,49,127
44658,note_on,0,0,0,,4,,,76,127
44753,note_off,95,0,0,,4,,,76,127
44753,note_off,0,0,0,,1,,,49,127
44758,note_on,5,0,0,,12,,,35,127
44758,note_on,0,0,0,,3,,,75,127
44853,note_off,95,0,0,,3,,,75,127
44858,note_on,5,0,0,,1,,,73,127
44953,note_off,95,0,0,,1,,,73,127
44958,note_on,5,0,0,,12,,,71,127
45053,note_off,95,0,0,,12,,,71,127
45058,note_on,5,0,0,,10,,,69,127
45153,note_off,95,0,0,,10,,,69,127
45158,note_on,5,0,0,,8,,,68,127
45253,note_off,95,0,0,,8,,,68,127
45258,note_on,5,0,0,,6,,,66,127
45353,note_off,95,0,0,,6,,,66,127
45353,note_off,0,0,0,,12,,,35,127
45358,note_on,5,0,0,,4,,,40,127
45358,note_on,0,0,0,,4,,,64,127
45453,note_off,95,0,0,,4,,,64,127
45458,note_on,5,0,0,,8,,,68,127
45553,note_off,95,0,0,,8,,,68,127
45558,note_on,5,0,0,,12,,,71,127
45653,note_off,95,0,0,,12,,,71,127
45658,note_on,5,0,0,,4,,,76,127
45753,note_off,95,0,0,,4,,,76,127
45753,note_off,0,0,0,,4,,,40,127
45758,note_on,5,0,0,,4,,,52,127
45758,note_on,0,0,0,,8,,,80,127
45853,note_off,95,0,0,,8,,,80,127
45858,note_on,5,0,0,,12,,,83,127
45953,note_off,95,0,0,,12,,,83,127
45953,note_off,0,0,0,,4,,,52,127
45958,note_on,5,0,0,,10,,,57,127
45958,note_on,0,0,0,,1,,,73,127
46053,note_off,95,0,0,,1,,,73,127
46058,note_on,5,0,0,,10,,,81,127
46153,note_off,95,0,0,,10,,,81,127
46153,note_off,0,0,0,,10,,,57,127
46158,note_on,5,0,0,,12,,,59,127
46158,note_on,0,0,0,,4,,,76,127
46353,note_off,195,0,0,,4,,,76,127
46358,note_on,5,0,0,,12,,,47,127
46358,note_on,0,0,0,,4,,,76,127
46403,note_off,45,0,0,,4,,,76,127
46408,note_on,5,0,0,,3,,,75,127
46453,note_off,45,0,0,,3,,,75,127
46458,note_on,5,0,0,,1,,,73,127
46503,note_off,45,0,0,,1,,,73,127
46508,note_on,5,0,0,,3,,,75,127
46540,note_off,32,0,0,,12,,,59,127
46542,note_off,2,0,0,,12,,,47,127
46588,note_off,46,0,0,,3,,,75,127
46608,note_on,20,0,0,,12,,,83,127
46608,note_on,0,0,0,,4,,,64,127
46703,note_off,95,0,0,,4,,,64,127
46703,note_off,0,0,0,,12,,,83,127
46708,note_on,5,0,0,,8,,,80,127
46708,note_on,0,0,0,,4,,,76,127
46803,note_off,95,0,0,,4,,,76,127
46808,note_on,5,0,0,,3,,,63,127
46903,note_off,95,0,0,,3,,,63,127
46903,note_off,0,0,0,,8,,,80,127
46908,note_on,5,0,0,,6,,,78,127
46908,note_on,0,0,0,,3,,,75,127
47003,note_off,95,0,0,,3,,,75,127
47008,note_on,5,0,0,,1,,,61,127
47103,note_off,95,0,0,,1,,,61,127
47103,note_off,0,0,0,,6,,,78,127
47108,note_on,5,0,0,,4,,,76,127
47108,note_on,0,0,0,,1,,,73,127
47203,note_off,95,0,0,,1,,,73,127
47203,note_off,0,0,0,,4,,,76,127
47208,note_on,5,0,0,,3,,,75,127
47208,note_on,0,0,0,,12,,,59,127
47303,note_off,95,0,0,,3,,,75,127
47308,note_on,5,0,0,,1,,,73,127
47403,note_off,95,0,0,,1,,,73,127
47408,note_on,5,0,0,,12,,,71,127
47503,note_off,95,0,0,,12,,,71,127
47508,note_on,5,0,0,,10,,,69,127
47603,note_off,95,0,0,,10,,,69,127
47608,note_on,5,0,0,,8,,,68,127
47703,note_off,95,0,0,,8,,,68,127
47705,note_off,2,0,0,,12,,,59,127
47708,note_on,3,0,0,,6,,,66,127
47803,note_off,95,0,0,,6,,,66,127
47808,note_on,5,0,0,,12,,,83,127
47808,note_on,0,0,0,,4,,,52,127
47903,note_off,95,0,0,,4,,,52,127
47903,note_off,0,0,0,,12,,,83,127
47908,note_on,5,0,0,,8,,,80,127
47908,note_on,0,0,0,,4,,,64,127
48003,note_off,95,0,0,,4,,,64,127
48008,note_on,5,0,0,,3,,,51,127
48103,note_off,95,0,0,,3,,,51,127
48103,note_off,0,0,0,,8,,,80,127
48108,note_on,5,0,0,,6,,,78,127
48108,note_on,0,0,0,,3,,,63,127
48203,note_off,95,0,0,,3,,,63,127
48208,note_on,5,0,0,,1,,,49,127
48303,note_off,95,0,0,,1,,,49,127
48303,note_off,0,0,0,,6,,,78,127
48308,note_on,5,0,0,,4,,,76,127
48308,note_on,0,0,0,,1,,,61,127
48403,note_off,95,0,0,,1,,,61,127
48403,note_off,0,0,0,,4,,,76,127
48408,note_on,5,0,0,,3,,,75,127
48408,note_on,0,0,0,,12,,,47,127
48503,note_off,95,0,0,,3,,,75,127
48508,note_on,5,0,0,,1,,,73,127
48603,note_off,95,0,0,,1,,,73,127
48608,note_on,5,0,0,,12,,,71,127
48703,note_off,95,0,0,,12,,,71,127
48708,note_on,5,0,0,,10,,,69,127
48803,note_off,95,0,0,,10,,,69,127
48808,note_on,5,0,0,,8,,,68,127
48903,note_off,95,0,0,,8,,,68,127
48905,note_off,2,0,0,,12,,,47,127
48908,note_on,3,0,0,,6,,,66,127
49003,note_off,95,0,0,,6,,,66,127
49008,note_on,5,0,0,,12,,,83,127
49008,note_on,0,0,0,,4,,,40,127
49103,note_off,95,0,0,,4,,,40,127
49103,note_off,0,0,0,,12,,,83,127
49108,note_on,5,0,0,,8,,,80,127
49108,note_on,0,0,0,,4,,,52,127
49203,note_off,95,0,0,,4,,,52,127
49208,note_on,5,0,0,,3,,,39,127
49303,note_off,95,0,0,,3,,,39,127
49303,note_off,0,0,0,,8,,,80,127
49308,note_on,5,0,0,,6,,,78,127
49308,note_on,0,0,0,,3,,,51,127
49403,note_off,95,0,0,,3,,,51,127
49408,note_on,5,0,0,,1,,,37,127
49503,note_off,95,0,0,,1,,,37,127
49503,note_off,0,0,0,,6,,,78,127
49508,note_on,5,0,0,,4,,,76,127
49508,note_on,0,0,0,,1,,,49,127
49603,note_off,95,0,0,,1,,,49,127
49603,note_off,0,0,0,,4,,,76,127
49608,note_on,5,0,0,,3,,,75,127
49608,note_on,0,0,0,,12,,,35,127
49703,note_off,95,0,0,,3,,,75,127
49708,note_on,5,0,0,,1,,,73,127
49803,note_off,95,0,0,,1,,,73,127
49808,note_on,5,0,0,,12,,,71,127
49903,note_off,95,0,0,,12,,,71,127
49908,note_on,5,0,0,,10,,,69,127
50003,note_off,95,0,0,,10,,,69,127
50008,note_on,5,0,0,,8,,,68,127
50103,note_off,95,0,0,,8,,,68,127
50108,note_on,5,0,0,,6,,,66,127
50203,note_off,95,0,0,,6,,,66,127
50203,note_off,0,0,0,,12,,,35,127
50208,note_on,5,0,0,,4,,,64,127
50208,note_on,0,0,0,,4,,,40,127
50303,note_off,95,0,0,,4,,,64,127
50308,note_on,5,0,0,,8,,,68,127
50403,note_off,95,0,0,,8,,,68,127
50408,note_on,5,0,0,,12,,,71,127
50503,note_off,95,0,0,,12,,,71,127
50508,note_on,5,0,0,,4,,,76,127
50603,note_off,95,0,0,,4,,,76,127
50603,note_off,0,0,0,,4,,,40,127
50608,note_on,5,0,0,,8,,,80,127
50608,note_on,0,0,0,,4,,,52,127
50703,note_off,95,0,0,,8,,,80,127
50708,note_on,5,0,0,,12,,,83,127
50803,note_off,95,0,0,,12,,,83,127
50803,note_off,0,0,0,,4,,,52,127
50808,note_on,5,0,0,,1,,,73,127
50808,note_on,0,0,0,,10,,,57,127
50903,note_off,95,0,0,,1,,,73,127
50908,note_on,5,0,0,,10,,,81,127
51003,note_off,95,0,0,,10,,,81,127
51003,note_off,0,0,0,,10,,,57,127
51008,note_on,5,0,0,,4,,,76,127
51008,note_on,0,0,0,,12,,,59,127
51203,note_off,195,0,0,,4,,,76,127
51208,note_on,5,0,0,,4,,,76,127
51208,note_on,0,0,0,,12,,,47,127
51253,note_off,45,0,0,,4,,,76,127
51258,note_on,5,0,0,,3,,,75,127
51303,note_off,45,0,0,,3,,,75,127
51308,note_on,5,0,0,,1,,,73,127
51353,note_off,45,0,0,,1,,,73,127
51358,note_on,5,0,0,,3,,,75,127
51401,note_off,43,0,0,,12,,,59,127
51403,note_off,2,0,0,,3,,,75,127
51403,note_off,0,0,0,,12,,,47,127
51442,note_on,39,0,0,,12,,,83,127
51537,note_off,95,0,0,,12,,,83,127
51542,note_on,5,0,0,,8,,,80,127
51637,note_off,95,0,0,,8,,,80,127
51642,note_on,5,0,0,,4,,,76,127
51642,note_on,0,0,0,,8,,,44,127
51737,note_off,95,0,0,,4,,,76,127
51742,note_on,5,0,0,,12,,,71,127
51837,note_off,95,0,0,,12,,,71,127
51837,note_off,0,0,0,,8,,,44,127
51842,note_on,5,0,0,,8,,,68,127
51842,note_on,0,0,0,,4,,,40,127
51937,note_off,95,0,0,,8,,,68,127
51942,note_on,5,0,0,,4,,,64,127
52037,note_off,95,0,0,,4,,,64,127
52037,note_off,0,0,0,,4,,,40,127
52042,note_on,5,0,0,,1,,,61,127
52042,note_on,0,0,0,,10,,,45,127
52137,note_off,95,0,0,,1,,,61,127
52142,note_on,5,0,0,,10,,,69,127
52237,note_off,95,0,0,,10,,,69,127
52237,note_off,0,0,0,,10,,,45,127
52242,note_on,5,0,0,,4,,,64,127
52242,note_on,0,0,0,,12,,,47,127
52437,note_off,195,0,0,,12,,,47,127
52437,note_off,0,0,0,,4,,,64,127
52442,note_on,5,0,0,,4,,,64,127
52442,note_on,0,0,0,,12,,,47,127
52487,note_off,45,0,0,,4,,,64,127
52492,note_on,5,0,0,,3,,,63,127
52537,note_off,45,0,0,,3,,,63,127
52542,note_on,5,0,0,,1,,,61,127
52587,note_off,45,0,0,,1,,,61,127
52592,note_on,5,0,0,,3,,,63,127
52637,note_off,45,0,0,,3,,,63,127
52637,note_off,0,0,0,,12,,,47,127
52642,note_on,5,0,0,,4,,,64,127
52642,note_on,0,0,0,,4,,,40,127
53456,note_off,814,0,0,,4,,,40,127
53560,note_off,104,0,0,,4,,,64,127
53810,note_on,250,0,0,,4,,,40,127
54010,note_on,200,0,0,,4,,,64,127
54205,note_off,195,0,0,,4,,,64,127
54210,note_on,5,0,0,,4,,,64,127
54405,note_off,195,0,0,,4,,,64,127
54405,note_off,0,0,0,,4,,,40,127
54410,note_on,5,0,0,,2,,,62,127
54410,note_on,0,0,0,,4,,,64,127
54605,note_off,195,0,0,,4,,,64,127
54610,note_on,5,0,0,,4,,,64,127
54805,note_off,195,0,0,,4,,,64,127
54810,note_on,5,0,0,,4,,,64,127
55005,note_off,195,0,0,,4,,,64,127
55005,note_off,0,0,0,,2,,,62,127
55010,note_on,5,0,0,,0,,,60,127
55010,note_on,0,0,0,,4,,,76,127
55010,note_on,0,0,0,,4,,,64,127
55205,note_off,195,0,0,,4,,,64,127
55205,note_off,0,0,0,,4,,,76,127
55210,note_on,5,0,0,,4,,,64,127
55210,note_on,0,0,0,,4,,,76,127
55405,note_off,195,0,0,,4,,,76,127
55405,note_off,0,0,0,,4,,,64,127
55410,note_on,5,0,0,,4,,,64,127
55410,note_on,0,0,0,,4,,,76,127
55605,note_off,195,0,0,,4,,,76,127
55605,note_off,0,0,0,,4,,,64,127
55605,note_off,0,0,0,,0,,,60,127
55610,note_on,5,0,0,,0,,,60,127
55610,note_on,0,0,0,,7,,,79,127
55705,note_off,95,0,0,,7,,,79,127
55710,note_on,5,0,0,,0,,,72,127
55805,note_off,95,0,0,,0,,,72,127
55810,note_on,5,0,0,,2,,,74,127
55905,note_off,95,0,0,,2,,,74,127
55910,note_on,5,0,0,,12,,,71,127
56005,note_off,95,0,0,,12,,,71,127
56010,note_on,5,0,0,,0,,,72,127
56105,note_off,95,0,0,,0,,,72,127
56110,note_on,5,0,0,,7,,,67,127
56205,note_off,95,0,0,,7,,,67,127
56205,note_off,0,0,0,,0,,,60,127
56210,note_on,5,0,0,,12,,,59,127
56210,note_on,0,0,0,,2,,,74,127
56305,note_off,95,0,0,,2,,,74,127
56310,note_on,5,0,0,,5,,,65,127
56405,note_off,95,0,0,,5,,,65,127
56410,note_on,5,0,0,,7,,,67,127
56505,note_off,95,0,0,,7,,,67,127
56510,note_on,5,0,0,,4,,,64,127
56605,note_off,95,0,0,,4,,,64,127
56610,note_on,5,0,0,,5,,,65,127
56705,note_off,95,0,0,,5,,,65,127
56710,note_on,5,0,0,,2,,,62,127
56805,note_off,95,0,0,,2,,,62,127
56805,note_off,0,0,0,,12,,,59,127
56810,note_on,5,0,0,,0,,,60,127
56810,note_on,0,0,0,,4,,,64,127
56905,note_off,95,0,0,,0,,,60,127
56910,note_on,5,0,0,,4,,,52,127
57005,note_off,95,0,0,,4,,,52,127
57010,note_on,5,0,0,,5,,,53,127
57105,note_off,95,0,0,,5,,,53,127
57110,note_on,5,0,0,,2,,,50,127
57205,note_off,95,0,0,,2,,,50,127
57205,note_off,0,0,0,,4,,,64,127
57210,note_on,5,0,0,,4,,,52,127
57210,note_on,0,0,0,,0,,,72,127
57210,note_on,0,0,0,,4,,,76,127
57305,note_off,95,0,0,,4,,,52,127
57310,note_on,5,0,0,,0,,,48,127
57405,note_off,95,0,0,,0,,,48,127
57410,note_on,5,0,0,,7,,,43,127
57605,note_off,195,0,0,,4,,,76,127
57605,note_off,0,0,0,,0,,,72,127
57610,note_on,5,0,0,,4,,,76,127
57655,note_off,45,0,0,,4,,,76,127
57660,note_on,5,0,0,,2,,,74,127
57705,note_off,45,0,0,,2,,,74,127
57710,note_on,5,0,0,,0,,,72,127
57805,note_off,95,0,0,,0,,,72,127
57810,note_on,5,0,0,,2,,,74,127
58203,note_off,393,0,0,,2,,,74,127
58206,note_off,3,0,0,,7,,,43,127
58878,note_on,672,0,0,,11,,,82,127
58878,note_on,0,0,0,,11,,,70,127
58878,note_on,0,0,0,,7,,,67,127
59073,note_off,195,0,0,,11,,,70,127
59073,note_off,0,0,0,,11,,,82,127
59078,note_on,5,0,0,,11,,,82,127
59078,note_on,0,0,0,,11,,,70,127
59273,note_off,195,0,0,,11,,,70,127
59273,note_off,0,0,0,,11,,,82,127
59278,note_on,5,0,0,,11,,,82,127
59278,note_on,0,0,0,,11,,,70,127
59473,note_off,195,0,0,,11,,,70,127
59473,note_off,0,0,0,,11,,,82,127
59473,note_off,0,0,0,,7,,,67,127
59478,note_on,5,0,0,,11,,,82,127
59478,note_on,0,0,0,,11,,,70,127
59478,note_on,0,0,0,,8,,,80,127
59478,note_on,0,0,0,,5,,,65,127
59673,note_off,195,0,0,,8,,,80,127
59673,note_off,0,0,0,,11,,,70,127
59673,note_off,0,0,0,,11,,,82,127
59678,note_on,5,0,0,,11,,,70,127
59678,note_on,0,0,0,,11,,,82,127
59678,note_on,0,0,0,,8,,,80,127
59873,note_off,195,0,0,,8,,,80,127
59873,note_off,0,0,0,,11,,,82,127
59873,note_off,0,0,0,,11,,,70,127
59878,note_on,5,0,0,,11,,,70,127
59878,note_on,0,0,0,,11,,,82,127
59878,note_on,0,0,0,,8,,,80,127
60073,note_off,195,0,0,,8,,,80,127
60073,note_off,0,0,0,,11,,,82,127
60073,note_off,0,0,0,,11,,,70,127
60073,note_off,0,0,0,,5,,,65,127
60078,note_on,5,0,0,,7,,,79,127
60078,note_on,0,0,0,,11,,,82,127
60078,note_on,0,0,0,,3,,,63,127
60078,note_on,0,0,0,,11,,,70,127
60273,note_off,195,0,0,,11,,,82,127
60273,note_off,0,0,0,,7,,,79,127
60278,note_on,5,0,0,,11,,,82,127
60278,note_on,0,0,0,,7,,,79,127
60473,note_off,195,0,0,,7,,,79,127
60473,note_off,0,0,0,,11,,,82,127
60478,note_on,5,0,0,,11,,,82,127
60478,note_on,0,0,0,,7,,,79,127
60673,note_off,195,0,0,,7,,,79,127
60673,note_off,0,0,0,,11,,,82,127
60673,note_off,0,0,0,,11,,,70,127
60673,note_off,0,0,0,,3,,,63,127
60678,note_on,5,0,0,,11,,,82,127
60678,note_on,0,0,0,,5,,,77,127
60678,note_on,0,0,0,,1,,,61,127
60678,note_on,0,0,0,,11,,,70,127
60873,note_off,195,0,0,,5,,,77,127
60878,note_on,5,0,0,,4,,,76,127
61073,note_off,195,0,0,,4,,,76,127
61078,note_on,5,0,0,,5,,,77,127
61273,note_off,195,0,0,,5,,,77,127
61273,note_off,0,0,0,,11,,,70,127
61273,note_off,0,0,0,,1,,,61,127
61274,note_off,1,0,0,,11,,,82,127
61278,note_on,4,0,0,,11,,,82,127
61278,note_on,0,0,0,,0,,,60,127
61278,note_on,0,0,0,,11,,,70,127
61373,note_off,95,0,0,,11,,,82,127
61378,note_on,5,0,0,,4,,,76,127
61473,note_off,95,0,0,,4,,,76,127
61478,note_on,5,0,0,,5,,,77,127
61573,note_off,95,0,0,,5,,,77,127
61578,note_on,5,0,0,,2,,,74,127
61673,note_off,95,0,0,,2,,,74,127
61678,note_on,5,0,0,,4,,,76,127
61773,note_off,95,0,0,,4,,,76,127
61778,note_on,5,0,0,,0,,,72,127
61873,note_off,95,0,0,,0,,,72,127
61873,note_off,0,0,0,,11,,,70,127
61873,note_off,0,0,0,,0,,,60,127
61912,note_on,39,0,0,,7,,,79,127
61912,note_on,0,0,0,,11,,,82,127
61912,note_on,0,0,0,,0,,,72,127
62007,note_off,95,0,0,,0,,,72,127
62012,note_on,5,0,0,,0,,,60,127
62107,note_off,95,0,0,,0,,,60,127
62107,note_off,0,0,0,,11,,,82,127
62107,note_off,0,0,0,,7,,,79,127
62112,note_on,5,0,0,,5,,,77,127
62112,note_on,0,0,0,,10,,,81,127
62112,note_on,0,0,0,,5,,,65,127
62207,note_off,95,0,0,,5,,,65,127
62212,note_on,5,0,0,,5,,,53,127
62307,note_off,95,0,0,,5,,,53,127
62307,note_off,0,0,0,,10,,,81,127
62307,note_off,0,0,0,,5,,,77,127
62312,note_on,5,0,0,,4,,,76,127
62312,note_on,0,0,0,,7,,,79,127
62312,note_on,0,0,0,,0,,,60,127
62407,note_off,95,0,0,,0,,,60,127
62412,note_on,5,0,0,,0,,,48,127
62507,note_off,95,0,0,,0,,,48,127
62507,note_off,0,0,0,,7,,,79,127
62507,note_off,0,0,0,,4,,,76,127
62512,note_on,5,0,0,,11,,,82,127
62512,note_on,0,0,0,,10,,,81,127
62512,note_on,0,0,0,,5,,,41,127
62512,note_on,0,0,0,,5,,,53,127
62607,note_off,95,0,0,,10,,,81,127
62607,note_off,0,0,0,,11,,,82,127
62612,note_on,5,0,0,,7,,,79,127
62707,note_off,95,0,0,,7,,,79,127
62712,note_on,5,0,0,,10,,,81,127
62807,note_off,95,0,0,,10,,,81,127
62812,note_on,5,0,0,,11,,,82,127
62907,note_off,95,0,0,,11,,,82,127
62912,note_on,5,0,0,,0,,,84,127
62912,note_on,0,0,0,,10,,,81,127
63009,note_off,97,0,0,,5,,,53,127
63009,note_off,0,0,0,,5,,,41,127
63107,note_off,98,0,0,,10,,,81,127
63107,note_off,0,0,0,,0,,,84,127
63112,note_on,5,0,0,,5,,,77,127
63112,note_on,0,0,0,,10,,,81,127
63112,note_on,0,0,0,,5,,,65,127
63207,note_off,95,0,0,,5,,,65,127
63212,note_on,5,0,0,,5,,,53,127
63307,note_off,95,0,0,,5,,,53,127
63307,note_off,0,0,0,,10,,,81,127
63307,note_off,0,0,0,,5,,,77,127
63312,note_on,5,0,0,,4,,,76,127
63312,note_on,0,0,0,,7,,,79,127
63312,note_on,0,0,0,,0,,,60,127
63407,note_off,95,0,0,,0,,,60,127
63412,note_on,5,0,0,,0,,,48,127
63507,note_off,95,0,0,,0,,,48,127
63507,note_off,0,0,0,,7,,,79,127
63507,note_off,0,0,0,,4,,,76,127
63512,note_on,5,0,0,,5,,,77,127
63512,note_on,0,0,0,,5,,,53,127
63607,note_off,95,0,0,,5,,,53,127
63612,note_on,5,0,0,,5,,,41,127
63707,note_off,95,0,0,,5,,,41,127
63707,note_off,0,0,0,,5,,,77,127
63712,note_on,5,0,0,,7,,,79,127
63712,note_on,0,0,0,,10,,,81,127
63712,note_on,0,0,0,,0,,,36,127
63712,note_on,0,0,0,,0,,,48,127
63807,note_off,95,0,0,,10,,,81,127
63807,note_off,0,0,0,,7,,,79,127
63812,note_on,5,0,0,,5,,,77,127
63907,note_off,95,0,0,,5,,,77,127
63912,note_on,5,0,0,,7,,,79,127
64007,note_off,95,0,0,,7,,,79,127
64012,note_on,5,0,0,,10,,,81,127
64107,note_off,95,0,0,,10,,,81,127
64112,note_on,5,0,0,,11,,,82,127
64112,note_on,0,0,0,,7,,,79,127
64209,note_off,97,0,0,,0,,,48,127
64209,note_off,0,0,0,,0,,,36,127
64307,note_off,98,0,0,,7,,,79,127
64307,note_off,0,0,0,,11,,,82,127
64312,note_on,5,0,0,,7,,,79,127
64312,note_on,0,0,0,,11,,,82,127
64312,note_on,0,0,0,,0,,,60,127
64407,note_off,95,0,0,,0,,,60,127
64412,note_on,5,0,0,,0,,,48,127
64507,note_off,95,0,0,,0,,,48,127
64507,note_off,0,0,0,,11,,,82,127
64507,note_off,0,0,0,,7,,,79,127
64512,note_on,5,0,0,,10,,,81,127
64512,note_on,0,0,0,,5,,,77,127
64512,note_on,0,0,0,,5,,,53,127
64607,note_off,95,0,0,,5,,,53,127
64612,note_on,5,0,0,,5,,,41,127
64707,note_off,95,0,0,,5,,,41,127
64707,note_off,0,0,0,,5,,,77,127
64707,note_off,0,0,0,,10,,,81,127
64712,note_on,5,0,0,,4,,,76,127
64712,note_on,0,0,0,,7,,,79,127
64712,note_on,0,0,0,,0,,,48,127
64807,note_off,95,0,0,,0,,,48,127
64812,note_on,5,0,0,,0,,,36,127
64907,note_off,95,0,0,,0,,,36,127
64907,note_off,0,0,0,,7,,,79,127
64907,note_off,0,0,0,,4,,,76,127
64912,note_on,5,0,0,,10,,,81,127
64912,note_on,0,0,0,,11,,,82,127
64912,note_on,0,0,0,,5,,,41,127
64912,note_on,0,0,0,,5,,,53,127
65007,note_off,95,0,0,,11,,,82,127
65007,note_off,0,0,0,,10,,,81,127
65012,note_on,5,0,0,,7,,,79,127
65107,note_off,95,0,0,,7,,,79,127
65112,note_on,5,0,0,,10,,,81,127
65207,note_off,95,0,0,,10,,,81,127
65212,note_on,5,0,0,,11,,,82,127
65307,note_off,95,0,0,,11,,,82,127
65312,note_on,5,0,0,,0,,,84,127
65312,note_on,0,0,0,,10,,,81,127
65507,note_off,195,0,0,,5,,,53,127
65507,note_off,0,0,0,,5,,,41,127
65705,note_off,198,0,0,,10,,,81,127
65705,note_off,0,0,0,,0,,,84,127
66380,note_on,675,0,0,,5,,,53,127
66380,note_on,0,0,0,,3,,,63,127
66575,note_off,195,0,0,,3,,,63,127
66575,note_off,0,0,0,,5,,,53,127
66580,note_on,5,0,0,,3,,,63,127
66580,note_on,0,0,0,,5,,,53,127
66775,note_off,195,0,0,,5,,,53,127
66775,note_off,0,0,0,,3,,,63,127
66780,note_on,5,0,0,,5,,,53,127
66780,note_on,0,0,0,,3,,,63,127
66975,note_off,195,0,0,,3,,,63,127
66975,note_off,0,0,0,,5,,,53,127
66980,note_on,5,0,0,,5,,,53,127
66980,note_on,0,0,0,,2,,,62,127
67175,note_off,195,0,0,,2,,,62,127
67175,note_off,0,0,0,,5,,,53,127
67180,note_on,5,0,0,,5,,,53,127
67180,note_on,0,0,0,,2,,,62,127
67375,note_off,195,0,0,,2,,,62,127
67375,note_off,0,0,0,,5,,,53,127
67380,note_on,5,0,0,,5,,,53,127
67380,note_on,0,0,0,,2,,,62,127
67575,note_off,195,0,0,,2,,,62,127
67575,note_off,0,0,0,,5,,,53,127
67580,note_on,5,0,0,,8,,,80,127
67580,note_on,0,0,0,,5,,,53,127
67580,note_on,0,0,0,,0,,,60,127
67775,note_off,195,0,0,,0,,,60,127
67775,note_off,0,0,0,,5,,,53,127
67780,note_on,5,0,0,,5,,,53,127
67780,note_on,0,0,0,,0,,,60,127
67975,note_off,195,0,0,,0,,,60,127
67975,note_off,0,0,0,,5,,,53,127
67980,note_on,5,0,0,,0,,,60,127
67980,note_on,0,0,0,,5,,,53,127
68175,note_off,195,0,0,,5,,,53,127
68175,note_off,0,0,0,,0,,,60,127
68175,note_off,0,0,0,,8,,,80,127
68180,note_on,5,0,0,,2,,,86,127
68180,note_on,0,0,0,,2,,,74,127
68180,note_on,0,0,0,,5,,,53,127
68180,note_on,0,0,0,,2,,,62,127
68180,note_on,0,0,0,,12,,,59,127
68375,note_off,195,0,0,,12,,,59,127
68375,note_off,0,0,0,,2,,,62,127
68375,note_off,0,0,0,,5,,,53,127
68380,note_on,5,0,0,,5,,,53,127
68380,note_on,0,0,0,,2,,,62,127
68380,note_on,0,0,0,,12,,,59,127
68575,note_off,195,0,0,,12,,,59,127
68575,note_off,0,0,0,,2,,,62,127
68575,note_off,0,0,0,,5,,,53,127
68580,note_on,5,0,0,,5,,,53,127
68580,note_on,0,0,0,,12,,,59,127
68580,note_on,0,0,0,,2,,,62,127
68775,note_off,195,0,0,,2,,,62,127
68775,note_off,0,0,0,,12,,,59,127
68775,note_off,0,0,0,,5,,,53,127
68775,note_off,0,0,0,,2,,,74,127
68775,note_off,0,0,0,,2,,,86,127
68780,note_on,5,0,0,,2,,,86,127
68780,note_on,0,0,0,,2,,,74,127
68780,note_on,0,0,0,,5,,,53,127
68780,note_on,0,0,0,,12,,,59,127
68780,note_on,0,0,0,,2,,,62,127
68975,note_off,195,0,0,,2,,,62,127
68975,note_off,0,0,0,,12,,,59,127
68975,note_off,0,0,0,,5,,,53,127
68980,note_on,5,0,0,,5,,,53,127
68980,note_on,0,0,0,,12,,,59,127
68980,note_on,0,0,0,,2,,,62,127
69175,note_off,195,0,0,,2,,,62,127
69175,note_off,0,0,0,,12,,,59,127
69175,note_off,0,0,0,,5,,,53,127
69180,note_on,5,0,0,,5,,,53,127
69180,note_on,0,0,0,,12,,,59,127
69180,note_on,0,0,0,,2,,,62,127
69375,note_off,195,0,0,,2,,,62,127
69375,note_off,0,0,0,,12,,,59,127
69375,note_off,0,0,0,,5,,,53,127
69375,note_off,0,0,0,,2,,,74,127
69375,note_off,0,0,0,,2,,,86,127
69380,note_on,5,0,0,,2,,,86,127
69380,note_on,0,0,0,,2,,,74,127
69380,note_on,0,0,0,,5,,,53,127
69380,note_on,0,0,0,,12,,,59,127
69380,note_on,0,0,0,,2,,,62,127
69575,note_off,195,0,0,,2,,,62,127
69575,note_off,0,0,0,,12,,,59,127
69575,note_off,0,0,0,,5,,,53,127
69580,note_on,5,0,0,,12,,,59,127
69580,note_on,0,0,0,,5,,,53,127
69580,note_on,0,0,0,,2,,,62,127
69775,note_off,195,0,0,,2,,,62,127
69775,note_off,0,0,0,,5,,,53,127
69775,note_off,0,0,0,,12,,,59,127
69780,note_on,5,0,0,,5,,,53,127
69780,note_on,0,0,0,,2,,,62,127
69780,note_on,0,0,0,,12,,,59,127
69975,note_off,195,0,0,,12,,,59,127
69975,note_off,0,0,0,,2,,,62,127
69975,note_off,0,0,0,,5,,,53,127
69975,note_off,0,0,0,,2,,,74,127
69975,note_off,0,0,0,,2,,,86,127
69980,note_on,5,0,0,,2,,,86,127
69980,note_on,0,0,0,,2,,,74,127
69980,note_on,0,0,0,,12,,,59,127
69980,note_on,0,0,0,,5,,,53,127
69980,note_on,0,0,0,,2,,,62,127
70175,note_off,195,0,0,,2,,,62,127
70175,note_off,0,0,0,,5,,,53,127
70175,note_off,0,0,0,,12,,,59,127
70180,note_on,5,0,0,,5,,,53,127
70180,note_on,0,0,0,,2,,,62,127
70180,note_on,0,0,0,,12,,,59,127
70375,note_off,195,0,0,,12,,,59,127
70375,note_off,0,0,0,,2,,,62,127
70375,note_off,0,0,0,,5,,,53,127
70380,note_on,5,0,0,,12,,,59,127
70380,note_on,0,0,0,,5,,,53,127
70380,note_on,0,0,0,,2,,,62,127
70575,note_off,195,0,0,,2,,,62,127
70575,note_off,0,0,0,,5,,,53,127
70575,note_off,0,0,0,,12,,,59,127
70575,note_off,0,0,0,,2,,,74,127
70575,note_off,0,0,0,,2,,,86,127
70580,note_on,5,0,0,,2,,,86,127
70580,note_on,0,0,0,,8,,,80,127
70580,note_on,0,0,0,,2,,,74,127
70580,note_on,0,0,0,,12,,,59,127
70580,note_on,0,0,0,,4,,,52,127
70580,note_on,0,0,0,,2,,,62,127
70775,note_off,195,0,0,,2,,,62,127
70775,note_off,0,0,0,,4,,,52,127
70775,note_off,0,0,0,,12,,,59,127
70780,note_on,5,0,0,,12,,,59,127
70780,note_on,0,0,0,,4,,,52,127
70780,note_on,0,0,0,,2,,,62,127
70975,note_off,195,0,0,,2,,,62,127
70975,note_off,0,0,0,,4,,,52,127
70975,note_off,0,0,0,,12,,,59,127
70980,note_on,5,0,0,,4,,,52,127
70980,note_on,0,0,0,,2,,,62,127
70980,note_on,0,0,0,,12,,,59,127
71175,note_off,195,0,0,,12,,,59,127
71175,note_off,0,0,0,,2,,,62,127
71175,note_off,0,0,0,,4,,,52,127
71175,note_off,0,0,0,,2,,,74,127
71175,note_off,0,0,0,,8,,,80,127
71175,note_off,0,0,0,,2,,,86,127
71180,note_on,5,0,0,,4,,,76,127
71180,note_on,0,0,0,,2,,,86,127
71180,note_on,0,0,0,,4,,,52,127
71180,note_on,0,0,0,,10,,,57,127
71180,note_on,0,0,0,,0,,,60,127
71275,note_off,95,0,0,,2,,,86,127
71280,note_on,5,0,0,,0,,,84,127
71375,note_off,95,0,0,,0,,,84,127
71375,note_off,0,0,0,,0,,,60,127
71375,note_off,0,0,0,,10,,,57,127
71375,note_off,0,0,0,,4,,,52,127
71380,note_on,5,0,0,,12,,,83,127
71380,note_on,0,0,0,,4,,,52,127
71380,note_on,0,0,0,,10,,,57,127
71380,note_on,0,0,0,,0,,,60,127
71575,note_off,195,0,0,,0,,,60,127
71575,note_off,0,0,0,,10,,,57,127
71575,note_off,0,0,0,,4,,,52,127
71575,note_off,0,0,0,,12,,,83,127
71580,note_on,5,0,0,,0,,,84,127
71580,note_on,0,0,0,,10,,,57,127
71580,note_on,0,0,0,,0,,,60,127
71580,note_on,0,0,0,,4,,,52,127
71775,note_off,195,0,0,,4,,,52,127
71775,note_off,0,0,0,,0,,,60,127
71775,note_off,0,0,0,,10,,,57,127
71775,note_off,0,0,0,,0,,,84,127
71776,note_off,1,0,0,,4,,,76,127
71780,note_on,4,0,0,,0,,,84,127
71780,note_on,0,0,0,,2,,,74,127
71780,note_on,0,0,0,,4,,,52,127
71780,note_on,0,0,0,,12,,,59,127
71780,note_on,0,0,0,,2,,,62,127
71875,note_off,95,0,0,,0,,,84,127
71880,note_on,5,0,0,,12,,,83,127
71975,note_off,95,0,0,,12,,,83,127
71975,note_off,0,0,0,,2,,,62,127
71975,note_off,0,0,0,,12,,,59,127
71975,note_off,0,0,0,,4,,,52,127
71980,note_on,5,0,0,,10,,,81,127
71980,note_on,0,0,0,,4,,,52,127
71980,note_on,0,0,0,,2,,,62,127
71980,note_on,0,0,0,,12,,,59,127
72175,note_off,195,0,0,,12,,,59,127
72175,note_off,0,0,0,,2,,,62,127
72175,note_off,0,0,0,,4,,,52,127
72175,note_off,0,0,0,,10,,,81,127
72180,note_on,5,0,0,,12,,,83,127
72180,note_on,0,0,0,,12,,,59,127
72180,note_on,0,0,0,,4,,,52,127
72180,note_on,0,0,0,,2,,,62,127
72375,note_off,195,0,0,,2,,,62,127
72375,note_off,0,0,0,,4,,,52,127
72375,note_off,0,0,0,,12,,,59,127
72375,note_off,0,0,0,,12,,,83,127
72376,note_off,1,0,0,,2,,,74,127
72380,note_on,4,0,0,,12,,,83,127
72380,note_on,0,0,0,,0,,,72,127
72380,note_on,0,0,0,,4,,,52,127
72380,note_on,0,0,0,,3,,,63,127
72475,note_off,95,0,0,,12,,,83,127
72480,note_on,5,0,0,,10,,,81,127
72575,note_off,95,0,0,,10,,,81,127
72575,note_off,0,0,0,,3,,,63,127
72575,note_off,0,0,0,,4,,,52,127
72580,note_on,5,0,0,,8,,,80,127
72580,note_on,0,0,0,,4,,,52,127
72580,note_on,0,0,0,,3,,,63,127
72775,note_off,195,0,0,,3,,,63,127
72775,note_off,0,0,0,,4,,,52,127
72775,note_off,0,0,0,,8,,,80,127
72780,note_on,5,0,0,,10,,,81,127
72780,note_on,0,0,0,,4,,,52,127
72780,note_on,0,0,0,,3,,,63,127
72975,note_off,195,0,0,,3,,,63,127
72975,note_off,0,0,0,,4,,,52,127
72976,note_off,1,0,0,,0,,,72,127
72980,note_on,4,0,0,,12,,,71,127
72980,note_on,0,0,0,,4,,,52,127
72980,note_on,0,0,0,,4,,,64,127
73173,note_off,193,0,0,,10,,,81,127
73180,note_on,7,0,0,,8,,,80,127
73275,note_off,95,0,0,,8,,,80,127
73280,note_on,5,0,0,,6,,,78,127
73375,note_off,95,0,0,,6,,,78,127
73380,note_on,5,0,0,,4,,,76,127
73477,note_off,97,0,0,,4,,,52,127
73575,note_off,98,0,0,,4,,,76,127
73575,note_off,0,0,0,,4,,,64,127
73576,note_off,1,0,0,,12,,,71,127
73597,note_on,21,0,0,,4,,,76,127
73597,note_on,0,0,0,,12,,,83,127
73597,note_on,0,0,0,,8,,,80,127
73692,note_off,95,0,0,,4,,,76,127
73697,note_on,5,0,0,,4,,,64,127
73792,note_off,95,0,0,,4,,,64,127
73792,note_off,0,0,0,,8,,,80,127
73792,note_off,0,0,0,,12,,,83,127
73797,note_on,5,0,0,,10,,,69,127
73797,note_on,0,0,0,,10,,,81,127
73797,note_on,0,0,0,,1,,,85,127
73892,note_off,95,0,0,,10,,,69,127
73897,note_on,5,0,0,,10,,,57,127
73992,note_off,95,0,0,,10,,,57,127
73992,note_off,0,0,0,,1,,,85,127
73992,note_off,0,0,0,,10,,,81,127
73997,note_on,5,0,0,,4,,,64,127
73997,note_on,0,0,0,,2,,,86,127
73997,note_on,0,0,0,,12,,,83,127
74092,note_off,95,0,0,,4,,,64,127
74097,note_on,5,0,0,,4,,,52,127
74192,note_off,95,0,0,,4,,,52,127
74192,note_off,0,0,0,,12,,,83,127
74192,note_off,0,0,0,,2,,,86,127
74197,note_on,5,0,0,,10,,,57,127
74197,note_on,0,0,0,,10,,,45,127
74197,note_on,0,0,0,,2,,,86,127
74197,note_on,0,0,0,,1,,,85,127
74292,note_off,95,0,0,,1,,,85,127
74292,note_off,0,0,0,,2,,,86,127
74297,note_on,5,0,0,,12,,,83,127
74392,note_off,95,0,0,,12,,,83,127
74397,note_on,5,0,0,,10,,,81,127
74492,note_off,95,0,0,,10,,,81,127
74497,note_on,5,0,0,,8,,,80,127
74592,note_off,95,0,0,,8,,,80,127
74597,note_on,5,0,0,,10,,,81,127
74694,note_off,97,0,0,,10,,,45,127
74694,note_off,0,0,0,,10,,,57,127
74792,note_off,98,0,0,,10,,,81,127
74797,note_on,5,0,0,,10,,,69,127
74797,note_on,0,0,0,,1,,,85,127
74797,note_on,0,0,0,,10,,,81,127
74892,note_off,95,0,0,,10,,,69,127
74897,note_on,5,0,0,,10,,,57,127
74992,note_off,95,0,0,,10,,,57,127
74992,note_off,0,0,0,,10,,,81,127
74992,note_off,0,0,0,,1,,,85,127
74997,note_on,5,0,0,,4,,,64,127
74997,note_on,0,0,0,,12,,,83,127
74997,note_on,0,0,0,,8,,,80,127
75092,note_off,95,0,0,,4,,,64,127
75097,note_on,5,0,0,,4,,,52,127
75192,note_off,95,0,0,,4,,,52,127
75192,note_off,0,0,0,,8,,,80,127
75192,note_off,0,0,0,,12,,,83,127
75197,note_on,5,0,0,,10,,,57,127
75197,note_on,0,0,0,,10,,,81,127
75292,note_off,95,0,0,,10,,,57,127
75297,note_on,5,0,0,,10,,,45,127
75392,note_off,95,0,0,,10,,,45,127
75392,note_off,0,0,0,,10,,,81,127
75397,note_on,5,0,0,,4,,,52,127
75397,note_on,0,0,0,,4,,,40,127
75397,note_on,0,0,0,,12,,,83,127
75397,note_on,0,0,0,,1,,,85,127
75492,note_off,95,0,0,,1,,,85,127
75492,note_off,0,0,0,,12,,,83,127
75497,note_on,5,0,0,,10,,,81,127
75592,note_off,95,0,0,,10,,,81,127
75597,note_on,5,0,0,,12,,,83,127
75692,note_off,95,0,0,,12,,,83,127
75697,note_on,5,0,0,,1,,,85,127
75792,note_off,95,0,0,,1,,,85,127
75797,note_on,5,0,0,,12,,,83,127
75797,note_on,0,0,0,,8,,,80,127
75894,note_off,97,0,0,,4,,,40,127
75894,note_off,0,0,0,,4,,,52,127
75992,note_off,98,0,0,,8,,,80,127
75992,note_off,0,0,0,,12,,,83,127
75997,note_on,5,0,0,,4,,,64,127
75997,note_on,0,0,0,,12,,,83,127
75997,note_on,0,0,0,,8,,,80,127
76092,note_off,95,0,0,,4,,,64,127
76097,note_on,5,0,0,,4,,,52,127
76192,note_off,95,0,0,,4,,,52,127
76192,note_off,0,0,0,,8,,,80,127
76192,note_off,0,0,0,,12,,,83,127
76197,note_on,5,0,0,,10,,,57,127
76197,note_on,0,0,0,,1,,,85,127
76197,note_on,0,0,0,,10,,,81,127
76292,note_off,95,0,0,,10,,,57,127
76297,note_on,5,0,0,,10,,,45,127
76392,note_off,95,0,0,,10,,,45,127
76392,note_off,0,0,0,,10,,,81,127
76392,note_off,0,0,0,,1,,,85,127
76397,note_on,5,0,0,,4,,,52,127
76397,note_on,0,0,0,,12,,,83,127
76397,note_on,0,0,0,,2,,,86,127
76492,note_off,95,0,0,,4,,,52,127
76497,note_on,5,0,0,,4,,,40,127
76592,note_off,95,0,0,,4,,,40,127
76592,note_off,0,0,0,,2,,,86,127
76592,note_off,0,0,0,,12,,,83,127
76597,note_on,5,0,0,,10,,,45,127
76597,note_on,0,0,0,,1,,,85,127
76692,note_off,95,0,0,,1,,,85,127
76697,note_on,5,0,0,,12,,,83,127
76792,note_off,95,0,0,,12,,,83,127
76792,note_off,0,0,0,,10,,,45,127
76797,note_on,5,0,0,,12,,,47,127
76797,note_on,0,0,0,,10,,,81,127
76892,note_off,95,0,0,,10,,,81,127
76897,note_on,5,0,0,,8,,,80,127
76992,note_off,95,0,0,,8,,,80,127
76992,note_off,0,0,0,,12,,,47,127
76997,note_on,5,0,0,,1,,,49,127
76997,note_on,0,0,0,,10,,,81,127
77092,note_off,95,0,0,,10,,,81,127
77097,note_on,5,0,0,,4,,,76,127
77192,note_off,95,0,0,,4,,,76,127
77192,note_off,0,0,0,,1,,,49,127
77197,note_on,5,0,0,,2,,,50,127
77197,note_on,0,0,0,,6,,,78,127
77292,note_off,95,0,0,,6,,,78,127
77297,note_on,5,0,0,,2,,,74,127
77392,note_off,95,0,0,,2,,,74,127
77392,note_off,0,0,0,,2,,,50,127
77397,note_on,5,0,0,,4,,,52,127
77397,note_on,0,0,0,,1,,,73,127
77492,note_off,95,0,0,,1,,,73,127
77497,note_on,5,0,0,,12,,,71,127
77592,note_off,95,0,0,,12,,,71,127
77597,note_on,5,0,0,,4,,,40,127
77597,note_on,0,0,0,,10,,,69,127
77692,note_off,95,0,0,,10,,,69,127
77697,note_on,5,0,0,,8,,,68,127
77790,note_off,93,0,0,,4,,,52,127
77792,note_off,2,0,0,,8,,,68,127
77792,note_off,0,0,0,,4,,,40,127
77797,note_on,5,0,0,,10,,,45,127
77797,note_on,0,0,0,,10,,,57,127
77797,note_on,0,0,0,,10,,,69,127
77992,note_off,195,0,0,,10,,,69,127
77992,note_off,0,0,0,,10,,,57,127
77997,note_on,5,0,0,,10,,,69,127
77997,note_on,0,0,0,,10,,,57,127
78192,note_off,195,0,0,,10,,,57,127
78192,note_off,0,0,0,,10,,,69,127
78197,note_on,5,0,0,,10,,,57,127
78197,note_on,0,0,0,,10,,,69,127
78392,note_off,195,0,0,,10,,,69,127
78392,note_off,0,0,0,,10,,,57,127
78392,note_off,0,0,0,,10,,,45,127
78397,note_on,5,0,0,,7,,,55,127
78397,note_on,0,0,0,,10,,,45,127
78397,note_on,0,0,0,,7,,,67,127
78397,note_on,0,0,0,,11,,,58,127
78592,note_off,195,0,0,,11,,,58,127
78592,note_off,0,0,0,,7,,,67,127
78597,note_on,5,0,0,,11,,,58,127
78597,note_on,0,0,0,,7,,,67,127
78792,note_off,195,0,0,,7,,,67,127
78792,note_off,0,0,0,,11,,,58,127
78797,note_on,5,0,0,,11,,,58,127
78797,note_on,0,0,0,,7,,,67,127
78992,note_off,195,0,0,,7,,,67,127
78992,note_off,0,0,0,,11,,,58,127
78992,note_off,0,0,0,,10,,,45,127
78992,note_off,0,0,0,,7,,,55,127
78997,note_on,5,0,0,,7,,,55,127
78997,note_on,0,0,0,,10,,,45,127
78997,note_on,0,0,0,,10,,,57,127
78997,note_on,0,0,0,,1,,,61,127
79192,note_off,195,0,0,,1,,,61,127
79192,note_off,0,0,0,,10,,,57,127
79197,note_on,5,0,0,,10,,,57,127
79197,note_on,0,0,0,,1,,,61,127
79392,note_off,195,0,0,,1,,,61,127
79392,note_off,0,0,0,,10,,,57,127
79397,note_on,5,0,0,,1,,,61,127
79397,note_on,0,0,0,,10,,,57,127
79592,note_off,195,0,0,,10,,,57,127
79592,note_off,0,0,0,,1,,,61,127
79592,note_off,0,0,0,,10,,,45,127
79592,note_off,0,0,0,,7,,,55,127
79597,note_on,5,0,0,,5,,,53,127
79597,note_on,0,0,0,,10,,,45,127
79597,note_on,0,0,0,,10,,,57,127
79597,note_on,0,0,0,,2,,,62,127
79792,note_off,195,0,0,,2,,,62,127
79792,note_off,0,0,0,,10,,,57,127
79797,note_on,5,0,0,,10,,,57,127
79797,note_on,0,0,0,,2,,,62,127
79992,note_off,195,0,0,,2,,,62,127
79992,note_off,0,0,0,,10,,,57,127
79997,note_on,5,0,0,,2,,,62,127
79997,note_on,0,0,0,,10,,,57,127
80192,note_off,195,0,0,,10,,,57,127
80192,note_off,0,0,0,,2,,,62,127
80192,note_off,0,0,0,,10,,,45,127
80192,note_off,0,0,0,,5,,,53,127
80197,note_on,5,0,0,,4,,,52,127
80197,note_on,0,0,0,,8,,,44,127
80197,note_on,0,0,0,,2,,,62,127
80197,note_on,0,0,0,,4,,,64,127
80392,note_off,195,0,0,,4,,,64,127
80392,note_off,0,0,0,,2,,,62,127
80397,note_on,5,0,0,,2,,,62,127
80397,note_on,0,0,0,,4,,,64,127
80592,note_off,195,0,0,,4,,,64,127
80592,note_off,0,0,0,,2,,,62,127
80597,note_on,5,0,0,,2,,,62,127
80597,note_on,0,0,0,,4,,,64,127
80792,note_off,195,0,0,,4,,,64,127
80792,note_off,0,0,0,,2,,,62,127
80792,note_off,0,0,0,,8,,,44,127
80792,note_off,0,0,0,,4,,,52,127
80797,note_on,5,0,0,,4,,,52,127
80797,note_on,0,0,0,,10,,,45,127
80797,note_on,0,0,0,,4,,,64,127
80797,note_on,0,0,0,,0,,,60,127
80992,note_off,195,0,0,,0,,,60,127
80992,note_off,0,0,0,,4,,,64,127
80997,note_on,5,0,0,,4,,,64,127
80997,note_on,0,0,0,,0,,,60,127
81192,note_off,195,0,0,,0,,,60,127
81192,note_off,0,0,0,,4,,,64,127
81197,note_on,5,0,0,,0,,,60,127
81197,note_on,0,0,0,,4,,,64,127
81392,note_off,195,0,0,,4,,,64,127
81392,note_off,0,0,0,,0,,,60,127
81392,note_off,0,0,0,,10,,,45,127
81392,note_off,0,0,0,,4,,,52,127
81397,note_on,5,0,0,,2,,,50,127
81397,note_on,0,0,0,,2,,,38,127
81397,note_on,0,0,0,,12,,,59,127
81397,note_on,0,0,0,,2,,,62,127
81592,note_off,195,0,0,,2,,,62,127
81592,note_off,0,0,0,,12,,,59,127
81597,note_on,5,0,0,,12,,,59,127
81597,note_on,0,0,0,,2,,,62,127
81792,note_off,195,0,0,,2,,,62,127
81792,note_off,0,0,0,,12,,,59,127
81797,note_on,5,0,0,,2,,,62,127
81797,note_on,0,0,0,,12,,,59,127
81992,note_off,195,0,0,,12,,,59,127
81992,note_off,0,0,0,,2,,,62,127
81992,note_off,0,0,0,,2,,,38,127
81992,note_off,0,0,0,,2,,,50,127
81997,note_on,5,0,0,,2,,,50,127
81997,note_on,0,0,0,,5,,,41,127
81997,note_on,0,0,0,,12,,,59,127
81997,note_on,0,0,0,,2,,,62,127
82092,note_off,95,0,0,,12,,,59,127
82097,note_on,5,0,0,,10,,,57,127
82192,note_off,95,0,0,,10,,,57,127
82197,note_on,5,0,0,,8,,,56,127
82392,note_off,195,0,0,,8,,,56,127
82397,note_on,5,0,0,,10,,,57,127
82592,note_off,195,0,0,,5,,,41,127
82592,note_off,0,0,0,,2,,,50,127
82593,note_off,1,0,0,,2,,,62,127
82597,note_on,4,0,0,,4,,,52,127
82597,note_on,0,0,0,,4,,,40,127
82597,note_on,0,0,0,,0,,,60,127
82790,note_off,193,0,0,,10,,,57,127
82792,note_off,2,0,0,,0,,,60,127
82797,note_on,5,0,0,,0,,,60,127
82842,note_off,45,0,0,,0,,,60,127
82847,note_on,5,0,0,,12,,,59,127
82892,note_off,45,0,0,,12,,,59,127
82897,note_on,5,0,0,,10,,,57,127
82992,note_off,95,0,0,,10,,,57,127
82997,note_on,5,0,0,,12,,,59,127
83399,note_off,402,0,0,,4,,,40,127
83399,note_off,0,0,0,,4,,,52,127
83500,note_off,101,0,0,,12,,,59,127
83865,note_on,365,0,0,,8,,,80,127
83865,note_on,0,0,0,,12,,,83,127
83865,note_on,0,0,0,,4,,,76,127
83960,note_off,95,0,0,,4,,,76,127
83965,note_on,5,0,0,,4,,,64,127
84060,note_off,95,0,0,,4,,,64,127
84060,note_off,0,0,0,,12,,,83,127
84060,note_off,0,0,0,,8,,,80,127
84065,note_on,5,0,0,,1,,,85,127
84065,note_on,0,0,0,,10,,,81,127
84065,note_on,0,0,0,,10,,,69,127
84160,note_off,95,0,0,,10,,,69,127
84165,note_on,5,0,0,,10,,,57,127
84260,note_off,95,0,0,,10,,,57,127
84260,note_off,0,0,0,,10,,,81,127
84260,note_off,0,0,0,,1,,,85,127
84265,note_on,5,0,0,,2,,,86,127
84265,note_on,0,0,0,,12,,,83,127
84265,note_on,0,0,0,,4,,,64,127
84360,note_off,95,0,0,,4,,,64,127
84365,note_on,5,0,0,,4,,,52,127
84460,note_off,95,0,0,,4,,,52,127
84460,note_off,0,0,0,,12,,,83,127
84460,note_off,0,0,0,,2,,,86,127
84465,note_on,5,0,0,,2,,,86,127
84465,note_on,0,0,0,,1,,,85,127
84465,note_on,0,0,0,,10,,,45,127
84465,note_on,0,0,0,,10,,,57,127
84560,note_off,95,0,0,,1,,,85,127
84560,note_off,0,0,0,,2,,,86,127
84565,note_on,5,0,0,,12,,,83,127
84660,note_off,95,0,0,,12,,,83,127
84665,note_on,5,0,0,,10,,,81,127
84760,note_off,95,0,0,,10,,,81,127
84765,note_on,5,0,0,,8,,,80,127
84860,note_off,95,0,0,,8,,,80,127
84865,note_on,5,0,0,,10,,,81,127
84962,note_off,97,0,0,,10,,,57,127
84962,note_off,0,0,0,,10,,,45,127
85060,note_off,98,0,0,,10,,,81,127
85065,note_on,5,0,0,,1,,,85,127
85065,note_on,0,0,0,,10,,,81,127
85065,note_on,0,0,0,,10,,,69,127
85160,note_off,95,0,0,,10,,,69,127
85165,note_on,5,0,0,,10,,,57,127
85260,note_off,95,0,0,,10,,,57,127
85260,note_off,0,0,0,,10,,,81,127
85260,note_off,0,0,0,,1,,,85,127
85265,note_on,5,0,0,,12,,,83,127
85265,note_on,0,0,0,,8,,,80,127
85265,note_on,0,0,0,,4,,,64,127
85360,note_off,95,0,0,,4,,,64,127
85365,note_on,5,0,0,,4,,,52,127
85460,note_off,95,0,0,,4,,,52,127
85460,note_off,0,0,0,,8,,,80,127
85460,note_off,0,0,0,,12,,,83,127
85465,note_on,5,0,0,,10,,,81,127
85465,note_on,0,0,0,,10,,,57,127
85560,note_off,95,0,0,,10,,,57,127
85565,note_on,5,0,0,,10,,,45,127
85660,note_off,95,0,0,,10,,,45,127
85660,note_off,0,0,0,,10,,,81,127
85665,note_on,5,0,0,,1,,,85,127
85665,note_on,0,0,0,,12,,,83,127
85665,note_on,0,0,0,,4,,,40,127
85665,note_on,0,0,0,,4,,,52,127
85760,note_off,95,0,0,,12,,,83,127
85760,note_off,0,0,0,,1,,,85,127
85765,note_on,5,0,0,,10,,,81,127
85860,note_off,95,0,0,,10,,,81,127
85865,note_on,5,0,0,,12,,,83,127
85960,note_off,95,0,0,,12,,,83,127
85965,note_on,5,0,0,,1,,,85,127
86060,note_off,95,0,0,,1,,,85,127
86065,note_on,5,0,0,,12,,,83,127
86065,note_on,0,0,0,,8,,,80,127
86162,note_off,97,0,0,,4,,,52,127
86162,note_off,0,0,0,,4,,,40,127
86260,note_off,98,0,0,,8,,,80,127
86260,note_off,0,0,0,,12,,,83,127
86265,note_on,5,0,0,,12,,,83,127
86265,note_on,0,0,0,,8,,,80,127
86265,note_on,0,0,0,,4,,,64,127
86360,note_off,95,0,0,,4,,,64,127
86365,note_on,5,0,0,,4,,,52,127
86460,note_off,95,0,0,,4,,,52,127
86460,note_off,0,0,0,,8,,,80,127
86460,note_off,0,0,0,,12,,,83,127
86465,note_on,5,0,0,,1,,,85,127
86465,note_on,0,0,0,,10,,,81,127
86465,note_on,0,0,0,,10,,,57,127
86560,note_off,95,0,0,,10,,,57,127
86565,note_on,5,0,0,,10,,,45,127
86660,note_off,95,0,0,,10,,,45,127
86660,note_off,0,0,0,,10,,,81,127
86660,note_off,0,0,0,,1,,,85,127
86665,note_on,5,0,0,,2,,,86,127
86665,note_on,0,0,0,,12,,,83,127
86665,note_on,0,0,0,,4,,,52,127
86760,note_off,95,0,0,,4,,,52,127
86765,note_on,5,0,0,,4,,,40,127
86860,note_off,95,0,0,,4,,,40,127
86860,note_off,0,0,0,,12,,,83,127
86860,note_off,0,0,0,,2,,,86,127
86865,note_on,5,0,0,,1,,,85,127
86865,note_on,0,0,0,,10,,,45,127
86960,note_off,95,0,0,,1,,,85,127
86965,note_on,5,0,0,,12,,,83,127
87060,note_off,95,0,0,,12,,,83,127
87060,note_off,0,0,0,,10,,,45,127
87065,note_on,5,0,0,,10,,,81,127
87065,note_on,0,0,0,,12,,,47,127
87160,note_off,95,0,0,,10,,,81,127
87165,note_on,5,0,0,,8,,,80,127
87260,note_off,95,0,0,,8,,,80,127
87260,note_off,0,0,0,,12,,,47,127
87265,note_on,5,0,0,,10,,,81,127
87265,note_on,0,0,0,,1,,,49,127
87360,note_off,95,0,0,,10,,,81,127
87365,note_on,5,0,0,,4,,,76,127
87460,note_off,95,0,0,,4,,,76,127
87460,note_off,0,0,0,,1,,,49,127
87465,note_on,5,0,0,,6,,,78,127
87465,note_on,0,0,0,,2,,,50,127
87560,note_off,95,0,0,,6,,,78,127
87565,note_on,5,0,0,,2,,,74,127
87660,note_off,95,0,0,,2,,,74,127
87660,note_off,0,0,0,,2,,,50,127
87665,note_on,5,0,0,,1,,,73,127
87665,note_on,0,0,0,,4,,,52,127
87760,note_off,95,0,0,,1,,,73,127
87765,note_on,5,0,0,,12,,,71,127
87860,note_off,95,0,0,,12,,,71,127
87865,note_on,5,0,0,,10,,,69,127
87865,note_on,0,0,0,,4,,,40,127
87960,note_off,95,0,0,,10,,,69,127
87965,note_on,5,0,0,,8,,,68,127
88047,note_off,82,0,0,,4,,,52,127
88049,note_off,2,0,0,,4,,,40,127
88059,note_off,10,0,0,,8,,,68,127
88098,note_on,39,0,0,,4,,,76,127
88098,note_on,0,0,0,,10,,,57,127
88193,note_off,95,0,0,,10,,,57,127
88193,note_off,0,0,0,,4,,,76,127
88198,note_on,5,0,0,,1,,,73,127
88198,note_on,0,0,0,,10,,,69,127
88293,note_off,95,0,0,,10,,,69,127
88298,note_on,5,0,0,,8,,,56,127
88393,note_off,95,0,0,,8,,,56,127
88393,note_off,0,0,0,,1,,,73,127
88398,note_on,5,0,0,,12,,,71,127
88398,note_on,0,0,0,,8,,,68,127
88493,note_off,95,0,0,,8,,,68,127
88498,note_on,5,0,0,,6,,,54,127
88593,note_off,95,0,0,,6,,,54,127
88593,note_off,0,0,0,,12,,,71,127
88598,note_on,5,0,0,,10,,,69,127
88598,note_on,0,0,0,,6,,,66,127
88693,note_off,95,0,0,,6,,,66,127
88693,note_off,0,0,0,,10,,,69,127
88698,note_on,5,0,0,,8,,,68,127
88698,note_on,0,0,0,,4,,,52,127
88793,note_off,95,0,0,,8,,,68,127
88798,note_on,5,0,0,,6,,,66,127
88893,note_off,95,0,0,,6,,,66,127
88898,note_on,5,0,0,,4,,,64,127
88993,note_off,95,0,0,,4,,,64,127
88998,note_on,5,0,0,,2,,,62,127
89093,note_off,95,0,0,,2,,,62,127
89098,note_on,5,0,0,,1,,,61,127
89193,note_off,95,0,0,,1,,,61,127
89195,note_off,2,0,0,,4,,,52,127
89198,note_on,3,0,0,,12,,,59,127
89293,note_off,95,0,0,,12,,,59,127
89298,note_on,5,0,0,,4,,,76,127
89298,note_on,0,0,0,,10,,,45,127
89393,note_off,95,0,0,,10,,,45,127
89393,note_off,0,0,0,,4,,,76,127
89398,note_on,5,0,0,,1,,,73,127
89398,note_on,0,0,0,,10,,,57,127
89493,note_off,95,0,0,,10,,,57,127
89498,note_on,5,0,0,,8,,,44,127
89593,note_off,95,0,0,,8,,,44,127
89593,note_off,0,0,0,,1,,,73,127
89598,note_on,5,0,0,,12,,,71,127
89598,note_on,0,0,0,,8,,,56,127
89693,note_off,95,0,0,,8,,,56,127
89698,note_on,5,0,0,,6,,,42,127
89793,note_off,95,0,0,,6,,,42,127
89793,note_off,0,0,0,,12,,,71,127
89798,note_on,5,0,0,,10,,,69,127
89798,note_on,0,0,0,,6,,,54,127
89893,note_off,95,0,0,,6,,,54,127
89893,note_off,0,0,0,,10,,,69,127
89898,note_on,5,0,0,,8,,,68,127
89898,note_on,0,0,0,,4,,,40,127
89993,note_off,95,0,0,,8,,,68,127
89998,note_on,5,0,0,,6,,,66,127
90093,note_off,95,0,0,,6,,,66,127
90098,note_on,5,0,0,,4,,,64,127
90193,note_off,95,0,0,,4,,,64,127
90198,note_on,5,0,0,,2,,,62,127
90293,note_off,95,0,0,,2,,,62,127
90298,note_on,5,0,0,,1,,,61,127
90393,note_off,95,0,0,,1,,,61,127
90395,note_off,2,0,0,,4,,,40,127
90398,note_on,3,0,0,,12,,,59,127
90493,note_off,95,0,0,,12,,,59,127
90498,note_on,5,0,0,,10,,,57,127
90498,note_on,0,0,0,,10,,,45,127
90593,note_off,95,0,0,,10,,,57,127
90598,note_on,5,0,0,,1,,,61,127
90693,note_off,95,0,0,,1,,,61,127
90698,note_on,5,0,0,,4,,,64,127
90793,note_off,95,0,0,,4,,,64,127
90798,note_on,5,0,0,,10,,,69,127
90893,note_off,95,0,0,,10,,,69,127
90893,note_off,0,0,0,,10,,,45,127
90898,note_on,5,0,0,,1,,,73,127
90898,note_on,0,0,0,,10,,,45,127
90993,note_off,95,0,0,,1,,,73,127
90998,note_on,5,0,0,,10,,,81,127
91093,note_off,95,0,0,,10,,,81,127
91093,note_off,0,0,0,,10,,,45,127
91098,note_on,5,0,0,,6,,,78,127
91098,note_on,0,0,0,,2,,,50,127
91193,note_off,95,0,0,,6,,,78,127
91198,note_on,5,0,0,,2,,,74,127
91293,note_off,95,0,0,,2,,,74,127
91293,note_off,0,0,0,,2,,,50,127
91298,note_on,5,0,0,,1,,,73,127
91298,note_on,0,0,0,,4,,,52,127
91393,note_off,95,0,0,,1,,,73,127
91398,note_on,5,0,0,,12,,,71,127
91493,note_off,95,0,0,,12,,,71,127
91498,note_on,5,0,0,,10,,,69,127
91498,note_on,0,0,0,,4,,,40,127
91593,note_off,95,0,0,,10,,,69,127
91598,note_on,5,0,0,,8,,,68,127
91691,note_off,93,0,0,,4,,,52,127
91693,note_off,2,0,0,,8,,,68,127
91693,note_off,0,0,0,,4,,,40,127
91715,note_on,22,0,0,,10,,,57,127
91715,note_on,0,0,0,,4,,,76,127
91810,note_off,95,0,0,,4,,,76,127
91810,note_off,0,0,0,,10,,,57,127
91815,note_on,5,0,0,,10,,,69,127
91815,note_on,0,0,0,,1,,,73,127
91910,note_off,95,0,0,,10,,,69,127
91915,note_on,5,0,0,,8,,,56,127
92010,note_off,95,0,0,,8,,,56,127
92010,note_off,0,0,0,,1,,,73,127
92015,note_on,5,0,0,,8,,,68,127
92015,note_on,0,0,0,,12,,,71,127
92110,note_off,95,0,0,,8,,,68,127
92115,note_on,5,0,0,,6,,,54,127
92210,note_off,95,0,0,,6,,,54,127
92210,note_off,0,0,0,,12,,,71,127
92215,note_on,5,0,0,,6,,,66,127
92215,note_on,0,0,0,,10,,,69,127
92310,note_off,95,0,0,,10,,,69,127
92310,note_off,0,0,0,,6,,,66,127
92315,note_on,5,0,0,,4,,,52,127
92315,note_on,0,0,0,,8,,,68,127
92410,note_off,95,0,0,,8,,,68,127
92415,note_on,5,0,0,,6,,,66,127
92510,note_off,95,0,0,,6,,,66,127
92515,note_on,5,0,0,,4,,,64,127
92610,note_off,95,0,0,,4,,,64,127
92615,note_on,5,0,0,,2,,,62,127
92710,note_off,95,0,0,,2,,,62,127
92715,note_on,5,0,0,,1,,,61,127
92810,note_off,95,0,0,,1,,,61,127
92812,note_off,2,0,0,,4,,,52,127
92815,note_on,3,0,0,,12,,,59,127
92910,note_off,95,0,0,,12,,,59,127
92915,note_on,5,0,0,,10,,,45,127
92915,note_on,0,0,0,,4,,,76,127
93010,note_off,95,0,0,,4,,,76,127
93010,note_off,0,0,0,,10,,,45,127
93015,note_on,5,0,0,,10,,,57,127
93015,note_on,0,0,0,,1,,,73,127
93110,note_off,95,0,0,,10,,,57,127
93115,note_on,5,0,0,,8,,,44,127
93210,note_off,95,0,0,,8,,,44,127
93210,note_off,0,0,0,,1,,,73,127
93215,note_on,5,0,0,,8,,,56,127
93215,note_on,0,0,0,,12,,,71,127
93310,note_off,95,0,0,,8,,,56,127
93315,note_on,5,0,0,,6,,,42,127
93410,note_off,95,0,0,,6,,,42,127
93410,note_off,0,0,0,,12,,,71,127
93415,note_on,5,0,0,,6,,,54,127
93415,note_on,0,0,0,,10,,,69,127
93510,note_off,95,0,0,,10,,,69,127
93510,note_off,0,0,0,,6,,,54,127
93515,note_on,5,0,0,,4,,,40,127
93515,note_on,0,0,0,,8,,,68,127
93610,note_off,95,0,0,,8,,,68,127
93615,note_on,5,0,0,,6,,,66,127
93710,note_off,95,0,0,,6,,,66,127
93715,note_on,5,0,0,,4,,,64,127
93810,note_off,95,0,0,,4,,,64,127
93815,note_on,5,0,0,,2,,,62,127
93910,note_off,95,0,0,,2,,,62,127
93915,note_on,5,0,0,,1,,,61,127
94010,note_off,95,0,0,,1,,,61,127
94012,note_off,2,0,0,,4,,,40,127
94015,note_on,3,0,0,,12,,,59,127
94110,note_off,95,0,0,,12,,,59,127
94115,note_on,5,0,0,,10,,,45,127
94115,note_on,0,0,0,,10,,,57,127
94210,note_off,95,0,0,,10,,,57,127
94215,note_on,5,0,0,,1,,,61,127
94310,note_off,95,0,0,,1,,,61,127
94315,note_on,5,0,0,,4,,,64,127
94410,note_off,95,0,0,,4,,,64,127
94415,note_on,5,0,0,,10,,,69,127
94510,note_off,95,0,0,,10,,,69,127
94510,note_off,0,0,0,,10,,,45,127
94515,note_on,5,0,0,,10,,,45,127
94515,note_on,0,0,0,,1,,,73,127
94610,note_off,95,0,0,,1,,,73,127
94615,note_on,5,0,0,,10,,,81,127
94710,note_off,95,0,0,,10,,,81,127
94710,note_off,0,0,0,,10,,,45,127
94715,note_on,5,0,0,,2,,,50,127
94715,note_on,0,0,0,,6,,,78,127
94810,note_off,95,0,0,,6,,,78,127
94815,note_on,5,0,0,,2,,,74,127
94910,note_off,95,0,0,,2,,,74,127
94910,note_off,0,0,0,,2,,,50,127
94915,note_on,5,0,0,,4,,,52,127
94915,note_on,0,0,0,,1,,,73,127
95010,note_off,95,0,0,,1,,,73,127
95015,note_on,5,0,0,,12,,,71,127
95110,note_off,95,0,0,,12,,,71,127
95115,note_on,5,0,0,,4,,,40,127
95115,note_on,0,0,0,,10,,,69,127
95210,note_off,95,0,0,,10,,,69,127
95215,note_on,5,0,0,,8,,,68,127
95308,note_off,93,0,0,,4,,,52,127
95310,note_off,2,0,0,,8,,,68,127
95310,note_off,0,0,0,,4,,,40,127
95349,note_on,39,0,0,,10,,,45,127
95349,note_on,0,0,0,,10,,,81,127
95444,note_off,95,0,0,,10,,,81,127
95449,note_on,5,0,0,,4,,,76,127
95544,note_off,95,0,0,,4,,,76,127
95544,note_off,0,0,0,,10,,,45,127
95549,note_on,5,0,0,,12,,,47,127
95549,note_on,0,0,0,,1,,,73,127
95644,note_off,95,0,0,,1,,,73,127
95649,note_on,5,0,0,,10,,,69,127
95744,note_off,95,0,0,,10,,,69,127
95744,note_off,0,0,0,,12,,,47,127
95749,note_on,5,0,0,,1,,,49,127
95749,note_on,0,0,0,,4,,,64,127
95844,note_off,95,0,0,,4,,,64,127
95849,note_on,5,0,0,,1,,,61,127
95944,note_off,95,0,0,,1,,,61,127
95944,note_off,0,0,0,,1,,,49,127
95949,note_on,5,0,0,,2,,,50,127
95949,note_on,0,0,0,,6,,,66,127
96044,note_off,95,0,0,,6,,,66,127
96049,note_on,5,0,0,,2,,,62,127
96144,note_off,95,0,0,,2,,,62,127
96144,note_off,0,0,0,,2,,,50,127
96149,note_on,5,0,0,,4,,,52,127
96149,note_on,0,0,0,,1,,,61,127
96244,note_off,95,0,0,,1,,,61,127
96249,note_on,5,0,0,,12,,,59,127
96344,note_off,95,0,0,,12,,,59,127
96349,note_on,5,0,0,,4,,,40,127
96349,note_on,0,0,0,,10,,,57,127
96444,note_off,95,0,0,,10,,,57,127
96449,note_on,5,0,0,,8,,,56,127
96542,note_off,93,0,0,,4,,,52,127
96544,note_off,2,0,0,,8,,,56,127
96544,note_off,0,0,0,,4,,,40,127
96549,note_on,5,0,0,,10,,,45,127
96549,note_on,0,0,0,,10,,,33,127
96549,note_on,0,0,0,,10,,,57,127
98219,note_off,1670,0,0,,10,,,57,127
98219,note_off,0,0,0,,10,,,33,127
98219,note_off,0,0,0,,10,,,45,127
102912,end_of_track,4693,1,0,,,,,,
