tick,type,time,meta,track,program,channel,pitch,tempo,note,velocity
0,copyright,0,1,0,,,,,,
0,program_change,0,0,0,6,0,,,,
0,pitchwheel,0,0,0,,0,0,,,
0,program_change,0,0,0,6,1,,,,
0,pitchwheel,0,0,0,,1,-590,,,
0,program_change,0,0,0,6,2,,,,
0,pitchwheel,0,0,0,,2,-272,,,
0,program_change,0,0,0,6,3,,,,
0,pitchwheel,0,0,0,,3,-353,,,
0,program_change,0,0,0,6,4,,,,
0,pitchwheel,0,0,0,,4,-560,,,
0,program_change,0,0,0,6,5,,,,
0,pitchwheel,0,0,0,,5,-80,,,
0,program_change,0,0,0,6,6,,,,
0,pitchwheel,0,0,0,,6,-625,,,
0,program_change,0,0,0,6,7,,,,
0,pitchwheel,0,0,0,,7,-130,,,
0,program_change,0,0,0,6,8,,,,
0,pitchwheel,0,0,0,,8,-512,,,
0,program_change,0,0,0,6,10,,,,
0,pitchwheel,0,0,0,,10,-464,,,
0,program_change,0,0,0,6,11,,,,
0,pitchwheel,0,0,0,,11,-208,,,
0,program_change,0,0,0,6,12,,,,
0,pitchwheel,0,0,0,,12,-553,,,
0,set_tempo,0,1,0,,,,500000,,
43,note_on,43,0,0,,7,,,79,127
43,note_on,0,0,0,,11,,,82,127
168,note_off,125,0,0,,7,,,79,127
171,note_on,3,0,0,,3,,,75,127
296,note_off,125,0,0,,3,,,75,127
296,note_off,0,0,0,,11,,,82,127
299,note_on,3,0,0,,5,,,77,127
299,note_on,0,0,0,,8,,,80,127
424,note_off,125,0,0,,5,,,77,127
427,note_on,3,0,0,,2,,,74,127
552,note_off,125,0,0,,2,,,74,127
552,note_off,0,0,0,,8,,,80,127
555,note_on,3,0,0,,3,,,75,127
555,note_on,0,0,0,,7,,,79,127
680,note_off,125,0,0,,3,,,75,127
683,note_on,3,0,0,,11,,,70,127
808,note_off,125,0,0,,11,,,70,127
808,note_off,0,0,0,,7,,,79,127
811,note_on,3,0,0,,5,,,77,127
811,note_on,0,0,0,,2,,,74,127
936,note_off,125,0,0,,2,,,74,127
939,note_on,3,0,0,,11,,,70,127
1064,note_off,125,0,0,,11,,,70,127
1064,note_off,0,0,0,,5,,,77,127
1067,note_on,3,0,0,,7,,,67,127
1067,note_on,0,0,0,,11,,,70,127
1067,note_on,0,0,0,,3,,,75,127
1067,note_on,0,0,0,,7,,,79,127
1192,note_off,125,0,0,,7,,,67,127
1195,note_on,3,0,0,,3,,,63,127
1320,note_off,125,0,0,,3,,,63,127
1320,note_off,0,0,0,,11,,,70,127
1323,note_on,3,0,0,,5,,,65,127
1323,note_on,0,0,0,,8,,,68,127
1448,note_off,125,0,0,,5,,,65,127
1451,note_on,3,0,0,,2,,,62,127
1576,note_off,125,0,0,,2,,,62,127
1576,note_off,0,0,0,,8,,,68,127
1579,note_on,3,0,0,,3,,,63,127
1579,note_on,0,0,0,,7,,,67,127
1704,note_off,125,0,0,,3,,,63,127
1707,note_on,3,0,0,,11,,,58,127
1832,note_off,125,0,0,,11,,,58,127
1832,note_off,0,0,0,,7,,,67,127
1832,note_off,0,0,0,,7,,,79,127
1832,note_off,0,0,0,,3,,,75,127
1835,note_on,3,0,0,,5,,,65,127
1835,note_on,0,0,0,,2,,,62,127
1835,note_on,0,0,0,,5,,,77,127
1960,note_off,125,0,0,,2,,,62,127
1963,note_on,3,0,0,,11,,,58,127
2088,note_off,125,0,0,,11,,,58,127
2088,note_off,0,0,0,,5,,,77,127
2088,note_off,0,0,0,,5,,,65,127
2091,note_on,3,0,0,,3,,,63,127
2091,note_on,0,0,0,,7,,,79,127
2216,note_off,125,0,0,,7,,,79,127
2219,note_on,3,0,0,,11,,,82,127
2344,note_off,125,0,0,,11,,,82,127
2347,note_on,3,0,0,,11,,,82,127
2472,note_off,125,0,0,,11,,,82,127
2475,note_on,3,0,0,,8,,,80,127
2600,note_off,125,0,0,,8,,,80,127
2600,note_off,0,0,0,,3,,,63,127
2603,note_on,3,0,0,,3,,,63,127
2603,note_on,0,0,0,,7,,,55,127
2603,note_on,0,0,0,,8,,,80,127
2728,note_off,125,0,0,,8,,,80,127
2731,note_on,3,0,0,,7,,,79,127
2856,note_off,125,0,0,,7,,,79,127
2859,note_on,3,0,0,,7,,,79,127
2984,note_off,125,0,0,,7,,,79,127
2987,note_on,3,0,0,,5,,,77,127
3112,note_off,125,0,0,,5,,,77,127
3112,note_off,0,0,0,,7,,,55,127
3112,note_off,0,0,0,,3,,,63,127
3115,note_on,3,0,0,,8,,,56,127
3115,note_on,0,0,0,,3,,,63,127
3115,note_on,0,0,0,,5,,,77,127
3240,note_off,125,0,0,,5,,,77,127
3243,note_on,3,0,0,,3,,,75,127
3368,note_off,125,0,0,,3,,,75,127
3371,note_on,3,0,0,,3,,,75,127
3496,note_off,125,0,0,,3,,,75,127
3499,note_on,3,0,0,,2,,,74,127
3624,note_off,125,0,0,,2,,,74,127
3624,note_off,0,0,0,,3,,,63,127
3624,note_off,0,0,0,,8,,,56,127
3627,note_on,3,0,0,,8,,,56,127
3627,note_on,0,0,0,,5,,,65,127
3627,note_on,0,0,0,,3,,,63,127
3627,note_on,0,0,0,,2,,,74,127
3752,note_off,125,0,0,,2,,,74,127
3755,note_on,3,0,0,,0,,,72,127
3880,note_off,125,0,0,,0,,,72,127
3883,note_on,3,0,0,,0,,,72,127
4008,note_off,125,0,0,,0,,,72,127
4011,note_on,3,0,0,,11,,,70,127
4120,note_off,109,0,0,,3,,,63,127
4120,note_off,0,0,0,,5,,,65,127
4120,note_off,0,0,0,,8,,,56,127
4136,note_off,16,0,0,,11,,,70,127
4139,note_on,3,0,0,,11,,,70,127
4267,note_on,128,0,0,,11,,,58,127
4392,note_off,125,0,0,,11,,,58,127
4395,note_on,3,0,0,,11,,,58,127
4520,note_off,125,0,0,,11,,,58,127
4523,note_on,3,0,0,,8,,,56,127
4648,note_off,125,0,0,,8,,,56,127
4651,note_on,3,0,0,,8,,,56,127
4776,note_off,125,0,0,,8,,,56,127
4776,note_off,0,0,0,,11,,,70,127
4779,note_on,3,0,0,,7,,,55,127
4779,note_on,0,0,0,,0,,,72,127
4904,note_off,125,0,0,,0,,,72,127
4904,note_off,0,0,0,,7,,,55,127
4907,note_on,3,0,0,,7,,,55,127
4907,note_on,0,0,0,,0,,,72,127
5032,note_off,125,0,0,,0,,,72,127
5032,note_off,0,0,0,,7,,,55,127
5035,note_on,3,0,0,,5,,,53,127
5035,note_on,0,0,0,,2,,,74,127
5160,note_off,125,0,0,,2,,,74,127
5160,note_off,0,0,0,,5,,,53,127
5163,note_on,3,0,0,,5,,,53,127
5163,note_on,0,0,0,,2,,,74,127
5288,note_off,125,0,0,,2,,,74,127
5288,note_off,0,0,0,,5,,,53,127
5291,note_on,3,0,0,,3,,,51,127
5291,note_on,0,0,0,,3,,,75,127
5416,note_off,125,0,0,,3,,,75,127
5416,note_off,0,0,0,,3,,,51,127
5419,note_on,3,0,0,,3,,,51,127
5419,note_on,0,0,0,,3,,,75,127
5544,note_off,125,0,0,,3,,,75,127
5544,note_off,0,0,0,,3,,,51,127
5547,note_on,3,0,0,,2,,,50,127
5547,note_on,0,0,0,,5,,,77,127
5672,note_off,125,0,0,,5,,,77,127
5672,note_off,0,0,0,,2,,,50,127
5675,note_on,3,0,0,,2,,,50,127
5675,note_on,0,0,0,,5,,,77,127
5800,note_off,125,0,0,,5,,,77,127
5800,note_off,0,0,0,,2,,,50,127
5803,note_on,3,0,0,,0,,,48,127
5803,note_on,0,0,0,,7,,,79,127
5928,note_off,125,0,0,,7,,,79,127
5928,note_off,0,0,0,,0,,,48,127
5931,note_on,3,0,0,,0,,,48,127
5931,note_on,0,0,0,,7,,,79,127
6056,note_off,125,0,0,,7,,,79,127
6056,note_off,0,0,0,,0,,,48,127
6059,note_on,3,0,0,,11,,,46,127
6059,note_on,0,0,0,,8,,,80,127
6184,note_off,125,0,0,,8,,,80,127
6184,note_off,0,0,0,,11,,,46,127
6187,note_on,3,0,0,,11,,,46,127
6187,note_on,0,0,0,,8,,,80,127
6312,note_off,125,0,0,,8,,,80,127
6315,note_on,3,0,0,,5,,,77,127
6440,note_off,125,0,0,,5,,,77,127
6443,note_on,3,0,0,,2,,,74,127
6568,note_off,125,0,0,,2,,,74,127
6571,note_on,3,0,0,,11,,,70,127
6694,note_off,123,0,0,,11,,,46,127
6697,note_off,3,0,0,,11,,,70,127
6700,note_on,3,0,0,,11,,,70,127
6761,note_off,61,0,0,,11,,,70,127
6764,note_on,3,0,0,,8,,,68,127
6825,note_off,61,0,0,,8,,,68,127
6828,note_on,3,0,0,,11,,,58,127
6828,note_on,0,0,0,,11,,,70,127
6889,note_off,61,0,0,,11,,,70,127
6892,note_on,3,0,0,,8,,,68,127
6953,note_off,61,0,0,,8,,,68,127
6953,note_off,0,0,0,,11,,,58,127
6956,note_on,3,0,0,,0,,,60,127
6956,note_on,0,0,0,,11,,,70,127
7017,note_off,61,0,0,,11,,,70,127
7020,note_on,3,0,0,,8,,,68,127
7081,note_off,61,0,0,,8,,,68,127
7081,note_off,0,0,0,,0,,,60,127
7084,note_on,3,0,0,,2,,,62,127
7084,note_on,0,0,0,,7,,,67,127
7145,note_off,61,0,0,,7,,,67,127
7148,note_on,3,0,0,,8,,,68,127
7209,note_off,61,0,0,,8,,,68,127
7209,note_off,0,0,0,,2,,,62,127
7212,note_on,3,0,0,,3,,,63,127
7212,note_on,0,0,0,,7,,,67,127
7337,note_off,125,0,0,,7,,,67,127
7340,note_on,3,0,0,,7,,,79,127
7465,note_off,125,0,0,,7,,,79,127
7468,note_on,3,0,0,,3,,,75,127
7593,note_off,125,0,0,,3,,,75,127
7596,note_on,3,0,0,,11,,,70,127
7665,note_off,69,0,0,,3,,,63,127
7721,note_off,56,0,0,,11,,,70,127
7724,note_on,3,0,0,,11,,,70,127
7785,note_off,61,0,0,,11,,,70,127
7788,note_on,3,0,0,,8,,,68,127
7849,note_off,61,0,0,,8,,,68,127
7852,note_on,3,0,0,,11,,,58,127
7852,note_on,0,0,0,,11,,,70,127
7913,note_off,61,0,0,,11,,,70,127
7916,note_on,3,0,0,,8,,,68,127
7977,note_off,61,0,0,,8,,,68,127
7977,note_off,0,0,0,,11,,,58,127
7980,note_on,3,0,0,,0,,,60,127
7980,note_on,0,0,0,,11,,,70,127
8041,note_off,61,0,0,,11,,,70,127
8044,note_on,3,0,0,,8,,,68,127
8105,note_off,61,0,0,,8,,,68,127
8105,note_off,0,0,0,,0,,,60,127
8108,note_on,3,0,0,,2,,,62,127
8108,note_on,0,0,0,,7,,,67,127
8169,note_off,61,0,0,,7,,,67,127
8172,note_on,3,0,0,,8,,,68,127
8233,note_off,61,0,0,,8,,,68,127
8233,note_off,0,0,0,,2,,,62,127
8236,note_on,3,0,0,,3,,,63,127
8236,note_on,0,0,0,,7,,,67,127
8361,note_off,125,0,0,,7,,,67,127
8364,note_on,3,0,0,,3,,,75,127
8489,note_off,125,0,0,,3,,,75,127
8492,note_on,3,0,0,,2,,,74,127
8617,note_off,125,0,0,,2,,,74,127
8620,note_off,3,0,0,,3,,,63,127
8620,note_on,0,0,0,,0,,,72,127
8745,note_off,125,0,0,,0,,,72,127
8748,note_on,3,0,0,,5,,,65,127
8748,note_on,0,0,0,,2,,,74,127
8873,note_off,125,0,0,,2,,,74,127
8876,note_on,3,0,0,,2,,,74,127
9001,note_off,125,0,0,,2,,,74,127
9001,note_off,0,0,0,,5,,,65,127
9004,note_on,3,0,0,,8,,,68,127
9004,note_on,0,0,0,,2,,,74,127
9129,note_off,125,0,0,,2,,,74,127
9132,note_on,3,0,0,,2,,,74,127
9257,note_off,125,0,0,,2,,,74,127
9257,note_off,0,0,0,,8,,,68,127
9260,note_on,3,0,0,,2,,,62,127
9260,note_on,0,0,0,,2,,,74,127
9385,note_off,125,0,0,,2,,,74,127
9388,note_on,3,0,0,,2,,,74,127
9513,note_off,125,0,0,,2,,,74,127
9513,note_off,0,0,0,,2,,,62,127
9516,note_on,3,0,0,,5,,,65,127
9516,note_on,0,0,0,,2,,,74,127
9641,note_off,125,0,0,,2,,,74,127
9644,note_on,3,0,0,,2,,,74,127
9769,note_off,125,0,0,,2,,,74,127
9769,note_off,0,0,0,,5,,,65,127
9772,note_on,3,0,0,,12,,,59,127
9772,note_on,0,0,0,,2,,,74,127
9897,note_off,125,0,0,,2,,,74,127
9900,note_on,3,0,0,,2,,,74,127
10025,note_off,125,0,0,,2,,,74,127
10025,note_off,0,0,0,,12,,,59,127
10028,note_on,3,0,0,,2,,,62,127
10028,note_on,0,0,0,,2,,,74,127
10153,note_off,125,0,0,,2,,,74,127
10156,note_on,3,0,0,,2,,,74,127
10281,note_off,125,0,0,,2,,,74,127
10281,note_off,0,0,0,,2,,,62,127
10284,note_on,3,0,0,,5,,,53,127
10284,note_on,0,0,0,,2,,,74,127
10409,note_off,125,0,0,,2,,,74,127
10412,note_on,3,0,0,,2,,,74,127
10537,note_off,125,0,0,,2,,,74,127
10537,note_off,0,0,0,,5,,,53,127
10540,note_on,3,0,0,,8,,,56,127
10540,note_on,0,0,0,,2,,,74,127
10665,note_off,125,0,0,,2,,,74,127
10668,note_on,3,0,0,,2,,,74,127
10793,note_off,125,0,0,,2,,,74,127
10793,note_off,0,0,0,,8,,,56,127
10796,note_on,3,0,0,,7,,,43,127
10796,note_on,0,0,0,,2,,,74,127
10921,note_off,125,0,0,,2,,,74,127
10924,note_on,3,0,0,,2,,,74,127
11049,note_off,125,0,0,,2,,,74,127
11049,note_off,0,0,0,,7,,,43,127
11052,note_on,3,0,0,,7,,,55,127
11052,note_on,0,0,0,,3,,,75,127
11177,note_off,125,0,0,,3,,,75,127
11180,note_on,3,0,0,,5,,,77,127
11305,note_off,125,0,0,,5,,,77,127
11305,note_off,0,0,0,,7,,,55,127
11308,note_on,3,0,0,,0,,,48,127
11308,note_on,0,0,0,,3,,,75,127
11433,note_off,125,0,0,,3,,,75,127
11436,note_on,3,0,0,,2,,,74,127
11561,note_off,125,0,0,,2,,,74,127
11564,note_on,3,0,0,,0,,,72,127
11689,note_off,125,0,0,,0,,,72,127
11692,note_on,3,0,0,,12,,,71,127
11761,note_off,69,0,0,,0,,,48,127
11817,note_off,56,0,0,,12,,,71,127
11820,note_on,3,0,0,,3,,,63,127
11820,note_on,0,0,0,,0,,,72,127
11945,note_off,125,0,0,,0,,,72,127
11948,note_on,3,0,0,,0,,,72,127
12073,note_off,125,0,0,,0,,,72,127
12073,note_off,0,0,0,,3,,,63,127
12076,note_on,3,0,0,,7,,,67,127
12076,note_on,0,0,0,,0,,,72,127
12201,note_off,125,0,0,,0,,,72,127
12204,note_on,3,0,0,,0,,,72,127
12329,note_off,125,0,0,,0,,,72,127
12329,note_off,0,0,0,,7,,,67,127
12332,note_on,3,0,0,,0,,,60,127
12332,note_on,0,0,0,,0,,,72,127
12457,note_off,125,0,0,,0,,,72,127
12460,note_on,3,0,0,,0,,,72,127
12585,note_off,125,0,0,,0,,,72,127
12585,note_off,0,0,0,,0,,,60,127
12588,note_on,3,0,0,,3,,,63,127
12588,note_on,0,0,0,,0,,,72,127
12713,note_off,125,0,0,,0,,,72,127
12716,note_on,3,0,0,,0,,,72,127
12841,note_off,125,0,0,,0,,,72,127
12841,note_off,0,0,0,,3,,,63,127
12844,note_on,3,0,0,,10,,,57,127
12844,note_on,0,0,0,,0,,,72,127
12969,note_off,125,0,0,,0,,,72,127
12972,note_on,3,0,0,,0,,,72,127
13097,note_off,125,0,0,,0,,,72,127
13097,note_off,0,0,0,,10,,,57,127
13100,note_on,3,0,0,,0,,,60,127
13100,note_on,0,0,0,,0,,,72,127
13225,note_off,125,0,0,,0,,,72,127
13228,note_on,3,0,0,,0,,,72,127
13353,note_off,125,0,0,,0,,,72,127
13353,note_off,0,0,0,,0,,,60,127
13356,note_on,3,0,0,,3,,,51,127
13356,note_on,0,0,0,,0,,,72,127
13481,note_off,125,0,0,,0,,,72,127
13484,note_on,3,0,0,,0,,,72,127
13609,note_off,125,0,0,,0,,,72,127
13609,note_off,0,0,0,,3,,,51,127
13612,note_on,3,0,0,,7,,,55,127
13612,note_on,0,0,0,,0,,,72,127
13737,note_off,125,0,0,,0,,,72,127
13740,note_on,3,0,0,,0,,,72,127
13865,note_off,125,0,0,,0,,,72,127
13865,note_off,0,0,0,,7,,,55,127
13868,note_on,3,0,0,,5,,,41,127
13868,note_on,0,0,0,,0,,,72,127
13993,note_off,125,0,0,,0,,,72,127
13996,note_on,3,0,0,,0,,,72,127
14121,note_off,125,0,0,,0,,,72,127
14121,note_off,0,0,0,,5,,,41,127
14124,note_on,3,0,0,,5,,,53,127
14124,note_on,0,0,0,,2,,,74,127
14249,note_off,125,0,0,,2,,,74,127
14252,note_on,3,0,0,,3,,,75,127
14377,note_off,125,0,0,,3,,,75,127
14377,note_off,0,0,0,,5,,,53,127
14380,note_on,3,0,0,,11,,,46,127
14380,note_on,0,0,0,,2,,,74,127
14505,note_off,125,0,0,,2,,,74,127
14508,note_on,3,0,0,,5,,,77,127
14633,note_off,125,0,0,,5,,,77,127
14636,note_on,3,0,0,,2,,,74,127
14761,note_off,125,0,0,,2,,,74,127
14764,note_on,3,0,0,,0,,,72,127
14887,note_off,123,0,0,,11,,,46,127
14890,note_off,3,0,0,,0,,,72,127
14893,note_on,3,0,0,,11,,,70,127
15018,note_off,125,0,0,,11,,,70,127
15021,note_on,3,0,0,,10,,,69,127
15146,note_off,125,0,0,,10,,,69,127
15149,note_on,3,0,0,,2,,,50,127
15149,note_on,0,0,0,,11,,,58,127
15149,note_on,0,0,0,,7,,,67,127
15149,note_on,0,0,0,,5,,,77,127
15274,note_off,125,0,0,,7,,,67,127
15277,note_on,3,0,0,,5,,,65,127
15402,note_off,125,0,0,,5,,,65,127
15402,note_off,0,0,0,,2,,,50,127
15405,note_on,3,0,0,,3,,,51,127
15405,note_on,0,0,0,,7,,,67,127
15530,note_off,125,0,0,,7,,,67,127
15533,note_on,3,0,0,,2,,,74,127
15656,note_off,123,0,0,,5,,,77,127
15656,note_off,0,0,0,,11,,,58,127
15659,note_off,3,0,0,,2,,,74,127
15662,note_on,3,0,0,,0,,,60,127
15662,note_on,0,0,0,,5,,,77,127
15662,note_on,0,0,0,,0,,,72,127
15787,note_off,125,0,0,,0,,,72,127
15790,note_on,3,0,0,,11,,,70,127
15913,note_off,123,0,0,,3,,,51,127
15916,note_off,3,0,0,,11,,,70,127
15919,note_on,3,0,0,,5,,,53,127
15919,note_on,0,0,0,,10,,,69,127
16044,note_off,125,0,0,,10,,,69,127
16047,note_on,3,0,0,,3,,,75,127
16170,note_off,123,0,0,,5,,,77,127
16170,note_off,0,0,0,,0,,,60,127
16173,note_off,3,0,0,,3,,,75,127
16176,note_on,3,0,0,,2,,,62,127
16176,note_on,0,0,0,,2,,,74,127
16176,note_on,0,0,0,,5,,,77,127
16301,note_off,125,0,0,,2,,,74,127
16304,note_on,3,0,0,,0,,,72,127
16427,note_off,123,0,0,,5,,,53,127
16430,note_off,3,0,0,,0,,,72,127
16433,note_on,3,0,0,,7,,,55,127
16433,note_on,0,0,0,,11,,,70,127
16558,note_off,125,0,0,,11,,,70,127
16558,note_off,0,0,0,,5,,,77,127
16561,note_on,3,0,0,,5,,,77,127
16684,note_off,123,0,0,,2,,,62,127
16687,note_off,3,0,0,,5,,,77,127
16690,note_on,3,0,0,,3,,,63,127
16690,note_on,0,0,0,,3,,,75,127
16690,note_on,0,0,0,,5,,,77,127
16815,note_off,125,0,0,,3,,,75,127
16818,note_on,3,0,0,,2,,,74,127
16941,note_off,123,0,0,,7,,,55,127
16944,note_off,3,0,0,,2,,,74,127
16944,note_off,0,0,0,,5,,,77,127
16947,note_on,3,0,0,,10,,,57,127
16947,note_on,0,0,0,,5,,,77,127
16947,note_on,0,0,0,,0,,,72,127
17072,note_off,125,0,0,,0,,,72,127
17072,note_off,0,0,0,,5,,,77,127
17075,note_on,3,0,0,,7,,,79,127
17198,note_off,123,0,0,,3,,,63,127
17201,note_off,3,0,0,,7,,,79,127
17204,note_on,3,0,0,,5,,,65,127
17204,note_on,0,0,0,,5,,,77,127
17329,note_off,125,0,0,,5,,,77,127
17332,note_on,3,0,0,,3,,,75,127
17455,note_off,123,0,0,,10,,,57,127
17458,note_off,3,0,0,,3,,,75,127
17458,note_off,0,0,0,,5,,,65,127
17461,note_on,3,0,0,,11,,,58,127
17461,note_on,0,0,0,,2,,,74,127
17586,note_off,125,0,0,,2,,,74,127
17589,note_on,3,0,0,,3,,,75,127
17714,note_off,125,0,0,,3,,,75,127
17717,note_on,3,0,0,,11,,,46,127
17717,note_on,0,0,0,,2,,,74,127
17842,note_off,125,0,0,,2,,,74,127
17845,note_on,3,0,0,,0,,,72,127
17968,note_off,123,0,0,,11,,,58,127
17971,note_off,3,0,0,,0,,,72,127
17974,note_on,3,0,0,,11,,,70,127
18099,note_off,125,0,0,,11,,,70,127
18102,note_on,3,0,0,,10,,,69,127
18227,note_off,125,0,0,,10,,,69,127
18227,note_off,0,0,0,,11,,,46,127
18230,note_on,3,0,0,,2,,,50,127
18230,note_on,0,0,0,,11,,,58,127
18230,note_on,0,0,0,,7,,,67,127
18230,note_on,0,0,0,,5,,,77,127
18355,note_off,125,0,0,,7,,,67,127
18358,note_on,3,0,0,,5,,,65,127
18483,note_off,125,0,0,,5,,,65,127
18483,note_off,0,0,0,,2,,,50,127
18486,note_on,3,0,0,,3,,,51,127
18486,note_on,0,0,0,,7,,,67,127
18611,note_off,125,0,0,,7,,,67,127
18614,note_on,3,0,0,,2,,,74,127
18737,note_off,123,0,0,,5,,,77,127
18737,note_off,0,0,0,,11,,,58,127
18740,note_off,3,0,0,,2,,,74,127
18743,note_on,3,0,0,,0,,,60,127
18743,note_on,0,0,0,,0,,,72,127
18743,note_on,0,0,0,,5,,,77,127
18868,note_off,125,0,0,,0,,,72,127
18871,note_on,3,0,0,,11,,,70,127
18994,note_off,123,0,0,,3,,,51,127
18997,note_off,3,0,0,,11,,,70,127
19000,note_on,3,0,0,,5,,,53,127
19000,note_on,0,0,0,,10,,,69,127
19125,note_off,125,0,0,,10,,,69,127
19128,note_on,3,0,0,,3,,,75,127
19251,note_off,123,0,0,,5,,,77,127
19251,note_off,0,0,0,,0,,,60,127
19254,note_off,3,0,0,,3,,,75,127
19257,note_on,3,0,0,,2,,,62,127
19257,note_on,0,0,0,,5,,,77,127
19257,note_on,0,0,0,,2,,,74,127
19382,note_off,125,0,0,,2,,,74,127
19385,note_on,3,0,0,,0,,,72,127
19508,note_off,123,0,0,,5,,,53,127
19511,note_off,3,0,0,,0,,,72,127
19514,note_on,3,0,0,,7,,,55,127
19514,note_on,0,0,0,,11,,,70,127
19639,note_off,125,0,0,,11,,,70,127
19639,note_off,0,0,0,,5,,,77,127
19642,note_on,3,0,0,,5,,,77,127
19765,note_off,123,0,0,,2,,,62,127
19768,note_off,3,0,0,,5,,,77,127
19771,note_on,3,0,0,,3,,,63,127
19771,note_on,0,0,0,,5,,,77,127
19771,note_on,0,0,0,,3,,,75,127
19896,note_off,125,0,0,,3,,,75,127
19899,note_on,3,0,0,,2,,,74,127
20022,note_off,123,0,0,,7,,,55,127
20025,note_off,3,0,0,,2,,,74,127
20028,note_on,3,0,0,,10,,,57,127
20028,note_on,0,0,0,,0,,,72,127
20153,note_off,125,0,0,,0,,,72,127
20156,note_off,3,0,0,,5,,,77,127
20156,note_on,0,0,0,,7,,,79,127
20279,note_off,123,0,0,,3,,,63,127
20282,note_off,3,0,0,,7,,,79,127
20285,note_on,3,0,0,,5,,,65,127
20285,note_on,0,0,0,,0,,,84,127
20285,note_on,0,0,0,,5,,,77,127
20410,note_off,125,0,0,,5,,,77,127
20413,note_on,3,0,0,,3,,,75,127
20536,note_off,123,0,0,,10,,,57,127
20539,note_off,3,0,0,,3,,,75,127
20539,note_off,0,0,0,,5,,,65,127
20542,note_on,3,0,0,,11,,,58,127
20542,note_on,0,0,0,,2,,,74,127
20667,note_off,125,0,0,,0,,,84,127
20670,note_on,3,0,0,,11,,,82,127
20795,note_off,125,0,0,,11,,,82,127
20798,note_on,3,0,0,,11,,,46,127
20798,note_on,0,0,0,,0,,,84,127
20923,note_off,125,0,0,,0,,,84,127
20926,note_off,3,0,0,,2,,,74,127
20926,note_on,0,0,0,,10,,,81,127
21051,note_off,125,0,0,,10,,,81,127
21054,note_on,3,0,0,,11,,,82,127
21179,note_off,125,0,0,,11,,,82,127
21182,note_off,3,0,0,,11,,,46,127
21182,note_off,0,0,0,,11,,,58,127
21182,note_on,0,0,0,,10,,,81,127
21307,note_off,125,0,0,,10,,,81,127
21310,note_on,3,0,0,,2,,,50,127
21310,note_on,0,0,0,,7,,,79,127
21435,note_off,125,0,0,,7,,,79,127
21438,note_on,3,0,0,,5,,,77,127
21563,note_off,125,0,0,,5,,,77,127
21563,note_off,0,0,0,,2,,,50,127
21566,note_on,3,0,0,,3,,,51,127
21566,note_on,0,0,0,,5,,,77,127
21691,note_off,125,0,0,,5,,,77,127
21694,note_on,3,0,0,,7,,,79,127
21819,note_off,125,0,0,,7,,,79,127
21822,note_on,3,0,0,,3,,,63,127
21822,note_on,0,0,0,,5,,,77,127
21913,note_off,91,0,0,,3,,,51,127
21948,note_off,35,0,0,,5,,,77,127
21951,note_on,3,0,0,,3,,,75,127
22076,note_off,125,0,0,,3,,,75,127
22076,note_off,0,0,0,,3,,,63,127
22079,note_on,3,0,0,,5,,,65,127
22079,note_on,0,0,0,,2,,,74,127
22204,note_off,125,0,0,,2,,,74,127
22207,note_on,3,0,0,,0,,,72,127
22332,note_off,125,0,0,,0,,,72,127
22335,note_on,3,0,0,,5,,,53,127
22335,note_on,0,0,0,,11,,,70,127
22460,note_off,125,0,0,,11,,,70,127
22463,note_on,3,0,0,,10,,,69,127
22586,note_off,123,0,0,,5,,,65,127
22589,note_off,3,0,0,,10,,,69,127
22589,note_off,0,0,0,,5,,,53,127
22592,note_on,3,0,0,,11,,,58,127
22592,note_on,0,0,0,,11,,,70,127
22717,note_off,125,0,0,,11,,,70,127
22720,note_on,3,0,0,,0,,,72,127
22845,note_off,125,0,0,,0,,,72,127
22848,note_on,3,0,0,,2,,,74,127
22973,note_off,125,0,0,,2,,,74,127
22976,note_on,3,0,0,,3,,,75,127
23101,note_off,125,0,0,,3,,,75,127
23104,note_on,3,0,0,,5,,,77,127
23229,note_off,125,0,0,,5,,,77,127
23232,note_off,3,0,0,,11,,,58,127
23232,note_on,0,0,0,,7,,,79,127
23357,note_off,125,0,0,,7,,,79,127
23360,note_on,3,0,0,,3,,,63,127
23360,note_on,0,0,0,,0,,,60,127
23360,note_on,0,0,0,,5,,,77,127
23485,note_off,125,0,0,,5,,,77,127
23488,note_on,3,0,0,,10,,,69,127
23613,note_off,125,0,0,,10,,,69,127
23613,note_off,0,0,0,,0,,,60,127
23613,note_off,0,0,0,,3,,,63,127
23616,note_on,3,0,0,,5,,,65,127
23616,note_on,0,0,0,,2,,,62,127
23616,note_on,0,0,0,,11,,,70,127
23741,note_off,125,0,0,,2,,,62,127
23741,note_off,0,0,0,,5,,,65,127
23744,note_on,3,0,0,,0,,,60,127
23744,note_on,0,0,0,,3,,,63,127
23869,note_off,125,0,0,,3,,,63,127
23869,note_off,0,0,0,,0,,,60,127
23872,note_on,3,0,0,,2,,,62,127
23872,note_on,0,0,0,,5,,,65,127
23997,note_off,125,0,0,,5,,,65,127
23997,note_off,0,0,0,,2,,,62,127
24000,note_on,3,0,0,,3,,,63,127
24000,note_on,0,0,0,,7,,,67,127
24125,note_off,125,0,0,,7,,,67,127
24125,note_off,0,0,0,,3,,,63,127
24128,note_on,3,0,0,,2,,,62,127
24128,note_on,0,0,0,,5,,,65,127
24253,note_off,125,0,0,,5,,,65,127
24253,note_off,0,0,0,,2,,,62,127
24253,note_off,0,0,0,,11,,,70,127
24256,note_on,3,0,0,,3,,,63,127
24256,note_on,0,0,0,,0,,,60,127
24256,note_on,0,0,0,,10,,,69,127
24381,note_off,125,0,0,,10,,,69,127
24381,note_off,0,0,0,,0,,,60,127
24381,note_off,0,0,0,,3,,,63,127
24384,note_on,3,0,0,,11,,,58,127
24384,note_on,0,0,0,,2,,,62,127
24384,note_on,0,0,0,,11,,,70,127
24509,note_off,125,0,0,,11,,,70,127
24509,note_off,0,0,0,,2,,,62,127
24509,note_off,0,0,0,,11,,,58,127
24512,note_on,3,0,0,,0,,,60,127
24512,note_on,0,0,0,,10,,,57,127
24512,note_on,0,0,0,,0,,,72,127
24637,note_off,125,0,0,,0,,,72,127
24637,note_off,0,0,0,,10,,,57,127
24637,note_off,0,0,0,,0,,,60,127
24640,note_on,3,0,0,,11,,,58,127
24640,note_on,0,0,0,,2,,,62,127
24640,note_on,0,0,0,,2,,,74,127
24765,note_off,125,0,0,,2,,,74,127
24768,note_on,3,0,0,,3,,,75,127
24893,note_off,125,0,0,,3,,,75,127
24896,note_on,3,0,0,,5,,,77,127
24896,note_on,0,0,0,,2,,,74,127
25021,note_off,125,0,0,,2,,,74,127
25021,note_off,0,0,0,,5,,,77,127
25024,note_on,3,0,0,,3,,,75,127
25024,note_on,0,0,0,,7,,,79,127
25149,note_off,125,0,0,,7,,,79,127
25149,note_off,0,0,0,,3,,,75,127
25152,note_on,3,0,0,,5,,,77,127
25152,note_on,0,0,0,,2,,,74,127
25277,note_off,125,0,0,,2,,,74,127
25277,note_off,0,0,0,,5,,,77,127
25280,note_off,3,0,0,,2,,,62,127
25280,note_off,0,0,0,,11,,,58,127
25280,note_on,0,0,0,,0,,,72,127
25280,note_on,0,0,0,,3,,,75,127
25405,note_off,125,0,0,,3,,,75,127
25405,note_off,0,0,0,,0,,,72,127
25408,note_on,3,0,0,,0,,,60,127
25408,note_on,0,0,0,,3,,,63,127
25408,note_on,0,0,0,,2,,,74,127
25408,note_on,0,0,0,,11,,,70,127
25533,note_off,125,0,0,,11,,,70,127
25533,note_off,0,0,0,,2,,,74,127
25536,note_on,3,0,0,,0,,,72,127
25536,note_on,0,0,0,,10,,,69,127
25661,note_off,125,0,0,,10,,,69,127
25661,note_off,0,0,0,,0,,,72,127
25661,note_off,0,0,0,,3,,,63,127
25661,note_off,0,0,0,,0,,,60,127
25664,note_on,3,0,0,,2,,,62,127
25664,note_on,0,0,0,,5,,,65,127
25664,note_on,0,0,0,,11,,,70,127
25789,note_off,125,0,0,,5,,,65,127
25789,note_off,0,0,0,,2,,,62,127
25792,note_on,3,0,0,,0,,,60,127
25792,note_on,0,0,0,,3,,,63,127
25917,note_off,125,0,0,,3,,,63,127
25917,note_off,0,0,0,,0,,,60,127
25920,note_on,3,0,0,,2,,,62,127
25920,note_on,0,0,0,,5,,,65,127
26045,note_off,125,0,0,,5,,,65,127
26045,note_off,0,0,0,,2,,,62,127
26048,note_on,3,0,0,,3,,,63,127
26048,note_on,0,0,0,,7,,,67,127
26173,note_off,125,0,0,,7,,,67,127
26173,note_off,0,0,0,,3,,,63,127
26176,note_on,3,0,0,,2,,,62,127
26176,note_on,0,0,0,,5,,,65,127
26301,note_off,125,0,0,,5,,,65,127
26301,note_off,0,0,0,,2,,,62,127
26301,note_off,0,0,0,,11,,,70,127
26304,note_on,3,0,0,,3,,,63,127
26304,note_on,0,0,0,,0,,,60,127
26304,note_on,0,0,0,,10,,,69,127
26429,note_off,125,0,0,,10,,,69,127
26429,note_off,0,0,0,,0,,,60,127
26429,note_off,0,0,0,,3,,,63,127
26432,note_on,3,0,0,,2,,,62,127
26432,note_on,0,0,0,,11,,,58,127
26432,note_on,0,0,0,,11,,,70,127
26557,note_off,125,0,0,,11,,,70,127
26557,note_off,0,0,0,,11,,,58,127
26557,note_off,0,0,0,,2,,,62,127
26560,note_on,3,0,0,,10,,,57,127
26560,note_on,0,0,0,,0,,,60,127
26560,note_on,0,0,0,,0,,,72,127
26685,note_off,125,0,0,,0,,,72,127
26685,note_off,0,0,0,,0,,,60,127
26685,note_off,0,0,0,,10,,,57,127
26688,note_on,3,0,0,,11,,,58,127
26688,note_on,0,0,0,,2,,,62,127
26688,note_on,0,0,0,,2,,,74,127
26813,note_off,125,0,0,,2,,,74,127
26816,note_on,3,0,0,,3,,,75,127
26941,note_off,125,0,0,,3,,,75,127
26944,note_on,3,0,0,,2,,,74,127
26944,note_on,0,0,0,,5,,,77,127
27069,note_off,125,0,0,,5,,,77,127
27069,note_off,0,0,0,,2,,,74,127
27072,note_on,3,0,0,,3,,,75,127
27072,note_on,0,0,0,,7,,,79,127
27197,note_off,125,0,0,,7,,,79,127
27197,note_off,0,0,0,,3,,,75,127
27200,note_on,3,0,0,,5,,,77,127
27200,note_on,0,0,0,,2,,,74,127
27325,note_off,125,0,0,,2,,,74,127
27325,note_off,0,0,0,,5,,,77,127
27328,note_off,3,0,0,,2,,,62,127
27328,note_off,0,0,0,,11,,,58,127
27328,note_on,0,0,0,,3,,,75,127
27328,note_on,0,0,0,,0,,,72,127
27453,note_off,125,0,0,,0,,,72,127
27453,note_off,0,0,0,,3,,,75,127
27456,note_on,3,0,0,,3,,,63,127
27456,note_on,0,0,0,,0,,,60,127
27456,note_on,0,0,0,,2,,,74,127
27456,note_on,0,0,0,,11,,,70,127
27581,note_off,125,0,0,,11,,,70,127
27581,note_off,0,0,0,,2,,,74,127
27584,note_on,3,0,0,,10,,,69,127
27584,note_on,0,0,0,,0,,,72,127
27709,note_off,125,0,0,,0,,,72,127
27709,note_off,0,0,0,,10,,,69,127
27709,note_off,0,0,0,,0,,,60,127
27709,note_off,0,0,0,,3,,,63,127
27712,note_on,3,0,0,,2,,,62,127
27712,note_on,0,0,0,,5,,,65,127
27712,note_on,0,0,0,,11,,,70,127
27712,note_on,0,0,0,,2,,,74,127
27837,note_off,125,0,0,,2,,,74,127
27837,note_off,0,0,0,,11,,,70,127
27840,note_on,3,0,0,,11,,,82,127
27965,note_off,125,0,0,,11,,,82,127
27965,note_off,0,0,0,,5,,,65,127
27968,note_on,3,0,0,,2,,,50,127
27968,note_on,0,0,0,,11,,,82,127
28093,note_off,125,0,0,,11,,,82,127
28096,note_on,3,0,0,,10,,,81,127
28219,note_off,123,0,0,,2,,,62,127
28222,note_off,3,0,0,,10,,,81,127
28225,note_on,3,0,0,,10,,,81,127
28350,note_off,125,0,0,,10,,,81,127
28353,note_off,3,0,0,,2,,,50,127
28353,note_on,0,0,0,,7,,,79,127
28478,note_off,125,0,0,,7,,,79,127
28481,note_on,3,0,0,,2,,,50,127
28481,note_on,0,0,0,,7,,,79,127
28606,note_off,125,0,0,,7,,,79,127
28609,note_on,3,0,0,,5,,,77,127
28734,note_off,125,0,0,,5,,,77,127
28734,note_off,0,0,0,,2,,,50,127
28737,note_on,3,0,0,,3,,,51,127
28737,note_on,0,0,0,,5,,,77,127
28862,note_off,125,0,0,,5,,,77,127
28865,note_on,3,0,0,,7,,,79,127
28990,note_off,125,0,0,,7,,,79,127
28990,note_off,0,0,0,,3,,,51,127
28993,note_on,3,0,0,,3,,,63,127
28993,note_on,0,0,0,,5,,,77,127
29118,note_off,125,0,0,,5,,,77,127
29121,note_on,3,0,0,,3,,,75,127
29246,note_off,125,0,0,,3,,,75,127
29246,note_off,0,0,0,,3,,,63,127
29249,note_on,3,0,0,,5,,,65,127
29249,note_on,0,0,0,,2,,,74,127
29374,note_off,125,0,0,,2,,,74,127
29377,note_on,3,0,0,,0,,,72,127
29502,note_off,125,0,0,,0,,,72,127
29502,note_off,0,0,0,,5,,,65,127
29505,note_on,3,0,0,,5,,,53,127
29505,note_on,0,0,0,,11,,,70,127
29630,note_off,125,0,0,,11,,,70,127
29633,note_on,3,0,0,,10,,,69,127
29758,note_off,125,0,0,,10,,,69,127
29758,note_off,0,0,0,,5,,,53,127
29761,note_on,3,0,0,,11,,,58,127
29761,note_on,0,0,0,,11,,,70,127
29886,note_off,125,0,0,,11,,,70,127
29889,note_on,3,0,0,,11,,,82,127
30014,note_off,125,0,0,,11,,,82,127
30014,note_off,0,0,0,,11,,,58,127
30017,note_on,3,0,0,,11,,,58,127
30017,note_on,0,0,0,,2,,,74,127
30142,note_off,125,0,0,,2,,,74,127
30145,note_on,3,0,0,,4,,,76,127
30270,note_off,125,0,0,,4,,,76,127
30270,note_off,0,0,0,,11,,,58,127
30273,note_on,3,0,0,,10,,,57,127
30273,note_on,0,0,0,,5,,,77,127
30398,note_off,125,0,0,,5,,,77,127
30401,note_on,3,0,0,,7,,,79,127
30526,note_off,125,0,0,,7,,,79,127
30526,note_off,0,0,0,,10,,,57,127
30529,note_on,3,0,0,,3,,,51,127
30529,note_on,0,0,0,,7,,,67,127
30654,note_off,125,0,0,,7,,,67,127
30657,note_on,3,0,0,,10,,,69,127
30782,note_off,125,0,0,,10,,,69,127
30782,note_off,0,0,0,,3,,,51,127
30785,note_on,3,0,0,,2,,,50,127
30785,note_on,0,0,0,,11,,,70,127
30910,note_off,125,0,0,,11,,,70,127
30913,note_on,3,0,0,,3,,,75,127
31038,note_off,125,0,0,,3,,,75,127
31038,note_off,0,0,0,,2,,,50,127
31041,note_on,3,0,0,,3,,,51,127
31041,note_on,0,0,0,,5,,,77,127
31166,note_off,125,0,0,,5,,,77,127
31169,note_on,3,0,0,,7,,,79,127
31294,note_off,125,0,0,,7,,,79,127
31294,note_off,0,0,0,,3,,,51,127
31297,note_on,3,0,0,,5,,,53,127
31297,note_on,0,0,0,,5,,,77,127
31422,note_off,125,0,0,,5,,,77,127
31425,note_on,3,0,0,,3,,,75,127
31550,note_off,125,0,0,,3,,,75,127
31553,note_on,3,0,0,,5,,,41,127
31553,note_on,0,0,0,,2,,,74,127
31678,note_off,125,0,0,,2,,,74,127
31681,note_on,3,0,0,,0,,,72,127
31804,note_off,123,0,0,,5,,,53,127
31807,note_off,3,0,0,,0,,,72,127
31807,note_off,0,0,0,,5,,,41,127
31810,note_on,3,0,0,,11,,,46,127
31810,note_on,0,0,0,,11,,,70,127
31935,note_off,125,0,0,,11,,,70,127
31938,note_on,3,0,0,,11,,,82,127
32063,note_off,125,0,0,,11,,,82,127
32063,note_off,0,0,0,,11,,,46,127
32066,note_on,3,0,0,,11,,,58,127
32066,note_on,0,0,0,,2,,,74,127
32191,note_off,125,0,0,,2,,,74,127
32194,note_on,3,0,0,,4,,,76,127
32319,note_off,125,0,0,,4,,,76,127
32319,note_off,0,0,0,,11,,,58,127
32322,note_on,3,0,0,,10,,,57,127
32322,note_on,0,0,0,,5,,,77,127
32447,note_off,125,0,0,,5,,,77,127
32450,note_on,3,0,0,,7,,,79,127
32575,note_off,125,0,0,,7,,,79,127
32575,note_off,0,0,0,,10,,,57,127
32578,note_on,3,0,0,,3,,,51,127
32578,note_on,0,0,0,,7,,,67,127
32703,note_off,125,0,0,,7,,,67,127
32706,note_on,3,0,0,,10,,,69,127
32831,note_off,125,0,0,,10,,,69,127
32831,note_off,0,0,0,,3,,,51,127
32834,note_on,3,0,0,,2,,,50,127
32834,note_on,0,0,0,,11,,,70,127
32959,note_off,125,0,0,,11,,,70,127
32962,note_on,3,0,0,,3,,,75,127
33087,note_off,125,0,0,,3,,,75,127
33087,note_off,0,0,0,,2,,,50,127
33090,note_on,3,0,0,,3,,,51,127
33090,note_on,0,0,0,,5,,,77,127
33215,note_off,125,0,0,,5,,,77,127
33218,note_on,3,0,0,,7,,,79,127
33343,note_off,125,0,0,,7,,,79,127
33343,note_off,0,0,0,,3,,,51,127
33346,note_on,3,0,0,,5,,,53,127
33346,note_on,0,0,0,,5,,,77,127
33471,note_off,125,0,0,,5,,,77,127
33474,note_on,3,0,0,,3,,,75,127
33599,note_off,125,0,0,,3,,,75,127
33599,note_off,0,0,0,,5,,,53,127
33602,note_on,3,0,0,,5,,,53,127
33602,note_on,0,0,0,,2,,,74,127
33727,note_off,125,0,0,,2,,,74,127
33730,note_on,3,0,0,,0,,,72,127
33855,note_off,125,0,0,,0,,,72,127
33855,note_off,0,0,0,,5,,,53,127
33858,note_on,3,0,0,,7,,,55,127
33858,note_on,0,0,0,,11,,,70,127
33986,note_on,128,0,0,,3,,,63,127
34111,note_off,125,0,0,,3,,,63,127
34111,note_off,0,0,0,,7,,,55,127
34114,note_on,3,0,0,,3,,,51,127
34114,note_on,0,0,0,,5,,,65,127
34239,note_off,125,0,0,,5,,,65,127
34242,note_on,3,0,0,,7,,,67,127
34367,note_off,125,0,0,,7,,,67,127
34367,note_off,0,0,0,,3,,,51,127
34370,note_on,3,0,0,,5,,,53,127
34370,note_on,0,0,0,,5,,,65,127
34495,note_off,125,0,0,,5,,,65,127
34498,note_on,3,0,0,,3,,,63,127
34623,note_off,125,0,0,,3,,,63,127
34624,note_off,1,0,0,,11,,,70,127
34625,note_on,1,0,0,,5,,,41,127
34625,note_on,0,0,0,,10,,,69,127
34625,note_on,0,0,0,,2,,,62,127
34750,note_off,125,0,0,,2,,,62,127
34753,note_on,3,0,0,,0,,,60,127
34876,note_off,123,0,0,,5,,,53,127
34879,note_off,3,0,0,,0,,,60,127
34879,note_off,0,0,0,,10,,,69,127
34879,note_off,0,0,0,,5,,,41,127
34882,note_on,3,0,0,,11,,,46,127
34882,note_on,0,0,0,,11,,,70,127
34882,note_on,0,0,0,,11,,,58,127
35815,note_off,933,0,0,,11,,,46,127
35903,note_off,88,0,0,,11,,,58,127
35903,note_off,0,0,0,,11,,,70,127
35906,note_on,3,0,0,,11,,,58,127
36034,note_on,128,0,0,,2,,,74,127
36162,note_on,128,0,0,,2,,,62,127
36162,note_on,0,0,0,,5,,,65,127
36287,note_off,125,0,0,,5,,,65,127
36287,note_off,0,0,0,,2,,,62,127
36290,note_on,3,0,0,,3,,,63,127
36290,note_on,0,0,0,,7,,,67,127
36415,note_off,125,0,0,,7,,,67,127
36415,note_off,0,0,0,,3,,,63,127
36418,note_on,3,0,0,,5,,,65,127
36418,note_on,0,0,0,,8,,,68,127
36541,note_off,123,0,0,,2,,,74,127
36544,note_off,3,0,0,,8,,,68,127
36544,note_off,0,0,0,,5,,,65,127
36547,note_on,3,0,0,,5,,,65,127
36547,note_on,0,0,0,,8,,,68,127
36672,note_off,125,0,0,,8,,,68,127
36672,note_off,0,0,0,,5,,,65,127
36675,note_on,3,0,0,,3,,,63,127
36675,note_on,0,0,0,,7,,,67,127
36800,note_off,125,0,0,,7,,,67,127
36800,note_off,0,0,0,,3,,,63,127
36803,note_on,3,0,0,,2,,,62,127
36803,note_on,0,0,0,,5,,,65,127
36928,note_off,125,0,0,,5,,,65,127
36928,note_off,0,0,0,,2,,,62,127
36929,note_off,1,0,0,,11,,,58,127
36930,note_on,1,0,0,,11,,,58,127
36930,note_on,0,0,0,,7,,,67,127
37058,note_on,128,0,0,,3,,,75,127
37183,note_off,125,0,0,,7,,,67,127
37186,note_on,3,0,0,,3,,,63,127
37186,note_on,0,0,0,,7,,,67,127
37311,note_off,125,0,0,,7,,,67,127
37311,note_off,0,0,0,,3,,,63,127
37314,note_on,3,0,0,,5,,,65,127
37314,note_on,0,0,0,,8,,,68,127
37439,note_off,125,0,0,,8,,,68,127
37439,note_off,0,0,0,,5,,,65,127
37442,note_on,3,0,0,,7,,,67,127
37442,note_on,0,0,0,,11,,,70,127
37565,note_off,123,0,0,,3,,,75,127
37568,note_off,3,0,0,,11,,,70,127
37568,note_off,0,0,0,,7,,,67,127
37571,note_on,3,0,0,,7,,,67,127
37571,note_on,0,0,0,,11,,,70,127
37696,note_off,125,0,0,,11,,,70,127
37696,note_off,0,0,0,,7,,,67,127
37699,note_on,3,0,0,,5,,,65,127
37699,note_on,0,0,0,,8,,,68,127
37824,note_off,125,0,0,,8,,,68,127
37824,note_off,0,0,0,,5,,,65,127
37827,note_on,3,0,0,,3,,,63,127
37827,note_on,0,0,0,,7,,,67,127
37952,note_off,125,0,0,,7,,,67,127
37952,note_off,0,0,0,,3,,,63,127
37953,note_off,1,0,0,,11,,,58,127
37954,note_on,1,0,0,,11,,,58,127
37954,note_on,0,0,0,,8,,,68,127
38082,note_on,128,0,0,,5,,,77,127
38207,note_off,125,0,0,,8,,,68,127
38210,note_on,3,0,0,,2,,,62,127
38210,note_on,0,0,0,,5,,,65,127
38335,note_off,125,0,0,,5,,,65,127
38335,note_off,0,0,0,,2,,,62,127
38338,note_on,3,0,0,,3,,,63,127
38338,note_on,0,0,0,,7,,,67,127
38463,note_off,125,0,0,,7,,,67,127
38463,note_off,0,0,0,,3,,,63,127
38466,note_on,3,0,0,,5,,,65,127
38466,note_on,0,0,0,,8,,,68,127
38589,note_off,123,0,0,,5,,,77,127
38592,note_off,3,0,0,,8,,,68,127
38592,note_off,0,0,0,,5,,,65,127
38595,note_on,3,0,0,,5,,,65,127
38595,note_on,0,0,0,,8,,,68,127
38720,note_off,125,0,0,,8,,,68,127
38720,note_off,0,0,0,,5,,,65,127
38723,note_on,3,0,0,,3,,,63,127
38723,note_on,0,0,0,,7,,,67,127
38848,note_off,125,0,0,,7,,,67,127
38848,note_off,0,0,0,,3,,,63,127
38851,note_on,3,0,0,,2,,,62,127
38851,note_on,0,0,0,,5,,,65,127
38976,note_off,125,0,0,,5,,,65,127
38976,note_off,0,0,0,,2,,,62,127
38977,note_off,1,0,0,,11,,,58,127
38978,note_on,1,0,0,,11,,,58,127
38978,note_on,0,0,0,,7,,,67,127
39106,note_on,128,0,0,,7,,,79,127
39231,note_off,125,0,0,,7,,,67,127
39234,note_on,3,0,0,,3,,,63,127
39234,note_on,0,0,0,,7,,,67,127
39359,note_off,125,0,0,,7,,,67,127
39359,note_off,0,0,0,,3,,,63,127
39362,note_on,3,0,0,,5,,,65,127
39362,note_on,0,0,0,,8,,,68,127
39487,note_off,125,0,0,,8,,,68,127
39487,note_off,0,0,0,,5,,,65,127
39490,note_on,3,0,0,,7,,,67,127
39490,note_on,0,0,0,,11,,,70,127
39613,note_off,123,0,0,,7,,,79,127
39616,note_off,3,0,0,,11,,,70,127
39616,note_off,0,0,0,,7,,,67,127
39619,note_on,3,0,0,,7,,,67,127
39619,note_on,0,0,0,,11,,,70,127
39744,note_off,125,0,0,,11,,,70,127
39744,note_off,0,0,0,,7,,,67,127
39747,note_on,3,0,0,,5,,,65,127
39747,note_on,0,0,0,,8,,,68,127
39872,note_off,125,0,0,,8,,,68,127
39872,note_off,0,0,0,,5,,,65,127
39875,note_on,3,0,0,,3,,,63,127
39875,note_on,0,0,0,,7,,,67,127
40000,note_off,125,0,0,,7,,,67,127
40000,note_off,0,0,0,,3,,,63,127
40001,note_off,1,0,0,,11,,,58,127
40002,note_on,1,0,0,,11,,,58,127
40002,note_on,0,0,0,,5,,,65,127
40127,note_off,125,0,0,,5,,,65,127
40130,note_on,3,0,0,,7,,,79,127
40255,note_off,125,0,0,,7,,,79,127
40258,note_on,3,0,0,,7,,,79,127
40383,note_off,125,0,0,,7,,,79,127
40386,note_on,3,0,0,,5,,,77,127
40511,note_off,125,0,0,,5,,,77,127
40514,note_on,3,0,0,,7,,,67,127
40514,note_on,0,0,0,,5,,,77,127
40639,note_off,125,0,0,,5,,,77,127
40642,note_on,3,0,0,,3,,,75,127
40767,note_off,125,0,0,,3,,,75,127
40770,note_on,3,0,0,,3,,,75,127
40895,note_off,125,0,0,,3,,,75,127
40898,note_on,3,0,0,,2,,,74,127
41023,note_off,125,0,0,,2,,,74,127
41024,note_off,1,0,0,,11,,,58,127
41025,note_on,1,0,0,,8,,,56,127
41025,note_on,0,0,0,,2,,,74,127
41150,note_off,125,0,0,,2,,,74,127
41153,note_on,3,0,0,,0,,,72,127
41278,note_off,125,0,0,,0,,,72,127
41281,note_on,3,0,0,,0,,,72,127
41406,note_off,125,0,0,,0,,,72,127
41409,note_on,3,0,0,,12,,,71,127
41534,note_off,125,0,0,,12,,,71,127
41535,note_off,1,0,0,,7,,,67,127
41536,note_on,1,0,0,,5,,,65,127
41536,note_on,0,0,0,,12,,,71,127
41661,note_off,125,0,0,,12,,,71,127
41664,note_on,3,0,0,,0,,,72,127
41789,note_off,125,0,0,,0,,,72,127
41792,note_on,3,0,0,,2,,,74,127
41853,note_off,61,0,0,,2,,,74,127
41856,note_on,3,0,0,,0,,,72,127
41917,note_off,61,0,0,,0,,,72,127
41920,note_on,3,0,0,,12,,,71,127
41981,note_off,61,0,0,,12,,,71,127
41984,note_on,3,0,0,,0,,,72,127
42045,note_off,61,0,0,,0,,,72,127
42045,note_off,0,0,0,,5,,,65,127
42046,note_off,1,0,0,,8,,,56,127
42047,note_on,1,0,0,,7,,,55,127
42047,note_on,0,0,0,,2,,,74,127
42172,note_off,125,0,0,,2,,,74,127
42175,note_on,3,0,0,,2,,,74,127
42303,note_on,128,0,0,,12,,,59,127
42303,note_on,0,0,0,,2,,,62,127
42428,note_off,125,0,0,,2,,,62,127
42428,note_off,0,0,0,,12,,,59,127
42431,note_on,3,0,0,,0,,,60,127
42431,note_on,0,0,0,,3,,,63,127
42556,note_off,125,0,0,,3,,,63,127
42556,note_off,0,0,0,,0,,,60,127
42559,note_on,3,0,0,,2,,,62,127
42559,note_on,0,0,0,,5,,,65,127
42682,note_off,123,0,0,,2,,,74,127
42685,note_off,3,0,0,,5,,,65,127
42685,note_off,0,0,0,,2,,,62,127
42688,note_on,3,0,0,,2,,,62,127
42688,note_on,0,0,0,,5,,,65,127
42813,note_off,125,0,0,,5,,,65,127
42813,note_off,0,0,0,,2,,,62,127
42816,note_on,3,0,0,,0,,,60,127
42816,note_on,0,0,0,,3,,,63,127
42941,note_off,125,0,0,,3,,,63,127
42941,note_off,0,0,0,,0,,,60,127
42944,note_on,3,0,0,,12,,,59,127
42944,note_on,0,0,0,,2,,,62,127
43069,note_off,125,0,0,,2,,,62,127
43069,note_off,0,0,0,,12,,,59,127
43070,note_off,1,0,0,,7,,,55,127
43071,note_on,1,0,0,,7,,,55,127
43071,note_on,0,0,0,,3,,,63,127
43199,note_on,128,0,0,,0,,,72,127
43324,note_off,125,0,0,,3,,,63,127
43327,note_on,3,0,0,,0,,,60,127
43327,note_on,0,0,0,,3,,,63,127
43452,note_off,125,0,0,,3,,,63,127
43452,note_off,0,0,0,,0,,,60,127
43455,note_on,3,0,0,,2,,,62,127
43455,note_on,0,0,0,,5,,,65,127
43580,note_off,125,0,0,,5,,,65,127
43580,note_off,0,0,0,,2,,,62,127
43583,note_on,3,0,0,,3,,,63,127
43583,note_on,0,0,0,,7,,,67,127
43706,note_off,123,0,0,,0,,,72,127
43709,note_off,3,0,0,,7,,,67,127
43709,note_off,0,0,0,,3,,,63,127
43712,note_on,3,0,0,,3,,,63,127
43712,note_on,0,0,0,,7,,,67,127
43837,note_off,125,0,0,,7,,,67,127
43837,note_off,0,0,0,,3,,,63,127
43840,note_on,3,0,0,,2,,,62,127
43840,note_on,0,0,0,,5,,,65,127
43965,note_off,125,0,0,,5,,,65,127
43965,note_off,0,0,0,,2,,,62,127
43968,note_on,3,0,0,,0,,,60,127
43968,note_on,0,0,0,,3,,,63,127
44093,note_off,125,0,0,,3,,,63,127
44093,note_off,0,0,0,,0,,,60,127
44094,note_off,1,0,0,,7,,,55,127
44095,note_on,1,0,0,,7,,,55,127
44095,note_on,0,0,0,,5,,,65,127
44223,note_on,128,0,0,,2,,,74,127
44348,note_off,125,0,0,,5,,,65,127
44351,note_on,3,0,0,,2,,,62,127
44351,note_on,0,0,0,,5,,,65,127
44476,note_off,125,0,0,,5,,,65,127
44476,note_off,0,0,0,,2,,,62,127
44479,note_on,3,0,0,,3,,,63,127
44479,note_on,0,0,0,,7,,,67,127
44604,note_off,125,0,0,,7,,,67,127
44604,note_off,0,0,0,,3,,,63,127
44607,note_on,3,0,0,,5,,,65,127
44607,note_on,0,0,0,,8,,,68,127
44730,note_off,123,0,0,,2,,,74,127
44733,note_off,3,0,0,,8,,,68,127
44733,note_off,0,0,0,,5,,,65,127
44736,note_on,3,0,0,,5,,,65,127
44736,note_on,0,0,0,,8,,,68,127
44861,note_off,125,0,0,,8,,,68,127
44861,note_off,0,0,0,,5,,,65,127
44864,note_on,3,0,0,,3,,,63,127
44864,note_on,0,0,0,,7,,,67,127
44989,note_off,125,0,0,,7,,,67,127
44989,note_off,0,0,0,,3,,,63,127
44992,note_on,3,0,0,,2,,,62,127
44992,note_on,0,0,0,,5,,,65,127
45117,note_off,125,0,0,,5,,,65,127
45117,note_off,0,0,0,,2,,,62,127
45118,note_off,1,0,0,,7,,,55,127
45119,note_on,1,0,0,,7,,,55,127
45119,note_on,0,0,0,,7,,,67,127
45247,note_on,128,0,0,,3,,,75,127
45372,note_off,125,0,0,,7,,,67,127
45375,note_on,3,0,0,,0,,,60,127
45375,note_on,0,0,0,,3,,,63,127
45500,note_off,125,0,0,,3,,,63,127
45500,note_off,0,0,0,,0,,,60,127
45503,note_on,3,0,0,,2,,,62,127
45503,note_on,0,0,0,,5,,,65,127
45628,note_off,125,0,0,,5,,,65,127
45628,note_off,0,0,0,,2,,,62,127
45631,note_on,3,0,0,,3,,,63,127
45631,note_on,0,0,0,,7,,,67,127
45754,note_off,123,0,0,,3,,,75,127
45757,note_off,3,0,0,,7,,,67,127
45757,note_off,0,0,0,,3,,,63,127
45760,note_on,3,0,0,,3,,,63,127
45760,note_on,0,0,0,,7,,,67,127
45885,note_off,125,0,0,,7,,,67,127
45885,note_off,0,0,0,,3,,,63,127
45888,note_on,3,0,0,,2,,,62,127
45888,note_on,0,0,0,,5,,,65,127
46013,note_off,125,0,0,,5,,,65,127
46013,note_off,0,0,0,,2,,,62,127
46016,note_on,3,0,0,,0,,,60,127
46016,note_on,0,0,0,,3,,,63,127
46141,note_off,125,0,0,,3,,,63,127
46141,note_off,0,0,0,,0,,,60,127
46142,note_off,1,0,0,,7,,,55,127
46143,note_on,1,0,0,,7,,,55,127
46143,note_on,0,0,0,,5,,,65,127
46271,note_on,128,0,0,,5,,,77,127
46396,note_off,125,0,0,,5,,,65,127
46399,note_on,3,0,0,,2,,,62,127
46399,note_on,0,0,0,,5,,,65,127
46524,note_off,125,0,0,,5,,,65,127
46524,note_off,0,0,0,,2,,,62,127
46527,note_on,3,0,0,,3,,,63,127
46527,note_on,0,0,0,,7,,,67,127
46652,note_off,125,0,0,,7,,,67,127
46652,note_off,0,0,0,,3,,,63,127
46655,note_on,3,0,0,,5,,,65,127
46655,note_on,0,0,0,,8,,,68,127
46778,note_off,123,0,0,,5,,,77,127
46781,note_off,3,0,0,,8,,,68,127
46781,note_off,0,0,0,,5,,,65,127
46784,note_on,3,0,0,,5,,,65,127
46784,note_on,0,0,0,,8,,,68,127
46909,note_off,125,0,0,,8,,,68,127
46909,note_off,0,0,0,,5,,,65,127
46912,note_on,3,0,0,,3,,,63,127
46912,note_on,0,0,0,,7,,,67,127
47037,note_off,125,0,0,,7,,,67,127
47037,note_off,0,0,0,,3,,,63,127
47040,note_on,3,0,0,,2,,,62,127
47040,note_on,0,0,0,,5,,,65,127
47165,note_off,125,0,0,,5,,,65,127
47165,note_off,0,0,0,,2,,,62,127
47166,note_off,1,0,0,,7,,,55,127
47167,note_on,1,0,0,,7,,,55,127
47167,note_on,0,0,0,,3,,,63,127
47167,note_on,0,0,0,,7,,,67,127
47295,note_on,128,0,0,,7,,,79,127
47420,note_off,125,0,0,,7,,,79,127
47420,note_off,0,0,0,,7,,,67,127
47423,note_on,3,0,0,,7,,,79,127
47548,note_off,125,0,0,,7,,,79,127
47551,note_on,3,0,0,,5,,,77,127
47676,note_off,125,0,0,,5,,,77,127
47676,note_off,0,0,0,,3,,,63,127
47679,note_on,3,0,0,,7,,,67,127
47679,note_on,0,0,0,,5,,,77,127
47804,note_off,125,0,0,,5,,,77,127
47807,note_on,3,0,0,,3,,,75,127
47932,note_off,125,0,0,,3,,,75,127
47935,note_on,3,0,0,,3,,,75,127
48060,note_off,125,0,0,,3,,,75,127
48063,note_on,3,0,0,,2,,,74,127
48188,note_off,125,0,0,,2,,,74,127
48189,note_off,1,0,0,,7,,,55,127
48190,note_on,1,0,0,,8,,,56,127
48190,note_on,0,0,0,,2,,,74,127
48315,note_off,125,0,0,,2,,,74,127
48318,note_on,3,0,0,,0,,,72,127
48443,note_off,125,0,0,,0,,,72,127
48446,note_on,3,0,0,,0,,,72,127
48571,note_off,125,0,0,,0,,,72,127
48574,note_on,3,0,0,,12,,,71,127
48699,note_off,125,0,0,,12,,,71,127
48700,note_off,1,0,0,,7,,,67,127
48701,note_on,1,0,0,,5,,,65,127
48701,note_on,0,0,0,,12,,,71,127
48826,note_off,125,0,0,,12,,,71,127
48829,note_on,3,0,0,,0,,,72,127
48954,note_off,125,0,0,,0,,,72,127
48957,note_on,3,0,0,,2,,,74,127
49018,note_off,61,0,0,,2,,,74,127
49021,note_on,3,0,0,,0,,,72,127
49082,note_off,61,0,0,,0,,,72,127
49085,note_on,3,0,0,,12,,,71,127
49146,note_off,61,0,0,,12,,,71,127
49149,note_on,3,0,0,,0,,,72,127
49210,note_off,61,0,0,,0,,,72,127
49210,note_off,0,0,0,,5,,,65,127
49211,note_off,1,0,0,,8,,,56,127
49212,note_on,1,0,0,,7,,,55,127
49212,note_on,0,0,0,,2,,,74,127
49337,note_off,125,0,0,,2,,,74,127
49340,note_on,3,0,0,,7,,,79,127
49465,note_off,125,0,0,,7,,,79,127
49468,note_on,3,0,0,,7,,,79,127
49593,note_off,125,0,0,,7,,,79,127
49596,note_on,3,0,0,,5,,,77,127
49721,note_off,125,0,0,,5,,,77,127
49724,note_on,3,0,0,,3,,,63,127
49724,note_on,0,0,0,,5,,,77,127
49849,note_off,125,0,0,,5,,,77,127
49852,note_on,3,0,0,,3,,,75,127
49977,note_off,125,0,0,,3,,,75,127
49980,note_on,3,0,0,,3,,,75,127
50105,note_off,125,0,0,,3,,,75,127
50108,note_on,3,0,0,,2,,,74,127
50233,note_off,125,0,0,,2,,,74,127
50234,note_off,1,0,0,,7,,,55,127
50235,note_on,1,0,0,,8,,,56,127
50235,note_on,0,0,0,,2,,,74,127
50360,note_off,125,0,0,,2,,,74,127
50363,note_on,3,0,0,,0,,,72,127
50488,note_off,125,0,0,,0,,,72,127
50491,note_on,3,0,0,,0,,,72,127
50616,note_off,125,0,0,,0,,,72,127
50619,note_on,3,0,0,,11,,,70,127
50744,note_off,125,0,0,,11,,,70,127
50744,note_off,0,0,0,,8,,,56,127
50745,note_off,1,0,0,,3,,,63,127
50746,note_on,1,0,0,,2,,,62,127
50746,note_on,0,0,0,,11,,,58,127
50746,note_on,0,0,0,,11,,,70,127
50871,note_off,125,0,0,,11,,,70,127
50874,note_on,3,0,0,,8,,,68,127
50999,note_off,125,0,0,,8,,,68,127
51002,note_on,3,0,0,,8,,,68,127
51127,note_off,125,0,0,,8,,,68,127
51130,note_on,3,0,0,,7,,,67,127
51255,note_off,125,0,0,,7,,,67,127
51255,note_off,0,0,0,,11,,,58,127
51255,note_off,0,0,0,,2,,,62,127
51258,note_on,3,0,0,,3,,,51,127
51258,note_on,0,0,0,,7,,,67,127
51383,note_off,125,0,0,,3,,,51,127
51386,note_on,3,0,0,,3,,,63,127
51511,note_off,125,0,0,,3,,,63,127
51514,note_on,3,0,0,,3,,,63,127
51639,note_off,125,0,0,,3,,,63,127
51642,note_on,3,0,0,,1,,,61,127
51767,note_off,125,0,0,,1,,,61,127
51770,note_on,3,0,0,,1,,,61,127
51895,note_off,125,0,0,,1,,,61,127
51895,note_off,0,0,0,,7,,,67,127
51898,note_on,3,0,0,,0,,,60,127
51898,note_on,0,0,0,,8,,,68,127
52023,note_off,125,0,0,,8,,,68,127
52023,note_off,0,0,0,,0,,,60,127
52026,note_on,3,0,0,,0,,,60,127
52026,note_on,0,0,0,,8,,,68,127
52151,note_off,125,0,0,,8,,,68,127
52151,note_off,0,0,0,,0,,,60,127
52154,note_on,3,0,0,,11,,,58,127
52154,note_on,0,0,0,,11,,,70,127
52279,note_off,125,0,0,,11,,,70,127
52279,note_off,0,0,0,,11,,,58,127
52282,note_on,3,0,0,,11,,,58,127
52282,note_on,0,0,0,,11,,,70,127
52407,note_off,125,0,0,,11,,,70,127
52407,note_off,0,0,0,,11,,,58,127
52410,note_on,3,0,0,,8,,,56,127
52410,note_on,0,0,0,,0,,,72,127
52535,note_off,125,0,0,,0,,,72,127
52535,note_off,0,0,0,,8,,,56,127
52538,note_on,3,0,0,,8,,,56,127
52538,note_on,0,0,0,,0,,,72,127
52663,note_off,125,0,0,,0,,,72,127
52663,note_off,0,0,0,,8,,,56,127
52666,note_on,3,0,0,,7,,,55,127
52666,note_on,0,0,0,,1,,,73,127
52791,note_off,125,0,0,,1,,,73,127
52791,note_off,0,0,0,,7,,,55,127
52794,note_on,3,0,0,,7,,,55,127
52794,note_on,0,0,0,,3,,,75,127
52855,note_off,61,0,0,,3,,,75,127
52858,note_on,3,0,0,,1,,,73,127
52919,note_off,61,0,0,,1,,,73,127
52919,note_off,0,0,0,,7,,,55,127
52922,note_on,3,0,0,,5,,,53,127
52922,note_on,0,0,0,,3,,,75,127
52983,note_off,61,0,0,,3,,,75,127
52986,note_on,3,0,0,,1,,,73,127
53047,note_off,61,0,0,,1,,,73,127
53047,note_off,0,0,0,,5,,,53,127
53050,note_on,3,0,0,,3,,,51,127
53050,note_on,0,0,0,,3,,,75,127
53111,note_off,61,0,0,,3,,,75,127
53114,note_on,3,0,0,,1,,,73,127
53175,note_off,61,0,0,,1,,,73,127
53175,note_off,0,0,0,,3,,,51,127
53178,note_on,3,0,0,,7,,,55,127
53178,note_on,0,0,0,,0,,,72,127
53239,note_off,61,0,0,,0,,,72,127
53242,note_on,3,0,0,,11,,,70,127
53303,note_off,61,0,0,,11,,,70,127
53303,note_off,0,0,0,,7,,,55,127
53306,note_on,3,0,0,,8,,,56,127
53306,note_on,0,0,0,,0,,,72,127
53431,note_off,125,0,0,,0,,,72,127
53434,note_on,3,0,0,,11,,,70,127
53559,note_off,125,0,0,,11,,,70,127
53562,note_on,3,0,0,,8,,,68,127
53687,note_off,125,0,0,,8,,,68,127
53690,note_on,3,0,0,,7,,,67,127
53815,note_off,125,0,0,,7,,,67,127
53818,note_on,3,0,0,,8,,,44,127
53818,note_on,0,0,0,,0,,,72,127
53818,note_on,0,0,0,,5,,,65,127
53943,note_off,125,0,0,,5,,,65,127
53946,note_on,3,0,0,,3,,,63,127
54071,note_off,125,0,0,,3,,,63,127
54074,note_on,3,0,0,,2,,,62,127
54199,note_off,125,0,0,,2,,,62,127
54202,note_on,3,0,0,,3,,,63,127
54327,note_off,125,0,0,,3,,,63,127
54327,note_off,0,0,0,,8,,,44,127
54328,note_off,1,0,0,,8,,,56,127
54329,note_on,1,0,0,,11,,,46,127
54329,note_on,0,0,0,,2,,,62,127
54456,note_off,127,0,0,,0,,,72,127
54457,note_on,1,0,0,,0,,,72,127
54582,note_off,125,0,0,,0,,,72,127
54585,note_on,3,0,0,,11,,,70,127
54710,note_off,125,0,0,,11,,,70,127
54713,note_on,3,0,0,,8,,,68,127
54836,note_off,123,0,0,,2,,,62,127
54839,note_off,3,0,0,,8,,,68,127
54839,note_off,0,0,0,,11,,,46,127
54842,note_on,3,0,0,,11,,,58,127
54842,note_on,0,0,0,,7,,,67,127
54970,note_on,128,0,0,,5,,,65,127
55095,note_off,125,0,0,,5,,,65,127
55095,note_off,0,0,0,,7,,,67,127
55098,note_on,3,0,0,,3,,,63,127
55098,note_on,0,0,0,,11,,,70,127
55223,note_off,125,0,0,,3,,,63,127
55226,note_on,3,0,0,,2,,,62,127
55351,note_off,125,0,0,,2,,,62,127
55351,note_off,0,0,0,,11,,,58,127
55354,note_on,3,0,0,,0,,,48,127
55354,note_on,0,0,0,,0,,,60,127
55479,note_off,125,0,0,,0,,,60,127
55479,note_off,0,0,0,,11,,,70,127
55482,note_on,3,0,0,,11,,,70,127
55607,note_off,125,0,0,,11,,,70,127
55610,note_on,3,0,0,,8,,,68,127
55610,note_on,0,0,0,,11,,,70,127
55735,note_off,125,0,0,,8,,,68,127
55738,note_on,3,0,0,,7,,,67,127
55863,note_off,125,0,0,,7,,,67,127
55863,note_off,0,0,0,,0,,,48,127
55866,note_on,3,0,0,,2,,,50,127
55866,note_on,0,0,0,,5,,,65,127
55991,note_off,125,0,0,,5,,,65,127
55994,note_on,3,0,0,,0,,,72,127
56117,note_off,123,0,0,,11,,,70,127
56120,note_off,3,0,0,,0,,,72,127
56123,note_on,3,0,0,,11,,,70,127
56251,note_on,128,0,0,,8,,,68,127
56376,note_off,125,0,0,,8,,,68,127
56376,note_off,0,0,0,,2,,,50,127
56379,note_on,3,0,0,,3,,,51,127
56379,note_on,0,0,0,,7,,,67,127
56504,note_off,125,0,0,,7,,,67,127
56507,note_on,3,0,0,,8,,,68,127
56630,note_off,123,0,0,,11,,,70,127
56633,note_off,3,0,0,,8,,,68,127
56636,note_on,3,0,0,,11,,,70,127
56636,note_on,0,0,0,,7,,,67,127
56761,note_off,125,0,0,,7,,,67,127
56764,note_on,3,0,0,,5,,,65,127
56889,note_off,125,0,0,,5,,,65,127
56892,note_on,3,0,0,,7,,,43,127
56892,note_on,0,0,0,,3,,,63,127
57017,note_off,125,0,0,,3,,,63,127
57020,note_on,3,0,0,,2,,,62,127
57143,note_off,123,0,0,,11,,,70,127
57147,note_off,4,0,0,,2,,,62,127
57148,note_on,1,0,0,,0,,,60,127
57148,note_on,0,0,0,,11,,,70,127
57273,note_off,125,0,0,,0,,,60,127
57276,note_on,3,0,0,,11,,,58,127
57401,note_off,125,0,0,,11,,,58,127
57401,note_off,0,0,0,,7,,,43,127
57404,note_on,3,0,0,,8,,,44,127
57404,note_on,0,0,0,,0,,,60,127
57529,note_off,125,0,0,,0,,,60,127
57532,note_on,3,0,0,,7,,,67,127
57655,note_off,123,0,0,,11,,,70,127
57659,note_off,4,0,0,,7,,,67,127
57660,note_off,1,0,0,,3,,,51,127
57660,note_on,0,0,0,,5,,,53,127
57660,note_on,0,0,0,,5,,,65,127
57660,note_on,0,0,0,,11,,,70,127
57785,note_off,125,0,0,,5,,,65,127
57788,note_on,3,0,0,,3,,,63,127
57911,note_off,123,0,0,,8,,,44,127
57914,note_off,3,0,0,,3,,,63,127
57917,note_on,3,0,0,,11,,,46,127
57917,note_on,0,0,0,,2,,,62,127
58042,note_off,125,0,0,,2,,,62,127
58045,note_on,3,0,0,,8,,,68,127
58168,note_off,123,0,0,,11,,,70,127
58168,note_off,0,0,0,,5,,,53,127
58171,note_off,3,0,0,,8,,,68,127
58174,note_on,3,0,0,,7,,,55,127
58174,note_on,0,0,0,,7,,,67,127
58174,note_on,0,0,0,,11,,,70,127
58299,note_off,125,0,0,,7,,,67,127
58302,note_on,3,0,0,,5,,,65,127
58425,note_off,123,0,0,,11,,,46,127
58428,note_off,3,0,0,,5,,,65,127
58431,note_on,3,0,0,,0,,,48,127
58431,note_on,0,0,0,,3,,,63,127
58548,note_off,117,0,0,,11,,,70,127
58556,note_off,8,0,0,,3,,,63,127
58559,note_on,3,0,0,,11,,,70,127
58682,note_off,123,0,0,,7,,,55,127
58685,note_off,3,0,0,,11,,,70,127
58688,note_on,3,0,0,,8,,,56,127
58688,note_on,0,0,0,,8,,,68,127
58688,note_on,0,0,0,,11,,,70,127
58813,note_off,125,0,0,,8,,,68,127
58816,note_on,3,0,0,,7,,,67,127
58939,note_off,123,0,0,,0,,,48,127
58942,note_off,3,0,0,,7,,,67,127
58945,note_on,3,0,0,,2,,,50,127
58945,note_on,0,0,0,,5,,,65,127
59062,note_off,117,0,0,,11,,,70,127
59070,note_off,8,0,0,,5,,,65,127
59073,note_on,3,0,0,,0,,,72,127
59196,note_off,123,0,0,,8,,,56,127
59199,note_off,3,0,0,,0,,,72,127
59202,note_on,3,0,0,,11,,,58,127
59202,note_on,0,0,0,,11,,,70,127
59202,note_on,0,0,0,,5,,,77,127
59327,note_off,125,0,0,,11,,,70,127
59330,note_on,3,0,0,,8,,,68,127
59453,note_off,123,0,0,,2,,,50,127
59456,note_off,3,0,0,,8,,,68,127
59459,note_on,3,0,0,,3,,,51,127
59459,note_on,0,0,0,,7,,,67,127
59576,note_off,117,0,0,,5,,,77,127
59584,note_off,8,0,0,,7,,,67,127
59587,note_on,3,0,0,,5,,,77,127
59712,note_off,125,0,0,,5,,,77,127
59715,note_on,3,0,0,,7,,,79,127
59840,note_off,125,0,0,,7,,,79,127
59843,note_on,3,0,0,,5,,,77,127
59968,note_off,125,0,0,,5,,,77,127
59968,note_off,0,0,0,,3,,,51,127
59969,note_off,1,0,0,,11,,,58,127
59970,note_on,1,0,0,,7,,,55,127
59970,note_on,0,0,0,,3,,,75,127
60098,note_on,128,0,0,,2,,,74,127
60223,note_off,125,0,0,,2,,,74,127
60223,note_off,0,0,0,,3,,,75,127
60226,note_on,3,0,0,,11,,,82,127
60226,note_on,0,0,0,,0,,,72,127
60351,note_off,125,0,0,,0,,,72,127
60354,note_on,3,0,0,,11,,,70,127
60479,note_off,125,0,0,,11,,,70,127
60479,note_off,0,0,0,,7,,,55,127
60482,note_on,3,0,0,,8,,,56,127
60482,note_on,0,0,0,,0,,,72,127
60599,note_off,117,0,0,,11,,,82,127
60610,note_on,11,0,0,,0,,,84,127
60735,note_off,125,0,0,,0,,,84,127
60735,note_off,0,0,0,,0,,,72,127
60738,note_on,3,0,0,,11,,,82,127
60863,note_off,125,0,0,,11,,,82,127
60866,note_on,3,0,0,,8,,,80,127
60991,note_off,125,0,0,,8,,,80,127
60991,note_off,0,0,0,,8,,,56,127
60994,note_on,3,0,0,,11,,,58,127
60994,note_on,0,0,0,,7,,,79,127
61119,note_off,125,0,0,,7,,,79,127
61122,note_on,3,0,0,,5,,,77,127
61247,note_off,125,0,0,,5,,,77,127
61250,note_on,3,0,0,,11,,,46,127
61250,note_on,0,0,0,,3,,,75,127
61375,note_off,125,0,0,,3,,,75,127
61378,note_on,3,0,0,,2,,,74,127
61501,note_off,123,0,0,,11,,,58,127
61504,note_off,3,0,0,,2,,,74,127
61504,note_off,0,0,0,,11,,,46,127
61507,note_on,3,0,0,,3,,,63,127
61507,note_on,0,0,0,,3,,,75,127
61632,note_off,125,0,0,,3,,,75,127
61635,note_on,3,0,0,,5,,,77,127
61760,note_off,125,0,0,,5,,,77,127
61763,note_on,3,0,0,,7,,,79,127
61888,note_off,125,0,0,,7,,,79,127
61891,note_on,3,0,0,,8,,,80,127
62016,note_off,125,0,0,,8,,,80,127
62019,note_on,3,0,0,,11,,,82,127
62144,note_off,125,0,0,,11,,,82,127
62147,note_off,3,0,0,,3,,,63,127
62147,note_on,0,0,0,,0,,,84,127
62272,note_off,125,0,0,,0,,,84,127
62275,note_on,3,0,0,,5,,,65,127
62275,note_on,0,0,0,,8,,,68,127
62275,note_on,0,0,0,,11,,,82,127
62400,note_off,125,0,0,,11,,,82,127
62403,note_on,3,0,0,,2,,,74,127
62528,note_off,125,0,0,,2,,,74,127
62528,note_off,0,0,0,,8,,,68,127
62528,note_off,0,0,0,,5,,,65,127
62531,note_on,3,0,0,,11,,,70,127
62531,note_on,0,0,0,,7,,,67,127
62531,note_on,0,0,0,,3,,,75,127
62656,note_off,125,0,0,,7,,,67,127
62656,note_off,0,0,0,,11,,,70,127
62659,note_on,3,0,0,,8,,,68,127
62659,note_on,0,0,0,,5,,,65,127
62784,note_off,125,0,0,,5,,,65,127
62784,note_off,0,0,0,,8,,,68,127
62787,note_on,3,0,0,,11,,,70,127
62787,note_on,0,0,0,,7,,,67,127
62912,note_off,125,0,0,,7,,,67,127
62912,note_off,0,0,0,,11,,,70,127
62915,note_on,3,0,0,,8,,,68,127
62915,note_on,0,0,0,,0,,,72,127
63040,note_off,125,0,0,,0,,,72,127
63040,note_off,0,0,0,,8,,,68,127
63043,note_on,3,0,0,,7,,,67,127
63043,note_on,0,0,0,,11,,,70,127
63168,note_off,125,0,0,,11,,,70,127
63168,note_off,0,0,0,,7,,,67,127
63168,note_off,0,0,0,,3,,,75,127
63171,note_on,3,0,0,,8,,,68,127
63171,note_on,0,0,0,,5,,,65,127
63171,note_on,0,0,0,,2,,,74,127
63296,note_off,125,0,0,,2,,,74,127
63296,note_off,0,0,0,,5,,,65,127
63296,note_off,0,0,0,,8,,,68,127
63299,note_on,3,0,0,,7,,,67,127
63299,note_on,0,0,0,,3,,,63,127
63299,note_on,0,0,0,,3,,,75,127
63424,note_off,125,0,0,,3,,,75,127
63424,note_off,0,0,0,,3,,,63,127
63424,note_off,0,0,0,,7,,,67,127
63427,note_on,3,0,0,,5,,,65,127
63427,note_on,0,0,0,,2,,,62,127
63427,note_on,0,0,0,,5,,,77,127
63552,note_off,125,0,0,,5,,,77,127
63552,note_off,0,0,0,,2,,,62,127
63552,note_off,0,0,0,,5,,,65,127
63555,note_on,3,0,0,,7,,,67,127
63555,note_on,0,0,0,,3,,,63,127
63555,note_on,0,0,0,,7,,,79,127
63680,note_off,125,0,0,,7,,,79,127
63683,note_on,3,0,0,,8,,,80,127
63808,note_off,125,0,0,,8,,,80,127
63811,note_on,3,0,0,,11,,,82,127
63811,note_on,0,0,0,,7,,,79,127
63936,note_off,125,0,0,,7,,,79,127
63936,note_off,0,0,0,,11,,,82,127
63939,note_on,3,0,0,,0,,,84,127
63939,note_on,0,0,0,,8,,,80,127
64064,note_off,125,0,0,,8,,,80,127
64064,note_off,0,0,0,,0,,,84,127
64067,note_on,3,0,0,,11,,,82,127
64067,note_on,0,0,0,,7,,,79,127
64192,note_off,125,0,0,,7,,,79,127
64192,note_off,0,0,0,,11,,,82,127
64195,note_off,3,0,0,,3,,,63,127
64195,note_off,0,0,0,,7,,,67,127
64195,note_on,0,0,0,,8,,,80,127
64195,note_on,0,0,0,,5,,,77,127
64320,note_off,125,0,0,,5,,,77,127
64320,note_off,0,0,0,,8,,,80,127
64323,note_on,3,0,0,,8,,,68,127
64323,note_on,0,0,0,,5,,,65,127
64323,note_on,0,0,0,,7,,,79,127
64323,note_on,0,0,0,,3,,,75,127
64448,note_off,125,0,0,,3,,,75,127
64448,note_off,0,0,0,,7,,,79,127
64451,note_on,3,0,0,,2,,,74,127
64451,note_on,0,0,0,,5,,,77,127
64576,note_off,125,0,0,,5,,,77,127
64576,note_off,0,0,0,,2,,,74,127
64576,note_off,0,0,0,,5,,,65,127
64576,note_off,0,0,0,,8,,,68,127
64579,note_on,3,0,0,,11,,,70,127
64579,note_on,0,0,0,,7,,,67,127
64579,note_on,0,0,0,,3,,,75,127
64704,note_off,125,0,0,,7,,,67,127
64704,note_off,0,0,0,,11,,,70,127
64707,note_on,3,0,0,,5,,,65,127
64707,note_on,0,0,0,,8,,,68,127
64832,note_off,125,0,0,,8,,,68,127
64832,note_off,0,0,0,,5,,,65,127
64835,note_on,3,0,0,,7,,,67,127
64835,note_on,0,0,0,,11,,,70,127
64960,note_off,125,0,0,,11,,,70,127
64960,note_off,0,0,0,,7,,,67,127
64963,note_on,3,0,0,,0,,,72,127
64963,note_on,0,0,0,,8,,,68,127
65088,note_off,125,0,0,,8,,,68,127
65088,note_off,0,0,0,,0,,,72,127
65091,note_on,3,0,0,,7,,,67,127
65091,note_on,0,0,0,,11,,,70,127
65216,note_off,125,0,0,,11,,,70,127
65216,note_off,0,0,0,,7,,,67,127
65216,note_off,0,0,0,,3,,,75,127
65219,note_on,3,0,0,,8,,,68,127
65219,note_on,0,0,0,,5,,,65,127
65219,note_on,0,0,0,,2,,,74,127
65344,note_off,125,0,0,,2,,,74,127
65344,note_off,0,0,0,,5,,,65,127
65344,note_off,0,0,0,,8,,,68,127
65347,note_on,3,0,0,,3,,,63,127
65347,note_on,0,0,0,,7,,,67,127
65347,note_on,0,0,0,,3,,,75,127
65472,note_off,125,0,0,,3,,,75,127
65472,note_off,0,0,0,,7,,,67,127
65472,note_off,0,0,0,,3,,,63,127
65475,note_on,3,0,0,,5,,,65,127
65475,note_on,0,0,0,,2,,,62,127
65475,note_on,0,0,0,,5,,,77,127
65600,note_off,125,0,0,,5,,,77,127
65600,note_off,0,0,0,,2,,,62,127
65600,note_off,0,0,0,,5,,,65,127
65603,note_on,3,0,0,,3,,,63,127
65603,note_on,0,0,0,,7,,,67,127
65603,note_on,0,0,0,,7,,,79,127
65728,note_off,125,0,0,,7,,,79,127
65731,note_on,3,0,0,,8,,,80,127
65856,note_off,125,0,0,,8,,,80,127
65859,note_on,3,0,0,,7,,,79,127
65859,note_on,0,0,0,,11,,,82,127
65984,note_off,125,0,0,,11,,,82,127
65984,note_off,0,0,0,,7,,,79,127
65987,note_on,3,0,0,,8,,,80,127
65987,note_on,0,0,0,,0,,,84,127
66112,note_off,125,0,0,,0,,,84,127
66112,note_off,0,0,0,,8,,,80,127
66115,note_on,3,0,0,,11,,,82,127
66115,note_on,0,0,0,,7,,,79,127
66240,note_off,125,0,0,,7,,,79,127
66240,note_off,0,0,0,,11,,,82,127
66243,note_off,3,0,0,,7,,,67,127
66243,note_off,0,0,0,,3,,,63,127
66243,note_on,0,0,0,,8,,,80,127
66243,note_on,0,0,0,,5,,,77,127
66368,note_off,125,0,0,,5,,,77,127
66368,note_off,0,0,0,,8,,,80,127
66371,note_on,3,0,0,,8,,,68,127
66371,note_on,0,0,0,,5,,,65,127
66371,note_on,0,0,0,,3,,,75,127
66371,note_on,0,0,0,,7,,,79,127
66496,note_off,125,0,0,,7,,,79,127
66496,note_off,0,0,0,,3,,,75,127
66499,note_on,3,0,0,,5,,,77,127
66499,note_on,0,0,0,,2,,,74,127
66624,note_off,125,0,0,,2,,,74,127
66624,note_off,0,0,0,,5,,,77,127
66624,note_off,0,0,0,,5,,,65,127
66624,note_off,0,0,0,,8,,,68,127
66627,note_on,3,0,0,,11,,,70,127
66627,note_on,0,0,0,,7,,,67,127
66627,note_on,0,0,0,,3,,,75,127
66752,note_off,125,0,0,,3,,,75,127
66755,note_on,3,0,0,,7,,,79,127
66880,note_off,125,0,0,,7,,,79,127
66880,note_off,0,0,0,,11,,,70,127
66883,note_on,3,0,0,,7,,,55,127
66883,note_on,0,0,0,,11,,,82,127
67008,note_off,125,0,0,,11,,,82,127
67011,note_on,3,0,0,,8,,,80,127
67136,note_off,125,0,0,,8,,,80,127
67139,note_on,3,0,0,,7,,,79,127
67264,note_off,125,0,0,,7,,,79,127
67267,note_on,3,0,0,,5,,,77,127
67392,note_off,125,0,0,,5,,,77,127
67392,note_off,0,0,0,,7,,,55,127
67393,note_off,1,0,0,,7,,,67,127
67394,note_on,1,0,0,,7,,,67,127
67394,note_on,0,0,0,,11,,,82,127
67394,note_on,0,0,0,,3,,,75,127
67519,note_off,125,0,0,,3,,,75,127
67522,note_on,3,0,0,,2,,,74,127
67647,note_off,125,0,0,,2,,,74,127
67647,note_off,0,0,0,,7,,,67,127
67650,note_on,3,0,0,,8,,,56,127
67650,note_on,0,0,0,,0,,,72,127
67767,note_off,117,0,0,,11,,,82,127
67775,note_off,8,0,0,,0,,,72,127
67778,note_on,3,0,0,,0,,,84,127
67903,note_off,125,0,0,,0,,,84,127
67903,note_off,0,0,0,,8,,,56,127
67906,note_on,3,0,0,,8,,,68,127
67906,note_on,0,0,0,,11,,,82,127
68031,note_off,125,0,0,,11,,,82,127
68034,note_on,3,0,0,,8,,,80,127
68159,note_off,125,0,0,,8,,,80,127
68159,note_off,0,0,0,,8,,,68,127
68162,note_on,3,0,0,,11,,,70,127
68162,note_on,0,0,0,,7,,,79,127
68287,note_off,125,0,0,,7,,,79,127
68290,note_on,3,0,0,,5,,,77,127
68415,note_off,125,0,0,,5,,,77,127
68415,note_off,0,0,0,,11,,,70,127
68418,note_on,3,0,0,,11,,,58,127
68418,note_on,0,0,0,,3,,,75,127
68543,note_off,125,0,0,,3,,,75,127
68546,note_on,3,0,0,,2,,,74,127
68671,note_off,125,0,0,,2,,,74,127
68671,note_off,0,0,0,,11,,,58,127
68674,note_on,3,0,0,,3,,,51,127
68674,note_on,0,0,0,,3,,,75,127
68799,note_off,125,0,0,,3,,,75,127
68802,note_on,3,0,0,,3,,,75,127
68802,note_on,0,0,0,,7,,,79,127
68927,note_off,125,0,0,,7,,,79,127
68927,note_off,0,0,0,,3,,,75,127
68927,note_off,0,0,0,,3,,,51,127
68930,note_on,3,0,0,,3,,,51,127
68930,note_on,0,0,0,,3,,,75,127
68930,note_on,0,0,0,,7,,,79,127
69055,note_off,125,0,0,,7,,,79,127
69055,note_off,0,0,0,,3,,,75,127
69058,note_on,3,0,0,,2,,,74,127
69058,note_on,0,0,0,,5,,,77,127
69183,note_off,125,0,0,,5,,,77,127
69183,note_off,0,0,0,,2,,,74,127
69183,note_off,0,0,0,,3,,,51,127
69186,note_on,3,0,0,,11,,,58,127
69186,note_on,0,0,0,,2,,,74,127
69186,note_on,0,0,0,,5,,,77,127
69311,note_off,125,0,0,,2,,,74,127
69314,note_on,3,0,0,,0,,,72,127
69439,note_off,125,0,0,,0,,,72,127
69442,note_on,3,0,0,,11,,,46,127
69442,note_on,0,0,0,,11,,,70,127
69567,note_off,125,0,0,,11,,,70,127
69570,note_on,3,0,0,,8,,,68,127
69693,note_off,123,0,0,,5,,,77,127
69693,note_off,0,0,0,,11,,,58,127
69696,note_off,3,0,0,,8,,,68,127
69696,note_off,0,0,0,,11,,,46,127
69699,note_on,3,0,0,,7,,,67,127
69824,note_off,125,0,0,,7,,,67,127
69827,note_on,3,0,0,,3,,,75,127
69827,note_on,0,0,0,,7,,,79,127
69952,note_off,125,0,0,,7,,,79,127
69952,note_off,0,0,0,,3,,,75,127
69955,note_on,3,0,0,,3,,,51,127
69955,note_on,0,0,0,,7,,,79,127
69955,note_on,0,0,0,,3,,,75,127
70080,note_off,125,0,0,,3,,,75,127
70080,note_off,0,0,0,,7,,,79,127
70083,note_on,3,0,0,,5,,,77,127
70083,note_on,0,0,0,,2,,,74,127
70208,note_off,125,0,0,,2,,,74,127
70208,note_off,0,0,0,,5,,,77,127
70208,note_off,0,0,0,,3,,,51,127
70211,note_on,3,0,0,,11,,,58,127
70211,note_on,0,0,0,,5,,,77,127
70211,note_on,0,0,0,,2,,,74,127
70336,note_off,125,0,0,,2,,,74,127
70339,note_on,3,0,0,,0,,,72,127
70464,note_off,125,0,0,,0,,,72,127
70467,note_on,3,0,0,,11,,,46,127
70467,note_on,0,0,0,,11,,,70,127
70592,note_off,125,0,0,,11,,,70,127
70595,note_on,3,0,0,,8,,,68,127
70718,note_off,123,0,0,,5,,,77,127
70718,note_off,0,0,0,,11,,,58,127
70721,note_off,3,0,0,,8,,,68,127
70721,note_off,0,0,0,,11,,,46,127
70724,note_on,3,0,0,,3,,,51,127
70724,note_on,0,0,0,,7,,,67,127
70724,note_on,0,0,0,,3,,,75,127
70849,note_off,125,0,0,,3,,,51,127
70850,note_off,1,0,0,,7,,,67,127
70851,note_on,1,0,0,,3,,,63,127
70851,note_on,0,0,0,,7,,,67,127
70976,note_off,125,0,0,,7,,,67,127
70976,note_off,0,0,0,,3,,,63,127
70976,note_off,0,0,0,,3,,,75,127
70979,note_on,3,0,0,,7,,,67,127
70979,note_on,0,0,0,,3,,,63,127
70979,note_on,0,0,0,,11,,,82,127
70979,note_on,0,0,0,,11,,,70,127
71104,note_off,125,0,0,,3,,,63,127
71104,note_off,0,0,0,,7,,,67,127
71107,note_on,3,0,0,,5,,,65,127
71107,note_on,0,0,0,,2,,,62,127
71232,note_off,125,0,0,,2,,,62,127
71232,note_off,0,0,0,,5,,,65,127
71235,note_on,3,0,0,,5,,,65,127
71235,note_on,0,0,0,,2,,,62,127
71360,note_off,125,0,0,,2,,,62,127
71363,note_on,3,0,0,,0,,,60,127
71488,note_off,125,0,0,,0,,,60,127
71488,note_off,0,0,0,,11,,,70,127
71488,note_off,0,0,0,,11,,,82,127
71491,note_on,3,0,0,,11,,,58,127
71491,note_on,0,0,0,,11,,,82,127
71491,note_on,0,0,0,,11,,,70,127
71616,note_off,125,0,0,,11,,,58,127
71619,note_on,3,0,0,,8,,,56,127
71744,note_off,125,0,0,,8,,,56,127
71747,note_on,3,0,0,,7,,,55,127
71872,note_off,125,0,0,,7,,,55,127
71872,note_off,0,0,0,,5,,,65,127
71875,note_on,3,0,0,,7,,,67,127
71875,note_on,0,0,0,,3,,,63,127
72000,note_off,125,0,0,,3,,,63,127
72000,note_off,0,0,0,,7,,,67,127
72000,note_off,0,0,0,,11,,,70,127
72000,note_off,0,0,0,,11,,,82,127
72003,note_on,3,0,0,,3,,,63,127
72003,note_on,0,0,0,,7,,,67,127
72003,note_on,0,0,0,,11,,,82,127
72003,note_on,0,0,0,,11,,,70,127
72128,note_off,125,0,0,,7,,,67,127
72128,note_off,0,0,0,,3,,,63,127
72131,note_on,3,0,0,,5,,,65,127
72131,note_on,0,0,0,,2,,,62,127
72256,note_off,125,0,0,,2,,,62,127
72256,note_off,0,0,0,,5,,,65,127
72259,note_on,3,0,0,,5,,,65,127
72259,note_on,0,0,0,,2,,,62,127
72384,note_off,125,0,0,,2,,,62,127
72387,note_on,3,0,0,,0,,,60,127
72512,note_off,125,0,0,,0,,,60,127
72512,note_off,0,0,0,,11,,,70,127
72512,note_off,0,0,0,,11,,,82,127
72515,note_on,3,0,0,,11,,,58,127
72515,note_on,0,0,0,,11,,,82,127
72515,note_on,0,0,0,,11,,,70,127
72640,note_off,125,0,0,,11,,,58,127
72643,note_on,3,0,0,,8,,,56,127
72766,note_off,123,0,0,,5,,,65,127
72769,note_off,3,0,0,,8,,,56,127
72772,note_on,3,0,0,,7,,,55,127
72772,note_on,0,0,0,,3,,,63,127
72897,note_off,125,0,0,,11,,,70,127
72897,note_off,0,0,0,,11,,,82,127
72900,note_on,3,0,0,,11,,,82,127
73025,note_off,125,0,0,,11,,,82,127
73025,note_off,0,0,0,,7,,,55,127
73028,note_on,3,0,0,,8,,,56,127
73028,note_on,0,0,0,,0,,,84,127
73153,note_off,125,0,0,,0,,,84,127
73156,note_on,3,0,0,,8,,,80,127
73279,note_off,123,0,0,,3,,,63,127
73282,note_off,3,0,0,,8,,,80,127
73282,note_off,0,0,0,,8,,,56,127
73285,note_on,3,0,0,,11,,,58,127
73285,note_on,0,0,0,,7,,,79,127
73410,note_off,125,0,0,,7,,,79,127
73413,note_on,3,0,0,,5,,,77,127
73538,note_off,125,0,0,,5,,,77,127
73538,note_off,0,0,0,,11,,,58,127
73541,note_on,3,0,0,,11,,,46,127
73541,note_on,0,0,0,,3,,,75,127
73666,note_off,125,0,0,,3,,,75,127
73669,note_on,3,0,0,,2,,,74,127
73794,note_off,125,0,0,,2,,,74,127
73794,note_off,0,0,0,,11,,,46,127
73797,note_on,3,0,0,,3,,,51,127
73797,note_on,0,0,0,,3,,,75,127
73922,note_off,125,0,0,,3,,,51,127
73925,note_on,3,0,0,,3,,,51,127
73925,note_on,0,0,0,,7,,,55,127
74050,note_off,125,0,0,,7,,,55,127
74050,note_off,0,0,0,,3,,,51,127
74050,note_off,0,0,0,,3,,,75,127
74053,note_on,3,0,0,,3,,,51,127
74053,note_on,0,0,0,,7,,,55,127
74053,note_on,0,0,0,,11,,,70,127
74053,note_on,0,0,0,,11,,,82,127
74178,note_off,125,0,0,,7,,,55,127
74178,note_off,0,0,0,,3,,,51,127
74181,note_on,3,0,0,,2,,,50,127
74181,note_on,0,0,0,,5,,,53,127
74306,note_off,125,0,0,,5,,,53,127
74306,note_off,0,0,0,,2,,,50,127
74309,note_on,3,0,0,,5,,,53,127
74309,note_on,0,0,0,,2,,,50,127
74434,note_off,125,0,0,,2,,,50,127
74437,note_on,3,0,0,,0,,,48,127
74562,note_off,125,0,0,,0,,,48,127
74562,note_off,0,0,0,,11,,,82,127
74562,note_off,0,0,0,,11,,,70,127
74565,note_on,3,0,0,,11,,,46,127
74565,note_on,0,0,0,,11,,,82,127
74565,note_on,0,0,0,,11,,,70,127
74690,note_off,125,0,0,,11,,,46,127
74693,note_on,3,0,0,,8,,,44,127
74816,note_off,123,0,0,,5,,,53,127
74819,note_off,3,0,0,,8,,,44,127
74822,note_on,3,0,0,,7,,,43,127
74947,note_off,125,0,0,,7,,,43,127
74950,note_on,3,0,0,,3,,,51,127
74950,note_on,0,0,0,,7,,,55,127
75075,note_off,125,0,0,,7,,,55,127
75075,note_off,0,0,0,,3,,,51,127
75075,note_off,0,0,0,,11,,,70,127
75075,note_off,0,0,0,,11,,,82,127
75078,note_on,3,0,0,,3,,,51,127
75078,note_on,0,0,0,,7,,,55,127
75078,note_on,0,0,0,,11,,,82,127
75078,note_on,0,0,0,,11,,,70,127
75203,note_off,125,0,0,,7,,,55,127
75203,note_off,0,0,0,,3,,,51,127
75206,note_on,3,0,0,,2,,,50,127
75206,note_on,0,0,0,,5,,,53,127
75331,note_off,125,0,0,,5,,,53,127
75331,note_off,0,0,0,,2,,,50,127
75334,note_on,3,0,0,,5,,,53,127
75334,note_on,0,0,0,,2,,,50,127
75459,note_off,125,0,0,,2,,,50,127
75462,note_on,3,0,0,,0,,,48,127
75587,note_off,125,0,0,,0,,,48,127
75587,note_off,0,0,0,,11,,,70,127
75587,note_off,0,0,0,,11,,,82,127
75590,note_on,3,0,0,,11,,,46,127
75590,note_on,0,0,0,,11,,,70,127
75590,note_on,0,0,0,,11,,,82,127
75715,note_off,125,0,0,,11,,,46,127
75718,note_on,3,0,0,,8,,,44,127
75841,note_off,123,0,0,,5,,,53,127
75844,note_off,3,0,0,,8,,,44,127
75847,note_on,3,0,0,,7,,,43,127
75972,note_off,125,0,0,,7,,,43,127
75975,note_on,3,0,0,,7,,,55,127
75975,note_on,0,0,0,,3,,,51,127
76100,note_off,125,0,0,,3,,,51,127
76100,note_off,0,0,0,,7,,,55,127
76100,note_off,0,0,0,,11,,,82,127
76100,note_off,0,0,0,,11,,,70,127
76103,note_on,3,0,0,,3,,,51,127
76103,note_on,0,0,0,,7,,,55,127
76103,note_on,0,0,0,,11,,,82,127
76103,note_on,0,0,0,,11,,,70,127
76228,note_off,125,0,0,,7,,,55,127
76228,note_off,0,0,0,,3,,,51,127
76231,note_on,3,0,0,,2,,,50,127
76231,note_on,0,0,0,,5,,,53,127
76356,note_off,125,0,0,,5,,,53,127
76356,note_off,0,0,0,,2,,,50,127
76359,note_on,3,0,0,,5,,,53,127
76359,note_on,0,0,0,,2,,,50,127
76484,note_off,125,0,0,,2,,,50,127
76484,note_off,0,0,0,,5,,,53,127
76487,note_on,3,0,0,,0,,,48,127
76612,note_off,125,0,0,,0,,,48,127
76612,note_off,0,0,0,,11,,,70,127
76612,note_off,0,0,0,,11,,,82,127
76615,note_on,3,0,0,,11,,,46,127
76615,note_on,0,0,0,,11,,,70,127
76615,note_on,0,0,0,,11,,,82,127
76740,note_off,125,0,0,,11,,,46,127
76743,note_on,3,0,0,,8,,,44,127
76868,note_off,125,0,0,,8,,,44,127
76871,note_on,3,0,0,,3,,,51,127
76871,note_on,0,0,0,,7,,,43,127
76996,note_off,125,0,0,,11,,,82,127
76996,note_off,0,0,0,,11,,,70,127
76999,note_on,3,0,0,,11,,,82,127
77124,note_off,125,0,0,,11,,,82,127
77124,note_off,0,0,0,,7,,,43,127
77127,note_on,3,0,0,,8,,,44,127
77127,note_on,0,0,0,,0,,,84,127
77252,note_off,125,0,0,,0,,,84,127
77255,note_on,3,0,0,,8,,,80,127
77378,note_off,123,0,0,,3,,,51,127
77381,note_off,3,0,0,,8,,,80,127
77381,note_off,0,0,0,,8,,,44,127
77384,note_on,3,0,0,,11,,,46,127
77384,note_on,0,0,0,,7,,,79,127
77509,note_off,125,0,0,,7,,,79,127
77512,note_on,3,0,0,,5,,,77,127
77637,note_off,125,0,0,,5,,,77,127
77637,note_off,0,0,0,,11,,,46,127
77640,note_on,3,0,0,,11,,,46,127
77640,note_on,0,0,0,,3,,,75,127
77765,note_off,125,0,0,,3,,,75,127
77768,note_on,3,0,0,,2,,,74,127
77893,note_off,125,0,0,,2,,,74,127
77893,note_off,0,0,0,,11,,,46,127
77896,note_on,3,0,0,,7,,,43,127
77896,note_on,0,0,0,,3,,,75,127
78024,note_on,128,0,0,,11,,,70,127
78149,note_off,125,0,0,,11,,,70,127
78149,note_off,0,0,0,,3,,,75,127
78149,note_off,0,0,0,,7,,,43,127
78152,note_on,3,0,0,,8,,,44,127
78152,note_on,0,0,0,,3,,,75,127
78152,note_on,0,0,0,,0,,,72,127
78277,note_off,125,0,0,,0,,,72,127
78280,note_on,3,0,0,,8,,,68,127
78405,note_off,125,0,0,,8,,,68,127
78405,note_off,0,0,0,,8,,,44,127
78408,note_on,3,0,0,,11,,,46,127
78408,note_on,0,0,0,,7,,,67,127
78408,note_on,0,0,0,,11,,,70,127
78659,note_off,251,0,0,,3,,,75,127
78662,note_off,3,0,0,,11,,,70,127
78662,note_off,0,0,0,,7,,,67,127
78662,note_off,0,0,0,,11,,,46,127
78669,note_on,7,0,0,,11,,,46,127
78669,note_on,0,0,0,,2,,,74,127
78669,note_on,0,0,0,,8,,,68,127
78669,note_on,0,0,0,,5,,,65,127
78922,note_off,253,0,0,,5,,,65,127
78922,note_off,0,0,0,,8,,,68,127
78922,note_off,0,0,0,,2,,,74,127
78922,note_off,0,0,0,,11,,,46,127
78934,note_on,12,0,0,,3,,,39,127
78934,note_on,0,0,0,,3,,,51,127
78934,note_on,0,0,0,,3,,,75,127
78934,note_on,0,0,0,,7,,,67,127
80542,note_off,1608,0,0,,7,,,67,127
80542,note_off,0,0,0,,3,,,75,127
80542,note_off,0,0,0,,3,,,51,127
80542,note_off,0,0,0,,3,,,39,127
81408,end_of_track,866,1,0,,,,,,
