tick,type,time,meta,track,program,channel,pitch,tempo,note,velocity
0,copyright,0,1,0,,,,,,
0,program_change,0,0,0,6,0,,,,
0,pitchwheel,0,0,0,,0,0,,,
0,program_change,0,0,0,6,1,,,,
0,pitchwheel,0,0,0,,1,-590,,,
0,program_change,0,0,0,6,2,,,,
0,pitchwheel,0,0,0,,2,-272,,,
0,program_change,0,0,0,6,3,,,,
0,pitchwheel,0,0,0,,3,-353,,,
0,program_change,0,0,0,6,4,,,,
0,pitchwheel,0,0,0,,4,-560,,,
0,program_change,0,0,0,6,5,,,,
0,pitchwheel,0,0,0,,5,-80,,,
0,program_change,0,0,0,6,6,,,,
0,pitchwheel,0,0,0,,6,-625,,,
0,program_change,0,0,0,6,7,,,,
0,pitchwheel,0,0,0,,7,-130,,,
0,program_change,0,0,0,6,8,,,,
0,pitchwheel,0,0,0,,8,-512,,,
0,program_change,0,0,0,6,10,,,,
0,pitchwheel,0,0,0,,10,-464,,,
0,program_change,0,0,0,6,11,,,,
0,pitchwheel,0,0,0,,11,-208,,,
0,program_change,0,0,0,6,12,,,,
0,pitchwheel,0,0,0,,12,-553,,,
0,set_tempo,0,1,0,,,,500000,,
43,note_on,43,0,0,,3,,,51,127
299,note_on,256,0,0,,11,,,82,127
554,note_off,255,0,0,,11,,,82,127
554,note_off,0,0,0,,3,,,51,127
555,note_on,1,0,0,,7,,,67,127
555,note_on,0,0,0,,3,,,75,127
810,note_off,255,0,0,,3,,,75,127
810,note_off,0,0,0,,7,,,67,127
811,note_on,1,0,0,,8,,,68,127
811,note_on,0,0,0,,3,,,75,127
1066,note_off,255,0,0,,3,,,75,127
1066,note_off,0,0,0,,8,,,68,127
1067,note_on,1,0,0,,11,,,70,127
1067,note_on,0,0,0,,2,,,74,127
1194,note_off,127,0,0,,2,,,74,127
1194,note_off,0,0,0,,11,,,70,127
1195,note_on,1,0,0,,8,,,68,127
1195,note_on,0,0,0,,0,,,72,127
1322,note_off,127,0,0,,0,,,72,127
1322,note_off,0,0,0,,8,,,68,127
1323,note_on,1,0,0,,7,,,67,127
1323,note_on,0,0,0,,11,,,70,127
1450,note_off,127,0,0,,11,,,70,127
1450,note_off,0,0,0,,7,,,67,127
1451,note_on,1,0,0,,5,,,65,127
1451,note_on,0,0,0,,8,,,68,127
1578,note_off,127,0,0,,8,,,68,127
1578,note_off,0,0,0,,5,,,65,127
1579,note_on,1,0,0,,3,,,63,127
1579,note_on,0,0,0,,7,,,67,127
1834,note_off,255,0,0,,7,,,67,127
1834,note_off,0,0,0,,3,,,63,127
1835,note_on,1,0,0,,5,,,65,127
1835,note_on,0,0,0,,8,,,68,127
1962,note_off,127,0,0,,8,,,68,127
1963,note_on,1,0,0,,7,,,67,127
2090,note_off,127,0,0,,7,,,67,127
2090,note_off,0,0,0,,5,,,65,127
2091,note_on,1,0,0,,2,,,62,127
2091,note_on,0,0,0,,8,,,68,127
2218,note_off,127,0,0,,8,,,68,127
2219,note_on,1,0,0,,11,,,70,127
2346,note_off,127,0,0,,11,,,70,127
2346,note_off,0,0,0,,2,,,62,127
2347,note_on,1,0,0,,3,,,63,127
2347,note_on,0,0,0,,7,,,67,127
2474,note_off,127,0,0,,7,,,67,127
2475,note_on,1,0,0,,5,,,65,127
2602,note_off,127,0,0,,5,,,65,127
2602,note_off,0,0,0,,3,,,63,127
2603,note_on,1,0,0,,3,,,51,127
2603,note_on,0,0,0,,3,,,63,127
2730,note_off,127,0,0,,3,,,63,127
2731,note_on,1,0,0,,2,,,62,127
2858,note_off,127,0,0,,2,,,62,127
2859,note_on,1,0,0,,3,,,39,127
2859,note_on,0,0,0,,3,,,63,127
3110,note_off,251,0,0,,3,,,51,127
3114,note_off,4,0,0,,3,,,63,127
3114,note_off,0,0,0,,3,,,39,127
3115,note_on,1,0,0,,3,,,63,127
3371,note_on,256,0,0,,11,,,82,127
3626,note_off,255,0,0,,11,,,82,127
3626,note_off,0,0,0,,3,,,63,127
3627,note_on,1,0,0,,7,,,67,127
3627,note_on,0,0,0,,3,,,75,127
3882,note_off,255,0,0,,3,,,75,127
3882,note_off,0,0,0,,7,,,67,127
3883,note_on,1,0,0,,3,,,63,127
3883,note_on,0,0,0,,7,,,67,127
4138,note_off,255,0,0,,7,,,67,127
4138,note_off,0,0,0,,3,,,63,127
4139,note_on,1,0,0,,2,,,62,127
4139,note_on,0,0,0,,5,,,65,127
4394,note_off,255,0,0,,5,,,65,127
4394,note_off,0,0,0,,2,,,62,127
4395,note_on,1,0,0,,0,,,60,127
4395,note_on,0,0,0,,3,,,63,127
4650,note_off,255,0,0,,3,,,63,127
4650,note_off,0,0,0,,0,,,60,127
4651,note_on,1,0,0,,11,,,58,127
4651,note_on,0,0,0,,11,,,70,127
4906,note_off,255,0,0,,11,,,70,127
4907,note_on,1,0,0,,11,,,70,127
5162,note_off,255,0,0,,11,,,70,127
5163,note_on,1,0,0,,11,,,70,127
5418,note_off,255,0,0,,11,,,70,127
5418,note_off,0,0,0,,11,,,58,127
5419,note_on,1,0,0,,8,,,56,127
5419,note_on,0,0,0,,11,,,70,127
5674,note_off,255,0,0,,11,,,70,127
5675,note_on,1,0,0,,11,,,70,127
5930,note_off,255,0,0,,11,,,70,127
5931,note_on,1,0,0,,11,,,70,127
6186,note_off,255,0,0,,11,,,70,127
6186,note_off,0,0,0,,8,,,56,127
6187,note_on,1,0,0,,6,,,54,127
6187,note_on,0,0,0,,11,,,70,127
6314,note_off,127,0,0,,11,,,70,127
6315,note_on,1,0,0,,12,,,71,127
6442,note_off,127,0,0,,12,,,71,127
6443,note_on,1,0,0,,1,,,73,127
6570,note_off,127,0,0,,1,,,73,127
6571,note_on,1,0,0,,12,,,71,127
6698,note_off,127,0,0,,12,,,71,127
6699,note_on,1,0,0,,11,,,70,127
6826,note_off,127,0,0,,11,,,70,127
6827,note_on,1,0,0,,8,,,68,127
6954,note_off,127,0,0,,8,,,68,127
6954,note_off,0,0,0,,6,,,54,127
6955,note_on,1,0,0,,6,,,54,127
6955,note_on,0,0,0,,6,,,66,127
7211,note_on,256,0,0,,6,,,78,127
7338,note_off,127,0,0,,6,,,78,127
7339,note_off,1,0,0,,6,,,66,127
7339,note_on,0,0,0,,1,,,73,127
7466,note_off,127,0,0,,1,,,73,127
7467,note_on,1,0,0,,11,,,70,127
7594,note_off,127,0,0,,11,,,70,127
7595,note_on,1,0,0,,6,,,66,127
7722,note_off,127,0,0,,6,,,66,127
7722,note_off,0,0,0,,6,,,54,127
7723,note_on,1,0,0,,6,,,54,127
7723,note_on,0,0,0,,1,,,73,127
7850,note_off,127,0,0,,1,,,73,127
7851,note_on,1,0,0,,11,,,70,127
7978,note_off,127,0,0,,11,,,70,127
7979,note_on,1,0,0,,6,,,66,127
8106,note_off,127,0,0,,6,,,66,127
8107,note_on,1,0,0,,1,,,61,127
8234,note_off,127,0,0,,1,,,61,127
8234,note_off,0,0,0,,6,,,54,127
8235,note_on,1,0,0,,1,,,61,127
8235,note_on,0,0,0,,11,,,58,127
8235,note_on,0,0,0,,6,,,66,127
8362,note_off,127,0,0,,6,,,66,127
8363,note_on,1,0,0,,1,,,73,127
8490,note_off,127,0,0,,1,,,73,127
8490,note_off,0,0,0,,11,,,58,127
8490,note_off,0,0,0,,1,,,61,127
8491,note_on,1,0,0,,12,,,59,127
8491,note_on,0,0,0,,8,,,56,127
8491,note_on,0,0,0,,5,,,65,127
8746,note_off,255,0,0,,5,,,65,127
8746,note_off,0,0,0,,8,,,56,127
8746,note_off,0,0,0,,12,,,59,127
8747,note_on,1,0,0,,1,,,61,127
8747,note_on,0,0,0,,11,,,58,127
8747,note_on,0,0,0,,8,,,68,127
8810,note_off,63,0,0,,8,,,68,127
8811,note_on,1,0,0,,6,,,66,127
8874,note_off,63,0,0,,6,,,66,127
8875,note_on,1,0,0,,8,,,68,127
8938,note_off,63,0,0,,8,,,68,127
8939,note_on,1,0,0,,6,,,66,127
9002,note_off,63,0,0,,6,,,66,127
9002,note_off,0,0,0,,11,,,58,127
9003,note_on,1,0,0,,6,,,54,127
9003,note_on,0,0,0,,8,,,68,127
9066,note_off,63,0,0,,8,,,68,127
9067,note_on,1,0,0,,6,,,66,127
9130,note_off,63,0,0,,6,,,66,127
9131,note_on,1,0,0,,5,,,65,127
9194,note_off,63,0,0,,5,,,65,127
9195,note_on,1,0,0,,6,,,66,127
9258,note_off,63,0,0,,6,,,66,127
9258,note_off,0,0,0,,6,,,54,127
9258,note_off,0,0,0,,1,,,61,127
9259,note_on,1,0,0,,1,,,49,127
9259,note_on,0,0,0,,8,,,68,127
9386,note_off,127,0,0,,1,,,49,127
9387,note_on,1,0,0,,1,,,61,127
9514,note_off,127,0,0,,1,,,61,127
9515,note_on,1,0,0,,12,,,59,127
9642,note_off,127,0,0,,12,,,59,127
9643,note_on,1,0,0,,11,,,58,127
9770,note_off,127,0,0,,11,,,58,127
9771,note_on,1,0,0,,8,,,56,127
9898,note_off,127,0,0,,8,,,56,127
9899,note_on,1,0,0,,7,,,55,127
10026,note_off,127,0,0,,7,,,55,127
10026,note_off,0,0,0,,8,,,68,127
10027,note_on,1,0,0,,8,,,56,127
10283,note_on,256,0,0,,8,,,80,127
10410,note_off,127,0,0,,8,,,80,127
10411,note_on,1,0,0,,3,,,75,127
10538,note_off,127,0,0,,3,,,75,127
10539,note_on,1,0,0,,12,,,71,127
10666,note_off,127,0,0,,12,,,71,127
10667,note_on,1,0,0,,8,,,68,127
10794,note_off,127,0,0,,8,,,68,127
10794,note_off,0,0,0,,8,,,56,127
10795,note_on,1,0,0,,8,,,56,127
10795,note_on,0,0,0,,3,,,75,127
10922,note_off,127,0,0,,3,,,75,127
10923,note_on,1,0,0,,12,,,71,127
11050,note_off,127,0,0,,12,,,71,127
11051,note_on,1,0,0,,8,,,68,127
11178,note_off,127,0,0,,8,,,68,127
11179,note_on,1,0,0,,3,,,63,127
11306,note_off,127,0,0,,3,,,63,127
11306,note_off,0,0,0,,8,,,56,127
11307,note_on,1,0,0,,12,,,59,127
11307,note_on,0,0,0,,3,,,63,127
11307,note_on,0,0,0,,8,,,68,127
11434,note_off,127,0,0,,8,,,68,127
11435,note_on,1,0,0,,3,,,75,127
11562,note_off,127,0,0,,3,,,75,127
11562,note_off,0,0,0,,3,,,63,127
11562,note_off,0,0,0,,12,,,59,127
11563,note_on,1,0,0,,11,,,58,127
11563,note_on,0,0,0,,1,,,61,127
11563,note_on,0,0,0,,7,,,67,127
11818,note_off,255,0,0,,7,,,67,127
11818,note_off,0,0,0,,1,,,61,127
11818,note_off,0,0,0,,11,,,58,127
11819,note_on,1,0,0,,12,,,59,127
11819,note_on,0,0,0,,3,,,63,127
11819,note_on,0,0,0,,11,,,70,127
11882,note_off,63,0,0,,11,,,70,127
11883,note_on,1,0,0,,8,,,68,127
11946,note_off,63,0,0,,8,,,68,127
11947,note_on,1,0,0,,11,,,70,127
12010,note_off,63,0,0,,11,,,70,127
12011,note_on,1,0,0,,8,,,68,127
12074,note_off,63,0,0,,8,,,68,127
12074,note_off,0,0,0,,3,,,63,127
12074,note_off,0,0,0,,12,,,59,127
12075,note_on,1,0,0,,8,,,56,127
12075,note_on,0,0,0,,11,,,70,127
12138,note_off,63,0,0,,11,,,70,127
12139,note_on,1,0,0,,8,,,68,127
12202,note_off,63,0,0,,8,,,68,127
12203,note_on,1,0,0,,7,,,67,127
12266,note_off,63,0,0,,7,,,67,127
12267,note_on,1,0,0,,8,,,68,127
12330,note_off,63,0,0,,8,,,68,127
12330,note_off,0,0,0,,8,,,56,127
12331,note_on,1,0,0,,3,,,51,127
12331,note_on,0,0,0,,11,,,70,127
12458,note_off,127,0,0,,3,,,51,127
12459,note_on,1,0,0,,3,,,63,127
12586,note_off,127,0,0,,3,,,63,127
12587,note_on,1,0,0,,1,,,61,127
12714,note_off,127,0,0,,1,,,61,127
12715,note_on,1,0,0,,0,,,60,127
12842,note_off,127,0,0,,0,,,60,127
12843,note_on,1,0,0,,11,,,58,127
12970,note_off,127,0,0,,11,,,58,127
12971,note_on,1,0,0,,10,,,57,127
13098,note_off,127,0,0,,10,,,57,127
13098,note_off,0,0,0,,11,,,70,127
13099,note_on,1,0,0,,11,,,58,127
13227,note_on,128,0,0,,11,,,82,127
13354,note_off,127,0,0,,11,,,82,127
13355,note_on,1,0,0,,5,,,77,127
13482,note_off,127,0,0,,5,,,77,127
13483,note_on,1,0,0,,1,,,73,127
13610,note_off,127,0,0,,1,,,73,127
13610,note_off,0,0,0,,11,,,58,127
13611,note_on,1,0,0,,11,,,58,127
13611,note_on,0,0,0,,11,,,70,127
13738,note_off,127,0,0,,11,,,70,127
13739,note_on,1,0,0,,5,,,77,127
13866,note_off,127,0,0,,5,,,77,127
13866,note_off,0,0,0,,11,,,58,127
13867,note_on,1,0,0,,1,,,61,127
13867,note_on,0,0,0,,5,,,65,127
13867,note_on,0,0,0,,5,,,77,127
13994,note_off,127,0,0,,5,,,77,127
13995,note_on,1,0,0,,1,,,73,127
14122,note_off,127,0,0,,1,,,73,127
14123,note_on,1,0,0,,11,,,70,127
14250,note_off,127,0,0,,11,,,70,127
14250,note_off,0,0,0,,5,,,65,127
14251,note_on,1,0,0,,5,,,65,127
14378,note_off,127,0,0,,1,,,61,127
14379,note_on,1,0,0,,1,,,61,127
14379,note_on,0,0,0,,11,,,70,127
14506,note_off,127,0,0,,11,,,70,127
14507,note_on,1,0,0,,5,,,77,127
14634,note_off,127,0,0,,5,,,77,127
14634,note_off,0,0,0,,1,,,61,127
14634,note_off,0,0,0,,5,,,65,127
14635,note_on,1,0,0,,0,,,60,127
14635,note_on,0,0,0,,10,,,69,127
14890,note_off,255,0,0,,10,,,69,127
14890,note_off,0,0,0,,0,,,60,127
14891,note_on,1,0,0,,5,,,65,127
14891,note_on,0,0,0,,1,,,61,127
14891,note_on,0,0,0,,0,,,72,127
14954,note_off,63,0,0,,0,,,72,127
14955,note_on,1,0,0,,11,,,70,127
15018,note_off,63,0,0,,11,,,70,127
15019,note_on,1,0,0,,0,,,72,127
15082,note_off,63,0,0,,0,,,72,127
15083,note_on,1,0,0,,11,,,70,127
15146,note_off,63,0,0,,11,,,70,127
15146,note_off,0,0,0,,1,,,61,127
15146,note_off,0,0,0,,5,,,65,127
15147,note_on,1,0,0,,11,,,58,127
15147,note_on,0,0,0,,0,,,72,127
15210,note_off,63,0,0,,0,,,72,127
15211,note_on,1,0,0,,11,,,70,127
15274,note_off,63,0,0,,11,,,70,127
15275,note_on,1,0,0,,10,,,69,127
15338,note_off,63,0,0,,10,,,69,127
15339,note_on,1,0,0,,11,,,70,127
15402,note_off,63,0,0,,11,,,70,127
15402,note_off,0,0,0,,11,,,58,127
15403,note_on,1,0,0,,5,,,41,127
15403,note_on,0,0,0,,0,,,72,127
15530,note_off,127,0,0,,0,,,72,127
15531,note_on,1,0,0,,5,,,77,127
15658,note_off,127,0,0,,5,,,41,127
15659,note_on,1,0,0,,5,,,65,127
15786,note_off,127,0,0,,5,,,77,127
15787,note_on,1,0,0,,0,,,72,127
15914,note_off,127,0,0,,5,,,65,127
15915,note_on,1,0,0,,10,,,69,127
16042,note_off,127,0,0,,0,,,72,127
16043,note_on,1,0,0,,3,,,75,127
16170,note_off,127,0,0,,10,,,69,127
16171,note_on,1,0,0,,11,,,70,127
16298,note_off,127,0,0,,3,,,75,127
16299,note_on,1,0,0,,1,,,73,127
16426,note_off,127,0,0,,11,,,70,127
16427,note_on,1,0,0,,6,,,66,127
16554,note_off,127,0,0,,1,,,73,127
16555,note_on,1,0,0,,0,,,72,127
16682,note_off,127,0,0,,6,,,66,127
16683,note_on,1,0,0,,3,,,63,127
16810,note_off,127,0,0,,0,,,72,127
16811,note_on,1,0,0,,11,,,70,127
16938,note_off,127,0,0,,11,,,70,127
16938,note_off,0,0,0,,3,,,63,127
16939,note_on,1,0,0,,5,,,41,127
16939,note_on,0,0,0,,10,,,69,127
17067,note_on,128,0,0,,5,,,77,127
17194,note_off,127,0,0,,10,,,69,127
17194,note_off,0,0,0,,5,,,41,127
17195,note_on,1,0,0,,5,,,65,127
17322,note_off,127,0,0,,5,,,77,127
17323,note_on,1,0,0,,0,,,72,127
17450,note_off,127,0,0,,5,,,65,127
17451,note_on,1,0,0,,10,,,69,127
17578,note_off,127,0,0,,0,,,72,127
17579,note_on,1,0,0,,3,,,75,127
17706,note_off,127,0,0,,10,,,69,127
17707,note_on,1,0,0,,11,,,70,127
17834,note_off,127,0,0,,3,,,75,127
17835,note_on,1,0,0,,1,,,73,127
17962,note_off,127,0,0,,11,,,70,127
17963,note_on,1,0,0,,6,,,66,127
18090,note_off,127,0,0,,1,,,73,127
18091,note_on,1,0,0,,0,,,72,127
18218,note_off,127,0,0,,6,,,66,127
18219,note_on,1,0,0,,3,,,63,127
18346,note_off,127,0,0,,0,,,72,127
18347,note_on,1,0,0,,11,,,70,127
18474,note_off,127,0,0,,11,,,70,127
18474,note_off,0,0,0,,3,,,63,127
18475,note_on,1,0,0,,5,,,41,127
18475,note_on,0,0,0,,10,,,69,127
18603,note_on,128,0,0,,5,,,77,127
18730,note_off,127,0,0,,10,,,69,127
18730,note_off,0,0,0,,5,,,41,127
18731,note_on,1,0,0,,5,,,65,127
18858,note_off,127,0,0,,5,,,77,127
18859,note_on,1,0,0,,0,,,72,127
18986,note_off,127,0,0,,5,,,65,127
18987,note_on,1,0,0,,10,,,69,127
19114,note_off,127,0,0,,0,,,72,127
19115,note_on,1,0,0,,3,,,75,127
19242,note_off,127,0,0,,10,,,69,127
19243,note_on,1,0,0,,11,,,70,127
19370,note_off,127,0,0,,3,,,75,127
19371,note_on,1,0,0,,1,,,73,127
19498,note_off,127,0,0,,11,,,70,127
19499,note_on,1,0,0,,6,,,66,127
19626,note_off,127,0,0,,1,,,73,127
19627,note_on,1,0,0,,0,,,72,127
19754,note_off,127,0,0,,6,,,66,127
19755,note_on,1,0,0,,3,,,63,127
19882,note_off,127,0,0,,0,,,72,127
19883,note_on,1,0,0,,11,,,70,127
20010,note_off,127,0,0,,11,,,70,127
20010,note_off,0,0,0,,3,,,63,127
20011,note_on,1,0,0,,5,,,53,127
20011,note_on,0,0,0,,10,,,69,127
20138,note_off,127,0,0,,5,,,53,127
20139,note_on,1,0,0,,5,,,65,127
20203,note_off,64,0,0,,10,,,69,127
20266,note_off,63,0,0,,5,,,65,127
20267,note_on,1,0,0,,10,,,69,127
20267,note_on,0,0,0,,3,,,75,127
20267,note_on,0,0,0,,0,,,84,127
20394,note_off,127,0,0,,10,,,69,127
20395,note_on,1,0,0,,5,,,65,127
20522,note_off,127,0,0,,5,,,65,127
20522,note_off,0,0,0,,0,,,84,127
20522,note_off,0,0,0,,3,,,75,127
20523,note_on,1,0,0,,11,,,70,127
20523,note_on,0,0,0,,2,,,74,127
20523,note_on,0,0,0,,11,,,82,127
20650,note_off,127,0,0,,11,,,70,127
20651,note_on,1,0,0,,11,,,58,127
20778,note_off,127,0,0,,11,,,58,127
20778,note_off,0,0,0,,11,,,82,127
20778,note_off,0,0,0,,2,,,74,127
20779,note_on,1,0,0,,5,,,53,127
20906,note_off,127,0,0,,5,,,53,127
20907,note_on,1,0,0,,5,,,65,127
21034,note_off,127,0,0,,5,,,65,127
21035,note_on,1,0,0,,10,,,69,127
21035,note_on,0,0,0,,0,,,84,127
21035,note_on,0,0,0,,3,,,75,127
21162,note_off,127,0,0,,10,,,69,127
21163,note_on,1,0,0,,5,,,65,127
21290,note_off,127,0,0,,5,,,65,127
21290,note_off,0,0,0,,3,,,75,127
21290,note_off,0,0,0,,0,,,84,127
21291,note_on,1,0,0,,11,,,70,127
21291,note_on,0,0,0,,11,,,82,127
21291,note_on,0,0,0,,2,,,74,127
21418,note_off,127,0,0,,11,,,70,127
21419,note_on,1,0,0,,11,,,58,127
21546,note_off,127,0,0,,11,,,58,127
21546,note_off,0,0,0,,2,,,74,127
21546,note_off,0,0,0,,11,,,82,127
21547,note_on,1,0,0,,5,,,53,127
21674,note_off,127,0,0,,5,,,53,127
21675,note_on,1,0,0,,5,,,65,127
21802,note_off,127,0,0,,5,,,65,127
21803,note_on,1,0,0,,10,,,69,127
21803,note_on,0,0,0,,0,,,84,127
21803,note_on,0,0,0,,3,,,75,127
21930,note_off,127,0,0,,10,,,69,127
21931,note_on,1,0,0,,5,,,65,127
22058,note_off,127,0,0,,5,,,65,127
22058,note_off,0,0,0,,3,,,75,127
22058,note_off,0,0,0,,0,,,84,127
22059,note_on,1,0,0,,11,,,70,127
22059,note_on,0,0,0,,2,,,74,127
22059,note_on,0,0,0,,11,,,82,127
22186,note_off,127,0,0,,11,,,70,127
22187,note_on,1,0,0,,11,,,58,127
22314,note_off,127,0,0,,11,,,58,127
22314,note_off,0,0,0,,11,,,82,127
22314,note_off,0,0,0,,2,,,74,127
22315,note_on,1,0,0,,5,,,65,127
22315,note_on,0,0,0,,10,,,81,127
22442,note_off,127,0,0,,10,,,81,127
22443,note_on,1,0,0,,7,,,79,127
22570,note_off,127,0,0,,7,,,79,127
22571,note_on,1,0,0,,5,,,77,127
22698,note_off,127,0,0,,5,,,65,127
22699,note_on,1,0,0,,3,,,63,127
22826,note_off,127,0,0,,3,,,63,127
22827,note_on,1,0,0,,2,,,62,127
22954,note_off,127,0,0,,2,,,62,127
22954,note_off,0,0,0,,5,,,77,127
22955,note_on,1,0,0,,0,,,60,127
22955,note_on,0,0,0,,3,,,75,127
23082,note_off,127,0,0,,3,,,75,127
23082,note_off,0,0,0,,0,,,60,127
23083,note_on,1,0,0,,11,,,46,127
23083,note_on,0,0,0,,2,,,74,127
23210,note_off,127,0,0,,11,,,46,127
23211,note_on,1,0,0,,11,,,58,127
23338,note_off,127,0,0,,11,,,58,127
23338,note_off,0,0,0,,2,,,74,127
23339,note_on,1,0,0,,2,,,62,127
23339,note_on,0,0,0,,5,,,77,127
23339,note_on,0,0,0,,2,,,74,127
23466,note_off,127,0,0,,2,,,62,127
23467,note_on,1,0,0,,11,,,58,127
23594,note_off,127,0,0,,11,,,58,127
23594,note_off,0,0,0,,2,,,74,127
23594,note_off,0,0,0,,5,,,77,127
23595,note_on,1,0,0,,3,,,63,127
23595,note_on,0,0,0,,3,,,75,127
23595,note_on,0,0,0,,7,,,79,127
23722,note_off,127,0,0,,3,,,63,127
23723,note_on,1,0,0,,3,,,51,127
23850,note_off,127,0,0,,3,,,51,127
23850,note_off,0,0,0,,7,,,79,127
23850,note_off,0,0,0,,3,,,75,127
23851,note_on,1,0,0,,11,,,46,127
23978,note_off,127,0,0,,11,,,46,127
23979,note_on,1,0,0,,11,,,58,127
24106,note_off,127,0,0,,11,,,58,127
24107,note_on,1,0,0,,2,,,62,127
24107,note_on,0,0,0,,5,,,77,127
24107,note_on,0,0,0,,2,,,74,127
24234,note_off,127,0,0,,2,,,62,127
24235,note_on,1,0,0,,11,,,58,127
24362,note_off,127,0,0,,11,,,58,127
24362,note_off,0,0,0,,2,,,74,127
24362,note_off,0,0,0,,5,,,77,127
24363,note_on,1,0,0,,3,,,63,127
24363,note_on,0,0,0,,3,,,75,127
24363,note_on,0,0,0,,7,,,79,127
24490,note_off,127,0,0,,3,,,63,127
24491,note_on,1,0,0,,3,,,51,127
24618,note_off,127,0,0,,3,,,51,127
24618,note_off,0,0,0,,7,,,79,127
24618,note_off,0,0,0,,3,,,75,127
24619,note_on,1,0,0,,11,,,46,127
24746,note_off,127,0,0,,11,,,46,127
24747,note_on,1,0,0,,11,,,58,127
24874,note_off,127,0,0,,11,,,58,127
24875,note_on,1,0,0,,2,,,62,127
24875,note_on,0,0,0,,2,,,74,127
24875,note_on,0,0,0,,5,,,77,127
25002,note_off,127,0,0,,2,,,62,127
25003,note_on,1,0,0,,11,,,58,127
25130,note_off,127,0,0,,11,,,58,127
25130,note_off,0,0,0,,5,,,77,127
25130,note_off,0,0,0,,2,,,74,127
25131,note_on,1,0,0,,3,,,63,127
25131,note_on,0,0,0,,7,,,79,127
25131,note_on,0,0,0,,3,,,75,127
25258,note_off,127,0,0,,3,,,63,127
25259,note_on,1,0,0,,3,,,51,127
25386,note_off,127,0,0,,3,,,51,127
25386,note_off,0,0,0,,3,,,75,127
25386,note_off,0,0,0,,7,,,79,127
25387,note_on,1,0,0,,5,,,53,127
25387,note_on,0,0,0,,10,,,81,127
25514,note_off,127,0,0,,10,,,81,127
25514,note_off,0,0,0,,5,,,53,127
25515,note_on,1,0,0,,5,,,65,127
25515,note_on,0,0,0,,0,,,84,127
25642,note_off,127,0,0,,0,,,84,127
25643,note_on,1,0,0,,5,,,77,127
25770,note_off,127,0,0,,5,,,77,127
25770,note_off,0,0,0,,5,,,65,127
25771,note_on,1,0,0,,3,,,63,127
25771,note_on,0,0,0,,10,,,81,127
25898,note_off,127,0,0,,10,,,81,127
25899,note_on,1,0,0,,11,,,82,127
26026,note_off,127,0,0,,11,,,82,127
26026,note_off,0,0,0,,3,,,63,127
26027,note_on,1,0,0,,2,,,62,127
26027,note_on,0,0,0,,5,,,77,127
26154,note_off,127,0,0,,5,,,77,127
26154,note_off,0,0,0,,2,,,62,127
26155,note_on,1,0,0,,3,,,63,127
26155,note_on,0,0,0,,7,,,79,127
26282,note_off,127,0,0,,7,,,79,127
26283,note_on,1,0,0,,3,,,75,127
26410,note_off,127,0,0,,3,,,75,127
26410,note_off,0,0,0,,3,,,63,127
26411,note_on,1,0,0,,5,,,65,127
26411,note_on,0,0,0,,2,,,74,127
26538,note_off,127,0,0,,2,,,74,127
26539,note_on,1,0,0,,0,,,72,127
26666,note_off,127,0,0,,0,,,72,127
26666,note_off,0,0,0,,5,,,65,127
26667,note_on,1,0,0,,5,,,53,127
26667,note_on,0,0,0,,11,,,70,127
26794,note_off,127,0,0,,11,,,70,127
26795,note_on,1,0,0,,10,,,69,127
26922,note_off,127,0,0,,10,,,69,127
26922,note_off,0,0,0,,5,,,53,127
26923,note_on,1,0,0,,11,,,58,127
26923,note_on,0,0,0,,11,,,70,127
27050,note_off,127,0,0,,11,,,70,127
27051,note_on,1,0,0,,2,,,74,127
27178,note_off,127,0,0,,2,,,74,127
27179,note_on,1,0,0,,5,,,65,127
27306,note_off,127,0,0,,11,,,58,127
27307,note_on,1,0,0,,2,,,62,127
27434,note_off,127,0,0,,2,,,62,127
27435,note_on,1,0,0,,0,,,60,127
27499,note_off,64,0,0,,5,,,65,127
27499,note_on,0,0,0,,3,,,63,127
27562,note_off,63,0,0,,3,,,63,127
27562,note_off,0,0,0,,0,,,60,127
27563,note_on,1,0,0,,5,,,53,127
27563,note_on,0,0,0,,2,,,62,127
27626,note_off,63,0,0,,2,,,62,127
27627,note_on,1,0,0,,3,,,63,127
27690,note_off,63,0,0,,3,,,63,127
27690,note_off,0,0,0,,5,,,53,127
27691,note_on,1,0,0,,11,,,58,127
27691,note_on,0,0,0,,2,,,62,127
27818,note_off,127,0,0,,2,,,62,127
27819,note_on,1,0,0,,5,,,77,127
27946,note_off,127,0,0,,5,,,77,127
27947,note_on,1,0,0,,5,,,65,127
28074,note_off,127,0,0,,11,,,58,127
28075,note_on,1,0,0,,2,,,62,127
28202,note_off,127,0,0,,2,,,62,127
28203,note_on,1,0,0,,0,,,60,127
28267,note_off,64,0,0,,5,,,65,127
28267,note_on,0,0,0,,3,,,63,127
28330,note_off,63,0,0,,3,,,63,127
28330,note_off,0,0,0,,0,,,60,127
28331,note_on,1,0,0,,5,,,53,127
28331,note_on,0,0,0,,2,,,62,127
28394,note_off,63,0,0,,2,,,62,127
28395,note_on,1,0,0,,3,,,63,127
28458,note_off,63,0,0,,3,,,63,127
28458,note_off,0,0,0,,5,,,53,127
28459,note_on,1,0,0,,11,,,58,127
28459,note_on,0,0,0,,2,,,62,127
28586,note_off,127,0,0,,2,,,62,127
28587,note_on,1,0,0,,11,,,82,127
28714,note_off,127,0,0,,11,,,82,127
28715,note_on,1,0,0,,5,,,65,127
28842,note_off,127,0,0,,11,,,58,127
28843,note_on,1,0,0,,2,,,62,127
28970,note_off,127,0,0,,2,,,62,127
28971,note_on,1,0,0,,0,,,60,127
29035,note_off,64,0,0,,5,,,65,127
29035,note_on,0,0,0,,3,,,63,127
29098,note_off,63,0,0,,3,,,63,127
29098,note_off,0,0,0,,0,,,60,127
29099,note_on,1,0,0,,5,,,53,127
29099,note_on,0,0,0,,2,,,62,127
29162,note_off,63,0,0,,2,,,62,127
29163,note_on,1,0,0,,3,,,63,127
29226,note_off,63,0,0,,3,,,63,127
29226,note_off,0,0,0,,5,,,53,127
29227,note_on,1,0,0,,11,,,58,127
29227,note_on,0,0,0,,2,,,62,127
29354,note_off,127,0,0,,2,,,62,127
29355,note_on,1,0,0,,5,,,77,127
29482,note_off,127,0,0,,5,,,77,127
29483,note_on,1,0,0,,2,,,74,127
29610,note_off,127,0,0,,2,,,74,127
29610,note_off,0,0,0,,11,,,58,127
29611,note_on,1,0,0,,0,,,60,127
29611,note_on,0,0,0,,10,,,69,127
29738,note_off,127,0,0,,10,,,69,127
29738,note_off,0,0,0,,0,,,60,127
29739,note_on,1,0,0,,2,,,62,127
29739,note_on,0,0,0,,11,,,70,127
29866,note_off,127,0,0,,11,,,70,127
29867,note_on,1,0,0,,11,,,82,127
29994,note_off,127,0,0,,11,,,82,127
29994,note_off,0,0,0,,2,,,62,127
29995,note_on,1,0,0,,3,,,63,127
29995,note_on,0,0,0,,7,,,79,127
30122,note_off,127,0,0,,7,,,79,127
30123,note_on,1,0,0,,3,,,75,127
30250,note_off,127,0,0,,3,,,75,127
30250,note_off,0,0,0,,3,,,63,127
30251,note_on,1,0,0,,5,,,65,127
30251,note_on,0,0,0,,2,,,74,127
30378,note_off,127,0,0,,2,,,74,127
30379,note_on,1,0,0,,0,,,72,127
30506,note_off,127,0,0,,0,,,72,127
30506,note_off,0,0,0,,5,,,65,127
30507,note_on,1,0,0,,5,,,53,127
30507,note_on,0,0,0,,11,,,70,127
30634,note_off,127,0,0,,11,,,70,127
30635,note_on,1,0,0,,10,,,69,127
30762,note_off,127,0,0,,10,,,69,127
30762,note_off,0,0,0,,5,,,53,127
30763,note_on,1,0,0,,11,,,58,127
30763,note_on,0,0,0,,11,,,70,127
30890,note_off,127,0,0,,11,,,70,127
30891,note_on,1,0,0,,2,,,74,127
31018,note_off,127,0,0,,2,,,74,127
31019,note_on,1,0,0,,5,,,65,127
31096,note_off,77,0,0,,11,,,58,127
31147,note_on,51,0,0,,2,,,62,127
31274,note_off,127,0,0,,2,,,62,127
31275,note_on,1,0,0,,0,,,60,127
31339,note_off,64,0,0,,5,,,65,127
31339,note_on,0,0,0,,3,,,63,127
31402,note_off,63,0,0,,3,,,63,127
31402,note_off,0,0,0,,0,,,60,127
31403,note_on,1,0,0,,5,,,53,127
31403,note_on,0,0,0,,2,,,62,127
31466,note_off,63,0,0,,2,,,62,127
31467,note_on,1,0,0,,3,,,63,127
31530,note_off,63,0,0,,3,,,63,127
31530,note_off,0,0,0,,5,,,53,127
31531,note_on,1,0,0,,11,,,58,127
31531,note_on,0,0,0,,2,,,62,127
31658,note_off,127,0,0,,2,,,62,127
31659,note_on,1,0,0,,5,,,77,127
31786,note_off,127,0,0,,5,,,77,127
31787,note_on,1,0,0,,5,,,65,127
31864,note_off,77,0,0,,11,,,58,127
31915,note_on,51,0,0,,2,,,62,127
32042,note_off,127,0,0,,2,,,62,127
32043,note_on,1,0,0,,0,,,60,127
32107,note_off,64,0,0,,5,,,65,127
32107,note_on,0,0,0,,3,,,63,127
32170,note_off,63,0,0,,3,,,63,127
32170,note_off,0,0,0,,0,,,60,127
32171,note_on,1,0,0,,5,,,53,127
32171,note_on,0,0,0,,2,,,62,127
32234,note_off,63,0,0,,2,,,62,127
32235,note_on,1,0,0,,3,,,63,127
32298,note_off,63,0,0,,3,,,63,127
32298,note_off,0,0,0,,5,,,53,127
32299,note_on,1,0,0,,11,,,58,127
32299,note_on,0,0,0,,2,,,62,127
32426,note_off,127,0,0,,2,,,62,127
32427,note_on,1,0,0,,11,,,82,127
32554,note_off,127,0,0,,11,,,82,127
32555,note_on,1,0,0,,5,,,65,127
32632,note_off,77,0,0,,11,,,58,127
32683,note_on,51,0,0,,2,,,62,127
32810,note_off,127,0,0,,2,,,62,127
32811,note_on,1,0,0,,0,,,60,127
32875,note_off,64,0,0,,5,,,65,127
32875,note_on,0,0,0,,3,,,63,127
32938,note_off,63,0,0,,3,,,63,127
32938,note_off,0,0,0,,0,,,60,127
32939,note_on,1,0,0,,5,,,53,127
32939,note_on,0,0,0,,2,,,62,127
33002,note_off,63,0,0,,2,,,62,127
33003,note_on,1,0,0,,3,,,63,127
33066,note_off,63,0,0,,3,,,63,127
33066,note_off,0,0,0,,5,,,53,127
33067,note_on,1,0,0,,11,,,58,127
33067,note_on,0,0,0,,2,,,62,127
33194,note_off,127,0,0,,2,,,62,127
33195,note_on,1,0,0,,5,,,77,127
33322,note_off,127,0,0,,5,,,77,127
33323,note_on,1,0,0,,2,,,74,127
33450,note_off,127,0,0,,2,,,74,127
33450,note_off,0,0,0,,11,,,58,127
33451,note_on,1,0,0,,0,,,60,127
33451,note_on,0,0,0,,10,,,69,127
33578,note_off,127,0,0,,10,,,69,127
33578,note_off,0,0,0,,0,,,60,127
33579,note_on,1,0,0,,2,,,62,127
33579,note_on,0,0,0,,11,,,70,127
33706,note_off,127,0,0,,11,,,70,127
33707,note_on,1,0,0,,11,,,82,127
33834,note_off,127,0,0,,11,,,82,127
33834,note_off,0,0,0,,2,,,62,127
33835,note_on,1,0,0,,3,,,63,127
33835,note_on,0,0,0,,7,,,79,127
33962,note_off,127,0,0,,7,,,79,127
33963,note_on,1,0,0,,3,,,75,127
34090,note_off,127,0,0,,3,,,75,127
34090,note_off,0,0,0,,3,,,63,127
34091,note_on,1,0,0,,5,,,65,127
34091,note_on,0,0,0,,2,,,74,127
34218,note_off,127,0,0,,2,,,74,127
34219,note_on,1,0,0,,0,,,72,127
34346,note_off,127,0,0,,0,,,72,127
34347,note_on,1,0,0,,5,,,53,127
34347,note_on,0,0,0,,11,,,70,127
34474,note_off,127,0,0,,11,,,70,127
34475,note_off,1,0,0,,5,,,65,127
34475,note_on,0,0,0,,10,,,69,127
34602,note_off,127,0,0,,10,,,69,127
34602,note_off,0,0,0,,5,,,53,127
34603,note_on,1,0,0,,11,,,46,127
34603,note_on,0,0,0,,11,,,70,127
34723,note_off,120,0,0,,11,,,46,127
34731,note_on,8,0,0,,11,,,46,127
34851,note_off,120,0,0,,11,,,46,127
34859,note_on,8,0,0,,11,,,46,127
34859,note_on,0,0,0,,2,,,74,127
34859,note_on,0,0,0,,11,,,82,127
34979,note_off,120,0,0,,11,,,46,127
34987,note_on,8,0,0,,11,,,46,127
35107,note_off,120,0,0,,11,,,46,127
35114,note_off,7,0,0,,11,,,82,127
35114,note_off,0,0,0,,2,,,74,127
35115,note_on,1,0,0,,11,,,46,127
35115,note_on,0,0,0,,8,,,80,127
35115,note_on,0,0,0,,5,,,77,127
35235,note_off,120,0,0,,11,,,46,127
35243,note_on,8,0,0,,11,,,46,127
35363,note_off,120,0,0,,11,,,46,127
35370,note_off,7,0,0,,5,,,77,127
35370,note_off,0,0,0,,8,,,80,127
35371,note_on,1,0,0,,11,,,46,127
35371,note_on,0,0,0,,3,,,75,127
35371,note_on,0,0,0,,7,,,79,127
35491,note_off,120,0,0,,11,,,46,127
35499,note_on,8,0,0,,11,,,46,127
35619,note_off,120,0,0,,11,,,46,127
35626,note_off,7,0,0,,7,,,79,127
35626,note_off,0,0,0,,3,,,75,127
35626,note_off,0,0,0,,11,,,70,127
35627,note_on,1,0,0,,11,,,46,127
35627,note_on,0,0,0,,10,,,69,127
35627,note_on,0,0,0,,5,,,77,127
35747,note_off,120,0,0,,11,,,46,127
35755,note_on,8,0,0,,11,,,46,127
35875,note_off,120,0,0,,11,,,46,127
35882,note_off,7,0,0,,5,,,77,127
35882,note_off,0,0,0,,10,,,69,127
35883,note_on,1,0,0,,11,,,46,127
35883,note_on,0,0,0,,3,,,75,127
35883,note_on,0,0,0,,0,,,72,127
36003,note_off,120,0,0,,11,,,46,127
36011,note_on,8,0,0,,11,,,46,127
36131,note_off,120,0,0,,11,,,46,127
36138,note_off,7,0,0,,0,,,72,127
36138,note_off,0,0,0,,3,,,75,127
36139,note_on,1,0,0,,11,,,46,127
36139,note_on,0,0,0,,2,,,74,127
36139,note_on,0,0,0,,11,,,70,127
36259,note_off,120,0,0,,11,,,46,127
36267,note_on,8,0,0,,11,,,46,127
36387,note_off,120,0,0,,11,,,46,127
36394,note_off,7,0,0,,11,,,70,127
36394,note_off,0,0,0,,2,,,74,127
36395,note_on,1,0,0,,3,,,51,127
36395,note_on,0,0,0,,3,,,63,127
36395,note_on,0,0,0,,0,,,72,127
36515,note_off,120,0,0,,3,,,51,127
36523,note_on,8,0,0,,3,,,51,127
36643,note_off,120,0,0,,3,,,51,127
36650,note_off,7,0,0,,0,,,72,127
36650,note_off,0,0,0,,3,,,63,127
36651,note_on,1,0,0,,3,,,51,127
36651,note_on,0,0,0,,11,,,70,127
36651,note_on,0,0,0,,7,,,67,127
36771,note_off,120,0,0,,3,,,51,127
36779,note_on,8,0,0,,3,,,51,127
36899,note_off,120,0,0,,3,,,51,127
36906,note_off,7,0,0,,7,,,67,127
36906,note_off,0,0,0,,11,,,70,127
36907,note_on,1,0,0,,5,,,53,127
36907,note_on,0,0,0,,10,,,69,127
37034,note_off,127,0,0,,10,,,69,127
37035,note_on,1,0,0,,7,,,67,127
37162,note_off,127,0,0,,7,,,67,127
37163,note_on,1,0,0,,5,,,65,127
37290,note_off,127,0,0,,5,,,65,127
37290,note_off,0,0,0,,5,,,53,127
37291,note_on,1,0,0,,3,,,51,127
37291,note_on,0,0,0,,10,,,69,127
37418,note_off,127,0,0,,10,,,69,127
37418,note_off,0,0,0,,3,,,51,127
37419,note_on,1,0,0,,2,,,50,127
37419,note_on,0,0,0,,11,,,70,127
37546,note_off,127,0,0,,11,,,70,127
37547,note_on,1,0,0,,5,,,77,127
37674,note_off,127,0,0,,5,,,77,127
37674,note_off,0,0,0,,2,,,50,127
37675,note_on,1,0,0,,3,,,51,127
37675,note_on,0,0,0,,7,,,79,127
37802,note_off,127,0,0,,7,,,79,127
37803,note_on,1,0,0,,3,,,75,127
37930,note_off,127,0,0,,3,,,75,127
37930,note_off,0,0,0,,3,,,51,127
37931,note_on,1,0,0,,5,,,53,127
37931,note_on,0,0,0,,2,,,74,127
38058,note_off,127,0,0,,2,,,74,127
38059,note_on,1,0,0,,0,,,72,127
38186,note_off,127,0,0,,0,,,72,127
38186,note_off,0,0,0,,5,,,53,127
38187,note_on,1,0,0,,5,,,41,127
38187,note_on,0,0,0,,11,,,70,127
38314,note_off,127,0,0,,11,,,70,127
38315,note_on,1,0,0,,10,,,69,127
38442,note_off,127,0,0,,10,,,69,127
38442,note_off,0,0,0,,5,,,41,127
38443,note_on,1,0,0,,11,,,46,127
38443,note_on,0,0,0,,11,,,70,127
38563,note_off,120,0,0,,11,,,46,127
38571,note_on,8,0,0,,11,,,46,127
38691,note_off,120,0,0,,11,,,46,127
38699,note_on,8,0,0,,11,,,46,127
38699,note_on,0,0,0,,11,,,82,127
38699,note_on,0,0,0,,2,,,74,127
38819,note_off,120,0,0,,11,,,46,127
38827,note_on,8,0,0,,11,,,46,127
38947,note_off,120,0,0,,11,,,46,127
38954,note_off,7,0,0,,2,,,74,127
38954,note_off,0,0,0,,11,,,82,127
38955,note_on,1,0,0,,11,,,46,127
38955,note_on,0,0,0,,8,,,80,127
38955,note_on,0,0,0,,5,,,77,127
39075,note_off,120,0,0,,11,,,46,127
39083,note_on,8,0,0,,11,,,46,127
39203,note_off,120,0,0,,11,,,46,127
39210,note_off,7,0,0,,5,,,77,127
39210,note_off,0,0,0,,8,,,80,127
39211,note_on,1,0,0,,11,,,46,127
39211,note_on,0,0,0,,7,,,79,127
39211,note_on,0,0,0,,3,,,75,127
39331,note_off,120,0,0,,11,,,46,127
39339,note_on,8,0,0,,11,,,46,127
39459,note_off,120,0,0,,11,,,46,127
39466,note_off,7,0,0,,3,,,75,127
39466,note_off,0,0,0,,7,,,79,127
39466,note_off,0,0,0,,11,,,70,127
39467,note_on,1,0,0,,11,,,46,127
39467,note_on,0,0,0,,10,,,69,127
39467,note_on,0,0,0,,5,,,77,127
39587,note_off,120,0,0,,11,,,46,127
39595,note_on,8,0,0,,11,,,46,127
39715,note_off,120,0,0,,11,,,46,127
39722,note_off,7,0,0,,5,,,77,127
39722,note_off,0,0,0,,10,,,69,127
39723,note_on,1,0,0,,11,,,46,127
39723,note_on,0,0,0,,3,,,75,127
39723,note_on,0,0,0,,0,,,72,127
39843,note_off,120,0,0,,11,,,46,127
39851,note_on,8,0,0,,11,,,46,127
39971,note_off,120,0,0,,11,,,46,127
39978,note_off,7,0,0,,0,,,72,127
39978,note_off,0,0,0,,3,,,75,127
39979,note_on,1,0,0,,11,,,46,127
39979,note_on,0,0,0,,2,,,74,127
39979,note_on,0,0,0,,11,,,70,127
40099,note_off,120,0,0,,11,,,46,127
40107,note_on,8,0,0,,11,,,46,127
40227,note_off,120,0,0,,11,,,46,127
40234,note_off,7,0,0,,11,,,70,127
40234,note_off,0,0,0,,2,,,74,127
40235,note_on,1,0,0,,3,,,51,127
40235,note_on,0,0,0,,3,,,63,127
40235,note_on,0,0,0,,0,,,72,127
40355,note_off,120,0,0,,3,,,51,127
40363,note_on,8,0,0,,3,,,51,127
40483,note_off,120,0,0,,3,,,51,127
40490,note_off,7,0,0,,0,,,72,127
40490,note_off,0,0,0,,3,,,63,127
40491,note_on,1,0,0,,3,,,51,127
40491,note_on,0,0,0,,11,,,70,127
40491,note_on,0,0,0,,7,,,67,127
40611,note_off,120,0,0,,3,,,51,127
40619,note_on,8,0,0,,3,,,51,127
40739,note_off,120,0,0,,3,,,51,127
40746,note_off,7,0,0,,7,,,67,127
40746,note_off,0,0,0,,11,,,70,127
40747,note_on,1,0,0,,5,,,53,127
40747,note_on,0,0,0,,10,,,69,127
40874,note_off,127,0,0,,10,,,69,127
40875,note_on,1,0,0,,7,,,67,127
41002,note_off,127,0,0,,7,,,67,127
41003,note_on,1,0,0,,5,,,65,127
41130,note_off,127,0,0,,5,,,65,127
41130,note_off,0,0,0,,5,,,53,127
41131,note_on,1,0,0,,3,,,51,127
41131,note_on,0,0,0,,10,,,69,127
41258,note_off,127,0,0,,10,,,69,127
41258,note_off,0,0,0,,3,,,51,127
41259,note_on,1,0,0,,2,,,50,127
41259,note_on,0,0,0,,11,,,70,127
41386,note_off,127,0,0,,11,,,70,127
41387,note_on,1,0,0,,5,,,77,127
41514,note_off,127,0,0,,5,,,77,127
41514,note_off,0,0,0,,2,,,50,127
41515,note_on,1,0,0,,3,,,51,127
41515,note_on,0,0,0,,7,,,79,127
41642,note_off,127,0,0,,7,,,79,127
41643,note_on,1,0,0,,3,,,75,127
41770,note_off,127,0,0,,3,,,75,127
41770,note_off,0,0,0,,3,,,51,127
41771,note_on,1,0,0,,5,,,53,127
41771,note_on,0,0,0,,2,,,74,127
41898,note_off,127,0,0,,2,,,74,127
41899,note_on,1,0,0,,0,,,72,127
42026,note_off,127,0,0,,0,,,72,127
42026,note_off,0,0,0,,5,,,53,127
42027,note_on,1,0,0,,5,,,41,127
42027,note_on,0,0,0,,11,,,70,127
42154,note_off,127,0,0,,11,,,70,127
42155,note_on,1,0,0,,10,,,69,127
42282,note_off,127,0,0,,10,,,69,127
42282,note_off,0,0,0,,5,,,41,127
42283,note_on,1,0,0,,11,,,46,127
42283,note_on,0,0,0,,11,,,82,127
42410,note_off,127,0,0,,11,,,82,127
42411,note_on,1,0,0,,5,,,77,127
42538,note_off,127,0,0,,5,,,77,127
42539,note_on,1,0,0,,2,,,74,127
42666,note_off,127,0,0,,2,,,74,127
42667,note_on,1,0,0,,11,,,70,127
42794,note_off,127,0,0,,11,,,70,127
42795,note_on,1,0,0,,5,,,65,127
42922,note_off,127,0,0,,5,,,65,127
42923,note_on,1,0,0,,2,,,62,127
43050,note_off,127,0,0,,2,,,62,127
43050,note_off,0,0,0,,11,,,46,127
43051,note_on,1,0,0,,11,,,46,127
43051,note_on,0,0,0,,11,,,58,127
43178,note_off,127,0,0,,11,,,58,127
43179,note_on,1,0,0,,5,,,53,127
43306,note_off,127,0,0,,5,,,53,127
43307,note_on,1,0,0,,11,,,58,127
43434,note_off,127,0,0,,11,,,58,127
43435,note_on,1,0,0,,2,,,62,127
43562,note_off,127,0,0,,2,,,62,127
43563,note_on,1,0,0,,5,,,65,127
43690,note_off,127,0,0,,5,,,65,127
43691,note_on,1,0,0,,11,,,70,127
43818,note_off,127,0,0,,11,,,70,127
43818,note_off,0,0,0,,11,,,46,127
43819,note_on,1,0,0,,11,,,34,127
43819,note_on,0,0,0,,0,,,72,127
43862,note_on,43,0,0,,11,,,70,127
43882,note_off,20,0,0,,0,,,72,127
43905,note_on,23,0,0,,0,,,72,127
43925,note_off,20,0,0,,11,,,70,127
43948,note_on,23,0,0,,11,,,70,127
43968,note_off,20,0,0,,0,,,72,127
44455,note_off,487,0,0,,11,,,70,127
44587,note_off,132,0,0,,11,,,34,127
44588,note_on,1,0,0,,11,,,46,127
44715,note_off,127,0,0,,11,,,46,127
44716,note_on,1,0,0,,11,,,58,127
44843,note_off,127,0,0,,11,,,58,127
44844,note_on,1,0,0,,8,,,56,127
44844,note_on,0,0,0,,5,,,65,127
44844,note_on,0,0,0,,2,,,74,127
44971,note_off,127,0,0,,8,,,56,127
44972,note_on,1,0,0,,7,,,55,127
45099,note_off,127,0,0,,7,,,55,127
45099,note_off,0,0,0,,2,,,74,127
45099,note_off,0,0,0,,5,,,65,127
45100,note_on,1,0,0,,5,,,53,127
45100,note_on,0,0,0,,3,,,75,127
45100,note_on,0,0,0,,7,,,67,127
45227,note_off,127,0,0,,5,,,53,127
45228,note_on,1,0,0,,3,,,51,127
45355,note_off,127,0,0,,3,,,51,127
45355,note_off,0,0,0,,7,,,67,127
45355,note_off,0,0,0,,3,,,75,127
45356,note_on,1,0,0,,2,,,50,127
45356,note_on,0,0,0,,8,,,68,127
45356,note_on,0,0,0,,5,,,77,127
45483,note_off,127,0,0,,2,,,50,127
45484,note_on,1,0,0,,0,,,48,127
45611,note_off,127,0,0,,0,,,48,127
45611,note_off,0,0,0,,5,,,77,127
45611,note_off,0,0,0,,8,,,68,127
45612,note_on,1,0,0,,11,,,46,127
45612,note_on,0,0,0,,7,,,79,127
45612,note_on,0,0,0,,11,,,70,127
45739,note_off,127,0,0,,11,,,46,127
45740,note_on,1,0,0,,8,,,44,127
45867,note_off,127,0,0,,8,,,44,127
45867,note_off,0,0,0,,11,,,70,127
45867,note_off,0,0,0,,7,,,79,127
45868,note_on,1,0,0,,7,,,43,127
45868,note_on,0,0,0,,8,,,80,127
45868,note_on,0,0,0,,2,,,74,127
45995,note_off,127,0,0,,7,,,43,127
45996,note_on,1,0,0,,5,,,41,127
46123,note_off,127,0,0,,5,,,41,127
46123,note_off,0,0,0,,2,,,74,127
46123,note_off,0,0,0,,8,,,80,127
46124,note_on,1,0,0,,3,,,39,127
46124,note_on,0,0,0,,3,,,75,127
46124,note_on,0,0,0,,7,,,79,127
46251,note_off,127,0,0,,3,,,39,127
46252,note_on,1,0,0,,11,,,58,127
46379,note_off,127,0,0,,11,,,58,127
46379,note_off,0,0,0,,7,,,79,127
46379,note_off,0,0,0,,3,,,75,127
46380,note_on,1,0,0,,8,,,56,127
46380,note_on,0,0,0,,5,,,65,127
46380,note_on,0,0,0,,2,,,74,127
46507,note_off,127,0,0,,8,,,56,127
46508,note_on,1,0,0,,7,,,55,127
46635,note_off,127,0,0,,7,,,55,127
46635,note_off,0,0,0,,2,,,74,127
46635,note_off,0,0,0,,5,,,65,127
46636,note_on,1,0,0,,5,,,53,127
46636,note_on,0,0,0,,3,,,75,127
46636,note_on,0,0,0,,7,,,67,127
46763,note_off,127,0,0,,5,,,53,127
46764,note_on,1,0,0,,3,,,51,127
46891,note_off,127,0,0,,3,,,51,127
46891,note_off,0,0,0,,7,,,67,127
46891,note_off,0,0,0,,3,,,75,127
46892,note_on,1,0,0,,2,,,50,127
46892,note_on,0,0,0,,8,,,68,127
46892,note_on,0,0,0,,5,,,77,127
47019,note_off,127,0,0,,2,,,50,127
47020,note_on,1,0,0,,0,,,48,127
47147,note_off,127,0,0,,0,,,48,127
47147,note_off,0,0,0,,5,,,77,127
47147,note_off,0,0,0,,8,,,68,127
47148,note_on,1,0,0,,11,,,46,127
47148,note_on,0,0,0,,7,,,79,127
47148,note_on,0,0,0,,11,,,70,127
47275,note_off,127,0,0,,11,,,46,127
47276,note_on,1,0,0,,8,,,44,127
47403,note_off,127,0,0,,8,,,44,127
47403,note_off,0,0,0,,11,,,70,127
47403,note_off,0,0,0,,7,,,79,127
47404,note_on,1,0,0,,7,,,43,127
47404,note_on,0,0,0,,8,,,80,127
47404,note_on,0,0,0,,2,,,74,127
47531,note_off,127,0,0,,7,,,43,127
47532,note_on,1,0,0,,5,,,41,127
47659,note_off,127,0,0,,5,,,41,127
47659,note_off,0,0,0,,2,,,74,127
47659,note_off,0,0,0,,8,,,80,127
47660,note_on,1,0,0,,3,,,39,127
47660,note_on,0,0,0,,7,,,79,127
47660,note_on,0,0,0,,3,,,75,127
47787,note_off,127,0,0,,3,,,75,127
47787,note_off,0,0,0,,7,,,79,127
47788,note_on,1,0,0,,5,,,77,127
47915,note_off,127,0,0,,5,,,77,127
47916,note_on,1,0,0,,3,,,75,127
48043,note_off,127,0,0,,3,,,75,127
48044,note_on,1,0,0,,2,,,74,127
48171,note_off,127,0,0,,2,,,74,127
48172,note_on,1,0,0,,0,,,72,127
48299,note_off,127,0,0,,0,,,72,127
48300,note_on,1,0,0,,11,,,70,127
48427,note_off,127,0,0,,11,,,70,127
48427,note_off,0,0,0,,3,,,39,127
48428,note_on,1,0,0,,5,,,41,127
48428,note_on,0,0,0,,8,,,68,127
48555,note_off,127,0,0,,8,,,68,127
48556,note_on,1,0,0,,7,,,67,127
48683,note_off,127,0,0,,7,,,67,127
48684,note_on,1,0,0,,5,,,65,127
48811,note_off,127,0,0,,5,,,65,127
48812,note_on,1,0,0,,3,,,63,127
48939,note_off,127,0,0,,3,,,63,127
48940,note_on,1,0,0,,2,,,62,127
49067,note_off,127,0,0,,2,,,62,127
49068,note_on,1,0,0,,0,,,60,127
49195,note_off,127,0,0,,0,,,60,127
49195,note_off,0,0,0,,5,,,41,127
49196,note_on,1,0,0,,7,,,43,127
49196,note_on,0,0,0,,12,,,59,127
49324,note_on,128,0,0,,7,,,55,127
49356,note_off,32,0,0,,7,,,43,127
49409,note_off,53,0,0,,12,,,59,127
49450,note_off,41,0,0,,7,,,55,127
49451,note_on,1,0,0,,5,,,53,127
49451,note_on,0,0,0,,12,,,71,127
49451,note_on,0,0,0,,2,,,62,127
49578,note_off,127,0,0,,5,,,53,127
49579,note_on,1,0,0,,3,,,51,127
49706,note_off,127,0,0,,3,,,51,127
49706,note_off,0,0,0,,2,,,62,127
49706,note_off,0,0,0,,12,,,71,127
49707,note_on,1,0,0,,2,,,50,127
49707,note_on,0,0,0,,3,,,63,127
49707,note_on,0,0,0,,0,,,72,127
49834,note_off,127,0,0,,2,,,50,127
49835,note_on,1,0,0,,0,,,48,127
49962,note_off,127,0,0,,0,,,48,127
49962,note_off,0,0,0,,0,,,72,127
49962,note_off,0,0,0,,3,,,63,127
49963,note_on,1,0,0,,12,,,47,127
49963,note_on,0,0,0,,2,,,74,127
49963,note_on,0,0,0,,5,,,65,127
50090,note_off,127,0,0,,12,,,47,127
50091,note_on,1,0,0,,10,,,45,127
50218,note_off,127,0,0,,10,,,45,127
50218,note_off,0,0,0,,5,,,65,127
50218,note_off,0,0,0,,2,,,74,127
50219,note_on,1,0,0,,7,,,43,127
50219,note_on,0,0,0,,7,,,67,127
50219,note_on,0,0,0,,3,,,75,127
50346,note_off,127,0,0,,7,,,43,127
50347,note_on,1,0,0,,5,,,41,127
50474,note_off,127,0,0,,5,,,41,127
50474,note_off,0,0,0,,3,,,75,127
50474,note_off,0,0,0,,7,,,67,127
50475,note_on,1,0,0,,3,,,39,127
50475,note_on,0,0,0,,5,,,77,127
50475,note_on,0,0,0,,12,,,71,127
50602,note_off,127,0,0,,3,,,39,127
50603,note_on,1,0,0,,2,,,38,127
50730,note_off,127,0,0,,2,,,38,127
50730,note_off,0,0,0,,12,,,71,127
50730,note_off,0,0,0,,5,,,77,127
50731,note_on,1,0,0,,0,,,36,127
50731,note_on,0,0,0,,0,,,72,127
50731,note_on,0,0,0,,3,,,75,127
50858,note_off,127,0,0,,0,,,36,127
50859,note_on,1,0,0,,7,,,55,127
50986,note_off,127,0,0,,7,,,55,127
50986,note_off,0,0,0,,3,,,75,127
50986,note_off,0,0,0,,0,,,72,127
50987,note_on,1,0,0,,5,,,53,127
50987,note_on,0,0,0,,12,,,71,127
50987,note_on,0,0,0,,2,,,62,127
51114,note_off,127,0,0,,5,,,53,127
51115,note_on,1,0,0,,3,,,51,127
51242,note_off,127,0,0,,3,,,51,127
51242,note_off,0,0,0,,2,,,62,127
51242,note_off,0,0,0,,12,,,71,127
51243,note_on,1,0,0,,2,,,50,127
51243,note_on,0,0,0,,0,,,72,127
51243,note_on,0,0,0,,3,,,63,127
51370,note_off,127,0,0,,2,,,50,127
51371,note_on,1,0,0,,0,,,48,127
51498,note_off,127,0,0,,0,,,48,127
51498,note_off,0,0,0,,3,,,63,127
51498,note_off,0,0,0,,0,,,72,127
51499,note_on,1,0,0,,12,,,47,127
51499,note_on,0,0,0,,5,,,65,127
51499,note_on,0,0,0,,2,,,74,127
51626,note_off,127,0,0,,12,,,47,127
51627,note_on,1,0,0,,10,,,45,127
51754,note_off,127,0,0,,10,,,45,127
51754,note_off,0,0,0,,2,,,74,127
51754,note_off,0,0,0,,5,,,65,127
51755,note_on,1,0,0,,7,,,43,127
51755,note_on,0,0,0,,3,,,75,127
51755,note_on,0,0,0,,7,,,67,127
51882,note_off,127,0,0,,7,,,43,127
51883,note_on,1,0,0,,5,,,41,127
52010,note_off,127,0,0,,5,,,41,127
52010,note_off,0,0,0,,7,,,67,127
52010,note_off,0,0,0,,3,,,75,127
52011,note_on,1,0,0,,3,,,39,127
52011,note_on,0,0,0,,5,,,77,127
52011,note_on,0,0,0,,12,,,71,127
52138,note_off,127,0,0,,3,,,39,127
52139,note_on,1,0,0,,2,,,38,127
52266,note_off,127,0,0,,2,,,38,127
52266,note_off,0,0,0,,12,,,71,127
52266,note_off,0,0,0,,5,,,77,127
52267,note_on,1,0,0,,0,,,36,127
52267,note_on,0,0,0,,0,,,72,127
52267,note_on,0,0,0,,7,,,79,127
52267,note_on,0,0,0,,3,,,75,127
52394,note_off,127,0,0,,3,,,75,127
52394,note_off,0,0,0,,7,,,79,127
52395,note_on,1,0,0,,5,,,77,127
52522,note_off,127,0,0,,5,,,77,127
52523,note_on,1,0,0,,3,,,75,127
52650,note_off,127,0,0,,3,,,75,127
52651,note_off,1,0,0,,0,,,72,127
52651,note_on,0,0,0,,2,,,74,127
52778,note_off,127,0,0,,2,,,74,127
52779,note_on,1,0,0,,0,,,72,127
52906,note_off,127,0,0,,0,,,72,127
52907,note_on,1,0,0,,11,,,70,127
53034,note_off,127,0,0,,11,,,70,127
53034,note_off,0,0,0,,0,,,36,127
53035,note_on,1,0,0,,5,,,41,127
53035,note_on,0,0,0,,8,,,68,127
53162,note_off,127,0,0,,8,,,68,127
53163,note_on,1,0,0,,7,,,67,127
53290,note_off,127,0,0,,7,,,67,127
53291,note_on,1,0,0,,5,,,65,127
53418,note_off,127,0,0,,5,,,65,127
53419,note_on,1,0,0,,3,,,63,127
53546,note_off,127,0,0,,3,,,63,127
53547,note_on,1,0,0,,2,,,62,127
53674,note_off,127,0,0,,2,,,62,127
53675,note_on,1,0,0,,0,,,60,127
53802,note_off,127,0,0,,0,,,60,127
53802,note_off,0,0,0,,5,,,41,127
53803,note_on,1,0,0,,7,,,43,127
53803,note_on,0,0,0,,12,,,59,127
53930,note_off,127,0,0,,12,,,59,127
53931,note_on,1,0,0,,7,,,79,127
54058,note_off,127,0,0,,7,,,43,127
54059,note_on,1,0,0,,7,,,67,127
54186,note_off,127,0,0,,7,,,79,127
54187,note_on,1,0,0,,2,,,74,127
54314,note_off,127,0,0,,7,,,67,127
54315,note_on,1,0,0,,12,,,71,127
54442,note_off,127,0,0,,2,,,74,127
54443,note_on,1,0,0,,5,,,77,127
54570,note_off,127,0,0,,12,,,71,127
54571,note_on,1,0,0,,0,,,72,127
54698,note_off,127,0,0,,5,,,77,127
54699,note_on,1,0,0,,3,,,75,127
54826,note_off,127,0,0,,0,,,72,127
54827,note_on,1,0,0,,8,,,68,127
54954,note_off,127,0,0,,3,,,75,127
54955,note_on,1,0,0,,2,,,74,127
55082,note_off,127,0,0,,8,,,68,127
55083,note_on,1,0,0,,5,,,65,127
55210,note_off,127,0,0,,2,,,74,127
55211,note_on,1,0,0,,0,,,72,127
55338,note_off,127,0,0,,0,,,72,127
55338,note_off,0,0,0,,5,,,65,127
55339,note_on,1,0,0,,7,,,43,127
55339,note_on,0,0,0,,12,,,71,127
55466,note_off,127,0,0,,12,,,71,127
55467,note_on,1,0,0,,7,,,79,127
55594,note_off,127,0,0,,7,,,43,127
55595,note_on,1,0,0,,7,,,67,127
55722,note_off,127,0,0,,7,,,79,127
55723,note_on,1,0,0,,2,,,74,127
55850,note_off,127,0,0,,7,,,67,127
55851,note_on,1,0,0,,12,,,71,127
55978,note_off,127,0,0,,2,,,74,127
55979,note_on,1,0,0,,5,,,77,127
56106,note_off,127,0,0,,12,,,71,127
56107,note_on,1,0,0,,0,,,72,127
56234,note_off,127,0,0,,5,,,77,127
56235,note_on,1,0,0,,3,,,75,127
56362,note_off,127,0,0,,0,,,72,127
56363,note_on,1,0,0,,8,,,68,127
56490,note_off,127,0,0,,3,,,75,127
56491,note_on,1,0,0,,2,,,74,127
56618,note_off,127,0,0,,8,,,68,127
56619,note_on,1,0,0,,5,,,65,127
56746,note_off,127,0,0,,2,,,74,127
56747,note_on,1,0,0,,0,,,72,127
56874,note_off,127,0,0,,0,,,72,127
56874,note_off,0,0,0,,5,,,65,127
56875,note_on,1,0,0,,7,,,55,127
56875,note_on,0,0,0,,12,,,71,127
57002,note_off,127,0,0,,7,,,55,127
57003,note_on,1,0,0,,7,,,67,127
57130,note_off,127,0,0,,7,,,67,127
57130,note_off,0,0,0,,12,,,71,127
57131,note_on,1,0,0,,12,,,71,127
57131,note_on,0,0,0,,5,,,77,127
57131,note_on,0,0,0,,2,,,86,127
57258,note_off,127,0,0,,12,,,71,127
57259,note_on,1,0,0,,7,,,67,127
57386,note_off,127,0,0,,7,,,67,127
57386,note_off,0,0,0,,2,,,86,127
57386,note_off,0,0,0,,5,,,77,127
57387,note_on,1,0,0,,0,,,72,127
57387,note_on,0,0,0,,3,,,75,127
57387,note_on,0,0,0,,0,,,84,127
57514,note_off,127,0,0,,0,,,72,127
57515,note_on,1,0,0,,0,,,60,127
57642,note_off,127,0,0,,0,,,60,127
57643,note_on,1,0,0,,7,,,55,127
57770,note_off,127,0,0,,7,,,55,127
57771,note_on,1,0,0,,7,,,67,127
57898,note_off,127,0,0,,7,,,67,127
57898,note_off,0,0,0,,0,,,84,127
57898,note_off,0,0,0,,3,,,75,127
57899,note_on,1,0,0,,12,,,71,127
57899,note_on,0,0,0,,5,,,77,127
57899,note_on,0,0,0,,2,,,86,127
58026,note_off,127,0,0,,12,,,71,127
58027,note_on,1,0,0,,7,,,67,127
58154,note_off,127,0,0,,7,,,67,127
58154,note_off,0,0,0,,2,,,86,127
58154,note_off,0,0,0,,5,,,77,127
58155,note_on,1,0,0,,0,,,72,127
58155,note_on,0,0,0,,0,,,84,127
58155,note_on,0,0,0,,3,,,75,127
58282,note_off,127,0,0,,0,,,72,127
58283,note_on,1,0,0,,0,,,60,127
58410,note_off,127,0,0,,0,,,60,127
58411,note_on,1,0,0,,5,,,53,127
58538,note_off,127,0,0,,5,,,53,127
58539,note_on,1,0,0,,5,,,65,127
58666,note_off,127,0,0,,5,,,65,127
58666,note_off,0,0,0,,3,,,75,127
58666,note_off,0,0,0,,0,,,84,127
58667,note_on,1,0,0,,8,,,68,127
58667,note_on,0,0,0,,0,,,84,127
58667,note_on,0,0,0,,3,,,75,127
58794,note_off,127,0,0,,8,,,68,127
58795,note_on,1,0,0,,5,,,65,127
58922,note_off,127,0,0,,5,,,65,127
58922,note_off,0,0,0,,3,,,75,127
58922,note_off,0,0,0,,0,,,84,127
58923,note_on,1,0,0,,11,,,70,127
58923,note_on,0,0,0,,2,,,74,127
58923,note_on,0,0,0,,11,,,82,127
59050,note_off,127,0,0,,11,,,70,127
59051,note_on,1,0,0,,11,,,58,127
59178,note_off,127,0,0,,11,,,58,127
59179,note_on,1,0,0,,3,,,51,127
59306,note_off,127,0,0,,3,,,51,127
59307,note_on,1,0,0,,3,,,63,127
59434,note_off,127,0,0,,3,,,63,127
59434,note_off,0,0,0,,11,,,82,127
59434,note_off,0,0,0,,2,,,74,127
59435,note_on,1,0,0,,7,,,67,127
59435,note_on,0,0,0,,11,,,82,127
59435,note_on,0,0,0,,2,,,74,127
59562,note_off,127,0,0,,7,,,67,127
59563,note_on,1,0,0,,3,,,63,127
59690,note_off,127,0,0,,3,,,63,127
59690,note_off,0,0,0,,2,,,74,127
59690,note_off,0,0,0,,11,,,82,127
59691,note_on,1,0,0,,8,,,68,127
59691,note_on,0,0,0,,8,,,80,127
59691,note_on,0,0,0,,0,,,72,127
59818,note_off,127,0,0,,8,,,68,127
59819,note_on,1,0,0,,8,,,56,127
59946,note_off,127,0,0,,8,,,56,127
59947,note_on,1,0,0,,2,,,50,127
60074,note_off,127,0,0,,2,,,50,127
60075,note_on,1,0,0,,2,,,62,127
60202,note_off,127,0,0,,2,,,62,127
60202,note_off,0,0,0,,0,,,72,127
60202,note_off,0,0,0,,8,,,80,127
60203,note_on,1,0,0,,5,,,65,127
60203,note_on,0,0,0,,8,,,80,127
60203,note_on,0,0,0,,0,,,72,127
60330,note_off,127,0,0,,5,,,65,127
60331,note_on,1,0,0,,2,,,62,127
60458,note_off,127,0,0,,2,,,62,127
60458,note_off,0,0,0,,0,,,72,127
60458,note_off,0,0,0,,8,,,80,127
60459,note_on,1,0,0,,7,,,67,127
60459,note_on,0,0,0,,11,,,70,127
60459,note_on,0,0,0,,7,,,79,127
60586,note_off,127,0,0,,7,,,67,127
60587,note_on,1,0,0,,7,,,55,127
60714,note_off,127,0,0,,7,,,55,127
60715,note_on,1,0,0,,0,,,48,127
60842,note_off,127,0,0,,0,,,48,127
60843,note_on,1,0,0,,0,,,60,127
60970,note_off,127,0,0,,0,,,60,127
60970,note_off,0,0,0,,7,,,79,127
60970,note_off,0,0,0,,11,,,70,127
60971,note_on,1,0,0,,3,,,63,127
60971,note_on,0,0,0,,11,,,70,127
60971,note_on,0,0,0,,7,,,79,127
61098,note_off,127,0,0,,3,,,63,127
61099,note_on,1,0,0,,0,,,60,127
61226,note_off,127,0,0,,0,,,60,127
61226,note_off,0,0,0,,7,,,79,127
61226,note_off,0,0,0,,11,,,70,127
61227,note_on,1,0,0,,5,,,65,127
61227,note_on,0,0,0,,8,,,68,127
61227,note_on,0,0,0,,5,,,77,127
61354,note_off,127,0,0,,5,,,65,127
61355,note_on,1,0,0,,5,,,53,127
61482,note_off,127,0,0,,5,,,53,127
61483,note_on,1,0,0,,11,,,46,127
61610,note_off,127,0,0,,11,,,46,127
61611,note_on,1,0,0,,11,,,58,127
61738,note_off,127,0,0,,11,,,58,127
61738,note_off,0,0,0,,5,,,77,127
61738,note_off,0,0,0,,8,,,68,127
61739,note_on,1,0,0,,2,,,62,127
61739,note_on,0,0,0,,5,,,77,127
61739,note_on,0,0,0,,8,,,68,127
61866,note_off,127,0,0,,2,,,62,127
61867,note_on,1,0,0,,11,,,58,127
61994,note_off,127,0,0,,11,,,58,127
61994,note_off,0,0,0,,8,,,68,127
61994,note_off,0,0,0,,5,,,77,127
61995,note_on,1,0,0,,3,,,63,127
61995,note_on,0,0,0,,7,,,67,127
61995,note_on,0,0,0,,3,,,75,127
62122,note_off,127,0,0,,3,,,63,127
62123,note_on,1,0,0,,3,,,51,127
62250,note_off,127,0,0,,3,,,51,127
62251,note_on,1,0,0,,8,,,44,127
62378,note_off,127,0,0,,3,,,75,127
62378,note_off,0,0,0,,7,,,67,127
62379,note_on,1,0,0,,2,,,74,127
62506,note_off,127,0,0,,2,,,74,127
62507,note_on,1,0,0,,0,,,72,127
62634,note_off,127,0,0,,0,,,72,127
62635,note_on,1,0,0,,11,,,70,127
62762,note_off,127,0,0,,11,,,70,127
62762,note_off,0,0,0,,8,,,44,127
62763,note_on,1,0,0,,8,,,56,127
62763,note_on,0,0,0,,8,,,68,127
62890,note_off,127,0,0,,8,,,68,127
62891,note_on,1,0,0,,7,,,67,127
63018,note_off,127,0,0,,7,,,67,127
63018,note_off,0,0,0,,8,,,56,127
63019,note_on,1,0,0,,11,,,58,127
63019,note_on,0,0,0,,5,,,65,127
63146,note_off,127,0,0,,5,,,65,127
63147,note_on,1,0,0,,11,,,82,127
63274,note_off,127,0,0,,11,,,82,127
63275,note_on,1,0,0,,11,,,70,127
63402,note_off,127,0,0,,11,,,58,127
63403,note_on,1,0,0,,5,,,65,127
63530,note_off,127,0,0,,5,,,65,127
63531,note_on,1,0,0,,2,,,62,127
63595,note_off,64,0,0,,11,,,70,127
63595,note_on,0,0,0,,8,,,68,127
63658,note_off,63,0,0,,8,,,68,127
63658,note_off,0,0,0,,2,,,62,127
63659,note_on,1,0,0,,11,,,58,127
63659,note_on,0,0,0,,7,,,67,127
63722,note_off,63,0,0,,7,,,67,127
63723,note_on,1,0,0,,8,,,68,127
63786,note_off,63,0,0,,8,,,68,127
63786,note_off,0,0,0,,11,,,58,127
63787,note_on,1,0,0,,3,,,63,127
63787,note_on,0,0,0,,7,,,67,127
63914,note_off,127,0,0,,7,,,67,127
63915,note_on,1,0,0,,3,,,87,127
64042,note_off,127,0,0,,3,,,87,127
64043,note_on,1,0,0,,11,,,70,127
64170,note_off,127,0,0,,3,,,63,127
64171,note_on,1,0,0,,7,,,67,127
64298,note_off,127,0,0,,7,,,67,127
64299,note_on,1,0,0,,5,,,65,127
64363,note_off,64,0,0,,11,,,70,127
64363,note_on,0,0,0,,8,,,68,127
64426,note_off,63,0,0,,8,,,68,127
64426,note_off,0,0,0,,5,,,65,127
64427,note_on,1,0,0,,11,,,58,127
64427,note_on,0,0,0,,7,,,67,127
64490,note_off,63,0,0,,7,,,67,127
64491,note_on,1,0,0,,8,,,68,127
64554,note_off,63,0,0,,8,,,68,127
64554,note_off,0,0,0,,11,,,58,127
64555,note_on,1,0,0,,3,,,63,127
64555,note_on,0,0,0,,7,,,67,127
64682,note_off,127,0,0,,7,,,67,127
64683,note_on,1,0,0,,3,,,87,127
64810,note_off,127,0,0,,3,,,87,127
64811,note_on,1,0,0,,11,,,70,127
64938,note_off,127,0,0,,3,,,63,127
64939,note_on,1,0,0,,7,,,67,127
65066,note_off,127,0,0,,7,,,67,127
65067,note_on,1,0,0,,5,,,65,127
65131,note_off,64,0,0,,11,,,70,127
65131,note_on,0,0,0,,8,,,68,127
65194,note_off,63,0,0,,8,,,68,127
65194,note_off,0,0,0,,5,,,65,127
65195,note_on,1,0,0,,11,,,58,127
65195,note_on,0,0,0,,7,,,67,127
65258,note_off,63,0,0,,7,,,67,127
65259,note_on,1,0,0,,8,,,68,127
65322,note_off,63,0,0,,8,,,68,127
65322,note_off,0,0,0,,11,,,58,127
65323,note_on,1,0,0,,3,,,51,127
65323,note_on,0,0,0,,7,,,67,127
65450,note_off,127,0,0,,7,,,67,127
65451,note_on,1,0,0,,11,,,82,127
65578,note_off,127,0,0,,11,,,82,127
65579,note_on,1,0,0,,7,,,79,127
65706,note_off,127,0,0,,7,,,79,127
65706,note_off,0,0,0,,3,,,51,127
65707,note_on,1,0,0,,5,,,53,127
65707,note_on,0,0,0,,2,,,74,127
65834,note_off,127,0,0,,2,,,74,127
65834,note_off,0,0,0,,5,,,53,127
65835,note_on,1,0,0,,7,,,55,127
65835,note_on,0,0,0,,3,,,75,127
65962,note_off,127,0,0,,3,,,75,127
65963,note_on,1,0,0,,7,,,79,127
66090,note_off,127,0,0,,7,,,79,127
66090,note_off,0,0,0,,7,,,55,127
66091,note_on,1,0,0,,8,,,56,127
66091,note_on,0,0,0,,5,,,77,127
66218,note_off,127,0,0,,5,,,77,127
66219,note_on,1,0,0,,8,,,80,127
66346,note_off,127,0,0,,8,,,80,127
66346,note_off,0,0,0,,8,,,56,127
66347,note_on,1,0,0,,11,,,58,127
66347,note_on,0,0,0,,7,,,79,127
66474,note_off,127,0,0,,7,,,79,127
66475,note_on,1,0,0,,5,,,77,127
66602,note_off,127,0,0,,5,,,77,127
66602,note_off,0,0,0,,11,,,58,127
66603,note_on,1,0,0,,11,,,46,127
66603,note_on,0,0,0,,3,,,75,127
66730,note_off,127,0,0,,3,,,75,127
66731,note_on,1,0,0,,2,,,74,127
66858,note_off,127,0,0,,2,,,74,127
66858,note_off,0,0,0,,11,,,46,127
66859,note_on,1,0,0,,3,,,51,127
66859,note_on,0,0,0,,3,,,75,127
66986,note_off,127,0,0,,3,,,75,127
66987,note_on,1,0,0,,11,,,82,127
67114,note_off,127,0,0,,11,,,82,127
67115,note_on,1,0,0,,11,,,70,127
67242,note_off,127,0,0,,3,,,51,127
67243,note_on,1,0,0,,7,,,67,127
67370,note_off,127,0,0,,7,,,67,127
67371,note_on,1,0,0,,5,,,65,127
67435,note_off,64,0,0,,11,,,70,127
67435,note_on,0,0,0,,8,,,68,127
67498,note_off,63,0,0,,8,,,68,127
67498,note_off,0,0,0,,5,,,65,127
67499,note_on,1,0,0,,11,,,58,127
67499,note_on,0,0,0,,7,,,67,127
67562,note_off,63,0,0,,7,,,67,127
67563,note_on,1,0,0,,8,,,68,127
67626,note_off,63,0,0,,8,,,68,127
67626,note_off,0,0,0,,11,,,58,127
67627,note_on,1,0,0,,3,,,63,127
67627,note_on,0,0,0,,7,,,67,127
67754,note_off,127,0,0,,7,,,67,127
67755,note_on,1,0,0,,3,,,87,127
67882,note_off,127,0,0,,3,,,87,127
67883,note_on,1,0,0,,11,,,70,127
68010,note_off,127,0,0,,3,,,63,127
68011,note_on,1,0,0,,7,,,67,127
68138,note_off,127,0,0,,7,,,67,127
68139,note_on,1,0,0,,5,,,65,127
68203,note_off,64,0,0,,11,,,70,127
68203,note_on,0,0,0,,8,,,68,127
68266,note_off,63,0,0,,8,,,68,127
68266,note_off,0,0,0,,5,,,65,127
68267,note_on,1,0,0,,11,,,58,127
68267,note_on,0,0,0,,7,,,67,127
68330,note_off,63,0,0,,7,,,67,127
68331,note_on,1,0,0,,8,,,68,127
68394,note_off,63,0,0,,8,,,68,127
68394,note_off,0,0,0,,11,,,58,127
68395,note_on,1,0,0,,3,,,51,127
68395,note_on,0,0,0,,7,,,67,127
68522,note_off,127,0,0,,7,,,67,127
68523,note_on,1,0,0,,11,,,82,127
68650,note_off,127,0,0,,11,,,82,127
68651,note_on,1,0,0,,7,,,79,127
68778,note_off,127,0,0,,7,,,79,127
68778,note_off,0,0,0,,3,,,51,127
68779,note_on,1,0,0,,5,,,53,127
68779,note_on,0,0,0,,2,,,74,127
68906,note_off,127,0,0,,2,,,74,127
68906,note_off,0,0,0,,5,,,53,127
68907,note_on,1,0,0,,7,,,55,127
68907,note_on,0,0,0,,3,,,75,127
69034,note_off,127,0,0,,3,,,75,127
69035,note_on,1,0,0,,7,,,79,127
69162,note_off,127,0,0,,7,,,79,127
69162,note_off,0,0,0,,7,,,55,127
69163,note_on,1,0,0,,8,,,56,127
69163,note_on,0,0,0,,5,,,77,127
69290,note_off,127,0,0,,5,,,77,127
69291,note_on,1,0,0,,8,,,80,127
69418,note_off,127,0,0,,8,,,80,127
69418,note_off,0,0,0,,8,,,56,127
69419,note_on,1,0,0,,11,,,58,127
69419,note_on,0,0,0,,7,,,79,127
69546,note_off,127,0,0,,7,,,79,127
69547,note_on,1,0,0,,5,,,77,127
69674,note_off,127,0,0,,5,,,77,127
69674,note_off,0,0,0,,11,,,58,127
69675,note_on,1,0,0,,11,,,46,127
69675,note_on,0,0,0,,3,,,75,127
69802,note_off,127,0,0,,3,,,75,127
69803,note_on,1,0,0,,2,,,74,127
69930,note_off,127,0,0,,2,,,74,127
69930,note_off,0,0,0,,11,,,46,127
69931,note_on,1,0,0,,3,,,51,127
69931,note_on,0,0,0,,3,,,75,127
70051,note_off,120,0,0,,3,,,51,127
70059,note_on,8,0,0,,3,,,51,127
70179,note_off,120,0,0,,3,,,51,127
70187,note_on,8,0,0,,3,,,51,127
70187,note_on,0,0,0,,7,,,79,127
70187,note_on,0,0,0,,3,,,87,127
70307,note_off,120,0,0,,3,,,51,127
70315,note_on,8,0,0,,3,,,51,127
70435,note_off,120,0,0,,3,,,51,127
70442,note_off,7,0,0,,3,,,87,127
70442,note_off,0,0,0,,7,,,79,127
70443,note_on,1,0,0,,3,,,51,127
70443,note_on,0,0,0,,11,,,82,127
70443,note_on,0,0,0,,1,,,85,127
70563,note_off,120,0,0,,3,,,51,127
70571,note_on,8,0,0,,3,,,51,127
70691,note_off,120,0,0,,3,,,51,127
70698,note_off,7,0,0,,1,,,85,127
70698,note_off,0,0,0,,11,,,82,127
70699,note_on,1,0,0,,3,,,51,127
70699,note_on,0,0,0,,0,,,84,127
70699,note_on,0,0,0,,8,,,80,127
70819,note_off,120,0,0,,3,,,51,127
70827,note_on,8,0,0,,3,,,51,127
70947,note_off,120,0,0,,3,,,51,127
70954,note_off,7,0,0,,8,,,80,127
70954,note_off,0,0,0,,0,,,84,127
70954,note_off,0,0,0,,3,,,75,127
70955,note_on,1,0,0,,3,,,51,127
70955,note_on,0,0,0,,2,,,74,127
70955,note_on,0,0,0,,11,,,82,127
71075,note_off,120,0,0,,3,,,51,127
71083,note_on,8,0,0,,3,,,51,127
71203,note_off,120,0,0,,3,,,51,127
71210,note_off,7,0,0,,11,,,82,127
71210,note_off,0,0,0,,2,,,74,127
71211,note_on,1,0,0,,3,,,51,127
71211,note_on,0,0,0,,5,,,77,127
71211,note_on,0,0,0,,8,,,80,127
71331,note_off,120,0,0,,3,,,51,127
71339,note_on,8,0,0,,3,,,51,127
71459,note_off,120,0,0,,3,,,51,127
71466,note_off,7,0,0,,8,,,80,127
71466,note_off,0,0,0,,5,,,77,127
71467,note_on,1,0,0,,3,,,51,127
71467,note_on,0,0,0,,7,,,79,127
71467,note_on,0,0,0,,3,,,75,127
71587,note_off,120,0,0,,3,,,51,127
71595,note_on,8,0,0,,3,,,51,127
71715,note_off,120,0,0,,3,,,51,127
71722,note_off,7,0,0,,3,,,75,127
71722,note_off,0,0,0,,7,,,79,127
71723,note_on,1,0,0,,8,,,56,127
71723,note_on,0,0,0,,8,,,68,127
71723,note_on,0,0,0,,5,,,77,127
71843,note_off,120,0,0,,8,,,56,127
71851,note_on,8,0,0,,8,,,56,127
71971,note_off,120,0,0,,8,,,56,127
71978,note_off,7,0,0,,5,,,77,127
71978,note_off,0,0,0,,8,,,68,127
71979,note_on,1,0,0,,8,,,56,127
71979,note_on,0,0,0,,3,,,75,127
71979,note_on,0,0,0,,0,,,72,127
72099,note_off,120,0,0,,8,,,56,127
72107,note_on,8,0,0,,8,,,56,127
72227,note_off,120,0,0,,8,,,56,127
72234,note_off,7,0,0,,0,,,72,127
72234,note_off,0,0,0,,3,,,75,127
72235,note_on,1,0,0,,11,,,58,127
72235,note_on,0,0,0,,2,,,74,127
72362,note_off,127,0,0,,2,,,74,127
72363,note_on,1,0,0,,0,,,72,127
72490,note_off,127,0,0,,0,,,72,127
72491,note_on,1,0,0,,11,,,70,127
72618,note_off,127,0,0,,11,,,70,127
72618,note_off,0,0,0,,11,,,58,127
72619,note_on,1,0,0,,8,,,56,127
72619,note_on,0,0,0,,2,,,74,127
72746,note_off,127,0,0,,2,,,74,127
72746,note_off,0,0,0,,8,,,56,127
72747,note_on,1,0,0,,7,,,55,127
72747,note_on,0,0,0,,3,,,75,127
72874,note_off,127,0,0,,3,,,75,127
72875,note_on,1,0,0,,7,,,79,127
73002,note_off,127,0,0,,7,,,79,127
73002,note_off,0,0,0,,7,,,55,127
73003,note_on,1,0,0,,8,,,56,127
73003,note_on,0,0,0,,5,,,77,127
73130,note_off,127,0,0,,5,,,77,127
73131,note_on,1,0,0,,8,,,80,127
73258,note_off,127,0,0,,8,,,80,127
73258,note_off,0,0,0,,8,,,56,127
73259,note_on,1,0,0,,11,,,58,127
73259,note_on,0,0,0,,7,,,79,127
73386,note_off,127,0,0,,7,,,79,127
73387,note_on,1,0,0,,5,,,77,127
73514,note_off,127,0,0,,5,,,77,127
73514,note_off,0,0,0,,11,,,58,127
73515,note_on,1,0,0,,11,,,46,127
73515,note_on,0,0,0,,3,,,75,127
73642,note_off,127,0,0,,3,,,75,127
73643,note_on,1,0,0,,2,,,74,127
73770,note_off,127,0,0,,2,,,74,127
73770,note_off,0,0,0,,11,,,46,127
73771,note_on,1,0,0,,3,,,75,127
73771,note_on,0,0,0,,3,,,39,127
73891,note_off,120,0,0,,3,,,39,127
73900,note_on,9,0,0,,3,,,39,127
74020,note_off,120,0,0,,3,,,39,127
74025,note_off,5,0,0,,3,,,75,127
74029,note_on,4,0,0,,7,,,67,127
74029,note_on,0,0,0,,3,,,75,127
74029,note_on,0,0,0,,3,,,39,127
74149,note_off,120,0,0,,3,,,39,127
74158,note_on,9,0,0,,3,,,39,127
74278,note_off,120,0,0,,3,,,39,127
74283,note_off,5,0,0,,3,,,75,127
74283,note_off,0,0,0,,7,,,67,127
74287,note_on,4,0,0,,11,,,70,127
74287,note_on,0,0,0,,1,,,73,127
74287,note_on,0,0,0,,3,,,39,127
74407,note_off,120,0,0,,3,,,39,127
74416,note_on,9,0,0,,3,,,39,127
74536,note_off,120,0,0,,3,,,39,127
74541,note_off,5,0,0,,1,,,73,127
74541,note_off,0,0,0,,11,,,70,127
74545,note_on,4,0,0,,8,,,68,127
74545,note_on,0,0,0,,0,,,72,127
74545,note_on,0,0,0,,3,,,39,127
74665,note_off,120,0,0,,3,,,39,127
74674,note_on,9,0,0,,3,,,39,127
74794,note_off,120,0,0,,3,,,39,127
74799,note_off,5,0,0,,0,,,72,127
74799,note_off,0,0,0,,8,,,68,127
74803,note_on,4,0,0,,11,,,70,127
74803,note_on,0,0,0,,2,,,62,127
74803,note_on,0,0,0,,3,,,39,127
74923,note_off,120,0,0,,3,,,39,127
74931,note_on,8,0,0,,3,,,39,127
75051,note_off,120,0,0,,3,,,39,127
75058,note_off,7,0,0,,2,,,62,127
75058,note_off,0,0,0,,11,,,70,127
75061,note_on,3,0,0,,5,,,65,127
75061,note_on,0,0,0,,8,,,68,127
75061,note_on,0,0,0,,3,,,39,127
75181,note_off,120,0,0,,3,,,39,127
75190,note_on,9,0,0,,3,,,39,127
75310,note_off,120,0,0,,3,,,39,127
75315,note_off,5,0,0,,8,,,68,127
75315,note_off,0,0,0,,5,,,65,127
75319,note_on,4,0,0,,3,,,63,127
75319,note_on,0,0,0,,7,,,67,127
75319,note_on,0,0,0,,3,,,39,127
75439,note_off,120,0,0,,3,,,39,127
75448,note_on,9,0,0,,3,,,39,127
75568,note_off,120,0,0,,3,,,39,127
75573,note_off,5,0,0,,7,,,67,127
75573,note_off,0,0,0,,3,,,63,127
75577,note_on,4,0,0,,5,,,65,127
75577,note_on,0,0,0,,8,,,56,127
75577,note_on,0,0,0,,8,,,44,127
75697,note_off,120,0,0,,8,,,44,127
75706,note_on,9,0,0,,8,,,44,127
75826,note_off,120,0,0,,8,,,44,127
75831,note_off,5,0,0,,8,,,56,127
75831,note_off,0,0,0,,5,,,65,127
75835,note_on,4,0,0,,0,,,60,127
75835,note_on,0,0,0,,3,,,63,127
75835,note_on,0,0,0,,8,,,44,127
75955,note_off,120,0,0,,8,,,44,127
75964,note_on,9,0,0,,8,,,44,127
76084,note_off,120,0,0,,8,,,44,127
76089,note_off,5,0,0,,3,,,63,127
76089,note_off,0,0,0,,0,,,60,127
76093,note_on,4,0,0,,2,,,62,127
76093,note_on,0,0,0,,11,,,46,127
76220,note_off,127,0,0,,2,,,62,127
76223,note_on,3,0,0,,0,,,60,127
76350,note_off,127,0,0,,0,,,60,127
76353,note_on,3,0,0,,11,,,58,127
76477,note_off,124,0,0,,11,,,46,127
76480,note_off,3,0,0,,11,,,58,127
76483,note_on,3,0,0,,2,,,62,127
76483,note_on,0,0,0,,8,,,44,127
76610,note_off,127,0,0,,8,,,44,127
76610,note_off,0,0,0,,2,,,62,127
76613,note_on,3,0,0,,3,,,63,127
76613,note_on,0,0,0,,7,,,43,127
76740,note_off,127,0,0,,3,,,63,127
76743,note_on,3,0,0,,7,,,67,127
76868,note_off,125,0,0,,7,,,43,127
76869,note_off,1,0,0,,7,,,67,127
76872,note_on,3,0,0,,5,,,65,127
76872,note_on,0,0,0,,8,,,44,127
76999,note_off,127,0,0,,5,,,65,127
77002,note_on,3,0,0,,8,,,68,127
77127,note_off,125,0,0,,8,,,44,127
77128,note_off,1,0,0,,8,,,68,127
77131,note_on,3,0,0,,7,,,67,127
77131,note_on,0,0,0,,11,,,46,127
77258,note_off,127,0,0,,7,,,67,127
77261,note_on,3,0,0,,5,,,65,127
77386,note_off,125,0,0,,11,,,46,127
77387,note_off,1,0,0,,5,,,65,127
77390,note_on,3,0,0,,3,,,63,127
77390,note_on,0,0,0,,11,,,34,127
77517,note_off,127,0,0,,3,,,63,127
77520,note_on,3,0,0,,2,,,62,127
77645,note_off,125,0,0,,11,,,34,127
77646,note_off,1,0,0,,2,,,62,127
77650,note_on,4,0,0,,3,,,39,127
77650,note_on,0,0,0,,3,,,63,127
77779,note_off,129,0,0,,3,,,63,127
77783,note_on,4,0,0,,7,,,67,127
77912,note_off,129,0,0,,7,,,67,127
77916,note_on,4,0,0,,11,,,70,127
78045,note_off,129,0,0,,11,,,70,127
78049,note_on,4,0,0,,3,,,75,127
78178,note_off,129,0,0,,3,,,75,127
78181,note_on,3,0,0,,7,,,79,127
78310,note_off,129,0,0,,7,,,79,127
78314,note_on,4,0,0,,11,,,82,127
78438,note_off,124,0,0,,3,,,39,127
78443,note_off,5,0,0,,11,,,82,127
78447,note_on,4,0,0,,3,,,39,127
78447,note_on,0,0,0,,5,,,77,127
78492,note_on,45,0,0,,3,,,75,127
78512,note_off,20,0,0,,5,,,77,127
78536,note_on,24,0,0,,5,,,77,127
78557,note_off,21,0,0,,3,,,75,127
78580,note_on,23,0,0,,3,,,75,127
78601,note_off,21,0,0,,5,,,77,127
80509,note_off,1908,0,0,,3,,,75,127
80509,note_off,0,0,0,,3,,,39,127
84480,end_of_track,3971,1,0,,,,,,
