tick,type,time,meta,track,program,channel,pitch,tempo,note,velocity
0,copyright,0,1,0,,,,,,
0,program_change,0,0,0,6,0,,,,
0,pitchwheel,0,0,0,,0,0,,,
0,program_change,0,0,0,6,1,,,,
0,pitchwheel,0,0,0,,1,-590,,,
0,program_change,0,0,0,6,2,,,,
0,pitchwheel,0,0,0,,2,-272,,,
0,program_change,0,0,0,6,3,,,,
0,pitchwheel,0,0,0,,3,-353,,,
0,program_change,0,0,0,6,4,,,,
0,pitchwheel,0,0,0,,4,-560,,,
0,program_change,0,0,0,6,5,,,,
0,pitchwheel,0,0,0,,5,-80,,,
0,program_change,0,0,0,6,6,,,,
0,pitchwheel,0,0,0,,6,-625,,,
0,program_change,0,0,0,6,7,,,,
0,pitchwheel,0,0,0,,7,-130,,,
0,program_change,0,0,0,6,8,,,,
0,pitchwheel,0,0,0,,8,-512,,,
0,program_change,0,0,0,6,10,,,,
0,pitchwheel,0,0,0,,10,-464,,,
0,program_change,0,0,0,6,11,,,,
0,pitchwheel,0,0,0,,11,-208,,,
0,program_change,0,0,0,6,12,,,,
0,pitchwheel,0,0,0,,12,-553,,,
0,set_tempo,0,1,0,,,,500000,,
27,note_on,27,0,0,,7,,,79,127
190,note_off,163,0,0,,7,,,79,127
192,note_on,2,0,0,,2,,,74,127
355,note_off,163,0,0,,2,,,74,127
357,note_on,2,0,0,,2,,,74,127
520,note_off,163,0,0,,2,,,74,127
522,note_on,2,0,0,,2,,,74,127
685,note_off,163,0,0,,2,,,74,127
687,note_on,2,0,0,,2,,,74,127
850,note_off,163,0,0,,2,,,74,127
852,note_on,2,0,0,,12,,,71,127
1015,note_off,163,0,0,,12,,,71,127
1017,note_on,2,0,0,,7,,,67,127
1180,note_off,163,0,0,,7,,,67,127
1182,note_on,2,0,0,,2,,,74,127
1345,note_off,163,0,0,,2,,,74,127
1347,note_on,2,0,0,,7,,,79,127
1510,note_off,163,0,0,,7,,,79,127
1512,note_on,2,0,0,,2,,,74,127
1675,note_off,163,0,0,,2,,,74,127
1677,note_on,2,0,0,,2,,,74,127
1840,note_off,163,0,0,,2,,,74,127
1842,note_on,2,0,0,,12,,,71,127
2005,note_off,163,0,0,,12,,,71,127
2007,note_on,2,0,0,,7,,,67,127
2170,note_off,163,0,0,,7,,,67,127
2172,note_on,2,0,0,,2,,,74,127
2335,note_off,163,0,0,,2,,,74,127
2337,note_on,2,0,0,,7,,,79,127
2500,note_off,163,0,0,,7,,,79,127
2502,note_on,2,0,0,,2,,,74,127
2665,note_off,163,0,0,,2,,,74,127
2667,note_on,2,0,0,,2,,,74,127
2830,note_off,163,0,0,,2,,,74,127
2832,note_on,2,0,0,,12,,,71,127
2997,note_on,165,0,0,,7,,,67,127
3160,note_off,163,0,0,,7,,,67,127
3162,note_on,2,0,0,,2,,,62,127
3325,note_off,163,0,0,,2,,,62,127
3327,note_on,2,0,0,,2,,,62,127
3490,note_off,163,0,0,,2,,,62,127
3491,note_off,1,0,0,,12,,,71,127
3492,note_on,1,0,0,,2,,,62,127
3655,note_off,163,0,0,,2,,,62,127
3657,note_on,2,0,0,,2,,,74,127
3657,note_on,0,0,0,,2,,,62,127
3820,note_off,163,0,0,,2,,,62,127
3820,note_off,0,0,0,,2,,,74,127
3822,note_on,2,0,0,,10,,,81,127
3822,note_on,0,0,0,,12,,,59,127
3875,note_off,53,0,0,,10,,,81,127
3877,note_on,2,0,0,,7,,,79,127
3930,note_off,53,0,0,,7,,,79,127
3932,note_on,2,0,0,,10,,,81,127
3985,note_off,53,0,0,,10,,,81,127
3985,note_off,0,0,0,,12,,,59,127
3987,note_on,2,0,0,,7,,,79,127
3987,note_on,0,0,0,,7,,,55,127
4150,note_off,163,0,0,,7,,,55,127
4152,note_on,2,0,0,,2,,,62,127
4315,note_off,163,0,0,,2,,,62,127
4317,note_on,2,0,0,,7,,,67,127
4480,note_off,163,0,0,,7,,,67,127
4481,note_off,1,0,0,,7,,,79,127
4482,note_on,1,0,0,,2,,,62,127
4645,note_off,163,0,0,,2,,,62,127
4647,note_on,2,0,0,,2,,,74,127
4647,note_on,0,0,0,,2,,,62,127
4810,note_off,163,0,0,,2,,,62,127
4810,note_off,0,0,0,,2,,,74,127
4812,note_on,2,0,0,,10,,,81,127
4812,note_on,0,0,0,,12,,,59,127
4865,note_off,53,0,0,,10,,,81,127
4867,note_on,2,0,0,,7,,,79,127
4920,note_off,53,0,0,,7,,,79,127
4922,note_on,2,0,0,,10,,,81,127
4975,note_off,53,0,0,,10,,,81,127
4975,note_off,0,0,0,,12,,,59,127
4977,note_on,2,0,0,,7,,,79,127
4977,note_on,0,0,0,,7,,,55,127
5140,note_off,163,0,0,,7,,,55,127
5142,note_on,2,0,0,,2,,,62,127
5305,note_off,163,0,0,,2,,,62,127
5307,note_on,2,0,0,,7,,,67,127
5470,note_off,163,0,0,,7,,,67,127
5471,note_off,1,0,0,,7,,,79,127
5472,note_on,1,0,0,,2,,,62,127
5635,note_off,163,0,0,,2,,,62,127
5637,note_on,2,0,0,,2,,,74,127
5637,note_on,0,0,0,,2,,,62,127
5800,note_off,163,0,0,,2,,,62,127
5800,note_off,0,0,0,,2,,,74,127
5802,note_on,2,0,0,,7,,,79,127
5802,note_on,0,0,0,,12,,,59,127
5965,note_off,163,0,0,,12,,,59,127
5967,note_on,2,0,0,,7,,,55,127
6130,note_off,163,0,0,,7,,,55,127
6130,note_off,0,0,0,,7,,,79,127
6132,note_on,2,0,0,,2,,,74,127
6132,note_on,0,0,0,,12,,,59,127
6295,note_off,163,0,0,,12,,,59,127
6295,note_off,0,0,0,,2,,,74,127
6297,note_on,2,0,0,,4,,,76,127
6297,note_on,0,0,0,,2,,,62,127
6297,note_on,0,0,0,,6,,,54,127
6297,note_on,0,0,0,,0,,,60,127
6460,note_off,163,0,0,,4,,,76,127
6462,note_on,2,0,0,,2,,,74,127
6625,note_off,163,0,0,,2,,,74,127
6627,note_on,2,0,0,,0,,,72,127
6790,note_off,163,0,0,,0,,,72,127
6790,note_off,0,0,0,,0,,,60,127
6790,note_off,0,0,0,,6,,,54,127
6790,note_off,0,0,0,,2,,,62,127
6792,note_on,2,0,0,,12,,,71,127
6792,note_on,0,0,0,,2,,,62,127
6792,note_on,0,0,0,,7,,,55,127
6955,note_off,163,0,0,,12,,,71,127
6957,note_on,2,0,0,,10,,,69,127
7120,note_off,163,0,0,,10,,,69,127
7122,note_on,2,0,0,,12,,,71,127
7285,note_off,163,0,0,,12,,,71,127
7285,note_off,0,0,0,,7,,,55,127
7285,note_off,0,0,0,,2,,,62,127
7287,note_on,2,0,0,,4,,,76,127
7287,note_on,0,0,0,,2,,,62,127
7287,note_on,0,0,0,,0,,,60,127
7287,note_on,0,0,0,,6,,,54,127
7450,note_off,163,0,0,,4,,,76,127
7452,note_on,2,0,0,,2,,,74,127
7615,note_off,163,0,0,,2,,,74,127
7617,note_on,2,0,0,,0,,,72,127
7780,note_off,163,0,0,,0,,,72,127
7780,note_off,0,0,0,,6,,,54,127
7780,note_off,0,0,0,,0,,,60,127
7780,note_off,0,0,0,,2,,,62,127
7782,note_on,2,0,0,,12,,,71,127
7782,note_on,0,0,0,,2,,,62,127
7782,note_on,0,0,0,,7,,,55,127
7945,note_off,163,0,0,,12,,,71,127
7947,note_on,2,0,0,,10,,,69,127
8110,note_off,163,0,0,,10,,,69,127
8112,note_on,2,0,0,,12,,,71,127
8275,note_off,163,0,0,,12,,,71,127
8275,note_off,0,0,0,,7,,,55,127
8275,note_off,0,0,0,,2,,,62,127
8277,note_on,2,0,0,,0,,,72,127
8277,note_on,0,0,0,,4,,,64,127
8277,note_on,0,0,0,,7,,,55,127
8440,note_off,163,0,0,,4,,,64,127
8440,note_off,0,0,0,,0,,,72,127
8442,note_on,2,0,0,,12,,,71,127
8442,note_on,0,0,0,,2,,,62,127
8605,note_off,163,0,0,,2,,,62,127
8605,note_off,0,0,0,,12,,,71,127
8607,note_on,2,0,0,,10,,,69,127
8607,note_on,0,0,0,,0,,,60,127
8770,note_off,163,0,0,,0,,,60,127
8770,note_off,0,0,0,,10,,,69,127
8771,note_off,1,0,0,,7,,,55,127
8772,note_on,1,0,0,,10,,,69,127
8772,note_on,0,0,0,,7,,,67,127
8772,note_on,0,0,0,,7,,,55,127
8772,note_on,0,0,0,,12,,,59,127
8935,note_off,163,0,0,,12,,,59,127
8935,note_off,0,0,0,,7,,,67,127
8935,note_off,0,0,0,,10,,,69,127
8937,note_on,2,0,0,,6,,,66,127
8937,note_on,0,0,0,,10,,,57,127
9100,note_off,163,0,0,,10,,,57,127
9100,note_off,0,0,0,,6,,,66,127
9102,note_on,2,0,0,,7,,,67,127
9102,note_on,0,0,0,,12,,,59,127
9265,note_off,163,0,0,,12,,,59,127
9265,note_off,0,0,0,,7,,,67,127
9266,note_off,1,0,0,,7,,,55,127
9267,note_on,1,0,0,,0,,,72,127
9267,note_on,0,0,0,,4,,,64,127
9267,note_on,0,0,0,,7,,,55,127
9430,note_off,163,0,0,,4,,,64,127
9430,note_off,0,0,0,,0,,,72,127
9432,note_on,2,0,0,,12,,,71,127
9432,note_on,0,0,0,,2,,,62,127
9595,note_off,163,0,0,,2,,,62,127
9595,note_off,0,0,0,,12,,,71,127
9597,note_on,2,0,0,,10,,,69,127
9597,note_on,0,0,0,,0,,,60,127
9760,note_off,163,0,0,,0,,,60,127
9760,note_off,0,0,0,,10,,,69,127
9761,note_off,1,0,0,,7,,,55,127
9762,note_on,1,0,0,,10,,,69,127
9762,note_on,0,0,0,,7,,,67,127
9762,note_on,0,0,0,,7,,,55,127
9762,note_on,0,0,0,,12,,,59,127
9925,note_off,163,0,0,,12,,,59,127
9925,note_off,0,0,0,,7,,,67,127
9925,note_off,0,0,0,,10,,,69,127
9927,note_on,2,0,0,,6,,,66,127
9927,note_on,0,0,0,,10,,,57,127
10090,note_off,163,0,0,,10,,,57,127
10090,note_off,0,0,0,,6,,,66,127
10092,note_on,2,0,0,,7,,,67,127
10092,note_on,0,0,0,,12,,,59,127
10255,note_off,163,0,0,,12,,,59,127
10255,note_off,0,0,0,,7,,,67,127
10256,note_off,1,0,0,,7,,,55,127
10257,note_on,1,0,0,,0,,,84,127
10257,note_on,0,0,0,,2,,,74,127
10257,note_on,0,0,0,,6,,,78,127
10257,note_on,0,0,0,,10,,,81,127
10257,note_on,0,0,0,,0,,,60,127
10257,note_on,0,0,0,,2,,,50,127
10257,note_on,0,0,0,,10,,,57,127
10420,note_off,163,0,0,,10,,,81,127
10420,note_off,0,0,0,,0,,,84,127
10422,note_on,2,0,0,,12,,,83,127
10585,note_off,163,0,0,,12,,,83,127
10587,note_on,2,0,0,,10,,,81,127
10750,note_off,163,0,0,,10,,,81,127
10750,note_off,0,0,0,,10,,,57,127
10750,note_off,0,0,0,,2,,,50,127
10750,note_off,0,0,0,,0,,,60,127
10751,note_off,1,0,0,,6,,,78,127
10751,note_off,0,0,0,,2,,,74,127
10752,note_on,1,0,0,,7,,,79,127
10752,note_on,0,0,0,,7,,,55,127
10752,note_on,0,0,0,,12,,,59,127
10752,note_on,0,0,0,,2,,,50,127
10915,note_off,163,0,0,,7,,,79,127
10917,note_on,2,0,0,,6,,,78,127
11080,note_off,163,0,0,,6,,,78,127
11082,note_on,2,0,0,,7,,,79,127
11245,note_off,163,0,0,,7,,,79,127
11245,note_off,0,0,0,,2,,,50,127
11245,note_off,0,0,0,,12,,,59,127
11245,note_off,0,0,0,,7,,,55,127
11247,note_on,2,0,0,,2,,,74,127
11247,note_on,0,0,0,,10,,,81,127
11247,note_on,0,0,0,,0,,,84,127
11247,note_on,0,0,0,,6,,,78,127
11247,note_on,0,0,0,,0,,,60,127
11247,note_on,0,0,0,,2,,,50,127
11247,note_on,0,0,0,,10,,,57,127
11410,note_off,163,0,0,,0,,,84,127
11410,note_off,0,0,0,,10,,,81,127
11412,note_on,2,0,0,,12,,,83,127
11575,note_off,163,0,0,,12,,,83,127
11577,note_on,2,0,0,,10,,,81,127
11740,note_off,163,0,0,,10,,,81,127
11740,note_off,0,0,0,,10,,,57,127
11740,note_off,0,0,0,,2,,,50,127
11740,note_off,0,0,0,,0,,,60,127
11741,note_off,1,0,0,,6,,,78,127
11741,note_off,0,0,0,,2,,,74,127
11742,note_on,1,0,0,,7,,,79,127
11742,note_on,0,0,0,,7,,,55,127
11742,note_on,0,0,0,,12,,,59,127
11742,note_on,0,0,0,,2,,,50,127
11905,note_off,163,0,0,,7,,,79,127
11907,note_on,2,0,0,,6,,,78,127
12070,note_off,163,0,0,,6,,,78,127
12072,note_on,2,0,0,,7,,,79,127
12235,note_off,163,0,0,,7,,,79,127
12235,note_off,0,0,0,,2,,,50,127
12235,note_off,0,0,0,,12,,,59,127
12235,note_off,0,0,0,,7,,,55,127
12237,note_on,2,0,0,,10,,,81,127
12237,note_on,0,0,0,,0,,,60,127
12237,note_on,0,0,0,,2,,,50,127
12400,note_off,163,0,0,,0,,,60,127
12400,note_off,0,0,0,,10,,,81,127
12402,note_on,2,0,0,,7,,,79,127
12402,note_on,0,0,0,,12,,,59,127
12565,note_off,163,0,0,,12,,,59,127
12565,note_off,0,0,0,,7,,,79,127
12567,note_on,2,0,0,,6,,,78,127
12567,note_on,0,0,0,,10,,,57,127
12730,note_off,163,0,0,,10,,,57,127
12730,note_off,0,0,0,,6,,,78,127
12731,note_off,1,0,0,,2,,,50,127
12732,note_on,1,0,0,,7,,,79,127
12732,note_on,0,0,0,,2,,,50,127
12732,note_on,0,0,0,,12,,,59,127
12895,note_off,163,0,0,,12,,,59,127
12895,note_off,0,0,0,,7,,,79,127
12897,note_on,2,0,0,,6,,,78,127
12897,note_on,0,0,0,,10,,,57,127
13060,note_off,163,0,0,,10,,,57,127
13060,note_off,0,0,0,,6,,,78,127
13062,note_on,2,0,0,,7,,,79,127
13062,note_on,0,0,0,,12,,,59,127
13225,note_off,163,0,0,,12,,,59,127
13225,note_off,0,0,0,,7,,,79,127
13226,note_off,1,0,0,,2,,,50,127
13227,note_on,1,0,0,,10,,,81,127
13227,note_on,0,0,0,,0,,,60,127
13227,note_on,0,0,0,,2,,,50,127
13390,note_off,163,0,0,,0,,,60,127
13390,note_off,0,0,0,,10,,,81,127
13392,note_on,2,0,0,,7,,,79,127
13392,note_on,0,0,0,,12,,,59,127
13555,note_off,163,0,0,,12,,,59,127
13555,note_off,0,0,0,,7,,,79,127
13557,note_on,2,0,0,,6,,,78,127
13557,note_on,0,0,0,,10,,,57,127
13720,note_off,163,0,0,,10,,,57,127
13720,note_off,0,0,0,,6,,,78,127
13721,note_off,1,0,0,,2,,,50,127
13722,note_on,1,0,0,,7,,,79,127
13722,note_on,0,0,0,,7,,,55,127
13887,note_on,165,0,0,,2,,,62,127
14050,note_off,163,0,0,,2,,,62,127
14052,note_on,2,0,0,,7,,,67,127
14215,note_off,163,0,0,,7,,,67,127
14216,note_off,1,0,0,,7,,,55,127
14216,note_off,0,0,0,,7,,,79,127
14217,note_on,1,0,0,,10,,,57,127
14217,note_on,0,0,0,,6,,,66,127
14380,note_off,163,0,0,,6,,,66,127
14382,note_on,2,0,0,,4,,,64,127
14543,note_off,161,0,0,,10,,,57,127
14545,note_off,2,0,0,,4,,,64,127
14547,note_on,2,0,0,,12,,,59,127
14547,note_on,0,0,0,,2,,,62,127
14710,note_off,163,0,0,,2,,,62,127
14710,note_off,0,0,0,,12,,,59,127
14712,note_on,2,0,0,,0,,,60,127
14877,note_on,165,0,0,,4,,,64,127
15038,note_off,161,0,0,,0,,,60,127
15040,note_off,2,0,0,,4,,,64,127
15042,note_on,2,0,0,,10,,,57,127
15042,note_on,0,0,0,,10,,,69,127
15205,note_off,163,0,0,,10,,,69,127
15205,note_off,0,0,0,,10,,,57,127
15207,note_on,2,0,0,,7,,,67,127
15207,note_on,0,0,0,,12,,,59,127
15370,note_off,163,0,0,,7,,,67,127
15372,note_on,2,0,0,,6,,,66,127
15533,note_off,161,0,0,,12,,,59,127
15535,note_off,2,0,0,,6,,,66,127
15537,note_on,2,0,0,,1,,,61,127
15537,note_on,0,0,0,,4,,,64,127
15700,note_off,163,0,0,,4,,,64,127
15700,note_off,0,0,0,,1,,,61,127
15702,note_on,2,0,0,,2,,,62,127
15702,note_on,0,0,0,,6,,,66,127
15867,note_on,165,0,0,,2,,,74,127
16032,note_on,165,0,0,,2,,,86,127
16193,note_off,161,0,0,,2,,,74,127
16195,note_off,2,0,0,,2,,,86,127
16195,note_off,0,0,0,,6,,,66,127
16197,note_on,2,0,0,,0,,,84,127
16197,note_on,0,0,0,,4,,,76,127
16197,note_on,0,0,0,,2,,,50,127
16360,note_off,163,0,0,,0,,,84,127
16362,note_on,2,0,0,,12,,,83,127
16523,note_off,161,0,0,,4,,,76,127
16525,note_off,2,0,0,,12,,,83,127
16527,note_on,2,0,0,,10,,,81,127
16527,note_on,0,0,0,,6,,,78,127
16690,note_off,163,0,0,,6,,,78,127
16690,note_off,0,0,0,,10,,,81,127
16690,note_off,0,0,0,,2,,,50,127
16690,note_off,0,0,0,,2,,,62,127
16692,note_on,2,0,0,,12,,,83,127
16692,note_on,0,0,0,,7,,,79,127
16692,note_on,0,0,0,,7,,,55,127
16855,note_off,163,0,0,,7,,,79,127
16857,note_on,2,0,0,,2,,,74,127
17018,note_off,161,0,0,,12,,,83,127
17020,note_off,2,0,0,,2,,,74,127
17022,note_on,2,0,0,,10,,,81,127
17022,note_on,0,0,0,,6,,,78,127
17185,note_off,163,0,0,,6,,,78,127
17185,note_off,0,0,0,,10,,,81,127
17185,note_off,0,0,0,,7,,,55,127
17187,note_on,2,0,0,,7,,,79,127
17187,note_on,0,0,0,,4,,,76,127
17187,note_on,0,0,0,,10,,,57,127
17350,note_off,163,0,0,,4,,,76,127
17350,note_off,0,0,0,,7,,,79,127
17352,note_on,2,0,0,,6,,,78,127
17352,note_on,0,0,0,,2,,,74,127
17515,note_off,163,0,0,,2,,,74,127
17515,note_off,0,0,0,,6,,,78,127
17517,note_on,2,0,0,,1,,,73,127
17517,note_on,0,0,0,,4,,,76,127
17680,note_off,163,0,0,,4,,,76,127
17680,note_off,0,0,0,,1,,,73,127
17680,note_off,0,0,0,,10,,,57,127
17682,note_on,2,0,0,,2,,,74,127
17682,note_on,0,0,0,,6,,,78,127
17682,note_on,0,0,0,,2,,,50,127
17847,note_on,165,0,0,,10,,,57,127
18008,note_off,161,0,0,,2,,,50,127
18010,note_off,2,0,0,,10,,,57,127
18012,note_on,2,0,0,,2,,,50,127
18012,note_on,0,0,0,,2,,,62,127
18175,note_off,163,0,0,,2,,,62,127
18175,note_off,0,0,0,,2,,,50,127
18176,note_off,1,0,0,,6,,,78,127
18176,note_off,0,0,0,,2,,,74,127
18177,note_on,1,0,0,,4,,,52,127
18177,note_on,0,0,0,,0,,,60,127
18340,note_off,163,0,0,,0,,,60,127
18342,note_on,2,0,0,,12,,,59,127
18503,note_off,161,0,0,,4,,,52,127
18505,note_off,2,0,0,,12,,,59,127
18507,note_on,2,0,0,,10,,,57,127
18507,note_on,0,0,0,,6,,,54,127
18670,note_off,163,0,0,,6,,,54,127
18670,note_off,0,0,0,,10,,,57,127
18672,note_on,2,0,0,,7,,,55,127
18837,note_on,165,0,0,,12,,,59,127
18998,note_off,161,0,0,,7,,,55,127
19000,note_off,2,0,0,,12,,,59,127
19002,note_on,2,0,0,,4,,,64,127
19002,note_on,0,0,0,,4,,,52,127
19165,note_off,163,0,0,,4,,,52,127
19165,note_off,0,0,0,,4,,,64,127
19167,note_on,2,0,0,,6,,,54,127
19167,note_on,0,0,0,,2,,,62,127
19330,note_off,163,0,0,,2,,,62,127
19332,note_on,2,0,0,,1,,,61,127
19493,note_off,161,0,0,,6,,,54,127
19495,note_off,2,0,0,,1,,,61,127
19497,note_on,2,0,0,,12,,,59,127
19497,note_on,0,0,0,,8,,,56,127
19660,note_off,163,0,0,,8,,,56,127
19660,note_off,0,0,0,,12,,,59,127
19662,note_on,2,0,0,,10,,,57,127
19662,note_on,0,0,0,,1,,,61,127
19827,note_on,165,0,0,,10,,,69,127
19992,note_on,165,0,0,,10,,,81,127
20153,note_off,161,0,0,,10,,,69,127
20155,note_off,2,0,0,,10,,,81,127
20155,note_off,0,0,0,,1,,,61,127
20155,note_off,0,0,0,,10,,,57,127
20157,note_on,2,0,0,,7,,,79,127
20157,note_on,0,0,0,,12,,,71,127
20157,note_on,0,0,0,,10,,,45,127
20320,note_off,163,0,0,,7,,,79,127
20322,note_on,2,0,0,,6,,,78,127
20483,note_off,161,0,0,,12,,,71,127
20485,note_off,2,0,0,,6,,,78,127
20487,note_on,2,0,0,,1,,,73,127
20487,note_on,0,0,0,,4,,,76,127
20650,note_off,163,0,0,,4,,,76,127
20650,note_off,0,0,0,,1,,,73,127
20650,note_off,0,0,0,,10,,,45,127
20652,note_on,2,0,0,,6,,,78,127
20652,note_on,0,0,0,,2,,,74,127
20652,note_on,0,0,0,,10,,,45,127
20815,note_off,163,0,0,,2,,,74,127
20815,note_off,0,0,0,,6,,,78,127
20817,note_on,2,0,0,,4,,,76,127
20817,note_on,0,0,0,,4,,,52,127
20978,note_off,161,0,0,,10,,,45,127
20980,note_off,2,0,0,,4,,,52,127
20982,note_on,2,0,0,,10,,,45,127
20982,note_on,0,0,0,,10,,,57,127
21143,note_off,161,0,0,,4,,,76,127
21145,note_off,2,0,0,,10,,,57,127
21145,note_off,0,0,0,,10,,,45,127
21147,note_on,2,0,0,,12,,,47,127
21147,note_on,0,0,0,,7,,,55,127
21310,note_off,163,0,0,,7,,,55,127
21312,note_on,2,0,0,,6,,,54,127
21473,note_off,161,0,0,,12,,,47,127
21475,note_off,2,0,0,,6,,,54,127
21477,note_on,2,0,0,,1,,,49,127
21477,note_on,0,0,0,,4,,,52,127
21640,note_off,163,0,0,,4,,,52,127
21640,note_off,0,0,0,,1,,,49,127
21642,note_on,2,0,0,,6,,,54,127
21642,note_on,0,0,0,,2,,,50,127
21807,note_on,165,0,0,,10,,,69,127
21972,note_on,165,0,0,,10,,,81,127
22133,note_off,161,0,0,,10,,,69,127
22135,note_off,2,0,0,,10,,,81,127
22135,note_off,0,0,0,,2,,,50,127
22135,note_off,0,0,0,,6,,,54,127
22137,note_on,2,0,0,,7,,,79,127
22137,note_on,0,0,0,,12,,,71,127
22137,note_on,0,0,0,,10,,,57,127
22137,note_on,0,0,0,,10,,,45,127
22300,note_off,163,0,0,,7,,,79,127
22302,note_on,2,0,0,,6,,,78,127
22463,note_off,161,0,0,,12,,,71,127
22465,note_off,2,0,0,,6,,,78,127
22467,note_on,2,0,0,,1,,,73,127
22467,note_on,0,0,0,,4,,,76,127
22630,note_off,163,0,0,,4,,,76,127
22630,note_off,0,0,0,,1,,,73,127
22630,note_off,0,0,0,,10,,,45,127
22630,note_off,0,0,0,,10,,,57,127
22632,note_on,2,0,0,,2,,,74,127
22632,note_on,0,0,0,,6,,,78,127
22632,note_on,0,0,0,,10,,,57,127
22632,note_on,0,0,0,,2,,,50,127
22795,note_off,163,0,0,,6,,,78,127
22795,note_off,0,0,0,,2,,,74,127
22797,note_on,2,0,0,,7,,,79,127
22797,note_on,0,0,0,,4,,,76,127
22960,note_off,163,0,0,,4,,,76,127
22960,note_off,0,0,0,,7,,,79,127
22962,note_on,2,0,0,,6,,,78,127
22962,note_on,0,0,0,,10,,,81,127
23125,note_off,163,0,0,,10,,,81,127
23125,note_off,0,0,0,,6,,,78,127
23125,note_off,0,0,0,,2,,,50,127
23125,note_off,0,0,0,,10,,,57,127
23127,note_on,2,0,0,,6,,,78,127
23127,note_on,0,0,0,,10,,,81,127
23127,note_on,0,0,0,,6,,,54,127
23127,note_on,0,0,0,,6,,,42,127
23290,note_off,163,0,0,,10,,,81,127
23290,note_off,0,0,0,,6,,,78,127
23292,note_on,2,0,0,,12,,,83,127
23292,note_on,0,0,0,,7,,,79,127
23455,note_off,163,0,0,,7,,,79,127
23455,note_off,0,0,0,,12,,,83,127
23457,note_on,2,0,0,,6,,,78,127
23457,note_on,0,0,0,,10,,,81,127
23620,note_off,163,0,0,,10,,,81,127
23620,note_off,0,0,0,,6,,,78,127
23620,note_off,0,0,0,,6,,,42,127
23620,note_off,0,0,0,,6,,,54,127
23622,note_on,2,0,0,,10,,,81,127
23622,note_on,0,0,0,,6,,,78,127
23622,note_on,0,0,0,,7,,,55,127
23622,note_on,0,0,0,,7,,,43,127
23785,note_off,163,0,0,,6,,,78,127
23785,note_off,0,0,0,,10,,,81,127
23787,note_on,2,0,0,,7,,,79,127
23787,note_on,0,0,0,,4,,,76,127
23950,note_off,163,0,0,,4,,,76,127
23950,note_off,0,0,0,,7,,,79,127
23952,note_on,2,0,0,,2,,,74,127
23952,note_on,0,0,0,,6,,,78,127
24115,note_off,163,0,0,,6,,,78,127
24115,note_off,0,0,0,,2,,,74,127
24115,note_off,0,0,0,,7,,,43,127
24115,note_off,0,0,0,,7,,,55,127
24117,note_on,2,0,0,,4,,,76,127
24117,note_on,0,0,0,,10,,,57,127
24117,note_on,0,0,0,,10,,,45,127
24280,note_off,163,0,0,,4,,,76,127
24282,note_on,2,0,0,,2,,,74,127
24445,note_off,163,0,0,,2,,,74,127
24447,note_on,2,0,0,,1,,,73,127
24610,note_off,163,0,0,,1,,,73,127
24610,note_off,0,0,0,,10,,,45,127
24610,note_off,0,0,0,,10,,,57,127
24612,note_on,2,0,0,,2,,,74,127
24612,note_on,0,0,0,,2,,,38,127
24612,note_on,0,0,0,,2,,,50,127
24775,note_off,163,0,0,,2,,,74,127
24777,note_on,2,0,0,,7,,,79,127
24777,note_on,0,0,0,,12,,,71,127
24940,note_off,163,0,0,,12,,,71,127
24940,note_off,0,0,0,,7,,,79,127
24942,note_on,2,0,0,,10,,,69,127
24942,note_on,0,0,0,,6,,,78,127
25105,note_off,163,0,0,,6,,,78,127
25105,note_off,0,0,0,,10,,,69,127
25106,note_off,1,0,0,,2,,,50,127
25106,note_off,0,0,0,,2,,,38,127
25107,note_on,1,0,0,,4,,,76,127
25107,note_on,0,0,0,,7,,,67,127
25270,note_off,163,0,0,,7,,,67,127
25270,note_off,0,0,0,,4,,,76,127
25272,note_on,2,0,0,,6,,,66,127
25272,note_on,0,0,0,,2,,,74,127
25435,note_off,163,0,0,,2,,,74,127
25435,note_off,0,0,0,,6,,,66,127
25437,note_on,2,0,0,,4,,,64,127
25437,note_on,0,0,0,,1,,,73,127
25600,note_off,163,0,0,,1,,,73,127
25600,note_off,0,0,0,,4,,,64,127
25602,note_on,2,0,0,,6,,,66,127
25602,note_on,0,0,0,,2,,,74,127
25767,note_on,165,0,0,,12,,,59,127
25767,note_on,0,0,0,,7,,,67,127
25928,note_off,161,0,0,,6,,,66,127
25930,note_off,2,0,0,,7,,,67,127
25930,note_off,0,0,0,,12,,,59,127
25932,note_on,2,0,0,,10,,,57,127
25932,note_on,0,0,0,,6,,,66,127
26095,note_off,163,0,0,,6,,,66,127
26095,note_off,0,0,0,,10,,,57,127
26096,note_off,1,0,0,,2,,,74,127
26097,note_on,1,0,0,,7,,,55,127
26097,note_on,0,0,0,,4,,,64,127
26260,note_off,163,0,0,,4,,,64,127
26260,note_off,0,0,0,,7,,,55,127
26262,note_on,2,0,0,,2,,,62,127
26262,note_on,0,0,0,,6,,,54,127
26425,note_off,163,0,0,,6,,,54,127
26425,note_off,0,0,0,,2,,,62,127
26427,note_on,2,0,0,,4,,,52,127
26427,note_on,0,0,0,,1,,,61,127
26590,note_off,163,0,0,,1,,,61,127
26590,note_off,0,0,0,,4,,,52,127
26592,note_on,2,0,0,,2,,,62,127
26592,note_on,0,0,0,,6,,,54,127
26757,note_on,165,0,0,,12,,,71,127
26757,note_on,0,0,0,,7,,,79,127
26920,note_off,163,0,0,,7,,,79,127
26920,note_off,0,0,0,,12,,,71,127
26922,note_on,2,0,0,,10,,,69,127
26922,note_on,0,0,0,,6,,,78,127
27085,note_off,163,0,0,,6,,,78,127
27085,note_off,0,0,0,,10,,,69,127
27086,note_off,1,0,0,,6,,,54,127
27086,note_off,0,0,0,,2,,,62,127
27087,note_on,1,0,0,,7,,,67,127
27087,note_on,0,0,0,,4,,,76,127
27250,note_off,163,0,0,,4,,,76,127
27250,note_off,0,0,0,,7,,,67,127
27252,note_on,2,0,0,,6,,,66,127
27252,note_on,0,0,0,,2,,,74,127
27415,note_off,163,0,0,,2,,,74,127
27415,note_off,0,0,0,,6,,,66,127
27417,note_on,2,0,0,,4,,,64,127
27417,note_on,0,0,0,,1,,,73,127
27580,note_off,163,0,0,,1,,,73,127
27580,note_off,0,0,0,,4,,,64,127
27582,note_on,2,0,0,,2,,,74,127
27582,note_on,0,0,0,,6,,,66,127
27747,note_on,165,0,0,,7,,,67,127
27747,note_on,0,0,0,,12,,,59,127
27908,note_off,161,0,0,,6,,,66,127
27910,note_off,2,0,0,,12,,,59,127
27910,note_off,0,0,0,,7,,,67,127
27912,note_on,2,0,0,,10,,,57,127
27912,note_on,0,0,0,,6,,,66,127
28075,note_off,163,0,0,,6,,,66,127
28075,note_off,0,0,0,,10,,,57,127
28076,note_off,1,0,0,,2,,,74,127
28077,note_on,1,0,0,,4,,,64,127
28077,note_on,0,0,0,,7,,,55,127
28240,note_off,163,0,0,,7,,,55,127
28240,note_off,0,0,0,,4,,,64,127
28242,note_on,2,0,0,,2,,,62,127
28242,note_on,0,0,0,,6,,,54,127
28405,note_off,163,0,0,,6,,,54,127
28405,note_off,0,0,0,,2,,,62,127
28407,note_on,2,0,0,,4,,,52,127
28407,note_on,0,0,0,,1,,,61,127
28570,note_off,163,0,0,,1,,,61,127
28570,note_off,0,0,0,,4,,,52,127
28572,note_on,2,0,0,,2,,,62,127
28572,note_on,0,0,0,,6,,,54,127
28737,note_on,165,0,0,,6,,,78,127
28737,note_on,0,0,0,,2,,,74,127
28900,note_off,163,0,0,,2,,,74,127
28900,note_off,0,0,0,,6,,,78,127
28902,note_on,2,0,0,,7,,,79,127
28902,note_on,0,0,0,,4,,,76,127
29065,note_off,163,0,0,,4,,,76,127
29065,note_off,0,0,0,,7,,,79,127
29065,note_off,0,0,0,,6,,,54,127
29065,note_off,0,0,0,,2,,,62,127
29067,note_on,2,0,0,,6,,,78,127
29067,note_on,0,0,0,,10,,,81,127
29067,note_on,0,0,0,,6,,,42,127
29230,note_off,163,0,0,,10,,,81,127
29230,note_off,0,0,0,,6,,,78,127
29232,note_on,2,0,0,,7,,,79,127
29232,note_on,0,0,0,,12,,,83,127
29395,note_off,163,0,0,,12,,,83,127
29395,note_off,0,0,0,,7,,,79,127
29397,note_on,2,0,0,,6,,,78,127
29397,note_on,0,0,0,,10,,,81,127
29560,note_off,163,0,0,,10,,,81,127
29560,note_off,0,0,0,,6,,,78,127
29560,note_off,0,0,0,,6,,,42,127
29562,note_on,2,0,0,,10,,,81,127
29562,note_on,0,0,0,,6,,,78,127
29562,note_on,0,0,0,,7,,,43,127
29725,note_off,163,0,0,,6,,,78,127
29725,note_off,0,0,0,,10,,,81,127
29727,note_on,2,0,0,,4,,,76,127
29727,note_on,0,0,0,,7,,,79,127
29890,note_off,163,0,0,,7,,,79,127
29890,note_off,0,0,0,,4,,,76,127
29892,note_on,2,0,0,,6,,,78,127
29892,note_on,0,0,0,,2,,,74,127
30055,note_off,163,0,0,,2,,,74,127
30055,note_off,0,0,0,,6,,,78,127
30055,note_off,0,0,0,,7,,,43,127
30057,note_on,2,0,0,,6,,,78,127
30057,note_on,0,0,0,,4,,,76,127
30057,note_on,0,0,0,,10,,,45,127
30220,note_off,163,0,0,,4,,,76,127
30220,note_off,0,0,0,,6,,,78,127
30222,note_on,2,0,0,,2,,,74,127
30385,note_off,163,0,0,,2,,,74,127
30387,note_on,2,0,0,,1,,,73,127
30550,note_off,163,0,0,,1,,,73,127
30550,note_off,0,0,0,,10,,,45,127
30552,note_on,2,0,0,,2,,,74,127
30552,note_on,0,0,0,,2,,,38,127
30715,note_off,163,0,0,,2,,,74,127
30717,note_on,2,0,0,,2,,,86,127
30880,note_off,163,0,0,,2,,,86,127
30882,note_on,2,0,0,,10,,,81,127
31045,note_off,163,0,0,,10,,,81,127
31047,note_on,2,0,0,,6,,,78,127
31210,note_off,163,0,0,,6,,,78,127
31212,note_on,2,0,0,,2,,,74,127
31375,note_off,163,0,0,,2,,,74,127
31377,note_on,2,0,0,,10,,,69,127
31540,note_off,163,0,0,,10,,,69,127
31540,note_off,0,0,0,,2,,,38,127
31542,note_on,2,0,0,,12,,,71,127
31542,note_on,0,0,0,,7,,,43,127
31705,note_off,163,0,0,,12,,,71,127
31707,note_on,2,0,0,,7,,,79,127
31870,note_off,163,0,0,,7,,,79,127
31872,note_on,2,0,0,,4,,,76,127
32035,note_off,163,0,0,,7,,,43,127
32037,note_on,2,0,0,,10,,,45,127
32200,note_off,163,0,0,,4,,,76,127
32202,note_on,2,0,0,,4,,,76,127
32202,note_on,0,0,0,,2,,,74,127
32365,note_off,163,0,0,,2,,,74,127
32365,note_off,0,0,0,,4,,,76,127
32367,note_on,2,0,0,,1,,,73,127
32530,note_off,163,0,0,,1,,,73,127
32530,note_off,0,0,0,,10,,,45,127
32532,note_on,2,0,0,,2,,,74,127
32532,note_on,0,0,0,,2,,,38,127
32695,note_off,163,0,0,,2,,,74,127
32697,note_on,2,0,0,,2,,,86,127
32860,note_off,163,0,0,,2,,,86,127
32862,note_on,2,0,0,,10,,,81,127
33025,note_off,163,0,0,,10,,,81,127
33027,note_on,2,0,0,,6,,,78,127
33190,note_off,163,0,0,,6,,,78,127
33192,note_on,2,0,0,,2,,,74,127
33355,note_off,163,0,0,,2,,,74,127
33357,note_on,2,0,0,,10,,,69,127
33520,note_off,163,0,0,,10,,,69,127
33520,note_off,0,0,0,,2,,,38,127
33522,note_on,2,0,0,,12,,,71,127
33522,note_on,0,0,0,,7,,,43,127
33685,note_off,163,0,0,,12,,,71,127
33687,note_on,2,0,0,,7,,,79,127
33850,note_off,163,0,0,,7,,,79,127
33852,note_on,2,0,0,,4,,,76,127
34015,note_off,163,0,0,,7,,,43,127
34017,note_on,2,0,0,,10,,,45,127
34180,note_off,163,0,0,,4,,,76,127
34182,note_on,2,0,0,,4,,,76,127
34182,note_on,0,0,0,,2,,,74,127
34345,note_off,163,0,0,,2,,,74,127
34345,note_off,0,0,0,,4,,,76,127
34347,note_on,2,0,0,,1,,,73,127
34510,note_off,163,0,0,,1,,,73,127
34510,note_off,0,0,0,,10,,,45,127
34512,note_on,2,0,0,,2,,,74,127
34512,note_on,0,0,0,,2,,,38,127
35169,note_off,657,0,0,,2,,,38,127
35497,note_off,328,0,0,,2,,,74,127
35499,note_on,2,0,0,,2,,,74,127
35499,note_on,0,0,0,,2,,,50,127
35664,note_on,165,0,0,,6,,,78,127
35825,note_off,161,0,0,,2,,,74,127
35828,note_on,3,0,0,,10,,,69,127
35991,note_off,163,0,0,,10,,,69,127
35993,note_on,2,0,0,,12,,,71,127
36157,note_off,164,0,0,,6,,,78,127
36158,note_on,1,0,0,,7,,,79,127
36319,note_off,161,0,0,,12,,,71,127
36321,note_off,2,0,0,,7,,,79,127
36323,note_on,2,0,0,,4,,,76,127
36323,note_on,0,0,0,,1,,,73,127
36486,note_off,163,0,0,,1,,,73,127
36486,note_off,0,0,0,,4,,,76,127
36486,note_off,0,0,0,,2,,,50,127
36488,note_on,2,0,0,,2,,,74,127
36488,note_on,0,0,0,,6,,,78,127
36488,note_on,0,0,0,,2,,,50,127
36651,note_off,163,0,0,,2,,,74,127
36653,note_on,2,0,0,,2,,,74,127
36816,note_off,163,0,0,,2,,,74,127
36818,note_on,2,0,0,,10,,,69,127
36981,note_off,163,0,0,,10,,,69,127
36983,note_on,2,0,0,,12,,,71,127
37147,note_off,164,0,0,,6,,,78,127
37148,note_on,1,0,0,,7,,,79,127
37309,note_off,161,0,0,,12,,,71,127
37311,note_off,2,0,0,,7,,,79,127
37313,note_on,2,0,0,,4,,,76,127
37313,note_on,0,0,0,,1,,,73,127
37476,note_off,163,0,0,,1,,,73,127
37476,note_off,0,0,0,,4,,,76,127
37476,note_off,0,0,0,,2,,,50,127
37478,note_on,2,0,0,,6,,,78,127
37478,note_on,0,0,0,,2,,,74,127
37478,note_on,0,0,0,,2,,,50,127
37641,note_off,163,0,0,,2,,,74,127
37643,note_on,2,0,0,,2,,,74,127
37806,note_off,163,0,0,,2,,,74,127
37808,note_on,2,0,0,,10,,,69,127
37971,note_off,163,0,0,,10,,,69,127
37973,note_on,2,0,0,,12,,,71,127
38137,note_off,164,0,0,,6,,,78,127
38138,note_on,1,0,0,,7,,,79,127
38299,note_off,161,0,0,,12,,,71,127
38301,note_off,2,0,0,,7,,,79,127
38303,note_on,2,0,0,,4,,,76,127
38303,note_on,0,0,0,,1,,,73,127
38466,note_off,163,0,0,,1,,,73,127
38466,note_off,0,0,0,,4,,,76,127
38466,note_off,0,0,0,,2,,,50,127
38468,note_on,2,0,0,,2,,,74,127
38468,note_on,0,0,0,,6,,,78,127
38468,note_on,0,0,0,,2,,,62,127
38468,note_on,0,0,0,,2,,,50,127
38631,note_off,163,0,0,,6,,,78,127
38631,note_off,0,0,0,,2,,,74,127
38633,note_on,2,0,0,,7,,,79,127
38633,note_on,0,0,0,,4,,,76,127
38796,note_off,163,0,0,,4,,,76,127
38796,note_off,0,0,0,,7,,,79,127
38796,note_off,0,0,0,,2,,,50,127
38796,note_off,0,0,0,,2,,,62,127
38798,note_on,2,0,0,,10,,,81,127
38798,note_on,0,0,0,,6,,,78,127
38798,note_on,0,0,0,,0,,,48,127
38798,note_on,0,0,0,,0,,,60,127
38961,note_off,163,0,0,,0,,,60,127
38961,note_off,0,0,0,,0,,,48,127
38963,note_on,2,0,0,,12,,,59,127
38963,note_on,0,0,0,,12,,,47,127
39126,note_off,163,0,0,,6,,,78,127
39126,note_off,0,0,0,,10,,,81,127
39128,note_on,2,0,0,,4,,,76,127
39128,note_on,0,0,0,,7,,,79,127
39291,note_off,163,0,0,,7,,,79,127
39291,note_off,0,0,0,,4,,,76,127
39293,note_on,2,0,0,,3,,,75,127
39293,note_on,0,0,0,,6,,,78,127
39456,note_off,163,0,0,,6,,,78,127
39456,note_off,0,0,0,,3,,,75,127
39456,note_off,0,0,0,,12,,,47,127
39456,note_off,0,0,0,,12,,,59,127
39458,note_on,2,0,0,,4,,,76,127
39458,note_on,0,0,0,,7,,,79,127
39458,note_on,0,0,0,,12,,,59,127
39458,note_on,0,0,0,,4,,,52,127
39621,note_off,163,0,0,,7,,,79,127
39621,note_off,0,0,0,,4,,,76,127
39623,note_on,2,0,0,,3,,,75,127
39623,note_on,0,0,0,,6,,,78,127
39786,note_off,163,0,0,,6,,,78,127
39786,note_off,0,0,0,,3,,,75,127
39788,note_on,2,0,0,,7,,,79,127
39788,note_on,0,0,0,,4,,,76,127
39951,note_off,163,0,0,,4,,,76,127
39951,note_off,0,0,0,,7,,,79,127
39951,note_off,0,0,0,,4,,,52,127
39951,note_off,0,0,0,,12,,,59,127
39953,note_on,2,0,0,,6,,,78,127
39953,note_on,0,0,0,,10,,,81,127
39953,note_on,0,0,0,,12,,,47,127
39953,note_on,0,0,0,,12,,,59,127
40116,note_off,163,0,0,,10,,,81,127
40116,note_off,0,0,0,,6,,,78,127
40118,note_on,2,0,0,,7,,,79,127
40118,note_on,0,0,0,,4,,,76,127
40281,note_off,163,0,0,,4,,,76,127
40281,note_off,0,0,0,,7,,,79,127
40283,note_on,2,0,0,,6,,,78,127
40283,note_on,0,0,0,,3,,,75,127
40446,note_off,163,0,0,,3,,,75,127
40446,note_off,0,0,0,,6,,,78,127
40446,note_off,0,0,0,,12,,,59,127
40446,note_off,0,0,0,,12,,,47,127
40448,note_on,2,0,0,,7,,,79,127
40448,note_on,0,0,0,,4,,,76,127
40448,note_on,0,0,0,,12,,,59,127
40448,note_on,0,0,0,,4,,,52,127
40611,note_off,163,0,0,,4,,,76,127
40611,note_off,0,0,0,,7,,,79,127
40613,note_on,2,0,0,,6,,,78,127
40613,note_on,0,0,0,,3,,,75,127
40776,note_off,163,0,0,,3,,,75,127
40776,note_off,0,0,0,,6,,,78,127
40778,note_on,2,0,0,,4,,,76,127
40778,note_on,0,0,0,,7,,,79,127
40941,note_off,163,0,0,,7,,,79,127
40941,note_off,0,0,0,,4,,,76,127
40941,note_off,0,0,0,,4,,,52,127
40941,note_off,0,0,0,,12,,,59,127
40943,note_on,2,0,0,,10,,,81,127
40943,note_on,0,0,0,,6,,,78,127
40943,note_on,0,0,0,,12,,,59,127
40943,note_on,0,0,0,,12,,,47,127
41106,note_off,163,0,0,,6,,,78,127
41106,note_off,0,0,0,,10,,,81,127
41108,note_on,2,0,0,,4,,,76,127
41108,note_on,0,0,0,,7,,,79,127
41271,note_off,163,0,0,,7,,,79,127
41271,note_off,0,0,0,,4,,,76,127
41273,note_on,2,0,0,,3,,,75,127
41273,note_on,0,0,0,,6,,,78,127
41436,note_off,163,0,0,,6,,,78,127
41436,note_off,0,0,0,,3,,,75,127
41436,note_off,0,0,0,,12,,,47,127
41436,note_off,0,0,0,,12,,,59,127
41438,note_on,2,0,0,,2,,,74,127
41438,note_on,0,0,0,,8,,,80,127
41438,note_on,0,0,0,,12,,,59,127
41438,note_on,0,0,0,,4,,,52,127
41601,note_off,163,0,0,,2,,,74,127
41603,note_on,2,0,0,,0,,,72,127
41766,note_off,163,0,0,,0,,,72,127
41768,note_on,2,0,0,,12,,,71,127
41931,note_off,163,0,0,,12,,,71,127
41931,note_off,0,0,0,,4,,,52,127
41931,note_off,0,0,0,,12,,,59,127
41932,note_off,1,0,0,,8,,,80,127
41933,note_on,1,0,0,,0,,,72,127
41933,note_on,0,0,0,,10,,,81,127
41933,note_on,0,0,0,,10,,,57,127
41933,note_on,0,0,0,,10,,,45,127
42096,note_off,163,0,0,,0,,,72,127
42098,note_on,2,0,0,,2,,,74,127
42259,note_off,161,0,0,,10,,,81,127
42261,note_off,2,0,0,,2,,,74,127
42263,note_on,2,0,0,,7,,,79,127
42263,note_on,0,0,0,,4,,,76,127
42426,note_off,163,0,0,,4,,,76,127
42426,note_off,0,0,0,,7,,,79,127
42426,note_off,0,0,0,,10,,,45,127
42426,note_off,0,0,0,,10,,,57,127
42428,note_on,2,0,0,,5,,,77,127
42428,note_on,0,0,0,,10,,,57,127
42428,note_on,0,0,0,,2,,,50,127
42591,note_off,163,0,0,,5,,,77,127
42593,note_on,2,0,0,,4,,,76,127
42756,note_off,163,0,0,,4,,,76,127
42758,note_on,2,0,0,,2,,,74,127
42921,note_off,163,0,0,,2,,,74,127
42921,note_off,0,0,0,,2,,,50,127
42921,note_off,0,0,0,,10,,,57,127
42923,note_on,2,0,0,,0,,,72,127
42923,note_on,0,0,0,,5,,,53,127
43086,note_off,163,0,0,,0,,,72,127
43088,note_on,2,0,0,,12,,,71,127
43251,note_off,163,0,0,,12,,,71,127
43253,note_on,2,0,0,,10,,,69,127
43416,note_off,163,0,0,,10,,,69,127
43416,note_off,0,0,0,,5,,,53,127
43418,note_on,2,0,0,,10,,,69,127
43418,note_on,0,0,0,,4,,,52,127
43471,note_off,53,0,0,,10,,,69,127
43473,note_on,2,0,0,,8,,,68,127
43526,note_off,53,0,0,,8,,,68,127
43528,note_on,2,0,0,,10,,,69,127
43581,note_off,53,0,0,,10,,,69,127
43583,note_on,2,0,0,,8,,,68,127
43583,note_on,0,0,0,,12,,,59,127
43746,note_off,163,0,0,,12,,,59,127
43748,note_on,2,0,0,,4,,,64,127
43911,note_off,163,0,0,,4,,,64,127
43912,note_off,1,0,0,,4,,,52,127
43913,note_on,1,0,0,,2,,,62,127
43913,note_on,0,0,0,,6,,,54,127
44076,note_off,163,0,0,,2,,,62,127
44077,note_off,1,0,0,,8,,,68,127
44078,note_on,1,0,0,,0,,,60,127
44239,note_off,161,0,0,,6,,,54,127
44241,note_off,2,0,0,,0,,,60,127
44243,note_on,2,0,0,,8,,,56,127
44243,note_on,0,0,0,,12,,,59,127
44406,note_off,163,0,0,,12,,,59,127
44406,note_off,0,0,0,,8,,,56,127
44408,note_on,2,0,0,,10,,,57,127
44408,note_on,0,0,0,,0,,,60,127
44573,note_on,165,0,0,,4,,,76,127
44573,note_on,0,0,0,,0,,,84,127
44736,note_off,163,0,0,,0,,,84,127
44736,note_off,0,0,0,,4,,,76,127
44738,note_on,2,0,0,,2,,,74,127
44738,note_on,0,0,0,,12,,,83,127
44901,note_off,163,0,0,,12,,,83,127
44901,note_off,0,0,0,,2,,,74,127
44902,note_off,1,0,0,,0,,,60,127
44902,note_off,0,0,0,,10,,,57,127
44903,note_on,1,0,0,,0,,,72,127
44903,note_on,0,0,0,,10,,,81,127
45066,note_off,163,0,0,,10,,,81,127
45066,note_off,0,0,0,,0,,,72,127
45068,note_on,2,0,0,,12,,,71,127
45068,note_on,0,0,0,,7,,,79,127
45231,note_off,163,0,0,,7,,,79,127
45231,note_off,0,0,0,,12,,,71,127
45233,note_on,2,0,0,,10,,,69,127
45233,note_on,0,0,0,,5,,,77,127
45396,note_off,163,0,0,,5,,,77,127
45396,note_off,0,0,0,,10,,,69,127
45398,note_on,2,0,0,,8,,,68,127
45398,note_on,0,0,0,,4,,,76,127
45398,note_on,0,0,0,,4,,,52,127
45563,note_on,165,0,0,,12,,,59,127
45724,note_off,161,0,0,,4,,,52,127
45726,note_off,2,0,0,,12,,,59,127
45728,note_on,2,0,0,,4,,,64,127
45728,note_on,0,0,0,,4,,,52,127
45891,note_off,163,0,0,,4,,,52,127
45891,note_off,0,0,0,,4,,,64,127
45892,note_off,1,0,0,,4,,,76,127
45892,note_off,0,0,0,,8,,,68,127
45893,note_on,1,0,0,,2,,,62,127
45893,note_on,0,0,0,,6,,,54,127
46056,note_off,163,0,0,,2,,,62,127
46058,note_on,2,0,0,,0,,,60,127
46219,note_off,161,0,0,,6,,,54,127
46221,note_off,2,0,0,,0,,,60,127
46223,note_on,2,0,0,,8,,,56,127
46223,note_on,0,0,0,,12,,,59,127
46386,note_off,163,0,0,,12,,,59,127
46386,note_off,0,0,0,,8,,,56,127
46388,note_on,2,0,0,,0,,,60,127
46388,note_on,0,0,0,,10,,,57,127
46553,note_on,165,0,0,,0,,,72,127
46553,note_on,0,0,0,,10,,,81,127
46716,note_off,163,0,0,,10,,,81,127
46716,note_off,0,0,0,,0,,,72,127
46718,note_on,2,0,0,,12,,,71,127
46718,note_on,0,0,0,,7,,,79,127
46881,note_off,163,0,0,,7,,,79,127
46881,note_off,0,0,0,,12,,,71,127
46882,note_off,1,0,0,,10,,,57,127
46882,note_off,0,0,0,,0,,,60,127
46883,note_on,1,0,0,,10,,,69,127
46883,note_on,0,0,0,,5,,,77,127
47046,note_off,163,0,0,,5,,,77,127
47046,note_off,0,0,0,,10,,,69,127
47048,note_on,2,0,0,,4,,,76,127
47048,note_on,0,0,0,,8,,,68,127
47211,note_off,163,0,0,,8,,,68,127
47211,note_off,0,0,0,,4,,,76,127
47213,note_on,2,0,0,,10,,,69,127
47213,note_on,0,0,0,,5,,,77,127
47376,note_off,163,0,0,,5,,,77,127
47376,note_off,0,0,0,,10,,,69,127
47378,note_on,2,0,0,,4,,,76,127
47378,note_on,0,0,0,,8,,,68,127
47378,note_on,0,0,0,,4,,,52,127
47543,note_on,165,0,0,,12,,,59,127
47704,note_off,161,0,0,,4,,,52,127
47706,note_off,2,0,0,,12,,,59,127
47708,note_on,2,0,0,,4,,,64,127
47708,note_on,0,0,0,,4,,,52,127
47871,note_off,163,0,0,,4,,,52,127
47871,note_off,0,0,0,,4,,,64,127
47872,note_off,1,0,0,,8,,,68,127
47872,note_off,0,0,0,,4,,,76,127
47873,note_on,1,0,0,,6,,,54,127
47873,note_on,0,0,0,,2,,,62,127
48036,note_off,163,0,0,,2,,,62,127
48038,note_on,2,0,0,,0,,,60,127
48199,note_off,161,0,0,,6,,,54,127
48201,note_off,2,0,0,,0,,,60,127
48203,note_on,2,0,0,,12,,,59,127
48203,note_on,0,0,0,,8,,,56,127
48366,note_off,163,0,0,,8,,,56,127
48366,note_off,0,0,0,,12,,,59,127
48368,note_on,2,0,0,,10,,,57,127
48368,note_on,0,0,0,,0,,,60,127
48533,note_on,165,0,0,,4,,,76,127
48533,note_on,0,0,0,,0,,,84,127
48696,note_off,163,0,0,,0,,,84,127
48696,note_off,0,0,0,,4,,,76,127
48698,note_on,2,0,0,,2,,,74,127
48698,note_on,0,0,0,,12,,,83,127
48861,note_off,163,0,0,,12,,,83,127
48861,note_off,0,0,0,,2,,,74,127
48862,note_off,1,0,0,,0,,,60,127
48862,note_off,0,0,0,,10,,,57,127
48863,note_on,1,0,0,,2,,,74,127
48863,note_on,0,0,0,,12,,,83,127
49026,note_off,163,0,0,,12,,,83,127
49026,note_off,0,0,0,,2,,,74,127
49028,note_on,2,0,0,,10,,,81,127
49028,note_on,0,0,0,,0,,,72,127
49191,note_off,163,0,0,,0,,,72,127
49191,note_off,0,0,0,,10,,,81,127
49193,note_on,2,0,0,,12,,,71,127
49193,note_on,0,0,0,,7,,,79,127
49356,note_off,163,0,0,,7,,,79,127
49356,note_off,0,0,0,,12,,,71,127
49358,note_on,2,0,0,,10,,,69,127
49358,note_on,0,0,0,,6,,,78,127
49358,note_on,0,0,0,,2,,,50,127
49523,note_on,165,0,0,,10,,,57,127
49684,note_off,161,0,0,,2,,,50,127
49686,note_off,2,0,0,,10,,,57,127
49688,note_on,2,0,0,,2,,,62,127
49688,note_on,0,0,0,,2,,,50,127
49851,note_off,163,0,0,,2,,,50,127
49851,note_off,0,0,0,,2,,,62,127
49852,note_off,1,0,0,,6,,,78,127
49852,note_off,0,0,0,,10,,,69,127
49853,note_on,1,0,0,,0,,,60,127
49853,note_on,0,0,0,,4,,,52,127
50016,note_off,163,0,0,,0,,,60,127
50018,note_on,2,0,0,,12,,,59,127
50179,note_off,161,0,0,,4,,,52,127
50181,note_off,2,0,0,,12,,,59,127
50183,note_on,2,0,0,,10,,,57,127
50183,note_on,0,0,0,,6,,,54,127
50346,note_off,163,0,0,,6,,,54,127
50346,note_off,0,0,0,,10,,,57,127
50348,note_on,2,0,0,,7,,,55,127
50348,note_on,0,0,0,,12,,,59,127
50513,note_on,165,0,0,,12,,,71,127
50513,note_on,0,0,0,,7,,,79,127
50676,note_off,163,0,0,,7,,,79,127
50676,note_off,0,0,0,,12,,,71,127
50678,note_on,2,0,0,,10,,,69,127
50678,note_on,0,0,0,,6,,,78,127
50841,note_off,163,0,0,,6,,,78,127
50841,note_off,0,0,0,,10,,,69,127
50842,note_off,1,0,0,,12,,,59,127
50842,note_off,0,0,0,,7,,,55,127
50843,note_on,1,0,0,,4,,,76,127
50843,note_on,0,0,0,,7,,,67,127
51006,note_off,163,0,0,,7,,,67,127
51006,note_off,0,0,0,,4,,,76,127
51008,note_on,2,0,0,,6,,,66,127
51008,note_on,0,0,0,,2,,,74,127
51171,note_off,163,0,0,,2,,,74,127
51171,note_off,0,0,0,,6,,,66,127
51173,note_on,2,0,0,,7,,,67,127
51173,note_on,0,0,0,,4,,,76,127
51336,note_off,163,0,0,,4,,,76,127
51336,note_off,0,0,0,,7,,,67,127
51338,note_on,2,0,0,,6,,,66,127
51338,note_on,0,0,0,,2,,,74,127
51338,note_on,0,0,0,,2,,,50,127
51503,note_on,165,0,0,,10,,,57,127
51664,note_off,161,0,0,,2,,,50,127
51666,note_off,2,0,0,,10,,,57,127
51668,note_on,2,0,0,,2,,,62,127
51668,note_on,0,0,0,,2,,,50,127
51831,note_off,163,0,0,,2,,,50,127
51831,note_off,0,0,0,,2,,,62,127
51832,note_off,1,0,0,,2,,,74,127
51832,note_off,0,0,0,,6,,,66,127
51833,note_on,1,0,0,,0,,,60,127
51833,note_on,0,0,0,,4,,,52,127
51996,note_off,163,0,0,,0,,,60,127
51998,note_on,2,0,0,,12,,,59,127
52159,note_off,161,0,0,,4,,,52,127
52161,note_off,2,0,0,,12,,,59,127
52163,note_on,2,0,0,,10,,,57,127
52163,note_on,0,0,0,,6,,,54,127
52326,note_off,163,0,0,,6,,,54,127
52326,note_off,0,0,0,,10,,,57,127
52328,note_on,2,0,0,,12,,,59,127
52328,note_on,0,0,0,,7,,,55,127
52491,note_off,163,0,0,,12,,,59,127
52493,note_on,2,0,0,,2,,,74,127
52493,note_on,0,0,0,,2,,,62,127
52654,note_off,161,0,0,,7,,,55,127
52656,note_off,2,0,0,,2,,,62,127
52658,note_on,2,0,0,,6,,,54,127
52821,note_off,163,0,0,,6,,,54,127
52823,note_on,2,0,0,,4,,,52,127
52986,note_off,163,0,0,,2,,,74,127
52988,note_on,2,0,0,,4,,,76,127
52988,note_on,0,0,0,,0,,,60,127
53149,note_off,161,0,0,,4,,,52,127
53151,note_off,2,0,0,,0,,,60,127
53153,note_on,2,0,0,,2,,,50,127
53316,note_off,163,0,0,,2,,,50,127
53318,note_on,2,0,0,,0,,,48,127
53481,note_off,163,0,0,,4,,,76,127
53483,note_on,2,0,0,,6,,,78,127
53483,note_on,0,0,0,,10,,,57,127
53644,note_off,161,0,0,,0,,,48,127
53646,note_off,2,0,0,,10,,,57,127
53648,note_on,2,0,0,,12,,,47,127
53811,note_off,163,0,0,,12,,,47,127
53813,note_on,2,0,0,,10,,,45,127
53976,note_off,163,0,0,,6,,,78,127
53978,note_on,2,0,0,,7,,,79,127
53978,note_on,0,0,0,,7,,,55,127
54139,note_off,161,0,0,,10,,,45,127
54141,note_off,2,0,0,,7,,,55,127
54143,note_on,2,0,0,,7,,,43,127
54306,note_off,163,0,0,,7,,,43,127
54308,note_on,2,0,0,,6,,,42,127
54471,note_off,163,0,0,,7,,,79,127
54473,note_on,2,0,0,,10,,,81,127
54473,note_on,0,0,0,,2,,,50,127
54634,note_off,161,0,0,,6,,,42,127
54636,note_off,2,0,0,,2,,,50,127
54638,note_on,2,0,0,,4,,,40,127
54801,note_off,163,0,0,,4,,,40,127
54803,note_on,2,0,0,,2,,,38,127
54966,note_off,163,0,0,,10,,,81,127
54968,note_on,2,0,0,,12,,,83,127
55131,note_off,163,0,0,,12,,,83,127
55131,note_off,0,0,0,,2,,,38,127
55133,note_on,2,0,0,,0,,,84,127
55133,note_on,0,0,0,,0,,,48,127
55296,note_off,163,0,0,,0,,,48,127
55296,note_off,0,0,0,,0,,,84,127
55298,note_on,2,0,0,,2,,,86,127
55298,note_on,0,0,0,,12,,,47,127
55461,note_off,163,0,0,,2,,,86,127
55463,note_on,2,0,0,,0,,,84,127
55626,note_off,163,0,0,,0,,,84,127
55626,note_off,0,0,0,,12,,,47,127
55628,note_on,2,0,0,,12,,,83,127
55628,note_on,0,0,0,,0,,,48,127
55791,note_off,163,0,0,,0,,,48,127
55791,note_off,0,0,0,,12,,,83,127
55793,note_on,2,0,0,,10,,,81,127
55793,note_on,0,0,0,,2,,,50,127
55956,note_off,163,0,0,,10,,,81,127
55958,note_on,2,0,0,,7,,,79,127
56121,note_off,163,0,0,,7,,,79,127
56123,note_on,2,0,0,,6,,,78,127
56123,note_on,0,0,0,,2,,,38,127
56286,note_off,163,0,0,,2,,,38,127
56286,note_off,0,0,0,,6,,,78,127
56287,note_off,1,0,0,,2,,,50,127
56288,note_on,1,0,0,,7,,,79,127
56288,note_on,0,0,0,,7,,,43,127
56451,note_off,163,0,0,,7,,,79,127
56453,note_on,2,0,0,,4,,,76,127
56453,note_on,0,0,0,,0,,,84,127
56616,note_off,163,0,0,,0,,,84,127
56616,note_off,0,0,0,,4,,,76,127
56618,note_on,2,0,0,,12,,,83,127
56618,note_on,0,0,0,,2,,,74,127
56781,note_off,163,0,0,,2,,,74,127
56781,note_off,0,0,0,,12,,,83,127
56782,note_off,1,0,0,,7,,,43,127
56783,note_on,1,0,0,,10,,,81,127
56783,note_on,0,0,0,,0,,,72,127
56946,note_off,163,0,0,,0,,,72,127
56946,note_off,0,0,0,,10,,,81,127
56948,note_on,2,0,0,,7,,,79,127
56948,note_on,0,0,0,,12,,,71,127
57111,note_off,163,0,0,,12,,,71,127
57111,note_off,0,0,0,,7,,,79,127
57113,note_on,2,0,0,,10,,,69,127
57113,note_on,0,0,0,,6,,,78,127
57276,note_off,163,0,0,,6,,,78,127
57276,note_off,0,0,0,,10,,,69,127
57278,note_on,2,0,0,,12,,,71,127
57278,note_on,0,0,0,,7,,,79,127
57443,note_on,165,0,0,,0,,,72,127
57443,note_on,0,0,0,,4,,,64,127
57604,note_off,161,0,0,,12,,,71,127
57606,note_off,2,0,0,,4,,,64,127
57606,note_off,0,0,0,,0,,,72,127
57608,note_on,2,0,0,,12,,,71,127
57608,note_on,0,0,0,,2,,,62,127
57771,note_off,163,0,0,,2,,,62,127
57771,note_off,0,0,0,,12,,,71,127
57772,note_off,1,0,0,,7,,,79,127
57773,note_on,1,0,0,,10,,,69,127
57773,note_on,0,0,0,,0,,,60,127
57936,note_off,163,0,0,,0,,,60,127
57936,note_off,0,0,0,,10,,,69,127
57938,note_on,2,0,0,,7,,,67,127
57938,note_on,0,0,0,,12,,,59,127
58101,note_off,163,0,0,,12,,,59,127
58101,note_off,0,0,0,,7,,,67,127
58103,note_on,2,0,0,,6,,,66,127
58103,note_on,0,0,0,,10,,,57,127
58266,note_off,163,0,0,,10,,,57,127
58266,note_off,0,0,0,,6,,,66,127
58268,note_on,2,0,0,,7,,,67,127
58268,note_on,0,0,0,,12,,,59,127
58433,note_on,165,0,0,,4,,,76,127
58433,note_on,0,0,0,,0,,,84,127
58596,note_off,163,0,0,,0,,,84,127
58596,note_off,0,0,0,,4,,,76,127
58598,note_on,2,0,0,,12,,,83,127
58598,note_on,0,0,0,,2,,,74,127
58761,note_off,163,0,0,,2,,,74,127
58761,note_off,0,0,0,,12,,,83,127
58762,note_off,1,0,0,,12,,,59,127
58762,note_off,0,0,0,,7,,,67,127
58763,note_on,1,0,0,,10,,,81,127
58763,note_on,0,0,0,,0,,,72,127
58926,note_off,163,0,0,,0,,,72,127
58926,note_off,0,0,0,,10,,,81,127
58928,note_on,2,0,0,,12,,,71,127
58928,note_on,0,0,0,,7,,,79,127
59091,note_off,163,0,0,,7,,,79,127
59091,note_off,0,0,0,,12,,,71,127
59093,note_on,2,0,0,,10,,,69,127
59093,note_on,0,0,0,,6,,,78,127
59256,note_off,163,0,0,,6,,,78,127
59256,note_off,0,0,0,,10,,,69,127
59258,note_on,2,0,0,,12,,,71,127
59258,note_on,0,0,0,,7,,,79,127
59423,note_on,165,0,0,,0,,,72,127
59423,note_on,0,0,0,,4,,,64,127
59584,note_off,161,0,0,,12,,,71,127
59586,note_off,2,0,0,,4,,,64,127
59586,note_off,0,0,0,,0,,,72,127
59588,note_on,2,0,0,,2,,,62,127
59588,note_on,0,0,0,,12,,,71,127
59751,note_off,163,0,0,,12,,,71,127
59751,note_off,0,0,0,,2,,,62,127
59752,note_off,1,0,0,,7,,,79,127
59753,note_on,1,0,0,,10,,,69,127
59753,note_on,0,0,0,,0,,,60,127
59916,note_off,163,0,0,,0,,,60,127
59916,note_off,0,0,0,,10,,,69,127
59918,note_on,2,0,0,,7,,,67,127
59918,note_on,0,0,0,,12,,,59,127
60081,note_off,163,0,0,,12,,,59,127
60081,note_off,0,0,0,,7,,,67,127
60083,note_on,2,0,0,,6,,,66,127
60083,note_on,0,0,0,,10,,,57,127
60246,note_off,163,0,0,,10,,,57,127
60246,note_off,0,0,0,,6,,,66,127
60248,note_on,2,0,0,,7,,,67,127
60248,note_on,0,0,0,,12,,,59,127
60413,note_on,165,0,0,,2,,,86,127
60576,note_off,163,0,0,,2,,,86,127
60578,note_on,2,0,0,,12,,,83,127
60741,note_off,163,0,0,,12,,,83,127
60741,note_off,0,0,0,,12,,,59,127
60741,note_off,0,0,0,,7,,,67,127
60743,note_on,2,0,0,,7,,,79,127
60743,note_on,0,0,0,,12,,,47,127
60906,note_off,163,0,0,,7,,,79,127
60908,note_on,2,0,0,,2,,,74,127
61071,note_off,163,0,0,,2,,,74,127
61073,note_on,2,0,0,,12,,,71,127
61236,note_off,163,0,0,,12,,,71,127
61236,note_off,0,0,0,,12,,,47,127
61238,note_on,2,0,0,,4,,,76,127
61238,note_on,0,0,0,,0,,,48,127
61401,note_off,163,0,0,,4,,,76,127
61403,note_on,2,0,0,,0,,,72,127
61566,note_off,163,0,0,,0,,,72,127
61568,note_on,2,0,0,,10,,,69,127
61731,note_off,163,0,0,,0,,,48,127
61733,note_on,2,0,0,,10,,,45,127
61896,note_off,163,0,0,,10,,,69,127
61898,note_on,2,0,0,,7,,,67,127
61898,note_on,0,0,0,,10,,,69,127
62061,note_off,163,0,0,,10,,,69,127
62061,note_off,0,0,0,,7,,,67,127
62063,note_on,2,0,0,,6,,,66,127
62226,note_off,163,0,0,,6,,,66,127
62226,note_off,0,0,0,,10,,,45,127
62228,note_on,2,0,0,,7,,,67,127
62228,note_on,0,0,0,,12,,,47,127
62391,note_off,163,0,0,,7,,,67,127
62393,note_on,2,0,0,,2,,,86,127
62556,note_off,163,0,0,,2,,,86,127
62558,note_on,2,0,0,,12,,,83,127
62721,note_off,163,0,0,,12,,,83,127
62721,note_off,0,0,0,,12,,,47,127
62723,note_on,2,0,0,,7,,,79,127
62723,note_on,0,0,0,,12,,,47,127
62886,note_off,163,0,0,,7,,,79,127
62888,note_on,2,0,0,,2,,,74,127
63051,note_off,163,0,0,,2,,,74,127
63053,note_on,2,0,0,,12,,,71,127
63216,note_off,163,0,0,,12,,,71,127
63216,note_off,0,0,0,,12,,,47,127
63218,note_on,2,0,0,,4,,,76,127
63218,note_on,0,0,0,,0,,,48,127
63381,note_off,163,0,0,,4,,,76,127
63383,note_on,2,0,0,,0,,,72,127
63546,note_off,163,0,0,,0,,,72,127
63548,note_on,2,0,0,,10,,,69,127
63711,note_off,163,0,0,,0,,,48,127
63713,note_on,2,0,0,,2,,,50,127
63876,note_off,163,0,0,,10,,,69,127
63878,note_on,2,0,0,,10,,,69,127
63878,note_on,0,0,0,,7,,,67,127
64041,note_off,163,0,0,,7,,,67,127
64041,note_off,0,0,0,,10,,,69,127
64043,note_on,2,0,0,,6,,,66,127
64206,note_off,163,0,0,,6,,,66,127
64206,note_off,0,0,0,,2,,,50,127
64216,note_on,10,0,0,,7,,,67,127
64216,note_on,0,0,0,,7,,,43,127
66081,note_off,1865,0,0,,7,,,43,127
66081,note_off,0,0,0,,7,,,67,127
67584,end_of_track,1503,1,0,,,,,,
