tick,type,time,meta,track,program,channel,pitch,tempo,note,velocity
0,copyright,0,1,0,,,,,,
0,program_change,0,0,0,6,0,,,,
0,pitchwheel,0,0,0,,0,0,,,
0,program_change,0,0,0,6,1,,,,
0,pitchwheel,0,0,0,,1,-590,,,
0,program_change,0,0,0,6,2,,,,
0,pitchwheel,0,0,0,,2,-272,,,
0,program_change,0,0,0,6,3,,,,
0,pitchwheel,0,0,0,,3,-353,,,
0,program_change,0,0,0,6,4,,,,
0,pitchwheel,0,0,0,,4,-560,,,
0,program_change,0,0,0,6,5,,,,
0,pitchwheel,0,0,0,,5,-80,,,
0,program_change,0,0,0,6,6,,,,
0,pitchwheel,0,0,0,,6,-625,,,
0,program_change,0,0,0,6,7,,,,
0,pitchwheel,0,0,0,,7,-130,,,
0,program_change,0,0,0,6,8,,,,
0,pitchwheel,0,0,0,,8,-512,,,
0,program_change,0,0,0,6,10,,,,
0,pitchwheel,0,0,0,,10,-464,,,
0,program_change,0,0,0,6,11,,,,
0,pitchwheel,0,0,0,,11,-208,,,
0,program_change,0,0,0,6,12,,,,
0,pitchwheel,0,0,0,,12,-553,,,
0,set_tempo,0,1,0,,,,500000,,
32,note_on,32,0,0,,11,,,82,127
127,note_off,95,0,0,,11,,,82,127
128,note_on,1,0,0,,10,,,81,127
223,note_off,95,0,0,,10,,,81,127
224,note_on,1,0,0,,7,,,79,127
319,note_off,95,0,0,,7,,,79,127
320,note_on,1,0,0,,5,,,77,127
415,note_off,95,0,0,,5,,,77,127
416,note_on,1,0,0,,3,,,75,127
511,note_off,95,0,0,,3,,,75,127
512,note_on,1,0,0,,2,,,74,127
607,note_off,95,0,0,,2,,,74,127
608,note_on,1,0,0,,0,,,72,127
703,note_off,95,0,0,,0,,,72,127
704,note_on,1,0,0,,11,,,70,127
799,note_off,95,0,0,,11,,,70,127
800,note_on,1,0,0,,10,,,69,127
895,note_off,95,0,0,,10,,,69,127
896,note_on,1,0,0,,7,,,67,127
991,note_off,95,0,0,,7,,,67,127
992,note_on,1,0,0,,6,,,66,127
1087,note_off,95,0,0,,6,,,66,127
1088,note_on,1,0,0,,4,,,64,127
1183,note_off,95,0,0,,4,,,64,127
1184,note_on,1,0,0,,2,,,62,127
1279,note_off,95,0,0,,2,,,62,127
1280,note_on,1,0,0,,0,,,60,127
1375,note_off,95,0,0,,0,,,60,127
1376,note_on,1,0,0,,11,,,58,127
1471,note_off,95,0,0,,11,,,58,127
1472,note_on,1,0,0,,10,,,57,127
1567,note_off,95,0,0,,10,,,57,127
1568,note_on,1,0,0,,11,,,70,127
1568,note_on,0,0,0,,7,,,55,127
1663,note_off,95,0,0,,11,,,70,127
1664,note_on,1,0,0,,10,,,69,127
1759,note_off,95,0,0,,10,,,69,127
1760,note_on,1,0,0,,7,,,67,127
1855,note_off,95,0,0,,7,,,67,127
1856,note_on,1,0,0,,5,,,65,127
1951,note_off,95,0,0,,5,,,65,127
1952,note_on,1,0,0,,3,,,63,127
2047,note_off,95,0,0,,3,,,63,127
2048,note_on,1,0,0,,2,,,62,127
2143,note_off,95,0,0,,2,,,62,127
2144,note_on,1,0,0,,0,,,60,127
2239,note_off,95,0,0,,0,,,60,127
2240,note_on,1,0,0,,11,,,58,127
2335,note_off,95,0,0,,11,,,58,127
2335,note_off,0,0,0,,7,,,55,127
2336,note_on,1,0,0,,10,,,57,127
2431,note_off,95,0,0,,10,,,57,127
2432,note_on,1,0,0,,7,,,55,127
2527,note_off,95,0,0,,7,,,55,127
2528,note_on,1,0,0,,6,,,54,127
2623,note_off,95,0,0,,6,,,54,127
2624,note_on,1,0,0,,4,,,52,127
2719,note_off,95,0,0,,4,,,52,127
2720,note_on,1,0,0,,2,,,50,127
2815,note_off,95,0,0,,2,,,50,127
2816,note_on,1,0,0,,0,,,48,127
2911,note_off,95,0,0,,0,,,48,127
2912,note_on,1,0,0,,11,,,46,127
3007,note_off,95,0,0,,11,,,46,127
3008,note_on,1,0,0,,10,,,45,127
3103,note_off,95,0,0,,10,,,45,127
3104,note_on,1,0,0,,7,,,43,127
3296,note_on,192,0,0,,7,,,79,127
3391,note_off,95,0,0,,7,,,79,127
3392,note_on,1,0,0,,6,,,78,127
3487,note_off,95,0,0,,6,,,78,127
3488,note_on,1,0,0,,7,,,79,127
3583,note_off,95,0,0,,7,,,79,127
3584,note_off,1,0,0,,7,,,43,127
3584,note_on,0,0,0,,2,,,74,127
3679,note_off,95,0,0,,2,,,74,127
3680,note_on,1,0,0,,7,,,55,127
3680,note_on,0,0,0,,11,,,70,127
3775,note_off,95,0,0,,11,,,70,127
3776,note_on,1,0,0,,7,,,67,127
3871,note_off,95,0,0,,7,,,67,127
3871,note_off,0,0,0,,7,,,55,127
3872,note_on,1,0,0,,0,,,48,127
3872,note_on,0,0,0,,3,,,75,127
3967,note_off,95,0,0,,3,,,75,127
3968,note_on,1,0,0,,0,,,72,127
4063,note_off,95,0,0,,0,,,72,127
4064,note_on,1,0,0,,0,,,60,127
4064,note_on,0,0,0,,2,,,74,127
4159,note_off,95,0,0,,2,,,74,127
4160,note_on,1,0,0,,3,,,75,127
4255,note_off,95,0,0,,3,,,75,127
4255,note_off,0,0,0,,0,,,60,127
4255,note_off,0,0,0,,0,,,48,127
4256,note_on,1,0,0,,6,,,54,127
4256,note_on,0,0,0,,2,,,74,127
4351,note_off,95,0,0,,2,,,74,127
4352,note_on,1,0,0,,11,,,70,127
4447,note_off,95,0,0,,11,,,70,127
4447,note_off,0,0,0,,6,,,54,127
4448,note_on,1,0,0,,2,,,50,127
4448,note_on,0,0,0,,0,,,72,127
4543,note_off,95,0,0,,0,,,72,127
4544,note_on,1,0,0,,10,,,69,127
4639,note_off,95,0,0,,10,,,69,127
4639,note_off,0,0,0,,2,,,50,127
4640,note_on,1,0,0,,7,,,55,127
4640,note_on,0,0,0,,11,,,70,127
4831,note_off,191,0,0,,7,,,55,127
4832,note_on,1,0,0,,7,,,67,127
4927,note_off,95,0,0,,7,,,67,127
4928,note_on,1,0,0,,6,,,66,127
5023,note_off,95,0,0,,6,,,66,127
5024,note_on,1,0,0,,7,,,67,127
5119,note_off,95,0,0,,7,,,67,127
5120,note_on,1,0,0,,2,,,62,127
5215,note_off,95,0,0,,2,,,62,127
5216,note_on,1,0,0,,11,,,58,127
5311,note_off,95,0,0,,11,,,58,127
5312,note_on,1,0,0,,7,,,55,127
5407,note_off,95,0,0,,7,,,55,127
5408,note_on,1,0,0,,3,,,63,127
5503,note_off,95,0,0,,3,,,63,127
5504,note_on,1,0,0,,0,,,60,127
5599,note_off,95,0,0,,0,,,60,127
5599,note_off,0,0,0,,11,,,70,127
5600,note_on,1,0,0,,2,,,62,127
5600,note_on,0,0,0,,0,,,72,127
5695,note_off,95,0,0,,2,,,62,127
5696,note_on,1,0,0,,3,,,63,127
5791,note_off,95,0,0,,3,,,63,127
5791,note_off,0,0,0,,0,,,72,127
5792,note_on,1,0,0,,2,,,62,127
5792,note_on,0,0,0,,2,,,74,127
5887,note_off,95,0,0,,2,,,62,127
5888,note_on,1,0,0,,11,,,58,127
5983,note_off,95,0,0,,11,,,58,127
5983,note_off,0,0,0,,2,,,74,127
5984,note_on,1,0,0,,0,,,60,127
5984,note_on,0,0,0,,3,,,75,127
6079,note_off,95,0,0,,0,,,60,127
6080,note_on,1,0,0,,10,,,57,127
6175,note_off,95,0,0,,10,,,57,127
6175,note_off,0,0,0,,3,,,75,127
6176,note_on,1,0,0,,11,,,58,127
6176,note_on,0,0,0,,2,,,74,127
6367,note_off,191,0,0,,2,,,74,127
6368,note_on,1,0,0,,7,,,67,127
6463,note_off,95,0,0,,7,,,67,127
6464,note_on,1,0,0,,6,,,66,127
6559,note_off,95,0,0,,6,,,66,127
6560,note_on,1,0,0,,7,,,67,127
6655,note_off,95,0,0,,7,,,67,127
6656,note_on,1,0,0,,10,,,69,127
6751,note_off,95,0,0,,10,,,69,127
6751,note_off,0,0,0,,11,,,58,127
6752,note_on,1,0,0,,7,,,55,127
6752,note_on,0,0,0,,11,,,70,127
6847,note_off,95,0,0,,11,,,70,127
6848,note_on,1,0,0,,7,,,67,127
6943,note_off,95,0,0,,7,,,67,127
6943,note_off,0,0,0,,7,,,55,127
6944,note_on,1,0,0,,0,,,48,127
6944,note_on,0,0,0,,10,,,69,127
7039,note_off,95,0,0,,10,,,69,127
7040,note_on,1,0,0,,11,,,70,127
7135,note_off,95,0,0,,11,,,70,127
7135,note_off,0,0,0,,0,,,48,127
7136,note_on,1,0,0,,3,,,51,127
7136,note_on,0,0,0,,0,,,72,127
7231,note_off,95,0,0,,0,,,72,127
7232,note_on,1,0,0,,10,,,69,127
7327,note_off,95,0,0,,10,,,69,127
7327,note_off,0,0,0,,3,,,51,127
7328,note_on,1,0,0,,2,,,50,127
7328,note_on,0,0,0,,11,,,70,127
7423,note_off,95,0,0,,11,,,70,127
7424,note_on,1,0,0,,7,,,67,127
7519,note_off,95,0,0,,7,,,67,127
7519,note_off,0,0,0,,2,,,50,127
7520,note_on,1,0,0,,0,,,48,127
7520,note_on,0,0,0,,10,,,69,127
7615,note_off,95,0,0,,10,,,69,127
7616,note_on,1,0,0,,6,,,66,127
7711,note_off,95,0,0,,6,,,66,127
7711,note_off,0,0,0,,0,,,48,127
7712,note_on,1,0,0,,11,,,46,127
7712,note_on,0,0,0,,7,,,67,127
7903,note_off,191,0,0,,11,,,46,127
7904,note_on,1,0,0,,7,,,55,127
7999,note_off,95,0,0,,7,,,55,127
8000,note_on,1,0,0,,6,,,54,127
8095,note_off,95,0,0,,6,,,54,127
8096,note_on,1,0,0,,7,,,55,127
8191,note_off,95,0,0,,7,,,55,127
8192,note_on,1,0,0,,10,,,57,127
8287,note_off,95,0,0,,10,,,57,127
8288,note_on,1,0,0,,11,,,58,127
8383,note_off,95,0,0,,11,,,58,127
8384,note_on,1,0,0,,7,,,55,127
8479,note_off,95,0,0,,7,,,55,127
8480,note_on,1,0,0,,10,,,57,127
8575,note_off,95,0,0,,10,,,57,127
8576,note_on,1,0,0,,11,,,58,127
8671,note_off,95,0,0,,11,,,58,127
8671,note_off,0,0,0,,7,,,67,127
8672,note_on,1,0,0,,0,,,60,127
8672,note_on,0,0,0,,6,,,66,127
8767,note_off,95,0,0,,0,,,60,127
8768,note_on,1,0,0,,10,,,57,127
8863,note_off,95,0,0,,10,,,57,127
8863,note_off,0,0,0,,6,,,66,127
8864,note_on,1,0,0,,11,,,58,127
8864,note_on,0,0,0,,7,,,67,127
8959,note_off,95,0,0,,11,,,58,127
8960,note_on,1,0,0,,7,,,55,127
9055,note_off,95,0,0,,7,,,55,127
9055,note_off,0,0,0,,7,,,67,127
9056,note_on,1,0,0,,10,,,57,127
9056,note_on,0,0,0,,10,,,69,127
9151,note_off,95,0,0,,10,,,57,127
9152,note_on,1,0,0,,6,,,54,127
9247,note_off,95,0,0,,6,,,54,127
9247,note_off,0,0,0,,10,,,69,127
9248,note_on,1,0,0,,7,,,55,127
9248,note_on,0,0,0,,11,,,70,127
9343,note_off,95,0,0,,11,,,70,127
9344,note_on,1,0,0,,10,,,69,127
9439,note_off,95,0,0,,10,,,69,127
9439,note_off,0,0,0,,7,,,55,127
9440,note_on,1,0,0,,7,,,67,127
9440,note_on,0,0,0,,11,,,70,127
9535,note_off,95,0,0,,11,,,70,127
9536,note_on,1,0,0,,0,,,72,127
9631,note_off,95,0,0,,0,,,72,127
9631,note_off,0,0,0,,7,,,67,127
9632,note_on,1,0,0,,5,,,65,127
9632,note_on,0,0,0,,2,,,74,127
9727,note_off,95,0,0,,2,,,74,127
9728,note_on,1,0,0,,0,,,72,127
9823,note_off,95,0,0,,0,,,72,127
9823,note_off,0,0,0,,5,,,65,127
9824,note_on,1,0,0,,3,,,63,127
9824,note_on,0,0,0,,2,,,74,127
9919,note_off,95,0,0,,2,,,74,127
9920,note_on,1,0,0,,3,,,75,127
10015,note_off,95,0,0,,3,,,75,127
10015,note_off,0,0,0,,3,,,63,127
10016,note_on,1,0,0,,2,,,62,127
10016,note_on,0,0,0,,5,,,77,127
10111,note_off,95,0,0,,5,,,77,127
10112,note_on,1,0,0,,2,,,74,127
10207,note_off,95,0,0,,2,,,74,127
10207,note_off,0,0,0,,2,,,62,127
10208,note_on,1,0,0,,11,,,58,127
10208,note_on,0,0,0,,7,,,79,127
10303,note_off,95,0,0,,7,,,79,127
10304,note_on,1,0,0,,5,,,77,127
10399,note_off,95,0,0,,5,,,77,127
10399,note_off,0,0,0,,11,,,58,127
10400,note_on,1,0,0,,0,,,60,127
10400,note_on,0,0,0,,5,,,77,127
10400,note_on,0,0,0,,3,,,75,127
10495,note_off,95,0,0,,3,,,75,127
10495,note_off,0,0,0,,5,,,77,127
10496,note_on,1,0,0,,2,,,74,127
10591,note_off,95,0,0,,2,,,74,127
10591,note_off,0,0,0,,0,,,60,127
10592,note_on,1,0,0,,5,,,53,127
10592,note_on,0,0,0,,3,,,75,127
10687,note_off,95,0,0,,3,,,75,127
10688,note_on,1,0,0,,5,,,77,127
10783,note_off,95,0,0,,5,,,77,127
10783,note_off,0,0,0,,5,,,53,127
10784,note_on,1,0,0,,11,,,46,127
10784,note_on,0,0,0,,2,,,74,127
10784,note_on,0,0,0,,2,,,86,127
10879,note_off,95,0,0,,2,,,86,127
10880,note_on,1,0,0,,0,,,84,127
10975,note_off,95,0,0,,0,,,84,127
10976,note_on,1,0,0,,11,,,82,127
11071,note_off,95,0,0,,11,,,82,127
11072,note_off,1,0,0,,2,,,74,127
11072,note_on,0,0,0,,10,,,81,127
11167,note_off,95,0,0,,10,,,81,127
11167,note_off,0,0,0,,11,,,46,127
11168,note_on,1,0,0,,2,,,50,127
11168,note_on,0,0,0,,7,,,79,127
11263,note_off,95,0,0,,7,,,79,127
11264,note_on,1,0,0,,5,,,77,127
11359,note_off,95,0,0,,5,,,77,127
11360,note_on,1,0,0,,3,,,75,127
11455,note_off,95,0,0,,3,,,75,127
11456,note_on,1,0,0,,2,,,74,127
11551,note_off,95,0,0,,2,,,74,127
11551,note_off,0,0,0,,2,,,50,127
11552,note_on,1,0,0,,3,,,51,127
11552,note_on,0,0,0,,0,,,72,127
11647,note_off,95,0,0,,0,,,72,127
11648,note_on,1,0,0,,11,,,70,127
11743,note_off,95,0,0,,11,,,70,127
11744,note_on,1,0,0,,10,,,69,127
11839,note_off,95,0,0,,10,,,69,127
11840,note_on,1,0,0,,7,,,67,127
11935,note_off,95,0,0,,7,,,67,127
11935,note_off,0,0,0,,3,,,51,127
11936,note_on,1,0,0,,5,,,53,127
11936,note_on,0,0,0,,5,,,65,127
12031,note_off,95,0,0,,5,,,65,127
12032,note_on,1,0,0,,3,,,63,127
12127,note_off,95,0,0,,3,,,63,127
12128,note_on,1,0,0,,2,,,62,127
12223,note_off,95,0,0,,2,,,62,127
12224,note_on,1,0,0,,0,,,60,127
12319,note_off,95,0,0,,0,,,60,127
12319,note_off,0,0,0,,5,,,53,127
12320,note_on,1,0,0,,2,,,74,127
12320,note_on,0,0,0,,11,,,58,127
12415,note_off,95,0,0,,2,,,74,127
12416,note_on,1,0,0,,0,,,72,127
12511,note_off,95,0,0,,0,,,72,127
12512,note_on,1,0,0,,11,,,70,127
12607,note_off,95,0,0,,11,,,70,127
12608,note_on,1,0,0,,10,,,69,127
12703,note_off,95,0,0,,10,,,69,127
12704,note_on,1,0,0,,7,,,67,127
12799,note_off,95,0,0,,7,,,67,127
12800,note_on,1,0,0,,5,,,65,127
12895,note_off,95,0,0,,5,,,65,127
12895,note_off,0,0,0,,11,,,58,127
12896,note_on,1,0,0,,3,,,63,127
12991,note_off,95,0,0,,3,,,63,127
12992,note_on,1,0,0,,2,,,62,127
13087,note_off,95,0,0,,2,,,62,127
13088,note_on,1,0,0,,0,,,60,127
13183,note_off,95,0,0,,0,,,60,127
13184,note_on,1,0,0,,11,,,58,127
13279,note_off,95,0,0,,11,,,58,127
13280,note_on,1,0,0,,10,,,57,127
13375,note_off,95,0,0,,10,,,57,127
13376,note_on,1,0,0,,7,,,55,127
13471,note_off,95,0,0,,7,,,55,127
13472,note_on,1,0,0,,5,,,53,127
13567,note_off,95,0,0,,5,,,53,127
13568,note_on,1,0,0,,3,,,51,127
13663,note_off,95,0,0,,3,,,51,127
13664,note_on,1,0,0,,2,,,50,127
13759,note_off,95,0,0,,2,,,50,127
13760,note_on,1,0,0,,0,,,48,127
13855,note_off,95,0,0,,0,,,48,127
13856,note_on,1,0,0,,11,,,46,127
14048,note_on,192,0,0,,11,,,82,127
14143,note_off,95,0,0,,11,,,82,127
14144,note_on,1,0,0,,10,,,81,127
14239,note_off,95,0,0,,10,,,81,127
14240,note_on,1,0,0,,11,,,82,127
14335,note_off,95,0,0,,11,,,82,127
14336,note_on,1,0,0,,2,,,74,127
14431,note_off,95,0,0,,2,,,74,127
14431,note_off,0,0,0,,11,,,46,127
14432,note_on,1,0,0,,11,,,70,127
14432,note_on,0,0,0,,11,,,58,127
14432,note_on,0,0,0,,4,,,76,127
14527,note_off,95,0,0,,4,,,76,127
14528,note_on,1,0,0,,5,,,77,127
14623,note_off,95,0,0,,5,,,77,127
14623,note_off,0,0,0,,11,,,58,127
14623,note_off,0,0,0,,11,,,70,127
14624,note_on,1,0,0,,11,,,70,127
14624,note_on,0,0,0,,0,,,60,127
14624,note_on,0,0,0,,4,,,76,127
14719,note_off,95,0,0,,4,,,76,127
14720,note_on,1,0,0,,5,,,77,127
14815,note_off,95,0,0,,5,,,77,127
14815,note_off,0,0,0,,0,,,60,127
14815,note_off,0,0,0,,11,,,70,127
14816,note_on,1,0,0,,11,,,70,127
14816,note_on,0,0,0,,0,,,60,127
14816,note_on,0,0,0,,7,,,79,127
14911,note_off,95,0,0,,7,,,79,127
14912,note_on,1,0,0,,8,,,80,127
15007,note_off,95,0,0,,8,,,80,127
15007,note_off,0,0,0,,0,,,60,127
15007,note_off,0,0,0,,11,,,70,127
15008,note_on,1,0,0,,11,,,70,127
15008,note_on,0,0,0,,0,,,60,127
15008,note_on,0,0,0,,11,,,82,127
15103,note_off,95,0,0,,11,,,82,127
15104,note_on,1,0,0,,7,,,79,127
15199,note_off,95,0,0,,7,,,79,127
15199,note_off,0,0,0,,0,,,60,127
15199,note_off,0,0,0,,11,,,70,127
15200,note_on,1,0,0,,11,,,70,127
15200,note_on,0,0,0,,0,,,60,127
15200,note_on,0,0,0,,5,,,77,127
15295,note_off,95,0,0,,5,,,77,127
15296,note_on,1,0,0,,4,,,76,127
15391,note_off,95,0,0,,4,,,76,127
15391,note_off,0,0,0,,0,,,60,127
15391,note_off,0,0,0,,11,,,70,127
15392,note_on,1,0,0,,8,,,68,127
15392,note_on,0,0,0,,0,,,60,127
15392,note_on,0,0,0,,5,,,65,127
15392,note_on,0,0,0,,4,,,76,127
15583,note_off,191,0,0,,4,,,76,127
15583,note_off,0,0,0,,5,,,65,127
15583,note_off,0,0,0,,0,,,60,127
15583,note_off,0,0,0,,8,,,68,127
15584,note_on,1,0,0,,8,,,68,127
15584,note_on,0,0,0,,0,,,60,127
15584,note_on,0,0,0,,5,,,65,127
15584,note_on,0,0,0,,5,,,77,127
15775,note_off,191,0,0,,5,,,65,127
15775,note_off,0,0,0,,0,,,60,127
15775,note_off,0,0,0,,8,,,68,127
15776,note_on,1,0,0,,8,,,68,127
15776,note_on,0,0,0,,0,,,60,127
15776,note_on,0,0,0,,5,,,65,127
15871,note_off,95,0,0,,5,,,77,127
15872,note_on,1,0,0,,5,,,77,127
15967,note_off,95,0,0,,5,,,77,127
15967,note_off,0,0,0,,5,,,65,127
15967,note_off,0,0,0,,0,,,60,127
15967,note_off,0,0,0,,8,,,68,127
15968,note_on,1,0,0,,8,,,68,127
15968,note_on,0,0,0,,0,,,60,127
15968,note_on,0,0,0,,5,,,65,127
15968,note_on,0,0,0,,7,,,79,127
16063,note_off,95,0,0,,7,,,79,127
16064,note_on,1,0,0,,8,,,80,127
16159,note_off,95,0,0,,8,,,80,127
16159,note_off,0,0,0,,5,,,65,127
16159,note_off,0,0,0,,0,,,60,127
16159,note_off,0,0,0,,8,,,68,127
16160,note_on,1,0,0,,7,,,67,127
16160,note_on,0,0,0,,12,,,59,127
16160,note_on,0,0,0,,5,,,65,127
16160,note_on,0,0,0,,8,,,80,127
16255,note_off,95,0,0,,8,,,80,127
16256,note_on,1,0,0,,7,,,79,127
16351,note_off,95,0,0,,7,,,79,127
16351,note_off,0,0,0,,5,,,65,127
16351,note_off,0,0,0,,12,,,59,127
16351,note_off,0,0,0,,7,,,67,127
16352,note_on,1,0,0,,7,,,67,127
16352,note_on,0,0,0,,12,,,59,127
16352,note_on,0,0,0,,5,,,65,127
16352,note_on,0,0,0,,7,,,79,127
16447,note_off,95,0,0,,7,,,79,127
16448,note_on,1,0,0,,5,,,77,127
16543,note_off,95,0,0,,5,,,77,127
16543,note_off,0,0,0,,5,,,65,127
16543,note_off,0,0,0,,12,,,59,127
16543,note_off,0,0,0,,7,,,67,127
16544,note_on,1,0,0,,7,,,67,127
16544,note_on,0,0,0,,12,,,59,127
16544,note_on,0,0,0,,5,,,65,127
16544,note_on,0,0,0,,5,,,77,127
16639,note_off,95,0,0,,5,,,77,127
16640,note_on,1,0,0,,3,,,75,127
16735,note_off,95,0,0,,3,,,75,127
16735,note_off,0,0,0,,5,,,65,127
16735,note_off,0,0,0,,12,,,59,127
16735,note_off,0,0,0,,7,,,67,127
16736,note_on,1,0,0,,7,,,67,127
16736,note_on,0,0,0,,12,,,59,127
16736,note_on,0,0,0,,5,,,65,127
16736,note_on,0,0,0,,3,,,75,127
16831,note_off,95,0,0,,3,,,75,127
16832,note_on,1,0,0,,2,,,74,127
16927,note_off,95,0,0,,2,,,74,127
16927,note_off,0,0,0,,5,,,65,127
16927,note_off,0,0,0,,12,,,59,127
16927,note_off,0,0,0,,7,,,67,127
16928,note_on,1,0,0,,0,,,72,127
16928,note_on,0,0,0,,7,,,67,127
16928,note_on,0,0,0,,0,,,60,127
16928,note_on,0,0,0,,3,,,75,127
17119,note_off,191,0,0,,3,,,75,127
17119,note_off,0,0,0,,0,,,60,127
17119,note_off,0,0,0,,7,,,67,127
17119,note_off,0,0,0,,0,,,72,127
17120,note_on,1,0,0,,0,,,72,127
17120,note_on,0,0,0,,0,,,60,127
17120,note_on,0,0,0,,0,,,84,127
17215,note_off,95,0,0,,0,,,84,127
17216,note_on,1,0,0,,12,,,83,127
17311,note_off,95,0,0,,12,,,83,127
17311,note_off,0,0,0,,0,,,60,127
17311,note_off,0,0,0,,0,,,72,127
17312,note_on,1,0,0,,0,,,72,127
17312,note_on,0,0,0,,0,,,60,127
17312,note_on,0,0,0,,0,,,84,127
17407,note_off,95,0,0,,0,,,84,127
17408,note_on,1,0,0,,4,,,76,127
17503,note_off,95,0,0,,4,,,76,127
17503,note_off,0,0,0,,0,,,60,127
17503,note_off,0,0,0,,0,,,72,127
17504,note_on,1,0,0,,0,,,60,127
17504,note_on,0,0,0,,0,,,72,127
17504,note_on,0,0,0,,6,,,78,127
17599,note_off,95,0,0,,6,,,78,127
17600,note_on,1,0,0,,7,,,79,127
17695,note_off,95,0,0,,7,,,79,127
17695,note_off,0,0,0,,0,,,72,127
17695,note_off,0,0,0,,0,,,60,127
17696,note_on,1,0,0,,0,,,72,127
17696,note_on,0,0,0,,2,,,62,127
17696,note_on,0,0,0,,6,,,78,127
17791,note_off,95,0,0,,6,,,78,127
17792,note_on,1,0,0,,7,,,79,127
17887,note_off,95,0,0,,7,,,79,127
17887,note_off,0,0,0,,2,,,62,127
17887,note_off,0,0,0,,0,,,72,127
17888,note_on,1,0,0,,0,,,72,127
17888,note_on,0,0,0,,2,,,62,127
17888,note_on,0,0,0,,10,,,81,127
17983,note_off,95,0,0,,10,,,81,127
17984,note_on,1,0,0,,11,,,82,127
18079,note_off,95,0,0,,11,,,82,127
18079,note_off,0,0,0,,2,,,62,127
18079,note_off,0,0,0,,0,,,72,127
18080,note_on,1,0,0,,2,,,62,127
18080,note_on,0,0,0,,0,,,72,127
18080,note_on,0,0,0,,0,,,84,127
18175,note_off,95,0,0,,0,,,84,127
18176,note_on,1,0,0,,10,,,81,127
18271,note_off,95,0,0,,10,,,81,127
18271,note_off,0,0,0,,0,,,72,127
18271,note_off,0,0,0,,2,,,62,127
18272,note_on,1,0,0,,0,,,72,127
18272,note_on,0,0,0,,2,,,62,127
18272,note_on,0,0,0,,7,,,79,127
18367,note_off,95,0,0,,7,,,79,127
18368,note_on,1,0,0,,6,,,78,127
18463,note_off,95,0,0,,6,,,78,127
18463,note_off,0,0,0,,2,,,62,127
18463,note_off,0,0,0,,0,,,72,127
18464,note_on,1,0,0,,11,,,70,127
18464,note_on,0,0,0,,2,,,62,127
18464,note_on,0,0,0,,7,,,67,127
18464,note_on,0,0,0,,6,,,78,127
18655,note_off,191,0,0,,6,,,78,127
18655,note_off,0,0,0,,7,,,67,127
18655,note_off,0,0,0,,2,,,62,127
18655,note_off,0,0,0,,11,,,70,127
18656,note_on,1,0,0,,11,,,70,127
18656,note_on,0,0,0,,7,,,67,127
18656,note_on,0,0,0,,2,,,62,127
18656,note_on,0,0,0,,7,,,79,127
18847,note_off,191,0,0,,2,,,62,127
18847,note_off,0,0,0,,7,,,67,127
18847,note_off,0,0,0,,11,,,70,127
18848,note_on,1,0,0,,11,,,70,127
18848,note_on,0,0,0,,2,,,62,127
18848,note_on,0,0,0,,7,,,67,127
18943,note_off,95,0,0,,7,,,79,127
18944,note_on,1,0,0,,7,,,79,127
19039,note_off,95,0,0,,7,,,79,127
19039,note_off,0,0,0,,7,,,67,127
19039,note_off,0,0,0,,2,,,62,127
19039,note_off,0,0,0,,11,,,70,127
19040,note_on,1,0,0,,11,,,70,127
19040,note_on,0,0,0,,2,,,62,127
19040,note_on,0,0,0,,7,,,67,127
19040,note_on,0,0,0,,10,,,81,127
19135,note_off,95,0,0,,10,,,81,127
19136,note_on,1,0,0,,11,,,82,127
19231,note_off,95,0,0,,11,,,82,127
19231,note_off,0,0,0,,7,,,67,127
19231,note_off,0,0,0,,2,,,62,127
19231,note_off,0,0,0,,11,,,70,127
19232,note_on,1,0,0,,10,,,69,127
19232,note_on,0,0,0,,1,,,61,127
19232,note_on,0,0,0,,7,,,67,127
19232,note_on,0,0,0,,11,,,82,127
19327,note_off,95,0,0,,11,,,82,127
19328,note_on,1,0,0,,10,,,81,127
19423,note_off,95,0,0,,10,,,81,127
19423,note_off,0,0,0,,7,,,67,127
19423,note_off,0,0,0,,1,,,61,127
19423,note_off,0,0,0,,10,,,69,127
19424,note_on,1,0,0,,10,,,69,127
19424,note_on,0,0,0,,7,,,67,127
19424,note_on,0,0,0,,1,,,61,127
19424,note_on,0,0,0,,10,,,81,127
19519,note_off,95,0,0,,10,,,81,127
19520,note_on,1,0,0,,7,,,79,127
19615,note_off,95,0,0,,7,,,79,127
19615,note_off,0,0,0,,1,,,61,127
19615,note_off,0,0,0,,7,,,67,127
19615,note_off,0,0,0,,10,,,69,127
19616,note_on,1,0,0,,10,,,69,127
19616,note_on,0,0,0,,1,,,61,127
19616,note_on,0,0,0,,7,,,67,127
19616,note_on,0,0,0,,7,,,79,127
19711,note_off,95,0,0,,7,,,79,127
19712,note_on,1,0,0,,5,,,77,127
19807,note_off,95,0,0,,5,,,77,127
19807,note_off,0,0,0,,7,,,67,127
19807,note_off,0,0,0,,1,,,61,127
19807,note_off,0,0,0,,10,,,69,127
19808,note_on,1,0,0,,7,,,67,127
19808,note_on,0,0,0,,10,,,69,127
19808,note_on,0,0,0,,1,,,61,127
19808,note_on,0,0,0,,5,,,77,127
19903,note_off,95,0,0,,5,,,77,127
19904,note_on,1,0,0,,4,,,76,127
19999,note_off,95,0,0,,4,,,76,127
19999,note_off,0,0,0,,1,,,61,127
19999,note_off,0,0,0,,10,,,69,127
19999,note_off,0,0,0,,7,,,67,127
20000,note_on,1,0,0,,10,,,69,127
20000,note_on,0,0,0,,2,,,62,127
20000,note_on,0,0,0,,5,,,77,127
20191,note_off,191,0,0,,5,,,77,127
20191,note_off,0,0,0,,2,,,62,127
20191,note_off,0,0,0,,10,,,69,127
20192,note_on,1,0,0,,10,,,69,127
20192,note_on,0,0,0,,2,,,62,127
20192,note_on,0,0,0,,2,,,86,127
20287,note_off,95,0,0,,2,,,86,127
20288,note_on,1,0,0,,1,,,85,127
20383,note_off,95,0,0,,1,,,85,127
20383,note_off,0,0,0,,2,,,62,127
20383,note_off,0,0,0,,10,,,69,127
20384,note_on,1,0,0,,10,,,69,127
20384,note_on,0,0,0,,2,,,62,127
20384,note_on,0,0,0,,2,,,86,127
20479,note_off,95,0,0,,2,,,86,127
20480,note_on,1,0,0,,11,,,82,127
20575,note_off,95,0,0,,11,,,82,127
20575,note_off,0,0,0,,2,,,62,127
20575,note_off,0,0,0,,10,,,69,127
20576,note_on,1,0,0,,10,,,69,127
20576,note_on,0,0,0,,2,,,62,127
20576,note_on,0,0,0,,0,,,84,127
20671,note_off,95,0,0,,0,,,84,127
20672,note_on,1,0,0,,10,,,81,127
20767,note_off,95,0,0,,10,,,81,127
20767,note_off,0,0,0,,2,,,62,127
20767,note_off,0,0,0,,10,,,69,127
20768,note_on,1,0,0,,7,,,67,127
20768,note_on,0,0,0,,7,,,55,127
20768,note_on,0,0,0,,2,,,62,127
20768,note_on,0,0,0,,11,,,82,127
20863,note_off,95,0,0,,11,,,82,127
20864,note_on,1,0,0,,7,,,79,127
20959,note_off,95,0,0,,7,,,79,127
20959,note_off,0,0,0,,2,,,62,127
20959,note_off,0,0,0,,7,,,55,127
20959,note_off,0,0,0,,7,,,67,127
20960,note_on,1,0,0,,2,,,62,127
20960,note_on,0,0,0,,7,,,67,127
20960,note_on,0,0,0,,7,,,55,127
20960,note_on,0,0,0,,10,,,81,127
21055,note_off,95,0,0,,10,,,81,127
21056,note_on,1,0,0,,5,,,77,127
21151,note_off,95,0,0,,5,,,77,127
21151,note_off,0,0,0,,7,,,55,127
21151,note_off,0,0,0,,7,,,67,127
21151,note_off,0,0,0,,2,,,62,127
21152,note_on,1,0,0,,2,,,62,127
21152,note_on,0,0,0,,7,,,67,127
21152,note_on,0,0,0,,7,,,55,127
21152,note_on,0,0,0,,7,,,79,127
21247,note_off,95,0,0,,7,,,79,127
21248,note_on,1,0,0,,4,,,76,127
21343,note_off,95,0,0,,4,,,76,127
21343,note_off,0,0,0,,7,,,55,127
21343,note_off,0,0,0,,7,,,67,127
21343,note_off,0,0,0,,2,,,62,127
21344,note_on,1,0,0,,7,,,67,127
21344,note_on,0,0,0,,7,,,55,127
21344,note_on,0,0,0,,2,,,62,127
21344,note_on,0,0,0,,5,,,77,127
21439,note_off,95,0,0,,5,,,77,127
21440,note_on,1,0,0,,2,,,74,127
21535,note_off,95,0,0,,2,,,74,127
21535,note_off,0,0,0,,2,,,62,127
21535,note_off,0,0,0,,7,,,55,127
21535,note_off,0,0,0,,7,,,67,127
21536,note_on,1,0,0,,10,,,57,127
21536,note_on,0,0,0,,10,,,69,127
21536,note_on,0,0,0,,1,,,73,127
21631,note_off,95,0,0,,1,,,73,127
21632,note_on,1,0,0,,10,,,81,127
21727,note_off,95,0,0,,10,,,81,127
21728,note_on,1,0,0,,8,,,80,127
21823,note_off,95,0,0,,8,,,80,127
21824,note_on,1,0,0,,7,,,79,127
21919,note_off,95,0,0,,7,,,79,127
21920,note_on,1,0,0,,6,,,78,127
22015,note_off,95,0,0,,6,,,78,127
22016,note_on,1,0,0,,5,,,77,127
22111,note_off,95,0,0,,5,,,77,127
22112,note_on,1,0,0,,4,,,76,127
22207,note_off,95,0,0,,4,,,76,127
22208,note_on,1,0,0,,2,,,74,127
22303,note_off,95,0,0,,2,,,74,127
22303,note_off,0,0,0,,10,,,69,127
22303,note_off,0,0,0,,10,,,57,127
22304,note_on,1,0,0,,1,,,73,127
22400,note_on,96,0,0,,10,,,69,127
22495,note_off,95,0,0,,10,,,69,127
22496,note_on,1,0,0,,8,,,68,127
22591,note_off,95,0,0,,8,,,68,127
22592,note_on,1,0,0,,7,,,67,127
22687,note_off,95,0,0,,7,,,67,127
22688,note_on,1,0,0,,6,,,66,127
22783,note_off,95,0,0,,6,,,66,127
22784,note_on,1,0,0,,5,,,65,127
22879,note_off,95,0,0,,5,,,65,127
22880,note_on,1,0,0,,4,,,64,127
22975,note_off,95,0,0,,4,,,64,127
22976,note_off,1,0,0,,1,,,73,127
22976,note_on,0,0,0,,2,,,62,127
23071,note_off,95,0,0,,2,,,62,127
23072,note_on,1,0,0,,1,,,61,127
23168,note_on,96,0,0,,10,,,57,127
23263,note_off,95,0,0,,10,,,57,127
23264,note_on,1,0,0,,8,,,56,127
23359,note_off,95,0,0,,8,,,56,127
23360,note_on,1,0,0,,7,,,55,127
23455,note_off,95,0,0,,7,,,55,127
23456,note_on,1,0,0,,6,,,54,127
23551,note_off,95,0,0,,6,,,54,127
23552,note_on,1,0,0,,5,,,53,127
23647,note_off,95,0,0,,5,,,53,127
23648,note_off,1,0,0,,1,,,61,127
23648,note_on,0,0,0,,4,,,52,127
23743,note_off,95,0,0,,4,,,52,127
23744,note_on,1,0,0,,2,,,50,127
23839,note_off,95,0,0,,2,,,50,127
23840,note_on,1,0,0,,1,,,49,127
23935,note_off,95,0,0,,1,,,49,127
23936,note_on,1,0,0,,2,,,50,127
24031,note_off,95,0,0,,2,,,50,127
24032,note_on,1,0,0,,0,,,48,127
24127,note_off,95,0,0,,0,,,48,127
24128,note_on,1,0,0,,11,,,46,127
24223,note_off,95,0,0,,11,,,46,127
24224,note_on,1,0,0,,10,,,45,127
24319,note_off,95,0,0,,10,,,45,127
24320,note_on,1,0,0,,7,,,43,127
24415,note_off,95,0,0,,7,,,43,127
24416,note_on,1,0,0,,5,,,41,127
24511,note_off,95,0,0,,5,,,41,127
24512,note_on,1,0,0,,4,,,40,127
24607,note_off,95,0,0,,4,,,40,127
24608,note_on,1,0,0,,2,,,38,127
24800,note_on,192,0,0,,2,,,86,127
24895,note_off,95,0,0,,2,,,86,127
24896,note_on,1,0,0,,1,,,85,127
24991,note_off,95,0,0,,1,,,85,127
24992,note_on,1,0,0,,2,,,86,127
25087,note_off,95,0,0,,2,,,86,127
25088,note_off,1,0,0,,2,,,38,127
25088,note_on,0,0,0,,10,,,81,127
25183,note_off,95,0,0,,10,,,81,127
25184,note_on,1,0,0,,5,,,53,127
25184,note_on,0,0,0,,5,,,77,127
25279,note_off,95,0,0,,5,,,77,127
25280,note_on,1,0,0,,2,,,74,127
25375,note_off,95,0,0,,2,,,74,127
25375,note_off,0,0,0,,5,,,53,127
25376,note_on,1,0,0,,7,,,55,127
25376,note_on,0,0,0,,11,,,82,127
25471,note_off,95,0,0,,11,,,82,127
25472,note_on,1,0,0,,7,,,79,127
25567,note_off,95,0,0,,7,,,79,127
25568,note_on,1,0,0,,7,,,43,127
25568,note_on,0,0,0,,10,,,81,127
25663,note_off,95,0,0,,10,,,81,127
25664,note_on,1,0,0,,4,,,76,127
25759,note_off,95,0,0,,4,,,76,127
25759,note_off,0,0,0,,7,,,43,127
25759,note_off,0,0,0,,7,,,55,127
25760,note_on,1,0,0,,10,,,57,127
25760,note_on,0,0,0,,5,,,77,127
25855,note_off,95,0,0,,5,,,77,127
25856,note_on,1,0,0,,2,,,74,127
25951,note_off,95,0,0,,2,,,74,127
25952,note_on,1,0,0,,10,,,45,127
25952,note_on,0,0,0,,4,,,76,127
26047,note_off,95,0,0,,4,,,76,127
26048,note_on,1,0,0,,1,,,73,127
26143,note_off,95,0,0,,1,,,73,127
26143,note_off,0,0,0,,10,,,45,127
26143,note_off,0,0,0,,10,,,57,127
26144,note_on,1,0,0,,2,,,50,127
26144,note_on,0,0,0,,2,,,74,127
26239,note_off,95,0,0,,2,,,74,127
26240,note_on,1,0,0,,10,,,81,127
26335,note_off,95,0,0,,10,,,81,127
26336,note_on,1,0,0,,8,,,80,127
26431,note_off,95,0,0,,8,,,80,127
26432,note_on,1,0,0,,7,,,79,127
26527,note_off,95,0,0,,7,,,79,127
26528,note_on,1,0,0,,6,,,78,127
26623,note_off,95,0,0,,6,,,78,127
26624,note_on,1,0,0,,5,,,77,127
26719,note_off,95,0,0,,5,,,77,127
26719,note_off,0,0,0,,2,,,50,127
26720,note_on,1,0,0,,4,,,76,127
26815,note_off,95,0,0,,4,,,76,127
26816,note_on,1,0,0,,2,,,74,127
26911,note_off,95,0,0,,2,,,74,127
26912,note_on,1,0,0,,1,,,73,127
27008,note_on,96,0,0,,10,,,69,127
27103,note_off,95,0,0,,10,,,69,127
27104,note_on,1,0,0,,8,,,68,127
27199,note_off,95,0,0,,8,,,68,127
27200,note_on,1,0,0,,7,,,67,127
27295,note_off,95,0,0,,7,,,67,127
27296,note_on,1,0,0,,6,,,66,127
27391,note_off,95,0,0,,6,,,66,127
27392,note_on,1,0,0,,5,,,65,127
27487,note_off,95,0,0,,5,,,65,127
27488,note_on,1,0,0,,4,,,64,127
27583,note_off,95,0,0,,4,,,64,127
27584,note_off,1,0,0,,1,,,73,127
27584,note_on,0,0,0,,2,,,62,127
27679,note_off,95,0,0,,2,,,62,127
27680,note_on,1,0,0,,1,,,61,127
27776,note_on,96,0,0,,10,,,57,127
27871,note_off,95,0,0,,10,,,57,127
27872,note_on,1,0,0,,8,,,56,127
27967,note_off,95,0,0,,8,,,56,127
27968,note_on,1,0,0,,7,,,55,127
28063,note_off,95,0,0,,7,,,55,127
28064,note_on,1,0,0,,6,,,54,127
28159,note_off,95,0,0,,6,,,54,127
28160,note_on,1,0,0,,5,,,53,127
28255,note_off,95,0,0,,5,,,53,127
28256,note_off,1,0,0,,1,,,61,127
28256,note_on,0,0,0,,4,,,52,127
28351,note_off,95,0,0,,4,,,52,127
28352,note_on,1,0,0,,2,,,50,127
28447,note_off,95,0,0,,2,,,50,127
28448,note_on,1,0,0,,1,,,49,127
28543,note_off,95,0,0,,1,,,49,127
28544,note_on,1,0,0,,2,,,50,127
28639,note_off,95,0,0,,2,,,50,127
28640,note_on,1,0,0,,0,,,48,127
28735,note_off,95,0,0,,0,,,48,127
28736,note_on,1,0,0,,11,,,46,127
28831,note_off,95,0,0,,11,,,46,127
28832,note_on,1,0,0,,10,,,45,127
28927,note_off,95,0,0,,10,,,45,127
28928,note_on,1,0,0,,7,,,43,127
29023,note_off,95,0,0,,7,,,43,127
29024,note_on,1,0,0,,5,,,41,127
29119,note_off,95,0,0,,5,,,41,127
29120,note_on,1,0,0,,4,,,40,127
29215,note_off,95,0,0,,4,,,40,127
29216,note_on,1,0,0,,2,,,38,127
29408,note_on,192,0,0,,2,,,86,127
29503,note_off,95,0,0,,2,,,86,127
29504,note_on,1,0,0,,1,,,85,127
29599,note_off,95,0,0,,1,,,85,127
29600,note_on,1,0,0,,2,,,86,127
29695,note_off,95,0,0,,2,,,86,127
29696,note_on,1,0,0,,10,,,81,127
29791,note_off,95,0,0,,10,,,81,127
29791,note_off,0,0,0,,2,,,38,127
29792,note_on,1,0,0,,5,,,53,127
29792,note_on,0,0,0,,5,,,77,127
29887,note_off,95,0,0,,5,,,77,127
29888,note_on,1,0,0,,2,,,74,127
29983,note_off,95,0,0,,2,,,74,127
29983,note_off,0,0,0,,5,,,53,127
29984,note_on,1,0,0,,7,,,55,127
29984,note_on,0,0,0,,11,,,82,127
30079,note_off,95,0,0,,11,,,82,127
30080,note_on,1,0,0,,7,,,79,127
30175,note_off,95,0,0,,7,,,79,127
30176,note_on,1,0,0,,7,,,43,127
30176,note_on,0,0,0,,10,,,81,127
30271,note_off,95,0,0,,10,,,81,127
30272,note_on,1,0,0,,4,,,76,127
30367,note_off,95,0,0,,4,,,76,127
30367,note_off,0,0,0,,7,,,43,127
30367,note_off,0,0,0,,7,,,55,127
30368,note_on,1,0,0,,10,,,57,127
30368,note_on,0,0,0,,5,,,77,127
30463,note_off,95,0,0,,5,,,77,127
30464,note_on,1,0,0,,2,,,74,127
30559,note_off,95,0,0,,2,,,74,127
30560,note_on,1,0,0,,10,,,45,127
30560,note_on,0,0,0,,4,,,76,127
30655,note_off,95,0,0,,4,,,76,127
30656,note_on,1,0,0,,1,,,73,127
30751,note_off,95,0,0,,1,,,73,127
30751,note_off,0,0,0,,10,,,45,127
30751,note_off,0,0,0,,10,,,57,127
30752,note_on,1,0,0,,2,,,50,127
30752,note_on,0,0,0,,2,,,74,127
30847,note_off,95,0,0,,2,,,74,127
30848,note_on,1,0,0,,1,,,85,127
30943,note_off,95,0,0,,1,,,85,127
30943,note_off,0,0,0,,2,,,50,127
30944,note_on,1,0,0,,5,,,53,127
30944,note_on,0,0,0,,2,,,86,127
31039,note_off,95,0,0,,2,,,86,127
31040,note_on,1,0,0,,10,,,81,127
31135,note_off,95,0,0,,10,,,81,127
31135,note_off,0,0,0,,5,,,53,127
31136,note_on,1,0,0,,7,,,55,127
31136,note_on,0,0,0,,11,,,82,127
31231,note_off,95,0,0,,11,,,82,127
31232,note_on,1,0,0,,7,,,79,127
31327,note_off,95,0,0,,7,,,79,127
31327,note_off,0,0,0,,7,,,55,127
31328,note_on,1,0,0,,1,,,49,127
31328,note_on,0,0,0,,10,,,81,127
31423,note_off,95,0,0,,10,,,81,127
31424,note_on,1,0,0,,4,,,76,127
31519,note_off,95,0,0,,4,,,76,127
31519,note_off,0,0,0,,1,,,49,127
31520,note_on,1,0,0,,2,,,50,127
31520,note_on,0,0,0,,5,,,77,127
31615,note_off,95,0,0,,5,,,77,127
31616,note_on,1,0,0,,1,,,73,127
31711,note_off,95,0,0,,1,,,73,127
31711,note_off,0,0,0,,2,,,50,127
31712,note_on,1,0,0,,5,,,53,127
31712,note_on,0,0,0,,2,,,74,127
31807,note_off,95,0,0,,2,,,74,127
31808,note_on,1,0,0,,10,,,69,127
31903,note_off,95,0,0,,10,,,69,127
31903,note_off,0,0,0,,5,,,53,127
31904,note_on,1,0,0,,7,,,55,127
31904,note_on,0,0,0,,5,,,77,127
31951,note_off,47,0,0,,5,,,77,127
31952,note_on,1,0,0,,4,,,76,127
31999,note_off,47,0,0,,4,,,76,127
32000,note_on,1,0,0,,5,,,77,127
32047,note_off,47,0,0,,5,,,77,127
32048,note_on,1,0,0,,4,,,76,127
32095,note_off,47,0,0,,4,,,76,127
32095,note_off,0,0,0,,7,,,55,127
32096,note_on,1,0,0,,10,,,57,127
32096,note_on,0,0,0,,5,,,77,127
32143,note_off,47,0,0,,5,,,77,127
32144,note_on,1,0,0,,4,,,76,127
32191,note_off,47,0,0,,4,,,76,127
32192,note_on,1,0,0,,2,,,74,127
32239,note_off,47,0,0,,2,,,74,127
32240,note_on,1,0,0,,4,,,76,127
32287,note_off,47,0,0,,4,,,76,127
32287,note_off,0,0,0,,10,,,57,127
32288,note_on,1,0,0,,2,,,50,127
32288,note_on,0,0,0,,2,,,74,127
32383,note_off,95,0,0,,2,,,74,127
32384,note_on,1,0,0,,1,,,73,127
32479,note_off,95,0,0,,1,,,73,127
32479,note_off,0,0,0,,2,,,50,127
32480,note_on,1,0,0,,5,,,53,127
32480,note_on,0,0,0,,2,,,74,127
32575,note_off,95,0,0,,2,,,74,127
32576,note_on,1,0,0,,10,,,69,127
32671,note_off,95,0,0,,10,,,69,127
32671,note_off,0,0,0,,5,,,53,127
32672,note_on,1,0,0,,7,,,55,127
32672,note_on,0,0,0,,11,,,70,127
32767,note_off,95,0,0,,11,,,70,127
32768,note_on,1,0,0,,7,,,67,127
32863,note_off,95,0,0,,7,,,67,127
32863,note_off,0,0,0,,7,,,55,127
32864,note_on,1,0,0,,1,,,49,127
32864,note_on,0,0,0,,10,,,69,127
32959,note_off,95,0,0,,10,,,69,127
32960,note_on,1,0,0,,4,,,64,127
33055,note_off,95,0,0,,4,,,64,127
33055,note_off,0,0,0,,1,,,49,127
33056,note_on,1,0,0,,2,,,50,127
33056,note_on,0,0,0,,5,,,65,127
33151,note_off,95,0,0,,5,,,65,127
33152,note_on,1,0,0,,1,,,61,127
33247,note_off,95,0,0,,1,,,61,127
33247,note_off,0,0,0,,2,,,50,127
33248,note_on,1,0,0,,5,,,41,127
33248,note_on,0,0,0,,2,,,62,127
33343,note_off,95,0,0,,2,,,62,127
33344,note_on,1,0,0,,10,,,57,127
33439,note_off,95,0,0,,10,,,57,127
33439,note_off,0,0,0,,5,,,41,127
33440,note_on,1,0,0,,7,,,43,127
33440,note_on,0,0,0,,5,,,65,127
33487,note_off,47,0,0,,5,,,65,127
33488,note_on,1,0,0,,4,,,64,127
33535,note_off,47,0,0,,4,,,64,127
33536,note_on,1,0,0,,5,,,65,127
33583,note_off,47,0,0,,5,,,65,127
33584,note_on,1,0,0,,4,,,64,127
33631,note_off,47,0,0,,4,,,64,127
33631,note_off,0,0,0,,7,,,43,127
33632,note_on,1,0,0,,10,,,45,127
33632,note_on,0,0,0,,5,,,65,127
33679,note_off,47,0,0,,5,,,65,127
33680,note_on,1,0,0,,4,,,64,127
33727,note_off,47,0,0,,4,,,64,127
33728,note_on,1,0,0,,2,,,62,127
33775,note_off,47,0,0,,2,,,62,127
33776,note_on,1,0,0,,4,,,64,127
33823,note_off,47,0,0,,4,,,64,127
33823,note_off,0,0,0,,10,,,45,127
33824,note_on,1,0,0,,2,,,38,127
33824,note_on,0,0,0,,2,,,62,127
34399,note_off,575,0,0,,2,,,62,127
34591,note_off,192,0,0,,2,,,38,127
34592,note_on,1,0,0,,2,,,38,127
34592,note_on,0,0,0,,2,,,62,127
34688,note_on,96,0,0,,2,,,74,127
34782,note_off,94,0,0,,2,,,62,127
34783,note_off,1,0,0,,2,,,74,127
34784,note_on,1,0,0,,2,,,62,127
34879,note_off,95,0,0,,2,,,62,127
34880,note_on,1,0,0,,4,,,64,127
34975,note_off,95,0,0,,4,,,64,127
34976,note_on,1,0,0,,6,,,66,127
35071,note_off,95,0,0,,6,,,66,127
35072,note_on,1,0,0,,7,,,67,127
35167,note_off,95,0,0,,7,,,67,127
35168,note_on,1,0,0,,10,,,69,127
35263,note_off,95,0,0,,10,,,69,127
35264,note_on,1,0,0,,11,,,70,127
35359,note_off,95,0,0,,11,,,70,127
35359,note_off,0,0,0,,2,,,38,127
35360,note_on,1,0,0,,0,,,60,127
35360,note_on,0,0,0,,2,,,50,127
35360,note_on,0,0,0,,11,,,70,127
35455,note_off,95,0,0,,11,,,70,127
35456,note_on,1,0,0,,0,,,72,127
35551,note_off,95,0,0,,0,,,72,127
35551,note_off,0,0,0,,0,,,60,127
35552,note_on,1,0,0,,0,,,60,127
35647,note_off,95,0,0,,0,,,60,127
35648,note_on,1,0,0,,2,,,62,127
35743,note_off,95,0,0,,2,,,62,127
35744,note_on,1,0,0,,4,,,64,127
35839,note_off,95,0,0,,4,,,64,127
35840,note_on,1,0,0,,6,,,66,127
35935,note_off,95,0,0,,6,,,66,127
35936,note_on,1,0,0,,7,,,67,127
36031,note_off,95,0,0,,7,,,67,127
36032,note_on,1,0,0,,10,,,69,127
36127,note_off,95,0,0,,10,,,69,127
36127,note_off,0,0,0,,2,,,50,127
36128,note_on,1,0,0,,11,,,58,127
36128,note_on,0,0,0,,2,,,50,127
36128,note_on,0,0,0,,10,,,69,127
36223,note_off,95,0,0,,10,,,69,127
36224,note_on,1,0,0,,11,,,70,127
36319,note_off,95,0,0,,11,,,70,127
36319,note_off,0,0,0,,11,,,58,127
36320,note_on,1,0,0,,11,,,58,127
36415,note_off,95,0,0,,11,,,58,127
36416,note_on,1,0,0,,0,,,60,127
36511,note_off,95,0,0,,0,,,60,127
36512,note_on,1,0,0,,2,,,62,127
36607,note_off,95,0,0,,2,,,62,127
36608,note_on,1,0,0,,4,,,64,127
36703,note_off,95,0,0,,4,,,64,127
36704,note_on,1,0,0,,6,,,66,127
36799,note_off,95,0,0,,6,,,66,127
36800,note_on,1,0,0,,7,,,67,127
36895,note_off,95,0,0,,7,,,67,127
36895,note_off,0,0,0,,2,,,50,127
36896,note_on,1,0,0,,10,,,57,127
36896,note_on,0,0,0,,2,,,50,127
36896,note_on,0,0,0,,7,,,67,127
36991,note_off,95,0,0,,7,,,67,127
36992,note_on,1,0,0,,10,,,69,127
37087,note_off,95,0,0,,10,,,69,127
37087,note_off,0,0,0,,10,,,57,127
37088,note_on,1,0,0,,10,,,57,127
37183,note_off,95,0,0,,10,,,57,127
37184,note_on,1,0,0,,11,,,58,127
37279,note_off,95,0,0,,11,,,58,127
37280,note_on,1,0,0,,0,,,60,127
37375,note_off,95,0,0,,0,,,60,127
37376,note_on,1,0,0,,2,,,62,127
37471,note_off,95,0,0,,2,,,62,127
37472,note_on,1,0,0,,4,,,64,127
37567,note_off,95,0,0,,4,,,64,127
37568,note_on,1,0,0,,6,,,66,127
37663,note_off,95,0,0,,6,,,66,127
37663,note_off,0,0,0,,2,,,50,127
37664,note_on,1,0,0,,7,,,55,127
37664,note_on,0,0,0,,2,,,50,127
37664,note_on,0,0,0,,6,,,66,127
37759,note_off,95,0,0,,6,,,66,127
37760,note_on,1,0,0,,7,,,67,127
37855,note_off,95,0,0,,7,,,67,127
37855,note_off,0,0,0,,7,,,55,127
37856,note_on,1,0,0,,7,,,55,127
37951,note_off,95,0,0,,7,,,55,127
37952,note_on,1,0,0,,10,,,57,127
38047,note_off,95,0,0,,10,,,57,127
38048,note_on,1,0,0,,11,,,58,127
38143,note_off,95,0,0,,11,,,58,127
38144,note_on,1,0,0,,0,,,60,127
38239,note_off,95,0,0,,0,,,60,127
38240,note_on,1,0,0,,2,,,62,127
38335,note_off,95,0,0,,2,,,62,127
38336,note_on,1,0,0,,4,,,64,127
38431,note_off,95,0,0,,4,,,64,127
38432,note_on,1,0,0,,6,,,66,127
38527,note_off,95,0,0,,2,,,50,127
38528,note_on,1,0,0,,2,,,62,127
38623,note_off,95,0,0,,2,,,62,127
38624,note_on,1,0,0,,2,,,50,127
38719,note_off,95,0,0,,2,,,50,127
38720,note_on,1,0,0,,4,,,52,127
38815,note_off,95,0,0,,4,,,52,127
38816,note_on,1,0,0,,6,,,54,127
38911,note_off,95,0,0,,6,,,54,127
38912,note_on,1,0,0,,7,,,55,127
39007,note_off,95,0,0,,7,,,55,127
39008,note_on,1,0,0,,10,,,57,127
39103,note_off,95,0,0,,10,,,57,127
39104,note_on,1,0,0,,11,,,58,127
39199,note_off,95,0,0,,11,,,58,127
39199,note_off,0,0,0,,6,,,66,127
39200,note_on,1,0,0,,11,,,58,127
39200,note_on,0,0,0,,3,,,75,127
39295,note_off,95,0,0,,11,,,58,127
39296,note_on,1,0,0,,0,,,60,127
39391,note_off,95,0,0,,0,,,60,127
39392,note_on,1,0,0,,0,,,48,127
39487,note_off,95,0,0,,0,,,48,127
39488,note_on,1,0,0,,2,,,50,127
39583,note_off,95,0,0,,2,,,50,127
39584,note_on,1,0,0,,4,,,52,127
39679,note_off,95,0,0,,4,,,52,127
39680,note_on,1,0,0,,6,,,54,127
39775,note_off,95,0,0,,6,,,54,127
39776,note_on,1,0,0,,7,,,55,127
39871,note_off,95,0,0,,7,,,55,127
39872,note_on,1,0,0,,10,,,57,127
39967,note_off,95,0,0,,10,,,57,127
39967,note_off,0,0,0,,3,,,75,127
39968,note_on,1,0,0,,10,,,57,127
39968,note_on,0,0,0,,2,,,74,127
40063,note_off,95,0,0,,10,,,57,127
40064,note_on,1,0,0,,11,,,58,127
40159,note_off,95,0,0,,11,,,58,127
40160,note_on,1,0,0,,11,,,46,127
40255,note_off,95,0,0,,11,,,46,127
40256,note_on,1,0,0,,0,,,48,127
40351,note_off,95,0,0,,0,,,48,127
40352,note_on,1,0,0,,2,,,50,127
40447,note_off,95,0,0,,2,,,50,127
40448,note_on,1,0,0,,4,,,52,127
40543,note_off,95,0,0,,4,,,52,127
40544,note_on,1,0,0,,6,,,54,127
40639,note_off,95,0,0,,6,,,54,127
40640,note_on,1,0,0,,7,,,55,127
40735,note_off,95,0,0,,7,,,55,127
40735,note_off,0,0,0,,2,,,74,127
40736,note_on,1,0,0,,7,,,55,127
40736,note_on,0,0,0,,0,,,72,127
40831,note_off,95,0,0,,7,,,55,127
40832,note_on,1,0,0,,10,,,57,127
40927,note_off,95,0,0,,10,,,57,127
40928,note_on,1,0,0,,10,,,45,127
41023,note_off,95,0,0,,10,,,45,127
41024,note_on,1,0,0,,11,,,46,127
41119,note_off,95,0,0,,11,,,46,127
41120,note_on,1,0,0,,0,,,48,127
41215,note_off,95,0,0,,0,,,48,127
41216,note_on,1,0,0,,2,,,50,127
41311,note_off,95,0,0,,2,,,50,127
41312,note_on,1,0,0,,4,,,52,127
41407,note_off,95,0,0,,4,,,52,127
41408,note_on,1,0,0,,6,,,54,127
41503,note_off,95,0,0,,6,,,54,127
41504,note_on,1,0,0,,7,,,55,127
41599,note_off,95,0,0,,0,,,72,127
41600,note_on,1,0,0,,2,,,74,127
41695,note_off,95,0,0,,2,,,74,127
41696,note_on,1,0,0,,11,,,70,127
41791,note_off,95,0,0,,11,,,70,127
41792,note_on,1,0,0,,0,,,72,127
41887,note_off,95,0,0,,0,,,72,127
41888,note_on,1,0,0,,2,,,74,127
41983,note_off,95,0,0,,2,,,74,127
41984,note_on,1,0,0,,11,,,70,127
42079,note_off,95,0,0,,11,,,70,127
42080,note_on,1,0,0,,7,,,43,127
42080,note_on,0,0,0,,10,,,69,127
42175,note_off,95,0,0,,10,,,69,127
42176,note_on,1,0,0,,7,,,67,127
42271,note_off,95,0,0,,7,,,67,127
42271,note_off,0,0,0,,7,,,43,127
42271,note_off,0,0,0,,7,,,55,127
42272,note_on,1,0,0,,0,,,48,127
42272,note_on,0,0,0,,3,,,75,127
42367,note_off,95,0,0,,3,,,75,127
42368,note_on,1,0,0,,0,,,72,127
42463,note_off,95,0,0,,0,,,72,127
42464,note_on,1,0,0,,2,,,74,127
42559,note_off,95,0,0,,2,,,74,127
42560,note_on,1,0,0,,11,,,70,127
42655,note_off,95,0,0,,11,,,70,127
42655,note_off,0,0,0,,0,,,48,127
42656,note_on,1,0,0,,3,,,51,127
42656,note_on,0,0,0,,0,,,72,127
42751,note_off,95,0,0,,0,,,72,127
42752,note_on,1,0,0,,10,,,69,127
42847,note_off,95,0,0,,10,,,69,127
42848,note_on,1,0,0,,11,,,70,127
42943,note_off,95,0,0,,11,,,70,127
42944,note_on,1,0,0,,7,,,67,127
43039,note_off,95,0,0,,7,,,67,127
43039,note_off,0,0,0,,3,,,51,127
43040,note_on,1,0,0,,2,,,50,127
43040,note_on,0,0,0,,6,,,66,127
43135,note_off,95,0,0,,6,,,66,127
43136,note_on,1,0,0,,10,,,69,127
43231,note_off,95,0,0,,10,,,69,127
43232,note_on,1,0,0,,2,,,74,127
43327,note_off,95,0,0,,2,,,74,127
43328,note_on,1,0,0,,6,,,66,127
43423,note_off,95,0,0,,6,,,66,127
43423,note_off,0,0,0,,2,,,50,127
43424,note_on,1,0,0,,0,,,60,127
43424,note_on,0,0,0,,3,,,51,127
43424,note_on,0,0,0,,7,,,67,127
43519,note_off,95,0,0,,7,,,67,127
43520,note_on,1,0,0,,0,,,72,127
43615,note_off,95,0,0,,0,,,72,127
43616,note_on,1,0,0,,7,,,79,127
43711,note_off,95,0,0,,7,,,79,127
43712,note_on,1,0,0,,0,,,72,127
43807,note_off,95,0,0,,0,,,72,127
43807,note_off,0,0,0,,3,,,51,127
43807,note_off,0,0,0,,0,,,60,127
43808,note_on,1,0,0,,2,,,50,127
43808,note_on,0,0,0,,6,,,78,127
43903,note_off,95,0,0,,6,,,78,127
43904,note_on,1,0,0,,10,,,69,127
43999,note_off,95,0,0,,10,,,69,127
44000,note_on,1,0,0,,2,,,62,127
44000,note_on,0,0,0,,2,,,74,127
44095,note_off,95,0,0,,2,,,74,127
44096,note_on,1,0,0,,6,,,78,127
44191,note_off,95,0,0,,6,,,78,127
44191,note_off,0,0,0,,2,,,50,127
44192,note_on,1,0,0,,3,,,51,127
44192,note_on,0,0,0,,7,,,79,127
44287,note_off,95,0,0,,7,,,79,127
44288,note_on,1,0,0,,7,,,67,127
44383,note_off,95,0,0,,7,,,67,127
44383,note_off,0,0,0,,2,,,62,127
44384,note_on,1,0,0,,0,,,60,127
44384,note_on,0,0,0,,0,,,72,127
44479,note_off,95,0,0,,0,,,72,127
44480,note_on,1,0,0,,7,,,79,127
44575,note_off,95,0,0,,7,,,79,127
44575,note_off,0,0,0,,0,,,60,127
44575,note_off,0,0,0,,3,,,51,127
44576,note_on,1,0,0,,2,,,50,127
44576,note_on,0,0,0,,6,,,78,127
44671,note_off,95,0,0,,6,,,78,127
44672,note_on,1,0,0,,10,,,69,127
44767,note_off,95,0,0,,10,,,69,127
44768,note_on,1,0,0,,2,,,62,127
44768,note_on,0,0,0,,2,,,74,127
44863,note_off,95,0,0,,2,,,74,127
44864,note_on,1,0,0,,6,,,78,127
44959,note_off,95,0,0,,6,,,78,127
44959,note_off,0,0,0,,2,,,50,127
44960,note_on,1,0,0,,3,,,51,127
44960,note_on,0,0,0,,7,,,79,127
45055,note_off,95,0,0,,7,,,79,127
45056,note_on,1,0,0,,7,,,67,127
45151,note_off,95,0,0,,7,,,67,127
45151,note_off,0,0,0,,2,,,62,127
45152,note_on,1,0,0,,0,,,60,127
45152,note_on,0,0,0,,0,,,72,127
45247,note_off,95,0,0,,0,,,72,127
45248,note_on,1,0,0,,7,,,79,127
45343,note_off,95,0,0,,7,,,79,127
45343,note_off,0,0,0,,0,,,60,127
45343,note_off,0,0,0,,3,,,51,127
45344,note_on,1,0,0,,2,,,50,127
45344,note_on,0,0,0,,6,,,78,127
45439,note_off,95,0,0,,6,,,78,127
45440,note_on,1,0,0,,10,,,69,127
45535,note_off,95,0,0,,10,,,69,127
45536,note_on,1,0,0,,2,,,62,127
45536,note_on,0,0,0,,2,,,74,127
45631,note_off,95,0,0,,2,,,74,127
45632,note_on,1,0,0,,6,,,78,127
45727,note_off,95,0,0,,6,,,78,127
45727,note_off,0,0,0,,2,,,50,127
45728,note_on,1,0,0,,3,,,51,127
45728,note_on,0,0,0,,7,,,79,127
45823,note_off,95,0,0,,7,,,79,127
45824,note_on,1,0,0,,7,,,67,127
45919,note_off,95,0,0,,7,,,67,127
45919,note_off,0,0,0,,2,,,62,127
45920,note_on,1,0,0,,0,,,60,127
45920,note_on,0,0,0,,0,,,72,127
46015,note_off,95,0,0,,0,,,72,127
46016,note_on,1,0,0,,7,,,79,127
46111,note_off,95,0,0,,7,,,79,127
46111,note_off,0,0,0,,0,,,60,127
46111,note_off,0,0,0,,3,,,51,127
46112,note_on,1,0,0,,2,,,50,127
46112,note_on,0,0,0,,10,,,81,127
46207,note_off,95,0,0,,10,,,81,127
46208,note_on,1,0,0,,2,,,86,127
46303,note_off,95,0,0,,2,,,86,127
46304,note_on,1,0,0,,1,,,85,127
46399,note_off,95,0,0,,1,,,85,127
46400,note_on,1,0,0,,0,,,84,127
46495,note_off,95,0,0,,0,,,84,127
46496,note_on,1,0,0,,12,,,83,127
46591,note_off,95,0,0,,12,,,83,127
46592,note_on,1,0,0,,11,,,82,127
46687,note_off,95,0,0,,11,,,82,127
46687,note_off,0,0,0,,2,,,50,127
46688,note_on,1,0,0,,10,,,81,127
46783,note_off,95,0,0,,10,,,81,127
46784,note_on,1,0,0,,7,,,79,127
46879,note_off,95,0,0,,7,,,79,127
46880,note_on,1,0,0,,6,,,78,127
46976,note_on,96,0,0,,2,,,74,127
47071,note_off,95,0,0,,2,,,74,127
47072,note_on,1,0,0,,1,,,73,127
47167,note_off,95,0,0,,1,,,73,127
47168,note_on,1,0,0,,0,,,72,127
47263,note_off,95,0,0,,0,,,72,127
47264,note_on,1,0,0,,12,,,71,127
47359,note_off,95,0,0,,12,,,71,127
47360,note_on,1,0,0,,11,,,70,127
47455,note_off,95,0,0,,11,,,70,127
47456,note_on,1,0,0,,10,,,69,127
47551,note_off,95,0,0,,10,,,69,127
47552,note_off,1,0,0,,6,,,78,127
47552,note_on,0,0,0,,7,,,67,127
47647,note_off,95,0,0,,7,,,67,127
47648,note_on,1,0,0,,6,,,66,127
47744,note_on,96,0,0,,2,,,62,127
47839,note_off,95,0,0,,2,,,62,127
47840,note_on,1,0,0,,1,,,61,127
47935,note_off,95,0,0,,1,,,61,127
47936,note_on,1,0,0,,0,,,60,127
48031,note_off,95,0,0,,0,,,60,127
48032,note_on,1,0,0,,12,,,59,127
48127,note_off,95,0,0,,12,,,59,127
48128,note_on,1,0,0,,11,,,58,127
48223,note_off,95,0,0,,11,,,58,127
48224,note_off,1,0,0,,6,,,66,127
48224,note_on,0,0,0,,10,,,57,127
48319,note_off,95,0,0,,10,,,57,127
48320,note_on,1,0,0,,7,,,55,127
48415,note_off,95,0,0,,7,,,55,127
48416,note_on,1,0,0,,6,,,54,127
48511,note_off,95,0,0,,6,,,54,127
48512,note_on,1,0,0,,7,,,55,127
48607,note_off,95,0,0,,7,,,55,127
48608,note_on,1,0,0,,5,,,53,127
48703,note_off,95,0,0,,5,,,53,127
48704,note_on,1,0,0,,3,,,51,127
48799,note_off,95,0,0,,3,,,51,127
48800,note_on,1,0,0,,2,,,50,127
48895,note_off,95,0,0,,2,,,50,127
48896,note_on,1,0,0,,0,,,48,127
48991,note_off,95,0,0,,0,,,48,127
48992,note_on,1,0,0,,11,,,46,127
49087,note_off,95,0,0,,11,,,46,127
49088,note_on,1,0,0,,10,,,45,127
49183,note_off,95,0,0,,10,,,45,127
49184,note_on,1,0,0,,7,,,43,127
49376,note_on,192,0,0,,7,,,79,127
49471,note_off,95,0,0,,7,,,79,127
49472,note_on,1,0,0,,6,,,78,127
49567,note_off,95,0,0,,6,,,78,127
49568,note_on,1,0,0,,7,,,79,127
49663,note_off,95,0,0,,7,,,79,127
49664,note_on,1,0,0,,2,,,74,127
49759,note_off,95,0,0,,2,,,74,127
49759,note_off,0,0,0,,7,,,43,127
49760,note_on,1,0,0,,11,,,58,127
49760,note_on,0,0,0,,11,,,70,127
49855,note_off,95,0,0,,11,,,70,127
49856,note_on,1,0,0,,7,,,67,127
49951,note_off,95,0,0,,7,,,67,127
49951,note_off,0,0,0,,11,,,58,127
49952,note_on,1,0,0,,0,,,60,127
49952,note_on,0,0,0,,3,,,75,127
50047,note_off,95,0,0,,3,,,75,127
50048,note_on,1,0,0,,0,,,72,127
50143,note_off,95,0,0,,0,,,72,127
50144,note_on,1,0,0,,0,,,48,127
50144,note_on,0,0,0,,2,,,74,127
50239,note_off,95,0,0,,2,,,74,127
50240,note_on,1,0,0,,10,,,69,127
50335,note_off,95,0,0,,10,,,69,127
50335,note_off,0,0,0,,0,,,48,127
50335,note_off,0,0,0,,0,,,60,127
50336,note_on,1,0,0,,2,,,62,127
50336,note_on,0,0,0,,11,,,70,127
50431,note_off,95,0,0,,11,,,70,127
50432,note_on,1,0,0,,7,,,67,127
50527,note_off,95,0,0,,7,,,67,127
50528,note_on,1,0,0,,2,,,50,127
50528,note_on,0,0,0,,10,,,69,127
50623,note_off,95,0,0,,10,,,69,127
50624,note_on,1,0,0,,6,,,66,127
50719,note_off,95,0,0,,6,,,66,127
50719,note_off,0,0,0,,2,,,50,127
50719,note_off,0,0,0,,2,,,62,127
50720,note_on,1,0,0,,7,,,55,127
50720,note_on,0,0,0,,7,,,67,127
50815,note_off,95,0,0,,7,,,67,127
50816,note_on,1,0,0,,2,,,86,127
50911,note_off,95,0,0,,2,,,86,127
50912,note_on,1,0,0,,1,,,85,127
51007,note_off,95,0,0,,1,,,85,127
51008,note_on,1,0,0,,0,,,84,127
51103,note_off,95,0,0,,0,,,84,127
51104,note_on,1,0,0,,12,,,83,127
51199,note_off,95,0,0,,12,,,83,127
51200,note_off,1,0,0,,7,,,55,127
51200,note_on,0,0,0,,11,,,82,127
51295,note_off,95,0,0,,11,,,82,127
51296,note_on,1,0,0,,10,,,81,127
51391,note_off,95,0,0,,10,,,81,127
51392,note_on,1,0,0,,7,,,79,127
51487,note_off,95,0,0,,7,,,79,127
51488,note_on,1,0,0,,6,,,78,127
51584,note_on,96,0,0,,2,,,74,127
51679,note_off,95,0,0,,2,,,74,127
51680,note_on,1,0,0,,1,,,73,127
51775,note_off,95,0,0,,1,,,73,127
51776,note_on,1,0,0,,0,,,72,127
51871,note_off,95,0,0,,0,,,72,127
51872,note_on,1,0,0,,12,,,71,127
51967,note_off,95,0,0,,12,,,71,127
51968,note_on,1,0,0,,11,,,70,127
52063,note_off,95,0,0,,11,,,70,127
52064,note_on,1,0,0,,10,,,69,127
52159,note_off,95,0,0,,10,,,69,127
52160,note_off,1,0,0,,6,,,78,127
52160,note_on,0,0,0,,7,,,67,127
52255,note_off,95,0,0,,7,,,67,127
52256,note_on,1,0,0,,6,,,66,127
52352,note_on,96,0,0,,2,,,62,127
52447,note_off,95,0,0,,2,,,62,127
52448,note_on,1,0,0,,1,,,61,127
52543,note_off,95,0,0,,1,,,61,127
52544,note_on,1,0,0,,0,,,60,127
52639,note_off,95,0,0,,0,,,60,127
52640,note_on,1,0,0,,12,,,59,127
52735,note_off,95,0,0,,12,,,59,127
52736,note_on,1,0,0,,11,,,58,127
52831,note_off,95,0,0,,11,,,58,127
52832,note_off,1,0,0,,6,,,66,127
52832,note_on,0,0,0,,10,,,57,127
52927,note_off,95,0,0,,10,,,57,127
52928,note_on,1,0,0,,7,,,55,127
53023,note_off,95,0,0,,7,,,55,127
53024,note_on,1,0,0,,6,,,54,127
53119,note_off,95,0,0,,6,,,54,127
53120,note_on,1,0,0,,7,,,55,127
53215,note_off,95,0,0,,7,,,55,127
53216,note_on,1,0,0,,5,,,53,127
53311,note_off,95,0,0,,5,,,53,127
53312,note_on,1,0,0,,3,,,51,127
53407,note_off,95,0,0,,3,,,51,127
53408,note_on,1,0,0,,2,,,50,127
53503,note_off,95,0,0,,2,,,50,127
53504,note_on,1,0,0,,0,,,48,127
53599,note_off,95,0,0,,0,,,48,127
53600,note_on,1,0,0,,11,,,46,127
53695,note_off,95,0,0,,11,,,46,127
53696,note_on,1,0,0,,10,,,45,127
53791,note_off,95,0,0,,10,,,45,127
53792,note_on,1,0,0,,7,,,43,127
53984,note_on,192,0,0,,7,,,79,127
54079,note_off,95,0,0,,7,,,79,127
54080,note_on,1,0,0,,6,,,78,127
54175,note_off,95,0,0,,6,,,78,127
54176,note_on,1,0,0,,7,,,79,127
54271,note_off,95,0,0,,7,,,79,127
54272,note_off,1,0,0,,7,,,43,127
54272,note_on,0,0,0,,2,,,74,127
54367,note_off,95,0,0,,2,,,74,127
54368,note_on,1,0,0,,11,,,58,127
54368,note_on,0,0,0,,11,,,70,127
54463,note_off,95,0,0,,11,,,70,127
54464,note_on,1,0,0,,7,,,67,127
54559,note_off,95,0,0,,7,,,67,127
54559,note_off,0,0,0,,11,,,58,127
54560,note_on,1,0,0,,0,,,60,127
54560,note_on,0,0,0,,3,,,75,127
54655,note_off,95,0,0,,3,,,75,127
54656,note_on,1,0,0,,0,,,72,127
54751,note_off,95,0,0,,0,,,72,127
54752,note_on,1,0,0,,0,,,48,127
54752,note_on,0,0,0,,2,,,74,127
54847,note_off,95,0,0,,2,,,74,127
54848,note_on,1,0,0,,10,,,69,127
54943,note_off,95,0,0,,10,,,69,127
54943,note_off,0,0,0,,0,,,48,127
54943,note_off,0,0,0,,0,,,60,127
54944,note_on,1,0,0,,2,,,62,127
54944,note_on,0,0,0,,11,,,70,127
55039,note_off,95,0,0,,11,,,70,127
55040,note_on,1,0,0,,7,,,67,127
55135,note_off,95,0,0,,7,,,67,127
55136,note_on,1,0,0,,2,,,50,127
55136,note_on,0,0,0,,10,,,69,127
55231,note_off,95,0,0,,10,,,69,127
55232,note_on,1,0,0,,6,,,66,127
55327,note_off,95,0,0,,6,,,66,127
55327,note_off,0,0,0,,2,,,50,127
55327,note_off,0,0,0,,2,,,62,127
55328,note_on,1,0,0,,7,,,43,127
55328,note_on,0,0,0,,7,,,67,127
55423,note_off,95,0,0,,7,,,67,127
55424,note_on,1,0,0,,6,,,78,127
55519,note_off,95,0,0,,6,,,78,127
55519,note_off,0,0,0,,7,,,43,127
55520,note_on,1,0,0,,11,,,58,127
55520,note_on,0,0,0,,7,,,79,127
55615,note_off,95,0,0,,7,,,79,127
55616,note_on,1,0,0,,2,,,74,127
55711,note_off,95,0,0,,2,,,74,127
55711,note_off,0,0,0,,11,,,58,127
55712,note_on,1,0,0,,0,,,60,127
55712,note_on,0,0,0,,3,,,75,127
55807,note_off,95,0,0,,3,,,75,127
55808,note_on,1,0,0,,0,,,72,127
55903,note_off,95,0,0,,0,,,72,127
55903,note_off,0,0,0,,0,,,60,127
55904,note_on,1,0,0,,6,,,54,127
55904,note_on,0,0,0,,2,,,74,127
55999,note_off,95,0,0,,2,,,74,127
56000,note_on,1,0,0,,10,,,69,127
56095,note_off,95,0,0,,10,,,69,127
56095,note_off,0,0,0,,6,,,54,127
56096,note_on,1,0,0,,7,,,55,127
56096,note_on,0,0,0,,11,,,70,127
56191,note_off,95,0,0,,11,,,70,127
56192,note_on,1,0,0,,6,,,66,127
56287,note_off,95,0,0,,6,,,66,127
56287,note_off,0,0,0,,7,,,55,127
56288,note_on,1,0,0,,11,,,46,127
56288,note_on,0,0,0,,7,,,67,127
56383,note_off,95,0,0,,7,,,67,127
56384,note_on,1,0,0,,2,,,62,127
56479,note_off,95,0,0,,2,,,62,127
56479,note_off,0,0,0,,11,,,46,127
56480,note_on,1,0,0,,0,,,48,127
56480,note_on,0,0,0,,11,,,70,127
56527,note_off,47,0,0,,11,,,70,127
56528,note_on,1,0,0,,10,,,69,127
56575,note_off,47,0,0,,10,,,69,127
56576,note_on,1,0,0,,11,,,70,127
56623,note_off,47,0,0,,11,,,70,127
56624,note_on,1,0,0,,10,,,69,127
56671,note_off,47,0,0,,10,,,69,127
56671,note_off,0,0,0,,0,,,48,127
56672,note_on,1,0,0,,2,,,50,127
56672,note_on,0,0,0,,11,,,70,127
56719,note_off,47,0,0,,11,,,70,127
56720,note_on,1,0,0,,10,,,69,127
56767,note_off,47,0,0,,10,,,69,127
56768,note_on,1,0,0,,7,,,67,127
56815,note_off,47,0,0,,7,,,67,127
56816,note_on,1,0,0,,10,,,69,127
56863,note_off,47,0,0,,10,,,69,127
56863,note_off,0,0,0,,2,,,50,127
56864,note_on,1,0,0,,7,,,43,127
56864,note_on,0,0,0,,7,,,67,127
56959,note_off,95,0,0,,7,,,67,127
56963,note_on,4,0,0,,6,,,66,127
57057,note_off,94,0,0,,7,,,43,127
57058,note_off,1,0,0,,6,,,66,127
57062,note_on,4,0,0,,11,,,46,127
57062,note_on,0,0,0,,7,,,67,127
57157,note_off,95,0,0,,7,,,67,127
57161,note_on,4,0,0,,2,,,62,127
57255,note_off,94,0,0,,11,,,46,127
57256,note_off,1,0,0,,2,,,62,127
57260,note_on,4,0,0,,0,,,48,127
57260,note_on,0,0,0,,3,,,63,127
57355,note_off,95,0,0,,3,,,63,127
57359,note_on,4,0,0,,0,,,60,127
57453,note_off,94,0,0,,0,,,48,127
57454,note_off,1,0,0,,0,,,60,127
57458,note_on,4,0,0,,6,,,42,127
57458,note_on,0,0,0,,2,,,62,127
57553,note_off,95,0,0,,2,,,62,127
57557,note_on,4,0,0,,10,,,57,127
57651,note_off,94,0,0,,6,,,42,127
57652,note_off,1,0,0,,10,,,57,127
57656,note_on,4,0,0,,7,,,43,127
57656,note_on,0,0,0,,11,,,58,127
57751,note_off,95,0,0,,11,,,58,127
57754,note_on,3,0,0,,6,,,54,127
57849,note_off,95,0,0,,6,,,54,127
57849,note_off,0,0,0,,7,,,43,127
57853,note_on,4,0,0,,11,,,46,127
57853,note_on,0,0,0,,7,,,55,127
57948,note_off,95,0,0,,7,,,55,127
57952,note_on,4,0,0,,2,,,50,127
58046,note_off,94,0,0,,11,,,46,127
58047,note_off,1,0,0,,2,,,50,127
58054,note_on,7,0,0,,11,,,58,127
58054,note_on,0,0,0,,0,,,48,127
58102,note_off,48,0,0,,11,,,58,127
58107,note_on,5,0,0,,10,,,57,127
58155,note_off,48,0,0,,10,,,57,127
58163,note_on,8,0,0,,11,,,58,127
58211,note_off,48,0,0,,11,,,58,127
58217,note_on,6,0,0,,10,,,57,127
58252,note_off,35,0,0,,0,,,48,127
58265,note_off,13,0,0,,10,,,57,127
58272,note_on,7,0,0,,11,,,58,127
58272,note_on,0,0,0,,2,,,50,127
58320,note_off,48,0,0,,11,,,58,127
58326,note_on,6,0,0,,10,,,57,127
58374,note_off,48,0,0,,10,,,57,127
58381,note_on,7,0,0,,7,,,55,127
58429,note_off,48,0,0,,7,,,55,127
58436,note_on,7,0,0,,10,,,57,127
58470,note_off,34,0,0,,2,,,50,127
58492,note_off,22,0,0,,10,,,57,127
58508,note_on,16,0,0,,7,,,55,127
58508,note_on,0,0,0,,7,,,43,127
60384,note_off,1876,0,0,,7,,,43,127
60384,note_off,0,0,0,,7,,,55,127
64512,end_of_track,4128,1,0,,,,,,
