tick,type,time,meta,track,program,channel,pitch,tempo,note,velocity
0,copyright,0,1,0,,,,,,
0,program_change,0,0,0,6,0,,,,
0,pitchwheel,0,0,0,,0,0,,,
0,program_change,0,0,0,6,1,,,,
0,pitchwheel,0,0,0,,1,-590,,,
0,program_change,0,0,0,6,2,,,,
0,pitchwheel,0,0,0,,2,-272,,,
0,program_change,0,0,0,6,3,,,,
0,pitchwheel,0,0,0,,3,-353,,,
0,program_change,0,0,0,6,4,,,,
0,pitchwheel,0,0,0,,4,-560,,,
0,program_change,0,0,0,6,5,,,,
0,pitchwheel,0,0,0,,5,-80,,,
0,program_change,0,0,0,6,6,,,,
0,pitchwheel,0,0,0,,6,-625,,,
0,program_change,0,0,0,6,7,,,,
0,pitchwheel,0,0,0,,7,-130,,,
0,program_change,0,0,0,6,8,,,,
0,pitchwheel,0,0,0,,8,-512,,,
0,program_change,0,0,0,6,10,,,,
0,pitchwheel,0,0,0,,10,-464,,,
0,program_change,0,0,0,6,11,,,,
0,pitchwheel,0,0,0,,11,-208,,,
0,program_change,0,0,0,6,12,,,,
0,pitchwheel,0,0,0,,12,-553,,,
0,set_tempo,0,1,0,,,,500000,,
48,note_on,48,0,0,,7,,,67,127
190,note_off,142,0,0,,7,,,67,127
192,note_on,2,0,0,,12,,,71,127
334,note_off,142,0,0,,12,,,71,127
336,note_on,2,0,0,,10,,,69,127
478,note_off,142,0,0,,10,,,69,127
480,note_on,2,0,0,,0,,,72,127
622,note_off,142,0,0,,0,,,72,127
624,note_on,2,0,0,,12,,,71,127
879,note_off,255,0,0,,12,,,71,127
912,note_on,33,0,0,,4,,,76,127
1167,note_off,255,0,0,,4,,,76,127
1200,note_on,33,0,0,,7,,,55,127
1200,note_on,0,0,0,,2,,,74,127
1342,note_off,142,0,0,,7,,,55,127
1344,note_on,2,0,0,,12,,,59,127
1486,note_off,142,0,0,,12,,,59,127
1488,note_on,2,0,0,,10,,,57,127
1630,note_off,142,0,0,,10,,,57,127
1632,note_on,2,0,0,,0,,,60,127
1774,note_off,142,0,0,,0,,,60,127
1776,note_on,2,0,0,,12,,,59,127
2062,note_off,286,0,0,,12,,,59,127
2062,note_off,0,0,0,,2,,,74,127
2064,note_on,2,0,0,,4,,,64,127
2064,note_on,0,0,0,,7,,,67,127
2350,note_off,286,0,0,,7,,,67,127
2350,note_off,0,0,0,,4,,,64,127
2352,note_on,2,0,0,,2,,,62,127
2352,note_on,0,0,0,,6,,,66,127
2638,note_off,286,0,0,,6,,,66,127
2638,note_off,0,0,0,,2,,,62,127
2640,note_on,2,0,0,,12,,,59,127
2640,note_on,0,0,0,,7,,,67,127
2926,note_off,286,0,0,,7,,,67,127
2926,note_off,0,0,0,,12,,,59,127
2928,note_on,2,0,0,,0,,,60,127
2928,note_on,0,0,0,,10,,,69,127
3214,note_off,286,0,0,,0,,,60,127
3216,note_on,2,0,0,,2,,,62,127
3358,note_off,142,0,0,,10,,,69,127
3360,note_on,2,0,0,,12,,,71,127
3430,note_off,70,0,0,,12,,,71,127
3432,note_on,2,0,0,,0,,,72,127
3502,note_off,70,0,0,,0,,,72,127
3502,note_off,0,0,0,,2,,,62,127
3504,note_on,2,0,0,,7,,,55,127
3504,note_on,0,0,0,,12,,,71,127
3646,note_off,142,0,0,,12,,,71,127
3648,note_on,2,0,0,,2,,,74,127
3790,note_off,142,0,0,,2,,,74,127
3792,note_on,2,0,0,,7,,,43,127
3792,note_on,0,0,0,,0,,,72,127
3934,note_off,142,0,0,,0,,,72,127
3936,note_on,2,0,0,,4,,,76,127
4078,note_off,142,0,0,,4,,,76,127
4078,note_off,0,0,0,,7,,,55,127
4080,note_on,2,0,0,,2,,,74,127
4224,note_off,144,0,0,,7,,,43,127
4366,note_off,142,0,0,,2,,,74,127
4368,note_on,2,0,0,,12,,,59,127
4368,note_on,0,0,0,,7,,,67,127
4654,note_off,286,0,0,,7,,,67,127
4654,note_off,0,0,0,,12,,,59,127
4656,note_on,2,0,0,,0,,,60,127
4656,note_on,0,0,0,,4,,,64,127
4798,note_off,142,0,0,,4,,,64,127
4800,note_on,2,0,0,,7,,,67,127
4942,note_off,142,0,0,,7,,,67,127
4944,note_on,2,0,0,,0,,,48,127
4944,note_on,0,0,0,,6,,,66,127
5086,note_off,142,0,0,,6,,,66,127
5088,note_on,2,0,0,,10,,,69,127
5230,note_off,142,0,0,,10,,,69,127
5230,note_off,0,0,0,,0,,,60,127
5232,note_on,2,0,0,,7,,,67,127
5376,note_off,144,0,0,,0,,,48,127
5518,note_off,142,0,0,,7,,,67,127
5520,note_on,2,0,0,,0,,,60,127
5520,note_on,0,0,0,,4,,,76,127
5806,note_off,286,0,0,,4,,,76,127
5806,note_off,0,0,0,,0,,,60,127
5808,note_on,2,0,0,,12,,,59,127
5808,note_on,0,0,0,,7,,,67,127
5950,note_off,142,0,0,,7,,,67,127
5952,note_on,2,0,0,,12,,,71,127
6094,note_off,142,0,0,,12,,,71,127
6096,note_on,2,0,0,,12,,,47,127
6096,note_on,0,0,0,,10,,,69,127
6238,note_off,142,0,0,,10,,,69,127
6240,note_on,2,0,0,,0,,,72,127
6382,note_off,142,0,0,,0,,,72,127
6382,note_off,0,0,0,,12,,,59,127
6384,note_on,2,0,0,,12,,,71,127
6528,note_off,144,0,0,,12,,,47,127
6670,note_off,142,0,0,,12,,,71,127
6672,note_on,2,0,0,,12,,,59,127
6672,note_on,0,0,0,,7,,,79,127
6814,note_off,142,0,0,,7,,,79,127
6816,note_on,2,0,0,,4,,,76,127
6958,note_off,142,0,0,,4,,,76,127
6958,note_off,0,0,0,,12,,,59,127
6960,note_on,2,0,0,,10,,,57,127
6960,note_on,0,0,0,,2,,,74,127
7246,note_off,286,0,0,,10,,,57,127
7248,note_on,2,0,0,,7,,,55,127
7534,note_off,286,0,0,,7,,,55,127
7536,note_on,2,0,0,,6,,,54,127
7608,note_on,72,0,0,,0,,,72,127
7610,note_off,2,0,0,,2,,,74,127
7679,note_off,69,0,0,,0,,,72,127
7681,note_on,2,0,0,,2,,,74,127
7751,note_off,70,0,0,,2,,,74,127
7753,note_on,2,0,0,,0,,,72,127
7823,note_off,70,0,0,,0,,,72,127
7823,note_off,0,0,0,,6,,,54,127
7825,note_on,2,0,0,,2,,,50,127
7825,note_on,0,0,0,,2,,,74,127
7895,note_off,70,0,0,,2,,,74,127
7897,note_on,2,0,0,,0,,,72,127
7967,note_off,70,0,0,,0,,,72,127
7969,note_on,2,0,0,,2,,,74,127
8039,note_off,70,0,0,,2,,,74,127
8041,note_on,2,0,0,,0,,,72,127
8111,note_off,70,0,0,,0,,,72,127
8111,note_off,0,0,0,,2,,,50,127
8113,note_on,2,0,0,,7,,,55,127
8113,note_on,0,0,0,,12,,,71,127
8255,note_off,142,0,0,,12,,,71,127
8257,note_on,2,0,0,,2,,,74,127
8399,note_off,142,0,0,,2,,,74,127
8401,note_on,2,0,0,,7,,,43,127
8401,note_on,0,0,0,,0,,,72,127
8543,note_off,142,0,0,,0,,,72,127
8545,note_on,2,0,0,,4,,,76,127
8687,note_off,142,0,0,,4,,,76,127
8687,note_off,0,0,0,,7,,,55,127
8689,note_on,2,0,0,,2,,,74,127
8833,note_off,144,0,0,,7,,,43,127
8975,note_off,142,0,0,,2,,,74,127
8977,note_on,2,0,0,,7,,,55,127
8977,note_on,0,0,0,,2,,,86,127
9263,note_off,286,0,0,,2,,,86,127
9263,note_off,0,0,0,,7,,,55,127
9265,note_on,2,0,0,,10,,,57,127
9265,note_on,0,0,0,,6,,,78,127
9407,note_off,142,0,0,,6,,,78,127
9409,note_on,2,0,0,,10,,,81,127
9551,note_off,142,0,0,,10,,,81,127
9553,note_on,2,0,0,,10,,,45,127
9553,note_on,0,0,0,,7,,,79,127
9695,note_off,142,0,0,,7,,,79,127
9697,note_on,2,0,0,,12,,,83,127
9839,note_off,142,0,0,,12,,,83,127
9839,note_off,0,0,0,,10,,,57,127
9841,note_on,2,0,0,,10,,,81,127
9985,note_off,144,0,0,,10,,,45,127
10127,note_off,142,0,0,,10,,,81,127
10129,note_on,2,0,0,,10,,,57,127
10129,note_on,0,0,0,,2,,,86,127
10415,note_off,286,0,0,,2,,,86,127
10415,note_off,0,0,0,,10,,,57,127
10417,note_on,2,0,0,,12,,,59,127
10417,note_on,0,0,0,,2,,,74,127
10559,note_off,142,0,0,,2,,,74,127
10561,note_on,2,0,0,,7,,,79,127
10703,note_off,142,0,0,,7,,,79,127
10705,note_on,2,0,0,,12,,,47,127
10705,note_on,0,0,0,,6,,,78,127
10847,note_off,142,0,0,,6,,,78,127
10849,note_on,2,0,0,,10,,,81,127
10991,note_off,142,0,0,,10,,,81,127
10991,note_off,0,0,0,,12,,,59,127
10993,note_on,2,0,0,,7,,,79,127
11137,note_off,144,0,0,,12,,,47,127
11279,note_off,142,0,0,,7,,,79,127
11281,note_on,2,0,0,,12,,,59,127
11281,note_on,0,0,0,,2,,,86,127
11567,note_off,286,0,0,,12,,,59,127
11569,note_on,2,0,0,,0,,,60,127
11569,note_on,0,0,0,,4,,,76,127
11711,note_off,142,0,0,,2,,,86,127
11713,note_on,2,0,0,,0,,,84,127
11855,note_off,142,0,0,,0,,,84,127
11855,note_off,0,0,0,,4,,,76,127
11857,note_on,2,0,0,,0,,,48,127
11857,note_on,0,0,0,,0,,,84,127
11999,note_off,142,0,0,,0,,,84,127
12001,note_on,2,0,0,,12,,,83,127
12143,note_off,142,0,0,,12,,,83,127
12143,note_off,0,0,0,,0,,,60,127
12145,note_on,2,0,0,,12,,,83,127
12287,note_off,142,0,0,,12,,,83,127
12289,note_off,2,0,0,,0,,,48,127
12289,note_on,0,0,0,,10,,,81,127
12431,note_off,142,0,0,,10,,,81,127
12433,note_on,2,0,0,,0,,,60,127
12433,note_on,0,0,0,,10,,,81,127
12575,note_off,142,0,0,,10,,,81,127
12577,note_on,2,0,0,,7,,,79,127
12719,note_off,142,0,0,,7,,,79,127
12719,note_off,0,0,0,,0,,,60,127
12721,note_on,2,0,0,,2,,,62,127
12721,note_on,0,0,0,,7,,,79,127
12791,note_off,70,0,0,,7,,,79,127
12793,note_on,2,0,0,,6,,,78,127
12863,note_off,70,0,0,,6,,,78,127
12865,note_on,2,0,0,,7,,,79,127
12935,note_off,70,0,0,,7,,,79,127
12937,note_on,2,0,0,,6,,,78,127
13007,note_off,70,0,0,,6,,,78,127
13009,note_on,2,0,0,,2,,,50,127
13009,note_on,0,0,0,,7,,,79,127
13079,note_off,70,0,0,,7,,,79,127
13081,note_on,2,0,0,,6,,,78,127
13151,note_off,70,0,0,,6,,,78,127
13153,note_on,2,0,0,,4,,,76,127
13295,note_off,142,0,0,,4,,,76,127
13295,note_off,0,0,0,,2,,,62,127
13297,note_on,2,0,0,,2,,,74,127
13583,note_off,286,0,0,,2,,,74,127
13609,note_on,26,0,0,,2,,,74,127
13871,note_off,262,0,0,,2,,,50,127
13895,note_off,24,0,0,,2,,,74,127
13897,note_on,2,0,0,,10,,,81,127
14039,note_off,142,0,0,,10,,,81,127
14041,note_on,2,0,0,,2,,,74,127
14183,note_off,142,0,0,,2,,,74,127
14185,note_on,2,0,0,,4,,,76,127
14185,note_on,0,0,0,,6,,,66,127
14327,note_off,142,0,0,,4,,,76,127
14329,note_on,2,0,0,,2,,,74,127
14471,note_off,142,0,0,,6,,,66,127
14473,note_on,2,0,0,,6,,,66,127
14521,note_on,48,0,0,,0,,,72,127
14539,note_off,18,0,0,,2,,,74,127
14567,note_off,28,0,0,,0,,,72,127
14569,note_on,2,0,0,,2,,,74,127
14615,note_off,46,0,0,,2,,,74,127
14617,note_on,2,0,0,,0,,,72,127
14663,note_off,46,0,0,,0,,,72,127
14665,note_on,2,0,0,,12,,,71,127
14711,note_off,46,0,0,,12,,,71,127
14713,note_on,2,0,0,,0,,,72,127
14759,note_off,46,0,0,,0,,,72,127
14759,note_off,0,0,0,,6,,,66,127
14761,note_on,2,0,0,,12,,,71,127
14761,note_on,0,0,0,,7,,,67,127
15047,note_off,286,0,0,,12,,,71,127
15049,note_on,2,0,0,,10,,,81,127
15191,note_off,142,0,0,,10,,,81,127
15193,note_off,2,0,0,,7,,,67,127
15193,note_on,0,0,0,,2,,,74,127
15335,note_off,142,0,0,,2,,,74,127
15337,note_on,2,0,0,,4,,,76,127
15337,note_on,0,0,0,,6,,,66,127
15479,note_off,142,0,0,,4,,,76,127
15481,note_on,2,0,0,,2,,,74,127
15623,note_off,142,0,0,,6,,,66,127
15625,note_on,2,0,0,,6,,,66,127
15673,note_on,48,0,0,,0,,,72,127
15691,note_off,18,0,0,,2,,,74,127
15719,note_off,28,0,0,,0,,,72,127
15721,note_on,2,0,0,,2,,,74,127
15767,note_off,46,0,0,,2,,,74,127
15769,note_on,2,0,0,,0,,,72,127
15815,note_off,46,0,0,,0,,,72,127
15817,note_on,2,0,0,,12,,,71,127
15863,note_off,46,0,0,,12,,,71,127
15865,note_on,2,0,0,,0,,,72,127
15911,note_off,46,0,0,,0,,,72,127
15911,note_off,0,0,0,,6,,,66,127
15913,note_on,2,0,0,,12,,,71,127
15913,note_on,0,0,0,,7,,,67,127
16199,note_off,286,0,0,,12,,,71,127
16201,note_on,2,0,0,,12,,,83,127
16343,note_off,142,0,0,,12,,,83,127
16345,note_off,2,0,0,,7,,,67,127
16345,note_on,0,0,0,,2,,,74,127
16487,note_off,142,0,0,,2,,,74,127
16489,note_on,2,0,0,,4,,,76,127
16489,note_on,0,0,0,,7,,,67,127
16631,note_off,142,0,0,,4,,,76,127
16633,note_on,2,0,0,,2,,,74,127
16775,note_off,142,0,0,,7,,,67,127
16777,note_on,2,0,0,,7,,,67,127
16825,note_on,48,0,0,,1,,,73,127
16843,note_off,18,0,0,,2,,,74,127
16871,note_off,28,0,0,,1,,,73,127
16873,note_on,2,0,0,,2,,,74,127
16919,note_off,46,0,0,,2,,,74,127
16921,note_on,2,0,0,,1,,,73,127
16967,note_off,46,0,0,,1,,,73,127
16969,note_on,2,0,0,,12,,,71,127
17015,note_off,46,0,0,,12,,,71,127
17017,note_on,2,0,0,,1,,,73,127
17063,note_off,46,0,0,,1,,,73,127
17063,note_off,0,0,0,,7,,,67,127
17065,note_on,2,0,0,,2,,,74,127
17065,note_on,0,0,0,,6,,,66,127
17351,note_off,286,0,0,,2,,,74,127
17353,note_on,2,0,0,,12,,,83,127
17495,note_off,142,0,0,,12,,,83,127
17497,note_off,2,0,0,,6,,,66,127
17497,note_on,0,0,0,,2,,,74,127
17639,note_off,142,0,0,,2,,,74,127
17641,note_on,2,0,0,,4,,,76,127
17641,note_on,0,0,0,,7,,,67,127
17783,note_off,142,0,0,,4,,,76,127
17785,note_on,2,0,0,,2,,,74,127
17927,note_off,142,0,0,,7,,,67,127
17929,note_on,2,0,0,,7,,,67,127
17977,note_on,48,0,0,,1,,,73,127
17995,note_off,18,0,0,,2,,,74,127
18023,note_off,28,0,0,,1,,,73,127
18025,note_on,2,0,0,,2,,,74,127
18071,note_off,46,0,0,,2,,,74,127
18073,note_on,2,0,0,,1,,,73,127
18119,note_off,46,0,0,,1,,,73,127
18121,note_on,2,0,0,,12,,,71,127
18167,note_off,46,0,0,,12,,,71,127
18169,note_on,2,0,0,,1,,,73,127
18215,note_off,46,0,0,,1,,,73,127
18215,note_off,0,0,0,,7,,,67,127
18217,note_on,2,0,0,,2,,,74,127
18217,note_on,0,0,0,,6,,,66,127
18503,note_off,286,0,0,,6,,,66,127
18503,note_off,0,0,0,,2,,,74,127
18505,note_on,2,0,0,,10,,,81,127
18505,note_on,0,0,0,,7,,,79,127
18505,note_on,0,0,0,,4,,,64,127
18575,note_off,70,0,0,,7,,,79,127
18575,note_off,0,0,0,,10,,,81,127
18577,note_on,2,0,0,,6,,,78,127
18647,note_off,70,0,0,,6,,,78,127
18649,note_on,2,0,0,,7,,,79,127
18791,note_off,142,0,0,,4,,,64,127
18793,note_on,2,0,0,,2,,,62,127
19079,note_off,286,0,0,,2,,,62,127
19079,note_off,0,0,0,,7,,,79,127
19081,note_on,2,0,0,,7,,,79,127
19081,note_on,0,0,0,,10,,,81,127
19081,note_on,0,0,0,,1,,,61,127
19151,note_off,70,0,0,,10,,,81,127
19151,note_off,0,0,0,,7,,,79,127
19153,note_on,2,0,0,,6,,,78,127
19223,note_off,70,0,0,,6,,,78,127
19225,note_on,2,0,0,,7,,,79,127
19367,note_off,142,0,0,,1,,,61,127
19369,note_on,2,0,0,,12,,,59,127
19655,note_off,286,0,0,,12,,,59,127
19655,note_off,0,0,0,,7,,,79,127
19657,note_on,2,0,0,,7,,,79,127
19657,note_on,0,0,0,,10,,,57,127
19943,note_off,286,0,0,,7,,,79,127
19945,note_on,2,0,0,,7,,,79,127
19945,note_on,0,0,0,,10,,,45,127
20015,note_off,70,0,0,,7,,,79,127
20017,note_on,2,0,0,,10,,,81,127
20087,note_off,70,0,0,,10,,,81,127
20089,note_on,2,0,0,,11,,,82,127
20227,note_off,138,0,0,,10,,,57,127
20231,note_off,4,0,0,,11,,,82,127
20233,note_on,2,0,0,,10,,,81,127
20375,note_off,142,0,0,,10,,,81,127
20377,note_on,2,0,0,,7,,,79,127
20519,note_off,142,0,0,,7,,,79,127
20519,note_off,0,0,0,,10,,,45,127
20521,note_on,2,0,0,,5,,,77,127
20663,note_off,142,0,0,,5,,,77,127
20665,note_on,2,0,0,,4,,,76,127
20807,note_off,142,0,0,,4,,,76,127
20809,note_on,2,0,0,,4,,,76,127
20809,note_on,0,0,0,,2,,,74,127
20879,note_off,70,0,0,,2,,,74,127
20879,note_off,0,0,0,,4,,,76,127
20881,note_on,2,0,0,,1,,,73,127
20951,note_off,70,0,0,,1,,,73,127
20953,note_on,2,0,0,,2,,,74,127
21097,note_on,144,0,0,,11,,,58,127
21383,note_off,286,0,0,,11,,,58,127
21383,note_off,0,0,0,,2,,,74,127
21385,note_on,2,0,0,,2,,,74,127
21385,note_on,0,0,0,,4,,,76,127
21385,note_on,0,0,0,,10,,,57,127
21455,note_off,70,0,0,,4,,,76,127
21455,note_off,0,0,0,,2,,,74,127
21457,note_on,2,0,0,,1,,,73,127
21527,note_off,70,0,0,,1,,,73,127
21529,note_on,2,0,0,,2,,,74,127
21671,note_off,142,0,0,,10,,,57,127
21673,note_on,2,0,0,,7,,,55,127
21959,note_off,286,0,0,,7,,,55,127
21959,note_off,0,0,0,,2,,,74,127
21961,note_on,2,0,0,,2,,,74,127
21961,note_on,0,0,0,,5,,,53,127
22247,note_off,286,0,0,,2,,,74,127
22249,note_on,2,0,0,,2,,,74,127
22249,note_on,0,0,0,,5,,,41,127
22319,note_off,70,0,0,,2,,,74,127
22321,note_on,2,0,0,,4,,,76,127
22391,note_off,70,0,0,,4,,,76,127
22393,note_on,2,0,0,,5,,,77,127
22531,note_off,138,0,0,,5,,,53,127
22535,note_off,4,0,0,,5,,,77,127
22537,note_on,2,0,0,,4,,,76,127
22679,note_off,142,0,0,,4,,,76,127
22681,note_on,2,0,0,,2,,,74,127
22823,note_off,142,0,0,,2,,,74,127
22823,note_off,0,0,0,,5,,,41,127
22825,note_on,2,0,0,,0,,,72,127
22967,note_off,142,0,0,,0,,,72,127
22969,note_on,2,0,0,,11,,,70,127
23111,note_off,142,0,0,,11,,,70,127
23113,note_on,2,0,0,,10,,,69,127
23113,note_on,0,0,0,,11,,,70,127
23183,note_off,70,0,0,,11,,,70,127
23183,note_off,0,0,0,,10,,,69,127
23185,note_on,2,0,0,,8,,,68,127
23255,note_off,70,0,0,,8,,,68,127
23257,note_on,2,0,0,,10,,,69,127
23401,note_on,144,0,0,,5,,,65,127
23687,note_off,286,0,0,,5,,,65,127
23687,note_off,0,0,0,,10,,,69,127
23689,note_on,2,0,0,,10,,,69,127
23689,note_on,0,0,0,,11,,,70,127
23689,note_on,0,0,0,,4,,,64,127
23759,note_off,70,0,0,,11,,,70,127
23759,note_off,0,0,0,,10,,,69,127
23761,note_on,2,0,0,,8,,,68,127
23831,note_off,70,0,0,,8,,,68,127
23833,note_on,2,0,0,,10,,,69,127
23975,note_off,142,0,0,,4,,,64,127
23977,note_on,2,0,0,,2,,,62,127
24229,note_off,252,0,0,,10,,,69,127
24263,note_off,34,0,0,,2,,,62,127
24265,note_on,2,0,0,,4,,,76,127
24265,note_on,0,0,0,,1,,,61,127
24407,note_off,142,0,0,,4,,,76,127
24409,note_on,2,0,0,,10,,,69,127
24551,note_off,142,0,0,,10,,,69,127
24551,note_off,0,0,0,,1,,,61,127
24553,note_on,2,0,0,,12,,,71,127
24553,note_on,0,0,0,,1,,,61,127
24695,note_off,142,0,0,,12,,,71,127
24697,note_on,2,0,0,,10,,,69,127
24839,note_off,142,0,0,,1,,,61,127
24841,note_on,2,0,0,,1,,,61,127
24889,note_on,48,0,0,,7,,,67,127
24907,note_off,18,0,0,,10,,,69,127
24935,note_off,28,0,0,,7,,,67,127
24937,note_on,2,0,0,,10,,,69,127
24983,note_off,46,0,0,,10,,,69,127
24985,note_on,2,0,0,,7,,,67,127
25031,note_off,46,0,0,,7,,,67,127
25033,note_on,2,0,0,,6,,,66,127
25079,note_off,46,0,0,,6,,,66,127
25081,note_on,2,0,0,,7,,,67,127
25127,note_off,46,0,0,,7,,,67,127
25127,note_off,0,0,0,,1,,,61,127
25129,note_on,2,0,0,,6,,,66,127
25129,note_on,0,0,0,,2,,,62,127
25415,note_off,286,0,0,,6,,,66,127
25417,note_on,2,0,0,,4,,,76,127
25559,note_off,142,0,0,,4,,,76,127
25561,note_off,2,0,0,,2,,,62,127
25561,note_on,0,0,0,,10,,,69,127
25703,note_off,142,0,0,,10,,,69,127
25705,note_on,2,0,0,,12,,,71,127
25705,note_on,0,0,0,,1,,,61,127
25847,note_off,142,0,0,,12,,,71,127
25849,note_on,2,0,0,,10,,,69,127
25991,note_off,142,0,0,,1,,,61,127
25993,note_on,2,0,0,,1,,,61,127
26041,note_on,48,0,0,,7,,,67,127
26059,note_off,18,0,0,,10,,,69,127
26087,note_off,28,0,0,,7,,,67,127
26089,note_on,2,0,0,,10,,,69,127
26135,note_off,46,0,0,,10,,,69,127
26137,note_on,2,0,0,,7,,,67,127
26183,note_off,46,0,0,,7,,,67,127
26185,note_on,2,0,0,,6,,,66,127
26231,note_off,46,0,0,,6,,,66,127
26233,note_on,2,0,0,,7,,,67,127
26279,note_off,46,0,0,,7,,,67,127
26279,note_off,0,0,0,,1,,,61,127
26281,note_on,2,0,0,,6,,,66,127
26281,note_on,0,0,0,,2,,,62,127
26567,note_off,286,0,0,,2,,,62,127
26567,note_off,0,0,0,,6,,,66,127
26569,note_on,2,0,0,,12,,,71,127
26569,note_on,0,0,0,,7,,,55,127
26711,note_off,142,0,0,,12,,,71,127
26713,note_on,2,0,0,,7,,,67,127
26855,note_off,142,0,0,,7,,,67,127
26857,note_on,2,0,0,,7,,,67,127
26999,note_off,142,0,0,,7,,,67,127
27001,note_on,2,0,0,,2,,,74,127
27143,note_off,142,0,0,,2,,,74,127
27145,note_on,2,0,0,,2,,,74,127
27145,note_on,0,0,0,,7,,,43,127
27287,note_off,142,0,0,,2,,,74,127
27289,note_on,2,0,0,,12,,,71,127
27431,note_off,142,0,0,,12,,,71,127
27433,note_on,2,0,0,,12,,,71,127
27575,note_off,142,0,0,,12,,,71,127
27577,note_on,2,0,0,,7,,,79,127
27719,note_off,142,0,0,,7,,,79,127
27719,note_off,0,0,0,,7,,,43,127
27719,note_off,0,0,0,,7,,,55,127
27721,note_on,2,0,0,,7,,,79,127
27721,note_on,0,0,0,,7,,,55,127
27863,note_off,142,0,0,,7,,,79,127
27865,note_on,2,0,0,,2,,,74,127
28007,note_off,142,0,0,,2,,,74,127
28009,note_on,2,0,0,,2,,,74,127
28151,note_off,142,0,0,,2,,,74,127
28153,note_on,2,0,0,,12,,,83,127
28295,note_off,142,0,0,,12,,,83,127
28297,note_on,2,0,0,,12,,,83,127
28297,note_on,0,0,0,,7,,,43,127
28439,note_off,142,0,0,,12,,,83,127
28441,note_on,2,0,0,,7,,,79,127
28583,note_off,142,0,0,,7,,,79,127
28585,note_on,2,0,0,,6,,,78,127
28727,note_off,142,0,0,,6,,,78,127
28729,note_on,2,0,0,,4,,,76,127
28871,note_off,142,0,0,,4,,,76,127
28871,note_off,0,0,0,,7,,,43,127
28871,note_off,0,0,0,,7,,,55,127
28873,note_on,2,0,0,,2,,,74,127
28873,note_on,0,0,0,,10,,,57,127
29209,note_off,336,0,0,,2,,,74,127
29209,note_on,0,0,0,,4,,,76,127
29257,note_on,48,0,0,,2,,,74,127
29263,note_off,6,0,0,,4,,,76,127
29305,note_on,42,0,0,,1,,,73,127
29311,note_off,6,0,0,,2,,,74,127
29353,note_on,42,0,0,,2,,,74,127
29359,note_off,6,0,0,,1,,,73,127
29401,note_on,42,0,0,,4,,,76,127
29407,note_off,6,0,0,,2,,,74,127
29449,note_on,42,0,0,,6,,,78,127
29449,note_on,0,0,0,,10,,,45,127
29455,note_off,6,0,0,,4,,,76,127
29497,note_on,42,0,0,,4,,,76,127
29503,note_off,6,0,0,,6,,,78,127
29545,note_on,42,0,0,,6,,,78,127
29551,note_off,6,0,0,,4,,,76,127
29593,note_on,42,0,0,,4,,,76,127
29599,note_off,6,0,0,,6,,,78,127
29641,note_on,42,0,0,,6,,,78,127
29647,note_off,6,0,0,,4,,,76,127
29689,note_on,42,0,0,,4,,,76,127
29695,note_off,6,0,0,,6,,,78,127
29737,note_on,42,0,0,,6,,,78,127
29743,note_off,6,0,0,,4,,,76,127
29785,note_on,42,0,0,,4,,,76,127
29791,note_off,6,0,0,,6,,,78,127
29881,note_off,90,0,0,,4,,,76,127
29881,note_on,0,0,0,,2,,,74,127
30023,note_off,142,0,0,,2,,,74,127
30023,note_off,0,0,0,,10,,,45,127
30023,note_off,0,0,0,,10,,,57,127
30025,note_on,2,0,0,,4,,,76,127
30025,note_on,0,0,0,,2,,,74,127
30025,note_on,0,0,0,,2,,,62,127
30095,note_off,70,0,0,,2,,,74,127
30095,note_off,0,0,0,,4,,,76,127
30097,note_on,2,0,0,,1,,,73,127
30167,note_off,70,0,0,,1,,,73,127
30169,note_on,2,0,0,,2,,,74,127
30311,note_off,142,0,0,,2,,,62,127
30313,note_on,2,0,0,,1,,,61,127
30599,note_off,286,0,0,,1,,,61,127
30599,note_off,0,0,0,,2,,,74,127
30601,note_on,2,0,0,,4,,,76,127
30601,note_on,0,0,0,,2,,,74,127
30601,note_on,0,0,0,,12,,,59,127
30671,note_off,70,0,0,,2,,,74,127
30671,note_off,0,0,0,,4,,,76,127
30673,note_on,2,0,0,,1,,,73,127
30743,note_off,70,0,0,,1,,,73,127
30745,note_on,2,0,0,,2,,,74,127
30887,note_off,142,0,0,,12,,,59,127
30889,note_on,2,0,0,,10,,,57,127
31031,note_off,142,0,0,,2,,,74,127
31033,note_on,2,0,0,,3,,,75,127
31175,note_off,142,0,0,,3,,,75,127
31175,note_off,0,0,0,,10,,,57,127
31177,note_on,2,0,0,,4,,,76,127
31177,note_on,0,0,0,,6,,,78,127
31177,note_on,0,0,0,,7,,,55,127
31247,note_off,70,0,0,,6,,,78,127
31247,note_off,0,0,0,,4,,,76,127
31249,note_on,2,0,0,,3,,,75,127
31319,note_off,70,0,0,,3,,,75,127
31321,note_on,2,0,0,,4,,,76,127
31463,note_off,142,0,0,,7,,,55,127
31465,note_on,2,0,0,,6,,,54,127
31751,note_off,286,0,0,,6,,,54,127
31751,note_off,0,0,0,,4,,,76,127
31753,note_on,2,0,0,,6,,,78,127
31753,note_on,0,0,0,,4,,,76,127
31753,note_on,0,0,0,,4,,,52,127
31823,note_off,70,0,0,,4,,,76,127
31823,note_off,0,0,0,,6,,,78,127
31825,note_on,2,0,0,,3,,,75,127
31895,note_off,70,0,0,,3,,,75,127
31897,note_on,2,0,0,,4,,,76,127
32039,note_off,142,0,0,,4,,,52,127
32041,note_on,2,0,0,,2,,,50,127
32183,note_off,142,0,0,,4,,,76,127
32185,note_on,2,0,0,,6,,,78,127
32327,note_off,142,0,0,,6,,,78,127
32327,note_off,0,0,0,,2,,,50,127
32329,note_on,2,0,0,,7,,,79,127
32329,note_on,0,0,0,,10,,,81,127
32329,note_on,0,0,0,,1,,,49,127
32399,note_off,70,0,0,,10,,,81,127
32399,note_off,0,0,0,,7,,,79,127
32401,note_on,2,0,0,,6,,,78,127
32471,note_off,70,0,0,,6,,,78,127
32473,note_on,2,0,0,,7,,,79,127
32615,note_off,142,0,0,,1,,,49,127
32617,note_on,2,0,0,,12,,,47,127
32903,note_off,286,0,0,,12,,,47,127
32903,note_off,0,0,0,,7,,,79,127
32905,note_on,2,0,0,,10,,,81,127
32905,note_on,0,0,0,,7,,,79,127
32905,note_on,0,0,0,,10,,,45,127
32975,note_off,70,0,0,,7,,,79,127
32975,note_off,0,0,0,,10,,,81,127
32977,note_on,2,0,0,,6,,,78,127
33047,note_off,70,0,0,,6,,,78,127
33049,note_on,2,0,0,,7,,,79,127
33191,note_off,142,0,0,,10,,,45,127
33193,note_on,2,0,0,,7,,,43,127
33335,note_off,142,0,0,,7,,,79,127
33337,note_on,2,0,0,,1,,,85,127
33479,note_off,142,0,0,,1,,,85,127
33479,note_off,0,0,0,,7,,,43,127
33481,note_on,2,0,0,,2,,,86,127
33481,note_on,0,0,0,,6,,,42,127
33623,note_off,142,0,0,,2,,,86,127
33625,note_on,2,0,0,,10,,,81,127
33767,note_off,142,0,0,,10,,,81,127
33769,note_on,2,0,0,,6,,,78,127
33911,note_off,142,0,0,,6,,,78,127
33913,note_on,2,0,0,,7,,,79,127
34055,note_off,142,0,0,,7,,,79,127
34055,note_off,0,0,0,,6,,,42,127
34057,note_on,2,0,0,,10,,,81,127
34199,note_off,142,0,0,,10,,,81,127
34201,note_on,2,0,0,,7,,,79,127
34343,note_off,142,0,0,,7,,,79,127
34345,note_on,2,0,0,,6,,,78,127
34487,note_off,142,0,0,,6,,,78,127
34489,note_on,2,0,0,,4,,,76,127
34631,note_off,142,0,0,,4,,,76,127
34633,note_on,2,0,0,,4,,,76,127
34633,note_on,0,0,0,,2,,,74,127
34633,note_on,0,0,0,,2,,,62,127
34703,note_off,70,0,0,,2,,,74,127
34703,note_off,0,0,0,,4,,,76,127
34705,note_on,2,0,0,,1,,,73,127
34775,note_off,70,0,0,,1,,,73,127
34777,note_on,2,0,0,,2,,,74,127
34919,note_off,142,0,0,,2,,,62,127
34921,note_on,2,0,0,,1,,,61,127
35207,note_off,286,0,0,,1,,,61,127
35207,note_off,0,0,0,,2,,,74,127
35209,note_on,2,0,0,,2,,,74,127
35209,note_on,0,0,0,,4,,,76,127
35209,note_on,0,0,0,,12,,,59,127
35279,note_off,70,0,0,,4,,,76,127
35279,note_off,0,0,0,,2,,,74,127
35281,note_on,2,0,0,,1,,,73,127
35351,note_off,70,0,0,,1,,,73,127
35353,note_on,2,0,0,,2,,,74,127
35495,note_off,142,0,0,,12,,,59,127
35497,note_on,2,0,0,,10,,,57,127
35639,note_off,142,0,0,,2,,,74,127
35641,note_on,2,0,0,,3,,,75,127
35783,note_off,142,0,0,,3,,,75,127
35783,note_off,0,0,0,,10,,,57,127
35785,note_on,2,0,0,,6,,,78,127
35785,note_on,0,0,0,,4,,,76,127
35785,note_on,0,0,0,,7,,,55,127
35855,note_off,70,0,0,,4,,,76,127
35855,note_off,0,0,0,,6,,,78,127
35857,note_on,2,0,0,,3,,,75,127
35927,note_off,70,0,0,,3,,,75,127
35929,note_on,2,0,0,,4,,,76,127
36071,note_off,142,0,0,,7,,,55,127
36073,note_on,2,0,0,,6,,,54,127
36359,note_off,286,0,0,,6,,,54,127
36359,note_off,0,0,0,,4,,,76,127
36361,note_on,2,0,0,,6,,,78,127
36361,note_on,0,0,0,,4,,,76,127
36361,note_on,0,0,0,,4,,,52,127
36431,note_off,70,0,0,,4,,,76,127
36431,note_off,0,0,0,,6,,,78,127
36433,note_on,2,0,0,,3,,,75,127
36503,note_off,70,0,0,,3,,,75,127
36505,note_on,2,0,0,,4,,,76,127
36647,note_off,142,0,0,,4,,,52,127
36649,note_on,2,0,0,,2,,,50,127
36791,note_off,142,0,0,,4,,,76,127
36793,note_on,2,0,0,,6,,,78,127
36935,note_off,142,0,0,,6,,,78,127
36935,note_off,0,0,0,,2,,,50,127
36937,note_on,2,0,0,,10,,,81,127
36937,note_on,0,0,0,,7,,,79,127
36937,note_on,0,0,0,,1,,,49,127
37007,note_off,70,0,0,,7,,,79,127
37007,note_off,0,0,0,,10,,,81,127
37009,note_on,2,0,0,,6,,,78,127
37079,note_off,70,0,0,,6,,,78,127
37081,note_on,2,0,0,,7,,,79,127
37223,note_off,142,0,0,,1,,,49,127
37225,note_on,2,0,0,,12,,,47,127
37511,note_off,286,0,0,,12,,,47,127
37511,note_off,0,0,0,,7,,,79,127
37513,note_on,2,0,0,,10,,,81,127
37513,note_on,0,0,0,,7,,,79,127
37513,note_on,0,0,0,,10,,,45,127
37583,note_off,70,0,0,,7,,,79,127
37583,note_off,0,0,0,,10,,,81,127
37585,note_on,2,0,0,,6,,,78,127
37655,note_off,70,0,0,,6,,,78,127
37657,note_on,2,0,0,,7,,,79,127
37799,note_off,142,0,0,,10,,,45,127
37801,note_on,2,0,0,,7,,,43,127
37943,note_off,142,0,0,,7,,,79,127
37945,note_on,2,0,0,,1,,,85,127
38087,note_off,142,0,0,,1,,,85,127
38087,note_off,0,0,0,,7,,,43,127
38089,note_on,2,0,0,,2,,,86,127
38089,note_on,0,0,0,,6,,,42,127
38231,note_off,142,0,0,,2,,,86,127
38233,note_on,2,0,0,,10,,,81,127
38375,note_off,142,0,0,,10,,,81,127
38377,note_on,2,0,0,,6,,,78,127
38519,note_off,142,0,0,,6,,,78,127
38521,note_on,2,0,0,,7,,,79,127
38663,note_off,142,0,0,,7,,,79,127
38663,note_off,0,0,0,,6,,,42,127
38665,note_on,2,0,0,,10,,,81,127
38665,note_on,0,0,0,,6,,,54,127
38807,note_off,142,0,0,,10,,,81,127
38809,note_on,2,0,0,,7,,,79,127
38951,note_off,142,0,0,,7,,,79,127
38953,note_on,2,0,0,,6,,,78,127
39095,note_off,142,0,0,,6,,,78,127
39097,note_on,2,0,0,,4,,,76,127
39239,note_off,142,0,0,,4,,,76,127
39239,note_off,0,0,0,,6,,,54,127
39241,note_on,2,0,0,,11,,,82,127
39241,note_on,0,0,0,,7,,,55,127
39383,note_off,142,0,0,,11,,,82,127
39385,note_on,2,0,0,,12,,,83,127
39527,note_off,142,0,0,,12,,,83,127
39529,note_on,2,0,0,,7,,,79,127
39671,note_off,142,0,0,,7,,,79,127
39673,note_on,2,0,0,,6,,,78,127
39815,note_off,142,0,0,,6,,,78,127
39817,note_on,2,0,0,,4,,,76,127
39817,note_on,0,0,0,,7,,,43,127
39959,note_off,142,0,0,,4,,,76,127
39961,note_on,2,0,0,,2,,,74,127
40103,note_off,142,0,0,,2,,,74,127
40105,note_on,2,0,0,,1,,,73,127
40247,note_off,142,0,0,,1,,,73,127
40249,note_on,2,0,0,,2,,,74,127
40391,note_off,142,0,0,,2,,,74,127
40391,note_off,0,0,0,,7,,,43,127
40391,note_off,0,0,0,,7,,,55,127
40393,note_on,2,0,0,,10,,,69,127
40393,note_on,0,0,0,,10,,,57,127
40681,note_on,288,0,0,,10,,,45,127
40777,note_off,96,0,0,,10,,,69,127
40777,note_on,0,0,0,,12,,,71,127
40825,note_on,48,0,0,,1,,,73,127
40831,note_off,6,0,0,,12,,,71,127
40873,note_on,42,0,0,,2,,,74,127
40879,note_off,6,0,0,,1,,,73,127
40921,note_on,42,0,0,,4,,,76,127
40927,note_off,6,0,0,,2,,,74,127
40967,note_off,40,0,0,,10,,,45,127
40967,note_off,0,0,0,,10,,,57,127
40969,note_on,2,0,0,,6,,,78,127
40969,note_on,0,0,0,,10,,,57,127
40975,note_off,6,0,0,,4,,,76,127
41015,note_off,40,0,0,,6,,,78,127
41017,note_on,2,0,0,,4,,,76,127
41063,note_off,46,0,0,,4,,,76,127
41065,note_on,2,0,0,,6,,,78,127
41111,note_off,46,0,0,,6,,,78,127
41113,note_on,2,0,0,,4,,,76,127
41159,note_off,46,0,0,,4,,,76,127
41161,note_on,2,0,0,,6,,,78,127
41207,note_off,46,0,0,,6,,,78,127
41209,note_on,2,0,0,,4,,,76,127
41255,note_off,46,0,0,,4,,,76,127
41255,note_off,0,0,0,,10,,,57,127
41257,note_on,2,0,0,,6,,,78,127
41257,note_on,0,0,0,,7,,,55,127
41327,note_off,70,0,0,,6,,,78,127
41329,note_on,2,0,0,,4,,,76,127
41399,note_off,70,0,0,,4,,,76,127
41401,note_on,2,0,0,,2,,,74,127
41543,note_off,142,0,0,,2,,,74,127
41543,note_off,0,0,0,,7,,,55,127
41545,note_on,2,0,0,,8,,,80,127
41545,note_on,0,0,0,,6,,,54,127
41687,note_off,142,0,0,,8,,,80,127
41689,note_on,2,0,0,,10,,,81,127
41831,note_off,142,0,0,,10,,,81,127
41833,note_on,2,0,0,,7,,,79,127
41833,note_on,0,0,0,,6,,,78,127
41975,note_off,142,0,0,,6,,,78,127
41975,note_off,0,0,0,,7,,,79,127
41977,note_on,2,0,0,,4,,,76,127
42119,note_off,142,0,0,,4,,,76,127
42121,note_on,2,0,0,,2,,,74,127
42121,note_on,0,0,0,,6,,,42,127
42263,note_off,142,0,0,,2,,,74,127
42265,note_on,2,0,0,,1,,,73,127
42407,note_off,142,0,0,,1,,,73,127
42409,note_on,2,0,0,,12,,,71,127
42551,note_off,142,0,0,,12,,,71,127
42553,note_on,2,0,0,,10,,,69,127
42695,note_off,142,0,0,,10,,,69,127
42695,note_off,0,0,0,,6,,,42,127
42695,note_off,0,0,0,,6,,,54,127
42697,note_on,2,0,0,,11,,,70,127
42697,note_on,0,0,0,,7,,,55,127
42839,note_off,142,0,0,,11,,,70,127
42841,note_on,2,0,0,,12,,,71,127
42983,note_off,142,0,0,,12,,,71,127
42985,note_on,2,0,0,,10,,,69,127
42985,note_on,0,0,0,,7,,,67,127
43127,note_off,142,0,0,,7,,,67,127
43127,note_off,0,0,0,,10,,,69,127
43129,note_on,2,0,0,,6,,,66,127
43271,note_off,142,0,0,,6,,,66,127
43273,note_on,2,0,0,,4,,,64,127
43273,note_on,0,0,0,,7,,,43,127
43415,note_off,142,0,0,,4,,,64,127
43417,note_on,2,0,0,,2,,,62,127
43559,note_off,142,0,0,,2,,,62,127
43561,note_on,2,0,0,,1,,,61,127
43703,note_off,142,0,0,,1,,,61,127
43705,note_on,2,0,0,,2,,,62,127
43847,note_off,142,0,0,,2,,,62,127
43847,note_off,0,0,0,,7,,,43,127
43847,note_off,0,0,0,,7,,,55,127
43849,note_on,2,0,0,,10,,,57,127
43849,note_on,0,0,0,,10,,,45,127
44423,note_off,574,0,0,,10,,,57,127
44425,note_on,2,0,0,,6,,,66,127
44471,note_off,46,0,0,,6,,,66,127
44473,note_on,2,0,0,,4,,,64,127
44519,note_off,46,0,0,,4,,,64,127
44521,note_on,2,0,0,,6,,,66,127
44567,note_off,46,0,0,,6,,,66,127
44569,note_on,2,0,0,,4,,,64,127
44615,note_off,46,0,0,,4,,,64,127
44617,note_on,2,0,0,,6,,,66,127
44663,note_off,46,0,0,,6,,,66,127
44665,note_on,2,0,0,,4,,,64,127
44711,note_off,46,0,0,,4,,,64,127
44713,note_on,2,0,0,,6,,,66,127
44759,note_off,46,0,0,,6,,,66,127
44761,note_on,2,0,0,,4,,,64,127
44807,note_off,46,0,0,,4,,,64,127
44809,note_on,2,0,0,,6,,,66,127
44855,note_off,46,0,0,,6,,,66,127
44857,note_on,2,0,0,,4,,,64,127
44903,note_off,46,0,0,,4,,,64,127
44905,note_on,2,0,0,,2,,,62,127
44951,note_off,46,0,0,,2,,,62,127
44953,note_on,2,0,0,,4,,,64,127
44999,note_off,46,0,0,,4,,,64,127
44999,note_off,0,0,0,,10,,,45,127
45001,note_on,2,0,0,,2,,,62,127
45001,note_on,0,0,0,,2,,,38,127
45863,note_off,862,0,0,,2,,,38,127
46151,note_off,288,0,0,,2,,,62,127
46153,note_on,2,0,0,,2,,,62,127
46295,note_off,142,0,0,,2,,,62,127
46297,note_on,2,0,0,,6,,,66,127
46439,note_off,142,0,0,,6,,,66,127
46441,note_on,2,0,0,,4,,,64,127
46583,note_off,142,0,0,,4,,,64,127
46585,note_on,2,0,0,,7,,,67,127
46727,note_off,142,0,0,,7,,,67,127
46729,note_on,2,0,0,,6,,,66,127
47015,note_off,286,0,0,,6,,,66,127
47017,note_on,2,0,0,,2,,,74,127
47303,note_off,286,0,0,,2,,,74,127
47305,note_on,2,0,0,,12,,,71,127
47305,note_on,0,0,0,,2,,,62,127
47351,note_off,46,0,0,,12,,,71,127
47353,note_on,2,0,0,,10,,,69,127
47399,note_off,46,0,0,,10,,,69,127
47401,note_on,2,0,0,,12,,,71,127
47447,note_off,46,0,0,,12,,,71,127
47447,note_off,0,0,0,,2,,,62,127
47449,note_on,2,0,0,,10,,,69,127
47449,note_on,0,0,0,,6,,,66,127
47591,note_off,142,0,0,,6,,,66,127
47593,note_on,2,0,0,,4,,,64,127
47735,note_off,142,0,0,,4,,,64,127
47737,note_on,2,0,0,,7,,,67,127
47879,note_off,142,0,0,,7,,,67,127
47881,note_on,2,0,0,,6,,,66,127
48167,note_off,286,0,0,,6,,,66,127
48167,note_off,0,0,0,,10,,,69,127
48169,note_on,2,0,0,,2,,,74,127
48169,note_on,0,0,0,,12,,,71,127
48455,note_off,286,0,0,,12,,,71,127
48455,note_off,0,0,0,,2,,,74,127
48457,note_on,2,0,0,,0,,,72,127
48457,note_on,0,0,0,,10,,,69,127
48743,note_off,286,0,0,,10,,,69,127
48743,note_off,0,0,0,,0,,,72,127
48745,note_on,2,0,0,,12,,,71,127
48745,note_on,0,0,0,,7,,,67,127
49031,note_off,286,0,0,,7,,,67,127
49031,note_off,0,0,0,,12,,,71,127
49033,note_on,2,0,0,,2,,,74,127
49033,note_on,0,0,0,,6,,,66,127
49079,note_off,46,0,0,,2,,,74,127
49081,note_on,2,0,0,,0,,,72,127
49127,note_off,46,0,0,,0,,,72,127
49129,note_on,2,0,0,,2,,,74,127
49175,note_off,46,0,0,,2,,,74,127
49177,note_on,2,0,0,,0,,,72,127
49223,note_off,46,0,0,,0,,,72,127
49225,note_on,2,0,0,,2,,,74,127
49271,note_off,46,0,0,,2,,,74,127
49273,note_on,2,0,0,,0,,,72,127
49319,note_off,46,0,0,,0,,,72,127
49319,note_off,0,0,0,,6,,,66,127
49321,note_on,2,0,0,,2,,,74,127
49321,note_on,0,0,0,,2,,,62,127
49367,note_off,46,0,0,,2,,,74,127
49369,note_on,2,0,0,,0,,,72,127
49415,note_off,46,0,0,,0,,,72,127
49417,note_on,2,0,0,,2,,,74,127
49463,note_off,46,0,0,,2,,,74,127
49465,note_on,2,0,0,,0,,,72,127
49511,note_off,46,0,0,,0,,,72,127
49513,note_on,2,0,0,,12,,,71,127
49559,note_off,46,0,0,,12,,,71,127
49561,note_on,2,0,0,,0,,,72,127
49607,note_off,46,0,0,,0,,,72,127
49607,note_off,0,0,0,,2,,,62,127
49609,note_on,2,0,0,,12,,,71,127
49609,note_on,0,0,0,,7,,,67,127
49751,note_off,142,0,0,,12,,,71,127
49753,note_on,2,0,0,,2,,,74,127
49895,note_off,142,0,0,,2,,,74,127
49897,note_on,2,0,0,,0,,,72,127
49897,note_on,0,0,0,,7,,,55,127
50039,note_off,142,0,0,,0,,,72,127
50041,note_on,2,0,0,,4,,,76,127
50183,note_off,142,0,0,,4,,,76,127
50183,note_off,0,0,0,,7,,,67,127
50185,note_on,2,0,0,,2,,,74,127
50471,note_off,286,0,0,,2,,,74,127
50471,note_off,0,0,0,,7,,,55,127
50473,note_on,2,0,0,,7,,,79,127
50759,note_off,286,0,0,,7,,,79,127
50761,note_on,2,0,0,,4,,,76,127
50761,note_on,0,0,0,,7,,,67,127
50807,note_off,46,0,0,,4,,,76,127
50809,note_on,2,0,0,,2,,,74,127
50855,note_off,46,0,0,,2,,,74,127
50857,note_on,2,0,0,,4,,,76,127
50903,note_off,46,0,0,,4,,,76,127
50903,note_off,0,0,0,,7,,,67,127
50905,note_on,2,0,0,,2,,,74,127
50905,note_on,0,0,0,,12,,,71,127
51047,note_off,142,0,0,,12,,,71,127
51049,note_on,2,0,0,,10,,,69,127
51191,note_off,142,0,0,,10,,,69,127
51193,note_on,2,0,0,,0,,,72,127
51335,note_off,142,0,0,,0,,,72,127
51337,note_on,2,0,0,,12,,,71,127
51623,note_off,286,0,0,,12,,,71,127
51623,note_off,0,0,0,,2,,,74,127
51625,note_on,2,0,0,,7,,,79,127
51625,note_on,0,0,0,,4,,,76,127
51911,note_off,286,0,0,,4,,,76,127
51911,note_off,0,0,0,,7,,,79,127
51913,note_on,2,0,0,,5,,,77,127
51913,note_on,0,0,0,,2,,,74,127
52199,note_off,286,0,0,,2,,,74,127
52199,note_off,0,0,0,,5,,,77,127
52201,note_on,2,0,0,,4,,,76,127
52201,note_on,0,0,0,,0,,,72,127
52487,note_off,286,0,0,,0,,,72,127
52487,note_off,0,0,0,,4,,,76,127
52489,note_on,2,0,0,,7,,,79,127
52489,note_on,0,0,0,,12,,,71,127
52535,note_off,46,0,0,,7,,,79,127
52537,note_on,2,0,0,,5,,,77,127
52583,note_off,46,0,0,,5,,,77,127
52585,note_on,2,0,0,,7,,,79,127
52631,note_off,46,0,0,,7,,,79,127
52633,note_on,2,0,0,,5,,,77,127
52679,note_off,46,0,0,,5,,,77,127
52681,note_on,2,0,0,,7,,,79,127
52727,note_off,46,0,0,,7,,,79,127
52729,note_on,2,0,0,,5,,,77,127
52775,note_off,46,0,0,,5,,,77,127
52775,note_off,0,0,0,,12,,,71,127
52777,note_on,2,0,0,,7,,,79,127
52777,note_on,0,0,0,,7,,,67,127
52823,note_off,46,0,0,,7,,,79,127
52825,note_on,2,0,0,,5,,,77,127
52871,note_off,46,0,0,,5,,,77,127
52873,note_on,2,0,0,,7,,,79,127
52919,note_off,46,0,0,,7,,,79,127
52921,note_on,2,0,0,,5,,,77,127
52967,note_off,46,0,0,,5,,,77,127
52969,note_on,2,0,0,,4,,,76,127
53015,note_off,46,0,0,,4,,,76,127
53017,note_on,2,0,0,,5,,,77,127
53063,note_off,46,0,0,,5,,,77,127
53063,note_off,0,0,0,,7,,,67,127
53065,note_on,2,0,0,,4,,,76,127
53065,note_on,0,0,0,,0,,,72,127
53351,note_off,286,0,0,,4,,,76,127
53353,note_on,2,0,0,,4,,,76,127
53353,note_on,0,0,0,,0,,,60,127
53423,note_off,70,0,0,,4,,,76,127
53425,note_on,2,0,0,,5,,,77,127
53495,note_off,70,0,0,,5,,,77,127
53497,note_on,2,0,0,,7,,,79,127
53639,note_off,142,0,0,,7,,,79,127
53639,note_off,0,0,0,,0,,,72,127
53641,note_on,2,0,0,,5,,,77,127
53783,note_off,142,0,0,,5,,,77,127
53785,note_on,2,0,0,,4,,,76,127
53927,note_off,142,0,0,,4,,,76,127
53927,note_off,0,0,0,,0,,,60,127
53929,note_on,2,0,0,,2,,,74,127
54071,note_off,142,0,0,,2,,,74,127
54073,note_on,2,0,0,,1,,,73,127
54215,note_off,142,0,0,,1,,,73,127
54217,note_on,2,0,0,,4,,,76,127
54217,note_on,0,0,0,,2,,,74,127
54287,note_off,70,0,0,,2,,,74,127
54287,note_off,0,0,0,,4,,,76,127
54289,note_on,2,0,0,,1,,,73,127
54359,note_off,70,0,0,,1,,,73,127
54361,note_on,2,0,0,,2,,,74,127
54505,note_on,144,0,0,,0,,,72,127
54791,note_off,286,0,0,,0,,,72,127
54791,note_off,0,0,0,,2,,,74,127
54793,note_on,2,0,0,,2,,,74,127
54793,note_on,0,0,0,,4,,,76,127
54793,note_on,0,0,0,,12,,,71,127
54863,note_off,70,0,0,,4,,,76,127
54863,note_off,0,0,0,,2,,,74,127
54865,note_on,2,0,0,,1,,,73,127
54935,note_off,70,0,0,,1,,,73,127
54937,note_on,2,0,0,,2,,,74,127
55079,note_off,142,0,0,,12,,,71,127
55081,note_on,2,0,0,,10,,,69,127
55366,note_off,285,0,0,,2,,,74,127
55368,note_off,2,0,0,,10,,,69,127
55370,note_on,2,0,0,,2,,,74,127
55370,note_on,0,0,0,,8,,,68,127
55655,note_off,285,0,0,,2,,,74,127
55657,note_off,2,0,0,,8,,,68,127
55659,note_on,2,0,0,,2,,,74,127
55659,note_on,0,0,0,,4,,,64,127
55731,note_off,72,0,0,,2,,,74,127
55731,note_on,0,0,0,,4,,,76,127
55801,note_off,70,0,0,,4,,,76,127
55803,note_on,2,0,0,,5,,,77,127
55945,note_off,142,0,0,,5,,,77,127
55947,note_on,2,0,0,,4,,,76,127
56089,note_off,142,0,0,,4,,,76,127
56091,note_on,2,0,0,,2,,,74,127
56233,note_off,142,0,0,,2,,,74,127
56233,note_off,0,0,0,,4,,,64,127
56235,note_on,2,0,0,,0,,,72,127
56377,note_off,142,0,0,,0,,,72,127
56379,note_on,2,0,0,,12,,,71,127
56521,note_off,142,0,0,,12,,,71,127
56523,note_on,2,0,0,,12,,,71,127
56523,note_on,0,0,0,,10,,,69,127
56593,note_off,70,0,0,,10,,,69,127
56593,note_off,0,0,0,,12,,,71,127
56595,note_on,2,0,0,,8,,,68,127
56665,note_off,70,0,0,,8,,,68,127
56667,note_on,2,0,0,,10,,,69,127
56811,note_on,144,0,0,,5,,,65,127
57097,note_off,286,0,0,,5,,,65,127
57097,note_off,0,0,0,,10,,,69,127
57099,note_on,2,0,0,,10,,,69,127
57099,note_on,0,0,0,,12,,,71,127
57099,note_on,0,0,0,,4,,,64,127
57169,note_off,70,0,0,,12,,,71,127
57169,note_off,0,0,0,,10,,,69,127
57171,note_on,2,0,0,,8,,,68,127
57241,note_off,70,0,0,,8,,,68,127
57243,note_on,2,0,0,,10,,,69,127
57385,note_off,142,0,0,,4,,,64,127
57387,note_on,2,0,0,,2,,,62,127
57673,note_off,286,0,0,,2,,,62,127
57673,note_off,0,0,0,,10,,,69,127
57675,note_on,2,0,0,,10,,,69,127
57675,note_on,0,0,0,,0,,,60,127
57960,note_off,285,0,0,,10,,,69,127
57963,note_on,3,0,0,,10,,,69,127
57963,note_on,0,0,0,,0,,,48,127
58033,note_off,70,0,0,,10,,,69,127
58035,note_on,2,0,0,,12,,,71,127
58105,note_off,70,0,0,,12,,,71,127
58107,note_on,2,0,0,,0,,,72,127
58249,note_off,142,0,0,,0,,,72,127
58249,note_off,0,0,0,,0,,,60,127
58251,note_on,2,0,0,,12,,,71,127
58393,note_off,142,0,0,,12,,,71,127
58395,note_on,2,0,0,,10,,,69,127
58537,note_off,142,0,0,,10,,,69,127
58537,note_off,0,0,0,,0,,,48,127
58539,note_on,2,0,0,,7,,,67,127
58681,note_off,142,0,0,,7,,,67,127
58683,note_on,2,0,0,,5,,,65,127
58825,note_off,142,0,0,,5,,,65,127
58827,note_on,2,0,0,,4,,,64,127
58827,note_on,0,0,0,,5,,,65,127
58897,note_off,70,0,0,,5,,,65,127
58897,note_off,0,0,0,,4,,,64,127
58899,note_on,2,0,0,,3,,,63,127
58969,note_off,70,0,0,,3,,,63,127
58971,note_on,2,0,0,,4,,,64,127
59115,note_on,144,0,0,,0,,,60,127
59401,note_off,286,0,0,,0,,,60,127
59401,note_off,0,0,0,,4,,,64,127
59403,note_on,2,0,0,,4,,,64,127
59403,note_on,0,0,0,,5,,,65,127
59403,note_on,0,0,0,,12,,,59,127
59473,note_off,70,0,0,,5,,,65,127
59473,note_off,0,0,0,,4,,,64,127
59475,note_on,2,0,0,,3,,,63,127
59545,note_off,70,0,0,,3,,,63,127
59547,note_on,2,0,0,,4,,,64,127
59689,note_off,142,0,0,,12,,,59,127
59691,note_on,2,0,0,,10,,,57,127
59945,note_off,254,0,0,,4,,,64,127
59978,note_off,33,0,0,,10,,,57,127
59980,note_on,2,0,0,,12,,,71,127
59980,note_on,0,0,0,,8,,,56,127
60122,note_off,142,0,0,,12,,,71,127
60124,note_on,2,0,0,,4,,,64,127
60266,note_off,142,0,0,,4,,,64,127
60266,note_off,0,0,0,,8,,,56,127
60268,note_on,2,0,0,,6,,,66,127
60268,note_on,0,0,0,,8,,,56,127
60410,note_off,142,0,0,,6,,,66,127
60412,note_on,2,0,0,,4,,,64,127
60554,note_off,142,0,0,,8,,,56,127
60556,note_on,2,0,0,,8,,,56,127
60604,note_on,48,0,0,,2,,,62,127
60622,note_off,18,0,0,,4,,,64,127
60650,note_off,28,0,0,,2,,,62,127
60652,note_on,2,0,0,,4,,,64,127
60698,note_off,46,0,0,,4,,,64,127
60700,note_on,2,0,0,,2,,,62,127
60746,note_off,46,0,0,,2,,,62,127
60748,note_on,2,0,0,,1,,,61,127
60794,note_off,46,0,0,,1,,,61,127
60796,note_on,2,0,0,,2,,,62,127
60842,note_off,46,0,0,,2,,,62,127
60842,note_off,0,0,0,,8,,,56,127
60844,note_on,2,0,0,,1,,,61,127
60844,note_on,0,0,0,,10,,,57,127
61130,note_off,286,0,0,,1,,,61,127
61132,note_on,2,0,0,,12,,,71,127
61274,note_off,142,0,0,,12,,,71,127
61276,note_off,2,0,0,,10,,,57,127
61276,note_on,0,0,0,,4,,,64,127
61418,note_off,142,0,0,,4,,,64,127
61420,note_on,2,0,0,,6,,,66,127
61420,note_on,0,0,0,,8,,,56,127
61562,note_off,142,0,0,,6,,,66,127
61564,note_on,2,0,0,,4,,,64,127
61706,note_off,142,0,0,,8,,,56,127
61708,note_on,2,0,0,,8,,,56,127
61756,note_on,48,0,0,,2,,,62,127
61774,note_off,18,0,0,,4,,,64,127
61802,note_off,28,0,0,,2,,,62,127
61804,note_on,2,0,0,,4,,,64,127
61850,note_off,46,0,0,,4,,,64,127
61852,note_on,2,0,0,,2,,,62,127
61898,note_off,46,0,0,,2,,,62,127
61900,note_on,2,0,0,,1,,,61,127
61946,note_off,46,0,0,,1,,,61,127
61948,note_on,2,0,0,,2,,,62,127
61994,note_off,46,0,0,,2,,,62,127
61994,note_off,0,0,0,,8,,,56,127
61996,note_on,2,0,0,,1,,,61,127
61996,note_on,0,0,0,,10,,,57,127
62284,note_on,288,0,0,,10,,,45,127
62566,note_off,282,0,0,,10,,,57,127
62570,note_off,4,0,0,,10,,,45,127
62570,note_off,0,0,0,,1,,,61,127
62572,note_on,2,0,0,,1,,,61,127
62572,note_on,0,0,0,,7,,,55,127
62666,note_off,94,0,0,,1,,,61,127
62668,note_on,2,0,0,,12,,,59,127
62762,note_off,94,0,0,,12,,,59,127
62764,note_on,2,0,0,,1,,,61,127
62858,note_off,94,0,0,,1,,,61,127
62858,note_off,0,0,0,,7,,,55,127
62860,note_on,2,0,0,,2,,,62,127
62860,note_on,0,0,0,,6,,,54,127
62954,note_off,94,0,0,,2,,,62,127
62956,note_on,2,0,0,,1,,,61,127
63050,note_off,94,0,0,,1,,,61,127
63052,note_on,2,0,0,,2,,,62,127
63146,note_off,94,0,0,,2,,,62,127
63146,note_off,0,0,0,,6,,,54,127
63148,note_on,2,0,0,,4,,,64,127
63148,note_on,0,0,0,,4,,,52,127
63242,note_off,94,0,0,,4,,,64,127
63244,note_on,2,0,0,,2,,,62,127
63338,note_off,94,0,0,,2,,,62,127
63340,note_on,2,0,0,,4,,,64,127
63434,note_off,94,0,0,,4,,,64,127
63434,note_off,0,0,0,,4,,,52,127
63436,note_on,2,0,0,,6,,,66,127
63436,note_on,0,0,0,,2,,,50,127
63530,note_off,94,0,0,,6,,,66,127
63532,note_on,2,0,0,,4,,,64,127
63626,note_off,94,0,0,,4,,,64,127
63628,note_on,2,0,0,,2,,,62,127
63722,note_off,94,0,0,,2,,,62,127
63722,note_off,0,0,0,,2,,,50,127
63724,note_on,2,0,0,,6,,,66,127
63724,note_on,0,0,0,,0,,,60,127
63818,note_off,94,0,0,,6,,,66,127
63820,note_on,2,0,0,,4,,,64,127
63914,note_off,94,0,0,,4,,,64,127
63916,note_on,2,0,0,,6,,,66,127
64010,note_off,94,0,0,,6,,,66,127
64010,note_off,0,0,0,,0,,,60,127
64012,note_on,2,0,0,,7,,,67,127
64012,note_on,0,0,0,,12,,,59,127
64106,note_off,94,0,0,,7,,,67,127
64108,note_on,2,0,0,,6,,,66,127
64202,note_off,94,0,0,,6,,,66,127
64204,note_on,2,0,0,,7,,,67,127
64298,note_off,94,0,0,,7,,,67,127
64298,note_off,0,0,0,,12,,,59,127
64300,note_on,2,0,0,,10,,,69,127
64300,note_on,0,0,0,,10,,,57,127
64394,note_off,94,0,0,,10,,,69,127
64396,note_on,2,0,0,,7,,,67,127
64490,note_off,94,0,0,,7,,,67,127
64492,note_on,2,0,0,,10,,,69,127
64586,note_off,94,0,0,,10,,,69,127
64586,note_off,0,0,0,,10,,,57,127
64588,note_on,2,0,0,,12,,,71,127
64588,note_on,0,0,0,,7,,,55,127
64682,note_off,94,0,0,,12,,,71,127
64684,note_on,2,0,0,,10,,,69,127
64778,note_off,94,0,0,,10,,,69,127
64780,note_on,2,0,0,,7,,,67,127
64874,note_off,94,0,0,,7,,,67,127
64874,note_off,0,0,0,,7,,,55,127
64876,note_on,2,0,0,,12,,,71,127
64876,note_on,0,0,0,,5,,,65,127
64970,note_off,94,0,0,,12,,,71,127
64972,note_on,2,0,0,,10,,,69,127
65066,note_off,94,0,0,,10,,,69,127
65068,note_on,2,0,0,,12,,,71,127
65162,note_off,94,0,0,,12,,,71,127
65162,note_off,0,0,0,,5,,,65,127
65164,note_on,2,0,0,,0,,,72,127
65164,note_on,0,0,0,,4,,,64,127
65258,note_off,94,0,0,,0,,,72,127
65260,note_on,2,0,0,,12,,,71,127
65354,note_off,94,0,0,,12,,,71,127
65356,note_on,2,0,0,,0,,,72,127
65450,note_off,94,0,0,,0,,,72,127
65450,note_off,0,0,0,,4,,,64,127
65452,note_on,2,0,0,,2,,,74,127
65452,note_on,0,0,0,,2,,,62,127
65546,note_off,94,0,0,,2,,,74,127
65548,note_on,2,0,0,,0,,,72,127
65642,note_off,94,0,0,,0,,,72,127
65644,note_on,2,0,0,,2,,,74,127
65738,note_off,94,0,0,,2,,,74,127
65738,note_off,0,0,0,,2,,,62,127
65740,note_on,2,0,0,,4,,,76,127
65740,note_on,0,0,0,,0,,,60,127
65834,note_off,94,0,0,,4,,,76,127
65836,note_on,2,0,0,,2,,,74,127
65930,note_off,94,0,0,,2,,,74,127
65932,note_on,2,0,0,,0,,,72,127
66026,note_off,94,0,0,,0,,,72,127
66026,note_off,0,0,0,,0,,,60,127
66028,note_on,2,0,0,,4,,,76,127
66028,note_on,0,0,0,,12,,,59,127
66122,note_off,94,0,0,,4,,,76,127
66124,note_on,2,0,0,,2,,,74,127
66218,note_off,94,0,0,,2,,,74,127
66220,note_on,2,0,0,,4,,,76,127
66314,note_off,94,0,0,,4,,,76,127
66314,note_off,0,0,0,,12,,,59,127
66316,note_on,2,0,0,,6,,,78,127
66316,note_on,0,0,0,,10,,,57,127
66410,note_off,94,0,0,,6,,,78,127
66412,note_on,2,0,0,,4,,,76,127
66506,note_off,94,0,0,,4,,,76,127
66508,note_on,2,0,0,,6,,,78,127
66602,note_off,94,0,0,,6,,,78,127
66602,note_off,0,0,0,,10,,,57,127
66604,note_on,2,0,0,,7,,,79,127
66604,note_on,0,0,0,,7,,,55,127
66698,note_off,94,0,0,,7,,,79,127
66700,note_on,2,0,0,,6,,,78,127
66794,note_off,94,0,0,,6,,,78,127
66796,note_on,2,0,0,,7,,,79,127
66890,note_off,94,0,0,,7,,,79,127
66890,note_off,0,0,0,,7,,,55,127
66916,note_on,26,0,0,,10,,,81,127
67058,note_off,142,0,0,,10,,,81,127
67060,note_on,2,0,0,,2,,,74,127
67202,note_off,142,0,0,,2,,,74,127
67204,note_on,2,0,0,,6,,,66,127
67204,note_on,0,0,0,,4,,,76,127
67346,note_off,142,0,0,,4,,,76,127
67348,note_on,2,0,0,,2,,,74,127
67490,note_off,142,0,0,,6,,,66,127
67492,note_on,2,0,0,,6,,,66,127
67540,note_on,48,0,0,,0,,,72,127
67558,note_off,18,0,0,,2,,,74,127
67586,note_off,28,0,0,,0,,,72,127
67588,note_on,2,0,0,,2,,,74,127
67634,note_off,46,0,0,,2,,,74,127
67636,note_on,2,0,0,,0,,,72,127
67682,note_off,46,0,0,,0,,,72,127
67684,note_on,2,0,0,,12,,,71,127
67730,note_off,46,0,0,,12,,,71,127
67732,note_on,2,0,0,,0,,,72,127
67778,note_off,46,0,0,,0,,,72,127
67778,note_off,0,0,0,,6,,,66,127
67780,note_on,2,0,0,,7,,,67,127
67780,note_on,0,0,0,,12,,,71,127
68066,note_off,286,0,0,,12,,,71,127
68068,note_on,2,0,0,,10,,,81,127
68210,note_off,142,0,0,,10,,,81,127
68212,note_off,2,0,0,,7,,,67,127
68212,note_on,0,0,0,,2,,,74,127
68354,note_off,142,0,0,,2,,,74,127
68356,note_on,2,0,0,,6,,,66,127
68356,note_on,0,0,0,,4,,,76,127
68498,note_off,142,0,0,,4,,,76,127
68500,note_on,2,0,0,,2,,,74,127
68642,note_off,142,0,0,,6,,,66,127
68644,note_on,2,0,0,,6,,,66,127
68692,note_on,48,0,0,,0,,,72,127
68710,note_off,18,0,0,,2,,,74,127
68738,note_off,28,0,0,,0,,,72,127
68740,note_on,2,0,0,,2,,,74,127
68786,note_off,46,0,0,,2,,,74,127
68788,note_on,2,0,0,,0,,,72,127
68834,note_off,46,0,0,,0,,,72,127
68836,note_on,2,0,0,,12,,,71,127
68882,note_off,46,0,0,,12,,,71,127
68884,note_on,2,0,0,,0,,,72,127
68930,note_off,46,0,0,,0,,,72,127
68930,note_off,0,0,0,,6,,,66,127
68932,note_on,2,0,0,,7,,,67,127
68932,note_on,0,0,0,,12,,,71,127
69218,note_off,286,0,0,,12,,,71,127
69218,note_off,0,0,0,,7,,,67,127
69220,note_on,2,0,0,,7,,,67,127
69220,note_on,0,0,0,,10,,,81,127
69220,note_on,0,0,0,,7,,,79,127
69290,note_off,70,0,0,,7,,,79,127
69290,note_off,0,0,0,,10,,,81,127
69292,note_on,2,0,0,,6,,,78,127
69362,note_off,70,0,0,,6,,,78,127
69364,note_on,2,0,0,,7,,,79,127
69506,note_off,142,0,0,,7,,,67,127
69508,note_on,2,0,0,,6,,,66,127
69794,note_off,286,0,0,,6,,,66,127
69794,note_off,0,0,0,,7,,,79,127
69796,note_on,2,0,0,,4,,,64,127
69796,note_on,0,0,0,,7,,,79,127
69796,note_on,0,0,0,,10,,,81,127
69866,note_off,70,0,0,,10,,,81,127
69866,note_off,0,0,0,,7,,,79,127
69868,note_on,2,0,0,,6,,,78,127
69938,note_off,70,0,0,,6,,,78,127
69940,note_on,2,0,0,,7,,,79,127
70082,note_off,142,0,0,,4,,,64,127
70084,note_on,2,0,0,,2,,,62,127
70226,note_off,142,0,0,,7,,,79,127
70228,note_on,2,0,0,,8,,,80,127
70370,note_off,142,0,0,,8,,,80,127
70370,note_off,0,0,0,,2,,,62,127
70372,note_on,2,0,0,,0,,,60,127
70372,note_on,0,0,0,,10,,,81,127
70372,note_on,0,0,0,,12,,,83,127
70442,note_off,70,0,0,,12,,,83,127
70442,note_off,0,0,0,,10,,,81,127
70444,note_on,2,0,0,,8,,,80,127
70514,note_off,70,0,0,,8,,,80,127
70516,note_on,2,0,0,,10,,,81,127
70658,note_off,142,0,0,,0,,,60,127
70660,note_on,2,0,0,,12,,,59,127
70946,note_off,286,0,0,,12,,,59,127
70946,note_off,0,0,0,,10,,,81,127
70948,note_on,2,0,0,,10,,,57,127
70948,note_on,0,0,0,,10,,,81,127
70948,note_on,0,0,0,,12,,,83,127
71018,note_off,70,0,0,,12,,,83,127
71018,note_off,0,0,0,,10,,,81,127
71020,note_on,2,0,0,,8,,,80,127
71090,note_off,70,0,0,,8,,,80,127
71092,note_on,2,0,0,,10,,,81,127
71234,note_off,142,0,0,,10,,,57,127
71236,note_on,2,0,0,,7,,,55,127
71378,note_off,142,0,0,,10,,,81,127
71380,note_on,2,0,0,,12,,,83,127
71522,note_off,142,0,0,,12,,,83,127
71522,note_off,0,0,0,,7,,,55,127
71524,note_on,2,0,0,,6,,,54,127
71524,note_on,0,0,0,,0,,,84,127
71524,note_on,0,0,0,,2,,,86,127
71594,note_off,70,0,0,,2,,,86,127
71594,note_off,0,0,0,,0,,,84,127
71596,note_on,2,0,0,,12,,,83,127
71666,note_off,70,0,0,,12,,,83,127
71668,note_on,2,0,0,,0,,,84,127
71810,note_off,142,0,0,,6,,,54,127
71812,note_on,2,0,0,,4,,,52,127
72098,note_off,286,0,0,,4,,,52,127
72098,note_off,0,0,0,,0,,,84,127
72100,note_on,2,0,0,,2,,,50,127
72100,note_on,0,0,0,,2,,,86,127
72100,note_on,0,0,0,,0,,,84,127
72170,note_off,70,0,0,,0,,,84,127
72170,note_off,0,0,0,,2,,,86,127
72172,note_on,2,0,0,,12,,,83,127
72242,note_off,70,0,0,,12,,,83,127
72244,note_on,2,0,0,,0,,,84,127
72386,note_off,142,0,0,,2,,,50,127
72388,note_on,2,0,0,,0,,,48,127
72530,note_off,142,0,0,,0,,,84,127
72532,note_on,2,0,0,,1,,,85,127
72674,note_off,142,0,0,,1,,,85,127
72674,note_off,0,0,0,,0,,,48,127
72676,note_on,2,0,0,,12,,,47,127
72676,note_on,0,0,0,,2,,,86,127
72818,note_off,142,0,0,,2,,,86,127
72820,note_on,2,0,0,,12,,,83,127
72962,note_off,142,0,0,,12,,,83,127
72964,note_on,2,0,0,,7,,,79,127
73106,note_off,142,0,0,,7,,,79,127
73108,note_on,2,0,0,,2,,,74,127
73250,note_off,142,0,0,,2,,,74,127
73252,note_on,2,0,0,,12,,,71,127
73394,note_off,142,0,0,,12,,,71,127
73396,note_on,2,0,0,,7,,,67,127
73538,note_off,142,0,0,,7,,,67,127
73538,note_off,0,0,0,,12,,,47,127
73540,note_on,2,0,0,,12,,,71,127
73682,note_off,142,0,0,,12,,,71,127
73684,note_on,2,0,0,,2,,,74,127
73826,note_off,142,0,0,,2,,,74,127
73828,note_on,2,0,0,,7,,,55,127
73828,note_on,0,0,0,,10,,,69,127
73828,note_on,0,0,0,,7,,,67,127
73898,note_off,70,0,0,,7,,,67,127
73898,note_off,0,0,0,,10,,,69,127
73900,note_on,2,0,0,,6,,,66,127
73970,note_off,70,0,0,,6,,,66,127
73972,note_on,2,0,0,,7,,,67,127
74114,note_off,142,0,0,,7,,,55,127
74116,note_on,2,0,0,,6,,,54,127
74402,note_off,286,0,0,,6,,,54,127
74402,note_off,0,0,0,,7,,,67,127
74404,note_on,2,0,0,,4,,,52,127
74404,note_on,0,0,0,,10,,,69,127
74404,note_on,0,0,0,,7,,,67,127
74474,note_off,70,0,0,,7,,,67,127
74474,note_off,0,0,0,,10,,,69,127
74476,note_on,2,0,0,,6,,,66,127
74546,note_off,70,0,0,,6,,,66,127
74548,note_on,2,0,0,,7,,,67,127
74690,note_off,142,0,0,,4,,,52,127
74692,note_on,2,0,0,,2,,,50,127
74834,note_off,142,0,0,,7,,,67,127
74836,note_on,2,0,0,,8,,,68,127
74978,note_off,142,0,0,,8,,,68,127
74978,note_off,0,0,0,,2,,,50,127
74980,note_on,2,0,0,,0,,,60,127
74980,note_on,0,0,0,,12,,,71,127
74980,note_on,0,0,0,,10,,,69,127
75050,note_off,70,0,0,,10,,,69,127
75050,note_off,0,0,0,,12,,,71,127
75052,note_on,2,0,0,,8,,,68,127
75122,note_off,70,0,0,,8,,,68,127
75124,note_on,2,0,0,,10,,,69,127
75266,note_off,142,0,0,,0,,,60,127
75268,note_on,2,0,0,,12,,,59,127
75554,note_off,286,0,0,,12,,,59,127
75554,note_off,0,0,0,,10,,,69,127
75556,note_on,2,0,0,,10,,,57,127
75556,note_on,0,0,0,,12,,,71,127
75556,note_on,0,0,0,,10,,,69,127
75626,note_off,70,0,0,,10,,,69,127
75626,note_off,0,0,0,,12,,,71,127
75628,note_on,2,0,0,,8,,,68,127
75698,note_off,70,0,0,,8,,,68,127
75700,note_on,2,0,0,,10,,,69,127
75842,note_off,142,0,0,,10,,,57,127
75844,note_on,2,0,0,,7,,,55,127
75986,note_off,142,0,0,,10,,,69,127
75988,note_on,2,0,0,,12,,,71,127
76130,note_off,142,0,0,,12,,,71,127
76130,note_off,0,0,0,,7,,,55,127
76132,note_on,2,0,0,,6,,,54,127
76132,note_on,0,0,0,,2,,,74,127
76132,note_on,0,0,0,,0,,,72,127
76202,note_off,70,0,0,,0,,,72,127
76202,note_off,0,0,0,,2,,,74,127
76204,note_on,2,0,0,,12,,,71,127
76274,note_off,70,0,0,,12,,,71,127
76276,note_on,2,0,0,,0,,,72,127
76418,note_off,142,0,0,,6,,,54,127
76420,note_on,2,0,0,,4,,,52,127
76706,note_off,286,0,0,,4,,,52,127
76706,note_off,0,0,0,,0,,,72,127
76708,note_on,2,0,0,,2,,,50,127
76708,note_on,0,0,0,,0,,,72,127
76708,note_on,0,0,0,,2,,,74,127
76778,note_off,70,0,0,,2,,,74,127
76778,note_off,0,0,0,,0,,,72,127
76780,note_on,2,0,0,,12,,,71,127
76850,note_off,70,0,0,,12,,,71,127
76852,note_on,2,0,0,,0,,,72,127
76994,note_off,142,0,0,,2,,,50,127
76996,note_on,2,0,0,,0,,,48,127
77138,note_off,142,0,0,,0,,,72,127
77140,note_on,2,0,0,,6,,,78,127
77282,note_off,142,0,0,,6,,,78,127
77282,note_off,0,0,0,,0,,,48,127
77284,note_on,2,0,0,,12,,,47,127
77284,note_on,0,0,0,,7,,,79,127
77426,note_off,142,0,0,,7,,,79,127
77428,note_on,2,0,0,,2,,,74,127
77570,note_off,142,0,0,,2,,,74,127
77572,note_on,2,0,0,,12,,,71,127
77714,note_off,142,0,0,,12,,,71,127
77716,note_on,2,0,0,,0,,,72,127
77858,note_off,142,0,0,,0,,,72,127
77858,note_off,0,0,0,,12,,,47,127
77860,note_on,2,0,0,,12,,,59,127
77860,note_on,0,0,0,,2,,,74,127
78002,note_off,142,0,0,,2,,,74,127
78004,note_on,2,0,0,,0,,,72,127
78146,note_off,142,0,0,,0,,,72,127
78148,note_on,2,0,0,,12,,,71,127
78290,note_off,142,0,0,,12,,,71,127
78292,note_on,2,0,0,,10,,,69,127
78434,note_off,142,0,0,,10,,,69,127
78434,note_off,0,0,0,,12,,,59,127
78436,note_on,2,0,0,,0,,,60,127
78436,note_on,0,0,0,,3,,,75,127
78578,note_off,142,0,0,,3,,,75,127
78580,note_on,2,0,0,,4,,,76,127
78722,note_off,142,0,0,,4,,,76,127
78724,note_on,2,0,0,,0,,,72,127
78724,note_on,0,0,0,,2,,,74,127
78866,note_off,142,0,0,,2,,,74,127
78866,note_off,0,0,0,,0,,,72,127
78868,note_on,2,0,0,,12,,,71,127
79010,note_off,142,0,0,,12,,,71,127
79012,note_on,2,0,0,,0,,,48,127
79012,note_on,0,0,0,,10,,,69,127
79154,note_off,142,0,0,,10,,,69,127
79156,note_on,2,0,0,,7,,,67,127
79298,note_off,142,0,0,,7,,,67,127
79300,note_on,2,0,0,,6,,,66,127
79442,note_off,142,0,0,,6,,,66,127
79444,note_on,2,0,0,,7,,,67,127
79586,note_off,142,0,0,,7,,,67,127
79586,note_off,0,0,0,,0,,,48,127
79586,note_off,0,0,0,,0,,,60,127
79588,note_on,2,0,0,,2,,,50,127
79588,note_on,0,0,0,,2,,,62,127
79972,note_off,384,0,0,,2,,,62,127
79972,note_on,0,0,0,,4,,,64,127
80020,note_on,48,0,0,,6,,,66,127
80026,note_off,6,0,0,,4,,,64,127
80068,note_on,42,0,0,,7,,,67,127
80074,note_off,6,0,0,,6,,,66,127
80116,note_on,42,0,0,,10,,,69,127
80122,note_off,6,0,0,,7,,,67,127
80162,note_off,40,0,0,,2,,,50,127
80164,note_on,2,0,0,,0,,,48,127
80164,note_on,0,0,0,,12,,,71,127
80170,note_off,6,0,0,,10,,,69,127
80210,note_off,40,0,0,,12,,,71,127
80212,note_on,2,0,0,,10,,,69,127
80258,note_off,46,0,0,,10,,,69,127
80260,note_on,2,0,0,,12,,,71,127
80306,note_off,46,0,0,,12,,,71,127
80308,note_on,2,0,0,,10,,,69,127
80354,note_off,46,0,0,,10,,,69,127
80356,note_on,2,0,0,,12,,,71,127
80402,note_off,46,0,0,,12,,,71,127
80404,note_on,2,0,0,,10,,,69,127
80450,note_off,46,0,0,,10,,,69,127
80452,note_on,2,0,0,,12,,,71,127
80498,note_off,46,0,0,,12,,,71,127
80500,note_on,2,0,0,,10,,,69,127
80594,note_off,94,0,0,,10,,,69,127
80596,note_on,2,0,0,,7,,,67,127
80738,note_off,142,0,0,,0,,,48,127
80764,note_on,26,0,0,,7,,,79,127
80764,note_on,0,0,0,,12,,,47,127
80851,note_off,87,0,0,,7,,,67,127
80907,note_off,56,0,0,,7,,,79,127
80909,note_on,2,0,0,,2,,,74,127
81051,note_off,142,0,0,,2,,,74,127
81053,note_on,2,0,0,,12,,,71,127
81195,note_off,142,0,0,,12,,,71,127
81197,note_on,2,0,0,,0,,,72,127
81339,note_off,142,0,0,,0,,,72,127
81339,note_off,0,0,0,,12,,,47,127
81341,note_on,2,0,0,,2,,,74,127
81341,note_on,0,0,0,,12,,,59,127
81483,note_off,142,0,0,,2,,,74,127
81485,note_on,2,0,0,,0,,,72,127
81627,note_off,142,0,0,,0,,,72,127
81629,note_on,2,0,0,,12,,,71,127
81771,note_off,142,0,0,,12,,,71,127
81773,note_on,2,0,0,,10,,,69,127
81915,note_off,142,0,0,,10,,,69,127
81915,note_off,0,0,0,,12,,,59,127
81917,note_on,2,0,0,,3,,,75,127
81917,note_on,0,0,0,,0,,,60,127
82059,note_off,142,0,0,,3,,,75,127
82061,note_on,2,0,0,,4,,,76,127
82203,note_off,142,0,0,,4,,,76,127
82205,note_on,2,0,0,,2,,,74,127
82205,note_on,0,0,0,,0,,,72,127
82347,note_off,142,0,0,,0,,,72,127
82347,note_off,0,0,0,,2,,,74,127
82349,note_on,2,0,0,,12,,,71,127
82491,note_off,142,0,0,,12,,,71,127
82493,note_on,2,0,0,,10,,,69,127
82493,note_on,0,0,0,,0,,,48,127
82635,note_off,142,0,0,,10,,,69,127
82637,note_on,2,0,0,,7,,,67,127
82779,note_off,142,0,0,,7,,,67,127
82781,note_on,2,0,0,,6,,,66,127
82923,note_off,142,0,0,,6,,,66,127
82925,note_on,2,0,0,,7,,,67,127
83067,note_off,142,0,0,,7,,,67,127
83067,note_off,0,0,0,,0,,,48,127
83067,note_off,0,0,0,,0,,,60,127
83069,note_on,2,0,0,,2,,,62,127
83069,note_on,0,0,0,,2,,,50,127
83643,note_off,574,0,0,,2,,,62,127
83645,note_on,2,0,0,,12,,,71,127
83645,note_on,0,0,0,,2,,,38,127
83691,note_off,46,0,0,,12,,,71,127
83693,note_on,2,0,0,,10,,,69,127
83739,note_off,46,0,0,,10,,,69,127
83741,note_on,2,0,0,,12,,,71,127
83787,note_off,46,0,0,,12,,,71,127
83789,note_on,2,0,0,,10,,,69,127
83835,note_off,46,0,0,,10,,,69,127
83837,note_on,2,0,0,,12,,,71,127
83883,note_off,46,0,0,,12,,,71,127
83885,note_on,2,0,0,,10,,,69,127
83931,note_off,46,0,0,,10,,,69,127
83933,note_on,2,0,0,,12,,,71,127
83979,note_off,46,0,0,,12,,,71,127
83981,note_on,2,0,0,,10,,,69,127
84027,note_off,46,0,0,,10,,,69,127
84029,note_on,2,0,0,,12,,,71,127
84075,note_off,46,0,0,,12,,,71,127
84077,note_on,2,0,0,,10,,,69,127
84123,note_off,46,0,0,,10,,,69,127
84125,note_on,2,0,0,,7,,,67,127
84171,note_off,46,0,0,,7,,,67,127
84173,note_on,2,0,0,,10,,,69,127
84219,note_off,46,0,0,,10,,,69,127
84219,note_off,0,0,0,,2,,,38,127
84219,note_off,0,0,0,,2,,,50,127
84221,note_on,2,0,0,,7,,,67,127
84221,note_on,0,0,0,,7,,,43,127
86519,note_off,2298,0,0,,7,,,43,127
86519,note_off,0,0,0,,7,,,67,127
89088,end_of_track,2569,1,0,,,,,,
