tick,type,time,meta,track,program,channel,pitch,tempo,note,velocity
0,copyright,0,1,0,,,,,,
0,program_change,0,0,0,6,0,,,,
0,pitchwheel,0,0,0,,0,0,,,
0,program_change,0,0,0,6,1,,,,
0,pitchwheel,0,0,0,,1,-590,,,
0,program_change,0,0,0,6,2,,,,
0,pitchwheel,0,0,0,,2,-272,,,
0,program_change,0,0,0,6,3,,,,
0,pitchwheel,0,0,0,,3,-353,,,
0,program_change,0,0,0,6,4,,,,
0,pitchwheel,0,0,0,,4,-560,,,
0,program_change,0,0,0,6,5,,,,
0,pitchwheel,0,0,0,,5,-80,,,
0,program_change,0,0,0,6,6,,,,
0,pitchwheel,0,0,0,,6,-625,,,
0,program_change,0,0,0,6,7,,,,
0,pitchwheel,0,0,0,,7,-130,,,
0,program_change,0,0,0,6,8,,,,
0,pitchwheel,0,0,0,,8,-512,,,
0,program_change,0,0,0,6,10,,,,
0,pitchwheel,0,0,0,,10,-464,,,
0,program_change,0,0,0,6,11,,,,
0,pitchwheel,0,0,0,,11,-208,,,
0,program_change,0,0,0,6,12,,,,
0,pitchwheel,0,0,0,,12,-553,,,
0,set_tempo,0,1,0,,,,500000,,
38,note_on,38,0,0,,12,,,83,127
267,note_off,229,0,0,,12,,,83,127
268,note_on,1,0,0,,10,,,81,127
382,note_off,114,0,0,,10,,,81,127
383,note_on,1,0,0,,7,,,79,127
497,note_off,114,0,0,,7,,,79,127
498,note_on,1,0,0,,7,,,79,127
612,note_off,114,0,0,,7,,,79,127
613,note_on,1,0,0,,6,,,78,127
727,note_off,114,0,0,,6,,,78,127
728,note_on,1,0,0,,4,,,76,127
842,note_off,114,0,0,,4,,,76,127
843,note_on,1,0,0,,6,,,78,127
957,note_off,114,0,0,,6,,,78,127
958,note_on,1,0,0,,7,,,79,127
1187,note_off,229,0,0,,7,,,79,127
1188,note_on,1,0,0,,6,,,78,127
1302,note_off,114,0,0,,6,,,78,127
1303,note_on,1,0,0,,4,,,76,127
1417,note_off,114,0,0,,4,,,76,127
1418,note_on,1,0,0,,4,,,76,127
1532,note_off,114,0,0,,4,,,76,127
1533,note_on,1,0,0,,2,,,74,127
1647,note_off,114,0,0,,2,,,74,127
1648,note_on,1,0,0,,1,,,73,127
1762,note_off,114,0,0,,1,,,73,127
1763,note_on,1,0,0,,2,,,74,127
1877,note_off,114,0,0,,2,,,74,127
1878,note_on,1,0,0,,4,,,76,127
2107,note_off,229,0,0,,4,,,76,127
2108,note_on,1,0,0,,2,,,74,127
2222,note_off,114,0,0,,2,,,74,127
2223,note_on,1,0,0,,1,,,73,127
2337,note_off,114,0,0,,1,,,73,127
2338,note_on,1,0,0,,12,,,71,127
2567,note_off,229,0,0,,12,,,71,127
2568,note_on,1,0,0,,10,,,69,127
2682,note_off,114,0,0,,10,,,69,127
2683,note_on,1,0,0,,7,,,67,127
2797,note_off,114,0,0,,7,,,67,127
2798,note_on,1,0,0,,7,,,67,127
2912,note_off,114,0,0,,7,,,67,127
2913,note_on,1,0,0,,6,,,66,127
3027,note_off,114,0,0,,6,,,66,127
3028,note_on,1,0,0,,4,,,64,127
3142,note_off,114,0,0,,4,,,64,127
3143,note_on,1,0,0,,2,,,62,127
3257,note_off,114,0,0,,2,,,62,127
3258,note_on,1,0,0,,1,,,61,127
3487,note_off,229,0,0,,1,,,61,127
3488,note_on,1,0,0,,12,,,59,127
3602,note_off,114,0,0,,12,,,59,127
3603,note_on,1,0,0,,1,,,61,127
3717,note_off,114,0,0,,1,,,61,127
3718,note_on,1,0,0,,4,,,64,127
3718,note_on,0,0,0,,12,,,71,127
3832,note_off,114,0,0,,4,,,64,127
3833,note_on,1,0,0,,2,,,62,127
3947,note_off,114,0,0,,2,,,62,127
3948,note_on,1,0,0,,1,,,61,127
4062,note_off,114,0,0,,1,,,61,127
4063,note_on,1,0,0,,12,,,59,127
4177,note_off,114,0,0,,12,,,59,127
4177,note_off,0,0,0,,12,,,71,127
4178,note_on,1,0,0,,11,,,58,127
4178,note_on,0,0,0,,1,,,73,127
4407,note_off,229,0,0,,1,,,73,127
4407,note_off,0,0,0,,11,,,58,127
4408,note_on,1,0,0,,6,,,54,127
4408,note_on,0,0,0,,2,,,74,127
4522,note_off,114,0,0,,2,,,74,127
4523,note_on,1,0,0,,4,,,76,127
4637,note_off,114,0,0,,4,,,76,127
4637,note_off,0,0,0,,6,,,54,127
4638,note_on,1,0,0,,12,,,59,127
4638,note_on,0,0,0,,2,,,74,127
4867,note_off,229,0,0,,2,,,74,127
4867,note_off,0,0,0,,12,,,59,127
4868,note_on,1,0,0,,4,,,52,127
4868,note_on,0,0,0,,1,,,73,127
4982,note_off,114,0,0,,1,,,73,127
4983,note_on,1,0,0,,12,,,71,127
5097,note_off,114,0,0,,12,,,71,127
5097,note_off,0,0,0,,4,,,52,127
5098,note_on,1,0,0,,6,,,54,127
5098,note_on,0,0,0,,12,,,71,127
5327,note_off,229,0,0,,12,,,71,127
5328,note_on,1,0,0,,6,,,42,127
5328,note_on,0,0,0,,11,,,70,127
5443,note_off,115,0,0,,6,,,54,127
5557,note_off,114,0,0,,11,,,70,127
5557,note_off,0,0,0,,6,,,42,127
5558,note_on,1,0,0,,12,,,47,127
5558,note_on,0,0,0,,12,,,71,127
5787,note_off,229,0,0,,12,,,71,127
5788,note_on,1,0,0,,2,,,74,127
5902,note_off,114,0,0,,2,,,74,127
5903,note_on,1,0,0,,12,,,71,127
6017,note_off,114,0,0,,12,,,71,127
6017,note_off,0,0,0,,12,,,47,127
6018,note_on,1,0,0,,6,,,66,127
6247,note_off,229,0,0,,6,,,66,127
6248,note_on,1,0,0,,2,,,62,127
6248,note_on,0,0,0,,6,,,66,127
6477,note_off,229,0,0,,6,,,66,127
6477,note_off,0,0,0,,2,,,62,127
6478,note_on,1,0,0,,4,,,64,127
6478,note_on,0,0,0,,10,,,69,127
6536,note_on,58,0,0,,7,,,67,127
6555,note_off,19,0,0,,10,,,69,127
6593,note_on,38,0,0,,10,,,69,127
6612,note_off,19,0,0,,7,,,67,127
6650,note_on,38,0,0,,7,,,67,127
6669,note_off,19,0,0,,10,,,69,127
6706,note_off,37,0,0,,4,,,64,127
6707,note_on,1,0,0,,1,,,61,127
6707,note_on,0,0,0,,10,,,69,127
6726,note_off,19,0,0,,7,,,67,127
6764,note_on,38,0,0,,7,,,67,127
6783,note_off,19,0,0,,10,,,69,127
6821,note_on,38,0,0,,6,,,66,127
6840,note_off,19,0,0,,7,,,67,127
6878,note_on,38,0,0,,7,,,67,127
6897,note_off,19,0,0,,6,,,66,127
6934,note_off,37,0,0,,1,,,61,127
6935,note_off,1,0,0,,7,,,67,127
6935,note_on,0,0,0,,2,,,62,127
6935,note_on,0,0,0,,6,,,66,127
7164,note_off,229,0,0,,6,,,66,127
7165,note_on,1,0,0,,12,,,71,127
7279,note_off,114,0,0,,12,,,71,127
7280,note_on,1,0,0,,6,,,66,127
7394,note_off,114,0,0,,6,,,66,127
7394,note_off,0,0,0,,2,,,62,127
7395,note_on,1,0,0,,2,,,62,127
7624,note_off,229,0,0,,2,,,62,127
7625,note_on,1,0,0,,12,,,59,127
7625,note_on,0,0,0,,2,,,62,127
7854,note_off,229,0,0,,2,,,62,127
7854,note_off,0,0,0,,12,,,59,127
7855,note_on,1,0,0,,1,,,61,127
7855,note_on,0,0,0,,6,,,66,127
7913,note_on,58,0,0,,4,,,64,127
7932,note_off,19,0,0,,6,,,66,127
7970,note_on,38,0,0,,6,,,66,127
7989,note_off,19,0,0,,4,,,64,127
8027,note_on,38,0,0,,4,,,64,127
8046,note_off,19,0,0,,6,,,66,127
8083,note_off,37,0,0,,1,,,61,127
8084,note_on,1,0,0,,6,,,54,127
8084,note_on,0,0,0,,6,,,66,127
8103,note_off,19,0,0,,4,,,64,127
8141,note_on,38,0,0,,4,,,64,127
8160,note_off,19,0,0,,6,,,66,127
8198,note_on,38,0,0,,2,,,62,127
8217,note_off,19,0,0,,4,,,64,127
8255,note_on,38,0,0,,4,,,64,127
8274,note_off,19,0,0,,2,,,62,127
8311,note_off,37,0,0,,6,,,54,127
8312,note_off,1,0,0,,4,,,64,127
8312,note_on,0,0,0,,12,,,59,127
8312,note_on,0,0,0,,2,,,62,127
8541,note_off,229,0,0,,2,,,62,127
8542,note_on,1,0,0,,6,,,78,127
8656,note_off,114,0,0,,6,,,78,127
8657,note_on,1,0,0,,2,,,74,127
8771,note_off,114,0,0,,2,,,74,127
8771,note_off,0,0,0,,12,,,59,127
8772,note_on,1,0,0,,12,,,71,127
9001,note_off,229,0,0,,12,,,71,127
9002,note_on,1,0,0,,12,,,59,127
9002,note_on,0,0,0,,12,,,71,127
9231,note_off,229,0,0,,12,,,71,127
9231,note_off,0,0,0,,12,,,59,127
9232,note_on,1,0,0,,10,,,57,127
9232,note_on,0,0,0,,2,,,74,127
9290,note_on,58,0,0,,1,,,73,127
9309,note_off,19,0,0,,2,,,74,127
9347,note_on,38,0,0,,2,,,74,127
9366,note_off,19,0,0,,1,,,73,127
9404,note_on,38,0,0,,1,,,73,127
9423,note_off,19,0,0,,2,,,74,127
9460,note_off,37,0,0,,10,,,57,127
9461,note_on,1,0,0,,7,,,55,127
9461,note_on,0,0,0,,2,,,74,127
9480,note_off,19,0,0,,1,,,73,127
9518,note_on,38,0,0,,1,,,73,127
9537,note_off,19,0,0,,2,,,74,127
9575,note_on,38,0,0,,12,,,71,127
9594,note_off,19,0,0,,1,,,73,127
9632,note_on,38,0,0,,1,,,73,127
9651,note_off,19,0,0,,12,,,71,127
9688,note_off,37,0,0,,7,,,55,127
9689,note_off,1,0,0,,1,,,73,127
9689,note_on,0,0,0,,6,,,54,127
9689,note_on,0,0,0,,2,,,74,127
9918,note_off,229,0,0,,2,,,74,127
9919,note_on,1,0,0,,10,,,81,127
10033,note_off,114,0,0,,10,,,81,127
10034,note_on,1,0,0,,6,,,78,127
10148,note_off,114,0,0,,6,,,78,127
10148,note_off,0,0,0,,6,,,54,127
10149,note_on,1,0,0,,2,,,74,127
10378,note_off,229,0,0,,2,,,74,127
10379,note_on,1,0,0,,2,,,62,127
10379,note_on,0,0,0,,2,,,74,127
10608,note_off,229,0,0,,2,,,74,127
10608,note_off,0,0,0,,2,,,62,127
10609,note_on,1,0,0,,1,,,61,127
10609,note_on,0,0,0,,6,,,78,127
10667,note_on,58,0,0,,4,,,76,127
10686,note_off,19,0,0,,6,,,78,127
10724,note_on,38,0,0,,6,,,78,127
10743,note_off,19,0,0,,4,,,76,127
10781,note_on,38,0,0,,4,,,76,127
10800,note_off,19,0,0,,6,,,78,127
10837,note_off,37,0,0,,1,,,61,127
10838,note_on,1,0,0,,10,,,57,127
10838,note_on,0,0,0,,6,,,78,127
10857,note_off,19,0,0,,4,,,76,127
10895,note_on,38,0,0,,4,,,76,127
10914,note_off,19,0,0,,6,,,78,127
10952,note_on,38,0,0,,2,,,74,127
10971,note_off,19,0,0,,4,,,76,127
11009,note_on,38,0,0,,4,,,76,127
11028,note_off,19,0,0,,2,,,74,127
11065,note_off,37,0,0,,10,,,57,127
11066,note_off,1,0,0,,4,,,76,127
11066,note_on,0,0,0,,2,,,62,127
11066,note_on,0,0,0,,6,,,78,127
11295,note_off,229,0,0,,6,,,78,127
11296,note_on,1,0,0,,2,,,86,127
11410,note_off,114,0,0,,2,,,86,127
11411,note_on,1,0,0,,10,,,81,127
11525,note_off,114,0,0,,10,,,81,127
11525,note_off,0,0,0,,2,,,62,127
11526,note_on,1,0,0,,6,,,78,127
11755,note_off,229,0,0,,6,,,78,127
11756,note_on,1,0,0,,1,,,61,127
11756,note_on,0,0,0,,6,,,78,127
11985,note_off,229,0,0,,6,,,78,127
11985,note_off,0,0,0,,1,,,61,127
11986,note_on,1,0,0,,12,,,59,127
11986,note_on,0,0,0,,10,,,81,127
12044,note_on,58,0,0,,8,,,80,127
12063,note_off,19,0,0,,10,,,81,127
12101,note_on,38,0,0,,10,,,81,127
12120,note_off,19,0,0,,8,,,80,127
12158,note_on,38,0,0,,8,,,80,127
12177,note_off,19,0,0,,10,,,81,127
12214,note_off,37,0,0,,12,,,59,127
12215,note_on,1,0,0,,2,,,62,127
12215,note_on,0,0,0,,10,,,81,127
12234,note_off,19,0,0,,8,,,80,127
12272,note_on,38,0,0,,8,,,80,127
12291,note_off,19,0,0,,10,,,81,127
12329,note_on,38,0,0,,6,,,78,127
12348,note_off,19,0,0,,8,,,80,127
12386,note_on,38,0,0,,8,,,80,127
12405,note_off,19,0,0,,6,,,78,127
12442,note_off,37,0,0,,2,,,62,127
12443,note_off,1,0,0,,8,,,80,127
12443,note_on,0,0,0,,1,,,61,127
12443,note_on,0,0,0,,10,,,81,127
12672,note_off,229,0,0,,10,,,81,127
12673,note_on,1,0,0,,7,,,79,127
12787,note_off,114,0,0,,7,,,79,127
12788,note_on,1,0,0,,6,,,78,127
12902,note_off,114,0,0,,6,,,78,127
12902,note_off,0,0,0,,1,,,61,127
12903,note_on,1,0,0,,4,,,76,127
13132,note_off,229,0,0,,4,,,76,127
13133,note_on,1,0,0,,1,,,61,127
13133,note_on,0,0,0,,6,,,78,127
13247,note_off,114,0,0,,6,,,78,127
13248,note_on,1,0,0,,7,,,79,127
13362,note_off,114,0,0,,7,,,79,127
13362,note_off,0,0,0,,1,,,61,127
13363,note_on,1,0,0,,2,,,62,127
13363,note_on,0,0,0,,7,,,79,127
13477,note_off,114,0,0,,7,,,79,127
13478,note_on,1,0,0,,6,,,78,127
13592,note_off,114,0,0,,6,,,78,127
13592,note_off,0,0,0,,2,,,62,127
13593,note_on,1,0,0,,2,,,50,127
13593,note_on,0,0,0,,4,,,76,127
13707,note_off,114,0,0,,4,,,76,127
13708,note_on,1,0,0,,2,,,74,127
13822,note_off,114,0,0,,2,,,74,127
13822,note_off,0,0,0,,2,,,50,127
13823,note_on,1,0,0,,10,,,57,127
13823,note_on,0,0,0,,4,,,76,127
14052,note_off,229,0,0,,10,,,57,127
14053,note_on,1,0,0,,10,,,69,127
14167,note_off,114,0,0,,10,,,69,127
14168,note_on,1,0,0,,10,,,57,127
14282,note_off,114,0,0,,10,,,57,127
14282,note_off,0,0,0,,4,,,76,127
14283,note_on,1,0,0,,10,,,69,127
14512,note_off,229,0,0,,10,,,69,127
14513,note_on,1,0,0,,7,,,67,127
14513,note_on,0,0,0,,1,,,73,127
14742,note_off,229,0,0,,1,,,73,127
14742,note_off,0,0,0,,7,,,67,127
14743,note_on,1,0,0,,7,,,67,127
14743,note_on,0,0,0,,2,,,74,127
14857,note_off,114,0,0,,7,,,67,127
14858,note_on,1,0,0,,6,,,66,127
14972,note_off,114,0,0,,6,,,66,127
14972,note_off,0,0,0,,2,,,74,127
14973,note_on,1,0,0,,4,,,64,127
14973,note_on,0,0,0,,4,,,76,127
15087,note_off,114,0,0,,4,,,76,127
15087,note_off,0,0,0,,4,,,64,127
15088,note_on,1,0,0,,2,,,62,127
15088,note_on,0,0,0,,6,,,78,127
15202,note_off,114,0,0,,6,,,78,127
15202,note_off,0,0,0,,2,,,62,127
15203,note_on,1,0,0,,10,,,45,127
15203,note_on,0,0,0,,4,,,76,127
15432,note_off,229,0,0,,10,,,45,127
15433,note_on,1,0,0,,10,,,57,127
15547,note_off,114,0,0,,10,,,57,127
15548,note_on,1,0,0,,10,,,45,127
15662,note_off,114,0,0,,10,,,45,127
15662,note_off,0,0,0,,4,,,76,127
15663,note_on,1,0,0,,10,,,57,127
15892,note_off,229,0,0,,10,,,57,127
15893,note_on,1,0,0,,7,,,55,127
15893,note_on,0,0,0,,1,,,73,127
16122,note_off,229,0,0,,1,,,73,127
16122,note_off,0,0,0,,7,,,55,127
16123,note_on,1,0,0,,7,,,55,127
16123,note_on,0,0,0,,2,,,74,127
16237,note_off,114,0,0,,7,,,55,127
16238,note_on,1,0,0,,6,,,54,127
16352,note_off,114,0,0,,6,,,54,127
16352,note_off,0,0,0,,2,,,74,127
16353,note_on,1,0,0,,4,,,52,127
16353,note_on,0,0,0,,4,,,76,127
16467,note_off,114,0,0,,4,,,76,127
16467,note_off,0,0,0,,4,,,52,127
16468,note_on,1,0,0,,2,,,50,127
16468,note_on,0,0,0,,6,,,78,127
16582,note_off,114,0,0,,6,,,78,127
16582,note_off,0,0,0,,2,,,50,127
16583,note_on,1,0,0,,10,,,45,127
16583,note_on,0,0,0,,4,,,76,127
16812,note_off,229,0,0,,4,,,76,127
16813,note_on,1,0,0,,10,,,81,127
16927,note_off,114,0,0,,10,,,81,127
16928,note_on,1,0,0,,4,,,76,127
17042,note_off,114,0,0,,4,,,76,127
17042,note_off,0,0,0,,10,,,45,127
17043,note_on,1,0,0,,10,,,57,127
17043,note_on,0,0,0,,1,,,73,127
17272,note_off,229,0,0,,1,,,73,127
17273,note_on,1,0,0,,1,,,73,127
17502,note_off,229,0,0,,1,,,73,127
17502,note_off,0,0,0,,10,,,57,127
17503,note_on,1,0,0,,7,,,55,127
17503,note_on,0,0,0,,1,,,73,127
17732,note_off,229,0,0,,1,,,73,127
17733,note_on,1,0,0,,2,,,74,127
17847,note_off,114,0,0,,2,,,74,127
17848,note_on,1,0,0,,4,,,76,127
17962,note_off,114,0,0,,4,,,76,127
17962,note_off,0,0,0,,7,,,55,127
17963,note_on,1,0,0,,6,,,54,127
17963,note_on,0,0,0,,10,,,69,127
18192,note_off,229,0,0,,10,,,69,127
18193,note_on,1,0,0,,6,,,78,127
18307,note_off,114,0,0,,6,,,78,127
18308,note_on,1,0,0,,2,,,74,127
18422,note_off,114,0,0,,2,,,74,127
18422,note_off,0,0,0,,6,,,54,127
18423,note_on,1,0,0,,10,,,69,127
18652,note_off,229,0,0,,10,,,69,127
18653,note_on,1,0,0,,2,,,50,127
18653,note_on,0,0,0,,10,,,69,127
18882,note_off,229,0,0,,2,,,50,127
18883,note_on,1,0,0,,4,,,52,127
18941,note_on,58,0,0,,7,,,67,127
18965,note_off,24,0,0,,10,,,69,127
18999,note_on,34,0,0,,10,,,69,127
19018,note_off,19,0,0,,7,,,67,127
19056,note_on,38,0,0,,7,,,67,127
19075,note_off,19,0,0,,10,,,69,127
19112,note_off,37,0,0,,4,,,52,127
19113,note_on,1,0,0,,10,,,45,127
19113,note_on,0,0,0,,10,,,69,127
19132,note_off,19,0,0,,7,,,67,127
19170,note_on,38,0,0,,7,,,67,127
19189,note_off,19,0,0,,10,,,69,127
19227,note_on,38,0,0,,6,,,66,127
19246,note_off,19,0,0,,7,,,67,127
19284,note_on,38,0,0,,7,,,67,127
19303,note_off,19,0,0,,6,,,66,127
19340,note_off,37,0,0,,10,,,45,127
19341,note_off,1,0,0,,7,,,67,127
19341,note_on,0,0,0,,2,,,50,127
19341,note_on,0,0,0,,6,,,66,127
19570,note_off,229,0,0,,6,,,66,127
19571,note_on,1,0,0,,6,,,78,127
19685,note_off,114,0,0,,6,,,78,127
19686,note_on,1,0,0,,6,,,66,127
19800,note_off,114,0,0,,6,,,66,127
19800,note_off,0,0,0,,2,,,50,127
19801,note_on,1,0,0,,6,,,78,127
20030,note_off,229,0,0,,6,,,78,127
20031,note_on,1,0,0,,2,,,62,127
20031,note_on,0,0,0,,6,,,66,127
20260,note_off,229,0,0,,6,,,66,127
20260,note_off,0,0,0,,2,,,62,127
20261,note_on,1,0,0,,1,,,61,127
20261,note_on,0,0,0,,6,,,78,127
20375,note_off,114,0,0,,6,,,78,127
20376,note_on,1,0,0,,4,,,76,127
20490,note_off,114,0,0,,4,,,76,127
20490,note_off,0,0,0,,1,,,61,127
20491,note_on,1,0,0,,10,,,57,127
20491,note_on,0,0,0,,2,,,74,127
20605,note_off,114,0,0,,2,,,74,127
20606,note_on,1,0,0,,1,,,73,127
20720,note_off,114,0,0,,1,,,73,127
20720,note_off,0,0,0,,10,,,57,127
20721,note_on,1,0,0,,12,,,59,127
20721,note_on,0,0,0,,2,,,74,127
20950,note_off,229,0,0,,2,,,74,127
20951,note_on,1,0,0,,2,,,86,127
21065,note_off,114,0,0,,2,,,86,127
21066,note_on,1,0,0,,2,,,74,127
21180,note_off,114,0,0,,2,,,74,127
21180,note_off,0,0,0,,12,,,59,127
21181,note_on,1,0,0,,2,,,86,127
21410,note_off,229,0,0,,2,,,86,127
21411,note_on,1,0,0,,12,,,59,127
21411,note_on,0,0,0,,2,,,74,127
21640,note_off,229,0,0,,2,,,74,127
21640,note_off,0,0,0,,12,,,59,127
21641,note_on,1,0,0,,10,,,57,127
21641,note_on,0,0,0,,2,,,86,127
21755,note_off,114,0,0,,2,,,86,127
21756,note_on,1,0,0,,1,,,85,127
21870,note_off,114,0,0,,1,,,85,127
21870,note_off,0,0,0,,10,,,57,127
21871,note_on,1,0,0,,6,,,54,127
21871,note_on,0,0,0,,12,,,83,127
21985,note_off,114,0,0,,12,,,83,127
21986,note_on,1,0,0,,10,,,81,127
22100,note_off,114,0,0,,10,,,81,127
22100,note_off,0,0,0,,6,,,54,127
22101,note_on,1,0,0,,7,,,55,127
22101,note_on,0,0,0,,12,,,83,127
22330,note_off,229,0,0,,7,,,55,127
22331,note_on,1,0,0,,7,,,67,127
22445,note_off,114,0,0,,7,,,67,127
22446,note_on,1,0,0,,7,,,55,127
22560,note_off,114,0,0,,7,,,55,127
22560,note_off,0,0,0,,12,,,83,127
22561,note_on,1,0,0,,7,,,67,127
22790,note_off,229,0,0,,7,,,67,127
22791,note_on,1,0,0,,7,,,55,127
22791,note_on,0,0,0,,12,,,83,127
23020,note_off,229,0,0,,12,,,83,127
23020,note_off,0,0,0,,7,,,55,127
23021,note_on,1,0,0,,7,,,67,127
23021,note_on,0,0,0,,12,,,83,127
23135,note_off,114,0,0,,12,,,83,127
23135,note_off,0,0,0,,7,,,67,127
23136,note_on,1,0,0,,6,,,66,127
23136,note_on,0,0,0,,10,,,81,127
23250,note_off,114,0,0,,10,,,81,127
23250,note_off,0,0,0,,6,,,66,127
23251,note_on,1,0,0,,4,,,64,127
23251,note_on,0,0,0,,7,,,79,127
23365,note_off,114,0,0,,7,,,79,127
23365,note_off,0,0,0,,4,,,64,127
23366,note_on,1,0,0,,2,,,62,127
23366,note_on,0,0,0,,6,,,78,127
23480,note_off,114,0,0,,6,,,78,127
23480,note_off,0,0,0,,2,,,62,127
23481,note_on,1,0,0,,4,,,52,127
23481,note_on,0,0,0,,7,,,79,127
23710,note_off,229,0,0,,4,,,52,127
23711,note_on,1,0,0,,4,,,64,127
23825,note_off,114,0,0,,4,,,64,127
23826,note_on,1,0,0,,4,,,52,127
23940,note_off,114,0,0,,4,,,52,127
23940,note_off,0,0,0,,7,,,79,127
23941,note_on,1,0,0,,4,,,64,127
24170,note_off,229,0,0,,4,,,64,127
24171,note_on,1,0,0,,4,,,52,127
24171,note_on,0,0,0,,7,,,79,127
24400,note_off,229,0,0,,7,,,79,127
24400,note_off,0,0,0,,4,,,52,127
24401,note_on,1,0,0,,4,,,64,127
24401,note_on,0,0,0,,7,,,79,127
24515,note_off,114,0,0,,7,,,79,127
24515,note_off,0,0,0,,4,,,64,127
24516,note_on,1,0,0,,2,,,62,127
24516,note_on,0,0,0,,6,,,78,127
24630,note_off,114,0,0,,6,,,78,127
24630,note_off,0,0,0,,2,,,62,127
24631,note_on,1,0,0,,1,,,61,127
24631,note_on,0,0,0,,4,,,76,127
24745,note_off,114,0,0,,4,,,76,127
24745,note_off,0,0,0,,1,,,61,127
24746,note_on,1,0,0,,12,,,59,127
24746,note_on,0,0,0,,2,,,74,127
24860,note_off,114,0,0,,2,,,74,127
24860,note_off,0,0,0,,12,,,59,127
24861,note_on,1,0,0,,10,,,57,127
24861,note_on,0,0,0,,4,,,76,127
25090,note_off,229,0,0,,4,,,76,127
25091,note_on,1,0,0,,6,,,78,127
25205,note_off,114,0,0,,6,,,78,127
25206,note_on,1,0,0,,7,,,79,127
25320,note_off,114,0,0,,7,,,79,127
25320,note_off,0,0,0,,10,,,57,127
25321,note_on,1,0,0,,10,,,69,127
25321,note_on,0,0,0,,10,,,81,127
25435,note_off,114,0,0,,10,,,81,127
25436,note_on,1,0,0,,7,,,79,127
25550,note_off,114,0,0,,7,,,79,127
25551,note_on,1,0,0,,6,,,78,127
25665,note_off,114,0,0,,6,,,78,127
25666,note_on,1,0,0,,4,,,76,127
25780,note_off,114,0,0,,4,,,76,127
25780,note_off,0,0,0,,10,,,69,127
25781,note_on,1,0,0,,7,,,67,127
25781,note_on,0,0,0,,6,,,78,127
25895,note_off,114,0,0,,6,,,78,127
25896,note_on,1,0,0,,4,,,76,127
26010,note_off,114,0,0,,4,,,76,127
26011,note_on,1,0,0,,2,,,74,127
26125,note_off,114,0,0,,2,,,74,127
26126,note_on,1,0,0,,1,,,73,127
26240,note_off,114,0,0,,1,,,73,127
26240,note_off,0,0,0,,7,,,67,127
26241,note_on,1,0,0,,6,,,66,127
26241,note_on,0,0,0,,2,,,74,127
26241,note_on,0,0,0,,6,,,78,127
26470,note_off,229,0,0,,6,,,78,127
26471,note_on,1,0,0,,7,,,79,127
26585,note_off,114,0,0,,7,,,79,127
26586,note_on,1,0,0,,10,,,81,127
26700,note_off,114,0,0,,10,,,81,127
26700,note_off,0,0,0,,2,,,74,127
26700,note_off,0,0,0,,6,,,66,127
26701,note_on,1,0,0,,6,,,66,127
26701,note_on,0,0,0,,10,,,81,127
26930,note_off,229,0,0,,10,,,81,127
26931,note_on,1,0,0,,7,,,79,127
27045,note_off,114,0,0,,7,,,79,127
27046,note_on,1,0,0,,6,,,78,127
27160,note_off,114,0,0,,6,,,78,127
27160,note_off,0,0,0,,6,,,66,127
27161,note_on,1,0,0,,6,,,66,127
27161,note_on,0,0,0,,6,,,78,127
27390,note_off,229,0,0,,6,,,78,127
27391,note_on,1,0,0,,4,,,76,127
27505,note_off,114,0,0,,4,,,76,127
27506,note_on,1,0,0,,2,,,74,127
27620,note_off,114,0,0,,2,,,74,127
27620,note_off,0,0,0,,6,,,66,127
27621,note_on,1,0,0,,7,,,67,127
27621,note_on,0,0,0,,12,,,83,127
27850,note_off,229,0,0,,12,,,83,127
27851,note_on,1,0,0,,1,,,85,127
27965,note_off,114,0,0,,1,,,85,127
27966,note_on,1,0,0,,2,,,86,127
28080,note_off,114,0,0,,2,,,86,127
28080,note_off,0,0,0,,7,,,67,127
28081,note_on,1,0,0,,7,,,55,127
28081,note_on,0,0,0,,4,,,76,127
28310,note_off,229,0,0,,4,,,76,127
28311,note_on,1,0,0,,6,,,78,127
28425,note_off,114,0,0,,6,,,78,127
28426,note_on,1,0,0,,7,,,79,127
28540,note_off,114,0,0,,7,,,79,127
28540,note_off,0,0,0,,7,,,55,127
28541,note_on,1,0,0,,7,,,55,127
28541,note_on,0,0,0,,12,,,71,127
28770,note_off,229,0,0,,12,,,71,127
28771,note_on,1,0,0,,1,,,73,127
28885,note_off,114,0,0,,1,,,73,127
28886,note_on,1,0,0,,2,,,74,127
29000,note_off,114,0,0,,2,,,74,127
29000,note_off,0,0,0,,7,,,55,127
29001,note_on,1,0,0,,10,,,57,127
29001,note_on,0,0,0,,6,,,66,127
29230,note_off,229,0,0,,6,,,66,127
29231,note_on,1,0,0,,7,,,67,127
29345,note_off,114,0,0,,7,,,67,127
29346,note_on,1,0,0,,10,,,69,127
29460,note_off,114,0,0,,10,,,69,127
29460,note_off,0,0,0,,10,,,57,127
29461,note_on,1,0,0,,10,,,45,127
29461,note_on,0,0,0,,2,,,62,127
29690,note_off,229,0,0,,2,,,62,127
29691,note_on,1,0,0,,2,,,74,127
29920,note_off,229,0,0,,2,,,74,127
29920,note_off,0,0,0,,10,,,45,127
29921,note_on,1,0,0,,10,,,57,127
29921,note_on,0,0,0,,6,,,78,127
29979,note_on,58,0,0,,4,,,76,127
29998,note_off,19,0,0,,6,,,78,127
30036,note_on,38,0,0,,6,,,78,127
30055,note_off,19,0,0,,4,,,76,127
30093,note_on,38,0,0,,4,,,76,127
30112,note_off,19,0,0,,6,,,78,127
30150,note_on,38,0,0,,6,,,78,127
30169,note_off,19,0,0,,4,,,76,127
30207,note_on,38,0,0,,4,,,76,127
30226,note_off,19,0,0,,6,,,78,127
30264,note_on,38,0,0,,2,,,74,127
30283,note_off,19,0,0,,4,,,76,127
30321,note_on,38,0,0,,4,,,76,127
30340,note_off,19,0,0,,2,,,74,127
30377,note_off,37,0,0,,10,,,57,127
30378,note_off,1,0,0,,4,,,76,127
30378,note_on,0,0,0,,2,,,50,127
30378,note_on,0,0,0,,2,,,74,127
30607,note_off,229,0,0,,2,,,74,127
30608,note_on,1,0,0,,10,,,81,127
30722,note_off,114,0,0,,10,,,81,127
30723,note_on,1,0,0,,6,,,78,127
30837,note_off,114,0,0,,6,,,78,127
30837,note_off,0,0,0,,2,,,50,127
30838,note_on,1,0,0,,2,,,74,127
31067,note_off,229,0,0,,2,,,74,127
31068,note_on,1,0,0,,7,,,55,127
31068,note_on,0,0,0,,2,,,74,127
31297,note_off,229,0,0,,7,,,55,127
31298,note_on,1,0,0,,10,,,57,127
31356,note_on,58,0,0,,1,,,73,127
31380,note_off,24,0,0,,2,,,74,127
31414,note_on,34,0,0,,2,,,74,127
31433,note_off,19,0,0,,1,,,73,127
31471,note_on,38,0,0,,1,,,73,127
31490,note_off,19,0,0,,2,,,74,127
31527,note_off,37,0,0,,10,,,57,127
31528,note_on,1,0,0,,7,,,55,127
31528,note_on,0,0,0,,2,,,74,127
31547,note_off,19,0,0,,1,,,73,127
31585,note_on,38,0,0,,1,,,73,127
31604,note_off,19,0,0,,2,,,74,127
31642,note_on,38,0,0,,12,,,71,127
31661,note_off,19,0,0,,1,,,73,127
31699,note_on,38,0,0,,1,,,73,127
31718,note_off,19,0,0,,12,,,71,127
31755,note_off,37,0,0,,7,,,55,127
31756,note_off,1,0,0,,1,,,73,127
31756,note_on,0,0,0,,6,,,54,127
31756,note_on,0,0,0,,2,,,74,127
31985,note_off,229,0,0,,2,,,74,127
31986,note_on,1,0,0,,2,,,86,127
32100,note_off,114,0,0,,2,,,86,127
32101,note_on,1,0,0,,10,,,81,127
32215,note_off,114,0,0,,10,,,81,127
32215,note_off,0,0,0,,6,,,54,127
32216,note_on,1,0,0,,6,,,78,127
32445,note_off,229,0,0,,6,,,78,127
32446,note_on,1,0,0,,7,,,55,127
32446,note_on,0,0,0,,12,,,83,127
32675,note_off,229,0,0,,12,,,83,127
32675,note_off,0,0,0,,7,,,55,127
32676,note_on,1,0,0,,10,,,57,127
32676,note_on,0,0,0,,6,,,78,127
32734,note_on,58,0,0,,4,,,76,127
32753,note_off,19,0,0,,6,,,78,127
32791,note_on,38,0,0,,6,,,78,127
32810,note_off,19,0,0,,4,,,76,127
32848,note_on,38,0,0,,4,,,76,127
32867,note_off,19,0,0,,6,,,78,127
32904,note_off,37,0,0,,10,,,57,127
32905,note_on,1,0,0,,7,,,55,127
32905,note_on,0,0,0,,6,,,78,127
32924,note_off,19,0,0,,4,,,76,127
32962,note_on,38,0,0,,4,,,76,127
32981,note_off,19,0,0,,6,,,78,127
33019,note_on,38,0,0,,2,,,74,127
33038,note_off,19,0,0,,4,,,76,127
33076,note_on,38,0,0,,4,,,76,127
33095,note_off,19,0,0,,2,,,74,127
33132,note_off,37,0,0,,7,,,55,127
33133,note_off,1,0,0,,4,,,76,127
33133,note_on,0,0,0,,6,,,54,127
33133,note_on,0,0,0,,2,,,74,127
33362,note_off,229,0,0,,2,,,74,127
33363,note_on,1,0,0,,10,,,81,127
33477,note_off,114,0,0,,10,,,81,127
33478,note_on,1,0,0,,6,,,78,127
33592,note_off,114,0,0,,6,,,78,127
33592,note_off,0,0,0,,6,,,54,127
33593,note_on,1,0,0,,2,,,74,127
33822,note_off,229,0,0,,2,,,74,127
33823,note_on,1,0,0,,7,,,55,127
33823,note_on,0,0,0,,2,,,74,127
34052,note_off,229,0,0,,7,,,55,127
34053,note_on,1,0,0,,10,,,57,127
34111,note_on,58,0,0,,1,,,73,127
34135,note_off,24,0,0,,2,,,74,127
34169,note_on,34,0,0,,2,,,74,127
34188,note_off,19,0,0,,1,,,73,127
34226,note_on,38,0,0,,1,,,73,127
34245,note_off,19,0,0,,2,,,74,127
34282,note_off,37,0,0,,10,,,57,127
34283,note_on,1,0,0,,7,,,55,127
34283,note_on,0,0,0,,2,,,74,127
34302,note_off,19,0,0,,1,,,73,127
34340,note_on,38,0,0,,1,,,73,127
34359,note_off,19,0,0,,2,,,74,127
34397,note_on,38,0,0,,12,,,71,127
34416,note_off,19,0,0,,1,,,73,127
34454,note_on,38,0,0,,1,,,73,127
34473,note_off,19,0,0,,12,,,71,127
34510,note_off,37,0,0,,7,,,55,127
34511,note_off,1,0,0,,1,,,73,127
34511,note_on,0,0,0,,6,,,54,127
34511,note_on,0,0,0,,2,,,74,127
34740,note_off,229,0,0,,2,,,74,127
34741,note_on,1,0,0,,2,,,86,127
34855,note_off,114,0,0,,2,,,86,127
34856,note_on,1,0,0,,10,,,81,127
34970,note_off,114,0,0,,10,,,81,127
34970,note_off,0,0,0,,6,,,54,127
34971,note_on,1,0,0,,6,,,78,127
35200,note_off,229,0,0,,6,,,78,127
35201,note_on,1,0,0,,7,,,55,127
35201,note_on,0,0,0,,12,,,83,127
35430,note_off,229,0,0,,12,,,83,127
35430,note_off,0,0,0,,7,,,55,127
35431,note_on,1,0,0,,10,,,57,127
35431,note_on,0,0,0,,6,,,78,127
35489,note_on,58,0,0,,4,,,76,127
35508,note_off,19,0,0,,6,,,78,127
35546,note_on,38,0,0,,6,,,78,127
35565,note_off,19,0,0,,4,,,76,127
35603,note_on,38,0,0,,4,,,76,127
35622,note_off,19,0,0,,6,,,78,127
35659,note_off,37,0,0,,10,,,57,127
35660,note_on,1,0,0,,7,,,55,127
35660,note_on,0,0,0,,6,,,78,127
35679,note_off,19,0,0,,4,,,76,127
35717,note_on,38,0,0,,4,,,76,127
35736,note_off,19,0,0,,6,,,78,127
35774,note_on,38,0,0,,2,,,74,127
35793,note_off,19,0,0,,4,,,76,127
35831,note_on,38,0,0,,4,,,76,127
35850,note_off,19,0,0,,2,,,74,127
35887,note_off,37,0,0,,7,,,55,127
35888,note_off,1,0,0,,4,,,76,127
35888,note_on,0,0,0,,6,,,54,127
35888,note_on,0,0,0,,2,,,74,127
36117,note_off,229,0,0,,2,,,74,127
36118,note_on,1,0,0,,2,,,86,127
36347,note_off,229,0,0,,6,,,54,127
36348,note_on,1,0,0,,6,,,42,127
36462,note_off,114,0,0,,2,,,86,127
36463,note_on,1,0,0,,1,,,85,127
36577,note_off,114,0,0,,1,,,85,127
36578,note_on,1,0,0,,12,,,83,127
36807,note_off,229,0,0,,6,,,42,127
36808,note_on,1,0,0,,7,,,43,127
36922,note_off,114,0,0,,12,,,83,127
36923,note_on,1,0,0,,10,,,81,127
37037,note_off,114,0,0,,10,,,81,127
37038,note_on,1,0,0,,7,,,79,127
37267,note_off,229,0,0,,7,,,43,127
37268,note_on,1,0,0,,10,,,45,127
37382,note_off,114,0,0,,7,,,79,127
37383,note_on,1,0,0,,6,,,78,127
37497,note_off,114,0,0,,6,,,78,127
37498,note_on,1,0,0,,4,,,76,127
37612,note_off,114,0,0,,4,,,76,127
37613,note_on,1,0,0,,2,,,74,127
37727,note_off,114,0,0,,2,,,74,127
37727,note_off,0,0,0,,10,,,45,127
37728,note_on,1,0,0,,10,,,57,127
37728,note_on,0,0,0,,2,,,74,127
38188,note_off,460,0,0,,2,,,74,127
38188,note_off,0,0,0,,10,,,57,127
38189,note_on,1,0,0,,7,,,55,127
38189,note_on,0,0,0,,6,,,78,127
38247,note_on,58,0,0,,4,,,76,127
38266,note_off,19,0,0,,6,,,78,127
38304,note_on,38,0,0,,6,,,78,127
38323,note_off,19,0,0,,4,,,76,127
38361,note_on,38,0,0,,4,,,76,127
38380,note_off,19,0,0,,6,,,78,127
38418,note_on,38,0,0,,6,,,78,127
38437,note_off,19,0,0,,4,,,76,127
38475,note_on,38,0,0,,4,,,76,127
38494,note_off,19,0,0,,6,,,78,127
38532,note_on,38,0,0,,2,,,74,127
38551,note_off,19,0,0,,4,,,76,127
38589,note_on,38,0,0,,4,,,76,127
38608,note_off,19,0,0,,2,,,74,127
38645,note_off,37,0,0,,7,,,55,127
38646,note_off,1,0,0,,4,,,76,127
38646,note_on,0,0,0,,6,,,54,127
38646,note_on,0,0,0,,2,,,74,127
38875,note_off,229,0,0,,2,,,74,127
38876,note_on,1,0,0,,2,,,74,127
39105,note_off,229,0,0,,6,,,54,127
39106,note_on,1,0,0,,6,,,42,127
39220,note_off,114,0,0,,2,,,74,127
39221,note_on,1,0,0,,1,,,73,127
39335,note_off,114,0,0,,1,,,73,127
39336,note_on,1,0,0,,12,,,71,127
39565,note_off,229,0,0,,6,,,42,127
39566,note_on,1,0,0,,7,,,43,127
39680,note_off,114,0,0,,12,,,71,127
39681,note_on,1,0,0,,10,,,69,127
39795,note_off,114,0,0,,10,,,69,127
39796,note_on,1,0,0,,7,,,67,127
40025,note_off,229,0,0,,7,,,43,127
40026,note_on,1,0,0,,10,,,45,127
40140,note_off,114,0,0,,7,,,67,127
40141,note_on,1,0,0,,6,,,66,127
40255,note_off,114,0,0,,6,,,66,127
40256,note_on,1,0,0,,4,,,64,127
40370,note_off,114,0,0,,4,,,64,127
40371,note_on,1,0,0,,2,,,62,127
40485,note_off,114,0,0,,2,,,62,127
40485,note_off,0,0,0,,10,,,45,127
40486,note_on,1,0,0,,10,,,45,127
40486,note_on,0,0,0,,2,,,62,127
40946,note_off,460,0,0,,2,,,62,127
40946,note_off,0,0,0,,10,,,45,127
40947,note_on,1,0,0,,10,,,45,127
40947,note_on,0,0,0,,6,,,66,127
41005,note_on,58,0,0,,4,,,64,127
41024,note_off,19,0,0,,6,,,66,127
41062,note_on,38,0,0,,6,,,66,127
41081,note_off,19,0,0,,4,,,64,127
41119,note_on,38,0,0,,4,,,64,127
41138,note_off,19,0,0,,6,,,66,127
41176,note_on,38,0,0,,6,,,66,127
41195,note_off,19,0,0,,4,,,64,127
41233,note_on,38,0,0,,4,,,64,127
41252,note_off,19,0,0,,6,,,66,127
41290,note_on,38,0,0,,2,,,62,127
41309,note_off,19,0,0,,4,,,64,127
41347,note_on,38,0,0,,4,,,64,127
41366,note_off,19,0,0,,2,,,62,127
41403,note_off,37,0,0,,10,,,45,127
41404,note_off,1,0,0,,4,,,64,127
41404,note_on,0,0,0,,2,,,38,127
41404,note_on,0,0,0,,2,,,62,127
42324,note_off,920,0,0,,2,,,62,127
42785,note_off,461,0,0,,2,,,38,127
42786,note_on,1,0,0,,2,,,74,127
42786,note_on,0,0,0,,2,,,50,127
43015,note_off,229,0,0,,2,,,74,127
43016,note_on,1,0,0,,1,,,73,127
43130,note_off,114,0,0,,1,,,73,127
43131,note_on,1,0,0,,12,,,71,127
43245,note_off,114,0,0,,12,,,71,127
43245,note_off,0,0,0,,2,,,50,127
43246,note_on,1,0,0,,2,,,62,127
43246,note_on,0,0,0,,6,,,66,127
43246,note_on,0,0,0,,12,,,71,127
43360,note_off,114,0,0,,12,,,71,127
43361,note_on,1,0,0,,10,,,69,127
43475,note_off,114,0,0,,10,,,69,127
43476,note_on,1,0,0,,7,,,67,127
43590,note_off,114,0,0,,7,,,67,127
43591,note_on,1,0,0,,10,,,69,127
43705,note_off,114,0,0,,10,,,69,127
43705,note_off,0,0,0,,6,,,66,127
43705,note_off,0,0,0,,2,,,62,127
43706,note_on,1,0,0,,7,,,67,127
43706,note_on,0,0,0,,2,,,62,127
43706,note_on,0,0,0,,12,,,71,127
43935,note_off,229,0,0,,12,,,71,127
43936,note_on,1,0,0,,10,,,69,127
44050,note_off,114,0,0,,10,,,69,127
44051,note_off,1,0,0,,7,,,67,127
44051,note_on,0,0,0,,7,,,67,127
44165,note_off,114,0,0,,7,,,67,127
44166,note_on,1,0,0,,2,,,74,127
44395,note_off,229,0,0,,2,,,74,127
44395,note_off,0,0,0,,2,,,62,127
44396,note_on,1,0,0,,1,,,73,127
44510,note_off,114,0,0,,1,,,73,127
44511,note_on,1,0,0,,12,,,71,127
44625,note_off,114,0,0,,12,,,71,127
44626,note_on,1,0,0,,6,,,66,127
44626,note_on,0,0,0,,2,,,62,127
44626,note_on,0,0,0,,12,,,71,127
44740,note_off,114,0,0,,12,,,71,127
44741,note_on,1,0,0,,10,,,69,127
44855,note_off,114,0,0,,10,,,69,127
44856,note_on,1,0,0,,7,,,67,127
44970,note_off,114,0,0,,7,,,67,127
44971,note_on,1,0,0,,10,,,69,127
45085,note_off,114,0,0,,10,,,69,127
45085,note_off,0,0,0,,2,,,62,127
45085,note_off,0,0,0,,6,,,66,127
45086,note_on,1,0,0,,7,,,67,127
45086,note_on,0,0,0,,2,,,62,127
45086,note_on,0,0,0,,12,,,71,127
45315,note_off,229,0,0,,12,,,71,127
45316,note_on,1,0,0,,10,,,69,127
45430,note_off,114,0,0,,10,,,69,127
45431,note_off,1,0,0,,7,,,67,127
45431,note_on,0,0,0,,7,,,67,127
45545,note_off,114,0,0,,7,,,67,127
45546,note_on,1,0,0,,10,,,81,127
45775,note_off,229,0,0,,10,,,81,127
45775,note_off,0,0,0,,2,,,62,127
45776,note_on,1,0,0,,7,,,79,127
45890,note_off,114,0,0,,7,,,79,127
45891,note_on,1,0,0,,6,,,78,127
46005,note_off,114,0,0,,6,,,78,127
46006,note_on,1,0,0,,4,,,64,127
46006,note_on,0,0,0,,1,,,61,127
46006,note_on,0,0,0,,6,,,78,127
46120,note_off,114,0,0,,6,,,78,127
46121,note_on,1,0,0,,4,,,76,127
46235,note_off,114,0,0,,4,,,76,127
46236,note_on,1,0,0,,2,,,74,127
46350,note_off,114,0,0,,2,,,74,127
46351,note_on,1,0,0,,4,,,76,127
46465,note_off,114,0,0,,4,,,76,127
46465,note_off,0,0,0,,1,,,61,127
46465,note_off,0,0,0,,4,,,64,127
46466,note_on,1,0,0,,6,,,66,127
46466,note_on,0,0,0,,2,,,62,127
46466,note_on,0,0,0,,6,,,78,127
46695,note_off,229,0,0,,6,,,78,127
46696,note_on,1,0,0,,4,,,76,127
46810,note_off,114,0,0,,4,,,76,127
46811,note_on,1,0,0,,2,,,74,127
46925,note_off,114,0,0,,2,,,74,127
46926,note_on,1,0,0,,10,,,81,127
47155,note_off,229,0,0,,10,,,81,127
47155,note_off,0,0,0,,2,,,62,127
47155,note_off,0,0,0,,6,,,66,127
47156,note_on,1,0,0,,7,,,79,127
47270,note_off,114,0,0,,7,,,79,127
47271,note_on,1,0,0,,6,,,78,127
47385,note_off,114,0,0,,6,,,78,127
47386,note_on,1,0,0,,1,,,61,127
47386,note_on,0,0,0,,4,,,64,127
47386,note_on,0,0,0,,6,,,78,127
47500,note_off,114,0,0,,6,,,78,127
47501,note_on,1,0,0,,4,,,76,127
47615,note_off,114,0,0,,4,,,76,127
47616,note_on,1,0,0,,2,,,74,127
47730,note_off,114,0,0,,2,,,74,127
47731,note_on,1,0,0,,4,,,76,127
47845,note_off,114,0,0,,4,,,76,127
47845,note_off,0,0,0,,4,,,64,127
47845,note_off,0,0,0,,1,,,61,127
47846,note_on,1,0,0,,6,,,66,127
47846,note_on,0,0,0,,2,,,62,127
47846,note_on,0,0,0,,6,,,78,127
48075,note_off,229,0,0,,6,,,78,127
48076,note_on,1,0,0,,4,,,76,127
48190,note_off,114,0,0,,4,,,76,127
48191,note_on,1,0,0,,2,,,74,127
48305,note_off,114,0,0,,2,,,74,127
48305,note_off,0,0,0,,2,,,62,127
48305,note_off,0,0,0,,6,,,66,127
48306,note_on,1,0,0,,10,,,57,127
48306,note_on,0,0,0,,4,,,76,127
48535,note_off,229,0,0,,10,,,57,127
48536,note_on,1,0,0,,10,,,69,127
48650,note_off,114,0,0,,10,,,69,127
48651,note_on,1,0,0,,10,,,57,127
48765,note_off,114,0,0,,10,,,57,127
48765,note_off,0,0,0,,4,,,76,127
48766,note_on,1,0,0,,10,,,69,127
48995,note_off,229,0,0,,10,,,69,127
48996,note_on,1,0,0,,10,,,57,127
49225,note_off,229,0,0,,10,,,57,127
49226,note_on,1,0,0,,10,,,69,127
49340,note_off,114,0,0,,10,,,69,127
49341,note_on,1,0,0,,7,,,67,127
49455,note_off,114,0,0,,7,,,67,127
49456,note_on,1,0,0,,6,,,66,127
49570,note_off,114,0,0,,6,,,66,127
49571,note_on,1,0,0,,4,,,64,127
49685,note_off,114,0,0,,4,,,64,127
49686,note_on,1,0,0,,6,,,66,127
49916,note_on,230,0,0,,10,,,81,127
50030,note_off,114,0,0,,10,,,81,127
50031,note_on,1,0,0,,10,,,69,127
50145,note_off,114,0,0,,10,,,69,127
50145,note_off,0,0,0,,6,,,66,127
50146,note_on,1,0,0,,3,,,63,127
50146,note_on,0,0,0,,10,,,81,127
50375,note_off,229,0,0,,10,,,81,127
50376,note_on,1,0,0,,10,,,69,127
50605,note_off,229,0,0,,10,,,69,127
50605,note_off,0,0,0,,3,,,63,127
50606,note_on,1,0,0,,4,,,64,127
50606,note_on,0,0,0,,10,,,81,127
50720,note_off,114,0,0,,10,,,81,127
50721,note_on,1,0,0,,7,,,79,127
50835,note_off,114,0,0,,7,,,79,127
50836,note_on,1,0,0,,6,,,78,127
50950,note_off,114,0,0,,6,,,78,127
50951,note_on,1,0,0,,4,,,76,127
51065,note_off,114,0,0,,4,,,76,127
51065,note_off,0,0,0,,4,,,64,127
51066,note_on,1,0,0,,12,,,59,127
51066,note_on,0,0,0,,6,,,78,127
51295,note_off,229,0,0,,12,,,59,127
51296,note_on,1,0,0,,12,,,71,127
51410,note_off,114,0,0,,12,,,71,127
51411,note_on,1,0,0,,12,,,59,127
51525,note_off,114,0,0,,12,,,59,127
51525,note_off,0,0,0,,6,,,78,127
51526,note_on,1,0,0,,12,,,71,127
51755,note_off,229,0,0,,12,,,71,127
51756,note_on,1,0,0,,12,,,59,127
51985,note_off,229,0,0,,12,,,59,127
51986,note_on,1,0,0,,12,,,71,127
52100,note_off,114,0,0,,12,,,71,127
52101,note_on,1,0,0,,10,,,69,127
52215,note_off,114,0,0,,10,,,69,127
52216,note_on,1,0,0,,7,,,67,127
52330,note_off,114,0,0,,7,,,67,127
52331,note_on,1,0,0,,6,,,66,127
52445,note_off,114,0,0,,6,,,66,127
52446,note_on,1,0,0,,7,,,67,127
52676,note_on,230,0,0,,12,,,83,127
52790,note_off,114,0,0,,12,,,83,127
52791,note_on,1,0,0,,12,,,71,127
52905,note_off,114,0,0,,12,,,71,127
52905,note_off,0,0,0,,7,,,67,127
52906,note_on,1,0,0,,7,,,67,127
52906,note_on,0,0,0,,12,,,83,127
53135,note_off,229,0,0,,12,,,83,127
53136,note_on,1,0,0,,12,,,71,127
53365,note_off,229,0,0,,12,,,71,127
53365,note_off,0,0,0,,7,,,67,127
53366,note_on,1,0,0,,6,,,66,127
53366,note_on,0,0,0,,12,,,83,127
53480,note_off,114,0,0,,12,,,83,127
53481,note_on,1,0,0,,10,,,81,127
53595,note_off,114,0,0,,10,,,81,127
53596,note_on,1,0,0,,7,,,79,127
53710,note_off,114,0,0,,7,,,79,127
53711,note_on,1,0,0,,6,,,78,127
53825,note_off,114,0,0,,6,,,78,127
53825,note_off,0,0,0,,6,,,66,127
53826,note_on,1,0,0,,4,,,64,127
53826,note_on,0,0,0,,7,,,79,127
54055,note_off,229,0,0,,7,,,79,127
54056,note_on,1,0,0,,6,,,78,127
54170,note_off,114,0,0,,6,,,78,127
54171,note_on,1,0,0,,4,,,76,127
54285,note_off,114,0,0,,4,,,76,127
54285,note_off,0,0,0,,4,,,64,127
54286,note_on,1,0,0,,4,,,64,127
54286,note_on,0,0,0,,4,,,76,127
54515,note_off,229,0,0,,4,,,76,127
54516,note_on,1,0,0,,2,,,74,127
54630,note_off,114,0,0,,2,,,74,127
54631,note_on,1,0,0,,1,,,73,127
54745,note_off,114,0,0,,1,,,73,127
54745,note_off,0,0,0,,4,,,64,127
54746,note_on,1,0,0,,4,,,64,127
54746,note_on,0,0,0,,1,,,73,127
54975,note_off,229,0,0,,1,,,73,127
54976,note_on,1,0,0,,12,,,71,127
55090,note_off,114,0,0,,12,,,71,127
55091,note_on,1,0,0,,11,,,70,127
55205,note_off,114,0,0,,11,,,70,127
55205,note_off,0,0,0,,4,,,64,127
55206,note_on,1,0,0,,4,,,64,127
55206,note_on,0,0,0,,11,,,70,127
55435,note_off,229,0,0,,11,,,70,127
55436,note_on,1,0,0,,12,,,71,127
55550,note_off,114,0,0,,12,,,71,127
55551,note_on,1,0,0,,1,,,73,127
55665,note_off,114,0,0,,1,,,73,127
55665,note_off,0,0,0,,4,,,64,127
55666,note_on,1,0,0,,4,,,64,127
55666,note_on,0,0,0,,1,,,73,127
55895,note_off,229,0,0,,1,,,73,127
55896,note_on,1,0,0,,2,,,74,127
56010,note_off,114,0,0,,2,,,74,127
56011,note_on,1,0,0,,4,,,76,127
56125,note_off,114,0,0,,4,,,76,127
56125,note_off,0,0,0,,4,,,64,127
56126,note_on,1,0,0,,4,,,64,127
56126,note_on,0,0,0,,4,,,76,127
56355,note_off,229,0,0,,4,,,76,127
56356,note_on,1,0,0,,6,,,78,127
56470,note_off,114,0,0,,6,,,78,127
56471,note_on,1,0,0,,7,,,79,127
56585,note_off,114,0,0,,7,,,79,127
56585,note_off,0,0,0,,4,,,64,127
56586,note_on,1,0,0,,2,,,62,127
56586,note_on,0,0,0,,6,,,78,127
56815,note_off,229,0,0,,6,,,78,127
56816,note_on,1,0,0,,4,,,76,127
56930,note_off,114,0,0,,4,,,76,127
56931,note_on,1,0,0,,2,,,74,127
57045,note_off,114,0,0,,2,,,74,127
57045,note_off,0,0,0,,2,,,62,127
57046,note_on,1,0,0,,4,,,64,127
57046,note_on,0,0,0,,2,,,74,127
57275,note_off,229,0,0,,2,,,74,127
57276,note_on,1,0,0,,1,,,73,127
57390,note_off,114,0,0,,1,,,73,127
57391,note_on,1,0,0,,12,,,71,127
57505,note_off,114,0,0,,12,,,71,127
57505,note_off,0,0,0,,4,,,64,127
57506,note_on,1,0,0,,7,,,67,127
57506,note_on,0,0,0,,1,,,73,127
57620,note_off,114,0,0,,1,,,73,127
57621,note_on,1,0,0,,12,,,71,127
57735,note_off,114,0,0,,12,,,71,127
57736,note_on,1,0,0,,11,,,70,127
57850,note_off,114,0,0,,11,,,70,127
57851,note_on,1,0,0,,12,,,71,127
57965,note_off,114,0,0,,12,,,71,127
57965,note_off,0,0,0,,7,,,67,127
57966,note_on,1,0,0,,6,,,54,127
57966,note_on,0,0,0,,1,,,73,127
58195,note_off,229,0,0,,6,,,54,127
58196,note_on,1,0,0,,6,,,66,127
58310,note_off,114,0,0,,6,,,66,127
58311,note_on,1,0,0,,6,,,54,127
58425,note_off,114,0,0,,6,,,54,127
58425,note_off,0,0,0,,1,,,73,127
58426,note_on,1,0,0,,6,,,66,127
58655,note_off,229,0,0,,6,,,66,127
58656,note_on,1,0,0,,6,,,54,127
58885,note_off,229,0,0,,6,,,54,127
58886,note_on,1,0,0,,6,,,66,127
59000,note_off,114,0,0,,6,,,66,127
59001,note_on,1,0,0,,4,,,64,127
59115,note_off,114,0,0,,4,,,64,127
59116,note_on,1,0,0,,2,,,62,127
59230,note_off,114,0,0,,2,,,62,127
59231,note_on,1,0,0,,1,,,61,127
59345,note_off,114,0,0,,1,,,61,127
59346,note_on,1,0,0,,2,,,62,127
59576,note_on,230,0,0,,6,,,78,127
59690,note_off,114,0,0,,6,,,78,127
59691,note_on,1,0,0,,6,,,66,127
59805,note_off,114,0,0,,6,,,66,127
59805,note_off,0,0,0,,2,,,62,127
59806,note_on,1,0,0,,2,,,62,127
59806,note_on,0,0,0,,6,,,78,127
60035,note_off,229,0,0,,6,,,78,127
60036,note_on,1,0,0,,6,,,66,127
60265,note_off,229,0,0,,6,,,66,127
60265,note_off,0,0,0,,2,,,62,127
60266,note_on,1,0,0,,1,,,61,127
60266,note_on,0,0,0,,6,,,78,127
60380,note_off,114,0,0,,6,,,78,127
60381,note_on,1,0,0,,4,,,76,127
60495,note_off,114,0,0,,4,,,76,127
60496,note_on,1,0,0,,2,,,74,127
60610,note_off,114,0,0,,2,,,74,127
60611,note_on,1,0,0,,1,,,73,127
60725,note_off,114,0,0,,1,,,73,127
60725,note_off,0,0,0,,1,,,61,127
60726,note_on,1,0,0,,12,,,59,127
60726,note_on,0,0,0,,2,,,74,127
60955,note_off,229,0,0,,2,,,74,127
60956,note_on,1,0,0,,12,,,83,127
61070,note_off,114,0,0,,12,,,83,127
61071,note_on,1,0,0,,12,,,71,127
61185,note_off,114,0,0,,12,,,71,127
61185,note_off,0,0,0,,12,,,59,127
61186,note_on,1,0,0,,2,,,50,127
61186,note_on,0,0,0,,12,,,83,127
61415,note_off,229,0,0,,12,,,83,127
61416,note_on,1,0,0,,12,,,71,127
61645,note_off,229,0,0,,12,,,71,127
61645,note_off,0,0,0,,2,,,50,127
61646,note_on,1,0,0,,12,,,47,127
61646,note_on,0,0,0,,12,,,83,127
61760,note_off,114,0,0,,12,,,83,127
61761,note_on,1,0,0,,10,,,81,127
61875,note_off,114,0,0,,10,,,81,127
61876,note_on,1,0,0,,7,,,79,127
61990,note_off,114,0,0,,7,,,79,127
61991,note_on,1,0,0,,6,,,78,127
62105,note_off,114,0,0,,6,,,78,127
62105,note_off,0,0,0,,12,,,47,127
62106,note_on,1,0,0,,4,,,52,127
62106,note_on,0,0,0,,7,,,79,127
62335,note_off,229,0,0,,7,,,79,127
62336,note_on,1,0,0,,6,,,78,127
62450,note_off,114,0,0,,6,,,78,127
62451,note_on,1,0,0,,4,,,76,127
62565,note_off,114,0,0,,4,,,76,127
62565,note_off,0,0,0,,4,,,52,127
62566,note_on,1,0,0,,6,,,54,127
62566,note_on,0,0,0,,2,,,74,127
62795,note_off,229,0,0,,2,,,74,127
62796,note_on,1,0,0,,1,,,73,127
62910,note_off,114,0,0,,1,,,73,127
62911,note_on,1,0,0,,12,,,71,127
63025,note_off,114,0,0,,12,,,71,127
63026,note_on,1,0,0,,6,,,42,127
63026,note_on,0,0,0,,2,,,74,127
63084,note_on,58,0,0,,1,,,73,127
63103,note_off,19,0,0,,2,,,74,127
63141,note_on,38,0,0,,2,,,74,127
63160,note_off,19,0,0,,1,,,73,127
63198,note_on,38,0,0,,1,,,73,127
63217,note_off,19,0,0,,2,,,74,127
63255,note_on,38,0,0,,2,,,74,127
63274,note_off,19,0,0,,1,,,73,127
63312,note_on,38,0,0,,1,,,73,127
63331,note_off,19,0,0,,2,,,74,127
63369,note_on,38,0,0,,12,,,71,127
63388,note_off,19,0,0,,1,,,73,127
63426,note_on,38,0,0,,1,,,73,127
63445,note_off,19,0,0,,12,,,71,127
63482,note_off,37,0,0,,6,,,42,127
63482,note_off,0,0,0,,6,,,54,127
63483,note_off,1,0,0,,1,,,73,127
63483,note_on,0,0,0,,12,,,47,127
63483,note_on,0,0,0,,12,,,71,127
63712,note_off,229,0,0,,12,,,71,127
63713,note_on,1,0,0,,2,,,74,127
63827,note_off,114,0,0,,2,,,74,127
63828,note_on,1,0,0,,12,,,71,127
63942,note_off,114,0,0,,12,,,71,127
63942,note_off,0,0,0,,12,,,47,127
63943,note_on,1,0,0,,6,,,66,127
64172,note_off,229,0,0,,6,,,66,127
64173,note_on,1,0,0,,2,,,62,127
64173,note_on,0,0,0,,6,,,66,127
64402,note_off,229,0,0,,6,,,66,127
64402,note_off,0,0,0,,2,,,62,127
64403,note_on,1,0,0,,4,,,64,127
64403,note_on,0,0,0,,10,,,69,127
64461,note_on,58,0,0,,7,,,67,127
64480,note_off,19,0,0,,10,,,69,127
64518,note_on,38,0,0,,10,,,69,127
64537,note_off,19,0,0,,7,,,67,127
64575,note_on,38,0,0,,7,,,67,127
64594,note_off,19,0,0,,10,,,69,127
64631,note_off,37,0,0,,4,,,64,127
64632,note_on,1,0,0,,1,,,61,127
64632,note_on,0,0,0,,10,,,69,127
64651,note_off,19,0,0,,7,,,67,127
64689,note_on,38,0,0,,7,,,67,127
64708,note_off,19,0,0,,10,,,69,127
64746,note_on,38,0,0,,6,,,66,127
64765,note_off,19,0,0,,7,,,67,127
64803,note_on,38,0,0,,7,,,67,127
64822,note_off,19,0,0,,6,,,66,127
64859,note_off,37,0,0,,1,,,61,127
64860,note_off,1,0,0,,7,,,67,127
64860,note_on,0,0,0,,2,,,62,127
64860,note_on,0,0,0,,6,,,66,127
65089,note_off,229,0,0,,6,,,66,127
65090,note_on,1,0,0,,12,,,71,127
65204,note_off,114,0,0,,12,,,71,127
65205,note_on,1,0,0,,6,,,66,127
65319,note_off,114,0,0,,6,,,66,127
65319,note_off,0,0,0,,2,,,62,127
65320,note_on,1,0,0,,2,,,62,127
65549,note_off,229,0,0,,2,,,62,127
65550,note_on,1,0,0,,12,,,59,127
65550,note_on,0,0,0,,2,,,62,127
65779,note_off,229,0,0,,2,,,62,127
65779,note_off,0,0,0,,12,,,59,127
65780,note_on,1,0,0,,1,,,61,127
65780,note_on,0,0,0,,6,,,66,127
65838,note_on,58,0,0,,4,,,64,127
65857,note_off,19,0,0,,6,,,66,127
65895,note_on,38,0,0,,6,,,66,127
65914,note_off,19,0,0,,4,,,64,127
65952,note_on,38,0,0,,4,,,64,127
65971,note_off,19,0,0,,6,,,66,127
66008,note_off,37,0,0,,1,,,61,127
66009,note_on,1,0,0,,11,,,58,127
66009,note_on,0,0,0,,6,,,66,127
66028,note_off,19,0,0,,4,,,64,127
66066,note_on,38,0,0,,4,,,64,127
66085,note_off,19,0,0,,6,,,66,127
66123,note_on,38,0,0,,2,,,62,127
66142,note_off,19,0,0,,4,,,64,127
66180,note_on,38,0,0,,4,,,64,127
66199,note_off,19,0,0,,2,,,62,127
66236,note_off,37,0,0,,11,,,58,127
66237,note_off,1,0,0,,4,,,64,127
66237,note_on,0,0,0,,12,,,59,127
66237,note_on,0,0,0,,2,,,62,127
66466,note_off,229,0,0,,2,,,62,127
66467,note_on,1,0,0,,6,,,78,127
66581,note_off,114,0,0,,6,,,78,127
66582,note_on,1,0,0,,2,,,74,127
66696,note_off,114,0,0,,2,,,74,127
66696,note_off,0,0,0,,12,,,59,127
66697,note_on,1,0,0,,12,,,71,127
66926,note_off,229,0,0,,12,,,71,127
66927,note_on,1,0,0,,10,,,69,127
66927,note_on,0,0,0,,12,,,71,127
67156,note_off,229,0,0,,12,,,71,127
67156,note_off,0,0,0,,10,,,69,127
67157,note_on,1,0,0,,7,,,67,127
67157,note_on,0,0,0,,12,,,71,127
67386,note_off,229,0,0,,12,,,71,127
67386,note_off,0,0,0,,7,,,67,127
67387,note_on,1,0,0,,6,,,66,127
67387,note_on,0,0,0,,12,,,71,127
67616,note_off,229,0,0,,12,,,71,127
67616,note_off,0,0,0,,6,,,66,127
67617,note_on,1,0,0,,4,,,64,127
67617,note_on,0,0,0,,12,,,71,127
67846,note_off,229,0,0,,12,,,71,127
67846,note_off,0,0,0,,4,,,64,127
67847,note_on,1,0,0,,2,,,62,127
67847,note_on,0,0,0,,12,,,71,127
68076,note_off,229,0,0,,12,,,71,127
68076,note_off,0,0,0,,2,,,62,127
68077,note_on,1,0,0,,1,,,61,127
68077,note_on,0,0,0,,12,,,71,127
68306,note_off,229,0,0,,12,,,71,127
68306,note_off,0,0,0,,1,,,61,127
68307,note_on,1,0,0,,12,,,59,127
68307,note_on,0,0,0,,12,,,71,127
68536,note_off,229,0,0,,12,,,71,127
68536,note_off,0,0,0,,12,,,59,127
68537,note_on,1,0,0,,11,,,58,127
68537,note_on,0,0,0,,12,,,71,127
68766,note_off,229,0,0,,12,,,71,127
68766,note_off,0,0,0,,11,,,58,127
68767,note_on,1,0,0,,7,,,55,127
68767,note_on,0,0,0,,12,,,71,127
68996,note_off,229,0,0,,12,,,71,127
68996,note_off,0,0,0,,7,,,55,127
68997,note_on,1,0,0,,6,,,54,127
68997,note_on,0,0,0,,11,,,70,127
68997,note_on,0,0,0,,7,,,79,127
69226,note_off,229,0,0,,6,,,54,127
69227,note_on,1,0,0,,4,,,52,127
69456,note_off,229,0,0,,4,,,52,127
69456,note_off,0,0,0,,11,,,70,127
69457,note_on,1,0,0,,2,,,50,127
69457,note_on,0,0,0,,12,,,71,127
69686,note_off,229,0,0,,2,,,50,127
69686,note_off,0,0,0,,7,,,79,127
69687,note_on,1,0,0,,1,,,49,127
69687,note_on,0,0,0,,6,,,78,127
69801,note_off,114,0,0,,6,,,78,127
69802,note_on,1,0,0,,4,,,76,127
69916,note_off,114,0,0,,4,,,76,127
69916,note_off,0,0,0,,1,,,49,127
69916,note_off,0,0,0,,12,,,71,127
69917,note_on,1,0,0,,12,,,47,127
69917,note_on,0,0,0,,4,,,76,127
70031,note_off,114,0,0,,4,,,76,127
70032,note_on,1,0,0,,2,,,74,127
70146,note_off,114,0,0,,2,,,74,127
70147,note_on,1,0,0,,1,,,73,127
70261,note_off,114,0,0,,1,,,73,127
70262,note_on,1,0,0,,2,,,74,127
70376,note_off,114,0,0,,2,,,74,127
70376,note_off,0,0,0,,12,,,47,127
70377,note_on,1,0,0,,4,,,52,127
70377,note_on,0,0,0,,4,,,64,127
70377,note_on,0,0,0,,4,,,76,127
70606,note_off,229,0,0,,4,,,76,127
70607,note_on,1,0,0,,2,,,74,127
70721,note_off,114,0,0,,2,,,74,127
70722,note_on,1,0,0,,1,,,73,127
70836,note_off,114,0,0,,1,,,73,127
70836,note_off,0,0,0,,4,,,64,127
70836,note_off,0,0,0,,4,,,52,127
70837,note_on,1,0,0,,6,,,54,127
70837,note_on,0,0,0,,2,,,62,127
70837,note_on,0,0,0,,12,,,71,127
71297,note_off,460,0,0,,2,,,62,127
71297,note_off,0,0,0,,6,,,54,127
71298,note_on,1,0,0,,1,,,61,127
71298,note_on,0,0,0,,6,,,54,127
71356,note_on,58,0,0,,11,,,70,127
71378,note_off,22,0,0,,12,,,71,127
71414,note_on,36,0,0,,12,,,71,127
71433,note_off,19,0,0,,11,,,70,127
71471,note_on,38,0,0,,11,,,70,127
71490,note_off,19,0,0,,12,,,71,127
71528,note_on,38,0,0,,12,,,71,127
71547,note_off,19,0,0,,11,,,70,127
71585,note_on,38,0,0,,11,,,70,127
71604,note_off,19,0,0,,12,,,71,127
71642,note_on,38,0,0,,8,,,68,127
71661,note_off,19,0,0,,11,,,70,127
71699,note_on,38,0,0,,11,,,70,127
71718,note_off,19,0,0,,8,,,68,127
71755,note_off,37,0,0,,6,,,54,127
71755,note_off,0,0,0,,1,,,61,127
71756,note_off,1,0,0,,11,,,70,127
71756,note_on,0,0,0,,12,,,59,127
71756,note_on,0,0,0,,12,,,71,127
71985,note_off,229,0,0,,12,,,71,127
71986,note_on,1,0,0,,6,,,78,127
72100,note_off,114,0,0,,6,,,78,127
72101,note_on,1,0,0,,2,,,74,127
72215,note_off,114,0,0,,2,,,74,127
72216,note_on,1,0,0,,12,,,71,127
72445,note_off,229,0,0,,12,,,71,127
72445,note_off,0,0,0,,12,,,59,127
72446,note_on,1,0,0,,10,,,69,127
72446,note_on,0,0,0,,12,,,71,127
72675,note_off,229,0,0,,12,,,71,127
72675,note_off,0,0,0,,10,,,69,127
72676,note_on,1,0,0,,7,,,67,127
72676,note_on,0,0,0,,12,,,71,127
72905,note_off,229,0,0,,12,,,71,127
72905,note_off,0,0,0,,7,,,67,127
72906,note_on,1,0,0,,6,,,66,127
72906,note_on,0,0,0,,12,,,71,127
73135,note_off,229,0,0,,12,,,71,127
73135,note_off,0,0,0,,6,,,66,127
73136,note_on,1,0,0,,4,,,64,127
73136,note_on,0,0,0,,12,,,71,127
73365,note_off,229,0,0,,12,,,71,127
73365,note_off,0,0,0,,4,,,64,127
73366,note_on,1,0,0,,2,,,62,127
73366,note_on,0,0,0,,12,,,71,127
73595,note_off,229,0,0,,12,,,71,127
73595,note_off,0,0,0,,2,,,62,127
73596,note_on,1,0,0,,1,,,61,127
73596,note_on,0,0,0,,12,,,71,127
73825,note_off,229,0,0,,12,,,71,127
73825,note_off,0,0,0,,1,,,61,127
73826,note_on,1,0,0,,12,,,59,127
73826,note_on,0,0,0,,12,,,71,127
74055,note_off,229,0,0,,12,,,71,127
74055,note_off,0,0,0,,12,,,59,127
74056,note_on,1,0,0,,11,,,58,127
74056,note_on,0,0,0,,12,,,71,127
74285,note_off,229,0,0,,12,,,71,127
74285,note_off,0,0,0,,11,,,58,127
74286,note_on,1,0,0,,7,,,55,127
74286,note_on,0,0,0,,12,,,71,127
74515,note_off,229,0,0,,12,,,71,127
74515,note_off,0,0,0,,7,,,55,127
74516,note_on,1,0,0,,6,,,54,127
74516,note_on,0,0,0,,11,,,70,127
74516,note_on,0,0,0,,7,,,79,127
74745,note_off,229,0,0,,6,,,54,127
74746,note_on,1,0,0,,4,,,52,127
74975,note_off,229,0,0,,4,,,52,127
74975,note_off,0,0,0,,11,,,70,127
74976,note_on,1,0,0,,2,,,50,127
74976,note_on,0,0,0,,12,,,71,127
75205,note_off,229,0,0,,2,,,50,127
75205,note_off,0,0,0,,7,,,79,127
75206,note_on,1,0,0,,1,,,49,127
75206,note_on,0,0,0,,6,,,78,127
75320,note_off,114,0,0,,6,,,78,127
75321,note_on,1,0,0,,4,,,76,127
75435,note_off,114,0,0,,4,,,76,127
75435,note_off,0,0,0,,1,,,49,127
75435,note_off,0,0,0,,12,,,71,127
75436,note_on,1,0,0,,12,,,47,127
75436,note_on,0,0,0,,4,,,76,127
75550,note_off,114,0,0,,4,,,76,127
75551,note_on,1,0,0,,2,,,74,127
75665,note_off,114,0,0,,2,,,74,127
75666,note_on,1,0,0,,1,,,73,127
75780,note_off,114,0,0,,1,,,73,127
75781,note_on,1,0,0,,2,,,74,127
75895,note_off,114,0,0,,2,,,74,127
75895,note_off,0,0,0,,12,,,47,127
75896,note_on,1,0,0,,4,,,52,127
75896,note_on,0,0,0,,4,,,64,127
75896,note_on,0,0,0,,4,,,76,127
76125,note_off,229,0,0,,4,,,76,127
76126,note_on,1,0,0,,2,,,74,127
76240,note_off,114,0,0,,2,,,74,127
76241,note_on,1,0,0,,1,,,73,127
76355,note_off,114,0,0,,1,,,73,127
76355,note_off,0,0,0,,4,,,64,127
76355,note_off,0,0,0,,4,,,52,127
76356,note_on,1,0,0,,2,,,62,127
76356,note_on,0,0,0,,6,,,54,127
76356,note_on,0,0,0,,12,,,71,127
76816,note_off,460,0,0,,6,,,54,127
76816,note_off,0,0,0,,2,,,62,127
76817,note_on,1,0,0,,1,,,61,127
76817,note_on,0,0,0,,6,,,54,127
76875,note_on,58,0,0,,11,,,70,127
76897,note_off,22,0,0,,12,,,71,127
76933,note_on,36,0,0,,12,,,71,127
76952,note_off,19,0,0,,11,,,70,127
76990,note_on,38,0,0,,11,,,70,127
77009,note_off,19,0,0,,12,,,71,127
77047,note_on,38,0,0,,12,,,71,127
77066,note_off,19,0,0,,11,,,70,127
77104,note_on,38,0,0,,11,,,70,127
77123,note_off,19,0,0,,12,,,71,127
77161,note_on,38,0,0,,8,,,68,127
77180,note_off,19,0,0,,11,,,70,127
77218,note_on,38,0,0,,11,,,70,127
77237,note_off,19,0,0,,8,,,68,127
77274,note_off,37,0,0,,6,,,54,127
77274,note_off,0,0,0,,1,,,61,127
77275,note_off,1,0,0,,11,,,70,127
77275,note_on,0,0,0,,12,,,59,127
77275,note_on,0,0,0,,12,,,71,127
77504,note_off,229,0,0,,12,,,71,127
77505,note_on,1,0,0,,12,,,83,127
77734,note_off,229,0,0,,12,,,59,127
77735,note_on,1,0,0,,2,,,62,127
77849,note_off,114,0,0,,12,,,83,127
77850,note_on,1,0,0,,10,,,81,127
77964,note_off,114,0,0,,10,,,81,127
77965,note_on,1,0,0,,7,,,79,127
78194,note_off,229,0,0,,2,,,62,127
78195,note_on,1,0,0,,4,,,64,127
78309,note_off,114,0,0,,7,,,79,127
78310,note_on,1,0,0,,6,,,78,127
78424,note_off,114,0,0,,6,,,78,127
78425,note_on,1,0,0,,4,,,76,127
78654,note_off,229,0,0,,4,,,64,127
78655,note_on,1,0,0,,6,,,66,127
78769,note_off,114,0,0,,4,,,76,127
78770,note_on,1,0,0,,2,,,74,127
78884,note_off,114,0,0,,2,,,74,127
78885,note_on,1,0,0,,1,,,73,127
78999,note_off,114,0,0,,1,,,73,127
79000,note_on,1,0,0,,12,,,71,127
79114,note_off,114,0,0,,12,,,71,127
79114,note_off,0,0,0,,6,,,66,127
79115,note_on,1,0,0,,6,,,54,127
79115,note_on,0,0,0,,12,,,71,127
79575,note_off,460,0,0,,12,,,71,127
79575,note_off,0,0,0,,6,,,54,127
79576,note_on,1,0,0,,6,,,54,127
79576,note_on,0,0,0,,2,,,74,127
79634,note_on,58,0,0,,1,,,73,127
79653,note_off,19,0,0,,2,,,74,127
79691,note_on,38,0,0,,2,,,74,127
79710,note_off,19,0,0,,1,,,73,127
79748,note_on,38,0,0,,1,,,73,127
79767,note_off,19,0,0,,2,,,74,127
79805,note_on,38,0,0,,2,,,74,127
79824,note_off,19,0,0,,1,,,73,127
79862,note_on,38,0,0,,1,,,73,127
79881,note_off,19,0,0,,2,,,74,127
79919,note_on,38,0,0,,12,,,71,127
79938,note_off,19,0,0,,1,,,73,127
79976,note_on,38,0,0,,1,,,73,127
79995,note_off,19,0,0,,12,,,71,127
80032,note_off,37,0,0,,6,,,54,127
80033,note_off,1,0,0,,1,,,73,127
80033,note_on,0,0,0,,7,,,55,127
80033,note_on,0,0,0,,12,,,71,127
80262,note_off,229,0,0,,12,,,71,127
80263,note_on,1,0,0,,12,,,83,127
80492,note_off,229,0,0,,7,,,55,127
80493,note_on,1,0,0,,2,,,50,127
80607,note_off,114,0,0,,12,,,83,127
80608,note_on,1,0,0,,10,,,81,127
80722,note_off,114,0,0,,10,,,81,127
80723,note_on,1,0,0,,7,,,79,127
80952,note_off,229,0,0,,2,,,50,127
80953,note_on,1,0,0,,4,,,52,127
81067,note_off,114,0,0,,7,,,79,127
81068,note_on,1,0,0,,6,,,78,127
81182,note_off,114,0,0,,6,,,78,127
81183,note_on,1,0,0,,4,,,76,127
81412,note_off,229,0,0,,4,,,52,127
81413,note_on,1,0,0,,6,,,54,127
81527,note_off,114,0,0,,4,,,76,127
81528,note_on,1,0,0,,2,,,74,127
81642,note_off,114,0,0,,2,,,74,127
81643,note_on,1,0,0,,1,,,73,127
81757,note_off,114,0,0,,1,,,73,127
81758,note_on,1,0,0,,12,,,71,127
81872,note_off,114,0,0,,12,,,71,127
81872,note_off,0,0,0,,6,,,54,127
81873,note_on,1,0,0,,6,,,42,127
81873,note_on,0,0,0,,12,,,71,127
82333,note_off,460,0,0,,12,,,71,127
82333,note_off,0,0,0,,6,,,42,127
82334,note_on,1,0,0,,6,,,42,127
82334,note_on,0,0,0,,2,,,74,127
82392,note_on,58,0,0,,1,,,73,127
82411,note_off,19,0,0,,2,,,74,127
82449,note_on,38,0,0,,2,,,74,127
82468,note_off,19,0,0,,1,,,73,127
82506,note_on,38,0,0,,1,,,73,127
82525,note_off,19,0,0,,2,,,74,127
82563,note_on,38,0,0,,2,,,74,127
82582,note_off,19,0,0,,1,,,73,127
82620,note_on,38,0,0,,1,,,73,127
82639,note_off,19,0,0,,2,,,74,127
82677,note_on,38,0,0,,12,,,71,127
82696,note_off,19,0,0,,1,,,73,127
82734,note_on,38,0,0,,1,,,73,127
82753,note_off,19,0,0,,12,,,71,127
82790,note_off,37,0,0,,1,,,73,127
82790,note_off,0,0,0,,6,,,42,127
82801,note_on,11,0,0,,12,,,47,127
82801,note_on,0,0,0,,12,,,71,127
84721,note_off,1920,0,0,,12,,,71,127
84721,note_off,0,0,0,,12,,,47,127
86016,end_of_track,1295,1,0,,,,,,
