tick,type,time,meta,track,program,channel,pitch,tempo,note,velocity
0,copyright,0,1,0,,,,,,
0,program_change,0,0,0,6,0,,,,
0,pitchwheel,0,0,0,,0,0,,,
0,program_change,0,0,0,6,1,,,,
0,pitchwheel,0,0,0,,1,-590,,,
0,program_change,0,0,0,6,2,,,,
0,pitchwheel,0,0,0,,2,-272,,,
0,program_change,0,0,0,6,3,,,,
0,pitchwheel,0,0,0,,3,-353,,,
0,program_change,0,0,0,6,4,,,,
0,pitchwheel,0,0,0,,4,-560,,,
0,program_change,0,0,0,6,5,,,,
0,pitchwheel,0,0,0,,5,-80,,,
0,program_change,0,0,0,6,6,,,,
0,pitchwheel,0,0,0,,6,-625,,,
0,program_change,0,0,0,6,7,,,,
0,pitchwheel,0,0,0,,7,-130,,,
0,program_change,0,0,0,6,8,,,,
0,pitchwheel,0,0,0,,8,-512,,,
0,program_change,0,0,0,6,10,,,,
0,pitchwheel,0,0,0,,10,-464,,,
0,program_change,0,0,0,6,11,,,,
0,pitchwheel,0,0,0,,11,-208,,,
0,program_change,0,0,0,6,12,,,,
0,pitchwheel,0,0,0,,12,-553,,,
0,set_tempo,0,1,0,,,,500000,,
35,note_on,35,0,0,,6,,,78,127
138,note_off,103,0,0,,6,,,78,127
140,note_on,2,0,0,,2,,,74,127
243,note_off,103,0,0,,2,,,74,127
245,note_on,2,0,0,,12,,,71,127
452,note_off,207,0,0,,12,,,71,127
454,note_on,2,0,0,,12,,,71,127
454,note_on,0,0,0,,7,,,67,127
661,note_off,207,0,0,,7,,,67,127
661,note_off,0,0,0,,12,,,71,127
663,note_on,2,0,0,,11,,,70,127
663,note_on,0,0,0,,6,,,66,127
870,note_off,207,0,0,,6,,,66,127
870,note_off,0,0,0,,11,,,70,127
872,note_on,2,0,0,,12,,,71,127
872,note_on,0,0,0,,4,,,64,127
1079,note_off,207,0,0,,4,,,64,127
1079,note_off,0,0,0,,12,,,71,127
1081,note_on,2,0,0,,6,,,66,127
1081,note_on,0,0,0,,2,,,62,127
1288,note_off,207,0,0,,2,,,62,127
1290,note_on,2,0,0,,1,,,61,127
1497,note_off,207,0,0,,1,,,61,127
1499,note_on,2,0,0,,2,,,62,127
1604,note_off,105,0,0,,6,,,66,127
1707,note_off,103,0,0,,2,,,62,127
1709,note_on,2,0,0,,12,,,71,127
1709,note_on,0,0,0,,12,,,59,127
1916,note_off,207,0,0,,12,,,59,127
1916,note_off,0,0,0,,12,,,71,127
1918,note_on,2,0,0,,1,,,73,127
1918,note_on,0,0,0,,4,,,64,127
2125,note_off,207,0,0,,4,,,64,127
2125,note_off,0,0,0,,1,,,73,127
2127,note_on,2,0,0,,2,,,74,127
2127,note_on,0,0,0,,7,,,67,127
2230,note_off,103,0,0,,2,,,74,127
2232,note_on,2,0,0,,4,,,76,127
2335,note_off,103,0,0,,4,,,76,127
2335,note_off,0,0,0,,7,,,67,127
2337,note_on,2,0,0,,2,,,74,127
2337,note_on,0,0,0,,6,,,66,127
2544,note_off,207,0,0,,6,,,66,127
2544,note_off,0,0,0,,2,,,74,127
2546,note_on,2,0,0,,1,,,73,127
2546,note_on,0,0,0,,4,,,64,127
2753,note_off,207,0,0,,4,,,64,127
2753,note_off,0,0,0,,1,,,73,127
2755,note_on,2,0,0,,11,,,82,127
2755,note_on,0,0,0,,2,,,62,127
2962,note_off,207,0,0,,2,,,62,127
2962,note_off,0,0,0,,11,,,82,127
2964,note_on,2,0,0,,12,,,83,127
2964,note_on,0,0,0,,1,,,61,127
3171,note_off,207,0,0,,1,,,61,127
3173,note_on,2,0,0,,2,,,62,127
3380,note_off,207,0,0,,2,,,62,127
3380,note_off,0,0,0,,12,,,83,127
3382,note_on,2,0,0,,12,,,71,127
3382,note_on,0,0,0,,12,,,59,127
3589,note_off,207,0,0,,12,,,59,127
3589,note_off,0,0,0,,12,,,71,127
3591,note_on,2,0,0,,1,,,73,127
3591,note_on,0,0,0,,4,,,64,127
3798,note_off,207,0,0,,4,,,64,127
3800,note_on,2,0,0,,7,,,67,127
3863,note_off,63,0,0,,1,,,73,127
3870,note_on,7,0,0,,2,,,74,127
3940,note_off,70,0,0,,2,,,74,127
3940,note_on,0,0,0,,4,,,76,127
4008,note_off,68,0,0,,7,,,67,127
4009,note_off,1,0,0,,4,,,76,127
4010,note_on,1,0,0,,2,,,74,127
4010,note_on,0,0,0,,6,,,66,127
4217,note_off,207,0,0,,6,,,66,127
4217,note_off,0,0,0,,2,,,74,127
4219,note_on,2,0,0,,1,,,73,127
4219,note_on,0,0,0,,4,,,64,127
4426,note_off,207,0,0,,4,,,64,127
4426,note_off,0,0,0,,1,,,73,127
4428,note_on,2,0,0,,11,,,82,127
4428,note_on,0,0,0,,2,,,62,127
4635,note_off,207,0,0,,2,,,62,127
4635,note_off,0,0,0,,11,,,82,127
4637,note_on,2,0,0,,12,,,83,127
4637,note_on,0,0,0,,1,,,61,127
4844,note_off,207,0,0,,1,,,61,127
4846,note_on,2,0,0,,2,,,62,127
4949,note_off,103,0,0,,12,,,83,127
4951,note_on,2,0,0,,10,,,81,127
5054,note_off,103,0,0,,10,,,81,127
5054,note_off,0,0,0,,2,,,62,127
5056,note_on,2,0,0,,7,,,79,127
5056,note_on,0,0,0,,12,,,59,127
5159,note_off,103,0,0,,7,,,79,127
5161,note_on,2,0,0,,6,,,78,127
5264,note_off,103,0,0,,6,,,78,127
5264,note_off,0,0,0,,12,,,59,127
5266,note_on,2,0,0,,4,,,76,127
5266,note_on,0,0,0,,4,,,64,127
5369,note_off,103,0,0,,4,,,76,127
5371,note_on,2,0,0,,7,,,79,127
5474,note_off,103,0,0,,7,,,79,127
5474,note_off,0,0,0,,4,,,64,127
5476,note_on,2,0,0,,6,,,78,127
5476,note_on,0,0,0,,7,,,67,127
5579,note_off,103,0,0,,6,,,78,127
5581,note_on,2,0,0,,4,,,76,127
5684,note_off,103,0,0,,4,,,76,127
5684,note_off,0,0,0,,7,,,67,127
5686,note_on,2,0,0,,2,,,74,127
5686,note_on,0,0,0,,6,,,66,127
5789,note_off,103,0,0,,2,,,74,127
5791,note_on,2,0,0,,1,,,73,127
5894,note_off,103,0,0,,1,,,73,127
5894,note_off,0,0,0,,6,,,66,127
5896,note_on,2,0,0,,12,,,71,127
5896,note_on,0,0,0,,4,,,64,127
5999,note_off,103,0,0,,12,,,71,127
6001,note_on,2,0,0,,11,,,70,127
6104,note_off,103,0,0,,11,,,70,127
6104,note_off,0,0,0,,4,,,64,127
6106,note_on,2,0,0,,12,,,71,127
6106,note_on,0,0,0,,2,,,62,127
6209,note_off,103,0,0,,12,,,71,127
6211,note_on,2,0,0,,11,,,70,127
6314,note_off,103,0,0,,11,,,70,127
6314,note_off,0,0,0,,2,,,62,127
6316,note_on,2,0,0,,12,,,71,127
6316,note_on,0,0,0,,1,,,61,127
6419,note_off,103,0,0,,12,,,71,127
6421,note_on,2,0,0,,11,,,70,127
6524,note_off,103,0,0,,11,,,70,127
6524,note_off,0,0,0,,1,,,61,127
6526,note_on,2,0,0,,12,,,71,127
6526,note_on,0,0,0,,2,,,62,127
6629,note_off,103,0,0,,12,,,71,127
6631,note_on,2,0,0,,11,,,70,127
6734,note_off,103,0,0,,11,,,70,127
6734,note_off,0,0,0,,2,,,62,127
6736,note_on,2,0,0,,12,,,71,127
6736,note_on,0,0,0,,12,,,59,127
6839,note_off,103,0,0,,12,,,71,127
6841,note_on,2,0,0,,11,,,70,127
6944,note_off,103,0,0,,11,,,70,127
6944,note_off,0,0,0,,12,,,59,127
6946,note_on,2,0,0,,12,,,71,127
6946,note_on,0,0,0,,4,,,64,127
7049,note_off,103,0,0,,12,,,71,127
7051,note_on,2,0,0,,1,,,73,127
7154,note_off,103,0,0,,1,,,73,127
7154,note_off,0,0,0,,4,,,64,127
7156,note_on,2,0,0,,2,,,74,127
7156,note_on,0,0,0,,7,,,67,127
7259,note_off,103,0,0,,2,,,74,127
7261,note_on,2,0,0,,12,,,71,127
7364,note_off,103,0,0,,12,,,71,127
7364,note_off,0,0,0,,7,,,67,127
7366,note_on,2,0,0,,1,,,73,127
7366,note_on,0,0,0,,6,,,66,127
7469,note_off,103,0,0,,1,,,73,127
7471,note_on,2,0,0,,2,,,74,127
7574,note_off,103,0,0,,2,,,74,127
7574,note_off,0,0,0,,6,,,66,127
7576,note_on,2,0,0,,4,,,76,127
7576,note_on,0,0,0,,4,,,64,127
7679,note_off,103,0,0,,4,,,76,127
7681,note_on,2,0,0,,1,,,73,127
7784,note_off,103,0,0,,1,,,73,127
7784,note_off,0,0,0,,4,,,64,127
7786,note_on,2,0,0,,12,,,71,127
7786,note_on,0,0,0,,2,,,62,127
7889,note_off,103,0,0,,12,,,71,127
7891,note_on,2,0,0,,11,,,70,127
7994,note_off,103,0,0,,11,,,70,127
7994,note_off,0,0,0,,2,,,62,127
7996,note_on,2,0,0,,12,,,71,127
7996,note_on,0,0,0,,1,,,61,127
8099,note_off,103,0,0,,12,,,71,127
8101,note_on,2,0,0,,11,,,70,127
8204,note_off,103,0,0,,11,,,70,127
8204,note_off,0,0,0,,1,,,61,127
8206,note_on,2,0,0,,12,,,71,127
8206,note_on,0,0,0,,2,,,62,127
8309,note_off,103,0,0,,12,,,71,127
8311,note_on,2,0,0,,11,,,70,127
8414,note_off,103,0,0,,11,,,70,127
8414,note_off,0,0,0,,2,,,62,127
8416,note_on,2,0,0,,12,,,71,127
8416,note_on,0,0,0,,12,,,59,127
8519,note_off,103,0,0,,12,,,71,127
8521,note_on,2,0,0,,11,,,70,127
8624,note_off,103,0,0,,11,,,70,127
8624,note_off,0,0,0,,12,,,59,127
8626,note_on,2,0,0,,12,,,71,127
8626,note_on,0,0,0,,4,,,64,127
8729,note_off,103,0,0,,12,,,71,127
8731,note_on,2,0,0,,1,,,73,127
8834,note_off,103,0,0,,1,,,73,127
8834,note_off,0,0,0,,4,,,64,127
8836,note_on,2,0,0,,2,,,74,127
8836,note_on,0,0,0,,7,,,67,127
8939,note_off,103,0,0,,2,,,74,127
8941,note_on,2,0,0,,12,,,71,127
9044,note_off,103,0,0,,12,,,71,127
9044,note_off,0,0,0,,7,,,67,127
9046,note_on,2,0,0,,1,,,73,127
9046,note_on,0,0,0,,6,,,66,127
9149,note_off,103,0,0,,1,,,73,127
9151,note_on,2,0,0,,2,,,74,127
9254,note_off,103,0,0,,2,,,74,127
9254,note_off,0,0,0,,6,,,66,127
9256,note_on,2,0,0,,4,,,76,127
9256,note_on,0,0,0,,6,,,54,127
9359,note_off,103,0,0,,4,,,76,127
9361,note_on,2,0,0,,1,,,73,127
9464,note_off,103,0,0,,1,,,73,127
9464,note_off,0,0,0,,6,,,54,127
9466,note_on,2,0,0,,2,,,74,127
9466,note_on,0,0,0,,12,,,59,127
9569,note_off,103,0,0,,2,,,74,127
9571,note_on,2,0,0,,1,,,73,127
9674,note_off,103,0,0,,1,,,73,127
9676,note_on,2,0,0,,12,,,71,127
9881,note_off,205,0,0,,12,,,59,127
9990,note_off,109,0,0,,12,,,71,127
10095,note_on,105,0,0,,6,,,78,127
10198,note_off,103,0,0,,6,,,78,127
10200,note_on,2,0,0,,2,,,74,127
10303,note_off,103,0,0,,2,,,74,127
10305,note_on,2,0,0,,2,,,74,127
10512,note_off,207,0,0,,2,,,74,127
10514,note_on,2,0,0,,2,,,74,127
10514,note_on,0,0,0,,12,,,71,127
10721,note_off,207,0,0,,12,,,71,127
10721,note_off,0,0,0,,2,,,74,127
10723,note_on,2,0,0,,2,,,74,127
10723,note_on,0,0,0,,10,,,69,127
10930,note_off,207,0,0,,10,,,69,127
10930,note_off,0,0,0,,2,,,74,127
10932,note_on,2,0,0,,2,,,74,127
10932,note_on,0,0,0,,8,,,68,127
11139,note_off,207,0,0,,8,,,68,127
11139,note_off,0,0,0,,2,,,74,127
11141,note_on,2,0,0,,7,,,79,127
11141,note_on,0,0,0,,10,,,69,127
11191,note_off,50,0,0,,7,,,79,127
11193,note_on,2,0,0,,6,,,78,127
11243,note_off,50,0,0,,6,,,78,127
11245,note_on,2,0,0,,7,,,79,127
11295,note_off,50,0,0,,7,,,79,127
11297,note_on,2,0,0,,6,,,78,127
11347,note_off,50,0,0,,6,,,78,127
11349,note_on,2,0,0,,7,,,79,127
11349,note_on,0,0,0,,10,,,57,127
11399,note_off,50,0,0,,7,,,79,127
11401,note_on,2,0,0,,6,,,78,127
11451,note_off,50,0,0,,6,,,78,127
11453,note_on,2,0,0,,4,,,76,127
11503,note_off,50,0,0,,4,,,76,127
11505,note_on,2,0,0,,2,,,74,127
11553,note_off,48,0,0,,10,,,69,127
11555,note_off,2,0,0,,2,,,74,127
11555,note_off,0,0,0,,10,,,57,127
11557,note_on,2,0,0,,1,,,73,127
11764,note_off,207,0,0,,1,,,73,127
11766,note_on,2,0,0,,4,,,76,127
11869,note_off,103,0,0,,4,,,76,127
11871,note_on,2,0,0,,1,,,73,127
11974,note_off,103,0,0,,1,,,73,127
11976,note_on,2,0,0,,1,,,73,127
12183,note_off,207,0,0,,1,,,73,127
12185,note_on,2,0,0,,1,,,73,127
12185,note_on,0,0,0,,10,,,69,127
12392,note_off,207,0,0,,10,,,69,127
12392,note_off,0,0,0,,1,,,73,127
12394,note_on,2,0,0,,1,,,73,127
12394,note_on,0,0,0,,7,,,67,127
12601,note_off,207,0,0,,7,,,67,127
12601,note_off,0,0,0,,1,,,73,127
12603,note_on,2,0,0,,1,,,73,127
12603,note_on,0,0,0,,6,,,66,127
12810,note_off,207,0,0,,6,,,66,127
12810,note_off,0,0,0,,1,,,73,127
12812,note_on,2,0,0,,6,,,78,127
12812,note_on,0,0,0,,7,,,67,127
12862,note_off,50,0,0,,6,,,78,127
12864,note_on,2,0,0,,4,,,76,127
12914,note_off,50,0,0,,4,,,76,127
12916,note_on,2,0,0,,6,,,78,127
12966,note_off,50,0,0,,6,,,78,127
12968,note_on,2,0,0,,4,,,76,127
13018,note_off,50,0,0,,4,,,76,127
13020,note_on,2,0,0,,6,,,78,127
13020,note_on,0,0,0,,7,,,55,127
13070,note_off,50,0,0,,6,,,78,127
13072,note_on,2,0,0,,4,,,76,127
13122,note_off,50,0,0,,4,,,76,127
13124,note_on,2,0,0,,2,,,74,127
13174,note_off,50,0,0,,2,,,74,127
13176,note_on,2,0,0,,1,,,73,127
13224,note_off,48,0,0,,7,,,67,127
13226,note_off,2,0,0,,1,,,73,127
13228,note_on,2,0,0,,12,,,71,127
13269,note_off,41,0,0,,7,,,55,127
13435,note_off,166,0,0,,12,,,71,127
13437,note_on,2,0,0,,2,,,74,127
13540,note_off,103,0,0,,2,,,74,127
13542,note_on,2,0,0,,12,,,71,127
13645,note_off,103,0,0,,12,,,71,127
13647,note_on,2,0,0,,12,,,71,127
13854,note_off,207,0,0,,12,,,71,127
13856,note_on,2,0,0,,12,,,71,127
13856,note_on,0,0,0,,7,,,67,127
14063,note_off,207,0,0,,7,,,67,127
14063,note_off,0,0,0,,12,,,71,127
14065,note_on,2,0,0,,12,,,71,127
14065,note_on,0,0,0,,6,,,66,127
14272,note_off,207,0,0,,6,,,66,127
14272,note_off,0,0,0,,12,,,71,127
14274,note_on,2,0,0,,12,,,71,127
14274,note_on,0,0,0,,4,,,64,127
14481,note_off,207,0,0,,4,,,64,127
14481,note_off,0,0,0,,12,,,71,127
14483,note_on,2,0,0,,4,,,76,127
14483,note_on,0,0,0,,6,,,66,127
14533,note_off,50,0,0,,4,,,76,127
14535,note_on,2,0,0,,2,,,74,127
14585,note_off,50,0,0,,2,,,74,127
14587,note_on,2,0,0,,4,,,76,127
14637,note_off,50,0,0,,4,,,76,127
14639,note_on,2,0,0,,2,,,74,127
14689,note_off,50,0,0,,2,,,74,127
14691,note_on,2,0,0,,4,,,76,127
14691,note_on,0,0,0,,6,,,54,127
14741,note_off,50,0,0,,4,,,76,127
14743,note_on,2,0,0,,2,,,74,127
14793,note_off,50,0,0,,2,,,74,127
14795,note_on,2,0,0,,1,,,73,127
14845,note_off,50,0,0,,1,,,73,127
14847,note_on,2,0,0,,12,,,71,127
14895,note_off,48,0,0,,6,,,66,127
14897,note_off,2,0,0,,12,,,71,127
14899,note_on,2,0,0,,11,,,70,127
15002,note_off,103,0,0,,11,,,70,127
15004,note_off,2,0,0,,6,,,54,127
15004,note_on,0,0,0,,12,,,71,127
15107,note_off,103,0,0,,12,,,71,127
15109,note_on,2,0,0,,1,,,73,127
15109,note_on,0,0,0,,4,,,64,127
15212,note_off,103,0,0,,1,,,73,127
15214,note_on,2,0,0,,11,,,70,127
15317,note_off,103,0,0,,11,,,70,127
15317,note_off,0,0,0,,4,,,64,127
15319,note_on,2,0,0,,12,,,71,127
15319,note_on,0,0,0,,2,,,62,127
15422,note_off,103,0,0,,12,,,71,127
15424,note_on,2,0,0,,1,,,73,127
15527,note_off,103,0,0,,1,,,73,127
15527,note_off,0,0,0,,2,,,62,127
15529,note_on,2,0,0,,2,,,74,127
15529,note_on,0,0,0,,12,,,59,127
15632,note_off,103,0,0,,2,,,74,127
15634,note_on,2,0,0,,12,,,71,127
15737,note_off,103,0,0,,12,,,71,127
15737,note_off,0,0,0,,12,,,59,127
15739,note_on,2,0,0,,1,,,73,127
15739,note_on,0,0,0,,11,,,58,127
15842,note_off,103,0,0,,1,,,73,127
15844,note_on,2,0,0,,2,,,74,127
15947,note_off,103,0,0,,2,,,74,127
15947,note_off,0,0,0,,11,,,58,127
15949,note_on,2,0,0,,4,,,76,127
15949,note_on,0,0,0,,6,,,54,127
16052,note_off,103,0,0,,4,,,76,127
16054,note_on,2,0,0,,1,,,73,127
16157,note_off,103,0,0,,1,,,73,127
16157,note_off,0,0,0,,6,,,54,127
16159,note_on,2,0,0,,12,,,71,127
16159,note_on,0,0,0,,7,,,55,127
16262,note_off,103,0,0,,12,,,71,127
16264,note_on,2,0,0,,11,,,70,127
16367,note_off,103,0,0,,11,,,70,127
16367,note_off,0,0,0,,7,,,55,127
16369,note_on,2,0,0,,12,,,71,127
16369,note_on,0,0,0,,6,,,54,127
16472,note_off,103,0,0,,12,,,71,127
16474,note_on,2,0,0,,11,,,70,127
16577,note_off,103,0,0,,11,,,70,127
16577,note_off,0,0,0,,6,,,54,127
16579,note_on,2,0,0,,12,,,71,127
16579,note_on,0,0,0,,4,,,52,127
16682,note_off,103,0,0,,12,,,71,127
16684,note_on,2,0,0,,11,,,70,127
16787,note_off,103,0,0,,11,,,70,127
16787,note_off,0,0,0,,4,,,52,127
16789,note_on,2,0,0,,12,,,71,127
16789,note_on,0,0,0,,2,,,50,127
16892,note_off,103,0,0,,12,,,71,127
16894,note_on,2,0,0,,11,,,70,127
16997,note_off,103,0,0,,11,,,70,127
16997,note_off,0,0,0,,2,,,50,127
16999,note_on,2,0,0,,12,,,71,127
16999,note_on,0,0,0,,4,,,52,127
17102,note_off,103,0,0,,12,,,71,127
17104,note_on,2,0,0,,1,,,73,127
17207,note_off,103,0,0,,1,,,73,127
17207,note_off,0,0,0,,4,,,52,127
17209,note_on,2,0,0,,2,,,74,127
17209,note_on,0,0,0,,7,,,55,127
17312,note_off,103,0,0,,2,,,74,127
17314,note_on,2,0,0,,12,,,71,127
17417,note_off,103,0,0,,12,,,71,127
17417,note_off,0,0,0,,7,,,55,127
17419,note_on,2,0,0,,1,,,73,127
17419,note_on,0,0,0,,6,,,54,127
17522,note_off,103,0,0,,1,,,73,127
17524,note_on,2,0,0,,2,,,74,127
17627,note_off,103,0,0,,2,,,74,127
17627,note_off,0,0,0,,6,,,54,127
17629,note_on,2,0,0,,4,,,76,127
17629,note_on,0,0,0,,4,,,52,127
17732,note_off,103,0,0,,4,,,76,127
17734,note_on,2,0,0,,1,,,73,127
17837,note_off,103,0,0,,1,,,73,127
17837,note_off,0,0,0,,4,,,52,127
17839,note_on,2,0,0,,12,,,71,127
17839,note_on,0,0,0,,2,,,50,127
17942,note_off,103,0,0,,12,,,71,127
17944,note_on,2,0,0,,11,,,70,127
18047,note_off,103,0,0,,11,,,70,127
18047,note_off,0,0,0,,2,,,50,127
18049,note_on,2,0,0,,12,,,71,127
18049,note_on,0,0,0,,1,,,49,127
18152,note_off,103,0,0,,12,,,71,127
18154,note_on,2,0,0,,11,,,70,127
18257,note_off,103,0,0,,11,,,70,127
18257,note_off,0,0,0,,1,,,49,127
18259,note_on,2,0,0,,12,,,71,127
18259,note_on,0,0,0,,2,,,50,127
18362,note_off,103,0,0,,12,,,71,127
18364,note_on,2,0,0,,11,,,70,127
18467,note_off,103,0,0,,11,,,70,127
18467,note_off,0,0,0,,2,,,50,127
18469,note_on,2,0,0,,12,,,71,127
18469,note_on,0,0,0,,12,,,47,127
18572,note_off,103,0,0,,12,,,71,127
18574,note_on,2,0,0,,11,,,70,127
18677,note_off,103,0,0,,11,,,70,127
18677,note_off,0,0,0,,12,,,47,127
18679,note_on,2,0,0,,12,,,71,127
18679,note_on,0,0,0,,4,,,52,127
18782,note_off,103,0,0,,12,,,71,127
18784,note_on,2,0,0,,1,,,73,127
18887,note_off,103,0,0,,1,,,73,127
18887,note_off,0,0,0,,4,,,52,127
18889,note_on,2,0,0,,2,,,74,127
18889,note_on,0,0,0,,7,,,55,127
18992,note_off,103,0,0,,2,,,74,127
18994,note_on,2,0,0,,12,,,71,127
19097,note_off,103,0,0,,12,,,71,127
19097,note_off,0,0,0,,7,,,55,127
19099,note_on,2,0,0,,1,,,73,127
19099,note_on,0,0,0,,6,,,54,127
19202,note_off,103,0,0,,1,,,73,127
19204,note_on,2,0,0,,2,,,74,127
19307,note_off,103,0,0,,2,,,74,127
19307,note_off,0,0,0,,6,,,54,127
19309,note_on,2,0,0,,4,,,76,127
19309,note_on,0,0,0,,6,,,42,127
19412,note_off,103,0,0,,4,,,76,127
19414,note_on,2,0,0,,1,,,73,127
19517,note_off,103,0,0,,1,,,73,127
19517,note_off,0,0,0,,6,,,42,127
19519,note_on,2,0,0,,12,,,83,127
19519,note_on,0,0,0,,12,,,47,127
19624,note_on,105,0,0,,12,,,71,127
19727,note_off,103,0,0,,12,,,71,127
19727,note_off,0,0,0,,12,,,47,127
19727,note_off,0,0,0,,12,,,83,127
19729,note_on,2,0,0,,12,,,83,127
19729,note_on,0,0,0,,1,,,49,127
19834,note_on,105,0,0,,12,,,71,127
19937,note_off,103,0,0,,12,,,71,127
19937,note_off,0,0,0,,1,,,49,127
19937,note_off,0,0,0,,12,,,83,127
19939,note_on,2,0,0,,12,,,83,127
19939,note_on,0,0,0,,2,,,50,127
20042,note_off,103,0,0,,12,,,83,127
20044,note_on,2,0,0,,10,,,81,127
20147,note_off,103,0,0,,10,,,81,127
20147,note_off,0,0,0,,2,,,50,127
20149,note_on,2,0,0,,7,,,79,127
20149,note_on,0,0,0,,12,,,47,127
20252,note_off,103,0,0,,7,,,79,127
20254,note_on,2,0,0,,6,,,78,127
20357,note_off,103,0,0,,6,,,78,127
20357,note_off,0,0,0,,12,,,47,127
20359,note_on,2,0,0,,7,,,79,127
20359,note_on,0,0,0,,4,,,52,127
20462,note_off,103,0,0,,7,,,79,127
20464,note_on,2,0,0,,6,,,78,127
20567,note_off,103,0,0,,6,,,78,127
20567,note_off,0,0,0,,4,,,52,127
20569,note_on,2,0,0,,4,,,76,127
20569,note_on,0,0,0,,6,,,54,127
20672,note_off,103,0,0,,4,,,76,127
20674,note_on,2,0,0,,2,,,74,127
20777,note_off,103,0,0,,2,,,74,127
20777,note_off,0,0,0,,6,,,54,127
20779,note_on,2,0,0,,4,,,76,127
20779,note_on,0,0,0,,7,,,55,127
20882,note_off,103,0,0,,4,,,76,127
20884,note_on,2,0,0,,2,,,74,127
20987,note_off,103,0,0,,2,,,74,127
20987,note_off,0,0,0,,7,,,55,127
20989,note_on,2,0,0,,1,,,73,127
20989,note_on,0,0,0,,4,,,52,127
21092,note_off,103,0,0,,1,,,73,127
21094,note_on,2,0,0,,12,,,71,127
21197,note_off,103,0,0,,12,,,71,127
21197,note_off,0,0,0,,4,,,52,127
21199,note_on,2,0,0,,10,,,81,127
21199,note_on,0,0,0,,10,,,45,127
21304,note_on,105,0,0,,10,,,69,127
21407,note_off,103,0,0,,10,,,69,127
21407,note_off,0,0,0,,10,,,45,127
21407,note_off,0,0,0,,10,,,81,127
21409,note_on,2,0,0,,10,,,81,127
21409,note_on,0,0,0,,12,,,47,127
21514,note_on,105,0,0,,10,,,69,127
21617,note_off,103,0,0,,10,,,69,127
21617,note_off,0,0,0,,12,,,47,127
21617,note_off,0,0,0,,10,,,81,127
21619,note_on,2,0,0,,10,,,81,127
21619,note_on,0,0,0,,1,,,49,127
21722,note_off,103,0,0,,10,,,81,127
21724,note_on,2,0,0,,7,,,79,127
21827,note_off,103,0,0,,7,,,79,127
21827,note_off,0,0,0,,1,,,49,127
21829,note_on,2,0,0,,6,,,78,127
21829,note_on,0,0,0,,10,,,45,127
21932,note_off,103,0,0,,6,,,78,127
21934,note_on,2,0,0,,4,,,76,127
22037,note_off,103,0,0,,4,,,76,127
22037,note_off,0,0,0,,10,,,45,127
22039,note_on,2,0,0,,6,,,78,127
22039,note_on,0,0,0,,2,,,50,127
22142,note_off,103,0,0,,6,,,78,127
22144,note_on,2,0,0,,4,,,76,127
22247,note_off,103,0,0,,4,,,76,127
22247,note_off,0,0,0,,2,,,50,127
22249,note_on,2,0,0,,2,,,74,127
22249,note_on,0,0,0,,4,,,52,127
22352,note_off,103,0,0,,2,,,74,127
22354,note_on,2,0,0,,1,,,73,127
22457,note_off,103,0,0,,1,,,73,127
22457,note_off,0,0,0,,4,,,52,127
22459,note_on,2,0,0,,2,,,74,127
22459,note_on,0,0,0,,6,,,54,127
22562,note_off,103,0,0,,2,,,74,127
22564,note_on,2,0,0,,1,,,73,127
22667,note_off,103,0,0,,1,,,73,127
22667,note_off,0,0,0,,6,,,54,127
22669,note_on,2,0,0,,12,,,71,127
22669,note_on,0,0,0,,2,,,50,127
22772,note_off,103,0,0,,12,,,71,127
22774,note_on,2,0,0,,10,,,69,127
22877,note_off,103,0,0,,10,,,69,127
22877,note_off,0,0,0,,2,,,50,127
22879,note_on,2,0,0,,12,,,71,127
22879,note_on,0,0,0,,7,,,55,127
22982,note_off,103,0,0,,12,,,71,127
22984,note_on,2,0,0,,10,,,69,127
23087,note_off,103,0,0,,10,,,69,127
23089,note_on,2,0,0,,7,,,67,127
23192,note_off,103,0,0,,7,,,67,127
23194,note_on,2,0,0,,6,,,66,127
23297,note_off,103,0,0,,6,,,66,127
23299,note_on,2,0,0,,4,,,64,127
23299,note_on,0,0,0,,7,,,43,127
23402,note_off,103,0,0,,4,,,64,127
23404,note_on,2,0,0,,2,,,62,127
23507,note_off,103,0,0,,2,,,62,127
23509,note_on,2,0,0,,1,,,61,127
23612,note_off,103,0,0,,1,,,61,127
23614,note_on,2,0,0,,12,,,59,127
23645,note_off,31,0,0,,7,,,55,127
23717,note_off,72,0,0,,12,,,59,127
23717,note_off,0,0,0,,7,,,43,127
23719,note_on,2,0,0,,10,,,57,127
23719,note_on,0,0,0,,10,,,69,127
23822,note_off,103,0,0,,10,,,69,127
23824,note_on,2,0,0,,7,,,67,127
23927,note_off,103,0,0,,7,,,67,127
23929,note_on,2,0,0,,6,,,66,127
24032,note_off,103,0,0,,6,,,66,127
24034,note_on,2,0,0,,4,,,64,127
24134,note_off,100,0,0,,10,,,57,127
24136,note_off,2,0,0,,4,,,64,127
24138,note_on,2,0,0,,6,,,66,127
24241,note_off,103,0,0,,6,,,66,127
24243,note_on,2,0,0,,4,,,64,127
24346,note_off,103,0,0,,4,,,64,127
24348,note_on,2,0,0,,2,,,62,127
24451,note_off,103,0,0,,2,,,62,127
24453,note_on,2,0,0,,1,,,61,127
24556,note_off,103,0,0,,1,,,61,127
24558,note_on,2,0,0,,2,,,62,127
24661,note_off,103,0,0,,2,,,62,127
24663,note_on,2,0,0,,1,,,61,127
24766,note_off,103,0,0,,1,,,61,127
24768,note_on,2,0,0,,12,,,59,127
24871,note_off,103,0,0,,12,,,59,127
24873,note_on,2,0,0,,10,,,57,127
24976,note_off,103,0,0,,10,,,57,127
24978,note_on,2,0,0,,2,,,86,127
24978,note_on,0,0,0,,2,,,74,127
24978,note_on,0,0,0,,12,,,59,127
25081,note_off,103,0,0,,12,,,59,127
25083,note_on,2,0,0,,10,,,57,127
25186,note_off,103,0,0,,10,,,57,127
25188,note_on,2,0,0,,7,,,55,127
25291,note_off,103,0,0,,7,,,55,127
25293,note_on,2,0,0,,6,,,54,127
25396,note_off,103,0,0,,6,,,54,127
25396,note_off,0,0,0,,2,,,74,127
25396,note_off,0,0,0,,2,,,86,127
25398,note_on,2,0,0,,2,,,74,127
25398,note_on,0,0,0,,2,,,86,127
25398,note_on,0,0,0,,7,,,55,127
25501,note_off,103,0,0,,7,,,55,127
25503,note_on,2,0,0,,6,,,54,127
25606,note_off,103,0,0,,6,,,54,127
25608,note_on,2,0,0,,4,,,52,127
25711,note_off,103,0,0,,4,,,52,127
25713,note_on,2,0,0,,2,,,50,127
25816,note_off,103,0,0,,2,,,50,127
25816,note_off,0,0,0,,2,,,86,127
25816,note_off,0,0,0,,2,,,74,127
25818,note_on,2,0,0,,2,,,74,127
25818,note_on,0,0,0,,2,,,86,127
25818,note_on,0,0,0,,4,,,52,127
25921,note_off,103,0,0,,4,,,52,127
25923,note_on,2,0,0,,2,,,50,127
26026,note_off,103,0,0,,2,,,50,127
26028,note_on,2,0,0,,1,,,49,127
26131,note_off,103,0,0,,1,,,49,127
26133,note_on,2,0,0,,12,,,47,127
26236,note_off,103,0,0,,12,,,47,127
26236,note_off,0,0,0,,2,,,86,127
26236,note_off,0,0,0,,2,,,74,127
26238,note_on,2,0,0,,1,,,85,127
26238,note_on,0,0,0,,10,,,45,127
26341,note_off,103,0,0,,1,,,85,127
26343,note_on,2,0,0,,12,,,83,127
26446,note_off,103,0,0,,12,,,83,127
26448,note_on,2,0,0,,10,,,81,127
26551,note_off,103,0,0,,10,,,81,127
26553,note_on,2,0,0,,7,,,79,127
26653,note_off,100,0,0,,10,,,45,127
26655,note_off,2,0,0,,7,,,79,127
26657,note_on,2,0,0,,6,,,78,127
26760,note_off,103,0,0,,6,,,78,127
26762,note_on,2,0,0,,4,,,76,127
26865,note_off,103,0,0,,4,,,76,127
26867,note_on,2,0,0,,2,,,74,127
26867,note_on,0,0,0,,10,,,57,127
26970,note_off,103,0,0,,2,,,74,127
26972,note_on,2,0,0,,1,,,73,127
27075,note_off,103,0,0,,1,,,73,127
27075,note_off,0,0,0,,10,,,57,127
27077,note_on,2,0,0,,2,,,74,127
27077,note_on,0,0,0,,12,,,59,127
27284,note_off,207,0,0,,12,,,59,127
27284,note_off,0,0,0,,2,,,74,127
27286,note_on,2,0,0,,2,,,86,127
27286,note_on,0,0,0,,7,,,55,127
27493,note_off,207,0,0,,7,,,55,127
27493,note_off,0,0,0,,2,,,86,127
27495,note_on,2,0,0,,6,,,78,127
27495,note_on,0,0,0,,10,,,57,127
27545,note_off,50,0,0,,6,,,78,127
27547,note_on,2,0,0,,4,,,76,127
27597,note_off,50,0,0,,4,,,76,127
27599,note_on,2,0,0,,6,,,78,127
27649,note_off,50,0,0,,6,,,78,127
27651,note_on,2,0,0,,4,,,76,127
27701,note_off,50,0,0,,4,,,76,127
27703,note_on,2,0,0,,6,,,78,127
27703,note_on,0,0,0,,10,,,45,127
27753,note_off,50,0,0,,6,,,78,127
27755,note_on,2,0,0,,4,,,76,127
27805,note_off,50,0,0,,4,,,76,127
27807,note_on,2,0,0,,2,,,74,127
27857,note_off,50,0,0,,2,,,74,127
27859,note_on,2,0,0,,4,,,76,127
27907,note_off,48,0,0,,10,,,57,127
27909,note_off,2,0,0,,4,,,76,127
27909,note_off,0,0,0,,10,,,45,127
27911,note_on,2,0,0,,2,,,74,127
27911,note_on,0,0,0,,2,,,50,127
28118,note_off,207,0,0,,2,,,50,127
28120,note_on,2,0,0,,4,,,52,127
28314,note_off,194,0,0,,2,,,74,127
28327,note_off,13,0,0,,4,,,52,127
28329,note_on,2,0,0,,6,,,54,127
28536,note_off,207,0,0,,6,,,54,127
28538,note_on,2,0,0,,2,,,74,127
28538,note_on,0,0,0,,2,,,50,127
28641,note_off,103,0,0,,2,,,74,127
28643,note_on,2,0,0,,10,,,69,127
28746,note_off,103,0,0,,10,,,69,127
28746,note_off,0,0,0,,2,,,50,127
28748,note_on,2,0,0,,12,,,71,127
28748,note_on,0,0,0,,7,,,55,127
28955,note_off,207,0,0,,7,,,55,127
28955,note_off,0,0,0,,12,,,71,127
28957,note_on,2,0,0,,7,,,79,127
28957,note_on,0,0,0,,4,,,52,127
29164,note_off,207,0,0,,4,,,52,127
29166,note_on,2,0,0,,10,,,57,127
29373,note_off,207,0,0,,10,,,57,127
29373,note_off,0,0,0,,7,,,79,127
29375,note_on,2,0,0,,4,,,76,127
29375,note_on,0,0,0,,7,,,55,127
29478,note_off,103,0,0,,4,,,76,127
29480,note_on,2,0,0,,1,,,73,127
29583,note_off,103,0,0,,1,,,73,127
29583,note_off,0,0,0,,7,,,55,127
29585,note_on,2,0,0,,1,,,73,127
29585,note_on,0,0,0,,6,,,54,127
29792,note_off,207,0,0,,6,,,54,127
29792,note_off,0,0,0,,1,,,73,127
29794,note_on,2,0,0,,2,,,74,127
29794,note_on,0,0,0,,4,,,52,127
30001,note_off,207,0,0,,4,,,52,127
30003,note_on,2,0,0,,6,,,54,127
30108,note_off,105,0,0,,2,,,74,127
30211,note_off,103,0,0,,6,,,54,127
30213,note_on,2,0,0,,2,,,74,127
30213,note_on,0,0,0,,2,,,50,127
30316,note_off,103,0,0,,2,,,74,127
30318,note_on,2,0,0,,10,,,69,127
30421,note_off,103,0,0,,10,,,69,127
30421,note_off,0,0,0,,2,,,50,127
30423,note_on,2,0,0,,12,,,71,127
30423,note_on,0,0,0,,7,,,55,127
30630,note_off,207,0,0,,7,,,55,127
30630,note_off,0,0,0,,12,,,71,127
30632,note_on,2,0,0,,12,,,83,127
30632,note_on,0,0,0,,4,,,52,127
30839,note_off,207,0,0,,4,,,52,127
30841,note_on,2,0,0,,10,,,57,127
31048,note_off,207,0,0,,10,,,57,127
31048,note_off,0,0,0,,12,,,83,127
31050,note_on,2,0,0,,10,,,81,127
31050,note_on,0,0,0,,7,,,55,127
31153,note_off,103,0,0,,10,,,81,127
31155,note_on,2,0,0,,1,,,73,127
31258,note_off,103,0,0,,1,,,73,127
31258,note_off,0,0,0,,7,,,55,127
31260,note_on,2,0,0,,1,,,73,127
31260,note_on,0,0,0,,6,,,54,127
31467,note_off,207,0,0,,6,,,54,127
31467,note_off,0,0,0,,1,,,73,127
31469,note_on,2,0,0,,2,,,74,127
31469,note_on,0,0,0,,4,,,52,127
31676,note_off,207,0,0,,4,,,52,127
31678,note_on,2,0,0,,6,,,54,127
31783,note_off,105,0,0,,2,,,74,127
31886,note_off,103,0,0,,6,,,54,127
31888,note_on,2,0,0,,2,,,86,127
31888,note_on,0,0,0,,2,,,50,127
31991,note_off,103,0,0,,2,,,86,127
31993,note_on,2,0,0,,10,,,81,127
32096,note_off,103,0,0,,10,,,81,127
32096,note_off,0,0,0,,2,,,50,127
32098,note_on,2,0,0,,12,,,83,127
32098,note_on,0,0,0,,7,,,55,127
32201,note_off,103,0,0,,12,,,83,127
32203,note_on,2,0,0,,6,,,78,127
32306,note_off,103,0,0,,6,,,78,127
32306,note_off,0,0,0,,7,,,55,127
32308,note_on,2,0,0,,7,,,79,127
32308,note_on,0,0,0,,4,,,52,127
32411,note_off,103,0,0,,7,,,79,127
32413,note_on,2,0,0,,4,,,76,127
32516,note_off,103,0,0,,4,,,76,127
32516,note_off,0,0,0,,4,,,52,127
32518,note_on,2,0,0,,2,,,74,127
32518,note_on,0,0,0,,10,,,57,127
32725,note_off,207,0,0,,10,,,57,127
32725,note_off,0,0,0,,2,,,74,127
32727,note_on,2,0,0,,2,,,74,127
32727,note_on,0,0,0,,10,,,45,127
32777,note_off,50,0,0,,2,,,74,127
32779,note_on,2,0,0,,1,,,73,127
32829,note_off,50,0,0,,1,,,73,127
32831,note_on,2,0,0,,12,,,71,127
32881,note_off,50,0,0,,12,,,71,127
32883,note_on,2,0,0,,1,,,73,127
32933,note_off,50,0,0,,1,,,73,127
32933,note_off,0,0,0,,10,,,45,127
32935,note_on,2,0,0,,2,,,74,127
32935,note_on,0,0,0,,2,,,50,127
33142,note_off,207,0,0,,2,,,50,127
33144,note_on,2,0,0,,4,,,52,127
33349,note_off,205,0,0,,2,,,74,127
33351,note_off,2,0,0,,4,,,52,127
33353,note_on,2,0,0,,6,,,54,127
33560,note_off,207,0,0,,6,,,54,127
33562,note_on,2,0,0,,2,,,74,127
33562,note_on,0,0,0,,2,,,50,127
33665,note_off,103,0,0,,2,,,74,127
33667,note_on,2,0,0,,10,,,69,127
33770,note_off,103,0,0,,10,,,69,127
33770,note_off,0,0,0,,2,,,50,127
33772,note_on,2,0,0,,12,,,71,127
33772,note_on,0,0,0,,7,,,55,127
33979,note_off,207,0,0,,7,,,55,127
33979,note_off,0,0,0,,12,,,71,127
33981,note_on,2,0,0,,7,,,79,127
33981,note_on,0,0,0,,4,,,52,127
34188,note_off,207,0,0,,4,,,52,127
34190,note_on,2,0,0,,10,,,57,127
34351,note_off,161,0,0,,7,,,79,127
34397,note_off,46,0,0,,10,,,57,127
34399,note_on,2,0,0,,4,,,76,127
34399,note_on,0,0,0,,7,,,55,127
34502,note_off,103,0,0,,4,,,76,127
34504,note_on,2,0,0,,1,,,73,127
34607,note_off,103,0,0,,1,,,73,127
34607,note_off,0,0,0,,7,,,55,127
34609,note_on,2,0,0,,1,,,73,127
34609,note_on,0,0,0,,6,,,54,127
34816,note_off,207,0,0,,6,,,54,127
34816,note_off,0,0,0,,1,,,73,127
34818,note_on,2,0,0,,2,,,74,127
34818,note_on,0,0,0,,4,,,52,127
35025,note_off,207,0,0,,4,,,52,127
35027,note_on,2,0,0,,6,,,54,127
35188,note_off,161,0,0,,2,,,74,127
35234,note_off,46,0,0,,6,,,54,127
35236,note_on,2,0,0,,2,,,74,127
35236,note_on,0,0,0,,2,,,50,127
35339,note_off,103,0,0,,2,,,74,127
35341,note_on,2,0,0,,10,,,69,127
35444,note_off,103,0,0,,10,,,69,127
35444,note_off,0,0,0,,2,,,50,127
35446,note_on,2,0,0,,12,,,71,127
35446,note_on,0,0,0,,7,,,55,127
35653,note_off,207,0,0,,7,,,55,127
35653,note_off,0,0,0,,12,,,71,127
35655,note_on,2,0,0,,12,,,83,127
35655,note_on,0,0,0,,4,,,52,127
35862,note_off,207,0,0,,4,,,52,127
35864,note_on,2,0,0,,10,,,57,127
36025,note_off,161,0,0,,12,,,83,127
36071,note_off,46,0,0,,10,,,57,127
36073,note_on,2,0,0,,10,,,81,127
36073,note_on,0,0,0,,7,,,55,127
36176,note_off,103,0,0,,10,,,81,127
36178,note_on,2,0,0,,1,,,73,127
36281,note_off,103,0,0,,1,,,73,127
36281,note_off,0,0,0,,7,,,55,127
36283,note_on,2,0,0,,1,,,73,127
36283,note_on,0,0,0,,6,,,54,127
36490,note_off,207,0,0,,6,,,54,127
36490,note_off,0,0,0,,1,,,73,127
36492,note_on,2,0,0,,2,,,74,127
36492,note_on,0,0,0,,4,,,52,127
36699,note_off,207,0,0,,4,,,52,127
36701,note_on,2,0,0,,6,,,54,127
36862,note_off,161,0,0,,2,,,74,127
36908,note_off,46,0,0,,6,,,54,127
36910,note_on,2,0,0,,2,,,86,127
36910,note_on,0,0,0,,2,,,50,127
37013,note_off,103,0,0,,2,,,86,127
37015,note_on,2,0,0,,10,,,81,127
37118,note_off,103,0,0,,10,,,81,127
37118,note_off,0,0,0,,2,,,50,127
37120,note_on,2,0,0,,12,,,83,127
37120,note_on,0,0,0,,7,,,55,127
37223,note_off,103,0,0,,12,,,83,127
37225,note_on,2,0,0,,6,,,78,127
37328,note_off,103,0,0,,6,,,78,127
37328,note_off,0,0,0,,7,,,55,127
37330,note_on,2,0,0,,7,,,79,127
37330,note_on,0,0,0,,4,,,52,127
37433,note_off,103,0,0,,7,,,79,127
37435,note_on,2,0,0,,4,,,76,127
37538,note_off,103,0,0,,4,,,76,127
37538,note_off,0,0,0,,4,,,52,127
37540,note_on,2,0,0,,2,,,74,127
37540,note_on,0,0,0,,10,,,57,127
37747,note_off,207,0,0,,10,,,57,127
37749,note_on,2,0,0,,7,,,55,127
37801,note_off,52,0,0,,2,,,74,127
37801,note_on,0,0,0,,1,,,73,127
37851,note_off,50,0,0,,1,,,73,127
37853,note_on,2,0,0,,12,,,71,127
37903,note_off,50,0,0,,12,,,71,127
37905,note_on,2,0,0,,1,,,73,127
37955,note_off,50,0,0,,1,,,73,127
37955,note_off,0,0,0,,7,,,55,127
37957,note_on,2,0,0,,2,,,74,127
37957,note_on,0,0,0,,6,,,54,127
38060,note_off,103,0,0,,2,,,74,127
38062,note_on,2,0,0,,10,,,69,127
38165,note_off,103,0,0,,10,,,69,127
38165,note_off,0,0,0,,6,,,54,127
38167,note_on,2,0,0,,12,,,71,127
38167,note_on,0,0,0,,7,,,55,127
38270,note_off,103,0,0,,12,,,71,127
38272,note_on,2,0,0,,7,,,67,127
38375,note_off,103,0,0,,7,,,67,127
38375,note_off,0,0,0,,7,,,55,127
38377,note_on,2,0,0,,6,,,66,127
38377,note_on,0,0,0,,10,,,57,127
38586,note_on,209,0,0,,10,,,45,127
38638,note_off,52,0,0,,6,,,66,127
38638,note_on,0,0,0,,4,,,64,127
38688,note_off,50,0,0,,4,,,64,127
38690,note_on,2,0,0,,2,,,62,127
38740,note_off,50,0,0,,2,,,62,127
38742,note_on,2,0,0,,4,,,64,127
38790,note_off,48,0,0,,10,,,57,127
38792,note_off,2,0,0,,4,,,64,127
38792,note_off,0,0,0,,10,,,45,127
38794,note_on,2,0,0,,2,,,62,127
38794,note_on,0,0,0,,2,,,50,127
39209,note_off,415,0,0,,2,,,62,127
39422,note_off,213,0,0,,2,,,50,127
39423,note_on,1,0,0,,2,,,74,127
39526,note_off,103,0,0,,2,,,74,127
39528,note_on,2,0,0,,10,,,69,127
39631,note_off,103,0,0,,10,,,69,127
39633,note_on,2,0,0,,6,,,66,127
39840,note_off,207,0,0,,6,,,66,127
39842,note_on,2,0,0,,6,,,66,127
39842,note_on,0,0,0,,4,,,64,127
40049,note_off,207,0,0,,4,,,64,127
40049,note_off,0,0,0,,6,,,66,127
40051,note_on,2,0,0,,6,,,66,127
40051,note_on,0,0,0,,2,,,62,127
40258,note_off,207,0,0,,2,,,62,127
40258,note_off,0,0,0,,6,,,66,127
40260,note_on,2,0,0,,6,,,66,127
40260,note_on,0,0,0,,0,,,60,127
40467,note_off,207,0,0,,0,,,60,127
40467,note_off,0,0,0,,6,,,66,127
40469,note_on,2,0,0,,6,,,66,127
40469,note_on,0,0,0,,12,,,59,127
40676,note_off,207,0,0,,12,,,59,127
40676,note_off,0,0,0,,6,,,66,127
40678,note_on,2,0,0,,7,,,67,127
40678,note_on,0,0,0,,10,,,57,127
40885,note_off,207,0,0,,10,,,57,127
40887,note_on,2,0,0,,7,,,55,127
40992,note_off,105,0,0,,7,,,67,127
41097,note_on,105,0,0,,2,,,74,127
41200,note_off,103,0,0,,2,,,74,127
41202,note_on,2,0,0,,1,,,73,127
41302,note_off,100,0,0,,7,,,55,127
41304,note_off,2,0,0,,1,,,73,127
41306,note_on,2,0,0,,12,,,71,127
41513,note_off,207,0,0,,12,,,71,127
41515,note_on,2,0,0,,10,,,69,127
41515,note_on,0,0,0,,6,,,54,127
41722,note_off,207,0,0,,6,,,54,127
41722,note_off,0,0,0,,10,,,69,127
41724,note_on,2,0,0,,10,,,69,127
41724,note_on,0,0,0,,4,,,52,127
41774,note_off,50,0,0,,10,,,69,127
41776,note_on,2,0,0,,8,,,68,127
41826,note_off,50,0,0,,8,,,68,127
41828,note_on,2,0,0,,10,,,69,127
41878,note_off,50,0,0,,10,,,69,127
41880,note_on,2,0,0,,8,,,68,127
41930,note_off,50,0,0,,8,,,68,127
41930,note_off,0,0,0,,4,,,52,127
41932,note_on,2,0,0,,10,,,69,127
41932,note_on,0,0,0,,2,,,50,127
41982,note_off,50,0,0,,10,,,69,127
41984,note_on,2,0,0,,8,,,68,127
42034,note_off,50,0,0,,8,,,68,127
42036,note_on,2,0,0,,6,,,66,127
42086,note_off,50,0,0,,6,,,66,127
42088,note_on,2,0,0,,8,,,68,127
42138,note_off,50,0,0,,8,,,68,127
42138,note_off,0,0,0,,2,,,50,127
42140,note_on,2,0,0,,10,,,69,127
42140,note_on,0,0,0,,1,,,49,127
42347,note_off,207,0,0,,1,,,49,127
42349,note_on,2,0,0,,12,,,47,127
42554,note_off,205,0,0,,10,,,69,127
42556,note_off,2,0,0,,12,,,47,127
42558,note_on,2,0,0,,10,,,45,127
42767,note_on,209,0,0,,4,,,76,127
42870,note_off,103,0,0,,4,,,76,127
42872,note_on,2,0,0,,1,,,73,127
42972,note_off,100,0,0,,10,,,45,127
42974,note_off,2,0,0,,1,,,73,127
42976,note_on,2,0,0,,10,,,69,127
43183,note_off,207,0,0,,10,,,69,127
43185,note_on,2,0,0,,10,,,69,127
43185,note_on,0,0,0,,6,,,66,127
43392,note_off,207,0,0,,6,,,66,127
43392,note_off,0,0,0,,10,,,69,127
43394,note_on,2,0,0,,10,,,69,127
43394,note_on,0,0,0,,4,,,64,127
43601,note_off,207,0,0,,4,,,64,127
43601,note_off,0,0,0,,10,,,69,127
43603,note_on,2,0,0,,10,,,69,127
43603,note_on,0,0,0,,2,,,62,127
43810,note_off,207,0,0,,2,,,62,127
43810,note_off,0,0,0,,10,,,69,127
43812,note_on,2,0,0,,12,,,71,127
43812,note_on,0,0,0,,1,,,61,127
43862,note_off,50,0,0,,12,,,71,127
43864,note_on,2,0,0,,10,,,69,127
43914,note_off,50,0,0,,10,,,69,127
43916,note_on,2,0,0,,12,,,71,127
43966,note_off,50,0,0,,12,,,71,127
43968,note_on,2,0,0,,10,,,69,127
44018,note_off,50,0,0,,1,,,61,127
44020,note_on,2,0,0,,12,,,59,127
44227,note_off,207,0,0,,12,,,59,127
44229,note_on,2,0,0,,10,,,57,127
44327,note_off,98,0,0,,10,,,69,127
44438,note_on,111,0,0,,4,,,76,127
44541,note_off,103,0,0,,4,,,76,127
44543,note_on,2,0,0,,2,,,74,127
44643,note_off,100,0,0,,10,,,57,127
44645,note_off,2,0,0,,2,,,74,127
44647,note_on,2,0,0,,1,,,73,127
44854,note_off,207,0,0,,1,,,73,127
44856,note_on,2,0,0,,12,,,71,127
44856,note_on,0,0,0,,7,,,55,127
45063,note_off,207,0,0,,7,,,55,127
45065,note_on,2,0,0,,6,,,54,127
45117,note_off,52,0,0,,12,,,71,127
45117,note_on,0,0,0,,11,,,70,127
45167,note_off,50,0,0,,11,,,70,127
45169,note_on,2,0,0,,12,,,71,127
45219,note_off,50,0,0,,12,,,71,127
45221,note_on,2,0,0,,11,,,70,127
45271,note_off,50,0,0,,11,,,70,127
45271,note_off,0,0,0,,6,,,54,127
45273,note_on,2,0,0,,12,,,71,127
45273,note_on,0,0,0,,4,,,52,127
45323,note_off,50,0,0,,12,,,71,127
45325,note_on,2,0,0,,11,,,70,127
45375,note_off,50,0,0,,11,,,70,127
45377,note_on,2,0,0,,8,,,68,127
45427,note_off,50,0,0,,8,,,68,127
45429,note_on,2,0,0,,11,,,70,127
45479,note_off,50,0,0,,11,,,70,127
45479,note_off,0,0,0,,4,,,52,127
45481,note_on,2,0,0,,12,,,71,127
45481,note_on,0,0,0,,2,,,50,127
45688,note_off,207,0,0,,2,,,50,127
45690,note_on,2,0,0,,1,,,49,127
45895,note_off,205,0,0,,12,,,71,127
45897,note_off,2,0,0,,1,,,49,127
45899,note_on,2,0,0,,12,,,47,127
46108,note_on,209,0,0,,6,,,78,127
46211,note_off,103,0,0,,6,,,78,127
46213,note_on,2,0,0,,2,,,74,127
46313,note_off,100,0,0,,12,,,47,127
46315,note_off,2,0,0,,2,,,74,127
46317,note_on,2,0,0,,12,,,71,127
46524,note_off,207,0,0,,12,,,71,127
46526,note_on,2,0,0,,12,,,71,127
46526,note_on,0,0,0,,6,,,66,127
46629,note_off,103,0,0,,6,,,66,127
46631,note_on,2,0,0,,2,,,62,127
46734,note_off,103,0,0,,2,,,62,127
46734,note_off,0,0,0,,12,,,71,127
46736,note_on,2,0,0,,12,,,71,127
46736,note_on,0,0,0,,12,,,59,127
46943,note_off,207,0,0,,12,,,59,127
46943,note_off,0,0,0,,12,,,71,127
46945,note_on,2,0,0,,12,,,71,127
46945,note_on,0,0,0,,10,,,57,127
47152,note_off,207,0,0,,10,,,57,127
47152,note_off,0,0,0,,12,,,71,127
47154,note_on,2,0,0,,12,,,71,127
47154,note_on,0,0,0,,7,,,55,127
47350,note_off,196,0,0,,12,,,71,127
47361,note_off,11,0,0,,7,,,55,127
47363,note_on,2,0,0,,7,,,79,127
47363,note_on,0,0,0,,12,,,59,127
47570,note_off,207,0,0,,12,,,59,127
47570,note_off,0,0,0,,7,,,79,127
47572,note_on,2,0,0,,2,,,74,127
47572,note_on,0,0,0,,10,,,57,127
47622,note_off,50,0,0,,2,,,74,127
47624,note_on,2,0,0,,1,,,73,127
47674,note_off,50,0,0,,1,,,73,127
47676,note_on,2,0,0,,2,,,74,127
47726,note_off,50,0,0,,2,,,74,127
47728,note_on,2,0,0,,1,,,73,127
47778,note_off,50,0,0,,1,,,73,127
47778,note_off,0,0,0,,10,,,57,127
47780,note_on,2,0,0,,2,,,74,127
47780,note_on,0,0,0,,7,,,55,127
47830,note_off,50,0,0,,2,,,74,127
47832,note_on,2,0,0,,1,,,73,127
47882,note_off,50,0,0,,1,,,73,127
47884,note_on,2,0,0,,12,,,71,127
47934,note_off,50,0,0,,12,,,71,127
47936,note_on,2,0,0,,1,,,73,127
47986,note_off,50,0,0,,1,,,73,127
47986,note_off,0,0,0,,7,,,55,127
47988,note_on,2,0,0,,2,,,74,127
47988,note_on,0,0,0,,6,,,54,127
48184,note_off,196,0,0,,2,,,74,127
48195,note_off,11,0,0,,6,,,54,127
48197,note_on,2,0,0,,10,,,81,127
48197,note_on,0,0,0,,0,,,60,127
48404,note_off,207,0,0,,0,,,60,127
48404,note_off,0,0,0,,10,,,81,127
48406,note_on,2,0,0,,4,,,76,127
48406,note_on,0,0,0,,12,,,59,127
48456,note_off,50,0,0,,4,,,76,127
48458,note_on,2,0,0,,3,,,75,127
48508,note_off,50,0,0,,3,,,75,127
48510,note_on,2,0,0,,4,,,76,127
48560,note_off,50,0,0,,4,,,76,127
48562,note_on,2,0,0,,3,,,75,127
48612,note_off,50,0,0,,3,,,75,127
48612,note_off,0,0,0,,12,,,59,127
48614,note_on,2,0,0,,4,,,76,127
48614,note_on,0,0,0,,10,,,57,127
48664,note_off,50,0,0,,4,,,76,127
48666,note_on,2,0,0,,3,,,75,127
48716,note_off,50,0,0,,3,,,75,127
48718,note_on,2,0,0,,1,,,73,127
48768,note_off,50,0,0,,1,,,73,127
48770,note_on,2,0,0,,3,,,75,127
48820,note_off,50,0,0,,3,,,75,127
48820,note_off,0,0,0,,10,,,57,127
48822,note_on,2,0,0,,4,,,76,127
48822,note_on,0,0,0,,7,,,55,127
49018,note_off,196,0,0,,4,,,76,127
49029,note_off,11,0,0,,7,,,55,127
49031,note_on,2,0,0,,12,,,83,127
49031,note_on,0,0,0,,2,,,62,127
49238,note_off,207,0,0,,2,,,62,127
49238,note_off,0,0,0,,12,,,83,127
49240,note_on,2,0,0,,6,,,78,127
49240,note_on,0,0,0,,1,,,61,127
49290,note_off,50,0,0,,6,,,78,127
49292,note_on,2,0,0,,5,,,77,127
49342,note_off,50,0,0,,5,,,77,127
49344,note_on,2,0,0,,6,,,78,127
49394,note_off,50,0,0,,6,,,78,127
49396,note_on,2,0,0,,5,,,77,127
49446,note_off,50,0,0,,5,,,77,127
49446,note_off,0,0,0,,1,,,61,127
49448,note_on,2,0,0,,6,,,78,127
49448,note_on,0,0,0,,12,,,59,127
49498,note_off,50,0,0,,6,,,78,127
49500,note_on,2,0,0,,5,,,77,127
49550,note_off,50,0,0,,5,,,77,127
49552,note_on,2,0,0,,3,,,75,127
49602,note_off,50,0,0,,3,,,75,127
49604,note_on,2,0,0,,5,,,77,127
49654,note_off,50,0,0,,5,,,77,127
49654,note_off,0,0,0,,12,,,59,127
49656,note_on,2,0,0,,6,,,78,127
49656,note_on,0,0,0,,11,,,58,127
49759,note_off,103,0,0,,6,,,78,127
49761,note_on,2,0,0,,4,,,76,127
49864,note_off,103,0,0,,4,,,76,127
49866,note_on,2,0,0,,2,,,74,127
49969,note_off,103,0,0,,2,,,74,127
49971,note_on,2,0,0,,1,,,73,127
50074,note_off,103,0,0,,1,,,73,127
50074,note_off,0,0,0,,11,,,58,127
50076,note_on,2,0,0,,2,,,74,127
50076,note_on,0,0,0,,12,,,83,127
50076,note_on,0,0,0,,12,,,59,127
50179,note_off,103,0,0,,12,,,83,127
50181,note_on,2,0,0,,10,,,81,127
50284,note_off,103,0,0,,10,,,81,127
50286,note_on,2,0,0,,7,,,79,127
50389,note_off,103,0,0,,7,,,79,127
50391,note_on,2,0,0,,6,,,78,127
50491,note_off,100,0,0,,2,,,74,127
50493,note_off,2,0,0,,6,,,78,127
50493,note_off,0,0,0,,12,,,59,127
50495,note_on,2,0,0,,7,,,79,127
50495,note_on,0,0,0,,4,,,52,127
50598,note_off,103,0,0,,7,,,79,127
50600,note_on,2,0,0,,6,,,78,127
50703,note_off,103,0,0,,6,,,78,127
50705,note_on,2,0,0,,4,,,76,127
50808,note_off,103,0,0,,4,,,76,127
50810,note_on,2,0,0,,2,,,74,127
50913,note_off,103,0,0,,2,,,74,127
50913,note_off,0,0,0,,4,,,52,127
50915,note_on,2,0,0,,4,,,76,127
50915,note_on,0,0,0,,7,,,55,127
51018,note_off,103,0,0,,4,,,76,127
51020,note_on,2,0,0,,2,,,74,127
51123,note_off,103,0,0,,2,,,74,127
51125,note_on,2,0,0,,1,,,73,127
51228,note_off,103,0,0,,1,,,73,127
51230,note_on,2,0,0,,12,,,71,127
51333,note_off,103,0,0,,12,,,71,127
51333,note_off,0,0,0,,7,,,55,127
51335,note_on,2,0,0,,12,,,71,127
51335,note_on,0,0,0,,6,,,66,127
51385,note_off,50,0,0,,12,,,71,127
51387,note_on,2,0,0,,11,,,70,127
51437,note_off,50,0,0,,11,,,70,127
51437,note_off,0,0,0,,6,,,66,127
51439,note_on,2,0,0,,12,,,71,127
51439,note_on,0,0,0,,4,,,64,127
51489,note_off,50,0,0,,12,,,71,127
51491,note_on,2,0,0,,11,,,70,127
51541,note_off,50,0,0,,4,,,64,127
51543,note_on,2,0,0,,2,,,62,127
51646,note_off,103,0,0,,2,,,62,127
51648,note_on,2,0,0,,1,,,61,127
51751,note_off,103,0,0,,1,,,61,127
51753,note_off,2,0,0,,11,,,70,127
51753,note_on,0,0,0,,2,,,62,127
51856,note_off,103,0,0,,2,,,62,127
51858,note_on,2,0,0,,1,,,61,127
51961,note_off,103,0,0,,1,,,61,127
51963,note_on,2,0,0,,12,,,59,127
52066,note_off,103,0,0,,12,,,59,127
52068,note_on,2,0,0,,11,,,58,127
52171,note_off,103,0,0,,11,,,58,127
52173,note_on,2,0,0,,12,,,59,127
52276,note_off,103,0,0,,12,,,59,127
52278,note_on,2,0,0,,10,,,57,127
52381,note_off,103,0,0,,10,,,57,127
52383,note_on,2,0,0,,7,,,55,127
52486,note_off,103,0,0,,7,,,55,127
52488,note_on,2,0,0,,6,,,54,127
52591,note_off,103,0,0,,6,,,54,127
52593,note_on,2,0,0,,12,,,71,127
52593,note_on,0,0,0,,12,,,83,127
52593,note_on,0,0,0,,7,,,55,127
52696,note_off,103,0,0,,7,,,55,127
52698,note_on,2,0,0,,6,,,54,127
52801,note_off,103,0,0,,6,,,54,127
52803,note_on,2,0,0,,4,,,52,127
52906,note_off,103,0,0,,4,,,52,127
52908,note_on,2,0,0,,2,,,50,127
53011,note_off,103,0,0,,2,,,50,127
53011,note_off,0,0,0,,12,,,83,127
53011,note_off,0,0,0,,12,,,71,127
53013,note_on,2,0,0,,12,,,71,127
53013,note_on,0,0,0,,12,,,83,127
53013,note_on,0,0,0,,4,,,52,127
53116,note_off,103,0,0,,4,,,52,127
53118,note_on,2,0,0,,2,,,50,127
53221,note_off,103,0,0,,2,,,50,127
53223,note_on,2,0,0,,1,,,49,127
53326,note_off,103,0,0,,1,,,49,127
53328,note_on,2,0,0,,12,,,47,127
53431,note_off,103,0,0,,12,,,47,127
53431,note_off,0,0,0,,12,,,83,127
53431,note_off,0,0,0,,12,,,71,127
53433,note_on,2,0,0,,12,,,71,127
53433,note_on,0,0,0,,12,,,83,127
53433,note_on,0,0,0,,1,,,49,127
53536,note_off,103,0,0,,1,,,49,127
53538,note_on,2,0,0,,12,,,47,127
53641,note_off,103,0,0,,12,,,47,127
53643,note_on,2,0,0,,11,,,46,127
53746,note_off,103,0,0,,11,,,46,127
53748,note_on,2,0,0,,8,,,44,127
53851,note_off,103,0,0,,8,,,44,127
53851,note_off,0,0,0,,12,,,83,127
53851,note_off,0,0,0,,12,,,71,127
53853,note_on,2,0,0,,11,,,82,127
53853,note_on,0,0,0,,6,,,42,127
53956,note_off,103,0,0,,11,,,82,127
53958,note_on,2,0,0,,8,,,80,127
54061,note_off,103,0,0,,8,,,80,127
54063,note_on,2,0,0,,6,,,78,127
54166,note_off,103,0,0,,6,,,78,127
54168,note_on,2,0,0,,4,,,76,127
54268,note_off,100,0,0,,6,,,42,127
54270,note_off,2,0,0,,4,,,76,127
54272,note_on,2,0,0,,2,,,74,127
54375,note_off,103,0,0,,2,,,74,127
54377,note_on,2,0,0,,1,,,73,127
54480,note_off,103,0,0,,1,,,73,127
54482,note_on,2,0,0,,12,,,71,127
54482,note_on,0,0,0,,6,,,54,127
54585,note_off,103,0,0,,12,,,71,127
54587,note_on,2,0,0,,11,,,70,127
54690,note_off,103,0,0,,11,,,70,127
54690,note_off,0,0,0,,6,,,54,127
54692,note_on,2,0,0,,12,,,71,127
54692,note_on,0,0,0,,7,,,55,127
54795,note_off,103,0,0,,12,,,71,127
54797,note_on,2,0,0,,1,,,73,127
54900,note_off,103,0,0,,1,,,73,127
54900,note_off,0,0,0,,7,,,55,127
54902,note_on,2,0,0,,2,,,74,127
54902,note_on,0,0,0,,4,,,52,127
55005,note_off,103,0,0,,2,,,74,127
55007,note_on,2,0,0,,4,,,76,127
55110,note_off,103,0,0,,4,,,76,127
55110,note_off,0,0,0,,4,,,52,127
55112,note_on,2,0,0,,2,,,74,127
55112,note_on,0,0,0,,6,,,54,127
55215,note_off,103,0,0,,2,,,74,127
55217,note_on,2,0,0,,1,,,73,127
55320,note_off,103,0,0,,1,,,73,127
55320,note_off,0,0,0,,6,,,54,127
55322,note_on,2,0,0,,12,,,71,127
55322,note_on,0,0,0,,6,,,42,127
55425,note_off,103,0,0,,12,,,71,127
55427,note_on,2,0,0,,11,,,70,127
55530,note_off,103,0,0,,11,,,70,127
55530,note_off,0,0,0,,6,,,42,127
55532,note_on,2,0,0,,12,,,71,127
55532,note_on,0,0,0,,12,,,59,127
55635,note_off,103,0,0,,12,,,71,127
55637,note_on,2,0,0,,11,,,70,127
55740,note_off,103,0,0,,11,,,70,127
55740,note_off,0,0,0,,12,,,59,127
55742,note_on,2,0,0,,12,,,71,127
55742,note_on,0,0,0,,1,,,61,127
55845,note_off,103,0,0,,12,,,71,127
55847,note_on,2,0,0,,11,,,70,127
55950,note_off,103,0,0,,11,,,70,127
55950,note_off,0,0,0,,1,,,61,127
55952,note_on,2,0,0,,12,,,71,127
55952,note_on,0,0,0,,2,,,62,127
56055,note_off,103,0,0,,12,,,71,127
56057,note_on,2,0,0,,11,,,70,127
56160,note_off,103,0,0,,11,,,70,127
56160,note_off,0,0,0,,2,,,62,127
56162,note_on,2,0,0,,12,,,71,127
56162,note_on,0,0,0,,12,,,59,127
56265,note_off,103,0,0,,12,,,71,127
56267,note_on,2,0,0,,11,,,70,127
56370,note_off,103,0,0,,11,,,70,127
56370,note_off,0,0,0,,12,,,59,127
56372,note_on,2,0,0,,12,,,71,127
56372,note_on,0,0,0,,4,,,64,127
56475,note_off,103,0,0,,12,,,71,127
56477,note_on,2,0,0,,1,,,73,127
56580,note_off,103,0,0,,1,,,73,127
56580,note_off,0,0,0,,4,,,64,127
56582,note_on,2,0,0,,2,,,74,127
56582,note_on,0,0,0,,7,,,67,127
56685,note_off,103,0,0,,2,,,74,127
56687,note_on,2,0,0,,12,,,71,127
56790,note_off,103,0,0,,12,,,71,127
56790,note_off,0,0,0,,7,,,67,127
56792,note_on,2,0,0,,1,,,73,127
56792,note_on,0,0,0,,6,,,66,127
56895,note_off,103,0,0,,1,,,73,127
56897,note_on,2,0,0,,2,,,74,127
57000,note_off,103,0,0,,2,,,74,127
57000,note_off,0,0,0,,6,,,66,127
57002,note_on,2,0,0,,4,,,76,127
57002,note_on,0,0,0,,4,,,64,127
57105,note_off,103,0,0,,4,,,76,127
57107,note_on,2,0,0,,1,,,73,127
57210,note_off,103,0,0,,1,,,73,127
57210,note_off,0,0,0,,4,,,64,127
57212,note_on,2,0,0,,12,,,71,127
57212,note_on,0,0,0,,2,,,62,127
57315,note_off,103,0,0,,12,,,71,127
57317,note_on,2,0,0,,11,,,70,127
57420,note_off,103,0,0,,11,,,70,127
57420,note_off,0,0,0,,2,,,62,127
57422,note_on,2,0,0,,12,,,71,127
57422,note_on,0,0,0,,1,,,61,127
57525,note_off,103,0,0,,12,,,71,127
57527,note_on,2,0,0,,11,,,70,127
57630,note_off,103,0,0,,11,,,70,127
57630,note_off,0,0,0,,1,,,61,127
57632,note_on,2,0,0,,12,,,71,127
57632,note_on,0,0,0,,2,,,62,127
57735,note_off,103,0,0,,12,,,71,127
57737,note_on,2,0,0,,11,,,70,127
57840,note_off,103,0,0,,11,,,70,127
57840,note_off,0,0,0,,2,,,62,127
57842,note_on,2,0,0,,12,,,71,127
57842,note_on,0,0,0,,12,,,59,127
57945,note_off,103,0,0,,12,,,71,127
57947,note_on,2,0,0,,11,,,70,127
58050,note_off,103,0,0,,11,,,70,127
58050,note_off,0,0,0,,12,,,59,127
58052,note_on,2,0,0,,12,,,71,127
58052,note_on,0,0,0,,4,,,64,127
58155,note_off,103,0,0,,12,,,71,127
58157,note_on,2,0,0,,1,,,73,127
58260,note_off,103,0,0,,1,,,73,127
58260,note_off,0,0,0,,4,,,64,127
58262,note_on,2,0,0,,2,,,74,127
58262,note_on,0,0,0,,7,,,67,127
58365,note_off,103,0,0,,2,,,74,127
58367,note_on,2,0,0,,12,,,71,127
58470,note_off,103,0,0,,12,,,71,127
58470,note_off,0,0,0,,7,,,67,127
58472,note_on,2,0,0,,1,,,73,127
58472,note_on,0,0,0,,6,,,66,127
58575,note_off,103,0,0,,1,,,73,127
58577,note_on,2,0,0,,2,,,74,127
58680,note_off,103,0,0,,2,,,74,127
58680,note_off,0,0,0,,6,,,66,127
58682,note_on,2,0,0,,4,,,76,127
58682,note_on,0,0,0,,4,,,64,127
58785,note_off,103,0,0,,4,,,76,127
58787,note_on,2,0,0,,1,,,73,127
58890,note_off,103,0,0,,1,,,73,127
58890,note_off,0,0,0,,4,,,64,127
58892,note_on,2,0,0,,12,,,83,127
58892,note_on,0,0,0,,2,,,62,127
58997,note_on,105,0,0,,12,,,71,127
59100,note_off,103,0,0,,12,,,71,127
59100,note_off,0,0,0,,2,,,62,127
59100,note_off,0,0,0,,12,,,83,127
59102,note_on,2,0,0,,12,,,83,127
59102,note_on,0,0,0,,1,,,61,127
59207,note_on,105,0,0,,12,,,71,127
59310,note_off,103,0,0,,12,,,71,127
59310,note_off,0,0,0,,1,,,61,127
59310,note_off,0,0,0,,12,,,83,127
59312,note_on,2,0,0,,12,,,83,127
59312,note_on,0,0,0,,2,,,62,127
59415,note_off,103,0,0,,12,,,83,127
59417,note_on,2,0,0,,10,,,81,127
59520,note_off,103,0,0,,10,,,81,127
59520,note_off,0,0,0,,2,,,62,127
59522,note_on,2,0,0,,7,,,79,127
59522,note_on,0,0,0,,12,,,59,127
59625,note_off,103,0,0,,7,,,79,127
59627,note_on,2,0,0,,6,,,78,127
59730,note_off,103,0,0,,6,,,78,127
59730,note_off,0,0,0,,12,,,59,127
59732,note_on,2,0,0,,4,,,76,127
59732,note_on,0,0,0,,4,,,64,127
59835,note_off,103,0,0,,4,,,76,127
59837,note_on,2,0,0,,7,,,79,127
59940,note_off,103,0,0,,7,,,79,127
59940,note_off,0,0,0,,4,,,64,127
59942,note_on,2,0,0,,6,,,78,127
59942,note_on,0,0,0,,7,,,67,127
60045,note_off,103,0,0,,6,,,78,127
60047,note_on,2,0,0,,4,,,76,127
60150,note_off,103,0,0,,4,,,76,127
60150,note_off,0,0,0,,7,,,67,127
60152,note_on,2,0,0,,2,,,74,127
60152,note_on,0,0,0,,6,,,66,127
60255,note_off,103,0,0,,2,,,74,127
60257,note_on,2,0,0,,1,,,73,127
60360,note_off,103,0,0,,1,,,73,127
60360,note_off,0,0,0,,6,,,66,127
60362,note_on,2,0,0,,12,,,71,127
60362,note_on,0,0,0,,6,,,54,127
60465,note_off,103,0,0,,12,,,71,127
60467,note_on,2,0,0,,11,,,70,127
60570,note_off,103,0,0,,11,,,70,127
60570,note_off,0,0,0,,6,,,54,127
60572,note_on,2,0,0,,12,,,83,127
60572,note_on,0,0,0,,7,,,55,127
60677,note_on,105,0,0,,12,,,71,127
60780,note_off,103,0,0,,12,,,71,127
60780,note_off,0,0,0,,7,,,55,127
60780,note_off,0,0,0,,12,,,83,127
60782,note_on,2,0,0,,12,,,83,127
60782,note_on,0,0,0,,6,,,54,127
60887,note_on,105,0,0,,12,,,71,127
60990,note_off,103,0,0,,12,,,71,127
60990,note_off,0,0,0,,6,,,54,127
60990,note_off,0,0,0,,12,,,83,127
60992,note_on,2,0,0,,12,,,83,127
60992,note_on,0,0,0,,4,,,52,127
61095,note_off,103,0,0,,12,,,83,127
61097,note_on,2,0,0,,10,,,81,127
61200,note_off,103,0,0,,10,,,81,127
61200,note_off,0,0,0,,4,,,52,127
61202,note_on,2,0,0,,7,,,79,127
61202,note_on,0,0,0,,2,,,50,127
61305,note_off,103,0,0,,7,,,79,127
61307,note_on,2,0,0,,6,,,78,127
61410,note_off,103,0,0,,6,,,78,127
61410,note_off,0,0,0,,2,,,50,127
61412,note_on,2,0,0,,4,,,76,127
61412,note_on,0,0,0,,4,,,52,127
61515,note_off,103,0,0,,4,,,76,127
61517,note_on,2,0,0,,7,,,79,127
61620,note_off,103,0,0,,7,,,79,127
61620,note_off,0,0,0,,4,,,52,127
61622,note_on,2,0,0,,6,,,78,127
61622,note_on,0,0,0,,7,,,55,127
61725,note_off,103,0,0,,6,,,78,127
61727,note_on,2,0,0,,4,,,76,127
61830,note_off,103,0,0,,4,,,76,127
61830,note_off,0,0,0,,7,,,55,127
61832,note_on,2,0,0,,2,,,74,127
61832,note_on,0,0,0,,6,,,54,127
61935,note_off,103,0,0,,2,,,74,127
61937,note_on,2,0,0,,1,,,73,127
62040,note_off,103,0,0,,1,,,73,127
62040,note_off,0,0,0,,6,,,54,127
62042,note_on,2,0,0,,12,,,71,127
62042,note_on,0,0,0,,6,,,42,127
62145,note_off,103,0,0,,12,,,71,127
62147,note_on,2,0,0,,11,,,70,127
62250,note_off,103,0,0,,11,,,70,127
62250,note_off,0,0,0,,6,,,42,127
62252,note_on,2,0,0,,12,,,71,127
62252,note_on,0,0,0,,12,,,47,127
62459,note_off,207,0,0,,12,,,47,127
62461,note_on,2,0,0,,1,,,49,127
62666,note_off,205,0,0,,12,,,71,127
62668,note_off,2,0,0,,1,,,49,127
62670,note_on,2,0,0,,2,,,50,127
62877,note_off,207,0,0,,2,,,50,127
62879,note_on,2,0,0,,12,,,71,127
62879,note_on,0,0,0,,12,,,47,127
62982,note_off,103,0,0,,12,,,71,127
62984,note_on,2,0,0,,6,,,66,127
63087,note_off,103,0,0,,6,,,66,127
63087,note_off,0,0,0,,12,,,47,127
63089,note_on,2,0,0,,7,,,67,127
63089,note_on,0,0,0,,4,,,52,127
63296,note_off,207,0,0,,4,,,52,127
63296,note_off,0,0,0,,7,,,67,127
63298,note_on,2,0,0,,4,,,76,127
63298,note_on,0,0,0,,7,,,55,127
63505,note_off,207,0,0,,7,,,55,127
63507,note_on,2,0,0,,6,,,54,127
63714,note_off,207,0,0,,6,,,54,127
63714,note_off,0,0,0,,4,,,76,127
63716,note_on,2,0,0,,1,,,73,127
63716,note_on,0,0,0,,4,,,52,127
63819,note_off,103,0,0,,1,,,73,127
63821,note_on,2,0,0,,11,,,70,127
63924,note_off,103,0,0,,11,,,70,127
63924,note_off,0,0,0,,4,,,52,127
63926,note_on,2,0,0,,11,,,70,127
63926,note_on,0,0,0,,2,,,50,127
64133,note_off,207,0,0,,2,,,50,127
64133,note_off,0,0,0,,11,,,70,127
64135,note_on,2,0,0,,12,,,71,127
64135,note_on,0,0,0,,1,,,49,127
64342,note_off,207,0,0,,1,,,49,127
64344,note_on,2,0,0,,2,,,50,127
64449,note_off,105,0,0,,12,,,71,127
64552,note_off,103,0,0,,2,,,50,127
64554,note_on,2,0,0,,12,,,71,127
64554,note_on,0,0,0,,12,,,47,127
64657,note_off,103,0,0,,12,,,71,127
64659,note_on,2,0,0,,6,,,66,127
64762,note_off,103,0,0,,6,,,66,127
64762,note_off,0,0,0,,12,,,47,127
64764,note_on,2,0,0,,7,,,67,127
64764,note_on,0,0,0,,4,,,52,127
64971,note_off,207,0,0,,4,,,52,127
64971,note_off,0,0,0,,7,,,67,127
64973,note_on,2,0,0,,7,,,79,127
64973,note_on,0,0,0,,7,,,55,127
65180,note_off,207,0,0,,7,,,55,127
65182,note_on,2,0,0,,6,,,54,127
65389,note_off,207,0,0,,6,,,54,127
65389,note_off,0,0,0,,7,,,79,127
65391,note_on,2,0,0,,6,,,78,127
65391,note_on,0,0,0,,4,,,52,127
65494,note_off,103,0,0,,6,,,78,127
65496,note_on,2,0,0,,11,,,70,127
65599,note_off,103,0,0,,11,,,70,127
65599,note_off,0,0,0,,4,,,52,127
65601,note_on,2,0,0,,11,,,70,127
65601,note_on,0,0,0,,2,,,50,127
65808,note_off,207,0,0,,2,,,50,127
65808,note_off,0,0,0,,11,,,70,127
65810,note_on,2,0,0,,12,,,71,127
65810,note_on,0,0,0,,1,,,49,127
66017,note_off,207,0,0,,1,,,49,127
66019,note_on,2,0,0,,2,,,50,127
66124,note_off,105,0,0,,12,,,71,127
66227,note_off,103,0,0,,2,,,50,127
66229,note_on,2,0,0,,12,,,83,127
66229,note_on,0,0,0,,12,,,47,127
66332,note_off,103,0,0,,12,,,83,127
66334,note_on,2,0,0,,6,,,78,127
66437,note_off,103,0,0,,6,,,78,127
66437,note_off,0,0,0,,12,,,47,127
66439,note_on,2,0,0,,7,,,79,127
66439,note_on,0,0,0,,4,,,52,127
66542,note_off,103,0,0,,7,,,79,127
66544,note_on,2,0,0,,2,,,74,127
66647,note_off,103,0,0,,2,,,74,127
66649,note_on,2,0,0,,4,,,76,127
66649,note_on,0,0,0,,4,,,40,127
66752,note_off,103,0,0,,4,,,76,127
66754,note_on,2,0,0,,1,,,73,127
66854,note_off,100,0,0,,4,,,52,127
66856,note_off,2,0,0,,1,,,73,127
66856,note_off,0,0,0,,4,,,40,127
66858,note_on,2,0,0,,12,,,71,127
66858,note_on,0,0,0,,6,,,42,127
67065,note_off,207,0,0,,6,,,42,127
67065,note_off,0,0,0,,12,,,71,127
67067,note_on,2,0,0,,12,,,71,127
67067,note_on,0,0,0,,6,,,54,127
67117,note_off,50,0,0,,12,,,71,127
67119,note_on,2,0,0,,11,,,70,127
67169,note_off,50,0,0,,11,,,70,127
67171,note_on,2,0,0,,8,,,68,127
67221,note_off,50,0,0,,8,,,68,127
67223,note_on,2,0,0,,11,,,70,127
67273,note_off,50,0,0,,11,,,70,127
67273,note_off,0,0,0,,6,,,54,127
67275,note_on,2,0,0,,12,,,71,127
67275,note_on,0,0,0,,12,,,47,127
67482,note_off,207,0,0,,12,,,47,127
67484,note_on,2,0,0,,1,,,49,127
67689,note_off,205,0,0,,12,,,71,127
67691,note_off,2,0,0,,1,,,49,127
67693,note_on,2,0,0,,2,,,50,127
67900,note_off,207,0,0,,2,,,50,127
67902,note_on,2,0,0,,12,,,71,127
67902,note_on,0,0,0,,12,,,47,127
68005,note_off,103,0,0,,12,,,71,127
68007,note_on,2,0,0,,6,,,66,127
68110,note_off,103,0,0,,6,,,66,127
68110,note_off,0,0,0,,12,,,47,127
68112,note_on,2,0,0,,7,,,67,127
68112,note_on,0,0,0,,4,,,52,127
68319,note_off,207,0,0,,4,,,52,127
68319,note_off,0,0,0,,7,,,67,127
68321,note_on,2,0,0,,4,,,76,127
68321,note_on,0,0,0,,7,,,55,127
68528,note_off,207,0,0,,7,,,55,127
68530,note_on,2,0,0,,6,,,54,127
68691,note_off,161,0,0,,4,,,76,127
68737,note_off,46,0,0,,6,,,54,127
68739,note_on,2,0,0,,1,,,73,127
68739,note_on,0,0,0,,4,,,52,127
68842,note_off,103,0,0,,1,,,73,127
68844,note_on,2,0,0,,11,,,70,127
68947,note_off,103,0,0,,11,,,70,127
68947,note_off,0,0,0,,4,,,52,127
68949,note_on,2,0,0,,11,,,70,127
68949,note_on,0,0,0,,2,,,50,127
69156,note_off,207,0,0,,2,,,50,127
69156,note_off,0,0,0,,11,,,70,127
69158,note_on,2,0,0,,12,,,71,127
69158,note_on,0,0,0,,1,,,49,127
69365,note_off,207,0,0,,1,,,49,127
69367,note_on,2,0,0,,2,,,50,127
69528,note_off,161,0,0,,12,,,71,127
69574,note_off,46,0,0,,2,,,50,127
69576,note_on,2,0,0,,12,,,71,127
69576,note_on,0,0,0,,12,,,47,127
69679,note_off,103,0,0,,12,,,71,127
69681,note_on,2,0,0,,6,,,66,127
69784,note_off,103,0,0,,6,,,66,127
69784,note_off,0,0,0,,12,,,47,127
69786,note_on,2,0,0,,7,,,67,127
69786,note_on,0,0,0,,4,,,52,127
69993,note_off,207,0,0,,4,,,52,127
69993,note_off,0,0,0,,7,,,67,127
69995,note_on,2,0,0,,7,,,79,127
69995,note_on,0,0,0,,7,,,55,127
70202,note_off,207,0,0,,7,,,55,127
70204,note_on,2,0,0,,6,,,54,127
70365,note_off,161,0,0,,7,,,79,127
70411,note_off,46,0,0,,6,,,54,127
70413,note_on,2,0,0,,6,,,78,127
70413,note_on,0,0,0,,4,,,52,127
70516,note_off,103,0,0,,6,,,78,127
70518,note_on,2,0,0,,11,,,70,127
70621,note_off,103,0,0,,11,,,70,127
70621,note_off,0,0,0,,4,,,52,127
70623,note_on,2,0,0,,11,,,70,127
70623,note_on,0,0,0,,2,,,50,127
70830,note_off,207,0,0,,2,,,50,127
70830,note_off,0,0,0,,11,,,70,127
70832,note_on,2,0,0,,12,,,71,127
70832,note_on,0,0,0,,1,,,49,127
71039,note_off,207,0,0,,1,,,49,127
71041,note_on,2,0,0,,2,,,50,127
71202,note_off,161,0,0,,12,,,71,127
71248,note_off,46,0,0,,2,,,50,127
71250,note_on,2,0,0,,12,,,47,127
71250,note_on,0,0,0,,12,,,83,127
71353,note_off,103,0,0,,12,,,83,127
71356,note_on,3,0,0,,6,,,78,127
71457,note_off,101,0,0,,12,,,47,127
71458,note_off,1,0,0,,6,,,78,127
71461,note_on,3,0,0,,4,,,52,127
71461,note_on,0,0,0,,7,,,79,127
71564,note_off,103,0,0,,7,,,79,127
71567,note_on,3,0,0,,2,,,74,127
71670,note_off,103,0,0,,2,,,74,127
71673,note_on,3,0,0,,4,,,40,127
71673,note_on,0,0,0,,4,,,76,127
71776,note_off,103,0,0,,4,,,76,127
71779,note_on,3,0,0,,1,,,73,127
71876,note_off,97,0,0,,4,,,52,127
71880,note_off,4,0,0,,4,,,40,127
71881,note_off,1,0,0,,1,,,73,127
71884,note_on,3,0,0,,6,,,42,127
71884,note_on,0,0,0,,12,,,71,127
72091,note_off,207,0,0,,12,,,71,127
72091,note_off,0,0,0,,6,,,42,127
72095,note_on,4,0,0,,6,,,54,127
72095,note_on,0,0,0,,12,,,71,127
72145,note_off,50,0,0,,12,,,71,127
72147,note_on,2,0,0,,11,,,70,127
72197,note_off,50,0,0,,11,,,70,127
72199,note_on,2,0,0,,8,,,68,127
72249,note_off,50,0,0,,8,,,68,127
72252,note_on,3,0,0,,11,,,70,127
72301,note_off,49,0,0,,6,,,54,127
72302,note_off,1,0,0,,11,,,70,127
72304,note_on,2,0,0,,12,,,71,127
72304,note_on,0,0,0,,7,,,55,127
72408,note_off,104,0,0,,12,,,71,127
72413,note_on,5,0,0,,6,,,66,127
72514,note_off,101,0,0,,7,,,55,127
72516,note_off,2,0,0,,6,,,66,127
72521,note_on,5,0,0,,7,,,67,127
72521,note_on,0,0,0,,4,,,52,127
72625,note_off,104,0,0,,7,,,67,127
72630,note_on,5,0,0,,4,,,64,127
72731,note_off,101,0,0,,4,,,52,127
72733,note_off,2,0,0,,4,,,64,127
72738,note_on,5,0,0,,2,,,62,127
72738,note_on,0,0,0,,6,,,54,127
72949,note_off,211,0,0,,2,,,62,127
72957,note_on,8,0,0,,2,,,62,127
72957,note_on,0,0,0,,6,,,42,127
73007,note_off,50,0,0,,2,,,62,127
73011,note_on,4,0,0,,1,,,61,127
73061,note_off,50,0,0,,1,,,61,127
73065,note_on,4,0,0,,12,,,59,127
73115,note_off,50,0,0,,12,,,59,127
73119,note_on,4,0,0,,1,,,61,127
73159,note_off,40,0,0,,6,,,54,127
73166,note_off,7,0,0,,6,,,42,127
73169,note_off,3,0,0,,1,,,61,127
73190,note_on,21,0,0,,12,,,47,127
73190,note_on,0,0,0,,12,,,59,127
75293,note_off,2103,0,0,,12,,,59,127
75293,note_off,0,0,0,,12,,,47,127
79872,end_of_track,4579,1,0,,,,,,
