tick,type,time,meta,track,program,channel,pitch,tempo,note,velocity
0,copyright,0,1,0,,,,,,
0,program_change,0,0,0,6,0,,,,
0,pitchwheel,0,0,0,,0,0,,,
0,program_change,0,0,0,6,1,,,,
0,pitchwheel,0,0,0,,1,-590,,,
0,program_change,0,0,0,6,2,,,,
0,pitchwheel,0,0,0,,2,-272,,,
0,program_change,0,0,0,6,3,,,,
0,pitchwheel,0,0,0,,3,-353,,,
0,program_change,0,0,0,6,4,,,,
0,pitchwheel,0,0,0,,4,-560,,,
0,program_change,0,0,0,6,5,,,,
0,pitchwheel,0,0,0,,5,-80,,,
0,program_change,0,0,0,6,6,,,,
0,pitchwheel,0,0,0,,6,-625,,,
0,program_change,0,0,0,6,7,,,,
0,pitchwheel,0,0,0,,7,-130,,,
0,program_change,0,0,0,6,8,,,,
0,pitchwheel,0,0,0,,8,-512,,,
0,program_change,0,0,0,6,10,,,,
0,pitchwheel,0,0,0,,10,-464,,,
0,program_change,0,0,0,6,11,,,,
0,pitchwheel,0,0,0,,11,-208,,,
0,program_change,0,0,0,6,12,,,,
0,pitchwheel,0,0,0,,12,-553,,,
0,set_tempo,0,1,0,,,,500000,,
35,note_on,35,0,0,,5,,,41,127
244,note_on,209,0,0,,10,,,81,127
347,note_off,103,0,0,,10,,,81,127
349,note_on,2,0,0,,5,,,77,127
452,note_off,103,0,0,,5,,,77,127
454,note_on,2,0,0,,0,,,72,127
661,note_off,207,0,0,,0,,,72,127
662,note_off,1,0,0,,5,,,41,127
663,note_on,1,0,0,,10,,,81,127
870,note_off,207,0,0,,10,,,81,127
872,note_on,2,0,0,,0,,,72,127
1079,note_off,207,0,0,,0,,,72,127
1081,note_on,2,0,0,,5,,,65,127
1081,note_on,0,0,0,,10,,,81,127
1288,note_off,207,0,0,,10,,,81,127
1288,note_off,0,0,0,,5,,,65,127
1290,note_on,2,0,0,,7,,,67,127
1290,note_on,0,0,0,,0,,,72,127
1358,note_off,68,0,0,,0,,,72,127
1360,note_on,2,0,0,,11,,,70,127
1428,note_off,68,0,0,,11,,,70,127
1430,note_on,2,0,0,,0,,,72,127
1498,note_off,68,0,0,,0,,,72,127
1498,note_off,0,0,0,,7,,,67,127
1500,note_on,2,0,0,,4,,,64,127
1500,note_on,0,0,0,,11,,,70,127
1568,note_off,68,0,0,,11,,,70,127
1570,note_on,2,0,0,,0,,,72,127
1638,note_off,68,0,0,,0,,,72,127
1640,note_on,2,0,0,,11,,,70,127
1708,note_off,68,0,0,,11,,,70,127
1708,note_off,0,0,0,,4,,,64,127
1710,note_on,2,0,0,,5,,,65,127
1710,note_on,0,0,0,,10,,,69,127
1917,note_off,207,0,0,,10,,,69,127
1919,note_on,2,0,0,,5,,,77,127
2022,note_off,103,0,0,,5,,,77,127
2024,note_on,2,0,0,,0,,,72,127
2124,note_off,100,0,0,,5,,,65,127
2126,note_off,2,0,0,,0,,,72,127
2128,note_on,2,0,0,,10,,,69,127
2335,note_off,207,0,0,,10,,,69,127
2337,note_on,2,0,0,,5,,,77,127
2544,note_off,207,0,0,,5,,,77,127
2546,note_on,2,0,0,,10,,,69,127
2753,note_off,207,0,0,,10,,,69,127
2755,note_on,2,0,0,,10,,,57,127
2755,note_on,0,0,0,,5,,,77,127
2962,note_off,207,0,0,,5,,,77,127
2962,note_off,0,0,0,,10,,,57,127
2964,note_on,2,0,0,,11,,,58,127
2964,note_on,0,0,0,,10,,,69,127
3032,note_off,68,0,0,,10,,,69,127
3034,note_on,2,0,0,,7,,,67,127
3102,note_off,68,0,0,,7,,,67,127
3104,note_on,2,0,0,,10,,,69,127
3172,note_off,68,0,0,,10,,,69,127
3172,note_off,0,0,0,,11,,,58,127
3174,note_on,2,0,0,,0,,,60,127
3174,note_on,0,0,0,,7,,,67,127
3242,note_off,68,0,0,,7,,,67,127
3244,note_on,2,0,0,,10,,,69,127
3312,note_off,68,0,0,,10,,,69,127
3314,note_on,2,0,0,,7,,,67,127
3382,note_off,68,0,0,,7,,,67,127
3382,note_off,0,0,0,,0,,,60,127
3384,note_on,2,0,0,,5,,,53,127
3384,note_on,0,0,0,,5,,,65,127
3591,note_off,207,0,0,,5,,,65,127
3591,note_off,0,0,0,,5,,,53,127
3593,note_on,2,0,0,,5,,,65,127
3696,note_off,103,0,0,,5,,,65,127
3698,note_on,2,0,0,,0,,,60,127
3801,note_off,103,0,0,,0,,,60,127
3803,note_on,2,0,0,,10,,,57,127
4010,note_off,207,0,0,,10,,,57,127
4012,note_on,2,0,0,,5,,,65,127
4219,note_off,207,0,0,,5,,,65,127
4221,note_on,2,0,0,,10,,,57,127
4428,note_off,207,0,0,,10,,,57,127
4430,note_on,2,0,0,,5,,,65,127
4430,note_on,0,0,0,,0,,,72,127
4637,note_off,207,0,0,,0,,,72,127
4637,note_off,0,0,0,,5,,,65,127
4639,note_on,2,0,0,,7,,,67,127
4639,note_on,0,0,0,,2,,,74,127
4846,note_off,207,0,0,,2,,,74,127
4846,note_off,0,0,0,,7,,,67,127
4848,note_on,2,0,0,,11,,,58,127
4848,note_on,0,0,0,,4,,,76,127
5055,note_off,207,0,0,,4,,,76,127
5055,note_off,0,0,0,,11,,,58,127
5057,note_on,2,0,0,,10,,,57,127
5057,note_on,0,0,0,,5,,,77,127
5264,note_off,207,0,0,,10,,,57,127
5266,note_on,2,0,0,,5,,,65,127
5369,note_off,103,0,0,,5,,,65,127
5371,note_on,2,0,0,,0,,,60,127
5471,note_off,100,0,0,,5,,,77,127
5473,note_off,2,0,0,,0,,,60,127
5475,note_on,2,0,0,,10,,,57,127
5682,note_off,207,0,0,,10,,,57,127
5684,note_on,2,0,0,,5,,,65,127
5891,note_off,207,0,0,,5,,,65,127
5893,note_on,2,0,0,,10,,,57,127
6100,note_off,207,0,0,,10,,,57,127
6102,note_on,2,0,0,,5,,,65,127
6102,note_on,0,0,0,,0,,,72,127
6309,note_off,207,0,0,,0,,,72,127
6309,note_off,0,0,0,,5,,,65,127
6311,note_on,2,0,0,,7,,,55,127
6311,note_on,0,0,0,,0,,,72,127
6379,note_off,68,0,0,,0,,,72,127
6381,note_on,2,0,0,,11,,,70,127
6449,note_off,68,0,0,,11,,,70,127
6451,note_on,2,0,0,,0,,,72,127
6519,note_off,68,0,0,,0,,,72,127
6519,note_off,0,0,0,,7,,,55,127
6521,note_on,2,0,0,,4,,,64,127
6521,note_on,0,0,0,,11,,,70,127
6589,note_off,68,0,0,,11,,,70,127
6591,note_on,2,0,0,,0,,,72,127
6659,note_off,68,0,0,,0,,,72,127
6661,note_on,2,0,0,,11,,,70,127
6729,note_off,68,0,0,,11,,,70,127
6729,note_off,0,0,0,,4,,,64,127
6731,note_on,2,0,0,,5,,,53,127
6731,note_on,0,0,0,,10,,,69,127
6938,note_off,207,0,0,,10,,,69,127
6938,note_off,0,0,0,,5,,,53,127
6940,note_on,2,0,0,,5,,,65,127
6940,note_on,0,0,0,,10,,,81,127
7147,note_off,207,0,0,,5,,,65,127
7149,note_on,2,0,0,,5,,,65,127
7356,note_off,207,0,0,,5,,,65,127
7356,note_off,0,0,0,,10,,,81,127
7358,note_on,2,0,0,,10,,,57,127
7358,note_on,0,0,0,,5,,,77,127
7565,note_off,207,0,0,,10,,,57,127
7567,note_on,2,0,0,,11,,,58,127
7774,note_off,207,0,0,,5,,,77,127
7776,note_on,2,0,0,,5,,,65,127
7776,note_on,0,0,0,,2,,,74,127
7981,note_off,205,0,0,,11,,,58,127
7985,note_on,4,0,0,,0,,,60,127
8190,note_off,205,0,0,,5,,,65,127
8192,note_off,2,0,0,,2,,,74,127
8194,note_on,2,0,0,,4,,,64,127
8194,note_on,0,0,0,,0,,,72,127
8297,note_off,103,0,0,,0,,,72,127
8299,note_on,2,0,0,,11,,,70,127
8399,note_off,100,0,0,,0,,,60,127
8401,note_off,2,0,0,,11,,,70,127
8401,note_off,0,0,0,,4,,,64,127
8403,note_on,2,0,0,,5,,,53,127
8403,note_on,0,0,0,,10,,,69,127
8610,note_off,207,0,0,,10,,,69,127
8610,note_off,0,0,0,,5,,,53,127
8612,note_on,2,0,0,,5,,,65,127
8612,note_on,0,0,0,,5,,,77,127
8819,note_off,207,0,0,,5,,,65,127
8821,note_on,2,0,0,,5,,,65,127
9028,note_off,207,0,0,,5,,,65,127
9028,note_off,0,0,0,,5,,,77,127
9030,note_on,2,0,0,,10,,,57,127
9030,note_on,0,0,0,,0,,,72,127
9237,note_off,207,0,0,,10,,,57,127
9239,note_on,2,0,0,,11,,,58,127
9446,note_off,207,0,0,,0,,,72,127
9448,note_on,2,0,0,,5,,,65,127
9448,note_on,0,0,0,,11,,,70,127
9653,note_off,205,0,0,,11,,,58,127
9657,note_on,4,0,0,,0,,,60,127
9862,note_off,205,0,0,,5,,,65,127
9864,note_off,2,0,0,,11,,,70,127
9866,note_on,2,0,0,,4,,,64,127
9866,note_on,0,0,0,,10,,,69,127
9969,note_off,103,0,0,,10,,,69,127
9971,note_on,2,0,0,,7,,,67,127
10071,note_off,100,0,0,,0,,,60,127
10073,note_off,2,0,0,,7,,,67,127
10073,note_off,0,0,0,,4,,,64,127
10075,note_on,2,0,0,,5,,,53,127
10075,note_on,0,0,0,,5,,,65,127
10282,note_off,207,0,0,,5,,,65,127
10284,note_on,2,0,0,,5,,,77,127
10387,note_off,103,0,0,,5,,,77,127
10389,note_on,2,0,0,,0,,,72,127
10492,note_off,103,0,0,,0,,,72,127
10494,note_on,2,0,0,,2,,,74,127
10597,note_off,103,0,0,,2,,,74,127
10599,note_off,2,0,0,,5,,,53,127
10599,note_on,0,0,0,,10,,,69,127
10702,note_off,103,0,0,,10,,,69,127
10704,note_on,2,0,0,,0,,,48,127
10704,note_on,0,0,0,,11,,,70,127
10807,note_off,103,0,0,,11,,,70,127
10809,note_on,2,0,0,,7,,,67,127
10912,note_off,103,0,0,,7,,,67,127
10912,note_off,0,0,0,,0,,,48,127
10914,note_on,2,0,0,,5,,,53,127
10914,note_on,0,0,0,,10,,,69,127
11121,note_off,207,0,0,,10,,,69,127
11123,note_on,2,0,0,,0,,,72,127
11226,note_off,103,0,0,,0,,,72,127
11228,note_on,2,0,0,,7,,,67,127
11331,note_off,103,0,0,,7,,,67,127
11333,note_on,2,0,0,,10,,,69,127
11436,note_off,103,0,0,,10,,,69,127
11438,note_off,2,0,0,,5,,,53,127
11438,note_on,0,0,0,,5,,,65,127
11541,note_off,103,0,0,,5,,,65,127
11543,note_on,2,0,0,,0,,,48,127
11543,note_on,0,0,0,,7,,,67,127
11646,note_off,103,0,0,,7,,,67,127
11648,note_on,2,0,0,,4,,,64,127
11751,note_off,103,0,0,,4,,,64,127
11751,note_off,0,0,0,,0,,,48,127
11753,note_on,2,0,0,,5,,,53,127
11753,note_on,0,0,0,,5,,,65,127
11960,note_off,207,0,0,,5,,,65,127
11962,note_on,2,0,0,,5,,,77,127
12065,note_off,103,0,0,,5,,,77,127
12067,note_on,2,0,0,,0,,,72,127
12170,note_off,103,0,0,,0,,,72,127
12172,note_on,2,0,0,,2,,,74,127
12275,note_off,103,0,0,,2,,,74,127
12277,note_off,2,0,0,,5,,,53,127
12277,note_on,0,0,0,,10,,,69,127
12380,note_off,103,0,0,,10,,,69,127
12382,note_on,2,0,0,,0,,,48,127
12382,note_on,0,0,0,,11,,,70,127
12485,note_off,103,0,0,,11,,,70,127
12487,note_on,2,0,0,,7,,,67,127
12590,note_off,103,0,0,,7,,,67,127
12590,note_off,0,0,0,,0,,,48,127
12592,note_on,2,0,0,,5,,,53,127
12592,note_on,0,0,0,,10,,,69,127
12799,note_off,207,0,0,,10,,,69,127
12801,note_on,2,0,0,,0,,,72,127
12904,note_off,103,0,0,,0,,,72,127
12906,note_on,2,0,0,,7,,,67,127
13009,note_off,103,0,0,,7,,,67,127
13011,note_on,2,0,0,,10,,,69,127
13114,note_off,103,0,0,,10,,,69,127
13116,note_off,2,0,0,,5,,,53,127
13116,note_on,0,0,0,,5,,,65,127
13219,note_off,103,0,0,,5,,,65,127
13221,note_on,2,0,0,,0,,,48,127
13221,note_on,0,0,0,,7,,,67,127
13324,note_off,103,0,0,,7,,,67,127
13326,note_on,2,0,0,,4,,,64,127
13429,note_off,103,0,0,,4,,,64,127
13429,note_off,0,0,0,,0,,,48,127
13431,note_on,2,0,0,,5,,,53,127
13431,note_on,0,0,0,,5,,,65,127
13534,note_off,103,0,0,,5,,,65,127
13536,note_on,2,0,0,,0,,,72,127
13639,note_off,103,0,0,,0,,,72,127
13639,note_off,0,0,0,,5,,,53,127
13641,note_on,2,0,0,,0,,,48,127
13641,note_on,0,0,0,,11,,,70,127
13744,note_off,103,0,0,,11,,,70,127
13746,note_on,2,0,0,,7,,,67,127
13849,note_off,103,0,0,,7,,,67,127
13849,note_off,0,0,0,,0,,,48,127
13851,note_on,2,0,0,,5,,,53,127
13851,note_on,0,0,0,,10,,,69,127
13954,note_off,103,0,0,,10,,,69,127
13956,note_on,2,0,0,,5,,,65,127
14059,note_off,103,0,0,,5,,,65,127
14059,note_off,0,0,0,,5,,,53,127
14061,note_on,2,0,0,,0,,,48,127
14061,note_on,0,0,0,,4,,,64,127
14164,note_off,103,0,0,,4,,,64,127
14166,note_on,2,0,0,,7,,,67,127
14269,note_off,103,0,0,,7,,,67,127
14269,note_off,0,0,0,,0,,,48,127
14271,note_on,2,0,0,,5,,,53,127
14271,note_on,0,0,0,,5,,,65,127
14374,note_off,103,0,0,,5,,,65,127
14376,note_on,2,0,0,,10,,,69,127
14479,note_off,103,0,0,,10,,,69,127
14479,note_off,0,0,0,,5,,,53,127
14481,note_on,2,0,0,,0,,,48,127
14481,note_on,0,0,0,,4,,,64,127
14584,note_off,103,0,0,,4,,,64,127
14586,note_on,2,0,0,,7,,,67,127
14689,note_off,103,0,0,,7,,,67,127
14689,note_off,0,0,0,,0,,,48,127
14691,note_on,2,0,0,,5,,,53,127
14691,note_on,0,0,0,,5,,,65,127
14794,note_off,103,0,0,,5,,,65,127
14796,note_on,2,0,0,,10,,,69,127
14899,note_off,103,0,0,,10,,,69,127
14899,note_off,0,0,0,,5,,,53,127
14901,note_on,2,0,0,,0,,,48,127
14901,note_on,0,0,0,,4,,,64,127
15004,note_off,103,0,0,,4,,,64,127
15006,note_on,2,0,0,,7,,,67,127
15109,note_off,103,0,0,,7,,,67,127
15109,note_off,0,0,0,,0,,,48,127
15111,note_on,2,0,0,,5,,,41,127
15111,note_on,0,0,0,,7,,,67,127
15163,note_on,52,0,0,,5,,,65,127
15178,note_off,15,0,0,,7,,,67,127
15215,note_on,37,0,0,,7,,,67,127
15230,note_off,15,0,0,,5,,,65,127
15267,note_on,37,0,0,,5,,,65,127
15282,note_off,15,0,0,,7,,,67,127
15810,note_off,528,0,0,,5,,,41,127
15939,note_off,129,0,0,,5,,,65,127
15948,note_on,9,0,0,,5,,,65,127
16157,note_on,209,0,0,,0,,,72,127
16364,note_off,207,0,0,,5,,,65,127
16366,note_on,2,0,0,,4,,,64,127
16573,note_off,207,0,0,,0,,,72,127
16575,note_on,2,0,0,,11,,,70,127
16678,note_off,103,0,0,,11,,,70,127
16680,note_on,2,0,0,,7,,,67,127
16783,note_off,103,0,0,,7,,,67,127
16783,note_off,0,0,0,,4,,,64,127
16785,note_on,2,0,0,,5,,,65,127
16785,note_on,0,0,0,,8,,,68,127
16992,note_off,207,0,0,,8,,,68,127
16994,note_on,2,0,0,,5,,,77,127
17201,note_off,207,0,0,,5,,,65,127
17203,note_on,2,0,0,,0,,,60,127
17410,note_off,207,0,0,,5,,,77,127
17412,note_on,2,0,0,,4,,,76,127
17515,note_off,103,0,0,,4,,,76,127
17517,note_on,2,0,0,,7,,,79,127
17620,note_off,103,0,0,,7,,,79,127
17620,note_off,0,0,0,,0,,,60,127
17622,note_on,2,0,0,,8,,,68,127
17622,note_on,0,0,0,,0,,,72,127
17829,note_off,207,0,0,,0,,,72,127
17831,note_on,2,0,0,,0,,,84,127
18038,note_off,207,0,0,,8,,,68,127
18040,note_on,2,0,0,,7,,,67,127
18247,note_off,207,0,0,,0,,,84,127
18249,note_on,2,0,0,,11,,,82,127
18352,note_off,103,0,0,,11,,,82,127
18354,note_on,2,0,0,,7,,,79,127
18457,note_off,103,0,0,,7,,,79,127
18457,note_off,0,0,0,,7,,,67,127
18459,note_on,2,0,0,,5,,,65,127
18459,note_on,0,0,0,,8,,,80,127
18666,note_off,207,0,0,,8,,,80,127
18668,note_on,2,0,0,,5,,,77,127
18875,note_off,207,0,0,,5,,,65,127
18877,note_on,2,0,0,,0,,,60,127
19084,note_off,207,0,0,,5,,,77,127
19086,note_on,2,0,0,,4,,,76,127
19189,note_off,103,0,0,,4,,,76,127
19191,note_on,2,0,0,,7,,,79,127
19294,note_off,103,0,0,,7,,,79,127
19294,note_off,0,0,0,,0,,,60,127
19296,note_on,2,0,0,,8,,,68,127
19296,note_on,0,0,0,,0,,,72,127
19503,note_off,207,0,0,,0,,,72,127
19505,note_on,2,0,0,,0,,,84,127
19712,note_off,207,0,0,,8,,,68,127
19714,note_on,2,0,0,,7,,,67,127
19921,note_off,207,0,0,,0,,,84,127
19923,note_on,2,0,0,,11,,,82,127
20026,note_off,103,0,0,,11,,,82,127
20028,note_on,2,0,0,,7,,,79,127
20131,note_off,103,0,0,,7,,,79,127
20131,note_off,0,0,0,,7,,,67,127
20133,note_on,2,0,0,,5,,,65,127
20133,note_on,0,0,0,,8,,,80,127
20340,note_off,207,0,0,,8,,,80,127
20342,note_on,2,0,0,,5,,,77,127
20549,note_off,207,0,0,,5,,,65,127
20551,note_on,2,0,0,,0,,,60,127
20758,note_off,207,0,0,,5,,,77,127
20760,note_on,2,0,0,,3,,,75,127
20863,note_off,103,0,0,,3,,,75,127
20865,note_on,2,0,0,,7,,,79,127
20968,note_off,103,0,0,,7,,,79,127
20968,note_off,0,0,0,,0,,,60,127
20970,note_on,2,0,0,,5,,,65,127
20970,note_on,0,0,0,,2,,,74,127
21155,note_off,185,0,0,,2,,,74,127
21179,note_on,24,0,0,,8,,,80,127
21282,note_off,103,0,0,,8,,,80,127
21284,note_on,2,0,0,,2,,,74,127
21387,note_off,103,0,0,,5,,,65,127
21389,note_on,2,0,0,,7,,,67,127
21492,note_off,103,0,0,,2,,,74,127
21494,note_on,2,0,0,,12,,,71,127
21597,note_off,103,0,0,,12,,,71,127
21599,note_on,2,0,0,,2,,,74,127
21702,note_off,103,0,0,,2,,,74,127
21704,note_on,2,0,0,,5,,,77,127
21807,note_off,103,0,0,,5,,,77,127
21807,note_off,0,0,0,,7,,,67,127
21809,note_on,2,0,0,,5,,,65,127
21809,note_on,0,0,0,,2,,,74,127
21994,note_off,185,0,0,,2,,,74,127
22018,note_on,24,0,0,,8,,,80,127
22121,note_off,103,0,0,,8,,,80,127
22123,note_on,2,0,0,,2,,,74,127
22226,note_off,103,0,0,,5,,,65,127
22228,note_on,2,0,0,,7,,,67,127
22331,note_off,103,0,0,,2,,,74,127
22333,note_on,2,0,0,,12,,,71,127
22436,note_off,103,0,0,,12,,,71,127
22438,note_on,2,0,0,,2,,,74,127
22541,note_off,103,0,0,,2,,,74,127
22543,note_on,2,0,0,,5,,,77,127
22646,note_off,103,0,0,,5,,,77,127
22646,note_off,0,0,0,,7,,,67,127
22648,note_on,2,0,0,,5,,,65,127
22648,note_on,0,0,0,,2,,,74,127
22751,note_off,103,0,0,,2,,,74,127
22753,note_on,2,0,0,,8,,,80,127
22856,note_off,103,0,0,,8,,,80,127
22858,note_on,2,0,0,,7,,,79,127
22961,note_off,103,0,0,,7,,,79,127
22963,note_on,2,0,0,,5,,,77,127
23066,note_off,103,0,0,,5,,,77,127
23066,note_off,0,0,0,,5,,,65,127
23068,note_on,2,0,0,,7,,,67,127
23068,note_on,0,0,0,,3,,,75,127
23171,note_off,103,0,0,,3,,,75,127
23173,note_on,2,0,0,,2,,,74,127
23276,note_off,103,0,0,,2,,,74,127
23278,note_on,2,0,0,,0,,,72,127
23381,note_off,103,0,0,,0,,,72,127
23383,note_on,2,0,0,,12,,,71,127
23486,note_off,103,0,0,,12,,,71,127
23486,note_off,0,0,0,,7,,,67,127
23488,note_on,2,0,0,,8,,,68,127
23488,note_on,0,0,0,,0,,,72,127
23695,note_off,207,0,0,,0,,,72,127
23695,note_off,0,0,0,,8,,,68,127
23697,note_on,2,0,0,,5,,,65,127
23697,note_on,0,0,0,,5,,,77,127
23904,note_off,207,0,0,,5,,,65,127
23906,note_on,2,0,0,,7,,,67,127
23958,note_off,52,0,0,,5,,,77,127
24010,note_on,52,0,0,,3,,,75,127
24113,note_off,103,0,0,,3,,,75,127
24115,note_on,2,0,0,,2,,,74,127
24218,note_off,103,0,0,,2,,,74,127
24220,note_on,2,0,0,,12,,,71,127
24323,note_off,103,0,0,,12,,,71,127
24323,note_off,0,0,0,,7,,,67,127
24325,note_on,2,0,0,,8,,,68,127
24325,note_on,0,0,0,,0,,,72,127
24532,note_off,207,0,0,,0,,,72,127
24532,note_off,0,0,0,,8,,,68,127
24534,note_on,2,0,0,,5,,,65,127
24534,note_on,0,0,0,,5,,,77,127
24741,note_off,207,0,0,,5,,,65,127
24743,note_on,2,0,0,,7,,,67,127
24795,note_off,52,0,0,,5,,,77,127
24847,note_on,52,0,0,,3,,,75,127
24950,note_off,103,0,0,,3,,,75,127
24952,note_on,2,0,0,,2,,,74,127
25055,note_off,103,0,0,,2,,,74,127
25057,note_on,2,0,0,,12,,,71,127
25160,note_off,103,0,0,,12,,,71,127
25160,note_off,0,0,0,,7,,,67,127
25162,note_on,2,0,0,,8,,,68,127
25162,note_on,0,0,0,,0,,,72,127
25369,note_off,207,0,0,,0,,,72,127
25371,note_on,2,0,0,,0,,,84,127
25578,note_off,207,0,0,,8,,,68,127
25580,note_on,2,0,0,,7,,,67,127
25787,note_off,207,0,0,,0,,,84,127
25789,note_on,2,0,0,,12,,,83,127
25892,note_off,103,0,0,,12,,,83,127
25894,note_on,2,0,0,,7,,,79,127
25994,note_off,100,0,0,,7,,,67,127
25996,note_off,2,0,0,,7,,,79,127
25998,note_on,2,0,0,,8,,,80,127
26205,note_off,207,0,0,,8,,,80,127
26207,note_on,2,0,0,,0,,,72,127
26207,note_on,0,0,0,,2,,,74,127
26414,note_off,207,0,0,,0,,,72,127
26416,note_on,2,0,0,,12,,,71,127
26623,note_off,207,0,0,,12,,,71,127
26623,note_off,0,0,0,,2,,,74,127
26625,note_on,2,0,0,,7,,,67,127
26625,note_on,0,0,0,,3,,,75,127
26728,note_off,103,0,0,,3,,,75,127
26730,note_on,2,0,0,,5,,,77,127
26833,note_off,103,0,0,,5,,,77,127
26833,note_off,0,0,0,,7,,,67,127
26835,note_on,2,0,0,,0,,,72,127
26835,note_on,0,0,0,,3,,,75,127
27042,note_off,207,0,0,,3,,,75,127
27042,note_off,0,0,0,,0,,,72,127
27044,note_on,2,0,0,,8,,,68,127
27044,note_on,0,0,0,,0,,,84,127
27251,note_off,207,0,0,,8,,,68,127
27253,note_on,2,0,0,,7,,,67,127
27460,note_off,207,0,0,,0,,,84,127
27462,note_on,2,0,0,,12,,,83,127
27565,note_off,103,0,0,,12,,,83,127
27567,note_on,2,0,0,,7,,,79,127
27667,note_off,100,0,0,,7,,,67,127
27669,note_off,2,0,0,,7,,,79,127
27671,note_on,2,0,0,,8,,,80,127
27878,note_off,207,0,0,,8,,,80,127
27880,note_on,2,0,0,,0,,,72,127
27880,note_on,0,0,0,,2,,,74,127
28087,note_off,207,0,0,,0,,,72,127
28089,note_on,2,0,0,,12,,,71,127
28296,note_off,207,0,0,,12,,,71,127
28296,note_off,0,0,0,,2,,,74,127
28298,note_on,2,0,0,,7,,,67,127
28298,note_on,0,0,0,,3,,,75,127
28401,note_off,103,0,0,,3,,,75,127
28403,note_on,2,0,0,,5,,,77,127
28506,note_off,103,0,0,,5,,,77,127
28506,note_off,0,0,0,,7,,,67,127
28508,note_on,2,0,0,,0,,,72,127
28508,note_on,0,0,0,,5,,,77,127
28611,note_off,103,0,0,,5,,,77,127
28613,note_on,2,0,0,,3,,,75,127
28716,note_off,103,0,0,,3,,,75,127
28716,note_off,0,0,0,,0,,,72,127
28718,note_on,2,0,0,,11,,,70,127
28718,note_on,0,0,0,,2,,,74,127
28821,note_off,103,0,0,,2,,,74,127
28823,note_on,2,0,0,,3,,,75,127
28926,note_off,103,0,0,,3,,,75,127
28926,note_off,0,0,0,,11,,,70,127
28928,note_on,2,0,0,,8,,,68,127
28928,note_on,0,0,0,,5,,,77,127
29135,note_off,207,0,0,,5,,,77,127
29135,note_off,0,0,0,,8,,,68,127
29137,note_on,2,0,0,,7,,,67,127
29137,note_on,0,0,0,,7,,,79,127
29344,note_off,207,0,0,,7,,,79,127
29344,note_off,0,0,0,,7,,,67,127
29346,note_on,2,0,0,,5,,,65,127
29346,note_on,0,0,0,,8,,,80,127
29553,note_off,207,0,0,,8,,,80,127
29555,note_on,2,0,0,,7,,,79,127
29658,note_off,103,0,0,,7,,,79,127
29660,note_on,2,0,0,,5,,,77,127
29763,note_off,103,0,0,,5,,,77,127
29763,note_off,0,0,0,,5,,,65,127
29765,note_on,2,0,0,,7,,,67,127
29765,note_on,0,0,0,,3,,,75,127
29868,note_off,103,0,0,,3,,,75,127
29870,note_on,2,0,0,,2,,,74,127
29973,note_off,103,0,0,,2,,,74,127
29975,note_on,2,0,0,,0,,,72,127
30078,note_off,103,0,0,,0,,,72,127
30080,note_on,2,0,0,,12,,,71,127
30183,note_off,103,0,0,,12,,,71,127
30183,note_off,0,0,0,,7,,,67,127
30185,note_on,2,0,0,,8,,,68,127
30185,note_on,0,0,0,,0,,,72,127
30392,note_off,207,0,0,,0,,,72,127
30394,note_on,2,0,0,,0,,,84,127
30601,note_off,207,0,0,,8,,,68,127
30603,note_on,2,0,0,,7,,,67,127
30810,note_off,207,0,0,,0,,,84,127
30812,note_on,2,0,0,,12,,,83,127
30915,note_off,103,0,0,,12,,,83,127
30917,note_on,2,0,0,,7,,,79,127
31017,note_off,100,0,0,,7,,,67,127
31019,note_off,2,0,0,,7,,,79,127
31021,note_on,2,0,0,,8,,,80,127
31228,note_off,207,0,0,,8,,,80,127
31230,note_on,2,0,0,,0,,,72,127
31230,note_on,0,0,0,,2,,,74,127
31437,note_off,207,0,0,,0,,,72,127
31439,note_on,2,0,0,,12,,,71,127
31646,note_off,207,0,0,,12,,,71,127
31646,note_off,0,0,0,,2,,,74,127
31648,note_on,2,0,0,,7,,,67,127
31648,note_on,0,0,0,,3,,,75,127
31751,note_off,103,0,0,,3,,,75,127
31753,note_on,2,0,0,,5,,,77,127
31856,note_off,103,0,0,,5,,,77,127
31856,note_off,0,0,0,,7,,,67,127
31858,note_on,2,0,0,,0,,,72,127
31858,note_on,0,0,0,,3,,,75,127
32065,note_off,207,0,0,,3,,,75,127
32065,note_off,0,0,0,,0,,,72,127
32067,note_on,2,0,0,,8,,,68,127
32067,note_on,0,0,0,,0,,,84,127
32274,note_off,207,0,0,,8,,,68,127
32276,note_on,2,0,0,,7,,,67,127
32483,note_off,207,0,0,,0,,,84,127
32485,note_on,2,0,0,,12,,,83,127
32588,note_off,103,0,0,,12,,,83,127
32590,note_on,2,0,0,,7,,,79,127
32690,note_off,100,0,0,,7,,,67,127
32692,note_off,2,0,0,,7,,,79,127
32694,note_on,2,0,0,,8,,,80,127
32901,note_off,207,0,0,,8,,,80,127
32903,note_on,2,0,0,,0,,,72,127
32903,note_on,0,0,0,,2,,,74,127
33110,note_off,207,0,0,,0,,,72,127
33112,note_on,2,0,0,,12,,,71,127
33319,note_off,207,0,0,,12,,,71,127
33319,note_off,0,0,0,,2,,,74,127
33321,note_on,2,0,0,,7,,,67,127
33321,note_on,0,0,0,,3,,,75,127
33424,note_off,103,0,0,,3,,,75,127
33426,note_on,2,0,0,,5,,,77,127
33529,note_off,103,0,0,,5,,,77,127
33529,note_off,0,0,0,,7,,,67,127
33531,note_on,2,0,0,,0,,,72,127
33531,note_on,0,0,0,,5,,,77,127
33634,note_off,103,0,0,,5,,,77,127
33636,note_on,2,0,0,,3,,,75,127
33739,note_off,103,0,0,,3,,,75,127
33739,note_off,0,0,0,,0,,,72,127
33741,note_on,2,0,0,,11,,,70,127
33741,note_on,0,0,0,,2,,,74,127
33844,note_off,103,0,0,,2,,,74,127
33846,note_on,2,0,0,,3,,,75,127
33949,note_off,103,0,0,,3,,,75,127
33949,note_off,0,0,0,,11,,,70,127
33951,note_on,2,0,0,,8,,,68,127
33951,note_on,0,0,0,,5,,,77,127
34158,note_off,207,0,0,,5,,,77,127
34158,note_off,0,0,0,,8,,,68,127
34160,note_on,2,0,0,,7,,,67,127
34160,note_on,0,0,0,,7,,,79,127
34367,note_off,207,0,0,,7,,,79,127
34367,note_off,0,0,0,,7,,,67,127
34369,note_on,2,0,0,,5,,,65,127
34369,note_on,0,0,0,,8,,,80,127
34576,note_off,207,0,0,,8,,,80,127
34576,note_off,0,0,0,,5,,,65,127
34578,note_on,2,0,0,,5,,,53,127
34578,note_on,0,0,0,,7,,,79,127
34681,note_off,103,0,0,,7,,,79,127
34683,note_on,2,0,0,,5,,,77,127
34786,note_off,103,0,0,,5,,,77,127
34786,note_off,0,0,0,,5,,,53,127
34788,note_on,2,0,0,,7,,,55,127
34788,note_on,0,0,0,,3,,,75,127
34891,note_off,103,0,0,,3,,,75,127
34893,note_on,2,0,0,,2,,,74,127
34996,note_off,103,0,0,,2,,,74,127
34996,note_off,0,0,0,,7,,,55,127
34998,note_on,2,0,0,,7,,,43,127
34998,note_on,0,0,0,,0,,,72,127
35101,note_off,103,0,0,,0,,,72,127
35103,note_on,2,0,0,,12,,,71,127
35206,note_off,103,0,0,,12,,,71,127
35206,note_off,0,0,0,,7,,,43,127
35208,note_on,2,0,0,,0,,,48,127
35208,note_on,0,0,0,,2,,,74,127
35276,note_off,68,0,0,,2,,,74,127
35278,note_on,2,0,0,,0,,,72,127
35346,note_off,68,0,0,,0,,,72,127
35348,note_on,2,0,0,,2,,,74,127
35416,note_off,68,0,0,,2,,,74,127
35416,note_off,0,0,0,,0,,,48,127
35418,note_on,2,0,0,,2,,,50,127
35418,note_on,0,0,0,,0,,,72,127
35625,note_off,207,0,0,,2,,,50,127
35627,note_on,2,0,0,,4,,,52,127
35834,note_off,207,0,0,,4,,,52,127
35834,note_off,0,0,0,,0,,,72,127
35836,note_on,2,0,0,,0,,,48,127
35836,note_on,0,0,0,,2,,,74,127
35939,note_off,103,0,0,,2,,,74,127
35941,note_on,2,0,0,,4,,,76,127
36044,note_off,103,0,0,,4,,,76,127
36044,note_off,0,0,0,,0,,,48,127
36046,note_on,2,0,0,,5,,,53,127
36046,note_on,0,0,0,,2,,,74,127
36114,note_off,68,0,0,,2,,,74,127
36116,note_on,2,0,0,,0,,,72,127
36184,note_off,68,0,0,,0,,,72,127
36186,note_on,2,0,0,,2,,,74,127
36254,note_off,68,0,0,,2,,,74,127
36254,note_off,0,0,0,,5,,,53,127
36256,note_on,2,0,0,,7,,,55,127
36256,note_on,0,0,0,,0,,,72,127
36463,note_off,207,0,0,,7,,,55,127
36465,note_on,2,0,0,,10,,,57,127
36672,note_off,207,0,0,,10,,,57,127
36672,note_off,0,0,0,,0,,,72,127
36674,note_on,2,0,0,,5,,,53,127
36674,note_on,0,0,0,,2,,,74,127
36777,note_off,103,0,0,,2,,,74,127
36779,note_on,2,0,0,,4,,,76,127
36882,note_off,103,0,0,,4,,,76,127
36882,note_off,0,0,0,,5,,,53,127
36884,note_on,2,0,0,,4,,,52,127
36884,note_on,0,0,0,,2,,,74,127
36952,note_off,68,0,0,,2,,,74,127
36954,note_on,2,0,0,,0,,,72,127
37022,note_off,68,0,0,,0,,,72,127
37024,note_on,2,0,0,,2,,,74,127
37092,note_off,68,0,0,,2,,,74,127
37092,note_off,0,0,0,,4,,,52,127
37094,note_on,2,0,0,,2,,,50,127
37094,note_on,0,0,0,,0,,,72,127
37301,note_off,207,0,0,,2,,,50,127
37303,note_on,2,0,0,,4,,,52,127
37510,note_off,207,0,0,,4,,,52,127
37510,note_off,0,0,0,,0,,,72,127
37512,note_on,2,0,0,,0,,,48,127
37512,note_on,0,0,0,,2,,,74,127
37615,note_off,103,0,0,,2,,,74,127
37617,note_on,2,0,0,,4,,,76,127
37720,note_off,103,0,0,,4,,,76,127
37720,note_off,0,0,0,,0,,,48,127
37722,note_on,2,0,0,,5,,,53,127
37722,note_on,0,0,0,,2,,,74,127
37825,note_off,103,0,0,,2,,,74,127
37827,note_on,2,0,0,,2,,,74,127
37930,note_off,103,0,0,,2,,,74,127
37930,note_off,0,0,0,,5,,,53,127
37932,note_on,2,0,0,,5,,,41,127
37932,note_on,0,0,0,,4,,,76,127
38035,note_off,103,0,0,,4,,,76,127
38037,note_on,2,0,0,,5,,,77,127
38140,note_off,103,0,0,,5,,,77,127
38140,note_off,0,0,0,,5,,,41,127
38142,note_on,2,0,0,,7,,,43,127
38142,note_on,0,0,0,,4,,,76,127
38245,note_off,103,0,0,,4,,,76,127
38247,note_on,2,0,0,,2,,,74,127
38350,note_off,103,0,0,,2,,,74,127
38352,note_on,2,0,0,,0,,,72,127
38455,note_off,103,0,0,,0,,,72,127
38457,note_on,2,0,0,,12,,,71,127
38560,note_off,103,0,0,,12,,,71,127
38560,note_off,0,0,0,,7,,,43,127
38562,note_on,2,0,0,,0,,,48,127
38562,note_on,0,0,0,,0,,,60,127
38562,note_on,0,0,0,,2,,,74,127
38630,note_off,68,0,0,,2,,,74,127
38632,note_on,2,0,0,,0,,,72,127
38700,note_off,68,0,0,,0,,,72,127
38702,note_on,2,0,0,,2,,,74,127
38770,note_off,68,0,0,,2,,,74,127
38770,note_off,0,0,0,,0,,,60,127
38770,note_off,0,0,0,,0,,,48,127
38772,note_on,2,0,0,,12,,,59,127
38772,note_on,0,0,0,,12,,,47,127
38772,note_on,0,0,0,,0,,,72,127
38979,note_off,207,0,0,,12,,,47,127
38979,note_off,0,0,0,,12,,,59,127
38981,note_on,2,0,0,,10,,,57,127
38981,note_on,0,0,0,,10,,,45,127
39188,note_off,207,0,0,,10,,,45,127
39188,note_off,0,0,0,,10,,,57,127
39188,note_off,0,0,0,,0,,,72,127
39190,note_on,2,0,0,,7,,,55,127
39190,note_on,0,0,0,,7,,,43,127
39190,note_on,0,0,0,,2,,,74,127
39293,note_off,103,0,0,,2,,,74,127
39295,note_on,2,0,0,,4,,,76,127
39398,note_off,103,0,0,,4,,,76,127
39398,note_off,0,0,0,,7,,,43,127
39398,note_off,0,0,0,,7,,,55,127
39400,note_on,2,0,0,,5,,,41,127
39400,note_on,0,0,0,,5,,,53,127
39400,note_on,0,0,0,,12,,,71,127
39468,note_off,68,0,0,,12,,,71,127
39470,note_on,2,0,0,,10,,,69,127
39538,note_off,68,0,0,,10,,,69,127
39540,note_on,2,0,0,,12,,,71,127
39608,note_off,68,0,0,,12,,,71,127
39608,note_off,0,0,0,,5,,,53,127
39608,note_off,0,0,0,,5,,,41,127
39610,note_on,2,0,0,,4,,,52,127
39610,note_on,0,0,0,,4,,,40,127
39610,note_on,0,0,0,,10,,,69,127
39817,note_off,207,0,0,,4,,,40,127
39817,note_off,0,0,0,,4,,,52,127
39819,note_on,2,0,0,,2,,,38,127
39819,note_on,0,0,0,,2,,,50,127
40026,note_off,207,0,0,,2,,,50,127
40026,note_off,0,0,0,,2,,,38,127
40026,note_off,0,0,0,,10,,,69,127
40028,note_on,2,0,0,,7,,,43,127
40028,note_on,0,0,0,,7,,,55,127
40028,note_on,0,0,0,,12,,,71,127
40131,note_off,103,0,0,,12,,,71,127
40133,note_on,2,0,0,,0,,,72,127
40236,note_off,103,0,0,,0,,,72,127
40236,note_off,0,0,0,,7,,,55,127
40236,note_off,0,0,0,,7,,,43,127
40238,note_on,2,0,0,,0,,,48,127
40238,note_on,0,0,0,,0,,,36,127
40238,note_on,0,0,0,,5,,,65,127
40306,note_off,68,0,0,,5,,,65,127
40308,note_on,2,0,0,,4,,,64,127
40376,note_off,68,0,0,,4,,,64,127
40378,note_on,2,0,0,,5,,,65,127
40446,note_off,68,0,0,,5,,,65,127
40446,note_off,0,0,0,,0,,,36,127
40446,note_off,0,0,0,,0,,,48,127
40448,note_on,2,0,0,,2,,,38,127
40448,note_on,0,0,0,,2,,,50,127
40448,note_on,0,0,0,,4,,,64,127
40655,note_off,207,0,0,,2,,,50,127
40655,note_off,0,0,0,,2,,,38,127
40657,note_on,2,0,0,,4,,,52,127
40657,note_on,0,0,0,,4,,,40,127
40864,note_off,207,0,0,,4,,,40,127
40864,note_off,0,0,0,,4,,,52,127
40864,note_off,0,0,0,,4,,,64,127
40866,note_on,2,0,0,,0,,,48,127
40866,note_on,0,0,0,,0,,,36,127
40866,note_on,0,0,0,,5,,,65,127
40969,note_off,103,0,0,,5,,,65,127
40971,note_on,2,0,0,,7,,,67,127
41074,note_off,103,0,0,,7,,,67,127
41074,note_off,0,0,0,,0,,,36,127
41074,note_off,0,0,0,,0,,,48,127
41076,note_on,2,0,0,,5,,,53,127
41076,note_on,0,0,0,,5,,,41,127
41076,note_on,0,0,0,,2,,,62,127
41179,note_off,103,0,0,,2,,,62,127
41181,note_on,2,0,0,,2,,,62,127
41284,note_off,103,0,0,,2,,,62,127
41286,note_on,2,0,0,,4,,,64,127
41389,note_off,103,0,0,,4,,,64,127
41391,note_on,2,0,0,,5,,,65,127
41494,note_off,103,0,0,,5,,,65,127
41494,note_off,0,0,0,,5,,,41,127
41494,note_off,0,0,0,,5,,,53,127
41496,note_on,2,0,0,,7,,,43,127
41496,note_on,0,0,0,,7,,,55,127
41496,note_on,0,0,0,,4,,,64,127
41599,note_off,103,0,0,,4,,,64,127
41601,note_on,2,0,0,,2,,,62,127
41704,note_off,103,0,0,,2,,,62,127
41706,note_on,2,0,0,,0,,,60,127
41809,note_off,103,0,0,,0,,,60,127
41811,note_on,2,0,0,,12,,,59,127
41914,note_off,103,0,0,,12,,,59,127
41914,note_off,0,0,0,,7,,,55,127
41914,note_off,0,0,0,,7,,,43,127
41916,note_on,2,0,0,,0,,,36,127
41916,note_on,0,0,0,,0,,,48,127
41916,note_on,0,0,0,,2,,,62,127
41968,note_on,52,0,0,,0,,,60,127
41983,note_off,15,0,0,,2,,,62,127
42020,note_on,37,0,0,,2,,,62,127
42035,note_off,15,0,0,,0,,,60,127
42072,note_on,37,0,0,,0,,,60,127
42087,note_off,15,0,0,,2,,,62,127
42541,note_off,454,0,0,,0,,,60,127
42750,note_off,209,0,0,,0,,,48,127
42750,note_off,0,0,0,,0,,,36,127
42752,note_on,2,0,0,,0,,,60,127
42961,note_on,209,0,0,,7,,,79,127
43064,note_off,103,0,0,,7,,,79,127
43066,note_on,2,0,0,,4,,,76,127
43166,note_off,100,0,0,,0,,,60,127
43168,note_off,2,0,0,,4,,,76,127
43170,note_on,2,0,0,,0,,,72,127
43377,note_off,207,0,0,,0,,,72,127
43379,note_on,2,0,0,,7,,,79,127
43586,note_off,207,0,0,,7,,,79,127
43588,note_on,2,0,0,,0,,,72,127
43795,note_off,207,0,0,,0,,,72,127
43797,note_on,2,0,0,,7,,,79,127
44004,note_off,207,0,0,,7,,,79,127
44006,note_on,2,0,0,,2,,,62,127
44006,note_on,0,0,0,,7,,,67,127
44006,note_on,0,0,0,,0,,,72,127
44074,note_off,68,0,0,,0,,,72,127
44076,note_on,2,0,0,,11,,,70,127
44144,note_off,68,0,0,,11,,,70,127
44146,note_on,2,0,0,,0,,,72,127
44214,note_off,68,0,0,,0,,,72,127
44216,note_on,2,0,0,,11,,,70,127
44284,note_off,68,0,0,,11,,,70,127
44286,note_on,2,0,0,,0,,,72,127
44354,note_off,68,0,0,,0,,,72,127
44356,note_on,2,0,0,,11,,,70,127
44424,note_off,68,0,0,,11,,,70,127
44424,note_off,0,0,0,,7,,,67,127
44424,note_off,0,0,0,,2,,,62,127
44426,note_on,2,0,0,,1,,,61,127
44426,note_on,0,0,0,,7,,,67,127
44426,note_on,0,0,0,,10,,,69,127
44633,note_off,207,0,0,,10,,,69,127
44635,note_on,2,0,0,,4,,,76,127
44738,note_off,103,0,0,,4,,,76,127
44740,note_on,2,0,0,,1,,,73,127
44840,note_off,100,0,0,,7,,,67,127
44840,note_off,0,0,0,,1,,,61,127
44842,note_off,2,0,0,,1,,,73,127
44844,note_on,2,0,0,,10,,,69,127
45051,note_off,207,0,0,,10,,,69,127
45053,note_on,2,0,0,,4,,,76,127
45260,note_off,207,0,0,,4,,,76,127
45262,note_on,2,0,0,,10,,,69,127
45469,note_off,207,0,0,,10,,,69,127
45471,note_on,2,0,0,,4,,,76,127
45678,note_off,207,0,0,,4,,,76,127
45680,note_on,2,0,0,,4,,,64,127
45680,note_on,0,0,0,,10,,,57,127
45680,note_on,0,0,0,,10,,,69,127
45748,note_off,68,0,0,,10,,,69,127
45750,note_on,2,0,0,,7,,,67,127
45818,note_off,68,0,0,,7,,,67,127
45820,note_on,2,0,0,,10,,,69,127
45888,note_off,68,0,0,,10,,,69,127
45890,note_on,2,0,0,,7,,,67,127
45958,note_off,68,0,0,,7,,,67,127
45960,note_on,2,0,0,,10,,,69,127
46028,note_off,68,0,0,,10,,,69,127
46030,note_on,2,0,0,,7,,,67,127
46095,note_off,65,0,0,,10,,,57,127
46095,note_off,0,0,0,,4,,,64,127
46097,note_off,2,0,0,,7,,,67,127
46099,note_on,2,0,0,,5,,,65,127
46308,note_on,209,0,0,,2,,,62,127
46411,note_off,103,0,0,,2,,,62,127
46413,note_on,2,0,0,,10,,,57,127
46513,note_off,100,0,0,,5,,,65,127
46515,note_off,2,0,0,,10,,,57,127
46517,note_on,2,0,0,,5,,,53,127
46724,note_off,207,0,0,,5,,,53,127
46726,note_on,2,0,0,,2,,,62,127
46933,note_off,207,0,0,,2,,,62,127
46935,note_on,2,0,0,,5,,,53,127
47142,note_off,207,0,0,,5,,,53,127
47144,note_on,2,0,0,,2,,,62,127
47144,note_on,0,0,0,,2,,,74,127
47351,note_off,207,0,0,,2,,,74,127
47351,note_off,0,0,0,,2,,,62,127
47353,note_on,2,0,0,,7,,,55,127
47353,note_on,0,0,0,,0,,,72,127
47421,note_off,68,0,0,,0,,,72,127
47423,note_on,2,0,0,,11,,,70,127
47491,note_off,68,0,0,,11,,,70,127
47493,note_on,2,0,0,,0,,,72,127
47561,note_off,68,0,0,,0,,,72,127
47561,note_off,0,0,0,,7,,,55,127
47563,note_on,2,0,0,,4,,,64,127
47563,note_on,0,0,0,,11,,,70,127
47631,note_off,68,0,0,,11,,,70,127
47633,note_on,2,0,0,,0,,,72,127
47701,note_off,68,0,0,,0,,,72,127
47703,note_on,2,0,0,,11,,,70,127
47771,note_off,68,0,0,,11,,,70,127
47771,note_off,0,0,0,,4,,,64,127
47773,note_on,2,0,0,,5,,,53,127
47773,note_on,0,0,0,,10,,,69,127
47980,note_off,207,0,0,,5,,,53,127
47982,note_on,2,0,0,,2,,,62,127
48085,note_off,103,0,0,,2,,,62,127
48087,note_on,2,0,0,,10,,,57,127
48187,note_off,100,0,0,,10,,,69,127
48189,note_off,2,0,0,,10,,,57,127
48191,note_on,2,0,0,,5,,,53,127
48398,note_off,207,0,0,,5,,,53,127
48400,note_on,2,0,0,,2,,,62,127
48607,note_off,207,0,0,,2,,,62,127
48609,note_on,2,0,0,,5,,,53,127
48816,note_off,207,0,0,,5,,,53,127
48818,note_on,2,0,0,,2,,,62,127
48818,note_on,0,0,0,,10,,,81,127
49025,note_off,207,0,0,,10,,,81,127
49025,note_off,0,0,0,,2,,,62,127
49027,note_on,2,0,0,,4,,,52,127
49027,note_on,0,0,0,,10,,,81,127
49095,note_off,68,0,0,,10,,,81,127
49097,note_on,2,0,0,,7,,,79,127
49165,note_off,68,0,0,,7,,,79,127
49167,note_on,2,0,0,,10,,,81,127
49235,note_off,68,0,0,,10,,,81,127
49235,note_off,0,0,0,,4,,,52,127
49237,note_on,2,0,0,,1,,,61,127
49237,note_on,0,0,0,,7,,,79,127
49305,note_off,68,0,0,,7,,,79,127
49307,note_on,2,0,0,,10,,,81,127
49375,note_off,68,0,0,,10,,,81,127
49377,note_on,2,0,0,,7,,,79,127
49445,note_off,68,0,0,,7,,,79,127
49445,note_off,0,0,0,,1,,,61,127
49447,note_on,2,0,0,,2,,,50,127
49447,note_on,0,0,0,,5,,,77,127
49654,note_off,207,0,0,,5,,,77,127
49656,note_on,2,0,0,,10,,,81,127
49759,note_off,103,0,0,,10,,,81,127
49761,note_on,2,0,0,,5,,,77,127
49861,note_off,100,0,0,,2,,,50,127
49863,note_off,2,0,0,,5,,,77,127
49865,note_on,2,0,0,,2,,,74,127
50072,note_off,207,0,0,,2,,,74,127
50074,note_on,2,0,0,,10,,,69,127
50281,note_off,207,0,0,,10,,,69,127
50283,note_on,2,0,0,,2,,,74,127
50479,note_off,196,0,0,,2,,,74,127
50492,note_on,13,0,0,,7,,,67,127
50492,note_on,0,0,0,,4,,,76,127
50699,note_off,207,0,0,,7,,,67,127
50701,note_on,2,0,0,,1,,,61,127
50908,note_off,207,0,0,,1,,,61,127
50908,note_off,0,0,0,,4,,,76,127
50910,note_on,2,0,0,,10,,,57,127
50910,note_on,0,0,0,,5,,,77,127
51013,note_off,103,0,0,,5,,,77,127
51015,note_on,2,0,0,,7,,,79,127
51118,note_off,103,0,0,,7,,,79,127
51118,note_off,0,0,0,,10,,,57,127
51120,note_on,2,0,0,,2,,,62,127
51120,note_on,0,0,0,,5,,,77,127
51327,note_off,207,0,0,,5,,,77,127
51329,note_on,2,0,0,,10,,,81,127
51432,note_off,103,0,0,,10,,,81,127
51434,note_on,2,0,0,,5,,,77,127
51534,note_off,100,0,0,,2,,,62,127
51536,note_off,2,0,0,,5,,,77,127
51538,note_on,2,0,0,,2,,,74,127
51745,note_off,207,0,0,,2,,,74,127
51747,note_on,2,0,0,,10,,,69,127
51954,note_off,207,0,0,,10,,,69,127
51956,note_on,2,0,0,,11,,,70,127
52152,note_off,196,0,0,,11,,,70,127
52165,note_on,13,0,0,,7,,,67,127
52165,note_on,0,0,0,,4,,,76,127
52372,note_off,207,0,0,,7,,,67,127
52374,note_on,2,0,0,,1,,,61,127
52581,note_off,207,0,0,,1,,,61,127
52581,note_off,0,0,0,,4,,,76,127
52583,note_on,2,0,0,,10,,,57,127
52583,note_on,0,0,0,,5,,,77,127
52686,note_off,103,0,0,,5,,,77,127
52688,note_on,2,0,0,,7,,,79,127
52791,note_off,103,0,0,,7,,,79,127
52791,note_off,0,0,0,,10,,,57,127
52793,note_on,2,0,0,,2,,,62,127
52793,note_on,0,0,0,,6,,,78,127
53000,note_off,207,0,0,,6,,,78,127
53000,note_off,0,0,0,,2,,,62,127
53002,note_on,2,0,0,,4,,,64,127
53002,note_on,0,0,0,,7,,,79,127
53105,note_off,103,0,0,,7,,,79,127
53107,note_on,2,0,0,,10,,,81,127
53210,note_off,103,0,0,,10,,,81,127
53210,note_off,0,0,0,,4,,,64,127
53212,note_on,2,0,0,,6,,,66,127
53212,note_on,0,0,0,,2,,,74,127
53419,note_off,207,0,0,,2,,,74,127
53419,note_off,0,0,0,,6,,,66,127
53421,note_on,2,0,0,,2,,,62,127
53421,note_on,0,0,0,,0,,,84,127
53628,note_off,207,0,0,,2,,,62,127
53630,note_on,2,0,0,,7,,,67,127
53837,note_off,207,0,0,,7,,,67,127
53837,note_off,0,0,0,,0,,,84,127
53839,note_on,2,0,0,,5,,,65,127
53839,note_on,0,0,0,,11,,,82,127
53942,note_off,103,0,0,,11,,,82,127
53944,note_on,2,0,0,,10,,,81,127
54047,note_off,103,0,0,,10,,,81,127
54047,note_off,0,0,0,,5,,,65,127
54049,note_on,2,0,0,,4,,,64,127
54049,note_on,0,0,0,,7,,,79,127
54256,note_off,207,0,0,,7,,,79,127
54256,note_off,0,0,0,,4,,,64,127
54258,note_on,2,0,0,,2,,,62,127
54258,note_on,0,0,0,,5,,,77,127
54465,note_off,207,0,0,,5,,,77,127
54465,note_off,0,0,0,,2,,,62,127
54467,note_on,2,0,0,,0,,,60,127
54467,note_on,0,0,0,,4,,,76,127
54674,note_off,207,0,0,,4,,,76,127
54674,note_off,0,0,0,,0,,,60,127
54676,note_on,2,0,0,,2,,,62,127
54676,note_on,0,0,0,,5,,,77,127
54779,note_off,103,0,0,,5,,,77,127
54781,note_on,2,0,0,,7,,,79,127
54884,note_off,103,0,0,,7,,,79,127
54884,note_off,0,0,0,,2,,,62,127
54886,note_on,2,0,0,,4,,,64,127
54886,note_on,0,0,0,,0,,,72,127
55093,note_off,207,0,0,,0,,,72,127
55093,note_off,0,0,0,,4,,,64,127
55095,note_on,2,0,0,,0,,,60,127
55095,note_on,0,0,0,,11,,,82,127
55302,note_off,207,0,0,,0,,,60,127
55304,note_on,2,0,0,,5,,,65,127
55511,note_off,207,0,0,,5,,,65,127
55511,note_off,0,0,0,,11,,,82,127
55513,note_on,2,0,0,,4,,,64,127
55513,note_on,0,0,0,,10,,,81,127
55616,note_off,103,0,0,,10,,,81,127
55618,note_on,2,0,0,,7,,,79,127
55721,note_off,103,0,0,,7,,,79,127
55721,note_off,0,0,0,,4,,,64,127
55723,note_on,2,0,0,,2,,,62,127
55723,note_on,0,0,0,,5,,,77,127
55930,note_off,207,0,0,,5,,,77,127
55930,note_off,0,0,0,,2,,,62,127
55932,note_on,2,0,0,,0,,,60,127
55932,note_on,0,0,0,,4,,,76,127
56139,note_off,207,0,0,,4,,,76,127
56139,note_off,0,0,0,,0,,,60,127
56141,note_on,2,0,0,,11,,,58,127
56141,note_on,0,0,0,,2,,,74,127
56348,note_off,207,0,0,,2,,,74,127
56348,note_off,0,0,0,,11,,,58,127
56350,note_on,2,0,0,,10,,,57,127
56350,note_on,0,0,0,,0,,,72,127
56557,note_off,207,0,0,,0,,,72,127
56557,note_off,0,0,0,,10,,,57,127
56559,note_on,2,0,0,,7,,,55,127
56559,note_on,0,0,0,,11,,,70,127
56766,note_off,207,0,0,,11,,,70,127
56766,note_off,0,0,0,,7,,,55,127
56768,note_on,2,0,0,,5,,,53,127
56768,note_on,0,0,0,,10,,,69,127
56975,note_off,207,0,0,,10,,,69,127
56975,note_off,0,0,0,,5,,,53,127
56977,note_on,2,0,0,,0,,,48,127
56977,note_on,0,0,0,,7,,,67,127
57184,note_off,207,0,0,,7,,,67,127
57186,note_on,2,0,0,,7,,,79,127
57289,note_off,103,0,0,,7,,,79,127
57291,note_on,2,0,0,,2,,,74,127
57394,note_off,103,0,0,,2,,,74,127
57396,note_on,2,0,0,,4,,,76,127
57499,note_off,103,0,0,,4,,,76,127
57501,note_on,2,0,0,,0,,,72,127
57604,note_off,103,0,0,,0,,,72,127
57604,note_off,0,0,0,,0,,,48,127
57606,note_on,2,0,0,,7,,,55,127
57606,note_on,0,0,0,,2,,,74,127
57709,note_off,103,0,0,,2,,,74,127
57711,note_on,2,0,0,,12,,,71,127
57814,note_off,103,0,0,,12,,,71,127
57814,note_off,0,0,0,,7,,,55,127
57816,note_on,2,0,0,,0,,,60,127
57816,note_on,0,0,0,,0,,,72,127
58023,note_off,207,0,0,,0,,,72,127
58025,note_on,2,0,0,,0,,,84,127
58128,note_off,103,0,0,,0,,,84,127
58130,note_on,2,0,0,,7,,,79,127
58233,note_off,103,0,0,,7,,,79,127
58235,note_on,2,0,0,,10,,,81,127
58338,note_off,103,0,0,,10,,,81,127
58340,note_on,2,0,0,,4,,,76,127
58443,note_off,103,0,0,,4,,,76,127
58443,note_off,0,0,0,,0,,,60,127
58445,note_on,2,0,0,,7,,,55,127
58445,note_on,0,0,0,,5,,,77,127
58548,note_off,103,0,0,,5,,,77,127
58550,note_on,2,0,0,,2,,,74,127
58653,note_off,103,0,0,,2,,,74,127
58653,note_off,0,0,0,,7,,,55,127
58655,note_on,2,0,0,,0,,,48,127
58655,note_on,0,0,0,,4,,,76,127
58862,note_off,207,0,0,,4,,,76,127
58864,note_on,2,0,0,,7,,,79,127
58967,note_off,103,0,0,,7,,,79,127
58969,note_on,2,0,0,,2,,,74,127
59072,note_off,103,0,0,,2,,,74,127
59074,note_on,2,0,0,,4,,,76,127
59177,note_off,103,0,0,,4,,,76,127
59179,note_on,2,0,0,,0,,,72,127
59282,note_off,103,0,0,,0,,,72,127
59282,note_off,0,0,0,,0,,,48,127
59284,note_on,2,0,0,,7,,,55,127
59284,note_on,0,0,0,,2,,,74,127
59387,note_off,103,0,0,,2,,,74,127
59389,note_on,2,0,0,,12,,,71,127
59492,note_off,103,0,0,,12,,,71,127
59492,note_off,0,0,0,,7,,,55,127
59494,note_on,2,0,0,,0,,,60,127
59494,note_on,0,0,0,,0,,,72,127
59701,note_off,207,0,0,,0,,,72,127
59703,note_on,2,0,0,,0,,,84,127
59806,note_off,103,0,0,,0,,,84,127
59808,note_on,2,0,0,,7,,,79,127
59911,note_off,103,0,0,,7,,,79,127
59913,note_on,2,0,0,,10,,,81,127
60016,note_off,103,0,0,,10,,,81,127
60018,note_on,2,0,0,,4,,,76,127
60121,note_off,103,0,0,,4,,,76,127
60121,note_off,0,0,0,,0,,,60,127
60123,note_on,2,0,0,,7,,,55,127
60123,note_on,0,0,0,,5,,,77,127
60226,note_off,103,0,0,,5,,,77,127
60228,note_on,2,0,0,,2,,,74,127
60331,note_off,103,0,0,,2,,,74,127
60331,note_off,0,0,0,,7,,,55,127
60333,note_on,2,0,0,,0,,,60,127
60333,note_on,0,0,0,,4,,,76,127
60436,note_off,103,0,0,,4,,,76,127
60438,note_on,2,0,0,,0,,,72,127
60541,note_off,103,0,0,,0,,,72,127
60541,note_off,0,0,0,,0,,,60,127
60543,note_on,2,0,0,,7,,,55,127
60543,note_on,0,0,0,,5,,,77,127
60646,note_off,103,0,0,,5,,,77,127
60648,note_on,2,0,0,,2,,,74,127
60751,note_off,103,0,0,,2,,,74,127
60751,note_off,0,0,0,,7,,,55,127
60753,note_on,2,0,0,,0,,,60,127
60753,note_on,0,0,0,,4,,,76,127
60856,note_off,103,0,0,,4,,,76,127
60858,note_on,2,0,0,,0,,,72,127
60961,note_off,103,0,0,,0,,,72,127
60961,note_off,0,0,0,,0,,,60,127
60963,note_on,2,0,0,,7,,,55,127
60963,note_on,0,0,0,,2,,,74,127
61066,note_off,103,0,0,,2,,,74,127
61068,note_on,2,0,0,,12,,,71,127
61171,note_off,103,0,0,,12,,,71,127
61171,note_off,0,0,0,,7,,,55,127
61173,note_on,2,0,0,,0,,,60,127
61173,note_on,0,0,0,,4,,,76,127
61276,note_off,103,0,0,,4,,,76,127
61278,note_on,2,0,0,,0,,,72,127
61381,note_off,103,0,0,,0,,,72,127
61381,note_off,0,0,0,,0,,,60,127
61383,note_on,2,0,0,,7,,,55,127
61383,note_on,0,0,0,,5,,,77,127
61486,note_off,103,0,0,,5,,,77,127
61488,note_on,2,0,0,,2,,,74,127
61591,note_off,103,0,0,,2,,,74,127
61591,note_off,0,0,0,,7,,,55,127
61593,note_on,2,0,0,,0,,,60,127
61593,note_on,0,0,0,,4,,,76,127
61696,note_off,103,0,0,,4,,,76,127
61698,note_on,2,0,0,,0,,,72,127
61801,note_off,103,0,0,,0,,,72,127
61801,note_off,0,0,0,,0,,,60,127
61803,note_on,2,0,0,,7,,,55,127
61803,note_on,0,0,0,,2,,,74,127
61906,note_off,103,0,0,,2,,,74,127
61908,note_on,2,0,0,,12,,,71,127
62011,note_off,103,0,0,,12,,,71,127
62011,note_off,0,0,0,,7,,,55,127
62013,note_on,2,0,0,,0,,,36,127
62013,note_on,0,0,0,,2,,,74,127
62065,note_on,52,0,0,,0,,,72,127
62080,note_off,15,0,0,,2,,,74,127
62117,note_on,37,0,0,,2,,,74,127
62132,note_off,15,0,0,,0,,,72,127
62169,note_on,37,0,0,,0,,,72,127
62184,note_off,15,0,0,,2,,,74,127
62710,note_off,526,0,0,,0,,,36,127
62850,note_on,140,0,0,,0,,,60,127
62857,note_off,7,0,0,,0,,,72,127
63060,note_on,203,0,0,,0,,,84,127
63267,note_off,207,0,0,,0,,,60,127
63269,note_on,2,0,0,,4,,,64,127
63476,note_off,207,0,0,,0,,,84,127
63478,note_on,2,0,0,,11,,,82,127
63581,note_off,103,0,0,,11,,,82,127
63583,note_on,2,0,0,,7,,,79,127
63686,note_off,103,0,0,,7,,,79,127
63686,note_off,0,0,0,,4,,,64,127
63688,note_on,2,0,0,,5,,,65,127
63688,note_on,0,0,0,,8,,,80,127
63895,note_off,207,0,0,,8,,,80,127
63897,note_on,2,0,0,,5,,,77,127
64104,note_off,207,0,0,,5,,,65,127
64106,note_on,2,0,0,,7,,,67,127
64313,note_off,207,0,0,,5,,,77,127
64315,note_on,2,0,0,,4,,,76,127
64418,note_off,103,0,0,,4,,,76,127
64420,note_on,2,0,0,,7,,,79,127
64523,note_off,103,0,0,,7,,,79,127
64523,note_off,0,0,0,,7,,,67,127
64525,note_on,2,0,0,,8,,,68,127
64525,note_on,0,0,0,,0,,,72,127
64732,note_off,207,0,0,,0,,,72,127
64732,note_off,0,0,0,,8,,,68,127
64734,note_on,2,0,0,,5,,,65,127
64734,note_on,0,0,0,,0,,,84,127
64941,note_off,207,0,0,,5,,,65,127
64943,note_on,2,0,0,,4,,,64,127
65150,note_off,207,0,0,,4,,,64,127
65150,note_off,0,0,0,,0,,,84,127
65152,note_on,2,0,0,,0,,,60,127
65152,note_on,0,0,0,,11,,,82,127
65255,note_off,103,0,0,,11,,,82,127
65257,note_on,2,0,0,,7,,,79,127
65360,note_off,103,0,0,,7,,,79,127
65360,note_off,0,0,0,,0,,,60,127
65362,note_on,2,0,0,,5,,,65,127
65362,note_on,0,0,0,,8,,,80,127
65569,note_off,207,0,0,,8,,,80,127
65571,note_on,2,0,0,,5,,,77,127
65778,note_off,207,0,0,,5,,,65,127
65780,note_on,2,0,0,,7,,,67,127
65987,note_off,207,0,0,,5,,,77,127
65989,note_on,2,0,0,,4,,,76,127
66092,note_off,103,0,0,,4,,,76,127
66094,note_on,2,0,0,,7,,,79,127
66197,note_off,103,0,0,,7,,,79,127
66199,note_on,2,0,0,,1,,,73,127
66406,note_off,207,0,0,,7,,,67,127
66408,note_on,2,0,0,,11,,,70,127
66615,note_off,207,0,0,,11,,,70,127
66617,note_on,2,0,0,,7,,,67,127
66617,note_on,0,0,0,,11,,,82,127
66824,note_off,207,0,0,,7,,,67,127
66826,note_on,2,0,0,,5,,,65,127
67033,note_off,207,0,0,,5,,,65,127
67034,note_off,1,0,0,,1,,,73,127
67035,note_on,1,0,0,,4,,,64,127
67035,note_on,0,0,0,,0,,,72,127
67242,note_off,207,0,0,,0,,,72,127
67242,note_off,0,0,0,,4,,,64,127
67243,note_off,1,0,0,,11,,,82,127
67244,note_on,1,0,0,,0,,,60,127
67244,note_on,0,0,0,,8,,,80,127
67347,note_off,103,0,0,,8,,,80,127
67349,note_on,2,0,0,,7,,,79,127
67452,note_off,103,0,0,,7,,,79,127
67452,note_off,0,0,0,,0,,,60,127
67454,note_on,2,0,0,,1,,,61,127
67454,note_on,0,0,0,,5,,,77,127
67661,note_off,207,0,0,,1,,,61,127
67663,note_on,2,0,0,,8,,,56,127
67870,note_off,207,0,0,,8,,,56,127
67872,note_on,2,0,0,,11,,,58,127
67975,note_off,103,0,0,,5,,,77,127
67977,note_on,2,0,0,,1,,,85,127
68080,note_off,103,0,0,,1,,,85,127
68082,note_on,2,0,0,,0,,,84,127
68185,note_off,103,0,0,,0,,,84,127
68187,note_on,2,0,0,,11,,,82,127
68290,note_off,103,0,0,,11,,,82,127
68290,note_off,0,0,0,,11,,,58,127
68292,note_on,2,0,0,,0,,,60,127
68292,note_on,0,0,0,,8,,,80,127
68395,note_off,103,0,0,,8,,,80,127
68397,note_on,2,0,0,,7,,,79,127
68500,note_off,103,0,0,,7,,,79,127
68500,note_off,0,0,0,,0,,,60,127
68502,note_on,2,0,0,,4,,,64,127
68502,note_on,0,0,0,,5,,,77,127
68605,note_off,103,0,0,,5,,,77,127
68607,note_on,2,0,0,,4,,,76,127
68710,note_off,103,0,0,,4,,,76,127
68710,note_off,0,0,0,,4,,,64,127
68712,note_on,2,0,0,,5,,,53,127
68712,note_on,0,0,0,,5,,,77,127
68919,note_off,207,0,0,,5,,,77,127
68919,note_off,0,0,0,,5,,,53,127
68921,note_on,2,0,0,,5,,,65,127
68921,note_on,0,0,0,,0,,,84,127
69128,note_off,207,0,0,,5,,,65,127
69130,note_on,2,0,0,,4,,,64,127
69337,note_off,207,0,0,,4,,,64,127
69337,note_off,0,0,0,,0,,,84,127
69339,note_on,2,0,0,,0,,,60,127
69339,note_on,0,0,0,,11,,,82,127
69442,note_off,103,0,0,,11,,,82,127
69444,note_on,2,0,0,,7,,,79,127
69547,note_off,103,0,0,,7,,,79,127
69547,note_off,0,0,0,,0,,,60,127
69549,note_on,2,0,0,,5,,,65,127
69549,note_on,0,0,0,,8,,,80,127
69756,note_off,207,0,0,,8,,,80,127
69758,note_on,2,0,0,,5,,,77,127
69965,note_off,207,0,0,,5,,,65,127
69967,note_on,2,0,0,,7,,,67,127
70174,note_off,207,0,0,,5,,,77,127
70176,note_on,2,0,0,,4,,,76,127
70279,note_off,103,0,0,,4,,,76,127
70281,note_on,2,0,0,,7,,,79,127
70384,note_off,103,0,0,,7,,,79,127
70384,note_off,0,0,0,,7,,,67,127
70386,note_on,2,0,0,,8,,,68,127
70386,note_on,0,0,0,,0,,,72,127
70593,note_off,207,0,0,,0,,,72,127
70593,note_off,0,0,0,,8,,,68,127
70595,note_on,2,0,0,,5,,,65,127
70595,note_on,0,0,0,,0,,,84,127
70802,note_off,207,0,0,,5,,,65,127
70804,note_on,2,0,0,,4,,,64,127
71011,note_off,207,0,0,,4,,,64,127
71011,note_off,0,0,0,,0,,,84,127
71013,note_on,2,0,0,,0,,,60,127
71013,note_on,0,0,0,,11,,,82,127
71116,note_off,103,0,0,,11,,,82,127
71118,note_on,2,0,0,,7,,,79,127
71221,note_off,103,0,0,,7,,,79,127
71221,note_off,0,0,0,,0,,,60,127
71223,note_on,2,0,0,,5,,,65,127
71223,note_on,0,0,0,,8,,,80,127
71430,note_off,207,0,0,,8,,,80,127
71432,note_on,2,0,0,,5,,,77,127
71639,note_off,207,0,0,,5,,,65,127
71641,note_on,2,0,0,,7,,,67,127
71848,note_off,207,0,0,,5,,,77,127
71850,note_on,2,0,0,,4,,,76,127
71953,note_off,103,0,0,,4,,,76,127
71955,note_on,2,0,0,,7,,,79,127
72058,note_off,103,0,0,,7,,,79,127
72060,note_on,2,0,0,,1,,,73,127
72267,note_off,207,0,0,,7,,,67,127
72269,note_on,2,0,0,,11,,,70,127
72476,note_off,207,0,0,,11,,,70,127
72478,note_on,2,0,0,,7,,,67,127
72478,note_on,0,0,0,,11,,,82,127
72685,note_off,207,0,0,,7,,,67,127
72687,note_on,2,0,0,,5,,,65,127
72894,note_off,207,0,0,,5,,,65,127
72895,note_off,1,0,0,,1,,,73,127
72896,note_on,1,0,0,,4,,,64,127
72896,note_on,0,0,0,,0,,,72,127
73103,note_off,207,0,0,,0,,,72,127
73103,note_off,0,0,0,,4,,,64,127
73104,note_off,1,0,0,,11,,,82,127
73105,note_on,1,0,0,,0,,,60,127
73105,note_on,0,0,0,,8,,,80,127
73208,note_off,103,0,0,,8,,,80,127
73210,note_on,2,0,0,,7,,,79,127
73313,note_off,103,0,0,,7,,,79,127
73313,note_off,0,0,0,,0,,,60,127
73315,note_on,2,0,0,,1,,,61,127
73315,note_on,0,0,0,,5,,,77,127
73522,note_off,207,0,0,,1,,,61,127
73524,note_on,2,0,0,,8,,,56,127
73731,note_off,207,0,0,,8,,,56,127
73733,note_on,2,0,0,,11,,,58,127
73836,note_off,103,0,0,,5,,,77,127
73838,note_on,2,0,0,,1,,,85,127
73941,note_off,103,0,0,,1,,,85,127
73943,note_on,2,0,0,,0,,,84,127
74046,note_off,103,0,0,,0,,,84,127
74048,note_on,2,0,0,,11,,,82,127
74151,note_off,103,0,0,,11,,,82,127
74151,note_off,0,0,0,,11,,,58,127
74153,note_on,2,0,0,,0,,,60,127
74153,note_on,0,0,0,,8,,,80,127
74256,note_off,103,0,0,,8,,,80,127
74258,note_on,2,0,0,,7,,,79,127
74361,note_off,103,0,0,,7,,,79,127
74363,note_on,2,0,0,,5,,,77,127
74466,note_off,103,0,0,,5,,,77,127
74468,note_on,2,0,0,,4,,,76,127
74571,note_off,103,0,0,,4,,,76,127
74571,note_off,0,0,0,,0,,,60,127
74573,note_on,2,0,0,,5,,,53,127
74573,note_on,0,0,0,,7,,,79,127
74641,note_off,68,0,0,,7,,,79,127
74643,note_on,2,0,0,,5,,,77,127
74711,note_off,68,0,0,,5,,,77,127
74713,note_on,2,0,0,,7,,,79,127
74781,note_off,68,0,0,,7,,,79,127
74781,note_off,0,0,0,,5,,,53,127
74783,note_on,2,0,0,,7,,,55,127
74783,note_on,0,0,0,,5,,,77,127
74990,note_off,207,0,0,,7,,,55,127
74992,note_on,2,0,0,,10,,,57,127
75199,note_off,207,0,0,,10,,,57,127
75199,note_off,0,0,0,,5,,,77,127
75201,note_on,2,0,0,,5,,,53,127
75201,note_on,0,0,0,,7,,,79,127
75304,note_off,103,0,0,,7,,,79,127
75306,note_on,2,0,0,,10,,,81,127
75409,note_off,103,0,0,,10,,,81,127
75409,note_off,0,0,0,,5,,,53,127
75411,note_on,2,0,0,,11,,,58,127
75411,note_on,0,0,0,,7,,,79,127
75479,note_off,68,0,0,,7,,,79,127
75481,note_on,2,0,0,,5,,,77,127
75549,note_off,68,0,0,,5,,,77,127
75551,note_on,2,0,0,,7,,,79,127
75619,note_off,68,0,0,,7,,,79,127
75619,note_off,0,0,0,,11,,,58,127
75621,note_on,2,0,0,,0,,,60,127
75621,note_on,0,0,0,,5,,,77,127
75828,note_off,207,0,0,,0,,,60,127
75830,note_on,2,0,0,,2,,,62,127
76037,note_off,207,0,0,,2,,,62,127
76037,note_off,0,0,0,,5,,,77,127
76039,note_on,2,0,0,,11,,,58,127
76039,note_on,0,0,0,,7,,,79,127
76142,note_off,103,0,0,,7,,,79,127
76144,note_on,2,0,0,,10,,,81,127
76247,note_off,103,0,0,,10,,,81,127
76247,note_off,0,0,0,,11,,,58,127
76249,note_on,2,0,0,,10,,,57,127
76249,note_on,0,0,0,,7,,,79,127
76317,note_off,68,0,0,,7,,,79,127
76319,note_on,2,0,0,,5,,,77,127
76387,note_off,68,0,0,,5,,,77,127
76389,note_on,2,0,0,,7,,,79,127
76457,note_off,68,0,0,,7,,,79,127
76457,note_off,0,0,0,,10,,,57,127
76459,note_on,2,0,0,,7,,,55,127
76459,note_on,0,0,0,,5,,,77,127
76666,note_off,207,0,0,,7,,,55,127
76668,note_on,2,0,0,,10,,,57,127
76875,note_off,207,0,0,,10,,,57,127
76875,note_off,0,0,0,,5,,,77,127
76877,note_on,2,0,0,,5,,,53,127
76877,note_on,0,0,0,,7,,,79,127
76980,note_off,103,0,0,,7,,,79,127
76982,note_on,2,0,0,,10,,,81,127
77085,note_off,103,0,0,,10,,,81,127
77085,note_off,0,0,0,,5,,,53,127
77087,note_on,2,0,0,,11,,,58,127
77087,note_on,0,0,0,,7,,,79,127
77190,note_off,103,0,0,,7,,,79,127
77192,note_on,2,0,0,,7,,,79,127
77295,note_off,103,0,0,,7,,,79,127
77295,note_off,0,0,0,,11,,,58,127
77297,note_on,2,0,0,,11,,,46,127
77297,note_on,0,0,0,,10,,,81,127
77400,note_off,103,0,0,,10,,,81,127
77402,note_on,2,0,0,,11,,,82,127
77505,note_off,103,0,0,,11,,,82,127
77505,note_off,0,0,0,,11,,,46,127
77507,note_on,2,0,0,,0,,,48,127
77507,note_on,0,0,0,,10,,,81,127
77611,note_off,104,0,0,,10,,,81,127
77612,note_on,1,0,0,,7,,,79,127
77716,note_off,104,0,0,,7,,,79,127
77717,note_on,1,0,0,,5,,,77,127
77820,note_off,103,0,0,,5,,,77,127
77822,note_on,2,0,0,,4,,,76,127
77925,note_off,103,0,0,,4,,,76,127
77925,note_off,0,0,0,,0,,,48,127
77927,note_on,2,0,0,,5,,,65,127
77927,note_on,0,0,0,,5,,,53,127
77927,note_on,0,0,0,,7,,,79,127
77995,note_off,68,0,0,,7,,,79,127
77997,note_on,2,0,0,,5,,,77,127
78065,note_off,68,0,0,,5,,,77,127
78067,note_on,2,0,0,,7,,,79,127
78135,note_off,68,0,0,,7,,,79,127
78135,note_off,0,0,0,,5,,,53,127
78135,note_off,0,0,0,,5,,,65,127
78137,note_on,2,0,0,,4,,,52,127
78137,note_on,0,0,0,,4,,,64,127
78137,note_on,0,0,0,,5,,,77,127
78344,note_off,207,0,0,,4,,,64,127
78344,note_off,0,0,0,,4,,,52,127
78346,note_on,2,0,0,,2,,,62,127
78346,note_on,0,0,0,,2,,,50,127
78553,note_off,207,0,0,,2,,,50,127
78553,note_off,0,0,0,,2,,,62,127
78553,note_off,0,0,0,,5,,,77,127
78555,note_on,2,0,0,,0,,,48,127
78555,note_on,0,0,0,,0,,,60,127
78555,note_on,0,0,0,,7,,,79,127
78658,note_off,103,0,0,,7,,,79,127
78660,note_on,2,0,0,,10,,,81,127
78763,note_off,103,0,0,,10,,,81,127
78763,note_off,0,0,0,,0,,,60,127
78763,note_off,0,0,0,,0,,,48,127
78765,note_on,2,0,0,,11,,,46,127
78765,note_on,0,0,0,,11,,,58,127
78765,note_on,0,0,0,,4,,,76,127
78833,note_off,68,0,0,,4,,,76,127
78835,note_on,2,0,0,,2,,,74,127
78903,note_off,68,0,0,,2,,,74,127
78905,note_on,2,0,0,,4,,,76,127
78973,note_off,68,0,0,,4,,,76,127
78973,note_off,0,0,0,,11,,,58,127
78973,note_off,0,0,0,,11,,,46,127
78975,note_on,2,0,0,,10,,,45,127
78975,note_on,0,0,0,,10,,,57,127
78975,note_on,0,0,0,,2,,,74,127
79182,note_off,207,0,0,,10,,,57,127
79182,note_off,0,0,0,,10,,,45,127
79184,note_on,2,0,0,,7,,,43,127
79184,note_on,0,0,0,,7,,,55,127
79391,note_off,207,0,0,,7,,,55,127
79391,note_off,0,0,0,,7,,,43,127
79391,note_off,0,0,0,,2,,,74,127
79393,note_on,2,0,0,,0,,,48,127
79393,note_on,0,0,0,,0,,,60,127
79393,note_on,0,0,0,,4,,,76,127
79496,note_off,103,0,0,,4,,,76,127
79498,note_on,2,0,0,,5,,,77,127
79601,note_off,103,0,0,,5,,,77,127
79601,note_off,0,0,0,,0,,,60,127
79601,note_off,0,0,0,,0,,,48,127
79603,note_on,2,0,0,,5,,,41,127
79603,note_on,0,0,0,,5,,,53,127
79603,note_on,0,0,0,,11,,,70,127
79671,note_off,68,0,0,,11,,,70,127
79673,note_on,2,0,0,,10,,,69,127
79741,note_off,68,0,0,,10,,,69,127
79743,note_on,2,0,0,,11,,,70,127
79811,note_off,68,0,0,,11,,,70,127
79811,note_off,0,0,0,,5,,,53,127
79811,note_off,0,0,0,,5,,,41,127
79813,note_on,2,0,0,,4,,,40,127
79813,note_on,0,0,0,,4,,,52,127
79813,note_on,0,0,0,,10,,,69,127
80020,note_off,207,0,0,,4,,,52,127
80020,note_off,0,0,0,,4,,,40,127
80022,note_on,2,0,0,,2,,,38,127
80022,note_on,0,0,0,,2,,,50,127
80229,note_off,207,0,0,,2,,,50,127
80229,note_off,0,0,0,,2,,,38,127
80229,note_off,0,0,0,,10,,,69,127
80231,note_on,2,0,0,,0,,,36,127
80231,note_on,0,0,0,,0,,,48,127
80231,note_on,0,0,0,,11,,,70,127
80334,note_off,103,0,0,,11,,,70,127
80336,note_on,2,0,0,,0,,,72,127
80439,note_off,103,0,0,,0,,,72,127
80439,note_off,0,0,0,,0,,,48,127
80439,note_off,0,0,0,,0,,,36,127
80441,note_on,2,0,0,,11,,,46,127
80441,note_on,0,0,0,,11,,,34,127
80441,note_on,0,0,0,,7,,,67,127
80544,note_off,103,0,0,,7,,,67,127
80546,note_on,2,0,0,,7,,,67,127
80649,note_off,103,0,0,,7,,,67,127
80651,note_on,2,0,0,,10,,,69,127
80754,note_off,103,0,0,,10,,,69,127
80756,note_on,2,0,0,,11,,,70,127
80859,note_off,103,0,0,,11,,,70,127
80859,note_off,0,0,0,,11,,,34,127
80859,note_off,0,0,0,,11,,,46,127
80861,note_on,2,0,0,,0,,,36,127
80861,note_on,0,0,0,,0,,,48,127
80861,note_on,0,0,0,,10,,,69,127
80964,note_off,103,0,0,,10,,,69,127
80966,note_on,2,0,0,,7,,,67,127
81069,note_off,103,0,0,,7,,,67,127
81071,note_on,2,0,0,,5,,,65,127
81174,note_off,103,0,0,,5,,,65,127
81176,note_on,2,0,0,,4,,,64,127
81279,note_off,103,0,0,,4,,,64,127
81279,note_off,0,0,0,,0,,,48,127
81279,note_off,0,0,0,,0,,,36,127
81281,note_on,2,0,0,,5,,,41,127
81281,note_on,0,0,0,,7,,,67,127
81333,note_on,52,0,0,,5,,,65,127
81348,note_off,15,0,0,,7,,,67,127
81385,note_on,37,0,0,,7,,,67,127
81400,note_off,15,0,0,,5,,,65,127
81437,note_on,37,0,0,,5,,,65,127
81452,note_off,15,0,0,,7,,,67,127
82920,note_off,1468,0,0,,5,,,65,127
82920,note_off,0,0,0,,5,,,41,127
84480,end_of_track,1560,1,0,,,,,,
