tick,type,time,meta,track,program,channel,pitch,tempo,note,velocity
0,copyright,0,1,0,,,,,,
0,program_change,0,0,0,6,0,,,,
0,pitchwheel,0,0,0,,0,0,,,
0,program_change,0,0,0,6,1,,,,
0,pitchwheel,0,0,0,,1,-590,,,
0,program_change,0,0,0,6,2,,,,
0,pitchwheel,0,0,0,,2,-272,,,
0,program_change,0,0,0,6,3,,,,
0,pitchwheel,0,0,0,,3,-353,,,
0,program_change,0,0,0,6,4,,,,
0,pitchwheel,0,0,0,,4,-560,,,
0,program_change,0,0,0,6,5,,,,
0,pitchwheel,0,0,0,,5,-80,,,
0,program_change,0,0,0,6,6,,,,
0,pitchwheel,0,0,0,,6,-625,,,
0,program_change,0,0,0,6,7,,,,
0,pitchwheel,0,0,0,,7,-130,,,
0,program_change,0,0,0,6,8,,,,
0,pitchwheel,0,0,0,,8,-512,,,
0,program_change,0,0,0,6,10,,,,
0,pitchwheel,0,0,0,,10,-464,,,
0,program_change,0,0,0,6,11,,,,
0,pitchwheel,0,0,0,,11,-208,,,
0,program_change,0,0,0,6,12,,,,
0,pitchwheel,0,0,0,,12,-553,,,
0,set_tempo,0,1,0,,,,500000,,
38,note_on,38,0,0,,5,,,65,127
38,note_on,0,0,0,,7,,,79,127
94,note_off,56,0,0,,7,,,79,127
95,note_on,1,0,0,,5,,,77,127
151,note_off,56,0,0,,5,,,77,127
152,note_on,1,0,0,,4,,,76,127
208,note_off,56,0,0,,4,,,76,127
209,note_on,1,0,0,,5,,,77,127
265,note_off,56,0,0,,5,,,77,127
265,note_off,0,0,0,,5,,,65,127
266,note_on,1,0,0,,4,,,64,127
266,note_on,0,0,0,,7,,,79,127
495,note_off,229,0,0,,4,,,64,127
496,note_on,1,0,0,,0,,,60,127
698,note_off,202,0,0,,7,,,79,127
726,note_off,28,0,0,,0,,,60,127
727,note_on,1,0,0,,5,,,65,127
727,note_on,0,0,0,,10,,,81,127
956,note_off,229,0,0,,10,,,81,127
957,note_on,1,0,0,,0,,,84,127
1186,note_off,229,0,0,,0,,,84,127
1186,note_off,0,0,0,,5,,,65,127
1187,note_on,1,0,0,,7,,,67,127
1187,note_on,0,0,0,,4,,,76,127
1416,note_off,229,0,0,,4,,,76,127
1416,note_off,0,0,0,,7,,,67,127
1417,note_on,1,0,0,,10,,,69,127
1417,note_on,0,0,0,,5,,,77,127
1646,note_off,229,0,0,,5,,,77,127
1647,note_on,1,0,0,,10,,,81,127
1876,note_off,229,0,0,,10,,,81,127
1876,note_off,0,0,0,,10,,,69,127
1877,note_on,1,0,0,,11,,,70,127
1877,note_on,0,0,0,,2,,,74,127
2106,note_off,229,0,0,,2,,,74,127
2106,note_off,0,0,0,,11,,,70,127
2107,note_on,1,0,0,,0,,,72,127
2107,note_on,0,0,0,,4,,,76,127
2336,note_off,229,0,0,,4,,,76,127
2337,note_on,1,0,0,,7,,,79,127
2566,note_off,229,0,0,,7,,,79,127
2566,note_off,0,0,0,,0,,,72,127
2567,note_on,1,0,0,,0,,,60,127
2567,note_on,0,0,0,,10,,,69,127
2796,note_off,229,0,0,,10,,,69,127
2796,note_off,0,0,0,,0,,,60,127
2797,note_on,1,0,0,,2,,,62,127
2797,note_on,0,0,0,,11,,,70,127
3026,note_off,229,0,0,,11,,,70,127
3027,note_on,1,0,0,,2,,,74,127
3256,note_off,229,0,0,,2,,,74,127
3256,note_off,0,0,0,,2,,,62,127
3257,note_on,1,0,0,,4,,,64,127
3257,note_on,0,0,0,,7,,,67,127
3486,note_off,229,0,0,,7,,,67,127
3486,note_off,0,0,0,,4,,,64,127
3487,note_on,1,0,0,,5,,,65,127
3487,note_on,0,0,0,,10,,,69,127
3716,note_off,229,0,0,,10,,,69,127
3717,note_on,1,0,0,,5,,,77,127
3946,note_off,229,0,0,,5,,,65,127
3947,note_on,1,0,0,,10,,,57,127
4149,note_off,202,0,0,,5,,,77,127
4177,note_off,28,0,0,,10,,,57,127
4178,note_on,1,0,0,,11,,,58,127
4178,note_on,0,0,0,,2,,,74,127
4292,note_off,114,0,0,,2,,,74,127
4293,note_on,1,0,0,,0,,,72,127
4349,note_off,56,0,0,,0,,,72,127
4350,note_on,1,0,0,,11,,,70,127
4406,note_off,56,0,0,,11,,,70,127
4406,note_off,0,0,0,,11,,,58,127
4407,note_on,1,0,0,,0,,,60,127
4407,note_on,0,0,0,,5,,,65,127
4407,note_on,0,0,0,,10,,,69,127
4636,note_off,229,0,0,,10,,,69,127
4636,note_off,0,0,0,,5,,,65,127
4637,note_on,1,0,0,,0,,,48,127
4637,note_on,0,0,0,,7,,,67,127
4637,note_on,0,0,0,,4,,,64,127
4866,note_off,229,0,0,,4,,,64,127
4866,note_off,0,0,0,,0,,,48,127
4866,note_off,0,0,0,,0,,,60,127
4867,note_on,1,0,0,,5,,,53,127
4982,note_off,115,0,0,,7,,,67,127
4982,note_on,0,0,0,,5,,,65,127
5038,note_off,56,0,0,,5,,,65,127
5039,note_on,1,0,0,,7,,,67,127
5095,note_off,56,0,0,,7,,,67,127
5096,note_on,1,0,0,,5,,,65,127
5096,note_on,0,0,0,,5,,,41,127
5152,note_off,56,0,0,,5,,,65,127
5153,note_on,1,0,0,,7,,,67,127
5209,note_off,56,0,0,,7,,,67,127
5210,note_on,1,0,0,,5,,,65,127
5266,note_off,56,0,0,,5,,,65,127
5267,note_on,1,0,0,,7,,,67,127
5323,note_off,56,0,0,,7,,,67,127
5324,note_on,1,0,0,,5,,,65,127
5439,note_off,115,0,0,,5,,,41,127
5553,note_off,114,0,0,,5,,,65,127
5553,note_off,0,0,0,,5,,,53,127
5554,note_on,1,0,0,,5,,,53,127
5554,note_on,0,0,0,,7,,,79,127
5610,note_off,56,0,0,,7,,,79,127
5611,note_on,1,0,0,,5,,,77,127
5667,note_off,56,0,0,,5,,,77,127
5668,note_on,1,0,0,,4,,,76,127
5724,note_off,56,0,0,,4,,,76,127
5725,note_on,1,0,0,,2,,,74,127
5781,note_off,56,0,0,,2,,,74,127
5782,note_on,1,0,0,,0,,,72,127
6011,note_off,229,0,0,,0,,,72,127
6011,note_off,0,0,0,,5,,,53,127
6012,note_on,1,0,0,,5,,,65,127
6012,note_on,0,0,0,,12,,,71,127
6241,note_off,229,0,0,,5,,,65,127
6242,note_on,1,0,0,,4,,,64,127
6471,note_off,229,0,0,,4,,,64,127
6472,note_on,1,0,0,,2,,,62,127
6701,note_off,229,0,0,,2,,,62,127
6701,note_off,0,0,0,,12,,,71,127
6702,note_on,1,0,0,,0,,,60,127
6702,note_on,0,0,0,,0,,,72,127
6875,note_off,173,0,0,,0,,,72,127
6931,note_off,56,0,0,,0,,,60,127
6932,note_on,1,0,0,,5,,,53,127
6932,note_on,0,0,0,,7,,,79,127
6988,note_off,56,0,0,,7,,,79,127
6989,note_on,1,0,0,,5,,,77,127
7045,note_off,56,0,0,,5,,,77,127
7046,note_on,1,0,0,,4,,,76,127
7102,note_off,56,0,0,,4,,,76,127
7103,note_on,1,0,0,,2,,,74,127
7159,note_off,56,0,0,,2,,,74,127
7160,note_on,1,0,0,,0,,,72,127
7389,note_off,229,0,0,,0,,,72,127
7389,note_off,0,0,0,,5,,,53,127
7390,note_on,1,0,0,,5,,,65,127
7390,note_on,0,0,0,,12,,,71,127
7619,note_off,229,0,0,,5,,,65,127
7620,note_on,1,0,0,,4,,,64,127
7849,note_off,229,0,0,,4,,,64,127
7850,note_on,1,0,0,,2,,,62,127
8079,note_off,229,0,0,,2,,,62,127
8079,note_off,0,0,0,,12,,,71,127
8080,note_on,1,0,0,,0,,,60,127
8080,note_on,0,0,0,,0,,,72,127
8253,note_off,173,0,0,,0,,,72,127
8309,note_off,56,0,0,,0,,,60,127
8310,note_on,1,0,0,,11,,,58,127
8310,note_on,0,0,0,,4,,,76,127
8366,note_off,56,0,0,,4,,,76,127
8367,note_on,1,0,0,,2,,,74,127
8423,note_off,56,0,0,,2,,,74,127
8424,note_on,1,0,0,,0,,,72,127
8480,note_off,56,0,0,,0,,,72,127
8481,note_on,1,0,0,,11,,,70,127
8537,note_off,56,0,0,,11,,,70,127
8538,note_on,1,0,0,,10,,,69,127
8767,note_off,229,0,0,,10,,,69,127
8767,note_off,0,0,0,,11,,,58,127
8768,note_on,1,0,0,,0,,,60,127
8768,note_on,0,0,0,,7,,,67,127
8997,note_off,229,0,0,,0,,,60,127
8998,note_on,1,0,0,,5,,,53,127
9227,note_off,229,0,0,,5,,,53,127
9228,note_on,1,0,0,,4,,,64,127
9457,note_off,229,0,0,,4,,,64,127
9457,note_off,0,0,0,,7,,,67,127
9458,note_on,1,0,0,,5,,,65,127
9458,note_on,0,0,0,,10,,,69,127
9631,note_off,173,0,0,,10,,,69,127
9687,note_off,56,0,0,,5,,,65,127
9688,note_on,1,0,0,,11,,,58,127
9688,note_on,0,0,0,,4,,,76,127
9744,note_off,56,0,0,,4,,,76,127
9745,note_on,1,0,0,,2,,,74,127
9801,note_off,56,0,0,,2,,,74,127
9802,note_on,1,0,0,,0,,,72,127
9858,note_off,56,0,0,,0,,,72,127
9859,note_on,1,0,0,,11,,,70,127
9915,note_off,56,0,0,,11,,,70,127
9916,note_on,1,0,0,,10,,,69,127
10145,note_off,229,0,0,,10,,,69,127
10145,note_off,0,0,0,,11,,,58,127
10146,note_on,1,0,0,,0,,,60,127
10146,note_on,0,0,0,,7,,,67,127
10375,note_off,229,0,0,,0,,,60,127
10376,note_on,1,0,0,,5,,,53,127
10605,note_off,229,0,0,,5,,,53,127
10606,note_on,1,0,0,,4,,,64,127
10835,note_off,229,0,0,,4,,,64,127
10835,note_off,0,0,0,,7,,,67,127
10836,note_on,1,0,0,,5,,,65,127
10836,note_on,0,0,0,,10,,,69,127
11009,note_off,173,0,0,,10,,,69,127
11067,note_on,58,0,0,,10,,,69,127
11181,note_off,114,0,0,,10,,,69,127
11182,note_on,1,0,0,,12,,,71,127
11238,note_off,56,0,0,,12,,,71,127
11239,note_on,1,0,0,,1,,,73,127
11295,note_off,56,0,0,,1,,,73,127
11295,note_off,0,0,0,,5,,,65,127
11296,note_on,1,0,0,,5,,,65,127
11296,note_on,0,0,0,,2,,,74,127
11525,note_off,229,0,0,,2,,,74,127
11525,note_off,0,0,0,,5,,,65,127
11526,note_on,1,0,0,,4,,,64,127
11526,note_on,0,0,0,,4,,,76,127
11755,note_off,229,0,0,,4,,,76,127
11755,note_off,0,0,0,,4,,,64,127
11756,note_on,1,0,0,,2,,,62,127
11756,note_on,0,0,0,,5,,,77,127
11985,note_off,229,0,0,,5,,,77,127
11985,note_off,0,0,0,,2,,,62,127
11986,note_on,1,0,0,,4,,,64,127
11986,note_on,0,0,0,,7,,,79,127
12215,note_off,229,0,0,,7,,,79,127
12215,note_off,0,0,0,,4,,,64,127
12216,note_on,1,0,0,,5,,,65,127
12216,note_on,0,0,0,,10,,,81,127
12445,note_off,229,0,0,,10,,,81,127
12445,note_off,0,0,0,,5,,,65,127
12446,note_on,1,0,0,,7,,,67,127
12446,note_on,0,0,0,,4,,,76,127
12675,note_off,229,0,0,,7,,,67,127
12676,note_on,1,0,0,,10,,,69,127
12734,note_off,58,0,0,,4,,,76,127
12734,note_on,0,0,0,,2,,,74,127
12790,note_off,56,0,0,,2,,,74,127
12791,note_on,1,0,0,,4,,,76,127
12847,note_off,56,0,0,,4,,,76,127
12848,note_on,1,0,0,,2,,,74,127
12904,note_off,56,0,0,,2,,,74,127
12904,note_off,0,0,0,,10,,,69,127
12905,note_on,1,0,0,,11,,,70,127
12905,note_on,0,0,0,,4,,,76,127
12961,note_off,56,0,0,,4,,,76,127
12962,note_on,1,0,0,,2,,,74,127
13018,note_off,56,0,0,,2,,,74,127
13019,note_on,1,0,0,,1,,,73,127
13075,note_off,56,0,0,,1,,,73,127
13076,note_on,1,0,0,,2,,,74,127
13132,note_off,56,0,0,,11,,,70,127
13133,note_on,1,0,0,,10,,,69,127
13189,note_off,56,0,0,,2,,,74,127
13190,note_on,1,0,0,,4,,,76,127
13246,note_off,56,0,0,,4,,,76,127
13247,note_on,1,0,0,,5,,,77,127
13303,note_off,56,0,0,,5,,,77,127
13304,note_on,1,0,0,,4,,,76,127
13360,note_off,56,0,0,,4,,,76,127
13361,note_on,1,0,0,,5,,,77,127
13417,note_off,56,0,0,,5,,,77,127
13418,note_on,1,0,0,,4,,,76,127
13474,note_off,56,0,0,,4,,,76,127
13475,note_on,1,0,0,,5,,,77,127
13531,note_off,56,0,0,,5,,,77,127
13532,note_on,1,0,0,,4,,,76,127
13588,note_off,56,0,0,,4,,,76,127
13588,note_off,0,0,0,,10,,,69,127
13589,note_on,1,0,0,,10,,,57,127
13589,note_on,0,0,0,,5,,,77,127
13645,note_off,56,0,0,,5,,,77,127
13646,note_on,1,0,0,,4,,,76,127
13702,note_off,56,0,0,,4,,,76,127
13703,note_on,1,0,0,,2,,,74,127
13759,note_off,56,0,0,,2,,,74,127
13760,note_on,1,0,0,,4,,,76,127
13816,note_off,56,0,0,,4,,,76,127
13817,note_on,1,0,0,,10,,,69,127
13931,note_off,114,0,0,,10,,,69,127
13932,note_on,1,0,0,,12,,,71,127
13988,note_off,56,0,0,,12,,,71,127
13989,note_on,1,0,0,,1,,,73,127
14045,note_off,56,0,0,,1,,,73,127
14045,note_off,0,0,0,,10,,,57,127
14046,note_on,1,0,0,,10,,,57,127
14046,note_on,0,0,0,,2,,,74,127
14275,note_off,229,0,0,,2,,,74,127
14275,note_off,0,0,0,,10,,,57,127
14276,note_on,1,0,0,,7,,,55,127
14276,note_on,0,0,0,,4,,,76,127
14505,note_off,229,0,0,,4,,,76,127
14505,note_off,0,0,0,,7,,,55,127
14506,note_on,1,0,0,,5,,,53,127
14506,note_on,0,0,0,,8,,,80,127
14735,note_off,229,0,0,,8,,,80,127
14735,note_off,0,0,0,,5,,,53,127
14736,note_on,1,0,0,,4,,,52,127
14736,note_on,0,0,0,,10,,,81,127
14965,note_off,229,0,0,,4,,,52,127
14966,note_on,1,0,0,,2,,,50,127
14966,note_on,0,0,0,,10,,,69,127
15192,note_off,226,0,0,,10,,,81,127
15196,note_off,4,0,0,,2,,,50,127
15197,note_on,1,0,0,,4,,,52,127
15426,note_off,229,0,0,,10,,,69,127
15427,note_on,1,0,0,,0,,,72,127
15483,note_off,56,0,0,,0,,,72,127
15484,note_on,1,0,0,,12,,,71,127
15540,note_off,56,0,0,,12,,,71,127
15541,note_on,1,0,0,,0,,,72,127
15597,note_off,56,0,0,,0,,,72,127
15598,note_on,1,0,0,,12,,,71,127
15654,note_off,56,0,0,,12,,,71,127
15654,note_off,0,0,0,,4,,,52,127
15655,note_on,1,0,0,,4,,,40,127
15655,note_on,0,0,0,,0,,,72,127
15711,note_off,56,0,0,,0,,,72,127
15712,note_on,1,0,0,,12,,,71,127
15768,note_off,56,0,0,,12,,,71,127
15769,note_on,1,0,0,,10,,,69,127
15825,note_off,56,0,0,,10,,,69,127
15826,note_on,1,0,0,,12,,,71,127
15882,note_off,56,0,0,,12,,,71,127
15882,note_off,0,0,0,,4,,,40,127
15883,note_on,1,0,0,,10,,,45,127
15883,note_on,0,0,0,,10,,,69,127
16387,note_off,504,0,0,,10,,,69,127
16573,note_off,186,0,0,,10,,,45,127
16574,note_on,1,0,0,,10,,,57,127
16574,note_on,0,0,0,,10,,,69,127
16688,note_off,114,0,0,,10,,,69,127
16689,note_on,1,0,0,,12,,,71,127
16745,note_off,56,0,0,,12,,,71,127
16746,note_on,1,0,0,,1,,,73,127
16802,note_off,56,0,0,,1,,,73,127
16803,note_on,1,0,0,,10,,,45,127
16803,note_on,0,0,0,,2,,,74,127
17029,note_off,226,0,0,,10,,,57,127
17033,note_off,4,0,0,,2,,,74,127
17033,note_off,0,0,0,,10,,,45,127
17034,note_on,1,0,0,,7,,,55,127
17034,note_on,0,0,0,,4,,,76,127
17263,note_off,229,0,0,,4,,,76,127
17263,note_off,0,0,0,,7,,,55,127
17264,note_on,1,0,0,,5,,,53,127
17264,note_on,0,0,0,,8,,,80,127
17493,note_off,229,0,0,,8,,,80,127
17493,note_off,0,0,0,,5,,,53,127
17494,note_on,1,0,0,,4,,,52,127
17494,note_on,0,0,0,,10,,,81,127
17723,note_off,229,0,0,,4,,,52,127
17724,note_on,1,0,0,,2,,,50,127
17724,note_on,0,0,0,,10,,,69,127
17897,note_off,173,0,0,,10,,,69,127
17950,note_off,53,0,0,,10,,,81,127
17954,note_off,4,0,0,,2,,,50,127
17955,note_on,1,0,0,,7,,,55,127
17955,note_on,0,0,0,,7,,,67,127
18069,note_off,114,0,0,,7,,,67,127
18070,note_on,1,0,0,,10,,,69,127
18126,note_off,56,0,0,,10,,,69,127
18127,note_on,1,0,0,,12,,,71,127
18183,note_off,56,0,0,,12,,,71,127
18184,note_on,1,0,0,,7,,,43,127
18184,note_on,0,0,0,,0,,,72,127
18410,note_off,226,0,0,,7,,,55,127
18414,note_off,4,0,0,,0,,,72,127
18414,note_off,0,0,0,,7,,,43,127
18415,note_on,1,0,0,,5,,,53,127
18415,note_on,0,0,0,,2,,,74,127
18644,note_off,229,0,0,,2,,,74,127
18644,note_off,0,0,0,,5,,,53,127
18645,note_on,1,0,0,,4,,,52,127
18645,note_on,0,0,0,,6,,,78,127
18874,note_off,229,0,0,,6,,,78,127
18874,note_off,0,0,0,,4,,,52,127
18875,note_on,1,0,0,,2,,,50,127
18875,note_on,0,0,0,,7,,,79,127
19104,note_off,229,0,0,,2,,,50,127
19105,note_on,1,0,0,,0,,,48,127
19105,note_on,0,0,0,,7,,,67,127
19278,note_off,173,0,0,,7,,,67,127
19331,note_off,53,0,0,,7,,,79,127
19335,note_off,4,0,0,,0,,,48,127
19336,note_on,1,0,0,,5,,,53,127
19336,note_on,0,0,0,,10,,,69,127
19450,note_off,114,0,0,,10,,,69,127
19451,note_on,1,0,0,,12,,,71,127
19507,note_off,56,0,0,,12,,,71,127
19508,note_on,1,0,0,,0,,,72,127
19564,note_off,56,0,0,,0,,,72,127
19564,note_off,0,0,0,,5,,,53,127
19565,note_on,1,0,0,,5,,,65,127
19565,note_on,0,0,0,,2,,,74,127
19794,note_off,229,0,0,,2,,,74,127
19794,note_off,0,0,0,,5,,,65,127
19795,note_on,1,0,0,,4,,,64,127
19795,note_on,0,0,0,,7,,,79,127
20024,note_off,229,0,0,,4,,,64,127
20025,note_on,1,0,0,,2,,,62,127
20203,note_off,178,0,0,,7,,,79,127
20255,note_off,52,0,0,,2,,,62,127
20256,note_on,1,0,0,,12,,,59,127
20256,note_on,0,0,0,,7,,,79,127
20312,note_off,56,0,0,,7,,,79,127
20313,note_on,1,0,0,,5,,,77,127
20369,note_off,56,0,0,,5,,,77,127
20370,note_on,1,0,0,,7,,,79,127
20426,note_off,56,0,0,,7,,,79,127
20427,note_on,1,0,0,,5,,,77,127
20483,note_off,56,0,0,,5,,,77,127
20483,note_off,0,0,0,,12,,,59,127
20484,note_on,1,0,0,,0,,,60,127
20484,note_on,0,0,0,,4,,,76,127
20713,note_off,229,0,0,,0,,,60,127
20714,note_on,1,0,0,,5,,,53,127
20892,note_off,178,0,0,,4,,,76,127
20944,note_off,52,0,0,,5,,,53,127
20945,note_on,1,0,0,,7,,,55,127
20945,note_on,0,0,0,,4,,,76,127
21001,note_off,56,0,0,,4,,,76,127
21002,note_on,1,0,0,,2,,,74,127
21058,note_off,56,0,0,,2,,,74,127
21059,note_on,1,0,0,,4,,,76,127
21115,note_off,56,0,0,,4,,,76,127
21116,note_on,1,0,0,,2,,,74,127
21172,note_off,56,0,0,,2,,,74,127
21172,note_off,0,0,0,,7,,,55,127
21173,note_on,1,0,0,,10,,,57,127
21173,note_on,0,0,0,,0,,,72,127
21402,note_off,229,0,0,,0,,,72,127
21402,note_off,0,0,0,,10,,,57,127
21403,note_on,1,0,0,,7,,,55,127
21403,note_on,0,0,0,,0,,,72,127
21632,note_off,229,0,0,,0,,,72,127
21633,note_on,1,0,0,,2,,,74,127
21689,note_off,56,0,0,,2,,,74,127
21690,note_on,1,0,0,,0,,,72,127
21746,note_off,56,0,0,,0,,,72,127
21747,note_on,1,0,0,,2,,,74,127
21803,note_off,56,0,0,,2,,,74,127
21804,note_on,1,0,0,,0,,,72,127
21860,note_off,56,0,0,,0,,,72,127
21861,note_on,1,0,0,,7,,,43,127
21861,note_on,0,0,0,,2,,,74,127
22090,note_off,229,0,0,,7,,,43,127
22090,note_off,0,0,0,,7,,,55,127
22091,note_on,1,0,0,,7,,,55,127
22206,note_off,115,0,0,,2,,,74,127
22321,note_on,115,0,0,,2,,,62,127
22377,note_off,56,0,0,,2,,,62,127
22378,note_on,1,0,0,,4,,,64,127
22434,note_off,56,0,0,,4,,,64,127
22435,note_on,1,0,0,,5,,,65,127
22491,note_off,56,0,0,,5,,,65,127
22492,note_on,1,0,0,,7,,,67,127
22548,note_off,56,0,0,,7,,,67,127
22548,note_off,0,0,0,,7,,,55,127
22549,note_on,1,0,0,,5,,,53,127
22549,note_on,0,0,0,,10,,,69,127
22605,note_off,56,0,0,,10,,,69,127
22606,note_on,1,0,0,,12,,,71,127
22662,note_off,56,0,0,,12,,,71,127
22663,note_on,1,0,0,,0,,,72,127
22719,note_off,56,0,0,,0,,,72,127
22720,note_on,1,0,0,,2,,,74,127
22776,note_off,56,0,0,,2,,,74,127
22776,note_off,0,0,0,,5,,,53,127
22777,note_on,1,0,0,,4,,,52,127
22777,note_on,0,0,0,,4,,,76,127
22777,note_on,0,0,0,,0,,,72,127
23006,note_off,229,0,0,,0,,,72,127
23006,note_off,0,0,0,,4,,,76,127
23006,note_off,0,0,0,,4,,,52,127
23007,note_on,1,0,0,,2,,,50,127
23007,note_on,0,0,0,,5,,,77,127
23007,note_on,0,0,0,,2,,,74,127
23236,note_off,229,0,0,,2,,,74,127
23236,note_off,0,0,0,,5,,,77,127
23236,note_off,0,0,0,,2,,,50,127
23237,note_on,1,0,0,,0,,,48,127
23237,note_on,0,0,0,,7,,,79,127
23237,note_on,0,0,0,,4,,,76,127
23466,note_off,229,0,0,,0,,,48,127
23467,note_on,1,0,0,,7,,,55,127
23501,note_off,34,0,0,,4,,,76,127
23501,note_off,0,0,0,,7,,,79,127
23698,note_on,197,0,0,,2,,,62,127
23754,note_off,56,0,0,,2,,,62,127
23755,note_on,1,0,0,,4,,,64,127
23811,note_off,56,0,0,,4,,,64,127
23812,note_on,1,0,0,,5,,,65,127
23868,note_off,56,0,0,,5,,,65,127
23869,note_on,1,0,0,,7,,,67,127
23925,note_off,56,0,0,,7,,,67,127
23925,note_off,0,0,0,,7,,,55,127
23926,note_on,1,0,0,,5,,,53,127
23926,note_on,0,0,0,,10,,,69,127
23982,note_off,56,0,0,,10,,,69,127
23983,note_on,1,0,0,,12,,,71,127
24039,note_off,56,0,0,,12,,,71,127
24040,note_on,1,0,0,,0,,,72,127
24096,note_off,56,0,0,,0,,,72,127
24097,note_on,1,0,0,,2,,,74,127
24153,note_off,56,0,0,,2,,,74,127
24153,note_off,0,0,0,,5,,,53,127
24154,note_on,1,0,0,,4,,,52,127
24154,note_on,0,0,0,,0,,,72,127
24154,note_on,0,0,0,,4,,,76,127
24383,note_off,229,0,0,,4,,,76,127
24383,note_off,0,0,0,,0,,,72,127
24383,note_off,0,0,0,,4,,,52,127
24384,note_on,1,0,0,,2,,,50,127
24384,note_on,0,0,0,,5,,,77,127
24384,note_on,0,0,0,,2,,,74,127
24613,note_off,229,0,0,,2,,,74,127
24613,note_off,0,0,0,,5,,,77,127
24613,note_off,0,0,0,,2,,,50,127
24614,note_on,1,0,0,,0,,,48,127
24614,note_on,0,0,0,,4,,,76,127
24614,note_on,0,0,0,,7,,,79,127
24843,note_off,229,0,0,,0,,,48,127
24844,note_on,1,0,0,,7,,,55,127
24959,note_off,115,0,0,,7,,,79,127
24959,note_off,0,0,0,,4,,,76,127
25074,note_on,115,0,0,,2,,,62,127
25130,note_off,56,0,0,,2,,,62,127
25131,note_on,1,0,0,,4,,,64,127
25187,note_off,56,0,0,,4,,,64,127
25188,note_on,1,0,0,,5,,,65,127
25244,note_off,56,0,0,,5,,,65,127
25245,note_on,1,0,0,,7,,,67,127
25301,note_off,56,0,0,,7,,,67,127
25301,note_off,0,0,0,,7,,,55,127
25302,note_on,1,0,0,,5,,,53,127
25302,note_on,0,0,0,,10,,,69,127
25358,note_off,56,0,0,,10,,,69,127
25359,note_on,1,0,0,,12,,,71,127
25415,note_off,56,0,0,,12,,,71,127
25416,note_on,1,0,0,,0,,,72,127
25472,note_off,56,0,0,,0,,,72,127
25473,note_on,1,0,0,,2,,,74,127
25529,note_off,56,0,0,,2,,,74,127
25529,note_off,0,0,0,,5,,,53,127
25530,note_on,1,0,0,,4,,,52,127
25530,note_on,0,0,0,,4,,,76,127
25530,note_on,0,0,0,,0,,,72,127
25759,note_off,229,0,0,,0,,,72,127
25759,note_off,0,0,0,,4,,,76,127
25759,note_off,0,0,0,,4,,,52,127
25760,note_on,1,0,0,,2,,,50,127
25760,note_on,0,0,0,,2,,,74,127
25760,note_on,0,0,0,,5,,,77,127
25989,note_off,229,0,0,,5,,,77,127
25989,note_off,0,0,0,,2,,,74,127
25989,note_off,0,0,0,,2,,,50,127
25990,note_on,1,0,0,,0,,,48,127
25990,note_on,0,0,0,,7,,,79,127
25990,note_on,0,0,0,,4,,,76,127
26219,note_off,229,0,0,,4,,,76,127
26219,note_off,0,0,0,,7,,,79,127
26219,note_off,0,0,0,,0,,,48,127
26220,note_on,1,0,0,,5,,,53,127
26220,note_on,0,0,0,,2,,,74,127
26220,note_on,0,0,0,,5,,,77,127
26449,note_off,229,0,0,,5,,,77,127
26449,note_off,0,0,0,,2,,,74,127
26449,note_off,0,0,0,,5,,,53,127
26450,note_on,1,0,0,,7,,,55,127
26450,note_on,0,0,0,,4,,,76,127
26450,note_on,0,0,0,,0,,,72,127
26679,note_off,229,0,0,,0,,,72,127
26679,note_off,0,0,0,,4,,,76,127
26680,note_on,1,0,0,,7,,,43,127
26680,note_on,0,0,0,,2,,,74,127
26680,note_on,0,0,0,,12,,,71,127
26906,note_off,226,0,0,,7,,,55,127
26910,note_off,4,0,0,,12,,,71,127
26910,note_off,0,0,0,,7,,,43,127
26911,note_on,1,0,0,,0,,,48,127
26969,note_off,58,0,0,,2,,,74,127
26969,note_on,0,0,0,,0,,,72,127
27025,note_off,56,0,0,,0,,,72,127
27026,note_on,1,0,0,,2,,,74,127
27082,note_off,56,0,0,,2,,,74,127
27083,note_on,1,0,0,,0,,,72,127
27139,note_off,56,0,0,,0,,,72,127
27139,note_off,0,0,0,,0,,,48,127
27140,note_on,1,0,0,,2,,,50,127
27140,note_on,0,0,0,,2,,,74,127
27196,note_off,56,0,0,,2,,,74,127
27197,note_on,1,0,0,,0,,,72,127
27253,note_off,56,0,0,,0,,,72,127
27254,note_on,1,0,0,,2,,,74,127
27310,note_off,56,0,0,,2,,,74,127
27311,note_on,1,0,0,,0,,,72,127
27367,note_off,56,0,0,,0,,,72,127
27367,note_off,0,0,0,,2,,,50,127
27368,note_on,1,0,0,,4,,,52,127
27368,note_on,0,0,0,,2,,,74,127
27424,note_off,56,0,0,,2,,,74,127
27425,note_on,1,0,0,,0,,,72,127
27481,note_off,56,0,0,,0,,,72,127
27482,note_on,1,0,0,,12,,,71,127
27538,note_off,56,0,0,,12,,,71,127
27539,note_on,1,0,0,,0,,,72,127
27595,note_off,56,0,0,,4,,,52,127
27596,note_on,1,0,0,,5,,,53,127
27652,note_off,56,0,0,,0,,,72,127
27788,note_on,136,0,0,,10,,,69,127
27825,note_off,37,0,0,,10,,,69,127
27826,note_on,1,0,0,,12,,,71,127
27863,note_off,37,0,0,,12,,,71,127
27864,note_on,1,0,0,,0,,,72,127
27901,note_off,37,0,0,,0,,,72,127
27902,note_on,1,0,0,,2,,,74,127
27939,note_off,37,0,0,,2,,,74,127
27940,note_on,1,0,0,,4,,,76,127
27977,note_off,37,0,0,,4,,,76,127
27978,note_on,1,0,0,,5,,,77,127
28015,note_off,37,0,0,,5,,,77,127
28016,note_on,1,0,0,,7,,,79,127
28053,note_off,37,0,0,,7,,,79,127
28053,note_off,0,0,0,,5,,,53,127
28054,note_on,1,0,0,,5,,,65,127
28054,note_on,0,0,0,,10,,,81,127
28283,note_off,229,0,0,,10,,,81,127
28283,note_off,0,0,0,,5,,,65,127
28284,note_on,1,0,0,,4,,,64,127
28284,note_on,0,0,0,,10,,,81,127
28340,note_off,56,0,0,,10,,,81,127
28341,note_on,1,0,0,,7,,,79,127
28397,note_off,56,0,0,,7,,,79,127
28398,note_on,1,0,0,,10,,,81,127
28454,note_off,56,0,0,,10,,,81,127
28455,note_on,1,0,0,,7,,,79,127
28511,note_off,56,0,0,,7,,,79,127
28511,note_off,0,0,0,,4,,,64,127
28512,note_on,1,0,0,,2,,,62,127
28512,note_on,0,0,0,,5,,,77,127
28741,note_off,229,0,0,,5,,,77,127
28741,note_off,0,0,0,,2,,,62,127
28742,note_on,1,0,0,,0,,,60,127
28742,note_on,0,0,0,,4,,,76,127
28971,note_off,229,0,0,,0,,,60,127
28972,note_on,1,0,0,,5,,,53,127
29006,note_off,34,0,0,,4,,,76,127
29164,note_on,158,0,0,,10,,,69,127
29201,note_off,37,0,0,,10,,,69,127
29202,note_on,1,0,0,,12,,,71,127
29239,note_off,37,0,0,,12,,,71,127
29240,note_on,1,0,0,,0,,,72,127
29277,note_off,37,0,0,,0,,,72,127
29278,note_on,1,0,0,,2,,,74,127
29315,note_off,37,0,0,,2,,,74,127
29316,note_on,1,0,0,,4,,,76,127
29353,note_off,37,0,0,,4,,,76,127
29354,note_on,1,0,0,,5,,,77,127
29391,note_off,37,0,0,,5,,,77,127
29392,note_on,1,0,0,,7,,,79,127
29429,note_off,37,0,0,,7,,,79,127
29429,note_off,0,0,0,,5,,,53,127
29430,note_on,1,0,0,,5,,,65,127
29430,note_on,0,0,0,,10,,,81,127
29659,note_off,229,0,0,,10,,,81,127
29659,note_off,0,0,0,,5,,,65,127
29660,note_on,1,0,0,,4,,,64,127
29660,note_on,0,0,0,,10,,,81,127
29716,note_off,56,0,0,,10,,,81,127
29717,note_on,1,0,0,,7,,,79,127
29773,note_off,56,0,0,,7,,,79,127
29774,note_on,1,0,0,,10,,,81,127
29830,note_off,56,0,0,,10,,,81,127
29831,note_on,1,0,0,,7,,,79,127
29887,note_off,56,0,0,,7,,,79,127
29887,note_off,0,0,0,,4,,,64,127
29888,note_on,1,0,0,,2,,,62,127
29888,note_on,0,0,0,,5,,,77,127
30117,note_off,229,0,0,,5,,,77,127
30117,note_off,0,0,0,,2,,,62,127
30118,note_on,1,0,0,,0,,,60,127
30118,note_on,0,0,0,,4,,,76,127
30347,note_off,229,0,0,,0,,,60,127
30348,note_on,1,0,0,,5,,,53,127
30463,note_off,115,0,0,,4,,,76,127
30650,note_on,187,0,0,,10,,,69,127
30693,note_on,43,0,0,,12,,,71,127
30697,note_off,4,0,0,,10,,,69,127
30737,note_on,40,0,0,,0,,,72,127
30741,note_off,4,0,0,,12,,,71,127
30781,note_on,40,0,0,,2,,,74,127
30785,note_off,4,0,0,,0,,,72,127
30809,note_off,24,0,0,,5,,,53,127
30810,note_on,1,0,0,,5,,,65,127
30824,note_on,14,0,0,,4,,,76,127
30828,note_off,4,0,0,,2,,,74,127
30868,note_on,40,0,0,,5,,,77,127
30872,note_off,4,0,0,,4,,,76,127
30912,note_on,40,0,0,,7,,,79,127
30916,note_off,4,0,0,,5,,,77,127
30956,note_on,40,0,0,,10,,,81,127
30960,note_off,4,0,0,,7,,,79,127
31000,note_on,40,0,0,,12,,,83,127
31004,note_off,4,0,0,,10,,,81,127
31042,note_off,38,0,0,,5,,,65,127
31043,note_on,1,0,0,,4,,,64,127
31043,note_on,0,0,0,,0,,,84,127
31044,note_off,1,0,0,,12,,,83,127
31272,note_off,228,0,0,,0,,,84,127
31273,note_on,1,0,0,,7,,,79,127
31502,note_off,229,0,0,,7,,,79,127
31502,note_off,0,0,0,,4,,,64,127
31503,note_on,1,0,0,,5,,,65,127
31503,note_on,0,0,0,,10,,,81,127
31732,note_off,229,0,0,,10,,,81,127
31732,note_off,0,0,0,,5,,,65,127
31733,note_on,1,0,0,,7,,,67,127
31733,note_on,0,0,0,,0,,,72,127
31961,note_off,228,0,0,,0,,,72,127
31963,note_on,2,0,0,,0,,,72,127
32019,note_off,56,0,0,,0,,,72,127
32020,note_on,1,0,0,,12,,,71,127
32076,note_off,56,0,0,,12,,,71,127
32077,note_on,1,0,0,,0,,,72,127
32133,note_off,56,0,0,,0,,,72,127
32134,note_on,1,0,0,,12,,,71,127
32190,note_off,56,0,0,,12,,,71,127
32191,note_on,1,0,0,,7,,,55,127
32191,note_on,0,0,0,,0,,,72,127
32247,note_off,56,0,0,,0,,,72,127
32248,note_on,1,0,0,,12,,,71,127
32304,note_off,56,0,0,,12,,,71,127
32305,note_on,1,0,0,,10,,,69,127
32361,note_off,56,0,0,,10,,,69,127
32362,note_on,1,0,0,,12,,,71,127
32418,note_off,56,0,0,,12,,,71,127
32418,note_off,0,0,0,,7,,,55,127
32418,note_off,0,0,0,,7,,,67,127
32419,note_on,1,0,0,,0,,,60,127
32419,note_on,0,0,0,,0,,,72,127
32648,note_off,229,0,0,,0,,,72,127
32648,note_off,0,0,0,,0,,,60,127
32649,note_on,1,0,0,,2,,,62,127
32649,note_on,0,0,0,,0,,,84,127
32878,note_off,229,0,0,,0,,,84,127
32878,note_off,0,0,0,,2,,,62,127
32879,note_on,1,0,0,,4,,,64,127
32879,note_on,0,0,0,,12,,,83,127
33108,note_off,229,0,0,,4,,,64,127
33109,note_on,1,0,0,,5,,,53,127
33338,note_off,229,0,0,,5,,,53,127
33338,note_off,0,0,0,,12,,,83,127
33339,note_on,1,0,0,,5,,,65,127
33339,note_on,0,0,0,,12,,,83,127
33395,note_off,56,0,0,,12,,,83,127
33396,note_on,1,0,0,,10,,,81,127
33452,note_off,56,0,0,,10,,,81,127
33453,note_on,1,0,0,,12,,,83,127
33509,note_off,56,0,0,,12,,,83,127
33510,note_on,1,0,0,,10,,,81,127
33566,note_off,56,0,0,,10,,,81,127
33566,note_off,0,0,0,,5,,,65,127
33567,note_on,1,0,0,,4,,,64,127
33567,note_on,0,0,0,,7,,,79,127
33796,note_off,229,0,0,,4,,,64,127
33797,note_on,1,0,0,,2,,,62,127
34026,note_off,229,0,0,,2,,,62,127
34026,note_off,0,0,0,,7,,,79,127
34027,note_on,1,0,0,,12,,,59,127
34027,note_on,0,0,0,,7,,,79,127
34083,note_off,56,0,0,,7,,,79,127
34084,note_on,1,0,0,,5,,,77,127
34140,note_off,56,0,0,,5,,,77,127
34141,note_on,1,0,0,,7,,,79,127
34197,note_off,56,0,0,,7,,,79,127
34198,note_on,1,0,0,,5,,,77,127
34254,note_off,56,0,0,,5,,,77,127
34254,note_off,0,0,0,,12,,,59,127
34255,note_on,1,0,0,,0,,,60,127
34255,note_on,0,0,0,,4,,,76,127
34484,note_off,229,0,0,,4,,,76,127
34484,note_off,0,0,0,,0,,,60,127
34485,note_on,1,0,0,,5,,,53,127
34485,note_on,0,0,0,,7,,,79,127
34541,note_off,56,0,0,,7,,,79,127
34542,note_on,1,0,0,,5,,,77,127
34598,note_off,56,0,0,,5,,,77,127
34599,note_on,1,0,0,,4,,,76,127
34655,note_off,56,0,0,,4,,,76,127
34656,note_on,1,0,0,,2,,,74,127
34712,note_off,56,0,0,,2,,,74,127
34712,note_off,0,0,0,,5,,,53,127
34713,note_on,1,0,0,,7,,,55,127
34713,note_on,0,0,0,,0,,,72,127
34942,note_off,229,0,0,,0,,,72,127
34943,note_on,1,0,0,,7,,,43,127
34943,note_on,0,0,0,,12,,,71,127
35172,note_off,229,0,0,,7,,,43,127
35172,note_off,0,0,0,,7,,,55,127
35173,note_on,1,0,0,,0,,,48,127
35288,note_off,115,0,0,,12,,,71,127
35402,note_off,114,0,0,,0,,,48,127
35403,note_on,1,0,0,,2,,,50,127
35403,note_on,0,0,0,,0,,,72,127
35632,note_off,229,0,0,,0,,,72,127
35632,note_off,0,0,0,,2,,,50,127
35633,note_on,1,0,0,,4,,,52,127
35633,note_on,0,0,0,,12,,,71,127
35862,note_off,229,0,0,,4,,,52,127
35863,note_on,1,0,0,,5,,,53,127
36092,note_off,229,0,0,,12,,,71,127
36093,note_on,1,0,0,,12,,,71,127
36149,note_off,56,0,0,,12,,,71,127
36150,note_on,1,0,0,,10,,,69,127
36206,note_off,56,0,0,,10,,,69,127
36207,note_on,1,0,0,,12,,,71,127
36263,note_off,56,0,0,,12,,,71,127
36264,note_on,1,0,0,,10,,,69,127
36320,note_off,56,0,0,,10,,,69,127
36320,note_off,0,0,0,,5,,,53,127
36321,note_on,1,0,0,,4,,,52,127
36321,note_on,0,0,0,,7,,,67,127
36550,note_off,229,0,0,,4,,,52,127
36551,note_on,1,0,0,,2,,,50,127
36780,note_off,229,0,0,,7,,,67,127
36781,note_on,1,0,0,,7,,,67,127
36837,note_off,56,0,0,,7,,,67,127
36838,note_on,1,0,0,,5,,,65,127
36894,note_off,56,0,0,,5,,,65,127
36895,note_on,1,0,0,,7,,,67,127
36951,note_off,56,0,0,,7,,,67,127
36952,note_on,1,0,0,,5,,,65,127
37008,note_off,56,0,0,,5,,,65,127
37008,note_off,0,0,0,,2,,,50,127
37009,note_on,1,0,0,,0,,,48,127
37009,note_on,0,0,0,,4,,,64,127
37238,note_off,229,0,0,,4,,,64,127
37238,note_off,0,0,0,,0,,,48,127
37239,note_on,1,0,0,,5,,,53,127
37239,note_on,0,0,0,,5,,,65,127
37353,note_off,114,0,0,,5,,,65,127
37354,note_on,1,0,0,,4,,,64,127
37410,note_off,56,0,0,,4,,,64,127
37411,note_on,1,0,0,,2,,,62,127
37467,note_off,56,0,0,,2,,,62,127
37467,note_off,0,0,0,,5,,,53,127
37468,note_on,1,0,0,,7,,,55,127
37468,note_on,0,0,0,,4,,,64,127
37468,note_on,0,0,0,,0,,,60,127
37697,note_off,229,0,0,,0,,,60,127
37697,note_off,0,0,0,,4,,,64,127
37698,note_on,1,0,0,,7,,,43,127
37698,note_on,0,0,0,,12,,,59,127
37698,note_on,0,0,0,,2,,,62,127
37927,note_off,229,0,0,,2,,,62,127
37927,note_off,0,0,0,,12,,,59,127
37927,note_off,0,0,0,,7,,,43,127
37927,note_off,0,0,0,,7,,,55,127
37928,note_on,1,0,0,,0,,,36,127
37928,note_on,0,0,0,,0,,,60,127
38504,note_off,576,0,0,,0,,,36,127
38618,note_off,114,0,0,,0,,,60,127
38619,note_on,1,0,0,,10,,,69,127
38675,note_off,56,0,0,,10,,,69,127
38676,note_on,1,0,0,,7,,,67,127
38732,note_off,56,0,0,,7,,,67,127
38733,note_on,1,0,0,,5,,,65,127
38789,note_off,56,0,0,,5,,,65,127
38790,note_on,1,0,0,,7,,,67,127
38846,note_off,56,0,0,,7,,,67,127
38847,note_on,1,0,0,,10,,,69,127
38847,note_on,0,0,0,,5,,,65,127
39076,note_off,229,0,0,,5,,,65,127
39076,note_off,0,0,0,,10,,,69,127
39077,note_on,1,0,0,,11,,,70,127
39077,note_on,0,0,0,,7,,,67,127
39306,note_off,229,0,0,,7,,,67,127
39306,note_off,0,0,0,,11,,,70,127
39307,note_on,1,0,0,,0,,,60,127
39307,note_on,0,0,0,,10,,,69,127
39307,note_on,0,0,0,,5,,,65,127
39536,note_off,229,0,0,,5,,,65,127
39536,note_off,0,0,0,,10,,,69,127
39536,note_off,0,0,0,,0,,,60,127
39537,note_on,1,0,0,,0,,,48,127
39537,note_on,0,0,0,,4,,,64,127
39537,note_on,0,0,0,,7,,,67,127
39767,note_on,230,0,0,,0,,,36,127
39993,note_off,226,0,0,,0,,,48,127
39997,note_off,4,0,0,,7,,,67,127
39997,note_off,0,0,0,,4,,,64,127
39998,note_on,1,0,0,,10,,,69,127
40054,note_off,56,0,0,,10,,,69,127
40055,note_on,1,0,0,,7,,,67,127
40111,note_off,56,0,0,,7,,,67,127
40112,note_off,1,0,0,,0,,,36,127
40112,note_on,0,0,0,,5,,,65,127
40168,note_off,56,0,0,,5,,,65,127
40169,note_on,1,0,0,,7,,,67,127
40225,note_off,56,0,0,,7,,,67,127
40226,note_on,1,0,0,,10,,,69,127
40226,note_on,0,0,0,,5,,,65,127
40455,note_off,229,0,0,,5,,,65,127
40455,note_off,0,0,0,,10,,,69,127
40456,note_on,1,0,0,,11,,,70,127
40456,note_on,0,0,0,,7,,,67,127
40685,note_off,229,0,0,,7,,,67,127
40685,note_off,0,0,0,,11,,,70,127
40686,note_on,1,0,0,,0,,,60,127
40686,note_on,0,0,0,,5,,,65,127
40686,note_on,0,0,0,,10,,,69,127
40915,note_off,229,0,0,,10,,,69,127
40915,note_off,0,0,0,,5,,,65,127
40915,note_off,0,0,0,,0,,,60,127
40916,note_on,1,0,0,,0,,,48,127
40916,note_on,0,0,0,,7,,,67,127
40916,note_on,0,0,0,,4,,,64,127
41146,note_on,230,0,0,,0,,,36,127
41360,note_off,214,0,0,,0,,,48,127
41362,note_off,2,0,0,,0,,,36,127
41375,note_off,13,0,0,,4,,,64,127
41375,note_off,0,0,0,,7,,,67,127
41376,note_on,1,0,0,,2,,,74,127
41432,note_off,56,0,0,,2,,,74,127
41433,note_on,1,0,0,,0,,,72,127
41489,note_off,56,0,0,,0,,,72,127
41490,note_on,1,0,0,,11,,,70,127
41546,note_off,56,0,0,,11,,,70,127
41547,note_on,1,0,0,,0,,,72,127
41603,note_off,56,0,0,,0,,,72,127
41604,note_on,1,0,0,,2,,,74,127
41604,note_on,0,0,0,,11,,,70,127
41833,note_off,229,0,0,,11,,,70,127
41833,note_off,0,0,0,,2,,,74,127
41834,note_on,1,0,0,,0,,,72,127
41834,note_on,0,0,0,,3,,,75,127
42063,note_off,229,0,0,,3,,,75,127
42063,note_off,0,0,0,,0,,,72,127
42064,note_on,1,0,0,,5,,,65,127
42064,note_on,0,0,0,,11,,,70,127
42064,note_on,0,0,0,,2,,,74,127
42293,note_off,229,0,0,,2,,,74,127
42293,note_off,0,0,0,,11,,,70,127
42293,note_off,0,0,0,,5,,,65,127
42294,note_on,1,0,0,,5,,,53,127
42294,note_on,0,0,0,,0,,,72,127
42294,note_on,0,0,0,,10,,,69,127
42524,note_on,230,0,0,,5,,,41,127
42750,note_off,226,0,0,,5,,,53,127
42754,note_off,4,0,0,,10,,,69,127
42754,note_off,0,0,0,,0,,,72,127
42755,note_on,1,0,0,,2,,,74,127
42811,note_off,56,0,0,,2,,,74,127
42812,note_on,1,0,0,,0,,,72,127
42868,note_off,56,0,0,,0,,,72,127
42869,note_off,1,0,0,,5,,,41,127
42869,note_on,0,0,0,,11,,,70,127
42925,note_off,56,0,0,,11,,,70,127
42926,note_on,1,0,0,,0,,,72,127
42982,note_off,56,0,0,,0,,,72,127
42983,note_on,1,0,0,,2,,,74,127
42983,note_on,0,0,0,,11,,,70,127
43212,note_off,229,0,0,,11,,,70,127
43212,note_off,0,0,0,,2,,,74,127
43213,note_on,1,0,0,,3,,,75,127
43213,note_on,0,0,0,,0,,,72,127
43442,note_off,229,0,0,,0,,,72,127
43442,note_off,0,0,0,,3,,,75,127
43443,note_on,1,0,0,,5,,,65,127
43443,note_on,0,0,0,,2,,,74,127
43443,note_on,0,0,0,,11,,,70,127
43672,note_off,229,0,0,,11,,,70,127
43672,note_off,0,0,0,,2,,,74,127
43672,note_off,0,0,0,,5,,,65,127
43673,note_on,1,0,0,,5,,,53,127
43673,note_on,0,0,0,,0,,,72,127
43673,note_on,0,0,0,,10,,,69,127
43903,note_on,230,0,0,,5,,,41,127
44117,note_off,214,0,0,,5,,,53,127
44119,note_off,2,0,0,,5,,,41,127
44132,note_off,13,0,0,,10,,,69,127
44132,note_off,0,0,0,,0,,,72,127
44133,note_on,1,0,0,,10,,,69,127
44247,note_off,114,0,0,,10,,,69,127
44248,note_on,1,0,0,,12,,,71,127
44304,note_off,56,0,0,,12,,,71,127
44305,note_on,1,0,0,,1,,,73,127
44361,note_off,56,0,0,,1,,,73,127
44362,note_on,1,0,0,,5,,,65,127
44362,note_on,0,0,0,,2,,,74,127
44591,note_off,229,0,0,,2,,,74,127
44591,note_off,0,0,0,,5,,,65,127
44592,note_on,1,0,0,,4,,,64,127
44592,note_on,0,0,0,,4,,,76,127
44821,note_off,229,0,0,,4,,,76,127
44821,note_off,0,0,0,,4,,,64,127
44822,note_on,1,0,0,,2,,,62,127
44822,note_on,0,0,0,,5,,,77,127
45051,note_off,229,0,0,,5,,,77,127
45051,note_off,0,0,0,,2,,,62,127
45052,note_on,1,0,0,,1,,,61,127
45052,note_on,0,0,0,,7,,,79,127
45281,note_off,229,0,0,,7,,,79,127
45281,note_off,0,0,0,,1,,,61,127
45282,note_on,1,0,0,,2,,,62,127
45282,note_on,0,0,0,,5,,,77,127
45282,note_on,0,0,0,,10,,,69,127
45511,note_off,229,0,0,,10,,,69,127
45511,note_off,0,0,0,,5,,,77,127
45511,note_off,0,0,0,,2,,,62,127
45512,note_on,1,0,0,,7,,,55,127
45512,note_on,0,0,0,,4,,,76,127
45512,note_on,0,0,0,,7,,,67,127
45741,note_off,229,0,0,,7,,,67,127
45741,note_off,0,0,0,,4,,,76,127
45741,note_off,0,0,0,,7,,,55,127
45742,note_on,1,0,0,,10,,,57,127
45742,note_on,0,0,0,,2,,,74,127
45742,note_on,0,0,0,,5,,,65,127
45971,note_off,229,0,0,,5,,,65,127
45971,note_off,0,0,0,,2,,,74,127
45972,note_on,1,0,0,,10,,,45,127
45972,note_on,0,0,0,,1,,,73,127
45972,note_on,0,0,0,,4,,,64,127
46087,note_off,115,0,0,,10,,,57,127
46201,note_off,114,0,0,,4,,,64,127
46201,note_off,0,0,0,,1,,,73,127
46201,note_off,0,0,0,,10,,,45,127
46202,note_on,1,0,0,,2,,,50,127
46202,note_on,0,0,0,,1,,,73,127
46202,note_on,0,0,0,,2,,,62,127
46431,note_off,229,0,0,,2,,,62,127
46431,note_off,0,0,0,,1,,,73,127
46432,note_on,1,0,0,,2,,,74,127
46662,note_on,230,0,0,,2,,,38,127
46878,note_off,216,0,0,,2,,,38,127
46879,note_off,1,0,0,,2,,,50,127
46891,note_off,12,0,0,,2,,,74,127
46892,note_on,1,0,0,,5,,,65,127
47006,note_off,114,0,0,,5,,,65,127
47007,note_on,1,0,0,,7,,,67,127
47063,note_off,56,0,0,,7,,,67,127
47064,note_on,1,0,0,,10,,,69,127
47120,note_off,56,0,0,,10,,,69,127
47121,note_on,1,0,0,,2,,,62,127
47121,note_on,0,0,0,,11,,,70,127
47350,note_off,229,0,0,,11,,,70,127
47350,note_off,0,0,0,,2,,,62,127
47351,note_on,1,0,0,,0,,,60,127
47351,note_on,0,0,0,,0,,,72,127
47580,note_off,229,0,0,,0,,,72,127
47580,note_off,0,0,0,,0,,,60,127
47581,note_on,1,0,0,,11,,,58,127
47581,note_on,0,0,0,,2,,,74,127
47810,note_off,229,0,0,,2,,,74,127
47811,note_on,1,0,0,,4,,,76,127
48040,note_off,229,0,0,,4,,,76,127
48040,note_off,0,0,0,,11,,,58,127
48041,note_on,1,0,0,,10,,,57,127
48041,note_on,0,0,0,,5,,,77,127
48245,note_off,204,0,0,,5,,,77,127
48270,note_off,25,0,0,,10,,,57,127
48271,note_on,1,0,0,,0,,,60,127
48271,note_on,0,0,0,,4,,,64,127
48385,note_off,114,0,0,,4,,,64,127
48386,note_on,1,0,0,,5,,,65,127
48442,note_off,56,0,0,,5,,,65,127
48443,note_on,1,0,0,,7,,,67,127
48499,note_off,56,0,0,,7,,,67,127
48499,note_off,0,0,0,,0,,,60,127
48500,note_on,1,0,0,,0,,,48,127
48500,note_on,0,0,0,,10,,,69,127
48729,note_off,229,0,0,,10,,,69,127
48729,note_off,0,0,0,,0,,,48,127
48730,note_on,1,0,0,,11,,,58,127
48730,note_on,0,0,0,,11,,,70,127
48959,note_off,229,0,0,,11,,,70,127
48959,note_off,0,0,0,,11,,,58,127
48960,note_on,1,0,0,,10,,,57,127
48960,note_on,0,0,0,,0,,,72,127
49189,note_off,229,0,0,,0,,,72,127
49189,note_off,0,0,0,,10,,,57,127
49190,note_on,1,0,0,,7,,,55,127
49190,note_on,0,0,0,,4,,,76,127
49419,note_off,229,0,0,,4,,,76,127
49419,note_off,0,0,0,,7,,,55,127
49420,note_on,1,0,0,,5,,,53,127
49420,note_on,0,0,0,,5,,,77,127
49624,note_off,204,0,0,,5,,,77,127
49649,note_off,25,0,0,,5,,,53,127
49650,note_on,1,0,0,,11,,,58,127
49650,note_on,0,0,0,,2,,,62,127
49764,note_off,114,0,0,,2,,,62,127
49765,note_on,1,0,0,,4,,,64,127
49821,note_off,56,0,0,,4,,,64,127
49822,note_on,1,0,0,,5,,,65,127
49878,note_off,56,0,0,,5,,,65,127
49879,note_on,1,0,0,,7,,,67,127
50108,note_off,229,0,0,,7,,,67,127
50108,note_off,0,0,0,,11,,,58,127
50109,note_on,1,0,0,,10,,,57,127
50109,note_on,0,0,0,,10,,,69,127
50338,note_off,229,0,0,,10,,,69,127
50338,note_off,0,0,0,,10,,,57,127
50339,note_on,1,0,0,,7,,,55,127
50339,note_on,0,0,0,,0,,,72,127
50568,note_off,229,0,0,,0,,,72,127
50568,note_off,0,0,0,,7,,,55,127
50569,note_on,1,0,0,,4,,,52,127
50569,note_on,0,0,0,,11,,,70,127
50798,note_off,229,0,0,,11,,,70,127
50798,note_off,0,0,0,,4,,,52,127
50799,note_on,1,0,0,,5,,,53,127
50799,note_on,0,0,0,,10,,,69,127
51028,note_off,229,0,0,,10,,,69,127
51028,note_off,0,0,0,,5,,,53,127
51029,note_on,1,0,0,,11,,,46,127
51029,note_on,0,0,0,,2,,,74,127
51258,note_off,229,0,0,,2,,,74,127
51258,note_off,0,0,0,,11,,,46,127
51259,note_on,1,0,0,,0,,,48,127
51259,note_on,0,0,0,,7,,,67,127
51488,note_off,229,0,0,,7,,,67,127
51488,note_off,0,0,0,,0,,,48,127
51489,note_on,1,0,0,,2,,,50,127
51489,note_on,0,0,0,,5,,,65,127
51718,note_off,229,0,0,,5,,,65,127
51718,note_off,0,0,0,,2,,,50,127
51719,note_on,1,0,0,,0,,,48,127
51719,note_on,0,0,0,,10,,,69,127
51775,note_off,56,0,0,,10,,,69,127
51776,note_on,1,0,0,,7,,,67,127
51832,note_off,56,0,0,,7,,,67,127
51833,note_on,1,0,0,,10,,,69,127
51889,note_off,56,0,0,,10,,,69,127
51890,note_on,1,0,0,,7,,,67,127
51946,note_off,56,0,0,,7,,,67,127
51947,note_on,1,0,0,,10,,,69,127
52003,note_off,56,0,0,,10,,,69,127
52004,note_on,1,0,0,,7,,,67,127
52060,note_off,56,0,0,,7,,,67,127
52061,note_on,1,0,0,,10,,,69,127
52117,note_off,56,0,0,,10,,,69,127
52118,note_on,1,0,0,,7,,,67,127
52174,note_off,56,0,0,,7,,,67,127
52175,note_on,1,0,0,,0,,,36,127
52175,note_on,0,0,0,,10,,,69,127
52231,note_off,56,0,0,,10,,,69,127
52232,note_on,1,0,0,,7,,,67,127
52288,note_off,56,0,0,,7,,,67,127
52289,note_on,1,0,0,,5,,,65,127
52345,note_off,56,0,0,,5,,,65,127
52346,note_on,1,0,0,,7,,,67,127
52402,note_off,56,0,0,,0,,,36,127
52402,note_off,0,0,0,,0,,,48,127
52403,note_on,1,0,0,,0,,,60,127
52459,note_off,56,0,0,,7,,,67,127
52633,note_on,174,0,0,,7,,,67,127
52689,note_off,56,0,0,,7,,,67,127
52690,note_on,1,0,0,,10,,,69,127
52746,note_off,56,0,0,,10,,,69,127
52747,note_on,1,0,0,,11,,,70,127
52803,note_off,56,0,0,,11,,,70,127
52804,note_on,1,0,0,,0,,,72,127
52860,note_off,56,0,0,,0,,,72,127
52860,note_off,0,0,0,,0,,,60,127
52861,note_on,1,0,0,,11,,,58,127
52861,note_on,0,0,0,,2,,,74,127
52917,note_off,56,0,0,,2,,,74,127
52918,note_on,1,0,0,,4,,,76,127
52974,note_off,56,0,0,,4,,,76,127
52975,note_on,1,0,0,,5,,,77,127
53031,note_off,56,0,0,,5,,,77,127
53032,note_on,1,0,0,,7,,,79,127
53088,note_off,56,0,0,,7,,,79,127
53088,note_off,0,0,0,,11,,,58,127
53089,note_on,1,0,0,,10,,,57,127
53089,note_on,0,0,0,,5,,,77,127
53089,note_on,0,0,0,,10,,,81,127
53318,note_off,229,0,0,,10,,,81,127
53318,note_off,0,0,0,,5,,,77,127
53318,note_off,0,0,0,,10,,,57,127
53319,note_on,1,0,0,,7,,,55,127
53319,note_on,0,0,0,,11,,,82,127
53319,note_on,0,0,0,,7,,,79,127
53548,note_off,229,0,0,,7,,,79,127
53548,note_off,0,0,0,,11,,,82,127
53548,note_off,0,0,0,,7,,,55,127
53549,note_on,1,0,0,,5,,,53,127
53549,note_on,0,0,0,,0,,,84,127
53549,note_on,0,0,0,,10,,,81,127
53778,note_off,229,0,0,,5,,,53,127
53779,note_on,1,0,0,,0,,,60,127
53813,note_off,34,0,0,,10,,,81,127
53813,note_off,0,0,0,,0,,,84,127
54010,note_on,197,0,0,,7,,,67,127
54066,note_off,56,0,0,,7,,,67,127
54067,note_on,1,0,0,,10,,,69,127
54123,note_off,56,0,0,,10,,,69,127
54124,note_on,1,0,0,,11,,,70,127
54180,note_off,56,0,0,,11,,,70,127
54181,note_on,1,0,0,,0,,,72,127
54237,note_off,56,0,0,,0,,,72,127
54237,note_off,0,0,0,,0,,,60,127
54238,note_on,1,0,0,,11,,,58,127
54238,note_on,0,0,0,,2,,,74,127
54294,note_off,56,0,0,,2,,,74,127
54295,note_on,1,0,0,,4,,,76,127
54351,note_off,56,0,0,,4,,,76,127
54352,note_on,1,0,0,,5,,,77,127
54408,note_off,56,0,0,,5,,,77,127
54409,note_on,1,0,0,,7,,,79,127
54465,note_off,56,0,0,,7,,,79,127
54465,note_off,0,0,0,,11,,,58,127
54466,note_on,1,0,0,,10,,,57,127
54466,note_on,0,0,0,,10,,,81,127
54466,note_on,0,0,0,,5,,,77,127
54695,note_off,229,0,0,,5,,,77,127
54695,note_off,0,0,0,,10,,,81,127
54695,note_off,0,0,0,,10,,,57,127
54696,note_on,1,0,0,,7,,,55,127
54696,note_on,0,0,0,,7,,,79,127
54696,note_on,0,0,0,,11,,,82,127
54925,note_off,229,0,0,,11,,,82,127
54925,note_off,0,0,0,,7,,,79,127
54925,note_off,0,0,0,,7,,,55,127
54926,note_on,1,0,0,,5,,,53,127
54926,note_on,0,0,0,,0,,,84,127
54926,note_on,0,0,0,,10,,,81,127
55155,note_off,229,0,0,,5,,,53,127
55156,note_on,1,0,0,,0,,,60,127
55271,note_off,115,0,0,,10,,,81,127
55271,note_off,0,0,0,,0,,,84,127
55386,note_on,115,0,0,,7,,,67,127
55442,note_off,56,0,0,,7,,,67,127
55443,note_on,1,0,0,,10,,,69,127
55499,note_off,56,0,0,,10,,,69,127
55500,note_on,1,0,0,,11,,,70,127
55556,note_off,56,0,0,,11,,,70,127
55557,note_on,1,0,0,,0,,,72,127
55613,note_off,56,0,0,,0,,,72,127
55613,note_off,0,0,0,,0,,,60,127
55614,note_on,1,0,0,,11,,,58,127
55614,note_on,0,0,0,,2,,,74,127
55670,note_off,56,0,0,,2,,,74,127
55671,note_on,1,0,0,,4,,,76,127
55727,note_off,56,0,0,,4,,,76,127
55728,note_on,1,0,0,,5,,,77,127
55784,note_off,56,0,0,,5,,,77,127
55785,note_on,1,0,0,,7,,,79,127
55841,note_off,56,0,0,,7,,,79,127
55841,note_off,0,0,0,,11,,,58,127
55842,note_on,1,0,0,,10,,,57,127
55842,note_on,0,0,0,,5,,,77,127
55842,note_on,0,0,0,,10,,,81,127
56071,note_off,229,0,0,,10,,,81,127
56071,note_off,0,0,0,,5,,,77,127
56071,note_off,0,0,0,,10,,,57,127
56072,note_on,1,0,0,,7,,,55,127
56072,note_on,0,0,0,,11,,,82,127
56072,note_on,0,0,0,,7,,,79,127
56301,note_off,229,0,0,,7,,,79,127
56301,note_off,0,0,0,,11,,,82,127
56301,note_off,0,0,0,,7,,,55,127
56302,note_on,1,0,0,,5,,,53,127
56302,note_on,0,0,0,,0,,,84,127
56302,note_on,0,0,0,,10,,,81,127
56531,note_off,229,0,0,,10,,,81,127
56531,note_off,0,0,0,,0,,,84,127
56531,note_off,0,0,0,,5,,,53,127
56532,note_on,1,0,0,,11,,,58,127
56532,note_on,0,0,0,,7,,,79,127
56532,note_on,0,0,0,,11,,,82,127
56761,note_off,229,0,0,,11,,,82,127
56761,note_off,0,0,0,,7,,,79,127
56761,note_off,0,0,0,,11,,,58,127
56762,note_on,1,0,0,,0,,,60,127
56762,note_on,0,0,0,,10,,,81,127
56762,note_on,0,0,0,,5,,,77,127
56991,note_off,229,0,0,,5,,,77,127
56991,note_off,0,0,0,,10,,,81,127
56992,note_on,1,0,0,,0,,,48,127
56992,note_on,0,0,0,,7,,,79,127
56992,note_on,0,0,0,,4,,,76,127
57221,note_off,229,0,0,,4,,,76,127
57221,note_off,0,0,0,,0,,,48,127
57221,note_off,0,0,0,,0,,,60,127
57222,note_on,1,0,0,,5,,,53,127
57280,note_off,58,0,0,,7,,,79,127
57280,note_on,0,0,0,,5,,,77,127
57336,note_off,56,0,0,,5,,,77,127
57337,note_on,1,0,0,,7,,,79,127
57393,note_off,56,0,0,,7,,,79,127
57394,note_on,1,0,0,,5,,,77,127
57450,note_off,56,0,0,,5,,,77,127
57450,note_off,0,0,0,,5,,,53,127
57451,note_on,1,0,0,,7,,,55,127
57451,note_on,0,0,0,,7,,,79,127
57507,note_off,56,0,0,,7,,,79,127
57508,note_on,1,0,0,,5,,,77,127
57564,note_off,56,0,0,,5,,,77,127
57565,note_on,1,0,0,,7,,,79,127
57621,note_off,56,0,0,,7,,,79,127
57622,note_on,1,0,0,,5,,,77,127
57678,note_off,56,0,0,,5,,,77,127
57678,note_off,0,0,0,,7,,,55,127
57679,note_on,1,0,0,,10,,,57,127
57679,note_on,0,0,0,,7,,,79,127
57735,note_off,56,0,0,,7,,,79,127
57736,note_on,1,0,0,,5,,,77,127
57792,note_off,56,0,0,,5,,,77,127
57793,note_on,1,0,0,,4,,,76,127
57849,note_off,56,0,0,,4,,,76,127
57850,note_on,1,0,0,,5,,,77,127
57906,note_off,56,0,0,,10,,,57,127
57907,note_on,1,0,0,,11,,,58,127
57963,note_off,56,0,0,,5,,,77,127
58099,note_on,136,0,0,,2,,,74,127
58136,note_off,37,0,0,,2,,,74,127
58137,note_on,1,0,0,,4,,,76,127
58174,note_off,37,0,0,,4,,,76,127
58175,note_on,1,0,0,,5,,,77,127
58212,note_off,37,0,0,,5,,,77,127
58213,note_on,1,0,0,,7,,,79,127
58250,note_off,37,0,0,,7,,,79,127
58251,note_on,1,0,0,,10,,,81,127
58288,note_off,37,0,0,,10,,,81,127
58289,note_on,1,0,0,,11,,,82,127
58326,note_off,37,0,0,,11,,,82,127
58327,note_on,1,0,0,,0,,,84,127
58364,note_off,37,0,0,,0,,,84,127
58364,note_off,0,0,0,,11,,,58,127
58365,note_on,1,0,0,,11,,,70,127
58365,note_on,0,0,0,,2,,,86,127
58594,note_off,229,0,0,,2,,,86,127
58594,note_off,0,0,0,,11,,,70,127
58595,note_on,1,0,0,,10,,,69,127
58595,note_on,0,0,0,,2,,,86,127
58651,note_off,56,0,0,,2,,,86,127
58652,note_on,1,0,0,,0,,,84,127
58708,note_off,56,0,0,,0,,,84,127
58709,note_on,1,0,0,,2,,,86,127
58765,note_off,56,0,0,,2,,,86,127
58766,note_on,1,0,0,,0,,,84,127
58822,note_off,56,0,0,,0,,,84,127
58822,note_off,0,0,0,,10,,,69,127
58823,note_on,1,0,0,,7,,,67,127
58823,note_on,0,0,0,,11,,,82,127
59052,note_off,229,0,0,,11,,,82,127
59052,note_off,0,0,0,,7,,,67,127
59053,note_on,1,0,0,,5,,,65,127
59053,note_on,0,0,0,,10,,,81,127
59282,note_off,229,0,0,,5,,,65,127
59283,note_on,1,0,0,,11,,,58,127
59398,note_off,115,0,0,,10,,,81,127
59475,note_on,77,0,0,,2,,,74,127
59512,note_off,37,0,0,,2,,,74,127
59513,note_on,1,0,0,,4,,,76,127
59550,note_off,37,0,0,,4,,,76,127
59551,note_on,1,0,0,,5,,,77,127
59588,note_off,37,0,0,,5,,,77,127
59589,note_on,1,0,0,,7,,,79,127
59626,note_off,37,0,0,,7,,,79,127
59627,note_on,1,0,0,,10,,,81,127
59664,note_off,37,0,0,,10,,,81,127
59665,note_on,1,0,0,,11,,,82,127
59702,note_off,37,0,0,,11,,,82,127
59703,note_on,1,0,0,,0,,,84,127
59740,note_off,37,0,0,,0,,,84,127
59740,note_off,0,0,0,,11,,,58,127
59741,note_on,1,0,0,,11,,,70,127
59741,note_on,0,0,0,,2,,,86,127
59970,note_off,229,0,0,,2,,,86,127
59970,note_off,0,0,0,,11,,,70,127
59971,note_on,1,0,0,,10,,,69,127
59971,note_on,0,0,0,,2,,,86,127
60027,note_off,56,0,0,,2,,,86,127
60028,note_on,1,0,0,,0,,,84,127
60084,note_off,56,0,0,,0,,,84,127
60085,note_on,1,0,0,,2,,,86,127
60141,note_off,56,0,0,,2,,,86,127
60142,note_on,1,0,0,,0,,,84,127
60198,note_off,56,0,0,,0,,,84,127
60198,note_off,0,0,0,,10,,,69,127
60199,note_on,1,0,0,,7,,,67,127
60199,note_on,0,0,0,,11,,,82,127
60428,note_off,229,0,0,,11,,,82,127
60428,note_off,0,0,0,,7,,,67,127
60429,note_on,1,0,0,,5,,,65,127
60429,note_on,0,0,0,,10,,,81,127
60658,note_off,229,0,0,,5,,,65,127
60659,note_on,1,0,0,,11,,,58,127
60774,note_off,115,0,0,,10,,,81,127
60851,note_on,77,0,0,,2,,,74,127
60888,note_off,37,0,0,,2,,,74,127
60889,note_on,1,0,0,,4,,,76,127
60926,note_off,37,0,0,,4,,,76,127
60927,note_on,1,0,0,,5,,,77,127
60964,note_off,37,0,0,,5,,,77,127
60965,note_on,1,0,0,,7,,,79,127
61002,note_off,37,0,0,,7,,,79,127
61003,note_on,1,0,0,,10,,,81,127
61040,note_off,37,0,0,,10,,,81,127
61041,note_on,1,0,0,,11,,,82,127
61078,note_off,37,0,0,,11,,,82,127
61079,note_on,1,0,0,,0,,,84,127
61116,note_off,37,0,0,,0,,,84,127
61116,note_off,0,0,0,,11,,,58,127
61117,note_on,1,0,0,,11,,,70,127
61117,note_on,0,0,0,,2,,,86,127
61346,note_off,229,0,0,,2,,,86,127
61346,note_off,0,0,0,,11,,,70,127
61347,note_on,1,0,0,,10,,,69,127
61347,note_on,0,0,0,,2,,,86,127
61403,note_off,56,0,0,,2,,,86,127
61404,note_on,1,0,0,,0,,,84,127
61460,note_off,56,0,0,,0,,,84,127
61461,note_on,1,0,0,,2,,,86,127
61517,note_off,56,0,0,,2,,,86,127
61518,note_on,1,0,0,,0,,,84,127
61574,note_off,56,0,0,,0,,,84,127
61574,note_off,0,0,0,,10,,,69,127
61575,note_on,1,0,0,,7,,,67,127
61575,note_on,0,0,0,,11,,,82,127
61804,note_off,229,0,0,,11,,,82,127
61804,note_off,0,0,0,,7,,,67,127
61805,note_on,1,0,0,,5,,,65,127
61805,note_on,0,0,0,,10,,,81,127
62034,note_off,229,0,0,,10,,,81,127
62034,note_off,0,0,0,,5,,,65,127
62035,note_on,1,0,0,,11,,,58,127
62035,note_on,0,0,0,,7,,,79,127
62264,note_off,229,0,0,,7,,,79,127
62264,note_off,0,0,0,,11,,,58,127
62265,note_on,1,0,0,,0,,,60,127
62265,note_on,0,0,0,,5,,,77,127
62494,note_off,229,0,0,,5,,,77,127
62495,note_on,1,0,0,,0,,,48,127
62495,note_on,0,0,0,,4,,,76,127
62724,note_off,229,0,0,,4,,,76,127
62724,note_off,0,0,0,,0,,,48,127
62724,note_off,0,0,0,,0,,,60,127
62725,note_on,1,0,0,,5,,,53,127
62725,note_on,0,0,0,,5,,,77,127
62954,note_off,229,0,0,,5,,,77,127
62954,note_off,0,0,0,,5,,,53,127
62955,note_on,1,0,0,,7,,,55,127
62955,note_on,0,0,0,,5,,,77,127
63184,note_off,229,0,0,,5,,,77,127
63184,note_off,0,0,0,,7,,,55,127
63185,note_on,1,0,0,,10,,,57,127
63185,note_on,0,0,0,,4,,,76,127
63414,note_off,229,0,0,,10,,,57,127
63415,note_on,1,0,0,,11,,,58,127
63644,note_off,229,0,0,,4,,,76,127
63645,note_on,1,0,0,,4,,,76,127
63701,note_off,56,0,0,,4,,,76,127
63702,note_on,1,0,0,,2,,,74,127
63758,note_off,56,0,0,,2,,,74,127
63759,note_on,1,0,0,,4,,,76,127
63815,note_off,56,0,0,,4,,,76,127
63816,note_on,1,0,0,,2,,,74,127
63872,note_off,56,0,0,,2,,,74,127
63872,note_off,0,0,0,,11,,,58,127
63873,note_on,1,0,0,,10,,,57,127
63873,note_on,0,0,0,,0,,,72,127
64102,note_off,229,0,0,,10,,,57,127
64103,note_on,1,0,0,,7,,,55,127
64332,note_off,229,0,0,,0,,,72,127
64333,note_on,1,0,0,,0,,,72,127
64389,note_off,56,0,0,,0,,,72,127
64390,note_on,1,0,0,,11,,,70,127
64446,note_off,56,0,0,,11,,,70,127
64447,note_on,1,0,0,,0,,,72,127
64503,note_off,56,0,0,,0,,,72,127
64504,note_on,1,0,0,,11,,,70,127
64560,note_off,56,0,0,,11,,,70,127
64560,note_off,0,0,0,,7,,,55,127
64561,note_on,1,0,0,,5,,,53,127
64561,note_on,0,0,0,,10,,,69,127
64790,note_off,229,0,0,,10,,,69,127
64790,note_off,0,0,0,,5,,,53,127
64791,note_on,1,0,0,,11,,,58,127
64791,note_on,0,0,0,,11,,,70,127
64905,note_off,114,0,0,,11,,,70,127
64906,note_on,1,0,0,,10,,,69,127
64962,note_off,56,0,0,,10,,,69,127
64963,note_on,1,0,0,,7,,,67,127
65019,note_off,56,0,0,,7,,,67,127
65019,note_off,0,0,0,,11,,,58,127
65020,note_on,1,0,0,,0,,,60,127
65020,note_on,0,0,0,,10,,,69,127
65020,note_on,0,0,0,,5,,,65,127
65249,note_off,229,0,0,,5,,,65,127
65249,note_off,0,0,0,,10,,,69,127
65250,note_on,1,0,0,,0,,,48,127
65250,note_on,0,0,0,,7,,,67,127
65250,note_on,0,0,0,,4,,,64,127
65479,note_off,229,0,0,,4,,,64,127
65479,note_off,0,0,0,,7,,,67,127
65479,note_off,0,0,0,,0,,,48,127
65479,note_off,0,0,0,,0,,,60,127
65480,note_on,1,0,0,,5,,,53,127
65480,note_on,0,0,0,,5,,,65,127
65709,note_off,229,0,0,,5,,,65,127
65709,note_off,0,0,0,,5,,,53,127
65710,note_on,1,0,0,,5,,,65,127
65710,note_on,0,0,0,,7,,,55,127
65940,note_off,230,0,0,,7,,,55,127
65940,note_off,0,0,0,,5,,,65,127
65942,note_on,2,0,0,,4,,,64,127
65942,note_on,0,0,0,,10,,,57,127
66172,note_off,230,0,0,,10,,,57,127
66172,note_off,0,0,0,,4,,,64,127
66174,note_on,2,0,0,,2,,,62,127
66174,note_on,0,0,0,,11,,,46,127
66288,note_off,114,0,0,,2,,,62,127
66290,note_on,2,0,0,,10,,,69,127
66404,note_off,114,0,0,,10,,,69,127
66406,note_on,2,0,0,,7,,,67,127
66406,note_on,0,0,0,,11,,,58,127
66464,note_off,58,0,0,,11,,,46,127
66637,note_off,173,0,0,,11,,,58,127
66637,note_off,0,0,0,,7,,,67,127
66639,note_on,2,0,0,,5,,,65,127
66639,note_on,0,0,0,,10,,,57,127
66869,note_off,230,0,0,,10,,,57,127
66869,note_off,0,0,0,,5,,,65,127
66882,note_on,13,0,0,,4,,,64,127
66882,note_on,0,0,0,,7,,,55,127
66996,note_off,114,0,0,,4,,,64,127
66998,note_on,2,0,0,,0,,,72,127
67112,note_off,114,0,0,,0,,,72,127
67112,note_off,0,0,0,,7,,,55,127
67114,note_on,2,0,0,,11,,,70,127
67114,note_on,0,0,0,,4,,,52,127
67344,note_off,230,0,0,,4,,,52,127
67344,note_off,0,0,0,,11,,,70,127
67346,note_on,2,0,0,,10,,,69,127
67346,note_on,0,0,0,,5,,,53,127
67576,note_off,230,0,0,,5,,,53,127
67576,note_off,0,0,0,,10,,,69,127
67600,note_on,24,0,0,,7,,,79,127
67600,note_on,0,0,0,,11,,,46,127
67840,note_off,240,0,0,,11,,,46,127
67840,note_off,0,0,0,,7,,,79,127
67847,note_on,7,0,0,,5,,,77,127
67847,note_on,0,0,0,,0,,,48,127
67905,note_off,58,0,0,,5,,,77,127
67909,note_on,4,0,0,,4,,,76,127
67967,note_off,58,0,0,,4,,,76,127
67971,note_on,4,0,0,,5,,,77,127
68029,note_off,58,0,0,,5,,,77,127
68034,note_on,5,0,0,,4,,,76,127
68092,note_off,58,0,0,,4,,,76,127
68096,note_on,4,0,0,,5,,,77,127
68096,note_on,0,0,0,,0,,,36,127
68154,note_off,58,0,0,,5,,,77,127
68159,note_on,5,0,0,,4,,,76,127
68217,note_off,58,0,0,,4,,,76,127
68221,note_on,4,0,0,,2,,,74,127
68279,note_off,58,0,0,,2,,,74,127
68284,note_on,5,0,0,,4,,,76,127
68337,note_off,53,0,0,,0,,,48,127
68338,note_off,1,0,0,,0,,,36,127
68356,note_off,18,0,0,,4,,,76,127
68379,note_on,23,0,0,,5,,,77,127
68379,note_on,0,0,0,,5,,,41,127
70299,note_off,1920,0,0,,5,,,41,127
70299,note_off,0,0,0,,5,,,77,127
75264,end_of_track,4965,1,0,,,,,,
