tick,type,time,meta,track,program,channel,pitch,tempo,note,velocity
0,copyright,0,1,0,,,,,,
0,program_change,0,0,0,6,0,,,,
0,pitchwheel,0,0,0,,0,0,,,
0,program_change,0,0,0,6,1,,,,
0,pitchwheel,0,0,0,,1,-590,,,
0,program_change,0,0,0,6,2,,,,
0,pitchwheel,0,0,0,,2,-272,,,
0,program_change,0,0,0,6,3,,,,
0,pitchwheel,0,0,0,,3,-353,,,
0,program_change,0,0,0,6,4,,,,
0,pitchwheel,0,0,0,,4,-560,,,
0,program_change,0,0,0,6,5,,,,
0,pitchwheel,0,0,0,,5,-80,,,
0,program_change,0,0,0,6,6,,,,
0,pitchwheel,0,0,0,,6,-625,,,
0,program_change,0,0,0,6,7,,,,
0,pitchwheel,0,0,0,,7,-130,,,
0,program_change,0,0,0,6,8,,,,
0,pitchwheel,0,0,0,,8,-512,,,
0,program_change,0,0,0,6,10,,,,
0,pitchwheel,0,0,0,,10,-464,,,
0,program_change,0,0,0,6,11,,,,
0,pitchwheel,0,0,0,,11,-208,,,
0,program_change,0,0,0,6,12,,,,
0,pitchwheel,0,0,0,,12,-553,,,
0,set_tempo,0,1,0,,,,500000,,
137,note_on,137,0,0,,12,,,83,127
318,note_off,181,0,0,,12,,,83,127
319,note_on,1,0,0,,10,,,81,127
409,note_off,90,0,0,,10,,,81,127
410,note_on,1,0,0,,8,,,80,127
681,note_off,271,0,0,,8,,,80,127
684,note_on,3,0,0,,6,,,78,127
684,note_on,0,0,0,,10,,,81,127
957,note_off,273,0,0,,6,,,78,127
958,note_on,1,0,0,,3,,,75,127
1231,note_off,273,0,0,,3,,,75,127
1231,note_off,0,0,0,,10,,,81,127
1232,note_on,1,0,0,,4,,,76,127
1232,note_on,0,0,0,,8,,,80,127
1505,note_off,273,0,0,,4,,,76,127
1506,note_on,1,0,0,,12,,,71,127
1779,note_off,273,0,0,,12,,,71,127
1779,note_off,0,0,0,,8,,,80,127
1780,note_on,1,0,0,,6,,,78,127
1780,note_on,0,0,0,,12,,,71,127
1831,note_on,51,0,0,,4,,,76,127
1832,note_off,1,0,0,,6,,,78,127
1882,note_on,50,0,0,,6,,,78,127
1883,note_off,1,0,0,,4,,,76,127
2190,note_off,307,0,0,,12,,,71,127
2267,note_off,77,0,0,,6,,,78,127
2327,note_on,60,0,0,,6,,,78,127
2327,note_on,0,0,0,,12,,,71,127
2378,note_on,51,0,0,,4,,,76,127
2379,note_off,1,0,0,,6,,,78,127
2429,note_on,50,0,0,,6,,,78,127
2430,note_off,1,0,0,,4,,,76,127
2737,note_off,307,0,0,,12,,,71,127
2814,note_off,77,0,0,,6,,,78,127
2874,note_on,60,0,0,,6,,,78,127
2874,note_on,0,0,0,,12,,,71,127
2925,note_on,51,0,0,,4,,,76,127
2926,note_off,1,0,0,,6,,,78,127
2976,note_on,50,0,0,,6,,,78,127
2977,note_off,1,0,0,,4,,,76,127
3284,note_off,307,0,0,,12,,,71,127
3361,note_off,77,0,0,,6,,,78,127
3430,note_on,69,0,0,,12,,,83,127
3611,note_off,181,0,0,,12,,,83,127
3612,note_on,1,0,0,,10,,,81,127
3702,note_off,90,0,0,,10,,,81,127
3703,note_on,1,0,0,,8,,,80,127
3974,note_off,271,0,0,,8,,,80,127
3977,note_on,3,0,0,,10,,,81,127
3977,note_on,0,0,0,,6,,,78,127
4250,note_off,273,0,0,,6,,,78,127
4251,note_on,1,0,0,,3,,,75,127
4524,note_off,273,0,0,,3,,,75,127
4524,note_off,0,0,0,,10,,,81,127
4525,note_on,1,0,0,,8,,,80,127
4525,note_on,0,0,0,,4,,,76,127
4798,note_off,273,0,0,,4,,,76,127
4799,note_on,1,0,0,,12,,,71,127
5072,note_off,273,0,0,,12,,,71,127
5072,note_off,0,0,0,,8,,,80,127
5073,note_on,1,0,0,,6,,,78,127
5073,note_on,0,0,0,,12,,,71,127
5124,note_on,51,0,0,,4,,,76,127
5125,note_off,1,0,0,,6,,,78,127
5175,note_on,50,0,0,,6,,,78,127
5176,note_off,1,0,0,,4,,,76,127
5483,note_off,307,0,0,,12,,,71,127
5560,note_off,77,0,0,,6,,,78,127
5620,note_on,60,0,0,,6,,,78,127
5620,note_on,0,0,0,,12,,,71,127
5671,note_on,51,0,0,,4,,,76,127
5672,note_off,1,0,0,,6,,,78,127
5722,note_on,50,0,0,,6,,,78,127
5723,note_off,1,0,0,,4,,,76,127
6030,note_off,307,0,0,,12,,,71,127
6107,note_off,77,0,0,,6,,,78,127
6167,note_on,60,0,0,,6,,,78,127
6167,note_on,0,0,0,,12,,,71,127
6218,note_on,51,0,0,,4,,,76,127
6219,note_off,1,0,0,,6,,,78,127
6269,note_on,50,0,0,,6,,,78,127
6270,note_off,1,0,0,,4,,,76,127
6577,note_off,307,0,0,,12,,,71,127
6697,note_off,120,0,0,,6,,,78,127
6740,note_on,43,0,0,,12,,,71,127
6921,note_off,181,0,0,,12,,,71,127
6922,note_on,1,0,0,,10,,,69,127
7012,note_off,90,0,0,,10,,,69,127
7013,note_on,1,0,0,,8,,,68,127
7284,note_off,271,0,0,,8,,,68,127
7287,note_on,3,0,0,,10,,,69,127
7287,note_on,0,0,0,,6,,,66,127
7560,note_off,273,0,0,,6,,,66,127
7561,note_on,1,0,0,,3,,,63,127
7834,note_off,273,0,0,,3,,,63,127
7834,note_off,0,0,0,,10,,,69,127
7835,note_on,1,0,0,,8,,,68,127
7835,note_on,0,0,0,,4,,,64,127
8108,note_off,273,0,0,,4,,,64,127
8109,note_on,1,0,0,,12,,,59,127
8382,note_off,273,0,0,,12,,,59,127
8382,note_off,0,0,0,,8,,,68,127
8383,note_on,1,0,0,,12,,,59,127
8383,note_on,0,0,0,,6,,,66,127
8434,note_on,51,0,0,,4,,,64,127
8435,note_off,1,0,0,,6,,,66,127
8485,note_on,50,0,0,,6,,,66,127
8486,note_off,1,0,0,,4,,,64,127
8793,note_off,307,0,0,,12,,,59,127
8870,note_off,77,0,0,,6,,,66,127
8930,note_on,60,0,0,,6,,,78,127
8930,note_on,0,0,0,,12,,,59,127
8930,note_on,0,0,0,,6,,,66,127
8981,note_on,51,0,0,,4,,,64,127
8982,note_off,1,0,0,,6,,,66,127
9032,note_on,50,0,0,,6,,,66,127
9033,note_off,1,0,0,,4,,,64,127
9340,note_off,307,0,0,,12,,,59,127
9417,note_off,77,0,0,,6,,,66,127
9476,note_off,59,0,0,,6,,,78,127
9477,note_on,1,0,0,,6,,,78,127
9477,note_on,0,0,0,,12,,,59,127
9477,note_on,0,0,0,,6,,,66,127
9528,note_on,51,0,0,,4,,,64,127
9529,note_off,1,0,0,,6,,,66,127
9579,note_on,50,0,0,,6,,,66,127
9580,note_off,1,0,0,,4,,,64,127
9887,note_off,307,0,0,,12,,,59,127
9964,note_off,77,0,0,,6,,,66,127
10033,note_on,69,0,0,,12,,,71,127
10214,note_off,181,0,0,,12,,,71,127
10215,note_on,1,0,0,,10,,,69,127
10305,note_off,90,0,0,,10,,,69,127
10306,note_on,1,0,0,,8,,,68,127
10570,note_off,264,0,0,,6,,,78,127
10577,note_off,7,0,0,,8,,,68,127
10580,note_on,3,0,0,,10,,,69,127
10580,note_on,0,0,0,,6,,,66,127
10853,note_off,273,0,0,,6,,,66,127
10854,note_on,1,0,0,,3,,,63,127
11127,note_off,273,0,0,,3,,,63,127
11127,note_off,0,0,0,,10,,,69,127
11128,note_on,1,0,0,,4,,,64,127
11128,note_on,0,0,0,,8,,,68,127
11401,note_off,273,0,0,,4,,,64,127
11402,note_on,1,0,0,,12,,,59,127
11675,note_off,273,0,0,,12,,,59,127
11675,note_off,0,0,0,,8,,,68,127
11676,note_on,1,0,0,,6,,,66,127
11676,note_on,0,0,0,,12,,,59,127
11727,note_on,51,0,0,,4,,,64,127
11728,note_off,1,0,0,,6,,,66,127
11778,note_on,50,0,0,,6,,,66,127
11779,note_off,1,0,0,,4,,,64,127
12086,note_off,307,0,0,,12,,,59,127
12163,note_off,77,0,0,,6,,,66,127
12223,note_on,60,0,0,,6,,,66,127
12223,note_on,0,0,0,,12,,,59,127
12223,note_on,0,0,0,,6,,,78,127
12274,note_on,51,0,0,,4,,,64,127
12275,note_off,1,0,0,,6,,,66,127
12325,note_on,50,0,0,,6,,,66,127
12326,note_off,1,0,0,,4,,,64,127
12633,note_off,307,0,0,,12,,,59,127
12710,note_off,77,0,0,,6,,,66,127
12769,note_off,59,0,0,,6,,,78,127
12770,note_on,1,0,0,,6,,,66,127
12770,note_on,0,0,0,,12,,,59,127
12770,note_on,0,0,0,,6,,,78,127
12821,note_on,51,0,0,,4,,,64,127
12822,note_off,1,0,0,,6,,,66,127
12872,note_on,50,0,0,,6,,,66,127
12873,note_off,1,0,0,,4,,,64,127
13180,note_off,307,0,0,,12,,,59,127
13257,note_off,77,0,0,,6,,,66,127
13346,note_on,89,0,0,,12,,,47,127
13453,note_off,107,0,0,,6,,,78,127
13489,note_on,36,0,0,,6,,,78,127
13625,note_off,136,0,0,,6,,,78,127
13626,note_on,1,0,0,,10,,,81,127
13762,note_off,136,0,0,,10,,,81,127
13763,note_on,1,0,0,,8,,,80,127
13899,note_off,136,0,0,,8,,,80,127
13900,note_on,1,0,0,,6,,,78,127
14036,note_off,136,0,0,,6,,,78,127
14037,note_on,1,0,0,,4,,,76,127
14173,note_off,136,0,0,,4,,,76,127
14174,note_on,1,0,0,,3,,,75,127
14310,note_off,136,0,0,,3,,,75,127
14311,note_on,1,0,0,,1,,,73,127
14447,note_off,136,0,0,,1,,,73,127
14448,note_on,1,0,0,,12,,,71,127
14584,note_off,136,0,0,,12,,,71,127
14585,note_on,1,0,0,,10,,,69,127
14721,note_off,136,0,0,,10,,,69,127
14722,note_on,1,0,0,,8,,,68,127
14858,note_off,136,0,0,,8,,,68,127
14859,note_on,1,0,0,,6,,,66,127
14989,note_off,130,0,0,,12,,,47,127
14995,note_off,6,0,0,,6,,,66,127
14996,note_on,1,0,0,,4,,,52,127
14996,note_on,0,0,0,,8,,,68,127
15132,note_off,136,0,0,,4,,,52,127
15133,note_on,1,0,0,,4,,,64,127
15269,note_off,136,0,0,,4,,,64,127
15269,note_off,0,0,0,,8,,,68,127
15270,note_on,1,0,0,,8,,,68,127
15407,note_on,137,0,0,,6,,,66,127
15543,note_off,136,0,0,,6,,,66,127
15544,note_on,1,0,0,,4,,,64,127
15680,note_off,136,0,0,,4,,,64,127
15681,note_on,1,0,0,,3,,,63,127
15817,note_off,136,0,0,,3,,,63,127
15818,note_on,1,0,0,,1,,,61,127
15954,note_off,136,0,0,,1,,,61,127
15955,note_on,1,0,0,,12,,,59,127
16091,note_off,136,0,0,,12,,,59,127
16091,note_off,0,0,0,,8,,,68,127
16092,note_on,1,0,0,,10,,,57,127
16228,note_off,136,0,0,,10,,,57,127
16229,note_on,1,0,0,,8,,,56,127
16365,note_off,136,0,0,,8,,,56,127
16366,note_on,1,0,0,,6,,,54,127
16502,note_off,136,0,0,,6,,,54,127
16503,note_on,1,0,0,,4,,,52,127
16639,note_off,136,0,0,,4,,,52,127
16640,note_on,1,0,0,,3,,,51,127
16777,note_on,137,0,0,,6,,,78,127
16913,note_off,136,0,0,,6,,,78,127
16914,note_on,1,0,0,,10,,,81,127
17050,note_off,136,0,0,,10,,,81,127
17051,note_on,1,0,0,,8,,,80,127
17187,note_off,136,0,0,,8,,,80,127
17187,note_off,0,0,0,,3,,,51,127
17188,note_on,1,0,0,,3,,,51,127
17188,note_on,0,0,0,,6,,,78,127
17324,note_off,136,0,0,,6,,,78,127
17325,note_on,1,0,0,,4,,,76,127
17461,note_off,136,0,0,,4,,,76,127
17462,note_on,1,0,0,,3,,,75,127
17598,note_off,136,0,0,,3,,,75,127
17599,note_on,1,0,0,,1,,,73,127
17735,note_off,136,0,0,,1,,,73,127
17735,note_off,0,0,0,,3,,,51,127
17736,note_on,1,0,0,,3,,,51,127
17736,note_on,0,0,0,,12,,,71,127
17873,note_on,137,0,0,,10,,,69,127
18009,note_off,136,0,0,,10,,,69,127
18010,note_on,1,0,0,,8,,,68,127
18146,note_off,136,0,0,,8,,,68,127
18149,note_on,3,0,0,,6,,,66,127
18265,note_off,116,0,0,,12,,,71,127
18269,note_off,4,0,0,,6,,,66,127
18270,note_off,1,0,0,,3,,,51,127
18300,note_on,30,0,0,,8,,,80,127
18300,note_on,0,0,0,,8,,,68,127
18300,note_on,0,0,0,,4,,,64,127
18300,note_on,0,0,0,,12,,,59,127
18300,note_on,0,0,0,,4,,,52,127
18577,note_off,277,0,0,,8,,,80,127
18580,note_on,3,0,0,,6,,,78,127
18580,note_on,0,0,0,,4,,,76,127
18857,note_off,277,0,0,,4,,,52,127
18857,note_off,0,0,0,,12,,,59,127
18857,note_off,0,0,0,,4,,,64,127
18858,note_on,1,0,0,,4,,,64,127
18858,note_on,0,0,0,,4,,,52,127
18858,note_on,0,0,0,,12,,,59,127
18998,note_off,140,0,0,,6,,,78,127
19137,note_off,139,0,0,,4,,,76,127
19138,note_on,1,0,0,,3,,,75,127
19415,note_off,277,0,0,,12,,,59,127
19415,note_off,0,0,0,,4,,,52,127
19415,note_off,0,0,0,,4,,,64,127
19418,note_on,3,0,0,,12,,,59,127
19418,note_on,0,0,0,,4,,,64,127
19418,note_on,0,0,0,,4,,,52,127
19695,note_off,277,0,0,,3,,,75,127
19698,note_on,3,0,0,,4,,,76,127
19961,note_off,263,0,0,,4,,,76,127
19961,note_off,0,0,0,,4,,,64,127
19961,note_off,0,0,0,,8,,,68,127
19975,note_off,14,0,0,,4,,,52,127
19975,note_off,0,0,0,,12,,,59,127
19992,note_on,17,0,0,,11,,,70,127
19992,note_on,0,0,0,,8,,,80,127
19992,note_on,0,0,0,,4,,,64,127
19992,note_on,0,0,0,,1,,,61,127
19992,note_on,0,0,0,,6,,,54,127
20269,note_off,277,0,0,,8,,,80,127
20272,note_on,3,0,0,,6,,,78,127
20272,note_on,0,0,0,,4,,,76,127
20549,note_off,277,0,0,,6,,,54,127
20549,note_off,0,0,0,,1,,,61,127
20549,note_off,0,0,0,,4,,,64,127
20550,note_on,1,0,0,,4,,,64,127
20550,note_on,0,0,0,,1,,,61,127
20550,note_on,0,0,0,,6,,,54,127
20690,note_off,140,0,0,,6,,,78,127
20829,note_off,139,0,0,,4,,,76,127
20830,note_on,1,0,0,,3,,,75,127
21107,note_off,277,0,0,,6,,,54,127
21107,note_off,0,0,0,,1,,,61,127
21107,note_off,0,0,0,,4,,,64,127
21110,note_on,3,0,0,,4,,,64,127
21110,note_on,0,0,0,,1,,,61,127
21110,note_on,0,0,0,,6,,,54,127
21387,note_off,277,0,0,,3,,,75,127
21390,note_on,3,0,0,,4,,,76,127
21653,note_off,263,0,0,,4,,,76,127
21653,note_off,0,0,0,,4,,,64,127
21653,note_off,0,0,0,,11,,,70,127
21667,note_off,14,0,0,,6,,,54,127
21667,note_off,0,0,0,,1,,,61,127
21678,note_on,11,0,0,,12,,,59,127
21678,note_on,0,0,0,,8,,,56,127
21678,note_on,0,0,0,,4,,,64,127
21678,note_on,0,0,0,,8,,,80,127
21678,note_on,0,0,0,,12,,,71,127
21955,note_off,277,0,0,,8,,,80,127
21958,note_on,3,0,0,,4,,,76,127
21958,note_on,0,0,0,,6,,,78,127
22235,note_off,277,0,0,,4,,,64,127
22235,note_off,0,0,0,,8,,,56,127
22235,note_off,0,0,0,,12,,,59,127
22236,note_on,1,0,0,,12,,,59,127
22236,note_on,0,0,0,,8,,,56,127
22236,note_on,0,0,0,,4,,,64,127
22376,note_off,140,0,0,,6,,,78,127
22515,note_off,139,0,0,,4,,,76,127
22516,note_on,1,0,0,,3,,,75,127
22793,note_off,277,0,0,,4,,,64,127
22793,note_off,0,0,0,,8,,,56,127
22793,note_off,0,0,0,,12,,,59,127
22796,note_on,3,0,0,,4,,,64,127
22796,note_on,0,0,0,,12,,,59,127
22796,note_on,0,0,0,,8,,,56,127
23073,note_off,277,0,0,,3,,,75,127
23076,note_on,3,0,0,,4,,,76,127
23339,note_off,263,0,0,,4,,,76,127
23339,note_off,0,0,0,,4,,,64,127
23339,note_off,0,0,0,,12,,,71,127
23353,note_off,14,0,0,,8,,,56,127
23353,note_off,0,0,0,,12,,,59,127
23370,note_on,17,0,0,,8,,,80,127
23370,note_on,0,0,0,,4,,,64,127
23370,note_on,0,0,0,,1,,,61,127
23370,note_on,0,0,0,,11,,,58,127
23647,note_off,277,0,0,,8,,,80,127
23650,note_on,3,0,0,,6,,,78,127
23650,note_on,0,0,0,,4,,,76,127
23927,note_off,277,0,0,,11,,,58,127
23927,note_off,0,0,0,,1,,,61,127
23927,note_off,0,0,0,,4,,,64,127
23928,note_on,1,0,0,,4,,,64,127
23928,note_on,0,0,0,,1,,,61,127
23928,note_on,0,0,0,,11,,,58,127
24068,note_off,140,0,0,,6,,,78,127
24207,note_off,139,0,0,,4,,,76,127
24208,note_on,1,0,0,,3,,,75,127
24485,note_off,277,0,0,,11,,,58,127
24485,note_off,0,0,0,,1,,,61,127
24485,note_off,0,0,0,,4,,,64,127
24488,note_on,3,0,0,,4,,,64,127
24488,note_on,0,0,0,,11,,,58,127
24488,note_on,0,0,0,,1,,,61,127
24765,note_off,277,0,0,,3,,,75,127
24774,note_on,9,0,0,,4,,,76,127
25031,note_off,257,0,0,,4,,,64,127
25045,note_off,14,0,0,,1,,,61,127
25045,note_off,0,0,0,,11,,,58,127
25058,note_off,13,0,0,,4,,,76,127
25062,note_on,4,0,0,,6,,,54,127
25062,note_on,0,0,0,,12,,,47,127
25062,note_on,0,0,0,,12,,,59,127
25062,note_on,0,0,0,,6,,,78,127
25062,note_on,0,0,0,,12,,,71,127
25339,note_off,277,0,0,,6,,,78,127
25342,note_on,3,0,0,,3,,,75,127
25342,note_on,0,0,0,,4,,,76,127
25619,note_off,277,0,0,,12,,,59,127
25619,note_off,0,0,0,,12,,,47,127
25619,note_off,0,0,0,,6,,,54,127
25622,note_on,3,0,0,,12,,,59,127
25622,note_on,0,0,0,,6,,,54,127
25622,note_on,0,0,0,,12,,,47,127
25761,note_off,139,0,0,,4,,,76,127
25900,note_off,139,0,0,,3,,,75,127
25903,note_on,3,0,0,,1,,,73,127
26180,note_off,277,0,0,,12,,,47,127
26180,note_off,0,0,0,,6,,,54,127
26180,note_off,0,0,0,,12,,,59,127
26181,note_on,1,0,0,,6,,,54,127
26181,note_on,0,0,0,,12,,,47,127
26181,note_on,0,0,0,,12,,,59,127
26460,note_off,279,0,0,,1,,,73,127
26461,note_on,1,0,0,,3,,,75,127
26724,note_off,263,0,0,,3,,,75,127
26724,note_off,0,0,0,,12,,,71,127
26738,note_off,14,0,0,,12,,,59,127
26738,note_off,0,0,0,,12,,,47,127
26738,note_off,0,0,0,,6,,,54,127
26745,note_on,7,0,0,,4,,,52,127
26745,note_on,0,0,0,,4,,,64,127
26745,note_on,0,0,0,,4,,,76,127
27021,note_on,276,0,0,,1,,,73,127
27021,note_on,0,0,0,,3,,,75,127
27022,note_off,1,0,0,,4,,,76,127
27296,note_off,274,0,0,,4,,,52,127
27300,note_on,4,0,0,,4,,,52,127
27300,note_on,0,0,0,,1,,,61,127
27301,note_off,1,0,0,,4,,,64,127
27438,note_off,137,0,0,,3,,,75,127
27577,note_off,139,0,0,,1,,,73,127
27580,note_on,3,0,0,,12,,,71,127
27851,note_off,271,0,0,,1,,,61,127
27857,note_off,6,0,0,,12,,,71,127
27857,note_off,0,0,0,,4,,,52,127
27858,note_on,1,0,0,,12,,,59,127
27858,note_on,0,0,0,,5,,,53,127
27858,note_on,0,0,0,,1,,,61,127
27858,note_on,0,0,0,,11,,,70,127
28135,note_off,277,0,0,,11,,,70,127
28138,note_on,3,0,0,,12,,,71,127
28415,note_off,277,0,0,,12,,,71,127
28415,note_off,0,0,0,,1,,,61,127
28415,note_off,0,0,0,,5,,,53,127
28415,note_off,0,0,0,,12,,,59,127
28418,note_on,3,0,0,,6,,,54,127
28418,note_on,0,0,0,,1,,,61,127
28418,note_on,0,0,0,,1,,,73,127
28485,note_off,67,0,0,,1,,,73,127
28488,note_on,3,0,0,,12,,,71,127
28555,note_off,67,0,0,,12,,,71,127
28558,note_on,3,0,0,,1,,,73,127
28625,note_off,67,0,0,,1,,,73,127
28628,note_on,3,0,0,,12,,,71,127
28695,note_off,67,0,0,,12,,,71,127
28698,note_on,3,0,0,,1,,,73,127
28765,note_off,67,0,0,,1,,,73,127
28768,note_on,3,0,0,,12,,,71,127
28835,note_off,67,0,0,,12,,,71,127
28838,note_on,3,0,0,,11,,,70,127
28905,note_off,67,0,0,,11,,,70,127
28908,note_on,3,0,0,,12,,,71,127
28975,note_off,67,0,0,,12,,,71,127
28975,note_off,0,0,0,,1,,,61,127
28975,note_off,0,0,0,,6,,,54,127
28985,note_on,10,0,0,,11,,,70,127
28985,note_on,0,0,0,,6,,,42,127
29822,note_off,837,0,0,,11,,,70,127
30102,note_off,280,0,0,,6,,,42,127
30251,note_on,149,0,0,,6,,,42,127
30251,note_on,0,0,0,,6,,,66,127
30251,note_on,0,0,0,,1,,,73,127
30524,note_off,273,0,0,,1,,,73,127
30524,note_off,0,0,0,,6,,,66,127
30525,note_on,1,0,0,,6,,,66,127
30525,note_on,0,0,0,,1,,,73,127
30661,note_off,136,0,0,,1,,,73,127
30661,note_off,0,0,0,,6,,,66,127
30662,note_on,1,0,0,,6,,,66,127
30662,note_on,0,0,0,,1,,,73,127
30798,note_off,136,0,0,,1,,,73,127
30798,note_off,0,0,0,,6,,,66,127
30798,note_off,0,0,0,,6,,,42,127
30799,note_on,1,0,0,,6,,,42,127
30799,note_on,0,0,0,,1,,,73,127
30799,note_on,0,0,0,,6,,,66,127
31072,note_off,273,0,0,,6,,,66,127
31072,note_off,0,0,0,,1,,,73,127
31073,note_on,1,0,0,,1,,,73,127
31073,note_on,0,0,0,,6,,,66,127
31346,note_off,273,0,0,,6,,,66,127
31346,note_off,0,0,0,,1,,,73,127
31346,note_off,0,0,0,,6,,,42,127
31347,note_on,1,0,0,,6,,,42,127
31347,note_on,0,0,0,,3,,,75,127
31347,note_on,0,0,0,,12,,,71,127
31347,note_on,0,0,0,,6,,,66,127
31620,note_off,273,0,0,,3,,,75,127
31621,note_on,1,0,0,,6,,,78,127
31894,note_off,273,0,0,,6,,,78,127
31894,note_off,0,0,0,,6,,,66,127
31894,note_off,0,0,0,,12,,,71,127
31894,note_off,0,0,0,,6,,,42,127
31901,note_on,7,0,0,,1,,,73,127
31901,note_on,0,0,0,,6,,,66,127
31901,note_on,0,0,0,,1,,,61,127
31901,note_on,0,0,0,,6,,,54,127
32174,note_off,273,0,0,,6,,,54,127
32174,note_off,0,0,0,,1,,,61,127
32175,note_on,1,0,0,,1,,,61,127
32175,note_on,0,0,0,,6,,,54,127
32311,note_off,136,0,0,,6,,,54,127
32311,note_off,0,0,0,,1,,,61,127
32312,note_on,1,0,0,,6,,,54,127
32312,note_on,0,0,0,,1,,,61,127
32448,note_off,136,0,0,,1,,,61,127
32448,note_off,0,0,0,,6,,,54,127
32448,note_off,0,0,0,,6,,,66,127
32448,note_off,0,0,0,,1,,,73,127
32449,note_on,1,0,0,,11,,,70,127
32449,note_on,0,0,0,,6,,,54,127
32449,note_on,0,0,0,,1,,,61,127
32722,note_off,273,0,0,,1,,,61,127
32722,note_off,0,0,0,,6,,,54,127
32723,note_on,1,0,0,,1,,,61,127
32723,note_on,0,0,0,,6,,,54,127
32996,note_off,273,0,0,,6,,,54,127
32996,note_off,0,0,0,,1,,,61,127
32996,note_off,0,0,0,,11,,,70,127
32997,note_on,1,0,0,,1,,,73,127
32997,note_on,0,0,0,,3,,,63,127
32997,note_on,0,0,0,,6,,,54,127
33064,note_off,67,0,0,,1,,,73,127
33065,note_on,1,0,0,,12,,,71,127
33132,note_off,67,0,0,,12,,,71,127
33133,note_on,1,0,0,,1,,,73,127
33200,note_off,67,0,0,,1,,,73,127
33201,note_on,1,0,0,,12,,,71,127
33268,note_off,67,0,0,,12,,,71,127
33268,note_off,0,0,0,,3,,,63,127
33269,note_on,1,0,0,,1,,,73,127
33269,note_on,0,0,0,,6,,,66,127
33336,note_off,67,0,0,,1,,,73,127
33337,note_on,1,0,0,,12,,,71,127
33404,note_off,67,0,0,,12,,,71,127
33405,note_on,1,0,0,,11,,,70,127
33472,note_off,67,0,0,,11,,,70,127
33473,note_on,1,0,0,,12,,,71,127
33536,note_off,63,0,0,,6,,,54,127
33540,note_off,4,0,0,,12,,,71,127
33540,note_off,0,0,0,,6,,,66,127
33564,note_on,24,0,0,,6,,,66,127
33564,note_on,0,0,0,,1,,,73,127
33564,note_on,0,0,0,,6,,,42,127
33837,note_off,273,0,0,,1,,,73,127
33837,note_off,0,0,0,,6,,,66,127
33838,note_on,1,0,0,,6,,,66,127
33838,note_on,0,0,0,,1,,,73,127
33974,note_off,136,0,0,,1,,,73,127
33974,note_off,0,0,0,,6,,,66,127
33975,note_on,1,0,0,,1,,,73,127
33975,note_on,0,0,0,,6,,,66,127
34111,note_off,136,0,0,,6,,,66,127
34111,note_off,0,0,0,,1,,,73,127
34111,note_off,0,0,0,,6,,,42,127
34112,note_on,1,0,0,,1,,,73,127
34112,note_on,0,0,0,,6,,,66,127
34112,note_on,0,0,0,,6,,,42,127
34385,note_off,273,0,0,,6,,,66,127
34385,note_off,0,0,0,,1,,,73,127
34386,note_on,1,0,0,,6,,,66,127
34386,note_on,0,0,0,,1,,,73,127
34659,note_off,273,0,0,,1,,,73,127
34659,note_off,0,0,0,,6,,,66,127
34659,note_off,0,0,0,,6,,,42,127
34660,note_on,1,0,0,,6,,,66,127
34660,note_on,0,0,0,,12,,,71,127
34660,note_on,0,0,0,,3,,,75,127
34660,note_on,0,0,0,,6,,,42,127
34933,note_off,273,0,0,,3,,,75,127
34934,note_on,1,0,0,,6,,,78,127
35190,note_off,256,0,0,,6,,,78,127
35207,note_off,17,0,0,,6,,,42,127
35207,note_off,0,0,0,,12,,,71,127
35207,note_off,0,0,0,,6,,,66,127
35208,note_on,1,0,0,,1,,,73,127
35208,note_on,0,0,0,,6,,,54,127
35208,note_on,0,0,0,,1,,,61,127
35344,note_off,136,0,0,,1,,,73,127
35345,note_on,1,0,0,,11,,,70,127
35481,note_off,136,0,0,,11,,,70,127
35482,note_on,1,0,0,,11,,,70,127
35618,note_off,136,0,0,,11,,,70,127
35619,note_on,1,0,0,,12,,,71,127
35755,note_off,136,0,0,,12,,,71,127
35755,note_off,0,0,0,,1,,,61,127
35755,note_off,0,0,0,,6,,,54,127
35756,note_on,1,0,0,,12,,,71,127
35756,note_on,0,0,0,,6,,,54,127
35756,note_on,0,0,0,,1,,,61,127
35892,note_off,136,0,0,,12,,,71,127
35893,note_on,1,0,0,,1,,,73,127
36029,note_off,136,0,0,,1,,,73,127
36030,note_on,1,0,0,,1,,,73,127
36166,note_off,136,0,0,,1,,,73,127
36167,note_on,1,0,0,,3,,,75,127
36303,note_off,136,0,0,,3,,,75,127
36303,note_off,0,0,0,,1,,,61,127
36303,note_off,0,0,0,,6,,,54,127
36304,note_on,1,0,0,,3,,,75,127
36304,note_on,0,0,0,,1,,,61,127
36304,note_on,0,0,0,,6,,,54,127
36440,note_off,136,0,0,,3,,,75,127
36441,note_on,1,0,0,,4,,,76,127
36577,note_off,136,0,0,,4,,,76,127
36578,note_on,1,0,0,,4,,,76,127
36714,note_off,136,0,0,,4,,,76,127
36715,note_on,1,0,0,,6,,,78,127
36851,note_off,136,0,0,,6,,,78,127
36851,note_off,0,0,0,,6,,,54,127
36851,note_off,0,0,0,,1,,,61,127
36852,note_on,1,0,0,,6,,,78,127
36852,note_on,0,0,0,,1,,,61,127
36852,note_on,0,0,0,,11,,,58,127
36852,note_on,0,0,0,,4,,,52,127
36988,note_off,136,0,0,,6,,,78,127
36989,note_on,1,0,0,,8,,,80,127
37125,note_off,136,0,0,,8,,,80,127
37126,note_on,1,0,0,,8,,,80,127
37262,note_off,136,0,0,,8,,,80,127
37263,note_on,1,0,0,,11,,,82,127
37399,note_off,136,0,0,,11,,,82,127
37399,note_off,0,0,0,,4,,,52,127
37399,note_off,0,0,0,,11,,,58,127
37399,note_off,0,0,0,,1,,,61,127
37400,note_on,1,0,0,,11,,,82,127
37400,note_on,0,0,0,,1,,,61,127
37400,note_on,0,0,0,,4,,,52,127
37400,note_on,0,0,0,,11,,,58,127
37947,note_off,547,0,0,,11,,,58,127
37947,note_off,0,0,0,,4,,,52,127
37947,note_off,0,0,0,,1,,,61,127
37948,note_on,1,0,0,,1,,,61,127
37948,note_on,0,0,0,,11,,,58,127
37948,note_on,0,0,0,,4,,,52,127
38221,note_off,273,0,0,,11,,,82,127
38222,note_on,1,0,0,,12,,,83,127
38358,note_off,136,0,0,,12,,,83,127
38359,note_on,1,0,0,,8,,,80,127
38495,note_off,136,0,0,,8,,,80,127
38495,note_off,0,0,0,,4,,,52,127
38495,note_off,0,0,0,,11,,,58,127
38495,note_off,0,0,0,,1,,,61,127
38496,note_on,1,0,0,,8,,,80,127
38496,note_on,0,0,0,,6,,,54,127
38496,note_on,0,0,0,,12,,,59,127
38496,note_on,0,0,0,,3,,,51,127
38632,note_off,136,0,0,,8,,,80,127
38633,note_on,1,0,0,,6,,,78,127
38769,note_off,136,0,0,,6,,,78,127
38770,note_on,1,0,0,,12,,,83,127
38906,note_off,136,0,0,,12,,,83,127
38907,note_on,1,0,0,,8,,,80,127
39043,note_off,136,0,0,,8,,,80,127
39043,note_off,0,0,0,,3,,,51,127
39043,note_off,0,0,0,,12,,,59,127
39043,note_off,0,0,0,,6,,,54,127
39044,note_on,1,0,0,,8,,,80,127
39044,note_on,0,0,0,,6,,,54,127
39044,note_on,0,0,0,,12,,,59,127
39044,note_on,0,0,0,,3,,,51,127
39180,note_off,136,0,0,,8,,,80,127
39181,note_on,1,0,0,,6,,,78,127
39234,note_on,53,0,0,,8,,,80,127
39238,note_off,4,0,0,,6,,,78,127
39287,note_on,49,0,0,,6,,,78,127
39291,note_off,4,0,0,,8,,,80,127
39340,note_on,49,0,0,,8,,,80,127
39344,note_off,4,0,0,,6,,,78,127
39393,note_on,49,0,0,,6,,,78,127
39397,note_off,4,0,0,,8,,,80,127
39446,note_on,49,0,0,,8,,,80,127
39450,note_off,4,0,0,,6,,,78,127
39499,note_on,49,0,0,,6,,,78,127
39503,note_off,4,0,0,,8,,,80,127
39592,note_off,89,0,0,,3,,,51,127
39592,note_off,0,0,0,,12,,,59,127
39592,note_off,0,0,0,,6,,,54,127
39593,note_on,1,0,0,,12,,,59,127
39593,note_on,0,0,0,,6,,,54,127
39593,note_on,0,0,0,,3,,,51,127
39864,note_off,271,0,0,,6,,,78,127
39867,note_on,3,0,0,,4,,,76,127
40003,note_off,136,0,0,,4,,,76,127
40004,note_on,1,0,0,,3,,,75,127
40140,note_off,136,0,0,,3,,,75,127
40140,note_off,0,0,0,,3,,,51,127
40140,note_off,0,0,0,,6,,,54,127
40140,note_off,0,0,0,,12,,,59,127
40141,note_on,1,0,0,,3,,,75,127
40141,note_on,0,0,0,,4,,,64,127
40141,note_on,0,0,0,,4,,,52,127
40141,note_on,0,0,0,,12,,,59,127
40277,note_off,136,0,0,,3,,,75,127
40278,note_on,1,0,0,,1,,,73,127
40414,note_off,136,0,0,,1,,,73,127
40415,note_on,1,0,0,,3,,,75,127
40551,note_off,136,0,0,,3,,,75,127
40552,note_on,1,0,0,,4,,,76,127
40688,note_off,136,0,0,,4,,,76,127
40688,note_off,0,0,0,,12,,,59,127
40688,note_off,0,0,0,,4,,,52,127
40688,note_off,0,0,0,,4,,,64,127
40689,note_on,1,0,0,,12,,,71,127
40689,note_on,0,0,0,,12,,,59,127
40689,note_on,0,0,0,,3,,,63,127
40689,note_on,0,0,0,,6,,,54,127
41236,note_off,547,0,0,,6,,,54,127
41236,note_off,0,0,0,,3,,,63,127
41236,note_off,0,0,0,,12,,,59,127
41237,note_on,1,0,0,,6,,,54,127
41237,note_on,0,0,0,,1,,,61,127
41296,note_on,59,0,0,,11,,,70,127
41303,note_off,7,0,0,,12,,,71,127
41363,note_off,60,0,0,,11,,,70,127
41366,note_on,3,0,0,,12,,,71,127
41433,note_off,67,0,0,,12,,,71,127
41436,note_on,3,0,0,,11,,,70,127
41503,note_off,67,0,0,,11,,,70,127
41506,note_on,3,0,0,,12,,,71,127
41573,note_off,67,0,0,,12,,,71,127
41576,note_on,3,0,0,,11,,,70,127
41643,note_off,67,0,0,,11,,,70,127
41646,note_on,3,0,0,,8,,,68,127
41713,note_off,67,0,0,,8,,,68,127
41716,note_on,3,0,0,,11,,,70,127
41783,note_off,67,0,0,,11,,,70,127
41784,note_off,1,0,0,,1,,,61,127
41784,note_off,0,0,0,,6,,,54,127
41785,note_on,1,0,0,,12,,,71,127
41785,note_on,0,0,0,,12,,,59,127
41785,note_on,0,0,0,,8,,,56,127
41921,note_off,136,0,0,,12,,,71,127
41925,note_on,4,0,0,,1,,,73,127
42061,note_off,136,0,0,,1,,,73,127
42065,note_on,4,0,0,,1,,,73,127
42201,note_off,136,0,0,,1,,,73,127
42205,note_on,4,0,0,,3,,,75,127
42332,note_off,127,0,0,,8,,,56,127
42332,note_off,0,0,0,,12,,,59,127
42341,note_off,9,0,0,,3,,,75,127
42345,note_on,4,0,0,,3,,,75,127
42345,note_on,0,0,0,,12,,,59,127
42345,note_on,0,0,0,,8,,,56,127
42481,note_off,136,0,0,,3,,,75,127
42484,note_on,3,0,0,,4,,,76,127
42620,note_off,136,0,0,,4,,,76,127
42623,note_on,3,0,0,,4,,,76,127
42759,note_off,136,0,0,,4,,,76,127
42763,note_on,4,0,0,,6,,,78,127
42893,note_off,130,0,0,,8,,,56,127
42893,note_off,0,0,0,,12,,,59,127
42899,note_off,6,0,0,,6,,,78,127
42903,note_on,4,0,0,,8,,,80,127
42903,note_on,0,0,0,,12,,,59,127
42903,note_on,0,0,0,,4,,,52,127
43039,note_off,136,0,0,,8,,,80,127
43043,note_on,4,0,0,,6,,,78,127
43179,note_off,136,0,0,,6,,,78,127
43183,note_on,4,0,0,,8,,,80,127
43319,note_off,136,0,0,,8,,,80,127
43329,note_on,10,0,0,,12,,,71,127
43439,note_off,110,0,0,,4,,,52,127
43439,note_off,0,0,0,,12,,,59,127
43442,note_off,3,0,0,,12,,,71,127
43463,note_on,21,0,0,,6,,,66,127
43463,note_on,0,0,0,,1,,,73,127
43463,note_on,0,0,0,,6,,,42,127
43736,note_off,273,0,0,,1,,,73,127
43736,note_off,0,0,0,,6,,,66,127
43757,note_on,21,0,0,,6,,,66,127
43757,note_on,0,0,0,,1,,,73,127
43893,note_off,136,0,0,,1,,,73,127
43893,note_off,0,0,0,,6,,,66,127
43894,note_on,1,0,0,,6,,,66,127
43894,note_on,0,0,0,,1,,,73,127
44010,note_off,116,0,0,,6,,,42,127
44030,note_off,20,0,0,,1,,,73,127
44030,note_off,0,0,0,,6,,,66,127
44031,note_on,1,0,0,,6,,,42,127
44031,note_on,0,0,0,,6,,,66,127
44031,note_on,0,0,0,,1,,,73,127
44304,note_off,273,0,0,,1,,,73,127
44304,note_off,0,0,0,,6,,,66,127
44305,note_on,1,0,0,,1,,,73,127
44305,note_on,0,0,0,,6,,,66,127
44578,note_off,273,0,0,,6,,,66,127
44578,note_off,0,0,0,,1,,,73,127
44578,note_off,0,0,0,,6,,,42,127
44579,note_on,1,0,0,,6,,,42,127
44579,note_on,0,0,0,,6,,,66,127
44579,note_on,0,0,0,,12,,,71,127
44579,note_on,0,0,0,,3,,,75,127
44852,note_off,273,0,0,,3,,,75,127
44853,note_on,1,0,0,,6,,,78,127
45126,note_off,273,0,0,,6,,,78,127
45126,note_off,0,0,0,,12,,,71,127
45126,note_off,0,0,0,,6,,,66,127
45126,note_off,0,0,0,,6,,,42,127
45139,note_on,13,0,0,,1,,,73,127
45139,note_on,0,0,0,,6,,,66,127
45139,note_on,0,0,0,,1,,,61,127
45139,note_on,0,0,0,,6,,,54,127
45412,note_off,273,0,0,,6,,,54,127
45412,note_off,0,0,0,,1,,,61,127
45413,note_on,1,0,0,,1,,,61,127
45413,note_on,0,0,0,,6,,,54,127
45549,note_off,136,0,0,,6,,,54,127
45549,note_off,0,0,0,,1,,,61,127
45550,note_on,1,0,0,,1,,,61,127
45550,note_on,0,0,0,,6,,,54,127
45686,note_off,136,0,0,,6,,,54,127
45686,note_off,0,0,0,,1,,,61,127
45686,note_off,0,0,0,,6,,,66,127
45686,note_off,0,0,0,,1,,,73,127
45687,note_on,1,0,0,,11,,,70,127
45687,note_on,0,0,0,,1,,,61,127
45687,note_on,0,0,0,,6,,,54,127
45960,note_off,273,0,0,,6,,,54,127
45960,note_off,0,0,0,,1,,,61,127
45961,note_on,1,0,0,,6,,,54,127
45961,note_on,0,0,0,,1,,,61,127
46234,note_off,273,0,0,,1,,,61,127
46234,note_off,0,0,0,,6,,,54,127
46234,note_off,0,0,0,,11,,,70,127
46235,note_on,1,0,0,,1,,,73,127
46235,note_on,0,0,0,,3,,,63,127
46235,note_on,0,0,0,,6,,,54,127
46302,note_off,67,0,0,,1,,,73,127
46303,note_on,1,0,0,,12,,,71,127
46370,note_off,67,0,0,,12,,,71,127
46371,note_on,1,0,0,,1,,,73,127
46438,note_off,67,0,0,,1,,,73,127
46439,note_on,1,0,0,,12,,,71,127
46506,note_off,67,0,0,,12,,,71,127
46506,note_off,0,0,0,,3,,,63,127
46507,note_on,1,0,0,,1,,,73,127
46507,note_on,0,0,0,,6,,,66,127
46574,note_off,67,0,0,,1,,,73,127
46575,note_on,1,0,0,,12,,,71,127
46642,note_off,67,0,0,,12,,,71,127
46643,note_on,1,0,0,,11,,,70,127
46710,note_off,67,0,0,,11,,,70,127
46711,note_on,1,0,0,,12,,,71,127
46778,note_off,67,0,0,,12,,,71,127
46778,note_off,0,0,0,,6,,,66,127
46778,note_off,0,0,0,,6,,,54,127
46794,note_on,16,0,0,,6,,,66,127
46794,note_on,0,0,0,,1,,,73,127
46794,note_on,0,0,0,,6,,,42,127
47067,note_off,273,0,0,,1,,,73,127
47067,note_off,0,0,0,,6,,,66,127
47068,note_on,1,0,0,,1,,,73,127
47068,note_on,0,0,0,,6,,,66,127
47204,note_off,136,0,0,,6,,,66,127
47204,note_off,0,0,0,,1,,,73,127
47205,note_on,1,0,0,,1,,,73,127
47205,note_on,0,0,0,,6,,,66,127
47341,note_off,136,0,0,,6,,,66,127
47341,note_off,0,0,0,,1,,,73,127
47341,note_off,0,0,0,,6,,,42,127
47342,note_on,1,0,0,,1,,,73,127
47342,note_on,0,0,0,,6,,,66,127
47342,note_on,0,0,0,,6,,,42,127
47615,note_off,273,0,0,,6,,,66,127
47615,note_off,0,0,0,,1,,,73,127
47616,note_on,1,0,0,,6,,,66,127
47616,note_on,0,0,0,,1,,,73,127
47889,note_off,273,0,0,,1,,,73,127
47889,note_off,0,0,0,,6,,,66,127
47889,note_off,0,0,0,,6,,,42,127
47890,note_on,1,0,0,,12,,,71,127
47890,note_on,0,0,0,,6,,,66,127
47890,note_on,0,0,0,,3,,,75,127
47890,note_on,0,0,0,,6,,,42,127
48163,note_off,273,0,0,,3,,,75,127
48164,note_on,1,0,0,,6,,,78,127
48437,note_off,273,0,0,,6,,,78,127
48437,note_off,0,0,0,,6,,,42,127
48437,note_off,0,0,0,,6,,,66,127
48437,note_off,0,0,0,,12,,,71,127
48450,note_on,13,0,0,,6,,,54,127
48450,note_on,0,0,0,,1,,,61,127
48450,note_on,0,0,0,,12,,,71,127
48450,note_on,0,0,0,,1,,,73,127
48586,note_off,136,0,0,,1,,,73,127
48586,note_off,0,0,0,,12,,,71,127
48587,note_on,1,0,0,,11,,,70,127
48723,note_off,136,0,0,,11,,,70,127
48724,note_on,1,0,0,,11,,,70,127
48860,note_off,136,0,0,,11,,,70,127
48861,note_on,1,0,0,,12,,,71,127
48997,note_off,136,0,0,,12,,,71,127
48997,note_off,0,0,0,,1,,,61,127
48997,note_off,0,0,0,,6,,,54,127
48998,note_on,1,0,0,,1,,,61,127
48998,note_on,0,0,0,,6,,,54,127
48998,note_on,0,0,0,,12,,,71,127
49134,note_off,136,0,0,,12,,,71,127
49135,note_on,1,0,0,,1,,,73,127
49271,note_off,136,0,0,,1,,,73,127
49272,note_on,1,0,0,,1,,,73,127
49408,note_off,136,0,0,,1,,,73,127
49409,note_on,1,0,0,,3,,,75,127
49545,note_off,136,0,0,,3,,,75,127
49545,note_off,0,0,0,,6,,,54,127
49545,note_off,0,0,0,,1,,,61,127
49546,note_on,1,0,0,,6,,,54,127
49546,note_on,0,0,0,,1,,,61,127
49546,note_on,0,0,0,,3,,,75,127
49682,note_off,136,0,0,,3,,,75,127
49683,note_on,1,0,0,,4,,,76,127
49819,note_off,136,0,0,,4,,,76,127
49820,note_on,1,0,0,,4,,,76,127
49956,note_off,136,0,0,,4,,,76,127
49957,note_on,1,0,0,,6,,,78,127
50093,note_off,136,0,0,,6,,,78,127
50093,note_off,0,0,0,,1,,,61,127
50093,note_off,0,0,0,,6,,,54,127
50094,note_on,1,0,0,,4,,,52,127
50094,note_on,0,0,0,,1,,,61,127
50094,note_on,0,0,0,,11,,,58,127
50094,note_on,0,0,0,,6,,,78,127
50230,note_off,136,0,0,,6,,,78,127
50231,note_on,1,0,0,,8,,,80,127
50367,note_off,136,0,0,,8,,,80,127
50368,note_on,1,0,0,,8,,,80,127
50504,note_off,136,0,0,,8,,,80,127
50505,note_on,1,0,0,,11,,,82,127
50641,note_off,136,0,0,,11,,,82,127
50641,note_off,0,0,0,,11,,,58,127
50641,note_off,0,0,0,,1,,,61,127
50641,note_off,0,0,0,,4,,,52,127
50642,note_on,1,0,0,,4,,,52,127
50642,note_on,0,0,0,,11,,,58,127
50642,note_on,0,0,0,,1,,,61,127
50642,note_on,0,0,0,,11,,,82,127
51189,note_off,547,0,0,,1,,,61,127
51189,note_off,0,0,0,,11,,,58,127
51189,note_off,0,0,0,,4,,,52,127
51190,note_on,1,0,0,,11,,,58,127
51190,note_on,0,0,0,,4,,,52,127
51190,note_on,0,0,0,,1,,,61,127
51463,note_off,273,0,0,,11,,,82,127
51464,note_on,1,0,0,,12,,,83,127
51600,note_off,136,0,0,,12,,,83,127
51601,note_on,1,0,0,,8,,,80,127
51737,note_off,136,0,0,,8,,,80,127
51737,note_off,0,0,0,,1,,,61,127
51737,note_off,0,0,0,,4,,,52,127
51737,note_off,0,0,0,,11,,,58,127
51738,note_on,1,0,0,,3,,,51,127
51738,note_on,0,0,0,,12,,,59,127
51738,note_on,0,0,0,,6,,,54,127
51738,note_on,0,0,0,,8,,,80,127
51874,note_off,136,0,0,,8,,,80,127
51875,note_on,1,0,0,,6,,,78,127
52011,note_off,136,0,0,,6,,,78,127
52012,note_on,1,0,0,,12,,,83,127
52148,note_off,136,0,0,,12,,,83,127
52149,note_on,1,0,0,,8,,,80,127
52285,note_off,136,0,0,,8,,,80,127
52285,note_off,0,0,0,,6,,,54,127
52285,note_off,0,0,0,,12,,,59,127
52285,note_off,0,0,0,,3,,,51,127
52286,note_on,1,0,0,,12,,,59,127
52286,note_on,0,0,0,,6,,,54,127
52286,note_on,0,0,0,,3,,,51,127
52286,note_on,0,0,0,,8,,,80,127
52422,note_off,136,0,0,,8,,,80,127
52423,note_on,1,0,0,,6,,,78,127
52472,note_on,49,0,0,,8,,,80,127
52481,note_off,9,0,0,,6,,,78,127
52521,note_on,40,0,0,,6,,,78,127
52530,note_off,9,0,0,,8,,,80,127
52570,note_on,40,0,0,,8,,,80,127
52579,note_off,9,0,0,,6,,,78,127
52619,note_on,40,0,0,,6,,,78,127
52628,note_off,9,0,0,,8,,,80,127
52668,note_on,40,0,0,,8,,,80,127
52677,note_off,9,0,0,,6,,,78,127
52717,note_on,40,0,0,,6,,,78,127
52726,note_off,9,0,0,,8,,,80,127
52766,note_on,40,0,0,,8,,,80,127
52775,note_off,9,0,0,,6,,,78,127
52815,note_on,40,0,0,,6,,,78,127
52824,note_off,9,0,0,,8,,,80,127
52837,note_off,13,0,0,,3,,,51,127
52837,note_off,0,0,0,,6,,,54,127
52837,note_off,0,0,0,,12,,,59,127
52838,note_on,1,0,0,,6,,,54,127
52838,note_on,0,0,0,,3,,,51,127
52838,note_on,0,0,0,,12,,,59,127
53112,note_on,274,0,0,,4,,,76,127
53116,note_off,4,0,0,,6,,,78,127
53247,note_off,131,0,0,,4,,,76,127
53248,note_on,1,0,0,,3,,,75,127
53384,note_off,136,0,0,,3,,,75,127
53384,note_off,0,0,0,,12,,,59,127
53384,note_off,0,0,0,,3,,,51,127
53384,note_off,0,0,0,,6,,,54,127
53385,note_on,1,0,0,,4,,,52,127
53385,note_on,0,0,0,,4,,,64,127
53385,note_on,0,0,0,,12,,,59,127
53385,note_on,0,0,0,,3,,,75,127
53521,note_off,136,0,0,,3,,,75,127
53522,note_on,1,0,0,,1,,,73,127
53658,note_off,136,0,0,,1,,,73,127
53659,note_on,1,0,0,,3,,,75,127
53795,note_off,136,0,0,,3,,,75,127
53796,note_on,1,0,0,,4,,,76,127
53932,note_off,136,0,0,,4,,,76,127
53932,note_off,0,0,0,,12,,,59,127
53932,note_off,0,0,0,,4,,,64,127
53932,note_off,0,0,0,,4,,,52,127
53933,note_on,1,0,0,,12,,,59,127
53933,note_on,0,0,0,,6,,,54,127
53933,note_on,0,0,0,,3,,,63,127
53933,note_on,0,0,0,,12,,,71,127
54480,note_off,547,0,0,,12,,,71,127
54480,note_off,0,0,0,,3,,,63,127
54480,note_off,0,0,0,,6,,,54,127
54480,note_off,0,0,0,,12,,,59,127
54481,note_on,1,0,0,,6,,,54,127
54481,note_on,0,0,0,,1,,,61,127
54481,note_on,0,0,0,,12,,,71,127
54548,note_off,67,0,0,,12,,,71,127
54549,note_on,1,0,0,,11,,,70,127
54616,note_off,67,0,0,,11,,,70,127
54617,note_on,1,0,0,,12,,,71,127
54684,note_off,67,0,0,,12,,,71,127
54685,note_on,1,0,0,,11,,,70,127
54752,note_off,67,0,0,,11,,,70,127
54753,note_on,1,0,0,,12,,,71,127
54820,note_off,67,0,0,,12,,,71,127
54821,note_on,1,0,0,,11,,,70,127
54888,note_off,67,0,0,,11,,,70,127
54889,note_on,1,0,0,,8,,,68,127
54956,note_off,67,0,0,,8,,,68,127
54957,note_on,1,0,0,,11,,,70,127
55024,note_off,67,0,0,,11,,,70,127
55024,note_off,0,0,0,,1,,,61,127
55024,note_off,0,0,0,,6,,,54,127
55025,note_on,1,0,0,,12,,,47,127
55025,note_on,0,0,0,,12,,,71,127
55298,note_off,273,0,0,,12,,,71,127
55305,note_on,7,0,0,,12,,,71,127
55305,note_on,0,0,0,,3,,,75,127
55441,note_off,136,0,0,,3,,,75,127
55441,note_off,0,0,0,,12,,,71,127
55442,note_on,1,0,0,,12,,,71,127
55442,note_on,0,0,0,,3,,,75,127
55572,note_off,130,0,0,,12,,,47,127
55578,note_off,6,0,0,,3,,,75,127
55578,note_off,0,0,0,,12,,,71,127
55579,note_on,1,0,0,,12,,,71,127
55579,note_on,0,0,0,,3,,,75,127
55579,note_on,0,0,0,,12,,,47,127
55852,note_off,273,0,0,,3,,,75,127
55852,note_off,0,0,0,,12,,,71,127
55853,note_on,1,0,0,,6,,,78,127
55853,note_on,0,0,0,,3,,,75,127
56126,note_off,273,0,0,,3,,,75,127
56126,note_off,0,0,0,,6,,,78,127
56126,note_off,0,0,0,,12,,,47,127
56127,note_on,1,0,0,,4,,,76,127
56127,note_on,0,0,0,,1,,,73,127
56127,note_on,0,0,0,,6,,,42,127
56400,note_off,273,0,0,,1,,,73,127
56400,note_off,0,0,0,,4,,,76,127
56401,note_on,1,0,0,,1,,,73,127
56401,note_on,0,0,0,,6,,,66,127
56674,note_off,273,0,0,,6,,,66,127
56674,note_off,0,0,0,,1,,,73,127
56674,note_off,0,0,0,,6,,,42,127
56675,note_on,1,0,0,,3,,,75,127
56675,note_on,0,0,0,,12,,,71,127
56675,note_on,0,0,0,,12,,,47,127
56948,note_off,273,0,0,,12,,,71,127
56948,note_off,0,0,0,,3,,,75,127
56949,note_on,1,0,0,,12,,,71,127
56949,note_on,0,0,0,,3,,,75,127
57085,note_off,136,0,0,,3,,,75,127
57085,note_off,0,0,0,,12,,,71,127
57086,note_on,1,0,0,,3,,,75,127
57086,note_on,0,0,0,,12,,,71,127
57222,note_off,136,0,0,,12,,,71,127
57222,note_off,0,0,0,,3,,,75,127
57222,note_off,0,0,0,,12,,,47,127
57223,note_on,1,0,0,,12,,,71,127
57223,note_on,0,0,0,,3,,,75,127
57223,note_on,0,0,0,,12,,,47,127
57496,note_off,273,0,0,,3,,,75,127
57496,note_off,0,0,0,,12,,,71,127
57497,note_on,1,0,0,,6,,,78,127
57497,note_on,0,0,0,,3,,,75,127
57770,note_off,273,0,0,,3,,,75,127
57770,note_off,0,0,0,,6,,,78,127
57770,note_off,0,0,0,,12,,,47,127
57771,note_on,1,0,0,,1,,,73,127
57771,note_on,0,0,0,,4,,,76,127
57771,note_on,0,0,0,,6,,,42,127
58044,note_off,273,0,0,,4,,,76,127
58044,note_off,0,0,0,,1,,,73,127
58045,note_on,1,0,0,,1,,,73,127
58045,note_on,0,0,0,,6,,,66,127
58318,note_off,273,0,0,,6,,,66,127
58318,note_off,0,0,0,,1,,,73,127
58318,note_off,0,0,0,,6,,,42,127
58319,note_on,1,0,0,,3,,,75,127
58319,note_on,0,0,0,,12,,,71,127
58319,note_on,0,0,0,,12,,,47,127
58592,note_off,273,0,0,,3,,,75,127
58619,note_on,27,0,0,,12,,,83,127
58755,note_off,136,0,0,,12,,,83,127
58756,note_on,1,0,0,,12,,,83,127
58866,note_off,110,0,0,,12,,,47,127
58892,note_off,26,0,0,,12,,,83,127
58893,note_on,1,0,0,,12,,,83,127
58893,note_on,0,0,0,,12,,,59,127
59029,note_off,136,0,0,,12,,,83,127
59030,note_on,1,0,0,,6,,,78,127
59166,note_off,136,0,0,,6,,,78,127
59167,note_on,1,0,0,,12,,,83,127
59303,note_off,136,0,0,,12,,,83,127
59304,note_on,1,0,0,,12,,,83,127
59440,note_off,136,0,0,,12,,,83,127
59440,note_off,0,0,0,,12,,,59,127
59441,note_on,1,0,0,,12,,,83,127
59441,note_on,0,0,0,,12,,,59,127
59441,note_on,0,0,0,,3,,,51,127
59577,note_off,136,0,0,,12,,,83,127
59578,note_on,1,0,0,,6,,,78,127
59714,note_off,136,0,0,,6,,,78,127
59715,note_on,1,0,0,,12,,,83,127
59851,note_off,136,0,0,,12,,,83,127
59852,note_on,1,0,0,,12,,,83,127
59961,note_off,109,0,0,,12,,,71,127
59988,note_off,27,0,0,,12,,,83,127
59988,note_off,0,0,0,,3,,,51,127
59988,note_off,0,0,0,,12,,,59,127
59989,note_on,1,0,0,,12,,,83,127
59989,note_on,0,0,0,,12,,,59,127
59989,note_on,0,0,0,,4,,,64,127
59989,note_on,0,0,0,,4,,,52,127
60125,note_off,136,0,0,,12,,,83,127
60126,note_on,1,0,0,,8,,,80,127
60262,note_off,136,0,0,,8,,,80,127
60263,note_on,1,0,0,,6,,,78,127
60399,note_off,136,0,0,,6,,,78,127
60400,note_on,1,0,0,,4,,,76,127
60536,note_off,136,0,0,,4,,,76,127
60536,note_off,0,0,0,,4,,,52,127
60536,note_off,0,0,0,,4,,,64,127
60536,note_off,0,0,0,,12,,,59,127
60537,note_on,1,0,0,,4,,,76,127
60537,note_on,0,0,0,,12,,,59,127
60537,note_on,0,0,0,,3,,,63,127
60537,note_on,0,0,0,,6,,,54,127
60673,note_off,136,0,0,,4,,,76,127
60674,note_on,1,0,0,,3,,,75,127
60810,note_off,136,0,0,,3,,,75,127
60811,note_on,1,0,0,,1,,,73,127
60947,note_off,136,0,0,,1,,,73,127
60948,note_on,1,0,0,,12,,,71,127
61084,note_off,136,0,0,,12,,,71,127
61084,note_off,0,0,0,,6,,,54,127
61084,note_off,0,0,0,,3,,,63,127
61084,note_off,0,0,0,,12,,,59,127
61085,note_on,1,0,0,,3,,,75,127
61085,note_on,0,0,0,,6,,,54,127
61085,note_on,0,0,0,,1,,,61,127
61152,note_off,67,0,0,,3,,,75,127
61153,note_on,1,0,0,,1,,,73,127
61220,note_off,67,0,0,,1,,,73,127
61221,note_on,1,0,0,,3,,,75,127
61288,note_off,67,0,0,,3,,,75,127
61289,note_on,1,0,0,,1,,,73,127
61356,note_off,67,0,0,,1,,,73,127
61357,note_on,1,0,0,,3,,,75,127
61424,note_off,67,0,0,,3,,,75,127
61427,note_on,3,0,0,,1,,,73,127
61494,note_off,67,0,0,,1,,,73,127
61497,note_on,3,0,0,,12,,,71,127
61570,note_off,73,0,0,,12,,,71,127
61571,note_on,1,0,0,,1,,,73,127
61630,note_off,59,0,0,,1,,,61,127
61639,note_off,9,0,0,,6,,,54,127
61650,note_on,11,0,0,,12,,,59,127
61650,note_on,0,0,0,,12,,,71,127
61653,note_off,3,0,0,,1,,,73,127
61959,note_on,306,0,0,,12,,,83,127
62096,note_off,137,0,0,,12,,,83,127
62100,note_on,4,0,0,,12,,,83,127
62207,note_off,107,0,0,,12,,,59,127
62233,note_off,26,0,0,,12,,,83,127
62233,note_on,0,0,0,,12,,,83,127
62233,note_on,0,0,0,,12,,,47,127
62370,note_off,137,0,0,,12,,,83,127
62374,note_on,4,0,0,,6,,,78,127
62511,note_off,137,0,0,,6,,,78,127
62514,note_on,3,0,0,,12,,,83,127
62651,note_off,137,0,0,,12,,,83,127
62655,note_on,4,0,0,,12,,,83,127
62789,note_off,134,0,0,,12,,,47,127
62792,note_off,3,0,0,,12,,,83,127
62796,note_on,4,0,0,,12,,,83,127
62796,note_on,0,0,0,,3,,,51,127
62933,note_off,137,0,0,,12,,,83,127
62937,note_on,4,0,0,,6,,,78,127
63074,note_off,137,0,0,,6,,,78,127
63078,note_on,4,0,0,,12,,,83,127
63215,note_off,137,0,0,,12,,,83,127
63219,note_on,4,0,0,,12,,,83,127
63323,note_off,104,0,0,,12,,,71,127
63352,note_off,29,0,0,,3,,,51,127
63356,note_off,4,0,0,,12,,,83,127
63360,note_on,4,0,0,,12,,,83,127
63360,note_on,0,0,0,,4,,,52,127
63497,note_off,137,0,0,,12,,,83,127
63501,note_on,4,0,0,,8,,,80,127
63638,note_off,137,0,0,,8,,,80,127
63642,note_on,4,0,0,,6,,,78,127
63779,note_off,137,0,0,,6,,,78,127
63782,note_on,3,0,0,,4,,,76,127
63916,note_off,134,0,0,,4,,,52,127
63919,note_off,3,0,0,,4,,,76,127
63923,note_on,4,0,0,,4,,,76,127
63923,note_on,0,0,0,,6,,,54,127
64060,note_off,137,0,0,,4,,,76,127
64064,note_on,4,0,0,,3,,,75,127
64201,note_off,137,0,0,,3,,,75,127
64205,note_on,4,0,0,,1,,,73,127
64342,note_off,137,0,0,,1,,,73,127
64346,note_on,4,0,0,,12,,,71,127
64479,note_off,133,0,0,,6,,,54,127
64483,note_off,4,0,0,,12,,,71,127
64487,note_on,4,0,0,,3,,,75,127
64487,note_on,0,0,0,,6,,,42,127
64554,note_off,67,0,0,,3,,,75,127
64557,note_on,3,0,0,,1,,,73,127
64624,note_off,67,0,0,,1,,,73,127
64628,note_on,4,0,0,,3,,,75,127
64695,note_off,67,0,0,,3,,,75,127
64698,note_on,3,0,0,,1,,,73,127
64765,note_off,67,0,0,,1,,,73,127
64769,note_on,4,0,0,,3,,,75,127
64836,note_off,67,0,0,,3,,,75,127
64839,note_on,3,0,0,,1,,,73,127
64906,note_off,67,0,0,,1,,,73,127
64909,note_on,3,0,0,,12,,,71,127
64976,note_off,67,0,0,,12,,,71,127
64986,note_on,10,0,0,,1,,,73,127
65066,note_off,80,0,0,,6,,,42,127
65080,note_off,14,0,0,,1,,,73,127
65100,note_on,20,0,0,,12,,,47,127
65100,note_on,0,0,0,,12,,,35,127
65101,note_on,1,0,0,,12,,,71,127
66902,note_off,1801,0,0,,12,,,71,127
67013,note_off,111,0,0,,12,,,47,127
67027,note_off,14,0,0,,12,,,35,127
67208,note_on,181,0,0,,12,,,71,127
67208,note_on,0,0,0,,12,,,59,127
67482,note_on,274,0,0,,6,,,66,127
67618,note_off,136,0,0,,6,,,66,127
67619,note_on,1,0,0,,6,,,66,127
67755,note_off,136,0,0,,6,,,66,127
67756,note_on,1,0,0,,6,,,66,127
67756,note_on,0,0,0,,3,,,63,127
68029,note_off,273,0,0,,6,,,66,127
68030,note_on,1,0,0,,6,,,66,127
68303,note_off,273,0,0,,6,,,66,127
68303,note_off,0,0,0,,3,,,63,127
68303,note_off,0,0,0,,12,,,59,127
68304,note_on,1,0,0,,8,,,68,127
68304,note_on,0,0,0,,4,,,64,127
68304,note_on,0,0,0,,12,,,59,127
68577,note_off,273,0,0,,12,,,71,127
68578,note_on,1,0,0,,4,,,76,127
68851,note_off,273,0,0,,12,,,59,127
68851,note_off,0,0,0,,4,,,64,127
68851,note_off,0,0,0,,8,,,68,127
68852,note_on,1,0,0,,10,,,69,127
68852,note_on,0,0,0,,12,,,59,127
68852,note_on,0,0,0,,6,,,66,127
68989,note_off,137,0,0,,4,,,76,127
69126,note_on,137,0,0,,3,,,75,127
69262,note_off,136,0,0,,3,,,75,127
69263,note_on,1,0,0,,3,,,75,127
69399,note_off,136,0,0,,3,,,75,127
69399,note_off,0,0,0,,12,,,59,127
69400,note_on,1,0,0,,3,,,75,127
69400,note_on,0,0,0,,12,,,59,127
69673,note_off,273,0,0,,3,,,75,127
69674,note_on,1,0,0,,6,,,78,127
69947,note_off,273,0,0,,12,,,59,127
69947,note_off,0,0,0,,6,,,66,127
69947,note_off,0,0,0,,10,,,69,127
69948,note_on,1,0,0,,12,,,71,127
69948,note_on,0,0,0,,12,,,59,127
69948,note_on,0,0,0,,8,,,68,127
70221,note_off,273,0,0,,6,,,78,127
70222,note_on,1,0,0,,4,,,76,127
70495,note_off,273,0,0,,4,,,76,127
70495,note_off,0,0,0,,8,,,68,127
70495,note_off,0,0,0,,12,,,59,127
70495,note_off,0,0,0,,12,,,71,127
70496,note_on,1,0,0,,10,,,69,127
70496,note_on,0,0,0,,12,,,59,127
70496,note_on,0,0,0,,6,,,66,127
70770,note_on,274,0,0,,10,,,81,127
70906,note_off,136,0,0,,10,,,81,127
70907,note_on,1,0,0,,10,,,81,127
71043,note_off,136,0,0,,6,,,66,127
71043,note_off,0,0,0,,12,,,59,127
71043,note_off,0,0,0,,10,,,69,127
71044,note_on,1,0,0,,3,,,75,127
71044,note_on,0,0,0,,12,,,59,127
71044,note_on,0,0,0,,6,,,66,127
71178,note_off,134,0,0,,10,,,81,127
71318,note_on,140,0,0,,10,,,81,127
71591,note_off,273,0,0,,6,,,66,127
71591,note_off,0,0,0,,12,,,59,127
71591,note_off,0,0,0,,3,,,75,127
71592,note_on,1,0,0,,8,,,68,127
71592,note_on,0,0,0,,12,,,71,127
71592,note_on,0,0,0,,12,,,59,127
71592,note_on,0,0,0,,4,,,64,127
71865,note_off,273,0,0,,10,,,81,127
71866,note_on,1,0,0,,8,,,80,127
72139,note_off,273,0,0,,4,,,64,127
72139,note_off,0,0,0,,12,,,59,127
72139,note_off,0,0,0,,12,,,71,127
72139,note_off,0,0,0,,8,,,68,127
72140,note_on,1,0,0,,12,,,59,127
72140,note_on,0,0,0,,6,,,66,127
72377,note_off,237,0,0,,8,,,80,127
72414,note_on,37,0,0,,6,,,78,127
72550,note_off,136,0,0,,6,,,78,127
72551,note_on,1,0,0,,4,,,76,127
72687,note_off,136,0,0,,4,,,76,127
72687,note_off,0,0,0,,6,,,66,127
72687,note_off,0,0,0,,12,,,59,127
72688,note_on,1,0,0,,6,,,78,127
72688,note_on,0,0,0,,12,,,59,127
72688,note_on,0,0,0,,6,,,66,127
72961,note_off,273,0,0,,6,,,78,127
72962,note_on,1,0,0,,3,,,75,127
73235,note_off,273,0,0,,3,,,75,127
73235,note_off,0,0,0,,6,,,66,127
73235,note_off,0,0,0,,12,,,59,127
73236,note_on,1,0,0,,6,,,78,127
73236,note_on,0,0,0,,12,,,59,127
73236,note_on,0,0,0,,6,,,66,127
73509,note_off,273,0,0,,6,,,78,127
73510,note_on,1,0,0,,3,,,75,127
73783,note_off,273,0,0,,3,,,75,127
73783,note_off,0,0,0,,6,,,66,127
73783,note_off,0,0,0,,12,,,59,127
73784,note_on,1,0,0,,10,,,81,127
73784,note_on,0,0,0,,3,,,63,127
73784,note_on,0,0,0,,6,,,66,127
73784,note_on,0,0,0,,10,,,57,127
74057,note_off,273,0,0,,10,,,81,127
74058,note_on,1,0,0,,6,,,78,127
74331,note_off,273,0,0,,6,,,78,127
74331,note_off,0,0,0,,10,,,57,127
74331,note_off,0,0,0,,6,,,66,127
74331,note_off,0,0,0,,3,,,63,127
74332,note_on,1,0,0,,3,,,75,127
74332,note_on,0,0,0,,3,,,63,127
74332,note_on,0,0,0,,6,,,66,127
74332,note_on,0,0,0,,1,,,61,127
74332,note_on,0,0,0,,10,,,57,127
74605,note_off,273,0,0,,3,,,75,127
74606,note_on,1,0,0,,0,,,72,127
74879,note_off,273,0,0,,0,,,72,127
74879,note_off,0,0,0,,10,,,57,127
74879,note_off,0,0,0,,1,,,61,127
74879,note_off,0,0,0,,6,,,66,127
74879,note_off,0,0,0,,3,,,63,127
74880,note_on,1,0,0,,3,,,75,127
74880,note_on,0,0,0,,1,,,61,127
74880,note_on,0,0,0,,3,,,63,127
74880,note_on,0,0,0,,10,,,57,127
74880,note_on,0,0,0,,6,,,66,127
75016,note_off,136,0,0,,3,,,75,127
75017,note_on,1,0,0,,1,,,73,127
75153,note_off,136,0,0,,1,,,73,127
75154,note_on,1,0,0,,0,,,72,127
75290,note_off,136,0,0,,0,,,72,127
75291,note_on,1,0,0,,1,,,73,127
75427,note_off,136,0,0,,1,,,73,127
75427,note_off,0,0,0,,6,,,66,127
75427,note_off,0,0,0,,10,,,57,127
75427,note_off,0,0,0,,3,,,63,127
75427,note_off,0,0,0,,1,,,61,127
75448,note_on,21,0,0,,8,,,44,127
75448,note_on,0,0,0,,8,,,56,127
75448,note_on,0,0,0,,3,,,75,127
75448,note_on,0,0,0,,8,,,68,127
75714,note_off,266,0,0,,8,,,68,127
75714,note_off,0,0,0,,3,,,75,127
75733,note_on,19,0,0,,3,,,75,127
75733,note_on,0,0,0,,8,,,68,127
75862,note_off,129,0,0,,8,,,68,127
75862,note_off,0,0,0,,3,,,75,127
75875,note_on,13,0,0,,8,,,68,127
75875,note_on,0,0,0,,3,,,75,127
75995,note_off,120,0,0,,8,,,56,127
75995,note_off,0,0,0,,8,,,44,127
76004,note_off,9,0,0,,3,,,75,127
76004,note_off,0,0,0,,8,,,68,127
76004,note_on,0,0,0,,8,,,68,127
76004,note_on,0,0,0,,3,,,75,127
76004,note_on,0,0,0,,8,,,56,127
76004,note_on,0,0,0,,8,,,44,127
76277,note_off,273,0,0,,3,,,75,127
76277,note_off,0,0,0,,8,,,68,127
76278,note_on,1,0,0,,8,,,68,127
76278,note_on,0,0,0,,3,,,75,127
76551,note_off,273,0,0,,3,,,75,127
76551,note_off,0,0,0,,8,,,68,127
76551,note_off,0,0,0,,8,,,44,127
76551,note_off,0,0,0,,8,,,56,127
76552,note_on,1,0,0,,4,,,76,127
76552,note_on,0,0,0,,8,,,68,127
76552,note_on,0,0,0,,1,,,73,127
76552,note_on,0,0,0,,8,,,56,127
76552,note_on,0,0,0,,8,,,44,127
76825,note_off,273,0,0,,4,,,76,127
76826,note_on,1,0,0,,8,,,80,127
77099,note_off,273,0,0,,8,,,80,127
77099,note_off,0,0,0,,8,,,44,127
77099,note_off,0,0,0,,8,,,56,127
77099,note_off,0,0,0,,1,,,73,127
77099,note_off,0,0,0,,8,,,68,127
77109,note_on,10,0,0,,3,,,75,127
77109,note_on,0,0,0,,8,,,56,127
77109,note_on,0,0,0,,3,,,63,127
77382,note_off,273,0,0,,3,,,63,127
77382,note_off,0,0,0,,8,,,56,127
77395,note_on,13,0,0,,3,,,63,127
77395,note_on,0,0,0,,8,,,56,127
77531,note_off,136,0,0,,8,,,56,127
77531,note_off,0,0,0,,3,,,63,127
77532,note_on,1,0,0,,8,,,56,127
77532,note_on,0,0,0,,3,,,63,127
77656,note_off,124,0,0,,3,,,75,127
77667,note_off,11,0,0,,3,,,63,127
77667,note_off,0,0,0,,8,,,56,127
77668,note_on,1,0,0,,0,,,72,127
77668,note_on,0,0,0,,3,,,63,127
77668,note_on,0,0,0,,8,,,56,127
77941,note_off,273,0,0,,8,,,56,127
77941,note_off,0,0,0,,3,,,63,127
77942,note_on,1,0,0,,8,,,56,127
77942,note_on,0,0,0,,3,,,63,127
78215,note_off,273,0,0,,3,,,63,127
78215,note_off,0,0,0,,8,,,56,127
78215,note_off,0,0,0,,0,,,72,127
78216,note_on,1,0,0,,3,,,75,127
78216,note_on,0,0,0,,4,,,64,127
78216,note_on,0,0,0,,8,,,56,127
78283,note_off,67,0,0,,3,,,75,127
78284,note_on,1,0,0,,1,,,73,127
78351,note_off,67,0,0,,1,,,73,127
78352,note_on,1,0,0,,3,,,75,127
78419,note_off,67,0,0,,3,,,75,127
78420,note_on,1,0,0,,1,,,73,127
78487,note_off,67,0,0,,1,,,73,127
78487,note_off,0,0,0,,4,,,64,127
78488,note_on,1,0,0,,3,,,75,127
78488,note_on,0,0,0,,8,,,68,127
78555,note_off,67,0,0,,3,,,75,127
78556,note_on,1,0,0,,1,,,73,127
78623,note_off,67,0,0,,1,,,73,127
78624,note_on,1,0,0,,0,,,72,127
78691,note_off,67,0,0,,0,,,72,127
78692,note_on,1,0,0,,1,,,73,127
78759,note_off,67,0,0,,1,,,73,127
78759,note_off,0,0,0,,8,,,68,127
78759,note_off,0,0,0,,8,,,56,127
78776,note_on,17,0,0,,8,,,56,127
78776,note_on,0,0,0,,8,,,44,127
78776,note_on,0,0,0,,8,,,68,127
78776,note_on,0,0,0,,3,,,75,127
79049,note_off,273,0,0,,3,,,75,127
79049,note_off,0,0,0,,8,,,68,127
79069,note_on,20,0,0,,8,,,68,127
79069,note_on,0,0,0,,3,,,75,127
79205,note_off,136,0,0,,3,,,75,127
79205,note_off,0,0,0,,8,,,68,127
79206,note_on,1,0,0,,8,,,68,127
79206,note_on,0,0,0,,3,,,75,127
79323,note_off,117,0,0,,8,,,44,127
79323,note_off,0,0,0,,8,,,56,127
79342,note_off,19,0,0,,3,,,75,127
79342,note_off,0,0,0,,8,,,68,127
79343,note_on,1,0,0,,8,,,44,127
79343,note_on,0,0,0,,8,,,56,127
79343,note_on,0,0,0,,3,,,75,127
79343,note_on,0,0,0,,8,,,68,127
79616,note_off,273,0,0,,8,,,68,127
79616,note_off,0,0,0,,3,,,75,127
79617,note_on,1,0,0,,8,,,68,127
79617,note_on,0,0,0,,3,,,75,127
79890,note_off,273,0,0,,3,,,75,127
79890,note_off,0,0,0,,8,,,68,127
79890,note_off,0,0,0,,8,,,56,127
79890,note_off,0,0,0,,8,,,44,127
79891,note_on,1,0,0,,8,,,44,127
79891,note_on,0,0,0,,8,,,56,127
79891,note_on,0,0,0,,8,,,68,127
79891,note_on,0,0,0,,4,,,76,127
79891,note_on,0,0,0,,1,,,73,127
80164,note_off,273,0,0,,4,,,76,127
80177,note_on,13,0,0,,8,,,80,127
80438,note_off,261,0,0,,1,,,73,127
80438,note_off,0,0,0,,8,,,56,127
80438,note_off,0,0,0,,8,,,44,127
80479,note_on,41,0,0,,3,,,63,127
80479,note_on,0,0,0,,8,,,56,127
80480,note_on,1,0,0,,3,,,75,127
80484,note_off,4,0,0,,8,,,68,127
80505,note_off,21,0,0,,8,,,80,127
80751,note_off,246,0,0,,3,,,75,127
80758,note_on,7,0,0,,0,,,72,127
81025,note_off,267,0,0,,8,,,56,127
81025,note_off,0,0,0,,3,,,63,127
81031,note_off,6,0,0,,0,,,72,127
81032,note_on,1,0,0,,3,,,75,127
81032,note_on,0,0,0,,3,,,63,127
81032,note_on,0,0,0,,8,,,56,127
81305,note_off,273,0,0,,3,,,75,127
81306,note_on,1,0,0,,0,,,72,127
81579,note_off,273,0,0,,0,,,72,127
81579,note_off,0,0,0,,8,,,56,127
81579,note_off,0,0,0,,3,,,63,127
81580,note_on,1,0,0,,3,,,75,127
81580,note_on,0,0,0,,8,,,56,127
81580,note_on,0,0,0,,3,,,63,127
81853,note_off,273,0,0,,3,,,75,127
81854,note_on,1,0,0,,1,,,73,127
81990,note_off,136,0,0,,1,,,73,127
81997,note_on,7,0,0,,0,,,72,127
82127,note_off,130,0,0,,3,,,63,127
82127,note_off,0,0,0,,8,,,56,127
82133,note_off,6,0,0,,0,,,72,127
82140,note_on,7,0,0,,3,,,63,127
82140,note_on,0,0,0,,6,,,54,127
82140,note_on,0,0,0,,10,,,81,127
82140,note_on,0,0,0,,0,,,72,127
82413,note_off,273,0,0,,10,,,81,127
82423,note_on,10,0,0,,10,,,81,127
82559,note_off,136,0,0,,10,,,81,127
82560,note_on,1,0,0,,10,,,81,127
82687,note_off,127,0,0,,0,,,72,127
82687,note_off,0,0,0,,6,,,54,127
82687,note_off,0,0,0,,3,,,63,127
82696,note_off,9,0,0,,10,,,81,127
82697,note_on,1,0,0,,6,,,54,127
82697,note_on,0,0,0,,3,,,63,127
82697,note_on,0,0,0,,10,,,81,127
82697,note_on,0,0,0,,0,,,72,127
82970,note_off,273,0,0,,10,,,81,127
82971,note_on,1,0,0,,10,,,81,127
83244,note_off,273,0,0,,10,,,81,127
83244,note_off,0,0,0,,0,,,72,127
83244,note_off,0,0,0,,3,,,63,127
83244,note_off,0,0,0,,6,,,54,127
83245,note_on,1,0,0,,6,,,54,127
83245,note_on,0,0,0,,3,,,63,127
83245,note_on,0,0,0,,0,,,84,127
83245,note_on,0,0,0,,0,,,72,127
83518,note_off,273,0,0,,0,,,84,127
83519,note_on,1,0,0,,0,,,84,127
83656,note_off,137,0,0,,0,,,72,127
83792,note_off,136,0,0,,0,,,84,127
83792,note_off,0,0,0,,3,,,63,127
83792,note_off,0,0,0,,6,,,54,127
83793,note_on,1,0,0,,1,,,61,127
83793,note_on,0,0,0,,4,,,52,127
83793,note_on,0,0,0,,4,,,64,127
83793,note_on,0,0,0,,1,,,85,127
84050,note_off,257,0,0,,1,,,85,127
84067,note_on,17,0,0,,8,,,80,127
84340,note_off,273,0,0,,4,,,64,127
84340,note_off,0,0,0,,4,,,52,127
84340,note_off,0,0,0,,1,,,61,127
84341,note_on,1,0,0,,4,,,52,127
84341,note_on,0,0,0,,1,,,61,127
84341,note_on,0,0,0,,4,,,64,127
84595,note_off,254,0,0,,8,,,80,127
84615,note_on,20,0,0,,4,,,76,127
84888,note_off,273,0,0,,4,,,64,127
84888,note_off,0,0,0,,1,,,61,127
84888,note_off,0,0,0,,4,,,52,127
84889,note_on,1,0,0,,10,,,57,127
84889,note_on,0,0,0,,4,,,64,127
85158,note_off,269,0,0,,4,,,76,127
85164,note_on,6,0,0,,1,,,73,127
85437,note_off,273,0,0,,1,,,73,127
85437,note_off,0,0,0,,4,,,64,127
85437,note_off,0,0,0,,10,,,57,127
85447,note_on,10,0,0,,3,,,75,127
85447,note_on,0,0,0,,6,,,66,127
85447,note_on,0,0,0,,6,,,54,127
85720,note_off,273,0,0,,3,,,75,127
85721,note_on,1,0,0,,4,,,76,127
85857,note_off,136,0,0,,4,,,76,127
85858,note_on,1,0,0,,6,,,78,127
85994,note_off,136,0,0,,6,,,78,127
85994,note_off,0,0,0,,6,,,54,127
85994,note_off,0,0,0,,6,,,66,127
85995,note_on,1,0,0,,4,,,64,127
85995,note_on,0,0,0,,8,,,56,127
85995,note_on,0,0,0,,4,,,76,127
86268,note_off,273,0,0,,4,,,76,127
86269,note_on,1,0,0,,2,,,74,127
86405,note_off,136,0,0,,2,,,74,127
86406,note_on,1,0,0,,1,,,73,127
86542,note_off,136,0,0,,1,,,73,127
86542,note_off,0,0,0,,8,,,56,127
86542,note_off,0,0,0,,4,,,64,127
86543,note_on,1,0,0,,6,,,54,127
86543,note_on,0,0,0,,2,,,62,127
86543,note_on,0,0,0,,2,,,74,127
86543,note_on,0,0,0,,12,,,83,127
86816,note_off,273,0,0,,2,,,74,127
86817,note_on,1,0,0,,1,,,73,127
86953,note_off,136,0,0,,1,,,73,127
86954,note_on,1,0,0,,2,,,74,127
87090,note_off,136,0,0,,2,,,74,127
87090,note_off,0,0,0,,2,,,62,127
87090,note_off,0,0,0,,6,,,54,127
87091,note_on,1,0,0,,5,,,53,127
87091,note_on,0,0,0,,1,,,61,127
87091,note_on,0,0,0,,1,,,73,127
87364,note_off,273,0,0,,12,,,83,127
87365,note_on,1,0,0,,2,,,86,127
87501,note_off,136,0,0,,2,,,86,127
87502,note_on,1,0,0,,1,,,85,127
87638,note_off,136,0,0,,1,,,85,127
87638,note_off,0,0,0,,1,,,61,127
87638,note_off,0,0,0,,5,,,53,127
87639,note_on,1,0,0,,1,,,85,127
87639,note_on,0,0,0,,1,,,61,127
87639,note_on,0,0,0,,5,,,53,127
87639,note_on,0,0,0,,12,,,83,127
87768,note_off,129,0,0,,1,,,85,127
87912,note_off,144,0,0,,12,,,83,127
87913,note_on,1,0,0,,10,,,81,127
88049,note_off,136,0,0,,10,,,81,127
88050,note_on,1,0,0,,8,,,80,127
88186,note_off,136,0,0,,8,,,80,127
88186,note_off,0,0,0,,5,,,53,127
88186,note_off,0,0,0,,1,,,61,127
88186,note_off,0,0,0,,1,,,73,127
88187,note_on,1,0,0,,6,,,54,127
88187,note_on,0,0,0,,1,,,61,127
88187,note_on,0,0,0,,10,,,81,127
88187,note_on,0,0,0,,1,,,73,127
88460,note_off,273,0,0,,10,,,81,127
88461,note_on,1,0,0,,8,,,80,127
88597,note_off,136,0,0,,8,,,80,127
88598,note_on,1,0,0,,10,,,81,127
88734,note_off,136,0,0,,10,,,81,127
88734,note_off,0,0,0,,1,,,73,127
88734,note_off,0,0,0,,1,,,61,127
88734,note_off,0,0,0,,6,,,54,127
88735,note_on,1,0,0,,6,,,66,127
88735,note_on,0,0,0,,12,,,59,127
88735,note_on,0,0,0,,12,,,71,127
88735,note_on,0,0,0,,2,,,74,127
88735,note_on,0,0,0,,12,,,83,127
89008,note_off,273,0,0,,12,,,83,127
89009,note_on,1,0,0,,10,,,81,127
89145,note_off,136,0,0,,10,,,81,127
89146,note_on,1,0,0,,8,,,80,127
89282,note_off,136,0,0,,8,,,80,127
89282,note_off,0,0,0,,2,,,74,127
89282,note_off,0,0,0,,12,,,71,127
89282,note_off,0,0,0,,12,,,59,127
89282,note_off,0,0,0,,6,,,66,127
89283,note_on,1,0,0,,1,,,61,127
89283,note_on,0,0,0,,10,,,69,127
89283,note_on,0,0,0,,6,,,66,127
89283,note_on,0,0,0,,10,,,81,127
89283,note_on,0,0,0,,1,,,73,127
89556,note_off,273,0,0,,10,,,81,127
89557,note_on,1,0,0,,7,,,79,127
89693,note_off,136,0,0,,7,,,79,127
89694,note_on,1,0,0,,6,,,78,127
89813,note_off,119,0,0,,6,,,78,127
89830,note_off,17,0,0,,1,,,73,127
89830,note_off,0,0,0,,6,,,66,127
89830,note_off,0,0,0,,10,,,69,127
89830,note_off,0,0,0,,1,,,61,127
89840,note_on,10,0,0,,4,,,88,127
89840,note_on,0,0,0,,7,,,79,127
89840,note_on,0,0,0,,7,,,67,127
89840,note_on,0,0,0,,12,,,59,127
89840,note_on,0,0,0,,4,,,64,127
90113,note_off,273,0,0,,7,,,79,127
90114,note_on,1,0,0,,6,,,78,127
90250,note_off,136,0,0,,6,,,78,127
90251,note_on,1,0,0,,7,,,79,127
90387,note_off,136,0,0,,7,,,79,127
90387,note_off,0,0,0,,4,,,64,127
90387,note_off,0,0,0,,12,,,59,127
90387,note_off,0,0,0,,7,,,67,127
90388,note_on,1,0,0,,6,,,78,127
90388,note_on,0,0,0,,4,,,64,127
90388,note_on,0,0,0,,6,,,66,127
90388,note_on,0,0,0,,11,,,58,127
90661,note_off,273,0,0,,4,,,88,127
90662,note_on,1,0,0,,7,,,91,127
90798,note_off,136,0,0,,7,,,91,127
90799,note_on,1,0,0,,6,,,90,127
90935,note_off,136,0,0,,6,,,90,127
90935,note_off,0,0,0,,11,,,58,127
90935,note_off,0,0,0,,6,,,66,127
90935,note_off,0,0,0,,4,,,64,127
90936,note_on,1,0,0,,6,,,90,127
90936,note_on,0,0,0,,4,,,88,127
90936,note_on,0,0,0,,6,,,66,127
90936,note_on,0,0,0,,4,,,64,127
90936,note_on,0,0,0,,11,,,58,127
91142,note_off,206,0,0,,6,,,90,127
91209,note_off,67,0,0,,4,,,88,127
91210,note_on,1,0,0,,2,,,86,127
91346,note_off,136,0,0,,2,,,86,127
91347,note_on,1,0,0,,1,,,85,127
91483,note_off,136,0,0,,1,,,85,127
91483,note_off,0,0,0,,11,,,58,127
91483,note_off,0,0,0,,4,,,64,127
91483,note_off,0,0,0,,6,,,66,127
91483,note_off,0,0,0,,6,,,78,127
91484,note_on,1,0,0,,2,,,86,127
91484,note_on,0,0,0,,6,,,78,127
91484,note_on,0,0,0,,6,,,66,127
91484,note_on,0,0,0,,2,,,62,127
91484,note_on,0,0,0,,12,,,59,127
91757,note_off,273,0,0,,2,,,86,127
91758,note_on,1,0,0,,1,,,85,127
91894,note_off,136,0,0,,1,,,85,127
91895,note_on,1,0,0,,2,,,86,127
92031,note_off,136,0,0,,2,,,86,127
92031,note_off,0,0,0,,12,,,59,127
92031,note_off,0,0,0,,2,,,62,127
92031,note_off,0,0,0,,6,,,66,127
92031,note_off,0,0,0,,6,,,78,127
92032,note_on,1,0,0,,7,,,79,127
92032,note_on,0,0,0,,4,,,88,127
92032,note_on,0,0,0,,4,,,64,127
92032,note_on,0,0,0,,12,,,59,127
92032,note_on,0,0,0,,4,,,52,127
92305,note_off,273,0,0,,4,,,88,127
92306,note_on,1,0,0,,2,,,86,127
92442,note_off,136,0,0,,2,,,86,127
92443,note_off,1,0,0,,7,,,79,127
92443,note_on,0,0,0,,1,,,85,127
92579,note_off,136,0,0,,1,,,85,127
92579,note_off,0,0,0,,4,,,52,127
92579,note_off,0,0,0,,12,,,59,127
92579,note_off,0,0,0,,4,,,64,127
92580,note_on,1,0,0,,12,,,83,127
92580,note_on,0,0,0,,12,,,59,127
92580,note_on,0,0,0,,2,,,62,127
92580,note_on,0,0,0,,6,,,54,127
92854,note_on,274,0,0,,2,,,74,127
92965,note_off,111,0,0,,12,,,83,127
92989,note_off,24,0,0,,2,,,74,127
92990,note_on,1,0,0,,12,,,83,127
93126,note_off,136,0,0,,12,,,83,127
93126,note_off,0,0,0,,6,,,54,127
93126,note_off,0,0,0,,2,,,62,127
93126,note_off,0,0,0,,12,,,59,127
93127,note_on,1,0,0,,12,,,83,127
93127,note_on,0,0,0,,1,,,73,127
93127,note_on,0,0,0,,6,,,54,127
93127,note_on,0,0,0,,1,,,61,127
93127,note_on,0,0,0,,4,,,64,127
93218,note_on,91,0,0,,11,,,82,127
93231,note_off,13,0,0,,12,,,83,127
93310,note_on,79,0,0,,12,,,83,127
93323,note_off,13,0,0,,11,,,82,127
93402,note_on,79,0,0,,11,,,82,127
93415,note_off,13,0,0,,12,,,83,127
93494,note_on,79,0,0,,8,,,80,127
93507,note_off,13,0,0,,11,,,82,127
93586,note_on,79,0,0,,11,,,82,127
93599,note_off,13,0,0,,8,,,80,127
93676,note_off,77,0,0,,11,,,82,127
93676,note_off,0,0,0,,4,,,64,127
93676,note_off,0,0,0,,1,,,61,127
93676,note_off,0,0,0,,6,,,54,127
93676,note_off,0,0,0,,1,,,73,127
93695,note_on,19,0,0,,12,,,71,127
93695,note_on,0,0,0,,12,,,83,127
93695,note_on,0,0,0,,12,,,35,127
93989,note_off,294,0,0,,12,,,71,127
93998,note_on,9,0,0,,12,,,71,127
93998,note_on,0,0,0,,6,,,78,127
94014,note_off,16,0,0,,12,,,83,127
94134,note_off,120,0,0,,6,,,78,127
94134,note_off,0,0,0,,12,,,71,127
94135,note_on,1,0,0,,12,,,71,127
94135,note_on,0,0,0,,6,,,78,127
94266,note_off,131,0,0,,12,,,35,127
94270,note_off,4,0,0,,6,,,78,127
94270,note_off,0,0,0,,12,,,71,127
94271,note_on,1,0,0,,12,,,71,127
94271,note_on,0,0,0,,6,,,78,127
94271,note_on,0,0,0,,12,,,35,127
94544,note_off,273,0,0,,6,,,78,127
94544,note_off,0,0,0,,12,,,71,127
94545,note_on,1,0,0,,12,,,71,127
94545,note_on,0,0,0,,6,,,78,127
94818,note_off,273,0,0,,6,,,78,127
94818,note_off,0,0,0,,12,,,71,127
94818,note_off,0,0,0,,12,,,35,127
94819,note_on,1,0,0,,4,,,76,127
94819,note_on,0,0,0,,8,,,80,127
94819,note_on,0,0,0,,12,,,71,127
94819,note_on,0,0,0,,12,,,35,127
95092,note_off,273,0,0,,8,,,80,127
95093,note_on,1,0,0,,12,,,83,127
95366,note_off,273,0,0,,12,,,83,127
95366,note_off,0,0,0,,12,,,35,127
95366,note_off,0,0,0,,12,,,71,127
95366,note_off,0,0,0,,4,,,76,127
95367,note_on,1,0,0,,12,,,71,127
95367,note_on,0,0,0,,6,,,78,127
95367,note_on,0,0,0,,6,,,66,127
95367,note_on,0,0,0,,12,,,59,127
95640,note_off,273,0,0,,12,,,59,127
95640,note_off,0,0,0,,6,,,66,127
95641,note_on,1,0,0,,6,,,66,127
95641,note_on,0,0,0,,12,,,59,127
95777,note_off,136,0,0,,12,,,59,127
95777,note_off,0,0,0,,6,,,66,127
95778,note_on,1,0,0,,12,,,59,127
95778,note_on,0,0,0,,6,,,66,127
95914,note_off,136,0,0,,6,,,66,127
95914,note_off,0,0,0,,12,,,59,127
95914,note_off,0,0,0,,6,,,78,127
95915,note_on,1,0,0,,3,,,75,127
95915,note_on,0,0,0,,12,,,59,127
95915,note_on,0,0,0,,6,,,66,127
96188,note_off,273,0,0,,6,,,66,127
96188,note_off,0,0,0,,12,,,59,127
96189,note_on,1,0,0,,12,,,59,127
96189,note_on,0,0,0,,6,,,66,127
96462,note_off,273,0,0,,6,,,66,127
96462,note_off,0,0,0,,12,,,59,127
96462,note_off,0,0,0,,3,,,75,127
96462,note_off,0,0,0,,12,,,71,127
96463,note_on,1,0,0,,6,,,78,127
96463,note_on,0,0,0,,8,,,68,127
96463,note_on,0,0,0,,12,,,59,127
96530,note_off,67,0,0,,6,,,78,127
96531,note_on,1,0,0,,4,,,76,127
96598,note_off,67,0,0,,4,,,76,127
96599,note_on,1,0,0,,6,,,78,127
96666,note_off,67,0,0,,6,,,78,127
96667,note_on,1,0,0,,4,,,76,127
96734,note_off,67,0,0,,4,,,76,127
96734,note_off,0,0,0,,8,,,68,127
96735,note_on,1,0,0,,6,,,78,127
96735,note_on,0,0,0,,12,,,71,127
96802,note_off,67,0,0,,6,,,78,127
96803,note_on,1,0,0,,4,,,76,127
96870,note_off,67,0,0,,4,,,76,127
96871,note_on,1,0,0,,3,,,75,127
96938,note_off,67,0,0,,3,,,75,127
96939,note_on,1,0,0,,4,,,76,127
97006,note_off,67,0,0,,4,,,76,127
97006,note_off,0,0,0,,12,,,71,127
97006,note_off,0,0,0,,12,,,59,127
97007,note_on,1,0,0,,6,,,78,127
97007,note_on,0,0,0,,12,,,71,127
97007,note_on,0,0,0,,12,,,35,127
97280,note_off,273,0,0,,12,,,71,127
97280,note_off,0,0,0,,6,,,78,127
97281,note_on,1,0,0,,12,,,71,127
97281,note_on,0,0,0,,6,,,78,127
97417,note_off,136,0,0,,6,,,78,127
97417,note_off,0,0,0,,12,,,71,127
97418,note_on,1,0,0,,12,,,71,127
97418,note_on,0,0,0,,6,,,78,127
97554,note_off,136,0,0,,6,,,78,127
97554,note_off,0,0,0,,12,,,71,127
97554,note_off,0,0,0,,12,,,35,127
97555,note_on,1,0,0,,12,,,71,127
97555,note_on,0,0,0,,6,,,78,127
97555,note_on,0,0,0,,12,,,35,127
97828,note_off,273,0,0,,6,,,78,127
97828,note_off,0,0,0,,12,,,71,127
97829,note_on,1,0,0,,12,,,71,127
97829,note_on,0,0,0,,6,,,78,127
98102,note_off,273,0,0,,6,,,78,127
98102,note_off,0,0,0,,12,,,71,127
98102,note_off,0,0,0,,12,,,35,127
98103,note_on,1,0,0,,12,,,71,127
98103,note_on,0,0,0,,4,,,76,127
98103,note_on,0,0,0,,8,,,80,127
98103,note_on,0,0,0,,12,,,35,127
98376,note_off,273,0,0,,8,,,80,127
98377,note_on,1,0,0,,12,,,83,127
98650,note_off,273,0,0,,12,,,83,127
98650,note_off,0,0,0,,12,,,35,127
98650,note_off,0,0,0,,4,,,76,127
98650,note_off,0,0,0,,12,,,71,127
98651,note_on,1,0,0,,6,,,78,127
98651,note_on,0,0,0,,12,,,59,127
98651,note_on,0,0,0,,6,,,66,127
98787,note_off,136,0,0,,6,,,78,127
98788,note_on,1,0,0,,3,,,75,127
98924,note_off,136,0,0,,3,,,75,127
98925,note_on,1,0,0,,3,,,75,127
99061,note_off,136,0,0,,3,,,75,127
99062,note_on,1,0,0,,4,,,76,127
99198,note_off,136,0,0,,4,,,76,127
99198,note_off,0,0,0,,6,,,66,127
99198,note_off,0,0,0,,12,,,59,127
99199,note_on,1,0,0,,4,,,76,127
99199,note_on,0,0,0,,6,,,66,127
99199,note_on,0,0,0,,12,,,59,127
99335,note_off,136,0,0,,4,,,76,127
99336,note_on,1,0,0,,6,,,78,127
99472,note_off,136,0,0,,6,,,78,127
99473,note_on,1,0,0,,6,,,78,127
99609,note_off,136,0,0,,6,,,78,127
99610,note_on,1,0,0,,8,,,80,127
99746,note_off,136,0,0,,8,,,80,127
99746,note_off,0,0,0,,12,,,59,127
99746,note_off,0,0,0,,6,,,66,127
99747,note_on,1,0,0,,8,,,80,127
99747,note_on,0,0,0,,12,,,59,127
99747,note_on,0,0,0,,6,,,66,127
99883,note_off,136,0,0,,8,,,80,127
99884,note_on,1,0,0,,10,,,81,127
100020,note_off,136,0,0,,10,,,81,127
100021,note_on,1,0,0,,10,,,81,127
100157,note_off,136,0,0,,10,,,81,127
100158,note_on,1,0,0,,12,,,83,127
100294,note_off,136,0,0,,12,,,83,127
100294,note_off,0,0,0,,6,,,66,127
100294,note_off,0,0,0,,12,,,59,127
100295,note_on,1,0,0,,12,,,83,127
100295,note_on,0,0,0,,10,,,57,127
100295,note_on,0,0,0,,3,,,63,127
100295,note_on,0,0,0,,6,,,66,127
100431,note_off,136,0,0,,12,,,83,127
100432,note_on,1,0,0,,1,,,85,127
100568,note_off,136,0,0,,1,,,85,127
100569,note_on,1,0,0,,1,,,85,127
100705,note_off,136,0,0,,1,,,85,127
100706,note_on,1,0,0,,3,,,87,127
100842,note_off,136,0,0,,3,,,87,127
100842,note_off,0,0,0,,6,,,66,127
100842,note_off,0,0,0,,3,,,63,127
100842,note_off,0,0,0,,10,,,57,127
100843,note_on,1,0,0,,3,,,87,127
100843,note_on,0,0,0,,3,,,63,127
100843,note_on,0,0,0,,6,,,66,127
100843,note_on,0,0,0,,10,,,57,127
101390,note_off,547,0,0,,10,,,57,127
101390,note_off,0,0,0,,6,,,66,127
101390,note_off,0,0,0,,3,,,63,127
101391,note_on,1,0,0,,3,,,63,127
101391,note_on,0,0,0,,6,,,66,127
101391,note_on,0,0,0,,10,,,57,127
101664,note_off,273,0,0,,3,,,87,127
101665,note_on,1,0,0,,4,,,88,127
101801,note_off,136,0,0,,4,,,88,127
101802,note_on,1,0,0,,1,,,85,127
101938,note_off,136,0,0,,1,,,85,127
101938,note_off,0,0,0,,10,,,57,127
101938,note_off,0,0,0,,6,,,66,127
101938,note_off,0,0,0,,3,,,63,127
101939,note_on,1,0,0,,1,,,85,127
101939,note_on,0,0,0,,4,,,64,127
101939,note_on,0,0,0,,12,,,59,127
101939,note_on,0,0,0,,8,,,56,127
102075,note_off,136,0,0,,1,,,85,127
102076,note_on,1,0,0,,12,,,83,127
102212,note_off,136,0,0,,12,,,83,127
102213,note_on,1,0,0,,4,,,88,127
102349,note_off,136,0,0,,4,,,88,127
102350,note_on,1,0,0,,1,,,85,127
102486,note_off,136,0,0,,1,,,85,127
102486,note_off,0,0,0,,8,,,56,127
102486,note_off,0,0,0,,12,,,59,127
102486,note_off,0,0,0,,4,,,64,127
102487,note_on,1,0,0,,1,,,85,127
102487,note_on,0,0,0,,12,,,59,127
102487,note_on,0,0,0,,4,,,64,127
102487,note_on,0,0,0,,8,,,56,127
102623,note_off,136,0,0,,1,,,85,127
102624,note_on,1,0,0,,12,,,83,127
102670,note_on,46,0,0,,1,,,85,127
102681,note_off,11,0,0,,12,,,83,127
102715,note_on,34,0,0,,12,,,83,127
102726,note_off,11,0,0,,1,,,85,127
102760,note_on,34,0,0,,1,,,85,127
102771,note_off,11,0,0,,12,,,83,127
102805,note_on,34,0,0,,12,,,83,127
102816,note_off,11,0,0,,1,,,85,127
102850,note_on,34,0,0,,1,,,85,127
102861,note_off,11,0,0,,12,,,83,127
102895,note_on,34,0,0,,12,,,83,127
102906,note_off,11,0,0,,1,,,85,127
102940,note_on,34,0,0,,1,,,85,127
102951,note_off,11,0,0,,12,,,83,127
102985,note_on,34,0,0,,12,,,83,127
102996,note_off,11,0,0,,1,,,85,127
103029,note_off,33,0,0,,8,,,56,127
103029,note_off,0,0,0,,4,,,64,127
103029,note_off,0,0,0,,12,,,59,127
103030,note_on,1,0,0,,12,,,59,127
103030,note_on,0,0,0,,4,,,64,127
103030,note_on,0,0,0,,8,,,56,127
103299,note_off,269,0,0,,12,,,83,127
103305,note_on,6,0,0,,10,,,81,127
103441,note_off,136,0,0,,10,,,81,127
103442,note_on,1,0,0,,8,,,80,127
103578,note_off,136,0,0,,8,,,80,127
103578,note_off,0,0,0,,8,,,56,127
103578,note_off,0,0,0,,4,,,64,127
103578,note_off,0,0,0,,12,,,59,127
103579,note_on,1,0,0,,8,,,80,127
103579,note_on,0,0,0,,10,,,69,127
103579,note_on,0,0,0,,4,,,64,127
103579,note_on,0,0,0,,10,,,57,127
103715,note_off,136,0,0,,8,,,80,127
103716,note_on,1,0,0,,6,,,78,127
103852,note_off,136,0,0,,6,,,78,127
103853,note_on,1,0,0,,8,,,80,127
103989,note_off,136,0,0,,8,,,80,127
103990,note_on,1,0,0,,10,,,81,127
104126,note_off,136,0,0,,10,,,81,127
104126,note_off,0,0,0,,10,,,57,127
104126,note_off,0,0,0,,4,,,64,127
104126,note_off,0,0,0,,10,,,69,127
104127,note_on,1,0,0,,4,,,76,127
104127,note_on,0,0,0,,8,,,68,127
104127,note_on,0,0,0,,4,,,64,127
104127,note_on,0,0,0,,12,,,59,127
104674,note_off,547,0,0,,12,,,59,127
104674,note_off,0,0,0,,4,,,64,127
104674,note_off,0,0,0,,8,,,68,127
104674,note_off,0,0,0,,4,,,76,127
104675,note_on,1,0,0,,4,,,76,127
104675,note_on,0,0,0,,6,,,66,127
104675,note_on,0,0,0,,12,,,59,127
104742,note_off,67,0,0,,4,,,76,127
104743,note_on,1,0,0,,3,,,75,127
104810,note_off,67,0,0,,3,,,75,127
104811,note_on,1,0,0,,4,,,76,127
104878,note_off,67,0,0,,4,,,76,127
104879,note_on,1,0,0,,3,,,75,127
104946,note_off,67,0,0,,3,,,75,127
104947,note_on,1,0,0,,4,,,76,127
105014,note_off,67,0,0,,4,,,76,127
105015,note_on,1,0,0,,3,,,75,127
105082,note_off,67,0,0,,3,,,75,127
105083,note_on,1,0,0,,1,,,73,127
105150,note_off,67,0,0,,1,,,73,127
105151,note_on,1,0,0,,3,,,75,127
105218,note_off,67,0,0,,3,,,75,127
105218,note_off,0,0,0,,12,,,59,127
105218,note_off,0,0,0,,6,,,66,127
105219,note_on,1,0,0,,4,,,76,127
105219,note_on,0,0,0,,4,,,64,127
105355,note_off,136,0,0,,4,,,76,127
105356,note_on,1,0,0,,6,,,78,127
105492,note_off,136,0,0,,6,,,78,127
105493,note_on,1,0,0,,6,,,78,127
105629,note_off,136,0,0,,6,,,78,127
105630,note_on,1,0,0,,8,,,80,127
105766,note_off,136,0,0,,8,,,80,127
105766,note_off,0,0,0,,4,,,64,127
105767,note_on,1,0,0,,8,,,80,127
105767,note_on,0,0,0,,4,,,64,127
105903,note_off,136,0,0,,8,,,80,127
105904,note_on,1,0,0,,10,,,81,127
106040,note_off,136,0,0,,10,,,81,127
106041,note_on,1,0,0,,10,,,81,127
106177,note_off,136,0,0,,10,,,81,127
106178,note_on,1,0,0,,12,,,83,127
106314,note_off,136,0,0,,12,,,83,127
106314,note_off,0,0,0,,4,,,64,127
106315,note_on,1,0,0,,1,,,85,127
106315,note_on,0,0,0,,10,,,57,127
106451,note_off,136,0,0,,1,,,85,127
106452,note_on,1,0,0,,12,,,83,127
106588,note_off,136,0,0,,12,,,83,127
106589,note_on,1,0,0,,1,,,85,127
106725,note_off,136,0,0,,1,,,85,127
106726,note_on,1,0,0,,4,,,76,127
106862,note_off,136,0,0,,10,,,57,127
106869,note_off,7,0,0,,4,,,76,127
106880,note_on,11,0,0,,12,,,35,127
106880,note_on,0,0,0,,12,,,71,127
106880,note_on,0,0,0,,6,,,78,127
107153,note_off,273,0,0,,6,,,78,127
107153,note_off,0,0,0,,12,,,71,127
107156,note_on,3,0,0,,6,,,78,127
107156,note_on,0,0,0,,12,,,71,127
107292,note_off,136,0,0,,12,,,71,127
107292,note_off,0,0,0,,6,,,78,127
107293,note_on,1,0,0,,6,,,78,127
107293,note_on,0,0,0,,12,,,71,127
107427,note_off,134,0,0,,12,,,35,127
107428,note_off,1,0,0,,12,,,71,127
107428,note_off,0,0,0,,6,,,78,127
107429,note_on,1,0,0,,12,,,35,127
107429,note_on,0,0,0,,6,,,78,127
107429,note_on,0,0,0,,12,,,71,127
107702,note_off,273,0,0,,12,,,71,127
107702,note_off,0,0,0,,6,,,78,127
107703,note_on,1,0,0,,6,,,78,127
107703,note_on,0,0,0,,12,,,71,127
107976,note_off,273,0,0,,12,,,71,127
107976,note_off,0,0,0,,6,,,78,127
107976,note_off,0,0,0,,12,,,35,127
107977,note_on,1,0,0,,12,,,35,127
107977,note_on,0,0,0,,8,,,80,127
107977,note_on,0,0,0,,12,,,71,127
107977,note_on,0,0,0,,4,,,76,127
108250,note_off,273,0,0,,8,,,80,127
108251,note_on,1,0,0,,12,,,83,127
108524,note_off,273,0,0,,12,,,83,127
108524,note_off,0,0,0,,4,,,76,127
108524,note_off,0,0,0,,12,,,71,127
108524,note_off,0,0,0,,12,,,35,127
108525,note_on,1,0,0,,6,,,66,127
108525,note_on,0,0,0,,12,,,59,127
108525,note_on,0,0,0,,12,,,71,127
108525,note_on,0,0,0,,6,,,78,127
108798,note_off,273,0,0,,12,,,59,127
108798,note_off,0,0,0,,6,,,66,127
108808,note_on,10,0,0,,12,,,59,127
108808,note_on,0,0,0,,6,,,66,127
108944,note_off,136,0,0,,6,,,66,127
108944,note_off,0,0,0,,12,,,59,127
108945,note_on,1,0,0,,12,,,59,127
108945,note_on,0,0,0,,6,,,66,127
109072,note_off,127,0,0,,6,,,78,127
109081,note_off,9,0,0,,6,,,66,127
109081,note_off,0,0,0,,12,,,59,127
109082,note_on,1,0,0,,3,,,75,127
109082,note_on,0,0,0,,6,,,66,127
109082,note_on,0,0,0,,12,,,59,127
109355,note_off,273,0,0,,12,,,59,127
109355,note_off,0,0,0,,6,,,66,127
109356,note_on,1,0,0,,6,,,66,127
109356,note_on,0,0,0,,12,,,59,127
109620,note_off,264,0,0,,12,,,71,127
109629,note_off,9,0,0,,12,,,59,127
109629,note_off,0,0,0,,6,,,66,127
109629,note_off,0,0,0,,3,,,75,127
109630,note_on,1,0,0,,6,,,78,127
109630,note_on,0,0,0,,8,,,68,127
109630,note_on,0,0,0,,12,,,59,127
109697,note_off,67,0,0,,6,,,78,127
109698,note_on,1,0,0,,4,,,76,127
109765,note_off,67,0,0,,4,,,76,127
109766,note_on,1,0,0,,6,,,78,127
109833,note_off,67,0,0,,6,,,78,127
109834,note_on,1,0,0,,4,,,76,127
109901,note_off,67,0,0,,4,,,76,127
109901,note_off,0,0,0,,12,,,59,127
109901,note_off,0,0,0,,8,,,68,127
109902,note_on,1,0,0,,6,,,78,127
109902,note_on,0,0,0,,12,,,71,127
109969,note_off,67,0,0,,6,,,78,127
109970,note_on,1,0,0,,4,,,76,127
110037,note_off,67,0,0,,4,,,76,127
110038,note_on,1,0,0,,3,,,75,127
110105,note_off,67,0,0,,3,,,75,127
110106,note_on,1,0,0,,4,,,76,127
110173,note_off,67,0,0,,4,,,76,127
110173,note_off,0,0,0,,12,,,71,127
110174,note_on,1,0,0,,12,,,71,127
110174,note_on,0,0,0,,6,,,78,127
110174,note_on,0,0,0,,12,,,35,127
110447,note_off,273,0,0,,6,,,78,127
110447,note_off,0,0,0,,12,,,71,127
110454,note_on,7,0,0,,6,,,78,127
110454,note_on,0,0,0,,12,,,71,127
110590,note_off,136,0,0,,12,,,71,127
110590,note_off,0,0,0,,6,,,78,127
110591,note_on,1,0,0,,6,,,78,127
110591,note_on,0,0,0,,12,,,71,127
110721,note_off,130,0,0,,12,,,35,127
110727,note_off,6,0,0,,12,,,71,127
110727,note_off,0,0,0,,6,,,78,127
110728,note_on,1,0,0,,12,,,35,127
110728,note_on,0,0,0,,6,,,78,127
110728,note_on,0,0,0,,12,,,71,127
111001,note_off,273,0,0,,12,,,71,127
111001,note_off,0,0,0,,6,,,78,127
111002,note_on,1,0,0,,6,,,78,127
111002,note_on,0,0,0,,12,,,71,127
111275,note_off,273,0,0,,12,,,71,127
111275,note_off,0,0,0,,6,,,78,127
111275,note_off,0,0,0,,12,,,35,127
111276,note_on,1,0,0,,12,,,35,127
111276,note_on,0,0,0,,12,,,71,127
111276,note_on,0,0,0,,8,,,80,127
111276,note_on,0,0,0,,4,,,76,127
111549,note_off,273,0,0,,8,,,80,127
111550,note_on,1,0,0,,12,,,83,127
111823,note_off,273,0,0,,12,,,83,127
111823,note_off,0,0,0,,4,,,76,127
111823,note_off,0,0,0,,12,,,71,127
111823,note_off,0,0,0,,12,,,35,127
111839,note_on,16,0,0,,8,,,80,127
111839,note_on,0,0,0,,6,,,78,127
111839,note_on,0,0,0,,12,,,59,127
111839,note_on,0,0,0,,6,,,66,127
111960,note_off,121,0,0,,8,,,80,127
111974,note_off,14,0,0,,6,,,78,127
111975,note_on,1,0,0,,3,,,75,127
112111,note_off,136,0,0,,3,,,75,127
112112,note_on,1,0,0,,3,,,75,127
112248,note_off,136,0,0,,3,,,75,127
112249,note_on,1,0,0,,4,,,76,127
112385,note_off,136,0,0,,4,,,76,127
112385,note_off,0,0,0,,6,,,66,127
112385,note_off,0,0,0,,12,,,59,127
112386,note_on,1,0,0,,4,,,76,127
112386,note_on,0,0,0,,12,,,59,127
112386,note_on,0,0,0,,6,,,66,127
112522,note_off,136,0,0,,4,,,76,127
112523,note_on,1,0,0,,6,,,78,127
112659,note_off,136,0,0,,6,,,78,127
112660,note_on,1,0,0,,6,,,78,127
112796,note_off,136,0,0,,6,,,78,127
112797,note_on,1,0,0,,8,,,80,127
112933,note_off,136,0,0,,8,,,80,127
112933,note_off,0,0,0,,6,,,66,127
112933,note_off,0,0,0,,12,,,59,127
112934,note_on,1,0,0,,8,,,80,127
112934,note_on,0,0,0,,6,,,66,127
112934,note_on,0,0,0,,12,,,59,127
113070,note_off,136,0,0,,8,,,80,127
113071,note_on,1,0,0,,10,,,81,127
113207,note_off,136,0,0,,10,,,81,127
113208,note_on,1,0,0,,10,,,81,127
113344,note_off,136,0,0,,10,,,81,127
113345,note_on,1,0,0,,12,,,83,127
113481,note_off,136,0,0,,12,,,83,127
113481,note_off,0,0,0,,12,,,59,127
113481,note_off,0,0,0,,6,,,66,127
113482,note_on,1,0,0,,12,,,83,127
113482,note_on,0,0,0,,6,,,66,127
113482,note_on,0,0,0,,10,,,57,127
113482,note_on,0,0,0,,3,,,63,127
113618,note_off,136,0,0,,12,,,83,127
113619,note_on,1,0,0,,1,,,85,127
113755,note_off,136,0,0,,1,,,85,127
113756,note_on,1,0,0,,1,,,85,127
113892,note_off,136,0,0,,1,,,85,127
113893,note_on,1,0,0,,3,,,87,127
114029,note_off,136,0,0,,3,,,87,127
114029,note_off,0,0,0,,3,,,63,127
114029,note_off,0,0,0,,10,,,57,127
114029,note_off,0,0,0,,6,,,66,127
114030,note_on,1,0,0,,3,,,87,127
114030,note_on,0,0,0,,6,,,66,127
114030,note_on,0,0,0,,3,,,63,127
114030,note_on,0,0,0,,10,,,57,127
114577,note_off,547,0,0,,10,,,57,127
114577,note_off,0,0,0,,3,,,63,127
114577,note_off,0,0,0,,6,,,66,127
114578,note_on,1,0,0,,6,,,66,127
114578,note_on,0,0,0,,10,,,57,127
114578,note_on,0,0,0,,3,,,63,127
114851,note_off,273,0,0,,3,,,87,127
114852,note_on,1,0,0,,4,,,88,127
114988,note_off,136,0,0,,4,,,88,127
114989,note_on,1,0,0,,1,,,85,127
115125,note_off,136,0,0,,1,,,85,127
115125,note_off,0,0,0,,3,,,63,127
115125,note_off,0,0,0,,10,,,57,127
115125,note_off,0,0,0,,6,,,66,127
115126,note_on,1,0,0,,1,,,85,127
115126,note_on,0,0,0,,4,,,64,127
115126,note_on,0,0,0,,12,,,59,127
115126,note_on,0,0,0,,8,,,56,127
115262,note_off,136,0,0,,1,,,85,127
115263,note_on,1,0,0,,12,,,83,127
115399,note_off,136,0,0,,12,,,83,127
115400,note_on,1,0,0,,4,,,88,127
115536,note_off,136,0,0,,4,,,88,127
115537,note_on,1,0,0,,1,,,85,127
115673,note_off,136,0,0,,1,,,85,127
115673,note_off,0,0,0,,8,,,56,127
115673,note_off,0,0,0,,12,,,59,127
115673,note_off,0,0,0,,4,,,64,127
115674,note_on,1,0,0,,1,,,85,127
115674,note_on,0,0,0,,12,,,59,127
115674,note_on,0,0,0,,4,,,64,127
115674,note_on,0,0,0,,8,,,56,127
115810,note_off,136,0,0,,1,,,85,127
115811,note_on,1,0,0,,12,,,83,127
115858,note_on,47,0,0,,1,,,85,127
115868,note_off,10,0,0,,12,,,83,127
115905,note_on,37,0,0,,12,,,83,127
115915,note_off,10,0,0,,1,,,85,127
115952,note_on,37,0,0,,1,,,85,127
115962,note_off,10,0,0,,12,,,83,127
115999,note_on,37,0,0,,12,,,83,127
116009,note_off,10,0,0,,1,,,85,127
116046,note_on,37,0,0,,1,,,85,127
116056,note_off,10,0,0,,12,,,83,127
116093,note_on,37,0,0,,12,,,83,127
116103,note_off,10,0,0,,1,,,85,127
116140,note_on,37,0,0,,1,,,85,127
116150,note_off,10,0,0,,12,,,83,127
116187,note_on,37,0,0,,12,,,83,127
116197,note_off,10,0,0,,1,,,85,127
116220,note_off,23,0,0,,8,,,56,127
116220,note_off,0,0,0,,4,,,64,127
116220,note_off,0,0,0,,12,,,59,127
116221,note_on,1,0,0,,12,,,59,127
116221,note_on,0,0,0,,4,,,64,127
116221,note_on,0,0,0,,8,,,56,127
116491,note_off,270,0,0,,12,,,83,127
116495,note_on,4,0,0,,10,,,81,127
116631,note_off,136,0,0,,10,,,81,127
116632,note_on,1,0,0,,8,,,80,127
116768,note_off,136,0,0,,8,,,80,127
116768,note_off,0,0,0,,8,,,56,127
116768,note_off,0,0,0,,4,,,64,127
116768,note_off,0,0,0,,12,,,59,127
116769,note_on,1,0,0,,8,,,80,127
116769,note_on,0,0,0,,4,,,64,127
116769,note_on,0,0,0,,10,,,69,127
116769,note_on,0,0,0,,10,,,57,127
116905,note_off,136,0,0,,8,,,80,127
116906,note_on,1,0,0,,6,,,78,127
117042,note_off,136,0,0,,6,,,78,127
117043,note_on,1,0,0,,8,,,80,127
117179,note_off,136,0,0,,8,,,80,127
117180,note_on,1,0,0,,10,,,81,127
117316,note_off,136,0,0,,10,,,81,127
117316,note_off,0,0,0,,10,,,57,127
117316,note_off,0,0,0,,10,,,69,127
117316,note_off,0,0,0,,4,,,64,127
117317,note_on,1,0,0,,4,,,76,127
117317,note_on,0,0,0,,8,,,68,127
117317,note_on,0,0,0,,12,,,59,127
117317,note_on,0,0,0,,4,,,64,127
117864,note_off,547,0,0,,4,,,64,127
117864,note_off,0,0,0,,12,,,59,127
117864,note_off,0,0,0,,8,,,68,127
117864,note_off,0,0,0,,4,,,76,127
117865,note_on,1,0,0,,4,,,76,127
117865,note_on,0,0,0,,6,,,66,127
117865,note_on,0,0,0,,12,,,59,127
117932,note_off,67,0,0,,4,,,76,127
117933,note_on,1,0,0,,3,,,75,127
118000,note_off,67,0,0,,3,,,75,127
118001,note_on,1,0,0,,4,,,76,127
118068,note_off,67,0,0,,4,,,76,127
118069,note_on,1,0,0,,3,,,75,127
118136,note_off,67,0,0,,3,,,75,127
118137,note_on,1,0,0,,4,,,76,127
118204,note_off,67,0,0,,4,,,76,127
118205,note_on,1,0,0,,3,,,75,127
118272,note_off,67,0,0,,3,,,75,127
118273,note_on,1,0,0,,1,,,73,127
118340,note_off,67,0,0,,1,,,73,127
118341,note_on,1,0,0,,3,,,75,127
118408,note_off,67,0,0,,3,,,75,127
118408,note_off,0,0,0,,12,,,59,127
118408,note_off,0,0,0,,6,,,66,127
118409,note_on,1,0,0,,4,,,76,127
118409,note_on,0,0,0,,4,,,40,127
118409,note_on,0,0,0,,4,,,52,127
118682,note_off,273,0,0,,4,,,76,127
118706,note_on,24,0,0,,4,,,76,127
118706,note_on,0,0,0,,8,,,80,127
118843,note_off,137,0,0,,8,,,80,127
118843,note_off,0,0,0,,4,,,76,127
118846,note_on,3,0,0,,8,,,80,127
118846,note_on,0,0,0,,4,,,76,127
118956,note_off,110,0,0,,4,,,52,127
118956,note_off,0,0,0,,4,,,40,127
118983,note_off,27,0,0,,4,,,76,127
118983,note_off,0,0,0,,8,,,80,127
118986,note_on,3,0,0,,4,,,40,127
118986,note_on,0,0,0,,4,,,52,127
118986,note_on,0,0,0,,4,,,76,127
118986,note_on,0,0,0,,8,,,80,127
119263,note_off,277,0,0,,8,,,80,127
119263,note_off,0,0,0,,4,,,76,127
119266,note_on,3,0,0,,12,,,83,127
119266,note_on,0,0,0,,8,,,80,127
119543,note_off,277,0,0,,8,,,80,127
119543,note_off,0,0,0,,12,,,83,127
119543,note_off,0,0,0,,4,,,52,127
119543,note_off,0,0,0,,4,,,40,127
119546,note_on,3,0,0,,12,,,47,127
119546,note_on,0,0,0,,12,,,35,127
119546,note_on,0,0,0,,10,,,81,127
119546,note_on,0,0,0,,6,,,78,127
119823,note_off,277,0,0,,6,,,78,127
119823,note_off,0,0,0,,10,,,81,127
119824,note_on,1,0,0,,6,,,78,127
119824,note_on,0,0,0,,12,,,71,127
120101,note_off,277,0,0,,12,,,71,127
120101,note_off,0,0,0,,6,,,78,127
120102,note_off,1,0,0,,12,,,35,127
120102,note_off,0,0,0,,12,,,47,127
120103,note_on,1,0,0,,4,,,40,127
120103,note_on,0,0,0,,4,,,52,127
120103,note_on,0,0,0,,8,,,80,127
120103,note_on,0,0,0,,4,,,76,127
120380,note_off,277,0,0,,4,,,76,127
120380,note_off,0,0,0,,8,,,80,127
120383,note_on,3,0,0,,4,,,76,127
120383,note_on,0,0,0,,8,,,80,127
120520,note_off,137,0,0,,8,,,80,127
120520,note_off,0,0,0,,4,,,76,127
120523,note_on,3,0,0,,4,,,76,127
120523,note_on,0,0,0,,8,,,80,127
120660,note_off,137,0,0,,8,,,80,127
120660,note_off,0,0,0,,4,,,76,127
120660,note_off,0,0,0,,4,,,52,127
120660,note_off,0,0,0,,4,,,40,127
120663,note_on,3,0,0,,4,,,40,127
120663,note_on,0,0,0,,4,,,52,127
120663,note_on,0,0,0,,4,,,76,127
120663,note_on,0,0,0,,8,,,80,127
120940,note_off,277,0,0,,8,,,80,127
120940,note_off,0,0,0,,4,,,76,127
120943,note_on,3,0,0,,12,,,83,127
120943,note_on,0,0,0,,8,,,80,127
121220,note_off,277,0,0,,8,,,80,127
121220,note_off,0,0,0,,12,,,83,127
121220,note_off,0,0,0,,4,,,52,127
121220,note_off,0,0,0,,4,,,40,127
121223,note_on,3,0,0,,12,,,47,127
121223,note_on,0,0,0,,12,,,35,127
121223,note_on,0,0,0,,10,,,81,127
121223,note_on,0,0,0,,6,,,78,127
121500,note_off,277,0,0,,6,,,78,127
121500,note_off,0,0,0,,10,,,81,127
121501,note_on,1,0,0,,6,,,78,127
121501,note_on,0,0,0,,12,,,71,127
121778,note_off,277,0,0,,12,,,71,127
121778,note_off,0,0,0,,6,,,78,127
121779,note_off,1,0,0,,12,,,35,127
121779,note_off,0,0,0,,12,,,47,127
121780,note_on,1,0,0,,4,,,40,127
121780,note_on,0,0,0,,4,,,52,127
121780,note_on,0,0,0,,4,,,76,127
121780,note_on,0,0,0,,8,,,80,127
122057,note_off,277,0,0,,8,,,80,127
122067,note_on,10,0,0,,4,,,88,127
122204,note_off,137,0,0,,4,,,88,127
122208,note_on,4,0,0,,4,,,88,127
122337,note_off,129,0,0,,4,,,76,127
122337,note_off,0,0,0,,4,,,52,127
122337,note_off,0,0,0,,4,,,40,127
122346,note_off,9,0,0,,4,,,88,127
122350,note_on,4,0,0,,4,,,88,127
122350,note_on,0,0,0,,4,,,52,127
122487,note_off,137,0,0,,4,,,88,127
122491,note_on,4,0,0,,12,,,83,127
122628,note_off,137,0,0,,12,,,83,127
122632,note_on,4,0,0,,4,,,88,127
122769,note_off,137,0,0,,4,,,88,127
122773,note_on,4,0,0,,4,,,88,127
122906,note_off,133,0,0,,4,,,52,127
122910,note_off,4,0,0,,4,,,88,127
122914,note_on,4,0,0,,4,,,88,127
122914,note_on,0,0,0,,8,,,56,127
123051,note_off,137,0,0,,4,,,88,127
123055,note_on,4,0,0,,12,,,83,127
123192,note_off,137,0,0,,12,,,83,127
123195,note_on,3,0,0,,4,,,88,127
123332,note_off,137,0,0,,4,,,88,127
123336,note_on,4,0,0,,4,,,88,127
123470,note_off,134,0,0,,8,,,56,127
123473,note_off,3,0,0,,4,,,88,127
123476,note_on,3,0,0,,4,,,88,127
123476,note_on,0,0,0,,10,,,57,127
123613,note_off,137,0,0,,4,,,88,127
123617,note_on,4,0,0,,1,,,85,127
123754,note_off,137,0,0,,1,,,85,127
123758,note_on,4,0,0,,12,,,83,127
123895,note_off,137,0,0,,12,,,83,127
123899,note_on,4,0,0,,10,,,81,127
124032,note_off,133,0,0,,10,,,57,127
124036,note_off,4,0,0,,10,,,81,127
124040,note_on,4,0,0,,10,,,81,127
124040,note_on,0,0,0,,12,,,59,127
124177,note_off,137,0,0,,10,,,81,127
124181,note_on,4,0,0,,8,,,80,127
124318,note_off,137,0,0,,8,,,80,127
124322,note_on,4,0,0,,6,,,78,127
124459,note_off,137,0,0,,6,,,78,127
124463,note_on,4,0,0,,4,,,76,127
124600,note_off,137,0,0,,4,,,76,127
124604,note_on,4,0,0,,8,,,80,127
124604,note_on,0,0,0,,12,,,47,127
124671,note_off,67,0,0,,8,,,80,127
124675,note_on,4,0,0,,6,,,78,127
124742,note_off,67,0,0,,6,,,78,127
124745,note_on,3,0,0,,8,,,80,127
124812,note_off,67,0,0,,8,,,80,127
124816,note_on,4,0,0,,6,,,78,127
124875,note_off,59,0,0,,12,,,59,127
124884,note_off,9,0,0,,6,,,78,127
124885,note_on,1,0,0,,8,,,80,127
124952,note_off,67,0,0,,8,,,80,127
124956,note_on,4,0,0,,6,,,78,127
125023,note_off,67,0,0,,6,,,78,127
125026,note_on,3,0,0,,4,,,76,127
125093,note_off,67,0,0,,4,,,76,127
125097,note_on,4,0,0,,6,,,78,127
125160,note_off,63,0,0,,12,,,47,127
125164,note_off,4,0,0,,6,,,78,127
125167,note_on,3,0,0,,4,,,76,127
125167,note_on,0,0,0,,4,,,52,127
125463,note_on,296,0,0,,4,,,88,127
125602,note_off,139,0,0,,4,,,88,127
125609,note_on,7,0,0,,4,,,88,127
125725,note_off,116,0,0,,4,,,76,127
125748,note_off,23,0,0,,4,,,88,127
125757,note_on,9,0,0,,4,,,88,127
125757,note_on,0,0,0,,4,,,40,127
125896,note_off,139,0,0,,4,,,88,127
125906,note_on,10,0,0,,12,,,83,127
126045,note_off,139,0,0,,12,,,83,127
126054,note_on,9,0,0,,4,,,88,127
126193,note_off,139,0,0,,4,,,88,127
126202,note_on,9,0,0,,4,,,88,127
126288,note_off,86,0,0,,4,,,52,127
126331,note_off,43,0,0,,4,,,40,127
126341,note_off,10,0,0,,4,,,88,127
126348,note_on,7,0,0,,4,,,88,127
126348,note_on,0,0,0,,8,,,44,127
126487,note_off,139,0,0,,4,,,88,127
126494,note_on,7,0,0,,12,,,83,127
126633,note_off,139,0,0,,12,,,83,127
126642,note_on,9,0,0,,4,,,88,127
126781,note_off,139,0,0,,4,,,88,127
126790,note_on,9,0,0,,4,,,88,127
126921,note_off,131,0,0,,8,,,44,127
126928,note_off,7,0,0,,4,,,88,127
126935,note_on,7,0,0,,4,,,88,127
126935,note_on,0,0,0,,10,,,45,127
127074,note_off,139,0,0,,4,,,88,127
127083,note_on,9,0,0,,1,,,85,127
127222,note_off,139,0,0,,1,,,85,127
127232,note_on,10,0,0,,12,,,83,127
127371,note_off,139,0,0,,12,,,83,127
127378,note_on,7,0,0,,10,,,81,127
127508,note_off,130,0,0,,10,,,45,127
127517,note_off,9,0,0,,10,,,81,127
127526,note_on,9,0,0,,10,,,81,127
127526,note_on,0,0,0,,12,,,47,127
127665,note_off,139,0,0,,10,,,81,127
127675,note_on,10,0,0,,8,,,80,127
127814,note_off,139,0,0,,8,,,80,127
127823,note_on,9,0,0,,6,,,78,127
127962,note_off,139,0,0,,6,,,78,127
127971,note_on,9,0,0,,4,,,76,127
128110,note_off,139,0,0,,4,,,76,127
128117,note_on,7,0,0,,8,,,80,127
128117,note_on,0,0,0,,12,,,35,127
128184,note_off,67,0,0,,8,,,80,127
128191,note_on,7,0,0,,6,,,78,127
128258,note_off,67,0,0,,6,,,78,127
128262,note_on,4,0,0,,8,,,80,127
128329,note_off,67,0,0,,8,,,80,127
128335,note_on,6,0,0,,6,,,78,127
128402,note_off,67,0,0,,6,,,78,127
128411,note_on,9,0,0,,8,,,80,127
128478,note_off,67,0,0,,8,,,80,127
128482,note_on,4,0,0,,6,,,78,127
128549,note_off,67,0,0,,6,,,78,127
128558,note_on,9,0,0,,4,,,76,127
128625,note_off,67,0,0,,4,,,76,127
128644,note_on,19,0,0,,6,,,78,127
128677,note_off,33,0,0,,12,,,47,127
128688,note_off,11,0,0,,12,,,35,127
128772,note_off,84,0,0,,6,,,78,127
128795,note_on,23,0,0,,4,,,76,127
128795,note_on,0,0,0,,4,,,40,127
131089,note_off,2294,0,0,,4,,,40,127
131089,note_off,0,0,0,,4,,,76,127
132096,end_of_track,1007,1,0,,,,,,
