tick,type,key,time,meta,track,frame_rate,hours,minutes,seconds,frames,sub_frames,tempo,numerator,denominator,clocks_per_click,notated_32nd_notes_per_beat,control,value,channel,note,velocity
0,key_signature,C,0,1,0,,,,,,,,,,,,,,,,
0,smpte_offset,,0,1,0,25,32,0,0,0,0,,,,,,,,,,
0,set_tempo,,0,1,0,,,,,,,500000,,,,,,,,,
0,time_signature,,0,1,0,,,,,,,,4,4,24,8,,,,,
0,end_of_track,,0,1,0,,,,,,,,,,,,,,,,
0,control_change,,0,0,1,,,,,,,,,,,,64,127,0,,
0,control_change,,0,0,1,,,,,,,,,,,,64,0,0,,
0,control_change,,0,0,1,,,,,,,,,,,,64,127,0,,
0,note_on,,0,0,1,,,,,,,,,,,,,,0,83,79
210,note_on,,210,0,1,,,,,,,,,,,,,,0,83,0
224,note_on,,14,0,1,,,,,,,,,,,,,,0,81,43
282,note_on,,58,0,1,,,,,,,,,,,,,,0,81,0
282,note_on,,0,0,1,,,,,,,,,,,,,,0,80,68
334,note_on,,52,0,1,,,,,,,,,,,,,,0,80,0
474,control_change,,140,0,1,,,,,,,,,,,,64,0,0,,
562,note_on,,88,0,1,,,,,,,,,,,,,,0,78,55
565,note_on,,3,0,1,,,,,,,,,,,,,,0,81,67
840,note_on,,275,0,1,,,,,,,,,,,,,,0,78,0
862,note_on,,22,0,1,,,,,,,,,,,,,,0,75,32
958,note_on,,96,0,1,,,,,,,,,,,,,,0,75,0
966,control_change,,8,0,1,,,,,,,,,,,,64,127,0,,
1146,note_on,,180,0,1,,,,,,,,,,,,,,0,80,61
1149,note_on,,3,0,1,,,,,,,,,,,,,,0,81,0
1149,control_change,,0,0,1,,,,,,,,,,,,64,0,0,,
1158,note_on,,9,0,1,,,,,,,,,,,,,,0,76,39
1238,note_on,,80,0,1,,,,,,,,,,,,,,0,76,0
1446,note_on,,208,0,1,,,,,,,,,,,,,,0,71,47
1480,note_on,,34,0,1,,,,,,,,,,,,,,0,80,0
1502,note_on,,22,0,1,,,,,,,,,,,,,,0,71,0
1502,control_change,,0,0,1,,,,,,,,,,,,64,127,0,,
1718,control_change,,216,0,1,,,,,,,,,,,,64,0,0,,
1750,note_on,,32,0,1,,,,,,,,,,,,,,0,71,60
1750,note_on,,0,0,1,,,,,,,,,,,,,,0,78,62
1800,note_on,,50,0,1,,,,,,,,,,,,,,0,78,0
1812,note_on,,12,0,1,,,,,,,,,,,,,,0,80,57
1866,note_on,,54,0,1,,,,,,,,,,,,,,0,80,0
1866,note_on,,0,0,1,,,,,,,,,,,,,,0,78,52
1936,note_on,,70,0,1,,,,,,,,,,,,,,0,78,0
1952,note_on,,16,0,1,,,,,,,,,,,,,,0,80,40
2014,note_on,,62,0,1,,,,,,,,,,,,,,0,78,57
2066,note_on,,52,0,1,,,,,,,,,,,,,,0,80,0
2152,note_on,,86,0,1,,,,,,,,,,,,,,0,71,0
2155,note_on,,3,0,1,,,,,,,,,,,,,,0,78,0
2178,control_change,,23,0,1,,,,,,,,,,,,64,127,0,,
2316,control_change,,138,0,1,,,,,,,,,,,,64,0,0,,
2336,note_on,,20,0,1,,,,,,,,,,,,,,0,78,59
2344,note_on,,8,0,1,,,,,,,,,,,,,,0,71,53
2388,note_on,,44,0,1,,,,,,,,,,,,,,0,78,0
2398,note_on,,10,0,1,,,,,,,,,,,,,,0,80,50
2454,note_on,,56,0,1,,,,,,,,,,,,,,0,80,0
2470,note_on,,16,0,1,,,,,,,,,,,,,,0,78,41
2556,note_on,,86,0,1,,,,,,,,,,,,,,0,78,0
2559,note_on,,3,0,1,,,,,,,,,,,,,,0,80,46
2630,note_on,,71,0,1,,,,,,,,,,,,,,0,78,58
2644,note_on,,14,0,1,,,,,,,,,,,,,,0,80,0
2724,note_on,,80,0,1,,,,,,,,,,,,,,0,78,0
2792,note_on,,68,0,1,,,,,,,,,,,,,,0,71,0
2794,control_change,,2,0,1,,,,,,,,,,,,64,127,0,,
2902,control_change,,108,0,1,,,,,,,,,,,,64,0,0,,
2964,note_on,,62,0,1,,,,,,,,,,,,,,0,78,49
2978,note_on,,14,0,1,,,,,,,,,,,,,,0,71,32
3018,note_on,,40,0,1,,,,,,,,,,,,,,0,78,0
3038,note_on,,20,0,1,,,,,,,,,,,,,,0,80,45
3096,note_on,,58,0,1,,,,,,,,,,,,,,0,80,0
3116,note_on,,20,0,1,,,,,,,,,,,,,,0,78,19
3182,note_on,,66,0,1,,,,,,,,,,,,,,0,80,41
3190,note_on,,8,0,1,,,,,,,,,,,,,,0,78,0
3246,note_on,,56,0,1,,,,,,,,,,,,,,0,80,0
3274,note_on,,28,0,1,,,,,,,,,,,,,,0,78,46
3396,note_on,,122,0,1,,,,,,,,,,,,,,0,71,0
3410,note_on,,14,0,1,,,,,,,,,,,,,,0,78,0
3424,control_change,,14,0,1,,,,,,,,,,,,64,127,0,,
3516,control_change,,92,0,1,,,,,,,,,,,,64,0,0,,
3608,note_on,,92,0,1,,,,,,,,,,,,,,0,83,101
3836,note_on,,228,0,1,,,,,,,,,,,,,,0,81,57
3838,note_on,,2,0,1,,,,,,,,,,,,,,0,83,0
3892,note_on,,54,0,1,,,,,,,,,,,,,,0,81,0
3898,note_on,,6,0,1,,,,,,,,,,,,,,0,80,68
4028,note_on,,130,0,1,,,,,,,,,,,,,,0,80,0
4186,note_on,,158,0,1,,,,,,,,,,,,,,0,78,50
4190,note_on,,4,0,1,,,,,,,,,,,,,,0,81,69
4514,note_on,,324,0,1,,,,,,,,,,,,,,0,78,0
4534,note_on,,20,0,1,,,,,,,,,,,,,,0,75,38
4764,note_on,,230,0,1,,,,,,,,,,,,,,0,75,0
4850,note_on,,86,0,1,,,,,,,,,,,,,,0,80,61
4858,note_on,,8,0,1,,,,,,,,,,,,,,0,76,42
4878,note_on,,20,0,1,,,,,,,,,,,,,,0,81,0
5174,note_on,,296,0,1,,,,,,,,,,,,,,0,76,0
5177,note_on,,3,0,1,,,,,,,,,,,,,,0,71,44
5254,note_on,,77,0,1,,,,,,,,,,,,,,0,71,0
5264,note_on,,10,0,1,,,,,,,,,,,,,,0,80,0
5282,control_change,,18,0,1,,,,,,,,,,,,64,127,0,,
5422,control_change,,140,0,1,,,,,,,,,,,,64,0,0,,
5488,note_on,,66,0,1,,,,,,,,,,,,,,0,78,69
5504,note_on,,16,0,1,,,,,,,,,,,,,,0,71,52
5534,note_on,,30,0,1,,,,,,,,,,,,,,0,78,0
5562,note_on,,28,0,1,,,,,,,,,,,,,,0,80,44
5612,note_on,,50,0,1,,,,,,,,,,,,,,0,78,45
5622,note_on,,10,0,1,,,,,,,,,,,,,,0,80,0
5694,note_on,,72,0,1,,,,,,,,,,,,,,0,78,0
5700,note_on,,6,0,1,,,,,,,,,,,,,,0,80,52
5764,note_on,,64,0,1,,,,,,,,,,,,,,0,78,57
5790,note_on,,26,0,1,,,,,,,,,,,,,,0,80,0
5858,note_on,,68,0,1,,,,,,,,,,,,,,0,78,0
5894,note_on,,36,0,1,,,,,,,,,,,,,,0,71,0
5912,control_change,,18,0,1,,,,,,,,,,,,64,127,0,,
6050,control_change,,138,0,1,,,,,,,,,,,,64,0,0,,
6094,note_on,,44,0,1,,,,,,,,,,,,,,0,78,53
6098,note_on,,4,0,1,,,,,,,,,,,,,,0,71,48
6144,note_on,,46,0,1,,,,,,,,,,,,,,0,78,0
6148,note_on,,4,0,1,,,,,,,,,,,,,,0,80,58
6200,note_on,,52,0,1,,,,,,,,,,,,,,0,80,0
6214,note_on,,14,0,1,,,,,,,,,,,,,,0,78,47
6290,note_on,,76,0,1,,,,,,,,,,,,,,0,78,0
6300,note_on,,10,0,1,,,,,,,,,,,,,,0,80,32
6364,note_on,,64,0,1,,,,,,,,,,,,,,0,80,0
6374,note_on,,10,0,1,,,,,,,,,,,,,,0,78,40
6524,note_on,,150,0,1,,,,,,,,,,,,,,0,71,0
6527,control_change,,3,0,1,,,,,,,,,,,,64,127,0,,
6554,note_on,,27,0,1,,,,,,,,,,,,,,0,78,0
6666,control_change,,112,0,1,,,,,,,,,,,,64,0,0,,
6726,note_on,,60,0,1,,,,,,,,,,,,,,0,78,42
6736,note_on,,10,0,1,,,,,,,,,,,,,,0,71,42
6780,note_on,,44,0,1,,,,,,,,,,,,,,0,78,0
6790,note_on,,10,0,1,,,,,,,,,,,,,,0,80,51
6850,note_on,,60,0,1,,,,,,,,,,,,,,0,80,0
6858,note_on,,8,0,1,,,,,,,,,,,,,,0,78,38
6934,note_on,,76,0,1,,,,,,,,,,,,,,0,78,0
6953,note_on,,19,0,1,,,,,,,,,,,,,,0,80,33
7016,note_on,,63,0,1,,,,,,,,,,,,,,0,80,0
7016,note_on,,0,0,1,,,,,,,,,,,,,,0,78,44
7158,control_change,,142,0,1,,,,,,,,,,,,64,127,0,,
7186,note_on,,28,0,1,,,,,,,,,,,,,,0,78,0
7210,note_on,,24,0,1,,,,,,,,,,,,,,0,71,0
7358,control_change,,148,0,1,,,,,,,,,,,,64,0,0,,
7388,note_on,,30,0,1,,,,,,,,,,,,,,0,71,84
7616,note_on,,228,0,1,,,,,,,,,,,,,,0,69,49
7619,note_on,,3,0,1,,,,,,,,,,,,,,0,71,0
7692,note_on,,73,0,1,,,,,,,,,,,,,,0,68,66
7702,note_on,,10,0,1,,,,,,,,,,,,,,0,69,0
7832,note_on,,130,0,1,,,,,,,,,,,,,,0,68,0
7986,note_on,,154,0,1,,,,,,,,,,,,,,0,69,66
7996,note_on,,10,0,1,,,,,,,,,,,,,,0,66,40
8292,note_on,,296,0,1,,,,,,,,,,,,,,0,63,55
8314,note_on,,22,0,1,,,,,,,,,,,,,,0,66,0
8372,note_on,,58,0,1,,,,,,,,,,,,,,0,63,0
8592,note_on,,220,0,1,,,,,,,,,,,,,,0,68,63
8602,note_on,,10,0,1,,,,,,,,,,,,,,0,64,57
8620,note_on,,18,0,1,,,,,,,,,,,,,,0,69,0
8906,note_on,,286,0,1,,,,,,,,,,,,,,0,64,0
8922,note_on,,16,0,1,,,,,,,,,,,,,,0,59,54
9082,note_on,,160,0,1,,,,,,,,,,,,,,0,59,0
9108,control_change,,26,0,1,,,,,,,,,,,,64,127,0,,
9126,note_on,,18,0,1,,,,,,,,,,,,,,0,68,0
9154,control_change,,28,0,1,,,,,,,,,,,,64,0,0,,
9238,note_on,,84,0,1,,,,,,,,,,,,,,0,59,49
9238,note_on,,0,0,1,,,,,,,,,,,,,,0,66,53
9280,note_on,,42,0,1,,,,,,,,,,,,,,0,68,66
9288,note_on,,8,0,1,,,,,,,,,,,,,,0,66,0
9336,note_on,,48,0,1,,,,,,,,,,,,,,0,68,0
9354,note_on,,18,0,1,,,,,,,,,,,,,,0,66,51
9422,note_on,,68,0,1,,,,,,,,,,,,,,0,66,0
9432,note_on,,10,0,1,,,,,,,,,,,,,,0,68,47
9534,note_on,,102,0,1,,,,,,,,,,,,,,0,66,45
9560,note_on,,26,0,1,,,,,,,,,,,,,,0,68,0
9600,control_change,,40,0,1,,,,,,,,,,,,64,127,0,,
9624,note_on,,24,0,1,,,,,,,,,,,,,,0,66,0
9640,note_on,,16,0,1,,,,,,,,,,,,,,0,59,0
9862,control_change,,222,0,1,,,,,,,,,,,,64,0,0,,
9904,note_on,,42,0,1,,,,,,,,,,,,,,0,78,58
9918,note_on,,14,0,1,,,,,,,,,,,,,,0,59,34
9954,note_on,,36,0,1,,,,,,,,,,,,,,0,78,0
9964,note_on,,10,0,1,,,,,,,,,,,,,,0,66,21
9967,note_on,,3,0,1,,,,,,,,,,,,,,0,80,55
10022,note_on,,55,0,1,,,,,,,,,,,,,,0,80,0
10034,note_on,,12,0,1,,,,,,,,,,,,,,0,78,37
10128,note_on,,94,0,1,,,,,,,,,,,,,,0,78,0
10128,note_on,,0,0,1,,,,,,,,,,,,,,0,80,40
10202,note_on,,74,0,1,,,,,,,,,,,,,,0,78,57
10204,note_on,,2,0,1,,,,,,,,,,,,,,0,80,0
10214,note_on,,10,0,1,,,,,,,,,,,,,,0,66,0
10300,note_on,,86,0,1,,,,,,,,,,,,,,0,78,0
10308,control_change,,8,0,1,,,,,,,,,,,,64,127,0,,
10318,note_on,,10,0,1,,,,,,,,,,,,,,0,59,0
10476,control_change,,158,0,1,,,,,,,,,,,,64,0,0,,
10546,note_on,,70,0,1,,,,,,,,,,,,,,0,78,44
10566,note_on,,20,0,1,,,,,,,,,,,,,,0,66,19
10578,note_on,,12,0,1,,,,,,,,,,,,,,0,59,29
10600,note_on,,22,0,1,,,,,,,,,,,,,,0,78,0
10600,note_on,,0,0,1,,,,,,,,,,,,,,0,80,57
10654,note_on,,54,0,1,,,,,,,,,,,,,,0,80,0
10670,note_on,,16,0,1,,,,,,,,,,,,,,0,78,47
10750,note_on,,80,0,1,,,,,,,,,,,,,,0,78,0
10760,note_on,,10,0,1,,,,,,,,,,,,,,0,80,36
10854,note_on,,94,0,1,,,,,,,,,,,,,,0,80,0
10890,note_on,,36,0,1,,,,,,,,,,,,,,0,78,37
10922,control_change,,32,0,1,,,,,,,,,,,,64,127,0,,
10950,note_on,,28,0,1,,,,,,,,,,,,,,0,78,0
10953,note_on,,3,0,1,,,,,,,,,,,,,,0,66,0
11116,note_on,,163,0,1,,,,,,,,,,,,,,0,59,0
11192,note_on,,76,0,1,,,,,,,,,,,,,,0,71,67
11214,control_change,,22,0,1,,,,,,,,,,,,64,0,0,,
11422,note_on,,208,0,1,,,,,,,,,,,,,,0,69,56
11436,note_on,,14,0,1,,,,,,,,,,,,,,0,71,0
11506,note_on,,70,0,1,,,,,,,,,,,,,,0,68,58
11508,note_on,,2,0,1,,,,,,,,,,,,,,0,69,0
11660,control_change,,152,0,1,,,,,,,,,,,,64,127,0,,
11672,note_on,,12,0,1,,,,,,,,,,,,,,0,68,0
11780,note_on,,108,0,1,,,,,,,,,,,,,,0,69,54
11798,control_change,,18,0,1,,,,,,,,,,,,64,0,0,,
11798,note_on,,0,0,1,,,,,,,,,,,,,,0,66,28
12112,note_on,,314,0,1,,,,,,,,,,,,,,0,66,0
12120,note_on,,8,0,1,,,,,,,,,,,,,,0,63,41
12304,control_change,,184,0,1,,,,,,,,,,,,64,127,0,,
12320,note_on,,16,0,1,,,,,,,,,,,,,,0,63,0
12428,note_on,,108,0,1,,,,,,,,,,,,,,0,68,45
12438,note_on,,10,0,1,,,,,,,,,,,,,,0,69,0
12442,note_on,,4,0,1,,,,,,,,,,,,,,0,64,36
12444,control_change,,2,0,1,,,,,,,,,,,,64,0,0,,
12758,note_on,,314,0,1,,,,,,,,,,,,,,0,59,44
12782,note_on,,24,0,1,,,,,,,,,,,,,,0,64,0
12812,control_change,,30,0,1,,,,,,,,,,,,64,127,0,,
12822,note_on,,10,0,1,,,,,,,,,,,,,,0,59,0
12914,note_on,,92,0,1,,,,,,,,,,,,,,0,68,0
13042,control_change,,128,0,1,,,,,,,,,,,,64,0,0,,
13060,note_on,,18,0,1,,,,,,,,,,,,,,0,66,53
13110,note_on,,50,0,1,,,,,,,,,,,,,,0,66,0
13112,note_on,,2,0,1,,,,,,,,,,,,,,0,59,24
13115,note_on,,3,0,1,,,,,,,,,,,,,,0,68,59
13178,note_on,,63,0,1,,,,,,,,,,,,,,0,68,0
13188,note_on,,10,0,1,,,,,,,,,,,,,,0,66,33
13260,note_on,,72,0,1,,,,,,,,,,,,,,0,66,0
13266,note_on,,6,0,1,,,,,,,,,,,,,,0,68,49
13348,note_on,,82,0,1,,,,,,,,,,,,,,0,66,43
13364,note_on,,16,0,1,,,,,,,,,,,,,,0,68,0
13426,note_on,,62,0,1,,,,,,,,,,,,,,0,66,0
13440,control_change,,14,0,1,,,,,,,,,,,,64,127,0,,
13468,note_on,,28,0,1,,,,,,,,,,,,,,0,59,0
13596,control_change,,128,0,1,,,,,,,,,,,,64,0,0,,
13688,note_on,,92,0,1,,,,,,,,,,,,,,0,78,62
13710,note_on,,22,0,1,,,,,,,,,,,,,,0,66,32
13724,note_on,,14,0,1,,,,,,,,,,,,,,0,59,25
13738,note_on,,14,0,1,,,,,,,,,,,,,,0,78,0
13758,note_on,,20,0,1,,,,,,,,,,,,,,0,80,52
13812,note_on,,54,0,1,,,,,,,,,,,,,,0,80,0
13836,note_on,,24,0,1,,,,,,,,,,,,,,0,78,23
13892,note_on,,56,0,1,,,,,,,,,,,,,,0,80,54
13902,note_on,,10,0,1,,,,,,,,,,,,,,0,78,0
13962,note_on,,60,0,1,,,,,,,,,,,,,,0,80,0
13974,note_on,,12,0,1,,,,,,,,,,,,,,0,78,48
14032,note_on,,58,0,1,,,,,,,,,,,,,,0,78,0
14066,note_on,,34,0,1,,,,,,,,,,,,,,0,80,40
14120,note_on,,54,0,1,,,,,,,,,,,,,,0,59,0
14120,note_on,,0,0,1,,,,,,,,,,,,,,0,78,38
14132,note_on,,12,0,1,,,,,,,,,,,,,,0,80,0
14132,control_change,,0,0,1,,,,,,,,,,,,64,127,0,,
14142,note_on,,10,0,1,,,,,,,,,,,,,,0,66,0
14250,note_on,,108,0,1,,,,,,,,,,,,,,0,78,0
14334,control_change,,84,0,1,,,,,,,,,,,,64,0,0,,
14396,note_on,,62,0,1,,,,,,,,,,,,,,0,66,27
14396,note_on,,0,0,1,,,,,,,,,,,,,,0,78,39
14408,note_on,,12,0,1,,,,,,,,,,,,,,0,59,32
14454,note_on,,46,0,1,,,,,,,,,,,,,,0,78,0
14468,note_on,,14,0,1,,,,,,,,,,,,,,0,80,34
14528,note_on,,60,0,1,,,,,,,,,,,,,,0,78,39
14533,note_on,,5,0,1,,,,,,,,,,,,,,0,80,0
14626,note_on,,93,0,1,,,,,,,,,,,,,,0,78,0
14626,note_on,,0,0,1,,,,,,,,,,,,,,0,80,29
14716,note_on,,90,0,1,,,,,,,,,,,,,,0,80,0
14748,note_on,,32,0,1,,,,,,,,,,,,,,0,78,32
14824,control_change,,76,0,1,,,,,,,,,,,,64,127,0,,
14834,note_on,,10,0,1,,,,,,,,,,,,,,0,66,0
14848,note_on,,14,0,1,,,,,,,,,,,,,,0,78,0
14882,note_on,,34,0,1,,,,,,,,,,,,,,0,59,0
15220,note_on,,338,0,1,,,,,,,,,,,,,,0,47,35
15378,control_change,,158,0,1,,,,,,,,,,,,64,0,0,,
15394,note_on,,16,0,1,,,,,,,,,,,,,,0,78,44
15508,note_on,,114,0,1,,,,,,,,,,,,,,0,78,0
15542,note_on,,34,0,1,,,,,,,,,,,,,,0,81,48
15668,note_on,,126,0,1,,,,,,,,,,,,,,0,80,52
15690,note_on,,22,0,1,,,,,,,,,,,,,,0,81,0
15700,control_change,,10,0,1,,,,,,,,,,,,64,127,0,,
15818,note_on,,118,0,1,,,,,,,,,,,,,,0,78,50
15828,note_on,,10,0,1,,,,,,,,,,,,,,0,80,0
15952,note_on,,124,0,1,,,,,,,,,,,,,,0,78,0
15964,note_on,,12,0,1,,,,,,,,,,,,,,0,76,46
16024,control_change,,60,0,1,,,,,,,,,,,,64,0,0,,
16094,note_on,,70,0,1,,,,,,,,,,,,,,0,75,55
16116,note_on,,22,0,1,,,,,,,,,,,,,,0,76,0
16238,note_on,,122,0,1,,,,,,,,,,,,,,0,73,49
16252,note_on,,14,0,1,,,,,,,,,,,,,,0,75,0
16254,control_change,,2,0,1,,,,,,,,,,,,64,127,0,,
16284,control_change,,30,0,1,,,,,,,,,,,,64,0,0,,
16396,note_on,,112,0,1,,,,,,,,,,,,,,0,71,59
16428,note_on,,32,0,1,,,,,,,,,,,,,,0,73,0
16516,note_on,,88,0,1,,,,,,,,,,,,,,0,71,0
16524,note_on,,8,0,1,,,,,,,,,,,,,,0,69,41
16660,note_on,,136,0,1,,,,,,,,,,,,,,0,68,52
16712,note_on,,52,0,1,,,,,,,,,,,,,,0,69,0
16796,note_on,,84,0,1,,,,,,,,,,,,,,0,66,47
16804,note_on,,8,0,1,,,,,,,,,,,,,,0,68,0
16942,note_on,,138,0,1,,,,,,,,,,,,,,0,66,0
16942,note_on,,0,0,1,,,,,,,,,,,,,,0,68,33
16982,note_on,,40,0,1,,,,,,,,,,,,,,0,52,31
16998,note_on,,16,0,1,,,,,,,,,,,,,,0,47,0
17106,note_on,,108,0,1,,,,,,,,,,,,,,0,68,0
17110,note_on,,4,0,1,,,,,,,,,,,,,,0,64,54
17218,note_on,,108,0,1,,,,,,,,,,,,,,0,68,41
17234,note_on,,16,0,1,,,,,,,,,,,,,,0,64,0
17382,note_on,,148,0,1,,,,,,,,,,,,,,0,66,52
17402,note_on,,20,0,1,,,,,,,,,,,,,,0,68,0
17482,control_change,,80,0,1,,,,,,,,,,,,64,127,0,,
17530,note_on,,48,0,1,,,,,,,,,,,,,,0,64,66
17538,note_on,,8,0,1,,,,,,,,,,,,,,0,66,0
17590,control_change,,52,0,1,,,,,,,,,,,,64,0,0,,
17660,note_on,,70,0,1,,,,,,,,,,,,,,0,63,72
17692,note_on,,32,0,1,,,,,,,,,,,,,,0,52,0
17698,note_on,,6,0,1,,,,,,,,,,,,,,0,64,0
17796,note_on,,98,0,1,,,,,,,,,,,,,,0,61,69
17838,note_on,,42,0,1,,,,,,,,,,,,,,0,63,0
17942,note_on,,104,0,1,,,,,,,,,,,,,,0,59,69
17980,note_on,,38,0,1,,,,,,,,,,,,,,0,61,0
18076,note_on,,96,0,1,,,,,,,,,,,,,,0,59,0
18084,note_on,,8,0,1,,,,,,,,,,,,,,0,57,65
18234,note_on,,150,0,1,,,,,,,,,,,,,,0,56,52
18250,note_on,,16,0,1,,,,,,,,,,,,,,0,57,0
18328,control_change,,78,0,1,,,,,,,,,,,,64,127,0,,
18368,note_on,,40,0,1,,,,,,,,,,,,,,0,54,74
18380,note_on,,12,0,1,,,,,,,,,,,,,,0,56,0
18512,note_on,,132,0,1,,,,,,,,,,,,,,0,54,0
18512,note_on,,0,0,1,,,,,,,,,,,,,,0,52,83
18660,note_on,,148,0,1,,,,,,,,,,,,,,0,51,68
18666,control_change,,6,0,1,,,,,,,,,,,,64,0,0,,
18688,note_on,,22,0,1,,,,,,,,,,,,,,0,52,0
18798,note_on,,110,0,1,,,,,,,,,,,,,,0,78,72
18940,note_on,,142,0,1,,,,,,,,,,,,,,0,81,75
18954,note_on,,14,0,1,,,,,,,,,,,,,,0,78,0
19018,control_change,,64,0,1,,,,,,,,,,,,64,127,0,,
19076,note_on,,58,0,1,,,,,,,,,,,,,,0,80,78
19081,note_on,,5,0,1,,,,,,,,,,,,,,0,51,0
19120,note_on,,39,0,1,,,,,,,,,,,,,,0,81,0
19156,control_change,,36,0,1,,,,,,,,,,,,64,0,0,,
19230,note_on,,74,0,1,,,,,,,,,,,,,,0,78,68
19240,note_on,,10,0,1,,,,,,,,,,,,,,0,51,52
19262,note_on,,22,0,1,,,,,,,,,,,,,,0,80,0
19374,note_on,,112,0,1,,,,,,,,,,,,,,0,76,54
19382,note_on,,8,0,1,,,,,,,,,,,,,,0,78,0
19480,control_change,,98,0,1,,,,,,,,,,,,64,127,0,,
19514,note_on,,34,0,1,,,,,,,,,,,,,,0,75,55
19534,note_on,,20,0,1,,,,,,,,,,,,,,0,76,0
19614,note_on,,80,0,1,,,,,,,,,,,,,,0,51,0
19652,note_on,,38,0,1,,,,,,,,,,,,,,0,73,51
19666,note_on,,14,0,1,,,,,,,,,,,,,,0,75,0
19726,control_change,,60,0,1,,,,,,,,,,,,64,0,0,,
19814,note_on,,88,0,1,,,,,,,,,,,,,,0,71,57
19817,note_on,,3,0,1,,,,,,,,,,,,,,0,73,0
19822,note_on,,5,0,1,,,,,,,,,,,,,,0,51,35
19946,note_on,,124,0,1,,,,,,,,,,,,,,0,71,0
19960,note_on,,14,0,1,,,,,,,,,,,,,,0,69,37
20018,control_change,,58,0,1,,,,,,,,,,,,64,127,0,,
20090,note_on,,72,0,1,,,,,,,,,,,,,,0,68,45
20100,note_on,,10,0,1,,,,,,,,,,,,,,0,69,0
20116,note_on,,16,0,1,,,,,,,,,,,,,,0,51,0
20170,note_on,,54,0,1,,,,,,,,,,,,,,0,68,0
20208,note_on,,38,0,1,,,,,,,,,,,,,,0,66,56
20252,note_on,,44,0,1,,,,,,,,,,,,,,0,66,0
20370,control_change,,118,0,1,,,,,,,,,,,,64,0,0,,
20400,note_on,,30,0,1,,,,,,,,,,,,,,0,68,61
20400,note_on,,0,0,1,,,,,,,,,,,,,,0,80,75
20416,note_on,,16,0,1,,,,,,,,,,,,,,0,52,38
20432,note_on,,16,0,1,,,,,,,,,,,,,,0,64,16
20436,note_on,,4,0,1,,,,,,,,,,,,,,0,59,26
20646,note_on,,210,0,1,,,,,,,,,,,,,,0,78,67
20684,note_on,,38,0,1,,,,,,,,,,,,,,0,80,0
20694,control_change,,10,0,1,,,,,,,,,,,,64,127,0,,
20742,note_on,,48,0,1,,,,,,,,,,,,,,0,76,65
20745,note_on,,3,0,1,,,,,,,,,,,,,,0,52,0
20752,note_on,,7,0,1,,,,,,,,,,,,,,0,59,0
20764,note_on,,12,0,1,,,,,,,,,,,,,,0,64,0
20780,note_on,,16,0,1,,,,,,,,,,,,,,0,78,0
20956,control_change,,176,0,1,,,,,,,,,,,,64,0,0,,
21018,note_on,,62,0,1,,,,,,,,,,,,,,0,64,38
21030,note_on,,12,0,1,,,,,,,,,,,,,,0,52,34
21034,note_on,,4,0,1,,,,,,,,,,,,,,0,59,32
21232,control_change,,198,0,1,,,,,,,,,,,,64,127,0,,
21314,note_on,,82,0,1,,,,,,,,,,,,,,0,75,61
21328,note_on,,14,0,1,,,,,,,,,,,,,,0,52,0
21340,note_on,,12,0,1,,,,,,,,,,,,,,0,76,0
21340,note_on,,0,0,1,,,,,,,,,,,,,,0,59,0
21343,note_on,,3,0,1,,,,,,,,,,,,,,0,64,0
21554,control_change,,211,0,1,,,,,,,,,,,,64,0,0,,
21621,note_on,,67,0,1,,,,,,,,,,,,,,0,64,42
21621,note_on,,0,0,1,,,,,,,,,,,,,,0,59,36
21630,note_on,,9,0,1,,,,,,,,,,,,,,0,52,41
21830,control_change,,200,0,1,,,,,,,,,,,,64,127,0,,
21856,note_on,,26,0,1,,,,,,,,,,,,,,0,52,0
21860,note_on,,4,0,1,,,,,,,,,,,,,,0,75,0
21886,note_on,,26,0,1,,,,,,,,,,,,,,0,64,0
21904,note_on,,18,0,1,,,,,,,,,,,,,,0,59,0
21904,note_on,,0,0,1,,,,,,,,,,,,,,0,76,72
21946,note_on,,42,0,1,,,,,,,,,,,,,,0,68,0
22026,note_on,,80,0,1,,,,,,,,,,,,,,0,76,0
22184,control_change,,158,0,1,,,,,,,,,,,,64,0,0,,
22196,note_on,,12,0,1,,,,,,,,,,,,,,0,70,59
22196,note_on,,0,0,1,,,,,,,,,,,,,,0,80,75
22202,note_on,,6,0,1,,,,,,,,,,,,,,0,61,32
22204,note_on,,2,0,1,,,,,,,,,,,,,,0,64,31
22208,note_on,,4,0,1,,,,,,,,,,,,,,0,54,31
22420,note_on,,212,0,1,,,,,,,,,,,,,,0,78,56
22448,note_on,,28,0,1,,,,,,,,,,,,,,0,80,0
22500,note_on,,52,0,1,,,,,,,,,,,,,,0,78,0
22508,note_on,,8,0,1,,,,,,,,,,,,,,0,64,0
22508,note_on,,0,0,1,,,,,,,,,,,,,,0,76,47
22508,control_change,,0,0,1,,,,,,,,,,,,64,127,0,,
22550,note_on,,42,0,1,,,,,,,,,,,,,,0,61,0
22560,note_on,,10,0,1,,,,,,,,,,,,,,0,54,0
22706,control_change,,146,0,1,,,,,,,,,,,,64,0,0,,
22800,note_on,,94,0,1,,,,,,,,,,,,,,0,54,35
22802,note_on,,2,0,1,,,,,,,,,,,,,,0,61,27
22802,note_on,,0,0,1,,,,,,,,,,,,,,0,64,31
23060,control_change,,258,0,1,,,,,,,,,,,,64,127,0,,
23088,note_on,,28,0,1,,,,,,,,,,,,,,0,64,0
23098,note_on,,10,0,1,,,,,,,,,,,,,,0,76,0
23100,note_on,,2,0,1,,,,,,,,,,,,,,0,75,36
23134,note_on,,34,0,1,,,,,,,,,,,,,,0,54,0
23138,note_on,,4,0,1,,,,,,,,,,,,,,0,61,0
23322,control_change,,184,0,1,,,,,,,,,,,,64,0,0,,
23388,note_on,,66,0,1,,,,,,,,,,,,,,0,54,39
23392,note_on,,4,0,1,,,,,,,,,,,,,,0,61,33
23400,note_on,,8,0,1,,,,,,,,,,,,,,0,64,22
23628,control_change,,228,0,1,,,,,,,,,,,,64,127,0,,
23648,note_on,,20,0,1,,,,,,,,,,,,,,0,64,0
23656,note_on,,8,0,1,,,,,,,,,,,,,,0,75,0
23674,note_on,,18,0,1,,,,,,,,,,,,,,0,54,0
23674,note_on,,0,0,1,,,,,,,,,,,,,,0,76,55
23680,note_on,,6,0,1,,,,,,,,,,,,,,0,61,0
23758,note_on,,78,0,1,,,,,,,,,,,,,,0,70,0
23798,note_on,,40,0,1,,,,,,,,,,,,,,0,76,0
23954,note_on,,156,0,1,,,,,,,,,,,,,,0,80,76
23960,note_on,,6,0,1,,,,,,,,,,,,,,0,71,72
23966,control_change,,6,0,1,,,,,,,,,,,,64,0,0,,
23976,note_on,,10,0,1,,,,,,,,,,,,,,0,56,24
23984,note_on,,8,0,1,,,,,,,,,,,,,,0,59,20
23988,note_on,,4,0,1,,,,,,,,,,,,,,0,64,31
24198,note_on,,210,0,1,,,,,,,,,,,,,,0,78,62
24208,note_on,,10,0,1,,,,,,,,,,,,,,0,80,0
24272,note_on,,64,0,1,,,,,,,,,,,,,,0,59,0
24274,control_change,,2,0,1,,,,,,,,,,,,64,127,0,,
24286,note_on,,12,0,1,,,,,,,,,,,,,,0,76,70
24288,note_on,,2,0,1,,,,,,,,,,,,,,0,64,0
24305,note_on,,17,0,1,,,,,,,,,,,,,,0,56,0
24338,note_on,,33,0,1,,,,,,,,,,,,,,0,78,0
24490,control_change,,152,0,1,,,,,,,,,,,,64,0,0,,
24522,note_on,,32,0,1,,,,,,,,,,,,,,0,56,35
24528,note_on,,6,0,1,,,,,,,,,,,,,,0,64,43
24538,note_on,,10,0,1,,,,,,,,,,,,,,0,59,36
24796,control_change,,258,0,1,,,,,,,,,,,,64,127,0,,
24812,note_on,,16,0,1,,,,,,,,,,,,,,0,75,66
24815,note_on,,3,0,1,,,,,,,,,,,,,,0,59,0
24830,note_on,,15,0,1,,,,,,,,,,,,,,0,64,0
24840,note_on,,10,0,1,,,,,,,,,,,,,,0,76,0
24840,note_on,,0,0,1,,,,,,,,,,,,,,0,56,0
25058,control_change,,218,0,1,,,,,,,,,,,,64,0,0,,
25092,note_on,,34,0,1,,,,,,,,,,,,,,0,56,42
25102,note_on,,10,0,1,,,,,,,,,,,,,,0,64,47
25108,note_on,,6,0,1,,,,,,,,,,,,,,0,59,43
25302,control_change,,194,0,1,,,,,,,,,,,,64,127,0,,
25360,note_on,,58,0,1,,,,,,,,,,,,,,0,75,0
25360,note_on,,0,0,1,,,,,,,,,,,,,,0,59,0
25380,note_on,,20,0,1,,,,,,,,,,,,,,0,64,0
25388,note_on,,8,0,1,,,,,,,,,,,,,,0,71,0
25388,note_on,,0,0,1,,,,,,,,,,,,,,0,56,0
25396,note_on,,8,0,1,,,,,,,,,,,,,,0,76,73
25468,note_on,,72,0,1,,,,,,,,,,,,,,0,76,0
25642,control_change,,174,0,1,,,,,,,,,,,,64,0,0,,
25660,note_on,,18,0,1,,,,,,,,,,,,,,0,80,79
25672,note_on,,12,0,1,,,,,,,,,,,,,,0,61,34
25674,note_on,,2,0,1,,,,,,,,,,,,,,0,58,23
25678,note_on,,4,0,1,,,,,,,,,,,,,,0,73,41
25684,note_on,,6,0,1,,,,,,,,,,,,,,0,64,38
25862,note_on,,178,0,1,,,,,,,,,,,,,,0,80,0
25886,note_on,,24,0,1,,,,,,,,,,,,,,0,78,54
25902,control_change,,16,0,1,,,,,,,,,,,,64,127,0,,
25962,note_on,,60,0,1,,,,,,,,,,,,,,0,76,62
25964,note_on,,2,0,1,,,,,,,,,,,,,,0,78,0
25978,note_on,,14,0,1,,,,,,,,,,,,,,0,61,0
25986,note_on,,8,0,1,,,,,,,,,,,,,,0,64,0
25996,note_on,,10,0,1,,,,,,,,,,,,,,0,58,0
26148,control_change,,152,0,1,,,,,,,,,,,,64,0,0,,
26220,note_on,,72,0,1,,,,,,,,,,,,,,0,58,29
26232,note_on,,12,0,1,,,,,,,,,,,,,,0,64,40
26236,note_on,,4,0,1,,,,,,,,,,,,,,0,61,35
26486,control_change,,250,0,1,,,,,,,,,,,,64,127,0,,
26528,note_on,,42,0,1,,,,,,,,,,,,,,0,64,0
26534,note_on,,6,0,1,,,,,,,,,,,,,,0,75,52
26544,note_on,,10,0,1,,,,,,,,,,,,,,0,61,0
26548,note_on,,4,0,1,,,,,,,,,,,,,,0,76,0
26550,note_on,,2,0,1,,,,,,,,,,,,,,0,58,0
26762,control_change,,212,0,1,,,,,,,,,,,,64,0,0,,
26824,note_on,,62,0,1,,,,,,,,,,,,,,0,58,17
26834,note_on,,10,0,1,,,,,,,,,,,,,,0,61,30
26834,note_on,,0,0,1,,,,,,,,,,,,,,0,64,31
27060,note_on,,226,0,1,,,,,,,,,,,,,,0,64,0
27070,control_change,,10,0,1,,,,,,,,,,,,64,127,0,,
27110,note_on,,40,0,1,,,,,,,,,,,,,,0,75,0
27114,note_on,,4,0,1,,,,,,,,,,,,,,0,61,0
27122,note_on,,8,0,1,,,,,,,,,,,,,,0,76,46
27148,note_on,,26,0,1,,,,,,,,,,,,,,0,58,0
27182,note_on,,34,0,1,,,,,,,,,,,,,,0,76,0
27222,note_on,,40,0,1,,,,,,,,,,,,,,0,73,0
27408,control_change,,186,0,1,,,,,,,,,,,,64,0,0,,
27413,note_on,,5,0,1,,,,,,,,,,,,,,0,78,61
27418,note_on,,5,0,1,,,,,,,,,,,,,,0,66,43
27426,note_on,,8,0,1,,,,,,,,,,,,,,0,47,36
27428,note_on,,2,0,1,,,,,,,,,,,,,,0,59,34
27432,note_on,,4,0,1,,,,,,,,,,,,,,0,54,37
27666,note_on,,234,0,1,,,,,,,,,,,,,,0,76,44
27668,note_on,,2,0,1,,,,,,,,,,,,,,0,78,0
27700,control_change,,32,0,1,,,,,,,,,,,,64,127,0,,
27710,note_on,,10,0,1,,,,,,,,,,,,,,0,54,0
27712,note_on,,2,0,1,,,,,,,,,,,,,,0,59,0
27718,note_on,,6,0,1,,,,,,,,,,,,,,0,47,0
27720,note_on,,2,0,1,,,,,,,,,,,,,,0,76,0
27734,note_on,,14,0,1,,,,,,,,,,,,,,0,75,44
27900,control_change,,166,0,1,,,,,,,,,,,,64,0,0,,
28004,note_on,,104,0,1,,,,,,,,,,,,,,0,59,36
28007,note_on,,3,0,1,,,,,,,,,,,,,,0,54,43
28020,note_on,,13,0,1,,,,,,,,,,,,,,0,47,31
28238,control_change,,218,0,1,,,,,,,,,,,,64,127,0,,
28272,note_on,,34,0,1,,,,,,,,,,,,,,0,73,52
28290,note_on,,18,0,1,,,,,,,,,,,,,,0,59,0
28293,note_on,,3,0,1,,,,,,,,,,,,,,0,75,0
28302,note_on,,9,0,1,,,,,,,,,,,,,,0,54,0
28316,note_on,,14,0,1,,,,,,,,,,,,,,0,47,0
28498,control_change,,182,0,1,,,,,,,,,,,,64,0,0,,
28582,note_on,,84,0,1,,,,,,,,,,,,,,0,47,39
28584,note_on,,2,0,1,,,,,,,,,,,,,,0,59,37
28590,note_on,,6,0,1,,,,,,,,,,,,,,0,54,43
28748,note_on,,158,0,1,,,,,,,,,,,,,,0,47,0
28760,control_change,,12,0,1,,,,,,,,,,,,64,127,0,,
28794,note_on,,34,0,1,,,,,,,,,,,,,,0,59,0
28796,note_on,,2,0,1,,,,,,,,,,,,,,0,54,0
28852,note_on,,56,0,1,,,,,,,,,,,,,,0,73,0
28852,note_on,,0,0,1,,,,,,,,,,,,,,0,75,60
28944,note_on,,92,0,1,,,,,,,,,,,,,,0,66,0
29002,note_on,,58,0,1,,,,,,,,,,,,,,0,75,0
29084,control_change,,82,0,1,,,,,,,,,,,,64,0,0,,
29138,note_on,,54,0,1,,,,,,,,,,,,,,0,49,28
29140,note_on,,2,0,1,,,,,,,,,,,,,,0,61,32
29144,note_on,,4,0,1,,,,,,,,,,,,,,0,76,61
29148,note_on,,4,0,1,,,,,,,,,,,,,,0,64,67
29150,note_on,,2,0,1,,,,,,,,,,,,,,0,52,45
29390,control_change,,240,0,1,,,,,,,,,,,,64,127,0,,
29396,note_on,,6,0,1,,,,,,,,,,,,,,0,52,0
29400,note_on,,4,0,1,,,,,,,,,,,,,,0,75,67
29418,note_on,,18,0,1,,,,,,,,,,,,,,0,76,0
29438,note_on,,20,0,1,,,,,,,,,,,,,,0,49,0
29440,note_on,,2,0,1,,,,,,,,,,,,,,0,61,0
29484,note_on,,44,0,1,,,,,,,,,,,,,,0,73,59
29508,note_on,,24,0,1,,,,,,,,,,,,,,0,75,0
29682,control_change,,174,0,1,,,,,,,,,,,,64,0,0,,
29738,note_on,,56,0,1,,,,,,,,,,,,,,0,61,42
29752,note_on,,14,0,1,,,,,,,,,,,,,,0,52,48
29752,note_on,,0,0,1,,,,,,,,,,,,,,0,59,39
29990,control_change,,238,0,1,,,,,,,,,,,,64,127,0,,
30058,note_on,,68,0,1,,,,,,,,,,,,,,0,59,0
30058,note_on,,0,0,1,,,,,,,,,,,,,,0,71,68
30062,note_on,,4,0,1,,,,,,,,,,,,,,0,61,0
30082,note_on,,20,0,1,,,,,,,,,,,,,,0,64,0
30114,note_on,,32,0,1,,,,,,,,,,,,,,0,52,0
30122,note_on,,8,0,1,,,,,,,,,,,,,,0,73,0
30348,note_on,,226,0,1,,,,,,,,,,,,,,0,61,40
30350,note_on,,2,0,1,,,,,,,,,,,,,,0,70,62
30362,note_on,,12,0,1,,,,,,,,,,,,,,0,59,27
30376,note_on,,14,0,1,,,,,,,,,,,,,,0,53,51
30384,note_on,,8,0,1,,,,,,,,,,,,,,0,71,0
30528,control_change,,144,0,1,,,,,,,,,,,,64,0,0,,
30662,note_on,,134,0,1,,,,,,,,,,,,,,0,71,76
30702,note_on,,40,0,1,,,,,,,,,,,,,,0,70,0
30708,note_on,,6,0,1,,,,,,,,,,,,,,0,61,0
30722,note_on,,14,0,1,,,,,,,,,,,,,,0,59,0
30774,control_change,,52,0,1,,,,,,,,,,,,64,127,0,,
30886,note_on,,112,0,1,,,,,,,,,,,,,,0,71,0
30928,note_on,,42,0,1,,,,,,,,,,,,,,0,73,48
30958,note_on,,30,0,1,,,,,,,,,,,,,,0,53,0
30966,note_on,,8,0,1,,,,,,,,,,,,,,0,54,38
30970,note_on,,4,0,1,,,,,,,,,,,,,,0,61,30
30988,note_on,,18,0,1,,,,,,,,,,,,,,0,73,0
31020,control_change,,32,0,1,,,,,,,,,,,,64,0,0,,
31032,note_on,,12,0,1,,,,,,,,,,,,,,0,71,54
31090,note_on,,58,0,1,,,,,,,,,,,,,,0,71,0
31100,note_on,,10,0,1,,,,,,,,,,,,,,0,73,33
31156,note_on,,56,0,1,,,,,,,,,,,,,,0,73,0
31162,note_on,,6,0,1,,,,,,,,,,,,,,0,71,70
31220,note_on,,58,0,1,,,,,,,,,,,,,,0,71,0
31230,note_on,,10,0,1,,,,,,,,,,,,,,0,73,43
31302,note_on,,72,0,1,,,,,,,,,,,,,,0,71,47
31304,note_on,,2,0,1,,,,,,,,,,,,,,0,73,0
31326,control_change,,22,0,1,,,,,,,,,,,,64,127,0,,
31354,note_on,,28,0,1,,,,,,,,,,,,,,0,61,0
31362,note_on,,8,0,1,,,,,,,,,,,,,,0,71,0
31394,note_on,,32,0,1,,,,,,,,,,,,,,0,73,37
31430,note_on,,36,0,1,,,,,,,,,,,,,,0,71,64
31458,note_on,,28,0,1,,,,,,,,,,,,,,0,73,0
31510,note_on,,52,0,1,,,,,,,,,,,,,,0,71,0
31536,note_on,,26,0,1,,,,,,,,,,,,,,0,73,34
31612,note_on,,76,0,1,,,,,,,,,,,,,,0,71,36
31680,control_change,,68,0,1,,,,,,,,,,,,64,0,0,,
31682,note_on,,2,0,1,,,,,,,,,,,,,,0,73,0
31742,note_on,,60,0,1,,,,,,,,,,,,,,0,71,0
31774,note_on,,32,0,1,,,,,,,,,,,,,,0,70,23
31814,note_on,,40,0,1,,,,,,,,,,,,,,0,54,0
31822,note_on,,8,0,1,,,,,,,,,,,,,,0,42,21
32386,note_on,,564,0,1,,,,,,,,,,,,,,0,42,0
32416,note_on,,30,0,1,,,,,,,,,,,,,,0,70,0
33206,note_on,,790,0,1,,,,,,,,,,,,,,0,73,50
33214,note_on,,8,0,1,,,,,,,,,,,,,,0,66,36
33220,note_on,,6,0,1,,,,,,,,,,,,,,0,42,24
33302,note_on,,82,0,1,,,,,,,,,,,,,,0,66,0
33310,note_on,,8,0,1,,,,,,,,,,,,,,0,73,0
33340,control_change,,30,0,1,,,,,,,,,,,,64,127,0,,
33536,note_on,,196,0,1,,,,,,,,,,,,,,0,66,22
33536,note_on,,0,0,1,,,,,,,,,,,,,,0,73,32
33554,note_on,,18,0,1,,,,,,,,,,,,,,0,42,0
33570,control_change,,16,0,1,,,,,,,,,,,,64,0,0,,
33589,note_on,,19,0,1,,,,,,,,,,,,,,0,66,0
33602,note_on,,13,0,1,,,,,,,,,,,,,,0,73,0
33655,note_on,,53,0,1,,,,,,,,,,,,,,0,66,22
33656,note_on,,1,0,1,,,,,,,,,,,,,,0,73,37
33708,note_on,,52,0,1,,,,,,,,,,,,,,0,66,0
33708,note_on,,0,0,1,,,,,,,,,,,,,,0,73,0
33792,note_on,,84,0,1,,,,,,,,,,,,,,0,73,30
33802,note_on,,10,0,1,,,,,,,,,,,,,,0,66,31
33812,note_on,,10,0,1,,,,,,,,,,,,,,0,42,25
33868,note_on,,56,0,1,,,,,,,,,,,,,,0,73,0
33886,note_on,,18,0,1,,,,,,,,,,,,,,0,66,0
34110,note_on,,224,0,1,,,,,,,,,,,,,,0,66,37
34112,note_on,,2,0,1,,,,,,,,,,,,,,0,73,43
34118,note_on,,6,0,1,,,,,,,,,,,,,,0,42,0
34166,note_on,,48,0,1,,,,,,,,,,,,,,0,66,0
34166,note_on,,0,0,1,,,,,,,,,,,,,,0,73,0
34420,note_on,,254,0,1,,,,,,,,,,,,,,0,66,31
34420,note_on,,0,0,1,,,,,,,,,,,,,,0,75,45
34434,note_on,,14,0,1,,,,,,,,,,,,,,0,42,19
34677,note_on,,243,0,1,,,,,,,,,,,,,,0,42,0
34677,control_change,,0,0,1,,,,,,,,,,,,64,127,0,,
34684,note_on,,7,0,1,,,,,,,,,,,,,,0,66,0
34718,note_on,,34,0,1,,,,,,,,,,,,,,0,75,0
34720,note_on,,2,0,1,,,,,,,,,,,,,,0,78,47
34788,note_on,,68,0,1,,,,,,,,,,,,,,0,78,0
35014,note_on,,226,0,1,,,,,,,,,,,,,,0,61,60
35014,note_on,,0,0,1,,,,,,,,,,,,,,0,73,48
35016,note_on,,2,0,1,,,,,,,,,,,,,,0,54,61
35020,note_on,,4,0,1,,,,,,,,,,,,,,0,66,33
35062,note_on,,42,0,1,,,,,,,,,,,,,,0,61,0
35065,note_on,,3,0,1,,,,,,,,,,,,,,0,54,0
35318,note_on,,253,0,1,,,,,,,,,,,,,,0,61,64
35322,control_change,,4,0,1,,,,,,,,,,,,64,0,0,,
35328,note_on,,6,0,1,,,,,,,,,,,,,,0,54,64
35366,note_on,,38,0,1,,,,,,,,,,,,,,0,61,0
35374,note_on,,8,0,1,,,,,,,,,,,,,,0,54,0
35450,note_on,,76,0,1,,,,,,,,,,,,,,0,54,65
35456,note_on,,6,0,1,,,,,,,,,,,,,,0,61,50
35516,note_on,,60,0,1,,,,,,,,,,,,,,0,54,0
35516,note_on,,0,0,1,,,,,,,,,,,,,,0,61,0
35594,note_on,,78,0,1,,,,,,,,,,,,,,0,61,59
35606,note_on,,12,0,1,,,,,,,,,,,,,,0,54,52
35608,note_on,,2,0,1,,,,,,,,,,,,,,0,70,47
35644,note_on,,36,0,1,,,,,,,,,,,,,,0,61,0
35660,note_on,,16,0,1,,,,,,,,,,,,,,0,54,0
35666,note_on,,6,0,1,,,,,,,,,,,,,,0,73,0
35678,note_on,,12,0,1,,,,,,,,,,,,,,0,66,0
35918,note_on,,240,0,1,,,,,,,,,,,,,,0,61,58
35928,note_on,,10,0,1,,,,,,,,,,,,,,0,54,53
35968,note_on,,40,0,1,,,,,,,,,,,,,,0,61,0
35980,note_on,,12,0,1,,,,,,,,,,,,,,0,54,0
36218,note_on,,238,0,1,,,,,,,,,,,,,,0,63,67
36230,note_on,,12,0,1,,,,,,,,,,,,,,0,54,50
36248,note_on,,18,0,1,,,,,,,,,,,,,,0,71,52
36252,note_on,,4,0,1,,,,,,,,,,,,,,0,70,0
36296,note_on,,44,0,1,,,,,,,,,,,,,,0,63,0
36412,control_change,,116,0,1,,,,,,,,,,,,64,127,0,,
36504,note_on,,92,0,1,,,,,,,,,,,,,,0,66,41
36554,note_on,,50,0,1,,,,,,,,,,,,,,0,54,0
36558,note_on,,4,0,1,,,,,,,,,,,,,,0,66,0
36642,control_change,,84,0,1,,,,,,,,,,,,64,0,0,,
36684,note_on,,42,0,1,,,,,,,,,,,,,,0,71,0
36824,note_on,,140,0,1,,,,,,,,,,,,,,0,66,35
36828,note_on,,4,0,1,,,,,,,,,,,,,,0,73,44
36858,note_on,,30,0,1,,,,,,,,,,,,,,0,42,31
36898,note_on,,40,0,1,,,,,,,,,,,,,,0,73,0
36942,note_on,,44,0,1,,,,,,,,,,,,,,0,66,0
37058,control_change,,116,0,1,,,,,,,,,,,,64,127,0,,
37150,note_on,,92,0,1,,,,,,,,,,,,,,0,66,39
37152,note_on,,2,0,1,,,,,,,,,,,,,,0,73,50
37180,control_change,,28,0,1,,,,,,,,,,,,64,0,0,,
37200,note_on,,20,0,1,,,,,,,,,,,,,,0,73,0
37210,note_on,,10,0,1,,,,,,,,,,,,,,0,66,0
37226,note_on,,16,0,1,,,,,,,,,,,,,,0,42,0
37260,note_on,,34,0,1,,,,,,,,,,,,,,0,73,53
37278,note_on,,18,0,1,,,,,,,,,,,,,,0,66,53
37312,note_on,,34,0,1,,,,,,,,,,,,,,0,73,0
37332,note_on,,20,0,1,,,,,,,,,,,,,,0,66,0
37404,note_on,,72,0,1,,,,,,,,,,,,,,0,66,55
37408,note_on,,4,0,1,,,,,,,,,,,,,,0,73,43
37420,note_on,,12,0,1,,,,,,,,,,,,,,0,42,36
37490,note_on,,70,0,1,,,,,,,,,,,,,,0,73,0
37502,note_on,,12,0,1,,,,,,,,,,,,,,0,66,0
37704,note_on,,202,0,1,,,,,,,,,,,,,,0,73,59
37708,note_on,,4,0,1,,,,,,,,,,,,,,0,66,46
37740,note_on,,32,0,1,,,,,,,,,,,,,,0,42,0
37762,note_on,,22,0,1,,,,,,,,,,,,,,0,73,0
37764,note_on,,2,0,1,,,,,,,,,,,,,,0,66,0
38014,note_on,,250,0,1,,,,,,,,,,,,,,0,75,55
38018,note_on,,4,0,1,,,,,,,,,,,,,,0,66,37
38038,note_on,,20,0,1,,,,,,,,,,,,,,0,42,29
38240,control_change,,202,0,1,,,,,,,,,,,,64,127,0,,
38244,note_on,,4,0,1,,,,,,,,,,,,,,0,66,0
38300,note_on,,56,0,1,,,,,,,,,,,,,,0,75,0
38308,note_on,,8,0,1,,,,,,,,,,,,,,0,78,44
38334,note_on,,26,0,1,,,,,,,,,,,,,,0,42,0
38600,note_on,,266,0,1,,,,,,,,,,,,,,0,73,50
38612,note_on,,12,0,1,,,,,,,,,,,,,,0,78,0
38624,control_change,,12,0,1,,,,,,,,,,,,64,0,0,,
38642,note_on,,18,0,1,,,,,,,,,,,,,,0,61,21
38646,note_on,,4,0,1,,,,,,,,,,,,,,0,54,34
38772,note_on,,126,0,1,,,,,,,,,,,,,,0,73,0
38772,note_on,,0,0,1,,,,,,,,,,,,,,0,70,50
38828,note_on,,56,0,1,,,,,,,,,,,,,,0,70,0
38856,control_change,,28,0,1,,,,,,,,,,,,64,127,0,,
38902,note_on,,46,0,1,,,,,,,,,,,,,,0,70,49
38968,note_on,,66,0,1,,,,,,,,,,,,,,0,61,0
38994,note_on,,26,0,1,,,,,,,,,,,,,,0,54,0
39046,note_on,,52,0,1,,,,,,,,,,,,,,0,70,0
39052,note_on,,6,0,1,,,,,,,,,,,,,,0,71,70
39094,note_on,,42,0,1,,,,,,,,,,,,,,0,71,0
39162,control_change,,68,0,1,,,,,,,,,,,,64,0,0,,
39208,note_on,,46,0,1,,,,,,,,,,,,,,0,71,42
39212,note_on,,4,0,1,,,,,,,,,,,,,,0,61,36
39234,note_on,,22,0,1,,,,,,,,,,,,,,0,54,29
39346,note_on,,112,0,1,,,,,,,,,,,,,,0,71,0
39349,note_on,,3,0,1,,,,,,,,,,,,,,0,73,59
39394,control_change,,45,0,1,,,,,,,,,,,,64,127,0,,
39406,note_on,,12,0,1,,,,,,,,,,,,,,0,73,0
39478,note_on,,72,0,1,,,,,,,,,,,,,,0,61,0
39502,note_on,,24,0,1,,,,,,,,,,,,,,0,73,52
39584,note_on,,82,0,1,,,,,,,,,,,,,,0,54,0
39638,note_on,,54,0,1,,,,,,,,,,,,,,0,75,68
39646,note_on,,8,0,1,,,,,,,,,,,,,,0,73,0
39678,note_on,,32,0,1,,,,,,,,,,,,,,0,75,0
39762,control_change,,84,0,1,,,,,,,,,,,,64,0,0,,
39786,note_on,,24,0,1,,,,,,,,,,,,,,0,75,49
39794,note_on,,8,0,1,,,,,,,,,,,,,,0,61,43
39812,note_on,,18,0,1,,,,,,,,,,,,,,0,54,32
39928,note_on,,116,0,1,,,,,,,,,,,,,,0,76,69
39950,note_on,,22,0,1,,,,,,,,,,,,,,0,75,0
39962,control_change,,12,0,1,,,,,,,,,,,,64,127,0,,
39968,note_on,,6,0,1,,,,,,,,,,,,,,0,76,0
40042,note_on,,74,0,1,,,,,,,,,,,,,,0,61,0
40064,note_on,,22,0,1,,,,,,,,,,,,,,0,54,0
40088,note_on,,24,0,1,,,,,,,,,,,,,,0,76,60
40206,note_on,,118,0,1,,,,,,,,,,,,,,0,78,80
40224,note_on,,18,0,1,,,,,,,,,,,,,,0,76,0
40246,note_on,,22,0,1,,,,,,,,,,,,,,0,78,0
40330,control_change,,84,0,1,,,,,,,,,,,,64,0,0,,
40360,note_on,,30,0,1,,,,,,,,,,,,,,0,61,36
40372,note_on,,12,0,1,,,,,,,,,,,,,,0,58,26
40380,note_on,,8,0,1,,,,,,,,,,,,,,0,78,79
40388,note_on,,8,0,1,,,,,,,,,,,,,,0,52,28
40514,note_on,,126,0,1,,,,,,,,,,,,,,0,80,75
40546,note_on,,32,0,1,,,,,,,,,,,,,,0,78,0
40558,note_on,,12,0,1,,,,,,,,,,,,,,0,80,0
40560,control_change,,2,0,1,,,,,,,,,,,,64,127,0,,
40670,note_on,,110,0,1,,,,,,,,,,,,,,0,52,0
40673,note_on,,3,0,1,,,,,,,,,,,,,,0,80,70
40684,note_on,,11,0,1,,,,,,,,,,,,,,0,58,0
40687,note_on,,3,0,1,,,,,,,,,,,,,,0,61,0
40804,note_on,,117,0,1,,,,,,,,,,,,,,0,82,69
40808,note_on,,4,0,1,,,,,,,,,,,,,,0,80,0
40856,note_on,,48,0,1,,,,,,,,,,,,,,0,82,0
41004,note_on,,148,0,1,,,,,,,,,,,,,,0,82,54
41006,note_on,,2,0,1,,,,,,,,,,,,,,0,61,26
41014,note_on,,8,0,1,,,,,,,,,,,,,,0,52,23
41026,note_on,,12,0,1,,,,,,,,,,,,,,0,58,16
41038,control_change,,12,0,1,,,,,,,,,,,,64,0,0,,
41314,control_change,,276,0,1,,,,,,,,,,,,64,127,0,,
41386,note_on,,72,0,1,,,,,,,,,,,,,,0,61,0
41398,note_on,,12,0,1,,,,,,,,,,,,,,0,52,0
41414,note_on,,16,0,1,,,,,,,,,,,,,,0,58,0
41618,note_on,,204,0,1,,,,,,,,,,,,,,0,61,52
41636,note_on,,18,0,1,,,,,,,,,,,,,,0,52,48
41644,note_on,,8,0,1,,,,,,,,,,,,,,0,58,23
41652,control_change,,8,0,1,,,,,,,,,,,,64,0,0,,
41820,control_change,,168,0,1,,,,,,,,,,,,64,127,0,,
41934,note_on,,114,0,1,,,,,,,,,,,,,,0,83,89
41948,note_on,,14,0,1,,,,,,,,,,,,,,0,52,0
41950,note_on,,2,0,1,,,,,,,,,,,,,,0,58,0
41954,note_on,,4,0,1,,,,,,,,,,,,,,0,82,0
41954,note_on,,0,0,1,,,,,,,,,,,,,,0,61,0
42056,note_on,,102,0,1,,,,,,,,,,,,,,0,80,73
42078,note_on,,22,0,1,,,,,,,,,,,,,,0,83,0
42098,note_on,,20,0,1,,,,,,,,,,,,,,0,80,0
42214,note_on,,116,0,1,,,,,,,,,,,,,,0,80,67
42222,note_on,,8,0,1,,,,,,,,,,,,,,0,59,42
42228,note_on,,6,0,1,,,,,,,,,,,,,,0,51,35
42236,control_change,,8,0,1,,,,,,,,,,,,64,0,0,,
42248,note_on,,12,0,1,,,,,,,,,,,,,,0,54,30
42370,note_on,,122,0,1,,,,,,,,,,,,,,0,78,64
42430,note_on,,60,0,1,,,,,,,,,,,,,,0,80,0
42498,note_on,,68,0,1,,,,,,,,,,,,,,0,78,0
42518,note_on,,20,0,1,,,,,,,,,,,,,,0,83,79
42626,note_on,,108,0,1,,,,,,,,,,,,,,0,59,0
42634,note_on,,8,0,1,,,,,,,,,,,,,,0,54,0
42638,note_on,,4,0,1,,,,,,,,,,,,,,0,83,0
42644,note_on,,6,0,1,,,,,,,,,,,,,,0,80,70
42666,control_change,,22,0,1,,,,,,,,,,,,64,127,0,,
42692,note_on,,26,0,1,,,,,,,,,,,,,,0,51,0
42696,note_on,,4,0,1,,,,,,,,,,,,,,0,80,0
42778,note_on,,82,0,1,,,,,,,,,,,,,,0,80,55
42824,note_on,,46,0,1,,,,,,,,,,,,,,0,51,18
42830,note_on,,6,0,1,,,,,,,,,,,,,,0,59,31
42832,note_on,,2,0,1,,,,,,,,,,,,,,0,54,30
42888,note_on,,56,0,1,,,,,,,,,,,,,,0,80,0
42888,note_on,,0,0,1,,,,,,,,,,,,,,0,78,59
42940,note_on,,52,0,1,,,,,,,,,,,,,,0,78,0
42958,note_on,,18,0,1,,,,,,,,,,,,,,0,80,59
43018,note_on,,60,0,1,,,,,,,,,,,,,,0,80,0
43052,note_on,,34,0,1,,,,,,,,,,,,,,0,78,43
43108,note_on,,56,0,1,,,,,,,,,,,,,,0,78,0
43122,note_on,,14,0,1,,,,,,,,,,,,,,0,80,49
43154,note_on,,32,0,1,,,,,,,,,,,,,,0,59,0
43174,note_on,,20,0,1,,,,,,,,,,,,,,0,80,0
43190,note_on,,16,0,1,,,,,,,,,,,,,,0,78,46
43196,note_on,,6,0,1,,,,,,,,,,,,,,0,54,0
43214,note_on,,18,0,1,,,,,,,,,,,,,,0,51,0
43256,note_on,,42,0,1,,,,,,,,,,,,,,0,78,0
43258,note_on,,2,0,1,,,,,,,,,,,,,,0,80,49
43314,note_on,,56,0,1,,,,,,,,,,,,,,0,80,0
43334,note_on,,20,0,1,,,,,,,,,,,,,,0,78,52
43398,note_on,,64,0,1,,,,,,,,,,,,,,0,78,0
43401,note_on,,3,0,1,,,,,,,,,,,,,,0,80,51
43452,note_on,,51,0,1,,,,,,,,,,,,,,0,59,26
43455,note_on,,3,0,1,,,,,,,,,,,,,,0,80,0
43462,note_on,,7,0,1,,,,,,,,,,,,,,0,51,18
43464,note_on,,2,0,1,,,,,,,,,,,,,,0,54,32
43472,note_on,,8,0,1,,,,,,,,,,,,,,0,78,53
43520,note_on,,48,0,1,,,,,,,,,,,,,,0,80,65
43528,note_on,,8,0,1,,,,,,,,,,,,,,0,78,0
43566,note_on,,38,0,1,,,,,,,,,,,,,,0,59,0
43592,note_on,,26,0,1,,,,,,,,,,,,,,0,80,0
43602,note_on,,10,0,1,,,,,,,,,,,,,,0,78,42
43638,note_on,,36,0,1,,,,,,,,,,,,,,0,54,0
43644,note_on,,6,0,1,,,,,,,,,,,,,,0,51,0
43654,note_on,,10,0,1,,,,,,,,,,,,,,0,80,73
43660,note_on,,6,0,1,,,,,,,,,,,,,,0,78,0
43724,note_on,,64,0,1,,,,,,,,,,,,,,0,78,67
43764,note_on,,40,0,1,,,,,,,,,,,,,,0,80,0
43784,note_on,,20,0,1,,,,,,,,,,,,,,0,78,0
43796,note_on,,12,0,1,,,,,,,,,,,,,,0,76,58
43904,note_on,,108,0,1,,,,,,,,,,,,,,0,75,76
43930,note_on,,26,0,1,,,,,,,,,,,,,,0,76,0
43946,note_on,,16,0,1,,,,,,,,,,,,,,0,75,0
44002,control_change,,56,0,1,,,,,,,,,,,,64,0,0,,
44044,note_on,,42,0,1,,,,,,,,,,,,,,0,64,36
44046,note_on,,2,0,1,,,,,,,,,,,,,,0,75,63
44058,note_on,,12,0,1,,,,,,,,,,,,,,0,59,38
44062,note_on,,4,0,1,,,,,,,,,,,,,,0,52,19
44200,note_on,,138,0,1,,,,,,,,,,,,,,0,73,61
44214,note_on,,14,0,1,,,,,,,,,,,,,,0,75,0
44342,note_on,,128,0,1,,,,,,,,,,,,,,0,73,0
44342,note_on,,0,0,1,,,,,,,,,,,,,,0,75,60
44376,note_on,,34,0,1,,,,,,,,,,,,,,0,64,0
44376,note_on,,0,0,1,,,,,,,,,,,,,,0,59,0
44386,control_change,,10,0,1,,,,,,,,,,,,64,127,0,,
44488,note_on,,102,0,1,,,,,,,,,,,,,,0,75,0
44491,note_on,,3,0,1,,,,,,,,,,,,,,0,76,63
44632,note_on,,141,0,1,,,,,,,,,,,,,,0,52,0
44632,control_change,,0,0,1,,,,,,,,,,,,64,0,0,,
44652,note_on,,20,0,1,,,,,,,,,,,,,,0,63,37
44660,note_on,,8,0,1,,,,,,,,,,,,,,0,54,20
44662,note_on,,2,0,1,,,,,,,,,,,,,,0,71,78
44664,note_on,,2,0,1,,,,,,,,,,,,,,0,59,19
44688,note_on,,24,0,1,,,,,,,,,,,,,,0,76,0
44992,note_on,,304,0,1,,,,,,,,,,,,,,0,54,0
45012,note_on,,20,0,1,,,,,,,,,,,,,,0,59,0
45032,control_change,,20,0,1,,,,,,,,,,,,64,127,0,,
45070,note_on,,38,0,1,,,,,,,,,,,,,,0,63,0
45160,note_on,,90,0,1,,,,,,,,,,,,,,0,71,0
45260,note_on,,100,0,1,,,,,,,,,,,,,,0,70,42
45270,note_on,,10,0,1,,,,,,,,,,,,,,0,61,39
45276,note_on,,6,0,1,,,,,,,,,,,,,,0,54,36
45314,note_on,,38,0,1,,,,,,,,,,,,,,0,71,63
45317,note_on,,3,0,1,,,,,,,,,,,,,,0,70,0
45364,note_on,,47,0,1,,,,,,,,,,,,,,0,71,0
45384,note_on,,20,0,1,,,,,,,,,,,,,,0,70,47
45434,note_on,,50,0,1,,,,,,,,,,,,,,0,71,64
45444,note_on,,10,0,1,,,,,,,,,,,,,,0,70,0
45498,note_on,,54,0,1,,,,,,,,,,,,,,0,71,0
45508,control_change,,10,0,1,,,,,,,,,,,,64,0,0,,
45512,note_on,,4,0,1,,,,,,,,,,,,,,0,70,45
45576,note_on,,64,0,1,,,,,,,,,,,,,,0,70,0
45578,note_on,,2,0,1,,,,,,,,,,,,,,0,71,58
45638,note_on,,60,0,1,,,,,,,,,,,,,,0,70,54
45682,note_on,,44,0,1,,,,,,,,,,,,,,0,71,0
45730,note_on,,48,0,1,,,,,,,,,,,,,,0,68,40
45742,note_on,,12,0,1,,,,,,,,,,,,,,0,70,0
45804,note_on,,62,0,1,,,,,,,,,,,,,,0,68,0
45806,note_on,,2,0,1,,,,,,,,,,,,,,0,70,48
45880,note_on,,74,0,1,,,,,,,,,,,,,,0,61,0
45892,note_on,,12,0,1,,,,,,,,,,,,,,0,70,0
45896,note_on,,4,0,1,,,,,,,,,,,,,,0,71,62
45906,note_on,,10,0,1,,,,,,,,,,,,,,0,54,0
45906,note_on,,0,0,1,,,,,,,,,,,,,,0,56,29
45914,note_on,,8,0,1,,,,,,,,,,,,,,0,59,30
46056,note_on,,142,0,1,,,,,,,,,,,,,,0,73,53
46066,note_on,,10,0,1,,,,,,,,,,,,,,0,71,0
46104,note_on,,38,0,1,,,,,,,,,,,,,,0,73,0
46120,control_change,,16,0,1,,,,,,,,,,,,64,127,0,,
46170,note_on,,50,0,1,,,,,,,,,,,,,,0,73,52
46314,note_on,,144,0,1,,,,,,,,,,,,,,0,59,0
46322,note_on,,8,0,1,,,,,,,,,,,,,,0,75,70
46354,note_on,,32,0,1,,,,,,,,,,,,,,0,73,0
46357,note_on,,3,0,1,,,,,,,,,,,,,,0,56,0
46372,note_on,,15,0,1,,,,,,,,,,,,,,0,75,0
46446,control_change,,74,0,1,,,,,,,,,,,,64,0,0,,
46452,note_on,,6,0,1,,,,,,,,,,,,,,0,75,68
46484,note_on,,32,0,1,,,,,,,,,,,,,,0,56,24
46492,note_on,,8,0,1,,,,,,,,,,,,,,0,59,41
46606,note_on,,114,0,1,,,,,,,,,,,,,,0,76,74
46638,note_on,,32,0,1,,,,,,,,,,,,,,0,75,0
46644,note_on,,6,0,1,,,,,,,,,,,,,,0,76,0
46660,control_change,,16,0,1,,,,,,,,,,,,64,127,0,,
46722,control_change,,62,0,1,,,,,,,,,,,,64,0,0,,
46746,note_on,,24,0,1,,,,,,,,,,,,,,0,76,61
46788,note_on,,42,0,1,,,,,,,,,,,,,,0,59,0
46872,note_on,,84,0,1,,,,,,,,,,,,,,0,78,79
46874,note_on,,2,0,1,,,,,,,,,,,,,,0,76,0
46906,control_change,,32,0,1,,,,,,,,,,,,64,127,0,,
46950,note_on,,44,0,1,,,,,,,,,,,,,,0,78,0
47004,note_on,,54,0,1,,,,,,,,,,,,,,0,56,0
47042,note_on,,38,0,1,,,,,,,,,,,,,,0,59,27
47042,note_on,,0,0,1,,,,,,,,,,,,,,0,80,62
47056,note_on,,14,0,1,,,,,,,,,,,,,,0,52,35
47059,control_change,,3,0,1,,,,,,,,,,,,64,0,0,,
47180,note_on,,121,0,1,,,,,,,,,,,,,,0,80,0
47198,note_on,,18,0,1,,,,,,,,,,,,,,0,78,44
47288,note_on,,90,0,1,,,,,,,,,,,,,,0,78,0
47298,note_on,,10,0,1,,,,,,,,,,,,,,0,59,0
47336,control_change,,38,0,1,,,,,,,,,,,,64,127,0,,
47344,note_on,,8,0,1,,,,,,,,,,,,,,0,80,39
47408,note_on,,64,0,1,,,,,,,,,,,,,,0,80,0
47508,note_on,,100,0,1,,,,,,,,,,,,,,0,71,39
47520,control_change,,12,0,1,,,,,,,,,,,,64,0,0,,
47552,note_on,,32,0,1,,,,,,,,,,,,,,0,52,0
47570,note_on,,18,0,1,,,,,,,,,,,,,,0,71,0
47668,note_on,,98,0,1,,,,,,,,,,,,,,0,42,38
47674,note_on,,6,0,1,,,,,,,,,,,,,,0,66,30
47676,note_on,,2,0,1,,,,,,,,,,,,,,0,73,32
47760,note_on,,84,0,1,,,,,,,,,,,,,,0,66,0
47842,note_on,,82,0,1,,,,,,,,,,,,,,0,73,0
47858,control_change,,16,0,1,,,,,,,,,,,,64,127,0,,
47978,note_on,,120,0,1,,,,,,,,,,,,,,0,66,39
47982,control_change,,4,0,1,,,,,,,,,,,,64,0,0,,
47994,note_on,,12,0,1,,,,,,,,,,,,,,0,73,39
48008,note_on,,14,0,1,,,,,,,,,,,,,,0,42,0
48034,note_on,,26,0,1,,,,,,,,,,,,,,0,66,0
48048,note_on,,14,0,1,,,,,,,,,,,,,,0,73,0
48100,note_on,,52,0,1,,,,,,,,,,,,,,0,66,49
48110,note_on,,10,0,1,,,,,,,,,,,,,,0,73,61
48156,note_on,,46,0,1,,,,,,,,,,,,,,0,73,0
48164,note_on,,8,0,1,,,,,,,,,,,,,,0,66,0
48226,note_on,,62,0,1,,,,,,,,,,,,,,0,73,50
48242,note_on,,16,0,1,,,,,,,,,,,,,,0,66,58
48248,note_on,,6,0,1,,,,,,,,,,,,,,0,42,35
48308,note_on,,60,0,1,,,,,,,,,,,,,,0,66,0
48316,note_on,,8,0,1,,,,,,,,,,,,,,0,73,0
48534,note_on,,218,0,1,,,,,,,,,,,,,,0,73,56
48534,note_on,,0,0,1,,,,,,,,,,,,,,0,66,46
48582,note_on,,48,0,1,,,,,,,,,,,,,,0,73,0
48588,note_on,,6,0,1,,,,,,,,,,,,,,0,66,0
48646,note_on,,58,0,1,,,,,,,,,,,,,,0,42,0
48848,note_on,,202,0,1,,,,,,,,,,,,,,0,66,32
48856,note_on,,8,0,1,,,,,,,,,,,,,,0,75,46
48858,note_on,,2,0,1,,,,,,,,,,,,,,0,42,31
49148,note_on,,290,0,1,,,,,,,,,,,,,,0,75,0
49150,note_on,,2,0,1,,,,,,,,,,,,,,0,66,0
49160,note_on,,10,0,1,,,,,,,,,,,,,,0,78,45
49216,note_on,,56,0,1,,,,,,,,,,,,,,0,42,0
49288,control_change,,72,0,1,,,,,,,,,,,,64,127,0,,
49332,note_on,,44,0,1,,,,,,,,,,,,,,0,78,0
49442,note_on,,110,0,1,,,,,,,,,,,,,,0,61,62
49442,note_on,,0,0,1,,,,,,,,,,,,,,0,54,67
49462,note_on,,20,0,1,,,,,,,,,,,,,,0,73,45
49462,note_on,,0,0,1,,,,,,,,,,,,,,0,66,36
49486,note_on,,24,0,1,,,,,,,,,,,,,,0,54,0
49488,note_on,,2,0,1,,,,,,,,,,,,,,0,61,0
49738,note_on,,250,0,1,,,,,,,,,,,,,,0,61,72
49748,note_on,,10,0,1,,,,,,,,,,,,,,0,54,68
49748,control_change,,0,0,1,,,,,,,,,,,,64,0,0,,
49786,note_on,,38,0,1,,,,,,,,,,,,,,0,61,0
49792,note_on,,6,0,1,,,,,,,,,,,,,,0,54,0
49862,note_on,,70,0,1,,,,,,,,,,,,,,0,54,68
49862,note_on,,0,0,1,,,,,,,,,,,,,,0,61,60
49936,note_on,,74,0,1,,,,,,,,,,,,,,0,61,0
49954,note_on,,18,0,1,,,,,,,,,,,,,,0,54,0
50006,note_on,,52,0,1,,,,,,,,,,,,,,0,61,75
50014,note_on,,8,0,1,,,,,,,,,,,,,,0,54,80
50024,note_on,,10,0,1,,,,,,,,,,,,,,0,70,44
50058,note_on,,34,0,1,,,,,,,,,,,,,,0,66,0
50058,note_on,,0,0,1,,,,,,,,,,,,,,0,54,0
50072,note_on,,14,0,1,,,,,,,,,,,,,,0,61,0
50080,note_on,,8,0,1,,,,,,,,,,,,,,0,73,0
50304,note_on,,224,0,1,,,,,,,,,,,,,,0,61,78
50308,note_on,,4,0,1,,,,,,,,,,,,,,0,54,81
50346,note_on,,38,0,1,,,,,,,,,,,,,,0,54,0
50350,note_on,,4,0,1,,,,,,,,,,,,,,0,61,0
50610,note_on,,260,0,1,,,,,,,,,,,,,,0,63,80
50616,note_on,,6,0,1,,,,,,,,,,,,,,0,70,0
50620,note_on,,4,0,1,,,,,,,,,,,,,,0,54,65
50626,note_on,,6,0,1,,,,,,,,,,,,,,0,71,51
50690,note_on,,64,0,1,,,,,,,,,,,,,,0,71,0
50698,note_on,,8,0,1,,,,,,,,,,,,,,0,73,42
50758,note_on,,60,0,1,,,,,,,,,,,,,,0,73,0
50772,note_on,,14,0,1,,,,,,,,,,,,,,0,71,49
50832,note_on,,60,0,1,,,,,,,,,,,,,,0,71,0
50832,note_on,,0,0,1,,,,,,,,,,,,,,0,73,53
50868,note_on,,36,0,1,,,,,,,,,,,,,,0,63,0
50896,note_on,,28,0,1,,,,,,,,,,,,,,0,66,64
50898,note_on,,2,0,1,,,,,,,,,,,,,,0,73,0
50906,note_on,,8,0,1,,,,,,,,,,,,,,0,71,57
50940,note_on,,34,0,1,,,,,,,,,,,,,,0,66,0
50958,note_on,,18,0,1,,,,,,,,,,,,,,0,71,0
50972,note_on,,14,0,1,,,,,,,,,,,,,,0,73,58
50990,note_on,,18,0,1,,,,,,,,,,,,,,0,54,0
51012,note_on,,22,0,1,,,,,,,,,,,,,,0,71,79
51030,note_on,,18,0,1,,,,,,,,,,,,,,0,73,0
51080,note_on,,50,0,1,,,,,,,,,,,,,,0,71,0
51100,note_on,,20,0,1,,,,,,,,,,,,,,0,70,59
51148,note_on,,48,0,1,,,,,,,,,,,,,,0,70,0
51148,note_on,,0,0,1,,,,,,,,,,,,,,0,71,81
51242,note_on,,94,0,1,,,,,,,,,,,,,,0,73,72
51252,note_on,,10,0,1,,,,,,,,,,,,,,0,66,35
51255,note_on,,3,0,1,,,,,,,,,,,,,,0,42,45
51266,note_on,,11,0,1,,,,,,,,,,,,,,0,71,0
51444,note_on,,178,0,1,,,,,,,,,,,,,,0,66,0
51458,note_on,,14,0,1,,,,,,,,,,,,,,0,73,0
51470,control_change,,12,0,1,,,,,,,,,,,,64,127,0,,
51532,note_on,,62,0,1,,,,,,,,,,,,,,0,73,56
51534,note_on,,2,0,1,,,,,,,,,,,,,,0,66,43
51586,note_on,,52,0,1,,,,,,,,,,,,,,0,73,0
51598,note_on,,12,0,1,,,,,,,,,,,,,,0,66,0
51624,control_change,,26,0,1,,,,,,,,,,,,64,0,0,,
51658,note_on,,34,0,1,,,,,,,,,,,,,,0,73,55
51660,note_on,,2,0,1,,,,,,,,,,,,,,0,42,0
51666,note_on,,6,0,1,,,,,,,,,,,,,,0,66,49
51714,note_on,,48,0,1,,,,,,,,,,,,,,0,73,0
51722,note_on,,8,0,1,,,,,,,,,,,,,,0,66,0
51796,note_on,,74,0,1,,,,,,,,,,,,,,0,66,48
51799,note_on,,3,0,1,,,,,,,,,,,,,,0,73,50
51830,note_on,,31,0,1,,,,,,,,,,,,,,0,42,27
51874,note_on,,44,0,1,,,,,,,,,,,,,,0,66,0
51877,note_on,,3,0,1,,,,,,,,,,,,,,0,73,0
52118,note_on,,241,0,1,,,,,,,,,,,,,,0,73,51
52128,note_on,,10,0,1,,,,,,,,,,,,,,0,66,36
52180,note_on,,52,0,1,,,,,,,,,,,,,,0,73,0
52190,note_on,,10,0,1,,,,,,,,,,,,,,0,66,0
52252,note_on,,62,0,1,,,,,,,,,,,,,,0,42,0
52428,note_on,,176,0,1,,,,,,,,,,,,,,0,75,42
52428,note_on,,0,0,1,,,,,,,,,,,,,,0,66,27
52436,note_on,,8,0,1,,,,,,,,,,,,,,0,42,25
52698,note_on,,262,0,1,,,,,,,,,,,,,,0,75,0
52738,note_on,,40,0,1,,,,,,,,,,,,,,0,66,0
52741,note_on,,3,0,1,,,,,,,,,,,,,,0,78,34
52814,note_on,,73,0,1,,,,,,,,,,,,,,0,42,0
52822,control_change,,8,0,1,,,,,,,,,,,,64,127,0,,
53060,note_on,,238,0,1,,,,,,,,,,,,,,0,61,15
53060,note_on,,0,0,1,,,,,,,,,,,,,,0,73,34
53070,note_on,,10,0,1,,,,,,,,,,,,,,0,54,28
53072,note_on,,2,0,1,,,,,,,,,,,,,,0,78,0
53082,control_change,,10,0,1,,,,,,,,,,,,64,0,0,,
53142,note_on,,60,0,1,,,,,,,,,,,,,,0,73,0
53244,note_on,,102,0,1,,,,,,,,,,,,,,0,70,25
53298,control_change,,54,0,1,,,,,,,,,,,,64,127,0,,
53312,note_on,,14,0,1,,,,,,,,,,,,,,0,70,0
53374,note_on,,62,0,1,,,,,,,,,,,,,,0,70,49
53406,note_on,,32,0,1,,,,,,,,,,,,,,0,54,0
53420,note_on,,14,0,1,,,,,,,,,,,,,,0,61,0
53536,note_on,,116,0,1,,,,,,,,,,,,,,0,71,61
53550,note_on,,14,0,1,,,,,,,,,,,,,,0,70,0
53582,note_on,,32,0,1,,,,,,,,,,,,,,0,71,0
53652,control_change,,70,0,1,,,,,,,,,,,,64,0,0,,
53672,note_on,,20,0,1,,,,,,,,,,,,,,0,71,47
53675,note_on,,3,0,1,,,,,,,,,,,,,,0,61,43
53690,note_on,,15,0,1,,,,,,,,,,,,,,0,54,23
53826,note_on,,136,0,1,,,,,,,,,,,,,,0,73,61
53844,note_on,,18,0,1,,,,,,,,,,,,,,0,71,0
53874,note_on,,30,0,1,,,,,,,,,,,,,,0,73,0
53928,control_change,,54,0,1,,,,,,,,,,,,64,127,0,,
53978,note_on,,50,0,1,,,,,,,,,,,,,,0,73,61
54060,note_on,,82,0,1,,,,,,,,,,,,,,0,61,0
54060,note_on,,0,0,1,,,,,,,,,,,,,,0,54,0
54126,note_on,,66,0,1,,,,,,,,,,,,,,0,75,71
54154,note_on,,28,0,1,,,,,,,,,,,,,,0,73,0
54180,note_on,,26,0,1,,,,,,,,,,,,,,0,75,0
54236,control_change,,56,0,1,,,,,,,,,,,,64,0,0,,
54260,note_on,,24,0,1,,,,,,,,,,,,,,0,61,47
54270,note_on,,10,0,1,,,,,,,,,,,,,,0,75,67
54270,note_on,,0,0,1,,,,,,,,,,,,,,0,54,33
54408,note_on,,138,0,1,,,,,,,,,,,,,,0,76,72
54440,note_on,,32,0,1,,,,,,,,,,,,,,0,75,0
54452,note_on,,12,0,1,,,,,,,,,,,,,,0,76,0
54482,control_change,,30,0,1,,,,,,,,,,,,64,127,0,,
54556,note_on,,74,0,1,,,,,,,,,,,,,,0,61,0
54556,note_on,,0,0,1,,,,,,,,,,,,,,0,76,66
54592,note_on,,36,0,1,,,,,,,,,,,,,,0,54,0
54682,note_on,,90,0,1,,,,,,,,,,,,,,0,78,83
54712,note_on,,30,0,1,,,,,,,,,,,,,,0,76,0
54740,note_on,,28,0,1,,,,,,,,,,,,,,0,78,0
54788,control_change,,48,0,1,,,,,,,,,,,,64,0,0,,
54820,note_on,,32,0,1,,,,,,,,,,,,,,0,61,40
54834,note_on,,14,0,1,,,,,,,,,,,,,,0,58,27
54844,note_on,,10,0,1,,,,,,,,,,,,,,0,78,81
54848,note_on,,4,0,1,,,,,,,,,,,,,,0,52,34
54986,note_on,,138,0,1,,,,,,,,,,,,,,0,80,79
55022,note_on,,36,0,1,,,,,,,,,,,,,,0,78,0
55034,control_change,,12,0,1,,,,,,,,,,,,64,127,0,,
55054,note_on,,20,0,1,,,,,,,,,,,,,,0,80,0
55138,note_on,,84,0,1,,,,,,,,,,,,,,0,80,76
55194,note_on,,56,0,1,,,,,,,,,,,,,,0,61,0
55214,note_on,,20,0,1,,,,,,,,,,,,,,0,58,0
55217,note_on,,3,0,1,,,,,,,,,,,,,,0,52,0
55288,note_on,,71,0,1,,,,,,,,,,,,,,0,82,72
55318,note_on,,30,0,1,,,,,,,,,,,,,,0,80,0
55346,note_on,,28,0,1,,,,,,,,,,,,,,0,82,0
55450,control_change,,104,0,1,,,,,,,,,,,,64,0,0,,
55453,note_on,,3,0,1,,,,,,,,,,,,,,0,61,38
55466,note_on,,13,0,1,,,,,,,,,,,,,,0,82,65
55468,note_on,,2,0,1,,,,,,,,,,,,,,0,58,24
55471,note_on,,3,0,1,,,,,,,,,,,,,,0,52,44
55772,control_change,,301,0,1,,,,,,,,,,,,64,127,0,,
55802,note_on,,30,0,1,,,,,,,,,,,,,,0,61,0
55804,note_on,,2,0,1,,,,,,,,,,,,,,0,52,0
55832,note_on,,28,0,1,,,,,,,,,,,,,,0,58,0
56096,control_change,,264,0,1,,,,,,,,,,,,64,0,0,,
56112,note_on,,16,0,1,,,,,,,,,,,,,,0,61,39
56140,note_on,,28,0,1,,,,,,,,,,,,,,0,58,25
56166,note_on,,26,0,1,,,,,,,,,,,,,,0,52,10
56372,control_change,,206,0,1,,,,,,,,,,,,64,127,0,,
56434,note_on,,62,0,1,,,,,,,,,,,,,,0,58,0
56464,note_on,,30,0,1,,,,,,,,,,,,,,0,83,76
56470,note_on,,6,0,1,,,,,,,,,,,,,,0,61,0
56470,note_on,,0,0,1,,,,,,,,,,,,,,0,52,0
56492,note_on,,22,0,1,,,,,,,,,,,,,,0,82,0
56560,note_on,,68,0,1,,,,,,,,,,,,,,0,83,0
56578,note_on,,18,0,1,,,,,,,,,,,,,,0,80,66
56620,note_on,,42,0,1,,,,,,,,,,,,,,0,80,0
56734,note_on,,114,0,1,,,,,,,,,,,,,,0,80,46
56740,control_change,,6,0,1,,,,,,,,,,,,64,0,0,,
56742,note_on,,2,0,1,,,,,,,,,,,,,,0,59,28
56750,note_on,,8,0,1,,,,,,,,,,,,,,0,51,23
56756,note_on,,6,0,1,,,,,,,,,,,,,,0,54,21
56900,note_on,,144,0,1,,,,,,,,,,,,,,0,78,56
56934,note_on,,34,0,1,,,,,,,,,,,,,,0,80,0
57052,note_on,,118,0,1,,,,,,,,,,,,,,0,78,0
57082,note_on,,30,0,1,,,,,,,,,,,,,,0,83,71
57126,note_on,,44,0,1,,,,,,,,,,,,,,0,59,0
57138,note_on,,12,0,1,,,,,,,,,,,,,,0,54,0
57140,control_change,,2,0,1,,,,,,,,,,,,64,127,0,,
57174,note_on,,34,0,1,,,,,,,,,,,,,,0,51,0
57192,note_on,,18,0,1,,,,,,,,,,,,,,0,83,0
57228,note_on,,36,0,1,,,,,,,,,,,,,,0,80,64
57270,note_on,,42,0,1,,,,,,,,,,,,,,0,80,0
57372,note_on,,102,0,1,,,,,,,,,,,,,,0,80,44
57374,note_on,,2,0,1,,,,,,,,,,,,,,0,51,23
57382,note_on,,8,0,1,,,,,,,,,,,,,,0,59,28
57394,note_on,,12,0,1,,,,,,,,,,,,,,0,54,26
57432,note_on,,38,0,1,,,,,,,,,,,,,,0,80,0
57482,note_on,,50,0,1,,,,,,,,,,,,,,0,78,41
57538,note_on,,56,0,1,,,,,,,,,,,,,,0,78,0
57544,note_on,,6,0,1,,,,,,,,,,,,,,0,80,50
57598,note_on,,54,0,1,,,,,,,,,,,,,,0,80,0
57610,note_on,,12,0,1,,,,,,,,,,,,,,0,78,41
57682,note_on,,72,0,1,,,,,,,,,,,,,,0,78,0
57682,note_on,,0,0,1,,,,,,,,,,,,,,0,80,47
57688,note_on,,6,0,1,,,,,,,,,,,,,,0,59,0
57740,note_on,,52,0,1,,,,,,,,,,,,,,0,54,0
57740,note_on,,0,0,1,,,,,,,,,,,,,,0,80,0
57758,note_on,,18,0,1,,,,,,,,,,,,,,0,51,0
57761,note_on,,3,0,1,,,,,,,,,,,,,,0,78,50
57830,note_on,,69,0,1,,,,,,,,,,,,,,0,78,0
57844,note_on,,14,0,1,,,,,,,,,,,,,,0,80,46
57896,note_on,,52,0,1,,,,,,,,,,,,,,0,80,0
57908,note_on,,12,0,1,,,,,,,,,,,,,,0,78,54
57974,note_on,,66,0,1,,,,,,,,,,,,,,0,78,0
57982,note_on,,8,0,1,,,,,,,,,,,,,,0,80,45
58002,note_on,,20,0,1,,,,,,,,,,,,,,0,59,32
58014,note_on,,12,0,1,,,,,,,,,,,,,,0,51,25
58018,note_on,,4,0,1,,,,,,,,,,,,,,0,54,29
58044,note_on,,26,0,1,,,,,,,,,,,,,,0,80,0
58050,note_on,,6,0,1,,,,,,,,,,,,,,0,78,52
58108,note_on,,58,0,1,,,,,,,,,,,,,,0,78,0
58108,note_on,,0,0,1,,,,,,,,,,,,,,0,80,66
58146,note_on,,38,0,1,,,,,,,,,,,,,,0,59,0
58174,note_on,,28,0,1,,,,,,,,,,,,,,0,80,0
58206,note_on,,32,0,1,,,,,,,,,,,,,,0,54,0
58250,note_on,,44,0,1,,,,,,,,,,,,,,0,80,59
58286,note_on,,36,0,1,,,,,,,,,,,,,,0,78,44
58314,note_on,,28,0,1,,,,,,,,,,,,,,0,80,0
58356,note_on,,42,0,1,,,,,,,,,,,,,,0,51,0
58384,note_on,,28,0,1,,,,,,,,,,,,,,0,76,47
58390,note_on,,6,0,1,,,,,,,,,,,,,,0,78,0
58506,note_on,,116,0,1,,,,,,,,,,,,,,0,75,64
58518,note_on,,12,0,1,,,,,,,,,,,,,,0,76,0
58552,note_on,,34,0,1,,,,,,,,,,,,,,0,75,0
58632,control_change,,80,0,1,,,,,,,,,,,,64,0,0,,
58656,note_on,,24,0,1,,,,,,,,,,,,,,0,75,47
58666,note_on,,10,0,1,,,,,,,,,,,,,,0,64,30
58696,note_on,,30,0,1,,,,,,,,,,,,,,0,59,30
58698,note_on,,2,0,1,,,,,,,,,,,,,,0,52,19
58816,note_on,,118,0,1,,,,,,,,,,,,,,0,75,0
58822,note_on,,6,0,1,,,,,,,,,,,,,,0,73,50
58976,note_on,,154,0,1,,,,,,,,,,,,,,0,73,0
58978,note_on,,2,0,1,,,,,,,,,,,,,,0,75,54
59030,control_change,,52,0,1,,,,,,,,,,,,64,127,0,,
59050,note_on,,20,0,1,,,,,,,,,,,,,,0,64,0
59050,note_on,,0,0,1,,,,,,,,,,,,,,0,59,0
59144,note_on,,94,0,1,,,,,,,,,,,,,,0,75,0
59147,note_on,,3,0,1,,,,,,,,,,,,,,0,76,51
59154,note_on,,7,0,1,,,,,,,,,,,,,,0,52,0
59310,note_on,,156,0,1,,,,,,,,,,,,,,0,63,31
59330,note_on,,20,0,1,,,,,,,,,,,,,,0,54,29
59330,note_on,,0,0,1,,,,,,,,,,,,,,0,59,20
59334,note_on,,4,0,1,,,,,,,,,,,,,,0,71,65
59354,note_on,,20,0,1,,,,,,,,,,,,,,0,76,0
59430,control_change,,76,0,1,,,,,,,,,,,,64,0,0,,
59668,note_on,,238,0,1,,,,,,,,,,,,,,0,54,0
59686,note_on,,18,0,1,,,,,,,,,,,,,,0,59,0
59720,control_change,,34,0,1,,,,,,,,,,,,64,127,0,,
59744,note_on,,24,0,1,,,,,,,,,,,,,,0,63,0
59882,note_on,,138,0,1,,,,,,,,,,,,,,0,71,0
59952,note_on,,70,0,1,,,,,,,,,,,,,,0,70,50
59978,note_on,,26,0,1,,,,,,,,,,,,,,0,61,26
59990,note_on,,12,0,1,,,,,,,,,,,,,,0,54,31
60016,note_on,,26,0,1,,,,,,,,,,,,,,0,70,0
60094,note_on,,78,0,1,,,,,,,,,,,,,,0,70,38
60136,control_change,,42,0,1,,,,,,,,,,,,64,0,0,,
60168,note_on,,32,0,1,,,,,,,,,,,,,,0,70,0
60192,note_on,,24,0,1,,,,,,,,,,,,,,0,71,23
60244,note_on,,52,0,1,,,,,,,,,,,,,,0,70,36
60266,note_on,,22,0,1,,,,,,,,,,,,,,0,71,0
60310,note_on,,44,0,1,,,,,,,,,,,,,,0,70,0
60310,note_on,,0,0,1,,,,,,,,,,,,,,0,71,19
60368,note_on,,58,0,1,,,,,,,,,,,,,,0,71,0
60368,note_on,,0,0,1,,,,,,,,,,,,,,0,70,42
60422,note_on,,54,0,1,,,,,,,,,,,,,,0,70,0
60448,note_on,,26,0,1,,,,,,,,,,,,,,0,61,0
60458,note_on,,10,0,1,,,,,,,,,,,,,,0,71,41
60488,note_on,,30,0,1,,,,,,,,,,,,,,0,70,43
60524,note_on,,36,0,1,,,,,,,,,,,,,,0,71,0
60558,note_on,,34,0,1,,,,,,,,,,,,,,0,54,0
60592,note_on,,34,0,1,,,,,,,,,,,,,,0,70,0
60597,note_on,,5,0,1,,,,,,,,,,,,,,0,71,64
60626,note_on,,29,0,1,,,,,,,,,,,,,,0,47,32
60810,note_on,,184,0,1,,,,,,,,,,,,,,0,71,0
60890,note_on,,80,0,1,,,,,,,,,,,,,,0,71,64
60895,note_on,,5,0,1,,,,,,,,,,,,,,0,75,71
60950,note_on,,55,0,1,,,,,,,,,,,,,,0,75,0
60952,note_on,,2,0,1,,,,,,,,,,,,,,0,71,0
60966,note_on,,14,0,1,,,,,,,,,,,,,,0,47,0
61026,note_on,,60,0,1,,,,,,,,,,,,,,0,71,75
61028,note_on,,2,0,1,,,,,,,,,,,,,,0,75,71
61090,note_on,,62,0,1,,,,,,,,,,,,,,0,71,0
61104,note_on,,14,0,1,,,,,,,,,,,,,,0,75,0
61162,note_on,,58,0,1,,,,,,,,,,,,,,0,71,76
61164,note_on,,2,0,1,,,,,,,,,,,,,,0,75,79
61186,note_on,,22,0,1,,,,,,,,,,,,,,0,47,39
61264,note_on,,78,0,1,,,,,,,,,,,,,,0,71,0
61270,note_on,,6,0,1,,,,,,,,,,,,,,0,75,0
61498,note_on,,228,0,1,,,,,,,,,,,,,,0,78,69
61500,note_on,,2,0,1,,,,,,,,,,,,,,0,75,66
61734,note_on,,234,0,1,,,,,,,,,,,,,,0,75,0
61762,note_on,,28,0,1,,,,,,,,,,,,,,0,47,0
61800,note_on,,38,0,1,,,,,,,,,,,,,,0,78,0
61810,note_on,,10,0,1,,,,,,,,,,,,,,0,76,55
61820,note_on,,10,0,1,,,,,,,,,,,,,,0,42,32
61822,note_on,,2,0,1,,,,,,,,,,,,,,0,73,40
61926,note_on,,104,0,1,,,,,,,,,,,,,,0,73,0
62120,note_on,,194,0,1,,,,,,,,,,,,,,0,73,44
62123,note_on,,3,0,1,,,,,,,,,,,,,,0,76,0
62128,note_on,,5,0,1,,,,,,,,,,,,,,0,66,28
62196,note_on,,68,0,1,,,,,,,,,,,,,,0,73,0
62348,note_on,,152,0,1,,,,,,,,,,,,,,0,42,0
62370,note_on,,22,0,1,,,,,,,,,,,,,,0,66,0
62420,note_on,,50,0,1,,,,,,,,,,,,,,0,75,41
62428,note_on,,8,0,1,,,,,,,,,,,,,,0,71,25
62456,note_on,,28,0,1,,,,,,,,,,,,,,0,47,26
62498,note_on,,42,0,1,,,,,,,,,,,,,,0,75,0
62526,note_on,,28,0,1,,,,,,,,,,,,,,0,71,0
62740,note_on,,214,0,1,,,,,,,,,,,,,,0,75,58
62744,note_on,,4,0,1,,,,,,,,,,,,,,0,71,61
62784,note_on,,40,0,1,,,,,,,,,,,,,,0,75,0
62796,note_on,,12,0,1,,,,,,,,,,,,,,0,71,0
62840,note_on,,44,0,1,,,,,,,,,,,,,,0,47,0
62850,note_on,,10,0,1,,,,,,,,,,,,,,0,75,55
62866,note_on,,16,0,1,,,,,,,,,,,,,,0,71,73
62914,note_on,,48,0,1,,,,,,,,,,,,,,0,75,0
62917,note_on,,3,0,1,,,,,,,,,,,,,,0,71,0
62992,note_on,,75,0,1,,,,,,,,,,,,,,0,75,59
62996,note_on,,4,0,1,,,,,,,,,,,,,,0,71,64
63020,note_on,,24,0,1,,,,,,,,,,,,,,0,47,36
63080,note_on,,60,0,1,,,,,,,,,,,,,,0,71,0
63112,note_on,,32,0,1,,,,,,,,,,,,,,0,75,0
63320,note_on,,208,0,1,,,,,,,,,,,,,,0,75,49
63322,note_on,,2,0,1,,,,,,,,,,,,,,0,78,49
63570,note_on,,248,0,1,,,,,,,,,,,,,,0,75,0
63582,note_on,,12,0,1,,,,,,,,,,,,,,0,47,0
63608,note_on,,26,0,1,,,,,,,,,,,,,,0,78,0
63634,note_on,,26,0,1,,,,,,,,,,,,,,0,76,39
63636,note_on,,2,0,1,,,,,,,,,,,,,,0,42,24
63650,note_on,,14,0,1,,,,,,,,,,,,,,0,73,26
63808,note_on,,158,0,1,,,,,,,,,,,,,,0,73,0
63964,note_on,,156,0,1,,,,,,,,,,,,,,0,66,21
63980,note_on,,16,0,1,,,,,,,,,,,,,,0,73,22
63982,note_on,,2,0,1,,,,,,,,,,,,,,0,76,0
64102,note_on,,120,0,1,,,,,,,,,,,,,,0,66,0
64152,note_on,,50,0,1,,,,,,,,,,,,,,0,42,0
64284,note_on,,132,0,1,,,,,,,,,,,,,,0,75,32
64292,note_on,,8,0,1,,,,,,,,,,,,,,0,73,0
64306,note_on,,14,0,1,,,,,,,,,,,,,,0,71,30
64312,note_on,,6,0,1,,,,,,,,,,,,,,0,47,16
64370,note_on,,58,0,1,,,,,,,,,,,,,,0,71,0
64414,note_on,,44,0,1,,,,,,,,,,,,,,0,75,0
64592,note_on,,178,0,1,,,,,,,,,,,,,,0,83,54
64644,note_on,,52,0,1,,,,,,,,,,,,,,0,83,0
64708,note_on,,64,0,1,,,,,,,,,,,,,,0,83,91
64750,note_on,,42,0,1,,,,,,,,,,,,,,0,83,0
64840,note_on,,90,0,1,,,,,,,,,,,,,,0,47,0
64864,note_on,,24,0,1,,,,,,,,,,,,,,0,83,72
64884,note_on,,20,0,1,,,,,,,,,,,,,,0,59,29
65000,note_on,,116,0,1,,,,,,,,,,,,,,0,83,0
65008,note_on,,8,0,1,,,,,,,,,,,,,,0,80,61
65090,note_on,,82,0,1,,,,,,,,,,,,,,0,80,0
65168,note_on,,78,0,1,,,,,,,,,,,,,,0,83,75
65220,note_on,,52,0,1,,,,,,,,,,,,,,0,83,0
65298,note_on,,78,0,1,,,,,,,,,,,,,,0,83,88
65308,note_on,,10,0,1,,,,,,,,,,,,,,0,59,0
65346,note_on,,38,0,1,,,,,,,,,,,,,,0,83,0
65466,note_on,,120,0,1,,,,,,,,,,,,,,0,51,41
65472,note_on,,6,0,1,,,,,,,,,,,,,,0,83,84
65496,note_on,,24,0,1,,,,,,,,,,,,,,0,59,24
65596,note_on,,100,0,1,,,,,,,,,,,,,,0,83,0
65612,note_on,,16,0,1,,,,,,,,,,,,,,0,78,65
65704,note_on,,92,0,1,,,,,,,,,,,,,,0,78,0
65768,note_on,,64,0,1,,,,,,,,,,,,,,0,83,79
65812,note_on,,44,0,1,,,,,,,,,,,,,,0,83,0
65886,note_on,,74,0,1,,,,,,,,,,,,,,0,83,88
65936,note_on,,50,0,1,,,,,,,,,,,,,,0,83,0
65954,note_on,,18,0,1,,,,,,,,,,,,,,0,59,0
66042,note_on,,88,0,1,,,,,,,,,,,,,,0,51,0
66064,note_on,,22,0,1,,,,,,,,,,,,,,0,83,86
66096,note_on,,32,0,1,,,,,,,,,,,,,,0,59,4
66098,note_on,,2,0,1,,,,,,,,,,,,,,0,52,34
66198,note_on,,100,0,1,,,,,,,,,,,,,,0,83,0
66202,note_on,,4,0,1,,,,,,,,,,,,,,0,80,68
66214,note_on,,12,0,1,,,,,,,,,,,,,,0,59,0
66344,note_on,,130,0,1,,,,,,,,,,,,,,0,80,0
66352,note_on,,8,0,1,,,,,,,,,,,,,,0,78,60
66488,note_on,,136,0,1,,,,,,,,,,,,,,0,78,0
66493,note_on,,5,0,1,,,,,,,,,,,,,,0,76,60
66540,note_on,,47,0,1,,,,,,,,,,,,,,0,76,0
66602,note_on,,62,0,1,,,,,,,,,,,,,,0,52,0
66644,note_on,,42,0,1,,,,,,,,,,,,,,0,76,29
66666,note_on,,22,0,1,,,,,,,,,,,,,,0,54,26
66668,note_on,,2,0,1,,,,,,,,,,,,,,0,59,20
66786,note_on,,118,0,1,,,,,,,,,,,,,,0,75,55
66810,note_on,,24,0,1,,,,,,,,,,,,,,0,76,0
66928,note_on,,118,0,1,,,,,,,,,,,,,,0,75,0
66942,note_on,,14,0,1,,,,,,,,,,,,,,0,73,39
67036,note_on,,94,0,1,,,,,,,,,,,,,,0,73,0
67038,note_on,,2,0,1,,,,,,,,,,,,,,0,59,0
67052,note_on,,14,0,1,,,,,,,,,,,,,,0,54,0
67064,note_on,,12,0,1,,,,,,,,,,,,,,0,71,43
67066,control_change,,2,0,1,,,,,,,,,,,,64,127,0,,
67134,note_on,,68,0,1,,,,,,,,,,,,,,0,71,0
67188,control_change,,54,0,1,,,,,,,,,,,,64,0,0,,
67208,note_on,,20,0,1,,,,,,,,,,,,,,0,73,43
67222,note_on,,14,0,1,,,,,,,,,,,,,,0,54,40
67260,note_on,,38,0,1,,,,,,,,,,,,,,0,75,48
67264,note_on,,4,0,1,,,,,,,,,,,,,,0,73,0
67316,note_on,,52,0,1,,,,,,,,,,,,,,0,75,0
67346,note_on,,30,0,1,,,,,,,,,,,,,,0,73,41
67378,note_on,,32,0,1,,,,,,,,,,,,,,0,75,72
67402,note_on,,24,0,1,,,,,,,,,,,,,,0,73,0
67468,note_on,,66,0,1,,,,,,,,,,,,,,0,75,0
67478,note_on,,10,0,1,,,,,,,,,,,,,,0,73,46
67532,note_on,,54,0,1,,,,,,,,,,,,,,0,73,0
67544,note_on,,12,0,1,,,,,,,,,,,,,,0,71,61
67618,note_on,,74,0,1,,,,,,,,,,,,,,0,71,0
67648,note_on,,30,0,1,,,,,,,,,,,,,,0,73,37
67764,note_on,,116,0,1,,,,,,,,,,,,,,0,73,0
67780,note_on,,16,0,1,,,,,,,,,,,,,,0,54,0
67808,note_on,,28,0,1,,,,,,,,,,,,,,0,75,39
67811,note_on,,3,0,1,,,,,,,,,,,,,,0,71,53
67850,note_on,,39,0,1,,,,,,,,,,,,,,0,59,18
68040,note_on,,190,0,1,,,,,,,,,,,,,,0,71,0
68064,control_change,,24,0,1,,,,,,,,,,,,64,127,0,,
68104,note_on,,40,0,1,,,,,,,,,,,,,,0,75,0
68126,control_change,,22,0,1,,,,,,,,,,,,64,0,0,,
68156,note_on,,30,0,1,,,,,,,,,,,,,,0,83,45
68210,note_on,,54,0,1,,,,,,,,,,,,,,0,59,0
68222,note_on,,12,0,1,,,,,,,,,,,,,,0,83,0
68264,note_on,,42,0,1,,,,,,,,,,,,,,0,83,49
68312,note_on,,48,0,1,,,,,,,,,,,,,,0,83,0
68428,note_on,,116,0,1,,,,,,,,,,,,,,0,83,63
68442,note_on,,14,0,1,,,,,,,,,,,,,,0,47,35
68550,note_on,,108,0,1,,,,,,,,,,,,,,0,83,0
68568,note_on,,18,0,1,,,,,,,,,,,,,,0,80,54
68640,note_on,,72,0,1,,,,,,,,,,,,,,0,80,0
68732,note_on,,92,0,1,,,,,,,,,,,,,,0,83,55
68782,note_on,,50,0,1,,,,,,,,,,,,,,0,83,0
68850,note_on,,68,0,1,,,,,,,,,,,,,,0,83,88
68892,note_on,,42,0,1,,,,,,,,,,,,,,0,47,0
68902,note_on,,10,0,1,,,,,,,,,,,,,,0,83,0
69002,note_on,,100,0,1,,,,,,,,,,,,,,0,51,48
69018,note_on,,16,0,1,,,,,,,,,,,,,,0,83,91
69152,note_on,,134,0,1,,,,,,,,,,,,,,0,83,0
69158,note_on,,6,0,1,,,,,,,,,,,,,,0,78,66
69272,note_on,,114,0,1,,,,,,,,,,,,,,0,78,0
69310,note_on,,38,0,1,,,,,,,,,,,,,,0,83,87
69352,note_on,,42,0,1,,,,,,,,,,,,,,0,83,0
69436,note_on,,84,0,1,,,,,,,,,,,,,,0,83,89
69490,note_on,,54,0,1,,,,,,,,,,,,,,0,83,0
69562,note_on,,72,0,1,,,,,,,,,,,,,,0,51,0
69600,note_on,,38,0,1,,,,,,,,,,,,,,0,83,96
69618,note_on,,18,0,1,,,,,,,,,,,,,,0,52,47
69736,note_on,,118,0,1,,,,,,,,,,,,,,0,83,0
69750,note_on,,14,0,1,,,,,,,,,,,,,,0,80,68
69904,note_on,,154,0,1,,,,,,,,,,,,,,0,80,0
69910,note_on,,6,0,1,,,,,,,,,,,,,,0,78,58
69960,note_on,,50,0,1,,,,,,,,,,,,,,0,78,0
70060,note_on,,100,0,1,,,,,,,,,,,,,,0,76,43
70110,note_on,,50,0,1,,,,,,,,,,,,,,0,76,0
70186,note_on,,76,0,1,,,,,,,,,,,,,,0,52,0
70192,note_on,,6,0,1,,,,,,,,,,,,,,0,76,32
70212,note_on,,20,0,1,,,,,,,,,,,,,,0,54,39
70346,note_on,,134,0,1,,,,,,,,,,,,,,0,76,0
70348,note_on,,2,0,1,,,,,,,,,,,,,,0,75,48
70426,note_on,,78,0,1,,,,,,,,,,,,,,0,75,0
70510,note_on,,84,0,1,,,,,,,,,,,,,,0,73,23
70592,note_on,,82,0,1,,,,,,,,,,,,,,0,73,0
70646,note_on,,54,0,1,,,,,,,,,,,,,,0,71,33
70714,note_on,,68,0,1,,,,,,,,,,,,,,0,71,0
70790,note_on,,76,0,1,,,,,,,,,,,,,,0,54,0
70810,note_on,,20,0,1,,,,,,,,,,,,,,0,73,36
70838,note_on,,28,0,1,,,,,,,,,,,,,,0,42,31
70864,note_on,,26,0,1,,,,,,,,,,,,,,0,75,48
70870,note_on,,6,0,1,,,,,,,,,,,,,,0,73,0
70918,note_on,,48,0,1,,,,,,,,,,,,,,0,75,0
70942,note_on,,24,0,1,,,,,,,,,,,,,,0,73,45
70994,note_on,,52,0,1,,,,,,,,,,,,,,0,75,50
70997,note_on,,3,0,1,,,,,,,,,,,,,,0,73,0
71074,note_on,,77,0,1,,,,,,,,,,,,,,0,75,0
71074,note_on,,0,0,1,,,,,,,,,,,,,,0,73,39
71134,note_on,,60,0,1,,,,,,,,,,,,,,0,73,0
71144,note_on,,10,0,1,,,,,,,,,,,,,,0,75,28
71202,note_on,,58,0,1,,,,,,,,,,,,,,0,75,0
71208,note_on,,6,0,1,,,,,,,,,,,,,,0,73,47
71260,note_on,,52,0,1,,,,,,,,,,,,,,0,73,0
71274,note_on,,14,0,1,,,,,,,,,,,,,,0,75,50
71328,note_on,,54,0,1,,,,,,,,,,,,,,0,73,47
71332,note_on,,4,0,1,,,,,,,,,,,,,,0,75,0
71424,note_on,,92,0,1,,,,,,,,,,,,,,0,73,0
71454,note_on,,30,0,1,,,,,,,,,,,,,,0,71,41
71546,note_on,,92,0,1,,,,,,,,,,,,,,0,71,0
71580,note_on,,34,0,1,,,,,,,,,,,,,,0,73,38
71696,note_on,,116,0,1,,,,,,,,,,,,,,0,73,0
71704,note_on,,8,0,1,,,,,,,,,,,,,,0,42,0
71802,note_on,,98,0,1,,,,,,,,,,,,,,0,71,53
71812,note_on,,10,0,1,,,,,,,,,,,,,,0,47,24
72044,control_change,,232,0,1,,,,,,,,,,,,64,127,0,,
72078,note_on,,34,0,1,,,,,,,,,,,,,,0,47,0
73132,note_on,,1054,0,1,,,,,,,,,,,,,,0,71,0
73550,control_change,,418,0,1,,,,,,,,,,,,64,0,0,,
73840,note_on,,290,0,1,,,,,,,,,,,,,,0,71,61
73850,note_on,,10,0,1,,,,,,,,,,,,,,0,59,37
73984,control_change,,134,0,1,,,,,,,,,,,,64,127,0,,
74142,note_on,,158,0,1,,,,,,,,,,,,,,0,71,0
74164,note_on,,22,0,1,,,,,,,,,,,,,,0,66,46
74214,note_on,,50,0,1,,,,,,,,,,,,,,0,66,0
74245,control_change,,31,0,1,,,,,,,,,,,,64,0,0,,
74266,note_on,,21,0,1,,,,,,,,,,,,,,0,66,66
74328,note_on,,62,0,1,,,,,,,,,,,,,,0,66,0
74416,note_on,,88,0,1,,,,,,,,,,,,,,0,63,42
74422,note_on,,6,0,1,,,,,,,,,,,,,,0,66,56
74488,note_on,,66,0,1,,,,,,,,,,,,,,0,66,0
74724,note_on,,236,0,1,,,,,,,,,,,,,,0,66,54
74776,note_on,,52,0,1,,,,,,,,,,,,,,0,66,0
74804,note_on,,28,0,1,,,,,,,,,,,,,,0,59,0
75022,note_on,,218,0,1,,,,,,,,,,,,,,0,68,54
75054,note_on,,32,0,1,,,,,,,,,,,,,,0,59,42
75062,note_on,,8,0,1,,,,,,,,,,,,,,0,63,0
75065,note_on,,3,0,1,,,,,,,,,,,,,,0,64,36
75346,note_on,,281,0,1,,,,,,,,,,,,,,0,76,63
75460,note_on,,114,0,1,,,,,,,,,,,,,,0,68,0
75470,note_on,,10,0,1,,,,,,,,,,,,,,0,59,0
75492,control_change,,22,0,1,,,,,,,,,,,,64,127,0,,
75536,note_on,,44,0,1,,,,,,,,,,,,,,0,76,0
75620,note_on,,84,0,1,,,,,,,,,,,,,,0,64,0
75654,note_on,,34,0,1,,,,,,,,,,,,,,0,76,63
75660,note_on,,6,0,1,,,,,,,,,,,,,,0,69,54
75676,note_on,,16,0,1,,,,,,,,,,,,,,0,66,38
75684,note_on,,8,0,1,,,,,,,,,,,,,,0,59,43
75766,control_change,,82,0,1,,,,,,,,,,,,64,0,0,,
75966,note_on,,200,0,1,,,,,,,,,,,,,,0,59,0
75998,control_change,,32,0,1,,,,,,,,,,,,64,127,0,,
76012,note_on,,14,0,1,,,,,,,,,,,,,,0,76,0
76012,note_on,,0,0,1,,,,,,,,,,,,,,0,75,64
76052,note_on,,40,0,1,,,,,,,,,,,,,,0,75,0
76106,control_change,,54,0,1,,,,,,,,,,,,64,0,0,,
76106,note_on,,0,0,1,,,,,,,,,,,,,,0,75,73
76182,note_on,,76,0,1,,,,,,,,,,,,,,0,75,0
76244,note_on,,62,0,1,,,,,,,,,,,,,,0,75,84
76278,note_on,,34,0,1,,,,,,,,,,,,,,0,59,43
76384,note_on,,106,0,1,,,,,,,,,,,,,,0,75,0
76590,note_on,,206,0,1,,,,,,,,,,,,,,0,78,81
76728,note_on,,138,0,1,,,,,,,,,,,,,,0,59,0
76736,control_change,,8,0,1,,,,,,,,,,,,64,127,0,,
76892,note_on,,156,0,1,,,,,,,,,,,,,,0,68,50
76906,note_on,,14,0,1,,,,,,,,,,,,,,0,71,61
76910,note_on,,4,0,1,,,,,,,,,,,,,,0,59,40
76916,note_on,,6,0,1,,,,,,,,,,,,,,0,66,0
76919,note_on,,3,0,1,,,,,,,,,,,,,,0,69,0
76966,control_change,,47,0,1,,,,,,,,,,,,64,0,0,,
77194,note_on,,228,0,1,,,,,,,,,,,,,,0,78,0
77210,note_on,,16,0,1,,,,,,,,,,,,,,0,76,69
77226,note_on,,16,0,1,,,,,,,,,,,,,,0,59,0
77258,control_change,,32,0,1,,,,,,,,,,,,64,127,0,,
77282,note_on,,24,0,1,,,,,,,,,,,,,,0,71,0
77306,note_on,,24,0,1,,,,,,,,,,,,,,0,68,0
77338,note_on,,32,0,1,,,,,,,,,,,,,,0,76,0
77488,control_change,,150,0,1,,,,,,,,,,,,64,0,0,,
77512,note_on,,24,0,1,,,,,,,,,,,,,,0,66,35
77520,note_on,,8,0,1,,,,,,,,,,,,,,0,69,62
77532,note_on,,12,0,1,,,,,,,,,,,,,,0,59,35
77810,control_change,,278,0,1,,,,,,,,,,,,64,127,0,,
77842,note_on,,32,0,1,,,,,,,,,,,,,,0,81,55
77860,note_on,,18,0,1,,,,,,,,,,,,,,0,59,0
77882,note_on,,22,0,1,,,,,,,,,,,,,,0,66,0
77888,note_on,,6,0,1,,,,,,,,,,,,,,0,81,0
77956,note_on,,68,0,1,,,,,,,,,,,,,,0,81,62
78020,note_on,,64,0,1,,,,,,,,,,,,,,0,81,0
78056,control_change,,36,0,1,,,,,,,,,,,,64,0,0,,
78104,note_on,,48,0,1,,,,,,,,,,,,,,0,75,69
78116,note_on,,12,0,1,,,,,,,,,,,,,,0,66,33
78132,note_on,,16,0,1,,,,,,,,,,,,,,0,59,34
78246,note_on,,114,0,1,,,,,,,,,,,,,,0,75,0
78436,note_on,,190,0,1,,,,,,,,,,,,,,0,81,65
78470,note_on,,34,0,1,,,,,,,,,,,,,,0,69,0
78532,control_change,,62,0,1,,,,,,,,,,,,64,127,0,,
78537,note_on,,5,0,1,,,,,,,,,,,,,,0,59,0
78620,note_on,,83,0,1,,,,,,,,,,,,,,0,66,0
78718,note_on,,98,0,1,,,,,,,,,,,,,,0,76,32
78720,note_on,,2,0,1,,,,,,,,,,,,,,0,71,50
78724,note_on,,4,0,1,,,,,,,,,,,,,,0,68,39
78730,note_on,,6,0,1,,,,,,,,,,,,,,0,59,31
78780,control_change,,50,0,1,,,,,,,,,,,,64,0,0,,
78980,note_on,,200,0,1,,,,,,,,,,,,,,0,59,0
79022,note_on,,42,0,1,,,,,,,,,,,,,,0,76,0
79044,note_on,,22,0,1,,,,,,,,,,,,,,0,71,0
79048,note_on,,4,0,1,,,,,,,,,,,,,,0,80,50
79070,control_change,,22,0,1,,,,,,,,,,,,64,127,0,,
79080,note_on,,10,0,1,,,,,,,,,,,,,,0,81,0
79084,note_on,,4,0,1,,,,,,,,,,,,,,0,68,0
79108,note_on,,24,0,1,,,,,,,,,,,,,,0,80,0
79246,note_on,,138,0,1,,,,,,,,,,,,,,0,78,47
79290,note_on,,44,0,1,,,,,,,,,,,,,,0,80,58
79302,note_on,,12,0,1,,,,,,,,,,,,,,0,78,0
79316,control_change,,14,0,1,,,,,,,,,,,,64,0,0,,
79334,note_on,,18,0,1,,,,,,,,,,,,,,0,66,27
79348,note_on,,14,0,1,,,,,,,,,,,,,,0,59,30
79351,note_on,,3,0,1,,,,,,,,,,,,,,0,78,57
79364,note_on,,13,0,1,,,,,,,,,,,,,,0,80,0
79628,note_on,,264,0,1,,,,,,,,,,,,,,0,75,52
79634,note_on,,6,0,1,,,,,,,,,,,,,,0,78,0
79640,control_change,,6,0,1,,,,,,,,,,,,64,127,0,,
79676,note_on,,36,0,1,,,,,,,,,,,,,,0,66,0
79681,note_on,,5,0,1,,,,,,,,,,,,,,0,59,0
79730,note_on,,49,0,1,,,,,,,,,,,,,,0,75,0
79872,note_on,,142,0,1,,,,,,,,,,,,,,0,78,34
79904,note_on,,32,0,1,,,,,,,,,,,,,,0,80,68
79946,note_on,,42,0,1,,,,,,,,,,,,,,0,66,30
79974,note_on,,28,0,1,,,,,,,,,,,,,,0,59,33
79988,note_on,,14,0,1,,,,,,,,,,,,,,0,80,0
79994,control_change,,6,0,1,,,,,,,,,,,,64,0,0,,
80222,note_on,,228,0,1,,,,,,,,,,,,,,0,75,55
80262,note_on,,40,0,1,,,,,,,,,,,,,,0,78,0
80280,note_on,,18,0,1,,,,,,,,,,,,,,0,59,0
80284,control_change,,4,0,1,,,,,,,,,,,,64,127,0,,
80292,note_on,,8,0,1,,,,,,,,,,,,,,0,66,0
80352,note_on,,60,0,1,,,,,,,,,,,,,,0,75,0
80436,note_on,,84,0,1,,,,,,,,,,,,,,0,78,56
80480,note_on,,44,0,1,,,,,,,,,,,,,,0,78,0
80496,note_on,,16,0,1,,,,,,,,,,,,,,0,80,62
80528,note_on,,32,0,1,,,,,,,,,,,,,,0,78,78
80530,control_change,,2,0,1,,,,,,,,,,,,64,0,0,,
80532,note_on,,2,0,1,,,,,,,,,,,,,,0,66,31
80556,note_on,,24,0,1,,,,,,,,,,,,,,0,59,26
80578,note_on,,22,0,1,,,,,,,,,,,,,,0,80,0
80792,control_change,,214,0,1,,,,,,,,,,,,64,127,0,,
80834,note_on,,42,0,1,,,,,,,,,,,,,,0,76,68
80852,note_on,,18,0,1,,,,,,,,,,,,,,0,66,0
80866,note_on,,14,0,1,,,,,,,,,,,,,,0,78,0
80908,note_on,,42,0,1,,,,,,,,,,,,,,0,59,0
80952,note_on,,44,0,1,,,,,,,,,,,,,,0,75,78
80992,note_on,,40,0,1,,,,,,,,,,,,,,0,76,0
81084,control_change,,92,0,1,,,,,,,,,,,,64,0,0,,
81094,note_on,,10,0,1,,,,,,,,,,,,,,0,66,29
81097,note_on,,3,0,1,,,,,,,,,,,,,,0,75,0
81097,note_on,,0,0,1,,,,,,,,,,,,,,0,81,79
81099,note_on,,2,0,1,,,,,,,,,,,,,,0,63,35
81106,note_on,,7,0,1,,,,,,,,,,,,,,0,57,25
81390,control_change,,284,0,1,,,,,,,,,,,,64,127,0,,
81438,note_on,,48,0,1,,,,,,,,,,,,,,0,78,71
81476,note_on,,38,0,1,,,,,,,,,,,,,,0,63,0
81486,note_on,,10,0,1,,,,,,,,,,,,,,0,57,0
81496,note_on,,10,0,1,,,,,,,,,,,,,,0,66,0
81518,note_on,,22,0,1,,,,,,,,,,,,,,0,81,0
81730,note_on,,212,0,1,,,,,,,,,,,,,,0,75,58
81742,note_on,,12,0,1,,,,,,,,,,,,,,0,66,21
81752,note_on,,10,0,1,,,,,,,,,,,,,,0,57,25
81760,note_on,,8,0,1,,,,,,,,,,,,,,0,63,29
81814,note_on,,54,0,1,,,,,,,,,,,,,,0,78,0
81836,control_change,,22,0,1,,,,,,,,,,,,64,0,0,,
82022,control_change,,186,0,1,,,,,,,,,,,,64,127,0,,
82050,note_on,,28,0,1,,,,,,,,,,,,,,0,75,0
82052,note_on,,2,0,1,,,,,,,,,,,,,,0,72,52
82090,note_on,,38,0,1,,,,,,,,,,,,,,0,63,0
82110,note_on,,20,0,1,,,,,,,,,,,,,,0,66,0
82120,note_on,,10,0,1,,,,,,,,,,,,,,0,57,0
82224,note_on,,104,0,1,,,,,,,,,,,,,,0,72,0
82348,note_on,,124,0,1,,,,,,,,,,,,,,0,72,39
82370,note_on,,22,0,1,,,,,,,,,,,,,,0,66,26
82396,note_on,,26,0,1,,,,,,,,,,,,,,0,57,25
82401,note_on,,5,0,1,,,,,,,,,,,,,,0,63,25
82406,control_change,,5,0,1,,,,,,,,,,,,64,0,0,,
82574,control_change,,168,0,1,,,,,,,,,,,,64,127,0,,
82590,note_on,,16,0,1,,,,,,,,,,,,,,0,72,0
82626,note_on,,36,0,1,,,,,,,,,,,,,,0,66,0
82632,note_on,,6,0,1,,,,,,,,,,,,,,0,73,43
82646,note_on,,14,0,1,,,,,,,,,,,,,,0,63,0
82686,note_on,,40,0,1,,,,,,,,,,,,,,0,73,0
82702,note_on,,16,0,1,,,,,,,,,,,,,,0,57,0
82706,note_on,,4,0,1,,,,,,,,,,,,,,0,75,26
82752,note_on,,46,0,1,,,,,,,,,,,,,,0,73,34
82776,note_on,,24,0,1,,,,,,,,,,,,,,0,75,0
82806,note_on,,30,0,1,,,,,,,,,,,,,,0,72,62
82809,note_on,,3,0,1,,,,,,,,,,,,,,0,73,0
82874,note_on,,65,0,1,,,,,,,,,,,,,,0,73,53
82916,note_on,,42,0,1,,,,,,,,,,,,,,0,72,0
82958,control_change,,42,0,1,,,,,,,,,,,,64,0,0,,
82982,note_on,,24,0,1,,,,,,,,,,,,,,0,75,70
82982,note_on,,0,0,1,,,,,,,,,,,,,,0,56,39
82992,note_on,,10,0,1,,,,,,,,,,,,,,0,73,0
83000,note_on,,8,0,1,,,,,,,,,,,,,,0,68,35
83006,note_on,,6,0,1,,,,,,,,,,,,,,0,44,24
83204,control_change,,198,0,1,,,,,,,,,,,,64,127,0,,
83218,note_on,,14,0,1,,,,,,,,,,,,,,0,68,0
83226,note_on,,8,0,1,,,,,,,,,,,,,,0,75,0
83300,note_on,,74,0,1,,,,,,,,,,,,,,0,75,63
83302,note_on,,2,0,1,,,,,,,,,,,,,,0,68,47
83344,note_on,,42,0,1,,,,,,,,,,,,,,0,75,0
83354,note_on,,10,0,1,,,,,,,,,,,,,,0,68,0
83370,note_on,,16,0,1,,,,,,,,,,,,,,0,56,0
83412,note_on,,42,0,1,,,,,,,,,,,,,,0,75,59
83418,note_on,,6,0,1,,,,,,,,,,,,,,0,68,55
83436,note_on,,18,0,1,,,,,,,,,,,,,,0,44,0
83450,control_change,,14,0,1,,,,,,,,,,,,64,0,0,,
83456,note_on,,6,0,1,,,,,,,,,,,,,,0,75,0
83468,note_on,,12,0,1,,,,,,,,,,,,,,0,68,0
83544,note_on,,76,0,1,,,,,,,,,,,,,,0,68,53
83546,note_on,,2,0,1,,,,,,,,,,,,,,0,75,59
83560,note_on,,14,0,1,,,,,,,,,,,,,,0,56,52
83562,note_on,,2,0,1,,,,,,,,,,,,,,0,44,40
83618,note_on,,56,0,1,,,,,,,,,,,,,,0,68,0
83626,note_on,,8,0,1,,,,,,,,,,,,,,0,75,0
83858,note_on,,232,0,1,,,,,,,,,,,,,,0,75,64
83868,note_on,,10,0,1,,,,,,,,,,,,,,0,68,53
83908,note_on,,40,0,1,,,,,,,,,,,,,,0,75,0
83920,note_on,,12,0,1,,,,,,,,,,,,,,0,68,0
84004,note_on,,84,0,1,,,,,,,,,,,,,,0,56,0
84058,note_on,,54,0,1,,,,,,,,,,,,,,0,44,0
84148,note_on,,90,0,1,,,,,,,,,,,,,,0,44,36
84164,note_on,,16,0,1,,,,,,,,,,,,,,0,76,60
84167,note_on,,3,0,1,,,,,,,,,,,,,,0,68,37
84174,note_on,,7,0,1,,,,,,,,,,,,,,0,56,32
84176,note_on,,2,0,1,,,,,,,,,,,,,,0,73,38
84264,note_on,,88,0,1,,,,,,,,,,,,,,0,73,0
84394,note_on,,130,0,1,,,,,,,,,,,,,,0,68,0
84472,note_on,,78,0,1,,,,,,,,,,,,,,0,80,50
84484,note_on,,12,0,1,,,,,,,,,,,,,,0,44,0
84489,note_on,,5,0,1,,,,,,,,,,,,,,0,76,0
84496,note_on,,7,0,1,,,,,,,,,,,,,,0,56,0
84510,control_change,,14,0,1,,,,,,,,,,,,64,127,0,,
84740,control_change,,230,0,1,,,,,,,,,,,,64,0,0,,
84742,note_on,,2,0,1,,,,,,,,,,,,,,0,75,52
84744,note_on,,2,0,1,,,,,,,,,,,,,,0,63,57
84746,note_on,,2,0,1,,,,,,,,,,,,,,0,56,56
84776,note_on,,30,0,1,,,,,,,,,,,,,,0,80,0
84810,note_on,,34,0,1,,,,,,,,,,,,,,0,63,0
84828,note_on,,18,0,1,,,,,,,,,,,,,,0,56,0
84910,control_change,,82,0,1,,,,,,,,,,,,64,127,0,,
85044,note_on,,134,0,1,,,,,,,,,,,,,,0,63,60
85050,note_on,,6,0,1,,,,,,,,,,,,,,0,56,52
85096,note_on,,46,0,1,,,,,,,,,,,,,,0,63,0
85104,note_on,,8,0,1,,,,,,,,,,,,,,0,56,0
85124,control_change,,20,0,1,,,,,,,,,,,,64,0,0,,
85166,note_on,,42,0,1,,,,,,,,,,,,,,0,56,66
85176,note_on,,10,0,1,,,,,,,,,,,,,,0,63,66
85226,note_on,,50,0,1,,,,,,,,,,,,,,0,63,0
85234,note_on,,8,0,1,,,,,,,,,,,,,,0,56,0
85292,note_on,,58,0,1,,,,,,,,,,,,,,0,63,72
85295,note_on,,3,0,1,,,,,,,,,,,,,,0,56,65
85320,note_on,,25,0,1,,,,,,,,,,,,,,0,72,58
85356,note_on,,36,0,1,,,,,,,,,,,,,,0,56,0
85370,note_on,,14,0,1,,,,,,,,,,,,,,0,75,0
85378,note_on,,8,0,1,,,,,,,,,,,,,,0,63,0
85590,note_on,,212,0,1,,,,,,,,,,,,,,0,56,67
85593,note_on,,3,0,1,,,,,,,,,,,,,,0,63,70
85648,note_on,,55,0,1,,,,,,,,,,,,,,0,56,0
85650,note_on,,2,0,1,,,,,,,,,,,,,,0,63,0
85860,note_on,,210,0,1,,,,,,,,,,,,,,0,72,0
85886,note_on,,26,0,1,,,,,,,,,,,,,,0,73,50
85886,note_on,,0,0,1,,,,,,,,,,,,,,0,64,69
85904,note_on,,18,0,1,,,,,,,,,,,,,,0,56,40
85938,note_on,,34,0,1,,,,,,,,,,,,,,0,73,0
85944,note_on,,6,0,1,,,,,,,,,,,,,,0,75,51
86006,note_on,,62,0,1,,,,,,,,,,,,,,0,75,0
86020,note_on,,14,0,1,,,,,,,,,,,,,,0,73,25
86106,note_on,,86,0,1,,,,,,,,,,,,,,0,75,38
86122,note_on,,16,0,1,,,,,,,,,,,,,,0,73,0
86174,note_on,,52,0,1,,,,,,,,,,,,,,0,64,0
86186,note_on,,12,0,1,,,,,,,,,,,,,,0,68,64
86204,note_on,,18,0,1,,,,,,,,,,,,,,0,73,65
86224,note_on,,20,0,1,,,,,,,,,,,,,,0,75,0
86236,note_on,,12,0,1,,,,,,,,,,,,,,0,68,0
86280,note_on,,44,0,1,,,,,,,,,,,,,,0,73,0
86302,note_on,,22,0,1,,,,,,,,,,,,,,0,72,66
86308,note_on,,6,0,1,,,,,,,,,,,,,,0,56,0
86380,note_on,,72,0,1,,,,,,,,,,,,,,0,73,46
86382,note_on,,2,0,1,,,,,,,,,,,,,,0,72,0
86470,note_on,,88,0,1,,,,,,,,,,,,,,0,75,77
86476,note_on,,6,0,1,,,,,,,,,,,,,,0,68,61
86482,note_on,,6,0,1,,,,,,,,,,,,,,0,73,0
86494,note_on,,12,0,1,,,,,,,,,,,,,,0,44,58
86497,note_on,,3,0,1,,,,,,,,,,,,,,0,56,50
86576,note_on,,79,0,1,,,,,,,,,,,,,,0,68,0
86678,note_on,,102,0,1,,,,,,,,,,,,,,0,75,0
86692,control_change,,14,0,1,,,,,,,,,,,,64,127,0,,
86808,note_on,,116,0,1,,,,,,,,,,,,,,0,75,57
86808,note_on,,0,0,1,,,,,,,,,,,,,,0,68,48
86848,note_on,,40,0,1,,,,,,,,,,,,,,0,75,0
86858,note_on,,10,0,1,,,,,,,,,,,,,,0,68,0
86860,control_change,,2,0,1,,,,,,,,,,,,64,0,0,,
86912,note_on,,52,0,1,,,,,,,,,,,,,,0,75,61
86920,note_on,,8,0,1,,,,,,,,,,,,,,0,68,53
86922,note_on,,2,0,1,,,,,,,,,,,,,,0,56,0
86946,note_on,,24,0,1,,,,,,,,,,,,,,0,44,0
86962,note_on,,16,0,1,,,,,,,,,,,,,,0,75,0
86980,note_on,,18,0,1,,,,,,,,,,,,,,0,68,0
87048,note_on,,68,0,1,,,,,,,,,,,,,,0,68,67
87051,note_on,,3,0,1,,,,,,,,,,,,,,0,75,59
87068,note_on,,17,0,1,,,,,,,,,,,,,,0,44,38
87074,note_on,,6,0,1,,,,,,,,,,,,,,0,56,46
87118,note_on,,44,0,1,,,,,,,,,,,,,,0,68,0
87120,note_on,,2,0,1,,,,,,,,,,,,,,0,75,0
87348,note_on,,228,0,1,,,,,,,,,,,,,,0,75,64
87362,note_on,,14,0,1,,,,,,,,,,,,,,0,68,41
87412,note_on,,50,0,1,,,,,,,,,,,,,,0,75,0
87422,note_on,,10,0,1,,,,,,,,,,,,,,0,68,0
87430,note_on,,8,0,1,,,,,,,,,,,,,,0,56,0
87488,note_on,,58,0,1,,,,,,,,,,,,,,0,44,0
87652,note_on,,164,0,1,,,,,,,,,,,,,,0,68,30
87652,note_on,,0,0,1,,,,,,,,,,,,,,0,76,54
87658,note_on,,6,0,1,,,,,,,,,,,,,,0,44,37
87666,note_on,,8,0,1,,,,,,,,,,,,,,0,56,29
87680,note_on,,14,0,1,,,,,,,,,,,,,,0,73,25
87766,note_on,,86,0,1,,,,,,,,,,,,,,0,73,0
87874,note_on,,108,0,1,,,,,,,,,,,,,,0,68,0
87952,control_change,,78,0,1,,,,,,,,,,,,64,127,0,,
87972,note_on,,20,0,1,,,,,,,,,,,,,,0,44,0
87984,note_on,,12,0,1,,,,,,,,,,,,,,0,80,48
87986,note_on,,2,0,1,,,,,,,,,,,,,,0,56,0
87988,note_on,,2,0,1,,,,,,,,,,,,,,0,76,0
88136,note_on,,148,0,1,,,,,,,,,,,,,,0,80,0
88184,note_on,,48,0,1,,,,,,,,,,,,,,0,75,27
88238,note_on,,54,0,1,,,,,,,,,,,,,,0,76,42
88244,control_change,,6,0,1,,,,,,,,,,,,64,0,0,,
88290,note_on,,46,0,1,,,,,,,,,,,,,,0,63,24
88296,note_on,,6,0,1,,,,,,,,,,,,,,0,56,25
88298,note_on,,2,0,1,,,,,,,,,,,,,,0,76,0
88598,control_change,,300,0,1,,,,,,,,,,,,64,127,0,,
88610,note_on,,12,0,1,,,,,,,,,,,,,,0,72,38
88614,note_on,,4,0,1,,,,,,,,,,,,,,0,75,0
88616,note_on,,2,0,1,,,,,,,,,,,,,,0,63,0
88654,note_on,,38,0,1,,,,,,,,,,,,,,0,56,0
88696,note_on,,42,0,1,,,,,,,,,,,,,,0,72,0
88774,note_on,,78,0,1,,,,,,,,,,,,,,0,75,50
88822,note_on,,48,0,1,,,,,,,,,,,,,,0,75,0
88840,note_on,,18,0,1,,,,,,,,,,,,,,0,76,51
88858,control_change,,18,0,1,,,,,,,,,,,,64,0,0,,
88880,note_on,,22,0,1,,,,,,,,,,,,,,0,75,63
88900,note_on,,20,0,1,,,,,,,,,,,,,,0,76,0
88900,note_on,,0,0,1,,,,,,,,,,,,,,0,63,37
88918,note_on,,18,0,1,,,,,,,,,,,,,,0,56,19
89150,control_change,,232,0,1,,,,,,,,,,,,64,127,0,,
89196,note_on,,46,0,1,,,,,,,,,,,,,,0,72,67
89218,note_on,,22,0,1,,,,,,,,,,,,,,0,75,0
89221,note_on,,3,0,1,,,,,,,,,,,,,,0,63,0
89290,note_on,,69,0,1,,,,,,,,,,,,,,0,56,0
89350,note_on,,60,0,1,,,,,,,,,,,,,,0,72,0
89404,note_on,,54,0,1,,,,,,,,,,,,,,0,75,58
89446,note_on,,42,0,1,,,,,,,,,,,,,,0,76,73
89448,note_on,,2,0,1,,,,,,,,,,,,,,0,75,0
89486,note_on,,38,0,1,,,,,,,,,,,,,,0,56,27
89486,note_on,,0,0,1,,,,,,,,,,,,,,0,63,41
89489,control_change,,3,0,1,,,,,,,,,,,,64,0,0,,
89500,note_on,,11,0,1,,,,,,,,,,,,,,0,75,83
89534,note_on,,34,0,1,,,,,,,,,,,,,,0,76,0
89750,control_change,,216,0,1,,,,,,,,,,,,64,127,0,,
89776,note_on,,26,0,1,,,,,,,,,,,,,,0,63,0
89782,note_on,,6,0,1,,,,,,,,,,,,,,0,73,65
89812,note_on,,30,0,1,,,,,,,,,,,,,,0,75,0
89892,note_on,,80,0,1,,,,,,,,,,,,,,0,56,0
89892,note_on,,0,0,1,,,,,,,,,,,,,,0,72,75
89910,note_on,,18,0,1,,,,,,,,,,,,,,0,73,0
89936,note_on,,26,0,1,,,,,,,,,,,,,,0,72,0
90010,control_change,,74,0,1,,,,,,,,,,,,64,0,0,,
90058,note_on,,48,0,1,,,,,,,,,,,,,,0,81,81
90060,note_on,,2,0,1,,,,,,,,,,,,,,0,63,37
90074,note_on,,14,0,1,,,,,,,,,,,,,,0,54,33
90080,note_on,,6,0,1,,,,,,,,,,,,,,0,72,41
90256,note_on,,176,0,1,,,,,,,,,,,,,,0,81,0
90272,control_change,,16,0,1,,,,,,,,,,,,64,127,0,,
90316,note_on,,44,0,1,,,,,,,,,,,,,,0,54,0
90326,note_on,,10,0,1,,,,,,,,,,,,,,0,63,0
90374,note_on,,48,0,1,,,,,,,,,,,,,,0,81,47
90404,note_on,,30,0,1,,,,,,,,,,,,,,0,72,0
90428,note_on,,24,0,1,,,,,,,,,,,,,,0,81,0
90496,note_on,,68,0,1,,,,,,,,,,,,,,0,81,68
90538,note_on,,42,0,1,,,,,,,,,,,,,,0,81,0
90606,note_on,,68,0,1,,,,,,,,,,,,,,0,81,70
90614,note_on,,8,0,1,,,,,,,,,,,,,,0,63,38
90622,note_on,,8,0,1,,,,,,,,,,,,,,0,54,40
90626,note_on,,4,0,1,,,,,,,,,,,,,,0,72,61
90778,note_on,,152,0,1,,,,,,,,,,,,,,0,81,0
90866,note_on,,88,0,1,,,,,,,,,,,,,,0,54,0
90894,note_on,,28,0,1,,,,,,,,,,,,,,0,63,0
90914,note_on,,20,0,1,,,,,,,,,,,,,,0,81,95
90976,note_on,,62,0,1,,,,,,,,,,,,,,0,72,0
91066,note_on,,90,0,1,,,,,,,,,,,,,,0,81,0
91204,note_on,,138,0,1,,,,,,,,,,,,,,0,63,53
91206,note_on,,2,0,1,,,,,,,,,,,,,,0,84,98
91208,note_on,,2,0,1,,,,,,,,,,,,,,0,72,73
91212,note_on,,4,0,1,,,,,,,,,,,,,,0,54,41
91224,control_change,,12,0,1,,,,,,,,,,,,64,0,0,,
91410,control_change,,186,0,1,,,,,,,,,,,,64,127,0,,
91420,note_on,,10,0,1,,,,,,,,,,,,,,0,72,0
91440,note_on,,20,0,1,,,,,,,,,,,,,,0,84,0
91456,note_on,,16,0,1,,,,,,,,,,,,,,0,54,0
91500,note_on,,44,0,1,,,,,,,,,,,,,,0,63,0
91508,note_on,,8,0,1,,,,,,,,,,,,,,0,84,87
91630,note_on,,122,0,1,,,,,,,,,,,,,,0,84,0
91812,note_on,,182,0,1,,,,,,,,,,,,,,0,61,20
91814,note_on,,2,0,1,,,,,,,,,,,,,,0,64,23
91816,note_on,,2,0,1,,,,,,,,,,,,,,0,85,65
91824,note_on,,8,0,1,,,,,,,,,,,,,,0,52,35
91824,control_change,,0,0,1,,,,,,,,,,,,64,0,0,,
91842,note_on,,18,0,1,,,,,,,,,,,,,,0,73,10
92084,control_change,,242,0,1,,,,,,,,,,,,64,127,0,,
92116,note_on,,32,0,1,,,,,,,,,,,,,,0,61,0
92121,note_on,,5,0,1,,,,,,,,,,,,,,0,52,0
92142,note_on,,21,0,1,,,,,,,,,,,,,,0,80,63
92144,note_on,,2,0,1,,,,,,,,,,,,,,0,73,0
92148,note_on,,4,0,1,,,,,,,,,,,,,,0,64,0
92218,note_on,,70,0,1,,,,,,,,,,,,,,0,85,0
92452,note_on,,234,0,1,,,,,,,,,,,,,,0,64,36
92458,note_on,,6,0,1,,,,,,,,,,,,,,0,52,29
92476,note_on,,18,0,1,,,,,,,,,,,,,,0,61,19
92620,note_on,,144,0,1,,,,,,,,,,,,,,0,61,0
92626,note_on,,6,0,1,,,,,,,,,,,,,,0,64,0
92652,note_on,,26,0,1,,,,,,,,,,,,,,0,52,0
92762,note_on,,110,0,1,,,,,,,,,,,,,,0,76,55
92824,note_on,,62,0,1,,,,,,,,,,,,,,0,80,0
93078,note_on,,254,0,1,,,,,,,,,,,,,,0,64,36
93084,control_change,,6,0,1,,,,,,,,,,,,64,0,0,,
93092,note_on,,8,0,1,,,,,,,,,,,,,,0,57,19
93100,note_on,,8,0,1,,,,,,,,,,,,,,0,61,18
93298,control_change,,198,0,1,,,,,,,,,,,,64,127,0,,
93320,note_on,,22,0,1,,,,,,,,,,,,,,0,64,0
93354,note_on,,34,0,1,,,,,,,,,,,,,,0,73,55
93378,note_on,,24,0,1,,,,,,,,,,,,,,0,57,0
93390,note_on,,12,0,1,,,,,,,,,,,,,,0,61,0
93418,note_on,,28,0,1,,,,,,,,,,,,,,0,76,0
93674,note_on,,256,0,1,,,,,,,,,,,,,,0,75,58
93678,note_on,,4,0,1,,,,,,,,,,,,,,0,66,23
93682,note_on,,4,0,1,,,,,,,,,,,,,,0,69,31
93698,control_change,,16,0,1,,,,,,,,,,,,64,0,0,,
93700,note_on,,2,0,1,,,,,,,,,,,,,,0,54,31
93706,note_on,,6,0,1,,,,,,,,,,,,,,0,73,0
93944,control_change,,238,0,1,,,,,,,,,,,,64,127,0,,
93992,note_on,,48,0,1,,,,,,,,,,,,,,0,76,61
94000,note_on,,8,0,1,,,,,,,,,,,,,,0,75,0
94062,note_on,,62,0,1,,,,,,,,,,,,,,0,66,0
94114,note_on,,52,0,1,,,,,,,,,,,,,,0,78,69
94138,note_on,,24,0,1,,,,,,,,,,,,,,0,69,0
94158,note_on,,20,0,1,,,,,,,,,,,,,,0,76,0
94174,note_on,,16,0,1,,,,,,,,,,,,,,0,54,0
94252,note_on,,78,0,1,,,,,,,,,,,,,,0,56,35
94258,note_on,,6,0,1,,,,,,,,,,,,,,0,76,52
94264,note_on,,6,0,1,,,,,,,,,,,,,,0,78,0
94268,control_change,,4,0,1,,,,,,,,,,,,64,0,0,,
94274,note_on,,6,0,1,,,,,,,,,,,,,,0,68,53
94282,note_on,,8,0,1,,,,,,,,,,,,,,0,64,31
94416,note_on,,134,0,1,,,,,,,,,,,,,,0,68,0
94512,control_change,,96,0,1,,,,,,,,,,,,64,127,0,,
94520,note_on,,8,0,1,,,,,,,,,,,,,,0,64,0
94586,note_on,,66,0,1,,,,,,,,,,,,,,0,74,56
94598,note_on,,12,0,1,,,,,,,,,,,,,,0,76,0
94672,note_on,,74,0,1,,,,,,,,,,,,,,0,74,0
94692,note_on,,20,0,1,,,,,,,,,,,,,,0,73,41
94750,note_on,,58,0,1,,,,,,,,,,,,,,0,73,0
94796,note_on,,46,0,1,,,,,,,,,,,,,,0,56,0
94834,note_on,,38,0,1,,,,,,,,,,,,,,0,54,26
94856,note_on,,22,0,1,,,,,,,,,,,,,,0,62,23
94866,control_change,,10,0,1,,,,,,,,,,,,64,0,0,,
94878,note_on,,12,0,1,,,,,,,,,,,,,,0,74,27
94896,note_on,,18,0,1,,,,,,,,,,,,,,0,83,95
94942,note_on,,46,0,1,,,,,,,,,,,,,,0,74,0
94948,note_on,,6,0,1,,,,,,,,,,,,,,0,76,45
95018,note_on,,70,0,1,,,,,,,,,,,,,,0,74,53
95080,note_on,,62,0,1,,,,,,,,,,,,,,0,76,0
95174,control_change,,94,0,1,,,,,,,,,,,,64,127,0,,
95234,note_on,,60,0,1,,,,,,,,,,,,,,0,62,0
95254,note_on,,20,0,1,,,,,,,,,,,,,,0,74,0
95278,note_on,,24,0,1,,,,,,,,,,,,,,0,73,44
95372,note_on,,94,0,1,,,,,,,,,,,,,,0,73,0
95388,note_on,,16,0,1,,,,,,,,,,,,,,0,54,0
95414,note_on,,26,0,1,,,,,,,,,,,,,,0,74,68
95542,control_change,,128,0,1,,,,,,,,,,,,64,0,0,,
95550,note_on,,8,0,1,,,,,,,,,,,,,,0,74,0
95584,note_on,,34,0,1,,,,,,,,,,,,,,0,61,19
95588,note_on,,4,0,1,,,,,,,,,,,,,,0,59,35
95594,note_on,,6,0,1,,,,,,,,,,,,,,0,73,54
95612,note_on,,18,0,1,,,,,,,,,,,,,,0,53,39
95724,note_on,,112,0,1,,,,,,,,,,,,,,0,83,0
95756,control_change,,32,0,1,,,,,,,,,,,,64,127,0,,
95848,note_on,,92,0,1,,,,,,,,,,,,,,0,61,0
95854,note_on,,6,0,1,,,,,,,,,,,,,,0,53,0
95890,note_on,,36,0,1,,,,,,,,,,,,,,0,59,0
95922,note_on,,32,0,1,,,,,,,,,,,,,,0,86,76
96048,note_on,,126,0,1,,,,,,,,,,,,,,0,86,0
96060,note_on,,12,0,1,,,,,,,,,,,,,,0,85,55
96102,note_on,,42,0,1,,,,,,,,,,,,,,0,85,0
96196,note_on,,94,0,1,,,,,,,,,,,,,,0,61,27
96200,note_on,,4,0,1,,,,,,,,,,,,,,0,83,97
96214,note_on,,14,0,1,,,,,,,,,,,,,,0,59,24
96228,note_on,,14,0,1,,,,,,,,,,,,,,0,53,47
96402,note_on,,174,0,1,,,,,,,,,,,,,,0,83,0
96458,note_on,,56,0,1,,,,,,,,,,,,,,0,59,0
96464,note_on,,6,0,1,,,,,,,,,,,,,,0,81,53
96470,note_on,,6,0,1,,,,,,,,,,,,,,0,61,0
96512,note_on,,42,0,1,,,,,,,,,,,,,,0,73,0
96534,note_on,,22,0,1,,,,,,,,,,,,,,0,81,0
96548,note_on,,14,0,1,,,,,,,,,,,,,,0,80,62
96620,note_on,,72,0,1,,,,,,,,,,,,,,0,81,50
96674,note_on,,54,0,1,,,,,,,,,,,,,,0,80,0
96684,note_on,,10,0,1,,,,,,,,,,,,,,0,81,0
96692,note_on,,8,0,1,,,,,,,,,,,,,,0,83,87
96716,note_on,,24,0,1,,,,,,,,,,,,,,0,53,0
96770,note_on,,54,0,1,,,,,,,,,,,,,,0,81,73
96780,note_on,,10,0,1,,,,,,,,,,,,,,0,61,41
96784,note_on,,4,0,1,,,,,,,,,,,,,,0,73,52
96786,control_change,,2,0,1,,,,,,,,,,,,64,0,0,,
96788,note_on,,2,0,1,,,,,,,,,,,,,,0,54,35
96790,note_on,,2,0,1,,,,,,,,,,,,,,0,57,24
96811,note_on,,21,0,1,,,,,,,,,,,,,,0,83,0
96990,note_on,,179,0,1,,,,,,,,,,,,,,0,57,0
97032,control_change,,42,0,1,,,,,,,,,,,,64,127,0,,
97068,note_on,,36,0,1,,,,,,,,,,,,,,0,54,0
97116,note_on,,48,0,1,,,,,,,,,,,,,,0,80,76
97118,note_on,,2,0,1,,,,,,,,,,,,,,0,61,0
97124,note_on,,6,0,1,,,,,,,,,,,,,,0,81,0
97246,note_on,,122,0,1,,,,,,,,,,,,,,0,81,81
97278,note_on,,32,0,1,,,,,,,,,,,,,,0,73,0
97316,note_on,,38,0,1,,,,,,,,,,,,,,0,80,0
97418,note_on,,102,0,1,,,,,,,,,,,,,,0,68,41
97424,note_on,,6,0,1,,,,,,,,,,,,,,0,83,101
97430,note_on,,6,0,1,,,,,,,,,,,,,,0,74,63
97432,note_on,,2,0,1,,,,,,,,,,,,,,0,66,29
97446,note_on,,14,0,1,,,,,,,,,,,,,,0,59,33
97478,note_on,,32,0,1,,,,,,,,,,,,,,0,81,0
97556,control_change,,78,0,1,,,,,,,,,,,,64,0,0,,
97748,note_on,,192,0,1,,,,,,,,,,,,,,0,81,80
97750,note_on,,2,0,1,,,,,,,,,,,,,,0,66,0
97770,control_change,,20,0,1,,,,,,,,,,,,64,127,0,,
97798,note_on,,28,0,1,,,,,,,,,,,,,,0,83,0
97854,note_on,,56,0,1,,,,,,,,,,,,,,0,74,0
97870,note_on,,16,0,1,,,,,,,,,,,,,,0,80,86
97904,note_on,,34,0,1,,,,,,,,,,,,,,0,68,0
97910,note_on,,6,0,1,,,,,,,,,,,,,,0,81,0
97914,note_on,,4,0,1,,,,,,,,,,,,,,0,59,0
98016,note_on,,102,0,1,,,,,,,,,,,,,,0,80,0
98038,note_on,,22,0,1,,,,,,,,,,,,,,0,73,68
98044,note_on,,6,0,1,,,,,,,,,,,,,,0,69,43
98046,note_on,,2,0,1,,,,,,,,,,,,,,0,81,87
98058,note_on,,12,0,1,,,,,,,,,,,,,,0,61,40
98070,note_on,,12,0,1,,,,,,,,,,,,,,0,66,28
98078,control_change,,8,0,1,,,,,,,,,,,,64,0,0,,
98336,note_on,,258,0,1,,,,,,,,,,,,,,0,73,0
98338,control_change,,2,0,1,,,,,,,,,,,,64,127,0,,
98360,note_on,,22,0,1,,,,,,,,,,,,,,0,79,79
98384,note_on,,24,0,1,,,,,,,,,,,,,,0,81,0
98416,note_on,,32,0,1,,,,,,,,,,,,,,0,69,0
98434,note_on,,18,0,1,,,,,,,,,,,,,,0,66,0
98486,note_on,,52,0,1,,,,,,,,,,,,,,0,78,84
98489,note_on,,3,0,1,,,,,,,,,,,,,,0,79,0
98532,note_on,,43,0,1,,,,,,,,,,,,,,0,78,0
98556,note_on,,24,0,1,,,,,,,,,,,,,,0,61,0
98630,control_change,,74,0,1,,,,,,,,,,,,64,0,0,,
98634,note_on,,4,0,1,,,,,,,,,,,,,,0,67,40
98648,note_on,,14,0,1,,,,,,,,,,,,,,0,59,32
98652,note_on,,4,0,1,,,,,,,,,,,,,,0,88,84
98656,note_on,,4,0,1,,,,,,,,,,,,,,0,79,78
98670,note_on,,14,0,1,,,,,,,,,,,,,,0,64,37
98704,note_on,,34,0,1,,,,,,,,,,,,,,0,79,0
98754,note_on,,50,0,1,,,,,,,,,,,,,,0,81,57
98814,note_on,,60,0,1,,,,,,,,,,,,,,0,79,50
98890,note_on,,76,0,1,,,,,,,,,,,,,,0,81,0
98954,control_change,,64,0,1,,,,,,,,,,,,64,127,0,,
99026,note_on,,72,0,1,,,,,,,,,,,,,,0,78,62
99030,note_on,,4,0,1,,,,,,,,,,,,,,0,79,0
99100,note_on,,70,0,1,,,,,,,,,,,,,,0,64,0
99116,note_on,,16,0,1,,,,,,,,,,,,,,0,67,0
99146,note_on,,30,0,1,,,,,,,,,,,,,,0,78,0
99162,note_on,,16,0,1,,,,,,,,,,,,,,0,79,79
99202,note_on,,40,0,1,,,,,,,,,,,,,,0,59,0
99320,note_on,,118,0,1,,,,,,,,,,,,,,0,78,65
99322,note_on,,2,0,1,,,,,,,,,,,,,,0,79,0
99322,control_change,,0,0,1,,,,,,,,,,,,64,0,0,,
99324,note_on,,2,0,1,,,,,,,,,,,,,,0,66,23
99350,note_on,,26,0,1,,,,,,,,,,,,,,0,58,10
99364,note_on,,14,0,1,,,,,,,,,,,,,,0,64,34
99614,control_change,,250,0,1,,,,,,,,,,,,64,127,0,,
99664,note_on,,50,0,1,,,,,,,,,,,,,,0,85,72
99696,note_on,,32,0,1,,,,,,,,,,,,,,0,88,0
99746,note_on,,50,0,1,,,,,,,,,,,,,,0,64,0
99754,note_on,,8,0,1,,,,,,,,,,,,,,0,58,0
99758,note_on,,4,0,1,,,,,,,,,,,,,,0,66,0
99790,note_on,,32,0,1,,,,,,,,,,,,,,0,86,83
99854,note_on,,64,0,1,,,,,,,,,,,,,,0,85,0
99936,note_on,,82,0,1,,,,,,,,,,,,,,0,66,44
99948,note_on,,12,0,1,,,,,,,,,,,,,,0,88,87
99960,note_on,,12,0,1,,,,,,,,,,,,,,0,58,24
99982,note_on,,22,0,1,,,,,,,,,,,,,,0,64,31
100004,note_on,,22,0,1,,,,,,,,,,,,,,0,86,0
100194,note_on,,190,0,1,,,,,,,,,,,,,,0,64,0
100208,note_on,,14,0,1,,,,,,,,,,,,,,0,66,0
100246,note_on,,38,0,1,,,,,,,,,,,,,,0,86,78
100310,note_on,,64,0,1,,,,,,,,,,,,,,0,88,0
100328,note_on,,18,0,1,,,,,,,,,,,,,,0,85,76
100360,note_on,,32,0,1,,,,,,,,,,,,,,0,86,0
100418,note_on,,58,0,1,,,,,,,,,,,,,,0,78,0
100421,note_on,,3,0,1,,,,,,,,,,,,,,0,86,79
100448,note_on,,27,0,1,,,,,,,,,,,,,,0,58,0
100496,note_on,,48,0,1,,,,,,,,,,,,,,0,85,0
100499,note_on,,3,0,1,,,,,,,,,,,,,,0,88,79
100522,note_on,,23,0,1,,,,,,,,,,,,,,0,86,0
100554,note_on,,32,0,1,,,,,,,,,,,,,,0,66,44
100566,control_change,,12,0,1,,,,,,,,,,,,64,0,0,,
100568,note_on,,2,0,1,,,,,,,,,,,,,,0,86,94
100570,note_on,,2,0,1,,,,,,,,,,,,,,0,78,75
100582,note_on,,12,0,1,,,,,,,,,,,,,,0,62,37
100604,note_on,,22,0,1,,,,,,,,,,,,,,0,59,31
100654,note_on,,50,0,1,,,,,,,,,,,,,,0,88,0
100828,control_change,,174,0,1,,,,,,,,,,,,64,127,0,,
100862,note_on,,34,0,1,,,,,,,,,,,,,,0,62,0
100866,note_on,,4,0,1,,,,,,,,,,,,,,0,85,79
100912,note_on,,46,0,1,,,,,,,,,,,,,,0,86,0
100948,note_on,,36,0,1,,,,,,,,,,,,,,0,59,0
101002,note_on,,54,0,1,,,,,,,,,,,,,,0,66,0
101005,note_on,,3,0,1,,,,,,,,,,,,,,0,86,64
101022,note_on,,17,0,1,,,,,,,,,,,,,,0,78,0
101132,note_on,,110,0,1,,,,,,,,,,,,,,0,85,0
101176,note_on,,44,0,1,,,,,,,,,,,,,,0,88,78
101180,note_on,,4,0,1,,,,,,,,,,,,,,0,79,64
101192,note_on,,12,0,1,,,,,,,,,,,,,,0,64,49
101214,note_on,,22,0,1,,,,,,,,,,,,,,0,52,41
101250,note_on,,36,0,1,,,,,,,,,,,,,,0,86,0
101350,control_change,,100,0,1,,,,,,,,,,,,64,0,0,,
101500,note_on,,150,0,1,,,,,,,,,,,,,,0,86,79
101564,control_change,,64,0,1,,,,,,,,,,,,64,127,0,,
101566,note_on,,2,0,1,,,,,,,,,,,,,,0,88,0
101606,note_on,,40,0,1,,,,,,,,,,,,,,0,64,0
101632,note_on,,26,0,1,,,,,,,,,,,,,,0,85,79
101666,note_on,,34,0,1,,,,,,,,,,,,,,0,86,0
101676,note_on,,10,0,1,,,,,,,,,,,,,,0,85,0
101744,note_on,,68,0,1,,,,,,,,,,,,,,0,52,0
101784,note_on,,40,0,1,,,,,,,,,,,,,,0,78,81
101786,note_on,,2,0,1,,,,,,,,,,,,,,0,83,103
101788,note_on,,2,0,1,,,,,,,,,,,,,,0,62,54
101802,note_on,,14,0,1,,,,,,,,,,,,,,0,54,55
101832,note_on,,30,0,1,,,,,,,,,,,,,,0,79,0
101888,control_change,,56,0,1,,,,,,,,,,,,64,0,0,,
102058,note_on,,170,0,1,,,,,,,,,,,,,,0,83,0
102096,note_on,,38,0,1,,,,,,,,,,,,,,0,74,81
102150,control_change,,54,0,1,,,,,,,,,,,,64,127,0,,
102194,note_on,,44,0,1,,,,,,,,,,,,,,0,62,0
102196,note_on,,2,0,1,,,,,,,,,,,,,,0,78,0
102230,note_on,,34,0,1,,,,,,,,,,,,,,0,54,0
102244,note_on,,14,0,1,,,,,,,,,,,,,,0,83,105
102282,note_on,,38,0,1,,,,,,,,,,,,,,0,74,0
102380,control_change,,98,0,1,,,,,,,,,,,,64,0,0,,
102406,note_on,,26,0,1,,,,,,,,,,,,,,0,82,84
102408,note_on,,2,0,1,,,,,,,,,,,,,,0,73,74
102412,note_on,,4,0,1,,,,,,,,,,,,,,0,66,66
102420,note_on,,8,0,1,,,,,,,,,,,,,,0,54,72
102436,note_on,,16,0,1,,,,,,,,,,,,,,0,83,0
102626,control_change,,190,0,1,,,,,,,,,,,,64,127,0,,
102629,note_on,,3,0,1,,,,,,,,,,,,,,0,66,0
102722,note_on,,93,0,1,,,,,,,,,,,,,,0,54,0
102822,note_on,,100,0,1,,,,,,,,,,,,,,0,73,0
103050,note_on,,228,0,1,,,,,,,,,,,,,,0,83,108
103054,note_on,,4,0,1,,,,,,,,,,,,,,0,82,0
103058,note_on,,4,0,1,,,,,,,,,,,,,,0,71,79
103064,note_on,,6,0,1,,,,,,,,,,,,,,0,35,101
103226,control_change,,162,0,1,,,,,,,,,,,,64,0,0,,
103292,note_on,,66,0,1,,,,,,,,,,,,,,0,71,0
103388,note_on,,96,0,1,,,,,,,,,,,,,,0,83,0
103392,note_on,,4,0,1,,,,,,,,,,,,,,0,71,56
103394,note_on,,2,0,1,,,,,,,,,,,,,,0,78,68
103410,control_change,,16,0,1,,,,,,,,,,,,64,127,0,,
103436,note_on,,26,0,1,,,,,,,,,,,,,,0,78,0
103446,note_on,,10,0,1,,,,,,,,,,,,,,0,71,0
103506,note_on,,60,0,1,,,,,,,,,,,,,,0,78,66
103516,note_on,,10,0,1,,,,,,,,,,,,,,0,71,70
103519,note_on,,3,0,1,,,,,,,,,,,,,,0,35,0
103562,control_change,,43,0,1,,,,,,,,,,,,64,0,0,,
103566,note_on,,4,0,1,,,,,,,,,,,,,,0,71,0
103600,note_on,,34,0,1,,,,,,,,,,,,,,0,78,0
103650,note_on,,50,0,1,,,,,,,,,,,,,,0,78,96
103652,note_on,,2,0,1,,,,,,,,,,,,,,0,71,79
103655,note_on,,3,0,1,,,,,,,,,,,,,,0,35,74
103734,note_on,,79,0,1,,,,,,,,,,,,,,0,78,0
103746,note_on,,12,0,1,,,,,,,,,,,,,,0,71,0
103938,note_on,,192,0,1,,,,,,,,,,,,,,0,78,86
103954,note_on,,16,0,1,,,,,,,,,,,,,,0,71,81
104000,note_on,,46,0,1,,,,,,,,,,,,,,0,71,0
104060,note_on,,60,0,1,,,,,,,,,,,,,,0,78,0
104174,note_on,,114,0,1,,,,,,,,,,,,,,0,35,0
104238,note_on,,64,0,1,,,,,,,,,,,,,,0,80,91
104244,note_on,,6,0,1,,,,,,,,,,,,,,0,35,85
104244,note_on,,0,0,1,,,,,,,,,,,,,,0,71,81
104250,note_on,,6,0,1,,,,,,,,,,,,,,0,76,58
104322,note_on,,72,0,1,,,,,,,,,,,,,,0,76,0
104336,note_on,,14,0,1,,,,,,,,,,,,,,0,35,0
104392,control_change,,56,0,1,,,,,,,,,,,,64,127,0,,
104534,note_on,,142,0,1,,,,,,,,,,,,,,0,71,0
104574,note_on,,40,0,1,,,,,,,,,,,,,,0,83,101
104614,note_on,,40,0,1,,,,,,,,,,,,,,0,80,0
104870,note_on,,256,0,1,,,,,,,,,,,,,,0,78,88
104872,note_on,,2,0,1,,,,,,,,,,,,,,0,66,65
104874,note_on,,2,0,1,,,,,,,,,,,,,,0,71,81
104896,note_on,,22,0,1,,,,,,,,,,,,,,0,59,43
104908,note_on,,12,0,1,,,,,,,,,,,,,,0,83,0
104952,note_on,,44,0,1,,,,,,,,,,,,,,0,59,0
104976,note_on,,24,0,1,,,,,,,,,,,,,,0,66,0
105176,control_change,,200,0,1,,,,,,,,,,,,64,0,0,,
105178,note_on,,2,0,1,,,,,,,,,,,,,,0,66,60
105198,note_on,,20,0,1,,,,,,,,,,,,,,0,59,28
105222,note_on,,24,0,1,,,,,,,,,,,,,,0,66,0
105268,note_on,,46,0,1,,,,,,,,,,,,,,0,59,0
105288,note_on,,20,0,1,,,,,,,,,,,,,,0,66,62
105312,note_on,,24,0,1,,,,,,,,,,,,,,0,59,41
105360,note_on,,48,0,1,,,,,,,,,,,,,,0,59,0
105364,note_on,,4,0,1,,,,,,,,,,,,,,0,66,0
105424,note_on,,60,0,1,,,,,,,,,,,,,,0,66,72
105424,note_on,,0,0,1,,,,,,,,,,,,,,0,59,70
105450,note_on,,26,0,1,,,,,,,,,,,,,,0,75,65
105494,note_on,,44,0,1,,,,,,,,,,,,,,0,59,0
105508,note_on,,14,0,1,,,,,,,,,,,,,,0,66,0
105532,note_on,,24,0,1,,,,,,,,,,,,,,0,71,0
105552,note_on,,20,0,1,,,,,,,,,,,,,,0,78,0
105724,note_on,,172,0,1,,,,,,,,,,,,,,0,66,80
105734,note_on,,10,0,1,,,,,,,,,,,,,,0,59,79
105774,note_on,,40,0,1,,,,,,,,,,,,,,0,59,0
105796,note_on,,22,0,1,,,,,,,,,,,,,,0,66,0
106016,note_on,,220,0,1,,,,,,,,,,,,,,0,68,83
106028,note_on,,12,0,1,,,,,,,,,,,,,,0,59,65
106032,note_on,,4,0,1,,,,,,,,,,,,,,0,76,67
106058,note_on,,26,0,1,,,,,,,,,,,,,,0,75,0
106126,note_on,,68,0,1,,,,,,,,,,,,,,0,78,69
106150,note_on,,24,0,1,,,,,,,,,,,,,,0,76,0
106198,note_on,,48,0,1,,,,,,,,,,,,,,0,78,0
106212,note_on,,14,0,1,,,,,,,,,,,,,,0,76,54
106240,note_on,,28,0,1,,,,,,,,,,,,,,0,68,0
106266,note_on,,26,0,1,,,,,,,,,,,,,,0,76,0
106284,note_on,,18,0,1,,,,,,,,,,,,,,0,78,53
106300,note_on,,16,0,1,,,,,,,,,,,,,,0,71,64
106312,control_change,,12,0,1,,,,,,,,,,,,64,127,0,,
106346,note_on,,34,0,1,,,,,,,,,,,,,,0,76,51
106349,note_on,,3,0,1,,,,,,,,,,,,,,0,71,0
106378,note_on,,29,0,1,,,,,,,,,,,,,,0,59,0
106418,note_on,,40,0,1,,,,,,,,,,,,,,0,78,0
106450,note_on,,32,0,1,,,,,,,,,,,,,,0,75,73
106453,note_on,,3,0,1,,,,,,,,,,,,,,0,76,0
106516,note_on,,63,0,1,,,,,,,,,,,,,,0,76,74
106560,note_on,,44,0,1,,,,,,,,,,,,,,0,75,0
106640,note_on,,80,0,1,,,,,,,,,,,,,,0,78,90
106652,note_on,,12,0,1,,,,,,,,,,,,,,0,71,83
106658,note_on,,6,0,1,,,,,,,,,,,,,,0,35,97
106686,note_on,,28,0,1,,,,,,,,,,,,,,0,76,0
106774,control_change,,88,0,1,,,,,,,,,,,,64,0,0,,
106898,note_on,,124,0,1,,,,,,,,,,,,,,0,71,0
106908,note_on,,10,0,1,,,,,,,,,,,,,,0,78,0
106962,note_on,,54,0,1,,,,,,,,,,,,,,0,78,86
106968,note_on,,6,0,1,,,,,,,,,,,,,,0,71,78
106990,control_change,,22,0,1,,,,,,,,,,,,64,127,0,,
107018,note_on,,28,0,1,,,,,,,,,,,,,,0,78,0
107020,note_on,,2,0,1,,,,,,,,,,,,,,0,71,0
107066,control_change,,46,0,1,,,,,,,,,,,,64,0,0,,
107086,note_on,,20,0,1,,,,,,,,,,,,,,0,35,0
107086,note_on,,0,0,1,,,,,,,,,,,,,,0,78,81
107089,note_on,,3,0,1,,,,,,,,,,,,,,0,71,78
107134,note_on,,45,0,1,,,,,,,,,,,,,,0,71,0
107142,note_on,,8,0,1,,,,,,,,,,,,,,0,78,0
107210,note_on,,68,0,1,,,,,,,,,,,,,,0,78,86
107213,note_on,,3,0,1,,,,,,,,,,,,,,0,71,73
107224,note_on,,11,0,1,,,,,,,,,,,,,,0,35,79
107272,note_on,,48,0,1,,,,,,,,,,,,,,0,71,0
107298,note_on,,26,0,1,,,,,,,,,,,,,,0,78,0
107508,note_on,,210,0,1,,,,,,,,,,,,,,0,78,81
107538,note_on,,30,0,1,,,,,,,,,,,,,,0,71,66
107584,note_on,,46,0,1,,,,,,,,,,,,,,0,71,0
107618,note_on,,34,0,1,,,,,,,,,,,,,,0,78,0
107682,note_on,,64,0,1,,,,,,,,,,,,,,0,35,0
107808,note_on,,126,0,1,,,,,,,,,,,,,,0,80,81
107822,note_on,,14,0,1,,,,,,,,,,,,,,0,76,51
107822,note_on,,0,0,1,,,,,,,,,,,,,,0,71,71
107844,note_on,,22,0,1,,,,,,,,,,,,,,0,35,58
108002,control_change,,158,0,1,,,,,,,,,,,,64,127,0,,
108010,note_on,,8,0,1,,,,,,,,,,,,,,0,35,0
108106,note_on,,96,0,1,,,,,,,,,,,,,,0,76,0
108126,note_on,,20,0,1,,,,,,,,,,,,,,0,83,94
108146,note_on,,20,0,1,,,,,,,,,,,,,,0,80,0
108340,note_on,,194,0,1,,,,,,,,,,,,,,0,71,0
108422,note_on,,82,0,1,,,,,,,,,,,,,,0,78,61
108426,note_on,,4,0,1,,,,,,,,,,,,,,0,83,0
108434,note_on,,8,0,1,,,,,,,,,,,,,,0,66,25
108440,note_on,,6,0,1,,,,,,,,,,,,,,0,59,20
108448,control_change,,8,0,1,,,,,,,,,,,,64,0,0,,
108598,note_on,,150,0,1,,,,,,,,,,,,,,0,75,61
108630,note_on,,32,0,1,,,,,,,,,,,,,,0,78,0
108650,note_on,,20,0,1,,,,,,,,,,,,,,0,75,0
108694,control_change,,44,0,1,,,,,,,,,,,,64,127,0,,
108734,note_on,,40,0,1,,,,,,,,,,,,,,0,75,57
108818,note_on,,84,0,1,,,,,,,,,,,,,,0,59,0
108848,note_on,,30,0,1,,,,,,,,,,,,,,0,66,0
108862,note_on,,14,0,1,,,,,,,,,,,,,,0,75,0
108884,note_on,,22,0,1,,,,,,,,,,,,,,0,76,61
108928,note_on,,44,0,1,,,,,,,,,,,,,,0,76,0
109002,control_change,,74,0,1,,,,,,,,,,,,64,0,0,,
109018,note_on,,16,0,1,,,,,,,,,,,,,,0,76,30
109022,note_on,,4,0,1,,,,,,,,,,,,,,0,66,35
109044,note_on,,22,0,1,,,,,,,,,,,,,,0,59,36
109170,note_on,,126,0,1,,,,,,,,,,,,,,0,78,67
109200,note_on,,30,0,1,,,,,,,,,,,,,,0,76,0
109220,note_on,,20,0,1,,,,,,,,,,,,,,0,78,0
109278,control_change,,58,0,1,,,,,,,,,,,,64,127,0,,
109316,note_on,,38,0,1,,,,,,,,,,,,,,0,78,58
109382,note_on,,66,0,1,,,,,,,,,,,,,,0,66,0
109410,note_on,,28,0,1,,,,,,,,,,,,,,0,59,0
109450,note_on,,40,0,1,,,,,,,,,,,,,,0,80,70
109470,note_on,,20,0,1,,,,,,,,,,,,,,0,78,0
109492,note_on,,22,0,1,,,,,,,,,,,,,,0,80,0
109586,control_change,,94,0,1,,,,,,,,,,,,64,0,0,,
109596,note_on,,10,0,1,,,,,,,,,,,,,,0,66,35
109600,note_on,,4,0,1,,,,,,,,,,,,,,0,80,60
109614,note_on,,14,0,1,,,,,,,,,,,,,,0,59,30
109750,note_on,,136,0,1,,,,,,,,,,,,,,0,81,78
109768,note_on,,18,0,1,,,,,,,,,,,,,,0,80,0
109790,note_on,,22,0,1,,,,,,,,,,,,,,0,81,0
109816,control_change,,26,0,1,,,,,,,,,,,,64,127,0,,
109902,note_on,,86,0,1,,,,,,,,,,,,,,0,81,63
109950,note_on,,48,0,1,,,,,,,,,,,,,,0,66,0
110028,note_on,,78,0,1,,,,,,,,,,,,,,0,83,103
110058,note_on,,30,0,1,,,,,,,,,,,,,,0,81,0
110066,note_on,,8,0,1,,,,,,,,,,,,,,0,83,0
110122,note_on,,56,0,1,,,,,,,,,,,,,,0,59,0
110154,control_change,,32,0,1,,,,,,,,,,,,64,0,0,,
110182,note_on,,28,0,1,,,,,,,,,,,,,,0,66,30
110192,note_on,,10,0,1,,,,,,,,,,,,,,0,83,106
110198,note_on,,6,0,1,,,,,,,,,,,,,,0,63,36
110200,note_on,,2,0,1,,,,,,,,,,,,,,0,57,23
110340,note_on,,140,0,1,,,,,,,,,,,,,,0,85,80
110366,note_on,,26,0,1,,,,,,,,,,,,,,0,83,0
110384,control_change,,18,0,1,,,,,,,,,,,,64,127,0,,
110418,note_on,,34,0,1,,,,,,,,,,,,,,0,85,0
110484,note_on,,66,0,1,,,,,,,,,,,,,,0,85,79
110500,note_on,,16,0,1,,,,,,,,,,,,,,0,57,0
110532,note_on,,32,0,1,,,,,,,,,,,,,,0,66,0
110534,note_on,,2,0,1,,,,,,,,,,,,,,0,63,0
110640,note_on,,106,0,1,,,,,,,,,,,,,,0,87,72
110664,note_on,,24,0,1,,,,,,,,,,,,,,0,85,0
110700,note_on,,36,0,1,,,,,,,,,,,,,,0,87,0
110804,note_on,,104,0,1,,,,,,,,,,,,,,0,66,25
110816,note_on,,12,0,1,,,,,,,,,,,,,,0,87,62
110826,note_on,,10,0,1,,,,,,,,,,,,,,0,63,27
110828,note_on,,2,0,1,,,,,,,,,,,,,,0,57,22
110952,control_change,,124,0,1,,,,,,,,,,,,64,0,0,,
111200,control_change,,248,0,1,,,,,,,,,,,,64,127,0,,
111203,note_on,,3,0,1,,,,,,,,,,,,,,0,57,0
111228,note_on,,25,0,1,,,,,,,,,,,,,,0,63,0
111238,note_on,,10,0,1,,,,,,,,,,,,,,0,66,0
111462,note_on,,224,0,1,,,,,,,,,,,,,,0,66,30
111464,note_on,,2,0,1,,,,,,,,,,,,,,0,57,24
111464,note_on,,0,0,1,,,,,,,,,,,,,,0,63,33
111700,note_on,,236,0,1,,,,,,,,,,,,,,0,63,0
111720,note_on,,20,0,1,,,,,,,,,,,,,,0,57,0
111762,note_on,,42,0,1,,,,,,,,,,,,,,0,66,0
111788,note_on,,26,0,1,,,,,,,,,,,,,,0,88,47
111798,note_on,,10,0,1,,,,,,,,,,,,,,0,87,0
111922,note_on,,124,0,1,,,,,,,,,,,,,,0,88,0
111930,note_on,,8,0,1,,,,,,,,,,,,,,0,85,58
111976,note_on,,46,0,1,,,,,,,,,,,,,,0,85,0
112078,note_on,,102,0,1,,,,,,,,,,,,,,0,85,43
112086,note_on,,8,0,1,,,,,,,,,,,,,,0,64,34
112092,note_on,,6,0,1,,,,,,,,,,,,,,0,56,24
112104,note_on,,12,0,1,,,,,,,,,,,,,,0,59,23
112214,control_change,,110,0,1,,,,,,,,,,,,64,0,0,,
112246,note_on,,32,0,1,,,,,,,,,,,,,,0,85,0
112246,note_on,,0,0,1,,,,,,,,,,,,,,0,83,81
112396,note_on,,150,0,1,,,,,,,,,,,,,,0,83,0
112412,note_on,,16,0,1,,,,,,,,,,,,,,0,88,44
112468,note_on,,56,0,1,,,,,,,,,,,,,,0,59,0
112488,note_on,,20,0,1,,,,,,,,,,,,,,0,64,0
112496,note_on,,8,0,1,,,,,,,,,,,,,,0,56,0
112504,control_change,,8,0,1,,,,,,,,,,,,64,127,0,,
112528,note_on,,24,0,1,,,,,,,,,,,,,,0,88,0
112546,note_on,,18,0,1,,,,,,,,,,,,,,0,85,64
112656,note_on,,110,0,1,,,,,,,,,,,,,,0,85,0
112670,note_on,,14,0,1,,,,,,,,,,,,,,0,56,29
112674,note_on,,4,0,1,,,,,,,,,,,,,,0,64,37
112680,note_on,,6,0,1,,,,,,,,,,,,,,0,59,28
112694,note_on,,14,0,1,,,,,,,,,,,,,,0,83,88
112788,note_on,,94,0,1,,,,,,,,,,,,,,0,83,0
112872,note_on,,84,0,1,,,,,,,,,,,,,,0,85,48
112924,note_on,,52,0,1,,,,,,,,,,,,,,0,85,0
112966,note_on,,42,0,1,,,,,,,,,,,,,,0,83,71
112980,note_on,,14,0,1,,,,,,,,,,,,,,0,59,0
112994,note_on,,14,0,1,,,,,,,,,,,,,,0,64,0
113008,note_on,,14,0,1,,,,,,,,,,,,,,0,56,0
113014,note_on,,6,0,1,,,,,,,,,,,,,,0,83,0
113034,note_on,,20,0,1,,,,,,,,,,,,,,0,85,43
113084,note_on,,50,0,1,,,,,,,,,,,,,,0,85,0
113106,note_on,,22,0,1,,,,,,,,,,,,,,0,83,55
113164,note_on,,58,0,1,,,,,,,,,,,,,,0,83,0
113174,note_on,,10,0,1,,,,,,,,,,,,,,0,85,45
113234,note_on,,60,0,1,,,,,,,,,,,,,,0,85,0
113250,note_on,,16,0,1,,,,,,,,,,,,,,0,83,61
113280,note_on,,30,0,1,,,,,,,,,,,,,,0,64,34
113284,note_on,,4,0,1,,,,,,,,,,,,,,0,56,24
113298,note_on,,14,0,1,,,,,,,,,,,,,,0,59,27
113310,note_on,,12,0,1,,,,,,,,,,,,,,0,83,0
113313,note_on,,3,0,1,,,,,,,,,,,,,,0,85,51
113380,note_on,,67,0,1,,,,,,,,,,,,,,0,85,0
113398,note_on,,18,0,1,,,,,,,,,,,,,,0,83,57
113448,note_on,,50,0,1,,,,,,,,,,,,,,0,85,62
113452,note_on,,4,0,1,,,,,,,,,,,,,,0,83,0
113484,note_on,,32,0,1,,,,,,,,,,,,,,0,64,0
113504,note_on,,20,0,1,,,,,,,,,,,,,,0,59,0
113516,note_on,,12,0,1,,,,,,,,,,,,,,0,56,0
113540,note_on,,24,0,1,,,,,,,,,,,,,,0,83,76
113568,note_on,,28,0,1,,,,,,,,,,,,,,0,85,0
113586,note_on,,18,0,1,,,,,,,,,,,,,,0,83,0
113600,note_on,,14,0,1,,,,,,,,,,,,,,0,81,65
113716,note_on,,116,0,1,,,,,,,,,,,,,,0,81,0
113732,note_on,,16,0,1,,,,,,,,,,,,,,0,80,73
113784,note_on,,52,0,1,,,,,,,,,,,,,,0,80,0
113888,note_on,,104,0,1,,,,,,,,,,,,,,0,69,31
113888,control_change,,0,0,1,,,,,,,,,,,,64,0,0,,
113891,note_on,,3,0,1,,,,,,,,,,,,,,0,80,71
113896,note_on,,5,0,1,,,,,,,,,,,,,,0,57,33
113920,note_on,,24,0,1,,,,,,,,,,,,,,0,64,38
114056,note_on,,136,0,1,,,,,,,,,,,,,,0,78,68
114066,note_on,,10,0,1,,,,,,,,,,,,,,0,80,0
114210,note_on,,144,0,1,,,,,,,,,,,,,,0,78,0
114218,note_on,,8,0,1,,,,,,,,,,,,,,0,80,65
114227,control_change,,9,0,1,,,,,,,,,,,,64,127,0,,
114248,note_on,,21,0,1,,,,,,,,,,,,,,0,69,0
114258,note_on,,10,0,1,,,,,,,,,,,,,,0,64,0
114356,note_on,,98,0,1,,,,,,,,,,,,,,0,81,66
114370,note_on,,14,0,1,,,,,,,,,,,,,,0,80,0
114418,note_on,,48,0,1,,,,,,,,,,,,,,0,57,0
114520,note_on,,102,0,1,,,,,,,,,,,,,,0,68,38
114530,note_on,,10,0,1,,,,,,,,,,,,,,0,76,61
114548,note_on,,18,0,1,,,,,,,,,,,,,,0,81,0
114556,note_on,,8,0,1,,,,,,,,,,,,,,0,59,25
114564,control_change,,8,0,1,,,,,,,,,,,,64,0,0,,
114576,note_on,,12,0,1,,,,,,,,,,,,,,0,64,28
114918,control_change,,342,0,1,,,,,,,,,,,,64,127,0,,
114930,note_on,,12,0,1,,,,,,,,,,,,,,0,59,0
114946,note_on,,16,0,1,,,,,,,,,,,,,,0,64,0
114972,note_on,,26,0,1,,,,,,,,,,,,,,0,68,0
115076,note_on,,104,0,1,,,,,,,,,,,,,,0,76,0
115154,note_on,,78,0,1,,,,,,,,,,,,,,0,66,35
115162,note_on,,8,0,1,,,,,,,,,,,,,,0,75,50
115178,note_on,,16,0,1,,,,,,,,,,,,,,0,59,25
115254,note_on,,76,0,1,,,,,,,,,,,,,,0,75,0
115288,note_on,,34,0,1,,,,,,,,,,,,,,0,76,32
115346,note_on,,58,0,1,,,,,,,,,,,,,,0,76,0
115354,note_on,,8,0,1,,,,,,,,,,,,,,0,75,35
115414,note_on,,60,0,1,,,,,,,,,,,,,,0,76,58
115422,note_on,,8,0,1,,,,,,,,,,,,,,0,75,0
115440,control_change,,18,0,1,,,,,,,,,,,,64,0,0,,
115494,note_on,,54,0,1,,,,,,,,,,,,,,0,76,0
115500,note_on,,6,0,1,,,,,,,,,,,,,,0,75,47
115580,note_on,,80,0,1,,,,,,,,,,,,,,0,75,0
115584,note_on,,4,0,1,,,,,,,,,,,,,,0,76,46
115634,note_on,,50,0,1,,,,,,,,,,,,,,0,76,0
115636,note_on,,2,0,1,,,,,,,,,,,,,,0,75,43
115700,note_on,,64,0,1,,,,,,,,,,,,,,0,75,0
115714,note_on,,14,0,1,,,,,,,,,,,,,,0,59,0
115742,note_on,,28,0,1,,,,,,,,,,,,,,0,66,0
115760,note_on,,18,0,1,,,,,,,,,,,,,,0,76,44
115774,note_on,,14,0,1,,,,,,,,,,,,,,0,64,25
115916,note_on,,142,0,1,,,,,,,,,,,,,,0,78,63
115932,note_on,,16,0,1,,,,,,,,,,,,,,0,76,0
115966,note_on,,34,0,1,,,,,,,,,,,,,,0,78,0
116060,note_on,,94,0,1,,,,,,,,,,,,,,0,78,51
116116,control_change,,56,0,1,,,,,,,,,,,,64,127,0,,
116206,note_on,,90,0,1,,,,,,,,,,,,,,0,80,71
116214,note_on,,8,0,1,,,,,,,,,,,,,,0,64,0
116232,note_on,,18,0,1,,,,,,,,,,,,,,0,78,0
116254,note_on,,22,0,1,,,,,,,,,,,,,,0,80,0
116368,note_on,,114,0,1,,,,,,,,,,,,,,0,80,69
116378,control_change,,10,0,1,,,,,,,,,,,,64,0,0,,
116381,note_on,,3,0,1,,,,,,,,,,,,,,0,61,26
116388,note_on,,7,0,1,,,,,,,,,,,,,,0,64,30
116512,note_on,,124,0,1,,,,,,,,,,,,,,0,81,68
116530,note_on,,18,0,1,,,,,,,,,,,,,,0,80,0
116552,note_on,,22,0,1,,,,,,,,,,,,,,0,81,0
116592,control_change,,40,0,1,,,,,,,,,,,,64,127,0,,
116638,control_change,,46,0,1,,,,,,,,,,,,64,0,0,,
116660,note_on,,22,0,1,,,,,,,,,,,,,,0,81,38
116754,note_on,,94,0,1,,,,,,,,,,,,,,0,81,0
116806,note_on,,52,0,1,,,,,,,,,,,,,,0,83,75
116822,control_change,,16,0,1,,,,,,,,,,,,64,127,0,,
116884,control_change,,62,0,1,,,,,,,,,,,,64,0,0,,
116886,note_on,,2,0,1,,,,,,,,,,,,,,0,83,0
116952,note_on,,66,0,1,,,,,,,,,,,,,,0,61,0
116962,note_on,,10,0,1,,,,,,,,,,,,,,0,85,43
116980,note_on,,18,0,1,,,,,,,,,,,,,,0,57,30
117082,note_on,,102,0,1,,,,,,,,,,,,,,0,64,0
117136,note_on,,54,0,1,,,,,,,,,,,,,,0,85,0
117136,note_on,,0,0,1,,,,,,,,,,,,,,0,83,79
117194,note_on,,58,0,1,,,,,,,,,,,,,,0,83,0
117222,control_change,,28,0,1,,,,,,,,,,,,64,127,0,,
117288,note_on,,66,0,1,,,,,,,,,,,,,,0,85,39
117338,note_on,,50,0,1,,,,,,,,,,,,,,0,57,0
117352,note_on,,14,0,1,,,,,,,,,,,,,,0,85,0
117440,note_on,,88,0,1,,,,,,,,,,,,,,0,76,47
117664,note_on,,224,0,1,,,,,,,,,,,,,,0,76,0
117696,note_on,,32,0,1,,,,,,,,,,,,,,0,78,57
117710,note_on,,14,0,1,,,,,,,,,,,,,,0,35,62
117716,note_on,,6,0,1,,,,,,,,,,,,,,0,71,35
117924,note_on,,208,0,1,,,,,,,,,,,,,,0,78,0
117930,note_on,,6,0,1,,,,,,,,,,,,,,0,71,0
118024,note_on,,94,0,1,,,,,,,,,,,,,,0,78,54
118038,note_on,,14,0,1,,,,,,,,,,,,,,0,71,44
118068,control_change,,30,0,1,,,,,,,,,,,,64,0,0,,
118076,note_on,,8,0,1,,,,,,,,,,,,,,0,78,0
118096,note_on,,20,0,1,,,,,,,,,,,,,,0,71,0
118118,note_on,,22,0,1,,,,,,,,,,,,,,0,35,0
118142,note_on,,24,0,1,,,,,,,,,,,,,,0,78,59
118160,note_on,,18,0,1,,,,,,,,,,,,,,0,71,75
118202,note_on,,42,0,1,,,,,,,,,,,,,,0,78,0
118212,note_on,,10,0,1,,,,,,,,,,,,,,0,71,0
118274,note_on,,62,0,1,,,,,,,,,,,,,,0,78,72
118282,note_on,,8,0,1,,,,,,,,,,,,,,0,71,80
118290,note_on,,8,0,1,,,,,,,,,,,,,,0,35,56
118344,note_on,,54,0,1,,,,,,,,,,,,,,0,71,0
118366,note_on,,22,0,1,,,,,,,,,,,,,,0,78,0
118582,note_on,,216,0,1,,,,,,,,,,,,,,0,78,79
118598,note_on,,16,0,1,,,,,,,,,,,,,,0,71,61
118632,note_on,,34,0,1,,,,,,,,,,,,,,0,78,0
118648,note_on,,16,0,1,,,,,,,,,,,,,,0,71,0
118696,note_on,,48,0,1,,,,,,,,,,,,,,0,35,0
118892,note_on,,196,0,1,,,,,,,,,,,,,,0,80,70
118910,note_on,,18,0,1,,,,,,,,,,,,,,0,71,54
118910,note_on,,0,0,1,,,,,,,,,,,,,,0,76,42
118918,note_on,,8,0,1,,,,,,,,,,,,,,0,35,45
119118,note_on,,200,0,1,,,,,,,,,,,,,,0,35,0
119144,control_change,,26,0,1,,,,,,,,,,,,64,127,0,,
119168,note_on,,24,0,1,,,,,,,,,,,,,,0,76,0
119226,note_on,,58,0,1,,,,,,,,,,,,,,0,80,0
119229,note_on,,3,0,1,,,,,,,,,,,,,,0,83,69
119378,note_on,,149,0,1,,,,,,,,,,,,,,0,71,0
119528,note_on,,150,0,1,,,,,,,,,,,,,,0,78,65
119536,note_on,,8,0,1,,,,,,,,,,,,,,0,66,48
119544,note_on,,8,0,1,,,,,,,,,,,,,,0,83,0
119560,note_on,,16,0,1,,,,,,,,,,,,,,0,59,27
119632,note_on,,72,0,1,,,,,,,,,,,,,,0,66,0
119652,note_on,,20,0,1,,,,,,,,,,,,,,0,59,0
119832,note_on,,180,0,1,,,,,,,,,,,,,,0,66,46
119840,note_on,,8,0,1,,,,,,,,,,,,,,0,59,42
119864,control_change,,24,0,1,,,,,,,,,,,,64,0,0,,
119886,note_on,,22,0,1,,,,,,,,,,,,,,0,66,0
119896,note_on,,10,0,1,,,,,,,,,,,,,,0,59,0
119956,note_on,,60,0,1,,,,,,,,,,,,,,0,66,55
119976,note_on,,20,0,1,,,,,,,,,,,,,,0,59,54
120022,note_on,,46,0,1,,,,,,,,,,,,,,0,59,0
120024,note_on,,2,0,1,,,,,,,,,,,,,,0,66,0
120092,note_on,,68,0,1,,,,,,,,,,,,,,0,66,60
120095,note_on,,3,0,1,,,,,,,,,,,,,,0,59,56
120095,note_on,,0,0,1,,,,,,,,,,,,,,0,75,47
120120,note_on,,25,0,1,,,,,,,,,,,,,,0,78,0
120142,note_on,,22,0,1,,,,,,,,,,,,,,0,59,0
120156,note_on,,14,0,1,,,,,,,,,,,,,,0,66,0
120380,note_on,,224,0,1,,,,,,,,,,,,,,0,59,64
120382,note_on,,2,0,1,,,,,,,,,,,,,,0,66,56
120424,note_on,,42,0,1,,,,,,,,,,,,,,0,59,0
120428,note_on,,4,0,1,,,,,,,,,,,,,,0,66,0
120662,note_on,,234,0,1,,,,,,,,,,,,,,0,68,53
120672,note_on,,10,0,1,,,,,,,,,,,,,,0,59,45
120674,note_on,,2,0,1,,,,,,,,,,,,,,0,75,0
120676,note_on,,2,0,1,,,,,,,,,,,,,,0,76,38
120734,note_on,,58,0,1,,,,,,,,,,,,,,0,78,57
120736,note_on,,2,0,1,,,,,,,,,,,,,,0,76,0
120786,note_on,,50,0,1,,,,,,,,,,,,,,0,78,0
120806,note_on,,20,0,1,,,,,,,,,,,,,,0,76,50
120882,note_on,,76,0,1,,,,,,,,,,,,,,0,76,0
120885,note_on,,3,0,1,,,,,,,,,,,,,,0,78,50
120932,note_on,,47,0,1,,,,,,,,,,,,,,0,68,0
120948,note_on,,16,0,1,,,,,,,,,,,,,,0,71,63
120994,note_on,,46,0,1,,,,,,,,,,,,,,0,71,0
121014,note_on,,20,0,1,,,,,,,,,,,,,,0,76,57
121030,note_on,,16,0,1,,,,,,,,,,,,,,0,78,0
121040,note_on,,10,0,1,,,,,,,,,,,,,,0,59,0
121106,note_on,,66,0,1,,,,,,,,,,,,,,0,76,0
121106,note_on,,0,0,1,,,,,,,,,,,,,,0,75,69
121168,note_on,,62,0,1,,,,,,,,,,,,,,0,75,0
121182,note_on,,14,0,1,,,,,,,,,,,,,,0,76,57
121292,note_on,,110,0,1,,,,,,,,,,,,,,0,78,73
121292,note_on,,0,0,1,,,,,,,,,,,,,,0,35,83
121298,note_on,,6,0,1,,,,,,,,,,,,,,0,71,65
121312,note_on,,14,0,1,,,,,,,,,,,,,,0,76,0
121500,note_on,,188,0,1,,,,,,,,,,,,,,0,71,0
121506,note_on,,6,0,1,,,,,,,,,,,,,,0,78,0
121572,control_change,,66,0,1,,,,,,,,,,,,64,127,0,,
121610,note_on,,38,0,1,,,,,,,,,,,,,,0,78,55
121622,note_on,,12,0,1,,,,,,,,,,,,,,0,71,52
121658,note_on,,36,0,1,,,,,,,,,,,,,,0,78,0
121674,note_on,,16,0,1,,,,,,,,,,,,,,0,71,0
121678,control_change,,4,0,1,,,,,,,,,,,,64,0,0,,
121702,note_on,,24,0,1,,,,,,,,,,,,,,0,35,0
121738,note_on,,36,0,1,,,,,,,,,,,,,,0,78,49
121741,note_on,,3,0,1,,,,,,,,,,,,,,0,71,65
121790,note_on,,49,0,1,,,,,,,,,,,,,,0,78,0
121794,note_on,,4,0,1,,,,,,,,,,,,,,0,71,0
121886,note_on,,92,0,1,,,,,,,,,,,,,,0,71,53
121889,note_on,,3,0,1,,,,,,,,,,,,,,0,78,57
121916,note_on,,27,0,1,,,,,,,,,,,,,,0,35,42
121934,note_on,,18,0,1,,,,,,,,,,,,,,0,78,0
121936,note_on,,2,0,1,,,,,,,,,,,,,,0,71,0
122190,note_on,,254,0,1,,,,,,,,,,,,,,0,78,56
122204,note_on,,14,0,1,,,,,,,,,,,,,,0,71,49
122262,note_on,,58,0,1,,,,,,,,,,,,,,0,71,0
122270,note_on,,8,0,1,,,,,,,,,,,,,,0,78,0
122318,note_on,,48,0,1,,,,,,,,,,,,,,0,35,0
122492,note_on,,174,0,1,,,,,,,,,,,,,,0,80,58
122504,note_on,,12,0,1,,,,,,,,,,,,,,0,76,38
122504,note_on,,0,0,1,,,,,,,,,,,,,,0,35,38
122504,note_on,,0,0,1,,,,,,,,,,,,,,0,71,36
122698,note_on,,194,0,1,,,,,,,,,,,,,,0,76,0
122752,note_on,,54,0,1,,,,,,,,,,,,,,0,71,0
122808,note_on,,56,0,1,,,,,,,,,,,,,,0,83,79
122810,note_on,,2,0,1,,,,,,,,,,,,,,0,35,0
122822,note_on,,12,0,1,,,,,,,,,,,,,,0,80,0
122830,control_change,,8,0,1,,,,,,,,,,,,64,127,0,,
123096,note_on,,266,0,1,,,,,,,,,,,,,,0,83,0
123126,note_on,,30,0,1,,,,,,,,,,,,,,0,78,60
123138,control_change,,12,0,1,,,,,,,,,,,,64,0,0,,
123154,note_on,,16,0,1,,,,,,,,,,,,,,0,66,20
123170,note_on,,16,0,1,,,,,,,,,,,,,,0,59,23
123290,note_on,,120,0,1,,,,,,,,,,,,,,0,75,53
123304,note_on,,14,0,1,,,,,,,,,,,,,,0,78,0
123340,note_on,,36,0,1,,,,,,,,,,,,,,0,75,0
123384,control_change,,44,0,1,,,,,,,,,,,,64,127,0,,
123424,note_on,,40,0,1,,,,,,,,,,,,,,0,75,44
123494,note_on,,70,0,1,,,,,,,,,,,,,,0,66,0
123497,note_on,,3,0,1,,,,,,,,,,,,,,0,59,0
123560,note_on,,63,0,1,,,,,,,,,,,,,,0,75,0
123563,note_on,,3,0,1,,,,,,,,,,,,,,0,76,59
123604,note_on,,41,0,1,,,,,,,,,,,,,,0,76,0
123676,control_change,,72,0,1,,,,,,,,,,,,64,0,0,,
123716,note_on,,40,0,1,,,,,,,,,,,,,,0,76,37
123719,note_on,,3,0,1,,,,,,,,,,,,,,0,66,32
123742,note_on,,23,0,1,,,,,,,,,,,,,,0,59,29
123856,note_on,,114,0,1,,,,,,,,,,,,,,0,78,69
123876,note_on,,20,0,1,,,,,,,,,,,,,,0,76,0
123912,note_on,,36,0,1,,,,,,,,,,,,,,0,78,0
123952,control_change,,40,0,1,,,,,,,,,,,,64,127,0,,
124014,note_on,,62,0,1,,,,,,,,,,,,,,0,78,67
124046,note_on,,32,0,1,,,,,,,,,,,,,,0,66,0
124068,note_on,,22,0,1,,,,,,,,,,,,,,0,59,0
124158,note_on,,90,0,1,,,,,,,,,,,,,,0,80,67
124174,note_on,,16,0,1,,,,,,,,,,,,,,0,78,0
124202,note_on,,28,0,1,,,,,,,,,,,,,,0,80,0
124290,control_change,,88,0,1,,,,,,,,,,,,64,0,0,,
124298,note_on,,8,0,1,,,,,,,,,,,,,,0,66,37
124312,note_on,,14,0,1,,,,,,,,,,,,,,0,80,65
124332,note_on,,20,0,1,,,,,,,,,,,,,,0,59,36
124452,note_on,,120,0,1,,,,,,,,,,,,,,0,81,76
124480,note_on,,28,0,1,,,,,,,,,,,,,,0,80,0
124492,note_on,,12,0,1,,,,,,,,,,,,,,0,81,0
124506,control_change,,14,0,1,,,,,,,,,,,,64,127,0,,
124620,note_on,,114,0,1,,,,,,,,,,,,,,0,81,78
124638,note_on,,18,0,1,,,,,,,,,,,,,,0,66,0
124730,note_on,,92,0,1,,,,,,,,,,,,,,0,59,0
124748,note_on,,18,0,1,,,,,,,,,,,,,,0,83,104
124788,note_on,,40,0,1,,,,,,,,,,,,,,0,81,0
124792,note_on,,4,0,1,,,,,,,,,,,,,,0,83,0
124874,control_change,,82,0,1,,,,,,,,,,,,64,0,0,,
124902,note_on,,28,0,1,,,,,,,,,,,,,,0,66,31
124922,note_on,,20,0,1,,,,,,,,,,,,,,0,83,108
124926,note_on,,4,0,1,,,,,,,,,,,,,,0,57,28
124932,note_on,,6,0,1,,,,,,,,,,,,,,0,63,35
125070,note_on,,138,0,1,,,,,,,,,,,,,,0,85,78
125088,note_on,,18,0,1,,,,,,,,,,,,,,0,83,0
125120,control_change,,32,0,1,,,,,,,,,,,,64,127,0,,
125166,note_on,,46,0,1,,,,,,,,,,,,,,0,85,0
125238,note_on,,72,0,1,,,,,,,,,,,,,,0,85,72
125248,note_on,,10,0,1,,,,,,,,,,,,,,0,57,0
125332,note_on,,84,0,1,,,,,,,,,,,,,,0,63,0
125334,note_on,,2,0,1,,,,,,,,,,,,,,0,66,0
125390,note_on,,56,0,1,,,,,,,,,,,,,,0,87,76
125422,note_on,,32,0,1,,,,,,,,,,,,,,0,85,0
125458,note_on,,36,0,1,,,,,,,,,,,,,,0,87,0
125540,note_on,,82,0,1,,,,,,,,,,,,,,0,66,32
125558,note_on,,18,0,1,,,,,,,,,,,,,,0,87,65
125566,control_change,,8,0,1,,,,,,,,,,,,64,0,0,,
125569,note_on,,3,0,1,,,,,,,,,,,,,,0,57,22
125569,note_on,,0,0,1,,,,,,,,,,,,,,0,63,37
125858,control_change,,289,0,1,,,,,,,,,,,,64,127,0,,
125902,note_on,,44,0,1,,,,,,,,,,,,,,0,57,0
125938,note_on,,36,0,1,,,,,,,,,,,,,,0,63,0
125994,note_on,,56,0,1,,,,,,,,,,,,,,0,66,0
126162,note_on,,168,0,1,,,,,,,,,,,,,,0,66,37
126188,note_on,,26,0,1,,,,,,,,,,,,,,0,63,37
126196,note_on,,8,0,1,,,,,,,,,,,,,,0,57,31
126482,note_on,,286,0,1,,,,,,,,,,,,,,0,88,55
126486,note_on,,4,0,1,,,,,,,,,,,,,,0,63,0
126498,note_on,,12,0,1,,,,,,,,,,,,,,0,66,0
126504,note_on,,6,0,1,,,,,,,,,,,,,,0,57,0
126514,note_on,,10,0,1,,,,,,,,,,,,,,0,87,0
126632,note_on,,118,0,1,,,,,,,,,,,,,,0,85,63
126656,note_on,,24,0,1,,,,,,,,,,,,,,0,88,0
126680,note_on,,24,0,1,,,,,,,,,,,,,,0,85,0
126798,note_on,,118,0,1,,,,,,,,,,,,,,0,85,55
126804,note_on,,6,0,1,,,,,,,,,,,,,,0,56,23
126812,note_on,,8,0,1,,,,,,,,,,,,,,0,64,36
126838,note_on,,26,0,1,,,,,,,,,,,,,,0,59,19
126840,control_change,,2,0,1,,,,,,,,,,,,64,0,0,,
126966,note_on,,126,0,1,,,,,,,,,,,,,,0,83,87
126968,note_on,,2,0,1,,,,,,,,,,,,,,0,85,0
127124,note_on,,156,0,1,,,,,,,,,,,,,,0,83,0
127130,note_on,,6,0,1,,,,,,,,,,,,,,0,88,53
127148,control_change,,18,0,1,,,,,,,,,,,,64,127,0,,
127212,note_on,,64,0,1,,,,,,,,,,,,,,0,64,0
127238,note_on,,26,0,1,,,,,,,,,,,,,,0,59,0
127254,note_on,,16,0,1,,,,,,,,,,,,,,0,56,0
127290,note_on,,36,0,1,,,,,,,,,,,,,,0,85,62
127342,note_on,,52,0,1,,,,,,,,,,,,,,0,88,0
127452,note_on,,110,0,1,,,,,,,,,,,,,,0,85,0
127462,note_on,,10,0,1,,,,,,,,,,,,,,0,56,23
127474,note_on,,12,0,1,,,,,,,,,,,,,,0,83,79
127484,note_on,,10,0,1,,,,,,,,,,,,,,0,64,22
127498,note_on,,14,0,1,,,,,,,,,,,,,,0,59,22
127632,note_on,,134,0,1,,,,,,,,,,,,,,0,83,0
127654,note_on,,22,0,1,,,,,,,,,,,,,,0,85,57
127708,note_on,,54,0,1,,,,,,,,,,,,,,0,85,0
127760,note_on,,52,0,1,,,,,,,,,,,,,,0,83,60
127786,note_on,,26,0,1,,,,,,,,,,,,,,0,64,0
127788,note_on,,2,0,1,,,,,,,,,,,,,,0,56,0
127798,note_on,,10,0,1,,,,,,,,,,,,,,0,59,0
127804,note_on,,6,0,1,,,,,,,,,,,,,,0,85,52
127808,note_on,,4,0,1,,,,,,,,,,,,,,0,83,0
127866,note_on,,58,0,1,,,,,,,,,,,,,,0,85,0
127884,note_on,,18,0,1,,,,,,,,,,,,,,0,83,77
127944,note_on,,60,0,1,,,,,,,,,,,,,,0,83,0
127944,note_on,,0,0,1,,,,,,,,,,,,,,0,85,60
128036,note_on,,92,0,1,,,,,,,,,,,,,,0,83,72
128042,note_on,,6,0,1,,,,,,,,,,,,,,0,56,31
128048,note_on,,6,0,1,,,,,,,,,,,,,,0,85,0
128048,note_on,,0,0,1,,,,,,,,,,,,,,0,64,39
128054,control_change,,6,0,1,,,,,,,,,,,,64,0,0,,
128066,note_on,,12,0,1,,,,,,,,,,,,,,0,59,31
128092,note_on,,26,0,1,,,,,,,,,,,,,,0,83,0
128116,note_on,,24,0,1,,,,,,,,,,,,,,0,85,51
128162,note_on,,46,0,1,,,,,,,,,,,,,,0,83,89
128182,note_on,,20,0,1,,,,,,,,,,,,,,0,85,0
128228,note_on,,46,0,1,,,,,,,,,,,,,,0,83,0
128254,note_on,,26,0,1,,,,,,,,,,,,,,0,85,55
128254,control_change,,0,0,1,,,,,,,,,,,,64,127,0,,
128268,note_on,,14,0,1,,,,,,,,,,,,,,0,59,0
128302,note_on,,34,0,1,,,,,,,,,,,,,,0,83,88
128314,note_on,,12,0,1,,,,,,,,,,,,,,0,64,0
128356,note_on,,42,0,1,,,,,,,,,,,,,,0,85,0
128362,note_on,,6,0,1,,,,,,,,,,,,,,0,83,0
128372,note_on,,10,0,1,,,,,,,,,,,,,,0,81,66
128424,note_on,,52,0,1,,,,,,,,,,,,,,0,56,0
128484,note_on,,60,0,1,,,,,,,,,,,,,,0,80,79
128502,note_on,,18,0,1,,,,,,,,,,,,,,0,81,0
128536,note_on,,34,0,1,,,,,,,,,,,,,,0,80,0
128654,note_on,,118,0,1,,,,,,,,,,,,,,0,80,64
128654,note_on,,0,0,1,,,,,,,,,,,,,,0,64,37
128656,control_change,,2,0,1,,,,,,,,,,,,64,0,0,,
128656,note_on,,0,0,1,,,,,,,,,,,,,,0,57,16
128656,note_on,,0,0,1,,,,,,,,,,,,,,0,69,32
128794,note_on,,138,0,1,,,,,,,,,,,,,,0,78,67
128812,note_on,,18,0,1,,,,,,,,,,,,,,0,80,0
128966,note_on,,154,0,1,,,,,,,,,,,,,,0,64,0
128966,note_on,,0,0,1,,,,,,,,,,,,,,0,69,0
128972,note_on,,6,0,1,,,,,,,,,,,,,,0,80,77
128976,control_change,,4,0,1,,,,,,,,,,,,64,127,0,,
129002,note_on,,26,0,1,,,,,,,,,,,,,,0,78,0
129134,note_on,,132,0,1,,,,,,,,,,,,,,0,81,69
129142,note_on,,8,0,1,,,,,,,,,,,,,,0,80,0
129252,control_change,,110,0,1,,,,,,,,,,,,64,0,0,,
129312,note_on,,60,0,1,,,,,,,,,,,,,,0,81,0
129314,note_on,,2,0,1,,,,,,,,,,,,,,0,57,0
129338,note_on,,24,0,1,,,,,,,,,,,,,,0,59,16
129340,note_on,,2,0,1,,,,,,,,,,,,,,0,64,18
129343,note_on,,3,0,1,,,,,,,,,,,,,,0,68,34
129358,note_on,,15,0,1,,,,,,,,,,,,,,0,76,47
129636,note_on,,278,0,1,,,,,,,,,,,,,,0,64,0
129674,note_on,,38,0,1,,,,,,,,,,,,,,0,59,0
129746,control_change,,72,0,1,,,,,,,,,,,,64,127,0,,
129767,note_on,,21,0,1,,,,,,,,,,,,,,0,68,0
129840,note_on,,73,0,1,,,,,,,,,,,,,,0,76,0
129964,note_on,,124,0,1,,,,,,,,,,,,,,0,75,33
129968,note_on,,4,0,1,,,,,,,,,,,,,,0,66,20
129976,control_change,,8,0,1,,,,,,,,,,,,64,0,0,,
129992,note_on,,16,0,1,,,,,,,,,,,,,,0,59,26
130118,note_on,,126,0,1,,,,,,,,,,,,,,0,75,0
130146,note_on,,28,0,1,,,,,,,,,,,,,,0,76,19
130174,control_change,,28,0,1,,,,,,,,,,,,64,127,0,,
130192,note_on,,18,0,1,,,,,,,,,,,,,,0,66,0
130196,note_on,,4,0,1,,,,,,,,,,,,,,0,75,43
130234,note_on,,38,0,1,,,,,,,,,,,,,,0,59,0
130256,note_on,,22,0,1,,,,,,,,,,,,,,0,75,0
130330,note_on,,74,0,1,,,,,,,,,,,,,,0,76,0
130336,note_on,,6,0,1,,,,,,,,,,,,,,0,75,39
130394,note_on,,58,0,1,,,,,,,,,,,,,,0,75,0
130406,note_on,,12,0,1,,,,,,,,,,,,,,0,76,48
130464,note_on,,58,0,1,,,,,,,,,,,,,,0,76,0
130466,note_on,,2,0,1,,,,,,,,,,,,,,0,75,48
130544,control_change,,78,0,1,,,,,,,,,,,,64,0,0,,
130554,note_on,,10,0,1,,,,,,,,,,,,,,0,75,0
130592,note_on,,38,0,1,,,,,,,,,,,,,,0,76,43
130600,note_on,,8,0,1,,,,,,,,,,,,,,0,52,42
130612,note_on,,12,0,1,,,,,,,,,,,,,,0,40,41
130866,control_change,,254,0,1,,,,,,,,,,,,64,127,0,,
130896,control_change,,30,0,1,,,,,,,,,,,,64,0,0,,
130901,note_on,,5,0,1,,,,,,,,,,,,,,0,76,0
130926,note_on,,25,0,1,,,,,,,,,,,,,,0,83,89
130952,note_on,,26,0,1,,,,,,,,,,,,,,0,52,0
130954,note_on,,2,0,1,,,,,,,,,,,,,,0,40,0
130978,note_on,,24,0,1,,,,,,,,,,,,,,0,83,0
131062,note_on,,84,0,1,,,,,,,,,,,,,,0,80,70
131104,note_on,,42,0,1,,,,,,,,,,,,,,0,80,0
131194,note_on,,90,0,1,,,,,,,,,,,,,,0,80,57
131210,note_on,,16,0,1,,,,,,,,,,,,,,0,52,56
131210,note_on,,0,0,1,,,,,,,,,,,,,,0,40,64
131210,note_on,,0,0,1,,,,,,,,,,,,,,0,76,63
131312,control_change,,102,0,1,,,,,,,,,,,,64,127,0,,
131324,note_on,,12,0,1,,,,,,,,,,,,,,0,80,0
131370,note_on,,46,0,1,,,,,,,,,,,,,,0,52,0
131522,note_on,,152,0,1,,,,,,,,,,,,,,0,80,72
131532,note_on,,10,0,1,,,,,,,,,,,,,,0,83,95
131554,note_on,,22,0,1,,,,,,,,,,,,,,0,40,0
131582,note_on,,28,0,1,,,,,,,,,,,,,,0,76,0
131658,note_on,,76,0,1,,,,,,,,,,,,,,0,80,0
131818,control_change,,160,0,1,,,,,,,,,,,,64,0,0,,
131834,note_on,,16,0,1,,,,,,,,,,,,,,0,78,63
131837,note_on,,3,0,1,,,,,,,,,,,,,,0,81,73
131842,note_on,,5,0,1,,,,,,,,,,,,,,0,35,58
131844,note_on,,2,0,1,,,,,,,,,,,,,,0,47,47
131852,note_on,,8,0,1,,,,,,,,,,,,,,0,83,0
132018,note_on,,166,0,1,,,,,,,,,,,,,,0,78,0
132090,note_on,,72,0,1,,,,,,,,,,,,,,0,35,0
132096,control_change,,6,0,1,,,,,,,,,,,,64,127,0,,
132122,note_on,,26,0,1,,,,,,,,,,,,,,0,78,69
132134,note_on,,12,0,1,,,,,,,,,,,,,,0,71,65
132156,note_on,,22,0,1,,,,,,,,,,,,,,0,47,0
132164,note_on,,8,0,1,,,,,,,,,,,,,,0,81,0
132326,note_on,,162,0,1,,,,,,,,,,,,,,0,71,0
132404,control_change,,78,0,1,,,,,,,,,,,,64,0,0,,
132420,note_on,,16,0,1,,,,,,,,,,,,,,0,78,0
132430,note_on,,10,0,1,,,,,,,,,,,,,,0,80,64
132438,note_on,,8,0,1,,,,,,,,,,,,,,0,76,50
132440,note_on,,2,0,1,,,,,,,,,,,,,,0,40,41
132442,note_on,,2,0,1,,,,,,,,,,,,,,0,52,45
132526,note_on,,84,0,1,,,,,,,,,,,,,,0,76,0
132664,note_on,,138,0,1,,,,,,,,,,,,,,0,80,0
132678,control_change,,14,0,1,,,,,,,,,,,,64,127,0,,
132752,note_on,,74,0,1,,,,,,,,,,,,,,0,83,89
132757,note_on,,5,0,1,,,,,,,,,,,,,,0,40,0
132766,note_on,,9,0,1,,,,,,,,,,,,,,0,52,0
132818,control_change,,52,0,1,,,,,,,,,,,,64,0,0,,
132840,note_on,,22,0,1,,,,,,,,,,,,,,0,83,0
132878,note_on,,38,0,1,,,,,,,,,,,,,,0,80,64
132924,note_on,,46,0,1,,,,,,,,,,,,,,0,80,0
133006,note_on,,82,0,1,,,,,,,,,,,,,,0,80,57
133020,note_on,,14,0,1,,,,,,,,,,,,,,0,76,59
133022,note_on,,2,0,1,,,,,,,,,,,,,,0,52,52
133026,note_on,,4,0,1,,,,,,,,,,,,,,0,40,54
133086,note_on,,60,0,1,,,,,,,,,,,,,,0,76,0
133144,note_on,,58,0,1,,,,,,,,,,,,,,0,80,0
133162,note_on,,18,0,1,,,,,,,,,,,,,,0,52,0
133202,control_change,,40,0,1,,,,,,,,,,,,64,127,0,,
133322,note_on,,120,0,1,,,,,,,,,,,,,,0,80,58
133326,note_on,,4,0,1,,,,,,,,,,,,,,0,83,83
133342,note_on,,16,0,1,,,,,,,,,,,,,,0,40,0
133394,note_on,,52,0,1,,,,,,,,,,,,,,0,80,0
133570,control_change,,176,0,1,,,,,,,,,,,,64,0,0,,
133620,note_on,,50,0,1,,,,,,,,,,,,,,0,83,0
133628,note_on,,8,0,1,,,,,,,,,,,,,,0,78,53
133634,note_on,,6,0,1,,,,,,,,,,,,,,0,81,52
133660,note_on,,26,0,1,,,,,,,,,,,,,,0,47,31
133666,note_on,,6,0,1,,,,,,,,,,,,,,0,35,29
133788,note_on,,122,0,1,,,,,,,,,,,,,,0,78,0
133862,control_change,,74,0,1,,,,,,,,,,,,64,127,0,,
133866,note_on,,4,0,1,,,,,,,,,,,,,,0,35,0
133932,note_on,,66,0,1,,,,,,,,,,,,,,0,47,0
133940,note_on,,8,0,1,,,,,,,,,,,,,,0,78,56
133960,note_on,,20,0,1,,,,,,,,,,,,,,0,81,0
133978,note_on,,18,0,1,,,,,,,,,,,,,,0,71,23
134080,note_on,,102,0,1,,,,,,,,,,,,,,0,71,0
134152,note_on,,72,0,1,,,,,,,,,,,,,,0,78,0
134170,control_change,,18,0,1,,,,,,,,,,,,64,0,0,,
134246,note_on,,76,0,1,,,,,,,,,,,,,,0,80,52
134264,note_on,,18,0,1,,,,,,,,,,,,,,0,52,31
134267,note_on,,3,0,1,,,,,,,,,,,,,,0,40,21
134267,note_on,,0,0,1,,,,,,,,,,,,,,0,76,33
134326,note_on,,59,0,1,,,,,,,,,,,,,,0,76,0
134388,note_on,,62,0,1,,,,,,,,,,,,,,0,80,0
134432,control_change,,44,0,1,,,,,,,,,,,,64,127,0,,
134542,note_on,,110,0,1,,,,,,,,,,,,,,0,52,0
134550,note_on,,8,0,1,,,,,,,,,,,,,,0,88,46
134598,note_on,,48,0,1,,,,,,,,,,,,,,0,88,0
134616,control_change,,18,0,1,,,,,,,,,,,,64,0,0,,
134668,note_on,,52,0,1,,,,,,,,,,,,,,0,88,56
134716,note_on,,48,0,1,,,,,,,,,,,,,,0,88,0
134816,note_on,,100,0,1,,,,,,,,,,,,,,0,40,0
134820,note_on,,4,0,1,,,,,,,,,,,,,,0,88,50
134828,note_on,,8,0,1,,,,,,,,,,,,,,0,52,44
134960,note_on,,132,0,1,,,,,,,,,,,,,,0,85,72
134964,note_on,,4,0,1,,,,,,,,,,,,,,0,88,0
135074,note_on,,110,0,1,,,,,,,,,,,,,,0,85,0
135108,note_on,,34,0,1,,,,,,,,,,,,,,0,88,65
135160,note_on,,52,0,1,,,,,,,,,,,,,,0,88,0
135240,note_on,,80,0,1,,,,,,,,,,,,,,0,88,66
135302,note_on,,62,0,1,,,,,,,,,,,,,,0,88,0
135392,note_on,,90,0,1,,,,,,,,,,,,,,0,56,49
135394,note_on,,2,0,1,,,,,,,,,,,,,,0,88,69
135430,note_on,,36,0,1,,,,,,,,,,,,,,0,52,0
135548,note_on,,118,0,1,,,,,,,,,,,,,,0,83,95
135568,note_on,,20,0,1,,,,,,,,,,,,,,0,88,0
135618,note_on,,50,0,1,,,,,,,,,,,,,,0,83,0
135694,note_on,,76,0,1,,,,,,,,,,,,,,0,88,52
135738,note_on,,44,0,1,,,,,,,,,,,,,,0,88,0
135812,note_on,,74,0,1,,,,,,,,,,,,,,0,88,63
135892,note_on,,80,0,1,,,,,,,,,,,,,,0,88,0
135996,note_on,,104,0,1,,,,,,,,,,,,,,0,88,57
136010,note_on,,14,0,1,,,,,,,,,,,,,,0,57,35
136028,note_on,,18,0,1,,,,,,,,,,,,,,0,56,0
136152,note_on,,124,0,1,,,,,,,,,,,,,,0,85,58
136170,note_on,,18,0,1,,,,,,,,,,,,,,0,88,0
136300,note_on,,130,0,1,,,,,,,,,,,,,,0,85,0
136308,note_on,,8,0,1,,,,,,,,,,,,,,0,83,79
136424,note_on,,116,0,1,,,,,,,,,,,,,,0,83,0
136442,note_on,,18,0,1,,,,,,,,,,,,,,0,81,64
136488,note_on,,46,0,1,,,,,,,,,,,,,,0,81,0
136560,note_on,,72,0,1,,,,,,,,,,,,,,0,81,59
136588,note_on,,28,0,1,,,,,,,,,,,,,,0,57,0
136604,note_on,,16,0,1,,,,,,,,,,,,,,0,59,30
136720,note_on,,116,0,1,,,,,,,,,,,,,,0,80,63
136740,note_on,,20,0,1,,,,,,,,,,,,,,0,81,0
136872,note_on,,132,0,1,,,,,,,,,,,,,,0,78,50
136875,note_on,,3,0,1,,,,,,,,,,,,,,0,80,0
137002,note_on,,127,0,1,,,,,,,,,,,,,,0,78,0
137012,note_on,,10,0,1,,,,,,,,,,,,,,0,76,42
137074,note_on,,62,0,1,,,,,,,,,,,,,,0,76,0
137164,note_on,,90,0,1,,,,,,,,,,,,,,0,78,31
137186,note_on,,22,0,1,,,,,,,,,,,,,,0,47,25
137196,note_on,,10,0,1,,,,,,,,,,,,,,0,80,55
137212,note_on,,16,0,1,,,,,,,,,,,,,,0,59,0
137250,note_on,,38,0,1,,,,,,,,,,,,,,0,80,0
137320,note_on,,70,0,1,,,,,,,,,,,,,,0,80,59
137400,note_on,,80,0,1,,,,,,,,,,,,,,0,80,0
137494,note_on,,94,0,1,,,,,,,,,,,,,,0,78,0
137508,note_on,,14,0,1,,,,,,,,,,,,,,0,76,32
137596,note_on,,88,0,1,,,,,,,,,,,,,,0,76,0
137662,note_on,,66,0,1,,,,,,,,,,,,,,0,78,37
137746,note_on,,84,0,1,,,,,,,,,,,,,,0,78,0
137782,note_on,,36,0,1,,,,,,,,,,,,,,0,47,0
137822,note_on,,40,0,1,,,,,,,,,,,,,,0,76,41
137822,note_on,,0,0,1,,,,,,,,,,,,,,0,40,31
137834,note_on,,12,0,1,,,,,,,,,,,,,,0,52,24
138104,control_change,,270,0,1,,,,,,,,,,,,64,127,0,,
138160,note_on,,56,0,1,,,,,,,,,,,,,,0,83,60
138164,note_on,,4,0,1,,,,,,,,,,,,,,0,76,0
138170,note_on,,6,0,1,,,,,,,,,,,,,,0,52,0
138180,control_change,,10,0,1,,,,,,,,,,,,64,0,0,,
138182,note_on,,2,0,1,,,,,,,,,,,,,,0,40,0
138248,note_on,,66,0,1,,,,,,,,,,,,,,0,83,0
138270,note_on,,22,0,1,,,,,,,,,,,,,,0,80,56
138316,note_on,,46,0,1,,,,,,,,,,,,,,0,80,0
138418,note_on,,102,0,1,,,,,,,,,,,,,,0,80,42
138428,note_on,,10,0,1,,,,,,,,,,,,,,0,76,52
138430,note_on,,2,0,1,,,,,,,,,,,,,,0,40,55
138436,note_on,,6,0,1,,,,,,,,,,,,,,0,52,39
138503,note_on,,67,0,1,,,,,,,,,,,,,,0,76,0
138550,control_change,,47,0,1,,,,,,,,,,,,64,127,0,,
138560,note_on,,10,0,1,,,,,,,,,,,,,,0,80,0
138566,note_on,,6,0,1,,,,,,,,,,,,,,0,52,0
138738,note_on,,172,0,1,,,,,,,,,,,,,,0,80,65
138740,note_on,,2,0,1,,,,,,,,,,,,,,0,83,87
138748,note_on,,8,0,1,,,,,,,,,,,,,,0,40,0
138878,note_on,,130,0,1,,,,,,,,,,,,,,0,80,0
138994,control_change,,116,0,1,,,,,,,,,,,,64,0,0,,
139038,note_on,,44,0,1,,,,,,,,,,,,,,0,78,52
139040,note_on,,2,0,1,,,,,,,,,,,,,,0,81,67
139046,note_on,,6,0,1,,,,,,,,,,,,,,0,47,37
139052,note_on,,6,0,1,,,,,,,,,,,,,,0,83,0
139056,note_on,,4,0,1,,,,,,,,,,,,,,0,35,42
139230,note_on,,174,0,1,,,,,,,,,,,,,,0,78,0
139252,note_on,,22,0,1,,,,,,,,,,,,,,0,35,0
139270,control_change,,18,0,1,,,,,,,,,,,,64,127,0,,
139328,note_on,,58,0,1,,,,,,,,,,,,,,0,78,50
139334,note_on,,6,0,1,,,,,,,,,,,,,,0,47,0
139350,note_on,,16,0,1,,,,,,,,,,,,,,0,71,47
139366,note_on,,16,0,1,,,,,,,,,,,,,,0,81,0
139452,note_on,,86,0,1,,,,,,,,,,,,,,0,71,0
139594,control_change,,142,0,1,,,,,,,,,,,,64,0,0,,
139628,note_on,,34,0,1,,,,,,,,,,,,,,0,78,0
139628,note_on,,0,0,1,,,,,,,,,,,,,,0,80,54
139634,note_on,,6,0,1,,,,,,,,,,,,,,0,76,42
139652,note_on,,18,0,1,,,,,,,,,,,,,,0,40,36
139655,note_on,,3,0,1,,,,,,,,,,,,,,0,52,31
139860,note_on,,205,0,1,,,,,,,,,,,,,,0,80,0
139886,control_change,,26,0,1,,,,,,,,,,,,64,127,0,,
139889,note_on,,3,0,1,,,,,,,,,,,,,,0,76,0
139898,note_on,,9,0,1,,,,,,,,,,,,,,0,52,0
139930,note_on,,32,0,1,,,,,,,,,,,,,,0,40,0
139958,note_on,,28,0,1,,,,,,,,,,,,,,0,83,83
139978,control_change,,20,0,1,,,,,,,,,,,,64,0,0,,
140024,note_on,,46,0,1,,,,,,,,,,,,,,0,83,0
140084,note_on,,60,0,1,,,,,,,,,,,,,,0,80,66
140134,note_on,,50,0,1,,,,,,,,,,,,,,0,80,0
140224,note_on,,90,0,1,,,,,,,,,,,,,,0,80,62
140230,note_on,,6,0,1,,,,,,,,,,,,,,0,52,43
140236,note_on,,6,0,1,,,,,,,,,,,,,,0,76,61
140238,note_on,,2,0,1,,,,,,,,,,,,,,0,40,47
140318,note_on,,80,0,1,,,,,,,,,,,,,,0,76,0
140362,control_change,,44,0,1,,,,,,,,,,,,64,127,0,,
140372,note_on,,10,0,1,,,,,,,,,,,,,,0,52,0
140386,note_on,,14,0,1,,,,,,,,,,,,,,0,80,0
140500,note_on,,114,0,1,,,,,,,,,,,,,,0,40,0
140530,note_on,,30,0,1,,,,,,,,,,,,,,0,80,67
140533,note_on,,3,0,1,,,,,,,,,,,,,,0,83,92
140684,note_on,,151,0,1,,,,,,,,,,,,,,0,80,0
140792,control_change,,108,0,1,,,,,,,,,,,,64,0,0,,
140838,note_on,,46,0,1,,,,,,,,,,,,,,0,78,56
140844,note_on,,6,0,1,,,,,,,,,,,,,,0,47,31
140844,note_on,,0,0,1,,,,,,,,,,,,,,0,81,67
140854,note_on,,10,0,1,,,,,,,,,,,,,,0,35,38
140857,note_on,,3,0,1,,,,,,,,,,,,,,0,83,0
141006,note_on,,149,0,1,,,,,,,,,,,,,,0,78,0
141052,note_on,,46,0,1,,,,,,,,,,,,,,0,35,0
141052,control_change,,0,0,1,,,,,,,,,,,,64,127,0,,
141132,note_on,,80,0,1,,,,,,,,,,,,,,0,47,0
141154,note_on,,22,0,1,,,,,,,,,,,,,,0,78,62
141176,note_on,,22,0,1,,,,,,,,,,,,,,0,81,0
141176,note_on,,0,0,1,,,,,,,,,,,,,,0,71,48
141314,note_on,,138,0,1,,,,,,,,,,,,,,0,71,0
141406,control_change,,92,0,1,,,,,,,,,,,,64,0,0,,
141470,note_on,,64,0,1,,,,,,,,,,,,,,0,78,0
141480,note_on,,10,0,1,,,,,,,,,,,,,,0,80,52
141494,note_on,,14,0,1,,,,,,,,,,,,,,0,76,37
141498,note_on,,4,0,1,,,,,,,,,,,,,,0,52,33
141502,note_on,,4,0,1,,,,,,,,,,,,,,0,40,39
141580,note_on,,78,0,1,,,,,,,,,,,,,,0,76,0
141652,control_change,,72,0,1,,,,,,,,,,,,64,127,0,,
141654,note_on,,2,0,1,,,,,,,,,,,,,,0,80,0
141788,note_on,,134,0,1,,,,,,,,,,,,,,0,52,0
141820,note_on,,32,0,1,,,,,,,,,,,,,,0,88,42
141838,control_change,,18,0,1,,,,,,,,,,,,64,0,0,,
141874,note_on,,36,0,1,,,,,,,,,,,,,,0,88,0
141934,note_on,,60,0,1,,,,,,,,,,,,,,0,88,66
141988,note_on,,54,0,1,,,,,,,,,,,,,,0,88,0
142108,note_on,,120,0,1,,,,,,,,,,,,,,0,88,65
142116,note_on,,8,0,1,,,,,,,,,,,,,,0,52,57
142250,note_on,,134,0,1,,,,,,,,,,,,,,0,88,0
142260,note_on,,10,0,1,,,,,,,,,,,,,,0,85,68
142282,note_on,,22,0,1,,,,,,,,,,,,,,0,40,0
142342,note_on,,60,0,1,,,,,,,,,,,,,,0,85,0
142428,note_on,,86,0,1,,,,,,,,,,,,,,0,88,47
142476,note_on,,48,0,1,,,,,,,,,,,,,,0,88,0
142542,note_on,,66,0,1,,,,,,,,,,,,,,0,88,59
142602,note_on,,60,0,1,,,,,,,,,,,,,,0,88,0
142722,note_on,,120,0,1,,,,,,,,,,,,,,0,88,65
142726,note_on,,4,0,1,,,,,,,,,,,,,,0,56,39
142744,note_on,,18,0,1,,,,,,,,,,,,,,0,52,0
142870,note_on,,126,0,1,,,,,,,,,,,,,,0,88,0
142875,note_on,,5,0,1,,,,,,,,,,,,,,0,83,83
142942,note_on,,67,0,1,,,,,,,,,,,,,,0,83,0
143048,note_on,,106,0,1,,,,,,,,,,,,,,0,88,44
143096,note_on,,48,0,1,,,,,,,,,,,,,,0,88,0
143172,note_on,,76,0,1,,,,,,,,,,,,,,0,88,48
143238,note_on,,66,0,1,,,,,,,,,,,,,,0,88,0
143360,note_on,,122,0,1,,,,,,,,,,,,,,0,88,51
143398,note_on,,38,0,1,,,,,,,,,,,,,,0,57,24
143410,note_on,,12,0,1,,,,,,,,,,,,,,0,56,0
143528,note_on,,118,0,1,,,,,,,,,,,,,,0,88,0
143532,note_on,,4,0,1,,,,,,,,,,,,,,0,85,46
143628,note_on,,96,0,1,,,,,,,,,,,,,,0,85,0
143696,note_on,,68,0,1,,,,,,,,,,,,,,0,83,68
143814,note_on,,118,0,1,,,,,,,,,,,,,,0,83,0
143860,note_on,,46,0,1,,,,,,,,,,,,,,0,81,48
143908,note_on,,48,0,1,,,,,,,,,,,,,,0,81,0
143996,note_on,,88,0,1,,,,,,,,,,,,,,0,81,41
144038,note_on,,42,0,1,,,,,,,,,,,,,,0,57,0
144038,note_on,,0,0,1,,,,,,,,,,,,,,0,59,28
144184,note_on,,146,0,1,,,,,,,,,,,,,,0,81,0
144184,note_on,,0,0,1,,,,,,,,,,,,,,0,80,46
144326,control_change,,142,0,1,,,,,,,,,,,,64,127,0,,
144356,control_change,,30,0,1,,,,,,,,,,,,64,0,0,,
144364,note_on,,8,0,1,,,,,,,,,,,,,,0,80,0
144368,note_on,,4,0,1,,,,,,,,,,,,,,0,78,39
144550,note_on,,182,0,1,,,,,,,,,,,,,,0,78,0
144556,note_on,,6,0,1,,,,,,,,,,,,,,0,76,33
144770,note_on,,214,0,1,,,,,,,,,,,,,,0,76,0
144792,note_on,,22,0,1,,,,,,,,,,,,,,0,78,32
144830,note_on,,38,0,1,,,,,,,,,,,,,,0,47,26
144834,control_change,,4,0,1,,,,,,,,,,,,64,127,0,,
144858,note_on,,24,0,1,,,,,,,,,,,,,,0,78,0
144858,note_on,,0,0,1,,,,,,,,,,,,,,0,80,42
144894,control_change,,36,0,1,,,,,,,,,,,,64,0,0,,
144916,note_on,,22,0,1,,,,,,,,,,,,,,0,80,0
144952,note_on,,36,0,1,,,,,,,,,,,,,,0,78,26
144992,note_on,,40,0,1,,,,,,,,,,,,,,0,80,48
145062,note_on,,70,0,1,,,,,,,,,,,,,,0,80,0
145154,note_on,,92,0,1,,,,,,,,,,,,,,0,80,34
145162,note_on,,8,0,1,,,,,,,,,,,,,,0,78,0
145210,note_on,,48,0,1,,,,,,,,,,,,,,0,78,21
145218,note_on,,8,0,1,,,,,,,,,,,,,,0,80,0
145274,note_on,,56,0,1,,,,,,,,,,,,,,0,78,0
145310,note_on,,36,0,1,,,,,,,,,,,,,,0,80,22
145336,note_on,,26,0,1,,,,,,,,,,,,,,0,59,0
145350,note_on,,14,0,1,,,,,,,,,,,,,,0,78,50
145374,note_on,,24,0,1,,,,,,,,,,,,,,0,80,0
145464,note_on,,90,0,1,,,,,,,,,,,,,,0,78,0
145498,note_on,,34,0,1,,,,,,,,,,,,,,0,76,24
145772,note_on,,274,0,1,,,,,,,,,,,,,,0,76,0
145780,note_on,,8,0,1,,,,,,,,,,,,,,0,78,29
146448,note_on,,668,0,1,,,,,,,,,,,,,,0,78,0
146474,note_on,,26,0,1,,,,,,,,,,,,,,0,47,0
146478,note_on,,4,0,1,,,,,,,,,,,,,,0,76,27
146478,note_on,,0,0,1,,,,,,,,,,,,,,0,40,35
146486,note_on,,8,0,1,,,,,,,,,,,,,,0,52,23
147968,control_change,,1482,0,1,,,,,,,,,,,,64,127,0,,
148322,note_on,,354,0,1,,,,,,,,,,,,,,0,40,0
148528,note_on,,206,0,1,,,,,,,,,,,,,,0,52,0
148556,note_on,,28,0,1,,,,,,,,,,,,,,0,76,0
149674,control_change,,1118,0,1,,,,,,,,,,,,64,0,0,,
149674,end_of_track,,0,1,1,,,,,,,,,,,,,,,,
