tick,type,time,meta,track,program,channel,pitch,tempo,note,velocity
0,copyright,0,1,0,,,,,,
0,program_change,0,0,0,6,0,,,,
0,pitchwheel,0,0,0,,0,0,,,
0,program_change,0,0,0,6,1,,,,
0,pitchwheel,0,0,0,,1,-590,,,
0,program_change,0,0,0,6,2,,,,
0,pitchwheel,0,0,0,,2,-272,,,
0,program_change,0,0,0,6,3,,,,
0,pitchwheel,0,0,0,,3,-353,,,
0,program_change,0,0,0,6,4,,,,
0,pitchwheel,0,0,0,,4,-560,,,
0,program_change,0,0,0,6,5,,,,
0,pitchwheel,0,0,0,,5,-80,,,
0,program_change,0,0,0,6,6,,,,
0,pitchwheel,0,0,0,,6,-625,,,
0,program_change,0,0,0,6,7,,,,
0,pitchwheel,0,0,0,,7,-130,,,
0,program_change,0,0,0,6,8,,,,
0,pitchwheel,0,0,0,,8,-512,,,
0,program_change,0,0,0,6,10,,,,
0,pitchwheel,0,0,0,,10,-464,,,
0,program_change,0,0,0,6,11,,,,
0,pitchwheel,0,0,0,,11,-208,,,
0,program_change,0,0,0,6,12,,,,
0,pitchwheel,0,0,0,,12,-553,,,
0,set_tempo,0,1,0,,,,500000,,
120,note_on,120,0,0,,4,,,40,127
120,note_on,0,0,0,,4,,,76,127
120,note_on,0,0,0,,4,,,88,127
239,note_off,119,0,0,,4,,,40,127
240,note_on,1,0,0,,8,,,44,127
359,note_off,119,0,0,,8,,,44,127
360,note_on,1,0,0,,12,,,47,127
479,note_off,119,0,0,,12,,,47,127
480,note_on,1,0,0,,4,,,52,127
599,note_off,119,0,0,,4,,,52,127
600,note_on,1,0,0,,8,,,56,127
719,note_off,119,0,0,,8,,,56,127
720,note_on,1,0,0,,12,,,59,127
839,note_off,119,0,0,,12,,,59,127
839,note_off,0,0,0,,4,,,88,127
839,note_off,0,0,0,,4,,,76,127
840,note_on,1,0,0,,4,,,64,127
840,note_on,0,0,0,,4,,,88,127
840,note_on,0,0,0,,4,,,76,127
959,note_off,119,0,0,,4,,,88,127
960,note_on,1,0,0,,3,,,87,127
1079,note_off,119,0,0,,3,,,87,127
1079,note_off,0,0,0,,4,,,64,127
1080,note_on,1,0,0,,6,,,66,127
1080,note_on,0,0,0,,1,,,85,127
1199,note_off,119,0,0,,1,,,85,127
1200,note_on,1,0,0,,12,,,83,127
1319,note_off,119,0,0,,12,,,83,127
1319,note_off,0,0,0,,6,,,66,127
1320,note_on,1,0,0,,8,,,68,127
1320,note_on,0,0,0,,10,,,81,127
1439,note_off,119,0,0,,10,,,81,127
1440,note_on,1,0,0,,8,,,80,127
1559,note_off,119,0,0,,8,,,80,127
1559,note_off,0,0,0,,8,,,68,127
1559,note_off,0,0,0,,4,,,76,127
1560,note_on,1,0,0,,10,,,69,127
1560,note_on,0,0,0,,6,,,78,127
1679,note_off,119,0,0,,6,,,78,127
1680,note_on,1,0,0,,4,,,76,127
1799,note_off,119,0,0,,4,,,76,127
1799,note_off,0,0,0,,10,,,69,127
1800,note_on,1,0,0,,12,,,71,127
1800,note_on,0,0,0,,3,,,75,127
1919,note_off,119,0,0,,3,,,75,127
1920,note_on,1,0,0,,4,,,76,127
2039,note_off,119,0,0,,4,,,76,127
2040,note_on,1,0,0,,12,,,59,127
2040,note_on,0,0,0,,6,,,78,127
2159,note_off,119,0,0,,6,,,78,127
2167,note_on,8,0,0,,3,,,75,127
2279,note_off,112,0,0,,12,,,59,127
2279,note_off,0,0,0,,12,,,71,127
2285,note_off,6,0,0,,3,,,75,127
2295,note_on,10,0,0,,4,,,40,127
2295,note_on,0,0,0,,4,,,76,127
2295,note_on,0,0,0,,4,,,88,127
2414,note_off,119,0,0,,4,,,40,127
2415,note_on,1,0,0,,8,,,44,127
2534,note_off,119,0,0,,8,,,44,127
2535,note_on,1,0,0,,12,,,47,127
2654,note_off,119,0,0,,12,,,47,127
2655,note_on,1,0,0,,4,,,52,127
2774,note_off,119,0,0,,4,,,52,127
2775,note_on,1,0,0,,8,,,56,127
2894,note_off,119,0,0,,8,,,56,127
2895,note_on,1,0,0,,12,,,59,127
3014,note_off,119,0,0,,12,,,59,127
3014,note_off,0,0,0,,4,,,88,127
3014,note_off,0,0,0,,4,,,76,127
3015,note_on,1,0,0,,4,,,64,127
3015,note_on,0,0,0,,4,,,88,127
3015,note_on,0,0,0,,4,,,76,127
3134,note_off,119,0,0,,4,,,88,127
3135,note_on,1,0,0,,3,,,87,127
3254,note_off,119,0,0,,3,,,87,127
3254,note_off,0,0,0,,4,,,64,127
3255,note_on,1,0,0,,6,,,66,127
3255,note_on,0,0,0,,1,,,85,127
3374,note_off,119,0,0,,1,,,85,127
3375,note_on,1,0,0,,12,,,83,127
3494,note_off,119,0,0,,12,,,83,127
3494,note_off,0,0,0,,6,,,66,127
3495,note_on,1,0,0,,8,,,68,127
3495,note_on,0,0,0,,10,,,81,127
3614,note_off,119,0,0,,10,,,81,127
3615,note_on,1,0,0,,8,,,80,127
3734,note_off,119,0,0,,8,,,80,127
3734,note_off,0,0,0,,8,,,68,127
3734,note_off,0,0,0,,4,,,76,127
3735,note_on,1,0,0,,10,,,69,127
3735,note_on,0,0,0,,6,,,78,127
3854,note_off,119,0,0,,6,,,78,127
3855,note_on,1,0,0,,4,,,76,127
3974,note_off,119,0,0,,4,,,76,127
3974,note_off,0,0,0,,10,,,69,127
3975,note_on,1,0,0,,12,,,71,127
3975,note_on,0,0,0,,3,,,75,127
4094,note_off,119,0,0,,3,,,75,127
4095,note_on,1,0,0,,4,,,76,127
4214,note_off,119,0,0,,4,,,76,127
4215,note_on,1,0,0,,12,,,59,127
4215,note_on,0,0,0,,6,,,78,127
4334,note_off,119,0,0,,6,,,78,127
4335,note_on,1,0,0,,3,,,75,127
4454,note_off,119,0,0,,3,,,75,127
4454,note_off,0,0,0,,12,,,59,127
4454,note_off,0,0,0,,12,,,71,127
4455,note_on,1,0,0,,4,,,52,127
4455,note_on,0,0,0,,4,,,76,127
4574,note_off,119,0,0,,4,,,76,127
4575,note_on,1,0,0,,3,,,75,127
4694,note_off,119,0,0,,3,,,75,127
4694,note_off,0,0,0,,4,,,52,127
4695,note_on,1,0,0,,6,,,54,127
4695,note_on,0,0,0,,1,,,73,127
4814,note_off,119,0,0,,1,,,73,127
4815,note_on,1,0,0,,12,,,71,127
4934,note_off,119,0,0,,12,,,71,127
4934,note_off,0,0,0,,6,,,54,127
4935,note_on,1,0,0,,8,,,56,127
4935,note_on,0,0,0,,10,,,69,127
5054,note_off,119,0,0,,10,,,69,127
5055,note_on,1,0,0,,8,,,68,127
5174,note_off,119,0,0,,8,,,68,127
5174,note_off,0,0,0,,8,,,56,127
5175,note_on,1,0,0,,10,,,57,127
5175,note_on,0,0,0,,6,,,66,127
5294,note_off,119,0,0,,6,,,66,127
5295,note_on,1,0,0,,4,,,64,127
5414,note_off,119,0,0,,4,,,64,127
5414,note_off,0,0,0,,10,,,57,127
5415,note_on,1,0,0,,12,,,59,127
5415,note_on,0,0,0,,3,,,63,127
5534,note_off,119,0,0,,3,,,63,127
5535,note_on,1,0,0,,4,,,64,127
5654,note_off,119,0,0,,4,,,64,127
5655,note_on,1,0,0,,12,,,47,127
5655,note_on,0,0,0,,6,,,66,127
5774,note_off,119,0,0,,6,,,66,127
5775,note_on,1,0,0,,3,,,63,127
5894,note_off,119,0,0,,3,,,63,127
5894,note_off,0,0,0,,12,,,47,127
5894,note_off,0,0,0,,12,,,59,127
5895,note_on,1,0,0,,4,,,40,127
5895,note_on,0,0,0,,3,,,63,127
6367,note_off,472,0,0,,3,,,63,127
6378,note_on,11,0,0,,4,,,64,127
6519,note_off,141,0,0,,4,,,40,127
6641,note_off,122,0,0,,4,,,64,127
6649,note_on,8,0,0,,4,,,64,127
6649,note_on,0,0,0,,8,,,80,127
6768,note_off,119,0,0,,8,,,80,127
6769,note_on,1,0,0,,4,,,76,127
6888,note_off,119,0,0,,4,,,76,127
6889,note_on,1,0,0,,12,,,71,127
7008,note_off,119,0,0,,12,,,71,127
7009,note_on,1,0,0,,12,,,83,127
7128,note_off,119,0,0,,12,,,83,127
7128,note_off,0,0,0,,4,,,64,127
7129,note_on,1,0,0,,3,,,63,127
7129,note_on,0,0,0,,10,,,81,127
7248,note_off,119,0,0,,10,,,81,127
7249,note_on,1,0,0,,6,,,78,127
7368,note_off,119,0,0,,6,,,78,127
7368,note_off,0,0,0,,3,,,63,127
7369,note_on,1,0,0,,4,,,64,127
7369,note_on,0,0,0,,8,,,80,127
7488,note_off,119,0,0,,4,,,64,127
7489,note_on,1,0,0,,12,,,59,127
7608,note_off,119,0,0,,12,,,59,127
7608,note_off,0,0,0,,8,,,80,127
7609,note_on,1,0,0,,4,,,64,127
7609,note_on,0,0,0,,4,,,76,127
7728,note_off,119,0,0,,4,,,64,127
7729,note_on,1,0,0,,8,,,68,127
7848,note_off,119,0,0,,8,,,68,127
7848,note_off,0,0,0,,4,,,76,127
7849,note_on,1,0,0,,6,,,66,127
7849,note_on,0,0,0,,3,,,75,127
7968,note_off,119,0,0,,6,,,66,127
7969,note_on,1,0,0,,12,,,59,127
8049,note_off,80,0,0,,3,,,75,127
8097,note_on,48,0,0,,8,,,80,127
8097,note_on,0,0,0,,4,,,64,127
8099,note_off,2,0,0,,12,,,59,127
8215,note_off,116,0,0,,8,,,80,127
8216,note_on,1,0,0,,4,,,76,127
8335,note_off,119,0,0,,4,,,76,127
8336,note_on,1,0,0,,12,,,71,127
8455,note_off,119,0,0,,12,,,71,127
8456,note_on,1,0,0,,12,,,83,127
8575,note_off,119,0,0,,12,,,83,127
8575,note_off,0,0,0,,4,,,64,127
8576,note_on,1,0,0,,10,,,81,127
8576,note_on,0,0,0,,3,,,63,127
8695,note_off,119,0,0,,10,,,81,127
8696,note_on,1,0,0,,6,,,78,127
8815,note_off,119,0,0,,6,,,78,127
8815,note_off,0,0,0,,3,,,63,127
8816,note_on,1,0,0,,8,,,80,127
8816,note_on,0,0,0,,4,,,64,127
8935,note_off,119,0,0,,4,,,64,127
8936,note_on,1,0,0,,12,,,59,127
9055,note_off,119,0,0,,12,,,59,127
9055,note_off,0,0,0,,8,,,80,127
9056,note_on,1,0,0,,4,,,76,127
9056,note_on,0,0,0,,4,,,64,127
9175,note_off,119,0,0,,4,,,64,127
9176,note_on,1,0,0,,8,,,68,127
9295,note_off,119,0,0,,8,,,68,127
9295,note_off,0,0,0,,4,,,76,127
9296,note_on,1,0,0,,3,,,75,127
9296,note_on,0,0,0,,6,,,66,127
9415,note_off,119,0,0,,6,,,66,127
9416,note_on,1,0,0,,12,,,59,127
9508,note_off,92,0,0,,3,,,75,127
9540,note_on,32,0,0,,8,,,80,127
9540,note_on,0,0,0,,4,,,64,127
9549,note_off,9,0,0,,12,,,59,127
9659,note_off,110,0,0,,8,,,80,127
9664,note_on,5,0,0,,4,,,76,127
9779,note_off,115,0,0,,4,,,64,127
9783,note_off,4,0,0,,4,,,76,127
9784,note_on,1,0,0,,6,,,78,127
9784,note_on,0,0,0,,3,,,63,127
9903,note_off,119,0,0,,6,,,78,127
9904,note_on,1,0,0,,3,,,75,127
10023,note_off,119,0,0,,3,,,75,127
10023,note_off,0,0,0,,3,,,63,127
10024,note_on,1,0,0,,4,,,76,127
10024,note_on,0,0,0,,1,,,61,127
10143,note_off,119,0,0,,4,,,76,127
10144,note_on,1,0,0,,1,,,73,127
10263,note_off,119,0,0,,1,,,73,127
10263,note_off,0,0,0,,1,,,61,127
10264,note_on,1,0,0,,3,,,75,127
10264,note_on,0,0,0,,12,,,59,127
10383,note_off,119,0,0,,3,,,75,127
10384,note_on,1,0,0,,12,,,71,127
10503,note_off,119,0,0,,12,,,71,127
10503,note_off,0,0,0,,12,,,59,127
10504,note_on,1,0,0,,1,,,73,127
10504,note_on,0,0,0,,11,,,58,127
10623,note_off,119,0,0,,1,,,73,127
10624,note_on,1,0,0,,6,,,78,127
10743,note_off,119,0,0,,6,,,78,127
10743,note_off,0,0,0,,11,,,58,127
10744,note_on,1,0,0,,4,,,76,127
10744,note_on,0,0,0,,6,,,54,127
10863,note_off,119,0,0,,4,,,76,127
10864,note_on,1,0,0,,1,,,73,127
10983,note_off,119,0,0,,1,,,73,127
10983,note_off,0,0,0,,6,,,54,127
10984,note_on,1,0,0,,3,,,75,127
10984,note_on,0,0,0,,12,,,59,127
11103,note_off,119,0,0,,12,,,59,127
11104,note_on,1,0,0,,6,,,54,127
11223,note_off,119,0,0,,6,,,54,127
11223,note_off,0,0,0,,3,,,75,127
11224,note_on,1,0,0,,12,,,71,127
11224,note_on,0,0,0,,12,,,59,127
11343,note_off,119,0,0,,12,,,59,127
11344,note_on,1,0,0,,3,,,63,127
11463,note_off,119,0,0,,3,,,63,127
11463,note_off,0,0,0,,12,,,71,127
11464,note_on,1,0,0,,11,,,70,127
11464,note_on,0,0,0,,1,,,61,127
11583,note_off,119,0,0,,1,,,61,127
11584,note_on,1,0,0,,6,,,54,127
11664,note_off,80,0,0,,11,,,70,127
11712,note_on,48,0,0,,12,,,59,127
11712,note_on,0,0,0,,3,,,75,127
11718,note_off,6,0,0,,6,,,54,127
11830,note_off,112,0,0,,3,,,75,127
11831,note_on,1,0,0,,12,,,71,127
11950,note_off,119,0,0,,12,,,71,127
11951,note_on,1,0,0,,6,,,66,127
12070,note_off,119,0,0,,6,,,66,127
12071,note_on,1,0,0,,6,,,78,127
12190,note_off,119,0,0,,6,,,78,127
12190,note_off,0,0,0,,12,,,59,127
12191,note_on,1,0,0,,11,,,58,127
12191,note_on,0,0,0,,4,,,76,127
12310,note_off,119,0,0,,4,,,76,127
12311,note_on,1,0,0,,1,,,73,127
12430,note_off,119,0,0,,1,,,73,127
12430,note_off,0,0,0,,11,,,58,127
12431,note_on,1,0,0,,12,,,59,127
12431,note_on,0,0,0,,3,,,75,127
12550,note_off,119,0,0,,12,,,59,127
12551,note_on,1,0,0,,6,,,54,127
12670,note_off,119,0,0,,6,,,54,127
12670,note_off,0,0,0,,3,,,75,127
12671,note_on,1,0,0,,12,,,59,127
12671,note_on,0,0,0,,12,,,71,127
12790,note_off,119,0,0,,12,,,59,127
12791,note_on,1,0,0,,3,,,63,127
12910,note_off,119,0,0,,3,,,63,127
12910,note_off,0,0,0,,12,,,71,127
12911,note_on,1,0,0,,1,,,61,127
12911,note_on,0,0,0,,11,,,70,127
13030,note_off,119,0,0,,1,,,61,127
13031,note_on,1,0,0,,6,,,54,127
13150,note_off,119,0,0,,6,,,54,127
13150,note_off,0,0,0,,11,,,70,127
13159,note_on,9,0,0,,12,,,71,127
13159,note_on,0,0,0,,12,,,59,127
13279,note_on,120,0,0,,3,,,75,127
13309,note_off,30,0,0,,12,,,71,127
13398,note_off,89,0,0,,12,,,59,127
13399,note_on,1,0,0,,1,,,73,127
13399,note_on,0,0,0,,11,,,58,127
13429,note_off,30,0,0,,3,,,75,127
13519,note_on,90,0,0,,6,,,78,127
13549,note_off,30,0,0,,1,,,73,127
13638,note_off,89,0,0,,11,,,58,127
13639,note_on,1,0,0,,12,,,71,127
13639,note_on,0,0,0,,8,,,56,127
13669,note_off,30,0,0,,6,,,78,127
13759,note_on,90,0,0,,5,,,77,127
13789,note_off,30,0,0,,12,,,71,127
13878,note_off,89,0,0,,8,,,56,127
13879,note_on,1,0,0,,1,,,73,127
13879,note_on,0,0,0,,6,,,54,127
13909,note_off,30,0,0,,5,,,77,127
13999,note_on,90,0,0,,6,,,78,127
14029,note_off,30,0,0,,1,,,73,127
14118,note_off,89,0,0,,6,,,54,127
14119,note_on,1,0,0,,1,,,73,127
14119,note_on,0,0,0,,1,,,61,127
14119,note_on,0,0,0,,5,,,53,127
14149,note_off,30,0,0,,6,,,78,127
14239,note_on,90,0,0,,8,,,80,127
14269,note_off,30,0,0,,1,,,73,127
14358,note_off,89,0,0,,5,,,53,127
14358,note_off,0,0,0,,1,,,61,127
14359,note_on,1,0,0,,1,,,73,127
14359,note_on,0,0,0,,6,,,54,127
14359,note_on,0,0,0,,1,,,61,127
14389,note_off,30,0,0,,8,,,80,127
14479,note_on,90,0,0,,11,,,82,127
14509,note_off,30,0,0,,1,,,73,127
14598,note_off,89,0,0,,1,,,61,127
14598,note_off,0,0,0,,6,,,54,127
14599,note_on,1,0,0,,1,,,73,127
14599,note_on,0,0,0,,1,,,61,127
14599,note_on,0,0,0,,5,,,53,127
14629,note_off,30,0,0,,11,,,82,127
14719,note_on,90,0,0,,12,,,83,127
14749,note_off,30,0,0,,1,,,73,127
14838,note_off,89,0,0,,5,,,53,127
14838,note_off,0,0,0,,1,,,61,127
14839,note_on,1,0,0,,1,,,73,127
14839,note_on,0,0,0,,1,,,61,127
14839,note_on,0,0,0,,6,,,54,127
14869,note_off,30,0,0,,12,,,83,127
14959,note_on,90,0,0,,11,,,82,127
14989,note_off,30,0,0,,1,,,73,127
15078,note_off,89,0,0,,6,,,54,127
15078,note_off,0,0,0,,1,,,61,127
15079,note_on,1,0,0,,1,,,73,127
15079,note_on,0,0,0,,1,,,61,127
15079,note_on,0,0,0,,5,,,53,127
15109,note_off,30,0,0,,11,,,82,127
15199,note_on,90,0,0,,12,,,83,127
15229,note_off,30,0,0,,1,,,73,127
15318,note_off,89,0,0,,5,,,53,127
15318,note_off,0,0,0,,1,,,61,127
15319,note_on,1,0,0,,6,,,42,127
15378,note_off,59,0,0,,12,,,83,127
15379,note_on,1,0,0,,11,,,82,127
15438,note_off,59,0,0,,11,,,82,127
15439,note_on,1,0,0,,12,,,83,127
15498,note_off,59,0,0,,12,,,83,127
15499,note_on,1,0,0,,11,,,82,127
15558,note_off,59,0,0,,11,,,82,127
15558,note_off,0,0,0,,6,,,42,127
15559,note_on,1,0,0,,12,,,83,127
15559,note_on,0,0,0,,6,,,54,127
15618,note_off,59,0,0,,12,,,83,127
15619,note_on,1,0,0,,11,,,82,127
15678,note_off,59,0,0,,11,,,82,127
15679,note_on,1,0,0,,8,,,80,127
15798,note_off,119,0,0,,8,,,80,127
15799,note_on,1,0,0,,6,,,78,127
15919,note_off,120,0,0,,6,,,78,127
15937,note_on,18,0,0,,4,,,76,127
16022,note_off,85,0,0,,6,,,54,127
16057,note_on,35,0,0,,6,,,78,127
16057,note_on,0,0,0,,3,,,75,127
16073,note_off,16,0,0,,4,,,76,127
16177,note_on,104,0,0,,6,,,66,127
16297,note_on,120,0,0,,3,,,63,127
16315,note_off,18,0,0,,6,,,66,127
16417,note_on,102,0,0,,6,,,66,127
16435,note_off,18,0,0,,3,,,63,127
16537,note_on,102,0,0,,12,,,59,127
16555,note_off,18,0,0,,6,,,66,127
16657,note_on,102,0,0,,3,,,63,127
16675,note_off,18,0,0,,12,,,59,127
16776,note_off,101,0,0,,3,,,75,127
16776,note_off,0,0,0,,6,,,78,127
16777,note_on,1,0,0,,8,,,56,127
16777,note_on,0,0,0,,8,,,80,127
16777,note_on,0,0,0,,4,,,76,127
16795,note_off,18,0,0,,3,,,63,127
16897,note_on,102,0,0,,12,,,59,127
16915,note_off,18,0,0,,8,,,56,127
17017,note_on,102,0,0,,4,,,52,127
17035,note_off,18,0,0,,12,,,59,127
17137,note_on,102,0,0,,8,,,56,127
17155,note_off,18,0,0,,4,,,52,127
17257,note_on,102,0,0,,1,,,49,127
17275,note_off,18,0,0,,8,,,56,127
17377,note_on,102,0,0,,4,,,52,127
17395,note_off,18,0,0,,1,,,49,127
17496,note_off,101,0,0,,4,,,76,127
17497,note_on,1,0,0,,11,,,46,127
17515,note_off,18,0,0,,4,,,52,127
17617,note_on,102,0,0,,1,,,49,127
17635,note_off,18,0,0,,11,,,46,127
17736,note_off,101,0,0,,8,,,80,127
17737,note_on,1,0,0,,6,,,42,127
17737,note_on,0,0,0,,1,,,85,127
17755,note_off,18,0,0,,1,,,49,127
17857,note_on,102,0,0,,8,,,44,127
17875,note_off,18,0,0,,6,,,42,127
17976,note_off,101,0,0,,1,,,85,127
17977,note_on,1,0,0,,11,,,46,127
17977,note_on,0,0,0,,4,,,76,127
17995,note_off,18,0,0,,8,,,44,127
18097,note_on,102,0,0,,6,,,42,127
18115,note_off,18,0,0,,11,,,46,127
18216,note_off,101,0,0,,4,,,76,127
18217,note_on,1,0,0,,12,,,35,127
18217,note_on,0,0,0,,3,,,75,127
18235,note_off,18,0,0,,6,,,42,127
18336,note_off,101,0,0,,3,,,75,127
18337,note_on,1,0,0,,1,,,73,127
18456,note_off,119,0,0,,1,,,73,127
18457,note_on,1,0,0,,12,,,71,127
18576,note_off,119,0,0,,12,,,71,127
18577,note_on,1,0,0,,11,,,70,127
18696,note_off,119,0,0,,11,,,70,127
18697,note_on,1,0,0,,12,,,71,127
18936,note_off,239,0,0,,12,,,71,127
18936,note_off,0,0,0,,12,,,35,127
18945,note_on,9,0,0,,3,,,75,127
18945,note_on,0,0,0,,6,,,78,127
19065,note_on,120,0,0,,6,,,66,127
19185,note_on,120,0,0,,3,,,63,127
19203,note_off,18,0,0,,6,,,66,127
19305,note_on,102,0,0,,6,,,66,127
19323,note_off,18,0,0,,3,,,63,127
19425,note_on,102,0,0,,12,,,59,127
19443,note_off,18,0,0,,6,,,66,127
19545,note_on,102,0,0,,3,,,63,127
19563,note_off,18,0,0,,12,,,59,127
19664,note_off,101,0,0,,6,,,78,127
19664,note_off,0,0,0,,3,,,75,127
19665,note_on,1,0,0,,4,,,76,127
19665,note_on,0,0,0,,8,,,80,127
19665,note_on,0,0,0,,8,,,56,127
19683,note_off,18,0,0,,3,,,63,127
19785,note_on,102,0,0,,12,,,59,127
19803,note_off,18,0,0,,8,,,56,127
19905,note_on,102,0,0,,4,,,52,127
19923,note_off,18,0,0,,12,,,59,127
20025,note_on,102,0,0,,8,,,56,127
20043,note_off,18,0,0,,4,,,52,127
20145,note_on,102,0,0,,1,,,49,127
20163,note_off,18,0,0,,8,,,56,127
20265,note_on,102,0,0,,4,,,52,127
20283,note_off,18,0,0,,1,,,49,127
20384,note_off,101,0,0,,4,,,76,127
20385,note_on,1,0,0,,11,,,46,127
20403,note_off,18,0,0,,4,,,52,127
20505,note_on,102,0,0,,1,,,49,127
20523,note_off,18,0,0,,11,,,46,127
20624,note_off,101,0,0,,8,,,80,127
20625,note_on,1,0,0,,1,,,85,127
20625,note_on,0,0,0,,6,,,42,127
20643,note_off,18,0,0,,1,,,49,127
20745,note_on,102,0,0,,8,,,44,127
20763,note_off,18,0,0,,6,,,42,127
20864,note_off,101,0,0,,1,,,85,127
20865,note_on,1,0,0,,11,,,46,127
20870,note_on,5,0,0,,4,,,76,127
20882,note_off,12,0,0,,8,,,44,127
20984,note_on,102,0,0,,6,,,42,127
21002,note_off,18,0,0,,11,,,46,127
21070,note_off,68,0,0,,4,,,76,127
21105,note_off,35,0,0,,6,,,42,127
21110,note_on,5,0,0,,12,,,47,127
21110,note_on,0,0,0,,12,,,83,127
21229,note_off,119,0,0,,12,,,83,127
21230,note_on,1,0,0,,11,,,82,127
21349,note_off,119,0,0,,11,,,82,127
21349,note_off,0,0,0,,12,,,47,127
21350,note_on,1,0,0,,1,,,49,127
21350,note_on,0,0,0,,8,,,80,127
21469,note_off,119,0,0,,8,,,80,127
21470,note_on,1,0,0,,6,,,78,127
21589,note_off,119,0,0,,6,,,78,127
21589,note_off,0,0,0,,1,,,49,127
21590,note_on,1,0,0,,3,,,51,127
21590,note_on,0,0,0,,4,,,76,127
21709,note_off,119,0,0,,4,,,76,127
21710,note_on,1,0,0,,3,,,75,127
21829,note_off,119,0,0,,3,,,75,127
21829,note_off,0,0,0,,3,,,51,127
21830,note_on,1,0,0,,4,,,52,127
21830,note_on,0,0,0,,8,,,80,127
21949,note_off,119,0,0,,8,,,80,127
21950,note_on,1,0,0,,6,,,78,127
22069,note_off,119,0,0,,6,,,78,127
22069,note_off,0,0,0,,4,,,52,127
22070,note_on,1,0,0,,6,,,54,127
22070,note_on,0,0,0,,4,,,76,127
22189,note_off,119,0,0,,4,,,76,127
22190,note_on,1,0,0,,3,,,75,127
22309,note_off,119,0,0,,3,,,75,127
22309,note_off,0,0,0,,6,,,54,127
22310,note_on,1,0,0,,8,,,56,127
22310,note_on,0,0,0,,1,,,73,127
22429,note_off,119,0,0,,1,,,73,127
22430,note_on,1,0,0,,12,,,71,127
22549,note_off,119,0,0,,12,,,71,127
22549,note_off,0,0,0,,8,,,56,127
22550,note_on,1,0,0,,6,,,54,127
22550,note_on,0,0,0,,11,,,70,127
22669,note_off,119,0,0,,11,,,70,127
22670,note_on,1,0,0,,8,,,68,127
22789,note_off,119,0,0,,8,,,68,127
22789,note_off,0,0,0,,6,,,54,127
22790,note_on,1,0,0,,8,,,56,127
22790,note_on,0,0,0,,6,,,66,127
22909,note_off,119,0,0,,6,,,66,127
22910,note_on,1,0,0,,4,,,64,127
23029,note_off,119,0,0,,4,,,64,127
23029,note_off,0,0,0,,8,,,56,127
23030,note_on,1,0,0,,11,,,58,127
23030,note_on,0,0,0,,3,,,63,127
23149,note_off,119,0,0,,3,,,63,127
23150,note_on,1,0,0,,1,,,61,127
23256,note_off,106,0,0,,1,,,61,127
23268,note_off,12,0,0,,11,,,58,127
23273,note_on,5,0,0,,12,,,59,127
23273,note_on,0,0,0,,3,,,63,127
23404,note_on,131,0,0,,6,,,66,127
23485,note_off,81,0,0,,3,,,63,127
23504,note_off,19,0,0,,6,,,66,127
23512,note_off,8,0,0,,12,,,59,127
23524,note_on,12,0,0,,12,,,59,127
23524,note_on,0,0,0,,8,,,56,127
23644,note_on,120,0,0,,5,,,65,127
23712,note_off,68,0,0,,12,,,59,127
23744,note_off,32,0,0,,5,,,65,127
23763,note_off,19,0,0,,8,,,56,127
23764,note_on,1,0,0,,1,,,61,127
23764,note_on,0,0,0,,11,,,58,127
23884,note_on,120,0,0,,6,,,66,127
23990,note_off,106,0,0,,6,,,66,127
24002,note_off,12,0,0,,11,,,58,127
24002,note_off,0,0,0,,1,,,61,127
24003,note_on,1,0,0,,1,,,61,127
24003,note_on,0,0,0,,5,,,53,127
24123,note_on,120,0,0,,8,,,68,127
24229,note_off,106,0,0,,8,,,68,127
24241,note_off,12,0,0,,5,,,53,127
24241,note_off,0,0,0,,1,,,61,127
24242,note_on,1,0,0,,1,,,61,127
24242,note_on,0,0,0,,6,,,54,127
24362,note_on,120,0,0,,11,,,70,127
24474,note_off,112,0,0,,11,,,70,127
24480,note_off,6,0,0,,6,,,54,127
24480,note_off,0,0,0,,1,,,61,127
24481,note_on,1,0,0,,1,,,61,127
24481,note_on,0,0,0,,5,,,53,127
24601,note_on,120,0,0,,12,,,71,127
24706,note_off,105,0,0,,1,,,61,127
24720,note_off,14,0,0,,12,,,71,127
24720,note_off,0,0,0,,5,,,53,127
24721,note_on,1,0,0,,1,,,61,127
24721,note_on,0,0,0,,6,,,54,127
24841,note_on,120,0,0,,11,,,70,127
24883,note_off,42,0,0,,1,,,61,127
24959,note_off,76,0,0,,6,,,54,127
24960,note_on,1,0,0,,1,,,61,127
24960,note_on,0,0,0,,5,,,53,127
24965,note_off,5,0,0,,11,,,70,127
25080,note_on,115,0,0,,12,,,71,127
25110,note_off,30,0,0,,1,,,61,127
25199,note_off,89,0,0,,5,,,53,127
25200,note_on,1,0,0,,1,,,61,127
25200,note_on,0,0,0,,6,,,54,127
25218,note_off,18,0,0,,12,,,71,127
25320,note_on,102,0,0,,11,,,70,127
25325,note_off,5,0,0,,1,,,61,127
25439,note_off,114,0,0,,6,,,54,127
25440,note_on,1,0,0,,1,,,61,127
25440,note_on,0,0,0,,5,,,53,127
25532,note_off,92,0,0,,11,,,70,127
25546,note_off,14,0,0,,1,,,61,127
25560,note_on,14,0,0,,12,,,71,127
25679,note_off,119,0,0,,5,,,53,127
25680,note_on,1,0,0,,1,,,61,127
25680,note_on,0,0,0,,6,,,54,127
25772,note_off,92,0,0,,12,,,71,127
25780,note_off,8,0,0,,1,,,61,127
25800,note_on,20,0,0,,11,,,70,127
25919,note_off,119,0,0,,6,,,54,127
25920,note_on,1,0,0,,1,,,61,127
25920,note_on,0,0,0,,5,,,53,127
25925,note_off,5,0,0,,11,,,70,127
26009,note_off,84,0,0,,1,,,61,127
26040,note_on,31,0,0,,12,,,71,127
26159,note_off,119,0,0,,5,,,53,127
26160,note_on,1,0,0,,6,,,54,127
26219,note_off,59,0,0,,12,,,71,127
26220,note_on,1,0,0,,11,,,70,127
26279,note_off,59,0,0,,11,,,70,127
26280,note_on,1,0,0,,12,,,71,127
26339,note_off,59,0,0,,12,,,71,127
26340,note_on,1,0,0,,11,,,70,127
26399,note_off,59,0,0,,11,,,70,127
26400,note_on,1,0,0,,12,,,71,127
26400,note_on,0,0,0,,6,,,42,127
26459,note_off,59,0,0,,12,,,71,127
26465,note_on,6,0,0,,11,,,70,127
26524,note_off,59,0,0,,11,,,70,127
26536,note_on,12,0,0,,8,,,68,127
26655,note_off,119,0,0,,8,,,68,127
26664,note_on,9,0,0,,6,,,66,127
26823,note_off,159,0,0,,6,,,42,127
26879,note_off,56,0,0,,6,,,54,127
26905,note_off,26,0,0,,6,,,66,127
26943,note_on,38,0,0,,1,,,73,127
26943,note_on,0,0,0,,11,,,70,127
27063,note_on,120,0,0,,6,,,66,127
27182,note_off,119,0,0,,6,,,66,127
27182,note_off,0,0,0,,11,,,70,127
27182,note_off,0,0,0,,1,,,73,127
27183,note_on,1,0,0,,3,,,63,127
27183,note_on,0,0,0,,12,,,71,127
27183,note_on,0,0,0,,3,,,75,127
27302,note_off,119,0,0,,3,,,63,127
27303,note_on,1,0,0,,12,,,59,127
27422,note_off,119,0,0,,12,,,59,127
27422,note_off,0,0,0,,3,,,75,127
27422,note_off,0,0,0,,12,,,71,127
27423,note_on,1,0,0,,8,,,68,127
27423,note_on,0,0,0,,4,,,76,127
27423,note_on,0,0,0,,1,,,73,127
27542,note_off,119,0,0,,8,,,68,127
27543,note_on,1,0,0,,4,,,64,127
27662,note_off,119,0,0,,4,,,64,127
27662,note_off,0,0,0,,1,,,73,127
27662,note_off,0,0,0,,4,,,76,127
27663,note_on,1,0,0,,6,,,66,127
27663,note_on,0,0,0,,12,,,71,127
27663,note_on,0,0,0,,3,,,75,127
27902,note_off,239,0,0,,3,,,75,127
27902,note_off,0,0,0,,12,,,71,127
27903,note_on,1,0,0,,6,,,54,127
27903,note_on,0,0,0,,1,,,73,127
28022,note_off,119,0,0,,1,,,73,127
28023,note_on,1,0,0,,12,,,71,127
28142,note_off,119,0,0,,12,,,71,127
28143,note_on,1,0,0,,1,,,73,127
28143,note_on,0,0,0,,11,,,70,127
28382,note_off,239,0,0,,11,,,70,127
28382,note_off,0,0,0,,1,,,73,127
28382,note_off,0,0,0,,6,,,54,127
28382,note_off,0,0,0,,6,,,66,127
28383,note_on,1,0,0,,1,,,73,127
28383,note_on,0,0,0,,11,,,70,127
28513,note_on,130,0,0,,6,,,66,127
28622,note_off,109,0,0,,11,,,70,127
28622,note_off,0,0,0,,1,,,73,127
28632,note_off,10,0,0,,6,,,66,127
28633,note_on,1,0,0,,12,,,71,127
28633,note_on,0,0,0,,3,,,75,127
28633,note_on,0,0,0,,3,,,63,127
28752,note_off,119,0,0,,3,,,63,127
28753,note_on,1,0,0,,12,,,59,127
28872,note_off,119,0,0,,12,,,59,127
28872,note_off,0,0,0,,3,,,75,127
28872,note_off,0,0,0,,12,,,71,127
28873,note_on,1,0,0,,1,,,73,127
28873,note_on,0,0,0,,4,,,76,127
28873,note_on,0,0,0,,8,,,68,127
28992,note_off,119,0,0,,8,,,68,127
28993,note_on,1,0,0,,4,,,64,127
29112,note_off,119,0,0,,4,,,64,127
29112,note_off,0,0,0,,4,,,76,127
29112,note_off,0,0,0,,1,,,73,127
29113,note_on,1,0,0,,12,,,71,127
29113,note_on,0,0,0,,3,,,75,127
29113,note_on,0,0,0,,6,,,66,127
29352,note_off,239,0,0,,3,,,75,127
29352,note_off,0,0,0,,12,,,71,127
29353,note_on,1,0,0,,1,,,73,127
29472,note_off,119,0,0,,1,,,73,127
29473,note_on,1,0,0,,12,,,71,127
29592,note_off,119,0,0,,12,,,71,127
29592,note_off,0,0,0,,6,,,66,127
29593,note_on,1,0,0,,11,,,70,127
29593,note_on,0,0,0,,1,,,73,127
29593,note_on,0,0,0,,6,,,54,127
29712,note_off,119,0,0,,1,,,73,127
29723,note_on,11,0,0,,6,,,78,127
29832,note_off,109,0,0,,11,,,70,127
29842,note_off,10,0,0,,6,,,78,127
29843,note_on,1,0,0,,6,,,78,127
29952,note_off,109,0,0,,6,,,54,127
29963,note_on,11,0,0,,3,,,63,127
30082,note_off,119,0,0,,3,,,63,127
30083,note_on,1,0,0,,4,,,64,127
30202,note_off,119,0,0,,4,,,64,127
30203,note_on,1,0,0,,3,,,63,127
30322,note_off,119,0,0,,3,,,63,127
30322,note_off,0,0,0,,6,,,78,127
30328,note_on,6,0,0,,4,,,64,127
30328,note_on,0,0,0,,6,,,78,127
30328,note_on,0,0,0,,12,,,71,127
30447,note_off,119,0,0,,6,,,78,127
30448,note_on,1,0,0,,8,,,80,127
30567,note_off,119,0,0,,8,,,80,127
30568,note_on,1,0,0,,8,,,80,127
30687,note_off,119,0,0,,4,,,64,127
30688,note_on,1,0,0,,1,,,61,127
30807,note_off,119,0,0,,1,,,61,127
30808,note_on,1,0,0,,3,,,63,127
30927,note_off,119,0,0,,3,,,63,127
30928,note_on,1,0,0,,1,,,61,127
31047,note_off,119,0,0,,1,,,61,127
31047,note_off,0,0,0,,8,,,80,127
31048,note_on,1,0,0,,3,,,63,127
31048,note_on,0,0,0,,12,,,83,127
31167,note_off,119,0,0,,12,,,83,127
31168,note_on,1,0,0,,6,,,78,127
31287,note_off,119,0,0,,6,,,78,127
31287,note_off,0,0,0,,3,,,63,127
31287,note_off,0,0,0,,12,,,71,127
31288,note_on,1,0,0,,4,,,64,127
31288,note_on,0,0,0,,8,,,80,127
31407,note_off,119,0,0,,8,,,80,127
31408,note_on,1,0,0,,4,,,76,127
31527,note_off,119,0,0,,4,,,76,127
31527,note_off,0,0,0,,4,,,64,127
31528,note_on,1,0,0,,6,,,66,127
31528,note_on,0,0,0,,3,,,75,127
31647,note_off,119,0,0,,3,,,75,127
31648,note_on,1,0,0,,1,,,73,127
31767,note_off,119,0,0,,1,,,73,127
31768,note_on,1,0,0,,6,,,54,127
31768,note_on,0,0,0,,12,,,71,127
31887,note_off,119,0,0,,12,,,71,127
31888,note_on,1,0,0,,11,,,70,127
32007,note_off,119,0,0,,11,,,70,127
32007,note_off,0,0,0,,6,,,54,127
32007,note_off,0,0,0,,6,,,66,127
32008,note_on,1,0,0,,12,,,47,127
32008,note_on,0,0,0,,12,,,71,127
32140,note_on,132,0,0,,1,,,73,127
32141,note_off,1,0,0,,12,,,71,127
32259,note_off,118,0,0,,1,,,73,127
32263,note_on,4,0,0,,2,,,74,127
32368,note_off,105,0,0,,12,,,47,127
32382,note_off,14,0,0,,2,,,74,127
32386,note_on,4,0,0,,4,,,76,127
32505,note_off,119,0,0,,4,,,76,127
32509,note_on,4,0,0,,6,,,78,127
32628,note_off,119,0,0,,6,,,78,127
32632,note_on,4,0,0,,7,,,79,127
32751,note_off,119,0,0,,7,,,79,127
32775,note_on,24,0,0,,11,,,70,127
32775,note_on,0,0,0,,1,,,73,127
32895,note_on,120,0,0,,6,,,66,127
33014,note_off,119,0,0,,6,,,66,127
33014,note_off,0,0,0,,1,,,73,127
33014,note_off,0,0,0,,11,,,70,127
33015,note_on,1,0,0,,12,,,71,127
33015,note_on,0,0,0,,2,,,74,127
33015,note_on,0,0,0,,2,,,62,127
33134,note_off,119,0,0,,2,,,62,127
33135,note_on,1,0,0,,12,,,59,127
33254,note_off,119,0,0,,12,,,59,127
33254,note_off,0,0,0,,2,,,74,127
33254,note_off,0,0,0,,12,,,71,127
33255,note_on,1,0,0,,1,,,73,127
33255,note_on,0,0,0,,4,,,76,127
33255,note_on,0,0,0,,7,,,67,127
33374,note_off,119,0,0,,7,,,67,127
33375,note_on,1,0,0,,4,,,64,127
33494,note_off,119,0,0,,4,,,64,127
33494,note_off,0,0,0,,4,,,76,127
33494,note_off,0,0,0,,1,,,73,127
33495,note_on,1,0,0,,12,,,71,127
33495,note_on,0,0,0,,2,,,74,127
33495,note_on,0,0,0,,6,,,66,127
33734,note_off,239,0,0,,2,,,74,127
33734,note_off,0,0,0,,12,,,71,127
33735,note_on,1,0,0,,1,,,73,127
33735,note_on,0,0,0,,6,,,54,127
33854,note_off,119,0,0,,1,,,73,127
33855,note_on,1,0,0,,12,,,71,127
33974,note_off,119,0,0,,12,,,71,127
33975,note_on,1,0,0,,11,,,70,127
33975,note_on,0,0,0,,1,,,73,127
34214,note_off,239,0,0,,1,,,73,127
34214,note_off,0,0,0,,11,,,70,127
34214,note_off,0,0,0,,6,,,54,127
34214,note_off,0,0,0,,6,,,66,127
34222,note_on,8,0,0,,1,,,73,127
34222,note_on,0,0,0,,11,,,70,127
34342,note_on,120,0,0,,6,,,66,127
34461,note_off,119,0,0,,6,,,66,127
34461,note_off,0,0,0,,11,,,70,127
34461,note_off,0,0,0,,1,,,73,127
34462,note_on,1,0,0,,2,,,62,127
34462,note_on,0,0,0,,2,,,74,127
34462,note_on,0,0,0,,12,,,71,127
34581,note_off,119,0,0,,2,,,62,127
34582,note_on,1,0,0,,12,,,59,127
34701,note_off,119,0,0,,12,,,59,127
34701,note_off,0,0,0,,12,,,71,127
34701,note_off,0,0,0,,2,,,74,127
34702,note_on,1,0,0,,7,,,67,127
34702,note_on,0,0,0,,1,,,73,127
34702,note_on,0,0,0,,4,,,76,127
34821,note_off,119,0,0,,7,,,67,127
34822,note_on,1,0,0,,4,,,64,127
34941,note_off,119,0,0,,4,,,64,127
34941,note_off,0,0,0,,4,,,76,127
34941,note_off,0,0,0,,1,,,73,127
34942,note_on,1,0,0,,6,,,66,127
34942,note_on,0,0,0,,2,,,74,127
34942,note_on,0,0,0,,12,,,71,127
35181,note_off,239,0,0,,12,,,71,127
35181,note_off,0,0,0,,2,,,74,127
35182,note_on,1,0,0,,1,,,73,127
35301,note_off,119,0,0,,1,,,73,127
35302,note_on,1,0,0,,12,,,71,127
35421,note_off,119,0,0,,12,,,71,127
35421,note_off,0,0,0,,6,,,66,127
35422,note_on,1,0,0,,6,,,54,127
35422,note_on,0,0,0,,1,,,73,127
35422,note_on,0,0,0,,11,,,70,127
35541,note_off,119,0,0,,1,,,73,127
35547,note_on,6,0,0,,6,,,78,127
35661,note_off,114,0,0,,11,,,70,127
35666,note_off,5,0,0,,6,,,78,127
35667,note_on,1,0,0,,6,,,78,127
35781,note_off,114,0,0,,6,,,54,127
35787,note_on,6,0,0,,3,,,63,127
35906,note_off,119,0,0,,3,,,63,127
35907,note_on,1,0,0,,4,,,64,127
36026,note_off,119,0,0,,4,,,64,127
36027,note_on,1,0,0,,3,,,63,127
36146,note_off,119,0,0,,3,,,63,127
36146,note_off,0,0,0,,6,,,78,127
36147,note_on,1,0,0,,12,,,71,127
36147,note_on,0,0,0,,7,,,79,127
36147,note_on,0,0,0,,4,,,64,127
36266,note_off,119,0,0,,7,,,79,127
36267,note_on,1,0,0,,11,,,82,127
36386,note_off,119,0,0,,11,,,82,127
36387,note_on,1,0,0,,11,,,82,127
36506,note_off,119,0,0,,4,,,64,127
36507,note_on,1,0,0,,1,,,61,127
36626,note_off,119,0,0,,1,,,61,127
36627,note_on,1,0,0,,2,,,62,127
36746,note_off,119,0,0,,2,,,62,127
36747,note_on,1,0,0,,1,,,61,127
36866,note_off,119,0,0,,1,,,61,127
36866,note_off,0,0,0,,11,,,82,127
36867,note_on,1,0,0,,12,,,83,127
36867,note_on,0,0,0,,2,,,62,127
36986,note_off,119,0,0,,12,,,83,127
36987,note_on,1,0,0,,6,,,78,127
37106,note_off,119,0,0,,6,,,78,127
37106,note_off,0,0,0,,2,,,62,127
37106,note_off,0,0,0,,12,,,71,127
37107,note_on,1,0,0,,7,,,79,127
37107,note_on,0,0,0,,4,,,64,127
37226,note_off,119,0,0,,7,,,79,127
37227,note_on,1,0,0,,4,,,76,127
37346,note_off,119,0,0,,4,,,76,127
37346,note_off,0,0,0,,4,,,64,127
37347,note_on,1,0,0,,2,,,74,127
37347,note_on,0,0,0,,6,,,66,127
37466,note_off,119,0,0,,2,,,74,127
37467,note_on,1,0,0,,1,,,73,127
37586,note_off,119,0,0,,1,,,73,127
37590,note_on,4,0,0,,12,,,71,127
37590,note_on,0,0,0,,6,,,54,127
37709,note_off,119,0,0,,12,,,71,127
37720,note_on,11,0,0,,11,,,70,127
37826,note_off,106,0,0,,6,,,66,127
37828,note_off,2,0,0,,6,,,54,127
37844,note_off,16,0,0,,11,,,70,127
37854,note_on,10,0,0,,12,,,83,127
37854,note_on,0,0,0,,12,,,59,127
37974,note_on,120,0,0,,12,,,71,127
37992,note_off,18,0,0,,12,,,59,127
38094,note_on,102,0,0,,6,,,66,127
38112,note_off,18,0,0,,12,,,71,127
38214,note_on,102,0,0,,12,,,71,127
38232,note_off,18,0,0,,6,,,66,127
38334,note_on,102,0,0,,3,,,63,127
38352,note_off,18,0,0,,12,,,71,127
38454,note_on,102,0,0,,6,,,66,127
38472,note_off,18,0,0,,3,,,63,127
38570,note_off,98,0,0,,6,,,66,127
38573,note_off,3,0,0,,12,,,83,127
38574,note_on,1,0,0,,3,,,87,127
38574,note_on,0,0,0,,12,,,47,127
38694,note_on,120,0,0,,12,,,59,127
38712,note_off,18,0,0,,12,,,47,127
38814,note_on,102,0,0,,6,,,54,127
38832,note_off,18,0,0,,12,,,59,127
38934,note_on,102,0,0,,12,,,59,127
38952,note_off,18,0,0,,6,,,54,127
39054,note_on,102,0,0,,3,,,51,127
39072,note_off,18,0,0,,12,,,59,127
39174,note_on,102,0,0,,6,,,54,127
39192,note_off,18,0,0,,3,,,51,127
39292,note_off,100,0,0,,6,,,54,127
39293,note_off,1,0,0,,3,,,87,127
39294,note_on,1,0,0,,3,,,87,127
39294,note_on,0,0,0,,12,,,35,127
39414,note_on,120,0,0,,12,,,47,127
39432,note_off,18,0,0,,12,,,35,127
39534,note_on,102,0,0,,6,,,42,127
39552,note_off,18,0,0,,12,,,47,127
39654,note_on,102,0,0,,12,,,47,127
39672,note_off,18,0,0,,6,,,42,127
39774,note_on,102,0,0,,3,,,39,127
39792,note_off,18,0,0,,12,,,47,127
39894,note_on,102,0,0,,6,,,42,127
39912,note_off,18,0,0,,3,,,39,127
40013,note_off,101,0,0,,6,,,42,127
40013,note_off,0,0,0,,3,,,87,127
40014,note_on,1,0,0,,3,,,87,127
40014,note_on,0,0,0,,12,,,35,127
40014,note_on,0,0,0,,12,,,47,127
40133,note_off,119,0,0,,3,,,87,127
40134,note_on,1,0,0,,1,,,85,127
40253,note_off,119,0,0,,1,,,85,127
40253,note_off,0,0,0,,12,,,47,127
40253,note_off,0,0,0,,12,,,35,127
40254,note_on,1,0,0,,12,,,83,127
40254,note_on,0,0,0,,1,,,49,127
40373,note_off,119,0,0,,12,,,83,127
40374,note_on,1,0,0,,11,,,82,127
40493,note_off,119,0,0,,11,,,82,127
40493,note_off,0,0,0,,1,,,49,127
40494,note_on,1,0,0,,8,,,80,127
40494,note_on,0,0,0,,3,,,51,127
40613,note_off,119,0,0,,8,,,80,127
40614,note_on,1,0,0,,6,,,78,127
40733,note_off,119,0,0,,6,,,78,127
40733,note_off,0,0,0,,3,,,51,127
40734,note_on,1,0,0,,4,,,76,127
40734,note_on,0,0,0,,4,,,52,127
40853,note_off,119,0,0,,4,,,76,127
40854,note_on,1,0,0,,3,,,75,127
40973,note_off,119,0,0,,3,,,75,127
40973,note_off,0,0,0,,4,,,52,127
40974,note_on,1,0,0,,1,,,73,127
40974,note_on,0,0,0,,6,,,54,127
41093,note_off,119,0,0,,1,,,73,127
41094,note_on,1,0,0,,12,,,71,127
41213,note_off,119,0,0,,12,,,71,127
41214,note_on,1,0,0,,11,,,70,127
41214,note_on,0,0,0,,6,,,42,127
41333,note_off,119,0,0,,11,,,70,127
41334,note_on,1,0,0,,1,,,73,127
41445,note_off,111,0,0,,1,,,73,127
41453,note_off,8,0,0,,6,,,42,127
41453,note_off,0,0,0,,6,,,54,127
41462,note_on,9,0,0,,12,,,59,127
41462,note_on,0,0,0,,12,,,83,127
41590,note_on,128,0,0,,12,,,71,127
41600,note_off,10,0,0,,12,,,59,127
41710,note_on,110,0,0,,6,,,66,127
41728,note_off,18,0,0,,12,,,71,127
41830,note_on,102,0,0,,12,,,71,127
41848,note_off,18,0,0,,6,,,66,127
41950,note_on,102,0,0,,3,,,63,127
41968,note_off,18,0,0,,12,,,71,127
42070,note_on,102,0,0,,6,,,66,127
42088,note_off,18,0,0,,3,,,63,127
42182,note_off,94,0,0,,12,,,83,127
42187,note_off,5,0,0,,6,,,66,127
42191,note_on,4,0,0,,3,,,87,127
42191,note_on,0,0,0,,12,,,47,127
42311,note_on,120,0,0,,12,,,59,127
42329,note_off,18,0,0,,12,,,47,127
42431,note_on,102,0,0,,6,,,54,127
42449,note_off,18,0,0,,12,,,59,127
42551,note_on,102,0,0,,12,,,59,127
42569,note_off,18,0,0,,6,,,54,127
42671,note_on,102,0,0,,3,,,51,127
42689,note_off,18,0,0,,12,,,59,127
42791,note_on,102,0,0,,6,,,54,127
42809,note_off,18,0,0,,3,,,51,127
42907,note_off,98,0,0,,6,,,54,127
42910,note_off,3,0,0,,3,,,87,127
42911,note_on,1,0,0,,3,,,87,127
42911,note_on,0,0,0,,12,,,35,127
43031,note_on,120,0,0,,12,,,47,127
43049,note_off,18,0,0,,12,,,35,127
43151,note_on,102,0,0,,6,,,42,127
43169,note_off,18,0,0,,12,,,47,127
43271,note_on,102,0,0,,12,,,47,127
43289,note_off,18,0,0,,6,,,42,127
43391,note_on,102,0,0,,3,,,39,127
43409,note_off,18,0,0,,12,,,47,127
43511,note_on,102,0,0,,6,,,42,127
43529,note_off,18,0,0,,3,,,39,127
43630,note_off,101,0,0,,6,,,42,127
43630,note_off,0,0,0,,3,,,87,127
43631,note_on,1,0,0,,3,,,87,127
43631,note_on,0,0,0,,12,,,35,127
43631,note_on,0,0,0,,12,,,47,127
43750,note_off,119,0,0,,3,,,87,127
43751,note_on,1,0,0,,1,,,85,127
43870,note_off,119,0,0,,1,,,85,127
43870,note_off,0,0,0,,12,,,47,127
43870,note_off,0,0,0,,12,,,35,127
43871,note_on,1,0,0,,12,,,83,127
43871,note_on,0,0,0,,1,,,49,127
43990,note_off,119,0,0,,12,,,83,127
43991,note_on,1,0,0,,11,,,82,127
44110,note_off,119,0,0,,11,,,82,127
44110,note_off,0,0,0,,1,,,49,127
44111,note_on,1,0,0,,8,,,80,127
44111,note_on,0,0,0,,3,,,51,127
44230,note_off,119,0,0,,8,,,80,127
44231,note_on,1,0,0,,6,,,78,127
44350,note_off,119,0,0,,6,,,78,127
44350,note_off,0,0,0,,3,,,51,127
44351,note_on,1,0,0,,4,,,76,127
44351,note_on,0,0,0,,4,,,52,127
44470,note_off,119,0,0,,4,,,76,127
44471,note_on,1,0,0,,3,,,75,127
44590,note_off,119,0,0,,3,,,75,127
44590,note_off,0,0,0,,4,,,52,127
44591,note_on,1,0,0,,1,,,73,127
44591,note_on,0,0,0,,6,,,54,127
44710,note_off,119,0,0,,1,,,73,127
44711,note_on,1,0,0,,12,,,71,127
44830,note_off,119,0,0,,12,,,71,127
44831,note_on,1,0,0,,11,,,70,127
44831,note_on,0,0,0,,6,,,42,127
44950,note_off,119,0,0,,11,,,70,127
44951,note_on,1,0,0,,4,,,76,127
45070,note_off,119,0,0,,4,,,76,127
45070,note_off,0,0,0,,6,,,42,127
45070,note_off,0,0,0,,6,,,54,127
45071,note_on,1,0,0,,12,,,47,127
45071,note_on,0,0,0,,3,,,75,127
45190,note_off,119,0,0,,3,,,75,127
45194,note_on,4,0,0,,1,,,73,127
45312,note_off,118,0,0,,12,,,47,127
45313,note_off,1,0,0,,1,,,73,127
45317,note_on,4,0,0,,1,,,49,127
45317,note_on,0,0,0,,12,,,71,127
45436,note_off,119,0,0,,12,,,71,127
45440,note_on,4,0,0,,11,,,70,127
45558,note_off,118,0,0,,1,,,49,127
45559,note_off,1,0,0,,11,,,70,127
45561,note_on,2,0,0,,3,,,51,127
45561,note_on,0,0,0,,8,,,68,127
45680,note_off,119,0,0,,8,,,68,127
45684,note_on,4,0,0,,6,,,66,127
45802,note_off,118,0,0,,3,,,51,127
45803,note_off,1,0,0,,6,,,66,127
45807,note_on,4,0,0,,4,,,52,127
45807,note_on,0,0,0,,4,,,64,127
45926,note_off,119,0,0,,4,,,64,127
45930,note_on,4,0,0,,3,,,63,127
46048,note_off,118,0,0,,4,,,52,127
46049,note_off,1,0,0,,3,,,63,127
46053,note_on,4,0,0,,6,,,54,127
46053,note_on,0,0,0,,1,,,61,127
46172,note_off,119,0,0,,1,,,61,127
46178,note_on,6,0,0,,12,,,59,127
46297,note_off,119,0,0,,12,,,59,127
46306,note_on,9,0,0,,11,,,58,127
46306,note_on,0,0,0,,6,,,42,127
46425,note_off,119,0,0,,11,,,58,127
46441,note_on,16,0,0,,1,,,61,127
46546,note_off,105,0,0,,6,,,42,127
46547,note_off,1,0,0,,6,,,54,127
46579,note_on,32,0,0,,12,,,47,127
46579,note_on,0,0,0,,12,,,59,127
46580,note_off,1,0,0,,1,,,61,127
47391,note_off,811,0,0,,12,,,47,127
47479,note_off,88,0,0,,12,,,59,127
47564,note_on,85,0,0,,12,,,59,127
47684,note_on,120,0,0,,6,,,66,127
47804,note_on,120,0,0,,3,,,63,127
47808,note_on,4,0,0,,6,,,78,127
47884,note_off,76,0,0,,6,,,66,127
47924,note_on,40,0,0,,6,,,66,127
48004,note_off,80,0,0,,3,,,63,127
48044,note_on,40,0,0,,3,,,63,127
48044,note_on,0,0,0,,3,,,75,127
48046,note_off,2,0,0,,6,,,78,127
48124,note_off,78,0,0,,6,,,66,127
48164,note_on,40,0,0,,6,,,66,127
48174,note_off,10,0,0,,12,,,59,127
48244,note_off,70,0,0,,3,,,63,127
48284,note_on,40,0,0,,12,,,59,127
48364,note_off,80,0,0,,6,,,66,127
48404,note_on,40,0,0,,6,,,66,127
48523,note_off,119,0,0,,3,,,75,127
48524,note_on,1,0,0,,3,,,63,127
48526,note_on,2,0,0,,6,,,78,127
48604,note_off,78,0,0,,6,,,66,127
48644,note_on,40,0,0,,6,,,66,127
48724,note_off,80,0,0,,3,,,63,127
48764,note_on,40,0,0,,3,,,63,127
48764,note_on,0,0,0,,3,,,75,127
48765,note_off,1,0,0,,6,,,78,127
48844,note_off,79,0,0,,6,,,66,127
48884,note_on,40,0,0,,6,,,66,127
48894,note_off,10,0,0,,12,,,59,127
48964,note_off,70,0,0,,3,,,63,127
49004,note_on,40,0,0,,10,,,57,127
49084,note_off,80,0,0,,6,,,66,127
49124,note_on,40,0,0,,6,,,66,127
49226,note_off,102,0,0,,3,,,75,127
49244,note_on,18,0,0,,3,,,63,127
49248,note_on,4,0,0,,6,,,78,127
49324,note_off,76,0,0,,6,,,66,127
49364,note_on,40,0,0,,6,,,66,127
49444,note_off,80,0,0,,3,,,63,127
49484,note_on,40,0,0,,3,,,63,127
49484,note_on,0,0,0,,3,,,75,127
49486,note_off,2,0,0,,6,,,78,127
49564,note_off,78,0,0,,6,,,66,127
49604,note_on,40,0,0,,6,,,66,127
49614,note_off,10,0,0,,10,,,57,127
49684,note_off,70,0,0,,3,,,63,127
49724,note_on,40,0,0,,10,,,57,127
49804,note_off,80,0,0,,6,,,66,127
49844,note_on,40,0,0,,6,,,66,127
49934,note_off,90,0,0,,3,,,75,127
49964,note_on,30,0,0,,3,,,63,127
49966,note_on,2,0,0,,6,,,78,127
50044,note_off,78,0,0,,6,,,66,127
50084,note_on,40,0,0,,6,,,66,127
50164,note_off,80,0,0,,3,,,63,127
50204,note_on,40,0,0,,3,,,63,127
50204,note_on,0,0,0,,3,,,75,127
50205,note_off,1,0,0,,6,,,78,127
50284,note_off,79,0,0,,6,,,66,127
50324,note_on,40,0,0,,6,,,66,127
50334,note_off,10,0,0,,10,,,57,127
50404,note_off,70,0,0,,3,,,63,127
50443,note_off,39,0,0,,3,,,75,127
50444,note_on,1,0,0,,8,,,56,127
50444,note_on,0,0,0,,0,,,72,127
50524,note_off,80,0,0,,6,,,66,127
50564,note_on,40,0,0,,6,,,66,127
50683,note_off,119,0,0,,0,,,72,127
50684,note_on,1,0,0,,3,,,63,127
50684,note_on,0,0,0,,3,,,75,127
50764,note_off,80,0,0,,6,,,66,127
50804,note_on,40,0,0,,6,,,66,127
50884,note_off,80,0,0,,3,,,63,127
50923,note_off,39,0,0,,3,,,75,127
50924,note_on,1,0,0,,3,,,63,127
50924,note_on,0,0,0,,6,,,78,127
51004,note_off,80,0,0,,6,,,66,127
51044,note_on,40,0,0,,6,,,66,127
51054,note_off,10,0,0,,8,,,56,127
51124,note_off,70,0,0,,3,,,63,127
51163,note_off,39,0,0,,6,,,78,127
51164,note_on,1,0,0,,8,,,56,127
51164,note_on,0,0,0,,10,,,81,127
51244,note_off,80,0,0,,6,,,66,127
51284,note_on,40,0,0,,6,,,66,127
51403,note_off,119,0,0,,10,,,81,127
51404,note_on,1,0,0,,0,,,60,127
51404,note_on,0,0,0,,8,,,80,127
51484,note_off,80,0,0,,6,,,66,127
51524,note_on,40,0,0,,6,,,66,127
51604,note_off,80,0,0,,0,,,60,127
51643,note_off,39,0,0,,8,,,80,127
51644,note_on,1,0,0,,0,,,60,127
51644,note_on,0,0,0,,3,,,75,127
51724,note_off,80,0,0,,6,,,66,127
51764,note_on,40,0,0,,6,,,66,127
51774,note_off,10,0,0,,8,,,56,127
51844,note_off,70,0,0,,0,,,60,127
51883,note_off,39,0,0,,3,,,75,127
51884,note_on,1,0,0,,8,,,56,127
51884,note_on,0,0,0,,3,,,75,127
51964,note_off,80,0,0,,6,,,66,127
52004,note_on,40,0,0,,4,,,64,127
52123,note_off,119,0,0,,3,,,75,127
52124,note_on,1,0,0,,1,,,61,127
52124,note_on,0,0,0,,4,,,76,127
52204,note_off,80,0,0,,4,,,64,127
52244,note_on,40,0,0,,4,,,64,127
52324,note_off,80,0,0,,1,,,61,127
52364,note_on,40,0,0,,1,,,61,127
52444,note_off,80,0,0,,4,,,64,127
52484,note_off,40,0,0,,4,,,76,127
52484,note_on,0,0,0,,4,,,64,127
52494,note_off,10,0,0,,8,,,56,127
52564,note_off,70,0,0,,1,,,61,127
52604,note_on,40,0,0,,7,,,55,127
52606,note_on,2,0,0,,4,,,76,127
52684,note_off,78,0,0,,4,,,64,127
52724,note_on,40,0,0,,4,,,64,127
52844,note_on,120,0,0,,12,,,59,127
52844,note_on,0,0,0,,7,,,79,127
52845,note_off,1,0,0,,4,,,76,127
52924,note_off,79,0,0,,4,,,64,127
52964,note_on,40,0,0,,4,,,64,127
53044,note_off,80,0,0,,12,,,59,127
53083,note_off,39,0,0,,7,,,79,127
53084,note_on,1,0,0,,12,,,59,127
53084,note_on,0,0,0,,12,,,71,127
53164,note_off,80,0,0,,4,,,64,127
53204,note_on,40,0,0,,4,,,64,127
53214,note_off,10,0,0,,7,,,55,127
53284,note_off,70,0,0,,12,,,59,127
53323,note_off,39,0,0,,12,,,71,127
53324,note_on,1,0,0,,6,,,54,127
53324,note_on,0,0,0,,11,,,70,127
53404,note_off,80,0,0,,4,,,64,127
53444,note_on,40,0,0,,4,,,64,127
53563,note_off,119,0,0,,11,,,70,127
53564,note_on,1,0,0,,1,,,61,127
53564,note_on,0,0,0,,1,,,73,127
53644,note_off,80,0,0,,4,,,64,127
53684,note_on,40,0,0,,4,,,64,127
53764,note_off,80,0,0,,1,,,61,127
53803,note_off,39,0,0,,1,,,73,127
53804,note_on,1,0,0,,1,,,61,127
53804,note_on,0,0,0,,4,,,76,127
53884,note_off,80,0,0,,4,,,64,127
53924,note_on,40,0,0,,4,,,64,127
53934,note_off,10,0,0,,6,,,54,127
54004,note_off,70,0,0,,1,,,61,127
54043,note_off,39,0,0,,4,,,76,127
54044,note_on,1,0,0,,6,,,54,127
54044,note_on,0,0,0,,7,,,79,127
54124,note_off,80,0,0,,4,,,64,127
54164,note_on,40,0,0,,4,,,64,127
54283,note_off,119,0,0,,7,,,79,127
54284,note_on,1,0,0,,11,,,58,127
54284,note_on,0,0,0,,6,,,78,127
54364,note_off,80,0,0,,4,,,64,127
54404,note_on,40,0,0,,4,,,64,127
54484,note_off,80,0,0,,11,,,58,127
54523,note_off,39,0,0,,6,,,78,127
54524,note_on,1,0,0,,11,,,58,127
54524,note_on,0,0,0,,1,,,73,127
54604,note_off,80,0,0,,4,,,64,127
54644,note_on,40,0,0,,4,,,64,127
54654,note_off,10,0,0,,6,,,54,127
54724,note_off,70,0,0,,11,,,58,127
54763,note_off,39,0,0,,1,,,73,127
54764,note_on,1,0,0,,12,,,59,127
54764,note_on,0,0,0,,1,,,73,127
54844,note_off,80,0,0,,4,,,64,127
54884,note_on,40,0,0,,12,,,71,127
55003,note_off,119,0,0,,1,,,73,127
55004,note_on,1,0,0,,6,,,66,127
55004,note_on,0,0,0,,2,,,74,127
55084,note_off,80,0,0,,12,,,71,127
55124,note_on,40,0,0,,12,,,71,127
55204,note_off,80,0,0,,6,,,66,127
55244,note_on,40,0,0,,6,,,66,127
55324,note_off,80,0,0,,12,,,71,127
55364,note_off,40,0,0,,2,,,74,127
55364,note_on,0,0,0,,12,,,71,127
55374,note_off,10,0,0,,12,,,59,127
55444,note_off,70,0,0,,6,,,66,127
55484,note_on,40,0,0,,2,,,62,127
55486,note_on,2,0,0,,12,,,83,127
55564,note_off,78,0,0,,12,,,71,127
55604,note_on,40,0,0,,12,,,71,127
55724,note_on,120,0,0,,6,,,66,127
55724,note_on,0,0,0,,2,,,86,127
55725,note_off,1,0,0,,12,,,83,127
55804,note_off,79,0,0,,12,,,71,127
55844,note_on,40,0,0,,12,,,71,127
55924,note_off,80,0,0,,6,,,66,127
55963,note_off,39,0,0,,2,,,86,127
55964,note_on,1,0,0,,6,,,66,127
55964,note_on,0,0,0,,6,,,78,127
56044,note_off,80,0,0,,12,,,71,127
56084,note_on,40,0,0,,12,,,71,127
56094,note_off,10,0,0,,2,,,62,127
56164,note_off,70,0,0,,6,,,66,127
56203,note_off,39,0,0,,6,,,78,127
56204,note_on,1,0,0,,1,,,61,127
56204,note_on,0,0,0,,5,,,77,127
56284,note_off,80,0,0,,12,,,71,127
56324,note_on,40,0,0,,12,,,71,127
56443,note_off,119,0,0,,5,,,77,127
56444,note_on,1,0,0,,8,,,68,127
56444,note_on,0,0,0,,8,,,80,127
56524,note_off,80,0,0,,12,,,71,127
56564,note_on,40,0,0,,12,,,71,127
56644,note_off,80,0,0,,8,,,68,127
56683,note_off,39,0,0,,8,,,80,127
56684,note_on,1,0,0,,8,,,68,127
56684,note_on,0,0,0,,12,,,83,127
56764,note_off,80,0,0,,12,,,71,127
56804,note_on,40,0,0,,12,,,71,127
56814,note_off,10,0,0,,1,,,61,127
56884,note_off,70,0,0,,8,,,68,127
56923,note_off,39,0,0,,12,,,83,127
56924,note_on,1,0,0,,1,,,61,127
56924,note_on,0,0,0,,2,,,86,127
57004,note_off,80,0,0,,12,,,71,127
57044,note_on,40,0,0,,12,,,71,127
57163,note_off,119,0,0,,2,,,86,127
57164,note_on,1,0,0,,5,,,65,127
57164,note_on,0,0,0,,1,,,85,127
57244,note_off,80,0,0,,12,,,71,127
57284,note_on,40,0,0,,12,,,71,127
57364,note_off,80,0,0,,5,,,65,127
57403,note_off,39,0,0,,1,,,85,127
57404,note_on,1,0,0,,5,,,65,127
57404,note_on,0,0,0,,8,,,80,127
57484,note_off,80,0,0,,12,,,71,127
57524,note_on,40,0,0,,12,,,71,127
57534,note_off,10,0,0,,1,,,61,127
57604,note_off,70,0,0,,5,,,65,127
57643,note_off,39,0,0,,8,,,80,127
57644,note_on,1,0,0,,1,,,61,127
57644,note_on,0,0,0,,8,,,80,127
57724,note_off,80,0,0,,12,,,71,127
57764,note_on,40,0,0,,10,,,69,127
57883,note_off,119,0,0,,8,,,80,127
57884,note_on,1,0,0,,6,,,66,127
57884,note_on,0,0,0,,10,,,81,127
57964,note_off,80,0,0,,10,,,69,127
58004,note_on,40,0,0,,10,,,69,127
58084,note_off,80,0,0,,6,,,66,127
58124,note_on,40,0,0,,6,,,66,127
58204,note_off,80,0,0,,10,,,69,127
58244,note_on,40,0,0,,10,,,69,127
58254,note_off,10,0,0,,1,,,61,127
58284,note_off,30,0,0,,10,,,81,127
58324,note_off,40,0,0,,6,,,66,127
58364,note_on,40,0,0,,1,,,61,127
58366,note_on,2,0,0,,1,,,85,127
58444,note_off,78,0,0,,10,,,69,127
58484,note_on,40,0,0,,10,,,69,127
58604,note_on,120,0,0,,6,,,66,127
58604,note_on,0,0,0,,10,,,81,127
58605,note_off,1,0,0,,1,,,85,127
58684,note_off,79,0,0,,10,,,69,127
58724,note_on,40,0,0,,10,,,69,127
58804,note_off,80,0,0,,6,,,66,127
58843,note_off,39,0,0,,10,,,81,127
58844,note_on,1,0,0,,6,,,66,127
58844,note_on,0,0,0,,6,,,78,127
58924,note_off,80,0,0,,10,,,69,127
58964,note_on,40,0,0,,10,,,69,127
58974,note_off,10,0,0,,1,,,61,127
59044,note_off,70,0,0,,6,,,66,127
59083,note_off,39,0,0,,6,,,78,127
59084,note_on,1,0,0,,1,,,61,127
59084,note_on,0,0,0,,6,,,78,127
59164,note_off,80,0,0,,10,,,69,127
59204,note_on,40,0,0,,12,,,71,127
59323,note_off,119,0,0,,6,,,78,127
59324,note_on,1,0,0,,8,,,68,127
59324,note_on,0,0,0,,8,,,80,127
59404,note_off,80,0,0,,12,,,71,127
59444,note_on,40,0,0,,12,,,71,127
59524,note_off,80,0,0,,8,,,68,127
59564,note_on,40,0,0,,8,,,68,127
59644,note_off,80,0,0,,12,,,71,127
59684,note_on,40,0,0,,12,,,71,127
59694,note_off,10,0,0,,1,,,61,127
59749,note_off,55,0,0,,8,,,80,127
59764,note_off,15,0,0,,8,,,68,127
59804,note_on,40,0,0,,1,,,61,127
59804,note_on,0,0,0,,8,,,80,127
59884,note_off,80,0,0,,12,,,71,127
59924,note_on,40,0,0,,12,,,71,127
60044,note_on,120,0,0,,8,,,68,127
60124,note_off,80,0,0,,12,,,71,127
60164,note_on,40,0,0,,12,,,71,127
60244,note_off,80,0,0,,8,,,68,127
60284,note_on,40,0,0,,8,,,68,127
60364,note_off,80,0,0,,12,,,71,127
60404,note_on,40,0,0,,12,,,71,127
60414,note_off,10,0,0,,1,,,61,127
60484,note_off,70,0,0,,8,,,68,127
60523,note_off,39,0,0,,8,,,80,127
60524,note_on,1,0,0,,2,,,62,127
60524,note_on,0,0,0,,8,,,80,127
60604,note_off,80,0,0,,12,,,71,127
60644,note_on,40,0,0,,12,,,71,127
60764,note_on,120,0,0,,8,,,68,127
60844,note_off,80,0,0,,12,,,71,127
60884,note_on,40,0,0,,12,,,71,127
60964,note_off,80,0,0,,8,,,68,127
61004,note_on,40,0,0,,8,,,68,127
61084,note_off,80,0,0,,12,,,71,127
61124,note_on,40,0,0,,12,,,71,127
61134,note_off,10,0,0,,2,,,62,127
61204,note_off,70,0,0,,8,,,68,127
61243,note_off,39,0,0,,8,,,80,127
61244,note_on,1,0,0,,2,,,62,127
61244,note_on,0,0,0,,8,,,80,127
61324,note_off,80,0,0,,12,,,71,127
61364,note_on,40,0,0,,12,,,71,127
61483,note_off,119,0,0,,8,,,80,127
61484,note_on,1,0,0,,8,,,68,127
61484,note_on,0,0,0,,12,,,83,127
61564,note_off,80,0,0,,12,,,71,127
61604,note_on,40,0,0,,12,,,71,127
61684,note_off,80,0,0,,8,,,68,127
61723,note_off,39,0,0,,12,,,83,127
61724,note_on,1,0,0,,8,,,68,127
61724,note_on,0,0,0,,8,,,80,127
61804,note_off,80,0,0,,12,,,71,127
61844,note_on,40,0,0,,12,,,71,127
61854,note_off,10,0,0,,2,,,62,127
61924,note_off,70,0,0,,8,,,68,127
61963,note_off,39,0,0,,8,,,80,127
61964,note_on,1,0,0,,3,,,63,127
61964,note_on,0,0,0,,8,,,80,127
62044,note_off,80,0,0,,12,,,71,127
62084,note_on,40,0,0,,3,,,75,127
62203,note_off,119,0,0,,8,,,80,127
62204,note_on,1,0,0,,11,,,70,127
62204,note_on,0,0,0,,7,,,79,127
62284,note_off,80,0,0,,3,,,75,127
62324,note_on,40,0,0,,3,,,75,127
62404,note_off,80,0,0,,11,,,70,127
62444,note_on,40,0,0,,11,,,70,127
62524,note_off,80,0,0,,3,,,75,127
62564,note_on,40,0,0,,3,,,75,127
62574,note_off,10,0,0,,3,,,63,127
62579,note_off,5,0,0,,7,,,79,127
62644,note_off,65,0,0,,11,,,70,127
62684,note_on,40,0,0,,3,,,63,127
62686,note_on,2,0,0,,7,,,79,127
62764,note_off,78,0,0,,3,,,75,127
62804,note_on,40,0,0,,3,,,75,127
62924,note_on,120,0,0,,11,,,70,127
62924,note_on,0,0,0,,11,,,82,127
62925,note_off,1,0,0,,7,,,79,127
63004,note_off,79,0,0,,3,,,75,127
63044,note_on,40,0,0,,3,,,75,127
63124,note_off,80,0,0,,11,,,70,127
63163,note_off,39,0,0,,11,,,82,127
63164,note_on,1,0,0,,11,,,70,127
63164,note_on,0,0,0,,1,,,85,127
63244,note_off,80,0,0,,3,,,75,127
63284,note_on,40,0,0,,3,,,75,127
63294,note_off,10,0,0,,3,,,63,127
63364,note_off,70,0,0,,11,,,70,127
63403,note_off,39,0,0,,1,,,85,127
63404,note_on,1,0,0,,3,,,63,127
63404,note_on,0,0,0,,12,,,83,127
63484,note_off,80,0,0,,3,,,75,127
63524,note_on,40,0,0,,12,,,71,127
63643,note_off,119,0,0,,12,,,83,127
63644,note_on,1,0,0,,8,,,68,127
63644,note_on,0,0,0,,8,,,80,127
63724,note_off,80,0,0,,12,,,71,127
63764,note_on,40,0,0,,12,,,71,127
63844,note_off,80,0,0,,8,,,68,127
63884,note_on,40,0,0,,8,,,68,127
63964,note_off,80,0,0,,12,,,71,127
64004,note_on,40,0,0,,12,,,71,127
64014,note_off,10,0,0,,3,,,63,127
64019,note_off,5,0,0,,8,,,80,127
64084,note_off,65,0,0,,8,,,68,127
64124,note_on,40,0,0,,2,,,62,127
64126,note_on,2,0,0,,12,,,83,127
64204,note_off,78,0,0,,12,,,71,127
64244,note_on,40,0,0,,12,,,71,127
64364,note_on,120,0,0,,6,,,66,127
64364,note_on,0,0,0,,2,,,86,127
64365,note_off,1,0,0,,12,,,83,127
64444,note_off,79,0,0,,12,,,71,127
64484,note_on,40,0,0,,12,,,71,127
64564,note_off,80,0,0,,6,,,66,127
64603,note_off,39,0,0,,2,,,86,127
64604,note_on,1,0,0,,6,,,66,127
64604,note_on,0,0,0,,6,,,78,127
64684,note_off,80,0,0,,12,,,71,127
64724,note_on,40,0,0,,12,,,71,127
64734,note_off,10,0,0,,2,,,62,127
64804,note_off,70,0,0,,6,,,66,127
64843,note_off,39,0,0,,6,,,78,127
64844,note_on,1,0,0,,1,,,61,127
64844,note_on,0,0,0,,5,,,77,127
64924,note_off,80,0,0,,12,,,71,127
64964,note_on,40,0,0,,12,,,71,127
65083,note_off,119,0,0,,5,,,77,127
65084,note_on,1,0,0,,8,,,68,127
65084,note_on,0,0,0,,8,,,80,127
65164,note_off,80,0,0,,12,,,71,127
65204,note_on,40,0,0,,12,,,71,127
65284,note_off,80,0,0,,8,,,68,127
65323,note_off,39,0,0,,8,,,80,127
65324,note_on,1,0,0,,8,,,68,127
65324,note_on,0,0,0,,12,,,83,127
65404,note_off,80,0,0,,12,,,71,127
65444,note_on,40,0,0,,12,,,71,127
65454,note_off,10,0,0,,1,,,61,127
65524,note_off,70,0,0,,8,,,68,127
65563,note_off,39,0,0,,12,,,83,127
65564,note_on,1,0,0,,1,,,61,127
65564,note_on,0,0,0,,2,,,86,127
65644,note_off,80,0,0,,12,,,71,127
65684,note_on,40,0,0,,12,,,71,127
65803,note_off,119,0,0,,2,,,86,127
65804,note_on,1,0,0,,5,,,65,127
65804,note_on,0,0,0,,1,,,85,127
65884,note_off,80,0,0,,12,,,71,127
65924,note_on,40,0,0,,12,,,71,127
66004,note_off,80,0,0,,5,,,65,127
66043,note_off,39,0,0,,1,,,85,127
66044,note_on,1,0,0,,5,,,65,127
66044,note_on,0,0,0,,8,,,80,127
66124,note_off,80,0,0,,12,,,71,127
66164,note_on,40,0,0,,12,,,71,127
66174,note_off,10,0,0,,1,,,61,127
66244,note_off,70,0,0,,5,,,65,127
66283,note_off,39,0,0,,8,,,80,127
66284,note_on,1,0,0,,1,,,61,127
66284,note_on,0,0,0,,8,,,80,127
66364,note_off,80,0,0,,12,,,71,127
66404,note_on,40,0,0,,10,,,69,127
66523,note_off,119,0,0,,8,,,80,127
66524,note_on,1,0,0,,6,,,66,127
66524,note_on,0,0,0,,10,,,81,127
66604,note_off,80,0,0,,10,,,69,127
66644,note_on,40,0,0,,10,,,69,127
66724,note_off,80,0,0,,6,,,66,127
66764,note_on,40,0,0,,6,,,66,127
66844,note_off,80,0,0,,10,,,69,127
66884,note_off,40,0,0,,10,,,81,127
66884,note_on,0,0,0,,10,,,69,127
66894,note_off,10,0,0,,1,,,61,127
66964,note_off,70,0,0,,6,,,66,127
67004,note_on,40,0,0,,1,,,61,127
67006,note_on,2,0,0,,1,,,85,127
67084,note_off,78,0,0,,10,,,69,127
67124,note_on,40,0,0,,10,,,69,127
67244,note_on,120,0,0,,6,,,66,127
67244,note_on,0,0,0,,10,,,81,127
67245,note_off,1,0,0,,1,,,85,127
67324,note_off,79,0,0,,10,,,69,127
67364,note_on,40,0,0,,10,,,69,127
67444,note_off,80,0,0,,6,,,66,127
67483,note_off,39,0,0,,10,,,81,127
67484,note_on,1,0,0,,6,,,66,127
67484,note_on,0,0,0,,6,,,78,127
67564,note_off,80,0,0,,10,,,69,127
67604,note_on,40,0,0,,10,,,69,127
67614,note_off,10,0,0,,1,,,61,127
67684,note_off,70,0,0,,6,,,66,127
67723,note_off,39,0,0,,6,,,78,127
67724,note_on,1,0,0,,12,,,59,127
67724,note_on,0,0,0,,3,,,75,127
67804,note_off,80,0,0,,10,,,69,127
67844,note_on,40,0,0,,10,,,69,127
67963,note_off,119,0,0,,3,,,75,127
67964,note_on,1,0,0,,6,,,66,127
67964,note_on,0,0,0,,6,,,78,127
68044,note_off,80,0,0,,10,,,69,127
68084,note_on,40,0,0,,10,,,69,127
68164,note_off,80,0,0,,6,,,66,127
68203,note_off,39,0,0,,6,,,78,127
68204,note_on,1,0,0,,6,,,66,127
68204,note_on,0,0,0,,10,,,81,127
68284,note_off,80,0,0,,10,,,69,127
68324,note_on,40,0,0,,10,,,69,127
68334,note_off,10,0,0,,12,,,59,127
68404,note_off,70,0,0,,6,,,66,127
68443,note_off,39,0,0,,10,,,81,127
68444,note_on,1,0,0,,12,,,59,127
68444,note_on,0,0,0,,1,,,85,127
68524,note_off,80,0,0,,10,,,69,127
68564,note_on,40,0,0,,10,,,69,127
68683,note_off,119,0,0,,1,,,85,127
68684,note_on,1,0,0,,3,,,63,127
68684,note_on,0,0,0,,10,,,81,127
68764,note_off,80,0,0,,10,,,69,127
68804,note_on,40,0,0,,10,,,69,127
68884,note_off,80,0,0,,3,,,63,127
68923,note_off,39,0,0,,10,,,81,127
68924,note_on,1,0,0,,3,,,63,127
68924,note_on,0,0,0,,6,,,78,127
69004,note_off,80,0,0,,10,,,69,127
69044,note_on,40,0,0,,10,,,69,127
69054,note_off,10,0,0,,12,,,59,127
69124,note_off,70,0,0,,3,,,63,127
69163,note_off,39,0,0,,6,,,78,127
69164,note_on,1,0,0,,4,,,64,127
69164,note_on,0,0,0,,8,,,80,127
69244,note_off,80,0,0,,10,,,69,127
69302,note_off,58,0,0,,4,,,64,127
69304,note_on,2,0,0,,4,,,76,127
69403,note_off,99,0,0,,8,,,80,127
69424,note_on,21,0,0,,4,,,88,127
69424,note_on,0,0,0,,1,,,73,127
69442,note_off,18,0,0,,4,,,76,127
69544,note_on,102,0,0,,4,,,76,127
69562,note_off,18,0,0,,1,,,73,127
69663,note_off,101,0,0,,4,,,88,127
69664,note_on,1,0,0,,1,,,85,127
69664,note_on,0,0,0,,10,,,69,127
69682,note_off,18,0,0,,4,,,76,127
69784,note_on,102,0,0,,1,,,73,127
69802,note_off,18,0,0,,10,,,69,127
69903,note_off,101,0,0,,1,,,85,127
69904,note_on,1,0,0,,10,,,81,127
69904,note_on,0,0,0,,6,,,66,127
69922,note_off,18,0,0,,1,,,73,127
70024,note_on,102,0,0,,10,,,69,127
70042,note_off,18,0,0,,6,,,66,127
70143,note_off,101,0,0,,10,,,81,127
70144,note_on,1,0,0,,6,,,78,127
70144,note_on,0,0,0,,3,,,63,127
70162,note_off,18,0,0,,10,,,69,127
70264,note_on,102,0,0,,6,,,66,127
70282,note_off,18,0,0,,3,,,63,127
70383,note_off,101,0,0,,6,,,78,127
70384,note_on,1,0,0,,12,,,83,127
70384,note_on,0,0,0,,12,,,59,127
70402,note_off,18,0,0,,6,,,66,127
70504,note_on,102,0,0,,3,,,63,127
70522,note_off,18,0,0,,12,,,59,127
70623,note_off,101,0,0,,12,,,83,127
70624,note_on,1,0,0,,8,,,80,127
70624,note_on,0,0,0,,4,,,64,127
70642,note_off,18,0,0,,3,,,63,127
70744,note_on,102,0,0,,12,,,71,127
70762,note_off,18,0,0,,4,,,64,127
70863,note_off,101,0,0,,8,,,80,127
70871,note_on,8,0,0,,8,,,68,127
70871,note_on,0,0,0,,12,,,83,127
70893,note_off,22,0,0,,12,,,71,127
70991,note_on,98,0,0,,12,,,71,127
71009,note_off,18,0,0,,8,,,68,127
71110,note_off,101,0,0,,12,,,83,127
71111,note_on,1,0,0,,4,,,64,127
71111,note_on,0,0,0,,8,,,80,127
71129,note_off,18,0,0,,12,,,71,127
71231,note_on,102,0,0,,8,,,68,127
71249,note_off,18,0,0,,4,,,64,127
71350,note_off,101,0,0,,8,,,80,127
71351,note_on,1,0,0,,1,,,61,127
71351,note_on,0,0,0,,4,,,76,127
71369,note_off,18,0,0,,8,,,68,127
71471,note_on,102,0,0,,4,,,64,127
71489,note_off,18,0,0,,1,,,61,127
71590,note_off,101,0,0,,4,,,76,127
71591,note_on,1,0,0,,10,,,57,127
71591,note_on,0,0,0,,1,,,73,127
71609,note_off,18,0,0,,4,,,64,127
71711,note_on,102,0,0,,1,,,61,127
71729,note_off,18,0,0,,10,,,57,127
71830,note_off,101,0,0,,1,,,73,127
71831,note_on,1,0,0,,6,,,54,127
71831,note_on,0,0,0,,10,,,69,127
71849,note_off,18,0,0,,1,,,61,127
71951,note_on,102,0,0,,10,,,57,127
71969,note_off,18,0,0,,6,,,54,127
72070,note_off,101,0,0,,10,,,69,127
72071,note_on,1,0,0,,3,,,51,127
72071,note_on,0,0,0,,6,,,66,127
72089,note_off,18,0,0,,10,,,57,127
72191,note_on,102,0,0,,6,,,54,127
72209,note_off,18,0,0,,3,,,51,127
72310,note_off,101,0,0,,6,,,66,127
72311,note_on,1,0,0,,12,,,47,127
72311,note_on,0,0,0,,12,,,71,127
72329,note_off,18,0,0,,6,,,54,127
72431,note_on,102,0,0,,12,,,59,127
72449,note_off,18,0,0,,12,,,47,127
72550,note_off,101,0,0,,12,,,71,127
72551,note_on,1,0,0,,3,,,51,127
72551,note_on,0,0,0,,6,,,66,127
72569,note_off,18,0,0,,12,,,59,127
72671,note_on,102,0,0,,12,,,59,127
72689,note_off,18,0,0,,3,,,51,127
72790,note_off,101,0,0,,6,,,66,127
72791,note_on,1,0,0,,4,,,52,127
72791,note_on,0,0,0,,8,,,68,127
72809,note_off,18,0,0,,12,,,59,127
72911,note_on,102,0,0,,12,,,59,127
72929,note_off,18,0,0,,4,,,52,127
73037,note_on,108,0,0,,8,,,56,127
73037,note_on,0,0,0,,12,,,71,127
73041,note_off,4,0,0,,8,,,68,127
73050,note_off,9,0,0,,12,,,59,127
73158,note_on,108,0,0,,12,,,59,127
73176,note_off,18,0,0,,8,,,56,127
73277,note_off,101,0,0,,12,,,71,127
73278,note_on,1,0,0,,4,,,52,127
73278,note_on,0,0,0,,8,,,68,127
73296,note_off,18,0,0,,12,,,59,127
73398,note_on,102,0,0,,8,,,56,127
73416,note_off,18,0,0,,4,,,52,127
73517,note_off,101,0,0,,8,,,68,127
73518,note_on,1,0,0,,1,,,49,127
73518,note_on,0,0,0,,4,,,64,127
73536,note_off,18,0,0,,8,,,56,127
73638,note_on,102,0,0,,4,,,52,127
73656,note_off,18,0,0,,1,,,49,127
73757,note_off,101,0,0,,4,,,64,127
73758,note_on,1,0,0,,10,,,45,127
73758,note_on,0,0,0,,10,,,69,127
73776,note_off,18,0,0,,4,,,52,127
73878,note_on,102,0,0,,1,,,49,127
73896,note_off,18,0,0,,10,,,45,127
73997,note_off,101,0,0,,10,,,69,127
73998,note_on,1,0,0,,6,,,42,127
73998,note_on,0,0,0,,1,,,73,127
74016,note_off,18,0,0,,1,,,49,127
74118,note_on,102,0,0,,10,,,45,127
74136,note_off,18,0,0,,6,,,42,127
74238,note_on,102,0,0,,3,,,39,127
74256,note_off,18,0,0,,10,,,45,127
74358,note_on,102,0,0,,6,,,42,127
74376,note_off,18,0,0,,3,,,39,127
74477,note_off,101,0,0,,1,,,73,127
74478,note_on,1,0,0,,12,,,35,127
74478,note_on,0,0,0,,12,,,71,127
74496,note_off,18,0,0,,6,,,42,127
74598,note_on,102,0,0,,12,,,47,127
74616,note_off,18,0,0,,12,,,35,127
74717,note_off,101,0,0,,12,,,71,127
74718,note_on,1,0,0,,3,,,39,127
74718,note_on,0,0,0,,6,,,66,127
74736,note_off,18,0,0,,12,,,47,127
74838,note_on,102,0,0,,12,,,47,127
74856,note_off,18,0,0,,3,,,39,127
74968,note_on,112,0,0,,4,,,40,127
74968,note_on,0,0,0,,8,,,68,127
74976,note_off,8,0,0,,12,,,47,127
74977,note_off,1,0,0,,6,,,66,127
75088,note_on,111,0,0,,4,,,64,127
75118,note_off,30,0,0,,8,,,68,127
75207,note_off,89,0,0,,4,,,40,127
75208,note_on,1,0,0,,6,,,42,127
75208,note_on,0,0,0,,10,,,69,127
75238,note_off,30,0,0,,4,,,64,127
75328,note_on,90,0,0,,6,,,66,127
75358,note_off,30,0,0,,10,,,69,127
75447,note_off,89,0,0,,6,,,42,127
75448,note_on,1,0,0,,8,,,44,127
75448,note_on,0,0,0,,12,,,71,127
75478,note_off,30,0,0,,6,,,66,127
75568,note_on,90,0,0,,8,,,68,127
75598,note_off,30,0,0,,12,,,71,127
75687,note_off,89,0,0,,8,,,44,127
75688,note_on,1,0,0,,10,,,45,127
75688,note_on,0,0,0,,1,,,73,127
75718,note_off,30,0,0,,8,,,68,127
75808,note_on,90,0,0,,10,,,69,127
75838,note_off,30,0,0,,1,,,73,127
75927,note_off,89,0,0,,10,,,45,127
75928,note_on,1,0,0,,12,,,47,127
75928,note_on,0,0,0,,3,,,75,127
75958,note_off,30,0,0,,10,,,69,127
76048,note_on,90,0,0,,12,,,71,127
76078,note_off,30,0,0,,3,,,75,127
76167,note_off,89,0,0,,12,,,47,127
76168,note_on,1,0,0,,1,,,49,127
76168,note_on,0,0,0,,4,,,76,127
76198,note_off,30,0,0,,12,,,71,127
76288,note_on,90,0,0,,1,,,73,127
76318,note_off,30,0,0,,4,,,76,127
76407,note_off,89,0,0,,1,,,49,127
76408,note_on,1,0,0,,12,,,47,127
76408,note_on,0,0,0,,6,,,78,127
76438,note_off,30,0,0,,1,,,73,127
76527,note_off,89,0,0,,6,,,78,127
76531,note_on,4,0,0,,3,,,75,127
76650,note_off,119,0,0,,3,,,75,127
76654,note_on,4,0,0,,12,,,71,127
76773,note_off,119,0,0,,12,,,71,127
76777,note_on,4,0,0,,6,,,66,127
76888,note_off,111,0,0,,12,,,47,127
76896,note_off,8,0,0,,6,,,66,127
76897,note_on,1,0,0,,3,,,63,127
77016,note_off,119,0,0,,3,,,63,127
77020,note_on,4,0,0,,12,,,59,127
77180,note_on,160,0,0,,3,,,75,127
77180,note_on,0,0,0,,6,,,78,127
77259,note_off,79,0,0,,12,,,59,127
77300,note_on,41,0,0,,12,,,71,127
77419,note_off,119,0,0,,12,,,71,127
77419,note_off,0,0,0,,6,,,78,127
77419,note_off,0,0,0,,3,,,75,127
77420,note_on,1,0,0,,4,,,76,127
77420,note_on,0,0,0,,8,,,80,127
77420,note_on,0,0,0,,8,,,68,127
77539,note_off,119,0,0,,8,,,68,127
77540,note_on,1,0,0,,4,,,64,127
77659,note_off,119,0,0,,4,,,64,127
77659,note_off,0,0,0,,8,,,80,127
77659,note_off,0,0,0,,4,,,76,127
77660,note_on,1,0,0,,6,,,78,127
77660,note_on,0,0,0,,10,,,81,127
77660,note_on,0,0,0,,1,,,73,127
77779,note_off,119,0,0,,1,,,73,127
77780,note_on,1,0,0,,10,,,69,127
77899,note_off,119,0,0,,10,,,69,127
77899,note_off,0,0,0,,10,,,81,127
77899,note_off,0,0,0,,6,,,78,127
77900,note_on,1,0,0,,4,,,76,127
77900,note_on,0,0,0,,8,,,80,127
77900,note_on,0,0,0,,12,,,71,127
78139,note_off,239,0,0,,8,,,80,127
78139,note_off,0,0,0,,4,,,76,127
78140,note_on,1,0,0,,6,,,78,127
78259,note_off,119,0,0,,6,,,78,127
78260,note_on,1,0,0,,4,,,76,127
78379,note_off,119,0,0,,4,,,76,127
78380,note_on,1,0,0,,3,,,75,127
78380,note_on,0,0,0,,6,,,78,127
78380,note_on,0,0,0,,12,,,59,127
78619,note_off,239,0,0,,12,,,59,127
78619,note_off,0,0,0,,6,,,78,127
78619,note_off,0,0,0,,3,,,75,127
78629,note_off,10,0,0,,12,,,71,127
78630,note_on,1,0,0,,6,,,78,127
78630,note_on,0,0,0,,3,,,75,127
78750,note_on,120,0,0,,12,,,71,127
78869,note_off,119,0,0,,12,,,71,127
78869,note_off,0,0,0,,3,,,75,127
78869,note_off,0,0,0,,6,,,78,127
78870,note_on,1,0,0,,4,,,76,127
78870,note_on,0,0,0,,8,,,80,127
78870,note_on,0,0,0,,8,,,68,127
78989,note_off,119,0,0,,8,,,68,127
78990,note_on,1,0,0,,4,,,64,127
79109,note_off,119,0,0,,4,,,64,127
79109,note_off,0,0,0,,8,,,80,127
79109,note_off,0,0,0,,4,,,76,127
79110,note_on,1,0,0,,10,,,81,127
79110,note_on,0,0,0,,6,,,78,127
79110,note_on,0,0,0,,1,,,73,127
79229,note_off,119,0,0,,1,,,73,127
79230,note_on,1,0,0,,10,,,69,127
79349,note_off,119,0,0,,10,,,69,127
79349,note_off,0,0,0,,6,,,78,127
79349,note_off,0,0,0,,10,,,81,127
79350,note_on,1,0,0,,4,,,76,127
79350,note_on,0,0,0,,8,,,80,127
79350,note_on,0,0,0,,12,,,71,127
79589,note_off,239,0,0,,8,,,80,127
79589,note_off,0,0,0,,4,,,76,127
79590,note_on,1,0,0,,6,,,78,127
79709,note_off,119,0,0,,6,,,78,127
79710,note_on,1,0,0,,4,,,76,127
79829,note_off,119,0,0,,4,,,76,127
79830,note_on,1,0,0,,6,,,78,127
79830,note_on,0,0,0,,3,,,75,127
79830,note_on,0,0,0,,12,,,59,127
79949,note_off,119,0,0,,6,,,78,127
79950,note_on,1,0,0,,12,,,83,127
80069,note_off,119,0,0,,12,,,83,127
80069,note_off,0,0,0,,12,,,59,127
80069,note_off,0,0,0,,3,,,75,127
80069,note_off,0,0,0,,12,,,71,127
80070,note_on,1,0,0,,12,,,83,127
80190,note_on,120,0,0,,8,,,68,127
80309,note_off,119,0,0,,8,,,68,127
80310,note_on,1,0,0,,10,,,69,127
80429,note_off,119,0,0,,10,,,69,127
80430,note_on,1,0,0,,8,,,68,127
80549,note_off,119,0,0,,8,,,68,127
80549,note_off,0,0,0,,12,,,83,127
80550,note_on,1,0,0,,1,,,85,127
80550,note_on,0,0,0,,4,,,76,127
80550,note_on,0,0,0,,10,,,69,127
80669,note_off,119,0,0,,1,,,85,127
80670,note_on,1,0,0,,3,,,87,127
80789,note_off,119,0,0,,3,,,87,127
80790,note_on,1,0,0,,3,,,87,127
80909,note_off,119,0,0,,10,,,69,127
80910,note_on,1,0,0,,6,,,66,127
81029,note_off,119,0,0,,6,,,66,127
81030,note_on,1,0,0,,8,,,68,127
81149,note_off,119,0,0,,8,,,68,127
81150,note_on,1,0,0,,6,,,66,127
81269,note_off,119,0,0,,6,,,66,127
81269,note_off,0,0,0,,3,,,87,127
81270,note_on,1,0,0,,4,,,88,127
81270,note_on,0,0,0,,8,,,68,127
81389,note_off,119,0,0,,4,,,88,127
81390,note_on,1,0,0,,12,,,83,127
81509,note_off,119,0,0,,12,,,83,127
81509,note_off,0,0,0,,8,,,68,127
81509,note_off,0,0,0,,4,,,76,127
81510,note_on,1,0,0,,1,,,85,127
81510,note_on,0,0,0,,10,,,69,127
81629,note_off,119,0,0,,1,,,85,127
81630,note_on,1,0,0,,10,,,81,127
81749,note_off,119,0,0,,10,,,81,127
81749,note_off,0,0,0,,10,,,69,127
81750,note_on,1,0,0,,8,,,80,127
81750,note_on,0,0,0,,12,,,71,127
81869,note_off,119,0,0,,8,,,80,127
81870,note_on,1,0,0,,6,,,78,127
81989,note_off,119,0,0,,6,,,78,127
81990,note_on,1,0,0,,4,,,76,127
81990,note_on,0,0,0,,12,,,59,127
82109,note_off,119,0,0,,4,,,76,127
82110,note_on,1,0,0,,3,,,75,127
82229,note_off,119,0,0,,3,,,75,127
82229,note_off,0,0,0,,12,,,59,127
82229,note_off,0,0,0,,12,,,71,127
82230,note_on,1,0,0,,4,,,76,127
82230,note_on,0,0,0,,4,,,52,127
82349,note_off,119,0,0,,4,,,76,127
82354,note_on,5,0,0,,6,,,78,127
82473,note_off,119,0,0,,6,,,78,127
82478,note_on,5,0,0,,7,,,79,127
82590,note_off,112,0,0,,4,,,52,127
82596,note_off,6,0,0,,7,,,79,127
82601,note_on,5,0,0,,10,,,81,127
82720,note_off,119,0,0,,10,,,81,127
82725,note_on,5,0,0,,12,,,83,127
82844,note_off,119,0,0,,12,,,83,127
82849,note_on,5,0,0,,0,,,84,127
82968,note_off,119,0,0,,0,,,84,127
82978,note_on,10,0,0,,3,,,75,127
82978,note_on,0,0,0,,6,,,78,127
83098,note_on,120,0,0,,12,,,71,127
83217,note_off,119,0,0,,12,,,71,127
83217,note_off,0,0,0,,6,,,78,127
83217,note_off,0,0,0,,3,,,75,127
83218,note_on,1,0,0,,7,,,67,127
83218,note_on,0,0,0,,7,,,79,127
83218,note_on,0,0,0,,4,,,76,127
83337,note_off,119,0,0,,7,,,67,127
83338,note_on,1,0,0,,4,,,64,127
83457,note_off,119,0,0,,4,,,64,127
83457,note_off,0,0,0,,4,,,76,127
83457,note_off,0,0,0,,7,,,79,127
83458,note_on,1,0,0,,0,,,72,127
83458,note_on,0,0,0,,6,,,78,127
83458,note_on,0,0,0,,10,,,81,127
83577,note_off,119,0,0,,0,,,72,127
83578,note_on,1,0,0,,10,,,69,127
83697,note_off,119,0,0,,10,,,69,127
83697,note_off,0,0,0,,10,,,81,127
83697,note_off,0,0,0,,6,,,78,127
83698,note_on,1,0,0,,12,,,71,127
83698,note_on,0,0,0,,4,,,76,127
83698,note_on,0,0,0,,7,,,79,127
83937,note_off,239,0,0,,7,,,79,127
83937,note_off,0,0,0,,4,,,76,127
83938,note_on,1,0,0,,6,,,78,127
84057,note_off,119,0,0,,6,,,78,127
84058,note_on,1,0,0,,4,,,76,127
84177,note_off,119,0,0,,4,,,76,127
84178,note_on,1,0,0,,12,,,59,127
84178,note_on,0,0,0,,6,,,78,127
84178,note_on,0,0,0,,3,,,75,127
84417,note_off,239,0,0,,3,,,75,127
84417,note_off,0,0,0,,6,,,78,127
84417,note_off,0,0,0,,12,,,59,127
84417,note_off,0,0,0,,12,,,71,127
84418,note_on,1,0,0,,3,,,75,127
84418,note_on,0,0,0,,6,,,78,127
84538,note_on,120,0,0,,12,,,71,127
84657,note_off,119,0,0,,12,,,71,127
84657,note_off,0,0,0,,6,,,78,127
84657,note_off,0,0,0,,3,,,75,127
84658,note_on,1,0,0,,7,,,67,127
84658,note_on,0,0,0,,4,,,76,127
84658,note_on,0,0,0,,7,,,79,127
84777,note_off,119,0,0,,7,,,67,127
84778,note_on,1,0,0,,4,,,64,127
84897,note_off,119,0,0,,4,,,64,127
84897,note_off,0,0,0,,7,,,79,127
84897,note_off,0,0,0,,4,,,76,127
84898,note_on,1,0,0,,0,,,72,127
84898,note_on,0,0,0,,6,,,78,127
84898,note_on,0,0,0,,10,,,81,127
85017,note_off,119,0,0,,0,,,72,127
85018,note_on,1,0,0,,10,,,69,127
85137,note_off,119,0,0,,10,,,69,127
85137,note_off,0,0,0,,10,,,81,127
85137,note_off,0,0,0,,6,,,78,127
85138,note_on,1,0,0,,12,,,71,127
85138,note_on,0,0,0,,4,,,76,127
85138,note_on,0,0,0,,7,,,79,127
85377,note_off,239,0,0,,7,,,79,127
85377,note_off,0,0,0,,4,,,76,127
85378,note_on,1,0,0,,6,,,78,127
85497,note_off,119,0,0,,6,,,78,127
85498,note_on,1,0,0,,4,,,76,127
85617,note_off,119,0,0,,4,,,76,127
85618,note_on,1,0,0,,12,,,59,127
85618,note_on,0,0,0,,3,,,75,127
85618,note_on,0,0,0,,6,,,78,127
85737,note_off,119,0,0,,6,,,78,127
85738,note_on,1,0,0,,12,,,83,127
85857,note_off,119,0,0,,12,,,83,127
85857,note_off,0,0,0,,3,,,75,127
85857,note_off,0,0,0,,12,,,59,127
85857,note_off,0,0,0,,12,,,71,127
85858,note_on,1,0,0,,12,,,83,127
85978,note_on,120,0,0,,8,,,68,127
86097,note_off,119,0,0,,8,,,68,127
86098,note_on,1,0,0,,10,,,69,127
86217,note_off,119,0,0,,10,,,69,127
86218,note_on,1,0,0,,8,,,68,127
86337,note_off,119,0,0,,8,,,68,127
86337,note_off,0,0,0,,12,,,83,127
86338,note_on,1,0,0,,10,,,69,127
86338,note_on,0,0,0,,4,,,76,127
86338,note_on,0,0,0,,0,,,84,127
86457,note_off,119,0,0,,0,,,84,127
86458,note_on,1,0,0,,3,,,87,127
86577,note_off,119,0,0,,3,,,87,127
86578,note_on,1,0,0,,3,,,87,127
86697,note_off,119,0,0,,10,,,69,127
86698,note_on,1,0,0,,6,,,66,127
86817,note_off,119,0,0,,6,,,66,127
86818,note_on,1,0,0,,7,,,67,127
86937,note_off,119,0,0,,7,,,67,127
86938,note_on,1,0,0,,6,,,66,127
87057,note_off,119,0,0,,6,,,66,127
87057,note_off,0,0,0,,3,,,87,127
87058,note_on,1,0,0,,7,,,67,127
87058,note_on,0,0,0,,4,,,88,127
87177,note_off,119,0,0,,4,,,88,127
87178,note_on,1,0,0,,12,,,83,127
87297,note_off,119,0,0,,12,,,83,127
87297,note_off,0,0,0,,7,,,67,127
87297,note_off,0,0,0,,4,,,76,127
87298,note_on,1,0,0,,10,,,69,127
87298,note_on,0,0,0,,0,,,84,127
87417,note_off,119,0,0,,0,,,84,127
87418,note_on,1,0,0,,10,,,81,127
87537,note_off,119,0,0,,10,,,81,127
87537,note_off,0,0,0,,10,,,69,127
87538,note_on,1,0,0,,12,,,71,127
87538,note_on,0,0,0,,7,,,79,127
87657,note_off,119,0,0,,7,,,79,127
87658,note_on,1,0,0,,6,,,78,127
87777,note_off,119,0,0,,6,,,78,127
87778,note_on,1,0,0,,12,,,59,127
87778,note_on,0,0,0,,4,,,76,127
87897,note_off,119,0,0,,4,,,76,127
87898,note_on,1,0,0,,3,,,75,127
88017,note_off,119,0,0,,3,,,75,127
88017,note_off,0,0,0,,12,,,59,127
88017,note_off,0,0,0,,12,,,71,127
88038,note_on,21,0,0,,4,,,88,127
88038,note_on,0,0,0,,4,,,64,127
88158,note_on,120,0,0,,4,,,76,127
88176,note_off,18,0,0,,4,,,64,127
88278,note_on,102,0,0,,12,,,71,127
88296,note_off,18,0,0,,4,,,76,127
88398,note_on,102,0,0,,4,,,76,127
88416,note_off,18,0,0,,12,,,71,127
88518,note_on,102,0,0,,8,,,68,127
88536,note_off,18,0,0,,4,,,76,127
88638,note_on,102,0,0,,12,,,71,127
88656,note_off,18,0,0,,8,,,68,127
88757,note_off,101,0,0,,12,,,71,127
88757,note_off,0,0,0,,4,,,88,127
88758,note_on,1,0,0,,4,,,76,127
88758,note_on,0,0,0,,4,,,88,127
88758,note_on,0,0,0,,4,,,52,127
88878,note_on,120,0,0,,4,,,64,127
88896,note_off,18,0,0,,4,,,52,127
88998,note_on,102,0,0,,12,,,59,127
89016,note_off,18,0,0,,4,,,64,127
89118,note_on,102,0,0,,4,,,64,127
89136,note_off,18,0,0,,12,,,59,127
89238,note_on,102,0,0,,8,,,56,127
89256,note_off,18,0,0,,4,,,64,127
89358,note_on,102,0,0,,12,,,59,127
89376,note_off,18,0,0,,8,,,56,127
89472,note_off,96,0,0,,12,,,59,127
89477,note_off,5,0,0,,4,,,88,127
89477,note_off,0,0,0,,4,,,76,127
89478,note_on,1,0,0,,4,,,76,127
89478,note_on,0,0,0,,4,,,88,127
89478,note_on,0,0,0,,4,,,40,127
89598,note_on,120,0,0,,4,,,52,127
89616,note_off,18,0,0,,4,,,40,127
89718,note_on,102,0,0,,12,,,47,127
89736,note_off,18,0,0,,4,,,52,127
89838,note_on,102,0,0,,4,,,52,127
89856,note_off,18,0,0,,12,,,47,127
89958,note_on,102,0,0,,8,,,44,127
89976,note_off,18,0,0,,4,,,52,127
90078,note_on,102,0,0,,12,,,47,127
90096,note_off,18,0,0,,8,,,44,127
90197,note_off,101,0,0,,4,,,88,127
90197,note_off,0,0,0,,4,,,76,127
90198,note_on,1,0,0,,4,,,88,127
90198,note_on,0,0,0,,4,,,40,127
90216,note_off,18,0,0,,12,,,47,127
90317,note_off,101,0,0,,4,,,88,127
90318,note_on,1,0,0,,3,,,87,127
90437,note_off,119,0,0,,3,,,87,127
90437,note_off,0,0,0,,4,,,40,127
90438,note_on,1,0,0,,1,,,85,127
90438,note_on,0,0,0,,6,,,42,127
90557,note_off,119,0,0,,1,,,85,127
90558,note_on,1,0,0,,12,,,83,127
90677,note_off,119,0,0,,12,,,83,127
90677,note_off,0,0,0,,6,,,42,127
90678,note_on,1,0,0,,10,,,81,127
90678,note_on,0,0,0,,8,,,44,127
90797,note_off,119,0,0,,10,,,81,127
90798,note_on,1,0,0,,8,,,80,127
90917,note_off,119,0,0,,8,,,80,127
90917,note_off,0,0,0,,8,,,44,127
90918,note_on,1,0,0,,6,,,78,127
90918,note_on,0,0,0,,10,,,45,127
91037,note_off,119,0,0,,6,,,78,127
91038,note_on,1,0,0,,4,,,76,127
91157,note_off,119,0,0,,4,,,76,127
91157,note_off,0,0,0,,10,,,45,127
91158,note_on,1,0,0,,3,,,75,127
91158,note_on,0,0,0,,12,,,47,127
91277,note_off,119,0,0,,3,,,75,127
91278,note_on,1,0,0,,4,,,76,127
91397,note_off,119,0,0,,4,,,76,127
91397,note_off,0,0,0,,12,,,47,127
91398,note_on,1,0,0,,6,,,78,127
91398,note_on,0,0,0,,12,,,59,127
91517,note_off,119,0,0,,6,,,78,127
91518,note_on,1,0,0,,3,,,75,127
91637,note_off,119,0,0,,12,,,59,127
91653,note_on,16,0,0,,4,,,64,127
91653,note_on,0,0,0,,4,,,88,127
91654,note_off,1,0,0,,3,,,75,127
91779,note_on,125,0,0,,4,,,76,127
91790,note_off,11,0,0,,4,,,64,127
91899,note_on,109,0,0,,12,,,71,127
91917,note_off,18,0,0,,4,,,76,127
92019,note_on,102,0,0,,4,,,76,127
92037,note_off,18,0,0,,12,,,71,127
92139,note_on,102,0,0,,8,,,68,127
92157,note_off,18,0,0,,4,,,76,127
92259,note_on,102,0,0,,12,,,71,127
92277,note_off,18,0,0,,8,,,68,127
92372,note_off,95,0,0,,4,,,88,127
92375,note_off,3,0,0,,12,,,71,127
92380,note_on,5,0,0,,4,,,76,127
92380,note_on,0,0,0,,4,,,88,127
92380,note_on,0,0,0,,4,,,52,127
92500,note_on,120,0,0,,4,,,64,127
92518,note_off,18,0,0,,4,,,52,127
92620,note_on,102,0,0,,12,,,59,127
92638,note_off,18,0,0,,4,,,64,127
92740,note_on,102,0,0,,4,,,64,127
92758,note_off,18,0,0,,12,,,59,127
92860,note_on,102,0,0,,8,,,56,127
92878,note_off,18,0,0,,4,,,64,127
92980,note_on,102,0,0,,12,,,59,127
92998,note_off,18,0,0,,8,,,56,127
93095,note_off,97,0,0,,12,,,59,127
93099,note_off,4,0,0,,4,,,88,127
93099,note_off,0,0,0,,4,,,76,127
93100,note_on,1,0,0,,4,,,76,127
93100,note_on,0,0,0,,4,,,88,127
93100,note_on,0,0,0,,4,,,40,127
93220,note_on,120,0,0,,4,,,52,127
93238,note_off,18,0,0,,4,,,40,127
93340,note_on,102,0,0,,12,,,47,127
93358,note_off,18,0,0,,4,,,52,127
93460,note_on,102,0,0,,4,,,52,127
93478,note_off,18,0,0,,12,,,47,127
93580,note_on,102,0,0,,8,,,44,127
93598,note_off,18,0,0,,4,,,52,127
93700,note_on,102,0,0,,12,,,47,127
93718,note_off,18,0,0,,8,,,44,127
93819,note_off,101,0,0,,4,,,88,127
93819,note_off,0,0,0,,4,,,76,127
93820,note_on,1,0,0,,4,,,52,127
93820,note_on,0,0,0,,4,,,40,127
93820,note_on,0,0,0,,4,,,88,127
93838,note_off,18,0,0,,12,,,47,127
93939,note_off,101,0,0,,4,,,88,127
93941,note_on,2,0,0,,3,,,87,127
94059,note_off,118,0,0,,4,,,40,127
94059,note_off,0,0,0,,4,,,52,127
94060,note_off,1,0,0,,3,,,87,127
94062,note_on,2,0,0,,6,,,54,127
94062,note_on,0,0,0,,1,,,85,127
94181,note_off,119,0,0,,1,,,85,127
94183,note_on,2,0,0,,12,,,83,127
94301,note_off,118,0,0,,6,,,54,127
94302,note_off,1,0,0,,12,,,83,127
94304,note_on,2,0,0,,8,,,56,127
94304,note_on,0,0,0,,10,,,81,127
94423,note_off,119,0,0,,10,,,81,127
94425,note_on,2,0,0,,8,,,80,127
94543,note_off,118,0,0,,8,,,56,127
94544,note_off,1,0,0,,8,,,80,127
94546,note_on,2,0,0,,10,,,57,127
94546,note_on,0,0,0,,6,,,78,127
94665,note_off,119,0,0,,6,,,78,127
94667,note_on,2,0,0,,4,,,76,127
94785,note_off,118,0,0,,10,,,57,127
94786,note_off,1,0,0,,4,,,76,127
94788,note_on,2,0,0,,12,,,59,127
94788,note_on,0,0,0,,3,,,75,127
94907,note_off,119,0,0,,3,,,75,127
94909,note_on,2,0,0,,4,,,76,127
95028,note_off,119,0,0,,4,,,76,127
95029,note_on,1,0,0,,12,,,47,127
95029,note_on,0,0,0,,6,,,78,127
95148,note_off,119,0,0,,6,,,78,127
95150,note_on,2,0,0,,3,,,75,127
95266,note_off,116,0,0,,12,,,59,127
95267,note_off,1,0,0,,12,,,47,127
95268,note_off,1,0,0,,3,,,75,127
95272,note_on,4,0,0,,4,,,40,127
95272,note_on,0,0,0,,4,,,52,127
95272,note_on,0,0,0,,4,,,76,127
95391,note_off,119,0,0,,4,,,76,127
95399,note_on,8,0,0,,3,,,75,127
95514,note_off,115,0,0,,4,,,52,127
95514,note_off,0,0,0,,4,,,40,127
95518,note_off,4,0,0,,3,,,75,127
95524,note_on,6,0,0,,6,,,42,127
95524,note_on,0,0,0,,1,,,73,127
95643,note_off,119,0,0,,1,,,73,127
95651,note_on,8,0,0,,12,,,71,127
95766,note_off,115,0,0,,6,,,42,127
95770,note_off,4,0,0,,12,,,71,127
95778,note_on,8,0,0,,8,,,44,127
95778,note_on,0,0,0,,10,,,69,127
95897,note_off,119,0,0,,10,,,69,127
95905,note_on,8,0,0,,8,,,68,127
96020,note_off,115,0,0,,8,,,44,127
96024,note_off,4,0,0,,8,,,68,127
96032,note_on,8,0,0,,10,,,45,127
96032,note_on,0,0,0,,6,,,66,127
96151,note_off,119,0,0,,6,,,66,127
96159,note_on,8,0,0,,4,,,64,127
96274,note_off,115,0,0,,10,,,45,127
96278,note_off,4,0,0,,4,,,64,127
96286,note_on,8,0,0,,12,,,47,127
96286,note_on,0,0,0,,3,,,63,127
96405,note_off,119,0,0,,3,,,63,127
96413,note_on,8,0,0,,4,,,64,127
96532,note_off,119,0,0,,4,,,64,127
96538,note_on,6,0,0,,12,,,35,127
96538,note_on,0,0,0,,6,,,66,127
96657,note_off,119,0,0,,6,,,66,127
96683,note_on,26,0,0,,3,,,63,127
96773,note_off,90,0,0,,12,,,47,127
96779,note_off,6,0,0,,12,,,35,127
96814,note_off,35,0,0,,3,,,63,127
96829,note_on,15,0,0,,4,,,64,127
96829,note_on,0,0,0,,4,,,40,127
98530,note_off,1701,0,0,,4,,,40,127
98530,note_off,0,0,0,,4,,,64,127
102912,end_of_track,4382,1,0,,,,,,
