tick,type,time,meta,track,program,channel,pitch,tempo,note,velocity
0,copyright,0,1,0,,,,,,
0,program_change,0,0,0,6,0,,,,
0,pitchwheel,0,0,0,,0,0,,,
0,program_change,0,0,0,6,1,,,,
0,pitchwheel,0,0,0,,1,-590,,,
0,program_change,0,0,0,6,2,,,,
0,pitchwheel,0,0,0,,2,-272,,,
0,program_change,0,0,0,6,3,,,,
0,pitchwheel,0,0,0,,3,-353,,,
0,program_change,0,0,0,6,4,,,,
0,pitchwheel,0,0,0,,4,-560,,,
0,program_change,0,0,0,6,5,,,,
0,pitchwheel,0,0,0,,5,-80,,,
0,program_change,0,0,0,6,6,,,,
0,pitchwheel,0,0,0,,6,-625,,,
0,program_change,0,0,0,6,7,,,,
0,pitchwheel,0,0,0,,7,-130,,,
0,program_change,0,0,0,6,8,,,,
0,pitchwheel,0,0,0,,8,-512,,,
0,program_change,0,0,0,6,10,,,,
0,pitchwheel,0,0,0,,10,-464,,,
0,program_change,0,0,0,6,11,,,,
0,pitchwheel,0,0,0,,11,-208,,,
0,program_change,0,0,0,6,12,,,,
0,pitchwheel,0,0,0,,12,-553,,,
0,set_tempo,0,1,0,,,,500000,,
38,note_on,38,0,0,,10,,,45,127
151,note_off,113,0,0,,10,,,45,127
153,note_on,2,0,0,,12,,,47,127
266,note_off,113,0,0,,12,,,47,127
268,note_on,2,0,0,,0,,,48,127
381,note_off,113,0,0,,0,,,48,127
383,note_on,2,0,0,,2,,,50,127
496,note_off,113,0,0,,2,,,50,127
498,note_on,2,0,0,,4,,,52,127
611,note_off,113,0,0,,4,,,52,127
613,note_on,2,0,0,,6,,,54,127
726,note_off,113,0,0,,6,,,54,127
728,note_on,2,0,0,,8,,,56,127
841,note_off,113,0,0,,8,,,56,127
843,note_on,2,0,0,,10,,,57,127
956,note_off,113,0,0,,10,,,57,127
958,note_on,2,0,0,,12,,,59,127
1071,note_off,113,0,0,,12,,,59,127
1073,note_on,2,0,0,,0,,,60,127
1186,note_off,113,0,0,,0,,,60,127
1188,note_on,2,0,0,,2,,,62,127
1301,note_off,113,0,0,,2,,,62,127
1303,note_on,2,0,0,,12,,,59,127
1416,note_off,113,0,0,,12,,,59,127
1418,note_on,2,0,0,,0,,,60,127
1531,note_off,113,0,0,,0,,,60,127
1533,note_on,2,0,0,,10,,,57,127
1646,note_off,113,0,0,,10,,,57,127
1648,note_on,2,0,0,,12,,,59,127
1761,note_off,113,0,0,,12,,,59,127
1763,note_on,2,0,0,,8,,,56,127
1876,note_off,113,0,0,,8,,,56,127
1878,note_on,2,0,0,,10,,,57,127
1878,note_on,0,0,0,,10,,,69,127
1991,note_off,113,0,0,,10,,,69,127
1993,note_on,2,0,0,,12,,,71,127
2106,note_off,113,0,0,,12,,,71,127
2108,note_on,2,0,0,,0,,,72,127
2221,note_off,113,0,0,,0,,,72,127
2223,note_on,2,0,0,,2,,,74,127
2336,note_off,113,0,0,,2,,,74,127
2336,note_off,0,0,0,,10,,,57,127
2338,note_on,2,0,0,,0,,,48,127
2338,note_on,0,0,0,,4,,,76,127
2451,note_off,113,0,0,,4,,,76,127
2453,note_on,2,0,0,,6,,,78,127
2566,note_off,113,0,0,,6,,,78,127
2568,note_on,2,0,0,,8,,,80,127
2681,note_off,113,0,0,,8,,,80,127
2683,note_on,2,0,0,,10,,,81,127
2796,note_off,113,0,0,,10,,,81,127
2796,note_off,0,0,0,,0,,,48,127
2798,note_on,2,0,0,,2,,,50,127
2798,note_on,0,0,0,,12,,,83,127
2911,note_off,113,0,0,,12,,,83,127
2913,note_on,2,0,0,,0,,,84,127
3026,note_off,113,0,0,,0,,,84,127
3028,note_on,2,0,0,,2,,,86,127
3141,note_off,113,0,0,,2,,,86,127
3143,note_on,2,0,0,,12,,,83,127
3256,note_off,113,0,0,,12,,,83,127
3256,note_off,0,0,0,,2,,,50,127
3258,note_on,2,0,0,,4,,,52,127
3258,note_on,0,0,0,,0,,,84,127
3371,note_off,113,0,0,,0,,,84,127
3373,note_on,2,0,0,,10,,,81,127
3486,note_off,113,0,0,,10,,,81,127
3488,note_on,2,0,0,,12,,,83,127
3601,note_off,113,0,0,,12,,,83,127
3603,note_on,2,0,0,,8,,,80,127
3716,note_off,113,0,0,,8,,,80,127
3716,note_off,0,0,0,,4,,,52,127
3718,note_on,2,0,0,,10,,,45,127
3718,note_on,0,0,0,,10,,,81,127
3831,note_off,113,0,0,,10,,,45,127
3833,note_on,2,0,0,,0,,,48,127
3946,note_off,113,0,0,,0,,,48,127
3948,note_on,2,0,0,,4,,,52,127
4061,note_off,113,0,0,,4,,,52,127
4063,note_on,2,0,0,,10,,,57,127
4173,note_off,110,0,0,,10,,,81,127
4175,note_off,2,0,0,,10,,,57,127
4177,note_on,2,0,0,,0,,,60,127
4292,note_on,115,0,0,,4,,,76,127
4405,note_off,113,0,0,,4,,,76,127
4405,note_off,0,0,0,,0,,,60,127
4407,note_on,2,0,0,,12,,,59,127
4407,note_on,0,0,0,,2,,,74,127
4520,note_off,113,0,0,,2,,,74,127
4522,note_on,2,0,0,,12,,,71,127
4635,note_off,113,0,0,,12,,,71,127
4635,note_off,0,0,0,,12,,,59,127
4637,note_on,2,0,0,,10,,,45,127
4637,note_on,0,0,0,,12,,,71,127
4750,note_off,113,0,0,,10,,,45,127
4752,note_on,2,0,0,,0,,,48,127
4865,note_off,113,0,0,,0,,,48,127
4865,note_off,0,0,0,,12,,,71,127
4867,note_on,2,0,0,,4,,,52,127
4867,note_on,0,0,0,,0,,,72,127
4980,note_off,113,0,0,,4,,,52,127
4982,note_on,2,0,0,,10,,,57,127
5095,note_off,113,0,0,,10,,,57,127
5095,note_off,0,0,0,,0,,,72,127
5097,note_on,2,0,0,,4,,,64,127
5212,note_on,115,0,0,,2,,,74,127
5325,note_off,113,0,0,,2,,,74,127
5325,note_off,0,0,0,,4,,,64,127
5327,note_on,2,0,0,,2,,,62,127
5327,note_on,0,0,0,,12,,,71,127
5440,note_off,113,0,0,,12,,,71,127
5442,note_on,2,0,0,,8,,,68,127
5555,note_off,113,0,0,,8,,,68,127
5555,note_off,0,0,0,,2,,,62,127
5557,note_on,2,0,0,,10,,,45,127
5557,note_on,0,0,0,,8,,,68,127
5670,note_off,113,0,0,,10,,,45,127
5672,note_on,2,0,0,,0,,,48,127
5785,note_off,113,0,0,,0,,,48,127
5785,note_off,0,0,0,,8,,,68,127
5787,note_on,2,0,0,,4,,,52,127
5787,note_on,0,0,0,,10,,,69,127
5900,note_off,113,0,0,,4,,,52,127
5902,note_on,2,0,0,,10,,,57,127
6015,note_off,113,0,0,,10,,,57,127
6015,note_off,0,0,0,,10,,,69,127
6017,note_on,2,0,0,,0,,,60,127
6132,note_on,115,0,0,,4,,,76,127
6245,note_off,113,0,0,,4,,,76,127
6245,note_off,0,0,0,,0,,,60,127
6247,note_on,2,0,0,,12,,,59,127
6247,note_on,0,0,0,,2,,,74,127
6360,note_off,113,0,0,,2,,,74,127
6362,note_on,2,0,0,,12,,,71,127
6475,note_off,113,0,0,,12,,,71,127
6475,note_off,0,0,0,,12,,,59,127
6477,note_on,2,0,0,,10,,,45,127
6477,note_on,0,0,0,,12,,,71,127
6590,note_off,113,0,0,,10,,,45,127
6592,note_on,2,0,0,,0,,,48,127
6705,note_off,113,0,0,,0,,,48,127
6705,note_off,0,0,0,,12,,,71,127
6707,note_on,2,0,0,,4,,,52,127
6707,note_on,0,0,0,,0,,,72,127
6820,note_off,113,0,0,,4,,,52,127
6822,note_on,2,0,0,,10,,,57,127
6935,note_off,113,0,0,,10,,,57,127
6935,note_off,0,0,0,,0,,,72,127
6937,note_on,2,0,0,,4,,,64,127
7052,note_on,115,0,0,,2,,,74,127
7165,note_off,113,0,0,,2,,,74,127
7165,note_off,0,0,0,,4,,,64,127
7167,note_on,2,0,0,,2,,,62,127
7167,note_on,0,0,0,,12,,,71,127
7280,note_off,113,0,0,,12,,,71,127
7282,note_on,2,0,0,,8,,,68,127
7395,note_off,113,0,0,,8,,,68,127
7395,note_off,0,0,0,,2,,,62,127
7397,note_on,2,0,0,,0,,,60,127
7397,note_on,0,0,0,,8,,,68,127
7510,note_off,113,0,0,,0,,,60,127
7512,note_on,2,0,0,,10,,,57,127
7625,note_off,113,0,0,,10,,,57,127
7625,note_off,0,0,0,,8,,,68,127
7627,note_on,2,0,0,,0,,,60,127
7627,note_on,0,0,0,,10,,,69,127
7740,note_off,113,0,0,,0,,,60,127
7742,note_on,2,0,0,,4,,,64,127
7855,note_off,113,0,0,,4,,,64,127
7855,note_off,0,0,0,,10,,,69,127
7857,note_on,2,0,0,,10,,,69,127
7972,note_on,115,0,0,,4,,,64,127
8085,note_off,113,0,0,,4,,,64,127
8087,note_on,2,0,0,,5,,,65,127
8200,note_off,113,0,0,,5,,,65,127
8202,note_on,2,0,0,,2,,,62,127
8312,note_off,110,0,0,,10,,,69,127
8314,note_off,2,0,0,,2,,,62,127
8316,note_on,2,0,0,,4,,,64,127
8429,note_off,113,0,0,,4,,,64,127
8431,note_on,2,0,0,,12,,,59,127
8544,note_off,113,0,0,,12,,,59,127
8546,note_on,2,0,0,,0,,,60,127
8659,note_off,113,0,0,,0,,,60,127
8661,note_on,2,0,0,,8,,,56,127
8774,note_off,113,0,0,,8,,,56,127
8776,note_on,2,0,0,,10,,,57,127
8891,note_on,115,0,0,,4,,,52,127
9004,note_off,113,0,0,,4,,,52,127
9006,note_on,2,0,0,,5,,,53,127
9119,note_off,113,0,0,,5,,,53,127
9121,note_on,2,0,0,,2,,,50,127
9231,note_off,110,0,0,,10,,,57,127
9233,note_off,2,0,0,,2,,,50,127
9235,note_on,2,0,0,,4,,,52,127
9348,note_off,113,0,0,,4,,,52,127
9350,note_on,2,0,0,,12,,,47,127
9463,note_off,113,0,0,,12,,,47,127
9465,note_on,2,0,0,,0,,,48,127
9578,note_off,113,0,0,,0,,,48,127
9580,note_on,2,0,0,,8,,,44,127
9693,note_off,113,0,0,,8,,,44,127
9695,note_on,2,0,0,,10,,,45,127
9808,note_off,113,0,0,,10,,,45,127
9810,note_on,2,0,0,,4,,,40,127
9923,note_off,113,0,0,,4,,,40,127
9925,note_on,2,0,0,,7,,,43,127
9980,note_off,55,0,0,,7,,,43,127
9982,note_on,2,0,0,,5,,,41,127
10037,note_off,55,0,0,,5,,,41,127
10039,note_on,2,0,0,,4,,,40,127
10094,note_off,55,0,0,,4,,,40,127
10096,note_on,2,0,0,,5,,,41,127
10151,note_off,55,0,0,,5,,,41,127
10153,note_on,2,0,0,,4,,,40,127
10268,note_on,115,0,0,,4,,,76,127
10381,note_off,113,0,0,,4,,,76,127
10383,note_on,2,0,0,,12,,,71,127
10496,note_off,113,0,0,,12,,,71,127
10498,note_on,2,0,0,,8,,,68,127
10611,note_off,113,0,0,,8,,,68,127
10613,note_on,2,0,0,,4,,,64,127
10726,note_off,113,0,0,,4,,,64,127
10728,note_on,2,0,0,,2,,,74,127
10841,note_off,113,0,0,,2,,,74,127
10842,note_off,1,0,0,,4,,,40,127
10843,note_on,1,0,0,,0,,,72,127
10956,note_off,113,0,0,,0,,,72,127
10958,note_on,2,0,0,,12,,,71,127
11071,note_off,113,0,0,,12,,,71,127
11073,note_on,2,0,0,,12,,,71,127
11188,note_on,115,0,0,,10,,,57,127
11301,note_off,113,0,0,,10,,,57,127
11301,note_off,0,0,0,,12,,,71,127
11303,note_on,2,0,0,,0,,,60,127
11303,note_on,0,0,0,,2,,,74,127
11358,note_off,55,0,0,,2,,,74,127
11360,note_on,2,0,0,,0,,,72,127
11415,note_off,55,0,0,,0,,,72,127
11415,note_off,0,0,0,,0,,,60,127
11417,note_on,2,0,0,,4,,,64,127
11417,note_on,0,0,0,,2,,,74,127
11472,note_off,55,0,0,,2,,,74,127
11474,note_on,2,0,0,,0,,,72,127
11529,note_off,55,0,0,,4,,,64,127
11531,note_on,2,0,0,,10,,,69,127
11587,note_off,56,0,0,,0,,,72,127
11643,note_off,56,0,0,,10,,,69,127
11645,note_on,2,0,0,,0,,,72,127
11645,note_on,0,0,0,,10,,,81,127
11758,note_off,113,0,0,,0,,,72,127
11760,note_on,2,0,0,,12,,,71,127
11873,note_off,113,0,0,,10,,,81,127
11875,note_on,2,0,0,,12,,,83,127
11988,note_off,113,0,0,,12,,,83,127
11988,note_off,0,0,0,,12,,,71,127
11990,note_on,2,0,0,,5,,,53,127
11990,note_on,0,0,0,,12,,,83,127
12103,note_off,113,0,0,,5,,,53,127
12105,note_on,2,0,0,,10,,,57,127
12160,note_off,55,0,0,,12,,,83,127
12162,note_on,2,0,0,,2,,,86,127
12217,note_off,55,0,0,,2,,,86,127
12217,note_off,0,0,0,,10,,,57,127
12219,note_on,2,0,0,,0,,,60,127
12219,note_on,0,0,0,,0,,,84,127
12274,note_off,55,0,0,,0,,,84,127
12276,note_on,2,0,0,,2,,,86,127
12331,note_off,55,0,0,,2,,,86,127
12331,note_off,0,0,0,,0,,,60,127
12333,note_on,2,0,0,,5,,,65,127
12333,note_on,0,0,0,,0,,,84,127
12446,note_off,113,0,0,,5,,,65,127
12448,note_on,2,0,0,,10,,,69,127
12506,note_off,58,0,0,,0,,,84,127
12564,note_on,58,0,0,,5,,,77,127
12677,note_off,113,0,0,,10,,,69,127
12679,note_on,2,0,0,,7,,,67,127
12792,note_off,113,0,0,,5,,,77,127
12794,note_on,2,0,0,,7,,,79,127
12907,note_off,113,0,0,,7,,,79,127
12907,note_off,0,0,0,,7,,,67,127
12909,note_on,2,0,0,,2,,,50,127
12909,note_on,0,0,0,,7,,,79,127
13022,note_off,113,0,0,,2,,,50,127
13024,note_on,2,0,0,,5,,,53,127
13079,note_off,55,0,0,,7,,,79,127
13081,note_on,2,0,0,,12,,,83,127
13136,note_off,55,0,0,,12,,,83,127
13136,note_off,0,0,0,,5,,,53,127
13138,note_on,2,0,0,,10,,,57,127
13138,note_on,0,0,0,,10,,,81,127
13193,note_off,55,0,0,,10,,,81,127
13195,note_on,2,0,0,,12,,,83,127
13250,note_off,55,0,0,,12,,,83,127
13250,note_off,0,0,0,,10,,,57,127
13252,note_on,2,0,0,,2,,,62,127
13252,note_on,0,0,0,,10,,,81,127
13365,note_off,113,0,0,,2,,,62,127
13367,note_on,2,0,0,,5,,,65,127
13425,note_off,58,0,0,,10,,,81,127
13483,note_on,58,0,0,,2,,,74,127
13596,note_off,113,0,0,,5,,,65,127
13598,note_on,2,0,0,,4,,,64,127
13711,note_off,113,0,0,,2,,,74,127
13713,note_on,2,0,0,,4,,,76,127
13826,note_off,113,0,0,,4,,,76,127
13826,note_off,0,0,0,,4,,,64,127
13828,note_on,2,0,0,,12,,,47,127
13828,note_on,0,0,0,,4,,,76,127
13941,note_off,113,0,0,,12,,,47,127
13943,note_on,2,0,0,,2,,,50,127
13998,note_off,55,0,0,,4,,,76,127
14000,note_on,2,0,0,,7,,,79,127
14055,note_off,55,0,0,,7,,,79,127
14055,note_off,0,0,0,,2,,,50,127
14057,note_on,2,0,0,,5,,,53,127
14057,note_on,0,0,0,,5,,,77,127
14112,note_off,55,0,0,,5,,,77,127
14114,note_on,2,0,0,,7,,,79,127
14169,note_off,55,0,0,,7,,,79,127
14169,note_off,0,0,0,,5,,,53,127
14171,note_on,2,0,0,,12,,,59,127
14171,note_on,0,0,0,,5,,,77,127
14284,note_off,113,0,0,,12,,,59,127
14286,note_on,2,0,0,,2,,,62,127
14344,note_off,58,0,0,,5,,,77,127
14402,note_on,58,0,0,,12,,,71,127
14515,note_off,113,0,0,,2,,,62,127
14517,note_on,2,0,0,,0,,,60,127
14630,note_off,113,0,0,,12,,,71,127
14632,note_on,2,0,0,,0,,,72,127
14745,note_off,113,0,0,,0,,,72,127
14745,note_off,0,0,0,,0,,,60,127
14747,note_on,2,0,0,,7,,,43,127
14747,note_on,0,0,0,,0,,,72,127
14860,note_off,113,0,0,,7,,,43,127
14862,note_on,2,0,0,,12,,,47,127
14917,note_off,55,0,0,,0,,,72,127
14919,note_on,2,0,0,,4,,,76,127
14974,note_off,55,0,0,,4,,,76,127
14974,note_off,0,0,0,,12,,,47,127
14976,note_on,2,0,0,,2,,,50,127
14976,note_on,0,0,0,,2,,,74,127
15031,note_off,55,0,0,,2,,,74,127
15033,note_on,2,0,0,,4,,,76,127
15088,note_off,55,0,0,,4,,,76,127
15088,note_off,0,0,0,,2,,,50,127
15090,note_on,2,0,0,,7,,,55,127
15090,note_on,0,0,0,,2,,,74,127
15203,note_off,113,0,0,,7,,,55,127
15205,note_on,2,0,0,,7,,,67,127
15263,note_off,58,0,0,,2,,,74,127
15321,note_on,58,0,0,,7,,,79,127
15434,note_off,113,0,0,,7,,,79,127
15434,note_off,0,0,0,,7,,,67,127
15436,note_on,2,0,0,,7,,,43,127
15436,note_on,0,0,0,,2,,,74,127
15549,note_off,113,0,0,,2,,,74,127
15551,note_on,2,0,0,,5,,,77,127
15664,note_off,113,0,0,,5,,,77,127
15664,note_off,0,0,0,,7,,,43,127
15666,note_on,2,0,0,,0,,,48,127
15666,note_on,0,0,0,,5,,,77,127
15721,note_off,55,0,0,,5,,,77,127
15723,note_on,2,0,0,,4,,,76,127
15778,note_off,55,0,0,,4,,,76,127
15778,note_off,0,0,0,,0,,,48,127
15780,note_on,2,0,0,,4,,,52,127
15780,note_on,0,0,0,,5,,,77,127
15835,note_off,55,0,0,,5,,,77,127
15837,note_on,2,0,0,,4,,,76,127
15892,note_off,55,0,0,,4,,,76,127
15892,note_off,0,0,0,,4,,,52,127
15894,note_on,2,0,0,,7,,,55,127
15894,note_on,0,0,0,,5,,,77,127
15949,note_off,55,0,0,,5,,,77,127
15951,note_on,2,0,0,,4,,,76,127
16006,note_off,55,0,0,,4,,,76,127
16006,note_off,0,0,0,,7,,,55,127
16008,note_on,2,0,0,,0,,,60,127
16008,note_on,0,0,0,,5,,,77,127
16063,note_off,55,0,0,,5,,,77,127
16065,note_on,2,0,0,,4,,,76,127
16120,note_off,55,0,0,,0,,,60,127
16122,note_on,2,0,0,,0,,,72,127
16178,note_off,56,0,0,,4,,,76,127
16237,note_on,59,0,0,,0,,,84,127
16350,note_off,113,0,0,,0,,,84,127
16350,note_off,0,0,0,,0,,,72,127
16352,note_on,2,0,0,,0,,,48,127
16352,note_on,0,0,0,,7,,,79,127
16465,note_off,113,0,0,,7,,,79,127
16467,note_on,2,0,0,,4,,,76,127
16580,note_off,113,0,0,,4,,,76,127
16580,note_off,0,0,0,,0,,,48,127
16582,note_on,2,0,0,,7,,,43,127
16582,note_on,0,0,0,,4,,,76,127
16637,note_off,55,0,0,,4,,,76,127
16639,note_on,2,0,0,,2,,,74,127
16694,note_off,55,0,0,,2,,,74,127
16694,note_off,0,0,0,,7,,,43,127
16696,note_on,2,0,0,,12,,,47,127
16696,note_on,0,0,0,,4,,,76,127
16751,note_off,55,0,0,,4,,,76,127
16753,note_on,2,0,0,,2,,,74,127
16808,note_off,55,0,0,,2,,,74,127
16808,note_off,0,0,0,,12,,,47,127
16810,note_on,2,0,0,,2,,,50,127
16810,note_on,0,0,0,,4,,,76,127
16865,note_off,55,0,0,,4,,,76,127
16867,note_on,2,0,0,,2,,,74,127
16922,note_off,55,0,0,,2,,,74,127
16922,note_off,0,0,0,,2,,,50,127
16924,note_on,2,0,0,,7,,,55,127
16924,note_on,0,0,0,,4,,,76,127
16979,note_off,55,0,0,,4,,,76,127
16981,note_on,2,0,0,,2,,,74,127
17036,note_off,55,0,0,,7,,,55,127
17038,note_on,2,0,0,,7,,,67,127
17094,note_off,56,0,0,,2,,,74,127
17153,note_on,59,0,0,,7,,,79,127
17266,note_off,113,0,0,,7,,,79,127
17266,note_off,0,0,0,,7,,,67,127
17268,note_on,2,0,0,,7,,,43,127
17268,note_on,0,0,0,,2,,,74,127
17381,note_off,113,0,0,,2,,,74,127
17383,note_on,2,0,0,,5,,,77,127
17496,note_off,113,0,0,,5,,,77,127
17496,note_off,0,0,0,,7,,,43,127
17498,note_on,2,0,0,,0,,,36,127
17498,note_on,0,0,0,,5,,,77,127
17553,note_off,55,0,0,,5,,,77,127
17555,note_on,2,0,0,,4,,,76,127
17610,note_off,55,0,0,,4,,,76,127
17610,note_off,0,0,0,,0,,,36,127
17612,note_on,2,0,0,,4,,,40,127
17612,note_on,0,0,0,,5,,,77,127
17667,note_off,55,0,0,,5,,,77,127
17669,note_on,2,0,0,,4,,,76,127
17724,note_off,55,0,0,,4,,,76,127
17724,note_off,0,0,0,,4,,,40,127
17726,note_on,2,0,0,,7,,,43,127
17726,note_on,0,0,0,,5,,,77,127
17781,note_off,55,0,0,,5,,,77,127
17783,note_on,2,0,0,,4,,,76,127
17838,note_off,55,0,0,,4,,,76,127
17838,note_off,0,0,0,,7,,,43,127
17840,note_on,2,0,0,,0,,,48,127
17840,note_on,0,0,0,,5,,,77,127
17895,note_off,55,0,0,,5,,,77,127
17897,note_on,2,0,0,,4,,,76,127
17952,note_off,55,0,0,,0,,,48,127
17954,note_on,2,0,0,,0,,,60,127
18010,note_off,56,0,0,,4,,,76,127
18069,note_on,59,0,0,,7,,,79,127
18182,note_off,113,0,0,,7,,,79,127
18182,note_off,0,0,0,,0,,,60,127
18184,note_on,2,0,0,,0,,,36,127
18184,note_on,0,0,0,,0,,,72,127
18297,note_off,113,0,0,,0,,,72,127
18299,note_on,2,0,0,,7,,,79,127
18412,note_off,113,0,0,,7,,,79,127
18412,note_off,0,0,0,,0,,,36,127
18414,note_on,2,0,0,,5,,,41,127
18414,note_on,0,0,0,,7,,,79,127
18527,note_off,113,0,0,,5,,,41,127
18529,note_on,2,0,0,,10,,,45,127
18642,note_off,113,0,0,,10,,,45,127
18642,note_off,0,0,0,,7,,,79,127
18644,note_on,2,0,0,,0,,,48,127
18644,note_on,0,0,0,,10,,,81,127
18757,note_off,113,0,0,,0,,,48,127
18759,note_on,2,0,0,,5,,,53,127
18872,note_off,113,0,0,,5,,,53,127
18872,note_off,0,0,0,,10,,,81,127
18874,note_on,2,0,0,,5,,,65,127
18989,note_on,115,0,0,,10,,,81,127
19102,note_off,113,0,0,,10,,,81,127
19102,note_off,0,0,0,,5,,,65,127
19104,note_on,2,0,0,,5,,,41,127
19104,note_on,0,0,0,,0,,,72,127
19217,note_off,113,0,0,,0,,,72,127
19219,note_on,2,0,0,,12,,,83,127
19332,note_off,113,0,0,,12,,,83,127
19332,note_off,0,0,0,,5,,,41,127
19334,note_on,2,0,0,,4,,,40,127
19334,note_on,0,0,0,,12,,,83,127
19447,note_off,113,0,0,,4,,,40,127
19449,note_on,2,0,0,,7,,,43,127
19562,note_off,113,0,0,,7,,,43,127
19562,note_off,0,0,0,,12,,,83,127
19564,note_on,2,0,0,,0,,,48,127
19564,note_on,0,0,0,,0,,,84,127
19677,note_off,113,0,0,,0,,,48,127
19679,note_on,2,0,0,,4,,,52,127
19792,note_off,113,0,0,,4,,,52,127
19792,note_off,0,0,0,,0,,,84,127
19794,note_on,2,0,0,,4,,,64,127
19909,note_on,115,0,0,,0,,,84,127
20022,note_off,113,0,0,,0,,,84,127
20022,note_off,0,0,0,,4,,,64,127
20024,note_on,2,0,0,,4,,,40,127
20024,note_on,0,0,0,,0,,,84,127
20137,note_off,113,0,0,,0,,,84,127
20139,note_on,2,0,0,,4,,,76,127
20252,note_off,113,0,0,,4,,,76,127
20252,note_off,0,0,0,,4,,,40,127
20254,note_on,2,0,0,,5,,,41,127
20254,note_on,0,0,0,,2,,,74,127
20367,note_off,113,0,0,,2,,,74,127
20369,note_on,2,0,0,,10,,,81,127
20482,note_off,113,0,0,,10,,,81,127
20482,note_off,0,0,0,,5,,,41,127
20484,note_on,2,0,0,,5,,,53,127
20484,note_on,0,0,0,,10,,,81,127
20597,note_off,113,0,0,,10,,,81,127
20599,note_on,2,0,0,,0,,,72,127
20712,note_off,113,0,0,,0,,,72,127
20712,note_off,0,0,0,,5,,,53,127
20714,note_on,2,0,0,,7,,,55,127
20714,note_on,0,0,0,,0,,,72,127
20827,note_off,113,0,0,,0,,,72,127
20829,note_on,2,0,0,,7,,,79,127
20942,note_off,113,0,0,,7,,,79,127
20942,note_off,0,0,0,,7,,,55,127
20944,note_on,2,0,0,,7,,,43,127
20944,note_on,0,0,0,,7,,,79,127
21057,note_off,113,0,0,,7,,,79,127
21059,note_on,2,0,0,,12,,,71,127
21172,note_off,113,0,0,,12,,,71,127
21172,note_off,0,0,0,,7,,,43,127
21174,note_on,2,0,0,,0,,,48,127
21174,note_on,0,0,0,,2,,,74,127
21229,note_off,55,0,0,,2,,,74,127
21231,note_on,2,0,0,,0,,,72,127
21286,note_off,55,0,0,,0,,,72,127
21286,note_off,0,0,0,,0,,,48,127
21288,note_on,2,0,0,,4,,,52,127
21288,note_on,0,0,0,,2,,,74,127
21343,note_off,55,0,0,,2,,,74,127
21345,note_on,2,0,0,,0,,,72,127
21400,note_off,55,0,0,,0,,,72,127
21400,note_off,0,0,0,,4,,,52,127
21402,note_on,2,0,0,,7,,,55,127
21402,note_on,0,0,0,,2,,,74,127
21457,note_off,55,0,0,,2,,,74,127
21459,note_on,2,0,0,,0,,,72,127
21514,note_off,55,0,0,,7,,,55,127
21516,note_on,2,0,0,,0,,,60,127
21578,note_off,62,0,0,,0,,,72,127
21628,note_off,50,0,0,,0,,,60,127
21630,note_on,2,0,0,,0,,,72,127
21745,note_on,115,0,0,,4,,,76,127
21858,note_off,113,0,0,,4,,,76,127
21858,note_off,0,0,0,,0,,,72,127
21860,note_on,2,0,0,,0,,,48,127
21860,note_on,0,0,0,,7,,,79,127
21973,note_off,113,0,0,,7,,,79,127
21975,note_on,2,0,0,,0,,,72,127
22088,note_off,113,0,0,,0,,,72,127
22088,note_off,0,0,0,,0,,,48,127
22090,note_on,2,0,0,,7,,,43,127
22090,note_on,0,0,0,,0,,,72,127
22203,note_off,113,0,0,,7,,,43,127
22205,note_on,2,0,0,,12,,,47,127
22318,note_off,113,0,0,,12,,,47,127
22318,note_off,0,0,0,,0,,,72,127
22320,note_on,2,0,0,,2,,,50,127
22320,note_on,0,0,0,,2,,,74,127
22433,note_off,113,0,0,,2,,,50,127
22435,note_on,2,0,0,,7,,,55,127
22548,note_off,113,0,0,,7,,,55,127
22548,note_off,0,0,0,,2,,,74,127
22550,note_on,2,0,0,,7,,,67,127
22665,note_on,115,0,0,,7,,,79,127
22778,note_off,113,0,0,,7,,,79,127
22778,note_off,0,0,0,,7,,,67,127
22780,note_on,2,0,0,,7,,,43,127
22780,note_on,0,0,0,,5,,,77,127
22893,note_off,113,0,0,,5,,,77,127
22895,note_on,2,0,0,,2,,,74,127
23008,note_off,113,0,0,,2,,,74,127
23008,note_off,0,0,0,,7,,,43,127
23010,note_on,2,0,0,,0,,,36,127
23010,note_on,0,0,0,,2,,,74,127
23123,note_off,113,0,0,,0,,,36,127
23125,note_on,2,0,0,,4,,,40,127
23238,note_off,113,0,0,,4,,,40,127
23238,note_off,0,0,0,,2,,,74,127
23240,note_on,2,0,0,,7,,,43,127
23240,note_on,0,0,0,,4,,,76,127
23353,note_off,113,0,0,,7,,,43,127
23355,note_on,2,0,0,,0,,,48,127
23468,note_off,113,0,0,,0,,,48,127
23468,note_off,0,0,0,,4,,,76,127
23470,note_on,2,0,0,,0,,,60,127
23585,note_on,115,0,0,,7,,,79,127
23698,note_off,113,0,0,,7,,,79,127
23698,note_off,0,0,0,,0,,,60,127
23700,note_on,2,0,0,,0,,,36,127
23700,note_on,0,0,0,,7,,,79,127
23813,note_off,113,0,0,,7,,,79,127
23815,note_on,2,0,0,,7,,,67,127
23928,note_off,113,0,0,,7,,,67,127
23928,note_off,0,0,0,,0,,,36,127
23930,note_on,2,0,0,,5,,,41,127
23930,note_on,0,0,0,,7,,,67,127
24043,note_off,113,0,0,,5,,,41,127
24045,note_on,2,0,0,,10,,,45,127
24158,note_off,113,0,0,,10,,,45,127
24158,note_off,0,0,0,,7,,,67,127
24160,note_on,2,0,0,,0,,,48,127
24160,note_on,0,0,0,,10,,,69,127
24273,note_off,113,0,0,,0,,,48,127
24275,note_on,2,0,0,,5,,,53,127
24388,note_off,113,0,0,,5,,,53,127
24390,note_on,2,0,0,,5,,,65,127
24503,note_off,113,0,0,,10,,,69,127
24505,note_on,2,0,0,,10,,,81,127
24618,note_off,113,0,0,,10,,,81,127
24618,note_off,0,0,0,,5,,,65,127
24620,note_on,2,0,0,,5,,,41,127
24620,note_on,0,0,0,,10,,,81,127
24733,note_off,113,0,0,,10,,,81,127
24735,note_on,2,0,0,,12,,,83,127
24848,note_off,113,0,0,,12,,,83,127
24848,note_off,0,0,0,,5,,,41,127
24850,note_on,2,0,0,,4,,,40,127
24850,note_on,0,0,0,,12,,,83,127
24963,note_off,113,0,0,,4,,,40,127
24965,note_on,2,0,0,,7,,,43,127
25078,note_off,113,0,0,,7,,,43,127
25078,note_off,0,0,0,,12,,,83,127
25080,note_on,2,0,0,,0,,,48,127
25080,note_on,0,0,0,,0,,,84,127
25193,note_off,113,0,0,,0,,,48,127
25195,note_on,2,0,0,,4,,,52,127
25308,note_off,113,0,0,,4,,,52,127
25308,note_off,0,0,0,,0,,,84,127
25310,note_on,2,0,0,,0,,,60,127
25425,note_on,115,0,0,,0,,,84,127
25538,note_off,113,0,0,,0,,,84,127
25538,note_off,0,0,0,,0,,,60,127
25540,note_on,2,0,0,,4,,,40,127
25540,note_on,0,0,0,,0,,,84,127
25653,note_off,113,0,0,,0,,,84,127
25655,note_on,2,0,0,,4,,,76,127
25768,note_off,113,0,0,,4,,,76,127
25768,note_off,0,0,0,,4,,,40,127
25770,note_on,2,0,0,,5,,,41,127
25770,note_on,0,0,0,,2,,,74,127
25883,note_off,113,0,0,,2,,,74,127
25885,note_on,2,0,0,,10,,,81,127
25998,note_off,113,0,0,,10,,,81,127
25998,note_off,0,0,0,,5,,,41,127
26000,note_on,2,0,0,,5,,,53,127
26000,note_on,0,0,0,,10,,,81,127
26113,note_off,113,0,0,,10,,,81,127
26115,note_on,2,0,0,,0,,,72,127
26228,note_off,113,0,0,,0,,,72,127
26228,note_off,0,0,0,,5,,,53,127
26230,note_on,2,0,0,,7,,,55,127
26230,note_on,0,0,0,,0,,,72,127
26343,note_off,113,0,0,,0,,,72,127
26345,note_on,2,0,0,,7,,,79,127
26458,note_off,113,0,0,,7,,,79,127
26458,note_off,0,0,0,,7,,,55,127
26460,note_on,2,0,0,,7,,,43,127
26460,note_on,0,0,0,,7,,,79,127
26573,note_off,113,0,0,,7,,,79,127
26575,note_on,2,0,0,,12,,,71,127
26688,note_off,113,0,0,,12,,,71,127
26688,note_off,0,0,0,,7,,,43,127
26690,note_on,2,0,0,,0,,,48,127
26690,note_on,0,0,0,,0,,,72,127
26803,note_off,113,0,0,,0,,,72,127
26805,note_on,2,0,0,,4,,,76,127
26918,note_off,113,0,0,,4,,,76,127
26920,note_on,2,0,0,,7,,,79,127
27033,note_off,113,0,0,,7,,,79,127
27035,note_on,2,0,0,,0,,,84,127
27148,note_off,113,0,0,,0,,,84,127
27148,note_off,0,0,0,,0,,,48,127
27150,note_on,2,0,0,,4,,,52,127
27150,note_on,0,0,0,,0,,,72,127
27265,note_on,115,0,0,,0,,,60,127
27378,note_off,113,0,0,,0,,,72,127
27378,note_off,0,0,0,,4,,,52,127
27380,note_on,2,0,0,,2,,,50,127
27380,note_on,0,0,0,,4,,,76,127
27435,note_off,55,0,0,,4,,,76,127
27437,note_on,2,0,0,,2,,,74,127
27492,note_off,55,0,0,,2,,,74,127
27492,note_off,0,0,0,,0,,,60,127
27494,note_on,2,0,0,,12,,,59,127
27494,note_on,0,0,0,,0,,,72,127
27549,note_off,55,0,0,,0,,,72,127
27551,note_on,2,0,0,,2,,,74,127
27606,note_off,55,0,0,,2,,,74,127
27606,note_off,0,0,0,,12,,,59,127
27606,note_off,0,0,0,,2,,,50,127
27608,note_on,2,0,0,,0,,,48,127
27608,note_on,0,0,0,,0,,,60,127
27608,note_on,0,0,0,,4,,,76,127
27721,note_off,113,0,0,,4,,,76,127
27723,note_on,2,0,0,,7,,,79,127
27836,note_off,113,0,0,,7,,,79,127
27838,note_on,2,0,0,,0,,,84,127
27951,note_off,113,0,0,,0,,,84,127
27953,note_on,2,0,0,,4,,,88,127
28066,note_off,113,0,0,,4,,,88,127
28066,note_off,0,0,0,,0,,,60,127
28066,note_off,0,0,0,,0,,,48,127
28068,note_on,2,0,0,,4,,,52,127
28068,note_on,0,0,0,,0,,,72,127
28183,note_on,115,0,0,,0,,,60,127
28296,note_off,113,0,0,,0,,,72,127
28296,note_off,0,0,0,,4,,,52,127
28298,note_on,2,0,0,,2,,,50,127
28298,note_on,0,0,0,,4,,,76,127
28353,note_off,55,0,0,,4,,,76,127
28355,note_on,2,0,0,,2,,,74,127
28410,note_off,55,0,0,,2,,,74,127
28410,note_off,0,0,0,,0,,,60,127
28412,note_on,2,0,0,,12,,,59,127
28412,note_on,0,0,0,,0,,,72,127
28467,note_off,55,0,0,,0,,,72,127
28469,note_on,2,0,0,,2,,,74,127
28524,note_off,55,0,0,,2,,,74,127
28524,note_off,0,0,0,,12,,,59,127
28524,note_off,0,0,0,,2,,,50,127
28526,note_on,2,0,0,,0,,,60,127
28526,note_on,0,0,0,,0,,,48,127
28526,note_on,0,0,0,,4,,,76,127
28639,note_off,113,0,0,,4,,,76,127
28641,note_on,2,0,0,,7,,,79,127
28754,note_off,113,0,0,,7,,,79,127
28756,note_on,2,0,0,,0,,,84,127
28869,note_off,113,0,0,,0,,,84,127
28871,note_on,2,0,0,,4,,,88,127
28984,note_off,113,0,0,,4,,,88,127
28984,note_off,0,0,0,,0,,,48,127
28984,note_off,0,0,0,,0,,,60,127
28986,note_on,2,0,0,,4,,,52,127
28986,note_on,0,0,0,,0,,,72,127
29101,note_on,115,0,0,,0,,,60,127
29214,note_off,113,0,0,,0,,,72,127
29214,note_off,0,0,0,,4,,,52,127
29216,note_on,2,0,0,,2,,,50,127
29216,note_on,0,0,0,,4,,,76,127
29271,note_off,55,0,0,,4,,,76,127
29273,note_on,2,0,0,,2,,,74,127
29328,note_off,55,0,0,,2,,,74,127
29328,note_off,0,0,0,,0,,,60,127
29330,note_on,2,0,0,,12,,,59,127
29330,note_on,0,0,0,,0,,,72,127
29385,note_off,55,0,0,,0,,,72,127
29387,note_on,2,0,0,,2,,,74,127
29442,note_off,55,0,0,,2,,,74,127
29442,note_off,0,0,0,,12,,,59,127
29442,note_off,0,0,0,,2,,,50,127
29444,note_on,2,0,0,,0,,,48,127
29444,note_on,0,0,0,,4,,,76,127
29557,note_off,113,0,0,,4,,,76,127
29559,note_on,2,0,0,,7,,,79,127
29672,note_off,113,0,0,,7,,,79,127
29672,note_off,0,0,0,,0,,,48,127
29674,note_on,2,0,0,,5,,,53,127
29674,note_on,0,0,0,,10,,,69,127
29787,note_off,113,0,0,,10,,,69,127
29789,note_on,2,0,0,,10,,,81,127
29902,note_off,113,0,0,,10,,,81,127
29902,note_off,0,0,0,,5,,,53,127
29904,note_on,2,0,0,,7,,,55,127
29904,note_on,0,0,0,,10,,,81,127
30017,note_off,113,0,0,,10,,,81,127
30019,note_on,2,0,0,,7,,,79,127
30132,note_off,113,0,0,,7,,,79,127
30132,note_off,0,0,0,,7,,,55,127
30134,note_on,2,0,0,,5,,,53,127
30134,note_on,0,0,0,,7,,,79,127
30247,note_off,113,0,0,,7,,,79,127
30249,note_on,2,0,0,,12,,,71,127
30362,note_off,113,0,0,,12,,,71,127
30362,note_off,0,0,0,,5,,,53,127
30364,note_on,2,0,0,,4,,,52,127
30364,note_on,0,0,0,,0,,,72,127
30477,note_off,113,0,0,,0,,,72,127
30479,note_on,2,0,0,,4,,,76,127
30592,note_off,113,0,0,,4,,,76,127
30592,note_off,0,0,0,,4,,,52,127
30594,note_on,2,0,0,,5,,,53,127
30594,note_on,0,0,0,,10,,,69,127
30709,note_on,115,0,0,,10,,,81,127
30822,note_off,113,0,0,,10,,,81,127
30822,note_off,0,0,0,,10,,,69,127
30822,note_off,0,0,0,,5,,,53,127
30824,note_on,2,0,0,,7,,,55,127
30824,note_on,0,0,0,,10,,,81,127
30937,note_off,113,0,0,,10,,,81,127
30939,note_on,2,0,0,,7,,,79,127
31052,note_off,113,0,0,,7,,,79,127
31052,note_off,0,0,0,,7,,,55,127
31054,note_on,2,0,0,,5,,,53,127
31054,note_on,0,0,0,,7,,,79,127
31167,note_off,113,0,0,,7,,,79,127
31169,note_on,2,0,0,,12,,,71,127
31282,note_off,113,0,0,,12,,,71,127
31282,note_off,0,0,0,,5,,,53,127
31284,note_on,2,0,0,,4,,,52,127
31284,note_on,0,0,0,,0,,,72,127
31397,note_off,113,0,0,,0,,,72,127
31399,note_on,2,0,0,,4,,,76,127
31512,note_off,113,0,0,,4,,,76,127
31512,note_off,0,0,0,,4,,,52,127
31514,note_on,2,0,0,,5,,,53,127
31514,note_on,0,0,0,,10,,,69,127
31627,note_off,113,0,0,,10,,,69,127
31629,note_on,2,0,0,,10,,,81,127
31742,note_off,113,0,0,,10,,,81,127
31742,note_off,0,0,0,,5,,,53,127
31744,note_on,2,0,0,,7,,,55,127
31744,note_on,0,0,0,,7,,,79,127
31857,note_off,113,0,0,,7,,,79,127
31859,note_on,2,0,0,,0,,,84,127
31972,note_off,113,0,0,,0,,,84,127
31972,note_off,0,0,0,,7,,,55,127
31974,note_on,2,0,0,,7,,,43,127
31974,note_on,0,0,0,,2,,,74,127
32087,note_off,113,0,0,,2,,,74,127
32089,note_on,2,0,0,,12,,,83,127
32202,note_off,113,0,0,,12,,,83,127
32202,note_off,0,0,0,,7,,,43,127
32204,note_on,2,0,0,,0,,,36,127
32204,note_on,0,0,0,,0,,,72,127
32317,note_off,113,0,0,,0,,,72,127
32319,note_on,2,0,0,,4,,,76,127
32432,note_off,113,0,0,,4,,,76,127
32434,note_on,2,0,0,,7,,,79,127
32547,note_off,113,0,0,,7,,,79,127
32549,note_on,2,0,0,,0,,,84,127
32662,note_off,113,0,0,,0,,,84,127
32664,note_on,2,0,0,,2,,,74,127
32719,note_off,55,0,0,,2,,,74,127
32721,note_on,2,0,0,,0,,,72,127
32776,note_off,55,0,0,,0,,,72,127
32778,note_on,2,0,0,,2,,,74,127
32833,note_off,55,0,0,,2,,,74,127
32835,note_on,2,0,0,,0,,,72,127
33121,note_off,286,0,0,,0,,,36,127
33123,note_on,2,0,0,,0,,,48,127
33181,note_off,58,0,0,,0,,,72,127
33236,note_off,55,0,0,,0,,,48,127
33238,note_on,2,0,0,,4,,,52,127
33351,note_off,113,0,0,,4,,,52,127
33353,note_on,2,0,0,,7,,,55,127
33466,note_off,113,0,0,,7,,,55,127
33468,note_on,2,0,0,,0,,,60,127
33581,note_off,113,0,0,,0,,,60,127
33583,note_on,2,0,0,,4,,,64,127
33698,note_on,115,0,0,,0,,,72,127
33698,note_on,0,0,0,,4,,,76,127
33811,note_off,113,0,0,,4,,,64,127
33813,note_on,2,0,0,,2,,,62,127
33926,note_off,113,0,0,,4,,,76,127
33926,note_off,0,0,0,,0,,,72,127
33928,note_on,2,0,0,,5,,,77,127
33928,note_on,0,0,0,,2,,,74,127
34041,note_off,113,0,0,,2,,,74,127
34041,note_off,0,0,0,,5,,,77,127
34041,note_off,0,0,0,,2,,,62,127
34043,note_on,2,0,0,,0,,,48,127
34043,note_on,0,0,0,,4,,,76,127
34043,note_on,0,0,0,,7,,,79,127
34156,note_off,113,0,0,,0,,,48,127
34158,note_on,2,0,0,,4,,,52,127
34271,note_off,113,0,0,,4,,,52,127
34273,note_on,2,0,0,,7,,,55,127
34386,note_off,113,0,0,,7,,,55,127
34388,note_on,2,0,0,,0,,,60,127
34498,note_off,110,0,0,,7,,,79,127
34498,note_off,0,0,0,,4,,,76,127
34500,note_off,2,0,0,,0,,,60,127
34502,note_on,2,0,0,,4,,,64,127
34617,note_on,115,0,0,,0,,,72,127
34617,note_on,0,0,0,,4,,,76,127
34730,note_off,113,0,0,,4,,,64,127
34732,note_on,2,0,0,,2,,,62,127
34845,note_off,113,0,0,,4,,,76,127
34845,note_off,0,0,0,,0,,,72,127
34847,note_on,2,0,0,,5,,,77,127
34847,note_on,0,0,0,,2,,,74,127
34960,note_off,113,0,0,,2,,,74,127
34960,note_off,0,0,0,,5,,,77,127
34960,note_off,0,0,0,,2,,,62,127
34962,note_on,2,0,0,,0,,,48,127
34962,note_on,0,0,0,,7,,,79,127
34962,note_on,0,0,0,,4,,,76,127
35075,note_off,113,0,0,,0,,,48,127
35077,note_on,2,0,0,,4,,,52,127
35190,note_off,113,0,0,,4,,,52,127
35192,note_on,2,0,0,,7,,,55,127
35305,note_off,113,0,0,,7,,,55,127
35307,note_on,2,0,0,,0,,,60,127
35417,note_off,110,0,0,,4,,,76,127
35417,note_off,0,0,0,,7,,,79,127
35419,note_off,2,0,0,,0,,,60,127
35421,note_on,2,0,0,,4,,,64,127
35536,note_on,115,0,0,,4,,,76,127
35536,note_on,0,0,0,,0,,,72,127
35649,note_off,113,0,0,,4,,,64,127
35651,note_on,2,0,0,,11,,,46,127
35764,note_off,113,0,0,,0,,,72,127
35764,note_off,0,0,0,,4,,,76,127
35766,note_on,2,0,0,,5,,,77,127
35766,note_on,0,0,0,,2,,,74,127
35879,note_off,113,0,0,,2,,,74,127
35879,note_off,0,0,0,,5,,,77,127
35879,note_off,0,0,0,,11,,,46,127
35881,note_on,2,0,0,,10,,,45,127
35881,note_on,0,0,0,,7,,,79,127
35881,note_on,0,0,0,,4,,,76,127
35994,note_off,113,0,0,,10,,,45,127
35996,note_on,2,0,0,,1,,,49,127
36109,note_off,113,0,0,,1,,,49,127
36111,note_on,2,0,0,,4,,,52,127
36224,note_off,113,0,0,,4,,,52,127
36226,note_on,2,0,0,,10,,,57,127
36339,note_off,113,0,0,,10,,,57,127
36341,note_on,2,0,0,,4,,,64,127
36408,note_off,67,0,0,,4,,,76,127
36408,note_off,0,0,0,,7,,,79,127
36456,note_on,48,0,0,,4,,,76,127
36456,note_on,0,0,0,,7,,,79,127
36569,note_off,113,0,0,,7,,,79,127
36569,note_off,0,0,0,,4,,,76,127
36569,note_off,0,0,0,,4,,,64,127
36571,note_on,2,0,0,,10,,,45,127
36571,note_on,0,0,0,,2,,,74,127
36571,note_on,0,0,0,,5,,,77,127
36684,note_off,113,0,0,,5,,,77,127
36684,note_off,0,0,0,,2,,,74,127
36686,note_on,2,0,0,,4,,,76,127
36686,note_on,0,0,0,,1,,,73,127
36799,note_off,113,0,0,,1,,,73,127
36799,note_off,0,0,0,,4,,,76,127
36799,note_off,0,0,0,,10,,,45,127
36801,note_on,2,0,0,,2,,,50,127
36801,note_on,0,0,0,,2,,,74,127
36801,note_on,0,0,0,,5,,,77,127
36914,note_off,113,0,0,,2,,,50,127
36916,note_on,2,0,0,,5,,,53,127
37029,note_off,113,0,0,,5,,,53,127
37031,note_on,2,0,0,,10,,,57,127
37144,note_off,113,0,0,,10,,,57,127
37146,note_off,2,0,0,,5,,,77,127
37146,note_off,0,0,0,,2,,,74,127
37146,note_on,0,0,0,,2,,,62,127
37259,note_off,113,0,0,,2,,,62,127
37261,note_on,2,0,0,,5,,,65,127
37376,note_on,115,0,0,,2,,,74,127
37376,note_on,0,0,0,,5,,,77,127
37489,note_off,113,0,0,,5,,,65,127
37491,note_on,2,0,0,,4,,,64,127
37604,note_off,113,0,0,,5,,,77,127
37604,note_off,0,0,0,,2,,,74,127
37606,note_on,2,0,0,,4,,,76,127
37606,note_on,0,0,0,,7,,,79,127
37719,note_off,113,0,0,,7,,,79,127
37719,note_off,0,0,0,,4,,,76,127
37719,note_off,0,0,0,,4,,,64,127
37721,note_on,2,0,0,,2,,,50,127
37721,note_on,0,0,0,,5,,,77,127
37721,note_on,0,0,0,,10,,,81,127
37834,note_off,113,0,0,,2,,,50,127
37836,note_on,2,0,0,,5,,,53,127
37949,note_off,113,0,0,,5,,,53,127
37951,note_on,2,0,0,,10,,,57,127
38064,note_off,113,0,0,,10,,,57,127
38066,note_on,2,0,0,,2,,,62,127
38176,note_off,110,0,0,,10,,,81,127
38176,note_off,0,0,0,,5,,,77,127
38178,note_off,2,0,0,,2,,,62,127
38180,note_on,2,0,0,,5,,,65,127
38295,note_on,115,0,0,,2,,,74,127
38295,note_on,0,0,0,,5,,,77,127
38408,note_off,113,0,0,,5,,,65,127
38410,note_on,2,0,0,,4,,,64,127
38523,note_off,113,0,0,,5,,,77,127
38523,note_off,0,0,0,,2,,,74,127
38525,note_on,2,0,0,,7,,,79,127
38525,note_on,0,0,0,,4,,,76,127
38638,note_off,113,0,0,,4,,,76,127
38638,note_off,0,0,0,,7,,,79,127
38638,note_off,0,0,0,,4,,,64,127
38640,note_on,2,0,0,,2,,,50,127
38640,note_on,0,0,0,,5,,,77,127
38640,note_on,0,0,0,,10,,,81,127
38753,note_off,113,0,0,,2,,,50,127
38755,note_on,2,0,0,,5,,,53,127
38868,note_off,113,0,0,,5,,,53,127
38870,note_on,2,0,0,,10,,,57,127
38983,note_off,113,0,0,,10,,,57,127
38985,note_on,2,0,0,,2,,,62,127
39095,note_off,110,0,0,,10,,,81,127
39095,note_off,0,0,0,,5,,,77,127
39097,note_off,2,0,0,,2,,,62,127
39099,note_on,2,0,0,,5,,,65,127
39214,note_on,115,0,0,,10,,,81,127
39327,note_off,113,0,0,,5,,,65,127
39329,note_on,2,0,0,,0,,,48,127
39442,note_off,113,0,0,,10,,,81,127
39444,note_on,2,0,0,,4,,,76,127
39557,note_off,113,0,0,,4,,,76,127
39557,note_off,0,0,0,,0,,,48,127
39559,note_on,2,0,0,,12,,,47,127
39559,note_on,0,0,0,,4,,,76,127
39614,note_off,55,0,0,,4,,,76,127
39616,note_on,2,0,0,,3,,,75,127
39671,note_off,55,0,0,,3,,,75,127
39671,note_off,0,0,0,,12,,,47,127
39673,note_on,2,0,0,,3,,,51,127
39673,note_on,0,0,0,,4,,,76,127
39728,note_off,55,0,0,,4,,,76,127
39730,note_on,2,0,0,,3,,,75,127
39785,note_off,55,0,0,,3,,,75,127
39785,note_off,0,0,0,,3,,,51,127
39787,note_on,2,0,0,,6,,,54,127
39787,note_on,0,0,0,,4,,,76,127
39842,note_off,55,0,0,,4,,,76,127
39844,note_on,2,0,0,,3,,,75,127
39899,note_off,55,0,0,,3,,,75,127
39899,note_off,0,0,0,,6,,,54,127
39901,note_on,2,0,0,,12,,,59,127
39901,note_on,0,0,0,,4,,,76,127
39956,note_off,55,0,0,,4,,,76,127
39958,note_on,2,0,0,,3,,,75,127
40013,note_off,55,0,0,,12,,,59,127
40015,note_on,2,0,0,,6,,,66,127
40071,note_off,56,0,0,,3,,,75,127
40130,note_on,59,0,0,,6,,,78,127
40130,note_on,0,0,0,,10,,,81,127
40243,note_off,113,0,0,,10,,,81,127
40243,note_off,0,0,0,,6,,,78,127
40243,note_off,0,0,0,,6,,,66,127
40245,note_on,2,0,0,,12,,,47,127
40245,note_on,0,0,0,,7,,,79,127
40245,note_on,0,0,0,,4,,,76,127
40358,note_off,113,0,0,,4,,,76,127
40358,note_off,0,0,0,,7,,,79,127
40360,note_on,2,0,0,,3,,,75,127
40360,note_on,0,0,0,,6,,,78,127
40473,note_off,113,0,0,,6,,,78,127
40473,note_off,0,0,0,,3,,,75,127
40473,note_off,0,0,0,,12,,,47,127
40475,note_on,2,0,0,,4,,,52,127
40475,note_on,0,0,0,,6,,,78,127
40475,note_on,0,0,0,,3,,,75,127
40588,note_off,113,0,0,,4,,,52,127
40590,note_on,2,0,0,,7,,,55,127
40703,note_off,113,0,0,,7,,,55,127
40703,note_off,0,0,0,,3,,,75,127
40703,note_off,0,0,0,,6,,,78,127
40705,note_on,2,0,0,,12,,,59,127
40705,note_on,0,0,0,,4,,,76,127
40705,note_on,0,0,0,,7,,,79,127
40818,note_off,113,0,0,,12,,,59,127
40820,note_on,2,0,0,,4,,,64,127
40933,note_off,113,0,0,,4,,,64,127
40933,note_off,0,0,0,,7,,,79,127
40933,note_off,0,0,0,,4,,,76,127
40935,note_on,2,0,0,,4,,,76,127
41050,note_on,115,0,0,,12,,,83,127
41163,note_off,113,0,0,,12,,,83,127
41163,note_off,0,0,0,,4,,,76,127
41165,note_on,2,0,0,,4,,,52,127
41165,note_on,0,0,0,,4,,,76,127
41278,note_off,113,0,0,,4,,,76,127
41280,note_on,2,0,0,,2,,,74,127
41393,note_off,113,0,0,,2,,,74,127
41393,note_off,0,0,0,,4,,,52,127
41395,note_on,2,0,0,,10,,,45,127
41395,note_on,0,0,0,,2,,,74,127
41508,note_off,113,0,0,,10,,,45,127
41510,note_on,2,0,0,,0,,,48,127
41623,note_off,113,0,0,,0,,,48,127
41623,note_off,0,0,0,,2,,,74,127
41625,note_on,2,0,0,,4,,,52,127
41625,note_on,0,0,0,,0,,,72,127
41738,note_off,113,0,0,,4,,,52,127
41740,note_on,2,0,0,,10,,,57,127
41853,note_off,113,0,0,,10,,,57,127
41855,note_on,2,0,0,,10,,,69,127
41968,note_off,113,0,0,,0,,,72,127
41970,note_on,2,0,0,,0,,,84,127
42083,note_off,113,0,0,,0,,,84,127
42083,note_off,0,0,0,,10,,,69,127
42085,note_on,2,0,0,,10,,,45,127
42085,note_on,0,0,0,,10,,,81,127
42198,note_off,113,0,0,,10,,,81,127
42200,note_on,2,0,0,,7,,,79,127
42313,note_off,113,0,0,,7,,,79,127
42313,note_off,0,0,0,,10,,,45,127
42315,note_on,2,0,0,,2,,,50,127
42315,note_on,0,0,0,,7,,,79,127
42428,note_off,113,0,0,,2,,,50,127
42430,note_on,2,0,0,,5,,,53,127
42543,note_off,113,0,0,,5,,,53,127
42543,note_off,0,0,0,,7,,,79,127
42545,note_on,2,0,0,,10,,,57,127
42545,note_on,0,0,0,,5,,,77,127
42658,note_off,113,0,0,,10,,,57,127
42660,note_on,2,0,0,,2,,,62,127
42773,note_off,113,0,0,,2,,,62,127
42773,note_off,0,0,0,,5,,,77,127
42775,note_on,2,0,0,,2,,,74,127
42890,note_on,115,0,0,,2,,,86,127
43003,note_off,113,0,0,,2,,,86,127
43003,note_off,0,0,0,,2,,,74,127
43005,note_on,2,0,0,,2,,,50,127
43005,note_on,0,0,0,,10,,,81,127
43118,note_off,113,0,0,,10,,,81,127
43120,note_on,2,0,0,,0,,,84,127
43233,note_off,113,0,0,,0,,,84,127
43233,note_off,0,0,0,,2,,,50,127
43235,note_on,2,0,0,,7,,,43,127
43235,note_on,0,0,0,,0,,,84,127
43348,note_off,113,0,0,,7,,,43,127
43350,note_on,2,0,0,,12,,,47,127
43463,note_off,113,0,0,,12,,,47,127
43463,note_off,0,0,0,,0,,,84,127
43465,note_on,2,0,0,,2,,,50,127
43465,note_on,0,0,0,,12,,,83,127
43578,note_off,113,0,0,,2,,,50,127
43580,note_on,2,0,0,,7,,,55,127
43693,note_off,113,0,0,,7,,,55,127
43693,note_off,0,0,0,,12,,,83,127
43695,note_on,2,0,0,,7,,,67,127
43810,note_on,115,0,0,,2,,,86,127
43923,note_off,113,0,0,,2,,,86,127
43923,note_off,0,0,0,,7,,,67,127
43925,note_on,2,0,0,,7,,,43,127
43925,note_on,0,0,0,,7,,,79,127
44038,note_off,113,0,0,,7,,,79,127
44040,note_on,2,0,0,,5,,,77,127
44153,note_off,113,0,0,,5,,,77,127
44153,note_off,0,0,0,,7,,,43,127
44155,note_on,2,0,0,,0,,,48,127
44155,note_on,0,0,0,,5,,,77,127
44268,note_off,113,0,0,,0,,,48,127
44270,note_on,2,0,0,,4,,,52,127
44383,note_off,113,0,0,,4,,,52,127
44383,note_off,0,0,0,,5,,,77,127
44385,note_on,2,0,0,,7,,,55,127
44385,note_on,0,0,0,,4,,,76,127
44498,note_off,113,0,0,,7,,,55,127
44500,note_on,2,0,0,,0,,,60,127
44613,note_off,113,0,0,,0,,,60,127
44613,note_off,0,0,0,,4,,,76,127
44615,note_on,2,0,0,,0,,,72,127
44730,note_on,115,0,0,,0,,,84,127
44843,note_off,113,0,0,,0,,,84,127
44843,note_off,0,0,0,,0,,,72,127
44845,note_on,2,0,0,,0,,,48,127
44845,note_on,0,0,0,,4,,,76,127
44958,note_off,113,0,0,,4,,,76,127
44960,note_on,2,0,0,,7,,,79,127
45073,note_off,113,0,0,,7,,,79,127
45073,note_off,0,0,0,,0,,,48,127
45075,note_on,2,0,0,,5,,,41,127
45075,note_on,0,0,0,,7,,,79,127
45188,note_off,113,0,0,,5,,,41,127
45190,note_on,2,0,0,,10,,,45,127
45303,note_off,113,0,0,,10,,,45,127
45303,note_off,0,0,0,,7,,,79,127
45305,note_on,2,0,0,,0,,,48,127
45305,note_on,0,0,0,,10,,,81,127
45418,note_off,113,0,0,,0,,,48,127
45420,note_on,2,0,0,,5,,,53,127
45533,note_off,113,0,0,,5,,,53,127
45533,note_off,0,0,0,,10,,,81,127
45535,note_on,2,0,0,,5,,,65,127
45650,note_on,115,0,0,,10,,,81,127
45763,note_off,113,0,0,,10,,,81,127
45763,note_off,0,0,0,,5,,,65,127
45765,note_on,2,0,0,,5,,,41,127
45765,note_on,0,0,0,,5,,,77,127
45878,note_off,113,0,0,,5,,,77,127
45880,note_on,2,0,0,,4,,,76,127
45993,note_off,113,0,0,,4,,,76,127
45993,note_off,0,0,0,,5,,,41,127
45995,note_on,2,0,0,,12,,,47,127
45995,note_on,0,0,0,,4,,,76,127
46108,note_off,113,0,0,,12,,,47,127
46110,note_on,2,0,0,,2,,,50,127
46223,note_off,113,0,0,,2,,,50,127
46223,note_off,0,0,0,,4,,,76,127
46225,note_on,2,0,0,,8,,,56,127
46225,note_on,0,0,0,,2,,,74,127
46338,note_off,113,0,0,,8,,,56,127
46340,note_on,2,0,0,,12,,,59,127
46453,note_off,113,0,0,,12,,,59,127
46453,note_off,0,0,0,,2,,,74,127
46455,note_on,2,0,0,,12,,,71,127
46570,note_on,115,0,0,,2,,,86,127
46683,note_off,113,0,0,,2,,,86,127
46683,note_off,0,0,0,,12,,,71,127
46685,note_on,2,0,0,,12,,,47,127
46685,note_on,0,0,0,,12,,,83,127
46798,note_off,113,0,0,,12,,,83,127
46800,note_on,2,0,0,,10,,,81,127
46913,note_off,113,0,0,,10,,,81,127
46913,note_off,0,0,0,,12,,,47,127
46915,note_on,2,0,0,,4,,,52,127
46915,note_on,0,0,0,,10,,,81,127
47028,note_off,113,0,0,,4,,,52,127
47030,note_on,2,0,0,,8,,,56,127
47143,note_off,113,0,0,,8,,,56,127
47143,note_off,0,0,0,,10,,,81,127
47145,note_on,2,0,0,,12,,,59,127
47145,note_on,0,0,0,,8,,,80,127
47258,note_off,113,0,0,,12,,,59,127
47260,note_on,2,0,0,,4,,,64,127
47373,note_off,113,0,0,,4,,,64,127
47373,note_off,0,0,0,,8,,,80,127
47375,note_on,2,0,0,,4,,,76,127
47490,note_on,115,0,0,,12,,,83,127
47603,note_off,113,0,0,,12,,,83,127
47603,note_off,0,0,0,,4,,,76,127
47605,note_on,2,0,0,,4,,,52,127
47605,note_on,0,0,0,,4,,,76,127
47718,note_off,113,0,0,,4,,,76,127
47720,note_on,2,0,0,,2,,,74,127
47833,note_off,113,0,0,,2,,,74,127
47833,note_off,0,0,0,,4,,,52,127
47835,note_on,2,0,0,,10,,,45,127
47835,note_on,0,0,0,,2,,,74,127
47948,note_off,113,0,0,,10,,,45,127
47950,note_on,2,0,0,,0,,,48,127
48063,note_off,113,0,0,,0,,,48,127
48063,note_off,0,0,0,,2,,,74,127
48065,note_on,2,0,0,,4,,,52,127
48065,note_on,0,0,0,,0,,,72,127
48178,note_off,113,0,0,,4,,,52,127
48180,note_on,2,0,0,,10,,,57,127
48293,note_off,113,0,0,,10,,,57,127
48293,note_off,0,0,0,,0,,,72,127
48295,note_on,2,0,0,,10,,,69,127
48410,note_on,115,0,0,,10,,,81,127
48523,note_off,113,0,0,,10,,,81,127
48523,note_off,0,0,0,,10,,,69,127
48525,note_on,2,0,0,,10,,,45,127
48525,note_on,0,0,0,,10,,,81,127
48638,note_off,113,0,0,,10,,,81,127
48640,note_on,2,0,0,,0,,,72,127
48753,note_off,113,0,0,,0,,,72,127
48753,note_off,0,0,0,,10,,,45,127
48755,note_on,2,0,0,,4,,,40,127
48755,note_on,0,0,0,,0,,,72,127
48868,note_off,113,0,0,,4,,,40,127
48870,note_on,2,0,0,,8,,,44,127
48983,note_off,113,0,0,,8,,,44,127
48983,note_off,0,0,0,,0,,,72,127
48985,note_on,2,0,0,,12,,,47,127
48985,note_on,0,0,0,,12,,,71,127
49098,note_off,113,0,0,,12,,,47,127
49100,note_on,2,0,0,,4,,,52,127
49213,note_off,113,0,0,,4,,,52,127
49213,note_off,0,0,0,,12,,,71,127
49215,note_on,2,0,0,,4,,,64,127
49330,note_on,115,0,0,,12,,,83,127
49443,note_off,113,0,0,,12,,,83,127
49443,note_off,0,0,0,,4,,,64,127
49445,note_on,2,0,0,,4,,,40,127
49445,note_on,0,0,0,,12,,,83,127
49558,note_off,113,0,0,,12,,,83,127
49560,note_on,2,0,0,,2,,,74,127
49673,note_off,113,0,0,,2,,,74,127
49673,note_off,0,0,0,,4,,,40,127
49675,note_on,2,0,0,,10,,,45,127
49675,note_on,0,0,0,,2,,,74,127
49788,note_off,113,0,0,,10,,,45,127
49790,note_on,2,0,0,,0,,,48,127
49903,note_off,113,0,0,,0,,,48,127
49903,note_off,0,0,0,,2,,,74,127
49905,note_on,2,0,0,,4,,,52,127
49905,note_on,0,0,0,,0,,,72,127
50018,note_off,113,0,0,,4,,,52,127
50020,note_on,2,0,0,,10,,,57,127
50133,note_off,113,0,0,,10,,,57,127
50133,note_off,0,0,0,,0,,,72,127
50135,note_on,2,0,0,,10,,,69,127
50250,note_on,115,0,0,,10,,,81,127
50363,note_off,113,0,0,,10,,,81,127
50363,note_off,0,0,0,,10,,,69,127
50365,note_on,2,0,0,,10,,,45,127
50365,note_on,0,0,0,,10,,,81,127
50478,note_off,113,0,0,,10,,,81,127
50480,note_on,2,0,0,,0,,,72,127
50593,note_off,113,0,0,,0,,,72,127
50593,note_off,0,0,0,,10,,,45,127
50595,note_on,2,0,0,,4,,,40,127
50595,note_on,0,0,0,,0,,,72,127
50708,note_off,113,0,0,,4,,,40,127
50710,note_on,2,0,0,,8,,,44,127
50823,note_off,113,0,0,,8,,,44,127
50823,note_off,0,0,0,,0,,,72,127
50825,note_on,2,0,0,,12,,,47,127
50825,note_on,0,0,0,,12,,,71,127
50938,note_off,113,0,0,,12,,,47,127
50940,note_on,2,0,0,,4,,,52,127
51053,note_off,113,0,0,,4,,,52,127
51055,note_on,2,0,0,,4,,,64,127
51170,note_on,115,0,0,,12,,,83,127
51280,note_off,110,0,0,,12,,,71,127
51282,note_off,2,0,0,,12,,,83,127
51282,note_off,0,0,0,,4,,,64,127
51284,note_on,2,0,0,,4,,,40,127
51284,note_on,0,0,0,,12,,,83,127
51397,note_off,113,0,0,,12,,,83,127
51399,note_on,2,0,0,,2,,,74,127
51512,note_off,113,0,0,,2,,,74,127
51512,note_off,0,0,0,,4,,,40,127
51514,note_on,2,0,0,,10,,,45,127
51514,note_on,0,0,0,,2,,,74,127
51627,note_off,113,0,0,,10,,,45,127
51629,note_on,2,0,0,,0,,,48,127
51742,note_off,113,0,0,,0,,,48,127
51742,note_off,0,0,0,,2,,,74,127
51744,note_on,2,0,0,,4,,,52,127
51744,note_on,0,0,0,,0,,,72,127
51857,note_off,113,0,0,,4,,,52,127
51859,note_on,2,0,0,,10,,,57,127
51972,note_off,113,0,0,,10,,,57,127
51974,note_on,2,0,0,,10,,,69,127
52089,note_on,115,0,0,,0,,,84,127
52199,note_off,110,0,0,,0,,,72,127
52201,note_off,2,0,0,,0,,,84,127
52201,note_off,0,0,0,,10,,,69,127
52203,note_on,2,0,0,,10,,,45,127
52203,note_on,0,0,0,,0,,,84,127
52316,note_off,113,0,0,,0,,,84,127
52318,note_on,2,0,0,,4,,,76,127
52431,note_off,113,0,0,,4,,,76,127
52431,note_off,0,0,0,,10,,,45,127
52433,note_on,2,0,0,,2,,,38,127
52433,note_on,0,0,0,,4,,,76,127
52546,note_off,113,0,0,,2,,,38,127
52548,note_on,2,0,0,,5,,,41,127
52661,note_off,113,0,0,,5,,,41,127
52661,note_off,0,0,0,,4,,,76,127
52663,note_on,2,0,0,,10,,,45,127
52663,note_on,0,0,0,,5,,,77,127
52776,note_off,113,0,0,,10,,,45,127
52778,note_on,2,0,0,,2,,,50,127
52891,note_off,113,0,0,,2,,,50,127
52891,note_off,0,0,0,,5,,,77,127
52893,note_on,2,0,0,,2,,,62,127
53008,note_on,115,0,0,,2,,,86,127
53121,note_off,113,0,0,,2,,,86,127
53121,note_off,0,0,0,,2,,,62,127
53123,note_on,2,0,0,,2,,,38,127
53123,note_on,0,0,0,,2,,,86,127
53236,note_off,113,0,0,,2,,,86,127
53238,note_on,2,0,0,,8,,,80,127
53351,note_off,113,0,0,,8,,,80,127
53351,note_off,0,0,0,,2,,,38,127
53353,note_on,2,0,0,,0,,,36,127
53353,note_on,0,0,0,,8,,,80,127
53466,note_off,113,0,0,,0,,,36,127
53468,note_on,2,0,0,,4,,,40,127
53581,note_off,113,0,0,,4,,,40,127
53581,note_off,0,0,0,,8,,,80,127
53583,note_on,2,0,0,,10,,,45,127
53583,note_on,0,0,0,,10,,,81,127
53696,note_off,113,0,0,,10,,,45,127
53698,note_on,2,0,0,,0,,,48,127
53811,note_off,113,0,0,,0,,,48,127
53811,note_off,0,0,0,,10,,,81,127
53813,note_on,2,0,0,,0,,,60,127
53928,note_on,115,0,0,,10,,,81,127
54041,note_off,113,0,0,,10,,,81,127
54041,note_off,0,0,0,,0,,,60,127
54043,note_on,2,0,0,,0,,,36,127
54043,note_on,0,0,0,,10,,,81,127
54156,note_off,113,0,0,,10,,,81,127
54158,note_on,2,0,0,,0,,,72,127
54271,note_off,113,0,0,,0,,,72,127
54271,note_off,0,0,0,,0,,,36,127
54273,note_on,2,0,0,,2,,,38,127
54273,note_on,0,0,0,,12,,,71,127
54386,note_off,113,0,0,,12,,,71,127
54388,note_on,2,0,0,,5,,,77,127
54501,note_off,113,0,0,,5,,,77,127
54501,note_off,0,0,0,,2,,,38,127
54503,note_on,2,0,0,,2,,,50,127
54503,note_on,0,0,0,,5,,,77,127
54616,note_off,113,0,0,,5,,,77,127
54618,note_on,2,0,0,,10,,,69,127
54731,note_off,113,0,0,,10,,,69,127
54731,note_off,0,0,0,,2,,,50,127
54733,note_on,2,0,0,,4,,,52,127
54733,note_on,0,0,0,,10,,,69,127
54846,note_off,113,0,0,,10,,,69,127
54848,note_on,2,0,0,,4,,,76,127
54961,note_off,113,0,0,,4,,,76,127
54961,note_off,0,0,0,,4,,,52,127
54963,note_on,2,0,0,,4,,,40,127
54963,note_on,0,0,0,,4,,,76,127
55076,note_off,113,0,0,,4,,,76,127
55078,note_on,2,0,0,,8,,,68,127
55191,note_off,113,0,0,,8,,,68,127
55191,note_off,0,0,0,,4,,,40,127
55193,note_on,2,0,0,,10,,,45,127
55193,note_on,0,0,0,,12,,,71,127
55248,note_off,55,0,0,,12,,,71,127
55250,note_on,2,0,0,,10,,,69,127
55305,note_off,55,0,0,,10,,,69,127
55305,note_off,0,0,0,,10,,,45,127
55307,note_on,2,0,0,,0,,,48,127
55307,note_on,0,0,0,,12,,,71,127
55362,note_off,55,0,0,,12,,,71,127
55364,note_on,2,0,0,,10,,,69,127
55419,note_off,55,0,0,,10,,,69,127
55419,note_off,0,0,0,,0,,,48,127
55421,note_on,2,0,0,,4,,,52,127
55421,note_on,0,0,0,,12,,,71,127
55476,note_off,55,0,0,,12,,,71,127
55478,note_on,2,0,0,,10,,,69,127
55533,note_off,55,0,0,,10,,,69,127
55533,note_off,0,0,0,,4,,,52,127
55535,note_on,2,0,0,,10,,,57,127
55535,note_on,0,0,0,,12,,,71,127
55590,note_off,55,0,0,,12,,,71,127
55592,note_on,2,0,0,,10,,,69,127
55647,note_off,55,0,0,,10,,,69,127
55647,note_off,0,0,0,,10,,,57,127
55649,note_on,2,0,0,,10,,,69,127
55764,note_on,115,0,0,,0,,,84,127
55877,note_off,113,0,0,,0,,,84,127
55877,note_off,0,0,0,,10,,,69,127
55879,note_on,2,0,0,,10,,,45,127
55879,note_on,0,0,0,,0,,,84,127
55992,note_off,113,0,0,,0,,,84,127
55994,note_on,2,0,0,,4,,,76,127
56107,note_off,113,0,0,,4,,,76,127
56107,note_off,0,0,0,,10,,,45,127
56109,note_on,2,0,0,,2,,,38,127
56109,note_on,0,0,0,,4,,,76,127
56222,note_off,113,0,0,,2,,,38,127
56224,note_on,2,0,0,,5,,,41,127
56337,note_off,113,0,0,,5,,,41,127
56337,note_off,0,0,0,,4,,,76,127
56339,note_on,2,0,0,,10,,,45,127
56339,note_on,0,0,0,,5,,,77,127
56452,note_off,113,0,0,,10,,,45,127
56454,note_on,2,0,0,,2,,,50,127
56567,note_off,113,0,0,,2,,,50,127
56567,note_off,0,0,0,,5,,,77,127
56569,note_on,2,0,0,,2,,,62,127
56684,note_on,115,0,0,,2,,,86,127
56797,note_off,113,0,0,,2,,,86,127
56797,note_off,0,0,0,,2,,,62,127
56799,note_on,2,0,0,,2,,,38,127
56799,note_on,0,0,0,,2,,,86,127
56912,note_off,113,0,0,,2,,,86,127
56914,note_on,2,0,0,,8,,,80,127
57027,note_off,113,0,0,,8,,,80,127
57027,note_off,0,0,0,,2,,,38,127
57029,note_on,2,0,0,,0,,,36,127
57029,note_on,0,0,0,,8,,,80,127
57142,note_off,113,0,0,,0,,,36,127
57144,note_on,2,0,0,,4,,,40,127
57257,note_off,113,0,0,,4,,,40,127
57257,note_off,0,0,0,,8,,,80,127
57259,note_on,2,0,0,,10,,,45,127
57259,note_on,0,0,0,,10,,,81,127
57372,note_off,113,0,0,,10,,,45,127
57374,note_on,2,0,0,,0,,,48,127
57487,note_off,113,0,0,,0,,,48,127
57487,note_off,0,0,0,,10,,,81,127
57489,note_on,2,0,0,,0,,,60,127
57604,note_on,115,0,0,,10,,,81,127
57717,note_off,113,0,0,,10,,,81,127
57717,note_off,0,0,0,,0,,,60,127
57719,note_on,2,0,0,,0,,,36,127
57719,note_on,0,0,0,,10,,,81,127
57832,note_off,113,0,0,,10,,,81,127
57834,note_on,2,0,0,,0,,,72,127
57947,note_off,113,0,0,,0,,,72,127
57947,note_off,0,0,0,,0,,,36,127
57949,note_on,2,0,0,,2,,,38,127
57949,note_on,0,0,0,,12,,,71,127
58062,note_off,113,0,0,,12,,,71,127
58064,note_on,2,0,0,,5,,,77,127
58177,note_off,113,0,0,,5,,,77,127
58177,note_off,0,0,0,,2,,,38,127
58179,note_on,2,0,0,,2,,,50,127
58179,note_on,0,0,0,,5,,,77,127
58292,note_off,113,0,0,,5,,,77,127
58294,note_on,2,0,0,,10,,,69,127
58407,note_off,113,0,0,,10,,,69,127
58407,note_off,0,0,0,,2,,,50,127
58409,note_on,2,0,0,,4,,,52,127
58409,note_on,0,0,0,,10,,,69,127
58522,note_off,113,0,0,,10,,,69,127
58524,note_on,2,0,0,,4,,,76,127
58637,note_off,113,0,0,,4,,,76,127
58637,note_off,0,0,0,,4,,,52,127
58639,note_on,2,0,0,,4,,,40,127
58639,note_on,0,0,0,,4,,,76,127
58752,note_off,113,0,0,,4,,,76,127
58754,note_on,2,0,0,,8,,,68,127
58867,note_off,113,0,0,,8,,,68,127
58867,note_off,0,0,0,,4,,,40,127
58869,note_on,2,0,0,,10,,,45,127
58869,note_on,0,0,0,,10,,,69,127
58982,note_off,113,0,0,,10,,,69,127
58984,note_on,2,0,0,,0,,,72,127
59097,note_off,113,0,0,,0,,,72,127
59099,note_on,2,0,0,,4,,,76,127
59212,note_off,113,0,0,,4,,,76,127
59214,note_on,2,0,0,,10,,,81,127
59228,note_off,14,0,0,,10,,,45,127
59326,note_off,98,0,0,,10,,,81,127
59328,note_on,2,0,0,,0,,,48,127
59328,note_on,0,0,0,,10,,,69,127
59443,note_on,115,0,0,,10,,,57,127
59556,note_off,113,0,0,,10,,,69,127
59556,note_off,0,0,0,,0,,,48,127
59558,note_on,2,0,0,,12,,,47,127
59558,note_on,0,0,0,,0,,,72,127
59613,note_off,55,0,0,,0,,,72,127
59615,note_on,2,0,0,,12,,,71,127
59670,note_off,55,0,0,,12,,,71,127
59670,note_off,0,0,0,,10,,,57,127
59672,note_on,2,0,0,,8,,,56,127
59672,note_on,0,0,0,,10,,,69,127
59727,note_off,55,0,0,,10,,,69,127
59729,note_on,2,0,0,,12,,,71,127
59784,note_off,55,0,0,,12,,,71,127
59784,note_off,0,0,0,,8,,,56,127
59784,note_off,0,0,0,,12,,,47,127
59786,note_on,2,0,0,,10,,,57,127
59786,note_on,0,0,0,,10,,,45,127
59786,note_on,0,0,0,,0,,,72,127
59899,note_off,113,0,0,,0,,,72,127
59901,note_on,2,0,0,,4,,,76,127
60014,note_off,113,0,0,,4,,,76,127
60016,note_on,2,0,0,,10,,,81,127
60129,note_off,113,0,0,,10,,,81,127
60131,note_on,2,0,0,,0,,,84,127
60193,note_off,62,0,0,,10,,,45,127
60243,note_off,50,0,0,,0,,,84,127
60243,note_off,0,0,0,,10,,,57,127
60245,note_on,2,0,0,,0,,,48,127
60245,note_on,0,0,0,,10,,,69,127
60360,note_on,115,0,0,,10,,,57,127
60473,note_off,113,0,0,,10,,,69,127
60473,note_off,0,0,0,,0,,,48,127
60475,note_on,2,0,0,,12,,,47,127
60475,note_on,0,0,0,,0,,,72,127
60530,note_off,55,0,0,,0,,,72,127
60532,note_on,2,0,0,,12,,,71,127
60587,note_off,55,0,0,,12,,,71,127
60587,note_off,0,0,0,,10,,,57,127
60589,note_on,2,0,0,,8,,,56,127
60589,note_on,0,0,0,,10,,,69,127
60644,note_off,55,0,0,,10,,,69,127
60646,note_on,2,0,0,,12,,,71,127
60701,note_off,55,0,0,,12,,,71,127
60701,note_off,0,0,0,,8,,,56,127
60701,note_off,0,0,0,,12,,,47,127
60703,note_on,2,0,0,,10,,,57,127
60703,note_on,0,0,0,,10,,,45,127
60703,note_on,0,0,0,,0,,,72,127
60816,note_off,113,0,0,,0,,,72,127
60818,note_on,2,0,0,,4,,,76,127
60931,note_off,113,0,0,,4,,,76,127
60933,note_on,2,0,0,,10,,,81,127
61046,note_off,113,0,0,,10,,,81,127
61048,note_on,2,0,0,,0,,,84,127
61146,note_off,98,0,0,,10,,,45,127
61160,note_off,14,0,0,,0,,,84,127
61160,note_off,0,0,0,,10,,,57,127
61162,note_on,2,0,0,,0,,,48,127
61162,note_on,0,0,0,,10,,,69,127
61277,note_on,115,0,0,,10,,,57,127
61390,note_off,113,0,0,,10,,,69,127
61390,note_off,0,0,0,,0,,,48,127
61392,note_on,2,0,0,,12,,,47,127
61392,note_on,0,0,0,,0,,,72,127
61447,note_off,55,0,0,,0,,,72,127
61449,note_on,2,0,0,,12,,,71,127
61504,note_off,55,0,0,,12,,,71,127
61504,note_off,0,0,0,,10,,,57,127
61506,note_on,2,0,0,,8,,,56,127
61506,note_on,0,0,0,,10,,,69,127
61561,note_off,55,0,0,,10,,,69,127
61563,note_on,2,0,0,,12,,,71,127
61618,note_off,55,0,0,,12,,,71,127
61618,note_off,0,0,0,,8,,,56,127
61618,note_off,0,0,0,,12,,,47,127
61620,note_on,2,0,0,,10,,,57,127
61620,note_on,0,0,0,,10,,,45,127
61620,note_on,0,0,0,,0,,,72,127
61733,note_off,113,0,0,,0,,,72,127
61735,note_on,2,0,0,,10,,,81,127
61848,note_off,113,0,0,,10,,,81,127
61848,note_off,0,0,0,,10,,,45,127
61848,note_off,0,0,0,,10,,,57,127
61850,note_on,2,0,0,,2,,,50,127
61850,note_on,0,0,0,,5,,,77,127
61963,note_off,113,0,0,,5,,,77,127
61965,note_on,2,0,0,,2,,,74,127
62078,note_off,113,0,0,,2,,,50,127
62080,note_on,2,0,0,,4,,,52,127
62175,note_off,95,0,0,,2,,,74,127
62195,note_on,20,0,0,,12,,,71,127
62308,note_off,113,0,0,,4,,,52,127
62310,note_on,2,0,0,,2,,,50,127
62405,note_off,95,0,0,,12,,,71,127
62425,note_on,20,0,0,,8,,,68,127
62538,note_off,113,0,0,,8,,,68,127
62538,note_off,0,0,0,,2,,,50,127
62540,note_on,2,0,0,,0,,,48,127
62540,note_on,0,0,0,,10,,,69,127
62653,note_off,113,0,0,,10,,,69,127
62655,note_on,2,0,0,,10,,,81,127
62768,note_off,113,0,0,,10,,,81,127
62768,note_off,0,0,0,,0,,,48,127
62770,note_on,2,0,0,,2,,,50,127
62770,note_on,0,0,0,,5,,,77,127
62883,note_off,113,0,0,,5,,,77,127
62885,note_on,2,0,0,,2,,,74,127
62998,note_off,113,0,0,,2,,,50,127
63000,note_on,2,0,0,,4,,,52,127
63104,note_off,104,0,0,,2,,,74,127
63115,note_on,11,0,0,,12,,,71,127
63228,note_off,113,0,0,,4,,,52,127
63230,note_on,2,0,0,,2,,,50,127
63334,note_off,104,0,0,,12,,,71,127
63345,note_on,11,0,0,,8,,,68,127
63458,note_off,113,0,0,,8,,,68,127
63458,note_off,0,0,0,,2,,,50,127
63460,note_on,2,0,0,,0,,,48,127
63460,note_on,0,0,0,,10,,,69,127
63573,note_off,113,0,0,,10,,,69,127
63575,note_on,2,0,0,,4,,,64,127
63688,note_off,113,0,0,,4,,,64,127
63688,note_off,0,0,0,,0,,,48,127
63690,note_on,2,0,0,,2,,,50,127
63690,note_on,0,0,0,,5,,,65,127
63803,note_off,113,0,0,,5,,,65,127
63805,note_on,2,0,0,,10,,,69,127
63918,note_off,113,0,0,,10,,,69,127
63918,note_off,0,0,0,,2,,,50,127
63920,note_on,2,0,0,,4,,,52,127
63920,note_on,0,0,0,,0,,,60,127
64033,note_off,113,0,0,,0,,,60,127
64035,note_on,2,0,0,,4,,,64,127
64148,note_off,113,0,0,,4,,,64,127
64148,note_off,0,0,0,,4,,,52,127
64150,note_on,2,0,0,,4,,,40,127
64150,note_on,0,0,0,,12,,,59,127
64263,note_off,113,0,0,,12,,,59,127
64265,note_on,2,0,0,,8,,,68,127
64378,note_off,113,0,0,,8,,,68,127
64378,note_off,0,0,0,,4,,,40,127
64380,note_on,2,0,0,,10,,,45,127
64380,note_on,0,0,0,,12,,,71,127
64435,note_off,55,0,0,,12,,,71,127
64437,note_on,2,0,0,,10,,,69,127
64492,note_off,55,0,0,,10,,,69,127
64494,note_on,2,0,0,,12,,,71,127
64549,note_off,55,0,0,,12,,,71,127
64551,note_on,2,0,0,,10,,,69,127
66068,note_off,1517,0,0,,10,,,69,127
66068,note_off,0,0,0,,10,,,45,127
67584,end_of_track,1516,1,0,,,,,,
