tick,type,time,meta,track,program,channel,pitch,tempo,note,velocity
0,copyright,0,1,0,,,,,,
0,program_change,0,0,0,6,0,,,,
0,pitchwheel,0,0,0,,0,0,,,
0,program_change,0,0,0,6,1,,,,
0,pitchwheel,0,0,0,,1,-590,,,
0,program_change,0,0,0,6,2,,,,
0,pitchwheel,0,0,0,,2,-272,,,
0,program_change,0,0,0,6,3,,,,
0,pitchwheel,0,0,0,,3,-353,,,
0,program_change,0,0,0,6,4,,,,
0,pitchwheel,0,0,0,,4,-560,,,
0,program_change,0,0,0,6,5,,,,
0,pitchwheel,0,0,0,,5,-80,,,
0,program_change,0,0,0,6,6,,,,
0,pitchwheel,0,0,0,,6,-625,,,
0,program_change,0,0,0,6,7,,,,
0,pitchwheel,0,0,0,,7,-130,,,
0,program_change,0,0,0,6,8,,,,
0,pitchwheel,0,0,0,,8,-512,,,
0,program_change,0,0,0,6,10,,,,
0,pitchwheel,0,0,0,,10,-464,,,
0,program_change,0,0,0,6,11,,,,
0,pitchwheel,0,0,0,,11,-208,,,
0,program_change,0,0,0,6,12,,,,
0,pitchwheel,0,0,0,,12,-553,,,
0,set_tempo,0,1,0,,,,500000,,
40,note_on,40,0,0,,10,,,57,127
40,note_on,0,0,0,,10,,,81,127
281,note_off,241,0,0,,10,,,81,127
281,note_off,0,0,0,,10,,,57,127
282,note_on,1,0,0,,12,,,71,127
282,note_on,0,0,0,,2,,,74,127
341,note_off,59,0,0,,2,,,74,127
341,note_off,0,0,0,,12,,,71,127
342,note_on,1,0,0,,10,,,69,127
342,note_on,0,0,0,,0,,,72,127
401,note_off,59,0,0,,0,,,72,127
401,note_off,0,0,0,,10,,,69,127
402,note_on,1,0,0,,12,,,71,127
402,note_on,0,0,0,,2,,,74,127
461,note_off,59,0,0,,2,,,74,127
461,note_off,0,0,0,,12,,,71,127
462,note_on,1,0,0,,10,,,69,127
462,note_on,0,0,0,,0,,,72,127
521,note_off,59,0,0,,0,,,72,127
521,note_off,0,0,0,,10,,,69,127
522,note_on,1,0,0,,12,,,71,127
522,note_on,0,0,0,,2,,,74,127
581,note_off,59,0,0,,2,,,74,127
581,note_off,0,0,0,,12,,,71,127
582,note_on,1,0,0,,10,,,69,127
582,note_on,0,0,0,,0,,,72,127
641,note_off,59,0,0,,0,,,72,127
641,note_off,0,0,0,,10,,,69,127
642,note_on,1,0,0,,8,,,68,127
642,note_on,0,0,0,,12,,,71,127
701,note_off,59,0,0,,12,,,71,127
701,note_off,0,0,0,,8,,,68,127
702,note_on,1,0,0,,10,,,69,127
702,note_on,0,0,0,,0,,,72,127
761,note_off,59,0,0,,0,,,72,127
761,note_off,0,0,0,,10,,,69,127
762,note_on,1,0,0,,5,,,53,127
762,note_on,0,0,0,,10,,,81,127
1003,note_off,241,0,0,,10,,,81,127
1003,note_off,0,0,0,,5,,,53,127
1004,note_on,1,0,0,,7,,,67,127
1004,note_on,0,0,0,,12,,,71,127
1063,note_off,59,0,0,,12,,,71,127
1063,note_off,0,0,0,,7,,,67,127
1064,note_on,1,0,0,,5,,,65,127
1064,note_on,0,0,0,,10,,,69,127
1123,note_off,59,0,0,,10,,,69,127
1123,note_off,0,0,0,,5,,,65,127
1124,note_on,1,0,0,,7,,,67,127
1124,note_on,0,0,0,,12,,,71,127
1183,note_off,59,0,0,,12,,,71,127
1183,note_off,0,0,0,,7,,,67,127
1184,note_on,1,0,0,,5,,,65,127
1184,note_on,0,0,0,,10,,,69,127
1243,note_off,59,0,0,,10,,,69,127
1243,note_off,0,0,0,,5,,,65,127
1244,note_on,1,0,0,,7,,,67,127
1244,note_on,0,0,0,,12,,,71,127
1303,note_off,59,0,0,,12,,,71,127
1303,note_off,0,0,0,,7,,,67,127
1304,note_on,1,0,0,,5,,,65,127
1304,note_on,0,0,0,,10,,,69,127
1363,note_off,59,0,0,,10,,,69,127
1363,note_off,0,0,0,,5,,,65,127
1364,note_on,1,0,0,,4,,,64,127
1364,note_on,0,0,0,,8,,,68,127
1423,note_off,59,0,0,,8,,,68,127
1423,note_off,0,0,0,,4,,,64,127
1424,note_on,1,0,0,,5,,,65,127
1424,note_on,0,0,0,,10,,,69,127
1483,note_off,59,0,0,,10,,,69,127
1483,note_off,0,0,0,,5,,,65,127
1484,note_on,1,0,0,,2,,,50,127
1484,note_on,0,0,0,,5,,,77,127
1725,note_off,241,0,0,,5,,,77,127
1725,note_off,0,0,0,,2,,,50,127
1726,note_on,1,0,0,,4,,,64,127
1726,note_on,0,0,0,,7,,,67,127
1785,note_off,59,0,0,,7,,,67,127
1785,note_off,0,0,0,,4,,,64,127
1786,note_on,1,0,0,,2,,,62,127
1786,note_on,0,0,0,,5,,,65,127
1845,note_off,59,0,0,,5,,,65,127
1845,note_off,0,0,0,,2,,,62,127
1846,note_on,1,0,0,,4,,,64,127
1846,note_on,0,0,0,,7,,,67,127
1905,note_off,59,0,0,,7,,,67,127
1905,note_off,0,0,0,,4,,,64,127
1906,note_on,1,0,0,,2,,,62,127
1906,note_on,0,0,0,,5,,,65,127
1965,note_off,59,0,0,,5,,,65,127
1965,note_off,0,0,0,,2,,,62,127
1966,note_on,1,0,0,,4,,,64,127
1966,note_on,0,0,0,,7,,,67,127
2025,note_off,59,0,0,,7,,,67,127
2025,note_off,0,0,0,,4,,,64,127
2026,note_on,1,0,0,,2,,,62,127
2026,note_on,0,0,0,,5,,,65,127
2085,note_off,59,0,0,,5,,,65,127
2085,note_off,0,0,0,,2,,,62,127
2086,note_on,1,0,0,,1,,,61,127
2086,note_on,0,0,0,,4,,,64,127
2145,note_off,59,0,0,,4,,,64,127
2145,note_off,0,0,0,,1,,,61,127
2146,note_on,1,0,0,,2,,,62,127
2146,note_on,0,0,0,,5,,,65,127
2205,note_off,59,0,0,,5,,,65,127
2205,note_off,0,0,0,,2,,,62,127
2206,note_on,1,0,0,,4,,,40,127
2206,note_on,0,0,0,,4,,,64,127
2326,note_off,120,0,0,,4,,,64,127
2327,note_on,1,0,0,,2,,,74,127
2447,note_off,120,0,0,,2,,,74,127
2448,note_on,1,0,0,,0,,,72,127
2568,note_off,120,0,0,,0,,,72,127
2569,note_on,1,0,0,,12,,,71,127
2689,note_off,120,0,0,,12,,,71,127
2690,note_on,1,0,0,,10,,,69,127
2810,note_off,120,0,0,,10,,,69,127
2811,note_on,1,0,0,,8,,,68,127
2931,note_off,120,0,0,,8,,,68,127
2931,note_off,0,0,0,,4,,,40,127
2932,note_on,1,0,0,,10,,,33,127
2932,note_on,0,0,0,,10,,,69,127
3052,note_off,120,0,0,,10,,,69,127
3053,note_on,1,0,0,,4,,,64,127
3173,note_off,120,0,0,,4,,,64,127
3174,note_on,1,0,0,,0,,,60,127
3294,note_off,120,0,0,,0,,,60,127
3295,note_on,1,0,0,,10,,,57,127
3415,note_off,120,0,0,,10,,,57,127
3415,note_off,0,0,0,,10,,,33,127
3416,note_on,1,0,0,,10,,,45,127
3657,note_off,241,0,0,,10,,,45,127
3658,note_on,1,0,0,,10,,,57,127
3658,note_on,0,0,0,,0,,,84,127
3899,note_off,241,0,0,,0,,,84,127
3899,note_off,0,0,0,,10,,,57,127
3900,note_on,1,0,0,,12,,,71,127
3900,note_on,0,0,0,,2,,,74,127
3959,note_off,59,0,0,,2,,,74,127
3959,note_off,0,0,0,,12,,,71,127
3960,note_on,1,0,0,,10,,,69,127
3960,note_on,0,0,0,,0,,,72,127
4019,note_off,59,0,0,,0,,,72,127
4019,note_off,0,0,0,,10,,,69,127
4020,note_on,1,0,0,,12,,,71,127
4020,note_on,0,0,0,,2,,,74,127
4079,note_off,59,0,0,,2,,,74,127
4079,note_off,0,0,0,,12,,,71,127
4080,note_on,1,0,0,,10,,,69,127
4080,note_on,0,0,0,,0,,,72,127
4139,note_off,59,0,0,,0,,,72,127
4139,note_off,0,0,0,,10,,,69,127
4140,note_on,1,0,0,,12,,,71,127
4140,note_on,0,0,0,,2,,,74,127
4199,note_off,59,0,0,,2,,,74,127
4199,note_off,0,0,0,,12,,,71,127
4200,note_on,1,0,0,,10,,,69,127
4200,note_on,0,0,0,,0,,,72,127
4259,note_off,59,0,0,,0,,,72,127
4259,note_off,0,0,0,,10,,,69,127
4260,note_on,1,0,0,,8,,,68,127
4260,note_on,0,0,0,,12,,,71,127
4319,note_off,59,0,0,,12,,,71,127
4319,note_off,0,0,0,,8,,,68,127
4320,note_on,1,0,0,,10,,,69,127
4320,note_on,0,0,0,,0,,,72,127
4379,note_off,59,0,0,,0,,,72,127
4379,note_off,0,0,0,,10,,,69,127
4380,note_on,1,0,0,,5,,,53,127
4380,note_on,0,0,0,,10,,,81,127
4621,note_off,241,0,0,,10,,,81,127
4621,note_off,0,0,0,,5,,,53,127
4622,note_on,1,0,0,,7,,,67,127
4622,note_on,0,0,0,,12,,,71,127
4681,note_off,59,0,0,,12,,,71,127
4681,note_off,0,0,0,,7,,,67,127
4682,note_on,1,0,0,,5,,,65,127
4682,note_on,0,0,0,,10,,,69,127
4741,note_off,59,0,0,,10,,,69,127
4741,note_off,0,0,0,,5,,,65,127
4742,note_on,1,0,0,,7,,,67,127
4742,note_on,0,0,0,,12,,,71,127
4801,note_off,59,0,0,,12,,,71,127
4801,note_off,0,0,0,,7,,,67,127
4802,note_on,1,0,0,,5,,,65,127
4802,note_on,0,0,0,,10,,,69,127
4861,note_off,59,0,0,,10,,,69,127
4861,note_off,0,0,0,,5,,,65,127
4862,note_on,1,0,0,,7,,,67,127
4862,note_on,0,0,0,,12,,,71,127
4921,note_off,59,0,0,,12,,,71,127
4921,note_off,0,0,0,,7,,,67,127
4922,note_on,1,0,0,,5,,,65,127
4922,note_on,0,0,0,,10,,,69,127
4981,note_off,59,0,0,,10,,,69,127
4981,note_off,0,0,0,,5,,,65,127
4982,note_on,1,0,0,,4,,,64,127
4982,note_on,0,0,0,,8,,,68,127
5041,note_off,59,0,0,,8,,,68,127
5041,note_off,0,0,0,,4,,,64,127
5042,note_on,1,0,0,,5,,,65,127
5042,note_on,0,0,0,,10,,,69,127
5101,note_off,59,0,0,,10,,,69,127
5101,note_off,0,0,0,,5,,,65,127
5102,note_on,1,0,0,,2,,,50,127
5102,note_on,0,0,0,,5,,,77,127
5343,note_off,241,0,0,,5,,,77,127
5343,note_off,0,0,0,,2,,,50,127
5344,note_on,1,0,0,,4,,,64,127
5344,note_on,0,0,0,,7,,,67,127
5403,note_off,59,0,0,,7,,,67,127
5403,note_off,0,0,0,,4,,,64,127
5404,note_on,1,0,0,,2,,,62,127
5404,note_on,0,0,0,,5,,,65,127
5463,note_off,59,0,0,,5,,,65,127
5463,note_off,0,0,0,,2,,,62,127
5464,note_on,1,0,0,,4,,,64,127
5464,note_on,0,0,0,,7,,,67,127
5523,note_off,59,0,0,,7,,,67,127
5523,note_off,0,0,0,,4,,,64,127
5524,note_on,1,0,0,,2,,,62,127
5524,note_on,0,0,0,,5,,,65,127
5583,note_off,59,0,0,,5,,,65,127
5583,note_off,0,0,0,,2,,,62,127
5584,note_on,1,0,0,,4,,,64,127
5584,note_on,0,0,0,,7,,,67,127
5643,note_off,59,0,0,,7,,,67,127
5643,note_off,0,0,0,,4,,,64,127
5644,note_on,1,0,0,,2,,,62,127
5644,note_on,0,0,0,,5,,,65,127
5703,note_off,59,0,0,,5,,,65,127
5703,note_off,0,0,0,,2,,,62,127
5704,note_on,1,0,0,,1,,,61,127
5704,note_on,0,0,0,,4,,,64,127
5763,note_off,59,0,0,,4,,,64,127
5763,note_off,0,0,0,,1,,,61,127
5764,note_on,1,0,0,,2,,,62,127
5764,note_on,0,0,0,,5,,,65,127
5823,note_off,59,0,0,,5,,,65,127
5823,note_off,0,0,0,,2,,,62,127
5824,note_on,1,0,0,,4,,,40,127
5824,note_on,0,0,0,,4,,,64,127
5944,note_off,120,0,0,,4,,,64,127
5945,note_on,1,0,0,,2,,,74,127
6065,note_off,120,0,0,,2,,,74,127
6066,note_on,1,0,0,,0,,,72,127
6186,note_off,120,0,0,,0,,,72,127
6187,note_on,1,0,0,,12,,,71,127
6307,note_off,120,0,0,,12,,,71,127
6308,note_on,1,0,0,,10,,,69,127
6428,note_off,120,0,0,,10,,,69,127
6429,note_on,1,0,0,,8,,,68,127
6505,note_off,76,0,0,,4,,,40,127
6549,note_off,44,0,0,,8,,,68,127
6550,note_on,1,0,0,,10,,,57,127
6550,note_on,0,0,0,,10,,,69,127
6671,note_on,121,0,0,,0,,,60,127
6791,note_off,120,0,0,,0,,,60,127
6792,note_on,1,0,0,,4,,,64,127
6891,note_off,99,0,0,,10,,,69,127
6912,note_off,21,0,0,,4,,,64,127
6913,note_on,1,0,0,,10,,,69,127
7033,note_off,120,0,0,,10,,,57,127
7034,note_on,1,0,0,,12,,,59,127
7154,note_off,120,0,0,,10,,,69,127
7155,note_on,1,0,0,,8,,,68,127
7275,note_off,120,0,0,,8,,,68,127
7275,note_off,0,0,0,,12,,,59,127
7276,note_on,1,0,0,,4,,,64,127
7276,note_on,0,0,0,,0,,,60,127
7276,note_on,0,0,0,,10,,,69,127
7397,note_on,121,0,0,,0,,,72,127
7517,note_off,120,0,0,,0,,,72,127
7518,note_on,1,0,0,,4,,,76,127
7638,note_off,120,0,0,,4,,,76,127
7639,note_on,1,0,0,,10,,,81,127
7759,note_off,120,0,0,,10,,,69,127
7759,note_off,0,0,0,,0,,,60,127
7759,note_off,0,0,0,,4,,,64,127
7760,note_on,1,0,0,,2,,,62,127
7760,note_on,0,0,0,,12,,,59,127
7760,note_on,0,0,0,,12,,,71,127
7880,note_off,120,0,0,,10,,,81,127
7881,note_on,1,0,0,,8,,,80,127
8001,note_off,120,0,0,,8,,,80,127
8001,note_off,0,0,0,,12,,,71,127
8001,note_off,0,0,0,,12,,,59,127
8001,note_off,0,0,0,,2,,,62,127
8002,note_on,1,0,0,,10,,,57,127
8002,note_on,0,0,0,,0,,,72,127
8002,note_on,0,0,0,,10,,,81,127
8123,note_on,121,0,0,,0,,,60,127
8243,note_off,120,0,0,,0,,,60,127
8244,note_on,1,0,0,,4,,,64,127
8364,note_off,120,0,0,,4,,,64,127
8365,note_on,1,0,0,,10,,,69,127
8485,note_off,120,0,0,,10,,,81,127
8485,note_off,0,0,0,,0,,,72,127
8485,note_off,0,0,0,,10,,,57,127
8486,note_on,1,0,0,,12,,,59,127
8606,note_off,120,0,0,,10,,,69,127
8607,note_on,1,0,0,,8,,,68,127
8727,note_off,120,0,0,,8,,,68,127
8727,note_off,0,0,0,,12,,,59,127
8728,note_on,1,0,0,,0,,,60,127
8728,note_on,0,0,0,,4,,,64,127
8728,note_on,0,0,0,,10,,,69,127
8849,note_on,121,0,0,,0,,,72,127
8969,note_off,120,0,0,,0,,,72,127
8970,note_on,1,0,0,,4,,,76,127
9090,note_off,120,0,0,,4,,,76,127
9091,note_on,1,0,0,,10,,,81,127
9211,note_off,120,0,0,,10,,,69,127
9211,note_off,0,0,0,,4,,,64,127
9211,note_off,0,0,0,,0,,,60,127
9212,note_on,1,0,0,,12,,,59,127
9212,note_on,0,0,0,,2,,,62,127
9212,note_on,0,0,0,,12,,,71,127
9332,note_off,120,0,0,,10,,,81,127
9333,note_on,1,0,0,,12,,,83,127
9453,note_off,120,0,0,,12,,,83,127
9453,note_off,0,0,0,,12,,,71,127
9453,note_off,0,0,0,,2,,,62,127
9453,note_off,0,0,0,,12,,,59,127
9454,note_on,1,0,0,,10,,,69,127
9454,note_on,0,0,0,,10,,,57,127
9454,note_on,0,0,0,,0,,,84,127
9574,note_off,120,0,0,,0,,,84,127
9575,note_on,1,0,0,,0,,,72,127
9695,note_off,120,0,0,,0,,,72,127
9695,note_off,0,0,0,,10,,,69,127
9696,note_on,1,0,0,,7,,,67,127
9696,note_on,0,0,0,,12,,,71,127
9731,note_off,35,0,0,,10,,,57,127
9816,note_off,85,0,0,,12,,,71,127
9817,note_on,1,0,0,,12,,,83,127
9937,note_off,120,0,0,,12,,,83,127
9937,note_off,0,0,0,,7,,,67,127
9938,note_on,1,0,0,,5,,,65,127
9938,note_on,0,0,0,,10,,,81,127
10058,note_off,120,0,0,,10,,,81,127
10059,note_on,1,0,0,,10,,,69,127
10179,note_off,120,0,0,,10,,,69,127
10179,note_off,0,0,0,,5,,,65,127
10180,note_on,1,0,0,,4,,,64,127
10180,note_on,0,0,0,,7,,,79,127
10300,note_off,120,0,0,,7,,,79,127
10301,note_on,1,0,0,,7,,,67,127
10421,note_off,120,0,0,,7,,,67,127
10422,note_on,1,0,0,,5,,,65,127
10542,note_off,120,0,0,,5,,,65,127
10542,note_off,0,0,0,,4,,,64,127
10543,note_on,1,0,0,,2,,,62,127
10543,note_on,0,0,0,,5,,,77,127
10663,note_off,120,0,0,,5,,,77,127
10663,note_off,0,0,0,,2,,,62,127
10664,note_on,1,0,0,,0,,,60,127
10664,note_on,0,0,0,,4,,,76,127
10784,note_off,120,0,0,,4,,,76,127
10785,note_on,1,0,0,,4,,,64,127
10905,note_off,120,0,0,,4,,,64,127
10905,note_off,0,0,0,,0,,,60,127
10906,note_on,1,0,0,,4,,,64,127
10906,note_on,0,0,0,,7,,,79,127
11026,note_off,120,0,0,,7,,,79,127
11027,note_on,1,0,0,,7,,,67,127
11147,note_off,120,0,0,,7,,,67,127
11148,note_on,1,0,0,,5,,,65,127
11268,note_off,120,0,0,,5,,,65,127
11268,note_off,0,0,0,,4,,,64,127
11269,note_on,1,0,0,,2,,,62,127
11269,note_on,0,0,0,,5,,,77,127
11389,note_off,120,0,0,,5,,,77,127
11389,note_off,0,0,0,,2,,,62,127
11390,note_on,1,0,0,,0,,,60,127
11390,note_on,0,0,0,,4,,,76,127
11510,note_off,120,0,0,,4,,,76,127
11511,note_on,1,0,0,,4,,,64,127
11631,note_off,120,0,0,,4,,,64,127
11631,note_off,0,0,0,,0,,,60,127
11632,note_on,1,0,0,,4,,,64,127
11632,note_on,0,0,0,,7,,,79,127
11752,note_off,120,0,0,,7,,,79,127
11753,note_on,1,0,0,,7,,,67,127
11873,note_off,120,0,0,,7,,,67,127
11874,note_on,1,0,0,,5,,,65,127
11994,note_off,120,0,0,,5,,,65,127
11994,note_off,0,0,0,,4,,,64,127
11995,note_on,1,0,0,,2,,,62,127
11995,note_on,0,0,0,,5,,,77,127
12115,note_off,120,0,0,,5,,,77,127
12115,note_off,0,0,0,,2,,,62,127
12116,note_on,1,0,0,,0,,,60,127
12116,note_on,0,0,0,,4,,,76,127
12236,note_off,120,0,0,,4,,,76,127
12237,note_on,1,0,0,,4,,,64,127
12357,note_off,120,0,0,,4,,,64,127
12357,note_off,0,0,0,,0,,,60,127
12358,note_on,1,0,0,,5,,,53,127
12358,note_on,0,0,0,,10,,,81,127
12478,note_off,120,0,0,,10,,,81,127
12479,note_on,1,0,0,,5,,,77,127
12600,note_on,121,0,0,,5,,,65,127
12720,note_off,120,0,0,,5,,,77,127
12721,note_on,1,0,0,,2,,,74,127
12837,note_off,116,0,0,,5,,,53,127
12841,note_off,4,0,0,,5,,,65,127
12842,note_on,1,0,0,,5,,,53,127
12962,note_off,120,0,0,,2,,,74,127
12963,note_on,1,0,0,,0,,,72,127
13083,note_off,120,0,0,,5,,,53,127
13084,note_on,1,0,0,,7,,,55,127
13140,note_off,56,0,0,,0,,,72,127
13145,note_on,5,0,0,,12,,,71,127
13204,note_off,59,0,0,,12,,,71,127
13205,note_on,1,0,0,,0,,,72,127
13264,note_off,59,0,0,,0,,,72,127
13265,note_on,1,0,0,,12,,,71,127
13324,note_off,59,0,0,,12,,,71,127
13325,note_on,1,0,0,,7,,,43,127
13325,note_on,0,0,0,,0,,,72,127
13384,note_off,59,0,0,,0,,,72,127
13385,note_on,1,0,0,,12,,,71,127
13444,note_off,59,0,0,,12,,,71,127
13445,note_on,1,0,0,,10,,,69,127
13565,note_off,120,0,0,,10,,,69,127
13566,note_on,1,0,0,,7,,,67,127
13728,note_off,162,0,0,,7,,,43,127
13806,note_off,78,0,0,,7,,,67,127
13807,note_off,1,0,0,,7,,,55,127
13808,note_on,1,0,0,,7,,,55,127
13808,note_on,0,0,0,,7,,,67,127
13929,note_on,121,0,0,,7,,,79,127
14049,note_off,120,0,0,,7,,,79,127
14050,note_on,1,0,0,,2,,,74,127
14170,note_off,120,0,0,,7,,,67,127
14171,note_on,1,0,0,,3,,,63,127
14291,note_off,120,0,0,,3,,,63,127
14291,note_off,0,0,0,,7,,,55,127
14292,note_on,1,0,0,,5,,,65,127
14292,note_on,0,0,0,,8,,,56,127
14412,note_off,120,0,0,,2,,,74,127
14413,note_on,1,0,0,,0,,,72,127
14533,note_off,120,0,0,,0,,,72,127
14533,note_off,0,0,0,,8,,,56,127
14533,note_off,0,0,0,,5,,,65,127
14534,note_on,1,0,0,,7,,,67,127
14534,note_on,0,0,0,,7,,,55,127
14534,note_on,0,0,0,,12,,,71,127
14654,note_off,120,0,0,,12,,,71,127
14655,note_on,1,0,0,,7,,,79,127
14775,note_off,120,0,0,,7,,,79,127
14776,note_on,1,0,0,,2,,,74,127
14896,note_off,120,0,0,,7,,,67,127
14897,note_on,1,0,0,,3,,,63,127
15017,note_off,120,0,0,,3,,,63,127
15017,note_off,0,0,0,,7,,,55,127
15018,note_on,1,0,0,,5,,,65,127
15018,note_on,0,0,0,,8,,,56,127
15138,note_off,120,0,0,,2,,,74,127
15139,note_on,1,0,0,,0,,,72,127
15259,note_off,120,0,0,,0,,,72,127
15259,note_off,0,0,0,,8,,,56,127
15259,note_off,0,0,0,,5,,,65,127
15260,note_on,1,0,0,,7,,,67,127
15260,note_on,0,0,0,,7,,,55,127
15260,note_on,0,0,0,,12,,,71,127
15380,note_off,120,0,0,,12,,,71,127
15381,note_on,1,0,0,,7,,,79,127
15501,note_off,120,0,0,,7,,,79,127
15502,note_on,1,0,0,,2,,,74,127
15622,note_off,120,0,0,,7,,,67,127
15623,note_on,1,0,0,,3,,,63,127
15743,note_off,120,0,0,,3,,,63,127
15743,note_off,0,0,0,,7,,,55,127
15744,note_on,1,0,0,,5,,,65,127
15744,note_on,0,0,0,,8,,,56,127
15864,note_off,120,0,0,,2,,,74,127
15865,note_on,1,0,0,,0,,,72,127
15985,note_off,120,0,0,,0,,,72,127
15985,note_off,0,0,0,,8,,,56,127
15985,note_off,0,0,0,,5,,,65,127
15986,note_on,1,0,0,,7,,,67,127
15986,note_on,0,0,0,,7,,,55,127
15986,note_on,0,0,0,,12,,,71,127
16106,note_off,120,0,0,,12,,,71,127
16107,note_on,1,0,0,,5,,,77,127
16227,note_off,120,0,0,,5,,,77,127
16228,note_on,1,0,0,,8,,,68,127
16348,note_off,120,0,0,,7,,,55,127
16348,note_off,0,0,0,,7,,,67,127
16349,note_on,1,0,0,,12,,,59,127
16469,note_off,120,0,0,,12,,,59,127
16470,note_on,1,0,0,,0,,,60,127
16590,note_off,120,0,0,,8,,,68,127
16591,note_on,1,0,0,,7,,,67,127
16711,note_off,120,0,0,,7,,,67,127
16711,note_off,0,0,0,,0,,,60,127
16712,note_on,1,0,0,,5,,,65,127
16712,note_on,0,0,0,,12,,,59,127
16712,note_on,0,0,0,,8,,,68,127
16832,note_off,120,0,0,,8,,,68,127
16833,note_on,1,0,0,,5,,,77,127
16953,note_off,120,0,0,,5,,,77,127
16954,note_on,1,0,0,,8,,,68,127
17074,note_off,120,0,0,,12,,,59,127
17074,note_off,0,0,0,,5,,,65,127
17075,note_on,1,0,0,,12,,,59,127
17195,note_off,120,0,0,,12,,,59,127
17196,note_on,1,0,0,,0,,,60,127
17316,note_off,120,0,0,,8,,,68,127
17317,note_on,1,0,0,,7,,,67,127
17437,note_off,120,0,0,,7,,,67,127
17437,note_off,0,0,0,,0,,,60,127
17438,note_on,1,0,0,,5,,,65,127
17438,note_on,0,0,0,,12,,,59,127
17438,note_on,0,0,0,,8,,,68,127
17558,note_off,120,0,0,,8,,,68,127
17559,note_on,1,0,0,,5,,,77,127
17679,note_off,120,0,0,,5,,,77,127
17680,note_on,1,0,0,,8,,,68,127
17800,note_off,120,0,0,,12,,,59,127
17800,note_off,0,0,0,,5,,,65,127
17801,note_on,1,0,0,,12,,,59,127
17921,note_off,120,0,0,,12,,,59,127
17922,note_on,1,0,0,,0,,,60,127
18042,note_off,120,0,0,,8,,,68,127
18043,note_on,1,0,0,,7,,,67,127
18163,note_off,120,0,0,,7,,,67,127
18163,note_off,0,0,0,,0,,,60,127
18164,note_on,1,0,0,,5,,,53,127
18164,note_on,0,0,0,,5,,,77,127
18284,note_off,120,0,0,,5,,,77,127
18285,note_on,1,0,0,,2,,,74,127
18405,note_off,120,0,0,,5,,,53,127
18406,note_on,1,0,0,,7,,,55,127
18526,note_off,120,0,0,,2,,,74,127
18527,note_on,1,0,0,,12,,,71,127
18647,note_off,120,0,0,,7,,,55,127
18648,note_on,1,0,0,,8,,,56,127
18768,note_off,120,0,0,,12,,,71,127
18769,note_on,1,0,0,,0,,,72,127
18874,note_off,105,0,0,,0,,,72,127
18875,note_off,1,0,0,,8,,,56,127
18890,note_on,15,0,0,,7,,,67,127
18890,note_on,0,0,0,,7,,,55,127
18890,note_on,0,0,0,,2,,,74,127
19010,note_off,120,0,0,,2,,,74,127
19011,note_on,1,0,0,,7,,,79,127
19131,note_off,120,0,0,,7,,,79,127
19132,note_on,1,0,0,,2,,,74,127
19252,note_off,120,0,0,,7,,,67,127
19253,note_on,1,0,0,,3,,,63,127
19373,note_off,120,0,0,,3,,,63,127
19373,note_off,0,0,0,,7,,,55,127
19374,note_on,1,0,0,,5,,,65,127
19374,note_on,0,0,0,,8,,,56,127
19494,note_off,120,0,0,,2,,,74,127
19495,note_on,1,0,0,,0,,,72,127
19615,note_off,120,0,0,,0,,,72,127
19615,note_off,0,0,0,,8,,,56,127
19615,note_off,0,0,0,,5,,,65,127
19616,note_on,1,0,0,,7,,,67,127
19616,note_on,0,0,0,,7,,,55,127
19616,note_on,0,0,0,,12,,,71,127
19736,note_off,120,0,0,,12,,,71,127
19737,note_on,1,0,0,,7,,,79,127
19857,note_off,120,0,0,,7,,,79,127
19858,note_on,1,0,0,,2,,,74,127
19978,note_off,120,0,0,,7,,,67,127
19979,note_on,1,0,0,,3,,,63,127
20099,note_off,120,0,0,,3,,,63,127
20099,note_off,0,0,0,,7,,,55,127
20100,note_on,1,0,0,,8,,,56,127
20100,note_on,0,0,0,,5,,,65,127
20220,note_off,120,0,0,,2,,,74,127
20221,note_on,1,0,0,,0,,,72,127
20341,note_off,120,0,0,,0,,,72,127
20341,note_off,0,0,0,,5,,,65,127
20341,note_off,0,0,0,,8,,,56,127
20342,note_on,1,0,0,,7,,,67,127
20342,note_on,0,0,0,,7,,,55,127
20342,note_on,0,0,0,,12,,,71,127
20462,note_off,120,0,0,,12,,,71,127
20463,note_on,1,0,0,,5,,,77,127
20583,note_off,120,0,0,,5,,,77,127
20584,note_on,1,0,0,,8,,,68,127
20704,note_off,120,0,0,,7,,,55,127
20704,note_off,0,0,0,,7,,,67,127
20705,note_on,1,0,0,,12,,,59,127
20825,note_off,120,0,0,,12,,,59,127
20826,note_on,1,0,0,,0,,,60,127
20946,note_off,120,0,0,,8,,,68,127
20947,note_on,1,0,0,,7,,,67,127
21067,note_off,120,0,0,,7,,,67,127
21067,note_off,0,0,0,,0,,,60,127
21068,note_on,1,0,0,,5,,,65,127
21068,note_on,0,0,0,,12,,,59,127
21068,note_on,0,0,0,,8,,,68,127
21188,note_off,120,0,0,,8,,,68,127
21189,note_on,1,0,0,,5,,,77,127
21309,note_off,120,0,0,,5,,,77,127
21310,note_on,1,0,0,,8,,,68,127
21430,note_off,120,0,0,,12,,,59,127
21430,note_off,0,0,0,,5,,,65,127
21431,note_on,1,0,0,,12,,,59,127
21551,note_off,120,0,0,,12,,,59,127
21552,note_on,1,0,0,,0,,,60,127
21672,note_off,120,0,0,,8,,,68,127
21673,note_on,1,0,0,,7,,,67,127
21793,note_off,120,0,0,,7,,,67,127
21793,note_off,0,0,0,,0,,,60,127
21794,note_on,1,0,0,,5,,,65,127
21794,note_on,0,0,0,,8,,,68,127
21914,note_off,120,0,0,,8,,,68,127
21915,note_on,1,0,0,,5,,,77,127
22035,note_off,120,0,0,,5,,,77,127
22035,note_off,0,0,0,,5,,,65,127
22036,note_on,1,0,0,,7,,,67,127
22036,note_on,0,0,0,,3,,,75,127
22156,note_off,120,0,0,,3,,,75,127
22157,note_on,1,0,0,,2,,,74,127
22277,note_off,120,0,0,,2,,,74,127
22277,note_off,0,0,0,,7,,,67,127
22278,note_on,1,0,0,,7,,,55,127
22278,note_on,0,0,0,,0,,,72,127
22398,note_off,120,0,0,,0,,,72,127
22399,note_on,1,0,0,,12,,,71,127
22503,note_off,104,0,0,,12,,,71,127
22519,note_off,16,0,0,,7,,,55,127
22520,note_on,1,0,0,,0,,,72,127
22520,note_on,0,0,0,,0,,,60,127
22641,note_on,121,0,0,,3,,,75,127
22761,note_off,120,0,0,,3,,,75,127
22762,note_on,1,0,0,,4,,,76,127
22882,note_off,120,0,0,,0,,,60,127
22882,note_off,0,0,0,,0,,,72,127
22883,note_on,1,0,0,,12,,,71,127
22883,note_on,0,0,0,,12,,,59,127
23003,note_off,120,0,0,,12,,,59,127
23003,note_off,0,0,0,,12,,,71,127
23004,note_on,1,0,0,,10,,,69,127
23004,note_on,0,0,0,,10,,,57,127
23124,note_off,120,0,0,,10,,,57,127
23124,note_off,0,0,0,,10,,,69,127
23125,note_on,1,0,0,,7,,,67,127
23125,note_on,0,0,0,,7,,,55,127
23245,note_off,120,0,0,,7,,,55,127
23245,note_off,0,0,0,,7,,,67,127
23245,note_off,0,0,0,,4,,,76,127
23246,note_on,1,0,0,,5,,,65,127
23246,note_on,0,0,0,,5,,,53,127
23367,note_on,121,0,0,,8,,,80,127
23487,note_off,120,0,0,,8,,,80,127
23488,note_on,1,0,0,,10,,,81,127
23608,note_off,120,0,0,,5,,,53,127
23608,note_off,0,0,0,,5,,,65,127
23609,note_on,1,0,0,,4,,,64,127
23609,note_on,0,0,0,,4,,,52,127
23729,note_off,120,0,0,,4,,,52,127
23729,note_off,0,0,0,,4,,,64,127
23730,note_on,1,0,0,,2,,,50,127
23730,note_on,0,0,0,,2,,,62,127
23850,note_off,120,0,0,,2,,,62,127
23850,note_off,0,0,0,,2,,,50,127
23851,note_on,1,0,0,,0,,,60,127
23851,note_on,0,0,0,,0,,,48,127
23971,note_off,120,0,0,,0,,,48,127
23971,note_off,0,0,0,,0,,,60,127
23972,note_on,1,0,0,,12,,,59,127
23972,note_on,0,0,0,,12,,,47,127
24092,note_off,120,0,0,,10,,,81,127
24093,note_on,1,0,0,,1,,,85,127
24213,note_off,120,0,0,,1,,,85,127
24214,note_on,1,0,0,,2,,,86,127
24334,note_off,120,0,0,,12,,,47,127
24334,note_off,0,0,0,,12,,,59,127
24335,note_on,1,0,0,,10,,,45,127
24335,note_on,0,0,0,,10,,,57,127
24455,note_off,120,0,0,,10,,,57,127
24455,note_off,0,0,0,,10,,,45,127
24456,note_on,1,0,0,,7,,,43,127
24456,note_on,0,0,0,,7,,,55,127
24576,note_off,120,0,0,,7,,,55,127
24576,note_off,0,0,0,,7,,,43,127
24577,note_on,1,0,0,,5,,,53,127
24577,note_on,0,0,0,,5,,,41,127
24697,note_off,120,0,0,,5,,,41,127
24697,note_off,0,0,0,,5,,,53,127
24697,note_off,0,0,0,,2,,,86,127
24698,note_on,1,0,0,,4,,,52,127
24698,note_on,0,0,0,,4,,,40,127
24819,note_on,121,0,0,,6,,,90,127
24939,note_off,120,0,0,,6,,,90,127
24940,note_on,1,0,0,,7,,,91,127
25060,note_off,120,0,0,,4,,,40,127
25060,note_off,0,0,0,,4,,,52,127
25061,note_on,1,0,0,,2,,,50,127
25061,note_on,0,0,0,,2,,,38,127
25181,note_off,120,0,0,,2,,,38,127
25181,note_off,0,0,0,,2,,,50,127
25182,note_on,1,0,0,,0,,,36,127
25182,note_on,0,0,0,,0,,,48,127
25303,note_on,121,0,0,,7,,,79,127
25423,note_off,120,0,0,,7,,,79,127
25423,note_off,0,0,0,,0,,,48,127
25423,note_off,0,0,0,,0,,,36,127
25423,note_off,0,0,0,,7,,,91,127
25424,note_on,1,0,0,,5,,,53,127
25424,note_on,0,0,0,,10,,,81,127
25545,note_on,121,0,0,,5,,,89,127
25665,note_off,120,0,0,,10,,,81,127
25665,note_off,0,0,0,,5,,,53,127
25666,note_on,1,0,0,,7,,,55,127
25666,note_on,0,0,0,,7,,,79,127
25786,note_off,120,0,0,,5,,,89,127
25787,note_on,1,0,0,,4,,,88,127
25907,note_off,120,0,0,,7,,,79,127
25908,note_on,1,0,0,,7,,,43,127
25908,note_on,0,0,0,,5,,,77,127
26028,note_off,120,0,0,,4,,,88,127
26029,note_on,1,0,0,,2,,,86,127
26130,note_off,101,0,0,,2,,,86,127
26149,note_off,19,0,0,,5,,,77,127
26149,note_off,0,0,0,,7,,,43,127
26149,note_off,0,0,0,,7,,,55,127
26150,note_on,1,0,0,,0,,,72,127
26150,note_on,0,0,0,,0,,,60,127
26271,note_on,121,0,0,,3,,,75,127
26391,note_off,120,0,0,,3,,,75,127
26392,note_on,1,0,0,,4,,,64,127
26392,note_on,0,0,0,,4,,,76,127
26512,note_off,120,0,0,,0,,,60,127
26512,note_off,0,0,0,,0,,,72,127
26513,note_on,1,0,0,,12,,,71,127
26513,note_on,0,0,0,,12,,,59,127
26633,note_off,120,0,0,,12,,,59,127
26633,note_off,0,0,0,,12,,,71,127
26634,note_on,1,0,0,,10,,,57,127
26634,note_on,0,0,0,,10,,,69,127
26754,note_off,120,0,0,,10,,,69,127
26754,note_off,0,0,0,,10,,,57,127
26755,note_on,1,0,0,,7,,,67,127
26755,note_on,0,0,0,,7,,,55,127
26875,note_off,120,0,0,,7,,,55,127
26875,note_off,0,0,0,,7,,,67,127
26875,note_off,0,0,0,,4,,,76,127
26875,note_off,0,0,0,,4,,,64,127
26876,note_on,1,0,0,,5,,,65,127
26876,note_on,0,0,0,,5,,,53,127
26997,note_on,121,0,0,,8,,,68,127
26997,note_on,0,0,0,,8,,,80,127
27117,note_off,120,0,0,,8,,,80,127
27117,note_off,0,0,0,,8,,,68,127
27118,note_on,1,0,0,,10,,,69,127
27118,note_on,0,0,0,,10,,,81,127
27238,note_off,120,0,0,,5,,,53,127
27238,note_off,0,0,0,,5,,,65,127
27239,note_on,1,0,0,,4,,,64,127
27239,note_on,0,0,0,,4,,,52,127
27359,note_off,120,0,0,,4,,,52,127
27359,note_off,0,0,0,,4,,,64,127
27360,note_on,1,0,0,,2,,,62,127
27360,note_on,0,0,0,,2,,,50,127
27480,note_off,120,0,0,,2,,,50,127
27480,note_off,0,0,0,,2,,,62,127
27481,note_on,1,0,0,,0,,,48,127
27481,note_on,0,0,0,,0,,,60,127
27601,note_off,120,0,0,,0,,,60,127
27601,note_off,0,0,0,,0,,,48,127
27601,note_off,0,0,0,,10,,,81,127
27601,note_off,0,0,0,,10,,,69,127
27602,note_on,1,0,0,,12,,,59,127
27602,note_on,0,0,0,,12,,,47,127
27723,note_on,121,0,0,,1,,,73,127
27723,note_on,0,0,0,,1,,,85,127
27843,note_off,120,0,0,,1,,,85,127
27843,note_off,0,0,0,,1,,,73,127
27844,note_on,1,0,0,,2,,,74,127
27844,note_on,0,0,0,,2,,,86,127
27964,note_off,120,0,0,,12,,,47,127
27964,note_off,0,0,0,,12,,,59,127
27965,note_on,1,0,0,,10,,,57,127
27965,note_on,0,0,0,,10,,,45,127
28085,note_off,120,0,0,,10,,,45,127
28085,note_off,0,0,0,,10,,,57,127
28086,note_on,1,0,0,,7,,,55,127
28086,note_on,0,0,0,,7,,,43,127
28206,note_off,120,0,0,,7,,,43,127
28206,note_off,0,0,0,,7,,,55,127
28207,note_on,1,0,0,,5,,,53,127
28207,note_on,0,0,0,,5,,,41,127
28327,note_off,120,0,0,,5,,,41,127
28327,note_off,0,0,0,,5,,,53,127
28327,note_off,0,0,0,,2,,,86,127
28327,note_off,0,0,0,,2,,,74,127
28328,note_on,1,0,0,,4,,,40,127
28328,note_on,0,0,0,,4,,,52,127
28449,note_on,121,0,0,,6,,,78,127
28449,note_on,0,0,0,,6,,,90,127
28569,note_off,120,0,0,,6,,,90,127
28569,note_off,0,0,0,,6,,,78,127
28570,note_on,1,0,0,,7,,,79,127
28570,note_on,0,0,0,,7,,,91,127
28690,note_off,120,0,0,,4,,,52,127
28690,note_off,0,0,0,,4,,,40,127
28691,note_on,1,0,0,,2,,,50,127
28691,note_on,0,0,0,,2,,,38,127
28810,note_off,119,0,0,,7,,,79,127
28811,note_off,1,0,0,,2,,,38,127
28811,note_off,0,0,0,,2,,,50,127
28812,note_on,1,0,0,,0,,,48,127
28812,note_on,0,0,0,,0,,,36,127
28933,note_on,121,0,0,,7,,,79,127
29053,note_off,120,0,0,,7,,,79,127
29053,note_off,0,0,0,,0,,,36,127
29053,note_off,0,0,0,,0,,,48,127
29053,note_off,0,0,0,,7,,,91,127
29054,note_on,1,0,0,,5,,,53,127
29054,note_on,0,0,0,,10,,,81,127
29175,note_on,121,0,0,,5,,,89,127
29295,note_off,120,0,0,,10,,,81,127
29295,note_off,0,0,0,,5,,,53,127
29296,note_on,1,0,0,,7,,,55,127
29296,note_on,0,0,0,,7,,,79,127
29416,note_off,120,0,0,,5,,,89,127
29417,note_on,1,0,0,,4,,,88,127
29537,note_off,120,0,0,,7,,,79,127
29538,note_on,1,0,0,,7,,,43,127
29538,note_on,0,0,0,,5,,,77,127
29658,note_off,120,0,0,,4,,,88,127
29659,note_on,1,0,0,,2,,,86,127
29779,note_off,120,0,0,,2,,,86,127
29779,note_off,0,0,0,,5,,,77,127
29779,note_off,0,0,0,,7,,,43,127
29779,note_off,0,0,0,,7,,,55,127
29780,note_on,1,0,0,,0,,,48,127
29780,note_on,0,0,0,,0,,,84,127
29900,note_off,120,0,0,,0,,,84,127
29901,note_on,1,0,0,,7,,,79,127
30021,note_off,120,0,0,,7,,,79,127
30022,note_on,1,0,0,,4,,,76,127
30142,note_off,120,0,0,,4,,,76,127
30143,note_on,1,0,0,,0,,,72,127
30263,note_off,120,0,0,,0,,,72,127
30263,note_off,0,0,0,,0,,,48,127
30264,note_on,1,0,0,,4,,,52,127
30264,note_on,0,0,0,,7,,,67,127
30385,note_on,121,0,0,,4,,,76,127
30505,note_off,120,0,0,,7,,,67,127
30505,note_off,0,0,0,,4,,,52,127
30506,note_on,1,0,0,,5,,,41,127
30506,note_on,0,0,0,,5,,,65,127
30626,note_off,120,0,0,,4,,,76,127
30627,note_on,1,0,0,,2,,,74,127
30747,note_off,120,0,0,,5,,,65,127
30747,note_off,0,0,0,,5,,,41,127
30748,note_on,1,0,0,,7,,,43,127
30748,note_on,0,0,0,,4,,,64,127
30868,note_off,120,0,0,,2,,,74,127
30869,note_on,1,0,0,,0,,,72,127
30989,note_off,120,0,0,,4,,,64,127
30990,note_on,1,0,0,,7,,,31,127
30990,note_on,0,0,0,,2,,,62,127
31110,note_off,120,0,0,,0,,,72,127
31111,note_on,1,0,0,,12,,,71,127
31231,note_off,120,0,0,,12,,,71,127
31231,note_off,0,0,0,,2,,,62,127
31231,note_off,0,0,0,,7,,,31,127
31231,note_off,0,0,0,,7,,,43,127
31232,note_on,1,0,0,,0,,,36,127
31232,note_on,0,0,0,,0,,,72,127
31958,note_off,726,0,0,,0,,,72,127
31958,note_off,0,0,0,,0,,,36,127
31959,note_on,1,0,0,,0,,,48,127
31959,note_on,0,0,0,,7,,,79,127
32200,note_off,241,0,0,,7,,,79,127
32200,note_off,0,0,0,,0,,,48,127
32201,note_on,1,0,0,,5,,,65,127
32201,note_on,0,0,0,,10,,,69,127
32260,note_off,59,0,0,,10,,,69,127
32260,note_off,0,0,0,,5,,,65,127
32261,note_on,1,0,0,,4,,,64,127
32261,note_on,0,0,0,,7,,,67,127
32320,note_off,59,0,0,,7,,,67,127
32320,note_off,0,0,0,,4,,,64,127
32321,note_on,1,0,0,,5,,,65,127
32321,note_on,0,0,0,,10,,,69,127
32380,note_off,59,0,0,,10,,,69,127
32380,note_off,0,0,0,,5,,,65,127
32381,note_on,1,0,0,,4,,,64,127
32381,note_on,0,0,0,,7,,,67,127
32440,note_off,59,0,0,,7,,,67,127
32440,note_off,0,0,0,,4,,,64,127
32441,note_on,1,0,0,,5,,,65,127
32441,note_on,0,0,0,,10,,,69,127
32500,note_off,59,0,0,,10,,,69,127
32500,note_off,0,0,0,,5,,,65,127
32501,note_on,1,0,0,,4,,,64,127
32501,note_on,0,0,0,,7,,,67,127
32560,note_off,59,0,0,,7,,,67,127
32560,note_off,0,0,0,,4,,,64,127
32561,note_on,1,0,0,,2,,,62,127
32561,note_on,0,0,0,,5,,,65,127
32620,note_off,59,0,0,,5,,,65,127
32620,note_off,0,0,0,,2,,,62,127
32621,note_on,1,0,0,,4,,,64,127
32621,note_on,0,0,0,,7,,,67,127
32680,note_off,59,0,0,,7,,,67,127
32680,note_off,0,0,0,,4,,,64,127
32681,note_on,1,0,0,,5,,,53,127
32681,note_on,0,0,0,,10,,,81,127
32922,note_off,241,0,0,,10,,,81,127
32922,note_off,0,0,0,,5,,,53,127
32923,note_on,1,0,0,,7,,,67,127
32923,note_on,0,0,0,,12,,,71,127
32982,note_off,59,0,0,,12,,,71,127
32982,note_off,0,0,0,,7,,,67,127
32983,note_on,1,0,0,,5,,,65,127
32983,note_on,0,0,0,,10,,,69,127
33042,note_off,59,0,0,,10,,,69,127
33042,note_off,0,0,0,,5,,,65,127
33043,note_on,1,0,0,,7,,,67,127
33043,note_on,0,0,0,,12,,,71,127
33102,note_off,59,0,0,,12,,,71,127
33102,note_off,0,0,0,,7,,,67,127
33103,note_on,1,0,0,,5,,,65,127
33103,note_on,0,0,0,,10,,,69,127
33162,note_off,59,0,0,,10,,,69,127
33162,note_off,0,0,0,,5,,,65,127
33163,note_on,1,0,0,,7,,,67,127
33163,note_on,0,0,0,,12,,,71,127
33222,note_off,59,0,0,,12,,,71,127
33222,note_off,0,0,0,,7,,,67,127
33223,note_on,1,0,0,,5,,,65,127
33223,note_on,0,0,0,,10,,,69,127
33282,note_off,59,0,0,,10,,,69,127
33282,note_off,0,0,0,,5,,,65,127
33283,note_on,1,0,0,,4,,,64,127
33283,note_on,0,0,0,,7,,,67,127
33342,note_off,59,0,0,,7,,,67,127
33342,note_off,0,0,0,,4,,,64,127
33343,note_on,1,0,0,,5,,,65,127
33343,note_on,0,0,0,,10,,,69,127
33402,note_off,59,0,0,,10,,,69,127
33402,note_off,0,0,0,,5,,,65,127
33403,note_on,1,0,0,,7,,,55,127
33403,note_on,0,0,0,,12,,,83,127
33644,note_off,241,0,0,,12,,,83,127
33644,note_off,0,0,0,,7,,,55,127
33645,note_on,1,0,0,,10,,,69,127
33645,note_on,0,0,0,,0,,,72,127
33704,note_off,59,0,0,,0,,,72,127
33704,note_off,0,0,0,,10,,,69,127
33705,note_on,1,0,0,,7,,,67,127
33705,note_on,0,0,0,,12,,,71,127
33764,note_off,59,0,0,,12,,,71,127
33764,note_off,0,0,0,,7,,,67,127
33765,note_on,1,0,0,,10,,,69,127
33765,note_on,0,0,0,,0,,,72,127
33824,note_off,59,0,0,,0,,,72,127
33824,note_off,0,0,0,,10,,,69,127
33825,note_on,1,0,0,,7,,,67,127
33825,note_on,0,0,0,,12,,,71,127
33884,note_off,59,0,0,,12,,,71,127
33884,note_off,0,0,0,,7,,,67,127
33885,note_on,1,0,0,,10,,,69,127
33885,note_on,0,0,0,,0,,,72,127
33944,note_off,59,0,0,,0,,,72,127
33944,note_off,0,0,0,,10,,,69,127
33945,note_on,1,0,0,,7,,,67,127
33945,note_on,0,0,0,,12,,,71,127
34004,note_off,59,0,0,,12,,,71,127
34004,note_off,0,0,0,,7,,,67,127
34005,note_on,1,0,0,,5,,,65,127
34005,note_on,0,0,0,,10,,,69,127
34064,note_off,59,0,0,,10,,,69,127
34064,note_off,0,0,0,,5,,,65,127
34065,note_on,1,0,0,,7,,,67,127
34065,note_on,0,0,0,,12,,,71,127
34124,note_off,59,0,0,,12,,,71,127
34124,note_off,0,0,0,,7,,,67,127
34125,note_on,1,0,0,,0,,,48,127
34125,note_on,0,0,0,,0,,,84,127
34245,note_off,120,0,0,,0,,,84,127
34246,note_on,1,0,0,,7,,,79,127
34366,note_off,120,0,0,,7,,,79,127
34367,note_on,1,0,0,,4,,,76,127
34487,note_off,120,0,0,,4,,,76,127
34488,note_on,1,0,0,,0,,,72,127
34608,note_off,120,0,0,,0,,,72,127
34609,note_on,1,0,0,,7,,,67,127
34729,note_off,120,0,0,,7,,,67,127
34730,note_off,1,0,0,,0,,,48,127
34730,note_on,0,0,0,,4,,,64,127
34850,note_off,120,0,0,,4,,,64,127
34851,note_on,1,0,0,,5,,,53,127
34851,note_on,0,0,0,,10,,,81,127
35092,note_off,241,0,0,,10,,,81,127
35092,note_off,0,0,0,,5,,,53,127
35093,note_on,1,0,0,,7,,,67,127
35093,note_on,0,0,0,,12,,,71,127
35152,note_off,59,0,0,,12,,,71,127
35152,note_off,0,0,0,,7,,,67,127
35153,note_on,1,0,0,,5,,,65,127
35153,note_on,0,0,0,,10,,,69,127
35212,note_off,59,0,0,,10,,,69,127
35212,note_off,0,0,0,,5,,,65,127
35213,note_on,1,0,0,,7,,,67,127
35213,note_on,0,0,0,,12,,,71,127
35272,note_off,59,0,0,,12,,,71,127
35272,note_off,0,0,0,,7,,,67,127
35273,note_on,1,0,0,,5,,,65,127
35273,note_on,0,0,0,,10,,,69,127
35332,note_off,59,0,0,,10,,,69,127
35332,note_off,0,0,0,,5,,,65,127
35333,note_on,1,0,0,,7,,,67,127
35333,note_on,0,0,0,,12,,,71,127
35392,note_off,59,0,0,,12,,,71,127
35392,note_off,0,0,0,,7,,,67,127
35393,note_on,1,0,0,,5,,,65,127
35393,note_on,0,0,0,,10,,,69,127
35452,note_off,59,0,0,,10,,,69,127
35452,note_off,0,0,0,,5,,,65,127
35453,note_on,1,0,0,,4,,,64,127
35453,note_on,0,0,0,,7,,,67,127
35512,note_off,59,0,0,,7,,,67,127
35512,note_off,0,0,0,,4,,,64,127
35513,note_on,1,0,0,,5,,,65,127
35513,note_on,0,0,0,,10,,,69,127
35572,note_off,59,0,0,,10,,,69,127
35572,note_off,0,0,0,,5,,,65,127
35573,note_on,1,0,0,,7,,,55,127
35573,note_on,0,0,0,,12,,,83,127
35814,note_off,241,0,0,,12,,,83,127
35814,note_off,0,0,0,,7,,,55,127
35815,note_on,1,0,0,,10,,,69,127
35815,note_on,0,0,0,,0,,,72,127
35874,note_off,59,0,0,,0,,,72,127
35874,note_off,0,0,0,,10,,,69,127
35875,note_on,1,0,0,,7,,,67,127
35875,note_on,0,0,0,,12,,,71,127
35934,note_off,59,0,0,,12,,,71,127
35934,note_off,0,0,0,,7,,,67,127
35935,note_on,1,0,0,,10,,,69,127
35935,note_on,0,0,0,,0,,,72,127
35994,note_off,59,0,0,,0,,,72,127
35994,note_off,0,0,0,,10,,,69,127
35995,note_on,1,0,0,,7,,,67,127
35995,note_on,0,0,0,,12,,,71,127
36054,note_off,59,0,0,,12,,,71,127
36054,note_off,0,0,0,,7,,,67,127
36055,note_on,1,0,0,,10,,,69,127
36055,note_on,0,0,0,,0,,,72,127
36114,note_off,59,0,0,,0,,,72,127
36114,note_off,0,0,0,,10,,,69,127
36115,note_on,1,0,0,,7,,,67,127
36115,note_on,0,0,0,,12,,,71,127
36174,note_off,59,0,0,,12,,,71,127
36174,note_off,0,0,0,,7,,,67,127
36175,note_on,1,0,0,,5,,,65,127
36175,note_on,0,0,0,,10,,,69,127
36234,note_off,59,0,0,,10,,,69,127
36234,note_off,0,0,0,,5,,,65,127
36235,note_on,1,0,0,,7,,,67,127
36235,note_on,0,0,0,,12,,,71,127
36294,note_off,59,0,0,,12,,,71,127
36294,note_off,0,0,0,,7,,,67,127
36295,note_on,1,0,0,,10,,,57,127
36295,note_on,0,0,0,,1,,,85,127
36536,note_off,241,0,0,,1,,,85,127
36536,note_off,0,0,0,,10,,,57,127
36537,note_on,1,0,0,,12,,,71,127
36537,note_on,0,0,0,,2,,,74,127
36596,note_off,59,0,0,,2,,,74,127
36596,note_off,0,0,0,,12,,,71,127
36597,note_on,1,0,0,,10,,,69,127
36597,note_on,0,0,0,,1,,,73,127
36656,note_off,59,0,0,,1,,,73,127
36656,note_off,0,0,0,,10,,,69,127
36657,note_on,1,0,0,,12,,,71,127
36657,note_on,0,0,0,,2,,,74,127
36716,note_off,59,0,0,,2,,,74,127
36716,note_off,0,0,0,,12,,,71,127
36717,note_on,1,0,0,,10,,,69,127
36717,note_on,0,0,0,,1,,,73,127
36776,note_off,59,0,0,,1,,,73,127
36776,note_off,0,0,0,,10,,,69,127
36777,note_on,1,0,0,,12,,,71,127
36777,note_on,0,0,0,,2,,,74,127
36836,note_off,59,0,0,,2,,,74,127
36836,note_off,0,0,0,,12,,,71,127
36837,note_on,1,0,0,,10,,,69,127
36837,note_on,0,0,0,,1,,,73,127
36896,note_off,59,0,0,,1,,,73,127
36896,note_off,0,0,0,,10,,,69,127
36897,note_on,1,0,0,,7,,,67,127
36897,note_on,0,0,0,,12,,,71,127
36956,note_off,59,0,0,,12,,,71,127
36956,note_off,0,0,0,,7,,,67,127
36957,note_on,1,0,0,,10,,,69,127
36957,note_on,0,0,0,,1,,,73,127
37016,note_off,59,0,0,,1,,,73,127
37016,note_off,0,0,0,,10,,,69,127
37017,note_on,1,0,0,,2,,,50,127
37017,note_on,0,0,0,,2,,,86,127
37137,note_off,120,0,0,,2,,,86,127
37138,note_on,1,0,0,,10,,,81,127
37258,note_off,120,0,0,,10,,,81,127
37259,note_on,1,0,0,,5,,,77,127
37379,note_off,120,0,0,,5,,,77,127
37380,note_on,1,0,0,,2,,,74,127
37500,note_off,120,0,0,,2,,,74,127
37501,note_on,1,0,0,,10,,,69,127
37621,note_off,120,0,0,,10,,,69,127
37622,note_on,1,0,0,,5,,,65,127
37742,note_off,120,0,0,,5,,,65,127
37742,note_off,0,0,0,,2,,,50,127
37743,note_on,1,0,0,,2,,,50,127
37743,note_on,0,0,0,,2,,,62,127
37864,note_on,121,0,0,,5,,,53,127
37984,note_off,120,0,0,,5,,,53,127
37985,note_on,1,0,0,,10,,,57,127
38096,note_off,111,0,0,,2,,,62,127
38105,note_off,9,0,0,,10,,,57,127
38106,note_on,1,0,0,,2,,,62,127
38226,note_off,120,0,0,,2,,,50,127
38227,note_on,1,0,0,,4,,,52,127
38347,note_off,120,0,0,,2,,,62,127
38348,note_on,1,0,0,,1,,,61,127
38468,note_off,120,0,0,,1,,,61,127
38468,note_off,0,0,0,,4,,,52,127
38469,note_on,1,0,0,,5,,,53,127
38469,note_on,0,0,0,,10,,,57,127
38469,note_on,0,0,0,,2,,,62,127
38590,note_on,121,0,0,,5,,,65,127
38710,note_off,120,0,0,,5,,,65,127
38711,note_on,1,0,0,,10,,,69,127
38831,note_off,120,0,0,,10,,,69,127
38832,note_on,1,0,0,,2,,,74,127
38952,note_off,120,0,0,,2,,,62,127
38952,note_off,0,0,0,,10,,,57,127
38952,note_off,0,0,0,,5,,,53,127
38953,note_on,1,0,0,,4,,,52,127
38953,note_on,0,0,0,,7,,,55,127
38953,note_on,0,0,0,,4,,,64,127
39073,note_off,120,0,0,,2,,,74,127
39074,note_on,1,0,0,,1,,,73,127
39194,note_off,120,0,0,,1,,,73,127
39194,note_off,0,0,0,,4,,,64,127
39194,note_off,0,0,0,,7,,,55,127
39194,note_off,0,0,0,,4,,,52,127
39195,note_on,1,0,0,,5,,,53,127
39195,note_on,0,0,0,,2,,,74,127
39316,note_on,121,0,0,,10,,,57,127
39436,note_off,120,0,0,,10,,,57,127
39437,note_on,1,0,0,,2,,,62,127
39557,note_off,120,0,0,,2,,,62,127
39558,note_on,1,0,0,,5,,,65,127
39678,note_off,120,0,0,,5,,,53,127
39679,note_on,1,0,0,,7,,,55,127
39799,note_off,120,0,0,,5,,,65,127
39800,note_on,1,0,0,,4,,,64,127
39920,note_off,120,0,0,,4,,,64,127
39920,note_off,0,0,0,,7,,,55,127
39920,note_off,0,0,0,,2,,,74,127
39921,note_on,1,0,0,,10,,,57,127
39921,note_on,0,0,0,,5,,,53,127
39921,note_on,0,0,0,,5,,,65,127
40042,note_on,121,0,0,,10,,,69,127
40162,note_off,120,0,0,,10,,,69,127
40163,note_on,1,0,0,,2,,,74,127
40283,note_off,120,0,0,,2,,,74,127
40284,note_on,1,0,0,,5,,,77,127
40404,note_off,120,0,0,,5,,,65,127
40404,note_off,0,0,0,,5,,,53,127
40404,note_off,0,0,0,,10,,,57,127
40405,note_on,1,0,0,,4,,,52,127
40405,note_on,0,0,0,,7,,,55,127
40405,note_on,0,0,0,,7,,,67,127
40525,note_off,120,0,0,,5,,,77,127
40526,note_on,1,0,0,,7,,,79,127
40646,note_off,120,0,0,,7,,,79,127
40646,note_off,0,0,0,,7,,,67,127
40646,note_off,0,0,0,,7,,,55,127
40646,note_off,0,0,0,,4,,,52,127
40647,note_on,1,0,0,,5,,,65,127
40647,note_on,0,0,0,,5,,,53,127
40647,note_on,0,0,0,,10,,,81,127
40767,note_off,120,0,0,,10,,,81,127
40768,note_on,1,0,0,,10,,,69,127
40888,note_off,120,0,0,,10,,,69,127
40889,note_on,1,0,0,,7,,,67,127
41009,note_off,120,0,0,,7,,,67,127
41009,note_off,0,0,0,,5,,,65,127
41010,note_on,1,0,0,,4,,,64,127
41010,note_on,0,0,0,,7,,,79,127
41130,note_off,120,0,0,,7,,,79,127
41130,note_off,0,0,0,,4,,,64,127
41131,note_on,1,0,0,,2,,,62,127
41131,note_on,0,0,0,,5,,,77,127
41251,note_off,120,0,0,,5,,,77,127
41252,note_on,1,0,0,,5,,,65,127
41372,note_off,120,0,0,,5,,,65,127
41372,note_off,0,0,0,,2,,,62,127
41372,note_off,0,0,0,,5,,,53,127
41373,note_on,1,0,0,,5,,,65,127
41373,note_on,0,0,0,,10,,,81,127
41493,note_off,120,0,0,,10,,,81,127
41494,note_on,1,0,0,,10,,,69,127
41614,note_off,120,0,0,,10,,,69,127
41615,note_on,1,0,0,,7,,,67,127
41735,note_off,120,0,0,,7,,,67,127
41735,note_off,0,0,0,,5,,,65,127
41736,note_on,1,0,0,,4,,,64,127
41736,note_on,0,0,0,,7,,,79,127
41856,note_off,120,0,0,,7,,,79,127
41856,note_off,0,0,0,,4,,,64,127
41857,note_on,1,0,0,,2,,,62,127
41857,note_on,0,0,0,,5,,,77,127
41977,note_off,120,0,0,,5,,,77,127
41978,note_on,1,0,0,,5,,,65,127
42098,note_off,120,0,0,,5,,,65,127
42098,note_off,0,0,0,,2,,,62,127
42099,note_on,1,0,0,,5,,,65,127
42099,note_on,0,0,0,,10,,,81,127
42219,note_off,120,0,0,,10,,,81,127
42220,note_on,1,0,0,,10,,,69,127
42340,note_off,120,0,0,,10,,,69,127
42341,note_on,1,0,0,,7,,,67,127
42461,note_off,120,0,0,,7,,,67,127
42461,note_off,0,0,0,,5,,,65,127
42462,note_on,1,0,0,,4,,,64,127
42462,note_on,0,0,0,,7,,,79,127
42582,note_off,120,0,0,,7,,,79,127
42582,note_off,0,0,0,,4,,,64,127
42583,note_on,1,0,0,,2,,,62,127
42583,note_on,0,0,0,,5,,,77,127
42703,note_off,120,0,0,,5,,,77,127
42704,note_on,1,0,0,,5,,,65,127
42824,note_off,120,0,0,,5,,,65,127
42824,note_off,0,0,0,,2,,,62,127
42825,note_on,1,0,0,,4,,,64,127
42825,note_on,0,0,0,,8,,,68,127
42825,note_on,0,0,0,,4,,,76,127
42945,note_off,120,0,0,,4,,,64,127
42946,note_on,1,0,0,,12,,,59,127
43066,note_off,120,0,0,,12,,,59,127
43066,note_off,0,0,0,,8,,,68,127
43067,note_on,1,0,0,,0,,,60,127
43067,note_on,0,0,0,,10,,,69,127
43187,note_off,120,0,0,,10,,,69,127
43187,note_off,0,0,0,,0,,,60,127
43188,note_on,1,0,0,,8,,,56,127
43188,note_on,0,0,0,,12,,,71,127
43308,note_off,120,0,0,,12,,,71,127
43308,note_off,0,0,0,,8,,,56,127
43308,note_off,0,0,0,,4,,,76,127
43309,note_on,1,0,0,,10,,,57,127
43309,note_on,0,0,0,,0,,,72,127
43429,note_off,120,0,0,,0,,,72,127
43429,note_off,0,0,0,,10,,,57,127
43430,note_on,1,0,0,,5,,,53,127
43430,note_on,0,0,0,,2,,,74,127
43550,note_off,120,0,0,,2,,,74,127
43550,note_off,0,0,0,,5,,,53,127
43551,note_on,1,0,0,,4,,,64,127
43551,note_on,0,0,0,,4,,,52,127
43551,note_on,0,0,0,,4,,,76,127
43671,note_off,120,0,0,,4,,,76,127
43672,note_on,1,0,0,,12,,,71,127
43792,note_off,120,0,0,,12,,,71,127
43793,note_on,1,0,0,,0,,,72,127
43913,note_off,120,0,0,,0,,,72,127
43913,note_off,0,0,0,,4,,,64,127
43914,note_on,1,0,0,,2,,,62,127
43914,note_on,0,0,0,,8,,,68,127
44034,note_off,120,0,0,,8,,,68,127
44034,note_off,0,0,0,,2,,,62,127
44035,note_on,1,0,0,,0,,,60,127
44035,note_on,0,0,0,,10,,,69,127
44155,note_off,120,0,0,,10,,,69,127
44155,note_off,0,0,0,,0,,,60,127
44156,note_on,1,0,0,,12,,,59,127
44156,note_on,0,0,0,,12,,,71,127
44276,note_off,120,0,0,,12,,,71,127
44276,note_off,0,0,0,,12,,,59,127
44276,note_off,0,0,0,,4,,,52,127
44277,note_on,1,0,0,,10,,,57,127
44277,note_on,0,0,0,,4,,,64,127
44277,note_on,0,0,0,,0,,,72,127
44397,note_off,120,0,0,,10,,,57,127
44398,note_on,1,0,0,,7,,,55,127
44518,note_off,120,0,0,,7,,,55,127
44518,note_off,0,0,0,,0,,,72,127
44519,note_on,1,0,0,,5,,,53,127
44519,note_on,0,0,0,,2,,,74,127
44639,note_off,120,0,0,,2,,,74,127
44640,note_on,1,0,0,,0,,,72,127
44760,note_off,120,0,0,,0,,,72,127
44760,note_off,0,0,0,,4,,,64,127
44761,note_on,1,0,0,,2,,,62,127
44761,note_on,0,0,0,,12,,,71,127
44881,note_off,120,0,0,,12,,,71,127
44882,note_on,1,0,0,,10,,,69,127
45002,note_off,120,0,0,,2,,,62,127
45002,note_off,0,0,0,,5,,,53,127
45003,note_on,1,0,0,,4,,,52,127
45059,note_off,56,0,0,,10,,,69,127
45064,note_on,5,0,0,,8,,,68,127
45123,note_off,59,0,0,,8,,,68,127
45124,note_on,1,0,0,,10,,,69,127
45183,note_off,59,0,0,,10,,,69,127
45184,note_on,1,0,0,,8,,,68,127
45243,note_off,59,0,0,,8,,,68,127
45244,note_on,1,0,0,,4,,,40,127
45244,note_on,0,0,0,,10,,,69,127
45303,note_off,59,0,0,,10,,,69,127
45304,note_on,1,0,0,,8,,,68,127
45363,note_off,59,0,0,,8,,,68,127
45364,note_on,1,0,0,,6,,,66,127
45484,note_off,120,0,0,,6,,,66,127
45485,note_on,1,0,0,,4,,,64,127
45647,note_off,162,0,0,,4,,,40,127
45727,note_off,80,0,0,,4,,,64,127
45727,note_off,0,0,0,,4,,,52,127
45728,note_on,1,0,0,,4,,,64,127
45728,note_on,0,0,0,,4,,,52,127
45849,note_on,121,0,0,,4,,,76,127
45969,note_off,120,0,0,,4,,,76,127
45970,note_on,1,0,0,,12,,,71,127
46090,note_off,120,0,0,,4,,,64,127
46091,note_on,1,0,0,,0,,,60,127
46211,note_off,120,0,0,,0,,,60,127
46211,note_off,0,0,0,,4,,,52,127
46212,note_on,1,0,0,,2,,,62,127
46212,note_on,0,0,0,,5,,,53,127
46332,note_off,120,0,0,,12,,,71,127
46333,note_on,1,0,0,,10,,,69,127
46453,note_off,120,0,0,,10,,,69,127
46453,note_off,0,0,0,,5,,,53,127
46453,note_off,0,0,0,,2,,,62,127
46454,note_on,1,0,0,,4,,,64,127
46454,note_on,0,0,0,,4,,,52,127
46454,note_on,0,0,0,,8,,,68,127
46574,note_off,120,0,0,,8,,,68,127
46575,note_on,1,0,0,,4,,,76,127
46695,note_off,120,0,0,,4,,,76,127
46696,note_on,1,0,0,,12,,,71,127
46816,note_off,120,0,0,,4,,,64,127
46817,note_on,1,0,0,,0,,,60,127
46937,note_off,120,0,0,,0,,,60,127
46937,note_off,0,0,0,,4,,,52,127
46938,note_on,1,0,0,,2,,,62,127
46938,note_on,0,0,0,,5,,,53,127
47058,note_off,120,0,0,,12,,,71,127
47059,note_on,1,0,0,,10,,,69,127
47179,note_off,120,0,0,,10,,,69,127
47179,note_off,0,0,0,,5,,,53,127
47179,note_off,0,0,0,,2,,,62,127
47180,note_on,1,0,0,,4,,,64,127
47180,note_on,0,0,0,,4,,,52,127
47180,note_on,0,0,0,,8,,,68,127
47300,note_off,120,0,0,,8,,,68,127
47301,note_on,1,0,0,,4,,,76,127
47421,note_off,120,0,0,,4,,,76,127
47422,note_on,1,0,0,,12,,,71,127
47542,note_off,120,0,0,,4,,,64,127
47543,note_on,1,0,0,,0,,,60,127
47663,note_off,120,0,0,,0,,,60,127
47663,note_off,0,0,0,,4,,,52,127
47664,note_on,1,0,0,,2,,,62,127
47664,note_on,0,0,0,,5,,,53,127
47784,note_off,120,0,0,,12,,,71,127
47785,note_on,1,0,0,,10,,,69,127
47905,note_off,120,0,0,,10,,,69,127
47905,note_off,0,0,0,,5,,,53,127
47905,note_off,0,0,0,,2,,,62,127
47906,note_on,1,0,0,,4,,,64,127
47906,note_on,0,0,0,,4,,,52,127
47906,note_on,0,0,0,,8,,,68,127
48026,note_off,120,0,0,,8,,,68,127
48027,note_on,1,0,0,,5,,,77,127
48147,note_off,120,0,0,,5,,,77,127
48148,note_on,1,0,0,,12,,,71,127
48148,note_on,0,0,0,,2,,,74,127
48148,note_on,0,0,0,,4,,,76,127
48268,note_off,120,0,0,,4,,,52,127
48268,note_off,0,0,0,,4,,,64,127
48269,note_on,1,0,0,,8,,,56,127
48389,note_off,120,0,0,,8,,,56,127
48390,note_on,1,0,0,,10,,,57,127
48510,note_off,120,0,0,,4,,,76,127
48510,note_off,0,0,0,,2,,,74,127
48510,note_off,0,0,0,,12,,,71,127
48511,note_on,1,0,0,,10,,,69,127
48511,note_on,0,0,0,,0,,,72,127
48631,note_off,120,0,0,,10,,,57,127
48632,note_on,1,0,0,,8,,,56,127
48632,note_on,0,0,0,,4,,,64,127
48752,note_off,120,0,0,,0,,,72,127
48752,note_off,0,0,0,,10,,,69,127
48753,note_on,1,0,0,,5,,,77,127
48873,note_off,120,0,0,,5,,,77,127
48874,note_on,1,0,0,,2,,,74,127
48874,note_on,0,0,0,,12,,,71,127
48874,note_on,0,0,0,,4,,,76,127
48994,note_off,120,0,0,,4,,,64,127
48994,note_off,0,0,0,,8,,,56,127
48995,note_on,1,0,0,,8,,,56,127
49115,note_off,120,0,0,,8,,,56,127
49116,note_on,1,0,0,,10,,,57,127
49236,note_off,120,0,0,,12,,,71,127
49236,note_off,0,0,0,,2,,,74,127
49237,note_on,1,0,0,,10,,,69,127
49237,note_on,0,0,0,,0,,,72,127
49357,note_off,120,0,0,,0,,,72,127
49357,note_off,0,0,0,,10,,,69,127
49357,note_off,0,0,0,,10,,,57,127
49357,note_off,0,0,0,,4,,,76,127
49358,note_on,1,0,0,,4,,,64,127
49358,note_on,0,0,0,,8,,,56,127
49479,note_on,121,0,0,,5,,,77,127
49599,note_off,120,0,0,,5,,,77,127
49600,note_on,1,0,0,,4,,,76,127
49600,note_on,0,0,0,,2,,,74,127
49600,note_on,0,0,0,,12,,,71,127
49720,note_off,120,0,0,,8,,,56,127
49720,note_off,0,0,0,,4,,,64,127
49721,note_on,1,0,0,,8,,,56,127
49841,note_off,120,0,0,,8,,,56,127
49842,note_on,1,0,0,,10,,,57,127
49962,note_off,120,0,0,,12,,,71,127
49962,note_off,0,0,0,,2,,,74,127
49963,note_on,1,0,0,,10,,,69,127
49963,note_on,0,0,0,,0,,,72,127
50083,note_off,120,0,0,,0,,,72,127
50083,note_off,0,0,0,,10,,,69,127
50083,note_off,0,0,0,,10,,,57,127
50083,note_off,0,0,0,,4,,,76,127
50084,note_on,1,0,0,,2,,,50,127
50084,note_on,0,0,0,,10,,,81,127
50204,note_off,120,0,0,,10,,,81,127
50205,note_on,1,0,0,,5,,,77,127
50325,note_off,120,0,0,,2,,,50,127
50326,note_on,1,0,0,,2,,,62,127
50446,note_off,120,0,0,,5,,,77,127
50447,note_on,1,0,0,,2,,,74,127
50568,note_on,121,0,0,,2,,,50,127
50688,note_off,120,0,0,,2,,,74,127
50689,note_on,1,0,0,,12,,,71,127
50809,note_off,120,0,0,,12,,,71,127
50809,note_off,0,0,0,,2,,,50,127
50809,note_off,0,0,0,,2,,,62,127
50810,note_on,1,0,0,,4,,,64,127
50810,note_on,0,0,0,,4,,,52,127
50810,note_on,0,0,0,,8,,,68,127
50930,note_off,120,0,0,,8,,,68,127
50931,note_on,1,0,0,,4,,,76,127
51051,note_off,120,0,0,,4,,,76,127
51052,note_on,1,0,0,,12,,,71,127
51172,note_off,120,0,0,,4,,,64,127
51173,note_on,1,0,0,,0,,,60,127
51293,note_off,120,0,0,,0,,,60,127
51293,note_off,0,0,0,,4,,,52,127
51294,note_on,1,0,0,,2,,,62,127
51294,note_on,0,0,0,,5,,,53,127
51414,note_off,120,0,0,,12,,,71,127
51415,note_on,1,0,0,,10,,,69,127
51535,note_off,120,0,0,,10,,,69,127
51535,note_off,0,0,0,,5,,,53,127
51535,note_off,0,0,0,,2,,,62,127
51536,note_on,1,0,0,,4,,,64,127
51536,note_on,0,0,0,,4,,,52,127
51536,note_on,0,0,0,,8,,,68,127
51656,note_off,120,0,0,,8,,,68,127
51657,note_on,1,0,0,,4,,,76,127
51777,note_off,120,0,0,,4,,,76,127
51778,note_on,1,0,0,,12,,,71,127
51898,note_off,120,0,0,,4,,,64,127
51899,note_on,1,0,0,,0,,,60,127
52019,note_off,120,0,0,,0,,,60,127
52019,note_off,0,0,0,,4,,,52,127
52020,note_on,1,0,0,,2,,,62,127
52020,note_on,0,0,0,,5,,,53,127
52140,note_off,120,0,0,,12,,,71,127
52141,note_on,1,0,0,,10,,,69,127
52261,note_off,120,0,0,,10,,,69,127
52261,note_off,0,0,0,,5,,,53,127
52261,note_off,0,0,0,,2,,,62,127
52262,note_on,1,0,0,,4,,,64,127
52262,note_on,0,0,0,,4,,,52,127
52262,note_on,0,0,0,,8,,,68,127
52382,note_off,120,0,0,,8,,,68,127
52383,note_on,1,0,0,,5,,,77,127
52503,note_off,120,0,0,,5,,,77,127
52504,note_on,1,0,0,,2,,,74,127
52504,note_on,0,0,0,,4,,,76,127
52504,note_on,0,0,0,,12,,,71,127
52624,note_off,120,0,0,,4,,,52,127
52624,note_off,0,0,0,,4,,,64,127
52625,note_on,1,0,0,,8,,,56,127
52745,note_off,120,0,0,,8,,,56,127
52746,note_on,1,0,0,,10,,,57,127
52866,note_off,120,0,0,,12,,,71,127
52866,note_off,0,0,0,,2,,,74,127
52867,note_on,1,0,0,,10,,,69,127
52867,note_on,0,0,0,,0,,,72,127
52987,note_off,120,0,0,,0,,,72,127
52987,note_off,0,0,0,,10,,,69,127
52987,note_off,0,0,0,,10,,,57,127
52987,note_off,0,0,0,,4,,,76,127
52988,note_on,1,0,0,,4,,,64,127
52988,note_on,0,0,0,,8,,,56,127
53109,note_on,121,0,0,,5,,,77,127
53229,note_off,120,0,0,,5,,,77,127
53230,note_on,1,0,0,,4,,,76,127
53230,note_on,0,0,0,,12,,,71,127
53230,note_on,0,0,0,,2,,,74,127
53350,note_off,120,0,0,,8,,,56,127
53350,note_off,0,0,0,,4,,,64,127
53351,note_on,1,0,0,,8,,,56,127
53471,note_off,120,0,0,,8,,,56,127
53472,note_on,1,0,0,,10,,,57,127
53592,note_off,120,0,0,,2,,,74,127
53592,note_off,0,0,0,,12,,,71,127
53593,note_on,1,0,0,,0,,,72,127
53593,note_on,0,0,0,,10,,,69,127
53713,note_off,120,0,0,,10,,,69,127
53713,note_off,0,0,0,,0,,,72,127
53713,note_off,0,0,0,,10,,,57,127
53713,note_off,0,0,0,,4,,,76,127
53714,note_on,1,0,0,,2,,,62,127
53714,note_on,0,0,0,,12,,,71,127
53834,note_off,120,0,0,,12,,,71,127
53834,note_off,0,0,0,,2,,,62,127
53835,note_on,1,0,0,,2,,,50,127
53835,note_on,0,0,0,,2,,,74,127
53955,note_off,120,0,0,,2,,,74,127
53955,note_off,0,0,0,,2,,,50,127
53956,note_on,1,0,0,,4,,,52,127
53956,note_on,0,0,0,,0,,,72,127
54076,note_off,120,0,0,,0,,,72,127
54077,note_on,1,0,0,,10,,,69,127
54197,note_off,120,0,0,,4,,,52,127
54198,note_on,1,0,0,,4,,,64,127
54318,note_off,120,0,0,,10,,,69,127
54319,note_on,1,0,0,,8,,,68,127
54439,note_off,120,0,0,,8,,,68,127
54439,note_off,0,0,0,,4,,,64,127
54440,note_on,1,0,0,,10,,,69,127
54440,note_on,0,0,0,,10,,,57,127
54561,note_on,121,0,0,,12,,,83,127
54681,note_off,120,0,0,,12,,,83,127
54682,note_on,1,0,0,,0,,,84,127
54802,note_off,120,0,0,,10,,,57,127
54802,note_off,0,0,0,,10,,,69,127
54803,note_on,1,0,0,,7,,,67,127
54803,note_on,0,0,0,,7,,,55,127
54923,note_off,120,0,0,,7,,,55,127
54923,note_off,0,0,0,,7,,,67,127
54924,note_on,1,0,0,,5,,,65,127
54924,note_on,0,0,0,,5,,,53,127
55044,note_off,120,0,0,,5,,,53,127
55044,note_off,0,0,0,,5,,,65,127
55045,note_on,1,0,0,,4,,,64,127
55045,note_on,0,0,0,,4,,,52,127
55165,note_off,120,0,0,,4,,,52,127
55165,note_off,0,0,0,,4,,,64,127
55165,note_off,0,0,0,,0,,,84,127
55166,note_on,1,0,0,,2,,,62,127
55166,note_on,0,0,0,,2,,,50,127
55287,note_on,121,0,0,,1,,,85,127
55407,note_off,120,0,0,,1,,,85,127
55408,note_on,1,0,0,,2,,,86,127
55528,note_off,120,0,0,,2,,,50,127
55528,note_off,0,0,0,,2,,,62,127
55529,note_on,1,0,0,,0,,,48,127
55529,note_on,0,0,0,,0,,,60,127
55649,note_off,120,0,0,,0,,,60,127
55649,note_off,0,0,0,,0,,,48,127
55650,note_on,1,0,0,,12,,,47,127
55650,note_on,0,0,0,,12,,,59,127
55770,note_off,120,0,0,,12,,,59,127
55770,note_off,0,0,0,,12,,,47,127
55771,note_on,1,0,0,,10,,,57,127
55771,note_on,0,0,0,,10,,,45,127
55891,note_off,120,0,0,,10,,,45,127
55891,note_off,0,0,0,,10,,,57,127
55891,note_off,0,0,0,,2,,,86,127
55892,note_on,1,0,0,,8,,,56,127
55892,note_on,0,0,0,,8,,,44,127
56013,note_on,121,0,0,,3,,,87,127
56133,note_off,120,0,0,,3,,,87,127
56134,note_on,1,0,0,,4,,,88,127
56254,note_off,120,0,0,,8,,,44,127
56254,note_off,0,0,0,,8,,,56,127
56255,note_on,1,0,0,,6,,,54,127
56255,note_on,0,0,0,,6,,,42,127
56375,note_off,120,0,0,,6,,,42,127
56375,note_off,0,0,0,,6,,,54,127
56376,note_on,1,0,0,,4,,,52,127
56376,note_on,0,0,0,,4,,,40,127
56496,note_off,120,0,0,,4,,,40,127
56496,note_off,0,0,0,,4,,,52,127
56497,note_on,1,0,0,,2,,,50,127
56497,note_on,0,0,0,,2,,,38,127
56617,note_off,120,0,0,,2,,,38,127
56617,note_off,0,0,0,,2,,,50,127
56618,note_on,1,0,0,,0,,,48,127
56618,note_on,0,0,0,,0,,,36,127
56738,note_off,120,0,0,,4,,,88,127
56739,note_on,1,0,0,,12,,,83,127
56859,note_off,120,0,0,,12,,,83,127
56860,note_on,1,0,0,,0,,,84,127
56980,note_off,120,0,0,,0,,,84,127
56980,note_off,0,0,0,,0,,,36,127
56980,note_off,0,0,0,,0,,,48,127
56981,note_on,1,0,0,,12,,,47,127
56981,note_on,0,0,0,,12,,,35,127
56981,note_on,0,0,0,,8,,,80,127
57101,note_off,120,0,0,,8,,,80,127
57101,note_off,0,0,0,,12,,,35,127
57101,note_off,0,0,0,,12,,,47,127
57102,note_on,1,0,0,,10,,,45,127
57102,note_on,0,0,0,,10,,,33,127
57102,note_on,0,0,0,,10,,,81,127
57222,note_off,120,0,0,,10,,,81,127
57223,note_on,1,0,0,,4,,,76,127
57343,note_off,120,0,0,,4,,,76,127
57343,note_off,0,0,0,,10,,,33,127
57343,note_off,0,0,0,,10,,,45,127
57344,note_on,1,0,0,,2,,,50,127
57344,note_on,0,0,0,,5,,,77,127
57464,note_off,120,0,0,,5,,,77,127
57465,note_on,1,0,0,,2,,,74,127
57585,note_off,120,0,0,,2,,,74,127
57585,note_off,0,0,0,,2,,,50,127
57586,note_on,1,0,0,,4,,,52,127
57586,note_on,0,0,0,,0,,,72,127
57706,note_off,120,0,0,,0,,,72,127
57707,note_on,1,0,0,,10,,,69,127
57827,note_off,120,0,0,,10,,,69,127
57828,note_on,1,0,0,,4,,,40,127
57828,note_on,0,0,0,,8,,,68,127
57948,note_off,120,0,0,,8,,,68,127
57949,note_on,1,0,0,,12,,,71,127
58055,note_off,106,0,0,,4,,,40,127
58069,note_off,14,0,0,,12,,,71,127
58069,note_off,0,0,0,,4,,,52,127
58070,note_on,1,0,0,,10,,,69,127
58070,note_on,0,0,0,,10,,,57,127
58191,note_on,121,0,0,,12,,,83,127
58311,note_off,120,0,0,,12,,,83,127
58312,note_on,1,0,0,,0,,,84,127
58432,note_off,120,0,0,,10,,,57,127
58432,note_off,0,0,0,,10,,,69,127
58433,note_on,1,0,0,,7,,,67,127
58433,note_on,0,0,0,,7,,,55,127
58553,note_off,120,0,0,,7,,,55,127
58553,note_off,0,0,0,,7,,,67,127
58554,note_on,1,0,0,,5,,,65,127
58554,note_on,0,0,0,,5,,,53,127
58674,note_off,120,0,0,,5,,,53,127
58674,note_off,0,0,0,,5,,,65,127
58675,note_on,1,0,0,,4,,,64,127
58675,note_on,0,0,0,,4,,,52,127
58795,note_off,120,0,0,,4,,,52,127
58795,note_off,0,0,0,,4,,,64,127
58795,note_off,0,0,0,,0,,,84,127
58796,note_on,1,0,0,,2,,,62,127
58796,note_on,0,0,0,,2,,,50,127
58917,note_on,121,0,0,,1,,,85,127
59037,note_off,120,0,0,,1,,,85,127
59038,note_on,1,0,0,,2,,,86,127
59158,note_off,120,0,0,,2,,,50,127
59158,note_off,0,0,0,,2,,,62,127
59159,note_on,1,0,0,,0,,,60,127
59159,note_on,0,0,0,,0,,,48,127
59279,note_off,120,0,0,,0,,,48,127
59279,note_off,0,0,0,,0,,,60,127
59280,note_on,1,0,0,,12,,,47,127
59280,note_on,0,0,0,,12,,,59,127
59400,note_off,120,0,0,,12,,,59,127
59400,note_off,0,0,0,,12,,,47,127
59401,note_on,1,0,0,,10,,,57,127
59401,note_on,0,0,0,,10,,,45,127
59521,note_off,120,0,0,,10,,,45,127
59521,note_off,0,0,0,,10,,,57,127
59521,note_off,0,0,0,,2,,,86,127
59522,note_on,1,0,0,,8,,,44,127
59522,note_on,0,0,0,,8,,,56,127
59643,note_on,121,0,0,,3,,,87,127
59763,note_off,120,0,0,,3,,,87,127
59764,note_on,1,0,0,,4,,,88,127
59884,note_off,120,0,0,,8,,,56,127
59884,note_off,0,0,0,,8,,,44,127
59885,note_on,1,0,0,,6,,,54,127
59885,note_on,0,0,0,,6,,,42,127
60005,note_off,120,0,0,,6,,,42,127
60005,note_off,0,0,0,,6,,,54,127
60006,note_on,1,0,0,,4,,,52,127
60006,note_on,0,0,0,,4,,,40,127
60126,note_off,120,0,0,,4,,,40,127
60126,note_off,0,0,0,,4,,,52,127
60127,note_on,1,0,0,,2,,,50,127
60127,note_on,0,0,0,,2,,,38,127
60247,note_off,120,0,0,,2,,,38,127
60247,note_off,0,0,0,,2,,,50,127
60248,note_on,1,0,0,,0,,,48,127
60248,note_on,0,0,0,,0,,,36,127
60368,note_off,120,0,0,,4,,,88,127
60369,note_on,1,0,0,,12,,,83,127
60489,note_off,120,0,0,,12,,,83,127
60490,note_on,1,0,0,,0,,,84,127
60610,note_off,120,0,0,,0,,,84,127
60610,note_off,0,0,0,,0,,,36,127
60610,note_off,0,0,0,,0,,,48,127
60611,note_on,1,0,0,,12,,,47,127
60611,note_on,0,0,0,,12,,,35,127
60611,note_on,0,0,0,,8,,,80,127
60731,note_off,120,0,0,,8,,,80,127
60731,note_off,0,0,0,,12,,,35,127
60731,note_off,0,0,0,,12,,,47,127
60732,note_on,1,0,0,,10,,,45,127
60732,note_on,0,0,0,,10,,,33,127
60732,note_on,0,0,0,,10,,,81,127
60852,note_off,120,0,0,,10,,,81,127
60853,note_on,1,0,0,,4,,,76,127
60973,note_off,120,0,0,,4,,,76,127
60973,note_off,0,0,0,,10,,,33,127
60973,note_off,0,0,0,,10,,,45,127
60974,note_on,1,0,0,,2,,,50,127
60974,note_on,0,0,0,,5,,,77,127
61094,note_off,120,0,0,,5,,,77,127
61095,note_on,1,0,0,,2,,,74,127
61215,note_off,120,0,0,,2,,,74,127
61215,note_off,0,0,0,,2,,,50,127
61216,note_on,1,0,0,,4,,,52,127
61216,note_on,0,0,0,,0,,,72,127
61336,note_off,120,0,0,,0,,,72,127
61337,note_on,1,0,0,,10,,,69,127
61457,note_off,120,0,0,,10,,,69,127
61458,note_on,1,0,0,,4,,,40,127
61458,note_on,0,0,0,,8,,,68,127
61578,note_off,120,0,0,,8,,,68,127
61579,note_on,1,0,0,,12,,,71,127
61699,note_off,120,0,0,,12,,,71,127
61699,note_off,0,0,0,,4,,,40,127
61699,note_off,0,0,0,,4,,,52,127
61700,note_on,1,0,0,,10,,,69,127
61700,note_on,0,0,0,,10,,,45,127
61821,note_off,121,0,0,,10,,,69,127
61825,note_on,4,0,0,,3,,,75,127
61946,note_off,121,0,0,,3,,,75,127
61950,note_on,4,0,0,,4,,,76,127
62069,note_off,119,0,0,,10,,,45,127
62072,note_off,3,0,0,,4,,,76,127
62076,note_on,4,0,0,,8,,,68,127
62076,note_on,0,0,0,,12,,,47,127
62197,note_off,121,0,0,,12,,,47,127
62197,note_off,0,0,0,,8,,,68,127
62201,note_on,4,0,0,,10,,,69,127
62201,note_on,0,0,0,,0,,,48,127
62322,note_off,121,0,0,,10,,,69,127
62326,note_on,4,0,0,,4,,,64,127
62446,note_off,120,0,0,,0,,,48,127
62447,note_off,1,0,0,,4,,,64,127
62451,note_on,4,0,0,,5,,,65,127
62451,note_on,0,0,0,,2,,,50,127
62572,note_off,121,0,0,,5,,,65,127
62576,note_on,4,0,0,,2,,,62,127
62696,note_off,120,0,0,,2,,,50,127
62697,note_off,1,0,0,,2,,,62,127
62701,note_on,4,0,0,,0,,,60,127
62701,note_on,0,0,0,,4,,,52,127
62822,note_off,121,0,0,,0,,,60,127
62825,note_on,3,0,0,,10,,,69,127
62946,note_off,121,0,0,,10,,,69,127
62950,note_on,4,0,0,,12,,,59,127
62950,note_on,0,0,0,,4,,,40,127
63071,note_off,121,0,0,,12,,,59,127
63075,note_on,4,0,0,,8,,,68,127
63194,note_off,119,0,0,,4,,,52,127
63195,note_off,1,0,0,,4,,,40,127
63211,note_off,16,0,0,,8,,,68,127
63222,note_on,11,0,0,,10,,,57,127
63222,note_on,0,0,0,,10,,,69,127
63222,note_on,0,0,0,,10,,,45,127
63222,note_on,0,0,0,,10,,,33,127
65297,note_off,2075,0,0,,10,,,33,127
65297,note_off,0,0,0,,10,,,45,127
65297,note_off,0,0,0,,10,,,69,127
65297,note_off,0,0,0,,10,,,57,127
70656,end_of_track,5359,1,0,,,,,,
