tick,type,time,meta,track,program,channel,pitch,tempo,note,velocity
0,copyright,0,1,0,,,,,,
0,program_change,0,0,0,6,0,,,,
0,pitchwheel,0,0,0,,0,0,,,
0,program_change,0,0,0,6,1,,,,
0,pitchwheel,0,0,0,,1,-590,,,
0,program_change,0,0,0,6,2,,,,
0,pitchwheel,0,0,0,,2,-272,,,
0,program_change,0,0,0,6,3,,,,
0,pitchwheel,0,0,0,,3,-353,,,
0,program_change,0,0,0,6,4,,,,
0,pitchwheel,0,0,0,,4,-560,,,
0,program_change,0,0,0,6,5,,,,
0,pitchwheel,0,0,0,,5,-80,,,
0,program_change,0,0,0,6,6,,,,
0,pitchwheel,0,0,0,,6,-625,,,
0,program_change,0,0,0,6,7,,,,
0,pitchwheel,0,0,0,,7,-130,,,
0,program_change,0,0,0,6,8,,,,
0,pitchwheel,0,0,0,,8,-512,,,
0,program_change,0,0,0,6,10,,,,
0,pitchwheel,0,0,0,,10,-464,,,
0,program_change,0,0,0,6,11,,,,
0,pitchwheel,0,0,0,,11,-208,,,
0,program_change,0,0,0,6,12,,,,
0,pitchwheel,0,0,0,,12,-553,,,
0,set_tempo,0,1,0,,,,500000,,
77,note_on,77,0,0,,4,,,64,127
229,note_off,152,0,0,,4,,,64,127
230,note_on,1,0,0,,7,,,67,127
382,note_off,152,0,0,,7,,,67,127
383,note_on,1,0,0,,0,,,72,127
535,note_off,152,0,0,,0,,,72,127
536,note_on,1,0,0,,0,,,72,127
536,note_on,0,0,0,,4,,,76,127
688,note_off,152,0,0,,4,,,76,127
689,note_on,1,0,0,,5,,,77,127
841,note_off,152,0,0,,5,,,77,127
842,note_on,1,0,0,,7,,,79,127
994,note_off,152,0,0,,7,,,79,127
994,note_off,0,0,0,,0,,,72,127
995,note_on,1,0,0,,0,,,72,127
995,note_on,0,0,0,,4,,,76,127
1455,note_off,460,0,0,,4,,,76,127
1455,note_off,0,0,0,,0,,,72,127
1456,note_on,1,0,0,,7,,,67,127
1456,note_on,0,0,0,,4,,,76,127
1514,note_on,58,0,0,,2,,,74,127
1532,note_off,18,0,0,,4,,,76,127
1572,note_on,40,0,0,,4,,,76,127
1590,note_off,18,0,0,,2,,,74,127
1630,note_on,40,0,0,,2,,,74,127
1648,note_off,18,0,0,,4,,,76,127
1917,note_off,269,0,0,,7,,,67,127
1918,note_off,1,0,0,,2,,,74,127
1937,note_on,19,0,0,,4,,,64,127
2089,note_off,152,0,0,,4,,,64,127
2090,note_on,1,0,0,,7,,,67,127
2242,note_off,152,0,0,,7,,,67,127
2243,note_on,1,0,0,,0,,,72,127
2395,note_off,152,0,0,,0,,,72,127
2396,note_on,1,0,0,,4,,,76,127
2396,note_on,0,0,0,,0,,,72,127
2548,note_off,152,0,0,,4,,,76,127
2549,note_on,1,0,0,,5,,,77,127
2701,note_off,152,0,0,,5,,,77,127
2702,note_on,1,0,0,,7,,,79,127
2854,note_off,152,0,0,,7,,,79,127
2854,note_off,0,0,0,,0,,,72,127
2855,note_on,1,0,0,,4,,,76,127
2855,note_on,0,0,0,,0,,,72,127
3315,note_off,460,0,0,,0,,,72,127
3315,note_off,0,0,0,,4,,,76,127
3316,note_on,1,0,0,,4,,,76,127
3316,note_on,0,0,0,,7,,,67,127
3374,note_on,58,0,0,,2,,,74,127
3392,note_off,18,0,0,,4,,,76,127
3432,note_on,40,0,0,,4,,,76,127
3450,note_off,18,0,0,,2,,,74,127
3490,note_on,40,0,0,,2,,,74,127
3508,note_off,18,0,0,,4,,,76,127
3777,note_off,269,0,0,,7,,,67,127
3778,note_off,1,0,0,,2,,,74,127
3797,note_on,19,0,0,,4,,,76,127
3949,note_off,152,0,0,,4,,,76,127
3950,note_on,1,0,0,,2,,,74,127
4102,note_off,152,0,0,,2,,,74,127
4103,note_on,1,0,0,,0,,,72,127
4255,note_off,152,0,0,,0,,,72,127
4256,note_on,1,0,0,,4,,,64,127
4256,note_on,0,0,0,,2,,,74,127
4314,note_on,58,0,0,,0,,,72,127
4332,note_off,18,0,0,,2,,,74,127
4372,note_on,40,0,0,,2,,,74,127
4390,note_off,18,0,0,,0,,,72,127
4430,note_on,40,0,0,,0,,,72,127
4448,note_off,18,0,0,,2,,,74,127
4717,note_off,269,0,0,,4,,,64,127
4718,note_off,1,0,0,,0,,,72,127
4718,note_on,0,0,0,,5,,,65,127
4718,note_on,0,0,0,,2,,,74,127
4870,note_off,152,0,0,,2,,,74,127
4871,note_on,1,0,0,,0,,,72,127
5023,note_off,152,0,0,,0,,,72,127
5024,note_on,1,0,0,,12,,,71,127
5176,note_off,152,0,0,,12,,,71,127
5176,note_off,0,0,0,,5,,,65,127
5177,note_on,1,0,0,,7,,,67,127
5177,note_on,0,0,0,,0,,,72,127
5235,note_on,58,0,0,,12,,,71,127
5253,note_off,18,0,0,,0,,,72,127
5293,note_on,40,0,0,,0,,,72,127
5311,note_off,18,0,0,,12,,,71,127
5351,note_on,40,0,0,,12,,,71,127
5369,note_off,18,0,0,,0,,,72,127
5638,note_off,269,0,0,,7,,,67,127
5639,note_off,1,0,0,,12,,,71,127
5646,note_on,7,0,0,,0,,,72,127
5646,note_on,0,0,0,,4,,,52,127
5812,note_on,166,0,0,,7,,,55,127
5813,note_off,1,0,0,,4,,,52,127
5964,note_off,151,0,0,,7,,,55,127
5965,note_on,1,0,0,,0,,,60,127
6117,note_off,152,0,0,,0,,,60,127
6118,note_on,1,0,0,,0,,,60,127
6118,note_on,0,0,0,,4,,,64,127
6270,note_off,152,0,0,,4,,,64,127
6271,note_on,1,0,0,,7,,,67,127
6413,note_off,142,0,0,,0,,,72,127
6424,note_off,11,0,0,,7,,,67,127
6425,note_on,1,0,0,,0,,,72,127
6577,note_off,152,0,0,,0,,,60,127
6578,note_on,1,0,0,,0,,,60,127
6578,note_on,0,0,0,,4,,,64,127
7038,note_off,460,0,0,,4,,,64,127
7038,note_off,0,0,0,,0,,,60,127
7039,note_off,1,0,0,,0,,,72,127
7039,note_on,0,0,0,,7,,,79,127
7039,note_on,0,0,0,,4,,,64,127
7039,note_on,0,0,0,,7,,,55,127
7097,note_on,58,0,0,,2,,,62,127
7115,note_off,18,0,0,,4,,,64,127
7155,note_on,40,0,0,,4,,,64,127
7173,note_off,18,0,0,,2,,,62,127
7213,note_on,40,0,0,,2,,,62,127
7231,note_off,18,0,0,,4,,,64,127
7500,note_off,269,0,0,,2,,,62,127
7500,note_off,0,0,0,,7,,,55,127
7500,note_off,0,0,0,,7,,,79,127
7520,note_on,20,0,0,,4,,,52,127
7520,note_on,0,0,0,,10,,,81,127
7578,note_on,58,0,0,,7,,,79,127
7596,note_off,18,0,0,,10,,,81,127
7636,note_on,40,0,0,,10,,,81,127
7654,note_off,18,0,0,,7,,,79,127
7673,note_off,19,0,0,,4,,,52,127
7674,note_on,1,0,0,,7,,,55,127
7693,note_on,19,0,0,,7,,,79,127
7711,note_off,18,0,0,,10,,,81,127
7751,note_on,40,0,0,,10,,,81,127
7769,note_off,18,0,0,,7,,,79,127
7809,note_on,40,0,0,,7,,,79,127
7827,note_off,18,0,0,,10,,,81,127
7827,note_off,0,0,0,,7,,,55,127
7828,note_on,1,0,0,,0,,,60,127
7866,note_on,38,0,0,,10,,,81,127
7884,note_off,18,0,0,,7,,,79,127
7924,note_on,40,0,0,,7,,,79,127
7942,note_off,18,0,0,,10,,,81,127
7980,note_off,38,0,0,,0,,,60,127
7981,note_on,1,0,0,,0,,,60,127
7981,note_on,0,0,0,,4,,,64,127
7981,note_on,0,0,0,,10,,,81,127
7999,note_off,18,0,0,,7,,,79,127
8039,note_on,40,0,0,,7,,,79,127
8057,note_off,18,0,0,,10,,,81,127
8097,note_on,40,0,0,,10,,,81,127
8115,note_off,18,0,0,,7,,,79,127
8134,note_off,19,0,0,,4,,,64,127
8135,note_on,1,0,0,,7,,,67,127
8154,note_on,19,0,0,,7,,,79,127
8172,note_off,18,0,0,,10,,,81,127
8212,note_on,40,0,0,,10,,,81,127
8230,note_off,18,0,0,,7,,,79,127
8270,note_on,40,0,0,,7,,,79,127
8288,note_off,18,0,0,,10,,,81,127
8288,note_off,0,0,0,,7,,,67,127
8289,note_on,1,0,0,,0,,,72,127
8327,note_on,38,0,0,,10,,,81,127
8345,note_off,18,0,0,,7,,,79,127
8385,note_on,40,0,0,,7,,,79,127
8403,note_off,18,0,0,,10,,,81,127
8441,note_off,38,0,0,,0,,,72,127
8441,note_off,0,0,0,,0,,,60,127
8442,note_on,1,0,0,,4,,,64,127
8442,note_on,0,0,0,,0,,,60,127
8902,note_off,460,0,0,,0,,,60,127
8902,note_off,0,0,0,,4,,,64,127
8902,note_off,0,0,0,,7,,,79,127
8903,note_on,1,0,0,,7,,,55,127
8903,note_on,0,0,0,,4,,,64,127
8903,note_on,0,0,0,,7,,,79,127
8961,note_on,58,0,0,,2,,,62,127
8979,note_off,18,0,0,,4,,,64,127
9019,note_on,40,0,0,,4,,,64,127
9037,note_off,18,0,0,,2,,,62,127
9077,note_on,40,0,0,,2,,,62,127
9095,note_off,18,0,0,,4,,,64,127
9364,note_off,269,0,0,,2,,,62,127
9364,note_off,0,0,0,,7,,,79,127
9364,note_off,0,0,0,,7,,,55,127
9384,note_on,20,0,0,,0,,,84,127
9384,note_on,0,0,0,,4,,,52,127
9384,note_on,0,0,0,,0,,,60,127
9536,note_off,152,0,0,,0,,,84,127
9537,note_on,1,0,0,,7,,,79,127
9689,note_off,152,0,0,,7,,,79,127
9690,note_on,1,0,0,,4,,,76,127
9842,note_off,152,0,0,,4,,,76,127
9842,note_off,0,0,0,,0,,,60,127
9842,note_off,0,0,0,,4,,,52,127
9843,note_on,1,0,0,,0,,,72,127
9843,note_on,0,0,0,,4,,,64,127
9843,note_on,0,0,0,,4,,,52,127
9843,note_on,0,0,0,,0,,,60,127
9995,note_off,152,0,0,,0,,,72,127
9996,note_on,1,0,0,,2,,,74,127
10148,note_off,152,0,0,,2,,,74,127
10149,note_on,1,0,0,,4,,,76,127
10301,note_off,152,0,0,,4,,,52,127
10301,note_off,0,0,0,,4,,,64,127
10302,note_on,1,0,0,,2,,,62,127
10302,note_on,0,0,0,,5,,,53,127
10360,note_on,58,0,0,,2,,,74,127
10383,note_off,23,0,0,,4,,,76,127
10418,note_off,35,0,0,,0,,,60,127
10418,note_on,0,0,0,,4,,,76,127
10436,note_off,18,0,0,,2,,,74,127
10476,note_on,40,0,0,,2,,,74,127
10494,note_off,18,0,0,,4,,,76,127
10534,note_on,40,0,0,,4,,,76,127
10552,note_off,18,0,0,,2,,,74,127
10592,note_on,40,0,0,,2,,,74,127
10610,note_off,18,0,0,,4,,,76,127
10650,note_on,40,0,0,,4,,,76,127
10668,note_off,18,0,0,,2,,,74,127
10708,note_on,40,0,0,,2,,,74,127
10726,note_off,18,0,0,,4,,,76,127
10764,note_off,38,0,0,,5,,,53,127
10765,note_on,1,0,0,,4,,,76,127
10765,note_on,0,0,0,,12,,,59,127
10765,note_on,0,0,0,,7,,,55,127
10783,note_off,18,0,0,,2,,,74,127
10823,note_on,40,0,0,,2,,,74,127
10841,note_off,18,0,0,,4,,,76,127
10881,note_on,40,0,0,,4,,,76,127
10899,note_off,18,0,0,,2,,,74,127
10939,note_on,40,0,0,,2,,,74,127
10957,note_off,18,0,0,,4,,,76,127
10997,note_on,40,0,0,,4,,,76,127
11015,note_off,18,0,0,,2,,,74,127
11055,note_on,40,0,0,,2,,,74,127
11073,note_off,18,0,0,,4,,,76,127
11113,note_on,40,0,0,,0,,,72,127
11131,note_off,18,0,0,,2,,,74,127
11171,note_on,40,0,0,,2,,,74,127
11189,note_off,18,0,0,,0,,,72,127
11227,note_off,38,0,0,,7,,,55,127
11227,note_off,0,0,0,,12,,,59,127
11227,note_off,0,0,0,,2,,,62,127
11228,note_on,1,0,0,,0,,,72,127
11228,note_on,0,0,0,,0,,,60,127
11228,note_on,0,0,0,,0,,,48,127
11246,note_off,18,0,0,,2,,,74,127
11702,note_off,456,0,0,,0,,,48,127
11702,note_off,0,0,0,,0,,,60,127
11707,note_off,5,0,0,,0,,,72,127
11708,note_on,1,0,0,,0,,,60,127
11708,note_on,0,0,0,,4,,,64,127
11708,note_on,0,0,0,,7,,,79,127
11860,note_off,152,0,0,,7,,,79,127
11861,note_on,1,0,0,,4,,,76,127
12013,note_off,152,0,0,,4,,,76,127
12014,note_on,1,0,0,,7,,,67,127
12166,note_off,152,0,0,,7,,,67,127
12166,note_off,0,0,0,,4,,,64,127
12166,note_off,0,0,0,,0,,,60,127
12167,note_on,1,0,0,,0,,,60,127
12167,note_on,0,0,0,,5,,,65,127
12627,note_off,460,0,0,,5,,,65,127
12627,note_off,0,0,0,,0,,,60,127
12628,note_on,1,0,0,,5,,,65,127
12628,note_on,0,0,0,,0,,,60,127
12628,note_on,0,0,0,,12,,,71,127
12686,note_on,58,0,0,,10,,,69,127
12704,note_off,18,0,0,,12,,,71,127
12744,note_on,40,0,0,,12,,,71,127
12762,note_off,18,0,0,,10,,,69,127
12802,note_on,40,0,0,,10,,,69,127
12820,note_off,18,0,0,,12,,,71,127
12860,note_on,40,0,0,,12,,,71,127
12878,note_off,18,0,0,,10,,,69,127
12918,note_on,40,0,0,,10,,,69,127
12936,note_off,18,0,0,,12,,,71,127
12976,note_on,40,0,0,,7,,,67,127
12994,note_off,18,0,0,,10,,,69,127
13034,note_on,40,0,0,,10,,,69,127
13052,note_off,18,0,0,,7,,,67,127
13090,note_off,38,0,0,,0,,,60,127
13090,note_off,0,0,0,,5,,,65,127
13091,note_on,1,0,0,,0,,,60,127
13091,note_on,0,0,0,,4,,,64,127
13091,note_on,0,0,0,,7,,,67,127
13109,note_off,18,0,0,,10,,,69,127
13563,note_off,454,0,0,,7,,,67,127
13563,note_off,0,0,0,,4,,,64,127
13563,note_off,0,0,0,,0,,,60,127
13571,note_on,8,0,0,,4,,,76,127
13571,note_on,0,0,0,,4,,,64,127
13571,note_on,0,0,0,,0,,,60,127
13723,note_off,152,0,0,,4,,,76,127
13724,note_on,1,0,0,,0,,,72,127
13875,note_off,151,0,0,,4,,,64,127
13876,note_off,1,0,0,,0,,,72,127
13877,note_on,1,0,0,,4,,,64,127
14029,note_off,152,0,0,,4,,,64,127
14029,note_off,0,0,0,,0,,,60,127
14030,note_on,1,0,0,,2,,,62,127
14030,note_on,0,0,0,,7,,,55,127
14030,note_on,0,0,0,,0,,,60,127
14490,note_off,460,0,0,,0,,,60,127
14490,note_off,0,0,0,,7,,,55,127
14490,note_off,0,0,0,,2,,,62,127
14491,note_on,1,0,0,,7,,,67,127
14491,note_on,0,0,0,,7,,,55,127
14491,note_on,0,0,0,,2,,,62,127
14549,note_on,58,0,0,,5,,,65,127
14567,note_off,18,0,0,,7,,,67,127
14607,note_on,40,0,0,,7,,,67,127
14625,note_off,18,0,0,,5,,,65,127
14665,note_on,40,0,0,,5,,,65,127
14683,note_off,18,0,0,,7,,,67,127
14723,note_on,40,0,0,,7,,,67,127
14741,note_off,18,0,0,,5,,,65,127
14781,note_on,40,0,0,,5,,,65,127
14799,note_off,18,0,0,,7,,,67,127
14839,note_on,40,0,0,,4,,,64,127
14857,note_off,18,0,0,,5,,,65,127
14897,note_on,40,0,0,,5,,,65,127
14915,note_off,18,0,0,,4,,,64,127
14953,note_off,38,0,0,,2,,,62,127
14953,note_off,0,0,0,,7,,,55,127
14954,note_on,1,0,0,,4,,,64,127
14954,note_on,0,0,0,,0,,,60,127
14972,note_off,18,0,0,,5,,,65,127
15424,note_off,452,0,0,,0,,,60,127
15424,note_off,0,0,0,,4,,,64,127
15434,note_on,10,0,0,,4,,,64,127
15434,note_on,0,0,0,,0,,,60,127
15434,note_on,0,0,0,,7,,,79,127
15586,note_off,152,0,0,,7,,,79,127
15587,note_on,1,0,0,,4,,,76,127
15739,note_off,152,0,0,,4,,,76,127
15740,note_on,1,0,0,,7,,,67,127
15892,note_off,152,0,0,,7,,,67,127
15892,note_off,0,0,0,,0,,,60,127
15892,note_off,0,0,0,,4,,,64,127
15893,note_on,1,0,0,,5,,,65,127
15893,note_on,0,0,0,,0,,,60,127
16353,note_off,460,0,0,,0,,,60,127
16353,note_off,0,0,0,,5,,,65,127
16354,note_on,1,0,0,,0,,,60,127
16354,note_on,0,0,0,,5,,,65,127
16354,note_on,0,0,0,,12,,,71,127
16412,note_on,58,0,0,,10,,,69,127
16430,note_off,18,0,0,,12,,,71,127
16470,note_on,40,0,0,,12,,,71,127
16488,note_off,18,0,0,,10,,,69,127
16528,note_on,40,0,0,,10,,,69,127
16546,note_off,18,0,0,,12,,,71,127
16586,note_on,40,0,0,,12,,,71,127
16604,note_off,18,0,0,,10,,,69,127
16644,note_on,40,0,0,,10,,,69,127
16662,note_off,18,0,0,,12,,,71,127
16702,note_on,40,0,0,,7,,,67,127
16720,note_off,18,0,0,,10,,,69,127
16760,note_on,40,0,0,,10,,,69,127
16778,note_off,18,0,0,,7,,,67,127
16816,note_off,38,0,0,,5,,,65,127
16816,note_off,0,0,0,,0,,,60,127
16817,note_on,1,0,0,,4,,,64,127
16817,note_on,0,0,0,,0,,,60,127
16817,note_on,0,0,0,,7,,,67,127
16835,note_off,18,0,0,,10,,,69,127
17289,note_off,454,0,0,,7,,,67,127
17289,note_off,0,0,0,,0,,,60,127
17289,note_off,0,0,0,,4,,,64,127
17297,note_on,8,0,0,,4,,,76,127
17297,note_on,0,0,0,,4,,,64,127
17297,note_on,0,0,0,,0,,,60,127
17449,note_off,152,0,0,,4,,,76,127
17450,note_on,1,0,0,,0,,,72,127
17601,note_off,151,0,0,,4,,,64,127
17602,note_off,1,0,0,,0,,,72,127
17603,note_on,1,0,0,,4,,,64,127
17755,note_off,152,0,0,,4,,,64,127
17755,note_off,0,0,0,,0,,,60,127
17756,note_on,1,0,0,,0,,,60,127
17756,note_on,0,0,0,,2,,,62,127
17756,note_on,0,0,0,,7,,,55,127
18216,note_off,460,0,0,,7,,,55,127
18216,note_off,0,0,0,,2,,,62,127
18216,note_off,0,0,0,,0,,,60,127
18217,note_on,1,0,0,,7,,,67,127
18217,note_on,0,0,0,,2,,,62,127
18217,note_on,0,0,0,,7,,,55,127
18275,note_on,58,0,0,,5,,,65,127
18293,note_off,18,0,0,,7,,,67,127
18333,note_on,40,0,0,,7,,,67,127
18351,note_off,18,0,0,,5,,,65,127
18391,note_on,40,0,0,,5,,,65,127
18409,note_off,18,0,0,,7,,,67,127
18449,note_on,40,0,0,,7,,,67,127
18467,note_off,18,0,0,,5,,,65,127
18507,note_on,40,0,0,,5,,,65,127
18525,note_off,18,0,0,,7,,,67,127
18565,note_on,40,0,0,,4,,,64,127
18583,note_off,18,0,0,,5,,,65,127
18623,note_on,40,0,0,,5,,,65,127
18641,note_off,18,0,0,,4,,,64,127
18679,note_off,38,0,0,,7,,,55,127
18679,note_off,0,0,0,,2,,,62,127
18680,note_on,1,0,0,,4,,,64,127
18680,note_on,0,0,0,,0,,,60,127
18698,note_off,18,0,0,,5,,,65,127
19153,note_off,455,0,0,,0,,,60,127
19153,note_off,0,0,0,,4,,,64,127
19163,note_on,10,0,0,,0,,,72,127
19163,note_on,0,0,0,,2,,,74,127
19163,note_on,0,0,0,,7,,,67,127
19163,note_on,0,0,0,,0,,,60,127
19239,note_off,76,0,0,,2,,,74,127
19239,note_off,0,0,0,,0,,,72,127
19240,note_on,1,0,0,,12,,,71,127
19316,note_off,76,0,0,,12,,,71,127
19317,note_on,1,0,0,,0,,,72,127
19393,note_off,76,0,0,,0,,,72,127
19394,note_on,1,0,0,,2,,,74,127
19470,note_off,76,0,0,,2,,,74,127
19471,note_on,1,0,0,,4,,,76,127
19623,note_off,152,0,0,,4,,,76,127
19623,note_off,0,0,0,,0,,,60,127
19623,note_off,0,0,0,,7,,,67,127
19624,note_on,1,0,0,,2,,,74,127
19624,note_on,0,0,0,,7,,,67,127
19624,note_on,0,0,0,,12,,,59,127
19776,note_off,152,0,0,,2,,,74,127
19777,note_on,1,0,0,,10,,,81,127
19929,note_off,152,0,0,,10,,,81,127
19930,note_on,1,0,0,,7,,,79,127
20082,note_off,152,0,0,,7,,,79,127
20082,note_off,0,0,0,,12,,,59,127
20082,note_off,0,0,0,,7,,,67,127
20083,note_on,1,0,0,,10,,,81,127
20083,note_on,0,0,0,,7,,,67,127
20083,note_on,0,0,0,,12,,,59,127
20121,note_on,38,0,0,,7,,,79,127
20158,note_off,37,0,0,,10,,,81,127
20159,note_on,1,0,0,,10,,,81,127
20196,note_off,37,0,0,,7,,,79,127
20197,note_on,1,0,0,,7,,,79,127
20234,note_off,37,0,0,,10,,,81,127
20541,note_off,307,0,0,,12,,,59,127
20541,note_off,0,0,0,,7,,,67,127
20561,note_on,20,0,0,,7,,,67,127
20561,note_on,0,0,0,,10,,,57,127
20886,note_off,325,0,0,,7,,,79,127
21020,note_off,134,0,0,,10,,,57,127
21020,note_off,0,0,0,,7,,,67,127
21021,note_on,1,0,0,,10,,,57,127
21021,note_on,0,0,0,,0,,,60,127
21021,note_on,0,0,0,,12,,,71,127
21021,note_on,0,0,0,,10,,,69,127
21097,note_off,76,0,0,,10,,,69,127
21097,note_off,0,0,0,,12,,,71,127
21098,note_on,1,0,0,,7,,,67,127
21174,note_off,76,0,0,,7,,,67,127
21175,note_on,1,0,0,,10,,,69,127
21251,note_off,76,0,0,,10,,,69,127
21252,note_on,1,0,0,,12,,,71,127
21328,note_off,76,0,0,,12,,,71,127
21329,note_on,1,0,0,,0,,,72,127
21481,note_off,152,0,0,,0,,,72,127
21481,note_off,0,0,0,,0,,,60,127
21481,note_off,0,0,0,,10,,,57,127
21482,note_on,1,0,0,,2,,,62,127
21482,note_on,0,0,0,,7,,,55,127
21482,note_on,0,0,0,,12,,,71,127
21634,note_off,152,0,0,,12,,,71,127
21635,note_on,1,0,0,,10,,,81,127
21787,note_off,152,0,0,,10,,,81,127
21788,note_on,1,0,0,,7,,,79,127
21940,note_off,152,0,0,,7,,,79,127
21940,note_off,0,0,0,,7,,,55,127
21940,note_off,0,0,0,,2,,,62,127
21941,note_on,1,0,0,,7,,,55,127
21941,note_on,0,0,0,,2,,,62,127
21941,note_on,0,0,0,,10,,,81,127
21979,note_on,38,0,0,,7,,,79,127
22016,note_off,37,0,0,,10,,,81,127
22017,note_on,1,0,0,,10,,,81,127
22054,note_off,37,0,0,,7,,,79,127
22055,note_on,1,0,0,,7,,,79,127
22092,note_off,37,0,0,,10,,,81,127
22399,note_off,307,0,0,,2,,,62,127
22399,note_off,0,0,0,,7,,,55,127
22419,note_on,20,0,0,,0,,,60,127
22419,note_on,0,0,0,,4,,,64,127
22630,note_off,211,0,0,,7,,,79,127
22878,note_off,248,0,0,,4,,,64,127
22878,note_off,0,0,0,,0,,,60,127
22879,note_on,1,0,0,,0,,,72,127
22879,note_on,0,0,0,,2,,,74,127
22879,note_on,0,0,0,,7,,,67,127
22879,note_on,0,0,0,,0,,,60,127
22955,note_off,76,0,0,,2,,,74,127
22955,note_off,0,0,0,,0,,,72,127
22956,note_on,1,0,0,,12,,,71,127
23032,note_off,76,0,0,,12,,,71,127
23033,note_on,1,0,0,,0,,,72,127
23109,note_off,76,0,0,,0,,,72,127
23110,note_on,1,0,0,,2,,,74,127
23186,note_off,76,0,0,,2,,,74,127
23187,note_on,1,0,0,,4,,,76,127
23339,note_off,152,0,0,,4,,,76,127
23339,note_off,0,0,0,,0,,,60,127
23339,note_off,0,0,0,,7,,,67,127
23340,note_on,1,0,0,,2,,,74,127
23340,note_on,0,0,0,,12,,,59,127
23340,note_on,0,0,0,,7,,,67,127
23492,note_off,152,0,0,,2,,,74,127
23493,note_on,1,0,0,,10,,,81,127
23645,note_off,152,0,0,,10,,,81,127
23646,note_on,1,0,0,,7,,,79,127
23798,note_off,152,0,0,,7,,,79,127
23798,note_off,0,0,0,,7,,,67,127
23798,note_off,0,0,0,,12,,,59,127
23799,note_on,1,0,0,,10,,,81,127
23799,note_on,0,0,0,,7,,,67,127
23799,note_on,0,0,0,,12,,,59,127
23837,note_on,38,0,0,,7,,,79,127
23874,note_off,37,0,0,,10,,,81,127
23875,note_on,1,0,0,,10,,,81,127
23912,note_off,37,0,0,,7,,,79,127
23913,note_on,1,0,0,,7,,,79,127
23950,note_off,37,0,0,,10,,,81,127
24257,note_off,307,0,0,,12,,,59,127
24257,note_off,0,0,0,,7,,,67,127
24277,note_on,20,0,0,,10,,,57,127
24277,note_on,0,0,0,,7,,,67,127
24368,note_off,91,0,0,,7,,,79,127
24736,note_off,368,0,0,,7,,,67,127
24736,note_off,0,0,0,,10,,,57,127
24737,note_on,1,0,0,,0,,,60,127
24737,note_on,0,0,0,,10,,,57,127
24737,note_on,0,0,0,,12,,,71,127
24737,note_on,0,0,0,,10,,,69,127
24813,note_off,76,0,0,,10,,,69,127
24813,note_off,0,0,0,,12,,,71,127
24814,note_on,1,0,0,,7,,,67,127
24890,note_off,76,0,0,,7,,,67,127
24891,note_on,1,0,0,,10,,,69,127
24967,note_off,76,0,0,,10,,,69,127
24968,note_on,1,0,0,,12,,,71,127
25044,note_off,76,0,0,,12,,,71,127
25045,note_on,1,0,0,,0,,,72,127
25197,note_off,152,0,0,,0,,,72,127
25197,note_off,0,0,0,,10,,,57,127
25197,note_off,0,0,0,,0,,,60,127
25198,note_on,1,0,0,,7,,,55,127
25198,note_on,0,0,0,,2,,,62,127
25198,note_on,0,0,0,,12,,,71,127
25350,note_off,152,0,0,,12,,,71,127
25351,note_on,1,0,0,,10,,,81,127
25503,note_off,152,0,0,,10,,,81,127
25504,note_on,1,0,0,,7,,,79,127
25656,note_off,152,0,0,,7,,,79,127
25656,note_off,0,0,0,,2,,,62,127
25656,note_off,0,0,0,,7,,,55,127
25657,note_on,1,0,0,,7,,,55,127
25657,note_on,0,0,0,,2,,,62,127
25657,note_on,0,0,0,,10,,,81,127
25695,note_on,38,0,0,,7,,,79,127
25732,note_off,37,0,0,,10,,,81,127
25733,note_on,1,0,0,,10,,,81,127
25770,note_off,37,0,0,,7,,,79,127
25771,note_on,1,0,0,,7,,,79,127
25808,note_off,37,0,0,,10,,,81,127
26114,note_off,306,0,0,,2,,,62,127
26115,note_off,1,0,0,,7,,,79,127
26155,note_on,40,0,0,,2,,,62,127
26307,note_off,152,0,0,,2,,,62,127
26308,note_on,1,0,0,,2,,,62,127
26460,note_off,152,0,0,,2,,,62,127
26461,note_on,1,0,0,,2,,,62,127
26575,note_off,114,0,0,,7,,,55,127
26613,note_off,38,0,0,,2,,,62,127
26614,note_on,1,0,0,,6,,,54,127
26614,note_on,0,0,0,,0,,,60,127
26614,note_on,0,0,0,,2,,,62,127
26766,note_off,152,0,0,,2,,,62,127
26767,note_on,1,0,0,,2,,,62,127
26919,note_off,152,0,0,,2,,,62,127
26920,note_on,1,0,0,,2,,,62,127
27072,note_off,152,0,0,,2,,,62,127
27072,note_off,0,0,0,,0,,,60,127
27072,note_off,0,0,0,,6,,,54,127
27073,note_on,1,0,0,,0,,,60,127
27073,note_on,0,0,0,,7,,,55,127
27073,note_on,0,0,0,,2,,,62,127
27225,note_off,152,0,0,,2,,,62,127
27226,note_on,1,0,0,,2,,,62,127
27378,note_off,152,0,0,,2,,,62,127
27379,note_on,1,0,0,,2,,,62,127
27531,note_off,152,0,0,,2,,,62,127
27531,note_off,0,0,0,,7,,,55,127
27532,note_on,1,0,0,,7,,,55,127
27532,note_on,0,0,0,,2,,,62,127
27590,note_on,58,0,0,,12,,,59,127
27600,note_off,10,0,0,,0,,,60,127
27648,note_on,48,0,0,,0,,,60,127
27666,note_off,18,0,0,,12,,,59,127
27685,note_off,19,0,0,,2,,,62,127
27686,note_on,1,0,0,,2,,,62,127
27705,note_on,19,0,0,,12,,,59,127
27723,note_off,18,0,0,,0,,,60,127
27838,note_off,115,0,0,,2,,,62,127
27839,note_on,1,0,0,,2,,,62,127
27991,note_off,152,0,0,,2,,,62,127
27992,note_on,1,0,0,,2,,,62,127
28144,note_off,152,0,0,,2,,,62,127
28145,note_on,1,0,0,,2,,,62,127
28297,note_off,152,0,0,,2,,,62,127
28298,note_on,1,0,0,,2,,,62,127
28399,note_off,101,0,0,,12,,,59,127
28451,note_off,52,0,0,,2,,,62,127
28451,note_off,0,0,0,,7,,,55,127
28452,note_on,1,0,0,,6,,,54,127
28452,note_on,0,0,0,,0,,,60,127
28452,note_on,0,0,0,,2,,,62,127
28604,note_off,152,0,0,,2,,,62,127
28605,note_on,1,0,0,,2,,,62,127
28757,note_off,152,0,0,,2,,,62,127
28758,note_on,1,0,0,,2,,,62,127
28910,note_off,152,0,0,,2,,,62,127
28910,note_off,0,0,0,,0,,,60,127
28910,note_off,0,0,0,,6,,,54,127
28911,note_on,1,0,0,,0,,,60,127
28911,note_on,0,0,0,,7,,,55,127
28911,note_on,0,0,0,,2,,,62,127
29063,note_off,152,0,0,,2,,,62,127
29064,note_on,1,0,0,,2,,,62,127
29216,note_off,152,0,0,,2,,,62,127
29217,note_on,1,0,0,,2,,,62,127
29369,note_off,152,0,0,,2,,,62,127
29369,note_off,0,0,0,,7,,,55,127
29370,note_on,1,0,0,,7,,,55,127
29370,note_on,0,0,0,,2,,,62,127
29428,note_on,58,0,0,,12,,,59,127
29438,note_off,10,0,0,,0,,,60,127
29486,note_on,48,0,0,,0,,,60,127
29504,note_off,18,0,0,,12,,,59,127
29523,note_off,19,0,0,,2,,,62,127
29524,note_on,1,0,0,,2,,,62,127
29543,note_on,19,0,0,,12,,,59,127
29561,note_off,18,0,0,,0,,,60,127
29676,note_off,115,0,0,,2,,,62,127
29677,note_on,1,0,0,,2,,,62,127
29829,note_off,152,0,0,,2,,,62,127
29829,note_off,0,0,0,,7,,,55,127
29849,note_on,20,0,0,,4,,,64,127
29849,note_on,0,0,0,,0,,,48,127
29878,note_off,29,0,0,,12,,,59,127
30002,note_off,124,0,0,,4,,,64,127
30003,note_on,1,0,0,,6,,,66,127
30155,note_off,152,0,0,,6,,,66,127
30156,note_on,1,0,0,,7,,,67,127
30308,note_off,152,0,0,,7,,,67,127
30308,note_off,0,0,0,,0,,,48,127
30309,note_on,1,0,0,,10,,,69,127
30309,note_on,0,0,0,,0,,,60,127
30309,note_on,0,0,0,,4,,,64,127
30461,note_off,152,0,0,,10,,,69,127
30462,note_on,1,0,0,,12,,,71,127
30614,note_off,152,0,0,,12,,,71,127
30615,note_on,1,0,0,,0,,,72,127
30767,note_off,152,0,0,,0,,,72,127
30767,note_off,0,0,0,,4,,,64,127
30768,note_on,1,0,0,,2,,,74,127
30768,note_on,0,0,0,,2,,,62,127
30920,note_off,152,0,0,,2,,,74,127
30921,note_on,1,0,0,,4,,,76,127
31073,note_off,152,0,0,,4,,,76,127
31074,note_on,1,0,0,,6,,,78,127
31226,note_off,152,0,0,,6,,,78,127
31226,note_off,0,0,0,,2,,,62,127
31226,note_off,0,0,0,,0,,,60,127
31227,note_on,1,0,0,,7,,,79,127
31227,note_on,0,0,0,,12,,,59,127
31227,note_on,0,0,0,,2,,,62,127
31379,note_off,152,0,0,,7,,,79,127
31380,note_on,1,0,0,,10,,,81,127
31532,note_off,152,0,0,,10,,,81,127
31533,note_on,1,0,0,,12,,,83,127
31685,note_off,152,0,0,,12,,,83,127
31685,note_off,0,0,0,,2,,,62,127
31685,note_off,0,0,0,,12,,,59,127
31686,note_on,1,0,0,,0,,,84,127
31686,note_on,0,0,0,,10,,,57,127
31686,note_on,0,0,0,,0,,,60,127
31840,note_on,154,0,0,,0,,,72,127
31992,note_off,152,0,0,,0,,,72,127
31993,note_on,1,0,0,,0,,,72,127
32145,note_off,152,0,0,,0,,,72,127
32145,note_off,0,0,0,,0,,,60,127
32145,note_off,0,0,0,,10,,,57,127
32146,note_on,1,0,0,,0,,,72,127
32146,note_on,0,0,0,,7,,,55,127
32146,note_on,0,0,0,,0,,,60,127
32298,note_off,152,0,0,,0,,,72,127
32299,note_on,1,0,0,,0,,,72,127
32451,note_off,152,0,0,,0,,,72,127
32452,note_on,1,0,0,,0,,,72,127
32604,note_off,152,0,0,,0,,,72,127
32604,note_off,0,0,0,,0,,,60,127
32604,note_off,0,0,0,,7,,,55,127
32604,note_off,0,0,0,,0,,,84,127
32605,note_on,1,0,0,,0,,,72,127
32605,note_on,0,0,0,,6,,,54,127
32605,note_on,0,0,0,,0,,,60,127
32757,note_off,152,0,0,,0,,,72,127
32758,note_on,1,0,0,,0,,,72,127
32910,note_off,152,0,0,,0,,,72,127
32911,note_on,1,0,0,,0,,,72,127
33063,note_off,152,0,0,,0,,,72,127
33063,note_off,0,0,0,,0,,,60,127
33063,note_off,0,0,0,,6,,,54,127
33064,note_on,1,0,0,,0,,,72,127
33064,note_on,0,0,0,,4,,,52,127
33064,note_on,0,0,0,,7,,,55,127
33216,note_off,152,0,0,,0,,,72,127
33217,note_on,1,0,0,,0,,,72,127
33369,note_off,152,0,0,,0,,,72,127
33370,note_on,1,0,0,,1,,,73,127
33522,note_off,152,0,0,,1,,,73,127
33522,note_off,0,0,0,,7,,,55,127
33522,note_off,0,0,0,,4,,,52,127
33523,note_on,1,0,0,,2,,,74,127
33523,note_on,0,0,0,,10,,,57,127
33523,note_on,0,0,0,,2,,,50,127
33677,note_on,154,0,0,,2,,,62,127
33829,note_off,152,0,0,,2,,,62,127
33830,note_on,1,0,0,,2,,,62,127
33982,note_off,152,0,0,,2,,,62,127
33982,note_off,0,0,0,,2,,,50,127
33982,note_off,0,0,0,,2,,,74,127
33983,note_on,1,0,0,,2,,,62,127
33983,note_on,0,0,0,,2,,,74,127
33983,note_on,0,0,0,,0,,,48,127
34135,note_off,152,0,0,,2,,,62,127
34136,note_on,1,0,0,,2,,,62,127
34288,note_off,152,0,0,,2,,,62,127
34289,note_on,1,0,0,,2,,,62,127
34441,note_off,152,0,0,,2,,,62,127
34441,note_off,0,0,0,,0,,,48,127
34441,note_off,0,0,0,,10,,,57,127
34442,note_on,1,0,0,,2,,,62,127
34442,note_on,0,0,0,,12,,,47,127
34442,note_on,0,0,0,,7,,,55,127
34594,note_off,152,0,0,,2,,,62,127
34595,note_on,1,0,0,,2,,,62,127
34747,note_off,152,0,0,,2,,,62,127
34748,note_on,1,0,0,,2,,,62,127
34900,note_off,152,0,0,,2,,,62,127
34900,note_off,0,0,0,,7,,,55,127
34900,note_off,0,0,0,,12,,,47,127
34900,note_off,0,0,0,,2,,,74,127
34901,note_on,1,0,0,,2,,,62,127
34901,note_on,0,0,0,,0,,,72,127
34901,note_on,0,0,0,,6,,,54,127
34901,note_on,0,0,0,,10,,,45,127
35053,note_off,152,0,0,,2,,,62,127
35054,note_on,1,0,0,,4,,,64,127
35206,note_off,152,0,0,,4,,,64,127
35207,note_on,1,0,0,,6,,,66,127
35359,note_off,152,0,0,,6,,,66,127
35359,note_off,0,0,0,,10,,,45,127
35359,note_off,0,0,0,,6,,,54,127
35359,note_off,0,0,0,,0,,,72,127
35379,note_on,20,0,0,,7,,,55,127
35379,note_on,0,0,0,,7,,,43,127
35379,note_on,0,0,0,,0,,,72,127
35379,note_on,0,0,0,,12,,,71,127
35455,note_off,76,0,0,,12,,,71,127
35455,note_off,0,0,0,,0,,,72,127
35456,note_on,1,0,0,,10,,,69,127
35532,note_off,76,0,0,,10,,,69,127
35533,note_on,1,0,0,,12,,,71,127
35609,note_off,76,0,0,,12,,,71,127
35610,note_on,1,0,0,,0,,,72,127
35686,note_off,76,0,0,,0,,,72,127
35687,note_on,1,0,0,,2,,,74,127
35839,note_off,152,0,0,,2,,,74,127
35839,note_off,0,0,0,,7,,,43,127
35839,note_off,0,0,0,,7,,,55,127
35840,note_on,1,0,0,,0,,,48,127
35840,note_on,0,0,0,,0,,,60,127
35840,note_on,0,0,0,,6,,,78,127
35840,note_on,0,0,0,,4,,,76,127
35916,note_off,76,0,0,,4,,,76,127
35916,note_off,0,0,0,,6,,,78,127
35917,note_on,1,0,0,,2,,,74,127
35993,note_off,76,0,0,,2,,,74,127
35994,note_on,1,0,0,,4,,,76,127
36070,note_off,76,0,0,,4,,,76,127
36071,note_on,1,0,0,,6,,,78,127
36147,note_off,76,0,0,,6,,,78,127
36148,note_on,1,0,0,,7,,,79,127
36300,note_off,152,0,0,,0,,,60,127
36300,note_off,0,0,0,,0,,,48,127
36301,note_on,1,0,0,,2,,,50,127
36301,note_on,0,0,0,,12,,,59,127
36453,note_off,152,0,0,,7,,,79,127
36454,note_on,1,0,0,,12,,,71,127
36606,note_off,152,0,0,,12,,,71,127
36607,note_on,1,0,0,,2,,,74,127
36759,note_off,152,0,0,,12,,,59,127
36759,note_off,0,0,0,,2,,,50,127
36760,note_on,1,0,0,,10,,,57,127
36760,note_on,0,0,0,,2,,,50,127
36912,note_off,152,0,0,,2,,,74,127
36913,note_on,1,0,0,,10,,,69,127
37065,note_off,152,0,0,,10,,,69,127
37066,note_on,1,0,0,,6,,,66,127
37218,note_off,152,0,0,,6,,,66,127
37218,note_off,0,0,0,,2,,,50,127
37218,note_off,0,0,0,,10,,,57,127
37238,note_on,20,0,0,,7,,,67,127
37238,note_on,0,0,0,,10,,,69,127
37238,note_on,0,0,0,,7,,,55,127
37238,note_on,0,0,0,,7,,,43,127
37314,note_off,76,0,0,,10,,,69,127
37314,note_off,0,0,0,,7,,,67,127
37315,note_on,1,0,0,,6,,,66,127
37391,note_off,76,0,0,,6,,,66,127
37392,note_on,1,0,0,,7,,,67,127
37468,note_off,76,0,0,,7,,,67,127
37469,note_on,1,0,0,,10,,,69,127
37545,note_off,76,0,0,,10,,,69,127
37546,note_on,1,0,0,,12,,,71,127
37698,note_off,152,0,0,,12,,,71,127
37699,note_on,1,0,0,,12,,,71,127
37699,note_on,0,0,0,,0,,,72,127
37775,note_off,76,0,0,,0,,,72,127
37775,note_off,0,0,0,,12,,,71,127
37776,note_on,1,0,0,,10,,,69,127
37852,note_off,76,0,0,,10,,,69,127
37853,note_on,1,0,0,,12,,,71,127
37929,note_off,76,0,0,,12,,,71,127
37930,note_on,1,0,0,,0,,,72,127
38006,note_off,76,0,0,,0,,,72,127
38007,note_on,1,0,0,,2,,,74,127
38159,note_off,152,0,0,,2,,,74,127
38159,note_off,0,0,0,,7,,,43,127
38159,note_off,0,0,0,,7,,,55,127
38160,note_on,1,0,0,,7,,,79,127
38160,note_on,0,0,0,,7,,,55,127
38236,note_off,76,0,0,,7,,,55,127
38237,note_on,1,0,0,,6,,,54,127
38313,note_off,76,0,0,,6,,,54,127
38314,note_on,1,0,0,,7,,,55,127
38390,note_off,76,0,0,,7,,,55,127
38391,note_on,1,0,0,,10,,,57,127
38467,note_off,76,0,0,,10,,,57,127
38468,note_on,1,0,0,,12,,,59,127
38620,note_off,152,0,0,,12,,,59,127
38621,note_on,1,0,0,,12,,,59,127
38697,note_off,76,0,0,,12,,,59,127
38698,note_on,1,0,0,,10,,,57,127
38774,note_off,76,0,0,,10,,,57,127
38775,note_on,1,0,0,,12,,,59,127
38851,note_off,76,0,0,,12,,,59,127
38852,note_on,1,0,0,,0,,,60,127
38928,note_off,76,0,0,,0,,,60,127
38929,note_on,1,0,0,,2,,,62,127
39081,note_off,152,0,0,,2,,,62,127
39082,note_on,1,0,0,,0,,,36,127
39082,note_on,0,0,0,,0,,,48,127
39234,note_off,152,0,0,,7,,,79,127
39235,note_on,1,0,0,,4,,,76,127
39387,note_off,152,0,0,,4,,,76,127
39388,note_on,1,0,0,,0,,,72,127
39540,note_off,152,0,0,,0,,,48,127
39540,note_off,0,0,0,,0,,,36,127
39541,note_on,1,0,0,,0,,,48,127
39541,note_on,0,0,0,,0,,,36,127
39693,note_off,152,0,0,,0,,,72,127
39694,note_on,1,0,0,,4,,,64,127
39846,note_off,152,0,0,,4,,,64,127
39847,note_on,1,0,0,,10,,,69,127
39999,note_off,152,0,0,,10,,,69,127
39999,note_off,0,0,0,,0,,,36,127
39999,note_off,0,0,0,,0,,,48,127
40000,note_on,1,0,0,,7,,,67,127
40000,note_on,0,0,0,,2,,,38,127
40000,note_on,0,0,0,,2,,,50,127
40460,note_off,460,0,0,,2,,,50,127
40460,note_off,0,0,0,,2,,,38,127
40460,note_off,0,0,0,,7,,,67,127
40461,note_on,1,0,0,,12,,,71,127
40461,note_on,0,0,0,,6,,,66,127
40461,note_on,0,0,0,,2,,,38,127
40461,note_on,0,0,0,,2,,,50,127
40519,note_on,58,0,0,,10,,,69,127
40537,note_off,18,0,0,,12,,,71,127
40577,note_on,40,0,0,,12,,,71,127
40595,note_off,18,0,0,,10,,,69,127
40635,note_on,40,0,0,,10,,,69,127
40653,note_off,18,0,0,,12,,,71,127
40693,note_on,40,0,0,,12,,,71,127
40711,note_off,18,0,0,,10,,,69,127
40751,note_on,40,0,0,,10,,,69,127
40769,note_off,18,0,0,,12,,,71,127
40809,note_on,40,0,0,,7,,,67,127
40827,note_off,18,0,0,,10,,,69,127
40867,note_on,40,0,0,,10,,,69,127
40885,note_off,18,0,0,,7,,,67,127
40922,note_off,37,0,0,,10,,,69,127
40923,note_off,1,0,0,,2,,,50,127
40923,note_off,0,0,0,,2,,,38,127
40923,note_off,0,0,0,,6,,,66,127
40943,note_on,20,0,0,,7,,,43,127
40943,note_on,0,0,0,,7,,,55,127
40943,note_on,0,0,0,,10,,,69,127
40943,note_on,0,0,0,,7,,,67,127
41019,note_off,76,0,0,,7,,,67,127
41019,note_off,0,0,0,,10,,,69,127
41020,note_on,1,0,0,,6,,,66,127
41096,note_off,76,0,0,,6,,,66,127
41097,note_on,1,0,0,,7,,,67,127
41173,note_off,76,0,0,,7,,,67,127
41174,note_on,1,0,0,,10,,,69,127
41250,note_off,76,0,0,,10,,,69,127
41251,note_on,1,0,0,,12,,,71,127
41403,note_off,152,0,0,,12,,,71,127
41404,note_on,1,0,0,,0,,,72,127
41404,note_on,0,0,0,,12,,,71,127
41480,note_off,76,0,0,,12,,,71,127
41480,note_off,0,0,0,,0,,,72,127
41481,note_on,1,0,0,,10,,,69,127
41557,note_off,76,0,0,,10,,,69,127
41558,note_on,1,0,0,,12,,,71,127
41634,note_off,76,0,0,,12,,,71,127
41635,note_on,1,0,0,,0,,,72,127
41711,note_off,76,0,0,,0,,,72,127
41712,note_on,1,0,0,,2,,,74,127
41864,note_off,152,0,0,,2,,,74,127
41864,note_off,0,0,0,,7,,,55,127
41864,note_off,0,0,0,,7,,,43,127
41865,note_on,1,0,0,,7,,,55,127
41865,note_on,0,0,0,,7,,,79,127
41941,note_off,76,0,0,,7,,,55,127
41942,note_on,1,0,0,,6,,,54,127
42018,note_off,76,0,0,,6,,,54,127
42019,note_on,1,0,0,,7,,,55,127
42095,note_off,76,0,0,,7,,,55,127
42096,note_on,1,0,0,,10,,,57,127
42172,note_off,76,0,0,,10,,,57,127
42173,note_on,1,0,0,,12,,,59,127
42325,note_off,152,0,0,,12,,,59,127
42326,note_on,1,0,0,,12,,,59,127
42402,note_off,76,0,0,,12,,,59,127
42403,note_on,1,0,0,,10,,,57,127
42479,note_off,76,0,0,,10,,,57,127
42480,note_on,1,0,0,,12,,,59,127
42556,note_off,76,0,0,,12,,,59,127
42557,note_on,1,0,0,,0,,,60,127
42633,note_off,76,0,0,,0,,,60,127
42634,note_on,1,0,0,,2,,,62,127
42786,note_off,152,0,0,,2,,,62,127
42787,note_on,1,0,0,,0,,,36,127
42787,note_on,0,0,0,,0,,,48,127
42939,note_off,152,0,0,,7,,,79,127
42959,note_on,20,0,0,,7,,,67,127
43111,note_off,152,0,0,,7,,,67,127
43112,note_on,1,0,0,,4,,,76,127
43245,note_off,133,0,0,,0,,,48,127
43245,note_off,0,0,0,,0,,,36,127
43265,note_on,20,0,0,,0,,,48,127
43265,note_on,0,0,0,,0,,,36,127
43417,note_off,152,0,0,,4,,,76,127
43418,note_on,1,0,0,,4,,,64,127
43570,note_off,152,0,0,,4,,,64,127
43571,note_on,1,0,0,,10,,,69,127
43723,note_off,152,0,0,,10,,,69,127
43723,note_off,0,0,0,,0,,,36,127
43723,note_off,0,0,0,,0,,,48,127
43724,note_on,1,0,0,,7,,,67,127
43724,note_on,0,0,0,,2,,,50,127
43724,note_on,0,0,0,,2,,,38,127
44184,note_off,460,0,0,,2,,,38,127
44184,note_off,0,0,0,,2,,,50,127
44184,note_off,0,0,0,,7,,,67,127
44185,note_on,1,0,0,,12,,,71,127
44185,note_on,0,0,0,,6,,,66,127
44185,note_on,0,0,0,,2,,,50,127
44185,note_on,0,0,0,,2,,,38,127
44243,note_on,58,0,0,,10,,,69,127
44261,note_off,18,0,0,,12,,,71,127
44301,note_on,40,0,0,,12,,,71,127
44319,note_off,18,0,0,,10,,,69,127
44359,note_on,40,0,0,,10,,,69,127
44377,note_off,18,0,0,,12,,,71,127
44417,note_on,40,0,0,,12,,,71,127
44435,note_off,18,0,0,,10,,,69,127
44475,note_on,40,0,0,,10,,,69,127
44493,note_off,18,0,0,,12,,,71,127
44533,note_on,40,0,0,,7,,,67,127
44551,note_off,18,0,0,,10,,,69,127
44591,note_on,40,0,0,,10,,,69,127
44609,note_off,18,0,0,,7,,,67,127
44647,note_off,38,0,0,,2,,,38,127
44647,note_off,0,0,0,,2,,,50,127
44647,note_off,0,0,0,,6,,,66,127
44655,note_on,8,0,0,,7,,,43,127
44655,note_on,0,0,0,,7,,,55,127
44655,note_on,0,0,0,,7,,,67,127
44666,note_off,11,0,0,,10,,,69,127
45855,note_off,1189,0,0,,7,,,67,127
45855,note_off,0,0,0,,7,,,55,127
45855,note_off,0,0,0,,7,,,43,127
46107,note_on,252,0,0,,2,,,74,127
46107,note_on,0,0,0,,7,,,67,127
46259,note_off,152,0,0,,2,,,74,127
46260,note_on,1,0,0,,11,,,70,127
46412,note_off,152,0,0,,11,,,70,127
46413,note_on,1,0,0,,3,,,75,127
46565,note_off,152,0,0,,3,,,75,127
46565,note_off,0,0,0,,7,,,67,127
46566,note_on,1,0,0,,2,,,74,127
46566,note_on,0,0,0,,7,,,67,127
46872,note_off,306,0,0,,2,,,74,127
46873,note_on,1,0,0,,0,,,72,127
47025,note_off,152,0,0,,7,,,67,127
47026,note_on,1,0,0,,6,,,66,127
47486,note_off,460,0,0,,6,,,66,127
47487,note_on,1,0,0,,7,,,67,127
47793,note_off,306,0,0,,0,,,72,127
47947,note_off,154,0,0,,7,,,67,127
47967,note_on,20,0,0,,7,,,67,127
47967,note_on,0,0,0,,2,,,74,127
48119,note_off,152,0,0,,2,,,74,127
48120,note_on,1,0,0,,11,,,70,127
48272,note_off,152,0,0,,11,,,70,127
48273,note_on,1,0,0,,3,,,75,127
48425,note_off,152,0,0,,3,,,75,127
48425,note_off,0,0,0,,7,,,67,127
48426,note_on,1,0,0,,7,,,67,127
48426,note_on,0,0,0,,2,,,74,127
48732,note_off,306,0,0,,2,,,74,127
48733,note_on,1,0,0,,0,,,72,127
48885,note_off,152,0,0,,7,,,67,127
48886,note_on,1,0,0,,6,,,66,127
49308,note_off,422,0,0,,0,,,72,127
49345,note_off,37,0,0,,6,,,66,127
49346,note_on,1,0,0,,7,,,67,127
49806,note_off,460,0,0,,7,,,67,127
49826,note_on,20,0,0,,3,,,75,127
49826,note_on,0,0,0,,3,,,63,127
49978,note_off,152,0,0,,3,,,75,127
49979,note_on,1,0,0,,11,,,70,127
50131,note_off,152,0,0,,11,,,70,127
50132,note_on,1,0,0,,7,,,79,127
50284,note_off,152,0,0,,7,,,79,127
50284,note_off,0,0,0,,3,,,63,127
50285,note_on,1,0,0,,7,,,79,127
50285,note_on,0,0,0,,8,,,68,127
50285,note_on,0,0,0,,5,,,65,127
50285,note_on,0,0,0,,3,,,63,127
50591,note_off,306,0,0,,7,,,79,127
50592,note_on,1,0,0,,5,,,77,127
50744,note_off,152,0,0,,3,,,63,127
50744,note_off,0,0,0,,5,,,65,127
50745,note_on,1,0,0,,5,,,65,127
50745,note_on,0,0,0,,2,,,62,127
51205,note_off,460,0,0,,2,,,62,127
51205,note_off,0,0,0,,5,,,65,127
51205,note_off,0,0,0,,8,,,68,127
51206,note_on,1,0,0,,7,,,67,127
51206,note_on,0,0,0,,3,,,63,127
51512,note_off,306,0,0,,5,,,77,127
51666,note_off,154,0,0,,3,,,63,127
51666,note_off,0,0,0,,7,,,67,127
51686,note_on,20,0,0,,7,,,67,127
51686,note_on,0,0,0,,3,,,63,127
51686,note_on,0,0,0,,3,,,75,127
51838,note_off,152,0,0,,3,,,75,127
51839,note_on,1,0,0,,11,,,70,127
51991,note_off,152,0,0,,11,,,70,127
51992,note_on,1,0,0,,7,,,79,127
52144,note_off,152,0,0,,7,,,79,127
52144,note_off,0,0,0,,3,,,63,127
52144,note_off,0,0,0,,7,,,67,127
52145,note_on,1,0,0,,5,,,65,127
52145,note_on,0,0,0,,3,,,63,127
52145,note_on,0,0,0,,8,,,68,127
52145,note_on,0,0,0,,7,,,79,127
52451,note_off,306,0,0,,7,,,79,127
52452,note_on,1,0,0,,5,,,77,127
52604,note_off,152,0,0,,3,,,63,127
52604,note_off,0,0,0,,5,,,65,127
52605,note_on,1,0,0,,2,,,62,127
52605,note_on,0,0,0,,5,,,65,127
53065,note_off,460,0,0,,5,,,65,127
53065,note_off,0,0,0,,2,,,62,127
53065,note_off,0,0,0,,5,,,77,127
53065,note_off,0,0,0,,8,,,68,127
53085,note_on,20,0,0,,7,,,79,127
53085,note_on,0,0,0,,8,,,68,127
53085,note_on,0,0,0,,2,,,62,127
53085,note_on,0,0,0,,5,,,65,127
53391,note_off,306,0,0,,7,,,79,127
53392,note_on,1,0,0,,5,,,77,127
53544,note_off,152,0,0,,2,,,62,127
53545,note_on,1,0,0,,0,,,60,127
54005,note_off,460,0,0,,5,,,77,127
54005,note_off,0,0,0,,5,,,65,127
54005,note_off,0,0,0,,8,,,68,127
54006,note_on,1,0,0,,7,,,67,127
54006,note_on,0,0,0,,7,,,79,127
54006,note_on,0,0,0,,5,,,65,127
54312,note_off,306,0,0,,7,,,79,127
54313,note_on,1,0,0,,5,,,77,127
54465,note_off,152,0,0,,5,,,65,127
54465,note_off,0,0,0,,0,,,60,127
54466,note_on,1,0,0,,12,,,59,127
54926,note_off,460,0,0,,12,,,59,127
54926,note_off,0,0,0,,7,,,67,127
54927,note_on,1,0,0,,0,,,60,127
55129,note_off,202,0,0,,5,,,77,127
55235,note_on,106,0,0,,3,,,75,127
55387,note_off,152,0,0,,3,,,75,127
55387,note_off,0,0,0,,0,,,60,127
55388,note_on,1,0,0,,2,,,74,127
55388,note_on,0,0,0,,5,,,53,127
55388,note_on,0,0,0,,5,,,65,127
55540,note_off,152,0,0,,2,,,74,127
55541,note_on,1,0,0,,5,,,77,127
55693,note_off,152,0,0,,5,,,77,127
55694,note_on,1,0,0,,0,,,72,127
55846,note_off,152,0,0,,0,,,72,127
55846,note_off,0,0,0,,5,,,65,127
55846,note_off,0,0,0,,5,,,53,127
55847,note_on,1,0,0,,12,,,71,127
55847,note_on,0,0,0,,7,,,55,127
55847,note_on,0,0,0,,5,,,65,127
56307,note_off,460,0,0,,5,,,65,127
56307,note_off,0,0,0,,7,,,55,127
56307,note_off,0,0,0,,12,,,71,127
56308,note_on,1,0,0,,2,,,74,127
56308,note_on,0,0,0,,5,,,65,127
56308,note_on,0,0,0,,8,,,56,127
56366,note_on,58,0,0,,0,,,72,127
56384,note_off,18,0,0,,2,,,74,127
56424,note_on,40,0,0,,2,,,74,127
56442,note_off,18,0,0,,0,,,72,127
56482,note_on,40,0,0,,0,,,72,127
56500,note_off,18,0,0,,2,,,74,127
56540,note_on,40,0,0,,2,,,74,127
56558,note_off,18,0,0,,0,,,72,127
56598,note_on,40,0,0,,0,,,72,127
56616,note_off,18,0,0,,2,,,74,127
56656,note_on,40,0,0,,12,,,71,127
56674,note_off,18,0,0,,0,,,72,127
56714,note_on,40,0,0,,0,,,72,127
56732,note_off,18,0,0,,12,,,71,127
56770,note_off,38,0,0,,8,,,56,127
56770,note_off,0,0,0,,5,,,65,127
56771,note_on,1,0,0,,2,,,74,127
56771,note_on,0,0,0,,5,,,65,127
56771,note_on,0,0,0,,7,,,55,127
56789,note_off,18,0,0,,0,,,72,127
56923,note_off,134,0,0,,2,,,74,127
56943,note_on,20,0,0,,7,,,67,127
57095,note_off,152,0,0,,7,,,67,127
57096,note_on,1,0,0,,7,,,67,127
57229,note_off,133,0,0,,7,,,55,127
57229,note_off,0,0,0,,5,,,65,127
57248,note_off,19,0,0,,7,,,67,127
57249,note_on,1,0,0,,12,,,59,127
57249,note_on,0,0,0,,5,,,65,127
57249,note_on,0,0,0,,7,,,67,127
57401,note_off,152,0,0,,7,,,67,127
57402,note_on,1,0,0,,7,,,67,127
57554,note_off,152,0,0,,7,,,67,127
57555,note_on,1,0,0,,7,,,67,127
57707,note_off,152,0,0,,7,,,67,127
57707,note_off,0,0,0,,5,,,65,127
57707,note_off,0,0,0,,12,,,59,127
57708,note_on,1,0,0,,5,,,65,127
57708,note_on,0,0,0,,0,,,60,127
57708,note_on,0,0,0,,7,,,67,127
57860,note_off,152,0,0,,7,,,67,127
57861,note_on,1,0,0,,7,,,67,127
58013,note_off,152,0,0,,7,,,67,127
58014,note_on,1,0,0,,7,,,67,127
58166,note_off,152,0,0,,7,,,67,127
58166,note_off,0,0,0,,0,,,60,127
58167,note_on,1,0,0,,0,,,60,127
58167,note_on,0,0,0,,7,,,67,127
58225,note_on,58,0,0,,4,,,64,127
58235,note_off,10,0,0,,5,,,65,127
58283,note_on,48,0,0,,5,,,65,127
58301,note_off,18,0,0,,4,,,64,127
58320,note_off,19,0,0,,7,,,67,127
58321,note_on,1,0,0,,7,,,67,127
58340,note_on,19,0,0,,4,,,64,127
58358,note_off,18,0,0,,5,,,65,127
58473,note_off,115,0,0,,7,,,67,127
58493,note_on,20,0,0,,7,,,67,127
58645,note_off,152,0,0,,7,,,67,127
58646,note_on,1,0,0,,7,,,67,127
58798,note_off,152,0,0,,7,,,67,127
58799,note_on,1,0,0,,7,,,67,127
58913,note_off,114,0,0,,4,,,64,127
58951,note_off,38,0,0,,7,,,67,127
58952,note_on,1,0,0,,7,,,67,127
59085,note_off,133,0,0,,0,,,60,127
59104,note_off,19,0,0,,7,,,67,127
59105,note_on,1,0,0,,7,,,67,127
59105,note_on,0,0,0,,12,,,59,127
59105,note_on,0,0,0,,5,,,65,127
59257,note_off,152,0,0,,7,,,67,127
59258,note_on,1,0,0,,7,,,67,127
59410,note_off,152,0,0,,7,,,67,127
59411,note_on,1,0,0,,7,,,67,127
59563,note_off,152,0,0,,7,,,67,127
59563,note_off,0,0,0,,5,,,65,127
59563,note_off,0,0,0,,12,,,59,127
59564,note_on,1,0,0,,7,,,67,127
59564,note_on,0,0,0,,5,,,65,127
59564,note_on,0,0,0,,0,,,60,127
59716,note_off,152,0,0,,7,,,67,127
59717,note_on,1,0,0,,7,,,67,127
59869,note_off,152,0,0,,7,,,67,127
59870,note_on,1,0,0,,7,,,67,127
60022,note_off,152,0,0,,7,,,67,127
60022,note_off,0,0,0,,0,,,60,127
60023,note_on,1,0,0,,7,,,67,127
60023,note_on,0,0,0,,0,,,60,127
60081,note_on,58,0,0,,4,,,64,127
60091,note_off,10,0,0,,5,,,65,127
60139,note_on,48,0,0,,5,,,65,127
60157,note_off,18,0,0,,4,,,64,127
60176,note_off,19,0,0,,7,,,67,127
60177,note_on,1,0,0,,7,,,67,127
60196,note_on,19,0,0,,4,,,64,127
60214,note_off,18,0,0,,5,,,65,127
60329,note_off,115,0,0,,7,,,67,127
60330,note_on,1,0,0,,8,,,68,127
60482,note_off,152,0,0,,8,,,68,127
60482,note_off,0,0,0,,4,,,64,127
60482,note_off,0,0,0,,0,,,60,127
60502,note_on,20,0,0,,5,,,65,127
60502,note_on,0,0,0,,5,,,53,127
60502,note_on,0,0,0,,10,,,69,127
60502,note_on,0,0,0,,12,,,71,127
60578,note_off,76,0,0,,12,,,71,127
60578,note_off,0,0,0,,10,,,69,127
60579,note_on,1,0,0,,7,,,67,127
60655,note_off,76,0,0,,7,,,67,127
60656,note_on,1,0,0,,10,,,69,127
60732,note_off,76,0,0,,10,,,69,127
60733,note_on,1,0,0,,12,,,71,127
60809,note_off,76,0,0,,12,,,71,127
60810,note_on,1,0,0,,0,,,72,127
60962,note_off,152,0,0,,0,,,72,127
60963,note_on,1,0,0,,2,,,74,127
60963,note_on,0,0,0,,4,,,76,127
61039,note_off,76,0,0,,4,,,76,127
61039,note_off,0,0,0,,2,,,74,127
61040,note_on,1,0,0,,0,,,72,127
61116,note_off,76,0,0,,0,,,72,127
61117,note_on,1,0,0,,2,,,74,127
61193,note_off,76,0,0,,2,,,74,127
61194,note_on,1,0,0,,4,,,76,127
61270,note_off,76,0,0,,4,,,76,127
61271,note_on,1,0,0,,5,,,77,127
61423,note_off,152,0,0,,5,,,53,127
61423,note_off,0,0,0,,5,,,65,127
61434,note_on,11,0,0,,5,,,65,127
61434,note_on,0,0,0,,10,,,81,127
61436,note_off,2,0,0,,5,,,77,127
61509,note_off,73,0,0,,5,,,65,127
61510,note_on,1,0,0,,4,,,64,127
61586,note_off,76,0,0,,4,,,64,127
61587,note_on,1,0,0,,5,,,65,127
61663,note_off,76,0,0,,5,,,65,127
61664,note_on,1,0,0,,7,,,67,127
61740,note_off,76,0,0,,7,,,67,127
61741,note_on,1,0,0,,10,,,69,127
61893,note_off,152,0,0,,10,,,69,127
61894,note_on,1,0,0,,10,,,69,127
61970,note_off,76,0,0,,10,,,69,127
61971,note_on,1,0,0,,7,,,67,127
62047,note_off,76,0,0,,7,,,67,127
62048,note_on,1,0,0,,10,,,69,127
62124,note_off,76,0,0,,10,,,69,127
62125,note_on,1,0,0,,12,,,71,127
62201,note_off,76,0,0,,12,,,71,127
62202,note_on,1,0,0,,0,,,72,127
62354,note_off,152,0,0,,0,,,72,127
62374,note_on,20,0,0,,12,,,47,127
62507,note_off,133,0,0,,10,,,81,127
62527,note_on,20,0,0,,7,,,79,127
62679,note_off,152,0,0,,7,,,79,127
62680,note_on,1,0,0,,2,,,74,127
62832,note_off,152,0,0,,12,,,47,127
62833,note_on,1,0,0,,0,,,48,127
62985,note_off,152,0,0,,2,,,74,127
62986,note_on,1,0,0,,4,,,76,127
63138,note_off,152,0,0,,4,,,76,127
63139,note_on,1,0,0,,7,,,67,127
63291,note_off,152,0,0,,0,,,48,127
63292,note_on,1,0,0,,5,,,41,127
63292,note_on,0,0,0,,5,,,53,127
63444,note_off,152,0,0,,7,,,67,127
63445,note_on,1,0,0,,10,,,69,127
63597,note_off,152,0,0,,10,,,69,127
63598,note_on,1,0,0,,2,,,74,127
63750,note_off,152,0,0,,2,,,74,127
63750,note_off,0,0,0,,5,,,53,127
63750,note_off,0,0,0,,5,,,41,127
63751,note_on,1,0,0,,0,,,72,127
63751,note_on,0,0,0,,7,,,43,127
63751,note_on,0,0,0,,7,,,55,127
63789,note_on,38,0,0,,12,,,71,127
63826,note_off,37,0,0,,0,,,72,127
63827,note_on,1,0,0,,0,,,72,127
63864,note_off,37,0,0,,12,,,71,127
63865,note_on,1,0,0,,12,,,71,127
63902,note_off,37,0,0,,0,,,72,127
64209,note_off,307,0,0,,12,,,71,127
64209,note_off,0,0,0,,7,,,55,127
64209,note_off,0,0,0,,7,,,43,127
64229,note_on,20,0,0,,0,,,48,127
64229,note_on,0,0,0,,0,,,36,127
64229,note_on,0,0,0,,0,,,72,127
64229,note_on,0,0,0,,2,,,74,127
64305,note_off,76,0,0,,2,,,74,127
64305,note_off,0,0,0,,0,,,72,127
64306,note_on,1,0,0,,12,,,71,127
64382,note_off,76,0,0,,12,,,71,127
64383,note_on,1,0,0,,0,,,72,127
64459,note_off,76,0,0,,0,,,72,127
64460,note_on,1,0,0,,2,,,74,127
64536,note_off,76,0,0,,2,,,74,127
64537,note_on,1,0,0,,4,,,76,127
64689,note_off,152,0,0,,4,,,76,127
64690,note_on,1,0,0,,4,,,76,127
64690,note_on,0,0,0,,5,,,77,127
64766,note_off,76,0,0,,5,,,77,127
64766,note_off,0,0,0,,4,,,76,127
64767,note_on,1,0,0,,2,,,74,127
64843,note_off,76,0,0,,2,,,74,127
64844,note_on,1,0,0,,4,,,76,127
64920,note_off,76,0,0,,4,,,76,127
64921,note_on,1,0,0,,5,,,77,127
64997,note_off,76,0,0,,5,,,77,127
64998,note_on,1,0,0,,7,,,79,127
65150,note_off,152,0,0,,7,,,79,127
65150,note_off,0,0,0,,0,,,36,127
65150,note_off,0,0,0,,0,,,48,127
65151,note_on,1,0,0,,0,,,60,127
65151,note_on,0,0,0,,0,,,72,127
65151,note_on,0,0,0,,0,,,84,127
65227,note_off,76,0,0,,0,,,60,127
65228,note_on,1,0,0,,12,,,59,127
65304,note_off,76,0,0,,12,,,59,127
65305,note_on,1,0,0,,0,,,60,127
65381,note_off,76,0,0,,0,,,60,127
65382,note_on,1,0,0,,2,,,62,127
65458,note_off,76,0,0,,2,,,62,127
65459,note_on,1,0,0,,4,,,64,127
65611,note_off,152,0,0,,4,,,64,127
65612,note_on,1,0,0,,4,,,64,127
65688,note_off,76,0,0,,4,,,64,127
65689,note_on,1,0,0,,2,,,62,127
65765,note_off,76,0,0,,2,,,62,127
65766,note_on,1,0,0,,4,,,64,127
65842,note_off,76,0,0,,4,,,64,127
65843,note_on,1,0,0,,5,,,65,127
65919,note_off,76,0,0,,5,,,65,127
65920,note_on,1,0,0,,7,,,67,127
66072,note_off,152,0,0,,7,,,67,127
66092,note_on,20,0,0,,5,,,53,127
66092,note_on,0,0,0,,5,,,41,127
66225,note_off,133,0,0,,0,,,84,127
66225,note_off,0,0,0,,0,,,72,127
66245,note_on,20,0,0,,10,,,81,127
66397,note_off,152,0,0,,10,,,81,127
66398,note_on,1,0,0,,5,,,77,127
66550,note_off,152,0,0,,5,,,41,127
66550,note_off,0,0,0,,5,,,53,127
66551,note_on,1,0,0,,5,,,41,127
66551,note_on,0,0,0,,5,,,53,127
66703,note_off,152,0,0,,5,,,77,127
66704,note_on,1,0,0,,2,,,74,127
66856,note_off,152,0,0,,2,,,74,127
66857,note_on,1,0,0,,0,,,72,127
67009,note_off,152,0,0,,0,,,72,127
67009,note_off,0,0,0,,5,,,53,127
67009,note_off,0,0,0,,5,,,41,127
67010,note_on,1,0,0,,0,,,72,127
67010,note_on,0,0,0,,7,,,43,127
67010,note_on,0,0,0,,7,,,55,127
67470,note_off,460,0,0,,7,,,55,127
67470,note_off,0,0,0,,7,,,43,127
67470,note_off,0,0,0,,0,,,72,127
67471,note_on,1,0,0,,12,,,71,127
67471,note_on,0,0,0,,4,,,76,127
67471,note_on,0,0,0,,7,,,43,127
67471,note_on,0,0,0,,7,,,55,127
67529,note_on,58,0,0,,2,,,74,127
67547,note_off,18,0,0,,4,,,76,127
67587,note_on,40,0,0,,4,,,76,127
67605,note_off,18,0,0,,2,,,74,127
67645,note_on,40,0,0,,2,,,74,127
67663,note_off,18,0,0,,4,,,76,127
67703,note_on,40,0,0,,4,,,76,127
67721,note_off,18,0,0,,2,,,74,127
67761,note_on,40,0,0,,2,,,74,127
67779,note_off,18,0,0,,4,,,76,127
67819,note_on,40,0,0,,0,,,72,127
67837,note_off,18,0,0,,2,,,74,127
67877,note_on,40,0,0,,2,,,74,127
67895,note_off,18,0,0,,0,,,72,127
67933,note_off,38,0,0,,2,,,74,127
67933,note_off,0,0,0,,7,,,55,127
67933,note_off,0,0,0,,7,,,43,127
67933,note_off,0,0,0,,12,,,71,127
67953,note_on,20,0,0,,0,,,48,127
67953,note_on,0,0,0,,0,,,36,127
67953,note_on,0,0,0,,0,,,72,127
67953,note_on,0,0,0,,2,,,74,127
68029,note_off,76,0,0,,2,,,74,127
68029,note_off,0,0,0,,0,,,72,127
68030,note_on,1,0,0,,12,,,71,127
68106,note_off,76,0,0,,12,,,71,127
68107,note_on,1,0,0,,0,,,72,127
68183,note_off,76,0,0,,0,,,72,127
68184,note_on,1,0,0,,2,,,74,127
68260,note_off,76,0,0,,2,,,74,127
68261,note_on,1,0,0,,4,,,76,127
68413,note_off,152,0,0,,4,,,76,127
68414,note_on,1,0,0,,4,,,76,127
68414,note_on,0,0,0,,5,,,77,127
68490,note_off,76,0,0,,5,,,77,127
68490,note_off,0,0,0,,4,,,76,127
68491,note_on,1,0,0,,2,,,74,127
68567,note_off,76,0,0,,2,,,74,127
68568,note_on,1,0,0,,4,,,76,127
68644,note_off,76,0,0,,4,,,76,127
68645,note_on,1,0,0,,5,,,77,127
68721,note_off,76,0,0,,5,,,77,127
68722,note_on,1,0,0,,7,,,79,127
68874,note_off,152,0,0,,7,,,79,127
68874,note_off,0,0,0,,0,,,36,127
68874,note_off,0,0,0,,0,,,48,127
68875,note_on,1,0,0,,0,,,60,127
68875,note_on,0,0,0,,0,,,72,127
68875,note_on,0,0,0,,0,,,84,127
68951,note_off,76,0,0,,0,,,60,127
68952,note_on,1,0,0,,12,,,59,127
69028,note_off,76,0,0,,12,,,59,127
69029,note_on,1,0,0,,0,,,60,127
69105,note_off,76,0,0,,0,,,60,127
69106,note_on,1,0,0,,2,,,62,127
69182,note_off,76,0,0,,2,,,62,127
69183,note_on,1,0,0,,4,,,64,127
69335,note_off,152,0,0,,4,,,64,127
69336,note_on,1,0,0,,4,,,64,127
69412,note_off,76,0,0,,4,,,64,127
69413,note_on,1,0,0,,2,,,62,127
69489,note_off,76,0,0,,2,,,62,127
69490,note_on,1,0,0,,4,,,64,127
69566,note_off,76,0,0,,4,,,64,127
69567,note_on,1,0,0,,5,,,65,127
69643,note_off,76,0,0,,5,,,65,127
69644,note_on,1,0,0,,7,,,67,127
69796,note_off,152,0,0,,7,,,67,127
69816,note_on,20,0,0,,5,,,53,127
69816,note_on,0,0,0,,5,,,41,127
69949,note_off,133,0,0,,0,,,84,127
69949,note_off,0,0,0,,0,,,72,127
69969,note_on,20,0,0,,2,,,74,127
70121,note_off,152,0,0,,2,,,74,127
70122,note_on,1,0,0,,10,,,81,127
70274,note_off,152,0,0,,5,,,41,127
70274,note_off,0,0,0,,5,,,53,127
70275,note_on,1,0,0,,5,,,41,127
70275,note_on,0,0,0,,5,,,53,127
70427,note_off,152,0,0,,10,,,81,127
70428,note_on,1,0,0,,0,,,84,127
70580,note_off,152,0,0,,0,,,84,127
70581,note_on,1,0,0,,0,,,72,127
70733,note_off,152,0,0,,0,,,72,127
70733,note_off,0,0,0,,5,,,53,127
70733,note_off,0,0,0,,5,,,41,127
70734,note_on,1,0,0,,0,,,72,127
70734,note_on,0,0,0,,7,,,43,127
70734,note_on,0,0,0,,7,,,55,127
71194,note_off,460,0,0,,7,,,55,127
71194,note_off,0,0,0,,7,,,43,127
71194,note_off,0,0,0,,0,,,72,127
71195,note_on,1,0,0,,12,,,71,127
71195,note_on,0,0,0,,4,,,76,127
71195,note_on,0,0,0,,7,,,43,127
71195,note_on,0,0,0,,7,,,55,127
71253,note_on,58,0,0,,2,,,74,127
71271,note_off,18,0,0,,4,,,76,127
71311,note_on,40,0,0,,4,,,76,127
71329,note_off,18,0,0,,2,,,74,127
71369,note_on,40,0,0,,2,,,74,127
71387,note_off,18,0,0,,4,,,76,127
71427,note_on,40,0,0,,4,,,76,127
71445,note_off,18,0,0,,2,,,74,127
71485,note_on,40,0,0,,2,,,74,127
71503,note_off,18,0,0,,4,,,76,127
71543,note_on,40,0,0,,0,,,72,127
71561,note_off,18,0,0,,2,,,74,127
71601,note_on,40,0,0,,2,,,74,127
71619,note_off,18,0,0,,0,,,72,127
71657,note_off,38,0,0,,7,,,55,127
71657,note_off,0,0,0,,7,,,43,127
71657,note_off,0,0,0,,12,,,71,127
71658,note_on,1,0,0,,0,,,72,127
71658,note_on,0,0,0,,0,,,36,127
71658,note_on,0,0,0,,0,,,48,127
71676,note_off,18,0,0,,2,,,74,127
71810,note_off,134,0,0,,0,,,72,127
71830,note_on,20,0,0,,7,,,79,127
71982,note_off,152,0,0,,7,,,79,127
71983,note_on,1,0,0,,5,,,77,127
72116,note_off,133,0,0,,0,,,48,127
72116,note_off,0,0,0,,0,,,36,127
72135,note_off,19,0,0,,5,,,77,127
72136,note_on,1,0,0,,5,,,41,127
72136,note_on,0,0,0,,10,,,69,127
72288,note_off,152,0,0,,10,,,69,127
72289,note_on,1,0,0,,2,,,74,127
72441,note_off,152,0,0,,2,,,74,127
72442,note_on,1,0,0,,0,,,72,127
72594,note_off,152,0,0,,0,,,72,127
72594,note_off,0,0,0,,5,,,41,127
72595,note_on,1,0,0,,7,,,43,127
72595,note_on,0,0,0,,0,,,60,127
72595,note_on,0,0,0,,4,,,64,127
73055,note_off,460,0,0,,0,,,60,127
73055,note_off,0,0,0,,7,,,43,127
73056,note_on,1,0,0,,7,,,43,127
73056,note_on,0,0,0,,12,,,59,127
73114,note_on,58,0,0,,2,,,62,127
73124,note_off,10,0,0,,4,,,64,127
73172,note_on,48,0,0,,4,,,64,127
73190,note_off,18,0,0,,2,,,62,127
73230,note_on,40,0,0,,2,,,62,127
73248,note_off,18,0,0,,4,,,64,127
73288,note_on,40,0,0,,4,,,64,127
73306,note_off,18,0,0,,2,,,62,127
73346,note_on,40,0,0,,2,,,62,127
73364,note_off,18,0,0,,4,,,64,127
73404,note_on,40,0,0,,0,,,60,127
73422,note_off,18,0,0,,2,,,62,127
73462,note_on,40,0,0,,2,,,62,127
73480,note_off,18,0,0,,0,,,60,127
73518,note_off,38,0,0,,12,,,59,127
73518,note_off,0,0,0,,7,,,43,127
73519,note_off,1,0,0,,2,,,62,127
73538,note_on,19,0,0,,0,,,60,127
73538,note_on,0,0,0,,0,,,36,127
75379,note_off,1841,0,0,,0,,,36,127
75379,note_off,0,0,0,,0,,,60,127
76800,end_of_track,1421,1,0,,,,,,
