tick,type,time,meta,track,program,channel,pitch,tempo,note,velocity
0,copyright,0,1,0,,,,,,
0,program_change,0,0,0,6,0,,,,
0,pitchwheel,0,0,0,,0,0,,,
0,program_change,0,0,0,6,1,,,,
0,pitchwheel,0,0,0,,1,-590,,,
0,program_change,0,0,0,6,2,,,,
0,pitchwheel,0,0,0,,2,-272,,,
0,program_change,0,0,0,6,3,,,,
0,pitchwheel,0,0,0,,3,-353,,,
0,program_change,0,0,0,6,4,,,,
0,pitchwheel,0,0,0,,4,-560,,,
0,program_change,0,0,0,6,5,,,,
0,pitchwheel,0,0,0,,5,-80,,,
0,program_change,0,0,0,6,6,,,,
0,pitchwheel,0,0,0,,6,-625,,,
0,program_change,0,0,0,6,7,,,,
0,pitchwheel,0,0,0,,7,-130,,,
0,program_change,0,0,0,6,8,,,,
0,pitchwheel,0,0,0,,8,-512,,,
0,program_change,0,0,0,6,10,,,,
0,pitchwheel,0,0,0,,10,-464,,,
0,program_change,0,0,0,6,11,,,,
0,pitchwheel,0,0,0,,11,-208,,,
0,program_change,0,0,0,6,12,,,,
0,pitchwheel,0,0,0,,12,-553,,,
0,set_tempo,0,1,0,,,,500000,,
38,note_on,38,0,0,,0,,,36,127
266,note_off,228,0,0,,0,,,36,127
268,note_on,2,0,0,,0,,,60,127
268,note_on,0,0,0,,4,,,76,127
496,note_off,228,0,0,,4,,,76,127
496,note_off,0,0,0,,0,,,60,127
498,note_on,2,0,0,,5,,,65,127
498,note_on,0,0,0,,10,,,81,127
726,note_off,228,0,0,,10,,,81,127
726,note_off,0,0,0,,5,,,65,127
728,note_on,2,0,0,,4,,,64,127
728,note_on,0,0,0,,7,,,79,127
956,note_off,228,0,0,,7,,,79,127
956,note_off,0,0,0,,4,,,64,127
958,note_on,2,0,0,,2,,,62,127
958,note_on,0,0,0,,5,,,77,127
1186,note_off,228,0,0,,5,,,77,127
1186,note_off,0,0,0,,2,,,62,127
1188,note_on,2,0,0,,0,,,60,127
1188,note_on,0,0,0,,4,,,76,127
1416,note_off,228,0,0,,4,,,76,127
1416,note_off,0,0,0,,0,,,60,127
1418,note_on,2,0,0,,0,,,36,127
1646,note_off,228,0,0,,0,,,36,127
1648,note_on,2,0,0,,0,,,60,127
1648,note_on,0,0,0,,4,,,76,127
1876,note_off,228,0,0,,4,,,76,127
1876,note_off,0,0,0,,0,,,60,127
1878,note_on,2,0,0,,5,,,65,127
1878,note_on,0,0,0,,10,,,81,127
2106,note_off,228,0,0,,10,,,81,127
2106,note_off,0,0,0,,5,,,65,127
2108,note_on,2,0,0,,4,,,64,127
2108,note_on,0,0,0,,7,,,79,127
2336,note_off,228,0,0,,7,,,79,127
2336,note_off,0,0,0,,4,,,64,127
2338,note_on,2,0,0,,2,,,62,127
2338,note_on,0,0,0,,5,,,77,127
2566,note_off,228,0,0,,5,,,77,127
2566,note_off,0,0,0,,2,,,62,127
2568,note_on,2,0,0,,0,,,60,127
2568,note_on,0,0,0,,4,,,76,127
2796,note_off,228,0,0,,4,,,76,127
2808,note_off,12,0,0,,0,,,60,127
2808,note_on,0,0,0,,5,,,53,127
2808,note_on,0,0,0,,10,,,81,127
3036,note_off,228,0,0,,10,,,81,127
3038,note_on,2,0,0,,5,,,77,127
3266,note_off,228,0,0,,5,,,77,127
3268,note_on,2,0,0,,5,,,65,127
3268,note_on,0,0,0,,2,,,74,127
3496,note_off,228,0,0,,2,,,74,127
3497,note_off,1,0,0,,5,,,53,127
3498,note_on,1,0,0,,7,,,55,127
3498,note_on,0,0,0,,0,,,72,127
3572,note_off,74,0,0,,0,,,72,127
3574,note_on,2,0,0,,12,,,71,127
3648,note_off,74,0,0,,12,,,71,127
3650,note_on,2,0,0,,0,,,72,127
3722,note_off,72,0,0,,5,,,65,127
3724,note_off,2,0,0,,0,,,72,127
3726,note_on,2,0,0,,2,,,62,127
3726,note_on,0,0,0,,12,,,71,127
3800,note_off,74,0,0,,12,,,71,127
3802,note_on,2,0,0,,0,,,72,127
3876,note_off,74,0,0,,0,,,72,127
3878,note_on,2,0,0,,12,,,71,127
3952,note_off,74,0,0,,12,,,71,127
3952,note_off,0,0,0,,2,,,62,127
3954,note_on,2,0,0,,4,,,64,127
3954,note_on,0,0,0,,0,,,72,127
4182,note_off,228,0,0,,0,,,72,127
4183,note_off,1,0,0,,7,,,55,127
4184,note_on,1,0,0,,7,,,55,127
4184,note_on,0,0,0,,7,,,67,127
4410,note_off,226,0,0,,4,,,64,127
4412,note_off,2,0,0,,7,,,67,127
4414,note_on,2,0,0,,2,,,62,127
4414,note_on,0,0,0,,7,,,67,127
4488,note_off,74,0,0,,7,,,67,127
4490,note_on,2,0,0,,5,,,65,127
4564,note_off,74,0,0,,5,,,65,127
4566,note_on,2,0,0,,7,,,67,127
4640,note_off,74,0,0,,7,,,67,127
4640,note_off,0,0,0,,2,,,62,127
4642,note_on,2,0,0,,12,,,59,127
4642,note_on,0,0,0,,5,,,65,127
4716,note_off,74,0,0,,5,,,65,127
4718,note_on,2,0,0,,7,,,67,127
4792,note_off,74,0,0,,7,,,67,127
4794,note_on,2,0,0,,5,,,65,127
4868,note_off,74,0,0,,5,,,65,127
4868,note_off,0,0,0,,12,,,59,127
4869,note_off,1,0,0,,7,,,55,127
4870,note_on,1,0,0,,0,,,60,127
4870,note_on,0,0,0,,4,,,64,127
5098,note_off,228,0,0,,0,,,60,127
5100,note_on,2,0,0,,0,,,48,127
5330,note_on,230,0,0,,0,,,36,127
5556,note_off,226,0,0,,0,,,48,127
5558,note_off,2,0,0,,0,,,36,127
5559,note_off,1,0,0,,4,,,64,127
5572,note_on,13,0,0,,0,,,48,127
5810,note_on,238,0,0,,4,,,76,127
6031,note_off,221,0,0,,0,,,48,127
6038,note_off,7,0,0,,4,,,76,127
6040,note_on,2,0,0,,10,,,81,127
6040,note_on,0,0,0,,5,,,65,127
6268,note_off,228,0,0,,5,,,65,127
6268,note_off,0,0,0,,10,,,81,127
6270,note_on,2,0,0,,7,,,79,127
6270,note_on,0,0,0,,4,,,64,127
6498,note_off,228,0,0,,4,,,64,127
6498,note_off,0,0,0,,7,,,79,127
6500,note_on,2,0,0,,5,,,77,127
6500,note_on,0,0,0,,2,,,62,127
6728,note_off,228,0,0,,2,,,62,127
6728,note_off,0,0,0,,5,,,77,127
6730,note_on,2,0,0,,4,,,76,127
6730,note_on,0,0,0,,0,,,60,127
6958,note_off,228,0,0,,0,,,60,127
6958,note_off,0,0,0,,4,,,76,127
6960,note_on,2,0,0,,0,,,36,127
7188,note_off,228,0,0,,0,,,36,127
7190,note_on,2,0,0,,4,,,76,127
7190,note_on,0,0,0,,0,,,60,127
7418,note_off,228,0,0,,0,,,60,127
7418,note_off,0,0,0,,4,,,76,127
7420,note_on,2,0,0,,10,,,81,127
7420,note_on,0,0,0,,5,,,65,127
7648,note_off,228,0,0,,5,,,65,127
7648,note_off,0,0,0,,10,,,81,127
7650,note_on,2,0,0,,7,,,79,127
7650,note_on,0,0,0,,4,,,64,127
7878,note_off,228,0,0,,4,,,64,127
7878,note_off,0,0,0,,7,,,79,127
7880,note_on,2,0,0,,5,,,77,127
7880,note_on,0,0,0,,2,,,62,127
8108,note_off,228,0,0,,2,,,62,127
8108,note_off,0,0,0,,5,,,77,127
8110,note_on,2,0,0,,4,,,76,127
8110,note_on,0,0,0,,0,,,60,127
8338,note_off,228,0,0,,4,,,76,127
8349,note_off,11,0,0,,0,,,60,127
8350,note_on,1,0,0,,10,,,81,127
8350,note_on,0,0,0,,5,,,53,127
8578,note_off,228,0,0,,10,,,81,127
8580,note_on,2,0,0,,5,,,77,127
8808,note_off,228,0,0,,5,,,77,127
8810,note_on,2,0,0,,2,,,74,127
8810,note_on,0,0,0,,5,,,65,127
9038,note_off,228,0,0,,2,,,74,127
9039,note_off,1,0,0,,5,,,53,127
9040,note_on,1,0,0,,0,,,72,127
9040,note_on,0,0,0,,7,,,55,127
9114,note_off,74,0,0,,0,,,72,127
9116,note_on,2,0,0,,12,,,71,127
9190,note_off,74,0,0,,12,,,71,127
9192,note_on,2,0,0,,0,,,72,127
9264,note_off,72,0,0,,5,,,65,127
9266,note_off,2,0,0,,0,,,72,127
9268,note_on,2,0,0,,12,,,71,127
9268,note_on,0,0,0,,2,,,62,127
9342,note_off,74,0,0,,12,,,71,127
9344,note_on,2,0,0,,0,,,72,127
9418,note_off,74,0,0,,0,,,72,127
9420,note_on,2,0,0,,12,,,71,127
9494,note_off,74,0,0,,12,,,71,127
9494,note_off,0,0,0,,2,,,62,127
9496,note_on,2,0,0,,0,,,72,127
9496,note_on,0,0,0,,4,,,64,127
9724,note_off,228,0,0,,0,,,72,127
9725,note_off,1,0,0,,7,,,55,127
9726,note_on,1,0,0,,7,,,67,127
9726,note_on,0,0,0,,7,,,55,127
9952,note_off,226,0,0,,4,,,64,127
9954,note_off,2,0,0,,7,,,67,127
9956,note_on,2,0,0,,7,,,67,127
9956,note_on,0,0,0,,2,,,62,127
10030,note_off,74,0,0,,7,,,67,127
10032,note_on,2,0,0,,5,,,65,127
10106,note_off,74,0,0,,5,,,65,127
10108,note_on,2,0,0,,7,,,67,127
10182,note_off,74,0,0,,7,,,67,127
10182,note_off,0,0,0,,2,,,62,127
10184,note_on,2,0,0,,5,,,65,127
10184,note_on,0,0,0,,12,,,59,127
10258,note_off,74,0,0,,5,,,65,127
10260,note_on,2,0,0,,7,,,67,127
10334,note_off,74,0,0,,7,,,67,127
10336,note_on,2,0,0,,5,,,65,127
10410,note_off,74,0,0,,5,,,65,127
10410,note_off,0,0,0,,12,,,59,127
10411,note_off,1,0,0,,7,,,55,127
10412,note_on,1,0,0,,4,,,64,127
10412,note_on,0,0,0,,0,,,48,127
10640,note_off,228,0,0,,0,,,48,127
10657,note_on,17,0,0,,0,,,60,127
10657,note_on,0,0,0,,0,,,72,127
10658,note_off,1,0,0,,4,,,64,127
10770,note_off,112,0,0,,0,,,72,127
10772,note_on,2,0,0,,2,,,74,127
10885,note_off,113,0,0,,2,,,74,127
10885,note_off,0,0,0,,0,,,60,127
10887,note_on,2,0,0,,2,,,62,127
10887,note_on,0,0,0,,2,,,74,127
11000,note_off,113,0,0,,2,,,74,127
11002,note_on,2,0,0,,4,,,76,127
11115,note_off,113,0,0,,4,,,76,127
11115,note_off,0,0,0,,2,,,62,127
11117,note_on,2,0,0,,0,,,60,127
11117,note_on,0,0,0,,4,,,76,127
11191,note_off,74,0,0,,4,,,76,127
11193,note_on,2,0,0,,5,,,77,127
11267,note_off,74,0,0,,5,,,77,127
11269,note_on,2,0,0,,7,,,79,127
11343,note_off,74,0,0,,7,,,79,127
11343,note_off,0,0,0,,0,,,60,127
11345,note_on,2,0,0,,7,,,43,127
11345,note_on,0,0,0,,7,,,79,127
11573,note_off,228,0,0,,7,,,79,127
11573,note_off,0,0,0,,7,,,43,127
11575,note_on,2,0,0,,7,,,43,127
11575,note_on,0,0,0,,7,,,79,127
11630,note_off,55,0,0,,7,,,79,127
11632,note_on,2,0,0,,5,,,77,127
11687,note_off,55,0,0,,5,,,77,127
11689,note_on,2,0,0,,4,,,76,127
11744,note_off,55,0,0,,4,,,76,127
11746,note_on,2,0,0,,5,,,77,127
11801,note_off,55,0,0,,5,,,77,127
11801,note_off,0,0,0,,7,,,43,127
11803,note_on,2,0,0,,0,,,36,127
11803,note_on,0,0,0,,4,,,76,127
12031,note_off,228,0,0,,4,,,76,127
12031,note_off,0,0,0,,0,,,36,127
12033,note_on,2,0,0,,4,,,64,127
12033,note_on,0,0,0,,0,,,72,127
12146,note_off,113,0,0,,0,,,72,127
12148,note_on,2,0,0,,2,,,74,127
12261,note_off,113,0,0,,2,,,74,127
12261,note_off,0,0,0,,4,,,64,127
12263,note_on,2,0,0,,2,,,62,127
12263,note_on,0,0,0,,2,,,74,127
12376,note_off,113,0,0,,2,,,74,127
12378,note_on,2,0,0,,4,,,76,127
12491,note_off,113,0,0,,4,,,76,127
12491,note_off,0,0,0,,2,,,62,127
12493,note_on,2,0,0,,0,,,60,127
12493,note_on,0,0,0,,4,,,76,127
12567,note_off,74,0,0,,4,,,76,127
12569,note_on,2,0,0,,5,,,77,127
12643,note_off,74,0,0,,5,,,77,127
12645,note_on,2,0,0,,7,,,79,127
12719,note_off,74,0,0,,7,,,79,127
12719,note_off,0,0,0,,0,,,60,127
12721,note_on,2,0,0,,7,,,43,127
12721,note_on,0,0,0,,7,,,79,127
12795,note_off,74,0,0,,7,,,79,127
12797,note_on,2,0,0,,5,,,77,127
12871,note_off,74,0,0,,5,,,77,127
12873,note_on,2,0,0,,7,,,79,127
12947,note_off,74,0,0,,7,,,79,127
12947,note_off,0,0,0,,7,,,43,127
12949,note_on,2,0,0,,7,,,43,127
12949,note_on,0,0,0,,5,,,77,127
13023,note_off,74,0,0,,5,,,77,127
13025,note_on,2,0,0,,7,,,79,127
13099,note_off,74,0,0,,7,,,79,127
13101,note_on,2,0,0,,5,,,77,127
13175,note_off,74,0,0,,5,,,77,127
13175,note_off,0,0,0,,7,,,43,127
13177,note_on,2,0,0,,0,,,36,127
13177,note_on,0,0,0,,4,,,76,127
13406,note_off,229,0,0,,0,,,36,127
13412,note_on,6,0,0,,12,,,59,127
13412,note_on,0,0,0,,7,,,67,127
13418,note_off,6,0,0,,4,,,76,127
13525,note_off,107,0,0,,7,,,67,127
13532,note_on,7,0,0,,10,,,69,127
13640,note_off,108,0,0,,12,,,59,127
13645,note_off,5,0,0,,10,,,69,127
13647,note_on,2,0,0,,10,,,57,127
13647,note_on,0,0,0,,10,,,69,127
13760,note_off,113,0,0,,10,,,69,127
13762,note_on,2,0,0,,12,,,71,127
13875,note_off,113,0,0,,12,,,71,127
13875,note_off,0,0,0,,10,,,57,127
13877,note_on,2,0,0,,7,,,55,127
13877,note_on,0,0,0,,12,,,71,127
13951,note_off,74,0,0,,12,,,71,127
13953,note_on,2,0,0,,0,,,72,127
14027,note_off,74,0,0,,0,,,72,127
14029,note_on,2,0,0,,2,,,74,127
14103,note_off,74,0,0,,2,,,74,127
14103,note_off,0,0,0,,7,,,55,127
14105,note_on,2,0,0,,2,,,38,127
14105,note_on,0,0,0,,2,,,74,127
14333,note_off,228,0,0,,2,,,74,127
14333,note_off,0,0,0,,2,,,38,127
14335,note_on,2,0,0,,2,,,38,127
14335,note_on,0,0,0,,2,,,74,127
14390,note_off,55,0,0,,2,,,74,127
14392,note_on,2,0,0,,0,,,72,127
14447,note_off,55,0,0,,0,,,72,127
14449,note_on,2,0,0,,12,,,71,127
14504,note_off,55,0,0,,12,,,71,127
14506,note_on,2,0,0,,0,,,72,127
14561,note_off,55,0,0,,0,,,72,127
14561,note_off,0,0,0,,2,,,38,127
14563,note_on,2,0,0,,7,,,43,127
14563,note_on,0,0,0,,12,,,71,127
14791,note_off,228,0,0,,12,,,71,127
14791,note_off,0,0,0,,7,,,43,127
14793,note_on,2,0,0,,12,,,59,127
14793,note_on,0,0,0,,7,,,67,127
14906,note_off,113,0,0,,7,,,67,127
14908,note_on,2,0,0,,10,,,69,127
15021,note_off,113,0,0,,10,,,69,127
15021,note_off,0,0,0,,12,,,59,127
15023,note_on,2,0,0,,10,,,57,127
15023,note_on,0,0,0,,10,,,69,127
15136,note_off,113,0,0,,10,,,69,127
15138,note_on,2,0,0,,12,,,71,127
15251,note_off,113,0,0,,12,,,71,127
15251,note_off,0,0,0,,10,,,57,127
15253,note_on,2,0,0,,7,,,55,127
15253,note_on,0,0,0,,12,,,71,127
15327,note_off,74,0,0,,12,,,71,127
15329,note_on,2,0,0,,0,,,72,127
15403,note_off,74,0,0,,0,,,72,127
15405,note_on,2,0,0,,2,,,74,127
15479,note_off,74,0,0,,2,,,74,127
15479,note_off,0,0,0,,7,,,55,127
15481,note_on,2,0,0,,2,,,38,127
15481,note_on,0,0,0,,2,,,74,127
15555,note_off,74,0,0,,2,,,74,127
15557,note_on,2,0,0,,0,,,72,127
15631,note_off,74,0,0,,0,,,72,127
15633,note_on,2,0,0,,2,,,74,127
15707,note_off,74,0,0,,2,,,74,127
15707,note_off,0,0,0,,2,,,38,127
15709,note_on,2,0,0,,2,,,38,127
15709,note_on,0,0,0,,0,,,72,127
15783,note_off,74,0,0,,0,,,72,127
15785,note_on,2,0,0,,12,,,71,127
15859,note_off,74,0,0,,12,,,71,127
15861,note_on,2,0,0,,0,,,72,127
15935,note_off,74,0,0,,0,,,72,127
15935,note_off,0,0,0,,2,,,38,127
15947,note_on,12,0,0,,7,,,43,127
15947,note_on,0,0,0,,12,,,71,127
16021,note_off,74,0,0,,12,,,71,127
16023,note_on,2,0,0,,7,,,79,127
16097,note_off,74,0,0,,7,,,79,127
16099,note_on,2,0,0,,4,,,76,127
16173,note_off,74,0,0,,4,,,76,127
16173,note_off,0,0,0,,7,,,43,127
16175,note_on,2,0,0,,7,,,55,127
16175,note_on,0,0,0,,2,,,62,127
16175,note_on,0,0,0,,2,,,74,127
16403,note_off,228,0,0,,2,,,74,127
16403,note_off,0,0,0,,2,,,62,127
16403,note_off,0,0,0,,7,,,55,127
16405,note_on,2,0,0,,7,,,55,127
16405,note_on,0,0,0,,2,,,62,127
16405,note_on,0,0,0,,2,,,74,127
16633,note_off,228,0,0,,2,,,74,127
16633,note_off,0,0,0,,2,,,62,127
16633,note_off,0,0,0,,7,,,55,127
16639,note_on,6,0,0,,2,,,74,127
16639,note_on,0,0,0,,0,,,60,127
16639,note_on,0,0,0,,2,,,62,127
16639,note_on,0,0,0,,6,,,54,127
16713,note_off,74,0,0,,2,,,74,127
16715,note_on,2,0,0,,10,,,81,127
16789,note_off,74,0,0,,10,,,81,127
16791,note_on,2,0,0,,4,,,76,127
16865,note_off,74,0,0,,4,,,76,127
16865,note_off,0,0,0,,6,,,54,127
16865,note_off,0,0,0,,2,,,62,127
16865,note_off,0,0,0,,0,,,60,127
16867,note_on,2,0,0,,2,,,74,127
16867,note_on,0,0,0,,0,,,60,127
16867,note_on,0,0,0,,2,,,62,127
16867,note_on,0,0,0,,6,,,54,127
17095,note_off,228,0,0,,6,,,54,127
17095,note_off,0,0,0,,2,,,62,127
17095,note_off,0,0,0,,0,,,60,127
17095,note_off,0,0,0,,2,,,74,127
17097,note_on,2,0,0,,2,,,74,127
17097,note_on,0,0,0,,0,,,60,127
17097,note_on,0,0,0,,2,,,62,127
17097,note_on,0,0,0,,6,,,54,127
17325,note_off,228,0,0,,6,,,54,127
17325,note_off,0,0,0,,2,,,62,127
17325,note_off,0,0,0,,0,,,60,127
17325,note_off,0,0,0,,2,,,74,127
17331,note_on,6,0,0,,7,,,55,127
17331,note_on,0,0,0,,2,,,62,127
17331,note_on,0,0,0,,2,,,74,127
17405,note_off,74,0,0,,2,,,74,127
17407,note_on,2,0,0,,12,,,83,127
17481,note_off,74,0,0,,12,,,83,127
17483,note_on,2,0,0,,4,,,76,127
17557,note_off,74,0,0,,4,,,76,127
17557,note_off,0,0,0,,2,,,62,127
17557,note_off,0,0,0,,7,,,55,127
17559,note_on,2,0,0,,2,,,62,127
17559,note_on,0,0,0,,7,,,55,127
17559,note_on,0,0,0,,2,,,74,127
17787,note_off,228,0,0,,2,,,74,127
17787,note_off,0,0,0,,7,,,55,127
17787,note_off,0,0,0,,2,,,62,127
17789,note_on,2,0,0,,7,,,55,127
17789,note_on,0,0,0,,2,,,62,127
17789,note_on,0,0,0,,2,,,74,127
18017,note_off,228,0,0,,2,,,74,127
18017,note_off,0,0,0,,2,,,62,127
18017,note_off,0,0,0,,7,,,55,127
18023,note_on,6,0,0,,2,,,74,127
18023,note_on,0,0,0,,2,,,62,127
18023,note_on,0,0,0,,0,,,60,127
18023,note_on,0,0,0,,6,,,54,127
18097,note_off,74,0,0,,2,,,74,127
18099,note_on,2,0,0,,0,,,84,127
18173,note_off,74,0,0,,0,,,84,127
18175,note_on,2,0,0,,4,,,76,127
18249,note_off,74,0,0,,4,,,76,127
18249,note_off,0,0,0,,6,,,54,127
18249,note_off,0,0,0,,0,,,60,127
18249,note_off,0,0,0,,2,,,62,127
18251,note_on,2,0,0,,2,,,74,127
18251,note_on,0,0,0,,2,,,62,127
18251,note_on,0,0,0,,0,,,60,127
18251,note_on,0,0,0,,6,,,54,127
18479,note_off,228,0,0,,6,,,54,127
18479,note_off,0,0,0,,0,,,60,127
18479,note_off,0,0,0,,2,,,62,127
18479,note_off,0,0,0,,2,,,74,127
18481,note_on,2,0,0,,2,,,74,127
18481,note_on,0,0,0,,0,,,60,127
18481,note_on,0,0,0,,2,,,62,127
18481,note_on,0,0,0,,6,,,54,127
18709,note_off,228,0,0,,6,,,54,127
18709,note_off,0,0,0,,2,,,62,127
18709,note_off,0,0,0,,0,,,60,127
18709,note_off,0,0,0,,2,,,74,127
18716,note_on,7,0,0,,12,,,59,127
18716,note_on,0,0,0,,2,,,62,127
18716,note_on,0,0,0,,2,,,74,127
18793,note_on,77,0,0,,2,,,86,127
18860,note_off,67,0,0,,2,,,74,127
18870,note_on,10,0,0,,4,,,76,127
18907,note_off,37,0,0,,2,,,86,127
18944,note_off,37,0,0,,4,,,76,127
18944,note_off,0,0,0,,2,,,62,127
18944,note_off,0,0,0,,12,,,59,127
18946,note_on,2,0,0,,12,,,59,127
18946,note_on,0,0,0,,2,,,62,127
18946,note_on,0,0,0,,2,,,74,127
19174,note_off,228,0,0,,2,,,74,127
19174,note_off,0,0,0,,2,,,62,127
19174,note_off,0,0,0,,12,,,59,127
19176,note_on,2,0,0,,12,,,59,127
19176,note_on,0,0,0,,2,,,62,127
19176,note_on,0,0,0,,2,,,74,127
19404,note_off,228,0,0,,2,,,74,127
19404,note_off,0,0,0,,12,,,59,127
19416,note_off,12,0,0,,2,,,62,127
19416,note_on,0,0,0,,0,,,60,127
19416,note_on,0,0,0,,4,,,76,127
19529,note_off,113,0,0,,4,,,76,127
19531,note_on,2,0,0,,2,,,86,127
19644,note_off,113,0,0,,2,,,86,127
19644,note_off,0,0,0,,0,,,60,127
19646,note_on,2,0,0,,0,,,48,127
19646,note_on,0,0,0,,0,,,84,127
19759,note_off,113,0,0,,0,,,84,127
19761,note_on,2,0,0,,12,,,83,127
19874,note_off,113,0,0,,12,,,83,127
19874,note_off,0,0,0,,0,,,48,127
19876,note_on,2,0,0,,0,,,48,127
19876,note_on,0,0,0,,10,,,81,127
19989,note_off,113,0,0,,10,,,81,127
19991,note_on,2,0,0,,7,,,79,127
20104,note_off,113,0,0,,7,,,79,127
20104,note_off,0,0,0,,0,,,48,127
20106,note_on,2,0,0,,2,,,50,127
20106,note_on,0,0,0,,7,,,79,127
20180,note_off,74,0,0,,7,,,79,127
20182,note_on,2,0,0,,6,,,78,127
20256,note_off,74,0,0,,6,,,78,127
20258,note_on,2,0,0,,7,,,79,127
20332,note_off,74,0,0,,7,,,79,127
20334,note_on,2,0,0,,2,,,38,127
20334,note_on,0,0,0,,6,,,78,127
20447,note_off,113,0,0,,6,,,78,127
20454,note_on,7,0,0,,4,,,76,127
20567,note_off,113,0,0,,4,,,76,127
20574,note_on,7,0,0,,2,,,74,127
20766,note_off,192,0,0,,2,,,38,127
20824,note_off,58,0,0,,2,,,50,127
21119,note_off,295,0,0,,2,,,74,127
21515,note_on,396,0,0,,2,,,50,127
21745,note_on,230,0,0,,2,,,62,127
21858,note_off,113,0,0,,2,,,62,127
21860,note_on,2,0,0,,4,,,64,127
21973,note_off,113,0,0,,4,,,64,127
21975,note_on,2,0,0,,4,,,64,127
21975,note_on,0,0,0,,0,,,60,127
22088,note_off,113,0,0,,4,,,64,127
22090,note_on,2,0,0,,6,,,66,127
22203,note_off,113,0,0,,6,,,66,127
22203,note_off,0,0,0,,0,,,60,127
22204,note_off,1,0,0,,2,,,50,127
22205,note_on,1,0,0,,6,,,66,127
22205,note_on,0,0,0,,0,,,60,127
22205,note_on,0,0,0,,2,,,50,127
22279,note_off,74,0,0,,6,,,66,127
22281,note_on,2,0,0,,7,,,67,127
22355,note_off,74,0,0,,7,,,67,127
22357,note_on,2,0,0,,10,,,69,127
22431,note_off,74,0,0,,10,,,69,127
22431,note_off,0,0,0,,2,,,50,127
22431,note_off,0,0,0,,0,,,60,127
22433,note_on,2,0,0,,10,,,69,127
22433,note_on,0,0,0,,10,,,57,127
22433,note_on,0,0,0,,2,,,50,127
22661,note_off,228,0,0,,2,,,50,127
22661,note_off,0,0,0,,10,,,57,127
22661,note_off,0,0,0,,10,,,69,127
22663,note_on,2,0,0,,7,,,67,127
22663,note_on,0,0,0,,2,,,50,127
22663,note_on,0,0,0,,12,,,59,127
22891,note_off,228,0,0,,12,,,59,127
22891,note_off,0,0,0,,2,,,50,127
22891,note_off,0,0,0,,7,,,67,127
22893,note_on,2,0,0,,2,,,50,127
22893,note_on,0,0,0,,0,,,60,127
23121,note_off,228,0,0,,0,,,60,127
23121,note_off,0,0,0,,2,,,50,127
23123,note_on,2,0,0,,6,,,66,127
23123,note_on,0,0,0,,0,,,60,127
23123,note_on,0,0,0,,2,,,50,127
23236,note_off,113,0,0,,6,,,66,127
23238,note_on,2,0,0,,7,,,67,127
23351,note_off,113,0,0,,7,,,67,127
23351,note_off,0,0,0,,2,,,50,127
23351,note_off,0,0,0,,0,,,60,127
23353,note_on,2,0,0,,7,,,67,127
23353,note_on,0,0,0,,12,,,59,127
23353,note_on,0,0,0,,2,,,50,127
23466,note_off,113,0,0,,7,,,67,127
23468,note_on,2,0,0,,10,,,69,127
23581,note_off,113,0,0,,10,,,69,127
23581,note_off,0,0,0,,2,,,50,127
23581,note_off,0,0,0,,12,,,59,127
23583,note_on,2,0,0,,10,,,69,127
23583,note_on,0,0,0,,2,,,50,127
23583,note_on,0,0,0,,10,,,57,127
23657,note_off,74,0,0,,10,,,69,127
23659,note_on,2,0,0,,12,,,71,127
23733,note_off,74,0,0,,12,,,71,127
23735,note_on,2,0,0,,0,,,72,127
23809,note_off,74,0,0,,0,,,72,127
23809,note_off,0,0,0,,10,,,57,127
23809,note_off,0,0,0,,2,,,50,127
23811,note_on,2,0,0,,0,,,72,127
23811,note_on,0,0,0,,2,,,50,127
23811,note_on,0,0,0,,6,,,54,127
24039,note_off,228,0,0,,6,,,54,127
24039,note_off,0,0,0,,2,,,50,127
24039,note_off,0,0,0,,0,,,72,127
24041,note_on,2,0,0,,12,,,71,127
24041,note_on,0,0,0,,2,,,50,127
24041,note_on,0,0,0,,7,,,55,127
24269,note_off,228,0,0,,7,,,55,127
24269,note_off,0,0,0,,12,,,71,127
24287,note_off,18,0,0,,2,,,50,127
24291,note_on,4,0,0,,0,,,48,127
24521,note_on,230,0,0,,10,,,57,127
24521,note_on,0,0,0,,6,,,78,127
24634,note_off,113,0,0,,6,,,78,127
24636,note_on,2,0,0,,7,,,79,127
24746,note_off,110,0,0,,0,,,48,127
24748,note_off,2,0,0,,7,,,79,127
24748,note_off,0,0,0,,10,,,57,127
24750,note_on,2,0,0,,12,,,47,127
24750,note_on,0,0,0,,7,,,55,127
24750,note_on,0,0,0,,7,,,79,127
24863,note_off,113,0,0,,7,,,79,127
24865,note_on,2,0,0,,10,,,81,127
24978,note_off,113,0,0,,10,,,81,127
24978,note_off,0,0,0,,12,,,47,127
24980,note_on,2,0,0,,10,,,45,127
24980,note_on,0,0,0,,10,,,81,127
25054,note_off,74,0,0,,10,,,81,127
25056,note_on,2,0,0,,12,,,83,127
25130,note_off,74,0,0,,12,,,83,127
25132,note_on,2,0,0,,0,,,84,127
25204,note_off,72,0,0,,7,,,55,127
25206,note_off,2,0,0,,0,,,84,127
25206,note_off,0,0,0,,10,,,45,127
25208,note_on,2,0,0,,10,,,45,127
25208,note_on,0,0,0,,6,,,54,127
25208,note_on,0,0,0,,0,,,84,127
25436,note_off,228,0,0,,0,,,84,127
25436,note_off,0,0,0,,6,,,54,127
25436,note_off,0,0,0,,10,,,45,127
25438,note_on,2,0,0,,7,,,43,127
25438,note_on,0,0,0,,7,,,55,127
25438,note_on,0,0,0,,12,,,83,127
25666,note_off,228,0,0,,12,,,83,127
25666,note_off,0,0,0,,7,,,55,127
25666,note_off,0,0,0,,7,,,43,127
25668,note_on,2,0,0,,0,,,48,127
25668,note_on,0,0,0,,0,,,84,127
25742,note_off,74,0,0,,0,,,84,127
25744,note_on,2,0,0,,12,,,83,127
25818,note_off,74,0,0,,12,,,83,127
25820,note_on,2,0,0,,10,,,81,127
25894,note_off,74,0,0,,10,,,81,127
25894,note_off,0,0,0,,0,,,48,127
25896,note_on,2,0,0,,2,,,50,127
25896,note_on,0,0,0,,7,,,79,127
26124,note_off,228,0,0,,7,,,79,127
26126,note_on,2,0,0,,2,,,38,127
26126,note_on,0,0,0,,7,,,79,127
26181,note_off,55,0,0,,7,,,79,127
26183,note_on,2,0,0,,6,,,78,127
26238,note_off,55,0,0,,6,,,78,127
26240,note_on,2,0,0,,4,,,76,127
26295,note_off,55,0,0,,4,,,76,127
26297,note_on,2,0,0,,6,,,78,127
26350,note_off,53,0,0,,2,,,50,127
26352,note_off,2,0,0,,6,,,78,127
26352,note_off,0,0,0,,2,,,38,127
26354,note_on,2,0,0,,7,,,43,127
26354,note_on,0,0,0,,7,,,79,127
26467,note_off,113,0,0,,7,,,43,127
26469,note_on,2,0,0,,12,,,47,127
26582,note_off,113,0,0,,12,,,47,127
26584,note_on,2,0,0,,2,,,50,127
26697,note_off,113,0,0,,2,,,50,127
26699,note_on,2,0,0,,7,,,55,127
26812,note_off,113,0,0,,7,,,55,127
26814,note_on,2,0,0,,12,,,59,127
26927,note_off,113,0,0,,12,,,59,127
26929,note_on,2,0,0,,2,,,62,127
27043,note_off,114,0,0,,7,,,79,127
27053,note_on,10,0,0,,2,,,50,127
27063,note_off,10,0,0,,2,,,62,127
27295,note_on,232,0,0,,2,,,62,127
27408,note_off,113,0,0,,2,,,62,127
27410,note_on,2,0,0,,4,,,64,127
27523,note_off,113,0,0,,4,,,64,127
27525,note_on,2,0,0,,4,,,64,127
27525,note_on,0,0,0,,0,,,60,127
27638,note_off,113,0,0,,4,,,64,127
27640,note_on,2,0,0,,6,,,66,127
27743,note_off,103,0,0,,2,,,50,127
27753,note_off,10,0,0,,6,,,66,127
27753,note_off,0,0,0,,0,,,60,127
27755,note_on,2,0,0,,6,,,66,127
27755,note_on,0,0,0,,0,,,60,127
27755,note_on,0,0,0,,2,,,50,127
27829,note_off,74,0,0,,6,,,66,127
27831,note_on,2,0,0,,7,,,67,127
27905,note_off,74,0,0,,7,,,67,127
27907,note_on,2,0,0,,10,,,69,127
27981,note_off,74,0,0,,10,,,69,127
27981,note_off,0,0,0,,2,,,50,127
27981,note_off,0,0,0,,0,,,60,127
27983,note_on,2,0,0,,10,,,69,127
27983,note_on,0,0,0,,10,,,57,127
27983,note_on,0,0,0,,2,,,50,127
28211,note_off,228,0,0,,2,,,50,127
28211,note_off,0,0,0,,10,,,57,127
28211,note_off,0,0,0,,10,,,69,127
28213,note_on,2,0,0,,7,,,67,127
28213,note_on,0,0,0,,2,,,50,127
28213,note_on,0,0,0,,12,,,59,127
28441,note_off,228,0,0,,12,,,59,127
28441,note_off,0,0,0,,2,,,50,127
28441,note_off,0,0,0,,7,,,67,127
28447,note_on,6,0,0,,0,,,60,127
28447,note_on,0,0,0,,2,,,50,127
28675,note_off,228,0,0,,2,,,50,127
28675,note_off,0,0,0,,0,,,60,127
28677,note_on,2,0,0,,0,,,60,127
28677,note_on,0,0,0,,2,,,50,127
28677,note_on,0,0,0,,6,,,66,127
28790,note_off,113,0,0,,6,,,66,127
28792,note_on,2,0,0,,7,,,67,127
28905,note_off,113,0,0,,7,,,67,127
28905,note_off,0,0,0,,2,,,50,127
28905,note_off,0,0,0,,0,,,60,127
28907,note_on,2,0,0,,12,,,59,127
28907,note_on,0,0,0,,2,,,50,127
28907,note_on,0,0,0,,7,,,67,127
29020,note_off,113,0,0,,7,,,67,127
29022,note_on,2,0,0,,10,,,69,127
29135,note_off,113,0,0,,10,,,69,127
29135,note_off,0,0,0,,2,,,50,127
29135,note_off,0,0,0,,12,,,59,127
29137,note_on,2,0,0,,10,,,57,127
29137,note_on,0,0,0,,2,,,50,127
29137,note_on,0,0,0,,10,,,69,127
29211,note_off,74,0,0,,10,,,69,127
29213,note_on,2,0,0,,12,,,71,127
29287,note_off,74,0,0,,12,,,71,127
29289,note_on,2,0,0,,0,,,72,127
29363,note_off,74,0,0,,0,,,72,127
29363,note_off,0,0,0,,2,,,50,127
29363,note_off,0,0,0,,10,,,57,127
29365,note_on,2,0,0,,2,,,50,127
29365,note_on,0,0,0,,6,,,54,127
29365,note_on,0,0,0,,0,,,72,127
29593,note_off,228,0,0,,0,,,72,127
29593,note_off,0,0,0,,6,,,54,127
29593,note_off,0,0,0,,2,,,50,127
29595,note_on,2,0,0,,2,,,50,127
29595,note_on,0,0,0,,7,,,55,127
29595,note_on,0,0,0,,12,,,71,127
29823,note_off,228,0,0,,12,,,71,127
29823,note_off,0,0,0,,7,,,55,127
29823,note_off,0,0,0,,2,,,50,127
29845,note_on,22,0,0,,0,,,48,127
30075,note_on,230,0,0,,6,,,78,127
30075,note_on,0,0,0,,10,,,57,127
30188,note_off,113,0,0,,6,,,78,127
30190,note_on,2,0,0,,7,,,79,127
30300,note_off,110,0,0,,0,,,48,127
30302,note_off,2,0,0,,7,,,79,127
30302,note_off,0,0,0,,10,,,57,127
30304,note_on,2,0,0,,7,,,79,127
30304,note_on,0,0,0,,7,,,55,127
30304,note_on,0,0,0,,12,,,47,127
30417,note_off,113,0,0,,7,,,79,127
30419,note_on,2,0,0,,10,,,81,127
30532,note_off,113,0,0,,10,,,81,127
30532,note_off,0,0,0,,12,,,47,127
30534,note_on,2,0,0,,10,,,81,127
30534,note_on,0,0,0,,10,,,45,127
30608,note_off,74,0,0,,10,,,81,127
30610,note_on,2,0,0,,12,,,83,127
30684,note_off,74,0,0,,12,,,83,127
30686,note_on,2,0,0,,0,,,84,127
30758,note_off,72,0,0,,7,,,55,127
30760,note_off,2,0,0,,0,,,84,127
30762,note_on,2,0,0,,0,,,84,127
30762,note_on,0,0,0,,6,,,54,127
30988,note_off,226,0,0,,10,,,45,127
30990,note_off,2,0,0,,6,,,54,127
30990,note_off,0,0,0,,0,,,84,127
30992,note_on,2,0,0,,12,,,83,127
30992,note_on,0,0,0,,7,,,43,127
30992,note_on,0,0,0,,7,,,55,127
31220,note_off,228,0,0,,7,,,55,127
31220,note_off,0,0,0,,7,,,43,127
31220,note_off,0,0,0,,12,,,83,127
31222,note_on,2,0,0,,0,,,84,127
31222,note_on,0,0,0,,0,,,48,127
31296,note_off,74,0,0,,0,,,84,127
31298,note_on,2,0,0,,12,,,83,127
31372,note_off,74,0,0,,12,,,83,127
31374,note_on,2,0,0,,10,,,81,127
31448,note_off,74,0,0,,10,,,81,127
31448,note_off,0,0,0,,0,,,48,127
31450,note_on,2,0,0,,7,,,79,127
31450,note_on,0,0,0,,2,,,50,127
31678,note_off,228,0,0,,7,,,79,127
31680,note_on,2,0,0,,7,,,79,127
31680,note_on,0,0,0,,2,,,38,127
31735,note_off,55,0,0,,7,,,79,127
31737,note_on,2,0,0,,6,,,78,127
31792,note_off,55,0,0,,6,,,78,127
31794,note_on,2,0,0,,4,,,76,127
31849,note_off,55,0,0,,4,,,76,127
31851,note_on,2,0,0,,6,,,78,127
31904,note_off,53,0,0,,2,,,50,127
31906,note_off,2,0,0,,6,,,78,127
31906,note_off,0,0,0,,2,,,38,127
31908,note_on,2,0,0,,7,,,79,127
31908,note_on,0,0,0,,7,,,43,127
32021,note_off,113,0,0,,7,,,43,127
32023,note_on,2,0,0,,12,,,47,127
32136,note_off,113,0,0,,12,,,47,127
32138,note_on,2,0,0,,2,,,50,127
32251,note_off,113,0,0,,2,,,50,127
32253,note_on,2,0,0,,7,,,55,127
32366,note_off,113,0,0,,7,,,55,127
32371,note_on,5,0,0,,12,,,59,127
32484,note_off,113,0,0,,12,,,59,127
32491,note_on,7,0,0,,2,,,62,127
32508,note_off,17,0,0,,7,,,79,127
32614,note_off,106,0,0,,2,,,62,127
32624,note_on,10,0,0,,7,,,43,127
32862,note_on,238,0,0,,12,,,47,127
32862,note_on,0,0,0,,12,,,59,127
32864,note_off,2,0,0,,7,,,43,127
32974,note_off,110,0,0,,12,,,59,127
32974,note_off,0,0,0,,12,,,47,127
32976,note_on,2,0,0,,7,,,43,127
32976,note_on,0,0,0,,7,,,55,127
33089,note_off,113,0,0,,7,,,55,127
33089,note_off,0,0,0,,7,,,43,127
33091,note_on,2,0,0,,4,,,52,127
33091,note_on,0,0,0,,4,,,64,127
33319,note_off,228,0,0,,4,,,64,127
33319,note_off,0,0,0,,4,,,52,127
33321,note_on,2,0,0,,2,,,50,127
33321,note_on,0,0,0,,2,,,62,127
33549,note_off,228,0,0,,2,,,62,127
33549,note_off,0,0,0,,2,,,50,127
33551,note_on,2,0,0,,2,,,50,127
33551,note_on,0,0,0,,2,,,62,127
33606,note_off,55,0,0,,2,,,62,127
33606,note_off,0,0,0,,2,,,50,127
33608,note_on,2,0,0,,0,,,48,127
33608,note_on,0,0,0,,0,,,60,127
33663,note_off,55,0,0,,0,,,60,127
33663,note_off,0,0,0,,0,,,48,127
33665,note_on,2,0,0,,2,,,50,127
33665,note_on,0,0,0,,2,,,62,127
33720,note_off,55,0,0,,2,,,62,127
33720,note_off,0,0,0,,2,,,50,127
33722,note_on,2,0,0,,0,,,48,127
33722,note_on,0,0,0,,0,,,60,127
33777,note_off,55,0,0,,0,,,60,127
33777,note_off,0,0,0,,0,,,48,127
33779,note_on,2,0,0,,12,,,47,127
33779,note_on,0,0,0,,12,,,59,127
34007,note_off,228,0,0,,12,,,59,127
34007,note_off,0,0,0,,12,,,47,127
34009,note_on,2,0,0,,7,,,43,127
34237,note_off,228,0,0,,7,,,43,127
34239,note_on,2,0,0,,12,,,47,127
34239,note_on,0,0,0,,12,,,59,127
34352,note_off,113,0,0,,12,,,59,127
34352,note_off,0,0,0,,12,,,47,127
34354,note_on,2,0,0,,7,,,43,127
34354,note_on,0,0,0,,7,,,55,127
34467,note_off,113,0,0,,7,,,55,127
34467,note_off,0,0,0,,7,,,43,127
34469,note_on,2,0,0,,4,,,52,127
34469,note_on,0,0,0,,4,,,64,127
34697,note_off,228,0,0,,4,,,64,127
34697,note_off,0,0,0,,4,,,52,127
34699,note_on,2,0,0,,2,,,50,127
34699,note_on,0,0,0,,2,,,62,127
34927,note_off,228,0,0,,2,,,62,127
34927,note_off,0,0,0,,2,,,50,127
34929,note_on,2,0,0,,2,,,50,127
34929,note_on,0,0,0,,2,,,62,127
34984,note_off,55,0,0,,2,,,62,127
34984,note_off,0,0,0,,2,,,50,127
34986,note_on,2,0,0,,0,,,48,127
34986,note_on,0,0,0,,0,,,60,127
35041,note_off,55,0,0,,0,,,60,127
35041,note_off,0,0,0,,0,,,48,127
35043,note_on,2,0,0,,2,,,50,127
35043,note_on,0,0,0,,2,,,62,127
35098,note_off,55,0,0,,2,,,62,127
35098,note_off,0,0,0,,2,,,50,127
35100,note_on,2,0,0,,0,,,48,127
35100,note_on,0,0,0,,0,,,60,127
35155,note_off,55,0,0,,0,,,60,127
35155,note_off,0,0,0,,0,,,48,127
35157,note_on,2,0,0,,12,,,47,127
35157,note_on,0,0,0,,12,,,59,127
35385,note_off,228,0,0,,12,,,59,127
35385,note_off,0,0,0,,12,,,47,127
35397,note_on,12,0,0,,7,,,43,127
35597,note_off,200,0,0,,7,,,43,127
35620,note_on,23,0,0,,12,,,83,127
35620,note_on,0,0,0,,7,,,67,127
35733,note_off,113,0,0,,12,,,83,127
35735,note_on,2,0,0,,7,,,79,127
35848,note_off,113,0,0,,7,,,79,127
35848,note_off,0,0,0,,7,,,67,127
35850,note_on,2,0,0,,4,,,88,127
35850,note_on,0,0,0,,0,,,72,127
36078,note_off,228,0,0,,0,,,72,127
36078,note_off,0,0,0,,4,,,88,127
36080,note_on,2,0,0,,2,,,86,127
36080,note_on,0,0,0,,12,,,71,127
36308,note_off,228,0,0,,12,,,71,127
36308,note_off,0,0,0,,2,,,86,127
36310,note_on,2,0,0,,0,,,84,127
36310,note_on,0,0,0,,10,,,69,127
36538,note_off,228,0,0,,10,,,69,127
36538,note_off,0,0,0,,0,,,84,127
36540,note_on,2,0,0,,12,,,83,127
36540,note_on,0,0,0,,7,,,67,127
36768,note_off,228,0,0,,7,,,67,127
36768,note_off,0,0,0,,12,,,83,127
36770,note_on,2,0,0,,7,,,43,127
36998,note_off,228,0,0,,7,,,43,127
37000,note_on,2,0,0,,12,,,83,127
37000,note_on,0,0,0,,7,,,67,127
37113,note_off,113,0,0,,12,,,83,127
37115,note_on,2,0,0,,7,,,79,127
37228,note_off,113,0,0,,7,,,79,127
37228,note_off,0,0,0,,7,,,67,127
37230,note_on,2,0,0,,4,,,88,127
37230,note_on,0,0,0,,0,,,72,127
37458,note_off,228,0,0,,0,,,72,127
37458,note_off,0,0,0,,4,,,88,127
37460,note_on,2,0,0,,2,,,86,127
37460,note_on,0,0,0,,12,,,71,127
37688,note_off,228,0,0,,12,,,71,127
37688,note_off,0,0,0,,2,,,86,127
37690,note_on,2,0,0,,0,,,84,127
37690,note_on,0,0,0,,10,,,69,127
37918,note_off,228,0,0,,10,,,69,127
37918,note_off,0,0,0,,0,,,84,127
37920,note_on,2,0,0,,12,,,83,127
37920,note_on,0,0,0,,7,,,67,127
38148,note_off,228,0,0,,12,,,83,127
38160,note_off,12,0,0,,7,,,67,127
38170,note_on,10,0,0,,0,,,84,127
38170,note_on,0,0,0,,0,,,60,127
38244,note_off,74,0,0,,0,,,84,127
38246,note_on,2,0,0,,12,,,83,127
38320,note_off,74,0,0,,12,,,83,127
38322,note_on,2,0,0,,10,,,81,127
38396,note_off,74,0,0,,10,,,81,127
38396,note_off,0,0,0,,0,,,60,127
38398,note_on,2,0,0,,7,,,79,127
38398,note_on,0,0,0,,2,,,62,127
38626,note_off,228,0,0,,2,,,62,127
38626,note_off,0,0,0,,7,,,79,127
38628,note_on,2,0,0,,7,,,79,127
38628,note_on,0,0,0,,0,,,60,127
38683,note_off,55,0,0,,7,,,79,127
38685,note_on,2,0,0,,6,,,78,127
38740,note_off,55,0,0,,6,,,78,127
38742,note_on,2,0,0,,4,,,76,127
38797,note_off,55,0,0,,4,,,76,127
38799,note_on,2,0,0,,6,,,78,127
38854,note_off,55,0,0,,6,,,78,127
38854,note_off,0,0,0,,0,,,60,127
38856,note_on,2,0,0,,7,,,79,127
38856,note_on,0,0,0,,12,,,59,127
39084,note_off,228,0,0,,12,,,59,127
39084,note_off,0,0,0,,7,,,79,127
39086,note_on,2,0,0,,2,,,74,127
39086,note_on,0,0,0,,12,,,47,127
39314,note_off,228,0,0,,12,,,47,127
39314,note_off,0,0,0,,2,,,74,127
39316,note_on,2,0,0,,4,,,76,127
39316,note_on,0,0,0,,0,,,48,127
39544,note_off,228,0,0,,0,,,48,127
39544,note_off,0,0,0,,4,,,76,127
39556,note_on,12,0,0,,2,,,74,127
39556,note_on,0,0,0,,0,,,72,127
39556,note_on,0,0,0,,0,,,48,127
39630,note_off,74,0,0,,0,,,72,127
39630,note_off,0,0,0,,2,,,74,127
39632,note_on,2,0,0,,12,,,71,127
39706,note_off,74,0,0,,12,,,71,127
39708,note_on,2,0,0,,10,,,69,127
39782,note_off,74,0,0,,10,,,69,127
39782,note_off,0,0,0,,0,,,48,127
39784,note_on,2,0,0,,7,,,67,127
39784,note_on,0,0,0,,2,,,50,127
40012,note_off,228,0,0,,2,,,50,127
40012,note_off,0,0,0,,7,,,67,127
40014,note_on,2,0,0,,7,,,67,127
40014,note_on,0,0,0,,0,,,48,127
40069,note_off,55,0,0,,7,,,67,127
40071,note_on,2,0,0,,6,,,66,127
40126,note_off,55,0,0,,6,,,66,127
40128,note_on,2,0,0,,4,,,64,127
40183,note_off,55,0,0,,4,,,64,127
40185,note_on,2,0,0,,6,,,66,127
40240,note_off,55,0,0,,6,,,66,127
40240,note_off,0,0,0,,0,,,48,127
40242,note_on,2,0,0,,7,,,67,127
40242,note_on,0,0,0,,12,,,47,127
40470,note_off,228,0,0,,12,,,47,127
40470,note_off,0,0,0,,7,,,67,127
40472,note_on,2,0,0,,2,,,62,127
40472,note_on,0,0,0,,12,,,47,127
40700,note_off,228,0,0,,12,,,47,127
40700,note_off,0,0,0,,2,,,62,127
40702,note_on,2,0,0,,4,,,64,127
40702,note_on,0,0,0,,0,,,48,127
40930,note_off,228,0,0,,0,,,48,127
40930,note_off,0,0,0,,4,,,64,127
40942,note_on,12,0,0,,2,,,62,127
40942,note_on,0,0,0,,0,,,60,127
40942,note_on,0,0,0,,0,,,48,127
41016,note_off,74,0,0,,0,,,60,127
41016,note_off,0,0,0,,2,,,62,127
41018,note_on,2,0,0,,12,,,59,127
41092,note_off,74,0,0,,12,,,59,127
41094,note_on,2,0,0,,10,,,57,127
41168,note_off,74,0,0,,10,,,57,127
41168,note_off,0,0,0,,0,,,48,127
41170,note_on,2,0,0,,7,,,55,127
41170,note_on,0,0,0,,2,,,50,127
41398,note_off,228,0,0,,2,,,50,127
41398,note_off,0,0,0,,7,,,55,127
41400,note_on,2,0,0,,7,,,55,127
41400,note_on,0,0,0,,2,,,38,127
41455,note_off,55,0,0,,7,,,55,127
41457,note_on,2,0,0,,6,,,54,127
41512,note_off,55,0,0,,6,,,54,127
41514,note_on,2,0,0,,4,,,52,127
41569,note_off,55,0,0,,4,,,52,127
41571,note_on,2,0,0,,6,,,54,127
41626,note_off,55,0,0,,6,,,54,127
41626,note_off,0,0,0,,2,,,38,127
41628,note_on,2,0,0,,7,,,55,127
41628,note_on,0,0,0,,7,,,43,127
42146,note_off,518,0,0,,7,,,55,127
42360,note_off,214,0,0,,7,,,43,127
42391,note_on,31,0,0,,7,,,43,127
42619,note_off,228,0,0,,7,,,43,127
42621,note_on,2,0,0,,12,,,71,127
42621,note_on,0,0,0,,7,,,55,127
42849,note_off,228,0,0,,7,,,55,127
42849,note_off,0,0,0,,12,,,71,127
42851,note_on,2,0,0,,4,,,76,127
42851,note_on,0,0,0,,0,,,60,127
43079,note_off,228,0,0,,0,,,60,127
43079,note_off,0,0,0,,4,,,76,127
43081,note_on,2,0,0,,2,,,74,127
43081,note_on,0,0,0,,12,,,59,127
43309,note_off,228,0,0,,12,,,59,127
43309,note_off,0,0,0,,2,,,74,127
43311,note_on,2,0,0,,0,,,72,127
43311,note_on,0,0,0,,10,,,57,127
43539,note_off,228,0,0,,10,,,57,127
43539,note_off,0,0,0,,0,,,72,127
43541,note_on,2,0,0,,12,,,71,127
43541,note_on,0,0,0,,7,,,55,127
43769,note_off,228,0,0,,7,,,55,127
43769,note_off,0,0,0,,12,,,71,127
43781,note_on,12,0,0,,7,,,79,127
43781,note_on,0,0,0,,7,,,43,127
44009,note_off,228,0,0,,7,,,43,127
44009,note_off,0,0,0,,7,,,79,127
44011,note_on,2,0,0,,7,,,67,127
44011,note_on,0,0,0,,7,,,55,127
44239,note_off,228,0,0,,7,,,55,127
44239,note_off,0,0,0,,7,,,67,127
44241,note_on,2,0,0,,0,,,72,127
44241,note_on,0,0,0,,4,,,64,127
44469,note_off,228,0,0,,4,,,64,127
44469,note_off,0,0,0,,0,,,72,127
44471,note_on,2,0,0,,12,,,71,127
44471,note_on,0,0,0,,7,,,55,127
44471,note_on,0,0,0,,2,,,62,127
44699,note_off,228,0,0,,2,,,62,127
44699,note_off,0,0,0,,12,,,71,127
44701,note_on,2,0,0,,0,,,72,127
44701,note_on,0,0,0,,0,,,60,127
44929,note_off,228,0,0,,0,,,60,127
44929,note_off,0,0,0,,0,,,72,127
44931,note_on,2,0,0,,2,,,74,127
44931,note_on,0,0,0,,12,,,59,127
45159,note_off,228,0,0,,12,,,59,127
45159,note_off,0,0,0,,2,,,74,127
45160,note_off,1,0,0,,7,,,55,127
45173,note_on,13,0,0,,7,,,79,127
45173,note_on,0,0,0,,7,,,43,127
45403,note_on,230,0,0,,7,,,67,127
45629,note_off,226,0,0,,7,,,79,127
45631,note_off,2,0,0,,7,,,67,127
45631,note_off,0,0,0,,7,,,43,127
45633,note_on,2,0,0,,4,,,76,127
45633,note_on,0,0,0,,0,,,60,127
45861,note_off,228,0,0,,0,,,60,127
45861,note_off,0,0,0,,4,,,76,127
45863,note_on,2,0,0,,2,,,74,127
45863,note_on,0,0,0,,12,,,59,127
46091,note_off,228,0,0,,12,,,59,127
46091,note_off,0,0,0,,2,,,74,127
46093,note_on,2,0,0,,0,,,72,127
46093,note_on,0,0,0,,10,,,57,127
46321,note_off,228,0,0,,10,,,57,127
46321,note_off,0,0,0,,0,,,72,127
46326,note_on,5,0,0,,7,,,55,127
46326,note_on,0,0,0,,12,,,71,127
46566,note_off,240,0,0,,12,,,71,127
46566,note_off,0,0,0,,7,,,55,127
46568,note_on,2,0,0,,0,,,36,127
46568,note_on,0,0,0,,7,,,79,127
46798,note_on,230,0,0,,7,,,67,127
47024,note_off,226,0,0,,7,,,79,127
47026,note_off,2,0,0,,7,,,67,127
47028,note_on,2,0,0,,11,,,70,127
47256,note_off,228,0,0,,11,,,70,127
47256,note_off,0,0,0,,0,,,36,127
47258,note_on,2,0,0,,5,,,41,127
47258,note_on,0,0,0,,10,,,69,127
47486,note_off,228,0,0,,10,,,69,127
47488,note_on,2,0,0,,7,,,67,127
47716,note_off,228,0,0,,7,,,67,127
47718,note_on,2,0,0,,5,,,65,127
47857,note_off,139,0,0,,5,,,41,127
47946,note_off,89,0,0,,5,,,65,127
47968,note_on,22,0,0,,10,,,81,127
47968,note_on,0,0,0,,5,,,65,127
47968,note_on,0,0,0,,5,,,53,127
48196,note_off,228,0,0,,5,,,53,127
48196,note_off,0,0,0,,5,,,65,127
48196,note_off,0,0,0,,10,,,81,127
48198,note_on,2,0,0,,7,,,79,127
48198,note_on,0,0,0,,4,,,64,127
48198,note_on,0,0,0,,7,,,55,127
48426,note_off,228,0,0,,7,,,55,127
48426,note_off,0,0,0,,4,,,64,127
48428,note_on,2,0,0,,1,,,61,127
48428,note_on,0,0,0,,10,,,57,127
48656,note_off,228,0,0,,10,,,57,127
48656,note_off,0,0,0,,1,,,61,127
48658,note_on,2,0,0,,2,,,62,127
48658,note_on,0,0,0,,11,,,58,127
48732,note_off,74,0,0,,7,,,79,127
48734,note_on,2,0,0,,5,,,77,127
48808,note_off,74,0,0,,5,,,77,127
48810,note_on,2,0,0,,4,,,76,127
48884,note_off,74,0,0,,4,,,76,127
48886,note_on,2,0,0,,2,,,74,127
49114,note_off,228,0,0,,2,,,74,127
49114,note_off,0,0,0,,11,,,58,127
49114,note_off,0,0,0,,2,,,62,127
49116,note_on,2,0,0,,5,,,77,127
49116,note_on,0,0,0,,5,,,53,127
49116,note_on,0,0,0,,2,,,62,127
49344,note_off,228,0,0,,2,,,62,127
49344,note_off,0,0,0,,5,,,53,127
49346,note_on,2,0,0,,7,,,67,127
49346,note_on,0,0,0,,7,,,55,127
49574,note_off,228,0,0,,5,,,77,127
49576,note_on,2,0,0,,4,,,76,127
49804,note_off,228,0,0,,4,,,76,127
49804,note_off,0,0,0,,7,,,67,127
49806,note_on,2,0,0,,2,,,74,127
49806,note_on,0,0,0,,5,,,65,127
50034,note_off,228,0,0,,5,,,65,127
50035,note_off,1,0,0,,7,,,55,127
50036,note_on,1,0,0,,4,,,64,127
50036,note_on,0,0,0,,10,,,57,127
50110,note_off,74,0,0,,2,,,74,127
50112,note_on,2,0,0,,1,,,73,127
50186,note_off,74,0,0,,1,,,73,127
50188,note_on,2,0,0,,12,,,71,127
50262,note_off,74,0,0,,12,,,71,127
50264,note_on,2,0,0,,10,,,69,127
50492,note_off,228,0,0,,10,,,57,127
50492,note_off,0,0,0,,4,,,64,127
50504,note_on,12,0,0,,10,,,45,127
50504,note_on,0,0,0,,10,,,81,127
50516,note_off,12,0,0,,10,,,69,127
50732,note_off,216,0,0,,10,,,81,127
50732,note_off,0,0,0,,10,,,45,127
50734,note_on,2,0,0,,7,,,55,127
50734,note_on,0,0,0,,11,,,82,127
50962,note_off,228,0,0,,11,,,82,127
50964,note_on,2,0,0,,1,,,85,127
51192,note_off,228,0,0,,7,,,55,127
51194,note_on,2,0,0,,4,,,64,127
51372,note_off,178,0,0,,1,,,85,127
51422,note_off,50,0,0,,4,,,64,127
51424,note_on,2,0,0,,5,,,53,127
51424,note_on,0,0,0,,2,,,86,127
51652,note_off,228,0,0,,2,,,86,127
51654,note_on,2,0,0,,8,,,80,127
51882,note_off,228,0,0,,5,,,53,127
51884,note_on,2,0,0,,2,,,62,127
52062,note_off,178,0,0,,8,,,80,127
52112,note_off,50,0,0,,2,,,62,127
52114,note_on,2,0,0,,1,,,49,127
52114,note_on,0,0,0,,10,,,81,127
52342,note_off,228,0,0,,10,,,81,127
52356,note_on,14,0,0,,4,,,76,127
52582,note_on,226,0,0,,10,,,57,127
52587,note_off,5,0,0,,1,,,49,127
52663,note_off,76,0,0,,4,,,76,127
52829,note_off,166,0,0,,10,,,57,127
52845,note_on,16,0,0,,2,,,50,127
53073,note_off,228,0,0,,2,,,50,127
53075,note_on,2,0,0,,2,,,74,127
53075,note_on,0,0,0,,5,,,65,127
53188,note_off,113,0,0,,2,,,74,127
53190,note_on,2,0,0,,4,,,76,127
53303,note_off,113,0,0,,4,,,76,127
53303,note_off,0,0,0,,5,,,65,127
53305,note_on,2,0,0,,4,,,76,127
53305,note_on,0,0,0,,4,,,64,127
53418,note_off,113,0,0,,4,,,76,127
53420,note_on,2,0,0,,5,,,77,127
53533,note_off,113,0,0,,5,,,77,127
53533,note_off,0,0,0,,4,,,64,127
53535,note_on,2,0,0,,5,,,77,127
53535,note_on,0,0,0,,2,,,50,127
53763,note_off,228,0,0,,2,,,50,127
53763,note_off,0,0,0,,5,,,77,127
53775,note_on,12,0,0,,2,,,74,127
53775,note_on,0,0,0,,5,,,65,127
53888,note_off,113,0,0,,2,,,74,127
53890,note_on,2,0,0,,4,,,76,127
54003,note_off,113,0,0,,4,,,76,127
54003,note_off,0,0,0,,5,,,65,127
54005,note_on,2,0,0,,4,,,76,127
54005,note_on,0,0,0,,4,,,64,127
54118,note_off,113,0,0,,4,,,76,127
54120,note_on,2,0,0,,5,,,77,127
54233,note_off,113,0,0,,5,,,77,127
54233,note_off,0,0,0,,4,,,64,127
54235,note_on,2,0,0,,5,,,77,127
54235,note_on,0,0,0,,2,,,62,127
54309,note_off,74,0,0,,5,,,77,127
54311,note_on,2,0,0,,7,,,79,127
54385,note_off,74,0,0,,7,,,79,127
54387,note_on,2,0,0,,10,,,81,127
54461,note_off,74,0,0,,10,,,81,127
54461,note_off,0,0,0,,2,,,62,127
54463,note_on,2,0,0,,10,,,81,127
54463,note_on,0,0,0,,0,,,60,127
54691,note_off,228,0,0,,0,,,60,127
54691,note_off,0,0,0,,10,,,81,127
54693,note_on,2,0,0,,7,,,79,127
54693,note_on,0,0,0,,12,,,59,127
54885,note_off,192,0,0,,7,,,79,127
54921,note_off,36,0,0,,12,,,59,127
54931,note_on,10,0,0,,0,,,60,127
55159,note_off,228,0,0,,0,,,60,127
55161,note_on,2,0,0,,4,,,64,127
55161,note_on,0,0,0,,0,,,72,127
55274,note_off,113,0,0,,0,,,72,127
55276,note_on,2,0,0,,2,,,74,127
55389,note_off,113,0,0,,2,,,74,127
55389,note_off,0,0,0,,4,,,64,127
55391,note_on,2,0,0,,2,,,62,127
55391,note_on,0,0,0,,2,,,74,127
55504,note_off,113,0,0,,2,,,74,127
55506,note_on,2,0,0,,4,,,76,127
55619,note_off,113,0,0,,4,,,76,127
55619,note_off,0,0,0,,2,,,62,127
55621,note_on,2,0,0,,0,,,60,127
55621,note_on,0,0,0,,4,,,76,127
55695,note_off,74,0,0,,4,,,76,127
55697,note_on,2,0,0,,5,,,77,127
55771,note_off,74,0,0,,5,,,77,127
55773,note_on,2,0,0,,7,,,79,127
55847,note_off,74,0,0,,7,,,79,127
55847,note_off,0,0,0,,0,,,60,127
55849,note_on,2,0,0,,7,,,43,127
55849,note_on,0,0,0,,7,,,79,127
56077,note_off,228,0,0,,7,,,79,127
56077,note_off,0,0,0,,7,,,43,127
56079,note_on,2,0,0,,7,,,43,127
56079,note_on,0,0,0,,5,,,77,127
56307,note_off,228,0,0,,5,,,77,127
56307,note_off,0,0,0,,7,,,43,127
56309,note_on,2,0,0,,0,,,36,127
56309,note_on,0,0,0,,4,,,76,127
56537,note_off,228,0,0,,4,,,76,127
56537,note_off,0,0,0,,0,,,36,127
56549,note_on,12,0,0,,4,,,64,127
56549,note_on,0,0,0,,0,,,72,127
56662,note_off,113,0,0,,0,,,72,127
56664,note_on,2,0,0,,2,,,74,127
56777,note_off,113,0,0,,2,,,74,127
56777,note_off,0,0,0,,4,,,64,127
56779,note_on,2,0,0,,2,,,62,127
56779,note_on,0,0,0,,2,,,74,127
56892,note_off,113,0,0,,2,,,74,127
56894,note_on,2,0,0,,4,,,76,127
57007,note_off,113,0,0,,4,,,76,127
57007,note_off,0,0,0,,2,,,62,127
57009,note_on,2,0,0,,0,,,60,127
57009,note_on,0,0,0,,4,,,76,127
57083,note_off,74,0,0,,4,,,76,127
57085,note_on,2,0,0,,5,,,77,127
57159,note_off,74,0,0,,5,,,77,127
57161,note_on,2,0,0,,7,,,79,127
57235,note_off,74,0,0,,7,,,79,127
57235,note_off,0,0,0,,0,,,60,127
57237,note_on,2,0,0,,10,,,57,127
57237,note_on,0,0,0,,5,,,77,127
57350,note_off,113,0,0,,5,,,77,127
57352,note_on,2,0,0,,4,,,76,127
57465,note_off,113,0,0,,4,,,76,127
57465,note_off,0,0,0,,10,,,57,127
57467,note_on,2,0,0,,5,,,53,127
57467,note_on,0,0,0,,2,,,74,127
57580,note_off,113,0,0,,2,,,74,127
57582,note_on,2,0,0,,0,,,72,127
57695,note_off,113,0,0,,0,,,72,127
57695,note_off,0,0,0,,5,,,53,127
57697,note_on,2,0,0,,7,,,55,127
57697,note_on,0,0,0,,0,,,72,127
57771,note_off,74,0,0,,0,,,72,127
57773,note_on,2,0,0,,12,,,71,127
57847,note_off,74,0,0,,12,,,71,127
57849,note_on,2,0,0,,0,,,72,127
57923,note_off,74,0,0,,0,,,72,127
57925,note_on,2,0,0,,7,,,43,127
57925,note_on,0,0,0,,12,,,71,127
58044,note_off,119,0,0,,12,,,71,127
58045,note_on,1,0,0,,10,,,69,127
58151,note_off,106,0,0,,7,,,55,127
58177,note_on,26,0,0,,7,,,67,127
58179,note_off,2,0,0,,10,,,69,127
58429,note_off,250,0,0,,7,,,43,127
58657,note_off,228,0,0,,7,,,67,127
59039,note_on,382,0,0,,7,,,55,127
59269,note_on,230,0,0,,7,,,67,127
59382,note_off,113,0,0,,7,,,67,127
59384,note_on,2,0,0,,10,,,69,127
59497,note_off,113,0,0,,10,,,69,127
59499,note_on,2,0,0,,5,,,65,127
59499,note_on,0,0,0,,10,,,69,127
59612,note_off,113,0,0,,10,,,69,127
59614,note_on,2,0,0,,12,,,71,127
59727,note_off,113,0,0,,12,,,71,127
59727,note_off,0,0,0,,5,,,65,127
59728,note_off,1,0,0,,7,,,55,127
59729,note_on,1,0,0,,5,,,65,127
59729,note_on,0,0,0,,7,,,55,127
59729,note_on,0,0,0,,12,,,71,127
59803,note_off,74,0,0,,12,,,71,127
59805,note_on,2,0,0,,0,,,72,127
59879,note_off,74,0,0,,0,,,72,127
59881,note_on,2,0,0,,2,,,74,127
59955,note_off,74,0,0,,2,,,74,127
59955,note_off,0,0,0,,7,,,55,127
59955,note_off,0,0,0,,5,,,65,127
59957,note_on,2,0,0,,7,,,55,127
59957,note_on,0,0,0,,2,,,62,127
59957,note_on,0,0,0,,2,,,74,127
60185,note_off,228,0,0,,2,,,74,127
60185,note_off,0,0,0,,2,,,62,127
60185,note_off,0,0,0,,7,,,55,127
60187,note_on,2,0,0,,7,,,55,127
60187,note_on,0,0,0,,4,,,64,127
60187,note_on,0,0,0,,0,,,72,127
60391,note_off,204,0,0,,0,,,72,127
60415,note_off,24,0,0,,4,,,64,127
60415,note_off,0,0,0,,7,,,55,127
60417,note_on,2,0,0,,7,,,55,127
60417,note_on,0,0,0,,5,,,65,127
60645,note_off,228,0,0,,5,,,65,127
60645,note_off,0,0,0,,7,,,55,127
60647,note_on,2,0,0,,7,,,55,127
60647,note_on,0,0,0,,5,,,65,127
60647,note_on,0,0,0,,12,,,71,127
60760,note_off,113,0,0,,12,,,71,127
60762,note_on,2,0,0,,0,,,72,127
60875,note_off,113,0,0,,0,,,72,127
60875,note_off,0,0,0,,5,,,65,127
60875,note_off,0,0,0,,7,,,55,127
60877,note_on,2,0,0,,4,,,64,127
60877,note_on,0,0,0,,7,,,55,127
60877,note_on,0,0,0,,0,,,72,127
60990,note_off,113,0,0,,0,,,72,127
60992,note_on,2,0,0,,2,,,74,127
61105,note_off,113,0,0,,2,,,74,127
61105,note_off,0,0,0,,7,,,55,127
61105,note_off,0,0,0,,4,,,64,127
61107,note_on,2,0,0,,7,,,55,127
61107,note_on,0,0,0,,2,,,62,127
61107,note_on,0,0,0,,2,,,74,127
61181,note_off,74,0,0,,2,,,74,127
61183,note_on,2,0,0,,4,,,76,127
61257,note_off,74,0,0,,4,,,76,127
61259,note_on,2,0,0,,5,,,77,127
61333,note_off,74,0,0,,5,,,77,127
61333,note_off,0,0,0,,2,,,62,127
61333,note_off,0,0,0,,7,,,55,127
61335,note_on,2,0,0,,12,,,59,127
61335,note_on,0,0,0,,7,,,55,127
61335,note_on,0,0,0,,5,,,77,127
61563,note_off,228,0,0,,5,,,77,127
61563,note_off,0,0,0,,7,,,55,127
61563,note_off,0,0,0,,12,,,59,127
61565,note_on,2,0,0,,7,,,55,127
61565,note_on,0,0,0,,0,,,60,127
61565,note_on,0,0,0,,4,,,76,127
61793,note_off,228,0,0,,4,,,76,127
61793,note_off,0,0,0,,0,,,60,127
61793,note_off,0,0,0,,7,,,55,127
61805,note_on,12,0,0,,5,,,53,127
62035,note_on,230,0,0,,2,,,62,127
62035,note_on,0,0,0,,12,,,83,127
62148,note_off,113,0,0,,12,,,83,127
62150,note_on,2,0,0,,0,,,84,127
62260,note_off,110,0,0,,5,,,53,127
62262,note_off,2,0,0,,0,,,84,127
62262,note_off,0,0,0,,2,,,62,127
62264,note_on,2,0,0,,4,,,52,127
62264,note_on,0,0,0,,0,,,60,127
62264,note_on,0,0,0,,0,,,84,127
62377,note_off,113,0,0,,0,,,84,127
62379,note_on,2,0,0,,2,,,86,127
62492,note_off,113,0,0,,2,,,86,127
62492,note_off,0,0,0,,4,,,52,127
62494,note_on,2,0,0,,2,,,50,127
62494,note_on,0,0,0,,2,,,86,127
62568,note_off,74,0,0,,2,,,86,127
62570,note_on,2,0,0,,4,,,88,127
62644,note_off,74,0,0,,4,,,88,127
62646,note_on,2,0,0,,5,,,89,127
62718,note_off,72,0,0,,0,,,60,127
62720,note_off,2,0,0,,5,,,89,127
62722,note_on,2,0,0,,12,,,59,127
62722,note_on,0,0,0,,5,,,89,127
62948,note_off,226,0,0,,2,,,50,127
62950,note_off,2,0,0,,5,,,89,127
62950,note_off,0,0,0,,12,,,59,127
62952,note_on,2,0,0,,0,,,60,127
62952,note_on,0,0,0,,0,,,48,127
62952,note_on,0,0,0,,4,,,88,127
63180,note_off,228,0,0,,4,,,88,127
63180,note_off,0,0,0,,0,,,48,127
63180,note_off,0,0,0,,0,,,60,127
63182,note_on,2,0,0,,5,,,53,127
63182,note_on,0,0,0,,2,,,86,127
63410,note_off,228,0,0,,2,,,86,127
63410,note_off,0,0,0,,5,,,53,127
63412,note_on,2,0,0,,7,,,55,127
63412,note_on,0,0,0,,0,,,84,127
63640,note_off,228,0,0,,0,,,84,127
63642,note_on,2,0,0,,7,,,43,127
63642,note_on,0,0,0,,0,,,84,127
63697,note_off,55,0,0,,0,,,84,127
63699,note_on,2,0,0,,12,,,83,127
63754,note_off,55,0,0,,12,,,83,127
63756,note_on,2,0,0,,10,,,81,127
63811,note_off,55,0,0,,10,,,81,127
63813,note_on,2,0,0,,12,,,83,127
63866,note_off,53,0,0,,7,,,55,127
63868,note_off,2,0,0,,12,,,83,127
63868,note_off,0,0,0,,7,,,43,127
63870,note_on,2,0,0,,0,,,48,127
63870,note_on,0,0,0,,0,,,84,127
63983,note_off,113,0,0,,0,,,48,127
63985,note_on,2,0,0,,4,,,52,127
64098,note_off,113,0,0,,4,,,52,127
64100,note_on,2,0,0,,7,,,55,127
64213,note_off,113,0,0,,7,,,55,127
64215,note_on,2,0,0,,0,,,60,127
64328,note_off,113,0,0,,0,,,60,127
64330,note_on,2,0,0,,4,,,64,127
64443,note_off,113,0,0,,4,,,64,127
64445,note_on,2,0,0,,7,,,67,127
64558,note_off,113,0,0,,7,,,67,127
64559,note_off,1,0,0,,0,,,84,127
64565,note_on,6,0,0,,7,,,55,127
64810,note_on,245,0,0,,7,,,67,127
64923,note_off,113,0,0,,7,,,67,127
64925,note_on,2,0,0,,10,,,69,127
65038,note_off,113,0,0,,10,,,69,127
65040,note_on,2,0,0,,10,,,69,127
65040,note_on,0,0,0,,5,,,65,127
65153,note_off,113,0,0,,10,,,69,127
65155,note_on,2,0,0,,12,,,71,127
65255,note_off,100,0,0,,7,,,55,127
65268,note_off,13,0,0,,12,,,71,127
65268,note_off,0,0,0,,5,,,65,127
65270,note_on,2,0,0,,12,,,71,127
65270,note_on,0,0,0,,5,,,65,127
65270,note_on,0,0,0,,7,,,55,127
65344,note_off,74,0,0,,12,,,71,127
65346,note_on,2,0,0,,0,,,72,127
65420,note_off,74,0,0,,0,,,72,127
65422,note_on,2,0,0,,2,,,74,127
65496,note_off,74,0,0,,2,,,74,127
65496,note_off,0,0,0,,7,,,55,127
65496,note_off,0,0,0,,5,,,65,127
65498,note_on,2,0,0,,2,,,74,127
65498,note_on,0,0,0,,2,,,62,127
65498,note_on,0,0,0,,7,,,55,127
65726,note_off,228,0,0,,7,,,55,127
65726,note_off,0,0,0,,2,,,62,127
65726,note_off,0,0,0,,2,,,74,127
65728,note_on,2,0,0,,0,,,72,127
65728,note_on,0,0,0,,4,,,64,127
65728,note_on,0,0,0,,7,,,55,127
65956,note_off,228,0,0,,7,,,55,127
65968,note_off,12,0,0,,4,,,64,127
65968,note_on,0,0,0,,7,,,55,127
65968,note_on,0,0,0,,5,,,65,127
66016,note_off,48,0,0,,0,,,72,127
66196,note_off,180,0,0,,5,,,65,127
66196,note_off,0,0,0,,7,,,55,127
66198,note_on,2,0,0,,12,,,71,127
66198,note_on,0,0,0,,5,,,65,127
66198,note_on,0,0,0,,7,,,55,127
66311,note_off,113,0,0,,12,,,71,127
66313,note_on,2,0,0,,0,,,72,127
66426,note_off,113,0,0,,0,,,72,127
66426,note_off,0,0,0,,7,,,55,127
66426,note_off,0,0,0,,5,,,65,127
66428,note_on,2,0,0,,0,,,72,127
66428,note_on,0,0,0,,4,,,64,127
66428,note_on,0,0,0,,7,,,55,127
66541,note_off,113,0,0,,0,,,72,127
66543,note_on,2,0,0,,2,,,74,127
66656,note_off,113,0,0,,2,,,74,127
66656,note_off,0,0,0,,7,,,55,127
66656,note_off,0,0,0,,4,,,64,127
66658,note_on,2,0,0,,2,,,74,127
66658,note_on,0,0,0,,2,,,62,127
66658,note_on,0,0,0,,7,,,55,127
66732,note_off,74,0,0,,2,,,74,127
66734,note_on,2,0,0,,4,,,76,127
66808,note_off,74,0,0,,4,,,76,127
66810,note_on,2,0,0,,5,,,77,127
66884,note_off,74,0,0,,5,,,77,127
66884,note_off,0,0,0,,7,,,55,127
66884,note_off,0,0,0,,2,,,62,127
66886,note_on,2,0,0,,5,,,77,127
66886,note_on,0,0,0,,12,,,59,127
66886,note_on,0,0,0,,7,,,55,127
67114,note_off,228,0,0,,7,,,55,127
67114,note_off,0,0,0,,12,,,59,127
67114,note_off,0,0,0,,5,,,77,127
67116,note_on,2,0,0,,4,,,76,127
67116,note_on,0,0,0,,0,,,60,127
67116,note_on,0,0,0,,7,,,55,127
67344,note_off,228,0,0,,7,,,55,127
67344,note_off,0,0,0,,0,,,60,127
67356,note_on,12,0,0,,5,,,53,127
67380,note_off,24,0,0,,4,,,76,127
67586,note_on,206,0,0,,12,,,83,127
67586,note_on,0,0,0,,2,,,62,127
67699,note_off,113,0,0,,12,,,83,127
67701,note_on,2,0,0,,0,,,84,127
67811,note_off,110,0,0,,5,,,53,127
67813,note_off,2,0,0,,0,,,84,127
67813,note_off,0,0,0,,2,,,62,127
67815,note_on,2,0,0,,0,,,84,127
67815,note_on,0,0,0,,0,,,60,127
67815,note_on,0,0,0,,4,,,52,127
67928,note_off,113,0,0,,0,,,84,127
67930,note_on,2,0,0,,2,,,86,127
68043,note_off,113,0,0,,2,,,86,127
68043,note_off,0,0,0,,4,,,52,127
68045,note_on,2,0,0,,2,,,86,127
68045,note_on,0,0,0,,2,,,50,127
68119,note_off,74,0,0,,2,,,86,127
68121,note_on,2,0,0,,4,,,88,127
68195,note_off,74,0,0,,4,,,88,127
68197,note_on,2,0,0,,5,,,89,127
68269,note_off,72,0,0,,0,,,60,127
68271,note_off,2,0,0,,5,,,89,127
68273,note_on,2,0,0,,5,,,89,127
68273,note_on,0,0,0,,12,,,59,127
68499,note_off,226,0,0,,2,,,50,127
68501,note_off,2,0,0,,12,,,59,127
68501,note_off,0,0,0,,5,,,89,127
68503,note_on,2,0,0,,4,,,88,127
68503,note_on,0,0,0,,0,,,60,127
68503,note_on,0,0,0,,0,,,48,127
68719,note_off,216,0,0,,4,,,88,127
68731,note_off,12,0,0,,0,,,48,127
68731,note_off,0,0,0,,0,,,60,127
68743,note_on,12,0,0,,2,,,86,127
68743,note_on,0,0,0,,5,,,53,127
68971,note_off,228,0,0,,5,,,53,127
68971,note_off,0,0,0,,2,,,86,127
68973,note_on,2,0,0,,0,,,84,127
68973,note_on,0,0,0,,7,,,55,127
69201,note_off,228,0,0,,0,,,84,127
69203,note_on,2,0,0,,0,,,84,127
69203,note_on,0,0,0,,7,,,43,127
69258,note_off,55,0,0,,0,,,84,127
69260,note_on,2,0,0,,12,,,83,127
69315,note_off,55,0,0,,12,,,83,127
69317,note_on,2,0,0,,10,,,81,127
69372,note_off,55,0,0,,10,,,81,127
69374,note_on,2,0,0,,12,,,83,127
69427,note_off,53,0,0,,7,,,55,127
69429,note_off,2,0,0,,12,,,83,127
69429,note_off,0,0,0,,7,,,43,127
69431,note_on,2,0,0,,0,,,84,127
69431,note_on,0,0,0,,0,,,48,127
69544,note_off,113,0,0,,0,,,84,127
69546,note_on,2,0,0,,7,,,79,127
69659,note_off,113,0,0,,7,,,79,127
69661,note_on,2,0,0,,4,,,76,127
69774,note_off,113,0,0,,4,,,76,127
69776,note_on,2,0,0,,0,,,72,127
69889,note_off,113,0,0,,0,,,72,127
69891,note_on,2,0,0,,7,,,67,127
70004,note_off,113,0,0,,7,,,67,127
70006,note_on,2,0,0,,4,,,64,127
70119,note_off,113,0,0,,4,,,64,127
70119,note_off,0,0,0,,0,,,48,127
70121,note_on,2,0,0,,0,,,60,127
70236,note_on,115,0,0,,7,,,55,127
70349,note_off,113,0,0,,7,,,55,127
70351,note_on,2,0,0,,4,,,52,127
70464,note_off,113,0,0,,4,,,52,127
70466,note_on,2,0,0,,0,,,48,127
70579,note_off,113,0,0,,0,,,48,127
70581,note_on,2,0,0,,7,,,43,127
70694,note_off,113,0,0,,7,,,43,127
70696,note_on,2,0,0,,4,,,40,127
70809,note_off,113,0,0,,4,,,40,127
70810,note_off,1,0,0,,0,,,60,127
70811,note_on,1,0,0,,0,,,36,127
71075,note_off,264,0,0,,0,,,36,127
71080,note_on,5,0,0,,4,,,64,127
71080,note_on,0,0,0,,4,,,52,127
71193,note_off,113,0,0,,4,,,52,127
71193,note_off,0,0,0,,4,,,64,127
71195,note_on,2,0,0,,0,,,60,127
71195,note_on,0,0,0,,0,,,48,127
71308,note_off,113,0,0,,0,,,48,127
71308,note_off,0,0,0,,0,,,60,127
71310,note_on,2,0,0,,10,,,69,127
71310,note_on,0,0,0,,10,,,57,127
71538,note_off,228,0,0,,10,,,57,127
71538,note_off,0,0,0,,10,,,69,127
71540,note_on,2,0,0,,7,,,67,127
71540,note_on,0,0,0,,7,,,55,127
71768,note_off,228,0,0,,7,,,55,127
71768,note_off,0,0,0,,7,,,67,127
71770,note_on,2,0,0,,7,,,67,127
71770,note_on,0,0,0,,7,,,55,127
71825,note_off,55,0,0,,7,,,55,127
71825,note_off,0,0,0,,7,,,67,127
71827,note_on,2,0,0,,5,,,65,127
71827,note_on,0,0,0,,5,,,53,127
71882,note_off,55,0,0,,5,,,53,127
71882,note_off,0,0,0,,5,,,65,127
71884,note_on,2,0,0,,7,,,67,127
71884,note_on,0,0,0,,7,,,55,127
71939,note_off,55,0,0,,7,,,55,127
71939,note_off,0,0,0,,7,,,67,127
71941,note_on,2,0,0,,5,,,65,127
71941,note_on,0,0,0,,5,,,53,127
71996,note_off,55,0,0,,5,,,53,127
71996,note_off,0,0,0,,5,,,65,127
71998,note_on,2,0,0,,4,,,64,127
71998,note_on,0,0,0,,4,,,52,127
72226,note_off,228,0,0,,4,,,52,127
72226,note_off,0,0,0,,4,,,64,127
72228,note_on,2,0,0,,0,,,36,127
72456,note_off,228,0,0,,0,,,36,127
72478,note_on,22,0,0,,4,,,52,127
72478,note_on,0,0,0,,4,,,64,127
72591,note_off,113,0,0,,4,,,64,127
72591,note_off,0,0,0,,4,,,52,127
72593,note_on,2,0,0,,0,,,48,127
72593,note_on,0,0,0,,0,,,60,127
72706,note_off,113,0,0,,0,,,60,127
72706,note_off,0,0,0,,0,,,48,127
72708,note_on,2,0,0,,10,,,57,127
72708,note_on,0,0,0,,10,,,69,127
72936,note_off,228,0,0,,10,,,69,127
72936,note_off,0,0,0,,10,,,57,127
72938,note_on,2,0,0,,7,,,55,127
72938,note_on,0,0,0,,7,,,67,127
73166,note_off,228,0,0,,7,,,67,127
73166,note_off,0,0,0,,7,,,55,127
73168,note_on,2,0,0,,7,,,55,127
73168,note_on,0,0,0,,7,,,67,127
73223,note_off,55,0,0,,7,,,67,127
73223,note_off,0,0,0,,7,,,55,127
73225,note_on,2,0,0,,5,,,53,127
73225,note_on,0,0,0,,5,,,65,127
73280,note_off,55,0,0,,5,,,65,127
73280,note_off,0,0,0,,5,,,53,127
73282,note_on,2,0,0,,7,,,55,127
73282,note_on,0,0,0,,7,,,67,127
73337,note_off,55,0,0,,7,,,67,127
73337,note_off,0,0,0,,7,,,55,127
73339,note_on,2,0,0,,5,,,53,127
73339,note_on,0,0,0,,5,,,65,127
73394,note_off,55,0,0,,5,,,65,127
73394,note_off,0,0,0,,5,,,53,127
73396,note_on,2,0,0,,4,,,52,127
73396,note_on,0,0,0,,4,,,64,127
73624,note_off,228,0,0,,4,,,64,127
73624,note_off,0,0,0,,4,,,52,127
73626,note_on,2,0,0,,0,,,36,127
73854,note_off,228,0,0,,0,,,36,127
73876,note_on,22,0,0,,4,,,76,127
73876,note_on,0,0,0,,0,,,60,127
73989,note_off,113,0,0,,4,,,76,127
73991,note_on,2,0,0,,0,,,72,127
74104,note_off,113,0,0,,0,,,72,127
74104,note_off,0,0,0,,0,,,60,127
74106,note_on,2,0,0,,10,,,81,127
74106,note_on,0,0,0,,5,,,65,127
74334,note_off,228,0,0,,5,,,65,127
74334,note_off,0,0,0,,10,,,81,127
74336,note_on,2,0,0,,7,,,79,127
74336,note_on,0,0,0,,4,,,64,127
74564,note_off,228,0,0,,4,,,64,127
74564,note_off,0,0,0,,7,,,79,127
74566,note_on,2,0,0,,5,,,77,127
74566,note_on,0,0,0,,2,,,62,127
74794,note_off,228,0,0,,2,,,62,127
74794,note_off,0,0,0,,5,,,77,127
74796,note_on,2,0,0,,4,,,76,127
74796,note_on,0,0,0,,0,,,60,127
75024,note_off,228,0,0,,0,,,60,127
75024,note_off,0,0,0,,4,,,76,127
75034,note_on,10,0,0,,0,,,36,127
75262,note_off,228,0,0,,0,,,36,127
75276,note_on,14,0,0,,0,,,60,127
75276,note_on,0,0,0,,4,,,76,127
75389,note_off,113,0,0,,4,,,76,127
75391,note_on,2,0,0,,0,,,72,127
75504,note_off,113,0,0,,0,,,72,127
75504,note_off,0,0,0,,0,,,60,127
75506,note_on,2,0,0,,5,,,65,127
75506,note_on,0,0,0,,10,,,81,127
75734,note_off,228,0,0,,10,,,81,127
75734,note_off,0,0,0,,5,,,65,127
75736,note_on,2,0,0,,4,,,64,127
75736,note_on,0,0,0,,7,,,79,127
75964,note_off,228,0,0,,7,,,79,127
75964,note_off,0,0,0,,4,,,64,127
75966,note_on,2,0,0,,2,,,62,127
75966,note_on,0,0,0,,5,,,77,127
76194,note_off,228,0,0,,5,,,77,127
76194,note_off,0,0,0,,2,,,62,127
76196,note_on,2,0,0,,0,,,60,127
76196,note_on,0,0,0,,4,,,76,127
76424,note_off,228,0,0,,4,,,76,127
76424,note_off,0,0,0,,0,,,60,127
76436,note_on,12,0,0,,5,,,53,127
76436,note_on,0,0,0,,5,,,65,127
76436,note_on,0,0,0,,7,,,79,127
76436,note_on,0,0,0,,5,,,77,127
76510,note_off,74,0,0,,5,,,77,127
76510,note_off,0,0,0,,7,,,79,127
76512,note_on,2,0,0,,4,,,76,127
76586,note_off,74,0,0,,4,,,76,127
76588,note_on,2,0,0,,2,,,74,127
76662,note_off,74,0,0,,2,,,74,127
76662,note_off,0,0,0,,5,,,65,127
76662,note_off,0,0,0,,5,,,53,127
76664,note_on,2,0,0,,7,,,55,127
76664,note_on,0,0,0,,4,,,64,127
76664,note_on,0,0,0,,0,,,72,127
76892,note_off,228,0,0,,0,,,72,127
76892,note_off,0,0,0,,4,,,64,127
76892,note_off,0,0,0,,7,,,55,127
76894,note_on,2,0,0,,7,,,55,127
76894,note_on,0,0,0,,2,,,62,127
76894,note_on,0,0,0,,0,,,72,127
76953,note_off,59,0,0,,0,,,72,127
76954,note_on,1,0,0,,12,,,71,127
77013,note_off,59,0,0,,12,,,71,127
77015,note_on,2,0,0,,10,,,69,127
77074,note_off,59,0,0,,10,,,69,127
77075,note_on,1,0,0,,12,,,71,127
77122,note_off,47,0,0,,2,,,62,127
77122,note_off,0,0,0,,7,,,55,127
77139,note_off,17,0,0,,12,,,71,127
77163,note_on,24,0,0,,0,,,60,127
77163,note_on,0,0,0,,0,,,72,127
77163,note_on,0,0,0,,0,,,84,127
77391,note_off,228,0,0,,0,,,84,127
77391,note_off,0,0,0,,0,,,72,127
77391,note_off,0,0,0,,0,,,60,127
77393,note_on,2,0,0,,4,,,52,127
77393,note_on,0,0,0,,7,,,79,127
77621,note_off,228,0,0,,7,,,79,127
77621,note_off,0,0,0,,4,,,52,127
77623,note_on,2,0,0,,5,,,53,127
77623,note_on,0,0,0,,10,,,81,127
77851,note_off,228,0,0,,10,,,81,127
77851,note_off,0,0,0,,5,,,53,127
77853,note_on,2,0,0,,5,,,53,127
77853,note_on,0,0,0,,7,,,79,127
77853,note_on,0,0,0,,5,,,77,127
77927,note_off,74,0,0,,5,,,77,127
77927,note_off,0,0,0,,7,,,79,127
77929,note_on,2,0,0,,4,,,76,127
78003,note_off,74,0,0,,4,,,76,127
78005,note_on,2,0,0,,2,,,74,127
78079,note_off,74,0,0,,2,,,74,127
78079,note_off,0,0,0,,5,,,53,127
78081,note_on,2,0,0,,7,,,55,127
78081,note_on,0,0,0,,0,,,72,127
78309,note_off,228,0,0,,0,,,72,127
78309,note_off,0,0,0,,7,,,55,127
78311,note_on,2,0,0,,5,,,53,127
78311,note_on,0,0,0,,12,,,71,127
78539,note_off,228,0,0,,12,,,71,127
78539,note_off,0,0,0,,5,,,53,127
78552,note_on,13,0,0,,0,,,72,127
78552,note_on,0,0,0,,4,,,52,127
78784,note_off,232,0,0,,4,,,52,127
78784,note_off,0,0,0,,0,,,72,127
78792,note_on,8,0,0,,7,,,67,127
78792,note_on,0,0,0,,4,,,40,127
79024,note_off,232,0,0,,4,,,40,127
79024,note_off,0,0,0,,7,,,67,127
79032,note_on,8,0,0,,10,,,69,127
79032,note_on,0,0,0,,5,,,41,127
79264,note_off,232,0,0,,5,,,41,127
79264,note_off,0,0,0,,10,,,69,127
79272,note_on,8,0,0,,5,,,65,127
79272,note_on,0,0,0,,7,,,67,127
79272,note_on,0,0,0,,5,,,41,127
79348,note_off,76,0,0,,7,,,67,127
79348,note_off,0,0,0,,5,,,65,127
79353,note_on,5,0,0,,4,,,64,127
79429,note_off,76,0,0,,4,,,64,127
79433,note_on,4,0,0,,2,,,62,127
79505,note_off,72,0,0,,5,,,41,127
79509,note_off,4,0,0,,2,,,62,127
79514,note_on,5,0,0,,0,,,60,127
79514,note_on,0,0,0,,7,,,43,127
79746,note_off,232,0,0,,7,,,43,127
79746,note_off,0,0,0,,0,,,60,127
79753,note_on,7,0,0,,12,,,59,127
79753,note_on,0,0,0,,7,,,43,127
79985,note_off,232,0,0,,7,,,43,127
79995,note_off,10,0,0,,12,,,59,127
80036,note_on,41,0,0,,0,,,36,127
80036,note_on,0,0,0,,0,,,60,127
82190,note_off,2154,0,0,,0,,,60,127
82190,note_off,0,0,0,,0,,,36,127
87552,end_of_track,5362,1,0,,,,,,
