tick,type,time,meta,track,program,channel,pitch,tempo,note,velocity
0,copyright,0,1,0,,,,,,
0,program_change,0,0,0,6,0,,,,
0,pitchwheel,0,0,0,,0,0,,,
0,program_change,0,0,0,6,1,,,,
0,pitchwheel,0,0,0,,1,-590,,,
0,program_change,0,0,0,6,2,,,,
0,pitchwheel,0,0,0,,2,-272,,,
0,program_change,0,0,0,6,3,,,,
0,pitchwheel,0,0,0,,3,-353,,,
0,program_change,0,0,0,6,4,,,,
0,pitchwheel,0,0,0,,4,-560,,,
0,program_change,0,0,0,6,5,,,,
0,pitchwheel,0,0,0,,5,-80,,,
0,program_change,0,0,0,6,6,,,,
0,pitchwheel,0,0,0,,6,-625,,,
0,program_change,0,0,0,6,7,,,,
0,pitchwheel,0,0,0,,7,-130,,,
0,program_change,0,0,0,6,8,,,,
0,pitchwheel,0,0,0,,8,-512,,,
0,program_change,0,0,0,6,10,,,,
0,pitchwheel,0,0,0,,10,-464,,,
0,program_change,0,0,0,6,11,,,,
0,pitchwheel,0,0,0,,11,-208,,,
0,program_change,0,0,0,6,12,,,,
0,pitchwheel,0,0,0,,12,-553,,,
0,set_tempo,0,1,0,,,,500000,,
33,note_on,33,0,0,,5,,,77,127
331,note_off,298,0,0,,5,,,77,127
333,note_on,2,0,0,,0,,,72,127
431,note_off,98,0,0,,0,,,72,127
433,note_on,2,0,0,,1,,,73,127
531,note_off,98,0,0,,1,,,73,127
533,note_on,2,0,0,,5,,,77,127
631,note_off,98,0,0,,5,,,77,127
633,note_on,2,0,0,,11,,,70,127
731,note_off,98,0,0,,11,,,70,127
733,note_on,2,0,0,,1,,,73,127
831,note_off,98,0,0,,1,,,73,127
833,note_on,2,0,0,,0,,,72,127
931,note_off,98,0,0,,0,,,72,127
933,note_on,2,0,0,,5,,,77,127
1031,note_off,98,0,0,,5,,,77,127
1033,note_on,2,0,0,,8,,,68,127
1131,note_off,98,0,0,,8,,,68,127
1133,note_on,2,0,0,,0,,,72,127
1231,note_off,98,0,0,,0,,,72,127
1233,note_on,2,0,0,,11,,,70,127
1331,note_off,98,0,0,,11,,,70,127
1333,note_on,2,0,0,,1,,,73,127
1431,note_off,98,0,0,,1,,,73,127
1433,note_on,2,0,0,,7,,,67,127
1531,note_off,98,0,0,,7,,,67,127
1533,note_on,2,0,0,,11,,,70,127
1631,note_off,98,0,0,,11,,,70,127
1633,note_on,2,0,0,,8,,,68,127
1731,note_off,98,0,0,,8,,,68,127
1733,note_on,2,0,0,,0,,,72,127
1831,note_off,98,0,0,,0,,,72,127
1833,note_on,2,0,0,,5,,,65,127
1931,note_off,98,0,0,,5,,,65,127
1933,note_on,2,0,0,,8,,,68,127
2031,note_off,98,0,0,,8,,,68,127
2033,note_on,2,0,0,,7,,,67,127
2131,note_off,98,0,0,,7,,,67,127
2133,note_on,2,0,0,,11,,,70,127
2231,note_off,98,0,0,,11,,,70,127
2233,note_on,2,0,0,,4,,,64,127
2331,note_off,98,0,0,,4,,,64,127
2333,note_on,2,0,0,,7,,,67,127
2431,note_off,98,0,0,,7,,,67,127
2433,note_on,2,0,0,,5,,,65,127
2633,note_on,200,0,0,,5,,,77,127
2731,note_off,98,0,0,,5,,,65,127
2733,note_on,2,0,0,,0,,,60,127
2831,note_off,98,0,0,,0,,,60,127
2833,note_on,2,0,0,,1,,,61,127
2931,note_off,98,0,0,,1,,,61,127
2933,note_on,2,0,0,,5,,,65,127
3031,note_off,98,0,0,,5,,,65,127
3031,note_off,0,0,0,,5,,,77,127
3033,note_on,2,0,0,,11,,,58,127
3033,note_on,0,0,0,,5,,,77,127
3131,note_off,98,0,0,,11,,,58,127
3133,note_on,2,0,0,,1,,,61,127
3231,note_off,98,0,0,,1,,,61,127
3233,note_on,2,0,0,,0,,,60,127
3331,note_off,98,0,0,,0,,,60,127
3333,note_on,2,0,0,,5,,,65,127
3431,note_off,98,0,0,,5,,,65,127
3431,note_off,0,0,0,,5,,,77,127
3433,note_on,2,0,0,,8,,,56,127
3433,note_on,0,0,0,,3,,,75,127
3531,note_off,98,0,0,,8,,,56,127
3533,note_on,2,0,0,,0,,,60,127
3631,note_off,98,0,0,,0,,,60,127
3633,note_on,2,0,0,,11,,,58,127
3731,note_off,98,0,0,,11,,,58,127
3733,note_on,2,0,0,,1,,,61,127
3831,note_off,98,0,0,,1,,,61,127
3831,note_off,0,0,0,,3,,,75,127
3833,note_on,2,0,0,,7,,,55,127
3833,note_on,0,0,0,,3,,,75,127
3881,note_off,48,0,0,,3,,,75,127
3883,note_on,2,0,0,,1,,,73,127
3931,note_off,48,0,0,,1,,,73,127
3931,note_off,0,0,0,,7,,,55,127
3933,note_on,2,0,0,,11,,,58,127
3933,note_on,0,0,0,,3,,,75,127
3981,note_off,48,0,0,,3,,,75,127
3983,note_on,2,0,0,,1,,,73,127
4031,note_off,48,0,0,,1,,,73,127
4031,note_off,0,0,0,,11,,,58,127
4033,note_on,2,0,0,,8,,,56,127
4033,note_on,0,0,0,,3,,,75,127
4081,note_off,48,0,0,,3,,,75,127
4083,note_on,2,0,0,,1,,,73,127
4131,note_off,48,0,0,,1,,,73,127
4131,note_off,0,0,0,,8,,,56,127
4133,note_on,2,0,0,,0,,,60,127
4133,note_on,0,0,0,,3,,,75,127
4181,note_off,48,0,0,,3,,,75,127
4183,note_on,2,0,0,,1,,,73,127
4231,note_off,48,0,0,,1,,,73,127
4231,note_off,0,0,0,,0,,,60,127
4233,note_on,2,0,0,,5,,,53,127
4233,note_on,0,0,0,,0,,,72,127
4331,note_off,98,0,0,,5,,,53,127
4333,note_on,2,0,0,,8,,,56,127
4431,note_off,98,0,0,,8,,,56,127
4433,note_on,2,0,0,,7,,,55,127
4531,note_off,98,0,0,,7,,,55,127
4533,note_on,2,0,0,,11,,,58,127
4587,note_off,54,0,0,,0,,,72,127
4631,note_off,44,0,0,,11,,,58,127
4633,note_on,2,0,0,,4,,,52,127
4633,note_on,0,0,0,,11,,,70,127
4731,note_off,98,0,0,,4,,,52,127
4733,note_on,2,0,0,,7,,,55,127
4831,note_off,98,0,0,,7,,,55,127
4833,note_on,2,0,0,,5,,,53,127
4931,note_off,98,0,0,,11,,,70,127
4933,note_on,2,0,0,,8,,,68,127
5031,note_off,98,0,0,,8,,,68,127
5031,note_off,0,0,0,,5,,,53,127
5033,note_on,2,0,0,,8,,,44,127
5033,note_on,0,0,0,,7,,,67,127
5131,note_off,98,0,0,,7,,,67,127
5133,note_on,2,0,0,,5,,,65,127
5231,note_off,98,0,0,,5,,,65,127
5231,note_off,0,0,0,,8,,,44,127
5233,note_on,2,0,0,,11,,,46,127
5233,note_on,0,0,0,,8,,,68,127
5331,note_off,98,0,0,,8,,,68,127
5333,note_on,2,0,0,,7,,,67,127
5431,note_off,98,0,0,,7,,,67,127
5431,note_off,0,0,0,,11,,,46,127
5433,note_on,2,0,0,,0,,,48,127
5433,note_on,0,0,0,,5,,,65,127
5531,note_off,98,0,0,,5,,,65,127
5533,note_on,2,0,0,,4,,,64,127
5631,note_off,98,0,0,,4,,,64,127
5631,note_off,0,0,0,,0,,,48,127
5633,note_on,2,0,0,,5,,,41,127
5633,note_on,0,0,0,,5,,,65,127
5731,note_off,98,0,0,,5,,,65,127
5733,note_on,2,0,0,,0,,,72,127
5831,note_off,98,0,0,,5,,,41,127
5833,note_on,2,0,0,,5,,,53,127
5833,note_on,0,0,0,,0,,,60,127
5931,note_off,98,0,0,,0,,,72,127
5933,note_on,2,0,0,,0,,,72,127
6031,note_off,98,0,0,,0,,,60,127
6031,note_off,0,0,0,,5,,,53,127
6033,note_on,2,0,0,,4,,,52,127
6033,note_on,0,0,0,,0,,,60,127
6131,note_off,98,0,0,,0,,,60,127
6131,note_off,0,0,0,,0,,,72,127
6133,note_on,2,0,0,,11,,,70,127
6231,note_off,98,0,0,,11,,,70,127
6231,note_off,0,0,0,,4,,,52,127
6233,note_on,2,0,0,,0,,,48,127
6233,note_on,0,0,0,,8,,,68,127
6331,note_off,98,0,0,,8,,,68,127
6333,note_on,2,0,0,,7,,,67,127
6431,note_off,98,0,0,,7,,,67,127
6431,note_off,0,0,0,,0,,,48,127
6433,note_on,2,0,0,,1,,,49,127
6433,note_on,0,0,0,,5,,,65,127
6531,note_off,98,0,0,,5,,,65,127
6533,note_on,2,0,0,,8,,,68,127
6631,note_off,98,0,0,,8,,,68,127
6631,note_off,0,0,0,,1,,,49,127
6633,note_on,2,0,0,,8,,,44,127
6633,note_on,0,0,0,,7,,,67,127
6731,note_off,98,0,0,,7,,,67,127
6733,note_on,2,0,0,,5,,,65,127
6831,note_off,98,0,0,,5,,,65,127
6831,note_off,0,0,0,,8,,,44,127
6833,note_on,2,0,0,,11,,,46,127
6833,note_on,0,0,0,,7,,,67,127
6931,note_off,98,0,0,,7,,,67,127
6933,note_on,2,0,0,,11,,,70,127
7031,note_off,98,0,0,,11,,,70,127
7031,note_off,0,0,0,,11,,,46,127
7033,note_on,2,0,0,,0,,,48,127
7033,note_on,0,0,0,,8,,,68,127
7131,note_off,98,0,0,,8,,,68,127
7133,note_on,2,0,0,,7,,,67,127
7231,note_off,98,0,0,,7,,,67,127
7231,note_off,0,0,0,,0,,,48,127
7233,note_on,2,0,0,,5,,,41,127
7233,note_on,0,0,0,,8,,,68,127
7331,note_off,98,0,0,,8,,,68,127
7333,note_on,2,0,0,,0,,,72,127
7431,note_off,98,0,0,,5,,,41,127
7433,note_on,2,0,0,,5,,,53,127
7433,note_on,0,0,0,,0,,,60,127
7531,note_off,98,0,0,,0,,,72,127
7533,note_on,2,0,0,,0,,,72,127
7631,note_off,98,0,0,,0,,,60,127
7631,note_off,0,0,0,,5,,,53,127
7633,note_on,2,0,0,,4,,,52,127
7633,note_on,0,0,0,,0,,,60,127
7731,note_off,98,0,0,,0,,,60,127
7731,note_off,0,0,0,,0,,,72,127
7733,note_on,2,0,0,,11,,,70,127
7831,note_off,98,0,0,,11,,,70,127
7831,note_off,0,0,0,,4,,,52,127
7833,note_on,2,0,0,,0,,,48,127
7833,note_on,0,0,0,,8,,,68,127
7931,note_off,98,0,0,,8,,,68,127
7933,note_on,2,0,0,,7,,,67,127
8031,note_off,98,0,0,,7,,,67,127
8031,note_off,0,0,0,,0,,,48,127
8033,note_on,2,0,0,,5,,,53,127
8033,note_on,0,0,0,,8,,,68,127
8131,note_off,98,0,0,,8,,,68,127
8133,note_on,2,0,0,,0,,,72,127
8231,note_off,98,0,0,,0,,,72,127
8231,note_off,0,0,0,,5,,,53,127
8233,note_on,2,0,0,,0,,,48,127
8233,note_on,0,0,0,,11,,,70,127
8331,note_off,98,0,0,,11,,,70,127
8333,note_on,2,0,0,,8,,,68,127
8431,note_off,98,0,0,,8,,,68,127
8431,note_off,0,0,0,,0,,,48,127
8433,note_on,2,0,0,,1,,,49,127
8433,note_on,0,0,0,,11,,,70,127
8531,note_off,98,0,0,,11,,,70,127
8533,note_on,2,0,0,,1,,,73,127
8631,note_off,98,0,0,,1,,,73,127
8631,note_off,0,0,0,,1,,,49,127
8633,note_on,2,0,0,,3,,,51,127
8633,note_on,0,0,0,,0,,,72,127
8731,note_off,98,0,0,,0,,,72,127
8733,note_on,2,0,0,,11,,,70,127
8831,note_off,98,0,0,,11,,,70,127
8831,note_off,0,0,0,,3,,,51,127
8833,note_on,2,0,0,,8,,,44,127
8833,note_on,0,0,0,,0,,,72,127
8931,note_off,98,0,0,,0,,,72,127
8933,note_on,2,0,0,,3,,,75,127
9031,note_off,98,0,0,,8,,,44,127
9033,note_on,2,0,0,,8,,,56,127
9033,note_on,0,0,0,,3,,,63,127
9131,note_off,98,0,0,,3,,,75,127
9133,note_on,2,0,0,,3,,,75,127
9231,note_off,98,0,0,,3,,,63,127
9231,note_off,0,0,0,,8,,,56,127
9233,note_on,2,0,0,,7,,,55,127
9233,note_on,0,0,0,,3,,,63,127
9331,note_off,98,0,0,,3,,,63,127
9331,note_off,0,0,0,,3,,,75,127
9333,note_on,2,0,0,,1,,,73,127
9431,note_off,98,0,0,,1,,,73,127
9431,note_off,0,0,0,,7,,,55,127
9433,note_on,2,0,0,,3,,,51,127
9433,note_on,0,0,0,,0,,,72,127
9531,note_off,98,0,0,,0,,,72,127
9533,note_on,2,0,0,,11,,,70,127
9631,note_off,98,0,0,,11,,,70,127
9631,note_off,0,0,0,,3,,,51,127
9633,note_on,2,0,0,,5,,,53,127
9633,note_on,0,0,0,,8,,,68,127
9731,note_off,98,0,0,,8,,,68,127
9733,note_on,2,0,0,,0,,,72,127
9831,note_off,98,0,0,,0,,,72,127
9831,note_off,0,0,0,,5,,,53,127
9833,note_on,2,0,0,,0,,,48,127
9833,note_on,0,0,0,,11,,,70,127
9931,note_off,98,0,0,,11,,,70,127
9933,note_on,2,0,0,,8,,,68,127
10031,note_off,98,0,0,,8,,,68,127
10031,note_off,0,0,0,,0,,,48,127
10033,note_on,2,0,0,,1,,,49,127
10033,note_on,0,0,0,,11,,,70,127
10131,note_off,98,0,0,,11,,,70,127
10133,note_on,2,0,0,,1,,,73,127
10231,note_off,98,0,0,,1,,,73,127
10231,note_off,0,0,0,,1,,,49,127
10233,note_on,2,0,0,,3,,,51,127
10233,note_on,0,0,0,,0,,,72,127
10331,note_off,98,0,0,,0,,,72,127
10333,note_on,2,0,0,,11,,,70,127
10431,note_off,98,0,0,,11,,,70,127
10431,note_off,0,0,0,,3,,,51,127
10433,note_on,2,0,0,,8,,,44,127
10433,note_on,0,0,0,,0,,,72,127
10531,note_off,98,0,0,,0,,,72,127
10533,note_on,2,0,0,,3,,,75,127
10631,note_off,98,0,0,,8,,,44,127
10633,note_on,2,0,0,,8,,,56,127
10633,note_on,0,0,0,,3,,,63,127
10731,note_off,98,0,0,,3,,,75,127
10733,note_on,2,0,0,,3,,,75,127
10831,note_off,98,0,0,,3,,,63,127
10833,note_on,2,0,0,,3,,,63,127
10931,note_off,98,0,0,,3,,,63,127
10931,note_off,0,0,0,,3,,,75,127
10933,note_on,2,0,0,,1,,,73,127
11031,note_off,98,0,0,,1,,,73,127
11031,note_off,0,0,0,,8,,,56,127
11033,note_on,2,0,0,,6,,,54,127
11033,note_on,0,0,0,,0,,,72,127
11131,note_off,98,0,0,,0,,,72,127
11133,note_on,2,0,0,,11,,,70,127
11231,note_off,98,0,0,,11,,,70,127
11231,note_off,0,0,0,,6,,,54,127
11233,note_on,2,0,0,,5,,,53,127
11233,note_on,0,0,0,,10,,,69,127
11331,note_off,98,0,0,,10,,,69,127
11333,note_on,2,0,0,,0,,,72,127
11431,note_off,98,0,0,,0,,,72,127
11431,note_off,0,0,0,,5,,,53,127
11433,note_on,2,0,0,,3,,,51,127
11433,note_on,0,0,0,,11,,,70,127
11531,note_off,98,0,0,,11,,,70,127
11533,note_on,2,0,0,,10,,,69,127
11631,note_off,98,0,0,,10,,,69,127
11631,note_off,0,0,0,,3,,,51,127
11633,note_on,2,0,0,,1,,,49,127
11633,note_on,0,0,0,,11,,,70,127
11731,note_off,98,0,0,,11,,,70,127
11733,note_on,2,0,0,,1,,,73,127
11831,note_off,98,0,0,,1,,,73,127
11831,note_off,0,0,0,,1,,,49,127
11833,note_on,2,0,0,,0,,,48,127
11833,note_on,0,0,0,,0,,,72,127
11931,note_off,98,0,0,,0,,,72,127
11933,note_on,2,0,0,,3,,,75,127
12031,note_off,98,0,0,,3,,,75,127
12031,note_off,0,0,0,,0,,,48,127
12033,note_on,2,0,0,,11,,,46,127
12033,note_on,0,0,0,,1,,,73,127
12131,note_off,98,0,0,,1,,,73,127
12133,note_on,2,0,0,,5,,,77,127
12231,note_off,98,0,0,,11,,,46,127
12233,note_on,2,0,0,,11,,,58,127
12233,note_on,0,0,0,,5,,,65,127
12331,note_off,98,0,0,,5,,,77,127
12333,note_on,2,0,0,,5,,,77,127
12431,note_off,98,0,0,,5,,,65,127
12433,note_on,2,0,0,,5,,,65,127
12531,note_off,98,0,0,,5,,,65,127
12531,note_off,0,0,0,,5,,,77,127
12533,note_on,2,0,0,,3,,,75,127
12631,note_off,98,0,0,,3,,,75,127
12631,note_off,0,0,0,,11,,,58,127
12633,note_on,2,0,0,,10,,,57,127
12633,note_on,0,0,0,,2,,,74,127
12731,note_off,98,0,0,,2,,,74,127
12733,note_on,2,0,0,,0,,,72,127
12831,note_off,98,0,0,,0,,,72,127
12831,note_off,0,0,0,,10,,,57,127
12833,note_on,2,0,0,,7,,,55,127
12833,note_on,0,0,0,,12,,,71,127
12931,note_off,98,0,0,,12,,,71,127
12933,note_on,2,0,0,,2,,,74,127
13031,note_off,98,0,0,,2,,,74,127
13031,note_off,0,0,0,,7,,,55,127
13033,note_on,2,0,0,,5,,,53,127
13033,note_on,0,0,0,,0,,,72,127
13131,note_off,98,0,0,,0,,,72,127
13133,note_on,2,0,0,,12,,,71,127
13231,note_off,98,0,0,,12,,,71,127
13231,note_off,0,0,0,,5,,,53,127
13233,note_on,2,0,0,,3,,,51,127
13233,note_on,0,0,0,,0,,,72,127
13331,note_off,98,0,0,,0,,,72,127
13333,note_on,2,0,0,,3,,,75,127
13431,note_off,98,0,0,,3,,,75,127
13431,note_off,0,0,0,,3,,,51,127
13433,note_on,2,0,0,,2,,,50,127
13433,note_on,0,0,0,,2,,,74,127
13531,note_off,98,0,0,,2,,,74,127
13533,note_on,2,0,0,,5,,,77,127
13631,note_off,98,0,0,,5,,,77,127
13631,note_off,0,0,0,,2,,,50,127
13633,note_on,2,0,0,,0,,,48,127
13633,note_on,0,0,0,,3,,,75,127
13731,note_off,98,0,0,,3,,,75,127
13733,note_on,2,0,0,,7,,,79,127
13831,note_off,98,0,0,,0,,,48,127
13833,note_on,2,0,0,,0,,,60,127
13833,note_on,0,0,0,,7,,,67,127
13931,note_off,98,0,0,,7,,,79,127
13933,note_on,2,0,0,,7,,,79,127
14031,note_off,98,0,0,,7,,,67,127
14031,note_off,0,0,0,,0,,,60,127
14033,note_on,2,0,0,,12,,,59,127
14033,note_on,0,0,0,,7,,,67,127
14131,note_off,98,0,0,,7,,,67,127
14131,note_off,0,0,0,,7,,,79,127
14133,note_on,2,0,0,,5,,,77,127
14231,note_off,98,0,0,,5,,,77,127
14231,note_off,0,0,0,,12,,,59,127
14233,note_on,2,0,0,,7,,,55,127
14233,note_on,0,0,0,,3,,,75,127
14331,note_off,98,0,0,,3,,,75,127
14333,note_on,2,0,0,,2,,,74,127
14431,note_off,98,0,0,,2,,,74,127
14431,note_off,0,0,0,,7,,,55,127
14433,note_on,2,0,0,,8,,,56,127
14433,note_on,0,0,0,,0,,,72,127
14531,note_off,98,0,0,,0,,,72,127
14533,note_on,2,0,0,,11,,,70,127
14631,note_off,98,0,0,,11,,,70,127
14631,note_off,0,0,0,,8,,,56,127
14633,note_on,2,0,0,,3,,,51,127
14633,note_on,0,0,0,,8,,,68,127
14731,note_off,98,0,0,,8,,,68,127
14733,note_on,2,0,0,,7,,,67,127
14831,note_off,98,0,0,,7,,,67,127
14831,note_off,0,0,0,,3,,,51,127
14833,note_on,2,0,0,,5,,,53,127
14833,note_on,0,0,0,,5,,,65,127
14931,note_off,98,0,0,,5,,,65,127
14933,note_on,2,0,0,,3,,,63,127
15031,note_off,98,0,0,,3,,,63,127
15031,note_off,0,0,0,,5,,,53,127
15033,note_on,2,0,0,,8,,,56,127
15033,note_on,0,0,0,,2,,,62,127
15131,note_off,98,0,0,,2,,,62,127
15133,note_on,2,0,0,,0,,,60,127
15231,note_off,98,0,0,,0,,,60,127
15231,note_off,0,0,0,,8,,,56,127
15233,note_on,2,0,0,,7,,,43,127
15233,note_on,0,0,0,,7,,,67,127
15331,note_off,98,0,0,,7,,,43,127
15333,note_on,2,0,0,,7,,,55,127
15431,note_off,98,0,0,,7,,,55,127
15433,note_on,2,0,0,,8,,,56,127
15531,note_off,98,0,0,,8,,,56,127
15533,note_on,2,0,0,,10,,,57,127
15631,note_off,98,0,0,,10,,,57,127
15633,note_on,2,0,0,,11,,,58,127
15731,note_off,98,0,0,,11,,,58,127
15733,note_on,2,0,0,,12,,,59,127
15831,note_off,98,0,0,,12,,,59,127
15833,note_on,2,0,0,,0,,,60,127
15931,note_off,98,0,0,,0,,,60,127
15933,note_on,2,0,0,,2,,,62,127
16031,note_off,98,0,0,,2,,,62,127
16033,note_on,2,0,0,,3,,,63,127
16131,note_off,98,0,0,,3,,,63,127
16133,note_on,2,0,0,,12,,,59,127
16231,note_off,98,0,0,,12,,,59,127
16233,note_on,2,0,0,,0,,,60,127
16331,note_off,98,0,0,,0,,,60,127
16333,note_on,2,0,0,,2,,,62,127
16431,note_off,98,0,0,,2,,,62,127
16433,note_on,2,0,0,,3,,,63,127
16531,note_off,98,0,0,,3,,,63,127
16533,note_on,2,0,0,,4,,,64,127
16631,note_off,98,0,0,,4,,,64,127
16633,note_on,2,0,0,,5,,,65,127
16731,note_off,98,0,0,,5,,,65,127
16733,note_on,2,0,0,,6,,,66,127
16827,note_off,94,0,0,,7,,,67,127
16831,note_off,4,0,0,,6,,,66,127
16833,note_on,2,0,0,,7,,,67,127
16931,note_off,98,0,0,,7,,,67,127
16933,note_on,2,0,0,,7,,,67,127
17031,note_off,98,0,0,,7,,,67,127
17033,note_on,2,0,0,,7,,,67,127
17033,note_on,0,0,0,,8,,,68,127
17131,note_off,98,0,0,,8,,,68,127
17133,note_on,2,0,0,,10,,,69,127
17231,note_off,98,0,0,,10,,,69,127
17233,note_on,2,0,0,,11,,,70,127
17331,note_off,98,0,0,,11,,,70,127
17333,note_on,2,0,0,,12,,,71,127
17431,note_off,98,0,0,,12,,,71,127
17431,note_off,0,0,0,,7,,,67,127
17433,note_on,2,0,0,,5,,,65,127
17433,note_on,0,0,0,,0,,,72,127
17531,note_off,98,0,0,,0,,,72,127
17533,note_on,2,0,0,,2,,,74,127
17631,note_off,98,0,0,,2,,,74,127
17631,note_off,0,0,0,,5,,,65,127
17633,note_on,2,0,0,,3,,,63,127
17633,note_on,0,0,0,,3,,,75,127
17731,note_off,98,0,0,,3,,,75,127
17733,note_on,2,0,0,,12,,,71,127
17831,note_off,98,0,0,,12,,,71,127
17831,note_off,0,0,0,,3,,,63,127
17833,note_on,2,0,0,,2,,,62,127
17833,note_on,0,0,0,,0,,,72,127
17931,note_off,98,0,0,,0,,,72,127
17933,note_on,2,0,0,,2,,,74,127
18031,note_off,98,0,0,,2,,,74,127
18031,note_off,0,0,0,,2,,,62,127
18033,note_on,2,0,0,,0,,,60,127
18033,note_on,0,0,0,,3,,,75,127
18131,note_off,98,0,0,,3,,,75,127
18133,note_on,2,0,0,,4,,,76,127
18231,note_off,98,0,0,,4,,,76,127
18231,note_off,0,0,0,,0,,,60,127
18233,note_on,2,0,0,,0,,,60,127
18233,note_on,0,0,0,,5,,,77,127
18331,note_off,98,0,0,,5,,,77,127
18333,note_on,2,0,0,,6,,,78,127
18431,note_off,98,0,0,,6,,,78,127
18431,note_off,0,0,0,,0,,,60,127
18433,note_on,2,0,0,,12,,,59,127
18433,note_on,0,0,0,,7,,,79,127
18531,note_off,98,0,0,,7,,,79,127
18533,note_on,2,0,0,,3,,,75,127
18631,note_off,98,0,0,,3,,,75,127
18631,note_off,0,0,0,,12,,,59,127
18633,note_on,2,0,0,,0,,,60,127
18633,note_on,0,0,0,,5,,,77,127
18731,note_off,98,0,0,,5,,,77,127
18733,note_on,2,0,0,,7,,,79,127
18831,note_off,98,0,0,,7,,,79,127
18831,note_off,0,0,0,,0,,,60,127
18833,note_on,2,0,0,,8,,,56,127
18833,note_on,0,0,0,,8,,,80,127
18931,note_off,98,0,0,,8,,,80,127
18933,note_on,2,0,0,,10,,,81,127
19031,note_off,98,0,0,,10,,,81,127
19031,note_off,0,0,0,,8,,,56,127
19033,note_on,2,0,0,,5,,,53,127
19033,note_on,0,0,0,,11,,,82,127
19131,note_off,98,0,0,,11,,,82,127
19133,note_on,2,0,0,,12,,,83,127
19231,note_off,98,0,0,,12,,,83,127
19231,note_off,0,0,0,,5,,,53,127
19233,note_on,2,0,0,,3,,,51,127
19233,note_on,0,0,0,,0,,,84,127
19331,note_off,98,0,0,,0,,,84,127
19333,note_on,2,0,0,,11,,,82,127
19431,note_off,98,0,0,,11,,,82,127
19431,note_off,0,0,0,,3,,,51,127
19433,note_on,2,0,0,,0,,,48,127
19433,note_on,0,0,0,,8,,,80,127
19531,note_off,98,0,0,,8,,,80,127
19533,note_on,2,0,0,,7,,,79,127
19631,note_off,98,0,0,,7,,,79,127
19631,note_off,0,0,0,,0,,,48,127
19633,note_on,2,0,0,,5,,,53,127
19633,note_on,0,0,0,,5,,,77,127
19731,note_off,98,0,0,,5,,,77,127
19733,note_on,2,0,0,,3,,,75,127
19831,note_off,98,0,0,,3,,,75,127
19831,note_off,0,0,0,,5,,,53,127
19833,note_on,2,0,0,,8,,,56,127
19833,note_on,0,0,0,,2,,,74,127
19931,note_off,98,0,0,,2,,,74,127
19933,note_on,2,0,0,,0,,,72,127
20031,note_off,98,0,0,,0,,,72,127
20031,note_off,0,0,0,,8,,,56,127
20033,note_on,2,0,0,,7,,,43,127
20033,note_on,0,0,0,,7,,,67,127
20131,note_off,98,0,0,,7,,,43,127
20133,note_on,2,0,0,,7,,,55,127
20231,note_off,98,0,0,,7,,,55,127
20233,note_on,2,0,0,,8,,,56,127
20331,note_off,98,0,0,,8,,,56,127
20333,note_on,2,0,0,,10,,,57,127
20431,note_off,98,0,0,,10,,,57,127
20433,note_on,2,0,0,,11,,,58,127
20531,note_off,98,0,0,,11,,,58,127
20533,note_on,2,0,0,,12,,,59,127
20631,note_off,98,0,0,,12,,,59,127
20633,note_on,2,0,0,,0,,,60,127
20731,note_off,98,0,0,,0,,,60,127
20733,note_on,2,0,0,,2,,,62,127
20831,note_off,98,0,0,,2,,,62,127
20833,note_on,2,0,0,,3,,,63,127
20931,note_off,98,0,0,,3,,,63,127
20933,note_on,2,0,0,,12,,,59,127
21031,note_off,98,0,0,,12,,,59,127
21033,note_on,2,0,0,,0,,,60,127
21131,note_off,98,0,0,,0,,,60,127
21133,note_on,2,0,0,,2,,,62,127
21231,note_off,98,0,0,,2,,,62,127
21233,note_on,2,0,0,,3,,,63,127
21331,note_off,98,0,0,,3,,,63,127
21333,note_on,2,0,0,,4,,,64,127
21431,note_off,98,0,0,,4,,,64,127
21433,note_on,2,0,0,,5,,,65,127
21531,note_off,98,0,0,,5,,,65,127
21533,note_on,2,0,0,,6,,,66,127
21627,note_off,94,0,0,,7,,,67,127
21631,note_off,4,0,0,,6,,,66,127
21633,note_on,2,0,0,,7,,,67,127
21732,note_off,99,0,0,,7,,,67,127
21733,note_on,1,0,0,,7,,,67,127
21831,note_off,98,0,0,,7,,,67,127
21833,note_on,2,0,0,,7,,,67,127
21833,note_on,0,0,0,,8,,,68,127
21931,note_off,98,0,0,,8,,,68,127
21933,note_on,2,0,0,,10,,,69,127
22031,note_off,98,0,0,,10,,,69,127
22033,note_on,2,0,0,,11,,,70,127
22131,note_off,98,0,0,,11,,,70,127
22133,note_on,2,0,0,,12,,,71,127
22231,note_off,98,0,0,,12,,,71,127
22231,note_off,0,0,0,,7,,,67,127
22233,note_on,2,0,0,,5,,,65,127
22233,note_on,0,0,0,,0,,,72,127
22331,note_off,98,0,0,,0,,,72,127
22333,note_on,2,0,0,,2,,,74,127
22431,note_off,98,0,0,,2,,,74,127
22431,note_off,0,0,0,,5,,,65,127
22433,note_on,2,0,0,,3,,,63,127
22433,note_on,0,0,0,,3,,,75,127
22531,note_off,98,0,0,,3,,,75,127
22533,note_on,2,0,0,,12,,,71,127
22631,note_off,98,0,0,,12,,,71,127
22631,note_off,0,0,0,,3,,,63,127
22633,note_on,2,0,0,,2,,,62,127
22633,note_on,0,0,0,,0,,,72,127
22731,note_off,98,0,0,,0,,,72,127
22733,note_on,2,0,0,,2,,,74,127
22831,note_off,98,0,0,,2,,,74,127
22831,note_off,0,0,0,,2,,,62,127
22833,note_on,2,0,0,,0,,,60,127
22833,note_on,0,0,0,,3,,,75,127
22931,note_off,98,0,0,,3,,,75,127
22933,note_on,2,0,0,,4,,,76,127
23031,note_off,98,0,0,,4,,,76,127
23031,note_off,0,0,0,,0,,,60,127
23033,note_on,2,0,0,,0,,,60,127
23033,note_on,0,0,0,,5,,,77,127
23131,note_off,98,0,0,,5,,,77,127
23133,note_on,2,0,0,,6,,,78,127
23231,note_off,98,0,0,,6,,,78,127
23231,note_off,0,0,0,,0,,,60,127
23233,note_on,2,0,0,,12,,,59,127
23233,note_on,0,0,0,,7,,,79,127
23331,note_off,98,0,0,,7,,,79,127
23333,note_on,2,0,0,,3,,,75,127
23431,note_off,98,0,0,,3,,,75,127
23431,note_off,0,0,0,,12,,,59,127
23433,note_on,2,0,0,,0,,,60,127
23433,note_on,0,0,0,,5,,,77,127
23531,note_off,98,0,0,,5,,,77,127
23533,note_on,2,0,0,,7,,,79,127
23631,note_off,98,0,0,,7,,,79,127
23631,note_off,0,0,0,,0,,,60,127
23633,note_on,2,0,0,,8,,,56,127
23633,note_on,0,0,0,,8,,,80,127
23731,note_off,98,0,0,,8,,,80,127
23733,note_on,2,0,0,,10,,,81,127
23831,note_off,98,0,0,,10,,,81,127
23831,note_off,0,0,0,,8,,,56,127
23833,note_on,2,0,0,,5,,,53,127
23833,note_on,0,0,0,,11,,,82,127
23931,note_off,98,0,0,,11,,,82,127
23933,note_on,2,0,0,,12,,,83,127
24031,note_off,98,0,0,,12,,,83,127
24031,note_off,0,0,0,,5,,,53,127
24033,note_on,2,0,0,,3,,,51,127
24033,note_on,0,0,0,,0,,,84,127
24131,note_off,98,0,0,,0,,,84,127
24133,note_on,2,0,0,,7,,,79,127
24231,note_off,98,0,0,,7,,,79,127
24231,note_off,0,0,0,,3,,,51,127
24233,note_on,2,0,0,,5,,,53,127
24233,note_on,0,0,0,,8,,,80,127
24331,note_off,98,0,0,,8,,,80,127
24333,note_on,2,0,0,,2,,,74,127
24431,note_off,98,0,0,,2,,,74,127
24431,note_off,0,0,0,,5,,,53,127
24433,note_on,2,0,0,,7,,,55,127
24433,note_on,0,0,0,,3,,,75,127
24531,note_off,98,0,0,,3,,,75,127
24533,note_on,2,0,0,,0,,,72,127
24631,note_off,98,0,0,,0,,,72,127
24633,note_on,2,0,0,,7,,,43,127
24633,note_on,0,0,0,,2,,,74,127
24731,note_off,98,0,0,,2,,,74,127
24733,note_on,2,0,0,,12,,,71,127
24829,note_off,96,0,0,,7,,,55,127
24831,note_off,2,0,0,,12,,,71,127
24831,note_off,0,0,0,,7,,,43,127
24833,note_on,2,0,0,,0,,,48,127
24833,note_on,0,0,0,,0,,,72,127
24931,note_off,98,0,0,,0,,,48,127
24933,note_on,2,0,0,,0,,,60,127
25031,note_off,98,0,0,,0,,,60,127
25033,note_on,2,0,0,,8,,,56,127
25131,note_off,98,0,0,,8,,,56,127
25133,note_on,2,0,0,,5,,,53,127
25229,note_off,96,0,0,,0,,,72,127
25231,note_off,2,0,0,,5,,,53,127
25233,note_on,2,0,0,,12,,,47,127
25333,note_on,100,0,0,,2,,,74,127
25431,note_off,98,0,0,,2,,,74,127
25433,note_on,2,0,0,,7,,,67,127
25531,note_off,98,0,0,,7,,,67,127
25533,note_on,2,0,0,,5,,,77,127
25631,note_off,98,0,0,,5,,,77,127
25631,note_off,0,0,0,,12,,,47,127
25633,note_on,2,0,0,,0,,,48,127
25633,note_on,0,0,0,,5,,,77,127
25731,note_off,98,0,0,,0,,,48,127
25733,note_on,2,0,0,,0,,,60,127
25831,note_off,98,0,0,,0,,,60,127
25831,note_off,0,0,0,,5,,,77,127
25833,note_on,2,0,0,,8,,,56,127
25833,note_on,0,0,0,,3,,,75,127
25931,note_off,98,0,0,,8,,,56,127
25933,note_on,2,0,0,,5,,,53,127
26031,note_off,98,0,0,,5,,,53,127
26031,note_off,0,0,0,,3,,,75,127
26033,note_on,2,0,0,,12,,,47,127
26133,note_on,100,0,0,,2,,,74,127
26231,note_off,98,0,0,,2,,,74,127
26233,note_on,2,0,0,,7,,,67,127
26331,note_off,98,0,0,,7,,,67,127
26333,note_on,2,0,0,,5,,,77,127
26431,note_off,98,0,0,,5,,,77,127
26431,note_off,0,0,0,,12,,,47,127
26433,note_on,2,0,0,,0,,,48,127
26433,note_on,0,0,0,,5,,,77,127
26531,note_off,98,0,0,,0,,,48,127
26533,note_on,2,0,0,,0,,,60,127
26631,note_off,98,0,0,,0,,,60,127
26631,note_off,0,0,0,,5,,,77,127
26633,note_on,2,0,0,,8,,,56,127
26633,note_on,0,0,0,,3,,,75,127
26731,note_off,98,0,0,,8,,,56,127
26733,note_on,2,0,0,,5,,,53,127
26831,note_off,98,0,0,,5,,,53,127
26831,note_off,0,0,0,,3,,,75,127
26833,note_on,2,0,0,,12,,,47,127
26933,note_on,100,0,0,,2,,,74,127
27031,note_off,98,0,0,,2,,,74,127
27033,note_on,2,0,0,,7,,,67,127
27131,note_off,98,0,0,,7,,,67,127
27133,note_on,2,0,0,,5,,,77,127
27231,note_off,98,0,0,,5,,,77,127
27231,note_off,0,0,0,,12,,,47,127
27233,note_on,2,0,0,,0,,,48,127
27233,note_on,0,0,0,,5,,,77,127
27331,note_off,98,0,0,,5,,,77,127
27333,note_on,2,0,0,,3,,,75,127
27431,note_off,98,0,0,,3,,,75,127
27431,note_off,0,0,0,,0,,,48,127
27433,note_on,2,0,0,,5,,,53,127
27433,note_on,0,0,0,,2,,,74,127
27531,note_off,98,0,0,,2,,,74,127
27533,note_on,2,0,0,,0,,,72,127
27631,note_off,98,0,0,,0,,,72,127
27631,note_off,0,0,0,,5,,,53,127
27633,note_on,2,0,0,,7,,,55,127
27633,note_on,0,0,0,,12,,,71,127
27831,note_off,198,0,0,,12,,,71,127
27831,note_off,0,0,0,,7,,,55,127
27833,note_on,2,0,0,,8,,,56,127
27833,note_on,0,0,0,,2,,,74,127
27881,note_off,48,0,0,,2,,,74,127
27883,note_on,2,0,0,,0,,,72,127
27931,note_off,48,0,0,,0,,,72,127
27933,note_on,2,0,0,,12,,,71,127
27981,note_off,48,0,0,,12,,,71,127
27983,note_on,2,0,0,,0,,,72,127
28031,note_off,48,0,0,,0,,,72,127
28031,note_off,0,0,0,,8,,,56,127
28033,note_on,2,0,0,,7,,,43,127
28033,note_on,0,0,0,,2,,,74,127
28131,note_off,98,0,0,,7,,,43,127
28133,note_on,2,0,0,,7,,,55,127
28231,note_off,98,0,0,,7,,,55,127
28233,note_on,2,0,0,,2,,,50,127
28331,note_off,98,0,0,,2,,,50,127
28333,note_on,2,0,0,,7,,,43,127
28431,note_off,98,0,0,,7,,,43,127
28431,note_off,0,0,0,,2,,,74,127
28433,note_on,2,0,0,,8,,,44,127
28433,note_on,0,0,0,,5,,,65,127
28531,note_off,98,0,0,,5,,,65,127
28533,note_on,2,0,0,,3,,,75,127
28631,note_off,98,0,0,,3,,,75,127
28633,note_on,2,0,0,,2,,,74,127
28731,note_off,98,0,0,,2,,,74,127
28733,note_on,2,0,0,,0,,,72,127
28831,note_off,98,0,0,,0,,,72,127
28831,note_off,0,0,0,,8,,,44,127
28833,note_on,2,0,0,,7,,,43,127
28833,note_on,0,0,0,,0,,,72,127
28931,note_off,98,0,0,,7,,,43,127
28933,note_on,2,0,0,,7,,,55,127
29031,note_off,98,0,0,,7,,,55,127
29031,note_off,0,0,0,,0,,,72,127
29033,note_on,2,0,0,,2,,,50,127
29033,note_on,0,0,0,,2,,,74,127
29131,note_off,98,0,0,,2,,,50,127
29133,note_on,2,0,0,,7,,,43,127
29231,note_off,98,0,0,,7,,,43,127
29231,note_off,0,0,0,,2,,,74,127
29233,note_on,2,0,0,,8,,,44,127
29233,note_on,0,0,0,,5,,,65,127
29331,note_off,98,0,0,,5,,,65,127
29333,note_on,2,0,0,,3,,,75,127
29431,note_off,98,0,0,,3,,,75,127
29433,note_on,2,0,0,,2,,,74,127
29531,note_off,98,0,0,,2,,,74,127
29533,note_on,2,0,0,,0,,,72,127
29631,note_off,98,0,0,,0,,,72,127
29631,note_off,0,0,0,,8,,,44,127
29633,note_on,2,0,0,,7,,,43,127
29633,note_on,0,0,0,,0,,,72,127
29731,note_off,98,0,0,,7,,,43,127
29733,note_on,2,0,0,,7,,,55,127
29831,note_off,98,0,0,,7,,,55,127
29831,note_off,0,0,0,,0,,,72,127
29833,note_on,2,0,0,,2,,,50,127
29833,note_on,0,0,0,,2,,,74,127
29931,note_off,98,0,0,,2,,,50,127
29933,note_on,2,0,0,,7,,,43,127
30031,note_off,98,0,0,,7,,,43,127
30031,note_off,0,0,0,,2,,,74,127
30033,note_on,2,0,0,,8,,,44,127
30033,note_on,0,0,0,,5,,,65,127
30131,note_off,98,0,0,,5,,,65,127
30133,note_on,2,0,0,,3,,,75,127
30231,note_off,98,0,0,,3,,,75,127
30233,note_on,2,0,0,,2,,,74,127
30331,note_off,98,0,0,,2,,,74,127
30333,note_on,2,0,0,,0,,,72,127
30431,note_off,98,0,0,,0,,,72,127
30431,note_off,0,0,0,,8,,,44,127
30433,note_on,2,0,0,,12,,,47,127
30433,note_on,0,0,0,,2,,,74,127
30531,note_off,98,0,0,,2,,,74,127
30533,note_on,2,0,0,,5,,,77,127
30631,note_off,98,0,0,,5,,,77,127
30631,note_off,0,0,0,,12,,,47,127
30633,note_on,2,0,0,,0,,,48,127
30633,note_on,0,0,0,,3,,,75,127
30731,note_off,98,0,0,,3,,,75,127
30733,note_on,2,0,0,,2,,,74,127
30831,note_off,98,0,0,,2,,,74,127
30831,note_off,0,0,0,,0,,,48,127
30833,note_on,2,0,0,,7,,,55,127
30833,note_on,0,0,0,,3,,,75,127
30931,note_off,98,0,0,,3,,,75,127
30933,note_on,2,0,0,,0,,,72,127
31031,note_off,98,0,0,,0,,,72,127
31031,note_off,0,0,0,,7,,,55,127
31033,note_on,2,0,0,,7,,,43,127
31033,note_on,0,0,0,,2,,,74,127
31131,note_off,98,0,0,,2,,,74,127
31133,note_on,2,0,0,,12,,,71,127
31231,note_off,98,0,0,,12,,,71,127
31231,note_off,0,0,0,,7,,,43,127
31233,note_on,2,0,0,,0,,,48,127
31233,note_on,0,0,0,,0,,,72,127
31331,note_off,98,0,0,,0,,,72,127
31333,note_on,2,0,0,,0,,,84,127
31431,note_off,98,0,0,,0,,,48,127
31433,note_on,2,0,0,,3,,,63,127
31531,note_off,98,0,0,,0,,,84,127
31533,note_on,2,0,0,,7,,,79,127
31631,note_off,98,0,0,,7,,,79,127
31631,note_off,0,0,0,,3,,,63,127
31633,note_on,2,0,0,,5,,,65,127
31633,note_on,0,0,0,,8,,,80,127
31731,note_off,98,0,0,,8,,,80,127
31733,note_on,2,0,0,,0,,,84,127
31831,note_off,98,0,0,,0,,,84,127
31831,note_off,0,0,0,,5,,,65,127
31833,note_on,2,0,0,,2,,,62,127
31833,note_on,0,0,0,,5,,,77,127
31931,note_off,98,0,0,,5,,,77,127
31933,note_on,2,0,0,,8,,,80,127
32031,note_off,98,0,0,,8,,,80,127
32031,note_off,0,0,0,,2,,,62,127
32033,note_on,2,0,0,,3,,,63,127
32033,note_on,0,0,0,,7,,,79,127
32131,note_off,98,0,0,,7,,,79,127
32133,note_on,2,0,0,,0,,,84,127
32231,note_off,98,0,0,,0,,,84,127
32231,note_off,0,0,0,,3,,,63,127
32233,note_on,2,0,0,,0,,,60,127
32233,note_on,0,0,0,,3,,,75,127
32331,note_off,98,0,0,,3,,,75,127
32333,note_on,2,0,0,,7,,,79,127
32431,note_off,98,0,0,,7,,,79,127
32431,note_off,0,0,0,,0,,,60,127
32433,note_on,2,0,0,,2,,,62,127
32433,note_on,0,0,0,,5,,,77,127
32531,note_off,98,0,0,,5,,,77,127
32533,note_on,2,0,0,,8,,,80,127
32631,note_off,98,0,0,,8,,,80,127
32631,note_off,0,0,0,,2,,,62,127
32633,note_on,2,0,0,,12,,,59,127
32633,note_on,0,0,0,,2,,,74,127
32731,note_off,98,0,0,,2,,,74,127
32733,note_on,2,0,0,,5,,,77,127
32831,note_off,98,0,0,,5,,,77,127
32831,note_off,0,0,0,,12,,,59,127
32833,note_on,2,0,0,,0,,,60,127
32833,note_on,0,0,0,,3,,,75,127
32931,note_off,98,0,0,,3,,,75,127
32933,note_on,2,0,0,,7,,,79,127
33031,note_off,98,0,0,,7,,,79,127
33031,note_off,0,0,0,,0,,,60,127
33033,note_on,2,0,0,,3,,,51,127
33033,note_on,0,0,0,,0,,,72,127
33131,note_off,98,0,0,,0,,,72,127
33133,note_on,2,0,0,,3,,,75,127
33231,note_off,98,0,0,,3,,,75,127
33231,note_off,0,0,0,,3,,,51,127
33233,note_on,2,0,0,,8,,,56,127
33233,note_on,0,0,0,,2,,,74,127
33331,note_off,98,0,0,,2,,,74,127
33333,note_on,2,0,0,,5,,,77,127
33431,note_off,98,0,0,,5,,,77,127
33431,note_off,0,0,0,,8,,,56,127
33433,note_on,2,0,0,,2,,,50,127
33433,note_on,0,0,0,,12,,,71,127
33531,note_off,98,0,0,,12,,,71,127
33533,note_on,2,0,0,,2,,,74,127
33631,note_off,98,0,0,,2,,,74,127
33631,note_off,0,0,0,,2,,,50,127
33633,note_on,2,0,0,,3,,,51,127
33633,note_on,0,0,0,,0,,,72,127
33731,note_off,98,0,0,,0,,,72,127
33733,note_on,2,0,0,,7,,,67,127
33831,note_off,98,0,0,,7,,,67,127
33831,note_off,0,0,0,,3,,,51,127
33833,note_on,2,0,0,,5,,,53,127
33833,note_on,0,0,0,,8,,,68,127
33931,note_off,98,0,0,,8,,,68,127
33933,note_on,2,0,0,,5,,,65,127
34031,note_off,98,0,0,,5,,,65,127
34031,note_off,0,0,0,,5,,,53,127
34033,note_on,2,0,0,,7,,,55,127
34033,note_on,0,0,0,,3,,,63,127
34131,note_off,98,0,0,,3,,,63,127
34133,note_on,2,0,0,,0,,,72,127
34231,note_off,98,0,0,,0,,,72,127
34231,note_off,0,0,0,,7,,,55,127
34233,note_on,2,0,0,,7,,,43,127
34233,note_on,0,0,0,,2,,,62,127
34331,note_off,98,0,0,,2,,,62,127
34333,note_on,2,0,0,,12,,,71,127
34431,note_off,98,0,0,,12,,,71,127
34431,note_off,0,0,0,,7,,,43,127
34433,note_on,2,0,0,,0,,,36,127
34433,note_on,0,0,0,,0,,,72,127
35033,note_off,600,0,0,,0,,,72,127
35232,note_off,199,0,0,,0,,,36,127
35234,note_on,2,0,0,,0,,,36,127
35334,note_on,100,0,0,,0,,,72,127
35432,note_off,98,0,0,,0,,,72,127
35434,note_on,2,0,0,,1,,,73,127
35532,note_off,98,0,0,,1,,,73,127
35534,note_on,2,0,0,,2,,,74,127
35632,note_off,98,0,0,,2,,,74,127
35634,note_on,2,0,0,,3,,,75,127
35732,note_off,98,0,0,,3,,,75,127
35734,note_on,2,0,0,,4,,,76,127
35832,note_off,98,0,0,,4,,,76,127
35834,note_on,2,0,0,,5,,,77,127
35932,note_off,98,0,0,,5,,,77,127
35934,note_on,2,0,0,,7,,,79,127
36032,note_off,98,0,0,,7,,,79,127
36033,note_off,1,0,0,,0,,,36,127
36034,note_on,1,0,0,,8,,,80,127
36134,note_on,100,0,0,,0,,,60,127
36232,note_off,98,0,0,,0,,,60,127
36234,note_on,2,0,0,,1,,,61,127
36332,note_off,98,0,0,,1,,,61,127
36334,note_on,2,0,0,,2,,,62,127
36432,note_off,98,0,0,,2,,,62,127
36434,note_on,2,0,0,,3,,,63,127
36532,note_off,98,0,0,,3,,,63,127
36534,note_on,2,0,0,,4,,,64,127
36632,note_off,98,0,0,,4,,,64,127
36634,note_on,2,0,0,,5,,,65,127
36732,note_off,98,0,0,,5,,,65,127
36734,note_on,2,0,0,,7,,,67,127
36832,note_off,98,0,0,,7,,,67,127
36834,note_on,2,0,0,,8,,,68,127
36932,note_off,98,0,0,,8,,,80,127
36934,note_on,2,0,0,,7,,,79,127
37032,note_off,98,0,0,,7,,,79,127
37032,note_off,0,0,0,,8,,,68,127
37034,note_on,2,0,0,,8,,,68,127
37034,note_on,0,0,0,,5,,,77,127
37132,note_off,98,0,0,,5,,,77,127
37134,note_on,2,0,0,,3,,,75,127
37232,note_off,98,0,0,,3,,,75,127
37232,note_off,0,0,0,,8,,,68,127
37234,note_on,2,0,0,,11,,,70,127
37234,note_on,0,0,0,,3,,,75,127
37234,note_on,0,0,0,,1,,,73,127
37332,note_off,98,0,0,,1,,,73,127
37332,note_off,0,0,0,,3,,,75,127
37334,note_on,2,0,0,,0,,,72,127
37432,note_off,98,0,0,,0,,,72,127
37432,note_off,0,0,0,,11,,,70,127
37434,note_on,2,0,0,,7,,,67,127
37434,note_on,0,0,0,,1,,,73,127
37532,note_off,98,0,0,,1,,,73,127
37534,note_on,2,0,0,,3,,,75,127
37632,note_off,98,0,0,,3,,,75,127
37632,note_off,0,0,0,,7,,,67,127
37634,note_on,2,0,0,,8,,,68,127
37634,note_on,0,0,0,,0,,,72,127
37732,note_off,98,0,0,,0,,,72,127
37734,note_on,2,0,0,,8,,,80,127
37832,note_off,98,0,0,,8,,,80,127
37832,note_off,0,0,0,,8,,,68,127
37834,note_on,2,0,0,,8,,,68,127
37834,note_on,0,0,0,,0,,,72,127
37932,note_off,98,0,0,,0,,,72,127
37934,note_on,2,0,0,,3,,,75,127
38032,note_off,98,0,0,,3,,,75,127
38032,note_off,0,0,0,,8,,,68,127
38034,note_on,2,0,0,,11,,,70,127
38034,note_on,0,0,0,,3,,,75,127
38034,note_on,0,0,0,,1,,,73,127
38132,note_off,98,0,0,,1,,,73,127
38132,note_off,0,0,0,,3,,,75,127
38134,note_on,2,0,0,,0,,,72,127
38232,note_off,98,0,0,,0,,,72,127
38232,note_off,0,0,0,,11,,,70,127
38234,note_on,2,0,0,,7,,,67,127
38234,note_on,0,0,0,,1,,,73,127
38332,note_off,98,0,0,,1,,,73,127
38334,note_on,2,0,0,,3,,,75,127
38432,note_off,98,0,0,,3,,,75,127
38432,note_off,0,0,0,,7,,,67,127
38434,note_on,2,0,0,,8,,,68,127
38434,note_on,0,0,0,,0,,,72,127
38532,note_off,98,0,0,,0,,,72,127
38534,note_on,2,0,0,,8,,,80,127
38632,note_off,98,0,0,,8,,,80,127
38632,note_off,0,0,0,,8,,,68,127
38634,note_on,2,0,0,,0,,,60,127
38634,note_on,0,0,0,,3,,,75,127
38732,note_off,98,0,0,,3,,,75,127
38734,note_on,2,0,0,,7,,,79,127
38832,note_off,98,0,0,,7,,,79,127
38832,note_off,0,0,0,,0,,,60,127
38834,note_on,2,0,0,,1,,,61,127
38834,note_on,0,0,0,,5,,,77,127
38932,note_off,98,0,0,,5,,,77,127
38934,note_on,2,0,0,,8,,,80,127
39032,note_off,98,0,0,,8,,,80,127
39032,note_off,0,0,0,,1,,,61,127
39034,note_on,2,0,0,,11,,,58,127
39034,note_on,0,0,0,,1,,,73,127
39132,note_off,98,0,0,,1,,,73,127
39134,note_on,2,0,0,,5,,,77,127
39232,note_off,98,0,0,,5,,,77,127
39232,note_off,0,0,0,,11,,,58,127
39234,note_on,2,0,0,,0,,,60,127
39234,note_on,0,0,0,,3,,,75,127
39332,note_off,98,0,0,,3,,,75,127
39334,note_on,2,0,0,,8,,,80,127
39432,note_off,98,0,0,,8,,,80,127
39432,note_off,0,0,0,,0,,,60,127
39434,note_on,2,0,0,,8,,,56,127
39434,note_on,0,0,0,,0,,,72,127
39532,note_off,98,0,0,,0,,,72,127
39534,note_on,2,0,0,,3,,,75,127
39632,note_off,98,0,0,,3,,,75,127
39632,note_off,0,0,0,,8,,,56,127
39634,note_on,2,0,0,,11,,,58,127
39634,note_on,0,0,0,,1,,,73,127
39732,note_off,98,0,0,,1,,,73,127
39734,note_on,2,0,0,,5,,,77,127
39832,note_off,98,0,0,,5,,,77,127
39832,note_off,0,0,0,,11,,,58,127
39834,note_on,2,0,0,,7,,,55,127
39834,note_on,0,0,0,,11,,,70,127
39932,note_off,98,0,0,,11,,,70,127
39934,note_on,2,0,0,,1,,,73,127
40032,note_off,98,0,0,,1,,,73,127
40032,note_off,0,0,0,,7,,,55,127
40034,note_on,2,0,0,,8,,,56,127
40034,note_on,0,0,0,,0,,,72,127
40132,note_off,98,0,0,,0,,,72,127
40132,note_off,0,0,0,,8,,,56,127
40134,note_on,2,0,0,,0,,,72,127
40232,note_off,98,0,0,,0,,,72,127
40234,note_on,2,0,0,,5,,,65,127
40234,note_on,0,0,0,,5,,,77,127
40332,note_off,98,0,0,,5,,,65,127
40334,note_on,2,0,0,,8,,,68,127
40432,note_off,98,0,0,,8,,,68,127
40434,note_on,2,0,0,,1,,,61,127
40532,note_off,98,0,0,,1,,,61,127
40534,note_on,2,0,0,,5,,,65,127
40632,note_off,98,0,0,,5,,,65,127
40632,note_off,0,0,0,,5,,,77,127
40634,note_on,2,0,0,,3,,,63,127
40634,note_on,0,0,0,,7,,,79,127
40732,note_off,98,0,0,,3,,,63,127
40734,note_on,2,0,0,,7,,,67,127
40832,note_off,98,0,0,,7,,,67,127
40832,note_off,0,0,0,,7,,,79,127
40834,note_on,2,0,0,,0,,,60,127
40834,note_on,0,0,0,,8,,,80,127
40932,note_off,98,0,0,,0,,,60,127
40934,note_on,2,0,0,,3,,,63,127
41032,note_off,98,0,0,,3,,,63,127
41032,note_off,0,0,0,,8,,,80,127
41034,note_on,2,0,0,,1,,,61,127
41034,note_on,0,0,0,,5,,,77,127
41132,note_off,98,0,0,,1,,,61,127
41134,note_on,2,0,0,,5,,,65,127
41232,note_off,98,0,0,,5,,,65,127
41234,note_on,2,0,0,,11,,,58,127
41332,note_off,98,0,0,,11,,,58,127
41334,note_on,2,0,0,,1,,,61,127
41432,note_off,98,0,0,,1,,,61,127
41432,note_off,0,0,0,,5,,,77,127
41434,note_on,2,0,0,,0,,,60,127
41434,note_on,0,0,0,,3,,,75,127
41532,note_off,98,0,0,,0,,,60,127
41534,note_on,2,0,0,,3,,,63,127
41632,note_off,98,0,0,,3,,,63,127
41634,note_on,2,0,0,,8,,,56,127
41732,note_off,98,0,0,,8,,,56,127
41734,note_on,2,0,0,,0,,,60,127
41832,note_off,98,0,0,,0,,,60,127
41832,note_off,0,0,0,,3,,,75,127
41834,note_on,2,0,0,,11,,,58,127
41834,note_on,0,0,0,,3,,,75,127
41882,note_off,48,0,0,,3,,,75,127
41884,note_on,2,0,0,,1,,,73,127
41932,note_off,48,0,0,,1,,,73,127
41932,note_off,0,0,0,,11,,,58,127
41934,note_on,2,0,0,,1,,,61,127
41934,note_on,0,0,0,,3,,,75,127
41982,note_off,48,0,0,,3,,,75,127
41984,note_on,2,0,0,,1,,,73,127
42032,note_off,48,0,0,,1,,,73,127
42032,note_off,0,0,0,,1,,,61,127
42034,note_on,2,0,0,,7,,,55,127
42034,note_on,0,0,0,,3,,,75,127
42082,note_off,48,0,0,,3,,,75,127
42084,note_on,2,0,0,,1,,,73,127
42132,note_off,48,0,0,,1,,,73,127
42132,note_off,0,0,0,,7,,,55,127
42134,note_on,2,0,0,,11,,,58,127
42134,note_on,0,0,0,,3,,,75,127
42182,note_off,48,0,0,,3,,,75,127
42184,note_on,2,0,0,,1,,,73,127
42232,note_off,48,0,0,,1,,,73,127
42232,note_off,0,0,0,,11,,,58,127
42234,note_on,2,0,0,,8,,,56,127
42234,note_on,0,0,0,,0,,,72,127
42332,note_off,98,0,0,,8,,,56,127
42334,note_on,2,0,0,,0,,,60,127
42432,note_off,98,0,0,,0,,,60,127
42434,note_on,2,0,0,,1,,,49,127
42532,note_off,98,0,0,,0,,,72,127
42534,note_on,2,0,0,,3,,,75,127
42632,note_off,98,0,0,,3,,,75,127
42634,note_on,2,0,0,,1,,,73,127
42732,note_off,98,0,0,,1,,,73,127
42734,note_on,2,0,0,,0,,,72,127
42832,note_off,98,0,0,,0,,,72,127
42834,note_on,2,0,0,,11,,,70,127
42932,note_off,98,0,0,,11,,,70,127
42934,note_on,2,0,0,,8,,,68,127
43032,note_off,98,0,0,,8,,,68,127
43034,note_on,2,0,0,,7,,,67,127
43132,note_off,98,0,0,,7,,,67,127
43134,note_on,2,0,0,,5,,,65,127
43232,note_off,98,0,0,,5,,,65,127
43232,note_off,0,0,0,,1,,,49,127
43234,note_on,2,0,0,,3,,,51,127
43234,note_on,0,0,0,,3,,,63,127
43334,note_on,100,0,0,,3,,,75,127
43432,note_off,98,0,0,,3,,,63,127
43434,note_on,2,0,0,,3,,,63,127
43532,note_off,98,0,0,,3,,,75,127
43534,note_on,2,0,0,,3,,,75,127
43632,note_off,98,0,0,,3,,,63,127
43632,note_off,0,0,0,,3,,,51,127
43634,note_on,2,0,0,,6,,,54,127
43634,note_on,0,0,0,,3,,,63,127
43732,note_off,98,0,0,,3,,,63,127
43732,note_off,0,0,0,,3,,,75,127
43734,note_on,2,0,0,,1,,,73,127
43832,note_off,98,0,0,,1,,,73,127
43834,note_on,2,0,0,,0,,,72,127
43932,note_off,98,0,0,,0,,,72,127
43934,note_on,2,0,0,,11,,,70,127
44032,note_off,98,0,0,,11,,,70,127
44032,note_off,0,0,0,,6,,,54,127
44034,note_on,2,0,0,,5,,,53,127
44034,note_on,0,0,0,,10,,,69,127
44132,note_off,98,0,0,,10,,,69,127
44134,note_on,2,0,0,,5,,,77,127
44232,note_off,98,0,0,,5,,,53,127
44234,note_on,2,0,0,,3,,,51,127
44234,note_on,0,0,0,,10,,,69,127
44332,note_off,98,0,0,,10,,,69,127
44332,note_off,0,0,0,,5,,,77,127
44334,note_on,2,0,0,,5,,,77,127
44432,note_off,98,0,0,,3,,,51,127
44434,note_on,2,0,0,,1,,,49,127
44434,note_on,0,0,0,,5,,,65,127
44532,note_off,98,0,0,,5,,,65,127
44532,note_off,0,0,0,,5,,,77,127
44534,note_on,2,0,0,,3,,,75,127
44632,note_off,98,0,0,,3,,,75,127
44632,note_off,0,0,0,,1,,,49,127
44634,note_on,2,0,0,,0,,,48,127
44634,note_on,0,0,0,,1,,,73,127
44732,note_off,98,0,0,,1,,,73,127
44734,note_on,2,0,0,,0,,,72,127
44832,note_off,98,0,0,,0,,,72,127
44832,note_off,0,0,0,,0,,,48,127
44834,note_on,2,0,0,,11,,,46,127
44834,note_on,0,0,0,,1,,,73,127
44932,note_off,98,0,0,,1,,,73,127
44934,note_on,2,0,0,,5,,,77,127
45032,note_off,98,0,0,,5,,,77,127
45034,note_on,2,0,0,,11,,,70,127
45132,note_off,98,0,0,,11,,,70,127
45134,note_on,2,0,0,,1,,,73,127
45232,note_off,98,0,0,,1,,,73,127
45232,note_off,0,0,0,,11,,,46,127
45234,note_on,2,0,0,,11,,,46,127
45234,note_on,0,0,0,,7,,,67,127
45332,note_off,98,0,0,,7,,,67,127
45334,note_on,2,0,0,,11,,,70,127
45432,note_off,98,0,0,,11,,,70,127
45434,note_on,2,0,0,,4,,,64,127
45532,note_off,98,0,0,,4,,,64,127
45534,note_on,2,0,0,,7,,,67,127
45632,note_off,98,0,0,,7,,,67,127
45632,note_off,0,0,0,,11,,,46,127
45634,note_on,2,0,0,,0,,,36,127
45634,note_on,0,0,0,,0,,,60,127
45732,note_off,98,0,0,,0,,,60,127
45734,note_on,2,0,0,,0,,,72,127
45832,note_off,98,0,0,,0,,,36,127
45834,note_on,2,0,0,,0,,,48,127
45834,note_on,0,0,0,,0,,,60,127
45932,note_off,98,0,0,,0,,,60,127
45932,note_off,0,0,0,,0,,,72,127
45934,note_on,2,0,0,,0,,,72,127
46032,note_off,98,0,0,,0,,,48,127
46034,note_on,2,0,0,,1,,,49,127
46034,note_on,0,0,0,,0,,,60,127
46132,note_off,98,0,0,,0,,,60,127
46132,note_off,0,0,0,,0,,,72,127
46134,note_on,2,0,0,,11,,,70,127
46232,note_off,98,0,0,,11,,,70,127
46232,note_off,0,0,0,,1,,,49,127
46234,note_on,2,0,0,,11,,,46,127
46234,note_on,0,0,0,,8,,,68,127
46332,note_off,98,0,0,,8,,,68,127
46334,note_on,2,0,0,,7,,,67,127
46432,note_off,98,0,0,,7,,,67,127
46432,note_off,0,0,0,,11,,,46,127
46434,note_on,2,0,0,,0,,,36,127
46434,note_on,0,0,0,,0,,,60,127
46532,note_off,98,0,0,,0,,,60,127
46534,note_on,2,0,0,,0,,,72,127
46632,note_off,98,0,0,,0,,,36,127
46634,note_on,2,0,0,,0,,,48,127
46634,note_on,0,0,0,,0,,,60,127
46732,note_off,98,0,0,,0,,,60,127
46732,note_off,0,0,0,,0,,,72,127
46734,note_on,2,0,0,,0,,,72,127
46832,note_off,98,0,0,,0,,,48,127
46834,note_on,2,0,0,,1,,,49,127
46834,note_on,0,0,0,,0,,,60,127
46932,note_off,98,0,0,,0,,,60,127
46932,note_off,0,0,0,,0,,,72,127
46934,note_on,2,0,0,,11,,,70,127
47032,note_off,98,0,0,,11,,,70,127
47032,note_off,0,0,0,,1,,,49,127
47034,note_on,2,0,0,,11,,,46,127
47034,note_on,0,0,0,,8,,,68,127
47132,note_off,98,0,0,,8,,,68,127
47134,note_on,2,0,0,,7,,,67,127
47232,note_off,98,0,0,,7,,,67,127
47232,note_off,0,0,0,,11,,,46,127
47234,note_on,2,0,0,,0,,,36,127
47234,note_on,0,0,0,,0,,,60,127
47334,note_on,100,0,0,,0,,,72,127
47432,note_off,98,0,0,,0,,,60,127
47432,note_off,0,0,0,,0,,,36,127
47434,note_on,2,0,0,,0,,,48,127
47434,note_on,0,0,0,,0,,,60,127
47532,note_off,98,0,0,,0,,,60,127
47532,note_off,0,0,0,,0,,,72,127
47534,note_on,2,0,0,,0,,,72,127
47632,note_off,98,0,0,,0,,,72,127
47632,note_off,0,0,0,,0,,,48,127
47634,note_on,2,0,0,,1,,,49,127
47634,note_on,0,0,0,,11,,,70,127
47732,note_off,98,0,0,,11,,,70,127
47734,note_on,2,0,0,,8,,,68,127
47832,note_off,98,0,0,,8,,,68,127
47832,note_off,0,0,0,,1,,,49,127
47834,note_on,2,0,0,,11,,,46,127
47834,note_on,0,0,0,,7,,,67,127
47932,note_off,98,0,0,,7,,,67,127
47934,note_on,2,0,0,,5,,,65,127
48032,note_off,98,0,0,,5,,,65,127
48032,note_off,0,0,0,,11,,,46,127
48034,note_on,2,0,0,,0,,,60,127
48134,note_on,100,0,0,,0,,,48,127
48232,note_off,98,0,0,,0,,,48,127
48234,note_on,2,0,0,,1,,,49,127
48332,note_off,98,0,0,,1,,,49,127
48334,note_on,2,0,0,,2,,,50,127
48432,note_off,98,0,0,,2,,,50,127
48434,note_on,2,0,0,,3,,,51,127
48532,note_off,98,0,0,,3,,,51,127
48534,note_on,2,0,0,,4,,,52,127
48632,note_off,98,0,0,,4,,,52,127
48634,note_on,2,0,0,,5,,,53,127
48732,note_off,98,0,0,,5,,,53,127
48734,note_on,2,0,0,,7,,,55,127
48832,note_off,98,0,0,,7,,,55,127
48834,note_on,2,0,0,,8,,,56,127
48932,note_off,98,0,0,,8,,,56,127
48934,note_on,2,0,0,,4,,,52,127
49032,note_off,98,0,0,,4,,,52,127
49034,note_on,2,0,0,,5,,,53,127
49132,note_off,98,0,0,,5,,,53,127
49134,note_on,2,0,0,,7,,,55,127
49232,note_off,98,0,0,,7,,,55,127
49234,note_on,2,0,0,,8,,,56,127
49332,note_off,98,0,0,,8,,,56,127
49334,note_on,2,0,0,,10,,,57,127
49432,note_off,98,0,0,,10,,,57,127
49434,note_on,2,0,0,,11,,,58,127
49532,note_off,98,0,0,,11,,,58,127
49534,note_on,2,0,0,,12,,,59,127
49628,note_off,94,0,0,,0,,,60,127
49632,note_off,4,0,0,,12,,,59,127
49634,note_on,2,0,0,,0,,,60,127
49732,note_off,98,0,0,,0,,,60,127
49734,note_on,2,0,0,,0,,,60,127
49832,note_off,98,0,0,,0,,,60,127
49834,note_on,2,0,0,,0,,,60,127
49834,note_on,0,0,0,,1,,,61,127
49932,note_off,98,0,0,,1,,,61,127
49934,note_on,2,0,0,,2,,,62,127
50032,note_off,98,0,0,,2,,,62,127
50034,note_on,2,0,0,,3,,,63,127
50132,note_off,98,0,0,,3,,,63,127
50134,note_on,2,0,0,,4,,,64,127
50232,note_off,98,0,0,,4,,,64,127
50232,note_off,0,0,0,,0,,,60,127
50234,note_on,2,0,0,,11,,,58,127
50234,note_on,0,0,0,,5,,,65,127
50332,note_off,98,0,0,,5,,,65,127
50334,note_on,2,0,0,,7,,,67,127
50432,note_off,98,0,0,,7,,,67,127
50432,note_off,0,0,0,,11,,,58,127
50434,note_on,2,0,0,,8,,,56,127
50434,note_on,0,0,0,,8,,,68,127
50532,note_off,98,0,0,,8,,,68,127
50534,note_on,2,0,0,,4,,,64,127
50632,note_off,98,0,0,,4,,,64,127
50632,note_off,0,0,0,,8,,,56,127
50634,note_on,2,0,0,,7,,,55,127
50634,note_on,0,0,0,,5,,,65,127
50732,note_off,98,0,0,,5,,,65,127
50734,note_on,2,0,0,,7,,,67,127
50832,note_off,98,0,0,,7,,,67,127
50832,note_off,0,0,0,,7,,,55,127
50834,note_on,2,0,0,,5,,,53,127
50834,note_on,0,0,0,,8,,,68,127
50932,note_off,98,0,0,,8,,,68,127
50934,note_on,2,0,0,,10,,,69,127
51032,note_off,98,0,0,,10,,,69,127
51032,note_off,0,0,0,,5,,,53,127
51034,note_on,2,0,0,,5,,,53,127
51034,note_on,0,0,0,,11,,,70,127
51132,note_off,98,0,0,,11,,,70,127
51134,note_on,2,0,0,,12,,,71,127
51232,note_off,98,0,0,,12,,,71,127
51232,note_off,0,0,0,,5,,,53,127
51234,note_on,2,0,0,,4,,,52,127
51234,note_on,0,0,0,,0,,,72,127
51332,note_off,98,0,0,,0,,,72,127
51334,note_on,2,0,0,,8,,,68,127
51432,note_off,98,0,0,,8,,,68,127
51432,note_off,0,0,0,,4,,,52,127
51434,note_on,2,0,0,,5,,,53,127
51434,note_on,0,0,0,,11,,,70,127
51532,note_off,98,0,0,,11,,,70,127
51534,note_on,2,0,0,,0,,,72,127
51632,note_off,98,0,0,,0,,,72,127
51632,note_off,0,0,0,,5,,,53,127
51634,note_on,2,0,0,,11,,,46,127
51634,note_on,0,0,0,,1,,,73,127
51732,note_off,98,0,0,,1,,,73,127
51734,note_on,2,0,0,,2,,,74,127
51832,note_off,98,0,0,,2,,,74,127
51832,note_off,0,0,0,,11,,,46,127
51834,note_on,2,0,0,,11,,,46,127
51834,note_on,0,0,0,,3,,,75,127
51932,note_off,98,0,0,,3,,,75,127
51934,note_on,2,0,0,,4,,,76,127
52032,note_off,98,0,0,,4,,,76,127
52032,note_off,0,0,0,,11,,,46,127
52034,note_on,2,0,0,,8,,,44,127
52034,note_on,0,0,0,,5,,,77,127
52132,note_off,98,0,0,,5,,,77,127
52134,note_on,2,0,0,,4,,,76,127
52232,note_off,98,0,0,,4,,,76,127
52232,note_off,0,0,0,,8,,,44,127
52234,note_on,2,0,0,,7,,,43,127
52234,note_on,0,0,0,,5,,,77,127
52332,note_off,98,0,0,,5,,,77,127
52334,note_on,2,0,0,,7,,,79,127
52432,note_off,98,0,0,,7,,,79,127
52432,note_off,0,0,0,,7,,,43,127
52434,note_on,2,0,0,,5,,,41,127
52434,note_on,0,0,0,,8,,,80,127
52532,note_off,98,0,0,,8,,,80,127
52534,note_on,2,0,0,,10,,,81,127
52632,note_off,98,0,0,,10,,,81,127
52632,note_off,0,0,0,,5,,,41,127
52634,note_on,2,0,0,,1,,,37,127
52634,note_on,0,0,0,,11,,,82,127
52732,note_off,98,0,0,,11,,,82,127
52734,note_on,2,0,0,,12,,,83,127
52822,note_off,88,0,0,,1,,,37,127
52832,note_off,10,0,0,,12,,,83,127
52834,note_on,2,0,0,,0,,,84,127
52934,note_on,100,0,0,,0,,,48,127
53032,note_off,98,0,0,,0,,,48,127
53034,note_on,2,0,0,,1,,,49,127
53132,note_off,98,0,0,,1,,,49,127
53134,note_on,2,0,0,,2,,,50,127
53232,note_off,98,0,0,,2,,,50,127
53234,note_on,2,0,0,,3,,,51,127
53332,note_off,98,0,0,,3,,,51,127
53334,note_on,2,0,0,,4,,,52,127
53432,note_off,98,0,0,,4,,,52,127
53434,note_on,2,0,0,,5,,,53,127
53532,note_off,98,0,0,,5,,,53,127
53534,note_on,2,0,0,,7,,,55,127
53632,note_off,98,0,0,,7,,,55,127
53634,note_on,2,0,0,,8,,,56,127
53732,note_off,98,0,0,,8,,,56,127
53734,note_on,2,0,0,,4,,,52,127
53832,note_off,98,0,0,,4,,,52,127
53834,note_on,2,0,0,,5,,,53,127
53932,note_off,98,0,0,,5,,,53,127
53934,note_on,2,0,0,,7,,,55,127
54032,note_off,98,0,0,,7,,,55,127
54034,note_on,2,0,0,,8,,,56,127
54132,note_off,98,0,0,,8,,,56,127
54134,note_on,2,0,0,,10,,,57,127
54232,note_off,98,0,0,,10,,,57,127
54234,note_on,2,0,0,,11,,,58,127
54332,note_off,98,0,0,,11,,,58,127
54334,note_on,2,0,0,,12,,,59,127
54428,note_off,94,0,0,,0,,,84,127
54432,note_off,4,0,0,,12,,,59,127
54434,note_on,2,0,0,,0,,,60,127
54532,note_off,98,0,0,,0,,,60,127
54534,note_on,2,0,0,,0,,,60,127
54632,note_off,98,0,0,,0,,,60,127
54634,note_on,2,0,0,,0,,,60,127
54634,note_on,0,0,0,,1,,,61,127
54732,note_off,98,0,0,,1,,,61,127
54734,note_on,2,0,0,,2,,,62,127
54832,note_off,98,0,0,,2,,,62,127
54834,note_on,2,0,0,,3,,,63,127
54932,note_off,98,0,0,,3,,,63,127
54934,note_on,2,0,0,,4,,,64,127
55032,note_off,98,0,0,,4,,,64,127
55032,note_off,0,0,0,,0,,,60,127
55034,note_on,2,0,0,,11,,,58,127
55034,note_on,0,0,0,,5,,,65,127
55132,note_off,98,0,0,,5,,,65,127
55134,note_on,2,0,0,,7,,,67,127
55232,note_off,98,0,0,,7,,,67,127
55232,note_off,0,0,0,,11,,,58,127
55234,note_on,2,0,0,,8,,,56,127
55234,note_on,0,0,0,,8,,,68,127
55332,note_off,98,0,0,,8,,,68,127
55334,note_on,2,0,0,,4,,,64,127
55432,note_off,98,0,0,,4,,,64,127
55432,note_off,0,0,0,,8,,,56,127
55434,note_on,2,0,0,,7,,,55,127
55434,note_on,0,0,0,,5,,,65,127
55532,note_off,98,0,0,,5,,,65,127
55534,note_on,2,0,0,,7,,,67,127
55632,note_off,98,0,0,,7,,,67,127
55632,note_off,0,0,0,,7,,,55,127
55634,note_on,2,0,0,,5,,,53,127
55634,note_on,0,0,0,,8,,,68,127
55732,note_off,98,0,0,,8,,,68,127
55734,note_on,2,0,0,,10,,,69,127
55832,note_off,98,0,0,,10,,,69,127
55832,note_off,0,0,0,,5,,,53,127
55834,note_on,2,0,0,,5,,,53,127
55834,note_on,0,0,0,,11,,,70,127
55932,note_off,98,0,0,,11,,,70,127
55934,note_on,2,0,0,,12,,,71,127
56032,note_off,98,0,0,,12,,,71,127
56032,note_off,0,0,0,,5,,,53,127
56034,note_on,2,0,0,,4,,,52,127
56034,note_on,0,0,0,,0,,,72,127
56132,note_off,98,0,0,,0,,,72,127
56134,note_on,2,0,0,,8,,,68,127
56232,note_off,98,0,0,,8,,,68,127
56232,note_off,0,0,0,,4,,,52,127
56234,note_on,2,0,0,,5,,,53,127
56234,note_on,0,0,0,,11,,,70,127
56332,note_off,98,0,0,,11,,,70,127
56334,note_on,2,0,0,,0,,,72,127
56432,note_off,98,0,0,,0,,,72,127
56432,note_off,0,0,0,,5,,,53,127
56434,note_on,2,0,0,,11,,,46,127
56434,note_on,0,0,0,,1,,,73,127
56532,note_off,98,0,0,,1,,,73,127
56534,note_on,2,0,0,,2,,,74,127
56632,note_off,98,0,0,,2,,,74,127
56632,note_off,0,0,0,,11,,,46,127
56634,note_on,2,0,0,,11,,,46,127
56634,note_on,0,0,0,,3,,,75,127
56732,note_off,98,0,0,,3,,,75,127
56734,note_on,2,0,0,,4,,,76,127
56832,note_off,98,0,0,,4,,,76,127
56832,note_off,0,0,0,,11,,,46,127
56834,note_on,2,0,0,,8,,,44,127
56834,note_on,0,0,0,,5,,,77,127
56932,note_off,98,0,0,,5,,,77,127
56934,note_on,2,0,0,,4,,,76,127
57032,note_off,98,0,0,,4,,,76,127
57032,note_off,0,0,0,,8,,,44,127
57034,note_on,2,0,0,,7,,,43,127
57034,note_on,0,0,0,,5,,,77,127
57132,note_off,98,0,0,,5,,,77,127
57134,note_on,2,0,0,,7,,,79,127
57232,note_off,98,0,0,,7,,,79,127
57232,note_off,0,0,0,,7,,,43,127
57234,note_on,2,0,0,,5,,,41,127
57234,note_on,0,0,0,,8,,,80,127
57332,note_off,98,0,0,,8,,,80,127
57334,note_on,2,0,0,,10,,,81,127
57432,note_off,98,0,0,,10,,,81,127
57432,note_off,0,0,0,,5,,,41,127
57434,note_on,2,0,0,,1,,,37,127
57434,note_on,0,0,0,,11,,,82,127
57532,note_off,98,0,0,,11,,,82,127
57534,note_on,2,0,0,,12,,,83,127
57632,note_off,98,0,0,,12,,,83,127
57632,note_off,0,0,0,,1,,,37,127
57634,note_on,2,0,0,,0,,,36,127
57634,note_on,0,0,0,,0,,,84,127
57732,note_off,98,0,0,,0,,,84,127
57734,note_on,2,0,0,,7,,,79,127
57832,note_off,98,0,0,,7,,,79,127
57834,note_on,2,0,0,,4,,,76,127
57932,note_off,98,0,0,,4,,,76,127
57934,note_on,2,0,0,,0,,,72,127
58032,note_off,98,0,0,,0,,,72,127
58034,note_on,2,0,0,,0,,,84,127
58132,note_off,98,0,0,,0,,,84,127
58134,note_off,2,0,0,,0,,,36,127
58134,note_on,0,0,0,,11,,,82,127
58232,note_off,98,0,0,,11,,,82,127
58234,note_on,2,0,0,,4,,,52,127
58234,note_on,0,0,0,,8,,,80,127
58332,note_off,98,0,0,,8,,,80,127
58334,note_on,2,0,0,,7,,,79,127
58432,note_off,98,0,0,,7,,,79,127
58432,note_off,0,0,0,,4,,,52,127
58434,note_on,2,0,0,,5,,,53,127
58434,note_on,0,0,0,,11,,,82,127
58532,note_off,98,0,0,,11,,,82,127
58534,note_on,2,0,0,,8,,,80,127
58632,note_off,98,0,0,,8,,,80,127
58632,note_off,0,0,0,,5,,,53,127
58634,note_on,2,0,0,,8,,,44,127
58634,note_on,0,0,0,,7,,,79,127
58732,note_off,98,0,0,,7,,,79,127
58734,note_on,2,0,0,,5,,,77,127
58832,note_off,98,0,0,,5,,,77,127
58832,note_off,0,0,0,,8,,,44,127
58834,note_on,2,0,0,,11,,,46,127
58834,note_on,0,0,0,,8,,,80,127
58932,note_off,98,0,0,,8,,,80,127
58934,note_on,2,0,0,,7,,,79,127
59032,note_off,98,0,0,,7,,,79,127
59032,note_off,0,0,0,,11,,,46,127
59034,note_on,2,0,0,,0,,,48,127
59034,note_on,0,0,0,,5,,,77,127
59132,note_off,98,0,0,,5,,,77,127
59134,note_on,2,0,0,,4,,,76,127
59232,note_off,98,0,0,,4,,,76,127
59232,note_off,0,0,0,,0,,,48,127
59234,note_on,2,0,0,,5,,,53,127
59234,note_on,0,0,0,,5,,,77,127
59332,note_off,98,0,0,,5,,,53,127
59334,note_on,2,0,0,,5,,,65,127
59432,note_off,98,0,0,,5,,,65,127
59434,note_on,2,0,0,,1,,,61,127
59532,note_off,98,0,0,,1,,,61,127
59534,note_on,2,0,0,,11,,,58,127
59630,note_off,96,0,0,,5,,,77,127
59632,note_off,2,0,0,,11,,,58,127
59634,note_on,2,0,0,,4,,,52,127
59734,note_on,100,0,0,,7,,,79,127
59832,note_off,98,0,0,,7,,,79,127
59834,note_on,2,0,0,,0,,,72,127
59932,note_off,98,0,0,,0,,,72,127
59934,note_on,2,0,0,,11,,,82,127
60032,note_off,98,0,0,,11,,,82,127
60032,note_off,0,0,0,,4,,,52,127
60034,note_on,2,0,0,,5,,,53,127
60034,note_on,0,0,0,,11,,,82,127
60132,note_off,98,0,0,,5,,,53,127
60134,note_on,2,0,0,,5,,,65,127
60232,note_off,98,0,0,,5,,,65,127
60232,note_off,0,0,0,,11,,,82,127
60234,note_on,2,0,0,,1,,,61,127
60234,note_on,0,0,0,,8,,,80,127
60332,note_off,98,0,0,,1,,,61,127
60334,note_on,2,0,0,,11,,,58,127
60432,note_off,98,0,0,,11,,,58,127
60432,note_off,0,0,0,,8,,,80,127
60434,note_on,2,0,0,,4,,,52,127
60534,note_on,100,0,0,,7,,,79,127
60632,note_off,98,0,0,,7,,,79,127
60634,note_on,2,0,0,,0,,,72,127
60732,note_off,98,0,0,,0,,,72,127
60734,note_on,2,0,0,,11,,,82,127
60832,note_off,98,0,0,,11,,,82,127
60832,note_off,0,0,0,,4,,,52,127
60834,note_on,2,0,0,,5,,,53,127
60834,note_on,0,0,0,,11,,,82,127
60932,note_off,98,0,0,,5,,,53,127
60934,note_on,2,0,0,,5,,,65,127
61032,note_off,98,0,0,,5,,,65,127
61032,note_off,0,0,0,,11,,,82,127
61034,note_on,2,0,0,,1,,,61,127
61034,note_on,0,0,0,,8,,,80,127
61132,note_off,98,0,0,,1,,,61,127
61134,note_on,2,0,0,,11,,,58,127
61232,note_off,98,0,0,,11,,,58,127
61232,note_off,0,0,0,,8,,,80,127
61234,note_on,2,0,0,,4,,,52,127
61334,note_on,100,0,0,,7,,,79,127
61432,note_off,98,0,0,,7,,,79,127
61434,note_on,2,0,0,,0,,,72,127
61532,note_off,98,0,0,,0,,,72,127
61534,note_on,2,0,0,,11,,,82,127
61632,note_off,98,0,0,,11,,,82,127
61632,note_off,0,0,0,,4,,,52,127
61634,note_on,2,0,0,,5,,,53,127
61634,note_on,0,0,0,,11,,,82,127
61732,note_off,98,0,0,,11,,,82,127
61734,note_on,2,0,0,,8,,,80,127
61832,note_off,98,0,0,,8,,,80,127
61832,note_off,0,0,0,,5,,,53,127
61834,note_on,2,0,0,,11,,,58,127
61834,note_on,0,0,0,,7,,,79,127
61932,note_off,98,0,0,,7,,,79,127
61934,note_on,2,0,0,,5,,,77,127
62032,note_off,98,0,0,,5,,,77,127
62032,note_off,0,0,0,,11,,,58,127
62034,note_on,2,0,0,,0,,,60,127
62034,note_on,0,0,0,,4,,,76,127
62232,note_off,198,0,0,,4,,,76,127
62232,note_off,0,0,0,,0,,,60,127
62234,note_on,2,0,0,,1,,,61,127
62234,note_on,0,0,0,,7,,,79,127
62282,note_off,48,0,0,,7,,,79,127
62284,note_on,2,0,0,,5,,,77,127
62332,note_off,48,0,0,,5,,,77,127
62334,note_on,2,0,0,,4,,,76,127
62382,note_off,48,0,0,,4,,,76,127
62384,note_on,2,0,0,,5,,,77,127
62432,note_off,48,0,0,,1,,,61,127
62434,note_on,2,0,0,,0,,,36,127
62483,note_off,49,0,0,,5,,,77,127
62534,note_on,51,0,0,,7,,,79,127
62632,note_off,98,0,0,,7,,,79,127
62634,note_on,2,0,0,,4,,,76,127
62732,note_off,98,0,0,,4,,,76,127
62734,note_on,2,0,0,,0,,,72,127
62832,note_off,98,0,0,,0,,,72,127
62832,note_off,0,0,0,,0,,,36,127
62834,note_on,2,0,0,,1,,,37,127
62834,note_on,0,0,0,,11,,,70,127
62932,note_off,98,0,0,,11,,,70,127
62934,note_on,2,0,0,,8,,,80,127
63032,note_off,98,0,0,,8,,,80,127
63034,note_on,2,0,0,,7,,,79,127
63132,note_off,98,0,0,,7,,,79,127
63134,note_on,2,0,0,,5,,,77,127
63232,note_off,98,0,0,,5,,,77,127
63232,note_off,0,0,0,,1,,,37,127
63234,note_on,2,0,0,,0,,,36,127
63234,note_on,0,0,0,,11,,,70,127
63332,note_off,98,0,0,,11,,,70,127
63334,note_on,2,0,0,,7,,,79,127
63432,note_off,98,0,0,,7,,,79,127
63434,note_on,2,0,0,,4,,,76,127
63532,note_off,98,0,0,,4,,,76,127
63534,note_on,2,0,0,,0,,,72,127
63632,note_off,98,0,0,,0,,,72,127
63632,note_off,0,0,0,,0,,,36,127
63634,note_on,2,0,0,,1,,,37,127
63634,note_on,0,0,0,,11,,,70,127
63732,note_off,98,0,0,,11,,,70,127
63734,note_on,2,0,0,,8,,,80,127
63832,note_off,98,0,0,,8,,,80,127
63834,note_on,2,0,0,,7,,,79,127
63932,note_off,98,0,0,,7,,,79,127
63934,note_on,2,0,0,,5,,,77,127
64032,note_off,98,0,0,,5,,,77,127
64032,note_off,0,0,0,,1,,,37,127
64034,note_on,2,0,0,,0,,,36,127
64034,note_on,0,0,0,,11,,,70,127
64132,note_off,98,0,0,,11,,,70,127
64134,note_on,2,0,0,,7,,,79,127
64232,note_off,98,0,0,,7,,,79,127
64234,note_on,2,0,0,,4,,,76,127
64332,note_off,98,0,0,,4,,,76,127
64334,note_on,2,0,0,,0,,,72,127
64432,note_off,98,0,0,,0,,,72,127
64432,note_off,0,0,0,,0,,,36,127
64434,note_on,2,0,0,,1,,,37,127
64434,note_on,0,0,0,,11,,,70,127
64532,note_off,98,0,0,,11,,,70,127
64534,note_on,2,0,0,,8,,,80,127
64632,note_off,98,0,0,,8,,,80,127
64634,note_on,2,0,0,,7,,,79,127
64732,note_off,98,0,0,,7,,,79,127
64734,note_on,2,0,0,,5,,,77,127
64832,note_off,98,0,0,,5,,,77,127
64832,note_off,0,0,0,,1,,,37,127
64834,note_on,2,0,0,,0,,,36,127
64834,note_on,0,0,0,,7,,,79,127
64932,note_off,98,0,0,,7,,,79,127
64934,note_on,2,0,0,,11,,,82,127
65032,note_off,98,0,0,,11,,,82,127
65032,note_off,0,0,0,,0,,,36,127
65034,note_on,2,0,0,,11,,,34,127
65034,note_on,0,0,0,,8,,,80,127
65132,note_off,98,0,0,,8,,,80,127
65134,note_on,2,0,0,,7,,,79,127
65232,note_off,98,0,0,,7,,,79,127
65232,note_off,0,0,0,,11,,,34,127
65234,note_on,2,0,0,,0,,,36,127
65234,note_on,0,0,0,,8,,,80,127
65332,note_off,98,0,0,,8,,,80,127
65334,note_on,2,0,0,,5,,,77,127
65432,note_off,98,0,0,,5,,,77,127
65432,note_off,0,0,0,,0,,,36,127
65434,note_on,2,0,0,,0,,,36,127
65434,note_on,0,0,0,,7,,,79,127
65532,note_off,98,0,0,,7,,,79,127
65534,note_on,2,0,0,,4,,,76,127
65632,note_off,98,0,0,,4,,,76,127
65632,note_off,0,0,0,,0,,,36,127
65634,note_on,2,0,0,,5,,,41,127
65634,note_on,0,0,0,,5,,,77,127
65732,note_off,98,0,0,,5,,,77,127
65734,note_on,2,0,0,,8,,,80,127
65832,note_off,98,0,0,,8,,,80,127
65832,note_off,0,0,0,,5,,,41,127
65834,note_on,2,0,0,,8,,,56,127
65834,note_on,0,0,0,,0,,,72,127
65932,note_off,98,0,0,,0,,,72,127
65934,note_on,2,0,0,,3,,,75,127
66032,note_off,98,0,0,,3,,,75,127
66032,note_off,0,0,0,,8,,,56,127
66034,note_on,2,0,0,,11,,,58,127
66034,note_on,0,0,0,,1,,,73,127
66132,note_off,98,0,0,,1,,,73,127
66134,note_on,2,0,0,,5,,,77,127
66232,note_off,98,0,0,,5,,,77,127
66232,note_off,0,0,0,,11,,,58,127
66234,note_on,2,0,0,,7,,,55,127
66234,note_on,0,0,0,,11,,,70,127
66332,note_off,98,0,0,,11,,,70,127
66334,note_on,2,0,0,,1,,,73,127
66432,note_off,98,0,0,,1,,,73,127
66432,note_off,0,0,0,,7,,,55,127
66434,note_on,2,0,0,,8,,,56,127
66434,note_on,0,0,0,,0,,,72,127
66532,note_off,98,0,0,,0,,,72,127
66534,note_on,2,0,0,,5,,,77,127
66632,note_off,98,0,0,,5,,,77,127
66632,note_off,0,0,0,,8,,,56,127
66634,note_on,2,0,0,,5,,,53,127
66634,note_on,0,0,0,,8,,,68,127
66732,note_off,98,0,0,,8,,,68,127
66734,note_on,2,0,0,,0,,,72,127
66832,note_off,98,0,0,,0,,,72,127
66832,note_off,0,0,0,,5,,,53,127
66834,note_on,2,0,0,,7,,,55,127
66834,note_on,0,0,0,,11,,,70,127
66932,note_off,98,0,0,,11,,,70,127
66934,note_on,2,0,0,,1,,,73,127
67032,note_off,98,0,0,,1,,,73,127
67032,note_off,0,0,0,,7,,,55,127
67034,note_on,2,0,0,,4,,,52,127
67034,note_on,0,0,0,,7,,,67,127
67132,note_off,98,0,0,,7,,,67,127
67134,note_on,2,0,0,,11,,,70,127
67232,note_off,98,0,0,,11,,,70,127
67232,note_off,0,0,0,,4,,,52,127
67234,note_on,2,0,0,,5,,,53,127
67234,note_on,0,0,0,,8,,,68,127
67332,note_off,98,0,0,,8,,,68,127
67334,note_on,2,0,0,,0,,,72,127
67432,note_off,98,0,0,,0,,,72,127
67432,note_off,0,0,0,,5,,,53,127
67434,note_on,2,0,0,,8,,,44,127
67434,note_on,0,0,0,,5,,,65,127
67532,note_off,98,0,0,,5,,,65,127
67534,note_on,2,0,0,,8,,,68,127
67632,note_off,98,0,0,,8,,,68,127
67632,note_off,0,0,0,,8,,,44,127
67634,note_on,2,0,0,,11,,,46,127
67634,note_on,0,0,0,,7,,,67,127
67732,note_off,98,0,0,,7,,,67,127
67734,note_on,2,0,0,,11,,,70,127
67832,note_off,98,0,0,,11,,,70,127
67832,note_off,0,0,0,,11,,,46,127
67834,note_on,2,0,0,,7,,,43,127
67834,note_on,0,0,0,,4,,,64,127
67932,note_off,98,0,0,,4,,,64,127
67934,note_on,2,0,0,,7,,,67,127
68032,note_off,98,0,0,,7,,,67,127
68032,note_off,0,0,0,,7,,,43,127
68034,note_on,2,0,0,,8,,,44,127
68034,note_on,0,0,0,,5,,,65,127
68132,note_off,98,0,0,,5,,,65,127
68134,note_on,2,0,0,,0,,,60,127
68232,note_off,98,0,0,,0,,,60,127
68232,note_off,0,0,0,,8,,,44,127
68234,note_on,2,0,0,,11,,,46,127
68234,note_on,0,0,0,,1,,,61,127
68332,note_off,98,0,0,,1,,,61,127
68334,note_on,2,0,0,,5,,,65,127
68432,note_off,98,0,0,,5,,,65,127
68432,note_off,0,0,0,,11,,,46,127
68434,note_on,2,0,0,,0,,,48,127
68434,note_on,0,0,0,,8,,,56,127
68532,note_off,98,0,0,,8,,,56,127
68534,note_on,2,0,0,,5,,,65,127
68632,note_off,98,0,0,,5,,,65,127
68632,note_off,0,0,0,,0,,,48,127
68634,note_on,2,0,0,,0,,,36,127
68634,note_on,0,0,0,,7,,,55,127
68732,note_off,98,0,0,,7,,,55,127
68734,note_on,2,0,0,,4,,,64,127
68832,note_off,98,0,0,,0,,,36,127
68842,note_off,10,0,0,,4,,,64,127
68855,note_on,13,0,0,,5,,,65,127
68855,note_on,0,0,0,,5,,,41,127
70725,note_off,1870,0,0,,5,,,41,127
70725,note_off,0,0,0,,5,,,65,127
72192,end_of_track,1467,1,0,,,,,,
