tick,type,time,meta,track,program,channel,pitch,tempo,note,velocity
0,copyright,0,1,0,,,,,,
0,program_change,0,0,0,6,0,,,,
0,pitchwheel,0,0,0,,0,0,,,
0,program_change,0,0,0,6,1,,,,
0,pitchwheel,0,0,0,,1,-590,,,
0,program_change,0,0,0,6,2,,,,
0,pitchwheel,0,0,0,,2,-272,,,
0,program_change,0,0,0,6,3,,,,
0,pitchwheel,0,0,0,,3,-353,,,
0,program_change,0,0,0,6,4,,,,
0,pitchwheel,0,0,0,,4,-560,,,
0,program_change,0,0,0,6,5,,,,
0,pitchwheel,0,0,0,,5,-80,,,
0,program_change,0,0,0,6,6,,,,
0,pitchwheel,0,0,0,,6,-625,,,
0,program_change,0,0,0,6,7,,,,
0,pitchwheel,0,0,0,,7,-130,,,
0,program_change,0,0,0,6,8,,,,
0,pitchwheel,0,0,0,,8,-512,,,
0,program_change,0,0,0,6,10,,,,
0,pitchwheel,0,0,0,,10,-464,,,
0,program_change,0,0,0,6,11,,,,
0,pitchwheel,0,0,0,,11,-208,,,
0,program_change,0,0,0,6,12,,,,
0,pitchwheel,0,0,0,,12,-553,,,
0,set_tempo,0,1,0,,,,500000,,
25,note_on,25,0,0,,0,,,84,127
25,note_on,0,0,0,,5,,,65,127
172,note_off,147,0,0,,5,,,65,127
174,note_on,2,0,0,,8,,,68,127
321,note_off,147,0,0,,8,,,68,127
323,note_on,2,0,0,,5,,,65,127
470,note_off,147,0,0,,5,,,65,127
470,note_off,0,0,0,,0,,,84,127
472,note_on,2,0,0,,5,,,77,127
472,note_on,0,0,0,,1,,,61,127
619,note_off,147,0,0,,1,,,61,127
621,note_on,2,0,0,,11,,,58,127
768,note_off,147,0,0,,11,,,58,127
770,note_on,2,0,0,,1,,,61,127
917,note_off,147,0,0,,1,,,61,127
917,note_off,0,0,0,,5,,,77,127
919,note_on,2,0,0,,0,,,72,127
919,note_on,0,0,0,,0,,,48,127
1066,note_off,147,0,0,,0,,,48,127
1068,note_on,2,0,0,,0,,,36,127
1215,note_off,147,0,0,,0,,,36,127
1217,note_on,2,0,0,,0,,,48,127
1364,note_off,147,0,0,,0,,,48,127
1364,note_off,0,0,0,,0,,,72,127
1366,note_on,2,0,0,,5,,,65,127
1366,note_on,0,0,0,,5,,,29,127
1792,note_off,426,0,0,,5,,,65,127
1811,note_off,19,0,0,,5,,,29,127
1813,note_on,2,0,0,,1,,,85,127
1813,note_on,0,0,0,,5,,,65,127
1861,note_off,48,0,0,,1,,,85,127
1863,note_on,2,0,0,,0,,,84,127
1911,note_off,48,0,0,,0,,,84,127
1913,note_on,2,0,0,,1,,,85,127
1961,note_off,48,0,0,,1,,,85,127
1961,note_off,0,0,0,,5,,,65,127
1963,note_on,2,0,0,,0,,,84,127
1963,note_on,0,0,0,,8,,,68,127
2110,note_off,147,0,0,,8,,,68,127
2112,note_on,2,0,0,,5,,,65,127
2259,note_off,147,0,0,,5,,,65,127
2259,note_off,0,0,0,,0,,,84,127
2261,note_on,2,0,0,,7,,,79,127
2261,note_on,0,0,0,,1,,,61,127
2309,note_off,48,0,0,,7,,,79,127
2311,note_on,2,0,0,,5,,,77,127
2359,note_off,48,0,0,,5,,,77,127
2361,note_on,2,0,0,,7,,,79,127
2409,note_off,48,0,0,,7,,,79,127
2409,note_off,0,0,0,,1,,,61,127
2411,note_on,2,0,0,,5,,,77,127
2411,note_on,0,0,0,,11,,,58,127
2558,note_off,147,0,0,,11,,,58,127
2560,note_on,2,0,0,,1,,,61,127
2707,note_off,147,0,0,,1,,,61,127
2707,note_off,0,0,0,,5,,,77,127
2709,note_on,2,0,0,,1,,,73,127
2709,note_on,0,0,0,,0,,,48,127
2757,note_off,48,0,0,,1,,,73,127
2759,note_on,2,0,0,,0,,,72,127
2807,note_off,48,0,0,,0,,,72,127
2809,note_on,2,0,0,,1,,,73,127
2857,note_off,48,0,0,,1,,,73,127
2857,note_off,0,0,0,,0,,,48,127
2859,note_on,2,0,0,,0,,,72,127
2859,note_on,0,0,0,,0,,,36,127
3006,note_off,147,0,0,,0,,,36,127
3008,note_on,2,0,0,,0,,,48,127
3155,note_off,147,0,0,,0,,,48,127
3155,note_off,0,0,0,,0,,,72,127
3157,note_on,2,0,0,,7,,,67,127
3157,note_on,0,0,0,,5,,,29,127
3205,note_off,48,0,0,,7,,,67,127
3207,note_on,2,0,0,,5,,,65,127
3255,note_off,48,0,0,,5,,,65,127
3257,note_on,2,0,0,,7,,,67,127
3305,note_off,48,0,0,,7,,,67,127
3307,note_on,2,0,0,,5,,,65,127
3603,note_off,296,0,0,,5,,,65,127
3603,note_off,0,0,0,,5,,,29,127
3605,note_on,2,0,0,,8,,,80,127
3605,note_on,0,0,0,,5,,,65,127
3752,note_off,147,0,0,,5,,,65,127
3754,note_on,2,0,0,,8,,,68,127
3901,note_off,147,0,0,,8,,,68,127
3903,note_on,2,0,0,,5,,,65,127
4050,note_off,147,0,0,,5,,,65,127
4050,note_off,0,0,0,,8,,,80,127
4052,note_on,2,0,0,,5,,,77,127
4052,note_on,0,0,0,,1,,,61,127
4199,note_off,147,0,0,,1,,,61,127
4201,note_on,2,0,0,,5,,,65,127
4348,note_off,147,0,0,,5,,,65,127
4350,note_on,2,0,0,,1,,,61,127
4497,note_off,147,0,0,,1,,,61,127
4497,note_off,0,0,0,,5,,,77,127
4499,note_on,2,0,0,,3,,,63,127
4499,note_on,0,0,0,,3,,,39,127
4646,note_off,147,0,0,,3,,,39,127
4648,note_on,2,0,0,,3,,,51,127
4795,note_off,147,0,0,,3,,,51,127
4797,note_on,2,0,0,,3,,,39,127
4944,note_off,147,0,0,,3,,,39,127
4944,note_off,0,0,0,,3,,,63,127
4946,note_on,2,0,0,,8,,,56,127
4946,note_on,0,0,0,,8,,,32,127
5372,note_off,426,0,0,,8,,,56,127
5391,note_off,19,0,0,,8,,,32,127
5393,note_on,2,0,0,,11,,,82,127
5393,note_on,0,0,0,,5,,,65,127
5441,note_off,48,0,0,,11,,,82,127
5443,note_on,2,0,0,,8,,,80,127
5491,note_off,48,0,0,,8,,,80,127
5493,note_on,2,0,0,,11,,,82,127
5541,note_off,48,0,0,,11,,,82,127
5541,note_off,0,0,0,,5,,,65,127
5543,note_on,2,0,0,,8,,,80,127
5543,note_on,0,0,0,,8,,,68,127
5690,note_off,147,0,0,,8,,,68,127
5692,note_on,2,0,0,,5,,,65,127
5839,note_off,147,0,0,,5,,,65,127
5839,note_off,0,0,0,,8,,,80,127
5841,note_on,2,0,0,,7,,,79,127
5841,note_on,0,0,0,,1,,,61,127
5889,note_off,48,0,0,,7,,,79,127
5891,note_on,2,0,0,,5,,,77,127
5939,note_off,48,0,0,,5,,,77,127
5941,note_on,2,0,0,,7,,,79,127
5989,note_off,48,0,0,,7,,,79,127
5989,note_off,0,0,0,,1,,,61,127
5991,note_on,2,0,0,,5,,,77,127
5991,note_on,0,0,0,,5,,,65,127
6138,note_off,147,0,0,,5,,,65,127
6140,note_on,2,0,0,,1,,,61,127
6287,note_off,147,0,0,,1,,,61,127
6287,note_off,0,0,0,,5,,,77,127
6289,note_on,2,0,0,,5,,,65,127
6289,note_on,0,0,0,,3,,,39,127
6337,note_off,48,0,0,,5,,,65,127
6339,note_on,2,0,0,,3,,,63,127
6387,note_off,48,0,0,,3,,,63,127
6389,note_on,2,0,0,,5,,,65,127
6437,note_off,48,0,0,,5,,,65,127
6437,note_off,0,0,0,,3,,,39,127
6439,note_on,2,0,0,,3,,,63,127
6439,note_on,0,0,0,,3,,,51,127
6586,note_off,147,0,0,,3,,,51,127
6588,note_on,2,0,0,,3,,,39,127
6735,note_off,147,0,0,,3,,,39,127
6735,note_off,0,0,0,,3,,,63,127
6737,note_on,2,0,0,,11,,,58,127
6737,note_on,0,0,0,,8,,,32,127
6785,note_off,48,0,0,,11,,,58,127
6787,note_on,2,0,0,,8,,,56,127
6835,note_off,48,0,0,,8,,,56,127
6837,note_on,2,0,0,,11,,,58,127
6885,note_off,48,0,0,,11,,,58,127
6887,note_on,2,0,0,,8,,,56,127
7183,note_off,296,0,0,,8,,,56,127
7183,note_off,0,0,0,,8,,,32,127
7185,note_on,2,0,0,,3,,,75,127
7185,note_on,0,0,0,,8,,,68,127
7332,note_off,147,0,0,,8,,,68,127
7334,note_on,2,0,0,,0,,,72,127
7481,note_off,147,0,0,,0,,,72,127
7483,note_on,2,0,0,,8,,,68,127
7630,note_off,147,0,0,,8,,,68,127
7630,note_off,0,0,0,,3,,,75,127
7632,note_on,2,0,0,,1,,,73,127
7632,note_on,0,0,0,,4,,,76,127
7632,note_on,0,0,0,,7,,,67,127
7779,note_off,147,0,0,,7,,,67,127
7781,note_on,2,0,0,,11,,,70,127
7928,note_off,147,0,0,,11,,,70,127
7930,note_on,2,0,0,,7,,,67,127
8077,note_off,147,0,0,,7,,,67,127
8077,note_off,0,0,0,,4,,,76,127
8077,note_off,0,0,0,,1,,,73,127
8079,note_on,2,0,0,,1,,,73,127
8079,note_on,0,0,0,,5,,,77,127
8079,note_on,0,0,0,,5,,,65,127
8226,note_off,147,0,0,,5,,,65,127
8228,note_on,2,0,0,,8,,,68,127
8375,note_off,147,0,0,,8,,,68,127
8377,note_on,2,0,0,,5,,,65,127
8524,note_off,147,0,0,,5,,,65,127
8524,note_off,0,0,0,,5,,,77,127
8524,note_off,0,0,0,,1,,,73,127
8526,note_on,2,0,0,,0,,,72,127
8526,note_on,0,0,0,,7,,,79,127
8526,note_on,0,0,0,,4,,,64,127
8673,note_off,147,0,0,,4,,,64,127
8675,note_on,2,0,0,,7,,,67,127
8822,note_off,147,0,0,,7,,,67,127
8824,note_on,2,0,0,,4,,,64,127
8971,note_off,147,0,0,,4,,,64,127
8971,note_off,0,0,0,,7,,,79,127
8971,note_off,0,0,0,,0,,,72,127
8973,note_on,2,0,0,,11,,,82,127
8973,note_on,0,0,0,,5,,,65,127
9046,note_off,73,0,0,,11,,,82,127
9048,note_on,2,0,0,,8,,,80,127
9121,note_off,73,0,0,,8,,,80,127
9123,note_on,2,0,0,,7,,,79,127
9270,note_off,147,0,0,,7,,,79,127
9272,note_on,2,0,0,,8,,,80,127
9419,note_off,147,0,0,,8,,,80,127
9419,note_off,0,0,0,,5,,,65,127
9421,note_on,2,0,0,,8,,,80,127
9421,note_on,0,0,0,,11,,,58,127
9494,note_off,73,0,0,,8,,,80,127
9496,note_on,2,0,0,,7,,,79,127
9569,note_off,73,0,0,,7,,,79,127
9571,note_on,2,0,0,,5,,,77,127
9718,note_off,147,0,0,,5,,,77,127
9720,note_on,2,0,0,,7,,,79,127
9867,note_off,147,0,0,,7,,,79,127
9867,note_off,0,0,0,,11,,,58,127
9869,note_on,2,0,0,,7,,,79,127
9869,note_on,0,0,0,,1,,,61,127
9942,note_off,73,0,0,,7,,,79,127
9944,note_on,2,0,0,,5,,,77,127
10017,note_off,73,0,0,,5,,,77,127
10019,note_on,2,0,0,,4,,,76,127
10166,note_off,147,0,0,,4,,,76,127
10168,note_on,2,0,0,,5,,,77,127
10315,note_off,147,0,0,,5,,,77,127
10315,note_off,0,0,0,,1,,,61,127
10317,note_on,2,0,0,,5,,,77,127
10317,note_on,0,0,0,,0,,,60,127
10365,note_off,48,0,0,,5,,,77,127
10367,note_on,2,0,0,,4,,,76,127
10415,note_off,48,0,0,,4,,,76,127
10417,note_on,2,0,0,,5,,,77,127
10465,note_off,48,0,0,,5,,,77,127
10467,note_on,2,0,0,,4,,,76,127
10690,note_off,223,0,0,,4,,,76,127
10763,note_off,73,0,0,,0,,,60,127
10765,note_on,2,0,0,,11,,,82,127
10765,note_on,0,0,0,,4,,,64,127
10912,note_off,147,0,0,,11,,,82,127
10914,note_on,2,0,0,,7,,,79,127
11061,note_off,147,0,0,,7,,,79,127
11063,note_on,2,0,0,,0,,,72,127
11210,note_off,147,0,0,,0,,,72,127
11210,note_off,0,0,0,,4,,,64,127
11212,note_on,2,0,0,,11,,,82,127
11212,note_on,0,0,0,,5,,,65,127
11359,note_off,147,0,0,,11,,,82,127
11361,note_on,2,0,0,,8,,,80,127
11508,note_off,147,0,0,,8,,,80,127
11510,note_on,2,0,0,,0,,,72,127
11657,note_off,147,0,0,,0,,,72,127
11657,note_off,0,0,0,,5,,,65,127
11659,note_on,2,0,0,,8,,,80,127
11659,note_on,0,0,0,,1,,,61,127
11806,note_off,147,0,0,,8,,,80,127
11808,note_on,2,0,0,,5,,,77,127
11955,note_off,147,0,0,,5,,,77,127
11957,note_on,2,0,0,,12,,,71,127
12104,note_off,147,0,0,,12,,,71,127
12104,note_off,0,0,0,,1,,,61,127
12106,note_on,2,0,0,,8,,,80,127
12106,note_on,0,0,0,,3,,,63,127
12253,note_off,147,0,0,,8,,,80,127
12255,note_on,2,0,0,,7,,,79,127
12402,note_off,147,0,0,,7,,,79,127
12404,note_on,2,0,0,,0,,,72,127
12551,note_off,147,0,0,,0,,,72,127
12551,note_off,0,0,0,,3,,,63,127
12553,note_on,2,0,0,,7,,,79,127
12553,note_on,0,0,0,,0,,,60,127
12700,note_off,147,0,0,,7,,,79,127
12702,note_on,2,0,0,,3,,,75,127
12849,note_off,147,0,0,,3,,,75,127
12851,note_on,2,0,0,,8,,,68,127
12998,note_off,147,0,0,,8,,,68,127
12998,note_off,0,0,0,,0,,,60,127
13000,note_on,2,0,0,,7,,,79,127
13000,note_on,0,0,0,,1,,,61,127
13147,note_off,147,0,0,,7,,,79,127
13149,note_on,2,0,0,,5,,,77,127
13296,note_off,147,0,0,,5,,,77,127
13298,note_on,2,0,0,,8,,,68,127
13445,note_off,147,0,0,,8,,,68,127
13445,note_off,0,0,0,,1,,,61,127
13447,note_on,2,0,0,,5,,,77,127
13447,note_on,0,0,0,,12,,,59,127
13594,note_off,147,0,0,,5,,,77,127
13596,note_on,2,0,0,,2,,,74,127
13743,note_off,147,0,0,,2,,,74,127
13745,note_on,2,0,0,,7,,,67,127
13892,note_off,147,0,0,,7,,,67,127
13892,note_off,0,0,0,,12,,,59,127
13894,note_on,2,0,0,,5,,,77,127
13894,note_on,0,0,0,,0,,,60,127
14041,note_off,147,0,0,,5,,,77,127
14043,note_on,2,0,0,,3,,,75,127
14190,note_off,147,0,0,,3,,,75,127
14192,note_on,2,0,0,,7,,,67,127
14339,note_off,147,0,0,,0,,,60,127
14341,note_on,2,0,0,,3,,,51,127
14488,note_off,147,0,0,,7,,,67,127
14490,note_on,2,0,0,,0,,,72,127
14637,note_off,147,0,0,,0,,,72,127
14639,note_on,2,0,0,,3,,,75,127
14786,note_off,147,0,0,,3,,,51,127
14788,note_on,2,0,0,,5,,,53,127
14926,note_off,138,0,0,,3,,,75,127
14937,note_on,11,0,0,,2,,,74,127
15084,note_off,147,0,0,,2,,,74,127
15086,note_on,2,0,0,,5,,,77,127
15233,note_off,147,0,0,,5,,,53,127
15235,note_on,2,0,0,,8,,,56,127
15369,note_off,134,0,0,,5,,,77,127
15384,note_on,15,0,0,,12,,,71,127
15531,note_off,147,0,0,,12,,,71,127
15533,note_on,2,0,0,,0,,,72,127
15680,note_off,147,0,0,,0,,,72,127
15680,note_off,0,0,0,,8,,,56,127
15682,note_on,2,0,0,,2,,,74,127
15682,note_on,0,0,0,,7,,,55,127
15829,note_off,147,0,0,,2,,,74,127
15831,note_on,2,0,0,,12,,,71,127
15978,note_off,147,0,0,,12,,,71,127
15980,note_on,2,0,0,,7,,,67,127
16127,note_off,147,0,0,,7,,,67,127
16127,note_off,0,0,0,,7,,,55,127
16129,note_on,2,0,0,,5,,,65,127
16129,note_on,0,0,0,,8,,,56,127
16276,note_off,147,0,0,,5,,,65,127
16278,note_on,2,0,0,,8,,,68,127
16425,note_off,147,0,0,,8,,,68,127
16427,note_on,2,0,0,,0,,,72,127
16574,note_off,147,0,0,,0,,,72,127
16574,note_off,0,0,0,,8,,,56,127
16576,note_on,2,0,0,,2,,,74,127
16576,note_on,0,0,0,,7,,,55,127
16723,note_off,147,0,0,,2,,,74,127
16725,note_on,2,0,0,,12,,,71,127
16872,note_off,147,0,0,,12,,,71,127
16874,note_on,2,0,0,,7,,,67,127
16979,note_off,105,0,0,,7,,,55,127
17021,note_off,42,0,0,,7,,,67,127
17023,note_on,2,0,0,,5,,,65,127
17023,note_on,0,0,0,,8,,,44,127
17170,note_off,147,0,0,,5,,,65,127
17172,note_on,2,0,0,,8,,,68,127
17319,note_off,147,0,0,,8,,,68,127
17321,note_on,2,0,0,,0,,,60,127
17468,note_off,147,0,0,,0,,,60,127
17468,note_off,0,0,0,,8,,,44,127
17470,note_on,2,0,0,,0,,,60,127
17470,note_on,0,0,0,,7,,,43,127
17518,note_off,48,0,0,,0,,,60,127
17520,note_on,2,0,0,,12,,,59,127
17568,note_off,48,0,0,,12,,,59,127
17570,note_on,2,0,0,,0,,,60,127
17618,note_off,48,0,0,,0,,,60,127
17620,note_on,2,0,0,,12,,,59,127
17882,note_off,262,0,0,,7,,,43,127
17916,note_off,34,0,0,,12,,,59,127
17918,note_on,2,0,0,,2,,,74,127
17918,note_on,0,0,0,,7,,,55,127
18065,note_off,147,0,0,,7,,,55,127
18067,note_on,2,0,0,,2,,,62,127
18214,note_off,147,0,0,,2,,,62,127
18216,note_on,2,0,0,,5,,,65,127
18363,note_off,147,0,0,,5,,,65,127
18363,note_off,0,0,0,,2,,,74,127
18365,note_on,2,0,0,,2,,,74,127
18365,note_on,0,0,0,,8,,,56,127
18512,note_off,147,0,0,,8,,,56,127
18514,note_on,2,0,0,,2,,,62,127
18661,note_off,147,0,0,,2,,,62,127
18663,note_on,2,0,0,,5,,,65,127
18810,note_off,147,0,0,,5,,,65,127
18810,note_off,0,0,0,,2,,,74,127
18812,note_on,2,0,0,,2,,,74,127
18812,note_on,0,0,0,,12,,,59,127
18959,note_off,147,0,0,,12,,,59,127
18961,note_on,2,0,0,,2,,,62,127
19108,note_off,147,0,0,,2,,,62,127
19110,note_on,2,0,0,,5,,,65,127
19257,note_off,147,0,0,,5,,,65,127
19257,note_off,0,0,0,,2,,,74,127
19259,note_on,2,0,0,,2,,,74,127
19259,note_on,0,0,0,,0,,,60,127
19406,note_off,147,0,0,,0,,,60,127
19408,note_on,2,0,0,,5,,,65,127
19555,note_off,147,0,0,,5,,,65,127
19557,note_on,2,0,0,,8,,,68,127
19704,note_off,147,0,0,,8,,,68,127
19704,note_off,0,0,0,,2,,,74,127
19706,note_on,2,0,0,,11,,,82,127
19706,note_on,0,0,0,,2,,,62,127
19853,note_off,147,0,0,,2,,,62,127
19855,note_on,2,0,0,,5,,,65,127
20002,note_off,147,0,0,,5,,,65,127
20002,note_off,0,0,0,,11,,,82,127
20004,note_on,2,0,0,,8,,,80,127
20004,note_on,0,0,0,,12,,,71,127
20151,note_off,147,0,0,,12,,,71,127
20153,note_on,2,0,0,,0,,,72,127
20153,note_on,0,0,0,,3,,,63,127
20300,note_off,147,0,0,,8,,,80,127
20302,note_on,2,0,0,,7,,,79,127
20302,note_on,0,0,0,,3,,,75,127
20448,note_off,146,0,0,,0,,,72,127
20450,note_off,2,0,0,,3,,,75,127
20450,note_off,0,0,0,,7,,,79,127
20450,note_off,0,0,0,,3,,,63,127
20452,note_on,2,0,0,,2,,,74,127
20452,note_on,0,0,0,,5,,,77,127
20452,note_on,0,0,0,,5,,,65,127
20599,note_off,147,0,0,,5,,,65,127
20601,note_on,2,0,0,,7,,,67,127
20748,note_off,147,0,0,,5,,,77,127
20748,note_off,0,0,0,,2,,,74,127
20750,note_on,2,0,0,,3,,,75,127
20750,note_on,0,0,0,,0,,,72,127
20897,note_off,147,0,0,,0,,,72,127
20897,note_off,0,0,0,,3,,,75,127
20897,note_off,0,0,0,,7,,,67,127
20899,note_on,2,0,0,,2,,,74,127
20899,note_on,0,0,0,,12,,,71,127
20899,note_on,0,0,0,,7,,,55,127
21046,note_off,147,0,0,,7,,,55,127
21046,note_off,0,0,0,,12,,,71,127
21046,note_off,0,0,0,,2,,,74,127
21048,note_on,2,0,0,,0,,,72,127
21048,note_on,0,0,0,,0,,,48,127
21420,note_off,372,0,0,,0,,,72,127
21493,note_off,73,0,0,,0,,,48,127
21495,note_on,2,0,0,,2,,,74,127
21495,note_on,0,0,0,,7,,,55,127
21642,note_off,147,0,0,,7,,,55,127
21644,note_on,2,0,0,,2,,,62,127
21791,note_off,147,0,0,,2,,,62,127
21793,note_on,2,0,0,,5,,,65,127
21940,note_off,147,0,0,,5,,,65,127
21940,note_off,0,0,0,,2,,,74,127
21942,note_on,2,0,0,,2,,,74,127
21942,note_on,0,0,0,,8,,,56,127
22089,note_off,147,0,0,,8,,,56,127
22091,note_on,2,0,0,,2,,,62,127
22238,note_off,147,0,0,,2,,,62,127
22240,note_on,2,0,0,,5,,,65,127
22387,note_off,147,0,0,,5,,,65,127
22387,note_off,0,0,0,,2,,,74,127
22389,note_on,2,0,0,,2,,,74,127
22389,note_on,0,0,0,,12,,,59,127
22536,note_off,147,0,0,,12,,,59,127
22538,note_on,2,0,0,,2,,,62,127
22685,note_off,147,0,0,,2,,,62,127
22687,note_on,2,0,0,,5,,,65,127
22834,note_off,147,0,0,,5,,,65,127
22834,note_off,0,0,0,,2,,,74,127
22836,note_on,2,0,0,,2,,,74,127
22836,note_on,0,0,0,,0,,,60,127
22983,note_off,147,0,0,,0,,,60,127
22985,note_on,2,0,0,,5,,,65,127
23132,note_off,147,0,0,,5,,,65,127
23134,note_on,2,0,0,,8,,,68,127
23281,note_off,147,0,0,,8,,,68,127
23281,note_off,0,0,0,,2,,,74,127
23283,note_on,2,0,0,,11,,,82,127
23283,note_on,0,0,0,,2,,,62,127
23430,note_off,147,0,0,,2,,,62,127
23432,note_on,2,0,0,,5,,,65,127
23579,note_off,147,0,0,,5,,,65,127
23579,note_off,0,0,0,,11,,,82,127
23581,note_on,2,0,0,,8,,,80,127
23581,note_on,0,0,0,,12,,,71,127
23728,note_off,147,0,0,,12,,,71,127
23730,note_on,2,0,0,,0,,,72,127
23730,note_on,0,0,0,,3,,,63,127
23860,note_off,130,0,0,,8,,,80,127
23879,note_on,19,0,0,,3,,,75,127
23879,note_on,0,0,0,,7,,,79,127
24025,note_off,146,0,0,,0,,,72,127
24027,note_off,2,0,0,,7,,,79,127
24027,note_off,0,0,0,,3,,,75,127
24027,note_off,0,0,0,,3,,,63,127
24029,note_on,2,0,0,,5,,,77,127
24029,note_on,0,0,0,,2,,,74,127
24029,note_on,0,0,0,,5,,,65,127
24176,note_off,147,0,0,,5,,,65,127
24178,note_on,2,0,0,,7,,,67,127
24324,note_off,146,0,0,,5,,,77,127
24326,note_off,2,0,0,,2,,,74,127
24328,note_on,2,0,0,,0,,,72,127
24328,note_on,0,0,0,,3,,,75,127
24475,note_off,147,0,0,,3,,,75,127
24475,note_off,0,0,0,,0,,,72,127
24475,note_off,0,0,0,,7,,,67,127
24477,note_on,2,0,0,,2,,,74,127
24477,note_on,0,0,0,,12,,,71,127
24477,note_on,0,0,0,,7,,,55,127
24624,note_off,147,0,0,,7,,,55,127
24624,note_off,0,0,0,,12,,,71,127
24624,note_off,0,0,0,,2,,,74,127
24626,note_on,2,0,0,,0,,,72,127
24626,note_on,0,0,0,,0,,,60,127
24773,note_off,147,0,0,,0,,,60,127
24775,note_on,2,0,0,,2,,,62,127
24922,note_off,147,0,0,,2,,,62,127
24922,note_off,0,0,0,,0,,,72,127
24924,note_on,2,0,0,,7,,,79,127
24924,note_on,0,0,0,,3,,,63,127
25071,note_off,147,0,0,,3,,,63,127
25071,note_off,0,0,0,,7,,,79,127
25073,note_on,2,0,0,,8,,,80,127
25073,note_on,0,0,0,,5,,,65,127
25220,note_off,147,0,0,,8,,,80,127
25222,note_on,2,0,0,,0,,,84,127
25222,note_on,0,0,0,,0,,,72,127
25369,note_off,147,0,0,,0,,,72,127
25369,note_off,0,0,0,,0,,,84,127
25371,note_on,2,0,0,,12,,,83,127
25371,note_on,0,0,0,,12,,,71,127
25518,note_off,147,0,0,,12,,,71,127
25518,note_off,0,0,0,,12,,,83,127
25518,note_off,0,0,0,,5,,,65,127
25520,note_on,2,0,0,,0,,,84,127
25520,note_on,0,0,0,,0,,,72,127
25520,note_on,0,0,0,,5,,,65,127
25593,note_off,73,0,0,,5,,,65,127
25595,note_on,2,0,0,,3,,,63,127
25668,note_off,73,0,0,,3,,,63,127
25670,note_on,2,0,0,,2,,,62,127
25817,note_off,147,0,0,,2,,,62,127
25817,note_off,0,0,0,,0,,,72,127
25817,note_off,0,0,0,,0,,,84,127
25819,note_on,2,0,0,,7,,,79,127
25819,note_on,0,0,0,,0,,,60,127
25966,note_off,147,0,0,,0,,,60,127
25966,note_off,0,0,0,,7,,,79,127
25968,note_on,2,0,0,,8,,,80,127
25968,note_on,0,0,0,,5,,,65,127
26115,note_off,147,0,0,,8,,,80,127
26117,note_on,2,0,0,,0,,,72,127
26117,note_on,0,0,0,,0,,,84,127
26264,note_off,147,0,0,,0,,,84,127
26264,note_off,0,0,0,,0,,,72,127
26266,note_on,2,0,0,,12,,,83,127
26266,note_on,0,0,0,,12,,,71,127
26413,note_off,147,0,0,,12,,,71,127
26413,note_off,0,0,0,,12,,,83,127
26413,note_off,0,0,0,,5,,,65,127
26415,note_on,2,0,0,,0,,,84,127
26415,note_on,0,0,0,,0,,,72,127
26415,note_on,0,0,0,,5,,,65,127
26488,note_off,73,0,0,,5,,,65,127
26490,note_on,2,0,0,,3,,,63,127
26563,note_off,73,0,0,,3,,,63,127
26565,note_on,2,0,0,,2,,,62,127
26712,note_off,147,0,0,,2,,,62,127
26712,note_off,0,0,0,,0,,,72,127
26712,note_off,0,0,0,,0,,,84,127
26714,note_on,2,0,0,,7,,,79,127
26714,note_on,0,0,0,,0,,,60,127
26861,note_off,147,0,0,,0,,,60,127
26861,note_off,0,0,0,,7,,,79,127
26863,note_on,2,0,0,,8,,,80,127
26863,note_on,0,0,0,,5,,,65,127
27010,note_off,147,0,0,,8,,,80,127
27012,note_on,2,0,0,,0,,,72,127
27012,note_on,0,0,0,,0,,,84,127
27159,note_off,147,0,0,,0,,,84,127
27159,note_off,0,0,0,,0,,,72,127
27161,note_on,2,0,0,,12,,,71,127
27161,note_on,0,0,0,,12,,,83,127
27308,note_off,147,0,0,,12,,,83,127
27308,note_off,0,0,0,,12,,,71,127
27308,note_off,0,0,0,,5,,,65,127
27310,note_on,2,0,0,,0,,,84,127
27310,note_on,0,0,0,,0,,,72,127
27310,note_on,0,0,0,,3,,,63,127
27457,note_off,147,0,0,,0,,,84,127
27459,note_on,2,0,0,,7,,,79,127
27605,note_off,146,0,0,,0,,,72,127
27607,note_off,2,0,0,,7,,,79,127
27607,note_off,0,0,0,,3,,,63,127
27609,note_on,2,0,0,,2,,,74,127
27609,note_on,0,0,0,,5,,,77,127
27609,note_on,0,0,0,,5,,,65,127
27756,note_off,147,0,0,,5,,,65,127
27758,note_on,2,0,0,,7,,,67,127
27905,note_off,147,0,0,,5,,,77,127
27905,note_off,0,0,0,,2,,,74,127
27907,note_on,2,0,0,,3,,,75,127
27907,note_on,0,0,0,,0,,,72,127
28054,note_off,147,0,0,,0,,,72,127
28054,note_off,0,0,0,,3,,,75,127
28054,note_off,0,0,0,,7,,,67,127
28056,note_on,2,0,0,,2,,,74,127
28056,note_on,0,0,0,,12,,,71,127
28056,note_on,0,0,0,,7,,,55,127
28203,note_off,147,0,0,,7,,,55,127
28203,note_off,0,0,0,,12,,,71,127
28203,note_off,0,0,0,,2,,,74,127
28205,note_on,2,0,0,,0,,,72,127
28205,note_on,0,0,0,,0,,,48,127
28205,note_on,0,0,0,,0,,,36,127
28352,note_off,147,0,0,,0,,,36,127
28352,note_off,0,0,0,,0,,,48,127
28354,note_on,2,0,0,,2,,,38,127
28354,note_on,0,0,0,,2,,,50,127
28501,note_off,147,0,0,,2,,,50,127
28501,note_off,0,0,0,,2,,,38,127
28501,note_off,0,0,0,,0,,,72,127
28503,note_on,2,0,0,,7,,,67,127
28503,note_on,0,0,0,,3,,,51,127
28503,note_on,0,0,0,,3,,,39,127
28650,note_off,147,0,0,,3,,,39,127
28650,note_off,0,0,0,,3,,,51,127
28650,note_off,0,0,0,,7,,,67,127
28652,note_on,2,0,0,,8,,,68,127
28652,note_on,0,0,0,,5,,,53,127
28652,note_on,0,0,0,,5,,,41,127
28799,note_off,147,0,0,,8,,,68,127
28801,note_on,2,0,0,,0,,,72,127
28801,note_on,0,0,0,,0,,,60,127
28948,note_off,147,0,0,,0,,,60,127
28948,note_off,0,0,0,,0,,,72,127
28950,note_on,2,0,0,,12,,,59,127
28950,note_on,0,0,0,,12,,,71,127
29097,note_off,147,0,0,,12,,,71,127
29097,note_off,0,0,0,,12,,,59,127
29097,note_off,0,0,0,,5,,,41,127
29097,note_off,0,0,0,,5,,,53,127
29099,note_on,2,0,0,,0,,,72,127
29099,note_on,0,0,0,,0,,,60,127
29099,note_on,0,0,0,,3,,,51,127
29099,note_on,0,0,0,,3,,,39,127
29246,note_off,147,0,0,,3,,,39,127
29246,note_off,0,0,0,,3,,,51,127
29248,note_on,2,0,0,,2,,,50,127
29248,note_on,0,0,0,,2,,,38,127
29395,note_off,147,0,0,,2,,,38,127
29395,note_off,0,0,0,,2,,,50,127
29395,note_off,0,0,0,,0,,,60,127
29395,note_off,0,0,0,,0,,,72,127
29397,note_on,2,0,0,,7,,,67,127
29397,note_on,0,0,0,,0,,,36,127
29397,note_on,0,0,0,,0,,,48,127
29544,note_off,147,0,0,,0,,,48,127
29544,note_off,0,0,0,,0,,,36,127
29544,note_off,0,0,0,,7,,,67,127
29546,note_on,2,0,0,,8,,,68,127
29546,note_on,0,0,0,,5,,,53,127
29546,note_on,0,0,0,,5,,,41,127
29693,note_off,147,0,0,,8,,,68,127
29695,note_on,2,0,0,,0,,,72,127
29695,note_on,0,0,0,,0,,,60,127
29842,note_off,147,0,0,,0,,,60,127
29842,note_off,0,0,0,,0,,,72,127
29844,note_on,2,0,0,,12,,,71,127
29844,note_on,0,0,0,,12,,,59,127
29991,note_off,147,0,0,,12,,,59,127
29991,note_off,0,0,0,,12,,,71,127
29991,note_off,0,0,0,,5,,,41,127
29991,note_off,0,0,0,,5,,,53,127
29993,note_on,2,0,0,,0,,,72,127
29993,note_on,0,0,0,,0,,,60,127
29993,note_on,0,0,0,,3,,,51,127
29993,note_on,0,0,0,,3,,,39,127
30140,note_off,147,0,0,,3,,,39,127
30140,note_off,0,0,0,,3,,,51,127
30142,note_on,2,0,0,,2,,,50,127
30142,note_on,0,0,0,,2,,,38,127
30289,note_off,147,0,0,,2,,,38,127
30289,note_off,0,0,0,,2,,,50,127
30289,note_off,0,0,0,,0,,,60,127
30289,note_off,0,0,0,,0,,,72,127
30291,note_on,2,0,0,,7,,,67,127
30291,note_on,0,0,0,,0,,,48,127
30291,note_on,0,0,0,,0,,,36,127
30438,note_off,147,0,0,,0,,,36,127
30438,note_off,0,0,0,,0,,,48,127
30438,note_off,0,0,0,,7,,,67,127
30440,note_on,2,0,0,,8,,,68,127
30440,note_on,0,0,0,,5,,,53,127
30440,note_on,0,0,0,,5,,,41,127
30587,note_off,147,0,0,,8,,,68,127
30589,note_on,2,0,0,,0,,,72,127
30589,note_on,0,0,0,,0,,,60,127
30736,note_off,147,0,0,,0,,,60,127
30736,note_off,0,0,0,,0,,,72,127
30738,note_on,2,0,0,,12,,,71,127
30738,note_on,0,0,0,,12,,,59,127
30885,note_off,147,0,0,,12,,,59,127
30885,note_off,0,0,0,,12,,,71,127
30885,note_off,0,0,0,,5,,,41,127
30885,note_off,0,0,0,,5,,,53,127
30887,note_on,2,0,0,,0,,,72,127
30887,note_on,0,0,0,,0,,,60,127
30887,note_on,0,0,0,,3,,,51,127
30887,note_on,0,0,0,,3,,,39,127
31034,note_off,147,0,0,,0,,,60,127
31034,note_off,0,0,0,,0,,,72,127
31036,note_on,2,0,0,,7,,,67,127
31183,note_off,147,0,0,,7,,,67,127
31183,note_off,0,0,0,,3,,,39,127
31183,note_off,0,0,0,,3,,,51,127
31185,note_on,2,0,0,,5,,,65,127
31185,note_on,0,0,0,,2,,,62,127
31185,note_on,0,0,0,,5,,,53,127
31185,note_on,0,0,0,,5,,,41,127
31332,note_off,147,0,0,,5,,,41,127
31332,note_off,0,0,0,,5,,,53,127
31334,note_on,2,0,0,,7,,,55,127
31481,note_off,147,0,0,,2,,,62,127
31481,note_off,0,0,0,,5,,,65,127
31483,note_on,2,0,0,,0,,,60,127
31483,note_on,0,0,0,,3,,,63,127
31630,note_off,147,0,0,,3,,,63,127
31630,note_off,0,0,0,,0,,,60,127
31630,note_off,0,0,0,,7,,,55,127
31632,note_on,2,0,0,,12,,,59,127
31632,note_on,0,0,0,,2,,,62,127
31632,note_on,0,0,0,,7,,,43,127
31779,note_off,147,0,0,,7,,,43,127
31779,note_off,0,0,0,,2,,,62,127
31779,note_off,0,0,0,,12,,,59,127
31781,note_on,2,0,0,,0,,,60,127
31781,note_on,0,0,0,,0,,,36,127
32153,note_off,372,0,0,,0,,,36,127
32227,note_off,74,0,0,,0,,,60,127
32228,note_on,1,0,0,,0,,,84,127
32228,note_on,0,0,0,,0,,,60,127
32375,note_off,147,0,0,,0,,,60,127
32377,note_on,2,0,0,,3,,,63,127
32524,note_off,147,0,0,,3,,,63,127
32526,note_on,2,0,0,,0,,,60,127
32673,note_off,147,0,0,,0,,,60,127
32673,note_off,0,0,0,,0,,,84,127
32675,note_on,2,0,0,,0,,,72,127
32675,note_on,0,0,0,,8,,,56,127
32822,note_off,147,0,0,,8,,,56,127
32824,note_on,2,0,0,,0,,,60,127
32971,note_off,147,0,0,,0,,,60,127
32973,note_on,2,0,0,,8,,,56,127
33120,note_off,147,0,0,,8,,,56,127
33120,note_off,0,0,0,,0,,,72,127
33122,note_on,2,0,0,,11,,,58,127
33122,note_on,0,0,0,,11,,,46,127
33269,note_off,147,0,0,,11,,,46,127
33271,note_on,2,0,0,,11,,,34,127
33418,note_off,147,0,0,,11,,,34,127
33420,note_on,2,0,0,,11,,,46,127
33567,note_off,147,0,0,,11,,,46,127
33568,note_off,1,0,0,,11,,,58,127
33569,note_on,1,0,0,,3,,,51,127
33569,note_on,0,0,0,,3,,,39,127
33995,note_off,426,0,0,,3,,,51,127
34014,note_off,19,0,0,,3,,,39,127
34016,note_on,2,0,0,,2,,,86,127
34016,note_on,0,0,0,,0,,,60,127
34064,note_off,48,0,0,,2,,,86,127
34066,note_on,2,0,0,,0,,,84,127
34114,note_off,48,0,0,,0,,,84,127
34116,note_on,2,0,0,,2,,,86,127
34164,note_off,48,0,0,,2,,,86,127
34164,note_off,0,0,0,,0,,,60,127
34166,note_on,2,0,0,,0,,,84,127
34166,note_on,0,0,0,,3,,,63,127
34313,note_off,147,0,0,,3,,,63,127
34315,note_on,2,0,0,,0,,,60,127
34462,note_off,147,0,0,,0,,,60,127
34462,note_off,0,0,0,,0,,,84,127
34464,note_on,2,0,0,,2,,,74,127
34464,note_on,0,0,0,,8,,,56,127
34512,note_off,48,0,0,,2,,,74,127
34514,note_on,2,0,0,,0,,,72,127
34562,note_off,48,0,0,,0,,,72,127
34564,note_on,2,0,0,,2,,,74,127
34612,note_off,48,0,0,,2,,,74,127
34612,note_off,0,0,0,,8,,,56,127
34614,note_on,2,0,0,,0,,,72,127
34614,note_on,0,0,0,,0,,,60,127
34761,note_off,147,0,0,,0,,,60,127
34763,note_on,2,0,0,,8,,,56,127
34910,note_off,147,0,0,,8,,,56,127
34910,note_off,0,0,0,,0,,,72,127
34912,note_on,2,0,0,,0,,,60,127
34912,note_on,0,0,0,,11,,,46,127
34960,note_off,48,0,0,,0,,,60,127
34962,note_on,2,0,0,,11,,,58,127
35010,note_off,48,0,0,,11,,,58,127
35012,note_on,2,0,0,,0,,,60,127
35060,note_off,48,0,0,,0,,,60,127
35060,note_off,0,0,0,,11,,,46,127
35062,note_on,2,0,0,,11,,,58,127
35062,note_on,0,0,0,,11,,,34,127
35209,note_off,147,0,0,,11,,,34,127
35211,note_on,2,0,0,,11,,,46,127
35358,note_off,147,0,0,,11,,,46,127
35358,note_off,0,0,0,,11,,,58,127
35360,note_on,2,0,0,,5,,,53,127
35360,note_on,0,0,0,,3,,,39,127
35408,note_off,48,0,0,,5,,,53,127
35410,note_on,2,0,0,,3,,,51,127
35458,note_off,48,0,0,,3,,,51,127
35460,note_on,2,0,0,,5,,,53,127
35508,note_off,48,0,0,,5,,,53,127
35510,note_on,2,0,0,,3,,,51,127
35779,note_off,269,0,0,,3,,,39,127
35805,note_off,26,0,0,,3,,,51,127
35807,note_on,2,0,0,,7,,,67,127
35807,note_on,0,0,0,,11,,,70,127
35807,note_on,0,0,0,,3,,,63,127
35954,note_off,147,0,0,,3,,,63,127
35954,note_off,0,0,0,,7,,,67,127
35956,note_on,2,0,0,,7,,,67,127
36105,note_on,149,0,0,,3,,,63,127
36251,note_off,146,0,0,,7,,,67,127
36253,note_off,2,0,0,,3,,,63,127
36253,note_off,0,0,0,,11,,,70,127
36255,note_on,2,0,0,,12,,,71,127
36255,note_on,0,0,0,,8,,,68,127
36255,note_on,0,0,0,,2,,,62,127
36402,note_off,147,0,0,,2,,,62,127
36404,note_on,2,0,0,,5,,,65,127
36551,note_off,147,0,0,,5,,,65,127
36553,note_on,2,0,0,,2,,,62,127
36700,note_off,147,0,0,,2,,,62,127
36700,note_off,0,0,0,,8,,,68,127
36700,note_off,0,0,0,,12,,,71,127
36702,note_on,2,0,0,,0,,,72,127
36702,note_on,0,0,0,,8,,,68,127
36702,note_on,0,0,0,,0,,,60,127
36849,note_off,147,0,0,,0,,,60,127
36851,note_on,2,0,0,,3,,,63,127
36998,note_off,147,0,0,,3,,,63,127
37000,note_on,2,0,0,,0,,,60,127
37147,note_off,147,0,0,,0,,,60,127
37147,note_off,0,0,0,,8,,,68,127
37147,note_off,0,0,0,,0,,,72,127
37149,note_on,2,0,0,,2,,,74,127
37149,note_on,0,0,0,,8,,,68,127
37149,note_on,0,0,0,,12,,,59,127
37296,note_off,147,0,0,,12,,,59,127
37298,note_on,2,0,0,,2,,,62,127
37445,note_off,147,0,0,,2,,,62,127
37447,note_on,2,0,0,,12,,,59,127
37594,note_off,147,0,0,,12,,,59,127
37594,note_off,0,0,0,,8,,,68,127
37594,note_off,0,0,0,,2,,,74,127
37596,note_on,2,0,0,,11,,,70,127
37596,note_on,0,0,0,,2,,,74,127
37596,note_on,0,0,0,,8,,,56,127
37743,note_off,147,0,0,,8,,,56,127
37745,note_on,2,0,0,,5,,,65,127
37892,note_off,147,0,0,,5,,,65,127
37894,note_on,2,0,0,,8,,,56,127
38041,note_off,147,0,0,,8,,,56,127
38041,note_off,0,0,0,,2,,,74,127
38041,note_off,0,0,0,,11,,,70,127
38043,note_on,2,0,0,,11,,,70,127
38043,note_on,0,0,0,,3,,,75,127
38043,note_on,0,0,0,,7,,,55,127
38190,note_off,147,0,0,,7,,,55,127
38192,note_on,2,0,0,,3,,,63,127
38339,note_off,147,0,0,,3,,,63,127
38341,note_on,2,0,0,,7,,,55,127
38488,note_off,147,0,0,,7,,,55,127
38488,note_off,0,0,0,,3,,,75,127
38488,note_off,0,0,0,,11,,,70,127
38490,note_on,2,0,0,,8,,,68,127
38490,note_on,0,0,0,,5,,,77,127
38490,note_on,0,0,0,,5,,,53,127
38637,note_off,147,0,0,,5,,,53,127
38639,note_on,2,0,0,,2,,,62,127
38786,note_off,147,0,0,,2,,,62,127
38788,note_on,2,0,0,,11,,,58,127
38935,note_off,147,0,0,,11,,,58,127
38935,note_off,0,0,0,,5,,,77,127
38935,note_off,0,0,0,,8,,,68,127
38937,note_on,2,0,0,,11,,,70,127
38937,note_on,0,0,0,,7,,,79,127
38937,note_on,0,0,0,,3,,,51,127
39084,note_off,147,0,0,,7,,,79,127
39086,note_on,2,0,0,,5,,,77,127
39233,note_off,147,0,0,,5,,,77,127
39235,note_on,2,0,0,,3,,,75,127
39382,note_off,147,0,0,,3,,,75,127
39382,note_off,0,0,0,,3,,,51,127
39383,note_off,1,0,0,,11,,,70,127
39384,note_on,1,0,0,,7,,,79,127
39384,note_on,0,0,0,,3,,,63,127
39531,note_off,147,0,0,,3,,,63,127
39533,note_on,2,0,0,,7,,,67,127
39680,note_off,147,0,0,,7,,,67,127
39682,note_on,2,0,0,,11,,,70,127
39829,note_off,147,0,0,,11,,,70,127
39829,note_off,0,0,0,,7,,,79,127
39831,note_on,2,0,0,,7,,,79,127
39831,note_on,0,0,0,,5,,,77,127
39831,note_on,0,0,0,,1,,,61,127
39978,note_off,147,0,0,,1,,,61,127
39980,note_on,2,0,0,,5,,,65,127
40127,note_off,147,0,0,,5,,,65,127
40129,note_on,2,0,0,,11,,,70,127
40276,note_off,147,0,0,,11,,,70,127
40276,note_off,0,0,0,,5,,,77,127
40276,note_off,0,0,0,,7,,,79,127
40278,note_on,2,0,0,,4,,,76,127
40278,note_on,0,0,0,,7,,,79,127
40278,note_on,0,0,0,,0,,,60,127
40425,note_off,147,0,0,,7,,,79,127
40427,note_on,2,0,0,,8,,,80,127
40574,note_off,147,0,0,,8,,,80,127
40576,note_on,2,0,0,,11,,,82,127
40723,note_off,147,0,0,,11,,,82,127
40723,note_off,0,0,0,,0,,,60,127
40724,note_off,1,0,0,,4,,,76,127
40725,note_on,1,0,0,,8,,,80,127
40725,note_on,0,0,0,,5,,,77,127
40725,note_on,0,0,0,,5,,,65,127
40872,note_off,147,0,0,,8,,,80,127
40874,note_on,2,0,0,,7,,,79,127
41020,note_off,146,0,0,,5,,,77,127
41022,note_off,2,0,0,,7,,,79,127
41024,note_on,2,0,0,,5,,,77,127
41171,note_off,147,0,0,,5,,,77,127
41171,note_off,0,0,0,,5,,,65,127
41173,note_on,2,0,0,,8,,,80,127
41173,note_on,0,0,0,,5,,,77,127
41173,note_on,0,0,0,,8,,,56,127
41320,note_off,147,0,0,,8,,,80,127
41322,note_on,2,0,0,,0,,,84,127
41469,note_off,147,0,0,,0,,,84,127
41471,note_on,2,0,0,,8,,,80,127
41618,note_off,147,0,0,,8,,,80,127
41618,note_off,0,0,0,,8,,,56,127
41619,note_off,1,0,0,,5,,,77,127
41620,note_on,1,0,0,,7,,,79,127
41620,note_on,0,0,0,,11,,,58,127
41767,note_off,147,0,0,,7,,,79,127
41769,note_on,2,0,0,,11,,,82,127
41916,note_off,147,0,0,,11,,,82,127
41918,note_on,2,0,0,,7,,,79,127
42065,note_off,147,0,0,,7,,,79,127
42065,note_off,0,0,0,,11,,,58,127
42067,note_on,2,0,0,,5,,,77,127
42067,note_on,0,0,0,,1,,,61,127
42214,note_off,147,0,0,,5,,,77,127
42216,note_on,2,0,0,,8,,,80,127
42363,note_off,147,0,0,,8,,,80,127
42365,note_on,2,0,0,,5,,,77,127
42512,note_off,147,0,0,,5,,,77,127
42512,note_off,0,0,0,,1,,,61,127
42514,note_on,2,0,0,,4,,,76,127
42514,note_on,0,0,0,,0,,,60,127
42661,note_off,147,0,0,,4,,,76,127
42663,note_on,2,0,0,,5,,,77,127
42810,note_off,147,0,0,,5,,,77,127
42812,note_on,2,0,0,,7,,,79,127
42959,note_off,147,0,0,,7,,,79,127
42959,note_off,0,0,0,,0,,,60,127
42961,note_on,2,0,0,,4,,,64,127
42961,note_on,0,0,0,,0,,,36,127
43108,note_off,147,0,0,,4,,,64,127
43110,note_on,2,0,0,,7,,,67,127
43257,note_off,147,0,0,,7,,,67,127
43259,note_on,2,0,0,,11,,,70,127
43406,note_off,147,0,0,,11,,,70,127
43406,note_off,0,0,0,,0,,,36,127
43408,note_on,2,0,0,,8,,,68,127
43408,note_on,0,0,0,,0,,,36,127
43555,note_off,147,0,0,,8,,,68,127
43557,note_on,2,0,0,,5,,,65,127
43704,note_off,147,0,0,,5,,,65,127
43706,note_on,2,0,0,,0,,,72,127
43853,note_off,147,0,0,,0,,,72,127
43853,note_off,0,0,0,,0,,,36,127
43855,note_on,2,0,0,,12,,,71,127
43855,note_on,0,0,0,,0,,,36,127
44002,note_off,147,0,0,,12,,,71,127
44004,note_on,2,0,0,,2,,,62,127
44151,note_off,147,0,0,,2,,,62,127
44153,note_on,2,0,0,,5,,,65,127
44300,note_off,147,0,0,,5,,,65,127
44300,note_off,0,0,0,,0,,,36,127
44302,note_on,2,0,0,,4,,,64,127
44302,note_on,0,0,0,,0,,,36,127
44449,note_off,147,0,0,,4,,,64,127
44451,note_on,2,0,0,,7,,,67,127
44598,note_off,147,0,0,,7,,,67,127
44600,note_on,2,0,0,,11,,,70,127
44747,note_off,147,0,0,,11,,,70,127
44747,note_off,0,0,0,,0,,,36,127
44749,note_on,2,0,0,,1,,,73,127
44749,note_on,0,0,0,,0,,,36,127
44896,note_off,147,0,0,,1,,,73,127
44898,note_on,2,0,0,,11,,,70,127
45045,note_off,147,0,0,,11,,,70,127
45047,note_on,2,0,0,,7,,,67,127
45194,note_off,147,0,0,,7,,,67,127
45194,note_off,0,0,0,,0,,,36,127
45196,note_on,2,0,0,,8,,,68,127
45196,note_on,0,0,0,,0,,,36,127
45343,note_off,147,0,0,,8,,,68,127
45345,note_on,2,0,0,,5,,,65,127
45492,note_off,147,0,0,,5,,,65,127
45494,note_on,2,0,0,,2,,,62,127
45641,note_off,147,0,0,,0,,,36,127
45643,note_on,2,0,0,,0,,,36,127
45790,note_off,147,0,0,,2,,,62,127
45792,note_on,2,0,0,,0,,,60,127
45939,note_off,147,0,0,,0,,,60,127
45941,note_on,2,0,0,,12,,,59,127
46088,note_off,147,0,0,,12,,,59,127
46088,note_off,0,0,0,,0,,,36,127
46090,note_on,2,0,0,,1,,,61,127
46090,note_on,0,0,0,,0,,,36,127
46138,note_off,48,0,0,,1,,,61,127
46140,note_on,2,0,0,,0,,,60,127
46188,note_off,48,0,0,,0,,,60,127
46190,note_on,2,0,0,,1,,,61,127
46238,note_off,48,0,0,,1,,,61,127
46240,note_on,2,0,0,,0,,,60,127
46536,note_off,296,0,0,,0,,,60,127
46536,note_off,0,0,0,,0,,,36,127
46538,note_on,2,0,0,,7,,,79,127
46538,note_on,0,0,0,,0,,,60,127
46685,note_off,147,0,0,,0,,,60,127
46687,note_on,2,0,0,,7,,,67,127
46834,note_off,147,0,0,,7,,,67,127
46836,note_on,2,0,0,,11,,,70,127
46983,note_off,147,0,0,,11,,,70,127
46983,note_off,0,0,0,,7,,,79,127
46985,note_on,2,0,0,,7,,,79,127
46985,note_on,0,0,0,,1,,,61,127
47132,note_off,147,0,0,,1,,,61,127
47134,note_on,2,0,0,,7,,,67,127
47281,note_off,147,0,0,,7,,,67,127
47283,note_on,2,0,0,,11,,,70,127
47430,note_off,147,0,0,,11,,,70,127
47430,note_off,0,0,0,,7,,,79,127
47432,note_on,2,0,0,,7,,,79,127
47432,note_on,0,0,0,,4,,,64,127
47579,note_off,147,0,0,,4,,,64,127
47581,note_on,2,0,0,,7,,,67,127
47728,note_off,147,0,0,,7,,,67,127
47730,note_on,2,0,0,,11,,,70,127
47877,note_off,147,0,0,,11,,,70,127
47877,note_off,0,0,0,,7,,,79,127
47879,note_on,2,0,0,,7,,,79,127
47879,note_on,0,0,0,,5,,,65,127
48026,note_off,147,0,0,,5,,,65,127
48028,note_on,2,0,0,,11,,,70,127
48175,note_off,147,0,0,,11,,,70,127
48177,note_on,2,0,0,,1,,,73,127
48324,note_off,147,0,0,,1,,,73,127
48324,note_off,0,0,0,,7,,,79,127
48326,note_on,2,0,0,,3,,,87,127
48326,note_on,0,0,0,,7,,,67,127
48473,note_off,147,0,0,,7,,,67,127
48475,note_on,2,0,0,,11,,,70,127
48622,note_off,147,0,0,,11,,,70,127
48622,note_off,0,0,0,,3,,,87,127
48624,note_on,2,0,0,,1,,,85,127
48624,note_on,0,0,0,,4,,,76,127
48771,note_off,147,0,0,,4,,,76,127
48773,note_on,2,0,0,,5,,,77,127
48773,note_on,0,0,0,,8,,,68,127
48911,note_off,138,0,0,,1,,,85,127
48922,note_on,11,0,0,,0,,,84,127
48922,note_on,0,0,0,,8,,,80,127
49069,note_off,147,0,0,,8,,,80,127
49069,note_off,0,0,0,,0,,,84,127
49069,note_off,0,0,0,,8,,,68,127
49069,note_off,0,0,0,,5,,,77,127
49071,note_on,2,0,0,,11,,,82,127
49071,note_on,0,0,0,,7,,,79,127
49071,note_on,0,0,0,,11,,,70,127
49218,note_off,147,0,0,,11,,,70,127
49220,note_on,2,0,0,,0,,,72,127
49358,note_off,138,0,0,,11,,,82,127
49367,note_off,9,0,0,,7,,,79,127
49369,note_on,2,0,0,,8,,,80,127
49369,note_on,0,0,0,,5,,,77,127
49516,note_off,147,0,0,,5,,,77,127
49516,note_off,0,0,0,,8,,,80,127
49516,note_off,0,0,0,,0,,,72,127
49518,note_on,2,0,0,,7,,,79,127
49518,note_on,0,0,0,,4,,,76,127
49518,note_on,0,0,0,,0,,,60,127
49665,note_off,147,0,0,,0,,,60,127
49665,note_off,0,0,0,,4,,,76,127
49665,note_off,0,0,0,,7,,,79,127
49667,note_on,2,0,0,,5,,,77,127
49667,note_on,0,0,0,,5,,,53,127
50111,note_off,444,0,0,,5,,,53,127
50111,note_off,0,0,0,,5,,,77,127
50113,note_on,2,0,0,,7,,,79,127
50113,note_on,0,0,0,,0,,,60,127
50260,note_off,147,0,0,,0,,,60,127
50262,note_on,2,0,0,,7,,,67,127
50409,note_off,147,0,0,,7,,,67,127
50411,note_on,2,0,0,,11,,,70,127
50558,note_off,147,0,0,,11,,,70,127
50558,note_off,0,0,0,,7,,,79,127
50560,note_on,2,0,0,,7,,,79,127
50560,note_on,0,0,0,,1,,,61,127
50707,note_off,147,0,0,,1,,,61,127
50709,note_on,2,0,0,,7,,,67,127
50856,note_off,147,0,0,,7,,,67,127
50858,note_on,2,0,0,,11,,,70,127
51005,note_off,147,0,0,,11,,,70,127
51005,note_off,0,0,0,,7,,,79,127
51007,note_on,2,0,0,,7,,,79,127
51007,note_on,0,0,0,,4,,,64,127
51154,note_off,147,0,0,,4,,,64,127
51156,note_on,2,0,0,,7,,,67,127
51303,note_off,147,0,0,,7,,,67,127
51305,note_on,2,0,0,,11,,,70,127
51452,note_off,147,0,0,,11,,,70,127
51452,note_off,0,0,0,,7,,,79,127
51454,note_on,2,0,0,,7,,,79,127
51454,note_on,0,0,0,,5,,,65,127
51601,note_off,147,0,0,,5,,,65,127
51603,note_on,2,0,0,,11,,,70,127
51750,note_off,147,0,0,,11,,,70,127
51752,note_on,2,0,0,,1,,,73,127
51899,note_off,147,0,0,,1,,,73,127
51899,note_off,0,0,0,,7,,,79,127
51901,note_on,2,0,0,,3,,,87,127
51901,note_on,0,0,0,,7,,,67,127
52048,note_off,147,0,0,,7,,,67,127
52050,note_on,2,0,0,,11,,,70,127
52197,note_off,147,0,0,,11,,,70,127
52197,note_off,0,0,0,,3,,,87,127
52199,note_on,2,0,0,,1,,,85,127
52199,note_on,0,0,0,,4,,,76,127
52346,note_off,147,0,0,,4,,,76,127
52348,note_on,2,0,0,,5,,,77,127
52348,note_on,0,0,0,,8,,,68,127
52482,note_off,134,0,0,,1,,,85,127
52497,note_on,15,0,0,,0,,,84,127
52497,note_on,0,0,0,,8,,,80,127
52644,note_off,147,0,0,,8,,,80,127
52644,note_off,0,0,0,,0,,,84,127
52644,note_off,0,0,0,,8,,,68,127
52644,note_off,0,0,0,,5,,,77,127
52646,note_on,2,0,0,,11,,,82,127
52646,note_on,0,0,0,,7,,,79,127
52646,note_on,0,0,0,,11,,,70,127
52793,note_off,147,0,0,,11,,,70,127
52795,note_on,2,0,0,,0,,,72,127
52925,note_off,130,0,0,,11,,,82,127
52942,note_off,17,0,0,,7,,,79,127
52944,note_on,2,0,0,,8,,,80,127
52944,note_on,0,0,0,,5,,,77,127
53091,note_off,147,0,0,,5,,,77,127
53091,note_off,0,0,0,,8,,,80,127
53091,note_off,0,0,0,,0,,,72,127
53093,note_on,2,0,0,,4,,,76,127
53093,note_on,0,0,0,,7,,,79,127
53093,note_on,0,0,0,,0,,,60,127
53240,note_off,147,0,0,,0,,,60,127
53240,note_off,0,0,0,,7,,,79,127
53240,note_off,0,0,0,,4,,,76,127
53242,note_on,2,0,0,,5,,,77,127
53242,note_on,0,0,0,,5,,,65,127
53389,note_off,147,0,0,,5,,,65,127
53391,note_on,2,0,0,,7,,,67,127
53538,note_off,147,0,0,,7,,,67,127
53538,note_off,0,0,0,,5,,,77,127
53540,note_on,2,0,0,,0,,,84,127
53540,note_on,0,0,0,,8,,,68,127
53687,note_off,147,0,0,,8,,,68,127
53687,note_off,0,0,0,,0,,,84,127
53689,note_on,2,0,0,,1,,,85,127
53689,note_on,0,0,0,,11,,,70,127
53836,note_off,147,0,0,,1,,,85,127
53838,note_on,2,0,0,,5,,,89,127
53838,note_on,0,0,0,,5,,,77,127
53985,note_off,147,0,0,,5,,,77,127
53985,note_off,0,0,0,,5,,,89,127
53987,note_on,2,0,0,,4,,,88,127
53987,note_on,0,0,0,,4,,,76,127
54134,note_off,147,0,0,,4,,,76,127
54134,note_off,0,0,0,,4,,,88,127
54134,note_off,0,0,0,,11,,,70,127
54136,note_on,2,0,0,,5,,,89,127
54136,note_on,0,0,0,,5,,,77,127
54136,note_on,0,0,0,,11,,,70,127
54209,note_off,73,0,0,,11,,,70,127
54211,note_on,2,0,0,,8,,,68,127
54284,note_off,73,0,0,,8,,,68,127
54286,note_on,2,0,0,,7,,,67,127
54433,note_off,147,0,0,,7,,,67,127
54433,note_off,0,0,0,,5,,,77,127
54433,note_off,0,0,0,,5,,,89,127
54435,note_on,2,0,0,,0,,,84,127
54435,note_on,0,0,0,,5,,,65,127
54582,note_off,147,0,0,,5,,,65,127
54582,note_off,0,0,0,,0,,,84,127
54584,note_on,2,0,0,,1,,,85,127
54584,note_on,0,0,0,,11,,,70,127
54731,note_off,147,0,0,,1,,,85,127
54733,note_on,2,0,0,,5,,,77,127
54733,note_on,0,0,0,,5,,,89,127
54880,note_off,147,0,0,,5,,,89,127
54880,note_off,0,0,0,,5,,,77,127
54882,note_on,2,0,0,,4,,,76,127
54882,note_on,0,0,0,,4,,,88,127
55029,note_off,147,0,0,,4,,,88,127
55029,note_off,0,0,0,,4,,,76,127
55029,note_off,0,0,0,,11,,,70,127
55031,note_on,2,0,0,,5,,,77,127
55031,note_on,0,0,0,,5,,,89,127
55031,note_on,0,0,0,,11,,,70,127
55104,note_off,73,0,0,,11,,,70,127
55106,note_on,2,0,0,,8,,,68,127
55179,note_off,73,0,0,,8,,,68,127
55181,note_on,2,0,0,,7,,,67,127
55328,note_off,147,0,0,,7,,,67,127
55328,note_off,0,0,0,,5,,,89,127
55328,note_off,0,0,0,,5,,,77,127
55330,note_on,2,0,0,,0,,,84,127
55330,note_on,0,0,0,,5,,,65,127
55477,note_off,147,0,0,,5,,,65,127
55477,note_off,0,0,0,,0,,,84,127
55479,note_on,2,0,0,,1,,,85,127
55479,note_on,0,0,0,,11,,,70,127
55626,note_off,147,0,0,,1,,,85,127
55628,note_on,2,0,0,,5,,,89,127
55628,note_on,0,0,0,,5,,,77,127
55775,note_off,147,0,0,,5,,,77,127
55775,note_off,0,0,0,,5,,,89,127
55777,note_on,2,0,0,,4,,,88,127
55777,note_on,0,0,0,,4,,,76,127
55924,note_off,147,0,0,,4,,,76,127
55924,note_off,0,0,0,,4,,,88,127
55924,note_off,0,0,0,,11,,,70,127
55926,note_on,2,0,0,,5,,,89,127
55926,note_on,0,0,0,,5,,,77,127
55926,note_on,0,0,0,,8,,,68,127
56073,note_off,147,0,0,,5,,,77,127
56073,note_off,0,0,0,,5,,,89,127
56075,note_on,2,0,0,,8,,,80,127
56075,note_on,0,0,0,,0,,,84,127
56222,note_off,147,0,0,,0,,,84,127
56222,note_off,0,0,0,,8,,,80,127
56222,note_off,0,0,0,,8,,,68,127
56224,note_on,2,0,0,,11,,,82,127
56224,note_on,0,0,0,,7,,,79,127
56224,note_on,0,0,0,,11,,,70,127
56371,note_off,147,0,0,,11,,,70,127
56373,note_on,2,0,0,,0,,,72,127
56520,note_off,147,0,0,,7,,,79,127
56520,note_off,0,0,0,,11,,,82,127
56522,note_on,2,0,0,,8,,,80,127
56522,note_on,0,0,0,,5,,,77,127
56669,note_off,147,0,0,,5,,,77,127
56669,note_off,0,0,0,,8,,,80,127
56669,note_off,0,0,0,,0,,,72,127
56671,note_on,2,0,0,,7,,,79,127
56671,note_on,0,0,0,,4,,,76,127
56671,note_on,0,0,0,,0,,,60,127
56818,note_off,147,0,0,,0,,,60,127
56818,note_off,0,0,0,,4,,,76,127
56818,note_off,0,0,0,,7,,,79,127
56820,note_on,2,0,0,,5,,,77,127
56820,note_on,0,0,0,,5,,,53,127
56820,note_on,0,0,0,,5,,,41,127
56967,note_off,147,0,0,,5,,,41,127
56967,note_off,0,0,0,,5,,,53,127
56969,note_on,2,0,0,,7,,,55,127
56969,note_on,0,0,0,,7,,,43,127
57116,note_off,147,0,0,,7,,,43,127
57116,note_off,0,0,0,,7,,,55,127
57116,note_off,0,0,0,,5,,,77,127
57118,note_on,2,0,0,,0,,,72,127
57118,note_on,0,0,0,,8,,,56,127
57118,note_on,0,0,0,,8,,,44,127
57265,note_off,147,0,0,,8,,,44,127
57265,note_off,0,0,0,,8,,,56,127
57265,note_off,0,0,0,,0,,,72,127
57267,note_on,2,0,0,,1,,,73,127
57267,note_on,0,0,0,,11,,,58,127
57267,note_on,0,0,0,,11,,,46,127
57414,note_off,147,0,0,,1,,,73,127
57416,note_on,2,0,0,,5,,,65,127
57416,note_on,0,0,0,,5,,,77,127
57563,note_off,147,0,0,,5,,,77,127
57563,note_off,0,0,0,,5,,,65,127
57565,note_on,2,0,0,,4,,,64,127
57565,note_on,0,0,0,,4,,,76,127
57712,note_off,147,0,0,,4,,,76,127
57712,note_off,0,0,0,,4,,,64,127
57712,note_off,0,0,0,,11,,,46,127
57712,note_off,0,0,0,,11,,,58,127
57714,note_on,2,0,0,,5,,,65,127
57714,note_on,0,0,0,,5,,,77,127
57714,note_on,0,0,0,,8,,,56,127
57714,note_on,0,0,0,,8,,,44,127
57861,note_off,147,0,0,,8,,,44,127
57861,note_off,0,0,0,,8,,,56,127
57863,note_on,2,0,0,,7,,,55,127
57863,note_on,0,0,0,,7,,,43,127
58010,note_off,147,0,0,,7,,,43,127
58010,note_off,0,0,0,,7,,,55,127
58010,note_off,0,0,0,,5,,,77,127
58010,note_off,0,0,0,,5,,,65,127
58012,note_on,2,0,0,,0,,,72,127
58012,note_on,0,0,0,,5,,,53,127
58012,note_on,0,0,0,,5,,,41,127
58159,note_off,147,0,0,,5,,,41,127
58159,note_off,0,0,0,,5,,,53,127
58159,note_off,0,0,0,,0,,,72,127
58161,note_on,2,0,0,,1,,,73,127
58161,note_on,0,0,0,,11,,,58,127
58161,note_on,0,0,0,,11,,,46,127
58308,note_off,147,0,0,,1,,,73,127
58310,note_on,2,0,0,,5,,,77,127
58310,note_on,0,0,0,,5,,,65,127
58457,note_off,147,0,0,,5,,,65,127
58457,note_off,0,0,0,,5,,,77,127
58459,note_on,2,0,0,,4,,,76,127
58459,note_on,0,0,0,,4,,,64,127
58606,note_off,147,0,0,,4,,,64,127
58606,note_off,0,0,0,,4,,,76,127
58606,note_off,0,0,0,,11,,,46,127
58606,note_off,0,0,0,,11,,,58,127
58608,note_on,2,0,0,,5,,,77,127
58608,note_on,0,0,0,,5,,,65,127
58608,note_on,0,0,0,,8,,,56,127
58608,note_on,0,0,0,,8,,,44,127
58755,note_off,147,0,0,,8,,,44,127
58755,note_off,0,0,0,,8,,,56,127
58757,note_on,2,0,0,,7,,,55,127
58757,note_on,0,0,0,,7,,,43,127
58904,note_off,147,0,0,,7,,,43,127
58904,note_off,0,0,0,,7,,,55,127
58904,note_off,0,0,0,,5,,,65,127
58904,note_off,0,0,0,,5,,,77,127
58906,note_on,2,0,0,,0,,,72,127
58906,note_on,0,0,0,,5,,,53,127
58906,note_on,0,0,0,,5,,,41,127
59053,note_off,147,0,0,,5,,,41,127
59053,note_off,0,0,0,,5,,,53,127
59053,note_off,0,0,0,,0,,,72,127
59055,note_on,2,0,0,,1,,,73,127
59055,note_on,0,0,0,,11,,,58,127
59055,note_on,0,0,0,,11,,,46,127
59202,note_off,147,0,0,,1,,,73,127
59204,note_on,2,0,0,,5,,,65,127
59204,note_on,0,0,0,,5,,,77,127
59351,note_off,147,0,0,,5,,,77,127
59351,note_off,0,0,0,,5,,,65,127
59353,note_on,2,0,0,,4,,,64,127
59353,note_on,0,0,0,,4,,,76,127
59500,note_off,147,0,0,,4,,,76,127
59500,note_off,0,0,0,,4,,,64,127
59500,note_off,0,0,0,,11,,,46,127
59500,note_off,0,0,0,,11,,,58,127
59502,note_on,2,0,0,,5,,,77,127
59502,note_on,0,0,0,,5,,,65,127
59502,note_on,0,0,0,,8,,,56,127
59502,note_on,0,0,0,,8,,,44,127
59649,note_off,147,0,0,,5,,,77,127
59656,note_on,7,0,0,,0,,,72,127
59796,note_off,140,0,0,,5,,,65,127
59798,note_off,2,0,0,,8,,,44,127
59798,note_off,0,0,0,,8,,,56,127
59808,note_off,10,0,0,,0,,,72,127
59812,note_on,4,0,0,,7,,,67,127
59812,note_on,0,0,0,,11,,,70,127
59812,note_on,0,0,0,,11,,,46,127
59964,note_off,152,0,0,,11,,,46,127
59969,note_on,5,0,0,,0,,,48,127
60119,note_off,150,0,0,,11,,,70,127
60119,note_off,0,0,0,,7,,,67,127
60125,note_on,6,0,0,,5,,,65,127
60125,note_on,0,0,0,,8,,,68,127
60275,note_off,150,0,0,,0,,,48,127
60277,note_off,2,0,0,,8,,,68,127
60277,note_off,0,0,0,,5,,,65,127
60281,note_on,4,0,0,,4,,,64,127
60281,note_on,0,0,0,,7,,,67,127
60281,note_on,0,0,0,,0,,,36,127
60433,note_off,152,0,0,,0,,,36,127
60452,note_off,19,0,0,,7,,,67,127
60452,note_off,0,0,0,,4,,,64,127
60470,note_on,18,0,0,,5,,,65,127
60470,note_on,0,0,0,,5,,,41,127
62378,note_off,1908,0,0,,5,,,41,127
62378,note_off,0,0,0,,5,,,65,127
67584,end_of_track,5206,1,0,,,,,,
