tick,type,time,meta,track,program,channel,pitch,tempo,note,velocity
0,copyright,0,1,0,,,,,,
0,program_change,0,0,0,6,0,,,,
0,pitchwheel,0,0,0,,0,0,,,
0,program_change,0,0,0,6,1,,,,
0,pitchwheel,0,0,0,,1,-590,,,
0,program_change,0,0,0,6,2,,,,
0,pitchwheel,0,0,0,,2,-272,,,
0,program_change,0,0,0,6,3,,,,
0,pitchwheel,0,0,0,,3,-353,,,
0,program_change,0,0,0,6,4,,,,
0,pitchwheel,0,0,0,,4,-560,,,
0,program_change,0,0,0,6,5,,,,
0,pitchwheel,0,0,0,,5,-80,,,
0,program_change,0,0,0,6,6,,,,
0,pitchwheel,0,0,0,,6,-625,,,
0,program_change,0,0,0,6,7,,,,
0,pitchwheel,0,0,0,,7,-130,,,
0,program_change,0,0,0,6,8,,,,
0,pitchwheel,0,0,0,,8,-512,,,
0,program_change,0,0,0,6,10,,,,
0,pitchwheel,0,0,0,,10,-464,,,
0,program_change,0,0,0,6,11,,,,
0,pitchwheel,0,0,0,,11,-208,,,
0,program_change,0,0,0,6,12,,,,
0,pitchwheel,0,0,0,,12,-553,,,
0,set_tempo,0,1,0,,,,500000,,
38,note_on,38,0,0,,6,,,54,127
151,note_off,113,0,0,,6,,,54,127
153,note_on,2,0,0,,2,,,50,127
266,note_off,113,0,0,,2,,,50,127
268,note_on,2,0,0,,10,,,57,127
496,note_off,228,0,0,,10,,,57,127
498,note_on,2,0,0,,10,,,57,127
726,note_off,228,0,0,,10,,,57,127
728,note_on,2,0,0,,10,,,57,127
956,note_off,228,0,0,,10,,,57,127
958,note_on,2,0,0,,2,,,62,127
1186,note_off,228,0,0,,2,,,62,127
1188,note_on,2,0,0,,2,,,62,127
1301,note_off,113,0,0,,2,,,62,127
1303,note_on,2,0,0,,1,,,61,127
1416,note_off,113,0,0,,1,,,61,127
1418,note_on,2,0,0,,2,,,62,127
1531,note_off,113,0,0,,2,,,62,127
1533,note_on,2,0,0,,4,,,64,127
1646,note_off,113,0,0,,4,,,64,127
1648,note_on,2,0,0,,6,,,66,127
1761,note_off,113,0,0,,6,,,66,127
1763,note_on,2,0,0,,7,,,67,127
1876,note_off,113,0,0,,7,,,67,127
1878,note_on,2,0,0,,10,,,69,127
1991,note_off,113,0,0,,10,,,69,127
1993,note_on,2,0,0,,7,,,67,127
2106,note_off,113,0,0,,7,,,67,127
2108,note_on,2,0,0,,6,,,66,127
2221,note_off,113,0,0,,6,,,66,127
2223,note_on,2,0,0,,4,,,64,127
2336,note_off,113,0,0,,4,,,64,127
2338,note_on,2,0,0,,2,,,62,127
2451,note_off,113,0,0,,2,,,62,127
2453,note_on,2,0,0,,1,,,61,127
2566,note_off,113,0,0,,1,,,61,127
2568,note_on,2,0,0,,2,,,62,127
2796,note_off,228,0,0,,2,,,62,127
2798,note_on,2,0,0,,2,,,62,127
2798,note_on,0,0,0,,6,,,66,127
2911,note_off,113,0,0,,2,,,62,127
2913,note_on,2,0,0,,2,,,62,127
3026,note_off,113,0,0,,2,,,62,127
3026,note_off,0,0,0,,6,,,66,127
3028,note_on,2,0,0,,1,,,61,127
3028,note_on,0,0,0,,10,,,69,127
3256,note_off,228,0,0,,10,,,69,127
3256,note_off,0,0,0,,1,,,61,127
3258,note_on,2,0,0,,12,,,59,127
3258,note_on,0,0,0,,10,,,69,127
3486,note_off,228,0,0,,10,,,69,127
3486,note_off,0,0,0,,12,,,59,127
3488,note_on,2,0,0,,10,,,57,127
3488,note_on,0,0,0,,10,,,69,127
3716,note_off,228,0,0,,10,,,69,127
3716,note_off,0,0,0,,10,,,57,127
3718,note_on,2,0,0,,7,,,55,127
3718,note_on,0,0,0,,2,,,74,127
3946,note_off,228,0,0,,2,,,74,127
3946,note_off,0,0,0,,7,,,55,127
3948,note_on,2,0,0,,6,,,54,127
3948,note_on,0,0,0,,2,,,74,127
4061,note_off,113,0,0,,2,,,74,127
4063,note_on,2,0,0,,1,,,73,127
4176,note_off,113,0,0,,1,,,73,127
4176,note_off,0,0,0,,6,,,54,127
4178,note_on,2,0,0,,4,,,52,127
4178,note_on,0,0,0,,2,,,74,127
4291,note_off,113,0,0,,2,,,74,127
4293,note_on,2,0,0,,4,,,76,127
4406,note_off,113,0,0,,4,,,76,127
4406,note_off,0,0,0,,4,,,52,127
4408,note_on,2,0,0,,2,,,50,127
4408,note_on,0,0,0,,6,,,78,127
4521,note_off,113,0,0,,6,,,78,127
4523,note_on,2,0,0,,7,,,79,127
4636,note_off,113,0,0,,7,,,79,127
4636,note_off,0,0,0,,2,,,50,127
4638,note_on,2,0,0,,7,,,55,127
4638,note_on,0,0,0,,10,,,81,127
4751,note_off,113,0,0,,10,,,81,127
4753,note_on,2,0,0,,7,,,79,127
4866,note_off,113,0,0,,7,,,79,127
4866,note_off,0,0,0,,7,,,55,127
4868,note_on,2,0,0,,10,,,57,127
4868,note_on,0,0,0,,6,,,78,127
4981,note_off,113,0,0,,6,,,78,127
4983,note_on,2,0,0,,4,,,76,127
5096,note_off,113,0,0,,4,,,76,127
5096,note_off,0,0,0,,10,,,57,127
5098,note_on,2,0,0,,10,,,45,127
5098,note_on,0,0,0,,2,,,74,127
5211,note_off,113,0,0,,2,,,74,127
5213,note_on,2,0,0,,1,,,73,127
5326,note_off,113,0,0,,1,,,73,127
5326,note_off,0,0,0,,10,,,45,127
5328,note_on,2,0,0,,2,,,50,127
5328,note_on,0,0,0,,2,,,74,127
5556,note_off,228,0,0,,2,,,50,127
5558,note_on,2,0,0,,2,,,62,127
5558,note_on,0,0,0,,6,,,66,127
5671,note_off,113,0,0,,6,,,66,127
5671,note_off,0,0,0,,2,,,62,127
5673,note_on,2,0,0,,4,,,64,127
5673,note_on,0,0,0,,7,,,67,127
5786,note_off,113,0,0,,7,,,67,127
5786,note_off,0,0,0,,4,,,64,127
5788,note_on,2,0,0,,6,,,66,127
5788,note_on,0,0,0,,10,,,69,127
5901,note_off,113,0,0,,10,,,69,127
5901,note_off,0,0,0,,6,,,66,127
5903,note_on,2,0,0,,2,,,62,127
5903,note_on,0,0,0,,6,,,66,127
6016,note_off,113,0,0,,6,,,66,127
6016,note_off,0,0,0,,2,,,62,127
6018,note_on,2,0,0,,7,,,67,127
6018,note_on,0,0,0,,12,,,71,127
6131,note_off,113,0,0,,12,,,71,127
6131,note_off,0,0,0,,7,,,67,127
6133,note_on,2,0,0,,4,,,64,127
6133,note_on,0,0,0,,7,,,67,127
6246,note_off,113,0,0,,7,,,67,127
6246,note_off,0,0,0,,4,,,64,127
6247,note_off,1,0,0,,2,,,74,127
6248,note_on,1,0,0,,6,,,66,127
6248,note_on,0,0,0,,2,,,74,127
6248,note_on,0,0,0,,10,,,69,127
6476,note_off,228,0,0,,10,,,69,127
6476,note_off,0,0,0,,6,,,66,127
6478,note_on,2,0,0,,2,,,62,127
6478,note_on,0,0,0,,6,,,66,127
6591,note_off,113,0,0,,6,,,66,127
6591,note_off,0,0,0,,2,,,62,127
6593,note_on,2,0,0,,4,,,64,127
6593,note_on,0,0,0,,7,,,67,127
6706,note_off,113,0,0,,7,,,67,127
6706,note_off,0,0,0,,4,,,64,127
6708,note_on,2,0,0,,6,,,66,127
6708,note_on,0,0,0,,10,,,69,127
6821,note_off,113,0,0,,10,,,69,127
6821,note_off,0,0,0,,6,,,66,127
6823,note_on,2,0,0,,2,,,62,127
6823,note_on,0,0,0,,6,,,66,127
6936,note_off,113,0,0,,6,,,66,127
6936,note_off,0,0,0,,2,,,62,127
6938,note_on,2,0,0,,7,,,67,127
6938,note_on,0,0,0,,12,,,71,127
7051,note_off,113,0,0,,12,,,71,127
7051,note_off,0,0,0,,7,,,67,127
7053,note_on,2,0,0,,4,,,64,127
7053,note_on,0,0,0,,7,,,67,127
7166,note_off,113,0,0,,7,,,67,127
7166,note_off,0,0,0,,4,,,64,127
7167,note_off,1,0,0,,2,,,74,127
7168,note_on,1,0,0,,6,,,66,127
7168,note_on,0,0,0,,2,,,74,127
7168,note_on,0,0,0,,10,,,69,127
7396,note_off,228,0,0,,10,,,69,127
7396,note_off,0,0,0,,6,,,66,127
7398,note_on,2,0,0,,2,,,62,127
7398,note_on,0,0,0,,6,,,66,127
7511,note_off,113,0,0,,6,,,66,127
7511,note_off,0,0,0,,2,,,62,127
7513,note_on,2,0,0,,4,,,64,127
7513,note_on,0,0,0,,7,,,67,127
7626,note_off,113,0,0,,7,,,67,127
7626,note_off,0,0,0,,4,,,64,127
7628,note_on,2,0,0,,6,,,66,127
7628,note_on,0,0,0,,10,,,69,127
7741,note_off,113,0,0,,10,,,69,127
7741,note_off,0,0,0,,6,,,66,127
7743,note_on,2,0,0,,2,,,62,127
7743,note_on,0,0,0,,6,,,66,127
7856,note_off,113,0,0,,6,,,66,127
7856,note_off,0,0,0,,2,,,62,127
7858,note_on,2,0,0,,7,,,67,127
7858,note_on,0,0,0,,12,,,71,127
7971,note_off,113,0,0,,12,,,71,127
7971,note_off,0,0,0,,7,,,67,127
7973,note_on,2,0,0,,4,,,64,127
7973,note_on,0,0,0,,7,,,67,127
8086,note_off,113,0,0,,7,,,67,127
8086,note_off,0,0,0,,4,,,64,127
8087,note_off,1,0,0,,2,,,74,127
8088,note_on,1,0,0,,2,,,62,127
8088,note_on,0,0,0,,6,,,66,127
8088,note_on,0,0,0,,2,,,74,127
8201,note_off,113,0,0,,6,,,66,127
8201,note_off,0,0,0,,2,,,62,127
8203,note_on,2,0,0,,1,,,61,127
8203,note_on,0,0,0,,4,,,64,127
8316,note_off,113,0,0,,4,,,64,127
8316,note_off,0,0,0,,1,,,61,127
8318,note_on,2,0,0,,2,,,62,127
8318,note_on,0,0,0,,6,,,66,127
8431,note_off,113,0,0,,6,,,66,127
8431,note_off,0,0,0,,2,,,62,127
8433,note_off,2,0,0,,2,,,74,127
8433,note_on,0,0,0,,4,,,64,127
8433,note_on,0,0,0,,7,,,67,127
8546,note_off,113,0,0,,7,,,67,127
8546,note_off,0,0,0,,4,,,64,127
8548,note_on,2,0,0,,6,,,66,127
8548,note_on,0,0,0,,10,,,69,127
8661,note_off,113,0,0,,10,,,69,127
8661,note_off,0,0,0,,6,,,66,127
8663,note_on,2,0,0,,7,,,67,127
8663,note_on,0,0,0,,12,,,71,127
8776,note_off,113,0,0,,12,,,71,127
8776,note_off,0,0,0,,7,,,67,127
8778,note_on,2,0,0,,10,,,69,127
8778,note_on,0,0,0,,1,,,73,127
8891,note_off,113,0,0,,1,,,73,127
8891,note_off,0,0,0,,10,,,69,127
8893,note_on,2,0,0,,12,,,71,127
8893,note_on,0,0,0,,2,,,74,127
9006,note_off,113,0,0,,2,,,74,127
9006,note_off,0,0,0,,12,,,71,127
9008,note_on,2,0,0,,10,,,69,127
9008,note_on,0,0,0,,1,,,73,127
9008,note_on,0,0,0,,10,,,81,127
9236,note_off,228,0,0,,1,,,73,127
9236,note_off,0,0,0,,10,,,69,127
9238,note_on,2,0,0,,10,,,69,127
9238,note_on,0,0,0,,1,,,73,127
9351,note_off,113,0,0,,1,,,73,127
9351,note_off,0,0,0,,10,,,69,127
9353,note_on,2,0,0,,12,,,71,127
9353,note_on,0,0,0,,2,,,74,127
9466,note_off,113,0,0,,2,,,74,127
9466,note_off,0,0,0,,12,,,71,127
9468,note_on,2,0,0,,1,,,73,127
9468,note_on,0,0,0,,4,,,76,127
9581,note_off,113,0,0,,4,,,76,127
9581,note_off,0,0,0,,1,,,73,127
9583,note_on,2,0,0,,10,,,69,127
9583,note_on,0,0,0,,1,,,73,127
9696,note_off,113,0,0,,1,,,73,127
9696,note_off,0,0,0,,10,,,69,127
9698,note_on,2,0,0,,2,,,74,127
9698,note_on,0,0,0,,6,,,78,127
9811,note_off,113,0,0,,6,,,78,127
9811,note_off,0,0,0,,2,,,74,127
9813,note_on,2,0,0,,12,,,71,127
9813,note_on,0,0,0,,2,,,74,127
9926,note_off,113,0,0,,2,,,74,127
9926,note_off,0,0,0,,12,,,71,127
9927,note_off,1,0,0,,10,,,81,127
9928,note_on,1,0,0,,10,,,69,127
9928,note_on,0,0,0,,10,,,81,127
9928,note_on,0,0,0,,1,,,73,127
10156,note_off,228,0,0,,1,,,73,127
10156,note_off,0,0,0,,10,,,69,127
10158,note_on,2,0,0,,10,,,69,127
10158,note_on,0,0,0,,1,,,73,127
10271,note_off,113,0,0,,1,,,73,127
10271,note_off,0,0,0,,10,,,69,127
10273,note_on,2,0,0,,12,,,71,127
10273,note_on,0,0,0,,2,,,74,127
10386,note_off,113,0,0,,2,,,74,127
10386,note_off,0,0,0,,12,,,71,127
10388,note_on,2,0,0,,1,,,73,127
10388,note_on,0,0,0,,4,,,76,127
10501,note_off,113,0,0,,4,,,76,127
10501,note_off,0,0,0,,1,,,73,127
10503,note_on,2,0,0,,10,,,69,127
10503,note_on,0,0,0,,1,,,73,127
10616,note_off,113,0,0,,1,,,73,127
10616,note_off,0,0,0,,10,,,69,127
10618,note_on,2,0,0,,2,,,74,127
10618,note_on,0,0,0,,6,,,78,127
10731,note_off,113,0,0,,6,,,78,127
10731,note_off,0,0,0,,2,,,74,127
10733,note_on,2,0,0,,12,,,71,127
10733,note_on,0,0,0,,2,,,74,127
10846,note_off,113,0,0,,2,,,74,127
10846,note_off,0,0,0,,12,,,71,127
10847,note_off,1,0,0,,10,,,81,127
10848,note_on,1,0,0,,10,,,69,127
10848,note_on,0,0,0,,10,,,81,127
10848,note_on,0,0,0,,1,,,73,127
11076,note_off,228,0,0,,1,,,73,127
11076,note_off,0,0,0,,10,,,69,127
11078,note_on,2,0,0,,10,,,69,127
11078,note_on,0,0,0,,1,,,73,127
11191,note_off,113,0,0,,1,,,73,127
11191,note_off,0,0,0,,10,,,69,127
11193,note_on,2,0,0,,12,,,71,127
11193,note_on,0,0,0,,2,,,74,127
11306,note_off,113,0,0,,2,,,74,127
11306,note_off,0,0,0,,12,,,71,127
11308,note_on,2,0,0,,1,,,73,127
11308,note_on,0,0,0,,4,,,76,127
11421,note_off,113,0,0,,4,,,76,127
11421,note_off,0,0,0,,1,,,73,127
11423,note_on,2,0,0,,10,,,69,127
11423,note_on,0,0,0,,1,,,73,127
11536,note_off,113,0,0,,1,,,73,127
11536,note_off,0,0,0,,10,,,69,127
11538,note_on,2,0,0,,2,,,74,127
11538,note_on,0,0,0,,6,,,78,127
11651,note_off,113,0,0,,6,,,78,127
11651,note_off,0,0,0,,2,,,74,127
11653,note_on,2,0,0,,12,,,71,127
11653,note_on,0,0,0,,2,,,74,127
11766,note_off,113,0,0,,2,,,74,127
11766,note_off,0,0,0,,12,,,71,127
11767,note_off,1,0,0,,10,,,81,127
11768,note_on,1,0,0,,10,,,69,127
11768,note_on,0,0,0,,10,,,81,127
11768,note_on,0,0,0,,1,,,73,127
11881,note_off,113,0,0,,1,,,73,127
11881,note_off,0,0,0,,10,,,69,127
11883,note_on,2,0,0,,12,,,71,127
11883,note_on,0,0,0,,2,,,74,127
11996,note_off,113,0,0,,2,,,74,127
11996,note_off,0,0,0,,12,,,71,127
11998,note_on,2,0,0,,10,,,69,127
11998,note_on,0,0,0,,1,,,73,127
12111,note_off,113,0,0,,1,,,73,127
12111,note_off,0,0,0,,10,,,69,127
12113,note_on,2,0,0,,7,,,67,127
12113,note_on,0,0,0,,12,,,71,127
12226,note_off,113,0,0,,12,,,71,127
12226,note_off,0,0,0,,7,,,67,127
12228,note_on,2,0,0,,6,,,66,127
12228,note_on,0,0,0,,10,,,69,127
12341,note_off,113,0,0,,10,,,69,127
12341,note_off,0,0,0,,6,,,66,127
12343,note_off,2,0,0,,10,,,81,127
12343,note_on,0,0,0,,7,,,67,127
12343,note_on,0,0,0,,12,,,83,127
12456,note_off,113,0,0,,12,,,83,127
12456,note_off,0,0,0,,7,,,67,127
12458,note_on,2,0,0,,6,,,66,127
12458,note_on,0,0,0,,10,,,81,127
12571,note_off,113,0,0,,10,,,81,127
12571,note_off,0,0,0,,6,,,66,127
12573,note_on,2,0,0,,4,,,64,127
12573,note_on,0,0,0,,7,,,79,127
12686,note_off,113,0,0,,7,,,79,127
12686,note_off,0,0,0,,4,,,64,127
12688,note_on,2,0,0,,2,,,62,127
12688,note_on,0,0,0,,6,,,78,127
12801,note_off,113,0,0,,6,,,78,127
12801,note_off,0,0,0,,2,,,62,127
12803,note_on,2,0,0,,4,,,64,127
12803,note_on,0,0,0,,7,,,79,127
12916,note_off,113,0,0,,7,,,79,127
12916,note_off,0,0,0,,4,,,64,127
12918,note_on,2,0,0,,2,,,62,127
12918,note_on,0,0,0,,6,,,78,127
13031,note_off,113,0,0,,6,,,78,127
13031,note_off,0,0,0,,2,,,62,127
13033,note_on,2,0,0,,1,,,61,127
13033,note_on,0,0,0,,4,,,76,127
13146,note_off,113,0,0,,4,,,76,127
13146,note_off,0,0,0,,1,,,61,127
13148,note_on,2,0,0,,12,,,59,127
13148,note_on,0,0,0,,2,,,74,127
13261,note_off,113,0,0,,2,,,74,127
13261,note_off,0,0,0,,12,,,59,127
13263,note_on,2,0,0,,10,,,57,127
13263,note_on,0,0,0,,1,,,73,127
13376,note_off,113,0,0,,1,,,73,127
13376,note_off,0,0,0,,10,,,57,127
13378,note_on,2,0,0,,7,,,55,127
13378,note_on,0,0,0,,12,,,71,127
13491,note_off,113,0,0,,12,,,71,127
13491,note_off,0,0,0,,7,,,55,127
13493,note_on,2,0,0,,6,,,54,127
13493,note_on,0,0,0,,10,,,69,127
13606,note_off,113,0,0,,10,,,69,127
13606,note_off,0,0,0,,6,,,54,127
13608,note_on,2,0,0,,4,,,52,127
13608,note_on,0,0,0,,7,,,67,127
13721,note_off,113,0,0,,7,,,67,127
13723,note_on,2,0,0,,7,,,79,127
13836,note_off,113,0,0,,7,,,79,127
13836,note_off,0,0,0,,4,,,52,127
13838,note_on,2,0,0,,2,,,50,127
13838,note_on,0,0,0,,6,,,78,127
13838,note_on,0,0,0,,10,,,69,127
13951,note_off,113,0,0,,6,,,78,127
13953,note_on,2,0,0,,4,,,76,127
14066,note_off,113,0,0,,4,,,76,127
14066,note_off,0,0,0,,2,,,50,127
14068,note_on,2,0,0,,10,,,57,127
14068,note_on,0,0,0,,6,,,78,127
14181,note_off,113,0,0,,6,,,78,127
14183,note_on,2,0,0,,2,,,74,127
14293,note_off,110,0,0,,10,,,69,127
14295,note_off,2,0,0,,2,,,74,127
14297,note_on,2,0,0,,10,,,45,127
14297,note_on,0,0,0,,4,,,76,127
14297,note_on,0,0,0,,7,,,67,127
14410,note_off,113,0,0,,4,,,76,127
14412,note_on,2,0,0,,1,,,73,127
14522,note_off,110,0,0,,10,,,57,127
14524,note_off,2,0,0,,1,,,73,127
14524,note_off,0,0,0,,7,,,67,127
14524,note_off,0,0,0,,10,,,45,127
14526,note_on,2,0,0,,2,,,50,127
14526,note_on,0,0,0,,2,,,74,127
15216,note_off,690,0,0,,2,,,74,127
15446,note_off,230,0,0,,2,,,50,127
15678,note_on,232,0,0,,5,,,53,127
15678,note_on,0,0,0,,5,,,65,127
15791,note_off,113,0,0,,5,,,65,127
15791,note_off,0,0,0,,5,,,53,127
15793,note_on,2,0,0,,2,,,50,127
15793,note_on,0,0,0,,2,,,62,127
15906,note_off,113,0,0,,2,,,62,127
15906,note_off,0,0,0,,2,,,50,127
15908,note_on,2,0,0,,10,,,57,127
15908,note_on,0,0,0,,10,,,69,127
16136,note_off,228,0,0,,10,,,69,127
16136,note_off,0,0,0,,10,,,57,127
16138,note_on,2,0,0,,10,,,57,127
16138,note_on,0,0,0,,10,,,69,127
16366,note_off,228,0,0,,10,,,69,127
16366,note_off,0,0,0,,10,,,57,127
16368,note_on,2,0,0,,10,,,57,127
16368,note_on,0,0,0,,10,,,69,127
16596,note_off,228,0,0,,10,,,69,127
16596,note_off,0,0,0,,10,,,57,127
16598,note_on,2,0,0,,11,,,58,127
16598,note_on,0,0,0,,7,,,67,127
16598,note_on,0,0,0,,7,,,79,127
16711,note_off,113,0,0,,7,,,79,127
16713,note_on,2,0,0,,4,,,76,127
16826,note_off,113,0,0,,4,,,76,127
16826,note_off,0,0,0,,7,,,67,127
16826,note_off,0,0,0,,11,,,58,127
16828,note_on,2,0,0,,5,,,65,127
16828,note_on,0,0,0,,10,,,57,127
16828,note_on,0,0,0,,5,,,77,127
16941,note_off,113,0,0,,5,,,77,127
16943,note_on,2,0,0,,2,,,74,127
17056,note_off,113,0,0,,2,,,74,127
17056,note_off,0,0,0,,10,,,57,127
17056,note_off,0,0,0,,5,,,65,127
17058,note_on,2,0,0,,7,,,55,127
17058,note_on,0,0,0,,4,,,64,127
17058,note_on,0,0,0,,4,,,76,127
17171,note_off,113,0,0,,4,,,76,127
17173,note_on,2,0,0,,1,,,73,127
17286,note_off,113,0,0,,1,,,73,127
17286,note_off,0,0,0,,4,,,64,127
17286,note_off,0,0,0,,7,,,55,127
17288,note_on,2,0,0,,2,,,62,127
17288,note_on,0,0,0,,5,,,53,127
17288,note_on,0,0,0,,2,,,74,127
17516,note_off,228,0,0,,2,,,74,127
17516,note_off,0,0,0,,5,,,53,127
17516,note_off,0,0,0,,2,,,62,127
17518,note_on,2,0,0,,5,,,53,127
17518,note_on,0,0,0,,5,,,65,127
17631,note_off,113,0,0,,5,,,65,127
17631,note_off,0,0,0,,5,,,53,127
17633,note_on,2,0,0,,2,,,50,127
17633,note_on,0,0,0,,2,,,62,127
17746,note_off,113,0,0,,2,,,62,127
17746,note_off,0,0,0,,2,,,50,127
17748,note_on,2,0,0,,10,,,57,127
17748,note_on,0,0,0,,10,,,69,127
17976,note_off,228,0,0,,10,,,69,127
17976,note_off,0,0,0,,10,,,57,127
17978,note_on,2,0,0,,10,,,57,127
17978,note_on,0,0,0,,10,,,69,127
18206,note_off,228,0,0,,10,,,69,127
18206,note_off,0,0,0,,10,,,57,127
18208,note_on,2,0,0,,10,,,57,127
18208,note_on,0,0,0,,10,,,69,127
18436,note_off,228,0,0,,10,,,69,127
18436,note_off,0,0,0,,10,,,57,127
18438,note_on,2,0,0,,7,,,67,127
18438,note_on,0,0,0,,11,,,58,127
18438,note_on,0,0,0,,7,,,79,127
18551,note_off,113,0,0,,7,,,79,127
18553,note_on,2,0,0,,4,,,76,127
18666,note_off,113,0,0,,4,,,76,127
18666,note_off,0,0,0,,11,,,58,127
18666,note_off,0,0,0,,7,,,67,127
18668,note_on,2,0,0,,5,,,65,127
18668,note_on,0,0,0,,10,,,57,127
18668,note_on,0,0,0,,5,,,77,127
18781,note_off,113,0,0,,5,,,77,127
18783,note_on,2,0,0,,2,,,74,127
18896,note_off,113,0,0,,2,,,74,127
18896,note_off,0,0,0,,10,,,57,127
18896,note_off,0,0,0,,5,,,65,127
18898,note_on,2,0,0,,4,,,64,127
18898,note_on,0,0,0,,7,,,55,127
18898,note_on,0,0,0,,4,,,76,127
19011,note_off,113,0,0,,4,,,76,127
19013,note_on,2,0,0,,1,,,73,127
19126,note_off,113,0,0,,1,,,73,127
19126,note_off,0,0,0,,7,,,55,127
19126,note_off,0,0,0,,4,,,64,127
19128,note_on,2,0,0,,5,,,53,127
19128,note_on,0,0,0,,2,,,62,127
19128,note_on,0,0,0,,2,,,74,127
19356,note_off,228,0,0,,2,,,74,127
19356,note_off,0,0,0,,2,,,62,127
19356,note_off,0,0,0,,5,,,53,127
19358,note_on,2,0,0,,5,,,53,127
19358,note_on,0,0,0,,5,,,65,127
19471,note_off,113,0,0,,5,,,65,127
19471,note_off,0,0,0,,5,,,53,127
19473,note_on,2,0,0,,2,,,50,127
19473,note_on,0,0,0,,2,,,62,127
19586,note_off,113,0,0,,2,,,62,127
19586,note_off,0,0,0,,2,,,50,127
19588,note_on,2,0,0,,11,,,58,127
19588,note_on,0,0,0,,11,,,70,127
19816,note_off,228,0,0,,11,,,70,127
19816,note_off,0,0,0,,11,,,58,127
19818,note_on,2,0,0,,11,,,58,127
19818,note_on,0,0,0,,11,,,70,127
20046,note_off,228,0,0,,11,,,70,127
20046,note_off,0,0,0,,11,,,58,127
20048,note_on,2,0,0,,11,,,58,127
20048,note_on,0,0,0,,11,,,70,127
20161,note_off,113,0,0,,11,,,70,127
20163,note_on,2,0,0,,5,,,77,127
20276,note_off,113,0,0,,5,,,77,127
20276,note_off,0,0,0,,11,,,58,127
20278,note_on,2,0,0,,2,,,62,127
20278,note_on,0,0,0,,5,,,65,127
20278,note_on,0,0,0,,4,,,76,127
20391,note_off,113,0,0,,4,,,76,127
20393,note_on,2,0,0,,2,,,74,127
20506,note_off,113,0,0,,2,,,74,127
20506,note_off,0,0,0,,5,,,65,127
20506,note_off,0,0,0,,2,,,62,127
20508,note_on,2,0,0,,2,,,62,127
20508,note_on,0,0,0,,5,,,65,127
20508,note_on,0,0,0,,0,,,72,127
20621,note_off,113,0,0,,0,,,72,127
20623,note_on,2,0,0,,11,,,70,127
20736,note_off,113,0,0,,11,,,70,127
20736,note_off,0,0,0,,5,,,65,127
20736,note_off,0,0,0,,2,,,62,127
20738,note_on,2,0,0,,5,,,65,127
20738,note_on,0,0,0,,2,,,62,127
20738,note_on,0,0,0,,10,,,69,127
20851,note_off,113,0,0,,10,,,69,127
20853,note_on,2,0,0,,8,,,68,127
20966,note_off,113,0,0,,8,,,68,127
20966,note_off,0,0,0,,2,,,62,127
20966,note_off,0,0,0,,5,,,65,127
20968,note_on,2,0,0,,1,,,61,127
20968,note_on,0,0,0,,4,,,64,127
20968,note_on,0,0,0,,10,,,69,127
21196,note_off,228,0,0,,10,,,69,127
21196,note_off,0,0,0,,4,,,64,127
21196,note_off,0,0,0,,1,,,61,127
21198,note_on,2,0,0,,5,,,53,127
21198,note_on,0,0,0,,5,,,65,127
21311,note_off,113,0,0,,5,,,65,127
21311,note_off,0,0,0,,5,,,53,127
21313,note_on,2,0,0,,2,,,50,127
21313,note_on,0,0,0,,2,,,62,127
21426,note_off,113,0,0,,2,,,62,127
21426,note_off,0,0,0,,2,,,50,127
21428,note_on,2,0,0,,11,,,58,127
21428,note_on,0,0,0,,11,,,70,127
21656,note_off,228,0,0,,11,,,70,127
21656,note_off,0,0,0,,11,,,58,127
21658,note_on,2,0,0,,11,,,58,127
21658,note_on,0,0,0,,11,,,70,127
21886,note_off,228,0,0,,11,,,70,127
21886,note_off,0,0,0,,11,,,58,127
21888,note_on,2,0,0,,11,,,58,127
21888,note_on,0,0,0,,11,,,70,127
22001,note_off,113,0,0,,11,,,70,127
22003,note_on,2,0,0,,5,,,77,127
22116,note_off,113,0,0,,5,,,77,127
22116,note_off,0,0,0,,11,,,58,127
22118,note_on,2,0,0,,5,,,65,127
22118,note_on,0,0,0,,2,,,62,127
22118,note_on,0,0,0,,4,,,76,127
22231,note_off,113,0,0,,4,,,76,127
22233,note_on,2,0,0,,2,,,74,127
22346,note_off,113,0,0,,2,,,74,127
22346,note_off,0,0,0,,2,,,62,127
22346,note_off,0,0,0,,5,,,65,127
22348,note_on,2,0,0,,5,,,65,127
22348,note_on,0,0,0,,2,,,62,127
22348,note_on,0,0,0,,0,,,72,127
22461,note_off,113,0,0,,0,,,72,127
22463,note_on,2,0,0,,11,,,70,127
22576,note_off,113,0,0,,11,,,70,127
22576,note_off,0,0,0,,2,,,62,127
22576,note_off,0,0,0,,5,,,65,127
22578,note_on,2,0,0,,2,,,62,127
22578,note_on,0,0,0,,5,,,65,127
22578,note_on,0,0,0,,10,,,69,127
22691,note_off,113,0,0,,10,,,69,127
22693,note_on,2,0,0,,8,,,68,127
22806,note_off,113,0,0,,8,,,68,127
22806,note_off,0,0,0,,5,,,65,127
22806,note_off,0,0,0,,2,,,62,127
22808,note_on,2,0,0,,4,,,64,127
22808,note_on,0,0,0,,1,,,61,127
22808,note_on,0,0,0,,10,,,69,127
23036,note_off,228,0,0,,10,,,69,127
23036,note_off,0,0,0,,1,,,61,127
23036,note_off,0,0,0,,4,,,64,127
23038,note_on,2,0,0,,5,,,53,127
23038,note_on,0,0,0,,5,,,65,127
23151,note_off,113,0,0,,5,,,65,127
23151,note_off,0,0,0,,5,,,53,127
23153,note_on,2,0,0,,2,,,50,127
23153,note_on,0,0,0,,2,,,62,127
23266,note_off,113,0,0,,2,,,62,127
23266,note_off,0,0,0,,2,,,50,127
23268,note_on,2,0,0,,2,,,62,127
23268,note_on,0,0,0,,2,,,74,127
23496,note_off,228,0,0,,2,,,74,127
23496,note_off,0,0,0,,2,,,62,127
23498,note_on,2,0,0,,2,,,62,127
23498,note_on,0,0,0,,2,,,74,127
23726,note_off,228,0,0,,2,,,74,127
23726,note_off,0,0,0,,2,,,62,127
23728,note_on,2,0,0,,2,,,62,127
23728,note_on,0,0,0,,2,,,74,127
23841,note_off,113,0,0,,2,,,74,127
23843,note_on,2,0,0,,2,,,86,127
23956,note_off,113,0,0,,2,,,86,127
23956,note_off,0,0,0,,2,,,62,127
23958,note_on,2,0,0,,5,,,65,127
23958,note_on,0,0,0,,2,,,86,127
24071,note_off,113,0,0,,2,,,86,127
24073,note_on,2,0,0,,0,,,84,127
24186,note_off,113,0,0,,0,,,84,127
24186,note_off,0,0,0,,5,,,65,127
24188,note_on,2,0,0,,4,,,64,127
24188,note_on,0,0,0,,0,,,84,127
24301,note_off,113,0,0,,0,,,84,127
24303,note_on,2,0,0,,12,,,83,127
24416,note_off,113,0,0,,12,,,83,127
24416,note_off,0,0,0,,4,,,64,127
24418,note_on,2,0,0,,2,,,62,127
24418,note_on,0,0,0,,10,,,81,127
24531,note_off,113,0,0,,10,,,81,127
24533,note_on,2,0,0,,8,,,80,127
24646,note_off,113,0,0,,8,,,80,127
24646,note_off,0,0,0,,2,,,62,127
24648,note_on,2,0,0,,0,,,60,127
24648,note_on,0,0,0,,10,,,81,127
24876,note_off,228,0,0,,10,,,81,127
24876,note_off,0,0,0,,0,,,60,127
24878,note_on,2,0,0,,5,,,53,127
24878,note_on,0,0,0,,5,,,65,127
24991,note_off,113,0,0,,5,,,65,127
24991,note_off,0,0,0,,5,,,53,127
24993,note_on,2,0,0,,2,,,50,127
24993,note_on,0,0,0,,2,,,62,127
25106,note_off,113,0,0,,2,,,62,127
25106,note_off,0,0,0,,2,,,50,127
25108,note_on,2,0,0,,2,,,62,127
25108,note_on,0,0,0,,2,,,74,127
25336,note_off,228,0,0,,2,,,74,127
25336,note_off,0,0,0,,2,,,62,127
25338,note_on,2,0,0,,2,,,62,127
25338,note_on,0,0,0,,2,,,74,127
25566,note_off,228,0,0,,2,,,74,127
25566,note_off,0,0,0,,2,,,62,127
25568,note_on,2,0,0,,2,,,62,127
25568,note_on,0,0,0,,2,,,74,127
25681,note_off,113,0,0,,2,,,74,127
25683,note_on,2,0,0,,2,,,86,127
25796,note_off,113,0,0,,2,,,86,127
25796,note_off,0,0,0,,2,,,62,127
25798,note_on,2,0,0,,5,,,65,127
25798,note_on,0,0,0,,2,,,86,127
25911,note_off,113,0,0,,2,,,86,127
25913,note_on,2,0,0,,0,,,84,127
26026,note_off,113,0,0,,0,,,84,127
26026,note_off,0,0,0,,5,,,65,127
26028,note_on,2,0,0,,4,,,64,127
26028,note_on,0,0,0,,0,,,84,127
26141,note_off,113,0,0,,0,,,84,127
26143,note_on,2,0,0,,12,,,83,127
26256,note_off,113,0,0,,12,,,83,127
26256,note_off,0,0,0,,4,,,64,127
26258,note_on,2,0,0,,2,,,62,127
26258,note_on,0,0,0,,10,,,81,127
26371,note_off,113,0,0,,10,,,81,127
26373,note_on,2,0,0,,8,,,80,127
26486,note_off,113,0,0,,8,,,80,127
26486,note_off,0,0,0,,2,,,62,127
26488,note_on,2,0,0,,0,,,60,127
26488,note_on,0,0,0,,10,,,81,127
26601,note_off,113,0,0,,10,,,81,127
26603,note_on,2,0,0,,7,,,79,127
26716,note_off,113,0,0,,7,,,79,127
26716,note_off,0,0,0,,0,,,60,127
26718,note_on,2,0,0,,0,,,60,127
26718,note_on,0,0,0,,5,,,77,127
26831,note_off,113,0,0,,5,,,77,127
26833,note_on,2,0,0,,4,,,76,127
26946,note_off,113,0,0,,4,,,76,127
26946,note_off,0,0,0,,0,,,60,127
26948,note_on,2,0,0,,2,,,62,127
26948,note_on,0,0,0,,2,,,74,127
27061,note_off,113,0,0,,2,,,74,127
27063,note_on,2,0,0,,0,,,72,127
27176,note_off,113,0,0,,0,,,72,127
27176,note_off,0,0,0,,2,,,62,127
27178,note_on,2,0,0,,2,,,50,127
27178,note_on,0,0,0,,12,,,71,127
27291,note_off,113,0,0,,12,,,71,127
27293,note_on,2,0,0,,10,,,69,127
27406,note_off,113,0,0,,10,,,69,127
27406,note_off,0,0,0,,2,,,50,127
27408,note_on,2,0,0,,4,,,52,127
27408,note_on,0,0,0,,10,,,69,127
27521,note_off,113,0,0,,10,,,69,127
27523,note_on,2,0,0,,8,,,68,127
27636,note_off,113,0,0,,8,,,68,127
27636,note_off,0,0,0,,4,,,52,127
27638,note_on,2,0,0,,4,,,64,127
27638,note_on,0,0,0,,0,,,72,127
27751,note_off,113,0,0,,0,,,72,127
27751,note_off,0,0,0,,4,,,64,127
27753,note_on,2,0,0,,2,,,62,127
27753,note_on,0,0,0,,12,,,71,127
27866,note_off,113,0,0,,12,,,71,127
27866,note_off,0,0,0,,2,,,62,127
27868,note_on,2,0,0,,0,,,60,127
27868,note_on,0,0,0,,12,,,71,127
27981,note_off,113,0,0,,12,,,71,127
27983,note_on,2,0,0,,10,,,69,127
28096,note_off,113,0,0,,10,,,69,127
28096,note_off,0,0,0,,0,,,60,127
28098,note_on,2,0,0,,5,,,65,127
28098,note_on,0,0,0,,2,,,74,127
28211,note_off,113,0,0,,2,,,74,127
28211,note_off,0,0,0,,5,,,65,127
28213,note_on,2,0,0,,4,,,64,127
28213,note_on,0,0,0,,0,,,72,127
28326,note_off,113,0,0,,0,,,72,127
28326,note_off,0,0,0,,4,,,64,127
28328,note_on,2,0,0,,2,,,62,127
28328,note_on,0,0,0,,0,,,72,127
28441,note_off,113,0,0,,0,,,72,127
28443,note_on,2,0,0,,12,,,71,127
28556,note_off,113,0,0,,12,,,71,127
28556,note_off,0,0,0,,2,,,62,127
28558,note_on,2,0,0,,4,,,64,127
28558,note_on,0,0,0,,0,,,72,127
28671,note_off,113,0,0,,0,,,72,127
28671,note_off,0,0,0,,4,,,64,127
28673,note_on,2,0,0,,2,,,62,127
28673,note_on,0,0,0,,12,,,71,127
28786,note_off,113,0,0,,12,,,71,127
28786,note_off,0,0,0,,2,,,62,127
28788,note_on,2,0,0,,0,,,60,127
28788,note_on,0,0,0,,12,,,71,127
28901,note_off,113,0,0,,12,,,71,127
28903,note_on,2,0,0,,10,,,69,127
29016,note_off,113,0,0,,10,,,69,127
29016,note_off,0,0,0,,0,,,60,127
29018,note_on,2,0,0,,5,,,65,127
29018,note_on,0,0,0,,2,,,74,127
29131,note_off,113,0,0,,2,,,74,127
29131,note_off,0,0,0,,5,,,65,127
29133,note_on,2,0,0,,4,,,64,127
29133,note_on,0,0,0,,0,,,72,127
29246,note_off,113,0,0,,0,,,72,127
29246,note_off,0,0,0,,4,,,64,127
29248,note_on,2,0,0,,2,,,62,127
29248,note_on,0,0,0,,0,,,72,127
29361,note_off,113,0,0,,0,,,72,127
29363,note_on,2,0,0,,12,,,71,127
29476,note_off,113,0,0,,12,,,71,127
29476,note_off,0,0,0,,2,,,62,127
29478,note_on,2,0,0,,4,,,64,127
29478,note_on,0,0,0,,0,,,72,127
29591,note_off,113,0,0,,0,,,72,127
29591,note_off,0,0,0,,4,,,64,127
29593,note_on,2,0,0,,2,,,62,127
29593,note_on,0,0,0,,12,,,71,127
29706,note_off,113,0,0,,12,,,71,127
29706,note_off,0,0,0,,2,,,62,127
29708,note_on,2,0,0,,0,,,60,127
29708,note_on,0,0,0,,12,,,71,127
29821,note_off,113,0,0,,12,,,71,127
29823,note_on,2,0,0,,10,,,69,127
29936,note_off,113,0,0,,10,,,69,127
29936,note_off,0,0,0,,0,,,60,127
29938,note_on,2,0,0,,2,,,62,127
29938,note_on,0,0,0,,12,,,71,127
30051,note_off,113,0,0,,12,,,71,127
30051,note_off,0,0,0,,2,,,62,127
30053,note_on,2,0,0,,0,,,60,127
30053,note_on,0,0,0,,10,,,69,127
30166,note_off,113,0,0,,10,,,69,127
30166,note_off,0,0,0,,0,,,60,127
30168,note_on,2,0,0,,12,,,59,127
30168,note_on,0,0,0,,10,,,69,127
30281,note_off,113,0,0,,10,,,69,127
30283,note_on,2,0,0,,7,,,67,127
30396,note_off,113,0,0,,7,,,67,127
30396,note_off,0,0,0,,12,,,59,127
30398,note_on,2,0,0,,10,,,57,127
30398,note_on,0,0,0,,7,,,67,127
30511,note_off,113,0,0,,7,,,67,127
30513,note_on,2,0,0,,5,,,65,127
30626,note_off,113,0,0,,5,,,65,127
30626,note_off,0,0,0,,10,,,57,127
30628,note_on,2,0,0,,7,,,55,127
30628,note_on,0,0,0,,5,,,65,127
30741,note_off,113,0,0,,5,,,65,127
30743,note_on,2,0,0,,4,,,64,127
30856,note_off,113,0,0,,4,,,64,127
30856,note_off,0,0,0,,7,,,55,127
30858,note_on,2,0,0,,6,,,54,127
30858,note_on,0,0,0,,4,,,64,127
30971,note_off,113,0,0,,4,,,64,127
30973,note_on,2,0,0,,3,,,63,127
31086,note_off,113,0,0,,3,,,63,127
31086,note_off,0,0,0,,6,,,54,127
31088,note_on,2,0,0,,4,,,52,127
31088,note_on,0,0,0,,4,,,64,127
31261,note_off,173,0,0,,4,,,52,127
31316,note_off,55,0,0,,4,,,64,127
31318,note_on,2,0,0,,2,,,62,127
31318,note_on,0,0,0,,12,,,71,127
31431,note_off,113,0,0,,12,,,71,127
31431,note_off,0,0,0,,2,,,62,127
31433,note_on,2,0,0,,1,,,61,127
31433,note_on,0,0,0,,10,,,69,127
31546,note_off,113,0,0,,10,,,69,127
31546,note_off,0,0,0,,1,,,61,127
31548,note_on,2,0,0,,1,,,61,127
31548,note_on,0,0,0,,10,,,69,127
31661,note_off,113,0,0,,10,,,69,127
31661,note_off,0,0,0,,1,,,61,127
31663,note_on,2,0,0,,12,,,59,127
31663,note_on,0,0,0,,8,,,68,127
31776,note_off,113,0,0,,8,,,68,127
31776,note_off,0,0,0,,12,,,59,127
31778,note_on,2,0,0,,4,,,64,127
31778,note_on,0,0,0,,1,,,73,127
31891,note_off,113,0,0,,1,,,73,127
31891,note_off,0,0,0,,4,,,64,127
31893,note_on,2,0,0,,2,,,62,127
31893,note_on,0,0,0,,12,,,71,127
32006,note_off,113,0,0,,12,,,71,127
32006,note_off,0,0,0,,2,,,62,127
32008,note_on,2,0,0,,1,,,61,127
32008,note_on,0,0,0,,10,,,69,127
32121,note_off,113,0,0,,1,,,61,127
32122,note_off,1,0,0,,10,,,69,127
32123,note_on,1,0,0,,10,,,69,127
32236,note_off,113,0,0,,10,,,69,127
32238,note_on,2,0,0,,4,,,64,127
32351,note_off,113,0,0,,4,,,64,127
32353,note_on,2,0,0,,1,,,61,127
32466,note_off,113,0,0,,1,,,61,127
32468,note_on,2,0,0,,10,,,57,127
32581,note_off,113,0,0,,10,,,57,127
32583,note_on,2,0,0,,4,,,52,127
32696,note_off,113,0,0,,4,,,52,127
32698,note_on,2,0,0,,1,,,49,127
32811,note_off,113,0,0,,1,,,49,127
32813,note_on,2,0,0,,10,,,45,127
32926,note_off,113,0,0,,10,,,45,127
32928,note_on,2,0,0,,4,,,40,127
33156,note_off,228,0,0,,4,,,40,127
33158,note_on,2,0,0,,2,,,62,127
33158,note_on,0,0,0,,12,,,71,127
33271,note_off,113,0,0,,12,,,71,127
33271,note_off,0,0,0,,2,,,62,127
33273,note_on,2,0,0,,1,,,61,127
33273,note_on,0,0,0,,10,,,69,127
33386,note_off,113,0,0,,10,,,69,127
33386,note_off,0,0,0,,1,,,61,127
33388,note_on,2,0,0,,1,,,61,127
33388,note_on,0,0,0,,10,,,69,127
33501,note_off,113,0,0,,10,,,69,127
33501,note_off,0,0,0,,1,,,61,127
33503,note_on,2,0,0,,12,,,59,127
33503,note_on,0,0,0,,8,,,68,127
33616,note_off,113,0,0,,8,,,68,127
33616,note_off,0,0,0,,12,,,59,127
33618,note_on,2,0,0,,4,,,64,127
33618,note_on,0,0,0,,1,,,73,127
33731,note_off,113,0,0,,1,,,73,127
33731,note_off,0,0,0,,4,,,64,127
33733,note_on,2,0,0,,2,,,62,127
33733,note_on,0,0,0,,12,,,71,127
33846,note_off,113,0,0,,12,,,71,127
33846,note_off,0,0,0,,2,,,62,127
33848,note_on,2,0,0,,1,,,61,127
33848,note_on,0,0,0,,10,,,69,127
33961,note_off,113,0,0,,10,,,69,127
33961,note_off,0,0,0,,1,,,61,127
33963,note_on,2,0,0,,10,,,69,127
34076,note_off,113,0,0,,10,,,69,127
34078,note_on,2,0,0,,4,,,64,127
34191,note_off,113,0,0,,4,,,64,127
34193,note_on,2,0,0,,1,,,61,127
34306,note_off,113,0,0,,1,,,61,127
34308,note_on,2,0,0,,10,,,57,127
34421,note_off,113,0,0,,10,,,57,127
34423,note_on,2,0,0,,4,,,52,127
34536,note_off,113,0,0,,4,,,52,127
34538,note_on,2,0,0,,1,,,49,127
34651,note_off,113,0,0,,1,,,49,127
34653,note_on,2,0,0,,10,,,45,127
34766,note_off,113,0,0,,10,,,45,127
34768,note_on,2,0,0,,4,,,40,127
34996,note_off,228,0,0,,4,,,40,127
34998,note_on,2,0,0,,2,,,62,127
34998,note_on,0,0,0,,12,,,71,127
35111,note_off,113,0,0,,12,,,71,127
35111,note_off,0,0,0,,2,,,62,127
35113,note_on,2,0,0,,1,,,61,127
35113,note_on,0,0,0,,10,,,69,127
35226,note_off,113,0,0,,10,,,69,127
35226,note_off,0,0,0,,1,,,61,127
35228,note_on,2,0,0,,1,,,61,127
35228,note_on,0,0,0,,10,,,69,127
35341,note_off,113,0,0,,10,,,69,127
35341,note_off,0,0,0,,1,,,61,127
35343,note_on,2,0,0,,12,,,59,127
35343,note_on,0,0,0,,8,,,68,127
35456,note_off,113,0,0,,8,,,68,127
35456,note_off,0,0,0,,12,,,59,127
35458,note_on,2,0,0,,4,,,64,127
35458,note_on,0,0,0,,1,,,73,127
35571,note_off,113,0,0,,1,,,73,127
35571,note_off,0,0,0,,4,,,64,127
35573,note_on,2,0,0,,2,,,62,127
35573,note_on,0,0,0,,12,,,71,127
35686,note_off,113,0,0,,12,,,71,127
35686,note_off,0,0,0,,2,,,62,127
35688,note_on,2,0,0,,2,,,62,127
35688,note_on,0,0,0,,12,,,71,127
35801,note_off,113,0,0,,12,,,71,127
35801,note_off,0,0,0,,2,,,62,127
35803,note_on,2,0,0,,1,,,61,127
35803,note_on,0,0,0,,10,,,69,127
35916,note_off,113,0,0,,10,,,69,127
35916,note_off,0,0,0,,1,,,61,127
35918,note_on,2,0,0,,6,,,66,127
35918,note_on,0,0,0,,2,,,74,127
36031,note_off,113,0,0,,2,,,74,127
36031,note_off,0,0,0,,6,,,66,127
36033,note_on,2,0,0,,4,,,64,127
36033,note_on,0,0,0,,1,,,73,127
36146,note_off,113,0,0,,1,,,73,127
36146,note_off,0,0,0,,4,,,64,127
36148,note_on,2,0,0,,2,,,62,127
36148,note_on,0,0,0,,12,,,71,127
36261,note_off,113,0,0,,12,,,71,127
36261,note_off,0,0,0,,2,,,62,127
36263,note_on,2,0,0,,1,,,61,127
36263,note_on,0,0,0,,10,,,69,127
36376,note_off,113,0,0,,10,,,69,127
36376,note_off,0,0,0,,1,,,61,127
36378,note_on,2,0,0,,12,,,59,127
36378,note_on,0,0,0,,8,,,68,127
36491,note_off,113,0,0,,8,,,68,127
36491,note_off,0,0,0,,12,,,59,127
36493,note_on,2,0,0,,10,,,57,127
36493,note_on,0,0,0,,6,,,66,127
36606,note_off,113,0,0,,6,,,66,127
36606,note_off,0,0,0,,10,,,57,127
36608,note_on,2,0,0,,8,,,56,127
36608,note_on,0,0,0,,4,,,64,127
36721,note_off,113,0,0,,4,,,64,127
36721,note_off,0,0,0,,8,,,56,127
36723,note_on,2,0,0,,6,,,54,127
36723,note_on,0,0,0,,2,,,62,127
36836,note_off,113,0,0,,2,,,62,127
36836,note_off,0,0,0,,6,,,54,127
36838,note_on,2,0,0,,4,,,52,127
36838,note_on,0,0,0,,1,,,61,127
36951,note_off,113,0,0,,1,,,61,127
36951,note_off,0,0,0,,4,,,52,127
36953,note_on,2,0,0,,2,,,50,127
36953,note_on,0,0,0,,12,,,59,127
37066,note_off,113,0,0,,12,,,59,127
37066,note_off,0,0,0,,2,,,50,127
37068,note_on,2,0,0,,1,,,49,127
37068,note_on,0,0,0,,10,,,57,127
37181,note_off,113,0,0,,10,,,57,127
37181,note_off,0,0,0,,1,,,49,127
37183,note_on,2,0,0,,12,,,47,127
37183,note_on,0,0,0,,12,,,59,127
37296,note_off,113,0,0,,12,,,59,127
37296,note_off,0,0,0,,12,,,47,127
37298,note_on,2,0,0,,10,,,45,127
37298,note_on,0,0,0,,1,,,61,127
37411,note_off,113,0,0,,1,,,61,127
37411,note_off,0,0,0,,10,,,45,127
37413,note_on,2,0,0,,8,,,44,127
37413,note_on,0,0,0,,2,,,62,127
37526,note_off,113,0,0,,2,,,62,127
37526,note_off,0,0,0,,8,,,44,127
37528,note_on,2,0,0,,10,,,45,127
37528,note_on,0,0,0,,1,,,61,127
37641,note_off,113,0,0,,1,,,61,127
37643,note_on,2,0,0,,4,,,64,127
37756,note_off,113,0,0,,4,,,64,127
37756,note_off,0,0,0,,10,,,45,127
37758,note_on,2,0,0,,2,,,50,127
37758,note_on,0,0,0,,2,,,62,127
37871,note_off,113,0,0,,2,,,62,127
37873,note_on,2,0,0,,12,,,59,127
37986,note_off,113,0,0,,12,,,59,127
37986,note_off,0,0,0,,2,,,50,127
37988,note_on,2,0,0,,4,,,52,127
37988,note_on,0,0,0,,1,,,61,127
38101,note_off,113,0,0,,1,,,61,127
38103,note_on,2,0,0,,10,,,57,127
38216,note_off,113,0,0,,10,,,57,127
38216,note_off,0,0,0,,4,,,52,127
38218,note_on,2,0,0,,4,,,40,127
38218,note_on,0,0,0,,12,,,59,127
38331,note_off,113,0,0,,12,,,59,127
38333,note_on,2,0,0,,8,,,56,127
38446,note_off,113,0,0,,8,,,56,127
38446,note_off,0,0,0,,4,,,40,127
38448,note_on,2,0,0,,10,,,45,127
38448,note_on,0,0,0,,10,,,57,127
38676,note_off,228,0,0,,10,,,57,127
38676,note_off,0,0,0,,10,,,45,127
38678,note_on,2,0,0,,2,,,62,127
38678,note_on,0,0,0,,12,,,71,127
38791,note_off,113,0,0,,12,,,71,127
38791,note_off,0,0,0,,2,,,62,127
38793,note_on,2,0,0,,1,,,61,127
38793,note_on,0,0,0,,10,,,69,127
38906,note_off,113,0,0,,10,,,69,127
38906,note_off,0,0,0,,1,,,61,127
38908,note_on,2,0,0,,1,,,61,127
38908,note_on,0,0,0,,10,,,69,127
39021,note_off,113,0,0,,10,,,69,127
39021,note_off,0,0,0,,1,,,61,127
39023,note_on,2,0,0,,12,,,59,127
39023,note_on,0,0,0,,8,,,68,127
39136,note_off,113,0,0,,8,,,68,127
39136,note_off,0,0,0,,12,,,59,127
39138,note_on,2,0,0,,4,,,64,127
39138,note_on,0,0,0,,1,,,73,127
39251,note_off,113,0,0,,1,,,73,127
39251,note_off,0,0,0,,4,,,64,127
39253,note_on,2,0,0,,2,,,62,127
39253,note_on,0,0,0,,12,,,71,127
39366,note_off,113,0,0,,12,,,71,127
39366,note_off,0,0,0,,2,,,62,127
39368,note_on,2,0,0,,1,,,61,127
39368,note_on,0,0,0,,10,,,69,127
39482,note_off,114,0,0,,10,,,69,127
39483,note_on,1,0,0,,10,,,69,127
39596,note_off,113,0,0,,10,,,69,127
39596,note_off,0,0,0,,1,,,61,127
39598,note_on,2,0,0,,4,,,64,127
39711,note_off,113,0,0,,4,,,64,127
39713,note_on,2,0,0,,1,,,61,127
39826,note_off,113,0,0,,1,,,61,127
39828,note_on,2,0,0,,10,,,57,127
39941,note_off,113,0,0,,10,,,57,127
39943,note_on,2,0,0,,4,,,52,127
40056,note_off,113,0,0,,4,,,52,127
40058,note_on,2,0,0,,1,,,49,127
40171,note_off,113,0,0,,1,,,49,127
40173,note_on,2,0,0,,10,,,45,127
40286,note_off,113,0,0,,10,,,45,127
40288,note_on,2,0,0,,4,,,40,127
40516,note_off,228,0,0,,4,,,40,127
40518,note_on,2,0,0,,2,,,62,127
40518,note_on,0,0,0,,12,,,71,127
40631,note_off,113,0,0,,12,,,71,127
40631,note_off,0,0,0,,2,,,62,127
40633,note_on,2,0,0,,1,,,61,127
40633,note_on,0,0,0,,10,,,69,127
40746,note_off,113,0,0,,10,,,69,127
40746,note_off,0,0,0,,1,,,61,127
40748,note_on,2,0,0,,1,,,61,127
40748,note_on,0,0,0,,10,,,69,127
40861,note_off,113,0,0,,10,,,69,127
40861,note_off,0,0,0,,1,,,61,127
40863,note_on,2,0,0,,12,,,59,127
40863,note_on,0,0,0,,8,,,68,127
40976,note_off,113,0,0,,8,,,68,127
40976,note_off,0,0,0,,12,,,59,127
40978,note_on,2,0,0,,4,,,64,127
40978,note_on,0,0,0,,1,,,73,127
41091,note_off,113,0,0,,1,,,73,127
41091,note_off,0,0,0,,4,,,64,127
41093,note_on,2,0,0,,2,,,62,127
41093,note_on,0,0,0,,12,,,71,127
41206,note_off,113,0,0,,12,,,71,127
41206,note_off,0,0,0,,2,,,62,127
41208,note_on,2,0,0,,1,,,61,127
41208,note_on,0,0,0,,10,,,69,127
41322,note_off,114,0,0,,10,,,69,127
41323,note_on,1,0,0,,10,,,69,127
41436,note_off,113,0,0,,10,,,69,127
41436,note_off,0,0,0,,1,,,61,127
41438,note_on,2,0,0,,4,,,64,127
41551,note_off,113,0,0,,4,,,64,127
41553,note_on,2,0,0,,1,,,61,127
41666,note_off,113,0,0,,1,,,61,127
41668,note_on,2,0,0,,10,,,57,127
41781,note_off,113,0,0,,10,,,57,127
41783,note_on,2,0,0,,4,,,52,127
41896,note_off,113,0,0,,4,,,52,127
41898,note_on,2,0,0,,1,,,49,127
42011,note_off,113,0,0,,1,,,49,127
42013,note_on,2,0,0,,10,,,45,127
42126,note_off,113,0,0,,10,,,45,127
42128,note_on,2,0,0,,4,,,40,127
42356,note_off,228,0,0,,4,,,40,127
42358,note_on,2,0,0,,2,,,62,127
42358,note_on,0,0,0,,12,,,71,127
42471,note_off,113,0,0,,12,,,71,127
42471,note_off,0,0,0,,2,,,62,127
42473,note_on,2,0,0,,1,,,61,127
42473,note_on,0,0,0,,10,,,69,127
42586,note_off,113,0,0,,10,,,69,127
42586,note_off,0,0,0,,1,,,61,127
42588,note_on,2,0,0,,1,,,61,127
42588,note_on,0,0,0,,10,,,69,127
42701,note_off,113,0,0,,10,,,69,127
42701,note_off,0,0,0,,1,,,61,127
42703,note_on,2,0,0,,12,,,59,127
42703,note_on,0,0,0,,8,,,68,127
42816,note_off,113,0,0,,8,,,68,127
42816,note_off,0,0,0,,12,,,59,127
42818,note_on,2,0,0,,4,,,64,127
42818,note_on,0,0,0,,1,,,73,127
42931,note_off,113,0,0,,1,,,73,127
42931,note_off,0,0,0,,4,,,64,127
42933,note_on,2,0,0,,2,,,62,127
42933,note_on,0,0,0,,12,,,71,127
43046,note_off,113,0,0,,12,,,71,127
43046,note_off,0,0,0,,2,,,62,127
43048,note_on,2,0,0,,2,,,62,127
43048,note_on,0,0,0,,12,,,71,127
43161,note_off,113,0,0,,12,,,71,127
43161,note_off,0,0,0,,2,,,62,127
43163,note_on,2,0,0,,1,,,61,127
43163,note_on,0,0,0,,10,,,69,127
43276,note_off,113,0,0,,10,,,69,127
43276,note_off,0,0,0,,1,,,61,127
43278,note_on,2,0,0,,6,,,66,127
43278,note_on,0,0,0,,2,,,74,127
43391,note_off,113,0,0,,2,,,74,127
43391,note_off,0,0,0,,6,,,66,127
43393,note_on,2,0,0,,4,,,64,127
43393,note_on,0,0,0,,1,,,73,127
43506,note_off,113,0,0,,1,,,73,127
43506,note_off,0,0,0,,4,,,64,127
43508,note_on,2,0,0,,2,,,62,127
43508,note_on,0,0,0,,12,,,71,127
43621,note_off,113,0,0,,12,,,71,127
43621,note_off,0,0,0,,2,,,62,127
43623,note_on,2,0,0,,1,,,61,127
43623,note_on,0,0,0,,10,,,69,127
43736,note_off,113,0,0,,10,,,69,127
43736,note_off,0,0,0,,1,,,61,127
43738,note_on,2,0,0,,12,,,59,127
43738,note_on,0,0,0,,8,,,68,127
43851,note_off,113,0,0,,8,,,68,127
43851,note_off,0,0,0,,12,,,59,127
43853,note_on,2,0,0,,10,,,57,127
43853,note_on,0,0,0,,6,,,66,127
43966,note_off,113,0,0,,6,,,66,127
43966,note_off,0,0,0,,10,,,57,127
43968,note_on,2,0,0,,8,,,56,127
43968,note_on,0,0,0,,4,,,64,127
44081,note_off,113,0,0,,4,,,64,127
44081,note_off,0,0,0,,8,,,56,127
44083,note_on,2,0,0,,6,,,54,127
44083,note_on,0,0,0,,2,,,62,127
44196,note_off,113,0,0,,2,,,62,127
44196,note_off,0,0,0,,6,,,54,127
44198,note_on,2,0,0,,4,,,52,127
44198,note_on,0,0,0,,1,,,61,127
44311,note_off,113,0,0,,1,,,61,127
44311,note_off,0,0,0,,4,,,52,127
44313,note_on,2,0,0,,2,,,50,127
44313,note_on,0,0,0,,12,,,59,127
44426,note_off,113,0,0,,12,,,59,127
44426,note_off,0,0,0,,2,,,50,127
44428,note_on,2,0,0,,1,,,49,127
44428,note_on,0,0,0,,10,,,57,127
44541,note_off,113,0,0,,10,,,57,127
44541,note_off,0,0,0,,1,,,49,127
44543,note_on,2,0,0,,12,,,47,127
44543,note_on,0,0,0,,12,,,59,127
44656,note_off,113,0,0,,12,,,59,127
44656,note_off,0,0,0,,12,,,47,127
44658,note_on,2,0,0,,10,,,45,127
44658,note_on,0,0,0,,1,,,61,127
44771,note_off,113,0,0,,1,,,61,127
44771,note_off,0,0,0,,10,,,45,127
44773,note_on,2,0,0,,8,,,44,127
44773,note_on,0,0,0,,2,,,62,127
44886,note_off,113,0,0,,2,,,62,127
44886,note_off,0,0,0,,8,,,44,127
44888,note_on,2,0,0,,10,,,45,127
44888,note_on,0,0,0,,1,,,61,127
45001,note_off,113,0,0,,1,,,61,127
45003,note_on,2,0,0,,4,,,64,127
45116,note_off,113,0,0,,4,,,64,127
45116,note_off,0,0,0,,10,,,45,127
45118,note_on,2,0,0,,2,,,50,127
45118,note_on,0,0,0,,2,,,62,127
45231,note_off,113,0,0,,2,,,62,127
45233,note_on,2,0,0,,12,,,59,127
45346,note_off,113,0,0,,12,,,59,127
45346,note_off,0,0,0,,2,,,50,127
45348,note_on,2,0,0,,4,,,52,127
45348,note_on,0,0,0,,1,,,61,127
45461,note_off,113,0,0,,1,,,61,127
45463,note_on,2,0,0,,10,,,57,127
45576,note_off,113,0,0,,10,,,57,127
45576,note_off,0,0,0,,4,,,52,127
45578,note_on,2,0,0,,4,,,40,127
45578,note_on,0,0,0,,12,,,59,127
45691,note_off,113,0,0,,12,,,59,127
45693,note_on,2,0,0,,8,,,56,127
45806,note_off,113,0,0,,8,,,56,127
45806,note_off,0,0,0,,4,,,40,127
45808,note_on,2,0,0,,10,,,45,127
45808,note_on,0,0,0,,10,,,57,127
45921,note_off,113,0,0,,10,,,45,127
45923,note_on,2,0,0,,1,,,49,127
46036,note_off,113,0,0,,1,,,49,127
46038,note_on,2,0,0,,4,,,52,127
46151,note_off,113,0,0,,4,,,52,127
46151,note_off,0,0,0,,10,,,57,127
46153,note_on,2,0,0,,10,,,57,127
46266,note_off,113,0,0,,10,,,57,127
46268,note_on,2,0,0,,1,,,61,127
46381,note_off,113,0,0,,1,,,61,127
46383,note_on,2,0,0,,4,,,64,127
46496,note_off,113,0,0,,4,,,64,127
46498,note_on,2,0,0,,10,,,69,127
46611,note_off,113,0,0,,10,,,69,127
46613,note_on,2,0,0,,1,,,73,127
46726,note_off,113,0,0,,1,,,73,127
46728,note_on,2,0,0,,4,,,76,127
46843,note_on,115,0,0,,4,,,88,127
46956,note_off,113,0,0,,4,,,88,127
46956,note_off,0,0,0,,4,,,76,127
46958,note_on,2,0,0,,10,,,45,127
46958,note_on,0,0,0,,1,,,85,127
47071,note_off,113,0,0,,1,,,85,127
47073,note_on,2,0,0,,10,,,81,127
47186,note_off,113,0,0,,10,,,81,127
47186,note_off,0,0,0,,10,,,45,127
47188,note_on,2,0,0,,4,,,40,127
47188,note_on,0,0,0,,1,,,85,127
47243,note_off,55,0,0,,1,,,85,127
47245,note_on,2,0,0,,12,,,83,127
47300,note_off,55,0,0,,12,,,83,127
47302,note_on,2,0,0,,1,,,85,127
47357,note_off,55,0,0,,1,,,85,127
47359,note_on,2,0,0,,12,,,83,127
47414,note_off,55,0,0,,12,,,83,127
47414,note_off,0,0,0,,4,,,40,127
47416,note_on,2,0,0,,4,,,40,127
47416,note_on,0,0,0,,1,,,85,127
47471,note_off,55,0,0,,1,,,85,127
47473,note_on,2,0,0,,12,,,83,127
47528,note_off,55,0,0,,12,,,83,127
47530,note_on,2,0,0,,10,,,81,127
47585,note_off,55,0,0,,10,,,81,127
47587,note_on,2,0,0,,12,,,83,127
47642,note_off,55,0,0,,12,,,83,127
47642,note_off,0,0,0,,4,,,40,127
47644,note_on,2,0,0,,10,,,45,127
47644,note_on,0,0,0,,10,,,81,127
47757,note_off,113,0,0,,10,,,45,127
47759,note_on,2,0,0,,1,,,49,127
47872,note_off,113,0,0,,1,,,49,127
47874,note_on,2,0,0,,4,,,52,127
47987,note_off,113,0,0,,4,,,52,127
47989,note_on,2,0,0,,10,,,57,127
48099,note_off,110,0,0,,10,,,81,127
48101,note_off,2,0,0,,10,,,57,127
48103,note_on,2,0,0,,1,,,61,127
48216,note_off,113,0,0,,1,,,61,127
48218,note_on,2,0,0,,4,,,64,127
48331,note_off,113,0,0,,4,,,64,127
48333,note_on,2,0,0,,10,,,69,127
48446,note_off,113,0,0,,10,,,69,127
48448,note_on,2,0,0,,1,,,73,127
48561,note_off,113,0,0,,1,,,73,127
48563,note_on,2,0,0,,4,,,76,127
48678,note_on,115,0,0,,4,,,88,127
48791,note_off,113,0,0,,4,,,88,127
48791,note_off,0,0,0,,4,,,76,127
48793,note_on,2,0,0,,10,,,45,127
48793,note_on,0,0,0,,1,,,85,127
48906,note_off,113,0,0,,1,,,85,127
48908,note_on,2,0,0,,10,,,81,127
49021,note_off,113,0,0,,10,,,81,127
49021,note_off,0,0,0,,10,,,45,127
49023,note_on,2,0,0,,4,,,40,127
49023,note_on,0,0,0,,1,,,85,127
49078,note_off,55,0,0,,1,,,85,127
49080,note_on,2,0,0,,12,,,83,127
49135,note_off,55,0,0,,12,,,83,127
49137,note_on,2,0,0,,1,,,85,127
49192,note_off,55,0,0,,1,,,85,127
49194,note_on,2,0,0,,12,,,83,127
49249,note_off,55,0,0,,12,,,83,127
49249,note_off,0,0,0,,4,,,40,127
49251,note_on,2,0,0,,4,,,40,127
49251,note_on,0,0,0,,1,,,85,127
49306,note_off,55,0,0,,1,,,85,127
49308,note_on,2,0,0,,12,,,83,127
49363,note_off,55,0,0,,12,,,83,127
49365,note_on,2,0,0,,10,,,81,127
49420,note_off,55,0,0,,10,,,81,127
49422,note_on,2,0,0,,12,,,83,127
49477,note_off,55,0,0,,12,,,83,127
49477,note_off,0,0,0,,4,,,40,127
49479,note_on,2,0,0,,10,,,45,127
49479,note_on,0,0,0,,10,,,81,127
49592,note_off,113,0,0,,10,,,81,127
49594,note_on,2,0,0,,4,,,88,127
49707,note_off,113,0,0,,4,,,88,127
49707,note_off,0,0,0,,10,,,45,127
49709,note_on,2,0,0,,1,,,49,127
49709,note_on,0,0,0,,1,,,85,127
49822,note_off,113,0,0,,1,,,85,127
49824,note_on,2,0,0,,4,,,76,127
49937,note_off,113,0,0,,4,,,76,127
49937,note_off,0,0,0,,1,,,49,127
49939,note_on,2,0,0,,2,,,50,127
49939,note_on,0,0,0,,6,,,78,127
50052,note_off,113,0,0,,6,,,78,127
50054,note_on,2,0,0,,2,,,86,127
50167,note_off,113,0,0,,2,,,50,127
50169,note_on,2,0,0,,2,,,62,127
50169,note_on,0,0,0,,6,,,78,127
50282,note_off,113,0,0,,6,,,78,127
50284,note_on,2,0,0,,2,,,74,127
50397,note_off,113,0,0,,2,,,74,127
50397,note_off,0,0,0,,2,,,62,127
50399,note_on,2,0,0,,8,,,56,127
50399,note_on,0,0,0,,4,,,76,127
50509,note_off,110,0,0,,2,,,86,127
50514,note_on,5,0,0,,1,,,85,127
50627,note_off,113,0,0,,1,,,85,127
50627,note_off,0,0,0,,4,,,76,127
50627,note_off,0,0,0,,8,,,56,127
50629,note_on,2,0,0,,10,,,57,127
50629,note_on,0,0,0,,12,,,83,127
50742,note_off,113,0,0,,12,,,83,127
50744,note_on,2,0,0,,10,,,81,127
50857,note_off,113,0,0,,10,,,81,127
50857,note_off,0,0,0,,10,,,57,127
50859,note_on,2,0,0,,4,,,52,127
50859,note_on,0,0,0,,1,,,85,127
50914,note_off,55,0,0,,1,,,85,127
50916,note_on,2,0,0,,12,,,83,127
50971,note_off,55,0,0,,12,,,83,127
50973,note_on,2,0,0,,1,,,85,127
51028,note_off,55,0,0,,1,,,85,127
51030,note_on,2,0,0,,12,,,83,127
51085,note_off,55,0,0,,12,,,83,127
51087,note_on,2,0,0,,4,,,40,127
51087,note_on,0,0,0,,1,,,85,127
51142,note_off,55,0,0,,1,,,85,127
51144,note_on,2,0,0,,12,,,83,127
51199,note_off,55,0,0,,12,,,83,127
51201,note_on,2,0,0,,10,,,81,127
51256,note_off,55,0,0,,10,,,81,127
51258,note_on,2,0,0,,12,,,83,127
51311,note_off,53,0,0,,4,,,52,127
51313,note_off,2,0,0,,12,,,83,127
51313,note_off,0,0,0,,4,,,40,127
51315,note_on,2,0,0,,10,,,45,127
51315,note_on,0,0,0,,10,,,81,127
51428,note_off,113,0,0,,10,,,81,127
51430,note_on,2,0,0,,4,,,76,127
51543,note_off,113,0,0,,4,,,76,127
51543,note_off,0,0,0,,10,,,45,127
51545,note_on,2,0,0,,1,,,49,127
51545,note_on,0,0,0,,1,,,73,127
51658,note_off,113,0,0,,1,,,73,127
51660,note_on,2,0,0,,4,,,64,127
51773,note_off,113,0,0,,4,,,64,127
51773,note_off,0,0,0,,1,,,49,127
51775,note_on,2,0,0,,2,,,50,127
51775,note_on,0,0,0,,6,,,66,127
51888,note_off,113,0,0,,6,,,66,127
51890,note_on,2,0,0,,2,,,74,127
52003,note_off,113,0,0,,2,,,50,127
52005,note_on,2,0,0,,2,,,38,127
52005,note_on,0,0,0,,6,,,66,127
52118,note_off,113,0,0,,6,,,66,127
52120,note_on,2,0,0,,2,,,62,127
52233,note_off,113,0,0,,2,,,62,127
52233,note_off,0,0,0,,2,,,38,127
52235,note_off,2,0,0,,2,,,74,127
52235,note_on,0,0,0,,4,,,40,127
52235,note_on,0,0,0,,4,,,64,127
52348,note_off,113,0,0,,4,,,64,127
52350,note_on,2,0,0,,1,,,73,127
52463,note_off,113,0,0,,1,,,73,127
52465,note_on,2,0,0,,12,,,71,127
52578,note_off,113,0,0,,12,,,71,127
52580,note_on,2,0,0,,10,,,69,127
52693,note_off,113,0,0,,10,,,69,127
52693,note_off,0,0,0,,4,,,40,127
52695,note_on,2,0,0,,4,,,40,127
52695,note_on,0,0,0,,1,,,73,127
52750,note_off,55,0,0,,1,,,73,127
52752,note_on,2,0,0,,12,,,71,127
52807,note_off,55,0,0,,12,,,71,127
52809,note_on,2,0,0,,1,,,73,127
52864,note_off,55,0,0,,1,,,73,127
52866,note_on,2,0,0,,12,,,71,127
52921,note_off,55,0,0,,12,,,71,127
52923,note_on,2,0,0,,1,,,73,127
52978,note_off,55,0,0,,1,,,73,127
52980,note_on,2,0,0,,12,,,71,127
53035,note_off,55,0,0,,12,,,71,127
53037,note_on,2,0,0,,10,,,69,127
53092,note_off,55,0,0,,10,,,69,127
53094,note_on,2,0,0,,12,,,71,127
53149,note_off,55,0,0,,12,,,71,127
53149,note_off,0,0,0,,4,,,40,127
53151,note_on,2,0,0,,10,,,45,127
53151,note_on,0,0,0,,10,,,33,127
53151,note_on,0,0,0,,10,,,69,127
53841,note_off,690,0,0,,10,,,69,127
54070,note_off,229,0,0,,10,,,33,127
54070,note_off,0,0,0,,10,,,45,127
54072,note_on,2,0,0,,10,,,45,127
54072,note_on,0,0,0,,10,,,33,127
54300,note_off,228,0,0,,10,,,33,127
54300,note_off,0,0,0,,10,,,45,127
54302,note_on,2,0,0,,1,,,61,127
54415,note_off,113,0,0,,1,,,61,127
54417,note_on,2,0,0,,10,,,57,127
54530,note_off,113,0,0,,10,,,57,127
54532,note_on,2,0,0,,4,,,64,127
54760,note_off,228,0,0,,4,,,64,127
54762,note_on,2,0,0,,4,,,64,127
54990,note_off,228,0,0,,4,,,64,127
54992,note_on,2,0,0,,4,,,64,127
55220,note_off,228,0,0,,4,,,64,127
55222,note_on,2,0,0,,4,,,64,127
55222,note_on,0,0,0,,7,,,67,127
55335,note_off,113,0,0,,4,,,64,127
55337,note_on,2,0,0,,4,,,64,127
55450,note_off,113,0,0,,4,,,64,127
55450,note_off,0,0,0,,7,,,67,127
55452,note_on,2,0,0,,2,,,62,127
55452,note_on,0,0,0,,12,,,71,127
55680,note_off,228,0,0,,12,,,71,127
55680,note_off,0,0,0,,2,,,62,127
55682,note_on,2,0,0,,1,,,61,127
55682,note_on,0,0,0,,12,,,71,127
55910,note_off,228,0,0,,12,,,71,127
55910,note_off,0,0,0,,1,,,61,127
55912,note_on,2,0,0,,12,,,59,127
55912,note_on,0,0,0,,12,,,71,127
56140,note_off,228,0,0,,12,,,71,127
56140,note_off,0,0,0,,12,,,59,127
56142,note_on,2,0,0,,12,,,71,127
56142,note_on,0,0,0,,2,,,74,127
56256,note_off,114,0,0,,12,,,71,127
56257,note_on,1,0,0,,12,,,71,127
56370,note_off,113,0,0,,12,,,71,127
56370,note_off,0,0,0,,2,,,74,127
56372,note_on,2,0,0,,10,,,69,127
56372,note_on,0,0,0,,6,,,78,127
56600,note_off,228,0,0,,6,,,78,127
56600,note_off,0,0,0,,10,,,69,127
56602,note_on,2,0,0,,8,,,68,127
56602,note_on,0,0,0,,6,,,78,127
56830,note_off,228,0,0,,6,,,78,127
56830,note_off,0,0,0,,8,,,68,127
56832,note_on,2,0,0,,6,,,66,127
56832,note_on,0,0,0,,6,,,78,127
57060,note_off,228,0,0,,6,,,78,127
57060,note_off,0,0,0,,6,,,66,127
57062,note_on,2,0,0,,6,,,66,127
57062,note_on,0,0,0,,10,,,81,127
57175,note_off,113,0,0,,10,,,81,127
57177,note_on,2,0,0,,6,,,78,127
57290,note_off,113,0,0,,6,,,78,127
57290,note_off,0,0,0,,6,,,66,127
57292,note_on,2,0,0,,5,,,65,127
57292,note_on,0,0,0,,1,,,85,127
57520,note_off,228,0,0,,1,,,85,127
57520,note_off,0,0,0,,5,,,65,127
57522,note_on,2,0,0,,1,,,61,127
57522,note_on,0,0,0,,1,,,85,127
57750,note_off,228,0,0,,1,,,85,127
57750,note_off,0,0,0,,1,,,61,127
57752,note_on,2,0,0,,6,,,66,127
57752,note_on,0,0,0,,1,,,85,127
57865,note_off,113,0,0,,1,,,85,127
57867,note_on,2,0,0,,12,,,83,127
57980,note_off,113,0,0,,12,,,83,127
57980,note_off,0,0,0,,6,,,66,127
57982,note_on,2,0,0,,8,,,68,127
57982,note_on,0,0,0,,10,,,81,127
58095,note_off,113,0,0,,10,,,81,127
58097,note_on,2,0,0,,8,,,80,127
58210,note_off,113,0,0,,8,,,80,127
58210,note_off,0,0,0,,8,,,68,127
58212,note_on,2,0,0,,10,,,69,127
58212,note_on,0,0,0,,6,,,78,127
58325,note_off,113,0,0,,6,,,78,127
58327,note_on,2,0,0,,4,,,76,127
58440,note_off,113,0,0,,4,,,76,127
58440,note_off,0,0,0,,10,,,69,127
58442,note_on,2,0,0,,10,,,57,127
58442,note_on,0,0,0,,2,,,74,127
58555,note_off,113,0,0,,2,,,74,127
58557,note_on,2,0,0,,1,,,73,127
58670,note_off,113,0,0,,1,,,73,127
58670,note_off,0,0,0,,10,,,57,127
58672,note_on,2,0,0,,12,,,59,127
58672,note_on,0,0,0,,2,,,74,127
58785,note_off,113,0,0,,2,,,74,127
58787,note_on,2,0,0,,1,,,73,127
58900,note_off,113,0,0,,1,,,73,127
58900,note_off,0,0,0,,12,,,59,127
58902,note_on,2,0,0,,1,,,61,127
58902,note_on,0,0,0,,12,,,71,127
59015,note_off,113,0,0,,12,,,71,127
59017,note_on,2,0,0,,10,,,69,127
59130,note_off,113,0,0,,10,,,69,127
59130,note_off,0,0,0,,1,,,61,127
59132,note_on,2,0,0,,2,,,62,127
59132,note_on,0,0,0,,8,,,68,127
59245,note_off,113,0,0,,8,,,68,127
59247,note_on,2,0,0,,6,,,66,127
59360,note_off,113,0,0,,6,,,66,127
59360,note_off,0,0,0,,2,,,62,127
59362,note_on,2,0,0,,12,,,59,127
59362,note_on,0,0,0,,5,,,65,127
59475,note_off,113,0,0,,5,,,65,127
59477,note_on,2,0,0,,6,,,66,127
59590,note_off,113,0,0,,6,,,66,127
59590,note_off,0,0,0,,12,,,59,127
59592,note_on,2,0,0,,1,,,49,127
59592,note_on,0,0,0,,1,,,61,127
59820,note_off,228,0,0,,1,,,49,127
59822,note_on,2,0,0,,12,,,59,127
59822,note_on,0,0,0,,8,,,68,127
59828,note_off,6,0,0,,1,,,61,127
59935,note_off,107,0,0,,8,,,68,127
59935,note_off,0,0,0,,12,,,59,127
59937,note_on,2,0,0,,10,,,57,127
59937,note_on,0,0,0,,6,,,66,127
60050,note_off,113,0,0,,6,,,66,127
60050,note_off,0,0,0,,10,,,57,127
60052,note_on,2,0,0,,8,,,56,127
60052,note_on,0,0,0,,6,,,66,127
60165,note_off,113,0,0,,6,,,66,127
60167,note_on,2,0,0,,5,,,65,127
60280,note_off,113,0,0,,5,,,65,127
60280,note_off,0,0,0,,8,,,56,127
60282,note_on,2,0,0,,1,,,61,127
60282,note_on,0,0,0,,10,,,69,127
60395,note_off,113,0,0,,10,,,69,127
60395,note_off,0,0,0,,1,,,61,127
60397,note_on,2,0,0,,12,,,59,127
60397,note_on,0,0,0,,8,,,68,127
60510,note_off,113,0,0,,8,,,68,127
60510,note_off,0,0,0,,12,,,59,127
60512,note_on,2,0,0,,10,,,57,127
60512,note_on,0,0,0,,8,,,68,127
60625,note_off,113,0,0,,8,,,68,127
60627,note_on,2,0,0,,6,,,66,127
60740,note_off,113,0,0,,6,,,66,127
60740,note_off,0,0,0,,10,,,57,127
60742,note_on,2,0,0,,12,,,59,127
60742,note_on,0,0,0,,8,,,68,127
60855,note_off,113,0,0,,8,,,68,127
60855,note_off,0,0,0,,12,,,59,127
60857,note_on,2,0,0,,10,,,57,127
60857,note_on,0,0,0,,6,,,66,127
60970,note_off,113,0,0,,6,,,66,127
60970,note_off,0,0,0,,10,,,57,127
60972,note_on,2,0,0,,8,,,56,127
60972,note_on,0,0,0,,6,,,66,127
61085,note_off,113,0,0,,6,,,66,127
61087,note_on,2,0,0,,5,,,65,127
61200,note_off,113,0,0,,5,,,65,127
61200,note_off,0,0,0,,8,,,56,127
61202,note_on,2,0,0,,1,,,61,127
61202,note_on,0,0,0,,10,,,69,127
61315,note_off,113,0,0,,10,,,69,127
61315,note_off,0,0,0,,1,,,61,127
61317,note_on,2,0,0,,12,,,59,127
61317,note_on,0,0,0,,8,,,68,127
61430,note_off,113,0,0,,8,,,68,127
61430,note_off,0,0,0,,12,,,59,127
61432,note_on,2,0,0,,10,,,57,127
61432,note_on,0,0,0,,8,,,68,127
61545,note_off,113,0,0,,8,,,68,127
61547,note_on,2,0,0,,6,,,66,127
61660,note_off,113,0,0,,6,,,66,127
61660,note_off,0,0,0,,10,,,57,127
61662,note_on,2,0,0,,2,,,62,127
61662,note_on,0,0,0,,12,,,71,127
61775,note_off,113,0,0,,12,,,71,127
61775,note_off,0,0,0,,2,,,62,127
61777,note_on,2,0,0,,1,,,61,127
61777,note_on,0,0,0,,10,,,69,127
61890,note_off,113,0,0,,10,,,69,127
61890,note_off,0,0,0,,1,,,61,127
61892,note_on,2,0,0,,12,,,59,127
61892,note_on,0,0,0,,10,,,69,127
62005,note_off,113,0,0,,10,,,69,127
62007,note_on,2,0,0,,8,,,68,127
62120,note_off,113,0,0,,8,,,68,127
62120,note_off,0,0,0,,12,,,59,127
62122,note_on,2,0,0,,10,,,57,127
62122,note_on,0,0,0,,8,,,68,127
62235,note_off,113,0,0,,8,,,68,127
62237,note_on,2,0,0,,6,,,66,127
62350,note_off,113,0,0,,6,,,66,127
62350,note_off,0,0,0,,10,,,57,127
62352,note_on,2,0,0,,8,,,56,127
62352,note_on,0,0,0,,6,,,66,127
62465,note_off,113,0,0,,6,,,66,127
62467,note_on,2,0,0,,4,,,64,127
62580,note_off,113,0,0,,4,,,64,127
62580,note_off,0,0,0,,8,,,56,127
62582,note_on,2,0,0,,6,,,54,127
62582,note_on,0,0,0,,4,,,64,127
62695,note_off,113,0,0,,4,,,64,127
62697,note_on,2,0,0,,2,,,62,127
62810,note_off,113,0,0,,2,,,62,127
62810,note_off,0,0,0,,6,,,54,127
62812,note_on,2,0,0,,4,,,52,127
62812,note_on,0,0,0,,2,,,62,127
62925,note_off,113,0,0,,2,,,62,127
62927,note_on,2,0,0,,1,,,61,127
63040,note_off,113,0,0,,1,,,61,127
63040,note_off,0,0,0,,4,,,52,127
63042,note_on,2,0,0,,3,,,51,127
63042,note_on,0,0,0,,1,,,61,127
63155,note_off,113,0,0,,1,,,61,127
63157,note_on,2,0,0,,0,,,60,127
63270,note_off,113,0,0,,0,,,60,127
63270,note_off,0,0,0,,3,,,51,127
63272,note_on,2,0,0,,1,,,49,127
63272,note_on,0,0,0,,1,,,61,127
63500,note_off,228,0,0,,1,,,49,127
63502,note_on,2,0,0,,12,,,59,127
63502,note_on,0,0,0,,1,,,49,127
63728,note_off,226,0,0,,1,,,61,127
63730,note_off,2,0,0,,1,,,49,127
63730,note_off,0,0,0,,12,,,59,127
63732,note_on,2,0,0,,1,,,49,127
63732,note_on,0,0,0,,12,,,59,127
63960,note_off,228,0,0,,12,,,59,127
63960,note_off,0,0,0,,1,,,49,127
63962,note_on,2,0,0,,1,,,49,127
63962,note_on,0,0,0,,12,,,59,127
64190,note_off,228,0,0,,12,,,59,127
64190,note_off,0,0,0,,1,,,49,127
64192,note_on,2,0,0,,2,,,50,127
64192,note_on,0,0,0,,12,,,59,127
64420,note_off,228,0,0,,12,,,59,127
64420,note_off,0,0,0,,2,,,50,127
64422,note_on,2,0,0,,2,,,50,127
64422,note_on,0,0,0,,12,,,59,127
64422,note_on,0,0,0,,2,,,74,127
64650,note_off,228,0,0,,2,,,74,127
64650,note_off,0,0,0,,12,,,59,127
64650,note_off,0,0,0,,2,,,50,127
64652,note_on,2,0,0,,12,,,59,127
64652,note_on,0,0,0,,2,,,50,127
64652,note_on,0,0,0,,1,,,73,127
64880,note_off,228,0,0,,1,,,73,127
64880,note_off,0,0,0,,2,,,50,127
64880,note_off,0,0,0,,12,,,59,127
64882,note_on,2,0,0,,2,,,50,127
64882,note_on,0,0,0,,12,,,59,127
64882,note_on,0,0,0,,12,,,71,127
65110,note_off,228,0,0,,12,,,71,127
65110,note_off,0,0,0,,12,,,59,127
65110,note_off,0,0,0,,2,,,50,127
65112,note_on,2,0,0,,3,,,51,127
65112,note_on,0,0,0,,12,,,59,127
65112,note_on,0,0,0,,10,,,57,127
65340,note_off,228,0,0,,10,,,57,127
65340,note_off,0,0,0,,12,,,59,127
65340,note_off,0,0,0,,3,,,51,127
65342,note_on,2,0,0,,3,,,51,127
65342,note_on,0,0,0,,12,,,59,127
65342,note_on,0,0,0,,10,,,57,127
65342,note_on,0,0,0,,3,,,75,127
65570,note_off,228,0,0,,3,,,75,127
65570,note_off,0,0,0,,10,,,57,127
65570,note_off,0,0,0,,12,,,59,127
65570,note_off,0,0,0,,3,,,51,127
65572,note_on,2,0,0,,10,,,57,127
65572,note_on,0,0,0,,3,,,51,127
65572,note_on,0,0,0,,12,,,59,127
65572,note_on,0,0,0,,1,,,73,127
65800,note_off,228,0,0,,1,,,73,127
65800,note_off,0,0,0,,12,,,59,127
65800,note_off,0,0,0,,3,,,51,127
65800,note_off,0,0,0,,10,,,57,127
65802,note_on,2,0,0,,10,,,57,127
65802,note_on,0,0,0,,3,,,51,127
65802,note_on,0,0,0,,12,,,59,127
65802,note_on,0,0,0,,12,,,71,127
66030,note_off,228,0,0,,12,,,71,127
66030,note_off,0,0,0,,12,,,59,127
66030,note_off,0,0,0,,3,,,51,127
66030,note_off,0,0,0,,10,,,57,127
66032,note_on,2,0,0,,4,,,52,127
66032,note_on,0,0,0,,0,,,60,127
66032,note_on,0,0,0,,10,,,57,127
66260,note_off,228,0,0,,10,,,57,127
66260,note_off,0,0,0,,0,,,60,127
66260,note_off,0,0,0,,4,,,52,127
66262,note_on,2,0,0,,4,,,52,127
66262,note_on,0,0,0,,10,,,57,127
66262,note_on,0,0,0,,0,,,60,127
66262,note_on,0,0,0,,4,,,76,127
66490,note_off,228,0,0,,4,,,76,127
66490,note_off,0,0,0,,0,,,60,127
66490,note_off,0,0,0,,10,,,57,127
66490,note_off,0,0,0,,4,,,52,127
66492,note_on,2,0,0,,4,,,52,127
66492,note_on,0,0,0,,0,,,60,127
66492,note_on,0,0,0,,10,,,57,127
66492,note_on,0,0,0,,2,,,74,127
66720,note_off,228,0,0,,2,,,74,127
66720,note_off,0,0,0,,10,,,57,127
66720,note_off,0,0,0,,0,,,60,127
66720,note_off,0,0,0,,4,,,52,127
66722,note_on,2,0,0,,4,,,52,127
66722,note_on,0,0,0,,0,,,60,127
66722,note_on,0,0,0,,10,,,57,127
66722,note_on,0,0,0,,0,,,72,127
66950,note_off,228,0,0,,0,,,72,127
66950,note_off,0,0,0,,10,,,57,127
66950,note_off,0,0,0,,0,,,60,127
66950,note_off,0,0,0,,4,,,52,127
66952,note_on,2,0,0,,5,,,53,127
66952,note_on,0,0,0,,0,,,60,127
66952,note_on,0,0,0,,10,,,57,127
67180,note_off,228,0,0,,10,,,57,127
67180,note_off,0,0,0,,0,,,60,127
67180,note_off,0,0,0,,5,,,53,127
67182,note_on,2,0,0,,10,,,57,127
67182,note_on,0,0,0,,5,,,53,127
67182,note_on,0,0,0,,0,,,60,127
67182,note_on,0,0,0,,0,,,72,127
67410,note_off,228,0,0,,0,,,72,127
67410,note_off,0,0,0,,0,,,60,127
67410,note_off,0,0,0,,5,,,53,127
67410,note_off,0,0,0,,10,,,57,127
67412,note_on,2,0,0,,10,,,57,127
67412,note_on,0,0,0,,5,,,53,127
67412,note_on,0,0,0,,0,,,60,127
67412,note_on,0,0,0,,12,,,71,127
67640,note_off,228,0,0,,12,,,71,127
67640,note_off,0,0,0,,0,,,60,127
67640,note_off,0,0,0,,5,,,53,127
67640,note_off,0,0,0,,10,,,57,127
67642,note_on,2,0,0,,10,,,57,127
67642,note_on,0,0,0,,5,,,53,127
67642,note_on,0,0,0,,0,,,60,127
67642,note_on,0,0,0,,10,,,69,127
67870,note_off,228,0,0,,10,,,69,127
67870,note_off,0,0,0,,0,,,60,127
67870,note_off,0,0,0,,5,,,53,127
67870,note_off,0,0,0,,10,,,57,127
67872,note_on,2,0,0,,4,,,52,127
67872,note_on,0,0,0,,10,,,57,127
67872,note_on,0,0,0,,0,,,48,127
68100,note_off,228,0,0,,0,,,48,127
68100,note_off,0,0,0,,10,,,57,127
68100,note_off,0,0,0,,4,,,52,127
68102,note_on,2,0,0,,4,,,52,127
68102,note_on,0,0,0,,0,,,48,127
68102,note_on,0,0,0,,10,,,57,127
68102,note_on,0,0,0,,4,,,76,127
68318,note_off,216,0,0,,4,,,76,127
68330,note_off,12,0,0,,10,,,57,127
68330,note_off,0,0,0,,0,,,48,127
68330,note_off,0,0,0,,4,,,52,127
68331,note_on,1,0,0,,10,,,69,127
68332,note_on,1,0,0,,4,,,52,127
68332,note_on,0,0,0,,0,,,48,127
68332,note_on,0,0,0,,10,,,57,127
68560,note_off,228,0,0,,10,,,57,127
68560,note_off,0,0,0,,0,,,48,127
68560,note_off,0,0,0,,4,,,52,127
68562,note_on,2,0,0,,4,,,52,127
68562,note_on,0,0,0,,0,,,48,127
68562,note_on,0,0,0,,10,,,57,127
68786,note_off,224,0,0,,10,,,69,127
68790,note_off,4,0,0,,10,,,57,127
68790,note_off,0,0,0,,0,,,48,127
68790,note_off,0,0,0,,4,,,52,127
68792,note_on,2,0,0,,4,,,52,127
68792,note_on,0,0,0,,12,,,47,127
68792,note_on,0,0,0,,7,,,55,127
69020,note_off,228,0,0,,7,,,55,127
69020,note_off,0,0,0,,12,,,47,127
69020,note_off,0,0,0,,4,,,52,127
69022,note_on,2,0,0,,12,,,47,127
69022,note_on,0,0,0,,4,,,52,127
69022,note_on,0,0,0,,7,,,55,127
69022,note_on,0,0,0,,4,,,76,127
69238,note_off,216,0,0,,4,,,76,127
69250,note_off,12,0,0,,7,,,55,127
69250,note_off,0,0,0,,4,,,52,127
69250,note_off,0,0,0,,12,,,47,127
69251,note_on,1,0,0,,7,,,67,127
69252,note_on,1,0,0,,4,,,52,127
69252,note_on,0,0,0,,12,,,47,127
69252,note_on,0,0,0,,7,,,55,127
69480,note_off,228,0,0,,7,,,55,127
69480,note_off,0,0,0,,12,,,47,127
69480,note_off,0,0,0,,4,,,52,127
69482,note_on,2,0,0,,4,,,52,127
69482,note_on,0,0,0,,12,,,47,127
69482,note_on,0,0,0,,7,,,55,127
69706,note_off,224,0,0,,7,,,67,127
69710,note_off,4,0,0,,7,,,55,127
69710,note_off,0,0,0,,12,,,47,127
69710,note_off,0,0,0,,4,,,52,127
69712,note_on,2,0,0,,11,,,46,127
69712,note_on,0,0,0,,7,,,55,127
69712,note_on,0,0,0,,2,,,50,127
69940,note_off,228,0,0,,2,,,50,127
69940,note_off,0,0,0,,7,,,55,127
69940,note_off,0,0,0,,11,,,46,127
69942,note_on,2,0,0,,7,,,55,127
69942,note_on,0,0,0,,11,,,46,127
69942,note_on,0,0,0,,2,,,50,127
69942,note_on,0,0,0,,7,,,79,127
70170,note_off,228,0,0,,2,,,50,127
70170,note_off,0,0,0,,11,,,46,127
70170,note_off,0,0,0,,7,,,55,127
70172,note_on,2,0,0,,11,,,46,127
70172,note_on,0,0,0,,2,,,50,127
70172,note_on,0,0,0,,7,,,55,127
70172,note_on,0,0,0,,7,,,67,127
70398,note_off,226,0,0,,7,,,79,127
70400,note_off,2,0,0,,7,,,67,127
70400,note_off,0,0,0,,7,,,55,127
70400,note_off,0,0,0,,2,,,50,127
70400,note_off,0,0,0,,11,,,46,127
70402,note_on,2,0,0,,11,,,46,127
70402,note_on,0,0,0,,2,,,50,127
70402,note_on,0,0,0,,7,,,55,127
70402,note_on,0,0,0,,7,,,79,127
70630,note_off,228,0,0,,7,,,55,127
70630,note_off,0,0,0,,2,,,50,127
70630,note_off,0,0,0,,11,,,46,127
70632,note_on,2,0,0,,10,,,45,127
70632,note_on,0,0,0,,7,,,55,127
70632,note_on,0,0,0,,4,,,52,127
70632,note_on,0,0,0,,1,,,73,127
70858,note_off,226,0,0,,7,,,79,127
70860,note_off,2,0,0,,1,,,73,127
70860,note_off,0,0,0,,4,,,52,127
70860,note_off,0,0,0,,7,,,55,127
70860,note_off,0,0,0,,10,,,45,127
70862,note_on,2,0,0,,10,,,45,127
70862,note_on,0,0,0,,7,,,55,127
70862,note_on,0,0,0,,4,,,52,127
70862,note_on,0,0,0,,7,,,79,127
71090,note_off,228,0,0,,4,,,52,127
71090,note_off,0,0,0,,7,,,55,127
71090,note_off,0,0,0,,10,,,45,127
71092,note_on,2,0,0,,2,,,50,127
71092,note_on,0,0,0,,11,,,46,127
71092,note_on,0,0,0,,7,,,55,127
71092,note_on,0,0,0,,7,,,67,127
71318,note_off,226,0,0,,7,,,79,127
71320,note_off,2,0,0,,7,,,67,127
71320,note_off,0,0,0,,7,,,55,127
71320,note_off,0,0,0,,11,,,46,127
71320,note_off,0,0,0,,2,,,50,127
71322,note_on,2,0,0,,2,,,50,127
71322,note_on,0,0,0,,11,,,46,127
71322,note_on,0,0,0,,7,,,55,127
71322,note_on,0,0,0,,7,,,79,127
71550,note_off,228,0,0,,7,,,55,127
71550,note_off,0,0,0,,11,,,46,127
71550,note_off,0,0,0,,2,,,50,127
71552,note_on,2,0,0,,10,,,45,127
71552,note_on,0,0,0,,4,,,52,127
71552,note_on,0,0,0,,7,,,55,127
71552,note_on,0,0,0,,1,,,73,127
71778,note_off,226,0,0,,7,,,79,127
71780,note_off,2,0,0,,1,,,73,127
71780,note_off,0,0,0,,7,,,55,127
71780,note_off,0,0,0,,4,,,52,127
71780,note_off,0,0,0,,10,,,45,127
71782,note_on,2,0,0,,10,,,45,127
71782,note_on,0,0,0,,4,,,52,127
71782,note_on,0,0,0,,7,,,55,127
71782,note_on,0,0,0,,7,,,79,127
72010,note_off,228,0,0,,7,,,55,127
72010,note_off,0,0,0,,4,,,52,127
72010,note_off,0,0,0,,10,,,45,127
72012,note_on,2,0,0,,7,,,55,127
72012,note_on,0,0,0,,2,,,50,127
72012,note_on,0,0,0,,11,,,46,127
72012,note_on,0,0,0,,7,,,67,127
72238,note_off,226,0,0,,7,,,79,127
72240,note_off,2,0,0,,7,,,67,127
72240,note_off,0,0,0,,11,,,46,127
72240,note_off,0,0,0,,2,,,50,127
72240,note_off,0,0,0,,7,,,55,127
72242,note_on,2,0,0,,2,,,50,127
72242,note_on,0,0,0,,11,,,46,127
72242,note_on,0,0,0,,7,,,55,127
72242,note_on,0,0,0,,7,,,79,127
72470,note_off,228,0,0,,7,,,79,127
72470,note_off,0,0,0,,7,,,55,127
72470,note_off,0,0,0,,11,,,46,127
72470,note_off,0,0,0,,2,,,50,127
72472,note_on,2,0,0,,10,,,45,127
72472,note_on,0,0,0,,10,,,57,127
72472,note_on,0,0,0,,4,,,52,127
72472,note_on,0,0,0,,7,,,67,127
72585,note_off,113,0,0,,7,,,67,127
72587,note_on,2,0,0,,6,,,78,127
72700,note_off,113,0,0,,6,,,78,127
72700,note_off,0,0,0,,4,,,52,127
72700,note_off,0,0,0,,10,,,57,127
72700,note_off,0,0,0,,10,,,45,127
72702,note_on,2,0,0,,10,,,45,127
72702,note_on,0,0,0,,10,,,57,127
72702,note_on,0,0,0,,4,,,52,127
72702,note_on,0,0,0,,4,,,76,127
72815,note_off,113,0,0,,4,,,76,127
72817,note_on,2,0,0,,2,,,74,127
72930,note_off,113,0,0,,2,,,74,127
72930,note_off,0,0,0,,4,,,52,127
72930,note_off,0,0,0,,10,,,57,127
72930,note_off,0,0,0,,10,,,45,127
72932,note_on,2,0,0,,4,,,52,127
72932,note_on,0,0,0,,10,,,45,127
72932,note_on,0,0,0,,10,,,57,127
72932,note_on,0,0,0,,1,,,73,127
73045,note_off,113,0,0,,1,,,73,127
73047,note_on,2,0,0,,12,,,71,127
73160,note_off,113,0,0,,12,,,71,127
73160,note_off,0,0,0,,10,,,57,127
73160,note_off,0,0,0,,10,,,45,127
73160,note_off,0,0,0,,4,,,52,127
73162,note_on,2,0,0,,10,,,45,127
73162,note_on,0,0,0,,10,,,57,127
73162,note_on,0,0,0,,4,,,52,127
73162,note_on,0,0,0,,10,,,69,127
73275,note_off,113,0,0,,10,,,69,127
73277,note_on,2,0,0,,7,,,67,127
73390,note_off,113,0,0,,7,,,67,127
73390,note_off,0,0,0,,4,,,52,127
73390,note_off,0,0,0,,10,,,57,127
73390,note_off,0,0,0,,10,,,45,127
73392,note_on,2,0,0,,2,,,50,127
73392,note_on,0,0,0,,6,,,66,127
73505,note_off,113,0,0,,6,,,66,127
73507,note_on,2,0,0,,2,,,62,127
73620,note_off,113,0,0,,2,,,62,127
73620,note_off,0,0,0,,2,,,50,127
73622,note_on,2,0,0,,2,,,62,127
73622,note_on,0,0,0,,6,,,66,127
73735,note_off,113,0,0,,6,,,66,127
73735,note_off,0,0,0,,2,,,62,127
73737,note_on,2,0,0,,4,,,64,127
73737,note_on,0,0,0,,7,,,67,127
73850,note_off,113,0,0,,7,,,67,127
73850,note_off,0,0,0,,4,,,64,127
73852,note_on,2,0,0,,6,,,66,127
73852,note_on,0,0,0,,10,,,69,127
73965,note_off,113,0,0,,10,,,69,127
73965,note_off,0,0,0,,6,,,66,127
73967,note_on,2,0,0,,7,,,67,127
73967,note_on,0,0,0,,12,,,71,127
74080,note_off,113,0,0,,12,,,71,127
74080,note_off,0,0,0,,7,,,67,127
74082,note_on,2,0,0,,10,,,69,127
74082,note_on,0,0,0,,1,,,73,127
74195,note_off,113,0,0,,1,,,73,127
74195,note_off,0,0,0,,10,,,69,127
74197,note_on,2,0,0,,12,,,71,127
74197,note_on,0,0,0,,2,,,74,127
74310,note_off,113,0,0,,2,,,74,127
74310,note_off,0,0,0,,12,,,71,127
74312,note_on,2,0,0,,10,,,69,127
74312,note_on,0,0,0,,1,,,73,127
74425,note_off,113,0,0,,10,,,69,127
74427,note_on,2,0,0,,10,,,69,127
74456,note_off,29,0,0,,1,,,73,127
74540,note_off,84,0,0,,10,,,69,127
74542,note_on,2,0,0,,7,,,67,127
74542,note_on,0,0,0,,12,,,71,127
74655,note_off,113,0,0,,7,,,67,127
74657,note_on,2,0,0,,7,,,67,127
74686,note_off,29,0,0,,12,,,71,127
74770,note_off,84,0,0,,7,,,67,127
74772,note_on,2,0,0,,6,,,66,127
74772,note_on,0,0,0,,10,,,69,127
74885,note_off,113,0,0,,6,,,66,127
74887,note_on,2,0,0,,6,,,66,127
74916,note_off,29,0,0,,10,,,69,127
75000,note_off,84,0,0,,6,,,66,127
75002,note_on,2,0,0,,4,,,64,127
75002,note_on,0,0,0,,7,,,67,127
75115,note_off,113,0,0,,4,,,64,127
75117,note_on,2,0,0,,4,,,64,127
75146,note_off,29,0,0,,7,,,67,127
75230,note_off,84,0,0,,4,,,64,127
75232,note_on,2,0,0,,2,,,62,127
75232,note_on,0,0,0,,6,,,66,127
75345,note_off,113,0,0,,2,,,62,127
75347,note_on,2,0,0,,2,,,62,127
75376,note_off,29,0,0,,6,,,66,127
75460,note_off,84,0,0,,2,,,62,127
75462,note_on,2,0,0,,7,,,67,127
75462,note_on,0,0,0,,4,,,76,127
75575,note_off,113,0,0,,4,,,76,127
75575,note_off,0,0,0,,7,,,67,127
75577,note_on,2,0,0,,6,,,66,127
75577,note_on,0,0,0,,2,,,74,127
75690,note_off,113,0,0,,2,,,74,127
75690,note_off,0,0,0,,6,,,66,127
75692,note_on,2,0,0,,6,,,66,127
75692,note_on,0,0,0,,2,,,74,127
75805,note_off,113,0,0,,2,,,74,127
75805,note_off,0,0,0,,6,,,66,127
75807,note_on,2,0,0,,4,,,64,127
75807,note_on,0,0,0,,1,,,73,127
75920,note_off,113,0,0,,1,,,73,127
75920,note_off,0,0,0,,4,,,64,127
75922,note_on,2,0,0,,10,,,69,127
75922,note_on,0,0,0,,6,,,78,127
76035,note_off,113,0,0,,6,,,78,127
76035,note_off,0,0,0,,10,,,69,127
76037,note_on,2,0,0,,7,,,67,127
76037,note_on,0,0,0,,4,,,76,127
76150,note_off,113,0,0,,4,,,76,127
76150,note_off,0,0,0,,7,,,67,127
76152,note_on,2,0,0,,6,,,66,127
76152,note_on,0,0,0,,2,,,74,127
76265,note_off,113,0,0,,6,,,66,127
76267,note_on,2,0,0,,10,,,69,127
76380,note_off,113,0,0,,10,,,69,127
76382,note_on,2,0,0,,6,,,66,127
76495,note_off,113,0,0,,6,,,66,127
76497,note_on,2,0,0,,2,,,62,127
76607,note_off,110,0,0,,2,,,74,127
76609,note_off,2,0,0,,2,,,62,127
76611,note_on,2,0,0,,10,,,57,127
76724,note_off,113,0,0,,10,,,57,127
76726,note_on,2,0,0,,6,,,54,127
76839,note_off,113,0,0,,6,,,54,127
76841,note_on,2,0,0,,2,,,50,127
76954,note_off,113,0,0,,2,,,50,127
76956,note_on,2,0,0,,10,,,45,127
77069,note_off,113,0,0,,10,,,45,127
77071,note_on,2,0,0,,10,,,33,127
77299,note_off,228,0,0,,10,,,33,127
77301,note_on,2,0,0,,7,,,67,127
77301,note_on,0,0,0,,4,,,76,127
77414,note_off,113,0,0,,4,,,76,127
77414,note_off,0,0,0,,7,,,67,127
77416,note_on,2,0,0,,6,,,66,127
77416,note_on,0,0,0,,2,,,74,127
77529,note_off,113,0,0,,2,,,74,127
77529,note_off,0,0,0,,6,,,66,127
77531,note_on,2,0,0,,6,,,66,127
77531,note_on,0,0,0,,2,,,74,127
77644,note_off,113,0,0,,2,,,74,127
77644,note_off,0,0,0,,6,,,66,127
77646,note_on,2,0,0,,4,,,64,127
77646,note_on,0,0,0,,1,,,73,127
77759,note_off,113,0,0,,1,,,73,127
77759,note_off,0,0,0,,4,,,64,127
77761,note_on,2,0,0,,10,,,69,127
77761,note_on,0,0,0,,6,,,78,127
77874,note_off,113,0,0,,6,,,78,127
77874,note_off,0,0,0,,10,,,69,127
77876,note_on,2,0,0,,7,,,67,127
77876,note_on,0,0,0,,4,,,76,127
77989,note_off,113,0,0,,4,,,76,127
77989,note_off,0,0,0,,7,,,67,127
77991,note_on,2,0,0,,6,,,66,127
77991,note_on,0,0,0,,2,,,74,127
78104,note_off,113,0,0,,6,,,66,127
78106,note_on,2,0,0,,10,,,69,127
78219,note_off,113,0,0,,10,,,69,127
78221,note_on,2,0,0,,6,,,66,127
78334,note_off,113,0,0,,6,,,66,127
78336,note_on,2,0,0,,2,,,62,127
78446,note_off,110,0,0,,2,,,74,127
78448,note_off,2,0,0,,2,,,62,127
78450,note_on,2,0,0,,10,,,57,127
78563,note_off,113,0,0,,10,,,57,127
78565,note_on,2,0,0,,6,,,54,127
78678,note_off,113,0,0,,6,,,54,127
78680,note_on,2,0,0,,2,,,50,127
78793,note_off,113,0,0,,2,,,50,127
78795,note_on,2,0,0,,10,,,45,127
78908,note_off,113,0,0,,10,,,45,127
78910,note_on,2,0,0,,10,,,33,127
79138,note_off,228,0,0,,10,,,33,127
79140,note_on,2,0,0,,7,,,67,127
79140,note_on,0,0,0,,4,,,76,127
79253,note_off,113,0,0,,4,,,76,127
79253,note_off,0,0,0,,7,,,67,127
79255,note_on,2,0,0,,6,,,66,127
79255,note_on,0,0,0,,2,,,74,127
79368,note_off,113,0,0,,2,,,74,127
79368,note_off,0,0,0,,6,,,66,127
79370,note_on,2,0,0,,6,,,66,127
79370,note_on,0,0,0,,2,,,74,127
79483,note_off,113,0,0,,2,,,74,127
79483,note_off,0,0,0,,6,,,66,127
79485,note_on,2,0,0,,4,,,64,127
79485,note_on,0,0,0,,1,,,73,127
79598,note_off,113,0,0,,1,,,73,127
79598,note_off,0,0,0,,4,,,64,127
79600,note_on,2,0,0,,10,,,69,127
79600,note_on,0,0,0,,6,,,78,127
79713,note_off,113,0,0,,6,,,78,127
79713,note_off,0,0,0,,10,,,69,127
79715,note_on,2,0,0,,7,,,67,127
79715,note_on,0,0,0,,4,,,76,127
79828,note_off,113,0,0,,4,,,76,127
79828,note_off,0,0,0,,7,,,67,127
79830,note_on,2,0,0,,7,,,67,127
79830,note_on,0,0,0,,4,,,76,127
79943,note_off,113,0,0,,4,,,76,127
79943,note_off,0,0,0,,7,,,67,127
79945,note_on,2,0,0,,6,,,66,127
79945,note_on,0,0,0,,2,,,74,127
80058,note_off,113,0,0,,2,,,74,127
80058,note_off,0,0,0,,6,,,66,127
80060,note_on,2,0,0,,12,,,71,127
80060,note_on,0,0,0,,7,,,79,127
80173,note_off,113,0,0,,7,,,79,127
80173,note_off,0,0,0,,12,,,71,127
80175,note_on,2,0,0,,10,,,69,127
80175,note_on,0,0,0,,6,,,78,127
80288,note_off,113,0,0,,6,,,78,127
80288,note_off,0,0,0,,10,,,69,127
80290,note_on,2,0,0,,7,,,67,127
80290,note_on,0,0,0,,4,,,76,127
80403,note_off,113,0,0,,4,,,76,127
80403,note_off,0,0,0,,7,,,67,127
80405,note_on,2,0,0,,6,,,66,127
80405,note_on,0,0,0,,2,,,74,127
80518,note_off,113,0,0,,2,,,74,127
80518,note_off,0,0,0,,6,,,66,127
80520,note_on,2,0,0,,4,,,64,127
80520,note_on,0,0,0,,1,,,73,127
80633,note_off,113,0,0,,1,,,73,127
80633,note_off,0,0,0,,4,,,64,127
80635,note_on,2,0,0,,2,,,62,127
80635,note_on,0,0,0,,12,,,71,127
80748,note_off,113,0,0,,12,,,71,127
80748,note_off,0,0,0,,2,,,62,127
80750,note_on,2,0,0,,1,,,61,127
80750,note_on,0,0,0,,10,,,69,127
80863,note_off,113,0,0,,10,,,69,127
80863,note_off,0,0,0,,1,,,61,127
80865,note_on,2,0,0,,12,,,59,127
80865,note_on,0,0,0,,7,,,67,127
80978,note_off,113,0,0,,7,,,67,127
80978,note_off,0,0,0,,12,,,59,127
80980,note_on,2,0,0,,10,,,57,127
80980,note_on,0,0,0,,6,,,66,127
81093,note_off,113,0,0,,6,,,66,127
81093,note_off,0,0,0,,10,,,57,127
81095,note_on,2,0,0,,7,,,55,127
81095,note_on,0,0,0,,4,,,64,127
81208,note_off,113,0,0,,4,,,64,127
81208,note_off,0,0,0,,7,,,55,127
81210,note_on,2,0,0,,6,,,54,127
81210,note_on,0,0,0,,2,,,62,127
81323,note_off,113,0,0,,2,,,62,127
81323,note_off,0,0,0,,6,,,54,127
81325,note_on,2,0,0,,4,,,52,127
81325,note_on,0,0,0,,4,,,64,127
81438,note_off,113,0,0,,4,,,64,127
81438,note_off,0,0,0,,4,,,52,127
81440,note_on,2,0,0,,2,,,50,127
81440,note_on,0,0,0,,6,,,66,127
81553,note_off,113,0,0,,6,,,66,127
81553,note_off,0,0,0,,2,,,50,127
81555,note_on,2,0,0,,1,,,49,127
81555,note_on,0,0,0,,7,,,67,127
81668,note_off,113,0,0,,7,,,67,127
81668,note_off,0,0,0,,1,,,49,127
81670,note_on,2,0,0,,2,,,50,127
81670,note_on,0,0,0,,6,,,66,127
81783,note_off,113,0,0,,6,,,66,127
81785,note_on,2,0,0,,10,,,69,127
81898,note_off,113,0,0,,10,,,69,127
81898,note_off,0,0,0,,2,,,50,127
81900,note_on,2,0,0,,7,,,55,127
81900,note_on,0,0,0,,7,,,67,127
82013,note_off,113,0,0,,7,,,67,127
82015,note_on,2,0,0,,4,,,64,127
82128,note_off,113,0,0,,4,,,64,127
82128,note_off,0,0,0,,7,,,55,127
82130,note_on,2,0,0,,10,,,57,127
82130,note_on,0,0,0,,6,,,66,127
82243,note_off,113,0,0,,6,,,66,127
82245,note_on,2,0,0,,2,,,62,127
82358,note_off,113,0,0,,2,,,62,127
82360,note_on,2,0,0,,10,,,45,127
82360,note_on,0,0,0,,4,,,64,127
82473,note_off,113,0,0,,4,,,64,127
82475,note_on,2,0,0,,1,,,61,127
82585,note_off,110,0,0,,10,,,57,127
82587,note_off,2,0,0,,1,,,61,127
82587,note_off,0,0,0,,10,,,45,127
82589,note_on,2,0,0,,2,,,50,127
82589,note_on,0,0,0,,2,,,62,127
82817,note_off,228,0,0,,2,,,62,127
82817,note_off,0,0,0,,2,,,50,127
82819,note_on,2,0,0,,7,,,67,127
82819,note_on,0,0,0,,4,,,76,127
82932,note_off,113,0,0,,4,,,76,127
82932,note_off,0,0,0,,7,,,67,127
82934,note_on,2,0,0,,6,,,66,127
82934,note_on,0,0,0,,2,,,74,127
83047,note_off,113,0,0,,2,,,74,127
83047,note_off,0,0,0,,6,,,66,127
83049,note_on,2,0,0,,6,,,66,127
83049,note_on,0,0,0,,2,,,74,127
83162,note_off,113,0,0,,2,,,74,127
83162,note_off,0,0,0,,6,,,66,127
83164,note_on,2,0,0,,4,,,64,127
83164,note_on,0,0,0,,1,,,73,127
83277,note_off,113,0,0,,1,,,73,127
83277,note_off,0,0,0,,4,,,64,127
83279,note_on,2,0,0,,10,,,69,127
83279,note_on,0,0,0,,6,,,78,127
83392,note_off,113,0,0,,6,,,78,127
83392,note_off,0,0,0,,10,,,69,127
83394,note_on,2,0,0,,7,,,67,127
83394,note_on,0,0,0,,4,,,76,127
83507,note_off,113,0,0,,4,,,76,127
83507,note_off,0,0,0,,7,,,67,127
83509,note_on,2,0,0,,6,,,66,127
83509,note_on,0,0,0,,2,,,74,127
83622,note_off,113,0,0,,6,,,66,127
83624,note_on,2,0,0,,10,,,69,127
83737,note_off,113,0,0,,10,,,69,127
83739,note_on,2,0,0,,6,,,66,127
83852,note_off,113,0,0,,6,,,66,127
83854,note_on,2,0,0,,2,,,62,127
83964,note_off,110,0,0,,2,,,74,127
83966,note_off,2,0,0,,2,,,62,127
83968,note_on,2,0,0,,10,,,57,127
84081,note_off,113,0,0,,10,,,57,127
84083,note_on,2,0,0,,6,,,54,127
84196,note_off,113,0,0,,6,,,54,127
84198,note_on,2,0,0,,2,,,50,127
84311,note_off,113,0,0,,2,,,50,127
84313,note_on,2,0,0,,10,,,45,127
84426,note_off,113,0,0,,10,,,45,127
84428,note_on,2,0,0,,10,,,33,127
84656,note_off,228,0,0,,10,,,33,127
84658,note_on,2,0,0,,7,,,67,127
84658,note_on,0,0,0,,4,,,76,127
84771,note_off,113,0,0,,4,,,76,127
84771,note_off,0,0,0,,7,,,67,127
84773,note_on,2,0,0,,6,,,66,127
84773,note_on,0,0,0,,2,,,74,127
84886,note_off,113,0,0,,2,,,74,127
84886,note_off,0,0,0,,6,,,66,127
84888,note_on,2,0,0,,6,,,66,127
84888,note_on,0,0,0,,2,,,74,127
85001,note_off,113,0,0,,2,,,74,127
85001,note_off,0,0,0,,6,,,66,127
85003,note_on,2,0,0,,4,,,64,127
85003,note_on,0,0,0,,1,,,73,127
85116,note_off,113,0,0,,1,,,73,127
85116,note_off,0,0,0,,4,,,64,127
85118,note_on,2,0,0,,10,,,69,127
85118,note_on,0,0,0,,6,,,78,127
85231,note_off,113,0,0,,6,,,78,127
85231,note_off,0,0,0,,10,,,69,127
85233,note_on,2,0,0,,7,,,67,127
85233,note_on,0,0,0,,4,,,76,127
85346,note_off,113,0,0,,4,,,76,127
85346,note_off,0,0,0,,7,,,67,127
85348,note_on,2,0,0,,6,,,66,127
85348,note_on,0,0,0,,2,,,74,127
85461,note_off,113,0,0,,6,,,66,127
85463,note_on,2,0,0,,10,,,69,127
85576,note_off,113,0,0,,10,,,69,127
85578,note_on,2,0,0,,6,,,66,127
85691,note_off,113,0,0,,6,,,66,127
85693,note_on,2,0,0,,2,,,62,127
85803,note_off,110,0,0,,2,,,74,127
85805,note_off,2,0,0,,2,,,62,127
85807,note_on,2,0,0,,10,,,57,127
85920,note_off,113,0,0,,10,,,57,127
85922,note_on,2,0,0,,6,,,54,127
86035,note_off,113,0,0,,6,,,54,127
86037,note_on,2,0,0,,2,,,50,127
86150,note_off,113,0,0,,2,,,50,127
86152,note_on,2,0,0,,10,,,45,127
86265,note_off,113,0,0,,10,,,45,127
86267,note_on,2,0,0,,10,,,33,127
86495,note_off,228,0,0,,10,,,33,127
86497,note_on,2,0,0,,7,,,67,127
86497,note_on,0,0,0,,4,,,76,127
86610,note_off,113,0,0,,4,,,76,127
86610,note_off,0,0,0,,7,,,67,127
86612,note_on,2,0,0,,6,,,66,127
86612,note_on,0,0,0,,2,,,74,127
86725,note_off,113,0,0,,2,,,74,127
86725,note_off,0,0,0,,6,,,66,127
86727,note_on,2,0,0,,6,,,66,127
86727,note_on,0,0,0,,2,,,74,127
86840,note_off,113,0,0,,2,,,74,127
86840,note_off,0,0,0,,6,,,66,127
86842,note_on,2,0,0,,4,,,64,127
86842,note_on,0,0,0,,1,,,73,127
86955,note_off,113,0,0,,1,,,73,127
86955,note_off,0,0,0,,4,,,64,127
86957,note_on,2,0,0,,10,,,69,127
86957,note_on,0,0,0,,6,,,78,127
87070,note_off,113,0,0,,6,,,78,127
87070,note_off,0,0,0,,10,,,69,127
87072,note_on,2,0,0,,7,,,67,127
87072,note_on,0,0,0,,4,,,76,127
87185,note_off,113,0,0,,4,,,76,127
87185,note_off,0,0,0,,7,,,67,127
87187,note_on,2,0,0,,7,,,67,127
87187,note_on,0,0,0,,4,,,76,127
87300,note_off,113,0,0,,4,,,76,127
87300,note_off,0,0,0,,7,,,67,127
87302,note_on,2,0,0,,6,,,66,127
87302,note_on,0,0,0,,2,,,74,127
87415,note_off,113,0,0,,2,,,74,127
87415,note_off,0,0,0,,6,,,66,127
87417,note_on,2,0,0,,12,,,71,127
87417,note_on,0,0,0,,7,,,79,127
87530,note_off,113,0,0,,7,,,79,127
87530,note_off,0,0,0,,12,,,71,127
87532,note_on,2,0,0,,10,,,69,127
87532,note_on,0,0,0,,6,,,78,127
87645,note_off,113,0,0,,6,,,78,127
87645,note_off,0,0,0,,10,,,69,127
87647,note_on,2,0,0,,7,,,67,127
87647,note_on,0,0,0,,4,,,76,127
87760,note_off,113,0,0,,4,,,76,127
87760,note_off,0,0,0,,7,,,67,127
87762,note_on,2,0,0,,6,,,66,127
87762,note_on,0,0,0,,2,,,74,127
87875,note_off,113,0,0,,2,,,74,127
87875,note_off,0,0,0,,6,,,66,127
87877,note_on,2,0,0,,4,,,64,127
87877,note_on,0,0,0,,1,,,73,127
87990,note_off,113,0,0,,1,,,73,127
87990,note_off,0,0,0,,4,,,64,127
87992,note_on,2,0,0,,2,,,62,127
87992,note_on,0,0,0,,12,,,71,127
88105,note_off,113,0,0,,12,,,71,127
88105,note_off,0,0,0,,2,,,62,127
88107,note_on,2,0,0,,1,,,61,127
88107,note_on,0,0,0,,10,,,69,127
88220,note_off,113,0,0,,10,,,69,127
88220,note_off,0,0,0,,1,,,61,127
88222,note_on,2,0,0,,12,,,59,127
88222,note_on,0,0,0,,7,,,67,127
88335,note_off,113,0,0,,7,,,67,127
88335,note_off,0,0,0,,12,,,59,127
88337,note_on,2,0,0,,10,,,57,127
88337,note_on,0,0,0,,6,,,66,127
88450,note_off,113,0,0,,6,,,66,127
88450,note_off,0,0,0,,10,,,57,127
88452,note_on,2,0,0,,7,,,55,127
88452,note_on,0,0,0,,4,,,64,127
88565,note_off,113,0,0,,4,,,64,127
88565,note_off,0,0,0,,7,,,55,127
88567,note_on,2,0,0,,6,,,54,127
88567,note_on,0,0,0,,2,,,62,127
88680,note_off,113,0,0,,2,,,62,127
88680,note_off,0,0,0,,6,,,54,127
88682,note_on,2,0,0,,4,,,52,127
88682,note_on,0,0,0,,4,,,64,127
88795,note_off,113,0,0,,4,,,64,127
88795,note_off,0,0,0,,4,,,52,127
88797,note_on,2,0,0,,2,,,50,127
88797,note_on,0,0,0,,6,,,66,127
88910,note_off,113,0,0,,6,,,66,127
88910,note_off,0,0,0,,2,,,50,127
88912,note_on,2,0,0,,1,,,49,127
88912,note_on,0,0,0,,7,,,67,127
89025,note_off,113,0,0,,7,,,67,127
89025,note_off,0,0,0,,1,,,49,127
89027,note_on,2,0,0,,2,,,50,127
89027,note_on,0,0,0,,6,,,66,127
89140,note_off,113,0,0,,6,,,66,127
89142,note_on,2,0,0,,10,,,69,127
89255,note_off,113,0,0,,10,,,69,127
89255,note_off,0,0,0,,2,,,50,127
89257,note_on,2,0,0,,7,,,55,127
89257,note_on,0,0,0,,7,,,67,127
89370,note_off,113,0,0,,7,,,67,127
89372,note_on,2,0,0,,4,,,64,127
89485,note_off,113,0,0,,4,,,64,127
89485,note_off,0,0,0,,7,,,55,127
89487,note_on,2,0,0,,10,,,57,127
89487,note_on,0,0,0,,6,,,66,127
89600,note_off,113,0,0,,6,,,66,127
89602,note_on,2,0,0,,2,,,62,127
89715,note_off,113,0,0,,2,,,62,127
89715,note_off,0,0,0,,10,,,57,127
89717,note_on,2,0,0,,10,,,45,127
89717,note_on,0,0,0,,4,,,64,127
89830,note_off,113,0,0,,4,,,64,127
89832,note_on,2,0,0,,1,,,61,127
89945,note_off,113,0,0,,1,,,61,127
89945,note_off,0,0,0,,10,,,45,127
89947,note_on,2,0,0,,2,,,38,127
89947,note_on,0,0,0,,2,,,62,127
90060,note_off,113,0,0,,2,,,38,127
90062,note_on,2,0,0,,6,,,42,127
90175,note_off,113,0,0,,6,,,42,127
90177,note_on,2,0,0,,10,,,45,127
90290,note_off,113,0,0,,10,,,45,127
90292,note_on,2,0,0,,2,,,50,127
90402,note_off,110,0,0,,2,,,62,127
90404,note_off,2,0,0,,2,,,50,127
90406,note_on,2,0,0,,6,,,54,127
90519,note_off,113,0,0,,6,,,54,127
90521,note_on,2,0,0,,10,,,57,127
90634,note_off,113,0,0,,10,,,57,127
90636,note_on,2,0,0,,2,,,62,127
90749,note_off,113,0,0,,2,,,62,127
90751,note_on,2,0,0,,6,,,66,127
90864,note_off,113,0,0,,6,,,66,127
90866,note_on,2,0,0,,10,,,69,127
90981,note_on,115,0,0,,2,,,86,127
91094,note_off,113,0,0,,2,,,86,127
91094,note_off,0,0,0,,10,,,69,127
91096,note_on,2,0,0,,2,,,38,127
91096,note_on,0,0,0,,6,,,78,127
91209,note_off,113,0,0,,6,,,78,127
91211,note_on,2,0,0,,2,,,74,127
91324,note_off,113,0,0,,2,,,74,127
91324,note_off,0,0,0,,2,,,38,127
91326,note_on,2,0,0,,10,,,45,127
91326,note_on,0,0,0,,6,,,78,127
91381,note_off,55,0,0,,6,,,78,127
91383,note_on,2,0,0,,4,,,76,127
91438,note_off,55,0,0,,4,,,76,127
91440,note_on,2,0,0,,6,,,78,127
91495,note_off,55,0,0,,6,,,78,127
91497,note_on,2,0,0,,4,,,76,127
91552,note_off,55,0,0,,4,,,76,127
91552,note_off,0,0,0,,10,,,45,127
91554,note_on,2,0,0,,10,,,45,127
91554,note_on,0,0,0,,6,,,78,127
91609,note_off,55,0,0,,6,,,78,127
91611,note_on,2,0,0,,4,,,76,127
91666,note_off,55,0,0,,4,,,76,127
91668,note_on,2,0,0,,2,,,74,127
91723,note_off,55,0,0,,2,,,74,127
91725,note_on,2,0,0,,4,,,76,127
91780,note_off,55,0,0,,4,,,76,127
91780,note_off,0,0,0,,10,,,45,127
91782,note_on,2,0,0,,2,,,38,127
91782,note_on,0,0,0,,2,,,74,127
91895,note_off,113,0,0,,2,,,38,127
91897,note_on,2,0,0,,6,,,42,127
92010,note_off,113,0,0,,6,,,42,127
92012,note_on,2,0,0,,10,,,45,127
92125,note_off,113,0,0,,10,,,45,127
92127,note_on,2,0,0,,2,,,50,127
92237,note_off,110,0,0,,2,,,74,127
92239,note_off,2,0,0,,2,,,50,127
92241,note_on,2,0,0,,6,,,54,127
92354,note_off,113,0,0,,6,,,54,127
92356,note_on,2,0,0,,10,,,57,127
92469,note_off,113,0,0,,10,,,57,127
92471,note_on,2,0,0,,2,,,62,127
92584,note_off,113,0,0,,2,,,62,127
92586,note_on,2,0,0,,6,,,66,127
92699,note_off,113,0,0,,6,,,66,127
92701,note_on,2,0,0,,10,,,69,127
92816,note_on,115,0,0,,2,,,86,127
92929,note_off,113,0,0,,2,,,86,127
92929,note_off,0,0,0,,10,,,69,127
92931,note_on,2,0,0,,2,,,38,127
92931,note_on,0,0,0,,6,,,78,127
93044,note_off,113,0,0,,6,,,78,127
93046,note_on,2,0,0,,2,,,74,127
93159,note_off,113,0,0,,2,,,74,127
93159,note_off,0,0,0,,2,,,38,127
93161,note_on,2,0,0,,10,,,45,127
93161,note_on,0,0,0,,6,,,78,127
93216,note_off,55,0,0,,6,,,78,127
93218,note_on,2,0,0,,4,,,76,127
93273,note_off,55,0,0,,4,,,76,127
93275,note_on,2,0,0,,6,,,78,127
93330,note_off,55,0,0,,6,,,78,127
93332,note_on,2,0,0,,4,,,76,127
93387,note_off,55,0,0,,4,,,76,127
93387,note_off,0,0,0,,10,,,45,127
93389,note_on,2,0,0,,10,,,45,127
93389,note_on,0,0,0,,6,,,78,127
93444,note_off,55,0,0,,6,,,78,127
93446,note_on,2,0,0,,4,,,76,127
93501,note_off,55,0,0,,4,,,76,127
93503,note_on,2,0,0,,2,,,74,127
93558,note_off,55,0,0,,2,,,74,127
93560,note_on,2,0,0,,4,,,76,127
93615,note_off,55,0,0,,4,,,76,127
93615,note_off,0,0,0,,10,,,45,127
93617,note_on,2,0,0,,2,,,38,127
93617,note_on,0,0,0,,2,,,74,127
93730,note_off,113,0,0,,2,,,74,127
93732,note_on,2,0,0,,10,,,81,127
93845,note_off,113,0,0,,10,,,81,127
93845,note_off,0,0,0,,2,,,38,127
93847,note_on,2,0,0,,6,,,42,127
93847,note_on,0,0,0,,2,,,74,127
93960,note_off,113,0,0,,2,,,74,127
93962,note_on,2,0,0,,10,,,69,127
94075,note_off,113,0,0,,10,,,69,127
94075,note_off,0,0,0,,6,,,42,127
94077,note_on,2,0,0,,7,,,43,127
94077,note_on,0,0,0,,12,,,71,127
94190,note_off,113,0,0,,12,,,71,127
94192,note_on,2,0,0,,7,,,79,127
94305,note_off,113,0,0,,7,,,43,127
94307,note_on,2,0,0,,7,,,55,127
94307,note_on,0,0,0,,12,,,71,127
94420,note_off,113,0,0,,12,,,71,127
94422,note_on,2,0,0,,7,,,67,127
94535,note_off,113,0,0,,7,,,67,127
94535,note_off,0,0,0,,7,,,55,127
94537,note_off,2,0,0,,7,,,79,127
94537,note_on,0,0,0,,1,,,49,127
94537,note_on,0,0,0,,10,,,69,127
94650,note_off,113,0,0,,10,,,69,127
94652,note_on,2,0,0,,6,,,78,127
94765,note_off,113,0,0,,6,,,78,127
94765,note_off,0,0,0,,1,,,49,127
94767,note_on,2,0,0,,2,,,50,127
94767,note_on,0,0,0,,4,,,76,127
94880,note_off,113,0,0,,4,,,76,127
94882,note_on,2,0,0,,2,,,74,127
94995,note_off,113,0,0,,2,,,74,127
94995,note_off,0,0,0,,2,,,50,127
94997,note_on,2,0,0,,10,,,57,127
94997,note_on,0,0,0,,6,,,78,127
95052,note_off,55,0,0,,6,,,78,127
95054,note_on,2,0,0,,4,,,76,127
95109,note_off,55,0,0,,4,,,76,127
95111,note_on,2,0,0,,6,,,78,127
95166,note_off,55,0,0,,6,,,78,127
95168,note_on,2,0,0,,4,,,76,127
95223,note_off,55,0,0,,4,,,76,127
95223,note_off,0,0,0,,10,,,57,127
95225,note_on,2,0,0,,10,,,45,127
95225,note_on,0,0,0,,6,,,78,127
95280,note_off,55,0,0,,6,,,78,127
95282,note_on,2,0,0,,4,,,76,127
95337,note_off,55,0,0,,4,,,76,127
95339,note_on,2,0,0,,2,,,74,127
95394,note_off,55,0,0,,2,,,74,127
95396,note_on,2,0,0,,4,,,76,127
95451,note_off,55,0,0,,4,,,76,127
95451,note_off,0,0,0,,10,,,45,127
95453,note_on,2,0,0,,2,,,50,127
95453,note_on,0,0,0,,2,,,74,127
95566,note_off,113,0,0,,2,,,74,127
95568,note_on,2,0,0,,6,,,78,127
95681,note_off,113,0,0,,6,,,78,127
95681,note_off,0,0,0,,2,,,50,127
95683,note_on,2,0,0,,6,,,54,127
95683,note_on,0,0,0,,2,,,74,127
95796,note_off,113,0,0,,2,,,74,127
95798,note_on,2,0,0,,10,,,69,127
95911,note_off,113,0,0,,10,,,69,127
95911,note_off,0,0,0,,6,,,54,127
95913,note_on,2,0,0,,7,,,55,127
95913,note_on,0,0,0,,12,,,71,127
96026,note_off,113,0,0,,12,,,71,127
96028,note_on,2,0,0,,7,,,67,127
96141,note_off,113,0,0,,7,,,55,127
96143,note_on,2,0,0,,7,,,43,127
96143,note_on,0,0,0,,2,,,62,127
96256,note_off,113,0,0,,2,,,62,127
96258,note_on,2,0,0,,12,,,59,127
96371,note_off,113,0,0,,12,,,59,127
96371,note_off,0,0,0,,7,,,43,127
96373,note_off,2,0,0,,7,,,67,127
96373,note_on,0,0,0,,10,,,45,127
96373,note_on,0,0,0,,10,,,57,127
96486,note_off,113,0,0,,10,,,57,127
96488,note_on,2,0,0,,6,,,66,127
96601,note_off,113,0,0,,6,,,66,127
96603,note_on,2,0,0,,4,,,64,127
96716,note_off,113,0,0,,4,,,64,127
96718,note_on,2,0,0,,2,,,62,127
96831,note_off,113,0,0,,2,,,62,127
96831,note_off,0,0,0,,10,,,45,127
96833,note_on,2,0,0,,10,,,33,127
96833,note_on,0,0,0,,6,,,66,127
96888,note_off,55,0,0,,6,,,66,127
96890,note_on,2,0,0,,4,,,64,127
96945,note_off,55,0,0,,4,,,64,127
96947,note_on,2,0,0,,6,,,66,127
97002,note_off,55,0,0,,6,,,66,127
97004,note_on,2,0,0,,4,,,64,127
97059,note_off,55,0,0,,4,,,64,127
97061,note_on,2,0,0,,6,,,66,127
97116,note_off,55,0,0,,6,,,66,127
97118,note_on,2,0,0,,4,,,64,127
97173,note_off,55,0,0,,4,,,64,127
97175,note_on,2,0,0,,2,,,62,127
97230,note_off,55,0,0,,2,,,62,127
97232,note_on,2,0,0,,4,,,64,127
97287,note_off,55,0,0,,10,,,33,127
97295,note_off,8,0,0,,4,,,64,127
97309,note_on,14,0,0,,2,,,62,127
97309,note_on,0,0,0,,2,,,38,127
99114,note_off,1805,0,0,,2,,,38,127
99114,note_off,0,0,0,,2,,,62,127
101376,end_of_track,2262,1,0,,,,,,
