tick,type,time,meta,track,program,channel,pitch,tempo,note,velocity
0,copyright,0,1,0,,,,,,
0,program_change,0,0,0,6,0,,,,
0,pitchwheel,0,0,0,,0,0,,,
0,program_change,0,0,0,6,1,,,,
0,pitchwheel,0,0,0,,1,-590,,,
0,program_change,0,0,0,6,2,,,,
0,pitchwheel,0,0,0,,2,-272,,,
0,program_change,0,0,0,6,3,,,,
0,pitchwheel,0,0,0,,3,-353,,,
0,program_change,0,0,0,6,4,,,,
0,pitchwheel,0,0,0,,4,-560,,,
0,program_change,0,0,0,6,5,,,,
0,pitchwheel,0,0,0,,5,-80,,,
0,program_change,0,0,0,6,6,,,,
0,pitchwheel,0,0,0,,6,-625,,,
0,program_change,0,0,0,6,7,,,,
0,pitchwheel,0,0,0,,7,-130,,,
0,program_change,0,0,0,6,8,,,,
0,pitchwheel,0,0,0,,8,-512,,,
0,program_change,0,0,0,6,10,,,,
0,pitchwheel,0,0,0,,10,-464,,,
0,program_change,0,0,0,6,11,,,,
0,pitchwheel,0,0,0,,11,-208,,,
0,program_change,0,0,0,6,12,,,,
0,pitchwheel,0,0,0,,12,-553,,,
0,set_tempo,0,1,0,,,,500000,,
21,note_on,21,0,0,,2,,,38,127
21,note_on,0,0,0,,2,,,62,127
148,note_off,127,0,0,,2,,,62,127
149,note_on,1,0,0,,2,,,74,127
276,note_off,127,0,0,,2,,,74,127
277,note_on,1,0,0,,2,,,74,127
532,note_off,255,0,0,,2,,,38,127
533,note_on,1,0,0,,2,,,50,127
788,note_off,255,0,0,,2,,,50,127
788,note_off,0,0,0,,2,,,74,127
789,note_on,1,0,0,,2,,,38,127
789,note_on,0,0,0,,6,,,66,127
916,note_off,127,0,0,,6,,,66,127
917,note_on,1,0,0,,6,,,78,127
1044,note_off,127,0,0,,6,,,78,127
1045,note_on,1,0,0,,6,,,78,127
1300,note_off,255,0,0,,2,,,38,127
1301,note_on,1,0,0,,2,,,50,127
1556,note_off,255,0,0,,2,,,50,127
1556,note_off,0,0,0,,6,,,78,127
1557,note_on,1,0,0,,2,,,38,127
1557,note_on,0,0,0,,10,,,69,127
1684,note_off,127,0,0,,10,,,69,127
1685,note_on,1,0,0,,10,,,81,127
1812,note_off,127,0,0,,10,,,81,127
1813,note_on,1,0,0,,10,,,81,127
2068,note_off,255,0,0,,2,,,38,127
2069,note_on,1,0,0,,2,,,50,127
2324,note_off,255,0,0,,2,,,50,127
2324,note_off,0,0,0,,10,,,81,127
2325,note_on,1,0,0,,7,,,55,127
2325,note_on,0,0,0,,2,,,74,127
2452,note_off,127,0,0,,2,,,74,127
2453,note_on,1,0,0,,2,,,86,127
2580,note_off,127,0,0,,2,,,86,127
2580,note_off,0,0,0,,7,,,55,127
2581,note_on,1,0,0,,10,,,57,127
2581,note_on,0,0,0,,1,,,85,127
2708,note_off,127,0,0,,1,,,85,127
2709,note_on,1,0,0,,2,,,74,127
2836,note_off,127,0,0,,2,,,74,127
2836,note_off,0,0,0,,10,,,57,127
2837,note_on,1,0,0,,10,,,45,127
2837,note_on,0,0,0,,1,,,73,127
2964,note_off,127,0,0,,1,,,73,127
2965,note_on,1,0,0,,7,,,67,127
3092,note_off,127,0,0,,10,,,45,127
3093,note_on,1,0,0,,2,,,38,127
3285,note_off,192,0,0,,7,,,67,127
3349,note_on,64,0,0,,7,,,67,127
3412,note_off,63,0,0,,7,,,67,127
3413,note_on,1,0,0,,6,,,66,127
3476,note_off,63,0,0,,6,,,66,127
3477,note_on,1,0,0,,4,,,64,127
3604,note_off,127,0,0,,4,,,64,127
3605,note_on,1,0,0,,2,,,62,127
3733,note_off,128,0,0,,2,,,38,127
3858,note_off,125,0,0,,2,,,62,127
3861,note_on,3,0,0,,2,,,38,127
3861,note_on,0,0,0,,2,,,62,127
3988,note_off,127,0,0,,2,,,62,127
3989,note_on,1,0,0,,2,,,74,127
4116,note_off,127,0,0,,2,,,74,127
4117,note_on,1,0,0,,2,,,74,127
4372,note_off,255,0,0,,2,,,38,127
4373,note_on,1,0,0,,2,,,50,127
4628,note_off,255,0,0,,2,,,50,127
4628,note_off,0,0,0,,2,,,74,127
4629,note_on,1,0,0,,2,,,38,127
4629,note_on,0,0,0,,6,,,66,127
4756,note_off,127,0,0,,6,,,66,127
4757,note_on,1,0,0,,6,,,78,127
4884,note_off,127,0,0,,6,,,78,127
4885,note_on,1,0,0,,6,,,78,127
5140,note_off,255,0,0,,2,,,38,127
5141,note_on,1,0,0,,2,,,50,127
5396,note_off,255,0,0,,2,,,50,127
5396,note_off,0,0,0,,6,,,78,127
5397,note_on,1,0,0,,2,,,38,127
5397,note_on,0,0,0,,10,,,69,127
5524,note_off,127,0,0,,10,,,69,127
5525,note_on,1,0,0,,10,,,81,127
5652,note_off,127,0,0,,10,,,81,127
5653,note_on,1,0,0,,10,,,81,127
5908,note_off,255,0,0,,2,,,38,127
5909,note_on,1,0,0,,2,,,50,127
6164,note_off,255,0,0,,2,,,50,127
6164,note_off,0,0,0,,10,,,81,127
6165,note_on,1,0,0,,7,,,55,127
6165,note_on,0,0,0,,2,,,74,127
6292,note_off,127,0,0,,2,,,74,127
6293,note_on,1,0,0,,2,,,86,127
6420,note_off,127,0,0,,2,,,86,127
6420,note_off,0,0,0,,7,,,55,127
6421,note_on,1,0,0,,10,,,57,127
6421,note_on,0,0,0,,1,,,85,127
6548,note_off,127,0,0,,1,,,85,127
6549,note_on,1,0,0,,2,,,74,127
6676,note_off,127,0,0,,2,,,74,127
6676,note_off,0,0,0,,10,,,57,127
6677,note_on,1,0,0,,10,,,45,127
6677,note_on,0,0,0,,1,,,73,127
6804,note_off,127,0,0,,1,,,73,127
6805,note_on,1,0,0,,7,,,67,127
6932,note_off,127,0,0,,10,,,45,127
6933,note_on,1,0,0,,2,,,38,127
7165,note_off,232,0,0,,7,,,67,127
7189,note_on,24,0,0,,7,,,67,127
7252,note_off,63,0,0,,7,,,67,127
7253,note_on,1,0,0,,6,,,66,127
7316,note_off,63,0,0,,6,,,66,127
7317,note_on,1,0,0,,4,,,64,127
7444,note_off,127,0,0,,4,,,64,127
7445,note_on,1,0,0,,2,,,62,127
7573,note_off,128,0,0,,2,,,38,127
7700,note_off,127,0,0,,2,,,62,127
7701,note_on,1,0,0,,2,,,50,127
7701,note_on,0,0,0,,1,,,85,127
7828,note_off,127,0,0,,1,,,85,127
7829,note_on,1,0,0,,2,,,86,127
7956,note_off,127,0,0,,2,,,86,127
7956,note_off,0,0,0,,2,,,50,127
7957,note_on,1,0,0,,4,,,52,127
7957,note_on,0,0,0,,2,,,86,127
8212,note_off,255,0,0,,4,,,52,127
8213,note_on,1,0,0,,6,,,54,127
8468,note_off,255,0,0,,6,,,54,127
8468,note_off,0,0,0,,2,,,86,127
8469,note_on,1,0,0,,7,,,55,127
8469,note_on,0,0,0,,3,,,75,127
8596,note_off,127,0,0,,3,,,75,127
8597,note_on,1,0,0,,4,,,76,127
8724,note_off,127,0,0,,4,,,76,127
8725,note_on,1,0,0,,4,,,76,127
8980,note_off,255,0,0,,7,,,55,127
8981,note_on,1,0,0,,7,,,43,127
9236,note_off,255,0,0,,7,,,43,127
9236,note_off,0,0,0,,4,,,76,127
9237,note_on,1,0,0,,7,,,55,127
9237,note_on,0,0,0,,11,,,82,127
9364,note_off,127,0,0,,11,,,82,127
9365,note_on,1,0,0,,12,,,83,127
9492,note_off,127,0,0,,12,,,83,127
9493,note_on,1,0,0,,7,,,79,127
9493,note_on,0,0,0,,10,,,81,127
9620,note_off,127,0,0,,10,,,81,127
9620,note_off,0,0,0,,7,,,79,127
9621,note_on,1,0,0,,6,,,78,127
9748,note_off,127,0,0,,6,,,78,127
9748,note_off,0,0,0,,7,,,55,127
9749,note_on,1,0,0,,7,,,43,127
9749,note_on,0,0,0,,4,,,76,127
9876,note_off,127,0,0,,4,,,76,127
9877,note_on,1,0,0,,2,,,74,127
10004,note_off,127,0,0,,2,,,74,127
10004,note_off,0,0,0,,7,,,43,127
10005,note_on,1,0,0,,10,,,45,127
10005,note_on,0,0,0,,2,,,74,127
10068,note_off,63,0,0,,2,,,74,127
10069,note_on,1,0,0,,1,,,73,127
10132,note_off,63,0,0,,1,,,73,127
10133,note_on,1,0,0,,2,,,74,127
10196,note_off,63,0,0,,2,,,74,127
10197,note_on,1,0,0,,1,,,73,127
10260,note_off,63,0,0,,1,,,73,127
10261,note_on,1,0,0,,2,,,74,127
10324,note_off,63,0,0,,2,,,74,127
10325,note_on,1,0,0,,1,,,73,127
10388,note_off,63,0,0,,1,,,73,127
10389,note_on,1,0,0,,12,,,71,127
10516,note_off,127,0,0,,12,,,71,127
10517,note_on,1,0,0,,10,,,69,127
10772,note_off,255,0,0,,10,,,69,127
10772,note_off,0,0,0,,10,,,45,127
10773,note_on,1,0,0,,10,,,45,127
10773,note_on,0,0,0,,10,,,81,127
10900,note_off,127,0,0,,10,,,81,127
10901,note_on,1,0,0,,10,,,81,127
11028,note_off,127,0,0,,10,,,81,127
11029,note_on,1,0,0,,10,,,69,127
11156,note_off,127,0,0,,10,,,69,127
11156,note_off,0,0,0,,10,,,45,127
11157,note_on,1,0,0,,10,,,57,127
11157,note_on,0,0,0,,10,,,69,127
11284,note_off,127,0,0,,10,,,69,127
11284,note_off,0,0,0,,10,,,57,127
11285,note_on,1,0,0,,6,,,54,127
11285,note_on,0,0,0,,6,,,66,127
11412,note_off,127,0,0,,6,,,66,127
11412,note_off,0,0,0,,6,,,54,127
11413,note_on,1,0,0,,2,,,50,127
11413,note_on,0,0,0,,2,,,62,127
11540,note_off,127,0,0,,2,,,62,127
11540,note_off,0,0,0,,2,,,50,127
11541,note_on,1,0,0,,10,,,45,127
11541,note_on,0,0,0,,10,,,81,127
11668,note_off,127,0,0,,10,,,81,127
11669,note_on,1,0,0,,10,,,81,127
11796,note_off,127,0,0,,10,,,81,127
11797,note_on,1,0,0,,10,,,69,127
11924,note_off,127,0,0,,10,,,69,127
11924,note_off,0,0,0,,10,,,45,127
11925,note_on,1,0,0,,10,,,57,127
11925,note_on,0,0,0,,10,,,69,127
12052,note_off,127,0,0,,10,,,69,127
12052,note_off,0,0,0,,10,,,57,127
12053,note_on,1,0,0,,6,,,54,127
12053,note_on,0,0,0,,6,,,66,127
12180,note_off,127,0,0,,6,,,66,127
12180,note_off,0,0,0,,6,,,54,127
12181,note_on,1,0,0,,2,,,50,127
12181,note_on,0,0,0,,2,,,62,127
12308,note_off,127,0,0,,2,,,62,127
12308,note_off,0,0,0,,2,,,50,127
12309,note_on,1,0,0,,10,,,45,127
12309,note_on,0,0,0,,10,,,81,127
12436,note_off,127,0,0,,10,,,81,127
12437,note_on,1,0,0,,10,,,81,127
12564,note_off,127,0,0,,10,,,81,127
12565,note_on,1,0,0,,10,,,69,127
12692,note_off,127,0,0,,10,,,69,127
12692,note_off,0,0,0,,10,,,45,127
12693,note_on,1,0,0,,10,,,57,127
12693,note_on,0,0,0,,10,,,69,127
12820,note_off,127,0,0,,10,,,69,127
12820,note_off,0,0,0,,10,,,57,127
12821,note_on,1,0,0,,6,,,54,127
12821,note_on,0,0,0,,6,,,66,127
12948,note_off,127,0,0,,6,,,66,127
12948,note_off,0,0,0,,6,,,54,127
12949,note_on,1,0,0,,2,,,50,127
12949,note_on,0,0,0,,2,,,62,127
13076,note_off,127,0,0,,2,,,62,127
13076,note_off,0,0,0,,2,,,50,127
13077,note_on,1,0,0,,10,,,45,127
13077,note_on,0,0,0,,10,,,57,127
13717,note_off,640,0,0,,10,,,45,127
13844,note_off,127,0,0,,10,,,57,127
13845,note_on,1,0,0,,2,,,86,127
13972,note_off,127,0,0,,2,,,86,127
13973,note_on,1,0,0,,12,,,83,127
14100,note_off,127,0,0,,12,,,83,127
14101,note_on,1,0,0,,12,,,71,127
14101,note_on,0,0,0,,2,,,74,127
14229,note_on,128,0,0,,1,,,85,127
14248,note_off,19,0,0,,2,,,74,127
14356,note_off,108,0,0,,12,,,71,127
14357,note_on,1,0,0,,10,,,69,127
14469,note_off,112,0,0,,1,,,85,127
14485,note_on,16,0,0,,4,,,88,127
14612,note_off,127,0,0,,4,,,88,127
14612,note_off,0,0,0,,10,,,69,127
14613,note_on,1,0,0,,8,,,68,127
14613,note_on,0,0,0,,2,,,86,127
14740,note_off,127,0,0,,2,,,86,127
14741,note_on,1,0,0,,12,,,83,127
14868,note_off,127,0,0,,12,,,83,127
14868,note_off,0,0,0,,8,,,68,127
14869,note_on,1,0,0,,12,,,71,127
14869,note_on,0,0,0,,4,,,76,127
14997,note_on,128,0,0,,1,,,85,127
15016,note_off,19,0,0,,4,,,76,127
15124,note_off,108,0,0,,12,,,71,127
15125,note_on,1,0,0,,10,,,69,127
15237,note_off,112,0,0,,1,,,85,127
15253,note_on,16,0,0,,4,,,88,127
15380,note_off,127,0,0,,4,,,88,127
15380,note_off,0,0,0,,10,,,69,127
15381,note_on,1,0,0,,8,,,68,127
15381,note_on,0,0,0,,2,,,86,127
15508,note_off,127,0,0,,2,,,86,127
15509,note_on,1,0,0,,12,,,83,127
15636,note_off,127,0,0,,12,,,83,127
15636,note_off,0,0,0,,8,,,68,127
15637,note_on,1,0,0,,12,,,71,127
15637,note_on,0,0,0,,2,,,74,127
15765,note_on,128,0,0,,1,,,85,127
15784,note_off,19,0,0,,2,,,74,127
15892,note_off,108,0,0,,12,,,71,127
15893,note_on,1,0,0,,10,,,69,127
16005,note_off,112,0,0,,1,,,85,127
16021,note_on,16,0,0,,4,,,88,127
16148,note_off,127,0,0,,4,,,88,127
16148,note_off,0,0,0,,10,,,69,127
16149,note_on,1,0,0,,8,,,68,127
16149,note_on,0,0,0,,2,,,86,127
16276,note_off,127,0,0,,2,,,86,127
16277,note_on,1,0,0,,12,,,83,127
16404,note_off,127,0,0,,12,,,83,127
16404,note_off,0,0,0,,8,,,68,127
16405,note_on,1,0,0,,12,,,71,127
16405,note_on,0,0,0,,4,,,76,127
16533,note_on,128,0,0,,1,,,85,127
16552,note_off,19,0,0,,4,,,76,127
16660,note_off,108,0,0,,12,,,71,127
16661,note_on,1,0,0,,10,,,69,127
16773,note_off,112,0,0,,1,,,85,127
16789,note_on,16,0,0,,4,,,88,127
16916,note_off,127,0,0,,4,,,88,127
16916,note_off,0,0,0,,10,,,69,127
16917,note_on,1,0,0,,8,,,68,127
16917,note_on,0,0,0,,2,,,86,127
17044,note_off,127,0,0,,2,,,86,127
17045,note_on,1,0,0,,12,,,83,127
17172,note_off,127,0,0,,12,,,83,127
17172,note_off,0,0,0,,8,,,68,127
17173,note_on,1,0,0,,12,,,71,127
17173,note_on,0,0,0,,2,,,74,127
17301,note_on,128,0,0,,1,,,85,127
17333,note_off,32,0,0,,2,,,74,127
17428,note_off,95,0,0,,12,,,71,127
17429,note_on,1,0,0,,10,,,69,127
17556,note_off,127,0,0,,1,,,85,127
17557,note_on,1,0,0,,4,,,88,127
17684,note_off,127,0,0,,4,,,88,127
17684,note_off,0,0,0,,10,,,69,127
17685,note_on,1,0,0,,8,,,68,127
17685,note_on,0,0,0,,2,,,86,127
17812,note_off,127,0,0,,2,,,86,127
17813,note_on,1,0,0,,12,,,83,127
17940,note_off,127,0,0,,12,,,83,127
17940,note_off,0,0,0,,8,,,68,127
17941,note_on,1,0,0,,4,,,64,127
17941,note_on,0,0,0,,8,,,80,127
18068,note_off,127,0,0,,8,,,80,127
18069,note_on,1,0,0,,2,,,74,127
18196,note_off,127,0,0,,2,,,74,127
18196,note_off,0,0,0,,4,,,64,127
18197,note_on,1,0,0,,8,,,68,127
18197,note_on,0,0,0,,12,,,83,127
18324,note_off,127,0,0,,12,,,83,127
18325,note_on,1,0,0,,2,,,74,127
18452,note_off,127,0,0,,2,,,74,127
18452,note_off,0,0,0,,8,,,68,127
18453,note_on,1,0,0,,10,,,69,127
18453,note_on,0,0,0,,1,,,85,127
18580,note_off,127,0,0,,1,,,85,127
18581,note_on,1,0,0,,10,,,81,127
18708,note_off,127,0,0,,10,,,81,127
18708,note_off,0,0,0,,10,,,69,127
18709,note_on,1,0,0,,1,,,61,127
18709,note_on,0,0,0,,4,,,76,127
18836,note_off,127,0,0,,4,,,76,127
18837,note_on,1,0,0,,1,,,73,127
18964,note_off,127,0,0,,1,,,73,127
18964,note_off,0,0,0,,1,,,61,127
18965,note_on,1,0,0,,10,,,57,127
18965,note_on,0,0,0,,10,,,81,127
19092,note_off,127,0,0,,10,,,81,127
19093,note_on,1,0,0,,1,,,73,127
19220,note_off,127,0,0,,1,,,73,127
19220,note_off,0,0,0,,10,,,57,127
19221,note_on,1,0,0,,2,,,50,127
19221,note_on,0,0,0,,6,,,78,127
19476,note_off,255,0,0,,6,,,78,127
19476,note_off,0,0,0,,2,,,50,127
19477,note_on,1,0,0,,4,,,52,127
19477,note_on,0,0,0,,1,,,73,127
19540,note_off,63,0,0,,1,,,73,127
19541,note_on,1,0,0,,12,,,71,127
19604,note_off,63,0,0,,12,,,71,127
19605,note_on,1,0,0,,1,,,73,127
19668,note_off,63,0,0,,1,,,73,127
19669,note_on,1,0,0,,12,,,71,127
19732,note_off,63,0,0,,12,,,71,127
19732,note_off,0,0,0,,4,,,52,127
19733,note_on,1,0,0,,4,,,40,127
19733,note_on,0,0,0,,1,,,73,127
19796,note_off,63,0,0,,1,,,73,127
19797,note_on,1,0,0,,12,,,71,127
19860,note_off,63,0,0,,12,,,71,127
19861,note_on,1,0,0,,10,,,69,127
19924,note_off,63,0,0,,10,,,69,127
19925,note_on,1,0,0,,12,,,71,127
19988,note_off,63,0,0,,12,,,71,127
19988,note_off,0,0,0,,4,,,40,127
19989,note_on,1,0,0,,10,,,45,127
19989,note_on,0,0,0,,10,,,69,127
20629,note_off,640,0,0,,10,,,45,127
20756,note_off,127,0,0,,10,,,69,127
20757,note_on,1,0,0,,2,,,86,127
20884,note_off,127,0,0,,2,,,86,127
20885,note_on,1,0,0,,12,,,83,127
21012,note_off,127,0,0,,12,,,83,127
21013,note_on,1,0,0,,12,,,71,127
21013,note_on,0,0,0,,2,,,74,127
21141,note_on,128,0,0,,1,,,85,127
21266,note_off,125,0,0,,2,,,74,127
21267,note_off,1,0,0,,12,,,71,127
21268,note_on,1,0,0,,10,,,69,127
21395,note_off,127,0,0,,1,,,85,127
21396,note_on,1,0,0,,4,,,88,127
21523,note_off,127,0,0,,4,,,88,127
21523,note_off,0,0,0,,10,,,69,127
21524,note_on,1,0,0,,8,,,68,127
21524,note_on,0,0,0,,2,,,86,127
21651,note_off,127,0,0,,2,,,86,127
21652,note_on,1,0,0,,12,,,83,127
21779,note_off,127,0,0,,12,,,83,127
21779,note_off,0,0,0,,8,,,68,127
21780,note_on,1,0,0,,12,,,71,127
21780,note_on,0,0,0,,4,,,76,127
21908,note_on,128,0,0,,1,,,85,127
22033,note_off,125,0,0,,4,,,76,127
22034,note_off,1,0,0,,12,,,71,127
22035,note_on,1,0,0,,10,,,69,127
22162,note_off,127,0,0,,1,,,85,127
22163,note_on,1,0,0,,4,,,88,127
22290,note_off,127,0,0,,4,,,88,127
22290,note_off,0,0,0,,10,,,69,127
22291,note_on,1,0,0,,8,,,68,127
22291,note_on,0,0,0,,2,,,86,127
22418,note_off,127,0,0,,2,,,86,127
22419,note_on,1,0,0,,12,,,83,127
22546,note_off,127,0,0,,12,,,83,127
22546,note_off,0,0,0,,8,,,68,127
22547,note_on,1,0,0,,12,,,71,127
22547,note_on,0,0,0,,2,,,74,127
22675,note_on,128,0,0,,1,,,85,127
22800,note_off,125,0,0,,2,,,74,127
22801,note_off,1,0,0,,12,,,71,127
22802,note_on,1,0,0,,10,,,69,127
22929,note_off,127,0,0,,1,,,85,127
22930,note_on,1,0,0,,4,,,88,127
23057,note_off,127,0,0,,4,,,88,127
23057,note_off,0,0,0,,10,,,69,127
23058,note_on,1,0,0,,8,,,68,127
23058,note_on,0,0,0,,2,,,86,127
23185,note_off,127,0,0,,2,,,86,127
23186,note_on,1,0,0,,12,,,83,127
23313,note_off,127,0,0,,12,,,83,127
23313,note_off,0,0,0,,8,,,68,127
23314,note_on,1,0,0,,12,,,71,127
23314,note_on,0,0,0,,4,,,76,127
23442,note_on,128,0,0,,1,,,85,127
23567,note_off,125,0,0,,4,,,76,127
23568,note_off,1,0,0,,12,,,71,127
23569,note_on,1,0,0,,10,,,69,127
23696,note_off,127,0,0,,1,,,85,127
23697,note_on,1,0,0,,4,,,88,127
23824,note_off,127,0,0,,4,,,88,127
23824,note_off,0,0,0,,10,,,69,127
23825,note_on,1,0,0,,8,,,68,127
23825,note_on,0,0,0,,2,,,86,127
23952,note_off,127,0,0,,2,,,86,127
23953,note_on,1,0,0,,12,,,83,127
24080,note_off,127,0,0,,12,,,83,127
24080,note_off,0,0,0,,8,,,68,127
24081,note_on,1,0,0,,12,,,71,127
24081,note_on,0,0,0,,2,,,74,127
24209,note_on,128,0,0,,1,,,85,127
24334,note_off,125,0,0,,2,,,74,127
24335,note_off,1,0,0,,12,,,71,127
24336,note_on,1,0,0,,10,,,69,127
24463,note_off,127,0,0,,1,,,85,127
24464,note_on,1,0,0,,4,,,88,127
24591,note_off,127,0,0,,4,,,88,127
24591,note_off,0,0,0,,10,,,69,127
24592,note_on,1,0,0,,8,,,68,127
24592,note_on,0,0,0,,2,,,86,127
24719,note_off,127,0,0,,2,,,86,127
24720,note_on,1,0,0,,12,,,83,127
24847,note_off,127,0,0,,12,,,83,127
24847,note_off,0,0,0,,8,,,68,127
24848,note_on,1,0,0,,4,,,64,127
24848,note_on,0,0,0,,8,,,80,127
24975,note_off,127,0,0,,8,,,80,127
24976,note_on,1,0,0,,2,,,74,127
25103,note_off,127,0,0,,2,,,74,127
25103,note_off,0,0,0,,4,,,64,127
25104,note_on,1,0,0,,8,,,68,127
25104,note_on,0,0,0,,12,,,83,127
25231,note_off,127,0,0,,12,,,83,127
25232,note_on,1,0,0,,2,,,74,127
25359,note_off,127,0,0,,2,,,74,127
25359,note_off,0,0,0,,8,,,68,127
25360,note_on,1,0,0,,10,,,69,127
25360,note_on,0,0,0,,1,,,85,127
25487,note_off,127,0,0,,1,,,85,127
25488,note_on,1,0,0,,10,,,81,127
25615,note_off,127,0,0,,10,,,81,127
25615,note_off,0,0,0,,10,,,69,127
25616,note_on,1,0,0,,1,,,61,127
25616,note_on,0,0,0,,4,,,76,127
25743,note_off,127,0,0,,4,,,76,127
25744,note_on,1,0,0,,1,,,73,127
25871,note_off,127,0,0,,1,,,73,127
25871,note_off,0,0,0,,1,,,61,127
25872,note_on,1,0,0,,10,,,57,127
25872,note_on,0,0,0,,10,,,81,127
25999,note_off,127,0,0,,10,,,81,127
26000,note_on,1,0,0,,1,,,73,127
26127,note_off,127,0,0,,1,,,73,127
26127,note_off,0,0,0,,10,,,57,127
26128,note_on,1,0,0,,2,,,50,127
26128,note_on,0,0,0,,6,,,78,127
26383,note_off,255,0,0,,6,,,78,127
26383,note_off,0,0,0,,2,,,50,127
26384,note_on,1,0,0,,4,,,52,127
26384,note_on,0,0,0,,1,,,73,127
26447,note_off,63,0,0,,1,,,73,127
26448,note_on,1,0,0,,12,,,71,127
26511,note_off,63,0,0,,12,,,71,127
26512,note_on,1,0,0,,1,,,73,127
26575,note_off,63,0,0,,1,,,73,127
26576,note_on,1,0,0,,12,,,71,127
26639,note_off,63,0,0,,12,,,71,127
26640,note_on,1,0,0,,4,,,40,127
26640,note_on,0,0,0,,1,,,73,127
26703,note_off,63,0,0,,1,,,73,127
26704,note_on,1,0,0,,12,,,71,127
26767,note_off,63,0,0,,12,,,71,127
26768,note_on,1,0,0,,10,,,69,127
26831,note_off,63,0,0,,10,,,69,127
26832,note_on,1,0,0,,12,,,71,127
26880,note_off,48,0,0,,4,,,40,127
26895,note_off,15,0,0,,12,,,71,127
26896,note_off,1,0,0,,4,,,52,127
26897,note_on,1,0,0,,10,,,57,127
26897,note_on,0,0,0,,10,,,69,127
27024,note_off,127,0,0,,10,,,69,127
27025,note_on,1,0,0,,8,,,80,127
27152,note_off,127,0,0,,8,,,80,127
27152,note_off,0,0,0,,10,,,57,127
27153,note_on,1,0,0,,12,,,59,127
27153,note_on,0,0,0,,10,,,81,127
27280,note_off,127,0,0,,10,,,81,127
27281,note_on,1,0,0,,3,,,75,127
27408,note_off,127,0,0,,12,,,59,127
27409,note_on,1,0,0,,1,,,61,127
27536,note_off,127,0,0,,3,,,75,127
27537,note_on,1,0,0,,4,,,76,127
27664,note_off,127,0,0,,4,,,76,127
27664,note_off,0,0,0,,1,,,61,127
27665,note_on,1,0,0,,2,,,62,127
27665,note_on,0,0,0,,6,,,66,127
27792,note_off,127,0,0,,6,,,66,127
27793,note_on,1,0,0,,2,,,74,127
27920,note_off,127,0,0,,2,,,74,127
27920,note_off,0,0,0,,2,,,62,127
27921,note_on,1,0,0,,4,,,64,127
27921,note_on,0,0,0,,1,,,73,127
27984,note_off,63,0,0,,1,,,73,127
27985,note_on,1,0,0,,12,,,71,127
28048,note_off,63,0,0,,12,,,71,127
28049,note_on,1,0,0,,1,,,73,127
28112,note_off,63,0,0,,1,,,73,127
28113,note_on,1,0,0,,12,,,71,127
28176,note_off,63,0,0,,12,,,71,127
28177,note_on,1,0,0,,4,,,52,127
28177,note_on,0,0,0,,1,,,73,127
28240,note_off,63,0,0,,1,,,73,127
28241,note_on,1,0,0,,12,,,71,127
28304,note_off,63,0,0,,12,,,71,127
28305,note_off,1,0,0,,4,,,64,127
28306,note_on,1,0,0,,10,,,69,127
28369,note_off,63,0,0,,10,,,69,127
28370,note_on,1,0,0,,12,,,71,127
28433,note_off,63,0,0,,12,,,71,127
28433,note_off,0,0,0,,4,,,52,127
28434,note_on,1,0,0,,10,,,45,127
28434,note_on,0,0,0,,10,,,69,127
28561,note_off,127,0,0,,10,,,69,127
28562,note_on,1,0,0,,8,,,80,127
28689,note_off,127,0,0,,8,,,80,127
28689,note_off,0,0,0,,10,,,45,127
28690,note_on,1,0,0,,12,,,47,127
28690,note_on,0,0,0,,10,,,81,127
28817,note_off,127,0,0,,10,,,81,127
28818,note_on,1,0,0,,3,,,75,127
28945,note_off,127,0,0,,12,,,47,127
28946,note_on,1,0,0,,1,,,49,127
29073,note_off,127,0,0,,3,,,75,127
29074,note_on,1,0,0,,4,,,76,127
29201,note_off,127,0,0,,4,,,76,127
29201,note_off,0,0,0,,1,,,49,127
29202,note_on,1,0,0,,2,,,50,127
29202,note_on,0,0,0,,6,,,66,127
29329,note_off,127,0,0,,6,,,66,127
29330,note_on,1,0,0,,2,,,74,127
29457,note_off,127,0,0,,2,,,74,127
29457,note_off,0,0,0,,2,,,50,127
29458,note_on,1,0,0,,4,,,52,127
29458,note_on,0,0,0,,1,,,73,127
29521,note_off,63,0,0,,1,,,73,127
29522,note_on,1,0,0,,12,,,71,127
29585,note_off,63,0,0,,12,,,71,127
29586,note_on,1,0,0,,1,,,73,127
29649,note_off,63,0,0,,1,,,73,127
29650,note_on,1,0,0,,12,,,71,127
29713,note_off,63,0,0,,12,,,71,127
29714,note_on,1,0,0,,4,,,40,127
29714,note_on,0,0,0,,1,,,73,127
29777,note_off,63,0,0,,1,,,73,127
29778,note_on,1,0,0,,12,,,71,127
29841,note_off,63,0,0,,12,,,71,127
29842,note_on,1,0,0,,10,,,69,127
29905,note_off,63,0,0,,10,,,69,127
29906,note_on,1,0,0,,12,,,71,127
29969,note_off,63,0,0,,12,,,71,127
29969,note_off,0,0,0,,4,,,40,127
29970,note_off,1,0,0,,4,,,52,127
29971,note_on,1,0,0,,10,,,45,127
29971,note_on,0,0,0,,10,,,69,127
30482,note_off,511,0,0,,10,,,69,127
30737,note_off,255,0,0,,10,,,45,127
30738,note_on,1,0,0,,10,,,57,127
30738,note_on,0,0,0,,4,,,64,127
30738,note_on,0,0,0,,1,,,73,127
30865,note_off,127,0,0,,1,,,73,127
30866,note_on,1,0,0,,1,,,85,127
30993,note_off,127,0,0,,1,,,85,127
30993,note_off,0,0,0,,4,,,64,127
30993,note_off,0,0,0,,10,,,57,127
30994,note_on,1,0,0,,10,,,57,127
30994,note_on,0,0,0,,4,,,64,127
30994,note_on,0,0,0,,1,,,85,127
31249,note_off,255,0,0,,4,,,64,127
31249,note_off,0,0,0,,10,,,57,127
31250,note_on,1,0,0,,10,,,57,127
31250,note_on,0,0,0,,4,,,64,127
31505,note_off,255,0,0,,4,,,64,127
31505,note_off,0,0,0,,10,,,57,127
31505,note_off,0,0,0,,1,,,85,127
31506,note_on,1,0,0,,7,,,55,127
31506,note_on,0,0,0,,4,,,64,127
31506,note_on,0,0,0,,1,,,73,127
31633,note_off,127,0,0,,1,,,73,127
31634,note_on,1,0,0,,1,,,85,127
31761,note_off,127,0,0,,1,,,85,127
31761,note_off,0,0,0,,4,,,64,127
31761,note_off,0,0,0,,7,,,55,127
31762,note_on,1,0,0,,7,,,55,127
31762,note_on,0,0,0,,4,,,64,127
31762,note_on,0,0,0,,1,,,85,127
32017,note_off,255,0,0,,4,,,64,127
32017,note_off,0,0,0,,7,,,55,127
32018,note_on,1,0,0,,7,,,55,127
32018,note_on,0,0,0,,4,,,64,127
32273,note_off,255,0,0,,4,,,64,127
32273,note_off,0,0,0,,7,,,55,127
32273,note_off,0,0,0,,1,,,85,127
32274,note_on,1,0,0,,6,,,54,127
32274,note_on,0,0,0,,4,,,64,127
32274,note_on,0,0,0,,1,,,73,127
32401,note_off,127,0,0,,1,,,73,127
32402,note_on,1,0,0,,1,,,85,127
32529,note_off,127,0,0,,1,,,85,127
32529,note_off,0,0,0,,4,,,64,127
32529,note_off,0,0,0,,6,,,54,127
32530,note_on,1,0,0,,2,,,62,127
32530,note_on,0,0,0,,6,,,54,127
32530,note_on,0,0,0,,2,,,74,127
32657,note_off,127,0,0,,2,,,74,127
32658,note_on,1,0,0,,12,,,83,127
32785,note_off,127,0,0,,12,,,83,127
32785,note_off,0,0,0,,6,,,54,127
32785,note_off,0,0,0,,2,,,62,127
32786,note_on,1,0,0,,1,,,61,127
32786,note_on,0,0,0,,6,,,54,127
32786,note_on,0,0,0,,4,,,76,127
32913,note_off,127,0,0,,4,,,76,127
32914,note_on,1,0,0,,11,,,82,127
33041,note_off,127,0,0,,11,,,82,127
33041,note_off,0,0,0,,6,,,54,127
33041,note_off,0,0,0,,1,,,61,127
33042,note_on,1,0,0,,6,,,54,127
33042,note_on,0,0,0,,12,,,59,127
33042,note_on,0,0,0,,2,,,62,127
33042,note_on,0,0,0,,1,,,85,127
33105,note_off,63,0,0,,1,,,85,127
33106,note_on,1,0,0,,12,,,83,127
33169,note_off,63,0,0,,12,,,83,127
33170,note_on,1,0,0,,11,,,82,127
33233,note_off,63,0,0,,11,,,82,127
33234,note_on,1,0,0,,12,,,83,127
33297,note_off,63,0,0,,12,,,83,127
33298,note_on,1,0,0,,12,,,83,127
33553,note_off,255,0,0,,12,,,83,127
33553,note_off,0,0,0,,2,,,62,127
33553,note_off,0,0,0,,12,,,59,127
33553,note_off,0,0,0,,6,,,54,127
33554,note_on,1,0,0,,6,,,54,127
33554,note_on,0,0,0,,1,,,61,127
33554,note_on,0,0,0,,1,,,85,127
33746,note_off,192,0,0,,1,,,85,127
33809,note_off,63,0,0,,1,,,61,127
33809,note_off,0,0,0,,6,,,54,127
33810,note_on,1,0,0,,4,,,64,127
33810,note_on,0,0,0,,6,,,54,127
33810,note_on,0,0,0,,1,,,73,127
33937,note_off,127,0,0,,1,,,73,127
33938,note_on,1,0,0,,1,,,85,127
34065,note_off,127,0,0,,1,,,85,127
34065,note_off,0,0,0,,6,,,54,127
34065,note_off,0,0,0,,4,,,64,127
34066,note_on,1,0,0,,6,,,54,127
34066,note_on,0,0,0,,4,,,64,127
34066,note_on,0,0,0,,1,,,85,127
34321,note_off,255,0,0,,4,,,64,127
34321,note_off,0,0,0,,6,,,54,127
34322,note_on,1,0,0,,6,,,54,127
34322,note_on,0,0,0,,4,,,64,127
34577,note_off,255,0,0,,4,,,64,127
34577,note_off,0,0,0,,6,,,54,127
34577,note_off,0,0,0,,1,,,85,127
34578,note_on,1,0,0,,7,,,55,127
34578,note_on,0,0,0,,4,,,64,127
34578,note_on,0,0,0,,1,,,73,127
34705,note_off,127,0,0,,1,,,73,127
34706,note_on,1,0,0,,1,,,85,127
34833,note_off,127,0,0,,1,,,85,127
34833,note_off,0,0,0,,4,,,64,127
34833,note_off,0,0,0,,7,,,55,127
34834,note_on,1,0,0,,7,,,55,127
34834,note_on,0,0,0,,4,,,64,127
34834,note_on,0,0,0,,1,,,85,127
35089,note_off,255,0,0,,4,,,64,127
35089,note_off,0,0,0,,7,,,55,127
35090,note_on,1,0,0,,7,,,55,127
35090,note_on,0,0,0,,4,,,64,127
35345,note_off,255,0,0,,4,,,64,127
35345,note_off,0,0,0,,7,,,55,127
35345,note_off,0,0,0,,1,,,85,127
35346,note_on,1,0,0,,10,,,57,127
35346,note_on,0,0,0,,4,,,64,127
35346,note_on,0,0,0,,1,,,73,127
35473,note_off,127,0,0,,1,,,73,127
35474,note_on,1,0,0,,1,,,85,127
35601,note_off,127,0,0,,1,,,85,127
35601,note_off,0,0,0,,4,,,64,127
35601,note_off,0,0,0,,10,,,57,127
35602,note_on,1,0,0,,10,,,57,127
35602,note_on,0,0,0,,4,,,64,127
35602,note_on,0,0,0,,2,,,86,127
35665,note_off,63,0,0,,2,,,86,127
35666,note_on,1,0,0,,1,,,85,127
35729,note_off,63,0,0,,1,,,85,127
35730,note_on,1,0,0,,2,,,86,127
35793,note_off,63,0,0,,2,,,86,127
35794,note_on,1,0,0,,1,,,85,127
35857,note_off,63,0,0,,1,,,85,127
35857,note_off,0,0,0,,4,,,64,127
35857,note_off,0,0,0,,10,,,57,127
35858,note_on,1,0,0,,10,,,57,127
35858,note_on,0,0,0,,4,,,64,127
35858,note_on,0,0,0,,2,,,86,127
35921,note_off,63,0,0,,2,,,86,127
35922,note_on,1,0,0,,1,,,85,127
35985,note_off,63,0,0,,1,,,85,127
35986,note_on,1,0,0,,12,,,83,127
36049,note_off,63,0,0,,12,,,83,127
36050,note_on,1,0,0,,1,,,85,127
36113,note_off,63,0,0,,1,,,85,127
36113,note_off,0,0,0,,4,,,64,127
36113,note_off,0,0,0,,10,,,57,127
36114,note_on,1,0,0,,2,,,62,127
36114,note_on,0,0,0,,2,,,50,127
36114,note_on,0,0,0,,2,,,86,127
36241,note_off,127,0,0,,2,,,86,127
36242,note_on,1,0,0,,10,,,81,127
36369,note_off,127,0,0,,10,,,81,127
36369,note_off,0,0,0,,2,,,50,127
36369,note_off,0,0,0,,2,,,62,127
36370,note_on,1,0,0,,4,,,52,127
36370,note_on,0,0,0,,6,,,78,127
36497,note_off,127,0,0,,6,,,78,127
36498,note_on,1,0,0,,2,,,74,127
36625,note_off,127,0,0,,2,,,74,127
36625,note_off,0,0,0,,4,,,52,127
36626,note_on,1,0,0,,6,,,54,127
36626,note_on,0,0,0,,2,,,86,127
36753,note_off,127,0,0,,2,,,86,127
36754,note_on,1,0,0,,1,,,85,127
36881,note_off,127,0,0,,1,,,85,127
36881,note_off,0,0,0,,6,,,54,127
36882,note_on,1,0,0,,7,,,55,127
36882,note_on,0,0,0,,11,,,82,127
37009,note_off,127,0,0,,11,,,82,127
37010,note_on,1,0,0,,12,,,83,127
37137,note_off,127,0,0,,12,,,83,127
37138,note_on,1,0,0,,6,,,78,127
37265,note_off,127,0,0,,6,,,78,127
37266,note_on,1,0,0,,7,,,79,127
37393,note_off,127,0,0,,7,,,79,127
37393,note_off,0,0,0,,7,,,55,127
37394,note_on,1,0,0,,7,,,43,127
37394,note_on,0,0,0,,3,,,75,127
37521,note_off,127,0,0,,3,,,75,127
37522,note_on,1,0,0,,4,,,76,127
37649,note_off,127,0,0,,4,,,76,127
37649,note_off,0,0,0,,7,,,43,127
37650,note_on,1,0,0,,7,,,55,127
37650,note_on,0,0,0,,11,,,82,127
37777,note_off,127,0,0,,11,,,82,127
37778,note_on,1,0,0,,12,,,83,127
37905,note_off,127,0,0,,12,,,83,127
37906,note_on,1,0,0,,7,,,79,127
37906,note_on,0,0,0,,10,,,81,127
38033,note_off,127,0,0,,10,,,81,127
38033,note_off,0,0,0,,7,,,79,127
38034,note_on,1,0,0,,6,,,78,127
38161,note_off,127,0,0,,6,,,78,127
38161,note_off,0,0,0,,7,,,55,127
38162,note_on,1,0,0,,7,,,43,127
38162,note_on,0,0,0,,4,,,76,127
38289,note_off,127,0,0,,4,,,76,127
38290,note_on,1,0,0,,2,,,74,127
38417,note_off,127,0,0,,2,,,74,127
38417,note_off,0,0,0,,7,,,43,127
38418,note_on,1,0,0,,10,,,45,127
38418,note_on,0,0,0,,2,,,74,127
38481,note_off,63,0,0,,2,,,74,127
38482,note_on,1,0,0,,1,,,73,127
38545,note_off,63,0,0,,1,,,73,127
38546,note_on,1,0,0,,2,,,74,127
38609,note_off,63,0,0,,2,,,74,127
38610,note_on,1,0,0,,1,,,73,127
38673,note_off,63,0,0,,1,,,73,127
38674,note_on,1,0,0,,2,,,74,127
38737,note_off,63,0,0,,2,,,74,127
38738,note_on,1,0,0,,1,,,73,127
38801,note_off,63,0,0,,1,,,73,127
38802,note_on,1,0,0,,12,,,71,127
38929,note_off,127,0,0,,12,,,71,127
38930,note_on,1,0,0,,10,,,69,127
39185,note_off,255,0,0,,10,,,69,127
39185,note_off,0,0,0,,10,,,45,127
39186,note_on,1,0,0,,10,,,45,127
39186,note_on,0,0,0,,10,,,81,127
39313,note_off,127,0,0,,10,,,81,127
39314,note_on,1,0,0,,10,,,81,127
39441,note_off,127,0,0,,10,,,81,127
39442,note_on,1,0,0,,10,,,69,127
39569,note_off,127,0,0,,10,,,69,127
39569,note_off,0,0,0,,10,,,45,127
39570,note_on,1,0,0,,10,,,57,127
39570,note_on,0,0,0,,10,,,69,127
39697,note_off,127,0,0,,10,,,69,127
39697,note_off,0,0,0,,10,,,57,127
39698,note_on,1,0,0,,6,,,54,127
39698,note_on,0,0,0,,6,,,66,127
39825,note_off,127,0,0,,6,,,66,127
39825,note_off,0,0,0,,6,,,54,127
39826,note_on,1,0,0,,2,,,50,127
39826,note_on,0,0,0,,2,,,62,127
39953,note_off,127,0,0,,2,,,62,127
39953,note_off,0,0,0,,2,,,50,127
39954,note_on,1,0,0,,10,,,45,127
39954,note_on,0,0,0,,10,,,81,127
40081,note_off,127,0,0,,10,,,81,127
40082,note_on,1,0,0,,10,,,81,127
40209,note_off,127,0,0,,10,,,81,127
40210,note_on,1,0,0,,10,,,69,127
40337,note_off,127,0,0,,10,,,69,127
40337,note_off,0,0,0,,10,,,45,127
40338,note_on,1,0,0,,10,,,57,127
40338,note_on,0,0,0,,10,,,69,127
40465,note_off,127,0,0,,10,,,69,127
40465,note_off,0,0,0,,10,,,57,127
40466,note_on,1,0,0,,6,,,54,127
40466,note_on,0,0,0,,6,,,66,127
40593,note_off,127,0,0,,6,,,66,127
40593,note_off,0,0,0,,6,,,54,127
40594,note_on,1,0,0,,2,,,50,127
40594,note_on,0,0,0,,2,,,62,127
40721,note_off,127,0,0,,2,,,62,127
40721,note_off,0,0,0,,2,,,50,127
40722,note_on,1,0,0,,10,,,45,127
40722,note_on,0,0,0,,10,,,81,127
40849,note_off,127,0,0,,10,,,81,127
40850,note_on,1,0,0,,10,,,81,127
40977,note_off,127,0,0,,10,,,81,127
40978,note_on,1,0,0,,10,,,69,127
41105,note_off,127,0,0,,10,,,69,127
41105,note_off,0,0,0,,10,,,45,127
41106,note_on,1,0,0,,10,,,57,127
41106,note_on,0,0,0,,10,,,69,127
41233,note_off,127,0,0,,10,,,69,127
41233,note_off,0,0,0,,10,,,57,127
41234,note_on,1,0,0,,6,,,54,127
41234,note_on,0,0,0,,6,,,66,127
41361,note_off,127,0,0,,6,,,66,127
41361,note_off,0,0,0,,6,,,54,127
41362,note_on,1,0,0,,2,,,50,127
41362,note_on,0,0,0,,2,,,62,127
41489,note_off,127,0,0,,2,,,62,127
41489,note_off,0,0,0,,2,,,50,127
41490,note_on,1,0,0,,10,,,33,127
41490,note_on,0,0,0,,10,,,57,127
42130,note_off,640,0,0,,10,,,33,127
42257,note_off,127,0,0,,10,,,57,127
42258,note_on,1,0,0,,7,,,79,127
42385,note_off,127,0,0,,7,,,79,127
42386,note_on,1,0,0,,4,,,76,127
42513,note_off,127,0,0,,4,,,76,127
42514,note_on,1,0,0,,4,,,64,127
42514,note_on,0,0,0,,7,,,67,127
42641,note_off,127,0,0,,7,,,67,127
42642,note_on,1,0,0,,6,,,78,127
42769,note_off,127,0,0,,4,,,64,127
42770,note_on,1,0,0,,2,,,62,127
42869,note_off,99,0,0,,6,,,78,127
42898,note_on,29,0,0,,10,,,81,127
43025,note_off,127,0,0,,10,,,81,127
43025,note_off,0,0,0,,2,,,62,127
43026,note_on,1,0,0,,1,,,61,127
43026,note_on,0,0,0,,7,,,79,127
43153,note_off,127,0,0,,7,,,79,127
43154,note_on,1,0,0,,4,,,76,127
43281,note_off,127,0,0,,4,,,76,127
43281,note_off,0,0,0,,1,,,61,127
43282,note_on,1,0,0,,4,,,64,127
43282,note_on,0,0,0,,10,,,69,127
43409,note_off,127,0,0,,10,,,69,127
43410,note_on,1,0,0,,6,,,78,127
43537,note_off,127,0,0,,4,,,64,127
43538,note_on,1,0,0,,2,,,62,127
43637,note_off,99,0,0,,6,,,78,127
43666,note_on,29,0,0,,10,,,81,127
43793,note_off,127,0,0,,10,,,81,127
43793,note_off,0,0,0,,2,,,62,127
43794,note_on,1,0,0,,1,,,61,127
43794,note_on,0,0,0,,7,,,79,127
43921,note_off,127,0,0,,7,,,79,127
43922,note_on,1,0,0,,4,,,76,127
44049,note_off,127,0,0,,4,,,76,127
44049,note_off,0,0,0,,1,,,61,127
44050,note_on,1,0,0,,4,,,64,127
44050,note_on,0,0,0,,7,,,67,127
44177,note_off,127,0,0,,7,,,67,127
44178,note_on,1,0,0,,6,,,78,127
44305,note_off,127,0,0,,4,,,64,127
44306,note_on,1,0,0,,2,,,62,127
44411,note_off,105,0,0,,6,,,78,127
44434,note_on,23,0,0,,10,,,81,127
44561,note_off,127,0,0,,10,,,81,127
44561,note_off,0,0,0,,2,,,62,127
44562,note_on,1,0,0,,1,,,61,127
44562,note_on,0,0,0,,7,,,79,127
44689,note_off,127,0,0,,7,,,79,127
44690,note_on,1,0,0,,4,,,76,127
44817,note_off,127,0,0,,4,,,76,127
44817,note_off,0,0,0,,1,,,61,127
44818,note_on,1,0,0,,4,,,64,127
44818,note_on,0,0,0,,10,,,69,127
44945,note_off,127,0,0,,10,,,69,127
44946,note_on,1,0,0,,6,,,78,127
45073,note_off,127,0,0,,4,,,64,127
45074,note_on,1,0,0,,2,,,62,127
45179,note_off,105,0,0,,6,,,78,127
45202,note_on,23,0,0,,10,,,81,127
45329,note_off,127,0,0,,10,,,81,127
45329,note_off,0,0,0,,2,,,62,127
45330,note_on,1,0,0,,1,,,61,127
45330,note_on,0,0,0,,7,,,79,127
45457,note_off,127,0,0,,7,,,79,127
45458,note_on,1,0,0,,4,,,76,127
45585,note_off,127,0,0,,4,,,76,127
45585,note_off,0,0,0,,1,,,61,127
45586,note_on,1,0,0,,4,,,64,127
45586,note_on,0,0,0,,7,,,67,127
45713,note_off,127,0,0,,7,,,67,127
45714,note_on,1,0,0,,6,,,78,127
45841,note_off,127,0,0,,4,,,64,127
45842,note_on,1,0,0,,2,,,62,127
45961,note_off,119,0,0,,6,,,78,127
45970,note_on,9,0,0,,10,,,81,127
46097,note_off,127,0,0,,10,,,81,127
46097,note_off,0,0,0,,2,,,62,127
46098,note_on,1,0,0,,1,,,61,127
46098,note_on,0,0,0,,7,,,79,127
46225,note_off,127,0,0,,7,,,79,127
46226,note_on,1,0,0,,4,,,76,127
46353,note_off,127,0,0,,4,,,76,127
46353,note_off,0,0,0,,1,,,61,127
46354,note_on,1,0,0,,10,,,57,127
46354,note_on,0,0,0,,1,,,73,127
46481,note_off,127,0,0,,1,,,73,127
46482,note_on,1,0,0,,10,,,69,127
46609,note_off,127,0,0,,10,,,69,127
46609,note_off,0,0,0,,10,,,57,127
46610,note_on,1,0,0,,1,,,61,127
46610,note_on,0,0,0,,7,,,79,127
46737,note_off,127,0,0,,7,,,79,127
46738,note_on,1,0,0,,10,,,69,127
46865,note_off,127,0,0,,10,,,69,127
46865,note_off,0,0,0,,1,,,61,127
46866,note_on,1,0,0,,2,,,62,127
46866,note_on,0,0,0,,6,,,78,127
46993,note_off,127,0,0,,6,,,78,127
46994,note_on,1,0,0,,10,,,69,127
47121,note_off,127,0,0,,10,,,69,127
47121,note_off,0,0,0,,2,,,62,127
47122,note_on,1,0,0,,6,,,54,127
47122,note_on,0,0,0,,10,,,81,127
47249,note_off,127,0,0,,10,,,81,127
47250,note_on,1,0,0,,2,,,74,127
47377,note_off,127,0,0,,2,,,74,127
47377,note_off,0,0,0,,6,,,54,127
47378,note_on,1,0,0,,2,,,50,127
47378,note_on,0,0,0,,2,,,86,127
47505,note_off,127,0,0,,2,,,86,127
47506,note_on,1,0,0,,2,,,74,127
47633,note_off,127,0,0,,2,,,74,127
47633,note_off,0,0,0,,2,,,50,127
47634,note_on,1,0,0,,7,,,55,127
47634,note_on,0,0,0,,12,,,83,127
47889,note_off,255,0,0,,12,,,83,127
47889,note_off,0,0,0,,7,,,55,127
47890,note_on,1,0,0,,10,,,57,127
47890,note_on,0,0,0,,6,,,78,127
47953,note_off,63,0,0,,6,,,78,127
47954,note_on,1,0,0,,4,,,76,127
48017,note_off,63,0,0,,4,,,76,127
48018,note_on,1,0,0,,6,,,78,127
48081,note_off,63,0,0,,6,,,78,127
48082,note_on,1,0,0,,4,,,76,127
48145,note_off,63,0,0,,4,,,76,127
48145,note_off,0,0,0,,10,,,57,127
48146,note_on,1,0,0,,10,,,45,127
48146,note_on,0,0,0,,6,,,78,127
48209,note_off,63,0,0,,6,,,78,127
48210,note_on,1,0,0,,4,,,76,127
48273,note_off,63,0,0,,4,,,76,127
48274,note_on,1,0,0,,2,,,74,127
48337,note_off,63,0,0,,2,,,74,127
48338,note_on,1,0,0,,4,,,76,127
48401,note_off,63,0,0,,4,,,76,127
48401,note_off,0,0,0,,10,,,45,127
48402,note_on,1,0,0,,2,,,38,127
48402,note_on,0,0,0,,2,,,74,127
49042,note_off,640,0,0,,2,,,38,127
49169,note_off,127,0,0,,2,,,74,127
49170,note_on,1,0,0,,7,,,79,127
49297,note_off,127,0,0,,7,,,79,127
49298,note_on,1,0,0,,4,,,76,127
49425,note_off,127,0,0,,4,,,76,127
49426,note_on,1,0,0,,4,,,64,127
49426,note_on,0,0,0,,7,,,67,127
49554,note_on,128,0,0,,6,,,78,127
49681,note_off,127,0,0,,4,,,64,127
49682,note_on,1,0,0,,2,,,62,127
49809,note_off,127,0,0,,6,,,78,127
49810,note_on,1,0,0,,10,,,81,127
49937,note_off,127,0,0,,10,,,81,127
49937,note_off,0,0,0,,2,,,62,127
49938,note_off,1,0,0,,7,,,67,127
49939,note_on,1,0,0,,1,,,61,127
49939,note_on,0,0,0,,7,,,79,127
50066,note_off,127,0,0,,7,,,79,127
50067,note_on,1,0,0,,4,,,76,127
50194,note_off,127,0,0,,4,,,76,127
50194,note_off,0,0,0,,1,,,61,127
50195,note_on,1,0,0,,4,,,64,127
50195,note_on,0,0,0,,10,,,69,127
50323,note_on,128,0,0,,6,,,78,127
50450,note_off,127,0,0,,4,,,64,127
50451,note_on,1,0,0,,2,,,62,127
50578,note_off,127,0,0,,6,,,78,127
50579,note_on,1,0,0,,10,,,81,127
50706,note_off,127,0,0,,10,,,81,127
50706,note_off,0,0,0,,2,,,62,127
50707,note_off,1,0,0,,10,,,69,127
50708,note_on,1,0,0,,1,,,61,127
50708,note_on,0,0,0,,7,,,79,127
50835,note_off,127,0,0,,7,,,79,127
50836,note_on,1,0,0,,4,,,76,127
50963,note_off,127,0,0,,4,,,76,127
50963,note_off,0,0,0,,1,,,61,127
50964,note_on,1,0,0,,4,,,64,127
50964,note_on,0,0,0,,7,,,67,127
51092,note_on,128,0,0,,6,,,78,127
51219,note_off,127,0,0,,4,,,64,127
51220,note_on,1,0,0,,2,,,62,127
51347,note_off,127,0,0,,6,,,78,127
51348,note_on,1,0,0,,10,,,81,127
51475,note_off,127,0,0,,10,,,81,127
51475,note_off,0,0,0,,2,,,62,127
51476,note_off,1,0,0,,7,,,67,127
51477,note_on,1,0,0,,1,,,61,127
51477,note_on,0,0,0,,7,,,79,127
51604,note_off,127,0,0,,7,,,79,127
51605,note_on,1,0,0,,4,,,76,127
51732,note_off,127,0,0,,4,,,76,127
51732,note_off,0,0,0,,1,,,61,127
51733,note_on,1,0,0,,4,,,64,127
51733,note_on,0,0,0,,10,,,69,127
51861,note_on,128,0,0,,6,,,78,127
51988,note_off,127,0,0,,4,,,64,127
51989,note_on,1,0,0,,2,,,62,127
52116,note_off,127,0,0,,6,,,78,127
52117,note_off,1,0,0,,10,,,69,127
52118,note_on,1,0,0,,10,,,81,127
52245,note_off,127,0,0,,10,,,81,127
52245,note_off,0,0,0,,2,,,62,127
52246,note_on,1,0,0,,1,,,61,127
52246,note_on,0,0,0,,7,,,79,127
52373,note_off,127,0,0,,7,,,79,127
52374,note_on,1,0,0,,4,,,76,127
52501,note_off,127,0,0,,4,,,76,127
52501,note_off,0,0,0,,1,,,61,127
52502,note_on,1,0,0,,4,,,64,127
52502,note_on,0,0,0,,7,,,67,127
52630,note_on,128,0,0,,6,,,78,127
52757,note_off,127,0,0,,4,,,64,127
52758,note_on,1,0,0,,2,,,62,127
52885,note_off,127,0,0,,6,,,78,127
52886,note_off,1,0,0,,7,,,67,127
52887,note_on,1,0,0,,10,,,81,127
53014,note_off,127,0,0,,10,,,81,127
53014,note_off,0,0,0,,2,,,62,127
53015,note_on,1,0,0,,1,,,61,127
53015,note_on,0,0,0,,7,,,79,127
53142,note_off,127,0,0,,7,,,79,127
53143,note_on,1,0,0,,4,,,76,127
53270,note_off,127,0,0,,4,,,76,127
53270,note_off,0,0,0,,1,,,61,127
53271,note_on,1,0,0,,10,,,57,127
53271,note_on,0,0,0,,1,,,73,127
53398,note_off,127,0,0,,1,,,73,127
53399,note_on,1,0,0,,10,,,69,127
53526,note_off,127,0,0,,10,,,69,127
53526,note_off,0,0,0,,10,,,57,127
53527,note_on,1,0,0,,1,,,61,127
53527,note_on,0,0,0,,7,,,79,127
53654,note_off,127,0,0,,7,,,79,127
53655,note_on,1,0,0,,10,,,69,127
53782,note_off,127,0,0,,10,,,69,127
53782,note_off,0,0,0,,1,,,61,127
53783,note_on,1,0,0,,2,,,62,127
53783,note_on,0,0,0,,6,,,78,127
53910,note_off,127,0,0,,6,,,78,127
53911,note_on,1,0,0,,10,,,69,127
54038,note_off,127,0,0,,10,,,69,127
54038,note_off,0,0,0,,2,,,62,127
54039,note_on,1,0,0,,6,,,54,127
54039,note_on,0,0,0,,10,,,81,127
54166,note_off,127,0,0,,10,,,81,127
54167,note_on,1,0,0,,2,,,74,127
54294,note_off,127,0,0,,2,,,74,127
54294,note_off,0,0,0,,6,,,54,127
54295,note_on,1,0,0,,2,,,50,127
54295,note_on,0,0,0,,2,,,86,127
54422,note_off,127,0,0,,2,,,86,127
54423,note_on,1,0,0,,2,,,74,127
54550,note_off,127,0,0,,2,,,74,127
54550,note_off,0,0,0,,2,,,50,127
54551,note_on,1,0,0,,7,,,55,127
54551,note_on,0,0,0,,12,,,83,127
54806,note_off,255,0,0,,12,,,83,127
54806,note_off,0,0,0,,7,,,55,127
54807,note_on,1,0,0,,10,,,57,127
54807,note_on,0,0,0,,6,,,78,127
54870,note_off,63,0,0,,6,,,78,127
54871,note_on,1,0,0,,4,,,76,127
54934,note_off,63,0,0,,4,,,76,127
54935,note_on,1,0,0,,6,,,78,127
54998,note_off,63,0,0,,6,,,78,127
54999,note_on,1,0,0,,4,,,76,127
55062,note_off,63,0,0,,4,,,76,127
55062,note_off,0,0,0,,10,,,57,127
55063,note_on,1,0,0,,10,,,45,127
55063,note_on,0,0,0,,6,,,78,127
55126,note_off,63,0,0,,6,,,78,127
55127,note_on,1,0,0,,4,,,76,127
55190,note_off,63,0,0,,4,,,76,127
55191,note_on,1,0,0,,2,,,74,127
55254,note_off,63,0,0,,2,,,74,127
55255,note_on,1,0,0,,4,,,76,127
55318,note_off,63,0,0,,4,,,76,127
55318,note_off,0,0,0,,10,,,45,127
55335,note_on,17,0,0,,2,,,62,127
55335,note_on,0,0,0,,2,,,74,127
55462,note_off,127,0,0,,2,,,74,127
55463,note_on,1,0,0,,1,,,85,127
55590,note_off,127,0,0,,1,,,85,127
55590,note_off,0,0,0,,2,,,62,127
55591,note_on,1,0,0,,4,,,64,127
55591,note_on,0,0,0,,2,,,86,127
55718,note_off,127,0,0,,2,,,86,127
55719,note_on,1,0,0,,8,,,80,127
55846,note_off,127,0,0,,4,,,64,127
55847,note_on,1,0,0,,6,,,66,127
55946,note_off,99,0,0,,8,,,80,127
55975,note_on,29,0,0,,10,,,81,127
56102,note_off,127,0,0,,10,,,81,127
56102,note_off,0,0,0,,6,,,66,127
56103,note_on,1,0,0,,7,,,67,127
56103,note_on,0,0,0,,12,,,71,127
56230,note_off,127,0,0,,12,,,71,127
56231,note_on,1,0,0,,7,,,79,127
56358,note_off,127,0,0,,7,,,79,127
56358,note_off,0,0,0,,7,,,67,127
56359,note_on,1,0,0,,10,,,69,127
56359,note_on,0,0,0,,6,,,78,127
56422,note_off,63,0,0,,6,,,78,127
56423,note_on,1,0,0,,4,,,76,127
56486,note_off,63,0,0,,4,,,76,127
56487,note_on,1,0,0,,6,,,78,127
56550,note_off,63,0,0,,6,,,78,127
56551,note_on,1,0,0,,4,,,76,127
56614,note_off,63,0,0,,4,,,76,127
56614,note_off,0,0,0,,10,,,69,127
56615,note_on,1,0,0,,10,,,57,127
56615,note_on,0,0,0,,6,,,78,127
56678,note_off,63,0,0,,6,,,78,127
56679,note_on,1,0,0,,4,,,76,127
56742,note_off,63,0,0,,4,,,76,127
56743,note_on,1,0,0,,2,,,74,127
56806,note_off,63,0,0,,2,,,74,127
56807,note_on,1,0,0,,4,,,76,127
56870,note_off,63,0,0,,4,,,76,127
56870,note_off,0,0,0,,10,,,57,127
56882,note_on,12,0,0,,2,,,50,127
56882,note_on,0,0,0,,2,,,74,127
57009,note_off,127,0,0,,2,,,74,127
57011,note_on,2,0,0,,1,,,85,127
57138,note_off,127,0,0,,1,,,85,127
57138,note_off,0,0,0,,2,,,50,127
57140,note_on,2,0,0,,4,,,52,127
57140,note_on,0,0,0,,2,,,86,127
57267,note_off,127,0,0,,2,,,86,127
57269,note_on,2,0,0,,1,,,73,127
57396,note_off,127,0,0,,4,,,52,127
57398,note_on,2,0,0,,6,,,54,127
57517,note_off,119,0,0,,1,,,73,127
57526,note_on,9,0,0,,2,,,74,127
57653,note_off,127,0,0,,2,,,74,127
57654,note_off,1,0,0,,6,,,54,127
57655,note_on,1,0,0,,12,,,71,127
57655,note_on,0,0,0,,7,,,55,127
57741,note_off,86,0,0,,12,,,71,127
57744,note_on,3,0,0,,10,,,69,127
57830,note_off,86,0,0,,10,,,69,127
57833,note_on,3,0,0,,7,,,67,127
57916,note_off,83,0,0,,7,,,55,127
57919,note_off,3,0,0,,7,,,67,127
57922,note_on,3,0,0,,6,,,66,127
57922,note_on,0,0,0,,10,,,57,127
58183,note_off,261,0,0,,10,,,57,127
58183,note_off,0,0,0,,6,,,66,127
58188,note_on,5,0,0,,6,,,66,127
58188,note_on,0,0,0,,10,,,45,127
58251,note_off,63,0,0,,6,,,66,127
58254,note_on,3,0,0,,4,,,64,127
58317,note_off,63,0,0,,4,,,64,127
58320,note_on,3,0,0,,2,,,62,127
58383,note_off,63,0,0,,2,,,62,127
58386,note_on,3,0,0,,4,,,64,127
58448,note_off,62,0,0,,10,,,45,127
58459,note_off,11,0,0,,4,,,64,127
58472,note_on,13,0,0,,2,,,38,127
58472,note_on,0,0,0,,2,,,62,127
60377,note_off,1905,0,0,,2,,,62,127
60377,note_off,0,0,0,,2,,,38,127
64512,end_of_track,4135,1,0,,,,,,
