tick,type,time,meta,track,program,channel,pitch,tempo,note,velocity
0,copyright,0,1,0,,,,,,
0,program_change,0,0,0,6,0,,,,
0,pitchwheel,0,0,0,,0,0,,,
0,program_change,0,0,0,6,1,,,,
0,pitchwheel,0,0,0,,1,-590,,,
0,program_change,0,0,0,6,2,,,,
0,pitchwheel,0,0,0,,2,-272,,,
0,program_change,0,0,0,6,3,,,,
0,pitchwheel,0,0,0,,3,-353,,,
0,program_change,0,0,0,6,4,,,,
0,pitchwheel,0,0,0,,4,-560,,,
0,program_change,0,0,0,6,5,,,,
0,pitchwheel,0,0,0,,5,-80,,,
0,program_change,0,0,0,6,6,,,,
0,pitchwheel,0,0,0,,6,-625,,,
0,program_change,0,0,0,6,7,,,,
0,pitchwheel,0,0,0,,7,-130,,,
0,program_change,0,0,0,6,8,,,,
0,pitchwheel,0,0,0,,8,-512,,,
0,program_change,0,0,0,6,10,,,,
0,pitchwheel,0,0,0,,10,-464,,,
0,program_change,0,0,0,6,11,,,,
0,pitchwheel,0,0,0,,11,-208,,,
0,program_change,0,0,0,6,12,,,,
0,pitchwheel,0,0,0,,12,-553,,,
0,set_tempo,0,1,0,,,,500000,,
36,note_on,36,0,0,,0,,,84,127
88,note_off,52,0,0,,0,,,84,127
90,note_on,2,0,0,,12,,,83,127
142,note_off,52,0,0,,12,,,83,127
144,note_on,2,0,0,,0,,,84,127
196,note_off,52,0,0,,0,,,84,127
198,note_on,2,0,0,,12,,,83,127
359,note_off,161,0,0,,12,,,83,127
361,note_on,2,0,0,,2,,,74,127
467,note_off,106,0,0,,2,,,74,127
469,note_on,2,0,0,,0,,,84,127
521,note_off,52,0,0,,0,,,84,127
523,note_on,2,0,0,,12,,,83,127
575,note_off,52,0,0,,12,,,83,127
577,note_on,2,0,0,,0,,,84,127
629,note_off,52,0,0,,0,,,84,127
631,note_on,2,0,0,,12,,,83,127
792,note_off,161,0,0,,12,,,83,127
794,note_on,2,0,0,,2,,,74,127
900,note_off,106,0,0,,2,,,74,127
902,note_on,2,0,0,,12,,,83,127
1008,note_off,106,0,0,,12,,,83,127
1010,note_on,2,0,0,,2,,,74,127
1116,note_off,106,0,0,,2,,,74,127
1118,note_on,2,0,0,,0,,,84,127
1224,note_off,106,0,0,,0,,,84,127
1226,note_on,2,0,0,,4,,,76,127
1332,note_off,106,0,0,,4,,,76,127
1334,note_on,2,0,0,,12,,,83,127
1440,note_off,106,0,0,,12,,,83,127
1442,note_on,2,0,0,,2,,,74,127
1548,note_off,106,0,0,,2,,,74,127
1550,note_on,2,0,0,,10,,,81,127
1656,note_off,106,0,0,,10,,,81,127
1658,note_on,2,0,0,,0,,,72,127
1764,note_off,106,0,0,,0,,,72,127
1766,note_on,2,0,0,,12,,,83,127
1872,note_off,106,0,0,,12,,,83,127
1874,note_on,2,0,0,,2,,,74,127
1980,note_off,106,0,0,,2,,,74,127
1982,note_on,2,0,0,,10,,,81,127
2088,note_off,106,0,0,,10,,,81,127
2090,note_on,2,0,0,,0,,,72,127
2196,note_off,106,0,0,,0,,,72,127
2198,note_on,2,0,0,,7,,,79,127
2304,note_off,106,0,0,,7,,,79,127
2306,note_on,2,0,0,,12,,,71,127
2412,note_off,106,0,0,,12,,,71,127
2414,note_on,2,0,0,,6,,,78,127
2520,note_off,106,0,0,,6,,,78,127
2522,note_on,2,0,0,,10,,,69,127
2628,note_off,106,0,0,,10,,,69,127
2630,note_on,2,0,0,,0,,,72,127
2630,note_on,0,0,0,,7,,,79,127
2682,note_off,52,0,0,,0,,,72,127
2684,note_on,2,0,0,,12,,,71,127
2736,note_off,52,0,0,,12,,,71,127
2738,note_on,2,0,0,,0,,,72,127
2790,note_off,52,0,0,,0,,,72,127
2792,note_on,2,0,0,,12,,,71,127
2953,note_off,161,0,0,,12,,,71,127
2955,note_on,2,0,0,,2,,,62,127
3059,note_off,104,0,0,,7,,,79,127
3061,note_off,2,0,0,,2,,,62,127
3063,note_on,2,0,0,,0,,,72,127
3115,note_off,52,0,0,,0,,,72,127
3117,note_on,2,0,0,,12,,,71,127
3169,note_off,52,0,0,,12,,,71,127
3171,note_on,2,0,0,,0,,,72,127
3223,note_off,52,0,0,,0,,,72,127
3225,note_on,2,0,0,,12,,,71,127
3386,note_off,161,0,0,,12,,,71,127
3388,note_on,2,0,0,,2,,,62,127
3494,note_off,106,0,0,,2,,,62,127
3496,note_on,2,0,0,,12,,,71,127
3602,note_off,106,0,0,,12,,,71,127
3604,note_on,2,0,0,,2,,,62,127
3710,note_off,106,0,0,,2,,,62,127
3712,note_on,2,0,0,,0,,,72,127
3712,note_on,0,0,0,,10,,,81,127
3818,note_off,106,0,0,,0,,,72,127
3820,note_on,2,0,0,,4,,,64,127
3926,note_off,106,0,0,,4,,,64,127
3926,note_off,0,0,0,,10,,,81,127
3928,note_on,2,0,0,,12,,,71,127
3928,note_on,0,0,0,,7,,,79,127
4034,note_off,106,0,0,,12,,,71,127
4036,note_on,2,0,0,,2,,,62,127
4142,note_off,106,0,0,,2,,,62,127
4142,note_off,0,0,0,,7,,,79,127
4144,note_on,2,0,0,,10,,,69,127
4144,note_on,0,0,0,,6,,,78,127
4250,note_off,106,0,0,,10,,,69,127
4252,note_on,2,0,0,,0,,,60,127
4358,note_off,106,0,0,,0,,,60,127
4358,note_off,0,0,0,,6,,,78,127
4360,note_on,2,0,0,,12,,,71,127
4360,note_on,0,0,0,,7,,,79,127
4466,note_off,106,0,0,,12,,,71,127
4468,note_on,2,0,0,,2,,,62,127
4574,note_off,106,0,0,,2,,,62,127
4574,note_off,0,0,0,,7,,,79,127
4576,note_on,2,0,0,,10,,,69,127
4576,note_on,0,0,0,,10,,,81,127
4682,note_off,106,0,0,,10,,,69,127
4684,note_on,2,0,0,,0,,,60,127
4790,note_off,106,0,0,,0,,,60,127
4790,note_off,0,0,0,,10,,,81,127
4792,note_on,2,0,0,,7,,,67,127
4792,note_on,0,0,0,,12,,,83,127
4898,note_off,106,0,0,,7,,,67,127
4900,note_on,2,0,0,,12,,,59,127
5006,note_off,106,0,0,,12,,,59,127
5006,note_off,0,0,0,,12,,,83,127
5008,note_on,2,0,0,,6,,,66,127
5008,note_on,0,0,0,,0,,,84,127
5114,note_off,106,0,0,,6,,,66,127
5116,note_on,2,0,0,,10,,,57,127
5222,note_off,106,0,0,,10,,,57,127
5222,note_off,0,0,0,,0,,,84,127
5224,note_on,2,0,0,,7,,,55,127
5224,note_on,0,0,0,,12,,,83,127
5330,note_off,106,0,0,,12,,,83,127
5332,note_on,2,0,0,,10,,,81,127
5438,note_off,106,0,0,,10,,,81,127
5440,note_on,2,0,0,,7,,,79,127
5546,note_off,106,0,0,,7,,,79,127
5548,note_on,2,0,0,,6,,,78,127
5652,note_off,104,0,0,,7,,,55,127
5654,note_off,2,0,0,,6,,,78,127
5656,note_on,2,0,0,,4,,,76,127
5762,note_off,106,0,0,,4,,,76,127
5764,note_on,2,0,0,,2,,,74,127
5870,note_off,106,0,0,,2,,,74,127
5872,note_on,2,0,0,,0,,,72,127
5978,note_off,106,0,0,,0,,,72,127
5980,note_on,2,0,0,,12,,,71,127
6086,note_off,106,0,0,,12,,,71,127
6088,note_on,2,0,0,,0,,,48,127
6088,note_on,0,0,0,,10,,,69,127
6194,note_off,106,0,0,,10,,,69,127
6196,note_on,2,0,0,,7,,,67,127
6302,note_off,106,0,0,,7,,,67,127
6304,note_on,2,0,0,,6,,,66,127
6410,note_off,106,0,0,,6,,,66,127
6412,note_on,2,0,0,,4,,,64,127
6518,note_off,106,0,0,,4,,,64,127
6518,note_off,0,0,0,,0,,,48,127
6520,note_on,2,0,0,,2,,,50,127
6520,note_on,0,0,0,,2,,,62,127
6626,note_off,106,0,0,,2,,,62,127
6628,note_on,2,0,0,,0,,,60,127
6734,note_off,106,0,0,,0,,,60,127
6736,note_on,2,0,0,,12,,,59,127
6842,note_off,106,0,0,,12,,,59,127
6844,note_on,2,0,0,,10,,,57,127
6950,note_off,106,0,0,,10,,,57,127
6950,note_off,0,0,0,,2,,,50,127
6952,note_on,2,0,0,,7,,,43,127
7058,note_off,106,0,0,,7,,,43,127
7060,note_on,2,0,0,,12,,,47,127
7166,note_off,106,0,0,,12,,,47,127
7168,note_on,2,0,0,,2,,,50,127
7274,note_off,106,0,0,,2,,,50,127
7276,note_on,2,0,0,,7,,,55,127
7382,note_off,106,0,0,,7,,,55,127
7384,note_on,2,0,0,,7,,,43,127
7638,note_on,254,0,0,,12,,,83,127
7744,note_off,106,0,0,,12,,,83,127
7746,note_on,2,0,0,,2,,,74,127
7816,note_off,70,0,0,,7,,,43,127
7852,note_off,36,0,0,,2,,,74,127
7854,note_on,2,0,0,,7,,,55,127
7854,note_on,0,0,0,,2,,,74,127
7854,note_on,0,0,0,,12,,,83,127
8069,note_off,215,0,0,,12,,,83,127
8069,note_off,0,0,0,,2,,,74,127
8071,note_on,2,0,0,,0,,,84,127
8071,note_on,0,0,0,,4,,,76,127
8286,note_off,215,0,0,,7,,,55,127
8288,note_on,2,0,0,,7,,,43,127
8397,note_off,109,0,0,,4,,,76,127
8397,note_off,0,0,0,,0,,,84,127
8506,note_on,109,0,0,,10,,,81,127
8612,note_off,106,0,0,,10,,,81,127
8614,note_on,2,0,0,,0,,,72,127
8720,note_off,106,0,0,,0,,,72,127
8720,note_off,0,0,0,,7,,,43,127
8722,note_on,2,0,0,,7,,,55,127
8722,note_on,0,0,0,,0,,,72,127
8722,note_on,0,0,0,,10,,,81,127
8937,note_off,215,0,0,,10,,,81,127
8937,note_off,0,0,0,,0,,,72,127
8939,note_on,2,0,0,,12,,,83,127
8939,note_on,0,0,0,,2,,,74,127
9154,note_off,215,0,0,,7,,,55,127
9156,note_on,2,0,0,,7,,,43,127
9265,note_off,109,0,0,,2,,,74,127
9265,note_off,0,0,0,,12,,,83,127
9374,note_on,109,0,0,,7,,,79,127
9480,note_off,106,0,0,,7,,,79,127
9482,note_on,2,0,0,,12,,,71,127
9588,note_off,106,0,0,,12,,,71,127
9588,note_off,0,0,0,,7,,,43,127
9590,note_on,2,0,0,,7,,,55,127
9590,note_on,0,0,0,,12,,,71,127
9590,note_on,0,0,0,,7,,,79,127
9805,note_off,215,0,0,,7,,,79,127
9805,note_off,0,0,0,,12,,,71,127
9807,note_on,2,0,0,,10,,,81,127
9807,note_on,0,0,0,,0,,,72,127
10022,note_off,215,0,0,,7,,,55,127
10024,note_on,2,0,0,,7,,,43,127
10133,note_off,109,0,0,,0,,,72,127
10133,note_off,0,0,0,,10,,,81,127
10242,note_on,109,0,0,,6,,,78,127
10348,note_off,106,0,0,,6,,,78,127
10350,note_on,2,0,0,,10,,,69,127
10456,note_off,106,0,0,,10,,,69,127
10456,note_off,0,0,0,,7,,,43,127
10458,note_on,2,0,0,,7,,,55,127
10458,note_on,0,0,0,,10,,,69,127
10458,note_on,0,0,0,,6,,,78,127
10673,note_off,215,0,0,,6,,,78,127
10673,note_off,0,0,0,,10,,,69,127
10675,note_on,2,0,0,,7,,,79,127
10675,note_on,0,0,0,,12,,,71,127
10890,note_off,215,0,0,,7,,,55,127
10892,note_on,2,0,0,,7,,,43,127
11001,note_off,109,0,0,,12,,,71,127
11001,note_off,0,0,0,,7,,,79,127
11110,note_on,109,0,0,,12,,,83,127
11216,note_off,106,0,0,,12,,,83,127
11218,note_on,2,0,0,,2,,,74,127
11324,note_off,106,0,0,,2,,,74,127
11324,note_off,0,0,0,,7,,,43,127
11326,note_on,2,0,0,,7,,,55,127
11326,note_on,0,0,0,,12,,,83,127
11326,note_on,0,0,0,,2,,,86,127
11541,note_off,215,0,0,,2,,,86,127
11541,note_off,0,0,0,,12,,,83,127
11543,note_on,2,0,0,,0,,,84,127
11543,note_on,0,0,0,,4,,,88,127
11758,note_off,215,0,0,,7,,,55,127
11760,note_on,2,0,0,,7,,,43,127
11869,note_off,109,0,0,,4,,,88,127
11869,note_off,0,0,0,,0,,,84,127
11978,note_on,109,0,0,,10,,,81,127
12084,note_off,106,0,0,,10,,,81,127
12086,note_on,2,0,0,,0,,,72,127
12192,note_off,106,0,0,,0,,,72,127
12192,note_off,0,0,0,,7,,,43,127
12194,note_on,2,0,0,,7,,,55,127
12194,note_on,0,0,0,,0,,,84,127
12194,note_on,0,0,0,,10,,,81,127
12409,note_off,215,0,0,,10,,,81,127
12409,note_off,0,0,0,,0,,,84,127
12411,note_on,2,0,0,,7,,,79,127
12411,note_on,0,0,0,,12,,,83,127
12626,note_off,215,0,0,,7,,,55,127
12628,note_on,2,0,0,,7,,,43,127
12737,note_off,109,0,0,,12,,,83,127
12737,note_off,0,0,0,,7,,,79,127
12846,note_on,109,0,0,,7,,,79,127
12952,note_off,106,0,0,,7,,,79,127
12954,note_on,2,0,0,,12,,,71,127
13060,note_off,106,0,0,,12,,,71,127
13060,note_off,0,0,0,,7,,,43,127
13062,note_on,2,0,0,,7,,,55,127
13062,note_on,0,0,0,,12,,,83,127
13062,note_on,0,0,0,,2,,,74,127
13277,note_off,215,0,0,,2,,,74,127
13277,note_off,0,0,0,,12,,,83,127
13279,note_on,2,0,0,,10,,,81,127
13279,note_on,0,0,0,,0,,,72,127
13494,note_off,215,0,0,,7,,,55,127
13496,note_on,2,0,0,,7,,,43,127
13605,note_off,109,0,0,,0,,,72,127
13605,note_off,0,0,0,,10,,,81,127
13714,note_on,109,0,0,,6,,,78,127
13820,note_off,106,0,0,,6,,,78,127
13822,note_on,2,0,0,,10,,,69,127
13928,note_off,106,0,0,,10,,,69,127
13928,note_off,0,0,0,,7,,,43,127
13930,note_on,2,0,0,,7,,,55,127
13930,note_on,0,0,0,,10,,,81,127
13930,note_on,0,0,0,,0,,,72,127
14145,note_off,215,0,0,,0,,,72,127
14145,note_off,0,0,0,,10,,,81,127
14145,note_off,0,0,0,,7,,,55,127
14147,note_on,2,0,0,,7,,,67,127
14147,note_on,0,0,0,,7,,,79,127
14147,note_on,0,0,0,,12,,,71,127
14362,note_off,215,0,0,,12,,,71,127
14362,note_off,0,0,0,,7,,,79,127
14362,note_off,0,0,0,,7,,,67,127
14364,note_on,2,0,0,,10,,,69,127
14364,note_on,0,0,0,,1,,,73,127
14579,note_off,215,0,0,,1,,,73,127
14579,note_off,0,0,0,,10,,,69,127
14581,note_on,2,0,0,,12,,,71,127
14581,note_on,0,0,0,,2,,,74,127
14796,note_off,215,0,0,,2,,,74,127
14796,note_off,0,0,0,,12,,,71,127
14798,note_on,2,0,0,,6,,,78,127
15013,note_off,215,0,0,,6,,,78,127
15015,note_on,2,0,0,,7,,,67,127
15015,note_on,0,0,0,,12,,,71,127
15015,note_on,0,0,0,,7,,,79,127
15230,note_off,215,0,0,,12,,,71,127
15230,note_off,0,0,0,,7,,,67,127
15232,note_on,2,0,0,,10,,,69,127
15232,note_on,0,0,0,,1,,,73,127
15447,note_off,215,0,0,,1,,,73,127
15447,note_off,0,0,0,,10,,,69,127
15449,note_on,2,0,0,,12,,,71,127
15449,note_on,0,0,0,,2,,,74,127
15664,note_off,215,0,0,,2,,,74,127
15664,note_off,0,0,0,,12,,,71,127
15665,note_off,1,0,0,,7,,,79,127
15666,note_on,1,0,0,,8,,,80,127
15881,note_off,215,0,0,,8,,,80,127
15883,note_on,2,0,0,,10,,,69,127
15883,note_on,0,0,0,,1,,,73,127
15883,note_on,0,0,0,,10,,,81,127
16098,note_off,215,0,0,,1,,,73,127
16098,note_off,0,0,0,,10,,,69,127
16100,note_on,2,0,0,,12,,,71,127
16100,note_on,0,0,0,,2,,,74,127
16315,note_off,215,0,0,,2,,,74,127
16315,note_off,0,0,0,,12,,,71,127
16317,note_on,2,0,0,,1,,,73,127
16317,note_on,0,0,0,,4,,,76,127
16532,note_off,215,0,0,,4,,,76,127
16532,note_off,0,0,0,,1,,,73,127
16533,note_off,1,0,0,,10,,,81,127
16534,note_on,1,0,0,,8,,,80,127
16749,note_off,215,0,0,,8,,,80,127
16751,note_on,2,0,0,,10,,,69,127
16751,note_on,0,0,0,,10,,,81,127
16751,note_on,0,0,0,,1,,,73,127
16966,note_off,215,0,0,,1,,,73,127
16966,note_off,0,0,0,,10,,,69,127
16968,note_on,2,0,0,,12,,,71,127
16968,note_on,0,0,0,,2,,,74,127
17183,note_off,215,0,0,,2,,,74,127
17183,note_off,0,0,0,,12,,,71,127
17185,note_on,2,0,0,,1,,,73,127
17185,note_on,0,0,0,,4,,,76,127
17400,note_off,215,0,0,,4,,,76,127
17400,note_off,0,0,0,,1,,,73,127
17401,note_off,1,0,0,,10,,,81,127
17402,note_on,1,0,0,,2,,,74,127
17402,note_on,0,0,0,,7,,,79,127
17454,note_off,52,0,0,,7,,,79,127
17456,note_on,2,0,0,,6,,,78,127
17508,note_off,52,0,0,,6,,,78,127
17510,note_on,2,0,0,,7,,,79,127
17562,note_off,52,0,0,,7,,,79,127
17564,note_on,2,0,0,,6,,,78,127
17616,note_off,52,0,0,,6,,,78,127
17618,note_on,2,0,0,,4,,,76,127
17724,note_off,106,0,0,,4,,,76,127
17726,note_on,2,0,0,,6,,,78,127
17832,note_off,106,0,0,,6,,,78,127
17832,note_off,0,0,0,,2,,,74,127
17834,note_on,2,0,0,,7,,,67,127
17834,note_on,0,0,0,,7,,,79,127
17940,note_off,106,0,0,,7,,,79,127
17942,note_on,2,0,0,,6,,,78,127
18048,note_off,106,0,0,,6,,,78,127
18050,note_on,2,0,0,,4,,,76,127
18156,note_off,106,0,0,,4,,,76,127
18158,note_on,2,0,0,,2,,,74,127
18264,note_off,106,0,0,,2,,,74,127
18264,note_off,0,0,0,,7,,,67,127
18266,note_on,2,0,0,,10,,,69,127
18266,note_on,0,0,0,,1,,,73,127
18481,note_off,215,0,0,,1,,,73,127
18481,note_off,0,0,0,,10,,,69,127
18483,note_on,2,0,0,,10,,,57,127
18483,note_on,0,0,0,,10,,,69,127
18483,note_on,0,0,0,,10,,,81,127
18698,note_off,215,0,0,,10,,,69,127
18698,note_off,0,0,0,,10,,,57,127
18700,note_on,2,0,0,,6,,,54,127
18700,note_on,0,0,0,,6,,,66,127
18809,note_off,109,0,0,,10,,,81,127
18915,note_off,106,0,0,,6,,,66,127
18915,note_off,0,0,0,,6,,,54,127
18917,note_on,2,0,0,,2,,,50,127
18917,note_on,0,0,0,,2,,,62,127
18917,note_on,0,0,0,,10,,,81,127
19023,note_off,106,0,0,,10,,,81,127
19025,note_on,2,0,0,,2,,,74,127
19131,note_off,106,0,0,,2,,,74,127
19131,note_off,0,0,0,,2,,,62,127
19131,note_off,0,0,0,,2,,,50,127
19133,note_on,2,0,0,,1,,,49,127
19133,note_on,0,0,0,,1,,,61,127
19133,note_on,0,0,0,,4,,,76,127
19348,note_off,215,0,0,,4,,,76,127
19348,note_off,0,0,0,,1,,,61,127
19348,note_off,0,0,0,,1,,,49,127
19350,note_on,2,0,0,,10,,,57,127
19350,note_on,0,0,0,,10,,,45,127
19350,note_on,0,0,0,,10,,,81,127
19565,note_off,215,0,0,,10,,,45,127
19565,note_off,0,0,0,,10,,,57,127
19567,note_on,2,0,0,,6,,,42,127
19567,note_on,0,0,0,,6,,,54,127
19676,note_off,109,0,0,,10,,,81,127
19782,note_off,106,0,0,,6,,,54,127
19782,note_off,0,0,0,,6,,,42,127
19784,note_on,2,0,0,,2,,,38,127
19784,note_on,0,0,0,,2,,,50,127
19784,note_on,0,0,0,,10,,,81,127
19890,note_off,106,0,0,,10,,,81,127
19892,note_on,2,0,0,,2,,,74,127
19998,note_off,106,0,0,,2,,,74,127
19998,note_off,0,0,0,,2,,,50,127
19998,note_off,0,0,0,,2,,,38,127
20000,note_on,2,0,0,,10,,,45,127
20000,note_on,0,0,0,,10,,,33,127
20000,note_on,0,0,0,,4,,,76,127
20215,note_off,215,0,0,,4,,,76,127
20215,note_off,0,0,0,,10,,,33,127
20215,note_off,0,0,0,,10,,,45,127
20217,note_on,2,0,0,,10,,,57,127
20217,note_on,0,0,0,,10,,,69,127
20217,note_on,0,0,0,,10,,,81,127
20432,note_off,215,0,0,,10,,,69,127
20432,note_off,0,0,0,,10,,,57,127
20434,note_on,2,0,0,,6,,,66,127
20434,note_on,0,0,0,,6,,,54,127
20543,note_off,109,0,0,,10,,,81,127
20649,note_off,106,0,0,,6,,,54,127
20649,note_off,0,0,0,,6,,,66,127
20651,note_on,2,0,0,,2,,,50,127
20651,note_on,0,0,0,,2,,,62,127
20651,note_on,0,0,0,,10,,,81,127
20757,note_off,106,0,0,,10,,,81,127
20759,note_on,2,0,0,,2,,,74,127
20865,note_off,106,0,0,,2,,,74,127
20865,note_off,0,0,0,,2,,,62,127
20865,note_off,0,0,0,,2,,,50,127
20867,note_on,2,0,0,,1,,,49,127
20867,note_on,0,0,0,,1,,,61,127
20867,note_on,0,0,0,,4,,,76,127
21082,note_off,215,0,0,,4,,,76,127
21082,note_off,0,0,0,,1,,,61,127
21082,note_off,0,0,0,,1,,,49,127
21084,note_on,2,0,0,,10,,,45,127
21084,note_on,0,0,0,,10,,,57,127
21084,note_on,0,0,0,,10,,,81,127
21299,note_off,215,0,0,,10,,,57,127
21299,note_off,0,0,0,,10,,,45,127
21301,note_on,2,0,0,,6,,,42,127
21301,note_on,0,0,0,,6,,,54,127
21410,note_off,109,0,0,,10,,,81,127
21516,note_off,106,0,0,,6,,,54,127
21516,note_off,0,0,0,,6,,,42,127
21518,note_on,2,0,0,,2,,,38,127
21518,note_on,0,0,0,,2,,,50,127
21518,note_on,0,0,0,,10,,,81,127
21624,note_off,106,0,0,,10,,,81,127
21626,note_on,2,0,0,,2,,,74,127
21732,note_off,106,0,0,,2,,,74,127
21732,note_off,0,0,0,,2,,,50,127
21732,note_off,0,0,0,,2,,,38,127
21734,note_on,2,0,0,,10,,,45,127
21734,note_on,0,0,0,,10,,,33,127
21734,note_on,0,0,0,,4,,,76,127
21840,note_off,106,0,0,,4,,,76,127
21842,note_on,2,0,0,,10,,,69,127
21948,note_off,106,0,0,,10,,,69,127
21950,note_on,2,0,0,,8,,,68,127
22056,note_off,106,0,0,,8,,,68,127
22058,note_on,2,0,0,,10,,,69,127
22164,note_off,106,0,0,,10,,,69,127
22166,note_on,2,0,0,,1,,,73,127
22272,note_off,106,0,0,,1,,,73,127
22274,note_on,2,0,0,,10,,,69,127
22380,note_off,106,0,0,,10,,,69,127
22382,note_on,2,0,0,,2,,,74,127
22488,note_off,106,0,0,,2,,,74,127
22490,note_on,2,0,0,,10,,,69,127
22596,note_off,106,0,0,,10,,,69,127
22596,note_off,0,0,0,,10,,,33,127
22596,note_off,0,0,0,,10,,,45,127
22598,note_on,2,0,0,,10,,,45,127
22598,note_on,0,0,0,,4,,,76,127
22704,note_off,106,0,0,,4,,,76,127
22706,note_on,2,0,0,,10,,,69,127
22812,note_off,106,0,0,,10,,,69,127
22814,note_on,2,0,0,,6,,,78,127
22920,note_off,106,0,0,,6,,,78,127
22922,note_on,2,0,0,,10,,,69,127
23028,note_off,106,0,0,,10,,,69,127
23028,note_off,0,0,0,,10,,,45,127
23030,note_on,2,0,0,,10,,,33,127
23030,note_on,0,0,0,,7,,,79,127
23136,note_off,106,0,0,,7,,,79,127
23138,note_on,2,0,0,,10,,,69,127
23244,note_off,106,0,0,,10,,,69,127
23246,note_on,2,0,0,,6,,,78,127
23352,note_off,106,0,0,,6,,,78,127
23354,note_on,2,0,0,,10,,,69,127
23460,note_off,106,0,0,,10,,,69,127
23460,note_off,0,0,0,,10,,,33,127
23462,note_on,2,0,0,,10,,,57,127
23462,note_on,0,0,0,,4,,,76,127
23568,note_off,106,0,0,,4,,,76,127
23570,note_on,2,0,0,,10,,,69,127
23676,note_off,106,0,0,,10,,,69,127
23678,note_on,2,0,0,,8,,,68,127
23784,note_off,106,0,0,,8,,,68,127
23786,note_on,2,0,0,,10,,,69,127
23892,note_off,106,0,0,,10,,,69,127
23894,note_on,2,0,0,,1,,,73,127
24000,note_off,106,0,0,,1,,,73,127
24002,note_on,2,0,0,,10,,,69,127
24108,note_off,106,0,0,,10,,,69,127
24110,note_on,2,0,0,,2,,,74,127
24216,note_off,106,0,0,,2,,,74,127
24218,note_on,2,0,0,,10,,,69,127
24324,note_off,106,0,0,,10,,,69,127
24324,note_off,0,0,0,,10,,,57,127
24326,note_on,2,0,0,,10,,,45,127
24326,note_on,0,0,0,,4,,,76,127
24432,note_off,106,0,0,,4,,,76,127
24434,note_on,2,0,0,,10,,,69,127
24540,note_off,106,0,0,,10,,,69,127
24542,note_on,2,0,0,,6,,,78,127
24648,note_off,106,0,0,,6,,,78,127
24650,note_on,2,0,0,,10,,,69,127
24756,note_off,106,0,0,,10,,,69,127
24756,note_off,0,0,0,,10,,,45,127
24758,note_on,2,0,0,,10,,,33,127
24758,note_on,0,0,0,,7,,,79,127
24864,note_off,106,0,0,,7,,,79,127
24866,note_on,2,0,0,,10,,,69,127
24972,note_off,106,0,0,,10,,,69,127
24974,note_on,2,0,0,,6,,,78,127
25080,note_off,106,0,0,,6,,,78,127
25082,note_on,2,0,0,,10,,,69,127
25164,note_off,82,0,0,,10,,,33,127
25189,note_off,25,0,0,,10,,,69,127
25191,note_on,2,0,0,,4,,,76,127
25300,note_on,109,0,0,,10,,,57,127
25406,note_off,106,0,0,,10,,,57,127
25408,note_on,2,0,0,,8,,,56,127
25514,note_off,106,0,0,,8,,,56,127
25516,note_on,2,0,0,,10,,,57,127
25620,note_off,104,0,0,,4,,,76,127
25622,note_off,2,0,0,,10,,,57,127
25624,note_on,2,0,0,,1,,,61,127
25730,note_off,106,0,0,,1,,,61,127
25732,note_on,2,0,0,,10,,,57,127
25838,note_off,106,0,0,,10,,,57,127
25840,note_on,2,0,0,,2,,,62,127
25946,note_off,106,0,0,,2,,,62,127
25948,note_on,2,0,0,,10,,,57,127
26054,note_off,106,0,0,,10,,,57,127
26056,note_on,2,0,0,,4,,,64,127
26162,note_off,106,0,0,,4,,,64,127
26164,note_on,2,0,0,,10,,,57,127
26270,note_off,106,0,0,,10,,,57,127
26272,note_on,2,0,0,,6,,,66,127
26272,note_on,0,0,0,,10,,,81,127
26378,note_off,106,0,0,,6,,,66,127
26380,note_on,2,0,0,,10,,,57,127
26486,note_off,106,0,0,,10,,,57,127
26486,note_off,0,0,0,,10,,,81,127
26488,note_on,2,0,0,,7,,,67,127
26488,note_on,0,0,0,,1,,,73,127
26594,note_off,106,0,0,,7,,,67,127
26596,note_on,2,0,0,,10,,,57,127
26702,note_off,106,0,0,,10,,,57,127
26702,note_off,0,0,0,,1,,,73,127
26704,note_on,2,0,0,,6,,,66,127
26704,note_on,0,0,0,,2,,,74,127
26810,note_off,106,0,0,,6,,,66,127
26812,note_on,2,0,0,,10,,,57,127
26918,note_off,106,0,0,,10,,,57,127
26918,note_off,0,0,0,,2,,,74,127
26920,note_on,2,0,0,,4,,,64,127
26920,note_on,0,0,0,,4,,,76,127
27026,note_off,106,0,0,,4,,,64,127
27028,note_on,2,0,0,,10,,,57,127
27134,note_off,106,0,0,,10,,,57,127
27136,note_on,2,0,0,,8,,,56,127
27242,note_off,106,0,0,,8,,,56,127
27244,note_on,2,0,0,,10,,,57,127
27348,note_off,104,0,0,,4,,,76,127
27350,note_off,2,0,0,,10,,,57,127
27352,note_on,2,0,0,,1,,,61,127
27458,note_off,106,0,0,,1,,,61,127
27460,note_on,2,0,0,,10,,,57,127
27566,note_off,106,0,0,,10,,,57,127
27568,note_on,2,0,0,,2,,,62,127
27674,note_off,106,0,0,,2,,,62,127
27676,note_on,2,0,0,,10,,,57,127
27782,note_off,106,0,0,,10,,,57,127
27784,note_on,2,0,0,,4,,,64,127
27890,note_off,106,0,0,,4,,,64,127
27892,note_on,2,0,0,,10,,,57,127
27998,note_off,106,0,0,,10,,,57,127
28000,note_on,2,0,0,,6,,,66,127
28000,note_on,0,0,0,,10,,,81,127
28106,note_off,106,0,0,,6,,,66,127
28108,note_on,2,0,0,,10,,,57,127
28214,note_off,106,0,0,,10,,,57,127
28214,note_off,0,0,0,,10,,,81,127
28216,note_on,2,0,0,,7,,,67,127
28216,note_on,0,0,0,,1,,,73,127
28322,note_off,106,0,0,,7,,,67,127
28324,note_on,2,0,0,,10,,,57,127
28430,note_off,106,0,0,,10,,,57,127
28430,note_off,0,0,0,,1,,,73,127
28432,note_on,2,0,0,,6,,,66,127
28432,note_on,0,0,0,,2,,,74,127
28538,note_off,106,0,0,,6,,,66,127
28540,note_on,2,0,0,,10,,,57,127
28646,note_off,106,0,0,,10,,,57,127
28646,note_off,0,0,0,,2,,,74,127
28648,note_on,2,0,0,,4,,,64,127
28648,note_on,0,0,0,,4,,,76,127
28754,note_off,106,0,0,,4,,,64,127
28756,note_on,2,0,0,,7,,,67,127
28862,note_off,106,0,0,,7,,,67,127
28864,note_on,2,0,0,,1,,,61,127
28970,note_off,106,0,0,,1,,,61,127
28972,note_on,2,0,0,,4,,,64,127
29076,note_off,104,0,0,,4,,,76,127
29078,note_off,2,0,0,,4,,,64,127
29080,note_on,2,0,0,,7,,,55,127
29186,note_off,106,0,0,,7,,,55,127
29188,note_on,2,0,0,,12,,,59,127
29294,note_off,106,0,0,,12,,,59,127
29296,note_on,2,0,0,,4,,,52,127
29402,note_off,106,0,0,,4,,,52,127
29404,note_on,2,0,0,,7,,,55,127
29510,note_off,106,0,0,,7,,,55,127
29512,note_on,2,0,0,,1,,,49,127
29618,note_off,106,0,0,,1,,,49,127
29620,note_on,2,0,0,,4,,,52,127
29726,note_off,106,0,0,,4,,,52,127
29728,note_on,2,0,0,,7,,,43,127
29834,note_off,106,0,0,,7,,,43,127
29836,note_on,2,0,0,,12,,,47,127
29942,note_off,106,0,0,,12,,,47,127
29944,note_on,2,0,0,,4,,,40,127
30050,note_off,106,0,0,,4,,,40,127
30052,note_on,2,0,0,,7,,,43,127
30158,note_off,106,0,0,,7,,,43,127
30160,note_on,2,0,0,,1,,,37,127
30266,note_off,106,0,0,,1,,,37,127
30268,note_on,2,0,0,,4,,,40,127
30374,note_off,106,0,0,,4,,,40,127
30376,note_on,2,0,0,,10,,,33,127
30593,note_on,217,0,0,,7,,,79,127
30808,note_off,215,0,0,,7,,,79,127
30810,note_on,2,0,0,,10,,,69,127
31025,note_off,215,0,0,,10,,,69,127
31025,note_off,0,0,0,,10,,,33,127
31027,note_on,2,0,0,,1,,,61,127
31027,note_on,0,0,0,,7,,,79,127
31242,note_off,215,0,0,,7,,,79,127
31242,note_off,0,0,0,,1,,,61,127
31244,note_on,2,0,0,,2,,,62,127
31244,note_on,0,0,0,,6,,,78,127
31459,note_off,215,0,0,,6,,,78,127
31459,note_off,0,0,0,,2,,,62,127
31461,note_on,2,0,0,,6,,,54,127
31461,note_on,0,0,0,,4,,,76,127
31567,note_off,106,0,0,,4,,,76,127
31569,note_on,2,0,0,,2,,,74,127
31675,note_off,106,0,0,,2,,,74,127
31675,note_off,0,0,0,,6,,,54,127
31677,note_on,2,0,0,,7,,,55,127
31677,note_on,0,0,0,,4,,,76,127
31892,note_off,215,0,0,,4,,,76,127
31892,note_off,0,0,0,,7,,,55,127
31894,note_on,2,0,0,,10,,,57,127
31894,note_on,0,0,0,,2,,,74,127
32000,note_off,106,0,0,,2,,,74,127
32002,note_on,2,0,0,,1,,,73,127
32108,note_off,106,0,0,,1,,,73,127
32108,note_off,0,0,0,,10,,,57,127
32110,note_on,2,0,0,,2,,,50,127
32110,note_on,0,0,0,,2,,,74,127
32325,note_off,215,0,0,,2,,,50,127
32327,note_on,2,0,0,,2,,,62,127
32327,note_on,0,0,0,,6,,,66,127
32540,note_off,213,0,0,,2,,,74,127
32542,note_off,2,0,0,,6,,,66,127
32542,note_off,0,0,0,,2,,,62,127
32544,note_on,2,0,0,,4,,,64,127
32544,note_on,0,0,0,,7,,,67,127
32759,note_off,215,0,0,,7,,,67,127
32759,note_off,0,0,0,,4,,,64,127
32761,note_on,2,0,0,,6,,,66,127
32761,note_on,0,0,0,,10,,,69,127
32976,note_off,215,0,0,,10,,,69,127
32976,note_off,0,0,0,,6,,,66,127
32978,note_on,2,0,0,,1,,,73,127
33193,note_off,215,0,0,,1,,,73,127
33195,note_on,2,0,0,,2,,,62,127
33195,note_on,0,0,0,,6,,,66,127
33195,note_on,0,0,0,,2,,,74,127
33410,note_off,215,0,0,,6,,,66,127
33410,note_off,0,0,0,,2,,,62,127
33412,note_on,2,0,0,,4,,,64,127
33412,note_on,0,0,0,,7,,,67,127
33627,note_off,215,0,0,,7,,,67,127
33627,note_off,0,0,0,,4,,,64,127
33629,note_on,2,0,0,,6,,,66,127
33629,note_on,0,0,0,,10,,,69,127
33844,note_off,215,0,0,,10,,,69,127
33844,note_off,0,0,0,,6,,,66,127
33845,note_off,1,0,0,,2,,,74,127
33846,note_on,1,0,0,,3,,,75,127
34061,note_off,215,0,0,,3,,,75,127
34063,note_on,2,0,0,,4,,,64,127
34063,note_on,0,0,0,,4,,,76,127
34063,note_on,0,0,0,,8,,,68,127
34278,note_off,215,0,0,,8,,,68,127
34278,note_off,0,0,0,,4,,,64,127
34280,note_on,2,0,0,,6,,,66,127
34280,note_on,0,0,0,,10,,,69,127
34495,note_off,215,0,0,,10,,,69,127
34495,note_off,0,0,0,,6,,,66,127
34497,note_on,2,0,0,,8,,,68,127
34497,note_on,0,0,0,,12,,,71,127
34712,note_off,215,0,0,,12,,,71,127
34712,note_off,0,0,0,,8,,,68,127
34713,note_off,1,0,0,,4,,,76,127
34714,note_on,1,0,0,,8,,,80,127
34929,note_off,215,0,0,,8,,,80,127
34931,note_on,2,0,0,,10,,,69,127
34931,note_on,0,0,0,,10,,,81,127
34931,note_on,0,0,0,,1,,,73,127
35146,note_off,215,0,0,,1,,,73,127
35146,note_off,0,0,0,,10,,,69,127
35148,note_on,2,0,0,,12,,,71,127
35148,note_on,0,0,0,,2,,,74,127
35363,note_off,215,0,0,,2,,,74,127
35363,note_off,0,0,0,,12,,,71,127
35365,note_on,2,0,0,,1,,,73,127
35365,note_on,0,0,0,,4,,,76,127
35580,note_off,215,0,0,,4,,,76,127
35580,note_off,0,0,0,,1,,,73,127
35581,note_off,1,0,0,,10,,,81,127
35582,note_on,1,0,0,,2,,,74,127
35582,note_on,0,0,0,,7,,,79,127
35634,note_off,52,0,0,,7,,,79,127
35636,note_on,2,0,0,,6,,,78,127
35688,note_off,52,0,0,,6,,,78,127
35690,note_on,2,0,0,,7,,,79,127
35742,note_off,52,0,0,,7,,,79,127
35744,note_on,2,0,0,,6,,,78,127
35796,note_off,52,0,0,,6,,,78,127
35798,note_on,2,0,0,,4,,,76,127
35904,note_off,106,0,0,,4,,,76,127
35906,note_on,2,0,0,,6,,,78,127
36012,note_off,106,0,0,,6,,,78,127
36012,note_off,0,0,0,,2,,,74,127
36014,note_on,2,0,0,,7,,,67,127
36014,note_on,0,0,0,,7,,,79,127
36120,note_off,106,0,0,,7,,,79,127
36122,note_on,2,0,0,,6,,,78,127
36228,note_off,106,0,0,,6,,,78,127
36230,note_on,2,0,0,,4,,,76,127
36336,note_off,106,0,0,,4,,,76,127
36338,note_on,2,0,0,,2,,,74,127
36444,note_off,106,0,0,,2,,,74,127
36444,note_off,0,0,0,,7,,,67,127
36446,note_on,2,0,0,,10,,,69,127
36446,note_on,0,0,0,,1,,,73,127
36552,note_off,106,0,0,,1,,,73,127
36552,note_off,0,0,0,,10,,,69,127
36554,note_on,2,0,0,,10,,,69,127
36660,note_off,106,0,0,,10,,,69,127
36662,note_on,2,0,0,,8,,,68,127
36768,note_off,106,0,0,,8,,,68,127
36770,note_on,2,0,0,,10,,,69,127
36876,note_off,106,0,0,,10,,,69,127
36878,note_on,2,0,0,,1,,,73,127
36984,note_off,106,0,0,,1,,,73,127
36986,note_on,2,0,0,,10,,,69,127
37092,note_off,106,0,0,,10,,,69,127
37094,note_on,2,0,0,,2,,,74,127
37200,note_off,106,0,0,,2,,,74,127
37202,note_on,2,0,0,,10,,,69,127
37308,note_off,106,0,0,,10,,,69,127
37310,note_on,2,0,0,,10,,,45,127
37310,note_on,0,0,0,,4,,,76,127
37416,note_off,106,0,0,,4,,,76,127
37418,note_on,2,0,0,,10,,,69,127
37524,note_off,106,0,0,,10,,,69,127
37526,note_on,2,0,0,,6,,,78,127
37632,note_off,106,0,0,,6,,,78,127
37634,note_on,2,0,0,,10,,,69,127
37740,note_off,106,0,0,,10,,,69,127
37740,note_off,0,0,0,,10,,,45,127
37742,note_on,2,0,0,,10,,,33,127
37742,note_on,0,0,0,,7,,,79,127
37848,note_off,106,0,0,,7,,,79,127
37850,note_on,2,0,0,,10,,,69,127
37956,note_off,106,0,0,,10,,,69,127
37958,note_on,2,0,0,,6,,,78,127
38064,note_off,106,0,0,,6,,,78,127
38066,note_on,2,0,0,,10,,,69,127
38148,note_off,82,0,0,,10,,,33,127
38173,note_off,25,0,0,,10,,,69,127
38175,note_on,2,0,0,,4,,,76,127
38284,note_on,109,0,0,,10,,,57,127
38390,note_off,106,0,0,,10,,,57,127
38392,note_on,2,0,0,,8,,,56,127
38498,note_off,106,0,0,,8,,,56,127
38500,note_on,2,0,0,,10,,,57,127
38604,note_off,104,0,0,,4,,,76,127
38606,note_off,2,0,0,,10,,,57,127
38608,note_on,2,0,0,,1,,,61,127
38714,note_off,106,0,0,,1,,,61,127
38716,note_on,2,0,0,,10,,,57,127
38822,note_off,106,0,0,,10,,,57,127
38824,note_on,2,0,0,,2,,,62,127
38930,note_off,106,0,0,,2,,,62,127
38932,note_on,2,0,0,,10,,,57,127
39038,note_off,106,0,0,,10,,,57,127
39040,note_on,2,0,0,,4,,,64,127
39146,note_off,106,0,0,,4,,,64,127
39148,note_on,2,0,0,,10,,,57,127
39254,note_off,106,0,0,,10,,,57,127
39256,note_on,2,0,0,,6,,,66,127
39256,note_on,0,0,0,,10,,,81,127
39362,note_off,106,0,0,,6,,,66,127
39364,note_on,2,0,0,,10,,,57,127
39470,note_off,106,0,0,,10,,,57,127
39470,note_off,0,0,0,,10,,,81,127
39472,note_on,2,0,0,,7,,,67,127
39472,note_on,0,0,0,,1,,,73,127
39578,note_off,106,0,0,,7,,,67,127
39580,note_on,2,0,0,,10,,,57,127
39686,note_off,106,0,0,,10,,,57,127
39686,note_off,0,0,0,,1,,,73,127
39688,note_on,2,0,0,,6,,,66,127
39688,note_on,0,0,0,,2,,,74,127
39794,note_off,106,0,0,,6,,,66,127
39796,note_on,2,0,0,,10,,,57,127
39902,note_off,106,0,0,,10,,,57,127
39902,note_off,0,0,0,,2,,,74,127
39904,note_on,2,0,0,,4,,,64,127
39904,note_on,0,0,0,,4,,,76,127
40010,note_off,106,0,0,,4,,,64,127
40012,note_on,2,0,0,,7,,,67,127
40118,note_off,106,0,0,,7,,,67,127
40120,note_on,2,0,0,,1,,,61,127
40226,note_off,106,0,0,,1,,,61,127
40228,note_on,2,0,0,,4,,,64,127
40332,note_off,104,0,0,,4,,,76,127
40334,note_off,2,0,0,,4,,,64,127
40336,note_on,2,0,0,,7,,,55,127
40442,note_off,106,0,0,,7,,,55,127
40444,note_on,2,0,0,,12,,,59,127
40550,note_off,106,0,0,,12,,,59,127
40552,note_on,2,0,0,,4,,,52,127
40658,note_off,106,0,0,,4,,,52,127
40660,note_on,2,0,0,,7,,,55,127
40766,note_off,106,0,0,,7,,,55,127
40768,note_on,2,0,0,,1,,,49,127
40874,note_off,106,0,0,,1,,,49,127
40876,note_on,2,0,0,,4,,,52,127
40982,note_off,106,0,0,,4,,,52,127
40984,note_on,2,0,0,,7,,,43,127
41090,note_off,106,0,0,,7,,,43,127
41092,note_on,2,0,0,,12,,,47,127
41198,note_off,106,0,0,,12,,,47,127
41200,note_on,2,0,0,,4,,,40,127
41306,note_off,106,0,0,,4,,,40,127
41308,note_on,2,0,0,,7,,,43,127
41414,note_off,106,0,0,,7,,,43,127
41416,note_on,2,0,0,,1,,,37,127
41522,note_off,106,0,0,,1,,,37,127
41524,note_on,2,0,0,,4,,,40,127
41630,note_off,106,0,0,,4,,,40,127
41632,note_on,2,0,0,,10,,,33,127
41849,note_on,217,0,0,,7,,,79,127
42064,note_off,215,0,0,,7,,,79,127
42066,note_on,2,0,0,,10,,,69,127
42281,note_off,215,0,0,,10,,,69,127
42281,note_off,0,0,0,,10,,,33,127
42283,note_on,2,0,0,,1,,,61,127
42283,note_on,0,0,0,,7,,,79,127
42498,note_off,215,0,0,,7,,,79,127
42498,note_off,0,0,0,,1,,,61,127
42500,note_on,2,0,0,,2,,,62,127
42500,note_on,0,0,0,,6,,,78,127
42715,note_off,215,0,0,,6,,,78,127
42715,note_off,0,0,0,,2,,,62,127
42717,note_on,2,0,0,,6,,,54,127
42717,note_on,0,0,0,,4,,,76,127
42823,note_off,106,0,0,,4,,,76,127
42825,note_on,2,0,0,,2,,,74,127
42931,note_off,106,0,0,,2,,,74,127
42931,note_off,0,0,0,,6,,,54,127
42933,note_on,2,0,0,,7,,,55,127
42933,note_on,0,0,0,,4,,,76,127
43148,note_off,215,0,0,,4,,,76,127
43148,note_off,0,0,0,,7,,,55,127
43150,note_on,2,0,0,,10,,,57,127
43150,note_on,0,0,0,,2,,,74,127
43256,note_off,106,0,0,,2,,,74,127
43258,note_on,2,0,0,,1,,,73,127
43364,note_off,106,0,0,,1,,,73,127
43364,note_off,0,0,0,,10,,,57,127
43366,note_on,2,0,0,,2,,,50,127
43366,note_on,0,0,0,,2,,,74,127
43581,note_off,215,0,0,,2,,,74,127
43583,note_on,2,0,0,,2,,,86,127
43689,note_off,106,0,0,,2,,,86,127
43691,note_on,2,0,0,,10,,,81,127
43743,note_off,52,0,0,,10,,,81,127
43745,note_on,2,0,0,,6,,,78,127
43797,note_off,52,0,0,,6,,,78,127
43799,note_on,2,0,0,,2,,,74,127
44014,note_off,215,0,0,,2,,,74,127
44014,note_off,0,0,0,,2,,,50,127
44016,note_on,2,0,0,,6,,,54,127
44016,note_on,0,0,0,,10,,,69,127
44016,note_on,0,0,0,,10,,,81,127
44231,note_off,215,0,0,,10,,,69,127
44231,note_off,0,0,0,,6,,,54,127
44233,note_on,2,0,0,,7,,,55,127
44233,note_on,0,0,0,,12,,,71,127
44446,note_off,213,0,0,,10,,,81,127
44448,note_off,2,0,0,,12,,,71,127
44448,note_off,0,0,0,,7,,,55,127
44450,note_on,2,0,0,,7,,,43,127
44450,note_on,0,0,0,,2,,,74,127
44450,note_on,0,0,0,,7,,,79,127
44665,note_off,215,0,0,,7,,,79,127
44665,note_off,0,0,0,,7,,,43,127
44667,note_on,2,0,0,,10,,,57,127
44667,note_on,0,0,0,,6,,,78,127
44880,note_off,213,0,0,,2,,,74,127
44882,note_off,2,0,0,,6,,,78,127
44882,note_off,0,0,0,,10,,,57,127
44884,note_on,2,0,0,,10,,,45,127
44884,note_on,0,0,0,,4,,,76,127
44884,note_on,0,0,0,,1,,,73,127
45099,note_off,215,0,0,,1,,,73,127
45099,note_off,0,0,0,,4,,,76,127
45099,note_off,0,0,0,,10,,,45,127
45101,note_on,2,0,0,,2,,,50,127
45101,note_on,0,0,0,,2,,,74,127
45316,note_off,215,0,0,,2,,,74,127
45318,note_on,2,0,0,,2,,,86,127
45424,note_off,106,0,0,,2,,,86,127
45426,note_on,2,0,0,,10,,,81,127
45478,note_off,52,0,0,,10,,,81,127
45480,note_on,2,0,0,,6,,,78,127
45532,note_off,52,0,0,,6,,,78,127
45534,note_on,2,0,0,,2,,,74,127
45749,note_off,215,0,0,,2,,,74,127
45749,note_off,0,0,0,,2,,,50,127
45751,note_on,2,0,0,,6,,,54,127
45751,note_on,0,0,0,,10,,,81,127
45751,note_on,0,0,0,,10,,,69,127
45966,note_off,215,0,0,,10,,,69,127
45966,note_off,0,0,0,,6,,,54,127
45968,note_on,2,0,0,,7,,,55,127
45968,note_on,0,0,0,,12,,,71,127
46181,note_off,213,0,0,,10,,,81,127
46183,note_off,2,0,0,,12,,,71,127
46183,note_off,0,0,0,,7,,,55,127
46185,note_on,2,0,0,,7,,,43,127
46185,note_on,0,0,0,,2,,,74,127
46185,note_on,0,0,0,,7,,,79,127
46400,note_off,215,0,0,,7,,,79,127
46400,note_off,0,0,0,,7,,,43,127
46402,note_on,2,0,0,,10,,,57,127
46402,note_on,0,0,0,,6,,,78,127
46615,note_off,213,0,0,,2,,,74,127
46617,note_off,2,0,0,,6,,,78,127
46617,note_off,0,0,0,,10,,,57,127
46619,note_on,2,0,0,,10,,,45,127
46619,note_on,0,0,0,,1,,,73,127
46619,note_on,0,0,0,,4,,,76,127
46834,note_off,215,0,0,,4,,,76,127
46834,note_off,0,0,0,,1,,,73,127
46834,note_off,0,0,0,,10,,,45,127
46836,note_on,2,0,0,,2,,,50,127
46836,note_on,0,0,0,,2,,,74,127
47051,note_off,215,0,0,,2,,,50,127
47053,note_on,2,0,0,,2,,,62,127
47159,note_off,106,0,0,,2,,,62,127
47161,note_on,2,0,0,,10,,,57,127
47213,note_off,52,0,0,,10,,,57,127
47215,note_on,2,0,0,,6,,,54,127
47267,note_off,52,0,0,,6,,,54,127
47269,note_on,2,0,0,,2,,,50,127
47484,note_off,215,0,0,,2,,,50,127
47484,note_off,0,0,0,,2,,,74,127
47486,note_on,2,0,0,,2,,,38,127
47486,note_on,0,0,0,,6,,,78,127
47486,note_on,0,0,0,,10,,,69,127
47701,note_off,215,0,0,,2,,,38,127
47703,note_on,2,0,0,,7,,,43,127
47918,note_off,215,0,0,,10,,,69,127
47918,note_off,0,0,0,,6,,,78,127
47920,note_on,2,0,0,,4,,,76,127
47920,note_on,0,0,0,,7,,,67,127
48135,note_off,215,0,0,,7,,,67,127
48135,note_off,0,0,0,,4,,,76,127
48135,note_off,0,0,0,,7,,,43,127
48137,note_on,2,0,0,,10,,,45,127
48137,note_on,0,0,0,,2,,,74,127
48137,note_on,0,0,0,,6,,,66,127
48352,note_off,215,0,0,,6,,,66,127
48352,note_off,0,0,0,,2,,,74,127
48354,note_on,2,0,0,,4,,,64,127
48354,note_on,0,0,0,,1,,,73,127
48569,note_off,215,0,0,,1,,,73,127
48569,note_off,0,0,0,,4,,,64,127
48569,note_off,0,0,0,,10,,,45,127
48571,note_on,2,0,0,,2,,,38,127
48571,note_on,0,0,0,,2,,,74,127
48571,note_on,0,0,0,,6,,,66,127
48786,note_off,215,0,0,,2,,,38,127
48788,note_on,2,0,0,,2,,,62,127
48894,note_off,106,0,0,,2,,,62,127
48896,note_on,2,0,0,,10,,,57,127
48948,note_off,52,0,0,,10,,,57,127
48950,note_on,2,0,0,,6,,,54,127
49000,note_off,50,0,0,,6,,,66,127
49000,note_off,0,0,0,,2,,,74,127
49002,note_off,2,0,0,,6,,,54,127
49004,note_on,2,0,0,,2,,,50,127
49219,note_off,215,0,0,,2,,,50,127
49221,note_on,2,0,0,,2,,,38,127
49221,note_on,0,0,0,,10,,,69,127
49221,note_on,0,0,0,,6,,,66,127
49436,note_off,215,0,0,,2,,,38,127
49438,note_on,2,0,0,,7,,,43,127
49653,note_off,215,0,0,,6,,,66,127
49653,note_off,0,0,0,,10,,,69,127
49655,note_on,2,0,0,,7,,,67,127
49655,note_on,0,0,0,,4,,,64,127
49870,note_off,215,0,0,,4,,,64,127
49870,note_off,0,0,0,,7,,,67,127
49870,note_off,0,0,0,,7,,,43,127
49872,note_on,2,0,0,,10,,,45,127
49872,note_on,0,0,0,,2,,,62,127
49872,note_on,0,0,0,,6,,,66,127
50087,note_off,215,0,0,,6,,,66,127
50087,note_off,0,0,0,,2,,,62,127
50089,note_on,2,0,0,,1,,,61,127
50089,note_on,0,0,0,,4,,,64,127
50304,note_off,215,0,0,,4,,,64,127
50304,note_off,0,0,0,,1,,,61,127
50304,note_off,0,0,0,,10,,,45,127
50306,note_on,2,0,0,,2,,,38,127
50306,note_on,0,0,0,,2,,,62,127
50957,note_off,651,0,0,,2,,,62,127
51173,note_off,216,0,0,,2,,,38,127
51193,note_on,20,0,0,,7,,,79,127
51193,note_on,0,0,0,,2,,,62,127
51245,note_off,52,0,0,,7,,,79,127
51247,note_on,2,0,0,,6,,,78,127
51299,note_off,52,0,0,,6,,,78,127
51301,note_on,2,0,0,,7,,,79,127
51353,note_off,52,0,0,,7,,,79,127
51355,note_on,2,0,0,,6,,,78,127
51516,note_off,161,0,0,,6,,,78,127
51518,note_on,2,0,0,,10,,,69,127
51624,note_off,106,0,0,,10,,,69,127
51626,note_on,2,0,0,,7,,,79,127
51678,note_off,52,0,0,,7,,,79,127
51680,note_on,2,0,0,,6,,,78,127
51732,note_off,52,0,0,,6,,,78,127
51734,note_on,2,0,0,,7,,,79,127
51786,note_off,52,0,0,,7,,,79,127
51788,note_on,2,0,0,,6,,,78,127
51949,note_off,161,0,0,,6,,,78,127
51951,note_on,2,0,0,,10,,,69,127
52057,note_off,106,0,0,,10,,,69,127
52057,note_off,0,0,0,,2,,,62,127
52059,note_on,2,0,0,,7,,,79,127
52059,note_on,0,0,0,,0,,,60,127
52111,note_off,52,0,0,,7,,,79,127
52113,note_on,2,0,0,,6,,,78,127
52165,note_off,52,0,0,,6,,,78,127
52167,note_on,2,0,0,,7,,,79,127
52219,note_off,52,0,0,,7,,,79,127
52221,note_on,2,0,0,,6,,,78,127
52382,note_off,161,0,0,,6,,,78,127
52384,note_on,2,0,0,,10,,,69,127
52490,note_off,106,0,0,,10,,,69,127
52492,note_on,2,0,0,,7,,,79,127
52544,note_off,52,0,0,,7,,,79,127
52546,note_on,2,0,0,,6,,,78,127
52598,note_off,52,0,0,,6,,,78,127
52600,note_on,2,0,0,,7,,,79,127
52652,note_off,52,0,0,,7,,,79,127
52654,note_on,2,0,0,,6,,,78,127
52815,note_off,161,0,0,,6,,,78,127
52817,note_on,2,0,0,,10,,,69,127
52923,note_off,106,0,0,,10,,,69,127
52923,note_off,0,0,0,,0,,,60,127
52925,note_on,2,0,0,,7,,,79,127
52925,note_on,0,0,0,,12,,,59,127
52977,note_off,52,0,0,,7,,,79,127
52979,note_on,2,0,0,,6,,,78,127
53031,note_off,52,0,0,,6,,,78,127
53033,note_on,2,0,0,,7,,,79,127
53085,note_off,52,0,0,,7,,,79,127
53087,note_on,2,0,0,,6,,,78,127
53139,note_off,52,0,0,,6,,,78,127
53141,note_on,2,0,0,,7,,,79,127
53247,note_off,106,0,0,,7,,,79,127
53249,note_on,2,0,0,,10,,,81,127
53355,note_off,106,0,0,,10,,,81,127
53357,note_on,2,0,0,,7,,,79,127
53463,note_off,106,0,0,,7,,,79,127
53465,note_on,2,0,0,,6,,,78,127
53571,note_off,106,0,0,,6,,,78,127
53573,note_on,2,0,0,,4,,,76,127
53679,note_off,106,0,0,,4,,,76,127
53681,note_on,2,0,0,,3,,,75,127
53787,note_off,106,0,0,,3,,,75,127
53787,note_off,0,0,0,,12,,,59,127
53789,note_on,2,0,0,,4,,,76,127
53789,note_on,0,0,0,,10,,,69,127
53841,note_off,52,0,0,,10,,,69,127
53843,note_on,2,0,0,,7,,,67,127
53895,note_off,52,0,0,,7,,,67,127
53897,note_on,2,0,0,,10,,,69,127
53949,note_off,52,0,0,,10,,,69,127
53951,note_on,2,0,0,,7,,,67,127
54112,note_off,161,0,0,,7,,,67,127
54114,note_on,2,0,0,,12,,,59,127
54220,note_off,106,0,0,,12,,,59,127
54222,note_on,2,0,0,,10,,,69,127
54274,note_off,52,0,0,,10,,,69,127
54276,note_on,2,0,0,,7,,,67,127
54328,note_off,52,0,0,,7,,,67,127
54330,note_on,2,0,0,,10,,,69,127
54382,note_off,52,0,0,,10,,,69,127
54384,note_on,2,0,0,,7,,,67,127
54545,note_off,161,0,0,,7,,,67,127
54547,note_on,2,0,0,,12,,,59,127
54653,note_off,106,0,0,,12,,,59,127
54654,note_off,1,0,0,,4,,,76,127
54655,note_on,1,0,0,,7,,,67,127
54761,note_off,106,0,0,,7,,,67,127
54763,note_on,2,0,0,,12,,,59,127
54869,note_off,106,0,0,,12,,,59,127
54871,note_on,2,0,0,,6,,,78,127
54871,note_on,0,0,0,,10,,,69,127
54977,note_off,106,0,0,,10,,,69,127
54979,note_on,2,0,0,,0,,,60,127
55085,note_off,106,0,0,,0,,,60,127
55085,note_off,0,0,0,,6,,,78,127
55087,note_on,2,0,0,,4,,,76,127
55087,note_on,0,0,0,,7,,,67,127
55193,note_off,106,0,0,,7,,,67,127
55195,note_on,2,0,0,,12,,,59,127
55301,note_off,106,0,0,,12,,,59,127
55301,note_off,0,0,0,,4,,,76,127
55303,note_on,2,0,0,,3,,,75,127
55303,note_on,0,0,0,,6,,,66,127
55409,note_off,106,0,0,,6,,,66,127
55411,note_on,2,0,0,,10,,,57,127
55517,note_off,106,0,0,,10,,,57,127
55517,note_off,0,0,0,,3,,,75,127
55519,note_on,2,0,0,,4,,,76,127
55519,note_on,0,0,0,,7,,,67,127
55625,note_off,106,0,0,,7,,,67,127
55627,note_on,2,0,0,,12,,,59,127
55733,note_off,106,0,0,,12,,,59,127
55733,note_off,0,0,0,,4,,,76,127
55735,note_on,2,0,0,,6,,,78,127
55735,note_on,0,0,0,,6,,,66,127
55841,note_off,106,0,0,,6,,,66,127
55843,note_on,2,0,0,,10,,,57,127
55949,note_off,106,0,0,,10,,,57,127
55949,note_off,0,0,0,,6,,,78,127
55951,note_on,2,0,0,,7,,,79,127
55951,note_on,0,0,0,,4,,,64,127
56057,note_off,106,0,0,,4,,,64,127
56059,note_on,2,0,0,,7,,,55,127
56165,note_off,106,0,0,,7,,,55,127
56165,note_off,0,0,0,,7,,,79,127
56167,note_on,2,0,0,,10,,,81,127
56167,note_on,0,0,0,,3,,,63,127
56273,note_off,106,0,0,,3,,,63,127
56275,note_on,2,0,0,,6,,,54,127
56381,note_off,106,0,0,,6,,,54,127
56381,note_off,0,0,0,,10,,,81,127
56383,note_on,2,0,0,,10,,,81,127
56383,note_on,0,0,0,,4,,,52,127
56435,note_off,52,0,0,,10,,,81,127
56437,note_on,2,0,0,,7,,,79,127
56489,note_off,52,0,0,,7,,,79,127
56491,note_on,2,0,0,,10,,,81,127
56543,note_off,52,0,0,,10,,,81,127
56545,note_on,2,0,0,,7,,,79,127
56706,note_off,161,0,0,,7,,,79,127
56708,note_on,2,0,0,,12,,,71,127
56814,note_off,106,0,0,,12,,,71,127
56816,note_on,2,0,0,,10,,,81,127
56868,note_off,52,0,0,,10,,,81,127
56870,note_on,2,0,0,,7,,,79,127
56922,note_off,52,0,0,,7,,,79,127
56924,note_on,2,0,0,,10,,,81,127
56976,note_off,52,0,0,,10,,,81,127
56978,note_on,2,0,0,,7,,,79,127
57139,note_off,161,0,0,,7,,,79,127
57141,note_on,2,0,0,,12,,,71,127
57247,note_off,106,0,0,,12,,,71,127
57247,note_off,0,0,0,,4,,,52,127
57249,note_on,2,0,0,,10,,,81,127
57249,note_on,0,0,0,,2,,,62,127
57301,note_off,52,0,0,,10,,,81,127
57303,note_on,2,0,0,,8,,,80,127
57355,note_off,52,0,0,,8,,,80,127
57357,note_on,2,0,0,,10,,,81,127
57409,note_off,52,0,0,,10,,,81,127
57411,note_on,2,0,0,,8,,,80,127
57572,note_off,161,0,0,,8,,,80,127
57574,note_on,2,0,0,,12,,,71,127
57680,note_off,106,0,0,,12,,,71,127
57682,note_on,2,0,0,,10,,,81,127
57734,note_off,52,0,0,,10,,,81,127
57736,note_on,2,0,0,,8,,,80,127
57788,note_off,52,0,0,,8,,,80,127
57790,note_on,2,0,0,,10,,,81,127
57842,note_off,52,0,0,,10,,,81,127
57844,note_on,2,0,0,,8,,,80,127
58005,note_off,161,0,0,,8,,,80,127
58007,note_on,2,0,0,,12,,,71,127
58113,note_off,106,0,0,,12,,,71,127
58113,note_off,0,0,0,,2,,,62,127
58115,note_on,2,0,0,,12,,,83,127
58115,note_on,0,0,0,,0,,,60,127
58167,note_off,52,0,0,,12,,,83,127
58169,note_on,2,0,0,,10,,,81,127
58221,note_off,52,0,0,,10,,,81,127
58223,note_on,2,0,0,,12,,,83,127
58275,note_off,52,0,0,,12,,,83,127
58277,note_on,2,0,0,,10,,,81,127
58438,note_off,161,0,0,,10,,,81,127
58440,note_on,2,0,0,,0,,,72,127
58546,note_off,106,0,0,,0,,,72,127
58546,note_off,0,0,0,,0,,,60,127
58548,note_on,2,0,0,,0,,,84,127
58548,note_on,0,0,0,,12,,,59,127
58600,note_off,52,0,0,,0,,,84,127
58602,note_on,2,0,0,,12,,,83,127
58654,note_off,52,0,0,,12,,,83,127
58656,note_on,2,0,0,,0,,,84,127
58708,note_off,52,0,0,,0,,,84,127
58710,note_on,2,0,0,,12,,,83,127
58871,note_off,161,0,0,,12,,,83,127
58873,note_on,2,0,0,,2,,,74,127
58979,note_off,106,0,0,,2,,,74,127
58979,note_off,0,0,0,,12,,,59,127
58981,note_on,2,0,0,,0,,,84,127
58981,note_on,0,0,0,,10,,,57,127
59196,note_off,215,0,0,,0,,,84,127
59198,note_on,2,0,0,,4,,,76,127
59304,note_off,106,0,0,,4,,,76,127
59306,note_on,2,0,0,,0,,,72,127
59412,note_off,106,0,0,,0,,,72,127
59414,note_on,2,0,0,,0,,,84,127
59414,note_on,0,0,0,,4,,,76,127
59629,note_off,215,0,0,,4,,,76,127
59629,note_off,0,0,0,,0,,,84,127
59631,note_on,2,0,0,,2,,,74,127
59631,note_on,0,0,0,,12,,,83,127
59846,note_off,215,0,0,,12,,,83,127
59846,note_off,0,0,0,,2,,,74,127
59846,note_off,0,0,0,,10,,,57,127
59848,note_on,2,0,0,,4,,,52,127
60065,note_on,217,0,0,,2,,,74,127
60171,note_off,106,0,0,,2,,,74,127
60173,note_on,2,0,0,,12,,,71,127
60279,note_off,106,0,0,,12,,,71,127
60281,note_on,2,0,0,,2,,,74,127
60281,note_on,0,0,0,,12,,,83,127
60496,note_off,215,0,0,,12,,,83,127
60496,note_off,0,0,0,,2,,,74,127
60498,note_on,2,0,0,,0,,,72,127
60498,note_on,0,0,0,,10,,,81,127
60713,note_off,215,0,0,,10,,,81,127
60713,note_off,0,0,0,,0,,,72,127
60713,note_off,0,0,0,,4,,,52,127
60715,note_on,2,0,0,,10,,,45,127
60932,note_on,217,0,0,,4,,,76,127
61038,note_off,106,0,0,,4,,,76,127
61040,note_on,2,0,0,,0,,,72,127
61146,note_off,106,0,0,,0,,,72,127
61148,note_on,2,0,0,,0,,,84,127
61148,note_on,0,0,0,,4,,,76,127
61363,note_off,215,0,0,,4,,,76,127
61363,note_off,0,0,0,,0,,,84,127
61365,note_on,2,0,0,,2,,,74,127
61365,note_on,0,0,0,,12,,,83,127
61580,note_off,215,0,0,,12,,,83,127
61580,note_off,0,0,0,,2,,,74,127
61580,note_off,0,0,0,,10,,,45,127
61582,note_on,2,0,0,,4,,,52,127
61799,note_on,217,0,0,,2,,,74,127
61905,note_off,106,0,0,,2,,,74,127
61907,note_on,2,0,0,,12,,,71,127
62013,note_off,106,0,0,,12,,,71,127
62015,note_on,2,0,0,,2,,,74,127
62015,note_on,0,0,0,,12,,,83,127
62230,note_off,215,0,0,,12,,,83,127
62230,note_off,0,0,0,,2,,,74,127
62232,note_on,2,0,0,,0,,,72,127
62232,note_on,0,0,0,,10,,,81,127
62447,note_off,215,0,0,,10,,,81,127
62447,note_off,0,0,0,,0,,,72,127
62448,note_off,1,0,0,,4,,,52,127
62449,note_on,1,0,0,,12,,,83,127
62664,note_off,215,0,0,,12,,,83,127
62666,note_on,2,0,0,,0,,,72,127
62666,note_on,0,0,0,,0,,,84,127
62666,note_on,0,0,0,,10,,,69,127
62881,note_off,215,0,0,,10,,,69,127
62881,note_off,0,0,0,,0,,,72,127
62883,note_on,2,0,0,,2,,,74,127
62883,note_on,0,0,0,,12,,,71,127
63098,note_off,215,0,0,,12,,,71,127
63098,note_off,0,0,0,,2,,,74,127
63100,note_on,2,0,0,,4,,,76,127
63100,note_on,0,0,0,,0,,,72,127
63315,note_off,215,0,0,,0,,,72,127
63315,note_off,0,0,0,,4,,,76,127
63316,note_off,1,0,0,,0,,,84,127
63317,note_on,1,0,0,,8,,,80,127
63532,note_off,215,0,0,,8,,,80,127
63534,note_on,2,0,0,,10,,,69,127
63534,note_on,0,0,0,,10,,,81,127
63534,note_on,0,0,0,,5,,,65,127
63749,note_off,215,0,0,,5,,,65,127
63749,note_off,0,0,0,,10,,,69,127
63751,note_on,2,0,0,,12,,,71,127
63751,note_on,0,0,0,,7,,,67,127
63966,note_off,215,0,0,,7,,,67,127
63966,note_off,0,0,0,,12,,,71,127
63968,note_on,2,0,0,,0,,,72,127
63968,note_on,0,0,0,,10,,,69,127
64183,note_off,215,0,0,,10,,,69,127
64183,note_off,0,0,0,,0,,,72,127
64184,note_off,1,0,0,,10,,,81,127
64185,note_on,1,0,0,,4,,,76,127
64400,note_off,215,0,0,,4,,,76,127
64402,note_on,2,0,0,,5,,,65,127
64402,note_on,0,0,0,,5,,,77,127
64402,note_on,0,0,0,,2,,,62,127
64617,note_off,215,0,0,,2,,,62,127
64617,note_off,0,0,0,,5,,,65,127
64619,note_on,2,0,0,,7,,,67,127
64619,note_on,0,0,0,,4,,,64,127
64834,note_off,215,0,0,,4,,,64,127
64834,note_off,0,0,0,,7,,,67,127
64836,note_on,2,0,0,,10,,,69,127
64836,note_on,0,0,0,,5,,,65,127
65051,note_off,215,0,0,,5,,,65,127
65051,note_off,0,0,0,,10,,,69,127
65052,note_off,1,0,0,,5,,,77,127
65053,note_on,1,0,0,,1,,,73,127
65268,note_off,215,0,0,,1,,,73,127
65270,note_on,2,0,0,,2,,,62,127
65270,note_on,0,0,0,,2,,,74,127
65270,note_on,0,0,0,,12,,,59,127
65485,note_off,215,0,0,,12,,,59,127
65485,note_off,0,0,0,,2,,,62,127
65487,note_on,2,0,0,,4,,,64,127
65487,note_on,0,0,0,,0,,,60,127
65702,note_off,215,0,0,,0,,,60,127
65702,note_off,0,0,0,,4,,,64,127
65704,note_on,2,0,0,,6,,,66,127
65704,note_on,0,0,0,,2,,,62,127
65919,note_off,215,0,0,,2,,,62,127
65919,note_off,0,0,0,,6,,,66,127
65920,note_off,1,0,0,,2,,,74,127
65921,note_on,1,0,0,,6,,,78,127
66136,note_off,215,0,0,,6,,,78,127
66138,note_on,2,0,0,,7,,,79,127
66138,note_on,0,0,0,,7,,,67,127
66138,note_on,0,0,0,,4,,,64,127
66353,note_off,215,0,0,,4,,,64,127
66353,note_off,0,0,0,,7,,,67,127
66355,note_on,2,0,0,,10,,,69,127
66355,note_on,0,0,0,,6,,,66,127
66570,note_off,215,0,0,,6,,,66,127
66570,note_off,0,0,0,,10,,,69,127
66572,note_on,2,0,0,,12,,,71,127
66572,note_on,0,0,0,,7,,,67,127
66787,note_off,215,0,0,,7,,,67,127
66787,note_off,0,0,0,,12,,,71,127
66788,note_off,1,0,0,,7,,,79,127
66789,note_on,1,0,0,,12,,,83,127
67004,note_off,215,0,0,,12,,,83,127
67006,note_on,2,0,0,,0,,,84,127
67006,note_on,0,0,0,,0,,,72,127
67006,note_on,0,0,0,,10,,,69,127
67221,note_off,215,0,0,,10,,,69,127
67221,note_off,0,0,0,,0,,,72,127
67223,note_on,2,0,0,,2,,,74,127
67223,note_on,0,0,0,,12,,,71,127
67438,note_off,215,0,0,,12,,,71,127
67438,note_off,0,0,0,,2,,,74,127
67440,note_on,2,0,0,,4,,,76,127
67440,note_on,0,0,0,,0,,,72,127
67655,note_off,215,0,0,,0,,,72,127
67655,note_off,0,0,0,,4,,,76,127
67656,note_off,1,0,0,,0,,,84,127
67657,note_on,1,0,0,,1,,,85,127
67872,note_off,215,0,0,,1,,,85,127
67874,note_on,2,0,0,,2,,,86,127
67874,note_on,0,0,0,,6,,,78,127
67874,note_on,0,0,0,,2,,,74,127
68089,note_off,215,0,0,,2,,,74,127
68089,note_off,0,0,0,,6,,,78,127
68091,note_on,2,0,0,,7,,,79,127
68091,note_on,0,0,0,,4,,,76,127
68306,note_off,215,0,0,,4,,,76,127
68306,note_off,0,0,0,,7,,,79,127
68308,note_on,2,0,0,,10,,,81,127
68308,note_on,0,0,0,,6,,,78,127
68523,note_off,215,0,0,,6,,,78,127
68523,note_off,0,0,0,,10,,,81,127
68524,note_off,1,0,0,,2,,,86,127
68525,note_on,1,0,0,,0,,,84,127
68525,note_on,0,0,0,,7,,,79,127
68577,note_off,52,0,0,,0,,,84,127
68579,note_on,2,0,0,,12,,,83,127
68631,note_off,52,0,0,,12,,,83,127
68633,note_on,2,0,0,,0,,,84,127
68685,note_off,52,0,0,,0,,,84,127
68687,note_on,2,0,0,,12,,,83,127
68739,note_off,52,0,0,,12,,,83,127
68741,note_on,2,0,0,,10,,,81,127
68847,note_off,106,0,0,,10,,,81,127
68849,note_on,2,0,0,,12,,,83,127
68955,note_off,106,0,0,,12,,,83,127
68955,note_off,0,0,0,,7,,,79,127
68957,note_on,2,0,0,,0,,,84,127
68957,note_on,0,0,0,,0,,,72,127
69063,note_off,106,0,0,,0,,,84,127
69065,note_on,2,0,0,,12,,,83,127
69171,note_off,106,0,0,,12,,,83,127
69173,note_on,2,0,0,,10,,,81,127
69279,note_off,106,0,0,,10,,,81,127
69281,note_on,2,0,0,,7,,,79,127
69387,note_off,106,0,0,,7,,,79,127
69387,note_off,0,0,0,,0,,,72,127
69389,note_on,2,0,0,,6,,,78,127
69389,note_on,0,0,0,,2,,,74,127
69604,note_off,215,0,0,,2,,,74,127
69604,note_off,0,0,0,,6,,,78,127
69606,note_on,2,0,0,,2,,,86,127
69606,note_on,0,0,0,,2,,,62,127
69606,note_on,0,0,0,,2,,,74,127
69821,note_off,215,0,0,,2,,,74,127
69821,note_off,0,0,0,,2,,,62,127
69823,note_on,2,0,0,,12,,,59,127
69823,note_on,0,0,0,,12,,,71,127
70038,note_off,215,0,0,,12,,,71,127
70038,note_off,0,0,0,,12,,,59,127
70038,note_off,0,0,0,,2,,,86,127
70040,note_on,2,0,0,,2,,,86,127
70040,note_on,0,0,0,,7,,,67,127
70040,note_on,0,0,0,,7,,,55,127
70146,note_off,106,0,0,,2,,,86,127
70148,note_on,2,0,0,,7,,,79,127
70254,note_off,106,0,0,,7,,,79,127
70254,note_off,0,0,0,,7,,,55,127
70254,note_off,0,0,0,,7,,,67,127
70256,note_on,2,0,0,,10,,,81,127
70256,note_on,0,0,0,,6,,,66,127
70256,note_on,0,0,0,,6,,,54,127
70471,note_off,215,0,0,,6,,,54,127
70471,note_off,0,0,0,,6,,,66,127
70471,note_off,0,0,0,,10,,,81,127
70473,note_on,2,0,0,,2,,,86,127
70473,note_on,0,0,0,,2,,,62,127
70473,note_on,0,0,0,,2,,,50,127
70688,note_off,215,0,0,,2,,,50,127
70688,note_off,0,0,0,,2,,,62,127
70690,note_on,2,0,0,,12,,,59,127
70690,note_on,0,0,0,,12,,,47,127
70905,note_off,215,0,0,,12,,,47,127
70905,note_off,0,0,0,,12,,,59,127
70905,note_off,0,0,0,,2,,,86,127
70907,note_on,2,0,0,,2,,,86,127
70907,note_on,0,0,0,,7,,,55,127
70907,note_on,0,0,0,,7,,,43,127
71013,note_off,106,0,0,,2,,,86,127
71015,note_on,2,0,0,,7,,,79,127
71121,note_off,106,0,0,,7,,,79,127
71121,note_off,0,0,0,,7,,,43,127
71121,note_off,0,0,0,,7,,,55,127
71123,note_on,2,0,0,,10,,,81,127
71123,note_on,0,0,0,,6,,,54,127
71123,note_on,0,0,0,,6,,,42,127
71338,note_off,215,0,0,,6,,,42,127
71338,note_off,0,0,0,,6,,,54,127
71338,note_off,0,0,0,,10,,,81,127
71340,note_on,2,0,0,,2,,,86,127
71340,note_on,0,0,0,,2,,,50,127
71340,note_on,0,0,0,,2,,,38,127
71555,note_off,215,0,0,,2,,,38,127
71555,note_off,0,0,0,,2,,,50,127
71557,note_on,2,0,0,,12,,,47,127
71557,note_on,0,0,0,,12,,,35,127
71772,note_off,215,0,0,,12,,,35,127
71772,note_off,0,0,0,,12,,,47,127
71772,note_off,0,0,0,,2,,,86,127
71774,note_on,2,0,0,,2,,,86,127
71774,note_on,0,0,0,,7,,,43,127
71774,note_on,0,0,0,,7,,,31,127
71880,note_off,106,0,0,,2,,,86,127
71882,note_on,2,0,0,,7,,,79,127
71988,note_off,106,0,0,,7,,,79,127
71988,note_off,0,0,0,,7,,,31,127
71988,note_off,0,0,0,,7,,,43,127
71990,note_on,2,0,0,,10,,,81,127
71990,note_on,0,0,0,,2,,,50,127
71990,note_on,0,0,0,,2,,,38,127
72096,note_off,106,0,0,,10,,,81,127
72098,note_on,2,0,0,,2,,,74,127
72204,note_off,106,0,0,,2,,,74,127
72206,note_on,2,0,0,,1,,,73,127
72312,note_off,106,0,0,,1,,,73,127
72314,note_on,2,0,0,,2,,,74,127
72420,note_off,106,0,0,,2,,,74,127
72422,note_on,2,0,0,,6,,,78,127
72528,note_off,106,0,0,,6,,,78,127
72530,note_on,2,0,0,,2,,,74,127
72636,note_off,106,0,0,,2,,,74,127
72638,note_on,2,0,0,,7,,,79,127
72744,note_off,106,0,0,,7,,,79,127
72746,note_on,2,0,0,,2,,,74,127
72852,note_off,106,0,0,,2,,,74,127
72852,note_off,0,0,0,,2,,,38,127
72852,note_off,0,0,0,,2,,,50,127
72854,note_on,2,0,0,,10,,,81,127
72854,note_on,0,0,0,,2,,,50,127
72960,note_off,106,0,0,,10,,,81,127
72962,note_on,2,0,0,,2,,,74,127
73068,note_off,106,0,0,,2,,,74,127
73070,note_on,2,0,0,,12,,,83,127
73176,note_off,106,0,0,,12,,,83,127
73178,note_on,2,0,0,,2,,,74,127
73284,note_off,106,0,0,,2,,,74,127
73284,note_off,0,0,0,,2,,,50,127
73286,note_on,2,0,0,,0,,,84,127
73286,note_on,0,0,0,,2,,,38,127
73392,note_off,106,0,0,,0,,,84,127
73394,note_on,2,0,0,,2,,,74,127
73500,note_off,106,0,0,,2,,,74,127
73502,note_on,2,0,0,,12,,,83,127
73608,note_off,106,0,0,,12,,,83,127
73610,note_on,2,0,0,,2,,,74,127
73716,note_off,106,0,0,,2,,,74,127
73716,note_off,0,0,0,,2,,,38,127
73718,note_on,2,0,0,,10,,,81,127
73718,note_on,0,0,0,,2,,,62,127
73824,note_off,106,0,0,,10,,,81,127
73826,note_on,2,0,0,,2,,,74,127
73932,note_off,106,0,0,,2,,,74,127
73934,note_on,2,0,0,,1,,,73,127
74040,note_off,106,0,0,,1,,,73,127
74042,note_on,2,0,0,,2,,,74,127
74148,note_off,106,0,0,,2,,,74,127
74150,note_on,2,0,0,,6,,,78,127
74256,note_off,106,0,0,,6,,,78,127
74258,note_on,2,0,0,,2,,,74,127
74364,note_off,106,0,0,,2,,,74,127
74366,note_on,2,0,0,,7,,,79,127
74472,note_off,106,0,0,,7,,,79,127
74474,note_on,2,0,0,,2,,,74,127
74580,note_off,106,0,0,,2,,,74,127
74580,note_off,0,0,0,,2,,,62,127
74582,note_on,2,0,0,,10,,,81,127
74582,note_on,0,0,0,,2,,,50,127
74688,note_off,106,0,0,,10,,,81,127
74690,note_on,2,0,0,,2,,,74,127
74796,note_off,106,0,0,,2,,,74,127
74798,note_on,2,0,0,,12,,,83,127
74904,note_off,106,0,0,,12,,,83,127
74906,note_on,2,0,0,,2,,,74,127
75012,note_off,106,0,0,,2,,,74,127
75012,note_off,0,0,0,,2,,,50,127
75014,note_on,2,0,0,,0,,,84,127
75014,note_on,0,0,0,,2,,,38,127
75120,note_off,106,0,0,,0,,,84,127
75122,note_on,2,0,0,,2,,,74,127
75228,note_off,106,0,0,,2,,,74,127
75230,note_on,2,0,0,,12,,,83,127
75336,note_off,106,0,0,,12,,,83,127
75338,note_on,2,0,0,,2,,,74,127
75420,note_off,82,0,0,,2,,,38,127
75445,note_off,25,0,0,,2,,,74,127
75447,note_on,2,0,0,,10,,,81,127
75556,note_on,109,0,0,,2,,,62,127
75662,note_off,106,0,0,,2,,,62,127
75664,note_on,2,0,0,,1,,,61,127
75770,note_off,106,0,0,,1,,,61,127
75772,note_on,2,0,0,,2,,,62,127
75876,note_off,104,0,0,,10,,,81,127
75878,note_off,2,0,0,,2,,,62,127
75880,note_on,2,0,0,,6,,,66,127
75986,note_off,106,0,0,,6,,,66,127
75988,note_on,2,0,0,,2,,,62,127
76094,note_off,106,0,0,,2,,,62,127
76096,note_on,2,0,0,,7,,,67,127
76202,note_off,106,0,0,,7,,,67,127
76204,note_on,2,0,0,,2,,,62,127
76310,note_off,106,0,0,,2,,,62,127
76312,note_on,2,0,0,,10,,,69,127
76418,note_off,106,0,0,,10,,,69,127
76420,note_on,2,0,0,,2,,,62,127
76526,note_off,106,0,0,,2,,,62,127
76528,note_on,2,0,0,,2,,,86,127
76528,note_on,0,0,0,,12,,,71,127
76634,note_off,106,0,0,,12,,,71,127
76636,note_on,2,0,0,,2,,,62,127
76742,note_off,106,0,0,,2,,,62,127
76742,note_off,0,0,0,,2,,,86,127
76744,note_on,2,0,0,,6,,,78,127
76744,note_on,0,0,0,,0,,,72,127
76850,note_off,106,0,0,,0,,,72,127
76852,note_on,2,0,0,,2,,,62,127
76958,note_off,106,0,0,,2,,,62,127
76958,note_off,0,0,0,,6,,,78,127
76960,note_on,2,0,0,,7,,,79,127
76960,note_on,0,0,0,,12,,,71,127
77066,note_off,106,0,0,,12,,,71,127
77068,note_on,2,0,0,,2,,,62,127
77174,note_off,106,0,0,,2,,,62,127
77174,note_off,0,0,0,,7,,,79,127
77176,note_on,2,0,0,,10,,,81,127
77176,note_on,0,0,0,,10,,,69,127
77282,note_off,106,0,0,,10,,,69,127
77284,note_on,2,0,0,,2,,,62,127
77390,note_off,106,0,0,,2,,,62,127
77392,note_on,2,0,0,,1,,,61,127
77498,note_off,106,0,0,,1,,,61,127
77500,note_on,2,0,0,,2,,,62,127
77604,note_off,104,0,0,,10,,,81,127
77606,note_off,2,0,0,,2,,,62,127
77608,note_on,2,0,0,,6,,,66,127
77714,note_off,106,0,0,,6,,,66,127
77716,note_on,2,0,0,,2,,,62,127
77822,note_off,106,0,0,,2,,,62,127
77824,note_on,2,0,0,,7,,,67,127
77930,note_off,106,0,0,,7,,,67,127
77932,note_on,2,0,0,,2,,,62,127
78038,note_off,106,0,0,,2,,,62,127
78040,note_on,2,0,0,,10,,,69,127
78146,note_off,106,0,0,,10,,,69,127
78148,note_on,2,0,0,,2,,,62,127
78254,note_off,106,0,0,,2,,,62,127
78256,note_on,2,0,0,,2,,,86,127
78256,note_on,0,0,0,,12,,,71,127
78362,note_off,106,0,0,,12,,,71,127
78364,note_on,2,0,0,,2,,,62,127
78470,note_off,106,0,0,,2,,,62,127
78470,note_off,0,0,0,,2,,,86,127
78472,note_on,2,0,0,,6,,,78,127
78472,note_on,0,0,0,,0,,,72,127
78578,note_off,106,0,0,,0,,,72,127
78580,note_on,2,0,0,,2,,,62,127
78686,note_off,106,0,0,,2,,,62,127
78686,note_off,0,0,0,,6,,,78,127
78688,note_on,2,0,0,,7,,,79,127
78688,note_on,0,0,0,,12,,,71,127
78794,note_off,106,0,0,,12,,,71,127
78796,note_on,2,0,0,,2,,,62,127
78902,note_off,106,0,0,,2,,,62,127
78902,note_off,0,0,0,,7,,,79,127
78904,note_on,2,0,0,,10,,,81,127
78904,note_on,0,0,0,,10,,,69,127
79010,note_off,106,0,0,,10,,,69,127
79012,note_on,2,0,0,,0,,,72,127
79118,note_off,106,0,0,,0,,,72,127
79120,note_on,2,0,0,,6,,,66,127
79226,note_off,106,0,0,,6,,,66,127
79228,note_on,2,0,0,,10,,,69,127
79332,note_off,104,0,0,,10,,,81,127
79334,note_off,2,0,0,,10,,,69,127
79336,note_on,2,0,0,,0,,,60,127
79442,note_off,106,0,0,,0,,,60,127
79444,note_on,2,0,0,,4,,,64,127
79550,note_off,106,0,0,,4,,,64,127
79552,note_on,2,0,0,,10,,,57,127
79658,note_off,106,0,0,,10,,,57,127
79660,note_on,2,0,0,,0,,,60,127
79766,note_off,106,0,0,,0,,,60,127
79768,note_on,2,0,0,,6,,,54,127
79874,note_off,106,0,0,,6,,,54,127
79876,note_on,2,0,0,,10,,,57,127
79982,note_off,106,0,0,,10,,,57,127
79984,note_on,2,0,0,,0,,,48,127
80090,note_off,106,0,0,,0,,,48,127
80092,note_on,2,0,0,,4,,,52,127
80198,note_off,106,0,0,,4,,,52,127
80200,note_on,2,0,0,,10,,,45,127
80306,note_off,106,0,0,,10,,,45,127
80308,note_on,2,0,0,,0,,,48,127
80414,note_off,106,0,0,,0,,,48,127
80416,note_on,2,0,0,,6,,,42,127
80522,note_off,106,0,0,,6,,,42,127
80524,note_on,2,0,0,,10,,,45,127
80630,note_off,106,0,0,,10,,,45,127
80632,note_on,2,0,0,,2,,,38,127
80849,note_on,217,0,0,,10,,,81,127
81064,note_off,215,0,0,,10,,,81,127
81066,note_on,2,0,0,,2,,,74,127
81281,note_off,215,0,0,,2,,,74,127
81281,note_off,0,0,0,,2,,,38,127
81283,note_on,2,0,0,,0,,,84,127
81283,note_on,0,0,0,,6,,,66,127
81498,note_off,215,0,0,,6,,,66,127
81498,note_off,0,0,0,,0,,,84,127
81500,note_on,2,0,0,,12,,,83,127
81500,note_on,0,0,0,,7,,,67,127
81715,note_off,215,0,0,,7,,,67,127
81715,note_off,0,0,0,,12,,,83,127
81717,note_on,2,0,0,,10,,,81,127
81717,note_on,0,0,0,,12,,,59,127
81823,note_off,106,0,0,,10,,,81,127
81825,note_on,2,0,0,,7,,,79,127
81931,note_off,106,0,0,,7,,,79,127
81931,note_off,0,0,0,,12,,,59,127
81933,note_on,2,0,0,,10,,,81,127
81933,note_on,0,0,0,,0,,,60,127
82148,note_off,215,0,0,,0,,,60,127
82148,note_off,0,0,0,,10,,,81,127
82150,note_on,2,0,0,,7,,,79,127
82150,note_on,0,0,0,,2,,,62,127
82256,note_off,106,0,0,,7,,,79,127
82258,note_on,2,0,0,,6,,,78,127
82364,note_off,106,0,0,,6,,,78,127
82364,note_off,0,0,0,,2,,,62,127
82366,note_on,2,0,0,,7,,,79,127
82366,note_on,0,0,0,,7,,,55,127
82581,note_off,215,0,0,,7,,,55,127
82581,note_off,0,0,0,,7,,,79,127
82583,note_on,2,0,0,,12,,,71,127
82583,note_on,0,0,0,,7,,,67,127
82798,note_off,215,0,0,,7,,,67,127
82798,note_off,0,0,0,,12,,,71,127
82800,note_on,2,0,0,,0,,,72,127
82800,note_on,0,0,0,,10,,,69,127
83015,note_off,215,0,0,,10,,,69,127
83015,note_off,0,0,0,,0,,,72,127
83017,note_on,2,0,0,,2,,,74,127
83017,note_on,0,0,0,,12,,,71,127
83232,note_off,215,0,0,,12,,,71,127
83232,note_off,0,0,0,,2,,,74,127
83234,note_on,2,0,0,,6,,,78,127
83449,note_off,215,0,0,,6,,,78,127
83451,note_on,2,0,0,,12,,,71,127
83451,note_on,0,0,0,,7,,,79,127
83451,note_on,0,0,0,,7,,,67,127
83666,note_off,215,0,0,,7,,,67,127
83666,note_off,0,0,0,,12,,,71,127
83668,note_on,2,0,0,,0,,,72,127
83668,note_on,0,0,0,,10,,,69,127
83883,note_off,215,0,0,,10,,,69,127
83883,note_off,0,0,0,,0,,,72,127
83885,note_on,2,0,0,,2,,,74,127
83885,note_on,0,0,0,,12,,,71,127
84100,note_off,215,0,0,,12,,,71,127
84100,note_off,0,0,0,,2,,,74,127
84101,note_off,1,0,0,,7,,,79,127
84102,note_on,1,0,0,,8,,,80,127
84317,note_off,215,0,0,,8,,,80,127
84319,note_on,2,0,0,,1,,,73,127
84319,note_on,0,0,0,,10,,,81,127
84319,note_on,0,0,0,,10,,,69,127
84534,note_off,215,0,0,,10,,,69,127
84534,note_off,0,0,0,,1,,,73,127
84536,note_on,2,0,0,,2,,,74,127
84536,note_on,0,0,0,,12,,,71,127
84751,note_off,215,0,0,,12,,,71,127
84751,note_off,0,0,0,,2,,,74,127
84753,note_on,2,0,0,,4,,,76,127
84753,note_on,0,0,0,,1,,,73,127
84968,note_off,215,0,0,,1,,,73,127
84968,note_off,0,0,0,,4,,,76,127
84969,note_off,1,0,0,,10,,,81,127
84970,note_on,1,0,0,,1,,,85,127
85185,note_off,215,0,0,,1,,,85,127
85187,note_on,2,0,0,,6,,,78,127
85187,note_on,0,0,0,,2,,,86,127
85187,note_on,0,0,0,,2,,,74,127
85402,note_off,215,0,0,,2,,,74,127
85402,note_off,0,0,0,,6,,,78,127
85404,note_on,2,0,0,,7,,,79,127
85404,note_on,0,0,0,,4,,,76,127
85619,note_off,215,0,0,,4,,,76,127
85619,note_off,0,0,0,,7,,,79,127
85621,note_on,2,0,0,,10,,,81,127
85621,note_on,0,0,0,,6,,,78,127
85836,note_off,215,0,0,,6,,,78,127
85836,note_off,0,0,0,,10,,,81,127
85837,note_off,1,0,0,,2,,,86,127
85838,note_on,1,0,0,,0,,,84,127
85838,note_on,0,0,0,,7,,,79,127
85890,note_off,52,0,0,,0,,,84,127
85892,note_on,2,0,0,,12,,,83,127
85944,note_off,52,0,0,,12,,,83,127
85946,note_on,2,0,0,,0,,,84,127
85998,note_off,52,0,0,,0,,,84,127
86000,note_on,2,0,0,,12,,,83,127
86052,note_off,52,0,0,,12,,,83,127
86054,note_on,2,0,0,,10,,,81,127
86160,note_off,106,0,0,,10,,,81,127
86162,note_on,2,0,0,,12,,,83,127
86268,note_off,106,0,0,,12,,,83,127
86268,note_off,0,0,0,,7,,,79,127
86270,note_on,2,0,0,,0,,,84,127
86270,note_on,0,0,0,,0,,,72,127
86376,note_off,106,0,0,,0,,,84,127
86378,note_on,2,0,0,,12,,,83,127
86484,note_off,106,0,0,,12,,,83,127
86486,note_on,2,0,0,,10,,,81,127
86592,note_off,106,0,0,,10,,,81,127
86594,note_on,2,0,0,,7,,,79,127
86700,note_off,106,0,0,,7,,,79,127
86700,note_off,0,0,0,,0,,,72,127
86702,note_on,2,0,0,,6,,,78,127
86702,note_on,0,0,0,,2,,,74,127
86808,note_off,106,0,0,,2,,,74,127
86808,note_off,0,0,0,,6,,,78,127
86810,note_on,2,0,0,,2,,,74,127
86916,note_off,106,0,0,,2,,,74,127
86918,note_on,2,0,0,,1,,,73,127
87024,note_off,106,0,0,,1,,,73,127
87026,note_on,2,0,0,,2,,,74,127
87132,note_off,106,0,0,,2,,,74,127
87134,note_on,2,0,0,,6,,,78,127
87240,note_off,106,0,0,,6,,,78,127
87242,note_on,2,0,0,,2,,,74,127
87348,note_off,106,0,0,,2,,,74,127
87350,note_on,2,0,0,,7,,,79,127
87456,note_off,106,0,0,,7,,,79,127
87458,note_on,2,0,0,,2,,,74,127
87564,note_off,106,0,0,,2,,,74,127
87566,note_on,2,0,0,,10,,,81,127
87566,note_on,0,0,0,,2,,,50,127
87672,note_off,106,0,0,,10,,,81,127
87674,note_on,2,0,0,,2,,,74,127
87780,note_off,106,0,0,,2,,,74,127
87782,note_on,2,0,0,,12,,,83,127
87888,note_off,106,0,0,,12,,,83,127
87890,note_on,2,0,0,,2,,,74,127
87996,note_off,106,0,0,,2,,,74,127
87996,note_off,0,0,0,,2,,,50,127
87998,note_on,2,0,0,,0,,,84,127
87998,note_on,0,0,0,,2,,,38,127
88104,note_off,106,0,0,,0,,,84,127
88106,note_on,2,0,0,,2,,,74,127
88212,note_off,106,0,0,,2,,,74,127
88214,note_on,2,0,0,,12,,,83,127
88320,note_off,106,0,0,,12,,,83,127
88322,note_on,2,0,0,,2,,,74,127
88404,note_off,82,0,0,,2,,,38,127
88429,note_off,25,0,0,,2,,,74,127
88431,note_on,2,0,0,,10,,,81,127
88540,note_on,109,0,0,,2,,,62,127
88646,note_off,106,0,0,,2,,,62,127
88648,note_on,2,0,0,,1,,,61,127
88754,note_off,106,0,0,,1,,,61,127
88756,note_on,2,0,0,,2,,,62,127
88860,note_off,104,0,0,,10,,,81,127
88862,note_off,2,0,0,,2,,,62,127
88864,note_on,2,0,0,,6,,,66,127
88970,note_off,106,0,0,,6,,,66,127
88972,note_on,2,0,0,,2,,,62,127
89078,note_off,106,0,0,,2,,,62,127
89080,note_on,2,0,0,,7,,,67,127
89186,note_off,106,0,0,,7,,,67,127
89188,note_on,2,0,0,,2,,,62,127
89294,note_off,106,0,0,,2,,,62,127
89296,note_on,2,0,0,,10,,,69,127
89402,note_off,106,0,0,,10,,,69,127
89404,note_on,2,0,0,,2,,,62,127
89510,note_off,106,0,0,,2,,,62,127
89512,note_on,2,0,0,,2,,,86,127
89512,note_on,0,0,0,,12,,,71,127
89618,note_off,106,0,0,,12,,,71,127
89620,note_on,2,0,0,,2,,,62,127
89726,note_off,106,0,0,,2,,,62,127
89726,note_off,0,0,0,,2,,,86,127
89728,note_on,2,0,0,,6,,,78,127
89728,note_on,0,0,0,,0,,,72,127
89834,note_off,106,0,0,,0,,,72,127
89836,note_on,2,0,0,,2,,,62,127
89942,note_off,106,0,0,,2,,,62,127
89942,note_off,0,0,0,,6,,,78,127
89944,note_on,2,0,0,,7,,,79,127
89944,note_on,0,0,0,,12,,,71,127
90050,note_off,106,0,0,,12,,,71,127
90052,note_on,2,0,0,,2,,,62,127
90158,note_off,106,0,0,,2,,,62,127
90158,note_off,0,0,0,,7,,,79,127
90160,note_on,2,0,0,,10,,,81,127
90160,note_on,0,0,0,,10,,,69,127
90266,note_off,106,0,0,,10,,,69,127
90268,note_on,2,0,0,,0,,,72,127
90374,note_off,106,0,0,,0,,,72,127
90376,note_on,2,0,0,,6,,,66,127
90482,note_off,106,0,0,,6,,,66,127
90484,note_on,2,0,0,,10,,,69,127
90588,note_off,104,0,0,,10,,,81,127
90590,note_off,2,0,0,,10,,,69,127
90592,note_on,2,0,0,,0,,,60,127
90698,note_off,106,0,0,,0,,,60,127
90700,note_on,2,0,0,,4,,,64,127
90806,note_off,106,0,0,,4,,,64,127
90808,note_on,2,0,0,,10,,,57,127
90914,note_off,106,0,0,,10,,,57,127
90916,note_on,2,0,0,,0,,,60,127
91022,note_off,106,0,0,,0,,,60,127
91024,note_on,2,0,0,,6,,,54,127
91130,note_off,106,0,0,,6,,,54,127
91132,note_on,2,0,0,,10,,,57,127
91238,note_off,106,0,0,,10,,,57,127
91240,note_on,2,0,0,,0,,,48,127
91346,note_off,106,0,0,,0,,,48,127
91348,note_on,2,0,0,,4,,,52,127
91454,note_off,106,0,0,,4,,,52,127
91456,note_on,2,0,0,,10,,,45,127
91562,note_off,106,0,0,,10,,,45,127
91564,note_on,2,0,0,,0,,,48,127
91670,note_off,106,0,0,,0,,,48,127
91672,note_on,2,0,0,,6,,,42,127
91778,note_off,106,0,0,,6,,,42,127
91780,note_on,2,0,0,,10,,,45,127
91886,note_off,106,0,0,,10,,,45,127
91888,note_on,2,0,0,,2,,,38,127
92105,note_on,217,0,0,,10,,,81,127
92320,note_off,215,0,0,,10,,,81,127
92322,note_on,2,0,0,,2,,,74,127
92537,note_off,215,0,0,,2,,,74,127
92537,note_off,0,0,0,,2,,,38,127
92539,note_on,2,0,0,,0,,,84,127
92539,note_on,0,0,0,,6,,,66,127
92754,note_off,215,0,0,,6,,,66,127
92754,note_off,0,0,0,,0,,,84,127
92756,note_on,2,0,0,,12,,,83,127
92756,note_on,0,0,0,,7,,,67,127
92971,note_off,215,0,0,,7,,,67,127
92971,note_off,0,0,0,,12,,,83,127
92973,note_on,2,0,0,,10,,,81,127
92973,note_on,0,0,0,,12,,,59,127
93079,note_off,106,0,0,,10,,,81,127
93081,note_on,2,0,0,,7,,,79,127
93187,note_off,106,0,0,,7,,,79,127
93187,note_off,0,0,0,,12,,,59,127
93189,note_on,2,0,0,,10,,,81,127
93189,note_on,0,0,0,,0,,,60,127
93404,note_off,215,0,0,,0,,,60,127
93404,note_off,0,0,0,,10,,,81,127
93406,note_on,2,0,0,,7,,,79,127
93406,note_on,0,0,0,,2,,,62,127
93512,note_off,106,0,0,,7,,,79,127
93514,note_on,2,0,0,,6,,,78,127
93620,note_off,106,0,0,,6,,,78,127
93620,note_off,0,0,0,,2,,,62,127
93622,note_on,2,0,0,,7,,,79,127
93622,note_on,0,0,0,,7,,,55,127
93837,note_off,215,0,0,,7,,,79,127
93853,note_on,16,0,0,,7,,,79,127
93959,note_off,106,0,0,,7,,,79,127
93961,note_on,2,0,0,,2,,,74,127
94013,note_off,52,0,0,,2,,,74,127
94015,note_on,2,0,0,,12,,,71,127
94067,note_off,52,0,0,,12,,,71,127
94069,note_on,2,0,0,,7,,,67,127
94271,note_off,202,0,0,,7,,,55,127
94285,note_off,14,0,0,,7,,,67,127
94287,note_on,2,0,0,,12,,,59,127
94287,note_on,0,0,0,,2,,,74,127
94287,note_on,0,0,0,,2,,,62,127
94502,note_off,215,0,0,,2,,,62,127
94502,note_off,0,0,0,,12,,,59,127
94504,note_on,2,0,0,,0,,,60,127
94504,note_on,0,0,0,,4,,,64,127
94717,note_off,213,0,0,,2,,,74,127
94719,note_off,2,0,0,,4,,,64,127
94719,note_off,0,0,0,,0,,,60,127
94721,note_on,2,0,0,,0,,,48,127
94721,note_on,0,0,0,,0,,,72,127
94721,note_on,0,0,0,,7,,,67,127
94936,note_off,215,0,0,,0,,,72,127
94936,note_off,0,0,0,,0,,,48,127
94938,note_on,2,0,0,,2,,,50,127
94938,note_on,0,0,0,,12,,,71,127
95151,note_off,213,0,0,,7,,,67,127
95153,note_off,2,0,0,,12,,,71,127
95153,note_off,0,0,0,,2,,,50,127
95155,note_on,2,0,0,,2,,,38,127
95155,note_on,0,0,0,,6,,,66,127
95155,note_on,0,0,0,,10,,,69,127
95370,note_off,215,0,0,,10,,,69,127
95370,note_off,0,0,0,,6,,,66,127
95370,note_off,0,0,0,,2,,,38,127
95372,note_on,2,0,0,,7,,,43,127
95372,note_on,0,0,0,,12,,,71,127
95372,note_on,0,0,0,,7,,,67,127
95587,note_off,215,0,0,,7,,,67,127
95587,note_off,0,0,0,,12,,,71,127
95589,note_on,2,0,0,,7,,,79,127
95695,note_off,106,0,0,,7,,,79,127
95697,note_on,2,0,0,,2,,,74,127
95749,note_off,52,0,0,,2,,,74,127
95751,note_on,2,0,0,,12,,,71,127
95803,note_off,52,0,0,,12,,,71,127
95805,note_on,2,0,0,,7,,,67,127
96020,note_off,215,0,0,,7,,,67,127
96020,note_off,0,0,0,,7,,,43,127
96022,note_on,2,0,0,,12,,,59,127
96022,note_on,0,0,0,,2,,,62,127
96022,note_on,0,0,0,,2,,,74,127
96237,note_off,215,0,0,,2,,,62,127
96237,note_off,0,0,0,,12,,,59,127
96239,note_on,2,0,0,,0,,,60,127
96239,note_on,0,0,0,,4,,,64,127
96452,note_off,213,0,0,,2,,,74,127
96454,note_off,2,0,0,,4,,,64,127
96454,note_off,0,0,0,,0,,,60,127
96456,note_on,2,0,0,,0,,,48,127
96456,note_on,0,0,0,,0,,,72,127
96456,note_on,0,0,0,,7,,,67,127
96671,note_off,215,0,0,,0,,,72,127
96671,note_off,0,0,0,,0,,,48,127
96673,note_on,2,0,0,,2,,,50,127
96673,note_on,0,0,0,,12,,,71,127
96886,note_off,213,0,0,,7,,,67,127
96888,note_off,2,0,0,,12,,,71,127
96888,note_off,0,0,0,,2,,,50,127
96890,note_on,2,0,0,,2,,,38,127
96890,note_on,0,0,0,,6,,,66,127
96890,note_on,0,0,0,,10,,,69,127
97105,note_off,215,0,0,,10,,,69,127
97105,note_off,0,0,0,,6,,,66,127
97105,note_off,0,0,0,,2,,,38,127
97107,note_on,2,0,0,,7,,,43,127
97107,note_on,0,0,0,,7,,,67,127
97107,note_on,0,0,0,,12,,,71,127
97322,note_off,215,0,0,,7,,,43,127
97324,note_on,2,0,0,,7,,,55,127
97430,note_off,106,0,0,,7,,,55,127
97432,note_on,2,0,0,,2,,,50,127
97484,note_off,52,0,0,,2,,,50,127
97486,note_on,2,0,0,,12,,,47,127
97538,note_off,52,0,0,,12,,,47,127
97540,note_on,2,0,0,,7,,,43,127
97755,note_off,215,0,0,,7,,,43,127
97755,note_off,0,0,0,,12,,,71,127
97755,note_off,0,0,0,,7,,,67,127
97757,note_on,2,0,0,,7,,,31,127
97757,note_on,0,0,0,,12,,,71,127
97757,note_on,0,0,0,,7,,,67,127
97972,note_off,215,0,0,,7,,,31,127
97974,note_on,2,0,0,,0,,,36,127
98189,note_off,215,0,0,,7,,,67,127
98189,note_off,0,0,0,,12,,,71,127
98191,note_on,2,0,0,,0,,,60,127
98191,note_on,0,0,0,,10,,,69,127
98406,note_off,215,0,0,,10,,,69,127
98406,note_off,0,0,0,,0,,,60,127
98406,note_off,0,0,0,,0,,,36,127
98408,note_on,2,0,0,,2,,,38,127
98408,note_on,0,0,0,,12,,,59,127
98408,note_on,0,0,0,,7,,,67,127
98623,note_off,215,0,0,,7,,,67,127
98623,note_off,0,0,0,,12,,,59,127
98625,note_on,2,0,0,,10,,,57,127
98625,note_on,0,0,0,,6,,,66,127
98840,note_off,215,0,0,,6,,,66,127
98840,note_off,0,0,0,,10,,,57,127
98840,note_off,0,0,0,,2,,,38,127
98842,note_on,2,0,0,,7,,,43,127
98842,note_on,0,0,0,,12,,,59,127
98842,note_on,0,0,0,,7,,,67,127
99057,note_off,215,0,0,,7,,,43,127
99059,note_on,2,0,0,,7,,,55,127
99165,note_off,106,0,0,,7,,,55,127
99167,note_on,2,0,0,,2,,,50,127
99219,note_off,52,0,0,,2,,,50,127
99221,note_on,2,0,0,,12,,,47,127
99273,note_off,52,0,0,,12,,,47,127
99275,note_on,2,0,0,,7,,,43,127
99490,note_off,215,0,0,,7,,,43,127
99490,note_off,0,0,0,,7,,,67,127
99490,note_off,0,0,0,,12,,,59,127
99492,note_on,2,0,0,,7,,,31,127
99492,note_on,0,0,0,,2,,,62,127
99492,note_on,0,0,0,,12,,,59,127
99707,note_off,215,0,0,,7,,,31,127
99709,note_on,2,0,0,,0,,,36,127
99924,note_off,215,0,0,,12,,,59,127
99924,note_off,0,0,0,,2,,,62,127
99926,note_on,2,0,0,,10,,,57,127
99926,note_on,0,0,0,,0,,,60,127
100141,note_off,215,0,0,,0,,,60,127
100141,note_off,0,0,0,,10,,,57,127
100141,note_off,0,0,0,,0,,,36,127
100143,note_on,2,0,0,,2,,,38,127
100143,note_on,0,0,0,,7,,,55,127
100143,note_on,0,0,0,,12,,,59,127
100358,note_off,215,0,0,,12,,,59,127
100358,note_off,0,0,0,,7,,,55,127
100360,note_on,2,0,0,,10,,,57,127
100360,note_on,0,0,0,,6,,,54,127
100575,note_off,215,0,0,,6,,,54,127
100575,note_off,0,0,0,,10,,,57,127
100575,note_off,0,0,0,,2,,,38,127
100589,note_on,14,0,0,,7,,,31,127
100589,note_on,0,0,0,,7,,,55,127
102430,note_off,1841,0,0,,7,,,55,127
102430,note_off,0,0,0,,7,,,31,127
102912,end_of_track,482,1,0,,,,,,
