tick,type,time,meta,track,program,channel,pitch,tempo,note,velocity
0,copyright,0,1,0,,,,,,
0,program_change,0,0,0,6,0,,,,
0,pitchwheel,0,0,0,,0,0,,,
0,program_change,0,0,0,6,1,,,,
0,pitchwheel,0,0,0,,1,-590,,,
0,program_change,0,0,0,6,2,,,,
0,pitchwheel,0,0,0,,2,-272,,,
0,program_change,0,0,0,6,3,,,,
0,pitchwheel,0,0,0,,3,-353,,,
0,program_change,0,0,0,6,4,,,,
0,pitchwheel,0,0,0,,4,-560,,,
0,program_change,0,0,0,6,5,,,,
0,pitchwheel,0,0,0,,5,-80,,,
0,program_change,0,0,0,6,6,,,,
0,pitchwheel,0,0,0,,6,-625,,,
0,program_change,0,0,0,6,7,,,,
0,pitchwheel,0,0,0,,7,-130,,,
0,program_change,0,0,0,6,8,,,,
0,pitchwheel,0,0,0,,8,-512,,,
0,program_change,0,0,0,6,10,,,,
0,pitchwheel,0,0,0,,10,-464,,,
0,program_change,0,0,0,6,11,,,,
0,pitchwheel,0,0,0,,11,-208,,,
0,program_change,0,0,0,6,12,,,,
0,pitchwheel,0,0,0,,12,-553,,,
0,set_tempo,0,1,0,,,,500000,,
49,note_on,49,0,0,,7,,,55,127
49,note_on,0,0,0,,7,,,79,127
146,note_off,97,0,0,,7,,,79,127
148,note_on,2,0,0,,2,,,74,127
245,note_off,97,0,0,,2,,,74,127
247,note_on,2,0,0,,12,,,83,127
344,note_off,97,0,0,,12,,,83,127
346,note_on,2,0,0,,10,,,81,127
640,note_off,294,0,0,,10,,,81,127
642,note_on,2,0,0,,7,,,79,127
936,note_off,294,0,0,,7,,,79,127
938,note_on,2,0,0,,7,,,43,127
938,note_on,0,0,0,,12,,,83,127
1035,note_off,97,0,0,,12,,,83,127
1037,note_on,2,0,0,,2,,,74,127
1134,note_off,97,0,0,,2,,,74,127
1136,note_on,2,0,0,,2,,,86,127
1233,note_off,97,0,0,,2,,,86,127
1235,note_on,2,0,0,,0,,,84,127
1529,note_off,294,0,0,,0,,,84,127
1531,note_on,2,0,0,,12,,,83,127
1823,note_off,292,0,0,,7,,,55,127
1825,note_off,2,0,0,,12,,,83,127
1825,note_off,0,0,0,,7,,,43,127
1827,note_on,2,0,0,,0,,,60,127
1827,note_on,0,0,0,,10,,,81,127
1924,note_off,97,0,0,,10,,,81,127
1926,note_on,2,0,0,,0,,,72,127
2023,note_off,97,0,0,,0,,,72,127
2025,note_on,2,0,0,,10,,,81,127
2122,note_off,97,0,0,,10,,,81,127
2122,note_off,0,0,0,,0,,,60,127
2124,note_on,2,0,0,,2,,,62,127
2124,note_on,0,0,0,,7,,,79,127
2221,note_off,97,0,0,,7,,,79,127
2223,note_on,2,0,0,,12,,,71,127
2320,note_off,97,0,0,,12,,,71,127
2322,note_on,2,0,0,,7,,,79,127
2419,note_off,97,0,0,,7,,,79,127
2419,note_off,0,0,0,,2,,,62,127
2421,note_on,2,0,0,,2,,,50,127
2421,note_on,0,0,0,,6,,,78,127
2518,note_off,97,0,0,,6,,,78,127
2520,note_on,2,0,0,,10,,,69,127
2617,note_off,97,0,0,,10,,,69,127
2619,note_on,2,0,0,,6,,,78,127
2716,note_off,97,0,0,,6,,,78,127
2716,note_off,0,0,0,,2,,,50,127
2718,note_on,2,0,0,,7,,,43,127
2718,note_on,0,0,0,,7,,,79,127
2815,note_off,97,0,0,,7,,,79,127
2817,note_on,2,0,0,,2,,,74,127
2914,note_off,97,0,0,,2,,,74,127
2916,note_on,2,0,0,,12,,,71,127
3013,note_off,97,0,0,,12,,,71,127
3015,note_on,2,0,0,,7,,,67,127
3112,note_off,97,0,0,,7,,,67,127
3114,note_on,2,0,0,,12,,,71,127
3211,note_off,97,0,0,,12,,,71,127
3213,note_on,2,0,0,,2,,,74,127
3310,note_off,97,0,0,,2,,,74,127
3312,note_on,2,0,0,,7,,,67,127
3460,note_off,148,0,0,,7,,,43,127
3606,note_off,146,0,0,,7,,,67,127
3608,note_on,2,0,0,,7,,,55,127
3608,note_on,0,0,0,,7,,,79,127
3705,note_off,97,0,0,,7,,,79,127
3707,note_on,2,0,0,,2,,,74,127
3804,note_off,97,0,0,,2,,,74,127
3806,note_on,2,0,0,,12,,,83,127
3903,note_off,97,0,0,,12,,,83,127
3905,note_on,2,0,0,,10,,,81,127
4199,note_off,294,0,0,,10,,,81,127
4201,note_on,2,0,0,,7,,,79,127
4495,note_off,294,0,0,,7,,,79,127
4497,note_on,2,0,0,,7,,,43,127
4497,note_on,0,0,0,,12,,,83,127
4594,note_off,97,0,0,,12,,,83,127
4596,note_on,2,0,0,,2,,,74,127
4693,note_off,97,0,0,,2,,,74,127
4695,note_on,2,0,0,,2,,,86,127
4792,note_off,97,0,0,,2,,,86,127
4794,note_on,2,0,0,,0,,,84,127
5088,note_off,294,0,0,,0,,,84,127
5090,note_on,2,0,0,,12,,,83,127
5382,note_off,292,0,0,,7,,,55,127
5384,note_off,2,0,0,,12,,,83,127
5384,note_off,0,0,0,,7,,,43,127
5386,note_on,2,0,0,,0,,,60,127
5386,note_on,0,0,0,,10,,,81,127
5483,note_off,97,0,0,,10,,,81,127
5485,note_on,2,0,0,,0,,,72,127
5582,note_off,97,0,0,,0,,,72,127
5584,note_on,2,0,0,,10,,,81,127
5681,note_off,97,0,0,,10,,,81,127
5681,note_off,0,0,0,,0,,,60,127
5683,note_on,2,0,0,,2,,,62,127
5683,note_on,0,0,0,,7,,,79,127
5780,note_off,97,0,0,,7,,,79,127
5782,note_on,2,0,0,,12,,,71,127
5879,note_off,97,0,0,,12,,,71,127
5881,note_on,2,0,0,,7,,,79,127
5978,note_off,97,0,0,,7,,,79,127
5978,note_off,0,0,0,,2,,,62,127
5980,note_on,2,0,0,,2,,,50,127
5980,note_on,0,0,0,,6,,,78,127
6077,note_off,97,0,0,,6,,,78,127
6079,note_on,2,0,0,,10,,,69,127
6176,note_off,97,0,0,,10,,,69,127
6178,note_on,2,0,0,,6,,,78,127
6275,note_off,97,0,0,,6,,,78,127
6275,note_off,0,0,0,,2,,,50,127
6277,note_on,2,0,0,,7,,,43,127
6277,note_on,0,0,0,,7,,,79,127
6374,note_off,97,0,0,,7,,,79,127
6376,note_on,2,0,0,,2,,,74,127
6473,note_off,97,0,0,,2,,,74,127
6475,note_on,2,0,0,,12,,,71,127
6572,note_off,97,0,0,,12,,,71,127
6574,note_on,2,0,0,,7,,,67,127
6671,note_off,97,0,0,,7,,,67,127
6673,note_on,2,0,0,,12,,,71,127
6770,note_off,97,0,0,,12,,,71,127
6772,note_on,2,0,0,,2,,,74,127
6869,note_off,97,0,0,,2,,,74,127
6871,note_on,2,0,0,,7,,,67,127
7111,note_off,240,0,0,,7,,,43,127
7165,note_off,54,0,0,,7,,,67,127
7167,note_on,2,0,0,,7,,,55,127
7167,note_on,0,0,0,,12,,,71,127
7264,note_off,97,0,0,,12,,,71,127
7266,note_on,2,0,0,,7,,,67,127
7363,note_off,97,0,0,,7,,,67,127
7365,note_on,2,0,0,,1,,,73,127
7462,note_off,97,0,0,,1,,,73,127
7464,note_on,2,0,0,,2,,,74,127
7561,note_off,97,0,0,,2,,,74,127
7563,note_on,2,0,0,,7,,,67,127
7660,note_off,97,0,0,,7,,,67,127
7662,note_on,2,0,0,,4,,,76,127
7759,note_off,97,0,0,,4,,,76,127
7761,note_on,2,0,0,,6,,,78,127
7858,note_off,97,0,0,,6,,,78,127
7860,note_on,2,0,0,,7,,,67,127
7957,note_off,97,0,0,,7,,,67,127
7959,note_on,2,0,0,,7,,,79,127
8056,note_off,97,0,0,,7,,,79,127
8056,note_off,0,0,0,,7,,,55,127
8058,note_on,2,0,0,,6,,,54,127
8058,note_on,0,0,0,,10,,,81,127
8155,note_off,97,0,0,,10,,,81,127
8157,note_on,2,0,0,,10,,,69,127
8254,note_off,97,0,0,,10,,,69,127
8256,note_on,2,0,0,,12,,,71,127
8353,note_off,97,0,0,,12,,,71,127
8355,note_on,2,0,0,,1,,,73,127
8452,note_off,97,0,0,,1,,,73,127
8454,note_on,2,0,0,,10,,,69,127
8551,note_off,97,0,0,,10,,,69,127
8553,note_on,2,0,0,,2,,,74,127
8650,note_off,97,0,0,,2,,,74,127
8652,note_on,2,0,0,,4,,,76,127
8749,note_off,97,0,0,,4,,,76,127
8751,note_on,2,0,0,,10,,,69,127
8848,note_off,97,0,0,,10,,,69,127
8850,note_on,2,0,0,,6,,,78,127
8947,note_off,97,0,0,,6,,,78,127
8947,note_off,0,0,0,,6,,,54,127
8949,note_on,2,0,0,,7,,,55,127
8949,note_on,0,0,0,,7,,,79,127
8949,note_on,0,0,0,,10,,,81,127
9046,note_off,97,0,0,,10,,,81,127
9046,note_off,0,0,0,,7,,,79,127
9048,note_on,2,0,0,,6,,,78,127
9145,note_off,97,0,0,,6,,,78,127
9147,note_on,2,0,0,,4,,,76,127
9244,note_off,97,0,0,,4,,,76,127
9244,note_off,0,0,0,,7,,,55,127
9246,note_on,2,0,0,,10,,,57,127
9246,note_on,0,0,0,,2,,,74,127
9540,note_off,294,0,0,,2,,,74,127
9540,note_off,0,0,0,,10,,,57,127
9542,note_on,2,0,0,,10,,,45,127
9542,note_on,0,0,0,,1,,,73,127
9836,note_off,294,0,0,,1,,,73,127
9836,note_off,0,0,0,,10,,,45,127
9838,note_on,2,0,0,,2,,,38,127
9838,note_on,0,0,0,,1,,,73,127
10427,note_off,589,0,0,,1,,,73,127
10429,note_on,2,0,0,,2,,,74,127
10638,note_off,209,0,0,,2,,,38,127
10723,note_off,85,0,0,,2,,,74,127
10725,note_on,2,0,0,,7,,,55,127
10725,note_on,0,0,0,,12,,,71,127
10822,note_off,97,0,0,,12,,,71,127
10824,note_on,2,0,0,,7,,,67,127
10921,note_off,97,0,0,,7,,,67,127
10923,note_on,2,0,0,,1,,,73,127
11020,note_off,97,0,0,,1,,,73,127
11022,note_on,2,0,0,,2,,,74,127
11119,note_off,97,0,0,,2,,,74,127
11121,note_on,2,0,0,,7,,,67,127
11218,note_off,97,0,0,,7,,,67,127
11220,note_on,2,0,0,,4,,,76,127
11317,note_off,97,0,0,,4,,,76,127
11319,note_on,2,0,0,,6,,,78,127
11416,note_off,97,0,0,,6,,,78,127
11418,note_on,2,0,0,,7,,,67,127
11515,note_off,97,0,0,,7,,,67,127
11517,note_on,2,0,0,,7,,,79,127
11614,note_off,97,0,0,,7,,,79,127
11614,note_off,0,0,0,,7,,,55,127
11616,note_on,2,0,0,,6,,,54,127
11616,note_on,0,0,0,,10,,,81,127
11713,note_off,97,0,0,,10,,,81,127
11715,note_on,2,0,0,,10,,,69,127
11812,note_off,97,0,0,,10,,,69,127
11814,note_on,2,0,0,,12,,,71,127
11911,note_off,97,0,0,,12,,,71,127
11913,note_on,2,0,0,,1,,,73,127
12010,note_off,97,0,0,,1,,,73,127
12012,note_on,2,0,0,,10,,,69,127
12109,note_off,97,0,0,,10,,,69,127
12111,note_on,2,0,0,,2,,,74,127
12208,note_off,97,0,0,,2,,,74,127
12210,note_on,2,0,0,,4,,,76,127
12307,note_off,97,0,0,,4,,,76,127
12309,note_on,2,0,0,,10,,,69,127
12406,note_off,97,0,0,,10,,,69,127
12408,note_on,2,0,0,,6,,,78,127
12505,note_off,97,0,0,,6,,,78,127
12505,note_off,0,0,0,,6,,,54,127
12507,note_on,2,0,0,,7,,,55,127
12507,note_on,0,0,0,,10,,,81,127
12507,note_on,0,0,0,,7,,,79,127
12604,note_off,97,0,0,,7,,,79,127
12604,note_off,0,0,0,,10,,,81,127
12606,note_on,2,0,0,,6,,,78,127
12703,note_off,97,0,0,,6,,,78,127
12705,note_on,2,0,0,,4,,,76,127
12802,note_off,97,0,0,,4,,,76,127
12802,note_off,0,0,0,,7,,,55,127
12804,note_on,2,0,0,,10,,,57,127
12804,note_on,0,0,0,,2,,,74,127
13098,note_off,294,0,0,,2,,,74,127
13098,note_off,0,0,0,,10,,,57,127
13100,note_on,2,0,0,,10,,,45,127
13100,note_on,0,0,0,,1,,,73,127
13394,note_off,294,0,0,,1,,,73,127
13394,note_off,0,0,0,,10,,,45,127
13396,note_on,2,0,0,,2,,,38,127
13396,note_on,0,0,0,,1,,,73,127
13985,note_off,589,0,0,,1,,,73,127
13987,note_on,2,0,0,,2,,,74,127
14209,note_off,222,0,0,,2,,,74,127
14281,note_off,72,0,0,,2,,,38,127
14283,note_on,2,0,0,,2,,,74,127
14380,note_off,97,0,0,,2,,,74,127
14382,note_on,2,0,0,,10,,,69,127
14479,note_off,97,0,0,,10,,,69,127
14481,note_on,2,0,0,,6,,,78,127
14578,note_off,97,0,0,,6,,,78,127
14580,note_on,2,0,0,,6,,,66,127
14580,note_on,0,0,0,,2,,,74,127
15023,note_off,443,0,0,,2,,,74,127
15023,note_off,0,0,0,,6,,,66,127
15171,note_on,148,0,0,,6,,,78,127
15268,note_off,97,0,0,,6,,,78,127
15270,note_on,2,0,0,,2,,,74,127
15367,note_off,97,0,0,,2,,,74,127
15369,note_on,2,0,0,,2,,,86,127
15466,note_off,97,0,0,,2,,,86,127
15468,note_on,2,0,0,,6,,,78,127
15468,note_on,0,0,0,,2,,,74,127
15911,note_off,443,0,0,,2,,,74,127
15911,note_off,0,0,0,,6,,,78,127
16059,note_on,148,0,0,,10,,,69,127
16156,note_off,97,0,0,,10,,,69,127
16158,note_on,2,0,0,,6,,,66,127
16255,note_off,97,0,0,,6,,,66,127
16257,note_on,2,0,0,,2,,,74,127
16354,note_off,97,0,0,,2,,,74,127
16356,note_on,2,0,0,,6,,,66,127
16356,note_on,0,0,0,,10,,,69,127
16799,note_off,443,0,0,,10,,,69,127
16799,note_off,0,0,0,,6,,,66,127
16947,note_on,148,0,0,,2,,,86,127
16995,note_off,48,0,0,,2,,,86,127
16997,note_on,2,0,0,,1,,,85,127
17045,note_off,48,0,0,,1,,,85,127
17047,note_on,2,0,0,,2,,,86,127
17095,note_off,48,0,0,,2,,,86,127
17097,note_on,2,0,0,,1,,,85,127
17145,note_off,48,0,0,,1,,,85,127
17147,note_on,2,0,0,,2,,,86,127
17195,note_off,48,0,0,,2,,,86,127
17197,note_on,2,0,0,,1,,,85,127
17245,note_off,48,0,0,,1,,,85,127
17247,note_on,2,0,0,,4,,,52,127
17247,note_on,0,0,0,,4,,,40,127
17247,note_on,0,0,0,,2,,,86,127
17295,note_off,48,0,0,,2,,,86,127
17297,note_on,2,0,0,,1,,,85,127
17345,note_off,48,0,0,,1,,,85,127
17347,note_on,2,0,0,,2,,,86,127
17395,note_off,48,0,0,,2,,,86,127
17397,note_on,2,0,0,,1,,,85,127
17445,note_off,48,0,0,,1,,,85,127
17447,note_on,2,0,0,,12,,,83,127
17495,note_off,48,0,0,,12,,,83,127
17497,note_on,2,0,0,,1,,,85,127
17545,note_off,48,0,0,,1,,,85,127
17545,note_off,0,0,0,,4,,,40,127
17545,note_off,0,0,0,,4,,,52,127
17547,note_on,2,0,0,,6,,,54,127
17547,note_on,0,0,0,,6,,,42,127
17547,note_on,0,0,0,,2,,,86,127
17841,note_off,294,0,0,,2,,,86,127
17841,note_off,0,0,0,,6,,,42,127
17841,note_off,0,0,0,,6,,,54,127
17843,note_on,2,0,0,,7,,,55,127
17843,note_on,0,0,0,,7,,,43,127
17843,note_on,0,0,0,,4,,,76,127
17940,note_off,97,0,0,,4,,,76,127
17942,note_on,2,0,0,,6,,,78,127
18039,note_off,97,0,0,,6,,,78,127
18041,note_on,2,0,0,,7,,,79,127
18138,note_off,97,0,0,,7,,,79,127
18138,note_off,0,0,0,,7,,,43,127
18138,note_off,0,0,0,,7,,,55,127
18140,note_on,2,0,0,,10,,,57,127
18140,note_on,0,0,0,,6,,,78,127
18140,note_on,0,0,0,,2,,,74,127
18434,note_off,294,0,0,,2,,,74,127
18434,note_off,0,0,0,,6,,,78,127
18434,note_off,0,0,0,,10,,,57,127
18436,note_on,2,0,0,,10,,,45,127
18436,note_on,0,0,0,,4,,,76,127
18436,note_on,0,0,0,,1,,,73,127
18730,note_off,294,0,0,,1,,,73,127
18730,note_off,0,0,0,,4,,,76,127
18730,note_off,0,0,0,,10,,,45,127
18732,note_on,2,0,0,,2,,,38,127
18732,note_on,0,0,0,,4,,,76,127
18767,note_off,35,0,0,,4,,,76,127
18769,note_on,2,0,0,,2,,,74,127
18804,note_off,35,0,0,,2,,,74,127
18806,note_on,2,0,0,,4,,,76,127
18841,note_off,35,0,0,,4,,,76,127
18843,note_on,2,0,0,,2,,,74,127
18878,note_off,35,0,0,,2,,,74,127
18880,note_on,2,0,0,,4,,,76,127
18915,note_off,35,0,0,,4,,,76,127
18917,note_on,2,0,0,,2,,,74,127
19502,note_off,585,0,0,,2,,,74,127
19617,note_off,115,0,0,,2,,,38,127
19619,note_on,2,0,0,,2,,,74,127
19716,note_off,97,0,0,,2,,,74,127
19718,note_on,2,0,0,,10,,,69,127
19815,note_off,97,0,0,,10,,,69,127
19817,note_on,2,0,0,,6,,,78,127
19914,note_off,97,0,0,,6,,,78,127
19916,note_on,2,0,0,,2,,,74,127
19916,note_on,0,0,0,,6,,,66,127
20359,note_off,443,0,0,,6,,,66,127
20359,note_off,0,0,0,,2,,,74,127
20507,note_on,148,0,0,,10,,,81,127
20604,note_off,97,0,0,,10,,,81,127
20606,note_on,2,0,0,,6,,,78,127
20703,note_off,97,0,0,,6,,,78,127
20705,note_on,2,0,0,,2,,,86,127
20802,note_off,97,0,0,,2,,,86,127
20804,note_on,2,0,0,,10,,,81,127
20804,note_on,0,0,0,,6,,,78,127
21247,note_off,443,0,0,,6,,,78,127
21247,note_off,0,0,0,,10,,,81,127
21395,note_on,148,0,0,,10,,,69,127
21492,note_off,97,0,0,,10,,,69,127
21494,note_on,2,0,0,,6,,,66,127
21591,note_off,97,0,0,,6,,,66,127
21593,note_on,2,0,0,,2,,,74,127
21690,note_off,97,0,0,,2,,,74,127
21692,note_on,2,0,0,,6,,,66,127
21692,note_on,0,0,0,,10,,,69,127
22135,note_off,443,0,0,,10,,,69,127
22135,note_off,0,0,0,,6,,,66,127
22283,note_on,148,0,0,,2,,,86,127
22331,note_off,48,0,0,,2,,,86,127
22333,note_on,2,0,0,,1,,,85,127
22381,note_off,48,0,0,,1,,,85,127
22383,note_on,2,0,0,,2,,,86,127
22431,note_off,48,0,0,,2,,,86,127
22433,note_on,2,0,0,,1,,,85,127
22481,note_off,48,0,0,,1,,,85,127
22483,note_on,2,0,0,,2,,,86,127
22531,note_off,48,0,0,,2,,,86,127
22533,note_on,2,0,0,,1,,,85,127
22581,note_off,48,0,0,,1,,,85,127
22583,note_on,2,0,0,,4,,,52,127
22583,note_on,0,0,0,,4,,,40,127
22583,note_on,0,0,0,,2,,,86,127
22631,note_off,48,0,0,,2,,,86,127
22633,note_on,2,0,0,,1,,,85,127
22681,note_off,48,0,0,,1,,,85,127
22683,note_on,2,0,0,,2,,,86,127
22731,note_off,48,0,0,,2,,,86,127
22733,note_on,2,0,0,,1,,,85,127
22781,note_off,48,0,0,,1,,,85,127
22783,note_on,2,0,0,,12,,,83,127
22831,note_off,48,0,0,,12,,,83,127
22833,note_on,2,0,0,,1,,,85,127
22881,note_off,48,0,0,,1,,,85,127
22881,note_off,0,0,0,,4,,,40,127
22881,note_off,0,0,0,,4,,,52,127
22883,note_on,2,0,0,,6,,,54,127
22883,note_on,0,0,0,,6,,,42,127
22883,note_on,0,0,0,,2,,,86,127
23177,note_off,294,0,0,,2,,,86,127
23177,note_off,0,0,0,,6,,,42,127
23177,note_off,0,0,0,,6,,,54,127
23179,note_on,2,0,0,,7,,,55,127
23179,note_on,0,0,0,,7,,,43,127
23179,note_on,0,0,0,,4,,,76,127
23276,note_off,97,0,0,,4,,,76,127
23278,note_on,2,0,0,,6,,,78,127
23375,note_off,97,0,0,,6,,,78,127
23377,note_on,2,0,0,,7,,,79,127
23474,note_off,97,0,0,,7,,,79,127
23474,note_off,0,0,0,,7,,,43,127
23474,note_off,0,0,0,,7,,,55,127
23476,note_on,2,0,0,,10,,,57,127
23476,note_on,0,0,0,,2,,,74,127
23476,note_on,0,0,0,,6,,,78,127
23770,note_off,294,0,0,,6,,,78,127
23770,note_off,0,0,0,,2,,,74,127
23770,note_off,0,0,0,,10,,,57,127
23772,note_on,2,0,0,,10,,,45,127
23772,note_on,0,0,0,,1,,,73,127
23772,note_on,0,0,0,,4,,,76,127
24066,note_off,294,0,0,,4,,,76,127
24066,note_off,0,0,0,,1,,,73,127
24066,note_off,0,0,0,,10,,,45,127
24068,note_on,2,0,0,,2,,,50,127
24068,note_on,0,0,0,,2,,,74,127
24165,note_off,97,0,0,,2,,,74,127
24167,note_on,2,0,0,,10,,,81,127
24264,note_off,97,0,0,,10,,,81,127
24266,note_on,2,0,0,,7,,,79,127
24363,note_off,97,0,0,,7,,,79,127
24363,note_off,0,0,0,,2,,,50,127
24365,note_on,2,0,0,,4,,,52,127
24365,note_on,0,0,0,,6,,,78,127
24462,note_off,97,0,0,,6,,,78,127
24464,note_on,2,0,0,,4,,,76,127
24561,note_off,97,0,0,,4,,,76,127
24563,note_on,2,0,0,,2,,,74,127
24660,note_off,97,0,0,,2,,,74,127
24660,note_off,0,0,0,,4,,,52,127
24662,note_on,2,0,0,,6,,,54,127
24662,note_on,0,0,0,,1,,,73,127
24759,note_off,97,0,0,,1,,,73,127
24761,note_on,2,0,0,,12,,,71,127
24858,note_off,97,0,0,,12,,,71,127
24860,note_on,2,0,0,,10,,,69,127
24957,note_off,97,0,0,,10,,,69,127
24957,note_off,0,0,0,,6,,,54,127
24959,note_on,2,0,0,,7,,,55,127
24959,note_on,0,0,0,,7,,,67,127
25056,note_off,97,0,0,,7,,,67,127
25058,note_on,2,0,0,,6,,,66,127
25155,note_off,97,0,0,,6,,,66,127
25157,note_on,2,0,0,,4,,,64,127
25254,note_off,97,0,0,,4,,,64,127
25254,note_off,0,0,0,,7,,,55,127
25256,note_on,2,0,0,,10,,,57,127
25256,note_on,0,0,0,,2,,,62,127
25551,note_on,295,0,0,,10,,,45,127
25600,note_on,49,0,0,,1,,,61,127
25609,note_off,9,0,0,,2,,,62,127
25647,note_off,38,0,0,,1,,,61,127
25649,note_on,2,0,0,,2,,,62,127
25697,note_off,48,0,0,,2,,,62,127
25699,note_on,2,0,0,,1,,,61,127
25747,note_off,48,0,0,,1,,,61,127
25749,note_on,2,0,0,,2,,,62,127
25797,note_off,48,0,0,,2,,,62,127
25799,note_on,2,0,0,,1,,,61,127
25842,note_off,43,0,0,,10,,,57,127
25847,note_off,5,0,0,,1,,,61,127
25847,note_off,0,0,0,,10,,,45,127
25849,note_on,2,0,0,,2,,,50,127
25849,note_on,0,0,0,,2,,,38,127
25849,note_on,0,0,0,,2,,,62,127
25946,note_off,97,0,0,,2,,,62,127
25948,note_on,2,0,0,,10,,,81,127
26045,note_off,97,0,0,,10,,,81,127
26047,note_on,2,0,0,,7,,,79,127
26144,note_off,97,0,0,,7,,,79,127
26144,note_off,0,0,0,,2,,,38,127
26144,note_off,0,0,0,,2,,,50,127
26146,note_on,2,0,0,,4,,,52,127
26146,note_on,0,0,0,,4,,,40,127
26146,note_on,0,0,0,,6,,,78,127
26243,note_off,97,0,0,,6,,,78,127
26245,note_on,2,0,0,,4,,,76,127
26342,note_off,97,0,0,,4,,,76,127
26344,note_on,2,0,0,,2,,,74,127
26441,note_off,97,0,0,,2,,,74,127
26441,note_off,0,0,0,,4,,,40,127
26441,note_off,0,0,0,,4,,,52,127
26443,note_on,2,0,0,,6,,,42,127
26443,note_on,0,0,0,,6,,,54,127
26443,note_on,0,0,0,,1,,,73,127
26540,note_off,97,0,0,,1,,,73,127
26542,note_on,2,0,0,,12,,,71,127
26639,note_off,97,0,0,,12,,,71,127
26641,note_on,2,0,0,,10,,,69,127
26738,note_off,97,0,0,,10,,,69,127
26738,note_off,0,0,0,,6,,,54,127
26738,note_off,0,0,0,,6,,,42,127
26740,note_on,2,0,0,,7,,,55,127
26740,note_on,0,0,0,,7,,,43,127
26740,note_on,0,0,0,,7,,,67,127
26837,note_off,97,0,0,,7,,,67,127
26839,note_on,2,0,0,,6,,,66,127
26936,note_off,97,0,0,,6,,,66,127
26938,note_on,2,0,0,,4,,,64,127
27035,note_off,97,0,0,,4,,,64,127
27035,note_off,0,0,0,,7,,,43,127
27035,note_off,0,0,0,,7,,,55,127
27037,note_on,2,0,0,,10,,,45,127
27037,note_on,0,0,0,,2,,,62,127
27332,note_on,295,0,0,,10,,,33,127
27381,note_on,49,0,0,,1,,,61,127
27390,note_off,9,0,0,,2,,,62,127
27428,note_off,38,0,0,,1,,,61,127
27430,note_on,2,0,0,,2,,,62,127
27478,note_off,48,0,0,,2,,,62,127
27480,note_on,2,0,0,,1,,,61,127
27528,note_off,48,0,0,,1,,,61,127
27530,note_on,2,0,0,,12,,,59,127
27578,note_off,48,0,0,,12,,,59,127
27580,note_on,2,0,0,,1,,,61,127
27623,note_off,43,0,0,,10,,,45,127
27628,note_off,5,0,0,,1,,,61,127
27628,note_off,0,0,0,,10,,,33,127
27630,note_on,2,0,0,,2,,,38,127
27630,note_on,0,0,0,,2,,,62,127
28215,note_off,585,0,0,,2,,,62,127
28515,note_off,300,0,0,,2,,,38,127
28517,note_on,2,0,0,,2,,,50,127
28517,note_on,0,0,0,,6,,,66,127
28614,note_off,97,0,0,,6,,,66,127
28616,note_on,2,0,0,,2,,,62,127
28713,note_off,97,0,0,,2,,,62,127
28715,note_on,2,0,0,,7,,,67,127
28812,note_off,97,0,0,,7,,,67,127
28814,note_on,2,0,0,,10,,,69,127
28911,note_off,97,0,0,,10,,,69,127
28913,note_on,2,0,0,,2,,,62,127
29010,note_off,97,0,0,,2,,,62,127
29012,note_on,2,0,0,,12,,,71,127
29109,note_off,97,0,0,,12,,,71,127
29111,note_on,2,0,0,,0,,,72,127
29208,note_off,97,0,0,,0,,,72,127
29210,note_on,2,0,0,,2,,,62,127
29307,note_off,97,0,0,,2,,,62,127
29309,note_on,2,0,0,,2,,,74,127
29406,note_off,97,0,0,,2,,,74,127
29406,note_off,0,0,0,,2,,,50,127
29408,note_on,2,0,0,,0,,,48,127
29408,note_on,0,0,0,,4,,,76,127
29505,note_off,97,0,0,,4,,,76,127
29507,note_on,2,0,0,,0,,,72,127
29604,note_off,97,0,0,,0,,,72,127
29606,note_on,2,0,0,,6,,,78,127
29703,note_off,97,0,0,,6,,,78,127
29705,note_on,2,0,0,,7,,,79,127
29802,note_off,97,0,0,,7,,,79,127
29804,note_on,2,0,0,,0,,,72,127
29901,note_off,97,0,0,,0,,,72,127
29903,note_on,2,0,0,,10,,,81,127
30000,note_off,97,0,0,,10,,,81,127
30002,note_on,2,0,0,,12,,,83,127
30099,note_off,97,0,0,,12,,,83,127
30101,note_on,2,0,0,,0,,,72,127
30198,note_off,97,0,0,,0,,,72,127
30200,note_on,2,0,0,,0,,,84,127
30297,note_off,97,0,0,,0,,,84,127
30297,note_off,0,0,0,,0,,,48,127
30299,note_on,2,0,0,,12,,,47,127
30299,note_on,0,0,0,,2,,,86,127
30593,note_off,294,0,0,,2,,,86,127
30595,note_on,2,0,0,,0,,,84,127
30741,note_off,146,0,0,,0,,,84,127
30743,note_on,2,0,0,,12,,,83,127
30889,note_off,146,0,0,,12,,,83,127
30889,note_off,0,0,0,,12,,,47,127
30891,note_on,2,0,0,,0,,,48,127
30891,note_on,0,0,0,,10,,,81,127
31037,note_off,146,0,0,,10,,,81,127
31039,note_on,2,0,0,,7,,,79,127
31185,note_off,146,0,0,,0,,,48,127
31187,note_on,2,0,0,,2,,,38,127
31236,note_on,49,0,0,,6,,,78,127
31254,note_off,18,0,0,,7,,,79,127
31283,note_off,29,0,0,,6,,,78,127
31285,note_on,2,0,0,,7,,,79,127
31333,note_off,48,0,0,,7,,,79,127
31335,note_on,2,0,0,,6,,,78,127
31383,note_off,48,0,0,,6,,,78,127
31385,note_on,2,0,0,,7,,,79,127
31433,note_off,48,0,0,,7,,,79,127
31435,note_on,2,0,0,,6,,,78,127
31630,note_off,195,0,0,,6,,,78,127
31632,note_on,2,0,0,,4,,,76,127
31778,note_off,146,0,0,,4,,,76,127
31780,note_on,2,0,0,,2,,,74,127
31928,note_off,148,0,0,,2,,,38,127
32074,note_off,146,0,0,,2,,,74,127
32076,note_on,2,0,0,,2,,,50,127
32076,note_on,0,0,0,,6,,,66,127
32173,note_off,97,0,0,,6,,,66,127
32175,note_on,2,0,0,,2,,,62,127
32272,note_off,97,0,0,,2,,,62,127
32274,note_on,2,0,0,,7,,,67,127
32371,note_off,97,0,0,,7,,,67,127
32373,note_on,2,0,0,,10,,,69,127
32470,note_off,97,0,0,,10,,,69,127
32472,note_on,2,0,0,,2,,,62,127
32569,note_off,97,0,0,,2,,,62,127
32571,note_on,2,0,0,,12,,,71,127
32668,note_off,97,0,0,,12,,,71,127
32670,note_on,2,0,0,,0,,,72,127
32767,note_off,97,0,0,,0,,,72,127
32769,note_on,2,0,0,,2,,,62,127
32866,note_off,97,0,0,,2,,,62,127
32868,note_on,2,0,0,,2,,,74,127
32965,note_off,97,0,0,,2,,,74,127
32965,note_off,0,0,0,,2,,,50,127
32967,note_on,2,0,0,,0,,,48,127
32967,note_on,0,0,0,,4,,,76,127
33064,note_off,97,0,0,,4,,,76,127
33066,note_on,2,0,0,,0,,,72,127
33163,note_off,97,0,0,,0,,,72,127
33165,note_on,2,0,0,,6,,,78,127
33262,note_off,97,0,0,,6,,,78,127
33264,note_on,2,0,0,,7,,,79,127
33361,note_off,97,0,0,,7,,,79,127
33363,note_on,2,0,0,,0,,,72,127
33460,note_off,97,0,0,,0,,,72,127
33462,note_on,2,0,0,,10,,,81,127
33559,note_off,97,0,0,,10,,,81,127
33561,note_on,2,0,0,,12,,,83,127
33658,note_off,97,0,0,,12,,,83,127
33660,note_on,2,0,0,,0,,,72,127
33757,note_off,97,0,0,,0,,,72,127
33759,note_on,2,0,0,,0,,,84,127
33856,note_off,97,0,0,,0,,,84,127
33856,note_off,0,0,0,,0,,,48,127
33858,note_on,2,0,0,,12,,,47,127
33858,note_on,0,0,0,,2,,,86,127
34152,note_off,294,0,0,,2,,,86,127
34154,note_on,2,0,0,,0,,,84,127
34300,note_off,146,0,0,,0,,,84,127
34302,note_on,2,0,0,,12,,,83,127
34448,note_off,146,0,0,,12,,,83,127
34448,note_off,0,0,0,,12,,,47,127
34450,note_on,2,0,0,,0,,,48,127
34450,note_on,0,0,0,,10,,,81,127
34596,note_off,146,0,0,,10,,,81,127
34598,note_on,2,0,0,,7,,,79,127
34744,note_off,146,0,0,,0,,,48,127
34746,note_on,2,0,0,,2,,,38,127
34795,note_on,49,0,0,,6,,,78,127
34813,note_off,18,0,0,,7,,,79,127
34842,note_off,29,0,0,,6,,,78,127
34844,note_on,2,0,0,,7,,,79,127
34892,note_off,48,0,0,,7,,,79,127
34894,note_on,2,0,0,,6,,,78,127
34942,note_off,48,0,0,,6,,,78,127
34944,note_on,2,0,0,,7,,,79,127
34992,note_off,48,0,0,,7,,,79,127
34994,note_on,2,0,0,,6,,,78,127
35189,note_off,195,0,0,,6,,,78,127
35191,note_on,2,0,0,,4,,,76,127
35337,note_off,146,0,0,,4,,,76,127
35339,note_on,2,0,0,,2,,,74,127
35561,note_off,222,0,0,,2,,,74,127
35633,note_off,72,0,0,,2,,,38,127
35635,note_on,2,0,0,,2,,,38,127
35635,note_on,0,0,0,,10,,,69,127
35732,note_off,97,0,0,,10,,,69,127
35734,note_on,2,0,0,,2,,,62,127
35831,note_off,97,0,0,,2,,,62,127
35833,note_on,2,0,0,,0,,,72,127
35930,note_off,97,0,0,,0,,,72,127
35932,note_on,2,0,0,,12,,,71,127
36226,note_off,294,0,0,,12,,,71,127
36228,note_on,2,0,0,,10,,,69,127
36522,note_off,294,0,0,,10,,,69,127
36522,note_off,0,0,0,,2,,,38,127
36524,note_on,2,0,0,,2,,,38,127
36524,note_on,0,0,0,,0,,,72,127
36621,note_off,97,0,0,,0,,,72,127
36623,note_on,2,0,0,,10,,,69,127
36720,note_off,97,0,0,,10,,,69,127
36722,note_on,2,0,0,,10,,,81,127
36819,note_off,97,0,0,,10,,,81,127
36821,note_on,2,0,0,,7,,,79,127
37115,note_off,294,0,0,,7,,,79,127
37117,note_on,2,0,0,,6,,,78,127
37411,note_off,294,0,0,,6,,,78,127
37411,note_off,0,0,0,,2,,,38,127
37413,note_on,2,0,0,,2,,,38,127
37413,note_on,0,0,0,,10,,,81,127
37510,note_off,97,0,0,,10,,,81,127
37512,note_on,2,0,0,,2,,,74,127
37609,note_off,97,0,0,,2,,,74,127
37611,note_on,2,0,0,,0,,,84,127
37708,note_off,97,0,0,,0,,,84,127
37710,note_on,2,0,0,,12,,,83,127
38004,note_off,294,0,0,,12,,,83,127
38006,note_on,2,0,0,,10,,,81,127
38300,note_off,294,0,0,,10,,,81,127
38300,note_off,0,0,0,,2,,,38,127
38302,note_on,2,0,0,,7,,,43,127
38302,note_on,0,0,0,,0,,,84,127
38350,note_off,48,0,0,,0,,,84,127
38352,note_on,2,0,0,,12,,,83,127
38400,note_off,48,0,0,,12,,,83,127
38402,note_on,2,0,0,,0,,,84,127
38450,note_off,48,0,0,,0,,,84,127
38452,note_on,2,0,0,,12,,,83,127
38500,note_off,48,0,0,,12,,,83,127
38502,note_on,2,0,0,,0,,,84,127
38550,note_off,48,0,0,,0,,,84,127
38552,note_on,2,0,0,,12,,,83,127
38747,note_off,195,0,0,,12,,,83,127
38749,note_on,2,0,0,,10,,,81,127
38895,note_off,146,0,0,,10,,,81,127
38897,note_on,2,0,0,,7,,,79,127
39045,note_off,148,0,0,,7,,,43,127
39191,note_off,146,0,0,,7,,,79,127
39193,note_on,2,0,0,,2,,,74,127
39290,note_off,97,0,0,,2,,,74,127
39292,note_on,2,0,0,,12,,,71,127
39389,note_off,97,0,0,,12,,,71,127
39391,note_on,2,0,0,,7,,,79,127
39488,note_off,97,0,0,,7,,,79,127
39490,note_on,2,0,0,,2,,,74,127
39490,note_on,0,0,0,,12,,,71,127
39933,note_off,443,0,0,,12,,,71,127
39933,note_off,0,0,0,,2,,,74,127
40081,note_on,148,0,0,,12,,,83,127
40178,note_off,97,0,0,,12,,,83,127
40180,note_on,2,0,0,,7,,,79,127
40277,note_off,97,0,0,,7,,,79,127
40279,note_on,2,0,0,,2,,,86,127
40376,note_off,97,0,0,,2,,,86,127
40378,note_on,2,0,0,,12,,,83,127
40378,note_on,0,0,0,,7,,,79,127
40821,note_off,443,0,0,,7,,,79,127
40821,note_off,0,0,0,,12,,,83,127
40969,note_on,148,0,0,,12,,,71,127
41066,note_off,97,0,0,,12,,,71,127
41068,note_on,2,0,0,,7,,,67,127
41165,note_off,97,0,0,,7,,,67,127
41167,note_on,2,0,0,,2,,,74,127
41264,note_off,97,0,0,,2,,,74,127
41266,note_on,2,0,0,,7,,,67,127
41266,note_on,0,0,0,,12,,,71,127
41709,note_off,443,0,0,,12,,,71,127
41709,note_off,0,0,0,,7,,,67,127
41857,note_on,148,0,0,,7,,,79,127
41905,note_off,48,0,0,,7,,,79,127
41907,note_on,2,0,0,,6,,,78,127
41955,note_off,48,0,0,,6,,,78,127
41957,note_on,2,0,0,,7,,,79,127
42005,note_off,48,0,0,,7,,,79,127
42007,note_on,2,0,0,,6,,,78,127
42055,note_off,48,0,0,,6,,,78,127
42057,note_on,2,0,0,,7,,,79,127
42105,note_off,48,0,0,,7,,,79,127
42107,note_on,2,0,0,,6,,,78,127
42155,note_off,48,0,0,,6,,,78,127
42157,note_on,2,0,0,,10,,,57,127
42157,note_on,0,0,0,,10,,,45,127
42157,note_on,0,0,0,,7,,,79,127
42205,note_off,48,0,0,,7,,,79,127
42207,note_on,2,0,0,,6,,,78,127
42255,note_off,48,0,0,,6,,,78,127
42257,note_on,2,0,0,,7,,,79,127
42305,note_off,48,0,0,,7,,,79,127
42307,note_on,2,0,0,,6,,,78,127
42355,note_off,48,0,0,,6,,,78,127
42357,note_on,2,0,0,,4,,,76,127
42405,note_off,48,0,0,,4,,,76,127
42407,note_on,2,0,0,,6,,,78,127
42455,note_off,48,0,0,,6,,,78,127
42455,note_off,0,0,0,,10,,,45,127
42455,note_off,0,0,0,,10,,,57,127
42457,note_on,2,0,0,,12,,,47,127
42457,note_on,0,0,0,,12,,,59,127
42457,note_on,0,0,0,,7,,,79,127
42751,note_off,294,0,0,,7,,,79,127
42751,note_off,0,0,0,,12,,,59,127
42751,note_off,0,0,0,,12,,,47,127
42753,note_on,2,0,0,,0,,,60,127
42753,note_on,0,0,0,,0,,,48,127
42753,note_on,0,0,0,,10,,,69,127
42850,note_off,97,0,0,,10,,,69,127
42852,note_on,2,0,0,,12,,,71,127
42949,note_off,97,0,0,,12,,,71,127
42951,note_on,2,0,0,,0,,,72,127
43048,note_off,97,0,0,,0,,,72,127
43048,note_off,0,0,0,,0,,,48,127
43048,note_off,0,0,0,,0,,,60,127
43050,note_on,2,0,0,,2,,,50,127
43050,note_on,0,0,0,,7,,,67,127
43050,note_on,0,0,0,,12,,,71,127
43344,note_off,294,0,0,,12,,,71,127
43344,note_off,0,0,0,,7,,,67,127
43344,note_off,0,0,0,,2,,,50,127
43346,note_on,2,0,0,,2,,,38,127
43346,note_on,0,0,0,,6,,,66,127
43346,note_on,0,0,0,,10,,,69,127
43640,note_off,294,0,0,,10,,,69,127
43640,note_off,0,0,0,,6,,,66,127
43640,note_off,0,0,0,,2,,,38,127
43642,note_on,2,0,0,,7,,,43,127
43642,note_on,0,0,0,,10,,,69,127
43677,note_off,35,0,0,,10,,,69,127
43679,note_on,2,0,0,,7,,,67,127
43714,note_off,35,0,0,,7,,,67,127
43716,note_on,2,0,0,,10,,,69,127
43751,note_off,35,0,0,,10,,,69,127
43753,note_on,2,0,0,,7,,,67,127
43788,note_off,35,0,0,,7,,,67,127
43790,note_on,2,0,0,,10,,,69,127
43825,note_off,35,0,0,,10,,,69,127
43827,note_on,2,0,0,,7,,,67,127
44412,note_off,585,0,0,,7,,,67,127
44527,note_off,115,0,0,,7,,,43,127
44529,note_on,2,0,0,,2,,,74,127
44626,note_off,97,0,0,,2,,,74,127
44628,note_on,2,0,0,,12,,,71,127
44725,note_off,97,0,0,,12,,,71,127
44727,note_on,2,0,0,,7,,,79,127
44824,note_off,97,0,0,,7,,,79,127
44826,note_on,2,0,0,,12,,,71,127
44826,note_on,0,0,0,,2,,,74,127
45269,note_off,443,0,0,,2,,,74,127
45269,note_off,0,0,0,,12,,,71,127
45417,note_on,148,0,0,,12,,,83,127
45514,note_off,97,0,0,,12,,,83,127
45516,note_on,2,0,0,,7,,,79,127
45613,note_off,97,0,0,,7,,,79,127
45615,note_on,2,0,0,,2,,,86,127
45712,note_off,97,0,0,,2,,,86,127
45714,note_on,2,0,0,,7,,,79,127
45714,note_on,0,0,0,,12,,,83,127
46157,note_off,443,0,0,,12,,,83,127
46157,note_off,0,0,0,,7,,,79,127
46305,note_on,148,0,0,,12,,,71,127
46402,note_off,97,0,0,,12,,,71,127
46404,note_on,2,0,0,,7,,,67,127
46501,note_off,97,0,0,,7,,,67,127
46503,note_on,2,0,0,,2,,,74,127
46600,note_off,97,0,0,,2,,,74,127
46602,note_on,2,0,0,,12,,,71,127
46602,note_on,0,0,0,,7,,,67,127
47045,note_off,443,0,0,,7,,,67,127
47045,note_off,0,0,0,,12,,,71,127
47193,note_on,148,0,0,,7,,,79,127
47241,note_off,48,0,0,,7,,,79,127
47243,note_on,2,0,0,,6,,,78,127
47291,note_off,48,0,0,,6,,,78,127
47293,note_on,2,0,0,,7,,,79,127
47341,note_off,48,0,0,,7,,,79,127
47343,note_on,2,0,0,,6,,,78,127
47391,note_off,48,0,0,,6,,,78,127
47393,note_on,2,0,0,,7,,,79,127
47441,note_off,48,0,0,,7,,,79,127
47443,note_on,2,0,0,,6,,,78,127
47491,note_off,48,0,0,,6,,,78,127
47493,note_on,2,0,0,,10,,,57,127
47493,note_on,0,0,0,,10,,,45,127
47493,note_on,0,0,0,,7,,,79,127
47541,note_off,48,0,0,,7,,,79,127
47543,note_on,2,0,0,,6,,,78,127
47591,note_off,48,0,0,,6,,,78,127
47593,note_on,2,0,0,,7,,,79,127
47641,note_off,48,0,0,,7,,,79,127
47643,note_on,2,0,0,,6,,,78,127
47691,note_off,48,0,0,,6,,,78,127
47693,note_on,2,0,0,,4,,,76,127
47741,note_off,48,0,0,,4,,,76,127
47743,note_on,2,0,0,,6,,,78,127
47791,note_off,48,0,0,,6,,,78,127
47791,note_off,0,0,0,,10,,,45,127
47791,note_off,0,0,0,,10,,,57,127
47793,note_on,2,0,0,,12,,,59,127
47793,note_on,0,0,0,,12,,,47,127
47793,note_on,0,0,0,,7,,,79,127
48087,note_off,294,0,0,,7,,,79,127
48087,note_off,0,0,0,,12,,,47,127
48087,note_off,0,0,0,,12,,,59,127
48089,note_on,2,0,0,,0,,,60,127
48089,note_on,0,0,0,,0,,,48,127
48089,note_on,0,0,0,,10,,,69,127
48186,note_off,97,0,0,,10,,,69,127
48188,note_on,2,0,0,,12,,,71,127
48285,note_off,97,0,0,,12,,,71,127
48287,note_on,2,0,0,,0,,,72,127
48384,note_off,97,0,0,,0,,,72,127
48384,note_off,0,0,0,,0,,,48,127
48384,note_off,0,0,0,,0,,,60,127
48386,note_on,2,0,0,,2,,,50,127
48386,note_on,0,0,0,,7,,,67,127
48386,note_on,0,0,0,,12,,,71,127
48680,note_off,294,0,0,,12,,,71,127
48680,note_off,0,0,0,,7,,,67,127
48680,note_off,0,0,0,,2,,,50,127
48682,note_on,2,0,0,,2,,,38,127
48682,note_on,0,0,0,,6,,,66,127
48682,note_on,0,0,0,,10,,,69,127
48976,note_off,294,0,0,,10,,,69,127
48976,note_off,0,0,0,,6,,,66,127
48976,note_off,0,0,0,,2,,,38,127
48978,note_on,2,0,0,,7,,,55,127
48978,note_on,0,0,0,,7,,,43,127
48978,note_on,0,0,0,,7,,,67,127
49075,note_off,97,0,0,,7,,,67,127
49077,note_on,2,0,0,,2,,,86,127
49174,note_off,97,0,0,,2,,,86,127
49176,note_on,2,0,0,,0,,,84,127
49273,note_off,97,0,0,,0,,,84,127
49273,note_off,0,0,0,,7,,,43,127
49273,note_off,0,0,0,,7,,,55,127
49275,note_on,2,0,0,,10,,,57,127
49275,note_on,0,0,0,,10,,,45,127
49275,note_on,0,0,0,,12,,,83,127
49372,note_off,97,0,0,,12,,,83,127
49374,note_on,2,0,0,,10,,,81,127
49471,note_off,97,0,0,,10,,,81,127
49473,note_on,2,0,0,,7,,,79,127
49570,note_off,97,0,0,,7,,,79,127
49570,note_off,0,0,0,,10,,,45,127
49570,note_off,0,0,0,,10,,,57,127
49572,note_on,2,0,0,,12,,,59,127
49572,note_on,0,0,0,,12,,,47,127
49572,note_on,0,0,0,,6,,,78,127
49669,note_off,97,0,0,,6,,,78,127
49671,note_on,2,0,0,,4,,,76,127
49768,note_off,97,0,0,,4,,,76,127
49770,note_on,2,0,0,,2,,,74,127
49867,note_off,97,0,0,,2,,,74,127
49867,note_off,0,0,0,,12,,,47,127
49867,note_off,0,0,0,,12,,,59,127
49869,note_on,2,0,0,,0,,,60,127
49869,note_on,0,0,0,,0,,,48,127
49869,note_on,0,0,0,,0,,,72,127
49966,note_off,97,0,0,,0,,,72,127
49968,note_on,2,0,0,,12,,,71,127
50065,note_off,97,0,0,,12,,,71,127
50067,note_on,2,0,0,,10,,,69,127
50164,note_off,97,0,0,,10,,,69,127
50164,note_off,0,0,0,,0,,,48,127
50164,note_off,0,0,0,,0,,,60,127
50166,note_on,2,0,0,,2,,,50,127
50166,note_on,0,0,0,,7,,,67,127
50461,note_on,295,0,0,,2,,,38,127
50510,note_on,49,0,0,,6,,,66,127
50519,note_off,9,0,0,,7,,,67,127
50557,note_off,38,0,0,,6,,,66,127
50559,note_on,2,0,0,,7,,,67,127
50607,note_off,48,0,0,,7,,,67,127
50609,note_on,2,0,0,,6,,,66,127
50657,note_off,48,0,0,,6,,,66,127
50659,note_on,2,0,0,,7,,,67,127
50707,note_off,48,0,0,,7,,,67,127
50709,note_on,2,0,0,,6,,,66,127
50752,note_off,43,0,0,,2,,,50,127
50757,note_off,5,0,0,,6,,,66,127
50757,note_off,0,0,0,,2,,,38,127
50759,note_on,2,0,0,,7,,,55,127
50759,note_on,0,0,0,,7,,,43,127
50759,note_on,0,0,0,,7,,,67,127
50856,note_off,97,0,0,,7,,,67,127
50858,note_on,2,0,0,,2,,,86,127
50955,note_off,97,0,0,,2,,,86,127
50960,note_on,5,0,0,,0,,,84,127
51055,note_off,95,0,0,,7,,,43,127
51055,note_off,0,0,0,,7,,,55,127
51057,note_off,2,0,0,,0,,,84,127
51062,note_on,5,0,0,,10,,,57,127
51062,note_on,0,0,0,,10,,,45,127
51062,note_on,0,0,0,,12,,,83,127
51159,note_off,97,0,0,,12,,,83,127
51161,note_on,2,0,0,,10,,,81,127
51258,note_off,97,0,0,,10,,,81,127
51263,note_on,5,0,0,,7,,,79,127
51358,note_off,95,0,0,,10,,,45,127
51358,note_off,0,0,0,,10,,,57,127
51360,note_off,2,0,0,,7,,,79,127
51365,note_on,5,0,0,,12,,,59,127
51365,note_on,0,0,0,,12,,,47,127
51365,note_on,0,0,0,,6,,,78,127
51462,note_off,97,0,0,,6,,,78,127
51464,note_on,2,0,0,,4,,,76,127
51561,note_off,97,0,0,,4,,,76,127
51566,note_on,5,0,0,,2,,,74,127
51661,note_off,95,0,0,,12,,,47,127
51661,note_off,0,0,0,,12,,,59,127
51663,note_off,2,0,0,,2,,,74,127
51666,note_on,3,0,0,,0,,,60,127
51666,note_on,0,0,0,,0,,,48,127
51666,note_on,0,0,0,,0,,,72,127
51763,note_off,97,0,0,,0,,,72,127
51766,note_on,3,0,0,,12,,,71,127
51863,note_off,97,0,0,,12,,,71,127
51868,note_on,5,0,0,,10,,,69,127
51962,note_off,94,0,0,,0,,,48,127
51962,note_off,0,0,0,,0,,,60,127
51965,note_off,3,0,0,,10,,,69,127
51967,note_on,2,0,0,,2,,,50,127
51967,note_on,0,0,0,,7,,,67,127
52262,note_off,295,0,0,,2,,,50,127
52268,note_on,6,0,0,,2,,,38,127
52320,note_on,52,0,0,,6,,,66,127
52323,note_off,3,0,0,,7,,,67,127
52368,note_off,45,0,0,,6,,,66,127
52370,note_on,2,0,0,,7,,,67,127
52418,note_off,48,0,0,,7,,,67,127
52420,note_on,2,0,0,,6,,,66,127
52468,note_off,48,0,0,,6,,,66,127
52473,note_on,5,0,0,,4,,,64,127
52521,note_off,48,0,0,,4,,,64,127
52523,note_on,2,0,0,,6,,,66,127
52566,note_off,43,0,0,,2,,,38,127
52571,note_off,5,0,0,,6,,,66,127
52573,note_on,2,0,0,,7,,,31,127
52573,note_on,0,0,0,,7,,,67,127
54362,note_off,1789,0,0,,7,,,67,127
54362,note_off,0,0,0,,7,,,31,127
58368,end_of_track,4006,1,0,,,,,,
