tick,type,time,meta,track,program,channel,pitch,tempo,note,velocity
0,copyright,0,1,0,,,,,,
0,program_change,0,0,0,6,0,,,,
0,pitchwheel,0,0,0,,0,0,,,
0,program_change,0,0,0,6,1,,,,
0,pitchwheel,0,0,0,,1,-590,,,
0,program_change,0,0,0,6,2,,,,
0,pitchwheel,0,0,0,,2,-272,,,
0,program_change,0,0,0,6,3,,,,
0,pitchwheel,0,0,0,,3,-353,,,
0,program_change,0,0,0,6,4,,,,
0,pitchwheel,0,0,0,,4,-560,,,
0,program_change,0,0,0,6,5,,,,
0,pitchwheel,0,0,0,,5,-80,,,
0,program_change,0,0,0,6,6,,,,
0,pitchwheel,0,0,0,,6,-625,,,
0,program_change,0,0,0,6,7,,,,
0,pitchwheel,0,0,0,,7,-130,,,
0,program_change,0,0,0,6,8,,,,
0,pitchwheel,0,0,0,,8,-512,,,
0,program_change,0,0,0,6,10,,,,
0,pitchwheel,0,0,0,,10,-464,,,
0,program_change,0,0,0,6,11,,,,
0,pitchwheel,0,0,0,,11,-208,,,
0,program_change,0,0,0,6,12,,,,
0,pitchwheel,0,0,0,,12,-553,,,
0,set_tempo,0,1,0,,,,500000,,
35,note_on,35,0,0,,0,,,84,127
103,note_off,68,0,0,,0,,,84,127
105,note_on,2,0,0,,11,,,82,127
173,note_off,68,0,0,,11,,,82,127
175,note_on,2,0,0,,0,,,84,127
243,note_off,68,0,0,,0,,,84,127
245,note_on,2,0,0,,11,,,82,127
313,note_off,68,0,0,,11,,,82,127
315,note_on,2,0,0,,0,,,84,127
383,note_off,68,0,0,,0,,,84,127
385,note_on,2,0,0,,11,,,82,127
453,note_off,68,0,0,,11,,,82,127
455,note_on,2,0,0,,7,,,79,127
523,note_off,68,0,0,,7,,,79,127
525,note_on,2,0,0,,5,,,77,127
593,note_off,68,0,0,,5,,,77,127
595,note_on,2,0,0,,7,,,79,127
663,note_off,68,0,0,,7,,,79,127
665,note_on,2,0,0,,5,,,77,127
733,note_off,68,0,0,,5,,,77,127
735,note_on,2,0,0,,7,,,79,127
803,note_off,68,0,0,,7,,,79,127
805,note_on,2,0,0,,5,,,77,127
873,note_off,68,0,0,,5,,,77,127
875,note_on,2,0,0,,3,,,75,127
943,note_off,68,0,0,,3,,,75,127
945,note_on,2,0,0,,2,,,74,127
1013,note_off,68,0,0,,2,,,74,127
1015,note_on,2,0,0,,3,,,75,127
1083,note_off,68,0,0,,3,,,75,127
1085,note_on,2,0,0,,2,,,74,127
1153,note_off,68,0,0,,2,,,74,127
1155,note_on,2,0,0,,3,,,75,127
1223,note_off,68,0,0,,3,,,75,127
1225,note_on,2,0,0,,2,,,74,127
1293,note_off,68,0,0,,2,,,74,127
1295,note_on,2,0,0,,0,,,72,127
1363,note_off,68,0,0,,0,,,72,127
1365,note_on,2,0,0,,11,,,70,127
1433,note_off,68,0,0,,11,,,70,127
1435,note_on,2,0,0,,0,,,72,127
1503,note_off,68,0,0,,0,,,72,127
1505,note_on,2,0,0,,11,,,70,127
1573,note_off,68,0,0,,11,,,70,127
1575,note_on,2,0,0,,0,,,72,127
1643,note_off,68,0,0,,0,,,72,127
1645,note_on,2,0,0,,11,,,70,127
1713,note_off,68,0,0,,11,,,70,127
1715,note_on,2,0,0,,5,,,65,127
1924,note_on,209,0,0,,12,,,71,127
2131,note_off,207,0,0,,12,,,71,127
2133,note_on,2,0,0,,0,,,72,127
2236,note_off,103,0,0,,5,,,65,127
2238,note_on,2,0,0,,3,,,63,127
2341,note_off,103,0,0,,3,,,63,127
2343,note_on,2,0,0,,2,,,62,127
2446,note_off,103,0,0,,2,,,62,127
2448,note_on,2,0,0,,0,,,60,127
2551,note_off,103,0,0,,0,,,60,127
2553,note_on,2,0,0,,11,,,58,127
2760,note_off,207,0,0,,0,,,72,127
2762,note_on,2,0,0,,1,,,73,127
2969,note_off,207,0,0,,1,,,73,127
2971,note_on,2,0,0,,2,,,74,127
3074,note_off,103,0,0,,11,,,58,127
3076,note_on,2,0,0,,10,,,57,127
3179,note_off,103,0,0,,10,,,57,127
3181,note_on,2,0,0,,7,,,55,127
3284,note_off,103,0,0,,7,,,55,127
3286,note_on,2,0,0,,5,,,53,127
3389,note_off,103,0,0,,5,,,53,127
3391,note_on,2,0,0,,3,,,51,127
3494,note_off,103,0,0,,2,,,74,127
3496,note_on,2,0,0,,3,,,75,127
3599,note_off,103,0,0,,3,,,75,127
3601,note_on,2,0,0,,5,,,77,127
3704,note_off,103,0,0,,5,,,77,127
3706,note_on,2,0,0,,7,,,79,127
3809,note_off,103,0,0,,7,,,79,127
3809,note_off,0,0,0,,3,,,51,127
3811,note_on,2,0,0,,5,,,53,127
3811,note_on,0,0,0,,5,,,77,127
3914,note_off,103,0,0,,5,,,77,127
3916,note_on,2,0,0,,3,,,75,127
4019,note_off,103,0,0,,3,,,75,127
4021,note_on,2,0,0,,2,,,74,127
4124,note_off,103,0,0,,2,,,74,127
4126,note_on,2,0,0,,0,,,72,127
4229,note_off,103,0,0,,0,,,72,127
4229,note_off,0,0,0,,5,,,53,127
4231,note_on,2,0,0,,11,,,58,127
4231,note_on,0,0,0,,11,,,70,127
4438,note_off,207,0,0,,11,,,70,127
4438,note_off,0,0,0,,11,,,58,127
4440,note_on,2,0,0,,5,,,65,127
4440,note_on,0,0,0,,12,,,71,127
4647,note_off,207,0,0,,12,,,71,127
4649,note_on,2,0,0,,0,,,72,127
4752,note_off,103,0,0,,5,,,65,127
4754,note_on,2,0,0,,3,,,63,127
4857,note_off,103,0,0,,3,,,63,127
4859,note_on,2,0,0,,2,,,62,127
4962,note_off,103,0,0,,2,,,62,127
4964,note_on,2,0,0,,0,,,60,127
5067,note_off,103,0,0,,0,,,60,127
5069,note_on,2,0,0,,11,,,58,127
5276,note_off,207,0,0,,0,,,72,127
5278,note_on,2,0,0,,1,,,73,127
5485,note_off,207,0,0,,1,,,73,127
5487,note_on,2,0,0,,2,,,74,127
5590,note_off,103,0,0,,11,,,58,127
5592,note_on,2,0,0,,10,,,57,127
5695,note_off,103,0,0,,10,,,57,127
5697,note_on,2,0,0,,7,,,55,127
5800,note_off,103,0,0,,7,,,55,127
5802,note_on,2,0,0,,5,,,53,127
5905,note_off,103,0,0,,5,,,53,127
5907,note_on,2,0,0,,3,,,51,127
6010,note_off,103,0,0,,2,,,74,127
6012,note_on,2,0,0,,3,,,75,127
6115,note_off,103,0,0,,3,,,75,127
6117,note_on,2,0,0,,5,,,77,127
6220,note_off,103,0,0,,5,,,77,127
6222,note_on,2,0,0,,7,,,79,127
6325,note_off,103,0,0,,7,,,79,127
6325,note_off,0,0,0,,3,,,51,127
6327,note_on,2,0,0,,5,,,53,127
6327,note_on,0,0,0,,5,,,77,127
6430,note_off,103,0,0,,5,,,77,127
6432,note_on,2,0,0,,3,,,75,127
6535,note_off,103,0,0,,3,,,75,127
6537,note_on,2,0,0,,2,,,74,127
6640,note_off,103,0,0,,2,,,74,127
6642,note_on,2,0,0,,0,,,72,127
6745,note_off,103,0,0,,0,,,72,127
6745,note_off,0,0,0,,5,,,53,127
6747,note_on,2,0,0,,11,,,46,127
6747,note_on,0,0,0,,2,,,74,127
6850,note_off,103,0,0,,2,,,74,127
6852,note_on,2,0,0,,11,,,82,127
6955,note_off,103,0,0,,11,,,82,127
6957,note_on,2,0,0,,11,,,70,127
7060,note_off,103,0,0,,11,,,70,127
7062,note_on,2,0,0,,11,,,70,127
7165,note_off,103,0,0,,11,,,70,127
7165,note_off,0,0,0,,11,,,46,127
7167,note_on,2,0,0,,2,,,50,127
7167,note_on,0,0,0,,11,,,70,127
7270,note_off,103,0,0,,11,,,70,127
7272,note_on,2,0,0,,10,,,69,127
7375,note_off,103,0,0,,10,,,69,127
7377,note_on,2,0,0,,7,,,67,127
7480,note_off,103,0,0,,7,,,67,127
7482,note_on,2,0,0,,5,,,65,127
7585,note_off,103,0,0,,5,,,65,127
7585,note_off,0,0,0,,2,,,50,127
7587,note_on,2,0,0,,3,,,51,127
7587,note_on,0,0,0,,7,,,67,127
7690,note_off,103,0,0,,7,,,67,127
7692,note_on,2,0,0,,7,,,79,127
7795,note_off,103,0,0,,7,,,79,127
7797,note_on,2,0,0,,5,,,77,127
7900,note_off,103,0,0,,5,,,77,127
7902,note_on,2,0,0,,3,,,75,127
8005,note_off,103,0,0,,3,,,75,127
8005,note_off,0,0,0,,3,,,51,127
8007,note_on,2,0,0,,5,,,53,127
8007,note_on,0,0,0,,2,,,74,127
8110,note_off,103,0,0,,2,,,74,127
8112,note_on,2,0,0,,0,,,72,127
8215,note_off,103,0,0,,0,,,72,127
8217,note_on,2,0,0,,11,,,70,127
8320,note_off,103,0,0,,11,,,70,127
8322,note_on,2,0,0,,10,,,69,127
8425,note_off,103,0,0,,10,,,69,127
8425,note_off,0,0,0,,5,,,53,127
8427,note_on,2,0,0,,11,,,46,127
8427,note_on,0,0,0,,11,,,70,127
8530,note_off,103,0,0,,11,,,70,127
8532,note_on,2,0,0,,11,,,82,127
8635,note_off,103,0,0,,11,,,82,127
8637,note_on,2,0,0,,11,,,70,127
8740,note_off,103,0,0,,11,,,70,127
8742,note_on,2,0,0,,11,,,70,127
8845,note_off,103,0,0,,11,,,70,127
8845,note_off,0,0,0,,11,,,46,127
8847,note_on,2,0,0,,2,,,50,127
8847,note_on,0,0,0,,11,,,70,127
8950,note_off,103,0,0,,11,,,70,127
8952,note_on,2,0,0,,10,,,69,127
9055,note_off,103,0,0,,10,,,69,127
9057,note_on,2,0,0,,7,,,67,127
9160,note_off,103,0,0,,7,,,67,127
9162,note_on,2,0,0,,5,,,65,127
9265,note_off,103,0,0,,5,,,65,127
9265,note_off,0,0,0,,2,,,50,127
9267,note_on,2,0,0,,3,,,51,127
9267,note_on,0,0,0,,7,,,67,127
9370,note_off,103,0,0,,7,,,67,127
9372,note_on,2,0,0,,7,,,79,127
9475,note_off,103,0,0,,7,,,79,127
9477,note_on,2,0,0,,5,,,77,127
9580,note_off,103,0,0,,5,,,77,127
9582,note_on,2,0,0,,3,,,75,127
9685,note_off,103,0,0,,3,,,75,127
9685,note_off,0,0,0,,3,,,51,127
9687,note_on,2,0,0,,5,,,53,127
9687,note_on,0,0,0,,2,,,74,127
9790,note_off,103,0,0,,2,,,74,127
9792,note_on,2,0,0,,0,,,72,127
9895,note_off,103,0,0,,0,,,72,127
9897,note_on,2,0,0,,11,,,70,127
10000,note_off,103,0,0,,11,,,70,127
10002,note_on,2,0,0,,10,,,69,127
10105,note_off,103,0,0,,10,,,69,127
10105,note_off,0,0,0,,5,,,53,127
10107,note_on,2,0,0,,11,,,58,127
10107,note_on,0,0,0,,11,,,70,127
10210,note_off,103,0,0,,11,,,70,127
10210,note_off,0,0,0,,11,,,58,127
10212,note_on,2,0,0,,11,,,70,127
10317,note_on,105,0,0,,11,,,58,127
10420,note_off,103,0,0,,11,,,58,127
10422,note_on,2,0,0,,11,,,58,127
10525,note_off,103,0,0,,11,,,58,127
10527,note_on,2,0,0,,11,,,58,127
10627,note_off,100,0,0,,11,,,70,127
10629,note_off,2,0,0,,11,,,58,127
10631,note_on,2,0,0,,10,,,69,127
10734,note_off,103,0,0,,10,,,69,127
10736,note_on,2,0,0,,7,,,67,127
10839,note_off,103,0,0,,7,,,67,127
10841,note_on,2,0,0,,6,,,66,127
10944,note_off,103,0,0,,6,,,66,127
10946,note_on,2,0,0,,7,,,55,127
11049,note_off,103,0,0,,7,,,55,127
11051,note_on,2,0,0,,7,,,67,127
11154,note_off,103,0,0,,7,,,67,127
11156,note_on,2,0,0,,5,,,65,127
11156,note_on,0,0,0,,7,,,79,127
11259,note_off,103,0,0,,5,,,65,127
11261,note_on,2,0,0,,3,,,63,127
11364,note_off,103,0,0,,3,,,63,127
11366,note_on,2,0,0,,2,,,62,127
11469,note_off,103,0,0,,2,,,62,127
11471,note_on,2,0,0,,0,,,60,127
11574,note_off,103,0,0,,0,,,60,127
11574,note_off,0,0,0,,7,,,79,127
11576,note_on,2,0,0,,11,,,58,127
11576,note_on,0,0,0,,5,,,77,127
11679,note_off,103,0,0,,5,,,77,127
11679,note_off,0,0,0,,11,,,58,127
11681,note_on,2,0,0,,10,,,57,127
11681,note_on,0,0,0,,3,,,75,127
11784,note_off,103,0,0,,3,,,75,127
11784,note_off,0,0,0,,10,,,57,127
11786,note_on,2,0,0,,11,,,58,127
11786,note_on,0,0,0,,2,,,74,127
11889,note_off,103,0,0,,11,,,58,127
11891,note_on,2,0,0,,11,,,70,127
11994,note_off,103,0,0,,11,,,70,127
11996,note_on,2,0,0,,11,,,58,127
12099,note_off,103,0,0,,11,,,58,127
12101,note_on,2,0,0,,11,,,58,127
12204,note_off,103,0,0,,11,,,58,127
12206,note_on,2,0,0,,11,,,58,127
12307,note_off,101,0,0,,2,,,74,127
12308,note_off,1,0,0,,11,,,58,127
12310,note_on,2,0,0,,10,,,69,127
12413,note_off,103,0,0,,10,,,69,127
12415,note_on,2,0,0,,7,,,67,127
12518,note_off,103,0,0,,7,,,67,127
12520,note_on,2,0,0,,6,,,66,127
12623,note_off,103,0,0,,6,,,66,127
12625,note_on,2,0,0,,7,,,55,127
12728,note_off,103,0,0,,7,,,55,127
12730,note_on,2,0,0,,7,,,67,127
12833,note_off,103,0,0,,7,,,67,127
12835,note_on,2,0,0,,5,,,65,127
12835,note_on,0,0,0,,7,,,79,127
12938,note_off,103,0,0,,5,,,65,127
12940,note_on,2,0,0,,3,,,63,127
13043,note_off,103,0,0,,3,,,63,127
13045,note_on,2,0,0,,2,,,62,127
13148,note_off,103,0,0,,2,,,62,127
13150,note_on,2,0,0,,0,,,60,127
13253,note_off,103,0,0,,0,,,60,127
13253,note_off,0,0,0,,7,,,79,127
13255,note_on,2,0,0,,11,,,58,127
13255,note_on,0,0,0,,5,,,77,127
13358,note_off,103,0,0,,5,,,77,127
13358,note_off,0,0,0,,11,,,58,127
13360,note_on,2,0,0,,10,,,57,127
13360,note_on,0,0,0,,3,,,75,127
13463,note_off,103,0,0,,3,,,75,127
13463,note_off,0,0,0,,10,,,57,127
13465,note_on,2,0,0,,11,,,58,127
13465,note_on,0,0,0,,2,,,74,127
13672,note_off,207,0,0,,2,,,74,127
13674,note_on,2,0,0,,5,,,77,127
13881,note_off,207,0,0,,5,,,77,127
13883,note_on,2,0,0,,3,,,75,127
13986,note_off,103,0,0,,3,,,75,127
13988,note_off,2,0,0,,11,,,58,127
13988,note_on,0,0,0,,2,,,74,127
14091,note_off,103,0,0,,2,,,74,127
14093,note_on,2,0,0,,11,,,58,127
14093,note_on,0,0,0,,0,,,72,127
14196,note_off,103,0,0,,0,,,72,127
14198,note_on,2,0,0,,11,,,70,127
14301,note_off,103,0,0,,11,,,70,127
14301,note_off,0,0,0,,11,,,58,127
14303,note_on,2,0,0,,0,,,60,127
14303,note_on,0,0,0,,10,,,69,127
14510,note_off,207,0,0,,0,,,60,127
14512,note_on,2,0,0,,3,,,63,127
14719,note_off,207,0,0,,3,,,63,127
14719,note_off,0,0,0,,10,,,69,127
14721,note_on,2,0,0,,2,,,62,127
14721,note_on,0,0,0,,0,,,72,127
14789,note_off,68,0,0,,0,,,72,127
14791,note_on,2,0,0,,11,,,70,127
14859,note_off,68,0,0,,11,,,70,127
14861,note_on,2,0,0,,0,,,72,127
14929,note_off,68,0,0,,0,,,72,127
14929,note_off,0,0,0,,2,,,62,127
14931,note_on,2,0,0,,11,,,58,127
14931,note_on,0,0,0,,11,,,70,127
14999,note_off,68,0,0,,11,,,70,127
15001,note_on,2,0,0,,10,,,69,127
15069,note_off,68,0,0,,10,,,69,127
15071,note_on,2,0,0,,11,,,70,127
15139,note_off,68,0,0,,11,,,70,127
15139,note_off,0,0,0,,11,,,58,127
15141,note_on,2,0,0,,5,,,53,127
15141,note_on,0,0,0,,0,,,72,127
15348,note_off,207,0,0,,0,,,72,127
15350,note_on,2,0,0,,2,,,74,127
15418,note_off,68,0,0,,2,,,74,127
15420,note_on,2,0,0,,3,,,75,127
15488,note_off,68,0,0,,3,,,75,127
15490,note_on,2,0,0,,5,,,77,127
15558,note_off,68,0,0,,5,,,77,127
15560,note_on,2,0,0,,2,,,74,127
15665,note_off,105,0,0,,5,,,53,127
15768,note_off,103,0,0,,2,,,74,127
15770,note_on,2,0,0,,11,,,58,127
15770,note_on,0,0,0,,0,,,72,127
15873,note_off,103,0,0,,0,,,72,127
15875,note_on,2,0,0,,11,,,70,127
15978,note_off,103,0,0,,11,,,70,127
15978,note_off,0,0,0,,11,,,58,127
15980,note_on,2,0,0,,0,,,60,127
15980,note_on,0,0,0,,11,,,70,127
16187,note_off,207,0,0,,11,,,70,127
16187,note_off,0,0,0,,0,,,60,127
16189,note_on,2,0,0,,3,,,63,127
16189,note_on,0,0,0,,10,,,69,127
16396,note_off,207,0,0,,10,,,69,127
16396,note_off,0,0,0,,3,,,63,127
16398,note_on,2,0,0,,2,,,62,127
16398,note_on,0,0,0,,0,,,72,127
16466,note_off,68,0,0,,0,,,72,127
16468,note_on,2,0,0,,11,,,70,127
16536,note_off,68,0,0,,11,,,70,127
16538,note_on,2,0,0,,0,,,72,127
16606,note_off,68,0,0,,0,,,72,127
16606,note_off,0,0,0,,2,,,62,127
16608,note_on,2,0,0,,11,,,58,127
16608,note_on,0,0,0,,11,,,70,127
16676,note_off,68,0,0,,11,,,70,127
16678,note_on,2,0,0,,10,,,69,127
16746,note_off,68,0,0,,10,,,69,127
16748,note_on,2,0,0,,11,,,70,127
16816,note_off,68,0,0,,11,,,70,127
16816,note_off,0,0,0,,11,,,58,127
16818,note_on,2,0,0,,5,,,53,127
16818,note_on,0,0,0,,11,,,70,127
17025,note_off,207,0,0,,11,,,70,127
17027,note_on,2,0,0,,0,,,72,127
17236,note_on,209,0,0,,5,,,41,127
17391,note_off,155,0,0,,0,,,72,127
17446,note_on,55,0,0,,5,,,77,127
17629,note_off,183,0,0,,5,,,41,127
17653,note_off,24,0,0,,5,,,77,127
17654,note_off,1,0,0,,5,,,53,127
17655,note_on,1,0,0,,7,,,79,127
17655,note_on,0,0,0,,5,,,77,127
17758,note_off,103,0,0,,5,,,77,127
17758,note_off,0,0,0,,7,,,79,127
17760,note_on,2,0,0,,4,,,76,127
17863,note_off,103,0,0,,4,,,76,127
17865,note_on,2,0,0,,5,,,65,127
17865,note_on,0,0,0,,5,,,77,127
18072,note_off,207,0,0,,5,,,77,127
18072,note_off,0,0,0,,5,,,65,127
18074,note_on,2,0,0,,8,,,68,127
18074,note_on,0,0,0,,7,,,79,127
18074,note_on,0,0,0,,5,,,77,127
18177,note_off,103,0,0,,5,,,77,127
18177,note_off,0,0,0,,7,,,79,127
18179,note_on,2,0,0,,4,,,76,127
18282,note_off,103,0,0,,4,,,76,127
18282,note_off,0,0,0,,8,,,68,127
18284,note_on,2,0,0,,7,,,67,127
18284,note_on,0,0,0,,5,,,77,127
18491,note_off,207,0,0,,5,,,77,127
18491,note_off,0,0,0,,7,,,67,127
18493,note_on,2,0,0,,5,,,65,127
18493,note_on,0,0,0,,5,,,77,127
18493,note_on,0,0,0,,7,,,79,127
18596,note_off,103,0,0,,7,,,79,127
18596,note_off,0,0,0,,5,,,77,127
18598,note_on,2,0,0,,4,,,76,127
18701,note_off,103,0,0,,4,,,76,127
18701,note_off,0,0,0,,5,,,65,127
18703,note_on,2,0,0,,3,,,63,127
18703,note_on,0,0,0,,5,,,77,127
18910,note_off,207,0,0,,5,,,77,127
18910,note_off,0,0,0,,3,,,63,127
18912,note_on,2,0,0,,1,,,61,127
18912,note_on,0,0,0,,7,,,79,127
18912,note_on,0,0,0,,5,,,77,127
19015,note_off,103,0,0,,5,,,77,127
19015,note_off,0,0,0,,7,,,79,127
19017,note_on,2,0,0,,4,,,76,127
19120,note_off,103,0,0,,4,,,76,127
19120,note_off,0,0,0,,1,,,61,127
19122,note_on,2,0,0,,0,,,60,127
19122,note_on,0,0,0,,5,,,77,127
19329,note_off,207,0,0,,5,,,77,127
19329,note_off,0,0,0,,0,,,60,127
19331,note_on,2,0,0,,11,,,58,127
19331,note_on,0,0,0,,7,,,79,127
19331,note_on,0,0,0,,5,,,77,127
19434,note_off,103,0,0,,5,,,77,127
19434,note_off,0,0,0,,7,,,79,127
19436,note_on,2,0,0,,4,,,76,127
19539,note_off,103,0,0,,4,,,76,127
19541,note_on,2,0,0,,5,,,77,127
19855,note_off,314,0,0,,5,,,77,127
19855,note_off,0,0,0,,11,,,58,127
19960,note_on,105,0,0,,5,,,77,127
20167,note_off,207,0,0,,5,,,77,127
20169,note_on,2,0,0,,7,,,79,127
20169,note_on,0,0,0,,5,,,77,127
20272,note_off,103,0,0,,5,,,77,127
20272,note_off,0,0,0,,7,,,79,127
20274,note_on,2,0,0,,4,,,76,127
20377,note_off,103,0,0,,4,,,76,127
20379,note_on,2,0,0,,5,,,65,127
20379,note_on,0,0,0,,5,,,77,127
20586,note_off,207,0,0,,5,,,77,127
20586,note_off,0,0,0,,5,,,65,127
20588,note_on,2,0,0,,8,,,68,127
20588,note_on,0,0,0,,7,,,79,127
20588,note_on,0,0,0,,5,,,77,127
20691,note_off,103,0,0,,5,,,77,127
20691,note_off,0,0,0,,7,,,79,127
20693,note_on,2,0,0,,4,,,76,127
20796,note_off,103,0,0,,4,,,76,127
20796,note_off,0,0,0,,8,,,68,127
20798,note_on,2,0,0,,7,,,67,127
20798,note_on,0,0,0,,5,,,77,127
21005,note_off,207,0,0,,5,,,77,127
21005,note_off,0,0,0,,7,,,67,127
21007,note_on,2,0,0,,5,,,65,127
21007,note_on,0,0,0,,5,,,77,127
21007,note_on,0,0,0,,7,,,79,127
21110,note_off,103,0,0,,7,,,79,127
21110,note_off,0,0,0,,5,,,77,127
21112,note_on,2,0,0,,4,,,76,127
21215,note_off,103,0,0,,4,,,76,127
21215,note_off,0,0,0,,5,,,65,127
21217,note_on,2,0,0,,3,,,63,127
21217,note_on,0,0,0,,5,,,77,127
21424,note_off,207,0,0,,5,,,77,127
21424,note_off,0,0,0,,3,,,63,127
21426,note_on,2,0,0,,2,,,62,127
21426,note_on,0,0,0,,5,,,77,127
21426,note_on,0,0,0,,7,,,79,127
21529,note_off,103,0,0,,7,,,79,127
21529,note_off,0,0,0,,5,,,77,127
21531,note_on,2,0,0,,4,,,76,127
21634,note_off,103,0,0,,4,,,76,127
21634,note_off,0,0,0,,2,,,62,127
21636,note_on,2,0,0,,0,,,60,127
21636,note_on,0,0,0,,5,,,77,127
21843,note_off,207,0,0,,5,,,77,127
21843,note_off,0,0,0,,0,,,60,127
21845,note_on,2,0,0,,12,,,59,127
21845,note_on,0,0,0,,7,,,79,127
21845,note_on,0,0,0,,5,,,77,127
21948,note_off,103,0,0,,5,,,77,127
21948,note_off,0,0,0,,7,,,79,127
21950,note_on,2,0,0,,4,,,76,127
22053,note_off,103,0,0,,4,,,76,127
22055,note_on,2,0,0,,5,,,77,127
22369,note_off,314,0,0,,5,,,77,127
22369,note_off,0,0,0,,12,,,59,127
22474,note_on,105,0,0,,5,,,77,127
22681,note_off,207,0,0,,5,,,77,127
22683,note_on,2,0,0,,7,,,79,127
22683,note_on,0,0,0,,5,,,77,127
22786,note_off,103,0,0,,5,,,77,127
22786,note_off,0,0,0,,7,,,79,127
22788,note_on,2,0,0,,4,,,76,127
22891,note_off,103,0,0,,4,,,76,127
22893,note_on,2,0,0,,5,,,65,127
22893,note_on,0,0,0,,5,,,77,127
23100,note_off,207,0,0,,5,,,77,127
23100,note_off,0,0,0,,5,,,65,127
23102,note_on,2,0,0,,10,,,69,127
23102,note_on,0,0,0,,5,,,77,127
23102,note_on,0,0,0,,7,,,79,127
23205,note_off,103,0,0,,7,,,79,127
23205,note_off,0,0,0,,5,,,77,127
23207,note_on,2,0,0,,4,,,76,127
23310,note_off,103,0,0,,4,,,76,127
23310,note_off,0,0,0,,10,,,69,127
23312,note_on,2,0,0,,7,,,67,127
23312,note_on,0,0,0,,5,,,77,127
23519,note_off,207,0,0,,5,,,77,127
23519,note_off,0,0,0,,7,,,67,127
23521,note_on,2,0,0,,5,,,65,127
23521,note_on,0,0,0,,5,,,77,127
23521,note_on,0,0,0,,7,,,79,127
23624,note_off,103,0,0,,7,,,79,127
23624,note_off,0,0,0,,5,,,77,127
23626,note_on,2,0,0,,4,,,76,127
23729,note_off,103,0,0,,4,,,76,127
23729,note_off,0,0,0,,5,,,65,127
23731,note_on,2,0,0,,4,,,64,127
23731,note_on,0,0,0,,5,,,77,127
23938,note_off,207,0,0,,5,,,77,127
23938,note_off,0,0,0,,4,,,64,127
23940,note_on,2,0,0,,2,,,62,127
23940,note_on,0,0,0,,7,,,79,127
23940,note_on,0,0,0,,5,,,77,127
24043,note_off,103,0,0,,5,,,77,127
24043,note_off,0,0,0,,7,,,79,127
24045,note_on,2,0,0,,4,,,76,127
24148,note_off,103,0,0,,4,,,76,127
24148,note_off,0,0,0,,2,,,62,127
24150,note_on,2,0,0,,1,,,61,127
24150,note_on,0,0,0,,5,,,77,127
24357,note_off,207,0,0,,5,,,77,127
24357,note_off,0,0,0,,1,,,61,127
24359,note_on,2,0,0,,2,,,62,127
24359,note_on,0,0,0,,5,,,77,127
24462,note_off,103,0,0,,5,,,77,127
24464,note_on,2,0,0,,7,,,79,127
24567,note_off,103,0,0,,7,,,79,127
24569,note_on,2,0,0,,10,,,81,127
24776,note_off,207,0,0,,10,,,81,127
24776,note_off,0,0,0,,2,,,62,127
24778,note_on,2,0,0,,7,,,55,127
24778,note_on,0,0,0,,7,,,79,127
24881,note_off,103,0,0,,7,,,79,127
24883,note_on,2,0,0,,5,,,77,127
24986,note_off,103,0,0,,5,,,77,127
24988,note_on,2,0,0,,4,,,76,127
25091,note_off,103,0,0,,4,,,76,127
25093,note_on,2,0,0,,2,,,74,127
25196,note_off,103,0,0,,2,,,74,127
25196,note_off,0,0,0,,7,,,55,127
25198,note_on,2,0,0,,10,,,57,127
25198,note_on,0,0,0,,2,,,74,127
25405,note_off,207,0,0,,2,,,74,127
25407,note_on,2,0,0,,10,,,69,127
25407,note_on,0,0,0,,1,,,73,127
25612,note_off,205,0,0,,10,,,57,127
25614,note_off,2,0,0,,1,,,73,127
25616,note_on,2,0,0,,11,,,58,127
25616,note_on,0,0,0,,4,,,76,127
25684,note_off,68,0,0,,4,,,76,127
25686,note_on,2,0,0,,2,,,74,127
25754,note_off,68,0,0,,2,,,74,127
25756,note_on,2,0,0,,4,,,76,127
25821,note_off,65,0,0,,10,,,69,127
25823,note_off,2,0,0,,4,,,76,127
25825,note_on,2,0,0,,7,,,67,127
25825,note_on,0,0,0,,2,,,74,127
25893,note_off,68,0,0,,2,,,74,127
25895,note_on,2,0,0,,1,,,73,127
25963,note_off,68,0,0,,1,,,73,127
25965,note_on,2,0,0,,2,,,74,127
26030,note_off,65,0,0,,11,,,58,127
26032,note_off,2,0,0,,2,,,74,127
26032,note_off,0,0,0,,7,,,67,127
26034,note_on,2,0,0,,10,,,57,127
26034,note_on,0,0,0,,4,,,76,127
26137,note_off,103,0,0,,4,,,76,127
26139,note_on,2,0,0,,10,,,81,127
26242,note_off,103,0,0,,10,,,81,127
26244,note_on,2,0,0,,10,,,69,127
26347,note_off,103,0,0,,10,,,69,127
26349,note_on,2,0,0,,10,,,69,127
26452,note_off,103,0,0,,10,,,69,127
26454,note_on,2,0,0,,10,,,69,127
26557,note_off,103,0,0,,10,,,69,127
26559,note_off,2,0,0,,10,,,57,127
26559,note_on,0,0,0,,7,,,67,127
26662,note_off,103,0,0,,7,,,67,127
26664,note_on,2,0,0,,1,,,61,127
26664,note_on,0,0,0,,5,,,65,127
26767,note_off,103,0,0,,5,,,65,127
26769,note_on,2,0,0,,4,,,64,127
26872,note_off,103,0,0,,4,,,64,127
26872,note_off,0,0,0,,1,,,61,127
26874,note_on,2,0,0,,2,,,62,127
26874,note_on,0,0,0,,5,,,65,127
26977,note_off,103,0,0,,5,,,65,127
26979,note_on,2,0,0,,10,,,81,127
27082,note_off,103,0,0,,10,,,81,127
27082,note_off,0,0,0,,2,,,62,127
27084,note_on,2,0,0,,10,,,57,127
27084,note_on,0,0,0,,10,,,69,127
27187,note_off,103,0,0,,10,,,69,127
27189,note_on,2,0,0,,10,,,69,127
27292,note_off,103,0,0,,10,,,69,127
27294,note_on,2,0,0,,10,,,69,127
27397,note_off,103,0,0,,10,,,69,127
27399,note_on,2,0,0,,7,,,67,127
27502,note_off,103,0,0,,7,,,67,127
27502,note_off,0,0,0,,10,,,57,127
27504,note_on,2,0,0,,10,,,57,127
27504,note_on,0,0,0,,5,,,65,127
27607,note_off,103,0,0,,5,,,65,127
27609,note_on,2,0,0,,4,,,64,127
27712,note_off,103,0,0,,4,,,64,127
27712,note_off,0,0,0,,10,,,57,127
27714,note_on,2,0,0,,2,,,50,127
27714,note_on,0,0,0,,5,,,65,127
27817,note_off,103,0,0,,2,,,50,127
27819,note_on,2,0,0,,2,,,62,127
27922,note_off,103,0,0,,2,,,62,127
27922,note_off,0,0,0,,5,,,65,127
27924,note_on,2,0,0,,2,,,50,127
27924,note_on,0,0,0,,10,,,81,127
28027,note_off,103,0,0,,2,,,50,127
28029,note_on,2,0,0,,2,,,50,127
28132,note_off,103,0,0,,2,,,50,127
28132,note_off,0,0,0,,10,,,81,127
28134,note_on,2,0,0,,2,,,50,127
28134,note_on,0,0,0,,2,,,74,127
28237,note_off,103,0,0,,2,,,50,127
28239,note_on,2,0,0,,0,,,60,127
28342,note_off,103,0,0,,0,,,60,127
28344,note_on,2,0,0,,11,,,58,127
28447,note_off,103,0,0,,11,,,58,127
28449,note_on,2,0,0,,10,,,57,127
28552,note_off,103,0,0,,10,,,57,127
28554,note_on,2,0,0,,11,,,46,127
28657,note_off,103,0,0,,11,,,46,127
28659,note_on,2,0,0,,11,,,58,127
28762,note_off,103,0,0,,11,,,58,127
28762,note_off,0,0,0,,2,,,74,127
28764,note_on,2,0,0,,11,,,46,127
28764,note_on,0,0,0,,2,,,86,127
28867,note_off,103,0,0,,11,,,46,127
28869,note_on,2,0,0,,11,,,46,127
28972,note_off,103,0,0,,11,,,46,127
28972,note_off,0,0,0,,2,,,86,127
28974,note_on,2,0,0,,11,,,46,127
28974,note_on,0,0,0,,2,,,74,127
29077,note_off,103,0,0,,11,,,46,127
29079,note_on,2,0,0,,10,,,57,127
29182,note_off,103,0,0,,10,,,57,127
29184,note_on,2,0,0,,7,,,55,127
29287,note_off,103,0,0,,7,,,55,127
29289,note_on,2,0,0,,6,,,54,127
29392,note_off,103,0,0,,6,,,54,127
29394,note_on,2,0,0,,7,,,55,127
29497,note_off,103,0,0,,7,,,55,127
29499,note_on,2,0,0,,10,,,57,127
29602,note_off,103,0,0,,10,,,57,127
29602,note_off,0,0,0,,2,,,74,127
29604,note_on,2,0,0,,11,,,58,127
29604,note_on,0,0,0,,2,,,74,127
29707,note_off,103,0,0,,11,,,58,127
29709,note_on,2,0,0,,10,,,57,127
29812,note_off,103,0,0,,10,,,57,127
29814,note_on,2,0,0,,7,,,55,127
29917,note_off,103,0,0,,7,,,55,127
29919,note_on,2,0,0,,5,,,53,127
30022,note_off,103,0,0,,5,,,53,127
30022,note_off,0,0,0,,2,,,74,127
30024,note_on,2,0,0,,4,,,52,127
30024,note_on,0,0,0,,7,,,79,127
30127,note_off,103,0,0,,4,,,52,127
30129,note_on,2,0,0,,2,,,50,127
30232,note_off,103,0,0,,2,,,50,127
30234,note_on,2,0,0,,1,,,49,127
30337,note_off,103,0,0,,1,,,49,127
30337,note_off,0,0,0,,7,,,79,127
30339,note_on,2,0,0,,12,,,47,127
30339,note_on,0,0,0,,4,,,76,127
30442,note_off,103,0,0,,4,,,76,127
30442,note_off,0,0,0,,12,,,47,127
30444,note_on,2,0,0,,10,,,45,127
30444,note_on,0,0,0,,5,,,77,127
30547,note_off,103,0,0,,5,,,77,127
30547,note_off,0,0,0,,10,,,45,127
30549,note_on,2,0,0,,7,,,43,127
30549,note_on,0,0,0,,7,,,79,127
30652,note_off,103,0,0,,7,,,79,127
30652,note_off,0,0,0,,7,,,43,127
30654,note_on,2,0,0,,5,,,41,127
30654,note_on,0,0,0,,10,,,81,127
30757,note_off,103,0,0,,10,,,81,127
30759,note_on,2,0,0,,2,,,74,127
30862,note_off,103,0,0,,2,,,74,127
30862,note_off,0,0,0,,5,,,41,127
30864,note_on,2,0,0,,7,,,43,127
30864,note_on,0,0,0,,7,,,79,127
30967,note_off,103,0,0,,7,,,79,127
30969,note_on,2,0,0,,4,,,76,127
31072,note_off,103,0,0,,4,,,76,127
31072,note_off,0,0,0,,7,,,43,127
31074,note_on,2,0,0,,10,,,45,127
31074,note_on,0,0,0,,5,,,77,127
31177,note_off,103,0,0,,5,,,77,127
31179,note_on,2,0,0,,10,,,81,127
31282,note_off,103,0,0,,10,,,81,127
31284,note_on,2,0,0,,2,,,86,127
31387,note_off,103,0,0,,2,,,86,127
31389,note_on,2,0,0,,5,,,77,127
31492,note_off,103,0,0,,5,,,77,127
31492,note_off,0,0,0,,10,,,45,127
31494,note_on,2,0,0,,10,,,45,127
31494,note_on,0,0,0,,4,,,76,127
31597,note_off,103,0,0,,4,,,76,127
31599,note_on,2,0,0,,10,,,81,127
31702,note_off,103,0,0,,10,,,81,127
31704,note_on,2,0,0,,2,,,74,127
31807,note_off,103,0,0,,2,,,74,127
31809,note_on,2,0,0,,1,,,73,127
31888,note_off,79,0,0,,10,,,45,127
31912,note_off,24,0,0,,1,,,73,127
31914,note_on,2,0,0,,2,,,74,127
32121,note_off,207,0,0,,2,,,74,127
32123,note_on,2,0,0,,2,,,62,127
32123,note_on,0,0,0,,2,,,74,127
32330,note_off,207,0,0,,2,,,74,127
32330,note_off,0,0,0,,2,,,62,127
32332,note_on,2,0,0,,5,,,65,127
32332,note_on,0,0,0,,2,,,74,127
32539,note_off,207,0,0,,2,,,74,127
32539,note_off,0,0,0,,5,,,65,127
32541,note_on,2,0,0,,3,,,63,127
32541,note_on,0,0,0,,2,,,74,127
32748,note_off,207,0,0,,2,,,74,127
32748,note_off,0,0,0,,3,,,63,127
32750,note_on,2,0,0,,2,,,62,127
32750,note_on,0,0,0,,2,,,74,127
32957,note_off,207,0,0,,2,,,74,127
32957,note_off,0,0,0,,2,,,62,127
32959,note_on,2,0,0,,0,,,60,127
32959,note_on,0,0,0,,2,,,74,127
33166,note_off,207,0,0,,2,,,74,127
33166,note_off,0,0,0,,0,,,60,127
33168,note_on,2,0,0,,12,,,59,127
33168,note_on,0,0,0,,2,,,74,127
33375,note_off,207,0,0,,2,,,74,127
33375,note_off,0,0,0,,12,,,59,127
33377,note_on,2,0,0,,8,,,56,127
33377,note_on,0,0,0,,2,,,74,127
33584,note_off,207,0,0,,2,,,74,127
33584,note_off,0,0,0,,8,,,56,127
33586,note_on,2,0,0,,7,,,55,127
33586,note_on,0,0,0,,2,,,74,127
33793,note_off,207,0,0,,2,,,74,127
33793,note_off,0,0,0,,7,,,55,127
33795,note_on,2,0,0,,2,,,62,127
33795,note_on,0,0,0,,2,,,74,127
34002,note_off,207,0,0,,2,,,74,127
34002,note_off,0,0,0,,2,,,62,127
34004,note_on,2,0,0,,5,,,65,127
34004,note_on,0,0,0,,2,,,74,127
34211,note_off,207,0,0,,2,,,74,127
34211,note_off,0,0,0,,5,,,65,127
34213,note_on,2,0,0,,3,,,63,127
34213,note_on,0,0,0,,2,,,74,127
34420,note_off,207,0,0,,2,,,74,127
34420,note_off,0,0,0,,3,,,63,127
34422,note_on,2,0,0,,2,,,62,127
34422,note_on,0,0,0,,2,,,74,127
34629,note_off,207,0,0,,2,,,74,127
34629,note_off,0,0,0,,2,,,62,127
34631,note_on,2,0,0,,0,,,60,127
34631,note_on,0,0,0,,2,,,74,127
34838,note_off,207,0,0,,2,,,74,127
34838,note_off,0,0,0,,0,,,60,127
34840,note_on,2,0,0,,12,,,59,127
34840,note_on,0,0,0,,2,,,74,127
35047,note_off,207,0,0,,2,,,74,127
35047,note_off,0,0,0,,12,,,59,127
35049,note_on,2,0,0,,8,,,56,127
35049,note_on,0,0,0,,2,,,74,127
35256,note_off,207,0,0,,2,,,74,127
35256,note_off,0,0,0,,8,,,56,127
35258,note_on,2,0,0,,7,,,55,127
35258,note_on,0,0,0,,2,,,74,127
35465,note_off,207,0,0,,2,,,74,127
35465,note_off,0,0,0,,7,,,55,127
35467,note_on,2,0,0,,2,,,62,127
35467,note_on,0,0,0,,2,,,74,127
35674,note_off,207,0,0,,2,,,74,127
35674,note_off,0,0,0,,2,,,62,127
35676,note_on,2,0,0,,5,,,65,127
35676,note_on,0,0,0,,2,,,74,127
35883,note_off,207,0,0,,2,,,74,127
35883,note_off,0,0,0,,5,,,65,127
35885,note_on,2,0,0,,3,,,63,127
35885,note_on,0,0,0,,2,,,74,127
36092,note_off,207,0,0,,2,,,74,127
36092,note_off,0,0,0,,3,,,63,127
36094,note_on,2,0,0,,2,,,62,127
36094,note_on,0,0,0,,2,,,74,127
36301,note_off,207,0,0,,2,,,74,127
36301,note_off,0,0,0,,2,,,62,127
36303,note_on,2,0,0,,0,,,60,127
36303,note_on,0,0,0,,2,,,74,127
36510,note_off,207,0,0,,2,,,74,127
36510,note_off,0,0,0,,0,,,60,127
36512,note_on,2,0,0,,11,,,58,127
36512,note_on,0,0,0,,2,,,74,127
36719,note_off,207,0,0,,2,,,74,127
36719,note_off,0,0,0,,11,,,58,127
36721,note_on,2,0,0,,10,,,57,127
36721,note_on,0,0,0,,2,,,74,127
36928,note_off,207,0,0,,2,,,74,127
36928,note_off,0,0,0,,10,,,57,127
36930,note_on,2,0,0,,11,,,58,127
36930,note_on,0,0,0,,2,,,74,127
37137,note_off,207,0,0,,2,,,74,127
37137,note_off,0,0,0,,11,,,58,127
37139,note_on,2,0,0,,2,,,62,127
37139,note_on,0,0,0,,2,,,74,127
37346,note_off,207,0,0,,2,,,74,127
37346,note_off,0,0,0,,2,,,62,127
37348,note_on,2,0,0,,5,,,65,127
37348,note_on,0,0,0,,2,,,74,127
37555,note_off,207,0,0,,2,,,74,127
37555,note_off,0,0,0,,5,,,65,127
37557,note_on,2,0,0,,4,,,64,127
37557,note_on,0,0,0,,2,,,74,127
37764,note_off,207,0,0,,2,,,74,127
37764,note_off,0,0,0,,4,,,64,127
37766,note_on,2,0,0,,2,,,62,127
37766,note_on,0,0,0,,2,,,74,127
37973,note_off,207,0,0,,2,,,74,127
37973,note_off,0,0,0,,2,,,62,127
37975,note_on,2,0,0,,0,,,60,127
37975,note_on,0,0,0,,2,,,74,127
38182,note_off,207,0,0,,2,,,74,127
38182,note_off,0,0,0,,0,,,60,127
38184,note_on,2,0,0,,12,,,59,127
38184,note_on,0,0,0,,2,,,74,127
38391,note_off,207,0,0,,2,,,74,127
38391,note_off,0,0,0,,12,,,59,127
38393,note_on,2,0,0,,10,,,57,127
38393,note_on,0,0,0,,2,,,74,127
38600,note_off,207,0,0,,2,,,74,127
38600,note_off,0,0,0,,10,,,57,127
38602,note_on,2,0,0,,8,,,56,127
38602,note_on,0,0,0,,4,,,64,127
38602,note_on,0,0,0,,2,,,62,127
38602,note_on,0,0,0,,2,,,74,127
38809,note_off,207,0,0,,2,,,62,127
38809,note_off,0,0,0,,4,,,64,127
38809,note_off,0,0,0,,8,,,56,127
38811,note_on,2,0,0,,4,,,64,127
38811,note_on,0,0,0,,2,,,62,127
38811,note_on,0,0,0,,8,,,56,127
38811,note_on,0,0,0,,2,,,86,127
39016,note_off,205,0,0,,2,,,74,127
39018,note_off,2,0,0,,8,,,56,127
39018,note_off,0,0,0,,2,,,62,127
39018,note_off,0,0,0,,4,,,64,127
39020,note_on,2,0,0,,8,,,56,127
39020,note_on,0,0,0,,4,,,64,127
39020,note_on,0,0,0,,2,,,62,127
39020,note_on,0,0,0,,2,,,74,127
39225,note_off,205,0,0,,2,,,86,127
39227,note_off,2,0,0,,2,,,74,127
39227,note_off,0,0,0,,2,,,62,127
39227,note_off,0,0,0,,4,,,64,127
39227,note_off,0,0,0,,8,,,56,127
39229,note_on,2,0,0,,8,,,56,127
39229,note_on,0,0,0,,4,,,64,127
39229,note_on,0,0,0,,2,,,62,127
39229,note_on,0,0,0,,2,,,86,127
39436,note_off,207,0,0,,2,,,86,127
39436,note_off,0,0,0,,2,,,62,127
39436,note_off,0,0,0,,4,,,64,127
39436,note_off,0,0,0,,8,,,56,127
39438,note_on,2,0,0,,10,,,57,127
39438,note_on,0,0,0,,4,,,64,127
39438,note_on,0,0,0,,1,,,85,127
39541,note_off,103,0,0,,1,,,85,127
39543,note_on,2,0,0,,11,,,82,127
39646,note_off,103,0,0,,11,,,82,127
39646,note_off,0,0,0,,10,,,57,127
39648,note_on,2,0,0,,1,,,61,127
39648,note_on,0,0,0,,10,,,81,127
39751,note_off,103,0,0,,10,,,81,127
39753,note_on,2,0,0,,7,,,79,127
39853,note_off,100,0,0,,4,,,64,127
39855,note_off,2,0,0,,7,,,79,127
39855,note_off,0,0,0,,1,,,61,127
39857,note_on,2,0,0,,2,,,62,127
39857,note_on,0,0,0,,7,,,79,127
39960,note_off,103,0,0,,7,,,79,127
39962,note_on,2,0,0,,5,,,77,127
40065,note_off,103,0,0,,5,,,77,127
40067,note_on,2,0,0,,5,,,53,127
40067,note_on,0,0,0,,4,,,76,127
40170,note_off,103,0,0,,4,,,76,127
40172,note_on,2,0,0,,2,,,74,127
40272,note_off,100,0,0,,2,,,62,127
40274,note_off,2,0,0,,2,,,74,127
40274,note_off,0,0,0,,5,,,53,127
40276,note_on,2,0,0,,7,,,55,127
40276,note_on,0,0,0,,4,,,76,127
40379,note_off,103,0,0,,4,,,76,127
40381,note_on,2,0,0,,7,,,79,127
40484,note_off,103,0,0,,7,,,79,127
40484,note_off,0,0,0,,7,,,55,127
40486,note_on,2,0,0,,7,,,55,127
40486,note_on,0,0,0,,5,,,77,127
40589,note_off,103,0,0,,5,,,77,127
40591,note_on,2,0,0,,4,,,76,127
40694,note_off,103,0,0,,4,,,76,127
40694,note_off,0,0,0,,7,,,55,127
40696,note_on,2,0,0,,10,,,57,127
40696,note_on,0,0,0,,5,,,77,127
40799,note_off,103,0,0,,5,,,77,127
40801,note_on,2,0,0,,10,,,81,127
40904,note_off,103,0,0,,10,,,81,127
40906,note_on,2,0,0,,10,,,45,127
40906,note_on,0,0,0,,2,,,74,127
41009,note_off,103,0,0,,2,,,74,127
41011,note_on,2,0,0,,1,,,73,127
41092,note_off,81,0,0,,10,,,45,127
41112,note_off,20,0,0,,10,,,57,127
41114,note_off,2,0,0,,1,,,73,127
41116,note_on,2,0,0,,2,,,74,127
41323,note_off,207,0,0,,2,,,74,127
41325,note_on,2,0,0,,2,,,62,127
41325,note_on,0,0,0,,2,,,74,127
41532,note_off,207,0,0,,2,,,74,127
41532,note_off,0,0,0,,2,,,62,127
41534,note_on,2,0,0,,5,,,65,127
41534,note_on,0,0,0,,2,,,74,127
41741,note_off,207,0,0,,2,,,74,127
41741,note_off,0,0,0,,5,,,65,127
41743,note_on,2,0,0,,3,,,63,127
41743,note_on,0,0,0,,2,,,74,127
41950,note_off,207,0,0,,2,,,74,127
41950,note_off,0,0,0,,3,,,63,127
41952,note_on,2,0,0,,2,,,62,127
41952,note_on,0,0,0,,2,,,74,127
42159,note_off,207,0,0,,2,,,74,127
42159,note_off,0,0,0,,2,,,62,127
42161,note_on,2,0,0,,0,,,60,127
42161,note_on,0,0,0,,5,,,77,127
42368,note_off,207,0,0,,5,,,77,127
42368,note_off,0,0,0,,0,,,60,127
42370,note_on,2,0,0,,12,,,59,127
42370,note_on,0,0,0,,4,,,76,127
42370,note_on,0,0,0,,2,,,74,127
42577,note_off,207,0,0,,2,,,74,127
42577,note_off,0,0,0,,4,,,76,127
42577,note_off,0,0,0,,12,,,59,127
42579,note_on,2,0,0,,8,,,56,127
42579,note_on,0,0,0,,5,,,77,127
42786,note_off,207,0,0,,5,,,77,127
42786,note_off,0,0,0,,8,,,56,127
42788,note_on,2,0,0,,7,,,55,127
42788,note_on,0,0,0,,2,,,74,127
42995,note_off,207,0,0,,2,,,74,127
42995,note_off,0,0,0,,7,,,55,127
42997,note_on,2,0,0,,2,,,62,127
42997,note_on,0,0,0,,2,,,74,127
43204,note_off,207,0,0,,2,,,74,127
43204,note_off,0,0,0,,2,,,62,127
43206,note_on,2,0,0,,5,,,65,127
43206,note_on,0,0,0,,2,,,74,127
43413,note_off,207,0,0,,2,,,74,127
43413,note_off,0,0,0,,5,,,65,127
43415,note_on,2,0,0,,3,,,63,127
43415,note_on,0,0,0,,2,,,74,127
43622,note_off,207,0,0,,2,,,74,127
43622,note_off,0,0,0,,3,,,63,127
43624,note_on,2,0,0,,2,,,62,127
43624,note_on,0,0,0,,2,,,74,127
43831,note_off,207,0,0,,2,,,74,127
43831,note_off,0,0,0,,2,,,62,127
43833,note_on,2,0,0,,0,,,60,127
43833,note_on,0,0,0,,5,,,77,127
44040,note_off,207,0,0,,5,,,77,127
44040,note_off,0,0,0,,0,,,60,127
44042,note_on,2,0,0,,12,,,59,127
44042,note_on,0,0,0,,4,,,76,127
44042,note_on,0,0,0,,2,,,74,127
44249,note_off,207,0,0,,2,,,74,127
44249,note_off,0,0,0,,4,,,76,127
44249,note_off,0,0,0,,12,,,59,127
44251,note_on,2,0,0,,8,,,56,127
44251,note_on,0,0,0,,5,,,77,127
44458,note_off,207,0,0,,5,,,77,127
44458,note_off,0,0,0,,8,,,56,127
44460,note_on,2,0,0,,7,,,55,127
44460,note_on,0,0,0,,2,,,74,127
44667,note_off,207,0,0,,2,,,74,127
44667,note_off,0,0,0,,7,,,55,127
44669,note_on,2,0,0,,2,,,62,127
44669,note_on,0,0,0,,2,,,74,127
44876,note_off,207,0,0,,2,,,74,127
44876,note_off,0,0,0,,2,,,62,127
44878,note_on,2,0,0,,5,,,65,127
44878,note_on,0,0,0,,2,,,74,127
45085,note_off,207,0,0,,2,,,74,127
45085,note_off,0,0,0,,5,,,65,127
45087,note_on,2,0,0,,3,,,63,127
45087,note_on,0,0,0,,2,,,74,127
45294,note_off,207,0,0,,2,,,74,127
45294,note_off,0,0,0,,3,,,63,127
45296,note_on,2,0,0,,2,,,62,127
45296,note_on,0,0,0,,2,,,74,127
45503,note_off,207,0,0,,2,,,74,127
45503,note_off,0,0,0,,2,,,62,127
45505,note_on,2,0,0,,0,,,60,127
45505,note_on,0,0,0,,5,,,77,127
45712,note_off,207,0,0,,5,,,77,127
45712,note_off,0,0,0,,0,,,60,127
45714,note_on,2,0,0,,11,,,58,127
45714,note_on,0,0,0,,3,,,75,127
45714,note_on,0,0,0,,2,,,74,127
45921,note_off,207,0,0,,2,,,74,127
45921,note_off,0,0,0,,3,,,75,127
45921,note_off,0,0,0,,11,,,58,127
45923,note_on,2,0,0,,10,,,57,127
45923,note_on,0,0,0,,5,,,77,127
46130,note_off,207,0,0,,5,,,77,127
46130,note_off,0,0,0,,10,,,57,127
46132,note_on,2,0,0,,11,,,58,127
46132,note_on,0,0,0,,2,,,74,127
46339,note_off,207,0,0,,2,,,74,127
46339,note_off,0,0,0,,11,,,58,127
46341,note_on,2,0,0,,2,,,62,127
46341,note_on,0,0,0,,2,,,74,127
46548,note_off,207,0,0,,2,,,74,127
46548,note_off,0,0,0,,2,,,62,127
46550,note_on,2,0,0,,5,,,65,127
46550,note_on,0,0,0,,2,,,74,127
46757,note_off,207,0,0,,2,,,74,127
46757,note_off,0,0,0,,5,,,65,127
46759,note_on,2,0,0,,4,,,64,127
46759,note_on,0,0,0,,2,,,74,127
46966,note_off,207,0,0,,2,,,74,127
46966,note_off,0,0,0,,4,,,64,127
46968,note_on,2,0,0,,2,,,62,127
46968,note_on,0,0,0,,2,,,74,127
47175,note_off,207,0,0,,2,,,74,127
47175,note_off,0,0,0,,2,,,62,127
47177,note_on,2,0,0,,0,,,60,127
47177,note_on,0,0,0,,5,,,77,127
47384,note_off,207,0,0,,5,,,77,127
47384,note_off,0,0,0,,0,,,60,127
47386,note_on,2,0,0,,12,,,59,127
47386,note_on,0,0,0,,4,,,76,127
47386,note_on,0,0,0,,2,,,74,127
47593,note_off,207,0,0,,2,,,74,127
47593,note_off,0,0,0,,4,,,76,127
47593,note_off,0,0,0,,12,,,59,127
47595,note_on,2,0,0,,10,,,57,127
47595,note_on,0,0,0,,5,,,77,127
47802,note_off,207,0,0,,5,,,77,127
47802,note_off,0,0,0,,10,,,57,127
47804,note_on,2,0,0,,4,,,64,127
47804,note_on,0,0,0,,2,,,62,127
47804,note_on,0,0,0,,8,,,56,127
47804,note_on,0,0,0,,2,,,74,127
48011,note_off,207,0,0,,8,,,56,127
48011,note_off,0,0,0,,2,,,62,127
48011,note_off,0,0,0,,4,,,64,127
48013,note_on,2,0,0,,8,,,56,127
48013,note_on,0,0,0,,4,,,64,127
48013,note_on,0,0,0,,2,,,62,127
48013,note_on,0,0,0,,2,,,86,127
48218,note_off,205,0,0,,2,,,74,127
48220,note_off,2,0,0,,2,,,62,127
48220,note_off,0,0,0,,4,,,64,127
48220,note_off,0,0,0,,8,,,56,127
48222,note_on,2,0,0,,2,,,62,127
48222,note_on,0,0,0,,8,,,56,127
48222,note_on,0,0,0,,4,,,64,127
48222,note_on,0,0,0,,2,,,74,127
48427,note_off,205,0,0,,2,,,86,127
48429,note_off,2,0,0,,2,,,74,127
48429,note_off,0,0,0,,4,,,64,127
48429,note_off,0,0,0,,8,,,56,127
48429,note_off,0,0,0,,2,,,62,127
48431,note_on,2,0,0,,2,,,62,127
48431,note_on,0,0,0,,8,,,56,127
48431,note_on,0,0,0,,4,,,64,127
48431,note_on,0,0,0,,2,,,86,127
48638,note_off,207,0,0,,2,,,86,127
48638,note_off,0,0,0,,4,,,64,127
48638,note_off,0,0,0,,8,,,56,127
48638,note_off,0,0,0,,2,,,62,127
48640,note_on,2,0,0,,4,,,64,127
48640,note_on,0,0,0,,10,,,57,127
48640,note_on,0,0,0,,1,,,85,127
48743,note_off,103,0,0,,1,,,85,127
48745,note_on,2,0,0,,11,,,82,127
48848,note_off,103,0,0,,11,,,82,127
48848,note_off,0,0,0,,10,,,57,127
48850,note_on,2,0,0,,1,,,61,127
48850,note_on,0,0,0,,10,,,81,127
48953,note_off,103,0,0,,10,,,81,127
48955,note_on,2,0,0,,7,,,79,127
49055,note_off,100,0,0,,4,,,64,127
49057,note_off,2,0,0,,7,,,79,127
49057,note_off,0,0,0,,1,,,61,127
49059,note_on,2,0,0,,2,,,62,127
49059,note_on,0,0,0,,7,,,79,127
49162,note_off,103,0,0,,7,,,79,127
49164,note_on,2,0,0,,5,,,77,127
49267,note_off,103,0,0,,5,,,77,127
49269,note_on,2,0,0,,5,,,53,127
49269,note_on,0,0,0,,4,,,76,127
49372,note_off,103,0,0,,4,,,76,127
49374,note_on,2,0,0,,2,,,74,127
49474,note_off,100,0,0,,2,,,62,127
49476,note_off,2,0,0,,2,,,74,127
49476,note_off,0,0,0,,5,,,53,127
49478,note_on,2,0,0,,7,,,55,127
49478,note_on,0,0,0,,4,,,76,127
49581,note_off,103,0,0,,4,,,76,127
49583,note_on,2,0,0,,7,,,79,127
49686,note_off,103,0,0,,7,,,79,127
49686,note_off,0,0,0,,7,,,55,127
49688,note_on,2,0,0,,7,,,55,127
49688,note_on,0,0,0,,5,,,77,127
49791,note_off,103,0,0,,5,,,77,127
49793,note_on,2,0,0,,4,,,76,127
49896,note_off,103,0,0,,4,,,76,127
49896,note_off,0,0,0,,7,,,55,127
49898,note_on,2,0,0,,10,,,57,127
49898,note_on,0,0,0,,5,,,77,127
50001,note_off,103,0,0,,5,,,77,127
50003,note_on,2,0,0,,10,,,81,127
50106,note_off,103,0,0,,10,,,81,127
50108,note_on,2,0,0,,10,,,45,127
50108,note_on,0,0,0,,2,,,74,127
50211,note_off,103,0,0,,2,,,74,127
50213,note_on,2,0,0,,1,,,73,127
50313,note_off,100,0,0,,10,,,57,127
50315,note_off,2,0,0,,1,,,73,127
50315,note_off,0,0,0,,10,,,45,127
50317,note_on,2,0,0,,2,,,50,127
50317,note_on,0,0,0,,2,,,74,127
50420,note_off,103,0,0,,2,,,74,127
50422,note_on,2,0,0,,10,,,81,127
50525,note_off,103,0,0,,10,,,81,127
50525,note_off,0,0,0,,2,,,50,127
50527,note_on,2,0,0,,5,,,53,127
50527,note_on,0,0,0,,2,,,74,127
50630,note_off,103,0,0,,2,,,74,127
50632,note_on,2,0,0,,10,,,69,127
50735,note_off,103,0,0,,10,,,69,127
50735,note_off,0,0,0,,5,,,53,127
50737,note_on,2,0,0,,7,,,55,127
50737,note_on,0,0,0,,11,,,70,127
50840,note_off,103,0,0,,11,,,70,127
50842,note_on,2,0,0,,7,,,79,127
50945,note_off,103,0,0,,7,,,79,127
50945,note_off,0,0,0,,7,,,55,127
50947,note_on,2,0,0,,4,,,52,127
50947,note_on,0,0,0,,11,,,70,127
51050,note_off,103,0,0,,11,,,70,127
51052,note_on,2,0,0,,7,,,67,127
51155,note_off,103,0,0,,7,,,67,127
51155,note_off,0,0,0,,4,,,52,127
51157,note_on,2,0,0,,5,,,53,127
51157,note_on,0,0,0,,10,,,69,127
51260,note_off,103,0,0,,10,,,69,127
51262,note_on,2,0,0,,5,,,77,127
51365,note_off,103,0,0,,5,,,77,127
51365,note_off,0,0,0,,5,,,53,127
51367,note_on,2,0,0,,7,,,55,127
51367,note_on,0,0,0,,4,,,76,127
51470,note_off,103,0,0,,4,,,76,127
51472,note_on,2,0,0,,7,,,67,127
51575,note_off,103,0,0,,7,,,67,127
51575,note_off,0,0,0,,7,,,55,127
51577,note_on,2,0,0,,10,,,57,127
51577,note_on,0,0,0,,5,,,65,127
51680,note_off,103,0,0,,5,,,65,127
51682,note_on,2,0,0,,2,,,74,127
51785,note_off,103,0,0,,2,,,74,127
51785,note_off,0,0,0,,10,,,57,127
51787,note_on,2,0,0,,10,,,45,127
51787,note_on,0,0,0,,4,,,64,127
51890,note_off,103,0,0,,4,,,64,127
51892,note_on,2,0,0,,1,,,73,127
51995,note_off,103,0,0,,1,,,73,127
51995,note_off,0,0,0,,10,,,45,127
51997,note_on,2,0,0,,2,,,50,127
51997,note_on,0,0,0,,2,,,74,127
52100,note_off,103,0,0,,2,,,74,127
52102,note_on,2,0,0,,10,,,81,127
52205,note_off,103,0,0,,10,,,81,127
52205,note_off,0,0,0,,2,,,50,127
52207,note_on,2,0,0,,5,,,53,127
52207,note_on,0,0,0,,2,,,74,127
52310,note_off,103,0,0,,2,,,74,127
52312,note_on,2,0,0,,10,,,69,127
52415,note_off,103,0,0,,10,,,69,127
52415,note_off,0,0,0,,5,,,53,127
52417,note_on,2,0,0,,7,,,55,127
52417,note_on,0,0,0,,11,,,70,127
52520,note_off,103,0,0,,11,,,70,127
52522,note_on,2,0,0,,7,,,79,127
52625,note_off,103,0,0,,7,,,79,127
52625,note_off,0,0,0,,7,,,55,127
52627,note_on,2,0,0,,4,,,52,127
52627,note_on,0,0,0,,11,,,70,127
52730,note_off,103,0,0,,11,,,70,127
52732,note_on,2,0,0,,7,,,67,127
52835,note_off,103,0,0,,7,,,67,127
52835,note_off,0,0,0,,4,,,52,127
52837,note_on,2,0,0,,5,,,53,127
52837,note_on,0,0,0,,10,,,69,127
52940,note_off,103,0,0,,10,,,69,127
52942,note_on,2,0,0,,5,,,77,127
53045,note_off,103,0,0,,5,,,77,127
53045,note_off,0,0,0,,5,,,53,127
53047,note_on,2,0,0,,7,,,55,127
53047,note_on,0,0,0,,4,,,76,127
53150,note_off,103,0,0,,4,,,76,127
53152,note_on,2,0,0,,7,,,67,127
53255,note_off,103,0,0,,7,,,67,127
53255,note_off,0,0,0,,7,,,55,127
53257,note_on,2,0,0,,10,,,57,127
53257,note_on,0,0,0,,5,,,65,127
53360,note_off,103,0,0,,5,,,65,127
53362,note_on,2,0,0,,2,,,74,127
53465,note_off,103,0,0,,2,,,74,127
53465,note_off,0,0,0,,10,,,57,127
53467,note_on,2,0,0,,10,,,45,127
53467,note_on,0,0,0,,4,,,64,127
53570,note_off,103,0,0,,4,,,64,127
53572,note_on,2,0,0,,1,,,73,127
53675,note_off,103,0,0,,1,,,73,127
53675,note_off,0,0,0,,10,,,45,127
53677,note_on,2,0,0,,2,,,38,127
53677,note_on,0,0,0,,2,,,74,127
54304,note_off,627,0,0,,2,,,38,127
54512,note_off,208,0,0,,2,,,74,127
54514,note_on,2,0,0,,2,,,50,127
54514,note_on,0,0,0,,2,,,74,127
54617,note_off,103,0,0,,2,,,74,127
54617,note_off,0,0,0,,2,,,50,127
54619,note_on,2,0,0,,3,,,63,127
54619,note_on,0,0,0,,6,,,66,127
54722,note_off,103,0,0,,6,,,66,127
54722,note_off,0,0,0,,3,,,63,127
54724,note_on,2,0,0,,2,,,62,127
54724,note_on,0,0,0,,7,,,67,127
54827,note_off,103,0,0,,7,,,67,127
54827,note_off,0,0,0,,2,,,62,127
54829,note_on,2,0,0,,0,,,60,127
54829,note_on,0,0,0,,10,,,69,127
54932,note_off,103,0,0,,10,,,69,127
54932,note_off,0,0,0,,0,,,60,127
54934,note_on,2,0,0,,11,,,58,127
54934,note_on,0,0,0,,11,,,70,127
55037,note_off,103,0,0,,11,,,70,127
55037,note_off,0,0,0,,11,,,58,127
55039,note_on,2,0,0,,10,,,57,127
55039,note_on,0,0,0,,0,,,72,127
55142,note_off,103,0,0,,0,,,72,127
55142,note_off,0,0,0,,10,,,57,127
55144,note_on,2,0,0,,7,,,55,127
55144,note_on,0,0,0,,2,,,74,127
55247,note_off,103,0,0,,2,,,74,127
55247,note_off,0,0,0,,7,,,55,127
55249,note_on,2,0,0,,6,,,54,127
55249,note_on,0,0,0,,3,,,75,127
55352,note_off,103,0,0,,3,,,75,127
55352,note_off,0,0,0,,6,,,54,127
55354,note_on,2,0,0,,7,,,55,127
55354,note_on,0,0,0,,2,,,74,127
55457,note_off,103,0,0,,2,,,74,127
55457,note_off,0,0,0,,7,,,55,127
55459,note_on,2,0,0,,3,,,63,127
55459,note_on,0,0,0,,6,,,66,127
55562,note_off,103,0,0,,6,,,66,127
55562,note_off,0,0,0,,3,,,63,127
55564,note_on,2,0,0,,2,,,62,127
55564,note_on,0,0,0,,7,,,67,127
55667,note_off,103,0,0,,7,,,67,127
55667,note_off,0,0,0,,2,,,62,127
55669,note_on,2,0,0,,0,,,60,127
55669,note_on,0,0,0,,10,,,69,127
55772,note_off,103,0,0,,10,,,69,127
55772,note_off,0,0,0,,0,,,60,127
55774,note_on,2,0,0,,11,,,58,127
55774,note_on,0,0,0,,11,,,70,127
55877,note_off,103,0,0,,11,,,70,127
55877,note_off,0,0,0,,11,,,58,127
55879,note_on,2,0,0,,10,,,57,127
55879,note_on,0,0,0,,0,,,72,127
55982,note_off,103,0,0,,0,,,72,127
55982,note_off,0,0,0,,10,,,57,127
55984,note_on,2,0,0,,7,,,55,127
55984,note_on,0,0,0,,2,,,74,127
56087,note_off,103,0,0,,2,,,74,127
56087,note_off,0,0,0,,7,,,55,127
56089,note_on,2,0,0,,6,,,54,127
56089,note_on,0,0,0,,3,,,75,127
56192,note_off,103,0,0,,3,,,75,127
56192,note_off,0,0,0,,6,,,54,127
56194,note_on,2,0,0,,7,,,55,127
56194,note_on,0,0,0,,2,,,74,127
56297,note_off,103,0,0,,2,,,74,127
56297,note_off,0,0,0,,7,,,55,127
56299,note_on,2,0,0,,3,,,63,127
56299,note_on,0,0,0,,6,,,66,127
56402,note_off,103,0,0,,6,,,66,127
56402,note_off,0,0,0,,3,,,63,127
56404,note_on,2,0,0,,2,,,62,127
56404,note_on,0,0,0,,7,,,67,127
56507,note_off,103,0,0,,7,,,67,127
56507,note_off,0,0,0,,2,,,62,127
56509,note_on,2,0,0,,0,,,60,127
56509,note_on,0,0,0,,10,,,69,127
56612,note_off,103,0,0,,10,,,69,127
56612,note_off,0,0,0,,0,,,60,127
56614,note_on,2,0,0,,11,,,58,127
56614,note_on,0,0,0,,11,,,70,127
56717,note_off,103,0,0,,11,,,70,127
56717,note_off,0,0,0,,11,,,58,127
56719,note_on,2,0,0,,10,,,57,127
56719,note_on,0,0,0,,0,,,72,127
56822,note_off,103,0,0,,0,,,72,127
56822,note_off,0,0,0,,10,,,57,127
56824,note_on,2,0,0,,7,,,55,127
56824,note_on,0,0,0,,2,,,74,127
56927,note_off,103,0,0,,2,,,74,127
56927,note_off,0,0,0,,7,,,55,127
56929,note_on,2,0,0,,6,,,54,127
56929,note_on,0,0,0,,0,,,72,127
57032,note_off,103,0,0,,0,,,72,127
57032,note_off,0,0,0,,6,,,54,127
57034,note_on,2,0,0,,7,,,55,127
57034,note_on,0,0,0,,11,,,70,127
57241,note_off,207,0,0,,11,,,70,127
57241,note_off,0,0,0,,7,,,55,127
57243,note_on,2,0,0,,2,,,38,127
57243,note_on,0,0,0,,10,,,69,127
57243,note_on,0,0,0,,11,,,70,127
57346,note_off,103,0,0,,11,,,70,127
57346,note_off,0,0,0,,10,,,69,127
57348,note_on,2,0,0,,7,,,67,127
57451,note_off,103,0,0,,7,,,67,127
57451,note_off,0,0,0,,2,,,38,127
57453,note_on,2,0,0,,2,,,38,127
57453,note_on,0,0,0,,10,,,69,127
57868,note_off,415,0,0,,10,,,69,127
57868,note_off,0,0,0,,2,,,38,127
57977,note_on,109,0,0,,8,,,68,127
57977,note_on,0,0,0,,12,,,71,127
58080,note_off,103,0,0,,12,,,71,127
58080,note_off,0,0,0,,8,,,68,127
58082,note_on,2,0,0,,7,,,67,127
58082,note_on,0,0,0,,0,,,72,127
58185,note_off,103,0,0,,0,,,72,127
58185,note_off,0,0,0,,7,,,67,127
58187,note_on,2,0,0,,5,,,65,127
58187,note_on,0,0,0,,2,,,74,127
58290,note_off,103,0,0,,2,,,74,127
58290,note_off,0,0,0,,5,,,65,127
58292,note_on,2,0,0,,3,,,63,127
58292,note_on,0,0,0,,3,,,75,127
58395,note_off,103,0,0,,3,,,75,127
58395,note_off,0,0,0,,3,,,63,127
58397,note_on,2,0,0,,2,,,62,127
58397,note_on,0,0,0,,5,,,77,127
58500,note_off,103,0,0,,5,,,77,127
58500,note_off,0,0,0,,2,,,62,127
58502,note_on,2,0,0,,0,,,60,127
58502,note_on,0,0,0,,7,,,79,127
58605,note_off,103,0,0,,7,,,79,127
58605,note_off,0,0,0,,0,,,60,127
58607,note_on,2,0,0,,12,,,59,127
58607,note_on,0,0,0,,8,,,80,127
58710,note_off,103,0,0,,8,,,80,127
58710,note_off,0,0,0,,12,,,59,127
58712,note_on,2,0,0,,0,,,60,127
58712,note_on,0,0,0,,7,,,79,127
58815,note_off,103,0,0,,7,,,79,127
58815,note_off,0,0,0,,0,,,60,127
58817,note_on,2,0,0,,8,,,68,127
58817,note_on,0,0,0,,12,,,71,127
58920,note_off,103,0,0,,12,,,71,127
58920,note_off,0,0,0,,8,,,68,127
58922,note_on,2,0,0,,7,,,67,127
58922,note_on,0,0,0,,0,,,72,127
59025,note_off,103,0,0,,0,,,72,127
59025,note_off,0,0,0,,7,,,67,127
59027,note_on,2,0,0,,5,,,65,127
59027,note_on,0,0,0,,2,,,74,127
59130,note_off,103,0,0,,2,,,74,127
59130,note_off,0,0,0,,5,,,65,127
59132,note_on,2,0,0,,3,,,63,127
59132,note_on,0,0,0,,3,,,75,127
59235,note_off,103,0,0,,3,,,75,127
59235,note_off,0,0,0,,3,,,63,127
59237,note_on,2,0,0,,2,,,62,127
59237,note_on,0,0,0,,5,,,77,127
59340,note_off,103,0,0,,5,,,77,127
59340,note_off,0,0,0,,2,,,62,127
59342,note_on,2,0,0,,0,,,60,127
59342,note_on,0,0,0,,7,,,79,127
59445,note_off,103,0,0,,7,,,79,127
59445,note_off,0,0,0,,0,,,60,127
59447,note_on,2,0,0,,12,,,59,127
59447,note_on,0,0,0,,8,,,80,127
59550,note_off,103,0,0,,8,,,80,127
59550,note_off,0,0,0,,12,,,59,127
59552,note_on,2,0,0,,0,,,60,127
59552,note_on,0,0,0,,7,,,79,127
59655,note_off,103,0,0,,7,,,79,127
59655,note_off,0,0,0,,0,,,60,127
59657,note_on,2,0,0,,8,,,68,127
59657,note_on,0,0,0,,12,,,71,127
59760,note_off,103,0,0,,12,,,71,127
59760,note_off,0,0,0,,8,,,68,127
59762,note_on,2,0,0,,7,,,67,127
59762,note_on,0,0,0,,0,,,72,127
59865,note_off,103,0,0,,0,,,72,127
59865,note_off,0,0,0,,7,,,67,127
59867,note_on,2,0,0,,5,,,65,127
59867,note_on,0,0,0,,2,,,74,127
59970,note_off,103,0,0,,2,,,74,127
59970,note_off,0,0,0,,5,,,65,127
59972,note_on,2,0,0,,3,,,63,127
59972,note_on,0,0,0,,3,,,75,127
60075,note_off,103,0,0,,3,,,75,127
60075,note_off,0,0,0,,3,,,63,127
60077,note_on,2,0,0,,2,,,62,127
60077,note_on,0,0,0,,5,,,77,127
60180,note_off,103,0,0,,5,,,77,127
60180,note_off,0,0,0,,2,,,62,127
60182,note_on,2,0,0,,0,,,60,127
60182,note_on,0,0,0,,7,,,79,127
60285,note_off,103,0,0,,7,,,79,127
60285,note_off,0,0,0,,0,,,60,127
60287,note_on,2,0,0,,12,,,59,127
60287,note_on,0,0,0,,5,,,77,127
60390,note_off,103,0,0,,5,,,77,127
60390,note_off,0,0,0,,12,,,59,127
60392,note_on,2,0,0,,0,,,60,127
60392,note_on,0,0,0,,3,,,75,127
60599,note_off,207,0,0,,3,,,75,127
60599,note_off,0,0,0,,0,,,60,127
60601,note_on,2,0,0,,7,,,43,127
60601,note_on,0,0,0,,3,,,75,127
60601,note_on,0,0,0,,2,,,74,127
60704,note_off,103,0,0,,2,,,74,127
60704,note_off,0,0,0,,3,,,75,127
60706,note_on,2,0,0,,0,,,72,127
60809,note_off,103,0,0,,0,,,72,127
60809,note_off,0,0,0,,7,,,43,127
60811,note_on,2,0,0,,7,,,43,127
60811,note_on,0,0,0,,2,,,74,127
61226,note_off,415,0,0,,2,,,74,127
61226,note_off,0,0,0,,7,,,43,127
61335,note_on,109,0,0,,8,,,68,127
61335,note_on,0,0,0,,11,,,70,127
61438,note_off,103,0,0,,11,,,70,127
61438,note_off,0,0,0,,8,,,68,127
61440,note_on,2,0,0,,7,,,67,127
61440,note_on,0,0,0,,0,,,72,127
61543,note_off,103,0,0,,0,,,72,127
61543,note_off,0,0,0,,7,,,67,127
61545,note_on,2,0,0,,5,,,65,127
61545,note_on,0,0,0,,2,,,74,127
61648,note_off,103,0,0,,2,,,74,127
61648,note_off,0,0,0,,5,,,65,127
61650,note_on,2,0,0,,3,,,63,127
61650,note_on,0,0,0,,3,,,75,127
61753,note_off,103,0,0,,3,,,75,127
61753,note_off,0,0,0,,3,,,63,127
61755,note_on,2,0,0,,2,,,62,127
61755,note_on,0,0,0,,5,,,77,127
61858,note_off,103,0,0,,5,,,77,127
61858,note_off,0,0,0,,2,,,62,127
61860,note_on,2,0,0,,0,,,60,127
61860,note_on,0,0,0,,7,,,79,127
61963,note_off,103,0,0,,7,,,79,127
61963,note_off,0,0,0,,0,,,60,127
61965,note_on,2,0,0,,11,,,58,127
61965,note_on,0,0,0,,8,,,80,127
62068,note_off,103,0,0,,8,,,80,127
62068,note_off,0,0,0,,11,,,58,127
62070,note_on,2,0,0,,3,,,63,127
62070,note_on,0,0,0,,7,,,79,127
62173,note_off,103,0,0,,7,,,79,127
62173,note_off,0,0,0,,3,,,63,127
62175,note_on,2,0,0,,8,,,68,127
62175,note_on,0,0,0,,11,,,70,127
62278,note_off,103,0,0,,11,,,70,127
62278,note_off,0,0,0,,8,,,68,127
62280,note_on,2,0,0,,7,,,67,127
62280,note_on,0,0,0,,0,,,72,127
62383,note_off,103,0,0,,0,,,72,127
62383,note_off,0,0,0,,7,,,67,127
62385,note_on,2,0,0,,5,,,65,127
62385,note_on,0,0,0,,2,,,74,127
62488,note_off,103,0,0,,2,,,74,127
62488,note_off,0,0,0,,5,,,65,127
62490,note_on,2,0,0,,3,,,63,127
62490,note_on,0,0,0,,3,,,75,127
62593,note_off,103,0,0,,3,,,75,127
62593,note_off,0,0,0,,3,,,63,127
62595,note_on,2,0,0,,2,,,62,127
62595,note_on,0,0,0,,5,,,77,127
62698,note_off,103,0,0,,5,,,77,127
62698,note_off,0,0,0,,2,,,62,127
62700,note_on,2,0,0,,0,,,60,127
62700,note_on,0,0,0,,7,,,79,127
62803,note_off,103,0,0,,7,,,79,127
62803,note_off,0,0,0,,0,,,60,127
62805,note_on,2,0,0,,11,,,58,127
62805,note_on,0,0,0,,8,,,80,127
62908,note_off,103,0,0,,8,,,80,127
62908,note_off,0,0,0,,11,,,58,127
62910,note_on,2,0,0,,3,,,63,127
62910,note_on,0,0,0,,7,,,79,127
63013,note_off,103,0,0,,7,,,79,127
63013,note_off,0,0,0,,3,,,63,127
63015,note_on,2,0,0,,8,,,68,127
63015,note_on,0,0,0,,11,,,70,127
63118,note_off,103,0,0,,11,,,70,127
63118,note_off,0,0,0,,8,,,68,127
63120,note_on,2,0,0,,7,,,67,127
63120,note_on,0,0,0,,0,,,72,127
63223,note_off,103,0,0,,0,,,72,127
63223,note_off,0,0,0,,7,,,67,127
63225,note_on,2,0,0,,5,,,65,127
63225,note_on,0,0,0,,2,,,74,127
63328,note_off,103,0,0,,2,,,74,127
63328,note_off,0,0,0,,5,,,65,127
63330,note_on,2,0,0,,3,,,63,127
63330,note_on,0,0,0,,3,,,75,127
63433,note_off,103,0,0,,3,,,75,127
63433,note_off,0,0,0,,3,,,63,127
63435,note_on,2,0,0,,2,,,62,127
63435,note_on,0,0,0,,5,,,77,127
63538,note_off,103,0,0,,5,,,77,127
63538,note_off,0,0,0,,2,,,62,127
63540,note_on,2,0,0,,0,,,60,127
63540,note_on,0,0,0,,7,,,79,127
63643,note_off,103,0,0,,7,,,79,127
63643,note_off,0,0,0,,0,,,60,127
63645,note_on,2,0,0,,11,,,58,127
63645,note_on,0,0,0,,8,,,80,127
63748,note_off,103,0,0,,8,,,80,127
63748,note_off,0,0,0,,11,,,58,127
63750,note_on,2,0,0,,3,,,63,127
63750,note_on,0,0,0,,7,,,79,127
63957,note_off,207,0,0,,7,,,79,127
63957,note_off,0,0,0,,3,,,63,127
63959,note_on,2,0,0,,5,,,65,127
63959,note_on,0,0,0,,11,,,58,127
63959,note_on,0,0,0,,5,,,77,127
63959,note_on,0,0,0,,7,,,79,127
64062,note_off,103,0,0,,7,,,79,127
64062,note_off,0,0,0,,5,,,77,127
64064,note_on,2,0,0,,3,,,75,127
64167,note_off,103,0,0,,3,,,75,127
64167,note_off,0,0,0,,11,,,58,127
64167,note_off,0,0,0,,5,,,65,127
64169,note_on,2,0,0,,11,,,58,127
64169,note_on,0,0,0,,5,,,65,127
64169,note_on,0,0,0,,5,,,77,127
64376,note_off,207,0,0,,5,,,65,127
64376,note_off,0,0,0,,11,,,58,127
64378,note_on,2,0,0,,11,,,58,127
64378,note_on,0,0,0,,5,,,65,127
64585,note_off,207,0,0,,5,,,65,127
64585,note_off,0,0,0,,11,,,58,127
64587,note_on,2,0,0,,5,,,65,127
64587,note_on,0,0,0,,8,,,56,127
64794,note_off,207,0,0,,8,,,56,127
64794,note_off,0,0,0,,5,,,65,127
64794,note_off,0,0,0,,5,,,77,127
64796,note_on,2,0,0,,8,,,56,127
64796,note_on,0,0,0,,5,,,65,127
64796,note_on,0,0,0,,0,,,84,127
65003,note_off,207,0,0,,0,,,84,127
65003,note_off,0,0,0,,5,,,65,127
65003,note_off,0,0,0,,8,,,56,127
65005,note_on,2,0,0,,8,,,56,127
65005,note_on,0,0,0,,5,,,65,127
65005,note_on,0,0,0,,8,,,80,127
65212,note_off,207,0,0,,8,,,80,127
65212,note_off,0,0,0,,5,,,65,127
65212,note_off,0,0,0,,8,,,56,127
65214,note_on,2,0,0,,8,,,56,127
65214,note_on,0,0,0,,5,,,65,127
65214,note_on,0,0,0,,5,,,77,127
65421,note_off,207,0,0,,5,,,77,127
65421,note_off,0,0,0,,5,,,65,127
65421,note_off,0,0,0,,8,,,56,127
65423,note_on,2,0,0,,4,,,64,127
65423,note_on,0,0,0,,7,,,55,127
65423,note_on,0,0,0,,4,,,76,127
65630,note_off,207,0,0,,4,,,76,127
65630,note_off,0,0,0,,7,,,55,127
65630,note_off,0,0,0,,4,,,64,127
65632,note_on,2,0,0,,7,,,55,127
65632,note_on,0,0,0,,4,,,64,127
65632,note_on,0,0,0,,11,,,82,127
65839,note_off,207,0,0,,11,,,82,127
65839,note_off,0,0,0,,4,,,64,127
65839,note_off,0,0,0,,7,,,55,127
65841,note_on,2,0,0,,5,,,53,127
65841,note_on,0,0,0,,1,,,61,127
65841,note_on,0,0,0,,11,,,70,127
66048,note_off,207,0,0,,11,,,70,127
66048,note_off,0,0,0,,1,,,61,127
66048,note_off,0,0,0,,5,,,53,127
66050,note_on,2,0,0,,5,,,53,127
66050,note_on,0,0,0,,1,,,61,127
66050,note_on,0,0,0,,1,,,73,127
66257,note_off,207,0,0,,1,,,73,127
66257,note_off,0,0,0,,1,,,61,127
66257,note_off,0,0,0,,5,,,53,127
66259,note_on,2,0,0,,4,,,52,127
66259,note_on,0,0,0,,0,,,60,127
66259,note_on,0,0,0,,0,,,72,127
66466,note_off,207,0,0,,0,,,72,127
66466,note_off,0,0,0,,0,,,60,127
66466,note_off,0,0,0,,4,,,52,127
66468,note_on,2,0,0,,0,,,60,127
66468,note_on,0,0,0,,4,,,52,127
66468,note_on,0,0,0,,7,,,79,127
66675,note_off,207,0,0,,7,,,79,127
66675,note_off,0,0,0,,4,,,52,127
66675,note_off,0,0,0,,0,,,60,127
66677,note_on,2,0,0,,0,,,60,127
66677,note_on,0,0,0,,4,,,52,127
66677,note_on,0,0,0,,7,,,67,127
66884,note_off,207,0,0,,7,,,67,127
66884,note_off,0,0,0,,4,,,52,127
66884,note_off,0,0,0,,0,,,60,127
66886,note_on,2,0,0,,0,,,60,127
66886,note_on,0,0,0,,4,,,52,127
66886,note_on,0,0,0,,11,,,70,127
67093,note_off,207,0,0,,11,,,70,127
67093,note_off,0,0,0,,4,,,52,127
67093,note_off,0,0,0,,0,,,60,127
67095,note_on,2,0,0,,5,,,53,127
67095,note_on,0,0,0,,0,,,60,127
67095,note_on,0,0,0,,8,,,68,127
67198,note_off,103,0,0,,8,,,68,127
67200,note_on,2,0,0,,0,,,72,127
67303,note_off,103,0,0,,0,,,72,127
67303,note_off,0,0,0,,0,,,60,127
67303,note_off,0,0,0,,5,,,53,127
67305,note_on,2,0,0,,5,,,53,127
67305,note_on,0,0,0,,0,,,60,127
67305,note_on,0,0,0,,12,,,71,127
67512,note_off,207,0,0,,0,,,60,127
67512,note_off,0,0,0,,5,,,53,127
67514,note_on,2,0,0,,5,,,53,127
67514,note_on,0,0,0,,0,,,60,127
67721,note_off,207,0,0,,0,,,60,127
67721,note_off,0,0,0,,5,,,53,127
67721,note_off,0,0,0,,12,,,71,127
67723,note_on,2,0,0,,5,,,53,127
67723,note_on,0,0,0,,0,,,60,127
67723,note_on,0,0,0,,0,,,72,127
67930,note_off,207,0,0,,0,,,72,127
67930,note_off,0,0,0,,0,,,60,127
67930,note_off,0,0,0,,5,,,53,127
67932,note_on,2,0,0,,3,,,51,127
67932,note_on,0,0,0,,0,,,60,127
67932,note_on,0,0,0,,7,,,67,127
67932,note_on,0,0,0,,7,,,79,127
68139,note_off,207,0,0,,7,,,67,127
68139,note_off,0,0,0,,0,,,60,127
68139,note_off,0,0,0,,3,,,51,127
68141,note_on,2,0,0,,0,,,60,127
68141,note_on,0,0,0,,3,,,51,127
68141,note_on,0,0,0,,8,,,68,127
68348,note_off,207,0,0,,8,,,68,127
68348,note_off,0,0,0,,3,,,51,127
68348,note_off,0,0,0,,0,,,60,127
68350,note_on,2,0,0,,3,,,51,127
68350,note_on,0,0,0,,0,,,60,127
68350,note_on,0,0,0,,11,,,70,127
68557,note_off,207,0,0,,11,,,70,127
68557,note_off,0,0,0,,0,,,60,127
68557,note_off,0,0,0,,3,,,51,127
68559,note_on,2,0,0,,3,,,51,127
68559,note_on,0,0,0,,0,,,60,127
68559,note_on,0,0,0,,0,,,72,127
68766,note_off,207,0,0,,0,,,72,127
68766,note_off,0,0,0,,0,,,60,127
68766,note_off,0,0,0,,3,,,51,127
68767,note_off,1,0,0,,7,,,79,127
68768,note_on,1,0,0,,11,,,58,127
68768,note_on,0,0,0,,1,,,49,127
68768,note_on,0,0,0,,1,,,73,127
68873,note_on,105,0,0,,11,,,82,127
68976,note_off,103,0,0,,11,,,82,127
68976,note_off,0,0,0,,1,,,73,127
68976,note_off,0,0,0,,1,,,49,127
68976,note_off,0,0,0,,11,,,58,127
68978,note_on,2,0,0,,1,,,49,127
68978,note_on,0,0,0,,11,,,58,127
68978,note_on,0,0,0,,4,,,76,127
69185,note_off,207,0,0,,11,,,58,127
69185,note_off,0,0,0,,1,,,49,127
69187,note_on,2,0,0,,1,,,49,127
69187,note_on,0,0,0,,11,,,58,127
69394,note_off,207,0,0,,11,,,58,127
69394,note_off,0,0,0,,1,,,49,127
69394,note_off,0,0,0,,4,,,76,127
69396,note_on,2,0,0,,11,,,58,127
69396,note_on,0,0,0,,1,,,49,127
69396,note_on,0,0,0,,7,,,79,127
69446,note_off,50,0,0,,7,,,79,127
69448,note_on,2,0,0,,5,,,77,127
69498,note_off,50,0,0,,5,,,77,127
69500,note_on,2,0,0,,4,,,76,127
69550,note_off,50,0,0,,4,,,76,127
69552,note_on,2,0,0,,5,,,77,127
69602,note_off,50,0,0,,5,,,77,127
69602,note_off,0,0,0,,1,,,49,127
69602,note_off,0,0,0,,11,,,58,127
69604,note_on,2,0,0,,0,,,48,127
69604,note_on,0,0,0,,11,,,58,127
69604,note_on,0,0,0,,5,,,77,127
69811,note_off,207,0,0,,5,,,77,127
69811,note_off,0,0,0,,11,,,58,127
69811,note_off,0,0,0,,0,,,48,127
69813,note_on,2,0,0,,0,,,48,127
69813,note_on,0,0,0,,11,,,58,127
69813,note_on,0,0,0,,7,,,79,127
70020,note_off,207,0,0,,11,,,58,127
70020,note_off,0,0,0,,0,,,48,127
70022,note_on,2,0,0,,11,,,58,127
70022,note_on,0,0,0,,0,,,48,127
70127,note_off,105,0,0,,7,,,79,127
70230,note_off,103,0,0,,0,,,48,127
70230,note_off,0,0,0,,11,,,58,127
70232,note_on,2,0,0,,0,,,48,127
70232,note_on,0,0,0,,11,,,58,127
70232,note_on,0,0,0,,7,,,79,127
70439,note_off,207,0,0,,7,,,79,127
70439,note_off,0,0,0,,11,,,58,127
70439,note_off,0,0,0,,0,,,48,127
70441,note_on,2,0,0,,1,,,49,127
70441,note_on,0,0,0,,11,,,58,127
70441,note_on,0,0,0,,8,,,80,127
70441,note_on,0,0,0,,7,,,79,127
70544,note_off,103,0,0,,7,,,79,127
70544,note_off,0,0,0,,8,,,80,127
70546,note_on,2,0,0,,6,,,78,127
70649,note_off,103,0,0,,6,,,78,127
70649,note_off,0,0,0,,11,,,58,127
70649,note_off,0,0,0,,1,,,49,127
70651,note_on,2,0,0,,1,,,49,127
70651,note_on,0,0,0,,11,,,58,127
70651,note_on,0,0,0,,7,,,79,127
70858,note_off,207,0,0,,11,,,58,127
70858,note_off,0,0,0,,1,,,49,127
70860,note_on,2,0,0,,1,,,49,127
70860,note_on,0,0,0,,11,,,58,127
70965,note_off,105,0,0,,7,,,79,127
71068,note_off,103,0,0,,11,,,58,127
71068,note_off,0,0,0,,1,,,49,127
71070,note_on,2,0,0,,1,,,49,127
71070,note_on,0,0,0,,11,,,58,127
71070,note_on,0,0,0,,7,,,79,127
71277,note_off,207,0,0,,7,,,79,127
71277,note_off,0,0,0,,11,,,58,127
71277,note_off,0,0,0,,1,,,49,127
71279,note_on,2,0,0,,11,,,58,127
71279,note_on,0,0,0,,1,,,49,127
71279,note_on,0,0,0,,7,,,55,127
71279,note_on,0,0,0,,7,,,79,127
71279,note_on,0,0,0,,8,,,80,127
71382,note_off,103,0,0,,8,,,80,127
71382,note_off,0,0,0,,7,,,79,127
71384,note_on,2,0,0,,6,,,78,127
71487,note_off,103,0,0,,6,,,78,127
71487,note_off,0,0,0,,7,,,55,127
71487,note_off,0,0,0,,1,,,49,127
71487,note_off,0,0,0,,11,,,58,127
71489,note_on,2,0,0,,1,,,49,127
71489,note_on,0,0,0,,11,,,58,127
71489,note_on,0,0,0,,7,,,55,127
71489,note_on,0,0,0,,7,,,79,127
71696,note_off,207,0,0,,7,,,79,127
71696,note_off,0,0,0,,7,,,55,127
71696,note_off,0,0,0,,11,,,58,127
71696,note_off,0,0,0,,1,,,49,127
71698,note_on,2,0,0,,7,,,55,127
71698,note_on,0,0,0,,1,,,49,127
71698,note_on,0,0,0,,11,,,58,127
71698,note_on,0,0,0,,11,,,82,127
71698,note_on,0,0,0,,0,,,84,127
71801,note_off,103,0,0,,0,,,84,127
71801,note_off,0,0,0,,11,,,82,127
71803,note_on,2,0,0,,10,,,81,127
71906,note_off,103,0,0,,10,,,81,127
71906,note_off,0,0,0,,11,,,58,127
71906,note_off,0,0,0,,1,,,49,127
71906,note_off,0,0,0,,7,,,55,127
71908,note_on,2,0,0,,11,,,58,127
71908,note_on,0,0,0,,1,,,49,127
71908,note_on,0,0,0,,7,,,55,127
71908,note_on,0,0,0,,7,,,79,127
72115,note_off,207,0,0,,7,,,79,127
72115,note_off,0,0,0,,7,,,55,127
72115,note_off,0,0,0,,1,,,49,127
72115,note_off,0,0,0,,11,,,58,127
72117,note_on,2,0,0,,2,,,50,127
72117,note_on,0,0,0,,10,,,57,127
72117,note_on,0,0,0,,6,,,78,127
72117,note_on,0,0,0,,7,,,79,127
72220,note_off,103,0,0,,7,,,79,127
72220,note_off,0,0,0,,6,,,78,127
72222,note_on,2,0,0,,3,,,75,127
72325,note_off,103,0,0,,3,,,75,127
72325,note_off,0,0,0,,10,,,57,127
72325,note_off,0,0,0,,2,,,50,127
72327,note_on,2,0,0,,2,,,50,127
72327,note_on,0,0,0,,10,,,57,127
72327,note_on,0,0,0,,2,,,74,127
72534,note_off,207,0,0,,2,,,74,127
72534,note_off,0,0,0,,10,,,57,127
72534,note_off,0,0,0,,2,,,50,127
72536,note_on,2,0,0,,2,,,50,127
72536,note_on,0,0,0,,10,,,57,127
72536,note_on,0,0,0,,0,,,72,127
72536,note_on,0,0,0,,2,,,74,127
72639,note_off,103,0,0,,2,,,74,127
72639,note_off,0,0,0,,0,,,72,127
72641,note_on,2,0,0,,11,,,70,127
72744,note_off,103,0,0,,11,,,70,127
72744,note_off,0,0,0,,10,,,57,127
72744,note_off,0,0,0,,2,,,50,127
72746,note_on,2,0,0,,10,,,57,127
72746,note_on,0,0,0,,2,,,50,127
72746,note_on,0,0,0,,10,,,69,127
72953,note_off,207,0,0,,10,,,69,127
72953,note_off,0,0,0,,2,,,50,127
72953,note_off,0,0,0,,10,,,57,127
72955,note_on,2,0,0,,3,,,51,127
72955,note_on,0,0,0,,0,,,60,127
72955,note_on,0,0,0,,6,,,66,127
73162,note_off,207,0,0,,6,,,66,127
73162,note_off,0,0,0,,0,,,60,127
73162,note_off,0,0,0,,3,,,51,127
73164,note_on,2,0,0,,0,,,60,127
73164,note_on,0,0,0,,3,,,51,127
73164,note_on,0,0,0,,7,,,67,127
73371,note_off,207,0,0,,3,,,51,127
73371,note_off,0,0,0,,0,,,60,127
73373,note_on,2,0,0,,0,,,60,127
73373,note_on,0,0,0,,3,,,51,127
73580,note_off,207,0,0,,3,,,51,127
73580,note_off,0,0,0,,0,,,60,127
73580,note_off,0,0,0,,7,,,67,127
73582,note_on,2,0,0,,3,,,51,127
73582,note_on,0,0,0,,0,,,60,127
73582,note_on,0,0,0,,7,,,67,127
73789,note_off,207,0,0,,7,,,67,127
73789,note_off,0,0,0,,0,,,60,127
73789,note_off,0,0,0,,3,,,51,127
73791,note_on,2,0,0,,4,,,52,127
73791,note_on,0,0,0,,0,,,60,127
73791,note_on,0,0,0,,7,,,79,127
73998,note_off,207,0,0,,7,,,79,127
73998,note_off,0,0,0,,0,,,60,127
73998,note_off,0,0,0,,4,,,52,127
74000,note_on,2,0,0,,4,,,52,127
74000,note_on,0,0,0,,0,,,60,127
74000,note_on,0,0,0,,4,,,76,127
74207,note_off,207,0,0,,0,,,60,127
74207,note_off,0,0,0,,4,,,52,127
74209,note_on,2,0,0,,4,,,52,127
74209,note_on,0,0,0,,0,,,60,127
74416,note_off,207,0,0,,0,,,60,127
74416,note_off,0,0,0,,4,,,52,127
74416,note_off,0,0,0,,4,,,76,127
74418,note_on,2,0,0,,4,,,52,127
74418,note_on,0,0,0,,0,,,60,127
74418,note_on,0,0,0,,11,,,70,127
74625,note_off,207,0,0,,11,,,70,127
74625,note_off,0,0,0,,0,,,60,127
74625,note_off,0,0,0,,4,,,52,127
74627,note_on,2,0,0,,5,,,53,127
74627,note_on,0,0,0,,0,,,60,127
74627,note_on,0,0,0,,0,,,72,127
74677,note_off,50,0,0,,0,,,72,127
74679,note_on,2,0,0,,11,,,70,127
74729,note_off,50,0,0,,11,,,70,127
74731,note_on,2,0,0,,0,,,72,127
74781,note_off,50,0,0,,0,,,72,127
74783,note_on,2,0,0,,11,,,70,127
74833,note_off,50,0,0,,11,,,70,127
74833,note_off,0,0,0,,0,,,60,127
74833,note_off,0,0,0,,5,,,53,127
74835,note_on,2,0,0,,5,,,53,127
74835,note_on,0,0,0,,0,,,60,127
74835,note_on,0,0,0,,10,,,69,127
75042,note_off,207,0,0,,10,,,69,127
75042,note_off,0,0,0,,0,,,60,127
75042,note_off,0,0,0,,5,,,53,127
75044,note_on,2,0,0,,0,,,60,127
75044,note_on,0,0,0,,5,,,53,127
75044,note_on,0,0,0,,0,,,84,127
75251,note_off,207,0,0,,5,,,53,127
75251,note_off,0,0,0,,0,,,60,127
75253,note_on,2,0,0,,5,,,53,127
75253,note_on,0,0,0,,0,,,60,127
75460,note_off,207,0,0,,0,,,60,127
75460,note_off,0,0,0,,5,,,53,127
75462,note_on,2,0,0,,5,,,53,127
75462,note_on,0,0,0,,10,,,45,127
75565,note_off,103,0,0,,0,,,84,127
75567,note_on,2,0,0,,11,,,82,127
75670,note_off,103,0,0,,11,,,82,127
75670,note_off,0,0,0,,10,,,45,127
75670,note_off,0,0,0,,5,,,53,127
75672,note_on,2,0,0,,10,,,45,127
75672,note_on,0,0,0,,5,,,53,127
75672,note_on,0,0,0,,10,,,81,127
75775,note_off,103,0,0,,10,,,81,127
75777,note_on,2,0,0,,7,,,79,127
75880,note_off,103,0,0,,7,,,79,127
75880,note_off,0,0,0,,5,,,53,127
75880,note_off,0,0,0,,10,,,45,127
75882,note_on,2,0,0,,10,,,45,127
75882,note_on,0,0,0,,5,,,53,127
75882,note_on,0,0,0,,5,,,77,127
75985,note_off,103,0,0,,5,,,77,127
75987,note_on,2,0,0,,3,,,75,127
76090,note_off,103,0,0,,3,,,75,127
76090,note_off,0,0,0,,5,,,53,127
76090,note_off,0,0,0,,10,,,45,127
76092,note_on,2,0,0,,10,,,45,127
76092,note_on,0,0,0,,5,,,53,127
76092,note_on,0,0,0,,2,,,74,127
76195,note_off,103,0,0,,2,,,74,127
76197,note_on,2,0,0,,0,,,72,127
76300,note_off,103,0,0,,0,,,72,127
76300,note_off,0,0,0,,5,,,53,127
76300,note_off,0,0,0,,10,,,45,127
76302,note_on,2,0,0,,5,,,53,127
76302,note_on,0,0,0,,11,,,46,127
76302,note_on,0,0,0,,2,,,74,127
76405,note_off,103,0,0,,2,,,74,127
76407,note_on,2,0,0,,3,,,75,127
76510,note_off,103,0,0,,3,,,75,127
76510,note_off,0,0,0,,11,,,46,127
76510,note_off,0,0,0,,5,,,53,127
76512,note_on,2,0,0,,5,,,53,127
76512,note_on,0,0,0,,11,,,46,127
76512,note_on,0,0,0,,5,,,77,127
76615,note_off,103,0,0,,5,,,77,127
76617,note_on,2,0,0,,3,,,75,127
76720,note_off,103,0,0,,3,,,75,127
76720,note_off,0,0,0,,11,,,46,127
76720,note_off,0,0,0,,5,,,53,127
76722,note_on,2,0,0,,5,,,53,127
76722,note_on,0,0,0,,11,,,46,127
76722,note_on,0,0,0,,2,,,74,127
76825,note_off,103,0,0,,2,,,74,127
76827,note_on,2,0,0,,0,,,72,127
76930,note_off,103,0,0,,0,,,72,127
76930,note_off,0,0,0,,11,,,46,127
76930,note_off,0,0,0,,5,,,53,127
76932,note_on,2,0,0,,5,,,53,127
76932,note_on,0,0,0,,11,,,46,127
76932,note_on,0,0,0,,11,,,70,127
77035,note_off,103,0,0,,11,,,70,127
77037,note_on,2,0,0,,10,,,69,127
77140,note_off,103,0,0,,10,,,69,127
77140,note_off,0,0,0,,11,,,46,127
77140,note_off,0,0,0,,5,,,53,127
77142,note_on,2,0,0,,3,,,39,127
77142,note_on,0,0,0,,7,,,67,127
77245,note_off,103,0,0,,7,,,67,127
77247,note_on,2,0,0,,5,,,65,127
77350,note_off,103,0,0,,5,,,65,127
77352,note_on,2,0,0,,3,,,63,127
77455,note_off,103,0,0,,3,,,63,127
77457,note_on,2,0,0,,2,,,62,127
77560,note_off,103,0,0,,2,,,62,127
77560,note_off,0,0,0,,3,,,39,127
77562,note_on,2,0,0,,3,,,51,127
77562,note_on,0,0,0,,0,,,60,127
77665,note_off,103,0,0,,0,,,60,127
77667,note_on,2,0,0,,11,,,58,127
77770,note_off,103,0,0,,11,,,58,127
77772,note_on,2,0,0,,10,,,57,127
77875,note_off,103,0,0,,10,,,57,127
77877,note_on,2,0,0,,7,,,55,127
77980,note_off,103,0,0,,7,,,55,127
77980,note_off,0,0,0,,3,,,51,127
77982,note_on,2,0,0,,5,,,41,127
77982,note_on,0,0,0,,7,,,55,127
78032,note_off,50,0,0,,7,,,55,127
78034,note_on,2,0,0,,5,,,53,127
78084,note_off,50,0,0,,5,,,53,127
78086,note_on,2,0,0,,7,,,55,127
78136,note_off,50,0,0,,7,,,55,127
78138,note_on,2,0,0,,5,,,53,127
78553,note_off,415,0,0,,5,,,53,127
78557,note_off,4,0,0,,5,,,41,127
78609,note_on,52,0,0,,5,,,65,127
78816,note_off,207,0,0,,5,,,65,127
78818,note_on,2,0,0,,5,,,53,127
78818,note_on,0,0,0,,5,,,65,127
79025,note_off,207,0,0,,5,,,65,127
79025,note_off,0,0,0,,5,,,53,127
79027,note_on,2,0,0,,5,,,53,127
79027,note_on,0,0,0,,11,,,58,127
79027,note_on,0,0,0,,5,,,65,127
79234,note_off,207,0,0,,5,,,65,127
79234,note_off,0,0,0,,11,,,58,127
79234,note_off,0,0,0,,5,,,53,127
79236,note_on,2,0,0,,10,,,57,127
79236,note_on,0,0,0,,5,,,53,127
79236,note_on,0,0,0,,5,,,65,127
79443,note_off,207,0,0,,5,,,65,127
79443,note_off,0,0,0,,5,,,53,127
79443,note_off,0,0,0,,10,,,57,127
79445,note_on,2,0,0,,5,,,53,127
79445,note_on,0,0,0,,1,,,61,127
79445,note_on,0,0,0,,5,,,65,127
79652,note_off,207,0,0,,5,,,65,127
79652,note_off,0,0,0,,1,,,61,127
79652,note_off,0,0,0,,5,,,53,127
79654,note_on,2,0,0,,0,,,60,127
79654,note_on,0,0,0,,5,,,53,127
79654,note_on,0,0,0,,5,,,65,127
79861,note_off,207,0,0,,5,,,65,127
79861,note_off,0,0,0,,5,,,53,127
79861,note_off,0,0,0,,0,,,60,127
79863,note_on,2,0,0,,3,,,63,127
79863,note_on,0,0,0,,5,,,53,127
79863,note_on,0,0,0,,10,,,69,127
80070,note_off,207,0,0,,10,,,69,127
80070,note_off,0,0,0,,5,,,53,127
80070,note_off,0,0,0,,3,,,63,127
80072,note_on,2,0,0,,1,,,61,127
80072,note_on,0,0,0,,5,,,53,127
80072,note_on,0,0,0,,11,,,70,127
80279,note_off,207,0,0,,11,,,70,127
80279,note_off,0,0,0,,5,,,53,127
80279,note_off,0,0,0,,1,,,61,127
80281,note_on,2,0,0,,0,,,60,127
80281,note_on,0,0,0,,5,,,53,127
80281,note_on,0,0,0,,0,,,72,127
80488,note_off,207,0,0,,0,,,72,127
80488,note_off,0,0,0,,5,,,53,127
80488,note_off,0,0,0,,0,,,60,127
80490,note_on,2,0,0,,11,,,58,127
80490,note_on,0,0,0,,4,,,52,127
80490,note_on,0,0,0,,3,,,75,127
80490,note_on,0,0,0,,11,,,82,127
80558,note_off,68,0,0,,3,,,75,127
80560,note_on,2,0,0,,1,,,73,127
80628,note_off,68,0,0,,1,,,73,127
80630,note_on,2,0,0,,3,,,75,127
80698,note_off,68,0,0,,3,,,75,127
80698,note_off,0,0,0,,4,,,52,127
80698,note_off,0,0,0,,11,,,58,127
80700,note_on,2,0,0,,11,,,58,127
80700,note_on,0,0,0,,4,,,52,127
80700,note_on,0,0,0,,1,,,73,127
80768,note_off,68,0,0,,1,,,73,127
80770,note_on,2,0,0,,3,,,75,127
80838,note_off,68,0,0,,3,,,75,127
80840,note_on,2,0,0,,1,,,73,127
80908,note_off,68,0,0,,1,,,73,127
80908,note_off,0,0,0,,4,,,52,127
80908,note_off,0,0,0,,11,,,58,127
80910,note_on,2,0,0,,11,,,58,127
80910,note_on,0,0,0,,4,,,52,127
80910,note_on,0,0,0,,3,,,75,127
80978,note_off,68,0,0,,3,,,75,127
80980,note_on,2,0,0,,1,,,73,127
81048,note_off,68,0,0,,1,,,73,127
81050,note_on,2,0,0,,0,,,72,127
81118,note_off,68,0,0,,0,,,72,127
81118,note_off,0,0,0,,4,,,52,127
81118,note_off,0,0,0,,11,,,58,127
81120,note_on,2,0,0,,4,,,52,127
81120,note_on,0,0,0,,11,,,58,127
81120,note_on,0,0,0,,1,,,73,127
81327,note_off,207,0,0,,1,,,73,127
81327,note_off,0,0,0,,11,,,58,127
81327,note_off,0,0,0,,4,,,52,127
81328,note_off,1,0,0,,11,,,82,127
81329,note_on,1,0,0,,5,,,53,127
81329,note_on,0,0,0,,0,,,60,127
81329,note_on,0,0,0,,0,,,72,127
81329,note_on,0,0,0,,10,,,81,127
81536,note_off,207,0,0,,10,,,81,127
81538,note_on,2,0,0,,5,,,77,127
81743,note_off,205,0,0,,0,,,72,127
81743,note_off,0,0,0,,0,,,60,127
81743,note_off,0,0,0,,5,,,53,127
81745,note_off,2,0,0,,5,,,77,127
81747,note_on,2,0,0,,5,,,65,127
81954,note_off,207,0,0,,5,,,65,127
81956,note_on,2,0,0,,5,,,65,127
82163,note_off,207,0,0,,5,,,65,127
82165,note_on,2,0,0,,5,,,53,127
82165,note_on,0,0,0,,5,,,65,127
82372,note_off,207,0,0,,5,,,65,127
82372,note_off,0,0,0,,5,,,53,127
82374,note_on,2,0,0,,5,,,53,127
82374,note_on,0,0,0,,11,,,58,127
82374,note_on,0,0,0,,5,,,65,127
82581,note_off,207,0,0,,5,,,65,127
82581,note_off,0,0,0,,11,,,58,127
82581,note_off,0,0,0,,5,,,53,127
82583,note_on,2,0,0,,10,,,57,127
82583,note_on,0,0,0,,5,,,53,127
82583,note_on,0,0,0,,5,,,65,127
82790,note_off,207,0,0,,5,,,65,127
82790,note_off,0,0,0,,5,,,53,127
82790,note_off,0,0,0,,10,,,57,127
82792,note_on,2,0,0,,1,,,61,127
82792,note_on,0,0,0,,5,,,53,127
82792,note_on,0,0,0,,5,,,65,127
82999,note_off,207,0,0,,5,,,65,127
82999,note_off,0,0,0,,5,,,53,127
82999,note_off,0,0,0,,1,,,61,127
83001,note_on,2,0,0,,0,,,60,127
83001,note_on,0,0,0,,5,,,53,127
83001,note_on,0,0,0,,5,,,65,127
83208,note_off,207,0,0,,5,,,65,127
83208,note_off,0,0,0,,5,,,53,127
83208,note_off,0,0,0,,0,,,60,127
83210,note_on,2,0,0,,5,,,53,127
83210,note_on,0,0,0,,3,,,63,127
83210,note_on,0,0,0,,10,,,69,127
83417,note_off,207,0,0,,10,,,69,127
83417,note_off,0,0,0,,3,,,63,127
83417,note_off,0,0,0,,5,,,53,127
83419,note_on,2,0,0,,1,,,61,127
83419,note_on,0,0,0,,5,,,53,127
83419,note_on,0,0,0,,11,,,70,127
83626,note_off,207,0,0,,11,,,70,127
83626,note_off,0,0,0,,5,,,53,127
83626,note_off,0,0,0,,1,,,61,127
83628,note_on,2,0,0,,0,,,60,127
83628,note_on,0,0,0,,5,,,53,127
83628,note_on,0,0,0,,0,,,72,127
83835,note_off,207,0,0,,0,,,72,127
83835,note_off,0,0,0,,5,,,53,127
83835,note_off,0,0,0,,0,,,60,127
83837,note_on,2,0,0,,4,,,52,127
83837,note_on,0,0,0,,11,,,58,127
83837,note_on,0,0,0,,3,,,75,127
83837,note_on,0,0,0,,11,,,82,127
83905,note_off,68,0,0,,3,,,75,127
83907,note_on,2,0,0,,1,,,73,127
83975,note_off,68,0,0,,1,,,73,127
83977,note_on,2,0,0,,3,,,75,127
84045,note_off,68,0,0,,3,,,75,127
84045,note_off,0,0,0,,11,,,58,127
84045,note_off,0,0,0,,4,,,52,127
84047,note_on,2,0,0,,11,,,58,127
84047,note_on,0,0,0,,4,,,52,127
84047,note_on,0,0,0,,1,,,73,127
84115,note_off,68,0,0,,1,,,73,127
84117,note_on,2,0,0,,3,,,75,127
84185,note_off,68,0,0,,3,,,75,127
84187,note_on,2,0,0,,1,,,73,127
84255,note_off,68,0,0,,1,,,73,127
84255,note_off,0,0,0,,4,,,52,127
84255,note_off,0,0,0,,11,,,58,127
84257,note_on,2,0,0,,4,,,52,127
84257,note_on,0,0,0,,11,,,58,127
84257,note_on,0,0,0,,3,,,75,127
84325,note_off,68,0,0,,3,,,75,127
84327,note_on,2,0,0,,1,,,73,127
84395,note_off,68,0,0,,1,,,73,127
84397,note_on,2,0,0,,0,,,72,127
84465,note_off,68,0,0,,0,,,72,127
84465,note_off,0,0,0,,11,,,58,127
84465,note_off,0,0,0,,4,,,52,127
84467,note_on,2,0,0,,11,,,58,127
84467,note_on,0,0,0,,4,,,52,127
84467,note_on,0,0,0,,1,,,73,127
84674,note_off,207,0,0,,1,,,73,127
84674,note_off,0,0,0,,4,,,52,127
84674,note_off,0,0,0,,11,,,58,127
84675,note_off,1,0,0,,11,,,82,127
84676,note_on,1,0,0,,3,,,51,127
84676,note_on,0,0,0,,0,,,60,127
84676,note_on,0,0,0,,0,,,84,127
84676,note_on,0,0,0,,0,,,72,127
84779,note_off,103,0,0,,0,,,84,127
84781,note_on,2,0,0,,11,,,82,127
84884,note_off,103,0,0,,11,,,82,127
84884,note_off,0,0,0,,0,,,60,127
84884,note_off,0,0,0,,3,,,51,127
84886,note_on,2,0,0,,3,,,51,127
84886,note_on,0,0,0,,0,,,60,127
84886,note_on,0,0,0,,10,,,81,127
84989,note_off,103,0,0,,10,,,81,127
84991,note_on,2,0,0,,7,,,79,127
85091,note_off,100,0,0,,0,,,72,127
85093,note_off,2,0,0,,7,,,79,127
85093,note_off,0,0,0,,0,,,60,127
85093,note_off,0,0,0,,3,,,51,127
85095,note_on,2,0,0,,0,,,60,127
85095,note_on,0,0,0,,3,,,51,127
85095,note_on,0,0,0,,5,,,77,127
85198,note_off,103,0,0,,5,,,77,127
85200,note_on,2,0,0,,3,,,75,127
85303,note_off,103,0,0,,3,,,75,127
85303,note_off,0,0,0,,3,,,51,127
85303,note_off,0,0,0,,0,,,60,127
85305,note_on,2,0,0,,3,,,51,127
85305,note_on,0,0,0,,0,,,60,127
85305,note_on,0,0,0,,2,,,74,127
85408,note_off,103,0,0,,2,,,74,127
85410,note_on,2,0,0,,0,,,72,127
85513,note_off,103,0,0,,0,,,72,127
85513,note_off,0,0,0,,0,,,60,127
85513,note_off,0,0,0,,3,,,51,127
85515,note_on,2,0,0,,2,,,50,127
85515,note_on,0,0,0,,11,,,58,127
85515,note_on,0,0,0,,2,,,86,127
85618,note_off,103,0,0,,2,,,86,127
85620,note_on,2,0,0,,0,,,84,127
85723,note_off,103,0,0,,0,,,84,127
85723,note_off,0,0,0,,11,,,58,127
85723,note_off,0,0,0,,2,,,50,127
85725,note_on,2,0,0,,2,,,50,127
85725,note_on,0,0,0,,11,,,58,127
85725,note_on,0,0,0,,11,,,82,127
85828,note_off,103,0,0,,11,,,82,127
85830,note_on,2,0,0,,10,,,81,127
85933,note_off,103,0,0,,10,,,81,127
85933,note_off,0,0,0,,11,,,58,127
85933,note_off,0,0,0,,2,,,50,127
85935,note_on,2,0,0,,11,,,58,127
85935,note_on,0,0,0,,2,,,50,127
85935,note_on,0,0,0,,7,,,79,127
86038,note_off,103,0,0,,7,,,79,127
86040,note_on,2,0,0,,5,,,77,127
86143,note_off,103,0,0,,5,,,77,127
86143,note_off,0,0,0,,2,,,50,127
86143,note_off,0,0,0,,11,,,58,127
86145,note_on,2,0,0,,2,,,50,127
86145,note_on,0,0,0,,11,,,58,127
86145,note_on,0,0,0,,3,,,75,127
86248,note_off,103,0,0,,3,,,75,127
86250,note_on,2,0,0,,2,,,74,127
86353,note_off,103,0,0,,2,,,74,127
86353,note_off,0,0,0,,11,,,58,127
86353,note_off,0,0,0,,2,,,50,127
86355,note_on,2,0,0,,3,,,51,127
86355,note_on,0,0,0,,11,,,58,127
86355,note_on,0,0,0,,0,,,72,127
86458,note_off,103,0,0,,0,,,72,127
86460,note_on,2,0,0,,7,,,79,127
86563,note_off,103,0,0,,7,,,79,127
86563,note_off,0,0,0,,3,,,51,127
86565,note_on,2,0,0,,3,,,51,127
86565,note_on,0,0,0,,5,,,77,127
86668,note_off,103,0,0,,5,,,77,127
86670,note_on,2,0,0,,3,,,75,127
86770,note_off,100,0,0,,11,,,58,127
86772,note_off,2,0,0,,3,,,75,127
86772,note_off,0,0,0,,3,,,51,127
86774,note_on,2,0,0,,5,,,53,127
86774,note_on,0,0,0,,2,,,74,127
86877,note_off,103,0,0,,2,,,74,127
86879,note_on,2,0,0,,0,,,72,127
86982,note_off,103,0,0,,0,,,72,127
86984,note_on,2,0,0,,5,,,41,127
86984,note_on,0,0,0,,11,,,70,127
87087,note_off,103,0,0,,11,,,70,127
87089,note_on,2,0,0,,10,,,69,127
87189,note_off,100,0,0,,5,,,53,127
87191,note_off,2,0,0,,10,,,69,127
87191,note_off,0,0,0,,5,,,41,127
87193,note_on,2,0,0,,11,,,46,127
87193,note_on,0,0,0,,11,,,70,127
87296,note_off,103,0,0,,11,,,70,127
87298,note_on,2,0,0,,11,,,82,127
87401,note_off,103,0,0,,11,,,82,127
87403,note_on,2,0,0,,11,,,70,127
87506,note_off,103,0,0,,11,,,70,127
87508,note_on,2,0,0,,11,,,70,127
87611,note_off,103,0,0,,11,,,70,127
87613,note_on,2,0,0,,11,,,70,127
87716,note_off,103,0,0,,11,,,70,127
87718,note_off,2,0,0,,11,,,46,127
87718,note_on,0,0,0,,10,,,69,127
87821,note_off,103,0,0,,10,,,69,127
87823,note_on,2,0,0,,2,,,50,127
87823,note_on,0,0,0,,7,,,67,127
87926,note_off,103,0,0,,7,,,67,127
87928,note_on,2,0,0,,5,,,65,127
88031,note_off,103,0,0,,5,,,65,127
88031,note_off,0,0,0,,2,,,50,127
88033,note_on,2,0,0,,3,,,51,127
88033,note_on,0,0,0,,7,,,67,127
88136,note_off,103,0,0,,7,,,67,127
88138,note_on,2,0,0,,7,,,79,127
88241,note_off,103,0,0,,7,,,79,127
88241,note_off,0,0,0,,3,,,51,127
88243,note_on,2,0,0,,3,,,51,127
88243,note_on,0,0,0,,5,,,77,127
88346,note_off,103,0,0,,5,,,77,127
88348,note_on,2,0,0,,3,,,75,127
88451,note_off,103,0,0,,3,,,75,127
88451,note_off,0,0,0,,3,,,51,127
88453,note_on,2,0,0,,5,,,53,127
88453,note_on,0,0,0,,2,,,74,127
88556,note_off,103,0,0,,2,,,74,127
88558,note_on,2,0,0,,0,,,72,127
88661,note_off,103,0,0,,0,,,72,127
88661,note_off,0,0,0,,5,,,53,127
88663,note_on,2,0,0,,5,,,41,127
88663,note_on,0,0,0,,11,,,70,127
88766,note_off,103,0,0,,11,,,70,127
88768,note_on,2,0,0,,10,,,69,127
88871,note_off,103,0,0,,10,,,69,127
88871,note_off,0,0,0,,5,,,41,127
88873,note_on,2,0,0,,11,,,46,127
88873,note_on,0,0,0,,11,,,70,127
88976,note_off,103,0,0,,11,,,70,127
88978,note_on,2,0,0,,11,,,82,127
89081,note_off,103,0,0,,11,,,82,127
89083,note_on,2,0,0,,11,,,70,127
89186,note_off,103,0,0,,11,,,70,127
89188,note_on,2,0,0,,11,,,70,127
89291,note_off,103,0,0,,11,,,70,127
89293,note_on,2,0,0,,11,,,70,127
89396,note_off,103,0,0,,11,,,70,127
89398,note_off,2,0,0,,11,,,46,127
89398,note_on,0,0,0,,10,,,69,127
89501,note_off,103,0,0,,10,,,69,127
89503,note_on,2,0,0,,2,,,50,127
89503,note_on,0,0,0,,7,,,67,127
89606,note_off,103,0,0,,7,,,67,127
89608,note_on,2,0,0,,5,,,65,127
89711,note_off,103,0,0,,5,,,65,127
89711,note_off,0,0,0,,2,,,50,127
89713,note_on,2,0,0,,3,,,51,127
89713,note_on,0,0,0,,7,,,67,127
89816,note_off,103,0,0,,7,,,67,127
89818,note_on,2,0,0,,7,,,79,127
89921,note_off,103,0,0,,7,,,79,127
89921,note_off,0,0,0,,3,,,51,127
89923,note_on,2,0,0,,3,,,51,127
89923,note_on,0,0,0,,5,,,77,127
90026,note_off,103,0,0,,5,,,77,127
90028,note_on,2,0,0,,3,,,75,127
90131,note_off,103,0,0,,3,,,75,127
90131,note_off,0,0,0,,3,,,51,127
90133,note_on,2,0,0,,5,,,53,127
90133,note_on,0,0,0,,2,,,74,127
90236,note_off,103,0,0,,2,,,74,127
90238,note_on,2,0,0,,0,,,72,127
90341,note_off,103,0,0,,0,,,72,127
90341,note_off,0,0,0,,5,,,53,127
90343,note_on,2,0,0,,5,,,41,127
90343,note_on,0,0,0,,11,,,70,127
90446,note_off,103,0,0,,11,,,70,127
90448,note_on,2,0,0,,10,,,69,127
90551,note_off,103,0,0,,10,,,69,127
90551,note_off,0,0,0,,5,,,41,127
90553,note_on,2,0,0,,11,,,58,127
90553,note_on,0,0,0,,11,,,70,127
90656,note_off,103,0,0,,11,,,58,127
90657,note_off,1,0,0,,11,,,70,127
90658,note_on,1,0,0,,11,,,70,127
90761,note_off,103,0,0,,11,,,70,127
90763,note_on,2,0,0,,11,,,58,127
90763,note_on,0,0,0,,11,,,70,127
90866,note_off,103,0,0,,11,,,58,127
90868,note_on,2,0,0,,11,,,58,127
90971,note_off,103,0,0,,11,,,58,127
90971,note_off,0,0,0,,11,,,70,127
90973,note_on,2,0,0,,11,,,58,127
90973,note_on,0,0,0,,11,,,70,127
91076,note_off,103,0,0,,11,,,58,127
91078,note_on,2,0,0,,10,,,69,127
91181,note_off,103,0,0,,10,,,69,127
91181,note_off,0,0,0,,11,,,70,127
91183,note_on,2,0,0,,7,,,67,127
91183,note_on,0,0,0,,11,,,70,127
91286,note_off,103,0,0,,7,,,67,127
91288,note_on,2,0,0,,6,,,66,127
91391,note_off,103,0,0,,6,,,66,127
91391,note_off,0,0,0,,11,,,70,127
91393,note_on,2,0,0,,7,,,55,127
91393,note_on,0,0,0,,11,,,70,127
91496,note_off,103,0,0,,7,,,55,127
91498,note_on,2,0,0,,7,,,67,127
91601,note_off,103,0,0,,7,,,67,127
91601,note_off,0,0,0,,11,,,70,127
91603,note_on,2,0,0,,7,,,55,127
91603,note_on,0,0,0,,11,,,82,127
91706,note_off,103,0,0,,7,,,55,127
91708,note_on,2,0,0,,7,,,55,127
91811,note_off,103,0,0,,7,,,55,127
91811,note_off,0,0,0,,11,,,82,127
91813,note_on,2,0,0,,7,,,55,127
91813,note_on,0,0,0,,11,,,70,127
91916,note_off,103,0,0,,7,,,55,127
91918,note_on,2,0,0,,5,,,65,127
92021,note_off,103,0,0,,5,,,65,127
92021,note_off,0,0,0,,11,,,70,127
92023,note_on,2,0,0,,3,,,63,127
92023,note_on,0,0,0,,11,,,70,127
92126,note_off,103,0,0,,3,,,63,127
92128,note_on,2,0,0,,2,,,62,127
92231,note_off,103,0,0,,2,,,62,127
92231,note_off,0,0,0,,11,,,70,127
92233,note_on,2,0,0,,3,,,51,127
92233,note_on,0,0,0,,11,,,70,127
92336,note_off,103,0,0,,3,,,51,127
92338,note_on,2,0,0,,3,,,63,127
92441,note_off,103,0,0,,3,,,63,127
92441,note_off,0,0,0,,11,,,70,127
92443,note_on,2,0,0,,3,,,51,127
92443,note_on,0,0,0,,11,,,82,127
92546,note_off,103,0,0,,3,,,51,127
92548,note_on,2,0,0,,3,,,51,127
92651,note_off,103,0,0,,3,,,51,127
92651,note_off,0,0,0,,11,,,82,127
92653,note_on,2,0,0,,3,,,51,127
92653,note_on,0,0,0,,11,,,70,127
92756,note_off,103,0,0,,3,,,51,127
92758,note_on,2,0,0,,2,,,62,127
92861,note_off,103,0,0,,2,,,62,127
92861,note_off,0,0,0,,11,,,70,127
92863,note_on,2,0,0,,0,,,60,127
92863,note_on,0,0,0,,11,,,70,127
92966,note_off,103,0,0,,0,,,60,127
92968,note_on,2,0,0,,12,,,59,127
93071,note_off,103,0,0,,12,,,59,127
93071,note_off,0,0,0,,11,,,70,127
93073,note_on,2,0,0,,0,,,60,127
93073,note_on,0,0,0,,3,,,75,127
93073,note_on,0,0,0,,7,,,67,127
93176,note_off,103,0,0,,0,,,60,127
93178,note_on,2,0,0,,11,,,58,127
93281,note_off,103,0,0,,11,,,58,127
93283,note_on,2,0,0,,10,,,57,127
93386,note_off,103,0,0,,10,,,57,127
93388,note_on,2,0,0,,7,,,55,127
93491,note_off,103,0,0,,7,,,55,127
93491,note_off,0,0,0,,7,,,67,127
93493,note_on,2,0,0,,5,,,53,127
93493,note_on,0,0,0,,10,,,69,127
93596,note_off,103,0,0,,5,,,53,127
93598,note_on,2,0,0,,3,,,51,127
93701,note_off,103,0,0,,3,,,51,127
93703,note_on,2,0,0,,2,,,50,127
93806,note_off,103,0,0,,2,,,50,127
93808,note_on,2,0,0,,0,,,48,127
93911,note_off,103,0,0,,0,,,48,127
93911,note_off,0,0,0,,10,,,69,127
93912,note_off,1,0,0,,3,,,75,127
93913,note_on,1,0,0,,11,,,46,127
93913,note_on,0,0,0,,11,,,70,127
94016,note_off,103,0,0,,11,,,70,127
94018,note_on,2,0,0,,7,,,79,127
94121,note_off,103,0,0,,7,,,79,127
94123,note_on,2,0,0,,5,,,77,127
94226,note_off,103,0,0,,5,,,77,127
94228,note_on,2,0,0,,3,,,75,127
94331,note_off,103,0,0,,3,,,75,127
94333,note_on,2,0,0,,2,,,74,127
94436,note_off,103,0,0,,2,,,74,127
94438,note_off,2,0,0,,11,,,46,127
94438,note_on,0,0,0,,0,,,72,127
94541,note_off,103,0,0,,0,,,72,127
94543,note_on,2,0,0,,2,,,50,127
94543,note_on,0,0,0,,11,,,70,127
94646,note_off,103,0,0,,11,,,70,127
94648,note_on,2,0,0,,10,,,69,127
94751,note_off,103,0,0,,10,,,69,127
94751,note_off,0,0,0,,2,,,50,127
94753,note_on,2,0,0,,3,,,51,127
94753,note_on,0,0,0,,7,,,67,127
94856,note_off,103,0,0,,7,,,67,127
94858,note_on,2,0,0,,7,,,79,127
94961,note_off,103,0,0,,7,,,79,127
94961,note_off,0,0,0,,3,,,51,127
94963,note_on,2,0,0,,3,,,51,127
94963,note_on,0,0,0,,5,,,77,127
95066,note_off,103,0,0,,5,,,77,127
95068,note_on,2,0,0,,3,,,75,127
95171,note_off,103,0,0,,3,,,75,127
95171,note_off,0,0,0,,3,,,51,127
95173,note_on,2,0,0,,5,,,53,127
95173,note_on,0,0,0,,2,,,74,127
95276,note_off,103,0,0,,2,,,74,127
95278,note_on,2,0,0,,0,,,72,127
95381,note_off,103,0,0,,0,,,72,127
95383,note_on,2,0,0,,5,,,41,127
95383,note_on,0,0,0,,11,,,70,127
95486,note_off,103,0,0,,11,,,70,127
95488,note_on,2,0,0,,10,,,69,127
95588,note_off,100,0,0,,5,,,53,127
95590,note_off,2,0,0,,10,,,69,127
95590,note_off,0,0,0,,5,,,41,127
95592,note_on,2,0,0,,11,,,46,127
95592,note_on,0,0,0,,11,,,70,127
95695,note_off,103,0,0,,11,,,70,127
95697,note_on,2,0,0,,5,,,77,127
95800,note_off,103,0,0,,5,,,77,127
95802,note_on,2,0,0,,3,,,75,127
95905,note_off,103,0,0,,3,,,75,127
95907,note_on,2,0,0,,7,,,67,127
96010,note_off,103,0,0,,7,,,67,127
96012,note_on,2,0,0,,5,,,65,127
96115,note_off,103,0,0,,5,,,65,127
96117,note_off,2,0,0,,11,,,46,127
96117,note_on,0,0,0,,2,,,74,127
96220,note_off,103,0,0,,2,,,74,127
96222,note_on,2,0,0,,0,,,48,127
96222,note_on,0,0,0,,0,,,72,127
96325,note_off,103,0,0,,0,,,72,127
96327,note_on,2,0,0,,3,,,63,127
96430,note_off,103,0,0,,3,,,63,127
96430,note_off,0,0,0,,0,,,48,127
96432,note_on,2,0,0,,2,,,50,127
96432,note_on,0,0,0,,2,,,62,127
96535,note_off,103,0,0,,2,,,62,127
96537,note_on,2,0,0,,10,,,69,127
96640,note_off,103,0,0,,10,,,69,127
96640,note_off,0,0,0,,2,,,50,127
96642,note_on,2,0,0,,3,,,51,127
96642,note_on,0,0,0,,11,,,70,127
96745,note_off,103,0,0,,11,,,70,127
96747,note_on,2,0,0,,0,,,72,127
96850,note_off,103,0,0,,0,,,72,127
96850,note_off,0,0,0,,3,,,51,127
96852,note_on,2,0,0,,5,,,53,127
96852,note_on,0,0,0,,5,,,65,127
96955,note_off,103,0,0,,5,,,65,127
96957,note_on,2,0,0,,3,,,63,127
97060,note_off,103,0,0,,3,,,63,127
97062,note_on,2,0,0,,5,,,41,127
97062,note_on,0,0,0,,2,,,62,127
97165,note_off,103,0,0,,2,,,62,127
97167,note_on,2,0,0,,0,,,60,127
97267,note_off,100,0,0,,5,,,53,127
97269,note_off,2,0,0,,0,,,60,127
97269,note_off,0,0,0,,5,,,41,127
97271,note_on,2,0,0,,11,,,46,127
97271,note_on,0,0,0,,11,,,58,127
97374,note_off,103,0,0,,11,,,58,127
97376,note_on,2,0,0,,5,,,77,127
97479,note_off,103,0,0,,5,,,77,127
97481,note_on,2,0,0,,3,,,75,127
97584,note_off,103,0,0,,3,,,75,127
97586,note_on,2,0,0,,7,,,67,127
97689,note_off,103,0,0,,7,,,67,127
97691,note_on,2,0,0,,5,,,65,127
97794,note_off,103,0,0,,5,,,65,127
97796,note_on,2,0,0,,2,,,74,127
97899,note_off,103,0,0,,2,,,74,127
97899,note_off,0,0,0,,11,,,46,127
97901,note_on,2,0,0,,0,,,48,127
97901,note_on,0,0,0,,0,,,72,127
98004,note_off,103,0,0,,0,,,72,127
98006,note_on,2,0,0,,3,,,63,127
98109,note_off,103,0,0,,3,,,63,127
98109,note_off,0,0,0,,0,,,48,127
98111,note_on,2,0,0,,2,,,50,127
98111,note_on,0,0,0,,2,,,62,127
98214,note_off,103,0,0,,2,,,62,127
98216,note_on,2,0,0,,10,,,69,127
98319,note_off,103,0,0,,10,,,69,127
98319,note_off,0,0,0,,2,,,50,127
98321,note_on,2,0,0,,3,,,51,127
98321,note_on,0,0,0,,11,,,70,127
98424,note_off,103,0,0,,11,,,70,127
98426,note_on,2,0,0,,0,,,72,127
98529,note_off,103,0,0,,0,,,72,127
98529,note_off,0,0,0,,3,,,51,127
98531,note_on,2,0,0,,5,,,53,127
98531,note_on,0,0,0,,5,,,65,127
98634,note_off,103,0,0,,5,,,65,127
98636,note_on,2,0,0,,3,,,63,127
98739,note_off,103,0,0,,3,,,63,127
98741,note_on,2,0,0,,5,,,41,127
98741,note_on,0,0,0,,2,,,62,127
98844,note_off,103,0,0,,2,,,62,127
98846,note_on,2,0,0,,0,,,60,127
98946,note_off,100,0,0,,5,,,53,127
98948,note_off,2,0,0,,0,,,60,127
98948,note_off,0,0,0,,5,,,41,127
98950,note_on,2,0,0,,11,,,46,127
98950,note_on,0,0,0,,0,,,60,127
99000,note_off,50,0,0,,0,,,60,127
99002,note_on,2,0,0,,11,,,58,127
99052,note_off,50,0,0,,11,,,58,127
99054,note_on,2,0,0,,0,,,60,127
99104,note_off,50,0,0,,0,,,60,127
99106,note_on,2,0,0,,11,,,58,127
100799,note_off,1693,0,0,,11,,,58,127
100799,note_off,0,0,0,,11,,,46,127
102912,end_of_track,2113,1,0,,,,,,
