tick,type,time,meta,track,program,channel,pitch,tempo,note,velocity
0,copyright,0,1,0,,,,,,
0,program_change,0,0,0,6,0,,,,
0,pitchwheel,0,0,0,,0,0,,,
0,program_change,0,0,0,6,1,,,,
0,pitchwheel,0,0,0,,1,-590,,,
0,program_change,0,0,0,6,2,,,,
0,pitchwheel,0,0,0,,2,-272,,,
0,program_change,0,0,0,6,3,,,,
0,pitchwheel,0,0,0,,3,-353,,,
0,program_change,0,0,0,6,4,,,,
0,pitchwheel,0,0,0,,4,-560,,,
0,program_change,0,0,0,6,5,,,,
0,pitchwheel,0,0,0,,5,-80,,,
0,program_change,0,0,0,6,6,,,,
0,pitchwheel,0,0,0,,6,-625,,,
0,program_change,0,0,0,6,7,,,,
0,pitchwheel,0,0,0,,7,-130,,,
0,program_change,0,0,0,6,8,,,,
0,pitchwheel,0,0,0,,8,-512,,,
0,program_change,0,0,0,6,10,,,,
0,pitchwheel,0,0,0,,10,-464,,,
0,program_change,0,0,0,6,11,,,,
0,pitchwheel,0,0,0,,11,-208,,,
0,program_change,0,0,0,6,12,,,,
0,pitchwheel,0,0,0,,12,-553,,,
0,set_tempo,0,1,0,,,,500000,,
48,note_on,48,0,0,,11,,,58,127
48,note_on,0,0,0,,5,,,77,127
190,note_off,142,0,0,,5,,,77,127
192,note_on,2,0,0,,3,,,75,127
334,note_off,142,0,0,,3,,,75,127
336,note_on,2,0,0,,3,,,75,127
622,note_off,286,0,0,,3,,,75,127
624,note_on,2,0,0,,2,,,74,127
910,note_off,286,0,0,,2,,,74,127
910,note_off,0,0,0,,11,,,58,127
912,note_on,2,0,0,,11,,,58,127
912,note_on,0,0,0,,5,,,77,127
1054,note_off,142,0,0,,5,,,77,127
1056,note_on,2,0,0,,3,,,75,127
1198,note_off,142,0,0,,3,,,75,127
1200,note_on,2,0,0,,3,,,75,127
1486,note_off,286,0,0,,3,,,75,127
1488,note_on,2,0,0,,2,,,74,127
1774,note_off,286,0,0,,2,,,74,127
1774,note_off,0,0,0,,11,,,58,127
1776,note_on,2,0,0,,3,,,51,127
1776,note_on,0,0,0,,2,,,74,127
1918,note_off,142,0,0,,2,,,74,127
1920,note_on,2,0,0,,0,,,72,127
2062,note_off,142,0,0,,0,,,72,127
2062,note_off,0,0,0,,3,,,51,127
2064,note_on,2,0,0,,5,,,53,127
2064,note_on,0,0,0,,0,,,72,127
2206,note_off,142,0,0,,0,,,72,127
2208,note_on,2,0,0,,11,,,70,127
2350,note_off,142,0,0,,11,,,70,127
2350,note_off,0,0,0,,5,,,53,127
2352,note_on,2,0,0,,5,,,41,127
2352,note_on,0,0,0,,11,,,70,127
2494,note_off,142,0,0,,11,,,70,127
2496,note_on,2,0,0,,10,,,69,127
2638,note_off,142,0,0,,10,,,69,127
2638,note_off,0,0,0,,5,,,41,127
2640,note_on,2,0,0,,11,,,46,127
2640,note_on,0,0,0,,0,,,72,127
2710,note_off,70,0,0,,0,,,72,127
2712,note_on,2,0,0,,11,,,70,127
2782,note_off,70,0,0,,11,,,70,127
2784,note_on,2,0,0,,0,,,72,127
2854,note_off,70,0,0,,0,,,72,127
2856,note_on,2,0,0,,11,,,70,127
2926,note_off,70,0,0,,11,,,70,127
2928,note_on,2,0,0,,11,,,34,127
2928,note_on,0,0,0,,0,,,72,127
2998,note_off,70,0,0,,0,,,72,127
3000,note_on,2,0,0,,11,,,70,127
3070,note_off,70,0,0,,11,,,70,127
3072,note_on,2,0,0,,10,,,69,127
3214,note_off,142,0,0,,10,,,69,127
3216,note_on,2,0,0,,11,,,70,127
3502,note_off,286,0,0,,11,,,70,127
3502,note_off,0,0,0,,11,,,34,127
3502,note_off,0,0,0,,11,,,46,127
3504,note_on,2,0,0,,11,,,58,127
3504,note_on,0,0,0,,11,,,82,127
3646,note_off,142,0,0,,11,,,82,127
3648,note_on,2,0,0,,7,,,79,127
3790,note_off,142,0,0,,7,,,79,127
3792,note_on,2,0,0,,7,,,79,127
4078,note_off,286,0,0,,7,,,79,127
4080,note_on,2,0,0,,5,,,77,127
4366,note_off,286,0,0,,5,,,77,127
4366,note_off,0,0,0,,11,,,58,127
4368,note_on,2,0,0,,11,,,58,127
4368,note_on,0,0,0,,11,,,82,127
4510,note_off,142,0,0,,11,,,82,127
4512,note_on,2,0,0,,7,,,79,127
4654,note_off,142,0,0,,7,,,79,127
4656,note_on,2,0,0,,7,,,79,127
4942,note_off,286,0,0,,7,,,79,127
4944,note_on,2,0,0,,5,,,77,127
5230,note_off,286,0,0,,5,,,77,127
5230,note_off,0,0,0,,11,,,58,127
5232,note_on,2,0,0,,3,,,51,127
5232,note_on,0,0,0,,5,,,77,127
5374,note_off,142,0,0,,5,,,77,127
5376,note_on,2,0,0,,3,,,75,127
5518,note_off,142,0,0,,3,,,75,127
5518,note_off,0,0,0,,3,,,51,127
5520,note_on,2,0,0,,5,,,53,127
5520,note_on,0,0,0,,3,,,75,127
5662,note_off,142,0,0,,3,,,75,127
5664,note_on,2,0,0,,2,,,74,127
5806,note_off,142,0,0,,2,,,74,127
5806,note_off,0,0,0,,5,,,53,127
5808,note_on,2,0,0,,5,,,41,127
5808,note_on,0,0,0,,2,,,74,127
5950,note_off,142,0,0,,2,,,74,127
5952,note_on,2,0,0,,0,,,72,127
6094,note_off,142,0,0,,0,,,72,127
6094,note_off,0,0,0,,5,,,41,127
6096,note_on,2,0,0,,11,,,46,127
6096,note_on,0,0,0,,0,,,72,127
6166,note_off,70,0,0,,0,,,72,127
6168,note_on,2,0,0,,11,,,70,127
6238,note_off,70,0,0,,11,,,70,127
6240,note_on,2,0,0,,0,,,72,127
6310,note_off,70,0,0,,0,,,72,127
6312,note_on,2,0,0,,11,,,70,127
6382,note_off,70,0,0,,11,,,70,127
6384,note_on,2,0,0,,11,,,34,127
6384,note_on,0,0,0,,0,,,72,127
6454,note_off,70,0,0,,0,,,72,127
6456,note_on,2,0,0,,11,,,70,127
6526,note_off,70,0,0,,11,,,70,127
6528,note_on,2,0,0,,10,,,69,127
6670,note_off,142,0,0,,10,,,69,127
6672,note_on,2,0,0,,11,,,70,127
6958,note_off,286,0,0,,11,,,70,127
6958,note_off,0,0,0,,11,,,34,127
6958,note_off,0,0,0,,11,,,46,127
6972,note_on,14,0,0,,5,,,65,127
6972,note_on,0,0,0,,11,,,58,127
6972,note_on,0,0,0,,5,,,77,127
7114,note_off,142,0,0,,5,,,77,127
7116,note_on,2,0,0,,3,,,75,127
7258,note_off,142,0,0,,3,,,75,127
7260,note_on,2,0,0,,3,,,75,127
7546,note_off,286,0,0,,3,,,75,127
7546,note_off,0,0,0,,11,,,58,127
7546,note_off,0,0,0,,5,,,65,127
7548,note_on,2,0,0,,11,,,58,127
7548,note_on,0,0,0,,5,,,65,127
7548,note_on,0,0,0,,2,,,74,127
7834,note_off,286,0,0,,2,,,74,127
7834,note_off,0,0,0,,5,,,65,127
7834,note_off,0,0,0,,11,,,58,127
7836,note_on,2,0,0,,5,,,65,127
7836,note_on,0,0,0,,8,,,56,127
7836,note_on,0,0,0,,5,,,77,127
7978,note_off,142,0,0,,5,,,77,127
7980,note_on,2,0,0,,3,,,75,127
8122,note_off,142,0,0,,3,,,75,127
8124,note_on,2,0,0,,3,,,75,127
8410,note_off,286,0,0,,3,,,75,127
8410,note_off,0,0,0,,8,,,56,127
8410,note_off,0,0,0,,5,,,65,127
8412,note_on,2,0,0,,8,,,56,127
8412,note_on,0,0,0,,5,,,65,127
8412,note_on,0,0,0,,2,,,74,127
8698,note_off,286,0,0,,2,,,74,127
8698,note_off,0,0,0,,5,,,65,127
8698,note_off,0,0,0,,8,,,56,127
8700,note_on,2,0,0,,7,,,55,127
8700,note_on,0,0,0,,5,,,65,127
8700,note_on,0,0,0,,7,,,79,127
8842,note_off,142,0,0,,7,,,79,127
8844,note_on,2,0,0,,8,,,80,127
8986,note_off,142,0,0,,8,,,80,127
8986,note_off,0,0,0,,5,,,65,127
8986,note_off,0,0,0,,7,,,55,127
8988,note_on,2,0,0,,3,,,63,127
8988,note_on,0,0,0,,7,,,55,127
8988,note_on,0,0,0,,0,,,72,127
9274,note_off,286,0,0,,0,,,72,127
9274,note_off,0,0,0,,7,,,55,127
9274,note_off,0,0,0,,3,,,63,127
9276,note_on,2,0,0,,2,,,62,127
9276,note_on,0,0,0,,7,,,55,127
9276,note_on,0,0,0,,12,,,71,127
9562,note_off,286,0,0,,12,,,71,127
9562,note_off,0,0,0,,7,,,55,127
9562,note_off,0,0,0,,2,,,62,127
9564,note_on,2,0,0,,0,,,60,127
9564,note_on,0,0,0,,12,,,71,127
9850,note_off,286,0,0,,0,,,60,127
9859,note_on,9,0,0,,0,,,48,127
10138,note_off,279,0,0,,12,,,71,127
10146,note_off,8,0,0,,0,,,48,127
10155,note_on,9,0,0,,0,,,36,127
10155,note_on,0,0,0,,0,,,72,127
10441,note_off,286,0,0,,0,,,36,127
10475,note_on,34,0,0,,0,,,48,127
10586,note_off,111,0,0,,0,,,72,127
10618,note_off,32,0,0,,0,,,48,127
10620,note_on,2,0,0,,4,,,52,127
10762,note_off,142,0,0,,4,,,52,127
10764,note_on,2,0,0,,7,,,55,127
10906,note_off,142,0,0,,7,,,55,127
10908,note_on,2,0,0,,0,,,60,127
11050,note_off,142,0,0,,0,,,60,127
11052,note_on,2,0,0,,4,,,64,127
11194,note_off,142,0,0,,4,,,64,127
11196,note_on,2,0,0,,7,,,67,127
11338,note_off,142,0,0,,7,,,67,127
11340,note_on,2,0,0,,0,,,60,127
11484,note_on,144,0,0,,7,,,79,127
11626,note_off,142,0,0,,7,,,79,127
11626,note_off,0,0,0,,0,,,60,127
11628,note_on,2,0,0,,4,,,64,127
11628,note_on,0,0,0,,0,,,72,127
11698,note_off,70,0,0,,0,,,72,127
11700,note_on,2,0,0,,11,,,70,127
11770,note_off,70,0,0,,11,,,70,127
11772,note_on,2,0,0,,0,,,72,127
11842,note_off,70,0,0,,0,,,72,127
11844,note_on,2,0,0,,11,,,70,127
11914,note_off,70,0,0,,11,,,70,127
11914,note_off,0,0,0,,4,,,64,127
11916,note_on,2,0,0,,5,,,65,127
11916,note_on,0,0,0,,10,,,69,127
12201,note_off,285,0,0,,10,,,69,127
12203,note_off,2,0,0,,5,,,65,127
12205,note_on,2,0,0,,0,,,48,127
12347,note_off,142,0,0,,0,,,48,127
12349,note_on,2,0,0,,4,,,52,127
12491,note_off,142,0,0,,4,,,52,127
12493,note_on,2,0,0,,7,,,55,127
12635,note_off,142,0,0,,7,,,55,127
12637,note_on,2,0,0,,0,,,60,127
12779,note_off,142,0,0,,0,,,60,127
12781,note_on,2,0,0,,4,,,64,127
12923,note_off,142,0,0,,4,,,64,127
12925,note_on,2,0,0,,7,,,67,127
13067,note_off,142,0,0,,7,,,67,127
13069,note_on,2,0,0,,0,,,60,127
13213,note_on,144,0,0,,7,,,79,127
13355,note_off,142,0,0,,7,,,79,127
13355,note_off,0,0,0,,0,,,60,127
13357,note_on,2,0,0,,4,,,64,127
13357,note_on,0,0,0,,0,,,72,127
13427,note_off,70,0,0,,0,,,72,127
13429,note_on,2,0,0,,11,,,70,127
13499,note_off,70,0,0,,11,,,70,127
13501,note_on,2,0,0,,0,,,72,127
13571,note_off,70,0,0,,0,,,72,127
13573,note_on,2,0,0,,11,,,70,127
13643,note_off,70,0,0,,11,,,70,127
13643,note_off,0,0,0,,4,,,64,127
13645,note_on,2,0,0,,5,,,65,127
13645,note_on,0,0,0,,10,,,69,127
13930,note_off,285,0,0,,10,,,69,127
13932,note_off,2,0,0,,5,,,65,127
13934,note_on,2,0,0,,0,,,36,127
14076,note_off,142,0,0,,0,,,36,127
14078,note_on,2,0,0,,4,,,40,127
14220,note_off,142,0,0,,4,,,40,127
14222,note_on,2,0,0,,7,,,43,127
14364,note_off,142,0,0,,7,,,43,127
14366,note_on,2,0,0,,0,,,48,127
14508,note_off,142,0,0,,0,,,48,127
14510,note_on,2,0,0,,4,,,52,127
14652,note_off,142,0,0,,4,,,52,127
14654,note_on,2,0,0,,7,,,55,127
14796,note_off,142,0,0,,7,,,55,127
14798,note_on,2,0,0,,0,,,36,127
14942,note_on,144,0,0,,7,,,79,127
15084,note_off,142,0,0,,7,,,79,127
15086,note_on,2,0,0,,0,,,72,127
15156,note_off,70,0,0,,0,,,72,127
15158,note_on,2,0,0,,11,,,70,127
15228,note_off,70,0,0,,11,,,70,127
15230,note_on,2,0,0,,0,,,72,127
15300,note_off,70,0,0,,0,,,72,127
15302,note_on,2,0,0,,11,,,70,127
15372,note_off,70,0,0,,11,,,70,127
15372,note_off,0,0,0,,0,,,36,127
15374,note_on,2,0,0,,5,,,41,127
15374,note_on,0,0,0,,10,,,69,127
15660,note_off,286,0,0,,10,,,69,127
15660,note_off,0,0,0,,5,,,41,127
15662,note_on,2,0,0,,11,,,46,127
15662,note_on,0,0,0,,10,,,81,127
15804,note_off,142,0,0,,10,,,81,127
15806,note_on,2,0,0,,7,,,79,127
15948,note_off,142,0,0,,7,,,79,127
15948,note_off,0,0,0,,11,,,46,127
15950,note_on,2,0,0,,0,,,48,127
15950,note_on,0,0,0,,7,,,79,127
16092,note_off,142,0,0,,7,,,79,127
16094,note_on,2,0,0,,5,,,77,127
16236,note_off,142,0,0,,5,,,77,127
16238,note_on,2,0,0,,0,,,36,127
16238,note_on,0,0,0,,5,,,77,127
16380,note_off,142,0,0,,5,,,77,127
16382,note_on,2,0,0,,4,,,76,127
16524,note_off,142,0,0,,4,,,76,127
16524,note_off,0,0,0,,0,,,36,127
16524,note_off,0,0,0,,0,,,48,127
16526,note_on,2,0,0,,5,,,41,127
16526,note_on,0,0,0,,4,,,76,127
16812,note_off,286,0,0,,5,,,41,127
16814,note_on,2,0,0,,5,,,53,127
17100,note_off,286,0,0,,5,,,53,127
17100,note_off,0,0,0,,4,,,76,127
17102,note_on,2,0,0,,5,,,65,127
17102,note_on,0,0,0,,5,,,77,127
17388,note_off,286,0,0,,5,,,77,127
17388,note_off,0,0,0,,5,,,65,127
17390,note_on,2,0,0,,0,,,48,127
17532,note_off,142,0,0,,0,,,48,127
17534,note_on,2,0,0,,4,,,52,127
17676,note_off,142,0,0,,4,,,52,127
17678,note_on,2,0,0,,7,,,55,127
17820,note_off,142,0,0,,7,,,55,127
17822,note_on,2,0,0,,0,,,60,127
17964,note_off,142,0,0,,0,,,60,127
17966,note_on,2,0,0,,4,,,64,127
18108,note_off,142,0,0,,4,,,64,127
18110,note_on,2,0,0,,7,,,67,127
18252,note_off,142,0,0,,7,,,67,127
18254,note_on,2,0,0,,0,,,60,127
18398,note_on,144,0,0,,7,,,79,127
18540,note_off,142,0,0,,7,,,79,127
18540,note_off,0,0,0,,0,,,60,127
18542,note_on,2,0,0,,4,,,64,127
18542,note_on,0,0,0,,0,,,72,127
18612,note_off,70,0,0,,0,,,72,127
18614,note_on,2,0,0,,11,,,70,127
18684,note_off,70,0,0,,11,,,70,127
18686,note_on,2,0,0,,0,,,72,127
18756,note_off,70,0,0,,0,,,72,127
18758,note_on,2,0,0,,11,,,70,127
18828,note_off,70,0,0,,11,,,70,127
18828,note_off,0,0,0,,4,,,64,127
18830,note_on,2,0,0,,5,,,65,127
18830,note_on,0,0,0,,10,,,69,127
19115,note_off,285,0,0,,10,,,69,127
19117,note_off,2,0,0,,5,,,65,127
19119,note_on,2,0,0,,0,,,48,127
19261,note_off,142,0,0,,0,,,48,127
19263,note_on,2,0,0,,4,,,52,127
19405,note_off,142,0,0,,4,,,52,127
19407,note_on,2,0,0,,7,,,55,127
19549,note_off,142,0,0,,7,,,55,127
19551,note_on,2,0,0,,0,,,60,127
19693,note_off,142,0,0,,0,,,60,127
19695,note_on,2,0,0,,4,,,64,127
19837,note_off,142,0,0,,4,,,64,127
19839,note_on,2,0,0,,7,,,67,127
19981,note_off,142,0,0,,7,,,67,127
19983,note_on,2,0,0,,0,,,60,127
20127,note_on,144,0,0,,7,,,79,127
20269,note_off,142,0,0,,7,,,79,127
20269,note_off,0,0,0,,0,,,60,127
20271,note_on,2,0,0,,4,,,64,127
20271,note_on,0,0,0,,0,,,72,127
20341,note_off,70,0,0,,0,,,72,127
20343,note_on,2,0,0,,11,,,70,127
20413,note_off,70,0,0,,11,,,70,127
20415,note_on,2,0,0,,0,,,72,127
20485,note_off,70,0,0,,0,,,72,127
20487,note_on,2,0,0,,11,,,70,127
20557,note_off,70,0,0,,11,,,70,127
20557,note_off,0,0,0,,4,,,64,127
20559,note_on,2,0,0,,5,,,65,127
20559,note_on,0,0,0,,10,,,69,127
20844,note_off,285,0,0,,10,,,69,127
20846,note_off,2,0,0,,5,,,65,127
20848,note_on,2,0,0,,0,,,36,127
20990,note_off,142,0,0,,0,,,36,127
20992,note_on,2,0,0,,4,,,40,127
21134,note_off,142,0,0,,4,,,40,127
21136,note_on,2,0,0,,7,,,43,127
21278,note_off,142,0,0,,7,,,43,127
21280,note_on,2,0,0,,0,,,48,127
21422,note_off,142,0,0,,0,,,48,127
21424,note_on,2,0,0,,4,,,52,127
21566,note_off,142,0,0,,4,,,52,127
21568,note_on,2,0,0,,7,,,55,127
21710,note_off,142,0,0,,7,,,55,127
21712,note_on,2,0,0,,0,,,36,127
21856,note_on,144,0,0,,7,,,79,127
21998,note_off,142,0,0,,7,,,79,127
22000,note_on,2,0,0,,0,,,72,127
22070,note_off,70,0,0,,0,,,72,127
22072,note_on,2,0,0,,11,,,70,127
22142,note_off,70,0,0,,11,,,70,127
22144,note_on,2,0,0,,0,,,72,127
22214,note_off,70,0,0,,0,,,72,127
22216,note_on,2,0,0,,11,,,70,127
22286,note_off,70,0,0,,11,,,70,127
22286,note_off,0,0,0,,0,,,36,127
22288,note_on,2,0,0,,5,,,41,127
22288,note_on,0,0,0,,10,,,69,127
22574,note_off,286,0,0,,10,,,69,127
22574,note_off,0,0,0,,5,,,41,127
22576,note_on,2,0,0,,11,,,46,127
22576,note_on,0,0,0,,10,,,81,127
22718,note_off,142,0,0,,10,,,81,127
22720,note_on,2,0,0,,7,,,79,127
22862,note_off,142,0,0,,7,,,79,127
22862,note_off,0,0,0,,11,,,46,127
22864,note_on,2,0,0,,0,,,48,127
22864,note_on,0,0,0,,7,,,79,127
23006,note_off,142,0,0,,7,,,79,127
23008,note_on,2,0,0,,5,,,77,127
23150,note_off,142,0,0,,5,,,77,127
23152,note_on,2,0,0,,0,,,36,127
23152,note_on,0,0,0,,5,,,77,127
23294,note_off,142,0,0,,5,,,77,127
23296,note_on,2,0,0,,4,,,76,127
23438,note_off,142,0,0,,4,,,76,127
23438,note_off,0,0,0,,0,,,36,127
23438,note_off,0,0,0,,0,,,48,127
23440,note_on,2,0,0,,5,,,41,127
23440,note_on,0,0,0,,5,,,77,127
23630,note_off,190,0,0,,5,,,77,127
23632,note_on,2,0,0,,8,,,80,127
23726,note_off,94,0,0,,8,,,80,127
23728,note_on,2,0,0,,10,,,81,127
23918,note_off,190,0,0,,10,,,81,127
23920,note_on,2,0,0,,4,,,76,127
24014,note_off,94,0,0,,4,,,76,127
24014,note_off,0,0,0,,5,,,41,127
24016,note_on,2,0,0,,10,,,45,127
24016,note_on,0,0,0,,5,,,77,127
24206,note_off,190,0,0,,5,,,77,127
24208,note_on,2,0,0,,1,,,73,127
24302,note_off,94,0,0,,1,,,73,127
24302,note_off,0,0,0,,10,,,45,127
24304,note_on,2,0,0,,11,,,46,127
24304,note_on,0,0,0,,2,,,74,127
24494,note_off,190,0,0,,2,,,74,127
24496,note_on,2,0,0,,10,,,69,127
24590,note_off,94,0,0,,10,,,69,127
24592,note_on,2,0,0,,11,,,70,127
24782,note_off,190,0,0,,11,,,70,127
24784,note_on,2,0,0,,12,,,71,127
24878,note_off,94,0,0,,12,,,71,127
24878,note_off,0,0,0,,11,,,46,127
24880,note_on,2,0,0,,11,,,46,127
24880,note_on,0,0,0,,0,,,72,127
25070,note_off,190,0,0,,0,,,72,127
25072,note_on,2,0,0,,2,,,74,127
25166,note_off,94,0,0,,2,,,74,127
25166,note_off,0,0,0,,11,,,46,127
25168,note_on,2,0,0,,0,,,48,127
25168,note_on,0,0,0,,0,,,60,127
25454,note_off,286,0,0,,0,,,60,127
25456,note_on,2,0,0,,10,,,69,127
25526,note_off,70,0,0,,10,,,69,127
25528,note_on,2,0,0,,7,,,67,127
25598,note_off,70,0,0,,7,,,67,127
25600,note_on,2,0,0,,10,,,69,127
25670,note_off,70,0,0,,10,,,69,127
25672,note_on,2,0,0,,7,,,67,127
25742,note_off,70,0,0,,7,,,67,127
25744,note_on,2,0,0,,0,,,36,127
25744,note_on,0,0,0,,10,,,69,127
25814,note_off,70,0,0,,10,,,69,127
25816,note_on,2,0,0,,7,,,67,127
25886,note_off,70,0,0,,7,,,67,127
25888,note_on,2,0,0,,5,,,65,127
25958,note_off,70,0,0,,5,,,65,127
25960,note_on,2,0,0,,7,,,67,127
26030,note_off,70,0,0,,7,,,67,127
26030,note_off,0,0,0,,0,,,36,127
26030,note_off,0,0,0,,0,,,48,127
26032,note_on,2,0,0,,5,,,41,127
26032,note_on,0,0,0,,5,,,77,127
26222,note_off,190,0,0,,5,,,77,127
26224,note_on,2,0,0,,8,,,80,127
26318,note_off,94,0,0,,8,,,80,127
26320,note_on,2,0,0,,10,,,81,127
26510,note_off,190,0,0,,10,,,81,127
26512,note_on,2,0,0,,4,,,76,127
26606,note_off,94,0,0,,4,,,76,127
26606,note_off,0,0,0,,5,,,41,127
26608,note_on,2,0,0,,10,,,45,127
26608,note_on,0,0,0,,5,,,77,127
26798,note_off,190,0,0,,5,,,77,127
26800,note_on,2,0,0,,1,,,73,127
26894,note_off,94,0,0,,1,,,73,127
26894,note_off,0,0,0,,10,,,45,127
26896,note_on,2,0,0,,11,,,46,127
26896,note_on,0,0,0,,2,,,74,127
27086,note_off,190,0,0,,2,,,74,127
27088,note_on,2,0,0,,10,,,69,127
27182,note_off,94,0,0,,10,,,69,127
27184,note_on,2,0,0,,11,,,70,127
27374,note_off,190,0,0,,11,,,70,127
27376,note_on,2,0,0,,12,,,71,127
27470,note_off,94,0,0,,12,,,71,127
27470,note_off,0,0,0,,11,,,46,127
27472,note_on,2,0,0,,11,,,46,127
27472,note_on,0,0,0,,0,,,72,127
27662,note_off,190,0,0,,0,,,72,127
27664,note_on,2,0,0,,2,,,74,127
27758,note_off,94,0,0,,2,,,74,127
27758,note_off,0,0,0,,11,,,46,127
27760,note_on,2,0,0,,0,,,48,127
27760,note_on,0,0,0,,0,,,60,127
28046,note_off,286,0,0,,0,,,60,127
28048,note_on,2,0,0,,10,,,69,127
28118,note_off,70,0,0,,10,,,69,127
28120,note_on,2,0,0,,7,,,67,127
28190,note_off,70,0,0,,7,,,67,127
28192,note_on,2,0,0,,10,,,69,127
28262,note_off,70,0,0,,10,,,69,127
28264,note_on,2,0,0,,7,,,67,127
28334,note_off,70,0,0,,7,,,67,127
28336,note_on,2,0,0,,0,,,36,127
28336,note_on,0,0,0,,10,,,69,127
28406,note_off,70,0,0,,10,,,69,127
28408,note_on,2,0,0,,7,,,67,127
28478,note_off,70,0,0,,7,,,67,127
28480,note_on,2,0,0,,5,,,65,127
28550,note_off,70,0,0,,5,,,65,127
28552,note_on,2,0,0,,7,,,67,127
28622,note_off,70,0,0,,7,,,67,127
28622,note_off,0,0,0,,0,,,36,127
28622,note_off,0,0,0,,0,,,48,127
28624,note_on,2,0,0,,5,,,41,127
28624,note_on,0,0,0,,5,,,65,127
29486,note_off,862,0,0,,5,,,65,127
29486,note_off,0,0,0,,5,,,41,127
29536,note_on,50,0,0,,5,,,65,127
29536,note_on,0,0,0,,0,,,72,127
29536,note_on,0,0,0,,0,,,84,127
29678,note_off,142,0,0,,0,,,84,127
29680,note_on,2,0,0,,11,,,82,127
29822,note_off,142,0,0,,11,,,82,127
29824,note_on,2,0,0,,11,,,82,127
30110,note_off,286,0,0,,11,,,82,127
30112,note_on,2,0,0,,10,,,81,127
30398,note_off,286,0,0,,10,,,81,127
30398,note_off,0,0,0,,0,,,72,127
30398,note_off,0,0,0,,5,,,65,127
30400,note_on,2,0,0,,5,,,65,127
30400,note_on,0,0,0,,0,,,72,127
30400,note_on,0,0,0,,0,,,84,127
30542,note_off,142,0,0,,0,,,84,127
30544,note_on,2,0,0,,11,,,82,127
30686,note_off,142,0,0,,11,,,82,127
30688,note_on,2,0,0,,11,,,82,127
30974,note_off,286,0,0,,11,,,82,127
30976,note_on,2,0,0,,10,,,81,127
31262,note_off,286,0,0,,10,,,81,127
31262,note_off,0,0,0,,0,,,72,127
31262,note_off,0,0,0,,5,,,65,127
31264,note_on,2,0,0,,0,,,72,127
31264,note_on,0,0,0,,2,,,62,127
31264,note_on,0,0,0,,10,,,81,127
31406,note_off,142,0,0,,10,,,81,127
31408,note_on,2,0,0,,2,,,86,127
31550,note_off,142,0,0,,2,,,86,127
31550,note_off,0,0,0,,2,,,62,127
31550,note_off,0,0,0,,0,,,72,127
31552,note_on,2,0,0,,11,,,70,127
31552,note_on,0,0,0,,2,,,62,127
31552,note_on,0,0,0,,7,,,79,127
31838,note_off,286,0,0,,7,,,79,127
31838,note_off,0,0,0,,2,,,62,127
31838,note_off,0,0,0,,11,,,70,127
31840,note_on,2,0,0,,2,,,62,127
31840,note_on,0,0,0,,10,,,69,127
31840,note_on,0,0,0,,6,,,78,127
32126,note_off,286,0,0,,6,,,78,127
32126,note_off,0,0,0,,10,,,69,127
32126,note_off,0,0,0,,2,,,62,127
32128,note_on,2,0,0,,7,,,67,127
32128,note_on,0,0,0,,6,,,78,127
32702,note_off,574,0,0,,6,,,78,127
32704,note_on,2,0,0,,7,,,55,127
32704,note_on,0,0,0,,7,,,79,127
32990,note_off,286,0,0,,7,,,79,127
32990,note_off,0,0,0,,7,,,55,127
32990,note_off,0,0,0,,7,,,67,127
32992,note_on,2,0,0,,7,,,55,127
32992,note_on,0,0,0,,3,,,75,127
33134,note_off,142,0,0,,3,,,75,127
33136,note_on,2,0,0,,2,,,74,127
33278,note_off,142,0,0,,2,,,74,127
33280,note_on,2,0,0,,2,,,74,127
33566,note_off,286,0,0,,7,,,55,127
33568,note_on,2,0,0,,5,,,53,127
33568,note_on,0,0,0,,2,,,62,127
33854,note_off,286,0,0,,2,,,62,127
33854,note_off,0,0,0,,5,,,53,127
33854,note_off,0,0,0,,2,,,74,127
33856,note_on,2,0,0,,0,,,60,127
33856,note_on,0,0,0,,3,,,51,127
33856,note_on,0,0,0,,0,,,72,127
33998,note_off,142,0,0,,0,,,72,127
34000,note_on,2,0,0,,11,,,70,127
34142,note_off,142,0,0,,11,,,70,127
34144,note_on,2,0,0,,11,,,70,127
34430,note_off,286,0,0,,3,,,51,127
34430,note_off,0,0,0,,0,,,60,127
34432,note_on,2,0,0,,11,,,58,127
34432,note_on,0,0,0,,2,,,50,127
34718,note_off,286,0,0,,2,,,50,127
34718,note_off,0,0,0,,11,,,58,127
34718,note_off,0,0,0,,11,,,70,127
34720,note_on,2,0,0,,0,,,48,127
34720,note_on,0,0,0,,0,,,60,127
34720,note_on,0,0,0,,10,,,69,127
34862,note_off,142,0,0,,10,,,69,127
34864,note_on,2,0,0,,3,,,75,127
35006,note_off,142,0,0,,3,,,75,127
35006,note_off,0,0,0,,0,,,60,127
35006,note_off,0,0,0,,0,,,48,127
35008,note_on,2,0,0,,2,,,50,127
35008,note_on,0,0,0,,11,,,58,127
35008,note_on,0,0,0,,7,,,67,127
35293,note_off,285,0,0,,7,,,67,127
35295,note_off,2,0,0,,11,,,58,127
35297,note_on,2,0,0,,10,,,57,127
35297,note_on,0,0,0,,7,,,67,127
35367,note_off,70,0,0,,7,,,67,127
35369,note_on,2,0,0,,6,,,66,127
35439,note_off,70,0,0,,6,,,66,127
35441,note_on,2,0,0,,7,,,67,127
35511,note_off,70,0,0,,7,,,67,127
35513,note_on,2,0,0,,6,,,66,127
35583,note_off,70,0,0,,6,,,66,127
35583,note_off,0,0,0,,10,,,57,127
35583,note_off,0,0,0,,2,,,50,127
35585,note_on,2,0,0,,7,,,55,127
35585,note_on,0,0,0,,6,,,66,127
36159,note_off,574,0,0,,6,,,66,127
36161,note_on,2,0,0,,7,,,43,127
36161,note_on,0,0,0,,7,,,67,127
36447,note_off,286,0,0,,7,,,67,127
36447,note_off,0,0,0,,7,,,55,127
36449,note_on,2,0,0,,0,,,72,127
36591,note_off,142,0,0,,0,,,72,127
36593,note_off,2,0,0,,7,,,43,127
36593,note_on,0,0,0,,11,,,70,127
36735,note_off,142,0,0,,11,,,70,127
36737,note_on,2,0,0,,7,,,67,127
36737,note_on,0,0,0,,11,,,70,127
37023,note_off,286,0,0,,7,,,67,127
37025,note_on,2,0,0,,5,,,65,127
37311,note_off,286,0,0,,5,,,65,127
37311,note_off,0,0,0,,11,,,70,127
37313,note_on,2,0,0,,3,,,63,127
37313,note_on,0,0,0,,10,,,69,127
37455,note_off,142,0,0,,10,,,69,127
37457,note_on,2,0,0,,11,,,70,127
37599,note_off,142,0,0,,11,,,70,127
37601,note_on,2,0,0,,11,,,70,127
37887,note_off,286,0,0,,3,,,63,127
37889,note_on,2,0,0,,2,,,62,127
38175,note_off,286,0,0,,2,,,62,127
38175,note_off,0,0,0,,11,,,70,127
38177,note_on,2,0,0,,0,,,60,127
38177,note_on,0,0,0,,3,,,75,127
38319,note_off,142,0,0,,3,,,75,127
38321,note_on,2,0,0,,2,,,74,127
38463,note_off,142,0,0,,2,,,74,127
38465,note_on,2,0,0,,2,,,74,127
38751,note_off,286,0,0,,0,,,60,127
38753,note_on,2,0,0,,11,,,58,127
39039,note_off,286,0,0,,11,,,58,127
39039,note_off,0,0,0,,2,,,74,127
39041,note_on,2,0,0,,11,,,58,127
39041,note_on,0,0,0,,4,,,76,127
39183,note_off,142,0,0,,4,,,76,127
39185,note_on,2,0,0,,5,,,77,127
39327,note_off,142,0,0,,5,,,77,127
39329,note_on,2,0,0,,5,,,65,127
39615,note_off,286,0,0,,5,,,65,127
39615,note_off,0,0,0,,11,,,58,127
39617,note_on,2,0,0,,10,,,57,127
39617,note_on,0,0,0,,3,,,75,127
39903,note_off,286,0,0,,3,,,75,127
39903,note_off,0,0,0,,10,,,57,127
39905,note_on,2,0,0,,11,,,58,127
39905,note_on,0,0,0,,2,,,74,127
40047,note_off,142,0,0,,2,,,74,127
40049,note_on,2,0,0,,0,,,72,127
40191,note_off,142,0,0,,0,,,72,127
40191,note_off,0,0,0,,11,,,58,127
40193,note_on,2,0,0,,3,,,63,127
40193,note_on,0,0,0,,0,,,72,127
40479,note_off,286,0,0,,0,,,72,127
40481,note_on,2,0,0,,3,,,51,127
40481,note_on,0,0,0,,11,,,70,127
40767,note_off,286,0,0,,11,,,70,127
40767,note_off,0,0,0,,3,,,51,127
40767,note_off,0,0,0,,3,,,63,127
40769,note_on,2,0,0,,5,,,53,127
40769,note_on,0,0,0,,11,,,70,127
40839,note_off,70,0,0,,11,,,70,127
40841,note_on,2,0,0,,10,,,69,127
40911,note_off,70,0,0,,10,,,69,127
40913,note_on,2,0,0,,11,,,70,127
40983,note_off,70,0,0,,11,,,70,127
40985,note_on,2,0,0,,10,,,69,127
41055,note_off,70,0,0,,10,,,69,127
41057,note_on,2,0,0,,5,,,41,127
41057,note_on,0,0,0,,11,,,70,127
41127,note_off,70,0,0,,11,,,70,127
41129,note_on,2,0,0,,10,,,69,127
41199,note_off,70,0,0,,10,,,69,127
41201,note_on,2,0,0,,7,,,67,127
41343,note_off,142,0,0,,7,,,67,127
41345,note_on,2,0,0,,5,,,65,127
41630,note_off,285,0,0,,5,,,65,127
41632,note_off,2,0,0,,5,,,41,127
41632,note_off,0,0,0,,5,,,53,127
41648,note_on,16,0,0,,11,,,46,127
41790,note_off,142,0,0,,11,,,46,127
41792,note_on,2,0,0,,2,,,50,127
41934,note_off,142,0,0,,2,,,50,127
41936,note_on,2,0,0,,5,,,53,127
42078,note_off,142,0,0,,5,,,53,127
42080,note_on,2,0,0,,11,,,58,127
42222,note_off,142,0,0,,11,,,58,127
42224,note_on,2,0,0,,2,,,62,127
42366,note_off,142,0,0,,2,,,62,127
42368,note_on,2,0,0,,5,,,65,127
42510,note_off,142,0,0,,5,,,65,127
42512,note_on,2,0,0,,5,,,65,127
42582,note_off,70,0,0,,5,,,65,127
42584,note_on,2,0,0,,3,,,63,127
42654,note_off,70,0,0,,3,,,63,127
42656,note_on,2,0,0,,5,,,65,127
42726,note_off,70,0,0,,5,,,65,127
42728,note_on,2,0,0,,3,,,63,127
42798,note_off,70,0,0,,3,,,63,127
42800,note_on,2,0,0,,7,,,79,127
42800,note_on,0,0,0,,10,,,81,127
42800,note_on,0,0,0,,5,,,65,127
42870,note_off,70,0,0,,5,,,65,127
42870,note_off,0,0,0,,10,,,81,127
42870,note_off,0,0,0,,7,,,79,127
42872,note_on,2,0,0,,5,,,77,127
42872,note_on,0,0,0,,3,,,63,127
42942,note_off,70,0,0,,3,,,63,127
42942,note_off,0,0,0,,5,,,77,127
42944,note_on,2,0,0,,7,,,79,127
42944,note_on,0,0,0,,5,,,65,127
43014,note_off,70,0,0,,5,,,65,127
43014,note_off,0,0,0,,7,,,79,127
43016,note_on,2,0,0,,10,,,81,127
43016,note_on,0,0,0,,3,,,63,127
43086,note_off,70,0,0,,3,,,63,127
43086,note_off,0,0,0,,10,,,81,127
43088,note_on,2,0,0,,11,,,82,127
43088,note_on,0,0,0,,2,,,62,127
43373,note_off,285,0,0,,11,,,82,127
43375,note_off,2,0,0,,2,,,62,127
43377,note_on,2,0,0,,11,,,46,127
43519,note_off,142,0,0,,11,,,46,127
43521,note_on,2,0,0,,2,,,50,127
43663,note_off,142,0,0,,2,,,50,127
43665,note_on,2,0,0,,5,,,53,127
43807,note_off,142,0,0,,5,,,53,127
43809,note_on,2,0,0,,11,,,58,127
43951,note_off,142,0,0,,11,,,58,127
43953,note_on,2,0,0,,2,,,62,127
44095,note_off,142,0,0,,2,,,62,127
44097,note_on,2,0,0,,5,,,65,127
44239,note_off,142,0,0,,5,,,65,127
44241,note_on,2,0,0,,5,,,65,127
44311,note_off,70,0,0,,5,,,65,127
44313,note_on,2,0,0,,3,,,63,127
44383,note_off,70,0,0,,3,,,63,127
44385,note_on,2,0,0,,5,,,65,127
44455,note_off,70,0,0,,5,,,65,127
44457,note_on,2,0,0,,3,,,63,127
44527,note_off,70,0,0,,3,,,63,127
44529,note_on,2,0,0,,7,,,79,127
44529,note_on,0,0,0,,10,,,81,127
44529,note_on,0,0,0,,5,,,65,127
44599,note_off,70,0,0,,5,,,65,127
44599,note_off,0,0,0,,10,,,81,127
44599,note_off,0,0,0,,7,,,79,127
44601,note_on,2,0,0,,5,,,77,127
44601,note_on,0,0,0,,3,,,63,127
44671,note_off,70,0,0,,3,,,63,127
44671,note_off,0,0,0,,5,,,77,127
44673,note_on,2,0,0,,7,,,79,127
44673,note_on,0,0,0,,5,,,65,127
44743,note_off,70,0,0,,5,,,65,127
44743,note_off,0,0,0,,7,,,79,127
44745,note_on,2,0,0,,10,,,81,127
44745,note_on,0,0,0,,3,,,63,127
44815,note_off,70,0,0,,3,,,63,127
44815,note_off,0,0,0,,10,,,81,127
44817,note_on,2,0,0,,11,,,82,127
44817,note_on,0,0,0,,2,,,62,127
45102,note_off,285,0,0,,11,,,82,127
45104,note_off,2,0,0,,2,,,62,127
45106,note_on,2,0,0,,11,,,46,127
45248,note_off,142,0,0,,11,,,46,127
45250,note_on,2,0,0,,2,,,50,127
45392,note_off,142,0,0,,2,,,50,127
45394,note_on,2,0,0,,5,,,53,127
45536,note_off,142,0,0,,5,,,53,127
45538,note_on,2,0,0,,11,,,58,127
45680,note_off,142,0,0,,11,,,58,127
45682,note_on,2,0,0,,2,,,62,127
45824,note_off,142,0,0,,2,,,62,127
45826,note_on,2,0,0,,5,,,65,127
45968,note_off,142,0,0,,5,,,65,127
45970,note_on,2,0,0,,5,,,41,127
46040,note_off,70,0,0,,5,,,41,127
46042,note_on,2,0,0,,3,,,39,127
46112,note_off,70,0,0,,3,,,39,127
46114,note_on,2,0,0,,5,,,41,127
46184,note_off,70,0,0,,5,,,41,127
46186,note_on,2,0,0,,3,,,39,127
46256,note_off,70,0,0,,3,,,39,127
46258,note_on,2,0,0,,7,,,79,127
46258,note_on,0,0,0,,10,,,81,127
46258,note_on,0,0,0,,5,,,41,127
46328,note_off,70,0,0,,5,,,41,127
46328,note_off,0,0,0,,10,,,81,127
46328,note_off,0,0,0,,7,,,79,127
46330,note_on,2,0,0,,5,,,77,127
46330,note_on,0,0,0,,3,,,39,127
46400,note_off,70,0,0,,3,,,39,127
46400,note_off,0,0,0,,5,,,77,127
46402,note_on,2,0,0,,7,,,79,127
46402,note_on,0,0,0,,5,,,41,127
46472,note_off,70,0,0,,5,,,41,127
46472,note_off,0,0,0,,7,,,79,127
46474,note_on,2,0,0,,10,,,81,127
46474,note_on,0,0,0,,3,,,39,127
46544,note_off,70,0,0,,3,,,39,127
46544,note_off,0,0,0,,10,,,81,127
46546,note_on,2,0,0,,11,,,82,127
46546,note_on,0,0,0,,2,,,38,127
46832,note_off,286,0,0,,2,,,38,127
46832,note_off,0,0,0,,11,,,82,127
46834,note_on,2,0,0,,2,,,74,127
46834,note_on,0,0,0,,3,,,51,127
46976,note_off,142,0,0,,2,,,74,127
46978,note_on,2,0,0,,0,,,72,127
47120,note_off,142,0,0,,0,,,72,127
47120,note_off,0,0,0,,3,,,51,127
47122,note_on,2,0,0,,0,,,72,127
47122,note_on,0,0,0,,5,,,53,127
47264,note_off,142,0,0,,0,,,72,127
47266,note_on,2,0,0,,11,,,70,127
47408,note_off,142,0,0,,11,,,70,127
47410,note_on,2,0,0,,11,,,70,127
47410,note_on,0,0,0,,5,,,41,127
47552,note_off,142,0,0,,11,,,70,127
47554,note_on,2,0,0,,10,,,69,127
47696,note_off,142,0,0,,10,,,69,127
47696,note_off,0,0,0,,5,,,41,127
47696,note_off,0,0,0,,5,,,53,127
47698,note_on,2,0,0,,10,,,69,127
47698,note_on,0,0,0,,11,,,46,127
48272,note_off,574,0,0,,10,,,69,127
48274,note_on,2,0,0,,11,,,70,127
48560,note_off,286,0,0,,11,,,70,127
48560,note_off,0,0,0,,11,,,46,127
48562,note_on,2,0,0,,11,,,46,127
48704,note_off,142,0,0,,11,,,46,127
48706,note_on,2,0,0,,2,,,50,127
48848,note_off,142,0,0,,2,,,50,127
48850,note_on,2,0,0,,5,,,53,127
48992,note_off,142,0,0,,5,,,53,127
48994,note_on,2,0,0,,11,,,58,127
49136,note_off,142,0,0,,11,,,58,127
49138,note_on,2,0,0,,2,,,62,127
49280,note_off,142,0,0,,2,,,62,127
49282,note_on,2,0,0,,5,,,65,127
49424,note_off,142,0,0,,5,,,65,127
49426,note_on,2,0,0,,5,,,65,127
49496,note_off,70,0,0,,5,,,65,127
49498,note_on,2,0,0,,3,,,63,127
49568,note_off,70,0,0,,3,,,63,127
49570,note_on,2,0,0,,5,,,65,127
49640,note_off,70,0,0,,5,,,65,127
49642,note_on,2,0,0,,3,,,63,127
49712,note_off,70,0,0,,3,,,63,127
49714,note_on,2,0,0,,7,,,79,127
49714,note_on,0,0,0,,10,,,81,127
49714,note_on,0,0,0,,5,,,65,127
49784,note_off,70,0,0,,5,,,65,127
49784,note_off,0,0,0,,10,,,81,127
49784,note_off,0,0,0,,7,,,79,127
49786,note_on,2,0,0,,5,,,77,127
49786,note_on,0,0,0,,3,,,63,127
49856,note_off,70,0,0,,3,,,63,127
49856,note_off,0,0,0,,5,,,77,127
49858,note_on,2,0,0,,7,,,79,127
49858,note_on,0,0,0,,5,,,65,127
49928,note_off,70,0,0,,5,,,65,127
49928,note_off,0,0,0,,7,,,79,127
49930,note_on,2,0,0,,10,,,81,127
49930,note_on,0,0,0,,3,,,63,127
50000,note_off,70,0,0,,3,,,63,127
50000,note_off,0,0,0,,10,,,81,127
50002,note_on,2,0,0,,11,,,82,127
50002,note_on,0,0,0,,2,,,62,127
50287,note_off,285,0,0,,11,,,82,127
50289,note_off,2,0,0,,2,,,62,127
50291,note_on,2,0,0,,11,,,46,127
50433,note_off,142,0,0,,11,,,46,127
50435,note_on,2,0,0,,2,,,50,127
50577,note_off,142,0,0,,2,,,50,127
50579,note_on,2,0,0,,5,,,53,127
50721,note_off,142,0,0,,5,,,53,127
50723,note_on,2,0,0,,11,,,58,127
50865,note_off,142,0,0,,11,,,58,127
50867,note_on,2,0,0,,2,,,62,127
51009,note_off,142,0,0,,2,,,62,127
51011,note_on,2,0,0,,5,,,65,127
51153,note_off,142,0,0,,5,,,65,127
51155,note_on,2,0,0,,5,,,65,127
51225,note_off,70,0,0,,5,,,65,127
51227,note_on,2,0,0,,3,,,63,127
51297,note_off,70,0,0,,3,,,63,127
51299,note_on,2,0,0,,5,,,65,127
51369,note_off,70,0,0,,5,,,65,127
51371,note_on,2,0,0,,3,,,63,127
51441,note_off,70,0,0,,3,,,63,127
51443,note_on,2,0,0,,7,,,79,127
51443,note_on,0,0,0,,10,,,81,127
51443,note_on,0,0,0,,5,,,65,127
51513,note_off,70,0,0,,5,,,65,127
51513,note_off,0,0,0,,10,,,81,127
51513,note_off,0,0,0,,7,,,79,127
51515,note_on,2,0,0,,5,,,77,127
51515,note_on,0,0,0,,3,,,63,127
51585,note_off,70,0,0,,3,,,63,127
51585,note_off,0,0,0,,5,,,77,127
51587,note_on,2,0,0,,7,,,79,127
51587,note_on,0,0,0,,5,,,65,127
51657,note_off,70,0,0,,5,,,65,127
51657,note_off,0,0,0,,7,,,79,127
51659,note_on,2,0,0,,10,,,81,127
51659,note_on,0,0,0,,3,,,63,127
51729,note_off,70,0,0,,3,,,63,127
51729,note_off,0,0,0,,10,,,81,127
51731,note_on,2,0,0,,11,,,82,127
51731,note_on,0,0,0,,2,,,62,127
52016,note_off,285,0,0,,11,,,82,127
52018,note_off,2,0,0,,2,,,62,127
52020,note_on,2,0,0,,11,,,46,127
52162,note_off,142,0,0,,11,,,46,127
52164,note_on,2,0,0,,2,,,50,127
52306,note_off,142,0,0,,2,,,50,127
52308,note_on,2,0,0,,5,,,53,127
52450,note_off,142,0,0,,5,,,53,127
52452,note_on,2,0,0,,11,,,58,127
52594,note_off,142,0,0,,11,,,58,127
52596,note_on,2,0,0,,2,,,62,127
52738,note_off,142,0,0,,2,,,62,127
52740,note_on,2,0,0,,5,,,65,127
52882,note_off,142,0,0,,5,,,65,127
52884,note_on,2,0,0,,5,,,41,127
52954,note_off,70,0,0,,5,,,41,127
52956,note_on,2,0,0,,3,,,39,127
53026,note_off,70,0,0,,3,,,39,127
53028,note_on,2,0,0,,5,,,41,127
53098,note_off,70,0,0,,5,,,41,127
53100,note_on,2,0,0,,3,,,39,127
53170,note_off,70,0,0,,3,,,39,127
53172,note_on,2,0,0,,7,,,79,127
53172,note_on,0,0,0,,10,,,81,127
53172,note_on,0,0,0,,5,,,41,127
53242,note_off,70,0,0,,5,,,41,127
53242,note_off,0,0,0,,10,,,81,127
53242,note_off,0,0,0,,7,,,79,127
53244,note_on,2,0,0,,5,,,77,127
53244,note_on,0,0,0,,3,,,39,127
53314,note_off,70,0,0,,3,,,39,127
53314,note_off,0,0,0,,5,,,77,127
53316,note_on,2,0,0,,7,,,79,127
53316,note_on,0,0,0,,5,,,41,127
53386,note_off,70,0,0,,5,,,41,127
53386,note_off,0,0,0,,7,,,79,127
53388,note_on,2,0,0,,10,,,81,127
53388,note_on,0,0,0,,3,,,39,127
53458,note_off,70,0,0,,3,,,39,127
53458,note_off,0,0,0,,10,,,81,127
53460,note_on,2,0,0,,11,,,82,127
53460,note_on,0,0,0,,2,,,38,127
53746,note_off,286,0,0,,2,,,38,127
53746,note_off,0,0,0,,11,,,82,127
53748,note_on,2,0,0,,2,,,74,127
53748,note_on,0,0,0,,3,,,51,127
53890,note_off,142,0,0,,2,,,74,127
53892,note_on,2,0,0,,0,,,72,127
54034,note_off,142,0,0,,0,,,72,127
54034,note_off,0,0,0,,3,,,51,127
54036,note_on,2,0,0,,0,,,72,127
54036,note_on,0,0,0,,5,,,53,127
54178,note_off,142,0,0,,0,,,72,127
54180,note_on,2,0,0,,11,,,70,127
54322,note_off,142,0,0,,11,,,70,127
54324,note_on,2,0,0,,11,,,70,127
54324,note_on,0,0,0,,5,,,41,127
54466,note_off,142,0,0,,11,,,70,127
54468,note_on,2,0,0,,10,,,69,127
54610,note_off,142,0,0,,10,,,69,127
54610,note_off,0,0,0,,5,,,41,127
54610,note_off,0,0,0,,5,,,53,127
54612,note_on,2,0,0,,11,,,70,127
54612,note_on,0,0,0,,11,,,46,127
54802,note_off,190,0,0,,11,,,70,127
54804,note_on,2,0,0,,1,,,85,127
54898,note_off,94,0,0,,1,,,85,127
54900,note_on,2,0,0,,2,,,86,127
55090,note_off,190,0,0,,2,,,86,127
55092,note_on,2,0,0,,10,,,81,127
55186,note_off,94,0,0,,10,,,81,127
55186,note_off,0,0,0,,11,,,46,127
55188,note_on,2,0,0,,11,,,82,127
55188,note_on,0,0,0,,2,,,50,127
55378,note_off,190,0,0,,11,,,82,127
55380,note_on,2,0,0,,6,,,78,127
55474,note_off,94,0,0,,6,,,78,127
55474,note_off,0,0,0,,2,,,50,127
55476,note_on,2,0,0,,7,,,79,127
55476,note_on,0,0,0,,3,,,51,127
55666,note_off,190,0,0,,7,,,79,127
55668,note_on,2,0,0,,2,,,74,127
55762,note_off,94,0,0,,2,,,74,127
55764,note_on,2,0,0,,3,,,75,127
55954,note_off,190,0,0,,3,,,75,127
55956,note_on,2,0,0,,4,,,76,127
56050,note_off,94,0,0,,4,,,76,127
56050,note_off,0,0,0,,3,,,51,127
56052,note_on,2,0,0,,5,,,77,127
56052,note_on,0,0,0,,3,,,51,127
56242,note_off,190,0,0,,5,,,77,127
56244,note_on,2,0,0,,7,,,79,127
56338,note_off,94,0,0,,7,,,79,127
56338,note_off,0,0,0,,3,,,51,127
56340,note_on,2,0,0,,5,,,65,127
56340,note_on,0,0,0,,5,,,53,127
56626,note_off,286,0,0,,5,,,65,127
56628,note_on,2,0,0,,2,,,74,127
56698,note_off,70,0,0,,2,,,74,127
56700,note_on,2,0,0,,0,,,72,127
56770,note_off,70,0,0,,0,,,72,127
56772,note_on,2,0,0,,2,,,74,127
56842,note_off,70,0,0,,2,,,74,127
56844,note_on,2,0,0,,0,,,72,127
56914,note_off,70,0,0,,0,,,72,127
56916,note_on,2,0,0,,2,,,74,127
56916,note_on,0,0,0,,5,,,41,127
56986,note_off,70,0,0,,2,,,74,127
56988,note_on,2,0,0,,0,,,72,127
57058,note_off,70,0,0,,0,,,72,127
57060,note_on,2,0,0,,11,,,70,127
57130,note_off,70,0,0,,11,,,70,127
57132,note_on,2,0,0,,0,,,72,127
57202,note_off,70,0,0,,0,,,72,127
57202,note_off,0,0,0,,5,,,41,127
57202,note_off,0,0,0,,5,,,53,127
57204,note_on,2,0,0,,11,,,70,127
57204,note_on,0,0,0,,11,,,46,127
57394,note_off,190,0,0,,11,,,70,127
57397,note_on,3,0,0,,1,,,85,127
57491,note_off,94,0,0,,1,,,85,127
57495,note_on,4,0,0,,2,,,86,127
57687,note_off,192,0,0,,2,,,86,127
57690,note_on,3,0,0,,10,,,81,127
57777,note_off,87,0,0,,11,,,46,127
57785,note_off,8,0,0,,10,,,81,127
57788,note_on,3,0,0,,2,,,50,127
57788,note_on,0,0,0,,11,,,82,127
57980,note_off,192,0,0,,11,,,82,127
57984,note_on,4,0,0,,6,,,78,127
58076,note_off,92,0,0,,2,,,50,127
58079,note_off,3,0,0,,6,,,78,127
58082,note_on,3,0,0,,3,,,51,127
58082,note_on,0,0,0,,7,,,79,127
58274,note_off,192,0,0,,7,,,79,127
58278,note_on,4,0,0,,2,,,74,127
58372,note_off,94,0,0,,2,,,74,127
58375,note_on,3,0,0,,3,,,75,127
58567,note_off,192,0,0,,3,,,75,127
58571,note_on,4,0,0,,4,,,76,127
58659,note_off,88,0,0,,3,,,51,127
58665,note_off,6,0,0,,4,,,76,127
58668,note_on,3,0,0,,3,,,51,127
58668,note_on,0,0,0,,5,,,77,127
58860,note_off,192,0,0,,5,,,77,127
58864,note_on,4,0,0,,7,,,79,127
58956,note_off,92,0,0,,3,,,51,127
58959,note_off,3,0,0,,7,,,79,127
58963,note_on,4,0,0,,5,,,65,127
58963,note_on,0,0,0,,5,,,53,127
59261,note_off,298,0,0,,5,,,65,127
59271,note_on,10,0,0,,2,,,74,127
59343,note_off,72,0,0,,2,,,74,127
59347,note_on,4,0,0,,0,,,72,127
59419,note_off,72,0,0,,0,,,72,127
59425,note_on,6,0,0,,2,,,74,127
59497,note_off,72,0,0,,2,,,74,127
59501,note_on,4,0,0,,0,,,72,127
59573,note_off,72,0,0,,0,,,72,127
59577,note_on,4,0,0,,2,,,74,127
59577,note_on,0,0,0,,5,,,41,127
59649,note_off,72,0,0,,2,,,74,127
59655,note_on,6,0,0,,0,,,72,127
59727,note_off,72,0,0,,0,,,72,127
59731,note_on,4,0,0,,11,,,70,127
59803,note_off,72,0,0,,11,,,70,127
59809,note_on,6,0,0,,0,,,72,127
59865,note_off,56,0,0,,5,,,53,127
59875,note_off,10,0,0,,5,,,41,127
59881,note_off,6,0,0,,0,,,72,127
59901,note_on,20,0,0,,11,,,70,127
59901,note_on,0,0,0,,11,,,46,127
62263,note_off,2362,0,0,,11,,,46,127
62263,note_off,0,0,0,,11,,,70,127
67584,end_of_track,5321,1,0,,,,,,
