tick,type,time,meta,track,program,channel,pitch,tempo,note,velocity
0,copyright,0,1,0,,,,,,
0,program_change,0,0,0,6,0,,,,
0,pitchwheel,0,0,0,,0,0,,,
0,program_change,0,0,0,6,1,,,,
0,pitchwheel,0,0,0,,1,-590,,,
0,program_change,0,0,0,6,2,,,,
0,pitchwheel,0,0,0,,2,-272,,,
0,program_change,0,0,0,6,3,,,,
0,pitchwheel,0,0,0,,3,-353,,,
0,program_change,0,0,0,6,4,,,,
0,pitchwheel,0,0,0,,4,-560,,,
0,program_change,0,0,0,6,5,,,,
0,pitchwheel,0,0,0,,5,-80,,,
0,program_change,0,0,0,6,6,,,,
0,pitchwheel,0,0,0,,6,-625,,,
0,program_change,0,0,0,6,7,,,,
0,pitchwheel,0,0,0,,7,-130,,,
0,program_change,0,0,0,6,8,,,,
0,pitchwheel,0,0,0,,8,-512,,,
0,program_change,0,0,0,6,10,,,,
0,pitchwheel,0,0,0,,10,-464,,,
0,program_change,0,0,0,6,11,,,,
0,pitchwheel,0,0,0,,11,-208,,,
0,program_change,0,0,0,6,12,,,,
0,pitchwheel,0,0,0,,12,-553,,,
0,set_tempo,0,1,0,,,,500000,,
37,note_on,37,0,0,,0,,,84,127
147,note_on,110,0,0,,12,,,83,127
152,note_off,5,0,0,,0,,,84,127
257,note_on,105,0,0,,10,,,81,127
262,note_off,5,0,0,,12,,,83,127
366,note_off,104,0,0,,10,,,81,127
367,note_on,1,0,0,,12,,,83,127
476,note_off,109,0,0,,12,,,83,127
477,note_on,1,0,0,,0,,,84,127
695,note_off,218,0,0,,0,,,84,127
696,note_on,1,0,0,,10,,,81,127
914,note_off,218,0,0,,10,,,81,127
915,note_on,1,0,0,,12,,,83,127
1133,note_off,218,0,0,,12,,,83,127
1134,note_on,1,0,0,,6,,,78,127
1352,note_off,218,0,0,,6,,,78,127
1353,note_on,1,0,0,,7,,,79,127
1571,note_off,218,0,0,,7,,,79,127
1572,note_on,1,0,0,,3,,,75,127
1790,note_off,218,0,0,,3,,,75,127
1791,note_on,1,0,0,,4,,,76,127
2009,note_off,218,0,0,,4,,,76,127
2010,note_on,1,0,0,,12,,,71,127
2228,note_off,218,0,0,,12,,,71,127
2229,note_on,1,0,0,,0,,,72,127
2447,note_off,218,0,0,,0,,,72,127
2448,note_on,1,0,0,,10,,,69,127
2666,note_off,218,0,0,,10,,,69,127
2667,note_on,1,0,0,,12,,,71,127
2885,note_off,218,0,0,,12,,,71,127
2886,note_on,1,0,0,,6,,,66,127
3104,note_off,218,0,0,,6,,,66,127
3105,note_on,1,0,0,,7,,,67,127
3323,note_off,218,0,0,,7,,,67,127
3324,note_on,1,0,0,,3,,,63,127
3542,note_off,218,0,0,,3,,,63,127
3543,note_on,1,0,0,,4,,,64,127
3761,note_off,218,0,0,,4,,,64,127
3762,note_on,1,0,0,,12,,,59,127
3980,note_off,218,0,0,,12,,,59,127
3981,note_on,1,0,0,,2,,,62,127
4090,note_off,109,0,0,,2,,,62,127
4091,note_on,1,0,0,,0,,,60,127
4200,note_off,109,0,0,,0,,,60,127
4201,note_on,1,0,0,,12,,,59,127
4310,note_off,109,0,0,,12,,,59,127
4311,note_on,1,0,0,,0,,,60,127
4420,note_off,109,0,0,,0,,,60,127
4421,note_on,1,0,0,,0,,,60,127
4530,note_off,109,0,0,,0,,,60,127
4531,note_on,1,0,0,,12,,,59,127
4640,note_off,109,0,0,,12,,,59,127
4641,note_on,1,0,0,,10,,,57,127
4750,note_off,109,0,0,,10,,,57,127
4751,note_on,1,0,0,,12,,,59,127
4860,note_off,109,0,0,,12,,,59,127
4861,note_on,1,0,0,,0,,,60,127
5079,note_off,218,0,0,,0,,,60,127
5080,note_on,1,0,0,,10,,,57,127
5298,note_off,218,0,0,,10,,,57,127
5299,note_on,1,0,0,,12,,,59,127
5517,note_off,218,0,0,,12,,,59,127
5518,note_on,1,0,0,,6,,,54,127
5736,note_off,218,0,0,,6,,,54,127
5737,note_on,1,0,0,,7,,,55,127
5955,note_off,218,0,0,,7,,,55,127
5956,note_on,1,0,0,,3,,,51,127
6174,note_off,218,0,0,,3,,,51,127
6175,note_on,1,0,0,,4,,,52,127
6393,note_off,218,0,0,,4,,,52,127
6394,note_on,1,0,0,,12,,,47,127
6612,note_off,218,0,0,,12,,,47,127
6613,note_on,1,0,0,,2,,,50,127
6722,note_off,109,0,0,,2,,,50,127
6723,note_on,1,0,0,,0,,,48,127
6832,note_off,109,0,0,,0,,,48,127
6833,note_on,1,0,0,,12,,,47,127
6942,note_off,109,0,0,,12,,,47,127
6943,note_on,1,0,0,,0,,,48,127
7052,note_off,109,0,0,,0,,,48,127
7053,note_on,1,0,0,,12,,,47,127
7272,note_on,219,0,0,,3,,,75,127
7490,note_off,218,0,0,,3,,,75,127
7491,note_on,1,0,0,,6,,,78,127
7709,note_off,218,0,0,,12,,,47,127
7710,note_on,1,0,0,,12,,,59,127
7928,note_off,218,0,0,,12,,,59,127
7929,note_on,1,0,0,,0,,,48,127
8147,note_off,218,0,0,,6,,,78,127
8148,note_on,1,0,0,,3,,,75,127
8366,note_off,218,0,0,,3,,,75,127
8367,note_on,1,0,0,,10,,,81,127
8585,note_off,218,0,0,,0,,,48,127
8586,note_on,1,0,0,,10,,,57,127
8804,note_off,218,0,0,,10,,,57,127
8805,note_on,1,0,0,,12,,,47,127
9023,note_off,218,0,0,,10,,,81,127
9024,note_on,1,0,0,,3,,,75,127
9242,note_off,218,0,0,,3,,,75,127
9243,note_on,1,0,0,,6,,,78,127
9461,note_off,218,0,0,,12,,,47,127
9462,note_on,1,0,0,,12,,,59,127
9680,note_off,218,0,0,,12,,,59,127
9681,note_on,1,0,0,,0,,,48,127
9899,note_off,218,0,0,,6,,,78,127
9900,note_on,1,0,0,,3,,,75,127
10118,note_off,218,0,0,,3,,,75,127
10119,note_on,1,0,0,,10,,,81,127
10337,note_off,218,0,0,,0,,,48,127
10338,note_on,1,0,0,,10,,,57,127
10556,note_off,218,0,0,,10,,,57,127
10557,note_on,1,0,0,,3,,,51,127
10775,note_off,218,0,0,,10,,,81,127
10776,note_on,1,0,0,,7,,,79,127
10885,note_off,109,0,0,,7,,,79,127
10886,note_on,1,0,0,,10,,,81,127
10995,note_off,109,0,0,,10,,,81,127
10995,note_off,0,0,0,,3,,,51,127
10996,note_on,1,0,0,,12,,,47,127
10996,note_on,0,0,0,,12,,,83,127
11105,note_off,109,0,0,,12,,,83,127
11106,note_on,1,0,0,,10,,,81,127
11215,note_off,109,0,0,,10,,,81,127
11216,note_on,1,0,0,,7,,,79,127
11325,note_off,109,0,0,,7,,,79,127
11326,note_on,1,0,0,,6,,,78,127
11435,note_off,109,0,0,,6,,,78,127
11435,note_off,0,0,0,,12,,,47,127
11436,note_on,1,0,0,,4,,,52,127
11436,note_on,0,0,0,,10,,,81,127
11545,note_off,109,0,0,,10,,,81,127
11546,note_on,1,0,0,,7,,,79,127
11655,note_off,109,0,0,,7,,,79,127
11656,note_on,1,0,0,,6,,,78,127
11765,note_off,109,0,0,,6,,,78,127
11766,note_on,1,0,0,,7,,,79,127
11875,note_off,109,0,0,,7,,,79,127
11875,note_off,0,0,0,,4,,,52,127
11876,note_on,1,0,0,,10,,,57,127
11876,note_on,0,0,0,,0,,,48,127
11876,note_on,0,0,0,,12,,,83,127
11985,note_off,109,0,0,,12,,,83,127
11986,note_on,1,0,0,,10,,,81,127
12095,note_off,109,0,0,,10,,,81,127
12096,note_on,1,0,0,,7,,,79,127
12205,note_off,109,0,0,,7,,,79,127
12206,note_on,1,0,0,,6,,,78,127
12315,note_off,109,0,0,,6,,,78,127
12315,note_off,0,0,0,,0,,,48,127
12315,note_off,0,0,0,,10,,,57,127
12316,note_on,1,0,0,,7,,,55,127
12316,note_on,0,0,0,,12,,,47,127
12316,note_on,0,0,0,,4,,,52,127
12316,note_on,0,0,0,,4,,,76,127
12534,note_off,218,0,0,,4,,,76,127
12535,note_on,1,0,0,,12,,,71,127
12644,note_off,109,0,0,,12,,,71,127
12645,note_on,1,0,0,,4,,,76,127
12754,note_off,109,0,0,,4,,,76,127
12754,note_off,0,0,0,,4,,,52,127
12754,note_off,0,0,0,,12,,,47,127
12754,note_off,0,0,0,,7,,,55,127
12755,note_on,1,0,0,,10,,,57,127
12755,note_on,0,0,0,,6,,,54,127
12755,note_on,0,0,0,,12,,,47,127
12755,note_on,0,0,0,,4,,,76,127
12864,note_off,109,0,0,,4,,,76,127
12865,note_on,1,0,0,,3,,,75,127
12974,note_off,109,0,0,,3,,,75,127
12975,note_on,1,0,0,,1,,,73,127
13084,note_off,109,0,0,,1,,,73,127
13085,note_on,1,0,0,,3,,,75,127
13194,note_off,109,0,0,,3,,,75,127
13195,note_on,1,0,0,,4,,,76,127
13304,note_off,109,0,0,,12,,,47,127
13304,note_off,0,0,0,,6,,,54,127
13304,note_off,0,0,0,,10,,,57,127
13305,note_on,1,0,0,,4,,,52,127
13414,note_off,109,0,0,,4,,,52,127
13415,note_off,1,0,0,,4,,,76,127
13415,note_on,0,0,0,,6,,,54,127
13524,note_off,109,0,0,,6,,,54,127
13525,note_on,1,0,0,,7,,,55,127
13634,note_off,109,0,0,,7,,,55,127
13635,note_on,1,0,0,,10,,,57,127
13744,note_off,109,0,0,,10,,,57,127
13745,note_on,1,0,0,,12,,,59,127
13854,note_off,109,0,0,,12,,,59,127
13855,note_on,1,0,0,,1,,,61,127
13964,note_off,109,0,0,,1,,,61,127
13965,note_on,1,0,0,,3,,,63,127
14074,note_off,109,0,0,,3,,,63,127
14075,note_on,1,0,0,,4,,,64,127
14184,note_off,109,0,0,,4,,,64,127
14185,note_on,1,0,0,,4,,,64,127
14294,note_off,109,0,0,,4,,,64,127
14295,note_on,1,0,0,,6,,,66,127
14404,note_off,109,0,0,,6,,,66,127
14405,note_on,1,0,0,,7,,,67,127
14514,note_off,109,0,0,,7,,,67,127
14515,note_on,1,0,0,,10,,,69,127
14624,note_off,109,0,0,,10,,,69,127
14625,note_on,1,0,0,,12,,,71,127
14734,note_off,109,0,0,,12,,,71,127
14735,note_on,1,0,0,,1,,,73,127
14844,note_off,109,0,0,,1,,,73,127
14845,note_on,1,0,0,,3,,,75,127
14954,note_off,109,0,0,,3,,,75,127
14955,note_on,1,0,0,,4,,,52,127
14955,note_on,0,0,0,,4,,,76,127
15173,note_off,218,0,0,,4,,,76,127
15174,note_on,1,0,0,,2,,,74,127
15392,note_off,218,0,0,,2,,,74,127
15392,note_off,0,0,0,,4,,,52,127
15393,note_on,1,0,0,,6,,,54,127
15393,note_on,0,0,0,,4,,,76,127
15502,note_off,109,0,0,,4,,,76,127
15503,note_on,1,0,0,,2,,,74,127
15612,note_off,109,0,0,,2,,,74,127
15613,note_on,1,0,0,,0,,,72,127
15831,note_off,218,0,0,,0,,,72,127
15832,note_on,1,0,0,,12,,,71,127
15941,note_off,109,0,0,,6,,,54,127
15942,note_off,1,0,0,,12,,,71,127
15942,note_on,0,0,0,,7,,,55,127
16051,note_off,109,0,0,,7,,,55,127
16052,note_on,1,0,0,,10,,,57,127
16161,note_off,109,0,0,,10,,,57,127
16162,note_on,1,0,0,,12,,,59,127
16271,note_off,109,0,0,,12,,,59,127
16272,note_on,1,0,0,,0,,,60,127
16381,note_off,109,0,0,,0,,,60,127
16382,note_on,1,0,0,,2,,,62,127
16491,note_off,109,0,0,,2,,,62,127
16492,note_on,1,0,0,,4,,,64,127
16601,note_off,109,0,0,,4,,,64,127
16602,note_on,1,0,0,,6,,,66,127
16711,note_off,109,0,0,,6,,,66,127
16712,note_on,1,0,0,,7,,,67,127
16821,note_off,109,0,0,,7,,,67,127
16822,note_on,1,0,0,,7,,,67,127
16931,note_off,109,0,0,,7,,,67,127
16932,note_on,1,0,0,,10,,,69,127
17041,note_off,109,0,0,,10,,,69,127
17042,note_on,1,0,0,,12,,,71,127
17151,note_off,109,0,0,,12,,,71,127
17152,note_on,1,0,0,,0,,,72,127
17261,note_off,109,0,0,,0,,,72,127
17262,note_on,1,0,0,,2,,,74,127
17371,note_off,109,0,0,,2,,,74,127
17372,note_on,1,0,0,,4,,,76,127
17481,note_off,109,0,0,,4,,,76,127
17482,note_on,1,0,0,,6,,,78,127
17591,note_off,109,0,0,,6,,,78,127
17592,note_on,1,0,0,,7,,,67,127
17592,note_on,0,0,0,,7,,,79,127
17810,note_off,218,0,0,,7,,,79,127
17811,note_on,1,0,0,,6,,,78,127
18029,note_off,218,0,0,,6,,,78,127
18029,note_off,0,0,0,,7,,,67,127
18030,note_on,1,0,0,,11,,,70,127
18030,note_on,0,0,0,,7,,,79,127
18139,note_off,109,0,0,,7,,,79,127
18140,note_on,1,0,0,,6,,,78,127
18249,note_off,109,0,0,,6,,,78,127
18250,note_on,1,0,0,,4,,,76,127
18468,note_off,218,0,0,,4,,,76,127
18469,note_on,1,0,0,,2,,,74,127
18578,note_off,109,0,0,,11,,,70,127
18579,note_off,1,0,0,,2,,,74,127
18579,note_on,0,0,0,,12,,,59,127
18688,note_off,109,0,0,,12,,,59,127
18689,note_on,1,0,0,,1,,,61,127
18798,note_off,109,0,0,,1,,,61,127
18799,note_on,1,0,0,,2,,,62,127
18908,note_off,109,0,0,,2,,,62,127
18909,note_on,1,0,0,,4,,,64,127
19018,note_off,109,0,0,,4,,,64,127
19019,note_on,1,0,0,,6,,,66,127
19128,note_off,109,0,0,,6,,,66,127
19129,note_on,1,0,0,,8,,,68,127
19238,note_off,109,0,0,,8,,,68,127
19239,note_on,1,0,0,,11,,,70,127
19348,note_off,109,0,0,,11,,,70,127
19349,note_on,1,0,0,,12,,,71,127
19458,note_off,109,0,0,,12,,,71,127
19459,note_on,1,0,0,,12,,,71,127
19568,note_off,109,0,0,,12,,,71,127
19569,note_on,1,0,0,,1,,,73,127
19678,note_off,109,0,0,,1,,,73,127
19679,note_on,1,0,0,,2,,,74,127
19788,note_off,109,0,0,,2,,,74,127
19789,note_on,1,0,0,,4,,,76,127
19898,note_off,109,0,0,,4,,,76,127
19899,note_on,1,0,0,,6,,,78,127
20008,note_off,109,0,0,,6,,,78,127
20009,note_on,1,0,0,,8,,,80,127
20118,note_off,109,0,0,,8,,,80,127
20119,note_on,1,0,0,,11,,,82,127
20228,note_off,109,0,0,,11,,,82,127
20229,note_on,1,0,0,,12,,,71,127
20229,note_on,0,0,0,,12,,,83,127
20447,note_off,218,0,0,,12,,,83,127
20448,note_on,1,0,0,,10,,,81,127
20666,note_off,218,0,0,,10,,,81,127
20666,note_off,0,0,0,,12,,,71,127
20667,note_on,1,0,0,,1,,,73,127
20667,note_on,0,0,0,,12,,,83,127
20776,note_off,109,0,0,,12,,,83,127
20777,note_on,1,0,0,,10,,,81,127
20886,note_off,109,0,0,,10,,,81,127
20887,note_on,1,0,0,,7,,,79,127
21105,note_off,218,0,0,,7,,,79,127
21105,note_off,0,0,0,,1,,,73,127
21106,note_on,1,0,0,,2,,,74,127
21106,note_on,0,0,0,,7,,,79,127
21215,note_off,109,0,0,,7,,,79,127
21216,note_on,1,0,0,,6,,,78,127
21325,note_off,109,0,0,,6,,,78,127
21326,note_on,1,0,0,,4,,,76,127
21435,note_off,109,0,0,,4,,,76,127
21436,note_on,1,0,0,,6,,,78,127
21545,note_off,109,0,0,,6,,,78,127
21545,note_off,0,0,0,,2,,,74,127
21546,note_on,1,0,0,,12,,,71,127
21546,note_on,0,0,0,,7,,,79,127
21764,note_off,218,0,0,,7,,,79,127
21765,note_on,1,0,0,,6,,,78,127
21983,note_off,218,0,0,,6,,,78,127
21983,note_off,0,0,0,,12,,,71,127
21984,note_on,1,0,0,,1,,,73,127
21984,note_on,0,0,0,,6,,,78,127
22093,note_off,109,0,0,,6,,,78,127
22094,note_on,1,0,0,,4,,,76,127
22203,note_off,109,0,0,,4,,,76,127
22204,note_on,1,0,0,,2,,,74,127
22313,note_off,109,0,0,,2,,,74,127
22314,note_on,1,0,0,,4,,,76,127
22423,note_off,109,0,0,,4,,,76,127
22423,note_off,0,0,0,,1,,,73,127
22424,note_on,1,0,0,,11,,,70,127
22424,note_on,0,0,0,,6,,,78,127
22642,note_off,218,0,0,,6,,,78,127
22643,note_on,1,0,0,,4,,,76,127
22861,note_off,218,0,0,,4,,,76,127
22861,note_off,0,0,0,,11,,,70,127
22862,note_on,1,0,0,,12,,,71,127
22862,note_on,0,0,0,,2,,,74,127
23080,note_off,218,0,0,,2,,,74,127
23081,note_on,1,0,0,,2,,,86,127
23299,note_off,218,0,0,,2,,,86,127
23299,note_off,0,0,0,,12,,,71,127
23300,note_on,1,0,0,,12,,,59,127
23300,note_on,0,0,0,,6,,,78,127
23518,note_off,218,0,0,,6,,,78,127
23519,note_on,1,0,0,,8,,,80,127
23737,note_off,218,0,0,,8,,,80,127
23737,note_off,0,0,0,,12,,,59,127
23738,note_on,1,0,0,,10,,,57,127
23738,note_on,0,0,0,,10,,,81,127
23956,note_off,218,0,0,,10,,,81,127
23957,note_on,1,0,0,,1,,,85,127
24175,note_off,218,0,0,,1,,,85,127
24175,note_off,0,0,0,,10,,,57,127
24176,note_on,1,0,0,,10,,,69,127
24176,note_on,0,0,0,,1,,,73,127
24394,note_off,218,0,0,,1,,,73,127
24395,note_on,1,0,0,,2,,,74,127
24613,note_off,218,0,0,,2,,,74,127
24613,note_off,0,0,0,,10,,,69,127
24614,note_on,1,0,0,,7,,,67,127
24614,note_on,0,0,0,,4,,,76,127
24832,note_off,218,0,0,,4,,,76,127
24833,note_on,1,0,0,,12,,,83,127
25051,note_off,218,0,0,,12,,,83,127
25051,note_off,0,0,0,,7,,,67,127
25052,note_on,1,0,0,,7,,,67,127
25052,note_on,0,0,0,,12,,,71,127
25270,note_off,218,0,0,,12,,,71,127
25271,note_on,1,0,0,,1,,,73,127
25489,note_off,218,0,0,,1,,,73,127
25489,note_off,0,0,0,,7,,,67,127
25490,note_on,1,0,0,,6,,,66,127
25490,note_on,0,0,0,,4,,,76,127
25599,note_off,109,0,0,,4,,,76,127
25600,note_on,1,0,0,,2,,,74,127
25709,note_off,109,0,0,,2,,,74,127
25710,note_on,1,0,0,,1,,,73,127
25819,note_off,109,0,0,,1,,,73,127
25820,note_on,1,0,0,,12,,,71,127
25929,note_off,109,0,0,,12,,,71,127
25929,note_off,0,0,0,,6,,,66,127
25930,note_on,1,0,0,,6,,,54,127
25930,note_on,0,0,0,,2,,,74,127
26039,note_off,109,0,0,,2,,,74,127
26040,note_on,1,0,0,,1,,,73,127
26149,note_off,109,0,0,,1,,,73,127
26150,note_on,1,0,0,,12,,,71,127
26259,note_off,109,0,0,,12,,,71,127
26260,note_on,1,0,0,,11,,,70,127
26369,note_off,109,0,0,,11,,,70,127
26369,note_off,0,0,0,,6,,,54,127
26370,note_on,1,0,0,,12,,,59,127
26370,note_on,0,0,0,,12,,,71,127
26588,note_off,218,0,0,,12,,,71,127
26588,note_off,0,0,0,,12,,,59,127
26589,note_on,1,0,0,,12,,,71,127
26807,note_off,218,0,0,,12,,,71,127
26808,note_on,1,0,0,,6,,,66,127
26808,note_on,0,0,0,,6,,,78,127
27026,note_off,218,0,0,,6,,,66,127
27027,note_on,1,0,0,,8,,,68,127
27245,note_off,218,0,0,,8,,,68,127
27246,note_on,1,0,0,,10,,,69,127
27464,note_off,218,0,0,,10,,,69,127
27464,note_off,0,0,0,,6,,,78,127
27465,note_on,1,0,0,,10,,,57,127
27465,note_on,0,0,0,,4,,,76,127
27574,note_off,109,0,0,,4,,,76,127
27575,note_on,1,0,0,,2,,,74,127
27684,note_off,109,0,0,,2,,,74,127
27684,note_off,0,0,0,,10,,,57,127
27685,note_on,1,0,0,,4,,,64,127
27685,note_on,0,0,0,,1,,,73,127
27903,note_off,218,0,0,,1,,,73,127
27903,note_off,0,0,0,,4,,,64,127
27904,note_on,1,0,0,,6,,,66,127
27904,note_on,0,0,0,,4,,,76,127
28122,note_off,218,0,0,,6,,,66,127
28123,note_on,1,0,0,,7,,,67,127
28341,note_off,218,0,0,,7,,,67,127
28341,note_off,0,0,0,,4,,,76,127
28342,note_on,1,0,0,,7,,,55,127
28342,note_on,0,0,0,,2,,,74,127
28451,note_off,109,0,0,,2,,,74,127
28452,note_on,1,0,0,,1,,,73,127
28561,note_off,109,0,0,,1,,,73,127
28561,note_off,0,0,0,,7,,,55,127
28562,note_on,1,0,0,,2,,,62,127
28562,note_on,0,0,0,,12,,,71,127
28780,note_off,218,0,0,,2,,,62,127
28781,note_on,1,0,0,,4,,,64,127
28999,note_off,218,0,0,,4,,,64,127
29000,note_on,1,0,0,,6,,,66,127
29109,note_off,109,0,0,,6,,,66,127
29110,note_on,1,0,0,,7,,,67,127
29219,note_off,109,0,0,,7,,,67,127
29219,note_off,0,0,0,,12,,,71,127
29220,note_on,1,0,0,,4,,,64,127
29220,note_on,0,0,0,,11,,,70,127
29329,note_off,109,0,0,,4,,,64,127
29330,note_on,1,0,0,,6,,,66,127
29439,note_off,109,0,0,,6,,,66,127
29439,note_off,0,0,0,,11,,,70,127
29440,note_on,1,0,0,,2,,,62,127
29440,note_on,0,0,0,,12,,,71,127
29549,note_off,109,0,0,,2,,,62,127
29550,note_on,1,0,0,,4,,,64,127
29659,note_off,109,0,0,,4,,,64,127
29659,note_off,0,0,0,,12,,,71,127
29660,note_on,1,0,0,,1,,,61,127
29660,note_on,0,0,0,,1,,,73,127
29769,note_off,109,0,0,,1,,,61,127
29770,note_on,1,0,0,,2,,,62,127
29879,note_off,109,0,0,,2,,,62,127
29879,note_off,0,0,0,,1,,,73,127
29880,note_on,1,0,0,,12,,,59,127
29880,note_on,0,0,0,,2,,,74,127
29989,note_off,109,0,0,,12,,,59,127
29990,note_on,1,0,0,,1,,,61,127
30099,note_off,109,0,0,,1,,,61,127
30099,note_off,0,0,0,,2,,,74,127
30100,note_on,1,0,0,,10,,,57,127
30100,note_on,0,0,0,,12,,,71,127
30209,note_off,109,0,0,,10,,,57,127
30210,note_on,1,0,0,,12,,,59,127
30319,note_off,109,0,0,,12,,,59,127
30319,note_off,0,0,0,,12,,,71,127
30320,note_on,1,0,0,,7,,,55,127
30320,note_on,0,0,0,,4,,,76,127
30429,note_off,109,0,0,,7,,,55,127
30430,note_on,1,0,0,,10,,,57,127
30539,note_off,109,0,0,,10,,,57,127
30539,note_off,0,0,0,,4,,,76,127
30540,note_on,1,0,0,,6,,,54,127
30540,note_on,0,0,0,,6,,,78,127
30649,note_off,109,0,0,,6,,,54,127
30650,note_on,1,0,0,,7,,,55,127
30759,note_off,109,0,0,,7,,,55,127
30759,note_off,0,0,0,,6,,,78,127
30760,note_on,1,0,0,,4,,,52,127
30760,note_on,0,0,0,,7,,,79,127
30869,note_off,109,0,0,,4,,,52,127
30870,note_on,1,0,0,,6,,,54,127
30979,note_off,109,0,0,,6,,,54,127
30980,note_on,1,0,0,,2,,,50,127
30980,note_on,0,0,0,,12,,,71,127
31089,note_off,109,0,0,,2,,,50,127
31090,note_on,1,0,0,,4,,,52,127
31199,note_off,109,0,0,,4,,,52,127
31199,note_off,0,0,0,,12,,,71,127
31200,note_on,1,0,0,,1,,,49,127
31200,note_on,0,0,0,,11,,,70,127
31309,note_off,109,0,0,,1,,,49,127
31310,note_on,1,0,0,,2,,,50,127
31419,note_off,109,0,0,,2,,,50,127
31419,note_off,0,0,0,,11,,,70,127
31420,note_on,1,0,0,,12,,,47,127
31420,note_on,0,0,0,,12,,,71,127
31529,note_off,109,0,0,,12,,,47,127
31530,note_on,1,0,0,,1,,,49,127
31639,note_off,109,0,0,,1,,,49,127
31639,note_off,0,0,0,,12,,,71,127
31640,note_on,1,0,0,,11,,,46,127
31640,note_on,0,0,0,,1,,,73,127
31858,note_off,218,0,0,,1,,,73,127
31858,note_off,0,0,0,,11,,,46,127
31858,note_off,0,0,0,,7,,,79,127
31859,note_on,1,0,0,,6,,,42,127
31859,note_on,0,0,0,,6,,,78,127
31968,note_off,109,0,0,,6,,,78,127
31969,note_on,1,0,0,,4,,,76,127
32078,note_off,109,0,0,,4,,,76,127
32078,note_off,0,0,0,,6,,,42,127
32079,note_on,1,0,0,,12,,,47,127
32079,note_on,0,0,0,,2,,,74,127
32297,note_off,218,0,0,,2,,,74,127
32297,note_off,0,0,0,,12,,,47,127
32298,note_on,1,0,0,,4,,,52,127
32298,note_on,0,0,0,,1,,,73,127
32407,note_off,109,0,0,,1,,,73,127
32408,note_on,1,0,0,,12,,,71,127
32517,note_off,109,0,0,,12,,,71,127
32517,note_off,0,0,0,,4,,,52,127
32518,note_on,1,0,0,,6,,,54,127
32518,note_on,0,0,0,,6,,,78,127
32736,note_off,218,0,0,,6,,,78,127
32737,note_on,1,0,0,,4,,,76,127
32846,note_off,109,0,0,,4,,,76,127
32847,note_on,1,0,0,,2,,,74,127
32956,note_off,109,0,0,,2,,,74,127
32956,note_off,0,0,0,,6,,,54,127
32957,note_on,1,0,0,,6,,,42,127
32957,note_on,0,0,0,,1,,,73,127
33175,note_off,218,0,0,,1,,,73,127
33176,note_on,1,0,0,,12,,,71,127
33285,note_off,109,0,0,,12,,,71,127
33286,note_on,1,0,0,,11,,,70,127
33395,note_off,109,0,0,,11,,,70,127
33395,note_off,0,0,0,,6,,,42,127
33396,note_on,1,0,0,,12,,,47,127
33396,note_on,0,0,0,,12,,,71,127
33614,note_off,218,0,0,,12,,,47,127
33615,note_on,1,0,0,,6,,,66,127
33833,note_off,218,0,0,,6,,,66,127
33834,note_off,1,0,0,,12,,,71,127
33834,note_on,0,0,0,,7,,,67,127
34052,note_off,218,0,0,,7,,,67,127
34053,note_on,1,0,0,,6,,,66,127
34271,note_off,218,0,0,,6,,,66,127
34272,note_on,1,0,0,,4,,,64,127
34272,note_on,0,0,0,,1,,,73,127
34490,note_off,218,0,0,,4,,,64,127
34491,note_on,1,0,0,,12,,,71,127
34709,note_off,218,0,0,,12,,,71,127
34710,note_on,1,0,0,,11,,,70,127
34928,note_off,218,0,0,,11,,,70,127
34928,note_off,0,0,0,,1,,,73,127
34929,note_on,1,0,0,,6,,,66,127
34929,note_on,0,0,0,,2,,,74,127
35038,note_off,109,0,0,,2,,,74,127
35039,note_on,1,0,0,,4,,,76,127
35148,note_off,109,0,0,,4,,,76,127
35148,note_off,0,0,0,,6,,,66,127
35149,note_on,1,0,0,,12,,,59,127
35149,note_on,0,0,0,,2,,,74,127
35258,note_off,109,0,0,,2,,,74,127
35259,note_on,1,0,0,,1,,,73,127
35368,note_off,109,0,0,,1,,,73,127
35368,note_off,0,0,0,,12,,,59,127
35369,note_on,1,0,0,,6,,,66,127
35369,note_on,0,0,0,,12,,,71,127
35587,note_off,218,0,0,,12,,,71,127
35587,note_off,0,0,0,,6,,,66,127
35588,note_on,1,0,0,,7,,,67,127
35588,note_on,0,0,0,,11,,,82,127
35806,note_off,218,0,0,,11,,,82,127
35806,note_off,0,0,0,,7,,,67,127
35807,note_on,1,0,0,,6,,,66,127
35807,note_on,0,0,0,,12,,,83,127
35972,note_off,165,0,0,,12,,,83,127
36026,note_off,54,0,0,,6,,,66,127
36027,note_on,1,0,0,,4,,,64,127
36027,note_on,0,0,0,,1,,,73,127
36245,note_off,218,0,0,,4,,,64,127
36246,note_on,1,0,0,,12,,,71,127
36464,note_off,218,0,0,,12,,,71,127
36465,note_on,1,0,0,,11,,,70,127
36683,note_off,218,0,0,,11,,,70,127
36683,note_off,0,0,0,,1,,,73,127
36684,note_on,1,0,0,,6,,,66,127
36684,note_on,0,0,0,,2,,,74,127
36793,note_off,109,0,0,,2,,,74,127
36794,note_on,1,0,0,,4,,,76,127
36903,note_off,109,0,0,,4,,,76,127
36903,note_off,0,0,0,,6,,,66,127
36904,note_on,1,0,0,,12,,,59,127
36904,note_on,0,0,0,,2,,,74,127
37013,note_off,109,0,0,,2,,,74,127
37014,note_on,1,0,0,,1,,,73,127
37123,note_off,109,0,0,,1,,,73,127
37123,note_off,0,0,0,,12,,,59,127
37124,note_on,1,0,0,,6,,,66,127
37124,note_on,0,0,0,,12,,,71,127
37342,note_off,218,0,0,,12,,,71,127
37342,note_off,0,0,0,,6,,,66,127
37343,note_on,1,0,0,,7,,,67,127
37343,note_on,0,0,0,,11,,,82,127
37561,note_off,218,0,0,,11,,,82,127
37561,note_off,0,0,0,,7,,,67,127
37562,note_on,1,0,0,,6,,,66,127
37562,note_on,0,0,0,,12,,,83,127
37727,note_off,165,0,0,,12,,,83,127
37781,note_off,54,0,0,,6,,,66,127
37782,note_on,1,0,0,,4,,,64,127
37782,note_on,0,0,0,,1,,,73,127
38000,note_off,218,0,0,,4,,,64,127
38001,note_on,1,0,0,,12,,,71,127
38219,note_off,218,0,0,,12,,,71,127
38220,note_on,1,0,0,,11,,,70,127
38438,note_off,218,0,0,,11,,,70,127
38438,note_off,0,0,0,,1,,,73,127
38439,note_on,1,0,0,,6,,,66,127
38439,note_on,0,0,0,,2,,,74,127
38548,note_off,109,0,0,,2,,,74,127
38549,note_on,1,0,0,,4,,,76,127
38658,note_off,109,0,0,,4,,,76,127
38658,note_off,0,0,0,,6,,,66,127
38659,note_on,1,0,0,,12,,,59,127
38659,note_on,0,0,0,,4,,,76,127
38768,note_off,109,0,0,,4,,,76,127
38769,note_on,1,0,0,,2,,,74,127
38878,note_off,109,0,0,,2,,,74,127
38879,note_on,1,0,0,,1,,,73,127
38988,note_off,109,0,0,,1,,,73,127
38989,note_on,1,0,0,,2,,,74,127
39098,note_off,109,0,0,,2,,,74,127
39098,note_off,0,0,0,,12,,,59,127
39099,note_on,1,0,0,,4,,,64,127
39099,note_on,0,0,0,,7,,,55,127
39099,note_on,0,0,0,,6,,,78,127
39208,note_off,109,0,0,,6,,,78,127
39209,note_on,1,0,0,,4,,,76,127
39318,note_off,109,0,0,,4,,,76,127
39319,note_on,1,0,0,,2,,,74,127
39428,note_off,109,0,0,,2,,,74,127
39429,note_on,1,0,0,,1,,,73,127
39538,note_off,109,0,0,,1,,,73,127
39538,note_off,0,0,0,,7,,,55,127
39538,note_off,0,0,0,,4,,,64,127
39539,note_on,1,0,0,,6,,,54,127
39539,note_on,0,0,0,,2,,,62,127
39539,note_on,0,0,0,,12,,,71,127
39757,note_off,218,0,0,,12,,,71,127
39758,note_on,1,0,0,,6,,,66,127
39867,note_off,109,0,0,,6,,,66,127
39868,note_on,1,0,0,,12,,,71,127
39977,note_off,109,0,0,,12,,,71,127
39977,note_off,0,0,0,,2,,,62,127
39977,note_off,0,0,0,,6,,,54,127
39978,note_on,1,0,0,,1,,,61,127
39978,note_on,0,0,0,,6,,,54,127
39978,note_on,0,0,0,,12,,,71,127
40087,note_off,109,0,0,,12,,,71,127
40088,note_on,1,0,0,,11,,,70,127
40197,note_off,109,0,0,,11,,,70,127
40198,note_on,1,0,0,,8,,,68,127
40307,note_off,109,0,0,,8,,,68,127
40308,note_on,1,0,0,,11,,,70,127
40417,note_off,109,0,0,,11,,,70,127
40417,note_off,0,0,0,,6,,,54,127
40417,note_off,0,0,0,,1,,,61,127
40418,note_on,1,0,0,,12,,,47,127
40418,note_on,0,0,0,,12,,,71,127
40636,note_off,218,0,0,,12,,,47,127
40637,note_on,1,0,0,,6,,,54,127
40855,note_off,218,0,0,,6,,,54,127
40856,note_off,1,0,0,,12,,,71,127
40856,note_on,0,0,0,,7,,,55,127
41074,note_off,218,0,0,,7,,,55,127
41075,note_on,1,0,0,,6,,,54,127
41293,note_off,218,0,0,,6,,,54,127
41294,note_on,1,0,0,,4,,,52,127
41294,note_on,0,0,0,,1,,,61,127
41512,note_off,218,0,0,,4,,,52,127
41513,note_on,1,0,0,,12,,,59,127
41731,note_off,218,0,0,,12,,,59,127
41732,note_on,1,0,0,,11,,,58,127
41950,note_off,218,0,0,,11,,,58,127
41950,note_off,0,0,0,,1,,,61,127
41951,note_on,1,0,0,,6,,,54,127
41951,note_on,0,0,0,,2,,,62,127
42060,note_off,109,0,0,,2,,,62,127
42061,note_on,1,0,0,,4,,,64,127
42170,note_off,109,0,0,,4,,,64,127
42170,note_off,0,0,0,,6,,,54,127
42171,note_on,1,0,0,,12,,,47,127
42171,note_on,0,0,0,,2,,,62,127
42280,note_off,109,0,0,,2,,,62,127
42281,note_on,1,0,0,,1,,,61,127
42390,note_off,109,0,0,,1,,,61,127
42390,note_off,0,0,0,,12,,,47,127
42391,note_on,1,0,0,,6,,,54,127
42391,note_on,0,0,0,,12,,,59,127
42609,note_off,218,0,0,,12,,,59,127
42609,note_off,0,0,0,,6,,,54,127
42610,note_on,1,0,0,,7,,,55,127
42610,note_on,0,0,0,,11,,,70,127
42828,note_off,218,0,0,,11,,,70,127
42828,note_off,0,0,0,,7,,,55,127
42829,note_on,1,0,0,,6,,,54,127
42829,note_on,0,0,0,,12,,,71,127
42994,note_off,165,0,0,,12,,,71,127
43048,note_off,54,0,0,,6,,,54,127
43049,note_on,1,0,0,,4,,,52,127
43049,note_on,0,0,0,,1,,,61,127
43267,note_off,218,0,0,,4,,,52,127
43268,note_on,1,0,0,,12,,,59,127
43486,note_off,218,0,0,,12,,,59,127
43487,note_on,1,0,0,,11,,,58,127
43705,note_off,218,0,0,,11,,,58,127
43705,note_off,0,0,0,,1,,,61,127
43706,note_on,1,0,0,,6,,,54,127
43706,note_on,0,0,0,,2,,,62,127
43815,note_off,109,0,0,,2,,,62,127
43816,note_on,1,0,0,,4,,,64,127
43925,note_off,109,0,0,,4,,,64,127
43925,note_off,0,0,0,,6,,,54,127
43926,note_on,1,0,0,,12,,,47,127
43926,note_on,0,0,0,,2,,,62,127
44035,note_off,109,0,0,,2,,,62,127
44036,note_on,1,0,0,,1,,,61,127
44145,note_off,109,0,0,,1,,,61,127
44145,note_off,0,0,0,,12,,,47,127
44146,note_on,1,0,0,,6,,,54,127
44146,note_on,0,0,0,,12,,,59,127
44364,note_off,218,0,0,,12,,,59,127
44364,note_off,0,0,0,,6,,,54,127
44365,note_on,1,0,0,,7,,,55,127
44365,note_on,0,0,0,,11,,,70,127
44583,note_off,218,0,0,,11,,,70,127
44583,note_off,0,0,0,,7,,,55,127
44584,note_on,1,0,0,,6,,,54,127
44584,note_on,0,0,0,,12,,,71,127
44749,note_off,165,0,0,,12,,,71,127
44803,note_off,54,0,0,,6,,,54,127
44804,note_on,1,0,0,,4,,,52,127
44804,note_on,0,0,0,,1,,,61,127
45022,note_off,218,0,0,,4,,,52,127
45023,note_on,1,0,0,,12,,,59,127
45241,note_off,218,0,0,,12,,,59,127
45242,note_on,1,0,0,,11,,,58,127
45460,note_off,218,0,0,,11,,,58,127
45460,note_off,0,0,0,,1,,,61,127
45461,note_on,1,0,0,,6,,,54,127
45461,note_on,0,0,0,,2,,,62,127
45570,note_off,109,0,0,,2,,,62,127
45571,note_on,1,0,0,,4,,,64,127
45680,note_off,109,0,0,,4,,,64,127
45680,note_off,0,0,0,,6,,,54,127
45681,note_on,1,0,0,,12,,,47,127
45681,note_on,0,0,0,,4,,,64,127
45790,note_off,109,0,0,,4,,,64,127
45791,note_on,1,0,0,,2,,,62,127
45900,note_off,109,0,0,,2,,,62,127
45901,note_on,1,0,0,,1,,,61,127
46010,note_off,109,0,0,,1,,,61,127
46011,note_on,1,0,0,,2,,,62,127
46120,note_off,109,0,0,,2,,,62,127
46120,note_off,0,0,0,,12,,,47,127
46121,note_on,1,0,0,,4,,,52,127
46121,note_on,0,0,0,,6,,,66,127
46230,note_off,109,0,0,,6,,,66,127
46231,note_on,1,0,0,,4,,,64,127
46340,note_off,109,0,0,,4,,,64,127
46341,note_on,1,0,0,,2,,,62,127
46450,note_off,109,0,0,,2,,,62,127
46451,note_on,1,0,0,,1,,,61,127
46560,note_off,109,0,0,,1,,,61,127
46560,note_off,0,0,0,,4,,,52,127
46561,note_on,1,0,0,,6,,,54,127
46561,note_on,0,0,0,,12,,,59,127
46999,note_off,438,0,0,,12,,,59,127
46999,note_off,0,0,0,,6,,,54,127
47000,note_on,1,0,0,,6,,,42,127
47000,note_on,0,0,0,,12,,,59,127
47109,note_off,109,0,0,,12,,,59,127
47110,note_on,1,0,0,,11,,,58,127
47219,note_off,109,0,0,,11,,,58,127
47220,note_on,1,0,0,,8,,,56,127
47329,note_off,109,0,0,,8,,,56,127
47330,note_on,1,0,0,,11,,,58,127
47439,note_off,109,0,0,,11,,,58,127
47439,note_off,0,0,0,,6,,,42,127
47440,note_on,1,0,0,,12,,,47,127
47440,note_on,0,0,0,,12,,,59,127
47658,note_off,218,0,0,,12,,,59,127
47659,note_on,1,0,0,,12,,,83,127
47877,note_off,218,0,0,,12,,,83,127
47877,note_off,0,0,0,,12,,,47,127
47878,note_on,1,0,0,,4,,,64,127
47878,note_on,0,0,0,,7,,,79,127
48096,note_off,218,0,0,,7,,,79,127
48097,note_on,1,0,0,,4,,,76,127
48315,note_off,218,0,0,,4,,,76,127
48315,note_off,0,0,0,,4,,,64,127
48316,note_on,1,0,0,,7,,,67,127
48316,note_on,0,0,0,,4,,,64,127
48316,note_on,0,0,0,,11,,,58,127
48316,note_on,0,0,0,,7,,,79,127
48534,note_off,218,0,0,,7,,,79,127
48535,note_on,1,0,0,,4,,,76,127
48753,note_off,218,0,0,,4,,,76,127
48753,note_off,0,0,0,,11,,,58,127
48753,note_off,0,0,0,,4,,,64,127
48753,note_off,0,0,0,,7,,,67,127
48754,note_on,1,0,0,,7,,,67,127
48754,note_on,0,0,0,,4,,,64,127
48754,note_on,0,0,0,,11,,,58,127
48754,note_on,0,0,0,,7,,,79,127
48972,note_off,218,0,0,,7,,,79,127
48973,note_on,1,0,0,,4,,,76,127
49191,note_off,218,0,0,,4,,,76,127
49191,note_off,0,0,0,,11,,,58,127
49191,note_off,0,0,0,,4,,,64,127
49191,note_off,0,0,0,,7,,,67,127
49192,note_on,1,0,0,,12,,,59,127
49192,note_on,0,0,0,,6,,,66,127
49192,note_on,0,0,0,,4,,,76,127
49301,note_off,109,0,0,,4,,,76,127
49302,note_on,1,0,0,,2,,,74,127
49411,note_off,109,0,0,,2,,,74,127
49412,note_on,1,0,0,,1,,,73,127
49521,note_off,109,0,0,,1,,,73,127
49522,note_on,1,0,0,,2,,,74,127
49631,note_off,109,0,0,,2,,,74,127
49631,note_off,0,0,0,,6,,,66,127
49631,note_off,0,0,0,,12,,,59,127
49632,note_on,1,0,0,,4,,,64,127
49632,note_on,0,0,0,,7,,,55,127
49632,note_on,0,0,0,,6,,,78,127
49741,note_off,109,0,0,,6,,,78,127
49742,note_on,1,0,0,,4,,,76,127
49851,note_off,109,0,0,,4,,,76,127
49852,note_on,1,0,0,,2,,,74,127
49961,note_off,109,0,0,,2,,,74,127
49962,note_on,1,0,0,,1,,,73,127
50071,note_off,109,0,0,,1,,,73,127
50071,note_off,0,0,0,,7,,,55,127
50071,note_off,0,0,0,,4,,,64,127
50072,note_on,1,0,0,,2,,,62,127
50072,note_on,0,0,0,,12,,,59,127
50072,note_on,0,0,0,,6,,,54,127
50072,note_on,0,0,0,,12,,,71,127
50290,note_off,218,0,0,,12,,,71,127
50291,note_on,1,0,0,,6,,,66,127
50400,note_off,109,0,0,,6,,,66,127
50401,note_on,1,0,0,,12,,,71,127
50510,note_off,109,0,0,,12,,,71,127
50510,note_off,0,0,0,,6,,,54,127
50510,note_off,0,0,0,,12,,,59,127
50510,note_off,0,0,0,,2,,,62,127
50511,note_on,1,0,0,,4,,,64,127
50511,note_on,0,0,0,,1,,,61,127
50511,note_on,0,0,0,,6,,,54,127
50511,note_on,0,0,0,,12,,,71,127
50620,note_off,109,0,0,,12,,,71,127
50621,note_on,1,0,0,,11,,,70,127
50730,note_off,109,0,0,,11,,,70,127
50731,note_on,1,0,0,,8,,,68,127
50840,note_off,109,0,0,,8,,,68,127
50841,note_on,1,0,0,,11,,,70,127
50950,note_off,109,0,0,,11,,,70,127
50950,note_off,0,0,0,,6,,,54,127
50950,note_off,0,0,0,,1,,,61,127
50950,note_off,0,0,0,,4,,,64,127
50951,note_on,1,0,0,,6,,,54,127
50951,note_on,0,0,0,,12,,,59,127
50951,note_on,0,0,0,,12,,,47,127
50951,note_on,0,0,0,,12,,,71,127
51169,note_off,218,0,0,,12,,,71,127
51170,note_on,1,0,0,,12,,,71,127
51388,note_off,218,0,0,,12,,,71,127
51388,note_off,0,0,0,,12,,,47,127
51388,note_off,0,0,0,,12,,,59,127
51388,note_off,0,0,0,,6,,,54,127
51389,note_on,1,0,0,,4,,,52,127
51389,note_on,0,0,0,,7,,,67,127
51607,note_off,218,0,0,,7,,,67,127
51608,note_on,1,0,0,,4,,,64,127
51826,note_off,218,0,0,,4,,,64,127
51826,note_off,0,0,0,,4,,,52,127
51827,note_on,1,0,0,,11,,,46,127
51827,note_on,0,0,0,,7,,,67,127
52045,note_off,218,0,0,,7,,,67,127
52046,note_on,1,0,0,,4,,,64,127
52264,note_off,218,0,0,,4,,,64,127
52264,note_off,0,0,0,,11,,,46,127
52265,note_on,1,0,0,,11,,,46,127
52265,note_on,0,0,0,,7,,,67,127
52483,note_off,218,0,0,,7,,,67,127
52484,note_on,1,0,0,,4,,,64,127
52702,note_off,218,0,0,,4,,,64,127
52702,note_off,0,0,0,,11,,,46,127
52703,note_on,1,0,0,,12,,,47,127
52703,note_on,0,0,0,,4,,,64,127
52812,note_off,109,0,0,,4,,,64,127
52813,note_on,1,0,0,,2,,,62,127
52922,note_off,109,0,0,,2,,,62,127
52923,note_on,1,0,0,,1,,,61,127
53032,note_off,109,0,0,,1,,,61,127
53033,note_on,1,0,0,,2,,,62,127
53142,note_off,109,0,0,,2,,,62,127
53142,note_off,0,0,0,,12,,,47,127
53143,note_on,1,0,0,,7,,,43,127
53143,note_on,0,0,0,,6,,,66,127
53252,note_off,109,0,0,,6,,,66,127
53253,note_on,1,0,0,,4,,,64,127
53362,note_off,109,0,0,,4,,,64,127
53363,note_on,1,0,0,,2,,,62,127
53472,note_off,109,0,0,,2,,,62,127
53473,note_on,1,0,0,,1,,,61,127
53582,note_off,109,0,0,,1,,,61,127
53582,note_off,0,0,0,,7,,,43,127
53583,note_on,1,0,0,,6,,,42,127
53583,note_on,0,0,0,,12,,,59,127
53806,note_off,223,0,0,,12,,,59,127
53812,note_on,6,0,0,,6,,,54,127
53922,note_off,110,0,0,,6,,,54,127
53927,note_on,5,0,0,,12,,,59,127
54033,note_off,106,0,0,,6,,,42,127
54036,note_off,3,0,0,,12,,,59,127
54041,note_on,5,0,0,,6,,,42,127
54041,note_on,0,0,0,,12,,,59,127
54151,note_off,110,0,0,,12,,,59,127
54156,note_on,5,0,0,,11,,,58,127
54266,note_off,110,0,0,,11,,,58,127
54271,note_on,5,0,0,,8,,,56,127
54381,note_off,110,0,0,,8,,,56,127
54386,note_on,5,0,0,,11,,,58,127
54492,note_off,106,0,0,,6,,,42,127
54495,note_off,3,0,0,,11,,,58,127
54509,note_on,14,0,0,,12,,,59,127
54509,note_on,0,0,0,,12,,,47,127
55634,note_off,1125,0,0,,12,,,47,127
55634,note_off,0,0,0,,12,,,59,127
55835,note_on,201,0,0,,1,,,85,127
55835,note_on,0,0,0,,10,,,45,127
55835,note_on,0,0,0,,4,,,52,127
55835,note_on,0,0,0,,10,,,57,127
55886,note_on,51,0,0,,10,,,81,127
55905,note_off,19,0,0,,1,,,85,127
55936,note_on,31,0,0,,4,,,76,127
55957,note_off,21,0,0,,10,,,81,127
55988,note_on,31,0,0,,1,,,73,127
56007,note_off,19,0,0,,4,,,76,127
56038,note_on,31,0,0,,10,,,69,127
56059,note_off,21,0,0,,1,,,73,127
56090,note_on,31,0,0,,4,,,64,127
56109,note_off,19,0,0,,10,,,69,127
56140,note_on,31,0,0,,10,,,69,127
56161,note_off,21,0,0,,4,,,64,127
56191,note_on,30,0,0,,1,,,73,127
56212,note_off,21,0,0,,10,,,69,127
56242,note_on,30,0,0,,4,,,76,127
56263,note_off,21,0,0,,1,,,73,127
56294,note_on,31,0,0,,10,,,69,127
56313,note_off,19,0,0,,4,,,76,127
56345,note_on,32,0,0,,1,,,73,127
56364,note_off,19,0,0,,10,,,69,127
56395,note_on,31,0,0,,4,,,76,127
56416,note_off,21,0,0,,1,,,73,127
56446,note_on,30,0,0,,10,,,81,127
56467,note_off,21,0,0,,4,,,76,127
56498,note_on,31,0,0,,4,,,76,127
56517,note_off,19,0,0,,10,,,81,127
56548,note_on,31,0,0,,10,,,81,127
56569,note_off,21,0,0,,4,,,76,127
56599,note_on,30,0,0,,1,,,85,127
56620,note_off,21,0,0,,10,,,81,127
56645,note_off,25,0,0,,10,,,57,127
56645,note_off,0,0,0,,4,,,52,127
56645,note_off,0,0,0,,10,,,45,127
56650,note_on,5,0,0,,2,,,86,127
56650,note_on,0,0,0,,10,,,45,127
56650,note_on,0,0,0,,2,,,50,127
56650,note_on,0,0,0,,6,,,54,127
56650,note_on,0,0,0,,10,,,57,127
56671,note_off,21,0,0,,1,,,85,127
56701,note_on,30,0,0,,10,,,81,127
56722,note_off,21,0,0,,2,,,86,127
56753,note_on,31,0,0,,6,,,78,127
56772,note_off,19,0,0,,10,,,81,127
56804,note_on,32,0,0,,2,,,74,127
56823,note_off,19,0,0,,6,,,78,127
56854,note_on,31,0,0,,10,,,69,127
56875,note_off,21,0,0,,2,,,74,127
56905,note_on,30,0,0,,6,,,66,127
56926,note_off,21,0,0,,10,,,69,127
56956,note_on,30,0,0,,2,,,62,127
56977,note_off,21,0,0,,6,,,66,127
57007,note_on,30,0,0,,6,,,66,127
57028,note_off,21,0,0,,2,,,62,127
57059,note_on,31,0,0,,10,,,69,127
57078,note_off,19,0,0,,6,,,66,127
57109,note_on,31,0,0,,2,,,74,127
57130,note_off,21,0,0,,10,,,69,127
57161,note_on,31,0,0,,6,,,78,127
57180,note_off,19,0,0,,2,,,74,127
57211,note_on,31,0,0,,10,,,81,127
57232,note_off,21,0,0,,6,,,78,127
57263,note_on,31,0,0,,2,,,74,127
57282,note_off,19,0,0,,10,,,81,127
57313,note_on,31,0,0,,6,,,78,127
57334,note_off,21,0,0,,2,,,74,127
57364,note_on,30,0,0,,10,,,81,127
57385,note_off,21,0,0,,6,,,78,127
57416,note_on,31,0,0,,2,,,86,127
57435,note_off,19,0,0,,10,,,81,127
57461,note_off,26,0,0,,10,,,57,127
57461,note_off,0,0,0,,6,,,54,127
57461,note_off,0,0,0,,2,,,50,127
57461,note_off,0,0,0,,10,,,45,127
57466,note_on,5,0,0,,1,,,85,127
57466,note_on,0,0,0,,10,,,45,127
57466,note_on,0,0,0,,4,,,52,127
57466,note_on,0,0,0,,10,,,57,127
57487,note_off,21,0,0,,2,,,86,127
57517,note_on,30,0,0,,10,,,81,127
57538,note_off,21,0,0,,1,,,85,127
57569,note_on,31,0,0,,4,,,76,127
57588,note_off,19,0,0,,10,,,81,127
57619,note_on,31,0,0,,1,,,73,127
57640,note_off,21,0,0,,4,,,76,127
57671,note_on,31,0,0,,10,,,69,127
57690,note_off,19,0,0,,1,,,73,127
57721,note_on,31,0,0,,4,,,64,127
57742,note_off,21,0,0,,10,,,69,127
57772,note_on,30,0,0,,10,,,69,127
57793,note_off,21,0,0,,4,,,64,127
57823,note_on,30,0,0,,1,,,73,127
57844,note_off,21,0,0,,10,,,69,127
57874,note_on,30,0,0,,4,,,76,127
57895,note_off,21,0,0,,1,,,73,127
57925,note_on,30,0,0,,10,,,69,127
57946,note_off,21,0,0,,4,,,76,127
57976,note_on,30,0,0,,1,,,73,127
57997,note_off,21,0,0,,10,,,69,127
58028,note_on,31,0,0,,4,,,76,127
58047,note_off,19,0,0,,1,,,73,127
58079,note_on,32,0,0,,10,,,81,127
58098,note_off,19,0,0,,4,,,76,127
58131,note_on,33,0,0,,4,,,76,127
58149,note_off,18,0,0,,10,,,81,127
58181,note_on,32,0,0,,10,,,81,127
58202,note_off,21,0,0,,4,,,76,127
58232,note_on,30,0,0,,1,,,85,127
58253,note_off,21,0,0,,10,,,81,127
58278,note_off,25,0,0,,10,,,57,127
58278,note_off,0,0,0,,4,,,52,127
58278,note_off,0,0,0,,10,,,45,127
58283,note_on,5,0,0,,2,,,86,127
58283,note_on,0,0,0,,10,,,45,127
58283,note_on,0,0,0,,2,,,50,127
58283,note_on,0,0,0,,6,,,54,127
58283,note_on,0,0,0,,10,,,57,127
58304,note_off,21,0,0,,1,,,85,127
58334,note_on,30,0,0,,10,,,81,127
58355,note_off,21,0,0,,2,,,86,127
58385,note_on,30,0,0,,6,,,78,127
58406,note_off,21,0,0,,10,,,81,127
58436,note_on,30,0,0,,2,,,74,127
58457,note_off,21,0,0,,6,,,78,127
58487,note_on,30,0,0,,10,,,69,127
58508,note_off,21,0,0,,2,,,74,127
58538,note_on,30,0,0,,6,,,66,127
58559,note_off,21,0,0,,10,,,69,127
58590,note_on,31,0,0,,2,,,62,127
58609,note_off,19,0,0,,6,,,66,127
58641,note_on,32,0,0,,6,,,66,127
58660,note_off,19,0,0,,2,,,62,127
58691,note_on,31,0,0,,10,,,69,127
58712,note_off,21,0,0,,6,,,66,127
58743,note_on,31,0,0,,2,,,74,127
58762,note_off,19,0,0,,10,,,69,127
58793,note_on,31,0,0,,6,,,78,127
58814,note_off,21,0,0,,2,,,74,127
58844,note_on,30,0,0,,10,,,81,127
58865,note_off,21,0,0,,6,,,78,127
58896,note_on,31,0,0,,2,,,74,127
58915,note_off,19,0,0,,10,,,81,127
58946,note_on,31,0,0,,6,,,78,127
58967,note_off,21,0,0,,2,,,74,127
58997,note_on,30,0,0,,10,,,81,127
59018,note_off,21,0,0,,6,,,78,127
59049,note_on,31,0,0,,2,,,86,127
59068,note_off,19,0,0,,10,,,81,127
59095,note_off,27,0,0,,10,,,57,127
59095,note_off,0,0,0,,6,,,54,127
59095,note_off,0,0,0,,2,,,50,127
59095,note_off,0,0,0,,10,,,45,127
59098,note_on,3,0,0,,1,,,85,127
59098,note_on,0,0,0,,10,,,45,127
59098,note_on,0,0,0,,4,,,52,127
59098,note_on,0,0,0,,10,,,57,127
59119,note_off,21,0,0,,2,,,86,127
59149,note_on,30,0,0,,10,,,81,127
59170,note_off,21,0,0,,1,,,85,127
59201,note_on,31,0,0,,4,,,76,127
59220,note_off,19,0,0,,10,,,81,127
59251,note_on,31,0,0,,1,,,73,127
59272,note_off,21,0,0,,4,,,76,127
59302,note_on,30,0,0,,10,,,69,127
59323,note_off,21,0,0,,1,,,73,127
59353,note_on,30,0,0,,4,,,64,127
59374,note_off,21,0,0,,10,,,69,127
59405,note_on,31,0,0,,1,,,61,127
59424,note_off,19,0,0,,4,,,64,127
59450,note_off,26,0,0,,10,,,57,127
59455,note_on,5,0,0,,10,,,57,127
59476,note_off,21,0,0,,1,,,61,127
59501,note_off,25,0,0,,4,,,52,127
59507,note_on,6,0,0,,4,,,52,127
59557,note_on,50,0,0,,1,,,49,127
59605,note_off,48,0,0,,10,,,45,127
59607,note_on,2,0,0,,10,,,45,127
59628,note_off,21,0,0,,1,,,49,127
59658,note_on,30,0,0,,4,,,40,127
59709,note_on,51,0,0,,10,,,33,127
59728,note_off,19,0,0,,4,,,40,127
61141,note_off,1413,0,0,,10,,,33,127
61141,note_off,0,0,0,,10,,,45,127
61141,note_off,0,0,0,,4,,,52,127
61141,note_off,0,0,0,,10,,,57,127
61598,note_on,457,0,0,,0,,,72,127
61598,note_on,0,0,0,,5,,,53,127
61598,note_on,0,0,0,,0,,,48,127
61598,note_on,0,0,0,,5,,,41,127
61640,note_on,42,0,0,,5,,,77,127
61678,note_off,38,0,0,,0,,,72,127
61686,note_on,8,0,0,,10,,,81,127
61720,note_off,34,0,0,,5,,,77,127
61730,note_on,10,0,0,,0,,,84,127
61765,note_off,35,0,0,,10,,,81,127
61774,note_on,9,0,0,,10,,,81,127
61809,note_off,35,0,0,,0,,,84,127
61818,note_on,9,0,0,,5,,,77,127
61853,note_off,35,0,0,,10,,,81,127
61863,note_on,10,0,0,,0,,,72,127
61897,note_off,34,0,0,,5,,,77,127
61907,note_on,10,0,0,,10,,,69,127
61942,note_off,35,0,0,,0,,,72,127
61951,note_on,9,0,0,,5,,,65,127
61986,note_off,35,0,0,,10,,,69,127
61996,note_on,10,0,0,,10,,,69,127
62030,note_off,34,0,0,,5,,,65,127
62039,note_on,9,0,0,,0,,,72,127
62076,note_off,37,0,0,,10,,,69,127
62085,note_on,9,0,0,,5,,,77,127
62119,note_off,34,0,0,,0,,,72,127
62128,note_on,9,0,0,,0,,,72,127
62165,note_off,37,0,0,,5,,,77,127
62174,note_on,9,0,0,,5,,,77,127
62208,note_off,34,0,0,,0,,,72,127
62218,note_on,10,0,0,,10,,,81,127
62253,note_off,35,0,0,,5,,,77,127
62262,note_on,9,0,0,,0,,,84,127
62297,note_off,35,0,0,,10,,,81,127
62306,note_on,9,0,0,,10,,,81,127
62341,note_off,35,0,0,,0,,,84,127
62351,note_on,10,0,0,,5,,,77,127
62385,note_off,34,0,0,,10,,,81,127
62396,note_on,11,0,0,,0,,,72,127
62430,note_off,34,0,0,,5,,,77,127
62439,note_on,9,0,0,,5,,,77,127
62476,note_off,37,0,0,,0,,,72,127
62485,note_on,9,0,0,,10,,,81,127
62519,note_off,34,0,0,,5,,,77,127
62528,note_on,9,0,0,,0,,,84,127
62565,note_off,37,0,0,,10,,,81,127
62573,note_off,8,0,0,,5,,,41,127
62573,note_off,0,0,0,,0,,,48,127
62573,note_off,0,0,0,,5,,,53,127
62584,note_on,11,0,0,,2,,,74,127
62584,note_on,0,0,0,,5,,,53,127
62584,note_on,0,0,0,,2,,,50,127
62584,note_on,0,0,0,,11,,,46,127
62584,note_on,0,0,0,,5,,,41,127
62608,note_off,24,0,0,,0,,,84,127
62629,note_on,21,0,0,,5,,,77,127
62664,note_off,35,0,0,,2,,,74,127
62673,note_on,9,0,0,,11,,,82,127
62708,note_off,35,0,0,,5,,,77,127
62717,note_on,9,0,0,,2,,,86,127
62752,note_off,35,0,0,,11,,,82,127
62762,note_on,10,0,0,,11,,,82,127
62796,note_off,34,0,0,,2,,,86,127
62805,note_on,9,0,0,,5,,,77,127
62842,note_off,37,0,0,,11,,,82,127
62850,note_on,8,0,0,,2,,,74,127
62885,note_off,35,0,0,,5,,,77,127
62894,note_on,9,0,0,,11,,,70,127
62929,note_off,35,0,0,,2,,,74,127
62939,note_on,10,0,0,,5,,,65,127
62973,note_off,34,0,0,,11,,,70,127
62983,note_on,10,0,0,,11,,,70,127
63018,note_off,35,0,0,,5,,,65,127
63027,note_on,9,0,0,,2,,,74,127
63062,note_off,35,0,0,,11,,,70,127
63072,note_on,10,0,0,,5,,,77,127
63106,note_off,34,0,0,,2,,,74,127
63116,note_on,10,0,0,,2,,,74,127
63151,note_off,35,0,0,,5,,,77,127
63160,note_on,9,0,0,,5,,,77,127
63195,note_off,35,0,0,,2,,,74,127
63204,note_on,9,0,0,,11,,,82,127
63239,note_off,35,0,0,,5,,,77,127
63249,note_on,10,0,0,,2,,,86,127
63283,note_off,34,0,0,,11,,,82,127
63292,note_on,9,0,0,,11,,,82,127
63329,note_off,37,0,0,,2,,,86,127
63337,note_on,8,0,0,,5,,,77,127
63372,note_off,35,0,0,,11,,,82,127
63382,note_on,10,0,0,,2,,,74,127
63416,note_off,34,0,0,,5,,,77,127
63426,note_on,10,0,0,,5,,,77,127
63461,note_off,35,0,0,,2,,,74,127
63470,note_on,9,0,0,,11,,,82,127
63505,note_off,35,0,0,,5,,,77,127
63514,note_on,9,0,0,,2,,,86,127
63549,note_off,35,0,0,,11,,,82,127
63557,note_off,8,0,0,,5,,,41,127
63557,note_off,0,0,0,,11,,,46,127
63557,note_off,0,0,0,,2,,,50,127
63557,note_off,0,0,0,,5,,,53,127
63568,note_on,11,0,0,,0,,,72,127
63568,note_on,0,0,0,,5,,,53,127
63568,note_on,0,0,0,,0,,,48,127
63568,note_on,0,0,0,,5,,,41,127
63593,note_off,25,0,0,,2,,,86,127
63612,note_on,19,0,0,,5,,,77,127
63647,note_off,35,0,0,,0,,,72,127
63657,note_on,10,0,0,,10,,,81,127
63691,note_off,34,0,0,,5,,,77,127
63700,note_on,9,0,0,,0,,,84,127
63737,note_off,37,0,0,,10,,,81,127
63746,note_on,9,0,0,,10,,,81,127
63780,note_off,34,0,0,,0,,,84,127
63790,note_on,10,0,0,,5,,,77,127
63825,note_off,35,0,0,,10,,,81,127
63835,note_on,10,0,0,,0,,,72,127
63869,note_off,34,0,0,,5,,,77,127
63878,note_on,9,0,0,,10,,,69,127
63915,note_off,37,0,0,,0,,,72,127
63924,note_on,9,0,0,,5,,,65,127
63958,note_off,34,0,0,,10,,,69,127
63969,note_on,11,0,0,,10,,,69,127
64003,note_off,34,0,0,,5,,,65,127
64013,note_on,10,0,0,,0,,,72,127
64048,note_off,35,0,0,,10,,,69,127
64056,note_on,8,0,0,,5,,,77,127
64093,note_off,37,0,0,,0,,,72,127
64101,note_on,8,0,0,,0,,,72,127
64136,note_off,35,0,0,,5,,,77,127
64146,note_on,10,0,0,,5,,,77,127
64180,note_off,34,0,0,,0,,,72,127
64189,note_on,9,0,0,,10,,,81,127
64226,note_off,37,0,0,,5,,,77,127
64235,note_on,9,0,0,,0,,,84,127
64269,note_off,34,0,0,,10,,,81,127
64279,note_on,10,0,0,,10,,,81,127
64314,note_off,35,0,0,,0,,,84,127
64324,note_on,10,0,0,,5,,,77,127
64358,note_off,34,0,0,,10,,,81,127
64368,note_on,10,0,0,,0,,,72,127
64403,note_off,35,0,0,,5,,,77,127
64412,note_on,9,0,0,,5,,,77,127
64447,note_off,35,0,0,,0,,,72,127
64457,note_on,10,0,0,,10,,,81,127
64491,note_off,34,0,0,,5,,,77,127
64500,note_on,9,0,0,,0,,,84,127
64537,note_off,37,0,0,,10,,,81,127
64543,note_off,6,0,0,,5,,,41,127
64543,note_off,0,0,0,,0,,,48,127
64543,note_off,0,0,0,,5,,,53,127
64557,note_on,14,0,0,,2,,,74,127
64557,note_on,0,0,0,,5,,,53,127
64557,note_on,0,0,0,,2,,,50,127
64557,note_on,0,0,0,,11,,,46,127
64557,note_on,0,0,0,,5,,,41,127
64581,note_off,24,0,0,,0,,,84,127
64646,note_on,65,0,0,,11,,,82,127
64687,note_off,41,0,0,,2,,,74,127
64690,note_on,3,0,0,,2,,,86,127
64725,note_off,35,0,0,,11,,,82,127
64735,note_on,10,0,0,,11,,,82,127
64769,note_off,34,0,0,,2,,,86,127
64777,note_on,8,0,0,,5,,,77,127
64815,note_off,38,0,0,,11,,,82,127
64823,note_on,8,0,0,,2,,,74,127
64857,note_off,34,0,0,,5,,,77,127
64867,note_on,10,0,0,,11,,,70,127
64902,note_off,35,0,0,,2,,,74,127
64912,note_on,10,0,0,,5,,,65,127
64946,note_off,34,0,0,,11,,,70,127
64956,note_on,10,0,0,,11,,,70,127
64991,note_off,35,0,0,,5,,,65,127
65000,note_on,9,0,0,,2,,,74,127
65035,note_off,35,0,0,,11,,,70,127
65045,note_on,10,0,0,,5,,,77,127
65079,note_off,34,0,0,,2,,,74,127
65088,note_on,9,0,0,,2,,,74,127
65125,note_off,37,0,0,,5,,,77,127
65134,note_on,9,0,0,,5,,,77,127
65168,note_off,34,0,0,,2,,,74,127
65178,note_on,10,0,0,,11,,,82,127
65213,note_off,35,0,0,,5,,,77,127
65223,note_on,10,0,0,,2,,,86,127
65257,note_off,34,0,0,,11,,,82,127
65265,note_on,8,0,0,,11,,,82,127
65303,note_off,38,0,0,,2,,,86,127
65311,note_on,8,0,0,,5,,,77,127
65345,note_off,34,0,0,,11,,,82,127
65356,note_on,11,0,0,,2,,,74,127
65390,note_off,34,0,0,,5,,,77,127
65400,note_on,10,0,0,,5,,,77,127
65435,note_off,35,0,0,,2,,,74,127
65444,note_on,9,0,0,,11,,,82,127
65479,note_off,35,0,0,,5,,,77,127
65488,note_on,9,0,0,,2,,,86,127
65523,note_off,35,0,0,,11,,,82,127
65531,note_off,8,0,0,,5,,,41,127
65531,note_off,0,0,0,,11,,,46,127
65531,note_off,0,0,0,,2,,,50,127
65531,note_off,0,0,0,,5,,,53,127
65544,note_on,13,0,0,,0,,,84,127
65544,note_on,0,0,0,,5,,,53,127
65544,note_on,0,0,0,,0,,,48,127
65544,note_on,0,0,0,,5,,,41,127
65568,note_off,24,0,0,,2,,,86,127
65593,note_on,25,0,0,,10,,,81,127
65624,note_off,31,0,0,,0,,,84,127
65643,note_on,19,0,0,,5,,,77,127
65673,note_off,30,0,0,,10,,,81,127
65692,note_on,19,0,0,,0,,,72,127
65723,note_off,31,0,0,,5,,,77,127
65742,note_on,19,0,0,,10,,,69,127
65772,note_off,30,0,0,,0,,,72,127
65794,note_on,22,0,0,,5,,,65,127
65823,note_off,29,0,0,,10,,,69,127
65845,note_on,22,0,0,,0,,,60,127
65875,note_off,30,0,0,,5,,,65,127
65894,note_on,19,0,0,,10,,,57,127
65925,note_off,31,0,0,,0,,,60,127
65938,note_off,13,0,0,,5,,,53,127
65946,note_on,8,0,0,,5,,,53,127
65975,note_off,29,0,0,,10,,,57,127
65986,note_off,11,0,0,,0,,,48,127
65994,note_on,8,0,0,,0,,,48,127
66045,note_on,51,0,0,,10,,,45,127
66086,note_off,41,0,0,,5,,,41,127
66094,note_on,8,0,0,,5,,,41,127
66125,note_off,31,0,0,,10,,,45,127
66144,note_on,19,0,0,,0,,,36,127
66194,note_on,50,0,0,,10,,,33,127
66224,note_off,30,0,0,,0,,,36,127
66295,note_on,71,0,0,,5,,,29,127
66338,note_off,43,0,0,,10,,,33,127
67096,note_off,758,0,0,,0,,,48,127
67579,note_off,483,0,0,,5,,,53,127
68146,note_off,567,0,0,,5,,,41,127
68457,note_off,311,0,0,,5,,,29,127
69024,note_on,567,0,0,,5,,,65,127
69242,note_off,218,0,0,,5,,,65,127
69243,note_on,1,0,0,,8,,,80,127
69243,note_on,0,0,0,,0,,,72,127
69243,note_on,0,0,0,,5,,,65,127
69461,note_off,218,0,0,,5,,,65,127
69461,note_off,0,0,0,,0,,,72,127
69461,note_off,0,0,0,,8,,,80,127
69462,note_on,1,0,0,,11,,,82,127
69462,note_on,0,0,0,,0,,,72,127
69462,note_on,0,0,0,,5,,,65,127
69517,note_on,55,0,0,,8,,,80,127
69535,note_off,18,0,0,,11,,,82,127
69572,note_on,37,0,0,,11,,,82,127
69590,note_off,18,0,0,,8,,,80,127
69627,note_on,37,0,0,,8,,,80,127
69645,note_off,18,0,0,,11,,,82,127
69680,note_off,35,0,0,,5,,,65,127
69680,note_off,0,0,0,,0,,,72,127
69681,note_on,1,0,0,,11,,,82,127
69681,note_on,0,0,0,,5,,,65,127
69681,note_on,0,0,0,,0,,,72,127
69699,note_off,18,0,0,,8,,,80,127
69736,note_on,37,0,0,,8,,,80,127
69754,note_off,18,0,0,,11,,,82,127
69791,note_on,37,0,0,,11,,,82,127
69809,note_off,18,0,0,,8,,,80,127
69846,note_on,37,0,0,,8,,,80,127
69864,note_off,18,0,0,,11,,,82,127
69899,note_off,35,0,0,,0,,,72,127
69899,note_off,0,0,0,,5,,,65,127
69900,note_on,1,0,0,,1,,,61,127
69900,note_on,0,0,0,,8,,,68,127
70118,note_off,218,0,0,,8,,,68,127
70118,note_off,0,0,0,,1,,,61,127
70118,note_off,0,0,0,,8,,,80,127
70119,note_on,1,0,0,,5,,,77,127
70119,note_on,0,0,0,,8,,,68,127
70119,note_on,0,0,0,,1,,,61,127
70337,note_off,218,0,0,,1,,,61,127
70337,note_off,0,0,0,,8,,,68,127
70337,note_off,0,0,0,,5,,,77,127
70338,note_on,1,0,0,,7,,,79,127
70338,note_on,0,0,0,,8,,,68,127
70338,note_on,0,0,0,,1,,,61,127
70393,note_on,55,0,0,,5,,,77,127
70411,note_off,18,0,0,,7,,,79,127
70448,note_on,37,0,0,,7,,,79,127
70466,note_off,18,0,0,,5,,,77,127
70503,note_on,37,0,0,,5,,,77,127
70521,note_off,18,0,0,,7,,,79,127
70556,note_off,35,0,0,,1,,,61,127
70556,note_off,0,0,0,,8,,,68,127
70557,note_on,1,0,0,,7,,,79,127
70557,note_on,0,0,0,,8,,,68,127
70557,note_on,0,0,0,,1,,,61,127
70575,note_off,18,0,0,,5,,,77,127
70612,note_on,37,0,0,,5,,,77,127
70630,note_off,18,0,0,,7,,,79,127
70667,note_on,37,0,0,,7,,,79,127
70685,note_off,18,0,0,,5,,,77,127
70722,note_on,37,0,0,,5,,,77,127
70740,note_off,18,0,0,,7,,,79,127
70775,note_off,35,0,0,,1,,,61,127
70775,note_off,0,0,0,,8,,,68,127
70776,note_on,1,0,0,,5,,,65,127
70776,note_on,0,0,0,,11,,,58,127
70994,note_off,218,0,0,,11,,,58,127
70994,note_off,0,0,0,,5,,,65,127
70994,note_off,0,0,0,,5,,,77,127
70995,note_on,1,0,0,,1,,,73,127
70995,note_on,0,0,0,,11,,,58,127
70995,note_on,0,0,0,,5,,,65,127
71213,note_off,218,0,0,,5,,,65,127
71213,note_off,0,0,0,,11,,,58,127
71213,note_off,0,0,0,,1,,,73,127
71214,note_on,1,0,0,,3,,,75,127
71214,note_on,0,0,0,,5,,,65,127
71214,note_on,0,0,0,,11,,,58,127
71269,note_on,55,0,0,,1,,,73,127
71287,note_off,18,0,0,,3,,,75,127
71324,note_on,37,0,0,,3,,,75,127
71342,note_off,18,0,0,,1,,,73,127
71379,note_on,37,0,0,,1,,,73,127
71397,note_off,18,0,0,,3,,,75,127
71432,note_off,35,0,0,,11,,,58,127
71432,note_off,0,0,0,,5,,,65,127
71433,note_on,1,0,0,,3,,,75,127
71433,note_on,0,0,0,,5,,,65,127
71433,note_on,0,0,0,,11,,,58,127
71451,note_off,18,0,0,,1,,,73,127
71488,note_on,37,0,0,,1,,,73,127
71506,note_off,18,0,0,,3,,,75,127
71543,note_on,37,0,0,,3,,,75,127
71561,note_off,18,0,0,,1,,,73,127
71598,note_on,37,0,0,,1,,,73,127
71616,note_off,18,0,0,,3,,,75,127
71651,note_off,35,0,0,,11,,,58,127
71651,note_off,0,0,0,,5,,,65,127
71652,note_on,1,0,0,,6,,,54,127
71652,note_on,0,0,0,,1,,,61,127
71870,note_off,218,0,0,,1,,,61,127
71870,note_off,0,0,0,,6,,,54,127
71870,note_off,0,0,0,,1,,,73,127
71871,note_on,1,0,0,,11,,,70,127
71871,note_on,0,0,0,,6,,,54,127
71871,note_on,0,0,0,,1,,,61,127
72089,note_off,218,0,0,,1,,,61,127
72089,note_off,0,0,0,,6,,,54,127
72089,note_off,0,0,0,,11,,,70,127
72090,note_on,1,0,0,,0,,,72,127
72090,note_on,0,0,0,,6,,,54,127
72090,note_on,0,0,0,,1,,,61,127
72145,note_on,55,0,0,,11,,,70,127
72163,note_off,18,0,0,,0,,,72,127
72200,note_on,37,0,0,,0,,,72,127
72218,note_off,18,0,0,,11,,,70,127
72255,note_on,37,0,0,,11,,,70,127
72273,note_off,18,0,0,,0,,,72,127
72308,note_off,35,0,0,,1,,,61,127
72308,note_off,0,0,0,,6,,,54,127
72309,note_on,1,0,0,,0,,,72,127
72309,note_on,0,0,0,,6,,,54,127
72309,note_on,0,0,0,,1,,,61,127
72327,note_off,18,0,0,,11,,,70,127
72364,note_on,37,0,0,,11,,,70,127
72382,note_off,18,0,0,,0,,,72,127
72419,note_on,37,0,0,,0,,,72,127
72437,note_off,18,0,0,,11,,,70,127
72474,note_on,37,0,0,,11,,,70,127
72492,note_off,18,0,0,,0,,,72,127
72527,note_off,35,0,0,,1,,,61,127
72527,note_off,0,0,0,,6,,,54,127
72528,note_on,1,0,0,,11,,,58,127
72528,note_on,0,0,0,,3,,,51,127
72746,note_off,218,0,0,,3,,,51,127
72746,note_off,0,0,0,,11,,,58,127
72746,note_off,0,0,0,,11,,,70,127
72747,note_on,1,0,0,,6,,,66,127
72747,note_on,0,0,0,,3,,,51,127
72747,note_on,0,0,0,,11,,,58,127
72965,note_off,218,0,0,,11,,,58,127
72965,note_off,0,0,0,,3,,,51,127
72965,note_off,0,0,0,,6,,,66,127
72966,note_on,1,0,0,,8,,,68,127
72966,note_on,0,0,0,,11,,,58,127
72966,note_on,0,0,0,,3,,,51,127
73021,note_on,55,0,0,,6,,,66,127
73039,note_off,18,0,0,,8,,,68,127
73076,note_on,37,0,0,,8,,,68,127
73094,note_off,18,0,0,,6,,,66,127
73131,note_on,37,0,0,,6,,,66,127
73149,note_off,18,0,0,,8,,,68,127
73184,note_off,35,0,0,,3,,,51,127
73184,note_off,0,0,0,,11,,,58,127
73185,note_on,1,0,0,,8,,,68,127
73185,note_on,0,0,0,,3,,,51,127
73185,note_on,0,0,0,,11,,,58,127
73203,note_off,18,0,0,,6,,,66,127
73240,note_on,37,0,0,,6,,,66,127
73258,note_off,18,0,0,,8,,,68,127
73295,note_on,37,0,0,,8,,,68,127
73313,note_off,18,0,0,,6,,,66,127
73350,note_on,37,0,0,,6,,,66,127
73368,note_off,18,0,0,,8,,,68,127
73403,note_off,35,0,0,,11,,,58,127
73403,note_off,0,0,0,,3,,,51,127
73404,note_on,1,0,0,,6,,,54,127
73404,note_on,0,0,0,,12,,,47,127
73622,note_off,218,0,0,,12,,,47,127
73622,note_off,0,0,0,,6,,,54,127
73622,note_off,0,0,0,,6,,,66,127
73623,note_on,1,0,0,,3,,,63,127
73623,note_on,0,0,0,,6,,,54,127
73623,note_on,0,0,0,,12,,,47,127
73841,note_off,218,0,0,,12,,,47,127
73841,note_off,0,0,0,,6,,,54,127
73841,note_off,0,0,0,,3,,,63,127
73842,note_on,1,0,0,,5,,,65,127
73842,note_on,0,0,0,,6,,,54,127
73842,note_on,0,0,0,,12,,,47,127
73897,note_on,55,0,0,,3,,,63,127
73915,note_off,18,0,0,,5,,,65,127
73952,note_on,37,0,0,,5,,,65,127
73970,note_off,18,0,0,,3,,,63,127
74007,note_on,37,0,0,,3,,,63,127
74025,note_off,18,0,0,,5,,,65,127
74060,note_off,35,0,0,,12,,,47,127
74060,note_off,0,0,0,,6,,,54,127
74061,note_on,1,0,0,,5,,,65,127
74061,note_on,0,0,0,,12,,,47,127
74061,note_on,0,0,0,,6,,,54,127
74079,note_off,18,0,0,,3,,,63,127
74116,note_on,37,0,0,,3,,,63,127
74134,note_off,18,0,0,,5,,,65,127
74171,note_on,37,0,0,,5,,,65,127
74189,note_off,18,0,0,,3,,,63,127
74226,note_on,37,0,0,,3,,,63,127
74244,note_off,18,0,0,,5,,,65,127
74279,note_off,35,0,0,,6,,,54,127
74279,note_off,0,0,0,,12,,,47,127
74280,note_on,1,0,0,,5,,,65,127
74280,note_on,0,0,0,,12,,,47,127
74280,note_on,0,0,0,,8,,,56,127
74298,note_off,18,0,0,,3,,,63,127
74335,note_on,37,0,0,,3,,,63,127
74353,note_off,18,0,0,,5,,,65,127
74390,note_on,37,0,0,,5,,,65,127
74408,note_off,18,0,0,,3,,,63,127
74445,note_on,37,0,0,,3,,,63,127
74463,note_off,18,0,0,,5,,,65,127
74498,note_off,35,0,0,,8,,,56,127
74498,note_off,0,0,0,,12,,,47,127
74499,note_on,1,0,0,,5,,,65,127
74499,note_on,0,0,0,,12,,,47,127
74499,note_on,0,0,0,,8,,,56,127
74517,note_off,18,0,0,,3,,,63,127
74554,note_on,37,0,0,,3,,,63,127
74572,note_off,18,0,0,,5,,,65,127
74609,note_on,37,0,0,,5,,,65,127
74627,note_off,18,0,0,,3,,,63,127
74664,note_on,37,0,0,,3,,,63,127
74682,note_off,18,0,0,,5,,,65,127
74717,note_off,35,0,0,,8,,,56,127
74717,note_off,0,0,0,,12,,,47,127
74718,note_on,1,0,0,,5,,,65,127
74718,note_on,0,0,0,,12,,,47,127
74718,note_on,0,0,0,,10,,,57,127
74736,note_off,18,0,0,,3,,,63,127
74773,note_on,37,0,0,,3,,,63,127
74791,note_off,18,0,0,,5,,,65,127
74828,note_on,37,0,0,,5,,,65,127
74846,note_off,18,0,0,,3,,,63,127
74883,note_on,37,0,0,,3,,,63,127
74901,note_off,18,0,0,,5,,,65,127
74936,note_off,35,0,0,,10,,,57,127
74936,note_off,0,0,0,,12,,,47,127
74937,note_on,1,0,0,,5,,,65,127
74937,note_on,0,0,0,,12,,,47,127
74937,note_on,0,0,0,,10,,,57,127
74955,note_off,18,0,0,,3,,,63,127
74992,note_on,37,0,0,,3,,,63,127
75010,note_off,18,0,0,,5,,,65,127
75047,note_on,37,0,0,,5,,,65,127
75065,note_off,18,0,0,,3,,,63,127
75102,note_on,37,0,0,,3,,,63,127
75120,note_off,18,0,0,,5,,,65,127
75155,note_off,35,0,0,,10,,,57,127
75155,note_off,0,0,0,,12,,,47,127
75156,note_on,1,0,0,,5,,,65,127
75156,note_on,0,0,0,,11,,,46,127
75156,note_on,0,0,0,,11,,,58,127
75165,note_off,9,0,0,,3,,,63,127
75264,note_off,99,0,0,,5,,,65,127
75265,note_on,1,0,0,,3,,,63,127
75374,note_off,109,0,0,,3,,,63,127
75375,note_on,1,0,0,,2,,,62,127
75484,note_off,109,0,0,,2,,,62,127
75485,note_on,1,0,0,,3,,,63,127
75594,note_off,109,0,0,,3,,,63,127
75595,note_on,1,0,0,,5,,,65,127
75813,note_off,218,0,0,,5,,,65,127
75814,note_on,1,0,0,,11,,,70,127
76032,note_off,218,0,0,,11,,,70,127
76033,note_on,1,0,0,,0,,,72,127
76088,note_on,55,0,0,,11,,,70,127
76106,note_off,18,0,0,,0,,,72,127
76143,note_on,37,0,0,,0,,,72,127
76161,note_off,18,0,0,,11,,,70,127
76198,note_on,37,0,0,,11,,,70,127
76216,note_off,18,0,0,,0,,,72,127
76251,note_off,35,0,0,,11,,,58,127
76251,note_off,0,0,0,,11,,,46,127
76252,note_on,1,0,0,,0,,,72,127
76252,note_on,0,0,0,,7,,,67,127
76252,note_on,0,0,0,,3,,,63,127
76270,note_off,18,0,0,,11,,,70,127
76307,note_on,37,0,0,,11,,,70,127
76325,note_off,18,0,0,,0,,,72,127
76362,note_on,37,0,0,,0,,,72,127
76380,note_off,18,0,0,,11,,,70,127
76417,note_on,37,0,0,,11,,,70,127
76435,note_off,18,0,0,,0,,,72,127
76470,note_off,35,0,0,,3,,,63,127
76470,note_off,0,0,0,,7,,,67,127
76471,note_on,1,0,0,,0,,,72,127
76471,note_on,0,0,0,,5,,,65,127
76471,note_on,0,0,0,,2,,,62,127
76489,note_off,18,0,0,,11,,,70,127
76526,note_on,37,0,0,,11,,,70,127
76544,note_off,18,0,0,,0,,,72,127
76581,note_on,37,0,0,,0,,,72,127
76599,note_off,18,0,0,,11,,,70,127
76636,note_on,37,0,0,,11,,,70,127
76654,note_off,18,0,0,,0,,,72,127
76689,note_off,35,0,0,,2,,,62,127
76689,note_off,0,0,0,,5,,,65,127
76690,note_on,1,0,0,,0,,,72,127
76690,note_on,0,0,0,,5,,,65,127
76690,note_on,0,0,0,,2,,,62,127
76708,note_off,18,0,0,,11,,,70,127
76745,note_on,37,0,0,,11,,,70,127
76763,note_off,18,0,0,,0,,,72,127
76800,note_on,37,0,0,,0,,,72,127
76818,note_off,18,0,0,,11,,,70,127
76855,note_on,37,0,0,,11,,,70,127
76873,note_off,18,0,0,,0,,,72,127
76908,note_off,35,0,0,,2,,,62,127
76908,note_off,0,0,0,,5,,,65,127
76909,note_on,1,0,0,,0,,,72,127
76909,note_on,0,0,0,,3,,,63,127
76909,note_on,0,0,0,,7,,,67,127
76927,note_off,18,0,0,,11,,,70,127
76964,note_on,37,0,0,,11,,,70,127
76982,note_off,18,0,0,,0,,,72,127
77019,note_on,37,0,0,,0,,,72,127
77037,note_off,18,0,0,,11,,,70,127
77074,note_on,37,0,0,,11,,,70,127
77092,note_off,18,0,0,,0,,,72,127
77127,note_off,35,0,0,,7,,,67,127
77127,note_off,0,0,0,,3,,,63,127
77128,note_on,1,0,0,,0,,,72,127
77128,note_on,0,0,0,,3,,,63,127
77128,note_on,0,0,0,,7,,,67,127
77146,note_off,18,0,0,,11,,,70,127
77183,note_on,37,0,0,,11,,,70,127
77201,note_off,18,0,0,,0,,,72,127
77238,note_on,37,0,0,,0,,,72,127
77256,note_off,18,0,0,,11,,,70,127
77293,note_on,37,0,0,,11,,,70,127
77311,note_off,18,0,0,,0,,,72,127
77346,note_off,35,0,0,,7,,,67,127
77346,note_off,0,0,0,,3,,,63,127
77347,note_on,1,0,0,,0,,,72,127
77347,note_on,0,0,0,,2,,,62,127
77347,note_on,0,0,0,,5,,,65,127
77365,note_off,18,0,0,,11,,,70,127
77402,note_on,37,0,0,,12,,,71,127
77420,note_off,18,0,0,,0,,,72,127
77457,note_on,37,0,0,,0,,,72,127
77475,note_off,18,0,0,,12,,,71,127
77512,note_on,37,0,0,,12,,,71,127
77530,note_off,18,0,0,,0,,,72,127
77565,note_off,35,0,0,,5,,,65,127
77565,note_off,0,0,0,,2,,,62,127
77566,note_on,1,0,0,,0,,,72,127
77566,note_on,0,0,0,,2,,,62,127
77566,note_on,0,0,0,,7,,,67,127
77584,note_off,18,0,0,,12,,,71,127
77621,note_on,37,0,0,,12,,,71,127
77639,note_off,18,0,0,,0,,,72,127
77676,note_on,37,0,0,,0,,,72,127
77694,note_off,18,0,0,,12,,,71,127
77731,note_on,37,0,0,,12,,,71,127
77749,note_off,18,0,0,,0,,,72,127
77784,note_off,35,0,0,,7,,,67,127
77784,note_off,0,0,0,,2,,,62,127
77785,note_on,1,0,0,,2,,,74,127
77785,note_on,0,0,0,,0,,,60,127
77785,note_on,0,0,0,,8,,,68,127
77785,note_on,0,0,0,,5,,,65,127
77803,note_off,18,0,0,,12,,,71,127
77840,note_on,37,0,0,,0,,,72,127
77858,note_off,18,0,0,,2,,,74,127
77895,note_on,37,0,0,,2,,,74,127
77913,note_off,18,0,0,,0,,,72,127
77950,note_on,37,0,0,,0,,,72,127
77968,note_off,18,0,0,,2,,,74,127
78003,note_off,35,0,0,,5,,,65,127
78003,note_off,0,0,0,,8,,,68,127
78003,note_off,0,0,0,,0,,,60,127
78004,note_on,1,0,0,,2,,,74,127
78004,note_on,0,0,0,,0,,,60,127
78004,note_on,0,0,0,,8,,,68,127
78004,note_on,0,0,0,,5,,,65,127
78022,note_off,18,0,0,,0,,,72,127
78059,note_on,37,0,0,,0,,,72,127
78077,note_off,18,0,0,,2,,,74,127
78114,note_on,37,0,0,,2,,,74,127
78132,note_off,18,0,0,,0,,,72,127
78169,note_on,37,0,0,,0,,,72,127
78187,note_off,18,0,0,,2,,,74,127
78222,note_off,35,0,0,,5,,,65,127
78222,note_off,0,0,0,,8,,,68,127
78222,note_off,0,0,0,,0,,,60,127
78223,note_on,1,0,0,,2,,,74,127
78223,note_on,0,0,0,,12,,,59,127
78223,note_on,0,0,0,,5,,,65,127
78223,note_on,0,0,0,,7,,,67,127
78241,note_off,18,0,0,,0,,,72,127
78331,note_off,90,0,0,,2,,,74,127
78332,note_on,1,0,0,,3,,,75,127
78441,note_off,109,0,0,,3,,,75,127
78441,note_off,0,0,0,,7,,,67,127
78441,note_off,0,0,0,,5,,,65,127
78441,note_off,0,0,0,,12,,,59,127
78442,note_on,1,0,0,,5,,,77,127
78442,note_on,0,0,0,,12,,,59,127
78442,note_on,0,0,0,,7,,,67,127
78442,note_on,0,0,0,,5,,,65,127
78660,note_off,218,0,0,,5,,,65,127
78660,note_off,0,0,0,,7,,,67,127
78660,note_off,0,0,0,,12,,,59,127
78660,note_off,0,0,0,,5,,,77,127
78661,note_on,1,0,0,,3,,,75,127
78661,note_on,0,0,0,,7,,,67,127
78661,note_on,0,0,0,,0,,,60,127
78733,note_off,72,0,0,,3,,,75,127
78734,note_on,1,0,0,,2,,,74,127
78806,note_off,72,0,0,,2,,,74,127
78807,note_on,1,0,0,,0,,,72,127
78879,note_off,72,0,0,,0,,,72,127
78880,note_on,1,0,0,,3,,,75,127
79099,note_on,219,0,0,,5,,,77,127
79102,note_off,3,0,0,,3,,,75,127
79153,note_on,51,0,0,,3,,,75,127
79171,note_off,18,0,0,,5,,,77,127
79208,note_on,37,0,0,,5,,,77,127
79226,note_off,18,0,0,,3,,,75,127
79263,note_on,37,0,0,,3,,,75,127
79281,note_off,18,0,0,,5,,,77,127
79316,note_off,35,0,0,,0,,,60,127
79316,note_off,0,0,0,,7,,,67,127
79317,note_on,1,0,0,,5,,,77,127
79317,note_on,0,0,0,,8,,,68,127
79317,note_on,0,0,0,,0,,,72,127
79335,note_off,18,0,0,,3,,,75,127
79372,note_on,37,0,0,,3,,,75,127
79390,note_off,18,0,0,,5,,,77,127
79427,note_on,37,0,0,,5,,,77,127
79445,note_off,18,0,0,,3,,,75,127
79482,note_on,37,0,0,,3,,,75,127
79500,note_off,18,0,0,,5,,,77,127
79535,note_off,35,0,0,,0,,,72,127
79535,note_off,0,0,0,,8,,,68,127
79536,note_on,1,0,0,,5,,,77,127
79536,note_on,0,0,0,,0,,,72,127
79536,note_on,0,0,0,,8,,,68,127
79554,note_off,18,0,0,,3,,,75,127
79591,note_on,37,0,0,,3,,,75,127
79609,note_off,18,0,0,,5,,,77,127
79646,note_on,37,0,0,,5,,,77,127
79664,note_off,18,0,0,,3,,,75,127
79701,note_on,37,0,0,,3,,,75,127
79719,note_off,18,0,0,,5,,,77,127
79754,note_off,35,0,0,,8,,,68,127
79754,note_off,0,0,0,,0,,,72,127
79755,note_on,1,0,0,,5,,,77,127
79755,note_on,0,0,0,,8,,,68,127
79755,note_on,0,0,0,,0,,,72,127
79773,note_off,18,0,0,,3,,,75,127
79810,note_on,37,0,0,,3,,,75,127
79828,note_off,18,0,0,,5,,,77,127
79865,note_on,37,0,0,,5,,,77,127
79883,note_off,18,0,0,,3,,,75,127
79920,note_on,37,0,0,,3,,,75,127
79938,note_off,18,0,0,,5,,,77,127
79973,note_off,35,0,0,,0,,,72,127
79973,note_off,0,0,0,,8,,,68,127
79974,note_on,1,0,0,,5,,,77,127
79974,note_on,0,0,0,,11,,,70,127
79974,note_on,0,0,0,,7,,,67,127
79992,note_off,18,0,0,,3,,,75,127
80029,note_on,37,0,0,,3,,,75,127
80047,note_off,18,0,0,,5,,,77,127
80084,note_on,37,0,0,,5,,,77,127
80102,note_off,18,0,0,,3,,,75,127
80139,note_on,37,0,0,,3,,,75,127
80157,note_off,18,0,0,,5,,,77,127
80192,note_off,35,0,0,,7,,,67,127
80192,note_off,0,0,0,,11,,,70,127
80193,note_on,1,0,0,,5,,,77,127
80193,note_on,0,0,0,,11,,,70,127
80193,note_on,0,0,0,,7,,,67,127
80211,note_off,18,0,0,,3,,,75,127
80248,note_on,37,0,0,,3,,,75,127
80266,note_off,18,0,0,,5,,,77,127
80303,note_on,37,0,0,,5,,,77,127
80321,note_off,18,0,0,,3,,,75,127
80358,note_on,37,0,0,,3,,,75,127
80376,note_off,18,0,0,,5,,,77,127
80411,note_off,35,0,0,,7,,,67,127
80411,note_off,0,0,0,,11,,,70,127
80412,note_on,1,0,0,,5,,,77,127
80412,note_on,0,0,0,,8,,,68,127
80412,note_on,0,0,0,,0,,,72,127
80430,note_off,18,0,0,,3,,,75,127
80467,note_on,37,0,0,,3,,,75,127
80485,note_off,18,0,0,,5,,,77,127
80522,note_on,37,0,0,,5,,,77,127
80540,note_off,18,0,0,,3,,,75,127
80577,note_on,37,0,0,,3,,,75,127
80595,note_off,18,0,0,,5,,,77,127
80630,note_off,35,0,0,,0,,,72,127
80630,note_off,0,0,0,,8,,,68,127
80631,note_on,1,0,0,,5,,,77,127
80631,note_on,0,0,0,,8,,,68,127
80631,note_on,0,0,0,,0,,,72,127
80649,note_off,18,0,0,,3,,,75,127
80686,note_on,37,0,0,,3,,,75,127
80704,note_off,18,0,0,,5,,,77,127
80741,note_on,37,0,0,,5,,,77,127
80759,note_off,18,0,0,,3,,,75,127
80796,note_on,37,0,0,,3,,,75,127
80814,note_off,18,0,0,,5,,,77,127
80849,note_off,35,0,0,,0,,,72,127
80849,note_off,0,0,0,,8,,,68,127
80850,note_on,1,0,0,,5,,,77,127
80850,note_on,0,0,0,,11,,,70,127
80850,note_on,0,0,0,,7,,,67,127
80868,note_off,18,0,0,,3,,,75,127
80905,note_on,37,0,0,,4,,,76,127
80923,note_off,18,0,0,,5,,,77,127
80960,note_on,37,0,0,,5,,,77,127
80978,note_off,18,0,0,,4,,,76,127
81015,note_on,37,0,0,,4,,,76,127
81033,note_off,18,0,0,,5,,,77,127
81068,note_off,35,0,0,,7,,,67,127
81068,note_off,0,0,0,,11,,,70,127
81069,note_on,1,0,0,,5,,,77,127
81069,note_on,0,0,0,,0,,,72,127
81069,note_on,0,0,0,,7,,,67,127
81087,note_off,18,0,0,,4,,,76,127
81124,note_on,37,0,0,,4,,,76,127
81142,note_off,18,0,0,,5,,,77,127
81179,note_on,37,0,0,,5,,,77,127
81197,note_off,18,0,0,,4,,,76,127
81234,note_on,37,0,0,,4,,,76,127
81252,note_off,18,0,0,,5,,,77,127
81287,note_off,35,0,0,,7,,,67,127
81287,note_off,0,0,0,,0,,,72,127
81288,note_on,1,0,0,,7,,,79,127
81288,note_on,0,0,0,,5,,,65,127
81288,note_on,0,0,0,,11,,,70,127
81288,note_on,0,0,0,,1,,,73,127
81306,note_off,18,0,0,,4,,,76,127
81343,note_on,37,0,0,,5,,,77,127
81361,note_off,18,0,0,,7,,,79,127
81398,note_on,37,0,0,,7,,,79,127
81416,note_off,18,0,0,,5,,,77,127
81453,note_on,37,0,0,,5,,,77,127
81471,note_off,18,0,0,,7,,,79,127
81506,note_off,35,0,0,,1,,,73,127
81506,note_off,0,0,0,,11,,,70,127
81506,note_off,0,0,0,,5,,,65,127
81507,note_on,1,0,0,,7,,,79,127
81507,note_on,0,0,0,,5,,,65,127
81507,note_on,0,0,0,,11,,,70,127
81507,note_on,0,0,0,,1,,,73,127
81525,note_off,18,0,0,,5,,,77,127
81562,note_on,37,0,0,,5,,,77,127
81580,note_off,18,0,0,,7,,,79,127
81617,note_on,37,0,0,,7,,,79,127
81635,note_off,18,0,0,,5,,,77,127
81672,note_on,37,0,0,,5,,,77,127
81690,note_off,18,0,0,,7,,,79,127
81725,note_off,35,0,0,,1,,,73,127
81725,note_off,0,0,0,,11,,,70,127
81725,note_off,0,0,0,,5,,,65,127
81726,note_on,1,0,0,,7,,,79,127
81726,note_on,0,0,0,,4,,,64,127
81726,note_on,0,0,0,,11,,,70,127
81726,note_on,0,0,0,,1,,,73,127
81744,note_off,18,0,0,,5,,,77,127
81834,note_off,90,0,0,,7,,,79,127
81835,note_on,1,0,0,,8,,,80,127
81944,note_off,109,0,0,,8,,,80,127
81944,note_off,0,0,0,,1,,,73,127
81944,note_off,0,0,0,,11,,,70,127
81944,note_off,0,0,0,,4,,,64,127
81945,note_on,1,0,0,,11,,,82,127
81945,note_on,0,0,0,,4,,,64,127
81945,note_on,0,0,0,,0,,,72,127
81945,note_on,0,0,0,,11,,,70,127
82163,note_off,218,0,0,,11,,,70,127
82163,note_off,0,0,0,,0,,,72,127
82163,note_off,0,0,0,,4,,,64,127
82163,note_off,0,0,0,,11,,,82,127
82164,note_on,1,0,0,,8,,,80,127
82164,note_on,0,0,0,,5,,,65,127
82164,note_on,0,0,0,,0,,,72,127
82236,note_off,72,0,0,,8,,,80,127
82237,note_on,1,0,0,,7,,,79,127
82309,note_off,72,0,0,,7,,,79,127
82310,note_on,1,0,0,,5,,,77,127
82382,note_off,72,0,0,,5,,,77,127
82383,note_on,1,0,0,,8,,,80,127
82601,note_off,218,0,0,,8,,,80,127
82602,note_on,1,0,0,,11,,,82,127
82657,note_on,55,0,0,,8,,,80,127
82675,note_off,18,0,0,,11,,,82,127
82712,note_on,37,0,0,,11,,,82,127
82730,note_off,18,0,0,,8,,,80,127
82767,note_on,37,0,0,,8,,,80,127
82785,note_off,18,0,0,,11,,,82,127
82820,note_off,35,0,0,,0,,,72,127
82820,note_off,0,0,0,,5,,,65,127
82821,note_on,1,0,0,,11,,,82,127
82821,note_on,0,0,0,,1,,,61,127
82821,note_on,0,0,0,,5,,,65,127
82821,note_on,0,0,0,,8,,,68,127
82839,note_off,18,0,0,,8,,,80,127
82876,note_on,37,0,0,,8,,,80,127
82894,note_off,18,0,0,,11,,,82,127
82931,note_on,37,0,0,,11,,,82,127
82949,note_off,18,0,0,,8,,,80,127
82986,note_on,37,0,0,,8,,,80,127
83004,note_off,18,0,0,,11,,,82,127
83039,note_off,35,0,0,,8,,,68,127
83039,note_off,0,0,0,,5,,,65,127
83039,note_off,0,0,0,,1,,,61,127
83040,note_on,1,0,0,,11,,,82,127
83040,note_on,0,0,0,,5,,,65,127
83040,note_on,0,0,0,,1,,,61,127
83040,note_on,0,0,0,,8,,,68,127
83058,note_off,18,0,0,,8,,,80,127
83095,note_on,37,0,0,,8,,,80,127
83113,note_off,18,0,0,,11,,,82,127
83150,note_on,37,0,0,,11,,,82,127
83168,note_off,18,0,0,,8,,,80,127
83205,note_on,37,0,0,,8,,,80,127
83223,note_off,18,0,0,,11,,,82,127
83258,note_off,35,0,0,,8,,,68,127
83258,note_off,0,0,0,,1,,,61,127
83258,note_off,0,0,0,,5,,,65,127
83259,note_on,1,0,0,,11,,,82,127
83259,note_on,0,0,0,,1,,,61,127
83259,note_on,0,0,0,,5,,,65,127
83259,note_on,0,0,0,,8,,,68,127
83277,note_off,18,0,0,,8,,,80,127
83314,note_on,37,0,0,,8,,,80,127
83332,note_off,18,0,0,,11,,,82,127
83369,note_on,37,0,0,,11,,,82,127
83387,note_off,18,0,0,,8,,,80,127
83424,note_on,37,0,0,,8,,,80,127
83442,note_off,18,0,0,,11,,,82,127
83477,note_off,35,0,0,,8,,,68,127
83477,note_off,0,0,0,,5,,,65,127
83477,note_off,0,0,0,,1,,,61,127
83478,note_on,1,0,0,,11,,,82,127
83478,note_on,0,0,0,,3,,,63,127
83478,note_on,0,0,0,,0,,,60,127
83478,note_on,0,0,0,,8,,,68,127
83496,note_off,18,0,0,,8,,,80,127
83533,note_on,37,0,0,,8,,,80,127
83551,note_off,18,0,0,,11,,,82,127
83588,note_on,37,0,0,,11,,,82,127
83606,note_off,18,0,0,,8,,,80,127
83643,note_on,37,0,0,,8,,,80,127
83661,note_off,18,0,0,,11,,,82,127
83696,note_off,35,0,0,,8,,,68,127
83696,note_off,0,0,0,,0,,,60,127
83696,note_off,0,0,0,,3,,,63,127
83697,note_on,1,0,0,,11,,,82,127
83697,note_on,0,0,0,,0,,,60,127
83697,note_on,0,0,0,,3,,,63,127
83697,note_on,0,0,0,,8,,,68,127
83715,note_off,18,0,0,,8,,,80,127
83752,note_on,37,0,0,,8,,,80,127
83770,note_off,18,0,0,,11,,,82,127
83807,note_on,37,0,0,,11,,,82,127
83825,note_off,18,0,0,,8,,,80,127
83862,note_on,37,0,0,,8,,,80,127
83880,note_off,18,0,0,,11,,,82,127
83915,note_off,35,0,0,,8,,,68,127
83915,note_off,0,0,0,,3,,,63,127
83915,note_off,0,0,0,,0,,,60,127
83916,note_on,1,0,0,,11,,,82,127
83916,note_on,0,0,0,,1,,,61,127
83916,note_on,0,0,0,,5,,,65,127
83916,note_on,0,0,0,,8,,,68,127
83934,note_off,18,0,0,,8,,,80,127
83971,note_on,37,0,0,,8,,,80,127
83989,note_off,18,0,0,,11,,,82,127
84026,note_on,37,0,0,,11,,,82,127
84044,note_off,18,0,0,,8,,,80,127
84081,note_on,37,0,0,,8,,,80,127
84099,note_off,18,0,0,,11,,,82,127
84134,note_off,35,0,0,,8,,,68,127
84134,note_off,0,0,0,,5,,,65,127
84134,note_off,0,0,0,,1,,,61,127
84135,note_on,1,0,0,,11,,,82,127
84135,note_on,0,0,0,,1,,,61,127
84135,note_on,0,0,0,,8,,,68,127
84135,note_on,0,0,0,,5,,,65,127
84153,note_off,18,0,0,,8,,,80,127
84190,note_on,37,0,0,,8,,,80,127
84208,note_off,18,0,0,,11,,,82,127
84245,note_on,37,0,0,,11,,,82,127
84263,note_off,18,0,0,,8,,,80,127
84300,note_on,37,0,0,,8,,,80,127
84318,note_off,18,0,0,,11,,,82,127
84353,note_off,35,0,0,,5,,,65,127
84353,note_off,0,0,0,,8,,,68,127
84353,note_off,0,0,0,,1,,,61,127
84354,note_on,1,0,0,,11,,,82,127
84354,note_on,0,0,0,,0,,,60,127
84354,note_on,0,0,0,,8,,,68,127
84354,note_on,0,0,0,,5,,,65,127
84372,note_off,18,0,0,,8,,,80,127
84409,note_on,37,0,0,,8,,,80,127
84427,note_off,18,0,0,,11,,,82,127
84464,note_on,37,0,0,,11,,,82,127
84482,note_off,18,0,0,,8,,,80,127
84519,note_on,37,0,0,,8,,,80,127
84537,note_off,18,0,0,,11,,,82,127
84572,note_off,35,0,0,,5,,,65,127
84572,note_off,0,0,0,,8,,,68,127
84572,note_off,0,0,0,,0,,,60,127
84573,note_on,1,0,0,,11,,,82,127
84573,note_on,0,0,0,,0,,,60,127
84573,note_on,0,0,0,,5,,,65,127
84573,note_on,0,0,0,,8,,,68,127
84591,note_off,18,0,0,,8,,,80,127
84628,note_on,37,0,0,,8,,,80,127
84646,note_off,18,0,0,,11,,,82,127
84683,note_on,37,0,0,,11,,,82,127
84701,note_off,18,0,0,,8,,,80,127
84738,note_on,37,0,0,,8,,,80,127
84756,note_off,18,0,0,,11,,,82,127
84791,note_off,35,0,0,,8,,,68,127
84791,note_off,0,0,0,,5,,,65,127
84791,note_off,0,0,0,,0,,,60,127
84792,note_on,1,0,0,,7,,,67,127
84792,note_on,0,0,0,,5,,,65,127
84792,note_on,0,0,0,,12,,,59,127
85010,note_off,218,0,0,,12,,,59,127
85010,note_off,0,0,0,,5,,,65,127
85010,note_off,0,0,0,,7,,,67,127
85010,note_off,0,0,0,,8,,,80,127
85011,note_on,1,0,0,,2,,,86,127
85011,note_on,0,0,0,,7,,,67,127
85011,note_on,0,0,0,,5,,,65,127
85011,note_on,0,0,0,,12,,,59,127
85229,note_off,218,0,0,,12,,,59,127
85229,note_off,0,0,0,,5,,,65,127
85229,note_off,0,0,0,,7,,,67,127
85229,note_off,0,0,0,,2,,,86,127
85230,note_on,1,0,0,,7,,,79,127
85230,note_on,0,0,0,,12,,,59,127
85230,note_on,0,0,0,,5,,,65,127
85230,note_on,0,0,0,,7,,,67,127
85448,note_off,218,0,0,,7,,,67,127
85448,note_off,0,0,0,,5,,,65,127
85448,note_off,0,0,0,,12,,,59,127
85448,note_off,0,0,0,,7,,,79,127
85449,note_on,1,0,0,,5,,,77,127
85449,note_on,0,0,0,,12,,,59,127
85449,note_on,0,0,0,,7,,,67,127
85449,note_on,0,0,0,,5,,,65,127
85667,note_off,218,0,0,,5,,,65,127
85667,note_off,0,0,0,,7,,,67,127
85667,note_off,0,0,0,,12,,,59,127
85668,note_on,1,0,0,,0,,,60,127
85668,note_on,0,0,0,,7,,,67,127
85886,note_off,218,0,0,,7,,,67,127
85886,note_off,0,0,0,,0,,,60,127
85886,note_off,0,0,0,,5,,,77,127
85887,note_on,1,0,0,,3,,,75,127
85887,note_on,0,0,0,,0,,,60,127
85887,note_on,0,0,0,,7,,,67,127
85996,note_off,109,0,0,,3,,,75,127
85997,note_on,1,0,0,,2,,,74,127
86106,note_off,109,0,0,,2,,,74,127
86106,note_off,0,0,0,,7,,,67,127
86106,note_off,0,0,0,,0,,,60,127
86107,note_on,1,0,0,,3,,,75,127
86107,note_on,0,0,0,,0,,,60,127
86107,note_on,0,0,0,,7,,,67,127
86325,note_off,218,0,0,,7,,,67,127
86325,note_off,0,0,0,,0,,,60,127
86325,note_off,0,0,0,,3,,,75,127
86326,note_on,1,0,0,,7,,,79,127
86326,note_on,0,0,0,,0,,,60,127
86326,note_on,0,0,0,,7,,,67,127
86544,note_off,218,0,0,,7,,,67,127
86544,note_off,0,0,0,,0,,,60,127
86544,note_off,0,0,0,,7,,,79,127
86545,note_on,1,0,0,,0,,,84,127
86545,note_on,0,0,0,,5,,,65,127
86545,note_on,0,0,0,,8,,,56,127
86763,note_off,218,0,0,,8,,,56,127
86763,note_off,0,0,0,,5,,,65,127
86763,note_off,0,0,0,,0,,,84,127
86764,note_on,1,0,0,,2,,,74,127
86764,note_on,0,0,0,,8,,,56,127
86764,note_on,0,0,0,,5,,,65,127
86982,note_off,218,0,0,,5,,,65,127
86982,note_off,0,0,0,,8,,,56,127
86983,note_on,1,0,0,,5,,,65,127
86983,note_on,0,0,0,,8,,,56,127
87201,note_off,218,0,0,,8,,,56,127
87201,note_off,0,0,0,,5,,,65,127
87201,note_off,0,0,0,,2,,,74,127
87202,note_on,1,0,0,,0,,,72,127
87202,note_on,0,0,0,,8,,,56,127
87202,note_on,0,0,0,,5,,,65,127
87420,note_off,218,0,0,,5,,,65,127
87420,note_off,0,0,0,,8,,,56,127
87420,note_off,0,0,0,,0,,,72,127
87421,note_on,1,0,0,,2,,,74,127
87421,note_on,0,0,0,,3,,,63,127
87421,note_on,0,0,0,,7,,,55,127
87530,note_off,109,0,0,,2,,,74,127
87531,note_on,1,0,0,,0,,,72,127
87640,note_off,109,0,0,,0,,,72,127
87640,note_off,0,0,0,,7,,,55,127
87640,note_off,0,0,0,,3,,,63,127
87641,note_on,1,0,0,,12,,,71,127
87641,note_on,0,0,0,,2,,,62,127
87641,note_on,0,0,0,,7,,,55,127
87750,note_off,109,0,0,,12,,,71,127
87751,note_on,1,0,0,,0,,,72,127
87860,note_off,109,0,0,,0,,,72,127
87860,note_off,0,0,0,,7,,,55,127
87860,note_off,0,0,0,,2,,,62,127
87861,note_on,1,0,0,,2,,,74,127
87861,note_on,0,0,0,,7,,,55,127
87861,note_on,0,0,0,,2,,,62,127
88079,note_off,218,0,0,,2,,,62,127
88079,note_off,0,0,0,,7,,,55,127
88080,note_on,1,0,0,,7,,,55,127
88080,note_on,0,0,0,,2,,,62,127
88298,note_off,218,0,0,,2,,,62,127
88298,note_off,0,0,0,,7,,,55,127
88299,note_off,1,0,0,,2,,,74,127
88299,note_on,0,0,0,,7,,,55,127
88299,note_on,0,0,0,,5,,,65,127
88517,note_off,218,0,0,,5,,,65,127
88517,note_off,0,0,0,,7,,,55,127
88518,note_on,1,0,0,,12,,,71,127
88518,note_on,0,0,0,,2,,,62,127
88518,note_on,0,0,0,,7,,,55,127
88736,note_off,218,0,0,,7,,,55,127
88736,note_off,0,0,0,,2,,,62,127
88736,note_off,0,0,0,,12,,,71,127
88737,note_on,1,0,0,,2,,,74,127
88737,note_on,0,0,0,,7,,,55,127
88737,note_on,0,0,0,,5,,,65,127
88955,note_off,218,0,0,,5,,,65,127
88955,note_off,0,0,0,,7,,,55,127
88955,note_off,0,0,0,,2,,,74,127
88956,note_on,1,0,0,,12,,,71,127
88956,note_on,0,0,0,,2,,,62,127
88956,note_on,0,0,0,,7,,,55,127
89174,note_off,218,0,0,,7,,,55,127
89174,note_off,0,0,0,,2,,,62,127
89175,note_off,1,0,0,,12,,,71,127
89175,note_on,0,0,0,,7,,,55,127
89175,note_on,0,0,0,,5,,,65,127
89393,note_off,218,0,0,,5,,,65,127
89393,note_off,0,0,0,,7,,,55,127
89394,note_on,1,0,0,,12,,,71,127
89394,note_on,0,0,0,,2,,,62,127
89394,note_on,0,0,0,,7,,,55,127
89612,note_off,218,0,0,,7,,,55,127
89612,note_off,0,0,0,,2,,,62,127
89612,note_off,0,0,0,,12,,,71,127
89613,note_on,1,0,0,,2,,,74,127
89613,note_on,0,0,0,,7,,,55,127
89613,note_on,0,0,0,,5,,,65,127
89831,note_off,218,0,0,,5,,,65,127
89831,note_off,0,0,0,,7,,,55,127
89831,note_off,0,0,0,,2,,,74,127
89832,note_on,1,0,0,,12,,,71,127
89832,note_on,0,0,0,,7,,,55,127
89832,note_on,0,0,0,,2,,,62,127
90050,note_off,218,0,0,,2,,,62,127
90050,note_off,0,0,0,,7,,,55,127
90050,note_off,0,0,0,,12,,,71,127
90051,note_on,1,0,0,,2,,,86,127
90051,note_on,0,0,0,,5,,,65,127
90051,note_on,0,0,0,,8,,,56,127
90269,note_off,218,0,0,,8,,,56,127
90269,note_off,0,0,0,,5,,,65,127
90270,note_on,1,0,0,,8,,,56,127
90270,note_on,0,0,0,,2,,,62,127
90488,note_off,218,0,0,,2,,,62,127
90488,note_off,0,0,0,,8,,,56,127
90488,note_off,0,0,0,,2,,,86,127
90489,note_on,1,0,0,,2,,,74,127
90489,note_on,0,0,0,,8,,,56,127
90489,note_on,0,0,0,,5,,,65,127
90707,note_off,218,0,0,,5,,,65,127
90707,note_off,0,0,0,,8,,,56,127
90708,note_on,1,0,0,,8,,,56,127
90708,note_on,0,0,0,,2,,,62,127
90926,note_off,218,0,0,,2,,,62,127
90926,note_off,0,0,0,,8,,,56,127
90926,note_off,0,0,0,,2,,,74,127
90927,note_on,1,0,0,,4,,,76,127
90927,note_on,0,0,0,,10,,,57,127
90927,note_on,0,0,0,,4,,,64,127
91036,note_off,109,0,0,,4,,,76,127
91037,note_on,1,0,0,,2,,,74,127
91146,note_off,109,0,0,,2,,,74,127
91146,note_off,0,0,0,,4,,,64,127
91146,note_off,0,0,0,,10,,,57,127
91147,note_on,1,0,0,,1,,,73,127
91147,note_on,0,0,0,,10,,,57,127
91147,note_on,0,0,0,,4,,,64,127
91256,note_off,109,0,0,,1,,,73,127
91257,note_on,1,0,0,,2,,,74,127
91366,note_off,109,0,0,,2,,,74,127
91366,note_off,0,0,0,,4,,,64,127
91366,note_off,0,0,0,,10,,,57,127
91367,note_on,1,0,0,,4,,,76,127
91367,note_on,0,0,0,,4,,,64,127
91367,note_on,0,0,0,,10,,,57,127
91585,note_off,218,0,0,,10,,,57,127
91585,note_off,0,0,0,,4,,,64,127
91586,note_on,1,0,0,,10,,,57,127
91586,note_on,0,0,0,,4,,,64,127
91804,note_off,218,0,0,,4,,,64,127
91804,note_off,0,0,0,,10,,,57,127
91805,note_off,1,0,0,,4,,,76,127
91805,note_on,0,0,0,,10,,,57,127
91805,note_on,0,0,0,,4,,,64,127
92023,note_off,218,0,0,,4,,,64,127
92023,note_off,0,0,0,,10,,,57,127
92024,note_on,1,0,0,,1,,,73,127
92024,note_on,0,0,0,,4,,,64,127
92024,note_on,0,0,0,,10,,,57,127
92242,note_off,218,0,0,,10,,,57,127
92242,note_off,0,0,0,,4,,,64,127
92242,note_off,0,0,0,,1,,,73,127
92243,note_on,1,0,0,,4,,,76,127
92243,note_on,0,0,0,,10,,,57,127
92243,note_on,0,0,0,,4,,,64,127
92461,note_off,218,0,0,,4,,,64,127
92461,note_off,0,0,0,,10,,,57,127
92461,note_off,0,0,0,,4,,,76,127
92462,note_on,1,0,0,,1,,,73,127
92462,note_on,0,0,0,,10,,,57,127
92462,note_on,0,0,0,,6,,,66,127
92680,note_off,218,0,0,,6,,,66,127
92680,note_off,0,0,0,,10,,,57,127
92681,note_off,1,0,0,,1,,,73,127
92681,note_on,0,0,0,,11,,,58,127
92681,note_on,0,0,0,,7,,,67,127
92899,note_off,218,0,0,,7,,,67,127
92899,note_off,0,0,0,,11,,,58,127
92900,note_on,1,0,0,,1,,,73,127
92900,note_on,0,0,0,,4,,,64,127
92900,note_on,0,0,0,,11,,,58,127
93118,note_off,218,0,0,,11,,,58,127
93118,note_off,0,0,0,,4,,,64,127
93118,note_off,0,0,0,,1,,,73,127
93119,note_on,1,0,0,,4,,,76,127
93119,note_on,0,0,0,,11,,,58,127
93119,note_on,0,0,0,,7,,,67,127
93337,note_off,218,0,0,,7,,,67,127
93337,note_off,0,0,0,,11,,,58,127
93337,note_off,0,0,0,,4,,,76,127
93338,note_on,1,0,0,,1,,,73,127
93338,note_on,0,0,0,,4,,,64,127
93338,note_on,0,0,0,,11,,,58,127
93556,note_off,218,0,0,,11,,,58,127
93556,note_off,0,0,0,,4,,,64,127
93556,note_off,0,0,0,,1,,,73,127
93557,note_on,1,0,0,,4,,,88,127
93557,note_on,0,0,0,,11,,,58,127
93557,note_on,0,0,0,,7,,,67,127
93775,note_off,218,0,0,,7,,,67,127
93775,note_off,0,0,0,,11,,,58,127
93776,note_on,1,0,0,,11,,,58,127
93776,note_on,0,0,0,,4,,,64,127
93994,note_off,218,0,0,,4,,,64,127
93994,note_off,0,0,0,,11,,,58,127
93994,note_off,0,0,0,,4,,,88,127
93995,note_on,1,0,0,,4,,,76,127
93995,note_on,0,0,0,,11,,,58,127
93995,note_on,0,0,0,,7,,,67,127
94213,note_off,218,0,0,,7,,,67,127
94213,note_off,0,0,0,,11,,,58,127
94214,note_on,1,0,0,,11,,,58,127
94214,note_on,0,0,0,,4,,,64,127
94432,note_off,218,0,0,,4,,,64,127
94432,note_off,0,0,0,,11,,,58,127
94432,note_off,0,0,0,,4,,,76,127
94433,note_on,1,0,0,,6,,,78,127
94433,note_on,0,0,0,,6,,,66,127
94433,note_on,0,0,0,,12,,,59,127
94542,note_off,109,0,0,,6,,,78,127
94543,note_on,1,0,0,,4,,,76,127
94652,note_off,109,0,0,,4,,,76,127
94652,note_off,0,0,0,,12,,,59,127
94652,note_off,0,0,0,,6,,,66,127
94653,note_on,1,0,0,,3,,,75,127
94653,note_on,0,0,0,,12,,,59,127
94653,note_on,0,0,0,,6,,,66,127
94762,note_off,109,0,0,,3,,,75,127
94763,note_on,1,0,0,,4,,,76,127
94872,note_off,109,0,0,,4,,,76,127
94872,note_off,0,0,0,,6,,,66,127
94872,note_off,0,0,0,,12,,,59,127
94873,note_on,1,0,0,,6,,,78,127
94873,note_on,0,0,0,,12,,,59,127
94873,note_on,0,0,0,,6,,,66,127
95091,note_off,218,0,0,,6,,,66,127
95091,note_off,0,0,0,,12,,,59,127
95092,note_on,1,0,0,,12,,,59,127
95092,note_on,0,0,0,,6,,,66,127
95310,note_off,218,0,0,,6,,,66,127
95310,note_off,0,0,0,,12,,,59,127
95311,note_on,1,0,0,,10,,,69,127
95311,note_on,0,0,0,,10,,,57,127
95529,note_off,218,0,0,,10,,,57,127
95529,note_off,0,0,0,,10,,,69,127
95529,note_off,0,0,0,,6,,,78,127
95530,note_on,1,0,0,,7,,,79,127
95530,note_on,0,0,0,,10,,,57,127
95530,note_on,0,0,0,,10,,,69,127
95748,note_off,218,0,0,,10,,,69,127
95748,note_off,0,0,0,,10,,,57,127
95748,note_off,0,0,0,,7,,,79,127
95749,note_on,1,0,0,,10,,,81,127
95749,note_on,0,0,0,,10,,,57,127
95749,note_on,0,0,0,,10,,,69,127
95967,note_off,218,0,0,,10,,,69,127
95967,note_off,0,0,0,,10,,,57,127
95967,note_off,0,0,0,,10,,,81,127
95968,note_on,1,0,0,,12,,,83,127
95968,note_on,0,0,0,,10,,,57,127
95968,note_on,0,0,0,,7,,,67,127
96186,note_off,218,0,0,,7,,,67,127
96186,note_off,0,0,0,,10,,,57,127
96186,note_off,0,0,0,,12,,,83,127
96187,note_on,1,0,0,,0,,,84,127
96187,note_on,0,0,0,,10,,,57,127
96187,note_on,0,0,0,,6,,,66,127
96296,note_off,109,0,0,,0,,,84,127
96297,note_on,1,0,0,,12,,,83,127
96406,note_off,109,0,0,,12,,,83,127
96406,note_off,0,0,0,,6,,,66,127
96406,note_off,0,0,0,,10,,,57,127
96407,note_on,1,0,0,,10,,,81,127
96407,note_on,0,0,0,,7,,,67,127
96407,note_on,0,0,0,,10,,,57,127
96516,note_off,109,0,0,,10,,,81,127
96517,note_on,1,0,0,,7,,,79,127
96626,note_off,109,0,0,,7,,,79,127
96626,note_off,0,0,0,,10,,,57,127
96626,note_off,0,0,0,,7,,,67,127
96627,note_on,1,0,0,,6,,,78,127
96627,note_on,0,0,0,,10,,,57,127
96627,note_on,0,0,0,,10,,,69,127
96845,note_off,218,0,0,,10,,,69,127
96845,note_off,0,0,0,,10,,,57,127
96845,note_off,0,0,0,,6,,,78,127
96846,note_on,1,0,0,,4,,,76,127
96846,note_on,0,0,0,,10,,,57,127
96846,note_on,0,0,0,,10,,,69,127
97064,note_off,218,0,0,,10,,,69,127
97064,note_off,0,0,0,,10,,,57,127
97064,note_off,0,0,0,,4,,,76,127
97065,note_on,1,0,0,,4,,,76,127
97065,note_on,0,0,0,,12,,,71,127
97174,note_off,109,0,0,,12,,,71,127
97175,note_on,1,0,0,,0,,,72,127
97284,note_off,109,0,0,,0,,,72,127
97284,note_off,0,0,0,,4,,,76,127
97285,note_on,1,0,0,,3,,,75,127
97285,note_on,0,0,0,,10,,,69,127
97394,note_off,109,0,0,,10,,,69,127
97395,note_on,1,0,0,,12,,,71,127
97504,note_off,109,0,0,,12,,,71,127
97504,note_off,0,0,0,,3,,,75,127
97505,note_on,1,0,0,,4,,,76,127
97505,note_on,0,0,0,,7,,,67,127
97614,note_off,109,0,0,,7,,,67,127
97615,note_on,1,0,0,,10,,,69,127
97724,note_off,109,0,0,,10,,,69,127
97724,note_off,0,0,0,,4,,,76,127
97725,note_on,1,0,0,,6,,,78,127
97725,note_on,0,0,0,,6,,,66,127
97834,note_off,109,0,0,,6,,,66,127
97835,note_on,1,0,0,,7,,,67,127
97944,note_off,109,0,0,,7,,,67,127
97944,note_off,0,0,0,,6,,,78,127
97945,note_on,1,0,0,,7,,,79,127
97945,note_on,0,0,0,,4,,,64,127
98054,note_off,109,0,0,,4,,,64,127
98055,note_on,1,0,0,,6,,,66,127
98164,note_off,109,0,0,,6,,,66,127
98164,note_off,0,0,0,,7,,,79,127
98165,note_on,1,0,0,,7,,,79,127
98165,note_on,0,0,0,,2,,,62,127
98274,note_off,109,0,0,,2,,,62,127
98275,note_on,1,0,0,,4,,,64,127
98384,note_off,109,0,0,,4,,,64,127
98384,note_off,0,0,0,,7,,,79,127
98385,note_on,1,0,0,,10,,,81,127
98385,note_on,0,0,0,,0,,,60,127
98494,note_off,109,0,0,,0,,,60,127
98495,note_on,1,0,0,,2,,,62,127
98604,note_off,109,0,0,,2,,,62,127
98604,note_off,0,0,0,,10,,,81,127
98605,note_on,1,0,0,,12,,,83,127
98605,note_on,0,0,0,,12,,,59,127
98714,note_off,109,0,0,,12,,,59,127
98715,note_on,1,0,0,,0,,,60,127
98824,note_off,109,0,0,,0,,,60,127
98824,note_off,0,0,0,,12,,,83,127
98825,note_on,1,0,0,,0,,,84,127
98825,note_on,0,0,0,,10,,,57,127
98934,note_off,109,0,0,,10,,,57,127
98935,note_on,1,0,0,,12,,,59,127
99044,note_off,109,0,0,,12,,,59,127
99045,note_on,1,0,0,,4,,,76,127
99045,note_on,0,0,0,,7,,,55,127
99154,note_off,109,0,0,,7,,,55,127
99155,note_off,1,0,0,,0,,,84,127
99155,note_on,0,0,0,,10,,,57,127
99264,note_off,109,0,0,,10,,,57,127
99264,note_off,0,0,0,,4,,,76,127
99265,note_on,1,0,0,,3,,,75,127
99265,note_on,0,0,0,,6,,,54,127
99374,note_off,109,0,0,,6,,,54,127
99375,note_on,1,0,0,,7,,,55,127
99484,note_off,109,0,0,,7,,,55,127
99484,note_off,0,0,0,,3,,,75,127
99485,note_on,1,0,0,,4,,,76,127
99485,note_on,0,0,0,,4,,,52,127
99594,note_off,109,0,0,,4,,,52,127
99595,note_on,1,0,0,,6,,,54,127
99704,note_off,109,0,0,,6,,,54,127
99704,note_off,0,0,0,,4,,,76,127
99705,note_on,1,0,0,,6,,,78,127
99705,note_on,0,0,0,,3,,,51,127
99814,note_off,109,0,0,,3,,,51,127
99815,note_on,1,0,0,,10,,,57,127
99924,note_off,109,0,0,,10,,,57,127
99924,note_off,0,0,0,,6,,,78,127
99925,note_on,1,0,0,,10,,,81,127
99925,note_on,0,0,0,,0,,,48,127
100034,note_off,109,0,0,,0,,,48,127
100035,note_on,1,0,0,,10,,,57,127
100144,note_off,109,0,0,,10,,,57,127
100144,note_off,0,0,0,,10,,,81,127
100145,note_on,1,0,0,,7,,,79,127
100145,note_on,0,0,0,,12,,,47,127
100254,note_off,109,0,0,,12,,,47,127
100255,note_on,1,0,0,,7,,,55,127
100364,note_off,109,0,0,,7,,,55,127
100364,note_off,0,0,0,,7,,,79,127
100365,note_on,1,0,0,,6,,,78,127
100365,note_on,0,0,0,,10,,,45,127
100474,note_off,109,0,0,,10,,,45,127
100475,note_on,1,0,0,,6,,,54,127
100584,note_off,109,0,0,,6,,,54,127
100584,note_off,0,0,0,,6,,,78,127
100585,note_on,1,0,0,,12,,,83,127
100585,note_on,0,0,0,,7,,,43,127
100585,note_on,0,0,0,,4,,,52,127
100803,note_off,218,0,0,,12,,,83,127
100804,note_on,1,0,0,,0,,,84,127
101022,note_off,218,0,0,,0,,,84,127
101022,note_off,0,0,0,,4,,,52,127
101022,note_off,0,0,0,,7,,,43,127
101023,note_on,1,0,0,,12,,,83,127
101023,note_on,0,0,0,,10,,,45,127
101023,note_on,0,0,0,,4,,,52,127
101023,note_on,0,0,0,,10,,,57,127
101132,note_off,109,0,0,,12,,,83,127
101133,note_on,1,0,0,,10,,,81,127
101242,note_off,109,0,0,,10,,,81,127
101243,note_on,1,0,0,,7,,,79,127
101352,note_off,109,0,0,,7,,,79,127
101353,note_on,1,0,0,,6,,,78,127
101462,note_off,109,0,0,,6,,,78,127
101462,note_off,0,0,0,,10,,,57,127
101462,note_off,0,0,0,,4,,,52,127
101462,note_off,0,0,0,,10,,,45,127
101463,note_on,1,0,0,,4,,,76,127
101463,note_on,0,0,0,,12,,,47,127
101463,note_on,0,0,0,,7,,,55,127
101463,note_on,0,0,0,,12,,,59,127
101681,note_off,218,0,0,,4,,,76,127
101682,note_on,1,0,0,,12,,,71,127
101791,note_off,109,0,0,,12,,,71,127
101792,note_on,1,0,0,,4,,,76,127
101901,note_off,109,0,0,,4,,,76,127
101901,note_off,0,0,0,,12,,,59,127
101901,note_off,0,0,0,,7,,,55,127
101901,note_off,0,0,0,,12,,,47,127
101902,note_on,1,0,0,,4,,,76,127
101902,note_on,0,0,0,,12,,,47,127
101902,note_on,0,0,0,,6,,,54,127
102012,note_off,110,0,0,,4,,,76,127
102012,note_on,0,0,0,,3,,,75,127
102122,note_off,110,0,0,,3,,,75,127
102122,note_on,0,0,0,,1,,,73,127
102232,note_off,110,0,0,,1,,,73,127
102232,note_on,0,0,0,,3,,,75,127
102341,note_off,109,0,0,,6,,,54,127
102341,note_off,0,0,0,,12,,,47,127
102342,note_off,1,0,0,,3,,,75,127
102342,note_on,0,0,0,,4,,,76,127
102342,note_on,0,0,0,,4,,,52,127
102560,note_off,218,0,0,,4,,,52,127
102561,note_on,1,0,0,,12,,,71,127
102779,note_off,218,0,0,,12,,,71,127
102780,note_on,1,0,0,,0,,,72,127
102998,note_off,218,0,0,,0,,,72,127
102999,note_off,1,0,0,,4,,,76,127
102999,note_on,0,0,0,,12,,,71,127
103217,note_off,218,0,0,,12,,,71,127
103218,note_on,1,0,0,,6,,,78,127
103218,note_on,0,0,0,,10,,,69,127
103436,note_off,218,0,0,,10,,,69,127
103437,note_on,1,0,0,,4,,,76,127
103655,note_off,218,0,0,,4,,,76,127
103656,note_on,1,0,0,,3,,,75,127
103874,note_off,218,0,0,,3,,,75,127
103874,note_off,0,0,0,,6,,,78,127
103875,note_on,1,0,0,,7,,,79,127
103875,note_on,0,0,0,,12,,,71,127
103984,note_off,109,0,0,,7,,,79,127
103985,note_on,1,0,0,,10,,,81,127
104094,note_off,109,0,0,,10,,,81,127
104094,note_off,0,0,0,,12,,,71,127
104095,note_on,1,0,0,,7,,,79,127
104095,note_on,0,0,0,,4,,,64,127
104204,note_off,109,0,0,,7,,,79,127
104205,note_on,1,0,0,,6,,,78,127
104314,note_off,109,0,0,,6,,,78,127
104314,note_off,0,0,0,,4,,,64,127
104315,note_on,1,0,0,,4,,,76,127
104315,note_on,0,0,0,,12,,,71,127
104533,note_off,218,0,0,,12,,,71,127
104533,note_off,0,0,0,,4,,,76,127
104534,note_on,1,0,0,,3,,,87,127
104534,note_on,0,0,0,,0,,,72,127
104752,note_off,218,0,0,,0,,,72,127
104752,note_off,0,0,0,,3,,,87,127
104753,note_on,1,0,0,,4,,,88,127
104753,note_on,0,0,0,,12,,,71,127
104918,note_off,165,0,0,,4,,,88,127
104972,note_off,54,0,0,,12,,,71,127
104973,note_on,1,0,0,,6,,,78,127
104973,note_on,0,0,0,,10,,,69,127
105191,note_off,218,0,0,,10,,,69,127
105192,note_on,1,0,0,,4,,,76,127
105410,note_off,218,0,0,,4,,,76,127
105411,note_on,1,0,0,,3,,,75,127
105629,note_off,218,0,0,,3,,,75,127
105629,note_off,0,0,0,,6,,,78,127
105630,note_on,1,0,0,,7,,,79,127
105630,note_on,0,0,0,,12,,,71,127
105739,note_off,109,0,0,,7,,,79,127
105740,note_on,1,0,0,,10,,,81,127
105849,note_off,109,0,0,,10,,,81,127
105849,note_off,0,0,0,,12,,,71,127
105850,note_on,1,0,0,,7,,,79,127
105850,note_on,0,0,0,,4,,,64,127
105959,note_off,109,0,0,,7,,,79,127
105960,note_on,1,0,0,,6,,,78,127
106069,note_off,109,0,0,,6,,,78,127
106069,note_off,0,0,0,,4,,,64,127
106070,note_on,1,0,0,,4,,,76,127
106070,note_on,0,0,0,,12,,,71,127
106288,note_off,218,0,0,,12,,,71,127
106288,note_off,0,0,0,,4,,,76,127
106289,note_on,1,0,0,,3,,,87,127
106289,note_on,0,0,0,,0,,,72,127
106507,note_off,218,0,0,,0,,,72,127
106507,note_off,0,0,0,,3,,,87,127
106508,note_on,1,0,0,,4,,,88,127
106508,note_on,0,0,0,,12,,,71,127
106673,note_off,165,0,0,,4,,,88,127
106727,note_off,54,0,0,,12,,,71,127
106728,note_on,1,0,0,,6,,,78,127
106728,note_on,0,0,0,,10,,,69,127
106946,note_off,218,0,0,,10,,,69,127
106947,note_on,1,0,0,,4,,,76,127
107165,note_off,218,0,0,,4,,,76,127
107166,note_on,1,0,0,,3,,,75,127
107384,note_off,218,0,0,,3,,,75,127
107384,note_off,0,0,0,,6,,,78,127
107385,note_on,1,0,0,,7,,,79,127
107385,note_on,0,0,0,,12,,,71,127
107494,note_off,109,0,0,,7,,,79,127
107495,note_on,1,0,0,,10,,,81,127
107604,note_off,109,0,0,,12,,,71,127
107605,note_on,1,0,0,,4,,,64,127
107714,note_off,109,0,0,,10,,,81,127
107715,note_on,1,0,0,,7,,,79,127
107824,note_off,109,0,0,,7,,,79,127
107825,note_on,1,0,0,,6,,,78,127
107934,note_off,109,0,0,,6,,,78,127
107935,note_on,1,0,0,,7,,,79,127
108044,note_off,109,0,0,,7,,,79,127
108044,note_off,0,0,0,,4,,,64,127
108045,note_on,1,0,0,,12,,,83,127
108045,note_on,0,0,0,,0,,,60,127
108045,note_on,0,0,0,,10,,,69,127
108154,note_off,109,0,0,,12,,,83,127
108155,note_on,1,0,0,,10,,,81,127
108264,note_off,109,0,0,,10,,,81,127
108265,note_on,1,0,0,,7,,,79,127
108374,note_off,109,0,0,,7,,,79,127
108375,note_on,1,0,0,,6,,,78,127
108484,note_off,109,0,0,,6,,,78,127
108484,note_off,0,0,0,,10,,,69,127
108484,note_off,0,0,0,,0,,,60,127
108485,note_on,1,0,0,,4,,,76,127
108485,note_on,0,0,0,,12,,,59,127
108485,note_on,0,0,0,,7,,,67,127
108485,note_on,0,0,0,,4,,,64,127
108703,note_off,218,0,0,,4,,,76,127
108704,note_on,1,0,0,,12,,,71,127
108813,note_off,109,0,0,,12,,,71,127
108814,note_on,1,0,0,,4,,,76,127
108923,note_off,109,0,0,,4,,,76,127
108923,note_off,0,0,0,,4,,,64,127
108923,note_off,0,0,0,,7,,,67,127
108923,note_off,0,0,0,,12,,,59,127
108924,note_on,1,0,0,,4,,,76,127
108924,note_on,0,0,0,,12,,,59,127
108924,note_on,0,0,0,,6,,,66,127
109033,note_off,109,0,0,,4,,,76,127
109034,note_on,1,0,0,,3,,,75,127
109143,note_off,109,0,0,,3,,,75,127
109144,note_on,1,0,0,,1,,,73,127
109253,note_off,109,0,0,,1,,,73,127
109254,note_on,1,0,0,,3,,,75,127
109363,note_off,109,0,0,,3,,,75,127
109363,note_off,0,0,0,,6,,,66,127
109363,note_off,0,0,0,,12,,,59,127
109364,note_on,1,0,0,,4,,,76,127
109364,note_on,0,0,0,,4,,,52,127
109582,note_off,218,0,0,,4,,,52,127
109583,note_on,1,0,0,,12,,,59,127
109801,note_off,218,0,0,,12,,,59,127
109802,note_on,1,0,0,,0,,,60,127
110020,note_off,218,0,0,,0,,,60,127
110021,note_off,1,0,0,,4,,,76,127
110021,note_on,0,0,0,,12,,,59,127
110239,note_off,218,0,0,,12,,,59,127
110240,note_on,1,0,0,,6,,,66,127
110240,note_on,0,0,0,,10,,,57,127
110458,note_off,218,0,0,,10,,,57,127
110459,note_on,1,0,0,,4,,,64,127
110677,note_off,218,0,0,,4,,,64,127
110678,note_on,1,0,0,,3,,,63,127
110896,note_off,218,0,0,,3,,,63,127
110896,note_off,0,0,0,,6,,,66,127
110897,note_on,1,0,0,,7,,,67,127
110897,note_on,0,0,0,,12,,,59,127
111006,note_off,109,0,0,,7,,,67,127
111007,note_on,1,0,0,,10,,,69,127
111116,note_off,109,0,0,,10,,,69,127
111116,note_off,0,0,0,,12,,,59,127
111117,note_on,1,0,0,,7,,,67,127
111117,note_on,0,0,0,,4,,,52,127
111226,note_off,109,0,0,,7,,,67,127
111227,note_on,1,0,0,,6,,,66,127
111336,note_off,109,0,0,,6,,,66,127
111336,note_off,0,0,0,,4,,,52,127
111337,note_on,1,0,0,,4,,,64,127
111337,note_on,0,0,0,,12,,,59,127
111555,note_off,218,0,0,,12,,,59,127
111555,note_off,0,0,0,,4,,,64,127
111556,note_on,1,0,0,,3,,,75,127
111556,note_on,0,0,0,,0,,,60,127
111774,note_off,218,0,0,,0,,,60,127
111774,note_off,0,0,0,,3,,,75,127
111775,note_on,1,0,0,,4,,,76,127
111775,note_on,0,0,0,,12,,,59,127
111940,note_off,165,0,0,,4,,,76,127
111994,note_off,54,0,0,,12,,,59,127
111995,note_on,1,0,0,,6,,,66,127
111995,note_on,0,0,0,,10,,,57,127
112213,note_off,218,0,0,,10,,,57,127
112214,note_on,1,0,0,,4,,,64,127
112432,note_off,218,0,0,,4,,,64,127
112433,note_on,1,0,0,,3,,,63,127
112651,note_off,218,0,0,,3,,,63,127
112651,note_off,0,0,0,,6,,,66,127
112652,note_on,1,0,0,,7,,,67,127
112652,note_on,0,0,0,,12,,,59,127
112761,note_off,109,0,0,,7,,,67,127
112762,note_on,1,0,0,,10,,,69,127
112871,note_off,109,0,0,,10,,,69,127
112871,note_off,0,0,0,,12,,,59,127
112872,note_on,1,0,0,,7,,,67,127
112872,note_on,0,0,0,,4,,,52,127
112981,note_off,109,0,0,,7,,,67,127
112982,note_on,1,0,0,,6,,,66,127
113091,note_off,109,0,0,,6,,,66,127
113091,note_off,0,0,0,,4,,,52,127
113092,note_on,1,0,0,,4,,,64,127
113092,note_on,0,0,0,,12,,,59,127
113310,note_off,218,0,0,,12,,,59,127
113310,note_off,0,0,0,,4,,,64,127
113311,note_on,1,0,0,,3,,,75,127
113311,note_on,0,0,0,,0,,,60,127
113529,note_off,218,0,0,,0,,,60,127
113529,note_off,0,0,0,,3,,,75,127
113530,note_on,1,0,0,,4,,,76,127
113530,note_on,0,0,0,,12,,,59,127
113695,note_off,165,0,0,,4,,,76,127
113749,note_off,54,0,0,,12,,,59,127
113750,note_on,1,0,0,,6,,,66,127
113750,note_on,0,0,0,,10,,,57,127
113968,note_off,218,0,0,,10,,,57,127
113969,note_on,1,0,0,,4,,,64,127
114187,note_off,218,0,0,,4,,,64,127
114188,note_on,1,0,0,,3,,,63,127
114406,note_off,218,0,0,,3,,,63,127
114406,note_off,0,0,0,,6,,,66,127
114407,note_on,1,0,0,,7,,,67,127
114407,note_on,0,0,0,,12,,,59,127
114516,note_off,109,0,0,,7,,,67,127
114517,note_on,1,0,0,,10,,,69,127
114626,note_off,109,0,0,,12,,,59,127
114627,note_on,1,0,0,,4,,,52,127
114627,note_on,0,0,0,,4,,,64,127
114736,note_off,109,0,0,,10,,,69,127
114737,note_on,1,0,0,,7,,,67,127
114846,note_off,109,0,0,,7,,,67,127
114847,note_on,1,0,0,,6,,,66,127
114956,note_off,109,0,0,,6,,,66,127
114957,note_on,1,0,0,,7,,,67,127
115066,note_off,109,0,0,,7,,,67,127
115066,note_off,0,0,0,,4,,,64,127
115066,note_off,0,0,0,,4,,,52,127
115067,note_on,1,0,0,,12,,,71,127
115067,note_on,0,0,0,,0,,,48,127
115067,note_on,0,0,0,,4,,,52,127
115067,note_on,0,0,0,,10,,,57,127
115176,note_off,109,0,0,,12,,,71,127
115177,note_on,1,0,0,,10,,,69,127
115286,note_off,109,0,0,,10,,,69,127
115287,note_on,1,0,0,,7,,,67,127
115396,note_off,109,0,0,,7,,,67,127
115397,note_on,1,0,0,,6,,,66,127
115506,note_off,109,0,0,,6,,,66,127
115506,note_off,0,0,0,,10,,,57,127
115506,note_off,0,0,0,,4,,,52,127
115506,note_off,0,0,0,,0,,,48,127
115507,note_on,1,0,0,,4,,,64,127
115507,note_on,0,0,0,,7,,,55,127
115507,note_on,0,0,0,,4,,,52,127
115507,note_on,0,0,0,,12,,,47,127
115945,note_off,438,0,0,,12,,,47,127
115945,note_off,0,0,0,,4,,,52,127
115945,note_off,0,0,0,,7,,,55,127
115945,note_off,0,0,0,,4,,,64,127
115946,note_on,1,0,0,,4,,,64,127
115946,note_on,0,0,0,,12,,,47,127
115946,note_on,0,0,0,,6,,,54,127
116056,note_off,110,0,0,,4,,,64,127
116056,note_on,0,0,0,,3,,,63,127
116166,note_off,110,0,0,,3,,,63,127
116166,note_on,0,0,0,,1,,,61,127
116276,note_off,110,0,0,,1,,,61,127
116276,note_on,0,0,0,,3,,,63,127
116385,note_off,109,0,0,,6,,,54,127
116385,note_off,0,0,0,,12,,,47,127
116386,note_off,1,0,0,,3,,,63,127
116386,note_on,0,0,0,,4,,,64,127
116386,note_on,0,0,0,,4,,,52,127
116604,note_off,218,0,0,,4,,,64,127
116623,note_on,19,0,0,,4,,,88,127
116823,note_off,200,0,0,,4,,,52,127
116841,note_off,18,0,0,,4,,,88,127
116842,note_on,1,0,0,,10,,,69,127
116842,note_on,0,0,0,,0,,,72,127
116842,note_on,0,0,0,,4,,,64,127
116842,note_on,0,0,0,,0,,,84,127
117060,note_off,218,0,0,,0,,,84,127
117061,note_on,1,0,0,,10,,,81,127
117279,note_off,218,0,0,,10,,,81,127
117279,note_off,0,0,0,,4,,,64,127
117279,note_off,0,0,0,,0,,,72,127
117279,note_off,0,0,0,,10,,,69,127
117280,note_on,1,0,0,,3,,,63,127
117280,note_on,0,0,0,,10,,,69,127
117280,note_on,0,0,0,,0,,,72,127
117280,note_on,0,0,0,,0,,,84,127
117498,note_off,218,0,0,,0,,,84,127
117499,note_on,1,0,0,,10,,,81,127
117717,note_off,218,0,0,,10,,,81,127
117717,note_off,0,0,0,,0,,,72,127
117717,note_off,0,0,0,,10,,,69,127
117717,note_off,0,0,0,,3,,,63,127
117718,note_on,1,0,0,,0,,,72,127
117718,note_on,0,0,0,,10,,,69,127
117718,note_on,0,0,0,,3,,,63,127
117718,note_on,0,0,0,,0,,,84,127
117936,note_off,218,0,0,,0,,,84,127
117937,note_on,1,0,0,,10,,,81,127
118155,note_off,218,0,0,,3,,,63,127
118155,note_off,0,0,0,,10,,,69,127
118155,note_off,0,0,0,,0,,,72,127
118156,note_on,1,0,0,,4,,,64,127
118156,note_on,0,0,0,,12,,,71,127
118266,note_off,110,0,0,,10,,,81,127
118266,note_on,0,0,0,,7,,,79,127
118375,note_off,109,0,0,,7,,,79,127
118376,note_on,1,0,0,,6,,,78,127
118485,note_off,109,0,0,,6,,,78,127
118486,note_on,1,0,0,,7,,,79,127
118595,note_off,109,0,0,,7,,,79,127
118595,note_off,0,0,0,,12,,,71,127
118595,note_off,0,0,0,,4,,,64,127
118596,note_on,1,0,0,,10,,,69,127
118596,note_on,0,0,0,,4,,,64,127
118596,note_on,0,0,0,,0,,,60,127
118596,note_on,0,0,0,,12,,,83,127
118705,note_off,109,0,0,,12,,,83,127
118706,note_on,1,0,0,,10,,,81,127
118815,note_off,109,0,0,,10,,,81,127
118816,note_on,1,0,0,,7,,,79,127
118925,note_off,109,0,0,,7,,,79,127
118926,note_on,1,0,0,,6,,,78,127
119035,note_off,109,0,0,,6,,,78,127
119035,note_off,0,0,0,,0,,,60,127
119035,note_off,0,0,0,,4,,,64,127
119035,note_off,0,0,0,,10,,,69,127
119036,note_on,1,0,0,,4,,,64,127
119036,note_on,0,0,0,,7,,,67,127
119036,note_on,0,0,0,,12,,,59,127
119036,note_on,0,0,0,,4,,,76,127
119254,note_off,218,0,0,,4,,,76,127
119255,note_on,1,0,0,,12,,,71,127
119364,note_off,109,0,0,,12,,,71,127
119365,note_on,1,0,0,,4,,,76,127
119474,note_off,109,0,0,,4,,,76,127
119474,note_off,0,0,0,,12,,,59,127
119474,note_off,0,0,0,,7,,,67,127
119474,note_off,0,0,0,,4,,,64,127
119475,note_on,1,0,0,,12,,,59,127
119475,note_on,0,0,0,,6,,,66,127
119475,note_on,0,0,0,,4,,,76,127
119585,note_off,110,0,0,,4,,,76,127
119585,note_on,0,0,0,,3,,,75,127
119695,note_off,110,0,0,,3,,,75,127
119695,note_on,0,0,0,,1,,,73,127
119805,note_off,110,0,0,,1,,,73,127
119805,note_on,0,0,0,,3,,,75,127
119914,note_off,109,0,0,,6,,,66,127
119914,note_off,0,0,0,,12,,,59,127
119915,note_off,1,0,0,,3,,,75,127
119933,note_on,18,0,0,,4,,,52,127
119933,note_on,0,0,0,,10,,,57,127
119933,note_on,0,0,0,,0,,,60,127
120155,note_on,222,0,0,,4,,,76,127
120374,note_off,219,0,0,,4,,,76,127
120374,note_off,0,0,0,,0,,,60,127
120374,note_off,0,0,0,,10,,,57,127
120374,note_off,0,0,0,,4,,,52,127
120376,note_on,2,0,0,,0,,,72,127
120376,note_on,0,0,0,,3,,,51,127
120376,note_on,0,0,0,,10,,,57,127
120376,note_on,0,0,0,,0,,,60,127
120595,note_off,219,0,0,,0,,,72,127
120597,note_on,2,0,0,,10,,,69,127
120816,note_off,219,0,0,,10,,,69,127
120816,note_off,0,0,0,,0,,,60,127
120816,note_off,0,0,0,,10,,,57,127
120816,note_off,0,0,0,,3,,,51,127
120818,note_on,2,0,0,,0,,,72,127
120818,note_on,0,0,0,,3,,,51,127
120818,note_on,0,0,0,,10,,,57,127
120818,note_on,0,0,0,,0,,,60,127
121037,note_off,219,0,0,,0,,,72,127
121039,note_on,2,0,0,,10,,,69,127
121258,note_off,219,0,0,,10,,,69,127
121258,note_off,0,0,0,,0,,,60,127
121258,note_off,0,0,0,,10,,,57,127
121258,note_off,0,0,0,,3,,,51,127
121260,note_on,2,0,0,,0,,,72,127
121260,note_on,0,0,0,,3,,,51,127
121260,note_on,0,0,0,,0,,,60,127
121260,note_on,0,0,0,,10,,,57,127
121479,note_off,219,0,0,,0,,,72,127
121481,note_on,2,0,0,,10,,,69,127
121700,note_off,219,0,0,,10,,,57,127
121700,note_off,0,0,0,,0,,,60,127
121700,note_off,0,0,0,,3,,,51,127
121702,note_on,2,0,0,,4,,,52,127
121702,note_on,0,0,0,,12,,,59,127
121812,note_off,110,0,0,,10,,,69,127
121813,note_on,1,0,0,,7,,,67,127
121922,note_off,109,0,0,,7,,,67,127
121923,note_on,1,0,0,,6,,,66,127
122032,note_off,109,0,0,,6,,,66,127
122034,note_on,2,0,0,,7,,,67,127
122143,note_off,109,0,0,,7,,,67,127
122144,note_off,1,0,0,,12,,,59,127
122144,note_off,0,0,0,,4,,,52,127
122145,note_on,1,0,0,,12,,,71,127
122145,note_on,0,0,0,,0,,,48,127
122254,note_off,109,0,0,,12,,,71,127
122256,note_on,2,0,0,,10,,,69,127
122365,note_off,109,0,0,,10,,,69,127
122367,note_on,2,0,0,,7,,,67,127
122476,note_off,109,0,0,,7,,,67,127
122478,note_on,2,0,0,,6,,,66,127
122587,note_off,109,0,0,,6,,,66,127
122587,note_off,0,0,0,,0,,,48,127
122589,note_on,2,0,0,,4,,,64,127
122589,note_on,0,0,0,,12,,,47,127
122808,note_off,219,0,0,,4,,,64,127
122822,note_on,14,0,0,,12,,,59,127
122935,note_off,113,0,0,,12,,,59,127
122942,note_on,7,0,0,,4,,,64,127
123030,note_off,88,0,0,,12,,,47,127
123055,note_off,25,0,0,,4,,,64,127
123062,note_on,7,0,0,,4,,,64,127
123062,note_on,0,0,0,,12,,,47,127
123176,note_off,114,0,0,,4,,,64,127
123182,note_on,6,0,0,,3,,,63,127
123296,note_off,114,0,0,,3,,,63,127
123303,note_on,7,0,0,,1,,,61,127
123417,note_off,114,0,0,,1,,,61,127
123423,note_on,6,0,0,,3,,,63,127
123528,note_off,105,0,0,,12,,,47,127
123537,note_off,9,0,0,,3,,,63,127
123542,note_on,5,0,0,,4,,,64,127
123542,note_on,0,0,0,,4,,,40,127
123542,note_on,0,0,0,,4,,,52,127
125596,note_off,2054,0,0,,4,,,40,127
125597,note_off,1,0,0,,4,,,52,127
125598,note_off,1,0,0,,4,,,64,127
125952,end_of_track,354,1,0,,,,,,
