tick,type,time,meta,track,program,channel,pitch,tempo,note,velocity
0,copyright,0,1,0,,,,,,
0,program_change,0,0,0,6,0,,,,
0,pitchwheel,0,0,0,,0,0,,,
0,program_change,0,0,0,6,1,,,,
0,pitchwheel,0,0,0,,1,-590,,,
0,program_change,0,0,0,6,2,,,,
0,pitchwheel,0,0,0,,2,-272,,,
0,program_change,0,0,0,6,3,,,,
0,pitchwheel,0,0,0,,3,-353,,,
0,program_change,0,0,0,6,4,,,,
0,pitchwheel,0,0,0,,4,-560,,,
0,program_change,0,0,0,6,5,,,,
0,pitchwheel,0,0,0,,5,-80,,,
0,program_change,0,0,0,6,6,,,,
0,pitchwheel,0,0,0,,6,-625,,,
0,program_change,0,0,0,6,7,,,,
0,pitchwheel,0,0,0,,7,-130,,,
0,program_change,0,0,0,6,8,,,,
0,pitchwheel,0,0,0,,8,-512,,,
0,program_change,0,0,0,6,10,,,,
0,pitchwheel,0,0,0,,10,-464,,,
0,program_change,0,0,0,6,11,,,,
0,pitchwheel,0,0,0,,11,-208,,,
0,program_change,0,0,0,6,12,,,,
0,pitchwheel,0,0,0,,12,-553,,,
0,set_tempo,0,1,0,,,,500000,,
32,note_on,32,0,0,,4,,,64,127
32,note_on,0,0,0,,12,,,83,127
127,note_off,95,0,0,,4,,,64,127
128,note_on,1,0,0,,6,,,66,127
223,note_off,95,0,0,,6,,,66,127
224,note_on,1,0,0,,8,,,68,127
319,note_off,95,0,0,,8,,,68,127
320,note_on,1,0,0,,10,,,69,127
415,note_off,95,0,0,,10,,,69,127
416,note_on,1,0,0,,12,,,71,127
511,note_off,95,0,0,,12,,,71,127
512,note_on,1,0,0,,1,,,73,127
607,note_off,95,0,0,,1,,,73,127
607,note_off,0,0,0,,12,,,83,127
608,note_on,1,0,0,,12,,,71,127
608,note_on,0,0,0,,12,,,83,127
703,note_off,95,0,0,,12,,,71,127
704,note_on,1,0,0,,10,,,69,127
799,note_off,95,0,0,,10,,,69,127
800,note_on,1,0,0,,8,,,68,127
895,note_off,95,0,0,,8,,,68,127
896,note_on,1,0,0,,6,,,66,127
991,note_off,95,0,0,,6,,,66,127
992,note_on,1,0,0,,4,,,64,127
1087,note_off,95,0,0,,4,,,64,127
1088,note_on,1,0,0,,3,,,63,127
1183,note_off,95,0,0,,3,,,63,127
1183,note_off,0,0,0,,12,,,83,127
1184,note_on,1,0,0,,1,,,61,127
1184,note_on,0,0,0,,1,,,85,127
1279,note_off,95,0,0,,1,,,61,127
1280,note_on,1,0,0,,3,,,63,127
1375,note_off,95,0,0,,3,,,63,127
1376,note_on,1,0,0,,4,,,64,127
1471,note_off,95,0,0,,4,,,64,127
1472,note_on,1,0,0,,6,,,66,127
1567,note_off,95,0,0,,6,,,66,127
1568,note_on,1,0,0,,8,,,68,127
1663,note_off,95,0,0,,8,,,68,127
1664,note_on,1,0,0,,10,,,69,127
1759,note_off,95,0,0,,10,,,69,127
1759,note_off,0,0,0,,1,,,85,127
1760,note_on,1,0,0,,8,,,68,127
1760,note_on,0,0,0,,1,,,85,127
1855,note_off,95,0,0,,8,,,68,127
1856,note_on,1,0,0,,6,,,66,127
1951,note_off,95,0,0,,6,,,66,127
1952,note_on,1,0,0,,4,,,64,127
2047,note_off,95,0,0,,4,,,64,127
2048,note_on,1,0,0,,3,,,63,127
2143,note_off,95,0,0,,3,,,63,127
2144,note_on,1,0,0,,1,,,61,127
2239,note_off,95,0,0,,1,,,61,127
2240,note_on,1,0,0,,12,,,59,127
2335,note_off,95,0,0,,12,,,59,127
2335,note_off,0,0,0,,1,,,85,127
2336,note_on,1,0,0,,10,,,57,127
2336,note_on,0,0,0,,1,,,85,127
2431,note_off,95,0,0,,10,,,57,127
2432,note_on,1,0,0,,12,,,59,127
2527,note_off,95,0,0,,12,,,59,127
2528,note_on,1,0,0,,1,,,61,127
2623,note_off,95,0,0,,1,,,61,127
2624,note_on,1,0,0,,3,,,63,127
2719,note_off,95,0,0,,3,,,63,127
2720,note_on,1,0,0,,4,,,64,127
2815,note_off,95,0,0,,4,,,64,127
2816,note_on,1,0,0,,6,,,66,127
2911,note_off,95,0,0,,6,,,66,127
2911,note_off,0,0,0,,1,,,85,127
2912,note_on,1,0,0,,4,,,64,127
2912,note_on,0,0,0,,1,,,85,127
3007,note_off,95,0,0,,4,,,64,127
3008,note_on,1,0,0,,3,,,63,127
3103,note_off,95,0,0,,3,,,63,127
3104,note_on,1,0,0,,1,,,61,127
3199,note_off,95,0,0,,1,,,61,127
3200,note_on,1,0,0,,12,,,59,127
3295,note_off,95,0,0,,12,,,59,127
3296,note_on,1,0,0,,10,,,57,127
3391,note_off,95,0,0,,10,,,57,127
3392,note_on,1,0,0,,8,,,56,127
3487,note_off,95,0,0,,8,,,56,127
3487,note_off,0,0,0,,1,,,85,127
3488,note_on,1,0,0,,6,,,54,127
3488,note_on,0,0,0,,10,,,81,127
3583,note_off,95,0,0,,6,,,54,127
3584,note_on,1,0,0,,8,,,56,127
3679,note_off,95,0,0,,8,,,56,127
3680,note_on,1,0,0,,10,,,57,127
3775,note_off,95,0,0,,10,,,57,127
3776,note_on,1,0,0,,12,,,59,127
3871,note_off,95,0,0,,12,,,59,127
3872,note_on,1,0,0,,1,,,61,127
3967,note_off,95,0,0,,1,,,61,127
3968,note_on,1,0,0,,12,,,59,127
4063,note_off,95,0,0,,12,,,59,127
4063,note_off,0,0,0,,10,,,81,127
4064,note_on,1,0,0,,10,,,57,127
4064,note_on,0,0,0,,10,,,81,127
4159,note_off,95,0,0,,10,,,57,127
4160,note_on,1,0,0,,8,,,56,127
4255,note_off,95,0,0,,8,,,56,127
4256,note_on,1,0,0,,6,,,54,127
4351,note_off,95,0,0,,6,,,54,127
4352,note_on,1,0,0,,4,,,52,127
4447,note_off,95,0,0,,4,,,52,127
4448,note_on,1,0,0,,3,,,51,127
4543,note_off,95,0,0,,3,,,51,127
4544,note_on,1,0,0,,1,,,49,127
4639,note_off,95,0,0,,1,,,49,127
4640,note_on,1,0,0,,12,,,47,127
4735,note_off,95,0,0,,10,,,81,127
4736,note_on,1,0,0,,8,,,80,127
4831,note_off,95,0,0,,8,,,80,127
4832,note_on,1,0,0,,6,,,78,127
4927,note_off,95,0,0,,6,,,78,127
4928,note_on,1,0,0,,4,,,76,127
5023,note_off,95,0,0,,4,,,76,127
5024,note_on,1,0,0,,3,,,75,127
5119,note_off,95,0,0,,3,,,75,127
5120,note_on,1,0,0,,1,,,73,127
5215,note_off,95,0,0,,1,,,73,127
5215,note_off,0,0,0,,12,,,47,127
5216,note_on,1,0,0,,12,,,47,127
5216,note_on,0,0,0,,12,,,71,127
5311,note_off,95,0,0,,12,,,71,127
5312,note_on,1,0,0,,10,,,69,127
5407,note_off,95,0,0,,10,,,69,127
5408,note_on,1,0,0,,8,,,68,127
5503,note_off,95,0,0,,8,,,68,127
5504,note_on,1,0,0,,6,,,66,127
5599,note_off,95,0,0,,6,,,66,127
5600,note_on,1,0,0,,4,,,64,127
5695,note_off,95,0,0,,4,,,64,127
5696,note_on,1,0,0,,3,,,63,127
5791,note_off,95,0,0,,3,,,63,127
5791,note_off,0,0,0,,12,,,47,127
5792,note_on,1,0,0,,4,,,52,127
5792,note_on,0,0,0,,4,,,64,127
5887,note_off,95,0,0,,4,,,64,127
5888,note_on,1,0,0,,6,,,66,127
5983,note_off,95,0,0,,6,,,66,127
5983,note_off,0,0,0,,4,,,52,127
5984,note_on,1,0,0,,6,,,54,127
5984,note_on,0,0,0,,8,,,68,127
6079,note_off,95,0,0,,8,,,68,127
6080,note_on,1,0,0,,10,,,69,127
6175,note_off,95,0,0,,10,,,69,127
6175,note_off,0,0,0,,6,,,54,127
6176,note_on,1,0,0,,8,,,56,127
6176,note_on,0,0,0,,12,,,71,127
6271,note_off,95,0,0,,12,,,71,127
6272,note_on,1,0,0,,1,,,73,127
6367,note_off,95,0,0,,1,,,73,127
6367,note_off,0,0,0,,8,,,56,127
6368,note_on,1,0,0,,10,,,57,127
6368,note_on,0,0,0,,3,,,75,127
6463,note_off,95,0,0,,3,,,75,127
6464,note_on,1,0,0,,4,,,76,127
6559,note_off,95,0,0,,4,,,76,127
6559,note_off,0,0,0,,10,,,57,127
6560,note_on,1,0,0,,12,,,59,127
6560,note_on,0,0,0,,12,,,71,127
6655,note_off,95,0,0,,12,,,71,127
6656,note_on,1,0,0,,10,,,69,127
6751,note_off,95,0,0,,10,,,69,127
6751,note_off,0,0,0,,12,,,59,127
6752,note_on,1,0,0,,12,,,47,127
6752,note_on,0,0,0,,8,,,68,127
6847,note_off,95,0,0,,8,,,68,127
6848,note_on,1,0,0,,6,,,66,127
6943,note_off,95,0,0,,6,,,66,127
6943,note_off,0,0,0,,12,,,47,127
6944,note_on,1,0,0,,4,,,40,127
6944,note_on,0,0,0,,6,,,66,127
6992,note_off,48,0,0,,6,,,66,127
6992,note_on,0,0,0,,4,,,64,127
7040,note_off,48,0,0,,4,,,64,127
7040,note_on,0,0,0,,6,,,66,127
7088,note_off,48,0,0,,6,,,66,127
7088,note_on,0,0,0,,4,,,64,127
7519,note_off,431,0,0,,4,,,40,127
7520,note_off,1,0,0,,4,,,64,127
7536,note_on,16,0,0,,10,,,81,127
7536,note_on,0,0,0,,12,,,71,127
7536,note_on,0,0,0,,8,,,68,127
7536,note_on,0,0,0,,4,,,64,127
7584,note_off,48,0,0,,10,,,81,127
7584,note_on,0,0,0,,8,,,80,127
7632,note_off,48,0,0,,8,,,80,127
7632,note_on,0,0,0,,10,,,81,127
7680,note_off,48,0,0,,10,,,81,127
7680,note_on,0,0,0,,8,,,80,127
7727,note_off,47,0,0,,4,,,64,127
7727,note_off,0,0,0,,8,,,68,127
7727,note_off,0,0,0,,12,,,71,127
7728,note_on,1,0,0,,4,,,64,127
7728,note_on,0,0,0,,8,,,68,127
7728,note_on,0,0,0,,12,,,71,127
7919,note_off,191,0,0,,12,,,71,127
7919,note_off,0,0,0,,8,,,68,127
7919,note_off,0,0,0,,4,,,64,127
7920,note_on,1,0,0,,12,,,71,127
7920,note_on,0,0,0,,4,,,64,127
7920,note_on,0,0,0,,8,,,68,127
8111,note_off,191,0,0,,8,,,68,127
8111,note_off,0,0,0,,4,,,64,127
8111,note_off,0,0,0,,12,,,71,127
8112,note_off,1,0,0,,8,,,80,127
8112,note_on,0,0,0,,10,,,81,127
8112,note_on,0,0,0,,12,,,71,127
8112,note_on,0,0,0,,3,,,63,127
8112,note_on,0,0,0,,8,,,68,127
8160,note_off,48,0,0,,10,,,81,127
8160,note_on,0,0,0,,8,,,80,127
8208,note_off,48,0,0,,8,,,80,127
8208,note_on,0,0,0,,10,,,81,127
8256,note_off,48,0,0,,10,,,81,127
8256,note_on,0,0,0,,8,,,80,127
8303,note_off,47,0,0,,8,,,68,127
8303,note_off,0,0,0,,3,,,63,127
8303,note_off,0,0,0,,12,,,71,127
8304,note_on,1,0,0,,8,,,68,127
8304,note_on,0,0,0,,12,,,71,127
8304,note_on,0,0,0,,3,,,63,127
8495,note_off,191,0,0,,3,,,63,127
8495,note_off,0,0,0,,12,,,71,127
8495,note_off,0,0,0,,8,,,68,127
8496,note_on,1,0,0,,12,,,71,127
8496,note_on,0,0,0,,8,,,68,127
8496,note_on,0,0,0,,3,,,63,127
8687,note_off,191,0,0,,3,,,63,127
8687,note_off,0,0,0,,8,,,68,127
8687,note_off,0,0,0,,12,,,71,127
8688,note_off,1,0,0,,8,,,80,127
8688,note_on,0,0,0,,11,,,82,127
8688,note_on,0,0,0,,11,,,70,127
8688,note_on,0,0,0,,3,,,63,127
8688,note_on,0,0,0,,7,,,67,127
8879,note_off,191,0,0,,7,,,67,127
8879,note_off,0,0,0,,3,,,63,127
8879,note_off,0,0,0,,11,,,70,127
8879,note_off,0,0,0,,11,,,82,127
8880,note_on,1,0,0,,12,,,83,127
8880,note_on,0,0,0,,11,,,70,127
8880,note_on,0,0,0,,7,,,67,127
8880,note_on,0,0,0,,3,,,63,127
9071,note_off,191,0,0,,3,,,63,127
9071,note_off,0,0,0,,7,,,67,127
9071,note_off,0,0,0,,11,,,70,127
9071,note_off,0,0,0,,12,,,83,127
9072,note_on,1,0,0,,1,,,85,127
9072,note_on,0,0,0,,11,,,70,127
9072,note_on,0,0,0,,3,,,63,127
9072,note_on,0,0,0,,7,,,67,127
9263,note_off,191,0,0,,7,,,67,127
9263,note_off,0,0,0,,3,,,63,127
9263,note_off,0,0,0,,11,,,70,127
9263,note_off,0,0,0,,1,,,85,127
9264,note_on,1,0,0,,1,,,85,127
9264,note_on,0,0,0,,12,,,71,127
9264,note_on,0,0,0,,8,,,68,127
9359,note_off,95,0,0,,1,,,85,127
9360,note_on,1,0,0,,12,,,83,127
9408,note_off,48,0,0,,12,,,83,127
9408,note_on,0,0,0,,1,,,85,127
9456,note_off,48,0,0,,1,,,85,127
9456,note_on,0,0,0,,12,,,83,127
9504,note_off,48,0,0,,12,,,83,127
9504,note_on,0,0,0,,1,,,85,127
9552,note_off,48,0,0,,1,,,85,127
9552,note_on,0,0,0,,12,,,83,127
9839,note_off,287,0,0,,8,,,68,127
9839,note_off,0,0,0,,12,,,71,127
9840,note_off,1,0,0,,12,,,83,127
9840,note_on,0,0,0,,8,,,80,127
9840,note_on,0,0,0,,6,,,66,127
9840,note_on,0,0,0,,12,,,71,127
9840,note_on,0,0,0,,2,,,62,127
9888,note_off,48,0,0,,8,,,80,127
9888,note_on,0,0,0,,6,,,78,127
9936,note_off,48,0,0,,6,,,78,127
9936,note_on,0,0,0,,8,,,80,127
9984,note_off,48,0,0,,8,,,80,127
9984,note_on,0,0,0,,6,,,78,127
10031,note_off,47,0,0,,2,,,62,127
10031,note_off,0,0,0,,12,,,71,127
10031,note_off,0,0,0,,6,,,66,127
10032,note_on,1,0,0,,2,,,62,127
10032,note_on,0,0,0,,12,,,71,127
10032,note_on,0,0,0,,6,,,66,127
10223,note_off,191,0,0,,6,,,66,127
10223,note_off,0,0,0,,12,,,71,127
10223,note_off,0,0,0,,2,,,62,127
10224,note_on,1,0,0,,2,,,62,127
10224,note_on,0,0,0,,12,,,71,127
10224,note_on,0,0,0,,6,,,66,127
10415,note_off,191,0,0,,6,,,66,127
10415,note_off,0,0,0,,12,,,71,127
10415,note_off,0,0,0,,2,,,62,127
10416,note_off,1,0,0,,6,,,78,127
10416,note_on,0,0,0,,8,,,80,127
10416,note_on,0,0,0,,10,,,69,127
10416,note_on,0,0,0,,6,,,66,127
10416,note_on,0,0,0,,1,,,61,127
10464,note_off,48,0,0,,8,,,80,127
10464,note_on,0,0,0,,6,,,78,127
10512,note_off,48,0,0,,6,,,78,127
10512,note_on,0,0,0,,8,,,80,127
10560,note_off,48,0,0,,8,,,80,127
10560,note_on,0,0,0,,6,,,78,127
10607,note_off,47,0,0,,1,,,61,127
10607,note_off,0,0,0,,6,,,66,127
10607,note_off,0,0,0,,10,,,69,127
10608,note_on,1,0,0,,6,,,66,127
10608,note_on,0,0,0,,1,,,61,127
10608,note_on,0,0,0,,10,,,69,127
10799,note_off,191,0,0,,10,,,69,127
10799,note_off,0,0,0,,1,,,61,127
10799,note_off,0,0,0,,6,,,66,127
10800,note_on,1,0,0,,1,,,61,127
10800,note_on,0,0,0,,6,,,66,127
10800,note_on,0,0,0,,10,,,69,127
10991,note_off,191,0,0,,10,,,69,127
10991,note_off,0,0,0,,6,,,66,127
10991,note_off,0,0,0,,1,,,61,127
10992,note_off,1,0,0,,6,,,78,127
10992,note_on,0,0,0,,8,,,80,127
10992,note_on,0,0,0,,1,,,61,127
10992,note_on,0,0,0,,5,,,65,127
10992,note_on,0,0,0,,8,,,68,127
11183,note_off,191,0,0,,8,,,68,127
11183,note_off,0,0,0,,5,,,65,127
11183,note_off,0,0,0,,1,,,61,127
11183,note_off,0,0,0,,8,,,80,127
11184,note_on,1,0,0,,10,,,81,127
11184,note_on,0,0,0,,1,,,61,127
11184,note_on,0,0,0,,5,,,65,127
11184,note_on,0,0,0,,8,,,68,127
11375,note_off,191,0,0,,8,,,68,127
11375,note_off,0,0,0,,5,,,65,127
11375,note_off,0,0,0,,1,,,61,127
11375,note_off,0,0,0,,10,,,81,127
11376,note_on,1,0,0,,12,,,83,127
11376,note_on,0,0,0,,8,,,68,127
11376,note_on,0,0,0,,1,,,61,127
11376,note_on,0,0,0,,5,,,65,127
11567,note_off,191,0,0,,5,,,65,127
11567,note_off,0,0,0,,1,,,61,127
11567,note_off,0,0,0,,8,,,68,127
11567,note_off,0,0,0,,12,,,83,127
11568,note_on,1,0,0,,12,,,83,127
11568,note_on,0,0,0,,6,,,66,127
11568,note_on,0,0,0,,10,,,69,127
11663,note_off,95,0,0,,12,,,83,127
11664,note_on,1,0,0,,10,,,81,127
11712,note_off,48,0,0,,10,,,81,127
11712,note_on,0,0,0,,12,,,83,127
11760,note_off,48,0,0,,12,,,83,127
11760,note_on,0,0,0,,10,,,81,127
11808,note_off,48,0,0,,10,,,81,127
11808,note_on,0,0,0,,12,,,83,127
11856,note_off,48,0,0,,12,,,83,127
11856,note_on,0,0,0,,10,,,81,127
12143,note_off,287,0,0,,10,,,69,127
12143,note_off,0,0,0,,6,,,66,127
12144,note_off,1,0,0,,10,,,81,127
12144,note_on,0,0,0,,6,,,78,127
12144,note_on,0,0,0,,10,,,69,127
12144,note_on,0,0,0,,4,,,64,127
12144,note_on,0,0,0,,1,,,61,127
12192,note_off,48,0,0,,6,,,78,127
12192,note_on,0,0,0,,4,,,76,127
12240,note_off,48,0,0,,4,,,76,127
12240,note_on,0,0,0,,6,,,78,127
12288,note_off,48,0,0,,6,,,78,127
12288,note_on,0,0,0,,4,,,76,127
12335,note_off,47,0,0,,1,,,61,127
12335,note_off,0,0,0,,4,,,64,127
12335,note_off,0,0,0,,10,,,69,127
12336,note_on,1,0,0,,10,,,69,127
12336,note_on,0,0,0,,4,,,64,127
12336,note_on,0,0,0,,1,,,61,127
12527,note_off,191,0,0,,1,,,61,127
12527,note_off,0,0,0,,4,,,64,127
12527,note_off,0,0,0,,10,,,69,127
12528,note_on,1,0,0,,10,,,69,127
12528,note_on,0,0,0,,1,,,61,127
12528,note_on,0,0,0,,4,,,64,127
12719,note_off,191,0,0,,4,,,64,127
12719,note_off,0,0,0,,1,,,61,127
12719,note_off,0,0,0,,10,,,69,127
12720,note_off,1,0,0,,4,,,76,127
12720,note_on,0,0,0,,6,,,78,127
12720,note_on,0,0,0,,4,,,64,127
12720,note_on,0,0,0,,8,,,68,127
12720,note_on,0,0,0,,12,,,59,127
12768,note_off,48,0,0,,6,,,78,127
12768,note_on,0,0,0,,4,,,76,127
12816,note_off,48,0,0,,4,,,76,127
12816,note_on,0,0,0,,6,,,78,127
12864,note_off,48,0,0,,6,,,78,127
12864,note_on,0,0,0,,4,,,76,127
12911,note_off,47,0,0,,12,,,59,127
12911,note_off,0,0,0,,8,,,68,127
12911,note_off,0,0,0,,4,,,64,127
12912,note_on,1,0,0,,8,,,68,127
12912,note_on,0,0,0,,12,,,59,127
12912,note_on,0,0,0,,4,,,64,127
13103,note_off,191,0,0,,4,,,64,127
13103,note_off,0,0,0,,12,,,59,127
13103,note_off,0,0,0,,8,,,68,127
13104,note_on,1,0,0,,4,,,64,127
13104,note_on,0,0,0,,8,,,68,127
13104,note_on,0,0,0,,12,,,59,127
13295,note_off,191,0,0,,12,,,59,127
13295,note_off,0,0,0,,8,,,68,127
13295,note_off,0,0,0,,4,,,64,127
13296,note_off,1,0,0,,4,,,76,127
13296,note_on,0,0,0,,6,,,78,127
13296,note_on,0,0,0,,6,,,66,127
13296,note_on,0,0,0,,12,,,59,127
13296,note_on,0,0,0,,3,,,63,127
13487,note_off,191,0,0,,3,,,63,127
13487,note_off,0,0,0,,12,,,59,127
13487,note_off,0,0,0,,6,,,66,127
13487,note_off,0,0,0,,6,,,78,127
13488,note_on,1,0,0,,8,,,80,127
13488,note_on,0,0,0,,3,,,63,127
13488,note_on,0,0,0,,6,,,66,127
13488,note_on,0,0,0,,12,,,59,127
13679,note_off,191,0,0,,12,,,59,127
13679,note_off,0,0,0,,6,,,66,127
13679,note_off,0,0,0,,3,,,63,127
13679,note_off,0,0,0,,8,,,80,127
13680,note_on,1,0,0,,10,,,81,127
13680,note_on,0,0,0,,6,,,66,127
13680,note_on,0,0,0,,3,,,63,127
13680,note_on,0,0,0,,12,,,59,127
13871,note_off,191,0,0,,12,,,59,127
13871,note_off,0,0,0,,3,,,63,127
13871,note_off,0,0,0,,6,,,66,127
13871,note_off,0,0,0,,10,,,81,127
13872,note_on,1,0,0,,8,,,80,127
13872,note_on,0,0,0,,12,,,71,127
13872,note_on,0,0,0,,4,,,64,127
13872,note_on,0,0,0,,8,,,68,127
14063,note_off,191,0,0,,8,,,68,127
14063,note_off,0,0,0,,4,,,64,127
14063,note_off,0,0,0,,12,,,71,127
14063,note_off,0,0,0,,8,,,80,127
14064,note_on,1,0,0,,12,,,83,127
14064,note_on,0,0,0,,12,,,71,127
14064,note_on,0,0,0,,8,,,68,127
14064,note_on,0,0,0,,4,,,64,127
14255,note_off,191,0,0,,4,,,64,127
14255,note_off,0,0,0,,8,,,68,127
14255,note_off,0,0,0,,12,,,71,127
14256,note_on,1,0,0,,12,,,71,127
14256,note_on,0,0,0,,8,,,68,127
14256,note_on,0,0,0,,4,,,64,127
14447,note_off,191,0,0,,4,,,64,127
14447,note_off,0,0,0,,8,,,68,127
14447,note_off,0,0,0,,12,,,71,127
14447,note_off,0,0,0,,12,,,83,127
14448,note_on,1,0,0,,6,,,78,127
14448,note_on,0,0,0,,12,,,71,127
14448,note_on,0,0,0,,6,,,66,127
14448,note_on,0,0,0,,3,,,63,127
14639,note_off,191,0,0,,3,,,63,127
14639,note_off,0,0,0,,6,,,66,127
14639,note_off,0,0,0,,12,,,71,127
14639,note_off,0,0,0,,6,,,78,127
14640,note_on,1,0,0,,12,,,83,127
14640,note_on,0,0,0,,6,,,66,127
14640,note_on,0,0,0,,12,,,71,127
14640,note_on,0,0,0,,3,,,63,127
14831,note_off,191,0,0,,3,,,63,127
14831,note_off,0,0,0,,12,,,71,127
14831,note_off,0,0,0,,6,,,66,127
14832,note_on,1,0,0,,3,,,63,127
14832,note_on,0,0,0,,12,,,71,127
14832,note_on,0,0,0,,6,,,66,127
15023,note_off,191,0,0,,6,,,66,127
15023,note_off,0,0,0,,12,,,71,127
15023,note_off,0,0,0,,3,,,63,127
15023,note_off,0,0,0,,12,,,83,127
15024,note_on,1,0,0,,4,,,76,127
15024,note_on,0,0,0,,12,,,71,127
15024,note_on,0,0,0,,4,,,64,127
15024,note_on,0,0,0,,1,,,61,127
15215,note_off,191,0,0,,1,,,61,127
15215,note_off,0,0,0,,4,,,64,127
15215,note_off,0,0,0,,12,,,71,127
15215,note_off,0,0,0,,4,,,76,127
15216,note_on,1,0,0,,12,,,83,127
15216,note_on,0,0,0,,12,,,71,127
15216,note_on,0,0,0,,4,,,64,127
15216,note_on,0,0,0,,1,,,61,127
15407,note_off,191,0,0,,1,,,61,127
15407,note_off,0,0,0,,4,,,64,127
15407,note_off,0,0,0,,12,,,71,127
15408,note_on,1,0,0,,12,,,71,127
15408,note_on,0,0,0,,1,,,61,127
15408,note_on,0,0,0,,4,,,64,127
15599,note_off,191,0,0,,4,,,64,127
15599,note_off,0,0,0,,1,,,61,127
15599,note_off,0,0,0,,12,,,71,127
15599,note_off,0,0,0,,12,,,83,127
15600,note_on,1,0,0,,3,,,75,127
15600,note_on,0,0,0,,6,,,66,127
15600,note_on,0,0,0,,12,,,59,127
15791,note_off,191,0,0,,12,,,59,127
15791,note_off,0,0,0,,6,,,66,127
15791,note_off,0,0,0,,3,,,75,127
15792,note_on,1,0,0,,12,,,83,127
15792,note_on,0,0,0,,6,,,66,127
15792,note_on,0,0,0,,12,,,59,127
15983,note_off,191,0,0,,12,,,59,127
15983,note_off,0,0,0,,6,,,66,127
15984,note_on,1,0,0,,6,,,66,127
15984,note_on,0,0,0,,12,,,59,127
16175,note_off,191,0,0,,12,,,59,127
16175,note_off,0,0,0,,6,,,66,127
16176,note_on,1,0,0,,4,,,52,127
16367,note_off,191,0,0,,12,,,83,127
16368,note_on,1,0,0,,8,,,80,127
16559,note_off,191,0,0,,8,,,80,127
16560,note_on,1,0,0,,4,,,76,127
16751,note_off,191,0,0,,4,,,52,127
16752,note_on,1,0,0,,4,,,64,127
16943,note_off,191,0,0,,4,,,76,127
16944,note_on,1,0,0,,1,,,73,127
17135,note_off,191,0,0,,1,,,73,127
17136,note_on,1,0,0,,12,,,71,127
17327,note_off,191,0,0,,4,,,64,127
17328,note_on,1,0,0,,6,,,54,127
17424,note_off,96,0,0,,12,,,71,127
17424,note_on,0,0,0,,11,,,70,127
17472,note_off,48,0,0,,11,,,70,127
17472,note_on,0,0,0,,12,,,71,127
17520,note_off,48,0,0,,12,,,71,127
17520,note_on,0,0,0,,11,,,70,127
17568,note_off,48,0,0,,11,,,70,127
17568,note_on,0,0,0,,12,,,71,127
17616,note_off,48,0,0,,12,,,71,127
17616,note_on,0,0,0,,11,,,70,127
17903,note_off,287,0,0,,6,,,54,127
17904,note_off,1,0,0,,11,,,70,127
17912,note_on,8,0,0,,6,,,66,127
17912,note_on,0,0,0,,11,,,70,127
18007,note_off,95,0,0,,11,,,70,127
18008,note_on,1,0,0,,1,,,73,127
18103,note_off,95,0,0,,1,,,73,127
18103,note_off,0,0,0,,6,,,66,127
18104,note_on,1,0,0,,8,,,68,127
18104,note_on,0,0,0,,12,,,71,127
18199,note_off,95,0,0,,12,,,71,127
18200,note_on,1,0,0,,3,,,75,127
18295,note_off,95,0,0,,3,,,75,127
18295,note_off,0,0,0,,8,,,68,127
18296,note_on,1,0,0,,11,,,70,127
18296,note_on,0,0,0,,1,,,73,127
18391,note_off,95,0,0,,1,,,73,127
18392,note_on,1,0,0,,4,,,76,127
18487,note_off,95,0,0,,4,,,76,127
18487,note_off,0,0,0,,11,,,70,127
18488,note_on,1,0,0,,12,,,71,127
18488,note_on,0,0,0,,3,,,75,127
18583,note_off,95,0,0,,3,,,75,127
18584,note_on,1,0,0,,6,,,78,127
18679,note_off,95,0,0,,6,,,78,127
18679,note_off,0,0,0,,12,,,71,127
18680,note_on,1,0,0,,1,,,73,127
18680,note_on,0,0,0,,4,,,76,127
18775,note_off,95,0,0,,4,,,76,127
18776,note_on,1,0,0,,8,,,80,127
18871,note_off,95,0,0,,8,,,80,127
18871,note_off,0,0,0,,1,,,73,127
18872,note_on,1,0,0,,3,,,75,127
18872,note_on,0,0,0,,6,,,78,127
18967,note_off,95,0,0,,6,,,78,127
18968,note_on,1,0,0,,8,,,80,127
19063,note_off,95,0,0,,8,,,80,127
19063,note_off,0,0,0,,3,,,75,127
19064,note_on,1,0,0,,6,,,66,127
19064,note_on,0,0,0,,11,,,70,127
19159,note_off,95,0,0,,11,,,70,127
19160,note_on,1,0,0,,1,,,73,127
19255,note_off,95,0,0,,1,,,73,127
19255,note_off,0,0,0,,6,,,66,127
19256,note_on,1,0,0,,8,,,68,127
19256,note_on,0,0,0,,12,,,71,127
19351,note_off,95,0,0,,12,,,71,127
19352,note_on,1,0,0,,3,,,75,127
19447,note_off,95,0,0,,3,,,75,127
19447,note_off,0,0,0,,8,,,68,127
19448,note_on,1,0,0,,11,,,70,127
19448,note_on,0,0,0,,1,,,73,127
19543,note_off,95,0,0,,1,,,73,127
19544,note_on,1,0,0,,4,,,76,127
19639,note_off,95,0,0,,4,,,76,127
19639,note_off,0,0,0,,11,,,70,127
19640,note_on,1,0,0,,12,,,71,127
19640,note_on,0,0,0,,3,,,75,127
19735,note_off,95,0,0,,3,,,75,127
19736,note_on,1,0,0,,6,,,78,127
19831,note_off,95,0,0,,6,,,78,127
19831,note_off,0,0,0,,12,,,71,127
19832,note_on,1,0,0,,1,,,73,127
19832,note_on,0,0,0,,4,,,76,127
19927,note_off,95,0,0,,4,,,76,127
19928,note_on,1,0,0,,8,,,80,127
20023,note_off,95,0,0,,8,,,80,127
20023,note_off,0,0,0,,1,,,73,127
20024,note_on,1,0,0,,3,,,75,127
20024,note_on,0,0,0,,6,,,78,127
20119,note_off,95,0,0,,6,,,78,127
20120,note_on,1,0,0,,8,,,80,127
20215,note_off,95,0,0,,8,,,80,127
20215,note_off,0,0,0,,3,,,75,127
20216,note_on,1,0,0,,6,,,66,127
20216,note_on,0,0,0,,11,,,70,127
20311,note_off,95,0,0,,11,,,70,127
20312,note_on,1,0,0,,1,,,73,127
20407,note_off,95,0,0,,1,,,73,127
20407,note_off,0,0,0,,6,,,66,127
20408,note_on,1,0,0,,8,,,68,127
20408,note_on,0,0,0,,12,,,71,127
20503,note_off,95,0,0,,12,,,71,127
20504,note_on,1,0,0,,3,,,75,127
20599,note_off,95,0,0,,3,,,75,127
20599,note_off,0,0,0,,8,,,68,127
20600,note_on,1,0,0,,11,,,70,127
20600,note_on,0,0,0,,1,,,73,127
20695,note_off,95,0,0,,1,,,73,127
20696,note_on,1,0,0,,4,,,76,127
20791,note_off,95,0,0,,4,,,76,127
20791,note_off,0,0,0,,11,,,70,127
20792,note_on,1,0,0,,12,,,71,127
20792,note_on,0,0,0,,3,,,75,127
20887,note_off,95,0,0,,3,,,75,127
20888,note_on,1,0,0,,6,,,78,127
20983,note_off,95,0,0,,6,,,78,127
20983,note_off,0,0,0,,12,,,71,127
20984,note_on,1,0,0,,1,,,73,127
20984,note_on,0,0,0,,4,,,76,127
21079,note_off,95,0,0,,4,,,76,127
21080,note_on,1,0,0,,8,,,80,127
21175,note_off,95,0,0,,8,,,80,127
21175,note_off,0,0,0,,1,,,73,127
21176,note_on,1,0,0,,3,,,75,127
21176,note_on,0,0,0,,6,,,78,127
21271,note_off,95,0,0,,6,,,78,127
21272,note_on,1,0,0,,8,,,80,127
21367,note_off,95,0,0,,8,,,80,127
21367,note_off,0,0,0,,3,,,75,127
21368,note_on,1,0,0,,4,,,64,127
21368,note_on,0,0,0,,6,,,78,127
21463,note_off,95,0,0,,6,,,78,127
21464,note_on,1,0,0,,4,,,76,127
21559,note_off,95,0,0,,4,,,76,127
21559,note_off,0,0,0,,4,,,64,127
21560,note_on,1,0,0,,6,,,66,127
21560,note_on,0,0,0,,3,,,75,127
21655,note_off,95,0,0,,3,,,75,127
21656,note_on,1,0,0,,1,,,73,127
21751,note_off,95,0,0,,1,,,73,127
21751,note_off,0,0,0,,6,,,66,127
21752,note_on,1,0,0,,6,,,54,127
21752,note_on,0,0,0,,12,,,71,127
21847,note_off,95,0,0,,12,,,71,127
21848,note_on,1,0,0,,11,,,70,127
21943,note_off,95,0,0,,11,,,70,127
21943,note_off,0,0,0,,6,,,54,127
21944,note_on,1,0,0,,12,,,47,127
21944,note_on,0,0,0,,12,,,71,127
22039,note_off,95,0,0,,12,,,71,127
22040,note_on,1,0,0,,1,,,73,127
22135,note_off,95,0,0,,1,,,73,127
22136,note_on,1,0,0,,3,,,75,127
22231,note_off,95,0,0,,3,,,75,127
22232,note_on,1,0,0,,4,,,76,127
22327,note_off,95,0,0,,4,,,76,127
22328,note_on,1,0,0,,6,,,78,127
22423,note_off,95,0,0,,6,,,78,127
22424,note_on,1,0,0,,8,,,80,127
22519,note_off,95,0,0,,8,,,80,127
22519,note_off,0,0,0,,12,,,47,127
22520,note_on,1,0,0,,6,,,54,127
22520,note_on,0,0,0,,8,,,80,127
22568,note_off,48,0,0,,8,,,80,127
22568,note_on,0,0,0,,6,,,78,127
22615,note_off,47,0,0,,6,,,54,127
22616,note_off,1,0,0,,6,,,78,127
22616,note_on,0,0,0,,11,,,58,127
22616,note_on,0,0,0,,8,,,80,127
22664,note_off,48,0,0,,8,,,80,127
22664,note_on,0,0,0,,6,,,78,127
22711,note_off,47,0,0,,11,,,58,127
22712,note_on,1,0,0,,8,,,56,127
22807,note_off,95,0,0,,8,,,56,127
22808,note_on,1,0,0,,12,,,59,127
22903,note_off,95,0,0,,12,,,59,127
22904,note_on,1,0,0,,11,,,58,127
22999,note_off,95,0,0,,11,,,58,127
23000,note_on,1,0,0,,1,,,61,127
23095,note_off,95,0,0,,1,,,61,127
23096,note_off,1,0,0,,6,,,78,127
23096,note_on,0,0,0,,12,,,59,127
23096,note_on,0,0,0,,8,,,80,127
23144,note_off,48,0,0,,8,,,80,127
23144,note_on,0,0,0,,6,,,78,127
23191,note_off,47,0,0,,12,,,59,127
23192,note_off,1,0,0,,6,,,78,127
23192,note_on,0,0,0,,3,,,63,127
23192,note_on,0,0,0,,8,,,80,127
23240,note_off,48,0,0,,8,,,80,127
23240,note_on,0,0,0,,6,,,78,127
23287,note_off,47,0,0,,3,,,63,127
23288,note_on,1,0,0,,1,,,61,127
23383,note_off,95,0,0,,1,,,61,127
23384,note_on,1,0,0,,4,,,64,127
23479,note_off,95,0,0,,4,,,64,127
23480,note_on,1,0,0,,3,,,63,127
23575,note_off,95,0,0,,3,,,63,127
23576,note_on,1,0,0,,4,,,64,127
23671,note_off,95,0,0,,4,,,64,127
23672,note_off,1,0,0,,6,,,78,127
23672,note_on,0,0,0,,6,,,54,127
23672,note_on,0,0,0,,8,,,80,127
23720,note_off,48,0,0,,8,,,80,127
23720,note_on,0,0,0,,6,,,78,127
23767,note_off,47,0,0,,6,,,54,127
23768,note_off,1,0,0,,6,,,78,127
23768,note_on,0,0,0,,11,,,58,127
23768,note_on,0,0,0,,8,,,80,127
23816,note_off,48,0,0,,8,,,80,127
23816,note_on,0,0,0,,6,,,78,127
23863,note_off,47,0,0,,11,,,58,127
23864,note_on,1,0,0,,8,,,56,127
23959,note_off,95,0,0,,8,,,56,127
23960,note_on,1,0,0,,12,,,59,127
24055,note_off,95,0,0,,12,,,59,127
24056,note_on,1,0,0,,11,,,58,127
24151,note_off,95,0,0,,11,,,58,127
24152,note_on,1,0,0,,1,,,61,127
24247,note_off,95,0,0,,1,,,61,127
24248,note_off,1,0,0,,6,,,78,127
24248,note_on,0,0,0,,12,,,59,127
24248,note_on,0,0,0,,8,,,80,127
24296,note_off,48,0,0,,8,,,80,127
24296,note_on,0,0,0,,6,,,78,127
24343,note_off,47,0,0,,12,,,59,127
24344,note_off,1,0,0,,6,,,78,127
24344,note_on,0,0,0,,3,,,63,127
24344,note_on,0,0,0,,8,,,80,127
24392,note_off,48,0,0,,8,,,80,127
24392,note_on,0,0,0,,6,,,78,127
24439,note_off,47,0,0,,3,,,63,127
24440,note_on,1,0,0,,1,,,61,127
24535,note_off,95,0,0,,1,,,61,127
24536,note_on,1,0,0,,4,,,64,127
24631,note_off,95,0,0,,4,,,64,127
24632,note_on,1,0,0,,3,,,63,127
24727,note_off,95,0,0,,3,,,63,127
24728,note_on,1,0,0,,6,,,66,127
24823,note_off,95,0,0,,6,,,66,127
24824,note_off,1,0,0,,6,,,78,127
24824,note_on,0,0,0,,6,,,54,127
24824,note_on,0,0,0,,8,,,80,127
24872,note_off,48,0,0,,8,,,80,127
24872,note_on,0,0,0,,6,,,78,127
24919,note_off,47,0,0,,6,,,54,127
24920,note_off,1,0,0,,6,,,78,127
24920,note_on,0,0,0,,11,,,58,127
24920,note_on,0,0,0,,8,,,80,127
24968,note_off,48,0,0,,8,,,80,127
24968,note_on,0,0,0,,6,,,78,127
25015,note_off,47,0,0,,11,,,58,127
25016,note_on,1,0,0,,8,,,56,127
25111,note_off,95,0,0,,8,,,56,127
25112,note_on,1,0,0,,12,,,59,127
25207,note_off,95,0,0,,12,,,59,127
25208,note_on,1,0,0,,11,,,58,127
25303,note_off,95,0,0,,11,,,58,127
25304,note_on,1,0,0,,1,,,61,127
25399,note_off,95,0,0,,1,,,61,127
25400,note_off,1,0,0,,6,,,78,127
25400,note_on,0,0,0,,12,,,59,127
25400,note_on,0,0,0,,8,,,80,127
25448,note_off,48,0,0,,8,,,80,127
25448,note_on,0,0,0,,6,,,78,127
25495,note_off,47,0,0,,12,,,59,127
25496,note_off,1,0,0,,6,,,78,127
25496,note_on,0,0,0,,3,,,63,127
25496,note_on,0,0,0,,8,,,80,127
25544,note_off,48,0,0,,8,,,80,127
25544,note_on,0,0,0,,6,,,78,127
25591,note_off,47,0,0,,3,,,63,127
25592,note_on,1,0,0,,1,,,61,127
25687,note_off,95,0,0,,1,,,61,127
25688,note_on,1,0,0,,4,,,64,127
25783,note_off,95,0,0,,4,,,64,127
25784,note_on,1,0,0,,3,,,63,127
25879,note_off,95,0,0,,3,,,63,127
25880,note_on,1,0,0,,6,,,66,127
25975,note_off,95,0,0,,6,,,66,127
25976,note_off,1,0,0,,6,,,78,127
25976,note_on,0,0,0,,4,,,64,127
25976,note_on,0,0,0,,8,,,80,127
26071,note_off,95,0,0,,8,,,80,127
26072,note_on,1,0,0,,4,,,76,127
26167,note_off,95,0,0,,4,,,76,127
26167,note_off,0,0,0,,4,,,64,127
26168,note_on,1,0,0,,6,,,66,127
26168,note_on,0,0,0,,3,,,75,127
26263,note_off,95,0,0,,3,,,75,127
26264,note_on,1,0,0,,1,,,73,127
26359,note_off,95,0,0,,1,,,73,127
26359,note_off,0,0,0,,6,,,66,127
26360,note_on,1,0,0,,6,,,54,127
26360,note_on,0,0,0,,12,,,71,127
26455,note_off,95,0,0,,12,,,71,127
26456,note_on,1,0,0,,11,,,70,127
26551,note_off,95,0,0,,11,,,70,127
26551,note_off,0,0,0,,6,,,54,127
26552,note_on,1,0,0,,12,,,59,127
26552,note_on,0,0,0,,12,,,71,127
26744,note_on,192,0,0,,12,,,83,127
26935,note_off,191,0,0,,12,,,83,127
26936,note_off,1,0,0,,12,,,71,127
26936,note_on,0,0,0,,5,,,77,127
26936,note_on,0,0,0,,2,,,74,127
27127,note_off,191,0,0,,12,,,59,127
27128,note_on,1,0,0,,12,,,59,127
27128,note_on,0,0,0,,2,,,62,127
27128,note_on,0,0,0,,4,,,64,127
27128,note_on,0,0,0,,8,,,68,127
27319,note_off,191,0,0,,2,,,74,127
27319,note_off,0,0,0,,5,,,77,127
27320,note_on,1,0,0,,4,,,76,127
27320,note_on,0,0,0,,0,,,72,127
27511,note_off,191,0,0,,0,,,72,127
27511,note_off,0,0,0,,4,,,76,127
27512,note_on,1,0,0,,3,,,75,127
27512,note_on,0,0,0,,12,,,71,127
27703,note_off,191,0,0,,12,,,71,127
27703,note_off,0,0,0,,3,,,75,127
27703,note_off,0,0,0,,8,,,68,127
27703,note_off,0,0,0,,4,,,64,127
27703,note_off,0,0,0,,2,,,62,127
27703,note_off,0,0,0,,12,,,59,127
27704,note_on,1,0,0,,10,,,57,127
27704,note_on,0,0,0,,10,,,69,127
27704,note_on,0,0,0,,4,,,64,127
27704,note_on,0,0,0,,4,,,76,127
27704,note_on,0,0,0,,0,,,72,127
27895,note_off,191,0,0,,4,,,76,127
27896,note_on,1,0,0,,12,,,83,127
28087,note_off,191,0,0,,12,,,83,127
28088,note_off,1,0,0,,0,,,72,127
28088,note_on,0,0,0,,5,,,77,127
28088,note_on,0,0,0,,2,,,74,127
28279,note_off,191,0,0,,4,,,64,127
28279,note_off,0,0,0,,10,,,69,127
28279,note_off,0,0,0,,10,,,57,127
28280,note_on,1,0,0,,12,,,59,127
28280,note_on,0,0,0,,4,,,64,127
28280,note_on,0,0,0,,2,,,62,127
28280,note_on,0,0,0,,8,,,68,127
28471,note_off,191,0,0,,2,,,74,127
28471,note_off,0,0,0,,5,,,77,127
28472,note_on,1,0,0,,4,,,76,127
28472,note_on,0,0,0,,0,,,72,127
28663,note_off,191,0,0,,0,,,72,127
28663,note_off,0,0,0,,4,,,76,127
28664,note_on,1,0,0,,3,,,75,127
28664,note_on,0,0,0,,12,,,71,127
28855,note_off,191,0,0,,12,,,71,127
28855,note_off,0,0,0,,3,,,75,127
28855,note_off,0,0,0,,8,,,68,127
28855,note_off,0,0,0,,2,,,62,127
28855,note_off,0,0,0,,4,,,64,127
28855,note_off,0,0,0,,12,,,59,127
28856,note_on,1,0,0,,4,,,64,127
28856,note_on,0,0,0,,10,,,57,127
28856,note_on,0,0,0,,10,,,69,127
28856,note_on,0,0,0,,4,,,76,127
28856,note_on,0,0,0,,0,,,72,127
29047,note_off,191,0,0,,4,,,76,127
29048,note_on,1,0,0,,0,,,84,127
29239,note_off,191,0,0,,0,,,84,127
29240,note_off,1,0,0,,0,,,72,127
29240,note_on,0,0,0,,6,,,78,127
29240,note_on,0,0,0,,3,,,75,127
29431,note_off,191,0,0,,10,,,69,127
29431,note_off,0,0,0,,10,,,57,127
29431,note_off,0,0,0,,4,,,64,127
29432,note_on,1,0,0,,10,,,57,127
29432,note_on,0,0,0,,12,,,59,127
29432,note_on,0,0,0,,3,,,63,127
29623,note_off,191,0,0,,3,,,75,127
29623,note_off,0,0,0,,6,,,78,127
29624,note_on,1,0,0,,7,,,79,127
29624,note_on,0,0,0,,4,,,76,127
29815,note_off,191,0,0,,4,,,76,127
29815,note_off,0,0,0,,7,,,79,127
29816,note_on,1,0,0,,10,,,81,127
29816,note_on,0,0,0,,6,,,78,127
30007,note_off,191,0,0,,6,,,78,127
30007,note_off,0,0,0,,10,,,81,127
30007,note_off,0,0,0,,3,,,63,127
30007,note_off,0,0,0,,12,,,59,127
30007,note_off,0,0,0,,10,,,57,127
30008,note_on,1,0,0,,7,,,55,127
30008,note_on,0,0,0,,4,,,64,127
30008,note_on,0,0,0,,12,,,59,127
30008,note_on,0,0,0,,7,,,79,127
30008,note_on,0,0,0,,12,,,83,127
30199,note_off,191,0,0,,12,,,83,127
30199,note_off,0,0,0,,7,,,79,127
30200,note_on,1,0,0,,4,,,76,127
30200,note_on,0,0,0,,7,,,79,127
30391,note_off,191,0,0,,7,,,79,127
30391,note_off,0,0,0,,4,,,76,127
30392,note_on,1,0,0,,11,,,70,127
30392,note_on,0,0,0,,1,,,73,127
30583,note_off,191,0,0,,12,,,59,127
30583,note_off,0,0,0,,4,,,64,127
30583,note_off,0,0,0,,7,,,55,127
30584,note_on,1,0,0,,4,,,52,127
30584,note_on,0,0,0,,1,,,61,127
30584,note_on,0,0,0,,11,,,58,127
30775,note_off,191,0,0,,1,,,73,127
30775,note_off,0,0,0,,11,,,70,127
30776,note_on,1,0,0,,2,,,74,127
30776,note_on,0,0,0,,12,,,71,127
30967,note_off,191,0,0,,12,,,71,127
30967,note_off,0,0,0,,2,,,74,127
30968,note_on,1,0,0,,4,,,76,127
30968,note_on,0,0,0,,1,,,73,127
31159,note_off,191,0,0,,1,,,73,127
31159,note_off,0,0,0,,4,,,76,127
31159,note_off,0,0,0,,11,,,58,127
31159,note_off,0,0,0,,1,,,61,127
31159,note_off,0,0,0,,4,,,52,127
31160,note_on,1,0,0,,12,,,59,127
31160,note_on,0,0,0,,6,,,54,127
31160,note_on,0,0,0,,2,,,50,127
31160,note_on,0,0,0,,6,,,78,127
31160,note_on,0,0,0,,2,,,74,127
31351,note_off,191,0,0,,2,,,74,127
31351,note_off,0,0,0,,6,,,78,127
31352,note_on,1,0,0,,2,,,74,127
31352,note_on,0,0,0,,12,,,71,127
31543,note_off,191,0,0,,12,,,71,127
31543,note_off,0,0,0,,2,,,74,127
31544,note_on,1,0,0,,8,,,68,127
31544,note_on,0,0,0,,5,,,65,127
31735,note_off,191,0,0,,2,,,50,127
31735,note_off,0,0,0,,6,,,54,127
31735,note_off,0,0,0,,12,,,59,127
31736,note_on,1,0,0,,12,,,47,127
31736,note_on,0,0,0,,5,,,53,127
31736,note_on,0,0,0,,8,,,56,127
31927,note_off,191,0,0,,5,,,65,127
31927,note_off,0,0,0,,8,,,68,127
31928,note_on,1,0,0,,6,,,66,127
31928,note_on,0,0,0,,11,,,70,127
32119,note_off,191,0,0,,11,,,70,127
32119,note_off,0,0,0,,6,,,66,127
32120,note_on,1,0,0,,8,,,68,127
32120,note_on,0,0,0,,12,,,71,127
32311,note_off,191,0,0,,12,,,71,127
32311,note_off,0,0,0,,8,,,68,127
32311,note_off,0,0,0,,8,,,56,127
32311,note_off,0,0,0,,5,,,53,127
32311,note_off,0,0,0,,12,,,47,127
32312,note_on,1,0,0,,11,,,46,127
32312,note_on,0,0,0,,6,,,54,127
32312,note_on,0,0,0,,1,,,73,127
32312,note_on,0,0,0,,11,,,70,127
32503,note_off,191,0,0,,11,,,70,127
32503,note_off,0,0,0,,1,,,73,127
32504,note_on,1,0,0,,12,,,71,127
32504,note_on,0,0,0,,3,,,75,127
32695,note_off,191,0,0,,3,,,75,127
32695,note_off,0,0,0,,12,,,71,127
32696,note_on,1,0,0,,1,,,73,127
32696,note_on,0,0,0,,4,,,76,127
32887,note_off,191,0,0,,4,,,76,127
32887,note_off,0,0,0,,1,,,73,127
32887,note_off,0,0,0,,6,,,54,127
32887,note_off,0,0,0,,11,,,46,127
32888,note_on,1,0,0,,12,,,59,127
32888,note_on,0,0,0,,12,,,47,127
32888,note_on,0,0,0,,3,,,75,127
32888,note_on,0,0,0,,12,,,71,127
32983,note_off,95,0,0,,12,,,71,127
32983,note_off,0,0,0,,3,,,75,127
32984,note_on,1,0,0,,6,,,78,127
33079,note_off,95,0,0,,6,,,78,127
33079,note_off,0,0,0,,12,,,47,127
33080,note_on,1,0,0,,1,,,49,127
33080,note_on,0,0,0,,4,,,76,127
33175,note_off,95,0,0,,4,,,76,127
33176,note_on,1,0,0,,8,,,80,127
33271,note_off,95,0,0,,8,,,80,127
33271,note_off,0,0,0,,1,,,49,127
33272,note_on,1,0,0,,3,,,51,127
33272,note_on,0,0,0,,6,,,78,127
33463,note_off,191,0,0,,6,,,78,127
33463,note_off,0,0,0,,3,,,51,127
33464,note_on,1,0,0,,4,,,52,127
33464,note_on,0,0,0,,1,,,73,127
33464,note_on,0,0,0,,4,,,76,127
33655,note_off,191,0,0,,4,,,76,127
33655,note_off,0,0,0,,1,,,73,127
33655,note_off,0,0,0,,4,,,52,127
33656,note_on,1,0,0,,6,,,54,127
33656,note_on,0,0,0,,3,,,75,127
33656,note_on,0,0,0,,12,,,71,127
33847,note_off,191,0,0,,12,,,71,127
33847,note_off,0,0,0,,3,,,75,127
33847,note_off,0,0,0,,6,,,54,127
33848,note_on,1,0,0,,4,,,52,127
33848,note_on,0,0,0,,1,,,73,127
33848,note_on,0,0,0,,11,,,70,127
34039,note_off,191,0,0,,11,,,70,127
34039,note_off,0,0,0,,1,,,73,127
34039,note_off,0,0,0,,4,,,52,127
34040,note_off,1,0,0,,12,,,59,127
34040,note_on,0,0,0,,3,,,51,127
34040,note_on,0,0,0,,12,,,59,127
34040,note_on,0,0,0,,12,,,71,127
34135,note_off,95,0,0,,12,,,71,127
34136,note_on,1,0,0,,3,,,75,127
34231,note_off,95,0,0,,3,,,75,127
34231,note_off,0,0,0,,3,,,51,127
34232,note_on,1,0,0,,1,,,49,127
34232,note_on,0,0,0,,1,,,73,127
34327,note_off,95,0,0,,1,,,73,127
34328,note_on,1,0,0,,4,,,76,127
34423,note_off,95,0,0,,4,,,76,127
34423,note_off,0,0,0,,1,,,49,127
34424,note_on,1,0,0,,12,,,47,127
34424,note_on,0,0,0,,3,,,75,127
34615,note_off,191,0,0,,3,,,75,127
34615,note_off,0,0,0,,12,,,47,127
34616,note_on,1,0,0,,4,,,52,127
34616,note_on,0,0,0,,4,,,76,127
34616,note_on,0,0,0,,1,,,73,127
34807,note_off,191,0,0,,1,,,73,127
34807,note_off,0,0,0,,4,,,76,127
34807,note_off,0,0,0,,4,,,52,127
34808,note_on,1,0,0,,6,,,54,127
34808,note_on,0,0,0,,3,,,75,127
34808,note_on,0,0,0,,12,,,71,127
34999,note_off,191,0,0,,12,,,71,127
34999,note_off,0,0,0,,3,,,75,127
34999,note_off,0,0,0,,6,,,54,127
35000,note_on,1,0,0,,4,,,52,127
35000,note_on,0,0,0,,11,,,70,127
35000,note_on,0,0,0,,1,,,73,127
35191,note_off,191,0,0,,1,,,73,127
35191,note_off,0,0,0,,11,,,70,127
35191,note_off,0,0,0,,4,,,52,127
35192,note_off,1,0,0,,12,,,59,127
35192,note_on,0,0,0,,3,,,51,127
35192,note_on,0,0,0,,12,,,59,127
35192,note_on,0,0,0,,3,,,75,127
35192,note_on,0,0,0,,12,,,71,127
35287,note_off,95,0,0,,12,,,71,127
35287,note_off,0,0,0,,3,,,75,127
35288,note_on,1,0,0,,6,,,78,127
35383,note_off,95,0,0,,6,,,78,127
35383,note_off,0,0,0,,3,,,51,127
35384,note_on,1,0,0,,1,,,49,127
35384,note_on,0,0,0,,4,,,76,127
35479,note_off,95,0,0,,4,,,76,127
35480,note_on,1,0,0,,8,,,80,127
35575,note_off,95,0,0,,8,,,80,127
35575,note_off,0,0,0,,1,,,49,127
35576,note_on,1,0,0,,12,,,47,127
35576,note_on,0,0,0,,6,,,78,127
35767,note_off,191,0,0,,6,,,78,127
35767,note_off,0,0,0,,12,,,47,127
35768,note_off,1,0,0,,12,,,59,127
35768,note_on,0,0,0,,4,,,52,127
35768,note_on,0,0,0,,1,,,73,127
35768,note_on,0,0,0,,4,,,76,127
35959,note_off,191,0,0,,4,,,76,127
35959,note_off,0,0,0,,1,,,73,127
35959,note_off,0,0,0,,4,,,52,127
35960,note_on,1,0,0,,6,,,54,127
35960,note_on,0,0,0,,3,,,75,127
35960,note_on,0,0,0,,12,,,71,127
36151,note_off,191,0,0,,12,,,71,127
36151,note_off,0,0,0,,3,,,75,127
36151,note_off,0,0,0,,6,,,54,127
36152,note_on,1,0,0,,6,,,42,127
36152,note_on,0,0,0,,11,,,70,127
36152,note_on,0,0,0,,1,,,73,127
36343,note_off,191,0,0,,1,,,73,127
36343,note_off,0,0,0,,11,,,70,127
36343,note_off,0,0,0,,6,,,42,127
36344,note_on,1,0,0,,12,,,47,127
36344,note_on,0,0,0,,1,,,73,127
36392,note_off,48,0,0,,1,,,73,127
36392,note_on,0,0,0,,12,,,71,127
36440,note_off,48,0,0,,12,,,71,127
36440,note_on,0,0,0,,1,,,73,127
36488,note_off,48,0,0,,1,,,73,127
36488,note_on,0,0,0,,12,,,71,127
36919,note_off,431,0,0,,12,,,47,127
36920,note_off,1,0,0,,12,,,71,127
36920,note_on,0,0,0,,12,,,47,127
36920,note_on,0,0,0,,12,,,71,127
37015,note_off,95,0,0,,12,,,71,127
37016,note_on,1,0,0,,1,,,73,127
37111,note_off,95,0,0,,1,,,73,127
37112,note_on,1,0,0,,3,,,75,127
37207,note_off,95,0,0,,3,,,75,127
37208,note_on,1,0,0,,4,,,76,127
37303,note_off,95,0,0,,4,,,76,127
37304,note_on,1,0,0,,6,,,78,127
37399,note_off,95,0,0,,6,,,78,127
37400,note_on,1,0,0,,8,,,80,127
37495,note_off,95,0,0,,8,,,80,127
37496,note_on,1,0,0,,6,,,78,127
37591,note_off,95,0,0,,6,,,78,127
37592,note_on,1,0,0,,4,,,76,127
37687,note_off,95,0,0,,4,,,76,127
37688,note_on,1,0,0,,3,,,75,127
37783,note_off,95,0,0,,3,,,75,127
37784,note_on,1,0,0,,1,,,73,127
37879,note_off,95,0,0,,1,,,73,127
37880,note_on,1,0,0,,12,,,71,127
37975,note_off,95,0,0,,12,,,71,127
37976,note_on,1,0,0,,10,,,69,127
38071,note_off,95,0,0,,10,,,69,127
38072,note_on,1,0,0,,8,,,68,127
38167,note_off,95,0,0,,8,,,68,127
38168,note_on,1,0,0,,10,,,69,127
38263,note_off,95,0,0,,10,,,69,127
38264,note_on,1,0,0,,12,,,71,127
38359,note_off,95,0,0,,12,,,71,127
38360,note_on,1,0,0,,1,,,73,127
38455,note_off,95,0,0,,1,,,73,127
38456,note_on,1,0,0,,3,,,75,127
38551,note_off,95,0,0,,3,,,75,127
38552,note_on,1,0,0,,4,,,76,127
38647,note_off,95,0,0,,4,,,76,127
38648,note_on,1,0,0,,3,,,75,127
38743,note_off,95,0,0,,3,,,75,127
38744,note_on,1,0,0,,1,,,73,127
38839,note_off,95,0,0,,1,,,73,127
38840,note_on,1,0,0,,12,,,71,127
38935,note_off,95,0,0,,12,,,71,127
38936,note_on,1,0,0,,10,,,69,127
39031,note_off,95,0,0,,10,,,69,127
39032,note_on,1,0,0,,8,,,68,127
39127,note_off,95,0,0,,8,,,68,127
39128,note_on,1,0,0,,6,,,66,127
39223,note_off,95,0,0,,6,,,66,127
39223,note_off,0,0,0,,12,,,47,127
39224,note_on,1,0,0,,1,,,61,127
39224,note_on,0,0,0,,4,,,64,127
39319,note_off,95,0,0,,1,,,61,127
39320,note_on,1,0,0,,3,,,63,127
39414,note_off,94,0,0,,4,,,64,127
39415,note_off,1,0,0,,3,,,63,127
39416,note_on,1,0,0,,4,,,64,127
39512,note_on,96,0,0,,6,,,66,127
39607,note_off,95,0,0,,6,,,66,127
39608,note_on,1,0,0,,8,,,68,127
39703,note_off,95,0,0,,8,,,68,127
39704,note_on,1,0,0,,10,,,69,127
39799,note_off,95,0,0,,10,,,69,127
39799,note_off,0,0,0,,4,,,64,127
39800,note_on,1,0,0,,8,,,68,127
39800,note_on,0,0,0,,4,,,76,127
39895,note_off,95,0,0,,8,,,68,127
39896,note_on,1,0,0,,6,,,66,127
39991,note_off,95,0,0,,6,,,66,127
39992,note_on,1,0,0,,4,,,64,127
40087,note_off,95,0,0,,4,,,64,127
40088,note_on,1,0,0,,3,,,63,127
40183,note_off,95,0,0,,3,,,63,127
40184,note_on,1,0,0,,1,,,61,127
40279,note_off,95,0,0,,1,,,61,127
40280,note_on,1,0,0,,12,,,59,127
40375,note_off,95,0,0,,12,,,59,127
40375,note_off,0,0,0,,4,,,76,127
40376,note_on,1,0,0,,10,,,57,127
40376,note_on,0,0,0,,3,,,75,127
40424,note_off,48,0,0,,3,,,75,127
40424,note_on,0,0,0,,1,,,73,127
40471,note_off,47,0,0,,10,,,57,127
40472,note_off,1,0,0,,1,,,73,127
40472,note_on,0,0,0,,12,,,59,127
40472,note_on,0,0,0,,3,,,75,127
40520,note_off,48,0,0,,3,,,75,127
40520,note_on,0,0,0,,1,,,73,127
40567,note_off,47,0,0,,12,,,59,127
40568,note_on,1,0,0,,1,,,61,127
40663,note_off,95,0,0,,1,,,61,127
40664,note_on,1,0,0,,3,,,63,127
40759,note_off,95,0,0,,3,,,63,127
40760,note_on,1,0,0,,4,,,64,127
40855,note_off,95,0,0,,4,,,64,127
40856,note_on,1,0,0,,3,,,63,127
40951,note_off,95,0,0,,3,,,63,127
40952,note_off,1,0,0,,1,,,73,127
40952,note_on,0,0,0,,1,,,61,127
40952,note_on,0,0,0,,3,,,75,127
41000,note_off,48,0,0,,3,,,75,127
41000,note_on,0,0,0,,1,,,73,127
41047,note_off,47,0,0,,1,,,61,127
41048,note_off,1,0,0,,1,,,73,127
41048,note_on,0,0,0,,12,,,59,127
41048,note_on,0,0,0,,3,,,75,127
41096,note_off,48,0,0,,3,,,75,127
41096,note_on,0,0,0,,1,,,73,127
41143,note_off,47,0,0,,12,,,59,127
41144,note_on,1,0,0,,10,,,57,127
41239,note_off,95,0,0,,10,,,57,127
41240,note_on,1,0,0,,8,,,56,127
41335,note_off,95,0,0,,8,,,56,127
41336,note_on,1,0,0,,6,,,54,127
41431,note_off,95,0,0,,6,,,54,127
41432,note_on,1,0,0,,4,,,52,127
41527,note_off,95,0,0,,4,,,52,127
41528,note_on,1,0,0,,3,,,51,127
41624,note_off,96,0,0,,1,,,73,127
41624,note_on,0,0,0,,12,,,71,127
41719,note_off,95,0,0,,12,,,71,127
41720,note_on,1,0,0,,10,,,69,127
41815,note_off,95,0,0,,10,,,69,127
41816,note_on,1,0,0,,8,,,68,127
41911,note_off,95,0,0,,8,,,68,127
41912,note_on,1,0,0,,6,,,66,127
42007,note_off,95,0,0,,6,,,66,127
42008,note_on,1,0,0,,4,,,64,127
42103,note_off,95,0,0,,4,,,64,127
42103,note_off,0,0,0,,3,,,51,127
42104,note_on,1,0,0,,3,,,51,127
42104,note_on,0,0,0,,3,,,63,127
42199,note_off,95,0,0,,3,,,63,127
42200,note_on,1,0,0,,1,,,61,127
42295,note_off,95,0,0,,1,,,61,127
42296,note_on,1,0,0,,12,,,59,127
42391,note_off,95,0,0,,12,,,59,127
42392,note_on,1,0,0,,10,,,57,127
42487,note_off,95,0,0,,10,,,57,127
42488,note_on,1,0,0,,8,,,56,127
42583,note_off,95,0,0,,8,,,56,127
42584,note_on,1,0,0,,10,,,57,127
42679,note_off,95,0,0,,3,,,51,127
42680,note_on,1,0,0,,4,,,40,127
42775,note_off,95,0,0,,10,,,57,127
42776,note_on,1,0,0,,8,,,56,127
42824,note_off,48,0,0,,8,,,56,127
42824,note_on,0,0,0,,10,,,57,127
42872,note_off,48,0,0,,10,,,57,127
42872,note_on,0,0,0,,8,,,56,127
42920,note_off,48,0,0,,8,,,56,127
42920,note_on,0,0,0,,10,,,57,127
42968,note_off,48,0,0,,10,,,57,127
42968,note_on,0,0,0,,8,,,56,127
43255,note_off,287,0,0,,4,,,40,127
43256,note_off,1,0,0,,8,,,56,127
43280,note_on,24,0,0,,12,,,71,127
43280,note_on,0,0,0,,12,,,59,127
43280,note_on,0,0,0,,4,,,52,127
43471,note_off,191,0,0,,4,,,52,127
43471,note_off,0,0,0,,12,,,59,127
43472,note_on,1,0,0,,12,,,59,127
43472,note_on,0,0,0,,4,,,52,127
43663,note_off,191,0,0,,4,,,52,127
43663,note_off,0,0,0,,12,,,59,127
43664,note_on,1,0,0,,4,,,52,127
43664,note_on,0,0,0,,12,,,59,127
43855,note_off,191,0,0,,12,,,59,127
43855,note_off,0,0,0,,4,,,52,127
43856,note_on,1,0,0,,2,,,62,127
43856,note_on,0,0,0,,5,,,53,127
44047,note_off,191,0,0,,5,,,53,127
44047,note_off,0,0,0,,2,,,62,127
44047,note_off,0,0,0,,12,,,71,127
44048,note_on,1,0,0,,12,,,71,127
44048,note_on,0,0,0,,2,,,62,127
44048,note_on,0,0,0,,5,,,53,127
44239,note_off,191,0,0,,5,,,53,127
44239,note_off,0,0,0,,2,,,62,127
44239,note_off,0,0,0,,12,,,71,127
44240,note_on,1,0,0,,2,,,74,127
44240,note_on,0,0,0,,5,,,53,127
44240,note_on,0,0,0,,2,,,62,127
44431,note_off,191,0,0,,2,,,62,127
44431,note_off,0,0,0,,5,,,53,127
44432,note_on,1,0,0,,2,,,62,127
44432,note_on,0,0,0,,5,,,53,127
44623,note_off,191,0,0,,5,,,53,127
44623,note_off,0,0,0,,2,,,62,127
44623,note_off,0,0,0,,2,,,74,127
44624,note_on,1,0,0,,12,,,71,127
44624,note_on,0,0,0,,2,,,62,127
44624,note_on,0,0,0,,5,,,53,127
44815,note_off,191,0,0,,5,,,53,127
44815,note_off,0,0,0,,2,,,62,127
44815,note_off,0,0,0,,12,,,71,127
44816,note_on,1,0,0,,2,,,74,127
44816,note_on,0,0,0,,5,,,53,127
44816,note_on,0,0,0,,2,,,62,127
45007,note_off,191,0,0,,2,,,62,127
45007,note_off,0,0,0,,5,,,53,127
45008,note_on,1,0,0,,5,,,65,127
45008,note_on,0,0,0,,7,,,55,127
45008,note_on,0,0,0,,2,,,62,127
45199,note_off,191,0,0,,2,,,62,127
45199,note_off,0,0,0,,7,,,55,127
45199,note_off,0,0,0,,5,,,65,127
45199,note_off,0,0,0,,2,,,74,127
45200,note_on,1,0,0,,2,,,74,127
45200,note_on,0,0,0,,2,,,62,127
45200,note_on,0,0,0,,5,,,65,127
45200,note_on,0,0,0,,7,,,55,127
45391,note_off,191,0,0,,7,,,55,127
45391,note_off,0,0,0,,5,,,65,127
45391,note_off,0,0,0,,2,,,62,127
45391,note_off,0,0,0,,2,,,74,127
45392,note_on,1,0,0,,5,,,77,127
45392,note_on,0,0,0,,5,,,65,127
45392,note_on,0,0,0,,7,,,55,127
45392,note_on,0,0,0,,2,,,62,127
45583,note_off,191,0,0,,2,,,62,127
45583,note_off,0,0,0,,7,,,55,127
45583,note_off,0,0,0,,5,,,65,127
45584,note_on,1,0,0,,5,,,65,127
45584,note_on,0,0,0,,7,,,55,127
45584,note_on,0,0,0,,2,,,62,127
45775,note_off,191,0,0,,2,,,62,127
45775,note_off,0,0,0,,7,,,55,127
45775,note_off,0,0,0,,5,,,65,127
45775,note_off,0,0,0,,5,,,77,127
45776,note_on,1,0,0,,2,,,74,127
45776,note_on,0,0,0,,2,,,62,127
45776,note_on,0,0,0,,5,,,65,127
45776,note_on,0,0,0,,7,,,55,127
45967,note_off,191,0,0,,7,,,55,127
45967,note_off,0,0,0,,5,,,65,127
45967,note_off,0,0,0,,2,,,62,127
45967,note_off,0,0,0,,2,,,74,127
45968,note_on,1,0,0,,5,,,77,127
45968,note_on,0,0,0,,5,,,65,127
45968,note_on,0,0,0,,2,,,62,127
45968,note_on,0,0,0,,7,,,55,127
46159,note_off,191,0,0,,7,,,55,127
46159,note_off,0,0,0,,2,,,62,127
46159,note_off,0,0,0,,5,,,65,127
46160,note_on,1,0,0,,5,,,65,127
46160,note_on,0,0,0,,2,,,62,127
46160,note_on,0,0,0,,8,,,56,127
46351,note_off,191,0,0,,8,,,56,127
46351,note_off,0,0,0,,2,,,62,127
46351,note_off,0,0,0,,5,,,65,127
46351,note_off,0,0,0,,5,,,77,127
46352,note_on,1,0,0,,2,,,74,127
46352,note_on,0,0,0,,5,,,65,127
46352,note_on,0,0,0,,2,,,62,127
46352,note_on,0,0,0,,8,,,56,127
46543,note_off,191,0,0,,8,,,56,127
46543,note_off,0,0,0,,2,,,62,127
46543,note_off,0,0,0,,5,,,65,127
46543,note_off,0,0,0,,2,,,74,127
46544,note_on,1,0,0,,5,,,77,127
46544,note_on,0,0,0,,2,,,62,127
46544,note_on,0,0,0,,5,,,65,127
46544,note_on,0,0,0,,8,,,56,127
46735,note_off,191,0,0,,8,,,56,127
46735,note_off,0,0,0,,5,,,65,127
46735,note_off,0,0,0,,2,,,62,127
46736,note_on,1,0,0,,5,,,65,127
46736,note_on,0,0,0,,8,,,56,127
46736,note_on,0,0,0,,2,,,62,127
46927,note_off,191,0,0,,2,,,62,127
46927,note_off,0,0,0,,8,,,56,127
46927,note_off,0,0,0,,5,,,65,127
46927,note_off,0,0,0,,5,,,77,127
46928,note_on,1,0,0,,2,,,74,127
46928,note_on,0,0,0,,2,,,62,127
46928,note_on,0,0,0,,5,,,65,127
46928,note_on,0,0,0,,8,,,56,127
47119,note_off,191,0,0,,8,,,56,127
47119,note_off,0,0,0,,5,,,65,127
47119,note_off,0,0,0,,2,,,62,127
47119,note_off,0,0,0,,2,,,74,127
47120,note_on,1,0,0,,5,,,77,127
47120,note_on,0,0,0,,5,,,65,127
47120,note_on,0,0,0,,8,,,56,127
47120,note_on,0,0,0,,2,,,62,127
47311,note_off,191,0,0,,2,,,62,127
47311,note_off,0,0,0,,8,,,56,127
47311,note_off,0,0,0,,5,,,65,127
47312,note_on,1,0,0,,5,,,65,127
47312,note_on,0,0,0,,8,,,68,127
47312,note_on,0,0,0,,11,,,58,127
47503,note_off,191,0,0,,11,,,58,127
47503,note_off,0,0,0,,8,,,68,127
47503,note_off,0,0,0,,5,,,65,127
47503,note_off,0,0,0,,5,,,77,127
47504,note_on,1,0,0,,2,,,74,127
47504,note_on,0,0,0,,8,,,68,127
47504,note_on,0,0,0,,11,,,58,127
47504,note_on,0,0,0,,5,,,65,127
47695,note_off,191,0,0,,5,,,65,127
47695,note_off,0,0,0,,11,,,58,127
47695,note_off,0,0,0,,8,,,68,127
47695,note_off,0,0,0,,2,,,74,127
47696,note_on,1,0,0,,5,,,77,127
47696,note_on,0,0,0,,5,,,65,127
47696,note_on,0,0,0,,8,,,68,127
47696,note_on,0,0,0,,11,,,58,127
47887,note_off,191,0,0,,11,,,58,127
47887,note_off,0,0,0,,8,,,68,127
47887,note_off,0,0,0,,5,,,65,127
47888,note_on,1,0,0,,8,,,68,127
47888,note_on,0,0,0,,5,,,65,127
47888,note_on,0,0,0,,11,,,58,127
48079,note_off,191,0,0,,11,,,58,127
48079,note_off,0,0,0,,5,,,65,127
48079,note_off,0,0,0,,8,,,68,127
48079,note_off,0,0,0,,5,,,77,127
48080,note_on,1,0,0,,2,,,74,127
48080,note_on,0,0,0,,5,,,65,127
48080,note_on,0,0,0,,8,,,68,127
48080,note_on,0,0,0,,11,,,58,127
48271,note_off,191,0,0,,11,,,58,127
48271,note_off,0,0,0,,8,,,68,127
48271,note_off,0,0,0,,5,,,65,127
48271,note_off,0,0,0,,2,,,74,127
48272,note_on,1,0,0,,5,,,77,127
48272,note_on,0,0,0,,8,,,68,127
48272,note_on,0,0,0,,11,,,58,127
48272,note_on,0,0,0,,5,,,65,127
48463,note_off,191,0,0,,5,,,65,127
48463,note_off,0,0,0,,11,,,58,127
48463,note_off,0,0,0,,8,,,68,127
48464,note_on,1,0,0,,7,,,67,127
48464,note_on,0,0,0,,12,,,59,127
48464,note_on,0,0,0,,5,,,65,127
48655,note_off,191,0,0,,5,,,65,127
48655,note_off,0,0,0,,12,,,59,127
48655,note_off,0,0,0,,7,,,67,127
48655,note_off,0,0,0,,5,,,77,127
48656,note_on,1,0,0,,8,,,80,127
48656,note_on,0,0,0,,7,,,67,127
48656,note_on,0,0,0,,12,,,59,127
48656,note_on,0,0,0,,5,,,65,127
48847,note_off,191,0,0,,5,,,65,127
48847,note_off,0,0,0,,12,,,59,127
48847,note_off,0,0,0,,7,,,67,127
48847,note_off,0,0,0,,8,,,80,127
48848,note_on,1,0,0,,7,,,79,127
48848,note_on,0,0,0,,7,,,67,127
48848,note_on,0,0,0,,12,,,59,127
48848,note_on,0,0,0,,5,,,65,127
49039,note_off,191,0,0,,5,,,65,127
49039,note_off,0,0,0,,12,,,59,127
49039,note_off,0,0,0,,7,,,67,127
49039,note_off,0,0,0,,7,,,79,127
49040,note_on,1,0,0,,5,,,77,127
49040,note_on,0,0,0,,7,,,67,127
49040,note_on,0,0,0,,12,,,59,127
49040,note_on,0,0,0,,5,,,65,127
49231,note_off,191,0,0,,5,,,65,127
49231,note_off,0,0,0,,12,,,59,127
49231,note_off,0,0,0,,7,,,67,127
49231,note_off,0,0,0,,5,,,77,127
49232,note_on,1,0,0,,4,,,76,127
49232,note_on,0,0,0,,7,,,67,127
49232,note_on,0,0,0,,12,,,59,127
49232,note_on,0,0,0,,5,,,65,127
49423,note_off,191,0,0,,5,,,65,127
49423,note_off,0,0,0,,12,,,59,127
49423,note_off,0,0,0,,7,,,67,127
49423,note_off,0,0,0,,4,,,76,127
49424,note_on,1,0,0,,2,,,74,127
49424,note_on,0,0,0,,5,,,65,127
49424,note_on,0,0,0,,7,,,67,127
49424,note_on,0,0,0,,12,,,59,127
49615,note_off,191,0,0,,12,,,59,127
49615,note_off,0,0,0,,7,,,67,127
49615,note_off,0,0,0,,5,,,65,127
49615,note_off,0,0,0,,2,,,74,127
49616,note_on,1,0,0,,4,,,76,127
49616,note_on,0,0,0,,0,,,60,127
49616,note_on,0,0,0,,7,,,67,127
49807,note_off,191,0,0,,7,,,67,127
49807,note_off,0,0,0,,0,,,60,127
49807,note_off,0,0,0,,4,,,76,127
49808,note_on,1,0,0,,5,,,77,127
49808,note_on,0,0,0,,0,,,60,127
49808,note_on,0,0,0,,7,,,67,127
49999,note_off,191,0,0,,7,,,67,127
49999,note_off,0,0,0,,0,,,60,127
49999,note_off,0,0,0,,5,,,77,127
50000,note_on,1,0,0,,7,,,79,127
50000,note_on,0,0,0,,7,,,67,127
50000,note_on,0,0,0,,0,,,60,127
50191,note_off,191,0,0,,0,,,60,127
50191,note_off,0,0,0,,7,,,67,127
50191,note_off,0,0,0,,7,,,79,127
50192,note_on,1,0,0,,7,,,79,127
50192,note_on,0,0,0,,7,,,67,127
50192,note_on,0,0,0,,0,,,60,127
50383,note_off,191,0,0,,0,,,60,127
50383,note_off,0,0,0,,7,,,67,127
50384,note_on,1,0,0,,7,,,67,127
50384,note_on,0,0,0,,0,,,60,127
50575,note_off,191,0,0,,0,,,60,127
50575,note_off,0,0,0,,7,,,67,127
50576,note_on,1,0,0,,10,,,69,127
50576,note_on,0,0,0,,0,,,60,127
50767,note_off,191,0,0,,0,,,60,127
50767,note_off,0,0,0,,10,,,69,127
50768,note_on,1,0,0,,11,,,70,127
50768,note_on,0,0,0,,7,,,67,127
50768,note_on,0,0,0,,1,,,61,127
50959,note_off,191,0,0,,1,,,61,127
50959,note_off,0,0,0,,7,,,67,127
50959,note_off,0,0,0,,11,,,70,127
50959,note_off,0,0,0,,7,,,79,127
50960,note_on,1,0,0,,11,,,82,127
50960,note_on,0,0,0,,11,,,70,127
50960,note_on,0,0,0,,7,,,67,127
50960,note_on,0,0,0,,1,,,61,127
51151,note_off,191,0,0,,1,,,61,127
51151,note_off,0,0,0,,7,,,67,127
51151,note_off,0,0,0,,11,,,70,127
51151,note_off,0,0,0,,11,,,82,127
51152,note_on,1,0,0,,10,,,81,127
51152,note_on,0,0,0,,11,,,70,127
51152,note_on,0,0,0,,1,,,61,127
51152,note_on,0,0,0,,7,,,67,127
51343,note_off,191,0,0,,7,,,67,127
51343,note_off,0,0,0,,1,,,61,127
51343,note_off,0,0,0,,11,,,70,127
51343,note_off,0,0,0,,10,,,81,127
51344,note_on,1,0,0,,7,,,79,127
51344,note_on,0,0,0,,10,,,69,127
51344,note_on,0,0,0,,1,,,61,127
51344,note_on,0,0,0,,7,,,67,127
51535,note_off,191,0,0,,7,,,67,127
51535,note_off,0,0,0,,1,,,61,127
51535,note_off,0,0,0,,10,,,69,127
51535,note_off,0,0,0,,7,,,79,127
51536,note_on,1,0,0,,5,,,77,127
51536,note_on,0,0,0,,7,,,67,127
51536,note_on,0,0,0,,10,,,69,127
51536,note_on,0,0,0,,1,,,61,127
51727,note_off,191,0,0,,1,,,61,127
51727,note_off,0,0,0,,10,,,69,127
51727,note_off,0,0,0,,7,,,67,127
51727,note_off,0,0,0,,5,,,77,127
51728,note_on,1,0,0,,4,,,76,127
51728,note_on,0,0,0,,10,,,69,127
51728,note_on,0,0,0,,1,,,61,127
51728,note_on,0,0,0,,7,,,67,127
51919,note_off,191,0,0,,7,,,67,127
51919,note_off,0,0,0,,1,,,61,127
51919,note_off,0,0,0,,10,,,69,127
51919,note_off,0,0,0,,4,,,76,127
51920,note_on,1,0,0,,5,,,77,127
51920,note_on,0,0,0,,10,,,69,127
51920,note_on,0,0,0,,2,,,62,127
52111,note_off,191,0,0,,2,,,62,127
52111,note_off,0,0,0,,10,,,69,127
52111,note_off,0,0,0,,5,,,77,127
52112,note_on,1,0,0,,10,,,81,127
52112,note_on,0,0,0,,10,,,69,127
52112,note_on,0,0,0,,2,,,62,127
52303,note_off,191,0,0,,2,,,62,127
52303,note_off,0,0,0,,10,,,69,127
52303,note_off,0,0,0,,10,,,81,127
52304,note_on,1,0,0,,8,,,80,127
52304,note_on,0,0,0,,2,,,62,127
52304,note_on,0,0,0,,10,,,69,127
52495,note_off,191,0,0,,10,,,69,127
52495,note_off,0,0,0,,2,,,62,127
52495,note_off,0,0,0,,8,,,80,127
52496,note_on,1,0,0,,10,,,81,127
52496,note_on,0,0,0,,10,,,69,127
52496,note_on,0,0,0,,2,,,62,127
52687,note_off,191,0,0,,2,,,62,127
52687,note_off,0,0,0,,10,,,69,127
52688,note_on,1,0,0,,10,,,69,127
52688,note_on,0,0,0,,2,,,62,127
52879,note_off,191,0,0,,2,,,62,127
52879,note_off,0,0,0,,10,,,69,127
52880,note_on,1,0,0,,12,,,71,127
52880,note_on,0,0,0,,2,,,62,127
53071,note_off,191,0,0,,2,,,62,127
53071,note_off,0,0,0,,12,,,71,127
53072,note_on,1,0,0,,0,,,72,127
53072,note_on,0,0,0,,10,,,69,127
53072,note_on,0,0,0,,3,,,63,127
53263,note_off,191,0,0,,3,,,63,127
53263,note_off,0,0,0,,10,,,69,127
53263,note_off,0,0,0,,0,,,72,127
53263,note_off,0,0,0,,10,,,81,127
53264,note_on,1,0,0,,0,,,84,127
53264,note_on,0,0,0,,0,,,72,127
53264,note_on,0,0,0,,3,,,63,127
53264,note_on,0,0,0,,10,,,69,127
53455,note_off,191,0,0,,10,,,69,127
53455,note_off,0,0,0,,3,,,63,127
53455,note_off,0,0,0,,0,,,72,127
53455,note_off,0,0,0,,0,,,84,127
53456,note_on,1,0,0,,12,,,83,127
53456,note_on,0,0,0,,0,,,72,127
53456,note_on,0,0,0,,10,,,69,127
53456,note_on,0,0,0,,3,,,63,127
53647,note_off,191,0,0,,3,,,63,127
53647,note_off,0,0,0,,10,,,69,127
53647,note_off,0,0,0,,0,,,72,127
53647,note_off,0,0,0,,12,,,83,127
53648,note_on,1,0,0,,10,,,81,127
53648,note_on,0,0,0,,10,,,69,127
53648,note_on,0,0,0,,12,,,71,127
53648,note_on,0,0,0,,3,,,63,127
53839,note_off,191,0,0,,3,,,63,127
53839,note_off,0,0,0,,12,,,71,127
53839,note_off,0,0,0,,10,,,69,127
53839,note_off,0,0,0,,10,,,81,127
53840,note_on,1,0,0,,8,,,80,127
53840,note_on,0,0,0,,3,,,63,127
53840,note_on,0,0,0,,10,,,69,127
53840,note_on,0,0,0,,12,,,71,127
54031,note_off,191,0,0,,12,,,71,127
54031,note_off,0,0,0,,10,,,69,127
54031,note_off,0,0,0,,3,,,63,127
54031,note_off,0,0,0,,8,,,80,127
54032,note_on,1,0,0,,10,,,81,127
54032,note_on,0,0,0,,12,,,71,127
54032,note_on,0,0,0,,10,,,69,127
54032,note_on,0,0,0,,3,,,63,127
54223,note_off,191,0,0,,3,,,63,127
54223,note_off,0,0,0,,10,,,69,127
54223,note_off,0,0,0,,12,,,71,127
54223,note_off,0,0,0,,10,,,81,127
54224,note_on,1,0,0,,8,,,80,127
54224,note_on,0,0,0,,12,,,71,127
54224,note_on,0,0,0,,4,,,64,127
54224,note_on,0,0,0,,8,,,68,127
54415,note_off,191,0,0,,8,,,68,127
54415,note_off,0,0,0,,4,,,64,127
54415,note_off,0,0,0,,12,,,71,127
54415,note_off,0,0,0,,8,,,80,127
54416,note_on,1,0,0,,10,,,81,127
54416,note_on,0,0,0,,6,,,66,127
54607,note_off,191,0,0,,6,,,66,127
54607,note_off,0,0,0,,10,,,81,127
54608,note_on,1,0,0,,12,,,83,127
54608,note_on,0,0,0,,8,,,68,127
54799,note_off,191,0,0,,8,,,68,127
54800,note_on,1,0,0,,10,,,69,127
54991,note_off,191,0,0,,10,,,69,127
54991,note_off,0,0,0,,12,,,83,127
54992,note_on,1,0,0,,1,,,85,127
54992,note_on,0,0,0,,10,,,69,127
55183,note_off,191,0,0,,10,,,69,127
55183,note_off,0,0,0,,1,,,85,127
55184,note_on,1,0,0,,4,,,76,127
55184,note_on,0,0,0,,8,,,68,127
55375,note_off,191,0,0,,8,,,68,127
55375,note_off,0,0,0,,4,,,76,127
55376,note_on,1,0,0,,3,,,75,127
55376,note_on,0,0,0,,6,,,66,127
55376,note_on,0,0,0,,10,,,57,127
55567,note_off,191,0,0,,10,,,57,127
55567,note_off,0,0,0,,6,,,66,127
55567,note_off,0,0,0,,3,,,75,127
55568,note_on,1,0,0,,6,,,78,127
55568,note_on,0,0,0,,6,,,66,127
55568,note_on,0,0,0,,10,,,57,127
55759,note_off,191,0,0,,10,,,57,127
55759,note_off,0,0,0,,6,,,66,127
55759,note_off,0,0,0,,6,,,78,127
55760,note_on,1,0,0,,10,,,81,127
55760,note_on,0,0,0,,10,,,57,127
55760,note_on,0,0,0,,6,,,66,127
55951,note_off,191,0,0,,6,,,66,127
55951,note_off,0,0,0,,10,,,57,127
55952,note_on,1,0,0,,4,,,64,127
55952,note_on,0,0,0,,8,,,56,127
56143,note_off,191,0,0,,8,,,56,127
56143,note_off,0,0,0,,4,,,64,127
56143,note_off,0,0,0,,10,,,81,127
56144,note_on,1,0,0,,12,,,83,127
56144,note_on,0,0,0,,4,,,64,127
56144,note_on,0,0,0,,8,,,56,127
56335,note_off,191,0,0,,8,,,56,127
56335,note_off,0,0,0,,4,,,64,127
56335,note_off,0,0,0,,12,,,83,127
56336,note_on,1,0,0,,12,,,71,127
56336,note_on,0,0,0,,8,,,56,127
56336,note_on,0,0,0,,4,,,64,127
56527,note_off,191,0,0,,4,,,64,127
56527,note_off,0,0,0,,8,,,56,127
56527,note_off,0,0,0,,12,,,71,127
56528,note_on,1,0,0,,10,,,69,127
56528,note_on,0,0,0,,3,,,63,127
56528,note_on,0,0,0,,6,,,54,127
56719,note_off,191,0,0,,6,,,54,127
56719,note_off,0,0,0,,3,,,63,127
56719,note_off,0,0,0,,10,,,69,127
56720,note_on,1,0,0,,3,,,75,127
56720,note_on,0,0,0,,6,,,54,127
56720,note_on,0,0,0,,3,,,63,127
56911,note_off,191,0,0,,3,,,63,127
56911,note_off,0,0,0,,6,,,54,127
56911,note_off,0,0,0,,3,,,75,127
56912,note_on,1,0,0,,6,,,78,127
56912,note_on,0,0,0,,3,,,63,127
56912,note_on,0,0,0,,6,,,54,127
57103,note_off,191,0,0,,6,,,54,127
57103,note_off,0,0,0,,3,,,63,127
57104,note_on,1,0,0,,12,,,59,127
57104,note_on,0,0,0,,4,,,52,127
57295,note_off,191,0,0,,4,,,52,127
57295,note_off,0,0,0,,12,,,59,127
57295,note_off,0,0,0,,6,,,78,127
57296,note_on,1,0,0,,8,,,80,127
57296,note_on,0,0,0,,4,,,52,127
57296,note_on,0,0,0,,12,,,59,127
57487,note_off,191,0,0,,12,,,59,127
57487,note_off,0,0,0,,4,,,52,127
57487,note_off,0,0,0,,8,,,80,127
57488,note_on,1,0,0,,12,,,71,127
57488,note_on,0,0,0,,12,,,59,127
57488,note_on,0,0,0,,4,,,52,127
57679,note_off,191,0,0,,4,,,52,127
57679,note_off,0,0,0,,12,,,59,127
57680,note_on,1,0,0,,10,,,45,127
57871,note_off,191,0,0,,12,,,71,127
57872,note_on,1,0,0,,1,,,73,127
58063,note_off,191,0,0,,1,,,73,127
58064,note_on,1,0,0,,4,,,64,127
58255,note_off,191,0,0,,4,,,64,127
58255,note_off,0,0,0,,10,,,45,127
58256,note_on,1,0,0,,4,,,64,127
58256,note_on,0,0,0,,12,,,35,127
58447,note_off,191,0,0,,4,,,64,127
58448,note_on,1,0,0,,3,,,63,127
58831,note_off,383,0,0,,3,,,63,127
58831,note_off,0,0,0,,12,,,35,127
58840,note_on,9,0,0,,12,,,71,127
58840,note_on,0,0,0,,3,,,75,127
58935,note_off,95,0,0,,3,,,75,127
58936,note_on,1,0,0,,6,,,78,127
59031,note_off,95,0,0,,6,,,78,127
59031,note_off,0,0,0,,12,,,71,127
59032,note_on,1,0,0,,1,,,73,127
59032,note_on,0,0,0,,4,,,76,127
59127,note_off,95,0,0,,4,,,76,127
59128,note_on,1,0,0,,8,,,80,127
59223,note_off,95,0,0,,8,,,80,127
59223,note_off,0,0,0,,1,,,73,127
59224,note_on,1,0,0,,3,,,75,127
59224,note_on,0,0,0,,6,,,78,127
59319,note_off,95,0,0,,6,,,78,127
59320,note_on,1,0,0,,10,,,81,127
59415,note_off,95,0,0,,10,,,81,127
59415,note_off,0,0,0,,3,,,75,127
59416,note_on,1,0,0,,4,,,76,127
59416,note_on,0,0,0,,8,,,80,127
59511,note_off,95,0,0,,8,,,80,127
59512,note_on,1,0,0,,12,,,83,127
59607,note_off,95,0,0,,12,,,83,127
59607,note_off,0,0,0,,4,,,76,127
59608,note_on,1,0,0,,6,,,78,127
59608,note_on,0,0,0,,10,,,81,127
59703,note_off,95,0,0,,10,,,81,127
59704,note_on,1,0,0,,1,,,85,127
59799,note_off,95,0,0,,1,,,85,127
59799,note_off,0,0,0,,6,,,78,127
59800,note_on,1,0,0,,8,,,80,127
59800,note_on,0,0,0,,12,,,83,127
59895,note_off,95,0,0,,12,,,83,127
59896,note_on,1,0,0,,1,,,85,127
59991,note_off,95,0,0,,1,,,85,127
59991,note_off,0,0,0,,8,,,80,127
59992,note_on,1,0,0,,12,,,71,127
59992,note_on,0,0,0,,3,,,75,127
60087,note_off,95,0,0,,3,,,75,127
60088,note_on,1,0,0,,6,,,78,127
60183,note_off,95,0,0,,6,,,78,127
60183,note_off,0,0,0,,12,,,71,127
60184,note_on,1,0,0,,1,,,73,127
60184,note_on,0,0,0,,4,,,76,127
60279,note_off,95,0,0,,4,,,76,127
60280,note_on,1,0,0,,8,,,80,127
60375,note_off,95,0,0,,8,,,80,127
60375,note_off,0,0,0,,1,,,73,127
60376,note_on,1,0,0,,3,,,75,127
60376,note_on,0,0,0,,6,,,78,127
60471,note_off,95,0,0,,6,,,78,127
60472,note_on,1,0,0,,10,,,81,127
60567,note_off,95,0,0,,10,,,81,127
60567,note_off,0,0,0,,3,,,75,127
60568,note_on,1,0,0,,4,,,76,127
60568,note_on,0,0,0,,8,,,80,127
60663,note_off,95,0,0,,8,,,80,127
60664,note_on,1,0,0,,12,,,83,127
60759,note_off,95,0,0,,12,,,83,127
60759,note_off,0,0,0,,4,,,76,127
60760,note_on,1,0,0,,6,,,78,127
60760,note_on,0,0,0,,10,,,81,127
60855,note_off,95,0,0,,10,,,81,127
60856,note_on,1,0,0,,1,,,85,127
60951,note_off,95,0,0,,1,,,85,127
60951,note_off,0,0,0,,6,,,78,127
60952,note_on,1,0,0,,8,,,80,127
60952,note_on,0,0,0,,12,,,83,127
61047,note_off,95,0,0,,12,,,83,127
61048,note_on,1,0,0,,1,,,85,127
61143,note_off,95,0,0,,1,,,85,127
61143,note_off,0,0,0,,8,,,80,127
61144,note_on,1,0,0,,12,,,71,127
61144,note_on,0,0,0,,3,,,75,127
61239,note_off,95,0,0,,3,,,75,127
61240,note_on,1,0,0,,6,,,78,127
61335,note_off,95,0,0,,6,,,78,127
61335,note_off,0,0,0,,12,,,71,127
61336,note_on,1,0,0,,1,,,73,127
61336,note_on,0,0,0,,4,,,76,127
61431,note_off,95,0,0,,4,,,76,127
61432,note_on,1,0,0,,8,,,80,127
61527,note_off,95,0,0,,8,,,80,127
61527,note_off,0,0,0,,1,,,73,127
61528,note_on,1,0,0,,3,,,75,127
61528,note_on,0,0,0,,6,,,78,127
61623,note_off,95,0,0,,6,,,78,127
61624,note_on,1,0,0,,10,,,81,127
61719,note_off,95,0,0,,10,,,81,127
61719,note_off,0,0,0,,3,,,75,127
61720,note_on,1,0,0,,4,,,76,127
61720,note_on,0,0,0,,8,,,80,127
61815,note_off,95,0,0,,8,,,80,127
61816,note_on,1,0,0,,12,,,83,127
61911,note_off,95,0,0,,12,,,83,127
61911,note_off,0,0,0,,4,,,76,127
61912,note_on,1,0,0,,6,,,78,127
61912,note_on,0,0,0,,10,,,81,127
62007,note_off,95,0,0,,10,,,81,127
62008,note_on,1,0,0,,1,,,85,127
62103,note_off,95,0,0,,1,,,85,127
62103,note_off,0,0,0,,6,,,78,127
62104,note_on,1,0,0,,8,,,80,127
62104,note_on,0,0,0,,12,,,83,127
62198,note_off,94,0,0,,8,,,80,127
62199,note_off,1,0,0,,12,,,83,127
62200,note_on,1,0,0,,8,,,80,127
62295,note_off,95,0,0,,8,,,80,127
62296,note_on,1,0,0,,10,,,69,127
62296,note_on,0,0,0,,1,,,85,127
62391,note_off,95,0,0,,1,,,85,127
62391,note_off,0,0,0,,10,,,69,127
62392,note_on,1,0,0,,10,,,69,127
62392,note_on,0,0,0,,10,,,81,127
62487,note_off,95,0,0,,10,,,81,127
62487,note_off,0,0,0,,10,,,69,127
62488,note_on,1,0,0,,12,,,71,127
62488,note_on,0,0,0,,8,,,80,127
62583,note_off,95,0,0,,8,,,80,127
62584,note_on,1,0,0,,6,,,78,127
62679,note_off,95,0,0,,6,,,78,127
62679,note_off,0,0,0,,12,,,71,127
62680,note_on,1,0,0,,12,,,59,127
62680,note_on,0,0,0,,4,,,76,127
62775,note_off,95,0,0,,4,,,76,127
62776,note_on,1,0,0,,3,,,75,127
62871,note_off,95,0,0,,3,,,75,127
62871,note_off,0,0,0,,12,,,59,127
62872,note_on,1,0,0,,4,,,52,127
62872,note_on,0,0,0,,4,,,76,127
62967,note_off,95,0,0,,4,,,76,127
62968,note_on,1,0,0,,6,,,78,127
63063,note_off,95,0,0,,6,,,78,127
63064,note_on,1,0,0,,8,,,80,127
63159,note_off,95,0,0,,8,,,80,127
63160,note_on,1,0,0,,10,,,81,127
63255,note_off,95,0,0,,10,,,81,127
63256,note_on,1,0,0,,12,,,83,127
63351,note_off,95,0,0,,12,,,83,127
63352,note_on,1,0,0,,1,,,85,127
63446,note_off,94,0,0,,1,,,85,127
63447,note_off,1,0,0,,4,,,52,127
63448,note_on,1,0,0,,12,,,59,127
63448,note_on,0,0,0,,1,,,85,127
63496,note_off,48,0,0,,1,,,85,127
63496,note_on,0,0,0,,12,,,83,127
63543,note_off,47,0,0,,12,,,59,127
63544,note_off,1,0,0,,12,,,83,127
63544,note_on,0,0,0,,3,,,63,127
63544,note_on,0,0,0,,1,,,85,127
63592,note_off,48,0,0,,1,,,85,127
63592,note_on,0,0,0,,12,,,83,127
63639,note_off,47,0,0,,3,,,63,127
63640,note_on,1,0,0,,1,,,61,127
63735,note_off,95,0,0,,1,,,61,127
63736,note_on,1,0,0,,4,,,64,127
63831,note_off,95,0,0,,4,,,64,127
63832,note_on,1,0,0,,3,,,63,127
63927,note_off,95,0,0,,3,,,63,127
63928,note_on,1,0,0,,6,,,66,127
64023,note_off,95,0,0,,6,,,66,127
64024,note_off,1,0,0,,12,,,83,127
64024,note_on,0,0,0,,4,,,64,127
64024,note_on,0,0,0,,1,,,85,127
64072,note_off,48,0,0,,1,,,85,127
64072,note_on,0,0,0,,12,,,83,127
64119,note_off,47,0,0,,4,,,64,127
64120,note_off,1,0,0,,12,,,83,127
64120,note_on,0,0,0,,8,,,68,127
64120,note_on,0,0,0,,1,,,85,127
64168,note_off,48,0,0,,1,,,85,127
64168,note_on,0,0,0,,12,,,83,127
64215,note_off,47,0,0,,8,,,68,127
64216,note_on,1,0,0,,6,,,66,127
64311,note_off,95,0,0,,6,,,66,127
64312,note_on,1,0,0,,10,,,69,127
64407,note_off,95,0,0,,10,,,69,127
64408,note_on,1,0,0,,8,,,68,127
64503,note_off,95,0,0,,8,,,68,127
64504,note_on,1,0,0,,10,,,69,127
64599,note_off,95,0,0,,10,,,69,127
64600,note_off,1,0,0,,12,,,83,127
64600,note_on,0,0,0,,12,,,59,127
64600,note_on,0,0,0,,1,,,85,127
64648,note_off,48,0,0,,1,,,85,127
64648,note_on,0,0,0,,12,,,83,127
64695,note_off,47,0,0,,12,,,59,127
64696,note_off,1,0,0,,12,,,83,127
64696,note_on,0,0,0,,3,,,63,127
64696,note_on,0,0,0,,1,,,85,127
64744,note_off,48,0,0,,1,,,85,127
64744,note_on,0,0,0,,12,,,83,127
64791,note_off,47,0,0,,3,,,63,127
64792,note_on,1,0,0,,1,,,61,127
64887,note_off,95,0,0,,1,,,61,127
64888,note_on,1,0,0,,4,,,64,127
64983,note_off,95,0,0,,4,,,64,127
64984,note_on,1,0,0,,3,,,63,127
65079,note_off,95,0,0,,3,,,63,127
65080,note_on,1,0,0,,6,,,66,127
65175,note_off,95,0,0,,6,,,66,127
65176,note_off,1,0,0,,12,,,83,127
65176,note_on,0,0,0,,4,,,64,127
65176,note_on,0,0,0,,1,,,85,127
65224,note_off,48,0,0,,1,,,85,127
65224,note_on,0,0,0,,12,,,83,127
65271,note_off,47,0,0,,4,,,64,127
65272,note_off,1,0,0,,12,,,83,127
65272,note_on,0,0,0,,8,,,68,127
65272,note_on,0,0,0,,1,,,85,127
65320,note_off,48,0,0,,1,,,85,127
65320,note_on,0,0,0,,12,,,83,127
65367,note_off,47,0,0,,8,,,68,127
65368,note_on,1,0,0,,6,,,66,127
65463,note_off,95,0,0,,6,,,66,127
65464,note_on,1,0,0,,10,,,69,127
65559,note_off,95,0,0,,10,,,69,127
65560,note_on,1,0,0,,8,,,68,127
65655,note_off,95,0,0,,8,,,68,127
65656,note_on,1,0,0,,10,,,69,127
65751,note_off,95,0,0,,10,,,69,127
65752,note_off,1,0,0,,12,,,83,127
65752,note_on,0,0,0,,12,,,59,127
65752,note_on,0,0,0,,1,,,85,127
65800,note_off,48,0,0,,1,,,85,127
65800,note_on,0,0,0,,12,,,83,127
65847,note_off,47,0,0,,12,,,59,127
65848,note_off,1,0,0,,12,,,83,127
65848,note_on,0,0,0,,3,,,63,127
65848,note_on,0,0,0,,1,,,85,127
65896,note_off,48,0,0,,1,,,85,127
65896,note_on,0,0,0,,12,,,83,127
65943,note_off,47,0,0,,3,,,63,127
65944,note_on,1,0,0,,1,,,61,127
66039,note_off,95,0,0,,1,,,61,127
66040,note_on,1,0,0,,4,,,64,127
66135,note_off,95,0,0,,4,,,64,127
66136,note_on,1,0,0,,3,,,63,127
66231,note_off,95,0,0,,3,,,63,127
66232,note_on,1,0,0,,6,,,66,127
66327,note_off,95,0,0,,6,,,66,127
66328,note_on,1,0,0,,4,,,64,127
66424,note_on,96,0,0,,10,,,81,127
66426,note_off,2,0,0,,12,,,83,127
66519,note_off,93,0,0,,10,,,81,127
66519,note_off,0,0,0,,4,,,64,127
66520,note_on,1,0,0,,6,,,66,127
66520,note_on,0,0,0,,8,,,80,127
66615,note_off,95,0,0,,8,,,80,127
66616,note_on,1,0,0,,6,,,78,127
66711,note_off,95,0,0,,6,,,78,127
66711,note_off,0,0,0,,6,,,66,127
66712,note_on,1,0,0,,8,,,68,127
66712,note_on,0,0,0,,4,,,76,127
66807,note_off,95,0,0,,4,,,76,127
66808,note_on,1,0,0,,8,,,80,127
66903,note_off,95,0,0,,8,,,80,127
66903,note_off,0,0,0,,8,,,68,127
66904,note_on,1,0,0,,10,,,69,127
66904,note_on,0,0,0,,6,,,78,127
66999,note_off,95,0,0,,6,,,78,127
67000,note_on,1,0,0,,10,,,81,127
67095,note_off,95,0,0,,10,,,81,127
67095,note_off,0,0,0,,10,,,69,127
67096,note_on,1,0,0,,12,,,71,127
67096,note_on,0,0,0,,8,,,80,127
67191,note_off,95,0,0,,8,,,80,127
67192,note_on,1,0,0,,6,,,78,127
67287,note_off,95,0,0,,6,,,78,127
67287,note_off,0,0,0,,12,,,71,127
67288,note_on,1,0,0,,12,,,59,127
67288,note_on,0,0,0,,4,,,76,127
67383,note_off,95,0,0,,4,,,76,127
67384,note_on,1,0,0,,3,,,75,127
67479,note_off,95,0,0,,3,,,75,127
67479,note_off,0,0,0,,12,,,59,127
67480,note_on,1,0,0,,4,,,52,127
67480,note_on,0,0,0,,4,,,76,127
67671,note_off,191,0,0,,4,,,76,127
67672,note_on,1,0,0,,4,,,76,127
67863,note_off,191,0,0,,4,,,76,127
67864,note_on,1,0,0,,7,,,79,127
67864,note_on,0,0,0,,4,,,76,127
68055,note_off,191,0,0,,4,,,52,127
68056,note_on,1,0,0,,7,,,55,127
68056,note_on,0,0,0,,4,,,52,127
68056,note_on,0,0,0,,10,,,57,127
68056,note_on,0,0,0,,1,,,61,127
68247,note_off,191,0,0,,4,,,76,127
68247,note_off,0,0,0,,7,,,79,127
68248,note_on,1,0,0,,5,,,77,127
68248,note_on,0,0,0,,2,,,74,127
68439,note_off,191,0,0,,2,,,74,127
68439,note_off,0,0,0,,5,,,77,127
68440,note_on,1,0,0,,4,,,76,127
68440,note_on,0,0,0,,1,,,73,127
68631,note_off,191,0,0,,4,,,76,127
68631,note_off,0,0,0,,1,,,61,127
68631,note_off,0,0,0,,10,,,57,127
68631,note_off,0,0,0,,4,,,52,127
68631,note_off,0,0,0,,7,,,55,127
68632,note_on,1,0,0,,5,,,53,127
68632,note_on,0,0,0,,10,,,57,127
68632,note_on,0,0,0,,2,,,62,127
68632,note_on,0,0,0,,10,,,81,127
68824,note_off,192,0,0,,1,,,73,127
68824,note_on,0,0,0,,2,,,74,127
69015,note_off,191,0,0,,2,,,74,127
69016,note_off,1,0,0,,10,,,81,127
69016,note_on,0,0,0,,7,,,79,127
69016,note_on,0,0,0,,4,,,76,127
69207,note_off,191,0,0,,2,,,62,127
69207,note_off,0,0,0,,10,,,57,127
69207,note_off,0,0,0,,5,,,53,127
69208,note_on,1,0,0,,4,,,52,127
69208,note_on,0,0,0,,10,,,57,127
69208,note_on,0,0,0,,7,,,55,127
69208,note_on,0,0,0,,1,,,61,127
69399,note_off,191,0,0,,4,,,76,127
69399,note_off,0,0,0,,7,,,79,127
69400,note_on,1,0,0,,5,,,77,127
69400,note_on,0,0,0,,2,,,74,127
69591,note_off,191,0,0,,2,,,74,127
69591,note_off,0,0,0,,5,,,77,127
69592,note_on,1,0,0,,4,,,76,127
69592,note_on,0,0,0,,1,,,73,127
69783,note_off,191,0,0,,4,,,76,127
69783,note_off,0,0,0,,1,,,61,127
69783,note_off,0,0,0,,7,,,55,127
69783,note_off,0,0,0,,10,,,57,127
69783,note_off,0,0,0,,4,,,52,127
69784,note_on,1,0,0,,5,,,53,127
69784,note_on,0,0,0,,2,,,62,127
69784,note_on,0,0,0,,10,,,57,127
69784,note_on,0,0,0,,10,,,81,127
69976,note_off,192,0,0,,1,,,73,127
69976,note_on,0,0,0,,2,,,74,127
70167,note_off,191,0,0,,2,,,74,127
70168,note_off,1,0,0,,10,,,81,127
70168,note_on,0,0,0,,5,,,77,127
70168,note_on,0,0,0,,8,,,68,127
70359,note_off,191,0,0,,10,,,57,127
70359,note_off,0,0,0,,2,,,62,127
70359,note_off,0,0,0,,5,,,53,127
70360,note_on,1,0,0,,2,,,50,127
70360,note_on,0,0,0,,8,,,56,127
70360,note_on,0,0,0,,12,,,59,127
70551,note_off,191,0,0,,8,,,68,127
70551,note_off,0,0,0,,5,,,77,127
70552,note_on,1,0,0,,4,,,76,127
70552,note_on,0,0,0,,10,,,69,127
70743,note_off,191,0,0,,10,,,69,127
70743,note_off,0,0,0,,4,,,76,127
70744,note_on,1,0,0,,3,,,75,127
70744,note_on,0,0,0,,12,,,71,127
70935,note_off,191,0,0,,12,,,71,127
70935,note_off,0,0,0,,3,,,75,127
70935,note_off,0,0,0,,12,,,59,127
70935,note_off,0,0,0,,8,,,56,127
70935,note_off,0,0,0,,2,,,50,127
70936,note_on,1,0,0,,0,,,48,127
70936,note_on,0,0,0,,0,,,60,127
70936,note_on,0,0,0,,10,,,57,127
70936,note_on,0,0,0,,4,,,76,127
70936,note_on,0,0,0,,0,,,72,127
71127,note_off,191,0,0,,0,,,72,127
71128,note_on,1,0,0,,10,,,69,127
71319,note_off,191,0,0,,10,,,69,127
71320,note_off,1,0,0,,4,,,76,127
71320,note_on,0,0,0,,3,,,63,127
71320,note_on,0,0,0,,0,,,72,127
71511,note_off,191,0,0,,10,,,57,127
71511,note_off,0,0,0,,0,,,60,127
71511,note_off,0,0,0,,0,,,48,127
71512,note_on,1,0,0,,6,,,54,127
71512,note_on,0,0,0,,10,,,57,127
71512,note_on,0,0,0,,10,,,45,127
71703,note_off,191,0,0,,0,,,72,127
71703,note_off,0,0,0,,3,,,63,127
71704,note_on,1,0,0,,12,,,71,127
71704,note_on,0,0,0,,4,,,64,127
71895,note_off,191,0,0,,4,,,64,127
71895,note_off,0,0,0,,12,,,71,127
71896,note_on,1,0,0,,6,,,66,127
71896,note_on,0,0,0,,11,,,70,127
72087,note_off,191,0,0,,11,,,70,127
72087,note_off,0,0,0,,6,,,66,127
72087,note_off,0,0,0,,10,,,45,127
72087,note_off,0,0,0,,10,,,57,127
72087,note_off,0,0,0,,6,,,54,127
72088,note_on,1,0,0,,7,,,43,127
72088,note_on,0,0,0,,7,,,55,127
72088,note_on,0,0,0,,4,,,52,127
72088,note_on,0,0,0,,12,,,71,127
72088,note_on,0,0,0,,7,,,67,127
72279,note_off,191,0,0,,7,,,67,127
72280,note_on,1,0,0,,4,,,64,127
72471,note_off,191,0,0,,4,,,64,127
72472,note_off,1,0,0,,12,,,71,127
72472,note_on,0,0,0,,7,,,67,127
72472,note_on,0,0,0,,11,,,58,127
72663,note_off,191,0,0,,4,,,52,127
72663,note_off,0,0,0,,7,,,55,127
72663,note_off,0,0,0,,7,,,43,127
72664,note_on,1,0,0,,4,,,52,127
72664,note_on,0,0,0,,7,,,55,127
72855,note_off,191,0,0,,11,,,58,127
72855,note_off,0,0,0,,7,,,67,127
72856,note_on,1,0,0,,12,,,59,127
72856,note_on,0,0,0,,6,,,66,127
73047,note_off,191,0,0,,6,,,66,127
73047,note_off,0,0,0,,12,,,59,127
73048,note_on,1,0,0,,4,,,64,127
73048,note_on,0,0,0,,1,,,61,127
73239,note_off,191,0,0,,1,,,61,127
73239,note_off,0,0,0,,4,,,64,127
73239,note_off,0,0,0,,7,,,55,127
73239,note_off,0,0,0,,4,,,52,127
73240,note_on,1,0,0,,6,,,54,127
73240,note_on,0,0,0,,3,,,51,127
73240,note_on,0,0,0,,3,,,63,127
73240,note_on,0,0,0,,6,,,66,127
73431,note_off,191,0,0,,6,,,66,127
73431,note_off,0,0,0,,3,,,63,127
73431,note_off,0,0,0,,3,,,51,127
73431,note_off,0,0,0,,6,,,54,127
73432,note_on,1,0,0,,1,,,49,127
73432,note_on,0,0,0,,8,,,68,127
73432,note_on,0,0,0,,4,,,64,127
73623,note_off,191,0,0,,4,,,64,127
73623,note_off,0,0,0,,8,,,68,127
73623,note_off,0,0,0,,1,,,49,127
73624,note_on,1,0,0,,12,,,47,127
73624,note_on,0,0,0,,10,,,69,127
73624,note_on,0,0,0,,6,,,66,127
73815,note_off,191,0,0,,6,,,66,127
73815,note_off,0,0,0,,10,,,69,127
73815,note_off,0,0,0,,12,,,47,127
73816,note_on,1,0,0,,4,,,52,127
73816,note_on,0,0,0,,8,,,68,127
73816,note_on,0,0,0,,4,,,64,127
74007,note_off,191,0,0,,8,,,68,127
74007,note_off,0,0,0,,4,,,52,127
74008,note_on,1,0,0,,6,,,54,127
74008,note_on,0,0,0,,10,,,69,127
74199,note_off,191,0,0,,10,,,69,127
74199,note_off,0,0,0,,6,,,54,127
74200,note_off,1,0,0,,4,,,64,127
74200,note_on,0,0,0,,8,,,56,127
74200,note_on,0,0,0,,12,,,71,127
74391,note_off,191,0,0,,12,,,71,127
74391,note_off,0,0,0,,8,,,56,127
74392,note_on,1,0,0,,10,,,57,127
74392,note_on,0,0,0,,1,,,73,127
74583,note_off,191,0,0,,1,,,73,127
74583,note_off,0,0,0,,10,,,57,127
74584,note_on,1,0,0,,12,,,59,127
74584,note_on,0,0,0,,3,,,75,127
74775,note_off,191,0,0,,3,,,75,127
74775,note_off,0,0,0,,12,,,59,127
74776,note_on,1,0,0,,1,,,61,127
74776,note_on,0,0,0,,4,,,76,127
74967,note_off,191,0,0,,4,,,76,127
74967,note_off,0,0,0,,1,,,61,127
74968,note_on,1,0,0,,3,,,63,127
74968,note_on,0,0,0,,6,,,66,127
75159,note_off,191,0,0,,3,,,63,127
75160,note_on,1,0,0,,12,,,59,127
75351,note_off,191,0,0,,12,,,59,127
75351,note_off,0,0,0,,6,,,66,127
75352,note_on,1,0,0,,4,,,64,127
75352,note_on,0,0,0,,8,,,68,127
75543,note_off,191,0,0,,8,,,68,127
75543,note_off,0,0,0,,4,,,64,127
75544,note_on,1,0,0,,10,,,57,127
75544,note_on,0,0,0,,10,,,69,127
75544,note_on,0,0,0,,6,,,66,127
75735,note_off,191,0,0,,6,,,66,127
75735,note_off,0,0,0,,10,,,69,127
75735,note_off,0,0,0,,10,,,57,127
75736,note_on,1,0,0,,12,,,59,127
75736,note_on,0,0,0,,8,,,68,127
75736,note_on,0,0,0,,4,,,64,127
75927,note_off,191,0,0,,4,,,64,127
75927,note_off,0,0,0,,8,,,68,127
75927,note_off,0,0,0,,12,,,59,127
75928,note_on,1,0,0,,10,,,57,127
75928,note_on,0,0,0,,6,,,66,127
75928,note_on,0,0,0,,3,,,63,127
76119,note_off,191,0,0,,3,,,63,127
76119,note_off,0,0,0,,6,,,66,127
76119,note_off,0,0,0,,10,,,57,127
76120,note_on,1,0,0,,8,,,56,127
76120,note_on,0,0,0,,8,,,68,127
76120,note_on,0,0,0,,4,,,64,127
76215,note_off,95,0,0,,4,,,64,127
76215,note_off,0,0,0,,8,,,68,127
76216,note_on,1,0,0,,12,,,71,127
76311,note_off,95,0,0,,12,,,71,127
76311,note_off,0,0,0,,8,,,56,127
76312,note_on,1,0,0,,6,,,54,127
76312,note_on,0,0,0,,10,,,69,127
76407,note_off,95,0,0,,10,,,69,127
76408,note_on,1,0,0,,1,,,73,127
76503,note_off,95,0,0,,1,,,73,127
76503,note_off,0,0,0,,6,,,54,127
76504,note_on,1,0,0,,4,,,52,127
76504,note_on,0,0,0,,12,,,71,127
76695,note_off,191,0,0,,12,,,71,127
76695,note_off,0,0,0,,4,,,52,127
76696,note_on,1,0,0,,10,,,57,127
76696,note_on,0,0,0,,6,,,66,127
76696,note_on,0,0,0,,10,,,69,127
76887,note_off,191,0,0,,10,,,69,127
76887,note_off,0,0,0,,6,,,66,127
76887,note_off,0,0,0,,10,,,57,127
76888,note_on,1,0,0,,12,,,59,127
76888,note_on,0,0,0,,8,,,68,127
76888,note_on,0,0,0,,4,,,64,127
77079,note_off,191,0,0,,4,,,64,127
77079,note_off,0,0,0,,8,,,68,127
77079,note_off,0,0,0,,12,,,59,127
77080,note_on,1,0,0,,10,,,57,127
77080,note_on,0,0,0,,6,,,66,127
77080,note_on,0,0,0,,3,,,63,127
77271,note_off,191,0,0,,3,,,63,127
77271,note_off,0,0,0,,6,,,66,127
77271,note_off,0,0,0,,10,,,57,127
77272,note_on,1,0,0,,8,,,56,127
77272,note_on,0,0,0,,4,,,64,127
77272,note_on,0,0,0,,4,,,76,127
77367,note_off,95,0,0,,4,,,76,127
77368,note_on,1,0,0,,8,,,80,127
77463,note_off,95,0,0,,8,,,80,127
77463,note_off,0,0,0,,4,,,64,127
77463,note_off,0,0,0,,8,,,56,127
77464,note_on,1,0,0,,6,,,54,127
77464,note_on,0,0,0,,6,,,78,127
77559,note_off,95,0,0,,6,,,78,127
77560,note_on,1,0,0,,10,,,81,127
77655,note_off,95,0,0,,10,,,81,127
77655,note_off,0,0,0,,6,,,54,127
77656,note_on,1,0,0,,4,,,52,127
77656,note_on,0,0,0,,4,,,76,127
77656,note_on,0,0,0,,8,,,80,127
77847,note_off,191,0,0,,8,,,80,127
77847,note_off,0,0,0,,4,,,76,127
77847,note_off,0,0,0,,4,,,52,127
77848,note_on,1,0,0,,10,,,57,127
77848,note_on,0,0,0,,10,,,81,127
77848,note_on,0,0,0,,6,,,78,127
78039,note_off,191,0,0,,6,,,78,127
78039,note_off,0,0,0,,10,,,81,127
78039,note_off,0,0,0,,10,,,57,127
78040,note_on,1,0,0,,12,,,59,127
78040,note_on,0,0,0,,4,,,76,127
78040,note_on,0,0,0,,8,,,80,127
78231,note_off,191,0,0,,8,,,80,127
78231,note_off,0,0,0,,4,,,76,127
78231,note_off,0,0,0,,12,,,59,127
78232,note_on,1,0,0,,10,,,57,127
78232,note_on,0,0,0,,3,,,75,127
78232,note_on,0,0,0,,6,,,78,127
78423,note_off,191,0,0,,6,,,78,127
78423,note_off,0,0,0,,3,,,75,127
78423,note_off,0,0,0,,10,,,57,127
78424,note_on,1,0,0,,8,,,56,127
78424,note_on,0,0,0,,4,,,64,127
78424,note_on,0,0,0,,8,,,80,127
78424,note_on,0,0,0,,4,,,76,127
78519,note_off,95,0,0,,4,,,76,127
78519,note_off,0,0,0,,8,,,80,127
78520,note_on,1,0,0,,12,,,83,127
78520,note_on,0,0,0,,8,,,80,127
78615,note_off,95,0,0,,8,,,80,127
78615,note_off,0,0,0,,12,,,83,127
78615,note_off,0,0,0,,4,,,64,127
78615,note_off,0,0,0,,8,,,56,127
78616,note_on,1,0,0,,6,,,54,127
78616,note_on,0,0,0,,10,,,81,127
78711,note_off,95,0,0,,10,,,81,127
78712,note_on,1,0,0,,1,,,85,127
78807,note_off,95,0,0,,1,,,85,127
78807,note_off,0,0,0,,6,,,54,127
78808,note_on,1,0,0,,4,,,52,127
78808,note_on,0,0,0,,12,,,83,127
78808,note_on,0,0,0,,8,,,80,127
78999,note_off,191,0,0,,8,,,80,127
78999,note_off,0,0,0,,12,,,83,127
78999,note_off,0,0,0,,4,,,52,127
79006,note_on,7,0,0,,6,,,78,127
79006,note_on,0,0,0,,10,,,81,127
79006,note_on,0,0,0,,10,,,57,127
79204,note_off,198,0,0,,10,,,57,127
79204,note_off,0,0,0,,10,,,81,127
79204,note_off,0,0,0,,6,,,78,127
79210,note_on,6,0,0,,4,,,76,127
79210,note_on,0,0,0,,12,,,59,127
79210,note_on,0,0,0,,8,,,80,127
79416,note_off,206,0,0,,8,,,80,127
79416,note_off,0,0,0,,12,,,59,127
79416,note_off,0,0,0,,4,,,76,127
79424,note_on,8,0,0,,3,,,75,127
79424,note_on,0,0,0,,6,,,78,127
79424,note_on,0,0,0,,12,,,47,127
79656,note_off,232,0,0,,12,,,47,127
79656,note_off,0,0,0,,6,,,78,127
79656,note_off,0,0,0,,3,,,75,127
79680,note_on,24,0,0,,4,,,40,127
79680,note_on,0,0,0,,4,,,76,127
81943,note_off,2263,0,0,,4,,,76,127
81943,note_off,0,0,0,,4,,,40,127
86016,end_of_track,4073,1,0,,,,,,
