tick,type,time,meta,track,program,channel,pitch,tempo,note,velocity
0,copyright,0,1,0,,,,,,
0,program_change,0,0,0,6,0,,,,
0,pitchwheel,0,0,0,,0,0,,,
0,program_change,0,0,0,6,1,,,,
0,pitchwheel,0,0,0,,1,-590,,,
0,program_change,0,0,0,6,2,,,,
0,pitchwheel,0,0,0,,2,-272,,,
0,program_change,0,0,0,6,3,,,,
0,pitchwheel,0,0,0,,3,-353,,,
0,program_change,0,0,0,6,4,,,,
0,pitchwheel,0,0,0,,4,-560,,,
0,program_change,0,0,0,6,5,,,,
0,pitchwheel,0,0,0,,5,-80,,,
0,program_change,0,0,0,6,6,,,,
0,pitchwheel,0,0,0,,6,-625,,,
0,program_change,0,0,0,6,7,,,,
0,pitchwheel,0,0,0,,7,-130,,,
0,program_change,0,0,0,6,8,,,,
0,pitchwheel,0,0,0,,8,-512,,,
0,program_change,0,0,0,6,10,,,,
0,pitchwheel,0,0,0,,10,-464,,,
0,program_change,0,0,0,6,11,,,,
0,pitchwheel,0,0,0,,11,-208,,,
0,program_change,0,0,0,6,12,,,,
0,pitchwheel,0,0,0,,12,-553,,,
0,set_tempo,0,1,0,,,,500000,,
51,note_on,51,0,0,,11,,,82,127
128,note_on,77,0,0,,10,,,81,127
152,note_off,24,0,0,,11,,,82,127
205,note_on,53,0,0,,11,,,82,127
229,note_off,24,0,0,,10,,,81,127
282,note_on,53,0,0,,10,,,81,127
306,note_off,24,0,0,,11,,,82,127
359,note_on,53,0,0,,11,,,82,127
383,note_off,24,0,0,,10,,,81,127
436,note_on,53,0,0,,10,,,81,127
460,note_off,24,0,0,,11,,,82,127
513,note_on,53,0,0,,11,,,82,127
537,note_off,24,0,0,,10,,,81,127
590,note_on,53,0,0,,10,,,81,127
614,note_off,24,0,0,,11,,,82,127
667,note_on,53,0,0,,11,,,82,127
691,note_off,24,0,0,,10,,,81,127
744,note_on,53,0,0,,10,,,81,127
768,note_off,24,0,0,,11,,,82,127
821,note_on,53,0,0,,11,,,82,127
845,note_off,24,0,0,,10,,,81,127
898,note_on,53,0,0,,10,,,81,127
922,note_off,24,0,0,,11,,,82,127
962,note_off,40,0,0,,10,,,81,127
975,note_on,13,0,0,,10,,,81,127
1281,note_off,306,0,0,,10,,,81,127
1283,note_on,2,0,0,,11,,,82,127
1360,note_on,77,0,0,,10,,,81,127
1384,note_off,24,0,0,,11,,,82,127
1437,note_on,53,0,0,,11,,,82,127
1461,note_off,24,0,0,,10,,,81,127
1514,note_on,53,0,0,,10,,,81,127
1538,note_off,24,0,0,,11,,,82,127
1591,note_on,53,0,0,,11,,,82,127
1615,note_off,24,0,0,,10,,,81,127
1668,note_on,53,0,0,,10,,,81,127
1692,note_off,24,0,0,,11,,,82,127
1745,note_on,53,0,0,,11,,,82,127
1769,note_off,24,0,0,,10,,,81,127
1822,note_on,53,0,0,,10,,,81,127
1846,note_off,24,0,0,,11,,,82,127
1899,note_on,53,0,0,,11,,,82,127
1923,note_off,24,0,0,,10,,,81,127
1976,note_on,53,0,0,,10,,,81,127
2000,note_off,24,0,0,,11,,,82,127
2053,note_on,53,0,0,,11,,,82,127
2077,note_off,24,0,0,,10,,,81,127
2130,note_on,53,0,0,,10,,,81,127
2154,note_off,24,0,0,,11,,,82,127
2194,note_off,40,0,0,,10,,,81,127
2207,note_on,13,0,0,,10,,,81,127
2513,note_off,306,0,0,,10,,,81,127
2515,note_on,2,0,0,,10,,,81,127
2515,note_on,0,0,0,,2,,,62,127
2974,note_off,459,0,0,,10,,,81,127
2976,note_on,2,0,0,,5,,,77,127
3128,note_off,152,0,0,,5,,,77,127
3130,note_on,2,0,0,,7,,,79,127
3436,note_off,306,0,0,,2,,,62,127
3438,note_on,2,0,0,,2,,,62,127
3590,note_off,152,0,0,,7,,,79,127
3592,note_on,2,0,0,,4,,,76,127
3744,note_off,152,0,0,,4,,,76,127
3744,note_off,0,0,0,,2,,,62,127
3746,note_on,2,0,0,,4,,,76,127
3746,note_on,0,0,0,,2,,,62,127
4359,note_off,613,0,0,,4,,,76,127
4361,note_on,2,0,0,,5,,,77,127
4667,note_off,306,0,0,,2,,,62,127
4669,note_on,2,0,0,,2,,,62,127
4975,note_off,306,0,0,,2,,,62,127
4977,note_on,2,0,0,,7,,,55,127
5436,note_off,459,0,0,,5,,,77,127
5438,note_on,2,0,0,,4,,,76,127
5590,note_off,152,0,0,,4,,,76,127
5590,note_off,0,0,0,,7,,,55,127
5592,note_on,2,0,0,,7,,,79,127
5592,note_on,0,0,0,,7,,,67,127
6051,note_off,459,0,0,,7,,,79,127
6053,note_on,2,0,0,,11,,,82,127
6205,note_off,152,0,0,,11,,,82,127
6205,note_off,0,0,0,,7,,,67,127
6207,note_on,2,0,0,,2,,,74,127
6207,note_on,0,0,0,,10,,,69,127
6820,note_off,613,0,0,,10,,,69,127
6822,note_on,2,0,0,,10,,,57,127
6899,note_on,77,0,0,,1,,,73,127
6928,note_off,29,0,0,,2,,,74,127
6976,note_on,48,0,0,,2,,,74,127
7000,note_off,24,0,0,,1,,,73,127
7053,note_on,53,0,0,,1,,,73,127
7077,note_off,24,0,0,,2,,,74,127
7130,note_on,53,0,0,,2,,,74,127
7154,note_off,24,0,0,,1,,,73,127
7207,note_on,53,0,0,,1,,,73,127
7231,note_off,24,0,0,,2,,,74,127
7284,note_on,53,0,0,,12,,,71,127
7308,note_off,24,0,0,,1,,,73,127
7361,note_on,53,0,0,,1,,,73,127
7385,note_off,24,0,0,,12,,,71,127
7412,note_on,27,0,0,,2,,,74,127
7436,note_off,24,0,0,,1,,,73,127
7436,note_off,0,0,0,,10,,,57,127
7718,note_off,282,0,0,,2,,,74,127
7719,note_on,1,0,0,,5,,,77,127
7821,note_off,102,0,0,,5,,,77,127
7822,note_on,1,0,0,,2,,,74,127
7924,note_off,102,0,0,,2,,,74,127
7925,note_on,1,0,0,,10,,,69,127
8027,note_off,102,0,0,,10,,,69,127
8028,note_on,1,0,0,,11,,,70,127
8130,note_off,102,0,0,,11,,,70,127
8131,note_on,1,0,0,,7,,,67,127
8233,note_off,102,0,0,,7,,,67,127
8234,note_on,1,0,0,,10,,,81,127
8336,note_off,102,0,0,,10,,,81,127
8337,note_on,1,0,0,,7,,,67,127
8337,note_on,0,0,0,,7,,,79,127
8439,note_off,102,0,0,,7,,,67,127
8440,note_on,1,0,0,,4,,,64,127
8542,note_off,102,0,0,,4,,,64,127
8543,note_on,1,0,0,,1,,,61,127
8645,note_off,102,0,0,,1,,,61,127
8646,note_on,1,0,0,,2,,,62,127
8952,note_off,306,0,0,,7,,,79,127
8953,note_on,1,0,0,,5,,,77,127
9055,note_off,102,0,0,,5,,,77,127
9056,note_on,1,0,0,,2,,,74,127
9158,note_off,102,0,0,,2,,,74,127
9159,note_on,1,0,0,,10,,,69,127
9261,note_off,102,0,0,,10,,,69,127
9261,note_off,0,0,0,,2,,,62,127
9262,note_on,1,0,0,,11,,,70,127
9364,note_off,102,0,0,,11,,,70,127
9365,note_on,1,0,0,,7,,,67,127
9467,note_off,102,0,0,,7,,,67,127
9468,note_on,1,0,0,,10,,,81,127
9570,note_off,102,0,0,,10,,,81,127
9571,note_on,1,0,0,,7,,,67,127
9571,note_on,0,0,0,,7,,,79,127
9673,note_off,102,0,0,,7,,,67,127
9674,note_on,1,0,0,,4,,,64,127
9776,note_off,102,0,0,,4,,,64,127
9777,note_on,1,0,0,,1,,,61,127
9879,note_off,102,0,0,,1,,,61,127
9880,note_on,1,0,0,,2,,,62,127
10186,note_off,306,0,0,,7,,,79,127
10187,note_on,1,0,0,,10,,,81,127
10289,note_off,102,0,0,,10,,,81,127
10290,note_on,1,0,0,,6,,,78,127
10392,note_off,102,0,0,,6,,,78,127
10393,note_on,1,0,0,,2,,,74,127
10495,note_off,102,0,0,,2,,,74,127
10495,note_off,0,0,0,,2,,,62,127
10496,note_on,1,0,0,,3,,,75,127
10598,note_off,102,0,0,,3,,,75,127
10599,note_on,1,0,0,,0,,,72,127
10701,note_off,102,0,0,,0,,,72,127
10702,note_on,1,0,0,,2,,,86,127
10804,note_off,102,0,0,,2,,,86,127
10805,note_on,1,0,0,,0,,,72,127
10805,note_on,0,0,0,,0,,,84,127
10907,note_off,102,0,0,,0,,,72,127
10908,note_on,1,0,0,,10,,,69,127
11010,note_off,102,0,0,,10,,,69,127
11011,note_on,1,0,0,,6,,,66,127
11113,note_off,102,0,0,,6,,,66,127
11114,note_on,1,0,0,,7,,,67,127
11420,note_off,306,0,0,,0,,,84,127
11421,note_on,1,0,0,,11,,,82,127
11523,note_off,102,0,0,,11,,,82,127
11524,note_on,1,0,0,,7,,,79,127
11626,note_off,102,0,0,,7,,,79,127
11627,note_on,1,0,0,,2,,,74,127
11729,note_off,102,0,0,,2,,,74,127
11729,note_off,0,0,0,,7,,,67,127
11730,note_on,1,0,0,,3,,,75,127
11832,note_off,102,0,0,,3,,,75,127
11833,note_on,1,0,0,,0,,,72,127
11935,note_off,102,0,0,,0,,,72,127
11936,note_on,1,0,0,,2,,,86,127
12038,note_off,102,0,0,,2,,,86,127
12039,note_on,1,0,0,,0,,,72,127
12039,note_on,0,0,0,,0,,,84,127
12141,note_off,102,0,0,,0,,,72,127
12142,note_on,1,0,0,,10,,,69,127
12244,note_off,102,0,0,,10,,,69,127
12245,note_on,1,0,0,,6,,,66,127
12347,note_off,102,0,0,,6,,,66,127
12348,note_on,1,0,0,,7,,,67,127
12654,note_off,306,0,0,,0,,,84,127
12655,note_on,1,0,0,,11,,,82,127
12757,note_off,102,0,0,,11,,,82,127
12758,note_on,1,0,0,,7,,,79,127
12860,note_off,102,0,0,,7,,,79,127
12861,note_on,1,0,0,,2,,,74,127
12963,note_off,102,0,0,,2,,,74,127
12963,note_off,0,0,0,,7,,,67,127
12964,note_on,1,0,0,,3,,,75,127
13066,note_off,102,0,0,,3,,,75,127
13067,note_on,1,0,0,,0,,,72,127
13169,note_off,102,0,0,,0,,,72,127
13170,note_on,1,0,0,,2,,,86,127
13272,note_off,102,0,0,,2,,,86,127
13273,note_on,1,0,0,,0,,,72,127
13273,note_on,0,0,0,,0,,,84,127
13375,note_off,102,0,0,,0,,,72,127
13376,note_on,1,0,0,,10,,,69,127
13478,note_off,102,0,0,,10,,,69,127
13479,note_on,1,0,0,,5,,,65,127
13581,note_off,102,0,0,,5,,,65,127
13582,note_on,1,0,0,,11,,,70,127
13888,note_off,306,0,0,,0,,,84,127
13889,note_on,1,0,0,,11,,,82,127
13991,note_off,102,0,0,,11,,,82,127
13992,note_on,1,0,0,,5,,,77,127
14094,note_off,102,0,0,,5,,,77,127
14095,note_on,1,0,0,,2,,,74,127
14197,note_off,102,0,0,,2,,,74,127
14197,note_off,0,0,0,,11,,,70,127
14198,note_on,1,0,0,,3,,,75,127
14300,note_off,102,0,0,,3,,,75,127
14301,note_on,1,0,0,,0,,,72,127
14403,note_off,102,0,0,,0,,,72,127
14404,note_on,1,0,0,,2,,,86,127
14506,note_off,102,0,0,,2,,,86,127
14507,note_on,1,0,0,,0,,,72,127
14507,note_on,0,0,0,,0,,,84,127
14609,note_off,102,0,0,,0,,,72,127
14610,note_on,1,0,0,,10,,,69,127
14712,note_off,102,0,0,,10,,,69,127
14713,note_on,1,0,0,,5,,,65,127
14815,note_off,102,0,0,,5,,,65,127
14816,note_on,1,0,0,,11,,,70,127
14918,note_off,102,0,0,,0,,,84,127
14919,note_on,1,0,0,,1,,,85,127
15021,note_off,102,0,0,,1,,,85,127
15022,note_on,1,0,0,,2,,,86,127
15124,note_off,102,0,0,,11,,,70,127
15125,note_on,1,0,0,,7,,,67,127
15227,note_off,102,0,0,,2,,,86,127
15228,note_on,1,0,0,,10,,,81,127
15330,note_off,102,0,0,,10,,,81,127
15331,note_on,1,0,0,,11,,,82,127
15433,note_off,102,0,0,,7,,,67,127
15434,note_on,1,0,0,,4,,,64,127
15536,note_off,102,0,0,,11,,,82,127
15537,note_on,1,0,0,,12,,,83,127
15639,note_off,102,0,0,,12,,,83,127
15640,note_on,1,0,0,,0,,,84,127
15742,note_off,102,0,0,,4,,,64,127
15743,note_on,1,0,0,,0,,,60,127
15845,note_off,102,0,0,,0,,,84,127
15846,note_on,1,0,0,,5,,,77,127
15948,note_off,102,0,0,,5,,,77,127
15949,note_on,1,0,0,,7,,,79,127
16051,note_off,102,0,0,,0,,,60,127
16052,note_on,1,0,0,,5,,,65,127
16154,note_off,102,0,0,,7,,,79,127
16155,note_on,1,0,0,,8,,,80,127
16257,note_off,102,0,0,,8,,,80,127
16258,note_on,1,0,0,,10,,,81,127
16360,note_off,102,0,0,,5,,,65,127
16361,note_on,1,0,0,,2,,,62,127
16463,note_off,102,0,0,,10,,,81,127
16464,note_on,1,0,0,,11,,,82,127
16566,note_off,102,0,0,,11,,,82,127
16567,note_on,1,0,0,,0,,,84,127
16669,note_off,102,0,0,,0,,,84,127
16669,note_off,0,0,0,,2,,,62,127
16670,note_on,1,0,0,,11,,,58,127
16670,note_on,0,0,0,,2,,,74,127
16772,note_off,102,0,0,,2,,,74,127
16773,note_on,1,0,0,,11,,,82,127
16875,note_off,102,0,0,,11,,,82,127
16876,note_on,1,0,0,,10,,,81,127
16978,note_off,102,0,0,,11,,,58,127
16979,note_on,1,0,0,,11,,,58,127
17081,note_off,102,0,0,,10,,,81,127
17082,note_on,1,0,0,,7,,,79,127
17184,note_off,102,0,0,,7,,,79,127
17185,note_on,1,0,0,,5,,,77,127
17287,note_off,102,0,0,,5,,,77,127
17287,note_off,0,0,0,,11,,,58,127
17288,note_on,1,0,0,,0,,,60,127
17288,note_on,0,0,0,,4,,,76,127
17594,note_off,306,0,0,,4,,,76,127
17595,note_on,1,0,0,,0,,,84,127
17901,note_off,306,0,0,,0,,,60,127
17902,note_on,1,0,0,,0,,,72,127
18004,note_off,102,0,0,,0,,,84,127
18005,note_on,1,0,0,,11,,,82,127
18107,note_off,102,0,0,,11,,,82,127
18108,note_on,1,0,0,,8,,,80,127
18210,note_off,102,0,0,,8,,,80,127
18210,note_off,0,0,0,,0,,,72,127
18211,note_on,1,0,0,,0,,,72,127
18211,note_on,0,0,0,,7,,,79,127
18313,note_off,102,0,0,,7,,,79,127
18314,note_on,1,0,0,,5,,,77,127
18416,note_off,102,0,0,,5,,,77,127
18417,note_on,1,0,0,,3,,,75,127
18519,note_off,102,0,0,,3,,,75,127
18519,note_off,0,0,0,,0,,,72,127
18520,note_on,1,0,0,,0,,,72,127
18520,note_on,0,0,0,,1,,,73,127
18826,note_off,306,0,0,,1,,,73,127
18826,note_off,0,0,0,,0,,,72,127
18827,note_on,1,0,0,,11,,,70,127
18827,note_on,0,0,0,,1,,,85,127
19133,note_off,306,0,0,,11,,,70,127
19134,note_on,1,0,0,,11,,,70,127
19236,note_off,102,0,0,,1,,,85,127
19237,note_on,1,0,0,,0,,,84,127
19339,note_off,102,0,0,,0,,,84,127
19340,note_on,1,0,0,,11,,,82,127
19442,note_off,102,0,0,,11,,,82,127
19442,note_off,0,0,0,,11,,,70,127
19443,note_on,1,0,0,,11,,,70,127
19443,note_on,0,0,0,,8,,,80,127
19545,note_off,102,0,0,,8,,,80,127
19546,note_on,1,0,0,,7,,,79,127
19648,note_off,102,0,0,,7,,,79,127
19649,note_on,1,0,0,,5,,,77,127
19751,note_off,102,0,0,,5,,,77,127
19751,note_off,0,0,0,,11,,,70,127
19752,note_on,1,0,0,,11,,,70,127
19752,note_on,0,0,0,,5,,,77,127
19854,note_off,102,0,0,,5,,,77,127
19855,note_on,1,0,0,,4,,,76,127
19957,note_off,102,0,0,,4,,,76,127
19958,note_on,1,0,0,,7,,,79,127
20060,note_off,102,0,0,,7,,,79,127
20060,note_off,0,0,0,,11,,,70,127
20061,note_on,1,0,0,,8,,,68,127
20061,note_on,0,0,0,,7,,,79,127
20163,note_off,102,0,0,,7,,,79,127
20164,note_on,1,0,0,,5,,,77,127
20266,note_off,102,0,0,,5,,,77,127
20267,note_on,1,0,0,,8,,,80,127
20369,note_off,102,0,0,,8,,,80,127
20369,note_off,0,0,0,,8,,,68,127
20370,note_on,1,0,0,,7,,,67,127
20370,note_on,0,0,0,,8,,,80,127
20472,note_off,102,0,0,,8,,,80,127
20473,note_on,1,0,0,,7,,,79,127
20575,note_off,102,0,0,,7,,,79,127
20576,note_on,1,0,0,,0,,,84,127
20678,note_off,102,0,0,,0,,,84,127
20678,note_off,0,0,0,,7,,,67,127
20679,note_on,1,0,0,,0,,,60,127
20679,note_on,0,0,0,,11,,,82,127
20781,note_off,102,0,0,,11,,,82,127
20782,note_on,1,0,0,,8,,,80,127
20884,note_off,102,0,0,,8,,,80,127
20885,note_on,1,0,0,,7,,,79,127
20987,note_off,102,0,0,,7,,,79,127
20987,note_off,0,0,0,,0,,,60,127
20988,note_on,1,0,0,,5,,,53,127
20988,note_on,0,0,0,,8,,,80,127
21090,note_off,102,0,0,,8,,,80,127
21091,note_on,1,0,0,,7,,,79,127
21193,note_off,102,0,0,,7,,,79,127
21194,note_on,1,0,0,,5,,,77,127
21296,note_off,102,0,0,,5,,,77,127
21297,note_on,1,0,0,,5,,,77,127
21603,note_off,306,0,0,,5,,,53,127
21604,note_on,1,0,0,,5,,,65,127
21706,note_off,102,0,0,,5,,,77,127
21707,note_on,1,0,0,,3,,,75,127
21809,note_off,102,0,0,,3,,,75,127
21810,note_on,1,0,0,,1,,,73,127
21912,note_off,102,0,0,,1,,,73,127
21912,note_off,0,0,0,,5,,,65,127
21913,note_on,1,0,0,,5,,,65,127
21913,note_on,0,0,0,,0,,,72,127
22015,note_off,102,0,0,,0,,,72,127
22016,note_on,1,0,0,,11,,,70,127
22118,note_off,102,0,0,,11,,,70,127
22119,note_on,1,0,0,,8,,,68,127
22221,note_off,102,0,0,,8,,,68,127
22221,note_off,0,0,0,,5,,,65,127
22222,note_on,1,0,0,,5,,,65,127
22222,note_on,0,0,0,,6,,,66,127
22528,note_off,306,0,0,,6,,,66,127
22528,note_off,0,0,0,,5,,,65,127
22529,note_on,1,0,0,,3,,,63,127
22529,note_on,0,0,0,,6,,,78,127
22835,note_off,306,0,0,,3,,,63,127
22836,note_on,1,0,0,,3,,,63,127
22938,note_off,102,0,0,,6,,,78,127
22939,note_on,1,0,0,,5,,,77,127
23041,note_off,102,0,0,,5,,,77,127
23042,note_on,1,0,0,,3,,,75,127
23144,note_off,102,0,0,,3,,,75,127
23144,note_off,0,0,0,,3,,,63,127
23145,note_on,1,0,0,,3,,,63,127
23145,note_on,0,0,0,,1,,,73,127
23247,note_off,102,0,0,,1,,,73,127
23248,note_on,1,0,0,,0,,,72,127
23350,note_off,102,0,0,,0,,,72,127
23351,note_on,1,0,0,,11,,,70,127
23453,note_off,102,0,0,,11,,,70,127
23453,note_off,0,0,0,,3,,,63,127
23454,note_on,1,0,0,,3,,,63,127
23454,note_on,0,0,0,,11,,,70,127
23556,note_off,102,0,0,,11,,,70,127
23557,note_on,1,0,0,,10,,,69,127
23659,note_off,102,0,0,,10,,,69,127
23660,note_on,1,0,0,,0,,,72,127
23762,note_off,102,0,0,,0,,,72,127
23762,note_off,0,0,0,,3,,,63,127
23763,note_on,1,0,0,,1,,,61,127
23763,note_on,0,0,0,,0,,,72,127
23865,note_off,102,0,0,,0,,,72,127
23866,note_on,1,0,0,,11,,,70,127
23968,note_off,102,0,0,,11,,,70,127
23969,note_on,1,0,0,,1,,,73,127
24071,note_off,102,0,0,,1,,,73,127
24071,note_off,0,0,0,,1,,,61,127
24072,note_on,1,0,0,,0,,,60,127
24072,note_on,0,0,0,,1,,,73,127
24174,note_off,102,0,0,,1,,,73,127
24175,note_on,1,0,0,,0,,,72,127
24277,note_off,102,0,0,,0,,,72,127
24278,note_on,1,0,0,,5,,,77,127
24380,note_off,102,0,0,,5,,,77,127
24380,note_off,0,0,0,,0,,,60,127
24381,note_on,1,0,0,,5,,,53,127
24381,note_on,0,0,0,,3,,,75,127
24483,note_off,102,0,0,,3,,,75,127
24484,note_on,1,0,0,,1,,,73,127
24586,note_off,102,0,0,,1,,,73,127
24587,note_on,1,0,0,,0,,,72,127
24689,note_off,102,0,0,,0,,,72,127
24689,note_off,0,0,0,,5,,,53,127
24690,note_on,1,0,0,,11,,,58,127
24690,note_on,0,0,0,,1,,,73,127
24792,note_off,102,0,0,,1,,,73,127
24793,note_on,1,0,0,,0,,,72,127
24895,note_off,102,0,0,,0,,,72,127
24896,note_on,1,0,0,,11,,,70,127
24998,note_off,102,0,0,,11,,,70,127
24999,note_on,1,0,0,,11,,,82,127
25305,note_off,306,0,0,,11,,,58,127
25306,note_on,1,0,0,,0,,,60,127
25408,note_off,102,0,0,,11,,,82,127
25409,note_on,1,0,0,,7,,,79,127
25511,note_off,102,0,0,,7,,,79,127
25512,note_on,1,0,0,,4,,,76,127
25614,note_off,102,0,0,,4,,,76,127
25615,note_on,1,0,0,,0,,,72,127
25717,note_off,102,0,0,,0,,,72,127
25718,note_on,1,0,0,,7,,,79,127
25820,note_off,102,0,0,,7,,,79,127
25821,note_on,1,0,0,,11,,,82,127
25923,note_off,102,0,0,,11,,,82,127
25923,note_off,0,0,0,,0,,,60,127
25924,note_on,1,0,0,,5,,,53,127
25924,note_on,0,0,0,,10,,,81,127
26026,note_off,102,0,0,,10,,,81,127
26027,note_on,1,0,0,,7,,,79,127
26129,note_off,102,0,0,,7,,,79,127
26130,note_on,1,0,0,,5,,,77,127
26232,note_off,102,0,0,,5,,,77,127
26233,note_on,1,0,0,,0,,,84,127
26539,note_off,306,0,0,,5,,,53,127
26540,note_on,1,0,0,,10,,,57,127
26642,note_off,102,0,0,,0,,,84,127
26643,note_on,1,0,0,,10,,,81,127
26745,note_off,102,0,0,,10,,,81,127
26746,note_on,1,0,0,,5,,,77,127
26848,note_off,102,0,0,,5,,,77,127
26849,note_on,1,0,0,,0,,,72,127
26951,note_off,102,0,0,,0,,,72,127
26952,note_on,1,0,0,,5,,,77,127
27054,note_off,102,0,0,,5,,,77,127
27055,note_on,1,0,0,,0,,,84,127
27157,note_off,102,0,0,,0,,,84,127
27157,note_off,0,0,0,,10,,,57,127
27158,note_on,1,0,0,,11,,,58,127
27158,note_on,0,0,0,,2,,,86,127
27260,note_off,102,0,0,,2,,,86,127
27261,note_on,1,0,0,,2,,,74,127
27363,note_off,102,0,0,,2,,,74,127
27364,note_on,1,0,0,,11,,,82,127
27466,note_off,102,0,0,,11,,,82,127
27466,note_off,0,0,0,,11,,,58,127
27467,note_on,1,0,0,,10,,,57,127
27467,note_on,0,0,0,,0,,,84,127
27569,note_off,102,0,0,,0,,,84,127
27570,note_on,1,0,0,,0,,,72,127
27672,note_off,102,0,0,,0,,,72,127
27673,note_on,1,0,0,,10,,,81,127
27775,note_off,102,0,0,,10,,,81,127
27775,note_off,0,0,0,,10,,,57,127
27776,note_on,1,0,0,,7,,,55,127
27776,note_on,0,0,0,,11,,,82,127
27878,note_off,102,0,0,,11,,,82,127
27879,note_on,1,0,0,,11,,,70,127
27981,note_off,102,0,0,,11,,,70,127
27982,note_on,1,0,0,,7,,,79,127
28084,note_off,102,0,0,,7,,,79,127
28084,note_off,0,0,0,,7,,,55,127
28085,note_on,1,0,0,,5,,,53,127
28085,note_on,0,0,0,,10,,,81,127
28187,note_off,102,0,0,,10,,,81,127
28188,note_on,1,0,0,,10,,,69,127
28290,note_off,102,0,0,,10,,,69,127
28291,note_on,1,0,0,,5,,,77,127
28393,note_off,102,0,0,,5,,,77,127
28393,note_off,0,0,0,,5,,,53,127
28394,note_on,1,0,0,,0,,,48,127
28394,note_on,0,0,0,,4,,,76,127
28700,note_off,306,0,0,,4,,,76,127
28700,note_off,0,0,0,,0,,,48,127
28701,note_on,1,0,0,,7,,,67,127
28701,note_on,0,0,0,,4,,,76,127
28701,note_on,0,0,0,,7,,,79,127
28803,note_off,102,0,0,,7,,,67,127
28804,note_on,1,0,0,,4,,,64,127
28906,note_off,102,0,0,,4,,,64,127
28907,note_on,1,0,0,,0,,,60,127
29009,note_off,102,0,0,,0,,,60,127
29010,note_on,1,0,0,,0,,,48,127
29316,note_off,306,0,0,,0,,,48,127
29316,note_off,0,0,0,,7,,,79,127
29316,note_off,0,0,0,,4,,,76,127
29317,note_on,1,0,0,,10,,,69,127
29317,note_on,0,0,0,,10,,,81,127
29317,note_on,0,0,0,,5,,,77,127
29419,note_off,102,0,0,,10,,,69,127
29420,note_on,1,0,0,,5,,,65,127
29522,note_off,102,0,0,,5,,,65,127
29523,note_on,1,0,0,,0,,,60,127
29625,note_off,102,0,0,,0,,,60,127
29626,note_on,1,0,0,,0,,,48,127
29932,note_off,306,0,0,,0,,,48,127
29932,note_off,0,0,0,,5,,,77,127
29932,note_off,0,0,0,,10,,,81,127
29933,note_on,1,0,0,,7,,,67,127
29933,note_on,0,0,0,,7,,,79,127
29933,note_on,0,0,0,,11,,,82,127
30035,note_off,102,0,0,,7,,,67,127
30036,note_on,1,0,0,,4,,,64,127
30138,note_off,102,0,0,,4,,,64,127
30139,note_on,1,0,0,,0,,,60,127
30241,note_off,102,0,0,,0,,,60,127
30242,note_on,1,0,0,,0,,,48,127
30548,note_off,306,0,0,,0,,,48,127
30548,note_off,0,0,0,,11,,,82,127
30548,note_off,0,0,0,,7,,,79,127
30549,note_on,1,0,0,,10,,,69,127
30549,note_on,0,0,0,,10,,,81,127
30549,note_on,0,0,0,,0,,,84,127
30651,note_off,102,0,0,,10,,,69,127
30652,note_on,1,0,0,,5,,,65,127
30754,note_off,102,0,0,,5,,,65,127
30755,note_on,1,0,0,,0,,,60,127
30857,note_off,102,0,0,,0,,,60,127
30858,note_on,1,0,0,,0,,,48,127
30960,note_off,102,0,0,,0,,,84,127
30960,note_off,0,0,0,,10,,,81,127
30961,note_on,1,0,0,,7,,,79,127
31063,note_off,102,0,0,,7,,,79,127
31064,note_on,1,0,0,,11,,,82,127
31166,note_off,102,0,0,,11,,,82,127
31166,note_off,0,0,0,,0,,,48,127
31167,note_on,1,0,0,,5,,,53,127
31167,note_on,0,0,0,,10,,,81,127
31167,note_on,0,0,0,,5,,,77,127
31269,note_off,102,0,0,,10,,,81,127
31270,note_on,1,0,0,,11,,,82,127
31372,note_off,102,0,0,,11,,,82,127
31373,note_on,1,0,0,,0,,,84,127
31475,note_off,102,0,0,,0,,,84,127
31475,note_off,0,0,0,,5,,,77,127
31475,note_off,0,0,0,,5,,,53,127
31476,note_on,1,0,0,,0,,,60,127
31476,note_on,0,0,0,,10,,,81,127
31476,note_on,0,0,0,,5,,,77,127
31782,note_off,306,0,0,,5,,,77,127
31782,note_off,0,0,0,,10,,,81,127
31782,note_off,0,0,0,,0,,,60,127
31783,note_on,1,0,0,,0,,,48,127
31783,note_on,0,0,0,,10,,,81,127
31783,note_on,0,0,0,,4,,,76,127
31833,note_off,50,0,0,,10,,,81,127
31834,note_on,1,0,0,,7,,,79,127
31884,note_off,50,0,0,,7,,,79,127
31885,note_on,1,0,0,,10,,,81,127
31935,note_off,50,0,0,,10,,,81,127
31936,note_on,1,0,0,,7,,,79,127
31986,note_off,50,0,0,,7,,,79,127
31987,note_on,1,0,0,,10,,,81,127
32037,note_off,50,0,0,,10,,,81,127
32038,note_on,1,0,0,,7,,,79,127
32088,note_off,50,0,0,,7,,,79,127
32088,note_off,0,0,0,,4,,,76,127
32088,note_off,0,0,0,,0,,,48,127
32089,note_on,1,0,0,,5,,,53,127
32089,note_on,0,0,0,,5,,,77,127
32395,note_off,306,0,0,,5,,,77,127
32395,note_off,0,0,0,,5,,,53,127
32396,note_on,1,0,0,,7,,,67,127
32396,note_on,0,0,0,,4,,,76,127
32396,note_on,0,0,0,,7,,,79,127
32498,note_off,102,0,0,,7,,,67,127
32499,note_on,1,0,0,,4,,,64,127
32601,note_off,102,0,0,,4,,,64,127
32602,note_on,1,0,0,,0,,,60,127
32704,note_off,102,0,0,,0,,,60,127
32705,note_on,1,0,0,,0,,,36,127
33011,note_off,306,0,0,,0,,,36,127
33011,note_off,0,0,0,,7,,,79,127
33011,note_off,0,0,0,,4,,,76,127
33012,note_on,1,0,0,,10,,,69,127
33012,note_on,0,0,0,,5,,,77,127
33012,note_on,0,0,0,,10,,,81,127
33114,note_off,102,0,0,,10,,,69,127
33115,note_on,1,0,0,,5,,,65,127
33217,note_off,102,0,0,,5,,,65,127
33218,note_on,1,0,0,,0,,,60,127
33320,note_off,102,0,0,,0,,,60,127
33321,note_on,1,0,0,,0,,,36,127
33627,note_off,306,0,0,,0,,,36,127
33627,note_off,0,0,0,,10,,,81,127
33627,note_off,0,0,0,,5,,,77,127
33628,note_on,1,0,0,,7,,,67,127
33628,note_on,0,0,0,,7,,,79,127
33628,note_on,0,0,0,,11,,,82,127
33730,note_off,102,0,0,,7,,,67,127
33731,note_on,1,0,0,,4,,,64,127
33833,note_off,102,0,0,,4,,,64,127
33834,note_on,1,0,0,,0,,,60,127
33936,note_off,102,0,0,,0,,,60,127
33937,note_on,1,0,0,,0,,,36,127
34243,note_off,306,0,0,,0,,,36,127
34243,note_off,0,0,0,,11,,,82,127
34243,note_off,0,0,0,,7,,,79,127
34244,note_on,1,0,0,,10,,,69,127
34244,note_on,0,0,0,,0,,,84,127
34244,note_on,0,0,0,,10,,,81,127
34346,note_off,102,0,0,,10,,,69,127
34347,note_on,1,0,0,,5,,,65,127
34449,note_off,102,0,0,,5,,,65,127
34450,note_on,1,0,0,,0,,,60,127
34552,note_off,102,0,0,,0,,,60,127
34553,note_on,1,0,0,,0,,,36,127
34655,note_off,102,0,0,,10,,,81,127
34655,note_off,0,0,0,,0,,,84,127
34656,note_on,1,0,0,,7,,,79,127
34758,note_off,102,0,0,,7,,,79,127
34759,note_on,1,0,0,,11,,,82,127
34861,note_off,102,0,0,,11,,,82,127
34861,note_off,0,0,0,,0,,,36,127
34862,note_on,1,0,0,,5,,,41,127
34862,note_on,0,0,0,,10,,,81,127
34862,note_on,0,0,0,,5,,,77,127
34964,note_off,102,0,0,,10,,,81,127
34965,note_on,1,0,0,,11,,,82,127
35067,note_off,102,0,0,,11,,,82,127
35068,note_on,1,0,0,,0,,,84,127
35170,note_off,102,0,0,,0,,,84,127
35170,note_off,0,0,0,,5,,,77,127
35170,note_off,0,0,0,,5,,,41,127
35171,note_on,1,0,0,,0,,,48,127
35171,note_on,0,0,0,,10,,,81,127
35171,note_on,0,0,0,,5,,,77,127
35477,note_off,306,0,0,,5,,,77,127
35477,note_off,0,0,0,,10,,,81,127
35477,note_off,0,0,0,,0,,,48,127
35478,note_on,1,0,0,,0,,,36,127
35478,note_on,0,0,0,,10,,,81,127
35478,note_on,0,0,0,,4,,,76,127
35528,note_off,50,0,0,,10,,,81,127
35529,note_on,1,0,0,,7,,,79,127
35579,note_off,50,0,0,,7,,,79,127
35580,note_on,1,0,0,,10,,,81,127
35630,note_off,50,0,0,,10,,,81,127
35631,note_on,1,0,0,,7,,,79,127
35681,note_off,50,0,0,,7,,,79,127
35682,note_on,1,0,0,,10,,,81,127
35732,note_off,50,0,0,,10,,,81,127
35733,note_on,1,0,0,,7,,,79,127
35783,note_off,50,0,0,,7,,,79,127
35783,note_off,0,0,0,,4,,,76,127
35783,note_off,0,0,0,,0,,,36,127
35784,note_on,1,0,0,,5,,,41,127
35784,note_on,0,0,0,,5,,,77,127
35886,note_off,102,0,0,,5,,,77,127
35887,note_on,1,0,0,,0,,,84,127
35989,note_off,102,0,0,,0,,,84,127
35990,note_on,1,0,0,,10,,,81,127
36092,note_off,102,0,0,,10,,,81,127
36093,note_on,1,0,0,,5,,,77,127
36195,note_off,102,0,0,,5,,,77,127
36196,note_on,1,0,0,,5,,,77,127
36298,note_off,102,0,0,,5,,,77,127
36299,note_on,1,0,0,,5,,,77,127
36401,note_off,102,0,0,,5,,,77,127
36401,note_off,0,0,0,,5,,,41,127
36402,note_on,1,0,0,,11,,,70,127
36402,note_on,0,0,0,,5,,,65,127
36402,note_on,0,0,0,,5,,,77,127
36504,note_off,102,0,0,,5,,,77,127
36505,note_on,1,0,0,,2,,,74,127
36607,note_off,102,0,0,,2,,,74,127
36608,note_on,1,0,0,,4,,,76,127
36710,note_off,102,0,0,,4,,,76,127
36710,note_off,0,0,0,,5,,,65,127
36710,note_off,0,0,0,,11,,,70,127
36711,note_on,1,0,0,,5,,,65,127
36711,note_on,0,0,0,,11,,,70,127
36711,note_on,0,0,0,,7,,,67,127
36711,note_on,0,0,0,,5,,,77,127
36813,note_off,102,0,0,,5,,,77,127
36814,note_on,1,0,0,,5,,,77,127
36916,note_off,102,0,0,,5,,,77,127
36917,note_on,1,0,0,,5,,,77,127
37019,note_off,102,0,0,,5,,,77,127
37019,note_off,0,0,0,,7,,,67,127
37019,note_off,0,0,0,,11,,,70,127
37019,note_off,0,0,0,,5,,,65,127
37020,note_on,1,0,0,,10,,,69,127
37020,note_on,0,0,0,,5,,,65,127
37020,note_on,0,0,0,,5,,,77,127
37122,note_off,102,0,0,,5,,,77,127
37123,note_on,1,0,0,,0,,,84,127
37225,note_off,102,0,0,,0,,,84,127
37226,note_on,1,0,0,,10,,,81,127
37328,note_off,102,0,0,,10,,,81,127
37329,note_on,1,0,0,,5,,,77,127
37431,note_off,102,0,0,,5,,,77,127
37432,note_on,1,0,0,,5,,,77,127
37534,note_off,102,0,0,,5,,,77,127
37535,note_on,1,0,0,,5,,,77,127
37637,note_off,102,0,0,,5,,,77,127
37637,note_off,0,0,0,,5,,,65,127
37637,note_off,0,0,0,,10,,,69,127
37638,note_on,1,0,0,,5,,,65,127
37638,note_on,0,0,0,,11,,,70,127
37638,note_on,0,0,0,,5,,,77,127
37740,note_off,102,0,0,,5,,,77,127
37741,note_on,1,0,0,,2,,,74,127
37843,note_off,102,0,0,,2,,,74,127
37844,note_on,1,0,0,,4,,,76,127
37946,note_off,102,0,0,,4,,,76,127
37946,note_off,0,0,0,,11,,,70,127
37946,note_off,0,0,0,,5,,,65,127
37947,note_on,1,0,0,,5,,,65,127
37947,note_on,0,0,0,,7,,,67,127
37947,note_on,0,0,0,,11,,,70,127
37947,note_on,0,0,0,,5,,,77,127
38049,note_off,102,0,0,,5,,,77,127
38050,note_on,1,0,0,,5,,,77,127
38152,note_off,102,0,0,,5,,,77,127
38153,note_on,1,0,0,,5,,,77,127
38255,note_off,102,0,0,,5,,,77,127
38255,note_off,0,0,0,,11,,,70,127
38255,note_off,0,0,0,,7,,,67,127
38255,note_off,0,0,0,,5,,,65,127
38256,note_on,1,0,0,,5,,,65,127
38256,note_on,0,0,0,,10,,,69,127
38256,note_on,0,0,0,,5,,,77,127
38358,note_off,102,0,0,,5,,,77,127
38359,note_on,1,0,0,,11,,,82,127
38461,note_off,102,0,0,,11,,,82,127
38462,note_on,1,0,0,,10,,,81,127
38564,note_off,102,0,0,,10,,,81,127
38564,note_off,0,0,0,,10,,,69,127
38564,note_off,0,0,0,,5,,,65,127
38565,note_on,1,0,0,,11,,,58,127
38565,note_on,0,0,0,,2,,,86,127
38667,note_off,102,0,0,,2,,,86,127
38668,note_on,1,0,0,,0,,,84,127
38770,note_off,102,0,0,,0,,,84,127
38771,note_on,1,0,0,,5,,,77,127
38873,note_off,102,0,0,,5,,,77,127
38873,note_off,0,0,0,,11,,,58,127
38874,note_on,1,0,0,,0,,,60,127
38874,note_on,0,0,0,,5,,,77,127
38874,note_on,0,0,0,,10,,,81,127
39180,note_off,306,0,0,,10,,,81,127
39180,note_off,0,0,0,,5,,,77,127
39180,note_off,0,0,0,,0,,,60,127
39181,note_on,1,0,0,,0,,,48,127
39181,note_on,0,0,0,,10,,,81,127
39181,note_on,0,0,0,,4,,,76,127
39231,note_off,50,0,0,,10,,,81,127
39232,note_on,1,0,0,,7,,,79,127
39282,note_off,50,0,0,,7,,,79,127
39283,note_on,1,0,0,,10,,,81,127
39333,note_off,50,0,0,,10,,,81,127
39334,note_on,1,0,0,,7,,,79,127
39384,note_off,50,0,0,,7,,,79,127
39385,note_on,1,0,0,,10,,,81,127
39435,note_off,50,0,0,,10,,,81,127
39436,note_on,1,0,0,,7,,,79,127
39486,note_off,50,0,0,,7,,,79,127
39486,note_off,0,0,0,,4,,,76,127
39486,note_off,0,0,0,,0,,,48,127
39487,note_on,1,0,0,,5,,,53,127
39487,note_on,0,0,0,,5,,,77,127
39589,note_off,102,0,0,,5,,,77,127
39590,note_on,1,0,0,,0,,,72,127
39692,note_off,102,0,0,,0,,,72,127
39693,note_on,1,0,0,,10,,,69,127
39795,note_off,102,0,0,,10,,,69,127
39796,note_on,1,0,0,,5,,,65,127
39898,note_off,102,0,0,,5,,,65,127
39899,note_on,1,0,0,,5,,,65,127
40001,note_off,102,0,0,,5,,,65,127
40002,note_on,1,0,0,,5,,,65,127
40104,note_off,102,0,0,,5,,,65,127
40104,note_off,0,0,0,,5,,,53,127
40105,note_on,1,0,0,,5,,,53,127
40105,note_on,0,0,0,,11,,,58,127
40105,note_on,0,0,0,,5,,,65,127
40207,note_off,102,0,0,,5,,,65,127
40208,note_on,1,0,0,,2,,,62,127
40310,note_off,102,0,0,,2,,,62,127
40311,note_on,1,0,0,,4,,,64,127
40413,note_off,102,0,0,,4,,,64,127
40413,note_off,0,0,0,,11,,,58,127
40413,note_off,0,0,0,,5,,,53,127
40414,note_on,1,0,0,,11,,,58,127
40414,note_on,0,0,0,,5,,,53,127
40414,note_on,0,0,0,,7,,,55,127
40414,note_on,0,0,0,,5,,,65,127
40516,note_off,102,0,0,,5,,,65,127
40517,note_on,1,0,0,,5,,,65,127
40619,note_off,102,0,0,,5,,,65,127
40620,note_on,1,0,0,,5,,,65,127
40722,note_off,102,0,0,,5,,,65,127
40722,note_off,0,0,0,,7,,,55,127
40722,note_off,0,0,0,,5,,,53,127
40722,note_off,0,0,0,,11,,,58,127
40723,note_on,1,0,0,,10,,,57,127
40723,note_on,0,0,0,,5,,,53,127
40723,note_on,0,0,0,,5,,,65,127
40825,note_off,102,0,0,,5,,,65,127
40826,note_on,1,0,0,,0,,,72,127
40928,note_off,102,0,0,,0,,,72,127
40929,note_on,1,0,0,,10,,,69,127
41031,note_off,102,0,0,,10,,,69,127
41032,note_on,1,0,0,,5,,,65,127
41134,note_off,102,0,0,,5,,,65,127
41135,note_on,1,0,0,,5,,,65,127
41237,note_off,102,0,0,,5,,,65,127
41238,note_on,1,0,0,,5,,,65,127
41340,note_off,102,0,0,,5,,,65,127
41340,note_off,0,0,0,,5,,,53,127
41340,note_off,0,0,0,,10,,,57,127
41341,note_on,1,0,0,,11,,,58,127
41341,note_on,0,0,0,,5,,,53,127
41341,note_on,0,0,0,,5,,,65,127
41443,note_off,102,0,0,,5,,,65,127
41444,note_on,1,0,0,,2,,,62,127
41546,note_off,102,0,0,,2,,,62,127
41547,note_on,1,0,0,,4,,,64,127
41649,note_off,102,0,0,,4,,,64,127
41649,note_off,0,0,0,,5,,,53,127
41649,note_off,0,0,0,,11,,,58,127
41650,note_on,1,0,0,,11,,,58,127
41650,note_on,0,0,0,,5,,,53,127
41650,note_on,0,0,0,,7,,,55,127
41650,note_on,0,0,0,,5,,,65,127
41752,note_off,102,0,0,,5,,,65,127
41753,note_on,1,0,0,,5,,,65,127
41855,note_off,102,0,0,,5,,,65,127
41856,note_on,1,0,0,,5,,,65,127
41958,note_off,102,0,0,,5,,,65,127
41958,note_off,0,0,0,,7,,,55,127
41958,note_off,0,0,0,,5,,,53,127
41958,note_off,0,0,0,,11,,,58,127
41959,note_on,1,0,0,,5,,,53,127
41959,note_on,0,0,0,,10,,,57,127
41959,note_on,0,0,0,,5,,,65,127
42061,note_off,102,0,0,,5,,,65,127
42062,note_on,1,0,0,,11,,,70,127
42164,note_off,102,0,0,,11,,,70,127
42165,note_on,1,0,0,,10,,,69,127
42267,note_off,102,0,0,,10,,,69,127
42267,note_off,0,0,0,,10,,,57,127
42267,note_off,0,0,0,,5,,,53,127
42268,note_on,1,0,0,,2,,,50,127
42268,note_on,0,0,0,,11,,,58,127
42268,note_on,0,0,0,,2,,,74,127
42370,note_off,102,0,0,,2,,,74,127
42371,note_on,1,0,0,,0,,,72,127
42473,note_off,102,0,0,,0,,,72,127
42474,note_on,1,0,0,,5,,,65,127
42576,note_off,102,0,0,,5,,,65,127
42576,note_off,0,0,0,,11,,,58,127
42576,note_off,0,0,0,,2,,,50,127
42577,note_on,1,0,0,,0,,,60,127
42577,note_on,0,0,0,,0,,,48,127
42577,note_on,0,0,0,,5,,,65,127
42577,note_on,0,0,0,,10,,,69,127
42883,note_off,306,0,0,,10,,,69,127
42883,note_off,0,0,0,,5,,,65,127
42883,note_off,0,0,0,,0,,,48,127
42883,note_off,0,0,0,,0,,,60,127
42884,note_on,1,0,0,,0,,,48,127
42884,note_on,0,0,0,,0,,,36,127
42884,note_on,0,0,0,,10,,,69,127
42884,note_on,0,0,0,,4,,,64,127
42934,note_off,50,0,0,,10,,,69,127
42935,note_on,1,0,0,,7,,,67,127
42985,note_off,50,0,0,,7,,,67,127
42986,note_on,1,0,0,,10,,,69,127
43036,note_off,50,0,0,,10,,,69,127
43037,note_on,1,0,0,,7,,,67,127
43087,note_off,50,0,0,,7,,,67,127
43088,note_on,1,0,0,,10,,,69,127
43138,note_off,50,0,0,,10,,,69,127
43139,note_on,1,0,0,,7,,,67,127
43189,note_off,50,0,0,,7,,,67,127
43189,note_off,0,0,0,,4,,,64,127
43189,note_off,0,0,0,,0,,,36,127
43189,note_off,0,0,0,,0,,,48,127
43190,note_on,1,0,0,,5,,,41,127
43190,note_on,0,0,0,,5,,,65,127
43292,note_off,102,0,0,,5,,,65,127
43293,note_on,1,0,0,,5,,,77,127
43395,note_off,102,0,0,,5,,,77,127
43396,note_on,1,0,0,,0,,,72,127
43498,note_off,102,0,0,,0,,,72,127
43499,note_on,1,0,0,,10,,,69,127
43601,note_off,102,0,0,,10,,,69,127
43602,note_on,1,0,0,,5,,,65,127
43704,note_off,102,0,0,,5,,,65,127
43705,note_on,1,0,0,,0,,,72,127
43807,note_off,102,0,0,,0,,,72,127
43807,note_off,0,0,0,,5,,,41,127
43808,note_on,1,0,0,,11,,,70,127
43910,note_off,102,0,0,,11,,,70,127
43911,note_on,1,0,0,,7,,,67,127
44013,note_off,102,0,0,,7,,,67,127
44014,note_on,1,0,0,,10,,,81,127
44116,note_off,102,0,0,,10,,,81,127
44117,note_on,1,0,0,,7,,,79,127
44219,note_on,102,0,0,,0,,,48,127
44321,note_off,102,0,0,,0,,,48,127
44322,note_on,1,0,0,,0,,,36,127
44424,note_off,102,0,0,,0,,,36,127
44425,note_on,1,0,0,,5,,,41,127
44527,note_off,102,0,0,,7,,,79,127
44528,note_on,1,0,0,,5,,,77,127
44630,note_off,102,0,0,,5,,,77,127
44631,note_on,1,0,0,,0,,,72,127
44733,note_off,102,0,0,,0,,,72,127
44734,note_on,1,0,0,,10,,,69,127
44836,note_off,102,0,0,,10,,,69,127
44837,note_on,1,0,0,,5,,,65,127
44939,note_off,102,0,0,,5,,,65,127
44940,note_on,1,0,0,,0,,,72,127
45042,note_off,102,0,0,,0,,,72,127
45042,note_off,0,0,0,,5,,,41,127
45043,note_on,1,0,0,,11,,,70,127
45145,note_off,102,0,0,,11,,,70,127
45146,note_on,1,0,0,,7,,,67,127
45248,note_off,102,0,0,,7,,,67,127
45249,note_on,1,0,0,,10,,,81,127
45351,note_off,102,0,0,,10,,,81,127
45352,note_on,1,0,0,,7,,,79,127
45454,note_on,102,0,0,,0,,,48,127
45556,note_off,102,0,0,,0,,,48,127
45557,note_on,1,0,0,,0,,,36,127
45659,note_off,102,0,0,,0,,,36,127
45660,note_on,1,0,0,,5,,,41,127
45762,note_off,102,0,0,,7,,,79,127
45763,note_on,1,0,0,,5,,,77,127
45865,note_off,102,0,0,,5,,,77,127
45866,note_on,1,0,0,,0,,,72,127
45968,note_off,102,0,0,,0,,,72,127
45969,note_on,1,0,0,,10,,,69,127
46071,note_off,102,0,0,,10,,,69,127
46072,note_on,1,0,0,,5,,,65,127
46174,note_off,102,0,0,,5,,,65,127
46175,note_on,1,0,0,,0,,,72,127
46277,note_off,102,0,0,,0,,,72,127
46277,note_off,0,0,0,,5,,,41,127
46278,note_on,1,0,0,,11,,,70,127
46380,note_off,102,0,0,,11,,,70,127
46381,note_on,1,0,0,,7,,,67,127
46483,note_off,102,0,0,,7,,,67,127
46484,note_on,1,0,0,,10,,,81,127
46586,note_off,102,0,0,,10,,,81,127
46587,note_on,1,0,0,,7,,,79,127
46689,note_on,102,0,0,,0,,,48,127
46791,note_off,102,0,0,,0,,,48,127
46792,note_on,1,0,0,,0,,,36,127
46894,note_off,102,0,0,,0,,,36,127
46895,note_on,1,0,0,,5,,,41,127
46997,note_off,102,0,0,,7,,,79,127
46998,note_on,1,0,0,,5,,,77,127
47100,note_off,102,0,0,,5,,,77,127
47101,note_on,1,0,0,,0,,,72,127
47203,note_off,102,0,0,,0,,,72,127
47203,note_off,0,0,0,,5,,,41,127
47204,note_on,1,0,0,,11,,,46,127
47204,note_on,0,0,0,,2,,,74,127
47306,note_off,102,0,0,,2,,,74,127
47307,note_on,1,0,0,,11,,,70,127
47409,note_off,102,0,0,,11,,,70,127
47410,note_on,1,0,0,,7,,,67,127
47512,note_off,102,0,0,,7,,,67,127
47512,note_off,0,0,0,,11,,,46,127
47513,note_on,1,0,0,,0,,,48,127
47513,note_on,0,0,0,,5,,,65,127
47819,note_off,306,0,0,,5,,,65,127
47819,note_off,0,0,0,,0,,,48,127
47820,note_on,1,0,0,,0,,,36,127
47820,note_on,0,0,0,,10,,,69,127
47870,note_off,50,0,0,,10,,,69,127
47871,note_on,1,0,0,,7,,,67,127
47921,note_off,50,0,0,,7,,,67,127
47922,note_on,1,0,0,,10,,,69,127
47972,note_off,50,0,0,,10,,,69,127
47973,note_on,1,0,0,,7,,,67,127
48023,note_off,50,0,0,,7,,,67,127
48024,note_on,1,0,0,,10,,,69,127
48074,note_off,50,0,0,,10,,,69,127
48075,note_on,1,0,0,,7,,,67,127
48125,note_off,50,0,0,,7,,,67,127
48125,note_off,0,0,0,,0,,,36,127
48126,note_on,1,0,0,,5,,,41,127
48126,note_on,0,0,0,,5,,,65,127
48432,note_off,306,0,0,,5,,,65,127
48433,note_on,1,0,0,,5,,,77,127
48739,note_off,306,0,0,,5,,,41,127
48740,note_on,1,0,0,,5,,,65,127
48842,note_off,102,0,0,,5,,,77,127
48843,note_on,1,0,0,,4,,,76,127
48945,note_off,102,0,0,,4,,,76,127
48946,note_on,1,0,0,,2,,,74,127
49048,note_off,102,0,0,,2,,,74,127
49048,note_off,0,0,0,,5,,,65,127
49049,note_on,1,0,0,,5,,,65,127
49049,note_on,0,0,0,,0,,,72,127
49151,note_off,102,0,0,,0,,,72,127
49152,note_on,1,0,0,,11,,,70,127
49254,note_off,102,0,0,,11,,,70,127
49255,note_on,1,0,0,,10,,,69,127
49357,note_off,102,0,0,,10,,,69,127
49357,note_off,0,0,0,,5,,,65,127
49358,note_on,1,0,0,,5,,,65,127
49358,note_on,0,0,0,,7,,,67,127
49664,note_off,306,0,0,,7,,,67,127
49664,note_off,0,0,0,,5,,,65,127
49665,note_on,1,0,0,,5,,,65,127
49665,note_on,0,0,0,,7,,,79,127
49971,note_off,306,0,0,,5,,,65,127
49972,note_on,1,0,0,,4,,,64,127
50074,note_off,102,0,0,,7,,,79,127
50075,note_on,1,0,0,,5,,,77,127
50177,note_off,102,0,0,,5,,,77,127
50178,note_on,1,0,0,,4,,,76,127
50280,note_off,102,0,0,,4,,,76,127
50280,note_off,0,0,0,,4,,,64,127
50281,note_on,1,0,0,,0,,,60,127
50281,note_on,0,0,0,,2,,,74,127
50383,note_off,102,0,0,,2,,,74,127
50384,note_on,1,0,0,,0,,,72,127
50486,note_off,102,0,0,,0,,,72,127
50487,note_on,1,0,0,,11,,,70,127
50589,note_off,102,0,0,,11,,,70,127
50589,note_off,0,0,0,,0,,,60,127
50590,note_on,1,0,0,,5,,,53,127
50590,note_on,0,0,0,,10,,,69,127
50896,note_off,306,0,0,,10,,,69,127
50896,note_off,0,0,0,,5,,,53,127
50897,note_on,1,0,0,,5,,,65,127
50897,note_on,0,0,0,,5,,,77,127
51203,note_off,306,0,0,,5,,,65,127
51204,note_on,1,0,0,,5,,,65,127
51306,note_off,102,0,0,,5,,,77,127
51307,note_on,1,0,0,,4,,,76,127
51409,note_off,102,0,0,,4,,,76,127
51410,note_on,1,0,0,,2,,,74,127
51512,note_off,102,0,0,,2,,,74,127
51512,note_off,0,0,0,,5,,,65,127
51513,note_on,1,0,0,,5,,,65,127
51513,note_on,0,0,0,,0,,,72,127
51615,note_off,102,0,0,,0,,,72,127
51616,note_on,1,0,0,,12,,,71,127
51718,note_off,102,0,0,,12,,,71,127
51719,note_on,1,0,0,,10,,,69,127
51821,note_off,102,0,0,,10,,,69,127
51821,note_off,0,0,0,,5,,,65,127
51822,note_on,1,0,0,,5,,,65,127
51822,note_on,0,0,0,,7,,,67,127
52128,note_off,306,0,0,,7,,,67,127
52128,note_off,0,0,0,,5,,,65,127
52129,note_on,1,0,0,,4,,,64,127
52129,note_on,0,0,0,,0,,,72,127
52435,note_off,306,0,0,,0,,,72,127
52435,note_off,0,0,0,,4,,,64,127
52436,note_on,1,0,0,,5,,,65,127
52436,note_on,0,0,0,,2,,,74,127
52742,note_off,306,0,0,,5,,,65,127
52743,note_on,1,0,0,,7,,,67,127
52845,note_off,102,0,0,,2,,,74,127
52846,note_on,1,0,0,,4,,,76,127
52948,note_off,102,0,0,,4,,,76,127
52949,note_on,1,0,0,,5,,,77,127
53051,note_off,102,0,0,,5,,,77,127
53051,note_off,0,0,0,,7,,,67,127
53052,note_on,1,0,0,,0,,,60,127
53052,note_on,0,0,0,,4,,,76,127
53154,note_off,102,0,0,,4,,,76,127
53155,note_on,1,0,0,,2,,,74,127
53257,note_off,102,0,0,,2,,,74,127
53258,note_on,1,0,0,,0,,,72,127
53360,note_off,102,0,0,,0,,,72,127
53360,note_off,0,0,0,,0,,,60,127
53361,note_on,1,0,0,,5,,,65,127
53361,note_on,0,0,0,,5,,,77,127
53667,note_off,306,0,0,,5,,,65,127
53668,note_on,1,0,0,,5,,,65,127
53770,note_off,102,0,0,,5,,,77,127
53771,note_on,1,0,0,,4,,,76,127
53873,note_off,102,0,0,,4,,,76,127
53874,note_on,1,0,0,,2,,,74,127
53976,note_off,102,0,0,,2,,,74,127
53976,note_off,0,0,0,,5,,,65,127
53977,note_on,1,0,0,,5,,,65,127
53977,note_on,0,0,0,,0,,,72,127
54079,note_off,102,0,0,,0,,,72,127
54080,note_on,1,0,0,,11,,,70,127
54182,note_off,102,0,0,,11,,,70,127
54183,note_on,1,0,0,,10,,,69,127
54285,note_off,102,0,0,,10,,,69,127
54285,note_off,0,0,0,,5,,,65,127
54286,note_on,1,0,0,,5,,,65,127
54286,note_on,0,0,0,,7,,,67,127
54592,note_off,306,0,0,,7,,,67,127
54592,note_off,0,0,0,,5,,,65,127
54593,note_on,1,0,0,,3,,,63,127
54593,note_on,0,0,0,,7,,,79,127
54899,note_off,306,0,0,,3,,,63,127
54900,note_on,1,0,0,,3,,,63,127
55002,note_off,102,0,0,,7,,,79,127
55003,note_on,1,0,0,,5,,,77,127
55105,note_off,102,0,0,,5,,,77,127
55106,note_on,1,0,0,,3,,,75,127
55208,note_off,102,0,0,,3,,,75,127
55208,note_off,0,0,0,,3,,,63,127
55209,note_on,1,0,0,,3,,,63,127
55209,note_on,0,0,0,,2,,,74,127
55311,note_off,102,0,0,,2,,,74,127
55312,note_on,1,0,0,,0,,,72,127
55414,note_off,102,0,0,,0,,,72,127
55415,note_on,1,0,0,,11,,,70,127
55517,note_off,102,0,0,,11,,,70,127
55517,note_off,0,0,0,,3,,,63,127
55518,note_on,1,0,0,,3,,,63,127
55518,note_on,0,0,0,,10,,,69,127
55824,note_off,306,0,0,,10,,,69,127
55824,note_off,0,0,0,,3,,,63,127
55825,note_on,1,0,0,,2,,,62,127
55825,note_on,0,0,0,,0,,,72,127
55875,note_off,50,0,0,,0,,,72,127
55876,note_on,1,0,0,,11,,,70,127
55926,note_off,50,0,0,,11,,,70,127
55927,note_on,1,0,0,,0,,,72,127
55977,note_off,50,0,0,,0,,,72,127
55978,note_on,1,0,0,,11,,,70,127
56028,note_off,50,0,0,,11,,,70,127
56029,note_on,1,0,0,,10,,,69,127
56079,note_off,50,0,0,,10,,,69,127
56080,note_on,1,0,0,,11,,,70,127
56130,note_off,50,0,0,,11,,,70,127
56130,note_off,0,0,0,,2,,,62,127
56131,note_on,1,0,0,,3,,,63,127
56131,note_on,0,0,0,,0,,,72,127
56437,note_off,306,0,0,,3,,,63,127
56438,note_on,1,0,0,,5,,,65,127
56540,note_off,102,0,0,,0,,,72,127
56541,note_on,1,0,0,,2,,,74,127
56643,note_off,102,0,0,,2,,,74,127
56644,note_on,1,0,0,,3,,,75,127
56746,note_off,102,0,0,,3,,,75,127
56746,note_off,0,0,0,,5,,,65,127
56747,note_on,1,0,0,,11,,,58,127
56747,note_on,0,0,0,,2,,,74,127
56849,note_off,102,0,0,,2,,,74,127
56850,note_on,1,0,0,,0,,,72,127
56952,note_off,102,0,0,,0,,,72,127
56953,note_on,1,0,0,,11,,,70,127
57055,note_off,102,0,0,,11,,,70,127
57055,note_off,0,0,0,,11,,,58,127
57056,note_on,1,0,0,,5,,,65,127
57056,note_on,0,0,0,,5,,,77,127
57362,note_off,306,0,0,,5,,,65,127
57363,note_on,1,0,0,,5,,,65,127
57465,note_off,102,0,0,,5,,,77,127
57466,note_on,1,0,0,,4,,,76,127
57568,note_off,102,0,0,,4,,,76,127
57569,note_on,1,0,0,,2,,,74,127
57671,note_off,102,0,0,,2,,,74,127
57671,note_off,0,0,0,,5,,,65,127
57672,note_on,1,0,0,,5,,,65,127
57672,note_on,0,0,0,,1,,,73,127
57774,note_off,102,0,0,,1,,,73,127
57775,note_on,1,0,0,,11,,,70,127
57877,note_off,102,0,0,,11,,,70,127
57878,note_on,1,0,0,,10,,,69,127
57980,note_off,102,0,0,,10,,,69,127
57980,note_off,0,0,0,,5,,,65,127
57981,note_on,1,0,0,,5,,,65,127
57981,note_on,0,0,0,,7,,,67,127
58287,note_off,306,0,0,,7,,,67,127
58287,note_off,0,0,0,,5,,,65,127
58288,note_on,1,0,0,,4,,,64,127
58288,note_on,0,0,0,,7,,,79,127
58594,note_off,306,0,0,,4,,,64,127
58595,note_on,1,0,0,,4,,,64,127
58697,note_off,102,0,0,,7,,,79,127
58698,note_on,1,0,0,,1,,,73,127
58800,note_off,102,0,0,,1,,,73,127
58801,note_on,1,0,0,,2,,,74,127
58903,note_off,102,0,0,,2,,,74,127
58903,note_off,0,0,0,,4,,,64,127
58904,note_on,1,0,0,,4,,,64,127
58904,note_on,0,0,0,,4,,,76,127
59006,note_off,102,0,0,,4,,,76,127
59007,note_on,1,0,0,,5,,,77,127
59109,note_off,102,0,0,,5,,,77,127
59110,note_on,1,0,0,,7,,,79,127
59212,note_off,102,0,0,,7,,,79,127
59212,note_off,0,0,0,,4,,,64,127
59213,note_on,1,0,0,,2,,,62,127
59213,note_on,0,0,0,,5,,,77,127
59315,note_off,102,0,0,,5,,,77,127
59316,note_on,1,0,0,,4,,,76,127
59418,note_off,102,0,0,,4,,,76,127
59419,note_on,1,0,0,,2,,,74,127
59521,note_off,102,0,0,,2,,,74,127
59521,note_off,0,0,0,,2,,,62,127
59522,note_on,1,0,0,,5,,,65,127
59522,note_on,0,0,0,,5,,,77,127
59828,note_off,306,0,0,,5,,,65,127
59829,note_on,1,0,0,,5,,,65,127
59931,note_off,102,0,0,,5,,,77,127
59932,note_on,1,0,0,,4,,,76,127
60034,note_off,102,0,0,,4,,,76,127
60035,note_on,1,0,0,,2,,,74,127
60137,note_off,102,0,0,,2,,,74,127
60137,note_off,0,0,0,,5,,,65,127
60138,note_on,1,0,0,,5,,,65,127
60138,note_on,0,0,0,,0,,,72,127
60240,note_off,102,0,0,,0,,,72,127
60241,note_on,1,0,0,,12,,,71,127
60343,note_off,102,0,0,,12,,,71,127
60344,note_on,1,0,0,,10,,,69,127
60446,note_off,102,0,0,,10,,,69,127
60446,note_off,0,0,0,,5,,,65,127
60447,note_on,1,0,0,,5,,,65,127
60447,note_on,0,0,0,,8,,,68,127
60549,note_off,102,0,0,,8,,,68,127
60550,note_on,1,0,0,,12,,,71,127
60652,note_off,102,0,0,,12,,,71,127
60653,note_on,1,0,0,,2,,,74,127
60755,note_off,102,0,0,,2,,,74,127
60755,note_off,0,0,0,,5,,,65,127
60756,note_on,1,0,0,,12,,,71,127
60756,note_on,0,0,0,,5,,,65,127
60756,note_on,0,0,0,,10,,,69,127
60756,note_on,0,0,0,,2,,,86,127
61062,note_off,306,0,0,,10,,,69,127
61062,note_off,0,0,0,,5,,,65,127
61062,note_off,0,0,0,,12,,,71,127
61063,note_on,1,0,0,,12,,,71,127
61063,note_on,0,0,0,,5,,,65,127
61063,note_on,0,0,0,,10,,,69,127
61165,note_off,102,0,0,,2,,,86,127
61166,note_on,1,0,0,,12,,,83,127
61268,note_off,102,0,0,,12,,,83,127
61269,note_on,1,0,0,,4,,,76,127
61371,note_off,102,0,0,,4,,,76,127
61371,note_off,0,0,0,,10,,,69,127
61371,note_off,0,0,0,,5,,,65,127
61371,note_off,0,0,0,,12,,,71,127
61372,note_on,1,0,0,,12,,,71,127
61372,note_on,0,0,0,,4,,,64,127
61372,note_on,0,0,0,,2,,,86,127
61474,note_off,102,0,0,,2,,,86,127
61475,note_on,1,0,0,,0,,,84,127
61577,note_off,102,0,0,,0,,,84,127
61578,note_on,1,0,0,,12,,,83,127
61680,note_off,102,0,0,,12,,,83,127
61680,note_off,0,0,0,,4,,,64,127
61680,note_off,0,0,0,,12,,,71,127
61681,note_on,1,0,0,,10,,,69,127
61681,note_on,0,0,0,,0,,,84,127
61783,note_off,102,0,0,,0,,,84,127
61784,note_on,1,0,0,,0,,,72,127
61886,note_off,102,0,0,,0,,,72,127
61887,note_on,1,0,0,,10,,,81,127
61989,note_off,102,0,0,,10,,,81,127
61989,note_off,0,0,0,,10,,,69,127
61990,note_on,1,0,0,,7,,,67,127
61990,note_on,0,0,0,,12,,,83,127
62092,note_off,102,0,0,,12,,,83,127
62093,note_on,1,0,0,,12,,,71,127
62195,note_off,102,0,0,,12,,,71,127
62196,note_on,1,0,0,,8,,,80,127
62298,note_off,102,0,0,,8,,,80,127
62298,note_off,0,0,0,,7,,,67,127
62299,note_on,1,0,0,,5,,,65,127
62299,note_on,0,0,0,,10,,,81,127
62401,note_off,102,0,0,,10,,,81,127
62402,note_on,1,0,0,,10,,,69,127
62504,note_off,102,0,0,,10,,,69,127
62505,note_on,1,0,0,,5,,,77,127
62607,note_off,102,0,0,,5,,,77,127
62607,note_off,0,0,0,,5,,,65,127
62608,note_on,1,0,0,,4,,,64,127
62608,note_on,0,0,0,,7,,,79,127
62710,note_off,102,0,0,,7,,,79,127
62711,note_on,1,0,0,,7,,,67,127
62813,note_off,102,0,0,,7,,,67,127
62814,note_on,1,0,0,,4,,,76,127
62916,note_off,102,0,0,,4,,,76,127
62916,note_off,0,0,0,,4,,,64,127
62917,note_on,1,0,0,,2,,,62,127
62917,note_on,0,0,0,,5,,,77,127
63019,note_off,102,0,0,,5,,,77,127
63020,note_on,1,0,0,,5,,,65,127
63122,note_off,102,0,0,,5,,,65,127
63123,note_on,1,0,0,,2,,,74,127
63225,note_off,102,0,0,,2,,,74,127
63225,note_off,0,0,0,,2,,,62,127
63226,note_on,1,0,0,,0,,,60,127
63226,note_on,0,0,0,,4,,,76,127
63328,note_off,102,0,0,,4,,,76,127
63329,note_on,1,0,0,,4,,,64,127
63431,note_off,102,0,0,,4,,,64,127
63432,note_on,1,0,0,,0,,,72,127
63534,note_off,102,0,0,,0,,,72,127
63534,note_off,0,0,0,,0,,,60,127
63535,note_on,1,0,0,,2,,,62,127
63535,note_on,0,0,0,,12,,,59,127
63535,note_on,0,0,0,,2,,,74,127
63637,note_off,102,0,0,,2,,,74,127
63638,note_on,1,0,0,,5,,,77,127
63740,note_off,102,0,0,,5,,,77,127
63741,note_on,1,0,0,,10,,,69,127
63843,note_off,102,0,0,,10,,,69,127
63843,note_off,0,0,0,,12,,,59,127
63843,note_off,0,0,0,,2,,,62,127
63844,note_on,1,0,0,,12,,,59,127
63844,note_on,0,0,0,,4,,,52,127
63844,note_on,0,0,0,,8,,,68,127
63946,note_off,102,0,0,,8,,,68,127
63947,note_on,1,0,0,,4,,,76,127
64049,note_off,102,0,0,,4,,,76,127
64050,note_on,1,0,0,,2,,,74,127
64152,note_off,102,0,0,,2,,,74,127
64152,note_off,0,0,0,,4,,,52,127
64152,note_off,0,0,0,,12,,,59,127
64153,note_on,1,0,0,,10,,,57,127
64153,note_on,0,0,0,,10,,,45,127
64153,note_on,0,0,0,,0,,,72,127
64255,note_off,102,0,0,,0,,,72,127
64256,note_on,1,0,0,,12,,,71,127
64358,note_off,102,0,0,,12,,,71,127
64359,note_on,1,0,0,,10,,,69,127
64461,note_off,102,0,0,,10,,,69,127
64462,note_on,1,0,0,,0,,,72,127
64564,note_off,102,0,0,,0,,,72,127
64565,note_on,1,0,0,,10,,,69,127
64667,note_off,102,0,0,,10,,,69,127
64668,note_on,1,0,0,,4,,,64,127
64770,note_off,102,0,0,,4,,,64,127
64770,note_off,0,0,0,,10,,,45,127
64770,note_off,0,0,0,,10,,,57,127
64771,note_on,1,0,0,,5,,,65,127
64873,note_off,102,0,0,,5,,,65,127
64874,note_on,1,0,0,,2,,,62,127
64976,note_off,102,0,0,,2,,,62,127
64977,note_on,1,0,0,,4,,,76,127
65079,note_off,102,0,0,,4,,,76,127
65080,note_on,1,0,0,,2,,,62,127
65080,note_on,0,0,0,,2,,,74,127
65182,note_off,102,0,0,,2,,,62,127
65183,note_on,1,0,0,,12,,,59,127
65285,note_off,102,0,0,,12,,,59,127
65286,note_on,1,0,0,,8,,,56,127
65388,note_off,102,0,0,,8,,,56,127
65389,note_on,1,0,0,,10,,,57,127
65695,note_off,306,0,0,,2,,,74,127
65696,note_on,1,0,0,,0,,,72,127
65798,note_off,102,0,0,,0,,,72,127
65799,note_on,1,0,0,,10,,,69,127
65901,note_off,102,0,0,,10,,,69,127
65902,note_on,1,0,0,,4,,,64,127
66004,note_off,102,0,0,,4,,,64,127
66004,note_off,0,0,0,,10,,,57,127
66005,note_on,1,0,0,,5,,,65,127
66107,note_off,102,0,0,,5,,,65,127
66108,note_on,1,0,0,,2,,,62,127
66210,note_off,102,0,0,,2,,,62,127
66211,note_on,1,0,0,,4,,,76,127
66313,note_off,102,0,0,,4,,,76,127
66314,note_on,1,0,0,,2,,,62,127
66314,note_on,0,0,0,,2,,,74,127
66416,note_off,102,0,0,,2,,,62,127
66417,note_on,1,0,0,,12,,,59,127
66519,note_off,102,0,0,,12,,,59,127
66520,note_on,1,0,0,,8,,,56,127
66622,note_off,102,0,0,,8,,,56,127
66623,note_on,1,0,0,,10,,,57,127
66929,note_off,306,0,0,,2,,,74,127
66930,note_on,1,0,0,,4,,,76,127
67032,note_off,102,0,0,,4,,,76,127
67033,note_on,1,0,0,,1,,,73,127
67135,note_off,102,0,0,,1,,,73,127
67136,note_on,1,0,0,,10,,,69,127
67238,note_off,102,0,0,,10,,,69,127
67238,note_off,0,0,0,,10,,,57,127
67239,note_on,1,0,0,,11,,,70,127
67341,note_off,102,0,0,,11,,,70,127
67342,note_on,1,0,0,,7,,,67,127
67444,note_off,102,0,0,,7,,,67,127
67445,note_on,1,0,0,,10,,,81,127
67547,note_off,102,0,0,,10,,,81,127
67548,note_on,1,0,0,,7,,,67,127
67548,note_on,0,0,0,,7,,,79,127
67650,note_off,102,0,0,,7,,,67,127
67651,note_on,1,0,0,,4,,,64,127
67753,note_off,102,0,0,,4,,,64,127
67754,note_on,1,0,0,,1,,,61,127
67856,note_off,102,0,0,,1,,,61,127
67857,note_on,1,0,0,,2,,,62,127
68163,note_off,306,0,0,,7,,,79,127
68164,note_on,1,0,0,,5,,,77,127
68266,note_off,102,0,0,,5,,,77,127
68267,note_on,1,0,0,,2,,,74,127
68369,note_off,102,0,0,,2,,,74,127
68370,note_on,1,0,0,,10,,,69,127
68472,note_off,102,0,0,,10,,,69,127
68472,note_off,0,0,0,,2,,,62,127
68473,note_on,1,0,0,,11,,,70,127
68575,note_off,102,0,0,,11,,,70,127
68576,note_on,1,0,0,,7,,,67,127
68678,note_off,102,0,0,,7,,,67,127
68679,note_on,1,0,0,,10,,,81,127
68781,note_off,102,0,0,,10,,,81,127
68782,note_on,1,0,0,,7,,,67,127
68782,note_on,0,0,0,,7,,,79,127
68884,note_off,102,0,0,,7,,,67,127
68885,note_on,1,0,0,,4,,,64,127
68987,note_off,102,0,0,,4,,,64,127
68988,note_on,1,0,0,,1,,,61,127
69090,note_off,102,0,0,,1,,,61,127
69091,note_on,1,0,0,,2,,,62,127
69397,note_off,306,0,0,,7,,,79,127
69398,note_on,1,0,0,,10,,,81,127
69500,note_off,102,0,0,,10,,,81,127
69501,note_on,1,0,0,,6,,,78,127
69603,note_off,102,0,0,,6,,,78,127
69604,note_on,1,0,0,,2,,,74,127
69706,note_off,102,0,0,,2,,,74,127
69706,note_off,0,0,0,,2,,,62,127
69707,note_on,1,0,0,,3,,,75,127
69809,note_off,102,0,0,,3,,,75,127
69810,note_on,1,0,0,,0,,,72,127
69912,note_off,102,0,0,,0,,,72,127
69913,note_on,1,0,0,,2,,,86,127
70015,note_off,102,0,0,,2,,,86,127
70016,note_on,1,0,0,,0,,,72,127
70016,note_on,0,0,0,,0,,,84,127
70118,note_off,102,0,0,,0,,,72,127
70119,note_on,1,0,0,,10,,,69,127
70221,note_off,102,0,0,,10,,,69,127
70222,note_on,1,0,0,,6,,,66,127
70324,note_off,102,0,0,,6,,,66,127
70325,note_on,1,0,0,,7,,,67,127
70427,note_off,102,0,0,,0,,,84,127
70428,note_on,1,0,0,,10,,,81,127
70530,note_off,102,0,0,,10,,,81,127
70531,note_on,1,0,0,,11,,,82,127
70633,note_off,102,0,0,,7,,,67,127
70634,note_on,1,0,0,,5,,,65,127
70736,note_off,102,0,0,,11,,,82,127
70737,note_on,1,0,0,,7,,,79,127
70839,note_off,102,0,0,,7,,,79,127
70840,note_on,1,0,0,,10,,,81,127
70942,note_off,102,0,0,,5,,,65,127
70943,note_on,1,0,0,,4,,,64,127
71045,note_off,102,0,0,,10,,,81,127
71046,note_on,1,0,0,,5,,,77,127
71148,note_off,102,0,0,,5,,,77,127
71149,note_on,1,0,0,,7,,,79,127
71251,note_off,102,0,0,,4,,,64,127
71252,note_on,1,0,0,,2,,,62,127
71354,note_off,102,0,0,,7,,,79,127
71355,note_on,1,0,0,,4,,,76,127
71457,note_off,102,0,0,,4,,,76,127
71458,note_on,1,0,0,,5,,,77,127
71560,note_off,102,0,0,,2,,,62,127
71561,note_on,1,0,0,,11,,,58,127
71663,note_off,102,0,0,,5,,,77,127
71664,note_on,1,0,0,,4,,,76,127
71766,note_off,102,0,0,,4,,,76,127
71767,note_on,1,0,0,,7,,,79,127
71869,note_off,102,0,0,,11,,,58,127
71870,note_on,1,0,0,,7,,,55,127
71972,note_off,102,0,0,,7,,,79,127
71973,note_on,1,0,0,,11,,,82,127
72075,note_off,102,0,0,,11,,,82,127
72076,note_on,1,0,0,,2,,,74,127
72178,note_off,102,0,0,,2,,,74,127
72178,note_off,0,0,0,,7,,,55,127
72179,note_on,1,0,0,,10,,,57,127
72179,note_on,0,0,0,,2,,,74,127
72229,note_off,50,0,0,,2,,,74,127
72230,note_on,1,0,0,,1,,,73,127
72280,note_off,50,0,0,,1,,,73,127
72281,note_on,1,0,0,,2,,,74,127
72331,note_off,50,0,0,,2,,,74,127
72332,note_on,1,0,0,,1,,,73,127
72382,note_off,50,0,0,,1,,,73,127
72383,note_on,1,0,0,,2,,,74,127
72433,note_off,50,0,0,,2,,,74,127
72434,note_on,1,0,0,,1,,,73,127
72484,note_off,50,0,0,,1,,,73,127
72484,note_off,0,0,0,,10,,,57,127
72485,note_on,1,0,0,,4,,,64,127
72485,note_on,0,0,0,,1,,,73,127
72485,note_on,0,0,0,,4,,,76,127
72587,note_off,102,0,0,,4,,,64,127
72588,note_on,1,0,0,,1,,,61,127
72690,note_off,102,0,0,,1,,,61,127
72691,note_on,1,0,0,,10,,,57,127
72793,note_off,102,0,0,,10,,,57,127
72794,note_on,1,0,0,,10,,,45,127
73100,note_off,306,0,0,,10,,,45,127
73100,note_off,0,0,0,,4,,,76,127
73100,note_off,0,0,0,,1,,,73,127
73101,note_on,1,0,0,,5,,,65,127
73101,note_on,0,0,0,,5,,,77,127
73101,note_on,0,0,0,,2,,,74,127
73203,note_off,102,0,0,,5,,,65,127
73204,note_on,1,0,0,,2,,,62,127
73306,note_off,102,0,0,,2,,,62,127
73307,note_on,1,0,0,,10,,,57,127
73409,note_off,102,0,0,,10,,,57,127
73410,note_on,1,0,0,,10,,,45,127
73716,note_off,306,0,0,,10,,,45,127
73716,note_off,0,0,0,,2,,,74,127
73716,note_off,0,0,0,,5,,,77,127
73717,note_on,1,0,0,,4,,,64,127
73717,note_on,0,0,0,,4,,,76,127
73717,note_on,0,0,0,,7,,,79,127
73819,note_off,102,0,0,,4,,,64,127
73820,note_on,1,0,0,,1,,,61,127
73922,note_off,102,0,0,,1,,,61,127
73923,note_on,1,0,0,,10,,,57,127
74025,note_off,102,0,0,,10,,,57,127
74026,note_on,1,0,0,,10,,,45,127
74332,note_off,306,0,0,,10,,,45,127
74332,note_off,0,0,0,,7,,,79,127
74332,note_off,0,0,0,,4,,,76,127
74333,note_on,1,0,0,,5,,,65,127
74333,note_on,0,0,0,,5,,,77,127
74333,note_on,0,0,0,,10,,,81,127
74435,note_off,102,0,0,,5,,,65,127
74436,note_on,1,0,0,,2,,,62,127
74538,note_off,102,0,0,,2,,,62,127
74539,note_on,1,0,0,,10,,,57,127
74641,note_off,102,0,0,,10,,,57,127
74642,note_on,1,0,0,,10,,,45,127
74744,note_off,102,0,0,,10,,,81,127
74744,note_off,0,0,0,,5,,,77,127
74745,note_on,1,0,0,,10,,,69,127
74847,note_off,102,0,0,,10,,,69,127
74848,note_on,1,0,0,,7,,,79,127
74950,note_off,102,0,0,,7,,,79,127
74950,note_off,0,0,0,,10,,,45,127
74951,note_on,1,0,0,,2,,,50,127
74951,note_on,0,0,0,,10,,,57,127
74951,note_on,0,0,0,,5,,,77,127
74951,note_on,0,0,0,,2,,,74,127
75053,note_off,102,0,0,,2,,,74,127
75054,note_on,1,0,0,,10,,,69,127
75156,note_off,102,0,0,,10,,,69,127
75157,note_on,1,0,0,,2,,,74,127
75259,note_off,102,0,0,,2,,,74,127
75259,note_off,0,0,0,,10,,,57,127
75259,note_off,0,0,0,,2,,,50,127
75260,note_on,1,0,0,,7,,,55,127
75260,note_on,0,0,0,,7,,,43,127
75260,note_on,0,0,0,,11,,,70,127
75362,note_off,102,0,0,,5,,,77,127
75363,note_on,1,0,0,,7,,,79,127
75465,note_off,102,0,0,,7,,,79,127
75466,note_on,1,0,0,,4,,,76,127
75568,note_off,102,0,0,,11,,,70,127
75568,note_off,0,0,0,,7,,,43,127
75568,note_off,0,0,0,,7,,,55,127
75569,note_on,1,0,0,,10,,,57,127
75569,note_on,0,0,0,,10,,,45,127
75569,note_on,0,0,0,,10,,,69,127
75671,note_off,102,0,0,,4,,,76,127
75672,note_on,1,0,0,,2,,,74,127
75774,note_off,102,0,0,,2,,,74,127
75775,note_on,1,0,0,,1,,,73,127
75877,note_off,102,0,0,,1,,,73,127
75877,note_off,0,0,0,,10,,,69,127
75877,note_off,0,0,0,,10,,,45,127
75877,note_off,0,0,0,,10,,,57,127
75878,note_on,1,0,0,,2,,,50,127
75878,note_on,0,0,0,,2,,,74,127
76184,note_off,306,0,0,,2,,,74,127
76184,note_off,0,0,0,,2,,,50,127
76185,note_on,1,0,0,,4,,,64,127
76185,note_on,0,0,0,,4,,,76,127
76185,note_on,0,0,0,,1,,,73,127
76287,note_off,102,0,0,,4,,,64,127
76288,note_on,1,0,0,,1,,,61,127
76390,note_off,102,0,0,,1,,,61,127
76391,note_on,1,0,0,,10,,,57,127
76493,note_off,102,0,0,,10,,,57,127
76494,note_on,1,0,0,,10,,,33,127
76800,note_off,306,0,0,,10,,,33,127
76800,note_off,0,0,0,,1,,,73,127
76800,note_off,0,0,0,,4,,,76,127
76801,note_on,1,0,0,,5,,,65,127
76801,note_on,0,0,0,,5,,,77,127
76801,note_on,0,0,0,,2,,,74,127
76903,note_off,102,0,0,,5,,,65,127
76904,note_on,1,0,0,,2,,,62,127
77006,note_off,102,0,0,,2,,,62,127
77007,note_on,1,0,0,,10,,,57,127
77109,note_off,102,0,0,,10,,,57,127
77110,note_on,1,0,0,,10,,,33,127
77416,note_off,306,0,0,,10,,,33,127
77416,note_off,0,0,0,,2,,,74,127
77416,note_off,0,0,0,,5,,,77,127
77417,note_on,1,0,0,,4,,,64,127
77417,note_on,0,0,0,,4,,,76,127
77417,note_on,0,0,0,,7,,,79,127
77519,note_off,102,0,0,,4,,,64,127
77520,note_on,1,0,0,,1,,,61,127
77622,note_off,102,0,0,,1,,,61,127
77623,note_on,1,0,0,,10,,,57,127
77725,note_off,102,0,0,,10,,,57,127
77726,note_on,1,0,0,,10,,,33,127
78032,note_off,306,0,0,,10,,,33,127
78032,note_off,0,0,0,,7,,,79,127
78032,note_off,0,0,0,,4,,,76,127
78033,note_on,1,0,0,,5,,,65,127
78033,note_on,0,0,0,,10,,,81,127
78033,note_on,0,0,0,,5,,,77,127
78135,note_off,102,0,0,,5,,,65,127
78136,note_on,1,0,0,,2,,,62,127
78238,note_off,102,0,0,,2,,,62,127
78239,note_on,1,0,0,,10,,,57,127
78341,note_off,102,0,0,,10,,,57,127
78342,note_on,1,0,0,,10,,,33,127
78444,note_off,102,0,0,,5,,,77,127
78444,note_off,0,0,0,,10,,,81,127
78445,note_on,1,0,0,,10,,,69,127
78547,note_off,102,0,0,,10,,,69,127
78548,note_on,1,0,0,,7,,,79,127
78650,note_off,102,0,0,,7,,,79,127
78650,note_off,0,0,0,,10,,,33,127
78651,note_on,1,0,0,,2,,,38,127
78651,note_on,0,0,0,,5,,,77,127
78651,note_on,0,0,0,,2,,,74,127
78753,note_off,102,0,0,,2,,,74,127
78754,note_on,1,0,0,,10,,,69,127
78856,note_off,102,0,0,,10,,,69,127
78857,note_on,1,0,0,,2,,,74,127
78959,note_off,102,0,0,,2,,,74,127
78959,note_off,0,0,0,,2,,,38,127
78960,note_on,1,0,0,,7,,,43,127
78960,note_on,0,0,0,,11,,,70,127
79062,note_off,102,0,0,,5,,,77,127
79063,note_on,1,0,0,,7,,,79,127
79165,note_off,102,0,0,,7,,,79,127
79166,note_on,1,0,0,,4,,,76,127
79268,note_off,102,0,0,,11,,,70,127
79268,note_off,0,0,0,,7,,,43,127
79269,note_on,1,0,0,,10,,,45,127
79269,note_on,0,0,0,,10,,,69,127
79371,note_off,102,0,0,,4,,,76,127
79372,note_on,1,0,0,,2,,,74,127
79474,note_off,102,0,0,,2,,,74,127
79475,note_on,1,0,0,,1,,,73,127
79577,note_off,102,0,0,,1,,,73,127
79577,note_off,0,0,0,,10,,,69,127
79577,note_off,0,0,0,,10,,,45,127
79578,note_on,1,0,0,,2,,,38,127
79578,note_on,0,0,0,,2,,,74,127
79680,note_off,102,0,0,,2,,,74,127
79681,note_on,1,0,0,,10,,,81,127
79783,note_off,102,0,0,,10,,,81,127
79784,note_on,1,0,0,,5,,,77,127
79886,note_off,102,0,0,,5,,,77,127
79887,note_on,1,0,0,,2,,,74,127
79989,note_off,102,0,0,,2,,,74,127
79990,note_on,1,0,0,,2,,,74,127
80092,note_off,102,0,0,,2,,,74,127
80093,note_on,1,0,0,,2,,,74,127
80195,note_off,102,0,0,,2,,,74,127
80195,note_off,0,0,0,,2,,,38,127
80196,note_on,1,0,0,,7,,,67,127
80196,note_on,0,0,0,,2,,,62,127
80196,note_on,0,0,0,,2,,,74,127
80298,note_off,102,0,0,,2,,,74,127
80299,note_on,1,0,0,,11,,,70,127
80401,note_off,102,0,0,,11,,,70,127
80402,note_on,1,0,0,,1,,,73,127
80504,note_off,102,0,0,,1,,,73,127
80504,note_off,0,0,0,,2,,,62,127
80504,note_off,0,0,0,,7,,,67,127
80505,note_on,1,0,0,,7,,,67,127
80505,note_on,0,0,0,,2,,,62,127
80505,note_on,0,0,0,,4,,,64,127
80505,note_on,0,0,0,,2,,,74,127
80607,note_off,102,0,0,,2,,,74,127
80608,note_on,1,0,0,,2,,,74,127
80710,note_off,102,0,0,,2,,,74,127
80711,note_on,1,0,0,,2,,,74,127
80813,note_off,102,0,0,,2,,,74,127
80813,note_off,0,0,0,,4,,,64,127
80813,note_off,0,0,0,,2,,,62,127
80813,note_off,0,0,0,,7,,,67,127
80814,note_on,1,0,0,,2,,,62,127
80814,note_on,0,0,0,,5,,,65,127
80814,note_on,0,0,0,,2,,,74,127
80916,note_off,102,0,0,,2,,,74,127
80917,note_on,1,0,0,,10,,,81,127
81019,note_off,102,0,0,,10,,,81,127
81020,note_on,1,0,0,,5,,,77,127
81122,note_off,102,0,0,,5,,,77,127
81123,note_on,1,0,0,,2,,,74,127
81225,note_off,102,0,0,,2,,,74,127
81226,note_on,1,0,0,,2,,,74,127
81328,note_off,102,0,0,,2,,,74,127
81329,note_on,1,0,0,,2,,,74,127
81431,note_off,102,0,0,,2,,,74,127
81431,note_off,0,0,0,,5,,,65,127
81431,note_off,0,0,0,,2,,,62,127
81432,note_on,1,0,0,,2,,,62,127
81432,note_on,0,0,0,,7,,,67,127
81432,note_on,0,0,0,,2,,,74,127
81534,note_off,102,0,0,,2,,,74,127
81535,note_on,1,0,0,,11,,,70,127
81637,note_off,102,0,0,,11,,,70,127
81638,note_on,1,0,0,,1,,,73,127
81740,note_off,102,0,0,,1,,,73,127
81740,note_off,0,0,0,,7,,,67,127
81740,note_off,0,0,0,,2,,,62,127
81741,note_on,1,0,0,,2,,,62,127
81741,note_on,0,0,0,,7,,,67,127
81741,note_on,0,0,0,,4,,,64,127
81741,note_on,0,0,0,,2,,,74,127
81843,note_off,102,0,0,,2,,,74,127
81844,note_on,1,0,0,,2,,,74,127
81946,note_off,102,0,0,,2,,,74,127
81947,note_on,1,0,0,,2,,,74,127
82049,note_off,102,0,0,,2,,,74,127
82049,note_off,0,0,0,,4,,,64,127
82049,note_off,0,0,0,,7,,,67,127
82049,note_off,0,0,0,,2,,,62,127
82050,note_on,1,0,0,,5,,,65,127
82050,note_on,0,0,0,,2,,,62,127
82050,note_on,0,0,0,,2,,,74,127
82152,note_off,102,0,0,,2,,,74,127
82153,note_on,1,0,0,,7,,,79,127
82255,note_off,102,0,0,,7,,,79,127
82256,note_on,1,0,0,,5,,,77,127
82358,note_off,102,0,0,,5,,,77,127
82358,note_off,0,0,0,,2,,,62,127
82358,note_off,0,0,0,,5,,,65,127
82359,note_on,1,0,0,,7,,,67,127
82359,note_on,0,0,0,,11,,,58,127
82359,note_on,0,0,0,,2,,,62,127
82359,note_on,0,0,0,,11,,,82,127
82461,note_off,102,0,0,,11,,,82,127
82462,note_on,1,0,0,,7,,,79,127
82564,note_off,102,0,0,,7,,,79,127
82565,note_on,1,0,0,,4,,,76,127
82667,note_off,102,0,0,,4,,,76,127
82667,note_off,0,0,0,,2,,,62,127
82667,note_off,0,0,0,,11,,,58,127
82667,note_off,0,0,0,,7,,,67,127
82668,note_on,1,0,0,,5,,,65,127
82668,note_on,0,0,0,,10,,,57,127
82668,note_on,0,0,0,,2,,,62,127
82668,note_on,0,0,0,,2,,,74,127
82770,note_off,102,0,0,,2,,,74,127
82771,note_on,1,0,0,,10,,,81,127
82873,note_off,102,0,0,,10,,,81,127
82874,note_on,1,0,0,,2,,,74,127
82976,note_off,102,0,0,,2,,,62,127
82976,note_off,0,0,0,,10,,,57,127
82976,note_off,0,0,0,,5,,,65,127
82977,note_on,1,0,0,,10,,,57,127
82977,note_on,0,0,0,,4,,,64,127
83079,note_off,102,0,0,,2,,,74,127
83080,note_on,1,0,0,,4,,,76,127
83182,note_off,102,0,0,,4,,,76,127
83183,note_on,1,0,0,,1,,,73,127
83285,note_off,102,0,0,,1,,,73,127
83285,note_off,0,0,0,,4,,,64,127
83285,note_off,0,0,0,,10,,,57,127
83286,note_on,1,0,0,,2,,,62,127
83286,note_on,0,0,0,,2,,,50,127
83286,note_on,0,0,0,,2,,,74,127
83388,note_off,102,0,0,,2,,,74,127
83389,note_on,1,0,0,,10,,,69,127
83491,note_off,102,0,0,,10,,,69,127
83492,note_on,1,0,0,,5,,,65,127
83593,note_off,101,0,0,,2,,,62,127
83594,note_off,1,0,0,,5,,,65,127
83595,note_on,1,0,0,,2,,,62,127
83697,note_off,102,0,0,,2,,,62,127
83698,note_on,1,0,0,,2,,,62,127
83800,note_off,102,0,0,,2,,,62,127
83801,note_on,1,0,0,,2,,,62,127
83903,note_off,102,0,0,,2,,,62,127
83903,note_off,0,0,0,,2,,,50,127
83904,note_on,1,0,0,,2,,,50,127
83904,note_on,0,0,0,,7,,,55,127
83904,note_on,0,0,0,,2,,,62,127
84006,note_off,102,0,0,,2,,,62,127
84007,note_on,1,0,0,,11,,,58,127
84109,note_off,102,0,0,,11,,,58,127
84110,note_on,1,0,0,,1,,,61,127
84212,note_off,102,0,0,,1,,,61,127
84212,note_off,0,0,0,,7,,,55,127
84212,note_off,0,0,0,,2,,,50,127
84213,note_on,1,0,0,,7,,,55,127
84213,note_on,0,0,0,,2,,,50,127
84213,note_on,0,0,0,,4,,,52,127
84213,note_on,0,0,0,,2,,,62,127
84315,note_off,102,0,0,,2,,,62,127
84316,note_on,1,0,0,,2,,,62,127
84418,note_off,102,0,0,,2,,,62,127
84419,note_on,1,0,0,,2,,,62,127
84521,note_off,102,0,0,,2,,,62,127
84521,note_off,0,0,0,,4,,,52,127
84521,note_off,0,0,0,,2,,,50,127
84521,note_off,0,0,0,,7,,,55,127
84522,note_on,1,0,0,,2,,,50,127
84522,note_on,0,0,0,,5,,,53,127
84522,note_on,0,0,0,,2,,,62,127
84624,note_off,102,0,0,,2,,,62,127
84625,note_on,1,0,0,,10,,,69,127
84727,note_off,102,0,0,,10,,,69,127
84728,note_on,1,0,0,,5,,,65,127
84830,note_off,102,0,0,,5,,,65,127
84831,note_on,1,0,0,,2,,,62,127
84933,note_off,102,0,0,,2,,,62,127
84934,note_on,1,0,0,,2,,,62,127
85036,note_off,102,0,0,,2,,,62,127
85037,note_on,1,0,0,,2,,,62,127
85139,note_off,102,0,0,,2,,,62,127
85139,note_off,0,0,0,,5,,,53,127
85139,note_off,0,0,0,,2,,,50,127
85140,note_on,1,0,0,,7,,,55,127
85140,note_on,0,0,0,,2,,,50,127
85140,note_on,0,0,0,,2,,,62,127
85242,note_off,102,0,0,,2,,,62,127
85243,note_on,1,0,0,,11,,,58,127
85345,note_off,102,0,0,,11,,,58,127
85346,note_on,1,0,0,,1,,,61,127
85448,note_off,102,0,0,,1,,,61,127
85448,note_off,0,0,0,,2,,,50,127
85448,note_off,0,0,0,,7,,,55,127
85449,note_on,1,0,0,,2,,,50,127
85449,note_on,0,0,0,,7,,,55,127
85449,note_on,0,0,0,,4,,,52,127
85449,note_on,0,0,0,,2,,,62,127
85551,note_off,102,0,0,,2,,,62,127
85552,note_on,1,0,0,,2,,,62,127
85654,note_off,102,0,0,,2,,,62,127
85655,note_on,1,0,0,,2,,,62,127
85757,note_off,102,0,0,,2,,,62,127
85757,note_off,0,0,0,,4,,,52,127
85757,note_off,0,0,0,,7,,,55,127
85757,note_off,0,0,0,,2,,,50,127
85758,note_on,1,0,0,,5,,,53,127
85758,note_on,0,0,0,,2,,,50,127
85758,note_on,0,0,0,,2,,,62,127
85860,note_off,102,0,0,,2,,,62,127
85861,note_on,1,0,0,,7,,,67,127
85963,note_off,102,0,0,,7,,,67,127
85964,note_on,1,0,0,,5,,,65,127
86066,note_off,102,0,0,,5,,,65,127
86066,note_off,0,0,0,,2,,,50,127
86066,note_off,0,0,0,,5,,,53,127
86067,note_on,1,0,0,,11,,,46,127
86067,note_on,0,0,0,,7,,,55,127
86067,note_on,0,0,0,,11,,,70,127
86169,note_off,102,0,0,,11,,,70,127
86170,note_on,1,0,0,,7,,,67,127
86272,note_off,102,0,0,,7,,,67,127
86273,note_on,1,0,0,,4,,,64,127
86375,note_off,102,0,0,,4,,,64,127
86375,note_off,0,0,0,,7,,,55,127
86375,note_off,0,0,0,,11,,,46,127
86376,note_on,1,0,0,,10,,,57,127
86376,note_on,0,0,0,,10,,,45,127
86376,note_on,0,0,0,,5,,,65,127
86478,note_off,102,0,0,,5,,,65,127
86479,note_on,1,0,0,,10,,,69,127
86581,note_off,102,0,0,,10,,,69,127
86582,note_on,1,0,0,,2,,,62,127
86684,note_off,102,0,0,,10,,,45,127
86684,note_off,0,0,0,,10,,,57,127
86685,note_on,1,0,0,,10,,,33,127
86685,note_on,0,0,0,,10,,,45,127
86787,note_off,102,0,0,,2,,,62,127
86788,note_on,1,0,0,,4,,,64,127
86890,note_off,102,0,0,,4,,,64,127
86891,note_on,1,0,0,,1,,,61,127
86993,note_off,102,0,0,,1,,,61,127
86993,note_off,0,0,0,,10,,,45,127
86993,note_off,0,0,0,,10,,,33,127
86994,note_on,1,0,0,,2,,,38,127
86994,note_on,0,0,0,,2,,,62,127
87096,note_off,102,0,0,,2,,,62,127
87097,note_on,1,0,0,,5,,,77,127
87199,note_off,102,0,0,,5,,,77,127
87200,note_on,1,0,0,,2,,,74,127
87302,note_off,102,0,0,,2,,,74,127
87303,note_on,1,0,0,,10,,,69,127
87405,note_off,102,0,0,,10,,,69,127
87406,note_on,1,0,0,,5,,,65,127
87508,note_off,102,0,0,,5,,,65,127
87509,note_on,1,0,0,,5,,,77,127
87611,note_off,102,0,0,,5,,,77,127
87611,note_off,0,0,0,,2,,,38,127
87612,note_on,1,0,0,,11,,,70,127
87714,note_off,102,0,0,,11,,,70,127
87715,note_on,1,0,0,,7,,,67,127
87817,note_off,102,0,0,,7,,,67,127
87818,note_on,1,0,0,,7,,,79,127
87920,note_off,102,0,0,,7,,,79,127
87921,note_on,1,0,0,,1,,,73,127
87921,note_on,0,0,0,,4,,,76,127
88023,note_on,102,0,0,,10,,,45,127
88125,note_off,102,0,0,,10,,,45,127
88126,note_on,1,0,0,,10,,,33,127
88228,note_off,102,0,0,,10,,,33,127
88229,note_on,1,0,0,,2,,,38,127
88331,note_off,102,0,0,,4,,,76,127
88331,note_off,0,0,0,,1,,,73,127
88332,note_on,1,0,0,,5,,,77,127
88434,note_off,102,0,0,,5,,,77,127
88435,note_on,1,0,0,,2,,,74,127
88537,note_off,102,0,0,,2,,,74,127
88538,note_on,1,0,0,,10,,,69,127
88640,note_off,102,0,0,,10,,,69,127
88641,note_on,1,0,0,,5,,,65,127
88743,note_off,102,0,0,,5,,,65,127
88744,note_on,1,0,0,,5,,,77,127
88846,note_off,102,0,0,,5,,,77,127
88846,note_off,0,0,0,,2,,,38,127
88847,note_on,1,0,0,,11,,,70,127
88949,note_off,102,0,0,,11,,,70,127
88950,note_on,1,0,0,,7,,,67,127
89052,note_off,102,0,0,,7,,,67,127
89053,note_on,1,0,0,,7,,,79,127
89155,note_off,102,0,0,,7,,,79,127
89156,note_on,1,0,0,,1,,,73,127
89156,note_on,0,0,0,,4,,,76,127
89258,note_on,102,0,0,,10,,,45,127
89360,note_off,102,0,0,,10,,,45,127
89361,note_on,1,0,0,,10,,,33,127
89463,note_off,102,0,0,,10,,,33,127
89464,note_on,1,0,0,,2,,,38,127
89566,note_off,102,0,0,,4,,,76,127
89566,note_off,0,0,0,,1,,,73,127
89567,note_on,1,0,0,,5,,,77,127
89669,note_off,102,0,0,,5,,,77,127
89670,note_on,1,0,0,,2,,,74,127
89772,note_off,102,0,0,,2,,,74,127
89773,note_on,1,0,0,,10,,,69,127
89875,note_off,102,0,0,,10,,,69,127
89876,note_on,1,0,0,,5,,,65,127
89978,note_off,102,0,0,,5,,,65,127
89979,note_on,1,0,0,,5,,,77,127
90081,note_off,102,0,0,,5,,,77,127
90081,note_off,0,0,0,,2,,,38,127
90082,note_on,1,0,0,,11,,,70,127
90184,note_off,102,0,0,,11,,,70,127
90185,note_on,1,0,0,,7,,,67,127
90287,note_off,102,0,0,,7,,,67,127
90288,note_on,1,0,0,,7,,,79,127
90390,note_off,102,0,0,,7,,,79,127
90391,note_on,1,0,0,,4,,,76,127
90391,note_on,0,0,0,,1,,,73,127
90493,note_on,102,0,0,,10,,,45,127
90595,note_off,102,0,0,,10,,,45,127
90596,note_on,1,0,0,,10,,,33,127
90698,note_off,102,0,0,,10,,,33,127
90698,note_off,0,0,0,,1,,,73,127
90698,note_off,0,0,0,,4,,,76,127
90699,note_on,1,0,0,,2,,,38,127
90699,note_on,0,0,0,,2,,,74,127
90699,note_on,0,0,0,,5,,,77,127
90801,note_off,102,0,0,,5,,,77,127
90801,note_off,0,0,0,,2,,,74,127
90802,note_on,1,0,0,,2,,,74,127
90904,note_off,102,0,0,,2,,,74,127
90905,note_on,1,0,0,,10,,,69,127
91007,note_off,102,0,0,,10,,,69,127
91007,note_off,0,0,0,,2,,,38,127
91008,note_on,1,0,0,,7,,,43,127
91008,note_on,0,0,0,,11,,,70,127
91110,note_off,102,0,0,,11,,,70,127
91111,note_on,1,0,0,,2,,,74,127
91213,note_off,102,0,0,,2,,,74,127
91214,note_on,1,0,0,,4,,,64,127
91316,note_off,102,0,0,,4,,,64,127
91316,note_off,0,0,0,,7,,,43,127
91317,note_on,1,0,0,,10,,,45,127
91317,note_on,0,0,0,,5,,,65,127
91419,note_off,102,0,0,,5,,,65,127
91420,note_on,1,0,0,,10,,,69,127
91522,note_off,102,0,0,,10,,,69,127
91523,note_on,1,0,0,,2,,,62,127
91625,note_off,102,0,0,,2,,,62,127
91626,note_on,1,0,0,,10,,,33,127
91626,note_on,0,0,0,,10,,,57,127
91728,note_off,102,0,0,,10,,,57,127
91729,note_on,1,0,0,,2,,,62,127
91831,note_off,102,0,0,,2,,,62,127
91832,note_on,1,0,0,,1,,,61,127
91934,note_off,102,0,0,,1,,,61,127
91934,note_off,0,0,0,,10,,,33,127
91934,note_off,0,0,0,,10,,,45,127
91935,note_on,1,0,0,,2,,,38,127
91935,note_on,0,0,0,,2,,,62,127
92037,note_off,102,0,0,,2,,,62,127
92038,note_on,1,0,0,,5,,,65,127
92140,note_off,102,0,0,,5,,,65,127
92141,note_on,1,0,0,,10,,,57,127
92243,note_off,102,0,0,,10,,,57,127
92243,note_off,0,0,0,,2,,,38,127
92244,note_on,1,0,0,,7,,,43,127
92244,note_on,0,0,0,,11,,,58,127
92346,note_off,102,0,0,,11,,,58,127
92347,note_on,1,0,0,,7,,,67,127
92449,note_off,102,0,0,,7,,,67,127
92450,note_on,1,0,0,,4,,,64,127
92552,note_off,102,0,0,,4,,,64,127
92552,note_off,0,0,0,,7,,,43,127
92553,note_on,1,0,0,,10,,,45,127
92553,note_on,0,0,0,,10,,,57,127
92655,note_off,102,0,0,,10,,,57,127
92656,note_on,1,0,0,,5,,,65,127
92758,note_off,102,0,0,,5,,,65,127
92759,note_on,1,0,0,,2,,,62,127
92861,note_off,102,0,0,,2,,,62,127
92862,note_on,1,0,0,,10,,,33,127
92862,note_on,0,0,0,,7,,,55,127
92964,note_off,102,0,0,,7,,,55,127
92965,note_on,1,0,0,,4,,,64,127
93067,note_off,102,0,0,,4,,,64,127
93068,note_on,1,0,0,,1,,,61,127
93170,note_off,102,0,0,,1,,,61,127
93170,note_off,0,0,0,,10,,,33,127
93170,note_off,0,0,0,,10,,,45,127
93171,note_on,1,0,0,,2,,,38,127
93171,note_on,0,0,0,,4,,,64,127
93209,note_on,38,0,0,,2,,,62,127
93221,note_off,12,0,0,,4,,,64,127
93247,note_on,26,0,0,,4,,,64,127
93259,note_off,12,0,0,,2,,,62,127
93285,note_on,26,0,0,,2,,,62,127
93297,note_off,12,0,0,,4,,,64,127
94987,note_off,1690,0,0,,2,,,62,127
94987,note_off,0,0,0,,2,,,38,127
96768,end_of_track,1781,1,0,,,,,,
