tick,type,time,meta,track,program,channel,pitch,tempo,note,velocity
0,copyright,0,1,0,,,,,,
0,program_change,0,0,0,6,0,,,,
0,pitchwheel,0,0,0,,0,0,,,
0,program_change,0,0,0,6,1,,,,
0,pitchwheel,0,0,0,,1,-590,,,
0,program_change,0,0,0,6,2,,,,
0,pitchwheel,0,0,0,,2,-272,,,
0,program_change,0,0,0,6,3,,,,
0,pitchwheel,0,0,0,,3,-353,,,
0,program_change,0,0,0,6,4,,,,
0,pitchwheel,0,0,0,,4,-560,,,
0,program_change,0,0,0,6,5,,,,
0,pitchwheel,0,0,0,,5,-80,,,
0,program_change,0,0,0,6,6,,,,
0,pitchwheel,0,0,0,,6,-625,,,
0,program_change,0,0,0,6,7,,,,
0,pitchwheel,0,0,0,,7,-130,,,
0,program_change,0,0,0,6,8,,,,
0,pitchwheel,0,0,0,,8,-512,,,
0,program_change,0,0,0,6,10,,,,
0,pitchwheel,0,0,0,,10,-464,,,
0,program_change,0,0,0,6,11,,,,
0,pitchwheel,0,0,0,,11,-208,,,
0,program_change,0,0,0,6,12,,,,
0,pitchwheel,0,0,0,,12,-553,,,
0,set_tempo,0,1,0,,,,500000,,
51,note_on,51,0,0,,2,,,62,127
357,note_off,306,0,0,,2,,,62,127
359,note_on,2,0,0,,6,,,66,127
359,note_on,0,0,0,,10,,,81,127
460,note_off,101,0,0,,6,,,66,127
462,note_on,2,0,0,,4,,,64,127
563,note_off,101,0,0,,4,,,64,127
565,note_on,2,0,0,,6,,,66,127
666,note_off,101,0,0,,6,,,66,127
666,note_off,0,0,0,,10,,,81,127
668,note_on,2,0,0,,7,,,67,127
668,note_on,0,0,0,,10,,,81,127
769,note_off,101,0,0,,7,,,67,127
771,note_on,2,0,0,,6,,,66,127
872,note_off,101,0,0,,6,,,66,127
874,note_on,2,0,0,,7,,,67,127
975,note_off,101,0,0,,7,,,67,127
975,note_off,0,0,0,,10,,,81,127
977,note_on,2,0,0,,10,,,69,127
977,note_on,0,0,0,,10,,,81,127
1283,note_off,306,0,0,,10,,,81,127
1283,note_off,0,0,0,,10,,,69,127
1285,note_on,2,0,0,,6,,,66,127
1285,note_on,0,0,0,,10,,,81,127
1386,note_off,101,0,0,,6,,,66,127
1388,note_on,2,0,0,,4,,,64,127
1489,note_off,101,0,0,,4,,,64,127
1491,note_on,2,0,0,,6,,,66,127
1592,note_off,101,0,0,,6,,,66,127
1592,note_off,0,0,0,,10,,,81,127
1594,note_on,2,0,0,,7,,,67,127
1594,note_on,0,0,0,,10,,,81,127
1695,note_off,101,0,0,,7,,,67,127
1697,note_on,2,0,0,,6,,,66,127
1798,note_off,101,0,0,,6,,,66,127
1800,note_on,2,0,0,,7,,,67,127
1901,note_off,101,0,0,,7,,,67,127
1901,note_off,0,0,0,,10,,,81,127
1903,note_on,2,0,0,,10,,,69,127
1903,note_on,0,0,0,,10,,,81,127
2209,note_off,306,0,0,,10,,,81,127
2209,note_off,0,0,0,,10,,,69,127
2211,note_on,2,0,0,,6,,,66,127
2211,note_on,0,0,0,,10,,,81,127
2312,note_off,101,0,0,,6,,,66,127
2314,note_on,2,0,0,,4,,,64,127
2415,note_off,101,0,0,,4,,,64,127
2417,note_on,2,0,0,,6,,,66,127
2518,note_off,101,0,0,,6,,,66,127
2518,note_off,0,0,0,,10,,,81,127
2520,note_on,2,0,0,,7,,,67,127
2520,note_on,0,0,0,,10,,,81,127
2621,note_off,101,0,0,,7,,,67,127
2623,note_on,2,0,0,,6,,,66,127
2724,note_off,101,0,0,,6,,,66,127
2726,note_on,2,0,0,,7,,,67,127
2827,note_off,101,0,0,,7,,,67,127
2827,note_off,0,0,0,,10,,,81,127
2829,note_on,2,0,0,,10,,,69,127
2829,note_on,0,0,0,,10,,,81,127
3135,note_off,306,0,0,,10,,,81,127
3135,note_off,0,0,0,,10,,,69,127
3137,note_on,2,0,0,,12,,,71,127
3137,note_on,0,0,0,,10,,,81,127
3238,note_off,101,0,0,,12,,,71,127
3240,note_on,2,0,0,,10,,,69,127
3341,note_off,101,0,0,,10,,,69,127
3343,note_on,2,0,0,,12,,,71,127
3444,note_off,101,0,0,,12,,,71,127
3444,note_off,0,0,0,,10,,,81,127
3446,note_on,2,0,0,,1,,,73,127
3446,note_on,0,0,0,,7,,,79,127
3547,note_off,101,0,0,,1,,,73,127
3549,note_on,2,0,0,,12,,,71,127
3650,note_off,101,0,0,,12,,,71,127
3652,note_on,2,0,0,,1,,,73,127
3753,note_off,101,0,0,,1,,,73,127
3753,note_off,0,0,0,,7,,,79,127
3755,note_on,2,0,0,,2,,,74,127
3755,note_on,0,0,0,,6,,,78,127
3856,note_off,101,0,0,,6,,,78,127
3858,note_on,2,0,0,,7,,,79,127
3959,note_off,101,0,0,,7,,,79,127
3961,note_on,2,0,0,,10,,,81,127
4062,note_off,101,0,0,,10,,,81,127
4064,note_on,2,0,0,,2,,,62,127
4064,note_on,0,0,0,,7,,,79,127
4165,note_off,101,0,0,,7,,,79,127
4167,note_on,2,0,0,,6,,,78,127
4268,note_off,101,0,0,,6,,,78,127
4270,note_on,2,0,0,,4,,,76,127
4371,note_off,101,0,0,,4,,,76,127
4371,note_off,0,0,0,,2,,,62,127
4371,note_off,0,0,0,,2,,,74,127
4373,note_on,2,0,0,,6,,,66,127
4373,note_on,0,0,0,,2,,,74,127
4679,note_off,306,0,0,,2,,,74,127
4679,note_off,0,0,0,,6,,,66,127
4681,note_on,2,0,0,,7,,,67,127
4681,note_on,0,0,0,,12,,,71,127
4987,note_off,306,0,0,,12,,,71,127
4987,note_off,0,0,0,,7,,,67,127
4989,note_on,2,0,0,,10,,,69,127
4989,note_on,0,0,0,,6,,,78,127
5066,note_on,77,0,0,,4,,,76,127
5090,note_off,24,0,0,,6,,,78,127
5143,note_on,53,0,0,,6,,,78,127
5167,note_off,24,0,0,,4,,,76,127
5220,note_on,53,0,0,,4,,,76,127
5244,note_off,24,0,0,,6,,,78,127
5297,note_on,53,0,0,,10,,,57,127
5297,note_on,0,0,0,,6,,,78,127
5321,note_off,24,0,0,,4,,,76,127
5374,note_on,53,0,0,,4,,,76,127
5398,note_off,24,0,0,,6,,,78,127
5451,note_on,53,0,0,,2,,,74,127
5475,note_off,24,0,0,,4,,,76,127
5528,note_on,53,0,0,,4,,,76,127
5552,note_off,24,0,0,,2,,,74,127
5603,note_off,51,0,0,,10,,,57,127
5603,note_off,0,0,0,,10,,,69,127
5605,note_on,2,0,0,,2,,,62,127
5605,note_on,0,0,0,,2,,,74,127
5629,note_off,24,0,0,,4,,,76,127
5911,note_off,282,0,0,,2,,,74,127
5911,note_off,0,0,0,,2,,,62,127
5913,note_on,2,0,0,,6,,,66,127
5913,note_on,0,0,0,,10,,,81,127
6014,note_off,101,0,0,,6,,,66,127
6016,note_on,2,0,0,,4,,,64,127
6117,note_off,101,0,0,,4,,,64,127
6119,note_on,2,0,0,,6,,,66,127
6220,note_off,101,0,0,,6,,,66,127
6220,note_off,0,0,0,,10,,,81,127
6222,note_on,2,0,0,,7,,,67,127
6222,note_on,0,0,0,,2,,,86,127
6323,note_off,101,0,0,,7,,,67,127
6325,note_on,2,0,0,,6,,,66,127
6426,note_off,101,0,0,,6,,,66,127
6428,note_on,2,0,0,,7,,,67,127
6529,note_off,101,0,0,,7,,,67,127
6529,note_off,0,0,0,,2,,,86,127
6531,note_on,2,0,0,,10,,,69,127
6531,note_on,0,0,0,,10,,,81,127
6837,note_off,306,0,0,,10,,,81,127
6837,note_off,0,0,0,,10,,,69,127
6839,note_on,2,0,0,,6,,,66,127
6839,note_on,0,0,0,,10,,,81,127
6940,note_off,101,0,0,,6,,,66,127
6942,note_on,2,0,0,,4,,,64,127
7043,note_off,101,0,0,,4,,,64,127
7045,note_on,2,0,0,,6,,,66,127
7146,note_off,101,0,0,,6,,,66,127
7146,note_off,0,0,0,,10,,,81,127
7148,note_on,2,0,0,,7,,,67,127
7148,note_on,0,0,0,,2,,,86,127
7249,note_off,101,0,0,,7,,,67,127
7251,note_on,2,0,0,,6,,,66,127
7352,note_off,101,0,0,,6,,,66,127
7354,note_on,2,0,0,,7,,,67,127
7455,note_off,101,0,0,,7,,,67,127
7455,note_off,0,0,0,,2,,,86,127
7457,note_on,2,0,0,,10,,,69,127
7457,note_on,0,0,0,,10,,,81,127
7763,note_off,306,0,0,,10,,,81,127
7763,note_off,0,0,0,,10,,,69,127
7765,note_on,2,0,0,,6,,,66,127
7765,note_on,0,0,0,,10,,,81,127
7866,note_off,101,0,0,,6,,,66,127
7868,note_on,2,0,0,,4,,,64,127
7969,note_off,101,0,0,,4,,,64,127
7971,note_on,2,0,0,,6,,,66,127
8072,note_off,101,0,0,,6,,,66,127
8072,note_off,0,0,0,,10,,,81,127
8074,note_on,2,0,0,,7,,,67,127
8074,note_on,0,0,0,,2,,,86,127
8175,note_off,101,0,0,,7,,,67,127
8177,note_on,2,0,0,,6,,,66,127
8278,note_off,101,0,0,,6,,,66,127
8280,note_on,2,0,0,,7,,,67,127
8381,note_off,101,0,0,,7,,,67,127
8381,note_off,0,0,0,,2,,,86,127
8383,note_on,2,0,0,,10,,,69,127
8383,note_on,0,0,0,,10,,,81,127
8689,note_off,306,0,0,,10,,,81,127
8689,note_off,0,0,0,,10,,,69,127
8691,note_on,2,0,0,,12,,,71,127
8691,note_on,0,0,0,,10,,,81,127
8792,note_off,101,0,0,,12,,,71,127
8794,note_on,2,0,0,,10,,,69,127
8895,note_off,101,0,0,,10,,,69,127
8897,note_on,2,0,0,,12,,,71,127
8998,note_off,101,0,0,,12,,,71,127
8998,note_off,0,0,0,,10,,,81,127
9000,note_on,2,0,0,,1,,,73,127
9000,note_on,0,0,0,,7,,,79,127
9101,note_off,101,0,0,,1,,,73,127
9103,note_on,2,0,0,,12,,,71,127
9204,note_off,101,0,0,,12,,,71,127
9206,note_on,2,0,0,,1,,,73,127
9307,note_off,101,0,0,,1,,,73,127
9307,note_off,0,0,0,,7,,,79,127
9309,note_on,2,0,0,,2,,,74,127
9309,note_on,0,0,0,,6,,,78,127
9410,note_off,101,0,0,,6,,,78,127
9412,note_on,2,0,0,,7,,,79,127
9513,note_off,101,0,0,,7,,,79,127
9515,note_on,2,0,0,,10,,,81,127
9616,note_off,101,0,0,,10,,,81,127
9618,note_on,2,0,0,,2,,,62,127
9618,note_on,0,0,0,,7,,,79,127
9719,note_off,101,0,0,,7,,,79,127
9721,note_on,2,0,0,,6,,,78,127
9822,note_off,101,0,0,,6,,,78,127
9824,note_on,2,0,0,,4,,,76,127
9925,note_off,101,0,0,,4,,,76,127
9925,note_off,0,0,0,,2,,,62,127
9925,note_off,0,0,0,,2,,,74,127
9927,note_on,2,0,0,,6,,,66,127
9927,note_on,0,0,0,,2,,,74,127
10233,note_off,306,0,0,,2,,,74,127
10233,note_off,0,0,0,,6,,,66,127
10235,note_on,2,0,0,,7,,,67,127
10235,note_on,0,0,0,,12,,,71,127
10541,note_off,306,0,0,,12,,,71,127
10541,note_off,0,0,0,,7,,,67,127
10543,note_on,2,0,0,,10,,,69,127
10543,note_on,0,0,0,,6,,,78,127
10620,note_on,77,0,0,,4,,,76,127
10644,note_off,24,0,0,,6,,,78,127
10697,note_on,53,0,0,,6,,,78,127
10721,note_off,24,0,0,,4,,,76,127
10774,note_on,53,0,0,,4,,,76,127
10798,note_off,24,0,0,,6,,,78,127
10851,note_on,53,0,0,,10,,,57,127
10851,note_on,0,0,0,,6,,,78,127
10875,note_off,24,0,0,,4,,,76,127
10928,note_on,53,0,0,,4,,,76,127
10952,note_off,24,0,0,,6,,,78,127
11005,note_on,53,0,0,,2,,,74,127
11029,note_off,24,0,0,,4,,,76,127
11082,note_on,53,0,0,,4,,,76,127
11106,note_off,24,0,0,,2,,,74,127
11157,note_off,51,0,0,,10,,,57,127
11157,note_off,0,0,0,,10,,,69,127
11159,note_on,2,0,0,,2,,,62,127
11159,note_on,0,0,0,,2,,,74,127
11183,note_off,24,0,0,,4,,,76,127
11465,note_off,282,0,0,,2,,,74,127
11465,note_off,0,0,0,,2,,,62,127
11467,note_on,2,0,0,,2,,,62,127
11467,note_on,0,0,0,,10,,,69,127
11467,note_on,0,0,0,,6,,,78,127
11568,note_off,101,0,0,,6,,,78,127
11570,note_on,2,0,0,,4,,,76,127
11671,note_off,101,0,0,,4,,,76,127
11673,note_on,2,0,0,,6,,,78,127
11774,note_off,101,0,0,,6,,,78,127
11774,note_off,0,0,0,,2,,,62,127
11776,note_on,2,0,0,,1,,,61,127
11776,note_on,0,0,0,,7,,,79,127
12082,note_off,306,0,0,,1,,,61,127
12082,note_off,0,0,0,,10,,,69,127
12084,note_on,2,0,0,,2,,,62,127
12084,note_on,0,0,0,,10,,,69,127
12390,note_off,306,0,0,,2,,,62,127
12390,note_off,0,0,0,,7,,,79,127
12392,note_on,2,0,0,,2,,,50,127
12392,note_on,0,0,0,,6,,,78,127
12698,note_off,306,0,0,,6,,,78,127
12698,note_off,0,0,0,,2,,,50,127
12700,note_on,2,0,0,,10,,,45,127
12700,note_on,0,0,0,,4,,,76,127
13006,note_off,306,0,0,,4,,,76,127
13006,note_off,0,0,0,,10,,,45,127
13008,note_on,2,0,0,,2,,,38,127
13008,note_on,0,0,0,,2,,,74,127
13314,note_off,306,0,0,,2,,,74,127
13314,note_off,0,0,0,,2,,,38,127
13314,note_off,0,0,0,,10,,,69,127
13316,note_on,2,0,0,,2,,,62,127
13316,note_on,0,0,0,,10,,,69,127
13316,note_on,0,0,0,,6,,,78,127
13417,note_off,101,0,0,,6,,,78,127
13419,note_on,2,0,0,,4,,,76,127
13520,note_off,101,0,0,,4,,,76,127
13522,note_on,2,0,0,,6,,,78,127
13623,note_off,101,0,0,,6,,,78,127
13623,note_off,0,0,0,,2,,,62,127
13625,note_on,2,0,0,,1,,,61,127
13625,note_on,0,0,0,,7,,,79,127
13931,note_off,306,0,0,,1,,,61,127
13931,note_off,0,0,0,,10,,,69,127
13933,note_on,2,0,0,,2,,,62,127
13933,note_on,0,0,0,,10,,,69,127
14239,note_off,306,0,0,,2,,,62,127
14239,note_off,0,0,0,,7,,,79,127
14241,note_on,2,0,0,,2,,,50,127
14241,note_on,0,0,0,,6,,,78,127
14547,note_off,306,0,0,,6,,,78,127
14547,note_off,0,0,0,,2,,,50,127
14549,note_on,2,0,0,,10,,,45,127
14549,note_on,0,0,0,,4,,,76,127
14855,note_off,306,0,0,,4,,,76,127
14855,note_off,0,0,0,,10,,,45,127
14857,note_on,2,0,0,,2,,,38,127
14857,note_on,0,0,0,,2,,,74,127
15163,note_off,306,0,0,,2,,,74,127
15163,note_off,0,0,0,,2,,,38,127
15163,note_off,0,0,0,,10,,,69,127
15165,note_on,2,0,0,,2,,,62,127
15165,note_on,0,0,0,,10,,,69,127
15165,note_on,0,0,0,,6,,,78,127
15266,note_off,101,0,0,,6,,,78,127
15268,note_on,2,0,0,,4,,,76,127
15369,note_off,101,0,0,,4,,,76,127
15371,note_on,2,0,0,,2,,,74,127
15472,note_off,101,0,0,,2,,,74,127
15472,note_off,0,0,0,,2,,,62,127
15474,note_on,2,0,0,,1,,,61,127
15474,note_on,0,0,0,,4,,,76,127
15780,note_off,306,0,0,,1,,,61,127
15780,note_off,0,0,0,,10,,,69,127
15782,note_on,2,0,0,,12,,,59,127
15782,note_on,0,0,0,,8,,,68,127
16088,note_off,306,0,0,,12,,,59,127
16088,note_off,0,0,0,,4,,,76,127
16090,note_on,2,0,0,,4,,,64,127
16090,note_on,0,0,0,,2,,,74,127
16191,note_off,101,0,0,,2,,,74,127
16193,note_on,2,0,0,,1,,,73,127
16294,note_off,101,0,0,,1,,,73,127
16296,note_on,2,0,0,,12,,,71,127
16397,note_off,101,0,0,,12,,,71,127
16397,note_off,0,0,0,,4,,,64,127
16397,note_off,0,0,0,,8,,,68,127
16399,note_on,2,0,0,,10,,,57,127
16399,note_on,0,0,0,,1,,,73,127
16399,note_on,0,0,0,,10,,,69,127
16705,note_off,306,0,0,,10,,,69,127
16705,note_off,0,0,0,,1,,,73,127
16705,note_off,0,0,0,,10,,,57,127
16707,note_on,2,0,0,,12,,,59,127
16707,note_on,0,0,0,,2,,,74,127
16707,note_on,0,0,0,,12,,,71,127
17013,note_off,306,0,0,,12,,,71,127
17013,note_off,0,0,0,,2,,,74,127
17013,note_off,0,0,0,,12,,,59,127
17015,note_on,2,0,0,,4,,,52,127
17015,note_on,0,0,0,,10,,,69,127
17015,note_on,0,0,0,,1,,,73,127
17321,note_off,306,0,0,,1,,,73,127
17321,note_off,0,0,0,,10,,,69,127
17323,note_on,2,0,0,,4,,,40,127
17323,note_on,0,0,0,,8,,,68,127
17323,note_on,0,0,0,,12,,,71,127
17629,note_off,306,0,0,,12,,,71,127
17629,note_off,0,0,0,,8,,,68,127
17629,note_off,0,0,0,,4,,,40,127
17629,note_off,0,0,0,,4,,,52,127
17631,note_on,2,0,0,,10,,,45,127
17631,note_on,0,0,0,,10,,,69,127
17937,note_off,306,0,0,,10,,,69,127
17937,note_off,0,0,0,,10,,,45,127
17939,note_on,2,0,0,,1,,,61,127
17939,note_on,0,0,0,,4,,,76,127
17939,note_on,0,0,0,,4,,,88,127
18040,note_off,101,0,0,,1,,,61,127
18042,note_on,2,0,0,,12,,,59,127
18143,note_off,101,0,0,,12,,,59,127
18145,note_on,2,0,0,,1,,,61,127
18246,note_off,101,0,0,,1,,,61,127
18246,note_off,0,0,0,,4,,,88,127
18246,note_off,0,0,0,,4,,,76,127
18248,note_on,2,0,0,,2,,,62,127
18248,note_on,0,0,0,,4,,,88,127
18248,note_on,0,0,0,,4,,,76,127
18349,note_off,101,0,0,,2,,,62,127
18351,note_on,2,0,0,,1,,,61,127
18452,note_off,101,0,0,,1,,,61,127
18454,note_on,2,0,0,,2,,,62,127
18555,note_off,101,0,0,,2,,,62,127
18555,note_off,0,0,0,,4,,,76,127
18555,note_off,0,0,0,,4,,,88,127
18557,note_on,2,0,0,,4,,,64,127
18557,note_on,0,0,0,,4,,,76,127
18557,note_on,0,0,0,,4,,,88,127
18863,note_off,306,0,0,,4,,,88,127
18863,note_off,0,0,0,,4,,,76,127
18863,note_off,0,0,0,,4,,,64,127
18865,note_on,2,0,0,,6,,,54,127
18865,note_on,0,0,0,,2,,,86,127
18865,note_on,0,0,0,,4,,,76,127
18966,note_off,101,0,0,,6,,,54,127
18968,note_on,2,0,0,,4,,,52,127
19069,note_off,101,0,0,,4,,,52,127
19071,note_on,2,0,0,,6,,,54,127
19172,note_off,101,0,0,,6,,,54,127
19172,note_off,0,0,0,,4,,,76,127
19172,note_off,0,0,0,,2,,,86,127
19174,note_on,2,0,0,,8,,,56,127
19174,note_on,0,0,0,,2,,,86,127
19174,note_on,0,0,0,,4,,,76,127
19275,note_off,101,0,0,,8,,,56,127
19277,note_on,2,0,0,,6,,,54,127
19378,note_off,101,0,0,,6,,,54,127
19380,note_on,2,0,0,,8,,,56,127
19481,note_off,101,0,0,,8,,,56,127
19481,note_off,0,0,0,,4,,,76,127
19481,note_off,0,0,0,,2,,,86,127
19483,note_on,2,0,0,,10,,,57,127
19483,note_on,0,0,0,,4,,,76,127
19483,note_on,0,0,0,,1,,,85,127
19789,note_off,306,0,0,,1,,,85,127
19789,note_off,0,0,0,,4,,,76,127
19789,note_off,0,0,0,,10,,,57,127
19791,note_on,2,0,0,,1,,,49,127
19791,note_on,0,0,0,,4,,,88,127
19791,note_on,0,0,0,,4,,,76,127
19892,note_off,101,0,0,,1,,,49,127
19894,note_on,2,0,0,,12,,,47,127
19995,note_off,101,0,0,,12,,,47,127
19997,note_on,2,0,0,,1,,,49,127
20098,note_off,101,0,0,,1,,,49,127
20098,note_off,0,0,0,,4,,,76,127
20098,note_off,0,0,0,,4,,,88,127
20100,note_on,2,0,0,,2,,,50,127
20100,note_on,0,0,0,,4,,,88,127
20100,note_on,0,0,0,,4,,,76,127
20201,note_off,101,0,0,,2,,,50,127
20203,note_on,2,0,0,,1,,,49,127
20304,note_off,101,0,0,,1,,,49,127
20306,note_on,2,0,0,,2,,,50,127
20407,note_off,101,0,0,,2,,,50,127
20407,note_off,0,0,0,,4,,,76,127
20407,note_off,0,0,0,,4,,,88,127
20409,note_on,2,0,0,,4,,,52,127
20409,note_on,0,0,0,,4,,,88,127
20409,note_on,0,0,0,,4,,,76,127
20715,note_off,306,0,0,,4,,,76,127
20715,note_off,0,0,0,,4,,,88,127
20715,note_off,0,0,0,,4,,,52,127
20717,note_on,2,0,0,,6,,,42,127
20717,note_on,0,0,0,,2,,,86,127
20717,note_on,0,0,0,,4,,,76,127
20818,note_off,101,0,0,,6,,,42,127
20820,note_on,2,0,0,,4,,,40,127
20921,note_off,101,0,0,,4,,,40,127
20923,note_on,2,0,0,,6,,,42,127
21024,note_off,101,0,0,,6,,,42,127
21024,note_off,0,0,0,,4,,,76,127
21024,note_off,0,0,0,,2,,,86,127
21026,note_on,2,0,0,,8,,,44,127
21026,note_on,0,0,0,,2,,,86,127
21026,note_on,0,0,0,,4,,,76,127
21127,note_off,101,0,0,,8,,,44,127
21129,note_on,2,0,0,,6,,,42,127
21230,note_off,101,0,0,,6,,,42,127
21232,note_on,2,0,0,,8,,,44,127
21333,note_off,101,0,0,,8,,,44,127
21333,note_off,0,0,0,,4,,,76,127
21333,note_off,0,0,0,,2,,,86,127
21335,note_on,2,0,0,,10,,,45,127
21335,note_on,0,0,0,,4,,,76,127
21335,note_on,0,0,0,,1,,,85,127
21436,note_off,101,0,0,,10,,,45,127
21438,note_on,2,0,0,,8,,,44,127
21539,note_off,101,0,0,,8,,,44,127
21541,note_on,2,0,0,,10,,,45,127
21642,note_off,101,0,0,,10,,,45,127
21642,note_off,0,0,0,,1,,,85,127
21642,note_off,0,0,0,,4,,,76,127
21644,note_on,2,0,0,,12,,,47,127
21644,note_on,0,0,0,,12,,,83,127
21644,note_on,0,0,0,,2,,,74,127
21745,note_off,101,0,0,,12,,,47,127
21747,note_on,2,0,0,,10,,,45,127
21848,note_off,101,0,0,,10,,,45,127
21850,note_on,2,0,0,,12,,,47,127
21951,note_off,101,0,0,,12,,,47,127
21951,note_off,0,0,0,,2,,,74,127
21951,note_off,0,0,0,,12,,,83,127
21953,note_on,2,0,0,,1,,,49,127
21953,note_on,0,0,0,,10,,,81,127
21953,note_on,0,0,0,,1,,,73,127
22054,note_off,101,0,0,,1,,,49,127
22056,note_on,2,0,0,,12,,,47,127
22157,note_off,101,0,0,,12,,,47,127
22159,note_on,2,0,0,,1,,,49,127
22260,note_off,101,0,0,,1,,,49,127
22260,note_off,0,0,0,,1,,,73,127
22260,note_off,0,0,0,,10,,,81,127
22262,note_on,2,0,0,,2,,,50,127
22262,note_on,0,0,0,,2,,,74,127
22262,note_on,0,0,0,,12,,,83,127
22363,note_off,101,0,0,,2,,,50,127
22365,note_on,2,0,0,,1,,,49,127
22466,note_off,101,0,0,,1,,,49,127
22468,note_on,2,0,0,,2,,,50,127
22569,note_off,101,0,0,,2,,,50,127
22569,note_off,0,0,0,,12,,,83,127
22569,note_off,0,0,0,,2,,,74,127
22571,note_on,2,0,0,,4,,,52,127
22571,note_on,0,0,0,,10,,,81,127
22571,note_on,0,0,0,,1,,,73,127
22877,note_off,306,0,0,,1,,,73,127
22877,note_off,0,0,0,,10,,,81,127
22879,note_on,2,0,0,,4,,,40,127
22879,note_on,0,0,0,,8,,,80,127
22879,note_on,0,0,0,,12,,,71,127
23185,note_off,306,0,0,,12,,,71,127
23185,note_off,0,0,0,,8,,,80,127
23185,note_off,0,0,0,,4,,,40,127
23185,note_off,0,0,0,,4,,,52,127
23187,note_on,2,0,0,,10,,,45,127
23187,note_on,0,0,0,,10,,,69,127
23187,note_on,0,0,0,,10,,,81,127
23493,note_off,306,0,0,,10,,,81,127
23493,note_off,0,0,0,,10,,,69,127
23493,note_off,0,0,0,,10,,,45,127
23495,note_on,2,0,0,,1,,,61,127
23495,note_on,0,0,0,,4,,,88,127
23495,note_on,0,0,0,,4,,,76,127
23596,note_off,101,0,0,,1,,,61,127
23598,note_on,2,0,0,,12,,,59,127
23699,note_off,101,0,0,,12,,,59,127
23701,note_on,2,0,0,,1,,,61,127
23802,note_off,101,0,0,,1,,,61,127
23802,note_off,0,0,0,,4,,,76,127
23802,note_off,0,0,0,,4,,,88,127
23804,note_on,2,0,0,,2,,,62,127
23804,note_on,0,0,0,,4,,,76,127
23804,note_on,0,0,0,,4,,,88,127
23905,note_off,101,0,0,,2,,,62,127
23907,note_on,2,0,0,,1,,,61,127
24008,note_off,101,0,0,,1,,,61,127
24010,note_on,2,0,0,,2,,,62,127
24111,note_off,101,0,0,,2,,,62,127
24111,note_off,0,0,0,,4,,,88,127
24111,note_off,0,0,0,,4,,,76,127
24113,note_on,2,0,0,,4,,,64,127
24113,note_on,0,0,0,,4,,,76,127
24113,note_on,0,0,0,,4,,,88,127
24419,note_off,306,0,0,,4,,,88,127
24419,note_off,0,0,0,,4,,,76,127
24419,note_off,0,0,0,,4,,,64,127
24421,note_on,2,0,0,,6,,,54,127
24421,note_on,0,0,0,,4,,,76,127
24421,note_on,0,0,0,,2,,,86,127
24522,note_off,101,0,0,,6,,,54,127
24524,note_on,2,0,0,,4,,,52,127
24625,note_off,101,0,0,,4,,,52,127
24627,note_on,2,0,0,,6,,,54,127
24728,note_off,101,0,0,,6,,,54,127
24728,note_off,0,0,0,,2,,,86,127
24728,note_off,0,0,0,,4,,,76,127
24730,note_on,2,0,0,,8,,,56,127
24730,note_on,0,0,0,,2,,,86,127
24730,note_on,0,0,0,,4,,,76,127
24831,note_off,101,0,0,,8,,,56,127
24833,note_on,2,0,0,,6,,,54,127
24934,note_off,101,0,0,,6,,,54,127
24936,note_on,2,0,0,,8,,,56,127
25037,note_off,101,0,0,,8,,,56,127
25037,note_off,0,0,0,,4,,,76,127
25037,note_off,0,0,0,,2,,,86,127
25039,note_on,2,0,0,,10,,,57,127
25039,note_on,0,0,0,,4,,,76,127
25039,note_on,0,0,0,,1,,,85,127
25345,note_off,306,0,0,,1,,,85,127
25345,note_off,0,0,0,,4,,,76,127
25345,note_off,0,0,0,,10,,,57,127
25347,note_on,2,0,0,,1,,,49,127
25347,note_on,0,0,0,,4,,,88,127
25347,note_on,0,0,0,,4,,,76,127
25448,note_off,101,0,0,,1,,,49,127
25450,note_on,2,0,0,,12,,,47,127
25551,note_off,101,0,0,,12,,,47,127
25553,note_on,2,0,0,,1,,,49,127
25654,note_off,101,0,0,,1,,,49,127
25654,note_off,0,0,0,,4,,,76,127
25654,note_off,0,0,0,,4,,,88,127
25656,note_on,2,0,0,,2,,,50,127
25656,note_on,0,0,0,,4,,,76,127
25656,note_on,0,0,0,,4,,,88,127
25757,note_off,101,0,0,,2,,,50,127
25759,note_on,2,0,0,,1,,,49,127
25860,note_off,101,0,0,,1,,,49,127
25862,note_on,2,0,0,,2,,,50,127
25963,note_off,101,0,0,,2,,,50,127
25963,note_off,0,0,0,,4,,,88,127
25963,note_off,0,0,0,,4,,,76,127
25965,note_on,2,0,0,,4,,,52,127
25965,note_on,0,0,0,,4,,,76,127
25965,note_on,0,0,0,,4,,,88,127
26271,note_off,306,0,0,,4,,,88,127
26271,note_off,0,0,0,,4,,,76,127
26271,note_off,0,0,0,,4,,,52,127
26273,note_on,2,0,0,,6,,,42,127
26273,note_on,0,0,0,,4,,,76,127
26273,note_on,0,0,0,,2,,,86,127
26374,note_off,101,0,0,,6,,,42,127
26376,note_on,2,0,0,,4,,,40,127
26477,note_off,101,0,0,,4,,,40,127
26479,note_on,2,0,0,,6,,,42,127
26580,note_off,101,0,0,,6,,,42,127
26580,note_off,0,0,0,,2,,,86,127
26580,note_off,0,0,0,,4,,,76,127
26582,note_on,2,0,0,,8,,,44,127
26582,note_on,0,0,0,,2,,,86,127
26582,note_on,0,0,0,,4,,,76,127
26683,note_off,101,0,0,,8,,,44,127
26685,note_on,2,0,0,,6,,,42,127
26786,note_off,101,0,0,,6,,,42,127
26788,note_on,2,0,0,,8,,,44,127
26889,note_off,101,0,0,,8,,,44,127
26889,note_off,0,0,0,,4,,,76,127
26889,note_off,0,0,0,,2,,,86,127
26891,note_on,2,0,0,,10,,,45,127
26891,note_on,0,0,0,,4,,,76,127
26891,note_on,0,0,0,,1,,,85,127
26992,note_off,101,0,0,,10,,,45,127
26994,note_on,2,0,0,,8,,,44,127
27095,note_off,101,0,0,,8,,,44,127
27097,note_on,2,0,0,,10,,,45,127
27198,note_off,101,0,0,,10,,,45,127
27198,note_off,0,0,0,,1,,,85,127
27198,note_off,0,0,0,,4,,,76,127
27200,note_on,2,0,0,,12,,,47,127
27200,note_on,0,0,0,,12,,,83,127
27200,note_on,0,0,0,,2,,,74,127
27301,note_off,101,0,0,,12,,,47,127
27303,note_on,2,0,0,,10,,,45,127
27404,note_off,101,0,0,,10,,,45,127
27406,note_on,2,0,0,,12,,,47,127
27507,note_off,101,0,0,,12,,,47,127
27507,note_off,0,0,0,,2,,,74,127
27507,note_off,0,0,0,,12,,,83,127
27509,note_on,2,0,0,,1,,,49,127
27509,note_on,0,0,0,,10,,,81,127
27509,note_on,0,0,0,,1,,,73,127
27610,note_off,101,0,0,,1,,,49,127
27612,note_on,2,0,0,,12,,,47,127
27713,note_off,101,0,0,,12,,,47,127
27715,note_on,2,0,0,,1,,,49,127
27816,note_off,101,0,0,,1,,,49,127
27816,note_off,0,0,0,,1,,,73,127
27816,note_off,0,0,0,,10,,,81,127
27818,note_on,2,0,0,,2,,,50,127
27818,note_on,0,0,0,,12,,,83,127
27818,note_on,0,0,0,,2,,,74,127
27919,note_off,101,0,0,,2,,,50,127
27921,note_on,2,0,0,,1,,,49,127
28022,note_off,101,0,0,,1,,,49,127
28024,note_on,2,0,0,,2,,,50,127
28125,note_off,101,0,0,,2,,,50,127
28125,note_off,0,0,0,,2,,,74,127
28125,note_off,0,0,0,,12,,,83,127
28127,note_on,2,0,0,,4,,,52,127
28127,note_on,0,0,0,,1,,,73,127
28127,note_on,0,0,0,,10,,,81,127
28433,note_off,306,0,0,,10,,,81,127
28433,note_off,0,0,0,,1,,,73,127
28435,note_on,2,0,0,,4,,,40,127
28435,note_on,0,0,0,,8,,,80,127
28435,note_on,0,0,0,,12,,,71,127
28741,note_off,306,0,0,,12,,,71,127
28741,note_off,0,0,0,,8,,,80,127
28741,note_off,0,0,0,,4,,,40,127
28741,note_off,0,0,0,,4,,,52,127
28743,note_on,2,0,0,,10,,,45,127
28743,note_on,0,0,0,,10,,,81,127
28743,note_on,0,0,0,,10,,,69,127
29049,note_off,306,0,0,,10,,,69,127
29049,note_off,0,0,0,,10,,,81,127
29049,note_off,0,0,0,,10,,,45,127
29051,note_on,2,0,0,,10,,,57,127
29051,note_on,0,0,0,,4,,,64,127
29051,note_on,0,0,0,,1,,,73,127
29152,note_off,101,0,0,,1,,,73,127
29154,note_on,2,0,0,,12,,,71,127
29255,note_off,101,0,0,,12,,,71,127
29257,note_on,2,0,0,,1,,,73,127
29358,note_off,101,0,0,,1,,,73,127
29358,note_off,0,0,0,,10,,,57,127
29360,note_on,2,0,0,,8,,,56,127
29360,note_on,0,0,0,,2,,,74,127
29666,note_off,306,0,0,,8,,,56,127
29666,note_off,0,0,0,,4,,,64,127
29668,note_on,2,0,0,,10,,,57,127
29668,note_on,0,0,0,,4,,,64,127
29974,note_off,306,0,0,,10,,,57,127
29974,note_off,0,0,0,,2,,,74,127
29976,note_on,2,0,0,,10,,,45,127
29976,note_on,0,0,0,,1,,,73,127
30282,note_off,306,0,0,,1,,,73,127
30282,note_off,0,0,0,,10,,,45,127
30284,note_on,2,0,0,,4,,,40,127
30284,note_on,0,0,0,,12,,,71,127
30590,note_off,306,0,0,,12,,,71,127
30590,note_off,0,0,0,,4,,,40,127
30592,note_on,2,0,0,,10,,,33,127
30592,note_on,0,0,0,,10,,,69,127
30898,note_off,306,0,0,,10,,,69,127
30898,note_off,0,0,0,,10,,,33,127
30898,note_off,0,0,0,,4,,,64,127
30900,note_on,2,0,0,,10,,,57,127
30900,note_on,0,0,0,,4,,,64,127
30900,note_on,0,0,0,,1,,,73,127
31001,note_off,101,0,0,,1,,,73,127
31003,note_on,2,0,0,,12,,,71,127
31104,note_off,101,0,0,,12,,,71,127
31106,note_on,2,0,0,,1,,,73,127
31207,note_off,101,0,0,,1,,,73,127
31207,note_off,0,0,0,,10,,,57,127
31209,note_on,2,0,0,,8,,,56,127
31209,note_on,0,0,0,,2,,,74,127
31515,note_off,306,0,0,,8,,,56,127
31515,note_off,0,0,0,,4,,,64,127
31517,note_on,2,0,0,,10,,,57,127
31517,note_on,0,0,0,,4,,,64,127
31823,note_off,306,0,0,,10,,,57,127
31823,note_off,0,0,0,,2,,,74,127
31825,note_on,2,0,0,,10,,,45,127
31825,note_on,0,0,0,,1,,,73,127
32131,note_off,306,0,0,,1,,,73,127
32131,note_off,0,0,0,,10,,,45,127
32133,note_on,2,0,0,,4,,,40,127
32133,note_on,0,0,0,,12,,,71,127
32439,note_off,306,0,0,,12,,,71,127
32439,note_off,0,0,0,,4,,,40,127
32439,note_off,0,0,0,,4,,,64,127
32441,note_on,2,0,0,,10,,,45,127
32441,note_on,0,0,0,,10,,,33,127
32441,note_on,0,0,0,,1,,,73,127
32542,note_off,101,0,0,,1,,,73,127
32544,note_on,2,0,0,,2,,,74,127
32645,note_off,101,0,0,,2,,,74,127
32647,note_on,2,0,0,,4,,,76,127
32748,note_off,101,0,0,,4,,,76,127
32748,note_off,0,0,0,,10,,,33,127
32748,note_off,0,0,0,,10,,,45,127
32750,note_on,2,0,0,,12,,,47,127
32750,note_on,0,0,0,,12,,,35,127
32750,note_on,0,0,0,,2,,,74,127
32851,note_off,101,0,0,,2,,,74,127
32853,note_on,2,0,0,,1,,,73,127
32954,note_off,101,0,0,,1,,,73,127
32956,note_on,2,0,0,,12,,,71,127
33057,note_off,101,0,0,,12,,,71,127
33057,note_off,0,0,0,,12,,,35,127
33057,note_off,0,0,0,,12,,,47,127
33059,note_on,2,0,0,,1,,,49,127
33059,note_on,0,0,0,,1,,,37,127
33059,note_on,0,0,0,,10,,,69,127
33365,note_off,306,0,0,,10,,,69,127
33365,note_off,0,0,0,,1,,,37,127
33365,note_off,0,0,0,,1,,,49,127
33367,note_on,2,0,0,,2,,,50,127
33367,note_on,0,0,0,,2,,,38,127
33367,note_on,0,0,0,,6,,,66,127
33673,note_off,306,0,0,,6,,,66,127
33673,note_off,0,0,0,,2,,,38,127
33673,note_off,0,0,0,,2,,,50,127
33675,note_on,2,0,0,,4,,,40,127
33675,note_on,0,0,0,,4,,,52,127
33675,note_on,0,0,0,,1,,,73,127
33752,note_on,77,0,0,,12,,,71,127
33776,note_off,24,0,0,,1,,,73,127
33829,note_on,53,0,0,,1,,,73,127
33853,note_off,24,0,0,,12,,,71,127
33906,note_on,53,0,0,,12,,,71,127
33930,note_off,24,0,0,,1,,,73,127
33981,note_off,51,0,0,,4,,,52,127
33981,note_off,0,0,0,,4,,,40,127
33983,note_on,2,0,0,,4,,,40,127
33983,note_on,0,0,0,,4,,,52,127
33983,note_on,0,0,0,,1,,,73,127
34007,note_off,24,0,0,,12,,,71,127
34060,note_on,53,0,0,,12,,,71,127
34084,note_off,24,0,0,,1,,,73,127
34137,note_on,53,0,0,,10,,,69,127
34161,note_off,24,0,0,,12,,,71,127
34214,note_on,53,0,0,,12,,,71,127
34238,note_off,24,0,0,,10,,,69,127
34289,note_off,51,0,0,,4,,,52,127
34289,note_off,0,0,0,,4,,,40,127
34291,note_on,2,0,0,,10,,,45,127
34291,note_on,0,0,0,,10,,,33,127
34291,note_on,0,0,0,,10,,,69,127
34315,note_off,24,0,0,,12,,,71,127
35211,note_off,896,0,0,,10,,,69,127
35211,note_off,0,0,0,,10,,,33,127
35211,note_off,0,0,0,,10,,,45,127
35213,note_on,2,0,0,,4,,,64,127
35213,note_on,0,0,0,,10,,,57,127
35213,note_on,0,0,0,,1,,,73,127
35314,note_off,101,0,0,,1,,,73,127
35316,note_on,2,0,0,,12,,,71,127
35417,note_off,101,0,0,,12,,,71,127
35419,note_on,2,0,0,,1,,,73,127
35520,note_off,101,0,0,,1,,,73,127
35520,note_off,0,0,0,,4,,,64,127
35522,note_on,2,0,0,,6,,,66,127
35522,note_on,0,0,0,,2,,,74,127
35828,note_off,306,0,0,,2,,,74,127
35828,note_off,0,0,0,,6,,,66,127
35830,note_on,2,0,0,,7,,,67,127
35830,note_on,0,0,0,,4,,,76,127
36136,note_off,306,0,0,,4,,,76,127
36136,note_off,0,0,0,,7,,,67,127
36136,note_off,0,0,0,,10,,,57,127
36138,note_on,2,0,0,,10,,,57,127
36138,note_on,0,0,0,,4,,,64,127
36138,note_on,0,0,0,,1,,,73,127
36239,note_off,101,0,0,,4,,,64,127
36241,note_on,2,0,0,,2,,,62,127
36342,note_off,101,0,0,,2,,,62,127
36344,note_on,2,0,0,,4,,,64,127
36445,note_off,101,0,0,,4,,,64,127
36445,note_off,0,0,0,,1,,,73,127
36447,note_on,2,0,0,,6,,,66,127
36447,note_on,0,0,0,,2,,,74,127
36753,note_off,306,0,0,,2,,,74,127
36753,note_off,0,0,0,,6,,,66,127
36755,note_on,2,0,0,,7,,,67,127
36755,note_on,0,0,0,,12,,,71,127
37061,note_off,306,0,0,,12,,,71,127
37061,note_off,0,0,0,,7,,,67,127
37061,note_off,0,0,0,,10,,,57,127
37063,note_on,2,0,0,,4,,,64,127
37063,note_on,0,0,0,,10,,,57,127
37063,note_on,0,0,0,,1,,,73,127
37369,note_off,306,0,0,,1,,,73,127
37369,note_off,0,0,0,,4,,,64,127
37371,note_on,2,0,0,,6,,,66,127
37371,note_on,0,0,0,,4,,,76,127
37448,note_on,77,0,0,,2,,,74,127
37472,note_off,24,0,0,,4,,,76,127
37525,note_on,53,0,0,,4,,,76,127
37549,note_off,24,0,0,,2,,,74,127
37602,note_on,53,0,0,,2,,,74,127
37626,note_off,24,0,0,,4,,,76,127
37677,note_off,51,0,0,,6,,,66,127
37679,note_on,2,0,0,,2,,,62,127
37679,note_on,0,0,0,,4,,,76,127
37703,note_off,24,0,0,,2,,,74,127
37756,note_on,53,0,0,,2,,,74,127
37780,note_off,24,0,0,,4,,,76,127
37833,note_on,53,0,0,,1,,,73,127
37857,note_off,24,0,0,,2,,,74,127
37910,note_on,53,0,0,,2,,,74,127
37934,note_off,24,0,0,,1,,,73,127
37985,note_off,51,0,0,,2,,,74,127
37985,note_off,0,0,0,,2,,,62,127
37985,note_off,0,0,0,,10,,,57,127
37987,note_on,2,0,0,,10,,,45,127
37987,note_on,0,0,0,,2,,,74,127
38293,note_off,306,0,0,,2,,,74,127
38295,note_on,2,0,0,,4,,,76,127
38908,note_off,613,0,0,,4,,,76,127
38908,note_off,0,0,0,,10,,,45,127
38910,note_on,2,0,0,,4,,,64,127
38910,note_on,0,0,0,,10,,,57,127
38910,note_on,0,0,0,,1,,,73,127
39011,note_off,101,0,0,,1,,,73,127
39013,note_on,2,0,0,,12,,,71,127
39114,note_off,101,0,0,,12,,,71,127
39116,note_on,2,0,0,,1,,,73,127
39217,note_off,101,0,0,,1,,,73,127
39217,note_off,0,0,0,,4,,,64,127
39219,note_on,2,0,0,,6,,,66,127
39219,note_on,0,0,0,,2,,,74,127
39525,note_off,306,0,0,,2,,,74,127
39525,note_off,0,0,0,,6,,,66,127
39527,note_on,2,0,0,,7,,,67,127
39527,note_on,0,0,0,,4,,,76,127
39833,note_off,306,0,0,,4,,,76,127
39833,note_off,0,0,0,,7,,,67,127
39833,note_off,0,0,0,,10,,,57,127
39835,note_on,2,0,0,,10,,,57,127
39835,note_on,0,0,0,,4,,,64,127
39835,note_on,0,0,0,,1,,,73,127
39936,note_off,101,0,0,,4,,,64,127
39938,note_on,2,0,0,,2,,,62,127
40039,note_off,101,0,0,,2,,,62,127
40041,note_on,2,0,0,,4,,,64,127
40142,note_off,101,0,0,,4,,,64,127
40142,note_off,0,0,0,,1,,,73,127
40144,note_on,2,0,0,,6,,,66,127
40144,note_on,0,0,0,,2,,,74,127
40450,note_off,306,0,0,,2,,,74,127
40450,note_off,0,0,0,,6,,,66,127
40452,note_on,2,0,0,,7,,,67,127
40452,note_on,0,0,0,,12,,,71,127
40758,note_off,306,0,0,,12,,,71,127
40758,note_off,0,0,0,,7,,,67,127
40758,note_off,0,0,0,,10,,,57,127
40760,note_on,2,0,0,,4,,,64,127
40760,note_on,0,0,0,,10,,,57,127
40760,note_on,0,0,0,,1,,,73,127
41066,note_off,306,0,0,,1,,,73,127
41066,note_off,0,0,0,,4,,,64,127
41068,note_on,2,0,0,,6,,,66,127
41068,note_on,0,0,0,,4,,,76,127
41145,note_on,77,0,0,,2,,,74,127
41169,note_off,24,0,0,,4,,,76,127
41222,note_on,53,0,0,,4,,,76,127
41246,note_off,24,0,0,,2,,,74,127
41299,note_on,53,0,0,,2,,,74,127
41323,note_off,24,0,0,,4,,,76,127
41374,note_off,51,0,0,,6,,,66,127
41376,note_on,2,0,0,,2,,,62,127
41376,note_on,0,0,0,,4,,,76,127
41400,note_off,24,0,0,,2,,,74,127
41453,note_on,53,0,0,,2,,,74,127
41477,note_off,24,0,0,,4,,,76,127
41530,note_on,53,0,0,,1,,,73,127
41554,note_off,24,0,0,,2,,,74,127
41607,note_on,53,0,0,,2,,,74,127
41631,note_off,24,0,0,,1,,,73,127
41682,note_off,51,0,0,,2,,,74,127
41682,note_off,0,0,0,,2,,,62,127
41682,note_off,0,0,0,,10,,,57,127
41684,note_on,2,0,0,,10,,,45,127
41684,note_on,0,0,0,,2,,,74,127
41990,note_off,306,0,0,,2,,,74,127
41992,note_on,2,0,0,,4,,,76,127
42605,note_off,613,0,0,,4,,,76,127
42605,note_off,0,0,0,,10,,,45,127
42607,note_on,2,0,0,,10,,,69,127
42607,note_on,0,0,0,,4,,,76,127
42607,note_on,0,0,0,,0,,,72,127
42708,note_off,101,0,0,,0,,,72,127
42710,note_on,2,0,0,,12,,,71,127
42811,note_off,101,0,0,,12,,,71,127
42813,note_on,2,0,0,,0,,,72,127
42914,note_off,101,0,0,,0,,,72,127
42914,note_off,0,0,0,,4,,,76,127
42914,note_off,0,0,0,,10,,,69,127
42916,note_on,2,0,0,,10,,,69,127
42916,note_on,0,0,0,,2,,,74,127
42916,note_on,0,0,0,,5,,,77,127
43222,note_off,306,0,0,,5,,,77,127
43222,note_off,0,0,0,,2,,,74,127
43222,note_off,0,0,0,,10,,,69,127
43224,note_on,2,0,0,,7,,,67,127
43224,note_on,0,0,0,,7,,,79,127
43224,note_on,0,0,0,,4,,,76,127
43530,note_off,306,0,0,,7,,,67,127
43532,note_on,2,0,0,,5,,,65,127
43838,note_off,306,0,0,,5,,,65,127
43838,note_off,0,0,0,,4,,,76,127
43838,note_off,0,0,0,,7,,,79,127
43840,note_on,2,0,0,,5,,,65,127
43840,note_on,0,0,0,,5,,,77,127
43840,note_on,0,0,0,,10,,,81,127
44146,note_off,306,0,0,,10,,,81,127
44146,note_off,0,0,0,,5,,,77,127
44146,note_off,0,0,0,,5,,,65,127
44148,note_on,2,0,0,,5,,,65,127
44148,note_on,0,0,0,,4,,,76,127
44148,note_on,0,0,0,,7,,,79,127
44454,note_off,306,0,0,,7,,,79,127
44454,note_off,0,0,0,,4,,,76,127
44454,note_off,0,0,0,,5,,,65,127
44456,note_on,2,0,0,,7,,,67,127
44456,note_on,0,0,0,,5,,,77,127
44456,note_on,0,0,0,,2,,,74,127
44762,note_off,306,0,0,,2,,,74,127
44762,note_off,0,0,0,,5,,,77,127
44762,note_off,0,0,0,,7,,,67,127
44764,note_on,2,0,0,,7,,,67,127
44764,note_on,0,0,0,,4,,,76,127
44764,note_on,0,0,0,,0,,,72,127
45070,note_off,306,0,0,,0,,,72,127
45070,note_off,0,0,0,,4,,,76,127
45070,note_off,0,0,0,,7,,,67,127
45072,note_on,2,0,0,,7,,,67,127
45072,note_on,0,0,0,,2,,,74,127
45072,note_on,0,0,0,,12,,,71,127
45378,note_off,306,0,0,,12,,,71,127
45378,note_off,0,0,0,,2,,,74,127
45378,note_off,0,0,0,,7,,,67,127
45380,note_on,2,0,0,,0,,,60,127
45380,note_on,0,0,0,,12,,,71,127
45380,note_on,0,0,0,,2,,,74,127
45686,note_off,306,0,0,,0,,,60,127
45688,note_on,2,0,0,,0,,,60,127
45994,note_off,306,0,0,,0,,,60,127
45994,note_off,0,0,0,,2,,,74,127
45994,note_off,0,0,0,,12,,,71,127
45996,note_on,2,0,0,,0,,,60,127
45996,note_on,0,0,0,,0,,,72,127
45996,note_on,0,0,0,,4,,,76,127
46302,note_off,306,0,0,,4,,,76,127
46302,note_off,0,0,0,,0,,,72,127
46302,note_off,0,0,0,,0,,,60,127
46304,note_on,2,0,0,,5,,,65,127
46304,note_on,0,0,0,,0,,,72,127
46304,note_on,0,0,0,,10,,,69,127
46405,note_off,101,0,0,,10,,,69,127
46407,note_on,2,0,0,,8,,,68,127
46508,note_off,101,0,0,,8,,,68,127
46510,note_on,2,0,0,,10,,,69,127
46611,note_off,101,0,0,,10,,,69,127
46611,note_off,0,0,0,,0,,,72,127
46611,note_off,0,0,0,,5,,,65,127
46613,note_on,2,0,0,,5,,,65,127
46613,note_on,0,0,0,,12,,,71,127
46613,note_on,0,0,0,,7,,,67,127
46919,note_off,306,0,0,,7,,,67,127
46919,note_off,0,0,0,,12,,,71,127
46919,note_off,0,0,0,,5,,,65,127
46921,note_on,2,0,0,,4,,,64,127
46921,note_on,0,0,0,,10,,,69,127
46921,note_on,0,0,0,,0,,,72,127
47227,note_off,306,0,0,,4,,,64,127
47229,note_on,2,0,0,,2,,,62,127
47535,note_off,306,0,0,,2,,,62,127
47535,note_off,0,0,0,,0,,,72,127
47535,note_off,0,0,0,,10,,,69,127
47537,note_on,2,0,0,,2,,,62,127
47537,note_on,0,0,0,,2,,,74,127
47537,note_on,0,0,0,,12,,,71,127
47843,note_off,306,0,0,,12,,,71,127
47843,note_off,0,0,0,,2,,,74,127
47843,note_off,0,0,0,,2,,,62,127
47845,note_on,2,0,0,,10,,,57,127
47845,note_on,0,0,0,,4,,,76,127
47845,note_on,0,0,0,,0,,,72,127
48151,note_off,306,0,0,,0,,,72,127
48151,note_off,0,0,0,,4,,,76,127
48151,note_off,0,0,0,,10,,,57,127
48153,note_on,2,0,0,,4,,,64,127
48153,note_on,0,0,0,,12,,,71,127
48153,note_on,0,0,0,,2,,,74,127
48459,note_off,306,0,0,,2,,,74,127
48459,note_off,0,0,0,,12,,,71,127
48459,note_off,0,0,0,,4,,,64,127
48461,note_on,2,0,0,,4,,,64,127
48461,note_on,0,0,0,,0,,,72,127
48461,note_on,0,0,0,,10,,,69,127
48767,note_off,306,0,0,,10,,,69,127
48767,note_off,0,0,0,,0,,,72,127
48767,note_off,0,0,0,,4,,,64,127
48769,note_on,2,0,0,,4,,,64,127
48769,note_on,0,0,0,,8,,,68,127
48769,note_on,0,0,0,,12,,,71,127
49075,note_off,306,0,0,,12,,,71,127
49075,note_off,0,0,0,,8,,,68,127
49075,note_off,0,0,0,,4,,,64,127
49077,note_on,2,0,0,,10,,,57,127
49077,note_on,0,0,0,,8,,,68,127
49077,note_on,0,0,0,,12,,,71,127
49383,note_off,306,0,0,,10,,,57,127
49385,note_on,2,0,0,,10,,,57,127
49691,note_off,306,0,0,,10,,,57,127
49691,note_off,0,0,0,,12,,,71,127
49691,note_off,0,0,0,,8,,,68,127
49693,note_on,2,0,0,,10,,,57,127
49693,note_on,0,0,0,,10,,,69,127
49999,note_off,306,0,0,,10,,,69,127
49999,note_off,0,0,0,,10,,,57,127
50001,note_on,2,0,0,,10,,,69,127
50001,note_on,0,0,0,,0,,,72,127
50001,note_on,0,0,0,,4,,,76,127
50102,note_off,101,0,0,,0,,,72,127
50104,note_on,2,0,0,,12,,,71,127
50205,note_off,101,0,0,,12,,,71,127
50207,note_on,2,0,0,,0,,,72,127
50308,note_off,101,0,0,,0,,,72,127
50308,note_off,0,0,0,,4,,,76,127
50308,note_off,0,0,0,,10,,,69,127
50310,note_on,2,0,0,,10,,,69,127
50310,note_on,0,0,0,,2,,,74,127
50310,note_on,0,0,0,,5,,,77,127
50616,note_off,306,0,0,,5,,,77,127
50616,note_off,0,0,0,,2,,,74,127
50616,note_off,0,0,0,,10,,,69,127
50618,note_on,2,0,0,,7,,,67,127
50618,note_on,0,0,0,,7,,,79,127
50618,note_on,0,0,0,,4,,,76,127
50924,note_off,306,0,0,,7,,,67,127
50926,note_on,2,0,0,,5,,,65,127
51232,note_off,306,0,0,,5,,,65,127
51232,note_off,0,0,0,,4,,,76,127
51232,note_off,0,0,0,,7,,,79,127
51234,note_on,2,0,0,,5,,,65,127
51234,note_on,0,0,0,,5,,,77,127
51234,note_on,0,0,0,,10,,,81,127
51540,note_off,306,0,0,,10,,,81,127
51540,note_off,0,0,0,,5,,,77,127
51540,note_off,0,0,0,,5,,,65,127
51542,note_on,2,0,0,,5,,,65,127
51542,note_on,0,0,0,,4,,,76,127
51542,note_on,0,0,0,,7,,,79,127
51848,note_off,306,0,0,,7,,,79,127
51848,note_off,0,0,0,,4,,,76,127
51848,note_off,0,0,0,,5,,,65,127
51850,note_on,2,0,0,,7,,,67,127
51850,note_on,0,0,0,,5,,,77,127
51850,note_on,0,0,0,,2,,,74,127
52156,note_off,306,0,0,,2,,,74,127
52156,note_off,0,0,0,,5,,,77,127
52156,note_off,0,0,0,,7,,,67,127
52158,note_on,2,0,0,,7,,,67,127
52158,note_on,0,0,0,,4,,,76,127
52158,note_on,0,0,0,,0,,,72,127
52464,note_off,306,0,0,,0,,,72,127
52464,note_off,0,0,0,,4,,,76,127
52464,note_off,0,0,0,,7,,,67,127
52466,note_on,2,0,0,,7,,,67,127
52466,note_on,0,0,0,,12,,,71,127
52466,note_on,0,0,0,,2,,,74,127
52772,note_off,306,0,0,,2,,,74,127
52772,note_off,0,0,0,,12,,,71,127
52772,note_off,0,0,0,,7,,,67,127
52774,note_on,2,0,0,,0,,,60,127
52774,note_on,0,0,0,,2,,,74,127
52774,note_on,0,0,0,,12,,,71,127
53080,note_off,306,0,0,,0,,,60,127
53082,note_on,2,0,0,,0,,,60,127
53388,note_off,306,0,0,,0,,,60,127
53388,note_off,0,0,0,,12,,,71,127
53388,note_off,0,0,0,,2,,,74,127
53390,note_on,2,0,0,,0,,,60,127
53390,note_on,0,0,0,,4,,,76,127
53390,note_on,0,0,0,,0,,,72,127
53696,note_off,306,0,0,,0,,,72,127
53696,note_off,0,0,0,,4,,,76,127
53696,note_off,0,0,0,,0,,,60,127
53698,note_on,2,0,0,,0,,,60,127
53698,note_on,0,0,0,,4,,,76,127
53698,note_on,0,0,0,,0,,,72,127
53799,note_off,101,0,0,,4,,,76,127
53801,note_on,2,0,0,,3,,,75,127
53902,note_off,101,0,0,,3,,,75,127
53904,note_on,2,0,0,,4,,,76,127
54005,note_off,101,0,0,,4,,,76,127
54005,note_off,0,0,0,,0,,,72,127
54005,note_off,0,0,0,,0,,,60,127
54007,note_on,2,0,0,,0,,,60,127
54007,note_on,0,0,0,,3,,,75,127
54007,note_on,0,0,0,,6,,,78,127
54313,note_off,306,0,0,,6,,,78,127
54313,note_off,0,0,0,,3,,,75,127
54313,note_off,0,0,0,,0,,,60,127
54315,note_on,2,0,0,,12,,,59,127
54315,note_on,0,0,0,,7,,,79,127
54315,note_on,0,0,0,,4,,,76,127
54621,note_off,306,0,0,,12,,,59,127
54623,note_on,2,0,0,,10,,,57,127
54929,note_off,306,0,0,,10,,,57,127
54929,note_off,0,0,0,,4,,,76,127
54929,note_off,0,0,0,,7,,,79,127
54931,note_on,2,0,0,,10,,,57,127
54931,note_on,0,0,0,,10,,,81,127
54931,note_on,0,0,0,,6,,,78,127
55237,note_off,306,0,0,,6,,,78,127
55237,note_off,0,0,0,,10,,,81,127
55237,note_off,0,0,0,,10,,,57,127
55239,note_on,2,0,0,,10,,,57,127
55239,note_on,0,0,0,,12,,,83,127
55239,note_on,0,0,0,,7,,,79,127
55545,note_off,306,0,0,,7,,,79,127
55545,note_off,0,0,0,,12,,,83,127
55545,note_off,0,0,0,,10,,,57,127
55547,note_on,2,0,0,,12,,,59,127
55547,note_on,0,0,0,,10,,,81,127
55547,note_on,0,0,0,,6,,,78,127
55853,note_off,306,0,0,,6,,,78,127
55853,note_off,0,0,0,,10,,,81,127
55853,note_off,0,0,0,,12,,,59,127
55855,note_on,2,0,0,,12,,,59,127
55855,note_on,0,0,0,,7,,,79,127
55855,note_on,0,0,0,,4,,,76,127
56161,note_off,306,0,0,,4,,,76,127
56161,note_off,0,0,0,,7,,,79,127
56161,note_off,0,0,0,,12,,,59,127
56163,note_on,2,0,0,,12,,,59,127
56163,note_on,0,0,0,,3,,,75,127
56163,note_on,0,0,0,,6,,,78,127
56469,note_off,306,0,0,,6,,,78,127
56469,note_off,0,0,0,,3,,,75,127
56469,note_off,0,0,0,,12,,,59,127
56471,note_on,2,0,0,,4,,,52,127
56471,note_on,0,0,0,,4,,,76,127
56572,note_off,101,0,0,,4,,,76,127
56574,note_on,2,0,0,,3,,,75,127
56675,note_off,101,0,0,,3,,,75,127
56677,note_on,2,0,0,,4,,,76,127
56778,note_off,101,0,0,,4,,,76,127
56778,note_off,0,0,0,,4,,,52,127
56780,note_on,2,0,0,,4,,,64,127
56780,note_on,0,0,0,,6,,,78,127
56881,note_off,101,0,0,,6,,,78,127
56883,note_on,2,0,0,,4,,,76,127
56984,note_off,101,0,0,,4,,,76,127
56986,note_on,2,0,0,,6,,,78,127
57087,note_off,101,0,0,,6,,,78,127
57087,note_off,0,0,0,,4,,,64,127
57089,note_on,2,0,0,,2,,,62,127
57089,note_on,0,0,0,,7,,,79,127
57395,note_off,306,0,0,,2,,,62,127
57397,note_on,2,0,0,,1,,,61,127
57397,note_on,0,0,0,,10,,,69,127
57703,note_off,306,0,0,,1,,,61,127
57703,note_off,0,0,0,,7,,,79,127
57705,note_on,2,0,0,,2,,,62,127
57705,note_on,0,0,0,,6,,,78,127
58011,note_off,306,0,0,,6,,,78,127
58011,note_off,0,0,0,,2,,,62,127
58013,note_on,2,0,0,,4,,,64,127
58013,note_on,0,0,0,,4,,,76,127
58319,note_off,306,0,0,,4,,,76,127
58319,note_off,0,0,0,,4,,,64,127
58319,note_off,0,0,0,,10,,,69,127
58321,note_on,2,0,0,,6,,,66,127
58321,note_on,0,0,0,,2,,,74,127
58422,note_off,101,0,0,,2,,,74,127
58424,note_on,2,0,0,,1,,,73,127
58525,note_off,101,0,0,,1,,,73,127
58527,note_on,2,0,0,,2,,,74,127
58628,note_off,101,0,0,,2,,,74,127
58628,note_off,0,0,0,,6,,,66,127
58630,note_on,2,0,0,,4,,,64,127
58630,note_on,0,0,0,,4,,,76,127
58731,note_off,101,0,0,,4,,,76,127
58733,note_on,2,0,0,,2,,,74,127
58834,note_off,101,0,0,,2,,,74,127
58836,note_on,2,0,0,,4,,,76,127
58937,note_off,101,0,0,,4,,,76,127
58937,note_off,0,0,0,,4,,,64,127
58939,note_on,2,0,0,,2,,,62,127
58939,note_on,0,0,0,,6,,,78,127
59245,note_off,306,0,0,,2,,,62,127
59247,note_on,2,0,0,,7,,,55,127
59247,note_on,0,0,0,,12,,,71,127
59553,note_off,306,0,0,,7,,,55,127
59553,note_off,0,0,0,,6,,,78,127
59555,note_on,2,0,0,,7,,,67,127
59555,note_on,0,0,0,,4,,,76,127
59861,note_off,306,0,0,,4,,,76,127
59861,note_off,0,0,0,,7,,,67,127
59863,note_on,2,0,0,,6,,,66,127
59863,note_on,0,0,0,,2,,,74,127
60169,note_off,306,0,0,,2,,,74,127
60169,note_off,0,0,0,,6,,,66,127
60169,note_off,0,0,0,,12,,,71,127
60171,note_on,2,0,0,,4,,,64,127
60171,note_on,0,0,0,,7,,,67,127
60477,note_off,306,0,0,,7,,,67,127
60477,note_off,0,0,0,,4,,,64,127
60479,note_on,2,0,0,,4,,,64,127
60479,note_on,0,0,0,,1,,,73,127
60479,note_on,0,0,0,,7,,,79,127
60785,note_off,306,0,0,,7,,,79,127
60785,note_off,0,0,0,,1,,,73,127
60785,note_off,0,0,0,,4,,,64,127
60787,note_on,2,0,0,,2,,,62,127
60787,note_on,0,0,0,,6,,,78,127
60787,note_on,0,0,0,,2,,,74,127
61093,note_off,306,0,0,,2,,,74,127
61093,note_off,0,0,0,,6,,,78,127
61093,note_off,0,0,0,,2,,,62,127
61095,note_on,2,0,0,,7,,,55,127
61095,note_on,0,0,0,,12,,,71,127
61401,note_off,306,0,0,,12,,,71,127
61401,note_off,0,0,0,,7,,,55,127
61403,note_on,2,0,0,,7,,,55,127
61403,note_on,0,0,0,,12,,,83,127
61709,note_off,306,0,0,,12,,,83,127
61709,note_off,0,0,0,,7,,,55,127
61711,note_on,2,0,0,,7,,,55,127
61711,note_on,0,0,0,,2,,,74,127
62017,note_off,306,0,0,,2,,,74,127
62017,note_off,0,0,0,,7,,,55,127
62019,note_on,2,0,0,,10,,,57,127
62019,note_on,0,0,0,,1,,,73,127
62325,note_off,306,0,0,,1,,,73,127
62325,note_off,0,0,0,,10,,,57,127
62327,note_on,2,0,0,,6,,,54,127
62327,note_on,0,0,0,,4,,,76,127
62404,note_on,77,0,0,,2,,,74,127
62428,note_off,24,0,0,,4,,,76,127
62481,note_on,53,0,0,,4,,,76,127
62505,note_off,24,0,0,,2,,,74,127
62558,note_on,53,0,0,,2,,,74,127
62582,note_off,24,0,0,,4,,,76,127
62633,note_off,51,0,0,,6,,,54,127
62635,note_on,2,0,0,,2,,,50,127
62635,note_on,0,0,0,,4,,,76,127
62659,note_off,24,0,0,,2,,,74,127
62712,note_on,53,0,0,,2,,,74,127
62736,note_off,24,0,0,,4,,,76,127
62789,note_on,53,0,0,,1,,,73,127
62813,note_off,24,0,0,,2,,,74,127
62866,note_on,53,0,0,,2,,,74,127
62890,note_off,24,0,0,,1,,,73,127
62941,note_off,51,0,0,,2,,,74,127
62941,note_off,0,0,0,,2,,,50,127
62943,note_on,2,0,0,,10,,,45,127
62943,note_on,0,0,0,,2,,,74,127
63249,note_off,306,0,0,,2,,,74,127
63251,note_on,2,0,0,,4,,,76,127
63864,note_off,613,0,0,,4,,,76,127
63864,note_off,0,0,0,,10,,,45,127
63866,note_on,2,0,0,,10,,,69,127
64172,note_off,306,0,0,,10,,,69,127
64174,note_on,2,0,0,,6,,,66,127
64174,note_on,0,0,0,,10,,,69,127
64174,note_on,0,0,0,,10,,,81,127
64275,note_off,101,0,0,,6,,,66,127
64277,note_on,2,0,0,,4,,,64,127
64378,note_off,101,0,0,,4,,,64,127
64380,note_on,2,0,0,,6,,,66,127
64481,note_off,101,0,0,,6,,,66,127
64481,note_off,0,0,0,,10,,,81,127
64481,note_off,0,0,0,,10,,,69,127
64483,note_on,2,0,0,,7,,,67,127
64483,note_on,0,0,0,,10,,,81,127
64483,note_on,0,0,0,,12,,,71,127
64584,note_off,101,0,0,,7,,,67,127
64586,note_on,2,0,0,,6,,,66,127
64687,note_off,101,0,0,,6,,,66,127
64689,note_on,2,0,0,,7,,,67,127
64790,note_off,101,0,0,,7,,,67,127
64790,note_off,0,0,0,,12,,,71,127
64790,note_off,0,0,0,,10,,,81,127
64792,note_on,2,0,0,,10,,,69,127
64792,note_on,0,0,0,,10,,,81,127
64792,note_on,0,0,0,,1,,,73,127
65098,note_off,306,0,0,,1,,,73,127
65098,note_off,0,0,0,,10,,,81,127
65098,note_off,0,0,0,,10,,,69,127
65100,note_on,2,0,0,,12,,,59,127
65100,note_on,0,0,0,,10,,,81,127
65100,note_on,0,0,0,,7,,,79,127
65201,note_off,101,0,0,,12,,,59,127
65203,note_on,2,0,0,,10,,,57,127
65304,note_off,101,0,0,,10,,,57,127
65306,note_on,2,0,0,,12,,,59,127
65407,note_off,101,0,0,,12,,,59,127
65407,note_off,0,0,0,,7,,,79,127
65407,note_off,0,0,0,,10,,,81,127
65409,note_on,2,0,0,,1,,,61,127
65409,note_on,0,0,0,,7,,,79,127
65409,note_on,0,0,0,,10,,,81,127
65510,note_off,101,0,0,,1,,,61,127
65512,note_on,2,0,0,,12,,,59,127
65613,note_off,101,0,0,,12,,,59,127
65615,note_on,2,0,0,,1,,,61,127
65716,note_off,101,0,0,,1,,,61,127
65716,note_off,0,0,0,,10,,,81,127
65716,note_off,0,0,0,,7,,,79,127
65718,note_on,2,0,0,,2,,,62,127
65718,note_on,0,0,0,,6,,,78,127
65718,note_on,0,0,0,,10,,,81,127
66024,note_off,306,0,0,,10,,,81,127
66024,note_off,0,0,0,,6,,,78,127
66024,note_off,0,0,0,,2,,,62,127
66026,note_on,2,0,0,,6,,,54,127
66026,note_on,0,0,0,,10,,,81,127
66026,note_on,0,0,0,,10,,,69,127
66127,note_off,101,0,0,,6,,,54,127
66129,note_on,2,0,0,,4,,,52,127
66230,note_off,101,0,0,,4,,,52,127
66232,note_on,2,0,0,,6,,,54,127
66333,note_off,101,0,0,,6,,,54,127
66333,note_off,0,0,0,,10,,,69,127
66333,note_off,0,0,0,,10,,,81,127
66335,note_on,2,0,0,,7,,,55,127
66335,note_on,0,0,0,,10,,,81,127
66335,note_on,0,0,0,,12,,,71,127
66436,note_off,101,0,0,,7,,,55,127
66438,note_on,2,0,0,,6,,,54,127
66539,note_off,101,0,0,,6,,,54,127
66541,note_on,2,0,0,,7,,,55,127
66642,note_off,101,0,0,,7,,,55,127
66642,note_off,0,0,0,,12,,,71,127
66642,note_off,0,0,0,,10,,,81,127
66644,note_on,2,0,0,,10,,,57,127
66644,note_on,0,0,0,,1,,,73,127
66644,note_on,0,0,0,,10,,,81,127
66950,note_off,306,0,0,,10,,,81,127
66950,note_off,0,0,0,,1,,,73,127
66950,note_off,0,0,0,,10,,,57,127
66952,note_on,2,0,0,,12,,,47,127
66952,note_on,0,0,0,,7,,,79,127
66952,note_on,0,0,0,,10,,,81,127
67053,note_off,101,0,0,,12,,,47,127
67055,note_on,2,0,0,,10,,,45,127
67156,note_off,101,0,0,,10,,,45,127
67158,note_on,2,0,0,,12,,,47,127
67259,note_off,101,0,0,,12,,,47,127
67259,note_off,0,0,0,,10,,,81,127
67259,note_off,0,0,0,,7,,,79,127
67261,note_on,2,0,0,,1,,,49,127
67261,note_on,0,0,0,,7,,,79,127
67261,note_on,0,0,0,,10,,,81,127
67362,note_off,101,0,0,,1,,,49,127
67364,note_on,2,0,0,,12,,,47,127
67465,note_off,101,0,0,,12,,,47,127
67467,note_on,2,0,0,,1,,,49,127
67568,note_off,101,0,0,,1,,,49,127
67568,note_off,0,0,0,,10,,,81,127
67568,note_off,0,0,0,,7,,,79,127
67570,note_on,2,0,0,,2,,,50,127
67570,note_on,0,0,0,,6,,,78,127
67570,note_on,0,0,0,,10,,,81,127
67671,note_off,101,0,0,,2,,,50,127
67673,note_on,2,0,0,,1,,,49,127
67774,note_off,101,0,0,,1,,,49,127
67776,note_on,2,0,0,,2,,,50,127
67877,note_off,101,0,0,,2,,,50,127
67877,note_off,0,0,0,,10,,,81,127
67877,note_off,0,0,0,,6,,,78,127
67879,note_on,2,0,0,,4,,,52,127
67879,note_on,0,0,0,,7,,,79,127
67879,note_on,0,0,0,,4,,,76,127
67980,note_off,101,0,0,,4,,,52,127
67982,note_on,2,0,0,,2,,,50,127
68083,note_off,101,0,0,,2,,,50,127
68085,note_on,2,0,0,,4,,,52,127
68186,note_off,101,0,0,,4,,,52,127
68186,note_off,0,0,0,,4,,,76,127
68186,note_off,0,0,0,,7,,,79,127
68188,note_on,2,0,0,,6,,,54,127
68188,note_on,0,0,0,,6,,,78,127
68188,note_on,0,0,0,,2,,,74,127
68289,note_off,101,0,0,,6,,,54,127
68291,note_on,2,0,0,,4,,,52,127
68392,note_off,101,0,0,,4,,,52,127
68394,note_on,2,0,0,,6,,,54,127
68495,note_off,101,0,0,,6,,,54,127
68495,note_off,0,0,0,,2,,,74,127
68495,note_off,0,0,0,,6,,,78,127
68497,note_on,2,0,0,,7,,,55,127
68497,note_on,0,0,0,,4,,,76,127
68497,note_on,0,0,0,,7,,,67,127
68598,note_off,101,0,0,,7,,,55,127
68600,note_on,2,0,0,,6,,,54,127
68701,note_off,101,0,0,,6,,,54,127
68703,note_on,2,0,0,,7,,,55,127
68804,note_off,101,0,0,,7,,,55,127
68804,note_off,0,0,0,,7,,,67,127
68804,note_off,0,0,0,,4,,,76,127
68806,note_on,2,0,0,,10,,,57,127
68806,note_on,0,0,0,,2,,,74,127
68806,note_on,0,0,0,,6,,,66,127
69112,note_off,306,0,0,,6,,,66,127
69112,note_off,0,0,0,,2,,,74,127
69114,note_on,2,0,0,,10,,,45,127
69114,note_on,0,0,0,,4,,,64,127
69114,note_on,0,0,0,,1,,,73,127
69420,note_off,306,0,0,,1,,,73,127
69420,note_off,0,0,0,,4,,,64,127
69420,note_off,0,0,0,,10,,,45,127
69420,note_off,0,0,0,,10,,,57,127
69422,note_on,2,0,0,,2,,,50,127
69422,note_on,0,0,0,,2,,,74,127
69728,note_off,306,0,0,,2,,,74,127
69728,note_off,0,0,0,,2,,,50,127
69730,note_on,2,0,0,,6,,,66,127
69730,note_on,0,0,0,,10,,,81,127
69730,note_on,0,0,0,,10,,,69,127
69831,note_off,101,0,0,,6,,,66,127
69833,note_on,2,0,0,,4,,,64,127
69934,note_off,101,0,0,,4,,,64,127
69936,note_on,2,0,0,,6,,,66,127
70037,note_off,101,0,0,,6,,,66,127
70037,note_off,0,0,0,,10,,,69,127
70037,note_off,0,0,0,,10,,,81,127
70039,note_on,2,0,0,,7,,,67,127
70039,note_on,0,0,0,,10,,,81,127
70039,note_on,0,0,0,,12,,,71,127
70140,note_off,101,0,0,,7,,,67,127
70142,note_on,2,0,0,,6,,,66,127
70243,note_off,101,0,0,,6,,,66,127
70245,note_on,2,0,0,,7,,,67,127
70346,note_off,101,0,0,,7,,,67,127
70346,note_off,0,0,0,,12,,,71,127
70346,note_off,0,0,0,,10,,,81,127
70348,note_on,2,0,0,,10,,,69,127
70348,note_on,0,0,0,,1,,,73,127
70348,note_on,0,0,0,,10,,,81,127
70654,note_off,306,0,0,,10,,,81,127
70654,note_off,0,0,0,,1,,,73,127
70654,note_off,0,0,0,,10,,,69,127
70656,note_on,2,0,0,,12,,,59,127
70656,note_on,0,0,0,,10,,,81,127
70656,note_on,0,0,0,,7,,,79,127
70757,note_off,101,0,0,,12,,,59,127
70759,note_on,2,0,0,,10,,,57,127
70860,note_off,101,0,0,,10,,,57,127
70862,note_on,2,0,0,,12,,,59,127
70963,note_off,101,0,0,,12,,,59,127
70963,note_off,0,0,0,,7,,,79,127
70963,note_off,0,0,0,,10,,,81,127
70965,note_on,2,0,0,,1,,,61,127
70965,note_on,0,0,0,,10,,,81,127
70965,note_on,0,0,0,,7,,,79,127
71066,note_off,101,0,0,,1,,,61,127
71068,note_on,2,0,0,,12,,,59,127
71169,note_off,101,0,0,,12,,,59,127
71171,note_on,2,0,0,,1,,,61,127
71272,note_off,101,0,0,,1,,,61,127
71272,note_off,0,0,0,,7,,,79,127
71272,note_off,0,0,0,,10,,,81,127
71274,note_on,2,0,0,,2,,,62,127
71274,note_on,0,0,0,,10,,,81,127
71274,note_on,0,0,0,,6,,,78,127
71580,note_off,306,0,0,,6,,,78,127
71580,note_off,0,0,0,,10,,,81,127
71580,note_off,0,0,0,,2,,,62,127
71582,note_on,2,0,0,,6,,,54,127
71582,note_on,0,0,0,,10,,,69,127
71582,note_on,0,0,0,,10,,,81,127
71683,note_off,101,0,0,,6,,,54,127
71685,note_on,2,0,0,,4,,,52,127
71786,note_off,101,0,0,,4,,,52,127
71788,note_on,2,0,0,,6,,,54,127
71889,note_off,101,0,0,,6,,,54,127
71889,note_off,0,0,0,,10,,,81,127
71889,note_off,0,0,0,,10,,,69,127
71891,note_on,2,0,0,,7,,,55,127
71891,note_on,0,0,0,,10,,,81,127
71891,note_on,0,0,0,,12,,,71,127
71992,note_off,101,0,0,,7,,,55,127
71994,note_on,2,0,0,,6,,,54,127
72095,note_off,101,0,0,,6,,,54,127
72097,note_on,2,0,0,,7,,,55,127
72198,note_off,101,0,0,,7,,,55,127
72198,note_off,0,0,0,,12,,,71,127
72198,note_off,0,0,0,,10,,,81,127
72200,note_on,2,0,0,,10,,,57,127
72200,note_on,0,0,0,,1,,,73,127
72200,note_on,0,0,0,,10,,,81,127
72506,note_off,306,0,0,,10,,,81,127
72506,note_off,0,0,0,,1,,,73,127
72506,note_off,0,0,0,,10,,,57,127
72508,note_on,2,0,0,,12,,,47,127
72508,note_on,0,0,0,,10,,,81,127
72508,note_on,0,0,0,,7,,,79,127
72609,note_off,101,0,0,,12,,,47,127
72611,note_on,2,0,0,,10,,,45,127
72712,note_off,101,0,0,,10,,,45,127
72714,note_on,2,0,0,,12,,,47,127
72815,note_off,101,0,0,,12,,,47,127
72815,note_off,0,0,0,,7,,,79,127
72815,note_off,0,0,0,,10,,,81,127
72817,note_on,2,0,0,,1,,,49,127
72817,note_on,0,0,0,,10,,,81,127
72817,note_on,0,0,0,,7,,,79,127
72918,note_off,101,0,0,,1,,,49,127
72920,note_on,2,0,0,,12,,,47,127
73021,note_off,101,0,0,,12,,,47,127
73023,note_on,2,0,0,,1,,,49,127
73124,note_off,101,0,0,,1,,,49,127
73124,note_off,0,0,0,,7,,,79,127
73124,note_off,0,0,0,,10,,,81,127
73126,note_on,2,0,0,,2,,,50,127
73126,note_on,0,0,0,,10,,,81,127
73126,note_on,0,0,0,,6,,,78,127
73227,note_off,101,0,0,,2,,,50,127
73229,note_on,2,0,0,,1,,,49,127
73330,note_off,101,0,0,,1,,,49,127
73332,note_on,2,0,0,,2,,,50,127
73433,note_off,101,0,0,,2,,,50,127
73433,note_off,0,0,0,,6,,,78,127
73433,note_off,0,0,0,,10,,,81,127
73435,note_on,2,0,0,,4,,,52,127
73435,note_on,0,0,0,,7,,,79,127
73435,note_on,0,0,0,,4,,,76,127
73536,note_off,101,0,0,,4,,,52,127
73538,note_on,2,0,0,,2,,,50,127
73639,note_off,101,0,0,,2,,,50,127
73641,note_on,2,0,0,,4,,,52,127
73742,note_off,101,0,0,,4,,,52,127
73742,note_off,0,0,0,,4,,,76,127
73742,note_off,0,0,0,,7,,,79,127
73744,note_on,2,0,0,,6,,,54,127
73744,note_on,0,0,0,,6,,,78,127
73744,note_on,0,0,0,,2,,,74,127
73845,note_off,101,0,0,,6,,,54,127
73847,note_on,2,0,0,,4,,,52,127
73948,note_off,101,0,0,,4,,,52,127
73950,note_on,2,0,0,,6,,,54,127
74051,note_off,101,0,0,,6,,,54,127
74051,note_off,0,0,0,,2,,,74,127
74051,note_off,0,0,0,,6,,,78,127
74053,note_on,2,0,0,,7,,,55,127
74053,note_on,0,0,0,,4,,,76,127
74053,note_on,0,0,0,,7,,,67,127
74154,note_off,101,0,0,,7,,,55,127
74156,note_on,2,0,0,,6,,,54,127
74257,note_off,101,0,0,,6,,,54,127
74259,note_on,2,0,0,,7,,,55,127
74360,note_off,101,0,0,,7,,,55,127
74360,note_off,0,0,0,,7,,,67,127
74360,note_off,0,0,0,,4,,,76,127
74362,note_on,2,0,0,,10,,,57,127
74362,note_on,0,0,0,,2,,,74,127
74362,note_on,0,0,0,,6,,,66,127
74668,note_off,306,0,0,,6,,,66,127
74668,note_off,0,0,0,,2,,,74,127
74670,note_on,2,0,0,,10,,,45,127
74670,note_on,0,0,0,,1,,,73,127
74670,note_on,0,0,0,,4,,,64,127
74976,note_off,306,0,0,,4,,,64,127
74976,note_off,0,0,0,,1,,,73,127
74976,note_off,0,0,0,,10,,,45,127
74976,note_off,0,0,0,,10,,,57,127
74978,note_on,2,0,0,,2,,,50,127
74978,note_on,0,0,0,,2,,,74,127
75284,note_off,306,0,0,,2,,,74,127
75284,note_off,0,0,0,,2,,,50,127
75286,note_on,2,0,0,,2,,,62,127
75286,note_on,0,0,0,,10,,,69,127
75286,note_on,0,0,0,,6,,,78,127
75387,note_off,101,0,0,,6,,,78,127
75389,note_on,2,0,0,,4,,,76,127
75490,note_off,101,0,0,,4,,,76,127
75492,note_on,2,0,0,,6,,,78,127
75593,note_off,101,0,0,,6,,,78,127
75593,note_off,0,0,0,,2,,,62,127
75595,note_on,2,0,0,,1,,,61,127
75595,note_on,0,0,0,,7,,,79,127
75901,note_off,306,0,0,,1,,,61,127
75901,note_off,0,0,0,,10,,,69,127
75903,note_on,2,0,0,,2,,,62,127
75903,note_on,0,0,0,,10,,,69,127
76209,note_off,306,0,0,,2,,,62,127
76209,note_off,0,0,0,,7,,,79,127
76211,note_on,2,0,0,,2,,,50,127
76211,note_on,0,0,0,,6,,,78,127
76517,note_off,306,0,0,,6,,,78,127
76517,note_off,0,0,0,,2,,,50,127
76519,note_on,2,0,0,,10,,,45,127
76519,note_on,0,0,0,,4,,,76,127
76825,note_off,306,0,0,,4,,,76,127
76825,note_off,0,0,0,,10,,,45,127
76827,note_on,2,0,0,,2,,,38,127
76827,note_on,0,0,0,,2,,,74,127
77133,note_off,306,0,0,,2,,,74,127
77133,note_off,0,0,0,,2,,,38,127
77133,note_off,0,0,0,,10,,,69,127
77135,note_on,2,0,0,,2,,,62,127
77135,note_on,0,0,0,,6,,,78,127
77135,note_on,0,0,0,,10,,,69,127
77236,note_off,101,0,0,,6,,,78,127
77238,note_on,2,0,0,,4,,,76,127
77339,note_off,101,0,0,,4,,,76,127
77341,note_on,2,0,0,,6,,,78,127
77442,note_off,101,0,0,,6,,,78,127
77442,note_off,0,0,0,,2,,,62,127
77444,note_on,2,0,0,,1,,,61,127
77444,note_on,0,0,0,,7,,,79,127
77750,note_off,306,0,0,,1,,,61,127
77750,note_off,0,0,0,,10,,,69,127
77752,note_on,2,0,0,,2,,,62,127
77752,note_on,0,0,0,,10,,,69,127
78058,note_off,306,0,0,,2,,,62,127
78058,note_off,0,0,0,,7,,,79,127
78060,note_on,2,0,0,,2,,,50,127
78060,note_on,0,0,0,,6,,,78,127
78366,note_off,306,0,0,,6,,,78,127
78366,note_off,0,0,0,,2,,,50,127
78368,note_on,2,0,0,,10,,,45,127
78368,note_on,0,0,0,,4,,,76,127
78674,note_off,306,0,0,,4,,,76,127
78674,note_off,0,0,0,,10,,,45,127
78674,note_off,0,0,0,,10,,,69,127
78676,note_on,2,0,0,,2,,,38,127
78676,note_on,0,0,0,,6,,,78,127
78777,note_off,101,0,0,,6,,,78,127
78779,note_on,2,0,0,,7,,,79,127
78880,note_off,101,0,0,,7,,,79,127
78882,note_on,2,0,0,,10,,,81,127
78983,note_off,101,0,0,,10,,,81,127
78983,note_off,0,0,0,,2,,,38,127
78985,note_on,2,0,0,,4,,,52,127
78985,note_on,0,0,0,,7,,,79,127
79086,note_off,101,0,0,,7,,,79,127
79088,note_on,2,0,0,,6,,,78,127
79189,note_off,101,0,0,,6,,,78,127
79191,note_on,2,0,0,,4,,,76,127
79292,note_off,101,0,0,,4,,,76,127
79292,note_off,0,0,0,,4,,,52,127
79294,note_on,2,0,0,,6,,,54,127
79294,note_on,0,0,0,,2,,,74,127
79600,note_off,306,0,0,,2,,,74,127
79600,note_off,0,0,0,,6,,,54,127
79602,note_on,2,0,0,,7,,,55,127
79602,note_on,0,0,0,,12,,,71,127
79908,note_off,306,0,0,,12,,,71,127
79908,note_off,0,0,0,,7,,,55,127
79910,note_on,2,0,0,,10,,,57,127
79910,note_on,0,0,0,,6,,,78,127
79987,note_on,77,0,0,,4,,,76,127
80011,note_off,24,0,0,,6,,,78,127
80064,note_on,53,0,0,,6,,,78,127
80088,note_off,24,0,0,,4,,,76,127
80141,note_on,53,0,0,,4,,,76,127
80165,note_off,24,0,0,,6,,,78,127
80216,note_off,51,0,0,,10,,,57,127
80218,note_on,2,0,0,,10,,,45,127
80218,note_on,0,0,0,,6,,,78,127
80242,note_off,24,0,0,,4,,,76,127
80295,note_on,53,0,0,,4,,,76,127
80319,note_off,24,0,0,,6,,,78,127
80372,note_on,53,0,0,,2,,,74,127
80396,note_off,24,0,0,,4,,,76,127
80449,note_on,53,0,0,,4,,,76,127
80473,note_off,24,0,0,,2,,,74,127
80524,note_off,51,0,0,,10,,,45,127
80526,note_on,2,0,0,,2,,,38,127
80526,note_on,0,0,0,,6,,,78,127
80550,note_off,24,0,0,,4,,,76,127
80627,note_off,77,0,0,,6,,,78,127
80629,note_on,2,0,0,,7,,,79,127
80730,note_off,101,0,0,,7,,,79,127
80732,note_on,2,0,0,,10,,,81,127
80833,note_off,101,0,0,,10,,,81,127
80833,note_off,0,0,0,,2,,,38,127
80835,note_on,2,0,0,,4,,,40,127
80835,note_on,0,0,0,,7,,,79,127
80936,note_off,101,0,0,,7,,,79,127
80938,note_on,2,0,0,,6,,,78,127
81039,note_off,101,0,0,,6,,,78,127
81041,note_on,2,0,0,,4,,,76,127
81142,note_off,101,0,0,,4,,,76,127
81142,note_off,0,0,0,,4,,,40,127
81144,note_on,2,0,0,,6,,,42,127
81144,note_on,0,0,0,,2,,,74,127
81450,note_off,306,0,0,,2,,,74,127
81450,note_off,0,0,0,,6,,,42,127
81452,note_on,2,0,0,,7,,,43,127
81452,note_on,0,0,0,,2,,,86,127
81758,note_off,306,0,0,,2,,,86,127
81758,note_off,0,0,0,,7,,,43,127
81760,note_on,2,0,0,,10,,,45,127
81760,note_on,0,0,0,,6,,,66,127
81837,note_on,77,0,0,,4,,,64,127
81861,note_off,24,0,0,,6,,,66,127
81914,note_on,53,0,0,,6,,,66,127
81938,note_off,24,0,0,,4,,,64,127
81991,note_on,53,0,0,,4,,,64,127
82015,note_off,24,0,0,,6,,,66,127
82068,note_on,53,0,0,,10,,,33,127
82068,note_on,0,0,0,,6,,,66,127
82092,note_off,24,0,0,,4,,,64,127
82145,note_on,53,0,0,,4,,,64,127
82169,note_off,24,0,0,,6,,,66,127
82222,note_on,53,0,0,,2,,,62,127
82246,note_off,24,0,0,,4,,,64,127
82299,note_on,53,0,0,,4,,,64,127
82323,note_off,24,0,0,,2,,,62,127
82374,note_off,51,0,0,,10,,,33,127
82374,note_off,0,0,0,,10,,,45,127
82376,note_on,2,0,0,,2,,,38,127
82376,note_on,0,0,0,,2,,,62,127
82400,note_off,24,0,0,,4,,,64,127
84219,note_off,1819,0,0,,2,,,62,127
84219,note_off,0,0,0,,2,,,38,127
89088,end_of_track,4869,1,0,,,,,,
