tick,type,time,meta,track,program,channel,pitch,tempo,note,velocity
0,copyright,0,1,0,,,,,,
0,program_change,0,0,0,6,0,,,,
0,pitchwheel,0,0,0,,0,0,,,
0,program_change,0,0,0,6,1,,,,
0,pitchwheel,0,0,0,,1,-590,,,
0,program_change,0,0,0,6,2,,,,
0,pitchwheel,0,0,0,,2,-272,,,
0,program_change,0,0,0,6,3,,,,
0,pitchwheel,0,0,0,,3,-353,,,
0,program_change,0,0,0,6,4,,,,
0,pitchwheel,0,0,0,,4,-560,,,
0,program_change,0,0,0,6,5,,,,
0,pitchwheel,0,0,0,,5,-80,,,
0,program_change,0,0,0,6,6,,,,
0,pitchwheel,0,0,0,,6,-625,,,
0,program_change,0,0,0,6,7,,,,
0,pitchwheel,0,0,0,,7,-130,,,
0,program_change,0,0,0,6,8,,,,
0,pitchwheel,0,0,0,,8,-512,,,
0,program_change,0,0,0,6,10,,,,
0,pitchwheel,0,0,0,,10,-464,,,
0,program_change,0,0,0,6,11,,,,
0,pitchwheel,0,0,0,,11,-208,,,
0,program_change,0,0,0,6,12,,,,
0,pitchwheel,0,0,0,,12,-553,,,
0,set_tempo,0,1,0,,,,500000,,
35,note_on,35,0,0,,0,,,60,127
35,note_on,0,0,0,,4,,,76,127
242,note_off,207,0,0,,4,,,76,127
244,note_on,2,0,0,,5,,,77,127
451,note_off,207,0,0,,5,,,77,127
451,note_off,0,0,0,,0,,,60,127
453,note_on,2,0,0,,12,,,59,127
453,note_on,0,0,0,,7,,,79,127
660,note_off,207,0,0,,7,,,79,127
660,note_off,0,0,0,,12,,,59,127
662,note_on,2,0,0,,0,,,60,127
662,note_on,0,0,0,,4,,,76,127
765,note_off,103,0,0,,4,,,76,127
767,note_on,2,0,0,,5,,,77,127
870,note_off,103,0,0,,5,,,77,127
870,note_off,0,0,0,,0,,,60,127
872,note_on,2,0,0,,2,,,62,127
872,note_on,0,0,0,,5,,,77,127
975,note_off,103,0,0,,5,,,77,127
977,note_on,2,0,0,,7,,,79,127
1080,note_off,103,0,0,,7,,,79,127
1080,note_off,0,0,0,,2,,,62,127
1082,note_on,2,0,0,,4,,,64,127
1082,note_on,0,0,0,,7,,,79,127
1185,note_off,103,0,0,,7,,,79,127
1187,note_on,2,0,0,,10,,,81,127
1290,note_off,103,0,0,,10,,,81,127
1290,note_off,0,0,0,,4,,,64,127
1292,note_on,2,0,0,,5,,,65,127
1292,note_on,0,0,0,,10,,,81,127
1395,note_off,103,0,0,,10,,,81,127
1397,note_on,2,0,0,,7,,,79,127
1500,note_off,103,0,0,,7,,,79,127
1500,note_off,0,0,0,,5,,,65,127
1502,note_on,2,0,0,,12,,,59,127
1502,note_on,0,0,0,,7,,,79,127
1605,note_off,103,0,0,,7,,,79,127
1607,note_on,2,0,0,,5,,,77,127
1710,note_off,103,0,0,,5,,,77,127
1710,note_off,0,0,0,,12,,,59,127
1712,note_on,2,0,0,,7,,,55,127
1712,note_on,0,0,0,,5,,,77,127
1815,note_off,103,0,0,,5,,,77,127
1817,note_on,2,0,0,,4,,,76,127
1920,note_off,103,0,0,,4,,,76,127
1920,note_off,0,0,0,,7,,,55,127
1922,note_on,2,0,0,,0,,,60,127
1922,note_on,0,0,0,,4,,,76,127
2025,note_off,103,0,0,,4,,,76,127
2027,note_on,2,0,0,,2,,,74,127
2130,note_off,103,0,0,,2,,,74,127
2132,note_on,2,0,0,,2,,,74,127
2235,note_off,103,0,0,,2,,,74,127
2237,note_on,2,0,0,,0,,,72,127
2340,note_off,103,0,0,,0,,,72,127
2340,note_off,0,0,0,,0,,,60,127
2342,note_on,2,0,0,,4,,,52,127
2342,note_on,0,0,0,,0,,,72,127
2445,note_off,103,0,0,,0,,,72,127
2447,note_on,2,0,0,,4,,,76,127
2550,note_off,103,0,0,,4,,,76,127
2550,note_off,0,0,0,,4,,,52,127
2552,note_on,2,0,0,,5,,,53,127
2552,note_on,0,0,0,,2,,,74,127
2655,note_off,103,0,0,,2,,,74,127
2657,note_on,2,0,0,,5,,,77,127
2760,note_off,103,0,0,,5,,,77,127
2760,note_off,0,0,0,,5,,,53,127
2762,note_on,2,0,0,,7,,,55,127
2762,note_on,0,0,0,,4,,,76,127
2865,note_off,103,0,0,,4,,,76,127
2867,note_on,2,0,0,,2,,,74,127
2970,note_off,103,0,0,,2,,,74,127
2970,note_off,0,0,0,,7,,,55,127
2972,note_on,2,0,0,,7,,,43,127
2972,note_on,0,0,0,,0,,,72,127
3075,note_off,103,0,0,,0,,,72,127
3077,note_on,2,0,0,,12,,,71,127
3180,note_off,103,0,0,,12,,,71,127
3180,note_off,0,0,0,,7,,,43,127
3182,note_on,2,0,0,,0,,,36,127
3182,note_on,0,0,0,,0,,,72,127
3285,note_off,103,0,0,,0,,,72,127
3287,note_on,2,0,0,,7,,,67,127
3390,note_off,103,0,0,,7,,,67,127
3392,note_on,2,0,0,,4,,,64,127
3495,note_off,103,0,0,,4,,,64,127
3497,note_on,2,0,0,,0,,,60,127
3603,note_off,106,0,0,,0,,,60,127
3605,note_on,2,0,0,,4,,,64,127
3663,note_off,58,0,0,,0,,,36,127
3715,note_on,52,0,0,,7,,,67,127
3716,note_off,1,0,0,,4,,,64,127
3817,note_off,101,0,0,,7,,,67,127
3828,note_on,11,0,0,,4,,,76,127
3828,note_on,0,0,0,,0,,,60,127
4035,note_off,207,0,0,,4,,,76,127
4037,note_on,2,0,0,,5,,,77,127
4244,note_off,207,0,0,,5,,,77,127
4244,note_off,0,0,0,,0,,,60,127
4246,note_on,2,0,0,,7,,,79,127
4246,note_on,0,0,0,,12,,,59,127
4453,note_off,207,0,0,,12,,,59,127
4453,note_off,0,0,0,,7,,,79,127
4455,note_on,2,0,0,,4,,,76,127
4455,note_on,0,0,0,,0,,,60,127
4558,note_off,103,0,0,,4,,,76,127
4560,note_on,2,0,0,,5,,,77,127
4663,note_off,103,0,0,,5,,,77,127
4663,note_off,0,0,0,,0,,,60,127
4665,note_on,2,0,0,,5,,,77,127
4665,note_on,0,0,0,,2,,,62,127
4768,note_off,103,0,0,,5,,,77,127
4770,note_on,2,0,0,,7,,,79,127
4873,note_off,103,0,0,,7,,,79,127
4873,note_off,0,0,0,,2,,,62,127
4875,note_on,2,0,0,,7,,,79,127
4875,note_on,0,0,0,,4,,,64,127
4978,note_off,103,0,0,,7,,,79,127
4980,note_on,2,0,0,,10,,,81,127
5083,note_off,103,0,0,,10,,,81,127
5083,note_off,0,0,0,,4,,,64,127
5085,note_on,2,0,0,,10,,,81,127
5085,note_on,0,0,0,,5,,,65,127
5188,note_off,103,0,0,,10,,,81,127
5190,note_on,2,0,0,,7,,,79,127
5293,note_off,103,0,0,,7,,,79,127
5293,note_off,0,0,0,,5,,,65,127
5295,note_on,2,0,0,,7,,,79,127
5295,note_on,0,0,0,,12,,,59,127
5398,note_off,103,0,0,,7,,,79,127
5400,note_on,2,0,0,,5,,,77,127
5503,note_off,103,0,0,,5,,,77,127
5503,note_off,0,0,0,,12,,,59,127
5505,note_on,2,0,0,,5,,,77,127
5505,note_on,0,0,0,,7,,,55,127
5608,note_off,103,0,0,,5,,,77,127
5610,note_on,2,0,0,,4,,,76,127
5713,note_off,103,0,0,,4,,,76,127
5713,note_off,0,0,0,,7,,,55,127
5715,note_on,2,0,0,,4,,,76,127
5715,note_on,0,0,0,,0,,,60,127
5818,note_off,103,0,0,,4,,,76,127
5820,note_on,2,0,0,,2,,,74,127
5923,note_off,103,0,0,,2,,,74,127
5925,note_on,2,0,0,,2,,,74,127
6028,note_off,103,0,0,,2,,,74,127
6030,note_on,2,0,0,,0,,,72,127
6133,note_off,103,0,0,,0,,,72,127
6133,note_off,0,0,0,,0,,,60,127
6135,note_on,2,0,0,,0,,,72,127
6135,note_on,0,0,0,,4,,,52,127
6238,note_off,103,0,0,,0,,,72,127
6240,note_on,2,0,0,,4,,,76,127
6343,note_off,103,0,0,,4,,,76,127
6343,note_off,0,0,0,,4,,,52,127
6345,note_on,2,0,0,,2,,,74,127
6345,note_on,0,0,0,,5,,,53,127
6448,note_off,103,0,0,,2,,,74,127
6450,note_on,2,0,0,,5,,,77,127
6553,note_off,103,0,0,,5,,,77,127
6553,note_off,0,0,0,,5,,,53,127
6555,note_on,2,0,0,,4,,,76,127
6555,note_on,0,0,0,,7,,,55,127
6658,note_off,103,0,0,,4,,,76,127
6660,note_on,2,0,0,,2,,,74,127
6763,note_off,103,0,0,,2,,,74,127
6763,note_off,0,0,0,,7,,,55,127
6765,note_on,2,0,0,,0,,,72,127
6765,note_on,0,0,0,,7,,,43,127
6868,note_off,103,0,0,,0,,,72,127
6870,note_on,2,0,0,,12,,,71,127
6973,note_off,103,0,0,,12,,,71,127
6973,note_off,0,0,0,,7,,,43,127
6975,note_on,2,0,0,,0,,,72,127
6975,note_on,0,0,0,,0,,,36,127
7078,note_off,103,0,0,,0,,,72,127
7080,note_on,2,0,0,,7,,,67,127
7183,note_off,103,0,0,,7,,,67,127
7185,note_on,2,0,0,,4,,,64,127
7288,note_off,103,0,0,,4,,,64,127
7290,note_on,2,0,0,,0,,,60,127
7396,note_off,106,0,0,,0,,,60,127
7398,note_on,2,0,0,,4,,,64,127
7508,note_on,110,0,0,,7,,,67,127
7509,note_off,1,0,0,,4,,,64,127
7602,note_off,93,0,0,,0,,,36,127
7611,note_off,9,0,0,,7,,,67,127
7615,note_on,4,0,0,,7,,,67,127
7615,note_on,0,0,0,,0,,,48,127
7718,note_off,103,0,0,,7,,,67,127
7720,note_on,2,0,0,,0,,,72,127
7823,note_off,103,0,0,,0,,,72,127
7825,note_on,2,0,0,,4,,,76,127
7928,note_off,103,0,0,,4,,,76,127
7930,note_on,2,0,0,,7,,,79,127
8033,note_off,103,0,0,,7,,,79,127
8033,note_off,0,0,0,,0,,,48,127
8035,note_on,2,0,0,,7,,,79,127
8035,note_on,0,0,0,,7,,,43,127
8138,note_off,103,0,0,,7,,,79,127
8140,note_on,2,0,0,,5,,,77,127
8243,note_off,103,0,0,,5,,,77,127
8243,note_off,0,0,0,,7,,,43,127
8245,note_on,2,0,0,,5,,,77,127
8245,note_on,0,0,0,,0,,,36,127
8348,note_off,103,0,0,,5,,,77,127
8350,note_on,2,0,0,,4,,,76,127
8453,note_off,103,0,0,,4,,,76,127
8455,note_on,2,0,0,,4,,,76,127
8558,note_off,103,0,0,,4,,,76,127
8560,note_on,2,0,0,,2,,,74,127
8663,note_off,103,0,0,,2,,,74,127
8665,note_on,2,0,0,,2,,,74,127
8768,note_off,103,0,0,,2,,,74,127
8770,note_off,2,0,0,,0,,,36,127
8770,note_on,0,0,0,,4,,,76,127
8866,note_on,96,0,0,,4,,,64,127
8866,note_on,0,0,0,,0,,,48,127
8901,note_off,35,0,0,,4,,,76,127
8969,note_off,68,0,0,,4,,,64,127
8971,note_on,2,0,0,,7,,,67,127
9074,note_off,103,0,0,,7,,,67,127
9076,note_on,2,0,0,,0,,,72,127
9179,note_off,103,0,0,,0,,,72,127
9181,note_on,2,0,0,,4,,,76,127
9284,note_off,103,0,0,,4,,,76,127
9284,note_off,0,0,0,,0,,,48,127
9286,note_on,2,0,0,,4,,,76,127
9286,note_on,0,0,0,,7,,,43,127
9389,note_off,103,0,0,,4,,,76,127
9391,note_on,2,0,0,,2,,,74,127
9494,note_off,103,0,0,,2,,,74,127
9494,note_off,0,0,0,,7,,,43,127
9496,note_on,2,0,0,,2,,,74,127
9496,note_on,0,0,0,,0,,,36,127
9599,note_off,103,0,0,,2,,,74,127
9601,note_on,2,0,0,,0,,,72,127
9704,note_off,103,0,0,,0,,,72,127
9706,note_on,2,0,0,,0,,,72,127
9809,note_off,103,0,0,,0,,,72,127
9811,note_on,2,0,0,,12,,,71,127
9914,note_off,103,0,0,,12,,,71,127
9916,note_on,2,0,0,,12,,,71,127
10019,note_off,103,0,0,,12,,,71,127
10021,note_off,2,0,0,,0,,,36,127
10021,note_on,0,0,0,,0,,,72,127
10139,note_off,118,0,0,,0,,,72,127
10143,note_on,4,0,0,,7,,,67,127
10143,note_on,0,0,0,,0,,,48,127
10246,note_off,103,0,0,,7,,,67,127
10248,note_on,2,0,0,,0,,,72,127
10351,note_off,103,0,0,,0,,,72,127
10353,note_on,2,0,0,,4,,,76,127
10456,note_off,103,0,0,,4,,,76,127
10458,note_on,2,0,0,,7,,,79,127
10561,note_off,103,0,0,,7,,,79,127
10561,note_off,0,0,0,,0,,,48,127
10563,note_on,2,0,0,,7,,,79,127
10563,note_on,0,0,0,,7,,,43,127
10666,note_off,103,0,0,,7,,,79,127
10668,note_on,2,0,0,,5,,,77,127
10771,note_off,103,0,0,,5,,,77,127
10771,note_off,0,0,0,,7,,,43,127
10773,note_on,2,0,0,,5,,,77,127
10773,note_on,0,0,0,,0,,,36,127
10876,note_off,103,0,0,,5,,,77,127
10878,note_on,2,0,0,,4,,,76,127
10981,note_off,103,0,0,,4,,,76,127
10983,note_on,2,0,0,,4,,,76,127
11086,note_off,103,0,0,,4,,,76,127
11088,note_on,2,0,0,,2,,,74,127
11191,note_off,103,0,0,,2,,,74,127
11193,note_on,2,0,0,,2,,,74,127
11296,note_off,103,0,0,,2,,,74,127
11298,note_off,2,0,0,,0,,,36,127
11298,note_on,0,0,0,,4,,,76,127
11411,note_on,113,0,0,,4,,,64,127
11411,note_on,0,0,0,,0,,,48,127
11428,note_off,17,0,0,,4,,,76,127
11513,note_off,85,0,0,,4,,,64,127
11515,note_on,2,0,0,,7,,,67,127
11618,note_off,103,0,0,,7,,,67,127
11620,note_on,2,0,0,,0,,,72,127
11723,note_off,103,0,0,,0,,,72,127
11725,note_on,2,0,0,,4,,,76,127
11828,note_off,103,0,0,,4,,,76,127
11828,note_off,0,0,0,,0,,,48,127
11830,note_on,2,0,0,,4,,,76,127
11830,note_on,0,0,0,,7,,,43,127
11933,note_off,103,0,0,,4,,,76,127
11935,note_on,2,0,0,,2,,,74,127
12038,note_off,103,0,0,,2,,,74,127
12038,note_off,0,0,0,,7,,,43,127
12040,note_on,2,0,0,,2,,,74,127
12040,note_on,0,0,0,,0,,,36,127
12143,note_off,103,0,0,,2,,,74,127
12145,note_on,2,0,0,,0,,,72,127
12248,note_off,103,0,0,,0,,,72,127
12250,note_on,2,0,0,,0,,,72,127
12353,note_off,103,0,0,,0,,,72,127
12356,note_on,3,0,0,,12,,,71,127
12459,note_off,103,0,0,,12,,,71,127
12466,note_on,7,0,0,,12,,,71,127
12572,note_on,106,0,0,,0,,,72,127
12589,note_off,17,0,0,,12,,,71,127
12663,note_off,74,0,0,,0,,,36,127
12709,note_on,46,0,0,,2,,,74,127
12714,note_off,5,0,0,,0,,,72,127
12818,note_on,104,0,0,,12,,,71,127
12916,note_off,98,0,0,,2,,,74,127
12920,note_off,4,0,0,,12,,,71,127
12922,note_on,2,0,0,,4,,,76,127
12922,note_on,0,0,0,,0,,,72,127
13025,note_off,103,0,0,,0,,,72,127
13025,note_off,0,0,0,,4,,,76,127
13027,note_on,2,0,0,,6,,,78,127
13027,note_on,0,0,0,,10,,,69,127
13130,note_off,103,0,0,,10,,,69,127
13132,note_on,2,0,0,,7,,,67,127
13235,note_off,103,0,0,,6,,,78,127
13237,note_on,2,0,0,,7,,,79,127
13340,note_off,103,0,0,,7,,,79,127
13340,note_off,0,0,0,,7,,,67,127
13342,note_on,2,0,0,,2,,,74,127
13447,note_on,105,0,0,,12,,,71,127
13550,note_off,103,0,0,,12,,,71,127
13550,note_off,0,0,0,,2,,,74,127
13552,note_on,2,0,0,,4,,,76,127
13552,note_on,0,0,0,,0,,,72,127
13655,note_off,103,0,0,,0,,,72,127
13655,note_off,0,0,0,,4,,,76,127
13657,note_on,2,0,0,,6,,,78,127
13657,note_on,0,0,0,,10,,,69,127
13760,note_off,103,0,0,,10,,,69,127
13762,note_on,2,0,0,,7,,,67,127
13865,note_off,103,0,0,,6,,,78,127
13867,note_on,2,0,0,,7,,,79,127
13970,note_off,103,0,0,,7,,,79,127
13970,note_off,0,0,0,,7,,,67,127
13972,note_on,2,0,0,,2,,,74,127
14077,note_on,105,0,0,,12,,,71,127
14180,note_off,103,0,0,,12,,,71,127
14180,note_off,0,0,0,,2,,,74,127
14182,note_on,2,0,0,,4,,,76,127
14182,note_on,0,0,0,,0,,,72,127
14285,note_off,103,0,0,,0,,,72,127
14287,note_on,2,0,0,,10,,,69,127
14390,note_off,103,0,0,,10,,,69,127
14390,note_off,0,0,0,,4,,,76,127
14392,note_on,2,0,0,,2,,,74,127
14392,note_on,0,0,0,,12,,,71,127
14495,note_off,103,0,0,,12,,,71,127
14497,note_on,2,0,0,,7,,,67,127
14600,note_off,103,0,0,,7,,,67,127
14600,note_off,0,0,0,,2,,,74,127
14602,note_on,2,0,0,,0,,,72,127
14602,note_on,0,0,0,,10,,,69,127
14705,note_off,103,0,0,,10,,,69,127
14707,note_on,2,0,0,,6,,,66,127
14810,note_off,103,0,0,,6,,,66,127
14810,note_off,0,0,0,,0,,,72,127
14812,note_on,2,0,0,,12,,,71,127
14812,note_on,0,0,0,,7,,,67,127
14915,note_off,103,0,0,,7,,,67,127
14917,note_on,2,0,0,,2,,,62,127
15020,note_off,103,0,0,,2,,,62,127
15022,note_on,2,0,0,,12,,,59,127
15125,note_off,103,0,0,,12,,,59,127
15125,note_off,0,0,0,,12,,,71,127
15127,note_on,2,0,0,,2,,,74,127
15127,note_on,0,0,0,,7,,,55,127
15230,note_off,103,0,0,,7,,,55,127
15230,note_off,0,0,0,,2,,,74,127
15232,note_on,2,0,0,,12,,,71,127
15232,note_on,0,0,0,,2,,,62,127
15492,note_off,260,0,0,,12,,,71,127
15494,note_on,2,0,0,,12,,,71,127
15544,note_off,50,0,0,,12,,,71,127
15546,note_on,2,0,0,,10,,,69,127
15596,note_off,50,0,0,,10,,,69,127
15598,note_on,2,0,0,,12,,,71,127
15648,note_off,50,0,0,,12,,,71,127
15648,note_off,0,0,0,,2,,,62,127
15650,note_on,2,0,0,,10,,,69,127
15650,note_on,0,0,0,,2,,,50,127
15700,note_off,50,0,0,,10,,,69,127
15702,note_on,2,0,0,,12,,,71,127
15752,note_off,50,0,0,,12,,,71,127
15754,note_on,2,0,0,,10,,,69,127
15804,note_off,50,0,0,,10,,,69,127
15806,note_on,2,0,0,,7,,,67,127
15856,note_off,50,0,0,,7,,,67,127
15856,note_off,0,0,0,,2,,,50,127
15858,note_on,2,0,0,,10,,,69,127
15906,note_off,48,0,0,,10,,,69,127
15915,note_on,9,0,0,,10,,,69,127
16020,note_on,105,0,0,,6,,,66,127
16123,note_off,103,0,0,,6,,,66,127
16125,note_on,2,0,0,,12,,,71,127
16125,note_on,0,0,0,,7,,,67,127
16134,note_off,9,0,0,,10,,,69,127
16228,note_off,94,0,0,,7,,,67,127
16228,note_off,0,0,0,,12,,,71,127
16230,note_on,2,0,0,,0,,,72,127
16230,note_on,0,0,0,,4,,,64,127
16333,note_off,103,0,0,,4,,,64,127
16335,note_on,2,0,0,,2,,,62,127
16438,note_off,103,0,0,,0,,,72,127
16440,note_on,2,0,0,,2,,,74,127
16543,note_off,103,0,0,,2,,,74,127
16543,note_off,0,0,0,,2,,,62,127
16545,note_on,2,0,0,,10,,,69,127
16650,note_on,105,0,0,,6,,,66,127
16753,note_off,103,0,0,,6,,,66,127
16753,note_off,0,0,0,,10,,,69,127
16755,note_on,2,0,0,,12,,,71,127
16755,note_on,0,0,0,,7,,,67,127
16858,note_off,103,0,0,,7,,,67,127
16858,note_off,0,0,0,,12,,,71,127
16860,note_on,2,0,0,,0,,,72,127
16860,note_on,0,0,0,,4,,,64,127
16963,note_off,103,0,0,,4,,,64,127
16965,note_on,2,0,0,,2,,,62,127
17068,note_off,103,0,0,,0,,,72,127
17070,note_on,2,0,0,,2,,,74,127
17173,note_off,103,0,0,,2,,,74,127
17173,note_off,0,0,0,,2,,,62,127
17175,note_on,2,0,0,,7,,,67,127
17278,note_off,103,0,0,,7,,,67,127
17280,note_on,2,0,0,,6,,,66,127
17280,note_on,0,0,0,,0,,,60,127
17383,note_off,103,0,0,,0,,,60,127
17383,note_off,0,0,0,,6,,,66,127
17385,note_on,2,0,0,,7,,,67,127
17385,note_on,0,0,0,,12,,,59,127
17488,note_off,103,0,0,,12,,,59,127
17488,note_off,0,0,0,,7,,,67,127
17490,note_on,2,0,0,,10,,,69,127
17490,note_on,0,0,0,,10,,,57,127
17593,note_off,103,0,0,,10,,,57,127
17593,note_off,0,0,0,,10,,,69,127
17595,note_on,2,0,0,,12,,,71,127
17595,note_on,0,0,0,,7,,,55,127
17698,note_off,103,0,0,,12,,,71,127
17700,note_on,2,0,0,,7,,,67,127
17803,note_off,103,0,0,,7,,,67,127
17803,note_off,0,0,0,,7,,,55,127
17805,note_on,2,0,0,,10,,,69,127
17805,note_on,0,0,0,,0,,,60,127
17908,note_off,103,0,0,,10,,,69,127
17910,note_on,2,0,0,,0,,,72,127
18013,note_off,103,0,0,,0,,,72,127
18013,note_off,0,0,0,,0,,,60,127
18015,note_on,2,0,0,,12,,,71,127
18015,note_on,0,0,0,,2,,,62,127
18118,note_off,103,0,0,,12,,,71,127
18120,note_on,2,0,0,,10,,,69,127
18223,note_off,103,0,0,,10,,,69,127
18223,note_off,0,0,0,,2,,,62,127
18225,note_on,2,0,0,,7,,,67,127
18225,note_on,0,0,0,,2,,,50,127
18328,note_off,103,0,0,,7,,,67,127
18330,note_on,2,0,0,,6,,,66,127
18433,note_off,103,0,0,,6,,,66,127
18433,note_off,0,0,0,,2,,,50,127
18435,note_on,2,0,0,,6,,,66,127
18435,note_on,0,0,0,,7,,,55,127
18852,note_off,417,0,0,,6,,,66,127
18854,note_on,2,0,0,,7,,,67,127
19013,note_off,159,0,0,,7,,,55,127
19061,note_off,48,0,0,,7,,,67,127
19089,note_on,28,0,0,,10,,,69,127
19194,note_on,105,0,0,,6,,,66,127
19297,note_off,103,0,0,,6,,,66,127
19297,note_off,0,0,0,,10,,,69,127
19299,note_on,2,0,0,,7,,,67,127
19299,note_on,0,0,0,,12,,,71,127
19402,note_off,103,0,0,,12,,,71,127
19402,note_off,0,0,0,,7,,,67,127
19404,note_on,2,0,0,,4,,,64,127
19404,note_on,0,0,0,,0,,,72,127
19507,note_off,103,0,0,,4,,,64,127
19509,note_on,2,0,0,,2,,,62,127
19612,note_off,103,0,0,,0,,,72,127
19614,note_on,2,0,0,,2,,,74,127
19717,note_off,103,0,0,,2,,,74,127
19717,note_off,0,0,0,,2,,,62,127
19719,note_on,2,0,0,,10,,,69,127
19824,note_on,105,0,0,,6,,,66,127
19927,note_off,103,0,0,,6,,,66,127
19927,note_off,0,0,0,,10,,,69,127
19929,note_on,2,0,0,,7,,,67,127
19929,note_on,0,0,0,,12,,,71,127
20032,note_off,103,0,0,,12,,,71,127
20032,note_off,0,0,0,,7,,,67,127
20034,note_on,2,0,0,,4,,,64,127
20034,note_on,0,0,0,,0,,,72,127
20137,note_off,103,0,0,,4,,,64,127
20139,note_on,2,0,0,,2,,,62,127
20242,note_off,103,0,0,,0,,,72,127
20244,note_on,2,0,0,,2,,,74,127
20347,note_off,103,0,0,,2,,,74,127
20347,note_off,0,0,0,,2,,,62,127
20349,note_on,2,0,0,,7,,,67,127
20452,note_off,103,0,0,,7,,,67,127
20454,note_on,2,0,0,,0,,,60,127
20454,note_on,0,0,0,,6,,,66,127
20557,note_off,103,0,0,,6,,,66,127
20557,note_off,0,0,0,,0,,,60,127
20559,note_on,2,0,0,,12,,,59,127
20559,note_on,0,0,0,,7,,,67,127
20662,note_off,103,0,0,,7,,,67,127
20662,note_off,0,0,0,,12,,,59,127
20664,note_on,2,0,0,,10,,,57,127
20664,note_on,0,0,0,,10,,,69,127
20767,note_off,103,0,0,,10,,,69,127
20767,note_off,0,0,0,,10,,,57,127
20769,note_on,2,0,0,,7,,,55,127
20769,note_on,0,0,0,,12,,,71,127
20872,note_off,103,0,0,,12,,,71,127
20874,note_on,2,0,0,,7,,,67,127
20977,note_off,103,0,0,,7,,,67,127
20977,note_off,0,0,0,,7,,,55,127
20979,note_on,2,0,0,,0,,,60,127
20979,note_on,0,0,0,,10,,,69,127
21082,note_off,103,0,0,,10,,,69,127
21084,note_on,2,0,0,,0,,,72,127
21187,note_off,103,0,0,,0,,,72,127
21187,note_off,0,0,0,,0,,,60,127
21189,note_on,2,0,0,,2,,,62,127
21189,note_on,0,0,0,,12,,,71,127
21292,note_off,103,0,0,,12,,,71,127
21294,note_on,2,0,0,,10,,,69,127
21397,note_off,103,0,0,,10,,,69,127
21397,note_off,0,0,0,,2,,,62,127
21399,note_on,2,0,0,,2,,,50,127
21399,note_on,0,0,0,,7,,,67,127
21502,note_off,103,0,0,,7,,,67,127
21504,note_on,2,0,0,,6,,,66,127
21607,note_off,103,0,0,,6,,,66,127
21607,note_off,0,0,0,,2,,,50,127
21609,note_on,2,0,0,,7,,,43,127
21609,note_on,0,0,0,,7,,,55,127
21609,note_on,0,0,0,,7,,,67,127
21712,note_off,103,0,0,,7,,,67,127
21714,note_on,2,0,0,,10,,,81,127
21817,note_off,103,0,0,,10,,,81,127
21819,note_on,2,0,0,,7,,,79,127
21922,note_off,103,0,0,,7,,,79,127
21924,note_on,2,0,0,,6,,,78,127
22027,note_off,103,0,0,,6,,,78,127
22029,note_on,2,0,0,,4,,,76,127
22132,note_off,103,0,0,,4,,,76,127
22134,note_on,2,0,0,,2,,,74,127
22237,note_off,103,0,0,,2,,,74,127
22237,note_off,0,0,0,,7,,,55,127
22237,note_off,0,0,0,,7,,,43,127
22239,note_on,2,0,0,,10,,,45,127
22239,note_on,0,0,0,,10,,,57,127
22239,note_on,0,0,0,,0,,,72,127
22342,note_off,103,0,0,,0,,,72,127
22344,note_on,2,0,0,,12,,,71,127
22447,note_off,103,0,0,,12,,,71,127
22449,note_on,2,0,0,,4,,,76,127
22552,note_off,103,0,0,,4,,,76,127
22554,note_on,2,0,0,,2,,,74,127
22657,note_off,103,0,0,,2,,,74,127
22659,note_on,2,0,0,,0,,,72,127
22762,note_off,103,0,0,,0,,,72,127
22764,note_on,2,0,0,,12,,,71,127
22867,note_off,103,0,0,,12,,,71,127
22867,note_off,0,0,0,,10,,,57,127
22867,note_off,0,0,0,,10,,,45,127
22869,note_on,2,0,0,,12,,,59,127
22869,note_on,0,0,0,,12,,,47,127
22869,note_on,0,0,0,,2,,,74,127
22972,note_off,103,0,0,,2,,,74,127
22974,note_on,2,0,0,,0,,,72,127
23077,note_off,103,0,0,,0,,,72,127
23079,note_on,2,0,0,,12,,,71,127
23182,note_off,103,0,0,,12,,,71,127
23184,note_on,2,0,0,,10,,,69,127
23287,note_off,103,0,0,,10,,,69,127
23289,note_on,2,0,0,,0,,,72,127
23392,note_off,103,0,0,,0,,,72,127
23394,note_on,2,0,0,,12,,,71,127
23497,note_off,103,0,0,,12,,,71,127
23497,note_off,0,0,0,,12,,,47,127
23497,note_off,0,0,0,,12,,,59,127
23499,note_on,2,0,0,,0,,,60,127
23499,note_on,0,0,0,,0,,,48,127
23499,note_on,0,0,0,,10,,,69,127
23602,note_off,103,0,0,,10,,,69,127
23604,note_on,2,0,0,,7,,,67,127
23707,note_off,103,0,0,,7,,,67,127
23707,note_off,0,0,0,,0,,,48,127
23707,note_off,0,0,0,,0,,,60,127
23709,note_on,2,0,0,,2,,,62,127
23709,note_on,0,0,0,,2,,,50,127
23709,note_on,0,0,0,,6,,,66,127
23812,note_off,103,0,0,,6,,,66,127
23814,note_on,2,0,0,,7,,,67,127
23917,note_off,103,0,0,,7,,,67,127
23919,note_on,2,0,0,,10,,,69,127
24022,note_off,103,0,0,,10,,,69,127
24024,note_on,2,0,0,,6,,,66,127
24139,note_off,115,0,0,,2,,,50,127
24142,note_off,3,0,0,,2,,,62,127
24146,note_off,4,0,0,,6,,,66,127
24146,note_on,0,0,0,,7,,,67,127
24146,note_on,0,0,0,,7,,,55,127
24146,note_on,0,0,0,,7,,,43,127
24249,note_off,103,0,0,,7,,,67,127
24251,note_on,2,0,0,,10,,,81,127
24354,note_off,103,0,0,,10,,,81,127
24356,note_on,2,0,0,,7,,,79,127
24459,note_off,103,0,0,,7,,,79,127
24461,note_on,2,0,0,,6,,,78,127
24564,note_off,103,0,0,,6,,,78,127
24566,note_on,2,0,0,,4,,,76,127
24669,note_off,103,0,0,,4,,,76,127
24671,note_on,2,0,0,,2,,,74,127
24774,note_off,103,0,0,,2,,,74,127
24774,note_off,0,0,0,,7,,,43,127
24774,note_off,0,0,0,,7,,,55,127
24776,note_on,2,0,0,,0,,,72,127
24776,note_on,0,0,0,,10,,,57,127
24776,note_on,0,0,0,,10,,,45,127
24879,note_off,103,0,0,,0,,,72,127
24881,note_on,2,0,0,,12,,,71,127
24984,note_off,103,0,0,,12,,,71,127
24986,note_on,2,0,0,,4,,,76,127
25089,note_off,103,0,0,,4,,,76,127
25091,note_on,2,0,0,,2,,,74,127
25194,note_off,103,0,0,,2,,,74,127
25196,note_on,2,0,0,,0,,,72,127
25299,note_off,103,0,0,,0,,,72,127
25301,note_on,2,0,0,,12,,,71,127
25404,note_off,103,0,0,,12,,,71,127
25404,note_off,0,0,0,,10,,,45,127
25404,note_off,0,0,0,,10,,,57,127
25406,note_on,2,0,0,,2,,,74,127
25406,note_on,0,0,0,,12,,,47,127
25406,note_on,0,0,0,,12,,,59,127
25509,note_off,103,0,0,,2,,,74,127
25511,note_on,2,0,0,,0,,,72,127
25614,note_off,103,0,0,,0,,,72,127
25616,note_on,2,0,0,,12,,,71,127
25719,note_off,103,0,0,,12,,,71,127
25721,note_on,2,0,0,,10,,,69,127
25824,note_off,103,0,0,,10,,,69,127
25826,note_on,2,0,0,,0,,,72,127
25929,note_off,103,0,0,,0,,,72,127
25931,note_on,2,0,0,,12,,,71,127
26034,note_off,103,0,0,,12,,,71,127
26034,note_off,0,0,0,,12,,,59,127
26034,note_off,0,0,0,,12,,,47,127
26036,note_on,2,0,0,,10,,,69,127
26036,note_on,0,0,0,,0,,,60,127
26036,note_on,0,0,0,,0,,,48,127
26139,note_off,103,0,0,,10,,,69,127
26141,note_on,2,0,0,,7,,,67,127
26244,note_off,103,0,0,,7,,,67,127
26244,note_off,0,0,0,,0,,,48,127
26244,note_off,0,0,0,,0,,,60,127
26246,note_on,2,0,0,,6,,,66,127
26246,note_on,0,0,0,,2,,,62,127
26246,note_on,0,0,0,,2,,,50,127
26349,note_off,103,0,0,,6,,,66,127
26351,note_on,2,0,0,,7,,,67,127
26454,note_off,103,0,0,,7,,,67,127
26456,note_on,2,0,0,,10,,,69,127
26559,note_off,103,0,0,,10,,,69,127
26561,note_on,2,0,0,,6,,,66,127
26664,note_off,103,0,0,,6,,,66,127
26664,note_off,0,0,0,,2,,,50,127
26664,note_off,0,0,0,,2,,,62,127
26666,note_on,2,0,0,,7,,,67,127
26666,note_on,0,0,0,,7,,,55,127
26788,note_on,122,0,0,,6,,,78,127
26809,note_off,21,0,0,,7,,,67,127
26891,note_off,82,0,0,,6,,,78,127
26893,note_on,2,0,0,,7,,,79,127
26996,note_off,103,0,0,,7,,,79,127
26998,note_on,2,0,0,,2,,,74,127
27070,note_off,72,0,0,,7,,,55,127
27101,note_off,31,0,0,,2,,,74,127
27103,note_on,2,0,0,,12,,,59,127
27103,note_on,0,0,0,,2,,,74,127
27206,note_off,103,0,0,,2,,,74,127
27208,note_on,2,0,0,,3,,,75,127
27311,note_off,103,0,0,,3,,,75,127
27311,note_off,0,0,0,,12,,,59,127
27313,note_on,2,0,0,,0,,,60,127
27313,note_on,0,0,0,,3,,,75,127
27416,note_off,103,0,0,,3,,,75,127
27418,note_on,2,0,0,,4,,,76,127
27521,note_off,103,0,0,,4,,,76,127
27521,note_off,0,0,0,,0,,,60,127
27523,note_on,2,0,0,,10,,,57,127
27523,note_on,0,0,0,,4,,,76,127
27626,note_off,103,0,0,,4,,,76,127
27628,note_on,2,0,0,,0,,,72,127
27731,note_off,103,0,0,,0,,,72,127
27731,note_off,0,0,0,,10,,,57,127
27733,note_on,2,0,0,,6,,,54,127
27733,note_on,0,0,0,,0,,,72,127
27836,note_off,103,0,0,,0,,,72,127
27838,note_on,2,0,0,,1,,,73,127
27941,note_off,103,0,0,,1,,,73,127
27941,note_off,0,0,0,,6,,,54,127
27943,note_on,2,0,0,,12,,,59,127
27943,note_on,0,0,0,,1,,,73,127
28046,note_off,103,0,0,,1,,,73,127
28048,note_on,2,0,0,,2,,,74,127
28151,note_off,103,0,0,,2,,,74,127
28151,note_off,0,0,0,,12,,,59,127
28153,note_on,2,0,0,,7,,,55,127
28153,note_on,0,0,0,,2,,,74,127
28256,note_off,103,0,0,,2,,,74,127
28258,note_on,2,0,0,,12,,,71,127
28361,note_off,103,0,0,,12,,,71,127
28361,note_off,0,0,0,,7,,,55,127
28363,note_on,2,0,0,,12,,,47,127
28363,note_on,0,0,0,,12,,,71,127
28466,note_off,103,0,0,,12,,,71,127
28468,note_on,2,0,0,,7,,,67,127
28571,note_off,103,0,0,,7,,,67,127
28571,note_off,0,0,0,,12,,,47,127
28573,note_on,2,0,0,,0,,,48,127
28573,note_on,0,0,0,,10,,,69,127
28676,note_off,103,0,0,,10,,,69,127
28678,note_on,2,0,0,,0,,,72,127
28781,note_off,103,0,0,,0,,,72,127
28781,note_off,0,0,0,,0,,,48,127
28783,note_on,2,0,0,,2,,,50,127
28783,note_on,0,0,0,,12,,,71,127
28886,note_off,103,0,0,,12,,,71,127
28888,note_on,2,0,0,,10,,,69,127
28991,note_off,103,0,0,,10,,,69,127
28991,note_off,0,0,0,,2,,,50,127
28993,note_on,2,0,0,,2,,,38,127
28993,note_on,0,0,0,,7,,,67,127
29096,note_off,103,0,0,,7,,,67,127
29098,note_on,2,0,0,,6,,,66,127
29201,note_off,103,0,0,,6,,,66,127
29201,note_off,0,0,0,,2,,,38,127
29203,note_on,2,0,0,,7,,,43,127
29203,note_on,0,0,0,,7,,,67,127
29325,note_on,122,0,0,,7,,,79,127
29356,note_off,31,0,0,,7,,,67,127
29428,note_off,72,0,0,,7,,,79,127
29430,note_on,2,0,0,,7,,,79,127
29533,note_off,103,0,0,,7,,,79,127
29535,note_on,2,0,0,,2,,,74,127
29620,note_off,85,0,0,,7,,,43,127
29637,note_off,17,0,0,,2,,,74,127
29639,note_on,2,0,0,,2,,,74,127
29639,note_on,0,0,0,,12,,,59,127
29742,note_off,103,0,0,,2,,,74,127
29744,note_on,2,0,0,,3,,,75,127
29847,note_off,103,0,0,,3,,,75,127
29847,note_off,0,0,0,,12,,,59,127
29849,note_on,2,0,0,,3,,,75,127
29849,note_on,0,0,0,,0,,,60,127
29952,note_off,103,0,0,,3,,,75,127
29954,note_on,2,0,0,,4,,,76,127
30057,note_off,103,0,0,,4,,,76,127
30057,note_off,0,0,0,,0,,,60,127
30059,note_on,2,0,0,,4,,,76,127
30059,note_on,0,0,0,,10,,,57,127
30162,note_off,103,0,0,,4,,,76,127
30164,note_on,2,0,0,,0,,,72,127
30267,note_off,103,0,0,,0,,,72,127
30267,note_off,0,0,0,,10,,,57,127
30269,note_on,2,0,0,,0,,,72,127
30269,note_on,0,0,0,,6,,,54,127
30372,note_off,103,0,0,,0,,,72,127
30374,note_on,2,0,0,,1,,,73,127
30477,note_off,103,0,0,,1,,,73,127
30477,note_off,0,0,0,,6,,,54,127
30479,note_on,2,0,0,,1,,,73,127
30479,note_on,0,0,0,,12,,,59,127
30582,note_off,103,0,0,,1,,,73,127
30584,note_on,2,0,0,,2,,,74,127
30687,note_off,103,0,0,,2,,,74,127
30687,note_off,0,0,0,,12,,,59,127
30689,note_on,2,0,0,,2,,,74,127
30689,note_on,0,0,0,,7,,,55,127
30792,note_off,103,0,0,,2,,,74,127
30794,note_on,2,0,0,,12,,,71,127
30897,note_off,103,0,0,,12,,,71,127
30897,note_off,0,0,0,,7,,,55,127
30899,note_on,2,0,0,,12,,,71,127
30899,note_on,0,0,0,,12,,,47,127
31002,note_off,103,0,0,,12,,,71,127
31004,note_on,2,0,0,,7,,,67,127
31107,note_off,103,0,0,,7,,,67,127
31107,note_off,0,0,0,,12,,,47,127
31109,note_on,2,0,0,,10,,,69,127
31109,note_on,0,0,0,,0,,,48,127
31212,note_off,103,0,0,,10,,,69,127
31214,note_on,2,0,0,,0,,,72,127
31317,note_off,103,0,0,,0,,,72,127
31317,note_off,0,0,0,,0,,,48,127
31319,note_on,2,0,0,,12,,,71,127
31319,note_on,0,0,0,,2,,,50,127
31422,note_off,103,0,0,,12,,,71,127
31424,note_on,2,0,0,,10,,,69,127
31527,note_off,103,0,0,,10,,,69,127
31527,note_off,0,0,0,,2,,,50,127
31529,note_on,2,0,0,,7,,,67,127
31529,note_on,0,0,0,,2,,,38,127
31632,note_off,103,0,0,,7,,,67,127
31634,note_on,2,0,0,,6,,,66,127
31737,note_off,103,0,0,,6,,,66,127
31737,note_off,0,0,0,,2,,,38,127
31739,note_on,2,0,0,,7,,,67,127
31739,note_on,0,0,0,,7,,,55,127
31739,note_on,0,0,0,,7,,,43,127
32154,note_off,415,0,0,,7,,,67,127
32367,note_off,213,0,0,,7,,,43,127
32367,note_off,0,0,0,,7,,,55,127
32447,note_on,80,0,0,,2,,,74,127
32552,note_on,105,0,0,,12,,,71,127
32655,note_off,103,0,0,,12,,,71,127
32655,note_off,0,0,0,,2,,,74,127
32657,note_on,2,0,0,,4,,,76,127
32657,note_on,0,0,0,,0,,,72,127
32760,note_off,103,0,0,,0,,,72,127
32760,note_off,0,0,0,,4,,,76,127
32762,note_on,2,0,0,,5,,,77,127
32762,note_on,0,0,0,,10,,,69,127
32865,note_off,103,0,0,,10,,,69,127
32867,note_on,2,0,0,,7,,,67,127
32970,note_off,103,0,0,,5,,,77,127
32972,note_on,2,0,0,,7,,,79,127
33075,note_off,103,0,0,,7,,,79,127
33075,note_off,0,0,0,,7,,,67,127
33086,note_on,11,0,0,,2,,,74,127
33191,note_on,105,0,0,,12,,,71,127
33294,note_off,103,0,0,,12,,,71,127
33294,note_off,0,0,0,,2,,,74,127
33296,note_on,2,0,0,,4,,,76,127
33296,note_on,0,0,0,,0,,,72,127
33399,note_off,103,0,0,,0,,,72,127
33399,note_off,0,0,0,,4,,,76,127
33401,note_on,2,0,0,,5,,,77,127
33401,note_on,0,0,0,,10,,,69,127
33504,note_off,103,0,0,,10,,,69,127
33506,note_on,2,0,0,,7,,,67,127
33609,note_off,103,0,0,,5,,,77,127
33611,note_on,2,0,0,,7,,,79,127
33714,note_off,103,0,0,,7,,,79,127
33714,note_off,0,0,0,,7,,,67,127
33725,note_on,11,0,0,,0,,,72,127
33828,note_off,103,0,0,,0,,,72,127
33830,note_on,2,0,0,,12,,,71,127
33830,note_on,0,0,0,,5,,,65,127
33933,note_off,103,0,0,,5,,,65,127
33933,note_off,0,0,0,,12,,,71,127
33935,note_on,2,0,0,,0,,,72,127
33935,note_on,0,0,0,,4,,,64,127
34038,note_off,103,0,0,,4,,,64,127
34038,note_off,0,0,0,,0,,,72,127
34040,note_on,2,0,0,,2,,,74,127
34040,note_on,0,0,0,,2,,,62,127
34143,note_off,103,0,0,,2,,,62,127
34143,note_off,0,0,0,,2,,,74,127
34145,note_on,2,0,0,,4,,,76,127
34145,note_on,0,0,0,,0,,,60,127
34248,note_off,103,0,0,,4,,,76,127
34250,note_on,2,0,0,,0,,,72,127
34353,note_off,103,0,0,,0,,,72,127
34353,note_off,0,0,0,,0,,,60,127
34355,note_on,2,0,0,,2,,,74,127
34355,note_on,0,0,0,,12,,,59,127
34458,note_off,103,0,0,,2,,,74,127
34460,note_on,2,0,0,,5,,,77,127
34563,note_off,103,0,0,,5,,,77,127
34563,note_off,0,0,0,,12,,,59,127
34565,note_on,2,0,0,,4,,,76,127
34565,note_on,0,0,0,,0,,,60,127
34668,note_off,103,0,0,,4,,,76,127
34670,note_on,2,0,0,,10,,,81,127
34773,note_off,103,0,0,,10,,,81,127
34773,note_off,0,0,0,,0,,,60,127
34775,note_on,2,0,0,,7,,,79,127
34775,note_on,0,0,0,,7,,,55,127
34878,note_off,103,0,0,,7,,,79,127
34880,note_on,2,0,0,,5,,,77,127
34986,note_off,106,0,0,,7,,,55,127
34994,note_on,8,0,0,,0,,,48,127
35193,note_off,199,0,0,,5,,,77,127
35204,note_on,11,0,0,,5,,,77,127
35272,note_off,68,0,0,,5,,,77,127
35274,note_on,2,0,0,,4,,,76,127
35342,note_off,68,0,0,,4,,,76,127
35344,note_on,2,0,0,,2,,,74,127
35412,note_off,68,0,0,,2,,,74,127
35414,note_on,2,0,0,,0,,,72,127
35622,note_off,208,0,0,,0,,,48,127
35675,note_off,53,0,0,,0,,,72,127
35675,note_on,0,0,0,,4,,,76,127
35780,note_on,105,0,0,,1,,,73,127
35883,note_off,103,0,0,,1,,,73,127
35883,note_off,0,0,0,,4,,,76,127
35885,note_on,2,0,0,,5,,,77,127
35885,note_on,0,0,0,,2,,,74,127
35988,note_off,103,0,0,,2,,,74,127
35988,note_off,0,0,0,,5,,,77,127
35990,note_on,2,0,0,,7,,,79,127
35990,note_on,0,0,0,,11,,,70,127
36093,note_off,103,0,0,,11,,,70,127
36095,note_on,2,0,0,,10,,,69,127
36198,note_off,103,0,0,,7,,,79,127
36200,note_on,2,0,0,,10,,,81,127
36303,note_off,103,0,0,,10,,,81,127
36303,note_off,0,0,0,,10,,,69,127
36314,note_on,11,0,0,,4,,,76,127
36419,note_on,105,0,0,,1,,,73,127
36522,note_off,103,0,0,,1,,,73,127
36522,note_off,0,0,0,,4,,,76,127
36524,note_on,2,0,0,,5,,,77,127
36524,note_on,0,0,0,,2,,,74,127
36627,note_off,103,0,0,,2,,,74,127
36627,note_off,0,0,0,,5,,,77,127
36629,note_on,2,0,0,,7,,,79,127
36629,note_on,0,0,0,,11,,,70,127
36732,note_off,103,0,0,,11,,,70,127
36734,note_on,2,0,0,,10,,,69,127
36837,note_off,103,0,0,,7,,,79,127
36839,note_on,2,0,0,,10,,,81,127
36942,note_off,103,0,0,,10,,,69,127
36943,note_off,1,0,0,,10,,,81,127
36953,note_on,10,0,0,,2,,,74,127
37056,note_off,103,0,0,,2,,,74,127
37058,note_on,2,0,0,,1,,,73,127
37058,note_on,0,0,0,,7,,,67,127
37161,note_off,103,0,0,,7,,,67,127
37161,note_off,0,0,0,,1,,,73,127
37163,note_on,2,0,0,,2,,,74,127
37163,note_on,0,0,0,,5,,,65,127
37266,note_off,103,0,0,,5,,,65,127
37266,note_off,0,0,0,,2,,,74,127
37268,note_on,2,0,0,,4,,,76,127
37268,note_on,0,0,0,,4,,,64,127
37371,note_off,103,0,0,,4,,,64,127
37371,note_off,0,0,0,,4,,,76,127
37373,note_on,2,0,0,,5,,,77,127
37373,note_on,0,0,0,,2,,,62,127
37476,note_off,103,0,0,,5,,,77,127
37478,note_on,2,0,0,,2,,,74,127
37581,note_off,103,0,0,,2,,,74,127
37581,note_off,0,0,0,,2,,,62,127
37583,note_on,2,0,0,,4,,,76,127
37583,note_on,0,0,0,,1,,,61,127
37686,note_off,103,0,0,,4,,,76,127
37688,note_on,2,0,0,,7,,,79,127
37791,note_off,103,0,0,,7,,,79,127
37791,note_off,0,0,0,,1,,,61,127
37793,note_on,2,0,0,,5,,,77,127
37793,note_on,0,0,0,,2,,,62,127
37896,note_off,103,0,0,,5,,,77,127
37898,note_on,2,0,0,,11,,,82,127
38001,note_off,103,0,0,,11,,,82,127
38001,note_off,0,0,0,,2,,,62,127
38003,note_on,2,0,0,,10,,,81,127
38003,note_on,0,0,0,,10,,,57,127
38106,note_off,103,0,0,,10,,,81,127
38108,note_on,2,0,0,,7,,,79,127
38211,note_off,103,0,0,,10,,,57,127
38213,note_on,2,0,0,,2,,,50,127
38420,note_off,207,0,0,,7,,,79,127
38422,note_on,2,0,0,,7,,,79,127
38490,note_off,68,0,0,,7,,,79,127
38492,note_on,2,0,0,,5,,,77,127
38560,note_off,68,0,0,,5,,,77,127
38562,note_on,2,0,0,,4,,,76,127
38630,note_off,68,0,0,,4,,,76,127
38632,note_on,2,0,0,,2,,,74,127
38868,note_off,236,0,0,,2,,,50,127
38894,note_off,26,0,0,,2,,,74,127
38894,note_on,0,0,0,,7,,,67,127
38894,note_on,0,0,0,,11,,,70,127
38999,note_on,105,0,0,,7,,,79,127
39102,note_off,103,0,0,,7,,,79,127
39102,note_off,0,0,0,,11,,,70,127
39102,note_off,0,0,0,,7,,,67,127
39104,note_on,2,0,0,,4,,,76,127
39104,note_on,0,0,0,,7,,,67,127
39104,note_on,0,0,0,,11,,,70,127
39207,note_off,103,0,0,,4,,,76,127
39209,note_on,2,0,0,,2,,,74,127
39312,note_off,103,0,0,,2,,,74,127
39312,note_off,0,0,0,,11,,,70,127
39312,note_off,0,0,0,,7,,,67,127
39314,note_on,2,0,0,,2,,,74,127
39314,note_on,0,0,0,,7,,,67,127
39314,note_on,0,0,0,,11,,,70,127
39417,note_off,103,0,0,,2,,,74,127
39419,note_on,2,0,0,,1,,,73,127
39522,note_off,103,0,0,,1,,,73,127
39522,note_off,0,0,0,,11,,,70,127
39522,note_off,0,0,0,,7,,,67,127
39524,note_on,2,0,0,,1,,,73,127
39524,note_on,0,0,0,,5,,,65,127
39524,note_on,0,0,0,,10,,,69,127
39627,note_off,103,0,0,,1,,,73,127
39629,note_on,2,0,0,,2,,,74,127
39732,note_off,103,0,0,,2,,,74,127
39732,note_off,0,0,0,,10,,,69,127
39732,note_off,0,0,0,,5,,,65,127
39734,note_on,2,0,0,,2,,,74,127
39734,note_on,0,0,0,,10,,,69,127
39734,note_on,0,0,0,,5,,,65,127
39837,note_off,103,0,0,,2,,,74,127
39839,note_on,2,0,0,,1,,,73,127
39942,note_off,103,0,0,,1,,,73,127
39942,note_off,0,0,0,,5,,,65,127
39942,note_off,0,0,0,,10,,,69,127
39944,note_on,2,0,0,,1,,,73,127
39944,note_on,0,0,0,,5,,,65,127
39944,note_on,0,0,0,,10,,,69,127
40047,note_off,103,0,0,,1,,,73,127
40049,note_on,2,0,0,,2,,,74,127
40152,note_off,103,0,0,,10,,,69,127
40152,note_off,0,0,0,,5,,,65,127
40163,note_on,11,0,0,,7,,,67,127
40163,note_on,0,0,0,,11,,,70,127
40207,note_off,44,0,0,,2,,,74,127
40268,note_on,61,0,0,,7,,,79,127
40371,note_off,103,0,0,,7,,,79,127
40371,note_off,0,0,0,,11,,,70,127
40371,note_off,0,0,0,,7,,,67,127
40373,note_on,2,0,0,,4,,,76,127
40373,note_on,0,0,0,,7,,,67,127
40373,note_on,0,0,0,,11,,,70,127
40476,note_off,103,0,0,,4,,,76,127
40478,note_on,2,0,0,,2,,,74,127
40581,note_off,103,0,0,,2,,,74,127
40581,note_off,0,0,0,,11,,,70,127
40581,note_off,0,0,0,,7,,,67,127
40583,note_on,2,0,0,,2,,,74,127
40583,note_on,0,0,0,,7,,,67,127
40583,note_on,0,0,0,,11,,,70,127
40686,note_off,103,0,0,,2,,,74,127
40688,note_on,2,0,0,,1,,,73,127
40791,note_off,103,0,0,,1,,,73,127
40791,note_off,0,0,0,,11,,,70,127
40791,note_off,0,0,0,,7,,,67,127
40793,note_on,2,0,0,,1,,,73,127
40793,note_on,0,0,0,,5,,,65,127
40793,note_on,0,0,0,,10,,,69,127
40896,note_off,103,0,0,,1,,,73,127
40898,note_on,2,0,0,,2,,,74,127
41001,note_off,103,0,0,,2,,,74,127
41001,note_off,0,0,0,,10,,,69,127
41001,note_off,0,0,0,,5,,,65,127
41003,note_on,2,0,0,,2,,,74,127
41003,note_on,0,0,0,,5,,,65,127
41003,note_on,0,0,0,,10,,,69,127
41106,note_off,103,0,0,,2,,,74,127
41108,note_on,2,0,0,,1,,,73,127
41211,note_off,103,0,0,,1,,,73,127
41211,note_off,0,0,0,,10,,,69,127
41211,note_off,0,0,0,,5,,,65,127
41213,note_on,2,0,0,,1,,,73,127
41213,note_on,0,0,0,,5,,,65,127
41213,note_on,0,0,0,,10,,,69,127
41316,note_off,103,0,0,,1,,,73,127
41318,note_on,2,0,0,,2,,,74,127
41421,note_off,103,0,0,,10,,,69,127
41421,note_off,0,0,0,,5,,,65,127
41432,note_on,11,0,0,,5,,,65,127
41432,note_on,0,0,0,,8,,,68,127
41476,note_off,44,0,0,,2,,,74,127
41537,note_on,61,0,0,,5,,,77,127
41640,note_off,103,0,0,,5,,,77,127
41640,note_off,0,0,0,,8,,,68,127
41640,note_off,0,0,0,,5,,,65,127
41642,note_on,2,0,0,,2,,,74,127
41642,note_on,0,0,0,,5,,,65,127
41642,note_on,0,0,0,,8,,,68,127
41745,note_off,103,0,0,,2,,,74,127
41747,note_on,2,0,0,,0,,,72,127
41850,note_off,103,0,0,,0,,,72,127
41850,note_off,0,0,0,,8,,,68,127
41850,note_off,0,0,0,,5,,,65,127
41852,note_on,2,0,0,,0,,,72,127
41852,note_on,0,0,0,,5,,,65,127
41852,note_on,0,0,0,,8,,,68,127
41955,note_off,103,0,0,,0,,,72,127
41957,note_on,2,0,0,,12,,,71,127
42060,note_off,103,0,0,,12,,,71,127
42060,note_off,0,0,0,,8,,,68,127
42060,note_off,0,0,0,,5,,,65,127
42062,note_on,2,0,0,,12,,,71,127
42062,note_on,0,0,0,,3,,,63,127
42062,note_on,0,0,0,,7,,,67,127
42165,note_off,103,0,0,,12,,,71,127
42167,note_on,2,0,0,,0,,,72,127
42270,note_off,103,0,0,,0,,,72,127
42270,note_off,0,0,0,,7,,,67,127
42270,note_off,0,0,0,,3,,,63,127
42272,note_on,2,0,0,,0,,,72,127
42272,note_on,0,0,0,,3,,,63,127
42272,note_on,0,0,0,,7,,,67,127
42375,note_off,103,0,0,,0,,,72,127
42377,note_on,2,0,0,,12,,,71,127
42480,note_off,103,0,0,,12,,,71,127
42480,note_off,0,0,0,,7,,,67,127
42480,note_off,0,0,0,,3,,,63,127
42482,note_on,2,0,0,,12,,,71,127
42482,note_on,0,0,0,,3,,,63,127
42482,note_on,0,0,0,,7,,,67,127
42585,note_off,103,0,0,,12,,,71,127
42587,note_on,2,0,0,,0,,,72,127
42690,note_off,103,0,0,,7,,,67,127
42690,note_off,0,0,0,,3,,,63,127
42701,note_on,11,0,0,,8,,,68,127
42701,note_on,0,0,0,,5,,,65,127
42745,note_off,44,0,0,,0,,,72,127
42806,note_on,61,0,0,,5,,,77,127
42909,note_off,103,0,0,,5,,,77,127
42909,note_off,0,0,0,,5,,,65,127
42909,note_off,0,0,0,,8,,,68,127
42911,note_on,2,0,0,,2,,,74,127
42911,note_on,0,0,0,,5,,,65,127
42911,note_on,0,0,0,,8,,,68,127
43014,note_off,103,0,0,,2,,,74,127
43016,note_on,2,0,0,,0,,,72,127
43119,note_off,103,0,0,,0,,,72,127
43119,note_off,0,0,0,,8,,,68,127
43119,note_off,0,0,0,,5,,,65,127
43121,note_on,2,0,0,,0,,,72,127
43121,note_on,0,0,0,,5,,,65,127
43121,note_on,0,0,0,,8,,,68,127
43224,note_off,103,0,0,,0,,,72,127
43226,note_on,2,0,0,,12,,,71,127
43329,note_off,103,0,0,,12,,,71,127
43329,note_off,0,0,0,,8,,,68,127
43329,note_off,0,0,0,,5,,,65,127
43331,note_on,2,0,0,,12,,,71,127
43331,note_on,0,0,0,,7,,,67,127
43331,note_on,0,0,0,,4,,,64,127
43434,note_off,103,0,0,,12,,,71,127
43436,note_on,2,0,0,,0,,,72,127
43539,note_off,103,0,0,,0,,,72,127
43539,note_off,0,0,0,,4,,,64,127
43539,note_off,0,0,0,,7,,,67,127
43541,note_on,2,0,0,,0,,,72,127
43541,note_on,0,0,0,,4,,,64,127
43541,note_on,0,0,0,,7,,,67,127
43644,note_off,103,0,0,,0,,,72,127
43646,note_on,2,0,0,,12,,,71,127
43749,note_off,103,0,0,,12,,,71,127
43749,note_off,0,0,0,,7,,,67,127
43749,note_off,0,0,0,,4,,,64,127
43751,note_on,2,0,0,,12,,,71,127
43751,note_on,0,0,0,,7,,,67,127
43751,note_on,0,0,0,,4,,,64,127
43854,note_off,103,0,0,,12,,,71,127
43856,note_on,2,0,0,,0,,,72,127
43959,note_off,103,0,0,,4,,,64,127
43959,note_off,0,0,0,,7,,,67,127
43970,note_on,11,0,0,,7,,,67,127
43970,note_on,0,0,0,,11,,,70,127
44014,note_off,44,0,0,,0,,,72,127
44075,note_on,61,0,0,,11,,,82,127
44178,note_off,103,0,0,,11,,,82,127
44178,note_off,0,0,0,,11,,,70,127
44178,note_off,0,0,0,,7,,,67,127
44180,note_on,2,0,0,,7,,,79,127
44180,note_on,0,0,0,,7,,,67,127
44180,note_on,0,0,0,,11,,,70,127
44283,note_off,103,0,0,,7,,,79,127
44285,note_on,2,0,0,,5,,,77,127
44388,note_off,103,0,0,,5,,,77,127
44388,note_off,0,0,0,,11,,,70,127
44388,note_off,0,0,0,,7,,,67,127
44390,note_on,2,0,0,,5,,,77,127
44390,note_on,0,0,0,,11,,,70,127
44390,note_on,0,0,0,,7,,,67,127
44493,note_off,103,0,0,,5,,,77,127
44495,note_on,2,0,0,,4,,,76,127
44598,note_off,103,0,0,,4,,,76,127
44598,note_off,0,0,0,,7,,,67,127
44598,note_off,0,0,0,,11,,,70,127
44600,note_on,2,0,0,,4,,,76,127
44600,note_on,0,0,0,,8,,,68,127
44600,note_on,0,0,0,,0,,,72,127
44703,note_off,103,0,0,,4,,,76,127
44705,note_on,2,0,0,,5,,,77,127
44808,note_off,103,0,0,,5,,,77,127
44808,note_off,0,0,0,,0,,,72,127
44808,note_off,0,0,0,,8,,,68,127
44810,note_on,2,0,0,,5,,,77,127
44810,note_on,0,0,0,,8,,,68,127
44810,note_on,0,0,0,,0,,,72,127
44913,note_off,103,0,0,,5,,,77,127
44915,note_on,2,0,0,,4,,,76,127
45018,note_off,103,0,0,,4,,,76,127
45018,note_off,0,0,0,,0,,,72,127
45018,note_off,0,0,0,,8,,,68,127
45020,note_on,2,0,0,,4,,,76,127
45020,note_on,0,0,0,,0,,,72,127
45020,note_on,0,0,0,,8,,,68,127
45123,note_off,103,0,0,,4,,,76,127
45125,note_on,2,0,0,,5,,,77,127
45228,note_off,103,0,0,,8,,,68,127
45228,note_off,0,0,0,,0,,,72,127
45239,note_on,11,0,0,,7,,,67,127
45239,note_on,0,0,0,,11,,,70,127
45283,note_off,44,0,0,,5,,,77,127
45344,note_on,61,0,0,,11,,,82,127
45447,note_off,103,0,0,,11,,,82,127
45447,note_off,0,0,0,,11,,,70,127
45447,note_off,0,0,0,,7,,,67,127
45449,note_on,2,0,0,,7,,,79,127
45449,note_on,0,0,0,,7,,,67,127
45449,note_on,0,0,0,,11,,,70,127
45552,note_off,103,0,0,,7,,,79,127
45554,note_on,2,0,0,,5,,,77,127
45657,note_off,103,0,0,,5,,,77,127
45657,note_off,0,0,0,,11,,,70,127
45657,note_off,0,0,0,,7,,,67,127
45659,note_on,2,0,0,,5,,,77,127
45659,note_on,0,0,0,,7,,,67,127
45659,note_on,0,0,0,,11,,,70,127
45762,note_off,103,0,0,,5,,,77,127
45764,note_on,2,0,0,,4,,,76,127
45867,note_off,103,0,0,,4,,,76,127
45867,note_off,0,0,0,,11,,,70,127
45867,note_off,0,0,0,,7,,,67,127
45869,note_on,2,0,0,,4,,,76,127
45869,note_on,0,0,0,,8,,,68,127
45869,note_on,0,0,0,,0,,,72,127
45972,note_off,103,0,0,,4,,,76,127
45974,note_on,2,0,0,,5,,,77,127
46077,note_off,103,0,0,,5,,,77,127
46077,note_off,0,0,0,,0,,,72,127
46077,note_off,0,0,0,,8,,,68,127
46079,note_on,2,0,0,,5,,,77,127
46079,note_on,0,0,0,,0,,,72,127
46079,note_on,0,0,0,,8,,,68,127
46182,note_off,103,0,0,,5,,,77,127
46184,note_on,2,0,0,,3,,,75,127
46287,note_off,103,0,0,,3,,,75,127
46287,note_off,0,0,0,,8,,,68,127
46287,note_off,0,0,0,,0,,,72,127
46289,note_on,2,0,0,,3,,,75,127
46289,note_on,0,0,0,,11,,,70,127
46289,note_on,0,0,0,,7,,,67,127
46392,note_off,103,0,0,,3,,,75,127
46394,note_on,2,0,0,,1,,,73,127
46497,note_off,103,0,0,,1,,,73,127
46497,note_off,0,0,0,,7,,,67,127
46497,note_off,0,0,0,,11,,,70,127
46499,note_on,2,0,0,,1,,,73,127
46499,note_on,0,0,0,,5,,,65,127
46499,note_on,0,0,0,,8,,,68,127
46602,note_off,103,0,0,,1,,,73,127
46604,note_on,2,0,0,,0,,,72,127
46707,note_off,103,0,0,,0,,,72,127
46707,note_off,0,0,0,,8,,,68,127
46707,note_off,0,0,0,,5,,,65,127
46709,note_on,2,0,0,,0,,,72,127
46709,note_on,0,0,0,,3,,,63,127
46709,note_on,0,0,0,,7,,,67,127
46812,note_off,103,0,0,,0,,,72,127
46814,note_on,2,0,0,,11,,,70,127
46917,note_off,103,0,0,,11,,,70,127
46917,note_off,0,0,0,,7,,,67,127
46917,note_off,0,0,0,,3,,,63,127
46919,note_on,2,0,0,,11,,,70,127
46919,note_on,0,0,0,,1,,,61,127
46919,note_on,0,0,0,,5,,,65,127
47022,note_off,103,0,0,,11,,,70,127
47024,note_on,2,0,0,,8,,,68,127
47127,note_off,103,0,0,,8,,,68,127
47127,note_off,0,0,0,,5,,,65,127
47127,note_off,0,0,0,,1,,,61,127
47129,note_on,2,0,0,,8,,,68,127
47129,note_on,0,0,0,,3,,,63,127
47129,note_on,0,0,0,,0,,,60,127
47232,note_off,103,0,0,,8,,,68,127
47234,note_on,2,0,0,,7,,,67,127
47337,note_off,103,0,0,,7,,,67,127
47337,note_off,0,0,0,,0,,,60,127
47337,note_off,0,0,0,,3,,,63,127
47339,note_on,2,0,0,,7,,,67,127
47339,note_on,0,0,0,,11,,,58,127
47339,note_on,0,0,0,,1,,,61,127
47442,note_off,103,0,0,,7,,,67,127
47444,note_on,2,0,0,,5,,,65,127
47547,note_off,103,0,0,,5,,,65,127
47547,note_off,0,0,0,,1,,,61,127
47547,note_off,0,0,0,,11,,,58,127
47549,note_on,2,0,0,,5,,,65,127
47549,note_on,0,0,0,,8,,,56,127
47549,note_on,0,0,0,,0,,,60,127
47652,note_off,103,0,0,,5,,,65,127
47654,note_on,2,0,0,,4,,,64,127
47757,note_off,103,0,0,,4,,,64,127
47757,note_off,0,0,0,,0,,,60,127
47757,note_off,0,0,0,,8,,,56,127
47759,note_on,2,0,0,,4,,,64,127
47759,note_on,0,0,0,,11,,,58,127
47759,note_on,0,0,0,,7,,,55,127
47862,note_off,103,0,0,,4,,,64,127
47864,note_on,2,0,0,,5,,,65,127
47967,note_off,103,0,0,,5,,,65,127
47967,note_off,0,0,0,,7,,,55,127
47967,note_off,0,0,0,,11,,,58,127
47969,note_on,2,0,0,,7,,,67,127
47969,note_on,0,0,0,,0,,,60,127
47969,note_on,0,0,0,,8,,,56,127
48019,note_off,50,0,0,,7,,,67,127
48021,note_on,2,0,0,,5,,,65,127
48071,note_off,50,0,0,,5,,,65,127
48073,note_on,2,0,0,,7,,,67,127
48123,note_off,50,0,0,,7,,,67,127
48125,note_on,2,0,0,,5,,,65,127
48175,note_off,50,0,0,,5,,,65,127
48175,note_off,0,0,0,,8,,,56,127
48175,note_off,0,0,0,,0,,,60,127
48177,note_on,2,0,0,,7,,,67,127
48177,note_on,0,0,0,,5,,,53,127
48227,note_off,50,0,0,,7,,,67,127
48229,note_on,2,0,0,,5,,,65,127
48279,note_off,50,0,0,,5,,,65,127
48281,note_on,2,0,0,,4,,,64,127
48331,note_off,50,0,0,,4,,,64,127
48333,note_on,2,0,0,,5,,,65,127
48383,note_off,50,0,0,,5,,,65,127
48383,note_off,0,0,0,,5,,,53,127
48385,note_on,2,0,0,,5,,,65,127
48385,note_on,0,0,0,,0,,,60,127
48592,note_off,207,0,0,,0,,,60,127
48594,note_on,2,0,0,,0,,,48,127
48801,note_off,207,0,0,,5,,,65,127
48803,note_on,2,0,0,,7,,,67,127
49008,note_off,205,0,0,,0,,,48,127
49065,note_off,57,0,0,,7,,,67,127
49074,note_on,9,0,0,,7,,,67,127
49179,note_on,105,0,0,,4,,,64,127
49282,note_off,103,0,0,,4,,,64,127
49282,note_off,0,0,0,,7,,,67,127
49284,note_on,2,0,0,,10,,,69,127
49284,note_on,0,0,0,,5,,,65,127
49387,note_off,103,0,0,,5,,,65,127
49387,note_off,0,0,0,,10,,,69,127
49389,note_on,2,0,0,,11,,,70,127
49389,note_on,0,0,0,,2,,,62,127
49492,note_off,103,0,0,,2,,,62,127
49494,note_on,2,0,0,,0,,,60,127
49597,note_off,103,0,0,,11,,,70,127
49599,note_on,2,0,0,,0,,,72,127
49702,note_off,103,0,0,,0,,,72,127
49702,note_off,0,0,0,,0,,,60,127
49704,note_on,2,0,0,,7,,,67,127
49809,note_on,105,0,0,,4,,,64,127
49912,note_off,103,0,0,,4,,,64,127
49912,note_off,0,0,0,,7,,,67,127
49914,note_on,2,0,0,,10,,,69,127
49914,note_on,0,0,0,,5,,,65,127
50017,note_off,103,0,0,,5,,,65,127
50017,note_off,0,0,0,,10,,,69,127
50019,note_on,2,0,0,,11,,,70,127
50019,note_on,0,0,0,,2,,,62,127
50122,note_off,103,0,0,,2,,,62,127
50124,note_on,2,0,0,,0,,,60,127
50227,note_off,103,0,0,,11,,,70,127
50229,note_on,2,0,0,,0,,,72,127
50332,note_off,103,0,0,,0,,,72,127
50332,note_off,0,0,0,,0,,,60,127
50334,note_on,2,0,0,,5,,,65,127
50437,note_off,103,0,0,,5,,,65,127
50439,note_on,2,0,0,,4,,,64,127
50439,note_on,0,0,0,,11,,,58,127
50542,note_off,103,0,0,,11,,,58,127
50542,note_off,0,0,0,,4,,,64,127
50544,note_on,2,0,0,,5,,,65,127
50544,note_on,0,0,0,,10,,,57,127
50647,note_off,103,0,0,,10,,,57,127
50647,note_off,0,0,0,,5,,,65,127
50649,note_on,2,0,0,,7,,,67,127
50649,note_on,0,0,0,,7,,,55,127
50752,note_off,103,0,0,,7,,,55,127
50752,note_off,0,0,0,,7,,,67,127
50754,note_on,2,0,0,,10,,,69,127
50754,note_on,0,0,0,,5,,,53,127
50857,note_off,103,0,0,,10,,,69,127
50859,note_on,2,0,0,,5,,,65,127
50962,note_off,103,0,0,,5,,,65,127
50962,note_off,0,0,0,,5,,,53,127
50964,note_on,2,0,0,,7,,,67,127
50964,note_on,0,0,0,,4,,,52,127
51067,note_off,103,0,0,,7,,,67,127
51069,note_on,2,0,0,,11,,,70,127
51172,note_off,103,0,0,,11,,,70,127
51172,note_off,0,0,0,,4,,,52,127
51174,note_on,2,0,0,,10,,,69,127
51174,note_on,0,0,0,,5,,,53,127
51277,note_off,103,0,0,,10,,,69,127
51279,note_on,2,0,0,,0,,,72,127
51382,note_off,103,0,0,,0,,,72,127
51382,note_off,0,0,0,,5,,,53,127
51384,note_on,2,0,0,,12,,,71,127
51384,note_on,0,0,0,,2,,,50,127
51487,note_off,103,0,0,,12,,,71,127
51489,note_on,2,0,0,,2,,,74,127
51592,note_off,103,0,0,,2,,,74,127
51592,note_off,0,0,0,,2,,,50,127
51594,note_on,2,0,0,,0,,,72,127
51594,note_on,0,0,0,,4,,,52,127
51697,note_off,103,0,0,,0,,,72,127
51699,note_on,2,0,0,,4,,,76,127
51802,note_off,103,0,0,,4,,,76,127
51802,note_off,0,0,0,,4,,,52,127
51804,note_on,2,0,0,,2,,,74,127
51804,note_on,0,0,0,,12,,,47,127
51907,note_off,103,0,0,,2,,,74,127
51909,note_on,2,0,0,,5,,,77,127
52012,note_off,103,0,0,,5,,,77,127
52012,note_off,0,0,0,,12,,,47,127
52014,note_on,2,0,0,,4,,,76,127
52014,note_on,0,0,0,,0,,,48,127
52117,note_off,103,0,0,,4,,,76,127
52119,note_on,2,0,0,,7,,,79,127
52222,note_off,103,0,0,,7,,,79,127
52222,note_off,0,0,0,,0,,,48,127
52224,note_on,2,0,0,,5,,,77,127
52224,note_on,0,0,0,,10,,,45,127
52327,note_off,103,0,0,,5,,,77,127
52329,note_on,2,0,0,,10,,,81,127
52432,note_off,103,0,0,,10,,,81,127
52432,note_off,0,0,0,,10,,,45,127
52434,note_on,2,0,0,,7,,,79,127
52434,note_on,0,0,0,,4,,,40,127
52537,note_off,103,0,0,,7,,,79,127
52539,note_on,2,0,0,,4,,,76,127
52642,note_off,103,0,0,,4,,,76,127
52642,note_off,0,0,0,,4,,,40,127
52644,note_on,2,0,0,,10,,,81,127
52644,note_on,0,0,0,,5,,,41,127
52747,note_off,103,0,0,,10,,,81,127
52749,note_on,2,0,0,,0,,,72,127
52852,note_off,103,0,0,,0,,,72,127
52852,note_off,0,0,0,,5,,,41,127
52854,note_on,2,0,0,,0,,,72,127
52854,note_on,0,0,0,,7,,,43,127
52904,note_off,50,0,0,,0,,,72,127
52906,note_on,2,0,0,,12,,,71,127
52956,note_off,50,0,0,,12,,,71,127
52958,note_on,2,0,0,,0,,,72,127
53008,note_off,50,0,0,,0,,,72,127
53010,note_on,2,0,0,,12,,,71,127
53060,note_off,50,0,0,,12,,,71,127
53062,note_on,2,0,0,,0,,,72,127
53112,note_off,50,0,0,,0,,,72,127
53114,note_on,2,0,0,,12,,,71,127
53164,note_off,50,0,0,,12,,,71,127
53166,note_on,2,0,0,,10,,,69,127
53269,note_off,103,0,0,,10,,,69,127
53271,note_on,2,0,0,,7,,,67,127
53478,note_off,207,0,0,,7,,,67,127
53479,note_off,1,0,0,,7,,,43,127
53506,note_on,27,0,0,,2,,,74,127
53611,note_on,105,0,0,,12,,,71,127
53714,note_off,103,0,0,,12,,,71,127
53714,note_off,0,0,0,,2,,,74,127
53716,note_on,2,0,0,,0,,,72,127
53716,note_on,0,0,0,,4,,,76,127
53819,note_off,103,0,0,,4,,,76,127
53819,note_off,0,0,0,,0,,,72,127
53821,note_on,2,0,0,,10,,,69,127
53821,note_on,0,0,0,,5,,,77,127
53924,note_off,103,0,0,,10,,,69,127
53926,note_on,2,0,0,,7,,,67,127
54029,note_off,103,0,0,,5,,,77,127
54031,note_on,2,0,0,,7,,,79,127
54134,note_off,103,0,0,,7,,,79,127
54134,note_off,0,0,0,,7,,,67,127
54136,note_on,2,0,0,,2,,,74,127
54241,note_on,105,0,0,,12,,,71,127
54344,note_off,103,0,0,,12,,,71,127
54344,note_off,0,0,0,,2,,,74,127
54346,note_on,2,0,0,,0,,,72,127
54346,note_on,0,0,0,,4,,,76,127
54449,note_off,103,0,0,,4,,,76,127
54449,note_off,0,0,0,,0,,,72,127
54451,note_on,2,0,0,,10,,,69,127
54451,note_on,0,0,0,,5,,,77,127
54554,note_off,103,0,0,,10,,,69,127
54556,note_on,2,0,0,,7,,,67,127
54659,note_off,103,0,0,,5,,,77,127
54661,note_on,2,0,0,,7,,,79,127
54764,note_off,103,0,0,,7,,,79,127
54764,note_off,0,0,0,,7,,,67,127
54766,note_on,2,0,0,,0,,,72,127
54869,note_off,103,0,0,,0,,,72,127
54871,note_on,2,0,0,,5,,,65,127
54871,note_on,0,0,0,,12,,,71,127
54974,note_off,103,0,0,,12,,,71,127
54974,note_off,0,0,0,,5,,,65,127
54976,note_on,2,0,0,,4,,,64,127
54976,note_on,0,0,0,,0,,,72,127
55079,note_off,103,0,0,,0,,,72,127
55079,note_off,0,0,0,,4,,,64,127
55081,note_on,2,0,0,,2,,,62,127
55081,note_on,0,0,0,,2,,,74,127
55184,note_off,103,0,0,,2,,,74,127
55184,note_off,0,0,0,,2,,,62,127
55186,note_on,2,0,0,,0,,,60,127
55186,note_on,0,0,0,,4,,,76,127
55289,note_off,103,0,0,,4,,,76,127
55291,note_on,2,0,0,,0,,,72,127
55394,note_off,103,0,0,,0,,,72,127
55394,note_off,0,0,0,,0,,,60,127
55396,note_on,2,0,0,,5,,,53,127
55396,note_on,0,0,0,,2,,,74,127
55499,note_off,103,0,0,,2,,,74,127
55501,note_on,2,0,0,,5,,,77,127
55604,note_off,103,0,0,,5,,,77,127
55604,note_off,0,0,0,,5,,,53,127
55606,note_on,2,0,0,,7,,,55,127
55606,note_on,0,0,0,,4,,,76,127
55709,note_off,103,0,0,,4,,,76,127
55711,note_on,2,0,0,,2,,,74,127
55814,note_off,103,0,0,,2,,,74,127
55814,note_off,0,0,0,,7,,,55,127
55816,note_on,2,0,0,,7,,,43,127
55816,note_on,0,0,0,,0,,,72,127
55919,note_off,103,0,0,,0,,,72,127
55921,note_on,2,0,0,,12,,,71,127
56024,note_off,103,0,0,,12,,,71,127
56024,note_off,0,0,0,,7,,,43,127
56026,note_on,2,0,0,,0,,,48,127
56026,note_on,0,0,0,,12,,,71,127
56443,note_off,417,0,0,,12,,,71,127
56445,note_on,2,0,0,,0,,,72,127
56604,note_off,159,0,0,,0,,,48,127
56652,note_off,48,0,0,,0,,,72,127
56654,note_on,2,0,0,,2,,,74,127
56759,note_on,105,0,0,,12,,,71,127
56862,note_off,103,0,0,,12,,,71,127
56862,note_off,0,0,0,,2,,,74,127
56864,note_on,2,0,0,,0,,,72,127
56864,note_on,0,0,0,,4,,,76,127
56967,note_off,103,0,0,,4,,,76,127
56967,note_off,0,0,0,,0,,,72,127
56969,note_on,2,0,0,,10,,,69,127
56969,note_on,0,0,0,,5,,,77,127
57072,note_off,103,0,0,,10,,,69,127
57074,note_on,2,0,0,,7,,,67,127
57177,note_off,103,0,0,,5,,,77,127
57179,note_on,2,0,0,,7,,,79,127
57282,note_off,103,0,0,,7,,,79,127
57282,note_off,0,0,0,,7,,,67,127
57284,note_on,2,0,0,,2,,,74,127
57389,note_on,105,0,0,,12,,,71,127
57492,note_off,103,0,0,,12,,,71,127
57492,note_off,0,0,0,,2,,,74,127
57494,note_on,2,0,0,,0,,,72,127
57494,note_on,0,0,0,,4,,,76,127
57597,note_off,103,0,0,,4,,,76,127
57597,note_off,0,0,0,,0,,,72,127
57599,note_on,2,0,0,,10,,,69,127
57599,note_on,0,0,0,,5,,,77,127
57702,note_off,103,0,0,,10,,,69,127
57704,note_on,2,0,0,,7,,,67,127
57807,note_off,103,0,0,,5,,,77,127
57809,note_on,2,0,0,,7,,,79,127
57912,note_off,103,0,0,,7,,,79,127
57912,note_off,0,0,0,,7,,,67,127
57914,note_on,2,0,0,,0,,,72,127
58017,note_off,103,0,0,,0,,,72,127
58019,note_on,2,0,0,,5,,,65,127
58019,note_on,0,0,0,,12,,,71,127
58122,note_off,103,0,0,,12,,,71,127
58122,note_off,0,0,0,,5,,,65,127
58124,note_on,2,0,0,,4,,,64,127
58124,note_on,0,0,0,,0,,,72,127
58227,note_off,103,0,0,,0,,,72,127
58227,note_off,0,0,0,,4,,,64,127
58229,note_on,2,0,0,,2,,,62,127
58229,note_on,0,0,0,,2,,,74,127
58332,note_off,103,0,0,,2,,,74,127
58332,note_off,0,0,0,,2,,,62,127
58334,note_on,2,0,0,,0,,,60,127
58334,note_on,0,0,0,,4,,,76,127
58437,note_off,103,0,0,,4,,,76,127
58439,note_on,2,0,0,,0,,,72,127
58542,note_off,103,0,0,,0,,,72,127
58542,note_off,0,0,0,,0,,,60,127
58544,note_on,2,0,0,,5,,,53,127
58544,note_on,0,0,0,,2,,,74,127
58647,note_off,103,0,0,,2,,,74,127
58649,note_on,2,0,0,,5,,,77,127
58752,note_off,103,0,0,,5,,,77,127
58752,note_off,0,0,0,,5,,,53,127
58754,note_on,2,0,0,,7,,,55,127
58754,note_on,0,0,0,,4,,,76,127
58857,note_off,103,0,0,,4,,,76,127
58859,note_on,2,0,0,,2,,,74,127
58962,note_off,103,0,0,,2,,,74,127
58962,note_off,0,0,0,,7,,,55,127
58964,note_on,2,0,0,,7,,,43,127
58964,note_on,0,0,0,,0,,,72,127
59067,note_off,103,0,0,,0,,,72,127
59071,note_on,4,0,0,,12,,,71,127
59171,note_off,100,0,0,,12,,,71,127
59171,note_off,0,0,0,,7,,,43,127
59182,note_on,11,0,0,,0,,,36,127
59182,note_on,0,0,0,,0,,,48,127
59182,note_on,0,0,0,,0,,,72,127
59298,note_off,116,0,0,,0,,,72,127
59305,note_on,7,0,0,,4,,,88,127
59408,note_off,103,0,0,,4,,,88,127
59410,note_on,2,0,0,,2,,,86,127
59513,note_off,103,0,0,,2,,,86,127
59515,note_on,2,0,0,,0,,,84,127
59618,note_off,103,0,0,,0,,,84,127
59620,note_on,2,0,0,,12,,,83,127
59723,note_off,103,0,0,,12,,,83,127
59725,note_on,2,0,0,,10,,,81,127
59810,note_off,85,0,0,,0,,,48,127
59810,note_off,0,0,0,,0,,,36,127
59827,note_off,17,0,0,,10,,,81,127
59829,note_on,2,0,0,,7,,,79,127
59829,note_on,0,0,0,,2,,,50,127
59829,note_on,0,0,0,,2,,,38,127
59932,note_off,103,0,0,,7,,,79,127
59934,note_on,2,0,0,,5,,,77,127
60037,note_off,103,0,0,,5,,,77,127
60039,note_on,2,0,0,,10,,,81,127
60142,note_off,103,0,0,,10,,,81,127
60144,note_on,2,0,0,,7,,,79,127
60247,note_off,103,0,0,,7,,,79,127
60249,note_on,2,0,0,,5,,,77,127
60352,note_off,103,0,0,,5,,,77,127
60354,note_on,2,0,0,,4,,,76,127
60457,note_off,103,0,0,,4,,,76,127
60457,note_off,0,0,0,,2,,,38,127
60457,note_off,0,0,0,,2,,,50,127
60459,note_on,2,0,0,,7,,,79,127
60459,note_on,0,0,0,,4,,,40,127
60459,note_on,0,0,0,,4,,,52,127
60562,note_off,103,0,0,,7,,,79,127
60564,note_on,2,0,0,,5,,,77,127
60667,note_off,103,0,0,,5,,,77,127
60669,note_on,2,0,0,,4,,,76,127
60772,note_off,103,0,0,,4,,,76,127
60774,note_on,2,0,0,,2,,,74,127
60877,note_off,103,0,0,,2,,,74,127
60879,note_on,2,0,0,,5,,,77,127
60982,note_off,103,0,0,,5,,,77,127
60984,note_on,2,0,0,,4,,,76,127
61087,note_off,103,0,0,,4,,,76,127
61087,note_off,0,0,0,,4,,,52,127
61087,note_off,0,0,0,,4,,,40,127
61089,note_on,2,0,0,,2,,,74,127
61089,note_on,0,0,0,,5,,,41,127
61089,note_on,0,0,0,,5,,,53,127
61192,note_off,103,0,0,,2,,,74,127
61194,note_on,2,0,0,,0,,,72,127
61297,note_off,103,0,0,,0,,,72,127
61297,note_off,0,0,0,,5,,,53,127
61297,note_off,0,0,0,,5,,,41,127
61299,note_on,2,0,0,,12,,,71,127
61299,note_on,0,0,0,,7,,,55,127
61299,note_on,0,0,0,,7,,,43,127
61402,note_off,103,0,0,,12,,,71,127
61404,note_on,2,0,0,,0,,,72,127
61507,note_off,103,0,0,,0,,,72,127
61509,note_on,2,0,0,,2,,,74,127
61612,note_off,103,0,0,,2,,,74,127
61614,note_on,2,0,0,,12,,,71,127
61717,note_off,103,0,0,,12,,,71,127
61717,note_off,0,0,0,,7,,,43,127
61717,note_off,0,0,0,,7,,,55,127
61737,note_on,20,0,0,,0,,,36,127
61737,note_on,0,0,0,,0,,,48,127
61737,note_on,0,0,0,,0,,,72,127
61840,note_off,103,0,0,,0,,,72,127
61842,note_on,2,0,0,,4,,,88,127
61945,note_off,103,0,0,,4,,,88,127
61947,note_on,2,0,0,,2,,,86,127
62050,note_off,103,0,0,,2,,,86,127
62052,note_on,2,0,0,,0,,,84,127
62155,note_off,103,0,0,,0,,,84,127
62157,note_on,2,0,0,,12,,,83,127
62260,note_off,103,0,0,,12,,,83,127
62262,note_on,2,0,0,,10,,,81,127
62365,note_off,103,0,0,,10,,,81,127
62365,note_off,0,0,0,,0,,,48,127
62365,note_off,0,0,0,,0,,,36,127
62367,note_on,2,0,0,,2,,,38,127
62367,note_on,0,0,0,,2,,,50,127
62367,note_on,0,0,0,,7,,,79,127
62470,note_off,103,0,0,,7,,,79,127
62472,note_on,2,0,0,,5,,,77,127
62575,note_off,103,0,0,,5,,,77,127
62577,note_on,2,0,0,,10,,,81,127
62680,note_off,103,0,0,,10,,,81,127
62682,note_on,2,0,0,,7,,,79,127
62785,note_off,103,0,0,,7,,,79,127
62787,note_on,2,0,0,,5,,,77,127
62890,note_off,103,0,0,,5,,,77,127
62892,note_on,2,0,0,,4,,,76,127
62995,note_off,103,0,0,,4,,,76,127
62995,note_off,0,0,0,,2,,,50,127
62995,note_off,0,0,0,,2,,,38,127
62997,note_on,2,0,0,,4,,,40,127
62997,note_on,0,0,0,,4,,,52,127
62997,note_on,0,0,0,,7,,,79,127
63100,note_off,103,0,0,,7,,,79,127
63102,note_on,2,0,0,,5,,,77,127
63205,note_off,103,0,0,,5,,,77,127
63207,note_on,2,0,0,,4,,,76,127
63310,note_off,103,0,0,,4,,,76,127
63312,note_on,2,0,0,,2,,,74,127
63415,note_off,103,0,0,,2,,,74,127
63417,note_on,2,0,0,,5,,,77,127
63520,note_off,103,0,0,,5,,,77,127
63522,note_on,2,0,0,,4,,,76,127
63625,note_off,103,0,0,,4,,,76,127
63625,note_off,0,0,0,,4,,,52,127
63625,note_off,0,0,0,,4,,,40,127
63627,note_on,2,0,0,,5,,,41,127
63627,note_on,0,0,0,,5,,,53,127
63627,note_on,0,0,0,,2,,,74,127
63730,note_off,103,0,0,,2,,,74,127
63732,note_on,2,0,0,,0,,,72,127
63835,note_off,103,0,0,,0,,,72,127
63835,note_off,0,0,0,,5,,,53,127
63835,note_off,0,0,0,,5,,,41,127
63837,note_on,2,0,0,,7,,,43,127
63837,note_on,0,0,0,,7,,,55,127
63837,note_on,0,0,0,,12,,,71,127
63940,note_off,103,0,0,,12,,,71,127
63942,note_on,2,0,0,,0,,,72,127
64045,note_off,103,0,0,,0,,,72,127
64047,note_on,2,0,0,,2,,,74,127
64150,note_off,103,0,0,,2,,,74,127
64152,note_on,2,0,0,,12,,,71,127
64255,note_off,103,0,0,,12,,,71,127
64255,note_off,0,0,0,,7,,,55,127
64255,note_off,0,0,0,,7,,,43,127
64257,note_on,2,0,0,,0,,,36,127
64257,note_on,0,0,0,,0,,,48,127
64257,note_on,0,0,0,,0,,,72,127
64397,note_on,140,0,0,,12,,,83,127
64414,note_off,17,0,0,,0,,,72,127
64499,note_off,85,0,0,,12,,,83,127
64501,note_on,2,0,0,,0,,,84,127
64604,note_off,103,0,0,,0,,,84,127
64606,note_on,2,0,0,,7,,,79,127
64628,note_off,22,0,0,,0,,,36,127
64674,note_off,46,0,0,,0,,,48,127
64709,note_off,35,0,0,,7,,,79,127
64711,note_on,2,0,0,,4,,,64,127
64711,note_on,0,0,0,,7,,,79,127
64814,note_off,103,0,0,,7,,,79,127
64816,note_on,2,0,0,,8,,,80,127
64919,note_off,103,0,0,,8,,,80,127
64919,note_off,0,0,0,,4,,,64,127
64921,note_on,2,0,0,,5,,,65,127
64921,note_on,0,0,0,,8,,,80,127
65024,note_off,103,0,0,,8,,,80,127
65026,note_on,2,0,0,,10,,,81,127
65129,note_off,103,0,0,,10,,,81,127
65129,note_off,0,0,0,,5,,,65,127
65131,note_on,2,0,0,,2,,,62,127
65131,note_on,0,0,0,,10,,,81,127
65234,note_off,103,0,0,,10,,,81,127
65236,note_on,2,0,0,,5,,,77,127
65339,note_off,103,0,0,,5,,,77,127
65339,note_off,0,0,0,,2,,,62,127
65341,note_on,2,0,0,,12,,,59,127
65341,note_on,0,0,0,,5,,,77,127
65444,note_off,103,0,0,,5,,,77,127
65446,note_on,2,0,0,,6,,,78,127
65549,note_off,103,0,0,,6,,,78,127
65549,note_off,0,0,0,,12,,,59,127
65551,note_on,2,0,0,,4,,,64,127
65551,note_on,0,0,0,,6,,,78,127
65654,note_off,103,0,0,,6,,,78,127
65656,note_on,2,0,0,,7,,,79,127
65759,note_off,103,0,0,,7,,,79,127
65759,note_off,0,0,0,,4,,,64,127
65761,note_on,2,0,0,,0,,,60,127
65761,note_on,0,0,0,,7,,,79,127
65864,note_off,103,0,0,,7,,,79,127
65866,note_on,2,0,0,,4,,,76,127
65969,note_off,103,0,0,,4,,,76,127
65969,note_off,0,0,0,,0,,,60,127
65971,note_on,2,0,0,,4,,,52,127
65971,note_on,0,0,0,,4,,,76,127
66074,note_off,103,0,0,,4,,,76,127
66076,note_on,2,0,0,,0,,,72,127
66179,note_off,103,0,0,,0,,,72,127
66179,note_off,0,0,0,,4,,,52,127
66181,note_on,2,0,0,,5,,,53,127
66181,note_on,0,0,0,,2,,,74,127
66284,note_off,103,0,0,,2,,,74,127
66286,note_on,2,0,0,,5,,,77,127
66389,note_off,103,0,0,,5,,,77,127
66389,note_off,0,0,0,,5,,,53,127
66391,note_on,2,0,0,,7,,,55,127
66391,note_on,0,0,0,,4,,,76,127
66494,note_off,103,0,0,,4,,,76,127
66496,note_on,2,0,0,,2,,,74,127
66599,note_off,103,0,0,,2,,,74,127
66599,note_off,0,0,0,,7,,,55,127
66601,note_on,2,0,0,,7,,,43,127
66601,note_on,0,0,0,,0,,,72,127
66704,note_off,103,0,0,,0,,,72,127
66706,note_on,2,0,0,,12,,,71,127
66809,note_off,103,0,0,,12,,,71,127
66809,note_off,0,0,0,,7,,,43,127
66811,note_on,2,0,0,,0,,,48,127
66811,note_on,0,0,0,,0,,,72,127
66931,note_off,120,0,0,,0,,,72,127
66933,note_on,2,0,0,,12,,,83,127
67036,note_off,103,0,0,,12,,,83,127
67038,note_on,2,0,0,,0,,,84,127
67141,note_off,103,0,0,,0,,,84,127
67143,note_on,2,0,0,,7,,,79,127
67228,note_off,85,0,0,,0,,,48,127
67245,note_off,17,0,0,,7,,,79,127
67247,note_on,2,0,0,,7,,,79,127
67247,note_on,0,0,0,,4,,,52,127
67350,note_off,103,0,0,,7,,,79,127
67352,note_on,2,0,0,,8,,,80,127
67455,note_off,103,0,0,,8,,,80,127
67455,note_off,0,0,0,,4,,,52,127
67457,note_on,2,0,0,,8,,,80,127
67457,note_on,0,0,0,,5,,,53,127
67560,note_off,103,0,0,,8,,,80,127
67562,note_on,2,0,0,,10,,,81,127
67665,note_off,103,0,0,,10,,,81,127
67665,note_off,0,0,0,,5,,,53,127
67667,note_on,2,0,0,,10,,,81,127
67667,note_on,0,0,0,,2,,,50,127
67770,note_off,103,0,0,,10,,,81,127
67772,note_on,2,0,0,,5,,,77,127
67875,note_off,103,0,0,,5,,,77,127
67875,note_off,0,0,0,,2,,,50,127
67877,note_on,2,0,0,,5,,,77,127
67877,note_on,0,0,0,,12,,,47,127
67980,note_off,103,0,0,,5,,,77,127
67982,note_on,2,0,0,,6,,,78,127
68085,note_off,103,0,0,,6,,,78,127
68085,note_off,0,0,0,,12,,,47,127
68087,note_on,2,0,0,,6,,,78,127
68087,note_on,0,0,0,,4,,,52,127
68190,note_off,103,0,0,,6,,,78,127
68192,note_on,2,0,0,,7,,,79,127
68295,note_off,103,0,0,,7,,,79,127
68295,note_off,0,0,0,,4,,,52,127
68297,note_on,2,0,0,,7,,,79,127
68297,note_on,0,0,0,,0,,,48,127
68400,note_off,103,0,0,,7,,,79,127
68402,note_on,2,0,0,,4,,,76,127
68505,note_off,103,0,0,,4,,,76,127
68505,note_off,0,0,0,,0,,,48,127
68507,note_on,2,0,0,,4,,,76,127
68507,note_on,0,0,0,,4,,,40,127
68610,note_off,103,0,0,,4,,,76,127
68612,note_on,2,0,0,,0,,,72,127
68715,note_off,103,0,0,,0,,,72,127
68715,note_off,0,0,0,,4,,,40,127
68720,note_on,5,0,0,,5,,,41,127
68720,note_on,0,0,0,,2,,,74,127
68825,note_off,105,0,0,,2,,,74,127
68828,note_on,3,0,0,,5,,,77,127
68933,note_off,105,0,0,,5,,,77,127
68933,note_off,0,0,0,,5,,,41,127
68937,note_on,4,0,0,,7,,,43,127
68937,note_on,0,0,0,,4,,,76,127
69042,note_off,105,0,0,,4,,,76,127
69046,note_on,4,0,0,,2,,,74,127
69150,note_off,104,0,0,,7,,,43,127
69151,note_off,1,0,0,,2,,,74,127
69155,note_on,4,0,0,,7,,,31,127
69155,note_on,0,0,0,,0,,,72,127
69260,note_off,105,0,0,,0,,,72,127
69264,note_on,4,0,0,,12,,,71,127
69379,note_off,115,0,0,,12,,,71,127
69380,note_off,1,0,0,,7,,,31,127
69397,note_on,17,0,0,,0,,,72,127
69397,note_on,0,0,0,,0,,,36,127
69397,note_on,0,0,0,,0,,,48,127
71459,note_off,2062,0,0,,0,,,48,127
71459,note_off,0,0,0,,0,,,36,127
71459,note_off,0,0,0,,0,,,72,127
76800,end_of_track,5341,1,0,,,,,,
