tick,type,time,meta,track,program,channel,pitch,tempo,note,velocity
0,copyright,0,1,0,,,,,,
0,program_change,0,0,0,6,0,,,,
0,pitchwheel,0,0,0,,0,0,,,
0,program_change,0,0,0,6,1,,,,
0,pitchwheel,0,0,0,,1,-590,,,
0,program_change,0,0,0,6,2,,,,
0,pitchwheel,0,0,0,,2,-272,,,
0,program_change,0,0,0,6,3,,,,
0,pitchwheel,0,0,0,,3,-353,,,
0,program_change,0,0,0,6,4,,,,
0,pitchwheel,0,0,0,,4,-560,,,
0,program_change,0,0,0,6,5,,,,
0,pitchwheel,0,0,0,,5,-80,,,
0,program_change,0,0,0,6,6,,,,
0,pitchwheel,0,0,0,,6,-625,,,
0,program_change,0,0,0,6,7,,,,
0,pitchwheel,0,0,0,,7,-130,,,
0,program_change,0,0,0,6,8,,,,
0,pitchwheel,0,0,0,,8,-512,,,
0,program_change,0,0,0,6,10,,,,
0,pitchwheel,0,0,0,,10,-464,,,
0,program_change,0,0,0,6,11,,,,
0,pitchwheel,0,0,0,,11,-208,,,
0,program_change,0,0,0,6,12,,,,
0,pitchwheel,0,0,0,,12,-553,,,
0,set_tempo,0,1,0,,,,500000,,
200,note_on,200,0,0,,10,,,81,127
299,note_off,99,0,0,,10,,,81,127
300,note_on,1,0,0,,7,,,79,127
399,note_off,99,0,0,,7,,,79,127
400,note_on,1,0,0,,6,,,78,127
499,note_off,99,0,0,,6,,,78,127
500,note_on,1,0,0,,4,,,76,127
599,note_off,99,0,0,,4,,,76,127
600,note_on,1,0,0,,2,,,74,127
799,note_off,199,0,0,,2,,,74,127
800,note_on,1,0,0,,1,,,73,127
999,note_off,199,0,0,,1,,,73,127
1000,note_on,1,0,0,,2,,,74,127
1199,note_off,199,0,0,,2,,,74,127
1200,note_on,1,0,0,,10,,,69,127
1399,note_off,199,0,0,,10,,,69,127
1400,note_on,1,0,0,,10,,,81,127
1499,note_off,99,0,0,,10,,,81,127
1500,note_on,1,0,0,,7,,,79,127
1599,note_off,99,0,0,,7,,,79,127
1600,note_on,1,0,0,,6,,,78,127
1699,note_off,99,0,0,,6,,,78,127
1700,note_on,1,0,0,,4,,,76,127
1799,note_off,99,0,0,,4,,,76,127
1800,note_on,1,0,0,,2,,,74,127
1999,note_off,199,0,0,,2,,,74,127
2000,note_on,1,0,0,,1,,,73,127
2199,note_off,199,0,0,,1,,,73,127
2200,note_on,1,0,0,,2,,,74,127
2399,note_off,199,0,0,,2,,,74,127
2400,note_on,1,0,0,,10,,,69,127
2600,note_on,200,0,0,,10,,,57,127
2699,note_off,99,0,0,,10,,,57,127
2700,note_on,1,0,0,,12,,,59,127
2799,note_off,99,0,0,,12,,,59,127
2800,note_on,1,0,0,,1,,,61,127
2899,note_off,99,0,0,,1,,,61,127
2900,note_on,1,0,0,,2,,,62,127
2999,note_off,99,0,0,,2,,,62,127
3000,note_on,1,0,0,,4,,,64,127
3099,note_off,99,0,0,,4,,,64,127
3100,note_on,1,0,0,,6,,,66,127
3199,note_off,99,0,0,,6,,,66,127
3199,note_off,0,0,0,,10,,,69,127
3200,note_on,1,0,0,,7,,,67,127
3299,note_off,99,0,0,,7,,,67,127
3300,note_on,1,0,0,,4,,,64,127
3399,note_off,99,0,0,,4,,,64,127
3400,note_on,1,0,0,,10,,,69,127
3499,note_off,99,0,0,,10,,,69,127
3500,note_on,1,0,0,,7,,,67,127
3599,note_off,99,0,0,,7,,,67,127
3600,note_on,1,0,0,,10,,,69,127
3600,note_on,0,0,0,,6,,,66,127
3699,note_off,99,0,0,,10,,,69,127
3700,note_on,1,0,0,,12,,,71,127
3799,note_off,99,0,0,,12,,,71,127
3799,note_off,0,0,0,,6,,,66,127
3800,note_on,1,0,0,,1,,,73,127
3800,note_on,0,0,0,,4,,,64,127
3899,note_off,99,0,0,,1,,,73,127
3900,note_on,1,0,0,,2,,,74,127
3999,note_off,99,0,0,,2,,,74,127
3999,note_off,0,0,0,,4,,,64,127
4000,note_on,1,0,0,,4,,,76,127
4000,note_on,0,0,0,,2,,,62,127
4099,note_off,99,0,0,,4,,,76,127
4100,note_on,1,0,0,,6,,,78,127
4199,note_off,99,0,0,,6,,,78,127
4199,note_off,0,0,0,,2,,,62,127
4200,note_on,1,0,0,,4,,,76,127
4200,note_on,0,0,0,,7,,,79,127
4200,note_on,0,0,0,,7,,,55,127
4399,note_off,199,0,0,,7,,,55,127
4399,note_off,0,0,0,,7,,,79,127
4399,note_off,0,0,0,,4,,,76,127
4400,note_on,1,0,0,,2,,,74,127
4400,note_on,0,0,0,,6,,,78,127
4400,note_on,0,0,0,,10,,,57,127
4599,note_off,199,0,0,,6,,,78,127
4599,note_off,0,0,0,,2,,,74,127
4600,note_on,1,0,0,,4,,,76,127
4600,note_on,0,0,0,,1,,,73,127
4600,note_on,0,0,0,,10,,,45,127
4799,note_off,199,0,0,,10,,,45,127
4799,note_off,0,0,0,,1,,,73,127
4799,note_off,0,0,0,,4,,,76,127
4799,note_off,0,0,0,,10,,,57,127
4800,note_on,1,0,0,,2,,,74,127
4800,note_on,0,0,0,,2,,,38,127
4999,note_off,199,0,0,,2,,,74,127
5000,note_on,1,0,0,,2,,,62,127
5099,note_off,99,0,0,,2,,,62,127
5100,note_on,1,0,0,,6,,,66,127
5199,note_off,99,0,0,,6,,,66,127
5200,note_on,1,0,0,,10,,,69,127
5299,note_off,99,0,0,,10,,,69,127
5300,note_on,1,0,0,,2,,,74,127
5399,note_off,99,0,0,,2,,,74,127
5399,note_off,0,0,0,,2,,,38,127
5400,note_on,1,0,0,,6,,,78,127
5499,note_off,99,0,0,,6,,,78,127
5500,note_on,1,0,0,,10,,,81,127
5599,note_off,99,0,0,,10,,,81,127
5600,note_on,1,0,0,,2,,,86,127
5600,note_on,0,0,0,,2,,,50,127
5699,note_off,99,0,0,,2,,,86,127
5700,note_on,1,0,0,,6,,,78,127
5799,note_off,99,0,0,,6,,,78,127
5799,note_off,0,0,0,,2,,,50,127
5800,note_on,1,0,0,,4,,,76,127
5800,note_on,0,0,0,,10,,,45,127
5899,note_off,99,0,0,,4,,,76,127
5900,note_on,1,0,0,,1,,,85,127
5999,note_off,99,0,0,,1,,,85,127
5999,note_off,0,0,0,,10,,,45,127
6000,note_on,1,0,0,,2,,,86,127
6000,note_on,0,0,0,,2,,,38,127
6199,note_off,199,0,0,,2,,,86,127
6200,note_on,1,0,0,,2,,,62,127
6299,note_off,99,0,0,,2,,,62,127
6300,note_on,1,0,0,,6,,,66,127
6399,note_off,99,0,0,,6,,,66,127
6400,note_on,1,0,0,,10,,,69,127
6499,note_off,99,0,0,,10,,,69,127
6500,note_on,1,0,0,,2,,,74,127
6599,note_off,99,0,0,,2,,,74,127
6599,note_off,0,0,0,,2,,,38,127
6600,note_on,1,0,0,,6,,,78,127
6699,note_off,99,0,0,,6,,,78,127
6700,note_on,1,0,0,,10,,,81,127
6799,note_off,99,0,0,,10,,,81,127
6800,note_on,1,0,0,,2,,,86,127
6800,note_on,0,0,0,,2,,,50,127
6899,note_off,99,0,0,,2,,,86,127
6900,note_on,1,0,0,,6,,,78,127
6999,note_off,99,0,0,,6,,,78,127
6999,note_off,0,0,0,,2,,,50,127
7000,note_on,1,0,0,,4,,,76,127
7000,note_on,0,0,0,,10,,,45,127
7099,note_off,99,0,0,,4,,,76,127
7100,note_on,1,0,0,,1,,,85,127
7199,note_off,99,0,0,,1,,,85,127
7199,note_off,0,0,0,,10,,,45,127
7200,note_on,1,0,0,,2,,,86,127
7200,note_on,0,0,0,,2,,,38,127
7399,note_off,199,0,0,,2,,,38,127
7400,note_on,1,0,0,,2,,,50,127
7499,note_off,99,0,0,,2,,,50,127
7500,note_on,1,0,0,,6,,,54,127
7599,note_off,99,0,0,,6,,,54,127
7600,note_on,1,0,0,,10,,,57,127
7699,note_off,99,0,0,,10,,,57,127
7700,note_on,1,0,0,,2,,,62,127
7799,note_off,99,0,0,,2,,,62,127
7800,note_on,1,0,0,,6,,,66,127
7899,note_off,99,0,0,,6,,,66,127
7900,note_on,1,0,0,,10,,,69,127
7999,note_off,99,0,0,,10,,,69,127
7999,note_off,0,0,0,,2,,,86,127
8000,note_on,1,0,0,,2,,,74,127
8100,note_on,100,0,0,,2,,,86,127
8199,note_off,99,0,0,,2,,,86,127
8199,note_off,0,0,0,,2,,,74,127
8200,note_on,1,0,0,,4,,,76,127
8200,note_on,0,0,0,,10,,,45,127
8299,note_off,99,0,0,,4,,,76,127
8300,note_on,1,0,0,,1,,,85,127
8399,note_off,99,0,0,,1,,,85,127
8399,note_off,0,0,0,,10,,,45,127
8400,note_on,1,0,0,,2,,,86,127
8400,note_on,0,0,0,,2,,,38,127
8599,note_off,199,0,0,,2,,,38,127
8600,note_on,1,0,0,,2,,,50,127
8699,note_off,99,0,0,,2,,,50,127
8700,note_on,1,0,0,,6,,,54,127
8799,note_off,99,0,0,,6,,,54,127
8800,note_on,1,0,0,,10,,,57,127
8899,note_off,99,0,0,,10,,,57,127
8900,note_on,1,0,0,,2,,,62,127
8999,note_off,99,0,0,,2,,,62,127
9000,note_on,1,0,0,,6,,,66,127
9099,note_off,99,0,0,,6,,,66,127
9100,note_on,1,0,0,,10,,,69,127
9199,note_off,99,0,0,,10,,,69,127
9199,note_off,0,0,0,,2,,,86,127
9200,note_on,1,0,0,,2,,,74,127
9300,note_on,100,0,0,,2,,,86,127
9399,note_off,99,0,0,,2,,,86,127
9399,note_off,0,0,0,,2,,,74,127
9400,note_on,1,0,0,,4,,,76,127
9400,note_on,0,0,0,,10,,,45,127
9499,note_off,99,0,0,,4,,,76,127
9500,note_on,1,0,0,,1,,,85,127
9599,note_off,99,0,0,,1,,,85,127
9599,note_off,0,0,0,,10,,,45,127
9600,note_on,1,0,0,,2,,,86,127
9600,note_on,0,0,0,,2,,,38,127
9699,note_off,99,0,0,,2,,,86,127
9700,note_on,1,0,0,,10,,,81,127
9799,note_off,99,0,0,,10,,,81,127
9800,note_on,1,0,0,,6,,,78,127
9899,note_off,99,0,0,,6,,,78,127
9900,note_on,1,0,0,,2,,,74,127
9999,note_off,99,0,0,,2,,,74,127
9999,note_off,0,0,0,,2,,,38,127
10000,note_on,1,0,0,,12,,,83,127
10000,note_on,0,0,0,,2,,,62,127
10099,note_off,99,0,0,,12,,,83,127
10100,note_on,1,0,0,,8,,,80,127
10199,note_off,99,0,0,,8,,,80,127
10199,note_off,0,0,0,,2,,,62,127
10200,note_on,1,0,0,,10,,,81,127
10200,note_on,0,0,0,,1,,,61,127
10299,note_off,99,0,0,,10,,,81,127
10300,note_on,1,0,0,,4,,,76,127
10399,note_off,99,0,0,,4,,,76,127
10400,note_on,1,0,0,,1,,,73,127
10499,note_off,99,0,0,,1,,,73,127
10500,note_on,1,0,0,,10,,,69,127
10599,note_off,99,0,0,,10,,,69,127
10599,note_off,0,0,0,,1,,,61,127
10600,note_on,1,0,0,,2,,,74,127
10600,note_on,0,0,0,,12,,,59,127
10699,note_off,99,0,0,,2,,,74,127
10700,note_on,1,0,0,,12,,,71,127
10799,note_off,99,0,0,,12,,,71,127
10799,note_off,0,0,0,,12,,,59,127
10800,note_on,1,0,0,,4,,,76,127
10800,note_on,0,0,0,,10,,,57,127
10899,note_off,99,0,0,,4,,,76,127
10900,note_on,1,0,0,,1,,,73,127
10999,note_off,99,0,0,,1,,,73,127
11000,note_on,1,0,0,,10,,,69,127
11099,note_off,99,0,0,,10,,,69,127
11100,note_on,1,0,0,,4,,,64,127
11199,note_off,99,0,0,,4,,,64,127
11199,note_off,0,0,0,,10,,,57,127
11200,note_on,1,0,0,,12,,,71,127
11200,note_on,0,0,0,,2,,,50,127
11299,note_off,99,0,0,,12,,,71,127
11300,note_on,1,0,0,,8,,,68,127
11399,note_off,99,0,0,,8,,,68,127
11399,note_off,0,0,0,,2,,,50,127
11400,note_on,1,0,0,,10,,,69,127
11400,note_on,0,0,0,,1,,,49,127
11499,note_off,99,0,0,,10,,,69,127
11500,note_on,1,0,0,,4,,,64,127
11599,note_off,99,0,0,,4,,,64,127
11600,note_on,1,0,0,,1,,,61,127
11699,note_off,99,0,0,,1,,,61,127
11700,note_on,1,0,0,,10,,,57,127
11799,note_off,99,0,0,,10,,,57,127
11799,note_off,0,0,0,,1,,,49,127
11800,note_on,1,0,0,,2,,,62,127
11800,note_on,0,0,0,,12,,,47,127
11899,note_off,99,0,0,,2,,,62,127
11900,note_on,1,0,0,,12,,,59,127
11999,note_off,99,0,0,,12,,,59,127
11999,note_off,0,0,0,,12,,,47,127
12000,note_on,1,0,0,,1,,,61,127
12000,note_on,0,0,0,,10,,,45,127
12199,note_off,199,0,0,,10,,,45,127
12199,note_off,0,0,0,,1,,,61,127
12200,note_on,1,0,0,,10,,,69,127
12200,note_on,0,0,0,,10,,,57,127
12299,note_off,99,0,0,,10,,,57,127
12300,note_on,1,0,0,,8,,,56,127
12399,note_off,99,0,0,,8,,,56,127
12399,note_off,0,0,0,,10,,,69,127
12400,note_on,1,0,0,,10,,,69,127
12400,note_on,0,0,0,,6,,,54,127
12499,note_off,99,0,0,,6,,,54,127
12500,note_on,1,0,0,,4,,,52,127
12599,note_off,99,0,0,,4,,,52,127
12599,note_off,0,0,0,,10,,,69,127
12600,note_on,1,0,0,,10,,,69,127
12600,note_on,0,0,0,,2,,,50,127
12799,note_off,199,0,0,,2,,,50,127
12799,note_off,0,0,0,,10,,,69,127
12800,note_on,1,0,0,,12,,,71,127
12800,note_on,0,0,0,,12,,,59,127
12899,note_off,99,0,0,,12,,,59,127
12900,note_on,1,0,0,,10,,,57,127
12999,note_off,99,0,0,,10,,,57,127
12999,note_off,0,0,0,,12,,,71,127
13000,note_on,1,0,0,,12,,,71,127
13000,note_on,0,0,0,,8,,,56,127
13099,note_off,99,0,0,,8,,,56,127
13100,note_on,1,0,0,,6,,,54,127
13199,note_off,99,0,0,,6,,,54,127
13199,note_off,0,0,0,,12,,,71,127
13200,note_on,1,0,0,,12,,,71,127
13200,note_on,0,0,0,,4,,,52,127
13399,note_off,199,0,0,,4,,,52,127
13399,note_off,0,0,0,,12,,,71,127
13400,note_on,1,0,0,,8,,,68,127
13400,note_on,0,0,0,,12,,,71,127
13400,note_on,0,0,0,,4,,,64,127
13499,note_off,99,0,0,,4,,,64,127
13500,note_on,1,0,0,,2,,,62,127
13599,note_off,99,0,0,,2,,,62,127
13599,note_off,0,0,0,,12,,,71,127
13599,note_off,0,0,0,,8,,,68,127
13600,note_on,1,0,0,,8,,,68,127
13600,note_on,0,0,0,,12,,,71,127
13600,note_on,0,0,0,,1,,,61,127
13699,note_off,99,0,0,,1,,,61,127
13700,note_on,1,0,0,,12,,,59,127
13799,note_off,99,0,0,,12,,,59,127
13799,note_off,0,0,0,,12,,,71,127
13799,note_off,0,0,0,,8,,,68,127
13800,note_on,1,0,0,,10,,,69,127
13800,note_on,0,0,0,,1,,,73,127
13800,note_on,0,0,0,,10,,,57,127
13999,note_off,199,0,0,,10,,,57,127
13999,note_off,0,0,0,,1,,,73,127
13999,note_off,0,0,0,,10,,,69,127
14000,note_on,1,0,0,,12,,,71,127
14000,note_on,0,0,0,,4,,,64,127
14099,note_off,99,0,0,,4,,,64,127
14100,note_on,1,0,0,,2,,,62,127
14199,note_off,99,0,0,,2,,,62,127
14200,note_on,1,0,0,,2,,,74,127
14200,note_on,0,0,0,,1,,,61,127
14299,note_off,99,0,0,,1,,,61,127
14300,note_on,1,0,0,,12,,,59,127
14399,note_off,99,0,0,,12,,,59,127
14399,note_off,0,0,0,,2,,,74,127
14399,note_off,0,0,0,,12,,,71,127
14400,note_on,1,0,0,,1,,,73,127
14400,note_on,0,0,0,,10,,,69,127
14400,note_on,0,0,0,,10,,,57,127
14599,note_off,199,0,0,,10,,,57,127
14599,note_off,0,0,0,,10,,,69,127
14599,note_off,0,0,0,,1,,,73,127
14600,note_on,1,0,0,,12,,,71,127
14600,note_on,0,0,0,,4,,,64,127
14699,note_off,99,0,0,,4,,,64,127
14700,note_on,1,0,0,,2,,,62,127
14799,note_off,99,0,0,,2,,,62,127
14800,note_on,1,0,0,,2,,,74,127
14800,note_on,0,0,0,,1,,,61,127
14899,note_off,99,0,0,,1,,,61,127
14900,note_on,1,0,0,,12,,,59,127
14999,note_off,99,0,0,,12,,,59,127
14999,note_off,0,0,0,,2,,,74,127
14999,note_off,0,0,0,,12,,,71,127
15000,note_on,1,0,0,,1,,,73,127
15000,note_on,0,0,0,,10,,,57,127
15199,note_off,199,0,0,,10,,,57,127
15200,note_on,1,0,0,,4,,,76,127
15200,note_on,0,0,0,,10,,,69,127
15299,note_off,99,0,0,,4,,,76,127
15300,note_on,1,0,0,,2,,,74,127
15399,note_off,99,0,0,,2,,,74,127
15399,note_off,0,0,0,,10,,,69,127
15399,note_off,0,0,0,,1,,,73,127
15400,note_on,1,0,0,,8,,,80,127
15400,note_on,0,0,0,,1,,,73,127
15400,note_on,0,0,0,,4,,,64,127
15499,note_off,99,0,0,,1,,,73,127
15500,note_on,1,0,0,,12,,,71,127
15599,note_off,99,0,0,,12,,,71,127
15599,note_off,0,0,0,,4,,,64,127
15599,note_off,0,0,0,,8,,,80,127
15600,note_on,1,0,0,,10,,,81,127
15600,note_on,0,0,0,,1,,,61,127
15799,note_off,199,0,0,,1,,,61,127
15800,note_on,1,0,0,,4,,,76,127
15800,note_on,0,0,0,,10,,,57,127
15999,note_off,199,0,0,,10,,,57,127
15999,note_off,0,0,0,,10,,,81,127
16000,note_on,1,0,0,,8,,,80,127
16000,note_on,0,0,0,,4,,,52,127
16199,note_off,199,0,0,,4,,,52,127
16199,note_off,0,0,0,,8,,,80,127
16200,note_on,1,0,0,,10,,,81,127
16200,note_on,0,0,0,,1,,,49,127
16399,note_off,199,0,0,,1,,,49,127
16399,note_off,0,0,0,,4,,,76,127
16400,note_on,1,0,0,,4,,,76,127
16400,note_on,0,0,0,,10,,,45,127
16599,note_off,199,0,0,,10,,,45,127
16599,note_off,0,0,0,,10,,,81,127
16600,note_on,1,0,0,,8,,,80,127
16600,note_on,0,0,0,,4,,,40,127
16799,note_off,199,0,0,,4,,,40,127
16799,note_off,0,0,0,,8,,,80,127
16800,note_on,1,0,0,,10,,,81,127
16800,note_on,0,0,0,,10,,,33,127
16999,note_off,199,0,0,,10,,,33,127
16999,note_off,0,0,0,,4,,,76,127
17000,note_on,1,0,0,,4,,,76,127
17000,note_on,0,0,0,,10,,,69,127
17199,note_off,199,0,0,,10,,,69,127
17199,note_off,0,0,0,,10,,,81,127
17200,note_on,1,0,0,,8,,,80,127
17200,note_on,0,0,0,,4,,,64,127
17399,note_off,199,0,0,,4,,,64,127
17399,note_off,0,0,0,,8,,,80,127
17400,note_on,1,0,0,,10,,,81,127
17400,note_on,0,0,0,,1,,,61,127
17599,note_off,199,0,0,,1,,,61,127
17599,note_off,0,0,0,,4,,,76,127
17600,note_on,1,0,0,,4,,,76,127
17600,note_on,0,0,0,,10,,,57,127
17799,note_off,199,0,0,,10,,,57,127
17799,note_off,0,0,0,,10,,,81,127
17800,note_on,1,0,0,,8,,,80,127
17800,note_on,0,0,0,,4,,,52,127
17999,note_off,199,0,0,,4,,,52,127
17999,note_off,0,0,0,,8,,,80,127
18000,note_on,1,0,0,,10,,,81,127
18000,note_on,0,0,0,,1,,,49,127
18199,note_off,199,0,0,,1,,,49,127
18199,note_off,0,0,0,,4,,,76,127
18200,note_on,1,0,0,,4,,,76,127
18200,note_on,0,0,0,,10,,,45,127
18399,note_off,199,0,0,,10,,,45,127
18399,note_off,0,0,0,,10,,,81,127
18400,note_on,1,0,0,,8,,,80,127
18400,note_on,0,0,0,,4,,,40,127
18599,note_off,199,0,0,,4,,,40,127
18599,note_off,0,0,0,,8,,,80,127
18599,note_off,0,0,0,,4,,,76,127
18600,note_on,1,0,0,,10,,,81,127
18600,note_on,0,0,0,,10,,,69,127
18600,note_on,0,0,0,,10,,,33,127
18699,note_off,99,0,0,,10,,,81,127
18700,note_on,1,0,0,,4,,,76,127
18799,note_off,99,0,0,,4,,,76,127
18799,note_off,0,0,0,,10,,,33,127
18800,note_on,1,0,0,,1,,,73,127
18800,note_on,0,0,0,,10,,,57,127
18898,note_off,98,0,0,,10,,,69,127
18899,note_off,1,0,0,,1,,,73,127
18900,note_on,1,0,0,,10,,,69,127
18999,note_off,99,0,0,,10,,,69,127
19000,note_on,1,0,0,,1,,,73,127
19000,note_on,0,0,0,,10,,,45,127
19099,note_off,99,0,0,,1,,,73,127
19100,note_on,1,0,0,,4,,,76,127
19199,note_off,99,0,0,,4,,,76,127
19199,note_off,0,0,0,,10,,,45,127
19199,note_off,0,0,0,,10,,,57,127
19200,note_on,1,0,0,,12,,,71,127
19200,note_on,0,0,0,,2,,,50,127
19299,note_off,99,0,0,,12,,,71,127
19300,note_on,1,0,0,,2,,,74,127
19399,note_off,99,0,0,,2,,,74,127
19399,note_off,0,0,0,,2,,,50,127
19400,note_on,1,0,0,,1,,,73,127
19400,note_on,0,0,0,,4,,,52,127
19499,note_off,99,0,0,,1,,,73,127
19500,note_on,1,0,0,,4,,,76,127
19599,note_off,99,0,0,,4,,,76,127
19600,note_on,1,0,0,,10,,,69,127
19600,note_on,0,0,0,,4,,,40,127
19699,note_off,99,0,0,,10,,,69,127
19700,note_on,1,0,0,,8,,,68,127
19799,note_off,99,0,0,,8,,,68,127
19799,note_off,0,0,0,,4,,,40,127
19799,note_off,0,0,0,,4,,,52,127
19800,note_on,1,0,0,,10,,,69,127
19800,note_on,0,0,0,,10,,,45,127
19899,note_off,99,0,0,,10,,,45,127
19900,note_on,1,0,0,,1,,,49,127
19999,note_off,99,0,0,,1,,,49,127
20000,note_on,1,0,0,,4,,,52,127
20099,note_off,99,0,0,,4,,,52,127
20100,note_on,1,0,0,,10,,,57,127
20199,note_off,99,0,0,,10,,,57,127
20200,note_on,1,0,0,,1,,,49,127
20299,note_off,99,0,0,,1,,,49,127
20300,note_on,1,0,0,,10,,,57,127
20399,note_off,99,0,0,,10,,,57,127
20399,note_off,0,0,0,,10,,,69,127
20400,note_on,1,0,0,,2,,,50,127
20499,note_off,99,0,0,,2,,,50,127
20500,note_on,1,0,0,,12,,,59,127
20599,note_off,99,0,0,,12,,,59,127
20600,note_on,1,0,0,,4,,,52,127
20699,note_off,99,0,0,,4,,,52,127
20700,note_on,1,0,0,,12,,,59,127
20799,note_off,99,0,0,,12,,,59,127
20800,note_on,1,0,0,,12,,,71,127
20800,note_on,0,0,0,,12,,,83,127
20800,note_on,0,0,0,,8,,,56,127
20899,note_off,99,0,0,,8,,,56,127
20900,note_on,1,0,0,,12,,,59,127
20999,note_off,99,0,0,,12,,,59,127
20999,note_off,0,0,0,,12,,,83,127
20999,note_off,0,0,0,,12,,,71,127
21000,note_on,1,0,0,,10,,,69,127
21000,note_on,0,0,0,,10,,,81,127
21000,note_on,0,0,0,,10,,,45,127
21099,note_off,99,0,0,,10,,,45,127
21100,note_on,1,0,0,,1,,,49,127
21199,note_off,99,0,0,,1,,,49,127
21200,note_on,1,0,0,,4,,,52,127
21299,note_off,99,0,0,,4,,,52,127
21300,note_on,1,0,0,,10,,,57,127
21399,note_off,99,0,0,,10,,,57,127
21400,note_on,1,0,0,,1,,,49,127
21499,note_off,99,0,0,,1,,,49,127
21500,note_on,1,0,0,,10,,,57,127
21599,note_off,99,0,0,,10,,,57,127
21599,note_off,0,0,0,,10,,,81,127
21599,note_off,0,0,0,,10,,,69,127
21600,note_on,1,0,0,,2,,,50,127
21699,note_off,99,0,0,,2,,,50,127
21700,note_on,1,0,0,,12,,,59,127
21799,note_off,99,0,0,,12,,,59,127
21800,note_on,1,0,0,,4,,,52,127
21899,note_off,99,0,0,,4,,,52,127
21900,note_on,1,0,0,,12,,,59,127
21999,note_off,99,0,0,,12,,,59,127
22000,note_on,1,0,0,,12,,,71,127
22000,note_on,0,0,0,,12,,,83,127
22000,note_on,0,0,0,,8,,,56,127
22099,note_off,99,0,0,,8,,,56,127
22100,note_on,1,0,0,,12,,,59,127
22199,note_off,99,0,0,,12,,,59,127
22199,note_off,0,0,0,,12,,,83,127
22199,note_off,0,0,0,,12,,,71,127
22200,note_on,1,0,0,,10,,,81,127
22200,note_on,0,0,0,,10,,,69,127
22200,note_on,0,0,0,,10,,,45,127
22299,note_off,99,0,0,,10,,,45,127
22300,note_on,1,0,0,,1,,,49,127
22399,note_off,99,0,0,,1,,,49,127
22400,note_on,1,0,0,,4,,,52,127
22499,note_off,99,0,0,,4,,,52,127
22500,note_on,1,0,0,,10,,,57,127
22599,note_off,99,0,0,,10,,,57,127
22600,note_on,1,0,0,,1,,,49,127
22699,note_off,99,0,0,,1,,,49,127
22700,note_on,1,0,0,,10,,,57,127
22799,note_off,99,0,0,,10,,,57,127
22799,note_off,0,0,0,,10,,,69,127
22799,note_off,0,0,0,,10,,,81,127
22800,note_on,1,0,0,,2,,,50,127
22899,note_off,99,0,0,,2,,,50,127
22900,note_on,1,0,0,,12,,,59,127
22999,note_off,99,0,0,,12,,,59,127
23000,note_on,1,0,0,,4,,,52,127
23099,note_off,99,0,0,,4,,,52,127
23100,note_on,1,0,0,,12,,,59,127
23199,note_off,99,0,0,,12,,,59,127
23200,note_on,1,0,0,,12,,,71,127
23200,note_on,0,0,0,,12,,,83,127
23200,note_on,0,0,0,,8,,,56,127
23299,note_off,99,0,0,,8,,,56,127
23300,note_on,1,0,0,,12,,,59,127
23399,note_off,99,0,0,,12,,,59,127
23399,note_off,0,0,0,,12,,,83,127
23399,note_off,0,0,0,,12,,,71,127
23400,note_on,1,0,0,,1,,,85,127
23400,note_on,0,0,0,,10,,,45,127
23499,note_off,99,0,0,,1,,,85,127
23500,note_on,1,0,0,,10,,,81,127
23599,note_off,99,0,0,,10,,,81,127
23599,note_off,0,0,0,,10,,,45,127
23600,note_on,1,0,0,,8,,,80,127
23600,note_on,0,0,0,,12,,,47,127
23699,note_off,99,0,0,,8,,,80,127
23700,note_on,1,0,0,,12,,,83,127
23799,note_off,99,0,0,,12,,,83,127
23799,note_off,0,0,0,,12,,,47,127
23800,note_on,1,0,0,,10,,,81,127
23800,note_on,0,0,0,,1,,,49,127
23899,note_off,99,0,0,,10,,,81,127
23900,note_on,1,0,0,,1,,,73,127
23999,note_off,99,0,0,,1,,,73,127
23999,note_off,0,0,0,,1,,,49,127
24000,note_on,1,0,0,,12,,,71,127
24000,note_on,0,0,0,,2,,,50,127
24099,note_off,99,0,0,,12,,,71,127
24100,note_on,1,0,0,,2,,,74,127
24199,note_off,99,0,0,,2,,,74,127
24199,note_off,0,0,0,,2,,,50,127
24200,note_on,1,0,0,,1,,,73,127
24200,note_on,0,0,0,,4,,,52,127
24299,note_off,99,0,0,,1,,,73,127
24300,note_on,1,0,0,,10,,,69,127
24399,note_off,99,0,0,,10,,,69,127
24400,note_on,1,0,0,,8,,,68,127
24400,note_on,0,0,0,,4,,,40,127
24499,note_off,99,0,0,,8,,,68,127
24500,note_on,1,0,0,,12,,,71,127
24599,note_off,99,0,0,,12,,,71,127
24599,note_off,0,0,0,,4,,,40,127
24599,note_off,0,0,0,,4,,,52,127
24600,note_on,1,0,0,,10,,,69,127
24600,note_on,0,0,0,,10,,,45,127
24699,note_off,99,0,0,,10,,,45,127
24700,note_on,1,0,0,,1,,,49,127
24799,note_off,99,0,0,,1,,,49,127
24800,note_on,1,0,0,,4,,,52,127
24899,note_off,99,0,0,,4,,,52,127
24900,note_on,1,0,0,,10,,,57,127
24999,note_off,99,0,0,,10,,,57,127
25000,note_on,1,0,0,,1,,,49,127
25099,note_off,99,0,0,,1,,,49,127
25100,note_on,1,0,0,,10,,,57,127
25199,note_off,99,0,0,,10,,,57,127
25199,note_off,0,0,0,,10,,,69,127
25200,note_on,1,0,0,,2,,,50,127
25299,note_off,99,0,0,,2,,,50,127
25300,note_on,1,0,0,,12,,,59,127
25399,note_off,99,0,0,,12,,,59,127
25400,note_on,1,0,0,,4,,,52,127
25499,note_off,99,0,0,,4,,,52,127
25500,note_on,1,0,0,,12,,,59,127
25599,note_off,99,0,0,,12,,,59,127
25600,note_on,1,0,0,,12,,,71,127
25600,note_on,0,0,0,,12,,,83,127
25600,note_on,0,0,0,,8,,,56,127
25699,note_off,99,0,0,,8,,,56,127
25700,note_on,1,0,0,,12,,,59,127
25799,note_off,99,0,0,,12,,,59,127
25799,note_off,0,0,0,,12,,,83,127
25799,note_off,0,0,0,,12,,,71,127
25800,note_on,1,0,0,,10,,,81,127
25800,note_on,0,0,0,,10,,,69,127
25800,note_on,0,0,0,,10,,,45,127
25899,note_off,99,0,0,,10,,,45,127
25900,note_on,1,0,0,,1,,,49,127
25999,note_off,99,0,0,,1,,,49,127
26000,note_on,1,0,0,,4,,,52,127
26099,note_off,99,0,0,,4,,,52,127
26100,note_on,1,0,0,,10,,,57,127
26199,note_off,99,0,0,,10,,,57,127
26200,note_on,1,0,0,,1,,,49,127
26299,note_off,99,0,0,,1,,,49,127
26300,note_on,1,0,0,,10,,,57,127
26399,note_off,99,0,0,,10,,,57,127
26399,note_off,0,0,0,,10,,,69,127
26399,note_off,0,0,0,,10,,,81,127
26400,note_on,1,0,0,,2,,,50,127
26499,note_off,99,0,0,,2,,,50,127
26500,note_on,1,0,0,,12,,,59,127
26599,note_off,99,0,0,,12,,,59,127
26600,note_on,1,0,0,,4,,,52,127
26699,note_off,99,0,0,,4,,,52,127
26700,note_on,1,0,0,,12,,,59,127
26799,note_off,99,0,0,,12,,,59,127
26800,note_on,1,0,0,,12,,,71,127
26800,note_on,0,0,0,,12,,,83,127
26800,note_on,0,0,0,,8,,,56,127
26899,note_off,99,0,0,,8,,,56,127
26900,note_on,1,0,0,,12,,,59,127
26999,note_off,99,0,0,,12,,,59,127
26999,note_off,0,0,0,,12,,,83,127
26999,note_off,0,0,0,,12,,,71,127
27000,note_on,1,0,0,,1,,,85,127
27000,note_on,0,0,0,,10,,,45,127
27099,note_off,99,0,0,,1,,,85,127
27100,note_on,1,0,0,,10,,,81,127
27199,note_off,99,0,0,,10,,,81,127
27199,note_off,0,0,0,,10,,,45,127
27200,note_on,1,0,0,,8,,,80,127
27200,note_on,0,0,0,,12,,,47,127
27299,note_off,99,0,0,,8,,,80,127
27300,note_on,1,0,0,,12,,,83,127
27399,note_off,99,0,0,,12,,,83,127
27399,note_off,0,0,0,,12,,,47,127
27400,note_on,1,0,0,,10,,,81,127
27400,note_on,0,0,0,,1,,,49,127
27499,note_off,99,0,0,,10,,,81,127
27500,note_on,1,0,0,,1,,,73,127
27599,note_off,99,0,0,,1,,,73,127
27599,note_off,0,0,0,,1,,,49,127
27600,note_on,1,0,0,,12,,,71,127
27600,note_on,0,0,0,,2,,,50,127
27699,note_off,99,0,0,,12,,,71,127
27700,note_on,1,0,0,,2,,,74,127
27799,note_off,99,0,0,,2,,,74,127
27799,note_off,0,0,0,,2,,,50,127
27800,note_on,1,0,0,,1,,,73,127
27800,note_on,0,0,0,,4,,,52,127
27899,note_off,99,0,0,,1,,,73,127
27900,note_on,1,0,0,,10,,,69,127
27999,note_off,99,0,0,,10,,,69,127
28000,note_on,1,0,0,,8,,,68,127
28000,note_on,0,0,0,,4,,,40,127
28099,note_off,99,0,0,,8,,,68,127
28100,note_on,1,0,0,,12,,,71,127
28199,note_off,99,0,0,,12,,,71,127
28199,note_off,0,0,0,,4,,,40,127
28199,note_off,0,0,0,,4,,,52,127
28200,note_on,1,0,0,,1,,,73,127
28200,note_on,0,0,0,,10,,,45,127
28299,note_off,99,0,0,,1,,,73,127
28300,note_on,1,0,0,,10,,,69,127
28399,note_off,99,0,0,,10,,,69,127
28399,note_off,0,0,0,,10,,,45,127
28400,note_on,1,0,0,,8,,,68,127
28400,note_on,0,0,0,,12,,,47,127
28499,note_off,99,0,0,,8,,,68,127
28500,note_on,1,0,0,,12,,,71,127
28599,note_off,99,0,0,,12,,,71,127
28599,note_off,0,0,0,,12,,,47,127
28600,note_on,1,0,0,,10,,,69,127
28600,note_on,0,0,0,,1,,,49,127
28699,note_off,99,0,0,,10,,,69,127
28700,note_on,1,0,0,,4,,,64,127
28799,note_off,99,0,0,,4,,,64,127
28799,note_off,0,0,0,,1,,,49,127
28800,note_on,1,0,0,,6,,,66,127
28800,note_on,0,0,0,,2,,,50,127
28899,note_off,99,0,0,,6,,,66,127
28900,note_on,1,0,0,,2,,,62,127
28999,note_off,99,0,0,,2,,,62,127
28999,note_off,0,0,0,,2,,,50,127
29000,note_on,1,0,0,,1,,,61,127
29000,note_on,0,0,0,,4,,,52,127
29099,note_off,99,0,0,,1,,,61,127
29100,note_on,1,0,0,,10,,,57,127
29199,note_off,99,0,0,,10,,,57,127
29200,note_on,1,0,0,,8,,,56,127
29200,note_on,0,0,0,,4,,,40,127
29299,note_off,99,0,0,,8,,,56,127
29300,note_on,1,0,0,,12,,,59,127
29399,note_off,99,0,0,,12,,,59,127
29399,note_off,0,0,0,,4,,,40,127
29399,note_off,0,0,0,,4,,,52,127
29400,note_on,1,0,0,,10,,,57,127
29400,note_on,0,0,0,,10,,,45,127
30000,note_off,600,0,0,,10,,,45,127
30000,note_off,0,0,0,,10,,,57,127
30001,note_on,1,0,0,,10,,,69,127
30001,note_on,0,0,0,,10,,,45,127
30200,note_off,199,0,0,,10,,,45,127
30200,note_off,0,0,0,,10,,,69,127
30201,note_on,1,0,0,,1,,,73,127
30201,note_on,0,0,0,,10,,,69,127
30300,note_off,99,0,0,,10,,,69,127
30301,note_on,1,0,0,,7,,,67,127
30400,note_off,99,0,0,,7,,,67,127
30400,note_off,0,0,0,,1,,,73,127
30401,note_on,1,0,0,,1,,,73,127
30401,note_on,0,0,0,,6,,,66,127
30500,note_off,99,0,0,,6,,,66,127
30501,note_on,1,0,0,,4,,,64,127
30600,note_off,99,0,0,,4,,,64,127
30600,note_off,0,0,0,,1,,,73,127
30601,note_on,1,0,0,,2,,,74,127
30601,note_on,0,0,0,,6,,,66,127
30800,note_off,199,0,0,,6,,,66,127
30800,note_off,0,0,0,,2,,,74,127
30801,note_on,1,0,0,,1,,,73,127
30801,note_on,0,0,0,,10,,,69,127
30900,note_off,99,0,0,,10,,,69,127
30901,note_on,1,0,0,,7,,,67,127
31000,note_off,99,0,0,,7,,,67,127
31000,note_off,0,0,0,,1,,,73,127
31001,note_on,1,0,0,,1,,,73,127
31001,note_on,0,0,0,,6,,,66,127
31100,note_off,99,0,0,,6,,,66,127
31101,note_on,1,0,0,,4,,,64,127
31200,note_off,99,0,0,,4,,,64,127
31200,note_off,0,0,0,,1,,,73,127
31201,note_on,1,0,0,,2,,,74,127
31201,note_on,0,0,0,,6,,,66,127
31400,note_off,199,0,0,,6,,,66,127
31400,note_off,0,0,0,,2,,,74,127
31401,note_on,1,0,0,,1,,,73,127
31401,note_on,0,0,0,,10,,,69,127
31500,note_off,99,0,0,,10,,,69,127
31501,note_on,1,0,0,,7,,,67,127
31600,note_off,99,0,0,,7,,,67,127
31600,note_off,0,0,0,,1,,,73,127
31601,note_on,1,0,0,,1,,,73,127
31601,note_on,0,0,0,,6,,,66,127
31700,note_off,99,0,0,,6,,,66,127
31701,note_on,1,0,0,,4,,,64,127
31800,note_off,99,0,0,,4,,,64,127
31800,note_off,0,0,0,,1,,,73,127
31801,note_on,1,0,0,,2,,,74,127
31801,note_on,0,0,0,,6,,,66,127
32000,note_off,199,0,0,,6,,,66,127
32000,note_off,0,0,0,,2,,,74,127
32001,note_on,1,0,0,,3,,,75,127
32001,note_on,0,0,0,,12,,,71,127
32100,note_off,99,0,0,,12,,,71,127
32101,note_on,1,0,0,,10,,,69,127
32200,note_off,99,0,0,,10,,,69,127
32200,note_off,0,0,0,,3,,,75,127
32201,note_on,1,0,0,,3,,,75,127
32201,note_on,0,0,0,,7,,,67,127
32300,note_off,99,0,0,,7,,,67,127
32301,note_on,1,0,0,,6,,,66,127
32400,note_off,99,0,0,,6,,,66,127
32400,note_off,0,0,0,,3,,,75,127
32401,note_on,1,0,0,,4,,,76,127
32401,note_on,0,0,0,,7,,,67,127
32600,note_off,199,0,0,,7,,,67,127
32600,note_off,0,0,0,,4,,,76,127
32601,note_on,1,0,0,,3,,,75,127
32601,note_on,0,0,0,,12,,,71,127
32700,note_off,99,0,0,,12,,,71,127
32701,note_on,1,0,0,,10,,,69,127
32800,note_off,99,0,0,,10,,,69,127
32800,note_off,0,0,0,,3,,,75,127
32801,note_on,1,0,0,,3,,,75,127
32801,note_on,0,0,0,,7,,,67,127
32900,note_off,99,0,0,,7,,,67,127
32901,note_on,1,0,0,,6,,,66,127
33000,note_off,99,0,0,,6,,,66,127
33000,note_off,0,0,0,,3,,,75,127
33001,note_on,1,0,0,,4,,,76,127
33001,note_on,0,0,0,,7,,,67,127
33200,note_off,199,0,0,,7,,,67,127
33200,note_off,0,0,0,,4,,,76,127
33201,note_on,1,0,0,,5,,,77,127
33201,note_on,0,0,0,,1,,,73,127
33300,note_off,99,0,0,,1,,,73,127
33301,note_on,1,0,0,,12,,,71,127
33400,note_off,99,0,0,,12,,,71,127
33400,note_off,0,0,0,,5,,,77,127
33401,note_on,1,0,0,,5,,,77,127
33401,note_on,0,0,0,,10,,,69,127
33500,note_off,99,0,0,,10,,,69,127
33501,note_on,1,0,0,,8,,,68,127
33600,note_off,99,0,0,,8,,,68,127
33600,note_off,0,0,0,,5,,,77,127
33601,note_on,1,0,0,,6,,,78,127
33601,note_on,0,0,0,,10,,,69,127
33800,note_off,199,0,0,,10,,,69,127
33800,note_off,0,0,0,,6,,,78,127
33801,note_on,1,0,0,,5,,,77,127
33801,note_on,0,0,0,,1,,,73,127
33900,note_off,99,0,0,,1,,,73,127
33901,note_on,1,0,0,,12,,,71,127
34000,note_off,99,0,0,,12,,,71,127
34000,note_off,0,0,0,,5,,,77,127
34001,note_on,1,0,0,,5,,,77,127
34001,note_on,0,0,0,,10,,,69,127
34100,note_off,99,0,0,,10,,,69,127
34101,note_on,1,0,0,,8,,,68,127
34200,note_off,99,0,0,,8,,,68,127
34200,note_off,0,0,0,,5,,,77,127
34201,note_on,1,0,0,,6,,,78,127
34201,note_on,0,0,0,,10,,,69,127
34300,note_off,99,0,0,,6,,,78,127
34301,note_on,1,0,0,,8,,,80,127
34400,note_off,99,0,0,,8,,,80,127
34400,note_off,0,0,0,,10,,,69,127
34401,note_on,1,0,0,,10,,,81,127
34401,note_on,0,0,0,,6,,,66,127
34500,note_off,99,0,0,,10,,,81,127
34501,note_on,1,0,0,,8,,,80,127
34600,note_off,99,0,0,,8,,,80,127
34600,note_off,0,0,0,,6,,,66,127
34601,note_on,1,0,0,,6,,,78,127
34601,note_on,0,0,0,,10,,,69,127
34700,note_off,99,0,0,,6,,,78,127
34701,note_on,1,0,0,,4,,,76,127
34800,note_off,99,0,0,,4,,,76,127
34800,note_off,0,0,0,,10,,,69,127
34801,note_on,1,0,0,,2,,,74,127
34801,note_on,0,0,0,,12,,,71,127
34900,note_off,99,0,0,,2,,,74,127
34901,note_on,1,0,0,,1,,,73,127
35000,note_off,99,0,0,,1,,,73,127
35000,note_off,0,0,0,,12,,,71,127
35001,note_on,1,0,0,,12,,,71,127
35001,note_on,0,0,0,,12,,,59,127
35100,note_off,99,0,0,,12,,,71,127
35101,note_on,1,0,0,,10,,,69,127
35200,note_off,99,0,0,,10,,,69,127
35200,note_off,0,0,0,,12,,,59,127
35201,note_on,1,0,0,,8,,,68,127
35201,note_on,0,0,0,,2,,,62,127
35300,note_off,99,0,0,,8,,,68,127
35301,note_on,1,0,0,,6,,,66,127
35400,note_off,99,0,0,,6,,,66,127
35400,note_off,0,0,0,,2,,,62,127
35401,note_on,1,0,0,,8,,,68,127
35401,note_on,0,0,0,,1,,,61,127
35450,note_off,49,0,0,,8,,,68,127
35451,note_on,1,0,0,,6,,,66,127
35500,note_off,49,0,0,,6,,,66,127
35501,note_on,1,0,0,,8,,,68,127
35550,note_off,49,0,0,,8,,,68,127
35551,note_on,1,0,0,,6,,,66,127
35600,note_off,49,0,0,,6,,,66,127
35600,note_off,0,0,0,,1,,,61,127
35601,note_on,1,0,0,,5,,,65,127
35601,note_on,0,0,0,,1,,,61,127
35800,note_off,199,0,0,,1,,,61,127
35800,note_off,0,0,0,,5,,,65,127
35801,note_on,1,0,0,,2,,,74,127
35801,note_on,0,0,0,,1,,,61,127
36000,note_off,199,0,0,,1,,,61,127
36000,note_off,0,0,0,,2,,,74,127
36001,note_on,1,0,0,,6,,,66,127
36001,note_on,0,0,0,,1,,,73,127
36001,note_on,0,0,0,,2,,,62,127
36200,note_off,199,0,0,,2,,,62,127
36200,note_off,0,0,0,,1,,,73,127
36201,note_on,1,0,0,,12,,,71,127
36201,note_on,0,0,0,,2,,,62,127
36400,note_off,199,0,0,,2,,,62,127
36400,note_off,0,0,0,,12,,,71,127
36401,note_on,1,0,0,,2,,,74,127
36401,note_on,0,0,0,,2,,,62,127
36600,note_off,199,0,0,,2,,,62,127
36600,note_off,0,0,0,,2,,,74,127
36600,note_off,0,0,0,,6,,,66,127
36601,note_on,1,0,0,,1,,,73,127
36601,note_on,0,0,0,,5,,,65,127
36601,note_on,0,0,0,,1,,,61,127
36800,note_off,199,0,0,,1,,,61,127
36800,note_off,0,0,0,,1,,,73,127
36801,note_on,1,0,0,,12,,,71,127
36801,note_on,0,0,0,,1,,,61,127
37000,note_off,199,0,0,,1,,,61,127
37000,note_off,0,0,0,,12,,,71,127
37001,note_on,1,0,0,,2,,,74,127
37001,note_on,0,0,0,,1,,,61,127
37200,note_off,199,0,0,,1,,,61,127
37200,note_off,0,0,0,,2,,,74,127
37200,note_off,0,0,0,,5,,,65,127
37201,note_on,1,0,0,,6,,,66,127
37201,note_on,0,0,0,,1,,,73,127
37201,note_on,0,0,0,,2,,,62,127
37400,note_off,199,0,0,,2,,,62,127
37400,note_off,0,0,0,,1,,,73,127
37401,note_on,1,0,0,,12,,,71,127
37401,note_on,0,0,0,,2,,,62,127
37600,note_off,199,0,0,,2,,,62,127
37600,note_off,0,0,0,,12,,,71,127
37601,note_on,1,0,0,,2,,,74,127
37601,note_on,0,0,0,,2,,,62,127
37800,note_off,199,0,0,,2,,,62,127
37800,note_off,0,0,0,,2,,,74,127
37800,note_off,0,0,0,,6,,,66,127
37801,note_on,1,0,0,,10,,,69,127
37801,note_on,0,0,0,,1,,,73,127
37801,note_on,0,0,0,,4,,,64,127
38000,note_off,199,0,0,,4,,,64,127
38000,note_off,0,0,0,,1,,,73,127
38000,note_off,0,0,0,,10,,,69,127
38001,note_on,1,0,0,,8,,,68,127
38001,note_on,0,0,0,,12,,,71,127
38001,note_on,0,0,0,,4,,,64,127
38200,note_off,199,0,0,,4,,,64,127
38200,note_off,0,0,0,,12,,,71,127
38201,note_on,1,0,0,,2,,,74,127
38201,note_on,0,0,0,,4,,,64,127
38400,note_off,199,0,0,,4,,,64,127
38400,note_off,0,0,0,,2,,,74,127
38400,note_off,0,0,0,,8,,,68,127
38401,note_on,1,0,0,,10,,,69,127
38401,note_on,0,0,0,,0,,,72,127
38401,note_on,0,0,0,,5,,,65,127
38600,note_off,199,0,0,,5,,,65,127
38600,note_off,0,0,0,,0,,,72,127
38600,note_off,0,0,0,,10,,,69,127
38601,note_on,1,0,0,,8,,,68,127
38601,note_on,0,0,0,,12,,,71,127
38601,note_on,0,0,0,,5,,,65,127
38800,note_off,199,0,0,,5,,,65,127
38800,note_off,0,0,0,,12,,,71,127
38801,note_on,1,0,0,,2,,,74,127
38801,note_on,0,0,0,,5,,,65,127
39000,note_off,199,0,0,,5,,,65,127
39000,note_off,0,0,0,,2,,,74,127
39000,note_off,0,0,0,,8,,,68,127
39001,note_on,1,0,0,,10,,,69,127
39001,note_on,0,0,0,,0,,,72,127
39001,note_on,0,0,0,,4,,,64,127
39200,note_off,199,0,0,,4,,,64,127
39200,note_off,0,0,0,,0,,,72,127
39200,note_off,0,0,0,,10,,,69,127
39201,note_on,1,0,0,,8,,,68,127
39201,note_on,0,0,0,,12,,,71,127
39201,note_on,0,0,0,,4,,,64,127
39400,note_off,199,0,0,,4,,,64,127
39400,note_off,0,0,0,,12,,,71,127
39401,note_on,1,0,0,,4,,,76,127
39401,note_on,0,0,0,,4,,,64,127
39600,note_off,199,0,0,,4,,,64,127
39600,note_off,0,0,0,,4,,,76,127
39600,note_off,0,0,0,,8,,,68,127
39601,note_on,1,0,0,,12,,,71,127
39601,note_on,0,0,0,,2,,,74,127
39601,note_on,0,0,0,,7,,,67,127
39800,note_off,199,0,0,,7,,,67,127
39800,note_off,0,0,0,,2,,,74,127
39800,note_off,0,0,0,,12,,,71,127
39801,note_on,1,0,0,,11,,,70,127
39801,note_on,0,0,0,,1,,,73,127
39801,note_on,0,0,0,,7,,,67,127
40000,note_off,199,0,0,,7,,,67,127
40000,note_off,0,0,0,,1,,,73,127
40001,note_on,1,0,0,,4,,,76,127
40001,note_on,0,0,0,,7,,,67,127
40200,note_off,199,0,0,,7,,,67,127
40200,note_off,0,0,0,,4,,,76,127
40200,note_off,0,0,0,,11,,,70,127
40201,note_on,1,0,0,,12,,,71,127
40201,note_on,0,0,0,,2,,,74,127
40201,note_on,0,0,0,,6,,,66,127
40400,note_off,199,0,0,,6,,,66,127
40400,note_off,0,0,0,,2,,,74,127
40400,note_off,0,0,0,,12,,,71,127
40401,note_on,1,0,0,,11,,,70,127
40401,note_on,0,0,0,,1,,,73,127
40401,note_on,0,0,0,,6,,,66,127
40600,note_off,199,0,0,,6,,,66,127
40600,note_off,0,0,0,,1,,,73,127
40601,note_on,1,0,0,,4,,,76,127
40601,note_on,0,0,0,,6,,,66,127
40800,note_off,199,0,0,,6,,,66,127
40800,note_off,0,0,0,,4,,,76,127
40800,note_off,0,0,0,,11,,,70,127
40801,note_on,1,0,0,,12,,,71,127
40801,note_on,0,0,0,,2,,,74,127
40801,note_on,0,0,0,,7,,,67,127
41000,note_off,199,0,0,,7,,,67,127
41000,note_off,0,0,0,,2,,,74,127
41000,note_off,0,0,0,,12,,,71,127
41001,note_on,1,0,0,,1,,,73,127
41001,note_on,0,0,0,,11,,,70,127
41001,note_on,0,0,0,,7,,,67,127
41200,note_off,199,0,0,,7,,,67,127
41200,note_off,0,0,0,,1,,,73,127
41201,note_on,1,0,0,,4,,,76,127
41201,note_on,0,0,0,,7,,,67,127
41400,note_off,199,0,0,,7,,,67,127
41400,note_off,0,0,0,,4,,,76,127
41400,note_off,0,0,0,,11,,,70,127
41401,note_on,1,0,0,,12,,,71,127
41401,note_on,0,0,0,,2,,,74,127
41401,note_on,0,0,0,,6,,,66,127
41600,note_off,199,0,0,,6,,,66,127
41600,note_off,0,0,0,,2,,,74,127
41600,note_off,0,0,0,,12,,,71,127
41601,note_on,1,0,0,,1,,,73,127
41601,note_on,0,0,0,,11,,,70,127
41601,note_on,0,0,0,,6,,,66,127
41800,note_off,199,0,0,,6,,,66,127
41800,note_off,0,0,0,,1,,,73,127
41801,note_on,1,0,0,,6,,,78,127
41801,note_on,0,0,0,,6,,,66,127
42000,note_off,199,0,0,,6,,,66,127
42000,note_off,0,0,0,,6,,,78,127
42000,note_off,0,0,0,,11,,,70,127
42001,note_on,1,0,0,,7,,,79,127
42001,note_on,0,0,0,,4,,,64,127
42001,note_on,0,0,0,,7,,,67,127
42200,note_off,199,0,0,,7,,,67,127
42200,note_off,0,0,0,,4,,,64,127
42200,note_off,0,0,0,,7,,,79,127
42201,note_on,1,0,0,,1,,,73,127
42201,note_on,0,0,0,,4,,,64,127
42201,note_on,0,0,0,,7,,,67,127
42400,note_off,199,0,0,,7,,,67,127
42400,note_off,0,0,0,,4,,,64,127
42400,note_off,0,0,0,,1,,,73,127
42401,note_on,1,0,0,,11,,,70,127
42401,note_on,0,0,0,,4,,,64,127
42401,note_on,0,0,0,,7,,,67,127
42600,note_off,199,0,0,,7,,,67,127
42600,note_off,0,0,0,,4,,,64,127
42600,note_off,0,0,0,,11,,,70,127
42601,note_on,1,0,0,,12,,,71,127
42601,note_on,0,0,0,,2,,,62,127
42601,note_on,0,0,0,,6,,,66,127
42800,note_off,199,0,0,,6,,,66,127
42800,note_off,0,0,0,,2,,,62,127
42800,note_off,0,0,0,,12,,,71,127
42801,note_on,1,0,0,,2,,,74,127
42801,note_on,0,0,0,,2,,,62,127
42801,note_on,0,0,0,,6,,,66,127
43000,note_off,199,0,0,,6,,,66,127
43000,note_off,0,0,0,,2,,,62,127
43000,note_off,0,0,0,,2,,,74,127
43001,note_on,1,0,0,,6,,,78,127
43001,note_on,0,0,0,,2,,,62,127
43001,note_on,0,0,0,,6,,,66,127
43200,note_off,199,0,0,,6,,,66,127
43200,note_off,0,0,0,,2,,,62,127
43200,note_off,0,0,0,,6,,,78,127
43201,note_on,1,0,0,,4,,,76,127
43201,note_on,0,0,0,,4,,,64,127
43201,note_on,0,0,0,,1,,,61,127
43400,note_off,199,0,0,,1,,,61,127
43400,note_off,0,0,0,,4,,,64,127
43400,note_off,0,0,0,,4,,,76,127
43401,note_on,1,0,0,,1,,,73,127
43401,note_on,0,0,0,,4,,,64,127
43401,note_on,0,0,0,,1,,,61,127
43600,note_off,199,0,0,,1,,,61,127
43600,note_off,0,0,0,,4,,,64,127
43600,note_off,0,0,0,,1,,,73,127
43601,note_on,1,0,0,,6,,,66,127
43601,note_on,0,0,0,,4,,,64,127
43601,note_on,0,0,0,,1,,,61,127
43800,note_off,199,0,0,,1,,,61,127
43800,note_off,0,0,0,,4,,,64,127
43800,note_off,0,0,0,,6,,,66,127
43801,note_on,1,0,0,,7,,,67,127
43801,note_on,0,0,0,,12,,,59,127
43801,note_on,0,0,0,,2,,,62,127
44000,note_off,199,0,0,,2,,,62,127
44000,note_off,0,0,0,,12,,,59,127
44000,note_off,0,0,0,,7,,,67,127
44001,note_on,1,0,0,,12,,,71,127
44001,note_on,0,0,0,,12,,,59,127
44001,note_on,0,0,0,,2,,,62,127
44200,note_off,199,0,0,,2,,,62,127
44200,note_off,0,0,0,,12,,,59,127
44200,note_off,0,0,0,,12,,,71,127
44201,note_on,1,0,0,,2,,,74,127
44201,note_on,0,0,0,,2,,,62,127
44201,note_on,0,0,0,,12,,,59,127
44400,note_off,199,0,0,,12,,,59,127
44400,note_off,0,0,0,,2,,,62,127
44400,note_off,0,0,0,,2,,,74,127
44401,note_on,1,0,0,,1,,,73,127
44401,note_on,0,0,0,,10,,,57,127
44401,note_on,0,0,0,,4,,,64,127
44600,note_off,199,0,0,,4,,,64,127
44600,note_off,0,0,0,,10,,,57,127
44600,note_off,0,0,0,,1,,,73,127
44601,note_on,1,0,0,,7,,,67,127
44601,note_on,0,0,0,,10,,,57,127
44601,note_on,0,0,0,,4,,,64,127
44800,note_off,199,0,0,,4,,,64,127
44800,note_off,0,0,0,,10,,,57,127
44800,note_off,0,0,0,,7,,,67,127
44801,note_on,1,0,0,,10,,,57,127
44801,note_on,0,0,0,,4,,,64,127
45000,note_off,199,0,0,,4,,,64,127
45000,note_off,0,0,0,,10,,,57,127
45001,note_on,1,0,0,,6,,,66,127
45001,note_on,0,0,0,,2,,,50,127
45200,note_off,199,0,0,,2,,,50,127
45200,note_off,0,0,0,,6,,,66,127
45201,note_on,1,0,0,,10,,,69,127
45201,note_on,0,0,0,,2,,,62,127
45300,note_off,99,0,0,,2,,,62,127
45301,note_on,1,0,0,,1,,,61,127
45400,note_off,99,0,0,,1,,,61,127
45400,note_off,0,0,0,,10,,,69,127
45401,note_on,1,0,0,,10,,,69,127
45401,note_on,0,0,0,,12,,,59,127
45500,note_off,99,0,0,,12,,,59,127
45501,note_on,1,0,0,,10,,,57,127
45600,note_off,99,0,0,,10,,,57,127
45600,note_off,0,0,0,,10,,,69,127
45601,note_on,1,0,0,,10,,,69,127
45601,note_on,0,0,0,,7,,,55,127
45800,note_off,199,0,0,,7,,,55,127
45800,note_off,0,0,0,,10,,,69,127
45801,note_on,1,0,0,,12,,,71,127
45801,note_on,0,0,0,,7,,,67,127
45900,note_off,99,0,0,,7,,,67,127
45901,note_on,1,0,0,,6,,,66,127
46000,note_off,99,0,0,,6,,,66,127
46000,note_off,0,0,0,,12,,,71,127
46001,note_on,1,0,0,,12,,,71,127
46001,note_on,0,0,0,,4,,,64,127
46100,note_off,99,0,0,,4,,,64,127
46101,note_on,1,0,0,,2,,,62,127
46200,note_off,99,0,0,,2,,,62,127
46200,note_off,0,0,0,,12,,,71,127
46201,note_on,1,0,0,,12,,,71,127
46201,note_on,0,0,0,,10,,,57,127
46400,note_off,199,0,0,,10,,,57,127
46400,note_off,0,0,0,,12,,,71,127
46401,note_on,1,0,0,,1,,,73,127
46401,note_on,0,0,0,,10,,,69,127
46500,note_off,99,0,0,,10,,,69,127
46501,note_on,1,0,0,,7,,,67,127
46600,note_off,99,0,0,,7,,,67,127
46600,note_off,0,0,0,,1,,,73,127
46601,note_on,1,0,0,,4,,,76,127
46601,note_on,0,0,0,,1,,,73,127
46601,note_on,0,0,0,,6,,,66,127
46700,note_off,99,0,0,,6,,,66,127
46701,note_on,1,0,0,,4,,,64,127
46800,note_off,99,0,0,,4,,,64,127
46800,note_off,0,0,0,,1,,,73,127
46800,note_off,0,0,0,,4,,,76,127
46801,note_on,1,0,0,,6,,,78,127
46801,note_on,0,0,0,,2,,,74,127
46801,note_on,0,0,0,,2,,,62,127
47000,note_off,199,0,0,,2,,,62,127
47000,note_off,0,0,0,,2,,,74,127
47000,note_off,0,0,0,,6,,,78,127
47001,note_on,1,0,0,,4,,,76,127
47001,note_on,0,0,0,,1,,,73,127
47001,note_on,0,0,0,,10,,,69,127
47100,note_off,99,0,0,,10,,,69,127
47101,note_on,1,0,0,,7,,,67,127
47200,note_off,99,0,0,,7,,,67,127
47200,note_off,0,0,0,,4,,,76,127
47201,note_on,1,0,0,,7,,,79,127
47201,note_on,0,0,0,,6,,,66,127
47300,note_off,99,0,0,,6,,,66,127
47301,note_on,1,0,0,,4,,,64,127
47400,note_off,99,0,0,,4,,,64,127
47400,note_off,0,0,0,,7,,,79,127
47400,note_off,0,0,0,,1,,,73,127
47401,note_on,1,0,0,,2,,,74,127
47401,note_on,0,0,0,,6,,,78,127
47401,note_on,0,0,0,,2,,,62,127
47600,note_off,199,0,0,,2,,,62,127
47600,note_off,0,0,0,,6,,,78,127
47600,note_off,0,0,0,,2,,,74,127
47601,note_on,1,0,0,,4,,,76,127
47601,note_on,0,0,0,,1,,,73,127
47601,note_on,0,0,0,,10,,,69,127
47700,note_off,99,0,0,,10,,,69,127
47701,note_on,1,0,0,,7,,,67,127
47800,note_off,99,0,0,,7,,,67,127
47800,note_off,0,0,0,,4,,,76,127
47801,note_on,1,0,0,,7,,,79,127
47801,note_on,0,0,0,,6,,,66,127
47900,note_off,99,0,0,,6,,,66,127
47901,note_on,1,0,0,,4,,,64,127
48000,note_off,99,0,0,,4,,,64,127
48000,note_off,0,0,0,,7,,,79,127
48000,note_off,0,0,0,,1,,,73,127
48001,note_on,1,0,0,,6,,,78,127
48001,note_on,0,0,0,,2,,,74,127
48001,note_on,0,0,0,,2,,,62,127
48200,note_off,199,0,0,,2,,,62,127
48200,note_off,0,0,0,,2,,,74,127
48200,note_off,0,0,0,,6,,,78,127
48201,note_on,1,0,0,,10,,,81,127
48201,note_on,0,0,0,,1,,,61,127
48300,note_off,99,0,0,,10,,,81,127
48301,note_on,1,0,0,,7,,,79,127
48400,note_off,99,0,0,,7,,,79,127
48400,note_off,0,0,0,,1,,,61,127
48401,note_on,1,0,0,,6,,,78,127
48401,note_on,0,0,0,,10,,,57,127
48500,note_off,99,0,0,,6,,,78,127
48501,note_on,1,0,0,,4,,,76,127
48600,note_off,99,0,0,,4,,,76,127
48600,note_off,0,0,0,,10,,,57,127
48601,note_on,1,0,0,,2,,,74,127
48601,note_on,0,0,0,,2,,,50,127
48800,note_off,199,0,0,,2,,,50,127
48800,note_off,0,0,0,,2,,,74,127
48801,note_on,1,0,0,,10,,,81,127
48801,note_on,0,0,0,,2,,,74,127
48900,note_off,99,0,0,,10,,,81,127
48901,note_on,1,0,0,,7,,,79,127
49000,note_off,99,0,0,,7,,,79,127
49000,note_off,0,0,0,,2,,,74,127
49001,note_on,1,0,0,,6,,,78,127
49001,note_on,0,0,0,,1,,,85,127
49001,note_on,0,0,0,,10,,,69,127
49100,note_off,99,0,0,,6,,,78,127
49101,note_on,1,0,0,,4,,,76,127
49200,note_off,99,0,0,,4,,,76,127
49200,note_off,0,0,0,,10,,,69,127
49200,note_off,0,0,0,,1,,,85,127
49201,note_on,1,0,0,,2,,,86,127
49201,note_on,0,0,0,,2,,,74,127
49201,note_on,0,0,0,,6,,,66,127
49400,note_off,199,0,0,,6,,,66,127
49400,note_off,0,0,0,,2,,,74,127
49401,note_on,1,0,0,,10,,,81,127
49401,note_on,0,0,0,,2,,,62,127
49500,note_off,99,0,0,,10,,,81,127
49501,note_on,1,0,0,,7,,,79,127
49600,note_off,99,0,0,,7,,,79,127
49600,note_off,0,0,0,,2,,,62,127
49600,note_off,0,0,0,,2,,,86,127
49601,note_on,1,0,0,,1,,,85,127
49601,note_on,0,0,0,,6,,,78,127
49601,note_on,0,0,0,,10,,,57,127
49700,note_off,99,0,0,,6,,,78,127
49701,note_on,1,0,0,,4,,,76,127
49800,note_off,99,0,0,,4,,,76,127
49800,note_off,0,0,0,,10,,,57,127
49800,note_off,0,0,0,,1,,,85,127
49801,note_on,1,0,0,,2,,,74,127
49801,note_on,0,0,0,,2,,,86,127
49801,note_on,0,0,0,,6,,,54,127
50000,note_off,199,0,0,,6,,,54,127
50000,note_off,0,0,0,,2,,,74,127
50001,note_on,1,0,0,,10,,,81,127
50001,note_on,0,0,0,,2,,,50,127
50100,note_off,99,0,0,,10,,,81,127
50101,note_on,1,0,0,,7,,,79,127
50200,note_off,99,0,0,,7,,,79,127
50200,note_off,0,0,0,,2,,,50,127
50200,note_off,0,0,0,,2,,,86,127
50201,note_on,1,0,0,,1,,,85,127
50201,note_on,0,0,0,,6,,,78,127
50201,note_on,0,0,0,,10,,,45,127
50300,note_off,99,0,0,,6,,,78,127
50301,note_on,1,0,0,,4,,,76,127
50400,note_off,99,0,0,,4,,,76,127
50400,note_off,0,0,0,,10,,,45,127
50400,note_off,0,0,0,,1,,,85,127
50401,note_on,1,0,0,,2,,,86,127
50401,note_on,0,0,0,,2,,,74,127
50401,note_on,0,0,0,,2,,,38,127
50500,note_off,99,0,0,,2,,,74,127
50501,note_on,1,0,0,,12,,,83,127
50600,note_off,99,0,0,,12,,,83,127
50600,note_off,0,0,0,,2,,,38,127
50601,note_on,1,0,0,,10,,,81,127
50601,note_on,0,0,0,,2,,,74,127
50700,note_off,99,0,0,,10,,,81,127
50701,note_on,1,0,0,,7,,,79,127
50800,note_off,99,0,0,,7,,,79,127
50800,note_off,0,0,0,,2,,,74,127
50800,note_off,0,0,0,,2,,,86,127
50801,note_on,1,0,0,,1,,,85,127
50801,note_on,0,0,0,,6,,,78,127
50801,note_on,0,0,0,,10,,,69,127
50900,note_off,99,0,0,,6,,,78,127
50901,note_on,1,0,0,,4,,,76,127
51000,note_off,99,0,0,,4,,,76,127
51000,note_off,0,0,0,,10,,,69,127
51000,note_off,0,0,0,,1,,,85,127
51001,note_on,1,0,0,,2,,,74,127
51001,note_on,0,0,0,,2,,,86,127
51001,note_on,0,0,0,,6,,,66,127
51100,note_off,99,0,0,,2,,,74,127
51101,note_on,1,0,0,,12,,,83,127
51200,note_off,99,0,0,,12,,,83,127
51200,note_off,0,0,0,,6,,,66,127
51201,note_on,1,0,0,,10,,,81,127
51201,note_on,0,0,0,,2,,,62,127
51300,note_off,99,0,0,,10,,,81,127
51301,note_on,1,0,0,,7,,,79,127
51400,note_off,99,0,0,,7,,,79,127
51400,note_off,0,0,0,,2,,,62,127
51400,note_off,0,0,0,,2,,,86,127
51401,note_on,1,0,0,,1,,,85,127
51401,note_on,0,0,0,,6,,,78,127
51401,note_on,0,0,0,,10,,,57,127
51500,note_off,99,0,0,,6,,,78,127
51501,note_on,1,0,0,,4,,,76,127
51600,note_off,99,0,0,,4,,,76,127
51600,note_off,0,0,0,,10,,,57,127
51600,note_off,0,0,0,,1,,,85,127
51601,note_on,1,0,0,,2,,,74,127
51601,note_on,0,0,0,,2,,,86,127
51601,note_on,0,0,0,,6,,,54,127
51700,note_off,99,0,0,,2,,,74,127
51701,note_on,1,0,0,,12,,,83,127
51800,note_off,99,0,0,,12,,,83,127
51800,note_off,0,0,0,,6,,,54,127
51801,note_on,1,0,0,,10,,,81,127
51801,note_on,0,0,0,,2,,,50,127
51900,note_off,99,0,0,,10,,,81,127
51901,note_on,1,0,0,,7,,,79,127
52000,note_off,99,0,0,,7,,,79,127
52000,note_off,0,0,0,,2,,,50,127
52000,note_off,0,0,0,,2,,,86,127
52001,note_on,1,0,0,,6,,,78,127
52001,note_on,0,0,0,,1,,,85,127
52001,note_on,0,0,0,,10,,,45,127
52100,note_off,99,0,0,,6,,,78,127
52101,note_on,1,0,0,,4,,,76,127
52200,note_off,99,0,0,,4,,,76,127
52200,note_off,0,0,0,,10,,,45,127
52200,note_off,0,0,0,,1,,,85,127
52201,note_on,1,0,0,,2,,,74,127
52201,note_on,0,0,0,,2,,,86,127
52201,note_on,0,0,0,,2,,,38,127
52300,note_off,99,0,0,,2,,,86,127
52301,note_on,1,0,0,,10,,,81,127
52400,note_off,99,0,0,,10,,,81,127
52400,note_off,0,0,0,,2,,,38,127
52401,note_on,1,0,0,,6,,,78,127
52401,note_on,0,0,0,,2,,,50,127
52500,note_off,99,0,0,,6,,,78,127
52501,note_on,1,0,0,,10,,,81,127
52599,note_off,98,0,0,,2,,,74,127
52600,note_off,1,0,0,,10,,,81,127
52600,note_off,0,0,0,,2,,,50,127
52601,note_on,1,0,0,,2,,,74,127
52601,note_on,0,0,0,,6,,,54,127
52700,note_off,99,0,0,,2,,,74,127
52701,note_on,1,0,0,,6,,,78,127
52800,note_off,99,0,0,,6,,,78,127
52800,note_off,0,0,0,,6,,,54,127
52801,note_on,1,0,0,,4,,,76,127
52801,note_on,0,0,0,,7,,,55,127
52900,note_off,99,0,0,,4,,,76,127
52901,note_on,1,0,0,,7,,,79,127
53000,note_off,99,0,0,,7,,,79,127
53000,note_off,0,0,0,,7,,,55,127
53001,note_on,1,0,0,,6,,,78,127
53001,note_on,0,0,0,,10,,,57,127
53100,note_off,99,0,0,,6,,,78,127
53101,note_on,1,0,0,,2,,,74,127
53200,note_off,99,0,0,,2,,,74,127
53201,note_on,1,0,0,,1,,,73,127
53201,note_on,0,0,0,,10,,,45,127
53300,note_off,99,0,0,,1,,,73,127
53301,note_on,1,0,0,,4,,,76,127
53400,note_off,99,0,0,,4,,,76,127
53400,note_off,0,0,0,,10,,,45,127
53400,note_off,0,0,0,,10,,,57,127
53401,note_on,1,0,0,,2,,,74,127
53401,note_on,0,0,0,,2,,,50,127
53500,note_off,99,0,0,,2,,,50,127
53501,note_on,1,0,0,,6,,,54,127
53600,note_off,99,0,0,,6,,,54,127
53601,note_on,1,0,0,,10,,,57,127
53700,note_off,99,0,0,,10,,,57,127
53701,note_on,1,0,0,,2,,,62,127
53800,note_off,99,0,0,,2,,,62,127
53801,note_on,1,0,0,,6,,,54,127
53900,note_off,99,0,0,,6,,,54,127
53901,note_on,1,0,0,,2,,,62,127
54000,note_off,99,0,0,,2,,,62,127
54000,note_off,0,0,0,,2,,,74,127
54001,note_on,1,0,0,,7,,,55,127
54100,note_off,99,0,0,,7,,,55,127
54101,note_on,1,0,0,,4,,,64,127
54200,note_off,99,0,0,,4,,,64,127
54201,note_on,1,0,0,,10,,,57,127
54300,note_off,99,0,0,,10,,,57,127
54301,note_on,1,0,0,,4,,,64,127
54400,note_off,99,0,0,,4,,,64,127
54401,note_on,1,0,0,,4,,,76,127
54401,note_on,0,0,0,,4,,,88,127
54401,note_on,0,0,0,,1,,,61,127
54500,note_off,99,0,0,,1,,,61,127
54501,note_on,1,0,0,,4,,,64,127
54600,note_off,99,0,0,,4,,,64,127
54600,note_off,0,0,0,,4,,,88,127
54600,note_off,0,0,0,,4,,,76,127
54601,note_on,1,0,0,,2,,,86,127
54601,note_on,0,0,0,,2,,,74,127
54601,note_on,0,0,0,,2,,,50,127
54700,note_off,99,0,0,,2,,,50,127
54701,note_on,1,0,0,,6,,,54,127
54800,note_off,99,0,0,,6,,,54,127
54801,note_on,1,0,0,,10,,,57,127
54900,note_off,99,0,0,,10,,,57,127
54901,note_on,1,0,0,,2,,,62,127
55000,note_off,99,0,0,,2,,,62,127
55001,note_on,1,0,0,,6,,,54,127
55100,note_off,99,0,0,,6,,,54,127
55101,note_on,1,0,0,,2,,,62,127
55200,note_off,99,0,0,,2,,,62,127
55200,note_off,0,0,0,,2,,,74,127
55200,note_off,0,0,0,,2,,,86,127
55201,note_on,1,0,0,,7,,,55,127
55300,note_off,99,0,0,,7,,,55,127
55301,note_on,1,0,0,,4,,,64,127
55400,note_off,99,0,0,,4,,,64,127
55401,note_on,1,0,0,,10,,,57,127
55500,note_off,99,0,0,,10,,,57,127
55501,note_on,1,0,0,,4,,,64,127
55600,note_off,99,0,0,,4,,,64,127
55601,note_on,1,0,0,,4,,,76,127
55601,note_on,0,0,0,,4,,,88,127
55601,note_on,0,0,0,,1,,,61,127
55700,note_off,99,0,0,,1,,,61,127
55701,note_on,1,0,0,,4,,,64,127
55800,note_off,99,0,0,,4,,,64,127
55800,note_off,0,0,0,,4,,,88,127
55800,note_off,0,0,0,,4,,,76,127
55801,note_on,1,0,0,,2,,,74,127
55801,note_on,0,0,0,,2,,,86,127
55801,note_on,0,0,0,,2,,,50,127
55900,note_off,99,0,0,,2,,,50,127
55901,note_on,1,0,0,,6,,,54,127
56000,note_off,99,0,0,,6,,,54,127
56001,note_on,1,0,0,,10,,,57,127
56100,note_off,99,0,0,,10,,,57,127
56101,note_on,1,0,0,,2,,,62,127
56200,note_off,99,0,0,,2,,,62,127
56201,note_on,1,0,0,,6,,,54,127
56300,note_off,99,0,0,,6,,,54,127
56301,note_on,1,0,0,,2,,,62,127
56400,note_off,99,0,0,,2,,,62,127
56400,note_off,0,0,0,,2,,,86,127
56400,note_off,0,0,0,,2,,,74,127
56401,note_on,1,0,0,,7,,,55,127
56500,note_off,99,0,0,,7,,,55,127
56501,note_on,1,0,0,,4,,,64,127
56600,note_off,99,0,0,,4,,,64,127
56601,note_on,1,0,0,,10,,,57,127
56700,note_off,99,0,0,,10,,,57,127
56701,note_on,1,0,0,,4,,,64,127
56800,note_off,99,0,0,,4,,,64,127
56801,note_on,1,0,0,,4,,,76,127
56801,note_on,0,0,0,,4,,,88,127
56801,note_on,0,0,0,,1,,,61,127
56900,note_off,99,0,0,,1,,,61,127
56901,note_on,1,0,0,,4,,,64,127
57000,note_off,99,0,0,,4,,,64,127
57000,note_off,0,0,0,,4,,,88,127
57000,note_off,0,0,0,,4,,,76,127
57001,note_on,1,0,0,,2,,,74,127
57001,note_on,0,0,0,,2,,,86,127
57001,note_on,0,0,0,,2,,,50,127
57100,note_off,99,0,0,,2,,,86,127
57101,note_on,1,0,0,,10,,,81,127
57200,note_off,99,0,0,,10,,,81,127
57200,note_off,0,0,0,,2,,,50,127
57201,note_on,1,0,0,,6,,,78,127
57201,note_on,0,0,0,,4,,,52,127
57300,note_off,99,0,0,,6,,,78,127
57301,note_on,1,0,0,,10,,,81,127
57399,note_off,98,0,0,,2,,,74,127
57400,note_off,1,0,0,,10,,,81,127
57400,note_off,0,0,0,,4,,,52,127
57401,note_on,1,0,0,,2,,,74,127
57401,note_on,0,0,0,,6,,,54,127
57500,note_off,99,0,0,,2,,,74,127
57501,note_on,1,0,0,,6,,,78,127
57600,note_off,99,0,0,,6,,,78,127
57600,note_off,0,0,0,,6,,,54,127
57601,note_on,1,0,0,,4,,,76,127
57601,note_on,0,0,0,,7,,,55,127
57700,note_off,99,0,0,,4,,,76,127
57701,note_on,1,0,0,,7,,,79,127
57800,note_off,99,0,0,,7,,,79,127
57800,note_off,0,0,0,,7,,,55,127
57801,note_on,1,0,0,,6,,,78,127
57801,note_on,0,0,0,,10,,,57,127
57900,note_off,99,0,0,,6,,,78,127
57901,note_on,1,0,0,,2,,,74,127
58000,note_off,99,0,0,,2,,,74,127
58000,note_off,0,0,0,,10,,,57,127
58001,note_on,1,0,0,,1,,,73,127
58001,note_on,0,0,0,,10,,,45,127
58100,note_off,99,0,0,,1,,,73,127
58101,note_on,1,0,0,,4,,,76,127
58200,note_off,99,0,0,,4,,,76,127
58200,note_off,0,0,0,,10,,,45,127
58201,note_on,1,0,0,,2,,,74,127
58201,note_on,0,0,0,,2,,,50,127
58300,note_off,99,0,0,,2,,,50,127
58301,note_on,1,0,0,,6,,,54,127
58400,note_off,99,0,0,,6,,,54,127
58401,note_on,1,0,0,,10,,,57,127
58500,note_off,99,0,0,,10,,,57,127
58501,note_on,1,0,0,,2,,,62,127
58600,note_off,99,0,0,,2,,,62,127
58601,note_on,1,0,0,,6,,,54,127
58700,note_off,99,0,0,,6,,,54,127
58701,note_on,1,0,0,,2,,,62,127
58800,note_off,99,0,0,,2,,,62,127
58800,note_off,0,0,0,,2,,,74,127
58801,note_on,1,0,0,,7,,,55,127
58900,note_off,99,0,0,,7,,,55,127
58901,note_on,1,0,0,,4,,,64,127
59000,note_off,99,0,0,,4,,,64,127
59001,note_on,1,0,0,,10,,,57,127
59100,note_off,99,0,0,,10,,,57,127
59101,note_on,1,0,0,,4,,,64,127
59200,note_off,99,0,0,,4,,,64,127
59201,note_on,1,0,0,,4,,,76,127
59201,note_on,0,0,0,,4,,,88,127
59201,note_on,0,0,0,,1,,,61,127
59300,note_off,99,0,0,,1,,,61,127
59301,note_on,1,0,0,,4,,,64,127
59400,note_off,99,0,0,,4,,,64,127
59400,note_off,0,0,0,,4,,,88,127
59400,note_off,0,0,0,,4,,,76,127
59401,note_on,1,0,0,,2,,,86,127
59401,note_on,0,0,0,,2,,,74,127
59401,note_on,0,0,0,,2,,,50,127
59500,note_off,99,0,0,,2,,,50,127
59501,note_on,1,0,0,,6,,,54,127
59600,note_off,99,0,0,,6,,,54,127
59601,note_on,1,0,0,,10,,,57,127
59700,note_off,99,0,0,,10,,,57,127
59701,note_on,1,0,0,,2,,,62,127
59800,note_off,99,0,0,,2,,,62,127
59801,note_on,1,0,0,,6,,,54,127
59900,note_off,99,0,0,,6,,,54,127
59901,note_on,1,0,0,,2,,,62,127
60000,note_off,99,0,0,,2,,,62,127
60000,note_off,0,0,0,,2,,,74,127
60000,note_off,0,0,0,,2,,,86,127
60001,note_on,1,0,0,,7,,,55,127
60100,note_off,99,0,0,,7,,,55,127
60101,note_on,1,0,0,,4,,,64,127
60200,note_off,99,0,0,,4,,,64,127
60201,note_on,1,0,0,,10,,,57,127
60300,note_off,99,0,0,,10,,,57,127
60301,note_on,1,0,0,,4,,,64,127
60400,note_off,99,0,0,,4,,,64,127
60401,note_on,1,0,0,,4,,,76,127
60401,note_on,0,0,0,,4,,,88,127
60401,note_on,0,0,0,,1,,,61,127
60500,note_off,99,0,0,,1,,,61,127
60501,note_on,1,0,0,,4,,,64,127
60600,note_off,99,0,0,,4,,,64,127
60600,note_off,0,0,0,,4,,,88,127
60600,note_off,0,0,0,,4,,,76,127
60601,note_on,1,0,0,,2,,,74,127
60601,note_on,0,0,0,,2,,,86,127
60601,note_on,0,0,0,,2,,,50,127
60700,note_off,99,0,0,,2,,,86,127
60701,note_on,1,0,0,,10,,,81,127
60800,note_off,99,0,0,,10,,,81,127
60800,note_off,0,0,0,,2,,,50,127
60801,note_on,1,0,0,,6,,,78,127
60801,note_on,0,0,0,,4,,,52,127
60900,note_off,99,0,0,,6,,,78,127
60901,note_on,1,0,0,,10,,,81,127
60999,note_off,98,0,0,,2,,,74,127
61000,note_off,1,0,0,,10,,,81,127
61000,note_off,0,0,0,,4,,,52,127
61001,note_on,1,0,0,,2,,,74,127
61001,note_on,0,0,0,,6,,,54,127
61100,note_off,99,0,0,,2,,,74,127
61101,note_on,1,0,0,,6,,,78,127
61200,note_off,99,0,0,,6,,,78,127
61200,note_off,0,0,0,,6,,,54,127
61201,note_on,1,0,0,,4,,,76,127
61201,note_on,0,0,0,,7,,,55,127
61300,note_off,99,0,0,,4,,,76,127
61301,note_on,1,0,0,,7,,,79,127
61400,note_off,99,0,0,,7,,,79,127
61400,note_off,0,0,0,,7,,,55,127
61401,note_on,1,0,0,,6,,,78,127
61401,note_on,0,0,0,,10,,,57,127
61500,note_off,99,0,0,,6,,,78,127
61501,note_on,1,0,0,,10,,,81,127
61600,note_off,99,0,0,,10,,,81,127
61600,note_off,0,0,0,,10,,,57,127
61601,note_on,1,0,0,,4,,,76,127
61601,note_on,0,0,0,,10,,,45,127
61700,note_off,99,0,0,,4,,,76,127
61701,note_on,1,0,0,,7,,,79,127
61800,note_off,99,0,0,,7,,,79,127
61800,note_off,0,0,0,,10,,,45,127
61801,note_on,1,0,0,,6,,,78,127
61801,note_on,0,0,0,,2,,,50,127
61900,note_off,99,0,0,,6,,,78,127
61901,note_on,1,0,0,,10,,,81,127
62000,note_off,99,0,0,,10,,,81,127
62000,note_off,0,0,0,,2,,,50,127
62001,note_on,1,0,0,,1,,,73,127
62001,note_on,0,0,0,,4,,,52,127
62100,note_off,99,0,0,,1,,,73,127
62101,note_on,1,0,0,,4,,,76,127
62200,note_off,99,0,0,,4,,,76,127
62200,note_off,0,0,0,,4,,,52,127
62201,note_on,1,0,0,,2,,,74,127
62201,note_on,0,0,0,,6,,,54,127
62300,note_off,99,0,0,,2,,,74,127
62301,note_on,1,0,0,,6,,,78,127
62400,note_off,99,0,0,,6,,,78,127
62400,note_off,0,0,0,,6,,,54,127
62401,note_on,1,0,0,,4,,,76,127
62401,note_on,0,0,0,,7,,,55,127
62500,note_off,99,0,0,,4,,,76,127
62501,note_on,1,0,0,,7,,,79,127
62600,note_off,99,0,0,,7,,,79,127
62600,note_off,0,0,0,,7,,,55,127
62601,note_on,1,0,0,,6,,,78,127
62601,note_on,0,0,0,,10,,,57,127
62700,note_off,99,0,0,,6,,,78,127
62701,note_on,1,0,0,,10,,,81,127
62800,note_off,99,0,0,,10,,,81,127
62801,note_on,1,0,0,,4,,,76,127
62801,note_on,0,0,0,,10,,,45,127
62900,note_off,99,0,0,,4,,,76,127
62901,note_on,1,0,0,,7,,,79,127
63000,note_off,99,0,0,,7,,,79,127
63000,note_off,0,0,0,,10,,,45,127
63000,note_off,0,0,0,,10,,,57,127
63001,note_on,1,0,0,,6,,,78,127
63001,note_on,0,0,0,,2,,,38,127
63100,note_off,99,0,0,,6,,,78,127
63101,note_on,1,0,0,,10,,,81,127
63200,note_off,99,0,0,,10,,,81,127
63200,note_off,0,0,0,,2,,,38,127
63201,note_on,1,0,0,,1,,,73,127
63201,note_on,0,0,0,,4,,,40,127
63300,note_off,99,0,0,,1,,,73,127
63301,note_on,1,0,0,,4,,,76,127
63400,note_off,99,0,0,,4,,,76,127
63400,note_off,0,0,0,,4,,,40,127
63401,note_on,1,0,0,,2,,,74,127
63401,note_on,0,0,0,,6,,,42,127
63500,note_off,99,0,0,,2,,,74,127
63501,note_on,1,0,0,,10,,,69,127
63600,note_off,99,0,0,,10,,,69,127
63600,note_off,0,0,0,,6,,,42,127
63601,note_on,1,0,0,,12,,,71,127
63601,note_on,0,0,0,,7,,,43,127
63700,note_off,99,0,0,,12,,,71,127
63701,note_on,1,0,0,,2,,,74,127
63800,note_off,99,0,0,,2,,,74,127
63800,note_off,0,0,0,,7,,,43,127
63801,note_on,1,0,0,,6,,,66,127
63801,note_on,0,0,0,,10,,,45,127
63900,note_off,99,0,0,,6,,,66,127
63901,note_on,1,0,0,,2,,,74,127
64000,note_off,99,0,0,,2,,,74,127
64001,note_on,1,0,0,,4,,,64,127
64001,note_on,0,0,0,,10,,,33,127
64100,note_off,99,0,0,,4,,,64,127
64101,note_on,1,0,0,,1,,,73,127
64200,note_off,99,0,0,,10,,,33,127
64200,note_off,0,0,0,,10,,,45,127
64205,note_off,5,0,0,,1,,,73,127
64211,note_on,6,0,0,,2,,,62,127
64211,note_on,0,0,0,,2,,,38,127
66114,note_off,1903,0,0,,2,,,38,127
66114,note_off,0,0,0,,2,,,62,127
67584,end_of_track,1470,1,0,,,,,,
