tick,type,time,meta,track,program,channel,pitch,tempo,note,velocity
0,copyright,0,1,0,,,,,,
0,program_change,0,0,0,6,0,,,,
0,pitchwheel,0,0,0,,0,0,,,
0,program_change,0,0,0,6,1,,,,
0,pitchwheel,0,0,0,,1,-590,,,
0,program_change,0,0,0,6,2,,,,
0,pitchwheel,0,0,0,,2,-272,,,
0,program_change,0,0,0,6,3,,,,
0,pitchwheel,0,0,0,,3,-353,,,
0,program_change,0,0,0,6,4,,,,
0,pitchwheel,0,0,0,,4,-560,,,
0,program_change,0,0,0,6,5,,,,
0,pitchwheel,0,0,0,,5,-80,,,
0,program_change,0,0,0,6,6,,,,
0,pitchwheel,0,0,0,,6,-625,,,
0,program_change,0,0,0,6,7,,,,
0,pitchwheel,0,0,0,,7,-130,,,
0,program_change,0,0,0,6,8,,,,
0,pitchwheel,0,0,0,,8,-512,,,
0,program_change,0,0,0,6,10,,,,
0,pitchwheel,0,0,0,,10,-464,,,
0,program_change,0,0,0,6,11,,,,
0,pitchwheel,0,0,0,,11,-208,,,
0,program_change,0,0,0,6,12,,,,
0,pitchwheel,0,0,0,,12,-553,,,
0,set_tempo,0,1,0,,,,500000,,
21,note_on,21,0,0,,10,,,69,127
148,note_off,127,0,0,,10,,,69,127
149,note_on,1,0,0,,2,,,74,127
276,note_off,127,0,0,,2,,,74,127
277,note_on,1,0,0,,6,,,78,127
404,note_off,127,0,0,,6,,,78,127
405,note_on,1,0,0,,10,,,81,127
532,note_off,127,0,0,,10,,,81,127
533,note_on,1,0,0,,10,,,69,127
626,note_off,93,0,0,,10,,,69,127
661,note_on,35,0,0,,1,,,73,127
774,note_off,113,0,0,,1,,,73,127
789,note_on,15,0,0,,2,,,50,127
789,note_on,0,0,0,,2,,,74,127
916,note_off,127,0,0,,2,,,50,127
917,note_on,1,0,0,,6,,,54,127
1044,note_off,127,0,0,,6,,,54,127
1045,note_on,1,0,0,,10,,,57,127
1172,note_off,127,0,0,,10,,,57,127
1173,note_on,1,0,0,,2,,,62,127
1300,note_off,127,0,0,,2,,,62,127
1301,note_on,1,0,0,,2,,,50,127
1428,note_off,127,0,0,,2,,,50,127
1429,note_on,1,0,0,,8,,,56,127
1556,note_off,127,0,0,,8,,,56,127
1557,note_on,1,0,0,,10,,,57,127
1684,note_off,127,0,0,,2,,,74,127
1685,note_on,1,0,0,,1,,,73,127
1812,note_off,127,0,0,,1,,,73,127
1813,note_on,1,0,0,,2,,,74,127
1940,note_off,127,0,0,,2,,,74,127
1940,note_off,0,0,0,,10,,,57,127
1941,note_on,1,0,0,,10,,,45,127
1941,note_on,0,0,0,,4,,,76,127
2068,note_off,127,0,0,,4,,,76,127
2069,note_on,1,0,0,,6,,,78,127
2149,note_off,80,0,0,,6,,,78,127
2197,note_on,48,0,0,,7,,,79,127
2290,note_off,93,0,0,,7,,,79,127
2323,note_off,33,0,0,,10,,,45,127
2324,note_on,1,0,0,,2,,,50,127
2324,note_on,0,0,0,,7,,,79,127
2451,note_off,127,0,0,,2,,,50,127
2452,note_on,1,0,0,,6,,,54,127
2579,note_off,127,0,0,,6,,,54,127
2580,note_on,1,0,0,,10,,,57,127
2707,note_off,127,0,0,,10,,,57,127
2707,note_off,0,0,0,,7,,,79,127
2708,note_on,1,0,0,,2,,,62,127
2708,note_on,0,0,0,,6,,,78,127
2835,note_off,127,0,0,,2,,,62,127
2836,note_on,1,0,0,,2,,,50,127
2963,note_off,127,0,0,,2,,,50,127
2964,note_on,1,0,0,,8,,,56,127
3091,note_off,127,0,0,,8,,,56,127
3092,note_on,1,0,0,,10,,,57,127
3219,note_off,127,0,0,,6,,,78,127
3220,note_on,1,0,0,,1,,,73,127
3347,note_off,127,0,0,,1,,,73,127
3348,note_on,1,0,0,,2,,,74,127
3475,note_off,127,0,0,,2,,,74,127
3475,note_off,0,0,0,,10,,,57,127
3476,note_on,1,0,0,,10,,,45,127
3476,note_on,0,0,0,,4,,,76,127
3603,note_off,127,0,0,,4,,,76,127
3604,note_on,1,0,0,,6,,,78,127
3691,note_off,87,0,0,,6,,,78,127
3732,note_on,41,0,0,,7,,,79,127
3832,note_off,100,0,0,,7,,,79,127
3859,note_off,27,0,0,,10,,,45,127
3860,note_on,1,0,0,,2,,,50,127
3860,note_on,0,0,0,,6,,,78,127
3987,note_off,127,0,0,,6,,,78,127
3988,note_on,1,0,0,,10,,,81,127
4095,note_off,107,0,0,,10,,,81,127
4116,note_on,21,0,0,,2,,,74,127
4223,note_off,107,0,0,,2,,,74,127
4243,note_off,20,0,0,,2,,,50,127
4244,note_on,1,0,0,,10,,,45,127
4244,note_on,0,0,0,,1,,,73,127
4371,note_off,127,0,0,,1,,,73,127
4372,note_on,1,0,0,,4,,,76,127
4479,note_off,107,0,0,,4,,,76,127
4500,note_on,21,0,0,,7,,,67,127
4607,note_off,107,0,0,,7,,,67,127
4627,note_off,20,0,0,,10,,,45,127
4628,note_on,1,0,0,,2,,,50,127
4628,note_on,0,0,0,,6,,,66,127
4755,note_off,127,0,0,,6,,,66,127
4756,note_on,1,0,0,,10,,,69,127
4863,note_off,107,0,0,,10,,,69,127
4884,note_on,21,0,0,,2,,,62,127
4991,note_off,107,0,0,,2,,,62,127
5011,note_off,20,0,0,,2,,,50,127
5012,note_on,1,0,0,,10,,,45,127
5012,note_on,0,0,0,,1,,,61,127
5139,note_off,127,0,0,,1,,,61,127
5140,note_on,1,0,0,,4,,,64,127
5253,note_off,113,0,0,,4,,,64,127
5268,note_on,15,0,0,,7,,,55,127
5381,note_off,113,0,0,,7,,,55,127
5394,note_off,13,0,0,,10,,,45,127
5395,note_on,1,0,0,,2,,,38,127
5395,note_on,0,0,0,,7,,,55,127
5436,note_off,41,0,0,,7,,,55,127
5437,note_on,1,0,0,,6,,,54,127
5478,note_off,41,0,0,,6,,,54,127
5479,note_on,1,0,0,,7,,,55,127
5520,note_off,41,0,0,,7,,,55,127
5521,note_on,1,0,0,,6,,,54,127
5776,note_off,255,0,0,,6,,,54,127
5776,note_off,0,0,0,,2,,,38,127
5799,note_on,23,0,0,,4,,,76,127
5799,note_on,0,0,0,,2,,,38,127
5840,note_off,41,0,0,,4,,,76,127
5841,note_on,1,0,0,,2,,,74,127
5882,note_off,41,0,0,,2,,,74,127
5883,note_on,1,0,0,,4,,,76,127
5924,note_off,41,0,0,,4,,,76,127
5924,note_off,0,0,0,,2,,,38,127
5925,note_on,1,0,0,,2,,,74,127
5925,note_on,0,0,0,,2,,,50,127
6052,note_off,127,0,0,,2,,,50,127
6053,note_on,1,0,0,,6,,,54,127
6180,note_off,127,0,0,,6,,,54,127
6180,note_off,0,0,0,,2,,,74,127
6181,note_on,1,0,0,,4,,,76,127
6181,note_on,0,0,0,,4,,,40,127
6222,note_off,41,0,0,,4,,,76,127
6223,note_on,1,0,0,,2,,,74,127
6264,note_off,41,0,0,,2,,,74,127
6265,note_on,1,0,0,,4,,,76,127
6306,note_off,41,0,0,,4,,,76,127
6306,note_off,0,0,0,,4,,,40,127
6307,note_on,1,0,0,,2,,,74,127
6307,note_on,0,0,0,,4,,,52,127
6434,note_off,127,0,0,,4,,,52,127
6435,note_on,1,0,0,,7,,,55,127
6562,note_off,127,0,0,,7,,,55,127
6562,note_off,0,0,0,,2,,,74,127
6563,note_on,1,0,0,,4,,,76,127
6563,note_on,0,0,0,,6,,,42,127
6604,note_off,41,0,0,,4,,,76,127
6605,note_on,1,0,0,,2,,,74,127
6646,note_off,41,0,0,,2,,,74,127
6647,note_on,1,0,0,,4,,,76,127
6688,note_off,41,0,0,,4,,,76,127
6688,note_off,0,0,0,,6,,,42,127
6689,note_on,1,0,0,,2,,,74,127
6689,note_on,0,0,0,,6,,,54,127
6816,note_off,127,0,0,,6,,,54,127
6817,note_on,1,0,0,,10,,,57,127
6944,note_off,127,0,0,,10,,,57,127
6944,note_off,0,0,0,,2,,,74,127
6945,note_on,1,0,0,,4,,,76,127
6945,note_on,0,0,0,,7,,,43,127
6986,note_off,41,0,0,,4,,,76,127
6987,note_on,1,0,0,,2,,,74,127
7028,note_off,41,0,0,,2,,,74,127
7029,note_on,1,0,0,,4,,,76,127
7070,note_off,41,0,0,,4,,,76,127
7070,note_off,0,0,0,,7,,,43,127
7071,note_on,1,0,0,,2,,,74,127
7071,note_on,0,0,0,,7,,,55,127
7198,note_off,127,0,0,,7,,,55,127
7199,note_on,1,0,0,,12,,,59,127
7326,note_off,127,0,0,,12,,,59,127
7326,note_off,0,0,0,,2,,,74,127
7327,note_on,1,0,0,,4,,,76,127
7327,note_on,0,0,0,,10,,,45,127
7368,note_off,41,0,0,,4,,,76,127
7369,note_on,1,0,0,,2,,,74,127
7410,note_off,41,0,0,,2,,,74,127
7411,note_on,1,0,0,,4,,,76,127
7452,note_off,41,0,0,,4,,,76,127
7452,note_off,0,0,0,,10,,,45,127
7453,note_on,1,0,0,,2,,,74,127
7453,note_on,0,0,0,,10,,,57,127
7580,note_off,127,0,0,,10,,,57,127
7581,note_on,1,0,0,,1,,,61,127
7708,note_off,127,0,0,,1,,,61,127
7708,note_off,0,0,0,,2,,,74,127
7709,note_on,1,0,0,,4,,,76,127
7709,note_on,0,0,0,,12,,,47,127
7750,note_off,41,0,0,,4,,,76,127
7751,note_on,1,0,0,,2,,,74,127
7792,note_off,41,0,0,,2,,,74,127
7793,note_on,1,0,0,,4,,,76,127
7834,note_off,41,0,0,,4,,,76,127
7834,note_off,0,0,0,,12,,,47,127
7835,note_on,1,0,0,,2,,,74,127
7835,note_on,0,0,0,,12,,,59,127
7962,note_off,127,0,0,,12,,,59,127
7963,note_on,1,0,0,,2,,,62,127
8090,note_off,127,0,0,,2,,,62,127
8090,note_off,0,0,0,,2,,,74,127
8091,note_on,1,0,0,,4,,,76,127
8091,note_on,0,0,0,,1,,,49,127
8218,note_off,127,0,0,,1,,,49,127
8218,note_off,0,0,0,,4,,,76,127
8219,note_on,1,0,0,,6,,,78,127
8219,note_on,0,0,0,,1,,,61,127
8346,note_off,127,0,0,,1,,,61,127
8346,note_off,0,0,0,,6,,,78,127
8347,note_on,1,0,0,,7,,,79,127
8347,note_on,0,0,0,,4,,,64,127
8474,note_off,127,0,0,,4,,,64,127
8474,note_off,0,0,0,,7,,,79,127
8475,note_on,1,0,0,,6,,,78,127
8475,note_on,0,0,0,,2,,,50,127
8602,note_off,127,0,0,,6,,,78,127
8603,note_on,1,0,0,,4,,,76,127
8730,note_off,127,0,0,,4,,,76,127
8731,note_on,1,0,0,,2,,,74,127
8858,note_off,127,0,0,,2,,,50,127
8859,note_on,1,0,0,,2,,,62,127
8986,note_off,127,0,0,,2,,,74,127
8987,note_on,1,0,0,,1,,,73,127
9100,note_off,113,0,0,,1,,,73,127
9115,note_on,15,0,0,,12,,,71,127
9228,note_off,113,0,0,,12,,,71,127
9241,note_off,13,0,0,,2,,,62,127
9242,note_on,1,0,0,,1,,,73,127
9242,note_on,0,0,0,,4,,,64,127
9369,note_off,127,0,0,,1,,,73,127
9370,note_on,1,0,0,,2,,,74,127
9497,note_off,127,0,0,,2,,,74,127
9498,note_on,1,0,0,,4,,,76,127
9625,note_off,127,0,0,,4,,,64,127
9626,note_on,1,0,0,,6,,,66,127
9753,note_off,127,0,0,,4,,,76,127
9754,note_on,1,0,0,,2,,,74,127
9867,note_off,113,0,0,,2,,,74,127
9882,note_on,15,0,0,,1,,,73,127
9995,note_off,113,0,0,,1,,,73,127
10008,note_off,13,0,0,,6,,,66,127
10009,note_on,1,0,0,,12,,,71,127
10009,note_on,0,0,0,,7,,,67,127
10136,note_off,127,0,0,,12,,,71,127
10137,note_on,1,0,0,,11,,,70,127
10264,note_off,127,0,0,,11,,,70,127
10265,note_on,1,0,0,,12,,,71,127
10392,note_off,127,0,0,,7,,,67,127
10393,note_on,1,0,0,,2,,,62,127
10520,note_off,127,0,0,,12,,,71,127
10521,note_on,1,0,0,,11,,,70,127
10648,note_off,127,0,0,,11,,,70,127
10649,note_on,1,0,0,,12,,,71,127
10776,note_off,127,0,0,,12,,,71,127
10776,note_off,0,0,0,,2,,,62,127
10777,note_on,1,0,0,,1,,,73,127
10777,note_on,0,0,0,,4,,,64,127
10897,note_off,120,0,0,,1,,,73,127
10905,note_on,8,0,0,,2,,,74,127
11025,note_off,120,0,0,,2,,,74,127
11033,note_on,8,0,0,,4,,,76,127
11160,note_off,127,0,0,,4,,,64,127
11161,note_on,1,0,0,,6,,,66,127
11288,note_off,127,0,0,,4,,,76,127
11289,note_on,1,0,0,,2,,,74,127
11402,note_off,113,0,0,,2,,,74,127
11417,note_on,15,0,0,,1,,,73,127
11537,note_off,120,0,0,,1,,,73,127
11544,note_off,7,0,0,,6,,,66,127
11545,note_on,1,0,0,,2,,,74,127
11545,note_on,0,0,0,,12,,,59,127
11545,note_on,0,0,0,,2,,,62,127
11672,note_off,127,0,0,,2,,,74,127
11673,note_on,1,0,0,,1,,,73,127
11800,note_off,127,0,0,,1,,,73,127
11801,note_on,1,0,0,,2,,,74,127
11928,note_off,127,0,0,,2,,,62,127
11928,note_off,0,0,0,,12,,,59,127
11929,note_on,1,0,0,,2,,,62,127
11929,note_on,0,0,0,,12,,,59,127
12056,note_off,127,0,0,,2,,,74,127
12057,note_on,1,0,0,,1,,,73,127
12177,note_off,120,0,0,,1,,,73,127
12185,note_on,8,0,0,,2,,,74,127
12305,note_off,120,0,0,,2,,,74,127
12312,note_off,7,0,0,,12,,,59,127
12312,note_off,0,0,0,,2,,,62,127
12313,note_on,1,0,0,,8,,,80,127
12313,note_on,0,0,0,,2,,,62,127
12313,note_on,0,0,0,,12,,,59,127
12313,note_on,0,0,0,,4,,,52,127
12440,note_off,127,0,0,,8,,,80,127
12441,note_on,1,0,0,,12,,,83,127
12568,note_off,127,0,0,,12,,,83,127
12569,note_on,1,0,0,,2,,,74,127
12696,note_off,127,0,0,,4,,,52,127
12696,note_off,0,0,0,,12,,,59,127
12696,note_off,0,0,0,,2,,,62,127
12697,note_on,1,0,0,,12,,,59,127
12697,note_on,0,0,0,,2,,,62,127
12697,note_on,0,0,0,,4,,,52,127
12824,note_off,127,0,0,,2,,,74,127
12825,note_on,1,0,0,,0,,,72,127
12952,note_off,127,0,0,,0,,,72,127
12953,note_on,1,0,0,,12,,,71,127
13080,note_off,127,0,0,,12,,,71,127
13080,note_off,0,0,0,,4,,,52,127
13080,note_off,0,0,0,,2,,,62,127
13080,note_off,0,0,0,,12,,,59,127
13081,note_on,1,0,0,,0,,,72,127
13081,note_on,0,0,0,,4,,,52,127
13081,note_on,0,0,0,,0,,,60,127
13081,note_on,0,0,0,,10,,,57,127
13208,note_off,127,0,0,,0,,,72,127
13209,note_on,1,0,0,,12,,,71,127
13336,note_off,127,0,0,,12,,,71,127
13337,note_on,1,0,0,,0,,,72,127
13464,note_off,127,0,0,,0,,,72,127
13464,note_off,0,0,0,,10,,,57,127
13464,note_off,0,0,0,,0,,,60,127
13464,note_off,0,0,0,,4,,,52,127
13465,note_on,1,0,0,,12,,,71,127
13465,note_on,0,0,0,,4,,,52,127
13465,note_on,0,0,0,,12,,,59,127
13465,note_on,0,0,0,,8,,,56,127
13592,note_off,127,0,0,,12,,,71,127
13593,note_on,1,0,0,,0,,,72,127
13720,note_off,127,0,0,,0,,,72,127
13721,note_on,1,0,0,,2,,,74,127
13848,note_off,127,0,0,,2,,,74,127
13848,note_off,0,0,0,,8,,,56,127
13848,note_off,0,0,0,,12,,,59,127
13848,note_off,0,0,0,,4,,,52,127
13849,note_on,1,0,0,,0,,,72,127
13849,note_on,0,0,0,,0,,,60,127
13849,note_on,0,0,0,,10,,,57,127
13849,note_on,0,0,0,,4,,,52,127
13976,note_off,127,0,0,,0,,,72,127
13977,note_on,1,0,0,,12,,,71,127
14104,note_off,127,0,0,,12,,,71,127
14105,note_on,1,0,0,,0,,,72,127
14232,note_off,127,0,0,,0,,,72,127
14232,note_off,0,0,0,,4,,,52,127
14232,note_off,0,0,0,,10,,,57,127
14232,note_off,0,0,0,,0,,,60,127
14233,note_on,1,0,0,,12,,,71,127
14233,note_on,0,0,0,,12,,,59,127
14233,note_on,0,0,0,,4,,,52,127
14233,note_on,0,0,0,,8,,,56,127
14360,note_off,127,0,0,,12,,,71,127
14361,note_on,1,0,0,,0,,,72,127
14488,note_off,127,0,0,,0,,,72,127
14489,note_on,1,0,0,,2,,,74,127
14616,note_off,127,0,0,,2,,,74,127
14616,note_off,0,0,0,,8,,,56,127
14616,note_off,0,0,0,,4,,,52,127
14616,note_off,0,0,0,,12,,,59,127
14617,note_on,1,0,0,,0,,,72,127
14617,note_on,0,0,0,,0,,,60,127
14617,note_on,0,0,0,,10,,,57,127
14737,note_off,120,0,0,,0,,,72,127
14745,note_on,8,0,0,,12,,,71,127
14865,note_off,120,0,0,,12,,,71,127
14873,note_on,8,0,0,,0,,,72,127
15000,note_off,127,0,0,,10,,,57,127
15000,note_off,0,0,0,,0,,,60,127
15001,note_on,1,0,0,,0,,,60,127
15001,note_on,0,0,0,,10,,,57,127
15128,note_off,127,0,0,,0,,,72,127
15129,note_on,1,0,0,,12,,,71,127
15256,note_off,127,0,0,,12,,,71,127
15257,note_on,1,0,0,,0,,,72,127
15384,note_off,127,0,0,,0,,,72,127
15384,note_off,0,0,0,,10,,,57,127
15384,note_off,0,0,0,,0,,,60,127
15385,note_on,1,0,0,,6,,,78,127
15385,note_on,0,0,0,,0,,,60,127
15385,note_on,0,0,0,,10,,,57,127
15385,note_on,0,0,0,,2,,,50,127
15385,note_on,0,0,0,,6,,,54,127
15512,note_off,127,0,0,,6,,,78,127
15513,note_on,1,0,0,,10,,,81,127
15640,note_off,127,0,0,,10,,,81,127
15641,note_on,1,0,0,,0,,,72,127
15768,note_off,127,0,0,,6,,,54,127
15768,note_off,0,0,0,,2,,,50,127
15768,note_off,0,0,0,,10,,,57,127
15768,note_off,0,0,0,,0,,,60,127
15769,note_on,1,0,0,,6,,,54,127
15769,note_on,0,0,0,,10,,,57,127
15769,note_on,0,0,0,,0,,,60,127
15769,note_on,0,0,0,,2,,,50,127
15896,note_off,127,0,0,,0,,,72,127
15897,note_on,1,0,0,,12,,,71,127
16024,note_off,127,0,0,,12,,,71,127
16025,note_on,1,0,0,,10,,,69,127
16152,note_off,127,0,0,,10,,,69,127
16152,note_off,0,0,0,,2,,,50,127
16152,note_off,0,0,0,,0,,,60,127
16152,note_off,0,0,0,,10,,,57,127
16152,note_off,0,0,0,,6,,,54,127
16153,note_on,1,0,0,,12,,,71,127
16153,note_on,0,0,0,,7,,,55,127
16153,note_on,0,0,0,,12,,,59,127
16153,note_on,0,0,0,,2,,,50,127
16280,note_off,127,0,0,,12,,,71,127
16281,note_on,1,0,0,,10,,,69,127
16408,note_off,127,0,0,,10,,,69,127
16409,note_on,1,0,0,,12,,,71,127
16536,note_off,127,0,0,,12,,,71,127
16536,note_off,0,0,0,,2,,,50,127
16536,note_off,0,0,0,,12,,,59,127
16536,note_off,0,0,0,,7,,,55,127
16537,note_on,1,0,0,,10,,,69,127
16537,note_on,0,0,0,,6,,,54,127
16537,note_on,0,0,0,,10,,,57,127
16537,note_on,0,0,0,,0,,,60,127
16537,note_on,0,0,0,,2,,,50,127
16664,note_off,127,0,0,,10,,,69,127
16665,note_on,1,0,0,,12,,,71,127
16792,note_off,127,0,0,,12,,,71,127
16793,note_on,1,0,0,,0,,,72,127
16920,note_off,127,0,0,,0,,,72,127
16920,note_off,0,0,0,,2,,,50,127
16920,note_off,0,0,0,,0,,,60,127
16920,note_off,0,0,0,,10,,,57,127
16920,note_off,0,0,0,,6,,,54,127
16921,note_on,1,0,0,,12,,,71,127
16921,note_on,0,0,0,,12,,,59,127
16921,note_on,0,0,0,,7,,,55,127
16921,note_on,0,0,0,,2,,,50,127
17048,note_off,127,0,0,,12,,,71,127
17049,note_on,1,0,0,,10,,,69,127
17176,note_off,127,0,0,,10,,,69,127
17177,note_on,1,0,0,,12,,,71,127
17304,note_off,127,0,0,,12,,,71,127
17304,note_off,0,0,0,,2,,,50,127
17304,note_off,0,0,0,,7,,,55,127
17304,note_off,0,0,0,,12,,,59,127
17305,note_on,1,0,0,,10,,,69,127
17305,note_on,0,0,0,,0,,,60,127
17305,note_on,0,0,0,,10,,,57,127
17305,note_on,0,0,0,,2,,,50,127
17305,note_on,0,0,0,,6,,,54,127
17432,note_off,127,0,0,,10,,,69,127
17433,note_on,1,0,0,,12,,,71,127
17560,note_off,127,0,0,,12,,,71,127
17561,note_on,1,0,0,,0,,,72,127
17688,note_off,127,0,0,,0,,,72,127
17688,note_off,0,0,0,,6,,,54,127
17688,note_off,0,0,0,,2,,,50,127
17688,note_off,0,0,0,,10,,,57,127
17688,note_off,0,0,0,,0,,,60,127
17689,note_on,1,0,0,,0,,,72,127
17689,note_on,0,0,0,,12,,,59,127
17689,note_on,0,0,0,,7,,,55,127
17730,note_off,41,0,0,,0,,,72,127
17731,note_on,1,0,0,,12,,,71,127
17772,note_off,41,0,0,,12,,,71,127
17773,note_on,1,0,0,,0,,,72,127
17814,note_off,41,0,0,,0,,,72,127
17815,note_on,1,0,0,,12,,,71,127
18075,note_off,260,0,0,,7,,,55,127
18075,note_off,0,0,0,,12,,,59,127
18076,note_off,1,0,0,,12,,,71,127
18076,note_on,0,0,0,,7,,,79,127
18076,note_on,0,0,0,,7,,,55,127
18076,note_on,0,0,0,,7,,,43,127
18203,note_off,127,0,0,,7,,,79,127
18204,note_on,1,0,0,,2,,,74,127
18331,note_off,127,0,0,,2,,,74,127
18332,note_on,1,0,0,,5,,,77,127
18459,note_off,127,0,0,,5,,,77,127
18459,note_off,0,0,0,,7,,,43,127
18459,note_off,0,0,0,,7,,,55,127
18460,note_on,1,0,0,,3,,,75,127
18460,note_on,0,0,0,,7,,,55,127
18460,note_on,0,0,0,,7,,,43,127
18587,note_off,127,0,0,,3,,,75,127
18588,note_on,1,0,0,,7,,,67,127
18715,note_off,127,0,0,,7,,,67,127
18716,note_on,1,0,0,,8,,,68,127
18843,note_off,127,0,0,,8,,,68,127
18843,note_off,0,0,0,,7,,,43,127
18843,note_off,0,0,0,,7,,,55,127
18844,note_on,1,0,0,,2,,,74,127
18844,note_on,0,0,0,,7,,,55,127
18844,note_on,0,0,0,,7,,,43,127
18971,note_off,127,0,0,,2,,,74,127
18972,note_on,1,0,0,,5,,,65,127
19099,note_off,127,0,0,,5,,,65,127
19100,note_on,1,0,0,,3,,,63,127
19100,note_on,0,0,0,,0,,,72,127
19227,note_off,127,0,0,,0,,,72,127
19227,note_off,0,0,0,,3,,,63,127
19227,note_off,0,0,0,,7,,,43,127
19227,note_off,0,0,0,,7,,,55,127
19228,note_on,1,0,0,,2,,,62,127
19228,note_on,0,0,0,,12,,,71,127
19228,note_on,0,0,0,,7,,,55,127
19228,note_on,0,0,0,,7,,,43,127
19611,note_off,383,0,0,,7,,,43,127
19611,note_off,0,0,0,,7,,,55,127
19611,note_off,0,0,0,,12,,,71,127
19611,note_off,0,0,0,,2,,,62,127
19612,note_on,1,0,0,,7,,,79,127
19612,note_on,0,0,0,,7,,,55,127
19612,note_on,0,0,0,,7,,,43,127
19739,note_off,127,0,0,,7,,,79,127
19740,note_on,1,0,0,,2,,,74,127
19867,note_off,127,0,0,,2,,,74,127
19868,note_on,1,0,0,,5,,,77,127
19995,note_off,127,0,0,,5,,,77,127
19995,note_off,0,0,0,,7,,,43,127
19995,note_off,0,0,0,,7,,,55,127
19996,note_on,1,0,0,,3,,,75,127
19996,note_on,0,0,0,,7,,,55,127
19996,note_on,0,0,0,,7,,,43,127
20123,note_off,127,0,0,,3,,,75,127
20124,note_on,1,0,0,,7,,,67,127
20251,note_off,127,0,0,,7,,,67,127
20252,note_on,1,0,0,,8,,,68,127
20379,note_off,127,0,0,,8,,,68,127
20379,note_off,0,0,0,,7,,,43,127
20379,note_off,0,0,0,,7,,,55,127
20380,note_on,1,0,0,,2,,,74,127
20380,note_on,0,0,0,,7,,,55,127
20380,note_on,0,0,0,,7,,,43,127
20508,note_on,128,0,0,,5,,,65,127
20633,note_off,125,0,0,,2,,,74,127
20634,note_off,1,0,0,,5,,,65,127
20635,note_on,1,0,0,,0,,,72,127
20635,note_on,0,0,0,,3,,,63,127
20762,note_off,127,0,0,,3,,,63,127
20762,note_off,0,0,0,,0,,,72,127
20762,note_off,0,0,0,,7,,,43,127
20762,note_off,0,0,0,,7,,,55,127
20763,note_on,1,0,0,,12,,,71,127
20763,note_on,0,0,0,,2,,,62,127
20763,note_on,0,0,0,,7,,,43,127
20763,note_on,0,0,0,,7,,,55,127
21146,note_off,383,0,0,,7,,,55,127
21146,note_off,0,0,0,,7,,,43,127
21146,note_off,0,0,0,,2,,,62,127
21146,note_off,0,0,0,,12,,,71,127
21147,note_on,1,0,0,,12,,,71,127
21147,note_on,0,0,0,,7,,,55,127
21147,note_on,0,0,0,,7,,,43,127
21274,note_off,127,0,0,,12,,,71,127
21275,note_on,1,0,0,,5,,,65,127
21402,note_off,127,0,0,,5,,,65,127
21403,note_on,1,0,0,,12,,,71,127
21530,note_off,127,0,0,,12,,,71,127
21530,note_off,0,0,0,,7,,,43,127
21530,note_off,0,0,0,,7,,,55,127
21531,note_on,1,0,0,,2,,,74,127
21531,note_on,0,0,0,,2,,,38,127
21531,note_on,0,0,0,,2,,,50,127
21658,note_off,127,0,0,,2,,,74,127
21659,note_on,1,0,0,,5,,,77,127
21786,note_off,127,0,0,,5,,,77,127
21787,note_on,1,0,0,,2,,,74,127
21914,note_off,127,0,0,,2,,,74,127
21914,note_off,0,0,0,,2,,,50,127
21914,note_off,0,0,0,,2,,,38,127
21915,note_on,1,0,0,,12,,,71,127
21915,note_on,0,0,0,,2,,,50,127
21915,note_on,0,0,0,,2,,,38,127
22043,note_on,128,0,0,,5,,,65,127
22168,note_off,125,0,0,,12,,,71,127
22169,note_off,1,0,0,,5,,,65,127
22170,note_on,1,0,0,,10,,,69,127
22170,note_on,0,0,0,,0,,,60,127
22297,note_off,127,0,0,,0,,,60,127
22297,note_off,0,0,0,,10,,,69,127
22297,note_off,0,0,0,,2,,,38,127
22297,note_off,0,0,0,,2,,,50,127
22298,note_on,1,0,0,,8,,,68,127
22298,note_on,0,0,0,,12,,,59,127
22298,note_on,0,0,0,,4,,,52,127
22298,note_on,0,0,0,,4,,,40,127
22681,note_off,383,0,0,,4,,,40,127
22681,note_off,0,0,0,,4,,,52,127
22681,note_off,0,0,0,,12,,,59,127
22681,note_off,0,0,0,,8,,,68,127
22682,note_on,1,0,0,,4,,,76,127
22682,note_on,0,0,0,,4,,,52,127
22682,note_on,0,0,0,,4,,,40,127
22809,note_off,127,0,0,,4,,,76,127
22810,note_on,1,0,0,,12,,,71,127
22937,note_off,127,0,0,,12,,,71,127
22938,note_on,1,0,0,,2,,,74,127
23065,note_off,127,0,0,,2,,,74,127
23065,note_off,0,0,0,,4,,,40,127
23065,note_off,0,0,0,,4,,,52,127
23066,note_on,1,0,0,,0,,,72,127
23066,note_on,0,0,0,,4,,,52,127
23066,note_on,0,0,0,,4,,,40,127
23193,note_off,127,0,0,,0,,,72,127
23194,note_on,1,0,0,,10,,,69,127
23321,note_off,127,0,0,,10,,,69,127
23322,note_on,1,0,0,,6,,,66,127
23449,note_off,127,0,0,,6,,,66,127
23449,note_off,0,0,0,,4,,,40,127
23449,note_off,0,0,0,,4,,,52,127
23450,note_on,1,0,0,,3,,,63,127
23450,note_on,0,0,0,,4,,,52,127
23450,note_on,0,0,0,,4,,,40,127
23577,note_off,127,0,0,,3,,,63,127
23578,note_on,1,0,0,,0,,,60,127
23705,note_off,127,0,0,,0,,,60,127
23706,note_on,1,0,0,,10,,,69,127
23833,note_off,127,0,0,,10,,,69,127
23833,note_off,0,0,0,,4,,,40,127
23833,note_off,0,0,0,,4,,,52,127
23834,note_on,1,0,0,,8,,,68,127
23834,note_on,0,0,0,,12,,,59,127
23834,note_on,0,0,0,,4,,,52,127
23834,note_on,0,0,0,,4,,,40,127
24217,note_off,383,0,0,,4,,,40,127
24217,note_off,0,0,0,,4,,,52,127
24217,note_off,0,0,0,,12,,,59,127
24217,note_off,0,0,0,,8,,,68,127
24218,note_on,1,0,0,,4,,,76,127
24218,note_on,0,0,0,,4,,,52,127
24218,note_on,0,0,0,,4,,,40,127
24345,note_off,127,0,0,,4,,,76,127
24346,note_on,1,0,0,,12,,,71,127
24473,note_off,127,0,0,,12,,,71,127
24474,note_on,1,0,0,,2,,,74,127
24601,note_off,127,0,0,,2,,,74,127
24601,note_off,0,0,0,,4,,,40,127
24601,note_off,0,0,0,,4,,,52,127
24602,note_on,1,0,0,,0,,,72,127
24602,note_on,0,0,0,,4,,,52,127
24602,note_on,0,0,0,,4,,,40,127
24729,note_off,127,0,0,,0,,,72,127
24730,note_on,1,0,0,,10,,,69,127
24857,note_off,127,0,0,,10,,,69,127
24858,note_on,1,0,0,,6,,,66,127
24985,note_off,127,0,0,,6,,,66,127
24985,note_off,0,0,0,,4,,,40,127
24985,note_off,0,0,0,,4,,,52,127
24986,note_on,1,0,0,,3,,,63,127
24986,note_on,0,0,0,,4,,,52,127
24986,note_on,0,0,0,,4,,,40,127
25113,note_off,127,0,0,,3,,,63,127
25114,note_on,1,0,0,,0,,,60,127
25241,note_off,127,0,0,,0,,,60,127
25242,note_on,1,0,0,,10,,,69,127
25369,note_off,127,0,0,,10,,,69,127
25369,note_off,0,0,0,,4,,,40,127
25369,note_off,0,0,0,,4,,,52,127
25370,note_on,1,0,0,,8,,,68,127
25370,note_on,0,0,0,,12,,,59,127
25370,note_on,0,0,0,,4,,,52,127
25370,note_on,0,0,0,,4,,,40,127
25753,note_off,383,0,0,,4,,,40,127
25753,note_off,0,0,0,,4,,,52,127
25753,note_off,0,0,0,,12,,,59,127
25753,note_off,0,0,0,,8,,,68,127
25754,note_on,1,0,0,,6,,,78,127
25754,note_on,0,0,0,,4,,,40,127
25795,note_off,41,0,0,,6,,,78,127
25796,note_on,1,0,0,,4,,,76,127
25837,note_off,41,0,0,,4,,,76,127
25838,note_on,1,0,0,,6,,,78,127
25879,note_off,41,0,0,,6,,,78,127
25879,note_off,0,0,0,,4,,,40,127
25880,note_on,1,0,0,,4,,,76,127
25880,note_on,0,0,0,,4,,,52,127
26007,note_off,127,0,0,,4,,,52,127
26008,note_on,1,0,0,,8,,,56,127
26135,note_off,127,0,0,,8,,,56,127
26135,note_off,0,0,0,,4,,,76,127
26136,note_on,1,0,0,,6,,,78,127
26136,note_on,0,0,0,,6,,,42,127
26177,note_off,41,0,0,,6,,,78,127
26178,note_on,1,0,0,,4,,,76,127
26219,note_off,41,0,0,,4,,,76,127
26220,note_on,1,0,0,,6,,,78,127
26261,note_off,41,0,0,,6,,,78,127
26261,note_off,0,0,0,,6,,,42,127
26262,note_on,1,0,0,,4,,,76,127
26262,note_on,0,0,0,,6,,,54,127
26389,note_off,127,0,0,,6,,,54,127
26390,note_on,1,0,0,,10,,,57,127
26517,note_off,127,0,0,,10,,,57,127
26517,note_off,0,0,0,,4,,,76,127
26518,note_on,1,0,0,,6,,,78,127
26518,note_on,0,0,0,,8,,,44,127
26559,note_off,41,0,0,,6,,,78,127
26560,note_on,1,0,0,,4,,,76,127
26601,note_off,41,0,0,,4,,,76,127
26602,note_on,1,0,0,,6,,,78,127
26643,note_off,41,0,0,,6,,,78,127
26643,note_off,0,0,0,,8,,,44,127
26644,note_on,1,0,0,,4,,,76,127
26644,note_on,0,0,0,,8,,,56,127
26771,note_off,127,0,0,,8,,,56,127
26772,note_on,1,0,0,,12,,,59,127
26899,note_off,127,0,0,,12,,,59,127
26899,note_off,0,0,0,,4,,,76,127
26900,note_on,1,0,0,,6,,,78,127
26900,note_on,0,0,0,,10,,,45,127
26941,note_off,41,0,0,,6,,,78,127
26942,note_on,1,0,0,,4,,,76,127
26983,note_off,41,0,0,,4,,,76,127
26984,note_on,1,0,0,,6,,,78,127
27025,note_off,41,0,0,,6,,,78,127
27025,note_off,0,0,0,,10,,,45,127
27026,note_on,1,0,0,,4,,,76,127
27026,note_on,0,0,0,,10,,,57,127
27153,note_off,127,0,0,,10,,,57,127
27154,note_on,1,0,0,,1,,,61,127
27281,note_off,127,0,0,,1,,,61,127
27281,note_off,0,0,0,,4,,,76,127
27282,note_on,1,0,0,,6,,,78,127
27282,note_on,0,0,0,,12,,,47,127
27323,note_off,41,0,0,,6,,,78,127
27324,note_on,1,0,0,,4,,,76,127
27365,note_off,41,0,0,,4,,,76,127
27366,note_on,1,0,0,,6,,,78,127
27407,note_off,41,0,0,,6,,,78,127
27407,note_off,0,0,0,,12,,,47,127
27408,note_on,1,0,0,,4,,,76,127
27408,note_on,0,0,0,,12,,,59,127
27535,note_off,127,0,0,,12,,,59,127
27536,note_on,1,0,0,,2,,,62,127
27663,note_off,127,0,0,,2,,,62,127
27663,note_off,0,0,0,,4,,,76,127
27664,note_on,1,0,0,,6,,,78,127
27664,note_on,0,0,0,,1,,,49,127
27705,note_off,41,0,0,,6,,,78,127
27706,note_on,1,0,0,,4,,,76,127
27747,note_off,41,0,0,,4,,,76,127
27748,note_on,1,0,0,,6,,,78,127
27789,note_off,41,0,0,,6,,,78,127
27789,note_off,0,0,0,,1,,,49,127
27790,note_on,1,0,0,,4,,,76,127
27790,note_on,0,0,0,,1,,,61,127
27917,note_off,127,0,0,,1,,,61,127
27918,note_on,1,0,0,,4,,,64,127
28045,note_off,127,0,0,,4,,,64,127
28045,note_off,0,0,0,,4,,,76,127
28046,note_on,1,0,0,,8,,,80,127
28046,note_on,0,0,0,,2,,,50,127
28087,note_off,41,0,0,,8,,,80,127
28088,note_on,1,0,0,,6,,,78,127
28129,note_off,41,0,0,,6,,,78,127
28130,note_on,1,0,0,,8,,,80,127
28171,note_off,41,0,0,,8,,,80,127
28171,note_off,0,0,0,,2,,,50,127
28172,note_on,1,0,0,,6,,,78,127
28172,note_on,0,0,0,,2,,,62,127
28299,note_off,127,0,0,,2,,,62,127
28300,note_on,1,0,0,,6,,,66,127
28427,note_off,127,0,0,,6,,,66,127
28427,note_off,0,0,0,,6,,,78,127
28428,note_on,1,0,0,,10,,,81,127
28428,note_on,0,0,0,,4,,,52,127
28469,note_off,41,0,0,,10,,,81,127
28470,note_on,1,0,0,,8,,,80,127
28511,note_off,41,0,0,,8,,,80,127
28512,note_on,1,0,0,,10,,,81,127
28553,note_off,41,0,0,,10,,,81,127
28553,note_off,0,0,0,,4,,,52,127
28554,note_on,1,0,0,,8,,,80,127
28554,note_on,0,0,0,,4,,,64,127
28681,note_off,127,0,0,,4,,,64,127
28682,note_on,1,0,0,,8,,,68,127
28809,note_off,127,0,0,,8,,,68,127
28809,note_off,0,0,0,,8,,,80,127
28810,note_on,1,0,0,,10,,,81,127
28810,note_on,0,0,0,,10,,,45,127
28937,note_off,127,0,0,,10,,,81,127
28938,note_on,1,0,0,,4,,,76,127
29051,note_off,113,0,0,,4,,,76,127
29066,note_on,15,0,0,,1,,,73,127
29186,note_off,120,0,0,,1,,,73,127
29193,note_off,7,0,0,,10,,,45,127
29194,note_on,1,0,0,,2,,,74,127
29194,note_on,0,0,0,,2,,,50,127
29321,note_off,127,0,0,,2,,,74,127
29322,note_on,1,0,0,,4,,,76,127
29435,note_off,113,0,0,,4,,,76,127
29450,note_on,15,0,0,,10,,,69,127
29450,note_on,0,0,0,,6,,,78,127
29570,note_off,120,0,0,,6,,,78,127
29577,note_off,7,0,0,,2,,,50,127
29578,note_on,1,0,0,,1,,,73,127
29578,note_on,0,0,0,,4,,,52,127
29705,note_off,127,0,0,,1,,,73,127
29706,note_on,1,0,0,,2,,,74,127
29819,note_off,113,0,0,,2,,,74,127
29833,note_off,14,0,0,,10,,,69,127
29834,note_on,1,0,0,,8,,,68,127
29834,note_on,0,0,0,,12,,,71,127
29954,note_off,120,0,0,,12,,,71,127
29961,note_off,7,0,0,,8,,,68,127
29961,note_off,0,0,0,,4,,,52,127
29962,note_on,1,0,0,,10,,,69,127
29962,note_on,0,0,0,,10,,,45,127
30345,note_off,383,0,0,,10,,,45,127
30345,note_off,0,0,0,,10,,,69,127
30352,note_on,7,0,0,,10,,,81,127
30352,note_on,0,0,0,,10,,,57,127
30479,note_off,127,0,0,,10,,,57,127
30480,note_on,1,0,0,,10,,,69,127
30607,note_off,127,0,0,,10,,,69,127
30608,note_on,1,0,0,,1,,,73,127
30735,note_off,127,0,0,,1,,,73,127
30735,note_off,0,0,0,,10,,,81,127
30736,note_on,1,0,0,,10,,,81,127
30736,note_on,0,0,0,,6,,,54,127
30863,note_off,127,0,0,,6,,,54,127
30864,note_on,1,0,0,,6,,,66,127
30991,note_off,127,0,0,,6,,,66,127
30992,note_on,1,0,0,,10,,,69,127
31119,note_off,127,0,0,,10,,,69,127
31119,note_off,0,0,0,,10,,,81,127
31120,note_on,1,0,0,,2,,,86,127
31120,note_on,0,0,0,,2,,,50,127
31247,note_off,127,0,0,,2,,,50,127
31248,note_on,1,0,0,,2,,,62,127
31375,note_off,127,0,0,,2,,,62,127
31376,note_on,1,0,0,,6,,,66,127
31503,note_off,127,0,0,,6,,,66,127
31504,note_on,1,0,0,,4,,,40,127
31631,note_off,127,0,0,,2,,,86,127
31632,note_on,1,0,0,,12,,,83,127
31759,note_off,127,0,0,,12,,,83,127
31760,note_on,1,0,0,,8,,,80,127
31887,note_off,127,0,0,,8,,,80,127
31887,note_off,0,0,0,,4,,,40,127
31888,note_on,1,0,0,,4,,,76,127
31888,note_on,0,0,0,,4,,,40,127
32015,note_off,127,0,0,,4,,,76,127
32016,note_on,1,0,0,,12,,,83,127
32143,note_off,127,0,0,,12,,,83,127
32144,note_on,1,0,0,,2,,,86,127
32271,note_off,127,0,0,,2,,,86,127
32271,note_off,0,0,0,,4,,,40,127
32272,note_on,1,0,0,,4,,,76,127
32272,note_on,0,0,0,,1,,,85,127
32272,note_on,0,0,0,,10,,,45,127
32399,note_off,127,0,0,,1,,,85,127
32400,note_on,1,0,0,,12,,,83,127
32527,note_off,127,0,0,,12,,,83,127
32528,note_on,1,0,0,,1,,,85,127
32655,note_off,127,0,0,,1,,,85,127
32655,note_off,0,0,0,,10,,,45,127
32656,note_off,1,0,0,,4,,,76,127
32657,note_on,1,0,0,,2,,,74,127
32657,note_on,0,0,0,,12,,,83,127
32657,note_on,0,0,0,,4,,,40,127
32784,note_off,127,0,0,,12,,,83,127
32785,note_on,1,0,0,,10,,,81,127
32912,note_off,127,0,0,,10,,,81,127
32913,note_on,1,0,0,,12,,,83,127
33040,note_off,127,0,0,,12,,,83,127
33040,note_off,0,0,0,,4,,,40,127
33041,note_off,1,0,0,,2,,,74,127
33042,note_on,1,0,0,,10,,,81,127
33042,note_on,0,0,0,,1,,,73,127
33042,note_on,0,0,0,,10,,,45,127
33425,note_off,383,0,0,,10,,,45,127
33425,note_off,0,0,0,,1,,,73,127
33425,note_off,0,0,0,,10,,,81,127
33426,note_on,1,0,0,,10,,,81,127
33426,note_on,0,0,0,,10,,,57,127
33553,note_off,127,0,0,,10,,,57,127
33554,note_on,1,0,0,,10,,,69,127
33681,note_off,127,0,0,,10,,,69,127
33682,note_on,1,0,0,,1,,,73,127
33809,note_off,127,0,0,,1,,,73,127
33809,note_off,0,0,0,,10,,,81,127
33810,note_on,1,0,0,,10,,,81,127
33810,note_on,0,0,0,,6,,,54,127
33937,note_off,127,0,0,,6,,,54,127
33938,note_on,1,0,0,,6,,,66,127
34065,note_off,127,0,0,,6,,,66,127
34066,note_on,1,0,0,,10,,,69,127
34193,note_off,127,0,0,,10,,,69,127
34193,note_off,0,0,0,,10,,,81,127
34194,note_on,1,0,0,,2,,,86,127
34194,note_on,0,0,0,,2,,,50,127
34321,note_off,127,0,0,,2,,,50,127
34322,note_on,1,0,0,,2,,,62,127
34449,note_off,127,0,0,,2,,,62,127
34450,note_on,1,0,0,,6,,,66,127
34577,note_off,127,0,0,,6,,,66,127
34578,note_on,1,0,0,,4,,,40,127
34705,note_off,127,0,0,,2,,,86,127
34706,note_on,1,0,0,,12,,,83,127
34833,note_off,127,0,0,,12,,,83,127
34834,note_on,1,0,0,,8,,,80,127
34961,note_off,127,0,0,,8,,,80,127
34961,note_off,0,0,0,,4,,,40,127
34962,note_on,1,0,0,,4,,,76,127
34962,note_on,0,0,0,,4,,,40,127
35089,note_off,127,0,0,,4,,,76,127
35090,note_on,1,0,0,,12,,,83,127
35217,note_off,127,0,0,,12,,,83,127
35218,note_on,1,0,0,,2,,,86,127
35345,note_off,127,0,0,,2,,,86,127
35345,note_off,0,0,0,,4,,,40,127
35346,note_on,1,0,0,,4,,,76,127
35346,note_on,0,0,0,,1,,,85,127
35346,note_on,0,0,0,,10,,,45,127
35473,note_off,127,0,0,,1,,,85,127
35474,note_on,1,0,0,,12,,,83,127
35601,note_off,127,0,0,,12,,,83,127
35602,note_on,1,0,0,,1,,,85,127
35729,note_off,127,0,0,,1,,,85,127
35729,note_off,0,0,0,,10,,,45,127
35730,note_off,1,0,0,,4,,,76,127
35731,note_on,1,0,0,,12,,,83,127
35731,note_on,0,0,0,,2,,,74,127
35731,note_on,0,0,0,,4,,,40,127
35858,note_off,127,0,0,,12,,,83,127
35859,note_on,1,0,0,,10,,,81,127
35986,note_off,127,0,0,,10,,,81,127
35987,note_on,1,0,0,,12,,,83,127
36114,note_off,127,0,0,,12,,,83,127
36114,note_off,0,0,0,,4,,,40,127
36115,note_off,1,0,0,,2,,,74,127
36116,note_on,1,0,0,,10,,,81,127
36116,note_on,0,0,0,,1,,,73,127
36116,note_on,0,0,0,,10,,,45,127
36371,note_off,255,0,0,,10,,,45,127
36371,note_off,0,0,0,,1,,,73,127
36371,note_off,0,0,0,,10,,,81,127
36372,note_on,1,0,0,,4,,,76,127
36372,note_on,0,0,0,,1,,,73,127
36499,note_off,127,0,0,,1,,,73,127
36499,note_off,0,0,0,,4,,,76,127
36500,note_on,1,0,0,,2,,,74,127
36500,note_on,0,0,0,,12,,,71,127
36627,note_off,127,0,0,,2,,,74,127
36628,note_on,1,0,0,,1,,,73,127
36755,note_off,127,0,0,,1,,,73,127
36756,note_on,1,0,0,,2,,,74,127
36883,note_off,127,0,0,,2,,,74,127
36883,note_off,0,0,0,,12,,,71,127
36884,note_on,1,0,0,,1,,,73,127
36884,note_on,0,0,0,,10,,,69,127
37011,note_off,127,0,0,,1,,,73,127
37012,note_on,1,0,0,,12,,,71,127
37139,note_off,127,0,0,,12,,,71,127
37140,note_on,1,0,0,,1,,,73,127
37267,note_off,127,0,0,,1,,,73,127
37267,note_off,0,0,0,,10,,,69,127
37268,note_on,1,0,0,,12,,,71,127
37268,note_on,0,0,0,,4,,,64,127
37395,note_off,127,0,0,,12,,,71,127
37396,note_on,1,0,0,,10,,,69,127
37523,note_off,127,0,0,,10,,,69,127
37524,note_on,1,0,0,,12,,,71,127
37651,note_off,127,0,0,,12,,,71,127
37651,note_off,0,0,0,,4,,,64,127
37652,note_on,1,0,0,,10,,,69,127
37652,note_on,0,0,0,,1,,,61,127
37907,note_off,255,0,0,,1,,,61,127
37907,note_off,0,0,0,,10,,,69,127
37908,note_on,1,0,0,,4,,,64,127
37908,note_on,0,0,0,,1,,,61,127
38035,note_off,127,0,0,,1,,,61,127
38035,note_off,0,0,0,,4,,,64,127
38036,note_on,1,0,0,,2,,,62,127
38036,note_on,0,0,0,,12,,,59,127
38163,note_off,127,0,0,,2,,,62,127
38164,note_on,1,0,0,,1,,,61,127
38291,note_off,127,0,0,,1,,,61,127
38292,note_on,1,0,0,,2,,,62,127
38419,note_off,127,0,0,,2,,,62,127
38419,note_off,0,0,0,,12,,,59,127
38420,note_on,1,0,0,,1,,,61,127
38420,note_on,0,0,0,,10,,,57,127
38547,note_off,127,0,0,,1,,,61,127
38548,note_on,1,0,0,,12,,,59,127
38675,note_off,127,0,0,,12,,,59,127
38676,note_on,1,0,0,,1,,,61,127
38803,note_off,127,0,0,,1,,,61,127
38803,note_off,0,0,0,,10,,,57,127
38804,note_on,1,0,0,,12,,,59,127
38804,note_on,0,0,0,,4,,,52,127
38931,note_off,127,0,0,,12,,,59,127
38932,note_on,1,0,0,,10,,,57,127
39059,note_off,127,0,0,,10,,,57,127
39060,note_on,1,0,0,,12,,,59,127
39187,note_off,127,0,0,,12,,,59,127
39187,note_off,0,0,0,,4,,,52,127
39188,note_on,1,0,0,,10,,,57,127
39188,note_on,0,0,0,,1,,,49,127
39443,note_off,255,0,0,,1,,,49,127
39443,note_off,0,0,0,,10,,,57,127
39444,note_on,1,0,0,,4,,,52,127
39444,note_on,0,0,0,,1,,,49,127
39571,note_off,127,0,0,,1,,,49,127
39571,note_off,0,0,0,,4,,,52,127
39572,note_on,1,0,0,,2,,,50,127
39572,note_on,0,0,0,,12,,,47,127
39699,note_off,127,0,0,,2,,,50,127
39700,note_on,1,0,0,,1,,,49,127
39827,note_off,127,0,0,,1,,,49,127
39828,note_on,1,0,0,,2,,,50,127
39955,note_off,127,0,0,,2,,,50,127
39955,note_off,0,0,0,,12,,,47,127
39956,note_on,1,0,0,,1,,,49,127
39956,note_on,0,0,0,,10,,,45,127
40083,note_off,127,0,0,,1,,,49,127
40084,note_on,1,0,0,,12,,,47,127
40211,note_off,127,0,0,,12,,,47,127
40212,note_on,1,0,0,,10,,,57,127
40212,note_on,0,0,0,,1,,,49,127
40339,note_off,127,0,0,,1,,,49,127
40339,note_off,0,0,0,,10,,,45,127
40340,note_on,1,0,0,,12,,,47,127
40340,note_on,0,0,0,,4,,,40,127
40467,note_off,127,0,0,,12,,,47,127
40468,note_on,1,0,0,,10,,,45,127
40595,note_off,127,0,0,,10,,,45,127
40596,note_off,1,0,0,,10,,,57,127
40597,note_on,1,0,0,,12,,,47,127
40597,note_on,0,0,0,,8,,,56,127
40724,note_off,127,0,0,,8,,,56,127
40724,note_off,0,0,0,,12,,,47,127
40724,note_off,0,0,0,,4,,,40,127
40725,note_on,1,0,0,,10,,,57,127
40725,note_on,0,0,0,,10,,,45,127
40980,note_off,255,0,0,,10,,,45,127
40980,note_off,0,0,0,,10,,,57,127
40981,note_on,1,0,0,,4,,,52,127
40981,note_on,0,0,0,,1,,,49,127
41108,note_off,127,0,0,,1,,,49,127
41108,note_off,0,0,0,,4,,,52,127
41109,note_on,1,0,0,,2,,,50,127
41109,note_on,0,0,0,,12,,,47,127
41236,note_off,127,0,0,,2,,,50,127
41237,note_on,1,0,0,,1,,,49,127
41364,note_off,127,0,0,,1,,,49,127
41365,note_on,1,0,0,,2,,,50,127
41492,note_off,127,0,0,,2,,,50,127
41492,note_off,0,0,0,,12,,,47,127
41493,note_on,1,0,0,,1,,,49,127
41493,note_on,0,0,0,,10,,,45,127
41620,note_off,127,0,0,,1,,,49,127
41621,note_on,1,0,0,,12,,,47,127
41748,note_off,127,0,0,,12,,,47,127
41749,note_on,1,0,0,,10,,,57,127
41749,note_on,0,0,0,,1,,,49,127
41876,note_off,127,0,0,,1,,,49,127
41876,note_off,0,0,0,,10,,,45,127
41877,note_on,1,0,0,,12,,,47,127
41877,note_on,0,0,0,,4,,,40,127
42004,note_off,127,0,0,,12,,,47,127
42005,note_on,1,0,0,,10,,,45,127
42132,note_off,127,0,0,,10,,,45,127
42133,note_off,1,0,0,,10,,,57,127
42134,note_on,1,0,0,,8,,,56,127
42134,note_on,0,0,0,,12,,,47,127
42261,note_off,127,0,0,,12,,,47,127
42261,note_off,0,0,0,,8,,,56,127
42261,note_off,0,0,0,,4,,,40,127
42277,note_on,16,0,0,,10,,,57,127
42277,note_on,0,0,0,,10,,,45,127
42677,note_off,400,0,0,,10,,,45,127
42677,note_off,0,0,0,,10,,,57,127
42700,note_on,23,0,0,,10,,,45,127
42700,note_on,0,0,0,,1,,,73,127
42827,note_off,127,0,0,,10,,,45,127
42828,note_on,1,0,0,,6,,,54,127
42955,note_off,127,0,0,,6,,,54,127
42956,note_on,1,0,0,,10,,,57,127
43083,note_off,127,0,0,,10,,,57,127
43083,note_off,0,0,0,,1,,,73,127
43084,note_on,1,0,0,,12,,,47,127
43084,note_on,0,0,0,,2,,,74,127
43211,note_off,127,0,0,,12,,,47,127
43212,note_on,1,0,0,,8,,,56,127
43339,note_off,127,0,0,,8,,,56,127
43340,note_on,1,0,0,,12,,,59,127
43340,note_on,0,0,0,,6,,,66,127
43467,note_off,127,0,0,,6,,,66,127
43467,note_off,0,0,0,,12,,,59,127
43468,note_off,1,0,0,,2,,,74,127
43469,note_on,1,0,0,,1,,,49,127
43469,note_on,0,0,0,,5,,,65,127
43469,note_on,0,0,0,,2,,,74,127
43596,note_off,127,0,0,,2,,,74,127
43597,note_on,1,0,0,,1,,,73,127
43724,note_off,127,0,0,,1,,,73,127
43725,note_on,1,0,0,,8,,,68,127
43852,note_off,127,0,0,,1,,,49,127
43853,note_on,1,0,0,,6,,,42,127
44108,note_off,255,0,0,,8,,,68,127
44109,note_off,1,0,0,,5,,,65,127
44109,note_on,0,0,0,,6,,,66,127
44109,note_on,0,0,0,,10,,,69,127
44236,note_off,127,0,0,,10,,,69,127
44236,note_off,0,0,0,,6,,,66,127
44236,note_off,0,0,0,,6,,,42,127
44237,note_on,1,0,0,,6,,,54,127
44237,note_on,0,0,0,,6,,,78,127
44364,note_off,127,0,0,,6,,,54,127
44365,note_on,1,0,0,,12,,,59,127
44492,note_off,127,0,0,,12,,,59,127
44493,note_on,1,0,0,,2,,,62,127
44620,note_off,127,0,0,,2,,,62,127
44621,note_off,1,0,0,,6,,,78,127
44622,note_on,1,0,0,,4,,,52,127
44622,note_on,0,0,0,,7,,,79,127
44749,note_off,127,0,0,,4,,,52,127
44750,note_on,1,0,0,,1,,,61,127
44877,note_off,127,0,0,,1,,,61,127
44878,note_on,1,0,0,,4,,,64,127
44878,note_on,0,0,0,,12,,,71,127
45005,note_off,127,0,0,,12,,,71,127
45005,note_off,0,0,0,,4,,,64,127
45006,note_on,1,0,0,,6,,,54,127
45006,note_on,0,0,0,,11,,,70,127
45133,note_off,127,0,0,,7,,,79,127
45134,note_on,1,0,0,,6,,,78,127
45261,note_off,127,0,0,,6,,,78,127
45262,note_on,1,0,0,,1,,,73,127
45389,note_off,127,0,0,,6,,,54,127
45390,note_on,1,0,0,,12,,,47,127
45645,note_off,255,0,0,,1,,,73,127
45646,note_off,1,0,0,,11,,,70,127
45646,note_on,0,0,0,,12,,,71,127
45646,note_on,0,0,0,,2,,,74,127
45773,note_off,127,0,0,,2,,,74,127
45773,note_off,0,0,0,,12,,,71,127
45773,note_off,0,0,0,,12,,,47,127
45780,note_on,7,0,0,,7,,,55,127
45780,note_on,0,0,0,,12,,,83,127
45907,note_off,127,0,0,,7,,,55,127
45908,note_on,1,0,0,,12,,,59,127
46035,note_off,127,0,0,,12,,,59,127
46036,note_on,1,0,0,,4,,,64,127
46163,note_off,127,0,0,,4,,,64,127
46163,note_off,0,0,0,,12,,,83,127
46164,note_on,1,0,0,,6,,,54,127
46164,note_on,0,0,0,,0,,,84,127
46291,note_off,127,0,0,,6,,,54,127
46292,note_on,1,0,0,,6,,,66,127
46419,note_off,127,0,0,,6,,,66,127
46420,note_on,1,0,0,,10,,,69,127
46420,note_on,0,0,0,,4,,,76,127
46547,note_off,127,0,0,,4,,,76,127
46547,note_off,0,0,0,,10,,,69,127
46548,note_on,1,0,0,,12,,,59,127
46548,note_on,0,0,0,,3,,,75,127
46675,note_off,127,0,0,,0,,,84,127
46676,note_on,1,0,0,,12,,,83,127
46803,note_off,127,0,0,,12,,,83,127
46804,note_on,1,0,0,,6,,,78,127
46931,note_off,127,0,0,,12,,,59,127
46932,note_on,1,0,0,,4,,,52,127
47187,note_off,255,0,0,,6,,,78,127
47188,note_off,1,0,0,,3,,,75,127
47196,note_on,8,0,0,,4,,,76,127
47196,note_on,0,0,0,,7,,,79,127
47325,note_off,129,0,0,,4,,,52,127
47329,note_off,4,0,0,,7,,,79,127
47329,note_off,0,0,0,,4,,,76,127
47348,note_on,19,0,0,,4,,,52,127
47348,note_on,0,0,0,,7,,,79,127
47475,note_off,127,0,0,,4,,,52,127
47476,note_on,1,0,0,,0,,,60,127
47603,note_off,127,0,0,,0,,,60,127
47604,note_on,1,0,0,,4,,,64,127
47731,note_off,127,0,0,,4,,,64,127
47731,note_off,0,0,0,,7,,,79,127
47732,note_on,1,0,0,,2,,,50,127
47732,note_on,0,0,0,,6,,,78,127
47859,note_off,127,0,0,,2,,,50,127
47860,note_on,1,0,0,,12,,,59,127
47987,note_off,127,0,0,,12,,,59,127
47988,note_on,1,0,0,,2,,,62,127
48115,note_off,127,0,0,,2,,,62,127
48115,note_off,0,0,0,,6,,,78,127
48116,note_on,1,0,0,,0,,,48,127
48116,note_on,0,0,0,,4,,,76,127
48243,note_off,127,0,0,,0,,,48,127
48244,note_on,1,0,0,,10,,,57,127
48371,note_off,127,0,0,,10,,,57,127
48372,note_on,1,0,0,,0,,,60,127
48499,note_off,127,0,0,,0,,,60,127
48499,note_off,0,0,0,,4,,,76,127
48500,note_on,1,0,0,,12,,,47,127
48500,note_on,0,0,0,,2,,,74,127
48627,note_off,127,0,0,,12,,,47,127
48628,note_on,1,0,0,,7,,,55,127
48755,note_off,127,0,0,,7,,,55,127
48756,note_on,1,0,0,,12,,,59,127
48883,note_off,127,0,0,,12,,,59,127
48883,note_off,0,0,0,,2,,,74,127
48884,note_on,1,0,0,,0,,,48,127
48884,note_on,0,0,0,,4,,,76,127
49011,note_off,127,0,0,,0,,,48,127
49012,note_on,1,0,0,,10,,,57,127
49139,note_off,127,0,0,,10,,,57,127
49140,note_on,1,0,0,,0,,,60,127
49267,note_off,127,0,0,,0,,,60,127
49267,note_off,0,0,0,,4,,,76,127
49268,note_on,1,0,0,,12,,,47,127
49268,note_on,0,0,0,,2,,,74,127
49395,note_off,127,0,0,,12,,,47,127
49396,note_on,1,0,0,,7,,,55,127
49523,note_off,127,0,0,,7,,,55,127
49524,note_on,1,0,0,,12,,,59,127
49651,note_off,127,0,0,,12,,,59,127
49651,note_off,0,0,0,,2,,,74,127
49652,note_on,1,0,0,,10,,,45,127
49652,note_on,0,0,0,,0,,,72,127
49779,note_off,127,0,0,,10,,,45,127
49780,note_on,1,0,0,,6,,,54,127
49907,note_off,127,0,0,,6,,,54,127
49908,note_on,1,0,0,,10,,,57,127
50035,note_off,127,0,0,,10,,,57,127
50035,note_off,0,0,0,,0,,,72,127
50036,note_on,1,0,0,,7,,,43,127
50036,note_on,0,0,0,,12,,,71,127
50163,note_off,127,0,0,,12,,,71,127
50164,note_on,1,0,0,,10,,,69,127
50291,note_off,127,0,0,,10,,,69,127
50292,note_on,1,0,0,,7,,,67,127
50419,note_off,127,0,0,,7,,,67,127
50419,note_off,0,0,0,,7,,,43,127
50420,note_on,1,0,0,,4,,,52,127
50420,note_on,0,0,0,,7,,,79,127
50547,note_off,127,0,0,,4,,,52,127
50548,note_on,1,0,0,,0,,,60,127
50675,note_off,127,0,0,,0,,,60,127
50676,note_on,1,0,0,,4,,,64,127
50803,note_off,127,0,0,,4,,,64,127
50803,note_off,0,0,0,,7,,,79,127
50804,note_on,1,0,0,,2,,,50,127
50804,note_on,0,0,0,,5,,,77,127
50931,note_off,127,0,0,,2,,,50,127
50932,note_on,1,0,0,,12,,,59,127
51059,note_off,127,0,0,,12,,,59,127
51060,note_on,1,0,0,,2,,,62,127
51187,note_off,127,0,0,,2,,,62,127
51187,note_off,0,0,0,,5,,,77,127
51188,note_on,1,0,0,,0,,,48,127
51188,note_on,0,0,0,,4,,,76,127
51315,note_off,127,0,0,,0,,,48,127
51316,note_on,1,0,0,,10,,,57,127
51443,note_off,127,0,0,,10,,,57,127
51444,note_on,1,0,0,,0,,,60,127
51571,note_off,127,0,0,,0,,,60,127
51571,note_off,0,0,0,,4,,,76,127
51572,note_on,1,0,0,,12,,,47,127
51572,note_on,0,0,0,,2,,,74,127
51699,note_off,127,0,0,,12,,,47,127
51700,note_on,1,0,0,,7,,,55,127
51827,note_off,127,0,0,,7,,,55,127
51828,note_on,1,0,0,,12,,,59,127
51955,note_off,127,0,0,,12,,,59,127
51955,note_off,0,0,0,,2,,,74,127
51956,note_on,1,0,0,,10,,,45,127
51956,note_on,0,0,0,,0,,,72,127
52083,note_off,127,0,0,,10,,,45,127
52084,note_on,1,0,0,,5,,,53,127
52211,note_off,127,0,0,,5,,,53,127
52212,note_on,1,0,0,,10,,,57,127
52339,note_off,127,0,0,,10,,,57,127
52339,note_off,0,0,0,,0,,,72,127
52340,note_on,1,0,0,,7,,,43,127
52340,note_on,0,0,0,,12,,,71,127
52467,note_off,127,0,0,,7,,,43,127
52468,note_on,1,0,0,,4,,,52,127
52595,note_off,127,0,0,,4,,,52,127
52596,note_on,1,0,0,,7,,,55,127
52723,note_off,127,0,0,,7,,,55,127
52723,note_off,0,0,0,,12,,,71,127
52724,note_on,1,0,0,,5,,,41,127
52724,note_on,0,0,0,,10,,,69,127
52851,note_off,127,0,0,,5,,,41,127
52852,note_on,1,0,0,,2,,,50,127
52979,note_off,127,0,0,,2,,,50,127
52980,note_on,1,0,0,,5,,,53,127
53107,note_off,127,0,0,,5,,,53,127
53107,note_off,0,0,0,,10,,,69,127
53108,note_on,1,0,0,,4,,,40,127
53108,note_on,0,0,0,,7,,,67,127
53235,note_off,127,0,0,,4,,,40,127
53236,note_on,1,0,0,,0,,,48,127
53363,note_off,127,0,0,,0,,,48,127
53364,note_on,1,0,0,,4,,,52,127
53491,note_off,127,0,0,,4,,,52,127
53491,note_off,0,0,0,,7,,,67,127
53492,note_on,1,0,0,,2,,,38,127
53492,note_on,0,0,0,,5,,,65,127
53619,note_off,127,0,0,,2,,,38,127
53620,note_on,1,0,0,,12,,,47,127
53747,note_off,127,0,0,,12,,,47,127
53748,note_on,1,0,0,,2,,,50,127
53875,note_off,127,0,0,,2,,,50,127
53875,note_off,0,0,0,,5,,,65,127
53876,note_on,1,0,0,,0,,,36,127
53876,note_on,0,0,0,,4,,,64,127
54003,note_off,127,0,0,,4,,,64,127
54004,note_on,1,0,0,,2,,,62,127
54131,note_off,127,0,0,,2,,,62,127
54132,note_on,1,0,0,,0,,,60,127
54259,note_off,127,0,0,,0,,,60,127
54259,note_off,0,0,0,,0,,,36,127
54260,note_on,1,0,0,,0,,,36,127
54260,note_on,0,0,0,,0,,,72,127
54387,note_off,127,0,0,,0,,,36,127
54388,note_on,1,0,0,,0,,,48,127
54515,note_off,127,0,0,,0,,,48,127
54516,note_on,1,0,0,,4,,,52,127
54643,note_off,127,0,0,,4,,,52,127
54643,note_off,0,0,0,,0,,,72,127
54644,note_on,1,0,0,,5,,,41,127
54644,note_on,0,0,0,,10,,,69,127
54771,note_off,127,0,0,,5,,,41,127
54772,note_on,1,0,0,,5,,,53,127
54899,note_off,127,0,0,,5,,,53,127
54900,note_on,1,0,0,,10,,,57,127
55027,note_off,127,0,0,,10,,,57,127
55027,note_off,0,0,0,,10,,,69,127
55028,note_on,1,0,0,,7,,,43,127
55028,note_on,0,0,0,,2,,,74,127
55155,note_off,127,0,0,,7,,,43,127
55156,note_on,1,0,0,,7,,,55,127
55283,note_off,127,0,0,,7,,,55,127
55284,note_on,1,0,0,,12,,,59,127
55411,note_off,127,0,0,,12,,,59,127
55411,note_off,0,0,0,,2,,,74,127
55412,note_on,1,0,0,,0,,,36,127
55412,note_on,0,0,0,,0,,,72,127
55539,note_off,127,0,0,,0,,,36,127
55540,note_on,1,0,0,,0,,,48,127
55667,note_off,127,0,0,,0,,,48,127
55668,note_on,1,0,0,,4,,,52,127
55795,note_off,127,0,0,,4,,,52,127
55795,note_off,0,0,0,,0,,,72,127
55796,note_on,1,0,0,,0,,,36,127
55796,note_on,0,0,0,,0,,,72,127
55923,note_off,127,0,0,,0,,,36,127
55924,note_on,1,0,0,,0,,,48,127
56051,note_off,127,0,0,,0,,,48,127
56052,note_on,1,0,0,,4,,,52,127
56179,note_off,127,0,0,,4,,,52,127
56179,note_off,0,0,0,,0,,,72,127
56180,note_on,1,0,0,,5,,,41,127
56180,note_on,0,0,0,,10,,,69,127
56307,note_off,127,0,0,,5,,,41,127
56308,note_on,1,0,0,,5,,,53,127
56435,note_off,127,0,0,,5,,,53,127
56436,note_on,1,0,0,,10,,,57,127
56563,note_off,127,0,0,,10,,,57,127
56563,note_off,0,0,0,,10,,,69,127
56564,note_on,1,0,0,,7,,,43,127
56564,note_on,0,0,0,,2,,,74,127
56691,note_off,127,0,0,,7,,,43,127
56692,note_on,1,0,0,,7,,,55,127
56819,note_off,127,0,0,,7,,,55,127
56820,note_on,1,0,0,,12,,,59,127
56947,note_off,127,0,0,,12,,,59,127
56947,note_off,0,0,0,,2,,,74,127
56948,note_on,1,0,0,,0,,,36,127
56948,note_on,0,0,0,,0,,,72,127
57331,note_off,383,0,0,,0,,,72,127
57331,note_off,0,0,0,,0,,,36,127
57332,note_on,1,0,0,,0,,,48,127
57332,note_on,0,0,0,,0,,,36,127
57332,note_on,0,0,0,,0,,,84,127
57459,note_off,127,0,0,,0,,,84,127
57460,note_on,1,0,0,,7,,,79,127
57587,note_off,127,0,0,,7,,,79,127
57588,note_on,1,0,0,,11,,,82,127
57715,note_off,127,0,0,,11,,,82,127
57715,note_off,0,0,0,,0,,,36,127
57715,note_off,0,0,0,,0,,,48,127
57716,note_on,1,0,0,,0,,,36,127
57716,note_on,0,0,0,,0,,,48,127
57716,note_on,0,0,0,,8,,,80,127
57843,note_off,127,0,0,,8,,,80,127
57844,note_on,1,0,0,,0,,,72,127
57971,note_off,127,0,0,,0,,,72,127
57972,note_on,1,0,0,,1,,,73,127
58099,note_off,127,0,0,,1,,,73,127
58099,note_off,0,0,0,,0,,,48,127
58099,note_off,0,0,0,,0,,,36,127
58100,note_on,1,0,0,,0,,,36,127
58100,note_on,0,0,0,,0,,,48,127
58100,note_on,0,0,0,,7,,,79,127
58227,note_off,127,0,0,,7,,,79,127
58228,note_on,1,0,0,,11,,,70,127
58355,note_off,127,0,0,,11,,,70,127
58356,note_on,1,0,0,,8,,,68,127
58356,note_on,0,0,0,,5,,,77,127
58483,note_off,127,0,0,,5,,,77,127
58483,note_off,0,0,0,,8,,,68,127
58483,note_off,0,0,0,,0,,,48,127
58483,note_off,0,0,0,,0,,,36,127
58484,note_on,1,0,0,,0,,,36,127
58484,note_on,0,0,0,,0,,,48,127
58484,note_on,0,0,0,,4,,,76,127
58484,note_on,0,0,0,,7,,,67,127
58867,note_off,383,0,0,,7,,,67,127
58867,note_off,0,0,0,,4,,,76,127
58867,note_off,0,0,0,,0,,,48,127
58867,note_off,0,0,0,,0,,,36,127
58868,note_on,1,0,0,,0,,,36,127
58868,note_on,0,0,0,,0,,,48,127
58868,note_on,0,0,0,,0,,,84,127
58995,note_off,127,0,0,,0,,,84,127
58996,note_on,1,0,0,,7,,,79,127
59123,note_off,127,0,0,,7,,,79,127
59124,note_on,1,0,0,,11,,,82,127
59251,note_off,127,0,0,,11,,,82,127
59251,note_off,0,0,0,,0,,,48,127
59251,note_off,0,0,0,,0,,,36,127
59252,note_on,1,0,0,,0,,,48,127
59252,note_on,0,0,0,,0,,,36,127
59252,note_on,0,0,0,,8,,,80,127
59379,note_off,127,0,0,,8,,,80,127
59380,note_on,1,0,0,,0,,,72,127
59507,note_off,127,0,0,,0,,,72,127
59508,note_on,1,0,0,,1,,,73,127
59635,note_off,127,0,0,,1,,,73,127
59635,note_off,0,0,0,,0,,,36,127
59635,note_off,0,0,0,,0,,,48,127
59636,note_on,1,0,0,,0,,,36,127
59636,note_on,0,0,0,,0,,,48,127
59636,note_on,0,0,0,,7,,,79,127
59764,note_on,128,0,0,,11,,,70,127
59889,note_off,125,0,0,,7,,,79,127
59890,note_off,1,0,0,,11,,,70,127
59891,note_on,1,0,0,,8,,,68,127
59891,note_on,0,0,0,,5,,,77,127
60018,note_off,127,0,0,,5,,,77,127
60018,note_off,0,0,0,,8,,,68,127
60018,note_off,0,0,0,,0,,,48,127
60018,note_off,0,0,0,,0,,,36,127
60019,note_on,1,0,0,,0,,,36,127
60019,note_on,0,0,0,,0,,,48,127
60019,note_on,0,0,0,,7,,,67,127
60019,note_on,0,0,0,,4,,,76,127
60402,note_off,383,0,0,,4,,,76,127
60402,note_off,0,0,0,,7,,,67,127
60402,note_off,0,0,0,,0,,,48,127
60402,note_off,0,0,0,,0,,,36,127
60403,note_on,1,0,0,,0,,,36,127
60403,note_on,0,0,0,,0,,,48,127
60403,note_on,0,0,0,,4,,,76,127
60530,note_off,127,0,0,,4,,,76,127
60531,note_on,1,0,0,,7,,,67,127
60658,note_off,127,0,0,,7,,,67,127
60659,note_on,1,0,0,,4,,,64,127
60786,note_off,127,0,0,,4,,,64,127
60786,note_off,0,0,0,,0,,,48,127
60786,note_off,0,0,0,,0,,,36,127
60787,note_on,1,0,0,,1,,,37,127
60787,note_on,0,0,0,,1,,,49,127
60787,note_on,0,0,0,,4,,,76,127
60914,note_off,127,0,0,,4,,,76,127
60915,note_on,1,0,0,,7,,,67,127
61042,note_off,127,0,0,,7,,,67,127
61043,note_on,1,0,0,,4,,,64,127
61170,note_off,127,0,0,,4,,,64,127
61170,note_off,0,0,0,,1,,,49,127
61170,note_off,0,0,0,,1,,,37,127
61171,note_on,1,0,0,,1,,,37,127
61171,note_on,0,0,0,,1,,,49,127
61171,note_on,0,0,0,,4,,,76,127
61298,note_off,127,0,0,,4,,,76,127
61299,note_on,1,0,0,,7,,,67,127
61426,note_off,127,0,0,,7,,,67,127
61427,note_on,1,0,0,,4,,,64,127
61554,note_off,127,0,0,,4,,,64,127
61554,note_off,0,0,0,,1,,,49,127
61554,note_off,0,0,0,,1,,,37,127
61555,note_on,1,0,0,,2,,,38,127
61555,note_on,0,0,0,,2,,,50,127
61555,note_on,0,0,0,,4,,,76,127
61682,note_off,127,0,0,,4,,,76,127
61683,note_on,1,0,0,,11,,,70,127
61810,note_off,127,0,0,,11,,,70,127
61811,note_on,1,0,0,,7,,,67,127
61938,note_off,127,0,0,,7,,,67,127
61938,note_off,0,0,0,,2,,,50,127
61938,note_off,0,0,0,,2,,,38,127
61939,note_on,1,0,0,,2,,,50,127
61939,note_on,0,0,0,,2,,,38,127
61939,note_on,0,0,0,,5,,,77,127
62066,note_off,127,0,0,,5,,,77,127
62067,note_on,1,0,0,,11,,,70,127
62194,note_off,127,0,0,,11,,,70,127
62195,note_on,1,0,0,,7,,,67,127
62322,note_off,127,0,0,,7,,,67,127
62322,note_off,0,0,0,,2,,,38,127
62322,note_off,0,0,0,,2,,,50,127
62323,note_on,1,0,0,,4,,,40,127
62323,note_on,0,0,0,,4,,,52,127
62323,note_on,0,0,0,,7,,,79,127
62450,note_off,127,0,0,,7,,,79,127
62451,note_on,1,0,0,,2,,,74,127
62578,note_off,127,0,0,,2,,,74,127
62579,note_on,1,0,0,,7,,,67,127
62706,note_off,127,0,0,,7,,,67,127
62706,note_off,0,0,0,,4,,,52,127
62706,note_off,0,0,0,,4,,,40,127
62707,note_on,1,0,0,,4,,,40,127
62707,note_on,0,0,0,,4,,,52,127
62707,note_on,0,0,0,,1,,,73,127
62834,note_off,127,0,0,,1,,,73,127
62835,note_on,1,0,0,,7,,,67,127
62962,note_off,127,0,0,,7,,,67,127
62963,note_on,1,0,0,,4,,,76,127
63090,note_off,127,0,0,,4,,,76,127
63090,note_off,0,0,0,,4,,,52,127
63090,note_off,0,0,0,,4,,,40,127
63091,note_on,1,0,0,,5,,,41,127
63091,note_on,0,0,0,,5,,,53,127
63091,note_on,0,0,0,,7,,,79,127
63218,note_off,127,0,0,,7,,,79,127
63219,note_on,1,0,0,,10,,,69,127
63346,note_off,127,0,0,,10,,,69,127
63347,note_on,1,0,0,,1,,,73,127
63474,note_off,127,0,0,,1,,,73,127
63474,note_off,0,0,0,,5,,,53,127
63474,note_off,0,0,0,,5,,,41,127
63475,note_on,1,0,0,,5,,,53,127
63475,note_on,0,0,0,,5,,,41,127
63475,note_on,0,0,0,,2,,,74,127
63602,note_off,127,0,0,,2,,,74,127
63603,note_on,1,0,0,,10,,,69,127
63730,note_off,127,0,0,,10,,,69,127
63731,note_on,1,0,0,,5,,,77,127
63858,note_off,127,0,0,,5,,,77,127
63858,note_off,0,0,0,,5,,,41,127
63858,note_off,0,0,0,,5,,,53,127
63859,note_on,1,0,0,,7,,,43,127
63859,note_on,0,0,0,,7,,,55,127
63859,note_on,0,0,0,,11,,,70,127
63986,note_off,127,0,0,,11,,,70,127
63987,note_on,1,0,0,,4,,,76,127
64114,note_off,127,0,0,,4,,,76,127
64115,note_on,1,0,0,,7,,,79,127
64242,note_off,127,0,0,,7,,,79,127
64242,note_off,0,0,0,,7,,,55,127
64242,note_off,0,0,0,,7,,,43,127
64243,note_on,1,0,0,,7,,,43,127
64243,note_on,0,0,0,,7,,,55,127
64243,note_on,0,0,0,,4,,,76,127
64370,note_off,127,0,0,,4,,,76,127
64371,note_on,1,0,0,,7,,,67,127
64498,note_off,127,0,0,,7,,,67,127
64499,note_on,1,0,0,,2,,,74,127
64626,note_off,127,0,0,,2,,,74,127
64626,note_off,0,0,0,,7,,,55,127
64626,note_off,0,0,0,,7,,,43,127
64627,note_on,1,0,0,,10,,,45,127
64627,note_on,0,0,0,,10,,,57,127
64627,note_on,0,0,0,,1,,,73,127
65010,note_off,383,0,0,,1,,,73,127
65010,note_off,0,0,0,,10,,,57,127
65010,note_off,0,0,0,,10,,,45,127
65011,note_on,1,0,0,,10,,,45,127
65011,note_on,0,0,0,,10,,,57,127
65011,note_on,0,0,0,,10,,,81,127
65138,note_off,127,0,0,,10,,,81,127
65139,note_on,1,0,0,,4,,,76,127
65266,note_off,127,0,0,,4,,,76,127
65267,note_on,1,0,0,,7,,,79,127
65394,note_off,127,0,0,,7,,,79,127
65394,note_off,0,0,0,,10,,,57,127
65394,note_off,0,0,0,,10,,,45,127
65395,note_on,1,0,0,,10,,,45,127
65395,note_on,0,0,0,,10,,,57,127
65395,note_on,0,0,0,,5,,,77,127
65522,note_off,127,0,0,,5,,,77,127
65523,note_on,1,0,0,,2,,,74,127
65650,note_off,127,0,0,,2,,,74,127
65651,note_on,1,0,0,,12,,,71,127
65778,note_off,127,0,0,,12,,,71,127
65778,note_off,0,0,0,,10,,,57,127
65778,note_off,0,0,0,,10,,,45,127
65779,note_on,1,0,0,,10,,,45,127
65779,note_on,0,0,0,,10,,,57,127
65779,note_on,0,0,0,,8,,,68,127
65906,note_off,127,0,0,,8,,,68,127
65907,note_on,1,0,0,,5,,,65,127
66034,note_off,127,0,0,,5,,,65,127
66035,note_on,1,0,0,,2,,,74,127
66162,note_off,127,0,0,,2,,,74,127
66162,note_off,0,0,0,,10,,,57,127
66162,note_off,0,0,0,,10,,,45,127
66163,note_on,1,0,0,,10,,,45,127
66163,note_on,0,0,0,,10,,,57,127
66163,note_on,0,0,0,,4,,,64,127
66163,note_on,0,0,0,,1,,,73,127
66546,note_off,383,0,0,,1,,,73,127
66546,note_off,0,0,0,,4,,,64,127
66546,note_off,0,0,0,,10,,,57,127
66546,note_off,0,0,0,,10,,,45,127
66547,note_on,1,0,0,,10,,,45,127
66547,note_on,0,0,0,,10,,,33,127
66547,note_on,0,0,0,,10,,,81,127
66674,note_off,127,0,0,,10,,,81,127
66675,note_on,1,0,0,,4,,,76,127
66802,note_off,127,0,0,,4,,,76,127
66803,note_on,1,0,0,,7,,,79,127
66930,note_off,127,0,0,,7,,,79,127
66930,note_off,0,0,0,,10,,,33,127
66930,note_off,0,0,0,,10,,,45,127
66931,note_on,1,0,0,,10,,,45,127
66931,note_on,0,0,0,,10,,,33,127
66931,note_on,0,0,0,,5,,,77,127
67058,note_off,127,0,0,,5,,,77,127
67059,note_on,1,0,0,,2,,,74,127
67186,note_off,127,0,0,,2,,,74,127
67187,note_on,1,0,0,,12,,,71,127
67314,note_off,127,0,0,,12,,,71,127
67314,note_off,0,0,0,,10,,,33,127
67314,note_off,0,0,0,,10,,,45,127
67315,note_on,1,0,0,,10,,,45,127
67315,note_on,0,0,0,,10,,,33,127
67315,note_on,0,0,0,,8,,,68,127
67442,note_off,127,0,0,,8,,,68,127
67443,note_on,1,0,0,,5,,,65,127
67570,note_off,127,0,0,,5,,,65,127
67571,note_on,1,0,0,,2,,,74,127
67698,note_off,127,0,0,,2,,,74,127
67698,note_off,0,0,0,,10,,,33,127
67698,note_off,0,0,0,,10,,,45,127
67699,note_on,1,0,0,,10,,,45,127
67699,note_on,0,0,0,,10,,,33,127
67699,note_on,0,0,0,,4,,,64,127
67699,note_on,0,0,0,,1,,,73,127
68082,note_off,383,0,0,,1,,,73,127
68082,note_off,0,0,0,,4,,,64,127
68082,note_off,0,0,0,,10,,,33,127
68082,note_off,0,0,0,,10,,,45,127
68094,note_on,12,0,0,,12,,,83,127
68094,note_on,0,0,0,,10,,,45,127
68135,note_off,41,0,0,,12,,,83,127
68136,note_on,1,0,0,,10,,,81,127
68177,note_off,41,0,0,,10,,,81,127
68178,note_on,1,0,0,,12,,,83,127
68219,note_off,41,0,0,,12,,,83,127
68219,note_off,0,0,0,,10,,,45,127
68220,note_on,1,0,0,,10,,,81,127
68220,note_on,0,0,0,,10,,,57,127
68347,note_off,127,0,0,,10,,,57,127
68348,note_on,1,0,0,,1,,,61,127
68475,note_off,127,0,0,,1,,,61,127
68475,note_off,0,0,0,,10,,,81,127
68476,note_on,1,0,0,,12,,,83,127
68476,note_on,0,0,0,,12,,,47,127
68517,note_off,41,0,0,,12,,,83,127
68518,note_on,1,0,0,,10,,,81,127
68559,note_off,41,0,0,,10,,,81,127
68560,note_on,1,0,0,,12,,,83,127
68601,note_off,41,0,0,,12,,,83,127
68601,note_off,0,0,0,,12,,,47,127
68602,note_on,1,0,0,,10,,,81,127
68602,note_on,0,0,0,,12,,,59,127
68729,note_off,127,0,0,,12,,,59,127
68730,note_on,1,0,0,,2,,,62,127
68857,note_off,127,0,0,,2,,,62,127
68857,note_off,0,0,0,,10,,,81,127
68858,note_on,1,0,0,,12,,,83,127
68858,note_on,0,0,0,,1,,,49,127
68899,note_off,41,0,0,,12,,,83,127
68900,note_on,1,0,0,,10,,,81,127
68941,note_off,41,0,0,,10,,,81,127
68942,note_on,1,0,0,,12,,,83,127
68983,note_off,41,0,0,,12,,,83,127
68983,note_off,0,0,0,,1,,,49,127
68984,note_on,1,0,0,,10,,,81,127
68984,note_on,0,0,0,,1,,,61,127
69111,note_off,127,0,0,,1,,,61,127
69112,note_on,1,0,0,,4,,,64,127
69239,note_off,127,0,0,,4,,,64,127
69239,note_off,0,0,0,,10,,,81,127
69240,note_on,1,0,0,,12,,,83,127
69240,note_on,0,0,0,,2,,,50,127
69281,note_off,41,0,0,,12,,,83,127
69282,note_on,1,0,0,,10,,,81,127
69323,note_off,41,0,0,,10,,,81,127
69324,note_on,1,0,0,,12,,,83,127
69365,note_off,41,0,0,,12,,,83,127
69365,note_off,0,0,0,,2,,,50,127
69366,note_on,1,0,0,,10,,,81,127
69366,note_on,0,0,0,,2,,,62,127
69493,note_off,127,0,0,,2,,,62,127
69494,note_on,1,0,0,,6,,,66,127
69621,note_off,127,0,0,,6,,,66,127
69621,note_off,0,0,0,,10,,,81,127
69622,note_on,1,0,0,,12,,,83,127
69622,note_on,0,0,0,,4,,,52,127
69663,note_off,41,0,0,,12,,,83,127
69664,note_on,1,0,0,,10,,,81,127
69705,note_off,41,0,0,,10,,,81,127
69706,note_on,1,0,0,,12,,,83,127
69747,note_off,41,0,0,,12,,,83,127
69747,note_off,0,0,0,,4,,,52,127
69748,note_on,1,0,0,,10,,,81,127
69748,note_on,0,0,0,,4,,,64,127
69875,note_off,127,0,0,,4,,,64,127
69876,note_on,1,0,0,,7,,,67,127
70003,note_off,127,0,0,,7,,,67,127
70003,note_off,0,0,0,,10,,,81,127
70004,note_on,1,0,0,,12,,,83,127
70004,note_on,0,0,0,,6,,,54,127
70045,note_off,41,0,0,,12,,,83,127
70046,note_on,1,0,0,,10,,,81,127
70087,note_off,41,0,0,,10,,,81,127
70088,note_on,1,0,0,,12,,,83,127
70129,note_off,41,0,0,,12,,,83,127
70129,note_off,0,0,0,,6,,,54,127
70130,note_on,1,0,0,,10,,,81,127
70130,note_on,0,0,0,,6,,,66,127
70257,note_off,127,0,0,,6,,,66,127
70258,note_on,1,0,0,,10,,,69,127
70385,note_off,127,0,0,,10,,,69,127
70385,note_off,0,0,0,,10,,,81,127
70386,note_on,1,0,0,,1,,,85,127
70386,note_on,0,0,0,,7,,,55,127
70427,note_off,41,0,0,,1,,,85,127
70428,note_on,1,0,0,,12,,,83,127
70469,note_off,41,0,0,,12,,,83,127
70470,note_on,1,0,0,,1,,,85,127
70511,note_off,41,0,0,,1,,,85,127
70511,note_off,0,0,0,,7,,,55,127
70512,note_on,1,0,0,,12,,,83,127
70512,note_on,0,0,0,,7,,,67,127
70639,note_off,127,0,0,,7,,,67,127
70640,note_on,1,0,0,,12,,,71,127
70767,note_off,127,0,0,,12,,,71,127
70767,note_off,0,0,0,,12,,,83,127
70768,note_on,1,0,0,,2,,,86,127
70768,note_on,0,0,0,,10,,,57,127
70809,note_off,41,0,0,,2,,,86,127
70810,note_on,1,0,0,,1,,,85,127
70851,note_off,41,0,0,,1,,,85,127
70852,note_on,1,0,0,,2,,,86,127
70893,note_off,41,0,0,,2,,,86,127
70893,note_off,0,0,0,,10,,,57,127
70894,note_on,1,0,0,,1,,,85,127
70894,note_on,0,0,0,,10,,,69,127
71021,note_off,127,0,0,,10,,,69,127
71022,note_on,1,0,0,,1,,,73,127
71149,note_off,127,0,0,,1,,,73,127
71149,note_off,0,0,0,,1,,,85,127
71150,note_on,1,0,0,,2,,,86,127
71150,note_on,0,0,0,,2,,,50,127
71277,note_off,127,0,0,,2,,,86,127
71278,note_on,1,0,0,,10,,,81,127
71391,note_off,113,0,0,,10,,,81,127
71406,note_on,15,0,0,,6,,,78,127
71526,note_off,120,0,0,,6,,,78,127
71533,note_off,7,0,0,,2,,,50,127
71534,note_on,1,0,0,,7,,,79,127
71534,note_on,0,0,0,,7,,,55,127
71661,note_off,127,0,0,,7,,,79,127
71662,note_on,1,0,0,,10,,,81,127
71775,note_off,113,0,0,,10,,,81,127
71790,note_on,15,0,0,,2,,,74,127
71790,note_on,0,0,0,,12,,,83,127
71910,note_off,120,0,0,,12,,,83,127
71917,note_off,7,0,0,,7,,,55,127
71918,note_on,1,0,0,,6,,,78,127
71918,note_on,0,0,0,,10,,,57,127
72045,note_off,127,0,0,,6,,,78,127
72046,note_on,1,0,0,,7,,,79,127
72159,note_off,113,0,0,,7,,,79,127
72173,note_off,14,0,0,,2,,,74,127
72174,note_on,1,0,0,,1,,,73,127
72174,note_on,0,0,0,,4,,,76,127
72294,note_off,120,0,0,,4,,,76,127
72301,note_off,7,0,0,,1,,,73,127
72301,note_off,0,0,0,,10,,,57,127
72302,note_on,1,0,0,,2,,,74,127
72302,note_on,0,0,0,,2,,,50,127
72685,note_off,383,0,0,,2,,,50,127
72685,note_off,0,0,0,,2,,,74,127
72697,note_on,12,0,0,,2,,,62,127
72697,note_on,0,0,0,,2,,,86,127
72697,note_on,0,0,0,,2,,,74,127
72824,note_off,127,0,0,,2,,,74,127
72824,note_off,0,0,0,,2,,,62,127
72825,note_on,1,0,0,,2,,,74,127
72953,note_on,128,0,0,,6,,,78,127
73078,note_off,125,0,0,,2,,,74,127
73079,note_off,1,0,0,,6,,,78,127
73079,note_off,0,0,0,,2,,,86,127
73080,note_on,1,0,0,,12,,,59,127
73080,note_on,0,0,0,,2,,,74,127
73080,note_on,0,0,0,,2,,,86,127
73207,note_off,127,0,0,,12,,,59,127
73208,note_on,1,0,0,,12,,,71,127
73333,note_off,125,0,0,,2,,,74,127
73334,note_off,1,0,0,,12,,,71,127
73335,note_on,1,0,0,,2,,,74,127
73462,note_off,127,0,0,,2,,,74,127
73462,note_off,0,0,0,,2,,,86,127
73463,note_on,1,0,0,,7,,,55,127
73463,note_on,0,0,0,,2,,,86,127
73463,note_on,0,0,0,,2,,,74,127
73590,note_off,127,0,0,,7,,,55,127
73591,note_on,1,0,0,,7,,,67,127
73718,note_off,127,0,0,,7,,,67,127
73719,note_on,1,0,0,,12,,,71,127
73846,note_off,127,0,0,,12,,,71,127
73846,note_off,0,0,0,,2,,,74,127
73846,note_off,0,0,0,,2,,,86,127
73847,note_on,1,0,0,,10,,,33,127
73847,note_on,0,0,0,,1,,,85,127
73974,note_off,127,0,0,,1,,,85,127
73975,note_on,1,0,0,,7,,,79,127
74102,note_off,127,0,0,,7,,,79,127
74103,note_on,1,0,0,,4,,,76,127
74230,note_off,127,0,0,,4,,,76,127
74230,note_off,0,0,0,,10,,,33,127
74231,note_on,1,0,0,,10,,,33,127
74231,note_on,0,0,0,,1,,,73,127
74358,note_off,127,0,0,,1,,,73,127
74359,note_on,1,0,0,,10,,,69,127
74486,note_off,127,0,0,,10,,,69,127
74487,note_on,1,0,0,,7,,,79,127
74614,note_off,127,0,0,,7,,,79,127
74614,note_off,0,0,0,,10,,,33,127
74615,note_on,1,0,0,,2,,,38,127
74615,note_on,0,0,0,,6,,,78,127
74742,note_off,127,0,0,,6,,,78,127
74743,note_on,1,0,0,,4,,,76,127
74870,note_off,127,0,0,,4,,,76,127
74871,note_on,1,0,0,,2,,,74,127
74871,note_on,0,0,0,,6,,,78,127
74998,note_off,127,0,0,,6,,,78,127
74998,note_off,0,0,0,,2,,,38,127
74999,note_on,1,0,0,,10,,,33,127
74999,note_on,0,0,0,,4,,,76,127
75124,note_off,125,0,0,,2,,,74,127
75125,note_off,1,0,0,,4,,,76,127
75126,note_on,1,0,0,,2,,,74,127
75253,note_off,127,0,0,,2,,,74,127
75254,note_on,1,0,0,,1,,,73,127
75254,note_on,0,0,0,,4,,,76,127
75381,note_off,127,0,0,,4,,,76,127
75381,note_off,0,0,0,,1,,,73,127
75381,note_off,0,0,0,,10,,,33,127
75382,note_on,1,0,0,,2,,,38,127
75382,note_on,0,0,0,,2,,,74,127
75765,note_off,383,0,0,,2,,,74,127
75765,note_off,0,0,0,,2,,,38,127
75766,note_on,1,0,0,,2,,,62,127
75766,note_on,0,0,0,,2,,,74,127
75766,note_on,0,0,0,,2,,,86,127
75893,note_off,127,0,0,,2,,,74,127
75893,note_off,0,0,0,,2,,,62,127
75894,note_on,1,0,0,,2,,,74,127
76022,note_on,128,0,0,,6,,,78,127
76147,note_off,125,0,0,,2,,,74,127
76148,note_off,1,0,0,,6,,,78,127
76148,note_off,0,0,0,,2,,,86,127
76149,note_on,1,0,0,,12,,,59,127
76149,note_on,0,0,0,,2,,,74,127
76149,note_on,0,0,0,,2,,,86,127
76276,note_off,127,0,0,,12,,,59,127
76277,note_on,1,0,0,,12,,,71,127
76402,note_off,125,0,0,,2,,,74,127
76403,note_off,1,0,0,,12,,,71,127
76404,note_on,1,0,0,,2,,,74,127
76531,note_off,127,0,0,,2,,,74,127
76531,note_off,0,0,0,,2,,,86,127
76532,note_on,1,0,0,,7,,,55,127
76532,note_on,0,0,0,,2,,,86,127
76532,note_on,0,0,0,,2,,,74,127
76659,note_off,127,0,0,,7,,,55,127
76660,note_on,1,0,0,,7,,,67,127
76787,note_off,127,0,0,,7,,,67,127
76788,note_on,1,0,0,,12,,,71,127
76915,note_off,127,0,0,,12,,,71,127
76915,note_off,0,0,0,,2,,,74,127
76915,note_off,0,0,0,,2,,,86,127
76916,note_on,1,0,0,,10,,,33,127
76916,note_on,0,0,0,,1,,,85,127
77043,note_off,127,0,0,,1,,,85,127
77044,note_on,1,0,0,,7,,,79,127
77171,note_off,127,0,0,,7,,,79,127
77172,note_on,1,0,0,,4,,,76,127
77299,note_off,127,0,0,,4,,,76,127
77299,note_off,0,0,0,,10,,,33,127
77300,note_on,1,0,0,,10,,,33,127
77300,note_on,0,0,0,,1,,,73,127
77427,note_off,127,0,0,,1,,,73,127
77428,note_on,1,0,0,,10,,,69,127
77555,note_off,127,0,0,,10,,,69,127
77556,note_on,1,0,0,,7,,,79,127
77683,note_off,127,0,0,,7,,,79,127
77683,note_off,0,0,0,,10,,,33,127
77684,note_on,1,0,0,,2,,,38,127
77684,note_on,0,0,0,,6,,,78,127
77811,note_off,127,0,0,,6,,,78,127
77812,note_on,1,0,0,,4,,,76,127
77939,note_off,127,0,0,,4,,,76,127
77940,note_on,1,0,0,,2,,,74,127
77940,note_on,0,0,0,,6,,,78,127
78067,note_off,127,0,0,,6,,,78,127
78067,note_off,0,0,0,,2,,,38,127
78068,note_on,1,0,0,,10,,,33,127
78068,note_on,0,0,0,,4,,,76,127
78193,note_off,125,0,0,,2,,,74,127
78194,note_off,1,0,0,,4,,,76,127
78195,note_on,1,0,0,,2,,,74,127
78322,note_off,127,0,0,,2,,,74,127
78323,note_on,1,0,0,,1,,,73,127
78323,note_on,0,0,0,,4,,,76,127
78450,note_off,127,0,0,,4,,,76,127
78450,note_off,0,0,0,,1,,,73,127
78450,note_off,0,0,0,,10,,,33,127
78451,note_on,1,0,0,,2,,,38,127
78451,note_on,0,0,0,,2,,,74,127
78706,note_off,255,0,0,,2,,,74,127
78706,note_off,0,0,0,,2,,,38,127
78729,note_on,23,0,0,,6,,,78,127
78729,note_on,0,0,0,,10,,,81,127
78856,note_off,127,0,0,,10,,,81,127
78856,note_off,0,0,0,,6,,,78,127
78857,note_on,1,0,0,,4,,,76,127
78857,note_on,0,0,0,,7,,,79,127
78984,note_off,127,0,0,,7,,,79,127
78985,note_on,1,0,0,,6,,,78,127
79112,note_off,127,0,0,,6,,,78,127
79113,note_on,1,0,0,,7,,,79,127
79240,note_off,127,0,0,,7,,,79,127
79240,note_off,0,0,0,,4,,,76,127
79241,note_on,1,0,0,,2,,,74,127
79241,note_on,0,0,0,,6,,,78,127
79368,note_off,127,0,0,,6,,,78,127
79369,note_on,1,0,0,,4,,,76,127
79496,note_off,127,0,0,,4,,,76,127
79497,note_on,1,0,0,,6,,,78,127
79624,note_off,127,0,0,,6,,,78,127
79624,note_off,0,0,0,,2,,,74,127
79625,note_on,1,0,0,,10,,,69,127
79625,note_on,0,0,0,,4,,,76,127
79752,note_off,127,0,0,,4,,,76,127
79753,note_on,1,0,0,,2,,,74,127
79880,note_off,127,0,0,,2,,,74,127
79881,note_on,1,0,0,,4,,,76,127
80008,note_off,127,0,0,,4,,,76,127
80008,note_off,0,0,0,,10,,,69,127
80009,note_on,1,0,0,,6,,,66,127
80009,note_on,0,0,0,,2,,,74,127
80264,note_off,255,0,0,,2,,,74,127
80264,note_off,0,0,0,,6,,,66,127
80265,note_on,1,0,0,,6,,,66,127
80265,note_on,0,0,0,,10,,,69,127
80392,note_off,127,0,0,,10,,,69,127
80392,note_off,0,0,0,,6,,,66,127
80393,note_on,1,0,0,,4,,,64,127
80393,note_on,0,0,0,,7,,,67,127
80520,note_off,127,0,0,,7,,,67,127
80521,note_on,1,0,0,,6,,,66,127
80648,note_off,127,0,0,,6,,,66,127
80649,note_on,1,0,0,,7,,,67,127
80776,note_off,127,0,0,,7,,,67,127
80776,note_off,0,0,0,,4,,,64,127
80777,note_on,1,0,0,,2,,,62,127
80777,note_on,0,0,0,,6,,,66,127
80904,note_off,127,0,0,,6,,,66,127
80905,note_on,1,0,0,,4,,,64,127
81032,note_off,127,0,0,,4,,,64,127
81033,note_on,1,0,0,,6,,,66,127
81160,note_off,127,0,0,,6,,,66,127
81160,note_off,0,0,0,,2,,,62,127
81161,note_on,1,0,0,,10,,,57,127
81161,note_on,0,0,0,,4,,,64,127
81288,note_off,127,0,0,,4,,,64,127
81289,note_on,1,0,0,,2,,,62,127
81416,note_off,127,0,0,,2,,,62,127
81417,note_on,1,0,0,,4,,,64,127
81544,note_off,127,0,0,,4,,,64,127
81544,note_off,0,0,0,,10,,,57,127
81545,note_on,1,0,0,,6,,,54,127
81545,note_on,0,0,0,,2,,,62,127
81800,note_off,255,0,0,,2,,,62,127
81800,note_off,0,0,0,,6,,,54,127
81801,note_on,1,0,0,,6,,,54,127
81801,note_on,0,0,0,,10,,,57,127
81928,note_off,127,0,0,,10,,,57,127
81928,note_off,0,0,0,,6,,,54,127
81929,note_on,1,0,0,,4,,,52,127
81929,note_on,0,0,0,,7,,,55,127
82056,note_off,127,0,0,,7,,,55,127
82057,note_on,1,0,0,,6,,,54,127
82184,note_off,127,0,0,,6,,,54,127
82185,note_on,1,0,0,,7,,,55,127
82312,note_off,127,0,0,,7,,,55,127
82312,note_off,0,0,0,,4,,,52,127
82313,note_on,1,0,0,,2,,,50,127
82313,note_on,0,0,0,,6,,,54,127
82440,note_off,127,0,0,,6,,,54,127
82441,note_on,1,0,0,,4,,,52,127
82568,note_off,127,0,0,,4,,,52,127
82569,note_on,1,0,0,,6,,,54,127
82569,note_on,0,0,0,,2,,,62,127
82696,note_off,127,0,0,,6,,,54,127
82696,note_off,0,0,0,,2,,,50,127
82697,note_on,1,0,0,,10,,,45,127
82697,note_on,0,0,0,,4,,,52,127
82824,note_off,127,0,0,,4,,,52,127
82825,note_on,1,0,0,,2,,,50,127
82952,note_off,127,0,0,,2,,,50,127
82953,note_off,1,0,0,,2,,,62,127
82954,note_on,1,0,0,,4,,,52,127
82954,note_on,0,0,0,,1,,,61,127
83081,note_off,127,0,0,,1,,,61,127
83081,note_off,0,0,0,,4,,,52,127
83081,note_off,0,0,0,,10,,,45,127
83082,note_on,1,0,0,,2,,,38,127
83082,note_on,0,0,0,,2,,,50,127
83082,note_on,0,0,0,,2,,,62,127
83337,note_off,255,0,0,,2,,,62,127
83337,note_off,0,0,0,,2,,,50,127
83337,note_off,0,0,0,,2,,,38,127
83346,note_on,9,0,0,,10,,,57,127
83346,note_on,0,0,0,,6,,,54,127
83476,note_off,130,0,0,,6,,,54,127
83476,note_off,0,0,0,,10,,,57,127
83479,note_on,3,0,0,,7,,,55,127
83479,note_on,0,0,0,,4,,,52,127
83609,note_off,130,0,0,,7,,,55,127
83612,note_on,3,0,0,,6,,,54,127
83742,note_off,130,0,0,,6,,,54,127
83745,note_on,3,0,0,,7,,,55,127
83872,note_off,127,0,0,,4,,,52,127
83875,note_off,3,0,0,,7,,,55,127
83878,note_on,3,0,0,,6,,,54,127
83878,note_on,0,0,0,,2,,,50,127
84008,note_off,130,0,0,,6,,,54,127
84011,note_on,3,0,0,,4,,,52,127
84141,note_off,130,0,0,,4,,,52,127
84144,note_on,3,0,0,,6,,,54,127
84144,note_on,0,0,0,,2,,,62,127
84271,note_off,127,0,0,,2,,,50,127
84274,note_off,3,0,0,,6,,,54,127
84277,note_on,3,0,0,,4,,,52,127
84277,note_on,0,0,0,,10,,,45,127
84407,note_off,130,0,0,,4,,,52,127
84410,note_on,3,0,0,,2,,,50,127
84539,note_off,129,0,0,,2,,,62,127
84540,note_off,1,0,0,,2,,,50,127
84552,note_on,12,0,0,,1,,,61,127
84552,note_on,0,0,0,,4,,,52,127
84671,note_off,119,0,0,,10,,,45,127
84697,note_off,26,0,0,,4,,,52,127
84697,note_off,0,0,0,,1,,,61,127
84703,note_on,6,0,0,,2,,,62,127
84703,note_on,0,0,0,,2,,,50,127
84703,note_on,0,0,0,,2,,,38,127
86367,note_off,1664,0,0,,2,,,38,127
86367,note_off,0,0,0,,2,,,50,127
86367,note_off,0,0,0,,2,,,62,127
90624,end_of_track,4257,1,0,,,,,,
