tick,type,time,meta,track,program,channel,pitch,tempo,note,velocity
0,copyright,0,1,0,,,,,,
0,program_change,0,0,0,6,0,,,,
0,pitchwheel,0,0,0,,0,0,,,
0,program_change,0,0,0,6,1,,,,
0,pitchwheel,0,0,0,,1,-590,,,
0,program_change,0,0,0,6,2,,,,
0,pitchwheel,0,0,0,,2,-272,,,
0,program_change,0,0,0,6,3,,,,
0,pitchwheel,0,0,0,,3,-353,,,
0,program_change,0,0,0,6,4,,,,
0,pitchwheel,0,0,0,,4,-560,,,
0,program_change,0,0,0,6,5,,,,
0,pitchwheel,0,0,0,,5,-80,,,
0,program_change,0,0,0,6,6,,,,
0,pitchwheel,0,0,0,,6,-625,,,
0,program_change,0,0,0,6,7,,,,
0,pitchwheel,0,0,0,,7,-130,,,
0,program_change,0,0,0,6,8,,,,
0,pitchwheel,0,0,0,,8,-512,,,
0,program_change,0,0,0,6,10,,,,
0,pitchwheel,0,0,0,,10,-464,,,
0,program_change,0,0,0,6,11,,,,
0,pitchwheel,0,0,0,,11,-208,,,
0,program_change,0,0,0,6,12,,,,
0,pitchwheel,0,0,0,,12,-553,,,
0,set_tempo,0,1,0,,,,500000,,
53,note_on,53,0,0,,12,,,83,127
211,note_off,158,0,0,,12,,,83,127
213,note_on,2,0,0,,7,,,79,127
371,note_off,158,0,0,,7,,,79,127
373,note_on,2,0,0,,4,,,76,127
691,note_off,318,0,0,,4,,,76,127
693,note_on,2,0,0,,12,,,83,127
693,note_on,0,0,0,,2,,,74,127
1011,note_off,318,0,0,,2,,,74,127
1013,note_on,2,0,0,,0,,,72,127
1331,note_off,318,0,0,,12,,,83,127
1333,note_on,2,0,0,,10,,,81,127
1651,note_off,318,0,0,,10,,,81,127
1651,note_off,0,0,0,,0,,,72,127
1653,note_on,2,0,0,,7,,,79,127
1653,note_on,0,0,0,,12,,,71,127
1971,note_off,318,0,0,,12,,,71,127
1971,note_off,0,0,0,,7,,,79,127
1973,note_on,2,0,0,,6,,,78,127
1973,note_on,0,0,0,,10,,,69,127
2291,note_off,318,0,0,,10,,,69,127
2291,note_off,0,0,0,,6,,,78,127
2293,note_on,2,0,0,,4,,,76,127
2293,note_on,0,0,0,,7,,,67,127
2611,note_off,318,0,0,,4,,,76,127
2613,note_on,2,0,0,,7,,,79,127
2771,note_off,158,0,0,,7,,,79,127
2773,note_on,2,0,0,,4,,,76,127
2931,note_off,158,0,0,,4,,,76,127
2933,note_off,2,0,0,,7,,,67,127
2933,note_on,0,0,0,,0,,,72,127
3251,note_off,318,0,0,,0,,,72,127
3253,note_on,2,0,0,,7,,,79,127
3253,note_on,0,0,0,,12,,,71,127
3571,note_off,318,0,0,,12,,,71,127
3571,note_off,0,0,0,,7,,,79,127
3573,note_on,2,0,0,,6,,,78,127
3573,note_on,0,0,0,,10,,,69,127
3891,note_off,318,0,0,,10,,,69,127
3891,note_off,0,0,0,,6,,,78,127
3893,note_on,2,0,0,,4,,,76,127
3893,note_on,0,0,0,,7,,,67,127
4211,note_off,318,0,0,,7,,,67,127
4213,note_on,2,0,0,,6,,,66,127
4531,note_off,318,0,0,,4,,,76,127
4533,note_on,2,0,0,,3,,,75,127
4851,note_off,318,0,0,,3,,,75,127
4851,note_off,0,0,0,,6,,,66,127
4853,note_on,2,0,0,,4,,,76,127
4853,note_on,0,0,0,,4,,,64,127
5171,note_off,318,0,0,,4,,,64,127
5171,note_off,0,0,0,,4,,,76,127
5173,note_on,2,0,0,,4,,,64,127
5333,note_on,160,0,0,,12,,,59,127
5491,note_off,158,0,0,,12,,,59,127
5493,note_on,2,0,0,,7,,,55,127
5811,note_off,318,0,0,,7,,,55,127
5811,note_off,0,0,0,,4,,,64,127
5813,note_on,2,0,0,,2,,,62,127
5813,note_on,0,0,0,,6,,,54,127
6131,note_off,318,0,0,,6,,,54,127
6131,note_off,0,0,0,,2,,,62,127
6133,note_on,2,0,0,,0,,,60,127
6133,note_on,0,0,0,,4,,,52,127
6451,note_off,318,0,0,,4,,,52,127
6451,note_off,0,0,0,,0,,,60,127
6453,note_on,2,0,0,,12,,,71,127
6453,note_on,0,0,0,,2,,,50,127
6453,note_on,0,0,0,,12,,,59,127
6771,note_off,318,0,0,,2,,,50,127
6771,note_off,0,0,0,,12,,,71,127
6773,note_on,2,0,0,,4,,,76,127
6773,note_on,0,0,0,,0,,,48,127
7093,note_off,320,0,0,,12,,,59,127
7093,note_on,0,0,0,,10,,,57,127
7411,note_off,318,0,0,,10,,,57,127
7411,note_off,0,0,0,,4,,,76,127
7413,note_off,2,0,0,,0,,,48,127
7413,note_on,0,0,0,,6,,,78,127
7413,note_on,0,0,0,,12,,,47,127
7731,note_off,318,0,0,,12,,,47,127
7731,note_off,0,0,0,,6,,,78,127
7733,note_on,2,0,0,,7,,,79,127
7733,note_on,0,0,0,,12,,,59,127
7891,note_off,158,0,0,,12,,,59,127
7893,note_on,2,0,0,,7,,,55,127
8051,note_off,158,0,0,,7,,,55,127
8053,note_on,2,0,0,,4,,,52,127
8371,note_off,318,0,0,,4,,,52,127
8371,note_off,0,0,0,,7,,,79,127
8373,note_on,2,0,0,,6,,,78,127
8373,note_on,0,0,0,,2,,,50,127
8373,note_on,0,0,0,,12,,,59,127
8691,note_off,318,0,0,,2,,,50,127
8691,note_off,0,0,0,,6,,,78,127
8693,note_on,2,0,0,,4,,,76,127
8693,note_on,0,0,0,,0,,,48,127
9011,note_off,318,0,0,,4,,,76,127
9013,note_off,2,0,0,,12,,,59,127
9013,note_on,0,0,0,,4,,,76,127
9013,note_on,0,0,0,,10,,,57,127
9331,note_off,318,0,0,,10,,,57,127
9333,note_off,2,0,0,,0,,,48,127
9333,note_on,0,0,0,,7,,,55,127
9333,note_on,0,0,0,,12,,,47,127
9651,note_off,318,0,0,,7,,,55,127
9651,note_off,0,0,0,,4,,,76,127
9653,note_on,2,0,0,,3,,,75,127
9653,note_on,0,0,0,,6,,,54,127
9971,note_off,318,0,0,,6,,,54,127
9971,note_off,0,0,0,,3,,,75,127
9973,note_off,2,0,0,,12,,,47,127
9973,note_on,0,0,0,,4,,,76,127
9973,note_on,0,0,0,,4,,,52,127
10291,note_off,318,0,0,,4,,,52,127
10291,note_off,0,0,0,,4,,,76,127
10293,note_on,2,0,0,,4,,,76,127
10293,note_on,0,0,0,,4,,,64,127
10611,note_off,318,0,0,,4,,,76,127
10613,note_on,2,0,0,,2,,,74,127
10931,note_off,318,0,0,,2,,,74,127
10931,note_off,0,0,0,,4,,,64,127
10933,note_on,2,0,0,,0,,,72,127
10933,note_on,0,0,0,,10,,,69,127
11251,note_off,318,0,0,,10,,,69,127
11251,note_off,0,0,0,,0,,,72,127
11253,note_on,2,0,0,,12,,,71,127
11253,note_on,0,0,0,,8,,,68,127
11253,note_on,0,0,0,,4,,,64,127
11571,note_off,318,0,0,,8,,,68,127
11571,note_off,0,0,0,,12,,,71,127
11573,note_on,2,0,0,,0,,,72,127
11573,note_on,0,0,0,,10,,,69,127
11891,note_off,318,0,0,,10,,,69,127
11891,note_off,0,0,0,,0,,,72,127
11893,note_off,2,0,0,,4,,,64,127
11893,note_on,0,0,0,,2,,,74,127
11893,note_on,0,0,0,,4,,,64,127
11893,note_on,0,0,0,,10,,,69,127
12051,note_off,158,0,0,,2,,,74,127
12053,note_on,2,0,0,,0,,,72,127
12211,note_off,158,0,0,,0,,,72,127
12211,note_off,0,0,0,,10,,,69,127
12213,note_on,2,0,0,,12,,,71,127
12213,note_on,0,0,0,,8,,,68,127
12531,note_off,318,0,0,,8,,,68,127
12531,note_off,0,0,0,,12,,,71,127
12533,note_off,2,0,0,,4,,,64,127
12533,note_on,0,0,0,,0,,,72,127
12533,note_on,0,0,0,,10,,,69,127
12851,note_off,318,0,0,,0,,,72,127
12853,note_on,2,0,0,,4,,,76,127
13171,note_off,318,0,0,,4,,,76,127
13173,note_on,2,0,0,,2,,,74,127
13491,note_off,318,0,0,,2,,,74,127
13491,note_off,0,0,0,,10,,,69,127
13493,note_on,2,0,0,,0,,,72,127
13493,note_on,0,0,0,,4,,,64,127
13493,note_on,0,0,0,,7,,,67,127
13811,note_off,318,0,0,,7,,,67,127
13811,note_off,0,0,0,,4,,,64,127
13811,note_off,0,0,0,,0,,,72,127
13813,note_on,2,0,0,,12,,,71,127
13813,note_on,0,0,0,,2,,,62,127
13813,note_on,0,0,0,,5,,,65,127
14131,note_off,318,0,0,,5,,,65,127
14131,note_off,0,0,0,,2,,,62,127
14131,note_off,0,0,0,,12,,,71,127
14133,note_on,2,0,0,,0,,,72,127
14133,note_on,0,0,0,,4,,,64,127
14133,note_on,0,0,0,,7,,,67,127
14451,note_off,318,0,0,,7,,,67,127
14451,note_off,0,0,0,,4,,,64,127
14451,note_off,0,0,0,,0,,,72,127
14453,note_on,2,0,0,,2,,,74,127
14453,note_on,0,0,0,,2,,,62,127
14453,note_on,0,0,0,,5,,,65,127
14611,note_off,158,0,0,,2,,,74,127
14613,note_on,2,0,0,,0,,,72,127
14771,note_off,158,0,0,,0,,,72,127
14773,note_on,2,0,0,,12,,,71,127
15091,note_off,318,0,0,,12,,,71,127
15091,note_off,0,0,0,,5,,,65,127
15091,note_off,0,0,0,,2,,,62,127
15093,note_on,2,0,0,,0,,,72,127
15093,note_on,0,0,0,,0,,,60,127
15093,note_on,0,0,0,,4,,,64,127
15411,note_off,318,0,0,,0,,,72,127
15413,note_on,2,0,0,,4,,,76,127
15731,note_off,318,0,0,,4,,,76,127
15733,note_on,2,0,0,,2,,,74,127
16051,note_off,318,0,0,,2,,,74,127
16051,note_off,0,0,0,,4,,,64,127
16051,note_off,0,0,0,,0,,,60,127
16053,note_on,2,0,0,,0,,,72,127
16053,note_on,0,0,0,,6,,,66,127
16053,note_on,0,0,0,,10,,,69,127
16371,note_off,318,0,0,,10,,,69,127
16371,note_off,0,0,0,,6,,,66,127
16371,note_off,0,0,0,,0,,,72,127
16373,note_on,2,0,0,,12,,,71,127
16373,note_on,0,0,0,,7,,,67,127
16691,note_off,318,0,0,,7,,,67,127
16691,note_off,0,0,0,,12,,,71,127
16693,note_on,2,0,0,,4,,,76,127
16693,note_on,0,0,0,,6,,,66,127
16851,note_off,158,0,0,,6,,,66,127
16853,note_on,2,0,0,,4,,,64,127
17011,note_off,158,0,0,,4,,,64,127
17011,note_off,0,0,0,,4,,,76,127
17013,note_on,2,0,0,,6,,,78,127
17013,note_on,0,0,0,,6,,,66,127
17013,note_on,0,0,0,,10,,,69,127
17171,note_off,158,0,0,,6,,,78,127
17173,note_on,2,0,0,,4,,,76,127
17331,note_off,158,0,0,,4,,,76,127
17333,note_on,2,0,0,,3,,,75,127
17651,note_off,318,0,0,,3,,,75,127
17651,note_off,0,0,0,,10,,,69,127
17651,note_off,0,0,0,,6,,,66,127
17653,note_on,2,0,0,,4,,,76,127
17653,note_on,0,0,0,,4,,,64,127
17971,note_off,318,0,0,,4,,,76,127
17973,note_on,2,0,0,,4,,,76,127
18291,note_off,318,0,0,,4,,,76,127
18293,note_on,2,0,0,,2,,,74,127
18611,note_off,318,0,0,,2,,,74,127
18611,note_off,0,0,0,,4,,,64,127
18613,note_on,2,0,0,,1,,,73,127
18613,note_on,0,0,0,,6,,,66,127
18613,note_on,0,0,0,,11,,,70,127
18931,note_off,318,0,0,,11,,,70,127
18931,note_off,0,0,0,,6,,,66,127
18931,note_off,0,0,0,,1,,,73,127
18933,note_on,2,0,0,,12,,,71,127
18933,note_on,0,0,0,,7,,,67,127
19251,note_off,318,0,0,,7,,,67,127
19251,note_off,0,0,0,,12,,,71,127
19253,note_on,2,0,0,,4,,,76,127
19253,note_on,0,0,0,,6,,,66,127
19253,note_on,0,0,0,,12,,,71,127
19411,note_off,158,0,0,,6,,,66,127
19413,note_on,2,0,0,,4,,,64,127
19571,note_off,158,0,0,,4,,,64,127
19571,note_off,0,0,0,,4,,,76,127
19573,note_on,2,0,0,,2,,,74,127
19573,note_on,0,0,0,,6,,,66,127
19891,note_off,318,0,0,,2,,,74,127
19893,note_off,2,0,0,,12,,,71,127
19893,note_on,0,0,0,,1,,,73,127
19893,note_on,0,0,0,,11,,,70,127
20211,note_off,318,0,0,,11,,,70,127
20211,note_off,0,0,0,,1,,,73,127
20213,note_off,2,0,0,,6,,,66,127
20213,note_on,0,0,0,,2,,,74,127
20213,note_on,0,0,0,,12,,,71,127
20531,note_off,318,0,0,,12,,,71,127
20531,note_off,0,0,0,,2,,,74,127
20533,note_on,2,0,0,,6,,,78,127
20533,note_on,0,0,0,,10,,,69,127
20533,note_on,0,0,0,,1,,,73,127
20851,note_off,318,0,0,,1,,,73,127
20851,note_off,0,0,0,,10,,,69,127
20853,note_on,2,0,0,,7,,,67,127
20853,note_on,0,0,0,,12,,,71,127
21171,note_off,318,0,0,,6,,,78,127
21173,note_on,2,0,0,,12,,,83,127
21173,note_on,0,0,0,,4,,,76,127
21491,note_off,318,0,0,,12,,,71,127
21491,note_off,0,0,0,,7,,,67,127
21493,note_off,2,0,0,,4,,,76,127
21493,note_on,0,0,0,,2,,,74,127
21493,note_on,0,0,0,,6,,,66,127
21811,note_off,318,0,0,,2,,,74,127
21813,note_off,2,0,0,,12,,,83,127
21813,note_on,0,0,0,,10,,,81,127
21813,note_on,0,0,0,,1,,,73,127
22131,note_off,318,0,0,,1,,,73,127
22131,note_off,0,0,0,,10,,,81,127
22133,note_on,2,0,0,,12,,,71,127
22133,note_on,0,0,0,,7,,,79,127
22451,note_off,318,0,0,,6,,,66,127
22453,note_on,2,0,0,,4,,,64,127
22771,note_off,318,0,0,,7,,,79,127
22771,note_off,0,0,0,,12,,,71,127
22773,note_on,2,0,0,,11,,,70,127
22773,note_on,0,0,0,,6,,,78,127
23091,note_off,318,0,0,,4,,,64,127
23093,note_off,2,0,0,,11,,,70,127
23093,note_on,0,0,0,,12,,,71,127
23093,note_on,0,0,0,,2,,,62,127
23411,note_off,318,0,0,,2,,,62,127
23411,note_off,0,0,0,,12,,,71,127
23413,note_off,2,0,0,,6,,,78,127
23413,note_on,0,0,0,,1,,,73,127
23413,note_on,0,0,0,,11,,,70,127
23413,note_on,0,0,0,,1,,,61,127
23731,note_off,318,0,0,,1,,,61,127
23731,note_off,0,0,0,,11,,,70,127
23731,note_off,0,0,0,,1,,,73,127
23733,note_on,2,0,0,,2,,,74,127
23733,note_on,0,0,0,,12,,,71,127
23733,note_on,0,0,0,,12,,,59,127
24051,note_off,318,0,0,,12,,,59,127
24051,note_off,0,0,0,,12,,,71,127
24051,note_off,0,0,0,,2,,,74,127
24053,note_on,2,0,0,,1,,,73,127
24053,note_on,0,0,0,,4,,,76,127
24053,note_on,0,0,0,,11,,,58,127
24371,note_off,318,0,0,,11,,,58,127
24371,note_off,0,0,0,,4,,,76,127
24371,note_off,0,0,0,,1,,,73,127
24373,note_on,2,0,0,,12,,,71,127
24373,note_on,0,0,0,,2,,,74,127
24373,note_on,0,0,0,,12,,,59,127
24691,note_off,318,0,0,,12,,,59,127
24691,note_off,0,0,0,,2,,,74,127
24691,note_off,0,0,0,,12,,,71,127
24693,note_on,2,0,0,,1,,,73,127
24693,note_on,0,0,0,,7,,,55,127
25011,note_off,318,0,0,,1,,,73,127
25013,note_on,2,0,0,,12,,,71,127
25013,note_on,0,0,0,,4,,,64,127
25331,note_off,318,0,0,,12,,,71,127
25333,note_off,2,0,0,,7,,,55,127
25333,note_on,0,0,0,,11,,,70,127
25333,note_on,0,0,0,,6,,,54,127
25651,note_off,318,0,0,,11,,,70,127
25653,note_off,2,0,0,,4,,,64,127
25653,note_on,0,0,0,,12,,,71,127
25653,note_on,0,0,0,,2,,,62,127
25971,note_off,318,0,0,,2,,,62,127
25971,note_off,0,0,0,,12,,,71,127
25973,note_on,2,0,0,,1,,,73,127
25973,note_on,0,0,0,,1,,,61,127
26291,note_off,318,0,0,,1,,,61,127
26291,note_off,0,0,0,,1,,,73,127
26293,note_off,2,0,0,,6,,,54,127
26293,note_on,0,0,0,,2,,,74,127
26293,note_on,0,0,0,,12,,,59,127
26611,note_off,318,0,0,,12,,,59,127
26611,note_off,0,0,0,,2,,,74,127
26613,note_on,2,0,0,,1,,,73,127
26613,note_on,0,0,0,,6,,,54,127
26666,note_off,53,0,0,,1,,,73,127
26666,note_on,0,0,0,,2,,,74,127
26719,note_off,53,0,0,,2,,,74,127
26719,note_on,0,0,0,,1,,,73,127
26932,note_on,213,0,0,,6,,,66,127
27084,note_off,152,0,0,,1,,,73,127
27092,note_on,8,0,0,,1,,,73,127
27250,note_off,158,0,0,,1,,,73,127
27252,note_off,2,0,0,,6,,,54,127
27252,note_on,0,0,0,,12,,,71,127
27252,note_on,0,0,0,,7,,,55,127
27305,note_off,53,0,0,,12,,,71,127
27305,note_on,0,0,0,,1,,,73,127
27358,note_off,53,0,0,,1,,,73,127
27358,note_on,0,0,0,,12,,,71,127
27571,note_off,213,0,0,,6,,,66,127
27571,note_on,0,0,0,,4,,,64,127
27719,note_off,148,0,0,,12,,,71,127
27731,note_on,12,0,0,,12,,,71,127
27889,note_off,158,0,0,,12,,,71,127
27889,note_off,0,0,0,,4,,,64,127
27891,note_off,2,0,0,,7,,,55,127
27891,note_on,0,0,0,,1,,,73,127
27891,note_on,0,0,0,,6,,,54,127
28209,note_off,318,0,0,,1,,,73,127
28211,note_on,2,0,0,,11,,,70,127
28211,note_on,0,0,0,,6,,,66,127
28529,note_off,318,0,0,,11,,,70,127
28531,note_off,2,0,0,,6,,,54,127
28531,note_on,0,0,0,,1,,,73,127
28531,note_on,0,0,0,,7,,,55,127
28584,note_off,53,0,0,,1,,,73,127
28584,note_on,0,0,0,,12,,,71,127
28637,note_off,53,0,0,,12,,,71,127
28637,note_on,0,0,0,,1,,,73,127
28690,note_off,53,0,0,,1,,,73,127
28690,note_on,0,0,0,,12,,,71,127
28850,note_off,160,0,0,,6,,,66,127
28850,note_on,0,0,0,,4,,,64,127
29008,note_off,158,0,0,,12,,,71,127
29010,note_on,2,0,0,,12,,,71,127
29168,note_off,158,0,0,,12,,,71,127
29168,note_off,0,0,0,,4,,,64,127
29170,note_off,2,0,0,,7,,,55,127
29170,note_on,0,0,0,,2,,,74,127
29170,note_on,0,0,0,,6,,,54,127
29223,note_off,53,0,0,,2,,,74,127
29223,note_on,0,0,0,,1,,,73,127
29276,note_off,53,0,0,,1,,,73,127
29276,note_on,0,0,0,,2,,,74,127
29329,note_off,53,0,0,,2,,,74,127
29329,note_on,0,0,0,,1,,,73,127
29489,note_on,160,0,0,,6,,,66,127
29647,note_off,158,0,0,,1,,,73,127
29649,note_on,2,0,0,,1,,,73,127
29807,note_off,158,0,0,,1,,,73,127
29809,note_off,2,0,0,,6,,,54,127
29809,note_on,0,0,0,,12,,,71,127
29809,note_on,0,0,0,,7,,,55,127
29862,note_off,53,0,0,,12,,,71,127
29862,note_on,0,0,0,,1,,,73,127
29915,note_off,53,0,0,,1,,,73,127
29915,note_on,0,0,0,,12,,,71,127
30128,note_off,213,0,0,,6,,,66,127
30128,note_on,0,0,0,,4,,,64,127
30276,note_off,148,0,0,,12,,,71,127
30288,note_on,12,0,0,,12,,,71,127
30446,note_off,158,0,0,,12,,,71,127
30446,note_off,0,0,0,,4,,,64,127
30448,note_off,2,0,0,,7,,,55,127
30448,note_on,0,0,0,,12,,,71,127
30448,note_on,0,0,0,,6,,,42,127
30766,note_off,318,0,0,,12,,,71,127
30768,note_on,2,0,0,,1,,,73,127
31408,note_off,640,0,0,,1,,,73,127
31408,note_off,0,0,0,,6,,,42,127
31728,note_on,320,0,0,,10,,,81,127
31728,note_on,0,0,0,,2,,,38,127
31886,note_off,158,0,0,,10,,,81,127
31888,note_on,2,0,0,,6,,,78,127
32046,note_off,158,0,0,,6,,,78,127
32048,note_on,2,0,0,,2,,,74,127
32206,note_off,158,0,0,,2,,,74,127
32208,note_on,2,0,0,,10,,,69,127
32366,note_off,158,0,0,,10,,,69,127
32368,note_on,2,0,0,,6,,,66,127
32526,note_off,158,0,0,,6,,,66,127
32528,note_on,2,0,0,,2,,,62,127
32686,note_off,158,0,0,,2,,,62,127
32688,note_on,2,0,0,,10,,,57,127
32846,note_off,158,0,0,,10,,,57,127
32848,note_on,2,0,0,,6,,,54,127
33006,note_off,158,0,0,,6,,,54,127
33006,note_off,0,0,0,,2,,,38,127
33008,note_on,2,0,0,,11,,,58,127
33008,note_on,0,0,0,,7,,,43,127
33326,note_off,318,0,0,,11,,,58,127
33328,note_on,2,0,0,,12,,,59,127
33646,note_off,318,0,0,,7,,,43,127
33648,note_on,2,0,0,,7,,,55,127
33966,note_off,318,0,0,,7,,,55,127
33968,note_on,2,0,0,,6,,,54,127
34286,note_off,318,0,0,,6,,,54,127
34286,note_off,0,0,0,,12,,,59,127
34288,note_on,2,0,0,,12,,,83,127
34288,note_on,0,0,0,,4,,,40,127
34446,note_off,158,0,0,,12,,,83,127
34448,note_on,2,0,0,,7,,,79,127
34606,note_off,158,0,0,,7,,,79,127
34608,note_on,2,0,0,,4,,,76,127
34766,note_off,158,0,0,,4,,,76,127
34768,note_on,2,0,0,,12,,,71,127
34926,note_off,158,0,0,,12,,,71,127
34928,note_on,2,0,0,,7,,,67,127
35086,note_off,158,0,0,,7,,,67,127
35088,note_on,2,0,0,,4,,,64,127
35246,note_off,158,0,0,,4,,,64,127
35248,note_on,2,0,0,,12,,,59,127
35406,note_off,158,0,0,,12,,,59,127
35408,note_on,2,0,0,,7,,,55,127
35566,note_off,158,0,0,,7,,,55,127
35566,note_off,0,0,0,,4,,,40,127
35568,note_on,2,0,0,,2,,,62,127
35568,note_on,0,0,0,,10,,,45,127
35886,note_off,318,0,0,,2,,,62,127
35888,note_on,2,0,0,,1,,,61,127
36046,note_off,158,0,0,,1,,,61,127
36048,note_on,2,0,0,,12,,,59,127
36206,note_off,158,0,0,,12,,,59,127
36208,note_on,2,0,0,,12,,,59,127
36526,note_off,318,0,0,,12,,,59,127
36528,note_on,2,0,0,,1,,,61,127
36846,note_off,318,0,0,,10,,,45,127
36848,note_on,2,0,0,,10,,,45,127
37006,note_off,158,0,0,,10,,,45,127
37008,note_off,2,0,0,,1,,,61,127
37008,note_on,0,0,0,,1,,,49,127
37166,note_off,158,0,0,,1,,,49,127
37168,note_on,2,0,0,,10,,,81,127
37168,note_on,0,0,0,,4,,,52,127
37326,note_off,158,0,0,,4,,,52,127
37328,note_on,2,0,0,,10,,,57,127
37486,note_off,158,0,0,,10,,,57,127
37486,note_off,0,0,0,,10,,,81,127
37488,note_on,2,0,0,,10,,,81,127
37488,note_on,0,0,0,,1,,,61,127
37646,note_off,158,0,0,,1,,,61,127
37648,note_on,2,0,0,,4,,,64,127
37806,note_off,158,0,0,,4,,,64,127
37806,note_off,0,0,0,,10,,,81,127
37808,note_on,2,0,0,,10,,,81,127
37808,note_on,0,0,0,,10,,,69,127
37966,note_off,158,0,0,,10,,,69,127
37968,note_on,2,0,0,,1,,,73,127
38126,note_off,158,0,0,,1,,,73,127
38126,note_off,0,0,0,,10,,,81,127
38128,note_on,2,0,0,,10,,,81,127
38128,note_on,0,0,0,,2,,,38,127
38233,note_off,105,0,0,,10,,,81,127
38235,note_on,2,0,0,,7,,,79,127
38340,note_off,105,0,0,,7,,,79,127
38342,note_on,2,0,0,,6,,,78,127
38447,note_off,105,0,0,,6,,,78,127
38449,note_on,2,0,0,,7,,,79,127
38554,note_off,105,0,0,,7,,,79,127
38556,note_on,2,0,0,,6,,,78,127
38661,note_off,105,0,0,,6,,,78,127
38663,note_on,2,0,0,,4,,,76,127
38768,note_off,105,0,0,,4,,,76,127
38770,note_on,2,0,0,,6,,,78,127
39088,note_off,318,0,0,,6,,,78,127
39090,note_on,2,0,0,,2,,,74,127
39408,note_off,318,0,0,,2,,,74,127
39408,note_off,0,0,0,,2,,,38,127
39410,note_on,2,0,0,,10,,,81,127
39410,note_on,0,0,0,,10,,,45,127
39568,note_off,158,0,0,,10,,,45,127
39570,note_on,2,0,0,,1,,,49,127
39728,note_off,158,0,0,,1,,,49,127
39728,note_off,0,0,0,,10,,,81,127
39730,note_on,2,0,0,,10,,,81,127
39730,note_on,0,0,0,,4,,,52,127
39888,note_off,158,0,0,,4,,,52,127
39890,note_on,2,0,0,,10,,,57,127
40048,note_off,158,0,0,,10,,,57,127
40048,note_off,0,0,0,,10,,,81,127
40050,note_on,2,0,0,,10,,,81,127
40050,note_on,0,0,0,,1,,,61,127
40208,note_off,158,0,0,,1,,,61,127
40210,note_on,2,0,0,,4,,,64,127
40368,note_off,158,0,0,,4,,,64,127
40368,note_off,0,0,0,,10,,,81,127
40370,note_on,2,0,0,,10,,,81,127
40370,note_on,0,0,0,,10,,,69,127
40528,note_off,158,0,0,,10,,,69,127
40530,note_on,2,0,0,,1,,,73,127
40688,note_off,158,0,0,,1,,,73,127
40688,note_off,0,0,0,,10,,,81,127
40690,note_on,2,0,0,,10,,,81,127
40690,note_on,0,0,0,,2,,,38,127
40795,note_off,105,0,0,,10,,,81,127
40797,note_on,2,0,0,,7,,,79,127
40902,note_off,105,0,0,,7,,,79,127
40904,note_on,2,0,0,,6,,,78,127
41009,note_off,105,0,0,,6,,,78,127
41011,note_on,2,0,0,,7,,,79,127
41116,note_off,105,0,0,,7,,,79,127
41118,note_on,2,0,0,,6,,,78,127
41223,note_off,105,0,0,,6,,,78,127
41225,note_on,2,0,0,,4,,,76,127
41330,note_off,105,0,0,,4,,,76,127
41332,note_on,2,0,0,,6,,,78,127
41650,note_off,318,0,0,,6,,,78,127
41652,note_on,2,0,0,,2,,,74,127
41970,note_off,318,0,0,,2,,,74,127
41970,note_off,0,0,0,,2,,,38,127
41972,note_on,2,0,0,,2,,,86,127
41972,note_on,0,0,0,,6,,,42,127
42130,note_off,158,0,0,,2,,,86,127
42132,note_on,2,0,0,,10,,,81,127
42290,note_off,158,0,0,,10,,,81,127
42292,note_on,2,0,0,,6,,,78,127
42450,note_off,158,0,0,,6,,,78,127
42452,note_on,2,0,0,,2,,,74,127
42610,note_off,158,0,0,,2,,,74,127
42612,note_on,2,0,0,,10,,,69,127
42770,note_off,158,0,0,,10,,,69,127
42772,note_on,2,0,0,,6,,,66,127
42930,note_off,158,0,0,,6,,,66,127
42932,note_on,2,0,0,,2,,,62,127
43090,note_off,158,0,0,,2,,,62,127
43092,note_on,2,0,0,,10,,,57,127
43250,note_off,158,0,0,,10,,,57,127
43250,note_off,0,0,0,,6,,,42,127
43252,note_on,2,0,0,,12,,,59,127
43252,note_on,0,0,0,,7,,,43,127
43570,note_off,318,0,0,,12,,,59,127
43572,note_on,2,0,0,,12,,,71,127
43890,note_off,318,0,0,,7,,,43,127
43892,note_on,2,0,0,,7,,,55,127
44210,note_off,318,0,0,,12,,,71,127
44212,note_on,2,0,0,,10,,,69,127
44290,note_off,78,0,0,,10,,,69,127
44292,note_on,2,0,0,,7,,,67,127
44370,note_off,78,0,0,,7,,,67,127
44372,note_on,2,0,0,,6,,,66,127
44450,note_off,78,0,0,,6,,,66,127
44452,note_on,2,0,0,,4,,,64,127
44530,note_off,78,0,0,,4,,,64,127
44530,note_off,0,0,0,,7,,,55,127
44532,note_on,2,0,0,,2,,,62,127
44532,note_on,0,0,0,,10,,,45,127
44770,note_off,238,0,0,,2,,,62,127
44772,note_on,2,0,0,,4,,,64,127
44850,note_off,78,0,0,,4,,,64,127
44852,note_on,2,0,0,,2,,,62,127
44930,note_off,78,0,0,,2,,,62,127
44932,note_on,2,0,0,,1,,,61,127
45010,note_off,78,0,0,,1,,,61,127
45012,note_on,2,0,0,,2,,,62,127
45090,note_off,78,0,0,,2,,,62,127
45092,note_on,2,0,0,,4,,,64,127
45170,note_off,78,0,0,,4,,,64,127
45170,note_off,0,0,0,,10,,,45,127
45172,note_on,2,0,0,,6,,,66,127
45172,note_on,0,0,0,,10,,,45,127
45250,note_off,78,0,0,,6,,,66,127
45252,note_on,2,0,0,,4,,,64,127
45330,note_off,78,0,0,,4,,,64,127
45332,note_on,2,0,0,,6,,,66,127
45410,note_off,78,0,0,,6,,,66,127
45412,note_on,2,0,0,,4,,,64,127
45490,note_off,78,0,0,,4,,,64,127
45492,note_on,2,0,0,,6,,,66,127
45570,note_off,78,0,0,,6,,,66,127
45572,note_on,2,0,0,,4,,,64,127
45650,note_off,78,0,0,,4,,,64,127
45652,note_on,2,0,0,,2,,,62,127
45810,note_off,158,0,0,,2,,,62,127
45810,note_off,0,0,0,,10,,,45,127
45812,note_on,2,0,0,,2,,,62,127
45812,note_on,0,0,0,,2,,,38,127
47092,note_off,1280,0,0,,2,,,38,127
47092,note_off,0,0,0,,2,,,62,127
47412,note_on,320,0,0,,11,,,58,127
47412,note_on,0,0,0,,2,,,62,127
47730,note_off,318,0,0,,2,,,62,127
47730,note_off,0,0,0,,11,,,58,127
47732,note_on,2,0,0,,2,,,62,127
47732,note_on,0,0,0,,5,,,65,127
48050,note_off,318,0,0,,5,,,65,127
48050,note_off,0,0,0,,2,,,62,127
48052,note_on,2,0,0,,0,,,60,127
48052,note_on,0,0,0,,3,,,63,127
48370,note_off,318,0,0,,3,,,63,127
48370,note_off,0,0,0,,0,,,60,127
48372,note_on,2,0,0,,11,,,58,127
48372,note_on,0,0,0,,2,,,62,127
48530,note_off,158,0,0,,2,,,62,127
48532,note_on,2,0,0,,0,,,60,127
48690,note_off,158,0,0,,0,,,60,127
48692,note_on,2,0,0,,2,,,62,127
48850,note_off,158,0,0,,2,,,62,127
48852,note_on,2,0,0,,3,,,63,127
49010,note_off,158,0,0,,3,,,63,127
49012,note_off,2,0,0,,11,,,58,127
49012,note_on,0,0,0,,2,,,62,127
49012,note_on,0,0,0,,5,,,65,127
49330,note_off,318,0,0,,5,,,65,127
49330,note_off,0,0,0,,2,,,62,127
49332,note_on,2,0,0,,3,,,63,127
49332,note_on,0,0,0,,0,,,60,127
49650,note_off,318,0,0,,0,,,60,127
49650,note_off,0,0,0,,3,,,63,127
49652,note_on,2,0,0,,11,,,58,127
49652,note_on,0,0,0,,2,,,62,127
49972,note_on,320,0,0,,2,,,74,127
50290,note_off,318,0,0,,2,,,74,127
50292,note_on,2,0,0,,5,,,77,127
50610,note_off,318,0,0,,5,,,77,127
50612,note_on,2,0,0,,3,,,75,127
50930,note_off,318,0,0,,3,,,75,127
50930,note_off,0,0,0,,2,,,62,127
50930,note_off,0,0,0,,11,,,58,127
50932,note_on,2,0,0,,2,,,74,127
50932,note_on,0,0,0,,8,,,56,127
51250,note_off,318,0,0,,2,,,74,127
51252,note_on,2,0,0,,0,,,72,127
51252,note_on,0,0,0,,5,,,65,127
51570,note_off,318,0,0,,5,,,65,127
51572,note_off,2,0,0,,8,,,56,127
51572,note_on,0,0,0,,3,,,63,127
51572,note_on,0,0,0,,7,,,55,127
51890,note_off,318,0,0,,3,,,63,127
51890,note_off,0,0,0,,0,,,72,127
51892,note_on,2,0,0,,12,,,71,127
51892,note_on,0,0,0,,2,,,62,127
52210,note_off,318,0,0,,2,,,62,127
52210,note_off,0,0,0,,12,,,71,127
52212,note_off,2,0,0,,7,,,55,127
52212,note_on,0,0,0,,0,,,72,127
52212,note_on,0,0,0,,0,,,48,127
52530,note_off,318,0,0,,0,,,48,127
52532,note_on,2,0,0,,4,,,64,127
52532,note_on,0,0,0,,0,,,60,127
52850,note_off,318,0,0,,0,,,60,127
52850,note_off,0,0,0,,4,,,64,127
52852,note_off,2,0,0,,0,,,72,127
52852,note_on,0,0,0,,7,,,67,127
52852,note_on,0,0,0,,4,,,64,127
53170,note_off,318,0,0,,4,,,64,127
53170,note_off,0,0,0,,7,,,67,127
53172,note_on,2,0,0,,5,,,65,127
53172,note_on,0,0,0,,2,,,62,127
53490,note_off,318,0,0,,2,,,62,127
53490,note_off,0,0,0,,5,,,65,127
53492,note_on,2,0,0,,0,,,60,127
53492,note_on,0,0,0,,4,,,64,127
53650,note_off,158,0,0,,4,,,64,127
53652,note_on,2,0,0,,2,,,62,127
53810,note_off,158,0,0,,2,,,62,127
53812,note_on,2,0,0,,4,,,64,127
53970,note_off,158,0,0,,4,,,64,127
53972,note_on,2,0,0,,5,,,65,127
54130,note_off,158,0,0,,5,,,65,127
54132,note_off,2,0,0,,0,,,60,127
54132,note_on,0,0,0,,7,,,67,127
54132,note_on,0,0,0,,4,,,64,127
54450,note_off,318,0,0,,4,,,64,127
54450,note_off,0,0,0,,7,,,67,127
54452,note_on,2,0,0,,2,,,62,127
54452,note_on,0,0,0,,5,,,65,127
54770,note_off,318,0,0,,5,,,65,127
54770,note_off,0,0,0,,2,,,62,127
54772,note_on,2,0,0,,0,,,60,127
54772,note_on,0,0,0,,4,,,64,127
55092,note_on,320,0,0,,4,,,76,127
55410,note_off,318,0,0,,4,,,76,127
55412,note_on,2,0,0,,7,,,79,127
55730,note_off,318,0,0,,7,,,79,127
55732,note_on,2,0,0,,5,,,77,127
56050,note_off,318,0,0,,5,,,77,127
56050,note_off,0,0,0,,4,,,64,127
56050,note_off,0,0,0,,0,,,60,127
56052,note_on,2,0,0,,4,,,76,127
56052,note_on,0,0,0,,11,,,58,127
56370,note_off,318,0,0,,4,,,76,127
56372,note_on,2,0,0,,2,,,74,127
56372,note_on,0,0,0,,7,,,67,127
56690,note_off,318,0,0,,7,,,67,127
56692,note_off,2,0,0,,11,,,58,127
56692,note_on,0,0,0,,5,,,65,127
56692,note_on,0,0,0,,10,,,57,127
57010,note_off,318,0,0,,5,,,65,127
57010,note_off,0,0,0,,2,,,74,127
57012,note_on,2,0,0,,1,,,73,127
57012,note_on,0,0,0,,4,,,64,127
57330,note_off,318,0,0,,4,,,64,127
57330,note_off,0,0,0,,1,,,73,127
57332,note_off,2,0,0,,10,,,57,127
57332,note_on,0,0,0,,2,,,74,127
57332,note_on,0,0,0,,2,,,62,127
57650,note_off,318,0,0,,2,,,62,127
57650,note_off,0,0,0,,2,,,74,127
57652,note_on,2,0,0,,10,,,69,127
57652,note_on,0,0,0,,6,,,66,127
57652,note_on,0,0,0,,2,,,62,127
57970,note_off,318,0,0,,2,,,62,127
57970,note_off,0,0,0,,6,,,66,127
57972,note_on,2,0,0,,2,,,62,127
57972,note_on,0,0,0,,6,,,66,127
58290,note_off,318,0,0,,6,,,66,127
58290,note_off,0,0,0,,2,,,62,127
58290,note_off,0,0,0,,10,,,69,127
58292,note_on,2,0,0,,2,,,74,127
58292,note_on,0,0,0,,11,,,70,127
58292,note_on,0,0,0,,2,,,62,127
58292,note_on,0,0,0,,7,,,67,127
58610,note_off,318,0,0,,7,,,67,127
58610,note_off,0,0,0,,2,,,62,127
58610,note_off,0,0,0,,11,,,70,127
58610,note_off,0,0,0,,2,,,74,127
58612,note_on,2,0,0,,2,,,74,127
58612,note_on,0,0,0,,10,,,69,127
58612,note_on,0,0,0,,7,,,67,127
58612,note_on,0,0,0,,1,,,61,127
58930,note_off,318,0,0,,1,,,61,127
58930,note_off,0,0,0,,7,,,67,127
58930,note_off,0,0,0,,2,,,74,127
58932,note_on,2,0,0,,4,,,76,127
58932,note_on,0,0,0,,1,,,61,127
58932,note_on,0,0,0,,7,,,67,127
59250,note_off,318,0,0,,7,,,67,127
59250,note_off,0,0,0,,1,,,61,127
59252,note_off,2,0,0,,10,,,69,127
59252,note_on,0,0,0,,1,,,61,127
59252,note_on,0,0,0,,7,,,67,127
59570,note_off,318,0,0,,7,,,67,127
59570,note_off,0,0,0,,1,,,61,127
59570,note_off,0,0,0,,4,,,76,127
59572,note_on,2,0,0,,11,,,70,127
59572,note_on,0,0,0,,2,,,74,127
59572,note_on,0,0,0,,7,,,67,127
59572,note_on,0,0,0,,2,,,62,127
59890,note_off,318,0,0,,2,,,62,127
59890,note_off,0,0,0,,7,,,67,127
59890,note_off,0,0,0,,2,,,74,127
59890,note_off,0,0,0,,11,,,70,127
59892,note_on,2,0,0,,11,,,70,127
59892,note_on,0,0,0,,2,,,74,127
59892,note_on,0,0,0,,1,,,61,127
59892,note_on,0,0,0,,7,,,67,127
60210,note_off,318,0,0,,7,,,67,127
60210,note_off,0,0,0,,1,,,61,127
60210,note_off,0,0,0,,2,,,74,127
60210,note_off,0,0,0,,11,,,70,127
60212,note_on,2,0,0,,4,,,76,127
60212,note_on,0,0,0,,10,,,69,127
60212,note_on,0,0,0,,7,,,67,127
60212,note_on,0,0,0,,1,,,61,127
60530,note_off,318,0,0,,1,,,61,127
60530,note_off,0,0,0,,7,,,67,127
60532,note_on,2,0,0,,1,,,61,127
60532,note_on,0,0,0,,7,,,67,127
60850,note_off,318,0,0,,7,,,67,127
60850,note_off,0,0,0,,1,,,61,127
60850,note_off,0,0,0,,10,,,69,127
60850,note_off,0,0,0,,4,,,76,127
60852,note_on,2,0,0,,10,,,69,127
60852,note_on,0,0,0,,1,,,61,127
60852,note_on,0,0,0,,7,,,67,127
61170,note_off,318,0,0,,7,,,67,127
61170,note_off,0,0,0,,1,,,61,127
61170,note_off,0,0,0,,10,,,69,127
61172,note_on,2,0,0,,10,,,69,127
61172,note_on,0,0,0,,0,,,60,127
61172,note_on,0,0,0,,7,,,67,127
61490,note_off,318,0,0,,7,,,67,127
61490,note_off,0,0,0,,0,,,60,127
61492,note_on,2,0,0,,0,,,60,127
61492,note_on,0,0,0,,6,,,66,127
61810,note_off,318,0,0,,6,,,66,127
61810,note_off,0,0,0,,0,,,60,127
61812,note_on,2,0,0,,6,,,66,127
61812,note_on,0,0,0,,0,,,60,127
62130,note_off,318,0,0,,0,,,60,127
62130,note_off,0,0,0,,6,,,66,127
62130,note_off,0,0,0,,10,,,69,127
62132,note_on,2,0,0,,4,,,76,127
62132,note_on,0,0,0,,0,,,60,127
62132,note_on,0,0,0,,4,,,64,127
62450,note_off,318,0,0,,4,,,64,127
62450,note_off,0,0,0,,0,,,60,127
62450,note_off,0,0,0,,4,,,76,127
62452,note_on,2,0,0,,10,,,69,127
62452,note_on,0,0,0,,4,,,76,127
62452,note_on,0,0,0,,6,,,66,127
62452,note_on,0,0,0,,3,,,63,127
62452,note_on,0,0,0,,12,,,59,127
62770,note_off,318,0,0,,12,,,59,127
62770,note_off,0,0,0,,3,,,63,127
62770,note_off,0,0,0,,6,,,66,127
62770,note_off,0,0,0,,4,,,76,127
62772,note_on,2,0,0,,6,,,78,127
62772,note_on,0,0,0,,12,,,59,127
62772,note_on,0,0,0,,3,,,63,127
62772,note_on,0,0,0,,6,,,66,127
63090,note_off,318,0,0,,6,,,66,127
63090,note_off,0,0,0,,3,,,63,127
63090,note_off,0,0,0,,12,,,59,127
63092,note_off,2,0,0,,10,,,69,127
63092,note_on,0,0,0,,10,,,69,127
63092,note_on,0,0,0,,4,,,64,127
63092,note_on,0,0,0,,0,,,60,127
63410,note_off,318,0,0,,0,,,60,127
63410,note_off,0,0,0,,4,,,64,127
63412,note_off,2,0,0,,6,,,78,127
63412,note_on,0,0,0,,4,,,76,127
63412,note_on,0,0,0,,4,,,64,127
63412,note_on,0,0,0,,0,,,60,127
63730,note_off,318,0,0,,0,,,60,127
63730,note_off,0,0,0,,4,,,64,127
63730,note_off,0,0,0,,4,,,76,127
63732,note_off,2,0,0,,10,,,69,127
63732,note_on,0,0,0,,4,,,76,127
63732,note_on,0,0,0,,10,,,69,127
63732,note_on,0,0,0,,6,,,66,127
63732,note_on,0,0,0,,12,,,59,127
63732,note_on,0,0,0,,3,,,63,127
64050,note_off,318,0,0,,3,,,63,127
64050,note_off,0,0,0,,12,,,59,127
64050,note_off,0,0,0,,6,,,66,127
64050,note_off,0,0,0,,4,,,76,127
64052,note_on,2,0,0,,6,,,78,127
64052,note_on,0,0,0,,6,,,66,127
64052,note_on,0,0,0,,3,,,63,127
64052,note_on,0,0,0,,12,,,59,127
64370,note_off,318,0,0,,12,,,59,127
64370,note_off,0,0,0,,3,,,63,127
64370,note_off,0,0,0,,6,,,66,127
64372,note_off,2,0,0,,10,,,69,127
64372,note_on,0,0,0,,12,,,59,127
64372,note_on,0,0,0,,3,,,63,127
64372,note_on,0,0,0,,6,,,66,127
64690,note_off,318,0,0,,6,,,66,127
64690,note_off,0,0,0,,3,,,63,127
64690,note_off,0,0,0,,12,,,59,127
64690,note_off,0,0,0,,6,,,78,127
64692,note_on,2,0,0,,6,,,78,127
64692,note_on,0,0,0,,6,,,66,127
64692,note_on,0,0,0,,3,,,63,127
64692,note_on,0,0,0,,12,,,59,127
65010,note_off,318,0,0,,12,,,59,127
65010,note_off,0,0,0,,3,,,63,127
65010,note_off,0,0,0,,6,,,66,127
65010,note_off,0,0,0,,6,,,78,127
65012,note_on,2,0,0,,7,,,79,127
65012,note_on,0,0,0,,7,,,67,127
65012,note_on,0,0,0,,4,,,64,127
65012,note_on,0,0,0,,11,,,58,127
65330,note_off,318,0,0,,11,,,58,127
65330,note_off,0,0,0,,4,,,64,127
65330,note_off,0,0,0,,7,,,67,127
65330,note_off,0,0,0,,7,,,79,127
65332,note_on,2,0,0,,4,,,76,127
65332,note_on,0,0,0,,7,,,67,127
65332,note_on,0,0,0,,4,,,64,127
65332,note_on,0,0,0,,11,,,58,127
65650,note_off,318,0,0,,11,,,58,127
65650,note_off,0,0,0,,4,,,64,127
65650,note_off,0,0,0,,7,,,67,127
65652,note_on,2,0,0,,7,,,67,127
65652,note_on,0,0,0,,4,,,64,127
65652,note_on,0,0,0,,11,,,58,127
65970,note_off,318,0,0,,11,,,58,127
65970,note_off,0,0,0,,4,,,64,127
65970,note_off,0,0,0,,7,,,67,127
65970,note_off,0,0,0,,4,,,76,127
65972,note_on,2,0,0,,2,,,74,127
65972,note_on,0,0,0,,7,,,67,127
65972,note_on,0,0,0,,4,,,64,127
65972,note_on,0,0,0,,11,,,58,127
66130,note_off,158,0,0,,2,,,74,127
66132,note_on,2,0,0,,1,,,73,127
66290,note_off,158,0,0,,1,,,73,127
66290,note_off,0,0,0,,11,,,58,127
66290,note_off,0,0,0,,4,,,64,127
66290,note_off,0,0,0,,7,,,67,127
66292,note_on,2,0,0,,1,,,73,127
66292,note_on,0,0,0,,12,,,59,127
66292,note_on,0,0,0,,6,,,66,127
66610,note_off,318,0,0,,6,,,66,127
66610,note_off,0,0,0,,12,,,59,127
66610,note_off,0,0,0,,1,,,73,127
66612,note_on,2,0,0,,2,,,74,127
66612,note_on,0,0,0,,12,,,59,127
66612,note_on,0,0,0,,6,,,66,127
66930,note_off,318,0,0,,6,,,66,127
66930,note_off,0,0,0,,12,,,59,127
66932,note_on,2,0,0,,6,,,66,127
66932,note_on,0,0,0,,12,,,59,127
67250,note_off,318,0,0,,12,,,59,127
67250,note_off,0,0,0,,6,,,66,127
67250,note_off,0,0,0,,2,,,74,127
67252,note_on,2,0,0,,2,,,74,127
67252,note_on,0,0,0,,6,,,66,127
67252,note_on,0,0,0,,12,,,59,127
67570,note_off,318,0,0,,12,,,59,127
67570,note_off,0,0,0,,6,,,66,127
67570,note_off,0,0,0,,2,,,74,127
67572,note_on,2,0,0,,2,,,74,127
67572,note_on,0,0,0,,7,,,55,127
67730,note_off,158,0,0,,2,,,74,127
67732,note_on,2,0,0,,1,,,73,127
67890,note_off,158,0,0,,1,,,73,127
67890,note_off,0,0,0,,7,,,55,127
67892,note_on,2,0,0,,4,,,76,127
67892,note_on,0,0,0,,7,,,55,127
67892,note_on,0,0,0,,4,,,64,127
68050,note_off,158,0,0,,4,,,76,127
68052,note_on,2,0,0,,2,,,74,127
68210,note_off,158,0,0,,2,,,74,127
68210,note_off,0,0,0,,4,,,64,127
68210,note_off,0,0,0,,7,,,55,127
68212,note_on,2,0,0,,1,,,73,127
68212,note_on,0,0,0,,7,,,55,127
68212,note_on,0,0,0,,4,,,64,127
68530,note_off,318,0,0,,4,,,64,127
68530,note_off,0,0,0,,7,,,55,127
68530,note_off,0,0,0,,1,,,73,127
68532,note_on,2,0,0,,12,,,71,127
68532,note_on,0,0,0,,7,,,55,127
68532,note_on,0,0,0,,4,,,64,127
68850,note_off,318,0,0,,4,,,64,127
68850,note_off,0,0,0,,7,,,55,127
68850,note_off,0,0,0,,12,,,71,127
68852,note_on,2,0,0,,11,,,70,127
68852,note_on,0,0,0,,6,,,54,127
68852,note_on,0,0,0,,4,,,64,127
68905,note_off,53,0,0,,11,,,70,127
68905,note_on,0,0,0,,12,,,71,127
68958,note_off,53,0,0,,12,,,71,127
68958,note_on,0,0,0,,11,,,70,127
69170,note_off,212,0,0,,4,,,64,127
69170,note_off,0,0,0,,6,,,54,127
69172,note_on,2,0,0,,4,,,64,127
69172,note_on,0,0,0,,6,,,54,127
69324,note_off,152,0,0,,11,,,70,127
69332,note_on,8,0,0,,11,,,70,127
69490,note_off,158,0,0,,11,,,70,127
69490,note_off,0,0,0,,6,,,54,127
69490,note_off,0,0,0,,4,,,64,127
69492,note_on,2,0,0,,1,,,73,127
69492,note_on,0,0,0,,2,,,62,127
69492,note_on,0,0,0,,6,,,54,127
69545,note_off,53,0,0,,1,,,73,127
69545,note_on,0,0,0,,12,,,71,127
69598,note_off,53,0,0,,12,,,71,127
69598,note_on,0,0,0,,1,,,73,127
69651,note_off,53,0,0,,1,,,73,127
69651,note_on,0,0,0,,12,,,71,127
69809,note_off,158,0,0,,6,,,54,127
69809,note_off,0,0,0,,2,,,62,127
69811,note_on,2,0,0,,6,,,54,127
69811,note_on,0,0,0,,2,,,62,127
69969,note_off,158,0,0,,12,,,71,127
69971,note_on,2,0,0,,12,,,71,127
70129,note_off,158,0,0,,12,,,71,127
70129,note_off,0,0,0,,2,,,62,127
70129,note_off,0,0,0,,6,,,54,127
70131,note_on,2,0,0,,2,,,74,127
70131,note_on,0,0,0,,4,,,64,127
70131,note_on,0,0,0,,1,,,61,127
70131,note_on,0,0,0,,6,,,54,127
70184,note_off,53,0,0,,2,,,74,127
70184,note_on,0,0,0,,1,,,73,127
70237,note_off,53,0,0,,1,,,73,127
70237,note_on,0,0,0,,2,,,74,127
70290,note_off,53,0,0,,2,,,74,127
70290,note_on,0,0,0,,1,,,73,127
70448,note_off,158,0,0,,6,,,54,127
70448,note_off,0,0,0,,1,,,61,127
70448,note_off,0,0,0,,4,,,64,127
70450,note_on,2,0,0,,6,,,54,127
70450,note_on,0,0,0,,1,,,61,127
70450,note_on,0,0,0,,4,,,64,127
70608,note_off,158,0,0,,1,,,73,127
70610,note_on,2,0,0,,1,,,73,127
70768,note_off,158,0,0,,1,,,73,127
70768,note_off,0,0,0,,4,,,64,127
70768,note_off,0,0,0,,1,,,61,127
70768,note_off,0,0,0,,6,,,54,127
70770,note_on,2,0,0,,4,,,76,127
70770,note_on,0,0,0,,2,,,62,127
70770,note_on,0,0,0,,12,,,59,127
70770,note_on,0,0,0,,6,,,54,127
70823,note_off,53,0,0,,4,,,76,127
70823,note_on,0,0,0,,2,,,74,127
70876,note_off,53,0,0,,2,,,74,127
70876,note_on,0,0,0,,4,,,76,127
70929,note_off,53,0,0,,4,,,76,127
70929,note_on,0,0,0,,2,,,74,127
71087,note_off,158,0,0,,6,,,54,127
71087,note_off,0,0,0,,12,,,59,127
71087,note_off,0,0,0,,2,,,62,127
71089,note_on,2,0,0,,2,,,62,127
71089,note_on,0,0,0,,12,,,59,127
71089,note_on,0,0,0,,6,,,54,127
71247,note_off,158,0,0,,2,,,74,127
71249,note_on,2,0,0,,12,,,71,127
71407,note_off,158,0,0,,12,,,71,127
71407,note_off,0,0,0,,6,,,54,127
71407,note_off,0,0,0,,12,,,59,127
71407,note_off,0,0,0,,2,,,62,127
71409,note_on,2,0,0,,2,,,74,127
71409,note_on,0,0,0,,4,,,64,127
71409,note_on,0,0,0,,1,,,61,127
71409,note_on,0,0,0,,6,,,54,127
71462,note_off,53,0,0,,2,,,74,127
71462,note_on,0,0,0,,1,,,73,127
71515,note_off,53,0,0,,1,,,73,127
71515,note_on,0,0,0,,2,,,74,127
71568,note_off,53,0,0,,2,,,74,127
71568,note_on,0,0,0,,1,,,73,127
71726,note_off,158,0,0,,6,,,54,127
71726,note_off,0,0,0,,1,,,61,127
71726,note_off,0,0,0,,4,,,64,127
71728,note_on,2,0,0,,6,,,54,127
71728,note_on,0,0,0,,1,,,61,127
71728,note_on,0,0,0,,4,,,64,127
71886,note_off,158,0,0,,1,,,73,127
71888,note_on,2,0,0,,1,,,73,127
72046,note_off,158,0,0,,1,,,73,127
72046,note_off,0,0,0,,4,,,64,127
72046,note_off,0,0,0,,1,,,61,127
72046,note_off,0,0,0,,6,,,54,127
72048,note_on,2,0,0,,4,,,76,127
72048,note_on,0,0,0,,12,,,59,127
72048,note_on,0,0,0,,2,,,62,127
72048,note_on,0,0,0,,6,,,54,127
72101,note_off,53,0,0,,4,,,76,127
72101,note_on,0,0,0,,2,,,74,127
72154,note_off,53,0,0,,2,,,74,127
72154,note_on,0,0,0,,4,,,76,127
72207,note_off,53,0,0,,4,,,76,127
72207,note_on,0,0,0,,2,,,74,127
72365,note_off,158,0,0,,6,,,54,127
72365,note_off,0,0,0,,2,,,62,127
72365,note_off,0,0,0,,12,,,59,127
72367,note_on,2,0,0,,12,,,59,127
72367,note_on,0,0,0,,2,,,62,127
72367,note_on,0,0,0,,6,,,54,127
72525,note_off,158,0,0,,2,,,74,127
72527,note_on,2,0,0,,12,,,71,127
72685,note_off,158,0,0,,12,,,71,127
72685,note_off,0,0,0,,6,,,54,127
72685,note_off,0,0,0,,2,,,62,127
72685,note_off,0,0,0,,12,,,59,127
72687,note_on,2,0,0,,12,,,71,127
72687,note_on,0,0,0,,6,,,42,127
73005,note_off,318,0,0,,12,,,71,127
73007,note_on,2,0,0,,1,,,73,127
73487,note_off,480,0,0,,1,,,73,127
73647,note_on,160,0,0,,1,,,73,127
73965,note_off,318,0,0,,1,,,73,127
73965,note_off,0,0,0,,6,,,42,127
73967,note_on,2,0,0,,6,,,78,127
73967,note_on,0,0,0,,6,,,42,127
74125,note_off,158,0,0,,6,,,42,127
74127,note_on,2,0,0,,11,,,46,127
74285,note_off,158,0,0,,11,,,46,127
74287,note_on,2,0,0,,1,,,73,127
74287,note_on,0,0,0,,1,,,49,127
74367,note_off,80,0,0,,6,,,78,127
74445,note_off,78,0,0,,1,,,49,127
74447,note_on,2,0,0,,6,,,54,127
74605,note_off,158,0,0,,6,,,54,127
74605,note_off,0,0,0,,1,,,73,127
74607,note_on,2,0,0,,1,,,73,127
74607,note_on,0,0,0,,11,,,58,127
74765,note_off,158,0,0,,11,,,58,127
74767,note_on,2,0,0,,1,,,61,127
74925,note_off,158,0,0,,1,,,61,127
74925,note_off,0,0,0,,1,,,73,127
74927,note_on,2,0,0,,1,,,73,127
74927,note_on,0,0,0,,6,,,66,127
75085,note_off,158,0,0,,6,,,66,127
75087,note_on,2,0,0,,1,,,61,127
75245,note_off,158,0,0,,1,,,61,127
75245,note_off,0,0,0,,1,,,73,127
75247,note_on,2,0,0,,6,,,78,127
75247,note_on,0,0,0,,6,,,42,127
75405,note_off,158,0,0,,6,,,42,127
75407,note_on,2,0,0,,11,,,46,127
75565,note_off,158,0,0,,11,,,46,127
75567,note_on,2,0,0,,1,,,73,127
75567,note_on,0,0,0,,1,,,49,127
75647,note_off,80,0,0,,6,,,78,127
75725,note_off,78,0,0,,1,,,49,127
75727,note_on,2,0,0,,6,,,54,127
75885,note_off,158,0,0,,6,,,54,127
75885,note_off,0,0,0,,1,,,73,127
75887,note_on,2,0,0,,1,,,73,127
75887,note_on,0,0,0,,11,,,58,127
76045,note_off,158,0,0,,11,,,58,127
76047,note_on,2,0,0,,1,,,61,127
76205,note_off,158,0,0,,1,,,61,127
76205,note_off,0,0,0,,1,,,73,127
76207,note_on,2,0,0,,1,,,73,127
76207,note_on,0,0,0,,6,,,66,127
76365,note_off,158,0,0,,6,,,66,127
76367,note_on,2,0,0,,1,,,61,127
76525,note_off,158,0,0,,1,,,61,127
76525,note_off,0,0,0,,1,,,73,127
76527,note_on,2,0,0,,6,,,78,127
76527,note_on,0,0,0,,6,,,42,127
76685,note_off,158,0,0,,6,,,42,127
76687,note_on,2,0,0,,11,,,46,127
76845,note_off,158,0,0,,11,,,46,127
76847,note_on,2,0,0,,1,,,73,127
76847,note_on,0,0,0,,1,,,49,127
76927,note_off,80,0,0,,6,,,78,127
77005,note_off,78,0,0,,1,,,49,127
77007,note_on,2,0,0,,6,,,54,127
77165,note_off,158,0,0,,6,,,54,127
77165,note_off,0,0,0,,1,,,73,127
77167,note_on,2,0,0,,1,,,73,127
77167,note_on,0,0,0,,11,,,58,127
77325,note_off,158,0,0,,11,,,58,127
77327,note_on,2,0,0,,1,,,61,127
77485,note_off,158,0,0,,1,,,61,127
77485,note_off,0,0,0,,1,,,73,127
77487,note_on,2,0,0,,1,,,73,127
77487,note_on,0,0,0,,6,,,66,127
77645,note_off,158,0,0,,6,,,66,127
77647,note_on,2,0,0,,1,,,61,127
77805,note_off,158,0,0,,1,,,61,127
77805,note_off,0,0,0,,1,,,73,127
77807,note_on,2,0,0,,11,,,82,127
77807,note_on,0,0,0,,11,,,70,127
77807,note_on,0,0,0,,4,,,40,127
77807,note_on,0,0,0,,4,,,52,127
78125,note_off,318,0,0,,4,,,52,127
78125,note_off,0,0,0,,4,,,40,127
78125,note_off,0,0,0,,11,,,70,127
78125,note_off,0,0,0,,11,,,82,127
78127,note_on,2,0,0,,12,,,83,127
78127,note_on,0,0,0,,12,,,71,127
78127,note_on,0,0,0,,2,,,38,127
78127,note_on,0,0,0,,2,,,50,127
78445,note_off,318,0,0,,2,,,50,127
78445,note_off,0,0,0,,2,,,38,127
78445,note_off,0,0,0,,12,,,71,127
78447,note_on,2,0,0,,12,,,71,127
78447,note_on,0,0,0,,2,,,50,127
78447,note_on,0,0,0,,2,,,38,127
78765,note_off,318,0,0,,2,,,38,127
78765,note_off,0,0,0,,2,,,50,127
78765,note_off,0,0,0,,12,,,83,127
78767,note_on,2,0,0,,10,,,81,127
78767,note_on,0,0,0,,2,,,50,127
78767,note_on,0,0,0,,2,,,38,127
79085,note_off,318,0,0,,2,,,38,127
79085,note_off,0,0,0,,2,,,50,127
79085,note_off,0,0,0,,10,,,81,127
79087,note_off,2,0,0,,12,,,71,127
79087,note_on,0,0,0,,7,,,79,127
79087,note_on,0,0,0,,4,,,52,127
79087,note_on,0,0,0,,4,,,40,127
79192,note_off,105,0,0,,7,,,79,127
79194,note_on,2,0,0,,6,,,78,127
79299,note_off,105,0,0,,6,,,78,127
79301,note_on,2,0,0,,4,,,76,127
79406,note_off,105,0,0,,4,,,76,127
79406,note_off,0,0,0,,4,,,40,127
79406,note_off,0,0,0,,4,,,52,127
79408,note_on,2,0,0,,2,,,74,127
79408,note_on,0,0,0,,4,,,52,127
79408,note_on,0,0,0,,4,,,40,127
79513,note_off,105,0,0,,2,,,74,127
79515,note_on,2,0,0,,1,,,73,127
79620,note_off,105,0,0,,1,,,73,127
79622,note_on,2,0,0,,12,,,71,127
79727,note_off,105,0,0,,12,,,71,127
79727,note_off,0,0,0,,4,,,40,127
79727,note_off,0,0,0,,4,,,52,127
79729,note_on,2,0,0,,2,,,74,127
79729,note_on,0,0,0,,12,,,71,127
79729,note_on,0,0,0,,6,,,54,127
79729,note_on,0,0,0,,6,,,42,127
80047,note_off,318,0,0,,6,,,42,127
80047,note_off,0,0,0,,6,,,54,127
80047,note_off,0,0,0,,12,,,71,127
80047,note_off,0,0,0,,2,,,74,127
80049,note_on,2,0,0,,1,,,73,127
80049,note_on,0,0,0,,11,,,70,127
80049,note_on,0,0,0,,6,,,42,127
80049,note_on,0,0,0,,6,,,54,127
80367,note_off,318,0,0,,6,,,54,127
80367,note_off,0,0,0,,6,,,42,127
80367,note_off,0,0,0,,11,,,70,127
80367,note_off,0,0,0,,1,,,73,127
80369,note_on,2,0,0,,12,,,71,127
80369,note_on,0,0,0,,7,,,55,127
80794,note_off,425,0,0,,12,,,71,127
80796,note_on,2,0,0,,1,,,73,127
80901,note_off,105,0,0,,1,,,73,127
80903,note_on,2,0,0,,2,,,74,127
81008,note_off,105,0,0,,2,,,74,127
81010,note_on,2,0,0,,4,,,76,127
81115,note_off,105,0,0,,4,,,76,127
81117,note_on,2,0,0,,2,,,74,127
81222,note_off,105,0,0,,2,,,74,127
81224,note_on,2,0,0,,4,,,76,127
81329,note_off,105,0,0,,4,,,76,127
81331,note_on,2,0,0,,2,,,74,127
81436,note_off,105,0,0,,2,,,74,127
81438,note_on,2,0,0,,1,,,73,127
81543,note_off,105,0,0,,1,,,73,127
81545,note_on,2,0,0,,12,,,71,127
81650,note_off,105,0,0,,12,,,71,127
81650,note_off,0,0,0,,7,,,55,127
81652,note_on,2,0,0,,6,,,78,127
81652,note_on,0,0,0,,6,,,42,127
81810,note_off,158,0,0,,6,,,42,127
81812,note_on,2,0,0,,11,,,46,127
81970,note_off,158,0,0,,11,,,46,127
81972,note_on,2,0,0,,1,,,73,127
81972,note_on,0,0,0,,1,,,49,127
82052,note_off,80,0,0,,6,,,78,127
82130,note_off,78,0,0,,1,,,49,127
82132,note_on,2,0,0,,6,,,54,127
82290,note_off,158,0,0,,6,,,54,127
82290,note_off,0,0,0,,1,,,73,127
82292,note_on,2,0,0,,1,,,73,127
82292,note_on,0,0,0,,11,,,58,127
82450,note_off,158,0,0,,11,,,58,127
82452,note_on,2,0,0,,1,,,61,127
82610,note_off,158,0,0,,1,,,61,127
82610,note_off,0,0,0,,1,,,73,127
82612,note_on,2,0,0,,1,,,73,127
82612,note_on,0,0,0,,6,,,66,127
82770,note_off,158,0,0,,6,,,66,127
82772,note_on,2,0,0,,1,,,61,127
82930,note_off,158,0,0,,1,,,61,127
82930,note_off,0,0,0,,1,,,73,127
82932,note_on,2,0,0,,6,,,78,127
82932,note_on,0,0,0,,6,,,42,127
83090,note_off,158,0,0,,6,,,42,127
83092,note_on,2,0,0,,11,,,46,127
83250,note_off,158,0,0,,11,,,46,127
83252,note_on,2,0,0,,1,,,73,127
83252,note_on,0,0,0,,1,,,49,127
83332,note_off,80,0,0,,6,,,78,127
83410,note_off,78,0,0,,1,,,49,127
83412,note_on,2,0,0,,6,,,54,127
83570,note_off,158,0,0,,6,,,54,127
83570,note_off,0,0,0,,1,,,73,127
83572,note_on,2,0,0,,1,,,73,127
83572,note_on,0,0,0,,11,,,58,127
83730,note_off,158,0,0,,11,,,58,127
83732,note_on,2,0,0,,1,,,61,127
83890,note_off,158,0,0,,1,,,61,127
83890,note_off,0,0,0,,1,,,73,127
83892,note_on,2,0,0,,1,,,73,127
83892,note_on,0,0,0,,6,,,66,127
84050,note_off,158,0,0,,6,,,66,127
84052,note_on,2,0,0,,1,,,61,127
84210,note_off,158,0,0,,1,,,61,127
84210,note_off,0,0,0,,1,,,73,127
84212,note_on,2,0,0,,11,,,82,127
84212,note_on,0,0,0,,11,,,70,127
84212,note_on,0,0,0,,4,,,40,127
84212,note_on,0,0,0,,4,,,52,127
84530,note_off,318,0,0,,4,,,52,127
84530,note_off,0,0,0,,4,,,40,127
84530,note_off,0,0,0,,11,,,70,127
84530,note_off,0,0,0,,11,,,82,127
84532,note_on,2,0,0,,12,,,71,127
84532,note_on,0,0,0,,12,,,83,127
84532,note_on,0,0,0,,2,,,50,127
84532,note_on,0,0,0,,2,,,38,127
84850,note_off,318,0,0,,2,,,38,127
84850,note_off,0,0,0,,2,,,50,127
84850,note_off,0,0,0,,12,,,71,127
84852,note_on,2,0,0,,12,,,71,127
84852,note_on,0,0,0,,2,,,50,127
84852,note_on,0,0,0,,2,,,38,127
85170,note_off,318,0,0,,2,,,38,127
85170,note_off,0,0,0,,2,,,50,127
85172,note_off,2,0,0,,12,,,83,127
85172,note_on,0,0,0,,10,,,81,127
85172,note_on,0,0,0,,2,,,50,127
85172,note_on,0,0,0,,2,,,38,127
85490,note_off,318,0,0,,2,,,38,127
85490,note_off,0,0,0,,2,,,50,127
85490,note_off,0,0,0,,10,,,81,127
85492,note_off,2,0,0,,12,,,71,127
85492,note_on,0,0,0,,7,,,79,127
85492,note_on,0,0,0,,4,,,52,127
85492,note_on,0,0,0,,4,,,40,127
85597,note_off,105,0,0,,7,,,79,127
85599,note_on,2,0,0,,6,,,78,127
85704,note_off,105,0,0,,6,,,78,127
85706,note_on,2,0,0,,4,,,76,127
85811,note_off,105,0,0,,4,,,76,127
85811,note_off,0,0,0,,4,,,40,127
85811,note_off,0,0,0,,4,,,52,127
85813,note_on,2,0,0,,2,,,74,127
85813,note_on,0,0,0,,4,,,40,127
85813,note_on,0,0,0,,4,,,52,127
85918,note_off,105,0,0,,2,,,74,127
85920,note_on,2,0,0,,1,,,73,127
86025,note_off,105,0,0,,1,,,73,127
86027,note_on,2,0,0,,12,,,71,127
86132,note_off,105,0,0,,12,,,71,127
86132,note_off,0,0,0,,4,,,52,127
86132,note_off,0,0,0,,4,,,40,127
86134,note_on,2,0,0,,2,,,74,127
86134,note_on,0,0,0,,12,,,71,127
86134,note_on,0,0,0,,6,,,42,127
86134,note_on,0,0,0,,6,,,54,127
86452,note_off,318,0,0,,6,,,54,127
86452,note_off,0,0,0,,6,,,42,127
86452,note_off,0,0,0,,12,,,71,127
86452,note_off,0,0,0,,2,,,74,127
86454,note_on,2,0,0,,1,,,73,127
86454,note_on,0,0,0,,11,,,70,127
86454,note_on,0,0,0,,6,,,54,127
86454,note_on,0,0,0,,6,,,42,127
86772,note_off,318,0,0,,6,,,42,127
86772,note_off,0,0,0,,6,,,54,127
86772,note_off,0,0,0,,11,,,70,127
86772,note_off,0,0,0,,1,,,73,127
86774,note_on,2,0,0,,12,,,71,127
86774,note_on,0,0,0,,7,,,43,127
86774,note_on,0,0,0,,7,,,55,127
87092,note_off,318,0,0,,7,,,55,127
87092,note_off,0,0,0,,7,,,43,127
87092,note_off,0,0,0,,12,,,71,127
87094,note_on,2,0,0,,12,,,83,127
87094,note_on,0,0,0,,7,,,67,127
87094,note_on,0,0,0,,12,,,71,127
87412,note_off,318,0,0,,12,,,71,127
87412,note_off,0,0,0,,7,,,67,127
87412,note_off,0,0,0,,12,,,83,127
87414,note_on,2,0,0,,7,,,79,127
87414,note_on,0,0,0,,7,,,67,127
87414,note_on,0,0,0,,12,,,71,127
87519,note_off,105,0,0,,7,,,79,127
87521,note_on,2,0,0,,6,,,78,127
87626,note_off,105,0,0,,6,,,78,127
87628,note_on,2,0,0,,4,,,76,127
87733,note_off,105,0,0,,4,,,76,127
87733,note_off,0,0,0,,12,,,71,127
87733,note_off,0,0,0,,7,,,67,127
87735,note_on,2,0,0,,4,,,76,127
87735,note_on,0,0,0,,7,,,67,127
87735,note_on,0,0,0,,12,,,71,127
88053,note_off,318,0,0,,12,,,71,127
88053,note_off,0,0,0,,7,,,67,127
88055,note_on,2,0,0,,11,,,70,127
88055,note_on,0,0,0,,6,,,66,127
88373,note_off,318,0,0,,6,,,66,127
88373,note_off,0,0,0,,11,,,70,127
88373,note_off,0,0,0,,4,,,76,127
88375,note_on,2,0,0,,12,,,83,127
88375,note_on,0,0,0,,7,,,67,127
88375,note_on,0,0,0,,12,,,71,127
88693,note_off,318,0,0,,12,,,71,127
88693,note_off,0,0,0,,7,,,67,127
88693,note_off,0,0,0,,12,,,83,127
88695,note_on,2,0,0,,7,,,79,127
88695,note_on,0,0,0,,12,,,71,127
88695,note_on,0,0,0,,7,,,67,127
88800,note_off,105,0,0,,7,,,79,127
88802,note_on,2,0,0,,6,,,78,127
88907,note_off,105,0,0,,6,,,78,127
88909,note_on,2,0,0,,4,,,76,127
89014,note_off,105,0,0,,4,,,76,127
89014,note_off,0,0,0,,7,,,67,127
89014,note_off,0,0,0,,12,,,71,127
89016,note_on,2,0,0,,4,,,76,127
89016,note_on,0,0,0,,7,,,67,127
89016,note_on,0,0,0,,12,,,71,127
89334,note_off,318,0,0,,12,,,71,127
89334,note_off,0,0,0,,7,,,67,127
89336,note_on,2,0,0,,6,,,66,127
89336,note_on,0,0,0,,11,,,70,127
89654,note_off,318,0,0,,11,,,70,127
89654,note_off,0,0,0,,6,,,66,127
89654,note_off,0,0,0,,4,,,76,127
89656,note_on,2,0,0,,2,,,74,127
89656,note_on,0,0,0,,7,,,67,127
89656,note_on,0,0,0,,12,,,71,127
89761,note_off,105,0,0,,2,,,74,127
89763,note_on,2,0,0,,1,,,73,127
89866,note_off,103,0,0,,12,,,71,127
89868,note_off,2,0,0,,1,,,73,127
89870,note_on,2,0,0,,12,,,71,127
89975,note_off,105,0,0,,12,,,71,127
89975,note_off,0,0,0,,7,,,67,127
89977,note_on,2,0,0,,2,,,74,127
89977,note_on,0,0,0,,12,,,71,127
89977,note_on,0,0,0,,6,,,66,127
90295,note_off,318,0,0,,6,,,66,127
90295,note_off,0,0,0,,12,,,71,127
90295,note_off,0,0,0,,2,,,74,127
90297,note_on,2,0,0,,1,,,73,127
90297,note_on,0,0,0,,11,,,70,127
90297,note_on,0,0,0,,6,,,66,127
90615,note_off,318,0,0,,6,,,66,127
90615,note_off,0,0,0,,11,,,70,127
90617,note_off,2,0,0,,1,,,73,127
90617,note_on,0,0,0,,12,,,71,127
90617,note_on,0,0,0,,7,,,67,127
90935,note_off,318,0,0,,7,,,67,127
90935,note_off,0,0,0,,12,,,71,127
90937,note_on,2,0,0,,12,,,71,127
90937,note_on,0,0,0,,7,,,55,127
90937,note_on,0,0,0,,12,,,59,127
91255,note_off,318,0,0,,12,,,59,127
91255,note_off,0,0,0,,7,,,55,127
91255,note_off,0,0,0,,12,,,71,127
91257,note_on,2,0,0,,7,,,67,127
91257,note_on,0,0,0,,7,,,55,127
91257,note_on,0,0,0,,12,,,59,127
91362,note_off,105,0,0,,7,,,67,127
91364,note_on,2,0,0,,6,,,66,127
91469,note_off,105,0,0,,6,,,66,127
91471,note_on,2,0,0,,4,,,64,127
91576,note_off,105,0,0,,4,,,64,127
91576,note_off,0,0,0,,12,,,59,127
91576,note_off,0,0,0,,7,,,55,127
91578,note_on,2,0,0,,4,,,64,127
91578,note_on,0,0,0,,7,,,55,127
91578,note_on,0,0,0,,12,,,59,127
91896,note_off,318,0,0,,12,,,59,127
91896,note_off,0,0,0,,7,,,55,127
91898,note_on,2,0,0,,11,,,58,127
91898,note_on,0,0,0,,6,,,54,127
92216,note_off,318,0,0,,6,,,54,127
92216,note_off,0,0,0,,11,,,58,127
92216,note_off,0,0,0,,4,,,64,127
92218,note_on,2,0,0,,12,,,71,127
92218,note_on,0,0,0,,7,,,55,127
92218,note_on,0,0,0,,12,,,59,127
92536,note_off,318,0,0,,12,,,59,127
92536,note_off,0,0,0,,7,,,55,127
92536,note_off,0,0,0,,12,,,71,127
92538,note_on,2,0,0,,7,,,67,127
92538,note_on,0,0,0,,7,,,55,127
92538,note_on,0,0,0,,12,,,59,127
92643,note_off,105,0,0,,7,,,67,127
92645,note_on,2,0,0,,6,,,66,127
92750,note_off,105,0,0,,6,,,66,127
92752,note_on,2,0,0,,4,,,64,127
92857,note_off,105,0,0,,4,,,64,127
92857,note_off,0,0,0,,12,,,59,127
92857,note_off,0,0,0,,7,,,55,127
92859,note_on,2,0,0,,4,,,64,127
92859,note_on,0,0,0,,12,,,59,127
92859,note_on,0,0,0,,7,,,55,127
93177,note_off,318,0,0,,7,,,55,127
93177,note_off,0,0,0,,12,,,59,127
93179,note_on,2,0,0,,6,,,54,127
93179,note_on,0,0,0,,11,,,58,127
93497,note_off,318,0,0,,11,,,58,127
93497,note_off,0,0,0,,6,,,54,127
93497,note_off,0,0,0,,4,,,64,127
93499,note_on,2,0,0,,2,,,62,127
93499,note_on,0,0,0,,7,,,55,127
93604,note_off,105,0,0,,2,,,62,127
93606,note_on,2,0,0,,1,,,61,127
93711,note_off,105,0,0,,1,,,61,127
93713,note_on,2,0,0,,12,,,59,127
93818,note_off,105,0,0,,12,,,59,127
93818,note_off,0,0,0,,7,,,55,127
93820,note_on,2,0,0,,12,,,59,127
93820,note_on,0,0,0,,2,,,62,127
93820,note_on,0,0,0,,6,,,54,127
94138,note_off,318,0,0,,6,,,54,127
94138,note_off,0,0,0,,2,,,62,127
94138,note_off,0,0,0,,12,,,59,127
94140,note_on,2,0,0,,11,,,58,127
94140,note_on,0,0,0,,1,,,61,127
94140,note_on,0,0,0,,6,,,54,127
94458,note_off,318,0,0,,6,,,54,127
94458,note_off,0,0,0,,1,,,61,127
94458,note_off,0,0,0,,11,,,58,127
94460,note_on,2,0,0,,12,,,59,127
94460,note_on,0,0,0,,12,,,47,127
94778,note_off,318,0,0,,12,,,47,127
94778,note_off,0,0,0,,12,,,59,127
94780,note_on,2,0,0,,12,,,83,127
94780,note_on,0,0,0,,12,,,59,127
94780,note_on,0,0,0,,2,,,62,127
95098,note_off,318,0,0,,12,,,83,127
95100,note_on,2,0,0,,10,,,81,127
95205,note_off,105,0,0,,10,,,81,127
95207,note_on,2,0,0,,12,,,83,127
95312,note_off,105,0,0,,12,,,83,127
95314,note_on,2,0,0,,7,,,79,127
95419,note_off,105,0,0,,7,,,79,127
95419,note_off,0,0,0,,2,,,62,127
95419,note_off,0,0,0,,12,,,59,127
95421,note_on,2,0,0,,6,,,78,127
95421,note_on,0,0,0,,4,,,64,127
95421,note_on,0,0,0,,1,,,61,127
95526,note_off,105,0,0,,6,,,78,127
95528,note_on,2,0,0,,7,,,79,127
95633,note_off,105,0,0,,7,,,79,127
95635,note_on,2,0,0,,4,,,76,127
95740,note_off,105,0,0,,4,,,76,127
95740,note_off,0,0,0,,1,,,61,127
95740,note_off,0,0,0,,4,,,64,127
95742,note_on,2,0,0,,2,,,74,127
95742,note_on,0,0,0,,2,,,62,127
95742,note_on,0,0,0,,6,,,66,127
95847,note_off,105,0,0,,2,,,74,127
95849,note_on,2,0,0,,4,,,76,127
95954,note_off,105,0,0,,4,,,76,127
95956,note_on,2,0,0,,1,,,73,127
96061,note_off,105,0,0,,1,,,73,127
96061,note_off,0,0,0,,6,,,66,127
96061,note_off,0,0,0,,2,,,62,127
96063,note_on,2,0,0,,12,,,71,127
96063,note_on,0,0,0,,7,,,67,127
96063,note_on,0,0,0,,4,,,64,127
96221,note_off,158,0,0,,12,,,71,127
96223,note_on,2,0,0,,1,,,73,127
96381,note_off,158,0,0,,1,,,73,127
96381,note_off,0,0,0,,4,,,64,127
96381,note_off,0,0,0,,7,,,67,127
96383,note_on,2,0,0,,12,,,71,127
96383,note_on,0,0,0,,2,,,74,127
96383,note_on,0,0,0,,6,,,66,127
96701,note_off,318,0,0,,6,,,66,127
96701,note_off,0,0,0,,2,,,74,127
96701,note_off,0,0,0,,12,,,71,127
96703,note_on,2,0,0,,11,,,70,127
96703,note_on,0,0,0,,1,,,73,127
96703,note_on,0,0,0,,6,,,54,127
97021,note_off,318,0,0,,6,,,54,127
97021,note_off,0,0,0,,1,,,73,127
97021,note_off,0,0,0,,11,,,70,127
97023,note_on,2,0,0,,12,,,71,127
97023,note_on,0,0,0,,12,,,47,127
97341,note_off,318,0,0,,12,,,47,127
97341,note_off,0,0,0,,12,,,71,127
97343,note_on,2,0,0,,12,,,71,127
97343,note_on,0,0,0,,12,,,59,127
97661,note_off,318,0,0,,12,,,59,127
97661,note_off,0,0,0,,12,,,71,127
97663,note_on,2,0,0,,10,,,69,127
97663,note_on,0,0,0,,10,,,57,127
97768,note_off,105,0,0,,10,,,57,127
97768,note_off,0,0,0,,10,,,69,127
97770,note_on,2,0,0,,12,,,71,127
97770,note_on,0,0,0,,12,,,59,127
97875,note_off,105,0,0,,12,,,59,127
97875,note_off,0,0,0,,12,,,71,127
97877,note_on,2,0,0,,7,,,67,127
97877,note_on,0,0,0,,7,,,55,127
97982,note_off,105,0,0,,7,,,55,127
97982,note_off,0,0,0,,7,,,67,127
97984,note_on,2,0,0,,6,,,66,127
97984,note_on,0,0,0,,6,,,54,127
98089,note_off,105,0,0,,6,,,54,127
98089,note_off,0,0,0,,6,,,66,127
98091,note_on,2,0,0,,7,,,67,127
98091,note_on,0,0,0,,7,,,55,127
98196,note_off,105,0,0,,7,,,55,127
98196,note_off,0,0,0,,7,,,67,127
98198,note_on,2,0,0,,4,,,64,127
98198,note_on,0,0,0,,4,,,52,127
98303,note_off,105,0,0,,4,,,52,127
98303,note_off,0,0,0,,4,,,64,127
98305,note_on,2,0,0,,2,,,62,127
98305,note_on,0,0,0,,2,,,50,127
98410,note_off,105,0,0,,2,,,50,127
98410,note_off,0,0,0,,2,,,62,127
98412,note_on,2,0,0,,4,,,64,127
98412,note_on,0,0,0,,4,,,52,127
98517,note_off,105,0,0,,4,,,52,127
98517,note_off,0,0,0,,4,,,64,127
98519,note_on,2,0,0,,1,,,61,127
98519,note_on,0,0,0,,1,,,49,127
98624,note_off,105,0,0,,1,,,49,127
98624,note_off,0,0,0,,1,,,61,127
98626,note_on,2,0,0,,12,,,59,127
98626,note_on,0,0,0,,12,,,47,127
98784,note_off,158,0,0,,12,,,59,127
98786,note_on,2,0,0,,1,,,61,127
98944,note_off,158,0,0,,1,,,61,127
98944,note_off,0,0,0,,12,,,47,127
98946,note_on,2,0,0,,12,,,59,127
98946,note_on,0,0,0,,2,,,62,127
98946,note_on,0,0,0,,6,,,42,127
99264,note_off,318,0,0,,6,,,42,127
99264,note_off,0,0,0,,2,,,62,127
99264,note_off,0,0,0,,12,,,59,127
99266,note_on,2,0,0,,11,,,58,127
99266,note_on,0,0,0,,1,,,61,127
99266,note_on,0,0,0,,6,,,42,127
99584,note_off,318,0,0,,6,,,42,127
99584,note_off,0,0,0,,1,,,61,127
99584,note_off,0,0,0,,11,,,58,127
99586,note_on,2,0,0,,12,,,59,127
99586,note_on,0,0,0,,12,,,47,127
99904,note_off,318,0,0,,12,,,47,127
99904,note_off,0,0,0,,12,,,59,127
99906,note_on,2,0,0,,12,,,71,127
99906,note_on,0,0,0,,12,,,59,127
100224,note_off,318,0,0,,12,,,59,127
100224,note_off,0,0,0,,12,,,71,127
100226,note_on,2,0,0,,10,,,69,127
100226,note_on,0,0,0,,10,,,57,127
100331,note_off,105,0,0,,10,,,57,127
100331,note_off,0,0,0,,10,,,69,127
100333,note_on,2,0,0,,12,,,71,127
100333,note_on,0,0,0,,12,,,59,127
100438,note_off,105,0,0,,12,,,59,127
100438,note_off,0,0,0,,12,,,71,127
100440,note_on,2,0,0,,7,,,67,127
100440,note_on,0,0,0,,7,,,55,127
100545,note_off,105,0,0,,7,,,55,127
100545,note_off,0,0,0,,7,,,67,127
100547,note_on,2,0,0,,6,,,66,127
100547,note_on,0,0,0,,6,,,54,127
100652,note_off,105,0,0,,6,,,54,127
100652,note_off,0,0,0,,6,,,66,127
100654,note_on,2,0,0,,7,,,67,127
100654,note_on,0,0,0,,7,,,55,127
100759,note_off,105,0,0,,7,,,55,127
100759,note_off,0,0,0,,7,,,67,127
100761,note_on,2,0,0,,4,,,64,127
100761,note_on,0,0,0,,4,,,52,127
100866,note_off,105,0,0,,4,,,52,127
100866,note_off,0,0,0,,4,,,64,127
100868,note_on,2,0,0,,2,,,62,127
100868,note_on,0,0,0,,2,,,50,127
100973,note_off,105,0,0,,2,,,62,127
100975,note_on,2,0,0,,4,,,64,127
101080,note_off,105,0,0,,4,,,64,127
101082,note_on,2,0,0,,1,,,61,127
101187,note_off,105,0,0,,1,,,61,127
101187,note_off,0,0,0,,2,,,50,127
101189,note_on,2,0,0,,12,,,59,127
101189,note_on,0,0,0,,12,,,47,127
101347,note_off,158,0,0,,12,,,59,127
101349,note_on,2,0,0,,12,,,71,127
101507,note_off,158,0,0,,12,,,71,127
101507,note_off,0,0,0,,12,,,47,127
101509,note_on,2,0,0,,12,,,59,127
101509,note_on,0,0,0,,6,,,42,127
101827,note_off,318,0,0,,6,,,42,127
101829,note_on,2,0,0,,6,,,42,127
101909,note_on,80,0,0,,11,,,58,127
101942,note_off,33,0,0,,12,,,59,127
101989,note_on,47,0,0,,12,,,59,127
102016,note_off,27,0,0,,11,,,58,127
102069,note_on,53,0,0,,11,,,58,127
102096,note_off,27,0,0,,12,,,59,127
102148,note_off,52,0,0,,11,,,58,127
102148,note_off,0,0,0,,6,,,42,127
102150,note_on,2,0,0,,12,,,59,127
102150,note_on,0,0,0,,12,,,35,127
103428,note_off,1278,0,0,,12,,,35,127
103428,note_off,0,0,0,,12,,,59,127
103430,note_on,2,0,0,,0,,,36,127
103430,note_on,0,0,0,,0,,,48,127
103750,note_on,320,0,0,,7,,,79,127
103908,note_off,158,0,0,,7,,,79,127
103910,note_on,2,0,0,,4,,,76,127
104068,note_off,158,0,0,,4,,,76,127
104070,note_on,2,0,0,,0,,,72,127
104388,note_off,318,0,0,,0,,,72,127
104390,note_on,2,0,0,,12,,,71,127
104708,note_off,318,0,0,,12,,,71,127
104708,note_off,0,0,0,,0,,,48,127
104708,note_off,0,0,0,,0,,,36,127
104710,note_on,2,0,0,,10,,,69,127
104710,note_on,0,0,0,,5,,,53,127
104710,note_on,0,0,0,,5,,,41,127
105028,note_off,318,0,0,,10,,,69,127
105030,note_on,2,0,0,,5,,,77,127
105030,note_on,0,0,0,,10,,,81,127
105348,note_off,318,0,0,,10,,,81,127
105348,note_off,0,0,0,,5,,,77,127
105348,note_off,0,0,0,,5,,,41,127
105348,note_off,0,0,0,,5,,,53,127
105350,note_on,2,0,0,,4,,,76,127
105350,note_on,0,0,0,,7,,,79,127
105350,note_on,0,0,0,,7,,,55,127
105350,note_on,0,0,0,,7,,,43,127
105668,note_off,318,0,0,,7,,,79,127
105668,note_off,0,0,0,,4,,,76,127
105670,note_on,2,0,0,,5,,,77,127
105670,note_on,0,0,0,,2,,,74,127
105988,note_off,318,0,0,,2,,,74,127
105988,note_off,0,0,0,,5,,,77,127
105990,note_on,2,0,0,,4,,,76,127
105990,note_on,0,0,0,,0,,,72,127
106308,note_off,318,0,0,,7,,,43,127
106308,note_off,0,0,0,,7,,,55,127
106310,note_on,2,0,0,,7,,,67,127
106468,note_off,158,0,0,,7,,,67,127
106470,note_on,2,0,0,,4,,,64,127
106628,note_off,158,0,0,,4,,,64,127
106630,note_on,2,0,0,,0,,,60,127
106948,note_off,318,0,0,,0,,,60,127
106948,note_off,0,0,0,,0,,,72,127
106948,note_off,0,0,0,,4,,,76,127
106950,note_on,2,0,0,,0,,,72,127
106950,note_on,0,0,0,,12,,,59,127
106950,note_on,0,0,0,,7,,,67,127
107268,note_off,318,0,0,,12,,,59,127
107270,note_on,2,0,0,,10,,,57,127
107588,note_off,318,0,0,,0,,,72,127
107590,note_off,2,0,0,,7,,,67,127
107590,note_on,0,0,0,,2,,,74,127
107590,note_on,0,0,0,,5,,,65,127
107908,note_off,318,0,0,,5,,,65,127
107908,note_off,0,0,0,,2,,,74,127
107910,note_off,2,0,0,,10,,,57,127
107910,note_on,0,0,0,,4,,,76,127
107910,note_on,0,0,0,,4,,,64,127
107910,note_on,0,0,0,,7,,,55,127
108228,note_off,318,0,0,,7,,,55,127
108228,note_off,0,0,0,,4,,,64,127
108228,note_off,0,0,0,,4,,,76,127
108230,note_on,2,0,0,,5,,,77,127
108230,note_on,0,0,0,,2,,,62,127
108230,note_on,0,0,0,,5,,,53,127
108548,note_off,318,0,0,,5,,,53,127
108548,note_off,0,0,0,,2,,,62,127
108550,note_off,2,0,0,,5,,,77,127
108550,note_on,0,0,0,,0,,,60,127
108550,note_on,0,0,0,,4,,,52,127
108870,note_on,320,0,0,,7,,,79,127
109028,note_off,158,0,0,,7,,,79,127
109030,note_on,2,0,0,,4,,,76,127
109188,note_off,158,0,0,,4,,,76,127
109190,note_on,2,0,0,,0,,,72,127
109508,note_off,318,0,0,,0,,,72,127
109508,note_off,0,0,0,,4,,,52,127
109508,note_off,0,0,0,,0,,,60,127
109510,note_on,2,0,0,,2,,,74,127
109510,note_on,0,0,0,,7,,,79,127
109510,note_on,0,0,0,,2,,,50,127
109510,note_on,0,0,0,,11,,,58,127
109828,note_off,318,0,0,,11,,,58,127
109828,note_off,0,0,0,,2,,,50,127
109828,note_off,0,0,0,,2,,,74,127
109830,note_on,2,0,0,,4,,,76,127
109830,note_on,0,0,0,,10,,,57,127
109830,note_on,0,0,0,,1,,,49,127
110148,note_off,318,0,0,,1,,,49,127
110148,note_off,0,0,0,,4,,,76,127
110150,note_off,2,0,0,,7,,,79,127
110150,note_on,0,0,0,,5,,,77,127
110150,note_on,0,0,0,,10,,,69,127
110150,note_on,0,0,0,,2,,,50,127
110468,note_off,318,0,0,,2,,,50,127
110468,note_off,0,0,0,,10,,,69,127
110468,note_off,0,0,0,,5,,,77,127
110470,note_off,2,0,0,,10,,,57,127
110470,note_on,0,0,0,,4,,,76,127
110470,note_on,0,0,0,,11,,,70,127
110470,note_on,0,0,0,,7,,,43,127
110788,note_off,318,0,0,,7,,,43,127
110788,note_off,0,0,0,,4,,,76,127
110790,note_on,2,0,0,,2,,,74,127
110790,note_on,0,0,0,,7,,,55,127
111108,note_off,318,0,0,,7,,,55,127
111108,note_off,0,0,0,,2,,,74,127
111110,note_off,2,0,0,,11,,,70,127
111110,note_on,0,0,0,,10,,,69,127
111110,note_on,0,0,0,,1,,,73,127
111110,note_on,0,0,0,,10,,,57,127
111428,note_off,318,0,0,,10,,,57,127
111428,note_off,0,0,0,,1,,,73,127
111428,note_off,0,0,0,,10,,,69,127
111430,note_on,2,0,0,,4,,,76,127
111430,note_on,0,0,0,,10,,,45,127
111588,note_off,158,0,0,,4,,,76,127
111590,note_on,2,0,0,,1,,,73,127
111748,note_off,158,0,0,,1,,,73,127
111750,note_on,2,0,0,,10,,,69,127
112068,note_off,318,0,0,,10,,,69,127
112068,note_off,0,0,0,,10,,,45,127
112070,note_on,2,0,0,,7,,,67,127
112070,note_on,0,0,0,,1,,,61,127
112070,note_on,0,0,0,,10,,,57,127
112388,note_off,318,0,0,,10,,,57,127
112388,note_off,0,0,0,,1,,,61,127
112388,note_off,0,0,0,,7,,,67,127
112390,note_on,2,0,0,,8,,,68,127
112390,note_on,0,0,0,,5,,,65,127
112390,note_on,0,0,0,,10,,,57,127
112390,note_on,0,0,0,,2,,,62,127
112708,note_off,318,0,0,,2,,,62,127
112708,note_off,0,0,0,,10,,,57,127
112710,note_on,2,0,0,,10,,,57,127
112710,note_on,0,0,0,,2,,,62,127
113028,note_off,318,0,0,,2,,,62,127
113028,note_off,0,0,0,,10,,,57,127
113030,note_on,2,0,0,,10,,,57,127
113030,note_on,0,0,0,,2,,,62,127
113348,note_off,318,0,0,,2,,,62,127
113348,note_off,0,0,0,,10,,,57,127
113348,note_off,0,0,0,,8,,,68,127
113350,note_on,2,0,0,,10,,,69,127
113350,note_on,0,0,0,,10,,,57,127
113350,note_on,0,0,0,,2,,,62,127
113508,note_off,158,0,0,,10,,,69,127
113510,note_on,2,0,0,,8,,,68,127
113668,note_off,158,0,0,,8,,,68,127
113668,note_off,0,0,0,,2,,,62,127
113668,note_off,0,0,0,,10,,,57,127
113670,note_off,2,0,0,,5,,,65,127
113670,note_on,0,0,0,,4,,,64,127
113670,note_on,0,0,0,,10,,,69,127
113670,note_on,0,0,0,,10,,,57,127
113670,note_on,0,0,0,,1,,,61,127
113988,note_off,318,0,0,,10,,,69,127
113990,note_on,2,0,0,,4,,,76,127
114148,note_off,158,0,0,,4,,,76,127
114150,note_on,2,0,0,,1,,,73,127
114308,note_off,158,0,0,,1,,,73,127
114310,note_off,2,0,0,,4,,,64,127
114310,note_on,0,0,0,,10,,,69,127
114628,note_off,318,0,0,,10,,,69,127
114630,note_on,2,0,0,,7,,,67,127
114948,note_off,318,0,0,,7,,,67,127
114948,note_off,0,0,0,,1,,,61,127
114948,note_off,0,0,0,,10,,,57,127
114950,note_on,2,0,0,,8,,,68,127
114950,note_on,0,0,0,,5,,,65,127
114950,note_on,0,0,0,,2,,,62,127
114950,note_on,0,0,0,,4,,,52,127
115268,note_off,318,0,0,,4,,,52,127
115268,note_off,0,0,0,,2,,,62,127
115270,note_on,2,0,0,,4,,,52,127
115270,note_on,0,0,0,,2,,,62,127
115588,note_off,318,0,0,,2,,,62,127
115588,note_off,0,0,0,,4,,,52,127
115590,note_on,2,0,0,,2,,,62,127
115590,note_on,0,0,0,,4,,,52,127
115908,note_off,318,0,0,,4,,,52,127
115908,note_off,0,0,0,,2,,,62,127
115908,note_off,0,0,0,,8,,,68,127
115910,note_on,2,0,0,,10,,,69,127
115910,note_on,0,0,0,,2,,,62,127
115910,note_on,0,0,0,,4,,,52,127
116068,note_off,158,0,0,,10,,,69,127
116070,note_on,2,0,0,,8,,,68,127
116228,note_off,158,0,0,,8,,,68,127
116228,note_off,0,0,0,,4,,,52,127
116228,note_off,0,0,0,,2,,,62,127
116230,note_off,2,0,0,,5,,,65,127
116230,note_on,0,0,0,,4,,,64,127
116230,note_on,0,0,0,,10,,,69,127
116230,note_on,0,0,0,,4,,,52,127
116230,note_on,0,0,0,,0,,,60,127
116548,note_off,318,0,0,,0,,,60,127
116548,note_off,0,0,0,,4,,,52,127
116548,note_off,0,0,0,,10,,,69,127
116548,note_off,0,0,0,,4,,,64,127
116550,note_on,2,0,0,,5,,,65,127
116550,note_on,0,0,0,,8,,,68,127
116550,note_on,0,0,0,,4,,,52,127
116550,note_on,0,0,0,,2,,,62,127
116868,note_off,318,0,0,,2,,,62,127
116868,note_off,0,0,0,,4,,,52,127
116868,note_off,0,0,0,,5,,,65,127
116870,note_on,2,0,0,,5,,,65,127
116870,note_on,0,0,0,,4,,,52,127
116870,note_on,0,0,0,,2,,,62,127
117188,note_off,318,0,0,,2,,,62,127
117188,note_off,0,0,0,,4,,,52,127
117188,note_off,0,0,0,,5,,,65,127
117190,note_off,2,0,0,,8,,,68,127
117190,note_on,0,0,0,,5,,,65,127
117190,note_on,0,0,0,,10,,,69,127
117190,note_on,0,0,0,,2,,,62,127
117190,note_on,0,0,0,,4,,,52,127
117348,note_off,158,0,0,,10,,,69,127
117348,note_off,0,0,0,,5,,,65,127
117350,note_on,2,0,0,,8,,,68,127
117508,note_off,158,0,0,,8,,,68,127
117508,note_off,0,0,0,,4,,,52,127
117508,note_off,0,0,0,,2,,,62,127
117510,note_on,2,0,0,,10,,,69,127
117510,note_on,0,0,0,,4,,,64,127
117510,note_on,0,0,0,,4,,,52,127
117510,note_on,0,0,0,,0,,,60,127
117828,note_off,318,0,0,,0,,,60,127
117828,note_off,0,0,0,,4,,,52,127
117828,note_off,0,0,0,,4,,,64,127
117828,note_off,0,0,0,,10,,,69,127
117830,note_on,2,0,0,,5,,,65,127
117830,note_on,0,0,0,,8,,,68,127
117830,note_on,0,0,0,,2,,,62,127
117830,note_on,0,0,0,,4,,,52,127
118148,note_off,318,0,0,,4,,,52,127
118148,note_off,0,0,0,,2,,,62,127
118148,note_off,0,0,0,,5,,,65,127
118150,note_on,2,0,0,,5,,,65,127
118150,note_on,0,0,0,,2,,,62,127
118150,note_on,0,0,0,,4,,,52,127
118468,note_off,318,0,0,,4,,,52,127
118468,note_off,0,0,0,,2,,,62,127
118468,note_off,0,0,0,,5,,,65,127
118470,note_off,2,0,0,,8,,,68,127
118470,note_on,0,0,0,,10,,,69,127
118470,note_on,0,0,0,,5,,,65,127
118470,note_on,0,0,0,,2,,,62,127
118470,note_on,0,0,0,,4,,,52,127
118628,note_off,158,0,0,,5,,,65,127
118628,note_off,0,0,0,,10,,,69,127
118630,note_on,2,0,0,,8,,,68,127
118788,note_off,158,0,0,,8,,,68,127
118788,note_off,0,0,0,,4,,,52,127
118788,note_off,0,0,0,,2,,,62,127
118790,note_on,2,0,0,,10,,,69,127
118790,note_on,0,0,0,,4,,,64,127
118790,note_on,0,0,0,,4,,,52,127
118790,note_on,0,0,0,,0,,,60,127
119108,note_off,318,0,0,,0,,,60,127
119108,note_off,0,0,0,,4,,,52,127
119108,note_off,0,0,0,,4,,,64,127
119108,note_off,0,0,0,,10,,,69,127
119110,note_on,2,0,0,,8,,,68,127
119110,note_on,0,0,0,,12,,,71,127
119110,note_on,0,0,0,,4,,,52,127
119110,note_on,0,0,0,,12,,,59,127
119428,note_off,318,0,0,,12,,,59,127
119428,note_off,0,0,0,,4,,,52,127
119428,note_off,0,0,0,,12,,,71,127
119428,note_off,0,0,0,,8,,,68,127
119430,note_on,2,0,0,,10,,,69,127
119430,note_on,0,0,0,,0,,,72,127
119430,note_on,0,0,0,,4,,,52,127
119430,note_on,0,0,0,,10,,,57,127
119748,note_off,318,0,0,,10,,,57,127
119748,note_off,0,0,0,,4,,,52,127
119748,note_off,0,0,0,,0,,,72,127
119748,note_off,0,0,0,,10,,,69,127
119750,note_on,2,0,0,,2,,,74,127
119750,note_on,0,0,0,,12,,,71,127
119750,note_on,0,0,0,,4,,,52,127
119750,note_on,0,0,0,,8,,,56,127
120068,note_off,318,0,0,,8,,,56,127
120068,note_off,0,0,0,,4,,,52,127
120068,note_off,0,0,0,,12,,,71,127
120068,note_off,0,0,0,,2,,,74,127
120070,note_on,2,0,0,,0,,,72,127
120070,note_on,0,0,0,,10,,,69,127
120070,note_on,0,0,0,,10,,,57,127
120070,note_on,0,0,0,,10,,,45,127
120388,note_off,318,0,0,,10,,,69,127
120388,note_off,0,0,0,,0,,,72,127
120390,note_on,2,0,0,,4,,,76,127
120548,note_off,158,0,0,,4,,,76,127
120550,note_on,2,0,0,,0,,,72,127
120708,note_off,158,0,0,,0,,,72,127
120710,note_on,2,0,0,,10,,,69,127
121028,note_off,318,0,0,,10,,,69,127
121030,note_on,2,0,0,,7,,,67,127
121348,note_off,318,0,0,,7,,,67,127
121350,note_off,2,0,0,,10,,,45,127
121350,note_off,0,0,0,,10,,,57,127
121350,note_on,0,0,0,,6,,,66,127
121670,note_on,320,0,0,,2,,,50,127
121670,note_on,0,0,0,,0,,,60,127
121988,note_off,318,0,0,,0,,,60,127
121988,note_off,0,0,0,,2,,,50,127
121990,note_on,2,0,0,,2,,,62,127
121990,note_on,0,0,0,,2,,,50,127
121990,note_on,0,0,0,,0,,,60,127
122308,note_off,318,0,0,,0,,,60,127
122308,note_off,0,0,0,,2,,,50,127
122310,note_off,2,0,0,,6,,,66,127
122310,note_on,0,0,0,,7,,,67,127
122310,note_on,0,0,0,,2,,,50,127
122310,note_on,0,0,0,,0,,,60,127
122468,note_off,158,0,0,,7,,,67,127
122470,note_on,2,0,0,,6,,,66,127
122628,note_off,158,0,0,,6,,,66,127
122628,note_off,0,0,0,,0,,,60,127
122628,note_off,0,0,0,,2,,,50,127
122630,note_off,2,0,0,,2,,,62,127
122630,note_on,0,0,0,,2,,,62,127
122630,note_on,0,0,0,,7,,,67,127
122630,note_on,0,0,0,,2,,,50,127
122630,note_on,0,0,0,,12,,,59,127
122948,note_off,318,0,0,,12,,,59,127
122948,note_off,0,0,0,,2,,,50,127
122948,note_off,0,0,0,,7,,,67,127
122950,note_on,2,0,0,,6,,,66,127
122950,note_on,0,0,0,,2,,,50,127
122950,note_on,0,0,0,,0,,,60,127
123268,note_off,318,0,0,,0,,,60,127
123268,note_off,0,0,0,,2,,,50,127
123270,note_off,2,0,0,,2,,,62,127
123270,note_on,0,0,0,,2,,,62,127
123270,note_on,0,0,0,,0,,,60,127
123270,note_on,0,0,0,,2,,,50,127
123588,note_off,318,0,0,,2,,,50,127
123588,note_off,0,0,0,,0,,,60,127
123590,note_off,2,0,0,,6,,,66,127
123590,note_on,0,0,0,,7,,,67,127
123590,note_on,0,0,0,,0,,,60,127
123590,note_on,0,0,0,,2,,,50,127
123748,note_off,158,0,0,,7,,,67,127
123750,note_on,2,0,0,,6,,,66,127
123908,note_off,158,0,0,,6,,,66,127
123908,note_off,0,0,0,,2,,,50,127
123908,note_off,0,0,0,,0,,,60,127
123910,note_off,2,0,0,,2,,,62,127
123910,note_on,0,0,0,,2,,,62,127
123910,note_on,0,0,0,,7,,,67,127
123910,note_on,0,0,0,,2,,,50,127
123910,note_on,0,0,0,,12,,,59,127
124228,note_off,318,0,0,,12,,,59,127
124228,note_off,0,0,0,,2,,,50,127
124228,note_off,0,0,0,,7,,,67,127
124230,note_on,2,0,0,,6,,,66,127
124230,note_on,0,0,0,,2,,,50,127
124230,note_on,0,0,0,,0,,,60,127
124548,note_off,318,0,0,,0,,,60,127
124548,note_off,0,0,0,,2,,,50,127
124550,note_off,2,0,0,,2,,,62,127
124550,note_on,0,0,0,,2,,,62,127
124550,note_on,0,0,0,,2,,,50,127
124550,note_on,0,0,0,,0,,,60,127
124868,note_off,318,0,0,,0,,,60,127
124868,note_off,0,0,0,,2,,,50,127
124870,note_off,2,0,0,,6,,,66,127
124870,note_on,0,0,0,,7,,,67,127
124870,note_on,0,0,0,,2,,,50,127
124870,note_on,0,0,0,,0,,,60,127
125028,note_off,158,0,0,,7,,,67,127
125030,note_on,2,0,0,,6,,,66,127
125188,note_off,158,0,0,,6,,,66,127
125188,note_off,0,0,0,,0,,,60,127
125188,note_off,0,0,0,,2,,,50,127
125190,note_on,2,0,0,,7,,,67,127
125190,note_on,0,0,0,,2,,,50,127
125190,note_on,0,0,0,,12,,,59,127
125508,note_off,318,0,0,,12,,,59,127
125508,note_off,0,0,0,,2,,,50,127
125508,note_off,0,0,0,,7,,,67,127
125510,note_off,2,0,0,,2,,,62,127
125510,note_on,0,0,0,,6,,,66,127
125510,note_on,0,0,0,,10,,,69,127
125510,note_on,0,0,0,,2,,,50,127
125510,note_on,0,0,0,,10,,,57,127
125828,note_off,318,0,0,,10,,,57,127
125828,note_off,0,0,0,,2,,,50,127
125828,note_off,0,0,0,,10,,,69,127
125828,note_off,0,0,0,,6,,,66,127
125830,note_on,2,0,0,,7,,,67,127
125830,note_on,0,0,0,,12,,,71,127
125830,note_on,0,0,0,,2,,,50,127
125830,note_on,0,0,0,,7,,,55,127
126148,note_off,318,0,0,,7,,,55,127
126148,note_off,0,0,0,,2,,,50,127
126148,note_off,0,0,0,,12,,,71,127
126148,note_off,0,0,0,,7,,,67,127
126150,note_on,2,0,0,,10,,,69,127
126150,note_on,0,0,0,,0,,,72,127
126150,note_on,0,0,0,,2,,,50,127
126150,note_on,0,0,0,,6,,,54,127
126468,note_off,318,0,0,,6,,,54,127
126468,note_off,0,0,0,,2,,,50,127
126468,note_off,0,0,0,,0,,,72,127
126468,note_off,0,0,0,,10,,,69,127
126470,note_on,2,0,0,,7,,,67,127
126470,note_on,0,0,0,,12,,,71,127
126470,note_on,0,0,0,,7,,,43,127
126470,note_on,0,0,0,,7,,,55,127
126628,note_off,158,0,0,,12,,,71,127
126628,note_off,0,0,0,,7,,,67,127
126630,note_on,2,0,0,,10,,,69,127
126788,note_off,158,0,0,,10,,,69,127
126790,note_on,2,0,0,,7,,,67,127
127430,note_off,640,0,0,,7,,,67,127
127748,note_off,318,0,0,,7,,,55,127
127748,note_off,0,0,0,,7,,,43,127
127750,note_on,2,0,0,,7,,,79,127
127750,note_on,0,0,0,,7,,,43,127
127908,note_off,158,0,0,,7,,,79,127
127910,note_on,2,0,0,,2,,,74,127
128068,note_off,158,0,0,,2,,,74,127
128070,note_on,2,0,0,,12,,,71,127
128228,note_off,158,0,0,,12,,,71,127
128230,note_on,2,0,0,,7,,,67,127
128388,note_off,158,0,0,,7,,,67,127
128390,note_on,2,0,0,,2,,,62,127
128548,note_off,158,0,0,,2,,,62,127
128550,note_on,2,0,0,,12,,,59,127
128708,note_off,158,0,0,,12,,,59,127
128710,note_on,2,0,0,,7,,,55,127
128868,note_off,158,0,0,,7,,,55,127
128870,note_on,2,0,0,,5,,,65,127
129028,note_off,158,0,0,,7,,,43,127
129030,note_on,2,0,0,,0,,,36,127
129348,note_off,318,0,0,,5,,,65,127
129350,note_on,2,0,0,,3,,,63,127
129668,note_off,318,0,0,,0,,,36,127
129670,note_on,2,0,0,,0,,,48,127
129988,note_off,318,0,0,,3,,,63,127
129990,note_on,2,0,0,,4,,,64,127
130308,note_off,318,0,0,,4,,,64,127
130308,note_off,0,0,0,,0,,,48,127
130310,note_on,2,0,0,,10,,,81,127
130310,note_on,0,0,0,,10,,,45,127
130468,note_off,158,0,0,,10,,,81,127
130470,note_on,2,0,0,,4,,,76,127
130628,note_off,158,0,0,,4,,,76,127
130630,note_on,2,0,0,,1,,,73,127
130788,note_off,158,0,0,,1,,,73,127
130790,note_on,2,0,0,,10,,,69,127
130948,note_off,158,0,0,,10,,,69,127
130950,note_on,2,0,0,,4,,,64,127
131108,note_off,158,0,0,,4,,,64,127
131110,note_on,2,0,0,,1,,,61,127
131268,note_off,158,0,0,,1,,,61,127
131270,note_on,2,0,0,,10,,,57,127
131428,note_off,158,0,0,,10,,,57,127
131430,note_on,2,0,0,,7,,,67,127
131588,note_off,158,0,0,,10,,,45,127
131590,note_on,2,0,0,,2,,,38,127
131908,note_off,318,0,0,,7,,,67,127
131910,note_on,2,0,0,,4,,,64,127
132228,note_off,318,0,0,,2,,,38,127
132230,note_on,2,0,0,,2,,,50,127
132548,note_off,318,0,0,,4,,,64,127
132550,note_on,2,0,0,,6,,,66,127
132868,note_off,318,0,0,,2,,,50,127
132870,note_off,2,0,0,,6,,,66,127
132870,note_on,0,0,0,,2,,,38,127
133028,note_off,158,0,0,,2,,,38,127
133030,note_on,2,0,0,,6,,,42,127
133188,note_off,158,0,0,,6,,,42,127
133190,note_on,2,0,0,,2,,,86,127
133190,note_on,0,0,0,,10,,,45,127
133348,note_off,158,0,0,,10,,,45,127
133350,note_on,2,0,0,,2,,,50,127
133508,note_off,158,0,0,,2,,,50,127
133508,note_off,0,0,0,,2,,,86,127
133510,note_on,2,0,0,,2,,,86,127
133510,note_on,0,0,0,,6,,,54,127
133668,note_off,158,0,0,,6,,,54,127
133670,note_on,2,0,0,,10,,,57,127
133828,note_off,158,0,0,,10,,,57,127
133828,note_off,0,0,0,,2,,,86,127
133830,note_on,2,0,0,,2,,,86,127
133830,note_on,0,0,0,,2,,,62,127
133988,note_off,158,0,0,,2,,,62,127
133990,note_on,2,0,0,,6,,,66,127
134148,note_off,158,0,0,,6,,,66,127
134148,note_off,0,0,0,,2,,,86,127
134150,note_on,2,0,0,,2,,,86,127
134150,note_on,0,0,0,,7,,,43,127
134255,note_off,105,0,0,,2,,,86,127
134257,note_on,2,0,0,,0,,,84,127
134362,note_off,105,0,0,,0,,,84,127
134364,note_on,2,0,0,,12,,,83,127
134469,note_off,105,0,0,,12,,,83,127
134471,note_on,2,0,0,,0,,,84,127
134576,note_off,105,0,0,,0,,,84,127
134578,note_on,2,0,0,,12,,,83,127
134683,note_off,105,0,0,,12,,,83,127
134685,note_on,2,0,0,,10,,,81,127
134790,note_off,105,0,0,,10,,,81,127
134792,note_on,2,0,0,,12,,,83,127
135110,note_off,318,0,0,,12,,,83,127
135112,note_on,2,0,0,,7,,,79,127
135430,note_off,318,0,0,,7,,,79,127
135430,note_off,0,0,0,,7,,,43,127
135432,note_on,2,0,0,,2,,,86,127
135432,note_on,0,0,0,,2,,,38,127
135590,note_off,158,0,0,,2,,,38,127
135592,note_on,2,0,0,,6,,,42,127
135750,note_off,158,0,0,,6,,,42,127
135750,note_off,0,0,0,,2,,,86,127
135752,note_on,2,0,0,,2,,,86,127
135752,note_on,0,0,0,,10,,,45,127
135910,note_off,158,0,0,,10,,,45,127
135912,note_on,2,0,0,,2,,,50,127
136070,note_off,158,0,0,,2,,,50,127
136070,note_off,0,0,0,,2,,,86,127
136072,note_on,2,0,0,,2,,,86,127
136072,note_on,0,0,0,,6,,,54,127
136230,note_off,158,0,0,,6,,,54,127
136232,note_on,2,0,0,,10,,,57,127
136390,note_off,158,0,0,,10,,,57,127
136390,note_off,0,0,0,,2,,,86,127
136392,note_on,2,0,0,,2,,,86,127
136392,note_on,0,0,0,,2,,,62,127
136550,note_off,158,0,0,,2,,,62,127
136552,note_on,2,0,0,,6,,,66,127
136710,note_off,158,0,0,,6,,,66,127
136710,note_off,0,0,0,,2,,,86,127
136712,note_on,2,0,0,,2,,,86,127
136712,note_on,0,0,0,,7,,,43,127
136817,note_off,105,0,0,,2,,,86,127
136819,note_on,2,0,0,,0,,,84,127
136924,note_off,105,0,0,,0,,,84,127
136926,note_on,2,0,0,,12,,,83,127
137031,note_off,105,0,0,,12,,,83,127
137033,note_on,2,0,0,,0,,,84,127
137138,note_off,105,0,0,,0,,,84,127
137140,note_on,2,0,0,,12,,,83,127
137245,note_off,105,0,0,,12,,,83,127
137247,note_on,2,0,0,,10,,,81,127
137352,note_off,105,0,0,,10,,,81,127
137354,note_on,2,0,0,,12,,,83,127
137672,note_off,318,0,0,,12,,,83,127
137674,note_on,2,0,0,,7,,,79,127
137992,note_off,318,0,0,,7,,,79,127
137992,note_off,0,0,0,,7,,,43,127
137994,note_on,2,0,0,,2,,,86,127
137994,note_on,0,0,0,,12,,,47,127
138152,note_off,158,0,0,,2,,,86,127
138154,note_on,2,0,0,,12,,,83,127
138312,note_off,158,0,0,,12,,,83,127
138314,note_on,2,0,0,,7,,,79,127
138472,note_off,158,0,0,,7,,,79,127
138474,note_on,2,0,0,,2,,,74,127
138632,note_off,158,0,0,,2,,,74,127
138634,note_on,2,0,0,,12,,,71,127
138792,note_off,158,0,0,,12,,,71,127
138794,note_on,2,0,0,,7,,,67,127
138952,note_off,158,0,0,,7,,,67,127
138954,note_on,2,0,0,,2,,,62,127
139112,note_off,158,0,0,,2,,,62,127
139114,note_on,2,0,0,,12,,,59,127
139272,note_off,158,0,0,,12,,,59,127
139272,note_off,0,0,0,,12,,,47,127
139274,note_on,2,0,0,,4,,,64,127
139274,note_on,0,0,0,,0,,,48,127
139592,note_off,318,0,0,,4,,,64,127
139594,note_on,2,0,0,,4,,,76,127
139912,note_off,318,0,0,,0,,,48,127
139914,note_on,2,0,0,,0,,,36,127
140221,note_off,307,0,0,,4,,,76,127
140234,note_on,13,0,0,,2,,,74,127
140314,note_off,80,0,0,,2,,,74,127
140314,note_on,0,0,0,,0,,,72,127
140394,note_off,80,0,0,,0,,,72,127
140394,note_on,0,0,0,,12,,,71,127
140474,note_off,80,0,0,,12,,,71,127
140474,note_on,0,0,0,,10,,,69,127
140552,note_off,78,0,0,,0,,,36,127
140554,note_off,2,0,0,,10,,,69,127
140554,note_on,0,0,0,,7,,,67,127
140554,note_on,0,0,0,,2,,,38,127
140792,note_off,238,0,0,,7,,,67,127
140794,note_on,2,0,0,,10,,,69,127
140872,note_off,78,0,0,,10,,,69,127
140874,note_on,2,0,0,,7,,,67,127
140952,note_off,78,0,0,,7,,,67,127
140954,note_on,2,0,0,,6,,,66,127
141032,note_off,78,0,0,,6,,,66,127
141034,note_on,2,0,0,,7,,,67,127
141112,note_off,78,0,0,,7,,,67,127
141114,note_on,2,0,0,,10,,,69,127
141192,note_off,78,0,0,,10,,,69,127
141192,note_off,0,0,0,,2,,,38,127
141194,note_on,2,0,0,,12,,,71,127
141194,note_on,0,0,0,,2,,,38,127
141272,note_off,78,0,0,,12,,,71,127
141274,note_on,2,0,0,,10,,,69,127
141352,note_off,78,0,0,,10,,,69,127
141354,note_on,2,0,0,,12,,,71,127
141432,note_off,78,0,0,,12,,,71,127
141434,note_on,2,0,0,,10,,,69,127
141512,note_off,78,0,0,,10,,,69,127
141514,note_on,2,0,0,,12,,,71,127
141592,note_off,78,0,0,,12,,,71,127
141594,note_on,2,0,0,,10,,,69,127
141672,note_off,78,0,0,,10,,,69,127
141674,note_on,2,0,0,,7,,,67,127
141832,note_off,158,0,0,,7,,,67,127
141832,note_off,0,0,0,,2,,,38,127
141834,note_on,2,0,0,,7,,,67,127
141834,note_on,0,0,0,,7,,,43,127
143114,note_off,1280,0,0,,7,,,43,127
143114,note_off,0,0,0,,7,,,67,127
143434,note_on,320,0,0,,3,,,63,127
143434,note_on,0,0,0,,7,,,67,127
143752,note_off,318,0,0,,7,,,67,127
143752,note_off,0,0,0,,3,,,63,127
143754,note_on,2,0,0,,11,,,70,127
143754,note_on,0,0,0,,7,,,67,127
144072,note_off,318,0,0,,7,,,67,127
144072,note_off,0,0,0,,11,,,70,127
144074,note_on,2,0,0,,8,,,68,127
144074,note_on,0,0,0,,5,,,65,127
144392,note_off,318,0,0,,5,,,65,127
144392,note_off,0,0,0,,8,,,68,127
144394,note_on,2,0,0,,7,,,67,127
144394,note_on,0,0,0,,3,,,63,127
144552,note_off,158,0,0,,7,,,67,127
144554,note_on,2,0,0,,5,,,65,127
144712,note_off,158,0,0,,5,,,65,127
144714,note_on,2,0,0,,7,,,67,127
144872,note_off,158,0,0,,7,,,67,127
144874,note_on,2,0,0,,8,,,68,127
145032,note_off,158,0,0,,8,,,68,127
145034,note_off,2,0,0,,3,,,63,127
145034,note_on,0,0,0,,11,,,70,127
145034,note_on,0,0,0,,7,,,67,127
145352,note_off,318,0,0,,7,,,67,127
145352,note_off,0,0,0,,11,,,70,127
145354,note_on,2,0,0,,8,,,68,127
145354,note_on,0,0,0,,5,,,65,127
145672,note_off,318,0,0,,5,,,65,127
145672,note_off,0,0,0,,8,,,68,127
145674,note_on,2,0,0,,7,,,67,127
145674,note_on,0,0,0,,3,,,63,127
145994,note_on,320,0,0,,7,,,79,127
146312,note_off,318,0,0,,7,,,79,127
146314,note_on,2,0,0,,11,,,82,127
146632,note_off,318,0,0,,11,,,82,127
146634,note_on,2,0,0,,8,,,80,127
146952,note_off,318,0,0,,8,,,80,127
146952,note_off,0,0,0,,3,,,63,127
146952,note_off,0,0,0,,7,,,67,127
146954,note_on,2,0,0,,7,,,79,127
146954,note_on,0,0,0,,1,,,61,127
147272,note_off,318,0,0,,7,,,79,127
147274,note_on,2,0,0,,5,,,77,127
147274,note_on,0,0,0,,11,,,70,127
147592,note_off,318,0,0,,11,,,70,127
147594,note_off,2,0,0,,1,,,61,127
147594,note_on,0,0,0,,0,,,60,127
147594,note_on,0,0,0,,8,,,68,127
147912,note_off,318,0,0,,8,,,68,127
147912,note_off,0,0,0,,5,,,77,127
147914,note_on,2,0,0,,4,,,76,127
147914,note_on,0,0,0,,7,,,67,127
148232,note_off,318,0,0,,7,,,67,127
148232,note_off,0,0,0,,4,,,76,127
148234,note_off,2,0,0,,0,,,60,127
148234,note_on,0,0,0,,5,,,77,127
148234,note_on,0,0,0,,5,,,41,127
148552,note_off,318,0,0,,5,,,41,127
148554,note_on,2,0,0,,10,,,69,127
148554,note_on,0,0,0,,5,,,65,127
148872,note_off,318,0,0,,5,,,65,127
148872,note_off,0,0,0,,10,,,69,127
148874,note_off,2,0,0,,5,,,77,127
148874,note_on,0,0,0,,0,,,72,127
148874,note_on,0,0,0,,10,,,69,127
149192,note_off,318,0,0,,10,,,69,127
149192,note_off,0,0,0,,0,,,72,127
149194,note_on,2,0,0,,7,,,67,127
149194,note_on,0,0,0,,11,,,70,127
149512,note_off,318,0,0,,11,,,70,127
149512,note_off,0,0,0,,7,,,67,127
149514,note_on,2,0,0,,5,,,65,127
149514,note_on,0,0,0,,10,,,69,127
149672,note_off,158,0,0,,10,,,69,127
149674,note_on,2,0,0,,7,,,67,127
149832,note_off,158,0,0,,7,,,67,127
149834,note_on,2,0,0,,10,,,69,127
149992,note_off,158,0,0,,10,,,69,127
149994,note_on,2,0,0,,11,,,70,127
150152,note_off,158,0,0,,11,,,70,127
150154,note_off,2,0,0,,5,,,65,127
150154,note_on,0,0,0,,0,,,72,127
150154,note_on,0,0,0,,10,,,69,127
150472,note_off,318,0,0,,10,,,69,127
150472,note_off,0,0,0,,0,,,72,127
150474,note_on,2,0,0,,11,,,70,127
150474,note_on,0,0,0,,7,,,67,127
150792,note_off,318,0,0,,7,,,67,127
150792,note_off,0,0,0,,11,,,70,127
150794,note_on,2,0,0,,10,,,69,127
150794,note_on,0,0,0,,5,,,65,127
151114,note_on,320,0,0,,10,,,81,127
151432,note_off,318,0,0,,10,,,81,127
151434,note_on,2,0,0,,0,,,84,127
151752,note_off,318,0,0,,0,,,84,127
151754,note_on,2,0,0,,11,,,82,127
152072,note_off,318,0,0,,11,,,82,127
152072,note_off,0,0,0,,5,,,65,127
152072,note_off,0,0,0,,10,,,69,127
152074,note_on,2,0,0,,10,,,81,127
152074,note_on,0,0,0,,3,,,63,127
152392,note_off,318,0,0,,10,,,81,127
152394,note_on,2,0,0,,7,,,79,127
152394,note_on,0,0,0,,0,,,72,127
152712,note_off,318,0,0,,0,,,72,127
152714,note_off,2,0,0,,3,,,63,127
152714,note_on,0,0,0,,11,,,70,127
152714,note_on,0,0,0,,2,,,62,127
153032,note_off,318,0,0,,11,,,70,127
153032,note_off,0,0,0,,7,,,79,127
153034,note_on,2,0,0,,6,,,78,127
153034,note_on,0,0,0,,10,,,69,127
153352,note_off,318,0,0,,10,,,69,127
153352,note_off,0,0,0,,6,,,78,127
153354,note_off,2,0,0,,2,,,62,127
153354,note_on,0,0,0,,7,,,79,127
153354,note_on,0,0,0,,7,,,55,127
153672,note_off,318,0,0,,7,,,55,127
153672,note_off,0,0,0,,7,,,79,127
153674,note_on,2,0,0,,2,,,74,127
153674,note_on,0,0,0,,7,,,67,127
153674,note_on,0,0,0,,12,,,71,127
153992,note_off,318,0,0,,12,,,71,127
153992,note_off,0,0,0,,7,,,67,127
153994,note_on,2,0,0,,7,,,67,127
153994,note_on,0,0,0,,12,,,71,127
154312,note_off,318,0,0,,12,,,71,127
154312,note_off,0,0,0,,7,,,67,127
154312,note_off,0,0,0,,2,,,74,127
154314,note_on,2,0,0,,7,,,79,127
154314,note_on,0,0,0,,3,,,75,127
154314,note_on,0,0,0,,0,,,72,127
154314,note_on,0,0,0,,7,,,67,127
154632,note_off,318,0,0,,7,,,67,127
154632,note_off,0,0,0,,0,,,72,127
154632,note_off,0,0,0,,3,,,75,127
154632,note_off,0,0,0,,7,,,79,127
154634,note_on,2,0,0,,7,,,79,127
154634,note_on,0,0,0,,2,,,74,127
154634,note_on,0,0,0,,6,,,66,127
154634,note_on,0,0,0,,0,,,72,127
154952,note_off,318,0,0,,0,,,72,127
154952,note_off,0,0,0,,6,,,66,127
154952,note_off,0,0,0,,7,,,79,127
154954,note_on,2,0,0,,10,,,81,127
154954,note_on,0,0,0,,0,,,72,127
154954,note_on,0,0,0,,6,,,66,127
155272,note_off,318,0,0,,6,,,66,127
155272,note_off,0,0,0,,0,,,72,127
155274,note_on,2,0,0,,6,,,66,127
155274,note_on,0,0,0,,0,,,72,127
155592,note_off,318,0,0,,0,,,72,127
155592,note_off,0,0,0,,6,,,66,127
155592,note_off,0,0,0,,10,,,81,127
155592,note_off,0,0,0,,2,,,74,127
155594,note_on,2,0,0,,7,,,79,127
155594,note_on,0,0,0,,3,,,75,127
155594,note_on,0,0,0,,0,,,72,127
155594,note_on,0,0,0,,7,,,67,127
155912,note_off,318,0,0,,7,,,67,127
155912,note_off,0,0,0,,0,,,72,127
155912,note_off,0,0,0,,3,,,75,127
155912,note_off,0,0,0,,7,,,79,127
155914,note_on,2,0,0,,7,,,79,127
155914,note_on,0,0,0,,2,,,74,127
155914,note_on,0,0,0,,0,,,72,127
155914,note_on,0,0,0,,6,,,66,127
156232,note_off,318,0,0,,6,,,66,127
156232,note_off,0,0,0,,0,,,72,127
156232,note_off,0,0,0,,7,,,79,127
156234,note_on,2,0,0,,10,,,81,127
156234,note_on,0,0,0,,0,,,72,127
156234,note_on,0,0,0,,6,,,66,127
156552,note_off,318,0,0,,6,,,66,127
156552,note_off,0,0,0,,0,,,72,127
156554,note_on,2,0,0,,6,,,66,127
156554,note_on,0,0,0,,0,,,72,127
156872,note_off,318,0,0,,0,,,72,127
156872,note_off,0,0,0,,6,,,66,127
156872,note_off,0,0,0,,10,,,81,127
156872,note_off,0,0,0,,2,,,74,127
156874,note_on,2,0,0,,2,,,74,127
156874,note_on,0,0,0,,6,,,66,127
156874,note_on,0,0,0,,0,,,72,127
157192,note_off,318,0,0,,0,,,72,127
157192,note_off,0,0,0,,6,,,66,127
157192,note_off,0,0,0,,2,,,74,127
157194,note_on,2,0,0,,2,,,74,127
157194,note_on,0,0,0,,5,,,65,127
157194,note_on,0,0,0,,0,,,72,127
157512,note_off,318,0,0,,0,,,72,127
157512,note_off,0,0,0,,5,,,65,127
157512,note_off,0,0,0,,2,,,74,127
157514,note_on,2,0,0,,2,,,74,127
157514,note_on,0,0,0,,12,,,71,127
157514,note_on,0,0,0,,5,,,65,127
157832,note_off,318,0,0,,5,,,65,127
157832,note_off,0,0,0,,12,,,71,127
157834,note_on,2,0,0,,5,,,65,127
157834,note_on,0,0,0,,12,,,71,127
158152,note_off,318,0,0,,12,,,71,127
158152,note_off,0,0,0,,5,,,65,127
158152,note_off,0,0,0,,2,,,74,127
158154,note_on,2,0,0,,10,,,81,127
158154,note_on,0,0,0,,5,,,65,127
158154,note_on,0,0,0,,10,,,69,127
158472,note_off,318,0,0,,10,,,69,127
158472,note_off,0,0,0,,5,,,65,127
158472,note_off,0,0,0,,10,,,81,127
158474,note_on,2,0,0,,10,,,81,127
158474,note_on,0,0,0,,2,,,74,127
158474,note_on,0,0,0,,12,,,71,127
158474,note_on,0,0,0,,8,,,68,127
158474,note_on,0,0,0,,4,,,64,127
158792,note_off,318,0,0,,4,,,64,127
158792,note_off,0,0,0,,8,,,68,127
158792,note_off,0,0,0,,12,,,71,127
158792,note_off,0,0,0,,10,,,81,127
158794,note_on,2,0,0,,12,,,83,127
158794,note_on,0,0,0,,4,,,64,127
158794,note_on,0,0,0,,8,,,68,127
158794,note_on,0,0,0,,12,,,71,127
159112,note_off,318,0,0,,12,,,71,127
159112,note_off,0,0,0,,8,,,68,127
159112,note_off,0,0,0,,4,,,64,127
159114,note_off,2,0,0,,2,,,74,127
159114,note_on,0,0,0,,2,,,74,127
159114,note_on,0,0,0,,10,,,69,127
159114,note_on,0,0,0,,5,,,65,127
159432,note_off,318,0,0,,5,,,65,127
159432,note_off,0,0,0,,10,,,69,127
159434,note_off,2,0,0,,12,,,83,127
159434,note_on,0,0,0,,10,,,81,127
159434,note_on,0,0,0,,5,,,65,127
159434,note_on,0,0,0,,10,,,69,127
159752,note_off,318,0,0,,10,,,69,127
159752,note_off,0,0,0,,5,,,65,127
159752,note_off,0,0,0,,10,,,81,127
159754,note_off,2,0,0,,2,,,74,127
159754,note_on,0,0,0,,2,,,74,127
159754,note_on,0,0,0,,10,,,81,127
159754,note_on,0,0,0,,12,,,71,127
159754,note_on,0,0,0,,8,,,68,127
159754,note_on,0,0,0,,4,,,64,127
160072,note_off,318,0,0,,4,,,64,127
160072,note_off,0,0,0,,8,,,68,127
160072,note_off,0,0,0,,12,,,71,127
160072,note_off,0,0,0,,10,,,81,127
160074,note_on,2,0,0,,12,,,83,127
160074,note_on,0,0,0,,4,,,64,127
160074,note_on,0,0,0,,8,,,68,127
160074,note_on,0,0,0,,12,,,71,127
160392,note_off,318,0,0,,12,,,71,127
160392,note_off,0,0,0,,8,,,68,127
160392,note_off,0,0,0,,4,,,64,127
160394,note_off,2,0,0,,2,,,74,127
160394,note_on,0,0,0,,2,,,74,127
160394,note_on,0,0,0,,5,,,65,127
160394,note_on,0,0,0,,10,,,69,127
160712,note_off,318,0,0,,10,,,69,127
160712,note_off,0,0,0,,5,,,65,127
160714,note_off,2,0,0,,12,,,83,127
160714,note_on,0,0,0,,10,,,81,127
160714,note_on,0,0,0,,5,,,65,127
160714,note_on,0,0,0,,10,,,69,127
161032,note_off,318,0,0,,10,,,69,127
161032,note_off,0,0,0,,5,,,65,127
161032,note_off,0,0,0,,10,,,81,127
161034,note_off,2,0,0,,2,,,74,127
161034,note_on,0,0,0,,10,,,81,127
161034,note_on,0,0,0,,4,,,64,127
161034,note_on,0,0,0,,12,,,71,127
161352,note_off,318,0,0,,12,,,71,127
161352,note_off,0,0,0,,4,,,64,127
161352,note_off,0,0,0,,10,,,81,127
161354,note_on,2,0,0,,12,,,83,127
161354,note_on,0,0,0,,4,,,64,127
161354,note_on,0,0,0,,12,,,71,127
161672,note_off,318,0,0,,12,,,71,127
161672,note_off,0,0,0,,4,,,64,127
161674,note_on,2,0,0,,12,,,71,127
161674,note_on,0,0,0,,4,,,64,127
161992,note_off,318,0,0,,4,,,64,127
161992,note_off,0,0,0,,12,,,71,127
161992,note_off,0,0,0,,12,,,83,127
161994,note_on,2,0,0,,12,,,83,127
161994,note_on,0,0,0,,12,,,71,127
161994,note_on,0,0,0,,4,,,64,127
162312,note_off,318,0,0,,4,,,64,127
162312,note_off,0,0,0,,12,,,71,127
162312,note_off,0,0,0,,12,,,83,127
162314,note_on,2,0,0,,0,,,84,127
162314,note_on,0,0,0,,10,,,69,127
162314,note_on,0,0,0,,0,,,72,127
162314,note_on,0,0,0,,3,,,63,127
162632,note_off,318,0,0,,3,,,63,127
162632,note_off,0,0,0,,0,,,72,127
162632,note_off,0,0,0,,10,,,69,127
162632,note_off,0,0,0,,0,,,84,127
162634,note_on,2,0,0,,10,,,81,127
162634,note_on,0,0,0,,0,,,72,127
162634,note_on,0,0,0,,10,,,69,127
162634,note_on,0,0,0,,3,,,63,127
162952,note_off,318,0,0,,3,,,63,127
162952,note_off,0,0,0,,10,,,69,127
162952,note_off,0,0,0,,0,,,72,127
162954,note_on,2,0,0,,3,,,63,127
162954,note_on,0,0,0,,10,,,69,127
162954,note_on,0,0,0,,0,,,72,127
163272,note_off,318,0,0,,0,,,72,127
163272,note_off,0,0,0,,10,,,69,127
163272,note_off,0,0,0,,3,,,63,127
163272,note_off,0,0,0,,10,,,81,127
163274,note_on,2,0,0,,7,,,79,127
163274,note_on,0,0,0,,3,,,63,127
163274,note_on,0,0,0,,10,,,69,127
163274,note_on,0,0,0,,0,,,72,127
163432,note_off,158,0,0,,7,,,79,127
163434,note_on,2,0,0,,6,,,78,127
163592,note_off,158,0,0,,6,,,78,127
163592,note_off,0,0,0,,0,,,72,127
163592,note_off,0,0,0,,10,,,69,127
163592,note_off,0,0,0,,3,,,63,127
163594,note_on,2,0,0,,6,,,78,127
163594,note_on,0,0,0,,4,,,64,127
163594,note_on,0,0,0,,12,,,71,127
163912,note_off,318,0,0,,12,,,71,127
163912,note_off,0,0,0,,4,,,64,127
163912,note_off,0,0,0,,6,,,78,127
163914,note_on,2,0,0,,7,,,79,127
163914,note_on,0,0,0,,12,,,71,127
163914,note_on,0,0,0,,4,,,64,127
164232,note_off,318,0,0,,4,,,64,127
164232,note_off,0,0,0,,12,,,71,127
164234,note_on,2,0,0,,4,,,64,127
164234,note_on,0,0,0,,12,,,71,127
164552,note_off,318,0,0,,12,,,71,127
164552,note_off,0,0,0,,4,,,64,127
164552,note_off,0,0,0,,7,,,79,127
164554,note_on,2,0,0,,7,,,79,127
164554,note_on,0,0,0,,12,,,71,127
164554,note_on,0,0,0,,4,,,64,127
164872,note_off,318,0,0,,4,,,64,127
164872,note_off,0,0,0,,12,,,71,127
164872,note_off,0,0,0,,7,,,79,127
164874,note_on,2,0,0,,10,,,81,127
164874,note_on,0,0,0,,0,,,60,127
164874,note_on,0,0,0,,12,,,71,127
165192,note_off,318,0,0,,12,,,71,127
165192,note_off,0,0,0,,0,,,60,127
165192,note_off,0,0,0,,10,,,81,127
165194,note_on,2,0,0,,3,,,75,127
165194,note_on,0,0,0,,0,,,60,127
165194,note_on,0,0,0,,10,,,69,127
165512,note_off,318,0,0,,10,,,69,127
165512,note_off,0,0,0,,0,,,60,127
165514,note_on,2,0,0,,0,,,60,127
165514,note_on,0,0,0,,10,,,69,127
165832,note_off,318,0,0,,10,,,69,127
165832,note_off,0,0,0,,0,,,60,127
165832,note_off,0,0,0,,3,,,75,127
165834,note_on,2,0,0,,4,,,76,127
165834,note_on,0,0,0,,10,,,69,127
165834,note_on,0,0,0,,0,,,60,127
166152,note_off,318,0,0,,0,,,60,127
166152,note_off,0,0,0,,10,,,69,127
166152,note_off,0,0,0,,4,,,76,127
166154,note_on,2,0,0,,6,,,78,127
166154,note_on,0,0,0,,12,,,59,127
166472,note_off,318,0,0,,12,,,59,127
166474,note_on,2,0,0,,12,,,59,127
166474,note_on,0,0,0,,12,,,71,127
166632,note_off,158,0,0,,6,,,78,127
166634,note_on,2,0,0,,3,,,75,127
166792,note_off,158,0,0,,3,,,75,127
166792,note_off,0,0,0,,12,,,59,127
166794,note_on,2,0,0,,6,,,78,127
166794,note_on,0,0,0,,0,,,60,127
166847,note_off,53,0,0,,6,,,78,127
166847,note_on,0,0,0,,4,,,76,127
166900,note_off,53,0,0,,4,,,76,127
166900,note_on,0,0,0,,6,,,78,127
166953,note_off,53,0,0,,6,,,78,127
166953,note_on,0,0,0,,4,,,76,127
167111,note_off,158,0,0,,0,,,60,127
167113,note_off,2,0,0,,12,,,71,127
167113,note_on,0,0,0,,10,,,69,127
167271,note_off,158,0,0,,4,,,76,127
167273,note_on,2,0,0,,4,,,76,127
167431,note_off,158,0,0,,4,,,76,127
167431,note_off,0,0,0,,10,,,69,127
167433,note_on,2,0,0,,6,,,78,127
167433,note_on,0,0,0,,12,,,59,127
167751,note_off,318,0,0,,12,,,59,127
167753,note_on,2,0,0,,12,,,71,127
167753,note_on,0,0,0,,12,,,59,127
167911,note_off,158,0,0,,6,,,78,127
167913,note_on,2,0,0,,3,,,75,127
168071,note_off,158,0,0,,3,,,75,127
168071,note_off,0,0,0,,12,,,59,127
168073,note_on,2,0,0,,6,,,78,127
168073,note_on,0,0,0,,0,,,60,127
168126,note_off,53,0,0,,6,,,78,127
168126,note_on,0,0,0,,4,,,76,127
168179,note_off,53,0,0,,4,,,76,127
168179,note_on,0,0,0,,6,,,78,127
168232,note_off,53,0,0,,6,,,78,127
168232,note_on,0,0,0,,4,,,76,127
168390,note_off,158,0,0,,0,,,60,127
168392,note_off,2,0,0,,12,,,71,127
168392,note_on,0,0,0,,10,,,69,127
168392,note_on,0,0,0,,0,,,60,127
168550,note_off,158,0,0,,4,,,76,127
168552,note_on,2,0,0,,4,,,76,127
168710,note_off,158,0,0,,4,,,76,127
168710,note_off,0,0,0,,0,,,60,127
168710,note_off,0,0,0,,10,,,69,127
168712,note_on,2,0,0,,6,,,78,127
168712,note_on,0,0,0,,12,,,59,127
169030,note_off,318,0,0,,12,,,59,127
169032,note_on,2,0,0,,12,,,71,127
169032,note_on,0,0,0,,12,,,59,127
169190,note_off,158,0,0,,6,,,78,127
169192,note_on,2,0,0,,3,,,75,127
169350,note_off,158,0,0,,3,,,75,127
169350,note_off,0,0,0,,12,,,59,127
169352,note_on,2,0,0,,6,,,78,127
169352,note_on,0,0,0,,0,,,60,127
169405,note_off,53,0,0,,6,,,78,127
169405,note_on,0,0,0,,4,,,76,127
169458,note_off,53,0,0,,4,,,76,127
169458,note_on,0,0,0,,6,,,78,127
169511,note_off,53,0,0,,6,,,78,127
169511,note_on,0,0,0,,4,,,76,127
169669,note_off,158,0,0,,0,,,60,127
169671,note_off,2,0,0,,12,,,71,127
169671,note_on,0,0,0,,10,,,69,127
169671,note_on,0,0,0,,0,,,60,127
169829,note_off,158,0,0,,4,,,76,127
169831,note_on,2,0,0,,4,,,76,127
169989,note_off,158,0,0,,4,,,76,127
169989,note_off,0,0,0,,0,,,60,127
169989,note_off,0,0,0,,10,,,69,127
169991,note_on,2,0,0,,4,,,76,127
169991,note_on,0,0,0,,12,,,71,127
169991,note_on,0,0,0,,12,,,59,127
170309,note_off,318,0,0,,4,,,76,127
170311,note_on,2,0,0,,6,,,78,127
170629,note_off,318,0,0,,12,,,59,127
170629,note_off,0,0,0,,12,,,71,127
170631,note_on,2,0,0,,12,,,47,127
170791,note_off,160,0,0,,6,,,78,127
170951,note_on,160,0,0,,6,,,78,127
171269,note_off,318,0,0,,6,,,78,127
171269,note_off,0,0,0,,12,,,47,127
171271,note_on,2,0,0,,12,,,83,127
171271,note_on,0,0,0,,12,,,47,127
171429,note_off,158,0,0,,12,,,47,127
171431,note_on,2,0,0,,3,,,51,127
171589,note_off,158,0,0,,3,,,51,127
171591,note_on,2,0,0,,6,,,78,127
171591,note_on,0,0,0,,6,,,54,127
171671,note_off,80,0,0,,12,,,83,127
171749,note_off,78,0,0,,6,,,54,127
171751,note_on,2,0,0,,12,,,59,127
171909,note_off,158,0,0,,12,,,59,127
171909,note_off,0,0,0,,6,,,78,127
171911,note_on,2,0,0,,6,,,78,127
171911,note_on,0,0,0,,3,,,63,127
172069,note_off,158,0,0,,3,,,63,127
172071,note_on,2,0,0,,6,,,66,127
172229,note_off,158,0,0,,6,,,66,127
172229,note_off,0,0,0,,6,,,78,127
172231,note_on,2,0,0,,6,,,78,127
172231,note_on,0,0,0,,12,,,71,127
172389,note_off,158,0,0,,12,,,71,127
172391,note_on,2,0,0,,6,,,66,127
172549,note_off,158,0,0,,6,,,66,127
172549,note_off,0,0,0,,6,,,78,127
172551,note_on,2,0,0,,12,,,83,127
172551,note_on,0,0,0,,12,,,47,127
172709,note_off,158,0,0,,12,,,47,127
172711,note_on,2,0,0,,3,,,51,127
172869,note_off,158,0,0,,3,,,51,127
172871,note_on,2,0,0,,6,,,78,127
172871,note_on,0,0,0,,6,,,54,127
172951,note_off,80,0,0,,12,,,83,127
173029,note_off,78,0,0,,6,,,54,127
173031,note_on,2,0,0,,12,,,59,127
173189,note_off,158,0,0,,12,,,59,127
173189,note_off,0,0,0,,6,,,78,127
173191,note_on,2,0,0,,6,,,78,127
173191,note_on,0,0,0,,3,,,63,127
173349,note_off,158,0,0,,3,,,63,127
173351,note_on,2,0,0,,6,,,66,127
173509,note_off,158,0,0,,6,,,66,127
173509,note_off,0,0,0,,6,,,78,127
173511,note_on,2,0,0,,6,,,78,127
173511,note_on,0,0,0,,12,,,71,127
173669,note_off,158,0,0,,12,,,71,127
173671,note_on,2,0,0,,6,,,66,127
173829,note_off,158,0,0,,6,,,66,127
173829,note_off,0,0,0,,6,,,78,127
173831,note_on,2,0,0,,12,,,83,127
173831,note_on,0,0,0,,12,,,47,127
173989,note_off,158,0,0,,12,,,47,127
173991,note_on,2,0,0,,3,,,51,127
174149,note_off,158,0,0,,3,,,51,127
174151,note_on,2,0,0,,6,,,78,127
174151,note_on,0,0,0,,6,,,54,127
174231,note_off,80,0,0,,12,,,83,127
174309,note_off,78,0,0,,6,,,54,127
174311,note_on,2,0,0,,12,,,59,127
174469,note_off,158,0,0,,12,,,59,127
174469,note_off,0,0,0,,6,,,78,127
174471,note_on,2,0,0,,6,,,78,127
174471,note_on,0,0,0,,3,,,63,127
174629,note_off,158,0,0,,3,,,63,127
174631,note_on,2,0,0,,6,,,66,127
174789,note_off,158,0,0,,6,,,66,127
174789,note_off,0,0,0,,6,,,78,127
174791,note_on,2,0,0,,6,,,78,127
174791,note_on,0,0,0,,12,,,71,127
174949,note_off,158,0,0,,12,,,71,127
174951,note_on,2,0,0,,6,,,66,127
175109,note_off,158,0,0,,6,,,66,127
175109,note_off,0,0,0,,6,,,78,127
175111,note_on,2,0,0,,3,,,87,127
175111,note_on,0,0,0,,3,,,75,127
175111,note_on,0,0,0,,10,,,57,127
175111,note_on,0,0,0,,10,,,45,127
175429,note_off,318,0,0,,10,,,45,127
175429,note_off,0,0,0,,10,,,57,127
175429,note_off,0,0,0,,3,,,75,127
175429,note_off,0,0,0,,3,,,87,127
175431,note_on,2,0,0,,4,,,88,127
175431,note_on,0,0,0,,4,,,76,127
175431,note_on,0,0,0,,7,,,55,127
175431,note_on,0,0,0,,7,,,43,127
175749,note_off,318,0,0,,4,,,76,127
175751,note_on,2,0,0,,4,,,76,127
176069,note_off,318,0,0,,7,,,43,127
176069,note_off,0,0,0,,7,,,55,127
176071,note_off,2,0,0,,4,,,88,127
176071,note_on,0,0,0,,2,,,86,127
176071,note_on,0,0,0,,7,,,55,127
176071,note_on,0,0,0,,7,,,43,127
176389,note_off,318,0,0,,7,,,43,127
176389,note_off,0,0,0,,7,,,55,127
176389,note_off,0,0,0,,2,,,86,127
176391,note_off,2,0,0,,4,,,76,127
176391,note_on,0,0,0,,0,,,84,127
176391,note_on,0,0,0,,10,,,45,127
176496,note_off,105,0,0,,0,,,84,127
176498,note_on,2,0,0,,12,,,83,127
176603,note_off,105,0,0,,12,,,83,127
176605,note_on,2,0,0,,10,,,81,127
176710,note_off,105,0,0,,10,,,81,127
176710,note_off,0,0,0,,10,,,45,127
176712,note_on,2,0,0,,7,,,79,127
176712,note_on,0,0,0,,10,,,57,127
176817,note_off,105,0,0,,7,,,79,127
176819,note_on,2,0,0,,6,,,78,127
176924,note_off,105,0,0,,6,,,78,127
176926,note_on,2,0,0,,4,,,76,127
177031,note_off,105,0,0,,4,,,76,127
177031,note_off,0,0,0,,10,,,57,127
177033,note_on,2,0,0,,4,,,76,127
177033,note_on,0,0,0,,7,,,79,127
177033,note_on,0,0,0,,12,,,59,127
177351,note_off,318,0,0,,12,,,59,127
177351,note_off,0,0,0,,7,,,79,127
177351,note_off,0,0,0,,4,,,76,127
177353,note_on,2,0,0,,6,,,78,127
177353,note_on,0,0,0,,3,,,75,127
177353,note_on,0,0,0,,12,,,47,127
177671,note_off,318,0,0,,12,,,47,127
177671,note_off,0,0,0,,3,,,75,127
177671,note_off,0,0,0,,6,,,78,127
177673,note_on,2,0,0,,4,,,76,127
177673,note_on,0,0,0,,0,,,60,127
178098,note_off,425,0,0,,4,,,76,127
178100,note_on,2,0,0,,6,,,78,127
178205,note_off,105,0,0,,6,,,78,127
178207,note_on,2,0,0,,7,,,79,127
178312,note_off,105,0,0,,7,,,79,127
178314,note_on,2,0,0,,10,,,81,127
178419,note_off,105,0,0,,10,,,81,127
178421,note_on,2,0,0,,7,,,79,127
178526,note_off,105,0,0,,7,,,79,127
178528,note_on,2,0,0,,10,,,81,127
178633,note_off,105,0,0,,10,,,81,127
178635,note_on,2,0,0,,7,,,79,127
178740,note_off,105,0,0,,7,,,79,127
178742,note_on,2,0,0,,6,,,78,127
178847,note_off,105,0,0,,6,,,78,127
178849,note_on,2,0,0,,4,,,76,127
178954,note_off,105,0,0,,4,,,76,127
178954,note_off,0,0,0,,0,,,60,127
178956,note_on,2,0,0,,12,,,83,127
178956,note_on,0,0,0,,12,,,47,127
179114,note_off,158,0,0,,12,,,47,127
179116,note_on,2,0,0,,3,,,51,127
179274,note_off,158,0,0,,3,,,51,127
179276,note_on,2,0,0,,6,,,78,127
179276,note_on,0,0,0,,6,,,54,127
179356,note_off,80,0,0,,12,,,83,127
179434,note_off,78,0,0,,6,,,54,127
179436,note_on,2,0,0,,12,,,59,127
179594,note_off,158,0,0,,12,,,59,127
179594,note_off,0,0,0,,6,,,78,127
179596,note_on,2,0,0,,6,,,78,127
179596,note_on,0,0,0,,3,,,63,127
179754,note_off,158,0,0,,3,,,63,127
179756,note_on,2,0,0,,6,,,66,127
179914,note_off,158,0,0,,6,,,66,127
179914,note_off,0,0,0,,6,,,78,127
179916,note_on,2,0,0,,6,,,78,127
179916,note_on,0,0,0,,12,,,71,127
180074,note_off,158,0,0,,12,,,71,127
180076,note_on,2,0,0,,6,,,66,127
180234,note_off,158,0,0,,6,,,66,127
180234,note_off,0,0,0,,6,,,78,127
180236,note_on,2,0,0,,12,,,83,127
180236,note_on,0,0,0,,12,,,47,127
180394,note_off,158,0,0,,12,,,47,127
180396,note_on,2,0,0,,3,,,51,127
180554,note_off,158,0,0,,3,,,51,127
180556,note_on,2,0,0,,6,,,78,127
180556,note_on,0,0,0,,6,,,54,127
180636,note_off,80,0,0,,12,,,83,127
180714,note_off,78,0,0,,6,,,54,127
180716,note_on,2,0,0,,12,,,59,127
180874,note_off,158,0,0,,12,,,59,127
180874,note_off,0,0,0,,6,,,78,127
180876,note_on,2,0,0,,6,,,78,127
180876,note_on,0,0,0,,3,,,63,127
181034,note_off,158,0,0,,3,,,63,127
181036,note_on,2,0,0,,6,,,66,127
181194,note_off,158,0,0,,6,,,66,127
181194,note_off,0,0,0,,6,,,78,127
181196,note_on,2,0,0,,6,,,78,127
181196,note_on,0,0,0,,12,,,71,127
181354,note_off,158,0,0,,12,,,71,127
181356,note_on,2,0,0,,6,,,66,127
181514,note_off,158,0,0,,6,,,66,127
181514,note_off,0,0,0,,6,,,78,127
181516,note_on,2,0,0,,3,,,75,127
181516,note_on,0,0,0,,3,,,87,127
181516,note_on,0,0,0,,10,,,57,127
181516,note_on,0,0,0,,10,,,45,127
181834,note_off,318,0,0,,10,,,45,127
181834,note_off,0,0,0,,10,,,57,127
181834,note_off,0,0,0,,3,,,87,127
181834,note_off,0,0,0,,3,,,75,127
181836,note_on,2,0,0,,4,,,88,127
181836,note_on,0,0,0,,4,,,76,127
181836,note_on,0,0,0,,7,,,55,127
181836,note_on,0,0,0,,7,,,43,127
182154,note_off,318,0,0,,4,,,76,127
182156,note_on,2,0,0,,4,,,76,127
182474,note_off,318,0,0,,7,,,43,127
182474,note_off,0,0,0,,7,,,55,127
182476,note_off,2,0,0,,4,,,88,127
182476,note_on,0,0,0,,2,,,86,127
182476,note_on,0,0,0,,7,,,55,127
182476,note_on,0,0,0,,7,,,43,127
182794,note_off,318,0,0,,7,,,43,127
182794,note_off,0,0,0,,7,,,55,127
182794,note_off,0,0,0,,2,,,86,127
182796,note_off,2,0,0,,4,,,76,127
182796,note_on,0,0,0,,0,,,84,127
182796,note_on,0,0,0,,10,,,45,127
182901,note_off,105,0,0,,0,,,84,127
182903,note_on,2,0,0,,12,,,83,127
183008,note_off,105,0,0,,12,,,83,127
183010,note_on,2,0,0,,10,,,81,127
183115,note_off,105,0,0,,10,,,81,127
183115,note_off,0,0,0,,10,,,45,127
183117,note_on,2,0,0,,7,,,79,127
183117,note_on,0,0,0,,10,,,57,127
183222,note_off,105,0,0,,7,,,79,127
183224,note_on,2,0,0,,6,,,78,127
183329,note_off,105,0,0,,6,,,78,127
183331,note_on,2,0,0,,4,,,76,127
183436,note_off,105,0,0,,4,,,76,127
183436,note_off,0,0,0,,10,,,57,127
183438,note_on,2,0,0,,7,,,79,127
183438,note_on,0,0,0,,4,,,76,127
183438,note_on,0,0,0,,12,,,59,127
183756,note_off,318,0,0,,12,,,59,127
183756,note_off,0,0,0,,4,,,76,127
183756,note_off,0,0,0,,7,,,79,127
183758,note_on,2,0,0,,6,,,78,127
183758,note_on,0,0,0,,3,,,75,127
183758,note_on,0,0,0,,12,,,47,127
184076,note_off,318,0,0,,12,,,47,127
184076,note_off,0,0,0,,3,,,75,127
184076,note_off,0,0,0,,6,,,78,127
184078,note_on,2,0,0,,4,,,76,127
184078,note_on,0,0,0,,0,,,48,127
184396,note_off,318,0,0,,4,,,76,127
184398,note_on,2,0,0,,4,,,88,127
184716,note_off,318,0,0,,4,,,88,127
184718,note_on,2,0,0,,0,,,84,127
184823,note_off,105,0,0,,0,,,84,127
184825,note_on,2,0,0,,12,,,83,127
184930,note_off,105,0,0,,12,,,83,127
184932,note_on,2,0,0,,10,,,81,127
185037,note_off,105,0,0,,10,,,81,127
185037,note_off,0,0,0,,0,,,48,127
185039,note_on,2,0,0,,10,,,81,127
185039,note_on,0,0,0,,4,,,76,127
185039,note_on,0,0,0,,0,,,72,127
185357,note_off,318,0,0,,0,,,72,127
185357,note_off,0,0,0,,4,,,76,127
185359,note_on,2,0,0,,3,,,75,127
185359,note_on,0,0,0,,12,,,71,127
185677,note_off,318,0,0,,12,,,71,127
185677,note_off,0,0,0,,3,,,75,127
185677,note_off,0,0,0,,10,,,81,127
185679,note_on,2,0,0,,4,,,88,127
185679,note_on,0,0,0,,0,,,72,127
185679,note_on,0,0,0,,4,,,76,127
185997,note_off,318,0,0,,4,,,88,127
185999,note_on,2,0,0,,0,,,84,127
186104,note_off,105,0,0,,0,,,84,127
186106,note_on,2,0,0,,12,,,83,127
186211,note_off,105,0,0,,12,,,83,127
186213,note_on,2,0,0,,10,,,81,127
186318,note_off,105,0,0,,10,,,81,127
186318,note_off,0,0,0,,4,,,76,127
186318,note_off,0,0,0,,0,,,72,127
186320,note_on,2,0,0,,10,,,81,127
186320,note_on,0,0,0,,4,,,76,127
186320,note_on,0,0,0,,0,,,72,127
186638,note_off,318,0,0,,0,,,72,127
186638,note_off,0,0,0,,4,,,76,127
186640,note_on,2,0,0,,12,,,71,127
186640,note_on,0,0,0,,3,,,75,127
186958,note_off,318,0,0,,3,,,75,127
186958,note_off,0,0,0,,12,,,71,127
186958,note_off,0,0,0,,10,,,81,127
186960,note_on,2,0,0,,7,,,79,127
186960,note_on,0,0,0,,0,,,72,127
186960,note_on,0,0,0,,4,,,76,127
187065,note_off,105,0,0,,7,,,79,127
187067,note_on,2,0,0,,6,,,78,127
187170,note_off,103,0,0,,4,,,76,127
187172,note_off,2,0,0,,6,,,78,127
187174,note_on,2,0,0,,4,,,76,127
187279,note_off,105,0,0,,4,,,76,127
187279,note_off,0,0,0,,0,,,72,127
187281,note_on,2,0,0,,7,,,79,127
187281,note_on,0,0,0,,4,,,76,127
187281,note_on,0,0,0,,12,,,71,127
187599,note_off,318,0,0,,12,,,71,127
187599,note_off,0,0,0,,4,,,76,127
187599,note_off,0,0,0,,7,,,79,127
187601,note_on,2,0,0,,3,,,75,127
187601,note_on,0,0,0,,6,,,78,127
187601,note_on,0,0,0,,12,,,59,127
187919,note_off,318,0,0,,12,,,59,127
187921,note_off,2,0,0,,6,,,78,127
187921,note_off,0,0,0,,3,,,75,127
187921,note_on,0,0,0,,0,,,60,127
188241,note_on,320,0,0,,4,,,76,127
188559,note_off,318,0,0,,4,,,76,127
188561,note_on,2,0,0,,0,,,72,127
188666,note_off,105,0,0,,0,,,72,127
188668,note_on,2,0,0,,12,,,71,127
188773,note_off,105,0,0,,12,,,71,127
188775,note_on,2,0,0,,10,,,69,127
188880,note_off,105,0,0,,10,,,69,127
188880,note_off,0,0,0,,0,,,60,127
188882,note_on,2,0,0,,10,,,69,127
188882,note_on,0,0,0,,0,,,60,127
188882,note_on,0,0,0,,4,,,64,127
189200,note_off,318,0,0,,4,,,64,127
189200,note_off,0,0,0,,0,,,60,127
189202,note_on,2,0,0,,12,,,59,127
189202,note_on,0,0,0,,3,,,63,127
189520,note_off,318,0,0,,3,,,63,127
189520,note_off,0,0,0,,12,,,59,127
189520,note_off,0,0,0,,10,,,69,127
189522,note_on,2,0,0,,4,,,76,127
189522,note_on,0,0,0,,4,,,64,127
189522,note_on,0,0,0,,0,,,60,127
189840,note_off,318,0,0,,4,,,76,127
189842,note_on,2,0,0,,0,,,72,127
189947,note_off,105,0,0,,0,,,72,127
189949,note_on,2,0,0,,12,,,71,127
190054,note_off,105,0,0,,12,,,71,127
190056,note_on,2,0,0,,10,,,69,127
190161,note_off,105,0,0,,10,,,69,127
190161,note_off,0,0,0,,0,,,60,127
190161,note_off,0,0,0,,4,,,64,127
190163,note_on,2,0,0,,10,,,69,127
190163,note_on,0,0,0,,4,,,64,127
190163,note_on,0,0,0,,0,,,60,127
190481,note_off,318,0,0,,0,,,60,127
190481,note_off,0,0,0,,4,,,64,127
190483,note_on,2,0,0,,3,,,63,127
190483,note_on,0,0,0,,12,,,59,127
190801,note_off,318,0,0,,12,,,59,127
190801,note_off,0,0,0,,3,,,63,127
190801,note_off,0,0,0,,10,,,69,127
190803,note_on,2,0,0,,7,,,67,127
190803,note_on,0,0,0,,4,,,64,127
190803,note_on,0,0,0,,0,,,60,127
190908,note_off,105,0,0,,7,,,67,127
190910,note_on,2,0,0,,6,,,66,127
191013,note_off,103,0,0,,4,,,64,127
191015,note_off,2,0,0,,6,,,66,127
191017,note_on,2,0,0,,4,,,64,127
191122,note_off,105,0,0,,4,,,64,127
191122,note_off,0,0,0,,0,,,60,127
191124,note_on,2,0,0,,7,,,67,127
191124,note_on,0,0,0,,4,,,64,127
191124,note_on,0,0,0,,12,,,59,127
191442,note_off,318,0,0,,12,,,59,127
191442,note_off,0,0,0,,4,,,64,127
191442,note_off,0,0,0,,7,,,67,127
191444,note_on,2,0,0,,6,,,66,127
191444,note_on,0,0,0,,3,,,63,127
191444,note_on,0,0,0,,12,,,47,127
191762,note_off,318,0,0,,12,,,47,127
191762,note_off,0,0,0,,3,,,63,127
191762,note_off,0,0,0,,6,,,66,127
191764,note_on,2,0,0,,4,,,64,127
191764,note_on,0,0,0,,4,,,52,127
192082,note_off,318,0,0,,4,,,64,127
192084,note_on,2,0,0,,4,,,88,127
192402,note_off,318,0,0,,4,,,88,127
192404,note_on,2,0,0,,2,,,86,127
192509,note_off,105,0,0,,2,,,86,127
192511,note_on,2,0,0,,4,,,88,127
192616,note_off,105,0,0,,4,,,88,127
192618,note_on,2,0,0,,0,,,84,127
192723,note_off,105,0,0,,0,,,84,127
192723,note_off,0,0,0,,4,,,52,127
192725,note_on,2,0,0,,12,,,83,127
192725,note_on,0,0,0,,6,,,54,127
192725,note_on,0,0,0,,10,,,57,127
192830,note_off,105,0,0,,12,,,83,127
192832,note_on,2,0,0,,0,,,84,127
192937,note_off,105,0,0,,0,,,84,127
192939,note_on,2,0,0,,10,,,81,127
193044,note_off,105,0,0,,10,,,81,127
193044,note_off,0,0,0,,10,,,57,127
193044,note_off,0,0,0,,6,,,54,127
193046,note_on,2,0,0,,7,,,79,127
193046,note_on,0,0,0,,12,,,59,127
193046,note_on,0,0,0,,7,,,55,127
193151,note_off,105,0,0,,7,,,79,127
193153,note_on,2,0,0,,10,,,81,127
193258,note_off,105,0,0,,10,,,81,127
193260,note_on,2,0,0,,6,,,78,127
193365,note_off,105,0,0,,6,,,78,127
193365,note_off,0,0,0,,7,,,55,127
193365,note_off,0,0,0,,12,,,59,127
193367,note_on,2,0,0,,4,,,76,127
193367,note_on,0,0,0,,10,,,57,127
193525,note_off,158,0,0,,4,,,76,127
193527,note_on,2,0,0,,6,,,78,127
193685,note_off,158,0,0,,6,,,78,127
193685,note_off,0,0,0,,10,,,57,127
193687,note_on,2,0,0,,7,,,79,127
193687,note_on,0,0,0,,12,,,59,127
193792,note_off,105,0,0,,7,,,79,127
193794,note_on,2,0,0,,6,,,78,127
193899,note_off,105,0,0,,6,,,78,127
193901,note_on,2,0,0,,7,,,79,127
194006,note_off,105,0,0,,7,,,79,127
194006,note_off,0,0,0,,12,,,59,127
194008,note_on,2,0,0,,6,,,78,127
194008,note_on,0,0,0,,12,,,47,127
194166,note_off,158,0,0,,6,,,78,127
194168,note_on,2,0,0,,4,,,76,127
194326,note_off,158,0,0,,4,,,76,127
194326,note_off,0,0,0,,12,,,47,127
194328,note_on,2,0,0,,4,,,76,127
194328,note_on,0,0,0,,4,,,52,127
194646,note_off,318,0,0,,4,,,52,127
194646,note_off,0,0,0,,4,,,76,127
194648,note_on,2,0,0,,4,,,76,127
194648,note_on,0,0,0,,4,,,64,127
194966,note_off,318,0,0,,4,,,64,127
194966,note_off,0,0,0,,4,,,76,127
194968,note_on,2,0,0,,2,,,74,127
194968,note_on,0,0,0,,2,,,62,127
195073,note_off,105,0,0,,2,,,62,127
195073,note_off,0,0,0,,2,,,74,127
195075,note_on,2,0,0,,4,,,76,127
195075,note_on,0,0,0,,4,,,64,127
195180,note_off,105,0,0,,4,,,64,127
195180,note_off,0,0,0,,4,,,76,127
195182,note_on,2,0,0,,0,,,72,127
195182,note_on,0,0,0,,0,,,60,127
195287,note_off,105,0,0,,0,,,60,127
195287,note_off,0,0,0,,0,,,72,127
195289,note_on,2,0,0,,12,,,71,127
195289,note_on,0,0,0,,12,,,59,127
195394,note_off,105,0,0,,12,,,59,127
195394,note_off,0,0,0,,12,,,71,127
195396,note_on,2,0,0,,0,,,72,127
195396,note_on,0,0,0,,0,,,60,127
195501,note_off,105,0,0,,0,,,60,127
195501,note_off,0,0,0,,0,,,72,127
195503,note_on,2,0,0,,10,,,69,127
195503,note_on,0,0,0,,10,,,57,127
195608,note_off,105,0,0,,10,,,57,127
195608,note_off,0,0,0,,10,,,69,127
195610,note_on,2,0,0,,7,,,67,127
195610,note_on,0,0,0,,7,,,55,127
195715,note_off,105,0,0,,7,,,67,127
195717,note_on,2,0,0,,10,,,69,127
195822,note_off,105,0,0,,10,,,69,127
195824,note_on,2,0,0,,6,,,66,127
195929,note_off,105,0,0,,6,,,66,127
195929,note_off,0,0,0,,7,,,55,127
195931,note_on,2,0,0,,4,,,64,127
195931,note_on,0,0,0,,4,,,52,127
196089,note_off,158,0,0,,4,,,64,127
196091,note_on,2,0,0,,6,,,66,127
196249,note_off,158,0,0,,6,,,66,127
196249,note_off,0,0,0,,4,,,52,127
196251,note_on,2,0,0,,7,,,67,127
196251,note_on,0,0,0,,12,,,47,127
196356,note_off,105,0,0,,7,,,67,127
196358,note_on,2,0,0,,6,,,66,127
196463,note_off,105,0,0,,6,,,66,127
196465,note_on,2,0,0,,7,,,67,127
196570,note_off,105,0,0,,7,,,67,127
196570,note_off,0,0,0,,12,,,47,127
196572,note_on,2,0,0,,6,,,66,127
196572,note_on,0,0,0,,12,,,47,127
196730,note_off,158,0,0,,6,,,66,127
196732,note_on,2,0,0,,4,,,64,127
196890,note_off,158,0,0,,4,,,64,127
196890,note_off,0,0,0,,12,,,47,127
196892,note_on,2,0,0,,4,,,64,127
196892,note_on,0,0,0,,4,,,40,127
197210,note_off,318,0,0,,4,,,40,127
197210,note_off,0,0,0,,4,,,64,127
197212,note_on,2,0,0,,4,,,64,127
197212,note_on,0,0,0,,4,,,52,127
197530,note_off,318,0,0,,4,,,52,127
197530,note_off,0,0,0,,4,,,64,127
197532,note_on,2,0,0,,2,,,62,127
197532,note_on,0,0,0,,2,,,50,127
197637,note_off,105,0,0,,2,,,50,127
197637,note_off,0,0,0,,2,,,62,127
197639,note_on,2,0,0,,4,,,64,127
197639,note_on,0,0,0,,4,,,52,127
197744,note_off,105,0,0,,4,,,52,127
197744,note_off,0,0,0,,4,,,64,127
197746,note_on,2,0,0,,0,,,60,127
197746,note_on,0,0,0,,0,,,48,127
197851,note_off,105,0,0,,0,,,48,127
197851,note_off,0,0,0,,0,,,60,127
197853,note_on,2,0,0,,12,,,59,127
197853,note_on,0,0,0,,12,,,47,127
197958,note_off,105,0,0,,12,,,47,127
197958,note_off,0,0,0,,12,,,59,127
197960,note_on,2,0,0,,0,,,60,127
197960,note_on,0,0,0,,0,,,48,127
198065,note_off,105,0,0,,0,,,48,127
198065,note_off,0,0,0,,0,,,60,127
198067,note_on,2,0,0,,10,,,57,127
198067,note_on,0,0,0,,10,,,45,127
198172,note_off,105,0,0,,10,,,45,127
198172,note_off,0,0,0,,10,,,57,127
198174,note_on,2,0,0,,7,,,55,127
198174,note_on,0,0,0,,7,,,43,127
198279,note_off,105,0,0,,7,,,55,127
198281,note_on,2,0,0,,10,,,57,127
198386,note_off,105,0,0,,10,,,57,127
198388,note_on,2,0,0,,6,,,54,127
198493,note_off,105,0,0,,6,,,54,127
198493,note_off,0,0,0,,7,,,43,127
198495,note_on,2,0,0,,4,,,52,127
198495,note_on,0,0,0,,4,,,40,127
198653,note_off,158,0,0,,4,,,52,127
198655,note_on,2,0,0,,4,,,64,127
198813,note_off,158,0,0,,4,,,64,127
198813,note_off,0,0,0,,4,,,40,127
198815,note_on,2,0,0,,4,,,52,127
198815,note_on,0,0,0,,12,,,47,127
199133,note_off,318,0,0,,12,,,47,127
199133,note_off,0,0,0,,4,,,52,127
199135,note_on,2,0,0,,3,,,51,127
199135,note_on,0,0,0,,12,,,47,127
199453,note_off,318,0,0,,12,,,47,127
199453,note_off,0,0,0,,3,,,51,127
199463,note_on,10,0,0,,4,,,52,127
199463,note_on,0,0,0,,4,,,40,127
201650,note_off,2187,0,0,,4,,,40,127
201650,note_off,0,0,0,,4,,,52,127
202752,end_of_track,1102,1,0,,,,,,
