tick,type,time,meta,track,program,channel,pitch,tempo,note,velocity
0,copyright,0,1,0,,,,,,
0,program_change,0,0,0,6,0,,,,
0,pitchwheel,0,0,0,,0,0,,,
0,program_change,0,0,0,6,1,,,,
0,pitchwheel,0,0,0,,1,-590,,,
0,program_change,0,0,0,6,2,,,,
0,pitchwheel,0,0,0,,2,-272,,,
0,program_change,0,0,0,6,3,,,,
0,pitchwheel,0,0,0,,3,-353,,,
0,program_change,0,0,0,6,4,,,,
0,pitchwheel,0,0,0,,4,-560,,,
0,program_change,0,0,0,6,5,,,,
0,pitchwheel,0,0,0,,5,-80,,,
0,program_change,0,0,0,6,6,,,,
0,pitchwheel,0,0,0,,6,-625,,,
0,program_change,0,0,0,6,7,,,,
0,pitchwheel,0,0,0,,7,-130,,,
0,program_change,0,0,0,6,8,,,,
0,pitchwheel,0,0,0,,8,-512,,,
0,program_change,0,0,0,6,10,,,,
0,pitchwheel,0,0,0,,10,-464,,,
0,program_change,0,0,0,6,11,,,,
0,pitchwheel,0,0,0,,11,-208,,,
0,program_change,0,0,0,6,12,,,,
0,pitchwheel,0,0,0,,12,-553,,,
0,set_tempo,0,1,0,,,,500000,,
82,note_on,82,0,0,,4,,,40,127
191,note_off,109,0,0,,4,,,40,127
191,note_on,0,0,0,,8,,,44,127
300,note_off,109,0,0,,8,,,44,127
300,note_on,0,0,0,,12,,,47,127
409,note_off,109,0,0,,12,,,47,127
409,note_on,0,0,0,,4,,,52,127
518,note_off,109,0,0,,4,,,52,127
518,note_on,0,0,0,,8,,,56,127
627,note_off,109,0,0,,8,,,56,127
627,note_on,0,0,0,,12,,,59,127
736,note_off,109,0,0,,12,,,59,127
741,note_on,5,0,0,,4,,,64,127
741,note_on,0,0,0,,8,,,68,127
782,note_off,41,0,0,,8,,,68,127
782,note_on,0,0,0,,6,,,66,127
823,note_off,41,0,0,,6,,,66,127
823,note_on,0,0,0,,8,,,68,127
864,note_off,41,0,0,,8,,,68,127
864,note_on,0,0,0,,6,,,66,127
1069,note_off,205,0,0,,4,,,64,127
1070,note_on,1,0,0,,3,,,63,127
1179,note_off,109,0,0,,6,,,66,127
1180,note_on,1,0,0,,8,,,68,127
1289,note_off,109,0,0,,8,,,68,127
1290,note_on,1,0,0,,10,,,69,127
1399,note_off,109,0,0,,10,,,69,127
1399,note_off,0,0,0,,3,,,63,127
1400,note_on,1,0,0,,4,,,64,127
1400,note_on,0,0,0,,8,,,68,127
1509,note_off,109,0,0,,8,,,68,127
1509,note_on,0,0,0,,12,,,71,127
1618,note_off,109,0,0,,12,,,71,127
1618,note_on,0,0,0,,4,,,76,127
1727,note_off,109,0,0,,4,,,76,127
1727,note_on,0,0,0,,8,,,80,127
1729,note_off,2,0,0,,4,,,64,127
1836,note_off,107,0,0,,8,,,80,127
1836,note_on,0,0,0,,12,,,83,127
1945,note_off,109,0,0,,12,,,83,127
1945,note_on,0,0,0,,4,,,88,127
2054,note_off,109,0,0,,4,,,88,127
2080,note_on,26,0,0,,4,,,40,127
2189,note_off,109,0,0,,4,,,40,127
2189,note_on,0,0,0,,8,,,44,127
2298,note_off,109,0,0,,8,,,44,127
2298,note_on,0,0,0,,12,,,47,127
2407,note_off,109,0,0,,12,,,47,127
2407,note_on,0,0,0,,4,,,52,127
2516,note_off,109,0,0,,4,,,52,127
2516,note_on,0,0,0,,8,,,56,127
2625,note_off,109,0,0,,8,,,56,127
2625,note_on,0,0,0,,12,,,59,127
2734,note_off,109,0,0,,12,,,59,127
2739,note_on,5,0,0,,4,,,64,127
2739,note_on,0,0,0,,8,,,68,127
2780,note_off,41,0,0,,8,,,68,127
2780,note_on,0,0,0,,6,,,66,127
2821,note_off,41,0,0,,6,,,66,127
2821,note_on,0,0,0,,8,,,68,127
2862,note_off,41,0,0,,8,,,68,127
2862,note_on,0,0,0,,6,,,66,127
3067,note_off,205,0,0,,4,,,64,127
3068,note_on,1,0,0,,3,,,63,127
3177,note_off,109,0,0,,6,,,66,127
3178,note_on,1,0,0,,8,,,68,127
3287,note_off,109,0,0,,8,,,68,127
3288,note_on,1,0,0,,10,,,69,127
3397,note_off,109,0,0,,10,,,69,127
3397,note_off,0,0,0,,3,,,63,127
3398,note_on,1,0,0,,4,,,64,127
3398,note_on,0,0,0,,8,,,68,127
3507,note_off,109,0,0,,8,,,68,127
3508,note_on,1,0,0,,3,,,75,127
3617,note_off,109,0,0,,3,,,75,127
3618,note_on,1,0,0,,1,,,73,127
3727,note_off,109,0,0,,4,,,64,127
3728,note_on,1,0,0,,3,,,63,127
3728,note_on,0,0,0,,6,,,66,127
3837,note_off,109,0,0,,1,,,73,127
3838,note_on,1,0,0,,1,,,73,127
3947,note_off,109,0,0,,1,,,73,127
3948,note_on,1,0,0,,12,,,71,127
4057,note_off,109,0,0,,6,,,66,127
4057,note_off,0,0,0,,3,,,63,127
4058,note_on,1,0,0,,4,,,64,127
4058,note_on,0,0,0,,1,,,61,127
4167,note_off,109,0,0,,12,,,71,127
4168,note_on,1,0,0,,11,,,70,127
4277,note_off,109,0,0,,11,,,70,127
4278,note_on,1,0,0,,12,,,71,127
4387,note_off,109,0,0,,12,,,71,127
4387,note_off,0,0,0,,1,,,61,127
4387,note_off,0,0,0,,4,,,64,127
4388,note_on,1,0,0,,11,,,58,127
4388,note_on,0,0,0,,1,,,73,127
4497,note_off,109,0,0,,1,,,73,127
4498,note_on,1,0,0,,6,,,66,127
4607,note_off,109,0,0,,6,,,66,127
4608,note_on,1,0,0,,4,,,64,127
4717,note_off,109,0,0,,4,,,64,127
4717,note_off,0,0,0,,11,,,58,127
4718,note_on,1,0,0,,12,,,47,127
4718,note_on,0,0,0,,3,,,63,127
4759,note_off,41,0,0,,3,,,63,127
4759,note_on,0,0,0,,4,,,64,127
4800,note_off,41,0,0,,4,,,64,127
4800,note_on,0,0,0,,3,,,63,127
4827,note_off,27,0,0,,12,,,47,127
4827,note_on,0,0,0,,3,,,51,127
4924,note_off,97,0,0,,3,,,63,127
4936,note_off,12,0,0,,3,,,51,127
4936,note_on,0,0,0,,6,,,54,127
5045,note_off,109,0,0,,6,,,54,127
5045,note_on,0,0,0,,12,,,59,127
5154,note_off,109,0,0,,12,,,59,127
5154,note_on,0,0,0,,3,,,63,127
5263,note_off,109,0,0,,3,,,63,127
5263,note_on,0,0,0,,6,,,66,127
5372,note_off,109,0,0,,6,,,66,127
5387,note_on,15,0,0,,12,,,71,127
5387,note_on,0,0,0,,3,,,75,127
5428,note_off,41,0,0,,3,,,75,127
5428,note_on,0,0,0,,1,,,73,127
5469,note_off,41,0,0,,1,,,73,127
5469,note_on,0,0,0,,3,,,75,127
5510,note_off,41,0,0,,3,,,75,127
5510,note_on,0,0,0,,1,,,73,127
5715,note_off,205,0,0,,12,,,71,127
5716,note_on,1,0,0,,11,,,70,127
5825,note_off,109,0,0,,1,,,73,127
5826,note_on,1,0,0,,3,,,75,127
5935,note_off,109,0,0,,3,,,75,127
5936,note_on,1,0,0,,4,,,76,127
6045,note_off,109,0,0,,4,,,76,127
6045,note_off,0,0,0,,11,,,70,127
6046,note_on,1,0,0,,12,,,71,127
6046,note_on,0,0,0,,3,,,75,127
6155,note_off,109,0,0,,3,,,75,127
6155,note_on,0,0,0,,12,,,83,127
6264,note_off,109,0,0,,12,,,83,127
6264,note_on,0,0,0,,6,,,78,127
6373,note_off,109,0,0,,6,,,78,127
6373,note_on,0,0,0,,3,,,75,127
6375,note_off,2,0,0,,12,,,71,127
6482,note_off,107,0,0,,3,,,75,127
6482,note_on,0,0,0,,12,,,71,127
6591,note_off,109,0,0,,12,,,71,127
6591,note_on,0,0,0,,6,,,66,127
6700,note_off,109,0,0,,6,,,66,127
6710,note_on,10,0,0,,12,,,47,127
6819,note_off,109,0,0,,12,,,47,127
6819,note_on,0,0,0,,3,,,51,127
6928,note_off,109,0,0,,3,,,51,127
6928,note_on,0,0,0,,6,,,54,127
7037,note_off,109,0,0,,6,,,54,127
7037,note_on,0,0,0,,12,,,59,127
7146,note_off,109,0,0,,12,,,59,127
7146,note_on,0,0,0,,3,,,63,127
7255,note_off,109,0,0,,3,,,63,127
7255,note_on,0,0,0,,6,,,66,127
7364,note_off,109,0,0,,6,,,66,127
7369,note_on,5,0,0,,3,,,75,127
7369,note_on,0,0,0,,12,,,71,127
7410,note_off,41,0,0,,3,,,75,127
7410,note_on,0,0,0,,1,,,73,127
7451,note_off,41,0,0,,1,,,73,127
7451,note_on,0,0,0,,3,,,75,127
7492,note_off,41,0,0,,3,,,75,127
7492,note_on,0,0,0,,1,,,73,127
7697,note_off,205,0,0,,12,,,71,127
7698,note_on,1,0,0,,11,,,70,127
7807,note_off,109,0,0,,1,,,73,127
7808,note_on,1,0,0,,3,,,75,127
7917,note_off,109,0,0,,3,,,75,127
7918,note_on,1,0,0,,4,,,76,127
8027,note_off,109,0,0,,4,,,76,127
8027,note_off,0,0,0,,11,,,70,127
8028,note_on,1,0,0,,3,,,75,127
8028,note_on,0,0,0,,12,,,71,127
8137,note_off,109,0,0,,3,,,75,127
8138,note_on,1,0,0,,11,,,82,127
8247,note_off,109,0,0,,11,,,82,127
8248,note_on,1,0,0,,8,,,80,127
8357,note_off,109,0,0,,12,,,71,127
8358,note_on,1,0,0,,1,,,73,127
8358,note_on,0,0,0,,11,,,70,127
8467,note_off,109,0,0,,8,,,80,127
8468,note_on,1,0,0,,8,,,80,127
8577,note_off,109,0,0,,8,,,80,127
8578,note_on,1,0,0,,6,,,78,127
8687,note_off,109,0,0,,11,,,70,127
8687,note_off,0,0,0,,1,,,73,127
8688,note_on,1,0,0,,12,,,71,127
8688,note_on,0,0,0,,8,,,68,127
8797,note_off,109,0,0,,6,,,78,127
8798,note_on,1,0,0,,5,,,77,127
8907,note_off,109,0,0,,5,,,77,127
8908,note_on,1,0,0,,6,,,78,127
9017,note_off,109,0,0,,6,,,78,127
9017,note_off,0,0,0,,8,,,68,127
9017,note_off,0,0,0,,12,,,71,127
9018,note_on,1,0,0,,8,,,80,127
9018,note_on,0,0,0,,5,,,65,127
9127,note_off,109,0,0,,8,,,80,127
9128,note_on,1,0,0,,1,,,73,127
9237,note_off,109,0,0,,1,,,73,127
9238,note_on,1,0,0,,12,,,71,127
9347,note_off,109,0,0,,5,,,65,127
9348,note_on,1,0,0,,6,,,66,127
9410,note_off,62,0,0,,12,,,71,127
9458,note_on,48,0,0,,11,,,70,127
9567,note_off,109,0,0,,11,,,70,127
9568,note_on,1,0,0,,6,,,78,127
9677,note_off,109,0,0,,6,,,78,127
9677,note_off,0,0,0,,6,,,66,127
9678,note_on,1,0,0,,8,,,80,127
9678,note_on,0,0,0,,8,,,68,127
9678,note_on,0,0,0,,5,,,65,127
9787,note_off,109,0,0,,8,,,80,127
9788,note_on,1,0,0,,1,,,73,127
9897,note_off,109,0,0,,1,,,73,127
9898,note_on,1,0,0,,12,,,71,127
10007,note_off,109,0,0,,5,,,65,127
10007,note_off,0,0,0,,8,,,68,127
10008,note_on,1,0,0,,6,,,66,127
10035,note_off,27,0,0,,12,,,71,127
10117,note_on,82,0,0,,11,,,70,127
10226,note_off,109,0,0,,11,,,70,127
10227,note_on,1,0,0,,6,,,78,127
10336,note_off,109,0,0,,6,,,78,127
10336,note_off,0,0,0,,6,,,66,127
10337,note_on,1,0,0,,8,,,80,127
10337,note_on,0,0,0,,8,,,68,127
10337,note_on,0,0,0,,5,,,65,127
10446,note_off,109,0,0,,8,,,80,127
10447,note_on,1,0,0,,1,,,73,127
10556,note_off,109,0,0,,1,,,73,127
10557,note_on,1,0,0,,12,,,71,127
10666,note_off,109,0,0,,12,,,71,127
10666,note_off,0,0,0,,5,,,65,127
10666,note_off,0,0,0,,8,,,68,127
10667,note_on,1,0,0,,1,,,73,127
10667,note_on,0,0,0,,6,,,66,127
10708,note_off,41,0,0,,1,,,73,127
10708,note_on,0,0,0,,12,,,71,127
10749,note_off,41,0,0,,12,,,71,127
10749,note_on,0,0,0,,1,,,73,127
10790,note_off,41,0,0,,1,,,73,127
10790,note_on,0,0,0,,12,,,71,127
10879,note_off,89,0,0,,12,,,71,127
10886,note_on,7,0,0,,11,,,70,127
11324,note_off,438,0,0,,11,,,70,127
11324,note_off,0,0,0,,6,,,66,127
11462,note_on,138,0,0,,7,,,55,127
11462,note_on,0,0,0,,6,,,54,127
11571,note_off,109,0,0,,7,,,55,127
11572,note_on,1,0,0,,11,,,58,127
11681,note_off,109,0,0,,11,,,58,127
11682,note_on,1,0,0,,1,,,61,127
11791,note_off,109,0,0,,1,,,61,127
11791,note_off,0,0,0,,6,,,54,127
11792,note_on,1,0,0,,4,,,64,127
11792,note_on,0,0,0,,4,,,52,127
11901,note_off,109,0,0,,4,,,64,127
11902,note_on,1,0,0,,7,,,67,127
12011,note_off,109,0,0,,7,,,67,127
12012,note_on,1,0,0,,11,,,70,127
12121,note_off,109,0,0,,4,,,52,127
12122,note_on,1,0,0,,2,,,50,127
12231,note_off,109,0,0,,11,,,70,127
12232,note_on,1,0,0,,12,,,71,127
12341,note_off,109,0,0,,12,,,71,127
12342,note_on,1,0,0,,7,,,67,127
12451,note_off,109,0,0,,2,,,50,127
12452,note_on,1,0,0,,12,,,47,127
12561,note_off,109,0,0,,7,,,67,127
12562,note_on,1,0,0,,6,,,66,127
12671,note_off,109,0,0,,6,,,66,127
12672,note_on,1,0,0,,4,,,64,127
12781,note_off,109,0,0,,12,,,47,127
12782,note_on,1,0,0,,7,,,43,127
12891,note_off,109,0,0,,4,,,64,127
12892,note_on,1,0,0,,2,,,62,127
13001,note_off,109,0,0,,2,,,62,127
13002,note_on,1,0,0,,1,,,61,127
13111,note_off,109,0,0,,1,,,61,127
13111,note_off,0,0,0,,7,,,43,127
13112,note_on,1,0,0,,1,,,61,127
13112,note_on,0,0,0,,12,,,59,127
13112,note_on,0,0,0,,7,,,55,127
13221,note_off,109,0,0,,12,,,59,127
13221,note_off,0,0,0,,1,,,61,127
13222,note_on,1,0,0,,11,,,58,127
13331,note_off,109,0,0,,11,,,58,127
13332,note_on,1,0,0,,12,,,59,127
13441,note_off,109,0,0,,12,,,59,127
13441,note_off,0,0,0,,7,,,55,127
13442,note_on,1,0,0,,12,,,59,127
13442,note_on,0,0,0,,6,,,42,127
13661,note_off,219,0,0,,12,,,59,127
13662,note_on,1,0,0,,1,,,61,127
14100,note_off,438,0,0,,1,,,61,127
14100,note_off,0,0,0,,6,,,42,127
14183,note_on,83,0,0,,6,,,66,127
14183,note_on,0,0,0,,7,,,67,127
14292,note_off,109,0,0,,7,,,67,127
14293,note_on,1,0,0,,11,,,70,127
14402,note_off,109,0,0,,11,,,70,127
14403,note_on,1,0,0,,1,,,73,127
14512,note_off,109,0,0,,1,,,73,127
14512,note_off,0,0,0,,6,,,66,127
14513,note_on,1,0,0,,4,,,64,127
14513,note_on,0,0,0,,4,,,76,127
14622,note_off,109,0,0,,4,,,76,127
14623,note_on,1,0,0,,7,,,79,127
14732,note_off,109,0,0,,7,,,79,127
14733,note_on,1,0,0,,11,,,82,127
14842,note_off,109,0,0,,4,,,64,127
14843,note_on,1,0,0,,2,,,62,127
14952,note_off,109,0,0,,11,,,82,127
14953,note_on,1,0,0,,12,,,83,127
15062,note_off,109,0,0,,12,,,83,127
15063,note_on,1,0,0,,7,,,79,127
15172,note_off,109,0,0,,2,,,62,127
15173,note_on,1,0,0,,12,,,59,127
15282,note_off,109,0,0,,7,,,79,127
15283,note_on,1,0,0,,6,,,78,127
15392,note_off,109,0,0,,6,,,78,127
15393,note_on,1,0,0,,4,,,76,127
15502,note_off,109,0,0,,12,,,59,127
15503,note_on,1,0,0,,7,,,55,127
15612,note_off,109,0,0,,4,,,76,127
15613,note_on,1,0,0,,2,,,74,127
15722,note_off,109,0,0,,2,,,74,127
15723,note_on,1,0,0,,1,,,73,127
15832,note_off,109,0,0,,1,,,73,127
15832,note_off,0,0,0,,7,,,55,127
15833,note_on,1,0,0,,7,,,43,127
15833,note_on,0,0,0,,12,,,71,127
15833,note_on,0,0,0,,1,,,73,127
15942,note_off,109,0,0,,1,,,73,127
15942,note_off,0,0,0,,12,,,71,127
15943,note_on,1,0,0,,11,,,70,127
16052,note_off,109,0,0,,11,,,70,127
16053,note_on,1,0,0,,12,,,71,127
16162,note_off,109,0,0,,12,,,71,127
16162,note_off,0,0,0,,7,,,43,127
16163,note_on,1,0,0,,6,,,42,127
16163,note_on,0,0,0,,12,,,71,127
16413,note_on,250,0,0,,1,,,73,127
16416,note_off,3,0,0,,12,,,71,127
16821,note_off,405,0,0,,6,,,42,127
16853,note_off,32,0,0,,1,,,73,127
16987,note_on,134,0,0,,12,,,35,127
17096,note_off,109,0,0,,12,,,35,127
17097,note_on,1,0,0,,6,,,66,127
17097,note_on,0,0,0,,3,,,75,127
17206,note_off,109,0,0,,3,,,75,127
17206,note_off,0,0,0,,6,,,66,127
17207,note_on,1,0,0,,3,,,63,127
17207,note_on,0,0,0,,6,,,78,127
17316,note_off,109,0,0,,6,,,78,127
17316,note_off,0,0,0,,3,,,63,127
17317,note_on,1,0,0,,3,,,63,127
17317,note_on,0,0,0,,6,,,78,127
17426,note_off,109,0,0,,6,,,78,127
17426,note_off,0,0,0,,3,,,63,127
17427,note_on,1,0,0,,6,,,66,127
17427,note_on,0,0,0,,3,,,75,127
17536,note_off,109,0,0,,3,,,75,127
17536,note_off,0,0,0,,6,,,66,127
17537,note_on,1,0,0,,3,,,63,127
17537,note_on,0,0,0,,6,,,78,127
17646,note_off,109,0,0,,6,,,78,127
17646,note_off,0,0,0,,3,,,63,127
17647,note_on,1,0,0,,12,,,35,127
17647,note_on,0,0,0,,12,,,83,127
17756,note_off,109,0,0,,12,,,83,127
17756,note_off,0,0,0,,12,,,35,127
17757,note_on,1,0,0,,6,,,66,127
17757,note_on,0,0,0,,3,,,75,127
17866,note_off,109,0,0,,3,,,75,127
17866,note_off,0,0,0,,6,,,66,127
17867,note_on,1,0,0,,3,,,63,127
17867,note_on,0,0,0,,6,,,78,127
17976,note_off,109,0,0,,6,,,78,127
17976,note_off,0,0,0,,3,,,63,127
17977,note_on,1,0,0,,3,,,63,127
17977,note_on,0,0,0,,6,,,78,127
18086,note_off,109,0,0,,6,,,78,127
18086,note_off,0,0,0,,3,,,63,127
18087,note_on,1,0,0,,6,,,66,127
18087,note_on,0,0,0,,3,,,75,127
18196,note_off,109,0,0,,3,,,75,127
18196,note_off,0,0,0,,6,,,66,127
18197,note_on,1,0,0,,3,,,63,127
18197,note_on,0,0,0,,6,,,78,127
18306,note_off,109,0,0,,6,,,78,127
18306,note_off,0,0,0,,3,,,63,127
18307,note_on,1,0,0,,12,,,35,127
18307,note_on,0,0,0,,12,,,83,127
18416,note_off,109,0,0,,12,,,83,127
18416,note_off,0,0,0,,12,,,35,127
18417,note_on,1,0,0,,6,,,66,127
18417,note_on,0,0,0,,3,,,75,127
18526,note_off,109,0,0,,3,,,75,127
18526,note_off,0,0,0,,6,,,66,127
18527,note_on,1,0,0,,3,,,63,127
18527,note_on,0,0,0,,6,,,78,127
18636,note_off,109,0,0,,6,,,78,127
18636,note_off,0,0,0,,3,,,63,127
18637,note_on,1,0,0,,3,,,63,127
18637,note_on,0,0,0,,6,,,78,127
18746,note_off,109,0,0,,6,,,78,127
18746,note_off,0,0,0,,3,,,63,127
18747,note_on,1,0,0,,6,,,66,127
18747,note_on,0,0,0,,3,,,75,127
18856,note_off,109,0,0,,3,,,75,127
18856,note_off,0,0,0,,6,,,66,127
18857,note_on,1,0,0,,3,,,63,127
18857,note_on,0,0,0,,6,,,78,127
18958,note_off,101,0,0,,6,,,78,127
18966,note_off,8,0,0,,3,,,63,127
18967,note_on,1,0,0,,12,,,35,127
18967,note_on,0,0,0,,12,,,83,127
19076,note_off,109,0,0,,12,,,83,127
19077,note_on,1,0,0,,6,,,78,127
19186,note_off,109,0,0,,6,,,78,127
19187,note_on,1,0,0,,3,,,75,127
19296,note_off,109,0,0,,3,,,75,127
19296,note_off,0,0,0,,12,,,35,127
19297,note_on,1,0,0,,4,,,40,127
19297,note_on,0,0,0,,8,,,80,127
19406,note_off,109,0,0,,8,,,80,127
19407,note_on,1,0,0,,4,,,76,127
19516,note_off,109,0,0,,4,,,76,127
19517,note_on,1,0,0,,1,,,73,127
19626,note_off,109,0,0,,1,,,73,127
19626,note_off,0,0,0,,4,,,40,127
19627,note_on,1,0,0,,6,,,42,127
19627,note_on,0,0,0,,3,,,75,127
19736,note_off,109,0,0,,3,,,75,127
19737,note_on,1,0,0,,6,,,78,127
19846,note_off,109,0,0,,6,,,78,127
19847,note_on,1,0,0,,12,,,71,127
19956,note_off,109,0,0,,12,,,71,127
19956,note_off,0,0,0,,6,,,42,127
19957,note_on,1,0,0,,6,,,42,127
19957,note_on,0,0,0,,1,,,73,127
20066,note_off,109,0,0,,1,,,73,127
20067,note_on,1,0,0,,6,,,78,127
20176,note_off,109,0,0,,6,,,78,127
20177,note_on,1,0,0,,11,,,70,127
20286,note_off,109,0,0,,11,,,70,127
20286,note_off,0,0,0,,6,,,42,127
20287,note_on,1,0,0,,12,,,35,127
20287,note_on,0,0,0,,1,,,73,127
20328,note_off,41,0,0,,1,,,73,127
20328,note_on,0,0,0,,12,,,71,127
20369,note_off,41,0,0,,12,,,71,127
20369,note_on,0,0,0,,1,,,73,127
20410,note_off,41,0,0,,1,,,73,127
20410,note_on,0,0,0,,12,,,71,127
20944,note_off,534,0,0,,12,,,35,127
21164,note_off,220,0,0,,12,,,71,127
21291,note_on,127,0,0,,1,,,37,127
21401,note_on,110,0,0,,12,,,83,127
21510,note_off,109,0,0,,12,,,83,127
21511,note_on,1,0,0,,8,,,80,127
21620,note_off,109,0,0,,8,,,80,127
21621,note_on,1,0,0,,5,,,77,127
21730,note_off,109,0,0,,5,,,77,127
21731,note_on,1,0,0,,2,,,74,127
21840,note_off,109,0,0,,2,,,74,127
21841,note_on,1,0,0,,12,,,71,127
21950,note_off,109,0,0,,12,,,71,127
21950,note_off,0,0,0,,1,,,37,127
21951,note_on,1,0,0,,1,,,37,127
21951,note_on,0,0,0,,8,,,68,127
22060,note_off,109,0,0,,8,,,68,127
22061,note_on,1,0,0,,5,,,65,127
22170,note_off,109,0,0,,5,,,65,127
22171,note_on,1,0,0,,2,,,62,127
22280,note_off,109,0,0,,2,,,62,127
22281,note_on,1,0,0,,12,,,59,127
22390,note_off,109,0,0,,12,,,59,127
22391,note_on,1,0,0,,8,,,56,127
22500,note_off,109,0,0,,8,,,56,127
22501,note_on,1,0,0,,5,,,53,127
22610,note_off,109,0,0,,1,,,37,127
22611,note_on,1,0,0,,1,,,37,127
22720,note_off,109,0,0,,5,,,53,127
22721,note_on,1,0,0,,2,,,62,127
22830,note_off,109,0,0,,2,,,62,127
22831,note_on,1,0,0,,1,,,61,127
22940,note_off,109,0,0,,1,,,61,127
22941,note_on,1,0,0,,12,,,59,127
23050,note_off,109,0,0,,12,,,59,127
23051,note_on,1,0,0,,10,,,57,127
23160,note_off,109,0,0,,10,,,57,127
23161,note_on,1,0,0,,8,,,56,127
23270,note_off,109,0,0,,8,,,56,127
23270,note_off,0,0,0,,1,,,37,127
23271,note_on,1,0,0,,6,,,42,127
23271,note_on,0,0,0,,8,,,56,127
23599,note_off,328,0,0,,8,,,56,127
23600,note_on,1,0,0,,10,,,57,127
23641,note_off,41,0,0,,10,,,57,127
23641,note_on,0,0,0,,8,,,56,127
23682,note_off,41,0,0,,8,,,56,127
23682,note_on,0,0,0,,10,,,57,127
23896,note_off,214,0,0,,10,,,57,127
23928,note_off,32,0,0,,6,,,42,127
23949,note_on,21,0,0,,12,,,35,127
24059,note_on,110,0,0,,10,,,81,127
24168,note_off,109,0,0,,10,,,81,127
24169,note_on,1,0,0,,6,,,78,127
24278,note_off,109,0,0,,6,,,78,127
24279,note_on,1,0,0,,3,,,75,127
24388,note_off,109,0,0,,3,,,75,127
24389,note_on,1,0,0,,0,,,72,127
24498,note_off,109,0,0,,0,,,72,127
24499,note_on,1,0,0,,10,,,69,127
24608,note_off,109,0,0,,10,,,69,127
24608,note_off,0,0,0,,12,,,35,127
24609,note_on,1,0,0,,6,,,66,127
24609,note_on,0,0,0,,12,,,35,127
24718,note_off,109,0,0,,6,,,66,127
24719,note_on,1,0,0,,3,,,63,127
24828,note_off,109,0,0,,3,,,63,127
24829,note_on,1,0,0,,0,,,60,127
24938,note_off,109,0,0,,0,,,60,127
24939,note_on,1,0,0,,10,,,57,127
25048,note_off,109,0,0,,10,,,57,127
25049,note_on,1,0,0,,6,,,54,127
25158,note_off,109,0,0,,6,,,54,127
25159,note_on,1,0,0,,3,,,51,127
25268,note_off,109,0,0,,12,,,35,127
25269,note_on,1,0,0,,12,,,35,127
25378,note_off,109,0,0,,3,,,51,127
25379,note_on,1,0,0,,0,,,60,127
25488,note_off,109,0,0,,0,,,60,127
25489,note_on,1,0,0,,12,,,59,127
25598,note_off,109,0,0,,12,,,59,127
25599,note_on,1,0,0,,10,,,57,127
25708,note_off,109,0,0,,10,,,57,127
25709,note_on,1,0,0,,7,,,55,127
25818,note_off,109,0,0,,7,,,55,127
25819,note_on,1,0,0,,6,,,54,127
25928,note_off,109,0,0,,6,,,54,127
25928,note_off,0,0,0,,12,,,35,127
25929,note_on,1,0,0,,6,,,54,127
25929,note_on,0,0,0,,4,,,40,127
26257,note_off,328,0,0,,6,,,54,127
26258,note_on,1,0,0,,7,,,55,127
26299,note_off,41,0,0,,7,,,55,127
26299,note_on,0,0,0,,6,,,54,127
26340,note_off,41,0,0,,6,,,54,127
26340,note_on,0,0,0,,7,,,55,127
26554,note_off,214,0,0,,7,,,55,127
26586,note_off,32,0,0,,4,,,40,127
26642,note_on,56,0,0,,6,,,42,127
26752,note_on,110,0,0,,4,,,88,127
26861,note_off,109,0,0,,4,,,88,127
26862,note_on,1,0,0,,1,,,85,127
26971,note_off,109,0,0,,1,,,85,127
26972,note_on,1,0,0,,11,,,82,127
27081,note_off,109,0,0,,11,,,82,127
27082,note_on,1,0,0,,7,,,79,127
27191,note_off,109,0,0,,7,,,79,127
27192,note_on,1,0,0,,4,,,76,127
27301,note_off,109,0,0,,4,,,76,127
27301,note_off,0,0,0,,6,,,42,127
27302,note_on,1,0,0,,6,,,42,127
27302,note_on,0,0,0,,1,,,73,127
27411,note_off,109,0,0,,1,,,73,127
27412,note_on,1,0,0,,11,,,70,127
27521,note_off,109,0,0,,11,,,70,127
27522,note_on,1,0,0,,7,,,67,127
27631,note_off,109,0,0,,7,,,67,127
27632,note_on,1,0,0,,4,,,64,127
27741,note_off,109,0,0,,4,,,64,127
27742,note_on,1,0,0,,1,,,61,127
27851,note_off,109,0,0,,1,,,61,127
27852,note_on,1,0,0,,11,,,58,127
27961,note_off,109,0,0,,11,,,58,127
27961,note_off,0,0,0,,6,,,42,127
27962,note_on,1,0,0,,6,,,42,127
27962,note_on,0,0,0,,6,,,54,127
28071,note_off,109,0,0,,6,,,54,127
28072,note_on,1,0,0,,7,,,67,127
28181,note_off,109,0,0,,7,,,67,127
28182,note_on,1,0,0,,6,,,66,127
28291,note_off,109,0,0,,6,,,66,127
28292,note_on,1,0,0,,4,,,64,127
28401,note_off,109,0,0,,4,,,64,127
28402,note_on,1,0,0,,2,,,62,127
28511,note_off,109,0,0,,2,,,62,127
28512,note_on,1,0,0,,1,,,61,127
28621,note_off,109,0,0,,1,,,61,127
28621,note_off,0,0,0,,6,,,42,127
28622,note_on,1,0,0,,12,,,47,127
28622,note_on,0,0,0,,1,,,61,127
28841,note_off,219,0,0,,1,,,61,127
28842,note_on,1,0,0,,2,,,62,127
28951,note_off,109,0,0,,12,,,47,127
28952,note_on,1,0,0,,12,,,59,127
29061,note_off,109,0,0,,2,,,62,127
29062,note_on,1,0,0,,1,,,73,127
29171,note_off,109,0,0,,1,,,73,127
29172,note_on,1,0,0,,2,,,74,127
29281,note_off,109,0,0,,12,,,59,127
29282,note_on,1,0,0,,7,,,55,127
29391,note_off,109,0,0,,2,,,74,127
29392,note_on,1,0,0,,11,,,70,127
29501,note_off,109,0,0,,11,,,70,127
29502,note_on,1,0,0,,12,,,71,127
29611,note_off,109,0,0,,7,,,55,127
29612,note_on,1,0,0,,7,,,55,127
29721,note_off,109,0,0,,12,,,71,127
29722,note_on,1,0,0,,7,,,67,127
29831,note_off,109,0,0,,7,,,67,127
29832,note_on,1,0,0,,6,,,66,127
29941,note_off,109,0,0,,7,,,55,127
29942,note_on,1,0,0,,7,,,55,127
30051,note_off,109,0,0,,6,,,66,127
30052,note_on,1,0,0,,4,,,64,127
30161,note_off,109,0,0,,4,,,64,127
30162,note_on,1,0,0,,2,,,62,127
30271,note_off,109,0,0,,7,,,55,127
30272,note_on,1,0,0,,7,,,55,127
30381,note_off,109,0,0,,2,,,62,127
30382,note_on,1,0,0,,1,,,61,127
30491,note_off,109,0,0,,1,,,61,127
30492,note_on,1,0,0,,12,,,59,127
30601,note_off,109,0,0,,12,,,59,127
30601,note_off,0,0,0,,7,,,55,127
30602,note_on,1,0,0,,6,,,42,127
30602,note_on,0,0,0,,12,,,59,127
30838,note_off,236,0,0,,12,,,59,127
30839,note_on,1,0,0,,1,,,61,127
31260,note_off,421,0,0,,6,,,42,127
31277,note_off,17,0,0,,1,,,61,127
31425,note_on,148,0,0,,12,,,35,127
31534,note_off,109,0,0,,12,,,35,127
31535,note_on,1,0,0,,3,,,75,127
31535,note_on,0,0,0,,6,,,66,127
31644,note_off,109,0,0,,6,,,66,127
31644,note_off,0,0,0,,3,,,75,127
31645,note_on,1,0,0,,6,,,78,127
31645,note_on,0,0,0,,3,,,63,127
31754,note_off,109,0,0,,3,,,63,127
31754,note_off,0,0,0,,6,,,78,127
31755,note_on,1,0,0,,6,,,78,127
31755,note_on,0,0,0,,3,,,63,127
31864,note_off,109,0,0,,3,,,63,127
31864,note_off,0,0,0,,6,,,78,127
31865,note_on,1,0,0,,3,,,75,127
31865,note_on,0,0,0,,6,,,66,127
31974,note_off,109,0,0,,6,,,66,127
31974,note_off,0,0,0,,3,,,75,127
31975,note_on,1,0,0,,6,,,78,127
31975,note_on,0,0,0,,3,,,63,127
32084,note_off,109,0,0,,3,,,63,127
32084,note_off,0,0,0,,6,,,78,127
32085,note_on,1,0,0,,12,,,83,127
32085,note_on,0,0,0,,12,,,35,127
32194,note_off,109,0,0,,12,,,35,127
32194,note_off,0,0,0,,12,,,83,127
32195,note_on,1,0,0,,3,,,75,127
32195,note_on,0,0,0,,6,,,66,127
32304,note_off,109,0,0,,6,,,66,127
32304,note_off,0,0,0,,3,,,75,127
32305,note_on,1,0,0,,6,,,78,127
32305,note_on,0,0,0,,3,,,63,127
32414,note_off,109,0,0,,3,,,63,127
32414,note_off,0,0,0,,6,,,78,127
32415,note_on,1,0,0,,6,,,78,127
32415,note_on,0,0,0,,3,,,63,127
32524,note_off,109,0,0,,3,,,63,127
32524,note_off,0,0,0,,6,,,78,127
32525,note_on,1,0,0,,3,,,75,127
32525,note_on,0,0,0,,6,,,66,127
32634,note_off,109,0,0,,6,,,66,127
32634,note_off,0,0,0,,3,,,75,127
32635,note_on,1,0,0,,6,,,78,127
32635,note_on,0,0,0,,3,,,63,127
32744,note_off,109,0,0,,3,,,63,127
32744,note_off,0,0,0,,6,,,78,127
32745,note_on,1,0,0,,12,,,83,127
32745,note_on,0,0,0,,12,,,35,127
32854,note_off,109,0,0,,12,,,35,127
32854,note_off,0,0,0,,12,,,83,127
32855,note_on,1,0,0,,3,,,75,127
32855,note_on,0,0,0,,6,,,66,127
32964,note_off,109,0,0,,6,,,66,127
32964,note_off,0,0,0,,3,,,75,127
32965,note_on,1,0,0,,6,,,78,127
32965,note_on,0,0,0,,3,,,63,127
33074,note_off,109,0,0,,3,,,63,127
33074,note_off,0,0,0,,6,,,78,127
33075,note_on,1,0,0,,6,,,78,127
33075,note_on,0,0,0,,3,,,63,127
33184,note_off,109,0,0,,3,,,63,127
33184,note_off,0,0,0,,6,,,78,127
33185,note_on,1,0,0,,3,,,75,127
33185,note_on,0,0,0,,6,,,66,127
33294,note_off,109,0,0,,6,,,66,127
33294,note_off,0,0,0,,3,,,75,127
33295,note_on,1,0,0,,6,,,78,127
33295,note_on,0,0,0,,3,,,63,127
33404,note_off,109,0,0,,3,,,63,127
33404,note_off,0,0,0,,6,,,78,127
33405,note_on,1,0,0,,12,,,83,127
33405,note_on,0,0,0,,12,,,35,127
33514,note_off,109,0,0,,12,,,83,127
33515,note_on,1,0,0,,6,,,78,127
33624,note_off,109,0,0,,6,,,78,127
33625,note_on,1,0,0,,3,,,75,127
33734,note_off,109,0,0,,3,,,75,127
33734,note_off,0,0,0,,12,,,35,127
33735,note_on,1,0,0,,8,,,80,127
33735,note_on,0,0,0,,4,,,40,127
33844,note_off,109,0,0,,8,,,80,127
33845,note_on,1,0,0,,4,,,76,127
33954,note_off,109,0,0,,4,,,76,127
33955,note_on,1,0,0,,1,,,73,127
34064,note_off,109,0,0,,1,,,73,127
34064,note_off,0,0,0,,4,,,40,127
34065,note_on,1,0,0,,3,,,75,127
34065,note_on,0,0,0,,6,,,42,127
34174,note_off,109,0,0,,3,,,75,127
34175,note_on,1,0,0,,6,,,78,127
34284,note_off,109,0,0,,6,,,78,127
34285,note_on,1,0,0,,12,,,71,127
34394,note_off,109,0,0,,12,,,71,127
34394,note_off,0,0,0,,6,,,42,127
34395,note_on,1,0,0,,1,,,73,127
34395,note_on,0,0,0,,6,,,42,127
34504,note_off,109,0,0,,1,,,73,127
34505,note_on,1,0,0,,6,,,78,127
34614,note_off,109,0,0,,6,,,78,127
34615,note_on,1,0,0,,11,,,70,127
34724,note_off,109,0,0,,11,,,70,127
34724,note_off,0,0,0,,6,,,42,127
34725,note_on,1,0,0,,12,,,71,127
34725,note_on,0,0,0,,12,,,35,127
34834,note_off,109,0,0,,12,,,35,127
34855,note_on,21,0,0,,6,,,66,127
34855,note_on,0,0,0,,3,,,75,127
34856,note_off,1,0,0,,12,,,71,127
34964,note_off,108,0,0,,3,,,75,127
34964,note_off,0,0,0,,6,,,66,127
34965,note_on,1,0,0,,3,,,63,127
34965,note_on,0,0,0,,6,,,78,127
35074,note_off,109,0,0,,6,,,78,127
35074,note_off,0,0,0,,3,,,63,127
35075,note_on,1,0,0,,3,,,63,127
35075,note_on,0,0,0,,6,,,78,127
35184,note_off,109,0,0,,6,,,78,127
35184,note_off,0,0,0,,3,,,63,127
35185,note_on,1,0,0,,6,,,66,127
35185,note_on,0,0,0,,3,,,75,127
35294,note_off,109,0,0,,3,,,75,127
35294,note_off,0,0,0,,6,,,66,127
35295,note_on,1,0,0,,3,,,63,127
35295,note_on,0,0,0,,6,,,78,127
35404,note_off,109,0,0,,6,,,78,127
35404,note_off,0,0,0,,3,,,63,127
35405,note_on,1,0,0,,12,,,35,127
35405,note_on,0,0,0,,12,,,83,127
35514,note_off,109,0,0,,12,,,83,127
35514,note_off,0,0,0,,12,,,35,127
35515,note_on,1,0,0,,6,,,66,127
35515,note_on,0,0,0,,3,,,75,127
35624,note_off,109,0,0,,3,,,75,127
35624,note_off,0,0,0,,6,,,66,127
35625,note_on,1,0,0,,3,,,63,127
35625,note_on,0,0,0,,6,,,78,127
35734,note_off,109,0,0,,6,,,78,127
35734,note_off,0,0,0,,3,,,63,127
35735,note_on,1,0,0,,3,,,63,127
35735,note_on,0,0,0,,6,,,78,127
35844,note_off,109,0,0,,6,,,78,127
35844,note_off,0,0,0,,3,,,63,127
35845,note_on,1,0,0,,6,,,66,127
35845,note_on,0,0,0,,3,,,75,127
35954,note_off,109,0,0,,3,,,75,127
35954,note_off,0,0,0,,6,,,66,127
35955,note_on,1,0,0,,3,,,63,127
35955,note_on,0,0,0,,6,,,78,127
36064,note_off,109,0,0,,6,,,78,127
36064,note_off,0,0,0,,3,,,63,127
36065,note_on,1,0,0,,12,,,35,127
36065,note_on,0,0,0,,12,,,83,127
36174,note_off,109,0,0,,12,,,83,127
36175,note_on,1,0,0,,6,,,78,127
36284,note_off,109,0,0,,6,,,78,127
36285,note_on,1,0,0,,3,,,75,127
36394,note_off,109,0,0,,3,,,75,127
36394,note_off,0,0,0,,12,,,35,127
36395,note_on,1,0,0,,4,,,40,127
36395,note_on,0,0,0,,8,,,80,127
36504,note_off,109,0,0,,8,,,80,127
36505,note_on,1,0,0,,4,,,76,127
36614,note_off,109,0,0,,4,,,76,127
36615,note_on,1,0,0,,1,,,73,127
36724,note_off,109,0,0,,1,,,73,127
36724,note_off,0,0,0,,4,,,40,127
36725,note_on,1,0,0,,6,,,42,127
36725,note_on,0,0,0,,3,,,75,127
36834,note_off,109,0,0,,3,,,75,127
36835,note_on,1,0,0,,6,,,78,127
36944,note_off,109,0,0,,6,,,78,127
36945,note_on,1,0,0,,12,,,71,127
37054,note_off,109,0,0,,12,,,71,127
37054,note_off,0,0,0,,6,,,42,127
37055,note_on,1,0,0,,6,,,42,127
37055,note_on,0,0,0,,1,,,73,127
37164,note_off,109,0,0,,1,,,73,127
37165,note_on,1,0,0,,6,,,78,127
37274,note_off,109,0,0,,6,,,78,127
37275,note_on,1,0,0,,11,,,70,127
37384,note_off,109,0,0,,11,,,70,127
37384,note_off,0,0,0,,6,,,42,127
37385,note_on,1,0,0,,12,,,35,127
37385,note_on,0,0,0,,12,,,71,127
37494,note_off,109,0,0,,12,,,71,127
37515,note_on,21,0,0,,12,,,83,127
37624,note_off,109,0,0,,12,,,83,127
37625,note_on,1,0,0,,6,,,78,127
37734,note_off,109,0,0,,6,,,78,127
37735,note_on,1,0,0,,3,,,75,127
37844,note_off,109,0,0,,3,,,75,127
37845,note_on,1,0,0,,12,,,71,127
37933,note_off,88,0,0,,12,,,35,127
37954,note_off,21,0,0,,12,,,71,127
37955,note_on,1,0,0,,11,,,82,127
37955,note_on,0,0,0,,1,,,73,127
37955,note_on,0,0,0,,6,,,42,127
38064,note_off,109,0,0,,6,,,42,127
38064,note_off,0,0,0,,1,,,73,127
38064,note_off,0,0,0,,11,,,82,127
38065,note_on,1,0,0,,3,,,75,127
38065,note_on,0,0,0,,12,,,83,127
38065,note_on,0,0,0,,12,,,35,127
38174,note_off,109,0,0,,12,,,83,127
38174,note_off,0,0,0,,3,,,75,127
38195,note_on,21,0,0,,12,,,83,127
38304,note_off,109,0,0,,12,,,83,127
38305,note_on,1,0,0,,6,,,78,127
38414,note_off,109,0,0,,6,,,78,127
38415,note_on,1,0,0,,3,,,75,127
38524,note_off,109,0,0,,3,,,75,127
38525,note_on,1,0,0,,12,,,71,127
38613,note_off,88,0,0,,12,,,35,127
38634,note_off,21,0,0,,12,,,71,127
38635,note_on,1,0,0,,6,,,42,127
38635,note_on,0,0,0,,11,,,82,127
38635,note_on,0,0,0,,1,,,73,127
38744,note_off,109,0,0,,1,,,73,127
38744,note_off,0,0,0,,11,,,82,127
38744,note_off,0,0,0,,6,,,42,127
38745,note_on,1,0,0,,12,,,35,127
38745,note_on,0,0,0,,12,,,71,127
38745,note_on,0,0,0,,12,,,83,127
38854,note_off,109,0,0,,12,,,83,127
38854,note_off,0,0,0,,12,,,71,127
38854,note_off,0,0,0,,12,,,35,127
38855,note_on,1,0,0,,12,,,47,127
38855,note_on,0,0,0,,3,,,75,127
38964,note_off,109,0,0,,3,,,75,127
38964,note_off,0,0,0,,12,,,47,127
38965,note_on,1,0,0,,6,,,42,127
38965,note_on,0,0,0,,1,,,73,127
39001,note_on,36,0,0,,3,,,75,127
39006,note_off,5,0,0,,1,,,73,127
39037,note_on,31,0,0,,1,,,73,127
39042,note_off,5,0,0,,3,,,75,127
39074,note_off,32,0,0,,6,,,42,127
39075,note_on,1,0,0,,12,,,35,127
39075,note_on,0,0,0,,12,,,71,127
39078,note_off,3,0,0,,1,,,73,127
39183,note_off,105,0,0,,12,,,71,127
39183,note_off,0,0,0,,12,,,35,127
39184,note_on,1,0,0,,12,,,47,127
39184,note_on,0,0,0,,3,,,75,127
39293,note_off,109,0,0,,3,,,75,127
39293,note_off,0,0,0,,12,,,47,127
39294,note_on,1,0,0,,6,,,42,127
39294,note_on,0,0,0,,1,,,73,127
39330,note_on,36,0,0,,3,,,75,127
39335,note_off,5,0,0,,1,,,73,127
39366,note_on,31,0,0,,1,,,73,127
39371,note_off,5,0,0,,3,,,75,127
39403,note_off,32,0,0,,6,,,42,127
39404,note_on,1,0,0,,12,,,35,127
39404,note_on,0,0,0,,12,,,71,127
39407,note_off,3,0,0,,1,,,73,127
39512,note_off,105,0,0,,12,,,71,127
39512,note_off,0,0,0,,12,,,35,127
39513,note_on,1,0,0,,12,,,47,127
39513,note_on,0,0,0,,3,,,75,127
39622,note_off,109,0,0,,3,,,75,127
39622,note_off,0,0,0,,12,,,47,127
39623,note_on,1,0,0,,6,,,42,127
39623,note_on,0,0,0,,1,,,73,127
39659,note_on,36,0,0,,3,,,75,127
39664,note_off,5,0,0,,1,,,73,127
39695,note_on,31,0,0,,1,,,73,127
39700,note_off,5,0,0,,3,,,75,127
39732,note_off,32,0,0,,6,,,42,127
39733,note_on,1,0,0,,12,,,35,127
39733,note_on,0,0,0,,12,,,71,127
39736,note_off,3,0,0,,1,,,73,127
39841,note_off,105,0,0,,12,,,71,127
39841,note_off,0,0,0,,12,,,35,127
39842,note_on,1,0,0,,12,,,47,127
39842,note_on,0,0,0,,3,,,75,127
39951,note_off,109,0,0,,3,,,75,127
39951,note_off,0,0,0,,12,,,47,127
39952,note_on,1,0,0,,6,,,42,127
39952,note_on,0,0,0,,1,,,73,127
39988,note_on,36,0,0,,3,,,75,127
39993,note_off,5,0,0,,1,,,73,127
40024,note_on,31,0,0,,1,,,73,127
40029,note_off,5,0,0,,3,,,75,127
40061,note_off,32,0,0,,6,,,42,127
40062,note_on,1,0,0,,12,,,35,127
40062,note_on,0,0,0,,12,,,71,127
40065,note_off,3,0,0,,1,,,73,127
40816,note_off,751,0,0,,12,,,71,127
40816,note_off,0,0,0,,12,,,35,127
41063,note_on,247,0,0,,12,,,47,127
41172,note_off,109,0,0,,12,,,47,127
41173,note_on,1,0,0,,3,,,51,127
41282,note_off,109,0,0,,3,,,51,127
41283,note_on,1,0,0,,6,,,54,127
41392,note_off,109,0,0,,6,,,54,127
41393,note_on,1,0,0,,12,,,59,127
41502,note_off,109,0,0,,12,,,59,127
41503,note_on,1,0,0,,3,,,63,127
41612,note_off,109,0,0,,3,,,63,127
41613,note_on,1,0,0,,6,,,66,127
41722,note_off,109,0,0,,6,,,66,127
41723,note_on,1,0,0,,2,,,74,127
41723,note_on,0,0,0,,12,,,71,127
41764,note_off,41,0,0,,2,,,74,127
41764,note_on,0,0,0,,0,,,72,127
41805,note_off,41,0,0,,0,,,72,127
41805,note_on,0,0,0,,2,,,74,127
41846,note_off,41,0,0,,2,,,74,127
41846,note_on,0,0,0,,0,,,72,127
42051,note_off,205,0,0,,12,,,71,127
42052,note_on,1,0,0,,10,,,69,127
42161,note_off,109,0,0,,0,,,72,127
42162,note_on,1,0,0,,3,,,75,127
42271,note_off,109,0,0,,3,,,75,127
42272,note_on,1,0,0,,4,,,76,127
42381,note_off,109,0,0,,10,,,69,127
42382,note_on,1,0,0,,7,,,67,127
42491,note_off,109,0,0,,4,,,76,127
42492,note_on,1,0,0,,0,,,84,127
42601,note_off,109,0,0,,0,,,84,127
42602,note_on,1,0,0,,12,,,83,127
42711,note_off,109,0,0,,7,,,67,127
42712,note_on,1,0,0,,4,,,64,127
42821,note_off,109,0,0,,12,,,83,127
42822,note_on,1,0,0,,10,,,81,127
42931,note_off,109,0,0,,10,,,81,127
42932,note_on,1,0,0,,7,,,79,127
43041,note_off,109,0,0,,4,,,64,127
43042,note_on,1,0,0,,0,,,60,127
43151,note_off,109,0,0,,7,,,79,127
43152,note_on,1,0,0,,6,,,78,127
43261,note_off,109,0,0,,6,,,78,127
43262,note_on,1,0,0,,4,,,76,127
43371,note_off,109,0,0,,0,,,60,127
43372,note_on,1,0,0,,0,,,60,127
43481,note_off,109,0,0,,4,,,76,127
43482,note_on,1,0,0,,3,,,75,127
43591,note_off,109,0,0,,3,,,75,127
43592,note_on,1,0,0,,4,,,76,127
43701,note_off,109,0,0,,0,,,60,127
43702,note_on,1,0,0,,12,,,59,127
43921,note_off,219,0,0,,4,,,76,127
43922,note_on,1,0,0,,6,,,78,127
44360,note_off,438,0,0,,12,,,59,127
44361,note_off,1,0,0,,6,,,78,127
44484,note_on,123,0,0,,7,,,43,127
44593,note_off,109,0,0,,7,,,43,127
44594,note_on,1,0,0,,12,,,47,127
44703,note_off,109,0,0,,12,,,47,127
44704,note_on,1,0,0,,2,,,50,127
44813,note_off,109,0,0,,2,,,50,127
44814,note_on,1,0,0,,7,,,55,127
44923,note_off,109,0,0,,7,,,55,127
44924,note_on,1,0,0,,12,,,59,127
45033,note_off,109,0,0,,12,,,59,127
45034,note_on,1,0,0,,2,,,62,127
45143,note_off,109,0,0,,2,,,62,127
45144,note_on,1,0,0,,12,,,71,127
45144,note_on,0,0,0,,7,,,67,127
45185,note_off,41,0,0,,12,,,71,127
45185,note_on,0,0,0,,10,,,69,127
45226,note_off,41,0,0,,10,,,69,127
45226,note_on,0,0,0,,12,,,71,127
45267,note_off,41,0,0,,12,,,71,127
45267,note_on,0,0,0,,10,,,69,127
45472,note_off,205,0,0,,7,,,67,127
45473,note_on,1,0,0,,6,,,66,127
45582,note_off,109,0,0,,10,,,69,127
45583,note_on,1,0,0,,12,,,71,127
45692,note_off,109,0,0,,12,,,71,127
45693,note_on,1,0,0,,0,,,72,127
45802,note_off,109,0,0,,0,,,72,127
45802,note_off,0,0,0,,6,,,66,127
45803,note_on,1,0,0,,12,,,71,127
45803,note_on,0,0,0,,7,,,67,127
45912,note_off,109,0,0,,12,,,71,127
45913,note_on,1,0,0,,0,,,84,127
46022,note_off,109,0,0,,0,,,84,127
46023,note_on,1,0,0,,12,,,83,127
46132,note_off,109,0,0,,7,,,67,127
46133,note_on,1,0,0,,4,,,64,127
46242,note_off,109,0,0,,12,,,83,127
46243,note_on,1,0,0,,10,,,81,127
46352,note_off,109,0,0,,10,,,81,127
46353,note_on,1,0,0,,7,,,79,127
46462,note_off,109,0,0,,4,,,64,127
46463,note_on,1,0,0,,10,,,57,127
46572,note_off,109,0,0,,7,,,79,127
46573,note_on,1,0,0,,6,,,78,127
46682,note_off,109,0,0,,6,,,78,127
46683,note_on,1,0,0,,4,,,76,127
46792,note_off,109,0,0,,10,,,57,127
46793,note_on,1,0,0,,10,,,45,127
46902,note_off,109,0,0,,4,,,76,127
46903,note_on,1,0,0,,2,,,74,127
47012,note_off,109,0,0,,2,,,74,127
47013,note_on,1,0,0,,1,,,73,127
47122,note_off,109,0,0,,10,,,45,127
47123,note_on,1,0,0,,2,,,38,127
47232,note_off,109,0,0,,2,,,38,127
47232,note_on,0,0,0,,6,,,42,127
47341,note_off,109,0,0,,6,,,42,127
47341,note_on,0,0,0,,10,,,45,127
47342,note_off,1,0,0,,1,,,73,127
47343,note_on,1,0,0,,2,,,74,127
47450,note_off,107,0,0,,10,,,45,127
47450,note_on,0,0,0,,2,,,50,127
47559,note_off,109,0,0,,2,,,50,127
47559,note_on,0,0,0,,6,,,54,127
47668,note_off,109,0,0,,6,,,54,127
47668,note_on,0,0,0,,10,,,57,127
47777,note_off,109,0,0,,10,,,57,127
47782,note_on,5,0,0,,2,,,62,127
47891,note_off,109,0,0,,2,,,74,127
47892,note_on,1,0,0,,6,,,66,127
48001,note_off,109,0,0,,6,,,66,127
48002,note_on,1,0,0,,10,,,69,127
48111,note_off,109,0,0,,2,,,62,127
48112,note_on,1,0,0,,0,,,60,127
48221,note_off,109,0,0,,10,,,69,127
48222,note_on,1,0,0,,2,,,74,127
48331,note_off,109,0,0,,2,,,74,127
48332,note_on,1,0,0,,6,,,66,127
48441,note_off,109,0,0,,6,,,66,127
48441,note_off,0,0,0,,0,,,60,127
48442,note_on,1,0,0,,7,,,67,127
48442,note_on,0,0,0,,2,,,62,127
48442,note_on,0,0,0,,12,,,59,127
48551,note_off,109,0,0,,7,,,67,127
48552,note_on,1,0,0,,2,,,74,127
48661,note_off,109,0,0,,2,,,74,127
48662,note_on,1,0,0,,4,,,64,127
48771,note_off,109,0,0,,4,,,64,127
48771,note_off,0,0,0,,12,,,59,127
48771,note_off,0,0,0,,2,,,62,127
48772,note_on,1,0,0,,5,,,65,127
48772,note_on,0,0,0,,10,,,57,127
48772,note_on,0,0,0,,2,,,62,127
48881,note_off,109,0,0,,5,,,65,127
48882,note_on,1,0,0,,2,,,74,127
48991,note_off,109,0,0,,2,,,74,127
48992,note_on,1,0,0,,5,,,65,127
49101,note_off,109,0,0,,5,,,65,127
49101,note_off,0,0,0,,2,,,62,127
49101,note_off,0,0,0,,10,,,57,127
49102,note_on,1,0,0,,4,,,64,127
49102,note_on,0,0,0,,8,,,56,127
49102,note_on,0,0,0,,2,,,62,127
49211,note_off,109,0,0,,4,,,64,127
49212,note_on,1,0,0,,3,,,75,127
49321,note_off,109,0,0,,3,,,75,127
49322,note_on,1,0,0,,4,,,76,127
49431,note_off,109,0,0,,2,,,62,127
49431,note_off,0,0,0,,8,,,56,127
49432,note_on,1,0,0,,4,,,52,127
49432,note_on,0,0,0,,2,,,62,127
49541,note_off,109,0,0,,4,,,76,127
49542,note_on,1,0,0,,2,,,74,127
49651,note_off,109,0,0,,2,,,74,127
49652,note_on,1,0,0,,12,,,71,127
49761,note_off,109,0,0,,2,,,62,127
49761,note_off,0,0,0,,4,,,52,127
49762,note_on,1,0,0,,10,,,57,127
49762,note_on,0,0,0,,4,,,64,127
49871,note_off,109,0,0,,12,,,71,127
49892,note_on,21,0,0,,0,,,72,127
50001,note_off,109,0,0,,0,,,72,127
50002,note_on,1,0,0,,12,,,71,127
50090,note_off,88,0,0,,4,,,64,127
50090,note_off,0,0,0,,10,,,57,127
50111,note_on,21,0,0,,7,,,55,127
50220,note_off,109,0,0,,12,,,71,127
50221,note_on,1,0,0,,10,,,69,127
50330,note_off,109,0,0,,10,,,69,127
50331,note_on,1,0,0,,7,,,67,127
50440,note_off,109,0,0,,7,,,55,127
50441,note_on,1,0,0,,0,,,48,127
50550,note_off,109,0,0,,7,,,67,127
50551,note_on,1,0,0,,6,,,66,127
50660,note_off,109,0,0,,6,,,66,127
50661,note_on,1,0,0,,4,,,64,127
50770,note_off,109,0,0,,0,,,48,127
50771,note_on,1,0,0,,0,,,48,127
50880,note_off,109,0,0,,4,,,64,127
50881,note_on,1,0,0,,3,,,63,127
50990,note_off,109,0,0,,3,,,63,127
50991,note_on,1,0,0,,4,,,64,127
51100,note_off,109,0,0,,0,,,48,127
51101,note_on,1,0,0,,12,,,47,127
51210,note_off,109,0,0,,12,,,47,127
51210,note_on,0,0,0,,3,,,51,127
51319,note_off,109,0,0,,3,,,51,127
51319,note_on,0,0,0,,6,,,54,127
51320,note_off,1,0,0,,4,,,64,127
51321,note_on,1,0,0,,6,,,66,127
51428,note_off,107,0,0,,6,,,54,127
51428,note_on,0,0,0,,12,,,59,127
51537,note_off,109,0,0,,12,,,59,127
51537,note_on,0,0,0,,3,,,63,127
51612,note_off,75,0,0,,6,,,66,127
51645,note_off,33,0,0,,3,,,63,127
51645,note_on,0,0,0,,6,,,66,127
51753,note_off,108,0,0,,6,,,66,127
51769,note_on,16,0,0,,12,,,71,127
51769,note_on,0,0,0,,2,,,74,127
51810,note_off,41,0,0,,2,,,74,127
51810,note_on,0,0,0,,0,,,72,127
51851,note_off,41,0,0,,0,,,72,127
51851,note_on,0,0,0,,2,,,74,127
51892,note_off,41,0,0,,2,,,74,127
51892,note_on,0,0,0,,0,,,72,127
52097,note_off,205,0,0,,12,,,71,127
52098,note_on,1,0,0,,10,,,69,127
52207,note_off,109,0,0,,0,,,72,127
52208,note_on,1,0,0,,3,,,75,127
52317,note_off,109,0,0,,3,,,75,127
52318,note_on,1,0,0,,4,,,76,127
52427,note_off,109,0,0,,10,,,69,127
52428,note_on,1,0,0,,7,,,67,127
52537,note_off,109,0,0,,4,,,76,127
52538,note_on,1,0,0,,0,,,84,127
52647,note_off,109,0,0,,0,,,84,127
52648,note_on,1,0,0,,12,,,83,127
52757,note_off,109,0,0,,7,,,67,127
52758,note_on,1,0,0,,4,,,64,127
52867,note_off,109,0,0,,12,,,83,127
52868,note_on,1,0,0,,10,,,81,127
52977,note_off,109,0,0,,10,,,81,127
52978,note_on,1,0,0,,7,,,79,127
53087,note_off,109,0,0,,4,,,64,127
53088,note_on,1,0,0,,0,,,60,127
53197,note_off,109,0,0,,7,,,79,127
53198,note_on,1,0,0,,6,,,78,127
53307,note_off,109,0,0,,6,,,78,127
53308,note_on,1,0,0,,4,,,76,127
53417,note_off,109,0,0,,0,,,60,127
53418,note_on,1,0,0,,0,,,48,127
53527,note_off,109,0,0,,4,,,76,127
53528,note_on,1,0,0,,3,,,75,127
53637,note_off,109,0,0,,3,,,75,127
53638,note_on,1,0,0,,4,,,76,127
53747,note_off,109,0,0,,0,,,48,127
53748,note_on,1,0,0,,12,,,47,127
54014,note_off,266,0,0,,4,,,76,127
54081,note_on,67,0,0,,6,,,78,127
54406,note_off,325,0,0,,12,,,47,127
54519,note_off,113,0,0,,6,,,78,127
54664,note_on,145,0,0,,4,,,40,127
54773,note_off,109,0,0,,4,,,40,127
54774,note_on,1,0,0,,8,,,80,127
54774,note_on,0,0,0,,12,,,71,127
54883,note_off,109,0,0,,12,,,71,127
54883,note_off,0,0,0,,8,,,80,127
54884,note_on,1,0,0,,12,,,83,127
54884,note_on,0,0,0,,8,,,68,127
54993,note_off,109,0,0,,8,,,68,127
54993,note_off,0,0,0,,12,,,83,127
54994,note_on,1,0,0,,12,,,83,127
54994,note_on,0,0,0,,8,,,68,127
55103,note_off,109,0,0,,8,,,68,127
55103,note_off,0,0,0,,12,,,83,127
55104,note_on,1,0,0,,8,,,80,127
55104,note_on,0,0,0,,12,,,71,127
55213,note_off,109,0,0,,12,,,71,127
55213,note_off,0,0,0,,8,,,80,127
55214,note_on,1,0,0,,12,,,83,127
55214,note_on,0,0,0,,8,,,68,127
55323,note_off,109,0,0,,8,,,68,127
55323,note_off,0,0,0,,12,,,83,127
55324,note_on,1,0,0,,4,,,88,127
55324,note_on,0,0,0,,4,,,40,127
55433,note_off,109,0,0,,4,,,40,127
55433,note_off,0,0,0,,4,,,88,127
55434,note_on,1,0,0,,8,,,80,127
55434,note_on,0,0,0,,12,,,71,127
55543,note_off,109,0,0,,12,,,71,127
55543,note_off,0,0,0,,8,,,80,127
55544,note_on,1,0,0,,12,,,83,127
55544,note_on,0,0,0,,8,,,68,127
55653,note_off,109,0,0,,8,,,68,127
55653,note_off,0,0,0,,12,,,83,127
55654,note_on,1,0,0,,12,,,83,127
55654,note_on,0,0,0,,8,,,68,127
55763,note_off,109,0,0,,8,,,68,127
55763,note_off,0,0,0,,12,,,83,127
55764,note_on,1,0,0,,8,,,80,127
55764,note_on,0,0,0,,12,,,71,127
55873,note_off,109,0,0,,12,,,71,127
55873,note_off,0,0,0,,8,,,80,127
55874,note_on,1,0,0,,12,,,83,127
55874,note_on,0,0,0,,8,,,68,127
55983,note_off,109,0,0,,8,,,68,127
55983,note_off,0,0,0,,12,,,83,127
55984,note_on,1,0,0,,4,,,88,127
55984,note_on,0,0,0,,4,,,40,127
56093,note_off,109,0,0,,4,,,40,127
56093,note_off,0,0,0,,4,,,88,127
56094,note_on,1,0,0,,8,,,80,127
56094,note_on,0,0,0,,12,,,71,127
56203,note_off,109,0,0,,12,,,71,127
56203,note_off,0,0,0,,8,,,80,127
56204,note_on,1,0,0,,12,,,83,127
56204,note_on,0,0,0,,8,,,68,127
56313,note_off,109,0,0,,8,,,68,127
56313,note_off,0,0,0,,12,,,83,127
56314,note_on,1,0,0,,12,,,83,127
56314,note_on,0,0,0,,8,,,68,127
56423,note_off,109,0,0,,8,,,68,127
56423,note_off,0,0,0,,12,,,83,127
56424,note_on,1,0,0,,8,,,80,127
56424,note_on,0,0,0,,12,,,71,127
56533,note_off,109,0,0,,12,,,71,127
56533,note_off,0,0,0,,8,,,80,127
56534,note_on,1,0,0,,12,,,83,127
56534,note_on,0,0,0,,8,,,68,127
56643,note_off,109,0,0,,8,,,68,127
56643,note_off,0,0,0,,12,,,83,127
56644,note_on,1,0,0,,4,,,88,127
56644,note_on,0,0,0,,4,,,40,127
56753,note_off,109,0,0,,4,,,88,127
56754,note_on,1,0,0,,12,,,83,127
56863,note_off,109,0,0,,12,,,83,127
56864,note_on,1,0,0,,8,,,80,127
56973,note_off,109,0,0,,8,,,80,127
56973,note_off,0,0,0,,4,,,40,127
56974,note_on,1,0,0,,1,,,85,127
56974,note_on,0,0,0,,10,,,45,127
57083,note_off,109,0,0,,1,,,85,127
57084,note_on,1,0,0,,10,,,81,127
57193,note_off,109,0,0,,10,,,81,127
57194,note_on,1,0,0,,6,,,78,127
57303,note_off,109,0,0,,6,,,78,127
57303,note_off,0,0,0,,10,,,45,127
57304,note_on,1,0,0,,8,,,80,127
57304,note_on,0,0,0,,12,,,47,127
57413,note_off,109,0,0,,8,,,80,127
57414,note_on,1,0,0,,12,,,83,127
57523,note_off,109,0,0,,12,,,83,127
57524,note_on,1,0,0,,4,,,76,127
57633,note_off,109,0,0,,4,,,76,127
57633,note_off,0,0,0,,12,,,47,127
57634,note_on,1,0,0,,6,,,78,127
57634,note_on,0,0,0,,12,,,35,127
57743,note_off,109,0,0,,6,,,78,127
57744,note_on,1,0,0,,12,,,83,127
57853,note_off,109,0,0,,12,,,83,127
57854,note_on,1,0,0,,3,,,75,127
57963,note_off,109,0,0,,3,,,75,127
57963,note_off,0,0,0,,12,,,35,127
57964,note_on,1,0,0,,4,,,76,127
57964,note_on,0,0,0,,4,,,40,127
58718,note_off,754,0,0,,4,,,40,127
58718,note_off,0,0,0,,4,,,76,127
59047,note_on,329,0,0,,6,,,42,127
59157,note_on,110,0,0,,4,,,88,127
59266,note_off,109,0,0,,4,,,88,127
59266,note_on,0,0,0,,1,,,85,127
59375,note_off,109,0,0,,1,,,85,127
59375,note_on,0,0,0,,11,,,82,127
59484,note_off,109,0,0,,11,,,82,127
59484,note_on,0,0,0,,7,,,79,127
59593,note_off,109,0,0,,7,,,79,127
59593,note_on,0,0,0,,4,,,76,127
59702,note_off,109,0,0,,4,,,76,127
59705,note_off,3,0,0,,6,,,42,127
59706,note_on,1,0,0,,6,,,42,127
59706,note_on,0,0,0,,1,,,73,127
59815,note_off,109,0,0,,1,,,73,127
59815,note_on,0,0,0,,11,,,70,127
59924,note_off,109,0,0,,11,,,70,127
59924,note_on,0,0,0,,7,,,67,127
60033,note_off,109,0,0,,7,,,67,127
60033,note_on,0,0,0,,4,,,64,127
60142,note_off,109,0,0,,4,,,64,127
60142,note_on,0,0,0,,1,,,61,127
60251,note_off,109,0,0,,1,,,61,127
60255,note_on,4,0,0,,11,,,58,127
60364,note_off,109,0,0,,6,,,42,127
60365,note_on,1,0,0,,6,,,42,127
60474,note_off,109,0,0,,11,,,58,127
60475,note_on,1,0,0,,7,,,67,127
60584,note_off,109,0,0,,7,,,67,127
60585,note_on,1,0,0,,6,,,66,127
60694,note_off,109,0,0,,6,,,66,127
60695,note_on,1,0,0,,4,,,64,127
60804,note_off,109,0,0,,4,,,64,127
60805,note_on,1,0,0,,2,,,62,127
60914,note_off,109,0,0,,2,,,62,127
60915,note_on,1,0,0,,1,,,61,127
61024,note_off,109,0,0,,1,,,61,127
61024,note_off,0,0,0,,6,,,42,127
61025,note_on,1,0,0,,12,,,35,127
61025,note_on,0,0,0,,1,,,61,127
61353,note_off,328,0,0,,1,,,61,127
61354,note_on,1,0,0,,2,,,62,127
61395,note_off,41,0,0,,2,,,62,127
61395,note_on,0,0,0,,1,,,61,127
61436,note_off,41,0,0,,1,,,61,127
61436,note_on,0,0,0,,2,,,62,127
61682,note_off,246,0,0,,12,,,35,127
61683,note_off,1,0,0,,2,,,62,127
61704,note_on,21,0,0,,4,,,40,127
61814,note_on,110,0,0,,2,,,86,127
61923,note_off,109,0,0,,2,,,86,127
61923,note_on,0,0,0,,12,,,83,127
62032,note_off,109,0,0,,12,,,83,127
62032,note_on,0,0,0,,8,,,80,127
62141,note_off,109,0,0,,8,,,80,127
62141,note_on,0,0,0,,5,,,77,127
62250,note_off,109,0,0,,5,,,77,127
62250,note_on,0,0,0,,2,,,74,127
62359,note_off,109,0,0,,2,,,74,127
62362,note_off,3,0,0,,4,,,40,127
62363,note_on,1,0,0,,12,,,71,127
62363,note_on,0,0,0,,4,,,40,127
62472,note_off,109,0,0,,12,,,71,127
62472,note_on,0,0,0,,8,,,68,127
62581,note_off,109,0,0,,8,,,68,127
62581,note_on,0,0,0,,5,,,65,127
62690,note_off,109,0,0,,5,,,65,127
62690,note_on,0,0,0,,2,,,62,127
62799,note_off,109,0,0,,2,,,62,127
62799,note_on,0,0,0,,12,,,59,127
62908,note_off,109,0,0,,12,,,59,127
62912,note_on,4,0,0,,8,,,56,127
63021,note_off,109,0,0,,4,,,40,127
63022,note_on,1,0,0,,4,,,40,127
63131,note_off,109,0,0,,8,,,56,127
63132,note_on,1,0,0,,5,,,65,127
63241,note_off,109,0,0,,5,,,65,127
63242,note_on,1,0,0,,4,,,64,127
63351,note_off,109,0,0,,4,,,64,127
63352,note_on,1,0,0,,2,,,62,127
63461,note_off,109,0,0,,2,,,62,127
63462,note_on,1,0,0,,0,,,60,127
63571,note_off,109,0,0,,0,,,60,127
63572,note_on,1,0,0,,12,,,59,127
63681,note_off,109,0,0,,12,,,59,127
63681,note_off,0,0,0,,4,,,40,127
63682,note_on,1,0,0,,12,,,59,127
63682,note_on,0,0,0,,10,,,33,127
64010,note_off,328,0,0,,12,,,59,127
64011,note_on,1,0,0,,0,,,60,127
64052,note_off,41,0,0,,0,,,60,127
64052,note_on,0,0,0,,12,,,59,127
64093,note_off,41,0,0,,12,,,59,127
64093,note_on,0,0,0,,0,,,60,127
64339,note_off,246,0,0,,10,,,33,127
64340,note_off,1,0,0,,0,,,60,127
64379,note_on,39,0,0,,12,,,35,127
64489,note_on,110,0,0,,10,,,81,127
64598,note_off,109,0,0,,10,,,81,127
64598,note_on,0,0,0,,6,,,78,127
64707,note_off,109,0,0,,6,,,78,127
64707,note_on,0,0,0,,3,,,75,127
64816,note_off,109,0,0,,3,,,75,127
64816,note_on,0,0,0,,0,,,72,127
64925,note_off,109,0,0,,0,,,72,127
64925,note_on,0,0,0,,10,,,69,127
65034,note_off,109,0,0,,10,,,69,127
65037,note_off,3,0,0,,12,,,35,127
65038,note_on,1,0,0,,12,,,35,127
65038,note_on,0,0,0,,6,,,66,127
65147,note_off,109,0,0,,6,,,66,127
65147,note_on,0,0,0,,3,,,63,127
65256,note_off,109,0,0,,3,,,63,127
65256,note_on,0,0,0,,0,,,60,127
65365,note_off,109,0,0,,0,,,60,127
65365,note_on,0,0,0,,10,,,57,127
65474,note_off,109,0,0,,10,,,57,127
65476,note_on,2,0,0,,6,,,54,127
65584,note_on,108,0,0,,3,,,51,127
65585,note_off,1,0,0,,6,,,54,127
65693,note_off,108,0,0,,3,,,51,127
65696,note_off,3,0,0,,12,,,35,127
65697,note_on,1,0,0,,12,,,35,127
65697,note_on,0,0,0,,12,,,47,127
65806,note_off,109,0,0,,12,,,47,127
65807,note_on,1,0,0,,0,,,60,127
65916,note_off,109,0,0,,0,,,60,127
65917,note_on,1,0,0,,12,,,59,127
66026,note_off,109,0,0,,12,,,59,127
66027,note_on,1,0,0,,10,,,57,127
66136,note_off,109,0,0,,10,,,57,127
66137,note_on,1,0,0,,7,,,55,127
66246,note_off,109,0,0,,7,,,55,127
66247,note_on,1,0,0,,6,,,54,127
66356,note_off,109,0,0,,6,,,54,127
66356,note_off,0,0,0,,12,,,35,127
66357,note_on,1,0,0,,4,,,40,127
66357,note_on,0,0,0,,7,,,55,127
66466,note_off,109,0,0,,7,,,55,127
66470,note_on,4,0,0,,3,,,63,127
66576,note_on,106,0,0,,4,,,64,127
66579,note_off,3,0,0,,3,,,63,127
66685,note_off,106,0,0,,4,,,40,127
66686,note_on,1,0,0,,4,,,52,127
66795,note_off,109,0,0,,4,,,64,127
66799,note_on,4,0,0,,3,,,75,127
66905,note_on,106,0,0,,4,,,76,127
66908,note_off,3,0,0,,3,,,75,127
67014,note_off,106,0,0,,4,,,52,127
67015,note_on,1,0,0,,0,,,48,127
67124,note_off,109,0,0,,4,,,76,127
67128,note_on,4,0,0,,3,,,87,127
67234,note_on,106,0,0,,4,,,88,127
67237,note_off,3,0,0,,3,,,87,127
67343,note_off,106,0,0,,0,,,48,127
67344,note_on,1,0,0,,0,,,36,127
67453,note_off,109,0,0,,4,,,88,127
67457,note_on,4,0,0,,0,,,84,127
67563,note_on,106,0,0,,12,,,83,127
67566,note_off,3,0,0,,0,,,84,127
67672,note_off,106,0,0,,0,,,36,127
67673,note_on,1,0,0,,0,,,36,127
67782,note_off,109,0,0,,12,,,83,127
67786,note_on,4,0,0,,10,,,81,127
67892,note_on,106,0,0,,7,,,79,127
67895,note_off,3,0,0,,10,,,81,127
68001,note_off,106,0,0,,0,,,36,127
68002,note_on,1,0,0,,0,,,36,127
68111,note_off,109,0,0,,7,,,79,127
68115,note_on,4,0,0,,6,,,78,127
68221,note_on,106,0,0,,4,,,76,127
68224,note_off,3,0,0,,6,,,78,127
68330,note_off,106,0,0,,0,,,36,127
68331,note_on,1,0,0,,0,,,36,127
68440,note_off,109,0,0,,4,,,76,127
68444,note_on,4,0,0,,2,,,74,127
68550,note_on,106,0,0,,0,,,72,127
68553,note_off,3,0,0,,2,,,74,127
68659,note_off,106,0,0,,0,,,36,127
68660,note_on,1,0,0,,0,,,36,127
68769,note_off,109,0,0,,0,,,72,127
68773,note_on,4,0,0,,12,,,71,127
68879,note_on,106,0,0,,11,,,70,127
68882,note_off,3,0,0,,12,,,71,127
68988,note_off,106,0,0,,0,,,36,127
68989,note_on,1,0,0,,12,,,35,127
69316,note_on,327,0,0,,12,,,71,127
69318,note_off,2,0,0,,11,,,70,127
69360,note_on,42,0,0,,11,,,70,127
69370,note_off,10,0,0,,12,,,71,127
69403,note_on,33,0,0,,12,,,71,127
69413,note_off,10,0,0,,11,,,70,127
69680,note_off,267,0,0,,12,,,35,127
69842,note_off,162,0,0,,12,,,71,127
69893,note_on,51,0,0,,4,,,40,127
70002,note_off,109,0,0,,4,,,40,127
70003,note_on,1,0,0,,12,,,71,127
70003,note_on,0,0,0,,8,,,80,127
70112,note_off,109,0,0,,8,,,80,127
70112,note_off,0,0,0,,12,,,71,127
70113,note_on,1,0,0,,8,,,68,127
70113,note_on,0,0,0,,12,,,83,127
70222,note_off,109,0,0,,12,,,83,127
70222,note_off,0,0,0,,8,,,68,127
70223,note_on,1,0,0,,8,,,68,127
70223,note_on,0,0,0,,12,,,83,127
70332,note_off,109,0,0,,12,,,83,127
70332,note_off,0,0,0,,8,,,68,127
70333,note_on,1,0,0,,12,,,71,127
70333,note_on,0,0,0,,8,,,80,127
70442,note_off,109,0,0,,8,,,80,127
70442,note_off,0,0,0,,12,,,71,127
70443,note_on,1,0,0,,8,,,68,127
70443,note_on,0,0,0,,12,,,83,127
70552,note_off,109,0,0,,12,,,83,127
70552,note_off,0,0,0,,8,,,68,127
70553,note_on,1,0,0,,4,,,40,127
70553,note_on,0,0,0,,4,,,88,127
70662,note_off,109,0,0,,4,,,88,127
70662,note_off,0,0,0,,4,,,40,127
70663,note_on,1,0,0,,12,,,71,127
70663,note_on,0,0,0,,8,,,80,127
70772,note_off,109,0,0,,8,,,80,127
70772,note_off,0,0,0,,12,,,71,127
70773,note_on,1,0,0,,8,,,68,127
70773,note_on,0,0,0,,12,,,83,127
70882,note_off,109,0,0,,12,,,83,127
70882,note_off,0,0,0,,8,,,68,127
70883,note_on,1,0,0,,8,,,68,127
70883,note_on,0,0,0,,12,,,83,127
70992,note_off,109,0,0,,12,,,83,127
70992,note_off,0,0,0,,8,,,68,127
70993,note_on,1,0,0,,12,,,71,127
70993,note_on,0,0,0,,8,,,80,127
71102,note_off,109,0,0,,8,,,80,127
71102,note_off,0,0,0,,12,,,71,127
71103,note_on,1,0,0,,8,,,68,127
71103,note_on,0,0,0,,12,,,83,127
71212,note_off,109,0,0,,12,,,83,127
71212,note_off,0,0,0,,8,,,68,127
71213,note_on,1,0,0,,4,,,40,127
71213,note_on,0,0,0,,4,,,88,127
71322,note_off,109,0,0,,4,,,88,127
71322,note_off,0,0,0,,4,,,40,127
71323,note_on,1,0,0,,12,,,71,127
71323,note_on,0,0,0,,8,,,80,127
71432,note_off,109,0,0,,8,,,80,127
71432,note_off,0,0,0,,12,,,71,127
71433,note_on,1,0,0,,8,,,68,127
71433,note_on,0,0,0,,12,,,83,127
71542,note_off,109,0,0,,12,,,83,127
71542,note_off,0,0,0,,8,,,68,127
71543,note_on,1,0,0,,8,,,68,127
71543,note_on,0,0,0,,12,,,83,127
71652,note_off,109,0,0,,12,,,83,127
71652,note_off,0,0,0,,8,,,68,127
71653,note_on,1,0,0,,12,,,71,127
71653,note_on,0,0,0,,8,,,80,127
71762,note_off,109,0,0,,8,,,80,127
71762,note_off,0,0,0,,12,,,71,127
71763,note_on,1,0,0,,8,,,68,127
71763,note_on,0,0,0,,12,,,83,127
71872,note_off,109,0,0,,12,,,83,127
71872,note_off,0,0,0,,8,,,68,127
71873,note_on,1,0,0,,4,,,40,127
71873,note_on,0,0,0,,4,,,88,127
71982,note_off,109,0,0,,4,,,88,127
71983,note_on,1,0,0,,12,,,83,127
72092,note_off,109,0,0,,12,,,83,127
72093,note_on,1,0,0,,8,,,80,127
72202,note_off,109,0,0,,8,,,80,127
72202,note_off,0,0,0,,4,,,40,127
72203,note_on,1,0,0,,10,,,45,127
72203,note_on,0,0,0,,1,,,85,127
72312,note_off,109,0,0,,1,,,85,127
72313,note_on,1,0,0,,10,,,81,127
72422,note_off,109,0,0,,10,,,81,127
72423,note_on,1,0,0,,6,,,78,127
72532,note_off,109,0,0,,6,,,78,127
72532,note_off,0,0,0,,10,,,45,127
72533,note_on,1,0,0,,12,,,47,127
72533,note_on,0,0,0,,8,,,80,127
72642,note_off,109,0,0,,8,,,80,127
72643,note_on,1,0,0,,12,,,83,127
72752,note_off,109,0,0,,12,,,83,127
72753,note_on,1,0,0,,4,,,76,127
72862,note_off,109,0,0,,4,,,76,127
72862,note_off,0,0,0,,12,,,47,127
72863,note_on,1,0,0,,12,,,47,127
72863,note_on,0,0,0,,6,,,78,127
72972,note_off,109,0,0,,6,,,78,127
72973,note_on,1,0,0,,12,,,83,127
73082,note_off,109,0,0,,12,,,83,127
73083,note_on,1,0,0,,3,,,75,127
73192,note_off,109,0,0,,3,,,75,127
73192,note_off,0,0,0,,12,,,47,127
73193,note_on,1,0,0,,4,,,40,127
73193,note_on,0,0,0,,4,,,76,127
73302,note_off,109,0,0,,4,,,40,127
73323,note_on,21,0,0,,8,,,80,127
73323,note_on,0,0,0,,12,,,71,127
73326,note_off,3,0,0,,4,,,76,127
73431,note_off,105,0,0,,12,,,71,127
73431,note_off,0,0,0,,8,,,80,127
73432,note_on,1,0,0,,12,,,83,127
73432,note_on,0,0,0,,8,,,68,127
73541,note_off,109,0,0,,8,,,68,127
73541,note_off,0,0,0,,12,,,83,127
73542,note_on,1,0,0,,12,,,83,127
73542,note_on,0,0,0,,8,,,68,127
73651,note_off,109,0,0,,8,,,68,127
73651,note_off,0,0,0,,12,,,83,127
73652,note_on,1,0,0,,8,,,80,127
73652,note_on,0,0,0,,12,,,71,127
73761,note_off,109,0,0,,12,,,71,127
73761,note_off,0,0,0,,8,,,80,127
73762,note_on,1,0,0,,12,,,83,127
73762,note_on,0,0,0,,8,,,68,127
73871,note_off,109,0,0,,8,,,68,127
73871,note_off,0,0,0,,12,,,83,127
73872,note_on,1,0,0,,4,,,88,127
73872,note_on,0,0,0,,4,,,40,127
73981,note_off,109,0,0,,4,,,40,127
73981,note_off,0,0,0,,4,,,88,127
73982,note_on,1,0,0,,8,,,80,127
73982,note_on,0,0,0,,12,,,71,127
74091,note_off,109,0,0,,12,,,71,127
74091,note_off,0,0,0,,8,,,80,127
74092,note_on,1,0,0,,12,,,83,127
74092,note_on,0,0,0,,8,,,68,127
74201,note_off,109,0,0,,8,,,68,127
74201,note_off,0,0,0,,12,,,83,127
74202,note_on,1,0,0,,12,,,83,127
74202,note_on,0,0,0,,8,,,68,127
74311,note_off,109,0,0,,8,,,68,127
74311,note_off,0,0,0,,12,,,83,127
74312,note_on,1,0,0,,8,,,80,127
74312,note_on,0,0,0,,12,,,71,127
74421,note_off,109,0,0,,12,,,71,127
74421,note_off,0,0,0,,8,,,80,127
74422,note_on,1,0,0,,12,,,83,127
74422,note_on,0,0,0,,8,,,68,127
74531,note_off,109,0,0,,8,,,68,127
74531,note_off,0,0,0,,12,,,83,127
74532,note_on,1,0,0,,4,,,88,127
74532,note_on,0,0,0,,4,,,40,127
74641,note_off,109,0,0,,4,,,88,127
74642,note_on,1,0,0,,12,,,83,127
74751,note_off,109,0,0,,12,,,83,127
74752,note_on,1,0,0,,8,,,80,127
74861,note_off,109,0,0,,8,,,80,127
74861,note_off,0,0,0,,4,,,40,127
74862,note_on,1,0,0,,1,,,85,127
74862,note_on,0,0,0,,10,,,45,127
74971,note_off,109,0,0,,1,,,85,127
74972,note_on,1,0,0,,10,,,81,127
75081,note_off,109,0,0,,10,,,81,127
75082,note_on,1,0,0,,6,,,78,127
75191,note_off,109,0,0,,6,,,78,127
75191,note_off,0,0,0,,10,,,45,127
75192,note_on,1,0,0,,8,,,80,127
75192,note_on,0,0,0,,12,,,47,127
75301,note_off,109,0,0,,8,,,80,127
75302,note_on,1,0,0,,12,,,83,127
75411,note_off,109,0,0,,12,,,83,127
75412,note_on,1,0,0,,4,,,76,127
75521,note_off,109,0,0,,4,,,76,127
75521,note_off,0,0,0,,12,,,47,127
75522,note_on,1,0,0,,6,,,78,127
75522,note_on,0,0,0,,12,,,47,127
75631,note_off,109,0,0,,6,,,78,127
75632,note_on,1,0,0,,12,,,83,127
75741,note_off,109,0,0,,12,,,83,127
75742,note_on,1,0,0,,3,,,75,127
75851,note_off,109,0,0,,3,,,75,127
75851,note_off,0,0,0,,12,,,47,127
75852,note_on,1,0,0,,4,,,40,127
75852,note_on,0,0,0,,4,,,76,127
75983,note_on,131,0,0,,4,,,88,127
76070,note_off,87,0,0,,4,,,76,127
76093,note_off,23,0,0,,4,,,88,127
76094,note_on,1,0,0,,12,,,83,127
76205,note_off,111,0,0,,12,,,83,127
76207,note_on,2,0,0,,8,,,80,127
76318,note_off,111,0,0,,8,,,80,127
76319,note_on,1,0,0,,4,,,76,127
76411,note_off,92,0,0,,4,,,40,127
76430,note_off,19,0,0,,4,,,76,127
76432,note_on,2,0,0,,12,,,47,127
76432,note_on,0,0,0,,3,,,87,127
76432,note_on,0,0,0,,6,,,78,127
76543,note_off,111,0,0,,6,,,78,127
76543,note_off,0,0,0,,3,,,87,127
76543,note_off,0,0,0,,12,,,47,127
76545,note_on,2,0,0,,4,,,88,127
76545,note_on,0,0,0,,8,,,80,127
76545,note_on,0,0,0,,4,,,40,127
76657,note_off,112,0,0,,4,,,88,127
76672,note_on,15,0,0,,4,,,88,127
76712,note_off,40,0,0,,8,,,80,127
76784,note_off,72,0,0,,4,,,88,127
76786,note_on,2,0,0,,12,,,83,127
76898,note_off,112,0,0,,12,,,83,127
76901,note_on,3,0,0,,8,,,80,127
77013,note_off,112,0,0,,8,,,80,127
77014,note_on,1,0,0,,4,,,76,127
77113,note_off,99,0,0,,4,,,40,127
77126,note_off,13,0,0,,4,,,76,127
77129,note_on,3,0,0,,12,,,47,127
77129,note_on,0,0,0,,6,,,78,127
77129,note_on,0,0,0,,3,,,87,127
77241,note_off,112,0,0,,3,,,87,127
77241,note_off,0,0,0,,6,,,78,127
77241,note_off,0,0,0,,12,,,47,127
77242,note_on,1,0,0,,4,,,88,127
77242,note_on,0,0,0,,4,,,40,127
77356,note_off,114,0,0,,4,,,40,127
77356,note_off,0,0,0,,4,,,88,127
77373,note_on,17,0,0,,4,,,52,127
77373,note_on,0,0,0,,8,,,80,127
77487,note_off,114,0,0,,8,,,80,127
77487,note_off,0,0,0,,4,,,52,127
77490,note_on,3,0,0,,12,,,47,127
77490,note_on,0,0,0,,6,,,78,127
77529,note_on,39,0,0,,8,,,80,127
77532,note_off,3,0,0,,6,,,78,127
77568,note_on,36,0,0,,6,,,78,127
77571,note_off,3,0,0,,8,,,80,127
77605,note_off,34,0,0,,12,,,47,127
77608,note_on,3,0,0,,4,,,40,127
77608,note_on,0,0,0,,4,,,76,127
77609,note_off,1,0,0,,6,,,78,127
77722,note_off,113,0,0,,4,,,76,127
77722,note_off,0,0,0,,4,,,40,127
77723,note_on,1,0,0,,4,,,52,127
77723,note_on,0,0,0,,8,,,80,127
77837,note_off,114,0,0,,8,,,80,127
77837,note_off,0,0,0,,4,,,52,127
77840,note_on,3,0,0,,12,,,47,127
77840,note_on,0,0,0,,6,,,78,127
77879,note_on,39,0,0,,8,,,80,127
77882,note_off,3,0,0,,6,,,78,127
77916,note_on,34,0,0,,6,,,78,127
77920,note_off,4,0,0,,8,,,80,127
77954,note_off,34,0,0,,12,,,47,127
77956,note_on,2,0,0,,4,,,76,127
77956,note_on,0,0,0,,4,,,40,127
77957,note_off,1,0,0,,6,,,78,127
78073,note_off,116,0,0,,4,,,40,127
78073,note_off,0,0,0,,4,,,76,127
78091,note_on,18,0,0,,4,,,52,127
78091,note_on,0,0,0,,8,,,68,127
78208,note_off,117,0,0,,8,,,68,127
78208,note_off,0,0,0,,4,,,52,127
78212,note_on,4,0,0,,12,,,47,127
78212,note_on,0,0,0,,6,,,66,127
78251,note_on,39,0,0,,8,,,68,127
78254,note_off,3,0,0,,6,,,66,127
78290,note_on,36,0,0,,6,,,66,127
78293,note_off,3,0,0,,8,,,68,127
78328,note_off,35,0,0,,12,,,47,127
78331,note_off,3,0,0,,6,,,66,127
78331,note_on,0,0,0,,4,,,40,127
78331,note_on,0,0,0,,4,,,64,127
78448,note_off,117,0,0,,4,,,64,127
78448,note_off,0,0,0,,4,,,40,127
78476,note_on,28,0,0,,8,,,56,127
78476,note_on,0,0,0,,4,,,52,127
78608,note_off,132,0,0,,4,,,52,127
78608,note_off,0,0,0,,8,,,56,127
78614,note_on,6,0,0,,6,,,54,127
78614,note_on,0,0,0,,12,,,47,127
78660,note_on,46,0,0,,8,,,56,127
78663,note_off,3,0,0,,6,,,54,127
78709,note_on,46,0,0,,6,,,54,127
78715,note_off,6,0,0,,8,,,56,127
78746,note_off,31,0,0,,12,,,47,127
78773,note_off,27,0,0,,6,,,54,127
78800,note_on,27,0,0,,4,,,52,127
78800,note_on,0,0,0,,4,,,40,127
80429,note_off,1629,0,0,,4,,,40,127
80429,note_off,0,0,0,,4,,,52,127
86016,end_of_track,5587,1,0,,,,,,
