tick,type,time,meta,track,program,channel,pitch,tempo,note,velocity
0,copyright,0,1,0,,,,,,
0,program_change,0,0,0,6,0,,,,
0,pitchwheel,0,0,0,,0,0,,,
0,program_change,0,0,0,6,1,,,,
0,pitchwheel,0,0,0,,1,-590,,,
0,program_change,0,0,0,6,2,,,,
0,pitchwheel,0,0,0,,2,-272,,,
0,program_change,0,0,0,6,3,,,,
0,pitchwheel,0,0,0,,3,-353,,,
0,program_change,0,0,0,6,4,,,,
0,pitchwheel,0,0,0,,4,-560,,,
0,program_change,0,0,0,6,5,,,,
0,pitchwheel,0,0,0,,5,-80,,,
0,program_change,0,0,0,6,6,,,,
0,pitchwheel,0,0,0,,6,-625,,,
0,program_change,0,0,0,6,7,,,,
0,pitchwheel,0,0,0,,7,-130,,,
0,program_change,0,0,0,6,8,,,,
0,pitchwheel,0,0,0,,8,-512,,,
0,program_change,0,0,0,6,10,,,,
0,pitchwheel,0,0,0,,10,-464,,,
0,program_change,0,0,0,6,11,,,,
0,pitchwheel,0,0,0,,11,-208,,,
0,program_change,0,0,0,6,12,,,,
0,pitchwheel,0,0,0,,12,-553,,,
0,set_tempo,0,1,0,,,,500000,,
91,note_on,91,0,0,,10,,,81,127
309,note_off,218,0,0,,10,,,81,127
310,note_on,1,0,0,,4,,,76,127
528,note_off,218,0,0,,4,,,76,127
529,note_on,1,0,0,,1,,,61,127
747,note_off,218,0,0,,1,,,61,127
748,note_on,1,0,0,,2,,,62,127
857,note_off,109,0,0,,2,,,62,127
858,note_on,1,0,0,,4,,,64,127
967,note_off,109,0,0,,4,,,64,127
968,note_on,1,0,0,,2,,,62,127
1186,note_off,218,0,0,,2,,,62,127
1187,note_on,1,0,0,,1,,,61,127
1405,note_off,218,0,0,,1,,,61,127
1406,note_on,1,0,0,,1,,,61,127
1515,note_off,109,0,0,,1,,,61,127
1516,note_on,1,0,0,,12,,,59,127
1625,note_off,109,0,0,,12,,,59,127
1626,note_on,1,0,0,,10,,,57,127
1735,note_off,109,0,0,,10,,,57,127
1736,note_on,1,0,0,,8,,,56,127
1845,note_off,109,0,0,,8,,,56,127
1846,note_on,1,0,0,,10,,,81,127
1846,note_on,0,0,0,,10,,,57,127
2064,note_off,218,0,0,,10,,,81,127
2065,note_on,1,0,0,,4,,,76,127
2283,note_off,218,0,0,,4,,,76,127
2283,note_off,0,0,0,,10,,,57,127
2284,note_on,1,0,0,,1,,,73,127
2284,note_on,0,0,0,,1,,,49,127
2502,note_off,218,0,0,,1,,,73,127
2503,note_on,1,0,0,,2,,,74,127
2612,note_off,109,0,0,,2,,,74,127
2613,note_on,1,0,0,,4,,,76,127
2722,note_off,109,0,0,,4,,,76,127
2722,note_off,0,0,0,,1,,,49,127
2723,note_on,1,0,0,,2,,,74,127
2723,note_on,0,0,0,,2,,,50,127
2941,note_off,218,0,0,,2,,,74,127
2942,note_on,1,0,0,,1,,,73,127
3160,note_off,218,0,0,,1,,,73,127
3160,note_off,0,0,0,,2,,,50,127
3161,note_on,1,0,0,,1,,,73,127
3161,note_on,0,0,0,,4,,,52,127
3270,note_off,109,0,0,,1,,,73,127
3271,note_on,1,0,0,,12,,,71,127
3380,note_off,109,0,0,,12,,,71,127
3381,note_on,1,0,0,,10,,,69,127
3490,note_off,109,0,0,,10,,,69,127
3491,note_on,1,0,0,,8,,,68,127
3617,note_off,126,0,0,,8,,,68,127
3619,note_off,2,0,0,,4,,,52,127
3637,note_on,18,0,0,,10,,,81,127
3855,note_off,218,0,0,,10,,,81,127
3856,note_on,1,0,0,,4,,,76,127
4074,note_off,218,0,0,,4,,,76,127
4075,note_on,1,0,0,,1,,,61,127
4293,note_off,218,0,0,,1,,,61,127
4294,note_on,1,0,0,,2,,,62,127
4403,note_off,109,0,0,,2,,,62,127
4404,note_on,1,0,0,,4,,,64,127
4513,note_off,109,0,0,,4,,,64,127
4514,note_on,1,0,0,,2,,,62,127
4732,note_off,218,0,0,,2,,,62,127
4733,note_on,1,0,0,,1,,,61,127
4951,note_off,218,0,0,,1,,,61,127
4952,note_on,1,0,0,,1,,,61,127
5061,note_off,109,0,0,,1,,,61,127
5062,note_on,1,0,0,,12,,,59,127
5171,note_off,109,0,0,,12,,,59,127
5172,note_on,1,0,0,,10,,,57,127
5281,note_off,109,0,0,,10,,,57,127
5282,note_on,1,0,0,,8,,,56,127
5391,note_off,109,0,0,,8,,,56,127
5392,note_on,1,0,0,,10,,,81,127
5392,note_on,0,0,0,,10,,,57,127
5610,note_off,218,0,0,,10,,,81,127
5611,note_on,1,0,0,,4,,,76,127
5829,note_off,218,0,0,,4,,,76,127
5829,note_off,0,0,0,,10,,,57,127
5830,note_on,1,0,0,,1,,,73,127
5830,note_on,0,0,0,,1,,,49,127
6048,note_off,218,0,0,,1,,,73,127
6049,note_on,1,0,0,,2,,,74,127
6158,note_off,109,0,0,,2,,,74,127
6159,note_on,1,0,0,,4,,,76,127
6268,note_off,109,0,0,,4,,,76,127
6268,note_off,0,0,0,,1,,,49,127
6269,note_on,1,0,0,,2,,,74,127
6269,note_on,0,0,0,,2,,,50,127
6487,note_off,218,0,0,,2,,,74,127
6488,note_on,1,0,0,,2,,,74,127
6597,note_off,109,0,0,,2,,,74,127
6598,note_on,1,0,0,,1,,,73,127
6707,note_off,109,0,0,,1,,,73,127
6707,note_off,0,0,0,,2,,,50,127
6708,note_on,1,0,0,,1,,,73,127
6708,note_on,0,0,0,,4,,,52,127
6817,note_off,109,0,0,,1,,,73,127
6818,note_on,1,0,0,,12,,,71,127
6927,note_off,109,0,0,,12,,,71,127
6928,note_on,1,0,0,,10,,,69,127
7037,note_off,109,0,0,,10,,,69,127
7038,note_on,1,0,0,,8,,,68,127
7147,note_off,109,0,0,,8,,,68,127
7147,note_off,0,0,0,,4,,,52,127
7148,note_on,1,0,0,,8,,,68,127
7148,note_on,0,0,0,,10,,,45,127
7599,note_on,451,0,0,,10,,,69,127
7600,note_off,1,0,0,,8,,,68,127
7817,note_off,217,0,0,,10,,,69,127
7842,note_on,25,0,0,,10,,,81,127
7842,note_on,0,0,0,,1,,,73,127
7951,note_off,109,0,0,,1,,,73,127
7952,note_on,1,0,0,,10,,,69,127
8024,note_off,72,0,0,,10,,,45,127
8061,note_off,37,0,0,,10,,,69,127
8061,note_off,0,0,0,,10,,,81,127
8062,note_on,1,0,0,,10,,,81,127
8062,note_on,0,0,0,,1,,,73,127
8062,note_on,0,0,0,,10,,,57,127
8062,note_on,0,0,0,,10,,,45,127
8280,note_off,218,0,0,,1,,,73,127
8281,note_on,1,0,0,,10,,,69,127
8499,note_off,218,0,0,,10,,,69,127
8499,note_off,0,0,0,,10,,,45,127
8499,note_off,0,0,0,,10,,,57,127
8499,note_off,0,0,0,,10,,,81,127
8500,note_on,1,0,0,,3,,,75,127
8500,note_on,0,0,0,,10,,,81,127
8500,note_on,0,0,0,,12,,,47,127
8500,note_on,0,0,0,,10,,,57,127
8718,note_off,218,0,0,,3,,,75,127
8719,note_on,1,0,0,,10,,,69,127
8937,note_off,218,0,0,,10,,,69,127
8937,note_off,0,0,0,,10,,,57,127
8937,note_off,0,0,0,,12,,,47,127
8937,note_off,0,0,0,,10,,,81,127
8938,note_on,1,0,0,,10,,,81,127
8938,note_on,0,0,0,,4,,,76,127
8938,note_on,0,0,0,,10,,,57,127
8938,note_on,0,0,0,,1,,,49,127
9156,note_off,218,0,0,,4,,,76,127
9157,note_on,1,0,0,,10,,,69,127
9375,note_off,218,0,0,,10,,,69,127
9375,note_off,0,0,0,,1,,,49,127
9375,note_off,0,0,0,,10,,,57,127
9375,note_off,0,0,0,,10,,,81,127
9376,note_on,1,0,0,,3,,,75,127
9376,note_on,0,0,0,,10,,,81,127
9376,note_on,0,0,0,,12,,,47,127
9376,note_on,0,0,0,,10,,,57,127
9594,note_off,218,0,0,,3,,,75,127
9595,note_on,1,0,0,,10,,,69,127
9813,note_off,218,0,0,,10,,,69,127
9813,note_off,0,0,0,,10,,,57,127
9813,note_off,0,0,0,,12,,,47,127
9813,note_off,0,0,0,,10,,,81,127
9814,note_on,1,0,0,,4,,,76,127
9814,note_on,0,0,0,,10,,,81,127
9814,note_on,0,0,0,,10,,,57,127
9814,note_on,0,0,0,,1,,,49,127
10032,note_off,218,0,0,,4,,,76,127
10033,note_on,1,0,0,,10,,,69,127
10251,note_off,218,0,0,,10,,,69,127
10251,note_off,0,0,0,,1,,,49,127
10251,note_off,0,0,0,,10,,,57,127
10251,note_off,0,0,0,,10,,,81,127
10252,note_on,1,0,0,,10,,,81,127
10252,note_on,0,0,0,,6,,,78,127
10252,note_on,0,0,0,,10,,,57,127
10252,note_on,0,0,0,,12,,,59,127
10252,note_on,0,0,0,,3,,,51,127
10470,note_off,218,0,0,,6,,,78,127
10471,note_on,1,0,0,,10,,,69,127
10689,note_off,218,0,0,,10,,,69,127
10689,note_off,0,0,0,,3,,,51,127
10689,note_off,0,0,0,,12,,,59,127
10689,note_off,0,0,0,,10,,,57,127
10689,note_off,0,0,0,,10,,,81,127
10690,note_on,1,0,0,,12,,,71,127
10690,note_on,0,0,0,,8,,,80,127
10690,note_on,0,0,0,,10,,,81,127
10690,note_on,0,0,0,,12,,,59,127
10690,note_on,0,0,0,,4,,,52,127
10799,note_off,109,0,0,,10,,,81,127
10799,note_off,0,0,0,,8,,,80,127
10799,note_off,0,0,0,,12,,,71,127
10800,note_on,1,0,0,,6,,,78,127
10909,note_off,109,0,0,,6,,,78,127
10910,note_on,1,0,0,,4,,,76,127
11239,note_off,329,0,0,,4,,,76,127
11367,note_on,128,0,0,,12,,,71,127
11367,note_on,0,0,0,,7,,,79,127
11476,note_off,109,0,0,,12,,,71,127
11477,note_on,1,0,0,,7,,,67,127
11567,note_off,90,0,0,,4,,,52,127
11567,note_off,0,0,0,,12,,,59,127
11585,note_off,18,0,0,,7,,,67,127
11585,note_off,0,0,0,,7,,,79,127
11586,note_on,1,0,0,,7,,,43,127
11586,note_on,0,0,0,,7,,,55,127
11586,note_on,0,0,0,,7,,,79,127
11586,note_on,0,0,0,,12,,,71,127
11804,note_off,218,0,0,,12,,,71,127
11805,note_on,1,0,0,,7,,,67,127
12023,note_off,218,0,0,,7,,,67,127
12023,note_off,0,0,0,,7,,,79,127
12023,note_off,0,0,0,,7,,,55,127
12023,note_off,0,0,0,,7,,,43,127
12024,note_on,1,0,0,,10,,,45,127
12024,note_on,0,0,0,,7,,,55,127
12024,note_on,0,0,0,,1,,,73,127
12024,note_on,0,0,0,,7,,,79,127
12242,note_off,218,0,0,,1,,,73,127
12243,note_on,1,0,0,,7,,,67,127
12461,note_off,218,0,0,,7,,,67,127
12461,note_off,0,0,0,,7,,,79,127
12461,note_off,0,0,0,,7,,,55,127
12461,note_off,0,0,0,,10,,,45,127
12462,note_on,1,0,0,,12,,,47,127
12462,note_on,0,0,0,,7,,,55,127
12462,note_on,0,0,0,,2,,,74,127
12462,note_on,0,0,0,,7,,,79,127
12680,note_off,218,0,0,,2,,,74,127
12681,note_on,1,0,0,,7,,,67,127
12899,note_off,218,0,0,,7,,,67,127
12899,note_off,0,0,0,,7,,,79,127
12899,note_off,0,0,0,,7,,,55,127
12899,note_off,0,0,0,,12,,,47,127
12900,note_on,1,0,0,,10,,,45,127
12900,note_on,0,0,0,,7,,,55,127
12900,note_on,0,0,0,,1,,,73,127
12900,note_on,0,0,0,,7,,,79,127
13118,note_off,218,0,0,,1,,,73,127
13119,note_on,1,0,0,,7,,,67,127
13337,note_off,218,0,0,,7,,,67,127
13337,note_off,0,0,0,,7,,,79,127
13337,note_off,0,0,0,,7,,,55,127
13337,note_off,0,0,0,,10,,,45,127
13338,note_on,1,0,0,,12,,,47,127
13338,note_on,0,0,0,,7,,,55,127
13338,note_on,0,0,0,,7,,,79,127
13338,note_on,0,0,0,,2,,,74,127
13556,note_off,218,0,0,,2,,,74,127
13557,note_on,1,0,0,,7,,,67,127
13775,note_off,218,0,0,,7,,,67,127
13775,note_off,0,0,0,,7,,,79,127
13775,note_off,0,0,0,,7,,,55,127
13775,note_off,0,0,0,,12,,,47,127
13776,note_on,1,0,0,,7,,,55,127
13776,note_on,0,0,0,,1,,,49,127
13776,note_on,0,0,0,,10,,,57,127
13776,note_on,0,0,0,,4,,,76,127
13776,note_on,0,0,0,,7,,,79,127
13994,note_off,218,0,0,,4,,,76,127
13995,note_on,1,0,0,,7,,,67,127
14213,note_off,218,0,0,,7,,,67,127
14213,note_off,0,0,0,,7,,,79,127
14213,note_off,0,0,0,,10,,,57,127
14213,note_off,0,0,0,,1,,,49,127
14213,note_off,0,0,0,,7,,,55,127
14214,note_on,1,0,0,,2,,,50,127
14214,note_on,0,0,0,,10,,,57,127
14214,note_on,0,0,0,,7,,,79,127
14214,note_on,0,0,0,,10,,,69,127
14214,note_on,0,0,0,,6,,,78,127
14323,note_off,109,0,0,,6,,,78,127
14323,note_off,0,0,0,,10,,,69,127
14323,note_off,0,0,0,,7,,,79,127
14324,note_on,1,0,0,,4,,,76,127
14433,note_off,109,0,0,,4,,,76,127
14434,note_on,1,0,0,,2,,,74,127
14763,note_off,329,0,0,,2,,,74,127
14891,note_on,128,0,0,,2,,,74,127
14891,note_on,0,0,0,,6,,,78,127
15000,note_off,109,0,0,,2,,,74,127
15001,note_on,1,0,0,,6,,,66,127
15091,note_off,90,0,0,,10,,,57,127
15091,note_off,0,0,0,,2,,,50,127
15109,note_off,18,0,0,,6,,,66,127
15109,note_off,0,0,0,,6,,,78,127
15110,note_on,1,0,0,,6,,,78,127
15110,note_on,0,0,0,,2,,,74,127
15110,note_on,0,0,0,,2,,,50,127
15110,note_on,0,0,0,,2,,,62,127
15328,note_off,218,0,0,,2,,,74,127
15329,note_on,1,0,0,,6,,,66,127
15547,note_off,218,0,0,,6,,,66,127
15547,note_off,0,0,0,,2,,,62,127
15547,note_off,0,0,0,,2,,,50,127
15547,note_off,0,0,0,,6,,,78,127
15548,note_on,1,0,0,,2,,,74,127
15548,note_on,0,0,0,,6,,,78,127
15548,note_on,0,0,0,,4,,,52,127
15548,note_on,0,0,0,,2,,,62,127
15766,note_off,218,0,0,,2,,,74,127
15767,note_on,1,0,0,,8,,,68,127
15985,note_off,218,0,0,,8,,,68,127
15985,note_off,0,0,0,,2,,,62,127
15985,note_off,0,0,0,,4,,,52,127
15985,note_off,0,0,0,,6,,,78,127
15986,note_on,1,0,0,,6,,,78,127
15986,note_on,0,0,0,,2,,,74,127
15986,note_on,0,0,0,,2,,,62,127
15986,note_on,0,0,0,,6,,,54,127
16204,note_off,218,0,0,,2,,,74,127
16205,note_on,1,0,0,,10,,,69,127
16423,note_off,218,0,0,,10,,,69,127
16423,note_off,0,0,0,,6,,,54,127
16423,note_off,0,0,0,,2,,,62,127
16423,note_off,0,0,0,,6,,,78,127
16424,note_on,1,0,0,,12,,,71,127
16424,note_on,0,0,0,,8,,,56,127
16425,note_on,1,0,0,,6,,,78,127
16642,note_off,217,0,0,,12,,,71,127
16643,note_off,1,0,0,,6,,,78,127
16643,note_on,0,0,0,,4,,,76,127
16752,note_off,109,0,0,,4,,,76,127
16753,note_on,1,0,0,,2,,,74,127
16862,note_off,109,0,0,,2,,,74,127
16862,note_off,0,0,0,,8,,,56,127
16863,note_on,1,0,0,,2,,,74,127
16863,note_on,0,0,0,,10,,,57,127
16972,note_off,109,0,0,,2,,,74,127
16973,note_on,1,0,0,,1,,,73,127
17082,note_off,109,0,0,,1,,,73,127
17083,note_on,1,0,0,,12,,,71,127
17192,note_off,109,0,0,,12,,,71,127
17193,note_on,1,0,0,,1,,,73,127
17302,note_off,109,0,0,,1,,,73,127
17302,note_off,0,0,0,,10,,,57,127
17303,note_on,1,0,0,,2,,,74,127
17303,note_on,0,0,0,,2,,,50,127
17521,note_off,218,0,0,,2,,,74,127
17522,note_on,1,0,0,,1,,,73,127
17740,note_off,218,0,0,,1,,,73,127
17740,note_off,0,0,0,,2,,,50,127
17741,note_on,1,0,0,,1,,,73,127
17741,note_on,0,0,0,,4,,,52,127
17795,note_off,54,0,0,,1,,,73,127
17796,note_on,1,0,0,,12,,,71,127
17850,note_off,54,0,0,,12,,,71,127
17851,note_on,1,0,0,,1,,,73,127
17905,note_off,54,0,0,,1,,,73,127
17906,note_on,1,0,0,,12,,,71,127
17960,note_off,54,0,0,,12,,,71,127
17960,note_off,0,0,0,,4,,,52,127
17961,note_on,1,0,0,,1,,,73,127
17961,note_on,0,0,0,,8,,,56,127
18015,note_off,54,0,0,,1,,,73,127
18016,note_on,1,0,0,,12,,,71,127
18070,note_off,54,0,0,,12,,,71,127
18071,note_on,1,0,0,,10,,,69,127
18125,note_off,54,0,0,,10,,,69,127
18126,note_on,1,0,0,,12,,,71,127
18180,note_off,54,0,0,,12,,,71,127
18180,note_off,0,0,0,,8,,,56,127
18181,note_on,1,0,0,,1,,,73,127
18181,note_on,0,0,0,,10,,,57,127
18399,note_off,218,0,0,,10,,,57,127
18399,note_off,0,0,0,,1,,,73,127
18400,note_on,1,0,0,,2,,,74,127
18400,note_on,0,0,0,,2,,,50,127
18618,note_off,218,0,0,,2,,,50,127
18618,note_off,0,0,0,,2,,,74,127
18619,note_on,1,0,0,,1,,,73,127
18619,note_on,0,0,0,,4,,,52,127
18673,note_off,54,0,0,,1,,,73,127
18674,note_on,1,0,0,,12,,,71,127
18728,note_off,54,0,0,,12,,,71,127
18729,note_on,1,0,0,,1,,,73,127
18783,note_off,54,0,0,,1,,,73,127
18784,note_on,1,0,0,,12,,,71,127
18838,note_off,54,0,0,,12,,,71,127
18838,note_off,0,0,0,,4,,,52,127
18839,note_on,1,0,0,,1,,,73,127
18839,note_on,0,0,0,,8,,,56,127
18893,note_off,54,0,0,,1,,,73,127
18894,note_on,1,0,0,,12,,,71,127
18948,note_off,54,0,0,,12,,,71,127
18949,note_on,1,0,0,,10,,,69,127
19003,note_off,54,0,0,,10,,,69,127
19004,note_on,1,0,0,,12,,,71,127
19058,note_off,54,0,0,,12,,,71,127
19058,note_off,0,0,0,,8,,,56,127
19059,note_on,1,0,0,,1,,,73,127
19059,note_on,0,0,0,,10,,,57,127
19277,note_off,218,0,0,,10,,,57,127
19277,note_off,0,0,0,,1,,,73,127
19278,note_on,1,0,0,,2,,,74,127
19278,note_on,0,0,0,,2,,,50,127
19496,note_off,218,0,0,,2,,,50,127
19496,note_off,0,0,0,,2,,,74,127
19497,note_on,1,0,0,,1,,,73,127
19497,note_on,0,0,0,,4,,,52,127
19551,note_off,54,0,0,,1,,,73,127
19552,note_on,1,0,0,,12,,,71,127
19606,note_off,54,0,0,,12,,,71,127
19607,note_on,1,0,0,,1,,,73,127
19661,note_off,54,0,0,,1,,,73,127
19662,note_on,1,0,0,,12,,,71,127
19716,note_off,54,0,0,,12,,,71,127
19716,note_off,0,0,0,,4,,,52,127
19717,note_on,1,0,0,,1,,,73,127
19717,note_on,0,0,0,,8,,,56,127
19771,note_off,54,0,0,,1,,,73,127
19772,note_on,1,0,0,,12,,,71,127
19826,note_off,54,0,0,,12,,,71,127
19827,note_on,1,0,0,,10,,,69,127
19881,note_off,54,0,0,,10,,,69,127
19882,note_on,1,0,0,,12,,,71,127
19936,note_off,54,0,0,,12,,,71,127
19936,note_off,0,0,0,,8,,,56,127
19937,note_on,1,0,0,,1,,,73,127
19937,note_on,0,0,0,,10,,,57,127
20155,note_off,218,0,0,,10,,,57,127
20155,note_off,0,0,0,,1,,,73,127
20156,note_on,1,0,0,,2,,,74,127
20156,note_on,0,0,0,,2,,,50,127
20374,note_off,218,0,0,,2,,,50,127
20374,note_off,0,0,0,,2,,,74,127
20375,note_on,1,0,0,,1,,,73,127
20375,note_on,0,0,0,,4,,,40,127
20375,note_on,0,0,0,,4,,,52,127
20429,note_off,54,0,0,,1,,,73,127
20430,note_on,1,0,0,,12,,,71,127
20484,note_off,54,0,0,,12,,,71,127
20485,note_on,1,0,0,,1,,,73,127
20539,note_off,54,0,0,,1,,,73,127
20540,note_on,1,0,0,,12,,,71,127
20933,note_off,393,0,0,,4,,,52,127
20933,note_off,0,0,0,,4,,,40,127
21088,note_off,155,0,0,,12,,,71,127
21472,note_on,384,0,0,,0,,,48,127
21581,note_off,109,0,0,,0,,,48,127
21582,note_on,1,0,0,,0,,,36,127
21691,note_off,109,0,0,,0,,,36,127
21692,note_on,1,0,0,,0,,,48,127
21910,note_off,218,0,0,,0,,,48,127
21911,note_on,1,0,0,,0,,,36,127
22129,note_off,218,0,0,,0,,,36,127
22130,note_on,1,0,0,,2,,,50,127
22348,note_off,218,0,0,,2,,,50,127
22349,note_on,1,0,0,,2,,,38,127
22567,note_off,218,0,0,,2,,,38,127
22568,note_on,1,0,0,,4,,,52,127
23006,note_off,438,0,0,,4,,,52,127
23007,note_on,1,0,0,,2,,,74,127
23007,note_on,0,0,0,,0,,,48,127
23061,note_off,54,0,0,,2,,,74,127
23062,note_on,1,0,0,,0,,,72,127
23116,note_off,54,0,0,,0,,,72,127
23117,note_on,1,0,0,,2,,,74,127
23171,note_off,54,0,0,,2,,,74,127
23172,note_on,1,0,0,,0,,,72,127
23226,note_off,54,0,0,,0,,,72,127
23227,note_on,1,0,0,,2,,,74,127
23281,note_off,54,0,0,,2,,,74,127
23282,note_on,1,0,0,,0,,,72,127
23336,note_off,54,0,0,,0,,,72,127
23337,note_on,1,0,0,,2,,,74,127
23391,note_off,54,0,0,,2,,,74,127
23392,note_on,1,0,0,,0,,,72,127
23446,note_off,54,0,0,,0,,,48,127
23447,note_on,1,0,0,,6,,,54,127
23556,note_off,109,0,0,,0,,,72,127
23557,note_on,1,0,0,,2,,,74,127
23611,note_off,54,0,0,,2,,,74,127
23612,note_on,1,0,0,,4,,,76,127
23666,note_off,54,0,0,,4,,,76,127
23667,note_on,1,0,0,,6,,,78,127
23721,note_off,54,0,0,,6,,,78,127
23722,note_on,1,0,0,,7,,,79,127
23776,note_off,54,0,0,,7,,,79,127
23777,note_on,1,0,0,,10,,,81,127
23831,note_off,54,0,0,,10,,,81,127
23832,note_on,1,0,0,,12,,,83,127
23886,note_off,54,0,0,,12,,,83,127
23886,note_off,0,0,0,,6,,,54,127
23887,note_on,1,0,0,,0,,,84,127
23887,note_on,0,0,0,,2,,,50,127
24105,note_off,218,0,0,,0,,,84,127
24106,note_on,1,0,0,,10,,,81,127
24324,note_off,218,0,0,,10,,,81,127
24324,note_off,0,0,0,,2,,,50,127
24325,note_on,1,0,0,,12,,,83,127
24325,note_on,0,0,0,,7,,,55,127
24543,note_off,218,0,0,,12,,,83,127
24544,note_on,1,0,0,,7,,,79,127
24762,note_off,218,0,0,,7,,,79,127
24763,note_on,1,0,0,,2,,,74,127
24981,note_off,218,0,0,,2,,,74,127
24981,note_off,0,0,0,,7,,,55,127
25000,note_on,19,0,0,,2,,,50,127
25109,note_off,109,0,0,,2,,,50,127
25110,note_on,1,0,0,,2,,,38,127
25219,note_off,109,0,0,,2,,,38,127
25220,note_on,1,0,0,,2,,,50,127
25438,note_off,218,0,0,,2,,,50,127
25439,note_on,1,0,0,,2,,,38,127
25657,note_off,218,0,0,,2,,,38,127
25658,note_on,1,0,0,,4,,,52,127
25876,note_off,218,0,0,,4,,,52,127
25877,note_on,1,0,0,,4,,,40,127
26095,note_off,218,0,0,,4,,,40,127
26096,note_on,1,0,0,,5,,,53,127
26534,note_off,438,0,0,,5,,,53,127
26535,note_on,1,0,0,,2,,,50,127
26535,note_on,0,0,0,,4,,,76,127
26589,note_off,54,0,0,,4,,,76,127
26590,note_on,1,0,0,,2,,,74,127
26644,note_off,54,0,0,,2,,,74,127
26645,note_on,1,0,0,,4,,,76,127
26699,note_off,54,0,0,,4,,,76,127
26700,note_on,1,0,0,,2,,,74,127
26754,note_off,54,0,0,,2,,,74,127
26755,note_on,1,0,0,,4,,,76,127
26809,note_off,54,0,0,,4,,,76,127
26810,note_on,1,0,0,,2,,,74,127
26864,note_off,54,0,0,,2,,,74,127
26865,note_on,1,0,0,,4,,,76,127
26919,note_off,54,0,0,,4,,,76,127
26920,note_on,1,0,0,,2,,,74,127
26974,note_off,54,0,0,,2,,,50,127
26975,note_on,1,0,0,,8,,,56,127
27084,note_off,109,0,0,,2,,,74,127
27085,note_on,1,0,0,,4,,,76,127
27139,note_off,54,0,0,,4,,,76,127
27140,note_on,1,0,0,,6,,,78,127
27194,note_off,54,0,0,,6,,,78,127
27195,note_on,1,0,0,,8,,,80,127
27249,note_off,54,0,0,,8,,,80,127
27250,note_on,1,0,0,,10,,,81,127
27304,note_off,54,0,0,,10,,,81,127
27305,note_on,1,0,0,,12,,,83,127
27359,note_off,54,0,0,,12,,,83,127
27360,note_on,1,0,0,,0,,,84,127
27414,note_off,54,0,0,,0,,,84,127
27414,note_off,0,0,0,,8,,,56,127
27415,note_on,1,0,0,,4,,,52,127
27415,note_on,0,0,0,,2,,,86,127
27633,note_off,218,0,0,,2,,,86,127
27634,note_on,1,0,0,,12,,,83,127
27852,note_off,218,0,0,,12,,,83,127
27852,note_off,0,0,0,,4,,,52,127
27853,note_on,1,0,0,,10,,,57,127
27853,note_on,0,0,0,,0,,,84,127
28071,note_off,218,0,0,,0,,,84,127
28072,note_on,1,0,0,,10,,,81,127
28290,note_off,218,0,0,,10,,,81,127
28291,note_on,1,0,0,,4,,,76,127
28509,note_off,218,0,0,,4,,,76,127
28509,note_off,0,0,0,,10,,,57,127
28528,note_on,19,0,0,,4,,,52,127
28637,note_off,109,0,0,,4,,,52,127
28638,note_on,1,0,0,,4,,,40,127
28747,note_off,109,0,0,,4,,,40,127
28748,note_on,1,0,0,,4,,,52,127
28966,note_off,218,0,0,,4,,,52,127
28967,note_on,1,0,0,,4,,,40,127
29185,note_off,218,0,0,,4,,,40,127
29186,note_on,1,0,0,,6,,,54,127
29404,note_off,218,0,0,,6,,,54,127
29405,note_on,1,0,0,,6,,,42,127
29623,note_off,218,0,0,,6,,,42,127
29624,note_on,1,0,0,,7,,,55,127
30062,note_off,438,0,0,,7,,,55,127
30063,note_on,1,0,0,,6,,,78,127
30063,note_on,0,0,0,,4,,,52,127
30117,note_off,54,0,0,,6,,,78,127
30118,note_on,1,0,0,,4,,,76,127
30172,note_off,54,0,0,,4,,,76,127
30173,note_on,1,0,0,,6,,,78,127
30227,note_off,54,0,0,,6,,,78,127
30228,note_on,1,0,0,,4,,,76,127
30282,note_off,54,0,0,,4,,,76,127
30283,note_on,1,0,0,,6,,,78,127
30337,note_off,54,0,0,,6,,,78,127
30338,note_on,1,0,0,,4,,,76,127
30392,note_off,54,0,0,,4,,,76,127
30393,note_on,1,0,0,,6,,,78,127
30447,note_off,54,0,0,,6,,,78,127
30448,note_on,1,0,0,,4,,,76,127
30502,note_off,54,0,0,,4,,,52,127
30503,note_on,1,0,0,,11,,,58,127
30612,note_off,109,0,0,,4,,,76,127
30613,note_on,1,0,0,,6,,,78,127
30667,note_off,54,0,0,,6,,,78,127
30668,note_on,1,0,0,,8,,,80,127
30722,note_off,54,0,0,,8,,,80,127
30723,note_on,1,0,0,,11,,,82,127
30777,note_off,54,0,0,,11,,,82,127
30778,note_on,1,0,0,,12,,,83,127
30832,note_off,54,0,0,,12,,,83,127
30833,note_on,1,0,0,,1,,,85,127
30887,note_off,54,0,0,,1,,,85,127
30888,note_on,1,0,0,,3,,,87,127
30942,note_off,54,0,0,,3,,,87,127
30942,note_off,0,0,0,,11,,,58,127
30943,note_on,1,0,0,,4,,,88,127
30943,note_on,0,0,0,,6,,,54,127
31161,note_off,218,0,0,,4,,,88,127
31162,note_on,1,0,0,,1,,,85,127
31380,note_off,218,0,0,,1,,,85,127
31380,note_off,0,0,0,,6,,,54,127
31381,note_on,1,0,0,,3,,,87,127
31381,note_on,0,0,0,,12,,,59,127
31599,note_off,218,0,0,,3,,,87,127
31600,note_on,1,0,0,,12,,,83,127
31818,note_off,218,0,0,,12,,,83,127
31819,note_on,1,0,0,,6,,,78,127
32002,note_off,183,0,0,,6,,,78,127
32045,note_on,43,0,0,,12,,,83,127
32180,note_off,135,0,0,,12,,,59,127
32273,note_off,93,0,0,,12,,,83,127
32276,note_on,3,0,0,,4,,,76,127
32276,note_on,0,0,0,,8,,,80,127
32494,note_off,218,0,0,,8,,,80,127
32495,note_on,1,0,0,,12,,,83,127
32713,note_off,218,0,0,,12,,,83,127
32713,note_off,0,0,0,,4,,,76,127
32714,note_on,1,0,0,,3,,,75,127
32714,note_on,0,0,0,,6,,,78,127
32932,note_off,218,0,0,,6,,,78,127
32933,note_on,1,0,0,,12,,,83,127
33151,note_off,218,0,0,,12,,,83,127
33151,note_off,0,0,0,,3,,,75,127
33152,note_on,1,0,0,,1,,,73,127
33152,note_on,0,0,0,,4,,,76,127
33370,note_off,218,0,0,,4,,,76,127
33371,note_on,1,0,0,,12,,,83,127
33589,note_off,218,0,0,,12,,,83,127
33589,note_off,0,0,0,,1,,,73,127
33590,note_on,1,0,0,,12,,,71,127
33590,note_on,0,0,0,,3,,,75,127
33808,note_off,218,0,0,,3,,,75,127
33809,note_on,1,0,0,,12,,,83,127
34027,note_off,218,0,0,,12,,,83,127
34027,note_off,0,0,0,,12,,,71,127
34028,note_on,1,0,0,,10,,,69,127
34028,note_on,0,0,0,,1,,,73,127
34246,note_off,218,0,0,,1,,,73,127
34247,note_on,1,0,0,,12,,,83,127
34465,note_off,218,0,0,,12,,,83,127
34465,note_off,0,0,0,,10,,,69,127
34466,note_on,1,0,0,,8,,,68,127
34466,note_on,0,0,0,,12,,,71,127
34684,note_off,218,0,0,,12,,,71,127
34685,note_on,1,0,0,,12,,,83,127
34903,note_off,218,0,0,,12,,,83,127
34903,note_off,0,0,0,,8,,,68,127
34904,note_on,1,0,0,,6,,,66,127
34904,note_on,0,0,0,,10,,,69,127
35122,note_off,218,0,0,,10,,,69,127
35123,note_on,1,0,0,,12,,,83,127
35341,note_off,218,0,0,,12,,,83,127
35341,note_off,0,0,0,,6,,,66,127
35342,note_on,1,0,0,,4,,,64,127
35342,note_on,0,0,0,,8,,,68,127
35560,note_off,218,0,0,,8,,,68,127
35561,note_on,1,0,0,,12,,,83,127
35779,note_off,218,0,0,,12,,,83,127
35779,note_off,0,0,0,,4,,,64,127
35780,note_on,1,0,0,,3,,,63,127
35780,note_on,0,0,0,,6,,,66,127
35998,note_off,218,0,0,,6,,,66,127
35999,note_on,1,0,0,,12,,,83,127
36217,note_off,218,0,0,,12,,,83,127
36217,note_off,0,0,0,,3,,,63,127
36218,note_on,1,0,0,,1,,,61,127
36218,note_on,0,0,0,,4,,,64,127
36436,note_off,218,0,0,,4,,,64,127
36437,note_on,1,0,0,,12,,,83,127
36655,note_off,218,0,0,,12,,,83,127
36655,note_off,0,0,0,,1,,,61,127
36656,note_on,1,0,0,,12,,,59,127
36656,note_on,0,0,0,,3,,,63,127
36874,note_off,218,0,0,,3,,,63,127
36874,note_off,0,0,0,,12,,,59,127
36875,note_on,1,0,0,,10,,,57,127
36875,note_on,0,0,0,,12,,,83,127
37093,note_off,218,0,0,,12,,,83,127
37093,note_off,0,0,0,,10,,,57,127
37094,note_on,1,0,0,,8,,,56,127
37094,note_on,0,0,0,,10,,,81,127
37203,note_off,109,0,0,,10,,,81,127
37204,note_on,1,0,0,,8,,,80,127
37313,note_off,109,0,0,,8,,,80,127
37313,note_off,0,0,0,,8,,,56,127
37314,note_on,1,0,0,,10,,,57,127
37314,note_on,0,0,0,,6,,,78,127
37423,note_off,109,0,0,,6,,,78,127
37424,note_on,1,0,0,,4,,,76,127
37533,note_off,109,0,0,,4,,,76,127
37533,note_off,0,0,0,,10,,,57,127
37534,note_on,1,0,0,,12,,,59,127
37534,note_on,0,0,0,,4,,,76,127
37643,note_off,109,0,0,,4,,,76,127
37644,note_on,1,0,0,,6,,,78,127
37753,note_off,109,0,0,,6,,,78,127
37754,note_on,1,0,0,,4,,,76,127
37808,note_off,54,0,0,,4,,,76,127
37809,note_on,1,0,0,,3,,,75,127
37863,note_off,54,0,0,,3,,,75,127
37864,note_on,1,0,0,,4,,,76,127
37918,note_off,54,0,0,,4,,,76,127
37919,note_on,1,0,0,,6,,,78,127
37973,note_off,54,0,0,,6,,,78,127
37973,note_off,0,0,0,,12,,,59,127
37974,note_on,1,0,0,,12,,,47,127
37974,note_on,0,0,0,,8,,,80,127
38028,note_off,54,0,0,,8,,,80,127
38029,note_on,1,0,0,,6,,,78,127
38083,note_off,54,0,0,,6,,,78,127
38084,note_on,1,0,0,,8,,,80,127
38138,note_off,54,0,0,,8,,,80,127
38139,note_on,1,0,0,,6,,,78,127
38193,note_off,54,0,0,,6,,,78,127
38194,note_on,1,0,0,,8,,,80,127
38248,note_off,54,0,0,,8,,,80,127
38249,note_on,1,0,0,,6,,,78,127
38303,note_off,54,0,0,,6,,,78,127
38304,note_on,1,0,0,,4,,,76,127
38413,note_off,109,0,0,,4,,,76,127
38413,note_off,0,0,0,,12,,,47,127
38414,note_on,1,0,0,,4,,,52,127
38414,note_on,0,0,0,,4,,,76,127
39071,note_off,657,0,0,,4,,,76,127
39071,note_off,0,0,0,,4,,,52,127
39237,note_on,166,0,0,,4,,,52,127
39346,note_off,109,0,0,,4,,,52,127
39347,note_on,1,0,0,,4,,,40,127
39456,note_off,109,0,0,,4,,,40,127
39457,note_on,1,0,0,,4,,,52,127
39675,note_off,218,0,0,,4,,,52,127
39676,note_on,1,0,0,,4,,,40,127
39894,note_off,218,0,0,,4,,,40,127
39895,note_on,1,0,0,,6,,,54,127
40113,note_off,218,0,0,,6,,,54,127
40114,note_on,1,0,0,,6,,,42,127
40332,note_off,218,0,0,,6,,,42,127
40333,note_on,1,0,0,,7,,,55,127
40771,note_off,438,0,0,,7,,,55,127
40772,note_on,1,0,0,,12,,,47,127
40772,note_on,0,0,0,,10,,,69,127
40826,note_off,54,0,0,,10,,,69,127
40827,note_on,1,0,0,,7,,,67,127
40881,note_off,54,0,0,,7,,,67,127
40882,note_on,1,0,0,,10,,,69,127
40936,note_off,54,0,0,,10,,,69,127
40937,note_on,1,0,0,,7,,,67,127
40991,note_off,54,0,0,,7,,,67,127
40992,note_on,1,0,0,,10,,,69,127
41046,note_off,54,0,0,,10,,,69,127
41047,note_on,1,0,0,,7,,,67,127
41101,note_off,54,0,0,,7,,,67,127
41102,note_on,1,0,0,,10,,,69,127
41156,note_off,54,0,0,,10,,,69,127
41157,note_on,1,0,0,,7,,,67,127
41211,note_off,54,0,0,,12,,,47,127
41212,note_on,1,0,0,,10,,,45,127
41321,note_off,109,0,0,,7,,,67,127
41322,note_on,1,0,0,,10,,,69,127
41376,note_off,54,0,0,,10,,,69,127
41377,note_on,1,0,0,,12,,,71,127
41431,note_off,54,0,0,,12,,,71,127
41432,note_on,1,0,0,,1,,,73,127
41486,note_off,54,0,0,,1,,,73,127
41487,note_on,1,0,0,,2,,,74,127
41541,note_off,54,0,0,,2,,,74,127
41542,note_on,1,0,0,,4,,,76,127
41596,note_off,54,0,0,,4,,,76,127
41597,note_on,1,0,0,,6,,,78,127
41651,note_off,54,0,0,,6,,,78,127
41651,note_off,0,0,0,,10,,,45,127
41652,note_on,1,0,0,,10,,,57,127
41652,note_on,0,0,0,,7,,,79,127
41870,note_off,218,0,0,,7,,,79,127
41871,note_on,1,0,0,,4,,,76,127
42089,note_off,218,0,0,,4,,,76,127
42089,note_off,0,0,0,,10,,,57,127
42090,note_on,1,0,0,,2,,,50,127
42090,note_on,0,0,0,,6,,,78,127
42308,note_off,218,0,0,,6,,,78,127
42309,note_on,1,0,0,,2,,,74,127
42527,note_off,218,0,0,,2,,,74,127
42528,note_on,1,0,0,,10,,,69,127
42746,note_off,218,0,0,,10,,,69,127
42746,note_off,0,0,0,,2,,,50,127
42765,note_on,19,0,0,,6,,,54,127
42874,note_off,109,0,0,,6,,,54,127
42875,note_on,1,0,0,,6,,,42,127
42984,note_off,109,0,0,,6,,,42,127
42985,note_on,1,0,0,,6,,,54,127
43203,note_off,218,0,0,,6,,,54,127
43204,note_on,1,0,0,,6,,,42,127
43422,note_off,218,0,0,,6,,,42,127
43423,note_on,1,0,0,,8,,,56,127
43641,note_off,218,0,0,,8,,,56,127
43642,note_on,1,0,0,,8,,,44,127
43860,note_off,218,0,0,,8,,,44,127
43861,note_on,1,0,0,,10,,,57,127
44299,note_off,438,0,0,,10,,,57,127
44300,note_on,1,0,0,,12,,,71,127
44300,note_on,0,0,0,,10,,,45,127
44354,note_off,54,0,0,,12,,,71,127
44355,note_on,1,0,0,,10,,,69,127
44409,note_off,54,0,0,,10,,,69,127
44410,note_on,1,0,0,,12,,,71,127
44464,note_off,54,0,0,,12,,,71,127
44465,note_on,1,0,0,,10,,,69,127
44519,note_off,54,0,0,,10,,,69,127
44520,note_on,1,0,0,,12,,,71,127
44574,note_off,54,0,0,,12,,,71,127
44575,note_on,1,0,0,,10,,,69,127
44629,note_off,54,0,0,,10,,,69,127
44630,note_on,1,0,0,,12,,,71,127
44684,note_off,54,0,0,,12,,,71,127
44685,note_on,1,0,0,,10,,,69,127
44739,note_off,54,0,0,,10,,,45,127
44740,note_on,1,0,0,,12,,,47,127
44849,note_off,109,0,0,,10,,,69,127
44850,note_on,1,0,0,,12,,,71,127
44904,note_off,54,0,0,,12,,,71,127
44905,note_on,1,0,0,,1,,,73,127
44959,note_off,54,0,0,,1,,,73,127
44960,note_on,1,0,0,,3,,,75,127
45014,note_off,54,0,0,,3,,,75,127
45015,note_on,1,0,0,,4,,,76,127
45069,note_off,54,0,0,,4,,,76,127
45070,note_on,1,0,0,,6,,,78,127
45124,note_off,54,0,0,,6,,,78,127
45125,note_on,1,0,0,,8,,,80,127
45179,note_off,54,0,0,,8,,,80,127
45179,note_off,0,0,0,,12,,,47,127
45180,note_on,1,0,0,,10,,,81,127
45180,note_on,0,0,0,,12,,,59,127
45398,note_off,218,0,0,,10,,,81,127
45399,note_on,1,0,0,,6,,,78,127
45617,note_off,218,0,0,,6,,,78,127
45617,note_off,0,0,0,,12,,,59,127
45618,note_on,1,0,0,,8,,,80,127
45618,note_on,0,0,0,,4,,,52,127
45836,note_off,218,0,0,,8,,,80,127
45837,note_on,1,0,0,,4,,,76,127
46055,note_off,218,0,0,,4,,,76,127
46056,note_on,1,0,0,,12,,,71,127
46274,note_off,218,0,0,,12,,,71,127
46284,note_on,10,0,0,,4,,,76,127
46451,note_off,167,0,0,,4,,,52,127
46502,note_off,51,0,0,,4,,,76,127
46512,note_on,10,0,0,,10,,,69,127
46512,note_on,0,0,0,,1,,,73,127
46730,note_off,218,0,0,,1,,,73,127
46731,note_on,1,0,0,,4,,,76,127
46949,note_off,218,0,0,,4,,,76,127
46949,note_off,0,0,0,,10,,,69,127
46950,note_on,1,0,0,,8,,,68,127
46950,note_on,0,0,0,,12,,,71,127
47168,note_off,218,0,0,,12,,,71,127
47169,note_on,1,0,0,,4,,,76,127
47387,note_off,218,0,0,,4,,,76,127
47387,note_off,0,0,0,,8,,,68,127
47388,note_on,1,0,0,,6,,,66,127
47388,note_on,0,0,0,,10,,,69,127
47606,note_off,218,0,0,,10,,,69,127
47607,note_on,1,0,0,,4,,,76,127
47825,note_off,218,0,0,,4,,,76,127
47825,note_off,0,0,0,,6,,,66,127
47826,note_on,1,0,0,,4,,,64,127
47826,note_on,0,0,0,,8,,,68,127
48044,note_off,218,0,0,,8,,,68,127
48045,note_on,1,0,0,,4,,,76,127
48263,note_off,218,0,0,,4,,,76,127
48263,note_off,0,0,0,,4,,,64,127
48264,note_on,1,0,0,,3,,,63,127
48264,note_on,0,0,0,,6,,,66,127
48482,note_off,218,0,0,,6,,,66,127
48483,note_on,1,0,0,,4,,,76,127
48701,note_off,218,0,0,,4,,,76,127
48701,note_off,0,0,0,,3,,,63,127
48702,note_on,1,0,0,,1,,,61,127
48702,note_on,0,0,0,,4,,,64,127
48920,note_off,218,0,0,,4,,,64,127
48921,note_on,1,0,0,,4,,,76,127
49139,note_off,218,0,0,,4,,,76,127
49139,note_off,0,0,0,,1,,,61,127
49140,note_on,1,0,0,,12,,,59,127
49140,note_on,0,0,0,,3,,,63,127
49358,note_off,218,0,0,,3,,,63,127
49359,note_on,1,0,0,,4,,,76,127
49577,note_off,218,0,0,,4,,,76,127
49577,note_off,0,0,0,,12,,,59,127
49578,note_on,1,0,0,,10,,,57,127
49578,note_on,0,0,0,,1,,,61,127
49796,note_off,218,0,0,,1,,,61,127
49797,note_on,1,0,0,,4,,,76,127
50015,note_off,218,0,0,,4,,,76,127
50015,note_off,0,0,0,,10,,,57,127
50016,note_on,1,0,0,,8,,,56,127
50016,note_on,0,0,0,,12,,,59,127
50234,note_off,218,0,0,,12,,,59,127
50235,note_on,1,0,0,,4,,,76,127
50453,note_off,218,0,0,,4,,,76,127
50453,note_off,0,0,0,,8,,,56,127
50454,note_on,1,0,0,,6,,,54,127
50454,note_on,0,0,0,,10,,,57,127
50672,note_off,218,0,0,,10,,,57,127
50673,note_on,1,0,0,,4,,,76,127
50891,note_off,218,0,0,,4,,,76,127
50891,note_off,0,0,0,,6,,,54,127
50892,note_on,1,0,0,,4,,,52,127
50892,note_on,0,0,0,,8,,,56,127
51110,note_off,218,0,0,,8,,,56,127
51111,note_on,1,0,0,,4,,,76,127
51329,note_off,218,0,0,,4,,,76,127
51329,note_off,0,0,0,,4,,,52,127
51330,note_on,1,0,0,,8,,,44,127
51330,note_on,0,0,0,,3,,,75,127
51439,note_off,109,0,0,,3,,,75,127
51440,note_on,1,0,0,,1,,,73,127
51549,note_off,109,0,0,,1,,,73,127
51549,note_off,0,0,0,,8,,,44,127
51550,note_on,1,0,0,,10,,,45,127
51550,note_on,0,0,0,,12,,,71,127
51659,note_off,109,0,0,,12,,,71,127
51660,note_on,1,0,0,,10,,,69,127
51769,note_off,109,0,0,,10,,,69,127
51769,note_off,0,0,0,,10,,,45,127
51770,note_on,1,0,0,,12,,,47,127
51770,note_on,0,0,0,,8,,,68,127
51879,note_off,109,0,0,,8,,,68,127
51880,note_on,1,0,0,,6,,,66,127
51989,note_off,109,0,0,,6,,,66,127
51990,note_on,1,0,0,,4,,,64,127
52099,note_off,109,0,0,,4,,,64,127
52100,note_on,1,0,0,,6,,,66,127
52209,note_off,109,0,0,,6,,,66,127
52209,note_off,0,0,0,,12,,,47,127
52210,note_on,1,0,0,,12,,,35,127
52210,note_on,0,0,0,,8,,,68,127
52264,note_off,54,0,0,,8,,,68,127
52265,note_on,1,0,0,,6,,,66,127
52319,note_off,54,0,0,,6,,,66,127
52320,note_on,1,0,0,,8,,,68,127
52374,note_off,54,0,0,,8,,,68,127
52375,note_on,1,0,0,,6,,,66,127
52429,note_off,54,0,0,,6,,,66,127
52430,note_on,1,0,0,,8,,,68,127
52484,note_off,54,0,0,,8,,,68,127
52485,note_on,1,0,0,,6,,,66,127
52539,note_off,54,0,0,,6,,,66,127
52540,note_on,1,0,0,,4,,,64,127
52594,note_off,54,0,0,,4,,,64,127
52595,note_on,1,0,0,,6,,,66,127
52649,note_off,54,0,0,,6,,,66,127
52649,note_off,0,0,0,,12,,,35,127
52650,note_on,1,0,0,,4,,,40,127
52650,note_on,0,0,0,,4,,,64,127
53519,note_off,869,0,0,,4,,,40,127
53527,note_off,8,0,0,,4,,,64,127
53967,note_on,440,0,0,,4,,,88,127
54076,note_off,109,0,0,,4,,,88,127
54077,note_on,1,0,0,,2,,,86,127
54186,note_off,109,0,0,,2,,,86,127
54187,note_on,1,0,0,,0,,,84,127
54405,note_off,218,0,0,,0,,,84,127
54406,note_on,1,0,0,,12,,,83,127
54624,note_off,218,0,0,,12,,,83,127
54625,note_on,1,0,0,,11,,,82,127
54844,note_on,219,0,0,,4,,,76,127
54844,note_on,0,0,0,,7,,,67,127
55062,note_off,218,0,0,,7,,,67,127
55062,note_off,0,0,0,,4,,,76,127
55063,note_on,1,0,0,,6,,,78,127
55063,note_on,0,0,0,,6,,,66,127
55281,note_off,218,0,0,,6,,,66,127
55281,note_off,0,0,0,,6,,,78,127
55281,note_off,0,0,0,,11,,,82,127
55282,note_on,1,0,0,,12,,,83,127
55282,note_on,0,0,0,,7,,,79,127
55282,note_on,0,0,0,,4,,,64,127
55500,note_off,218,0,0,,4,,,64,127
55500,note_off,0,0,0,,7,,,79,127
55500,note_off,0,0,0,,12,,,83,127
55501,note_on,1,0,0,,1,,,85,127
55501,note_on,0,0,0,,7,,,79,127
55501,note_on,0,0,0,,11,,,70,127
55719,note_off,218,0,0,,7,,,79,127
55720,note_on,1,0,0,,6,,,78,127
55938,note_off,218,0,0,,11,,,70,127
55939,note_on,1,0,0,,12,,,71,127
56157,note_off,218,0,0,,6,,,78,127
56157,note_off,0,0,0,,1,,,85,127
56158,note_on,1,0,0,,12,,,83,127
56158,note_on,0,0,0,,7,,,79,127
56376,note_off,218,0,0,,7,,,79,127
56376,note_off,0,0,0,,12,,,83,127
56376,note_off,0,0,0,,12,,,71,127
56377,note_on,1,0,0,,7,,,79,127
56377,note_on,0,0,0,,1,,,85,127
56377,note_on,0,0,0,,11,,,70,127
56595,note_off,218,0,0,,7,,,79,127
56596,note_on,1,0,0,,6,,,78,127
56814,note_off,218,0,0,,11,,,70,127
56814,note_off,0,0,0,,1,,,85,127
56815,note_on,1,0,0,,6,,,66,127
57033,note_off,218,0,0,,6,,,78,127
57034,note_on,1,0,0,,4,,,76,127
57252,note_off,218,0,0,,4,,,76,127
57252,note_off,0,0,0,,6,,,66,127
57253,note_on,1,0,0,,4,,,76,127
57253,note_on,0,0,0,,12,,,71,127
57307,note_off,54,0,0,,4,,,76,127
57308,note_on,1,0,0,,2,,,74,127
57362,note_off,54,0,0,,2,,,74,127
57363,note_on,1,0,0,,4,,,76,127
57417,note_off,54,0,0,,4,,,76,127
57418,note_on,1,0,0,,2,,,74,127
57472,note_off,54,0,0,,2,,,74,127
57473,note_on,1,0,0,,4,,,76,127
57527,note_off,54,0,0,,4,,,76,127
57528,note_on,1,0,0,,2,,,74,127
57582,note_off,54,0,0,,2,,,74,127
57583,note_off,1,0,0,,12,,,71,127
57583,note_on,0,0,0,,1,,,73,127
57637,note_off,54,0,0,,1,,,73,127
57638,note_on,1,0,0,,12,,,71,127
57692,note_off,54,0,0,,12,,,71,127
57693,note_on,1,0,0,,12,,,71,127
57693,note_on,0,0,0,,12,,,59,127
58242,note_off,549,0,0,,12,,,59,127
58242,note_off,0,0,0,,12,,,71,127
58407,note_on,165,0,0,,2,,,86,127
58516,note_off,109,0,0,,2,,,86,127
58517,note_on,1,0,0,,0,,,84,127
58626,note_off,109,0,0,,0,,,84,127
58627,note_on,1,0,0,,12,,,83,127
58845,note_off,218,0,0,,12,,,83,127
58846,note_on,1,0,0,,10,,,81,127
59064,note_off,218,0,0,,10,,,81,127
59065,note_on,1,0,0,,8,,,80,127
59284,note_on,219,0,0,,5,,,65,127
59284,note_on,0,0,0,,2,,,74,127
59502,note_off,218,0,0,,2,,,74,127
59502,note_off,0,0,0,,5,,,65,127
59503,note_on,1,0,0,,4,,,64,127
59503,note_on,0,0,0,,4,,,76,127
59721,note_off,218,0,0,,4,,,76,127
59721,note_off,0,0,0,,4,,,64,127
59721,note_off,0,0,0,,8,,,80,127
59722,note_on,1,0,0,,2,,,62,127
59722,note_on,0,0,0,,10,,,81,127
59722,note_on,0,0,0,,5,,,77,127
59940,note_off,218,0,0,,5,,,77,127
59940,note_off,0,0,0,,10,,,81,127
59940,note_off,0,0,0,,2,,,62,127
59941,note_on,1,0,0,,8,,,68,127
59941,note_on,0,0,0,,12,,,83,127
59941,note_on,0,0,0,,5,,,77,127
60159,note_off,218,0,0,,5,,,77,127
60160,note_on,1,0,0,,4,,,76,127
60378,note_off,218,0,0,,8,,,68,127
60379,note_on,1,0,0,,10,,,69,127
60597,note_off,218,0,0,,4,,,76,127
60597,note_off,0,0,0,,12,,,83,127
60598,note_on,1,0,0,,5,,,77,127
60598,note_on,0,0,0,,10,,,81,127
60816,note_off,218,0,0,,10,,,81,127
60816,note_off,0,0,0,,5,,,77,127
60816,note_off,0,0,0,,10,,,69,127
60817,note_on,1,0,0,,8,,,68,127
60817,note_on,0,0,0,,12,,,83,127
60817,note_on,0,0,0,,5,,,77,127
61035,note_off,218,0,0,,5,,,77,127
61036,note_on,1,0,0,,4,,,76,127
61254,note_off,218,0,0,,12,,,83,127
61254,note_off,0,0,0,,8,,,68,127
61255,note_on,1,0,0,,4,,,64,127
61473,note_off,218,0,0,,4,,,76,127
61474,note_on,1,0,0,,2,,,74,127
61692,note_off,218,0,0,,2,,,74,127
61692,note_off,0,0,0,,4,,,64,127
61693,note_on,1,0,0,,10,,,69,127
61693,note_on,0,0,0,,2,,,74,127
61747,note_off,54,0,0,,2,,,74,127
61748,note_on,1,0,0,,0,,,72,127
61802,note_off,54,0,0,,0,,,72,127
61803,note_on,1,0,0,,2,,,74,127
61857,note_off,54,0,0,,2,,,74,127
61858,note_on,1,0,0,,0,,,72,127
61912,note_off,54,0,0,,0,,,72,127
61913,note_on,1,0,0,,2,,,74,127
61967,note_off,54,0,0,,2,,,74,127
61968,note_on,1,0,0,,0,,,72,127
62022,note_off,54,0,0,,0,,,72,127
62023,note_off,1,0,0,,10,,,69,127
62023,note_on,0,0,0,,12,,,71,127
62077,note_off,54,0,0,,12,,,71,127
62078,note_on,1,0,0,,10,,,69,127
62132,note_off,54,0,0,,10,,,69,127
62133,note_on,1,0,0,,10,,,57,127
62133,note_on,0,0,0,,10,,,69,127
62636,note_off,503,0,0,,10,,,57,127
62682,note_off,46,0,0,,10,,,69,127
62810,note_on,128,0,0,,10,,,81,127
62919,note_off,109,0,0,,10,,,81,127
62920,note_on,1,0,0,,7,,,79,127
63029,note_off,109,0,0,,7,,,79,127
63030,note_on,1,0,0,,6,,,78,127
63248,note_off,218,0,0,,6,,,78,127
63249,note_on,1,0,0,,4,,,76,127
63467,note_off,218,0,0,,4,,,76,127
63468,note_on,1,0,0,,3,,,75,127
63687,note_on,219,0,0,,10,,,69,127
63687,note_on,0,0,0,,0,,,60,127
63905,note_off,218,0,0,,0,,,60,127
63905,note_off,0,0,0,,10,,,69,127
63906,note_on,1,0,0,,12,,,71,127
63906,note_on,0,0,0,,12,,,59,127
64124,note_off,218,0,0,,12,,,59,127
64124,note_off,0,0,0,,12,,,71,127
64124,note_off,0,0,0,,3,,,75,127
64125,note_on,1,0,0,,0,,,72,127
64125,note_on,0,0,0,,4,,,76,127
64125,note_on,0,0,0,,10,,,57,127
64343,note_off,218,0,0,,10,,,57,127
64343,note_off,0,0,0,,4,,,76,127
64343,note_off,0,0,0,,0,,,72,127
64344,note_on,1,0,0,,0,,,72,127
64344,note_on,0,0,0,,6,,,78,127
64344,note_on,0,0,0,,3,,,63,127
64562,note_off,218,0,0,,0,,,72,127
64563,note_on,1,0,0,,12,,,71,127
64781,note_off,218,0,0,,3,,,63,127
64782,note_on,1,0,0,,4,,,64,127
65000,note_off,218,0,0,,12,,,71,127
65000,note_off,0,0,0,,6,,,78,127
65001,note_on,1,0,0,,4,,,76,127
65001,note_on,0,0,0,,0,,,72,127
65219,note_off,218,0,0,,0,,,72,127
65219,note_off,0,0,0,,4,,,76,127
65219,note_off,0,0,0,,4,,,64,127
65220,note_on,1,0,0,,0,,,72,127
65220,note_on,0,0,0,,6,,,78,127
65220,note_on,0,0,0,,3,,,63,127
65438,note_off,218,0,0,,0,,,72,127
65439,note_on,1,0,0,,12,,,71,127
65657,note_off,218,0,0,,3,,,63,127
65657,note_off,0,0,0,,6,,,78,127
65658,note_on,1,0,0,,12,,,59,127
65876,note_off,218,0,0,,12,,,71,127
65877,note_on,1,0,0,,10,,,69,127
66095,note_off,218,0,0,,10,,,69,127
66095,note_off,0,0,0,,12,,,59,127
66096,note_on,1,0,0,,10,,,69,127
66096,note_on,0,0,0,,4,,,52,127
66150,note_off,54,0,0,,10,,,69,127
66151,note_on,1,0,0,,7,,,67,127
66205,note_off,54,0,0,,7,,,67,127
66206,note_on,1,0,0,,10,,,69,127
66260,note_off,54,0,0,,10,,,69,127
66261,note_on,1,0,0,,7,,,67,127
66315,note_off,54,0,0,,7,,,67,127
66316,note_on,1,0,0,,10,,,69,127
66370,note_off,54,0,0,,10,,,69,127
66371,note_on,1,0,0,,7,,,67,127
66425,note_off,54,0,0,,7,,,67,127
66426,note_on,1,0,0,,6,,,66,127
66480,note_off,54,0,0,,6,,,66,127
66481,note_on,1,0,0,,4,,,64,127
66535,note_off,54,0,0,,4,,,64,127
66536,note_on,1,0,0,,4,,,64,127
66767,note_on,231,0,0,,4,,,76,127
66970,note_off,203,0,0,,4,,,64,127
66973,note_off,3,0,0,,4,,,52,127
66984,note_off,11,0,0,,4,,,76,127
66992,note_on,8,0,0,,10,,,69,127
66992,note_on,0,0,0,,1,,,73,127
67210,note_off,218,0,0,,1,,,73,127
67211,note_on,1,0,0,,4,,,76,127
67429,note_off,218,0,0,,4,,,76,127
67429,note_off,0,0,0,,10,,,69,127
67430,note_on,1,0,0,,8,,,68,127
67430,note_on,0,0,0,,12,,,71,127
67648,note_off,218,0,0,,12,,,71,127
67649,note_on,1,0,0,,4,,,76,127
67867,note_off,218,0,0,,4,,,76,127
67867,note_off,0,0,0,,8,,,68,127
67868,note_on,1,0,0,,6,,,66,127
67868,note_on,0,0,0,,10,,,69,127
68086,note_off,218,0,0,,10,,,69,127
68087,note_on,1,0,0,,4,,,76,127
68305,note_off,218,0,0,,4,,,76,127
68305,note_off,0,0,0,,6,,,66,127
68306,note_on,1,0,0,,4,,,64,127
68306,note_on,0,0,0,,8,,,68,127
68524,note_off,218,0,0,,8,,,68,127
68525,note_on,1,0,0,,4,,,76,127
68743,note_off,218,0,0,,4,,,76,127
68743,note_off,0,0,0,,4,,,64,127
68744,note_on,1,0,0,,3,,,63,127
68744,note_on,0,0,0,,6,,,66,127
68962,note_off,218,0,0,,6,,,66,127
68963,note_on,1,0,0,,4,,,76,127
69181,note_off,218,0,0,,4,,,76,127
69181,note_off,0,0,0,,3,,,63,127
69182,note_on,1,0,0,,1,,,61,127
69182,note_on,0,0,0,,4,,,64,127
69400,note_off,218,0,0,,4,,,64,127
69401,note_on,1,0,0,,4,,,76,127
69619,note_off,218,0,0,,4,,,76,127
69619,note_off,0,0,0,,1,,,61,127
69620,note_on,1,0,0,,12,,,59,127
69620,note_on,0,0,0,,3,,,63,127
69838,note_off,218,0,0,,3,,,63,127
69839,note_on,1,0,0,,4,,,76,127
70057,note_off,218,0,0,,4,,,76,127
70057,note_off,0,0,0,,12,,,59,127
70058,note_on,1,0,0,,10,,,57,127
70058,note_on,0,0,0,,1,,,61,127
70276,note_off,218,0,0,,1,,,61,127
70277,note_on,1,0,0,,4,,,76,127
70495,note_off,218,0,0,,4,,,76,127
70495,note_off,0,0,0,,10,,,57,127
70496,note_on,1,0,0,,8,,,56,127
70496,note_on,0,0,0,,12,,,59,127
70714,note_off,218,0,0,,12,,,59,127
70715,note_on,1,0,0,,4,,,76,127
70933,note_off,218,0,0,,4,,,76,127
70933,note_off,0,0,0,,8,,,56,127
70934,note_on,1,0,0,,6,,,54,127
70934,note_on,0,0,0,,10,,,57,127
71152,note_off,218,0,0,,10,,,57,127
71153,note_on,1,0,0,,4,,,76,127
71371,note_off,218,0,0,,4,,,76,127
71371,note_off,0,0,0,,6,,,54,127
71372,note_on,1,0,0,,4,,,52,127
71372,note_on,0,0,0,,8,,,56,127
71590,note_off,218,0,0,,8,,,56,127
71591,note_on,1,0,0,,4,,,76,127
71809,note_off,218,0,0,,4,,,76,127
71809,note_off,0,0,0,,4,,,52,127
71810,note_on,1,0,0,,8,,,56,127
71810,note_on,0,0,0,,3,,,75,127
71919,note_off,109,0,0,,3,,,75,127
71920,note_on,1,0,0,,1,,,73,127
72029,note_off,109,0,0,,1,,,73,127
72029,note_off,0,0,0,,8,,,56,127
72030,note_on,1,0,0,,10,,,57,127
72030,note_on,0,0,0,,12,,,71,127
72139,note_off,109,0,0,,12,,,71,127
72140,note_on,1,0,0,,10,,,69,127
72249,note_off,109,0,0,,10,,,69,127
72249,note_off,0,0,0,,10,,,57,127
72250,note_on,1,0,0,,12,,,59,127
72250,note_on,0,0,0,,8,,,68,127
72359,note_off,109,0,0,,8,,,68,127
72360,note_on,1,0,0,,6,,,66,127
72469,note_off,109,0,0,,6,,,66,127
72470,note_on,1,0,0,,4,,,64,127
72579,note_off,109,0,0,,4,,,64,127
72580,note_on,1,0,0,,6,,,66,127
72689,note_off,109,0,0,,6,,,66,127
72689,note_off,0,0,0,,12,,,59,127
72690,note_on,1,0,0,,12,,,47,127
72690,note_on,0,0,0,,8,,,68,127
72744,note_off,54,0,0,,8,,,68,127
72745,note_on,1,0,0,,6,,,66,127
72799,note_off,54,0,0,,6,,,66,127
72800,note_on,1,0,0,,8,,,68,127
72854,note_off,54,0,0,,8,,,68,127
72855,note_on,1,0,0,,6,,,66,127
72909,note_off,54,0,0,,6,,,66,127
72910,note_on,1,0,0,,8,,,68,127
72964,note_off,54,0,0,,8,,,68,127
72965,note_on,1,0,0,,6,,,66,127
73019,note_off,54,0,0,,6,,,66,127
73020,note_on,1,0,0,,4,,,64,127
73074,note_off,54,0,0,,4,,,64,127
73075,note_on,1,0,0,,6,,,66,127
73129,note_off,54,0,0,,6,,,66,127
73129,note_off,0,0,0,,12,,,47,127
73130,note_on,1,0,0,,4,,,40,127
73130,note_on,0,0,0,,4,,,64,127
73348,note_off,218,0,0,,4,,,64,127
73349,note_on,1,0,0,,4,,,88,127
73459,note_on,110,0,0,,4,,,76,127
73568,note_off,109,0,0,,4,,,88,127
73569,note_on,1,0,0,,4,,,88,127
73787,note_off,218,0,0,,4,,,76,127
73787,note_off,0,0,0,,4,,,40,127
73788,note_on,1,0,0,,4,,,64,127
73788,note_on,0,0,0,,4,,,76,127
74006,note_off,218,0,0,,4,,,64,127
74006,note_off,0,0,0,,4,,,88,127
74007,note_on,1,0,0,,1,,,61,127
74007,note_on,0,0,0,,4,,,88,127
74225,note_off,218,0,0,,1,,,61,127
74225,note_off,0,0,0,,4,,,76,127
74226,note_on,1,0,0,,4,,,64,127
74226,note_on,0,0,0,,4,,,76,127
74444,note_off,218,0,0,,4,,,64,127
74444,note_off,0,0,0,,4,,,88,127
74445,note_on,1,0,0,,12,,,59,127
74445,note_on,0,0,0,,4,,,88,127
74663,note_off,218,0,0,,12,,,59,127
74663,note_off,0,0,0,,4,,,76,127
74664,note_on,1,0,0,,4,,,64,127
74664,note_on,0,0,0,,4,,,76,127
74882,note_off,218,0,0,,4,,,64,127
74882,note_off,0,0,0,,4,,,88,127
74883,note_on,1,0,0,,10,,,57,127
74883,note_on,0,0,0,,4,,,88,127
75101,note_off,218,0,0,,10,,,57,127
75101,note_off,0,0,0,,4,,,76,127
75102,note_on,1,0,0,,4,,,64,127
75102,note_on,0,0,0,,4,,,76,127
75320,note_off,218,0,0,,4,,,64,127
75320,note_off,0,0,0,,4,,,88,127
75321,note_on,1,0,0,,8,,,56,127
75321,note_on,0,0,0,,4,,,88,127
75539,note_off,218,0,0,,8,,,56,127
75539,note_off,0,0,0,,4,,,76,127
75540,note_on,1,0,0,,4,,,64,127
75540,note_on,0,0,0,,4,,,76,127
75758,note_off,218,0,0,,4,,,64,127
75758,note_off,0,0,0,,4,,,88,127
75759,note_on,1,0,0,,6,,,54,127
75759,note_on,0,0,0,,4,,,88,127
75977,note_off,218,0,0,,6,,,54,127
75977,note_off,0,0,0,,4,,,76,127
75978,note_on,1,0,0,,4,,,64,127
75978,note_on,0,0,0,,4,,,76,127
76196,note_off,218,0,0,,4,,,64,127
76196,note_off,0,0,0,,4,,,88,127
76197,note_on,1,0,0,,4,,,52,127
76197,note_on,0,0,0,,4,,,88,127
76415,note_off,218,0,0,,4,,,52,127
76415,note_off,0,0,0,,4,,,76,127
76416,note_on,1,0,0,,4,,,64,127
76416,note_on,0,0,0,,4,,,76,127
76634,note_off,218,0,0,,4,,,64,127
76634,note_off,0,0,0,,4,,,88,127
76635,note_on,1,0,0,,3,,,51,127
76635,note_on,0,0,0,,4,,,88,127
76853,note_off,218,0,0,,3,,,51,127
76853,note_off,0,0,0,,4,,,76,127
76854,note_on,1,0,0,,4,,,64,127
76854,note_on,0,0,0,,4,,,76,127
77072,note_off,218,0,0,,4,,,64,127
77072,note_off,0,0,0,,4,,,88,127
77073,note_on,1,0,0,,1,,,49,127
77073,note_on,0,0,0,,4,,,88,127
77291,note_off,218,0,0,,1,,,49,127
77291,note_off,0,0,0,,4,,,76,127
77292,note_on,1,0,0,,4,,,64,127
77292,note_on,0,0,0,,4,,,76,127
77510,note_off,218,0,0,,4,,,64,127
77510,note_off,0,0,0,,4,,,88,127
77511,note_on,1,0,0,,12,,,47,127
77511,note_on,0,0,0,,4,,,88,127
77729,note_off,218,0,0,,12,,,47,127
77729,note_off,0,0,0,,4,,,76,127
77730,note_on,1,0,0,,4,,,64,127
77730,note_on,0,0,0,,4,,,76,127
77948,note_off,218,0,0,,4,,,64,127
77948,note_off,0,0,0,,4,,,88,127
77949,note_on,1,0,0,,10,,,45,127
77949,note_on,0,0,0,,4,,,88,127
78167,note_off,218,0,0,,10,,,45,127
78167,note_off,0,0,0,,4,,,76,127
78168,note_on,1,0,0,,4,,,64,127
78168,note_on,0,0,0,,4,,,76,127
78386,note_off,218,0,0,,4,,,64,127
78386,note_off,0,0,0,,4,,,88,127
78387,note_on,1,0,0,,4,,,40,127
78387,note_on,0,0,0,,4,,,88,127
78605,note_off,218,0,0,,4,,,76,127
78606,note_on,1,0,0,,4,,,76,127
78824,note_off,218,0,0,,4,,,88,127
78824,note_off,0,0,0,,4,,,40,127
78843,note_on,19,0,0,,4,,,88,127
78843,note_on,0,0,0,,8,,,56,127
78933,note_off,90,0,0,,4,,,76,127
78951,note_off,18,0,0,,4,,,88,127
78952,note_on,1,0,0,,3,,,87,127
79061,note_off,109,0,0,,3,,,87,127
79062,note_on,1,0,0,,1,,,85,127
79171,note_off,109,0,0,,1,,,85,127
79172,note_on,1,0,0,,12,,,83,127
79281,note_off,109,0,0,,12,,,83,127
79281,note_off,0,0,0,,8,,,56,127
79282,note_on,1,0,0,,10,,,81,127
79282,note_on,0,0,0,,10,,,57,127
79391,note_off,109,0,0,,10,,,81,127
79392,note_on,1,0,0,,8,,,80,127
79501,note_off,109,0,0,,8,,,80,127
79502,note_on,1,0,0,,6,,,78,127
79611,note_off,109,0,0,,6,,,78,127
79612,note_on,1,0,0,,4,,,76,127
79721,note_off,109,0,0,,4,,,76,127
79721,note_off,0,0,0,,10,,,57,127
79722,note_on,1,0,0,,8,,,80,127
79722,note_on,0,0,0,,12,,,59,127
79776,note_off,54,0,0,,8,,,80,127
79777,note_on,1,0,0,,6,,,78,127
79831,note_off,54,0,0,,6,,,78,127
79832,note_on,1,0,0,,8,,,80,127
79886,note_off,54,0,0,,8,,,80,127
79887,note_on,1,0,0,,6,,,78,127
79941,note_off,54,0,0,,6,,,78,127
79942,note_on,1,0,0,,8,,,80,127
79996,note_off,54,0,0,,8,,,80,127
79997,note_on,1,0,0,,6,,,78,127
80051,note_off,54,0,0,,6,,,78,127
80052,note_on,1,0,0,,4,,,76,127
80106,note_off,54,0,0,,4,,,76,127
80107,note_on,1,0,0,,6,,,78,127
80161,note_off,54,0,0,,6,,,78,127
80161,note_off,0,0,0,,12,,,59,127
80180,note_on,19,0,0,,4,,,52,127
80180,note_on,0,0,0,,4,,,88,127
80398,note_off,218,0,0,,4,,,88,127
80399,note_on,1,0,0,,4,,,76,127
80617,note_off,218,0,0,,4,,,76,127
80617,note_off,0,0,0,,4,,,52,127
80618,note_on,1,0,0,,8,,,56,127
80618,note_on,0,0,0,,4,,,88,127
80727,note_off,109,0,0,,4,,,88,127
80728,note_on,1,0,0,,3,,,87,127
80837,note_off,109,0,0,,3,,,87,127
80838,note_on,1,0,0,,1,,,85,127
80947,note_off,109,0,0,,1,,,85,127
80948,note_on,1,0,0,,12,,,83,127
81057,note_off,109,0,0,,12,,,83,127
81057,note_off,0,0,0,,8,,,56,127
81058,note_on,1,0,0,,10,,,57,127
81058,note_on,0,0,0,,10,,,81,127
81167,note_off,109,0,0,,10,,,81,127
81168,note_on,1,0,0,,8,,,80,127
81277,note_off,109,0,0,,8,,,80,127
81278,note_on,1,0,0,,6,,,78,127
81387,note_off,109,0,0,,6,,,78,127
81388,note_on,1,0,0,,4,,,76,127
81497,note_off,109,0,0,,4,,,76,127
81497,note_off,0,0,0,,10,,,57,127
81498,note_on,1,0,0,,12,,,59,127
81498,note_on,0,0,0,,3,,,75,127
81607,note_off,109,0,0,,3,,,75,127
81608,note_on,1,0,0,,1,,,73,127
81717,note_off,109,0,0,,1,,,73,127
81718,note_on,1,0,0,,12,,,71,127
81827,note_off,109,0,0,,12,,,71,127
81828,note_on,1,0,0,,10,,,69,127
81937,note_off,109,0,0,,10,,,69,127
81937,note_off,0,0,0,,12,,,59,127
81938,note_on,1,0,0,,4,,,52,127
81938,note_on,0,0,0,,8,,,68,127
82047,note_off,109,0,0,,8,,,68,127
82048,note_on,1,0,0,,6,,,66,127
82157,note_off,109,0,0,,6,,,66,127
82158,note_on,1,0,0,,4,,,64,127
82267,note_off,109,0,0,,4,,,64,127
82268,note_on,1,0,0,,3,,,63,127
82377,note_off,109,0,0,,3,,,63,127
82377,note_off,0,0,0,,4,,,52,127
82378,note_on,1,0,0,,8,,,44,127
82378,note_on,0,0,0,,1,,,61,127
82487,note_off,109,0,0,,1,,,61,127
82488,note_on,1,0,0,,12,,,59,127
82597,note_off,109,0,0,,12,,,59,127
82598,note_on,1,0,0,,10,,,57,127
82707,note_off,109,0,0,,10,,,57,127
82708,note_on,1,0,0,,8,,,56,127
82817,note_off,109,0,0,,8,,,56,127
82817,note_off,0,0,0,,8,,,44,127
82818,note_on,1,0,0,,10,,,45,127
82818,note_on,0,0,0,,6,,,54,127
82927,note_off,109,0,0,,6,,,54,127
82928,note_on,1,0,0,,4,,,52,127
83037,note_off,109,0,0,,4,,,52,127
83038,note_on,1,0,0,,3,,,51,127
83147,note_off,109,0,0,,3,,,51,127
83148,note_on,1,0,0,,1,,,49,127
83257,note_off,109,0,0,,1,,,49,127
83257,note_off,0,0,0,,10,,,45,127
83258,note_on,1,0,0,,12,,,47,127
83367,note_off,109,0,0,,12,,,47,127
83368,note_on,1,0,0,,10,,,45,127
83477,note_off,109,0,0,,10,,,45,127
83478,note_on,1,0,0,,8,,,44,127
83587,note_off,109,0,0,,8,,,44,127
83588,note_on,1,0,0,,6,,,42,127
83697,note_off,109,0,0,,6,,,42,127
83698,note_on,1,0,0,,4,,,40,127
84575,note_off,877,0,0,,4,,,40,127
84631,note_on,56,0,0,,4,,,76,127
84849,note_off,218,0,0,,4,,,76,127
84850,note_on,1,0,0,,12,,,71,127
85068,note_off,218,0,0,,12,,,71,127
85069,note_on,1,0,0,,10,,,57,127
85178,note_off,109,0,0,,10,,,57,127
85179,note_on,1,0,0,,7,,,55,127
85288,note_off,109,0,0,,7,,,55,127
85289,note_on,1,0,0,,6,,,54,127
85398,note_off,109,0,0,,6,,,54,127
85399,note_on,1,0,0,,4,,,52,127
85508,note_off,109,0,0,,4,,,52,127
85509,note_on,1,0,0,,12,,,59,127
85727,note_off,218,0,0,,12,,,59,127
85728,note_on,1,0,0,,7,,,55,127
85946,note_off,218,0,0,,7,,,55,127
85947,note_on,1,0,0,,4,,,64,127
86165,note_off,218,0,0,,4,,,64,127
86166,note_on,1,0,0,,12,,,59,127
86384,note_off,218,0,0,,12,,,59,127
86385,note_on,1,0,0,,7,,,67,127
86603,note_off,218,0,0,,7,,,67,127
86604,note_on,1,0,0,,7,,,79,127
86604,note_on,0,0,0,,4,,,64,127
86822,note_off,218,0,0,,4,,,64,127
86822,note_off,0,0,0,,7,,,79,127
86823,note_on,1,0,0,,10,,,81,127
86823,note_on,0,0,0,,11,,,70,127
86932,note_off,109,0,0,,10,,,81,127
86933,note_on,1,0,0,,7,,,79,127
87042,note_off,109,0,0,,7,,,79,127
87042,note_off,0,0,0,,11,,,70,127
87043,note_on,1,0,0,,6,,,78,127
87043,note_on,0,0,0,,6,,,66,127
87152,note_off,109,0,0,,6,,,78,127
87153,note_on,1,0,0,,4,,,76,127
87262,note_off,109,0,0,,4,,,76,127
87262,note_off,0,0,0,,6,,,66,127
87263,note_on,1,0,0,,4,,,76,127
87263,note_on,0,0,0,,12,,,71,127
87317,note_off,54,0,0,,4,,,76,127
87318,note_on,1,0,0,,2,,,74,127
87372,note_off,54,0,0,,2,,,74,127
87373,note_on,1,0,0,,4,,,76,127
87427,note_off,54,0,0,,4,,,76,127
87428,note_on,1,0,0,,2,,,74,127
87482,note_off,54,0,0,,2,,,74,127
87483,note_on,1,0,0,,1,,,73,127
87592,note_off,109,0,0,,1,,,73,127
87593,note_off,1,0,0,,12,,,71,127
87593,note_on,0,0,0,,12,,,71,127
87702,note_off,109,0,0,,12,,,71,127
87703,note_on,1,0,0,,12,,,71,127
87703,note_on,0,0,0,,4,,,52,127
87812,note_off,109,0,0,,4,,,52,127
87813,note_on,1,0,0,,2,,,50,127
87922,note_off,109,0,0,,2,,,50,127
87923,note_on,1,0,0,,1,,,49,127
88032,note_off,109,0,0,,1,,,49,127
88033,note_off,1,0,0,,12,,,71,127
88033,note_on,0,0,0,,12,,,47,127
88142,note_off,109,0,0,,12,,,47,127
88143,note_on,1,0,0,,6,,,54,127
88361,note_off,218,0,0,,6,,,54,127
88362,note_on,1,0,0,,2,,,50,127
88580,note_off,218,0,0,,2,,,50,127
88581,note_on,1,0,0,,12,,,59,127
88799,note_off,218,0,0,,12,,,59,127
88800,note_on,1,0,0,,6,,,54,127
89018,note_off,218,0,0,,6,,,54,127
89019,note_on,1,0,0,,2,,,62,127
89237,note_off,218,0,0,,2,,,62,127
89238,note_on,1,0,0,,6,,,78,127
89238,note_on,0,0,0,,12,,,59,127
89456,note_off,218,0,0,,12,,,59,127
89456,note_off,0,0,0,,6,,,78,127
89457,note_on,1,0,0,,8,,,80,127
89457,note_on,0,0,0,,8,,,68,127
89566,note_off,109,0,0,,8,,,80,127
89567,note_on,1,0,0,,6,,,78,127
89676,note_off,109,0,0,,6,,,78,127
89676,note_off,0,0,0,,8,,,68,127
89677,note_on,1,0,0,,4,,,76,127
89677,note_on,0,0,0,,4,,,64,127
89786,note_off,109,0,0,,4,,,76,127
89787,note_on,1,0,0,,2,,,74,127
89896,note_off,109,0,0,,2,,,74,127
89896,note_off,0,0,0,,4,,,64,127
89897,note_on,1,0,0,,2,,,74,127
89897,note_on,0,0,0,,10,,,69,127
90006,note_off,109,0,0,,2,,,74,127
90007,note_on,1,0,0,,1,,,73,127
90116,note_off,109,0,0,,1,,,73,127
90117,note_on,1,0,0,,12,,,71,127
90226,note_off,109,0,0,,12,,,71,127
90227,note_off,1,0,0,,10,,,69,127
90227,note_on,0,0,0,,10,,,69,127
90336,note_off,109,0,0,,10,,,69,127
90337,note_on,1,0,0,,10,,,69,127
90337,note_on,0,0,0,,2,,,50,127
90446,note_off,109,0,0,,2,,,50,127
90447,note_on,1,0,0,,1,,,49,127
90556,note_off,109,0,0,,1,,,49,127
90557,note_on,1,0,0,,12,,,47,127
90666,note_off,109,0,0,,12,,,47,127
90667,note_on,1,0,0,,10,,,45,127
90776,note_off,109,0,0,,10,,,45,127
90776,note_off,0,0,0,,10,,,69,127
90777,note_on,1,0,0,,4,,,52,127
90995,note_off,218,0,0,,4,,,52,127
90996,note_on,1,0,0,,1,,,49,127
91214,note_off,218,0,0,,1,,,49,127
91215,note_on,1,0,0,,10,,,57,127
91433,note_off,218,0,0,,10,,,57,127
91434,note_on,1,0,0,,4,,,52,127
91652,note_off,218,0,0,,4,,,52,127
91653,note_on,1,0,0,,1,,,61,127
91871,note_off,218,0,0,,1,,,61,127
91872,note_on,1,0,0,,1,,,73,127
91872,note_on,0,0,0,,10,,,57,127
92090,note_off,218,0,0,,10,,,57,127
92090,note_off,0,0,0,,1,,,73,127
92091,note_on,1,0,0,,3,,,75,127
92091,note_on,0,0,0,,3,,,63,127
92200,note_off,109,0,0,,3,,,75,127
92201,note_on,1,0,0,,1,,,73,127
92310,note_off,109,0,0,,1,,,73,127
92310,note_off,0,0,0,,3,,,63,127
92311,note_on,1,0,0,,12,,,71,127
92311,note_on,0,0,0,,12,,,59,127
92420,note_off,109,0,0,,12,,,71,127
92421,note_on,1,0,0,,10,,,69,127
92530,note_off,109,0,0,,10,,,69,127
92530,note_off,0,0,0,,12,,,59,127
92531,note_on,1,0,0,,8,,,68,127
92531,note_on,0,0,0,,4,,,64,127
92640,note_off,109,0,0,,8,,,68,127
92641,note_on,1,0,0,,6,,,66,127
92750,note_off,109,0,0,,6,,,66,127
92750,note_off,0,0,0,,4,,,64,127
92751,note_on,1,0,0,,4,,,64,127
93185,note_off,434,0,0,,4,,,64,127
93226,note_on,41,0,0,,12,,,71,127
93226,note_on,0,0,0,,8,,,68,127
93335,note_off,109,0,0,,8,,,68,127
93336,note_on,1,0,0,,4,,,64,127
93445,note_off,109,0,0,,4,,,64,127
93445,note_off,0,0,0,,12,,,71,127
93446,note_on,1,0,0,,12,,,71,127
93446,note_on,0,0,0,,8,,,68,127
93446,note_on,0,0,0,,4,,,40,127
93664,note_off,218,0,0,,8,,,68,127
93665,note_on,1,0,0,,4,,,64,127
93883,note_off,218,0,0,,4,,,64,127
93883,note_off,0,0,0,,4,,,40,127
93883,note_off,0,0,0,,12,,,71,127
93884,note_on,1,0,0,,1,,,73,127
93884,note_on,0,0,0,,10,,,69,127
93884,note_on,0,0,0,,4,,,40,127
94102,note_off,218,0,0,,10,,,69,127
94103,note_on,1,0,0,,4,,,64,127
94321,note_off,218,0,0,,4,,,64,127
94321,note_off,0,0,0,,4,,,40,127
94321,note_off,0,0,0,,1,,,73,127
94322,note_on,1,0,0,,3,,,75,127
94322,note_on,0,0,0,,6,,,66,127
94322,note_on,0,0,0,,4,,,40,127
94540,note_off,218,0,0,,6,,,66,127
94540,note_off,0,0,0,,3,,,75,127
94541,note_on,1,0,0,,8,,,68,127
94541,note_on,0,0,0,,4,,,76,127
94979,note_off,438,0,0,,4,,,76,127
94979,note_off,0,0,0,,8,,,68,127
94998,note_on,19,0,0,,8,,,68,127
94998,note_on,0,0,0,,12,,,71,127
95107,note_off,109,0,0,,8,,,68,127
95108,note_on,1,0,0,,4,,,64,127
95198,note_off,90,0,0,,4,,,40,127
95216,note_off,18,0,0,,4,,,64,127
95216,note_off,0,0,0,,12,,,71,127
95217,note_on,1,0,0,,4,,,40,127
95217,note_on,0,0,0,,12,,,71,127
95217,note_on,0,0,0,,8,,,68,127
95435,note_off,218,0,0,,8,,,68,127
95436,note_on,1,0,0,,4,,,64,127
95654,note_off,218,0,0,,4,,,64,127
95654,note_off,0,0,0,,12,,,71,127
95654,note_off,0,0,0,,4,,,40,127
95655,note_on,1,0,0,,4,,,40,127
95655,note_on,0,0,0,,10,,,69,127
95655,note_on,0,0,0,,1,,,73,127
95873,note_off,218,0,0,,10,,,69,127
95874,note_on,1,0,0,,4,,,64,127
96092,note_off,218,0,0,,4,,,64,127
96092,note_off,0,0,0,,1,,,73,127
96092,note_off,0,0,0,,4,,,40,127
96093,note_on,1,0,0,,4,,,40,127
96093,note_on,0,0,0,,3,,,75,127
96093,note_on,0,0,0,,6,,,66,127
96311,note_off,218,0,0,,6,,,66,127
96311,note_off,0,0,0,,3,,,75,127
96312,note_on,1,0,0,,8,,,68,127
96312,note_on,0,0,0,,4,,,76,127
96750,note_off,438,0,0,,4,,,76,127
96750,note_off,0,0,0,,8,,,68,127
96769,note_on,19,0,0,,12,,,71,127
96769,note_on,0,0,0,,8,,,68,127
96878,note_off,109,0,0,,8,,,68,127
96879,note_on,1,0,0,,4,,,64,127
96969,note_off,90,0,0,,4,,,40,127
96987,note_off,18,0,0,,4,,,64,127
96987,note_off,0,0,0,,12,,,71,127
96988,note_on,1,0,0,,12,,,71,127
96988,note_on,0,0,0,,8,,,68,127
96988,note_on,0,0,0,,4,,,40,127
97206,note_off,218,0,0,,8,,,68,127
97207,note_on,1,0,0,,4,,,64,127
97425,note_off,218,0,0,,4,,,64,127
97425,note_off,0,0,0,,4,,,40,127
97425,note_off,0,0,0,,12,,,71,127
97426,note_on,1,0,0,,4,,,64,127
97426,note_on,0,0,0,,12,,,71,127
97426,note_on,0,0,0,,4,,,40,127
97644,note_off,218,0,0,,12,,,71,127
97645,note_on,1,0,0,,0,,,72,127
97863,note_off,218,0,0,,0,,,72,127
97863,note_off,0,0,0,,4,,,40,127
97863,note_off,0,0,0,,4,,,64,127
97864,note_on,1,0,0,,0,,,72,127
97864,note_on,0,0,0,,2,,,74,127
97864,note_on,0,0,0,,5,,,65,127
97864,note_on,0,0,0,,2,,,38,127
98082,note_off,218,0,0,,5,,,65,127
98082,note_off,0,0,0,,2,,,74,127
98082,note_off,0,0,0,,0,,,72,127
98083,note_on,1,0,0,,12,,,71,127
98412,note_off,329,0,0,,12,,,71,127
98522,note_on,110,0,0,,12,,,71,127
98522,note_on,0,0,0,,8,,,68,127
98631,note_off,109,0,0,,8,,,68,127
98632,note_on,1,0,0,,4,,,64,127
98741,note_off,109,0,0,,4,,,64,127
98741,note_off,0,0,0,,12,,,71,127
98741,note_off,0,0,0,,2,,,38,127
98742,note_on,1,0,0,,8,,,68,127
98742,note_on,0,0,0,,12,,,71,127
98742,note_on,0,0,0,,4,,,40,127
98960,note_off,218,0,0,,8,,,68,127
98961,note_on,1,0,0,,4,,,64,127
99179,note_off,218,0,0,,4,,,64,127
99179,note_off,0,0,0,,4,,,40,127
99179,note_off,0,0,0,,12,,,71,127
99180,note_on,1,0,0,,12,,,71,127
99180,note_on,0,0,0,,4,,,64,127
99180,note_on,0,0,0,,4,,,40,127
99398,note_off,218,0,0,,12,,,71,127
99399,note_on,1,0,0,,0,,,72,127
99617,note_off,218,0,0,,0,,,72,127
99617,note_off,0,0,0,,4,,,40,127
99617,note_off,0,0,0,,4,,,64,127
99618,note_on,1,0,0,,0,,,72,127
99618,note_on,0,0,0,,5,,,65,127
99618,note_on,0,0,0,,2,,,74,127
99618,note_on,0,0,0,,2,,,38,127
99836,note_off,218,0,0,,2,,,74,127
99836,note_off,0,0,0,,5,,,65,127
99836,note_off,0,0,0,,0,,,72,127
99837,note_on,1,0,0,,12,,,71,127
100166,note_off,329,0,0,,12,,,71,127
100276,note_on,110,0,0,,12,,,71,127
100385,note_off,109,0,0,,12,,,71,127
100386,note_on,1,0,0,,5,,,65,127
100495,note_off,109,0,0,,5,,,65,127
100495,note_off,0,0,0,,2,,,38,127
100496,note_on,1,0,0,,5,,,77,127
100496,note_on,0,0,0,,2,,,50,127
100714,note_off,218,0,0,,5,,,77,127
100715,note_on,1,0,0,,12,,,71,127
100933,note_off,218,0,0,,12,,,71,127
100933,note_off,0,0,0,,2,,,50,127
100934,note_on,1,0,0,,4,,,76,127
100934,note_on,0,0,0,,0,,,48,127
101152,note_off,218,0,0,,4,,,76,127
101153,note_on,1,0,0,,10,,,69,127
101371,note_off,218,0,0,,10,,,69,127
101371,note_off,0,0,0,,0,,,48,127
101372,note_on,1,0,0,,2,,,74,127
101372,note_on,0,0,0,,12,,,47,127
101590,note_off,218,0,0,,2,,,74,127
101591,note_on,1,0,0,,8,,,68,127
101809,note_off,218,0,0,,8,,,68,127
101809,note_off,0,0,0,,12,,,47,127
101810,note_on,1,0,0,,2,,,74,127
101810,note_on,0,0,0,,10,,,45,127
101864,note_off,54,0,0,,2,,,74,127
101865,note_on,1,0,0,,0,,,72,127
101919,note_off,54,0,0,,0,,,72,127
101920,note_on,1,0,0,,2,,,74,127
101974,note_off,54,0,0,,2,,,74,127
101975,note_on,1,0,0,,0,,,72,127
102029,note_off,54,0,0,,0,,,72,127
102030,note_on,1,0,0,,2,,,74,127
102084,note_off,54,0,0,,2,,,74,127
102085,note_on,1,0,0,,0,,,72,127
102139,note_off,54,0,0,,0,,,72,127
102140,note_on,1,0,0,,12,,,71,127
102194,note_off,54,0,0,,12,,,71,127
102195,note_on,1,0,0,,0,,,72,127
102249,note_off,54,0,0,,0,,,72,127
102249,note_off,0,0,0,,10,,,45,127
102250,note_on,1,0,0,,12,,,71,127
102250,note_on,0,0,0,,2,,,50,127
102468,note_off,218,0,0,,12,,,71,127
102469,note_on,1,0,0,,5,,,77,127
102687,note_off,218,0,0,,5,,,77,127
102687,note_off,0,0,0,,2,,,50,127
102688,note_on,1,0,0,,12,,,71,127
102688,note_on,0,0,0,,2,,,38,127
102742,note_off,54,0,0,,12,,,71,127
102743,note_on,1,0,0,,10,,,69,127
102797,note_off,54,0,0,,10,,,69,127
102798,note_on,1,0,0,,12,,,71,127
102852,note_off,54,0,0,,12,,,71,127
102853,note_on,1,0,0,,10,,,69,127
102907,note_off,54,0,0,,10,,,69,127
102908,note_on,1,0,0,,12,,,71,127
102962,note_off,54,0,0,,12,,,71,127
102963,note_on,1,0,0,,10,,,69,127
103017,note_off,54,0,0,,10,,,69,127
103018,note_on,1,0,0,,8,,,68,127
103072,note_off,54,0,0,,8,,,68,127
103073,note_on,1,0,0,,10,,,69,127
103127,note_off,54,0,0,,2,,,38,127
103128,note_on,1,0,0,,4,,,40,127
103594,note_on,466,0,0,,8,,,68,127
103599,note_off,5,0,0,,10,,,69,127
103813,note_off,214,0,0,,8,,,68,127
103842,note_on,29,0,0,,4,,,88,127
104005,note_off,163,0,0,,4,,,40,127
104060,note_off,55,0,0,,4,,,88,127
104061,note_on,1,0,0,,10,,,81,127
104061,note_on,0,0,0,,1,,,85,127
104279,note_off,218,0,0,,1,,,85,127
104280,note_on,1,0,0,,4,,,88,127
104498,note_off,218,0,0,,4,,,88,127
104498,note_off,0,0,0,,10,,,81,127
104499,note_on,1,0,0,,8,,,80,127
104499,note_on,0,0,0,,12,,,83,127
104717,note_off,218,0,0,,12,,,83,127
104718,note_on,1,0,0,,4,,,88,127
104936,note_off,218,0,0,,4,,,88,127
104936,note_off,0,0,0,,8,,,80,127
104937,note_on,1,0,0,,6,,,78,127
104937,note_on,0,0,0,,10,,,81,127
105155,note_off,218,0,0,,10,,,81,127
105156,note_on,1,0,0,,4,,,88,127
105374,note_off,218,0,0,,4,,,88,127
105374,note_off,0,0,0,,6,,,78,127
105375,note_on,1,0,0,,4,,,76,127
105375,note_on,0,0,0,,8,,,80,127
105593,note_off,218,0,0,,8,,,80,127
105594,note_on,1,0,0,,4,,,88,127
105812,note_off,218,0,0,,4,,,88,127
105812,note_off,0,0,0,,4,,,76,127
105813,note_on,1,0,0,,2,,,74,127
105813,note_on,0,0,0,,6,,,78,127
106031,note_off,218,0,0,,6,,,78,127
106032,note_on,1,0,0,,4,,,88,127
106250,note_off,218,0,0,,4,,,88,127
106250,note_off,0,0,0,,2,,,74,127
106251,note_on,1,0,0,,1,,,73,127
106251,note_on,0,0,0,,4,,,76,127
106469,note_off,218,0,0,,4,,,76,127
106470,note_on,1,0,0,,4,,,88,127
106688,note_off,218,0,0,,4,,,88,127
106688,note_off,0,0,0,,1,,,73,127
106689,note_on,1,0,0,,12,,,71,127
106689,note_on,0,0,0,,2,,,74,127
106907,note_off,218,0,0,,2,,,74,127
106908,note_on,1,0,0,,4,,,88,127
107126,note_off,218,0,0,,4,,,88,127
107126,note_off,0,0,0,,12,,,71,127
107127,note_on,1,0,0,,10,,,69,127
107127,note_on,0,0,0,,1,,,73,127
107345,note_off,218,0,0,,1,,,73,127
107346,note_on,1,0,0,,4,,,88,127
107564,note_off,218,0,0,,4,,,88,127
107564,note_off,0,0,0,,10,,,69,127
107565,note_on,1,0,0,,8,,,68,127
107565,note_on,0,0,0,,12,,,71,127
107783,note_off,218,0,0,,12,,,71,127
107784,note_on,1,0,0,,4,,,88,127
108002,note_off,218,0,0,,4,,,88,127
108002,note_off,0,0,0,,8,,,68,127
108003,note_on,1,0,0,,6,,,66,127
108003,note_on,0,0,0,,10,,,69,127
108221,note_off,218,0,0,,10,,,69,127
108222,note_on,1,0,0,,4,,,88,127
108440,note_off,218,0,0,,4,,,88,127
108440,note_off,0,0,0,,6,,,66,127
108441,note_on,1,0,0,,4,,,64,127
108441,note_on,0,0,0,,8,,,68,127
108659,note_off,218,0,0,,8,,,68,127
108659,note_off,0,0,0,,4,,,64,127
108660,note_on,1,0,0,,2,,,62,127
108660,note_on,0,0,0,,4,,,88,127
108878,note_off,218,0,0,,4,,,88,127
108878,note_off,0,0,0,,2,,,62,127
108879,note_on,1,0,0,,1,,,61,127
108879,note_on,0,0,0,,2,,,86,127
108988,note_off,109,0,0,,2,,,86,127
108989,note_on,1,0,0,,1,,,85,127
109098,note_off,109,0,0,,1,,,85,127
109098,note_off,0,0,0,,1,,,61,127
109099,note_on,1,0,0,,2,,,62,127
109099,note_on,0,0,0,,12,,,83,127
109208,note_off,109,0,0,,12,,,83,127
109209,note_on,1,0,0,,10,,,81,127
109318,note_off,109,0,0,,10,,,81,127
109318,note_off,0,0,0,,2,,,62,127
109319,note_on,1,0,0,,4,,,64,127
109319,note_on,0,0,0,,10,,,81,127
109428,note_off,109,0,0,,10,,,81,127
109429,note_on,1,0,0,,12,,,83,127
109538,note_off,109,0,0,,12,,,83,127
109539,note_on,1,0,0,,10,,,81,127
109593,note_off,54,0,0,,10,,,81,127
109594,note_on,1,0,0,,8,,,80,127
109648,note_off,54,0,0,,8,,,80,127
109649,note_on,1,0,0,,10,,,81,127
109703,note_off,54,0,0,,10,,,81,127
109704,note_on,1,0,0,,12,,,83,127
109758,note_off,54,0,0,,12,,,83,127
109758,note_off,0,0,0,,4,,,64,127
109759,note_on,1,0,0,,4,,,52,127
109759,note_on,0,0,0,,1,,,85,127
109813,note_off,54,0,0,,1,,,85,127
109814,note_on,1,0,0,,12,,,83,127
109868,note_off,54,0,0,,12,,,83,127
109869,note_on,1,0,0,,1,,,85,127
109923,note_off,54,0,0,,1,,,85,127
109924,note_on,1,0,0,,12,,,83,127
109978,note_off,54,0,0,,12,,,83,127
109979,note_on,1,0,0,,1,,,85,127
110033,note_off,54,0,0,,1,,,85,127
110034,note_on,1,0,0,,12,,,83,127
110088,note_off,54,0,0,,12,,,83,127
110089,note_on,1,0,0,,10,,,81,127
110198,note_off,109,0,0,,10,,,81,127
110198,note_off,0,0,0,,4,,,52,127
110199,note_on,1,0,0,,10,,,57,127
110199,note_on,0,0,0,,10,,,81,127
110856,note_off,657,0,0,,10,,,81,127
110856,note_off,0,0,0,,10,,,57,127
111159,note_on,303,0,0,,10,,,45,127
111268,note_off,109,0,0,,10,,,45,127
111269,note_on,1,0,0,,10,,,33,127
111378,note_off,109,0,0,,10,,,33,127
111379,note_on,1,0,0,,10,,,45,127
111597,note_off,218,0,0,,10,,,45,127
111598,note_on,1,0,0,,10,,,33,127
111816,note_off,218,0,0,,10,,,33,127
111817,note_on,1,0,0,,12,,,47,127
112035,note_off,218,0,0,,12,,,47,127
112036,note_on,1,0,0,,12,,,35,127
112254,note_off,218,0,0,,12,,,35,127
112255,note_on,1,0,0,,0,,,48,127
112693,note_off,438,0,0,,0,,,48,127
112694,note_on,1,0,0,,2,,,74,127
112694,note_on,0,0,0,,4,,,40,127
112748,note_off,54,0,0,,2,,,74,127
112749,note_on,1,0,0,,0,,,72,127
112803,note_off,54,0,0,,0,,,72,127
112804,note_on,1,0,0,,2,,,74,127
112858,note_off,54,0,0,,2,,,74,127
112859,note_on,1,0,0,,0,,,72,127
112913,note_off,54,0,0,,0,,,72,127
112914,note_on,1,0,0,,2,,,74,127
112968,note_off,54,0,0,,2,,,74,127
112969,note_on,1,0,0,,0,,,72,127
113023,note_off,54,0,0,,0,,,72,127
113024,note_on,1,0,0,,2,,,74,127
113078,note_off,54,0,0,,2,,,74,127
113079,note_on,1,0,0,,0,,,72,127
113133,note_off,54,0,0,,4,,,40,127
113134,note_on,1,0,0,,2,,,38,127
113243,note_off,109,0,0,,0,,,72,127
113244,note_on,1,0,0,,2,,,74,127
113298,note_off,54,0,0,,2,,,74,127
113299,note_on,1,0,0,,4,,,76,127
113353,note_off,54,0,0,,4,,,76,127
113354,note_on,1,0,0,,6,,,78,127
113408,note_off,54,0,0,,6,,,78,127
113409,note_on,1,0,0,,7,,,79,127
113463,note_off,54,0,0,,7,,,79,127
113464,note_on,1,0,0,,10,,,81,127
113518,note_off,54,0,0,,10,,,81,127
113519,note_on,1,0,0,,12,,,83,127
113573,note_off,54,0,0,,12,,,83,127
113573,note_off,0,0,0,,2,,,38,127
113574,note_on,1,0,0,,0,,,84,127
113574,note_on,0,0,0,,2,,,50,127
113792,note_off,218,0,0,,0,,,84,127
113793,note_on,1,0,0,,10,,,81,127
114011,note_off,218,0,0,,10,,,81,127
114011,note_off,0,0,0,,2,,,50,127
114012,note_on,1,0,0,,12,,,83,127
114012,note_on,0,0,0,,7,,,43,127
114230,note_off,218,0,0,,12,,,83,127
114231,note_on,1,0,0,,7,,,79,127
114449,note_off,218,0,0,,7,,,79,127
114450,note_on,1,0,0,,2,,,74,127
114668,note_off,218,0,0,,2,,,74,127
114668,note_off,0,0,0,,7,,,43,127
114687,note_on,19,0,0,,12,,,47,127
114796,note_off,109,0,0,,12,,,47,127
114797,note_on,1,0,0,,12,,,35,127
114906,note_off,109,0,0,,12,,,35,127
114907,note_on,1,0,0,,12,,,47,127
115125,note_off,218,0,0,,12,,,47,127
115126,note_on,1,0,0,,12,,,35,127
115344,note_off,218,0,0,,12,,,35,127
115345,note_on,1,0,0,,1,,,49,127
115563,note_off,218,0,0,,1,,,49,127
115564,note_on,1,0,0,,1,,,37,127
115782,note_off,218,0,0,,1,,,37,127
115783,note_on,1,0,0,,2,,,50,127
116221,note_off,438,0,0,,2,,,50,127
116222,note_on,1,0,0,,2,,,38,127
116222,note_on,0,0,0,,4,,,76,127
116276,note_off,54,0,0,,4,,,76,127
116277,note_on,1,0,0,,2,,,74,127
116331,note_off,54,0,0,,2,,,74,127
116332,note_on,1,0,0,,4,,,76,127
116386,note_off,54,0,0,,4,,,76,127
116387,note_on,1,0,0,,2,,,74,127
116441,note_off,54,0,0,,2,,,74,127
116442,note_on,1,0,0,,4,,,76,127
116496,note_off,54,0,0,,4,,,76,127
116497,note_on,1,0,0,,2,,,74,127
116551,note_off,54,0,0,,2,,,74,127
116552,note_on,1,0,0,,4,,,76,127
116606,note_off,54,0,0,,4,,,76,127
116607,note_on,1,0,0,,2,,,74,127
116661,note_off,54,0,0,,2,,,38,127
116662,note_on,1,0,0,,4,,,40,127
116771,note_off,109,0,0,,2,,,74,127
116772,note_on,1,0,0,,4,,,76,127
116826,note_off,54,0,0,,4,,,76,127
116827,note_on,1,0,0,,6,,,78,127
116881,note_off,54,0,0,,6,,,78,127
116882,note_on,1,0,0,,8,,,80,127
116936,note_off,54,0,0,,8,,,80,127
116937,note_on,1,0,0,,10,,,81,127
116991,note_off,54,0,0,,10,,,81,127
116992,note_on,1,0,0,,12,,,83,127
117046,note_off,54,0,0,,12,,,83,127
117047,note_on,1,0,0,,1,,,85,127
117101,note_off,54,0,0,,1,,,85,127
117101,note_off,0,0,0,,4,,,40,127
117102,note_on,1,0,0,,4,,,52,127
117102,note_on,0,0,0,,2,,,86,127
117320,note_off,218,0,0,,2,,,86,127
117321,note_on,1,0,0,,12,,,83,127
117539,note_off,218,0,0,,12,,,83,127
117539,note_off,0,0,0,,4,,,52,127
117540,note_on,1,0,0,,10,,,45,127
117540,note_on,0,0,0,,1,,,85,127
117758,note_off,218,0,0,,1,,,85,127
117759,note_on,1,0,0,,10,,,81,127
117977,note_off,218,0,0,,10,,,81,127
117978,note_on,1,0,0,,4,,,76,127
118196,note_off,218,0,0,,4,,,76,127
118209,note_on,13,0,0,,10,,,81,127
118339,note_off,130,0,0,,10,,,45,127
118427,note_off,88,0,0,,10,,,81,127
118435,note_on,8,0,0,,6,,,78,127
118435,note_on,0,0,0,,2,,,74,127
118653,note_off,218,0,0,,6,,,78,127
118654,note_on,1,0,0,,10,,,81,127
118872,note_off,218,0,0,,10,,,81,127
118872,note_off,0,0,0,,2,,,74,127
118873,note_on,1,0,0,,4,,,76,127
118873,note_on,0,0,0,,1,,,73,127
119091,note_off,218,0,0,,4,,,76,127
119092,note_on,1,0,0,,10,,,81,127
119310,note_off,218,0,0,,10,,,81,127
119310,note_off,0,0,0,,1,,,73,127
119311,note_on,1,0,0,,2,,,74,127
119311,note_on,0,0,0,,12,,,71,127
119529,note_off,218,0,0,,2,,,74,127
119530,note_on,1,0,0,,10,,,81,127
119748,note_off,218,0,0,,10,,,81,127
119748,note_off,0,0,0,,12,,,71,127
119749,note_on,1,0,0,,1,,,73,127
119749,note_on,0,0,0,,10,,,69,127
119967,note_off,218,0,0,,1,,,73,127
119968,note_on,1,0,0,,10,,,81,127
120186,note_off,218,0,0,,10,,,81,127
120186,note_off,0,0,0,,10,,,69,127
120187,note_on,1,0,0,,12,,,71,127
120187,note_on,0,0,0,,8,,,68,127
120405,note_off,218,0,0,,12,,,71,127
120406,note_on,1,0,0,,10,,,81,127
120624,note_off,218,0,0,,10,,,81,127
120624,note_off,0,0,0,,8,,,68,127
120625,note_on,1,0,0,,10,,,69,127
120625,note_on,0,0,0,,6,,,66,127
120843,note_off,218,0,0,,10,,,69,127
120844,note_on,1,0,0,,10,,,81,127
121062,note_off,218,0,0,,10,,,81,127
121062,note_off,0,0,0,,6,,,66,127
121063,note_on,1,0,0,,8,,,68,127
121063,note_on,0,0,0,,4,,,64,127
121281,note_off,218,0,0,,8,,,68,127
121282,note_on,1,0,0,,10,,,81,127
121500,note_off,218,0,0,,10,,,81,127
121500,note_off,0,0,0,,4,,,64,127
121501,note_on,1,0,0,,6,,,66,127
121501,note_on,0,0,0,,2,,,62,127
121719,note_off,218,0,0,,6,,,66,127
121720,note_on,1,0,0,,10,,,81,127
121938,note_off,218,0,0,,10,,,81,127
121938,note_off,0,0,0,,2,,,62,127
121939,note_on,1,0,0,,4,,,64,127
121939,note_on,0,0,0,,1,,,61,127
122157,note_off,218,0,0,,4,,,64,127
122158,note_on,1,0,0,,10,,,81,127
122376,note_off,218,0,0,,10,,,81,127
122376,note_off,0,0,0,,1,,,61,127
122377,note_on,1,0,0,,2,,,62,127
122377,note_on,0,0,0,,12,,,59,127
122595,note_off,218,0,0,,2,,,62,127
122596,note_on,1,0,0,,10,,,81,127
122814,note_off,218,0,0,,10,,,81,127
122814,note_off,0,0,0,,12,,,59,127
122815,note_on,1,0,0,,1,,,61,127
122815,note_on,0,0,0,,10,,,57,127
123033,note_off,218,0,0,,1,,,61,127
123034,note_on,1,0,0,,10,,,81,127
123252,note_off,218,0,0,,10,,,81,127
123252,note_off,0,0,0,,10,,,57,127
123253,note_on,1,0,0,,8,,,80,127
123253,note_on,0,0,0,,1,,,49,127
123362,note_off,109,0,0,,8,,,80,127
123363,note_on,1,0,0,,6,,,78,127
123472,note_off,109,0,0,,6,,,78,127
123472,note_off,0,0,0,,1,,,49,127
123473,note_on,1,0,0,,4,,,76,127
123473,note_on,0,0,0,,2,,,50,127
123582,note_off,109,0,0,,4,,,76,127
123583,note_on,1,0,0,,2,,,74,127
123692,note_off,109,0,0,,2,,,74,127
123692,note_off,0,0,0,,2,,,50,127
123693,note_on,1,0,0,,1,,,73,127
123693,note_on,0,0,0,,4,,,52,127
123802,note_off,109,0,0,,1,,,73,127
123803,note_on,1,0,0,,12,,,71,127
123912,note_off,109,0,0,,12,,,71,127
123913,note_on,1,0,0,,10,,,69,127
124022,note_off,109,0,0,,10,,,69,127
124023,note_on,1,0,0,,12,,,71,127
124132,note_off,109,0,0,,12,,,71,127
124132,note_off,0,0,0,,4,,,52,127
124133,note_on,1,0,0,,1,,,73,127
124133,note_on,0,0,0,,4,,,40,127
124187,note_off,54,0,0,,1,,,73,127
124188,note_on,1,0,0,,12,,,71,127
124242,note_off,54,0,0,,12,,,71,127
124243,note_on,1,0,0,,1,,,73,127
124297,note_off,54,0,0,,1,,,73,127
124298,note_on,1,0,0,,12,,,71,127
124352,note_off,54,0,0,,12,,,71,127
124353,note_on,1,0,0,,1,,,73,127
124407,note_off,54,0,0,,1,,,73,127
124408,note_on,1,0,0,,12,,,71,127
124462,note_off,54,0,0,,12,,,71,127
124463,note_on,1,0,0,,10,,,69,127
124572,note_off,109,0,0,,10,,,69,127
124572,note_off,0,0,0,,4,,,40,127
124573,note_on,1,0,0,,10,,,69,127
124573,note_on,0,0,0,,10,,,45,127
125669,note_off,1096,0,0,,10,,,45,127
125670,note_off,1,0,0,,10,,,69,127
125944,note_on,274,0,0,,10,,,81,127
126053,note_off,109,0,0,,10,,,81,127
126054,note_on,1,0,0,,7,,,79,127
126163,note_off,109,0,0,,7,,,79,127
126164,note_on,1,0,0,,5,,,77,127
126382,note_off,218,0,0,,5,,,77,127
126383,note_on,1,0,0,,4,,,76,127
126601,note_off,218,0,0,,4,,,76,127
126602,note_on,1,0,0,,3,,,75,127
126821,note_on,219,0,0,,10,,,69,127
126821,note_on,0,0,0,,0,,,60,127
127039,note_off,218,0,0,,0,,,60,127
127039,note_off,0,0,0,,10,,,69,127
127040,note_on,1,0,0,,12,,,71,127
127040,note_on,0,0,0,,12,,,59,127
127258,note_off,218,0,0,,12,,,59,127
127258,note_off,0,0,0,,12,,,71,127
127258,note_off,0,0,0,,3,,,75,127
127259,note_on,1,0,0,,4,,,76,127
127259,note_on,0,0,0,,0,,,72,127
127259,note_on,0,0,0,,10,,,57,127
127477,note_off,218,0,0,,10,,,57,127
127477,note_off,0,0,0,,0,,,72,127
127477,note_off,0,0,0,,4,,,76,127
127478,note_on,1,0,0,,0,,,72,127
127478,note_on,0,0,0,,6,,,78,127
127478,note_on,0,0,0,,3,,,63,127
127696,note_off,218,0,0,,0,,,72,127
127697,note_on,1,0,0,,12,,,71,127
127915,note_off,218,0,0,,3,,,63,127
127916,note_on,1,0,0,,4,,,64,127
128134,note_off,218,0,0,,12,,,71,127
128134,note_off,0,0,0,,6,,,78,127
128135,note_on,1,0,0,,0,,,72,127
128135,note_on,0,0,0,,4,,,76,127
128353,note_off,218,0,0,,4,,,76,127
128353,note_off,0,0,0,,0,,,72,127
128353,note_off,0,0,0,,4,,,64,127
128354,note_on,1,0,0,,0,,,72,127
128354,note_on,0,0,0,,6,,,78,127
128354,note_on,0,0,0,,3,,,63,127
128572,note_off,218,0,0,,0,,,72,127
128573,note_on,1,0,0,,12,,,71,127
128791,note_off,218,0,0,,3,,,63,127
128791,note_off,0,0,0,,6,,,78,127
128792,note_on,1,0,0,,12,,,59,127
129010,note_off,218,0,0,,12,,,71,127
129011,note_on,1,0,0,,10,,,69,127
129229,note_off,218,0,0,,10,,,69,127
129229,note_off,0,0,0,,12,,,59,127
129230,note_on,1,0,0,,10,,,69,127
129230,note_on,0,0,0,,4,,,64,127
129284,note_off,54,0,0,,10,,,69,127
129285,note_on,1,0,0,,7,,,67,127
129339,note_off,54,0,0,,7,,,67,127
129340,note_on,1,0,0,,10,,,69,127
129394,note_off,54,0,0,,10,,,69,127
129395,note_on,1,0,0,,7,,,67,127
129449,note_off,54,0,0,,7,,,67,127
129450,note_on,1,0,0,,10,,,69,127
129504,note_off,54,0,0,,10,,,69,127
129505,note_on,1,0,0,,7,,,67,127
129559,note_off,54,0,0,,7,,,67,127
129560,note_off,1,0,0,,4,,,64,127
129560,note_on,0,0,0,,6,,,66,127
129614,note_off,54,0,0,,6,,,66,127
129615,note_on,1,0,0,,4,,,64,127
129669,note_off,54,0,0,,4,,,64,127
129670,note_on,1,0,0,,4,,,64,127
129670,note_on,0,0,0,,4,,,52,127
130108,note_off,438,0,0,,4,,,64,127
130327,note_off,219,0,0,,4,,,52,127
130346,note_on,19,0,0,,7,,,79,127
130455,note_off,109,0,0,,7,,,79,127
130456,note_on,1,0,0,,5,,,77,127
130565,note_off,109,0,0,,5,,,77,127
130566,note_on,1,0,0,,4,,,76,127
130784,note_off,218,0,0,,4,,,76,127
130785,note_on,1,0,0,,2,,,74,127
131003,note_off,218,0,0,,2,,,74,127
131004,note_on,1,0,0,,1,,,73,127
131223,note_on,219,0,0,,11,,,58,127
131223,note_on,0,0,0,,7,,,67,127
131441,note_off,218,0,0,,7,,,67,127
131441,note_off,0,0,0,,11,,,58,127
131442,note_on,1,0,0,,10,,,57,127
131442,note_on,0,0,0,,10,,,69,127
131660,note_off,218,0,0,,10,,,69,127
131660,note_off,0,0,0,,10,,,57,127
131660,note_off,0,0,0,,1,,,73,127
131661,note_on,1,0,0,,7,,,55,127
131661,note_on,0,0,0,,2,,,74,127
131661,note_on,0,0,0,,11,,,70,127
131879,note_off,218,0,0,,11,,,70,127
131879,note_off,0,0,0,,2,,,74,127
131879,note_off,0,0,0,,7,,,55,127
131880,note_on,1,0,0,,1,,,61,127
131880,note_on,0,0,0,,4,,,76,127
131880,note_on,0,0,0,,11,,,70,127
132098,note_off,218,0,0,,11,,,70,127
132099,note_on,1,0,0,,10,,,69,127
132317,note_off,218,0,0,,1,,,61,127
132318,note_on,1,0,0,,2,,,62,127
132536,note_off,218,0,0,,10,,,69,127
132536,note_off,0,0,0,,4,,,76,127
132537,note_on,1,0,0,,11,,,70,127
132537,note_on,0,0,0,,2,,,74,127
132755,note_off,218,0,0,,2,,,74,127
132755,note_off,0,0,0,,11,,,70,127
132755,note_off,0,0,0,,2,,,62,127
132756,note_on,1,0,0,,1,,,61,127
132756,note_on,0,0,0,,11,,,70,127
132756,note_on,0,0,0,,4,,,76,127
132974,note_off,218,0,0,,11,,,70,127
132975,note_on,1,0,0,,10,,,69,127
133193,note_off,218,0,0,,4,,,76,127
133193,note_off,0,0,0,,1,,,61,127
133194,note_on,1,0,0,,10,,,57,127
133412,note_off,218,0,0,,10,,,69,127
133413,note_on,1,0,0,,7,,,67,127
133631,note_off,218,0,0,,7,,,67,127
133631,note_off,0,0,0,,10,,,57,127
133632,note_on,1,0,0,,2,,,62,127
133632,note_on,0,0,0,,7,,,67,127
133686,note_off,54,0,0,,7,,,67,127
133687,note_on,1,0,0,,5,,,65,127
133741,note_off,54,0,0,,5,,,65,127
133742,note_on,1,0,0,,7,,,67,127
133796,note_off,54,0,0,,7,,,67,127
133797,note_on,1,0,0,,5,,,65,127
133851,note_off,54,0,0,,5,,,65,127
133852,note_on,1,0,0,,7,,,67,127
133906,note_off,54,0,0,,7,,,67,127
133907,note_on,1,0,0,,5,,,65,127
133961,note_off,54,0,0,,5,,,65,127
133962,note_off,1,0,0,,2,,,62,127
133962,note_on,0,0,0,,4,,,64,127
134016,note_off,54,0,0,,4,,,64,127
134017,note_on,1,0,0,,2,,,62,127
134071,note_off,54,0,0,,2,,,62,127
134072,note_on,1,0,0,,2,,,50,127
134072,note_on,0,0,0,,2,,,62,127
134510,note_off,438,0,0,,2,,,62,127
134729,note_off,219,0,0,,2,,,50,127
134767,note_on,38,0,0,,2,,,86,127
134876,note_off,109,0,0,,2,,,86,127
134877,note_on,1,0,0,,0,,,84,127
134986,note_off,109,0,0,,0,,,84,127
134987,note_on,1,0,0,,12,,,83,127
135205,note_off,218,0,0,,12,,,83,127
135206,note_on,1,0,0,,10,,,81,127
135424,note_off,218,0,0,,10,,,81,127
135425,note_on,1,0,0,,8,,,80,127
135644,note_on,219,0,0,,5,,,65,127
135644,note_on,0,0,0,,2,,,74,127
135862,note_off,218,0,0,,2,,,74,127
135862,note_off,0,0,0,,5,,,65,127
135863,note_on,1,0,0,,4,,,64,127
135863,note_on,0,0,0,,4,,,76,127
136081,note_off,218,0,0,,4,,,76,127
136081,note_off,0,0,0,,4,,,64,127
136081,note_off,0,0,0,,8,,,80,127
136082,note_on,1,0,0,,2,,,62,127
136082,note_on,0,0,0,,10,,,81,127
136082,note_on,0,0,0,,5,,,77,127
136300,note_off,218,0,0,,5,,,77,127
136300,note_off,0,0,0,,10,,,81,127
136300,note_off,0,0,0,,2,,,62,127
136301,note_on,1,0,0,,8,,,68,127
136301,note_on,0,0,0,,12,,,83,127
136301,note_on,0,0,0,,5,,,77,127
136519,note_off,218,0,0,,5,,,77,127
136520,note_on,1,0,0,,4,,,76,127
136738,note_off,218,0,0,,8,,,68,127
136739,note_on,1,0,0,,10,,,69,127
136957,note_off,218,0,0,,4,,,76,127
136957,note_off,0,0,0,,12,,,83,127
136958,note_on,1,0,0,,10,,,81,127
136958,note_on,0,0,0,,5,,,77,127
137176,note_off,218,0,0,,5,,,77,127
137176,note_off,0,0,0,,10,,,81,127
137176,note_off,0,0,0,,10,,,69,127
137177,note_on,1,0,0,,8,,,68,127
137177,note_on,0,0,0,,12,,,83,127
137177,note_on,0,0,0,,5,,,77,127
137395,note_off,218,0,0,,5,,,77,127
137396,note_on,1,0,0,,4,,,76,127
137614,note_off,218,0,0,,12,,,83,127
137614,note_off,0,0,0,,8,,,68,127
137615,note_on,1,0,0,,4,,,64,127
137833,note_off,218,0,0,,4,,,76,127
137834,note_on,1,0,0,,2,,,74,127
138052,note_off,218,0,0,,2,,,74,127
138052,note_off,0,0,0,,4,,,64,127
138053,note_on,1,0,0,,10,,,69,127
138053,note_on,0,0,0,,2,,,74,127
138107,note_off,54,0,0,,2,,,74,127
138108,note_on,1,0,0,,0,,,72,127
138162,note_off,54,0,0,,0,,,72,127
138163,note_on,1,0,0,,2,,,74,127
138217,note_off,54,0,0,,2,,,74,127
138218,note_on,1,0,0,,0,,,72,127
138272,note_off,54,0,0,,0,,,72,127
138273,note_on,1,0,0,,2,,,74,127
138327,note_off,54,0,0,,2,,,74,127
138328,note_on,1,0,0,,0,,,72,127
138382,note_off,54,0,0,,0,,,72,127
138383,note_off,1,0,0,,10,,,69,127
138383,note_on,0,0,0,,12,,,71,127
138437,note_off,54,0,0,,12,,,71,127
138438,note_on,1,0,0,,10,,,69,127
138492,note_off,54,0,0,,10,,,69,127
138493,note_on,1,0,0,,10,,,57,127
138493,note_on,0,0,0,,10,,,69,127
138724,note_on,231,0,0,,10,,,81,127
138927,note_off,203,0,0,,10,,,69,127
138930,note_off,3,0,0,,10,,,57,127
138941,note_off,11,0,0,,10,,,81,127
138949,note_on,8,0,0,,6,,,78,127
138949,note_on,0,0,0,,2,,,74,127
139167,note_off,218,0,0,,6,,,78,127
139168,note_on,1,0,0,,10,,,81,127
139386,note_off,218,0,0,,10,,,81,127
139386,note_off,0,0,0,,2,,,74,127
139387,note_on,1,0,0,,4,,,76,127
139387,note_on,0,0,0,,1,,,73,127
139605,note_off,218,0,0,,4,,,76,127
139606,note_on,1,0,0,,10,,,81,127
139824,note_off,218,0,0,,10,,,81,127
139824,note_off,0,0,0,,1,,,73,127
139825,note_on,1,0,0,,2,,,74,127
139825,note_on,0,0,0,,12,,,71,127
140043,note_off,218,0,0,,2,,,74,127
140044,note_on,1,0,0,,10,,,81,127
140262,note_off,218,0,0,,10,,,81,127
140262,note_off,0,0,0,,12,,,71,127
140263,note_on,1,0,0,,1,,,73,127
140263,note_on,0,0,0,,10,,,69,127
140481,note_off,218,0,0,,1,,,73,127
140482,note_on,1,0,0,,10,,,81,127
140700,note_off,218,0,0,,10,,,81,127
140700,note_off,0,0,0,,10,,,69,127
140701,note_on,1,0,0,,12,,,71,127
140701,note_on,0,0,0,,8,,,68,127
140919,note_off,218,0,0,,12,,,71,127
140920,note_on,1,0,0,,10,,,81,127
141138,note_off,218,0,0,,10,,,81,127
141138,note_off,0,0,0,,8,,,68,127
141139,note_on,1,0,0,,10,,,69,127
141139,note_on,0,0,0,,6,,,66,127
141357,note_off,218,0,0,,10,,,69,127
141358,note_on,1,0,0,,10,,,81,127
141576,note_off,218,0,0,,10,,,81,127
141576,note_off,0,0,0,,6,,,66,127
141577,note_on,1,0,0,,8,,,68,127
141577,note_on,0,0,0,,4,,,64,127
141795,note_off,218,0,0,,8,,,68,127
141796,note_on,1,0,0,,10,,,81,127
142014,note_off,218,0,0,,10,,,81,127
142014,note_off,0,0,0,,4,,,64,127
142015,note_on,1,0,0,,6,,,66,127
142015,note_on,0,0,0,,2,,,62,127
142233,note_off,218,0,0,,6,,,66,127
142234,note_on,1,0,0,,10,,,81,127
142452,note_off,218,0,0,,10,,,81,127
142452,note_off,0,0,0,,2,,,62,127
142453,note_on,1,0,0,,4,,,64,127
142453,note_on,0,0,0,,1,,,61,127
142671,note_off,218,0,0,,4,,,64,127
142672,note_on,1,0,0,,10,,,81,127
142890,note_off,218,0,0,,10,,,81,127
142890,note_off,0,0,0,,1,,,61,127
142891,note_on,1,0,0,,2,,,62,127
142891,note_on,0,0,0,,12,,,59,127
143109,note_off,218,0,0,,2,,,62,127
143110,note_on,1,0,0,,10,,,81,127
143328,note_off,218,0,0,,10,,,81,127
143328,note_off,0,0,0,,12,,,59,127
143329,note_on,1,0,0,,1,,,61,127
143329,note_on,0,0,0,,10,,,57,127
143547,note_off,218,0,0,,1,,,61,127
143548,note_on,1,0,0,,10,,,81,127
143766,note_off,218,0,0,,10,,,81,127
143766,note_off,0,0,0,,10,,,57,127
143767,note_on,1,0,0,,8,,,80,127
143767,note_on,0,0,0,,1,,,49,127
143876,note_off,109,0,0,,8,,,80,127
143877,note_on,1,0,0,,6,,,78,127
143986,note_off,109,0,0,,6,,,78,127
143986,note_off,0,0,0,,1,,,49,127
143987,note_on,1,0,0,,4,,,76,127
143987,note_on,0,0,0,,2,,,50,127
144096,note_off,109,0,0,,4,,,76,127
144097,note_on,1,0,0,,2,,,74,127
144206,note_off,109,0,0,,2,,,74,127
144206,note_off,0,0,0,,2,,,50,127
144207,note_on,1,0,0,,1,,,73,127
144207,note_on,0,0,0,,4,,,52,127
144316,note_off,109,0,0,,1,,,73,127
144317,note_on,1,0,0,,12,,,71,127
144426,note_off,109,0,0,,12,,,71,127
144427,note_on,1,0,0,,10,,,69,127
144536,note_off,109,0,0,,10,,,69,127
144537,note_on,1,0,0,,12,,,71,127
144646,note_off,109,0,0,,12,,,71,127
144646,note_off,0,0,0,,4,,,52,127
144647,note_on,1,0,0,,1,,,73,127
144647,note_on,0,0,0,,4,,,40,127
144701,note_off,54,0,0,,1,,,73,127
144702,note_on,1,0,0,,12,,,71,127
144756,note_off,54,0,0,,12,,,71,127
144757,note_on,1,0,0,,1,,,73,127
144811,note_off,54,0,0,,1,,,73,127
144812,note_on,1,0,0,,12,,,71,127
144866,note_off,54,0,0,,12,,,71,127
144867,note_on,1,0,0,,1,,,73,127
144921,note_off,54,0,0,,1,,,73,127
144922,note_on,1,0,0,,12,,,71,127
144976,note_off,54,0,0,,12,,,71,127
144977,note_on,1,0,0,,10,,,69,127
145031,note_off,54,0,0,,10,,,69,127
145032,note_on,1,0,0,,12,,,71,127
145086,note_off,54,0,0,,12,,,71,127
145086,note_off,0,0,0,,4,,,40,127
145087,note_on,1,0,0,,10,,,69,127
145087,note_on,0,0,0,,10,,,45,127
145305,note_off,218,0,0,,10,,,69,127
145306,note_on,1,0,0,,10,,,81,127
145415,note_off,109,0,0,,10,,,81,127
145416,note_on,1,0,0,,10,,,69,127
145525,note_off,109,0,0,,10,,,69,127
145526,note_on,1,0,0,,10,,,81,127
145744,note_off,218,0,0,,10,,,45,127
145745,note_on,1,0,0,,10,,,69,127
145963,note_off,218,0,0,,10,,,69,127
145963,note_off,0,0,0,,10,,,81,127
145964,note_on,1,0,0,,10,,,81,127
145964,note_on,0,0,0,,6,,,66,127
146182,note_off,218,0,0,,6,,,66,127
146183,note_on,1,0,0,,10,,,69,127
146401,note_off,218,0,0,,10,,,69,127
146401,note_off,0,0,0,,10,,,81,127
146402,note_on,1,0,0,,10,,,81,127
146402,note_on,0,0,0,,4,,,64,127
146620,note_off,218,0,0,,4,,,64,127
146621,note_on,1,0,0,,10,,,69,127
146839,note_off,218,0,0,,10,,,69,127
146839,note_off,0,0,0,,10,,,81,127
146840,note_on,1,0,0,,10,,,81,127
146840,note_on,0,0,0,,2,,,62,127
147058,note_off,218,0,0,,2,,,62,127
147059,note_on,1,0,0,,10,,,69,127
147277,note_off,218,0,0,,10,,,69,127
147277,note_off,0,0,0,,10,,,81,127
147278,note_on,1,0,0,,10,,,81,127
147278,note_on,0,0,0,,1,,,61,127
147496,note_off,218,0,0,,1,,,61,127
147497,note_on,1,0,0,,10,,,69,127
147715,note_off,218,0,0,,10,,,69,127
147715,note_off,0,0,0,,10,,,81,127
147716,note_on,1,0,0,,10,,,81,127
147716,note_on,0,0,0,,12,,,59,127
147934,note_off,218,0,0,,12,,,59,127
147935,note_on,1,0,0,,10,,,69,127
148153,note_off,218,0,0,,10,,,69,127
148153,note_off,0,0,0,,10,,,81,127
148154,note_on,1,0,0,,10,,,81,127
148154,note_on,0,0,0,,10,,,57,127
148372,note_off,218,0,0,,10,,,57,127
148373,note_on,1,0,0,,10,,,69,127
148591,note_off,218,0,0,,10,,,69,127
148591,note_off,0,0,0,,10,,,81,127
148592,note_on,1,0,0,,10,,,81,127
148592,note_on,0,0,0,,8,,,56,127
148810,note_off,218,0,0,,8,,,56,127
148811,note_on,1,0,0,,10,,,69,127
149029,note_off,218,0,0,,10,,,69,127
149029,note_off,0,0,0,,10,,,81,127
149030,note_on,1,0,0,,10,,,81,127
149030,note_on,0,0,0,,6,,,54,127
149248,note_off,218,0,0,,6,,,54,127
149249,note_on,1,0,0,,10,,,69,127
149467,note_off,218,0,0,,10,,,69,127
149467,note_off,0,0,0,,10,,,81,127
149468,note_on,1,0,0,,10,,,81,127
149468,note_on,0,0,0,,4,,,52,127
149686,note_off,218,0,0,,4,,,52,127
149687,note_on,1,0,0,,10,,,69,127
149905,note_off,218,0,0,,10,,,69,127
149905,note_off,0,0,0,,10,,,81,127
149906,note_on,1,0,0,,10,,,81,127
149906,note_on,0,0,0,,2,,,50,127
150124,note_off,218,0,0,,2,,,50,127
150125,note_on,1,0,0,,10,,,69,127
150343,note_off,218,0,0,,10,,,69,127
150343,note_off,0,0,0,,10,,,81,127
150344,note_on,1,0,0,,10,,,81,127
150344,note_on,0,0,0,,1,,,49,127
150562,note_off,218,0,0,,1,,,49,127
150563,note_on,1,0,0,,10,,,69,127
150781,note_off,218,0,0,,10,,,69,127
150781,note_off,0,0,0,,10,,,81,127
150782,note_on,1,0,0,,10,,,81,127
150782,note_on,0,0,0,,12,,,47,127
151000,note_off,218,0,0,,12,,,47,127
151001,note_on,1,0,0,,10,,,69,127
151219,note_off,218,0,0,,10,,,69,127
151219,note_off,0,0,0,,10,,,81,127
151238,note_on,19,0,0,,10,,,45,127
151238,note_on,0,0,0,,1,,,85,127
151456,note_off,218,0,0,,1,,,85,127
151457,note_on,1,0,0,,12,,,83,127
151566,note_off,109,0,0,,12,,,83,127
151567,note_on,1,0,0,,10,,,81,127
151676,note_off,109,0,0,,10,,,81,127
151676,note_off,0,0,0,,10,,,45,127
151677,note_on,1,0,0,,2,,,50,127
151677,note_on,0,0,0,,8,,,80,127
151786,note_off,109,0,0,,8,,,80,127
151787,note_on,1,0,0,,6,,,78,127
151896,note_off,109,0,0,,6,,,78,127
151897,note_on,1,0,0,,4,,,76,127
152006,note_off,109,0,0,,4,,,76,127
152007,note_on,1,0,0,,2,,,74,127
152116,note_off,109,0,0,,2,,,74,127
152116,note_off,0,0,0,,2,,,50,127
152117,note_on,1,0,0,,4,,,52,127
152117,note_on,0,0,0,,1,,,73,127
152226,note_off,109,0,0,,1,,,73,127
152227,note_on,1,0,0,,12,,,71,127
152336,note_off,109,0,0,,12,,,71,127
152337,note_on,1,0,0,,10,,,69,127
152446,note_off,109,0,0,,10,,,69,127
152447,note_on,1,0,0,,12,,,71,127
152556,note_off,109,0,0,,12,,,71,127
152556,note_off,0,0,0,,4,,,52,127
152557,note_on,1,0,0,,4,,,40,127
152557,note_on,0,0,0,,1,,,73,127
152611,note_off,54,0,0,,1,,,73,127
152612,note_on,1,0,0,,12,,,71,127
152666,note_off,54,0,0,,12,,,71,127
152667,note_on,1,0,0,,1,,,73,127
152721,note_off,54,0,0,,1,,,73,127
152722,note_on,1,0,0,,12,,,71,127
152776,note_off,54,0,0,,12,,,71,127
152777,note_on,1,0,0,,1,,,73,127
152831,note_off,54,0,0,,1,,,73,127
152832,note_on,1,0,0,,12,,,71,127
152886,note_off,54,0,0,,12,,,71,127
152887,note_on,1,0,0,,10,,,69,127
152941,note_off,54,0,0,,10,,,69,127
152942,note_on,1,0,0,,12,,,71,127
152996,note_off,54,0,0,,12,,,71,127
152996,note_off,0,0,0,,4,,,40,127
153034,note_on,38,0,0,,10,,,45,127
153034,note_on,0,0,0,,10,,,81,127
153252,note_off,218,0,0,,10,,,81,127
153253,note_on,1,0,0,,10,,,69,127
153471,note_off,218,0,0,,10,,,69,127
153471,note_off,0,0,0,,10,,,45,127
153472,note_on,1,0,0,,1,,,49,127
153472,note_on,0,0,0,,10,,,81,127
153581,note_off,109,0,0,,10,,,81,127
153582,note_on,1,0,0,,8,,,80,127
153691,note_off,109,0,0,,8,,,80,127
153692,note_on,1,0,0,,6,,,78,127
153801,note_off,109,0,0,,6,,,78,127
153802,note_on,1,0,0,,4,,,76,127
153911,note_off,109,0,0,,4,,,76,127
153911,note_off,0,0,0,,1,,,49,127
153912,note_on,1,0,0,,2,,,50,127
153912,note_on,0,0,0,,2,,,74,127
154021,note_off,109,0,0,,2,,,74,127
154022,note_on,1,0,0,,1,,,73,127
154131,note_off,109,0,0,,1,,,73,127
154132,note_on,1,0,0,,12,,,71,127
154241,note_off,109,0,0,,12,,,71,127
154242,note_on,1,0,0,,10,,,69,127
154351,note_off,109,0,0,,10,,,69,127
154351,note_off,0,0,0,,2,,,50,127
154352,note_on,1,0,0,,4,,,52,127
154352,note_on,0,0,0,,8,,,68,127
154461,note_off,109,0,0,,8,,,68,127
154462,note_on,1,0,0,,6,,,66,127
154571,note_off,109,0,0,,6,,,66,127
154572,note_on,1,0,0,,4,,,64,127
154681,note_off,109,0,0,,4,,,64,127
154682,note_on,1,0,0,,2,,,62,127
154791,note_off,109,0,0,,2,,,62,127
154791,note_off,0,0,0,,4,,,52,127
154792,note_on,1,0,0,,10,,,45,127
154792,note_on,0,0,0,,1,,,61,127
154901,note_off,109,0,0,,1,,,61,127
154902,note_on,1,0,0,,12,,,59,127
155011,note_off,109,0,0,,12,,,59,127
155012,note_on,1,0,0,,10,,,57,127
155121,note_off,109,0,0,,10,,,57,127
155122,note_on,1,0,0,,8,,,56,127
155231,note_off,109,0,0,,8,,,56,127
155231,note_off,0,0,0,,10,,,45,127
155232,note_on,1,0,0,,1,,,37,127
155232,note_on,0,0,0,,6,,,54,127
155341,note_off,109,0,0,,6,,,54,127
155342,note_on,1,0,0,,4,,,52,127
155451,note_off,109,0,0,,4,,,52,127
155452,note_on,1,0,0,,2,,,50,127
155561,note_off,109,0,0,,2,,,50,127
155562,note_on,1,0,0,,1,,,49,127
155671,note_off,109,0,0,,1,,,49,127
155671,note_off,0,0,0,,1,,,37,127
155672,note_on,1,0,0,,2,,,38,127
155672,note_on,0,0,0,,12,,,47,127
155781,note_off,109,0,0,,12,,,47,127
155782,note_on,1,0,0,,10,,,45,127
155891,note_off,109,0,0,,10,,,45,127
155892,note_on,1,0,0,,8,,,44,127
156001,note_off,109,0,0,,8,,,44,127
156002,note_on,1,0,0,,6,,,42,127
156111,note_off,109,0,0,,6,,,42,127
156111,note_off,0,0,0,,2,,,38,127
156112,note_on,1,0,0,,4,,,40,127
156221,note_off,109,0,0,,4,,,40,127
156222,note_on,1,0,0,,2,,,38,127
156331,note_off,109,0,0,,2,,,38,127
156332,note_on,1,0,0,,1,,,37,127
156441,note_off,109,0,0,,1,,,37,127
156442,note_on,1,0,0,,12,,,35,127
156551,note_off,109,0,0,,12,,,35,127
156552,note_on,1,0,0,,10,,,33,127
158303,note_off,1751,0,0,,10,,,33,127
159744,end_of_track,1441,1,0,,,,,,
