tick,type,time,meta,track,program,channel,pitch,tempo,note,velocity
0,copyright,0,1,0,,,,,,
0,program_change,0,0,0,6,0,,,,
0,pitchwheel,0,0,0,,0,0,,,
0,program_change,0,0,0,6,1,,,,
0,pitchwheel,0,0,0,,1,-590,,,
0,program_change,0,0,0,6,2,,,,
0,pitchwheel,0,0,0,,2,-272,,,
0,program_change,0,0,0,6,3,,,,
0,pitchwheel,0,0,0,,3,-353,,,
0,program_change,0,0,0,6,4,,,,
0,pitchwheel,0,0,0,,4,-560,,,
0,program_change,0,0,0,6,5,,,,
0,pitchwheel,0,0,0,,5,-80,,,
0,program_change,0,0,0,6,6,,,,
0,pitchwheel,0,0,0,,6,-625,,,
0,program_change,0,0,0,6,7,,,,
0,pitchwheel,0,0,0,,7,-130,,,
0,program_change,0,0,0,6,8,,,,
0,pitchwheel,0,0,0,,8,-512,,,
0,program_change,0,0,0,6,10,,,,
0,pitchwheel,0,0,0,,10,-464,,,
0,program_change,0,0,0,6,11,,,,
0,pitchwheel,0,0,0,,11,-208,,,
0,program_change,0,0,0,6,12,,,,
0,pitchwheel,0,0,0,,12,-553,,,
0,set_tempo,0,1,0,,,,500000,,
30,note_on,30,0,0,,10,,,57,127
146,note_off,116,0,0,,10,,,57,127
148,note_on,2,0,0,,10,,,57,127
264,note_off,116,0,0,,10,,,57,127
266,note_on,2,0,0,,8,,,56,127
382,note_off,116,0,0,,8,,,56,127
384,note_on,2,0,0,,1,,,61,127
500,note_off,116,0,0,,1,,,61,127
502,note_on,2,0,0,,1,,,61,127
618,note_off,116,0,0,,1,,,61,127
620,note_on,2,0,0,,12,,,59,127
736,note_off,116,0,0,,12,,,59,127
738,note_on,2,0,0,,4,,,64,127
854,note_off,116,0,0,,4,,,64,127
856,note_on,2,0,0,,4,,,64,127
972,note_off,116,0,0,,4,,,64,127
974,note_on,2,0,0,,2,,,62,127
1090,note_off,116,0,0,,2,,,62,127
1092,note_on,2,0,0,,1,,,61,127
1092,note_on,0,0,0,,10,,,69,127
1208,note_off,116,0,0,,10,,,69,127
1210,note_on,2,0,0,,10,,,69,127
1326,note_off,116,0,0,,10,,,69,127
1326,note_off,0,0,0,,1,,,61,127
1328,note_on,2,0,0,,12,,,59,127
1328,note_on,0,0,0,,8,,,68,127
1444,note_off,116,0,0,,8,,,68,127
1444,note_off,0,0,0,,12,,,59,127
1446,note_on,2,0,0,,10,,,57,127
1446,note_on,0,0,0,,1,,,73,127
1562,note_off,116,0,0,,1,,,73,127
1564,note_on,2,0,0,,1,,,73,127
1680,note_off,116,0,0,,1,,,73,127
1682,note_on,2,0,0,,12,,,71,127
1798,note_off,116,0,0,,12,,,71,127
1798,note_off,0,0,0,,10,,,57,127
1800,note_on,2,0,0,,8,,,56,127
1800,note_on,0,0,0,,4,,,76,127
1916,note_off,116,0,0,,4,,,76,127
1918,note_on,2,0,0,,4,,,76,127
2034,note_off,116,0,0,,4,,,76,127
2034,note_off,0,0,0,,8,,,56,127
2036,note_on,2,0,0,,4,,,52,127
2036,note_on,0,0,0,,2,,,74,127
2152,note_off,116,0,0,,2,,,74,127
2152,note_off,0,0,0,,4,,,52,127
2154,note_on,2,0,0,,10,,,45,127
2154,note_on,0,0,0,,1,,,73,127
2270,note_off,116,0,0,,10,,,45,127
2272,note_on,2,0,0,,10,,,57,127
2388,note_off,116,0,0,,10,,,57,127
2390,note_on,2,0,0,,8,,,56,127
2506,note_off,116,0,0,,8,,,56,127
2506,note_off,0,0,0,,1,,,73,127
2508,note_on,2,0,0,,6,,,54,127
2508,note_on,0,0,0,,2,,,74,127
2624,note_off,116,0,0,,6,,,54,127
2626,note_on,2,0,0,,6,,,54,127
2742,note_off,116,0,0,,6,,,54,127
2742,note_off,0,0,0,,2,,,74,127
2744,note_on,2,0,0,,4,,,52,127
2744,note_on,0,0,0,,4,,,76,127
2860,note_off,116,0,0,,4,,,76,127
2860,note_off,0,0,0,,4,,,52,127
2862,note_on,2,0,0,,2,,,50,127
2862,note_on,0,0,0,,6,,,78,127
2978,note_off,116,0,0,,2,,,50,127
2980,note_on,2,0,0,,2,,,62,127
3096,note_off,116,0,0,,2,,,62,127
3096,note_off,0,0,0,,6,,,78,127
3098,note_on,2,0,0,,1,,,61,127
3098,note_on,0,0,0,,6,,,66,127
3214,note_off,116,0,0,,6,,,66,127
3214,note_off,0,0,0,,1,,,61,127
3216,note_on,2,0,0,,12,,,59,127
3216,note_on,0,0,0,,8,,,68,127
3332,note_off,116,0,0,,12,,,59,127
3334,note_on,2,0,0,,12,,,59,127
3450,note_off,116,0,0,,12,,,59,127
3450,note_off,0,0,0,,8,,,68,127
3452,note_on,2,0,0,,10,,,57,127
3452,note_on,0,0,0,,10,,,69,127
3568,note_off,116,0,0,,10,,,69,127
3568,note_off,0,0,0,,10,,,57,127
3570,note_on,2,0,0,,8,,,56,127
3570,note_on,0,0,0,,12,,,71,127
3686,note_off,116,0,0,,8,,,56,127
3688,note_on,2,0,0,,8,,,56,127
3804,note_off,116,0,0,,8,,,56,127
3806,note_on,2,0,0,,6,,,54,127
3922,note_off,116,0,0,,6,,,54,127
3922,note_off,0,0,0,,12,,,71,127
3924,note_on,2,0,0,,4,,,52,127
3924,note_on,0,0,0,,1,,,73,127
4040,note_off,116,0,0,,4,,,52,127
4042,note_on,2,0,0,,4,,,52,127
4158,note_off,116,0,0,,4,,,52,127
4158,note_off,0,0,0,,1,,,73,127
4160,note_on,2,0,0,,2,,,50,127
4160,note_on,0,0,0,,2,,,74,127
4276,note_off,116,0,0,,2,,,74,127
4276,note_off,0,0,0,,2,,,50,127
4278,note_on,2,0,0,,1,,,49,127
4278,note_on,0,0,0,,4,,,76,127
4394,note_off,116,0,0,,1,,,49,127
4396,note_on,2,0,0,,1,,,61,127
4512,note_off,116,0,0,,1,,,61,127
4512,note_off,0,0,0,,4,,,76,127
4514,note_on,2,0,0,,12,,,59,127
4514,note_on,0,0,0,,4,,,64,127
4630,note_off,116,0,0,,4,,,64,127
4630,note_off,0,0,0,,12,,,59,127
4632,note_on,2,0,0,,10,,,57,127
4632,note_on,0,0,0,,6,,,66,127
4748,note_off,116,0,0,,10,,,57,127
4750,note_on,2,0,0,,10,,,57,127
4866,note_off,116,0,0,,10,,,57,127
4866,note_off,0,0,0,,6,,,66,127
4868,note_on,2,0,0,,8,,,56,127
4868,note_on,0,0,0,,8,,,68,127
4984,note_off,116,0,0,,8,,,68,127
4984,note_off,0,0,0,,8,,,56,127
4986,note_on,2,0,0,,6,,,54,127
4986,note_on,0,0,0,,10,,,69,127
5102,note_off,116,0,0,,6,,,54,127
5104,note_on,2,0,0,,6,,,54,127
5220,note_off,116,0,0,,6,,,54,127
5222,note_on,2,0,0,,4,,,52,127
5338,note_off,116,0,0,,4,,,52,127
5338,note_off,0,0,0,,10,,,69,127
5340,note_on,2,0,0,,2,,,50,127
5340,note_on,0,0,0,,12,,,71,127
5456,note_off,116,0,0,,2,,,50,127
5458,note_on,2,0,0,,2,,,50,127
5574,note_off,116,0,0,,2,,,50,127
5574,note_off,0,0,0,,12,,,71,127
5576,note_on,2,0,0,,1,,,49,127
5576,note_on,0,0,0,,1,,,73,127
5692,note_off,116,0,0,,1,,,73,127
5692,note_off,0,0,0,,1,,,49,127
5694,note_on,2,0,0,,12,,,47,127
5694,note_on,0,0,0,,2,,,74,127
5810,note_off,116,0,0,,12,,,47,127
5812,note_on,2,0,0,,12,,,59,127
5928,note_off,116,0,0,,12,,,59,127
5928,note_off,0,0,0,,2,,,74,127
5930,note_on,2,0,0,,10,,,57,127
5930,note_on,0,0,0,,2,,,62,127
6046,note_off,116,0,0,,2,,,62,127
6046,note_off,0,0,0,,10,,,57,127
6048,note_on,2,0,0,,8,,,56,127
6048,note_on,0,0,0,,4,,,64,127
6164,note_off,116,0,0,,8,,,56,127
6166,note_on,2,0,0,,8,,,56,127
6282,note_off,116,0,0,,8,,,56,127
6282,note_off,0,0,0,,4,,,64,127
6284,note_on,2,0,0,,6,,,54,127
6284,note_on,0,0,0,,6,,,66,127
6400,note_off,116,0,0,,6,,,66,127
6400,note_off,0,0,0,,6,,,54,127
6402,note_on,2,0,0,,4,,,52,127
6402,note_on,0,0,0,,8,,,68,127
6518,note_off,116,0,0,,4,,,52,127
6520,note_on,2,0,0,,4,,,52,127
6636,note_off,116,0,0,,4,,,52,127
6638,note_on,2,0,0,,2,,,50,127
6754,note_off,116,0,0,,2,,,50,127
6754,note_off,0,0,0,,8,,,68,127
6756,note_on,2,0,0,,1,,,49,127
6756,note_on,0,0,0,,10,,,69,127
6872,note_off,116,0,0,,1,,,49,127
6874,note_on,2,0,0,,1,,,49,127
6990,note_off,116,0,0,,1,,,49,127
6990,note_off,0,0,0,,10,,,69,127
6992,note_on,2,0,0,,12,,,47,127
6992,note_on,0,0,0,,12,,,71,127
7108,note_off,116,0,0,,12,,,71,127
7108,note_off,0,0,0,,12,,,47,127
7110,note_on,2,0,0,,10,,,45,127
7110,note_on,0,0,0,,1,,,73,127
7226,note_off,116,0,0,,1,,,73,127
7226,note_off,0,0,0,,10,,,45,127
7228,note_on,2,0,0,,10,,,57,127
7228,note_on,0,0,0,,1,,,73,127
7344,note_off,116,0,0,,1,,,73,127
7344,note_off,0,0,0,,10,,,57,127
7346,note_on,2,0,0,,12,,,59,127
7346,note_on,0,0,0,,12,,,71,127
7462,note_off,116,0,0,,12,,,71,127
7462,note_off,0,0,0,,12,,,59,127
7464,note_on,2,0,0,,1,,,61,127
7464,note_on,0,0,0,,10,,,69,127
7580,note_off,116,0,0,,10,,,69,127
7582,note_on,2,0,0,,8,,,68,127
7698,note_off,116,0,0,,8,,,68,127
7698,note_off,0,0,0,,1,,,61,127
7700,note_on,2,0,0,,3,,,63,127
7700,note_on,0,0,0,,6,,,66,127
7816,note_off,116,0,0,,6,,,66,127
7816,note_off,0,0,0,,3,,,63,127
7818,note_on,2,0,0,,4,,,52,127
7818,note_on,0,0,0,,8,,,68,127
7934,note_off,116,0,0,,4,,,52,127
7936,note_on,2,0,0,,4,,,64,127
8052,note_off,116,0,0,,4,,,64,127
8054,note_on,2,0,0,,3,,,63,127
8170,note_off,116,0,0,,3,,,63,127
8170,note_off,0,0,0,,8,,,68,127
8172,note_on,2,0,0,,1,,,61,127
8172,note_on,0,0,0,,10,,,69,127
8288,note_off,116,0,0,,1,,,61,127
8290,note_on,2,0,0,,1,,,61,127
8406,note_off,116,0,0,,1,,,61,127
8406,note_off,0,0,0,,10,,,69,127
8408,note_on,2,0,0,,12,,,59,127
8408,note_on,0,0,0,,12,,,71,127
8524,note_off,116,0,0,,12,,,71,127
8524,note_off,0,0,0,,12,,,59,127
8526,note_on,2,0,0,,10,,,57,127
8526,note_on,0,0,0,,1,,,73,127
8642,note_off,116,0,0,,10,,,57,127
8644,note_on,2,0,0,,10,,,57,127
8760,note_off,116,0,0,,10,,,57,127
8760,note_off,0,0,0,,1,,,73,127
8762,note_on,2,0,0,,8,,,56,127
8762,note_on,0,0,0,,1,,,73,127
8878,note_off,116,0,0,,1,,,73,127
8878,note_off,0,0,0,,8,,,56,127
8880,note_on,2,0,0,,6,,,54,127
8880,note_on,0,0,0,,3,,,75,127
8996,note_off,116,0,0,,6,,,54,127
8998,note_on,2,0,0,,6,,,54,127
9114,note_off,116,0,0,,6,,,54,127
9114,note_off,0,0,0,,3,,,75,127
9116,note_on,2,0,0,,4,,,52,127
9116,note_on,0,0,0,,4,,,76,127
9232,note_off,116,0,0,,4,,,76,127
9232,note_off,0,0,0,,4,,,52,127
9234,note_on,2,0,0,,3,,,51,127
9234,note_on,0,0,0,,6,,,78,127
9350,note_off,116,0,0,,3,,,51,127
9352,note_on,2,0,0,,3,,,63,127
9468,note_off,116,0,0,,3,,,63,127
9468,note_off,0,0,0,,6,,,78,127
9470,note_on,2,0,0,,1,,,61,127
9470,note_on,0,0,0,,6,,,66,127
9586,note_off,116,0,0,,6,,,66,127
9586,note_off,0,0,0,,1,,,61,127
9588,note_on,2,0,0,,12,,,59,127
9588,note_on,0,0,0,,8,,,68,127
9704,note_off,116,0,0,,12,,,59,127
9706,note_on,2,0,0,,12,,,59,127
9822,note_off,116,0,0,,12,,,59,127
9822,note_off,0,0,0,,8,,,68,127
9824,note_on,2,0,0,,10,,,57,127
9824,note_on,0,0,0,,10,,,69,127
9940,note_off,116,0,0,,10,,,69,127
9940,note_off,0,0,0,,10,,,57,127
9942,note_on,2,0,0,,8,,,56,127
9942,note_on,0,0,0,,12,,,71,127
10058,note_off,116,0,0,,8,,,56,127
10060,note_on,2,0,0,,8,,,56,127
10176,note_off,116,0,0,,8,,,56,127
10178,note_on,2,0,0,,6,,,54,127
10294,note_off,116,0,0,,6,,,54,127
10294,note_off,0,0,0,,12,,,71,127
10296,note_on,2,0,0,,4,,,52,127
10296,note_on,0,0,0,,1,,,73,127
10412,note_off,116,0,0,,4,,,52,127
10414,note_on,2,0,0,,4,,,52,127
10530,note_off,116,0,0,,4,,,52,127
10530,note_off,0,0,0,,1,,,73,127
10532,note_on,2,0,0,,3,,,51,127
10532,note_on,0,0,0,,3,,,75,127
10648,note_off,116,0,0,,3,,,75,127
10648,note_off,0,0,0,,3,,,51,127
10650,note_on,2,0,0,,1,,,49,127
10650,note_on,0,0,0,,4,,,76,127
10766,note_off,116,0,0,,1,,,49,127
10768,note_on,2,0,0,,1,,,61,127
10884,note_off,116,0,0,,1,,,61,127
10884,note_off,0,0,0,,4,,,76,127
10886,note_on,2,0,0,,12,,,59,127
10886,note_on,0,0,0,,4,,,64,127
11002,note_off,116,0,0,,4,,,64,127
11002,note_off,0,0,0,,12,,,59,127
11004,note_on,2,0,0,,10,,,57,127
11004,note_on,0,0,0,,6,,,66,127
11120,note_off,116,0,0,,10,,,57,127
11122,note_on,2,0,0,,10,,,57,127
11238,note_off,116,0,0,,10,,,57,127
11238,note_off,0,0,0,,6,,,66,127
11240,note_on,2,0,0,,8,,,56,127
11240,note_on,0,0,0,,8,,,68,127
11356,note_off,116,0,0,,8,,,68,127
11356,note_off,0,0,0,,8,,,56,127
11358,note_on,2,0,0,,6,,,54,127
11358,note_on,0,0,0,,10,,,69,127
11474,note_off,116,0,0,,6,,,54,127
11476,note_on,2,0,0,,6,,,54,127
11592,note_off,116,0,0,,6,,,54,127
11594,note_on,2,0,0,,4,,,52,127
11710,note_off,116,0,0,,4,,,52,127
11710,note_off,0,0,0,,10,,,69,127
11712,note_on,2,0,0,,3,,,51,127
11712,note_on,0,0,0,,12,,,71,127
11828,note_off,116,0,0,,3,,,51,127
11830,note_on,2,0,0,,3,,,51,127
11946,note_off,116,0,0,,3,,,51,127
11946,note_off,0,0,0,,12,,,71,127
11948,note_on,2,0,0,,1,,,49,127
11948,note_on,0,0,0,,1,,,73,127
12064,note_off,116,0,0,,1,,,73,127
12064,note_off,0,0,0,,1,,,49,127
12066,note_on,2,0,0,,12,,,47,127
12066,note_on,0,0,0,,3,,,75,127
12182,note_off,116,0,0,,3,,,75,127
12184,note_on,2,0,0,,3,,,75,127
12300,note_off,116,0,0,,3,,,75,127
12302,note_on,2,0,0,,1,,,73,127
12418,note_off,116,0,0,,1,,,73,127
12418,note_off,0,0,0,,12,,,47,127
12420,note_on,2,0,0,,12,,,59,127
12420,note_on,0,0,0,,12,,,71,127
12536,note_off,116,0,0,,12,,,71,127
12538,note_on,2,0,0,,10,,,69,127
12654,note_off,116,0,0,,10,,,69,127
12656,note_on,2,0,0,,8,,,68,127
12772,note_off,116,0,0,,8,,,68,127
12772,note_off,0,0,0,,12,,,59,127
12774,note_on,2,0,0,,1,,,49,127
12774,note_on,0,0,0,,10,,,69,127
12890,note_off,116,0,0,,10,,,69,127
12892,note_on,2,0,0,,1,,,73,127
13008,note_off,116,0,0,,1,,,73,127
13010,note_on,2,0,0,,10,,,69,127
13126,note_off,116,0,0,,10,,,69,127
13126,note_off,0,0,0,,1,,,49,127
13128,note_on,2,0,0,,3,,,51,127
13128,note_on,0,0,0,,10,,,69,127
13244,note_off,116,0,0,,10,,,69,127
13246,note_on,2,0,0,,8,,,68,127
13362,note_off,116,0,0,,8,,,68,127
13364,note_on,2,0,0,,6,,,66,127
13480,note_off,116,0,0,,6,,,66,127
13480,note_off,0,0,0,,3,,,51,127
13482,note_on,2,0,0,,4,,,52,127
13482,note_on,0,0,0,,8,,,68,127
13598,note_off,116,0,0,,8,,,68,127
13600,note_on,2,0,0,,12,,,71,127
13716,note_off,116,0,0,,12,,,71,127
13718,note_on,2,0,0,,8,,,68,127
13834,note_off,116,0,0,,8,,,68,127
13834,note_off,0,0,0,,4,,,52,127
13836,note_on,2,0,0,,8,,,56,127
13836,note_on,0,0,0,,8,,,68,127
13952,note_off,116,0,0,,8,,,68,127
13954,note_on,2,0,0,,6,,,66,127
14070,note_off,116,0,0,,6,,,66,127
14072,note_on,2,0,0,,4,,,64,127
14188,note_off,116,0,0,,4,,,64,127
14188,note_off,0,0,0,,8,,,56,127
14190,note_on,2,0,0,,10,,,57,127
14190,note_on,0,0,0,,6,,,66,127
14306,note_off,116,0,0,,6,,,66,127
14308,note_on,2,0,0,,10,,,69,127
14424,note_off,116,0,0,,10,,,69,127
14426,note_on,2,0,0,,8,,,68,127
14542,note_off,116,0,0,,8,,,68,127
14544,note_on,2,0,0,,10,,,45,127
14544,note_on,0,0,0,,8,,,68,127
14660,note_off,116,0,0,,8,,,68,127
14662,note_on,2,0,0,,6,,,66,127
14778,note_off,116,0,0,,6,,,66,127
14780,note_on,2,0,0,,4,,,64,127
14896,note_off,116,0,0,,4,,,64,127
14896,note_off,0,0,0,,10,,,45,127
14897,note_off,1,0,0,,10,,,57,127
14913,note_on,16,0,0,,3,,,63,127
14913,note_on,0,0,0,,12,,,71,127
14913,note_on,0,0,0,,12,,,47,127
15029,note_off,116,0,0,,12,,,71,127
15031,note_on,2,0,0,,12,,,71,127
15147,note_off,116,0,0,,12,,,71,127
15149,note_on,2,0,0,,10,,,69,127
15265,note_off,116,0,0,,10,,,69,127
15266,note_off,1,0,0,,3,,,63,127
15267,note_on,1,0,0,,8,,,68,127
15267,note_on,0,0,0,,12,,,59,127
15383,note_off,116,0,0,,8,,,68,127
15385,note_on,2,0,0,,8,,,68,127
15501,note_off,116,0,0,,8,,,68,127
15503,note_on,2,0,0,,6,,,66,127
15619,note_off,116,0,0,,6,,,66,127
15619,note_off,0,0,0,,12,,,59,127
15620,note_off,1,0,0,,12,,,47,127
15621,note_on,1,0,0,,1,,,73,127
15621,note_on,0,0,0,,5,,,65,127
15621,note_on,0,0,0,,1,,,49,127
15737,note_off,116,0,0,,1,,,73,127
15739,note_on,2,0,0,,1,,,73,127
15855,note_off,116,0,0,,1,,,73,127
15857,note_on,2,0,0,,12,,,71,127
15973,note_off,116,0,0,,12,,,71,127
15974,note_off,1,0,0,,5,,,65,127
15975,note_on,1,0,0,,11,,,70,127
15975,note_on,0,0,0,,1,,,61,127
16091,note_off,116,0,0,,11,,,70,127
16093,note_on,2,0,0,,11,,,70,127
16209,note_off,116,0,0,,11,,,70,127
16211,note_on,2,0,0,,8,,,68,127
16327,note_off,116,0,0,,8,,,68,127
16327,note_off,0,0,0,,1,,,61,127
16328,note_off,1,0,0,,1,,,49,127
16329,note_on,1,0,0,,7,,,67,127
16329,note_on,0,0,0,,3,,,75,127
16329,note_on,0,0,0,,3,,,51,127
16445,note_off,116,0,0,,3,,,75,127
16447,note_on,2,0,0,,3,,,75,127
16563,note_off,116,0,0,,3,,,75,127
16565,note_on,2,0,0,,1,,,73,127
16681,note_off,116,0,0,,1,,,73,127
16682,note_off,1,0,0,,7,,,67,127
16683,note_on,1,0,0,,12,,,71,127
16683,note_on,0,0,0,,3,,,63,127
16799,note_off,116,0,0,,12,,,71,127
16801,note_on,2,0,0,,12,,,71,127
16917,note_off,116,0,0,,12,,,71,127
16919,note_on,2,0,0,,11,,,70,127
17035,note_off,116,0,0,,11,,,70,127
17035,note_off,0,0,0,,3,,,63,127
17036,note_off,1,0,0,,3,,,51,127
17037,note_on,1,0,0,,8,,,68,127
17037,note_on,0,0,0,,4,,,76,127
17037,note_on,0,0,0,,4,,,52,127
17153,note_off,116,0,0,,4,,,76,127
17155,note_on,2,0,0,,4,,,76,127
17271,note_off,116,0,0,,4,,,76,127
17273,note_on,2,0,0,,3,,,75,127
17389,note_off,116,0,0,,3,,,75,127
17390,note_off,1,0,0,,8,,,68,127
17391,note_on,1,0,0,,1,,,73,127
17391,note_on,0,0,0,,4,,,64,127
17507,note_off,116,0,0,,1,,,73,127
17509,note_on,2,0,0,,1,,,73,127
17625,note_off,116,0,0,,1,,,73,127
17627,note_on,2,0,0,,12,,,71,127
17743,note_off,116,0,0,,12,,,71,127
17743,note_off,0,0,0,,4,,,64,127
17744,note_off,1,0,0,,4,,,52,127
17745,note_on,1,0,0,,6,,,78,127
17745,note_on,0,0,0,,11,,,70,127
17745,note_on,0,0,0,,6,,,54,127
17861,note_off,116,0,0,,6,,,78,127
17863,note_on,2,0,0,,6,,,78,127
17979,note_off,116,0,0,,6,,,78,127
17981,note_on,2,0,0,,4,,,76,127
18097,note_off,116,0,0,,4,,,76,127
18098,note_off,1,0,0,,11,,,70,127
18099,note_on,1,0,0,,3,,,75,127
18099,note_on,0,0,0,,6,,,66,127
18215,note_off,116,0,0,,3,,,75,127
18217,note_on,2,0,0,,3,,,75,127
18333,note_off,116,0,0,,3,,,75,127
18335,note_on,2,0,0,,1,,,73,127
18451,note_off,116,0,0,,1,,,73,127
18451,note_off,0,0,0,,6,,,66,127
18452,note_off,1,0,0,,6,,,54,127
18453,note_on,1,0,0,,8,,,80,127
18453,note_on,0,0,0,,0,,,72,127
18453,note_on,0,0,0,,8,,,56,127
18569,note_off,116,0,0,,8,,,80,127
18571,note_on,2,0,0,,8,,,80,127
18687,note_off,116,0,0,,8,,,80,127
18689,note_on,2,0,0,,6,,,78,127
18805,note_off,116,0,0,,6,,,78,127
18806,note_off,1,0,0,,0,,,72,127
18807,note_on,1,0,0,,4,,,76,127
18807,note_on,0,0,0,,8,,,68,127
18923,note_off,116,0,0,,4,,,76,127
18925,note_on,2,0,0,,4,,,76,127
19041,note_off,116,0,0,,4,,,76,127
19043,note_on,2,0,0,,3,,,75,127
19159,note_off,116,0,0,,3,,,75,127
19159,note_off,0,0,0,,8,,,68,127
19160,note_off,1,0,0,,8,,,56,127
19161,note_on,1,0,0,,10,,,81,127
19161,note_on,0,0,0,,1,,,73,127
19161,note_on,0,0,0,,10,,,57,127
19277,note_off,116,0,0,,10,,,81,127
19279,note_on,2,0,0,,10,,,81,127
19395,note_off,116,0,0,,10,,,81,127
19397,note_on,2,0,0,,8,,,80,127
19513,note_off,116,0,0,,8,,,80,127
19514,note_off,1,0,0,,1,,,73,127
19515,note_on,1,0,0,,6,,,78,127
19515,note_on,0,0,0,,10,,,69,127
19631,note_off,116,0,0,,6,,,78,127
19633,note_on,2,0,0,,6,,,78,127
19749,note_off,116,0,0,,6,,,78,127
19751,note_on,2,0,0,,4,,,76,127
19867,note_off,116,0,0,,4,,,76,127
19867,note_off,0,0,0,,10,,,69,127
19868,note_off,1,0,0,,10,,,57,127
19869,note_on,1,0,0,,3,,,75,127
19869,note_on,0,0,0,,12,,,59,127
19985,note_off,116,0,0,,12,,,59,127
19987,note_on,2,0,0,,12,,,71,127
20103,note_off,116,0,0,,12,,,71,127
20105,note_on,2,0,0,,10,,,69,127
20221,note_off,116,0,0,,10,,,69,127
20223,note_on,2,0,0,,8,,,68,127
20339,note_off,116,0,0,,8,,,68,127
20339,note_off,0,0,0,,3,,,75,127
20341,note_on,2,0,0,,12,,,83,127
20341,note_on,0,0,0,,8,,,68,127
20457,note_off,116,0,0,,8,,,68,127
20457,note_off,0,0,0,,12,,,83,127
20459,note_on,2,0,0,,10,,,81,127
20459,note_on,0,0,0,,6,,,66,127
20575,note_off,116,0,0,,6,,,66,127
20577,note_on,2,0,0,,4,,,64,127
20693,note_off,116,0,0,,4,,,64,127
20693,note_off,0,0,0,,10,,,81,127
20695,note_on,2,0,0,,8,,,80,127
20695,note_on,0,0,0,,4,,,64,127
20811,note_off,116,0,0,,4,,,64,127
20811,note_off,0,0,0,,8,,,80,127
20813,note_on,2,0,0,,6,,,78,127
20813,note_on,0,0,0,,3,,,63,127
20929,note_off,116,0,0,,3,,,63,127
20931,note_on,2,0,0,,1,,,61,127
21047,note_off,116,0,0,,1,,,61,127
21047,note_off,0,0,0,,6,,,78,127
21049,note_on,2,0,0,,4,,,76,127
21049,note_on,0,0,0,,1,,,61,127
21165,note_off,116,0,0,,1,,,61,127
21165,note_off,0,0,0,,4,,,76,127
21167,note_on,2,0,0,,3,,,75,127
21167,note_on,0,0,0,,12,,,59,127
21283,note_off,116,0,0,,12,,,59,127
21285,note_on,2,0,0,,10,,,57,127
21401,note_off,116,0,0,,10,,,57,127
21401,note_off,0,0,0,,3,,,75,127
21403,note_on,2,0,0,,1,,,73,127
21403,note_on,0,0,0,,10,,,57,127
21519,note_off,116,0,0,,10,,,57,127
21519,note_off,0,0,0,,1,,,73,127
21521,note_on,2,0,0,,12,,,71,127
21521,note_on,0,0,0,,8,,,56,127
21637,note_off,116,0,0,,8,,,56,127
21639,note_on,2,0,0,,6,,,54,127
21755,note_off,116,0,0,,6,,,54,127
21755,note_off,0,0,0,,12,,,71,127
21757,note_on,2,0,0,,10,,,69,127
21757,note_on,0,0,0,,6,,,54,127
21873,note_off,116,0,0,,6,,,54,127
21873,note_off,0,0,0,,10,,,69,127
21875,note_on,2,0,0,,8,,,68,127
21875,note_on,0,0,0,,4,,,52,127
21991,note_off,116,0,0,,4,,,52,127
21993,note_on,2,0,0,,3,,,51,127
22109,note_off,116,0,0,,3,,,51,127
22109,note_off,0,0,0,,8,,,68,127
22111,note_on,2,0,0,,6,,,66,127
22111,note_on,0,0,0,,3,,,51,127
22227,note_off,116,0,0,,3,,,51,127
22227,note_off,0,0,0,,6,,,66,127
22229,note_on,2,0,0,,4,,,64,127
22229,note_on,0,0,0,,1,,,49,127
22345,note_off,116,0,0,,1,,,49,127
22347,note_on,2,0,0,,12,,,47,127
22463,note_off,116,0,0,,12,,,47,127
22463,note_off,0,0,0,,4,,,64,127
22465,note_on,2,0,0,,3,,,63,127
22465,note_on,0,0,0,,12,,,47,127
22581,note_off,116,0,0,,12,,,47,127
22581,note_off,0,0,0,,3,,,63,127
22583,note_on,2,0,0,,1,,,61,127
22583,note_on,0,0,0,,10,,,45,127
22699,note_off,116,0,0,,10,,,45,127
22701,note_on,2,0,0,,8,,,44,127
22817,note_off,116,0,0,,8,,,44,127
22817,note_off,0,0,0,,1,,,61,127
22819,note_on,2,0,0,,12,,,59,127
22819,note_on,0,0,0,,8,,,44,127
22935,note_off,116,0,0,,8,,,44,127
22935,note_off,0,0,0,,12,,,59,127
22937,note_on,2,0,0,,3,,,63,127
22937,note_on,0,0,0,,6,,,42,127
23053,note_off,116,0,0,,6,,,42,127
23053,note_off,0,0,0,,3,,,63,127
23055,note_on,2,0,0,,4,,,64,127
23055,note_on,0,0,0,,4,,,40,127
23171,note_off,116,0,0,,4,,,64,127
23173,note_on,2,0,0,,6,,,66,127
23289,note_off,116,0,0,,6,,,66,127
23291,note_on,2,0,0,,8,,,68,127
23407,note_off,116,0,0,,8,,,68,127
23407,note_off,0,0,0,,4,,,40,127
23409,note_on,2,0,0,,1,,,61,127
23409,note_on,0,0,0,,10,,,45,127
23525,note_off,116,0,0,,1,,,61,127
23527,note_on,2,0,0,,10,,,69,127
23643,note_off,116,0,0,,10,,,69,127
23645,note_on,2,0,0,,8,,,68,127
23761,note_off,116,0,0,,8,,,68,127
23761,note_off,0,0,0,,10,,,45,127
23763,note_on,2,0,0,,6,,,66,127
23763,note_on,0,0,0,,12,,,47,127
23879,note_off,116,0,0,,6,,,66,127
23881,note_on,2,0,0,,4,,,64,127
23997,note_off,116,0,0,,4,,,64,127
23999,note_on,2,0,0,,3,,,63,127
24115,note_off,116,0,0,,3,,,63,127
24116,note_off,1,0,0,,12,,,47,127
24132,note_on,16,0,0,,4,,,64,127
24248,note_off,116,0,0,,4,,,64,127
24250,note_on,2,0,0,,4,,,64,127
24366,note_off,116,0,0,,4,,,64,127
24368,note_on,2,0,0,,3,,,63,127
24484,note_off,116,0,0,,3,,,63,127
24486,note_on,2,0,0,,1,,,61,127
24602,note_off,116,0,0,,1,,,61,127
24604,note_on,2,0,0,,1,,,61,127
24604,note_on,0,0,0,,4,,,76,127
24720,note_off,116,0,0,,4,,,76,127
24720,note_off,0,0,0,,1,,,61,127
24722,note_on,2,0,0,,12,,,59,127
24722,note_on,0,0,0,,3,,,75,127
24838,note_off,116,0,0,,3,,,75,127
24838,note_off,0,0,0,,12,,,59,127
24840,note_on,2,0,0,,10,,,57,127
24840,note_on,0,0,0,,1,,,73,127
24956,note_off,116,0,0,,10,,,57,127
24958,note_on,2,0,0,,10,,,57,127
25074,note_off,116,0,0,,10,,,57,127
25076,note_on,2,0,0,,8,,,56,127
25192,note_off,116,0,0,,8,,,56,127
25194,note_on,2,0,0,,6,,,54,127
25310,note_off,116,0,0,,6,,,54,127
25310,note_off,0,0,0,,1,,,73,127
25312,note_on,2,0,0,,6,,,54,127
25312,note_on,0,0,0,,10,,,81,127
25428,note_off,116,0,0,,10,,,81,127
25428,note_off,0,0,0,,6,,,54,127
25430,note_on,2,0,0,,4,,,52,127
25430,note_on,0,0,0,,8,,,80,127
25546,note_off,116,0,0,,8,,,80,127
25546,note_off,0,0,0,,4,,,52,127
25548,note_on,2,0,0,,3,,,51,127
25548,note_on,0,0,0,,6,,,78,127
25664,note_off,116,0,0,,3,,,51,127
25666,note_on,2,0,0,,3,,,51,127
25782,note_off,116,0,0,,3,,,51,127
25784,note_on,2,0,0,,1,,,49,127
25900,note_off,116,0,0,,1,,,49,127
25902,note_on,2,0,0,,12,,,47,127
26018,note_off,116,0,0,,12,,,47,127
26018,note_off,0,0,0,,6,,,78,127
26020,note_on,2,0,0,,12,,,47,127
26020,note_on,0,0,0,,12,,,83,127
26136,note_off,116,0,0,,12,,,47,127
26138,note_on,2,0,0,,10,,,45,127
26254,note_off,116,0,0,,10,,,45,127
26256,note_on,2,0,0,,8,,,44,127
26372,note_off,116,0,0,,8,,,44,127
26372,note_off,0,0,0,,12,,,83,127
26374,note_on,2,0,0,,8,,,44,127
26374,note_on,0,0,0,,12,,,83,127
26490,note_off,116,0,0,,12,,,83,127
26490,note_off,0,0,0,,8,,,44,127
26492,note_on,2,0,0,,6,,,42,127
26492,note_on,0,0,0,,10,,,81,127
26608,note_off,116,0,0,,10,,,81,127
26608,note_off,0,0,0,,6,,,42,127
26610,note_on,2,0,0,,4,,,40,127
26610,note_on,0,0,0,,8,,,80,127
26726,note_off,116,0,0,,8,,,80,127
26728,note_on,2,0,0,,10,,,81,127
26844,note_off,116,0,0,,10,,,81,127
26846,note_on,2,0,0,,12,,,83,127
26962,note_off,116,0,0,,12,,,83,127
26962,note_off,0,0,0,,4,,,40,127
26964,note_on,2,0,0,,10,,,45,127
26964,note_on,0,0,0,,1,,,73,127
27080,note_off,116,0,0,,1,,,73,127
27082,note_on,2,0,0,,10,,,81,127
27198,note_off,116,0,0,,10,,,81,127
27200,note_on,2,0,0,,8,,,80,127
27316,note_off,116,0,0,,8,,,80,127
27316,note_off,0,0,0,,10,,,45,127
27318,note_on,2,0,0,,12,,,47,127
27318,note_on,0,0,0,,6,,,78,127
27434,note_off,116,0,0,,6,,,78,127
27436,note_on,2,0,0,,4,,,76,127
27552,note_off,116,0,0,,4,,,76,127
27554,note_on,2,0,0,,3,,,75,127
27670,note_off,116,0,0,,3,,,75,127
27670,note_off,0,0,0,,12,,,47,127
27672,note_on,2,0,0,,4,,,52,127
27672,note_on,0,0,0,,4,,,76,127
27788,note_off,116,0,0,,4,,,76,127
27790,note_on,2,0,0,,8,,,80,127
27906,note_off,116,0,0,,8,,,80,127
27908,note_on,2,0,0,,8,,,80,127
28024,note_off,116,0,0,,8,,,80,127
28024,note_off,0,0,0,,4,,,52,127
28026,note_on,2,0,0,,12,,,59,127
28026,note_on,0,0,0,,10,,,69,127
28026,note_on,0,0,0,,10,,,81,127
28142,note_off,116,0,0,,10,,,81,127
28144,note_on,2,0,0,,6,,,78,127
28260,note_off,116,0,0,,6,,,78,127
28262,note_on,2,0,0,,6,,,78,127
28378,note_off,116,0,0,,6,,,78,127
28378,note_off,0,0,0,,12,,,59,127
28379,note_off,1,0,0,,10,,,69,127
28380,note_on,1,0,0,,4,,,52,127
28380,note_on,0,0,0,,8,,,68,127
28380,note_on,0,0,0,,8,,,80,127
28496,note_off,116,0,0,,8,,,80,127
28498,note_on,2,0,0,,4,,,76,127
28614,note_off,116,0,0,,4,,,76,127
28616,note_on,2,0,0,,4,,,76,127
28732,note_off,116,0,0,,4,,,76,127
28732,note_off,0,0,0,,4,,,52,127
28733,note_off,1,0,0,,8,,,68,127
28734,note_on,1,0,0,,12,,,47,127
28734,note_on,0,0,0,,6,,,66,127
28734,note_on,0,0,0,,6,,,78,127
28850,note_off,116,0,0,,6,,,78,127
28852,note_on,2,0,0,,3,,,75,127
28968,note_off,116,0,0,,3,,,75,127
28970,note_on,2,0,0,,3,,,75,127
29086,note_off,116,0,0,,3,,,75,127
29086,note_off,0,0,0,,12,,,47,127
29087,note_off,1,0,0,,6,,,66,127
29088,note_on,1,0,0,,4,,,40,127
29088,note_on,0,0,0,,4,,,76,127
29088,note_on,0,0,0,,4,,,64,127
29204,note_off,116,0,0,,4,,,76,127
29206,note_on,2,0,0,,12,,,71,127
29322,note_off,116,0,0,,12,,,71,127
29324,note_on,2,0,0,,12,,,71,127
29440,note_off,116,0,0,,12,,,71,127
29440,note_off,0,0,0,,4,,,40,127
29441,note_off,1,0,0,,4,,,64,127
29442,note_on,1,0,0,,12,,,47,127
29442,note_on,0,0,0,,1,,,73,127
29442,note_on,0,0,0,,3,,,63,127
29558,note_off,116,0,0,,1,,,73,127
29560,note_on,2,0,0,,10,,,69,127
29676,note_off,116,0,0,,10,,,69,127
29678,note_on,2,0,0,,10,,,69,127
29794,note_off,116,0,0,,10,,,69,127
29794,note_off,0,0,0,,12,,,47,127
29795,note_off,1,0,0,,3,,,63,127
29796,note_on,1,0,0,,4,,,52,127
29796,note_on,0,0,0,,4,,,64,127
29796,note_on,0,0,0,,12,,,71,127
29912,note_off,116,0,0,,12,,,71,127
29914,note_on,2,0,0,,8,,,68,127
30030,note_off,116,0,0,,8,,,68,127
30032,note_on,2,0,0,,8,,,68,127
30148,note_off,116,0,0,,8,,,68,127
30148,note_off,0,0,0,,4,,,52,127
30149,note_off,1,0,0,,4,,,64,127
30150,note_on,1,0,0,,12,,,47,127
30150,note_on,0,0,0,,12,,,59,127
30150,note_on,0,0,0,,10,,,69,127
30266,note_off,116,0,0,,10,,,69,127
30268,note_on,2,0,0,,6,,,66,127
30384,note_off,116,0,0,,6,,,66,127
30386,note_on,2,0,0,,6,,,66,127
30502,note_off,116,0,0,,6,,,66,127
30502,note_off,0,0,0,,12,,,47,127
30503,note_off,1,0,0,,12,,,59,127
30504,note_on,1,0,0,,4,,,40,127
30504,note_on,0,0,0,,4,,,52,127
30504,note_on,0,0,0,,4,,,64,127
30504,note_on,0,0,0,,8,,,56,127
31211,note_off,707,0,0,,8,,,56,127
31211,note_off,0,0,0,,4,,,64,127
31212,note_off,1,0,0,,4,,,52,127
31212,note_off,0,0,0,,4,,,40,127
31213,note_on,1,0,0,,4,,,64,127
31329,note_off,116,0,0,,4,,,64,127
31331,note_on,2,0,0,,4,,,64,127
31447,note_off,116,0,0,,4,,,64,127
31449,note_on,2,0,0,,3,,,63,127
31565,note_off,116,0,0,,3,,,63,127
31567,note_on,2,0,0,,7,,,67,127
31683,note_off,116,0,0,,7,,,67,127
31685,note_on,2,0,0,,7,,,67,127
31801,note_off,116,0,0,,7,,,67,127
31803,note_on,2,0,0,,6,,,66,127
31919,note_off,116,0,0,,6,,,66,127
31921,note_on,2,0,0,,0,,,72,127
32037,note_off,116,0,0,,0,,,72,127
32039,note_on,2,0,0,,0,,,72,127
32155,note_off,116,0,0,,0,,,72,127
32157,note_on,2,0,0,,12,,,71,127
32273,note_off,116,0,0,,12,,,71,127
32275,note_on,2,0,0,,4,,,76,127
32391,note_off,116,0,0,,4,,,76,127
32393,note_on,2,0,0,,4,,,76,127
32509,note_off,116,0,0,,4,,,76,127
32511,note_on,2,0,0,,3,,,75,127
32627,note_off,116,0,0,,3,,,75,127
32629,note_on,2,0,0,,4,,,52,127
32629,note_on,0,0,0,,7,,,79,127
32745,note_off,116,0,0,,4,,,52,127
32747,note_on,2,0,0,,4,,,52,127
32863,note_off,116,0,0,,4,,,52,127
32865,note_on,2,0,0,,3,,,51,127
32981,note_off,116,0,0,,3,,,51,127
32983,note_on,2,0,0,,7,,,55,127
33099,note_off,116,0,0,,7,,,55,127
33101,note_on,2,0,0,,7,,,55,127
33217,note_off,116,0,0,,7,,,55,127
33219,note_on,2,0,0,,6,,,54,127
33335,note_off,116,0,0,,6,,,54,127
33336,note_off,1,0,0,,7,,,79,127
33337,note_on,1,0,0,,0,,,60,127
33453,note_off,116,0,0,,0,,,60,127
33455,note_on,2,0,0,,0,,,60,127
33571,note_off,116,0,0,,0,,,60,127
33573,note_on,2,0,0,,12,,,59,127
33689,note_off,116,0,0,,12,,,59,127
33691,note_on,2,0,0,,4,,,64,127
33807,note_off,116,0,0,,4,,,64,127
33809,note_on,2,0,0,,4,,,64,127
33925,note_off,116,0,0,,4,,,64,127
33927,note_on,2,0,0,,3,,,63,127
34043,note_off,116,0,0,,3,,,63,127
34045,note_on,2,0,0,,7,,,67,127
34161,note_off,116,0,0,,7,,,67,127
34163,note_on,2,0,0,,7,,,67,127
34279,note_off,116,0,0,,7,,,67,127
34281,note_on,2,0,0,,6,,,66,127
34397,note_off,116,0,0,,6,,,66,127
34399,note_on,2,0,0,,4,,,64,127
34399,note_on,0,0,0,,4,,,76,127
34515,note_off,116,0,0,,4,,,64,127
34517,note_on,2,0,0,,4,,,64,127
34633,note_off,116,0,0,,4,,,64,127
34635,note_on,2,0,0,,2,,,62,127
34751,note_off,116,0,0,,2,,,62,127
34751,note_off,0,0,0,,4,,,76,127
34753,note_on,2,0,0,,1,,,61,127
34753,note_on,0,0,0,,4,,,76,127
34869,note_off,116,0,0,,1,,,61,127
34871,note_on,2,0,0,,1,,,61,127
34987,note_off,116,0,0,,1,,,61,127
34989,note_on,2,0,0,,12,,,59,127
35105,note_off,116,0,0,,12,,,59,127
35105,note_off,0,0,0,,4,,,76,127
35107,note_on,2,0,0,,11,,,58,127
35107,note_on,0,0,0,,4,,,76,127
35223,note_off,116,0,0,,11,,,58,127
35225,note_on,2,0,0,,11,,,58,127
35341,note_off,116,0,0,,11,,,58,127
35343,note_on,2,0,0,,7,,,55,127
35459,note_off,116,0,0,,7,,,55,127
35461,note_on,2,0,0,,6,,,54,127
35577,note_off,116,0,0,,4,,,76,127
35579,note_on,2,0,0,,4,,,76,127
35695,note_off,116,0,0,,4,,,76,127
35697,note_on,2,0,0,,2,,,74,127
35813,note_off,116,0,0,,2,,,74,127
35813,note_off,0,0,0,,6,,,54,127
35815,note_on,2,0,0,,6,,,54,127
35815,note_on,0,0,0,,1,,,73,127
35931,note_off,116,0,0,,1,,,73,127
35933,note_on,2,0,0,,1,,,73,127
36049,note_off,116,0,0,,1,,,73,127
36051,note_on,2,0,0,,12,,,71,127
36167,note_off,116,0,0,,12,,,71,127
36167,note_off,0,0,0,,6,,,54,127
36169,note_on,2,0,0,,6,,,54,127
36169,note_on,0,0,0,,11,,,70,127
36285,note_off,116,0,0,,11,,,70,127
36287,note_on,2,0,0,,7,,,79,127
36403,note_off,116,0,0,,7,,,79,127
36405,note_on,2,0,0,,6,,,78,127
36521,note_off,116,0,0,,6,,,78,127
36521,note_off,0,0,0,,6,,,54,127
36523,note_on,2,0,0,,6,,,54,127
36523,note_on,0,0,0,,4,,,76,127
36639,note_off,116,0,0,,4,,,76,127
36641,note_on,2,0,0,,2,,,74,127
36757,note_off,116,0,0,,2,,,74,127
36759,note_on,2,0,0,,1,,,73,127
36875,note_off,116,0,0,,1,,,73,127
36876,note_off,1,0,0,,6,,,54,127
36877,note_on,1,0,0,,2,,,74,127
36995,note_on,118,0,0,,5,,,65,127
37111,note_off,116,0,0,,5,,,65,127
37113,note_on,2,0,0,,4,,,64,127
37229,note_off,116,0,0,,4,,,64,127
37229,note_off,0,0,0,,2,,,74,127
37231,note_on,2,0,0,,2,,,62,127
37231,note_on,0,0,0,,2,,,74,127
37347,note_off,116,0,0,,2,,,62,127
37349,note_on,2,0,0,,2,,,62,127
37465,note_off,116,0,0,,2,,,62,127
37467,note_on,2,0,0,,0,,,60,127
37583,note_off,116,0,0,,0,,,60,127
37583,note_off,0,0,0,,2,,,74,127
37585,note_on,2,0,0,,12,,,59,127
37585,note_on,0,0,0,,2,,,74,127
37701,note_off,116,0,0,,12,,,59,127
37703,note_on,2,0,0,,12,,,59,127
37819,note_off,116,0,0,,12,,,59,127
37821,note_on,2,0,0,,10,,,57,127
37937,note_off,116,0,0,,10,,,57,127
37937,note_off,0,0,0,,2,,,74,127
37939,note_on,2,0,0,,8,,,56,127
37939,note_on,0,0,0,,2,,,74,127
38055,note_off,116,0,0,,8,,,56,127
38057,note_on,2,0,0,,8,,,56,127
38173,note_off,116,0,0,,8,,,56,127
38175,note_on,2,0,0,,5,,,53,127
38291,note_off,116,0,0,,5,,,53,127
38293,note_on,2,0,0,,4,,,52,127
38409,note_off,116,0,0,,2,,,74,127
38411,note_on,2,0,0,,2,,,74,127
38527,note_off,116,0,0,,2,,,74,127
38529,note_on,2,0,0,,0,,,72,127
38645,note_off,116,0,0,,0,,,72,127
38645,note_off,0,0,0,,4,,,52,127
38647,note_on,2,0,0,,4,,,52,127
38647,note_on,0,0,0,,12,,,71,127
38763,note_off,116,0,0,,12,,,71,127
38765,note_on,2,0,0,,12,,,71,127
38881,note_off,116,0,0,,12,,,71,127
38883,note_on,2,0,0,,10,,,69,127
38999,note_off,116,0,0,,10,,,69,127
38999,note_off,0,0,0,,4,,,52,127
39001,note_on,2,0,0,,4,,,52,127
39001,note_on,0,0,0,,8,,,68,127
39117,note_off,116,0,0,,8,,,68,127
39119,note_on,2,0,0,,5,,,77,127
39235,note_off,116,0,0,,5,,,77,127
39237,note_on,2,0,0,,4,,,76,127
39353,note_off,116,0,0,,4,,,76,127
39353,note_off,0,0,0,,4,,,52,127
39355,note_on,2,0,0,,4,,,52,127
39355,note_on,0,0,0,,2,,,74,127
39471,note_off,116,0,0,,2,,,74,127
39473,note_on,2,0,0,,0,,,72,127
39589,note_off,116,0,0,,0,,,72,127
39591,note_on,2,0,0,,12,,,71,127
39707,note_off,116,0,0,,12,,,71,127
39708,note_off,1,0,0,,4,,,52,127
39709,note_on,1,0,0,,0,,,72,127
39827,note_on,118,0,0,,4,,,64,127
39943,note_off,116,0,0,,4,,,64,127
39945,note_on,2,0,0,,2,,,62,127
40061,note_off,116,0,0,,2,,,62,127
40061,note_off,0,0,0,,0,,,72,127
40063,note_on,2,0,0,,0,,,60,127
40063,note_on,0,0,0,,0,,,72,127
40179,note_off,116,0,0,,0,,,60,127
40181,note_on,2,0,0,,0,,,60,127
40297,note_off,116,0,0,,0,,,60,127
40299,note_on,2,0,0,,12,,,59,127
40415,note_off,116,0,0,,12,,,59,127
40415,note_off,0,0,0,,0,,,72,127
40417,note_on,2,0,0,,10,,,57,127
40417,note_on,0,0,0,,0,,,72,127
40533,note_off,116,0,0,,10,,,57,127
40535,note_on,2,0,0,,10,,,57,127
40651,note_off,116,0,0,,10,,,57,127
40653,note_on,2,0,0,,7,,,55,127
40769,note_off,116,0,0,,7,,,55,127
40769,note_off,0,0,0,,0,,,72,127
40771,note_on,2,0,0,,6,,,54,127
40771,note_on,0,0,0,,0,,,72,127
40887,note_off,116,0,0,,6,,,54,127
40889,note_on,2,0,0,,6,,,54,127
41005,note_off,116,0,0,,6,,,54,127
41007,note_on,2,0,0,,4,,,52,127
41123,note_off,116,0,0,,4,,,52,127
41125,note_on,2,0,0,,2,,,50,127
41241,note_off,116,0,0,,0,,,72,127
41243,note_on,2,0,0,,0,,,72,127
41359,note_off,116,0,0,,0,,,72,127
41361,note_on,2,0,0,,12,,,71,127
41477,note_off,116,0,0,,12,,,71,127
41477,note_off,0,0,0,,2,,,50,127
41479,note_on,2,0,0,,2,,,50,127
41479,note_on,0,0,0,,10,,,69,127
41595,note_off,116,0,0,,10,,,69,127
41597,note_on,2,0,0,,10,,,69,127
41713,note_off,116,0,0,,10,,,69,127
41715,note_on,2,0,0,,7,,,67,127
41831,note_off,116,0,0,,7,,,67,127
41831,note_off,0,0,0,,2,,,50,127
41833,note_on,2,0,0,,2,,,50,127
41833,note_on,0,0,0,,6,,,66,127
41949,note_off,116,0,0,,6,,,66,127
41951,note_on,2,0,0,,4,,,76,127
42067,note_off,116,0,0,,4,,,76,127
42069,note_on,2,0,0,,2,,,74,127
42185,note_off,116,0,0,,2,,,74,127
42185,note_off,0,0,0,,2,,,50,127
42187,note_on,2,0,0,,2,,,50,127
42187,note_on,0,0,0,,0,,,72,127
42303,note_off,116,0,0,,0,,,72,127
42305,note_on,2,0,0,,12,,,71,127
42421,note_off,116,0,0,,12,,,71,127
42423,note_on,2,0,0,,10,,,69,127
42539,note_off,116,0,0,,10,,,69,127
42539,note_off,0,0,0,,2,,,50,127
42556,note_on,17,0,0,,12,,,71,127
42556,note_on,0,0,0,,7,,,79,127
42556,note_on,0,0,0,,7,,,55,127
42672,note_off,116,0,0,,7,,,79,127
42674,note_on,2,0,0,,7,,,79,127
42790,note_off,116,0,0,,7,,,79,127
42792,note_on,2,0,0,,5,,,77,127
42908,note_off,116,0,0,,5,,,77,127
42908,note_off,0,0,0,,7,,,55,127
42910,note_on,2,0,0,,3,,,75,127
42910,note_on,0,0,0,,7,,,67,127
42910,note_on,0,0,0,,7,,,55,127
43026,note_off,116,0,0,,3,,,75,127
43028,note_on,2,0,0,,3,,,75,127
43144,note_off,116,0,0,,3,,,75,127
43146,note_on,2,0,0,,2,,,74,127
43262,note_off,116,0,0,,2,,,74,127
43262,note_off,0,0,0,,7,,,55,127
43262,note_off,0,0,0,,7,,,67,127
43263,note_off,1,0,0,,12,,,71,127
43264,note_on,1,0,0,,0,,,72,127
43264,note_on,0,0,0,,0,,,84,127
43264,note_on,0,0,0,,8,,,56,127
43264,note_on,0,0,0,,7,,,67,127
43380,note_off,116,0,0,,0,,,84,127
43382,note_on,2,0,0,,0,,,84,127
43498,note_off,116,0,0,,0,,,84,127
43500,note_on,2,0,0,,11,,,82,127
43616,note_off,116,0,0,,11,,,82,127
43616,note_off,0,0,0,,7,,,67,127
43616,note_off,0,0,0,,8,,,56,127
43618,note_on,2,0,0,,8,,,80,127
43618,note_on,0,0,0,,7,,,67,127
43618,note_on,0,0,0,,8,,,56,127
43734,note_off,116,0,0,,8,,,80,127
43736,note_on,2,0,0,,8,,,80,127
43852,note_off,116,0,0,,8,,,80,127
43854,note_on,2,0,0,,7,,,79,127
43970,note_off,116,0,0,,7,,,79,127
43970,note_off,0,0,0,,8,,,56,127
43970,note_off,0,0,0,,7,,,67,127
43971,note_off,1,0,0,,0,,,72,127
43972,note_on,1,0,0,,0,,,72,127
43972,note_on,0,0,0,,5,,,77,127
43972,note_on,0,0,0,,8,,,56,127
43972,note_on,0,0,0,,5,,,65,127
44088,note_off,116,0,0,,5,,,77,127
44090,note_on,2,0,0,,5,,,77,127
44206,note_off,116,0,0,,5,,,77,127
44208,note_on,2,0,0,,3,,,75,127
44324,note_off,116,0,0,,3,,,75,127
44324,note_off,0,0,0,,5,,,65,127
44324,note_off,0,0,0,,8,,,56,127
44326,note_on,2,0,0,,2,,,74,127
44326,note_on,0,0,0,,8,,,56,127
44326,note_on,0,0,0,,5,,,65,127
44442,note_off,116,0,0,,2,,,74,127
44444,note_on,2,0,0,,2,,,74,127
44560,note_off,116,0,0,,2,,,74,127
44561,note_off,1,0,0,,0,,,72,127
44562,note_on,1,0,0,,0,,,72,127
44678,note_off,116,0,0,,0,,,72,127
44678,note_off,0,0,0,,5,,,65,127
44678,note_off,0,0,0,,8,,,56,127
44695,note_on,17,0,0,,7,,,55,127
44695,note_on,0,0,0,,7,,,67,127
44695,note_on,0,0,0,,7,,,79,127
44695,note_on,0,0,0,,12,,,71,127
44811,note_off,116,0,0,,7,,,79,127
44813,note_on,2,0,0,,7,,,79,127
44929,note_off,116,0,0,,7,,,79,127
44931,note_on,2,0,0,,5,,,77,127
45047,note_off,116,0,0,,5,,,77,127
45047,note_off,0,0,0,,7,,,67,127
45047,note_off,0,0,0,,7,,,55,127
45049,note_on,2,0,0,,7,,,67,127
45049,note_on,0,0,0,,7,,,55,127
45049,note_on,0,0,0,,3,,,75,127
45165,note_off,116,0,0,,3,,,75,127
45167,note_on,2,0,0,,3,,,75,127
45283,note_off,116,0,0,,3,,,75,127
45285,note_on,2,0,0,,2,,,74,127
45401,note_off,116,0,0,,2,,,74,127
45401,note_off,0,0,0,,7,,,55,127
45401,note_off,0,0,0,,7,,,67,127
45402,note_off,1,0,0,,12,,,71,127
45403,note_on,1,0,0,,7,,,67,127
45403,note_on,0,0,0,,8,,,56,127
45403,note_on,0,0,0,,0,,,72,127
45403,note_on,0,0,0,,0,,,84,127
45519,note_off,116,0,0,,0,,,84,127
45521,note_on,2,0,0,,0,,,84,127
45637,note_off,116,0,0,,0,,,84,127
45639,note_on,2,0,0,,11,,,82,127
45755,note_off,116,0,0,,11,,,82,127
45755,note_off,0,0,0,,8,,,56,127
45755,note_off,0,0,0,,7,,,67,127
45757,note_on,2,0,0,,7,,,67,127
45757,note_on,0,0,0,,8,,,56,127
45757,note_on,0,0,0,,8,,,80,127
45873,note_off,116,0,0,,8,,,80,127
45875,note_on,2,0,0,,8,,,80,127
45991,note_off,116,0,0,,8,,,80,127
45993,note_on,2,0,0,,7,,,79,127
46109,note_off,116,0,0,,7,,,79,127
46109,note_off,0,0,0,,8,,,56,127
46109,note_off,0,0,0,,7,,,67,127
46110,note_off,1,0,0,,0,,,72,127
46111,note_on,1,0,0,,8,,,56,127
46111,note_on,0,0,0,,5,,,65,127
46111,note_on,0,0,0,,0,,,72,127
46111,note_on,0,0,0,,5,,,77,127
46227,note_off,116,0,0,,5,,,77,127
46229,note_on,2,0,0,,5,,,77,127
46345,note_off,116,0,0,,5,,,77,127
46347,note_on,2,0,0,,3,,,75,127
46463,note_off,116,0,0,,3,,,75,127
46463,note_off,0,0,0,,5,,,65,127
46463,note_off,0,0,0,,8,,,56,127
46465,note_on,2,0,0,,8,,,56,127
46465,note_on,0,0,0,,5,,,65,127
46465,note_on,0,0,0,,2,,,74,127
46581,note_off,116,0,0,,2,,,74,127
46583,note_on,2,0,0,,2,,,74,127
46699,note_off,116,0,0,,2,,,74,127
46700,note_off,1,0,0,,0,,,72,127
46701,note_on,1,0,0,,0,,,72,127
46817,note_off,116,0,0,,0,,,72,127
46817,note_off,0,0,0,,5,,,65,127
46817,note_off,0,0,0,,8,,,56,127
46819,note_on,2,0,0,,2,,,62,127
46819,note_on,0,0,0,,11,,,58,127
46819,note_on,0,0,0,,11,,,70,127
46935,note_off,116,0,0,,11,,,70,127
46937,note_on,2,0,0,,11,,,70,127
47053,note_off,116,0,0,,11,,,70,127
47055,note_on,2,0,0,,8,,,68,127
47171,note_off,116,0,0,,8,,,68,127
47171,note_off,0,0,0,,11,,,58,127
47171,note_off,0,0,0,,2,,,62,127
47173,note_on,2,0,0,,2,,,62,127
47173,note_on,0,0,0,,11,,,58,127
47173,note_on,0,0,0,,7,,,67,127
47289,note_off,116,0,0,,7,,,67,127
47291,note_on,2,0,0,,7,,,67,127
47407,note_off,116,0,0,,7,,,67,127
47409,note_on,2,0,0,,5,,,65,127
47525,note_off,116,0,0,,5,,,65,127
47525,note_off,0,0,0,,11,,,58,127
47525,note_off,0,0,0,,2,,,62,127
47527,note_on,2,0,0,,11,,,58,127
47527,note_on,0,0,0,,3,,,63,127
47527,note_on,0,0,0,,7,,,67,127
47527,note_on,0,0,0,,11,,,70,127
47643,note_off,116,0,0,,7,,,67,127
47645,note_on,2,0,0,,7,,,67,127
47761,note_off,116,0,0,,7,,,67,127
47761,note_off,0,0,0,,3,,,63,127
47763,note_on,2,0,0,,2,,,62,127
47763,note_on,0,0,0,,8,,,68,127
47879,note_off,116,0,0,,8,,,68,127
47879,note_off,0,0,0,,2,,,62,127
47880,note_off,1,0,0,,11,,,70,127
47880,note_off,0,0,0,,11,,,58,127
47881,note_on,1,0,0,,11,,,58,127
47881,note_on,0,0,0,,3,,,63,127
47881,note_on,0,0,0,,7,,,67,127
47881,note_on,0,0,0,,11,,,70,127
47997,note_off,116,0,0,,7,,,67,127
47999,note_on,2,0,0,,7,,,67,127
48115,note_off,116,0,0,,7,,,67,127
48115,note_off,0,0,0,,3,,,63,127
48117,note_on,2,0,0,,2,,,62,127
48117,note_on,0,0,0,,8,,,68,127
48233,note_off,116,0,0,,8,,,68,127
48233,note_off,0,0,0,,2,,,62,127
48234,note_off,1,0,0,,11,,,70,127
48234,note_off,0,0,0,,11,,,58,127
48235,note_on,1,0,0,,11,,,58,127
48235,note_on,0,0,0,,3,,,63,127
48235,note_on,0,0,0,,11,,,70,127
48235,note_on,0,0,0,,7,,,67,127
48351,note_off,116,0,0,,7,,,67,127
48353,note_on,2,0,0,,7,,,67,127
48469,note_off,116,0,0,,7,,,67,127
48469,note_off,0,0,0,,3,,,63,127
48471,note_on,2,0,0,,2,,,62,127
48471,note_on,0,0,0,,8,,,68,127
48587,note_off,116,0,0,,8,,,68,127
48587,note_off,0,0,0,,2,,,62,127
48588,note_off,1,0,0,,11,,,70,127
48588,note_off,0,0,0,,11,,,58,127
48589,note_on,1,0,0,,11,,,58,127
48589,note_on,0,0,0,,3,,,63,127
48589,note_on,0,0,0,,7,,,67,127
48589,note_on,0,0,0,,11,,,70,127
48705,note_off,116,0,0,,7,,,67,127
48707,note_on,2,0,0,,7,,,67,127
48823,note_off,116,0,0,,7,,,67,127
48823,note_off,0,0,0,,3,,,63,127
48825,note_on,2,0,0,,2,,,62,127
48825,note_on,0,0,0,,8,,,68,127
48941,note_off,116,0,0,,8,,,68,127
48941,note_off,0,0,0,,2,,,62,127
48942,note_off,1,0,0,,11,,,70,127
48942,note_off,0,0,0,,11,,,58,127
48943,note_on,1,0,0,,3,,,63,127
48943,note_on,0,0,0,,7,,,67,127
48943,note_on,0,0,0,,11,,,70,127
49059,note_off,116,0,0,,3,,,63,127
49061,note_on,2,0,0,,3,,,63,127
49177,note_off,116,0,0,,3,,,63,127
49179,note_on,2,0,0,,2,,,62,127
49295,note_off,116,0,0,,2,,,62,127
49295,note_off,0,0,0,,11,,,70,127
49295,note_off,0,0,0,,7,,,67,127
49297,note_on,2,0,0,,0,,,60,127
49297,note_on,0,0,0,,0,,,72,127
49413,note_off,116,0,0,,0,,,60,127
49415,note_on,2,0,0,,0,,,60,127
49531,note_off,116,0,0,,0,,,60,127
49533,note_on,2,0,0,,11,,,58,127
49649,note_off,116,0,0,,11,,,58,127
49649,note_off,0,0,0,,0,,,72,127
49651,note_on,2,0,0,,10,,,57,127
49651,note_on,0,0,0,,0,,,72,127
49767,note_off,116,0,0,,10,,,57,127
49769,note_on,2,0,0,,10,,,57,127
49885,note_off,116,0,0,,10,,,57,127
49887,note_on,2,0,0,,7,,,55,127
50003,note_off,116,0,0,,7,,,55,127
50003,note_off,0,0,0,,0,,,72,127
50005,note_on,2,0,0,,6,,,54,127
50005,note_on,0,0,0,,0,,,72,127
50121,note_off,116,0,0,,6,,,54,127
50123,note_on,2,0,0,,6,,,54,127
50239,note_off,116,0,0,,6,,,54,127
50241,note_on,2,0,0,,4,,,52,127
50357,note_off,116,0,0,,4,,,52,127
50357,note_off,0,0,0,,0,,,72,127
50359,note_on,2,0,0,,2,,,50,127
50359,note_on,0,0,0,,0,,,72,127
50475,note_off,116,0,0,,2,,,50,127
50477,note_on,2,0,0,,3,,,63,127
50593,note_off,116,0,0,,3,,,63,127
50595,note_on,2,0,0,,2,,,62,127
50711,note_off,116,0,0,,2,,,62,127
50711,note_off,0,0,0,,0,,,72,127
50713,note_on,2,0,0,,0,,,60,127
50713,note_on,0,0,0,,0,,,72,127
50829,note_off,116,0,0,,0,,,60,127
50831,note_on,2,0,0,,0,,,60,127
50947,note_off,116,0,0,,0,,,60,127
50949,note_on,2,0,0,,11,,,58,127
51065,note_off,116,0,0,,11,,,58,127
51065,note_off,0,0,0,,0,,,72,127
51067,note_on,2,0,0,,10,,,57,127
51067,note_on,0,0,0,,0,,,72,127
51183,note_off,116,0,0,,10,,,57,127
51185,note_on,2,0,0,,10,,,57,127
51301,note_off,116,0,0,,10,,,57,127
51303,note_on,2,0,0,,7,,,55,127
51419,note_off,116,0,0,,7,,,55,127
51419,note_off,0,0,0,,0,,,72,127
51421,note_on,2,0,0,,6,,,54,127
51421,note_on,0,0,0,,0,,,72,127
51537,note_off,116,0,0,,6,,,54,127
51539,note_on,2,0,0,,6,,,54,127
51655,note_off,116,0,0,,6,,,54,127
51657,note_on,2,0,0,,4,,,52,127
51773,note_off,116,0,0,,4,,,52,127
51775,note_on,2,0,0,,2,,,50,127
51891,note_off,116,0,0,,0,,,72,127
51893,note_on,2,0,0,,3,,,75,127
52009,note_off,116,0,0,,3,,,75,127
52011,note_on,2,0,0,,2,,,74,127
52127,note_off,116,0,0,,2,,,74,127
52127,note_off,0,0,0,,2,,,50,127
52129,note_on,2,0,0,,2,,,62,127
52129,note_on,0,0,0,,0,,,72,127
52245,note_off,116,0,0,,0,,,72,127
52247,note_on,2,0,0,,11,,,70,127
52363,note_off,116,0,0,,11,,,70,127
52365,note_on,2,0,0,,10,,,69,127
52481,note_off,116,0,0,,10,,,69,127
52481,note_off,0,0,0,,2,,,62,127
52483,note_on,2,0,0,,7,,,43,127
52483,note_on,0,0,0,,11,,,70,127
52599,note_off,116,0,0,,11,,,70,127
52601,note_on,2,0,0,,7,,,79,127
52717,note_off,116,0,0,,7,,,79,127
52719,note_on,2,0,0,,5,,,77,127
52835,note_off,116,0,0,,5,,,77,127
52836,note_off,1,0,0,,7,,,43,127
52837,note_on,1,0,0,,7,,,55,127
52837,note_on,0,0,0,,4,,,76,127
52953,note_off,116,0,0,,4,,,76,127
52955,note_on,2,0,0,,4,,,76,127
53071,note_off,116,0,0,,4,,,76,127
53073,note_on,2,0,0,,2,,,74,127
53189,note_off,116,0,0,,2,,,74,127
53189,note_off,0,0,0,,7,,,55,127
53191,note_on,2,0,0,,10,,,45,127
53191,note_on,0,0,0,,1,,,73,127
53307,note_off,116,0,0,,1,,,73,127
53309,note_on,2,0,0,,11,,,82,127
53425,note_off,116,0,0,,11,,,82,127
53427,note_on,2,0,0,,10,,,81,127
53543,note_off,116,0,0,,10,,,81,127
53544,note_off,1,0,0,,10,,,45,127
53545,note_on,1,0,0,,10,,,57,127
53545,note_on,0,0,0,,7,,,79,127
53661,note_off,116,0,0,,7,,,79,127
53663,note_on,2,0,0,,5,,,77,127
53779,note_off,116,0,0,,5,,,77,127
53781,note_on,2,0,0,,4,,,76,127
53897,note_off,116,0,0,,4,,,76,127
53897,note_off,0,0,0,,10,,,57,127
53899,note_on,2,0,0,,2,,,38,127
53899,note_on,0,0,0,,5,,,77,127
54015,note_off,116,0,0,,5,,,77,127
54017,note_on,2,0,0,,2,,,74,127
54133,note_off,116,0,0,,2,,,74,127
54135,note_on,2,0,0,,0,,,72,127
54251,note_off,116,0,0,,0,,,72,127
54251,note_off,0,0,0,,2,,,38,127
54253,note_on,2,0,0,,2,,,50,127
54253,note_on,0,0,0,,12,,,71,127
54369,note_off,116,0,0,,12,,,71,127
54371,note_on,2,0,0,,12,,,71,127
54487,note_off,116,0,0,,12,,,71,127
54489,note_on,2,0,0,,10,,,69,127
54605,note_off,116,0,0,,10,,,69,127
54605,note_off,0,0,0,,2,,,50,127
54607,note_on,2,0,0,,4,,,40,127
54607,note_on,0,0,0,,8,,,68,127
54723,note_off,116,0,0,,8,,,68,127
54725,note_on,2,0,0,,5,,,77,127
54841,note_off,116,0,0,,5,,,77,127
54843,note_on,2,0,0,,4,,,76,127
54959,note_off,116,0,0,,4,,,76,127
54959,note_off,0,0,0,,4,,,40,127
54961,note_on,2,0,0,,4,,,52,127
54961,note_on,0,0,0,,2,,,74,127
55077,note_off,116,0,0,,2,,,74,127
55079,note_on,2,0,0,,0,,,72,127
55195,note_off,116,0,0,,0,,,72,127
55197,note_on,2,0,0,,12,,,71,127
55313,note_off,116,0,0,,12,,,71,127
55313,note_off,0,0,0,,4,,,52,127
55315,note_on,2,0,0,,10,,,45,127
55315,note_on,0,0,0,,0,,,72,127
55431,note_off,116,0,0,,0,,,72,127
55433,note_on,2,0,0,,10,,,69,127
55549,note_off,116,0,0,,10,,,69,127
55551,note_on,2,0,0,,7,,,67,127
55667,note_off,116,0,0,,7,,,67,127
55667,note_off,0,0,0,,10,,,45,127
55669,note_on,2,0,0,,10,,,57,127
55669,note_on,0,0,0,,6,,,66,127
55785,note_off,116,0,0,,6,,,66,127
55787,note_on,2,0,0,,6,,,66,127
55903,note_off,116,0,0,,6,,,66,127
55905,note_on,2,0,0,,4,,,64,127
56021,note_off,116,0,0,,4,,,64,127
56021,note_off,0,0,0,,10,,,57,127
56023,note_on,2,0,0,,12,,,47,127
56023,note_on,0,0,0,,3,,,63,127
56139,note_off,116,0,0,,3,,,63,127
56141,note_on,2,0,0,,0,,,72,127
56257,note_off,116,0,0,,0,,,72,127
56259,note_on,2,0,0,,12,,,71,127
56375,note_off,116,0,0,,12,,,71,127
56375,note_off,0,0,0,,12,,,47,127
56377,note_on,2,0,0,,12,,,59,127
56377,note_on,0,0,0,,10,,,69,127
56493,note_off,116,0,0,,10,,,69,127
56495,note_on,2,0,0,,8,,,68,127
56611,note_off,116,0,0,,8,,,68,127
56613,note_on,2,0,0,,6,,,66,127
56729,note_off,116,0,0,,6,,,66,127
56729,note_off,0,0,0,,12,,,59,127
56746,note_on,17,0,0,,8,,,68,127
56746,note_on,0,0,0,,4,,,64,127
56862,note_off,116,0,0,,8,,,68,127
56864,note_on,2,0,0,,8,,,68,127
56980,note_off,116,0,0,,8,,,68,127
56982,note_on,2,0,0,,8,,,68,127
57098,note_off,116,0,0,,8,,,68,127
57098,note_off,0,0,0,,4,,,64,127
57100,note_on,2,0,0,,8,,,68,127
57100,note_on,0,0,0,,2,,,62,127
57216,note_off,116,0,0,,8,,,68,127
57218,note_on,2,0,0,,8,,,68,127
57334,note_off,116,0,0,,8,,,68,127
57336,note_on,2,0,0,,8,,,68,127
57452,note_off,116,0,0,,8,,,68,127
57452,note_off,0,0,0,,2,,,62,127
57454,note_on,2,0,0,,10,,,69,127
57454,note_on,0,0,0,,1,,,61,127
57570,note_off,116,0,0,,10,,,69,127
57572,note_on,2,0,0,,10,,,69,127
57688,note_off,116,0,0,,10,,,69,127
57690,note_on,2,0,0,,10,,,69,127
57806,note_off,116,0,0,,10,,,69,127
57806,note_off,0,0,0,,1,,,61,127
57808,note_on,2,0,0,,12,,,71,127
57808,note_on,0,0,0,,12,,,59,127
57924,note_off,116,0,0,,12,,,71,127
57926,note_on,2,0,0,,12,,,71,127
58042,note_off,116,0,0,,12,,,71,127
58044,note_on,2,0,0,,12,,,71,127
58160,note_off,116,0,0,,12,,,71,127
58160,note_off,0,0,0,,12,,,59,127
58162,note_on,2,0,0,,1,,,73,127
58162,note_on,0,0,0,,10,,,57,127
58278,note_off,116,0,0,,10,,,57,127
58280,note_on,2,0,0,,10,,,69,127
58396,note_off,116,0,0,,10,,,69,127
58398,note_on,2,0,0,,8,,,68,127
58514,note_off,116,0,0,,8,,,68,127
58514,note_off,0,0,0,,1,,,73,127
58516,note_on,2,0,0,,2,,,74,127
58516,note_on,0,0,0,,6,,,66,127
58632,note_off,116,0,0,,6,,,66,127
58634,note_on,2,0,0,,6,,,66,127
58750,note_off,116,0,0,,6,,,66,127
58750,note_off,0,0,0,,2,,,74,127
58752,note_on,2,0,0,,4,,,76,127
58752,note_on,0,0,0,,4,,,64,127
58868,note_off,116,0,0,,4,,,64,127
58868,note_off,0,0,0,,4,,,76,127
58870,note_on,2,0,0,,6,,,78,127
58870,note_on,0,0,0,,2,,,62,127
58986,note_off,116,0,0,,2,,,62,127
58988,note_on,2,0,0,,2,,,62,127
59104,note_off,116,0,0,,2,,,62,127
59106,note_on,2,0,0,,1,,,61,127
59222,note_off,116,0,0,,1,,,61,127
59222,note_off,0,0,0,,6,,,78,127
59224,note_on,2,0,0,,8,,,80,127
59224,note_on,0,0,0,,12,,,59,127
59340,note_off,116,0,0,,12,,,59,127
59342,note_on,2,0,0,,12,,,59,127
59458,note_off,116,0,0,,12,,,59,127
59458,note_off,0,0,0,,8,,,80,127
59460,note_on,2,0,0,,10,,,81,127
59460,note_on,0,0,0,,10,,,57,127
59576,note_off,116,0,0,,10,,,57,127
59576,note_off,0,0,0,,10,,,81,127
59578,note_on,2,0,0,,12,,,83,127
59578,note_on,0,0,0,,8,,,56,127
59694,note_off,116,0,0,,8,,,56,127
59696,note_on,2,0,0,,8,,,56,127
59812,note_off,116,0,0,,8,,,56,127
59812,note_off,0,0,0,,12,,,83,127
59814,note_on,2,0,0,,12,,,71,127
59814,note_on,0,0,0,,6,,,54,127
59930,note_off,116,0,0,,6,,,54,127
59930,note_off,0,0,0,,12,,,71,127
59932,note_on,2,0,0,,1,,,73,127
59932,note_on,0,0,0,,4,,,52,127
60048,note_off,116,0,0,,4,,,52,127
60050,note_on,2,0,0,,4,,,52,127
60166,note_off,116,0,0,,4,,,52,127
60166,note_off,0,0,0,,1,,,73,127
60168,note_on,2,0,0,,2,,,74,127
60168,note_on,0,0,0,,2,,,50,127
60284,note_off,116,0,0,,2,,,50,127
60284,note_off,0,0,0,,2,,,74,127
60286,note_on,2,0,0,,4,,,76,127
60286,note_on,0,0,0,,1,,,49,127
60402,note_off,116,0,0,,1,,,49,127
60404,note_on,2,0,0,,1,,,49,127
60520,note_off,116,0,0,,1,,,49,127
60522,note_on,2,0,0,,12,,,47,127
60638,note_off,116,0,0,,12,,,47,127
60638,note_off,0,0,0,,4,,,76,127
60640,note_on,2,0,0,,6,,,78,127
60640,note_on,0,0,0,,10,,,45,127
60756,note_off,116,0,0,,10,,,45,127
60758,note_on,2,0,0,,10,,,45,127
60874,note_off,116,0,0,,10,,,45,127
60874,note_off,0,0,0,,6,,,78,127
60876,note_on,2,0,0,,8,,,80,127
60876,note_on,0,0,0,,8,,,44,127
60992,note_off,116,0,0,,8,,,44,127
60992,note_off,0,0,0,,8,,,80,127
60994,note_on,2,0,0,,10,,,81,127
60994,note_on,0,0,0,,6,,,42,127
61110,note_off,116,0,0,,6,,,42,127
61112,note_on,2,0,0,,4,,,40,127
61228,note_off,116,0,0,,4,,,40,127
61228,note_off,0,0,0,,10,,,81,127
61230,note_on,2,0,0,,2,,,74,127
61230,note_on,0,0,0,,2,,,38,127
61346,note_off,116,0,0,,2,,,38,127
61346,note_off,0,0,0,,2,,,74,127
61348,note_on,2,0,0,,1,,,73,127
61348,note_on,0,0,0,,10,,,69,127
61348,note_on,0,0,0,,4,,,40,127
61464,note_off,116,0,0,,1,,,73,127
61466,note_on,2,0,0,,2,,,74,127
61582,note_off,116,0,0,,2,,,74,127
61583,note_off,1,0,0,,10,,,69,127
61584,note_on,1,0,0,,8,,,68,127
61584,note_on,0,0,0,,12,,,71,127
61700,note_off,116,0,0,,12,,,71,127
61700,note_off,0,0,0,,8,,,68,127
61701,note_off,1,0,0,,4,,,40,127
61717,note_on,16,0,0,,10,,,69,127
61834,note_off,117,0,0,,10,,,69,127
61835,note_on,1,0,0,,10,,,69,127
61951,note_off,116,0,0,,10,,,69,127
61953,note_on,2,0,0,,8,,,68,127
61953,note_on,0,0,0,,1,,,73,127
62069,note_off,116,0,0,,1,,,73,127
62069,note_off,0,0,0,,8,,,68,127
62071,note_on,2,0,0,,6,,,66,127
62071,note_on,0,0,0,,2,,,74,127
62187,note_off,116,0,0,,6,,,66,127
62189,note_on,2,0,0,,6,,,66,127
62305,note_off,116,0,0,,6,,,66,127
62305,note_off,0,0,0,,2,,,74,127
62307,note_on,2,0,0,,4,,,64,127
62307,note_on,0,0,0,,4,,,76,127
62423,note_off,116,0,0,,4,,,76,127
62423,note_off,0,0,0,,4,,,64,127
62425,note_on,2,0,0,,2,,,62,127
62425,note_on,0,0,0,,6,,,78,127
62541,note_off,116,0,0,,2,,,62,127
62543,note_on,2,0,0,,2,,,62,127
62659,note_off,116,0,0,,2,,,62,127
62661,note_on,2,0,0,,1,,,61,127
62777,note_off,116,0,0,,1,,,61,127
62777,note_off,0,0,0,,6,,,78,127
62779,note_on,2,0,0,,12,,,59,127
62779,note_on,0,0,0,,8,,,80,127
62895,note_off,116,0,0,,12,,,59,127
62897,note_on,2,0,0,,12,,,59,127
63013,note_off,116,0,0,,12,,,59,127
63013,note_off,0,0,0,,8,,,80,127
63015,note_on,2,0,0,,10,,,57,127
63015,note_on,0,0,0,,10,,,81,127
63131,note_off,116,0,0,,10,,,81,127
63131,note_off,0,0,0,,10,,,57,127
63133,note_on,2,0,0,,8,,,56,127
63133,note_on,0,0,0,,12,,,83,127
63249,note_off,116,0,0,,8,,,56,127
63251,note_on,2,0,0,,8,,,56,127
63367,note_off,116,0,0,,8,,,56,127
63367,note_off,0,0,0,,12,,,83,127
63369,note_on,2,0,0,,6,,,54,127
63369,note_on,0,0,0,,12,,,71,127
63485,note_off,116,0,0,,12,,,71,127
63485,note_off,0,0,0,,6,,,54,127
63487,note_on,2,0,0,,4,,,52,127
63487,note_on,0,0,0,,1,,,73,127
63603,note_off,116,0,0,,4,,,52,127
63605,note_on,2,0,0,,4,,,52,127
63721,note_off,116,0,0,,4,,,52,127
63721,note_off,0,0,0,,1,,,73,127
63723,note_on,2,0,0,,2,,,50,127
63723,note_on,0,0,0,,2,,,74,127
63839,note_off,116,0,0,,2,,,74,127
63839,note_off,0,0,0,,2,,,50,127
63841,note_on,2,0,0,,1,,,49,127
63841,note_on,0,0,0,,4,,,76,127
63957,note_off,116,0,0,,1,,,49,127
63959,note_on,2,0,0,,1,,,49,127
64075,note_off,116,0,0,,1,,,49,127
64077,note_on,2,0,0,,12,,,47,127
64193,note_off,116,0,0,,12,,,47,127
64193,note_off,0,0,0,,4,,,76,127
64195,note_on,2,0,0,,10,,,45,127
64195,note_on,0,0,0,,6,,,78,127
64311,note_off,116,0,0,,10,,,45,127
64313,note_on,2,0,0,,10,,,45,127
64429,note_off,116,0,0,,10,,,45,127
64429,note_off,0,0,0,,6,,,78,127
64431,note_on,2,0,0,,8,,,44,127
64431,note_on,0,0,0,,8,,,80,127
64547,note_off,116,0,0,,8,,,80,127
64547,note_off,0,0,0,,8,,,44,127
64549,note_on,2,0,0,,6,,,42,127
64549,note_on,0,0,0,,10,,,81,127
64665,note_off,116,0,0,,6,,,42,127
64667,note_on,2,0,0,,4,,,40,127
64783,note_off,116,0,0,,4,,,40,127
64783,note_off,0,0,0,,10,,,81,127
64785,note_on,2,0,0,,2,,,38,127
64785,note_on,0,0,0,,2,,,74,127
64901,note_off,116,0,0,,2,,,74,127
64901,note_off,0,0,0,,2,,,38,127
64903,note_on,2,0,0,,4,,,40,127
64903,note_on,0,0,0,,10,,,69,127
64903,note_on,0,0,0,,1,,,73,127
65019,note_off,116,0,0,,1,,,73,127
65021,note_on,2,0,0,,2,,,74,127
65137,note_off,116,0,0,,2,,,74,127
65138,note_off,1,0,0,,10,,,69,127
65139,note_on,1,0,0,,8,,,68,127
65139,note_on,0,0,0,,12,,,71,127
65255,note_off,116,0,0,,12,,,71,127
65255,note_off,0,0,0,,8,,,68,127
65255,note_off,0,0,0,,4,,,40,127
65257,note_on,2,0,0,,10,,,45,127
65257,note_on,0,0,0,,10,,,69,127
65390,note_on,133,0,0,,4,,,76,127
65506,note_off,116,0,0,,4,,,76,127
65508,note_on,2,0,0,,4,,,76,127
65610,note_off,102,0,0,,10,,,45,127
65611,note_off,1,0,0,,10,,,69,127
65625,note_off,14,0,0,,4,,,76,127
65627,note_on,2,0,0,,4,,,76,127
65627,note_on,0,0,0,,6,,,78,127
65627,note_on,0,0,0,,2,,,50,127
65743,note_off,116,0,0,,4,,,76,127
65745,note_on,2,0,0,,2,,,74,127
65861,note_off,116,0,0,,2,,,74,127
65863,note_on,2,0,0,,2,,,74,127
65979,note_off,116,0,0,,2,,,74,127
65979,note_off,0,0,0,,2,,,50,127
65980,note_off,1,0,0,,6,,,78,127
65981,note_on,1,0,0,,2,,,74,127
65981,note_on,0,0,0,,4,,,76,127
65981,note_on,0,0,0,,10,,,45,127
66097,note_off,116,0,0,,2,,,74,127
66099,note_on,2,0,0,,1,,,73,127
66215,note_off,116,0,0,,1,,,73,127
66217,note_on,2,0,0,,1,,,73,127
66333,note_off,116,0,0,,1,,,73,127
66333,note_off,0,0,0,,10,,,45,127
66334,note_off,1,0,0,,4,,,76,127
66335,note_on,1,0,0,,1,,,73,127
66335,note_on,0,0,0,,2,,,74,127
66335,note_on,0,0,0,,4,,,40,127
66451,note_off,116,0,0,,1,,,73,127
66453,note_on,2,0,0,,12,,,71,127
66569,note_off,116,0,0,,12,,,71,127
66571,note_on,2,0,0,,12,,,71,127
66687,note_off,116,0,0,,12,,,71,127
66687,note_off,0,0,0,,4,,,40,127
66688,note_off,1,0,0,,2,,,74,127
66689,note_on,1,0,0,,1,,,73,127
66689,note_on,0,0,0,,10,,,45,127
66805,note_off,116,0,0,,1,,,73,127
66807,note_on,2,0,0,,1,,,73,127
66923,note_off,116,0,0,,1,,,73,127
66925,note_on,2,0,0,,1,,,73,127
67041,note_off,116,0,0,,1,,,73,127
67041,note_off,0,0,0,,10,,,45,127
67043,note_on,2,0,0,,2,,,74,127
67043,note_on,0,0,0,,4,,,64,127
67043,note_on,0,0,0,,4,,,52,127
67159,note_off,116,0,0,,2,,,74,127
67161,note_on,2,0,0,,12,,,71,127
67277,note_off,116,0,0,,12,,,71,127
67279,note_on,2,0,0,,12,,,71,127
67395,note_off,116,0,0,,12,,,71,127
67395,note_off,0,0,0,,4,,,52,127
67396,note_off,1,0,0,,4,,,64,127
67397,note_on,1,0,0,,1,,,73,127
67397,note_on,0,0,0,,4,,,64,127
67397,note_on,0,0,0,,10,,,45,127
67513,note_off,116,0,0,,4,,,64,127
67513,note_off,0,0,0,,1,,,73,127
67515,note_on,2,0,0,,10,,,69,127
67515,note_on,0,0,0,,1,,,61,127
67631,note_off,116,0,0,,1,,,61,127
67631,note_off,0,0,0,,10,,,69,127
67633,note_on,2,0,0,,10,,,69,127
67633,note_on,0,0,0,,1,,,61,127
67749,note_off,116,0,0,,1,,,61,127
67749,note_off,0,0,0,,10,,,69,127
67749,note_off,0,0,0,,10,,,45,127
67751,note_on,2,0,0,,2,,,62,127
67751,note_on,0,0,0,,12,,,71,127
67751,note_on,0,0,0,,4,,,40,127
67867,note_off,116,0,0,,12,,,71,127
67867,note_off,0,0,0,,2,,,62,127
67869,note_on,2,0,0,,10,,,69,127
67869,note_on,0,0,0,,1,,,61,127
67985,note_off,116,0,0,,1,,,61,127
67985,note_off,0,0,0,,10,,,69,127
67987,note_on,2,0,0,,12,,,59,127
67987,note_on,0,0,0,,8,,,68,127
68103,note_off,116,0,0,,8,,,68,127
68103,note_off,0,0,0,,12,,,59,127
68103,note_off,0,0,0,,4,,,40,127
68114,note_on,11,0,0,,10,,,69,127
68114,note_on,0,0,0,,10,,,45,127
68114,note_on,0,0,0,,10,,,33,127
68114,note_on,0,0,0,,10,,,57,127
70099,note_off,1985,0,0,,10,,,57,127
70099,note_off,0,0,0,,10,,,33,127
70099,note_off,0,0,0,,10,,,45,127
70099,note_off,0,0,0,,10,,,69,127
75264,end_of_track,5165,1,0,,,,,,
